<?xml version="1.0" encoding="iso-8859-1"?>
<!-- Generator: Adobe Illustrator 15.1.0, SVG Export Plug-In . SVG Version: 6.00 Build 0)  -->
<!DOCTYPE svg PUBLIC "-//W3C//DTD SVG 1.1//EN" "http://www.w3.org/Graphics/SVG/1.1/DTD/svg11.dtd">
<svg version="1.1" id="buildings" xmlns="http://www.w3.org/2000/svg" xmlns:xlink="http://www.w3.org/1999/xlink" x="0px" y="0px"
	 width="402.9px" height="96.6px" viewBox="0 0 402.9 96.6" style="enable-background:new 0 0 402.9 96.6;" xml:space="preserve">
<symbol  id="FlashAICB_x2F_buildings_x2F__x3C_Path_x3E_" viewBox="-0.001 -30.85 6.701 30.85">
	<g id="Layer_1_26_">
		<path style="fill-rule:evenodd;clip-rule:evenodd;fill:#DED3B2;" d="M5.25,0C2.717-3.767,2.2-9.567,3.7-17.4
			c0.767-3.9,1.767-7.434,3-10.6l-1.75-2.85C4.117-28.383,3.3-25.7,2.5-22.8C0.833-17,0-13.05,0-10.95
			C-0.033-7.183,0.833-4.233,2.6-2.1C3.467-1.033,4.35-0.333,5.25,0z"/>
	</g>
</symbol>
<symbol  id="FlashAICB_x2F_buildings_x2F__x3C_Path_x3E__x5F_1" viewBox="0 -32.85 8.85 32.85">
	<g id="Layer_1_25_">
		<polygon style="fill-rule:evenodd;clip-rule:evenodd;fill:#DED3B2;" points="7.75,0 8.85,-32.75 0,-32.85 1.7,0 		"/>
	</g>
</symbol>
<symbol  id="FlashAICB_x2F_buildings_x2F__x3C_Path_x3E__x5F_10" viewBox="0 -33.5 10.1 33.5">
	<g id="Layer_1_16_">
		<polygon style="fill-rule:evenodd;clip-rule:evenodd;fill:#DED3B2;" points="7.85,-0.05 10.1,-33.5 0,-33.5 2.55,0 		"/>
	</g>
</symbol>
<symbol  id="FlashAICB_x2F_buildings_x2F__x3C_Path_x3E__x5F_11" viewBox="0 -33.75 9.8 33.75">
	<g id="Layer_1_15_">
		<polygon style="fill-rule:evenodd;clip-rule:evenodd;fill:#DED3B2;" points="8.95,-0.1 9.8,-33.75 0,-33.65 4.3,0 		"/>
	</g>
</symbol>
<symbol  id="FlashAICB_x2F_buildings_x2F__x3C_Path_x3E__x5F_12" viewBox="0 -32.65 11.8 32.65">
	<g id="Layer_1_14_">
		<polygon style="fill-rule:evenodd;clip-rule:evenodd;fill:#DED3B2;" points="11.8,-32.5 0.95,-32.65 0,0 6.25,0 		"/>
	</g>
</symbol>
<symbol  id="FlashAICB_x2F_buildings_x2F__x3C_Path_x3E__x5F_13" viewBox="0 -32.4 13.95 32.4">
	<g id="Layer_1_13_">
		<polygon style="fill-rule:evenodd;clip-rule:evenodd;fill:#DED3B2;" points="13.95,-32.25 2,-32.4 0,0 6.7,0 		"/>
	</g>
</symbol>
<symbol  id="FlashAICB_x2F_buildings_x2F__x3C_Path_x3E__x5F_14" viewBox="0 -34.15 7.65 34.15">
	<g id="Layer_1_12_">
		<path style="fill-rule:evenodd;clip-rule:evenodd;fill:#DED3B2;" d="M7.65-0.3l-0.3-33.85c-1.8,0.167-4.25,0.467-7.35,0.9L2.65,0
			L7.65-0.3z"/>
	</g>
</symbol>
<symbol  id="FlashAICB_x2F_buildings_x2F__x3C_Path_x3E__x5F_15" viewBox="0 -3.602 232 3.617">
	<g id="Layer_1_11_">
		<path style="fill-rule:evenodd;clip-rule:evenodd;fill:#DED3B2;" d="M0-2.85c15.033,0.567,30.917,1.1,47.65,1.6
			c33.533,1.033,54.667,1.433,63.4,1.2c13.934-0.333,54.25-1.5,120.95-3.5C217.7-3.717,140.367-3.483,0-2.85z"/>
	</g>
</symbol>
<symbol  id="FlashAICB_x2F_buildings_x2F__x3C_Path_x3E__x5F_16" viewBox="-0.022 -39.1 19.872 39.1">
	<g id="Layer_1_10_">
		<path style="fill-rule:evenodd;clip-rule:evenodd;fill:#DED3B2;" d="M5-5.45C2.667-9.917,2.083-14.333,3.25-18.7
			c1.167-4.333,4.283-8.033,9.35-11.1c2.5-1.5,4.9-2.583,7.2-3.25l-5.7-0.6l5.75-5.45c-2.3,0.667-4.8,1.917-7.5,3.75
			c-5.4,3.7-9.133,8.517-11.2,14.45c-2.066,5.9-1.4,11.15,2,15.75c1.7,2.3,3.6,4.017,5.7,5.15C7.45-1.367,6.167-3.183,5-5.45z"/>
	</g>
</symbol>
<symbol  id="FlashAICB_x2F_buildings_x2F__x3C_Path_x3E__x5F_17" viewBox="0 -19.528 34.15 19.528">
	<g id="Layer_1_9_">
		<path style="fill-rule:evenodd;clip-rule:evenodd;fill:#DED3B2;" d="M0,0c0.433-1.4,1.2-3,2.3-4.8c2.2-3.567,4.967-6.3,8.3-8.2
			c3.333-1.9,8.267-3.067,14.8-3.5c3.233-0.233,6.15-0.267,8.75-0.1c-3.267-1-6.833-1.783-10.7-2.35c-7.7-1.133-13-0.6-15.9,1.6
			c-2.867,2.233-4.983,5.8-6.35,10.7C0.5-4.217,0.1-2,0,0z"/>
	</g>
</symbol>
<symbol  id="FlashAICB_x2F_buildings_x2F__x3C_Path_x3E__x5F_18" viewBox="0 -22.25 205.9 22.245">
	<g id="Layer_1_8_">
		<path style="fill-rule:evenodd;clip-rule:evenodd;fill:#DED3B2;" d="M188.95-9.95C184.683-8.483,169-7.233,141.9-6.2
			c-26.2,1-44.1,1.184-53.7,0.55C80.767-6.15,63.833-6.267,37.4-6C24.2-5.833,11.733-5.633,0-5.4
			c39.967,2.367,69.183,4.05,87.65,5.05c12.667,0.7,32.317,0.333,58.95-1.1C171.5-2.783,186.033-4,190.2-5.1
			c2.966-0.8,6.483-3.9,10.55-9.3c2-2.7,3.717-5.317,5.15-7.85c-1.333,1.533-3.033,3.2-5.1,5
			C196.667-13.65,192.717-11.217,188.95-9.95z"/>
	</g>
</symbol>
<symbol  id="FlashAICB_x2F_buildings_x2F__x3C_Path_x3E__x5F_19" viewBox="-0.017 -28.926 125.566 28.926">
	<g id="Layer_1_7_">
		<path style="fill-rule:evenodd;clip-rule:evenodd;fill:#DED3B2;" d="M101.6-14c8.667-0.433,16.65-0.883,23.95-1.35
			c-12.2-0.6-24.667-1.217-37.4-1.85C62.683-18.5,48.633-19.283,46-19.55c-3.133-0.333-6.7-1.017-10.7-2.05
			c-3.9-1-7.683-2.2-11.35-3.6c-5.733-2.167-9.55-3.367-11.45-3.6c-4.333-0.567-7.683,0.783-10.05,4.05
			C0.217-21.65-0.5-16.6,0.3-9.6C0.7-6.1,1.333-2.9,2.2,0c0.167-7.133,1.816-12.567,4.95-16.3c2.967-3.567,6.667-4.95,11.1-4.15
			c2.867,0.5,9.633,1.9,20.3,4.2c10.7,2.067,19.517,3.183,26.45,3.35C72-12.733,84.2-13.1,101.6-14z"/>
	</g>
</symbol>
<symbol  id="FlashAICB_x2F_buildings_x2F__x3C_Path_x3E__x5F_2" viewBox="0 -33.05 10.75 33.05">
	<g id="Layer_1_24_">
		<polygon style="fill-rule:evenodd;clip-rule:evenodd;fill:#DED3B2;" points="7.7,0 10.75,-32.95 0,-33.05 1.9,0 		"/>
	</g>
</symbol>
<symbol  id="FlashAICB_x2F_buildings_x2F__x3C_Path_x3E__x5F_20" viewBox="-0.011 -53.59 386.661 53.59">
	<g id="Layer_1_6_">
		<path style="fill-rule:evenodd;clip-rule:evenodd;fill:#DED3B2;" d="M362.1-41.25c3.233-3.267,6.4-5.633,9.5-7.1
			c3.933-1.867,7.133-3.033,9.6-3.5c2.1-0.433,3.917-0.383,5.45,0.15c-0.733-0.633-1.717-1.117-2.95-1.45
			c-6.034-1.367-13.534,0.45-22.5,5.45c-7.1,3.934-12.383,7.95-15.85,12.05c-5.5,6.4-25.25,9.917-59.25,10.55
			c-10.133,0.2-23.483,0.15-40.05-0.15c-16.3-0.3-26.267-0.417-29.9-0.35c-10.233,0.233-39.383-1.017-87.45-3.75
			C81-32.017,55.517-33.3,52.25-33.2c-3.267,0.1-7.15-0.55-11.65-1.95c-1.567-0.5-5.5-1.95-11.8-4.35
			c-9.9-3.767-17.216-4.8-21.95-3.1c-5.467,1.934-7.667,8.85-6.6,20.75c0.6,6.2,1.9,13.483,3.9,21.85
			c1.233-3.467,2.8-6.933,4.7-10.4c3.833-7,7.45-10.6,10.85-10.8c2.566-0.133,7.85,0.417,15.85,1.65
			c8.833,1.4,15.983,2.15,21.45,2.25c4.8,0.066,27.083,0.633,66.85,1.7c41.533,1.133,68.017,1.817,79.45,2.05
			c18.767,0.4,43.483,0.2,74.15-0.6c33.733-0.867,53.617-2.067,59.65-3.6c4.533-1.167,10.167-5.867,16.9-14.1
			C357.7-36.383,360.4-39.517,362.1-41.25z"/>
	</g>
</symbol>
<symbol  id="FlashAICB_x2F_buildings_x2F__x3C_Path_x3E__x5F_21" viewBox="0 -35.8 307.402 35.8">
	<g id="Layer_1_5_">
		<path style="fill-rule:evenodd;clip-rule:evenodd;fill:#DED3B2;" d="M307.3-33.35L70.55-35.8l-46.3,0.1
			c-3.633,0.034-6.467,0.117-8.5,0.25l-2.4,0.15c-4.267,0.4-7.867,0.917-10.8,1.55c3.1,5.067,4.083,11.733,2.95,20
			C4.467-6.183,2.633-1.6,0,0c1.133-0.333,3.167-0.65,6.1-0.95c1.667-0.167,4.183-0.333,7.55-0.5c4.167-0.233,9.133-0.433,14.9-0.6
			L299.8-1.3c0.7,0,1.55,0.083,2.55,0.25c-4.8-7.867-5.167-15.65-1.1-23.35c1.1-2.067,2.633-4.267,4.6-6.6
			C307.15-32.567,307.633-33.35,307.3-33.35z"/>
	</g>
</symbol>
<symbol  id="FlashAICB_x2F_buildings_x2F__x3C_Path_x3E__x5F_22" viewBox="0 -38.131 314.3 38.131">
	<g id="Layer_1_4_">
		<path style="fill-rule:evenodd;clip-rule:evenodd;fill:#BDB59A;" d="M314.3-36.45c-2.333,0.467-25.533,0.483-69.6,0.05
			c-47.167-0.6-74.317-0.934-81.45-1c-47.267-0.434-75.483-0.667-84.65-0.7c-46.5-0.167-71.767,0.333-75.8,1.5
			c2.4,5.6,3.833,10.267,4.3,14C8.267-13.567,5.9-6.033,0,0l2.7-0.85c5.566-1.633,28.883-2.467,69.95-2.5
			c24.133,0,51.867,0.25,83.2,0.75c10.1,0.167,58.983,0.317,146.65,0.45c1.333,0,3.067,0.3,5.2,0.9
			c-5.867-7.667-6.583-15.533-2.15-23.6c1.267-2.3,3.117-4.833,5.55-7.6C313.2-34.783,314.267-36.117,314.3-36.45z"/>
	</g>
</symbol>
<symbol  id="FlashAICB_x2F_buildings_x2F__x3C_Path_x3E__x5F_23" viewBox="-0.032 -19.175 23.308 19.201">
	<g id="Layer_1_3_">
		<path style="fill-rule:evenodd;clip-rule:evenodd;fill:#DED3B2;" d="M9.55-0.6c3.167-0.833,6.05-2.217,8.65-4.15
			C21-6.85,22.65-9,23.15-11.2c0.533-2.566-0.617-4.816-3.45-6.75c-2.167-1.466-4.733-1.617-7.7-0.45
			c-2.6,1.033-5.067,2.833-7.4,5.4c-2.267,2.467-3.717,4.867-4.35,7.2C-0.417-3.267,0.1-1.567,1.8-0.7
			C3.667,0.233,6.25,0.267,9.55-0.6z"/>
	</g>
</symbol>
<symbol  id="FlashAICB_x2F_buildings_x2F__x3C_Path_x3E__x5F_24" viewBox="0 -32.4 16.802 32.4">
	<g id="Layer_1_2_">
		<path style="fill-rule:evenodd;clip-rule:evenodd;fill:#DED3B2;" d="M0,0c2.833-1.533,5.667-3.367,8.5-5.5
			c5.633-4.267,8.4-7.883,8.3-10.85C16.667-19.283,15.067-22.833,12-27c-1.533-2.1-3.067-3.9-4.6-5.4
			c0.7,6.1,0.883,10.816,0.55,14.15c-0.2,2.067-1.583,5.733-4.15,11C2.5-4.65,1.233-2.233,0,0z"/>
	</g>
</symbol>
<symbol  id="FlashAICB_x2F_buildings_x2F__x3C_Path_x3E__x5F_3" viewBox="0 -33.25 9.7 33.25">
	<g id="Layer_1_23_">
		<polygon style="fill-rule:evenodd;clip-rule:evenodd;fill:#DED3B2;" points="9.7,-33.15 0,-33.25 1.2,-0.05 5.85,0 		"/>
	</g>
</symbol>
<symbol  id="FlashAICB_x2F_buildings_x2F__x3C_Path_x3E__x5F_4" viewBox="0 -33.4 11.85 33.4">
	<g id="Layer_1_22_">
		<polygon style="fill-rule:evenodd;clip-rule:evenodd;fill:#DED3B2;" points="11.85,-33.25 0.7,-33.4 0,0 5.4,0 		"/>
	</g>
</symbol>
<symbol  id="FlashAICB_x2F_buildings_x2F__x3C_Path_x3E__x5F_5" viewBox="0 -33.5 14.6 33.5">
	<g id="Layer_1_21_">
		<polygon style="fill-rule:evenodd;clip-rule:evenodd;fill:#DED3B2;" points="6.15,0 14.6,-33.35 2.2,-33.5 0,-0.1 		"/>
	</g>
</symbol>
<symbol  id="FlashAICB_x2F_buildings_x2F__x3C_Path_x3E__x5F_6" viewBox="0 -33.4 13.15 33.4">
	<g id="Layer_1_20_">
		<polygon style="fill-rule:evenodd;clip-rule:evenodd;fill:#DED3B2;" points="9.7,0 13.15,-33.3 0,-33.4 3.4,-0.05 		"/>
	</g>
</symbol>
<symbol  id="FlashAICB_x2F_buildings_x2F__x3C_Path_x3E__x5F_7" viewBox="0 -33.3 9 33.3">
	<g id="Layer_1_19_">
		<polygon style="fill-rule:evenodd;clip-rule:evenodd;fill:#DED3B2;" points="6.7,0 9,-33.25 0,-33.3 1.6,-0.05 		"/>
	</g>
</symbol>
<symbol  id="FlashAICB_x2F_buildings_x2F__x3C_Path_x3E__x5F_8" viewBox="0 -33.3 11.2 33.3">
	<g id="Layer_1_18_">
		<polygon style="fill-rule:evenodd;clip-rule:evenodd;fill:#DED3B2;" points="11.2,-33.25 1.05,-33.3 0,-0.05 5.85,0 		"/>
	</g>
</symbol>
<symbol  id="FlashAICB_x2F_buildings_x2F__x3C_Path_x3E__x5F_9" viewBox="0 -33.35 8.45 33.35">
	<g id="Layer_1_17_">
		<polygon style="fill-rule:evenodd;clip-rule:evenodd;fill:#DED3B2;" points="7.75,0 8.45,-33.3 0,-33.35 3.4,0 		"/>
	</g>
</symbol>
<g>
	<path style="fill-rule:evenodd;clip-rule:evenodd;fill:#DED3B2;" d="M402.8,18.45c0.533,5.167-0.666,9.25-3.6,12.25
		c-3.834,2.833-6.584,5.167-8.25,7c-0.934,1.033-1.667,2.117-2.2,3.25c-0.967,2.066-1.434,4.533-1.4,7.4
		c0.067,3.466,1.534,11.583,4.4,24.35c1.967,11.767,1.2,19.1-2.3,22c-0.733,0.633-1.717,1.116-2.95,1.45
		c-6.033,1.366-13.533-0.45-22.5-5.45c-7.1-3.934-12.384-7.95-15.85-12.05c-5.5-6.4-25.25-9.917-59.25-10.551
		c-10.134-0.199-23.483-0.149-40.051,0.15c-16.3,0.3-26.267,0.417-29.899,0.35c-10.233-0.233-39.383,1.017-87.45,3.75
		C83.8,75.017,58.317,76.3,55.05,76.2c-3.267-0.101-7.15,0.55-11.65,1.95c-1.566,0.5-5.5,1.949-11.8,4.35
		c-9.9,3.767-17.217,4.8-21.95,3.1c-5.467-1.933-7.667-8.85-6.6-20.75c0.367-3.733,1.067-8.149,2.1-13.25
		c1.067-4.7,1.667-7.566,1.8-8.6c0.133-0.867-0.1-2.367-0.7-4.5c-0.2-0.733-0.667-2.217-1.4-4.45c-2.733-8.5-4.3-14.617-4.7-18.35
		C-0.583,8.567,1.217,3.867,5.55,1.6c2.767-1.434,7.667-0.967,14.7,1.4c4.033,1.367,10.483,3.667,19.35,6.9
		c5.566,1.633,28.883,2.467,69.95,2.5c24.133,0,51.867-0.25,83.2-0.75c10.1-0.167,58.983-0.316,146.65-0.45
		c2.8,0,8.183-1.717,16.149-5.15c8.367-3.6,14.101-5.55,17.2-5.85c6.3-0.667,12.283,0.25,17.95,2.75
		C398,6.15,402.033,11.317,402.8,18.45z"/>
	
		<use xlink:href="#FlashAICB_x2F_buildings_x2F__x3C_Path_x3E__x5F_24"  width="16.802" height="32.4" y="-32.4" transform="matrix(1 0 0 -1 17.3999 10.1001)" style="overflow:visible;opacity:0.5;enable-background:new    ;"/>
	
		<use xlink:href="#FlashAICB_x2F_buildings_x2F__x3C_Path_x3E__x5F_23"  width="23.308" height="19.201" x="-0.032" y="-19.175" transform="matrix(1 0 0 -1 373.0996 5.5)" style="overflow:visible;opacity:0.5;enable-background:new    ;"/>
	
		<use xlink:href="#FlashAICB_x2F_buildings_x2F__x3C_Path_x3E__x5F_22"  width="314.3" height="38.131" y="-38.131" transform="matrix(1 0 0 -1 36.8999 9.0498)" style="overflow:visible;enable-background:new    ;"/>
	
		<use xlink:href="#FlashAICB_x2F_buildings_x2F__x3C_Path_x3E__x5F_21"  width="307.402" height="35.8" y="-35.8" transform="matrix(1 0 0 -1 39.6001 9.8999)" style="overflow:visible;enable-background:new    ;"/>
	
		<use xlink:href="#FlashAICB_x2F_buildings_x2F__x3C_Path_x3E__x5F_20"  width="386.661" height="53.59" x="-0.011" y="-53.59" transform="matrix(1 0 0 -1 2.7998 43)" style="overflow:visible;enable-background:new    ;"/>
	
		<use xlink:href="#FlashAICB_x2F_buildings_x2F__x3C_Path_x3E__x5F_19"  width="125.566" height="28.926" x="-0.017" y="-28.926" transform="matrix(1 0 0 -1 5.3501 54.3496)" style="overflow:visible;enable-background:new    ;"/>
	
		<use xlink:href="#FlashAICB_x2F_buildings_x2F__x3C_Path_x3E__x5F_18"  width="205.9" height="22.245" y="-22.25" transform="matrix(1 0 0 -1 150.7002 59.5498)" style="overflow:visible;enable-background:new    ;"/>
	
		<use xlink:href="#FlashAICB_x2F_buildings_x2F__x3C_Path_x3E__x5F_17"  width="34.15" height="19.528" y="-19.528" transform="matrix(1 0 0 -1 13.1499 41)" style="overflow:visible;enable-background:new    ;"/>
	
		<use xlink:href="#FlashAICB_x2F_buildings_x2F__x3C_Path_x3E__x5F_16"  width="19.872" height="39.1" x="-0.022" y="-39.1" transform="matrix(1 0 0 -1 357.4502 41.25)" style="overflow:visible;enable-background:new    ;"/>
	
		<use xlink:href="#FlashAICB_x2F_buildings_x2F__x3C_Path_x3E__x5F_15"  width="232" height="3.617" y="-3.602" transform="matrix(1 0 0 -1 100.8999 51.2002)" style="overflow:visible;enable-background:new    ;"/>
	
		<use xlink:href="#FlashAICB_x2F_buildings_x2F__x3C_Path_x3E__x5F_14"  width="7.65" height="34.15" y="-34.15" transform="matrix(1 0 0 -1 45.6001 11.0498)" style="overflow:visible;opacity:0.5;enable-background:new    ;"/>
	
		<use xlink:href="#FlashAICB_x2F_buildings_x2F__x3C_Path_x3E__x5F_13"  width="13.95" height="32.4" y="-32.4" transform="matrix(1 0 0 -1 322.2002 11.2002)" style="overflow:visible;opacity:0.5;enable-background:new    ;"/>
	
		<use xlink:href="#FlashAICB_x2F_buildings_x2F__x3C_Path_x3E__x5F_12"  width="11.8" height="32.65" y="-32.65" transform="matrix(1 0 0 -1 299.4004 11.25)" style="overflow:visible;opacity:0.5;enable-background:new    ;"/>
	
		<use xlink:href="#FlashAICB_x2F_buildings_x2F__x3C_Path_x3E__x5F_11"  width="9.8" height="33.75" y="-33.75" transform="matrix(1 0 0 -1 63.8501 11.9502)" style="overflow:visible;opacity:0.5;enable-background:new    ;"/>
	
		<use xlink:href="#FlashAICB_x2F_buildings_x2F__x3C_Path_x3E__x5F_10"  width="10.1" height="33.5" y="-33.5" transform="matrix(1 0 0 -1 82.7002 12.25)" style="overflow:visible;opacity:0.5;enable-background:new    ;"/>
	
		<use xlink:href="#FlashAICB_x2F_buildings_x2F__x3C_Path_x3E__x5F_9"  width="8.45" height="33.35" y="-33.35" transform="matrix(1 0 0 -1 101.7002 12.3999)" style="overflow:visible;opacity:0.5;enable-background:new    ;"/>
	
		<use xlink:href="#FlashAICB_x2F_buildings_x2F__x3C_Path_x3E__x5F_8"  width="11.2" height="33.3" y="-33.3" transform="matrix(1 0 0 -1 121.75 12.3501)" style="overflow:visible;opacity:0.5;enable-background:new    ;"/>
	
		<use xlink:href="#FlashAICB_x2F_buildings_x2F__x3C_Path_x3E__x5F_7"  width="9" height="33.3" y="-33.3" transform="matrix(1 0 0 -1 143.6001 12.2002)" style="overflow:visible;opacity:0.5;enable-background:new    ;"/>
	
		<use xlink:href="#FlashAICB_x2F_buildings_x2F__x3C_Path_x3E__x5F_6"  width="13.15" height="33.4" y="-33.4" transform="matrix(1 0 0 -1 165.7002 11.9502)" style="overflow:visible;opacity:0.5;enable-background:new    ;"/>
	
		<use xlink:href="#FlashAICB_x2F_buildings_x2F__x3C_Path_x3E__x5F_5"  width="14.6" height="33.5" y="-33.5" transform="matrix(1 0 0 -1 188.5498 11.6499)" style="overflow:visible;opacity:0.5;enable-background:new    ;"/>
	
		<use xlink:href="#FlashAICB_x2F_buildings_x2F__x3C_Path_x3E__x5F_4"  width="11.85" height="33.4" y="-33.4" transform="matrix(1 0 0 -1 215.5996 11.5)" style="overflow:visible;opacity:0.5;enable-background:new    ;"/>
	
		<use xlink:href="#FlashAICB_x2F_buildings_x2F__x3C_Path_x3E__x5F_3"  width="9.7" height="33.25" y="-33.25" transform="matrix(1 0 0 -1 238.5 11.3999)" style="overflow:visible;opacity:0.5;enable-background:new    ;"/>
	
		<use xlink:href="#FlashAICB_x2F_buildings_x2F__x3C_Path_x3E__x5F_2"  width="10.75" height="33.05" y="-33.05" transform="matrix(1 0 0 -1 259.1504 11.3501)" style="overflow:visible;opacity:0.5;enable-background:new    ;"/>
	
		<use xlink:href="#FlashAICB_x2F_buildings_x2F__x3C_Path_x3E__x5F_1"  width="8.85" height="32.85" y="-32.85" transform="matrix(1 0 0 -1 281.9502 11.2998)" style="overflow:visible;opacity:0.5;enable-background:new    ;"/>
	
		<use xlink:href="#FlashAICB_x2F_buildings_x2F__x3C_Path_x3E_"  width="6.701" height="30.85" x="-0.001" y="-30.85" transform="matrix(1 0 0 -1 0.3999 2.25)" style="overflow:visible;enable-background:new    ;"/>
</g>
</svg>
