<?xml version="1.0" encoding="iso-8859-1"?>
<!-- Generator: Adobe Illustrator 15.1.0, SVG Export Plug-In . SVG Version: 6.00 Build 0)  -->
<!DOCTYPE svg PUBLIC "-//W3C//DTD SVG 1.1//EN" "http://www.w3.org/Graphics/SVG/1.1/DTD/svg11.dtd">
<svg version="1.1" id="buildings" xmlns="http://www.w3.org/2000/svg" xmlns:xlink="http://www.w3.org/1999/xlink" x="0px" y="0px"
	 width="115.7px" height="80.75px" viewBox="0 0 115.7 80.75" style="enable-background:new 0 0 115.7 80.75;" xml:space="preserve"
	>
<symbol  id="FlashAICB_x2F_buildings_x2F__x3C_Path_x3E_" viewBox="0 -32.85 50.8 32.886">
	<g id="Layer_1_6_">
		<path style="fill-rule:evenodd;clip-rule:evenodd;fill:#DED3B2;" d="M50.8-24.25c0-3.6-1.683-6.117-5.05-7.55
			c-1.033-0.434-2.183-0.733-3.45-0.9l-1.6-0.15c0.4,1.5,0.45,3.434,0.15,5.8c-0.633,4.767-2.75,9.35-6.35,13.75
			C30.9-8.9,24.067-5.45,14-2.95C8.967-1.683,4.3-0.867,0-0.5C2.833,0,6.283,0.15,10.35-0.05c8.167-0.4,15.367-2.367,21.6-5.9
			c6.267-3.533,11.283-7.633,15.05-12.3C48.9-20.617,50.167-22.617,50.8-24.25z"/>
	</g>
</symbol>
<symbol  id="FlashAICB_x2F_buildings_x2F__x3C_Path_x3E__x5F_1" viewBox="0 -47.9 75.038 47.906">
	<g id="Layer_1_5_">
		<path style="fill-rule:evenodd;clip-rule:evenodd;fill:#DED3B2;" d="M74.9-29.4c0.934-5.633-2.867-10.417-11.4-14.35
			c-2.667-1.2-5.65-2.25-8.95-3.15l-4.15-1c0.233,1.2,0.217,2.917-0.05,5.15c-0.467,4.533-1.883,9.467-4.25,14.8
			c-2.333,5.333-10.717,10.367-25.15,15.1C13.75-10.483,6.767-8.65,0-7.35c2.3,1.733,5.517,3.3,9.65,4.7
			c8.267,2.833,17.033,3.4,26.3,1.7c12.1-2.2,22.216-7.6,30.35-16.2C70.4-21.45,73.267-25.533,74.9-29.4z"/>
	</g>
</symbol>
<symbol  id="FlashAICB_x2F_buildings_x2F__x3C_Path_x3E__x5F_2" viewBox="-0.038 -40.75 36.688 40.75">
	<g id="Layer_1_4_">
		<path style="fill-rule:evenodd;clip-rule:evenodd;fill:#DED3B2;" d="M11.75,0C10.417-2.9,9.333-6.117,8.5-9.65
			c-1.633-7.067-1.133-12.167,1.5-15.3s7.867-6.716,15.7-10.75c3.933-2,7.583-3.683,10.95-5.05c-4.566,0.3-9.433,1.217-14.6,2.75
			c-10.367,3-17.1,7.483-20.2,13.45C-1.25-18.583-0.533-12.7,4-6.9C6.267-4,8.85-1.7,11.75,0z"/>
	</g>
</symbol>
<symbol  id="FlashAICB_x2F_buildings_x2F__x3C_Path_x3E__x5F_3" viewBox="-0.011 -56.284 94.211 56.284">
	<g id="Layer_1_3_">
		<path style="fill-rule:evenodd;clip-rule:evenodd;fill:#DED3B2;" d="M85.3-47c-8.367-6.567-18.55-9.65-30.55-9.25
			c-12.7,0.433-23.683,3.35-32.95,8.75c-6.167,3.6-11.65,8.417-16.45,14.45C1.617-28.35-0.167-23.333,0-18C0.2-11.8,3.033-5.8,8.5,0
			C6.867-4.067,6.3-8.717,6.8-13.95c0.967-10.466,6.784-18.6,17.45-24.4c9.233-5.033,18.133-7.933,26.7-8.7
			c5.6-0.5,12.5-0.017,20.7,1.45c5.267,0.934,10.6,2.633,16,5.1c2.7,1.233,4.883,2.383,6.55,3.45
			C92.433-40.417,89.467-43.733,85.3-47z"/>
	</g>
</symbol>
<symbol  id="FlashAICB_x2F_buildings_x2F__x3C_Path_x3E__x5F_4" viewBox="0.009 -67.325 115.091 67.325">
	<g id="Layer_1_2_">
		<path style="fill-rule:evenodd;clip-rule:evenodd;fill:#DED3B2;" d="M115.1-30.35c-2.167-9.333-7.35-17.333-15.55-24
			c-11.7-9.5-27.566-13.783-47.6-12.85c-14.4,0.667-27.184,6.833-38.35,18.5c-4.4,4.6-7.867,9.4-10.4,14.4
			c-2.367,4.733-3.417,8.583-3.15,11.55c0.233,2.8,1.9,6.233,5,10.3C8.483-7.917,12.883-3.767,18.25,0
			c-2.4-7.867-2.383-15.117,0.05-21.75c4.034-10.967,14.417-17.933,31.15-20.9C65.517-45.483,80.233-44.933,93.6-41
			C102.067-38.5,109.233-34.95,115.1-30.35z"/>
	</g>
</symbol>
<g>
	<path style="fill-rule:evenodd;clip-rule:evenodd;fill:#DED3B2;" d="M115.65,40.5c-0.034,0.9-0.217,1.983-0.551,3.25
		c-2.166,9.333-7.35,17.333-15.55,24c-11.7,9.5-27.566,13.783-47.6,12.85c-14.4-0.666-27.184-6.833-38.35-18.5
		C9.2,57.5,5.733,52.7,3.2,47.7c-2.367-4.733-3.417-8.583-3.15-11.55c0.233-2.8,1.9-6.233,5-10.3
		c3.434-4.533,7.833-8.684,13.2-12.45C24.183,9.233,30.7,6,37.8,3.7c8.267-2.667,16.934-3.9,26-3.7
		c14.233,0.3,26.983,5.85,38.25,16.65c4.367,4.233,7.834,8.667,10.4,13.3C114.85,34.317,115.917,37.833,115.65,40.5z"/>
	
		<use xlink:href="#FlashAICB_x2F_buildings_x2F__x3C_Path_x3E__x5F_4"  width="115.091" height="67.325" x="0.009" y="-67.325" transform="matrix(1 0 0 -1 0 13.3999)" style="overflow:visible;enable-background:new    ;"/>
	
		<use xlink:href="#FlashAICB_x2F_buildings_x2F__x3C_Path_x3E__x5F_3"  width="94.211" height="56.284" x="-0.011" y="-56.284" transform="matrix(1 0 0 -1 5.1499 22)" style="overflow:visible;enable-background:new    ;"/>
	
		<use xlink:href="#FlashAICB_x2F_buildings_x2F__x3C_Path_x3E__x5F_2"  width="36.688" height="40.75" x="-0.038" y="-40.75" transform="matrix(1 0 0 -1 25 12.1001)" style="overflow:visible;enable-background:new    ;"/>
	
		<use xlink:href="#FlashAICB_x2F_buildings_x2F__x3C_Path_x3E__x5F_1"  width="75.038" height="47.906" y="-47.9" transform="matrix(1 0 0 -1 35.3999 2.7998)" style="overflow:visible;opacity:0.5;enable-background:new    ;"/>
	
		<use xlink:href="#FlashAICB_x2F_buildings_x2F__x3C_Path_x3E_"  width="50.8" height="32.886" y="-32.85" transform="matrix(1 0 0 -1 52.7998 8.1001)" style="overflow:visible;opacity:0.5;enable-background:new    ;"/>
</g>
</svg>
