<?xml version="1.0" encoding="iso-8859-1"?>
<!-- Generator: Adobe Illustrator 15.1.0, SVG Export Plug-In . SVG Version: 6.00 Build 0)  -->
<!DOCTYPE svg PUBLIC "-//W3C//DTD SVG 1.1//EN" "http://www.w3.org/Graphics/SVG/1.1/DTD/svg11.dtd">
<svg version="1.1" id="buildings" xmlns="http://www.w3.org/2000/svg" xmlns:xlink="http://www.w3.org/1999/xlink" x="0px" y="0px"
	 width="362.6px" height="95.15px" viewBox="0 0 362.6 95.15" style="enable-background:new 0 0 362.6 95.15;" xml:space="preserve"
	>
<symbol  id="FlashAICB_x2F_buildings_x2F__x3C_Path_x3E_" viewBox="-0.003 -81.525 357.841 81.583">
	<g id="Layer_1_6_">
		<path style="fill-rule:evenodd;clip-rule:evenodd;fill:#DED3B2;" d="M351.5-51.05l1.55-2.05c1.2-1.767,2.184-3.617,2.95-5.55
			c2.5-6.167,2.45-12.017-0.15-17.55c-3.8-6.1-11.833-5.667-24.1,1.3c-0.3,0.167-5.033,3.117-14.2,8.85
			c-5.167,3.233-8.867,5.05-11.1,5.45c-19.534,3.5-64.367,3.817-134.5,0.95c-52.9-2.167-90.684-4.333-113.35-6.5
			c-2.267-0.2-5.567-1.583-9.9-4.15c-7.434-4.367-11.467-6.717-12.1-7.05c-10.934-5.566-20.333-5.566-28.2,0
			c-4.967,3.5-7.733,7.517-8.3,12.05c-0.434,3.566,0.5,7.767,2.8,12.6c3.067,5.5,5.283,9.534,6.65,12.1
			c2.4,4.467,3.5,7.95,3.3,10.45c-0.2,2.3-1.533,5.8-4,10.5C5.617-13.583,3.667-9.65,3-7.85c1.167,6.733,2.65,9.167,4.45,7.3
			c1.9-3.6,3.816-7.667,5.75-12.2c3.933-9.1,6.083-16.05,6.45-20.85c0.167-2.133-0.066-5.433-0.7-9.9
			c-0.733-5.167-1.117-8.6-1.15-10.3c-0.2-7.4,3.083-10.4,9.85-9c5.367,1.1,9.767,3.333,13.2,6.7c1.566,1.533,3,2.617,4.3,3.25
			c2.067,1.033,4.867,1.717,8.4,2.05c8.7,0.833,52.617,1.733,131.75,2.7c80.233,1.033,122.95,1.1,128.15,0.2
			c2.4-0.4,5.3-1.983,8.7-4.75c1.567-1.233,4.567-3.967,9-8.2c3.667-3.467,6.45-5.8,8.35-7c2.767-1.733,4.983-2.066,6.65-1
			c3.067,1.967,4.883,5.517,5.45,10.65L351.5-51.05z"/>
	</g>
</symbol>
<symbol  id="FlashAICB_x2F_buildings_x2F__x3C_Path_x3E__x5F_0" viewBox="0 -25.55 14.863 25.699">
	<g id="Layer_1_20_">
		<path style="fill-rule:evenodd;clip-rule:evenodd;fill:#DED3B2;" d="M1.8-3C1.233-1.833,0.633-1.067,0-0.7
			c1.533,1.367,4.167,1.083,7.9-0.85c3.967-2,6.25-4.617,6.85-7.85c0.533-2.9-0.817-6.867-4.05-11.9
			c-1.534-2.367-2.717-3.784-3.55-4.25c0.8,1.333,1.15,3.5,1.05,6.5l-0.45,4.1l-0.45-1.8c-0.433-1.367-0.9-2.5-1.4-3.4
			c-0.833-1.467-2.333-2.883-4.5-4.25c0.3,0.3,0.6,1.017,0.9,2.15c0.6,2.233,0.967,5.417,1.1,9.55S3-5.333,1.8-3z"/>
	</g>
</symbol>
<symbol  id="FlashAICB_x2F_buildings_x2F__x3C_Path_x3E__x5F_1" viewBox="0 -31.3 16.05 31.3">
	<g id="Layer_1_19_">
		<polygon style="fill-rule:evenodd;clip-rule:evenodd;fill:#DED3B2;" points="16.05,-31.05 4.3,-31.3 0,-0.7 6,0 		"/>
	</g>
</symbol>
<symbol  id="FlashAICB_x2F_buildings_x2F__x3C_Path_x3E__x5F_10" viewBox="0 -31.05 16.7 31.05">
	<g id="Layer_1_10_">
		<path style="fill-rule:evenodd;clip-rule:evenodd;fill:#DED3B2;" d="M5.45-30.85c0.633,5.3,0.7,10.35,0.2,15.15
			C5.217-11.533,3.333-6.3,0,0c2.1-0.4,5.033-0.917,8.8-1.55c2.3-6.934,3.833-12,4.6-15.2l3.3-14.3L5.45-30.85z"/>
	</g>
</symbol>
<symbol  id="FlashAICB_x2F_buildings_x2F__x3C_Path_x3E__x5F_11" viewBox="0 -28.362 297.42 28.397">
	<g id="Layer_1_9_">
		<path style="fill-rule:evenodd;clip-rule:evenodd;fill:#DED3B2;" d="M295.8-26.3c-2.4-2.733-6.983-2.75-13.75-0.05
			c-3.133,1.233-6.533,3.167-10.2,5.8c-5.1,3.566-8.283,5.733-9.55,6.5c-8.566,5-20.3,7.65-35.2,7.95
			c-18,0.333-45.583,0.117-82.75-0.65C107.817-7.517,83.667-8.333,71.9-9.2C56.567-10.333,32.6-11.6,0-13l1.7,6.55
			c18.933,0.934,39.517,1.9,61.75,2.9c44.433,2,74.833,3.133,91.2,3.4c20.533,0.3,41.934,0.233,64.2-0.2
			c23.267-0.433,36.267-1.1,39-2c1.633-0.5,6.283-4.1,13.95-10.8c7.467-6.533,12.55-10.083,15.25-10.65
			c3.1-0.667,5.75-0.467,7.95,0.6c1.1,0.567,1.9,1.184,2.4,1.85C297.533-23.283,297-24.933,295.8-26.3z"/>
	</g>
</symbol>
<symbol  id="FlashAICB_x2F_buildings_x2F__x3C_Path_x3E__x5F_12" viewBox="-0.045 -38.949 37.645 38.949">
	<g id="Layer_1_8_">
		<path style="fill-rule:evenodd;clip-rule:evenodd;fill:#DED3B2;" d="M8.6,0C6.033-5.867,5.3-12.1,6.4-18.7
			c1.233-7.2,4.4-11.033,9.5-11.5c4.533-0.433,9.5,0.133,14.9,1.7c2.733,0.8,5,1.633,6.8,2.5c-1.3-1.233-3.017-2.65-5.15-4.25
			c-4.3-3.2-8.55-5.683-12.75-7.45c-4.833-2.033-8.967-1.583-12.4,1.35c-3.167,2.7-5.466,7.25-6.9,13.65
			c-1.133,5.034-0.1,10.333,3.1,15.9C5.1-4.033,6.8-1.767,8.6,0z"/>
	</g>
</symbol>
<symbol  id="FlashAICB_x2F_buildings_x2F__x3C_Path_x3E__x5F_13" viewBox="0 -35.9 265.5 35.9">
	<g id="Layer_1_7_">
		<path style="fill-rule:evenodd;clip-rule:evenodd;fill:#DED3B2;" d="M261.15-0.4h0.05l4.3,0.4c-0.6-0.767-1.383-2.067-2.35-3.9
			c-1.933-3.833-3.233-8.367-3.9-13.6c-0.467-3.6-0.05-7.35,1.25-11.25c0.667-1.967,1.367-3.567,2.1-4.8l-141.4-2.3L95.7-35.9
			c-4.367,0-7.9,0.05-10.6,0.15L84-35.7c-3,0.133-7.583,0.267-13.75,0.4l-50.2,0.7C12.417-34.433,6.8-34.133,3.2-33.7
			c4.966,4.133,5.917,10.8,2.85,20C4.55-9.1,2.533-4.9,0-1.1l0.7,0.2l0.2-0.05c3.3-0.767,7.85-1.7,13.65-2.8h0.05
			c2.1-0.4,5.033-0.917,8.8-1.55c5.434-0.867,11.2-1.717,17.3-2.55l8.4-1.05c7.033-0.833,14.617-1.6,22.75-2.3l7.9-0.65
			c4.7-0.333,10.017-0.65,15.95-0.95l4.75-0.2c6.833-0.267,12.85-0.4,18.05-0.4l25.5,0.85l54.65,4.5c6.3,0.633,14.25,1.5,23.85,2.6
			l30.2,3.5C255.4-1.617,258.217-1.1,261.15-0.4z"/>
	</g>
</symbol>
<symbol  id="FlashAICB_x2F_buildings_x2F__x3C_Path_x3E__x5F_14" viewBox="0 -38.838 270.6 38.838">
	<g id="Layer_1_5_">
		<path style="fill-rule:evenodd;clip-rule:evenodd;fill:#BDB59A;" d="M270.6-36.35c-30.533-0.2-51.133-0.517-61.8-0.95
			c-9.9-0.4-29.283-0.8-58.15-1.2c-31.467-0.433-50.566-0.45-57.3-0.05c-9.9,0.566-41.017,1.267-93.35,2.1
			c0.9,0.267,1.9,0.733,3,1.4c2.167,1.3,3.767,2.867,4.8,4.7c1.1,2,1.5,4.367,1.2,7.1c-0.167,1.7-0.867,4.733-2.1,9.1
			c-1.133,4.1-3.117,8.267-5.95,12.5c0.466-0.2,1.2-0.434,2.2-0.7l0.2-0.05c18.133-4.1,39.8-7.333,65-9.7
			c24.167-2.267,44.816-3.133,61.95-2.6c19.534,0.633,42.4,2.284,68.6,4.95c4.133,0.433,22.883,2.55,56.25,6.35
			c2.7,0.333,5.517,0.85,8.45,1.55h0.05c1.867,0.434,4.1,1.05,6.7,1.85c-2.167-3.067-3.883-6.85-5.15-11.35
			c-1.067-3.8-1.65-7.283-1.75-10.45c-0.034-2.7,1.15-5.934,3.55-9.7C268.2-33.4,269.4-35.017,270.6-36.35z"/>
	</g>
</symbol>
<symbol  id="FlashAICB_x2F_buildings_x2F__x3C_Path_x3E__x5F_15" viewBox="0.008 -36.05 15.642 36.05">
	<g id="Layer_1_4_">
		<path style="fill-rule:evenodd;clip-rule:evenodd;fill:#DED3B2;" d="M15.65,0c-2.267-2.3-4.467-4.95-6.6-7.95
			c-4.3-6.033-6.183-10.867-5.65-14.5c0.567-3.633,2.5-7,5.8-10.1c1.667-1.534,3.267-2.7,4.8-3.5c-2.167,0.5-4.367,1.5-6.6,3
			c-4.5,3.066-6.95,7.183-7.35,12.35c-0.4,5.133,2.083,10.133,7.45,15C10.167-3.3,12.883-1.4,15.65,0z"/>
	</g>
</symbol>
<symbol  id="FlashAICB_x2F_buildings_x2F__x3C_Path_x3E__x5F_16" viewBox="0 -4.05 152.5 4.067">
	<g id="Layer_1_3_">
		<path style="fill-rule:evenodd;clip-rule:evenodd;fill:#DED3B2;" d="M152.5-0.95c-37.967-1.3-61-1.816-69.1-1.55
			C75.3-2.267,47.5-2.783,0-4.05L19.95-0.1c15.066-0.033,30.667-0.05,46.8-0.05c32.3,0,51.15,0.05,56.55,0.15
			c5.367,0.067,11.85-0.067,19.45-0.4C146.55-0.6,149.8-0.783,152.5-0.95z"/>
	</g>
</symbol>
<symbol  id="FlashAICB_x2F_buildings_x2F__x3C_Path_x3E__x5F_17" viewBox="0 -32.063 13.65 32.063">
	<g id="Layer_1_2_">
		<path style="fill-rule:evenodd;clip-rule:evenodd;fill:#DED3B2;" d="M3.85,0C3.583-1.667,3.433-3.683,3.4-6.05
			c-0.1-4.7,0.383-8.733,1.45-12.1c1.066-3.4,2.85-6.733,5.35-10c1.267-1.633,2.417-2.934,3.45-3.9c-0.367-0.067-1,0.117-1.9,0.55
			c-1.833,0.833-4.15,2.433-6.95,4.8C1.6-24,0-19.65,0-13.65C0-8.05,1.283-3.5,3.85,0z"/>
	</g>
</symbol>
<symbol  id="FlashAICB_x2F_buildings_x2F__x3C_Path_x3E__x5F_2" viewBox="0 -29.45 10.3 29.45">
	<g id="Layer_1_18_">
		<polygon style="fill-rule:evenodd;clip-rule:evenodd;fill:#DED3B2;" points="5.05,0 10.3,-29.25 0,-29.45 0.15,-0.55 		"/>
	</g>
</symbol>
<symbol  id="FlashAICB_x2F_buildings_x2F__x3C_Path_x3E__x5F_3" viewBox="0 -26.75 15.35 26.75">
	<g id="Layer_1_17_">
		<polygon style="fill-rule:evenodd;clip-rule:evenodd;fill:#DED3B2;" points="5.1,0 15.35,-26.55 5.05,-26.75 0,-0.55 		"/>
	</g>
</symbol>
<symbol  id="FlashAICB_x2F_buildings_x2F__x3C_Path_x3E__x5F_4" viewBox="0 -24.9 19.05 24.9">
	<g id="Layer_1_16_">
		<polygon style="fill-rule:evenodd;clip-rule:evenodd;fill:#DED3B2;" points="7,0 19.05,-24.65 3.7,-24.9 0,-0.6 		"/>
	</g>
</symbol>
<symbol  id="FlashAICB_x2F_buildings_x2F__x3C_Path_x3E__x5F_5" viewBox="0 -23.5 11.75 23.5">
	<g id="Layer_1_15_">
		<polygon style="fill-rule:evenodd;clip-rule:evenodd;fill:#DED3B2;" points="7.15,0 11.75,-23.35 0.65,-23.5 0,-0.45 		"/>
	</g>
</symbol>
<symbol  id="FlashAICB_x2F_buildings_x2F__x3C_Path_x3E__x5F_6" viewBox="0 -22.55 14.9 22.55">
	<g id="Layer_1_14_">
		<polygon style="fill-rule:evenodd;clip-rule:evenodd;fill:#DED3B2;" points="14.9,-22.45 2.7,-22.55 0,-0.1 6.35,0 		"/>
	</g>
</symbol>
<symbol  id="FlashAICB_x2F_buildings_x2F__x3C_Path_x3E__x5F_7" viewBox="0 -23.15 10 23.15">
	<g id="Layer_1_13_">
		<polygon style="fill-rule:evenodd;clip-rule:evenodd;fill:#DED3B2;" points="10,-23.15 0,-23.1 0,0 4.75,-0.2 		"/>
	</g>
</symbol>
<symbol  id="FlashAICB_x2F_buildings_x2F__x3C_Path_x3E__x5F_8" viewBox="0 -24.55 14.85 24.55">
	<g id="Layer_1_12_">
		<path style="fill-rule:evenodd;clip-rule:evenodd;fill:#DED3B2;" d="M14.85-24.55l-1.1,0.05c-3,0.133-7.583,0.267-13.75,0.4L1.6,0
			l7.9-0.65L14.85-24.55z"/>
	</g>
</symbol>
<symbol  id="FlashAICB_x2F_buildings_x2F__x3C_Path_x3E__x5F_9" viewBox="0 -27.2 13.1 27.2">
	<g id="Layer_1_11_">
		<polygon style="fill-rule:evenodd;clip-rule:evenodd;fill:#DED3B2;" points="8.4,-1.05 13.1,-27.2 2.55,-27.1 0,0 		"/>
	</g>
</symbol>
<g>
	<path style="fill-rule:evenodd;clip-rule:evenodd;fill:#DED3B2;" d="M334.55,8.9c5.334-2,9.617-3.183,12.851-3.55
		c4.3-0.5,8.116,0.117,11.449,1.85c4.634,2.4,5,8.816,1.101,19.25c-0.934,2.533-2.634,6.483-5.101,11.85
		c-2,4.367-3.133,7.2-3.399,8.5c-0.8,3.8,0.233,9.184,3.1,16.15c3.033,7.399,4.467,12.366,4.3,14.899
		c-0.533,8.767-2.966,14.017-7.3,15.75c-3.5,1.434-8.45,0.617-14.85-2.449c-3.066-1.467-8.684-4.817-16.851-10.051
		c-6.533-4.133-11-6.416-13.399-6.85c-19.533-3.5-64.367-3.816-134.5-0.95c-52.9,2.167-90.684,4.334-113.35,6.5
		c-2.267,0.2-5.567,1.584-9.9,4.15c-7.434,4.366-11.467,6.717-12.1,7.05c-10.934,5.566-20.333,5.566-28.2,0
		c-4.967-3.5-7.733-7.517-8.3-12.05c-0.434-3.566,0.5-7.767,2.8-12.601c3.067-5.5,5.283-9.533,6.65-12.1
		c2.4-4.467,3.5-7.95,3.3-10.45c-0.2-2.333-1.55-5.867-4.05-10.6c-3.233-6.067-5.2-10.034-5.9-11.9
		c-1.667-4.533-1.833-8.283-0.5-11.25C4.033,6.35,8.05,3.5,14.45,1.5c5.066-1.6,9.417-1.9,13.05-0.9
		c2.767,0.767,5.483,2.45,8.15,5.05c1.5,1.5,3.7,3.817,6.6,6.95c2.733,2.566,5.6,4.183,8.6,4.85c18.133,4.1,39.816,7.333,65.05,9.7
		c24.2,2.267,44.833,3.133,61.9,2.6c19.601-0.633,42.483-2.283,68.65-4.95c6.233-0.633,24.983-2.767,56.25-6.4
		c5.267-0.6,10.967-1.933,17.1-4C323.333,13.233,328.25,11.4,334.55,8.9z"/>
	<path style="fill-rule:evenodd;clip-rule:evenodd;fill:#DED3B2;" d="M351.45,46.8c-0.8,3.8,0.233,9.184,3.1,16.15
		c3.033,7.399,4.467,12.366,4.3,14.899c-0.533,8.767-2.966,14.017-7.3,15.75c-3.5,1.434-8.45,0.617-14.85-2.449
		c-3.066-1.467-8.684-4.817-16.851-10.051c-6.533-4.133-11-6.416-13.399-6.85c-19.533-3.5-64.367-3.816-134.5-0.95
		c-52.9,2.167-90.684,4.334-113.35,6.5c-2.267,0.2-5.567,1.584-9.9,4.15c-7.434,4.366-11.467,6.717-12.1,7.05
		c-10.934,5.566-20.333,5.566-28.2,0c-4.967-3.5-7.733-7.517-8.3-12.05c-0.434-3.566,0.5-7.767,2.8-12.601
		c3.067-5.5,5.283-9.533,6.65-12.1c2.4-4.467,3.5-7.95,3.3-10.45c-0.2-2.333-1.55-5.867-4.05-10.6c-3.233-6.067-5.2-10.034-5.9-11.9
		c-1.667-4.533-1.833-8.283-0.5-11.25c1.633-3.667,5.65-6.5,12.05-8.5c8.3-2.6,15.083-1.483,20.35,3.35
		c1.467,1.333,3.55,3.5,6.25,6.5c2.534,2.567,5.017,4.333,7.45,5.3c0.467,0.2,1.2,0.433,2.2,0.7l0.2,0.05
		c18.133,4.1,39.8,7.333,65,9.7c24.167,2.267,44.817,3.133,61.95,2.6c19.534-0.633,42.4-2.283,68.6-4.95
		c4.133-0.433,22.883-2.55,56.25-6.35c2.7-0.333,5.517-0.85,8.45-1.55h0.05c1.866-0.433,4.1-1.05,6.7-1.85
		c4.633-4.633,11.166-7.816,19.6-9.55c8.667-1.767,15.783-1.2,21.35,1.7c4.634,2.4,5,8.816,1.101,19.25
		c-0.934,2.533-2.634,6.483-5.101,11.85C352.85,42.667,351.717,45.5,351.45,46.8z"/>
	
		<use xlink:href="#FlashAICB_x2F_buildings_x2F__x3C_Path_x3E__x5F_17"  width="13.65" height="32.063" y="-32.063" transform="matrix(1 0 0 -1 21.2002 12.4502)" style="overflow:visible;opacity:0.5;enable-background:new    ;"/>
	
		<use xlink:href="#FlashAICB_x2F_buildings_x2F__x3C_Path_x3E__x5F_16"  width="152.5" height="4.067" y="-4.05" transform="matrix(1 0 0 -1 44.6001 57.2998)" style="overflow:visible;opacity:0.5;enable-background:new    ;"/>
	
		<use xlink:href="#FlashAICB_x2F_buildings_x2F__x3C_Path_x3E__x5F_15"  width="15.642" height="36.05" x="0.008" y="-36.05" transform="matrix(1 0 0 -1 319 15.7998)" style="overflow:visible;opacity:0.5;enable-background:new    ;"/>
	
		<use xlink:href="#FlashAICB_x2F_buildings_x2F__x3C_Path_x3E__x5F_14"  width="270.6" height="38.838" y="-38.838" transform="matrix(1 0 0 -1 47.5498 15.0498)" style="overflow:visible;enable-background:new    ;"/>
	<g>
		
			<use xlink:href="#FlashAICB_x2F_buildings_x2F__x3C_Path_x3E_"  width="357.841" height="81.583" x="-0.003" y="-81.525" transform="matrix(1 0 0 -1 0 13.6499)" style="overflow:visible;enable-background:new    ;"/>
	</g>
	
		<use xlink:href="#FlashAICB_x2F_buildings_x2F__x3C_Path_x3E__x5F_13"  width="265.5" height="35.9" y="-35.9" transform="matrix(1 0 0 -1 50 16.5)" style="overflow:visible;enable-background:new    ;"/>
	
		<use xlink:href="#FlashAICB_x2F_buildings_x2F__x3C_Path_x3E__x5F_12"  width="37.645" height="38.949" x="-0.045" y="-38.949" transform="matrix(1 0 0 -1 5.8501 54.2998)" style="overflow:visible;enable-background:new    ;"/>
	
		<use xlink:href="#FlashAICB_x2F_buildings_x2F__x3C_Path_x3E__x5F_11"  width="297.42" height="28.397" y="-28.362" transform="matrix(1 0 0 -1 55.3999 63.7002)" style="overflow:visible;enable-background:new    ;"/>
	
		<use xlink:href="#FlashAICB_x2F_buildings_x2F__x3C_Path_x3E__x5F_10"  width="16.7" height="31.05" y="-31.05" transform="matrix(1 0 0 -1 64.6001 20.25)" style="overflow:visible;opacity:0.5;enable-background:new    ;"/>
	
		<use xlink:href="#FlashAICB_x2F_buildings_x2F__x3C_Path_x3E__x5F_9"  width="13.1" height="27.2" y="-27.2" transform="matrix(1 0 0 -1 90.7002 24.3501)" style="overflow:visible;opacity:0.5;enable-background:new    ;"/>
	
		<use xlink:href="#FlashAICB_x2F_buildings_x2F__x3C_Path_x3E__x5F_8"  width="14.85" height="24.55" y="-24.55" transform="matrix(1 0 0 -1 120.25 27.7002)" style="overflow:visible;opacity:0.5;enable-background:new    ;"/>
	
		<use xlink:href="#FlashAICB_x2F_buildings_x2F__x3C_Path_x3E__x5F_7"  width="10" height="23.15" y="-23.15" transform="matrix(1 0 0 -1 145.7002 29.2998)" style="overflow:visible;opacity:0.5;enable-background:new    ;"/>
	
		<use xlink:href="#FlashAICB_x2F_buildings_x2F__x3C_Path_x3E__x5F_6"  width="14.9" height="22.55" y="-22.55" transform="matrix(1 0 0 -1 168.5 29.7998)" style="overflow:visible;opacity:0.5;enable-background:new    ;"/>
	
		<use xlink:href="#FlashAICB_x2F_buildings_x2F__x3C_Path_x3E__x5F_5"  width="11.75" height="23.5" y="-23.5" transform="matrix(1 0 0 -1 194 28.6001)" style="overflow:visible;opacity:0.5;enable-background:new    ;"/>
	
		<use xlink:href="#FlashAICB_x2F_buildings_x2F__x3C_Path_x3E__x5F_4"  width="19.05" height="24.9" y="-24.9" transform="matrix(1 0 0 -1 217.4502 26.8501)" style="overflow:visible;opacity:0.5;enable-background:new    ;"/>
	
		<use xlink:href="#FlashAICB_x2F_buildings_x2F__x3C_Path_x3E__x5F_3"  width="15.35" height="26.75" y="-26.75" transform="matrix(1 0 0 -1 243.5498 24.5498)" style="overflow:visible;opacity:0.5;enable-background:new    ;"/>
	
		<use xlink:href="#FlashAICB_x2F_buildings_x2F__x3C_Path_x3E__x5F_2"  width="10.3" height="29.45" y="-29.45" transform="matrix(1 0 0 -1 272.3496 21.3999)" style="overflow:visible;opacity:0.5;enable-background:new    ;"/>
	
		<use xlink:href="#FlashAICB_x2F_buildings_x2F__x3C_Path_x3E__x5F_1"  width="16.05" height="31.3" y="-31.3" transform="matrix(1 0 0 -1 290.9502 19.1001)" style="overflow:visible;opacity:0.5;enable-background:new    ;"/>
	
		<use xlink:href="#FlashAICB_x2F_buildings_x2F__x3C_Path_x3E__x5F_0"  width="14.863" height="25.699" y="-25.55" transform="matrix(1 0 0 -1 345.1504 7.7002)" style="overflow:visible;opacity:0.5;enable-background:new    ;"/>
</g>
</svg>
