<?xml version="1.0" encoding="iso-8859-1"?>
<!-- Generator: Adobe Illustrator 15.1.0, SVG Export Plug-In . SVG Version: 6.00 Build 0)  -->
<!DOCTYPE svg PUBLIC "-//W3C//DTD SVG 1.1//EN" "http://www.w3.org/Graphics/SVG/1.1/DTD/svg11.dtd">
<svg version="1.1" id="buildings" xmlns="http://www.w3.org/2000/svg" xmlns:xlink="http://www.w3.org/1999/xlink" x="0px" y="0px"
	 width="423.2px" height="107.4px" viewBox="0 0 423.2 107.4" style="enable-background:new 0 0 423.2 107.4;" xml:space="preserve"
	>
<symbol  id="FlashAICB_x2F_buildings_x2F__x3C_Path_x3E_" viewBox="0 -31.9 14.45 31.9">
	<g id="Layer_1_26_">
		<polygon style="fill-rule:evenodd;clip-rule:evenodd;fill:#DED3B2;" points="8.05,0 14.45,-31.55 3.1,-31.9 0,-0.3 		"/>
	</g>
</symbol>
<symbol  id="FlashAICB_x2F_buildings_x2F__x3C_Path_x3E__x5F_1" viewBox="0 -31.75 9.95 31.75">
	<g id="Layer_1_25_">
		<polygon style="fill-rule:evenodd;clip-rule:evenodd;fill:#DED3B2;" points="7.15,0 9.95,-31.5 1.4,-31.75 0,-0.25 		"/>
	</g>
</symbol>
<symbol  id="FlashAICB_x2F_buildings_x2F__x3C_Path_x3E__x5F_10" viewBox="0 -40.8 14.25 40.8">
	<g id="Layer_1_16_">
		<polygon style="fill-rule:evenodd;clip-rule:evenodd;fill:#DED3B2;" points="10,-40.8 0,-40.8 7.15,0 14.25,-0.5 		"/>
	</g>
</symbol>
<symbol  id="FlashAICB_x2F_buildings_x2F__x3C_Path_x3E__x5F_11" viewBox="0 -41 13.1 41">
	<g id="Layer_1_15_">
		<polygon style="fill-rule:evenodd;clip-rule:evenodd;fill:#DED3B2;" points="6.75,-41 0,-39.65 4.45,0 13.1,-0.6 		"/>
	</g>
</symbol>
<symbol  id="FlashAICB_x2F_buildings_x2F__x3C_Path_x3E__x5F_12" viewBox="0 -32.3 14.75 32.3">
	<g id="Layer_1_14_">
		<polygon style="fill-rule:evenodd;clip-rule:evenodd;fill:#DED3B2;" points="8.15,0 14.75,-31.8 0.45,-32.3 0,-0.35 		"/>
	</g>
</symbol>
<symbol  id="FlashAICB_x2F_buildings_x2F__x3C_Path_x3E__x5F_13" viewBox="0 -35.6 17.75 35.6">
	<g id="Layer_1_13_">
		<path style="fill-rule:evenodd;clip-rule:evenodd;fill:#DED3B2;" d="M14.5-13.6c-1.167-5.633-2.533-9.9-4.1-12.8
			C8-30.933,4.533-34,0-35.6c0.9,0.833,2.033,2.25,3.4,4.25c2.767,3.967,5.383,8.8,7.85,14.5c1.233,2.8,2.55,6.067,3.95,9.8L17.75,0
			L14.5-13.6z"/>
	</g>
</symbol>
<symbol  id="FlashAICB_x2F_buildings_x2F__x3C_Path_x3E__x5F_14" viewBox="0 -3.975 172.2 3.975">
	<g id="Layer_1_12_">
		<path style="fill-rule:evenodd;clip-rule:evenodd;fill:#DED3B2;" d="M0-2.4c73.467,0.767,113.867,1.15,121.2,1.15
			c7.333,0.033,24.333,0.45,51,1.25c-28.6-2.333-46.45-3.6-53.55-3.8C102.583-4.267,63.033-3.8,0-2.4z"/>
	</g>
</symbol>
<symbol  id="FlashAICB_x2F_buildings_x2F__x3C_Path_x3E__x5F_15" viewBox="-0.011 -30.1 16.111 30.1">
	<g id="Layer_1_11_">
		<path style="fill-rule:evenodd;clip-rule:evenodd;fill:#DED3B2;" d="M15.85,0C12.317-1.733,9.633-3.533,7.8-5.4
			c-3.2-3.233-4.45-6.9-3.75-11c0.667-3.934,2.883-7.4,6.65-10.4c1.867-1.5,3.667-2.6,5.4-3.3c-2.6,0.833-5.217,2.1-7.85,3.8
			C2.983-22.9,0.233-18.983,0-14.55C-0.2-10.15,2.383-6.4,7.75-3.3C10.417-1.767,13.117-0.667,15.85,0z"/>
	</g>
</symbol>
<symbol  id="FlashAICB_x2F_buildings_x2F__x3C_Path_x3E__x5F_16" viewBox="-0.023 -15.483 44.473 15.483">
	<g id="Layer_1_10_">
		<path style="fill-rule:evenodd;clip-rule:evenodd;fill:#DED3B2;" d="M0.6,0C0.567-0.9,0.867-2,1.5-3.3
			c1.233-2.534,3.533-4.733,6.9-6.6s10.383-2.633,21.05-2.3c5.333,0.167,10.333,0.517,15,1.05c-4.4-1.133-9.25-2.117-14.55-2.95
			c-10.566-1.7-18.033-1.833-22.4-0.4s-6.833,4.283-7.4,8.55C-0.167-3.817,0-1.833,0.6,0z"/>
	</g>
</symbol>
<symbol  id="FlashAICB_x2F_buildings_x2F__x3C_Path_x3E__x5F_17" viewBox="0 -15.988 249.05 15.924">
	<g id="Layer_1_9_">
		<path style="fill-rule:evenodd;clip-rule:evenodd;fill:#DED3B2;" d="M244.55-15.05c1.767,0.1,3.267,0.466,4.5,1.1
			c-2.433-2.767-8.017-2.716-16.75,0.15c-9.733,3.9-16.066,6.35-19,7.35c-4.1,1.367-17.367,2.333-39.8,2.9
			c-21.067,0.5-36.433,0.433-46.1-0.2C115.9-4.55,73.433-5.067,0-5.3c10.7,0.833,21.883,1.617,33.55,2.35
			c23.3,1.467,37.3,1.967,42,1.5c3.333-0.333,22.067-0.1,56.2,0.7c34.467,0.8,55.083,0.9,61.85,0.3c22.5-1.966,36.433-5.633,41.8-11
			C238-14.083,241.05-15.283,244.55-15.05z"/>
	</g>
</symbol>
<symbol  id="FlashAICB_x2F_buildings_x2F__x3C_Path_x3E__x5F_18" viewBox="-0.01 -28.926 79.51 28.926">
	<g id="Layer_1_8_">
		<path style="fill-rule:evenodd;clip-rule:evenodd;fill:#DED3B2;" d="M53.05-9.9c7.233,1.467,13.817,1.8,19.75,1
			c2.967-0.4,5.2-0.934,6.7-1.6c-3.9,0-9.667-0.65-17.3-1.95c-5.1-0.9-10.934-2.617-17.5-5.15c-4-1.533-9.967-4.1-17.9-7.7
			c-6.066-2.767-11.033-3.95-14.9-3.55c-4,0.4-7.35,2.533-10.05,6.4c-2.3,3.233-2.467,7.95-0.5,14.15C2.35-5.2,3.567-2.433,5,0
			C3.9-5.067,3.933-9.217,5.1-12.45c1.1-3.066,3.367-5.716,6.8-7.95c2.533-1.667,8.05-0.9,16.55,2.3
			C40.883-13.433,49.083-10.7,53.05-9.9z"/>
	</g>
</symbol>
<symbol  id="FlashAICB_x2F_buildings_x2F__x3C_Path_x3E__x5F_19" viewBox="-0.005 -45.732 410.955 45.732">
	<g id="Layer_1_7_">
		<path style="fill-rule:evenodd;clip-rule:evenodd;fill:#DED3B2;" d="M394.1-26.4c5.933-1.867,11.55-0.567,16.85,3.9
			c-2.167-3.333-4.65-5.9-7.45-7.7c-8.8-5.6-15.95-7.017-21.45-4.25c-1.5,0.733-3.517,2.217-6.05,4.45c-2.367,2.067-4.25,3.4-5.65,4
			c-9,3.8-52.983,4.683-131.95,2.65c-41.767-1.233-71.633-2.1-89.6-2.6c-30.966-0.867-51.3-1.15-61-0.85
			c-10.4,0.3-20.233-1.034-29.5-4c-4.767-1.5-11.617-4.467-20.55-8.9c-7.133-3.5-12.633-5.466-16.5-5.9
			c-5.7-0.633-11.5,1.017-17.4,4.95c-4.6,3.1-5.083,9.566-1.45,19.4C4.033-16.75,7.6-9.667,13.1,0c-0.033-4.5,0.566-8.4,1.8-11.7
			c1.934-5.2,5.233-8.033,9.9-8.5c5.233-0.5,11.383-0.367,18.45,0.4c17.633,2,28.633,3.183,33,3.55c12.833,1.1,53.5,1.9,122,2.4
			c75.4,0.567,115.433,0.934,120.1,1.1c14.333,0.533,28.283-0.033,41.85-1.7c12.533-1.533,20.133-3.333,22.8-5.4
			C387.567-23.35,391.267-25.533,394.1-26.4z"/>
	</g>
</symbol>
<symbol  id="FlashAICB_x2F_buildings_x2F__x3C_Path_x3E__x5F_2" viewBox="0 -31.6 13.8 31.6">
	<g id="Layer_1_24_">
		<polygon style="fill-rule:evenodd;clip-rule:evenodd;fill:#DED3B2;" points="6.65,0 13.8,-31.3 3.95,-31.6 0,-0.2 		"/>
	</g>
</symbol>
<symbol  id="FlashAICB_x2F_buildings_x2F__x3C_Path_x3E__x5F_20" viewBox="-0.002 -47.05 12.752 47.05">
	<g id="Layer_1_6_">
		<path style="fill-rule:evenodd;clip-rule:evenodd;fill:#DED3B2;" d="M6.75-6.2c-1.167-1.767-2.133-4.65-2.9-8.65
			c-0.867-4.467-0.95-8.2-0.25-11.2c1.033-4.3,3.283-10.717,6.75-19.25L9.4-47.05c-1.167,2.333-2.4,4.9-3.7,7.7
			c-2.534,5.567-4.034,9.483-4.5,11.75c-0.833,4.033-1.233,7.033-1.2,9c0,3.733,0.983,7.167,2.95,10.3C4.817-5.3,7-3.017,9.5-1.45
			C10.767-0.683,11.85-0.2,12.75,0C10.15-2.067,8.15-4.133,6.75-6.2z"/>
	</g>
</symbol>
<symbol  id="FlashAICB_x2F_buildings_x2F__x3C_Path_x3E__x5F_21" viewBox="0 -42.95 325.85 42.95">
	<g id="Layer_1_5_">
		<path style="fill-rule:evenodd;clip-rule:evenodd;fill:#DED3B2;" d="M316-23.4c2.3-4.867,5.583-8.783,9.85-11.75l-169.6-5.5
			l-78.75-1.8l-49.45-0.5c-2.466,0.067-4.15,0.133-5.05,0.2c-1.833,0.1-5.717,0.7-11.65,1.8C5.117-39.783,1.333-38.917,0-38.35
			C5.867-32.383,8.45-24.2,7.75-13.8C7.417-8.6,6.483-4,4.95,0l77.3-5.1c3.033-0.133,5.267-0.25,6.7-0.35
			c6.2-0.333,10.983-0.566,14.35-0.7c1.6-0.1,3.883-0.217,6.85-0.35l33.5-1.3l43.1-0.4l106.7,3.7c2.066,0.1,6.316,0.283,12.75,0.55
			l3.3,0.15c2.733,0.267,5.233,0.633,7.5,1.1C313.067-9.5,312.733-16.4,316-23.4z"/>
	</g>
</symbol>
<symbol  id="FlashAICB_x2F_buildings_x2F__x3C_Path_x3E__x5F_22" viewBox="0 -43.833 331.25 43.833">
	<g id="Layer_1_4_">
		<path style="fill-rule:evenodd;clip-rule:evenodd;fill:#BDB59A;" d="M318.6-20.85c2.467-6.467,6.683-11.35,12.65-14.65
			c-1.167-0.733-5.4-1.217-12.7-1.45c-11.066-0.4-17.1-0.633-18.1-0.7c-4-0.3-35.217-1.184-93.65-2.65
			c-65.233-1.6-98.3-2.417-99.2-2.45c-12.4-0.433-27.367-0.75-44.9-0.95c-21.833-0.267-35.267-0.133-40.3,0.4
			c-4.833,0.466-8.433,0.933-10.8,1.4C7.167-41.067,3.3-39.867,0-38.3c5.667,4.566,8.517,12.316,8.55,23.25
			C8.583-9.583,8.033-4.567,6.9,0c20.067-1.567,42.7-3.083,67.9-4.55c50.367-2.934,88.333-4.15,113.9-3.65
			c24.966,0.5,51.183,1.333,78.65,2.5c13.9,0.567,27.5,1.15,40.8,1.75c4.267,0.1,8.434,0.65,12.5,1.65
			C316.65-7.667,315.967-13.85,318.6-20.85z"/>
	</g>
</symbol>
<symbol  id="FlashAICB_x2F_buildings_x2F__x3C_Path_x3E__x5F_23" viewBox="-0.01 -16.876 13.942 16.853">
	<g id="Layer_1_3_">
		<path style="fill-rule:evenodd;clip-rule:evenodd;fill:#DED3B2;" d="M1.4-0.4c0.667,0.633,1.934,0.467,3.8-0.5
			C7-1.833,8.7-3.183,10.3-4.95c4.233-4.6,4.767-8.183,1.6-10.75c-1.633-1.333-3.383-1.533-5.25-0.6c-1.633,0.8-3.1,2.283-4.4,4.45
			c-1.233,2.1-1.967,4.233-2.2,6.4C-0.183-3.15,0.267-1.467,1.4-0.4z"/>
	</g>
</symbol>
<symbol  id="FlashAICB_x2F_buildings_x2F__x3C_Path_x3E__x5F_24" viewBox="0 -26 29.364 26.043">
	<g id="Layer_1_2_">
		<path style="fill-rule:evenodd;clip-rule:evenodd;fill:#DED3B2;" d="M25.7-6.55c2.767-3.4,3.966-7.667,3.6-12.8
			c-0.167-2.566-0.617-4.783-1.35-6.65c-1.167,2.5-3.434,5.817-6.8,9.95C19.05-13.483,14.9-12.467,8.7-13
			c-3.1-0.267-6-0.783-8.7-1.55c4.233,2.167,7.883,4.267,10.95,6.3c1.933,1.3,1,3.033-2.8,5.2c-1.9,1.1-4,2.066-6.3,2.9
			C4.717,0.15,7.867,0.1,11.3-0.3C18.133-1.067,22.933-3.15,25.7-6.55z"/>
	</g>
</symbol>
<symbol  id="FlashAICB_x2F_buildings_x2F__x3C_Path_x3E__x5F_3" viewBox="0 -31.7 17.25 31.7">
	<g id="Layer_1_23_">
		<polygon style="fill-rule:evenodd;clip-rule:evenodd;fill:#DED3B2;" points="11,0 17.25,-31.35 5.1,-31.7 0,-0.25 		"/>
	</g>
</symbol>
<symbol  id="FlashAICB_x2F_buildings_x2F__x3C_Path_x3E__x5F_4" viewBox="0 -31.95 14.3 31.95">
	<g id="Layer_1_22_">
		<polygon style="fill-rule:evenodd;clip-rule:evenodd;fill:#DED3B2;" points="6.25,-0.05 14.3,-31.7 5.2,-31.95 0,0 		"/>
	</g>
</symbol>
<symbol  id="FlashAICB_x2F_buildings_x2F__x3C_Path_x3E__x5F_5" viewBox="0 -33.15 13.2 33.15">
	<g id="Layer_1_21_">
		<polygon style="fill-rule:evenodd;clip-rule:evenodd;fill:#DED3B2;" points="9.7,-0.2 13.2,-32.85 0,-33.15 0.6,0 		"/>
	</g>
</symbol>
<symbol  id="FlashAICB_x2F_buildings_x2F__x3C_Path_x3E__x5F_6" viewBox="0 -34.45 11.2 34.45">
	<g id="Layer_1_20_">
		<polygon style="fill-rule:evenodd;clip-rule:evenodd;fill:#DED3B2;" points="7.05,-0.3 11.2,-34.2 0.5,-34.45 0,0 		"/>
	</g>
</symbol>
<symbol  id="FlashAICB_x2F_buildings_x2F__x3C_Path_x3E__x5F_7" viewBox="0 -35.8 9.05 35.8">
	<g id="Layer_1_19_">
		<path style="fill-rule:evenodd;clip-rule:evenodd;fill:#DED3B2;" d="M8.2-0.35L9.05-35.6L0-35.8L1.35,0
			C2.95-0.1,5.233-0.217,8.2-0.35z"/>
	</g>
</symbol>
<symbol  id="FlashAICB_x2F_buildings_x2F__x3C_Path_x3E__x5F_8" viewBox="0 -37.35 11.45 37.35">
	<g id="Layer_1_18_">
		<path style="fill-rule:evenodd;clip-rule:evenodd;fill:#DED3B2;" d="M11.45-0.35l-0.75-36.8L0-37.35L4.75,0
			C7.783-0.133,10.017-0.25,11.45-0.35z"/>
	</g>
</symbol>
<symbol  id="FlashAICB_x2F_buildings_x2F__x3C_Path_x3E__x5F_9" viewBox="0 -39.1 14.7 39.1">
	<g id="Layer_1_17_">
		<polygon style="fill-rule:evenodd;clip-rule:evenodd;fill:#DED3B2;" points="14.7,-0.5 13.85,-38.85 0,-39.1 6,0 		"/>
	</g>
</symbol>
<g>
	<path style="fill-rule:evenodd;clip-rule:evenodd;fill:#DED3B2;" d="M422.35,48.65c-0.133,0.8-0.333,1.6-0.6,2.4
		c-0.366,1.4-1.366,6-3,13.8c-2.033,8.101-4.634,14.534-7.8,19.301c-2.167,3.333-4.65,5.899-7.45,7.699
		c-8.8,5.601-15.95,7.017-21.45,4.25c-1.5-0.733-3.517-2.216-6.05-4.449c-2.366-2.067-4.25-3.4-5.65-4
		c-9-3.801-52.983-4.684-131.949-2.65c-41.767,1.233-71.634,2.1-89.601,2.6c-30.966,0.867-51.3,1.15-61,0.851
		c-10.4-0.3-20.233,1.033-29.5,4c-4.767,1.5-11.617,4.467-20.55,8.899c-7.133,3.5-12.633,5.467-16.5,5.9
		c-5.7,0.634-11.5-1.017-17.4-4.95c-4.6-3.1-5.083-9.566-1.45-19.399c1.633-4.5,5.2-11.584,10.7-21.25
		c1.066-1.9,1.683-3.067,1.85-3.5c0.333-0.867-0.284-2.934-1.85-6.2l-1.1-2.2c-4.533-9.133-7.383-15.933-8.55-20.4
		c-2.3-8.934-1.267-16.1,3.1-21.5C14.583-2.117,24-2.583,34.8,6.45C40.233,10.983,44.85,16.5,48.65,23
		c20.067,1.567,42.7,3.083,67.9,4.55c50.367,2.934,88.333,4.15,113.9,3.65c24.967-0.5,51.184-1.333,78.649-2.5
		c13.9-0.567,27.5-1.15,40.801-1.75c5.699-0.133,11.333-1.083,16.899-2.85c4.467-1.434,9.134-3.483,14-6.15
		c5.101-2.833,10.184-4.083,15.25-3.75c6.533,0.367,12.884,3.35,19.05,8.95c3.434,3.133,5.784,6.8,7.051,11
		C423.45,38.55,423.517,43.383,422.35,48.65z"/>
	
		<use xlink:href="#FlashAICB_x2F_buildings_x2F__x3C_Path_x3E__x5F_24"  width="29.364" height="26.043" y="-26" transform="matrix(1 0 0 -1 385.7998 20.0498)" style="overflow:visible;opacity:0.5;enable-background:new    ;"/>
	
		<use xlink:href="#FlashAICB_x2F_buildings_x2F__x3C_Path_x3E__x5F_23"  width="13.942" height="16.853" x="-0.01" y="-16.876" transform="matrix(1 0 0 -1 24.2998 10.2002)" style="overflow:visible;opacity:0.5;enable-background:new    ;"/>
	
		<use xlink:href="#FlashAICB_x2F_buildings_x2F__x3C_Path_x3E__x5F_22"  width="331.25" height="43.833" y="-43.833" transform="matrix(1 0 0 -1 41.75 23)" style="overflow:visible;enable-background:new    ;"/>
	
		<use xlink:href="#FlashAICB_x2F_buildings_x2F__x3C_Path_x3E__x5F_21"  width="325.85" height="42.95" y="-42.95" transform="matrix(1 0 0 -1 43.7002 23)" style="overflow:visible;enable-background:new    ;"/>
	
		<use xlink:href="#FlashAICB_x2F_buildings_x2F__x3C_Path_x3E__x5F_20"  width="12.752" height="47.05" x="-0.002" y="-47.05" transform="matrix(1 0 0 -1 2.75 1.8501)" style="overflow:visible;enable-background:new    ;"/>
	
		<use xlink:href="#FlashAICB_x2F_buildings_x2F__x3C_Path_x3E__x5F_19"  width="410.955" height="45.732" x="-0.005" y="-45.732" transform="matrix(1 0 0 -1 0 61.6504)" style="overflow:visible;enable-background:new    ;"/>
	
		<use xlink:href="#FlashAICB_x2F_buildings_x2F__x3C_Path_x3E__x5F_18"  width="79.51" height="28.926" x="-0.01" y="-28.926" transform="matrix(1 0 0 -1 5.3501 75)" style="overflow:visible;enable-background:new    ;"/>
	
		<use xlink:href="#FlashAICB_x2F_buildings_x2F__x3C_Path_x3E__x5F_17"  width="249.05" height="15.924" y="-15.988" transform="matrix(1 0 0 -1 149.7002 76.7998)" style="overflow:visible;enable-background:new    ;"/>
	
		<use xlink:href="#FlashAICB_x2F_buildings_x2F__x3C_Path_x3E__x5F_16"  width="44.473" height="15.483" x="-0.023" y="-15.483" transform="matrix(1 0 0 -1 17.7998 64.6504)" style="overflow:visible;enable-background:new    ;"/>
	
		<use xlink:href="#FlashAICB_x2F_buildings_x2F__x3C_Path_x3E__x5F_15"  width="16.111" height="30.1" x="-0.011" y="-30.1" transform="matrix(1 0 0 -1 385.5 51.1001)" style="overflow:visible;enable-background:new    ;"/>
	
		<use xlink:href="#FlashAICB_x2F_buildings_x2F__x3C_Path_x3E__x5F_14"  width="172.2" height="3.975" y="-3.975" transform="matrix(1 0 0 -1 164.0498 67.4004)" style="overflow:visible;enable-background:new    ;"/>
	
		<use xlink:href="#FlashAICB_x2F_buildings_x2F__x3C_Path_x3E__x5F_13"  width="17.75" height="35.6" y="-35.6" transform="matrix(1 0 0 -1 402.8496 51.7002)" style="overflow:visible;opacity:0.5;enable-background:new    ;"/>
	
		<use xlink:href="#FlashAICB_x2F_buildings_x2F__x3C_Path_x3E__x5F_12"  width="14.75" height="32.3" y="-32.3" transform="matrix(1 0 0 -1 329 27.5)" style="overflow:visible;opacity:0.5;enable-background:new    ;"/>
	
		<use xlink:href="#FlashAICB_x2F_buildings_x2F__x3C_Path_x3E__x5F_11"  width="13.1" height="41" y="-41" transform="matrix(1 0 0 -1 50.9502 23.5)" style="overflow:visible;opacity:0.5;enable-background:new    ;"/>
	
		<use xlink:href="#FlashAICB_x2F_buildings_x2F__x3C_Path_x3E__x5F_10"  width="14.25" height="40.8" y="-40.8" transform="matrix(1 0 0 -1 71.75 25.1499)" style="overflow:visible;opacity:0.5;enable-background:new    ;"/>
	
		<use xlink:href="#FlashAICB_x2F_buildings_x2F__x3C_Path_x3E__x5F_9"  width="14.7" height="39.1" y="-39.1" transform="matrix(1 0 0 -1 96.8999 26.75)" style="overflow:visible;opacity:0.5;enable-background:new    ;"/>
	
		<use xlink:href="#FlashAICB_x2F_buildings_x2F__x3C_Path_x3E__x5F_8"  width="11.45" height="37.35" y="-37.35" transform="matrix(1 0 0 -1 121.2002 28.1001)" style="overflow:visible;opacity:0.5;enable-background:new    ;"/>
	
		<use xlink:href="#FlashAICB_x2F_buildings_x2F__x3C_Path_x3E__x5F_7"  width="9.05" height="35.8" y="-35.8" transform="matrix(1 0 0 -1 145.6499 29.1499)" style="overflow:visible;opacity:0.5;enable-background:new    ;"/>
	
		<use xlink:href="#FlashAICB_x2F_buildings_x2F__x3C_Path_x3E__x5F_6"  width="11.2" height="34.45" y="-34.45" transform="matrix(1 0 0 -1 165.75 30)" style="overflow:visible;opacity:0.5;enable-background:new    ;"/>
	
		<use xlink:href="#FlashAICB_x2F_buildings_x2F__x3C_Path_x3E__x5F_5"  width="13.2" height="33.15" y="-33.15" transform="matrix(1 0 0 -1 186.75 30.7998)" style="overflow:visible;opacity:0.5;enable-background:new    ;"/>
	
		<use xlink:href="#FlashAICB_x2F_buildings_x2F__x3C_Path_x3E__x5F_4"  width="14.3" height="31.95" y="-31.95" transform="matrix(1 0 0 -1 210.4502 31.25)" style="overflow:visible;opacity:0.5;enable-background:new    ;"/>
	
		<use xlink:href="#FlashAICB_x2F_buildings_x2F__x3C_Path_x3E__x5F_3"  width="17.25" height="31.7" y="-31.7" transform="matrix(1 0 0 -1 232.7002 30.8999)" style="overflow:visible;opacity:0.5;enable-background:new    ;"/>
	
		<use xlink:href="#FlashAICB_x2F_buildings_x2F__x3C_Path_x3E__x5F_2"  width="13.8" height="31.6" y="-31.6" transform="matrix(1 0 0 -1 258.9502 30.2998)" style="overflow:visible;opacity:0.5;enable-background:new    ;"/>
	
		<use xlink:href="#FlashAICB_x2F_buildings_x2F__x3C_Path_x3E__x5F_1"  width="9.95" height="31.75" y="-31.75" transform="matrix(1 0 0 -1 279.1504 29.6001)" style="overflow:visible;opacity:0.5;enable-background:new    ;"/>
	
		<use xlink:href="#FlashAICB_x2F_buildings_x2F__x3C_Path_x3E_"  width="14.45" height="31.9" y="-31.9" transform="matrix(1 0 0 -1 301.7002 28.7002)" style="overflow:visible;opacity:0.5;enable-background:new    ;"/>
</g>
</svg>
