<?xml version="1.0" encoding="iso-8859-1"?>
<!-- Generator: Adobe Illustrator 15.1.0, SVG Export Plug-In . SVG Version: 6.00 Build 0)  -->
<!DOCTYPE svg PUBLIC "-//W3C//DTD SVG 1.1//EN" "http://www.w3.org/Graphics/SVG/1.1/DTD/svg11.dtd">
<svg version="1.1" id="buildings" xmlns="http://www.w3.org/2000/svg" xmlns:xlink="http://www.w3.org/1999/xlink" x="0px" y="0px"
	 width="51.5px" height="50px" viewBox="0 0 51.5 50" style="enable-background:new 0 0 51.5 50;" xml:space="preserve">
<g>
	<g>
		<linearGradient id="SVGID_1_" gradientUnits="userSpaceOnUse" x1="9.7998" y1="17.5283" x2="41.7002" y2="17.5283">
			<stop  offset="0" style="stop-color:#DE946F"/>
			<stop  offset="1" style="stop-color:#EBC4A9"/>
		</linearGradient>
		<path style="fill-rule:evenodd;clip-rule:evenodd;fill:url(#SVGID_1_);" d="M25,12.25c4.033,0,7.733-0.267,11.1-0.8
			c1.7-0.3,2.983-0.583,3.851-0.85l1.75,11.9c-5.467,1.167-10.783,1.817-15.95,1.95c-3.233,0.066-6.867-0.4-10.9-1.4l-5.05-1.5
			l1.1-10.5C13.833,11.85,18.533,12.25,25,12.25z"/>
		<g>
			<path style="fill-rule:evenodd;clip-rule:evenodd;fill:#CE8E66;" d="M20.05,12.15c0,4.1,0.083,6.733,0.25,7.9l0.6,4.1
				c-4-0.467-7.7-1.333-11.1-2.6L11.1,9.3l2.15,1.3C15.183,11.5,17.45,12.017,20.05,12.15z"/>
		</g>
		<polygon style="fill-rule:evenodd;clip-rule:evenodd;fill:#EFD1BC;" points="37.1,13.45 38.25,16.05 39.1,11.8 39.4,19.55 
			37.4,20.05 		"/>
		<path style="fill-rule:evenodd;clip-rule:evenodd;fill:#E9BC9E;" d="M28,14.15c0.767,0.167,2.767-0.066,6-0.7l1.1,7.3
			c-1.5,0.6-2.916,1.067-4.25,1.4c-0.833,0.2-1.649,0.283-2.449,0.25l-0.95-0.05L28,14.15z"/>
	</g>
	<g>
		<linearGradient id="SVGID_2_" gradientUnits="userSpaceOnUse" x1="11.2998" y1="33.6504" x2="40.2002" y2="33.6504">
			<stop  offset="0" style="stop-color:#DE946F"/>
			<stop  offset="1" style="stop-color:#EBC4A9"/>
		</linearGradient>
		<path style="fill-rule:evenodd;clip-rule:evenodd;fill:url(#SVGID_2_);" d="M25.55,27.85c4.566-0.133,9.267-0.75,14.101-1.85
			l0.55,13.3c-6.167,1.334-11.15,2-14.95,2c-2.367,0-5.4-0.467-9.1-1.399l-4.85-1.4l0.15-12.2c0.367,0.334,1.933,0.684,4.7,1.05
			C19.317,27.75,22.45,27.917,25.55,27.85z"/>
		<g>
			<path style="fill-rule:evenodd;clip-rule:evenodd;fill:#CE8E66;" d="M20.2,27.7c-0.367,0.8-0.717,1.75-1.05,2.85
				c-0.5,1.566-0.7,2.75-0.6,3.55c0.267,1.867,0.717,4.067,1.35,6.601c-2.967-0.533-5.833-1.267-8.6-2.2l0.15-13.45
				c0.433,0.367,1.367,0.816,2.8,1.351C16.217,27.134,18.2,27.566,20.2,27.7z"/>
		</g>
		<polygon style="fill-rule:evenodd;clip-rule:evenodd;fill:#EFD1BC;" points="35.65,28.95 37.95,28.25 37.1,37.15 		"/>
		<path style="fill-rule:evenodd;clip-rule:evenodd;fill:#E9BC9E;" d="M27.65,29.65c1.533,0.133,3.149,0.133,4.85,0l2,7.699
			c-0.934,0-1.967,0.167-3.1,0.5c-0.733,0.2-1.617,0.167-2.65-0.1l-1.35-0.4L27.65,29.65z"/>
	</g>
	<g>
		<linearGradient id="SVGID_3_" gradientUnits="userSpaceOnUse" x1="10.6001" y1="4.7002" x2="40.9001" y2="4.7002">
			<stop  offset="0" style="stop-color:#DE946F"/>
			<stop  offset="1" style="stop-color:#EBC4A9"/>
		</linearGradient>
		<path style="fill-rule:evenodd;clip-rule:evenodd;fill:url(#SVGID_3_);" d="M40.9,0v7.15C35.2,8.65,29.767,9.4,24.6,9.4
			c-1.815,0-3.648-0.117-5.5-0.35c0.491,0.051,0.991,0.101,1.5,0.15c1.167-0.333,1.833-0.784,2-1.35
			c-1.333-2.5-2.184-4.15-2.55-4.95c-0.167-0.367-0.167-1.333,0-2.9h7.8L27.45,5.25h6L33.25,0H37l0.7,4.55L38.4,0H40.9z"/>
		<path style="fill-rule:evenodd;clip-rule:evenodd;fill:#CE8E66;" d="M20.6,9.2c-3.8-0.367-7.133-1.05-10-2.05V0h9.45
			c-0.167,1.567-0.167,2.533,0,2.9c0.367,0.8,1.217,2.45,2.55,4.95C22.433,8.417,21.767,8.867,20.6,9.2z"/>
		<polygon style="fill-rule:evenodd;clip-rule:evenodd;fill:#EFD1BC;" points="38.4,0 37.7,4.55 37,0 		"/>
		<polygon style="fill-rule:evenodd;clip-rule:evenodd;fill:#E9BC9E;" points="33.45,5.25 27.45,5.25 27.85,0 33.25,0 		"/>
	</g>
	<g>
		<linearGradient id="SVGID_4_" gradientUnits="userSpaceOnUse" x1="10.6001" y1="46.0254" x2="40.9001" y2="46.0254">
			<stop  offset="0" style="stop-color:#DE946F"/>
			<stop  offset="1" style="stop-color:#EBC4A9"/>
		</linearGradient>
		<path style="fill-rule:evenodd;clip-rule:evenodd;fill:url(#SVGID_4_);" d="M38.85,47.05L36.6,47.3L37,50h-3.75l-0.1-2.7
			l-5.101,0.45L27.85,50h-7.8c0.233-3.533,0.417-5.684,0.55-6.45l20.3-1.5V50h-2.5L38.85,47.05z"/>
		<path style="fill-rule:evenodd;clip-rule:evenodd;fill:#CE8E66;" d="M10.6,40.7l10.45,2.75c-0.533,3.166-0.867,5.35-1,6.55H10.6
			V40.7z"/>
		<polygon style="fill-rule:evenodd;clip-rule:evenodd;fill:#EFD1BC;" points="36.6,47.3 38.85,47.05 38.4,50 37,50 		"/>
		<polygon style="fill-rule:evenodd;clip-rule:evenodd;fill:#E9BC9E;" points="28.05,47.75 33.15,47.3 33.25,50 27.85,50 		"/>
	</g>
	<g>
		<linearGradient id="SVGID_5_" gradientUnits="userSpaceOnUse" x1="0" y1="9.2295" x2="51.5" y2="9.2295">
			<stop  offset="0" style="stop-color:#DFBD7B"/>
			<stop  offset="1" style="stop-color:#F6ECCE"/>
		</linearGradient>
		<path style="fill-rule:evenodd;clip-rule:evenodd;fill:url(#SVGID_5_);" d="M44.55,9.35c-5.833,3.033-11.75,4.483-17.75,4.35
			C20.833,13.567,14.567,12.033,8,9.1C4.733,7.633,2.067,6.183,0,4.75C2.867,5.217,6.1,5.667,9.7,6.1
			c7.267,0.833,12.85,1.183,16.75,1.05c6.2-0.2,14.55-1,25.05-2.4C49.8,6.317,47.483,7.85,44.55,9.35z"/>
		<path style="fill-rule:evenodd;clip-rule:evenodd;fill:#D2B375;" d="M18.75,10.2c3.167,0.466,6.866,0.716,11.1,0.75
			c4.034,0.033,7.217-0.133,9.551-0.5L44.1,9.6c-5.733,2.9-11.5,4.267-17.3,4.1C20.833,13.567,14.567,12.033,8,9.1
			C4.733,7.633,2.067,6.183,0,4.75C3.233,5.283,6.85,5.767,10.85,6.2c0.433,0.7,1.1,1.35,2,1.95C14.383,9.15,16.35,9.833,18.75,10.2
			z"/>
	</g>
	<g>
		<linearGradient id="SVGID_6_" gradientUnits="userSpaceOnUse" x1="2.5" y1="23.8618" x2="48.9502" y2="23.8618">
			<stop  offset="0" style="stop-color:#DFBD7B"/>
			<stop  offset="1" style="stop-color:#F6ECCE"/>
		</linearGradient>
		<path style="fill-rule:evenodd;clip-rule:evenodd;fill:url(#SVGID_6_);" d="M43,24.75c-5.267,3.233-11.2,4.733-17.8,4.5
			c-6.6-0.233-12.367-2.1-17.3-5.6c-2.467-1.767-4.267-3.5-5.4-5.2c2.133,0.966,4.733,1.9,7.8,2.8c6.133,1.867,11.517,2.7,16.15,2.5
			c4.633-0.2,9.783-0.917,15.45-2.15c2.8-0.6,5.149-1.184,7.05-1.75C47.616,21.517,45.634,23.15,43,24.75z"/>
		<path style="fill-rule:evenodd;clip-rule:evenodd;fill:#D2B375;" d="M17.4,25.75c1.767,0.4,4.717,0.684,8.85,0.85
			c4.134,0.167,7.316,0.117,9.55-0.149c2.267-0.267,4.417-0.684,6.45-1.25c-5.1,2.899-10.783,4.25-17.05,4.05
			c-6.6-0.233-12.367-2.1-17.3-5.6c-2.467-1.767-4.267-3.5-5.4-5.2c2.7,1.2,5.883,2.3,9.55,3.3
			C13.45,23.917,15.233,25.25,17.4,25.75z"/>
	</g>
	<g>
		<linearGradient id="SVGID_7_" gradientUnits="userSpaceOnUse" x1="2.75" y1="40.5371" x2="48.75" y2="40.5371">
			<stop  offset="0" style="stop-color:#DFBD7B"/>
			<stop  offset="1" style="stop-color:#F6ECCE"/>
		</linearGradient>
		<path style="fill-rule:evenodd;clip-rule:evenodd;fill:url(#SVGID_7_);" d="M44.55,41.15c-4.566,2.399-11.184,3.5-19.85,3.3
			c-7.633-0.167-13.583-1.517-17.85-4.05C5.517,39.6,4.433,38.717,3.6,37.75L2.75,36.6c2.3,0.534,4.95,1.051,7.95,1.551
			c6,1.033,10.75,1.5,14.25,1.399c5.6-0.166,13.533-0.866,23.8-2.1C48.217,38.717,46.816,39.95,44.55,41.15z"/>
		<g>
			<path style="fill-rule:evenodd;clip-rule:evenodd;fill:#D2B375;" d="M43.55,41.55l0.05,0.05C39.066,43.7,32.767,44.65,24.7,44.45
				c-7.633-0.167-13.583-1.517-17.85-4.05C5.517,39.6,4.433,38.717,3.6,37.75L2.75,36.6c3.033,0.7,6.383,1.334,10.05,1.9
				c1.067,1.066,2.667,1.85,4.8,2.35c2.3,0.534,5.417,0.967,9.35,1.301c3.566,0.3,6.616,0.416,9.149,0.35
				C39.134,42.467,41.616,42.15,43.55,41.55z"/>
		</g>
	</g>
</g>
</svg>
