<?xml version="1.0" encoding="iso-8859-1"?>
<!-- Generator: Adobe Illustrator 15.1.0, SVG Export Plug-In . SVG Version: 6.00 Build 0)  -->
<!DOCTYPE svg PUBLIC "-//W3C//DTD SVG 1.1//EN" "http://www.w3.org/Graphics/SVG/1.1/DTD/svg11.dtd">
<svg version="1.1" id="buildings" xmlns="http://www.w3.org/2000/svg" xmlns:xlink="http://www.w3.org/1999/xlink" x="0px" y="0px"
	 width="326.15px" height="100.15px" viewBox="0 0 326.15 100.15" style="enable-background:new 0 0 326.15 100.15;"
	 xml:space="preserve">
<symbol  id="FlashAICB_x2F_buildings_x2F__x3C_Path_x3E_" viewBox="0 -31.8 22 31.8">
	<g id="Layer_1_18_">
		<path style="fill-rule:evenodd;clip-rule:evenodd;fill:#FFFFFF;" d="M0,0c8.833-3.467,15.15-9.8,18.95-19
			c1.9-4.633,2.917-8.9,3.05-12.8l-9.1,8.35c-1.033,2.534-2.3,6.067-3.8,10.6C8.167-10.017,6.367-7.033,3.7-3.9
			C2.367-2.3,1.133-1,0,0z"/>
	</g>
</symbol>
<symbol  id="FlashAICB_x2F_buildings_x2F__x3C_Path_x3E__x5F_1" viewBox="-0.029 -26.5 12.929 26.5">
	<g id="Layer_1_17_">
		<path style="fill-rule:evenodd;clip-rule:evenodd;fill:#DED3B2;" d="M12.9,0c-0.767-1-1.617-2.317-2.55-3.95
			c-1.9-3.3-3.333-6.517-4.3-9.65c-0.933-3.167-0.833-6.267,0.3-9.3c0.566-1.533,1.233-2.733,2-3.6
			c-1.267,0.633-2.567,1.55-3.9,2.75C1.783-21.35,0.3-18.733,0-15.9c-0.3,2.833,1.75,6.333,6.15,10.5
			C8.383-3.333,10.633-1.533,12.9,0z"/>
	</g>
</symbol>
<symbol  id="FlashAICB_x2F_buildings_x2F__x3C_Path_x3E__x5F_10" viewBox="0 -29.25 19.8 29.25">
	<g id="Layer_1_8_">
		<path style="fill-rule:evenodd;clip-rule:evenodd;fill:#DED3B2;" d="M19.8-29.25l-18.25,0.4L0,0c4.133-0.233,8.667-0.4,13.6-0.5
			L19.8-29.25z"/>
	</g>
</symbol>
<symbol  id="FlashAICB_x2F_buildings_x2F__x3C_Path_x3E__x5F_11" viewBox="0 -30.4 16.8 30.4">
	<g id="Layer_1_7_">
		<polygon style="fill-rule:evenodd;clip-rule:evenodd;fill:#DED3B2;" points="16.8,-30.4 0,-29.85 3,0 12.1,-0.85 		"/>
	</g>
</symbol>
<symbol  id="FlashAICB_x2F_buildings_x2F__x3C_Path_x3E__x5F_12" viewBox="0 -32.7 18.1 32.7">
	<g id="Layer_1_6_">
		<path style="fill-rule:evenodd;clip-rule:evenodd;fill:#DED3B2;" d="M18.1-1.45L15.85-32.7c-7.3,0.367-11.767,0.6-13.4,0.7
			L0-31.85L8,0L18.1-1.45z"/>
	</g>
</symbol>
<symbol  id="FlashAICB_x2F_buildings_x2F__x3C_Path_x3E__x5F_13" viewBox="0 -35.3 25.7 35.3">
	<g id="Layer_1_5_">
		<path style="fill-rule:evenodd;clip-rule:evenodd;fill:#DED3B2;" d="M25.7-31.9c-3.133-1.367-6.45-2.283-9.95-2.75
			c-2.633-0.3-5.933-0.517-9.9-0.65L0-1l4.8,1C5,0.033,8.55-5.267,15.45-15.9C18.883-21.233,22.3-26.567,25.7-31.9z"/>
	</g>
</symbol>
<symbol  id="FlashAICB_x2F_buildings_x2F__x3C_Path_x3E__x5F_14" viewBox="0 -34.7 17.2 34.7">
	<g id="Layer_1_4_">
		<path style="fill-rule:evenodd;clip-rule:evenodd;fill:#DED3B2;" d="M17.2-1.95L12.7-34.7C8.3-33.733,4.067-32.517,0-31.05L8.8,0
			C11.467-0.7,14.267-1.35,17.2-1.95z"/>
	</g>
</symbol>
<symbol  id="FlashAICB_x2F_buildings_x2F__x3C_Path_x3E__x5F_15" viewBox="0 -44.25 210.3 44.25">
	<g id="Layer_1_3_">
		<path style="fill-rule:evenodd;clip-rule:evenodd;fill:#DED3B2;" d="M205.45-40.55c-3.133-1.367-6.45-2.284-9.95-2.75
			c-2.633-0.3-5.933-0.517-9.9-0.65c-2.9-0.167-6.184-0.267-9.85-0.3l-41.65,0.1c-7.167,0.1-12.567,0.2-16.2,0.3l-63.45,1.9
			c-7.3,0.367-11.767,0.6-13.4,0.7L38.6-41.1c-4.633,0.367-9.15,1.033-13.55,2c-4.4,0.967-8.633,2.184-12.7,3.65
			C8.617-34.117,4.5-32.433,0-30.4c6.667,2.3,10.033,7.533,10.1,15.7C10.167-9.1,9.133-4.2,7,0c4.633-1.7,9.35-3.167,14.15-4.4
			c2.667-0.7,5.467-1.35,8.4-1.95c1.4-0.3,3.383-0.667,5.95-1.1l21.2-3.25c4.933-0.633,10.533-1.3,16.8-2l9.1-0.85
			c5.367-0.467,10.533-0.817,15.5-1.05c4.133-0.233,8.667-0.4,13.6-0.5c7.133-0.167,13.867-0.117,20.2,0.15
			c4,0.1,7.5,0.267,10.5,0.5c6.367,0.4,12.967,1.05,19.8,1.95l5.2,0.7c3.767,0.566,7.883,1.283,12.35,2.15
			c3.2,0.633,6.6,1.367,10.2,2.2l2.4,0.6c-0.333-6.133,2.033-12.483,7.1-19.05c2.7-3.533,6.316-7.583,10.85-12.15
			C208.567-39.05,206.95-39.883,205.45-40.55z"/>
	</g>
</symbol>
<symbol  id="FlashAICB_x2F_buildings_x2F__x3C_Path_x3E__x5F_16" viewBox="0 -47.414 218.5 47.414">
	<g id="Layer_1_2_">
		<path style="fill-rule:evenodd;clip-rule:evenodd;fill:#BDB59A;" d="M218.5-38c-2.133-1.967-3.667-3.3-4.6-4
			c-1.533-1.167-3.333-2.033-5.4-2.6c-2.667-0.7-5.817-1.267-9.45-1.7c-2.3-0.267-5.7-0.583-10.2-0.95
			c-4.867-0.4-25.317-0.067-61.35,1C87.367-45.083,65.533-44.5,62-44.5c-8.5,0-16.833,0.617-25,1.85
			c-6.833,1.033-14,2.583-21.5,4.65c-2.167,0.6-5.017,1.7-8.55,3.3C2.517-32.633,0.2-31.567,0-31.5
			c8.733,3.833,13.033,9.567,12.9,17.2C12.833-10.467,11.367-5.7,8.5,0c4.467-1.8,8.933-3.333,13.4-4.6
			c5.133-1.433,10.983-2.7,17.55-3.8c34.966-5.9,66.65-8.417,95.05-7.55c20.667,0.633,40.467,3.15,59.4,7.55
			c1.7,0.367,3.633,0.9,5.8,1.6c-2-6-0.083-12.417,5.75-19.25c1.933-2.233,4.383-4.617,7.35-7.15
			C214.367-34.567,216.267-36.167,218.5-38z"/>
	</g>
</symbol>
<symbol  id="FlashAICB_x2F_buildings_x2F__x3C_Path_x3E__x5F_2" viewBox="0 -6.8 120.4 6.8">
	<g id="Layer_1_16_">
		<path style="fill-rule:evenodd;clip-rule:evenodd;fill:#DED3B2;" d="M0,0c25.467,0,44.4-0.367,56.8-1.1
			c12.367-0.767,33.567-1.533,63.6-2.3c-43.933,0-70.566-0.117-79.9-0.35C31.167-4.017,19.3-5.033,4.9-6.8L17-3.4L0,0z"/>
	</g>
</symbol>
<symbol  id="FlashAICB_x2F_buildings_x2F__x3C_Path_x3E__x5F_3" viewBox="-0.012 -23.28 31.262 23.28">
	<g id="Layer_1_15_">
		<path style="fill-rule:evenodd;clip-rule:evenodd;fill:#DED3B2;" d="M22.65-19.7c3.167,0.133,6.033,0.517,8.6,1.15
			c-0.7-0.633-1.683-1.3-2.95-2c-2.6-1.4-5.4-2.25-8.4-2.55c-4.2-0.433-7.933-0.083-11.2,1.05c-4.034,1.4-6.733,3.833-8.1,7.3
			c-1.267,3.133-0.567,6.533,2.1,10.2C4.033-2.717,5.483-1.2,7.05,0c-0.833-1.7-1.367-3.65-1.6-5.85
			c-0.534-4.4,0.617-7.867,3.45-10.4C11.767-18.783,16.35-19.933,22.65-19.7z"/>
	</g>
</symbol>
<symbol  id="FlashAICB_x2F_buildings_x2F__x3C_Path_x3E__x5F_4" viewBox="-0.034 -35.95 22.434 35.95">
	<g id="Layer_1_14_">
		<path style="fill-rule:evenodd;clip-rule:evenodd;fill:#DED3B2;" d="M17.1-8.3c-1.9-0.7-3.767-1.617-5.6-2.75
			c-3.633-2.3-5.3-4.55-5-6.75c0.367-2.633,3.133-6.45,8.3-11.45c2.567-2.5,5.1-4.733,7.6-6.7c-2.2,1.267-4.717,2.95-7.55,5.05
			c-5.7,4.233-10.133,8.483-13.3,12.75c-3.133,4.233-1.617,8.533,4.55,12.9C9.2-3.083,12.617-1.333,16.35,0L6.1-9.05L17.1-8.3z"/>
	</g>
</symbol>
<symbol  id="FlashAICB_x2F_buildings_x2F__x3C_Path_x3E__x5F_5" viewBox="0 -26.392 217.1 26.386">
	<g id="Layer_1_13_">
		<path style="fill-rule:evenodd;clip-rule:evenodd;fill:#DED3B2;" d="M212.8-26.35c-3.867,0.267-8.333,1.967-13.4,5.1
			c-5.867,3.7-11.1,6.433-15.7,8.2c-4.2,1.633-9.567,3.117-16.1,4.45c-5.833,1.167-19.717,2.117-41.65,2.85
			c-20.2,0.7-35.6,0.917-46.2,0.65C67.317-5.433,40.733-4.75,0-3.05c6.133,0.4,13.567,0.833,22.3,1.3
			c17.4,0.933,32.517,1.5,45.35,1.7c13.2,0.2,31.883-0.284,56.05-1.45c14.733-0.7,29.367-1.55,43.9-2.55
			c5.867-0.434,13.25-3.267,22.15-8.5c0.8-0.434,3.9-2.333,9.3-5.7c3.067-1.933,5.2-3.1,6.4-3.5c4.066-1.333,7.95-2.683,11.65-4.05
			C216.167-26.3,214.733-26.483,212.8-26.35z"/>
	</g>
</symbol>
<symbol  id="FlashAICB_x2F_buildings_x2F__x3C_Path_x3E__x5F_6" viewBox="-0.027 -22.172 73.127 22.172">
	<g id="Layer_1_12_">
		<path style="fill-rule:evenodd;clip-rule:evenodd;fill:#DED3B2;" d="M47.85-10.1c8.433,2.934,15.167,3.983,20.2,3.15
			c2.534-0.433,4.217-1.15,5.05-2.15c-6.067-1-12.467-2.167-19.2-3.5c-3.333-0.667-7.617-2.1-12.85-4.3c-5.2-2.2-9.5-3.633-12.9-4.3
			c-5.767-1.167-10.95-1.283-15.55-0.35c-5.233,1.066-8.8,3.367-10.7,6.9c-2.1,3.967-2.483,7.6-1.15,10.9
			C1.417-2.117,2.3-0.867,3.4,0c0.5-3.8,1.533-6.583,3.1-8.35c1.2-1.3,3.867-3.066,8-5.3c3.833-2,7.817-2.783,11.95-2.35
			C30.683-15.567,37.817-13.6,47.85-10.1z"/>
	</g>
</symbol>
<symbol  id="FlashAICB_x2F_buildings_x2F__x3C_Path_x3E__x5F_7" viewBox="0.003 -49.95 320.547 49.979">
	<g id="Layer_1_11_">
		<path style="fill-rule:evenodd;clip-rule:evenodd;fill:#DED3B2;" d="M320.55-31c-2.066-5.667-4.383-10.2-6.95-13.6
			c-2.7-3.566-5.3-5.35-7.8-5.35c-3.566,0-7.55,0.833-11.95,2.5c-2.033,0.767-6.2,2.633-12.5,5.6
			c-12.033,5.7-22.717,8.883-32.05,9.55c-22.933,1.7-52.167,2.85-87.7,3.45c-34.8,0.633-60.767,0.5-77.9-0.4
			C75.433-29.683,67.383-31,59.55-33.2c-2.767-0.767-8.633-2.75-17.6-5.95c-6.133-2.2-11.1-3.467-14.9-3.8
			c-5.233-0.466-10.583,0.4-16.05,2.6c-8.633,3.434-12.183,9.667-10.65,18.7c0.5,3.133,1.7,6.933,3.6,11.4
			C4.983-7.75,6.483-4.333,8.45,0C8.817,0.2,8.867-0.65,8.6-2.55c-0.267-2-0.3-3-0.1-3c-1.267-3.267-1.417-6.483-0.45-9.65
			c1.934-6.3,8.467-9.133,19.6-8.5c6.167,0.333,18.983,1.45,38.45,3.35c15.3,1.467,27.733,2.2,37.3,2.2
			c44.533,0,73.483-0.15,86.85-0.45c47.067-1.033,75.5-3.566,85.3-7.6c4.9-2.033,9.75-4.4,14.55-7.1c2.667-1.534,5.967-3.5,9.9-5.9
			c2.967-1.733,5.267-2.75,6.9-3.05c1.967-0.367,3.783,0.1,5.45,1.4c2.967,2.3,5.117,4.684,6.45,7.15c0.7,1.2,1.083,2.184,1.15,2.95
			L320.55-31z"/>
	</g>
</symbol>
<symbol  id="FlashAICB_x2F_buildings_x2F__x3C_Path_x3E__x5F_8" viewBox="0 -32.55 13.55 32.55">
	<g id="Layer_1_10_">
		<polygon style="fill-rule:evenodd;clip-rule:evenodd;fill:#DED3B2;" points="13.55,-32.45 2.85,-32.55 0,-0.7 5.2,0 		"/>
	</g>
</symbol>
<symbol  id="FlashAICB_x2F_buildings_x2F__x3C_Path_x3E__x5F_9" viewBox="0 -29.85 16.8 29.85">
	<g id="Layer_1_9_">
		<path style="fill-rule:evenodd;clip-rule:evenodd;fill:#DED3B2;" d="M16.8-29.85L2.2-29.7L0-0.5C4-0.4,7.5-0.233,10.5,0
			L16.8-29.85z"/>
	</g>
</symbol>
<g>
	<path style="fill-rule:evenodd;clip-rule:evenodd;fill:#DED3B2;" d="M325.7,58.8c-0.767,7.7-2.483,15.167-5.15,22.4
		c-2.066,5.666-4.383,10.2-6.95,13.6c-2.699,3.566-5.3,5.351-7.8,5.351c-3.566,0-7.55-0.834-11.95-2.5
		c-2.033-0.767-6.199-2.634-12.5-5.601c-12.033-5.7-22.716-8.883-32.05-9.55c-22.934-1.7-52.166-2.85-87.7-3.45
		c-34.8-0.633-60.767-0.5-77.9,0.4c-8.267,0.434-16.317,1.75-24.15,3.95c-2.767,0.767-8.633,2.75-17.6,5.949
		c-6.133,2.2-11.1,3.467-14.9,3.801c-5.233,0.466-10.583-0.4-16.05-2.601c-8.633-3.434-12.183-9.666-10.65-18.7
		c0.5-3.133,1.7-6.933,3.6-11.399c2.2-4.834,3.7-8.25,4.5-10.25c0.966-2.267,1.517-4.133,1.65-5.6c0.033-0.5,0-1-0.1-1.5
		c-0.333-1.333-1.417-3.7-3.25-7.1c-2.033-3.7-3.4-6.6-4.1-8.7C0.017,19.667,1.8,13.15,8,7.75c5.433-4.733,10.333-7.3,14.7-7.7
		c3.5-0.333,8.083,0.784,13.75,3.35c3.433,1.533,9.917,4.467,19.45,8.8c9.833,3.867,20.45,6.767,31.85,8.7
		c34.967,5.9,66.65,8.417,95.05,7.55c20.667-0.633,40.467-3.15,59.4-7.55c4.233-1,9.416-2.75,15.55-5.25
		c8.267-3.333,13.15-5.267,14.65-5.8C283.767,5.917,293.9,5.9,302.8,9.8c7.267,3.167,12.917,8.15,16.95,14.95
		c3.6,6.133,5.684,13.267,6.25,21.4c0.233,3.367,0.2,6.917-0.1,10.65L325.7,58.8z"/>
	
		<use xlink:href="#FlashAICB_x2F_buildings_x2F__x3C_Path_x3E__x5F_16"  width="218.5" height="47.414" y="-47.414" transform="matrix(1 0 0 -1 48.2998 12.5)" style="overflow:visible;enable-background:new    ;"/>
	
		<use xlink:href="#FlashAICB_x2F_buildings_x2F__x3C_Path_x3E__x5F_15"  width="210.3" height="44.25" y="-44.25" transform="matrix(1 0 0 -1 52.25 13.4502)" style="overflow:visible;enable-background:new    ;"/>
	
		<use xlink:href="#FlashAICB_x2F_buildings_x2F__x3C_Path_x3E__x5F_14"  width="17.2" height="34.7" y="-34.7" transform="matrix(1 0 0 -1 64.6001 17.8501)" style="overflow:visible;opacity:0.5;enable-background:new    ;"/>
	
		<use xlink:href="#FlashAICB_x2F_buildings_x2F__x3C_Path_x3E__x5F_13"  width="25.7" height="35.3" y="-35.3" transform="matrix(1 0 0 -1 232 22.1001)" style="overflow:visible;opacity:0.5;enable-background:new    ;"/>
	
		<use xlink:href="#FlashAICB_x2F_buildings_x2F__x3C_Path_x3E__x5F_12"  width="18.1" height="32.7" y="-32.7" transform="matrix(1 0 0 -1 90.8501 22.7002)" style="overflow:visible;opacity:0.5;enable-background:new    ;"/>
	
		<use xlink:href="#FlashAICB_x2F_buildings_x2F__x3C_Path_x3E__x5F_11"  width="16.8" height="30.4" y="-30.4" transform="matrix(1 0 0 -1 122.75 26.1499)" style="overflow:visible;opacity:0.5;enable-background:new    ;"/>
	
		<use xlink:href="#FlashAICB_x2F_buildings_x2F__x3C_Path_x3E__x5F_10"  width="19.8" height="29.25" y="-29.25" transform="matrix(1 0 0 -1 150.3501 28.0498)" style="overflow:visible;opacity:0.5;enable-background:new    ;"/>
	
		<use xlink:href="#FlashAICB_x2F_buildings_x2F__x3C_Path_x3E__x5F_9"  width="16.8" height="29.85" y="-29.85" transform="matrix(1 0 0 -1 184.1504 27.8999)" style="overflow:visible;opacity:0.5;enable-background:new    ;"/>
	
		<use xlink:href="#FlashAICB_x2F_buildings_x2F__x3C_Path_x3E__x5F_8"  width="13.55" height="32.55" y="-32.55" transform="matrix(1 0 0 -1 214.4502 25.25)" style="overflow:visible;opacity:0.5;enable-background:new    ;"/>
	
		<use xlink:href="#FlashAICB_x2F_buildings_x2F__x3C_Path_x3E__x5F_7"  width="320.547" height="49.979" x="0.003" y="-49.95" transform="matrix(1 0 0 -1 0 50.2002)" style="overflow:visible;enable-background:new    ;"/>
	
		<use xlink:href="#FlashAICB_x2F_buildings_x2F__x3C_Path_x3E__x5F_6"  width="73.127" height="22.172" x="-0.027" y="-22.172" transform="matrix(1 0 0 -1 2.5498 68.3496)" style="overflow:visible;enable-background:new    ;"/>
	
		<use xlink:href="#FlashAICB_x2F_buildings_x2F__x3C_Path_x3E__x5F_5"  width="217.1" height="26.386" y="-26.392" transform="matrix(1 0 0 -1 89.75 71.8496)" style="overflow:visible;enable-background:new    ;"/>
	
		<use xlink:href="#FlashAICB_x2F_buildings_x2F__x3C_Path_x3E__x5F_4"  width="22.434" height="35.95" x="-0.034" y="-35.95" transform="matrix(1 0 0 -1 273.2002 48.2998)" style="overflow:visible;opacity:0.5;enable-background:new    ;"/>
	
		<use xlink:href="#FlashAICB_x2F_buildings_x2F__x3C_Path_x3E__x5F_3"  width="31.262" height="23.28" x="-0.012" y="-23.28" transform="matrix(1 0 0 -1 15.6001 46.3999)" style="overflow:visible;opacity:0.5;enable-background:new    ;"/>
	
		<use xlink:href="#FlashAICB_x2F_buildings_x2F__x3C_Path_x3E__x5F_2"  width="120.4" height="6.8" y="-6.8" transform="matrix(1 0 0 -1 76.3999 60.7998)" style="overflow:visible;opacity:0.5;enable-background:new    ;"/>
	
		<use xlink:href="#FlashAICB_x2F_buildings_x2F__x3C_Path_x3E__x5F_1"  width="12.929" height="26.5" x="-0.029" y="-26.5" transform="matrix(1 0 0 -1 5.2002 4.75)" style="overflow:visible;enable-background:new    ;"/>
	
		<use xlink:href="#FlashAICB_x2F_buildings_x2F__x3C_Path_x3E_"  width="22" height="31.8" y="-31.8" transform="matrix(1 0 0 -1 300.5 14.6001)" style="overflow:visible;enable-background:new    ;"/>
</g>
</svg>
