<?xml version="1.0" encoding="iso-8859-1"?>
<!-- Generator: Adobe Illustrator 15.1.0, SVG Export Plug-In . SVG Version: 6.00 Build 0)  -->
<!DOCTYPE svg PUBLIC "-//W3C//DTD SVG 1.1//EN" "http://www.w3.org/Graphics/SVG/1.1/DTD/svg11.dtd">
<svg version="1.1" id="buildings_1" xmlns="http://www.w3.org/2000/svg" xmlns:xlink="http://www.w3.org/1999/xlink" x="0px"
	 y="0px" width="236px" height="330.1px" viewBox="0 0 236 330.1" style="enable-background:new 0 0 236 330.1;"
	 xml:space="preserve">
<g>
	<path style="fill-rule:evenodd;clip-rule:evenodd;fill:#839295;" d="M99.3,87.7c-0.966-1.767-1.7-3.733-2.2-5.9
		c-1.067-4.333-0.5-7.483,1.7-9.45c2.8-2.567,6.35-2.833,10.65-0.8c2.167,1.034,4.05,2.317,5.65,3.85c-1.733,2-3.7,4.017-5.9,6.05
		C104.8,85.517,101.5,87.6,99.3,87.7z"/>
	<path style="fill-rule:evenodd;clip-rule:evenodd;fill:#515D5F;" d="M99,80.9c0.633,0.867,1.683,1.383,3.15,1.55
		c0.767,0.1,1.45,0.1,2.05,0l-4.9,5.25c-0.733-1.367-1.367-2.95-1.9-4.75c-1.066-3.567-1.083-6.45-0.05-8.65
		C97.517,77.433,98.067,79.633,99,80.9z"/>
	<path style="fill-rule:evenodd;clip-rule:evenodd;fill:#ABB4B7;" d="M98.85,73.35l-20-19.8l1.2-1.1L100.2,72.4
		c0.066,0.167,0.05,0.333-0.05,0.5C99.983,73.233,99.55,73.383,98.85,73.35z"/>
	<path style="fill-rule:evenodd;clip-rule:evenodd;fill:#839295;" d="M75.25,48.75c0.867-0.833,1.883-1.233,3.05-1.2
		c1.067,0.067,1.983,0.467,2.75,1.2c2,1.867,1.883,3.867-0.35,6c-2.167,2.067-4.034,2-5.6-0.2
		C73.533,52.317,73.583,50.383,75.25,48.75z"/>
	<path style="fill-rule:evenodd;clip-rule:evenodd;fill:#97A4A7;" d="M101.95,72.4c0.367-0.8,1.75-0.95,4.15-0.45
		c1.2,0.267,2.367,0.6,3.5,1l-2.65,1.75c-0.267-0.267-0.767-0.65-1.5-1.15c-0.467-0.3-1.184-0.583-2.15-0.85L101.95,72.4z"/>
	<path style="fill-rule:evenodd;clip-rule:evenodd;fill:#C8CFD1;" d="M77.35,49.15c0.333-0.367,0.933-0.383,1.8-0.05
		c0.867,0.333,1.1,0.783,0.7,1.35c-0.4,0.566-1.017,0.6-1.85,0.1C77.133,50.05,76.917,49.583,77.35,49.15z"/>
	<g>
		<path style="fill-rule:evenodd;clip-rule:evenodd;fill:#515D5F;" d="M77.95,53.05c1.066,0,1.95-0.283,2.65-0.85
			c0.7-0.6,1.117-1.383,1.25-2.35c0.9,1.667,0.517,3.3-1.15,4.9c-2.067,1.967-3.883,1.967-5.45,0c-1.533-1.933-1.65-3.783-0.35-5.55
			c0.067,0.8,0.283,1.55,0.65,2.25C76.117,52.55,76.917,53.083,77.95,53.05z"/>
	</g>
	<g>
		<polygon style="fill-rule:evenodd;clip-rule:evenodd;fill:#515D5F;" points="99.4,73.3 98.85,73.35 80.15,54.85 80.7,54.75 		"/>
	</g>
	<polygon style="fill-rule:evenodd;clip-rule:evenodd;fill:#C8CFD1;" points="81.3,54.9 83.9,57.2 81.65,54.35 90.55,63.35 88.9,62 
		98.65,72.15 	"/>
	
		<linearGradient id="SVGID_1_" gradientUnits="userSpaceOnUse" x1="-15.5571" y1="-241.5625" x2="237.6637" y2="-241.5625" gradientTransform="matrix(-0.5558 0.8313 -0.8313 -0.5558 1.313686e-004 -2.292395e-004)">
		<stop  offset="0.0078" style="stop-color:#B5BDBF"/>
		<stop  offset="1" style="stop-color:#99A5A8"/>
	</linearGradient>
	<polygon style="fill-rule:evenodd;clip-rule:evenodd;fill:url(#SVGID_1_);" points="120.5,57.1 140,57.6 161,117.6 181,123.1 
		191.5,200.1 207.5,211.1 236,306.6 196,330.1 143.5,320.1 104.5,329.1 54,313.6 18,312.6 0,300.1 15.5,256.1 26,246.1 32,211.1 
		51.5,202.1 50.5,134.1 85,114.1 86.5,83.1 109.5,79.6 	"/>
	<g>
		<polygon style="fill-rule:evenodd;clip-rule:evenodd;fill:#839295;" points="86.5,83.1 109.5,79.6 120.5,57.1 127,66.6 117,97.6 
			102,112.6 105,157.6 119,170.6 111.5,254.1 125,266.1 124.5,306.6 145,314.1 195,326.6 236,306.6 196,330.1 143.5,320.1 
			104.5,329.1 54,313.6 18,312.6 0,300.1 15.5,256.1 26,246.1 32,211.1 51.5,202.1 50.5,134.1 85,114.1 		"/>
		<g>
			<polygon style="fill-rule:evenodd;clip-rule:evenodd;fill:#6C7D80;" points="86.5,83.1 109.5,79.6 120.5,57.1 127,66.6 
				118.5,69.1 111,86.6 93.5,92.6 91,131.1 75,145.6 72,182.6 93,181.6 91,206.1 101,207.1 99.5,257.1 83.5,260.1 83,224.6 
				71.5,223.6 52,264.6 57.5,285.6 77.5,285.1 77,306.6 107,313.6 110,322.6 142,316.1 196,330.1 143.5,320.1 104.5,329.1 54,313.6 
				18,312.6 0,300.1 15.5,256.1 26,246.1 32,211.1 51.5,202.1 50.5,134.1 85,114.1 			"/>
		</g>
	</g>
	<polygon style="fill-rule:evenodd;clip-rule:evenodd;fill:#6C7D80;" points="85.5,266.6 116.5,274.6 113.5,299.1 101.5,293.1 
		100.5,304.1 91.5,301.6 90.5,274.6 74,277.6 71,271.6 	"/>
	<path style="fill-rule:evenodd;clip-rule:evenodd;fill:#839295;" d="M144,262.1l-9.5,3.5l7-8.5l-3-19l43.9-14.399l8.1,5.899
		l16.5-14l14,52.5l-9.5-25l-11,7l3,50l-13,8l1.5-44.5c-9.333,2.334-13.833,3-13.5,2s0-11.166-1-30.5l-28,8L144,262.1z"/>
	<polygon style="fill-rule:evenodd;clip-rule:evenodd;fill:#97A4A7;" points="177,151.1 179.5,197.1 173,202.6 172,182.1 
		158.5,176.6 153.5,188.6 142.5,187.6 137,179.1 128,172.6 144.5,168.6 157.5,163.1 179,129.1 	"/>
	<polygon style="fill-rule:evenodd;clip-rule:evenodd;fill:#97A4A7;" points="125,113.6 105.5,112.6 118,101.1 136.5,111.1 
		151,116.1 148.5,122.1 133.5,117.1 128.5,130.6 122.5,129.6 	"/>
	<polygon style="fill-rule:evenodd;clip-rule:evenodd;fill:#6C7D80;" points="87,148.1 100,137.6 102.5,162.6 98,163.6 97.5,150.6 
		92,151.1 90.5,169.6 83,168.1 	"/>
	<polygon style="fill-rule:evenodd;clip-rule:evenodd;fill:#515D5F;" points="29,295.1 21,278.6 11.5,297.6 5.5,295.6 20.5,259.1 
		43.5,261.6 50,290.6 72.5,291.1 71,317.1 54,311.1 22,309.6 39.5,307.1 41.5,297.6 	"/>
	<path style="fill-rule:evenodd;clip-rule:evenodd;fill:#515D5F;" d="M74.95,192.9L71,189.6l10,2.5l3,18l11.5,2.5l-0.5,33l-5.5-28.5
		L74,214.6c0.667-1.166,1.35-2.6,2.05-4.3c1.434-3.434,2.25-6.5,2.45-9.2C78.7,198.4,77.517,195.667,74.95,192.9z"/>
	<polygon style="fill-rule:evenodd;clip-rule:evenodd;fill:#515D5F;" points="61.5,156.1 55.5,142.1 68.5,149.1 63,190.1 	"/>
	<polygon style="fill-rule:evenodd;clip-rule:evenodd;fill:#C8CFD1;" points="125,59.1 138.5,59.6 142.25,68.35 141,76.6 157,111.6 
		134.5,78.1 138.5,69.6 129.5,66.1 	"/>
	<polygon style="fill-rule:evenodd;clip-rule:evenodd;fill:#C8CFD1;" points="180,175.1 181,146.1 189.5,204.1 203,212.6 188,225.6 
		180,215.1 153.5,217.6 184.5,200.1 	"/>
	<polygon style="fill-rule:evenodd;clip-rule:evenodd;fill:#C8CFD1;" points="111.5,157.1 130.5,156.6 153.5,149.1 172,130.1 
		158,157.1 120.5,168.1 	"/>
	<polygon style="fill-rule:evenodd;clip-rule:evenodd;fill:#97A4A7;" points="135.5,296.1 141,275.1 164,271.1 169,286.1 
		181.5,288.6 183,321.6 176.5,318.6 172.5,294.1 156.5,295.1 155,279.1 144,283.6 	"/>
	<path style="fill-rule:evenodd;clip-rule:evenodd;fill:#839295;" d="M125,59.1l1.05-2.25c0.934-1.767,1.967-3.317,3.101-4.65
		c3.633-4.267,7.583-5.55,11.85-3.85c4.167,1.667,5.5,5.467,4,11.4c-0.733,2.933-1.9,5.717-3.5,8.35
		c-1.366,0.167-2.917,0.183-4.65,0.05c-3.466-0.3-6.083-1.233-7.85-2.8c-1.767-1.567-2.967-3.083-3.6-4.55L125,59.1z"/>
	<path style="fill-rule:evenodd;clip-rule:evenodd;fill:#ABB4B7;" d="M151.5,23.85c0.733-0.934,0.45-4.133-0.85-9.6
		c-0.634-2.733-1.351-5.367-2.15-7.9h2.25c0.866,2.8,1.634,5.683,2.3,8.65c1.267,5.967,1.334,9.417,0.2,10.35
		c-1,0.833-2.767,1.133-5.3,0.9c-2.334-0.2-3.65-0.083-3.95,0.35c-0.3,0.433,0.366,2.033,2,4.8c1.7,2.9,2.366,4.883,2,5.95
		c-0.667,2-2.917,6.417-6.75,13.25c-0.233,0.133-0.517,0.167-0.85,0.1c-0.634-0.133-1.101-0.667-1.4-1.6l6.5-12
		c0.7-1.2,0.066-3.184-1.9-5.95c-1.966-2.8-2.666-4.733-2.1-5.8c0.634-1.167,2.3-1.533,5-1.1
		C149.3,24.65,150.967,24.517,151.5,23.85z"/>
	<path style="fill-rule:evenodd;clip-rule:evenodd;fill:#839295;" d="M152.9,0.95c1.033,0.733,1.633,1.75,1.8,3.05
		c0.166,1.267-0.15,2.367-0.95,3.3c-0.833,1.034-2.083,1.55-3.75,1.55c-3.233,0-4.85-1.383-4.85-4.15c0-2.7,1.116-4.233,3.35-4.6
		C150.267-0.2,151.733,0.083,152.9,0.95z"/>
	<g>
		<path style="fill-rule:evenodd;clip-rule:evenodd;fill:#515D5F;" d="M136.85,47.65L137,47.7c-0.8,0.7-1.717,1.633-2.75,2.8
			c-2.033,2.267-3.566,4.5-4.6,6.7c-1.101,2.333-0.95,4.433,0.449,6.3c1.034,1.4,2.551,2.467,4.551,3.2
			c2,0.767,4.283,1.233,6.85,1.4c-1.366,0.167-2.917,0.183-4.65,0.05c-3.466-0.3-6.083-1.233-7.85-2.8
			c-1.767-1.567-2.967-3.083-3.6-4.55l-0.4-1.7l3.1-5.5C130.767,49.9,133.684,47.917,136.85,47.65z"/>
	</g>
	<path style="fill-rule:evenodd;clip-rule:evenodd;fill:#97A4A7;" d="M142.4,52.45c1.466,1.3,1.866,3.7,1.199,7.2
		c-0.666,3.3-1.366,4.95-2.1,4.95c-0.4,0-1.083-0.167-2.05-0.5l-1.3-0.5l0.649-1c0.566-0.9,1.134-1.867,1.7-2.9
		c0.5-0.867,0.884-2.483,1.15-4.85C141.884,53.017,142.134,52.217,142.4,52.45z"/>
	<g>
		<path style="fill-rule:evenodd;clip-rule:evenodd;fill:#515D5F;" d="M146.5,24.25c2.8,0.4,4.467,0.267,5-0.4
			c0.634-0.8,0.517-3.3-0.35-7.5c-0.567-2.733-1.334-5.684-2.301-8.85l0.9-0.3l1.2,4.65c0.8,3.333,1.283,5.533,1.45,6.6
			c0.199,1.5,0.316,2.566,0.35,3.2c0.033,0.833-0.05,1.684-0.25,2.55c-0.134,0.8-1.167,1.15-3.1,1.05c-2.2-0.267-3.617-0.4-4.25-0.4
			c-1.101,0-1.834,0.1-2.2,0.3c-0.467,0.3-0.65,0.95-0.55,1.95c0.066,0.5,0.916,2.017,2.55,4.55c1.5,2.267,2.1,3.867,1.8,4.8
			c-0.2,0.767-2.616,5.3-7.25,13.6c-0.167-0.167-0.333-0.483-0.5-0.95l6.5-12c0.7-1.2,0.066-3.184-1.9-5.95
			c-1.966-2.8-2.666-4.733-2.1-5.8C142.134,24.183,143.8,23.817,146.5,24.25z"/>
	</g>
	<g>
		<path style="fill-rule:evenodd;clip-rule:evenodd;fill:#515D5F;" d="M147.65,3.7c0.066,1.333,0.866,2.383,2.399,3.15
			c1.601,0.8,3,0.667,4.2-0.4l0.1-0.05c-0.767,1.633-2.216,2.45-4.35,2.45c-3.233,0-4.85-1.383-4.85-4.15
			c0-2.7,1.116-4.233,3.35-4.6l1.4-0.1C148.333,0.967,147.583,2.2,147.65,3.7z"/>
	</g>
	<path style="fill-rule:evenodd;clip-rule:evenodd;fill:#C8CFD1;" d="M151.4,1.7c0.566-0.133,1.033,0.333,1.399,1.4
		c0.4,1.033,0.267,1.617-0.399,1.75c-0.667,0.133-1.117-0.333-1.351-1.4C150.816,2.383,150.934,1.8,151.4,1.7z"/>
	<path style="fill-rule:evenodd;clip-rule:evenodd;fill:#C8CFD1;" d="M143.15,55.35c0.333,0.066,0.333,1.267,0,3.6
		c-0.367,2.3-0.784,3.433-1.25,3.4c-0.467-0.067-0.483-1.267-0.051-3.6C142.316,56.417,142.75,55.283,143.15,55.35z"/>
	<path style="fill-rule:evenodd;clip-rule:evenodd;fill:#C8CFD1;" d="M140.75,49.05c3.934-7.3,6.066-11.333,6.4-12.1
		c0.233-0.5,0.149-1.3-0.25-2.4c-0.367-0.966-0.75-1.7-1.15-2.2c-0.233-0.333-0.65-1.083-1.25-2.25l-0.8-1.65l2,2.95
		c1.333,2.133,2,3.633,2,4.5c0,0.9-0.351,2.117-1.05,3.65c-0.367,0.8-0.884,1.85-1.551,3.15c-0.466,1.066-1.666,3.2-3.6,6.4
		L140.75,49.05z"/>
	<path style="fill-rule:evenodd;clip-rule:evenodd;fill:#C8CFD1;" d="M151.1,10.25l1.15,3.9c0.767,2.733,1.184,4.467,1.25,5.2
		c0.134,1.167,0.033,2.333-0.3,3.5c0.033-1.233,0-2.317-0.101-3.25c-0.066-0.567-0.416-2.3-1.05-5.2L151.1,10.25z"/>
	<g>
		<g>
			<path style="fill-rule:evenodd;clip-rule:evenodd;fill:#8D9497;" d="M129.45,90.45c0.6-0.133,0.95,0.05,1.05,0.55
				s-0.116,0.75-0.65,0.75c-0.5,0-0.783-0.2-0.85-0.6S129.083,90.517,129.45,90.45z"/>
		</g>
	</g>
	<g>
		<g>
			<path style="fill-rule:evenodd;clip-rule:evenodd;fill:#8D9497;" d="M128.65,81.6c0.366-0.867,0.949-1.317,1.75-1.35
				c0.733,0,1.1,0.233,1.1,0.7c0.066,0.867-0.033,1.433-0.3,1.7c-0.867,0.3-1.384,0.45-1.55,0.45
				C128.783,83.133,128.45,82.633,128.65,81.6z"/>
		</g>
	</g>
	<g>
		<g>
			<path style="fill-rule:evenodd;clip-rule:evenodd;fill:#8D9497;" d="M147.55,109.3c0.467-0.4,1.084-0.333,1.851,0.2
				s0.633,1.15-0.4,1.85c-1.167,0.3-1.833,0.083-2-0.65C146.9,110.033,147.083,109.567,147.55,109.3z"/>
		</g>
	</g>
	<g>
		<g>
			<path style="fill-rule:evenodd;clip-rule:evenodd;fill:#6C7274;" d="M134.95,230.6c0.633-1,1.75-1.183,3.35-0.55
				c1.566,0.601,1.65,1.767,0.25,3.5c-2,1.2-3.3,1.134-3.899-0.2C134.017,232.017,134.116,231.1,134.95,230.6z"/>
		</g>
	</g>
	<g>
		<g>
			<path style="fill-rule:evenodd;clip-rule:evenodd;fill:#6C7274;" d="M124.05,193.45c1.867-1.834,3.3-2.033,4.3-0.601
				c0.367,0.567,0.5,1.167,0.4,1.801c-0.1,0.699-0.417,1.149-0.95,1.35c-0.833,0.767-1.866,0.833-3.1,0.2
				C123.434,195.566,123.217,194.65,124.05,193.45z"/>
		</g>
	</g>
	<g>
		<g>
			<path style="fill-rule:evenodd;clip-rule:evenodd;fill:#6C7274;" d="M215.05,284.65c1.334-0.167,2.134,0.416,2.4,1.75
				c0.3,1.333-0.316,1.983-1.851,1.949c-1.533-0.3-2.233-0.983-2.1-2.05C213.667,285.267,214.184,284.717,215.05,284.65z"/>
		</g>
	</g>
	<g>
		<g>
			<path style="fill-rule:evenodd;clip-rule:evenodd;fill:#6C7274;" d="M210.8,314.05c-0.066,0.101,0.167,0.101,0.7,0
				c0.434,0.033,0.4,0.367-0.1,1c-0.5,0.066-0.784-0.066-0.851-0.399C210.483,314.35,210.566,314.15,210.8,314.05z"/>
		</g>
	</g>
	<g>
		<g>
			<path style="fill-rule:evenodd;clip-rule:evenodd;fill:#6C7274;" d="M152.65,303.7c0.466,0.066,0.767,0.5,0.899,1.3
				c0.101,0.767-0.366,1-1.399,0.7c-0.801-0.5-1.034-1-0.7-1.5C151.783,303.733,152.184,303.566,152.65,303.7z"/>
		</g>
	</g>
	<g>
		<g>
			<path style="fill-rule:evenodd;clip-rule:evenodd;fill:#6C7274;" d="M164.1,252.2c1.067-1.033,2-1.101,2.801-0.2
				c0.767,0.9,0.683,1.667-0.25,2.3c-1.101,0.733-1.95,0.717-2.551-0.05C163.566,253.483,163.566,252.8,164.1,252.2z"/>
		</g>
	</g>
	<g>
		<g>
			<path style="fill-rule:evenodd;clip-rule:evenodd;fill:#6C7274;" d="M197.4,234.35c0.3-0.466,0.649-0.566,1.05-0.3
				c0.399,0.267,0.416,0.584,0.05,0.95c-0.3,0.333-0.6,0.384-0.9,0.15C197.267,234.917,197.2,234.65,197.4,234.35z"/>
		</g>
	</g>
	<g>
		<g>
			<path style="fill-rule:evenodd;clip-rule:evenodd;fill:#6C7274;" d="M162.95,184.3c1.3-1.066,2.434-1.017,3.399,0.15
				c0.967,1.133,0.767,2.083-0.6,2.85c-1.533,0.7-2.583,0.533-3.15-0.5C162.066,185.767,162.184,184.934,162.95,184.3z"/>
		</g>
	</g>
	<g>
		<g>
			<path style="fill-rule:evenodd;clip-rule:evenodd;fill:#6C7274;" d="M170.65,152.9c0.899-0.6,1.5-0.566,1.8,0.1
				c0.267,0.7,0.149,1.15-0.351,1.35c-0.666,0.367-1.183,0.3-1.55-0.2C170.217,153.683,170.25,153.267,170.65,152.9z"/>
		</g>
	</g>
	<g>
		<g>
			<path style="fill-rule:evenodd;clip-rule:evenodd;fill:#6C7274;" d="M119.25,144.05c0.967-0.233,1.55,0.067,1.75,0.9
				c0.167,0.833-0.2,1.25-1.1,1.25c-0.801,0-1.25-0.333-1.351-1C118.45,144.533,118.684,144.15,119.25,144.05z"/>
		</g>
	</g>
	<g>
		<g>
			<path style="fill-rule:evenodd;clip-rule:evenodd;fill:#6C7274;" d="M145.85,207.4c0,0.033,0.384,0.25,1.15,0.649
				c0.5,0.467,0.217,0.917-0.85,1.351c-0.934-0.267-1.317-0.667-1.15-1.2C145.134,207.667,145.417,207.4,145.85,207.4z"/>
		</g>
	</g>
	<g>
		<g>
			<path style="fill-rule:evenodd;clip-rule:evenodd;fill:#6C7274;" d="M120.3,247.05c-0.066,0.101,0.167,0.101,0.7,0
				c0.434,0.033,0.4,0.367-0.1,1c-0.5,0.066-0.784-0.066-0.851-0.399C119.983,247.35,120.066,247.15,120.3,247.05z"/>
		</g>
	</g>
	<g>
		<g>
			<path style="fill-rule:evenodd;clip-rule:evenodd;fill:#6C7274;" d="M114.75,303.35c1.033-0.8,1.917-0.767,2.65,0.101
				c0.7,0.899,0.517,1.616-0.55,2.149c-0.967,0.5-1.717,0.384-2.25-0.35S114.117,303.884,114.75,303.35z"/>
		</g>
	</g>
	<g>
		<g>
			<path style="fill-rule:evenodd;clip-rule:evenodd;fill:#6C7274;" d="M82.95,298.45c0.6-0.134,0.95,0.05,1.05,0.55
				s-0.117,0.75-0.65,0.75c-0.5,0-0.783-0.2-0.85-0.6C82.433,298.75,82.583,298.517,82.95,298.45z"/>
		</g>
	</g>
	<g>
		<g>
			<path style="fill-rule:evenodd;clip-rule:evenodd;fill:#6C7274;" d="M71.25,250.55c0.967-0.233,1.55,0.066,1.75,0.9
				c0.167,0.833-0.2,1.25-1.1,1.25c-0.8,0-1.25-0.334-1.35-1C70.45,251.033,70.683,250.65,71.25,250.55z"/>
		</g>
	</g>
	<g>
		<g>
			<path style="fill-rule:evenodd;clip-rule:evenodd;fill:#6C7274;" d="M62.1,266.25c0.767-0.4,1.233-0.316,1.4,0.25
				c0.167,0.6-0.017,0.884-0.55,0.85c-0.233,0.167-0.517,0.101-0.85-0.199C61.733,266.85,61.733,266.55,62.1,266.25z"/>
		</g>
	</g>
	<g>
		<g>
			<path style="fill-rule:evenodd;clip-rule:evenodd;fill:#6C7274;" d="M103.65,193c1.667-1.2,3.067-1.083,4.2,0.35
				c1.133,1.467,0.783,2.634-1.05,3.5c-1.966,0.667-3.3,0.25-4-1.25c0.067-0.1,0.2-0.05,0.4,0.15c0.1,0.134,0.167,0.05,0.2-0.25
				c-0.3-0.066-0.45-0.316-0.45-0.75v-0.5C102.85,193.783,103.083,193.366,103.65,193z"/>
		</g>
	</g>
	<g>
		<g>
			<path style="fill-rule:evenodd;clip-rule:evenodd;fill:#6C7274;" d="M109.5,224.85c0.5-1,1.133-1.267,1.9-0.8
				s0.85,0.983,0.25,1.55c-0.367,0.567-0.867,0.75-1.5,0.551C109.483,225.917,109.267,225.483,109.5,224.85z"/>
		</g>
	</g>
	<g>
		<g>
			<path style="fill-rule:evenodd;clip-rule:evenodd;fill:#6C7274;" d="M101.2,101.55c1.033-0.433,1.633-0.3,1.8,0.4
				c0.2,0.767-0.05,1.15-0.75,1.15c-0.333,0.066-0.717-0.083-1.15-0.45C100.633,102.283,100.667,101.917,101.2,101.55z"/>
		</g>
	</g>
	<g>
		<g>
			<path style="fill-rule:evenodd;clip-rule:evenodd;fill:#6C7274;" d="M115.7,84.75c0.3,0.067,0.5,0.15,0.6,0.25
				c0.367,0.2,0.6,0.517,0.7,0.95c0.1,0.4,0.033,0.733-0.2,1c-0.267,0.333-0.65,0.5-1.15,0.5h-0.35l-0.2-0.05h-0.15v-0.05
				c0-0.902,0-1.585,0-2.05c0.011-0.245,0.019-0.428,0.025-0.55h0.125l0.2-0.05L115.7,84.75z"/>
		</g>
	</g>
	<g>
		<g>
			<path style="fill-rule:evenodd;clip-rule:evenodd;fill:#6C7274;" d="M77.25,176.25c0.4,0,0.65,0.267,0.75,0.8
				c0.1,0.5-0.183,0.733-0.85,0.7c-0.7-0.366-0.933-0.733-0.7-1.1C76.683,176.35,76.95,176.217,77.25,176.25z"/>
		</g>
	</g>
	<g>
		<g>
			<path style="fill-rule:evenodd;clip-rule:evenodd;fill:#54585B;" d="M36.15,236.9c0.733-0.567,1.333-0.534,1.8,0.1
				c0.466,0.634,0.316,1.1-0.45,1.4c-0.467,0.233-0.933,0.166-1.4-0.2C35.633,237.767,35.65,237.333,36.15,236.9z"/>
		</g>
	</g>
	<g>
		<g>
			<path style="fill-rule:evenodd;clip-rule:evenodd;fill:#54585B;" d="M58.15,210.75c0.934-1.934,2.3-2.533,4.1-1.8
				c1.8,0.767,2.033,2,0.7,3.7c-1.067,1.366-2.3,1.716-3.7,1.05C57.85,213.033,57.483,212.05,58.15,210.75z"/>
		</g>
	</g>
	<g>
		<g>
			<path style="fill-rule:evenodd;clip-rule:evenodd;fill:#54585B;" d="M89.65,315c0.567-0.233,1.167,0.083,1.8,0.95
				c0.6,0.866,0.216,1.483-1.15,1.85c-1.433-0.233-2.033-0.75-1.8-1.55C88.667,315.517,89.05,315.1,89.65,315z"/>
		</g>
	</g>
	<g>
		<g>
			<path style="fill-rule:evenodd;clip-rule:evenodd;fill:#54585B;" d="M49.4,252.5c0.4-0.4,0.917-0.384,1.55,0.05
				c0.6,0.4,0.55,0.917-0.15,1.55c-1.066,0.334-1.65,0.2-1.75-0.399C48.917,253.167,49.033,252.767,49.4,252.5z"/>
		</g>
	</g>
	<g>
		<g>
			<path style="fill-rule:evenodd;clip-rule:evenodd;fill:#54585B;" d="M76.55,128.8c0.467-0.4,1.083-0.333,1.85,0.2
				s0.633,1.15-0.4,1.85c-1.167,0.3-1.833,0.083-2-0.65C75.9,129.533,76.083,129.067,76.55,128.8z"/>
		</g>
	</g>
	<g>
		<g>
			<path style="fill-rule:evenodd;clip-rule:evenodd;fill:#54585B;" d="M55.9,157.85c0.233-0.233,0.583-0.167,1.05,0.2
				c0.433,0.333,0.333,0.7-0.3,1.1c-0.667,0.133-1.033-0.033-1.1-0.5C55.45,158.217,55.567,157.95,55.9,157.85z"/>
		</g>
	</g>
	<g>
		<g>
			<path style="fill-rule:evenodd;clip-rule:evenodd;fill:#54585B;" d="M94.4,84.8c1.167-0.233,1.867,0.15,2.1,1.15
				s-0.2,1.5-1.3,1.5c-1,0-1.55-0.4-1.65-1.2C93.417,85.45,93.7,84.967,94.4,84.8z"/>
		</g>
	</g>
</g>
</svg>
