<?xml version="1.0" encoding="iso-8859-1"?>
<!-- Generator: Adobe Illustrator 15.1.0, SVG Export Plug-In . SVG Version: 6.00 Build 0)  -->
<!DOCTYPE svg PUBLIC "-//W3C//DTD SVG 1.1//EN" "http://www.w3.org/Graphics/SVG/1.1/DTD/svg11.dtd">
<svg version="1.1" id="buildings_1" xmlns="http://www.w3.org/2000/svg" xmlns:xlink="http://www.w3.org/1999/xlink" x="0px"
	 y="0px" width="279px" height="244.05px" viewBox="0 0 279 244.05" style="enable-background:new 0 0 279 244.05;"
	 xml:space="preserve">
<g>
	<g>
		
			<linearGradient id="SVGID_1_" gradientUnits="userSpaceOnUse" x1="-43.9399" y1="-202.5303" x2="158.2069" y2="-202.5303" gradientTransform="matrix(-0.5558 0.8313 -0.8313 -0.5558 -1.665950e-004 -6.616116e-005)">
			<stop  offset="0.0078" style="stop-color:#B5BDBF"/>
			<stop  offset="1" style="stop-color:#99A5A8"/>
		</linearGradient>
		<polygon style="fill-rule:evenodd;clip-rule:evenodd;fill:url(#SVGID_1_);" points="197,65.05 209,108.05 251,117.05 257,154.05 
			247,166.05 273,182.05 279,213.05 250,222.05 231,237.05 189,228.05 143,244.05 103,230.05 78,233.05 49,228.05 21,216.05 
			7,180.05 26,149.05 0,110.05 12.45,86.05 18.5,85.05 15.55,80.05 27,58.05 62,44.05 76,32.05 109,43.05 145,40.05 163,59.05 		"/>
		<g>
			<polygon style="fill-rule:evenodd;clip-rule:evenodd;fill:#839295;" points="106,65.55 95,97.05 114,129.05 101,153.55 
				134,165.55 129,205.55 152.5,221.05 186,220.05 231,233.55 249.5,218.05 279,213.05 250,222.05 231,237.05 189,228.05 
				143,244.05 103,230.05 78,233.05 49,228.05 21,216.05 7,180.05 26,149.05 0,110.05 12.45,86.05 18.5,85.05 15.55,80.05 27,58.05 
				62,44.05 76,32.05 			"/>
			<g>
				<polygon style="fill-rule:evenodd;clip-rule:evenodd;fill:#6C7D80;" points="62,44.05 76,32.05 106,65.55 74.5,48.55 50,60.55 
					50.5,84.05 65,90.55 59,118.55 46.5,122.55 50,151.55 70,151.05 72.5,135.05 88.5,142.55 89,177.05 110,179.05 106,201.55 
					95.5,204.55 93,192.05 71,184.55 68.5,203.55 88,219.55 106,219.05 143,238.55 187.5,225.05 231,237.05 189,228.05 143,244.05 
					103,230.05 78,233.05 49,228.05 21,216.05 7,180.05 26,149.05 0,110.05 12.45,86.05 18.5,85.05 15.55,80.05 27,58.05 				"/>
			</g>
		</g>
		<polygon style="fill-rule:evenodd;clip-rule:evenodd;fill:#839295;" points="213.5,141.55 231.5,133.55 249.5,120.05 253,151.05 
			232.5,150.55 231,159.05 218.5,167.05 214,154.05 194,155.05 193.5,183.55 182.5,178.05 186.5,161.05 181.5,151.05 143.5,164.05 
			183.5,144.05 		"/>
		<polygon style="fill-rule:evenodd;clip-rule:evenodd;fill:#839295;" points="142.5,137.05 132.5,149.55 111,144.05 119.5,129.55 
			155.5,127.55 178.5,121.55 155,134.05 		"/>
		<polygon style="fill-rule:evenodd;clip-rule:evenodd;fill:#97A4A7;" points="165.5,190.55 151.5,193.55 148.5,207.55 
			139.5,198.55 146.5,180.05 169,175.05 175.5,186.05 188,190.55 185.5,197.55 		"/>
		<polygon style="fill-rule:evenodd;clip-rule:evenodd;fill:#97A4A7;" points="185,75.55 159,81.05 151.5,97.05 136.5,90.05 
			130.5,85.05 115,86.05 110,98.05 112,109.55 101,94.05 109.5,67.05 131,70.55 157.5,74.05 187,70.05 		"/>
		<polygon style="fill-rule:evenodd;clip-rule:evenodd;fill:#839295;" points="231.5,186.05 269.5,183.05 276.5,210.05 263,209.05 
			262.5,197.05 236.5,205.05 230.5,225.05 216.5,221.55 215,202.05 195,202.55 205.5,199.55 		"/>
		<polygon style="fill-rule:evenodd;clip-rule:evenodd;fill:#6C7D80;" points="72.5,60.05 96.5,67.55 84.5,101.05 90.5,116.55 
			82,117.55 78,100.05 87,72.05 67,70.05 63,82.55 57,80.05 57,64.55 		"/>
		<polygon style="fill-rule:evenodd;clip-rule:evenodd;fill:#C8CFD1;" points="107,45.55 142.5,43.05 159,60.05 140.5,47.55 
			109.5,51.05 114.5,59.05 153.5,71.55 109.5,64.05 86.5,38.05 		"/>
		<polygon style="fill-rule:evenodd;clip-rule:evenodd;fill:#C8CFD1;" points="211,113.05 176.5,125.05 210,110.55 247,118.05 
			229.5,131.55 211.5,140.05 184.5,140.55 161,152.05 183.5,138.05 210,136.55 241,118.05 		"/>
		<polygon style="fill-rule:evenodd;clip-rule:evenodd;fill:#839295;" points="179,94.05 171.5,104.55 176,92.05 194,89.05 
			196.5,102.05 191,92.55 		"/>
		<polygon style="fill-rule:evenodd;clip-rule:evenodd;fill:#C8CFD1;" points="192.5,190.55 204,191.55 232,180.05 258,178.55 
			245,168.55 267.5,181.55 232.5,182.55 201.5,197.55 		"/>
		<path style="fill-rule:evenodd;clip-rule:evenodd;fill:#6C7D80;" d="M120.55,169.55c2.733,0.667,5.383,1.334,7.95,2l-7,43.5l-5-1
			l5-39l-10-7.5C112.133,167.55,115.15,168.217,120.55,169.55z"/>
		<polygon style="fill-rule:evenodd;clip-rule:evenodd;fill:#515D5F;" points="32.5,180.55 27.5,196.55 42,211.55 46.5,205.05 
			67,207.55 74.5,225.05 104,223.05 138,239.05 101,229.05 77,231.05 49.5,225.05 24,214.05 11,179.05 30,153.05 48.5,157.05 
			50,180.55 		"/>
		<polygon style="fill-rule:evenodd;clip-rule:evenodd;fill:#515D5F;" points="79.5,160.05 80,146.05 85,146.55 82,178.55 
			77.5,176.55 70,169.05 71,159.55 		"/>
		<polygon style="fill-rule:evenodd;clip-rule:evenodd;fill:#515D5F;" points="15.5,90.55 26,92.05 17.5,107.55 36,112.05 
			41,136.55 36,146.05 28,118.05 7.5,108.55 		"/>
		<g>
			<g>
				<path style="fill-rule:evenodd;clip-rule:evenodd;fill:#6C7274;" d="M163.4,165.6c1.199-0.833,2.199-0.733,3,0.301
					c0.8,1,0.533,1.783-0.801,2.35c-1.066,0.467-1.899,0.283-2.5-0.55C162.5,166.833,162.6,166.134,163.4,165.6z"/>
			</g>
		</g>
		<g>
			<g>
				<path style="fill-rule:evenodd;clip-rule:evenodd;fill:#6C7274;" d="M173,205.5c1.634-1.134,2.9-1.017,3.8,0.35
					c0.934,1.367,0.65,2.384-0.85,3.051c-1.634,0.699-2.75,0.466-3.351-0.7C172,207.066,172.134,206.167,173,205.5z"/>
			</g>
		</g>
		<g>
			<g>
				<path style="fill-rule:evenodd;clip-rule:evenodd;fill:#6C7274;" d="M252.45,208.75c0.7-0.533,1.35-0.467,1.95,0.2
					c0.566,0.666,0.433,1.25-0.4,1.75c-1.167,0.366-1.833,0.2-2-0.5C251.866,209.5,252.017,209.017,252.45,208.75z"/>
			</g>
		</g>
		<g>
			<g>
				<path style="fill-rule:evenodd;clip-rule:evenodd;fill:#6C7274;" d="M243.75,191.15c1.033-1.4,2.217-1.65,3.55-0.75
					c1.3,0.866,1.283,1.883-0.05,3.05c-1.066,0.934-2.1,1-3.1,0.2C243.116,192.884,242.983,192.05,243.75,191.15z"/>
			</g>
		</g>
		<g>
			<g>
				<path style="fill-rule:evenodd;clip-rule:evenodd;fill:#6C7274;" d="M236.65,158.8c0.733-1.5,1.616-1.95,2.649-1.35
					c1.066,0.633,1.25,1.383,0.55,2.25c-0.533,0.899-1.267,1.2-2.199,0.899C236.717,160.3,236.384,159.7,236.65,158.8z"/>
			</g>
		</g>
		<g>
			<g>
				<path style="fill-rule:evenodd;clip-rule:evenodd;fill:#6C7274;" d="M242.1,135.7c-0.866-0.9-1.017-1.816-0.449-2.75
					c1-1.533,2.199-1.867,3.6-1c1.4,0.833,1.533,1.899,0.4,3.2C244.217,136.483,243.033,136.667,242.1,135.7z"/>
			</g>
		</g>
		<g>
			<g>
				<path style="fill-rule:evenodd;clip-rule:evenodd;fill:#6C7274;" d="M201.35,169.3c0.334-0.467,0.7-0.566,1.101-0.3
					c0.399,0.267,0.416,0.583,0.05,0.95c-0.333,0.333-0.65,0.383-0.95,0.149C201.217,169.866,201.15,169.6,201.35,169.3z"/>
			</g>
		</g>
		<g>
			<g>
				<path style="fill-rule:evenodd;clip-rule:evenodd;fill:#6C7274;" d="M207.1,117.75c0.7,0.7,1.051,1.517,1.051,2.45
					c0,1-0.434,1.767-1.301,2.3c-1.899,1.566-3.6,1.65-5.1,0.25c-1.467-1.367-1.65-2.733-0.55-4.1
					C203.366,116.217,205.333,115.917,207.1,117.75z"/>
			</g>
		</g>
		<g>
			<g>
				<path style="fill-rule:evenodd;clip-rule:evenodd;fill:#6C7274;" d="M162.45,137.55c0.399,0.233,0.467,0.533,0.2,0.9
					c-0.601,0.467-0.967,0.517-1.101,0.149c0-0.466-0.033-0.716-0.1-0.75C161.684,137.417,162.017,137.316,162.45,137.55z"/>
			</g>
		</g>
		<g>
			<g>
				<path style="fill-rule:evenodd;clip-rule:evenodd;fill:#6C7274;" d="M140.05,110.8c1.934-1.966,3.816-2.133,5.65-0.5
					c0.733,0.633,1.083,1.367,1.05,2.2c-0.066,0.967-0.616,1.8-1.65,2.5c-1.866,1.233-3.5,1.167-4.899-0.2
					C138.8,113.4,138.75,112.067,140.05,110.8z"/>
			</g>
		</g>
		<g>
			<g>
				<path style="fill-rule:evenodd;clip-rule:evenodd;fill:#6C7274;" d="M120.55,79.65c-0.466-0.6-0.5-1.117-0.1-1.55
					c0.333-0.667,0.966-0.867,1.9-0.6c0.933,0.267,1.05,0.917,0.35,1.95C121.767,80.217,121.05,80.283,120.55,79.65z"/>
			</g>
		</g>
		<g>
			<g>
				<path style="fill-rule:evenodd;clip-rule:evenodd;fill:#6C7274;" d="M122.55,100.4c0.567-0.633,1.333-0.617,2.3,0.05
					c0.933,0.633,0.833,1.4-0.3,2.3c-1.5,0.533-2.333,0.35-2.5-0.55C121.85,101.333,122.017,100.733,122.55,100.4z"/>
			</g>
		</g>
		<g>
			<g>
				<path style="fill-rule:evenodd;clip-rule:evenodd;fill:#6C7274;" d="M189.05,78.05c1.334-0.267,2.134,0.167,2.4,1.3
					c0.267,1.167-0.233,1.75-1.5,1.75c-1.167,0-1.816-0.467-1.95-1.4C187.866,78.767,188.217,78.217,189.05,78.05z"/>
			</g>
		</g>
		<g>
			<g>
				<path style="fill-rule:evenodd;clip-rule:evenodd;fill:#6C7274;" d="M190.95,107c0.399-0.067,0.767-0.017,1.1,0.15
					c0.233,0.133,0.65,0.383,1.25,0.75c0.566,0.233,0.8,0.684,0.7,1.35c-0.134,0.733-0.767,1.217-1.9,1.45
					c-1.933-0.1-2.816-0.75-2.649-1.95C189.616,107.55,190.116,106.967,190.95,107z"/>
			</g>
		</g>
		<g>
			<g>
				<path style="fill-rule:evenodd;clip-rule:evenodd;fill:#6C7274;" d="M137.85,57.8c1.133-0.1,1.833,0.417,2.1,1.55
					c0.233,1.167-0.334,1.733-1.7,1.7c-1.333-0.3-1.933-0.917-1.8-1.85C136.583,58.3,137.05,57.833,137.85,57.8z"/>
			</g>
		</g>
		<g>
			<g>
				<path style="fill-rule:evenodd;clip-rule:evenodd;fill:#6C7274;" d="M176.5,64.8c1.033-0.4,1.667-0.2,1.9,0.6
					c0.233,0.833-0.034,1.317-0.801,1.45c-0.933,0.167-1.466-0.067-1.6-0.7C175.9,65.55,176.066,65.1,176.5,64.8z"/>
			</g>
		</g>
		<g>
			<g>
				<path style="fill-rule:evenodd;clip-rule:evenodd;fill:#6C7274;" d="M102.7,48.05c0.933-0.1,1.517,0.35,1.75,1.35
					c0.2,1-0.284,1.483-1.45,1.45c-1.267-0.333-1.783-0.9-1.55-1.7C101.65,48.417,102.067,48.05,102.7,48.05z"/>
			</g>
		</g>
		<g>
			<g>
				<path style="fill-rule:evenodd;clip-rule:evenodd;fill:#6C7274;" d="M118.25,152.25c0.767-0.233,1.483,0.15,2.15,1.15
					c0.667,0.966,0.2,1.666-1.4,2.1c-1.467-0.233-2.133-0.833-2-1.8C117.1,152.8,117.517,152.316,118.25,152.25z"/>
			</g>
		</g>
		<g>
			<g>
				<path style="fill-rule:evenodd;clip-rule:evenodd;fill:#6C7274;" d="M123.6,135c0.833-0.533,1.583-0.4,2.25,0.4
					c0.7,0.833,0.5,1.517-0.6,2.05c-1.3,0.333-2.05,0.083-2.25-0.75C122.867,135.9,123.067,135.333,123.6,135z"/>
			</g>
		</g>
		<g>
			<g>
				<path style="fill-rule:evenodd;clip-rule:evenodd;fill:#6C7274;" d="M97.45,130.3c1.066-0.666,1.716-0.633,1.95,0.101
					c0.267,0.833,0.117,1.267-0.45,1.3c-0.434,0.3-0.9,0.267-1.4-0.101C97.05,131.233,97.017,130.8,97.45,130.3z"/>
			</g>
		</g>
		<g>
			<g>
				<path style="fill-rule:evenodd;clip-rule:evenodd;fill:#6C7274;" d="M59.4,135.5c0.667-1.267,1.467-1.616,2.4-1.05
					c0.967,0.6,1.067,1.283,0.3,2.05c-0.467,0.7-1.133,0.9-2,0.6C59.267,136.833,59.033,136.3,59.4,135.5z"/>
			</g>
		</g>
		<g>
			<g>
				<path style="fill-rule:evenodd;clip-rule:evenodd;fill:#6C7274;" d="M74.7,81.45c0.8-0.867,1.833-0.883,3.1-0.05
					c1.267,0.867,1.15,1.9-0.35,3.1c-1.967,0.767-3.1,0.533-3.4-0.7C73.783,82.533,74,81.75,74.7,81.45z"/>
			</g>
		</g>
		<g>
			<g>
				<path style="fill-rule:evenodd;clip-rule:evenodd;fill:#6C7274;" d="M71.05,110.75c0.534-0.633,1.15-0.717,1.85-0.25
					c0.667,0.433,0.667,0.983,0,1.65c-0.833,0.533-1.45,0.533-1.85,0C70.65,111.617,70.65,111.15,71.05,110.75z"/>
			</g>
		</g>
		<g>
			<g>
				<path style="fill-rule:evenodd;clip-rule:evenodd;fill:#6C7274;" d="M73.45,54.4c0.566-0.133,0.9,0.05,1,0.55
					c0.133,0.5-0.067,0.75-0.6,0.75c-0.5,0-0.783-0.2-0.85-0.6S73.083,54.467,73.45,54.4z"/>
			</g>
		</g>
		<g>
			<g>
				<path style="fill-rule:evenodd;clip-rule:evenodd;fill:#6C7274;" d="M134.45,219.05c0.867-0.267,1.683,0.167,2.45,1.3
					c0.767,1.134,0.217,1.917-1.65,2.351c-1.667-0.233-2.433-0.9-2.3-2C133.117,219.667,133.617,219.116,134.45,219.05z"/>
			</g>
		</g>
		<g>
			<g>
				<path style="fill-rule:evenodd;clip-rule:evenodd;fill:#6C7274;" d="M161.05,228.15c-0.434-0.601-0.333-1.084,0.3-1.45
					c0.667-0.467,1.351-0.384,2.051,0.25c0.733,0.6,0.517,1.184-0.65,1.75C162.017,228.934,161.45,228.75,161.05,228.15z"/>
			</g>
		</g>
		<g>
			<g>
				<path style="fill-rule:evenodd;clip-rule:evenodd;fill:#6C7274;" d="M83.65,202.6c0.667-0.1,1.1,0.334,1.3,1.301
					c0.2,0.933-0.3,1.35-1.5,1.25c-0.633-0.034-1.083-0.384-1.35-1.051c-0.267-0.666-0.184-1.017,0.25-1.05
					c0.267,0.101,0.533,0.066,0.8-0.1L83.65,202.6z"/>
			</g>
		</g>
		<g>
			<g>
				<path style="fill-rule:evenodd;clip-rule:evenodd;fill:#6C7274;" d="M102.65,211.4c0.367-0.367,1.1-0.351,2.2,0.05
					c1.133,0.434,1.066,1.283-0.2,2.55c-1.566,0.4-2.45,0.134-2.65-0.8C101.833,212.333,102.05,211.733,102.65,211.4z"/>
			</g>
		</g>
		<g>
			<g>
				<path style="fill-rule:evenodd;clip-rule:evenodd;fill:#6C7274;" d="M85.9,126.75c1.167-0.434,1.85-0.217,2.05,0.65
					c0.233,0.899-0.067,1.35-0.9,1.35c-0.6,0.2-1.1,0-1.5-0.6C85.15,127.55,85.267,127.083,85.9,126.75z"/>
			</g>
		</g>
		<g>
			<g>
				<path style="fill-rule:evenodd;clip-rule:evenodd;fill:#54585B;" d="M24.05,124.65c1.067-1.034,2-1.101,2.8-0.2
					c0.8,0.899,0.717,1.666-0.25,2.3c-1.1,0.733-1.95,0.717-2.55-0.05C23.517,125.934,23.517,125.25,24.05,124.65z"/>
			</g>
		</g>
		<g>
			<g>
				<path style="fill-rule:evenodd;clip-rule:evenodd;fill:#54585B;" d="M26.15,144.05c0.667-0.633,1.417-0.666,2.25-0.1
					c0.8,0.566,0.7,1.217-0.3,1.95c-0.9,0.466-1.583,0.383-2.05-0.25C25.583,145.017,25.617,144.483,26.15,144.05z"/>
			</g>
		</g>
		<g>
			<g>
				<path style="fill-rule:evenodd;clip-rule:evenodd;fill:#54585B;" d="M47.9,194c0.767-0.634,1.75-0.5,2.95,0.4
					c1.167,0.866,0.917,1.85-0.75,2.949c-1.833,0.434-2.867,0.067-3.1-1.1C46.8,195.15,47.1,194.4,47.9,194z"/>
			</g>
		</g>
		<g>
			<g>
				<path style="fill-rule:evenodd;clip-rule:evenodd;fill:#54585B;" d="M58.05,166.75c0.534-0.634,1.15-0.717,1.85-0.25
					c0.667,0.434,0.667,0.983,0,1.65c-0.833,0.533-1.45,0.533-1.85,0C57.65,167.616,57.65,167.15,58.05,166.75z"/>
			</g>
		</g>
		<g>
			<g>
				<path style="fill-rule:evenodd;clip-rule:evenodd;fill:#54585B;" d="M101.1,188.1c0.7-1,1.467-1.216,2.3-0.649
					c0.833,0.566,0.817,1.184-0.05,1.85c-0.4,0.467-0.983,0.566-1.75,0.3S100.667,188.833,101.1,188.1z"/>
			</g>
		</g>
		<g>
			<g>
				<path style="fill-rule:evenodd;clip-rule:evenodd;fill:#54585B;" d="M37.65,96.85c1.067-1.167,1.967-1.317,2.7-0.45
					c0.767,0.9,0.667,1.583-0.3,2.05c-0.466,0.433-1.117,0.483-1.95,0.15C37.267,98.267,37.117,97.683,37.65,96.85z"/>
			</g>
		</g>
		<g>
			<g>
				<path style="fill-rule:evenodd;clip-rule:evenodd;fill:#54585B;" d="M57.6,97.6c0.7-1,1.467-1.217,2.3-0.65
					c0.833,0.566,0.817,1.183-0.05,1.85c-0.4,0.467-0.983,0.567-1.75,0.3S57.167,98.333,57.6,97.6z"/>
			</g>
		</g>
		<g>
			<g>
				<path style="fill-rule:evenodd;clip-rule:evenodd;fill:#54585B;" d="M35.3,61.45c0.467-0.667,1-0.817,1.6-0.45
					s0.633,0.817,0.1,1.35c-0.5,0.5-0.983,0.583-1.45,0.25C35.083,62.267,35,61.883,35.3,61.45z"/>
			</g>
		</g>
		<g>
			<g>
				<path style="fill-rule:evenodd;clip-rule:evenodd;fill:#54585B;" d="M71.8,42.45c0.934-1.434,1.784-1.767,2.55-1
					c0.8,0.833,0.867,1.483,0.2,1.95c-0.466,0.733-1.117,0.967-1.95,0.7C71.767,43.833,71.5,43.283,71.8,42.45z"/>
			</g>
		</g>
		<g>
			<path style="fill-rule:evenodd;clip-rule:evenodd;fill:#839295;" d="M166.05,68.2c-1.267,0.533-2.767,0.95-4.5,1.25
				c-3.399,0.6-6.149,0.367-8.25-0.7c-2.133-1.067-3.684-2.233-4.649-3.5L147.8,63.7c0.066-0.667,0.217-1.483,0.45-2.45
				c0.434-1.933,1.033-3.7,1.8-5.3c2.434-5.034,5.934-7.267,10.5-6.7c4.434,0.533,6.684,3.85,6.75,9.95
				C167.333,62.267,166.917,65.267,166.05,68.2z"/>
			<path style="fill-rule:evenodd;clip-rule:evenodd;fill:#ABB4B7;" d="M166.5,23.85c-0.767,1.066-2.4,1.816-4.9,2.25
				c-2.333,0.433-3.583,0.883-3.75,1.35c-0.166,0.5,0.9,1.883,3.2,4.15c2.367,2.333,3.517,4.066,3.45,5.2
				c-0.134,2.1-1.184,6.95-3.15,14.55c-0.199,0.2-0.466,0.3-0.8,0.3c-0.633,0.033-1.217-0.367-1.75-1.2
				c1.434-6.233,2.5-10.65,3.2-13.25c0.366-1.333-0.75-3.1-3.35-5.3c-2.634-2.2-3.801-3.883-3.5-5.05
				c0.3-1.267,1.816-2.05,4.55-2.35c2.8-0.3,4.366-0.85,4.7-1.65c0.466-1.067-0.617-4.083-3.25-9.05l-4.101-7.1l2.15-0.55l4.399,7.8
				C166.4,19.35,167.366,22.65,166.5,23.85z"/>
			<path style="fill-rule:evenodd;clip-rule:evenodd;fill:#839295;" d="M162.4,2.85c0.5,1.2,0.483,2.35-0.051,3.45
				c-0.566,1.2-1.649,2.017-3.25,2.45c-3.133,0.833-5.05-0.083-5.75-2.75c-0.699-2.6,0-4.383,2.101-5.35
				c1.633-0.733,3.116-0.833,4.45-0.3C161.066,0.817,161.9,1.65,162.4,2.85z"/>
			<g>
				<path style="fill-rule:evenodd;clip-rule:evenodd;fill:#515D5F;" d="M156.35,49.65h0.15l-1.95,3.4
					c-1.366,2.733-2.283,5.284-2.75,7.65c-0.467,2.566,0.217,4.566,2.05,6c1.334,1.066,3.067,1.716,5.2,1.95
					c2.134,0.2,4.467,0.05,7-0.45c-1.267,0.533-2.767,0.95-4.5,1.25c-3.399,0.6-6.149,0.367-8.25-0.7
					c-2.133-1.067-3.684-2.233-4.649-3.5L147.8,63.7c0.233-1.934,0.75-3.967,1.55-6.1C150.983,53.333,153.316,50.683,156.35,49.65z"
					/>
			</g>
			<path style="fill-rule:evenodd;clip-rule:evenodd;fill:#97A4A7;" d="M162.9,52.85c1.767,0.9,2.767,3.117,3,6.65
				c0.233,3.333-0.017,5.1-0.75,5.3c-0.4,0.1-1.101,0.117-2.101,0.05l-1.399-0.15c0.399-1.034,0.833-2.483,1.3-4.35
				c0.233-0.934,0.184-2.583-0.15-4.95C162.533,53.533,162.566,52.683,162.9,52.85z"/>
			<g>
				<path style="fill-rule:evenodd;clip-rule:evenodd;fill:#515D5F;" d="M164.4,22.85c0.399-0.934-0.351-3.317-2.25-7.15
					c-1.301-2.6-2.801-5.25-4.5-7.95l0.8-0.5l2.35,4.2c1.634,2.966,2.667,4.966,3.101,6c0.566,1.4,0.933,2.383,1.1,2.95
					c0.267,0.833,0.417,1.684,0.45,2.55c0.066,0.8-0.851,1.4-2.75,1.8c-2.2,0.333-3.601,0.567-4.2,0.7c-1.066,0.3-1.733,0.6-2,0.9
					c-0.4,0.433-0.434,1.1-0.1,2c0.199,0.467,1.416,1.717,3.649,3.75c2.033,1.8,3.033,3.2,3,4.2c-0.033,0.4-1.217,5.4-3.55,15
					c-0.233-0.167-0.467-0.45-0.7-0.85c1.434-6.233,2.5-10.65,3.2-13.25c0.366-1.333-0.75-3.1-3.35-5.3
					c-2.634-2.2-3.801-3.883-3.5-5.05c0.3-1.267,1.816-2.05,4.55-2.35C162.5,24.2,164.066,23.65,164.4,22.85z"/>
			</g>
			<g>
				<path style="fill-rule:evenodd;clip-rule:evenodd;fill:#515D5F;" d="M162.6,5.35l0.101-0.1c-0.3,1.767-1.5,2.933-3.601,3.5
					c-3.133,0.833-5.05-0.083-5.75-2.75c-0.699-2.6,0-4.383,2.101-5.35c0.5-0.2,0.934-0.35,1.3-0.45c-1.267,1.4-1.684,2.8-1.25,4.2
					c0.4,1.3,1.45,2.117,3.15,2.45C160.417,7.217,161.733,6.717,162.6,5.35z"/>
			</g>
			<path style="fill-rule:evenodd;clip-rule:evenodd;fill:#C8CFD1;" d="M158.65,1.5c0.533-0.267,1.1,0.067,1.699,1
				c0.634,0.9,0.65,1.483,0.051,1.75c-0.601,0.267-1.15-0.067-1.65-1S158.217,1.733,158.65,1.5z"/>
			<path style="fill-rule:evenodd;clip-rule:evenodd;fill:#C8CFD1;" d="M164.35,55.45c0.367-0.034,0.667,1.133,0.9,3.5
				c0.267,2.333,0.167,3.533-0.3,3.6c-0.467,0.067-0.783-1.083-0.95-3.45C163.866,56.7,163.983,55.483,164.35,55.45z"/>
			<path style="fill-rule:evenodd;clip-rule:evenodd;fill:#C8CFD1;" d="M163,42.75c-0.167,1.133-0.767,3.5-1.8,7.1l-0.75,0.1
				c1.934-8.034,2.967-12.467,3.1-13.3c0.101-0.533-0.184-1.283-0.85-2.25c-0.566-0.8-1.117-1.417-1.65-1.85
				c-0.366-0.267-0.983-0.883-1.85-1.85l-1.2-1.4l2.7,2.35c1.833,1.7,2.866,2.983,3.1,3.85s0.2,2.117-0.1,3.75
				C163.566,40.15,163.333,41.317,163,42.75z"/>
			<path style="fill-rule:evenodd;clip-rule:evenodd;fill:#C8CFD1;" d="M162.65,13.3c1.466,2.434,2.316,4,2.55,4.7
				c0.399,1.1,0.583,2.25,0.55,3.45c-0.233-1.167-0.533-2.2-0.9-3.1c-0.199-0.567-0.983-2.15-2.35-4.75l-1.95-3.75L162.65,13.3z"/>
		</g>
	</g>
	<polygon style="fill-rule:evenodd;clip-rule:evenodd;fill:#515D5F;" points="15.55,80.05 26.5,85.55 42.25,87.55 27,87.55 
		18.5,85.05 	"/>
</g>
</svg>
