<?xml version="1.0" encoding="iso-8859-1"?>
<!-- Generator: Adobe Illustrator 15.1.0, SVG Export Plug-In . SVG Version: 6.00 Build 0)  -->
<!DOCTYPE svg PUBLIC "-//W3C//DTD SVG 1.1//EN" "http://www.w3.org/Graphics/SVG/1.1/DTD/svg11.dtd">
<svg version="1.1" id="buildings_1" xmlns="http://www.w3.org/2000/svg" xmlns:xlink="http://www.w3.org/1999/xlink" x="0px"
	 y="0px" width="221.1px" height="272.35px" viewBox="0 0 221.1 272.35" style="enable-background:new 0 0 221.1 272.35;"
	 xml:space="preserve">
<g>
	<path style="fill-rule:evenodd;clip-rule:evenodd;fill:#839295;" d="M81.95,67.65c-5.934,0.867-9.833,0.733-11.7-0.4
		c0.2-2,0.7-4.033,1.5-6.1c1.6-4.167,3.85-6.467,6.75-6.9c3.767-0.533,6.85,1.267,9.25,5.4c1.2,2.067,2.033,4.184,2.5,6.35
		C87.683,66.667,84.917,67.217,81.95,67.65z"/>
	<path style="fill-rule:evenodd;clip-rule:evenodd;fill:#515D5F;" d="M73.8,61.4c0.034,1.1,0.617,2.133,1.75,3.1
		c0.567,0.5,1.133,0.883,1.7,1.15l-7,1.6c0.167-1.533,0.533-3.2,1.1-5c1.167-3.567,2.783-5.967,4.85-7.2
		C74.567,57.717,73.767,59.833,73.8,61.4z"/>
	<g>
		
			<linearGradient id="SVGID_1_" gradientUnits="userSpaceOnUse" x1="-29.5522" y1="-191.957" x2="182.7486" y2="-191.957" gradientTransform="matrix(-0.5592 0.829 -0.829 -0.5592 1.640320e-004 -2.038479e-004)">
			<stop  offset="0.0078" style="stop-color:#B5BDBF"/>
			<stop  offset="1" style="stop-color:#99A5A8"/>
		</linearGradient>
		<path style="fill-rule:evenodd;clip-rule:evenodd;fill:url(#SVGID_1_);" d="M221.1,189.95l-4.149,44.45L199.85,256.85l-22.5-3.1
			l-22.55,10.9l-20.95-3.551L71.8,272.35l-21.95-15.6c-2.733-0.434-5.55-0.866-8.45-1.3c-5.733-0.867-8.917-1.3-9.55-1.3
			c-1,0-3.317-3.167-6.95-9.5L7.45,232.05L0,215.55l6.6-22.5l-4.9-26l21.7-40.9l-2.9-26.05l46.15-38.3l42,0.15l40.05-11.8l28.8,43.6
			l-0.2,56.5L221.1,189.95z"/>
		<g>
			<path style="fill-rule:evenodd;clip-rule:evenodd;fill:#839295;" d="M66.65,61.8L66,71.45c-0.1,6.833,0.75,11.283,2.55,13.35
				c1.8,2.1,5,2.684,9.6,1.75c2.333-0.433,4.467-1.1,6.4-2l-3.75,23l6.95,9.35l-6.15,43.95l24.3,0.801l1.25,18.649l15.65,10.4
				l-1.85,44.3l3.95-0.7c2.833-0.133,4.733,0.566,5.699,2.101c0.967,1.533,1.134,4.1,0.5,7.699c-0.3,1.801-0.699,3.45-1.199,4.95
				l3.949,12.05L71.8,272.35l-21.95-15.6c-2.733-0.434-5.55-0.866-8.45-1.3c-5.733-0.867-8.917-1.3-9.55-1.3
				c-1,0-3.317-3.167-6.95-9.5L7.45,232.05L0,215.55l6.6-22.5l-4.9-26l21.7-40.9l-2.9-26.05L66.65,61.8z"/>
		</g>
		<path style="fill-rule:evenodd;clip-rule:evenodd;fill:#6C7D80;" d="M42.35,210.45c0.066,1.633-0.15,3.166-0.65,4.6L36.35,215
			c0.333-0.767,0.55-1.65,0.65-2.65c0.167-2-0.367-3.55-1.6-4.649c-1.233-1.134-3.383-2.15-6.45-3.05l-4.2-1l4.15-0.4
			c3.333-0.1,6.383,0.267,9.15,1.1C40.817,205.217,42.25,207.25,42.35,210.45z"/>
		<path style="fill-rule:evenodd;clip-rule:evenodd;fill:#839295;" d="M154.05,211.85l16.65-2.949l11.6,14.699l15.351-4.6l13.8-22.6
			L205,225.7l8.3,5.35l-13.45,20.3c-0.699-0.833-1.5-1.633-2.399-2.399c-1.767-1.566-3.066-2.217-3.9-1.95
			c-0.434,0.134-1.149,1.017-2.149,2.65c-0.867,1.366-1.934,1.916-3.2,1.649c-2.434-0.8-4.334-1.383-5.7-1.75
			c-2.467-0.733-4.45-0.833-5.95-0.3c-1.533,0.533-5.6,2.517-12.2,5.95c-3.333,1.7-6.5,3.35-9.5,4.95
			c2.934-13.534,4.634-22.184,5.101-25.95c0.3-2.367-0.601-6.8-2.7-13.3L154.05,211.85z"/>
		<path style="fill-rule:evenodd;clip-rule:evenodd;fill:#839295;" d="M164.6,110.05c1.967-2.033,3.817-4.083,5.551-6.15
			l-4.101,17.65l-19-0.4l-7.7,10.6l-1.3-8.65l-19.649,4.25l-3.351,6.8c-2.267,4.767-3.399,7.716-3.399,8.85
			c0,1.1,1.833,1.884,5.5,2.35c1.833,0.233,3.666,0.351,5.5,0.351L97.6,153.6l14.5-35.6l15,1.4l2.65-7.35l22.05-4.25l1.351,4.2
			c1.166,2.767,2.366,4.15,3.6,4.15C158.017,116.183,160.634,114.15,164.6,110.05z"/>
		<polygon style="fill-rule:evenodd;clip-rule:evenodd;fill:#6C7D80;" points="85.15,186.2 101.15,182.6 105.1,199.3 99.75,201.25 
			99.05,210.25 88.4,207.25 85.6,240.2 80.25,237.2 		"/>
		<path style="fill-rule:evenodd;clip-rule:evenodd;fill:#6C7D80;" d="M66.65,61.8l-10.8,33.95l12.25,19.4l7.5,34.7l-6.7,9.301
			l0.6,22l-2.1,24l3.25,21.35l-4.05,6.95L55.95,228.1l-7.4,20.301l-4-2l3.7-7.351l-7.3-2l0.7-9l4.3-1.649
			c0.466-3.233,0.883-6.65,1.25-10.25c0.767-7.233,0.95-11.817,0.55-13.75c-0.4-1.967-3.683-3.284-9.85-3.95L28.75,198l-6.55-29.7
			l-6-3.35l4.25,23l-2.1,25.3l19.3,6.1L35.8,234.2c-0.966,10.066-0.833,15.45,0.4,16.149c2,1.101,6.783,2.334,14.35,3.7l9.95,3.75
			l6.4-15l-1.05,17l9.65,7.351l58-7.4l21.35,2.75l22.7-11.25l2.351,0.3c1.767,0.3,3.199,0.65,4.3,1.05
			c1.1,0.434,3.316,0.017,6.649-1.25c1.7-0.6,3.267-1.267,4.7-2l0.55,1.801c0.467,1.267,1.051,2.1,1.75,2.5
			c0.7,0.433,4.101-2.65,10.2-9.25c3.033-3.267,6-6.601,8.9-10L199.85,256.85l-22.5-3.1l-22.55,10.9l-20.95-3.551L71.8,272.35
			l-21.95-15.6c-2.733-0.434-5.55-0.866-8.45-1.3c-5.733-0.867-8.917-1.3-9.55-1.3c-1,0-3.317-3.167-6.95-9.5L7.45,232.05L0,215.55
			l6.6-22.5l-4.9-26l21.7-40.9l-2.9-26.05L66.65,61.8z"/>
		<polygon style="fill-rule:evenodd;clip-rule:evenodd;fill:#C8CFD1;" points="156.9,78.5 149.25,79.15 151.95,74.15 140,62.45 
			115.65,63 147,54.45 173.85,93.9 		"/>
		<path style="fill-rule:evenodd;clip-rule:evenodd;fill:#C8CFD1;" d="M96.6,72.6l-4,3l-13.35-0.1l-5.7,7.65
			c-0.5-0.167-1.017-0.45-1.55-0.85c-1.033-0.767-1.617-1.7-1.75-2.8c-0.133-1.133-0.233-3.867-0.3-8.2v-6.15l46.35,3.2l12,2.05
			L96.6,72.6z"/>
		<polygon style="fill-rule:evenodd;clip-rule:evenodd;fill:#B8C2C4;" points="171.25,161.25 164.25,164.55 155.25,160.85 
			133.9,164.75 123.25,160.35 174.95,155.9 212.15,187.4 208.45,187.4 		"/>
		<polygon style="fill-rule:evenodd;clip-rule:evenodd;fill:#B8C2C4;" points="166.15,186.9 155.8,183.5 124.8,189.35 
			110.15,179.65 159.5,176.5 181.5,182.95 		"/>
		<polygon style="fill-rule:evenodd;clip-rule:evenodd;fill:#C8CFD1;" points="133.75,93.35 139.25,96.85 154,97.9 85.2,105.4 
			89,92.15 99.5,99.95 		"/>
		<path style="fill-rule:evenodd;clip-rule:evenodd;fill:#97A4A7;" d="M104.45,111.7c-0.3,0.1-2.517,7.783-6.65,23.05
			c-2.033,7.667-4.05,15.3-6.05,22.9l-6.25-2.75l6.45-41l-7-5.75l80.8-8.2L104.45,111.7z"/>
		<polygon style="fill-rule:evenodd;clip-rule:evenodd;fill:#97A4A7;" points="175.45,196.6 176.45,189.9 184.4,209.95 
			189.05,211.95 196.8,189 202.1,190.7 192.7,215.65 183,215.6 		"/>
		<path style="fill-rule:evenodd;clip-rule:evenodd;fill:#97A4A7;" d="M179.8,184.95l-0.7,13l-3.649-1.351l-13.05,1.95l-10.65-3.399
			L139,225.75c3.733,4.7,5.6,7.384,5.6,8.05c0,0.434-0.5,3.667-1.5,9.7c-0.533,3.033-1.05,6.017-1.55,8.95l-4-2l2.05-18
			l-11.949-2.75l3.1-35.65l24.05-7.55l9,3.05L179.8,184.95z"/>
		<path style="fill-rule:evenodd;clip-rule:evenodd;fill:#515D5F;" d="M41.4,124.7c1.8,0.833,4.067,0.65,6.8-0.55
			c1.367-0.6,2.55-1.283,3.55-2.05l-2.05,6.95l-14.3-3.35l-1.3-12.35l2,4.95C37.833,121.733,39.6,123.867,41.4,124.7z"/>
		<path style="fill-rule:evenodd;clip-rule:evenodd;fill:#515D5F;" d="M33.2,168.65c1.3,11.133,2.383,17.033,3.25,17.699
			c0.566,0.434,1.85,0.351,3.85-0.25c1-0.3,1.95-0.649,2.85-1.05l-3.05,5.3L33.8,187L33.2,168.65z"/>
		<path style="fill-rule:evenodd;clip-rule:evenodd;fill:#515D5F;" d="M10.7,215.6c0.267,0.434,4.167,1.733,11.7,3.9
			c3.8,1.1,7.55,2.15,11.25,3.15L32.9,250c-2.2-6.233-4.3-10.917-6.3-14.05c-1.233-1.934-2.883-2.9-4.95-2.9l-2.7,0.55L17,223.95
			l-15.3-8.4L10.7,215.6z"/>
		<polygon style="fill-rule:evenodd;clip-rule:evenodd;fill:#515D5F;" points="91.25,242.9 96.6,233.95 118.55,244.35 119.2,254 
			112.5,255.3 111.9,245 100.25,244.6 		"/>
		<g>
			<g>
				<path style="fill-rule:evenodd;clip-rule:evenodd;fill:#6C7274;" d="M165.1,136.55c1.4,1.267,1.351,2.483-0.149,3.65
					c-1.601,1.233-2.917,1.283-3.95,0.149c-1.033-1.1-1.134-2.149-0.3-3.149C162.233,135.467,163.7,135.25,165.1,136.55z"/>
			</g>
		</g>
		<g>
			<g>
				<path style="fill-rule:evenodd;clip-rule:evenodd;fill:#6C7274;" d="M136.45,172.5c0.967-0.2,1.533,0.116,1.7,0.95
					c0.199,0.833-0.15,1.25-1.051,1.25c-0.833,0-1.3-0.334-1.399-1C135.6,173.033,135.85,172.634,136.45,172.5z"/>
			</g>
		</g>
		<g>
			<g>
				<path style="fill-rule:evenodd;clip-rule:evenodd;fill:#6C7274;" d="M191.15,190.4c0.399-0.233,0.866-0.117,1.399,0.35
					c0.566,0.434,0.384,0.9-0.55,1.4c-0.8,0.066-1.25-0.184-1.35-0.75C190.55,190.866,190.717,190.533,191.15,190.4z"/>
			</g>
		</g>
		<g>
			<g>
				<path style="fill-rule:evenodd;clip-rule:evenodd;fill:#6C7274;" d="M215.25,208.4c0.967-0.067,1.55,0.383,1.75,1.35
					c0.233,1-0.25,1.483-1.45,1.45c-1.267-0.3-1.783-0.851-1.55-1.65C214.2,208.783,214.616,208.4,215.25,208.4z"/>
			</g>
		</g>
		<g>
			<g>
				<path style="fill-rule:evenodd;clip-rule:evenodd;fill:#6C7274;" d="M212.3,190.9c2.134-0.834,3.684-0.25,4.65,1.75
					c1,1.966,0.283,3.233-2.15,3.8c-2.467,0.267-3.85-0.483-4.149-2.25C210.35,192.5,210.9,191.4,212.3,190.9z"/>
			</g>
		</g>
		<g>
			<g>
				<path style="fill-rule:evenodd;clip-rule:evenodd;fill:#6C7274;" d="M193.2,235.2c0.333-0.267,0.733-0.084,1.2,0.55
					c0.433,0.566,0.183,1-0.75,1.3c-1.134-0.233-1.551-0.616-1.25-1.149L193.2,235.2z"/>
			</g>
		</g>
		<g>
			<g>
				<path style="fill-rule:evenodd;clip-rule:evenodd;fill:#6C7274;" d="M153.35,236.35c1.134-0.233,1.817,0.15,2.051,1.15
					c0.199,1-0.233,1.5-1.301,1.5c-1,0-1.55-0.4-1.649-1.2C152.35,237,152.65,236.517,153.35,236.35z"/>
			</g>
		</g>
		<g>
			<g>
				<path style="fill-rule:evenodd;clip-rule:evenodd;fill:#6C7274;" d="M131.55,221.75c0.767-0.033,1.233,0.366,1.4,1.2
					c0.166,0.833-0.25,1.217-1.25,1.149c-1.033-0.3-1.45-0.783-1.25-1.449C130.65,222.05,131.017,221.75,131.55,221.75z"/>
			</g>
		</g>
		<g>
			<g>
				<path style="fill-rule:evenodd;clip-rule:evenodd;fill:#6C7274;" d="M134.45,252.7c0.8-0.367,1.267-0.267,1.399,0.3
					c0.167,0.6-0.017,0.884-0.55,0.85c-0.233,0.167-0.517,0.101-0.85-0.199C134.083,253.316,134.083,253,134.45,252.7z"/>
			</g>
		</g>
		<g>
			<g>
				<path style="fill-rule:evenodd;clip-rule:evenodd;fill:#6C7274;" d="M117.5,164.45c0.667,0,1.066,0.483,1.2,1.45
					c0.166,0.899-0.351,1.233-1.55,1c-1.101-0.567-1.434-1.167-1-1.801C116.55,164.5,117,164.283,117.5,164.45z"/>
			</g>
		</g>
		<g>
			<g>
				<path style="fill-rule:evenodd;clip-rule:evenodd;fill:#6C7274;" d="M105.85,112.95c1,0.267,1.367,0.883,1.1,1.85
					c-0.233,0.967-0.833,1.2-1.8,0.7c-0.967-0.633-1.217-1.283-0.75-1.95C104.8,112.95,105.283,112.75,105.85,112.95z"/>
			</g>
		</g>
		<g>
			<g>
				<path style="fill-rule:evenodd;clip-rule:evenodd;fill:#6C7274;" d="M95.25,124.95c1.3,0.2,1.85,0.8,1.65,1.8
					c-0.2,1.033-0.767,1.4-1.7,1.1c-1.133-0.4-1.583-1-1.35-1.8C94.083,125.25,94.55,124.883,95.25,124.95z"/>
			</g>
		</g>
		<g>
			<g>
				<path style="fill-rule:evenodd;clip-rule:evenodd;fill:#6C7274;" d="M155.1,126.3c0.4,0,0.65,0.267,0.75,0.8
					c0.101,0.5-0.183,0.733-0.85,0.7c-0.7-0.367-0.917-0.733-0.65-1.1C154.55,126.4,154.8,126.267,155.1,126.3z"/>
			</g>
		</g>
		<g>
			<g>
				<path style="fill-rule:evenodd;clip-rule:evenodd;fill:#6C7274;" d="M166.2,153.2c0.8-0.334,1.3-0.184,1.5,0.45
					c0.233,0.6,0.083,1-0.45,1.199c-0.866,0.167-1.35-0.017-1.45-0.55C165.7,153.833,165.833,153.467,166.2,153.2z"/>
			</g>
		</g>
		<g>
			<g>
				<path style="fill-rule:evenodd;clip-rule:evenodd;fill:#6C7274;" d="M179.95,161.55c1.767-1.166,3.133-1,4.1,0.5
					c1,1.5,0.667,2.617-1,3.351c-1.899,0.699-3.133,0.383-3.7-0.95C178.783,163.184,178.983,162.217,179.95,161.55z"/>
			</g>
		</g>
		<g>
			<g>
				<path style="fill-rule:evenodd;clip-rule:evenodd;fill:#8D9497;" d="M122.5,78.75c1.134-0.233,1.816,0.15,2.05,1.15
					c0.2,1-0.233,1.483-1.3,1.45c-1,0-1.55-0.4-1.65-1.2C121.467,79.35,121.767,78.883,122.5,78.75z"/>
			</g>
		</g>
		<g>
			<g>
				<path style="fill-rule:evenodd;clip-rule:evenodd;fill:#8D9497;" d="M103.15,88.3c0.867,0.233,1.167,0.583,0.9,1.05
					c-0.267,0.566-0.55,0.7-0.85,0.4c-0.367-0.067-0.583-0.3-0.65-0.7C102.483,88.583,102.683,88.333,103.15,88.3z"/>
			</g>
		</g>
		<g>
			<g>
				<path style="fill-rule:evenodd;clip-rule:evenodd;fill:#8D9497;" d="M163.5,93.05c0.233,1-0.2,1.5-1.3,1.5
					c-1-0.033-1.55-0.45-1.65-1.25c-0.133-0.8,0.15-1.267,0.851-1.4C162.566,91.667,163.267,92.05,163.5,93.05z"/>
			</g>
		</g>
		<g>
			<g>
				<path style="fill-rule:evenodd;clip-rule:evenodd;fill:#6C7274;" d="M173.2,101.3c1.2-0.433,1.934-0.167,2.2,0.8
					s-0.051,1.533-0.95,1.7c-1.134,0.167-1.783-0.15-1.95-0.95C172.366,102.117,172.6,101.6,173.2,101.3z"/>
			</g>
		</g>
		<g>
			<g>
				<path style="fill-rule:evenodd;clip-rule:evenodd;fill:#8D9497;" d="M125.6,65.9c0.567-0.133,0.9,0.05,1,0.55
					c0.101,0.5-0.116,0.75-0.649,0.75c-0.5,0-0.783-0.2-0.851-0.6C125.066,66.2,125.233,65.967,125.6,65.9z"/>
			</g>
		</g>
		<g>
			<g>
				<path style="fill-rule:evenodd;clip-rule:evenodd;fill:#8D9497;" d="M78.05,67.2c0.6-0.133,0.95,0.05,1.05,0.55
					s-0.117,0.75-0.65,0.75c-0.5,0-0.784-0.2-0.85-0.6C77.533,67.5,77.683,67.267,78.05,67.2z"/>
			</g>
		</g>
		<g>
			<g>
				<path style="fill-rule:evenodd;clip-rule:evenodd;fill:#8D9497;" d="M102.65,63.75c1.967-0.533,3.117-0.05,3.45,1.45
					c0.367,1.566-0.233,2.35-1.8,2.35c-1.2,0.167-2.066-0.316-2.6-1.45C101.167,64.967,101.483,64.183,102.65,63.75z"/>
			</g>
		</g>
		<g>
			<g>
				<path style="fill-rule:evenodd;clip-rule:evenodd;fill:#6C7274;" d="M68.95,97.4c1.1-0.6,2.066-0.333,2.9,0.8
					c0.867,1.1,0.517,1.95-1.05,2.55c-1.633,0.267-2.566-0.15-2.8-1.25C67.833,98.433,68.15,97.733,68.95,97.4z"/>
			</g>
		</g>
		<g>
			<g>
				<path style="fill-rule:evenodd;clip-rule:evenodd;fill:#6C7274;" d="M65.3,88.25c0.967-0.2,1.534,0.117,1.7,0.95
					c0.2,0.8-0.15,1.2-1.05,1.2c-0.833,0-1.3-0.333-1.4-1C64.45,88.733,64.7,88.35,65.3,88.25z"/>
			</g>
		</g>
		<g>
			<g>
				<path style="fill-rule:evenodd;clip-rule:evenodd;fill:#6C7274;" d="M77.7,132.3c1.433,0.167,1.983,0.633,1.65,1.4
					c-0.367,0.867-0.767,1.15-1.2,0.85c-0.767-0.033-1.2-0.4-1.3-1.1C76.75,132.75,77.033,132.367,77.7,132.3z"/>
			</g>
		</g>
		<g>
			<g>
				<path style="fill-rule:evenodd;clip-rule:evenodd;fill:#6C7274;" d="M79.65,165.8c0.533-0.066,0.883,0.25,1.05,0.95
					c0.133,0.667-0.217,0.983-1.05,0.95c-0.967-0.4-1.3-0.816-1-1.25C78.883,166.083,79.217,165.866,79.65,165.8z"/>
			</g>
		</g>
		<g>
			<g>
				<path style="fill-rule:evenodd;clip-rule:evenodd;fill:#6C7274;" d="M96.55,173c1.733-0.333,2.767,0.233,3.1,1.7
					c0.333,1.5-0.316,2.25-1.95,2.25c-1.467-0.033-2.3-0.65-2.5-1.851C95.033,173.934,95.483,173.233,96.55,173z"/>
			</g>
		</g>
		<g>
			<g>
				<path style="fill-rule:evenodd;clip-rule:evenodd;fill:#6C7274;" d="M105.9,220.2c1.133-0.233,1.817,0.133,2.05,1.1
					c0.2,1-0.233,1.5-1.3,1.5c-0.967,0-1.517-0.399-1.65-1.2C104.9,220.8,105.2,220.333,105.9,220.2z"/>
			</g>
		</g>
		<g>
			<g>
				<path style="fill-rule:evenodd;clip-rule:evenodd;fill:#6C7274;" d="M125.3,239.3c0.233-0.233,0.584-0.166,1.05,0.2
					c0.434,0.333,0.334,0.7-0.3,1.1c-0.666,0.134-1.033-0.033-1.1-0.5C124.85,239.667,124.967,239.4,125.3,239.3z"/>
			</g>
		</g>
		<g>
			<g>
				<path style="fill-rule:evenodd;clip-rule:evenodd;fill:#6C7274;" d="M90.6,256.9c1.367-0.5,2.417-0.067,3.15,1.3
					c0.733,1.366,0.183,2.233-1.65,2.6c-1.633,0.101-2.55-0.467-2.75-1.7C89.183,257.9,89.6,257.167,90.6,256.9z"/>
			</g>
		</g>
		<g>
			<g>
				<path style="fill-rule:evenodd;clip-rule:evenodd;fill:#6C7274;" d="M96.4,214.95c0.8-0.634,1.317-0.667,1.55-0.101
					c0.233,0.634,0.167,0.983-0.2,1.051c-0.4,0.333-0.8,0.35-1.2,0.05C96.183,215.684,96.133,215.35,96.4,214.95z"/>
			</g>
		</g>
		<g>
			<g>
				<path style="fill-rule:evenodd;clip-rule:evenodd;fill:#6C7274;" d="M74.65,195.35c1.333-0.267,2.133,0.167,2.4,1.301
					c0.267,1.166-0.233,1.75-1.5,1.75c-1.167,0-1.816-0.467-1.95-1.4S73.817,195.517,74.65,195.35z"/>
			</g>
		</g>
		<g>
			<g>
				<path style="fill-rule:evenodd;clip-rule:evenodd;fill:#54585B;" d="M92.65,195.1c0.767-0.066,1.25,0.334,1.45,1.2
					c0.167,0.834-0.267,1.233-1.3,1.2c-1.033-0.3-1.45-0.8-1.25-1.5C91.75,195.366,92.117,195.066,92.65,195.1z"/>
			</g>
		</g>
		<g>
			<g>
				<path style="fill-rule:evenodd;clip-rule:evenodd;fill:#6C7274;" d="M115.2,193.65c0.767-0.134,1.233,0.116,1.399,0.75
					c0.134,0.666-0.166,1-0.899,1c-0.634,0-0.983-0.267-1.05-0.801C114.55,194.033,114.733,193.717,115.2,193.65z"/>
			</g>
		</g>
		<g>
			<g>
				<path style="fill-rule:evenodd;clip-rule:evenodd;fill:#54585B;" d="M61.65,141.85c1.733-0.333,2.767,0.233,3.1,1.7
					c0.333,1.5-0.3,2.25-1.9,2.25c-1.467,0-2.3-0.6-2.5-1.8C60.15,142.8,60.583,142.083,61.65,141.85z"/>
			</g>
		</g>
		<g>
			<g>
				<path style="fill-rule:evenodd;clip-rule:evenodd;fill:#6C7274;" d="M58.95,240.75c1.367-0.467,2.183-0.184,2.45,0.85
					c0.233,1.067-0.167,1.601-1.2,1.601c-0.7,0.166-1.284-0.101-1.75-0.8C58.017,241.667,58.183,241.116,58.95,240.75z"/>
			</g>
		</g>
		<g>
			<g>
				<path style="fill-rule:evenodd;clip-rule:evenodd;fill:#6C7274;" d="M75.75,261.55c1.133-0.233,1.817,0.15,2.05,1.15
					c0.2,1-0.233,1.5-1.3,1.5c-1-0.033-1.55-0.45-1.65-1.25C74.717,262.15,75.017,261.684,75.75,261.55z"/>
			</g>
		</g>
		<g>
			<g>
				<path style="fill-rule:evenodd;clip-rule:evenodd;fill:#6C7274;" d="M72.05,212.1c0.8,0.233,1.383,0.617,1.75,1.15
					c0.2,0.333,0.417,0.934,0.65,1.8c0.267,0.7,0.1,1.3-0.5,1.8c-0.7,0.534-1.583,0.584-2.65,0.15c-1.867-0.934-2.483-2.1-1.85-3.5
					C70.05,212.167,70.917,211.7,72.05,212.1z"/>
			</g>
		</g>
		<g>
			<g>
				<path style="fill-rule:evenodd;clip-rule:evenodd;fill:#54585B;" d="M55,182.45c0.633-0.3,1.317,0.083,2.05,1.149
					c0.7,1.034,0.25,1.733-1.35,2.101c-1.633-0.267-2.333-0.867-2.1-1.8C53.833,183.066,54.3,182.583,55,182.45z"/>
			</g>
		</g>
		<g>
			<g>
				<path style="fill-rule:evenodd;clip-rule:evenodd;fill:#6C7274;" d="M25.65,205.8c0.767-0.166,1.233,0.084,1.4,0.75
					c0.133,0.667-0.167,1-0.9,1c-0.633-0.033-0.983-0.316-1.05-0.85C25,206.167,25.183,205.866,25.65,205.8z"/>
			</g>
		</g>
		<g>
			<g>
				<path style="fill-rule:evenodd;clip-rule:evenodd;fill:#54585B;" d="M45.7,192.85c0.767-0.133,1.233,0.117,1.4,0.75
					c0.133,0.667-0.15,1-0.85,1c-0.667,0-1.033-0.267-1.1-0.8C45.05,193.267,45.233,192.95,45.7,192.85z"/>
			</g>
		</g>
		<g>
			<g>
				<path style="fill-rule:evenodd;clip-rule:evenodd;fill:#54585B;" d="M26.3,144.5c1.934-0.4,3.083,0.233,3.45,1.9
					c0.367,1.666-0.35,2.483-2.15,2.449c-1.633,0-2.55-0.666-2.75-2C24.65,145.517,25.133,144.733,26.3,144.5z"/>
			</g>
		</g>
		<g>
			<g>
				<path style="fill-rule:evenodd;clip-rule:evenodd;fill:#54585B;" d="M13.1,164.95c0.6,0.033,0.967,0.383,1.1,1.05
					s-0.233,0.967-1.1,0.9c-0.767-0.301-1.067-0.717-0.9-1.25C12.367,165.15,12.667,164.917,13.1,164.95z"/>
			</g>
		</g>
		<g>
			<g>
				<path style="fill-rule:evenodd;clip-rule:evenodd;fill:#54585B;" d="M11.7,189.25c0.767-0.033,1.233,0.366,1.4,1.2
					c0.167,0.833-0.267,1.233-1.3,1.2c-1-0.301-1.4-0.784-1.2-1.45C10.767,189.566,11.133,189.25,11.7,189.25z"/>
			</g>
		</g>
		<g>
			<g>
				<path style="fill-rule:evenodd;clip-rule:evenodd;fill:#54585B;" d="M10.45,205.2c0.9,0.066,1.433,0.633,1.6,1.7
					c0.167,1.1-0.433,1.517-1.8,1.25c-1.067-0.467-1.483-1.117-1.25-1.95C9.267,205.4,9.75,205.066,10.45,205.2z"/>
			</g>
		</g>
		<g>
			<g>
				<path style="fill-rule:evenodd;clip-rule:evenodd;fill:#54585B;" d="M62.4,120.25c0.067,0.067,0.233,0.05,0.5-0.05
					c0.4,0.033,0.95,0.333,1.65,0.9c0.8,0.467,0.784,1.467-0.05,3l-0.4,0.35c-0.1,0.1-0.25,0.183-0.45,0.25
					c-0.057,0.029-0.116,0.054-0.175,0.075L63.45,124.8c-0.233,0.267-0.55,0.45-0.95,0.55c-0.233,0.066-0.583,0.05-1.05-0.05
					c-0.233-0.1-0.45-0.2-0.65-0.3c-0.367-0.2-0.716-0.683-1.05-1.45c-0.1-0.966,0.05-1.7,0.45-2.2c0.433-0.3,0.667-0.5,0.7-0.6
					c0.367-0.233,0.667-0.367,0.9-0.4C62,120.283,62.2,120.25,62.4,120.25z"/>
			</g>
		</g>
		<g>
			<g>
				<path style="fill-rule:evenodd;clip-rule:evenodd;fill:#54585B;" d="M54.25,81.6c0.5-0.233,1.083-0.05,1.75,0.55
					s0.4,1.167-0.8,1.7c-0.967,0.033-1.5-0.3-1.6-1C53.467,82.15,53.683,81.733,54.25,81.6z"/>
			</g>
		</g>
		<g>
			<g>
				<path style="fill-rule:evenodd;clip-rule:evenodd;fill:#54585B;" d="M29.95,96.3c1.633-0.733,2.617-0.5,2.95,0.7
					c0.367,1.2,0.017,1.867-1.05,2c-0.934,0.367-1.7,0.133-2.3-0.7C28.983,97.467,29.117,96.8,29.95,96.3z"/>
			</g>
		</g>
	</g>
	<g>
		<path style="fill-rule:evenodd;clip-rule:evenodd;fill:#839295;" d="M114.35,55.65c3.034-6.3,6.5-9.517,10.4-9.65
			c5.1-0.2,8.967,3.117,11.6,9.95c1.301,3.4,2.101,6.833,2.4,10.3c-3.366,0.8-7.05,1.35-11.05,1.65c-8,0.567-13.566-0.4-16.7-2.9
			C111.733,61.9,112.85,58.783,114.35,55.65z"/>
	</g>
	<path style="fill-rule:evenodd;clip-rule:evenodd;fill:#ABB4B7;" d="M74.25,27.25L79.6,55.1c-0.033,0.167-0.133,0.3-0.3,0.4
		c-0.333,0.167-0.767,0.033-1.3-0.4l-5.4-27.6L74.25,27.25z"/>
	<path style="fill-rule:evenodd;clip-rule:evenodd;fill:#839295;" d="M72.35,21.5c2.6-0.467,4.2,0.633,4.8,3.3
		c0.6,2.667-0.617,4.233-3.65,4.7c-2.967,0.467-4.467-0.65-4.5-3.35C68.933,23.45,70.05,21.9,72.35,21.5z"/>
	<g>
		<path style="fill-rule:evenodd;clip-rule:evenodd;fill:#515D5F;" d="M124.75,46h1c-2.6,1.867-4.884,5.583-6.85,11.15
			c-1.101,3.1-1.101,5.383,0,6.85c0.933,1.2,2.816,2.033,5.649,2.5c3.467,0.533,8.2,0.45,14.2-0.25c-3.366,0.8-7.05,1.35-11.05,1.65
			c-8,0.567-13.566-0.4-16.7-2.9c0.733-3.1,1.85-6.217,3.35-9.35C117.384,49.35,120.85,46.133,124.75,46z"/>
	</g>
	<path style="fill-rule:evenodd;clip-rule:evenodd;fill:#ABB4B7;" d="M124.5,21.85c0.134-1.233,1.467-2.317,4-3.25
		c1.267-0.467,2.517-0.8,3.75-1l1.6-12.25l1-0.5c-0.933,7.767-1.55,12.316-1.85,13.65c-0.066,0.267-1.217,0.7-3.45,1.3
		c-2.166,0.567-3.233,1.25-3.2,2.05c0.067,0.7,0.9,1.633,2.5,2.8c1.467,1.033,2.101,1.85,1.9,2.45
		c-0.267,0.733-0.967,4.283-2.1,10.65c-0.567,3.2-1.117,6.317-1.65,9.35c-0.167,0.333-0.717,0.467-1.65,0.4
		c-0.533-0.067-0.933-0.183-1.199-0.35l-0.25-0.25c3.466-11.933,5.199-18.45,5.199-19.55c0-0.4-0.816-1.133-2.449-2.2
		C125.083,24.083,124.366,22.983,124.5,21.85z"/>
	<path style="fill-rule:evenodd;clip-rule:evenodd;fill:#839295;" d="M133.85,0c3.034-0.233,4.4,1.183,4.101,4.25
		c-0.134,1.2-0.566,2.217-1.3,3.05c-0.834,0.934-1.851,1.333-3.051,1.2c-2.5-0.233-3.699-1.667-3.6-4.3
		C130.066,1.567,131.35,0.167,133.85,0z"/>
	<path style="fill-rule:evenodd;clip-rule:evenodd;fill:#97A4A7;" d="M81.05,56.05c0.767-0.433,2,0.233,3.7,2
		c0.833,0.867,1.6,1.784,2.3,2.75H83.9c-0.066-0.367-0.267-0.966-0.6-1.8c-0.2-0.533-0.633-1.183-1.3-1.95L81.05,56.05z"/>
	<path style="fill-rule:evenodd;clip-rule:evenodd;fill:#97A4A7;" d="M129.5,47.9l1.4,1.1c1.1,1.033,2.017,2.283,2.75,3.75
		c1.166,2.333,2.166,6.217,3,11.65c-0.667,0.267-1.534,0.467-2.601,0.6c-0.633,0.067-1.733,0.067-3.3,0l-2.1-0.1
		c0.566-1.066,0.767-2.533,0.6-4.4c-0.1-1.2-0.65-3.367-1.65-6.5l-1.449-4.35L127,49.9c0.7,0.133,1.333,0.1,1.9-0.1
		C129.7,49.533,129.9,48.9,129.5,47.9z"/>
	<path style="fill-rule:evenodd;clip-rule:evenodd;fill:#C8CFD1;" d="M130.05,52.65c1.3,0.833,2.417,2.617,3.351,5.35
		c0.466,1.333,0.8,2.6,1,3.8l-2.25,0.1l0.1-1.9l-0.35-2.2c-0.134-0.9-0.483-2.033-1.051-3.4L130.05,52.65z"/>
	<path style="fill-rule:evenodd;clip-rule:evenodd;fill:#C8CFD1;" d="M73.9,23c0.467-0.1,0.967,0.233,1.5,1
		c0.5,0.767,0.45,1.267-0.15,1.5c-0.633,0.233-1.167-0.1-1.6-1C73.217,23.6,73.3,23.1,73.9,23z"/>
	<path style="fill-rule:evenodd;clip-rule:evenodd;fill:#C8CFD1;" d="M135,1.65c0.566-0.3,1.066-0.017,1.5,0.85
		c0.4,0.867,0.233,1.417-0.5,1.65s-1.184-0.083-1.35-0.95C134.483,2.367,134.6,1.85,135,1.65z"/>
	<g>
		<path style="fill-rule:evenodd;clip-rule:evenodd;fill:#515D5F;" d="M72.15,26.55c0.9,0.6,1.8,0.867,2.7,0.8
			c0.9-0.1,1.683-0.5,2.35-1.2c-0.067,0.8-0.4,1.5-1,2.1c-0.667,0.633-1.567,1.05-2.7,1.25c-2.8,0.433-4.3-0.6-4.5-3.1
			c-0.2-2.467,0.733-4.05,2.8-4.75C70.633,23.983,70.75,25.617,72.15,26.55z"/>
	</g>
	<g>
		<path style="fill-rule:evenodd;clip-rule:evenodd;fill:#515D5F;" d="M131.8,3.5c-0.133,1.2,0.283,2.1,1.25,2.7
			c0.867,0.5,1.783,0.65,2.75,0.45c0.733-0.133,1.283-0.333,1.65-0.6c-0.767,1.767-2.05,2.583-3.851,2.45
			c-2.5-0.233-3.699-1.667-3.6-4.3c0.066-2.633,1.35-4.034,3.85-4.2h0.051C132.733,0.733,132.033,1.9,131.8,3.5z"/>
	</g>
	<g>
		<polygon style="fill-rule:evenodd;clip-rule:evenodd;fill:#515D5F;" points="72.95,29.25 73.5,29.5 78.45,55.4 78,55.1 		"/>
	</g>
	<g>
		<path style="fill-rule:evenodd;clip-rule:evenodd;fill:#515D5F;" d="M125.3,21.5c-0.3,1.067-0.017,1.917,0.851,2.55
			c0.466,0.367,1.183,0.767,2.149,1.2c0.601,0.4,0.967,0.717,1.101,0.95c0.199,0.367,0.233,0.983,0.1,1.85
			c-0.2,1.2-1.816,7.633-4.85,19.3c-0.233-0.067-0.434-0.167-0.601-0.3L123.9,46.9c3.466-11.933,5.199-18.45,5.199-19.55
			c0-0.4-0.816-1.133-2.449-2.2c-1.567-1.066-2.284-2.167-2.15-3.3c0.134-1.233,1.467-2.317,4-3.25c1.267-0.467,2.517-0.8,3.75-1
			l1.3-9.9l0.351,0.2L132.4,18c-1.067,0.167-2.15,0.433-3.25,0.8C126.884,19.533,125.6,20.433,125.3,21.5z"/>
	</g>
	<polygon style="fill-rule:evenodd;clip-rule:evenodd;fill:#C8CFD1;" points="73.9,30 74.75,33.3 74.5,29.7 76.8,42.15 76.15,40.1 
		78.5,54 	"/>
	<polygon style="fill-rule:evenodd;clip-rule:evenodd;fill:#C8CFD1;" points="125.3,46.4 129.45,29.45 127.8,38.3 128.95,34.95 
		126.65,46.5 127.15,41.75 	"/>
	<polygon style="fill-rule:evenodd;clip-rule:evenodd;fill:#C8CFD1;" points="133.95,8.85 133.95,10.6 132.6,18.25 	"/>
	<path style="fill-rule:evenodd;clip-rule:evenodd;fill:#C8CFD1;" d="M125.8,21.6c0.066,0.767,0.267,1.333,0.601,1.7
		c0.233,0.267,0.683,0.633,1.35,1.1c0.733,0.633,1.333,1.033,1.8,1.2l-0.3-0.1c-1.634-0.833-2.684-1.567-3.15-2.2
		c-0.267-0.4-0.399-0.8-0.399-1.2L125.8,21.6z"/>
</g>
</svg>
