<?xml version="1.0" encoding="iso-8859-1"?>
<!-- Generator: Adobe Illustrator 15.1.0, SVG Export Plug-In . SVG Version: 6.00 Build 0)  -->
<!DOCTYPE svg PUBLIC "-//W3C//DTD SVG 1.1//EN" "http://www.w3.org/Graphics/SVG/1.1/DTD/svg11.dtd">
<svg version="1.1" id="Layer_3" xmlns="http://www.w3.org/2000/svg" xmlns:xlink="http://www.w3.org/1999/xlink" x="0px" y="0px"
	 width="113.9px" height="94.5px" viewBox="0 0 113.9 94.5" style="enable-background:new 0 0 113.9 94.5;" xml:space="preserve">
<symbol  id="FlashAICB_x2F_Layer_3_x2F__x3C_Path_x3E__x5F_10" viewBox="0.6 -8.97 8.3 8.22">
	<g id="Layer_1_14_">
		<g>
			<g>
				<path style="fill-rule:evenodd;clip-rule:evenodd;fill:#908F7D;" d="M5-5.25C5.267-5.717,5.95-6.467,7.05-7.5
					c1.1-1.067,1.717-1.533,1.85-1.4C8.833-9.133,8.083-8.783,6.65-7.85c-1.4,0.934-2.2,1.617-2.4,2.05
					C3.817-5.4,2.6-3.717,0.6-0.75C2.267-2.317,3.733-3.817,5-5.25z"/>
			</g>
		</g>
	</g>
</symbol>
<symbol  id="FlashAICB_x2F_Layer_3_x2F__x3C_Path_x3E__x5F_11" viewBox="0.55 -10.561 7.55 9.585">
	<g id="Layer_1_13_">
		<g>
			<g>
				<path style="fill-rule:evenodd;clip-rule:evenodd;fill:#908F7D;" d="M5-5.7c0.267-0.533,0.817-1.466,1.65-2.8
					C7.517-9.9,8-10.583,8.1-10.55c-0.067-0.1-0.7,0.5-1.9,1.8C5-7.45,4.317-6.583,4.15-6.15c-0.2,0.433-0.85,1.433-1.95,3
					C1.315-1.917,0.765-1.192,0.55-0.975C2.468-2.355,3.951-3.93,5-5.7z"/>
			</g>
		</g>
	</g>
</symbol>
<symbol  id="FlashAICB_x2F_Layer_3_x2F__x3C_Path_x3E__x5F_12" viewBox="1.2 -9 4.05 8.25">
	<g id="Layer_1_12_">
		<g>
			<g>
				<path style="fill-rule:evenodd;clip-rule:evenodd;fill:#908F7D;" d="M2.45-4.1c0.229,0.491,1.162,1.608,2.8,3.35
					C5.111-0.951,4.794-1.485,4.3-2.35C3.633-3.483,3.233-4.2,3.1-4.5C2.767-4.867,2.133-6.367,1.2-9
					C1.233-7.167,1.65-5.533,2.45-4.1z"/>
			</g>
		</g>
	</g>
</symbol>
<symbol  id="FlashAICB_x2F_Layer_3_x2F__x3C_Path_x3E__x5F_13" viewBox="1 -11.4 6.8 10.95">
	<g id="Layer_1_11_">
		<g>
			<g>
				<path style="fill-rule:evenodd;clip-rule:evenodd;fill:#908F7D;" d="M4.4-5.4l3.4,4.95c-1.333-3.2-2.183-5.066-2.55-5.6
					C4.95-6.617,3.533-8.4,1-11.4C1-11.233,2.133-9.233,4.4-5.4z"/>
			</g>
		</g>
	</g>
</symbol>
<symbol  id="FlashAICB_x2F_Layer_3_x2F__x3C_Path_x3E__x5F_14" viewBox="0.95 -10.6 7.7 10.05">
	<g id="Layer_1_10_">
		<g>
			<g>
				<path style="fill-rule:evenodd;clip-rule:evenodd;fill:#908F7D;" d="M4.65-4.95c0.4,0.567,1.733,2.034,4,4.4
					c-1.767-2.9-2.833-4.6-3.2-5.1l-4.5-4.95C2.15-8.467,3.383-6.583,4.65-4.95z"/>
			</g>
		</g>
	</g>
</symbol>
<symbol  id="FlashAICB_x2F_Layer_3_x2F__x3C_Path_x3E__x5F_15" viewBox="0.925 -7.775 2.132 7.725">
	<g id="Layer_1_9_">
		<g>
			<g>
				<path style="fill-rule:evenodd;clip-rule:evenodd;fill:#908F7D;" d="M2.7-4.5C2.635-4.984,2.044-6.076,0.925-7.775
					C1.028-7.543,1.203-7.068,1.45-6.35c0.367,1.1,0.566,1.8,0.6,2.1C2.217-3.883,2.533-2.483,3-0.05
					C3.133-1.65,3.033-3.133,2.7-4.5z"/>
			</g>
		</g>
	</g>
</symbol>
<symbol  id="FlashAICB_x2F_Layer_3_x2F__x3C_Path_x3E__x5F_16" viewBox="0.975 -11.075 2.099 10.775">
	<g id="Layer_1_8_">
		<g>
			<g>
				<path style="fill-rule:evenodd;clip-rule:evenodd;fill:#908F7D;" d="M2.85-6.2c-0.065-0.651-0.69-2.276-1.875-4.875
					c0.1,0.319,0.258,1.044,0.475,2.175c0.3,1.566,0.466,2.55,0.5,2.95c0.167,0.367,0.333,1.434,0.5,3.2
					c0.145,1.284,0.212,2.101,0.2,2.45C3.139-2.36,3.206-4.327,2.85-6.2z"/>
			</g>
		</g>
	</g>
</symbol>
<symbol  id="FlashAICB_x2F_Layer_3_x2F__x3C_Path_x3E__x5F_17" viewBox="0.875 -12.054 1.701 11.129">
	<g id="Layer_1_7_">
		<g>
			<g>
				<path style="fill-rule:evenodd;clip-rule:evenodd;fill:#908F7D;" d="M2.55-6.6C2.65-7.1,2.467-8.167,2-9.8
					c-0.467-1.567-0.767-2.317-0.9-2.25c0.133,0,0.267,0.816,0.4,2.45c0.167,1.633,0.183,2.65,0.05,3.05
					C1.683-6.117,1.617-5,1.35-3.2C1.162-2.073,1.004-1.314,0.875-0.925C2.055-2.725,2.613-4.616,2.55-6.6z"/>
			</g>
		</g>
	</g>
</symbol>
<symbol  id="FlashAICB_x2F_Layer_3_x2F__x3C_Path_x3E__x5F_18" viewBox="0.65 -8.1 5.6 7.35">
	<g id="Layer_1_6_">
		<g>
			<g>
				<path style="fill-rule:evenodd;clip-rule:evenodd;fill:#908F7D;" d="M3.35-4.15l-2.7,3.4c1.967-1.567,3.083-2.567,3.35-3
					C4.333-4.083,5.083-5.533,6.25-8.1C5.217-6.633,4.25-5.317,3.35-4.15z"/>
			</g>
		</g>
	</g>
</symbol>
<symbol  id="FlashAICB_x2F_Layer_3_x2F__x3C_Path_x3E__x5F_19" viewBox="0.85 -7 5.8 6.4">
	<g id="Layer_1_5_">
		<g>
			<g>
				<path style="fill-rule:evenodd;clip-rule:evenodd;fill:#908F7D;" d="M3.05-4.05c-0.3,0.4-1.033,1.55-2.2,3.45
					c1.6-1.667,2.533-2.667,2.8-3l3-3.4C5.283-6.067,4.083-5.083,3.05-4.05z"/>
			</g>
		</g>
	</g>
</symbol>
<symbol  id="FlashAICB_x2F_Layer_3_x2F__x3C_Path_x3E__x5F_20" viewBox="1.025 -8.5 7.525 7.875">
	<g id="Layer_1_4_">
		<g>
			<g>
				<path style="fill-rule:evenodd;clip-rule:evenodd;fill:#908F7D;" d="M3.7-4.9C3.12-4.545,2.229-3.121,1.025-0.625
					C1.229-0.909,1.671-1.434,2.35-2.2c1-1.2,1.683-1.9,2.05-2.1c0.4-0.333,1.783-1.733,4.15-4.2C6.717-7.333,5.1-6.133,3.7-4.9z"/>
			</g>
		</g>
	</g>
</symbol>
<symbol  id="FlashAICB_x2F_Layer_3_x2F__x3C_Path_x3E__x5F_26" viewBox="0 -11.35 47.1 11.393">
	<g id="Layer_1_3_">
		<path style="fill-rule:evenodd;clip-rule:evenodd;fill:#615A42;" d="M40.05-6.9c-3.3,0.833-5.633,1.383-7,1.65
			c-2.566,0.5-4.35,0.6-5.35,0.3c-0.934-0.267-2.684-1.417-5.25-3.45c-1.3-1-2.5-1.983-3.6-2.95c0.367,0.733,0.65,1.55,0.85,2.45
			c0.433,1.833,0.267,3.15-0.5,3.95c-0.434,0.5-1.15,0.684-2.15,0.55c-1.466-0.3-2.783-0.533-3.95-0.7C10.8-5.433,6.433-6.3,0-7.7
			c1.433,1.1,2.633,1.8,3.6,2.1c1,0.333,2.967,1.483,5.9,3.45c1.3,0.633,2.95,1.167,4.95,1.6c4,0.867,7.816,0.783,11.45-0.25
			c5.8-1.667,12.867-4.25,21.2-7.75C45.333-8.217,42.983-7.667,40.05-6.9z"/>
	</g>
</symbol>
<symbol  id="FlashAICB_x2F_Layer_3_x2F__x3C_Path_x3E__x5F_27" viewBox="0.022 -11.47 72.942 11.494">
	<g id="Layer_1_2_">
		<path style="fill-rule:evenodd;clip-rule:evenodd;fill:#615A42;" d="M53.65-0.9c10.267-0.934,16.434-2.184,18.5-3.75
			c2.1-1.567,0.133-3.15-5.9-4.75c-6.333-1.633-13.883-2.3-22.65-2c-9.067,0.333-18.517,0.983-28.35,1.95
			c-9.733,0.934-14.8,1.7-15.2,2.3C-0.317-6.65,2.9-5.4,9.7-3.4c6.5,1.933,10.367,2.933,11.6,3C31.967,0.3,42.75,0.133,53.65-0.9z"
			/>
	</g>
</symbol>
<symbol  id="FlashAICB_x2F_Layer_3_x2F__x3C_Path_x3E__x5F_3" viewBox="0.35 -3.453 15.8 2.503">
	<g id="Layer_1_21_">
		<g>
			<g>
				<path style="fill-rule:evenodd;clip-rule:evenodd;fill:#908F7D;" d="M7.95-3.4c-1.034-0.133-3.567,0.683-7.6,2.45
					c4.4-0.867,7-1.233,7.8-1.1c0.567-0.3,2.133-0.233,4.7,0.2c1.667,0.285,2.767,0.535,3.3,0.75C15.579-1.522,14.862-1.923,14-2.3
					C11.867-3.233,9.85-3.6,7.95-3.4z"/>
			</g>
		</g>
	</g>
</symbol>
<symbol  id="FlashAICB_x2F_Layer_3_x2F__x3C_Path_x3E__x5F_4" viewBox="0.35 -2.35 11.75 1.56">
	<g id="Layer_1_20_">
		<g>
			<g>
				<path style="fill-rule:evenodd;clip-rule:evenodd;fill:#908F7D;" d="M6.5-0.8c0.667,0.033,2.533-0.017,5.6-0.15
					c-3.167-0.533-5.033-0.8-5.6-0.8c-0.6,0.067-2.65-0.133-6.15-0.6C2.45-1.383,4.5-0.867,6.5-0.8z"/>
			</g>
		</g>
	</g>
</symbol>
<symbol  id="FlashAICB_x2F_Layer_3_x2F__x3C_Path_x3E__x5F_5" viewBox="0.05 -1.554 10.95 0.908">
	<g id="Layer_1_19_">
		<g>
			<g>
				<path style="fill-rule:evenodd;clip-rule:evenodd;fill:#908F7D;" d="M5.9-0.65L11-1.1C8.067-1.433,6.333-1.583,5.8-1.55
					c-0.533,0.066-2.45,0.133-5.75,0.2C2.117-0.85,4.067-0.617,5.9-0.65z"/>
			</g>
		</g>
	</g>
</symbol>
<symbol  id="FlashAICB_x2F_Layer_3_x2F__x3C_Path_x3E__x5F_6" viewBox="0.1 -2.169 15.4 1.281">
	<g id="Layer_1_18_">
		<g>
			<g>
				<path style="fill-rule:evenodd;clip-rule:evenodd;fill:#908F7D;" d="M7.3-2.15C6.467-2.117,4.067-1.733,0.1-1
					c4.167,0.1,6.633,0.133,7.4,0.1c0.533-0.067,2.017-0.15,4.45-0.25c2.018-0.111,3.201-0.152,3.55-0.125
					C12.634-1.957,9.901-2.249,7.3-2.15z"/>
			</g>
		</g>
	</g>
</symbol>
<symbol  id="FlashAICB_x2F_Layer_3_x2F__x3C_Path_x3E__x5F_7" viewBox="0.325 -1.8 17.375 1.479">
	<g id="Layer_1_17_">
		<g>
			<g>
				<path style="fill-rule:evenodd;clip-rule:evenodd;fill:#908F7D;" d="M8.3-1.8C7.4-1.7,5.867-1.583,3.7-1.45
					C1.84-1.319,0.715-1.261,0.325-1.275C4.885-0.526,7.593-0.218,8.45-0.35c0.867,0,3.95-0.316,9.25-0.95
					C14.333-1.633,11.2-1.8,8.3-1.8z"/>
			</g>
		</g>
	</g>
</symbol>
<symbol  id="FlashAICB_x2F_Layer_3_x2F__x3C_Path_x3E__x5F_8" viewBox="0.792 -2.95 12.266 2.4">
	<g id="Layer_1_16_">
		<g>
			<g>
				<path style="fill-rule:evenodd;clip-rule:evenodd;fill:#908F7D;" d="M6.5-1.9C5.667-1.867,4.567-1.717,3.2-1.45
					c-1.7,0.333-2.5,0.633-2.4,0.9c-0.066-0.267,0.784-0.4,2.55-0.4c0.9,0,2,0.017,3.3,0.05C7.117-0.767,8.333-1,10.3-1.6
					c1.934-0.633,2.85-1.083,2.75-1.35C13.017-2.783,12.3-2.567,10.9-2.3C9.333-1.967,7.867-1.833,6.5-1.9z"/>
			</g>
		</g>
	</g>
</symbol>
<symbol  id="FlashAICB_x2F_Layer_3_x2F__x3C_Path_x3E__x5F_9" viewBox="0.55 -7.7 8.3 6.85">
	<g id="Layer_1_15_">
		<g>
			<g>
				<path style="fill-rule:evenodd;clip-rule:evenodd;fill:#908F7D;" d="M5.15-4.3c0.467-0.333,1.7-1.467,3.7-3.4
					c-2.467,1.534-3.9,2.467-4.3,2.8c-0.433,0.333-1.767,1.683-4,4.05C2.317-1.983,3.85-3.133,5.15-4.3z"/>
			</g>
		</g>
	</g>
</symbol>
<g>
	
		<use xlink:href="#FlashAICB_x2F_Layer_3_x2F__x3C_Path_x3E__x5F_27"  width="72.942" height="11.494" x="0.022" y="-11.47" transform="matrix(1 0 0 -1 20.2998 83.0498)" style="overflow:visible;opacity:0.3516;enable-background:new    ;"/>
	
		<use xlink:href="#FlashAICB_x2F_Layer_3_x2F__x3C_Path_x3E__x5F_26"  width="47.1" height="11.393" y="-11.35" transform="matrix(1 0 0 -1 33.8999 82.2998)" style="overflow:visible;opacity:0.8203;enable-background:new    ;"/>
	<path style="fill-rule:evenodd;clip-rule:evenodd;fill:#AF7642;" d="M94.75,67.2l-29.5,1.3c-0.667,0.233-1.3,0.7-1.9,1.4
		c-1.199,1.433-1.666,3.383-1.399,5.85s3.517,5.717,9.75,9.75c3.133,2.033,6.233,3.816,9.3,5.35c-2.2-0.767-4.583-1.533-7.15-2.3
		c-5.133-1.533-8.666-2.3-10.6-2.3c-1.9,0-4.116,1.2-6.65,3.6c-1.266,1.2-2.333,2.4-3.2,3.601c0.667-1.2,1.083-2.4,1.25-3.601
		c0.333-2.399-0.733-3.6-3.2-3.6c-2.467,0-5.5,0.434-9.1,1.3l-4.7,1.3c1.967-1.533,4.1-3.3,6.4-5.3c4.6-4.066,7.717-7.333,9.35-9.8
		s1.15-5.717-1.45-9.75l-4.45-5.3L15.85,38.55l-0.45-24.3l4.8,22.35L55,55.3l7.15-18.95l-1.95-24.5l6.35,24.95L61.5,59.9L93.45,62.6
		l18.6-7.85L94.75,67.2z"/>
	<g>
		<path style="fill-rule:evenodd;clip-rule:evenodd;fill:#895E37;" d="M15.85,38.55l-0.45-24.3l2.65,22.55l29.9,19.7
			c3.466,2.333,5.816,4.616,7.05,6.85c0.967,1.801,1.384,4.034,1.25,6.7c-0.066,2-1.733,5.05-5,9.15
			c-1.633,2.033-3.25,3.866-4.85,5.5l5-0.601c3.333-0.267,5.1,0.017,5.3,0.851c0.295,1.277-0.764,4.036-3.175,8.274
			c0.594-1.125,0.969-2.25,1.125-3.375c0.333-2.399-0.733-3.6-3.2-3.6c-2.467,0-5.5,0.434-9.1,1.3l-4.7,1.3
			c1.967-1.533,4.1-3.3,6.4-5.3c4.6-4.066,7.717-7.333,9.35-9.8s1.15-5.717-1.45-9.75l-4.45-5.3L15.85,38.55z"/>
		<path style="fill-rule:evenodd;clip-rule:evenodd;fill:#895E37;" d="M62.15,36.35l-1.95-24.5L64.35,36.8L60.4,45.9
			c-2.667,6.234-4.051,9.767-4.15,10.6c-0.134,1.3,0.017,3.116,0.45,5.45L55,55.3L62.15,36.35z"/>
		<path style="fill-rule:evenodd;clip-rule:evenodd;fill:#895E37;" d="M93.65,65.45l18.399-10.7L94.75,67.2l-29.5,1.3L74,66.1
			C76.467,65.533,83.017,65.316,93.65,65.45z"/>
		<path style="fill-rule:evenodd;clip-rule:evenodd;fill:#895E37;" d="M61,86.75c1.5-1.6,3.2-2.2,5.1-1.8
			C68.434,85.384,73.4,87.35,81,90.85c-2.2-0.767-4.583-1.533-7.15-2.3c-5.133-1.533-8.666-2.3-10.6-2.3
			C62.583,86.25,61.833,86.417,61,86.75z"/>
	</g>
	<path style="fill-rule:evenodd;clip-rule:evenodd;fill:#895E37;" d="M59.35,67.65L60,72.85c0.566,3.667,1.217,5.95,1.95,6.851
		c1.166,1.434,2.399,2.816,3.7,4.149c-3.5-2.633-5.534-4.316-6.101-5.05c-0.366-0.467-1.149-0.333-2.35,0.4
		c-0.667,0.434-1.7,1.184-3.1,2.25c2.9-4.233,4.5-7.233,4.8-9c0.199-1.066,0.333-2.184,0.399-3.351L59.35,67.65z"/>
	<polygon style="fill-rule:evenodd;clip-rule:evenodd;fill:#895E37;" points="59.55,54.5 63.25,44.9 59.35,59.75 	"/>
	<path style="fill-rule:evenodd;clip-rule:evenodd;fill:#A19F8A;" d="M95,44.45c6.434-0.1,11.8,2.233,16.1,7
		c1.767,1.934,2.7,3.733,2.801,5.399c0.066,1.801-0.867,3.017-2.801,3.65c-2.666,0.866-7.199,1.783-13.6,2.75
		c-7.9,1.233-15.2,1.934-21.9,2.1C56.167,65.85,47,61.95,48.1,53.65c0.867-1.5,2.283-3.034,4.25-4.601
		c3.867-3.1,8.466-4.75,13.8-4.95c5.333-0.2,9.767,0.017,13.3,0.65c1.767,0.333,3,0.667,3.7,1l2.6-0.6
		C88.217,44.75,91.3,44.517,95,44.45z"/>
	<path style="fill-rule:evenodd;clip-rule:evenodd;fill:#A19F8A;" d="M81.6,6.8c1,3.767,1.517,8.3,1.551,13.6
		c0.033,5.333-0.434,9.883-1.4,13.65c-1.1,4.167-2.6,6.4-4.5,6.7c-2.833,0.467-7.884-0.933-15.15-4.2
		c-7.3-3.3-12.016-4.816-14.149-4.55c-1.434,0.167-3.7,1.383-6.8,3.65c-3.9,3.033-6.9,5.333-9,6.9c-8.1,6.101-13.75,8.267-16.95,6.5
		c-2-1.1-4.167-3.917-6.5-8.45C6.567,36.433,4.667,31.65,3,26.25C1.367,20.783,0.4,16.067,0.1,12.1c-0.333-4.333,0.25-6.9,1.75-7.7
		c2.133-1.1,8.816,0.917,20.05,6.05C34,15.917,41.883,18.5,45.55,18.2c3.5-0.3,9.267-3.567,17.3-9.8
		c7.634-5.9,12.434-8.683,14.4-8.35C79.05,0.35,80.5,2.6,81.6,6.8z"/>
	<g>
		<path style="fill-rule:evenodd;clip-rule:evenodd;fill:#908F7D;" d="M109.65,58c1.899-0.566,3.233-1.366,4-2.4
			c0.333,1.134,0.3,2.134-0.101,3c-0.434,0.867-1.25,1.5-2.45,1.9c-2.666,0.866-7.199,1.783-13.6,2.75
			c-7.9,1.233-15.2,1.934-21.9,2.1C56.167,65.85,47,61.95,48.1,53.65c0.633-1.067,1.633-2.233,3-3.5c2.7-2.534,5.9-4.284,9.6-5.25
			h0.149c-0.767,0.333-1.517,0.85-2.25,1.55c-1.5,1.367-2.199,2.967-2.1,4.8c0.1,2.066,2.033,3.8,5.8,5.2
			c3.434,1.267,7.617,2.017,12.55,2.25c6.434,0.267,10.217,0.383,11.351,0.35c2.934-0.133,4.399-0.767,4.399-1.899
			c0-1.101-0.399-2.301-1.199-3.601l-1.2-1.6l5.25,4.3c1.3,1.1,3.783,1.833,7.45,2.2C104.5,58.816,107.417,58.667,109.65,58z"/>
	</g>
	<g>
		<path style="fill-rule:evenodd;clip-rule:evenodd;fill:#908F7D;" d="M82.3,31.1l0.05,0.1c-1.033,6-2.733,9.183-5.1,9.55
			c-2.833,0.467-7.884-0.933-15.15-4.2c-7.3-3.3-12.016-4.816-14.149-4.55c-1.434,0.167-3.7,1.383-6.8,3.65
			c-3.9,3.033-6.9,5.333-9,6.9c-8.1,6.101-13.75,8.267-16.95,6.5c-2-1.1-4.167-3.917-6.5-8.45C6.567,36.433,4.667,31.65,3,26.25
			C1.367,20.783,0.4,16.067,0.1,12.1c-0.333-4.333,0.25-6.9,1.75-7.7c1.566-0.8,4.733-0.3,9.5,1.5l0.75,0.5
			C10.733,5.933,9.367,5.75,8,5.85c-2.733,0.167-4.05,1.667-3.95,4.5c0.067,1.833,0.667,4.583,1.8,8.25
			c1.267,4,2.783,7.767,4.55,11.3c4.767,9.4,9.35,13.233,13.75,11.5c2.667-1.066,7.033-3.4,13.1-7c4.633-2.767,8.2-4.233,10.7-4.4
			c2.4-0.133,6.867,1.033,13.399,3.5C68.017,36,72.3,37.25,74.2,37.25c2.566,0,4.684-1.017,6.35-3.05
			C81.384,33.167,81.967,32.133,82.3,31.1z"/>
	</g>
	<g>
		<path style="fill-rule:evenodd;clip-rule:evenodd;fill:#747466;" d="M97.6,61.65c5.601-0.667,9.684-1.301,12.25-1.9
			c1.233-0.233,2.5-0.717,3.801-1.45c-0.367,1.033-1.217,1.767-2.551,2.2c-2.666,0.866-7.199,1.783-13.6,2.75
			c-7.9,1.233-15.2,1.934-21.9,2.1C56.167,65.85,47,61.95,48.1,53.65c0.5-0.867,1.3-1.851,2.4-2.95
			c-0.567,0.899-0.867,1.85-0.9,2.85c-0.1,1.8,0.733,3.367,2.5,4.7c2.2,1.667,6.016,2.934,11.45,3.8
			c4.934,0.767,10.384,1.101,16.351,1C84.866,62.95,90.767,62.483,97.6,61.65z"/>
	</g>
	<g>
		<path style="fill-rule:evenodd;clip-rule:evenodd;fill:#747466;" d="M42.7,33.5c1.566-0.967,3.05-1.533,4.45-1.7
			c0.8-0.066,1.467-0.017,2,0.15L47.95,32c-1.434,0.167-3.7,1.383-6.8,3.65c-3.9,3.033-6.9,5.333-9,6.9
			c-8.1,6.101-13.75,8.267-16.95,6.5c-2-1.1-4.167-3.917-6.5-8.45C6.567,36.433,4.667,31.65,3,26.25
			C1.367,20.783,0.4,16.067,0.1,12.1c-0.333-4.333,0.25-6.9,1.75-7.7C1.517,4.933,1.233,5.7,1,6.7c-0.433,2-0.367,4.233,0.2,6.7
			C2.367,18.633,4.5,24.833,7.6,32c4.133,9.467,7.75,14.2,10.85,14.2c3.033,0,7.466-1.784,13.3-5.35
			C34.85,38.95,38.5,36.5,42.7,33.5z"/>
		<path style="fill-rule:evenodd;clip-rule:evenodd;fill:#747466;" d="M77.7,39.45c1.1-0.5,2.149-1.4,3.149-2.7
			c-0.966,2.433-2.166,3.767-3.6,4c-2.533,0.4-6.366-0.483-11.5-2.65c-5.733-2.633-9.833-4.367-12.3-5.2l-0.05-0.05l6,1.8
			c4.267,1.333,7.083,2.267,8.449,2.8C72.917,39.45,76.2,40.117,77.7,39.45z"/>
	</g>
	
		<use xlink:href="#FlashAICB_x2F_Layer_3_x2F__x3C_Path_x3E__x5F_20"  width="7.525" height="7.875" x="1.025" y="-8.5" transform="matrix(1 0 0 -1 8.1499 10.3999)" style="overflow:visible;opacity:0.5;enable-background:new    ;"/>
	
		<use xlink:href="#FlashAICB_x2F_Layer_3_x2F__x3C_Path_x3E__x5F_19"  width="5.8" height="6.4" x="0.85" y="-7" transform="matrix(1 0 0 -1 17.8501 11.5)" style="overflow:visible;opacity:0.5;enable-background:new    ;"/>
	
		<use xlink:href="#FlashAICB_x2F_Layer_3_x2F__x3C_Path_x3E__x5F_18"  width="5.6" height="7.35" x="0.65" y="-8.1" transform="matrix(1 0 0 -1 27 13.9502)" style="overflow:visible;opacity:0.5;enable-background:new    ;"/>
	
		<use xlink:href="#FlashAICB_x2F_Layer_3_x2F__x3C_Path_x3E__x5F_17"  width="1.701" height="11.129" x="0.875" y="-12.054" transform="matrix(1 0 0 -1 17.1499 24.1001)" style="overflow:visible;opacity:0.5;enable-background:new    ;"/>
	
		<use xlink:href="#FlashAICB_x2F_Layer_3_x2F__x3C_Path_x3E__x5F_16"  width="2.099" height="10.775" x="0.975" y="-11.075" transform="matrix(1 0 0 -1 22.7998 24.7002)" style="overflow:visible;opacity:0.5;enable-background:new    ;"/>
	
		<use xlink:href="#FlashAICB_x2F_Layer_3_x2F__x3C_Path_x3E__x5F_15"  width="2.132" height="7.725" x="0.925" y="-7.775" transform="matrix(1 0 0 -1 30.5498 24.7002)" style="overflow:visible;opacity:0.5;enable-background:new    ;"/>
	
		<use xlink:href="#FlashAICB_x2F_Layer_3_x2F__x3C_Path_x3E__x5F_14"  width="7.7" height="10.05" x="0.95" y="-10.6" transform="matrix(1 0 0 -1 55.9502 8.25)" style="overflow:visible;opacity:0.5;enable-background:new    ;"/>
	
		<use xlink:href="#FlashAICB_x2F_Layer_3_x2F__x3C_Path_x3E__x5F_13"  width="6.8" height="10.95" x="1" y="-11.4" transform="matrix(1 0 0 -1 65.5498 4.3999)" style="overflow:visible;opacity:0.5;enable-background:new    ;"/>
	
		<use xlink:href="#FlashAICB_x2F_Layer_3_x2F__x3C_Path_x3E__x5F_12"  width="4.05" height="8.25" x="1.2" y="-9" transform="matrix(1 0 0 -1 73.4502 6.3999)" style="overflow:visible;opacity:0.5;enable-background:new    ;"/>
	
		<use xlink:href="#FlashAICB_x2F_Layer_3_x2F__x3C_Path_x3E__x5F_11"  width="7.55" height="9.585" x="0.55" y="-10.561" transform="matrix(1 0 0 -1 56.7002 22.75)" style="overflow:visible;opacity:0.5;enable-background:new    ;"/>
	
		<use xlink:href="#FlashAICB_x2F_Layer_3_x2F__x3C_Path_x3E__x5F_10"  width="8.3" height="8.22" x="0.6" y="-8.97" transform="matrix(1 0 0 -1 64.2002 22.8501)" style="overflow:visible;opacity:0.5;enable-background:new    ;"/>
	
		<use xlink:href="#FlashAICB_x2F_Layer_3_x2F__x3C_Path_x3E__x5F_9"  width="8.3" height="6.85" x="0.55" y="-7.7" transform="matrix(1 0 0 -1 73.9004 23)" style="overflow:visible;opacity:0.5;enable-background:new    ;"/>
	
		<use xlink:href="#FlashAICB_x2F_Layer_3_x2F__x3C_Path_x3E__x5F_8"  width="12.266" height="2.4" x="0.792" y="-2.95" transform="matrix(1 0 0 -1 65.2998 45)" style="overflow:visible;opacity:0.5;enable-background:new    ;"/>
	
		<use xlink:href="#FlashAICB_x2F_Layer_3_x2F__x3C_Path_x3E__x5F_7"  width="17.375" height="1.479" x="0.325" y="-1.8" transform="matrix(1 0 0 -1 62.9004 49.2998)" style="overflow:visible;opacity:0.5;enable-background:new    ;"/>
	
		<use xlink:href="#FlashAICB_x2F_Layer_3_x2F__x3C_Path_x3E__x5F_6"  width="15.4" height="1.281" x="0.1" y="-2.169" transform="matrix(1 0 0 -1 67.0996 54.2002)" style="overflow:visible;opacity:0.5;enable-background:new    ;"/>
	
		<use xlink:href="#FlashAICB_x2F_Layer_3_x2F__x3C_Path_x3E__x5F_5"  width="10.95" height="0.908" x="0.05" y="-1.554" transform="matrix(1 0 0 -1 89.25 45.3501)" style="overflow:visible;opacity:0.5;enable-background:new    ;"/>
	
		<use xlink:href="#FlashAICB_x2F_Layer_3_x2F__x3C_Path_x3E__x5F_4"  width="11.75" height="1.56" x="0.35" y="-2.35" transform="matrix(1 0 0 -1 92.2998 48.2998)" style="overflow:visible;opacity:0.5;enable-background:new    ;"/>
	
		<use xlink:href="#FlashAICB_x2F_Layer_3_x2F__x3C_Path_x3E__x5F_3"  width="15.8" height="2.503" x="0.35" y="-3.453" transform="matrix(1 0 0 -1 94.6504 53.1504)" style="overflow:visible;opacity:0.5;enable-background:new    ;"/>
	<path style="fill-rule:evenodd;clip-rule:evenodd;fill:#B1AF9E;" d="M79.9,4.55c0.666,1.605,1.024,3.456,1.074,5.55
		C80.941,9.45,80.85,8.75,80.7,8C80.3,6,79.6,4.583,78.6,3.75C77.566,2.95,76.2,2.7,74.5,3l-2.25,0.75
		C75.884,0.75,78.434,1.017,79.9,4.55z"/>
	<path style="fill-rule:evenodd;clip-rule:evenodd;fill:#B1AF9E;" d="M9.5,8.15c4.733,0.367,10.2,1.967,16.4,4.8
		c3.1,1.433,5.717,2.816,7.85,4.15c-5.533-2.6-9.533-4.35-12-5.25C19.283,10.983,15.2,9.75,9.5,8.15z"/>
	<path style="fill-rule:evenodd;clip-rule:evenodd;fill:#B1AF9E;" d="M105.2,48.35l-2.351-1.5c5.767,2.933,8.667,5.45,8.7,7.55
		c0,1.066-0.566,1.833-1.7,2.3c-0.3-2.767-0.8-4.667-1.5-5.7C107.884,50.366,106.833,49.483,105.2,48.35z"/>
</g>
</svg>
