<?xml version="1.0" encoding="iso-8859-1"?>
<!-- Generator: Adobe Illustrator 15.1.0, SVG Export Plug-In . SVG Version: 6.00 Build 0)  -->
<!DOCTYPE svg PUBLIC "-//W3C//DTD SVG 1.1//EN" "http://www.w3.org/Graphics/SVG/1.1/DTD/svg11.dtd">
<svg version="1.1" id="chimney_x5F_orange_x5F_front_x5F_01.ai"
	 xmlns="http://www.w3.org/2000/svg" xmlns:xlink="http://www.w3.org/1999/xlink" x="0px" y="0px" width="66.35px"
	 height="235.75px" viewBox="0 0 66.35 235.75" style="enable-background:new 0 0 66.35 235.75;" xml:space="preserve">
<g>
	
		<linearGradient id="SVGID_1_" gradientUnits="userSpaceOnUse" x1="44.7334" y1="62.1187" x2="54.0846" y2="62.1187" gradientTransform="matrix(0.9999 -0.016 0.016 0.9999 1.851469e-004 4.524738e-005)">
		<stop  offset="0" style="stop-color:#EBC8AA"/>
		<stop  offset="1" style="stop-color:#F2DDC9"/>
	</linearGradient>
	<polygon style="fill-rule:evenodd;clip-rule:evenodd;fill:url(#SVGID_1_);" points="59.45,6.85 48.4,117.8 38.05,117.6 48.4,4.9 	
		"/>
	<polygon style="fill-rule:evenodd;clip-rule:evenodd;fill:#E0A578;" points="47.95,9.5 48.35,4.8 59.3,8.55 59.1,10.85 	"/>
	
		<linearGradient id="SVGID_2_" gradientUnits="userSpaceOnUse" x1="26.772" y1="179.9551" x2="49.5001" y2="179.9551" gradientTransform="matrix(0.9999 -0.0165 0.0165 0.9999 9.650737e-005 -1.544766e-004)">
		<stop  offset="0" style="stop-color:#EBC8AA"/>
		<stop  offset="1" style="stop-color:#F2DDC9"/>
	</linearGradient>
	<path style="fill-rule:evenodd;clip-rule:evenodd;fill:url(#SVGID_2_);" d="M29.55,124.1l-0.95,27.95l4.15,3.3
		c3.4,2.801,6.616,5.7,9.65,8.7c9.733,9.566,15.899,18.283,18.5,26.15c2.633,7.833,4.316,17.583,5.05,29.25
		c0.366,5.8,0.467,10.833,0.3,15.1l-9.1,1.15C38.45,203.1,26.2,182.467,20.4,173.8c-3.633-5.434-6.733-10.2-9.3-14.3l-2.75-4.55
		l4.8-31.851L29.55,124.1z"/>
	<g>
		<polygon style="fill-rule:evenodd;clip-rule:evenodd;fill:#CB9A74;" points="55.55,219.85 55.05,218.6 65.55,214.4 65.65,215.8 		
			"/>
		<polygon style="fill-rule:evenodd;clip-rule:evenodd;fill:#CB9A74;" points="46.85,192.75 46.25,191.55 58.7,185 59.3,186.2 		"/>
		<polygon style="fill-rule:evenodd;clip-rule:evenodd;fill:#CB9A74;" points="24.95,163.1 24.5,161.85 35.7,157.85 36.85,158.85 		
			"/>
		<polygon style="fill-rule:evenodd;clip-rule:evenodd;fill:#CB9A74;" points="51.95,205.55 51.5,204.3 63.45,199.8 63.7,201.1 		
			"/>
		<polygon style="fill-rule:evenodd;clip-rule:evenodd;fill:#CB9A74;" points="17.55,129.2 17.6,127.85 29.4,128.25 29.35,129.6 		
			"/>
		<polygon style="fill-rule:evenodd;clip-rule:evenodd;fill:#CB9A74;" points="37.05,177.6 36.5,176.4 48.7,170.75 49.65,171.8 		
			"/>
		<polygon style="fill-rule:evenodd;clip-rule:evenodd;fill:#CB9A74;" points="17,145.05 16.75,143.75 28.95,141.55 28.9,142.9 		
			"/>
		
			<rect x="51.17" y="22.74" transform="matrix(-0.1149 0.9934 -0.9934 -0.1149 85.8193 -20.0121)" style="fill-rule:evenodd;clip-rule:evenodd;fill:#CB9A74;" width="1.308" height="10.971"/>
		<polygon style="fill-rule:evenodd;clip-rule:evenodd;fill:#CB9A74;" points="54.95,51.95 54.85,53.3 44,52.85 44.1,51.5 		"/>
		<polygon style="fill-rule:evenodd;clip-rule:evenodd;fill:#CB9A74;" points="45.15,40.3 45.35,39 56.1,40.3 56,41.65 		"/>
		<polygon style="fill-rule:evenodd;clip-rule:evenodd;fill:#CB9A74;" points="58.45,16.9 58.35,18.25 47.2,17.8 47.3,16.45 		"/>
		<polygon style="fill-rule:evenodd;clip-rule:evenodd;fill:#CB9A74;" points="49.35,108.15 49.2,109.5 38.7,110.4 38.85,109.05 		
			"/>
		<polygon style="fill-rule:evenodd;clip-rule:evenodd;fill:#CB9A74;" points="53.25,69.2 53.1,70.55 42.55,68.25 42.65,67.1 
			42.7,66.9 		"/>
		<polygon style="fill-rule:evenodd;clip-rule:evenodd;fill:#CB9A74;" points="39.9,97.7 39.9,97.45 40,96.4 50.5,96.4 50.4,97.7 		
			"/>
		<polygon style="fill-rule:evenodd;clip-rule:evenodd;fill:#CB9A74;" points="52.1,80.75 51.95,82.1 41.3,82.1 41.4,80.75 		"/>
	</g>
	
		<linearGradient id="SVGID_3_" gradientUnits="userSpaceOnUse" x1="-47.4248" y1="-120.3252" x2="-4.9748" y2="-120.3252" gradientTransform="matrix(-1 0 0 -1 0 0)">
		<stop  offset="0" style="stop-color:#E4B48B"/>
		<stop  offset="1" style="stop-color:#D27948"/>
	</linearGradient>
	<path style="fill-rule:evenodd;clip-rule:evenodd;fill:url(#SVGID_3_);" d="M48.4,4.9L38.05,117.6l-19.8,6.35l-1.6,30.149
		l11.2,11.301c8.3,9.267,14.6,18.183,18.9,26.75c4.3,8.6,7.3,18.449,9,29.55c0.866,5.533,1.3,10.217,1.3,14.05l-31.8-1.15
		c2.867-15.8,2.9-28.1,0.1-36.899c-2.633-8.267-7.65-17.884-15.05-28.851L0,154.9l7.15-52.351l20-3.05l1.4-89.8L48.4,4.9z"/>
	<g>
		<polygon style="fill-rule:evenodd;clip-rule:evenodd;fill:#BD7B54;" points="51.7,204.25 51.75,205.6 33.4,206.45 32.55,220.65 
			55.25,218.55 55.35,219.9 26.95,222.5 27.1,221.15 31.2,220.75 32.05,206.55 27.15,206.75 27,205.45 		"/>
		<polygon style="fill-rule:evenodd;clip-rule:evenodd;fill:#BD7B54;" points="15.8,177.5 15,176.15 36.75,176.35 36.75,177.7 
			30.3,177.65 30.5,191.25 46.4,191.45 46.55,191.7 46.55,192.8 23.45,192.55 22.9,191.2 29.15,191.25 28.95,177.6 		"/>
		<polygon style="fill-rule:evenodd;clip-rule:evenodd;fill:#BD7B54;" points="16.9,145.05 3.95,145.2 3.55,159.45 2.25,157.75 
			2.6,145.2 1.3,145.25 1.5,143.9 16.9,143.75 		"/>
		<polygon style="fill-rule:evenodd;clip-rule:evenodd;fill:#BD7B54;" points="24.75,162 24.7,163.15 5.75,162.4 4.75,161.05 
			24.55,161.8 		"/>
		<polygon style="fill-rule:evenodd;clip-rule:evenodd;fill:#BD7B54;" points="27.4,83.4 27.4,82.05 30.55,81.75 31.6,68 
			27.65,67.95 27.65,66.6 42.6,66.9 42.55,68.25 32.95,68.05 31.9,81.65 41.15,80.75 41.3,82.1 		"/>
		<polygon style="fill-rule:evenodd;clip-rule:evenodd;fill:#BD7B54;" points="17.6,127.9 17.5,129.2 3.65,128.05 3.85,126.7 		"/>
		<polygon style="fill-rule:evenodd;clip-rule:evenodd;fill:#BD7B54;" points="46.35,27.2 46.25,28.3 28.25,29.9 28.25,28.55 
			33.2,28.1 33.4,18.4 28.4,18.65 28.45,17.3 47,16.45 47.05,17.75 34.75,18.35 34.55,28 46.3,26.95 		"/>
		<polygon style="fill-rule:evenodd;clip-rule:evenodd;fill:#BD7B54;" points="45.2,39 45.25,39.25 45.15,40.35 34.5,40.95 
			33.7,53.1 43.8,51.5 44,52.7 44,52.85 27.85,55.4 27.85,54 32.35,53.3 33.15,41 28.05,41.3 28.1,39.95 		"/>
		<polygon style="fill-rule:evenodd;clip-rule:evenodd;fill:#BD7B54;" points="29.8,96.2 27.2,95.85 27.25,94.5 40,96.4 40,96.45 
			39.8,97.7 31.1,96.4 30.35,109.65 38.3,109.1 38.4,110.45 5.75,112.7 5.95,111.35 29,109.75 		"/>
	</g>
	<polygon style="fill-rule:evenodd;clip-rule:evenodd;fill:#B36940;" points="38.05,117.6 48.4,117.8 29.55,124.1 18.25,123.95 	"/>
	<polygon style="fill-rule:evenodd;clip-rule:evenodd;fill:#C1787D;" points="48.6,0 63.4,3.25 61.5,9 48.95,6.75 	"/>
	<polygon style="fill-rule:evenodd;clip-rule:evenodd;fill:#B36940;" points="48.15,6.85 47.95,9.5 28.6,12.65 28.5,10.75 	"/>
	<polygon style="fill-rule:evenodd;clip-rule:evenodd;fill:#9B535C;" points="48.6,0 48.95,6.75 25.6,11.3 24.5,2.9 	"/>
</g>
</svg>
