<?xml version="1.0" encoding="iso-8859-1"?>
<!-- Generator: Adobe Illustrator 15.1.0, SVG Export Plug-In . SVG Version: 6.00 Build 0)  -->
<!DOCTYPE svg PUBLIC "-//W3C//DTD SVG 1.1//EN" "http://www.w3.org/Graphics/SVG/1.1/DTD/svg11.dtd">
<svg version="1.1" id="chimney_x5F_yellow_x5F_front_x5F_01.ai"
	 xmlns="http://www.w3.org/2000/svg" xmlns:xlink="http://www.w3.org/1999/xlink" x="0px" y="0px" width="57.8px" height="191.55px"
	 viewBox="0 0 57.8 191.55" style="enable-background:new 0 0 57.8 191.55;" xml:space="preserve">
<g>
	<polygon style="fill-rule:evenodd;clip-rule:evenodd;fill:#FCE5BC;" points="22.95,48.9 23.65,19.7 33.7,20.1 35.05,38.85 
		45.75,39.55 57.8,101.15 46.4,110.55 44.4,121.25 57.8,130 51.8,188.25 38.65,191.55 39.05,144.7 27.65,124.6 33.7,108.55 
		39.05,83.75 	"/>
	<g>
		<polygon style="fill-rule:evenodd;clip-rule:evenodd;fill:#E0CCA6;" points="40.4,176.2 40.15,174.9 53.35,172.85 53.25,174.2 		
			"/>
		<polygon style="fill-rule:evenodd;clip-rule:evenodd;fill:#E0CCA6;" points="41.8,162.15 41.65,160.8 54.8,159 54.65,160.4 		"/>
		<polygon style="fill-rule:evenodd;clip-rule:evenodd;fill:#E0CCA6;" points="43.4,147.2 43.4,145.85 56.2,145.75 56.05,147.1 		
			"/>
		<polygon style="fill-rule:evenodd;clip-rule:evenodd;fill:#E0CCA6;" points="44.7,134.7 44.55,133.4 57.6,131.8 57.5,133.15 		"/>
		<polygon style="fill-rule:evenodd;clip-rule:evenodd;fill:#E0CCA6;" points="45.25,116.75 45,118.1 33.7,118.7 33.65,117.35 		"/>
		<polygon style="fill-rule:evenodd;clip-rule:evenodd;fill:#E0CCA6;" points="47.45,102.3 47.4,100.95 57.65,100.35 57.8,101.15 
			57.15,101.7 		"/>
		<polygon style="fill-rule:evenodd;clip-rule:evenodd;fill:#E0CCA6;" points="43.95,85.2 44,83.85 54.45,84.1 54.75,85.45 		"/>
		<polygon style="fill-rule:evenodd;clip-rule:evenodd;fill:#E0CCA6;" points="41.75,72.35 41.5,71.05 51.6,69.3 51.85,70.65 		"/>
		<polygon style="fill-rule:evenodd;clip-rule:evenodd;fill:#E0CCA6;" points="38.85,58.4 38.8,57.05 49.05,56.45 49.3,57.75 		"/>
		<polygon style="fill-rule:evenodd;clip-rule:evenodd;fill:#E0CCA6;" points="46.6,44 46.9,45.35 36.15,45.55 36.15,44.2 		"/>
		<polygon style="fill-rule:evenodd;clip-rule:evenodd;fill:#E0CCA6;" points="24.25,33.15 24.35,31.85 34.6,32.35 34.7,33.7 		"/>
		<polygon style="fill-rule:evenodd;clip-rule:evenodd;fill:#E0CCA6;" points="33.75,21.05 33.85,22.4 23.6,20.35 23.65,19.7 
			28,19.85 		"/>
	</g>
	
		<linearGradient id="SVGID_1_" gradientUnits="userSpaceOnUse" x1="30.9932" y1="98.1758" x2="58.5159" y2="98.1758" gradientTransform="matrix(0.9974 0.0727 -0.0727 0.9974 1.983643e-004 1.269579e-005)">
		<stop  offset="0" style="stop-color:#FAD898"/>
		<stop  offset="1" style="stop-color:#F7C568"/>
	</linearGradient>
	<polygon style="fill-rule:evenodd;clip-rule:evenodd;fill:url(#SVGID_1_);" points="35.05,38.85 47.65,102 34.15,112.1 
		32.95,125.7 44.6,134.05 38.65,191.55 17.25,185.7 30,143.55 18.6,139.85 23.65,104.4 32.7,99.2 21.4,55.7 12.3,57.1 5.45,12.45 
		22.8,9.8 24.85,39.65 	"/>
	<g>
		<polygon style="fill-rule:evenodd;clip-rule:evenodd;fill:#CEB071;" points="25.35,158.9 25.75,157.65 41.85,160.8 41.85,160.95 
			41.6,162.15 37.25,161.25 37.05,173.8 40.4,174.9 40.35,175.35 40.05,176.2 21.9,170.3 22.3,169 35.7,173.35 35.9,161 		"/>
		<polygon style="fill-rule:evenodd;clip-rule:evenodd;fill:#CEB071;" points="42.9,132.85 44.6,134.05 44.4,134.7 39,133.05 
			38.4,145.35 43.4,145.85 43.25,147.15 29.35,145.75 29.75,144.45 37.1,145.2 37.7,132.65 20.4,127.35 20.6,126 		"/>
		<polygon style="fill-rule:evenodd;clip-rule:evenodd;fill:#CEB071;" points="33.6,118.3 33.5,118.7 22.05,115.5 22.25,114.15 
			33.7,117.35 		"/>
		<polygon style="fill-rule:evenodd;clip-rule:evenodd;fill:#CEB071;" points="47.45,100.95 47.5,101.15 47.35,102.2 47.25,102.25 
			40.15,101.25 40,107.75 38.65,108.75 38.8,101.05 31.4,99.95 32.7,99.2 32.6,98.8 		"/>
		<polygon style="fill-rule:evenodd;clip-rule:evenodd;fill:#CEB071;" points="29.35,86.15 29,84.85 37.2,84.3 36.4,72.25 
			25.7,72.1 25.35,70.75 41.5,71 41.6,71.7 41.6,72.35 37.75,72.3 38.55,84.2 43.9,83.85 44,85.2 		"/>
		<polygon style="fill-rule:evenodd;clip-rule:evenodd;fill:#CEB071;" points="32.35,46 10.95,48.3 10.75,46.95 36.05,44.25 
			36.2,45.55 33.7,45.85 33.9,57.65 38.7,57.05 38.9,58.4 22.6,60.3 22.3,59 32.55,57.8 		"/>
		<polygon style="fill-rule:evenodd;clip-rule:evenodd;fill:#CEB071;" points="23.4,19 23.5,20.4 15.6,22.85 15.6,33.15 24.2,31.85 
			24.4,32.95 24.4,33.15 9,35.55 8.8,34.25 14.25,33.4 14.25,23.3 7.45,25.4 7.25,24.05 		"/>
	</g>
	<polygon style="fill-rule:evenodd;clip-rule:evenodd;fill:#CEB071;" points="6.3,17.95 23.45,16.2 23.65,19.7 6.65,20 	"/>
	<polygon style="fill-rule:evenodd;clip-rule:evenodd;fill:#E7C47D;" points="23.45,16.2 34.35,16.4 33.7,20.1 23.65,19.65 	"/>
	<polygon style="fill-rule:evenodd;clip-rule:evenodd;fill:#448793;" points="0,2.45 27.8,0 29.45,15.4 0.4,18.5 	"/>
	<polygon style="fill-rule:evenodd;clip-rule:evenodd;fill:#6C9EA9;" points="27.8,0 37.05,3 36.7,16.1 25.1,15.85 	"/>
</g>
</svg>
