<?xml version="1.0" encoding="iso-8859-1"?>
<!-- Generator: Adobe Illustrator 15.1.0, SVG Export Plug-In . SVG Version: 6.00 Build 0)  -->
<!DOCTYPE svg PUBLIC "-//W3C//DTD SVG 1.1//EN" "http://www.w3.org/Graphics/SVG/1.1/DTD/svg11.dtd">
<svg version="1.1" id="chimney_x5F_blue_x5F_background_x5F_02.ai"
	 xmlns="http://www.w3.org/2000/svg" xmlns:xlink="http://www.w3.org/1999/xlink" x="0px" y="0px" width="27.45px" height="68.75px"
	 viewBox="0 0 27.45 68.75" style="enable-background:new 0 0 27.45 68.75;" xml:space="preserve">
<g>
	<linearGradient id="SVGID_1_" gradientUnits="userSpaceOnUse" x1="0.4126" y1="35.5254" x2="16.3876" y2="35.5254">
		<stop  offset="0" style="stop-color:#A1B1B3"/>
		<stop  offset="1" style="stop-color:#C6CFD1"/>
	</linearGradient>
	<polygon style="fill-rule:evenodd;clip-rule:evenodd;fill:url(#SVGID_1_);" points="3.6,2.3 18.35,5 13.6,23.6 17.45,25 
		17.25,47.9 12.9,49.05 14.4,68.75 0,67.65 2.5,46.75 5.65,46.75 5.2,24.55 0.65,23.4 	"/>
	<g>
		<polygon style="fill-rule:evenodd;clip-rule:evenodd;fill:#9CAFB3;" points="5.6,45.15 5.6,44.35 8.45,44.8 8.3,37.75 5.45,37.2 
			5.45,36.35 17.3,38.65 17.3,38.9 17.2,39.45 9.1,37.9 9.3,44.9 17.25,46.15 17.25,46.85 17.2,46.95 		"/>
		<polygon style="fill-rule:evenodd;clip-rule:evenodd;fill:#9CAFB3;" points="14.35,20.45 9.1,19.75 9.35,29.05 17.4,30.55 
			17.4,31.35 5.3,29.1 5.3,28.25 8.55,28.9 8.3,19.65 1.3,18.75 1.45,17.95 14.45,19.65 		"/>
		<polygon style="fill-rule:evenodd;clip-rule:evenodd;fill:#9CAFB3;" points="16,13.15 15.8,13.95 2.5,10.3 2.6,9.5 8.7,11.15 
			9.1,4.25 9.9,4.3 9.5,11.4 		"/>
		<polygon style="fill-rule:evenodd;clip-rule:evenodd;fill:#9CAFB3;" points="13.5,57.35 13.3,58.15 8.85,57 8.5,64.25 
			14.15,65.35 14.15,65.85 14.1,66.15 0.5,63.5 0.6,62.7 7.7,64.1 8.05,56.8 1.5,55.1 1.6,54.3 		"/>
	</g>
	<polygon style="fill-rule:evenodd;clip-rule:evenodd;fill:#8AA2A6;" points="3.2,4.35 17.45,7.3 16.8,9.65 2.9,7.45 	"/>
	
		<linearGradient id="SVGID_2_" gradientUnits="userSpaceOnUse" x1="13.1553" y1="16.0381" x2="24.7312" y2="16.0381" gradientTransform="matrix(0.9999 -0.013 0.013 0.9999 -9.403657e-005 -1.938175e-004)">
		<stop  offset="0" style="stop-color:#D5DBDC"/>
		<stop  offset="1" style="stop-color:#DFE4E5"/>
	</linearGradient>
	<polygon style="fill-rule:evenodd;clip-rule:evenodd;fill:url(#SVGID_2_);" points="24.85,7 19.85,24.5 13.45,23.75 17.35,7.3 	"/>
	<polygon style="fill-rule:evenodd;clip-rule:evenodd;fill:#B4C1C3;" points="16.8,9.65 17.45,7.3 24.95,7.05 24.5,8.75 	"/>
	<linearGradient id="SVGID_3_" gradientUnits="userSpaceOnUse" x1="17.2129" y1="36.4502" x2="22.1879" y2="36.4502">
		<stop  offset="0" style="stop-color:#D5DBDC"/>
		<stop  offset="1" style="stop-color:#DFE4E5"/>
	</linearGradient>
	<polygon style="fill-rule:evenodd;clip-rule:evenodd;fill:url(#SVGID_3_);" points="17.45,25 22.2,25.65 22,47.65 17.25,47.9 	"/>
	<linearGradient id="SVGID_4_" gradientUnits="userSpaceOnUse" x1="12.9126" y1="58.9004" x2="21.9876" y2="58.9004">
		<stop  offset="0" style="stop-color:#D5DBDC"/>
		<stop  offset="1" style="stop-color:#DFE4E5"/>
	</linearGradient>
	<polygon style="fill-rule:evenodd;clip-rule:evenodd;fill:url(#SVGID_4_);" points="19.25,49.25 22,68.75 14.4,68.75 12.9,49.05 	
		"/>
	<g>
		<polygon style="fill-rule:evenodd;clip-rule:evenodd;fill:#C8D0D2;" points="14.2,66.15 14.15,65.35 21.4,64.7 21.55,65.45 		"/>
		<polygon style="fill-rule:evenodd;clip-rule:evenodd;fill:#C8D0D2;" points="20.2,56.05 20.35,56.85 13.6,58.1 13.55,57.3 		"/>
		<polygon style="fill-rule:evenodd;clip-rule:evenodd;fill:#C8D0D2;" points="17.3,46.95 17.25,46.15 22,45.75 22,46.55 		"/>
		<polygon style="fill-rule:evenodd;clip-rule:evenodd;fill:#C8D0D2;" points="17.5,31.35 17.45,30.55 22.15,30.3 22.15,31.1 		"/>
		<polygon style="fill-rule:evenodd;clip-rule:evenodd;fill:#C8D0D2;" points="22.1,38.35 22.1,39.15 17.3,39.45 17.3,38.65 		"/>
		<polygon style="fill-rule:evenodd;clip-rule:evenodd;fill:#C8D0D2;" points="23.15,13 15.95,13.95 15.9,13.8 16.1,13.15 
			23.45,12.15 		"/>
		<polygon style="fill-rule:evenodd;clip-rule:evenodd;fill:#C8D0D2;" points="21.15,19.8 14.4,20.45 14.4,20.2 14.55,19.65 
			21.4,18.95 		"/>
	</g>
	<polygon style="fill-rule:evenodd;clip-rule:evenodd;fill:#54696F;" points="1.1,0 20.4,0.05 19.7,7.95 0.2,4.55 	"/>
	<polygon style="fill-rule:evenodd;clip-rule:evenodd;fill:#63757B;" points="20.4,0.05 27.45,0.95 26.75,7.5 19.7,7.95 	"/>
	<linearGradient id="SVGID_5_" gradientUnits="userSpaceOnUse" x1="13.5996" y1="24.625" x2="22.2002" y2="24.625">
		<stop  offset="0" style="stop-color:#D5DBDC"/>
		<stop  offset="1" style="stop-color:#DFE4E5"/>
	</linearGradient>
	<polygon style="fill-rule:evenodd;clip-rule:evenodd;fill:url(#SVGID_5_);" points="22.2,25.65 17.45,25 13.6,23.6 19.85,24.5 	"/>
	<polygon style="fill-rule:evenodd;clip-rule:evenodd;fill:#B4C1C3;" points="22,47.65 19.25,49.25 12.9,49.05 17.25,47.9 	"/>
</g>
</svg>
