<?xml version="1.0" encoding="iso-8859-1"?>
<!-- Generator: Adobe Illustrator 15.1.0, SVG Export Plug-In . SVG Version: 6.00 Build 0)  -->
<!DOCTYPE svg PUBLIC "-//W3C//DTD SVG 1.1//EN" "http://www.w3.org/Graphics/SVG/1.1/DTD/svg11.dtd">
<svg version="1.1" id="chimney_x5F_orange_x5F_front_x5F_02.ai"
	 xmlns="http://www.w3.org/2000/svg" xmlns:xlink="http://www.w3.org/1999/xlink" x="0px" y="0px" width="66.35px" height="216.9px"
	 viewBox="0 0 66.35 216.9" style="enable-background:new 0 0 66.35 216.9;" xml:space="preserve">
<g>
	<path style="fill-rule:evenodd;clip-rule:evenodd;fill:#60383E;" d="M21.8,17.65L34.9,13.5c0.466,4,0.616,6,0.449,6L21.8,17.65z"/>
	
		<linearGradient id="SVGID_1_" gradientUnits="userSpaceOnUse" x1="36.3223" y1="32.0723" x2="43.0305" y2="32.0723" gradientTransform="matrix(0.9839 0.1789 -0.1789 0.9839 2.937615e-004 -1.444072e-004)">
		<stop  offset="0" style="stop-color:#8F5837"/>
		<stop  offset="1" style="stop-color:#CF703E"/>
	</linearGradient>
	<polygon style="fill-rule:evenodd;clip-rule:evenodd;fill:url(#SVGID_1_);" points="40.4,15.85 33.3,63 28.4,61.05 30.8,13.85 	"/>
	<polygon style="fill-rule:evenodd;clip-rule:evenodd;fill:#955B39;" points="37.6,20.95 30.5,19.7 30.65,17 37.8,18.1 	"/>
	<polygon style="fill-rule:evenodd;clip-rule:evenodd;fill:#7F474F;" points="35.35,0 31.2,17.55 21.8,17.65 24.2,0.45 	"/>
	
		<linearGradient id="SVGID_2_" gradientUnits="userSpaceOnUse" x1="124.1602" y1="127.5039" x2="131.5358" y2="127.5039" gradientTransform="matrix(0.7593 0.6508 -0.6508 0.7593 -7.885695e-005 2.610683e-004)">
		<stop  offset="0" style="stop-color:#8F5837"/>
		<stop  offset="1" style="stop-color:#CF703E"/>
	</linearGradient>
	<polygon style="fill-rule:evenodd;clip-rule:evenodd;fill:url(#SVGID_2_);" points="32.8,161.45 2.3,204.5 0,193.05 25.6,156.65 	
		"/>
	
		<linearGradient id="SVGID_3_" gradientUnits="userSpaceOnUse" x1="48.5381" y1="100.4063" x2="66.402" y2="100.4063" gradientTransform="matrix(0.9838 0.1791 -0.1791 0.9838 1.728386e-004 5.285293e-004)">
		<stop  offset="0" style="stop-color:#8F5837"/>
		<stop  offset="1" style="stop-color:#CF703E"/>
	</linearGradient>
	<path style="fill-rule:evenodd;clip-rule:evenodd;fill:url(#SVGID_3_);" d="M48,61.05l0.4,58.4l-14.4,6.8
		c-11.667,18.403-17.425,27.937-17.275,28.6l-4.325-4.6l15.2-35.6l13.2-3.601l-2-49.6L48,61.05z"/>
	<g>
		<polygon style="fill-rule:evenodd;clip-rule:evenodd;fill:#895E42;" points="0.9,197.6 0.05,193.3 3.55,202.1 2.8,202.4 		"/>
		<polygon style="fill-rule:evenodd;clip-rule:evenodd;fill:#895E42;" points="10.65,189.9 10.15,190.55 4.6,186.45 5.05,185.8 		
			"/>
		<polygon style="fill-rule:evenodd;clip-rule:evenodd;fill:#895E42;" points="15.75,182.25 15.45,183 8.95,180.25 9.45,179.6 		"/>
		<polygon style="fill-rule:evenodd;clip-rule:evenodd;fill:#895E42;" points="21.35,171.9 21,172.6 16.1,170.15 16.55,169.45 		"/>
		<polygon style="fill-rule:evenodd;clip-rule:evenodd;fill:#895E42;" points="20.95,144.25 20.65,145 15.55,142.8 15.9,142.05 		
			"/>
		<polygon style="fill-rule:evenodd;clip-rule:evenodd;fill:#895E42;" points="30.15,122.65 29.85,123.4 24.7,121.35 25.05,120.6 		
			"/>
		<polygon style="fill-rule:evenodd;clip-rule:evenodd;fill:#895E42;" points="25.8,133.9 25.35,134.55 20.45,131.3 20.8,130.55 		
			"/>
		<polygon style="fill-rule:evenodd;clip-rule:evenodd;fill:#895E42;" points="43.7,103.85 43.5,104.6 40.5,103.85 40.45,103 		"/>
		<polygon style="fill-rule:evenodd;clip-rule:evenodd;fill:#895E42;" points="43.85,114.3 43.35,114.95 38.75,111.6 39.75,111.3 		
			"/>
		<polygon style="fill-rule:evenodd;clip-rule:evenodd;fill:#895E42;" points="40.1,93.65 40.05,92.8 43.7,93.85 43.5,94.6 		"/>
		<polygon style="fill-rule:evenodd;clip-rule:evenodd;fill:#895E42;" points="39.65,82.35 39.6,81.55 44.05,82.25 43.95,83.05 		
			"/>
		<polygon style="fill-rule:evenodd;clip-rule:evenodd;fill:#895E42;" points="39.15,70.25 39.1,69.4 39.3,69.45 43.25,69.85 
			43.15,70.65 		"/>
		<polygon style="fill-rule:evenodd;clip-rule:evenodd;fill:#895E42;" points="34,51.85 33.95,52.65 28.85,52.4 28.85,51.6 		"/>
		<polygon style="fill-rule:evenodd;clip-rule:evenodd;fill:#895E42;" points="36.35,28.65 36.45,29.45 29.95,30.4 30,29.6 		"/>
		<rect x="29.45" y="39.85" style="fill-rule:evenodd;clip-rule:evenodd;fill:#895E42;" width="6.149" height="0.8"/>
	</g>
	
		<linearGradient id="SVGID_4_" gradientUnits="userSpaceOnUse" x1="-68.481" y1="-113.1855" x2="-31.6462" y2="-113.1855" gradientTransform="matrix(-0.9991 -0.0434 0.0434 -0.9991 1.565851e-004 1.360588e-004)">
		<stop  offset="0" style="stop-color:#E4B48B"/>
		<stop  offset="1" style="stop-color:#D27948"/>
	</linearGradient>
	<polygon style="fill-rule:evenodd;clip-rule:evenodd;fill:url(#SVGID_4_);" points="51.85,47.5 63.25,49.55 59.1,121.85 
		41.55,129.1 36.4,143.55 46.7,155.95 24,216.9 2.3,204.5 28.1,162.15 16.75,154.9 32.25,117.75 43.6,114.65 43.6,64 33.3,63 
		38.45,12.4 58.05,14.45 	"/>
	<polygon style="fill-rule:evenodd;clip-rule:evenodd;fill:#BD7B54;" points="23.75,194.9 24.8,195.35 23.25,207.85 22.1,208.15 	
		"/>
	<g>
		<polygon style="fill-rule:evenodd;clip-rule:evenodd;fill:#BD7B54;" points="26.75,209.5 3.4,202.7 3.8,202 27,208.75 		"/>
		<polygon style="fill-rule:evenodd;clip-rule:evenodd;fill:#BD7B54;" points="52.65,43.3 52.5,44.05 46.1,42.75 46.1,52.95 
			62.95,54.6 62.9,55.4 57.85,54.9 57.2,69.85 62.05,69.85 62.05,70.65 47.7,70.65 47.1,82.3 61.35,82.5 61.3,83.3 58.55,83.25 
			58.65,93.85 60.7,93.85 60.65,94.65 47.85,94.65 47.2,103.85 60.15,103.85 60.1,104.65 59.05,104.65 58.95,114.25 59.55,114.25 
			59.5,115.05 45.95,115.05 45.1,123.95 52.45,124.6 50.8,125.25 31.4,123.55 30.45,133.85 39.85,133.85 39.55,134.65 25.6,134.65 
			25.6,133.85 29.65,133.85 30.6,123.5 29.95,123.45 30,123.15 30.2,122.65 44.3,123.9 45.15,115.05 43.6,115.05 43.6,114.25 
			58.15,114.25 58.25,104.65 43.6,104.65 43.6,103.85 46.4,103.85 47.05,94.65 43.6,94.65 43.6,93.85 57.85,93.85 57.75,83.25 
			44,83.05 44,82.25 46.3,82.25 46.9,70.65 43.6,70.65 43.6,69.85 56.4,69.85 57.05,54.85 34.35,52.65 34.4,51.85 45.3,52.9 
			45.3,42.6 35.55,40.65 35.65,39.85 		"/>
		<polygon style="fill-rule:evenodd;clip-rule:evenodd;fill:#BD7B54;" points="28.1,146 20.85,145.05 21.2,144.3 38.9,146.6 
			39.65,147.5 28.9,146.1 28.8,158.7 45.25,159.9 44.95,160.7 41.55,160.45 40.3,171.85 40.8,171.85 40.5,172.65 27,172.65 
			25.75,183.45 36,184.7 35.7,185.5 15.55,183.05 15.6,182.7 15.85,182.25 24.95,183.35 26.2,172.65 21.7,172.65 22.2,171.85 
			39.5,171.85 40.75,160.35 23.3,159.1 21.9,158.15 28,158.6 		"/>
		<polygon style="fill-rule:evenodd;clip-rule:evenodd;fill:#BD7B54;" points="10.65,190.75 11.1,190.05 31.25,197.4 30.95,198.15 
					"/>
		<polygon style="fill-rule:evenodd;clip-rule:evenodd;fill:#BD7B54;" points="54.8,31.8 54.65,32.6 36.7,29.5 36.8,28.7 
			45.65,30.25 46.25,18.6 47.05,18.65 46.4,30.35 		"/>
	</g>
	<polygon style="fill-rule:evenodd;clip-rule:evenodd;fill:#B36940;" points="56.95,21.55 56.2,25.4 37.6,20.95 37.8,18.1 	"/>
	<polygon style="fill-rule:evenodd;clip-rule:evenodd;fill:#9B535C;" points="66.35,5.15 64.25,22.7 31.2,17.55 35.35,0 	"/>
</g>
</svg>
