<?xml version="1.0" encoding="iso-8859-1"?>
<!-- Generator: Adobe Illustrator 15.1.0, SVG Export Plug-In . SVG Version: 6.00 Build 0)  -->
<!DOCTYPE svg PUBLIC "-//W3C//DTD SVG 1.1//EN" "http://www.w3.org/Graphics/SVG/1.1/DTD/svg11.dtd">
<svg version="1.1" id="back_mountains" xmlns="http://www.w3.org/2000/svg" xmlns:xlink="http://www.w3.org/1999/xlink" x="0px"
	 y="0px" width="256px" height="411px" viewBox="0 0 256 411" style="enable-background:new 0 0 256 411;" xml:space="preserve">
<linearGradient id="SVGID_1_" gradientUnits="userSpaceOnUse" x1="7.2222" y1="-128" x2="855.1222" y2="-128" gradientTransform="matrix(1.179384e-006 1 -1 -0.001 -2.550691e-004 -1.605356e-004)">
	<stop  offset="0" style="stop-color:#DEB96B"/>
	<stop  offset="1" style="stop-color:#D8E8D9"/>
</linearGradient>
<path style="fill-rule:evenodd;clip-rule:evenodd;fill:url(#SVGID_1_);" d="M213,66c-3,8.5-6,17.217-9,26.15
	c-6,17.833-9,27.783-9,29.85c0,1.833,2,11.417,6,28.75s6,26.417,6,27.25c0,1.267-2.667,10.317-8,27.15
	c-2.667,8.4-5.333,16.683-8,24.85l-25,38l26,6l17-16l15-20l8-35v35l-12,21l8,11l28-13l-24,18l-29,1l-24,7l-14,14l22,20l-1,20l-7-20
	l-26-22l-38,22l3,50l-26,44l17-44c-0.833-8.5-1.617-17.116-2.35-25.85c-1.5-17.5-2.05-26.884-1.65-28.15
	c0.433-1.233,3.9-6.1,10.4-14.6L125,286l-8-31l-16-1l-26,6l-40,19l28-22l38-14l-3-13l-25,4l-26-11L0,247l45-33l34,10l46-28l-8-67
	l-17-9l-57,10l48-17l38,4L99,92L53,49l-39,6l38-13l24.85,20.15C93.917,75.983,103.633,83.933,106,86c3.033,2.7,15.033,11.7,36,27
	l19,19l13,33l19,1l-5-47l16-52l4-67L213,66z"/>
<g>
	<path style="fill-rule:evenodd;clip-rule:evenodd;fill:#FBDBA1;" d="M53.3,216.5c-0.1,3.634,2.483,6.9,7.75,9.8
		c4.3,2.4,10.55,4.617,18.75,6.65l-5.65,0.899c-12.533-3.733-20.45-9.25-23.75-16.55c-0.233-0.5-0.45-1.116-0.65-1.85L53.3,216.5z"
		/>
	<path style="fill-rule:evenodd;clip-rule:evenodd;fill:#FBDBA1;" d="M218.3,245.6l1.75-2.35c2.334,1.167,4.75,2.167,7.25,3
		l-1.5,2.55C223.4,247.934,220.9,246.866,218.3,245.6z"/>
	<path style="fill-rule:evenodd;clip-rule:evenodd;fill:#FBDBA1;" d="M167.85,187.4c9.7-0.833,21.717-0.217,36.051,1.85
		c-3.067,10.233-7.367,23.816-12.9,40.75l-10.95,16.65c-2.833,1.5-5.8,2.6-8.899,3.3c-8.2,1.866-17.75-0.45-28.65-6.95
		c-4.967-3-11.733-8.134-20.3-15.4l-0.15,3.801c0.034,3.1,0.383,6.05,1.05,8.85c2.2,8.9,7.266,14.616,15.2,17.15
		c7.5,2.366,14.334,3.449,20.5,3.25c5-0.2,9.7-1.25,14.101-3.15l-1.4,2.15c-4.434,1.333-9.217,2.166-14.35,2.5
		c-15.134,0.866-26.434-2.784-33.9-10.95c-2.333-2.566-4.133-5.434-5.4-8.601l-1.25-3.949c-4.733,0.166-10.317,0.017-16.75-0.45
		l-0.35-1.55c5.467,0.366,9.75-0.317,12.85-2.051c0.967-0.533,1.75-1.133,2.35-1.8l0.65-0.85c-6.333-0.334-12.1-0.834-17.3-1.5
		L98,230l-1.45,0.25l-1.05-0.15c-4.633-0.699-8.05-1.383-10.25-2.05c-3.933-1.166-7.267-2.883-10-5.149L79,224l29.65-18.05
		c7.9,0.866,14.817,1.8,20.75,2.8c2.133-3.2,5.35-6.5,9.649-9.9C147.583,192.083,157.184,188.267,167.85,187.4z"/>
	<path style="fill-rule:evenodd;clip-rule:evenodd;fill:#FBDBA1;" d="M232,203v32.7c-2.634-1.167-4.85-2.4-6.65-3.7L232,203z"/>
	<path style="fill-rule:evenodd;clip-rule:evenodd;fill:#F9D38B;" d="M85.25,228.05c2.2,0.667,5.617,1.351,10.25,2.05l1.05,0.15
		l-16.75,2.7c-8.2-2.033-14.45-4.25-18.75-6.65c-5.267-2.899-7.85-6.166-7.75-9.8l21.95,6.4
		C77.983,225.167,81.317,226.884,85.25,228.05z"/>
	<path style="fill-rule:evenodd;clip-rule:evenodd;fill:#F9D38B;" d="M115.35,231.95l-0.65,0.85c-0.6,0.667-1.383,1.267-2.35,1.8
		c-3.1,1.733-7.383,2.417-12.85,2.051l-1.45-6.2C103.25,231.116,109.017,231.616,115.35,231.95z"/>
	<path style="fill-rule:evenodd;clip-rule:evenodd;fill:#F9D38B;" d="M122.2,227.6c8.566,7.267,15.333,12.4,20.3,15.4
		c10.9,6.5,20.45,8.816,28.65,6.95c3.1-0.7,6.066-1.8,8.899-3.3L172.9,257.5c-4.4,1.9-9.101,2.95-14.101,3.15
		c-6.166,0.199-13-0.884-20.5-3.25c-7.934-2.534-13-8.25-15.2-17.15c-0.667-2.8-1.017-5.75-1.05-8.85L122.2,227.6z"/>
	<path style="fill-rule:evenodd;clip-rule:evenodd;fill:#F9D38B;" d="M232,238l-4.7,8.25c-2.5-0.833-4.916-1.833-7.25-3L224,238
		l1.35-6c1.801,1.3,4.017,2.533,6.65,3.7V238z"/>
</g>
<g>
	<path style="fill-rule:evenodd;clip-rule:evenodd;fill:#A38955;" d="M125,256.35l7.65,31.351l-23.65,27l4,52.3l-21,44l17-44
		c-0.833-8.5-1.617-17.116-2.35-25.85c-1.5-17.5-2.05-26.884-1.65-28.15c0.433-1.233,3.9-6.1,10.4-14.6L125,286l-8-31L125,256.35z"
		/>
	<polygon style="fill-rule:evenodd;clip-rule:evenodd;fill:#A38955;" points="101,243 98.05,230.45 102,231.35 107,246.35 
		66.3,258.7 35,279 63,257 	"/>
	<polygon style="fill-rule:evenodd;clip-rule:evenodd;fill:#A38955;" points="153,295 158.65,295.35 182.65,317.35 186,337 179,317 
			"/>
	<polygon style="fill-rule:evenodd;clip-rule:evenodd;fill:#A38955;" points="224,238 232,203 227.3,239 208.65,262.7 196,273.35 
		192,274 209,258 	"/>
	<polygon style="fill-rule:evenodd;clip-rule:evenodd;fill:#A38955;" points="233,270.35 228,270 256,257 	"/>
	<polygon style="fill-rule:evenodd;clip-rule:evenodd;fill:#A38955;" points="45,214 50.1,215.55 0,247 	"/>
	<polygon style="fill-rule:evenodd;clip-rule:evenodd;fill:#A38955;" points="91,113 98,113.75 43,130 	"/>
	<polygon style="fill-rule:evenodd;clip-rule:evenodd;fill:#A38955;" points="117,129 100,120 113.3,123.7 123.3,130.7 128.65,197 
		85.3,223.7 79,224 125,196 	"/>
	<polygon style="fill-rule:evenodd;clip-rule:evenodd;fill:#A38955;" points="53,49 63.65,54.35 134,117 129,117 99,92 	"/>
	<polygon style="fill-rule:evenodd;clip-rule:evenodd;fill:#A38955;" points="204,67 208,0 208.65,66 190.3,119 196.65,165.7 
		193,166 188,119 	"/>
</g>
</svg>
