<?xml version="1.0" encoding="iso-8859-1"?>
<!-- Generator: Adobe Illustrator 15.1.0, SVG Export Plug-In . SVG Version: 6.00 Build 0)  -->
<!DOCTYPE svg PUBLIC "-//W3C//DTD SVG 1.1//EN" "http://www.w3.org/Graphics/SVG/1.1/DTD/svg11.dtd">
<svg version="1.1" id="buildings" xmlns="http://www.w3.org/2000/svg" xmlns:xlink="http://www.w3.org/1999/xlink" x="0px" y="0px"
	 width="154.65px" height="93.55px" viewBox="0 0 154.65 93.55" style="enable-background:new 0 0 154.65 93.55;"
	 xml:space="preserve">
<g>
	<path style="fill-rule:evenodd;clip-rule:evenodd;fill:#81908E;" d="M130.3,32.65c-11-2.533-19.55-4.433-25.649-5.7
		c-23.801-5.067-37.467-6.034-41-2.9c-3.733,3.333-10.517,14.5-20.35,33.5c-4.933,9.5-9.483,18.667-13.65,27.5
		c-2.833,1-6.083,1.75-9.75,2.25c-7.333,1-13.083,0.25-17.25-2.25c5.5-12,11.8-24.416,18.9-37.25
		c14.167-25.667,25.2-40.583,33.1-44.75c8.2-4.3,26.417-4.083,54.65,0.65c10.033,1.667,19.7,3.65,29,5.95
		c8.434,2.1,13.217,3.567,14.351,4.4c1,0.733,1.616,2.2,1.85,4.4c0.267,2.167,0.116,4.45-0.45,6.85
		c-1.434,6.034-4.233,9.284-8.399,9.75C143.783,35.25,138.667,34.45,130.3,32.65z"/>
	<g>
		<path style="fill-rule:evenodd;clip-rule:evenodd;fill:#637572;" d="M32.05,35.75c1.534-2.7,4.15-6.75,7.85-12.15
			c3.867-5.567,7.133-10,9.8-13.3c-6.667,7.6-11.717,13.85-15.15,18.75C31.717,33.15,27.2,41.183,21,53.15
			c-3.1,6-5.917,11.583-8.45,16.75l0.25,0.25c0.267,0.233,0.633,0.483,1.1,0.75c0.767,0.433,1.55,0.649,2.35,0.649
			C24.35,52.017,29.617,40.083,32.05,35.75z M54.65,3.05c1.3-0.667,2.733-1.183,4.3-1.55c-0.6,0.6-0.9,1.117-0.9,1.55
			c0,0.833,2.167,1.034,6.5,0.6c2.167-0.2,4.333-0.5,6.5-0.9c-4.433,1.1-8.433,2.433-12,4c-2.566,1.133-4.667,2.667-6.3,4.6
			c-1.667,2-4.567,6.467-8.7,13.4c-3.466,5.833-8.45,16.3-14.95,31.4c-3.233,7.566-6.133,14.533-8.7,20.899
			c-4.467,0.733-8.717-0.1-12.75-2.5c7.6-15.5,14.867-29,21.8-40.5C39.95,16.717,48.35,6.383,54.65,3.05z"/>
		<path style="fill-rule:evenodd;clip-rule:evenodd;fill:#637572;" d="M152.95,28.55c-1.7,4-4.134,6.167-7.3,6.5
			c-1.867,0.2-6.967-0.6-15.301-2.4c-10.966-2.5-19.483-4.383-25.55-5.65c-23.767-5.067-37.466-6.067-41.1-3
			c1.167-2,2.716-3.633,4.65-4.9c2.933-1.9,6.5-2.684,10.7-2.35c4.733,0.367,16.8,2.15,36.2,5.35
			C128.55,24.3,141.116,26.45,152.95,28.55z M144.75,34.55l0.9-0.1c0.733-0.1,1.366-0.284,1.899-0.55
			c0.9-0.433,1.684-1.267,2.351-2.5c-10.434-1.733-21.167-3.483-32.2-5.25c-22-3.533-34.434-5.4-37.3-5.6
			c-2.867-0.2-5.25-0.1-7.15,0.3l-2,0.7l1.65-0.1c1.434-0.067,2.983-0.034,4.65,0.1c2.601,0.233,6.533,0.717,11.8,1.45
			c6.334,0.9,11.4,1.75,15.2,2.55C110.217,26.783,123.616,29.783,144.75,34.55z"/>
		<path style="fill-rule:evenodd;clip-rule:evenodd;fill:#485956;" d="M39.9,23.6c-3.7,5.4-6.316,9.45-7.85,12.15
			c-2.433,4.333-7.7,16.267-15.8,35.8c-0.8,0-1.583-0.217-2.35-0.649c-0.467-0.267-0.833-0.517-1.1-0.75l-0.25-0.25
			c2.534-5.167,5.35-10.75,8.45-16.75c6.2-11.967,10.717-20,13.55-24.101c3.434-4.9,8.483-11.15,15.15-18.75
			C47.033,13.6,43.767,18.033,39.9,23.6z"/>
		<path style="fill-rule:evenodd;clip-rule:evenodd;fill:#485956;" d="M149.9,31.4c-0.667,1.233-1.45,2.067-2.351,2.5
			c-0.533,0.267-1.166,0.45-1.899,0.55l-0.9,0.1c-21.134-4.767-34.533-7.767-40.2-9c-3.8-0.8-8.866-1.65-15.2-2.55
			c-5.267-0.733-9.199-1.217-11.8-1.45c-1.667-0.133-3.216-0.167-4.65-0.1l-1.65,0.1l2-0.7c1.9-0.4,4.283-0.5,7.15-0.3
			c2.866,0.2,15.3,2.067,37.3,5.6C128.733,27.917,139.467,29.667,149.9,31.4z"/>
		<path style="fill-rule:evenodd;clip-rule:evenodd;fill:#9EAEAB;" d="M151.4,14.25l0.5,0.1c0.366,0.133,0.649,0.367,0.85,0.7
			c0.333,0.567,0.384,1.133,0.15,1.7c-7.434-2.333-14.434-4.233-21-5.7C111.3,6.55,97.8,4,91.4,3.4C86.967,3,82.434,2.65,77.8,2.35
			c-4.566-0.267-7.367-0.367-8.4-0.3C68.367,2.15,68.133,2,68.7,1.6c0.566-0.4,1.417-0.633,2.55-0.7l8.05,0.3
			c6.367,0.333,12.017,0.85,16.95,1.55C104.116,3.85,122.5,7.683,151.4,14.25z"/>
	</g>
	<g>
		<path style="fill-rule:evenodd;clip-rule:evenodd;fill:#546764;" d="M21.25,74.3c3.133,0,6.533-0.399,10.2-1.2
			c1.867-0.399,3.4-0.8,4.6-1.199l1.2,0.899c0.933,0.867,1.767,1.867,2.5,3c0.733,1.134,1.333,3.483,1.8,7.05
			c0.233,1.767,0.383,3.417,0.45,4.95c-1.4,1-3.4,1.983-6,2.95c-5.167,1.967-10.667,2.9-16.5,2.8
			c-5.533-0.066-10.433-1.133-14.7-3.2C2.633,89.316,1.033,88.3,0,87.3c0.1-0.833,0.317-1.866,0.65-3.1c0.633-2.5,1.5-4.8,2.6-6.9
			c0.933-1.767,2.217-3.283,3.85-4.55l2.15-1.4l3.2,1.5C15.183,73.816,18.117,74.3,21.25,74.3z"/>
		<g>
			<path style="fill-rule:evenodd;clip-rule:evenodd;fill:#4C5D5A;" d="M10.25,82.3c0.2-1.066,1.033-2.633,2.5-4.7l2.1-2.8
				l-2.25-0.5l-2.65,2.05C8.083,77.95,6.8,79.267,6.1,80.3c-1.067,1.667-2.1,3.667-3.1,6l2.75,1c0.9,0.434,2.1,0.816,3.6,1.15
				C9.617,86.116,9.917,84.066,10.25,82.3z M7.1,72.75l2.15-1.4l3.2,1.5c2.733,0.967,5.667,1.45,8.8,1.45L19.5,75.15
				c-1.267,1-2.133,2.649-2.6,4.949c-0.767,3.667-1.217,7.167-1.35,10.5l4.35,0.7c3.367,0.434,6.25,0.467,8.65,0.101
				c3.633-0.5,8.1-1.867,13.4-4.101L42,87.8c-1.4,1-3.4,1.983-6,2.95c-5.167,1.967-10.667,2.9-16.5,2.8
				c-5.533-0.066-10.433-1.133-14.7-3.2C2.633,89.316,1.033,88.3,0,87.3c0.1-0.833,0.317-1.866,0.65-3.1c0.633-2.5,1.5-4.8,2.6-6.9
				C4.183,75.533,5.467,74.017,7.1,72.75z"/>
			<path style="fill-rule:evenodd;clip-rule:evenodd;fill:#455452;" d="M10.25,82.3c-0.333,1.767-0.633,3.816-0.9,6.15
				c-1.5-0.334-2.7-0.717-3.6-1.15L3,86.3c1-2.333,2.033-4.333,3.1-6c0.7-1.033,1.983-2.35,3.85-3.95l2.65-2.05l2.25,0.5l-2.1,2.8
				C11.283,79.667,10.45,81.233,10.25,82.3z"/>
			<path style="fill-rule:evenodd;clip-rule:evenodd;fill:#627974;" d="M36.35,86.95L35.5,80.7c-0.167-1.033-0.483-2.267-0.95-3.7
				l-0.7-1.8l2.4-0.5l1,1.05c0.767,0.866,1.383,1.767,1.85,2.7c0.767,1.5,1.316,3.666,1.65,6.5c-0.5,0.666-1.05,1.083-1.65,1.25
				L36.35,86.95z"/>
		</g>
	</g>
</g>
</svg>
