<?xml version="1.0" encoding="iso-8859-1"?>
<!-- Generator: Adobe Illustrator 15.1.0, SVG Export Plug-In . SVG Version: 6.00 Build 0)  -->
<!DOCTYPE svg PUBLIC "-//W3C//DTD SVG 1.1//EN" "http://www.w3.org/Graphics/SVG/1.1/DTD/svg11.dtd">
<svg version="1.1" id="buildings-back" xmlns="http://www.w3.org/2000/svg" xmlns:xlink="http://www.w3.org/1999/xlink" x="0px"
	 y="0px" width="33.45px" height="62px" viewBox="0 0 33.45 62" style="enable-background:new 0 0 33.45 62;" xml:space="preserve">
<path style="fill-rule:evenodd;clip-rule:evenodd;fill:#81836F;" d="M30.7,24c-1.3-5.267-2.033-9.033-2.2-11.3
	c-0.2-2.833,0.267-4.517,1.4-5.05c0.566-0.267,1.149-0.25,1.75,0.05c0.6,4,1.083,8.133,1.449,12.4c0.667,8.533,0.334,13.45-1,14.75
	c-1.3,1.334-3.199,1.733-5.699,1.2l-3.351-1.2c-0.3,2.134,0,6.217,0.9,12.25c0.566,3.767,1.566,7.384,3,10.851
	c0.65,1.537,1.25,2.771,1.8,3.7c-0.268-0.408-0.584-0.809-0.95-1.2c-0.899-1.066-1.733-1.601-2.5-1.601
	c-0.733,0-1.783,0.534-3.149,1.601c-0.667,0.5-1.267,1.017-1.801,1.55c-0.3-1.2-1.05-2.1-2.25-2.7c-0.767-0.366-2.2-0.333-4.3,0.101
	l-2.95,0.8c0.833-0.434,1.717-1.167,2.65-2.2c1.867-2.033,3.083-4.467,3.65-7.3c0.6-2.834,0.699-7.517,0.3-14.05l-0.75-9
	C14.3,28.55,11.133,29,7.2,29c-2.567,0-4.5-2.15-5.8-6.45C0.467,19.45,0,16.167,0,12.7c0-1.9,0.683-3.383,2.05-4.45
	c0.667-0.5,1.333-0.833,2-1c-0.133,2.133-0.133,4.35,0,6.65c0.3,4.6,1.2,7.367,2.7,8.3c1.533,0.933,3.5,1.066,5.9,0.4
	c1.2-0.333,2.25-0.767,3.15-1.3c-0.533-3.466-0.85-6.95-0.95-10.45C14.617,3.817,15.55,0.2,17.65,0
	c2.066-0.2,3.583,4.883,4.55,15.25c0.5,5.167,0.783,10.35,0.85,15.55l0.7,0.75c0.9,0.367,2.483,0.267,4.75-0.3
	C30.7,30.717,31.434,28.3,30.7,24z"/>
</svg>
