<?xml version="1.0" encoding="iso-8859-1"?>
<!-- Generator: Adobe Illustrator 15.1.0, SVG Export Plug-In . SVG Version: 6.00 Build 0)  -->
<!DOCTYPE svg PUBLIC "-//W3C//DTD SVG 1.1//EN" "http://www.w3.org/Graphics/SVG/1.1/DTD/svg11.dtd">
<svg version="1.1" id="buildings" xmlns="http://www.w3.org/2000/svg" xmlns:xlink="http://www.w3.org/1999/xlink" x="0px" y="0px"
	 width="358px" height="125.35px" viewBox="0 0 358 125.35" style="enable-background:new 0 0 358 125.35;" xml:space="preserve">
<g>
	<path style="fill-rule:evenodd;clip-rule:evenodd;fill:#81908E;" d="M308,114l-1.7,11.35c-7.033-0.666-16.583-1.883-28.649-3.649
		C253.55,118.134,229,113.566,204,108c-25-5.533-66.5-18.417-124.5-38.65C50.5,59.25,24,49.7,0,40.7l13.3-38
		c9.9,6.9,22.434,15,37.6,24.3c30.333,18.667,58.7,34.117,85.1,46.35c26.367,12.233,62.95,22.684,109.75,31.351
		C269.15,109.033,289.9,112.134,308,114z"/>
	
		<linearGradient id="SVGID_1_" gradientUnits="userSpaceOnUse" x1="84.002" y1="-19.4009" x2="313.5798" y2="-19.4009" gradientTransform="matrix(0.9104 0.4138 -0.4138 0.9104 -4.503131e-005 1.716614e-005)">
		<stop  offset="0" style="stop-color:#D5DAD8"/>
		<stop  offset="1" style="stop-color:#99ABAF"/>
	</linearGradient>
	<path style="fill-rule:evenodd;clip-rule:evenodd;fill:url(#SVGID_1_);" d="M323,95.45c13.333,1.733,25,2.816,35,3.25L308,114
		c-13,0.667-29.75-0.083-50.25-2.25C216.75,107.417,177.5,98.167,140,84S70.133,52.033,42.9,30.6c-13.6-10.7-23.467-20-29.6-27.9
		l110-2.7c15.8,10.9,33.25,22.433,52.35,34.6c38.234,24.333,65.683,39.7,82.35,46.1C274.667,87.066,296.333,91.983,323,95.45z"/>
	<g>
		<path style="fill-rule:evenodd;clip-rule:evenodd;fill:#E6E9E8;" d="M127.3,2.75l6.95,4.7l-102.8,13.6
			c-4.6-4.066-8.883-8.183-12.85-12.35L127.3,2.75z"/>
		<path style="fill-rule:evenodd;clip-rule:evenodd;fill:#E6E9E8;" d="M208.8,55.05l9.851,5.75l-91.8,18
			c-9.6-4-18.633-8.133-27.1-12.399L208.8,55.05z"/>
		<path style="fill-rule:evenodd;clip-rule:evenodd;fill:#E6E9E8;" d="M336.4,96.95c5,0.533,9.433,0.934,13.3,1.2l-49.7,16
			c-10.833,0-22.583-0.567-35.25-1.7L336.4,96.95z"/>
		<path style="fill-rule:evenodd;clip-rule:evenodd;fill:#E6E9E8;" d="M186.4,41.35l12,7.45L91.55,62.1
			c-6.433-3.4-13.05-7.2-19.85-11.4L186.4,41.35z"/>
		<path style="fill-rule:evenodd;clip-rule:evenodd;fill:#CFD2D1;" d="M144.35,14.2l13.6,8.95L48.6,34.95
			c-4.167-3.067-8.283-6.333-12.35-9.8L144.35,14.2z"/>
		<path style="fill-rule:evenodd;clip-rule:evenodd;fill:#CFD2D1;" d="M298.75,91.6c7.7,1.434,15.116,2.617,22.25,3.551
			l-75.15,15.199c-6.333-0.833-12.383-1.75-18.149-2.75L298.75,91.6z"/>
		<path style="fill-rule:evenodd;clip-rule:evenodd;fill:#ABC4CF;" d="M168.5,30l7.8,5L63.85,45.65
			c-3.133-2.066-6.35-4.267-9.65-6.6L168.5,30z"/>
		<path style="fill-rule:evenodd;clip-rule:evenodd;fill:#ABC4CF;" d="M280.5,87.65c2.667,0.666,5.45,1.316,8.35,1.949l-70.8,16.301
			c-4.866-0.9-10.883-2.167-18.05-3.801L280.5,87.65z"/>
		<path style="fill-rule:evenodd;clip-rule:evenodd;fill:#A9BBBF;" d="M226.2,65.05l8.25,4.5l-81.7,19.05
			c-4.967-1.699-9.217-3.233-12.75-4.6l-5.45-2.1L226.2,65.05z"/>
		<path style="fill-rule:evenodd;clip-rule:evenodd;fill:#A9BBBF;" d="M258,80.7l1.95,0.7L184.1,98.15
			c-8.066-2.167-15.667-4.4-22.8-6.7C176.533,88.85,205.4,83.816,247.9,76.35C251.634,78.083,255,79.533,258,80.7z"/>
	</g>
	<polygon style="fill-rule:evenodd;clip-rule:evenodd;fill:#949F9E;" points="354.65,106.7 306.3,125.35 308,114 358,98.7 	"/>
	<path style="fill-rule:evenodd;clip-rule:evenodd;fill:#586A69;" d="M188,102c9.566,2.467,24.767,5.55,45.6,9.25
		c18.534,3.267,34.667,5.85,48.4,7.75c10.134,1.4,17.116,1.316,20.95-0.25c1.476-0.596,2.351-1.278,2.625-2.05l-0.925,7.649
		c-1.267,0-3.65-0.183-7.15-0.55c-6.934-0.733-15.884-2-26.85-3.8c-24.767-4.033-46.067-8.134-63.9-12.3
		c-20.1-4.733-41.583-10.851-64.45-18.351c-18.933-6.233-47.833-16.433-86.7-30.6C36.167,51.65,18.633,45.183,3,39.35L14,8
		c-0.667,9.1-0.783,15.767-0.35,20c0.4,3.833,2.583,7.483,6.55,10.95c5.367,4.6,14.4,9.4,27.1,14.4
		c15.1,5.933,39.467,14.75,73.1,26.45C155.667,92.066,178.2,99.467,188,102z"/>
	<path style="fill-rule:evenodd;clip-rule:evenodd;fill:#778583;" d="M334,111.9c6.866-1.867,13.417-3.717,19.65-5.551L308.3,122
		l0.351-4.35C311.85,117.517,320.3,115.6,334,111.9z"/>
	<path style="fill-rule:evenodd;clip-rule:evenodd;fill:#CCCFCD;" d="M356,100.35c-3.566,2-7.233,3.551-11,4.65
		c-1.866,0.533-8.15,2.2-18.85,5l-15.5,4L356,100.35z"/>
	<path style="fill-rule:evenodd;clip-rule:evenodd;fill:#B9BFBE;" d="M88.1,62.7C68.2,53.3,56.167,47.283,52,44.65
		s-11.417-9.3-21.75-20C25.083,19.283,20.333,14.183,16,9.35c3.6,3.5,7.933,7.483,13,11.95C39.1,30.233,47.767,37.133,55,42
		c7.2,4.867,19.633,11.983,37.3,21.35c8.833,4.7,16.95,8.917,24.35,12.65C107.55,71.833,98.033,67.4,88.1,62.7z"/>
</g>
</svg>
