<?xml version="1.0" encoding="iso-8859-1"?>
<!-- Generator: Adobe Illustrator 15.1.0, SVG Export Plug-In . SVG Version: 6.00 Build 0)  -->
<!DOCTYPE svg PUBLIC "-//W3C//DTD SVG 1.1//EN" "http://www.w3.org/Graphics/SVG/1.1/DTD/svg11.dtd">
<svg version="1.1" id="Isolation_Mode" xmlns="http://www.w3.org/2000/svg" xmlns:xlink="http://www.w3.org/1999/xlink" x="0px"
	 y="0px" width="334.15px" height="158.8px" viewBox="0 0 334.15 158.8" style="enable-background:new 0 0 334.15 158.8;"
	 xml:space="preserve">
<g>
	<path style="fill-rule:evenodd;clip-rule:evenodd;fill:#895D60;" d="M330.65,1.15l3.5-1.15v158.8H0
		c48.733-24.233,99.05-48.983,150.95-74.25C254.783,34.05,314.684,6.25,330.65,1.15z"/>
	<g>
		<g>
			<path style="fill-rule:evenodd;clip-rule:evenodd;fill:#7F5257;" d="M165.95,146.9c-3.434,2.267-6.517,3.283-9.25,3.05
				c-3-0.267-4.967-1.066-5.9-2.4c-0.833-1.2-0.667-2.383,0.5-3.55c0.867-0.866,2.267-1.5,4.2-1.9c1-0.199,1.9-0.316,2.7-0.35
				c-1.3,0.366-2.517,0.833-3.65,1.4c-2.3,1.066-3.017,2.033-2.15,2.899c1.1,1.101,3.533,1.417,7.3,0.95
				c3.966-0.5,7.5-1.684,10.6-3.55C169.134,144.616,167.684,145.767,165.95,146.9z"/>
		</g>
	</g>
	<g>
		<g>
			<path style="fill-rule:evenodd;clip-rule:evenodd;fill:#7F5257;" d="M122.75,138.6c-2.1,2.267-4.4,4.233-6.9,5.9
				c-3.267,2.3-6.767,4.017-10.5,5.15c-4.3,1.267-8.25,1.566-11.85,0.899c-7.033-1.399-11.417-3.8-13.15-7.2
				c-1.5-3-0.75-5.666,2.25-8c2.233-1.666,5.6-2.716,10.1-3.149c2.233-0.233,4.233-0.3,6-0.2c-2.967,0.566-5.8,1.333-8.5,2.3
				c-5.434,1.9-7.317,3.934-5.65,6.101c0.9,1.333,2.9,2.366,6,3.1c3.1,0.733,6.65,1,10.65,0.8c9.8-0.5,17.767-3.333,23.9-8.5
				C124.567,136.533,123.783,137.467,122.75,138.6z"/>
		</g>
	</g>
	<g>
		<g>
			<path style="fill-rule:evenodd;clip-rule:evenodd;fill:#7F5257;" d="M117.3,111.2c-1.3,1.3-2.883,2.566-4.75,3.8
				c-3.8,2.5-7.2,3.616-10.2,3.35c-3.333-0.267-5.5-1.149-6.5-2.649c-0.9-1.334-0.717-2.634,0.55-3.9
				c0.934-0.934,2.483-1.616,4.65-2.05c1.067-0.233,2.05-0.366,2.95-0.4c-1.433,0.4-2.783,0.9-4.05,1.5
				c-2.5,1.2-3.284,2.267-2.35,3.2c1.233,1.2,3.917,1.55,8.05,1.05C109.983,114.566,113.867,113.267,117.3,111.2z"/>
		</g>
	</g>
	<g>
		<g>
			<path style="fill-rule:evenodd;clip-rule:evenodd;fill:#7F5257;" d="M286.95,136.1c-4.066,3.467-8.117,4.851-12.15,4.15
				c-4.133-0.866-6.616-2.267-7.45-4.2c-0.699-1.666-0.149-3.1,1.65-4.3c1.2-0.767,2.95-1.267,5.25-1.5
				c1.167-0.134,2.2-0.217,3.1-0.25c-1.5,0.4-2.966,0.85-4.399,1.35c-2.834,1-3.867,2.067-3.101,3.2
				c0.967,1.967,4.017,2.684,9.15,2.15c5.4-0.601,9.583-2.533,12.55-5.8C290.517,132.667,288.983,134.4,286.95,136.1z"/>
		</g>
	</g>
	<g>
		<g>
			<path style="fill-rule:evenodd;clip-rule:evenodd;fill:#7F5257;" d="M323.3,56.55c-1.866,1.867-4.1,3.717-6.7,5.55
				c-5.233,3.7-9.966,5.483-14.199,5.35c-4.801-0.267-7.934-1.45-9.4-3.55c-1.3-1.833-1.05-3.667,0.75-5.5
				c1.3-1.333,3.417-2.367,6.35-3.1c1.5-0.333,2.867-0.566,4.101-0.7c-1.967,0.667-3.816,1.45-5.55,2.35
				c-3.4,1.767-4.45,3.3-3.15,4.6c1.733,1.7,5.517,2.05,11.35,1.05C312.816,61.567,318.3,59.55,323.3,56.55z"/>
		</g>
	</g>
	<g>
		<g>
			<path style="fill-rule:evenodd;clip-rule:evenodd;fill:#7F5257;" d="M232.5,92.45c2.667-0.5,4.833-1.55,6.5-3.15
				c-0.566,0.9-1.366,1.8-2.4,2.7c-2.066,1.767-4.066,2.6-6,2.5c-2.033-0.134-3.35-0.65-3.949-1.55c-0.534-0.8-0.434-1.566,0.3-2.3
				c0.899-0.9,2.366-1.417,4.399-1.551c-0.8,0.267-1.566,0.584-2.3,0.95c-1.434,0.733-1.883,1.367-1.35,1.9
				C228.4,92.75,230,92.917,232.5,92.45z"/>
		</g>
	</g>
	<g>
		<g>
			<path style="fill-rule:evenodd;clip-rule:evenodd;fill:#7F5257;" d="M284.3,41.7c-1.3-1.233-1.434-2.65-0.399-4.25
				c0.833-1.3,2.449-2.383,4.85-3.25c2.366-0.833,3.483-1.117,3.35-0.85c-0.166-0.333-1.616,0.433-4.35,2.3
				c-2.6,1.767-3.25,3.083-1.95,3.95c1.533,0.867,4.483,0.816,8.851-0.15c4.8-1.1,8.883-2.934,12.25-5.5
				c0.533,0.133-1.067,1.7-4.801,4.7c-3.899,3.1-7.416,4.684-10.55,4.75C288.116,43.633,285.7,43.067,284.3,41.7z"/>
		</g>
	</g>
	<g>
		<g>
			<path style="fill-rule:evenodd;clip-rule:evenodd;fill:#7F5257;" d="M269.55,84.65c-0.533,0.366-1.1,0.85-1.7,1.449
				c-1.166,1.167-1.833,2.301-2,3.4c-0.1,0.566,0.65,0.65,2.25,0.25c0.967-0.233,2.784-0.767,5.45-1.6
				c1.601-0.467,3.467-0.834,5.601-1.101l2.55-0.35c0,0.033-0.717,0.2-2.15,0.5c-1.866,0.366-3.5,0.816-4.899,1.35
				c-2.5,0.9-4.317,1.55-5.45,1.95c-2,0.667-3.384,0.9-4.15,0.7c-1.633-0.367-1.383-1.584,0.75-3.65
				C267.967,85.45,269.217,84.483,269.55,84.65z"/>
		</g>
	</g>
	<g>
		<g>
			<path style="fill-rule:evenodd;clip-rule:evenodd;fill:#7F5257;" d="M223.45,141.45c-0.834,0.5-1.733,1.149-2.7,1.95
				c-1.866,1.6-3.083,3.199-3.65,4.8c-0.433,1.533,3.667,1.217,12.301-0.95c8.666-2.2,12.966-3.217,12.899-3.05
				c0-0.066-3.717,1.149-11.149,3.649c-8.101,2.733-13.351,3.65-15.75,2.75c-2.167-0.966-1.483-2.767,2.05-5.399
				C219.217,143.9,221.217,142.65,223.45,141.45z"/>
		</g>
	</g>
	<g>
		<g>
			<path style="fill-rule:evenodd;clip-rule:evenodd;fill:#7F5257;" d="M191,97.25c-1.134,0.366-2.384,0.884-3.75,1.55
				c-2.7,1.334-4.684,2.867-5.95,4.601c-1.2,2.133,3.95,2.966,15.45,2.5c5.733-0.233,11.417-0.551,17.05-0.95
				c-4.6,0.767-9.6,1.483-15,2.149c-10.967,1.4-17.783,0.917-20.45-1.449c-2.133-1.9-0.666-3.817,4.4-5.75
				C185.283,98.934,188.033,98.05,191,97.25z"/>
		</g>
	</g>
	<g>
		<g>
			<path style="fill-rule:evenodd;clip-rule:evenodd;fill:#7F5257;" d="M312.5,115.35c0.634,0.467,2.017,0.733,4.15,0.801
				c2.233,0.033,4.399-0.2,6.5-0.7c-0.867,0.467-1.851,0.916-2.95,1.35c-2.233,0.834-4.033,1.134-5.4,0.9
				c-1.5-0.233-2.55-0.717-3.149-1.45c-0.534-0.7-0.517-1.384,0.05-2.05c0.75-0.841,2.025-1.232,3.825-1.175
				c-0.395,0.091-0.986,0.299-1.775,0.625C312.283,114.25,311.866,114.816,312.5,115.35z"/>
		</g>
	</g>
	<g>
		<g>
			<path style="fill-rule:evenodd;clip-rule:evenodd;fill:#7F5257;" d="M313.7,145.05c0.551-0.52,1.483-0.729,2.8-0.625
				c-0.29,0.041-0.74,0.166-1.35,0.375c-1.034,0.367-1.367,0.75-1,1.15c0.366,0.333,1.333,0.583,2.899,0.75
				c0.566,0.066,2.15,0.149,4.75,0.25c-0.733,0.166-1.5,0.333-2.3,0.5c-1.667,0.366-2.934,0.467-3.8,0.3
				c-1.134-0.233-1.884-0.634-2.25-1.2C313.116,146.017,313.2,145.517,313.7,145.05z"/>
		</g>
	</g>
	<g>
		<g>
			<path style="fill-rule:evenodd;clip-rule:evenodd;fill:#7F5257;" d="M331.6,154.25c-0.899,1.5-1.949,2.184-3.149,2.05
				c-0.8-0.033-1.316-0.217-1.55-0.55c-0.233-0.3-0.2-0.6,0.1-0.9c0.333-0.366,0.9-0.566,1.7-0.6c-0.3,0.1-0.601,0.217-0.9,0.35
				c-0.533,0.301-0.7,0.551-0.5,0.75c0.267,0.334,0.884,0.4,1.851,0.2C330.184,155.316,331,154.884,331.6,154.25z"/>
		</g>
	</g>
	<g>
		<g>
			<path style="fill-rule:evenodd;clip-rule:evenodd;fill:#7F5257;" d="M271,107.8c1.267,0.066,2.366-0.166,3.3-0.7
				c-0.366,0.334-0.833,0.65-1.399,0.95c-1.134,0.566-2.134,0.717-3,0.45c-0.9-0.3-1.434-0.684-1.601-1.15
				c-0.166-0.399-0.033-0.733,0.4-1c0.5-0.333,1.217-0.399,2.149-0.199c-0.399,0.033-0.783,0.083-1.149,0.149
				c-0.733,0.167-1,0.4-0.8,0.7C269.1,107.467,269.8,107.733,271,107.8z"/>
		</g>
	</g>
	<g>
		<g>
			<path style="fill-rule:evenodd;clip-rule:evenodd;fill:#7F5257;" d="M316.9,93.1c0.533-0.033,1.133,0.084,1.8,0.351l-1-0.05
				c-0.667-0.067-0.983,0.05-0.95,0.35c-0.1,0.634,0.5,1.066,1.8,1.3c1.367,0.233,2.384-0.083,3.05-0.95
				c-0.233,0.434-0.616,0.817-1.149,1.15c-1.066,0.733-2.117,0.816-3.15,0.25c-0.899-0.667-1.316-1.233-1.25-1.7
				C316.083,93.366,316.366,93.134,316.9,93.1z"/>
		</g>
	</g>
	<g>
		<g>
			<path style="fill-rule:evenodd;clip-rule:evenodd;fill:#7F5257;" d="M319.65,24.65c2.399,0.067,4.449-0.5,6.149-1.7
				c-0.666,0.7-1.5,1.35-2.5,1.95c-2.066,1.233-4,1.567-5.8,1c-1.9-0.8-2.9-1.683-3-2.65c-0.1-0.8,0.333-1.333,1.3-1.6
				c0.566-0.167,1.334-0.233,2.3-0.2c0.467,0.033,0.9,0.066,1.301,0.1c-0.667,0.1-1.317,0.2-1.95,0.3
				c-1.233,0.167-1.783,0.517-1.65,1.05C316.033,24,317.316,24.583,319.65,24.65z"/>
		</g>
	</g>
	<g>
		<g>
			<path style="fill-rule:evenodd;clip-rule:evenodd;fill:#7F5257;" d="M325.8,11.95c0.2,0.4,0.816,0.55,1.851,0.45
				c1.066-0.1,1.883-0.483,2.449-1.15c-0.199,0.333-0.5,0.683-0.899,1.05c-0.8,0.733-1.617,1-2.45,0.8
				c-0.833-0.2-1.333-0.483-1.5-0.85c-0.1-0.3,0.033-0.583,0.4-0.85c0.433-0.3,0.983-0.4,1.649-0.3c-0.3,0.066-0.583,0.133-0.85,0.2
				C325.884,11.5,325.667,11.717,325.8,11.95z"/>
		</g>
	</g>
	<g>
		<g>
			<path style="fill-rule:evenodd;clip-rule:evenodd;fill:#7F5257;" d="M326.85,42.3c-1.066,0.4-1.449,0.8-1.149,1.2
				c0.434,0.567,1.517,0.833,3.25,0.8c1.767-0.033,3.434-0.383,5-1.05c-0.634,0.467-1.367,0.9-2.2,1.3
				c-1.634,0.867-3.066,1.184-4.3,0.95c-1.4-0.267-2.267-0.733-2.601-1.4c-0.267-0.567-0.1-1.083,0.5-1.55
				c0.7-0.566,1.75-0.8,3.15-0.7C327.934,41.95,327.384,42.1,326.85,42.3z"/>
		</g>
	</g>
	<g>
		<g>
			<path style="fill-rule:evenodd;clip-rule:evenodd;fill:#7F5257;" d="M249.3,62.2c-0.366-1.1,0.017-1.983,1.15-2.65
				c1.233-0.733,3.05-0.95,5.45-0.65c-1.034,0.133-2.017,0.317-2.95,0.55c-1.834,0.466-2.517,1.1-2.05,1.9
				c0.6,1.1,2.433,1.7,5.5,1.8c2.866,0.067,5.833-0.333,8.899-1.2c-1.166,0.7-2.5,1.35-4,1.95c-3,1.267-5.55,1.667-7.649,1.2
				C251.217,64.4,249.767,63.433,249.3,62.2z"/>
		</g>
	</g>
	<g>
		<g>
			<path style="fill-rule:evenodd;clip-rule:evenodd;fill:#7F5257;" d="M267.25,42.8c-0.1,0.567,0.483,1.067,1.75,1.5
				c1.3,0.467,2.4,0.383,3.3-0.25c0.634,0,0.15,0.3-1.45,0.9c-1.267,0.466-2.333,0.35-3.199-0.35c-0.801-0.7-1.167-1.3-1.101-1.8
				c0.033-0.433,0.316-0.667,0.851-0.7c0.566-0.033,1.216,0.15,1.949,0.55c-0.366-0.066-0.716-0.117-1.05-0.15
				C267.566,42.367,267.217,42.467,267.25,42.8z"/>
		</g>
	</g>
	<g>
		<g>
			<path style="fill-rule:evenodd;clip-rule:evenodd;fill:#7F5257;" d="M230.3,58.85c-0.7,0.733-1.583,1.45-2.649,2.15
				c-2.134,1.433-4.167,1.95-6.101,1.55c-2.1-0.667-3.25-1.55-3.45-2.65c-0.166-0.967,0.25-1.583,1.25-1.85
				c1-0.367,2.284-0.483,3.851-0.35c-0.7,0.133-1.384,0.283-2.05,0.45c-1.334,0.3-1.9,0.733-1.7,1.3
				c0.399,1.066,1.833,1.566,4.3,1.5C226.25,60.85,228.434,60.15,230.3,58.85z"/>
		</g>
	</g>
	<g>
		<g>
			<path style="fill-rule:evenodd;clip-rule:evenodd;fill:#7F5257;" d="M43.2,147.25c0.233,0.8,1.283,1.233,3.15,1.3
				c1.933,0.066,3.583-0.383,4.95-1.35c0.034,0-0.633,0.533-2,1.6c-1.667,1-3.216,1.267-4.65,0.8c-1.467-0.6-2.283-1.267-2.45-2
				c-0.133-0.633,0.167-1.1,0.9-1.399c0.467-0.167,1.117-0.233,1.95-0.2l1.1,0.05c-0.566,0.101-1.1,0.184-1.6,0.25
				C43.483,146.5,43.033,146.816,43.2,147.25z"/>
		</g>
	</g>
	<g>
		<g>
			<path style="fill-rule:evenodd;clip-rule:evenodd;fill:#7F5257;" d="M30.2,155.25c-1.833,0.5-3.3,0.566-4.4,0.2
				c-0.8-0.3-1.283-0.667-1.45-1.101c-0.133-0.399,0-0.733,0.4-1c0.3-0.166,0.75-0.216,1.35-0.149c0.3,0,0.566,0.033,0.8,0.1
				c-0.4,0-0.783,0.033-1.15,0.101c-0.767,0.133-1.05,0.35-0.85,0.649C25.433,154.783,27.2,155.184,30.2,155.25z"/>
		</g>
	</g>
	<g>
		<g>
			<path style="fill-rule:evenodd;clip-rule:evenodd;fill:#7F5257;" d="M63.65,148.05c0,0.967,1.033,1.75,3.1,2.351
				c2.167,0.633,4.083,0.517,5.75-0.351c-0.667,0.533-1.517,0.983-2.55,1.351c-2.1,0.733-3.9,0.616-5.4-0.351
				c-1.433-1.066-2.117-2.033-2.05-2.899c0.033-0.733,0.483-1.167,1.35-1.301c0.967-0.1,2.1,0.15,3.4,0.75
				c-0.633-0.1-1.25-0.166-1.85-0.199C64.167,147.267,63.583,147.483,63.65,148.05z"/>
		</g>
	</g>
	<g>
		<g>
			<path style="fill-rule:evenodd;clip-rule:evenodd;fill:#7F5257;" d="M66.25,135.9c1.3-0.134,3.517-0.434,6.65-0.9
				c-0.033,0-1.066,0.417-3.1,1.25c-2.167,0.9-3.917,1.366-5.25,1.4c-1.767-0.134-2.917-0.584-3.45-1.351
				c-0.467-0.7-0.367-1.399,0.3-2.1c0.467-0.5,1.267-0.867,2.4-1.101c0.567-0.133,1.1-0.216,1.6-0.25l-2.15,0.851
				c-1.3,0.633-1.7,1.2-1.2,1.7C62.65,135.967,64.05,136.134,66.25,135.9z"/>
		</g>
	</g>
	<g>
		<g>
			<path style="fill-rule:evenodd;clip-rule:evenodd;fill:#7F5257;" d="M144.55,116.75c-1.133,0.333-2.183,0.733-3.15,1.2
				c-1.933,0.934-2.533,1.767-1.8,2.5c1.6,1.5,6.85,1.116,15.75-1.15c-1.3,0.733-2.717,1.483-4.25,2.25
				c-3.133,1.533-5.733,2.267-7.8,2.2c-2.566-0.2-4.25-0.866-5.05-2c-0.733-1.033-0.6-2.05,0.4-3.05c0.7-0.733,1.9-1.283,3.6-1.65
				C143.083,116.884,143.85,116.783,144.55,116.75z"/>
		</g>
	</g>
	<g>
		<g>
			<path style="fill-rule:evenodd;clip-rule:evenodd;fill:#7F5257;" d="M197.95,135.25c1.666,0.2,3.184,0.066,4.55-0.4
				c-0.533,0.367-1.217,0.7-2.05,1c-1.601,0.567-2.934,0.667-4,0.301c-1.134-0.434-1.834-0.967-2.101-1.601
				c-0.233-0.566-0.066-1.033,0.5-1.399c0.667-0.4,1.684-0.45,3.051-0.15c-0.567,0-1.101,0.05-1.601,0.15
				c-1.033,0.199-1.416,0.517-1.149,0.949C195.45,134.667,196.384,135.05,197.95,135.25z"/>
		</g>
	</g>
	<g>
		<g>
			<path style="fill-rule:evenodd;clip-rule:evenodd;fill:#7F5257;" d="M133.25,155.3c-1.733-0.7-2.733-1.517-3-2.45
				c-0.233-0.8,0.1-1.433,1-1.899c0.633-0.334,1.533-0.434,2.7-0.3c0.566,0.033,1.066,0.116,1.5,0.25
				c-0.767,0-1.517,0.05-2.25,0.149c-1.434,0.2-2,0.617-1.7,1.25c0.367,0.867,1.7,1.467,4,1.8c2.433,0.367,4.617,0.134,6.55-0.699
				c-0.767,0.566-1.733,1.083-2.9,1.55C136.85,155.884,134.883,156,133.25,155.3z"/>
		</g>
	</g>
	<g>
		<g>
			<path style="fill-rule:evenodd;clip-rule:evenodd;fill:#7F5257;" d="M201.8,151.25c-2.399,1.8-4.5,2.083-6.3,0.85
				c-1.066-0.633-1.65-1.316-1.75-2.05c-0.134-0.6,0.116-1.033,0.75-1.3c0.833-0.267,1.884-0.116,3.15,0.45
				c-0.567-0.101-1.117-0.15-1.65-0.15c-1.134-0.033-1.6,0.217-1.4,0.75c0.167,0.634,1.067,1.217,2.7,1.75
				C199.1,152.15,200.6,152.05,201.8,151.25z"/>
		</g>
	</g>
	<g>
		<g>
			<path style="fill-rule:evenodd;clip-rule:evenodd;fill:#7F5257;" d="M191.2,122.6c-4.233,2.301-7.7,3.017-10.4,2.15
				c-1.866-0.467-3.083-1.2-3.649-2.2c-0.567-0.934-0.434-1.767,0.399-2.5c1.039-0.916,2.664-1.233,4.875-0.95
				c-0.484,0.075-1.259,0.275-2.325,0.601c-1.833,0.533-2.433,1.166-1.8,1.899c0.8,0.7,2.467,1.2,5,1.5
				C186.2,123.467,188.833,123.3,191.2,122.6z"/>
		</g>
	</g>
	<g>
		<g>
			<path style="fill-rule:evenodd;clip-rule:evenodd;fill:#7F5257;" d="M164.2,96.85c-2.167,1.267-4.05,1.801-5.65,1.601
				c-1.767-0.233-2.917-0.767-3.45-1.601c-0.5-0.767-0.4-1.483,0.3-2.149c0.833-0.767,2.25-1.15,4.25-1.15
				c-0.8,0.2-1.55,0.45-2.25,0.75c-1.4,0.601-1.833,1.167-1.3,1.7c0.6,0.667,2.033,0.9,4.3,0.7c2.4-0.2,4.533-0.816,6.4-1.851
				C167.267,94.85,166.4,95.517,164.2,96.85z"/>
		</g>
	</g>
	<g>
		<g>
			<path style="fill-rule:evenodd;clip-rule:evenodd;fill:#7F5257;" d="M208.7,73.8c-0.9-0.066-1.316,0.1-1.25,0.5
				c0.033,0.7,0.816,1.233,2.35,1.6c1.601,0.434,2.934,0.267,4-0.5c0.634,0,0.066,0.383-1.7,1.15c-1.5,0.6-2.8,0.567-3.899-0.1
				c-1.066-0.7-1.601-1.367-1.601-2c0-0.534,0.317-0.867,0.95-1c0.7-0.133,1.533,0.017,2.5,0.45
				C209.583,73.833,209.134,73.8,208.7,73.8z"/>
		</g>
	</g>
	<g>
		<g>
			<path style="fill-rule:evenodd;clip-rule:evenodd;fill:#7F5257;" d="M184.95,82.25c0.633-0.3,1.5-0.366,2.6-0.2
				c-0.467,0.066-0.934,0.15-1.399,0.25c-0.9,0.167-1.267,0.45-1.101,0.851c0.267,0.6,1.15,0.916,2.65,0.949
				c1.5,0.067,2.934-0.166,4.3-0.699c-0.533,0.366-1.167,0.716-1.9,1.05c-1.433,0.7-2.683,0.899-3.75,0.6
				c-1.199-0.434-1.883-0.95-2.05-1.55C184.134,82.967,184.35,82.55,184.95,82.25z"/>
		</g>
	</g>
	<g>
		<g>
			<path style="fill-rule:evenodd;clip-rule:evenodd;fill:#7F5257;" d="M211.35,67.05c1.267,0.233,2.2-0.066,2.801-0.9
				c-0.2,0.4-0.551,0.767-1.051,1.1c-1,0.667-2,0.733-3,0.2c-0.833-0.7-1.183-1.284-1.05-1.75c0.101-0.4,0.384-0.567,0.851-0.5
				c0.5,0.033,1.017,0.15,1.55,0.35c0,0.034-0.283,0.017-0.851-0.05c-0.566-0.033-0.866,0.05-0.899,0.25
				C209.533,66.417,210.083,66.85,211.35,67.05z"/>
		</g>
	</g>
	<g>
		<g>
			<path style="fill-rule:evenodd;clip-rule:evenodd;fill:#7F5257;" d="M229.5,120l-2.75-0.35c-1.833-0.233-2.833,0.033-3,0.8
				c-0.267,1.833,1.434,3.233,5.1,4.2c3.733,1,6.967,0.683,9.7-0.95c-1.1,0.967-2.5,1.8-4.2,2.5c-3.5,1.399-6.616,1.267-9.35-0.4
				c-1.4-0.899-2.384-1.983-2.95-3.25c-0.5-1.1-0.583-1.983-0.25-2.649c0.334-0.967,1.3-1.384,2.9-1.25
				C226.066,118.783,227.667,119.233,229.5,120z"/>
		</g>
	</g>
	<g>
		<g>
			<path style="fill-rule:evenodd;clip-rule:evenodd;fill:#7F5257;" d="M262.6,104.1c-1.133,1.7-2.416,2.5-3.85,2.4
				c-0.934-0.033-1.55-0.25-1.85-0.65c-0.233-0.366-0.184-0.733,0.149-1.1c0.4-0.434,1.084-0.667,2.05-0.7
				c-0.366,0.134-0.716,0.283-1.05,0.45c-0.666,0.333-0.883,0.616-0.649,0.85c0.333,0.367,1.083,0.434,2.25,0.2
				C260.85,105.316,261.833,104.833,262.6,104.1z"/>
		</g>
	</g>
	<g>
		<g>
			<path style="fill-rule:evenodd;clip-rule:evenodd;fill:#7F5257;" d="M266.8,145.85c-0.7,0.733-1.583,1.434-2.649,2.101
				c-2.134,1.333-4.101,1.833-5.9,1.5c-1.9-0.467-3.05-1.167-3.45-2.101c-0.333-0.8-0.066-1.466,0.8-2
				c0.601-0.399,1.467-0.633,2.601-0.699c0.533-0.034,1.033-0.051,1.5-0.051c-0.733,0.167-1.45,0.351-2.15,0.551
				c-1.399,0.433-1.916,0.933-1.55,1.5c0.5,0.899,1.934,1.283,4.3,1.149C262.767,147.667,264.934,147.017,266.8,145.85z"/>
		</g>
	</g>
	<g>
		<g>
			<path style="fill-rule:evenodd;clip-rule:evenodd;fill:#7F5257;" d="M298.95,152.4c-0.533,0.366-1.167,0.699-1.9,1
				c-1.467,0.6-2.7,0.75-3.7,0.449c-1.1-0.333-1.783-0.783-2.05-1.35c-0.2-0.533-0.033-0.967,0.5-1.3
				c0.601-0.4,1.517-0.517,2.75-0.351c-0.5,0.034-0.983,0.117-1.45,0.25c-0.933,0.233-1.283,0.551-1.05,0.95
				c0.334,0.467,1.217,0.767,2.65,0.9C296.233,153.05,297.65,152.866,298.95,152.4z"/>
		</g>
	</g>
	<g>
		<g>
			<path style="fill-rule:evenodd;clip-rule:evenodd;fill:#7F5257;" d="M318.3,130.4c0.533-0.2,1.2-0.233,2-0.101l-1.05,0.2
				c-0.7,0.1-1,0.3-0.9,0.6c0.167,0.534,0.867,0.817,2.101,0.851c1.3,0.066,2.416-0.217,3.35-0.851
				c-0.366,0.367-0.816,0.717-1.35,1.051c-1.134,0.666-2.184,0.85-3.15,0.55c-0.967-0.4-1.5-0.851-1.6-1.351
				C317.6,130.917,317.8,130.6,318.3,130.4z"/>
		</g>
	</g>
	<g>
		<g>
			<path style="fill-rule:evenodd;clip-rule:evenodd;fill:#7F5257;" d="M292.95,98.85c-1.601,0.534-2.184,1.134-1.75,1.801
				c0.633,1,2.316,1.416,5.05,1.25c2.9-0.134,5.417-0.9,7.55-2.301c-0.833,0.834-1.866,1.65-3.1,2.45
				c-2.467,1.566-4.733,2.167-6.8,1.8c-2.2-0.466-3.534-1.233-4-2.3c-0.434-0.934-0.167-1.733,0.8-2.399
				c0.666-0.467,1.666-0.767,3-0.9c0.666-0.066,1.267-0.1,1.8-0.1C294.634,98.35,293.783,98.583,292.95,98.85z"/>
		</g>
	</g>
	<g>
		<g>
			<path style="fill-rule:evenodd;clip-rule:evenodd;fill:#7F5257;" d="M283.4,69.25c0.533-0.133,0.033,0.533-1.5,2
				c-1.367,1.333-2.801,1.9-4.301,1.7c-1.466-0.233-2.383-0.684-2.75-1.35c-0.3-0.6-0.133-1.117,0.5-1.55c0.7-0.5,1.7-0.767,3-0.8
				c-0.533,0.167-1.066,0.35-1.6,0.55c-1,0.4-1.35,0.8-1.05,1.2c0.399,0.7,1.517,0.9,3.35,0.6
				C281.017,71.3,282.467,70.517,283.4,69.25z"/>
		</g>
	</g>
	<g>
		<g>
			<path style="fill-rule:evenodd;clip-rule:evenodd;fill:#7F5257;" d="M252.1,89.55c0.7,0.033,1.667-0.066,2.9-0.3
				c1.634-0.3,3.066-0.767,4.3-1.4c-2.133,1.767-3.883,2.684-5.25,2.75c-0.967,0.134-1.717,0.051-2.25-0.25
				c-0.533-0.333-0.7-0.783-0.5-1.35c0.167-0.566,0.684-1.05,1.55-1.45c0.834-0.399,1.25-0.517,1.25-0.35
				c-0.133-0.167-0.633,0.133-1.5,0.899C251.733,88.866,251.566,89.35,252.1,89.55z"/>
		</g>
	</g>
	<g>
		<g>
			<path style="fill-rule:evenodd;clip-rule:evenodd;fill:#7F5257;" d="M241.15,75.6c-1.134,1.7-2.417,2.5-3.851,2.4
				c-0.934-0.033-1.55-0.25-1.85-0.65c-0.233-0.367-0.184-0.733,0.149-1.1c0.4-0.433,1.084-0.667,2.051-0.7
				c-0.367,0.133-0.717,0.284-1.051,0.45c-0.666,0.333-0.883,0.617-0.649,0.85c0.333,0.367,1.083,0.433,2.25,0.2
				C239.4,76.817,240.384,76.333,241.15,75.6z"/>
		</g>
	</g>
	<g>
		<g>
			<path style="fill-rule:evenodd;clip-rule:evenodd;fill:#7F5257;" d="M250.3,49.85c-0.666,0.7-1.533,1.4-2.6,2.1
				c-2.101,1.333-4,1.867-5.7,1.6c-1.9-0.3-3.066-0.867-3.5-1.7c-0.4-0.733-0.217-1.434,0.55-2.1c0.9-0.767,2.267-1.117,4.101-1.05
				c-0.767,0.167-1.483,0.383-2.15,0.65c-1.4,0.566-1.884,1.117-1.45,1.65c0.601,0.767,2.05,1.05,4.351,0.85
				C246.333,51.683,248.467,51.017,250.3,49.85z"/>
		</g>
	</g>
	<g>
		<g>
			<path style="fill-rule:evenodd;clip-rule:evenodd;fill:#7F5257;" d="M323.75,79.8c1.566,0.3,3.033,0.351,4.4,0.15
				c-2.467,0.934-4.384,1.149-5.75,0.649c-0.867-0.333-1.467-0.716-1.801-1.149c-0.366-0.467-0.399-0.917-0.1-1.35
				c0.656-0.626,1.589-0.81,2.8-0.55c-0.278,0.024-0.695,0.107-1.25,0.25c-1.066,0.3-1.383,0.65-0.95,1.05
				C321.5,79.217,322.384,79.533,323.75,79.8z"/>
		</g>
	</g>
	<g>
		<g>
			<path style="fill-rule:evenodd;clip-rule:evenodd;fill:#7F5257;" d="M294.4,82.25c-0.367-0.7-0.184-1.333,0.55-1.9
				c0.833-0.667,2.133-0.917,3.899-0.75c-0.733,0.133-1.433,0.3-2.1,0.5c-1.3,0.434-1.75,0.917-1.35,1.45
				c0.5,0.7,1.816,1.033,3.949,1c2.267-0.066,4.25-0.583,5.95-1.55c-0.633,0.6-1.45,1.184-2.45,1.75
				c-2.033,1.167-3.816,1.583-5.35,1.25C295.866,83.667,294.833,83.083,294.4,82.25z"/>
		</g>
	</g>
	<g>
		<g>
			<path style="fill-rule:evenodd;clip-rule:evenodd;fill:#7F5257;" d="M290.3,119.05c1.566-0.2,2.834-0.75,3.8-1.649
				c-0.333,0.5-0.816,1-1.449,1.5c-1.233,1-2.434,1.399-3.601,1.199c-1.2-0.233-1.934-0.616-2.2-1.149c-0.233-0.467-0.1-0.9,0.4-1.3
				c0.6-0.467,1.45-0.667,2.55-0.601c-0.467,0.101-0.916,0.233-1.35,0.4c-0.834,0.333-1.134,0.666-0.9,1
				C287.884,119.017,288.8,119.217,290.3,119.05z"/>
		</g>
	</g>
	<g>
		<g>
			<path style="fill-rule:evenodd;clip-rule:evenodd;fill:#7F5257;" d="M255.8,118.15c-1.033,0.233-2.033,0.5-3,0.8
				c-1.899,0.633-2.666,1.35-2.3,2.149c0.7,1.434,2.8,2,6.3,1.7c3.2-0.267,6.483-1.133,9.851-2.6c-1.233,0.899-2.634,1.816-4.2,2.75
				c-3.134,1.899-6,2.684-8.601,2.35c-3.066-0.7-4.8-1.833-5.199-3.399c-0.367-1.4,0.166-2.351,1.6-2.851
				C251.55,118.417,253.4,118.116,255.8,118.15z"/>
		</g>
	</g>
</g>
</svg>
