<?xml version="1.0" encoding="iso-8859-1"?>
<!-- Generator: Adobe Illustrator 15.1.0, SVG Export Plug-In . SVG Version: 6.00 Build 0)  -->
<!DOCTYPE svg PUBLIC "-//W3C//DTD SVG 1.1//EN" "http://www.w3.org/Graphics/SVG/1.1/DTD/svg11.dtd">
<svg version="1.1" id="Isolation_Mode" xmlns="http://www.w3.org/2000/svg" xmlns:xlink="http://www.w3.org/1999/xlink" x="0px"
	 y="0px" width="126.85px" height="174.55px" viewBox="0 0 126.85 174.55" style="enable-background:new 0 0 126.85 174.55;"
	 xml:space="preserve">
<g>
	<g>
		<path style="fill-rule:evenodd;clip-rule:evenodd;fill:#DC8D68;" d="M123.8,2.8c2.867,3.267,3.483,8.917,1.851,16.95
			c-1.634,8.033-4.784,13.7-9.45,17c-1.434,1.033-2.934,1.75-4.5,2.15l-1.95,0.35c-5.667-1.2-12.017-1.5-19.05-0.9
			c-14.066,1.233-24.533,6.333-31.4,15.3c-5.833,7.633-11.667,25.467-17.5,53.5c-3.2,15.466-6.633,35.55-10.3,60.25
			c-0.433,2.933-2.233,4.283-5.4,4.05c-3.3-0.233-6.767-2.167-10.4-5.8c-3.1-3.101-5.2-6.801-6.3-11.101L8.7,149
			c0.933-14.967,2.667-31.083,5.2-48.35C19,66.117,25.633,43.067,33.8,31.5c8.133-11.567,24.767-20.25,49.9-26.05
			c12.566-2.867,24.316-4.6,35.25-5.2l1.6,0.35C121.816,1.033,122.9,1.767,123.8,2.8z"/>
		<g>
			<path style="fill-rule:evenodd;clip-rule:evenodd;fill:#CB7857;" d="M44,33.5c2.067-0.333,4.2-1.017,6.4-2.05
				c-1.633,0.867-3.483,2.833-5.55,5.9c-3.767,5.6-7.267,13.75-10.5,24.45c-3.467,11.434-7.1,30.117-10.9,56.05
				c-1.9,12.967-3.45,24.801-4.65,35.5l-9.75-0.5c-0.167-0.966-0.267-1.899-0.3-2.8L8.7,149c0.933-14.967,2.667-31.083,5.2-48.35
				C19,66.117,25.633,43.067,33.8,31.5c0.367-0.533,0.983-1.333,1.85-2.4l0.85,2.05C37.633,33.383,40.133,34.167,44,33.5z"/>
			<path style="fill-rule:evenodd;clip-rule:evenodd;fill:#CB7857;" d="M101.55,24.6c0.233,0.167,0.217,0.85-0.05,2.05
				c-0.366,1.567-0.35,3.067,0.05,4.5c0.733,2.567,2.316,4.684,4.75,6.35c1.233,0.833,2.384,1.417,3.45,1.75
				c-5.667-1.2-12.017-1.5-19.05-0.9c-14.066,1.233-24.533,6.333-31.4,15.3c-1.966,2.633-3.867,6.233-5.7,10.8
				c1.633-6.567,4.2-12.784,7.7-18.65c4.5-7.633,9.75-13.033,15.75-16.2c6.367-3.367,12.367-5.217,18-5.55
				C97.85,23.917,100.017,24.1,101.55,24.6z"/>
		</g>
		<path style="fill-rule:evenodd;clip-rule:evenodd;fill:#C46544;" d="M9.45,138.9l2.7,3.25c2.333,2.533,4.783,4.666,7.35,6.399
			c2.633,1.767,5.883,2.4,9.75,1.9c1.933-0.267,3.6-0.7,5-1.3l-0.75,9.35c-0.6,6.5-1.133,10.483-1.6,11.95
			c-0.6,1.866-2.566,3.133-5.9,3.8c-4.667,0.967-9.917-0.667-15.75-4.9c-5.8-4.199-9.133-8.899-10-14.1
			c-0.733-4.4,0.267-7.95,3-10.65L9.45,138.9z"/>
		<path style="fill-rule:evenodd;clip-rule:evenodd;fill:#C46544;" d="M35.4,38.4c-0.967,2.4-2.117,5.533-3.45,9.4
			c-2.633,7.733-4.767,15.25-6.4,22.55c-1.633,7.3-3.683,21.983-6.15,44.05c-1.233,11-2.316,21.283-3.25,30.85l-4.4-7.2
			c0.767-7.399,1.767-15.866,3-25.399c2.5-19.067,4.933-33.9,7.3-44.5c2.367-10.566,5.3-18.7,8.8-24.4
			C32.617,40.917,34.133,39.133,35.4,38.4z"/>
		<path style="fill-rule:evenodd;clip-rule:evenodd;fill:#C46544;" d="M96.95,29.85c0,1.633,0.633,3.3,1.899,5
			c0.601,0.833,1.217,1.5,1.851,2c-3.934-0.733-7.8-0.883-11.601-0.45c-2.366,0.267-6.767,1.667-13.199,4.2l-8.95,3.7l3.75-4.2
			c3.2-3.167,6.483-5.567,9.85-7.2c3.367-1.633,7.117-2.633,11.25-3C93.866,29.733,95.583,29.717,96.95,29.85z"/>
		<path style="fill-rule:evenodd;clip-rule:evenodd;fill:#E9BB99;" d="M93.25,5.3c3.8-0.733,7.017-1.25,9.65-1.55
			c-1.767,1.467-3.084,2.783-3.95,3.95c-0.533,0.733-1.033,1.65-1.5,2.75c-0.2,0.533-0.367,1-0.5,1.4
			c-0.867-0.3-1.983-0.567-3.351-0.8c-2.733-0.533-5.333-0.7-7.8-0.5c-2.467,0.2-8.166,1.417-17.1,3.65L56,17.55l5.55-2.65
			c4.434-2,8.566-3.6,12.4-4.8C80.283,8.133,86.717,6.533,93.25,5.3z"/>
		<polygon style="fill-rule:evenodd;clip-rule:evenodd;fill:#E9BB99;" points="31.25,148.1 27.1,148.55 49,62.9 		"/>
		<g>
			<path style="fill-rule:evenodd;clip-rule:evenodd;fill:#AD5E40;" d="M3.25,144.6l6.2-5.699l2.7,3.25
				c2.333,2.533,4.783,4.666,7.35,6.399l-3.75,4.15c-2.533,3.233-3.933,6.083-4.2,8.55c-0.3,2.7,0.633,5.25,2.8,7.65
				c1.8,2,3.933,3.466,6.4,4.399c1.733,0.634,3.35,0.9,4.85,0.8c0.733-0.033,1.3-0.149,1.7-0.35L27.05,174
				c-4.9,1.467-10.5-0.083-16.8-4.65c-5.8-4.199-9.133-8.899-10-14.1C-0.483,150.85,0.517,147.3,3.25,144.6z"/>
		</g>
		<path style="fill-rule:evenodd;clip-rule:evenodd;fill:#7F4A34;" d="M8.7,141.95c0.3,0.899,1.617,2.434,3.95,4.6
			c-0.2-0.033-0.533,0.05-1,0.25c-0.867,0.367-1.85,1.101-2.95,2.2c-1.733,1.733-3.333,4.134-4.8,7.2c-0.3-1.2-0.533-2.467-0.7-3.8
			c-0.367-2.7-0.284-4.417,0.25-5.15c0.533-0.733,1.566-1.833,3.1-3.3L8.7,141.95z"/>
		<path style="fill-rule:evenodd;clip-rule:evenodd;fill:#D98560;" d="M31.7,153.35v5.15c-0.067,3.667-0.284,6.184-0.65,7.55
			c-0.566,2.134-0.983,3.367-1.25,3.7c-0.566,0.8-1.683,1.1-3.35,0.9c-1.633-0.167-2.434-0.801-2.4-1.9
			c0.034-0.533,0.4-1.566,1.1-3.1c0.367-0.834,0.767-3.017,1.2-6.551l0.55-5.1L31.7,153.35z"/>
	</g>
	<path style="fill-rule:evenodd;clip-rule:evenodd;fill:#E9BB99;" d="M126.55,9.2c0.634,4,0.334,8.1-0.899,12.3
		c-1.367,4.633-3.334,8.667-5.9,12.1c-3.233,4.267-6.566,6.15-10,5.65c-3.667-0.533-6.316-2.983-7.95-7.35
		c-1.6-4.167-1.816-8.65-0.649-13.45c1.433-6.034,4.383-10.9,8.85-14.6c4.167-3.467,7.783-4.583,10.85-3.35
		C123.884,1.7,125.783,4.6,126.55,9.2z"/>
	
		<linearGradient id="SVGID_1_" gradientUnits="userSpaceOnUse" x1="-121.6694" y1="34.0156" x2="-104.038" y2="34.0156" gradientTransform="matrix(-0.8947 -0.4466 0.4466 -0.8947 1.218319e-004 -5.346239e-004)">
		<stop  offset="0" style="stop-color:#893342"/>
		<stop  offset="1" style="stop-color:#2D1D1E"/>
	</linearGradient>
	<path style="fill-rule:evenodd;clip-rule:evenodd;fill:url(#SVGID_1_);" d="M123.85,10.05c0.534,3.133,0.184,6.85-1.05,11.15
		c-1.233,4.333-2.934,7.75-5.1,10.25c-2.434,2.867-4.884,3.783-7.351,2.75c-2.466-1.034-3.899-3.167-4.3-6.4
		c-0.366-2.9,0.117-6.2,1.45-9.9c1.267-3.566,2.95-6.6,5.05-9.1c2.267-2.633,4.45-3.95,6.55-3.95
		C121.7,4.85,123.283,6.583,123.85,10.05z"/>
</g>
</svg>
