<?xml version="1.0" encoding="iso-8859-1"?>
<!-- Generator: Adobe Illustrator 15.1.0, SVG Export Plug-In . SVG Version: 6.00 Build 0)  -->
<!DOCTYPE svg PUBLIC "-//W3C//DTD SVG 1.1//EN" "http://www.w3.org/Graphics/SVG/1.1/DTD/svg11.dtd">
<svg version="1.1" id="Isolation_Mode" xmlns="http://www.w3.org/2000/svg" xmlns:xlink="http://www.w3.org/1999/xlink" x="0px"
	 y="0px" width="29.5px" height="75.45px" viewBox="0 0 29.5 75.45" style="enable-background:new 0 0 29.5 75.45;"
	 xml:space="preserve">
<path style="fill-rule:evenodd;clip-rule:evenodd;fill:#895D60;" d="M29.5,39.9c0,6.233-0.6,14.017-1.8,23.35
	c-0.634,4.667-1.25,8.7-1.851,12.1c-1.3,0.233-2.633,0.101-4-0.399c-2.767-1-4.35-3.351-4.75-7.05c1.134-1.634,2.25-3.934,3.351-6.9
	c2.166-5.9,3.149-12.167,2.95-18.8c-0.2-6.6-3.367-13.717-9.5-21.35c-3.066-3.8-6.117-6.95-9.15-9.45l7.95-4.65
	c2.8,3.033,5.6,6.683,8.399,10.95C26.7,26.267,29.5,33.667,29.5,39.9z"/>
<g>
	<path style="fill-rule:evenodd;clip-rule:evenodd;fill:#794F53;" d="M23.4,42.2c-0.2-6.6-3.367-13.717-9.5-21.35
		c-3.066-3.8-6.117-6.95-9.15-9.45l0.55-0.35l4.95-0.45c2.467,2.6,4.95,5.667,7.45,9.2c5.066,7.067,7.783,12.95,8.149,17.65
		c0.367,4.467-0.383,11.6-2.25,21.399c-1,5.167-2.116,10.25-3.35,15.25c-1.8-1.267-2.85-3.333-3.15-6.199
		c1.134-1.634,2.25-3.934,3.351-6.9C22.616,55.1,23.6,48.833,23.4,42.2z"/>
</g>
<path style="fill-rule:evenodd;clip-rule:evenodd;fill:#6D484C;" d="M0.2,7.25L11.85,0.6c0.967,0.8,1.8,1.75,2.5,2.85
	c1.367,2.2,1.317,4.033-0.149,5.5c-0.934,0.966-2.15,1.816-3.65,2.55c-1.8,0.867-3.5,1.3-5.1,1.3c-1.467,0-2.784-0.917-3.95-2.75
	C0.933,9.117,0.5,8.183,0.2,7.25z"/>
<path style="fill-rule:evenodd;clip-rule:evenodd;fill:#624246;" d="M0.2,7.25C-0.267,6.517,0.133,5.567,1.4,4.4
	c0.833-0.833,1.967-1.667,3.4-2.5c1.434-0.833,2.8-1.4,4.1-1.7c1.7-0.4,2.767-0.15,3.2,0.75c0.333,0.733,0.283,1.5-0.15,2.3
	c-0.467,0.867-1.35,1.7-2.65,2.5C7.833,6.65,6.1,7.3,4.1,7.7C1.933,8.1,0.633,7.95,0.2,7.25z"/>
<path style="fill-rule:evenodd;clip-rule:evenodd;fill:#4A3939;" d="M5.45,2.1c1.033-0.6,2.167-1.033,3.4-1.3
	C10.083,0.533,10.8,0.6,11,1c0.233,0.467,0.15,1.05-0.25,1.75c-0.433,0.8-1.117,1.5-2.05,2.1c-1.133,0.8-2.534,1.433-4.2,1.9
	C2.667,7.283,1.567,7.233,1.2,6.6C0.833,6,1.2,5.233,2.3,4.3C2.833,3.833,3.883,3.1,5.45,2.1z"/>
</svg>
