<?xml version="1.0" encoding="iso-8859-1"?>
<!-- Generator: Adobe Illustrator 15.1.0, SVG Export Plug-In . SVG Version: 6.00 Build 0)  -->
<!DOCTYPE svg PUBLIC "-//W3C//DTD SVG 1.1//EN" "http://www.w3.org/Graphics/SVG/1.1/DTD/svg11.dtd">
<svg version="1.1" id="ground" xmlns="http://www.w3.org/2000/svg" xmlns:xlink="http://www.w3.org/1999/xlink" x="0px" y="0px"
	 width="242.45px" height="17.65px" viewBox="0 0 242.45 17.65" style="enable-background:new 0 0 242.45 17.65;"
	 xml:space="preserve">
<g>
	<g>
		<path style="fill-rule:evenodd;clip-rule:evenodd;fill:#7F5257;" d="M173.25,8.55c8.167,1.9,14.983,3.351,20.45,4.351
			c15.079,2.771,31.329,4.346,48.75,4.725L0,17.65V17.5c11.433-3.9,22.917-6.9,34.45-9C63.85,3.1,88.567,0.267,108.6,0
			c15.367-0.2,30.55,1.217,45.55,4.25C157.517,4.917,163.884,6.35,173.25,8.55z"/>
	</g>
	<g>
		<g>
			<path style="fill-rule:evenodd;clip-rule:evenodd;fill:#70424A;" d="M103,10.05c-1.867,1.2-3.583,1.667-5.15,1.4
				c-1.7-0.334-2.733-0.9-3.1-1.7c-0.333-0.7-0.133-1.3,0.6-1.8c0.833-0.6,2.05-0.867,3.65-0.8c-0.667,0.133-1.317,0.317-1.95,0.55
				c-1.233,0.433-1.667,0.9-1.3,1.399c0.5,0.733,1.783,1.034,3.85,0.9c2.167-0.167,4.083-0.767,5.75-1.8
				C104.717,8.867,103.933,9.483,103,10.05z"/>
		</g>
	</g>
	<g>
		<g>
			<path style="fill-rule:evenodd;clip-rule:evenodd;fill:#70424A;" d="M141.2,7.2c-0.767,0.8-1.783,1.533-3.05,2.2
				c-2.467,1.366-4.684,1.75-6.65,1.149c-2.066-0.633-3.283-1.483-3.65-2.55c-0.333-0.9-0.017-1.65,0.95-2.25
				c0.7-0.4,1.7-0.583,3-0.55c0.634,0,1.217,0.033,1.75,0.1c-0.866,0.1-1.717,0.233-2.55,0.4c-1.6,0.4-2.2,0.933-1.8,1.6
				c0.5,1,2.083,1.55,4.75,1.65C136.783,9.05,139.2,8.467,141.2,7.2z"/>
		</g>
	</g>
	<g>
		<g>
			<path style="fill-rule:evenodd;clip-rule:evenodd;fill:#70424A;" d="M157.15,15.3c1.866,0.033,3.616-0.217,5.25-0.75
				c-2.634,1.733-4.9,2.384-6.801,1.95c-1.3-0.267-2.149-0.717-2.55-1.35c-0.366-0.601-0.283-1.15,0.25-1.65
				c0.467-0.4,1.2-0.65,2.2-0.75c0.362-0.024,0.688-0.032,0.975-0.025c-0.293,0.063-0.802,0.222-1.524,0.476
				c-1.167,0.399-1.55,0.833-1.15,1.3C154.267,14.967,155.384,15.233,157.15,15.3z"/>
		</g>
	</g>
	<g>
		<g>
			<path style="fill-rule:evenodd;clip-rule:evenodd;fill:#70424A;" d="M60.95,12.5c-1.967,1.1-3.717,1.434-5.25,1
				c-1.6-0.434-2.583-1.066-2.95-1.9c-0.3-0.699-0.083-1.3,0.65-1.8c0.533-0.333,1.333-0.517,2.4-0.55c0.534-0.033,1-0.033,1.4,0
				c-0.7,0.1-1.383,0.25-2.05,0.45c-1.3,0.366-1.767,0.8-1.4,1.3c0.467,0.733,1.733,1.116,3.8,1.15c2.267,0.066,4.2-0.417,5.8-1.45
				C62.717,11.333,61.917,11.934,60.95,12.5z"/>
		</g>
	</g>
</g>
</svg>
