<?xml version="1.0" encoding="iso-8859-1"?>
<!-- Generator: Adobe Illustrator 15.1.0, SVG Export Plug-In . SVG Version: 6.00 Build 0)  -->
<!DOCTYPE svg PUBLIC "-//W3C//DTD SVG 1.1//EN" "http://www.w3.org/Graphics/SVG/1.1/DTD/svg11.dtd">
<svg version="1.1" id="buildings-back" xmlns="http://www.w3.org/2000/svg" xmlns:xlink="http://www.w3.org/1999/xlink" x="0px"
	 y="0px" width="110.55px" height="117.2px" viewBox="0 0 110.55 117.2" style="enable-background:new 0 0 110.55 117.2;"
	 xml:space="preserve">
<path style="fill-rule:evenodd;clip-rule:evenodd;fill:#544F44;" d="M23.8,28.1c5.534,8.7,12.65,18.6,21.35,29.7l8.35-19l27.9-17.85
	L55.85,41.15L52,47.9c-2.567,5.067-3.85,8.967-3.85,11.7c0,2.7,1.283,5.784,3.85,9.25c1.3,1.733,2.583,3.2,3.85,4.4l20.801-20.2
	l33.899-4.15L76.65,56.6c-3.4,3.333-6.867,6.867-10.4,10.6c-7.066,7.467-10.917,12.25-11.55,14.35
	c-2.233,7.434-0.233,15.217,6,23.351c3.1,4.066,6.434,7.383,10,9.949c-3.566-1.1-7.217-2.166-10.95-3.199
	c-7.533-2.067-11.8-2.983-12.8-2.75c-0.967,0.267-2.75,1.733-5.35,4.399c-1.267,1.334-2.45,2.634-3.55,3.9
	c0.6-1.066,0.967-2.167,1.1-3.3c0.3-2.267-0.667-3.534-2.9-3.801c-2.233-0.233-5.683,0.384-10.35,1.851c-2.3,0.733-4.4,1.5-6.3,2.3
	c2.767-1.566,5.933-3.6,9.5-6.1c7.133-4.934,12.683-9.634,16.65-14.101s4.183-12.333,0.65-23.6c-1.133-3.533-2.566-7.2-4.3-11
	l-2.25-4.6L17.25,27.5c0.8-0.4-4.95,0.783-17.25,3.55l16.65-8.3L16.175-0.025C16.298,1.94,16.506,4.031,16.8,6.25
	C18,15.35,20.333,22.633,23.8,28.1z"/>
</svg>
