<?xml version="1.0" encoding="iso-8859-1"?>
<!-- Generator: Adobe Illustrator 15.1.0, SVG Export Plug-In . SVG Version: 6.00 Build 0)  -->
<!DOCTYPE svg PUBLIC "-//W3C//DTD SVG 1.1//EN" "http://www.w3.org/Graphics/SVG/1.1/DTD/svg11.dtd">
<svg version="1.1" id="buildings-mid" xmlns="http://www.w3.org/2000/svg" xmlns:xlink="http://www.w3.org/1999/xlink" x="0px"
	 y="0px" width="58.05px" height="89.6px" viewBox="0 0 58.05 89.6" style="enable-background:new 0 0 58.05 89.6;"
	 xml:space="preserve">
<g>
	<polygon style="fill-rule:evenodd;clip-rule:evenodd;fill:#5D726E;" points="41.25,18.1 34.05,16.6 44.75,6.3 51.75,2.6 46.9,8.3 
		52.55,8.6 48.75,12.45 53.05,12.1 	"/>
	<path style="fill-rule:evenodd;clip-rule:evenodd;fill:#81908E;" d="M42.7,18.75c-10.667,4.567-17.117,9.2-19.35,13.9
		c-2.2,4.733-2.75,15.15-1.65,31.25c0.566,8.066,1.35,15.649,2.35,22.75c-2,0.233-4.367,0.216-7.1-0.051
		c-5.434-0.566-9.967-2.1-13.6-4.6c0-7.9,0.583-16.316,1.75-25.25C7.433,38.85,11.517,27.267,17.35,22
		C23.183,16.733,30.5,11.483,39.3,6.25c4.367-2.6,8.167-4.683,11.4-6.25l-8,9.35L50.05,8L38.7,15.35l19.35-2
		C53.15,14.683,48.033,16.483,42.7,18.75z"/>
	<g>
		<path style="fill-rule:evenodd;clip-rule:evenodd;fill:#71817E;" d="M50.7,0l-8,9.35l5.45-1c-5.767,2.533-11.134,5.333-16.101,8.4
			C23.617,21.917,18.6,26.617,17,30.85c-1.767,4.7-3.033,13.9-3.8,27.6c-0.367,6.866-0.567,13.25-0.6,19.149l-9.2,3.15
			c0.133-9.566,0.9-18.884,2.3-27.95C8.1,37.133,11.983,26.867,17.35,22C23.183,16.733,30.5,11.483,39.3,6.25
			C43.667,3.65,47.467,1.567,50.7,0z"/>
	</g>
	<path style="fill-rule:evenodd;clip-rule:evenodd;fill:#5D726E;" d="M3.6,74.85c2.833,1.334,5.833,2.25,9,2.75
		c1.967,0.301,4.267,0.184,6.9-0.35c1.333-0.267,2.45-0.566,3.35-0.9l0.9,0.851c0.7,0.8,1.2,1.767,1.5,2.899
		c0.533,2.034,0.7,4.15,0.5,6.351c-0.967,0.533-2.25,1.066-3.85,1.6c-3.167,1.033-6.3,1.55-9.4,1.55c-3.633,0-6.817-0.666-9.55-2
		c-1.333-0.666-2.317-1.333-2.95-2c0.3-2.433,0.633-4.35,1-5.75c0.2-0.833,0.7-1.916,1.5-3.25L3.6,74.85z"/>
	<path style="fill-rule:evenodd;clip-rule:evenodd;fill:#5D726E;" d="M12.75,30.45c2.133-4.633,6.783-9.25,13.95-13.85
		c3.566-2.3,6.916-4.133,10.05-5.5c-2.967,1.6-6.15,3.7-9.55,6.3c-6.833,5.2-11.317,10.333-13.45,15.4c-1.833,4.3-3,12.7-3.5,25.2
		c-0.233,6.233-0.3,12.05-0.2,17.45c-2-0.4-3.367-0.834-4.1-1.3L5.4,73.6C5.7,68.4,6.233,62.684,7,56.45
		C8.533,44.05,10.45,35.383,12.75,30.45z"/>
	<path style="fill-rule:evenodd;clip-rule:evenodd;fill:#93A6A3;" d="M27.4,23.3c-0.867,0.934-1.8,2.117-2.8,3.55
		c-2,2.867-3.35,5.517-4.05,7.95c-0.7,2.434-0.933,8.417-0.7,17.95c0.133,4.767,0.316,9.283,0.55,13.55l-2.85,1
		c-0.2-3.8-0.333-7.967-0.4-12.5c-0.066-9.066,0.35-15.4,1.25-19c0.9-3.633,2.667-6.8,5.3-9.5
		C25.033,24.933,26.267,23.933,27.4,23.3z"/>
	<path style="fill-rule:evenodd;clip-rule:evenodd;fill:#71817E;" d="M19,79.75l3.75-0.9l0.6,2.2c0.3,1.566,0.3,2.634,0,3.2
		c-0.5,0.9-1.533,1.184-3.1,0.85c-0.167-0.5-0.217-1.199-0.15-2.1c0.066-0.566-0.1-1.283-0.5-2.15L19,79.75z"/>
	<g>
		<path style="fill-rule:evenodd;clip-rule:evenodd;fill:#556864;" d="M12.6,77.6L11.4,79.9c-0.767,1.833-1.066,3.449-0.9,4.85
			c0.133,1.4,1.317,2.55,3.55,3.45c1.133,0.434,2.233,0.733,3.3,0.899l-1.1,0.25c-1.333,0.167-2.583,0.25-3.75,0.25
			c-3.633,0-6.817-0.666-9.55-2c-1.333-0.666-2.317-1.333-2.95-2c0.3-2.433,0.633-4.35,1-5.75c0.2-0.833,0.7-1.916,1.5-3.25
			l1.1-1.75C6.433,76.184,9.433,77.1,12.6,77.6z"/>
	</g>
</g>
</svg>
