<?xml version="1.0" encoding="iso-8859-1"?>
<!-- Generator: Adobe Illustrator 15.1.0, SVG Export Plug-In . SVG Version: 6.00 Build 0)  -->
<!DOCTYPE svg PUBLIC "-//W3C//DTD SVG 1.1//EN" "http://www.w3.org/Graphics/SVG/1.1/DTD/svg11.dtd">
<svg version="1.1" id="ground" xmlns="http://www.w3.org/2000/svg" xmlns:xlink="http://www.w3.org/1999/xlink" x="0px" y="0px"
	 width="171.3px" height="125px" viewBox="0 0 171.3 125" style="enable-background:new 0 0 171.3 125;" xml:space="preserve">
<g>
	<path style="fill-rule:evenodd;clip-rule:evenodd;fill:#7F5257;" d="M170.8,0h0.5v125H0c20.333-23.866,42.283-45.384,65.85-64.55
		C100.616,32.217,135.6,12.067,170.8,0z"/>
	<g>
		<g>
			<path style="fill-rule:evenodd;clip-rule:evenodd;fill:#70424A;" d="M151.65,38.25c-0.534,0.567-1.233,1.083-2.101,1.55
				c-1.733,0.934-3.283,1.2-4.649,0.8c-1.434-0.4-2.284-0.967-2.551-1.7c-0.267-0.667-0.066-1.2,0.601-1.6
				c0.767-0.466,1.883-0.6,3.35-0.4c-0.633,0.067-1.233,0.167-1.8,0.3c-1.134,0.3-1.55,0.683-1.25,1.15
				c0.366,0.667,1.467,1.033,3.3,1.1C148.55,39.55,150.25,39.15,151.65,38.25z"/>
		</g>
	</g>
	<g>
		<g>
			<path style="fill-rule:evenodd;clip-rule:evenodd;fill:#70424A;" d="M157.2,18.8c2,0.067,3.7-0.35,5.1-1.25
				c0.467,0-0.233,0.517-2.1,1.55c-1.733,0.933-3.283,1.2-4.65,0.8c-1.434-0.4-2.283-0.967-2.55-1.7
				c-0.233-0.633-0.017-1.167,0.65-1.6c0.767-0.434,1.866-0.55,3.3-0.35c-0.634,0.067-1.233,0.167-1.8,0.3
				c-1.134,0.3-1.551,0.684-1.25,1.15C154.267,18.367,155.366,18.733,157.2,18.8z"/>
		</g>
	</g>
	<g>
		<g>
			<path style="fill-rule:evenodd;clip-rule:evenodd;fill:#70424A;" d="M105.65,106.85c-1.5,1.567-3.434,3.034-5.801,4.4
				c-4.666,2.8-8.916,3.767-12.75,2.9c-4.066-1-6.516-2.5-7.35-4.5c-0.733-1.733-0.183-3.217,1.65-4.45
				c1.3-0.834,3.2-1.316,5.7-1.45c1.233-0.066,2.351-0.066,3.351,0c-1.667,0.3-3.267,0.684-4.8,1.15
				c-3.067,0.899-4.184,1.966-3.351,3.199c1.067,1.867,4.167,2.75,9.3,2.65C97.033,110.65,101.717,109.35,105.65,106.85z"/>
		</g>
	</g>
	<g>
		<g>
			<path style="fill-rule:evenodd;clip-rule:evenodd;fill:#70424A;" d="M26.2,117.05c-1.2,0.733-2.3,1-3.3,0.8
				c-1.1-0.3-1.733-0.716-1.9-1.25c-0.167-0.466-0.017-0.833,0.45-1.1c0.333-0.167,0.816-0.267,1.45-0.3
				c0.3-0.033,0.583-0.05,0.85-0.05c-0.433,0.1-0.833,0.199-1.2,0.3c-0.767,0.2-1.066,0.467-0.9,0.8
				c0.267,0.533,1.067,0.767,2.4,0.7c1.367-0.066,2.567-0.434,3.6-1.101L26.2,117.05z"/>
		</g>
	</g>
	<g>
		<g>
			<path style="fill-rule:evenodd;clip-rule:evenodd;fill:#70424A;" d="M163.45,107.7c-1.267,0.733-2.434,0.916-3.5,0.55
				c-1.134-0.533-1.733-1.083-1.8-1.65c-0.067-0.466,0.199-0.783,0.8-0.949c0.6-0.2,1.333-0.2,2.2,0
				c-0.4,0.033-0.801,0.083-1.2,0.149c-0.767,0.066-1.101,0.267-1,0.601c0.133,0.666,0.899,1.033,2.3,1.1
				c1.467,0.1,2.7-0.217,3.7-0.95C164.583,106.983,164.083,107.366,163.45,107.7z"/>
		</g>
	</g>
	<g>
		<g>
			<path style="fill-rule:evenodd;clip-rule:evenodd;fill:#70424A;" d="M131.6,116.95c0.601-0.167,1.334-0.15,2.2,0.05
				c-0.399,0.033-0.783,0.066-1.149,0.1c-0.767,0.101-1.117,0.317-1.051,0.65c0.134,0.667,0.9,1.033,2.301,1.1
				c1.466,0.067,2.716-0.267,3.75-1c-0.4,0.434-0.917,0.834-1.551,1.2c-1.233,0.733-2.399,0.917-3.5,0.55
				c-1.133-0.533-1.733-1.083-1.8-1.649C130.733,117.483,131,117.15,131.6,116.95z"/>
		</g>
	</g>
	<g>
		<g>
			<path style="fill-rule:evenodd;clip-rule:evenodd;fill:#70424A;" d="M82.95,56.3c0.6-0.167,1.333-0.167,2.2,0
				c-0.4,0.034-0.8,0.083-1.2,0.15c-0.767,0.1-1.1,0.316-1,0.65c0.133,0.633,0.9,0.983,2.3,1.05c1.467,0.1,2.7-0.217,3.7-0.95
				c-0.367,0.433-0.867,0.833-1.5,1.2c-1.267,0.733-2.434,0.917-3.5,0.55c-1.133-0.534-1.733-1.1-1.8-1.7
				C82.083,56.783,82.35,56.467,82.95,56.3z"/>
		</g>
	</g>
	<g>
		<g>
			<path style="fill-rule:evenodd;clip-rule:evenodd;fill:#70424A;" d="M46.25,98.45c-2.767,0.8-3.75,1.767-2.95,2.899
				c1,1.5,3.684,2.317,8.05,2.45c4.733,0.167,8.9-0.684,12.5-2.55c-1.434,1.233-3.217,2.384-5.35,3.45
				c-4.233,2.1-7.933,2.733-11.1,1.899c-3.4-0.866-5.483-2.166-6.25-3.899c-0.667-1.533-0.233-2.834,1.3-3.9
				c1.133-0.8,2.85-1.233,5.15-1.3c1.133-0.033,2.133,0,3,0.1C49.1,97.8,47.65,98.083,46.25,98.45z"/>
		</g>
	</g>
	<g>
		<g>
			<path style="fill-rule:evenodd;clip-rule:evenodd;fill:#70424A;" d="M151.65,65.15c-0.7,0.1-1.483,0.267-2.351,0.5
				c-1.733,0.5-3.05,1.199-3.95,2.1c-1,1.167,1.917,2.167,8.75,3c3.292,0.411,5.817,0.67,7.575,0.775
				c-10.347,0.535-16.405-0.356-18.175-2.676c-1.2-1.333-0.2-2.333,3-3C148.1,65.517,149.816,65.283,151.65,65.15z"/>
		</g>
	</g>
	<g>
		<g>
			<path style="fill-rule:evenodd;clip-rule:evenodd;fill:#70424A;" d="M128.05,89.7c1.733-0.334,3.584-0.566,5.55-0.7
				c-0.767,0.066-1.616,0.233-2.55,0.5c-1.866,0.533-3.267,1.267-4.2,2.2c-1,1.133,2.067,2.233,9.2,3.3
				c4.454,0.686,7.546,1.102,9.275,1.25c-2.614,0.054-5.339-0.029-8.175-0.25c-6.867-0.467-10.967-1.5-12.301-3.1
				C123.55,91.5,124.616,90.434,128.05,89.7z"/>
		</g>
	</g>
	<g>
		<g>
			<path style="fill-rule:evenodd;clip-rule:evenodd;fill:#70424A;" d="M85.5,73.25c1.515-0.407,2.381-0.591,2.6-0.55
				c-1.117,0.241-2.317,0.641-3.6,1.2c-2.667,1.133-4.483,2.55-5.45,4.25c-0.5,0.833,0.667,1.449,3.5,1.85
				c0.133,0.033,3.417,0.333,9.851,0.9c2.933,0.267,6.283,0.699,10.05,1.3c1.833,0.3,3.35,0.55,4.55,0.75
				c0,0.033-1.316-0.05-3.95-0.25c-3.366-0.267-6.399-0.417-9.1-0.45c-4.7-0.1-8.084-0.217-10.15-0.35c-3.533-0.2-5.9-0.7-7.1-1.5
				C74.267,78.8,75.433,77,80.2,75C81.767,74.366,83.533,73.783,85.5,73.25z"/>
		</g>
	</g>
	<g>
		<g>
			<path style="fill-rule:evenodd;clip-rule:evenodd;fill:#70424A;" d="M111.15,44.75c-0.9,0.167-1.9,0.467-3,0.9
				c-2.167,0.833-3.767,1.867-4.801,3.1c-1.133,1.533,2.684,2.517,11.45,2.95c8.9,0.433,13.4,0.383,13.5-0.15
				c0.066,0.534-3.95,0.934-12.05,1.2c-8.366,0.3-13.434-0.483-15.2-2.35c-1.666-1.6-0.483-3,3.55-4.2
				C106.634,45.6,108.816,45.117,111.15,44.75z"/>
		</g>
	</g>
</g>
</svg>
