<?xml version="1.0" encoding="iso-8859-1"?>
<!-- Generator: Adobe Illustrator 15.1.0, SVG Export Plug-In . SVG Version: 6.00 Build 0)  -->
<!DOCTYPE svg PUBLIC "-//W3C//DTD SVG 1.1//EN" "http://www.w3.org/Graphics/SVG/1.1/DTD/svg11.dtd">
<svg version="1.1" id="buildings" xmlns="http://www.w3.org/2000/svg" xmlns:xlink="http://www.w3.org/1999/xlink" x="0px" y="0px"
	 width="60.95px" height="76.3px" viewBox="0 0 60.95 76.3" style="enable-background:new 0 0 60.95 76.3;" xml:space="preserve">
<g>
	<path style="fill-rule:evenodd;clip-rule:evenodd;fill:#81908E;" d="M58.55,48.7c-2,7.8-4.583,15.1-7.75,21.899
		c-0.899,1.233-2.017,2.384-3.35,3.45c-2.667,2.101-5.101,2.733-7.3,1.9c-2.233-0.834-3.801-2.517-4.7-5.05L34.8,67.3
		c2.434-4.566,4.7-9.533,6.8-14.899c4.2-10.7,5.467-18,3.801-21.9c-1.667-3.867-7.767-6.5-18.3-7.9
		c-5.3-0.7-10.417-1.017-15.35-0.95c-0.233-2.5-0.2-5.133,0.1-7.9C12.383,8.283,13.9,5,16.4,3.9c4.233,0.3,9.05,1.117,14.45,2.45
		c10.767,2.6,19.067,6.4,24.9,11.4S62.517,33.067,58.55,48.7z"/>
	<g>
		<path style="fill-rule:evenodd;clip-rule:evenodd;fill:#637572;" d="M49.65,25.25c1.533,2.533,2,6.033,1.399,10.5
			c-0.366,2.733-1.333,6.566-2.899,11.5c-1.434,4.467-4.934,13.517-10.5,27.15c-1.2-1.134-2.034-2.667-2.5-4.601L34.8,67.3
			c2.434-4.566,4.7-9.533,6.8-14.899c4.2-10.7,5.467-18,3.801-21.9c-1.534-3.6-6.917-6.133-16.15-7.6
			c-5.2-0.833-10.8-1.25-16.8-1.25c1.233-2.133,2.816-4.066,4.75-5.8c0.966-0.867,1.816-1.517,2.55-1.95
			c4.4,0.934,8.95,2.1,13.65,3.5C42.767,20.233,48.184,22.85,49.65,25.25z"/>
	</g>
	<path style="fill-rule:evenodd;clip-rule:evenodd;fill:#546764;" d="M6.25,0.75c0.5-0.3,1.2-0.517,2.1-0.65
		c1.867-0.3,3.917-0.033,6.15,0.8c2.833,1.067,4.767,3.033,5.8,5.9c1.1,3.133,0.883,6.784-0.65,10.95
		c-1.133,3.067-2.933,5.1-5.4,6.1c-2.233,0.9-5.1,1-8.6,0.3c-3.333-0.667-4.933-3.816-4.8-9.45C1.017,9.1,2.817,4.45,6.25,0.75z"/>
	<path style="fill-rule:evenodd;clip-rule:evenodd;fill:#9EAEAB;" d="M50.9,15.65c2.366,1.633,4.216,3.267,5.55,4.9
		c1.666,2.1,2.649,4.383,2.95,6.85c0.3,2.633,0.149,6.017-0.45,10.15c-0.566,4.101-1.167,6.167-1.8,6.2
		c-0.467,0.066-0.567-1.483-0.301-4.65c0.434-4.833,0.65-7.95,0.65-9.35c0-2.967-1.184-5.833-3.55-8.6
		c-2.267-2.667-5.117-4.667-8.55-6c-5.167-2-12.417-3.917-21.75-5.75c0-0.533-0.066-1.167-0.2-1.9l-0.2-1c3.4,0.7,7.1,1.6,11.1,2.7
		C42.35,11.433,47.866,13.583,50.9,15.65z"/>
	<path style="fill-rule:evenodd;clip-rule:evenodd;fill:#485956;" d="M43.4,23.5c2,0.933,3.383,2.1,4.149,3.5
		c1.101,1.967,1.417,4.85,0.95,8.65c-0.4,3.466-2.434,10.45-6.1,20.95c-1.834,5.233-3.634,10.117-5.4,14.65l-0.6-1
		c-0.267-0.4-0.417-1.1-0.45-2.1l0.05-1.4c5.767-13.9,9.4-23.733,10.9-29.5c1-3.8,0.699-6.85-0.9-9.15
		c-1.1-1.533-2.85-2.767-5.25-3.7c-1.467-0.566-5.217-1.316-11.25-2.25l-8.6-1.25l1-1.15c0.233-0.233,0.4-0.767,0.5-1.6l9.3,2.1
		C38.134,21.783,42.033,22.867,43.4,23.5z"/>
	<path style="fill-rule:evenodd;clip-rule:evenodd;fill:#627974;" d="M10.65,1.15l2.2,0.15c1.7,0.333,3.167,1.15,4.4,2.45
		c0.8,0.867,1.367,1.8,1.7,2.8c0.367,1.133,0.1,1.7-0.8,1.7c-0.833,0-1.517-0.5-2.05-1.5C15.633,5.483,15.267,4.533,15,3.9
		c-0.3-0.8-1.117-1.5-2.45-2.1L10.65,1.15z"/>
	<g>
		<path style="fill-rule:evenodd;clip-rule:evenodd;fill:#4C5D5A;" d="M1.8,21.3l0.35-0.05c1.767-0.2,4.017-1.45,6.75-3.75
			c1.367-1.133,2.55-2.25,3.55-3.35l1.15,0.7c0.933,0.433,1.867,0.65,2.8,0.65c1.5,0,2.95-0.45,4.35-1.35
			c-0.167,1.167-0.533,2.434-1.1,3.8c-1.133,2.733-2.683,4.583-4.65,5.55c-1.433,0.767-3.083,1.133-4.95,1.1
			c-1.167,0.033-2.633-0.117-4.4-0.45C4.117,23.883,2.833,22.933,1.8,21.3z"/>
	</g>
	<path style="fill-rule:evenodd;clip-rule:evenodd;fill:#455452;" d="M13.9,17.15c1,0.567,2.25,0.567,3.75,0
		c-0.767,2.233-1.767,3.934-3,5.1c-0.8,0.733-2.033,1.2-3.7,1.4l-2.075,0.1c0.934-0.084,1.892-0.617,2.875-1.6
		C12.917,20.983,13.633,19.317,13.9,17.15z"/>
	<path style="fill-rule:evenodd;clip-rule:evenodd;fill:#35403E;" d="M7.65,0.5c1.667,0,3.033,0.767,4.1,2.3
		c1.267,1.867,1.85,4.6,1.75,8.2c-0.133,3.833-1.033,7.05-2.7,9.65c-1.6,2.467-3.4,3.633-5.4,3.5
		c-1.867-0.133-3.316-1.617-4.35-4.45c-1-2.633-1.3-5.317-0.9-8.05C0.583,8.683,1.4,6.183,2.6,4.15C4,1.717,5.683,0.5,7.65,0.5z"/>
	<linearGradient id="SVGID_1_" gradientUnits="userSpaceOnUse" x1="1.875" y1="11.8311" x2="10.425" y2="11.8311">
		<stop  offset="0" style="stop-color:#893342"/>
		<stop  offset="1" style="stop-color:#2D1D1E"/>
	</linearGradient>
	<path style="fill-rule:evenodd;clip-rule:evenodd;fill:url(#SVGID_1_);" d="M7.15,2.15c1-0.1,1.817,0.883,2.45,2.95
		c0.6,1.9,0.883,4.167,0.85,6.8c-0.133,6.7-1.7,9.9-4.7,9.6c-1.5-0.133-2.583-1.2-3.25-3.2c-0.6-1.767-0.783-3.917-0.55-6.45
		c0.233-2.533,0.8-4.7,1.7-6.5C4.65,3.35,5.817,2.283,7.15,2.15z"/>
</g>
</svg>
