<?xml version="1.0" encoding="iso-8859-1"?>
<!-- Generator: Adobe Illustrator 15.1.0, SVG Export Plug-In . SVG Version: 6.00 Build 0)  -->
<!DOCTYPE svg PUBLIC "-//W3C//DTD SVG 1.1//EN" "http://www.w3.org/Graphics/SVG/1.1/DTD/svg11.dtd">
<svg version="1.1" id="Isolation_Mode" xmlns="http://www.w3.org/2000/svg" xmlns:xlink="http://www.w3.org/1999/xlink" x="0px"
	 y="0px" width="34.05px" height="116.85px" viewBox="0 0 34.05 116.85" style="enable-background:new 0 0 34.05 116.85;"
	 xml:space="preserve">
<g>
	<path style="fill-rule:evenodd;clip-rule:evenodd;fill:#386F5F;" d="M33.8,48.55c-0.633,1.5-2.283,3.35-4.95,5.55
		c-0.233,0.167-2.866,2.15-7.899,5.95c-6.9,5.134-10.067,9.2-9.5,12.2c0.633,3.333,3.633,10.333,9,21
		c2.666,5.3,5.283,10.283,7.85,14.95l-3.6,4.8c-2.834,3.1-5.3,4.333-7.4,3.7c-2.667-4.867-5.35-10.4-8.05-16.601
		C3.817,87.767,1,78.366,0.8,71.9C0.6,65.7,4.033,60.05,11.1,54.95c7.466-4.333,11.534-7.25,12.2-8.75
		c0.834-1.867-2.75-8.583-10.75-20.15c-4-5.8-8.083-11.4-12.25-16.8c0.934,0,1.983-0.117,3.15-0.35C5.783,8.467,7.567,7.733,8.8,6.7
		c1.267-1.034,2.25-2.317,2.95-3.85c0.367-0.733,0.6-1.383,0.7-1.95c4.066,6.767,8,13.833,11.8,21.2
		C31.884,36.833,35.066,45.65,33.8,48.55z"/>
	<g>
		<path style="fill-rule:evenodd;clip-rule:evenodd;fill:#315E51;" d="M23.3,46.2c0.834-1.867-2.75-8.583-10.75-20.15
			c-4-5.8-8.083-11.4-12.25-16.8C1.067,9.25,1.967,9.167,3,9c2.067-0.367,3.75-0.95,5.05-1.75c3.434,5.767,6.917,11.95,10.45,18.55
			c6.066,11.333,8.767,17.7,8.1,19.1c-1,2.067-3.699,3.817-8.1,5.25C21.3,48.417,22.9,47.1,23.3,46.2z"/>
		<path style="fill-rule:evenodd;clip-rule:evenodd;fill:#315E51;" d="M5.3,71.75c-0.633,2.934,1.583,9.9,6.65,20.9
			c3.133,6.833,6.833,14.149,11.1,21.949c-2.166,1.934-4.083,2.634-5.75,2.101c-2.667-4.867-5.35-10.4-8.05-16.601
			C3.817,87.767,1,78.366,0.8,71.9c-0.1-1.733,0.133-3.517,0.7-5.351c0.267,0.367,0.583,0.601,0.95,0.7
			c0.767,0.134,1.883-0.7,3.35-2.5l2-2.7L7.15,63.9C6.617,65.8,6,68.417,5.3,71.75z"/>
		<path style="fill-rule:evenodd;clip-rule:evenodd;fill:#315E51;" d="M33.6,43.95c0.534,2.133,0.601,3.667,0.2,4.6
			c-0.633,1.5-2.283,3.35-4.95,5.55c-0.233,0.167-2.866,2.15-7.899,5.95c-6.9,5.134-10.067,9.2-9.5,12.2
			c0.133,0.7,0.483,1.866,1.05,3.5c-0.867-1-1.5-2.65-1.9-4.95c-0.467-2.533-0.3-4.5,0.5-5.899c0.7-1.2,3.417-3.384,8.15-6.55
			c5.866-3.9,9.384-6.333,10.55-7.3C32.333,48.95,33.6,46.583,33.6,43.95z"/>
	</g>
	<path style="fill-rule:evenodd;clip-rule:evenodd;fill:#538171;" d="M4.4,1.85C5.467,1.083,6.883,0.533,8.65,0.2
		c2-0.4,3.267-0.167,3.8,0.7c0.533,0.867,0.383,2.033-0.45,3.5c-0.7,1.3-1.567,2.317-2.6,3.05c-1.1,0.8-2.683,1.466-4.75,2
		c-2.333,0.633-3.783,0.566-4.35-0.2C-0.267,8.45-0.033,7.2,1,5.5C1.967,4,3.1,2.783,4.4,1.85z"/>
	<linearGradient id="SVGID_1_" gradientUnits="userSpaceOnUse" x1="1.0537" y1="4.7158" x2="11.7537" y2="4.7158">
		<stop  offset="0" style="stop-color:#893342"/>
		<stop  offset="1" style="stop-color:#2D1D1E"/>
	</linearGradient>
	<path style="fill-rule:evenodd;clip-rule:evenodd;fill:url(#SVGID_1_);" d="M5.55,1.85c0.7-0.4,1.617-0.7,2.75-0.9
		c1.267-0.2,2.217-0.15,2.85,0.15c1.3,0.566,0.684,2.1-1.85,4.6C8.167,6.833,6.683,7.667,4.85,8.2C3.05,8.767,1.867,8.733,1.3,8.1
		c-0.533-0.567-0.2-1.633,1-3.2C3.367,3.533,4.45,2.517,5.55,1.85z"/>
	<path style="fill-rule:evenodd;clip-rule:evenodd;fill:#294B40;" d="M2.45,77.3c-0.2-1.833-0.167-3.666,0.1-5.5l0.4-2.25l0.3,3.55
		c0.433,3.067,1.217,6.367,2.35,9.9c1.533,4.733,6.617,15.7,15.25,32.9c-0.633,0.233-1.316,0.383-2.05,0.449l-0.95,0.051
		c-2.399-4.934-4.85-10.267-7.35-16C5.5,88.967,2.817,81.267,2.45,77.3z"/>
	<path style="fill-rule:evenodd;clip-rule:evenodd;fill:#294B40;" d="M3.05,11c0.667,0.333,2.167,0.1,4.5-0.7
		C19.483,31.3,25.4,42.467,25.3,43.8c-0.133,1.333-0.666,2.233-1.6,2.7c0.1-0.633,0.149-1.383,0.149-2.25c0-0.7-0.449-2-1.35-3.9
		c-0.9-1.967-2.116-4.2-3.65-6.7C16.817,30.25,11.55,22.7,3.05,11z"/>
	<path style="fill-rule:evenodd;clip-rule:evenodd;fill:#538171;" d="M12.65,7.1c0.434-0.267,0.817-0.934,1.15-2
		c8.9,16.5,13.733,26,14.5,28.5c0.733,2.5,0.934,4.783,0.601,6.85c-0.667-1.733-1.45-4.1-2.351-7.1
		C25.616,30.35,20.983,21.6,12.65,7.1z"/>
	<path style="fill-rule:evenodd;clip-rule:evenodd;fill:#538171;" d="M16.2,89.05l-3.8-9.35l15.25,28.649l-2.101,2.5
		c-1.1-3.5-2.399-6.633-3.899-9.399C20.717,99.75,18.9,95.616,16.2,89.05z"/>
</g>
</svg>
