<?xml version="1.0" encoding="iso-8859-1"?>
<!-- Generator: Adobe Illustrator 15.1.0, SVG Export Plug-In . SVG Version: 6.00 Build 0)  -->
<!DOCTYPE svg PUBLIC "-//W3C//DTD SVG 1.1//EN" "http://www.w3.org/Graphics/SVG/1.1/DTD/svg11.dtd">
<svg version="1.1" id="Isolation_Mode" xmlns="http://www.w3.org/2000/svg" xmlns:xlink="http://www.w3.org/1999/xlink" x="0px"
	 y="0px" width="121.3px" height="93.7px" viewBox="0 0 121.3 93.7" style="enable-background:new 0 0 121.3 93.7;"
	 xml:space="preserve">
<g>
	<path style="fill-rule:evenodd;clip-rule:evenodd;fill:#DC8D68;" d="M98.55,25.2C98.316,18.5,97.9,12.25,97.3,6.45l4.601-3.6
		c3.666-2.3,6.949-3.217,9.85-2.75c2.934,0.467,5.4,1.816,7.4,4.05c1,1.133,1.716,2.217,2.149,3.25c0,8.767-0.316,17.883-0.95,27.35
		c-1.333,18.866-3.649,29.983-6.949,33.35c-3.334,3.367-20.351,7.817-51.051,13.351C37.45,85.95,21.633,88.467,14.9,89
		c-1.7,0.1-3.5-0.55-5.4-1.95C7.433,85.517,5.667,83.4,4.2,80.7c-1.267-2.334-1.717-4.45-1.35-6.351
		c0.8-2.133,1.316-3.916,1.55-5.35c14.733-1.134,29.633-2.717,44.7-4.75c30.1-4.033,46-8.217,47.7-12.55
		C98.5,47.366,99.083,38.533,98.55,25.2z"/>
	<g>
		<path style="fill-rule:evenodd;clip-rule:evenodd;fill:#CB7857;" d="M98.55,25.2C98.316,18.5,97.9,12.25,97.3,6.45l2.75-2.3
			c2.267-1.7,4.467-2.883,6.601-3.55c1.6,8.933,2.149,19.5,1.649,31.7c-0.7,17.733-4.333,27.717-10.899,29.95
			c-6.9,2.366-23.2,5.45-48.9,9.25c-12.867,1.9-25.033,3.566-36.5,5l-0.45-8.15c19-1.699,35.434-3.633,49.3-5.8
			C83.384,59.017,95.366,55.4,96.8,51.7C98.5,47.366,99.083,38.533,98.55,25.2z"/>
	</g>
	<path style="fill-rule:evenodd;clip-rule:evenodd;fill:#C46544;" d="M17.85,67.8l-1,2.15c-0.333,2,0.283,4.399,1.85,7.2
		c1.6,2.8,3.933,5.25,7,7.35c1.533,1.033,2.917,1.8,4.15,2.3l-9.4,6.101c-0.434,0.6-1.317,0.866-2.65,0.8
		c-2.667-0.101-6.25-1.733-10.75-4.9C2.317,85.5-0.033,81,0,75.3c0-2.1,0.367-4.033,1.1-5.8c0.633-1.6,1.35-2.566,2.15-2.9
		c1.2-0.466,4-0.416,8.4,0.15C13.85,67.05,15.917,67.4,17.85,67.8z"/>
	<path style="fill-rule:evenodd;clip-rule:evenodd;fill:#E9BB99;" d="M114.5,7.95c1.733,0.167,3.066,0.867,4,2.1
		c0.467,0.633,0.75,1.233,0.85,1.8c-0.267,7.367-0.699,15-1.3,22.9c-1.2,15.833-2.666,25.066-4.399,27.7
		c-1.167,1.8-2.467,3.033-3.9,3.7l-1.8,0.449l2.6-3.399c1.834-3.167,3-7.066,3.5-11.7c0.566-5.033,0.816-13.8,0.75-26.3
		C114.767,18.967,114.667,13.217,114.5,7.95z"/>
	<path style="fill-rule:evenodd;clip-rule:evenodd;fill:#C46544;" d="M102.9,70.55c-0.467,0.3-1.45,0.7-2.95,1.2
		c-2.934,0.967-6.917,1.967-11.95,3c-8.033,1.6-26.934,5.1-56.7,10.5l-4.85-2.65L102.9,70.55z"/>
	<path style="fill-rule:evenodd;clip-rule:evenodd;fill:#C46544;" d="M99.6,7.7c1.034-1.034,2.5-1.767,4.4-2.2
		c0.134,12.267-0.017,21.1-0.45,26.5c-0.267,3.367-1.25,7.883-2.95,13.55c-0.866,2.834-1.699,5.334-2.5,7.5
		c1.601-8.767,2.467-15.333,2.601-19.7C100.866,28.95,100.5,20.4,99.6,7.7z"/>
	<g>
		<path style="fill-rule:evenodd;clip-rule:evenodd;fill:#AD5E40;" d="M17.85,67.8l-0.9,1.851c-0.4,1.666-0.067,3.666,1,6
			c-1.867-0.067-3.817-0.034-5.85,0.1c-4.033,0.267-6.45,0.917-7.25,1.95c-0.833,1.133-0.934,2.833-0.3,5.1
			c0.534,1.9,1.267,3.417,2.2,4.55C7.283,87.983,8,88.733,8.9,89.6c0.434,0.434,0.9,0.884,1.4,1.351
			c-0.933-0.566-2.017-1.283-3.25-2.15C2.317,85.5-0.033,81,0,75.3c0-2.1,0.367-4.033,1.1-5.8c0.633-1.6,1.35-2.566,2.15-2.9
			c1.2-0.466,4-0.416,8.4,0.15C13.85,67.05,15.917,67.4,17.85,67.8z"/>
	</g>
	<path style="fill-rule:evenodd;clip-rule:evenodd;fill:#AD5E40;" d="M22.95,84.6l3.5,2.601L23.5,89.6
		c-2.267,1.667-4.1,2.617-5.5,2.851c-1.4,0.267-3.083-0.267-5.05-1.601L10.4,88.8c2.033,0.101,4.083,0.15,6.15,0.15
		c1.267,0,2.717-0.717,4.35-2.15L22.95,84.6z"/>
</g>
</svg>
