<?xml version="1.0" encoding="iso-8859-1"?>
<!-- Generator: Adobe Illustrator 15.1.0, SVG Export Plug-In . SVG Version: 6.00 Build 0)  -->
<!DOCTYPE svg PUBLIC "-//W3C//DTD SVG 1.1//EN" "http://www.w3.org/Graphics/SVG/1.1/DTD/svg11.dtd">
<svg version="1.1" id="Isolation_Mode" xmlns="http://www.w3.org/2000/svg" xmlns:xlink="http://www.w3.org/1999/xlink" x="0px"
	 y="0px" width="87.35px" height="166.9px" viewBox="0 0 87.35 166.9" style="enable-background:new 0 0 87.35 166.9;"
	 xml:space="preserve">
<path style="fill-rule:evenodd;clip-rule:evenodd;fill:#252421;" d="M29.65,31.75c2.934,4.8,8.767,16.267,17.5,34.4
	c4.366,9.067,8.433,17.65,12.199,25.75l-2,0.949c-1.333,1.367-1.899,3.934-1.699,7.7c0.166,3.767,4.25,15.667,12.25,35.7
	c4,10,7.983,19.634,11.949,28.9c-4.267-1.7-9.066-3.367-14.399-5c-10.7-3.267-18.733-4.784-24.1-4.551
	c-6.333,0.301-14.1,0.934-23.3,1.9c-6.367,0.634-12.383,0.884-18.05,0.75c4.667-17.866,7.833-30.917,9.5-39.15
	c1.033-5.166,0.783-11.733-0.75-19.699L6.2,89c1.8-2.333,3.733-5.217,5.8-8.65c4.2-6.867,7.067-13.05,8.6-18.55
	c1.533-5.466,1.033-17.417-1.5-35.85C17.833,16.75,16.417,8.1,14.85,0c1.3,3.367,2.9,7.217,4.8,11.55
	C23.417,20.217,26.75,26.95,29.65,31.75z"/>
<path style="fill-rule:evenodd;clip-rule:evenodd;fill:#4F4A3C;" d="M16.05,7.2L14.85,0C25.817,20.6,32.4,33.167,34.6,37.7
	c2.2,4.533,10.716,22.733,25.55,54.6l-2.15,1c-1.434,1.101-2.15,2.767-2.15,5s5.25,14.334,15.75,36.3
	c5.267,11,10.517,21.767,15.75,32.301l-7.5-1.75c-4.666-9.9-9.35-20.051-14.05-30.45c-9.467-20.767-14.366-32.351-14.7-34.75
	c-0.366-2.4,0.217-4.5,1.75-6.3L55.2,91.7L16.05,7.2z"/>
</svg>
