<?xml version="1.0" encoding="iso-8859-1"?>
<!-- Generator: Adobe Illustrator 15.1.0, SVG Export Plug-In . SVG Version: 6.00 Build 0)  -->
<!DOCTYPE svg PUBLIC "-//W3C//DTD SVG 1.1//EN" "http://www.w3.org/Graphics/SVG/1.1/DTD/svg11.dtd">
<svg version="1.1" id="buildings-back" xmlns="http://www.w3.org/2000/svg" xmlns:xlink="http://www.w3.org/1999/xlink" x="0px"
	 y="0px" width="46.7px" height="106px" viewBox="0 0 46.7 106" style="enable-background:new 0 0 46.7 106;" xml:space="preserve">
<path style="fill-rule:evenodd;clip-rule:evenodd;fill:#544F44;" d="M12.35,48.65l2.35,9l8-10.65l24-4.7l-22,6.35L14.35,63.3
	l0.3,7.15c0.3,5.033,0.65,8.316,1.05,9.85c0.667,2.467,4,10.367,10,23.7c-3.333-1.333-5.784-1.9-7.35-1.7
	c-0.967,0.134-1.983,0.8-3.05,2c-0.533,0.566-0.966,1.134-1.3,1.7c-0.367-0.767-0.95-1.517-1.75-2.25
	c-1.6-1.467-3.45-2.05-5.55-1.75c0.933-1.267,1.883-2.783,2.85-4.55c1.867-3.5,2.8-6.434,2.8-8.8c0-2.367-0.6-6.017-1.8-10.95
	L8.7,71l3-12.35L0,26.3l10,20.35l1-21.35l4.7,1.7l3.65-27l-2,29.3l-4,0.35L12.35,48.65z"/>
</svg>
