<?xml version="1.0" encoding="iso-8859-1"?>
<!-- Generator: Adobe Illustrator 15.1.0, SVG Export Plug-In . SVG Version: 6.00 Build 0)  -->
<!DOCTYPE svg PUBLIC "-//W3C//DTD SVG 1.1//EN" "http://www.w3.org/Graphics/SVG/1.1/DTD/svg11.dtd">
<svg version="1.1" id="ground" xmlns="http://www.w3.org/2000/svg" xmlns:xlink="http://www.w3.org/1999/xlink" x="0px" y="0px"
	 width="868.75px" height="61.45px" viewBox="0 0 868.75 61.45" style="enable-background:new 0 0 868.75 61.45;"
	 xml:space="preserve">
<g>
	<path style="fill-rule:evenodd;clip-rule:evenodd;fill:#7F5257;" d="M768.25,51.85c48.969,6,82.469,9.192,100.5,9.575H0
		c14.483-0.383,32.1-3.575,52.85-9.575c13.3-3.833,35.033-10.866,65.2-21.1c29.267-9.467,55.467-16.517,78.6-21.15
		c32.067-6.4,64.033-9.6,95.9-9.6c31.767,0,78.117,3.2,139.05,9.6c43.167,4.533,101.216,11.583,174.15,21.15
		C703.316,43.483,757.483,50.517,768.25,51.85z"/>
	<g>
		<g>
			<path style="fill-rule:evenodd;clip-rule:evenodd;fill:#70424A;" d="M162.7,45.85c-8.167,3.934-14.967,5.601-20.4,5
				c-6.4-0.733-10.617-2.533-12.65-5.399c-1.867-2.566-1.583-5.184,0.85-7.851c1.9-2,5.117-3.399,9.65-4.199
				c2.165-0.383,4.148-0.565,5.95-0.551c-0.395,0.063-1.245,0.297-2.55,0.7c-2.066,0.634-3.95,1.334-5.65,2.101
				c-5.2,2.333-6.8,4.483-4.8,6.449c2.367,2.134,7.667,2.967,15.9,2.5c8.233-0.466,16.417-2.05,24.55-4.75
				C170.417,41.884,166.8,43.884,162.7,45.85z"/>
		</g>
	</g>
	<g>
		<g>
			<path style="fill-rule:evenodd;clip-rule:evenodd;fill:#70424A;" d="M90.7,51.35c-1.9,1.167-3.5,1.684-4.8,1.551
				c-0.967-0.101-1.6-0.384-1.9-0.851c-0.3-0.399-0.25-0.8,0.15-1.2c0.467-0.466,1.267-0.699,2.4-0.699
				c-0.466,0.1-0.9,0.233-1.3,0.399c-0.767,0.367-1,0.7-0.7,1c0.333,0.3,1.133,0.434,2.4,0.4
				C88.117,51.884,89.367,51.684,90.7,51.35z"/>
		</g>
	</g>
	<g>
		<g>
			<path style="fill-rule:evenodd;clip-rule:evenodd;fill:#70424A;" d="M266.7,19.3c0.433,0.9,1.833,1.45,4.2,1.65
				c2.5,0.233,4.783-0.083,6.85-0.95c-0.833,0.633-1.833,1.2-3,1.7c-2.367,1-4.4,1.216-6.1,0.65c-1.833-0.667-2.9-1.483-3.2-2.45
				c-0.267-0.833,0.05-1.5,0.95-2c1.033-0.533,2.483-0.617,4.35-0.25c-0.8,0.033-1.567,0.133-2.3,0.3
				C266.95,18.217,266.367,18.667,266.7,19.3z"/>
		</g>
	</g>
	<g>
		<g>
			<path style="fill-rule:evenodd;clip-rule:evenodd;fill:#70424A;" d="M327.95,47.85c1,1.233,3.483,1.834,7.45,1.801
				c3.967-0.034,7.833-0.7,11.6-2c-1.467,0.966-3.167,1.899-5.1,2.8c-3.9,1.767-7.2,2.416-9.9,1.95c-3.1-0.601-5.05-1.65-5.85-3.15
				c-0.733-1.333-0.433-2.55,0.9-3.65c0.967-0.8,2.483-1.3,4.55-1.5c1.066-0.1,2.017-0.116,2.85-0.05c-1.4,0.233-2.717,0.566-3.95,1
				C328,45.95,327.15,46.884,327.95,47.85z"/>
		</g>
	</g>
	<g>
		<g>
			<path style="fill-rule:evenodd;clip-rule:evenodd;fill:#70424A;" d="M504.5,36.65c-1.533,1.566-3.434,3.066-5.7,4.5
				c-4.566,2.933-8.717,4.116-12.45,3.55c-4.1-0.733-6.633-2.066-7.6-4c-0.833-1.667-0.384-3.167,1.35-4.5
				c1.2-0.934,3.034-1.55,5.5-1.851c1.267-0.133,2.4-0.199,3.4-0.199c-1.667,0.399-3.25,0.866-4.75,1.399
				c-2.967,1.134-4,2.3-3.1,3.5c1.233,1.733,4.366,2.4,9.399,2C495.816,40.616,500.467,39.15,504.5,36.65z"/>
		</g>
	</g>
	<g>
		<g>
			<path style="fill-rule:evenodd;clip-rule:evenodd;fill:#70424A;" d="M374.15,20.85c0.467-0.467,1.233-0.717,2.3-0.75
				c-0.434,0.133-0.833,0.283-1.2,0.45c-0.767,0.367-1.017,0.7-0.75,1c0.367,0.333,1.183,0.434,2.45,0.3
				c1.333-0.167,2.517-0.567,3.55-1.2c-0.4,0.4-0.883,0.783-1.45,1.15c-1.133,0.767-2.167,1.117-3.1,1.05
				c-1-0.1-1.65-0.367-1.95-0.8C373.7,21.65,373.75,21.25,374.15,20.85z"/>
		</g>
	</g>
	<g>
		<g>
			<path style="fill-rule:evenodd;clip-rule:evenodd;fill:#70424A;" d="M297.6,47.35c-1.133,0.667-2.434,1.301-3.9,1.9
				c-2.934,1.167-5.333,1.6-7.2,1.3c-2.2-0.333-3.65-1.033-4.35-2.1c-0.6-0.934-0.45-1.834,0.45-2.7
				c1.016-1.016,2.699-1.491,5.05-1.425c-0.5,0.108-1.317,0.383-2.45,0.825c-1.867,0.733-2.45,1.466-1.75,2.199
				c0.8,0.767,2.633,1.15,5.5,1.15C291.85,48.5,294.733,48.116,297.6,47.35z"/>
		</g>
	</g>
	<g>
		<g>
			<path style="fill-rule:evenodd;clip-rule:evenodd;fill:#70424A;" d="M431.4,42.25c-2.533,1.3-5.45,2.467-8.75,3.5
				c-6.566,2.1-11.933,2.517-16.1,1.25c-4.767-1.434-7.7-3.417-8.8-5.95c-1-2.233-0.367-4.133,1.9-5.7
				c1.7-1.166,4.283-1.733,7.75-1.699c1.251,0.024,2.41,0.116,3.475,0.274c-1.06,0.089-2.885,0.447-5.475,1.075
				c-4.2,1-5.7,2.366-4.5,4.1c1.434,2,5.3,3.367,11.6,4.101C418.967,43.967,425.267,43.65,431.4,42.25z"/>
		</g>
	</g>
	<g>
		<g>
			<path style="fill-rule:evenodd;clip-rule:evenodd;fill:#70424A;" d="M455.45,23.55c-0.934,0.667-2.017,1.317-3.25,1.95
				c-2.434,1.267-4.55,1.767-6.351,1.5c-2.066-0.367-3.35-1.033-3.85-2c-0.467-0.867-0.25-1.65,0.65-2.35
				c0.633-0.5,1.583-0.816,2.85-0.95c0.667-0.067,1.267-0.1,1.8-0.1c-0.866,0.2-1.7,0.433-2.5,0.7c-1.533,0.567-2.066,1.167-1.6,1.8
				c0.633,0.833,2.233,1.183,4.8,1.05C450.566,25.05,453.05,24.517,455.45,23.55z"/>
		</g>
	</g>
	<g>
		<g>
			<path style="fill-rule:evenodd;clip-rule:evenodd;fill:#70424A;" d="M638.05,54.45c2.601-0.334,5.167-1,7.7-2
				c-0.967,0.7-2.083,1.399-3.35,2.1c-2.5,1.4-4.601,2.084-6.301,2.05c-2.033-0.033-3.416-0.466-4.149-1.3
				c-0.667-0.8-0.65-1.633,0.05-2.5c0.795-1.039,2.236-1.673,4.325-1.899c-0.437,0.17-1.111,0.52-2.025,1.05
				c-1.6,0.899-2.05,1.633-1.35,2.2C633.783,54.717,635.483,54.816,638.05,54.45z"/>
		</g>
	</g>
	<g>
		<g>
			<path style="fill-rule:evenodd;clip-rule:evenodd;fill:#70424A;" d="M582.45,43.55c0.566-0.566,1.467-1.017,2.7-1.35
				c0.633-0.167,1.199-0.3,1.699-0.4c-0.8,0.334-1.566,0.7-2.3,1.101c-1.433,0.8-1.866,1.466-1.3,2
				c0.733,0.767,2.384,0.866,4.95,0.3c2.667-0.601,4.899-1.7,6.7-3.3c-0.634,0.899-1.483,1.816-2.551,2.75
				c-2.066,1.833-4.083,2.75-6.05,2.75c-2.133-0.067-3.517-0.551-4.149-1.45C581.583,45.15,581.684,44.35,582.45,43.55z"/>
		</g>
	</g>
	<g>
		<g>
			<path style="fill-rule:evenodd;clip-rule:evenodd;fill:#70424A;" d="M251.05,59.2c-2.5-0.5-4.066-1.367-4.7-2.601
				c-0.533-1.066-0.267-2.033,0.8-2.899c0.8-0.634,2.033-1.017,3.7-1.15c0.833-0.066,1.583-0.083,2.25-0.05
				c-1.1,0.2-2.15,0.467-3.15,0.8c-2,0.667-2.684,1.4-2.05,2.2c0.8,1.033,2.783,1.533,5.95,1.5c3.367,0,6.45-0.616,9.25-1.85
				c-1.133,0.866-2.467,1.683-4,2.449C255.967,59.134,253.283,59.667,251.05,59.2z"/>
		</g>
	</g>
	<g>
		<g>
			<path style="fill-rule:evenodd;clip-rule:evenodd;fill:#70424A;" d="M669.4,48.8c-2.301,0.434-3.2,1.134-2.7,2.101
				c0.667,1.399,2.85,2.283,6.55,2.649c3.934,0.367,7.434-0.2,10.5-1.7c-1.233,1-2.75,1.917-4.55,2.75
				c-3.634,1.634-6.783,1.983-9.45,1.051c-2.866-1.067-4.533-2.351-5-3.851c-0.4-1.3,0.1-2.333,1.5-3.1c1-0.5,2.417-0.7,4.25-0.601
				c0.934,0.034,1.767,0.117,2.5,0.25C671.733,48.417,670.533,48.566,669.4,48.8z"/>
		</g>
	</g>
	<g>
		<g>
			<path style="fill-rule:evenodd;clip-rule:evenodd;fill:#70424A;" d="M450,53.15c1.9-0.733,3.967-1.367,6.2-1.9
				c-0.834,0.233-1.767,0.6-2.8,1.1c-2.034,0.934-3.5,2.034-4.4,3.301c-0.967,1.566,2.767,2.233,11.2,2
				c4.119-0.112,7.253-0.262,9.399-0.45c-12.473,2.516-20.022,2.582-22.649,0.2C445.217,56,446.233,54.583,450,53.15z"/>
		</g>
	</g>
	<g>
		<g>
			<path style="fill-rule:evenodd;clip-rule:evenodd;fill:#70424A;" d="M718.65,52.6c-1.601,0.2-2.767,0.75-3.5,1.65
				c-0.467,0.533,1.166,1.05,4.899,1.55c1.867,0.233,3.783,0.417,5.75,0.55c-1.633,0.067-3.35,0.051-5.149-0.05
				c-3.567-0.2-5.733-0.649-6.5-1.35c-0.733-0.7-0.2-1.3,1.6-1.8C716.65,52.884,717.617,52.7,718.65,52.6z"/>
		</g>
	</g>
	<g>
		<g>
			<path style="fill-rule:evenodd;clip-rule:evenodd;fill:#70424A;" d="M541.65,39.5c-1.867,0.1-3.283,0.6-4.25,1.5
				c-0.601,0.6,1.267,1.384,5.6,2.35c2.134,0.467,4.3,0.884,6.5,1.25c-1.833-0.133-3.783-0.333-5.85-0.6
				c-4.167-0.566-6.667-1.333-7.5-2.3c-0.733-0.9-0.033-1.533,2.1-1.9C539.316,39.634,540.45,39.533,541.65,39.5z"/>
		</g>
	</g>
	<g>
		<g>
			<path style="fill-rule:evenodd;clip-rule:evenodd;fill:#70424A;" d="M329.15,7.15c-0.833,0.167-1.783,0.434-2.85,0.8
				c-2.1,0.767-3.633,1.75-4.6,2.95c-1,1.333,2.616,2.3,10.85,2.9c5.019,0.354,8.535,0.538,10.55,0.55
				c-2.943,0.273-6.01,0.423-9.2,0.45c-7.867,0.1-12.65-0.683-14.35-2.35c-1.633-1.5-0.517-2.833,3.35-4
				C324.833,7.883,326.917,7.45,329.15,7.15z"/>
		</g>
	</g>
	<g>
		<g>
			<path style="fill-rule:evenodd;clip-rule:evenodd;fill:#70424A;" d="M217.7,34.15c-0.867-0.034-1.85,0.033-2.95,0.199
				c-2.2,0.334-3.883,1.017-5.05,2.051c-1.133,0.966,2.167,2.583,9.9,4.85c3.867,1.134,7.833,2.184,11.9,3.15
				c-3.467-0.467-7.083-1.101-10.85-1.9c-7.5-1.566-11.933-3.217-13.3-4.95c-1.367-1.767-0.05-2.866,3.95-3.3
				C213.3,34.05,215.433,34.017,217.7,34.15z"/>
		</g>
	</g>
	<g>
		<g>
			<path style="fill-rule:evenodd;clip-rule:evenodd;fill:#70424A;" d="M231.35,14.1c-1.167,0.167-2.017,0.566-2.55,1.2
				c-0.333,0.4,0.85,0.767,3.55,1.1c1.367,0.167,2.75,0.3,4.15,0.4c-4.767,0.167-7.583-0.167-8.45-1
				c-0.533-0.533-0.15-0.966,1.15-1.3C229.867,14.3,230.583,14.167,231.35,14.1z"/>
		</g>
	</g>
</g>
</svg>
