<?xml version="1.0" encoding="iso-8859-1"?>
<!-- Generator: Adobe Illustrator 15.1.0, SVG Export Plug-In . SVG Version: 6.00 Build 0)  -->
<!DOCTYPE svg PUBLIC "-//W3C//DTD SVG 1.1//EN" "http://www.w3.org/Graphics/SVG/1.1/DTD/svg11.dtd">
<svg version="1.1" id="Isolation_Mode" xmlns="http://www.w3.org/2000/svg" xmlns:xlink="http://www.w3.org/1999/xlink" x="0px"
	 y="0px" width="334.45px" height="229.7px" viewBox="0 0 334.45 229.7" style="enable-background:new 0 0 334.45 229.7;"
	 xml:space="preserve">
<g>
	<path style="fill-rule:evenodd;clip-rule:evenodd;fill:#81908E;" d="M325.2,226.25c2.434,1.066,4.717,1.717,6.85,1.95l1,0.75
		c0.3,0.399-0.434,0.416-2.2,0.05c-13.233-2.733-30.25-7.967-51.05-15.7c-27.333-10.2-55.616-22.883-84.85-38.05
		c-34.9-18.1-74.3-43.35-118.2-75.75c-18.733-13.8-34.567-26.283-47.5-37.45C16.017,50.617,8.083,42.517,5.45,37.75
		C1.017,29.717-0.7,21.033,0.3,11.7C0.8,7.033,1.75,3.167,3.15,0.1c12.9,12.767,30.617,28.1,53.15,46
		c45.1,35.767,91.817,66.433,140.15,92c16.7,8.834,41.717,18.934,75.05,30.301c16.667,5.666,31.65,10.449,44.95,14.35L314.85,196
		c-0.767,9.667-0.449,16.583,0.95,20.75C317.2,220.917,320.333,224.083,325.2,226.25z"/>
	<g>
		<path style="fill-rule:evenodd;clip-rule:evenodd;fill:#647978;" d="M324.95,226c2.333,0.967,4.533,1.533,6.6,1.7l1.25,1
			c0.467,0.566-0.184,0.666-1.95,0.3c-13.233-2.733-30.25-7.967-51.05-15.7c-27.333-10.2-55.616-22.883-84.85-38.05
			c-34.9-18.1-74.3-43.35-118.2-75.75c-18.733-13.8-34.567-26.283-47.5-37.45C16.017,50.617,8.083,42.517,5.45,37.75
			C2.283,32.017,0.5,25.883,0.1,19.35c26.233,28.9,44.85,47.533,55.85,55.9c14.966,11.433,31.767,23.267,50.4,35.5
			c28.333,18.634,56.867,35.467,85.6,50.5c25.066,13.1,51.533,23.7,79.399,31.8c15.967,4.634,30.351,7.95,43.15,9.95
			c-0.167,6.033,0.267,10.616,1.3,13.75C317.2,220.917,320.25,224,324.95,226z"/>
	</g>
	<g>
		<path style="fill-rule:evenodd;clip-rule:evenodd;fill:#657373;" d="M172.6,134.45c1.434-1.634,2.184-3.167,2.25-4.601
			c0.101-1.466-0.633-2.783-2.199-3.949l0.5-0.601l0.949,0.55c1.267,1.2,1.851,2.567,1.75,4.101c-0.133,2.5-1.949,5.133-5.449,7.899
			c1.1,0.101,1.899,0.483,2.399,1.15c1.167,1.3,1.417,3.634,0.75,7c4.733,2.033,8.617,3.35,11.65,3.95
			c4.2,0.833,7.517,0.566,9.95-0.8c2.666-1.534,4.433-4.534,5.3-9l0.899,0.449c-0.733,3.834-2.183,6.65-4.35,8.45
			c2.4,1.634,4.1,4.667,5.1,9.101c0.867,4.066,1,8.483,0.4,13.25c3.5,1.133,6.767,1.333,9.8,0.6s5.434-2.316,7.2-4.75
			c1.833-2.467,2.65-5.3,2.45-8.5c-0.233-3.2-1.45-6.35-3.65-9.45l0.8-0.55c2.034,2.8,3.267,5.684,3.7,8.65
			c0.434,2.966,0.05,5.699-1.149,8.199c2.333,1.301,4.166,3.284,5.5,5.95c1.233,2.367,1.916,4.983,2.05,7.851
			c2.267,1.6,4.883,2.017,7.85,1.25c2.533-0.601,4.9-1.884,7.101-3.851c2.533-2.233,4.316-4.8,5.35-7.7
			c1.167-3.199,1.1-6.05-0.2-8.55l1.351,0.5c0.8,2.066,0.916,4.316,0.35,6.75c-0.533,2.167-1.566,4.3-3.1,6.4l0.949,0.8
			c3.233,2.767,5.784,4.733,7.65,5.9c3.134,2,6.033,3.05,8.7,3.149c3.3,0.101,6.333-1.267,9.1-4.1
			c1.667-1.667,3.684-4.533,6.05-8.601l0.95,0.351l-0.1,0.1c-1.634,2.867-2.983,4.983-4.05,6.351l0.25-0.101
			c1.267,2.233,2.133,4.217,2.6,5.95c0.566,2.033,0.667,4,0.3,5.9c0.601,0.3,1.566,0.85,2.9,1.649c1.833,1.134,3.25,1.884,4.25,2.25
			c1.6,0.533,3.25,0.65,4.95,0.351c3.433-0.667,6.316-2.45,8.649-5.351c2.101-2.566,3.55-5.7,4.351-9.399l0.949,0.3
			c-1,4.467-2.85,8.1-5.55,10.899c0.533,1.2,0.783,2.534,0.75,4c0,0.9-0.149,2.217-0.45,3.95c-0.3,1.601-0.449,2.8-0.449,3.601
			c-0.034,1.267,0.166,2.399,0.6,3.399c0.967,2.267,2.884,3.867,5.75,4.8c2.7,0.9,5.25,0.95,7.65,0.15l0.1,1.05
			c-1.033,0.3-2.184,0.45-3.45,0.45c-1.233,0-2.45-0.15-3.649-0.45c-2.967,2.867-4.934,5.884-5.9,9.05l-0.95-0.3
			c0.9-3.066,2.816-6.1,5.75-9.1c-3.066-1.033-5.133-2.783-6.2-5.25c-0.5-1.134-0.733-2.4-0.699-3.8
			c0-0.867,0.149-2.134,0.449-3.801c0.267-1.5,0.417-2.683,0.45-3.55c0.033-1.267-0.149-2.416-0.55-3.45
			c-2.134,1.967-4.616,3.217-7.45,3.75c-0.633,0.134-1.3,0.2-2,0.2c-1.366,0-2.75-0.3-4.149-0.899c-0.867-0.367-2.101-1.034-3.7-2
			l-2.601-1.5l-0.35,1.1c-0.333,0.934-1.233,2.417-2.7,4.45c-0.967,1.267-1.649,2.267-2.05,3c-0.634,1.1-0.967,2.133-1,3.1
			c-0.033,1.667,0.8,3.5,2.5,5.5c1.066,1.2,2.917,2.934,5.55,5.2l1.3,1.15l-2.6-0.9c-2.5-2.167-4.283-3.917-5.35-5.25
			c-1.634-2-2.434-3.9-2.4-5.7c0-0.533,0.116-1.184,0.35-1.95l-0.25,0.25c-2.733-3.199-5.75-5.483-9.05-6.85s-6.583-1.684-9.85-0.95
			c-3.667,0.8-6.834,2.8-9.5,6l-1-0.45c2.899-3.466,6.333-5.649,10.3-6.55c3.4-0.733,6.816-0.416,10.25,0.95
			c3.4,1.4,6.517,3.717,9.35,6.95c0.467-1.033,1.351-2.4,2.65-4.101c1.4-1.933,2.25-3.316,2.55-4.149
			c0.733-2.066,0.884-4.217,0.45-6.45c-0.366-1.8-1.233-3.95-2.6-6.45c-3.267,4.167-6.934,6.25-11,6.25h-0.45
			c-2.834-0.1-5.884-1.166-9.15-3.2c-1.899-1.199-4.517-3.216-7.85-6.05l-0.95-0.85c-0.866,1.1-1.684,1.967-2.45,2.6
			c-1.5,1.334-3.1,2.384-4.8,3.15c-1.934,0.899-3.816,1.35-5.65,1.35c-1.833,0-3.55-0.483-5.149-1.45c0,0.733-0.05,1.417-0.15,2.051
			c-0.399,3.1-1.517,5.699-3.35,7.8l-0.95-0.45c1.8-1.967,2.9-4.45,3.3-7.45c0.101-0.833,0.15-1.7,0.15-2.6l-0.05-0.05l0.05-0.051
			c-0.066-2.733-0.667-5.283-1.8-7.649c-1.267-2.566-3-4.467-5.2-5.7l-0.9,1.35c-1.333,1.801-3.017,3.184-5.05,4.15
			s-4.25,1.45-6.65,1.45c-2.033,0-4.1-0.351-6.199-1.05c-0.134,1.066-0.334,2.066-0.601,3c-0.166,0.866-0.434,1.85-0.8,2.949
			l-0.9-0.449c0.101-0.301,0.351-1.2,0.75-2.7c0.9-4.066,1.2-8.066,0.9-12c-3.366-1.566-7-2.517-10.9-2.851
			c-4.466-0.366-8.25,0.217-11.35,1.75c-1.366,0.667-2.583,1.584-3.65,2.75l-0.899-0.5c1.1-1.3,2.483-2.35,4.149-3.149
			c3.167-1.566,6.983-2.184,11.45-1.851c3.934,0.301,7.634,1.217,11.101,2.75c-0.301-2.966-0.9-5.5-1.801-7.6
			c-0.966-2.3-2.216-3.9-3.75-4.8l-0.449,0.3c-1.733,0.967-3.75,1.45-6.051,1.45c-3.866,0-9.283-1.5-16.25-4.5
			c-0.333,1.3-0.8,2.833-1.399,4.6l-0.65,1.7l-0.1,0.4h-0.05c-1.067,2.566-2.15,4.767-3.25,6.6l-0.851-0.5
			c1.267-2.134,2.351-4.384,3.25-6.75c0.167-0.833-0.283-1.533-1.35-2.1c-1.601-0.867-4.133-1.301-7.6-1.301
			c-3.267,0-6.35,0.367-9.25,1.101L151,150c3.033-0.9,6.367-1.366,10-1.4c3.8-0.033,6.6,0.434,8.4,1.4
			c0.733,0.434,1.25,0.884,1.55,1.35L171,151.2c1.066-2.867,1.684-5.316,1.85-7.351c0.2-2-0.066-3.399-0.8-4.199
			c-0.566-0.733-1.633-0.967-3.2-0.7l-1.3,0.85c-3.133,1.8-6.25,2.7-9.35,2.7c-5.133,0-10.05-2.583-14.75-7.75
			c-0.767,1.5-1.667,2.934-2.7,4.3c-0.7,0.934-1.567,1.884-2.6,2.851l-0.85-0.551c0.9-0.866,1.784-1.85,2.65-2.949
			c2.066-2.667,3.45-5.4,4.15-8.2c0.7-2.8,0.583-5.2-0.35-7.2l0.05-0.05c-3.066-0.134-6.1-1.334-9.1-3.601
			c-2.967-2.233-5.317-5.083-7.05-8.55c-0.967,1.567-2.267,2.95-3.9,4.15c-1.633,1.233-3.433,2.166-5.4,2.8
			c0.367,3.733,0.2,7.333-0.5,10.8l-0.9-0.6c0.966-5.5,0.75-10.851-0.65-16.05c-1.566-5.867-4.216-9.333-7.95-10.4l0.1-0.4
			c-1.534,0.767-3.083,1.15-4.65,1.15h-0.3c0.2,2.767-1.05,5.717-3.75,8.85c-0.8,0.933-1.783,1.9-2.95,2.9l-0.85-0.6
			c1.167-0.967,2.183-1.95,3.05-2.95c2.567-3,3.733-5.767,3.5-8.3l-1-0.15c-3.567-0.767-7.217-3.167-10.95-7.2
			C87.383,91.333,85,87.733,83.4,84c-1.633,1.733-3.483,2.983-5.55,3.75c0.967,1.967,1.65,4.017,2.05,6.15
			c0.467,2.7,0.333,5.25-0.4,7.65l-0.85-0.6c0.567-2.2,0.65-4.5,0.25-6.9c-0.633-3.767-2.217-7.133-4.75-10.1
			c-2.533-2.934-5.483-4.867-8.85-5.8c-1.733,2.1-3.3,3.717-4.7,4.85c-0.867,0.733-1.883,1.417-3.05,2.05l-0.9-0.7
			c1.2-0.6,2.317-1.317,3.35-2.15c1.967-1.633,3.85-3.684,5.65-6.15c2.1-2.966,3.117-5.35,3.05-7.15c-3.2-0.6-6.4-2.167-9.6-4.7
			c-2.934-2.333-5.15-4.883-6.65-7.65c-2.934,2.534-6.817,3.8-11.65,3.8l-1.7-0.05c0,0.7-0.067,1.817-0.2,3.35
			c-0.267,2.1-0.633,3.983-1.1,5.65l-0.85-0.7c0.433-1.533,0.75-3.233,0.95-5.1c0.6-5.133,0.184-10.033-1.25-14.7
			c-1.4-4.667-3.617-8.433-6.65-11.3l-0.95,1.25c-1.833,2.2-3.9,3.3-6.2,3.3l-0.75-0.1c0.6,1.433,0.917,2.85,0.95,4.25
			c0,2.466-0.933,5.083-2.8,7.85l-0.75-0.7c1.7-2.6,2.55-4.983,2.55-7.15c-0.033-1.534-0.417-3.017-1.15-4.45h-0.05v-0.1
			c-0.567-1.133-1.4-2.383-2.5-3.75c-0.633-0.733-1.717-1.95-3.25-3.65l-2.55-2.8c-1.433,2.8-3.883,4.716-7.35,5.75
			c-0.233-0.4-0.383-0.684-0.45-0.85c3.3-0.967,5.633-2.817,7-5.55l0.4,0.2c-1.733-2.1-2.917-4-3.55-5.7
			c-0.8-2.1-1.35-4.583-1.65-7.45c-0.167-1.6-0.284-4.167-0.35-7.7C6.533,6.517,6.45,4.2,6.35,3.2l1.05,1
			c0.133,1.733,0.2,3.7,0.2,5.9c0.066,3.5,0.183,6.033,0.35,7.6c0.267,2.8,0.783,5.216,1.55,7.25c0.533,1.4,1.417,2.9,2.65,4.5
			c0.633,0.8,1.85,2.183,3.65,4.15c2.9,3.033,4.833,5.467,5.8,7.3c2.533,0.5,4.767-0.433,6.7-2.8c1.233-1.434,2.2-3.267,2.9-5.5
			c0.667-2.133,0.983-4.25,0.95-6.35l1,0.85c-0.167,3.633-1.083,6.867-2.75,9.7l0.15-0.15c2.733,2.567,4.867,5.85,6.4,9.85
			c1.5,3.967,2.233,8.233,2.2,12.8c9.733,0.567,15.65-3.683,17.75-12.75l0.85,0.7c-0.9,3.633-2.417,6.517-4.55,8.65
			c1.4,2.633,3.55,5.117,6.45,7.45c3.167,2.533,6.3,4.066,9.4,4.6c3.4,0.6,6.25-0.167,8.55-2.3l0.7,0.75
			c-2,1.833-4.383,2.75-7.15,2.75l-1.45-0.1c0,2.133-1.25,4.883-3.75,8.25c2.367,0.733,4.55,1.934,6.55,3.6
			c1.967,1.633,3.6,3.617,4.9,5.95c1.633-0.6,3.167-1.55,4.6-2.85c1.433-1.333,2.5-2.8,3.2-4.4c1.1-2.467,1.117-4.75,0.05-6.85
			l0.9-0.45c1.2,2.367,1.184,4.934-0.05,7.7c-0.467,1.133-1.2,2.283-2.2,3.45l0.3-0.1c1.5,3.6,3.783,7.117,6.85,10.55
			c3.633,4,7.184,6.367,10.65,7.1c3.267,0.7,6.233-0.2,8.9-2.7c0.867-0.8,1.617-1.9,2.25-3.3c0.433-1,0.9-2.367,1.4-4.1l0.95,0.25
			c-1.1,3.833-2.4,6.467-3.9,7.9c-0.833,0.7-1.566,1.25-2.2,1.65c2.566,0.9,4.667,2.9,6.3,6c1.434,2.733,2.383,6.066,2.85,10
			c2.167-0.733,4.083-1.817,5.75-3.25c1.7-1.434,2.933-3.034,3.7-4.8c1.3-3.066,1.15-6.117-0.45-9.15l0.9-0.45
			c1.733,3.367,1.883,6.7,0.45,10l-0.35,0.7c1.667,3.567,4.017,6.5,7.05,8.8c3.034,2.3,6.067,3.45,9.1,3.45h0.05
			c4.433-0.033,7.85-2.55,10.25-7.55l0.85,0.55c-1.2,2.5-2.716,4.434-4.55,5.8c-1.833,1.367-3.883,2.084-6.15,2.15
			c1.2,3.1,0.883,6.717-0.95,10.85c3.633,4.101,7.367,6.566,11.2,7.4c3.8,0.833,7.783,0.066,11.95-2.3l1.3-0.801v-0.05l0.15-0.05
			C170.134,136.9,171.5,135.717,172.6,134.45z"/>
	</g>
	<g>
		<path style="fill-rule:evenodd;clip-rule:evenodd;fill:#586A69;" d="M325.2,226.3c2.434,1.101,4.717,1.783,6.85,2.05l1,0.65
			c0.3,0.366-0.434,0.366-2.2,0c-13.233-2.733-30.25-7.967-51.05-15.7c-27.333-10.2-55.616-22.883-84.85-38.05
			c-34.9-18.1-74.3-43.35-118.2-75.75c-18.733-13.8-34.567-26.283-47.5-37.45C16.017,50.617,8.083,42.517,5.45,37.75
			c-1.9-3.433-3.3-7.033-4.2-10.8c10.133,11.333,19.2,20.767,27.2,28.3c12.767,12.033,25.983,23.167,39.65,33.4
			c23.066,17.267,54.017,37.633,92.85,61.1c33.767,20.434,67.85,36.634,102.25,48.6c19.566,6.801,36.783,11.5,51.649,14.101
			c0.267,1.733,0.584,3.166,0.95,4.3C317.2,220.917,320.333,224.1,325.2,226.3z"/>
	</g>
	<path style="fill-rule:evenodd;clip-rule:evenodd;fill:#949F9E;" d="M333.65,229.7c-4.801-0.467-8.784-1.95-11.95-4.45
		c-6.767-5.3-9.667-13.983-8.7-26.05c0.3-3.767,0.967-7.634,2-11.601l1.45-4.85h8.25l-1.05,5.9c-0.667,4.733-0.967,9.116-0.9,13.149
		c0.2,12.767,4.1,19.417,11.7,19.95L333.65,229.7z"/>
	<path style="fill-rule:evenodd;clip-rule:evenodd;fill:#B1B8B7;" d="M222.2,153.5c-13.9-5.967-32.601-15.833-56.1-29.6
		c-19.133-11.2-40.35-24.333-63.65-39.4C85.683,73.667,64.1,56.35,37.7,32.55C24.5,20.65,12.983,9.833,3.15,0.1L6.2,0
		c8.5,8.2,18.716,17.6,30.65,28.2c23.867,21.233,44.4,37.833,61.6,49.8c36.8,25.633,77.133,49.05,121,70.25
		c15.3,7.4,37.434,15.366,66.399,23.9c14.5,4.267,27.45,7.8,38.851,10.6h-8.25c-10.667-2.7-22.601-5.95-35.8-9.75
		C254.283,165.434,234.8,158.934,222.2,153.5z"/>
</g>
</svg>
