<?xml version="1.0" encoding="iso-8859-1"?>
<!-- Generator: Adobe Illustrator 15.1.0, SVG Export Plug-In . SVG Version: 6.00 Build 0)  -->
<!DOCTYPE svg PUBLIC "-//W3C//DTD SVG 1.1//EN" "http://www.w3.org/Graphics/SVG/1.1/DTD/svg11.dtd">
<svg version="1.1" id="Isolation_Mode" xmlns="http://www.w3.org/2000/svg" xmlns:xlink="http://www.w3.org/1999/xlink" x="0px"
	 y="0px" width="115.2px" height="168.65px" viewBox="0 0 115.2 168.65" style="enable-background:new 0 0 115.2 168.65;"
	 xml:space="preserve">
<g>
	<g>
		<polygon style="fill-rule:evenodd;clip-rule:evenodd;fill:#A2946C;" points="12.75,87.6 24.5,78.1 34.7,81.55 20.35,98.25 		"/>
		
			<linearGradient id="SVGID_1_" gradientUnits="userSpaceOnUse" x1="9.374" y1="-76.0059" x2="41.474" y2="-76.0059" gradientTransform="matrix(3.115265e-005 1 -1 -0.001 -4.693162e-004 -6.773509e-005)">
			<stop  offset="0" style="stop-color:#D3CCB7"/>
			<stop  offset="1" style="stop-color:#AC9E76"/>
		</linearGradient>
		<path style="fill-rule:evenodd;clip-rule:evenodd;fill:url(#SVGID_1_);" d="M114,88.1c1,25.934,1.384,51.417,1.15,76.45l-8,4.101
			L36.8,9.2c8.367-2.7,17.333-4.95,26.9-6.75c19.166-3.633,31.833-3.233,38,1.2C107.9,8.083,112,36.233,114,88.1z"/>
		<path style="fill-rule:evenodd;clip-rule:evenodd;fill:#8B7C53;" d="M9.55,52.55L0,19.05c14.233-4.767,28.917-8.617,44.05-11.55
			c30.3-5.833,47.767-4.1,52.4,5.2c4.633,9.3,7.816,38.083,9.55,86.35c0.833,24.134,1.217,47.334,1.15,69.601l-88-1.351l-6.4-79.7
			l8.75-3.2l-3.15-32.65L9.55,52.55z"/>
		<path style="fill-rule:evenodd;clip-rule:evenodd;fill:#628F94;" d="M96.85,96.6c1.334,24.534,2.267,48.517,2.801,71.95
			L26.2,167.4L20.75,94.8l8.75-8l-6.4-44.6l-9.55-0.8l3.2-16.75c10.1-3.7,20.583-6.883,31.45-9.55c21.8-5.3,34.684-5.3,38.649,0
			C90.85,20.4,94.184,47.567,96.85,96.6z"/>
		<path style="fill-rule:evenodd;clip-rule:evenodd;fill:#85A7AC;" d="M80.5,19.05c4.3,3.667,7.884,29.667,10.75,78
			c1.4,24.167,2.384,47.967,2.95,71.4L32,167.5l-4.9-68.75l5.6-9.55L27.1,39l-7.15-2.4l3.15-7.15c7.833-3.2,16.1-6.034,24.8-8.5
			C65.333,16.05,76.2,15.417,80.5,19.05z"/>
		<path style="fill-rule:evenodd;clip-rule:evenodd;fill:#495352;" d="M82.55,89.4c1.267,1.3,2.084,2.899,2.45,4.8
			c0.366,1.967,0.116,3.649-0.75,5.05c-0.967,1.6-2.616,2.5-4.95,2.7c-2.333,0.2-4.133-0.4-5.399-1.8
			c-1.101-1.2-1.634-2.784-1.601-4.75c0.033-1.9,0.55-3.601,1.55-5.101c1.134-1.6,2.551-2.5,4.25-2.7
			C79.733,87.4,81.217,88,82.55,89.4z"/>
	</g>
	<path style="fill-rule:evenodd;clip-rule:evenodd;fill:#628F94;" d="M48.25,55.9c1-0.066,1.317-0.983,0.95-2.75
		c-0.333-1.767-1.117-2.65-2.35-2.65c-1,0-1.25,0.917-0.75,2.75S47.317,55.967,48.25,55.9z M45.15,45.25
		c2.467-0.367,4.383,0.567,5.75,2.8c1.167,1.9,1.767,4.434,1.8,7.6c0.033,2.967-0.4,5.6-1.3,7.9c-0.967,2.434-2.183,3.65-3.65,3.65
		c-1.433,0-2.7-1.1-3.8-3.3c-0.967-2-1.633-4.45-2-7.35c-0.367-2.9-0.284-5.4,0.25-7.5C42.733,46.717,43.717,45.45,45.15,45.25z"/>
	<path style="fill-rule:evenodd;clip-rule:evenodd;fill:#628F94;" d="M74.65,128.4c1.533-0.101,2.899,0.916,4.1,3.05
		c1.1,1.934,1.816,4.283,2.15,7.05c0.366,2.833,0.199,5.184-0.5,7.05c-0.767,2.101-2.067,3.084-3.9,2.95s-3.35-1.233-4.55-3.3
		c-1.101-1.867-1.767-4.134-2-6.8c-0.2-2.634,0.083-4.884,0.85-6.75C71.667,129.616,72.95,128.533,74.65,128.4z M74.65,131.2
		c-0.934-0.066-1.667,0.649-2.2,2.149c-0.5,1.434-0.684,3.117-0.55,5.051c0.333,4.966,2.083,7.399,5.25,7.3
		c2.166-0.066,2.8-2.467,1.899-7.2C78.116,133.8,76.65,131.366,74.65,131.2z"/>
	<path style="fill-rule:evenodd;clip-rule:evenodd;fill:#628F94;" d="M44.05,113.4c1.8,0.066,2.833,1.25,3.1,3.55
		c0.3,2.333-0.467,3.566-2.3,3.7c-1.9,0.166-3-1.017-3.3-3.551C41.25,114.566,42.083,113.333,44.05,113.4z"/>
	<path style="fill-rule:evenodd;clip-rule:evenodd;fill:#628F94;" d="M43,44.6c-1.1,0.4-1.983,1.283-2.65,2.65
		c-0.633,1.367-0.833,2.8-0.6,4.3c0.3,2.067,1.217,6.15,2.75,12.25c-0.4-0.4-0.8-0.683-1.2-0.85c-0.833-0.333-1.25,0.05-1.25,1.15
		c0,1.733,0.35,4.25,1.05,7.55c-1.7-5.7-2.9-10.517-3.6-14.45c-0.033-1.567,0.033-3.317,0.2-5.25c0.3-3.934,0.933-6.9,1.9-8.9
		c0.867-1.833,1.066-5.316,0.6-10.45l-0.95-7.15l2.8-1.25l0.05,8.25c0.2,5.6,0.75,8.683,1.65,9.25c0.733,0.466,2.45,0.917,5.15,1.35
		c2.533,0.667,4.167,1.967,4.9,3.9c0.767,2,1.25,4.433,1.45,7.3c0.133,1.4,0.167,2.617,0.1,3.65c-0.167-1.566-0.45-3.217-0.85-4.95
		c-0.767-3.5-1.667-5.717-2.7-6.65c-1.167-1-2.683-1.65-4.55-1.95C45.617,44.117,44.2,44.2,43,44.6z"/>
	<path style="fill-rule:evenodd;clip-rule:evenodd;fill:#628F94;" d="M29.55,99.2l1.25,6.55c0.867,5,1.417,9.05,1.65,12.15
		c0.2,2.366,0.933,5.383,2.2,9.05c1.133,3.366,1.7,6.166,1.7,8.399c0,2.267-0.434,4.15-1.3,5.65c-0.8,1.4-1.15,2.816-1.05,4.25
		c0.2,3.1,0.867,10.267,2,21.5l-2.3-0.65L29.55,99.2z"/>
	<polygon style="fill-rule:evenodd;clip-rule:evenodd;fill:#628F94;" points="38.35,80.95 36.95,76.75 36,86.2 29.4,31.3 	"/>
	<path style="fill-rule:evenodd;clip-rule:evenodd;fill:#628F94;" d="M32.15,28.85c1.467-1.1,2.684,0.45,3.65,4.65
		c0.5,2.1,0.833,4.317,1,6.65l-2.5,2.6L32.15,28.85z"/>
	<path style="fill-rule:evenodd;clip-rule:evenodd;fill:#628F94;" d="M47.75,121.8l1.4-1.899L48.1,123.1
		c-0.667,2.367-0.934,4.034-0.8,5c0.1,0.667,0.75,2.467,1.95,5.4c1.233,2.967,1.933,5.083,2.1,6.35c0.133,1.067-0.117,2.4-0.75,4
		c-0.633,1.534-0.8,3.134-0.5,4.801c0.5,3.1,1.117,9.083,1.85,17.949h-1.7c-1.133-17.633-2.017-28.517-2.65-32.649
		c-0.4-2.667-1.184-4.667-2.35-6c-0.033-0.066-1.467-1.25-4.3-3.55c-1.467-1.233-2.583-3.851-3.35-7.851l-0.65-5.6
		c0.433,2.066,1.316,4.316,2.65,6.75c1.533,2.7,3.017,4.366,4.45,5C45.35,123.267,46.583,122.967,47.75,121.8z"/>
	<polygon style="fill-rule:evenodd;clip-rule:evenodd;fill:#628F94;" points="37.1,126.55 39.4,129.95 38.65,154.7 	"/>
	<polygon style="fill-rule:evenodd;clip-rule:evenodd;fill:#628F94;" points="42.35,132.55 44.35,140.45 47,166.1 44.35,165.5 	"/>
	<path style="fill-rule:evenodd;clip-rule:evenodd;fill:#628F94;" d="M65.8,130l1.101,2.3c0.767,1.834,1.25,3.467,1.449,4.9
		c0.2,1.666,0.834,4.149,1.9,7.45c0.967,3.033,1.95,5.733,2.95,8.1c0.767,1.833,0.95,4.816,0.55,8.95
		c-0.167,2.066-0.434,3.95-0.8,5.649l-3.7,0.25c0.767-5.267,0.917-9.916,0.45-13.949c-0.267-2.5-1-7.184-2.2-14.051L65.8,130z"/>
	<path style="fill-rule:evenodd;clip-rule:evenodd;fill:#628F94;" d="M72.5,104.05l3.7,17.601l4.05,2.6
		c2.8,2.333,4.55,4.95,5.25,7.85c0.7,3,0.35,6.601-1.05,10.801c-0.634,1.866-1.917,4.833-3.851,8.899
		c-0.866,1.834-0.916,4.867-0.149,9.101c0.366,2.1,0.816,4.017,1.35,5.75l-3.05-0.7c-0.2-2.134-0.316-4.351-0.35-6.65
		c-0.134-4.6,0.149-7.333,0.85-8.2c0.934-1.199,1.833-3.583,2.7-7.149c0.934-4.033,1.184-7.367,0.75-10
		c-0.367-2.4-1.867-4.667-4.5-6.8l-3.851-2.45L72.5,104.05z"/>
	<path style="fill-rule:evenodd;clip-rule:evenodd;fill:#628F94;" d="M47.45,70.2l0.75,0.45c0.633,0.233,1.233,0.167,1.8-0.2
		c0.933-0.633,1.867-2.034,2.8-4.2c-0.466,16.533-0.55,25.583-0.25,27.15c0,0.066,0.517,1.633,1.55,4.699
		c0.867,2.601,1.433,5.051,1.7,7.351c0.233,1.967,0.05,4.533-0.55,7.7c-0.633,3.166-0.833,5.616-0.6,7.35
		c0.467,3.566,1.167,16.483,2.1,38.75l-1.65-1.4c-2.167-42.833-3.633-67.033-4.4-72.6c-0.467-3.467-1.15-7.017-2.05-10.65
		L47.45,70.2z"/>
	<path style="fill-rule:evenodd;clip-rule:evenodd;fill:#628F94;" d="M43.75,74.35l2,4.5c1.367,3.467,2.1,6.45,2.2,8.95
		c0.133,4.033,0.05,11.533-0.25,22.5L43.75,74.35z"/>
	<polygon style="fill-rule:evenodd;clip-rule:evenodd;fill:#628F94;" points="42.15,110.1 39.6,108.25 37.5,86.2 	"/>
	<polygon style="fill-rule:evenodd;clip-rule:evenodd;fill:#628F94;" points="33.55,95.95 35.65,94.1 34.25,107.55 	"/>
	<path style="fill-rule:evenodd;clip-rule:evenodd;fill:#628F94;" d="M86.65,57c0.166,3.233,0.25,5.933,0.25,8.1l-1.65-10.45
		l-0.45,30.6c-1.233-23.933-2.467-40.233-3.7-48.9c-0.767-5.4-2.383-9.533-4.85-12.4c-0.767-0.9-1.583-1.617-2.45-2.15l-1.05-0.5
		c2.134-0.3,4.35,1.05,6.65,4.05c2.633,3.467,4.433,8.133,5.399,14C85.667,44.65,86.283,50.533,86.65,57z"/>
	<polygon style="fill-rule:evenodd;clip-rule:evenodd;fill:#628F94;" points="91.5,154.6 88.5,150.9 88.25,89.7 	"/>
	<path style="fill-rule:evenodd;clip-rule:evenodd;fill:#628F94;" d="M79,105.9l0.95,5.1c0.733,3.634,1.35,6.033,1.85,7.2
		c0.767,1.866,1.834,4.333,3.2,7.399l-5.55-6L79,105.9z"/>
	<polygon style="fill-rule:evenodd;clip-rule:evenodd;fill:#628F94;" points="84.55,105.2 86.4,104.5 85.95,115.65 	"/>
	<polygon style="fill-rule:evenodd;clip-rule:evenodd;fill:#628F94;" points="85.25,154.85 88.95,166.9 85,164.55 	"/>
	<path style="fill-rule:evenodd;clip-rule:evenodd;fill:#628F94;" d="M57.65,119.6l1.85,10.2l0.95,1.45
		c0.767,1.467,1.383,3.45,1.85,5.95c0.467,2.533,0.384,5.184-0.25,7.95c-0.333,1.399-0.717,2.533-1.149,3.399l2.8,16.7l-3-1.85
		L57.65,119.6z"/>
	<path style="fill-rule:evenodd;clip-rule:evenodd;fill:#628F94;" d="M60.7,46.8l0.8,10.65c0.6,7.767,1.1,13.333,1.5,16.7
		c0.333,3.067,1.366,5.667,3.1,7.8c1.534,1.966,2.284,3.3,2.25,4c-0.066,1.033-0.55,2.833-1.449,5.399
		c-0.733,2.867-0.867,5.934-0.4,9.2c0.767,5.434,2.3,13.25,4.6,23.45l-3.25-1.15c-0.699-3.433-1.449-7.583-2.25-12.449
		c-1.6-9.7-2.699-18.084-3.3-25.15c-0.934-11.267-2.55-24.933-4.85-41L60.7,46.8z"/>
	<polygon style="fill-rule:evenodd;clip-rule:evenodd;fill:#628F94;" points="56.25,84.35 59.3,86.9 60.7,112.85 	"/>
	<path style="fill-rule:evenodd;clip-rule:evenodd;fill:#628F94;" d="M68.55,56.5c0.767,3.567,1.316,11.917,1.65,25.05l-2.351-6
		L63.9,32.85L68.55,56.5z"/>
	<path style="fill-rule:evenodd;clip-rule:evenodd;fill:#628F94;" d="M50.7,25.2c0.7,0.3,1.75,3.167,3.15,8.6
		c0.733,2.733,1.383,5.434,1.95,8.1l-3.45-2.3c-0.533-2.5-1-4.967-1.4-7.4C50.15,27.3,50.067,24.967,50.7,25.2z"/>
	<polygon style="fill-rule:evenodd;clip-rule:evenodd;fill:#628F94;" points="69.5,25.7 74.15,34.05 74.15,51.2 	"/>
	<path style="fill-rule:evenodd;clip-rule:evenodd;fill:#628F94;" d="M75.3,79.7c0.134-0.767-0.033-7.25-0.5-19.45l3.95,21.1
		L75.3,79.7z"/>
</g>
</svg>
