<?xml version="1.0" encoding="iso-8859-1"?>
<!-- Generator: Adobe Illustrator 15.1.0, SVG Export Plug-In . SVG Version: 6.00 Build 0)  -->
<!DOCTYPE svg PUBLIC "-//W3C//DTD SVG 1.1//EN" "http://www.w3.org/Graphics/SVG/1.1/DTD/svg11.dtd">
<svg version="1.1" id="buildings" xmlns="http://www.w3.org/2000/svg" xmlns:xlink="http://www.w3.org/1999/xlink" x="0px" y="0px"
	 width="99.5px" height="23.05px" viewBox="0 0 99.5 23.05" style="enable-background:new 0 0 99.5 23.05;" xml:space="preserve">
<g>
	<path style="fill-rule:evenodd;clip-rule:evenodd;fill:#859F8C;" d="M94.75,4.75C88.217,6.217,80.733,7.7,72.3,9.2
		c-16.833,3-29.933,4.6-39.3,4.8s-17.683-0.1-24.95-0.9C4.45,12.7,1.767,12.267,0,11.8l2.15-2.3c3.434,0.4,7.45,0.733,12.05,1
		c9.267,0.567,16.917,0.567,22.95,0s18.234-2.483,36.6-5.75C82.95,3.117,91.533,1.533,99.5,0L94.75,4.75z"/>
	<path style="fill-rule:evenodd;clip-rule:evenodd;fill:#768D7C;" d="M95,15.3c-4.9,1.101-10.316,2.233-16.25,3.4
		c-11.8,2.333-20.217,3.7-25.25,4.1c-10.2,0.834-22.183-0.333-35.95-3.5c-6.867-1.566-12.716-3.233-17.55-5v-2.5
		c2.433,0.601,5.983,1.084,10.65,1.45c9.333,0.733,19.617,0.583,30.85-0.45c11.267-1.033,23.517-2.683,36.75-4.95
		c6.634-1.133,12.134-2.167,16.5-3.1L95,15.3z"/>
	<polygon style="fill-rule:evenodd;clip-rule:evenodd;fill:#4F726D;" points="99.5,0 98.65,11.5 95,15.3 94.75,4.75 	"/>
</g>
</svg>
