<?xml version="1.0" encoding="iso-8859-1"?>
<!-- Generator: Adobe Illustrator 15.1.0, SVG Export Plug-In . SVG Version: 6.00 Build 0)  -->
<!DOCTYPE svg PUBLIC "-//W3C//DTD SVG 1.1//EN" "http://www.w3.org/Graphics/SVG/1.1/DTD/svg11.dtd">
<svg version="1.1" id="buildings" xmlns="http://www.w3.org/2000/svg" xmlns:xlink="http://www.w3.org/1999/xlink" x="0px" y="0px"
	 width="318.8px" height="105.2px" viewBox="0 0 318.8 105.2" style="enable-background:new 0 0 318.8 105.2;" xml:space="preserve"
	>
<path style="fill-rule:evenodd;clip-rule:evenodd;fill:#B7CFA2;" d="M299.4,2c5.133,2.1,9.5,4.983,13.1,8.65
	c4.267,4.434,6.366,9.083,6.3,13.95c-0.1,5.9-3.467,11.7-10.1,17.4c-5.033,4.333-16.7,5.267-35,2.8
	c-10.233-1.566-17.834-2.683-22.8-3.35c-8.7-1.167-15.551-1.65-20.551-1.45c-3.1,0.133-8.916,0.883-17.449,2.25
	c-5.334,0.867-10.067,1.683-14.2,2.45c-6.101,1.033-14.517,4.433-25.25,10.2C162.917,60.6,155.333,65.75,150.7,70.35
	c-1.8,1.801-2.833,3.75-3.1,5.851c-0.167,1.166-0.167,2.85,0,5.05c-0.033,1.866-0.667,3.45-1.9,4.75c-1.633,1.733-4.633,3.4-9,5
	c-7.9,2.934-14.883,3.366-20.95,1.3c-1.9-0.633-3.6-1.483-5.1-2.55l-1.65-1.4c-18.667,2-32,3.667-40,5
	c-9.767,1.634-18.533,2.084-26.3,1.351c1.333,3.533,2.6,7.033,3.8,10.5c-14.2,0.033-28.3-0.533-42.3-1.7L0,48.35
	c4.4,1.833,10.033,4.133,16.9,6.9c5.167,2.4,9.2,5.316,12.1,8.75c3.933,0.467,11.717,1.783,23.35,3.95
	c11.7,1.6,22.483,1.5,32.35-0.3c16.267-2.9,35.183-9.784,56.75-20.65c10.767-5.433,19.916-10.583,27.45-15.45l2.85-4.7
	c2.866-3.733,6.767-7.133,11.7-10.2c3.899-2.4,8.55-3.566,13.95-3.5c3.866,0.033,9.649,0.867,17.35,2.5
	c7.1,1.5,20.616-0.15,40.55-4.95c16.867-4.1,28.167-7.517,33.9-10.25C291.2-0.483,294.6,0.033,299.4,2z"/>
<path style="fill-rule:evenodd;clip-rule:evenodd;fill:#D4E2C8;" d="M94.55,66.25c5.167-1.233,9.5-2.467,13-3.7
	c-2.667,1.434-6.383,2.917-11.15,4.45c-9.533,3.033-19.517,4.75-29.95,5.15c-7.534,0.3-16.233-0.2-26.1-1.5L27.8,68.55
	c-2.966-2.934-6.55-5.983-10.75-9.149c-2.066-1.567-5.283-3.584-9.65-6.051l-5.95-3.2c8.867,2.6,16.1,5.867,21.7,9.8
	c2.833,1.967,4.767,3.666,5.8,5.1L39.9,67.2c9.067,1.5,18.083,2.316,27.05,2.45C75.083,69.783,84.283,68.65,94.55,66.25z"/>
<path style="fill-rule:evenodd;clip-rule:evenodd;fill:#D4E2C8;" d="M212.2,22.65c-6.566-1.367-11.9-2.233-16-2.6
	c-6.934-0.566-12.233-0.017-15.9,1.65l7.2-3.45c5.5-2.167,10.017-2.983,13.55-2.45c2.834,0.434,7.084,1.1,12.75,2
	c4.967,0.8,8.8,1.317,11.5,1.55c2.8,0.267,5.733,0.167,8.8-0.3c1.534-0.233,2.784-0.5,3.75-0.8c-2.833,1.033-6.033,1.983-9.6,2.85
	C221.116,22.867,215.767,23.383,212.2,22.65z"/>
<path style="fill-rule:evenodd;clip-rule:evenodd;fill:#D4E2C8;" d="M303.65,4.75c-0.834,1.667-1.834,3-3,4l-1.5,1
	c0.166-0.567,0.233-1.233,0.199-2c-0.1-1.5-0.666-2.667-1.699-3.5c-1.034-0.833-4.434-0.75-10.2,0.25l-8.3,1.75L284.6,3.7
	c4.067-1.767,7.25-2.75,9.551-2.95c2.3-0.2,4.566,0.4,6.8,1.8C302.083,3.283,302.983,4.017,303.65,4.75z"/>
<path style="fill-rule:evenodd;clip-rule:evenodd;fill:#789D65;" d="M317.7,24.8c1,0,1.267,0.917,0.8,2.75
	c-0.467,1.867-1.517,3.95-3.15,6.25c-4.366,6.167-9.666,9.867-15.899,11.1c-5.8,1.133-14.434,0.967-25.9-0.5l-15.5-2.6
	c-2.533-0.566-5.616-1.083-9.25-1.55c-7.233-0.967-13.566-1.25-19-0.85c-11.8,0.9-22.649,2.617-32.55,5.15l-11.3,3.5L187,37.7
	l11.8-1.85c8.5-1.233,14.351-1.85,17.55-1.85c1.867,0,6.534-0.133,14-0.4c7.934-0.2,14.934-0.167,21,0.1
	c4.5,0.2,13.634,0.983,27.4,2.35c8.3,0.867,14.384,0.85,18.25-0.05c6.767-1.567,12.25-3.9,16.45-7
	C315.55,27.433,316.967,26.033,317.7,24.8z"/>
<path style="fill-rule:evenodd;clip-rule:evenodd;fill:#789D65;" d="M112.9,90.15l-3.1-2.851c-13.9,1.5-26.566,3.117-38,4.851
	c-7.2,1.1-15.433,1.666-24.7,1.699l-11.8-0.3L34.35,82.7l10,2.399c8,1.5,15.333,2.034,22,1.601c6.667-0.4,16.117-2.084,28.35-5.05
	c6.1-1.467,11.533-2.9,16.3-4.301l3.75,3.601c2.7,2.533,4.567,4.116,5.6,4.75c1.467,0.866,3.6,1.166,6.4,0.899
	c3.467-0.333,7.667-1.533,12.6-3.6c2.5-1.033,4.316-3.217,5.45-6.55l0.9-4.65c0.667,2,0.966,4.483,0.9,7.45
	c-0.1,3.167-0.617,5.217-1.55,6.15c-1.5,1.5-4,2.983-7.5,4.449c-4.7,2-9.45,3.017-14.25,3.051
	C119.233,92.967,115.767,92.05,112.9,90.15z"/>
<path style="fill-rule:evenodd;clip-rule:evenodd;fill:#789D65;" d="M3.05,74.4l2.5,8.35c1.967,6,3.717,10.05,5.25,12.15
	c0.934,1.3,6.9,3.283,17.9,5.949c5.533,1.301,10.95,2.483,16.25,3.551l-39.4-1.75L3.05,74.4z"/>
</svg>
