<?xml version="1.0" encoding="iso-8859-1"?>
<!-- Generator: Adobe Illustrator 15.1.0, SVG Export Plug-In . SVG Version: 6.00 Build 0)  -->
<!DOCTYPE svg PUBLIC "-//W3C//DTD SVG 1.1//EN" "http://www.w3.org/Graphics/SVG/1.1/DTD/svg11.dtd">
<svg version="1.1" id="buildings" xmlns="http://www.w3.org/2000/svg" xmlns:xlink="http://www.w3.org/1999/xlink" x="0px" y="0px"
	 width="111.7px" height="229.35px" viewBox="0 0 111.7 229.35" style="enable-background:new 0 0 111.7 229.35;"
	 xml:space="preserve">
<g>
	<path style="fill-rule:evenodd;clip-rule:evenodd;fill:#D15869;" d="M0,46c0.033-8.167,0.567-16.217,1.6-24.15
		c0.9-7.133,1.9-12.217,3-15.25c1.933-5.3,6.35-7.417,13.25-6.35c6.7,1,11.617,4.117,14.75,9.35c1.333,2.2,1.85,5.8,1.55,10.8
		c-0.1,2.067-0.7,7.3-1.8,15.7c-2.067,15.733-1.65,27.566,1.25,35.5c1.667,4.566,6.767,8.433,15.3,11.6
		c5,1.867,13.65,4.667,25.95,8.4c10.9,4.033,19.184,9.083,24.851,15.15c7.467,8.033,11.434,18.65,11.899,31.85
		c0.834,24.167-3.5,45.934-13,65.301c-4.733,9.666-9.566,16.916-14.5,21.75c-0.233,0.166-0.767,0.166-1.6,0
		c-1.667-0.367-3.967-1.384-6.9-3.051c-2.899-1.666-5.767-4.5-8.6-8.5l-3.4-5.5c10-19.333,17-33.333,21-42
		c3-6.466,3.884-14.416,2.65-23.85c-1.233-9.4-4.116-17.116-8.65-23.15c-1.966-2.633-6.116-4.983-12.449-7.05
		c-2.667-0.867-9.267-2.6-19.8-5.2c-9.033-2.233-16-4.333-20.9-6.3c-7.2-2.933-12.483-6.417-15.85-10.45
		C3.033,82.7-0.167,67.833,0,46z"/>
	<g>
		<path style="fill-rule:evenodd;clip-rule:evenodd;fill:#CA3654;" d="M0,46c0.033-8.167,0.567-16.217,1.6-24.15
			c0.9-7.133,1.9-12.217,3-15.25s3.217-5.033,6.35-6c2.867-0.867,6.066-0.783,9.6,0.25c-3.767,13.933-6.283,27.267-7.55,40
			c-2.267,23.133,0.7,37.95,8.9,44.45c7.8,6.167,18.7,11.15,32.7,14.95c9.034,2.433,14.034,3.8,15,4.1c5.101,1.633,9.101,3.5,12,5.6
			c6.467,4.733,11.15,12.233,14.051,22.5c2.8,9.934,3,18.767,0.6,26.5c-1.934,6.267-5.9,16.816-11.9,31.649
			c-3,7.4-5.816,14.184-8.449,20.351l-9.9-7c8.634-16.8,14.833-29.25,18.6-37.351c3-6.466,3.884-14.416,2.65-23.85
			c-1.233-9.4-4.116-17.116-8.65-23.15c-1.966-2.633-6.116-4.983-12.449-7.05c-2.667-0.867-9.267-2.6-19.8-5.2
			c-9.033-2.233-16-4.333-20.9-6.3c-7.2-2.933-12.483-6.417-15.85-10.45C3.033,82.7-0.167,67.833,0,46z"/>
	</g>
	<path style="fill-rule:evenodd;clip-rule:evenodd;fill:#BC4D5A;" d="M82.7,228.05c-4.367-1.267-7.733-2.916-10.101-4.95
		c-5.399-4.566-8.933-8.933-10.6-13.1c-0.533-1.333-0.85-2.55-0.95-3.65l0.05-1.25c0.5-1.533,1.25-3.066,2.25-4.6
		c2-3.1,4.25-4.65,6.75-4.65l1.5,3.9c1.601,3.066,3.851,5.85,6.75,8.35c2.233,1.934,5.617,3.101,10.15,3.5c2.267,0.2,4.3,0.2,6.1,0
		l-1.5,10.5c-0.3,1.867-1.149,3.634-2.55,5.301c-0.666,0.833-1.316,1.483-1.95,1.949C86.866,229.116,84.9,228.684,82.7,228.05z"/>
	<path style="fill-rule:evenodd;clip-rule:evenodd;fill:#893342;" d="M13.6,4.3c-1.4,7.267-2.717,15.367-3.95,24.3
		C7.117,46.433,6.2,59.45,6.9,67.65c0.333,3.8,1.167,7.883,2.5,12.25c0.633,2.2,1.25,4,1.85,5.4c-1.1-0.667-2.25-1.816-3.45-3.45
		c-2.433-3.267-3.95-7.333-4.55-12.2c-0.633-5.367-1.083-12.167-1.35-20.4c-0.3-10-0.066-17.533,0.7-22.6
		c1.033-7.066,1.7-11.433,2-13.1c0.6-3.133,1.267-5.1,2-5.9c1.267-1.4,2.816-2.383,4.65-2.95C12.15,4.433,12.933,4.3,13.6,4.3z"/>
	<path style="fill-rule:evenodd;clip-rule:evenodd;fill:#893342;" d="M20.05,94.4l-1.45-3.75l5.05,2.65c4,2,7.533,3.55,10.6,4.65
		c2.3,0.833,8.05,2.383,17.25,4.65c9.467,2.3,16.05,4.083,19.75,5.35c4.767,1.633,8.517,4.066,11.25,7.3
		c1.467,1.733,3.717,5.417,6.75,11.05c2.366,4.4,3.866,10.184,4.5,17.351c0.667,7.333,0.167,13.55-1.5,18.649
		c-2.233,6.9-7.566,19.45-16,37.65c-1.233-0.7-2.167-1.783-2.8-3.25l-0.55-2.05c3.133-5.101,6.466-11.101,10-18
		c3.699-7.2,6.066-14.117,7.1-20.75c0.967-6.067,0.833-12.051-0.4-17.95c-1.533-7.267-3.583-13.017-6.149-17.25
		c-2.7-4.4-6.101-7.417-10.2-9.05c-3.2-1.267-10.95-3.333-23.25-6.2c-13.567-3.167-21.15-5-22.75-5.5
		C24.05,98.983,21.65,97.133,20.05,94.4z"/>
	<path style="fill-rule:evenodd;clip-rule:evenodd;fill:#EA878B;" d="M25.6,9.6l3.05,3c2,2.566,2.867,5.233,2.6,8
		c-0.033,0.2-0.567,3.367-1.6,9.5c-0.833,5.1-1.517,11.833-2.05,20.2c-0.567,8.767,0.316,16.4,2.65,22.9
		c1.167,3.233,2.383,5.6,3.65,7.1c-1.267-0.9-2.7-2.483-4.3-4.75c-3.133-4.566-5.467-10.316-7-17.25
		c-1.533-6.966-1.5-17.167,0.1-30.6C23.533,20.967,24.5,14.933,25.6,9.6z"/>
	<path style="fill-rule:evenodd;clip-rule:evenodd;fill:#ED9D9D;" d="M107.15,132.8c1.399,7.101,1.883,13.15,1.449,18.15
		c-0.633,7.5-1.3,13.633-2,18.399c-1.033,6.867-2.366,12.851-4,17.95c-1.533,4.733-3.449,9.55-5.75,14.45
		c-1.133,2.434-2.116,4.4-2.949,5.9c-1.034,0.333-2.117,0.6-3.25,0.8c-2.267,0.366-3.617,0.2-4.051-0.5
		c3-4.167,6.051-9.867,9.15-17.101c6.167-14.5,9.45-29.466,9.85-44.899c0.101-4.3,0.017-9.3-0.25-15l-0.449-7.3L107.15,132.8z"/>
	<path style="fill-rule:evenodd;clip-rule:evenodd;fill:#ED9D9D;" d="M45.9,85.3c1.167,0.034,6.184,1.383,15.05,4.05
		c9.899,2.967,16.666,5.4,20.3,7.3c3.467,1.8,7.283,4.333,11.45,7.6c2.1,1.667,3.833,3.133,5.2,4.4c-1.5-1.167-3.4-2.467-5.7-3.9
		c-4.601-2.9-8.917-5.05-12.95-6.45c-4.033-1.4-11.184-3.6-21.45-6.6l-14.2-4.05c-0.6-0.433-0.967-0.867-1.1-1.3
		C42.267,85.517,43.4,85.167,45.9,85.3z"/>
	<g>
		<path style="fill-rule:evenodd;clip-rule:evenodd;fill:#8F3F49;" d="M74.45,210.4c-1.867,2.366-2.767,4.449-2.7,6.25
			c0.066,1.8,1.417,4.05,4.05,6.75c1.334,1.366,2.65,2.55,3.95,3.55l-0.4-0.05c-2.8-1.034-5.05-2.301-6.75-3.801
			c-5.399-4.566-8.933-8.933-10.6-13.1c-0.533-1.333-0.85-2.55-0.95-3.65l0.05-1.25c0.5-1.533,1.25-3.066,2.25-4.6
			c2-3.1,4.25-4.65,6.75-4.65L71.4,199.4c1.399,2.833,3.383,5.449,5.949,7.85l-0.1,0.2L74.45,210.4z"/>
	</g>
	<path style="fill-rule:evenodd;clip-rule:evenodd;fill:#C76B70;" d="M86.4,219.45c0.433-1.033,0.6-2.283,0.5-3.75l-0.301-1.9
		l2-0.149c1.4,0.033,2.284,0.366,2.65,1c0.467,0.833,0.634,2.017,0.5,3.55c-0.167,1.767-0.717,3.75-1.65,5.95
		c-0.833,1.933-2.033,2.566-3.6,1.899l-2.1-1.6L86.4,219.45z"/>
	<path style="fill-rule:evenodd;clip-rule:evenodd;fill:#7C3941;" d="M68.75,198.8c-0.4,0.967-0.05,2.434,1.05,4.4
		c0.566,0.967,1.167,1.833,1.8,2.6l-0.8,0.5c-0.633,0.467-1.267,1.084-1.899,1.851c-1,1.199-1.601,2.75-1.801,4.649
		c-0.166,0.033-0.383-0.05-0.649-0.25c-0.533-0.366-1.05-1.066-1.55-2.1c-0.601-1.267-0.867-2.55-0.801-3.851
		c0.034-1.366,0.417-2.583,1.15-3.649c0.634-0.9,1.4-1.867,2.3-2.9L68.75,198.8z"/>
</g>
</svg>
