<?xml version="1.0" encoding="iso-8859-1"?>
<!-- Generator: Adobe Illustrator 15.1.0, SVG Export Plug-In . SVG Version: 6.00 Build 0)  -->
<!DOCTYPE svg PUBLIC "-//W3C//DTD SVG 1.1//EN" "http://www.w3.org/Graphics/SVG/1.1/DTD/svg11.dtd">
<svg version="1.1" id="buildings" xmlns="http://www.w3.org/2000/svg" xmlns:xlink="http://www.w3.org/1999/xlink" x="0px" y="0px"
	 width="108.3px" height="28.8px" viewBox="0 0 108.3 28.8" style="enable-background:new 0 0 108.3 28.8;" xml:space="preserve">
<g>
	<path style="fill-rule:evenodd;clip-rule:evenodd;fill:#FAF2E2;" d="M96.6,16.45c-9.933,4.7-20.25,6.983-30.949,6.85
		c-10.7-0.133-24.134-2.033-40.3-5.7c-8.067-1.833-15.083-3.649-21.05-5.45L32.65,0c3.833,1.667,8.517,3.267,14.05,4.8
		C57.767,7.9,67.533,9.183,76,8.65C84.467,8.083,92.333,6.8,99.6,4.8c3.667-0.966,6.467-1.9,8.4-2.8l0.3,7.3
		C105.467,11.7,101.566,14.083,96.6,16.45z"/>
	<path style="fill-rule:evenodd;clip-rule:evenodd;fill:#EFD79F;" d="M102,11.15l3,1.65c-3.667,3.101-8.7,6.084-15.1,8.95
		c-12.834,5.733-26.134,7.967-39.9,6.7C36.267,27.217,23.817,25.066,12.65,22C7.05,20.467,2.833,19.066,0,17.8l4.3-5.65
		c2.4,0.767,6.3,1.667,11.7,2.7c10.767,2.067,23.65,3.716,38.65,4.95c15,1.267,27.399,0.2,37.199-3.2
		C96.717,14.9,100.1,13.083,102,11.15z"/>
	<polygon style="fill-rule:evenodd;clip-rule:evenodd;fill:#ADAF8D;" points="108,2 108.3,9.3 105,12.8 102,11.15 	"/>
</g>
</svg>
