<?xml version="1.0" encoding="iso-8859-1"?>
<!-- Generator: Adobe Illustrator 15.1.0, SVG Export Plug-In . SVG Version: 6.00 Build 0)  -->
<!DOCTYPE svg PUBLIC "-//W3C//DTD SVG 1.1//EN" "http://www.w3.org/Graphics/SVG/1.1/DTD/svg11.dtd">
<svg version="1.1" id="buildings" xmlns="http://www.w3.org/2000/svg" xmlns:xlink="http://www.w3.org/1999/xlink" x="0px" y="0px"
	 width="125.2px" height="36.5px" viewBox="0 0 125.2 36.5" style="enable-background:new 0 0 125.2 36.5;" xml:space="preserve">
<g>
	<path style="fill-rule:evenodd;clip-rule:evenodd;fill:#FAF2E2;" d="M122.95,25.2c-3.533,1.267-8.15,2.517-13.851,3.75
		C97.7,31.417,86.566,32.55,75.7,32.35C57.367,31.983,39.817,29.1,23.05,23.7c-8.4-2.7-14.966-5.367-19.7-8L30.95,0
		c6.033,2.433,13.033,4.933,21,7.5c15.934,5.167,28.767,8.167,38.5,9c9.7,0.833,18.399,0.75,26.1-0.25
		c3.867-0.5,6.75-1.083,8.65-1.75L122.95,25.2z"/>
	<path style="fill-rule:evenodd;clip-rule:evenodd;fill:#EFD79F;" d="M109.4,28.7c5.3-0.867,8.733-1.934,10.3-3.2l3.5,1.5
		c-3.066,2.134-7.983,4.083-14.75,5.85c-13.5,3.567-29.417,4.517-47.75,2.851c-18.333-1.667-33.95-4.5-46.85-8.5
		C7.417,25.2,2.8,23.366,0,21.7l3.35-6c3.1,1.4,8.033,2.966,14.8,4.7c13.533,3.533,29.467,6.233,47.8,8.1
		C84.384,30.4,98.866,30.467,109.4,28.7z"/>
</g>
</svg>
