<?xml version="1.0" encoding="iso-8859-1"?>
<!-- Generator: Adobe Illustrator 15.1.0, SVG Export Plug-In . SVG Version: 6.00 Build 0)  -->
<!DOCTYPE svg PUBLIC "-//W3C//DTD SVG 1.1//EN" "http://www.w3.org/Graphics/SVG/1.1/DTD/svg11.dtd">
<svg version="1.1" id="buildings" xmlns="http://www.w3.org/2000/svg" xmlns:xlink="http://www.w3.org/1999/xlink" x="0px" y="0px"
	 width="421.35px" height="45.05px" viewBox="0 0 421.35 45.05" style="enable-background:new 0 0 421.35 45.05;"
	 xml:space="preserve">
<g>
	
		<linearGradient id="SVGID_1_" gradientUnits="userSpaceOnUse" x1="-0.1333" y1="-210.6733" x2="40.8417" y2="-210.6733" gradientTransform="matrix(2.440513e-005 1 -1 -0.001 4.657796e-004 -5.507551e-005)">
		<stop  offset="0" style="stop-color:#74454D"/>
		<stop  offset="1" style="stop-color:#7F5257"/>
	</linearGradient>
	<path style="fill-rule:evenodd;clip-rule:evenodd;fill:url(#SVGID_1_);" d="M421.35,45.05H0c9.8-4.2,25.133-10.967,46-20.3
		c20.933-9.367,35.85-15.4,44.75-18.1C107.15,1.683,124.233-0.5,142,0.1c14.833,0.5,37.817,4.833,68.95,13
		c22.399,5.867,34.767,9.083,37.1,9.65c13.934,3.467,25.7,5.917,35.3,7.35c18.601,2.767,47.184,6.084,85.75,9.95
		C388.366,42.017,405.783,43.684,421.35,45.05z"/>
	<g>
		<g>
			<path style="fill-rule:evenodd;clip-rule:evenodd;fill:#603A41;" d="M132.4,26.15c-1.3,0.933-2.783,1.883-4.45,2.85
				c-3.333,1.9-6.184,2.833-8.55,2.8c-2.867-0.2-4.733-0.916-5.6-2.149c-0.767-1.134-0.617-2.25,0.45-3.351
				c0.767-0.8,2.05-1.416,3.85-1.85c0.933-0.2,1.767-0.334,2.5-0.4c-1.2,0.4-2.333,0.867-3.4,1.4c-2.067,1.033-2.7,1.95-1.9,2.75
				c1.034,0.967,3.3,1.2,6.8,0.7C125.3,28.467,128.733,27.55,132.4,26.15z"/>
		</g>
	</g>
	<g>
		<g>
			<path style="fill-rule:evenodd;clip-rule:evenodd;fill:#603A41;" d="M171.85,30.3c1.133-1.033,2.933-1.55,5.4-1.55
				c-1,0.267-1.95,0.583-2.85,0.95c-1.8,0.8-2.383,1.55-1.75,2.25c0.8,0.899,2.7,1.2,5.7,0.899c3.133-0.3,5.917-1.199,8.35-2.699
				c-0.934,0.933-2.083,1.85-3.45,2.75c-2.733,1.767-5.183,2.517-7.35,2.25c-2.4-0.301-3.933-1-4.6-2.101
				C170.7,32.083,170.883,31.167,171.85,30.3z"/>
		</g>
	</g>
	<g>
		<g>
			<path style="fill-rule:evenodd;clip-rule:evenodd;fill:#603A41;" d="M164.25,14.05c-1.633,1.2-3.15,1.7-4.55,1.5
				c-1.534-0.2-2.483-0.65-2.85-1.35c-0.367-0.6-0.233-1.15,0.4-1.65c0.7-0.633,1.8-0.95,3.3-0.95
				c-0.633,0.167-1.216,0.367-1.75,0.6c-1.1,0.466-1.466,0.917-1.1,1.35c0.466,0.6,1.633,0.8,3.5,0.6c2-0.233,3.667-0.867,5-1.9
				C165.733,12.85,165.083,13.45,164.25,14.05z"/>
		</g>
	</g>
	<g>
		<g>
			<path style="fill-rule:evenodd;clip-rule:evenodd;fill:#603A41;" d="M54.05,34.8c-0.3-0.8-0.033-1.483,0.8-2.05
				c0.6-0.366,1.467-0.583,2.6-0.65c0.566-0.033,1.066-0.05,1.5-0.05c-0.733,0.167-1.45,0.351-2.15,0.55
				c-1.4,0.434-1.917,0.934-1.55,1.5c0.467,0.934,1.9,1.351,4.3,1.25c2.6-0.133,4.667-0.933,6.2-2.399
				c0.8-0.167,0.017,0.616-2.35,2.35c-2.066,1.5-4.05,2.033-5.95,1.601C55.55,36.434,54.417,35.733,54.05,34.8z"/>
		</g>
	</g>
	<g>
		<g>
			<path style="fill-rule:evenodd;clip-rule:evenodd;fill:#603A41;" d="M133.9,9.5c-0.9,0.633-1.933,1.267-3.1,1.9
				c-2.367,1.233-4.333,1.8-5.9,1.7c-1.833-0.067-3.083-0.5-3.75-1.3c-0.633-0.767-0.633-1.55,0-2.35
				c0.747-0.965,2.147-1.54,4.2-1.725c-0.41,0.141-1.093,0.466-2.05,0.975c-1.5,0.8-1.917,1.466-1.25,2c0.733,0.5,2.3,0.65,4.7,0.45
				C129.217,10.917,131.6,10.367,133.9,9.5z"/>
		</g>
	</g>
	<g>
		<g>
			<path style="fill-rule:evenodd;clip-rule:evenodd;fill:#603A41;" d="M216.3,30.3c1.334-1.033,3.384-1.684,6.15-1.95
				c1.399-0.1,2.649-0.116,3.75-0.05c-1.867,0.3-3.634,0.733-5.3,1.3c-3.301,1.167-4.417,2.4-3.351,3.7
				c1.3,1.7,4.601,2.517,9.9,2.45c5.733-0.066,10.733-1.316,15-3.75c-1.667,1.6-3.767,3.083-6.3,4.45
				c-5.034,2.8-9.467,3.783-13.301,2.95c-4.133-0.834-6.733-2.267-7.8-4.301C214.116,33.3,214.533,31.7,216.3,30.3z"/>
		</g>
	</g>
	<g>
		<g>
			<path style="fill-rule:evenodd;clip-rule:evenodd;fill:#603A41;" d="M214.7,22.35c-1.434,1.4-2.8,2.05-4.101,1.95
				c-0.899-0.066-1.5-0.3-1.8-0.7c-0.233-0.366-0.183-0.733,0.15-1.1c0.433-0.4,1.133-0.617,2.1-0.65
				c-0.399,0.1-0.767,0.233-1.1,0.4c-0.667,0.333-0.883,0.633-0.65,0.9c0.333,0.333,1.066,0.416,2.2,0.25
				C212.667,23.267,213.733,22.917,214.7,22.35z"/>
		</g>
	</g>
	<g>
		<g>
			<path style="fill-rule:evenodd;clip-rule:evenodd;fill:#603A41;" d="M284.7,36.3c-1.8,1.467-3.5,2.134-5.101,2
				c-1.699-0.1-2.816-0.533-3.35-1.3c-0.467-0.667-0.366-1.316,0.3-1.95c0.767-0.767,2.017-1.2,3.75-1.3c-0.7,0.233-1.366,0.5-2,0.8
				c-1.233,0.601-1.616,1.134-1.149,1.601c0.6,0.633,1.949,0.783,4.05,0.449c2.3-0.366,4.149-1.199,5.55-2.5
				C286.25,34.833,285.566,35.566,284.7,36.3z"/>
		</g>
	</g>
	<g>
		<g>
			<path style="fill-rule:evenodd;clip-rule:evenodd;fill:#603A41;" d="M81.8,20c0.6-0.5,1.517-0.733,2.75-0.7
				c-0.5,0.133-0.983,0.284-1.45,0.45c-0.934,0.367-1.25,0.733-0.95,1.1c0.4,0.533,1.383,0.717,2.95,0.55c1.633-0.2,3-0.75,4.1-1.65
				c-0.4,0.533-0.934,1.05-1.6,1.55c-1.333,1-2.6,1.417-3.8,1.25c-1.267-0.167-2.05-0.533-2.35-1.1
				C81.183,20.95,81.3,20.467,81.8,20z"/>
		</g>
	</g>
</g>
</svg>
