<?xml version="1.0" encoding="iso-8859-1"?>
<!-- Generator: Adobe Illustrator 15.1.0, SVG Export Plug-In . SVG Version: 6.00 Build 0)  -->
<!DOCTYPE svg PUBLIC "-//W3C//DTD SVG 1.1//EN" "http://www.w3.org/Graphics/SVG/1.1/DTD/svg11.dtd">
<svg version="1.1" id="buildings" xmlns="http://www.w3.org/2000/svg" xmlns:xlink="http://www.w3.org/1999/xlink" x="0px" y="0px"
	 width="129.7px" height="130.5px" viewBox="0 0 129.7 130.5" style="enable-background:new 0 0 129.7 130.5;" xml:space="preserve"
	>
<g>
	
		<linearGradient id="SVGID_1_" gradientUnits="userSpaceOnUse" x1="-50.248" y1="-69.9707" x2="50.9526" y2="-69.9707" gradientTransform="matrix(-0.7979 0.6028 -0.6028 -0.7979 -8.451939e-004 -5.376339e-005)">
		<stop  offset="0" style="stop-color:#5F7574"/>
		<stop  offset="1" style="stop-color:#A1AAA9"/>
	</linearGradient>
	<path style="fill-rule:evenodd;clip-rule:evenodd;fill:url(#SVGID_1_);" d="M45.7,0l57,40.5l-87,88.5L0,108.6
		c7.133-7.333,14.5-15.366,22.1-24.1C37.333,67.033,46.2,54.867,48.7,48s2.75-16.933,0.75-30.2C48.45,11.2,47.2,5.267,45.7,0z"/>
	<g>
		<path style="fill-rule:evenodd;clip-rule:evenodd;fill:#657373;" d="M96.55,46.75l-2.3,2.35c-2.6,1.066-5.3,1.6-8.1,1.6
			c-3.667,0-7.184-0.833-10.551-2.5c-1.6-0.767-3.1-1.7-4.5-2.8c-3.433,1.867-6.733,4.95-9.899,9.25c-3.5,4.833-5.2,9.267-5.1,13.3
			c0.066,3.967,2.117,6.916,6.15,8.85l0.2,0.101l0.05,0.149c0.2,0.5,0.2,0.867,0,1.101c-0.133,0.166-0.317,0.25-0.55,0.25
			l-0.3-0.051c-0.167-0.066-0.316-0.066-0.45,0l-0.55-0.85c0.167-0.1,0.317-0.15,0.45-0.15c-3.9-2.1-5.9-5.233-6-9.399
			c-0.033-1.9,0.333-3.9,1.1-6L55.75,62c-0.367-2.433-1.883-4.383-4.55-5.85c-1.6-0.867-3.483-1.517-5.65-1.95l0.55-0.9
			c2.167,0.434,4.017,1.083,5.55,1.95c2.6,1.467,4.233,3.367,4.9,5.7c1.333-3.3,3.383-6.534,6.15-9.7
			c2.566-2.933,5.083-5.1,7.55-6.5c-2.333-2-4.134-4.283-5.4-6.85c-1.3-2.633-1.983-5.367-2.05-8.2
			c-0.966,0.233-2.017,0.35-3.15,0.35h-0.6c-2.833-0.133-5.683-1.133-8.55-3l-0.1-1.25c2.9,2.034,5.8,3.117,8.7,3.25
			c5.167,0.2,10.35-2.633,15.55-8.5l0.8,0.6c-3.867,4.367-7.767,7.133-11.7,8.3c0.067,3.7,1.184,7.15,3.35,10.35
			c2.2,3.167,5.167,5.667,8.9,7.5c3.5,1.7,7.083,2.5,10.75,2.4C90.35,49.6,93.616,48.617,96.55,46.75z"/>
		<path style="fill-rule:evenodd;clip-rule:evenodd;fill:#657373;" d="M10.85,97l0.85-0.85c5.566,1,9.5,2.983,11.8,5.949
			c1.1-2.5,2.417-4.6,3.95-6.3c1.667-1.8,3.433-2.967,5.3-3.5c-2.567-1.6-4.083-3.783-4.55-6.55c-0.8,0.134-1.383,0.2-1.75,0.2
			c-1.534,0-3.034-0.434-4.5-1.3l0.7-0.75c2.167,1.133,4.333,1.316,6.5,0.55c4.3-1.434,8.45-5.884,12.45-13.351
			c3.467-6.433,5.417-11.85,5.85-16.25l0.95,0.1c-0.433,4.633-2.417,10.216-5.95,16.75c-4.133,7.6-8.467,12.166-13,13.7l-0.3,0.1
			c0.567,3.167,2.583,5.467,6.05,6.9c2.933,1.233,6.383,1.683,10.35,1.35l0.1,1l-2.3,0.1c-3.833,0-7.067-0.683-9.7-2.05l0.05,0.3
			c-3.4,0.634-6.3,3.351-8.7,8.15c-2.267,4.533-3.283,9.134-3.05,13.8l0.2,4.851l-0.65,0.949c-0.033-0.533-0.217-2.449-0.55-5.75
			c-0.367-3.699,0.417-7.883,2.35-12.55l-0.45,0.351C20.65,99.967,16.65,98,10.85,97z"/>
	</g>
	
		<linearGradient id="SVGID_2_" gradientUnits="userSpaceOnUse" x1="-80.6021" y1="-111.1611" x2="35.753" y2="-111.1611" gradientTransform="matrix(-0.838 0.5457 -0.5457 -0.838 -4.323721e-004 3.138781e-004)">
		<stop  offset="0" style="stop-color:#707E7C"/>
		<stop  offset="1" style="stop-color:#BDC4C2"/>
	</linearGradient>
	<path style="fill-rule:evenodd;clip-rule:evenodd;fill:url(#SVGID_2_);" d="M81.2,71.85l-1,4.5c-2.267,1.167-4.617,2.4-7.05,3.7
		c-4.834,2.601-7.567,4.283-8.2,5.05c-3.733,4.367-8.317,13.25-13.75,26.65c-2.7,6.7-5.034,12.95-7,18.75L15.7,129l34.25-48.4
		l13-6.75l2-5.25L78.2,55.1l6.25-0.75L102.7,40.5l27,1.5l-27.5,16.35l-5.25,0.5L81.2,71.85z"/>
	<g>
		<path style="fill-rule:evenodd;clip-rule:evenodd;fill:#869192;" d="M105.25,48.6c4.833-1.633,9.467-1.75,13.9-0.35l-1.15,0.7
			c-4.1-1.133-8.366-0.9-12.8,0.7c-3.3,1.167-7.517,3.467-12.65,6.9c1.066,1.233,2.283,2.184,3.65,2.85l-0.8,0.7
			c-2.934-1.633-5.284-4.533-7.051-8.7l0.801-0.6c0.833,1.967,1.767,3.617,2.8,4.95C97.316,52.15,101.75,49.767,105.25,48.6z"/>
		<path style="fill-rule:evenodd;clip-rule:evenodd;fill:#869192;" d="M60.1,76.7l-1.15-0.8l0.95-0.551
			c0.867,0.7,1.783,1.2,2.75,1.5c3.3,1.067,5.484,1.801,6.55,2.2c4.8-4.166,8.033-7.7,9.7-10.6c2.199-3.967,2.716-8.317,1.55-13.05
			l0.95-0.25c1.267,5.133,0.616,9.883-1.95,14.25c-1.667,2.899-4.733,6.267-9.2,10.1l2.15,0.95l-1.101,0.6L69.4,80.2l-0.5,0.45
			l-0.65-0.75l0.1-0.101c-0.366-0.133-2.383-0.8-6.05-2C61.733,77.6,61,77.233,60.1,76.7z"/>
		<path style="fill-rule:evenodd;clip-rule:evenodd;fill:#869192;" d="M40.1,94.65L40,94.6l0.65-0.85c2.7,0.833,5.2,2.35,7.5,4.55
			c2.167,2.066,4,4.584,5.5,7.55l-0.55,1.25l-0.05-0.199c-1.667-3.467-3.933-6.301-6.8-8.5c-2.633,3.066-4.6,6.616-5.9,10.649
			c-1.434,4.434-1.65,8.417-0.65,11.95c3.2-0.366,6.15-1.2,8.85-2.5L48,119.9c-3.533,1.533-7.7,2.3-12.5,2.3
			c-3.7,0-8.383-0.45-14.05-1.351l0.65-0.899c7.233,1.066,12.767,1.45,16.6,1.149c-1-3.666-0.767-7.783,0.7-12.35
			c1.333-4.134,3.35-7.783,6.05-10.95c-1.133-0.833-2-1.434-2.6-1.8C41.883,95.366,40.967,94.917,40.1,94.65z"/>
	</g>
	<polygon style="fill-rule:evenodd;clip-rule:evenodd;fill:#B1B8B7;" points="102.7,40.5 45.7,0 92.45,17.15 129.7,42 	"/>
	<path style="fill-rule:evenodd;clip-rule:evenodd;fill:#586A69;" d="M89.7,38.35c-0.634-2.4-7.9-9.117-21.8-20.15
		c-5.226-4.15-10.4-8.175-15.525-12.075L100.45,40.6l-16,12.25L77.7,53.1l-14.5,15l-2,5.25l-12,5.25L38.45,93.85l10.25-18
		c4.5-1.166,7.5-2.333,9-3.5c0.933-0.733,1.883-2.116,2.85-4.149l1.15-2.85L77.95,50.1h2.95c2.166-0.167,3.767-0.667,4.8-1.5
		c1.733-1.4,2.899-2.633,3.5-3.7C90.2,43.067,90.366,40.883,89.7,38.35z"/>
	<path style="fill-rule:evenodd;clip-rule:evenodd;fill:#586A69;" d="M6.45,104.1c-1.333,2.767-0.967,6.034,1.1,9.801
		c1.967,3.6,4.267,5.666,6.9,6.199C16.017,120.4,20.2,116.7,27,109l9.7-11.65L15.45,127.1l-14.5-18.75L6.45,104.1z"/>
	<path style="fill-rule:evenodd;clip-rule:evenodd;fill:#586A69;" d="M102.45,41.6l24.75,1.5l-24.5,14.25l-5.5,0.75L80.95,70.85
		l15-16l6.5,0.25l8.2-4.1c5.5-2.933,8.35-4.817,8.55-5.65c0.2-0.833-2.533-1.7-8.2-2.6L102.45,41.6z"/>
	<path style="fill-rule:evenodd;clip-rule:evenodd;fill:#778583;" d="M78.95,76.35c-2.167,0.7-4.467,1.601-6.9,2.7
		c-4.866,2.167-7.983,4.184-9.35,6.05c-1.367,1.867-5.017,9.801-10.95,23.801c-3,7-5.85,13.816-8.55,20.449l-26-1l5.75-8.25
		l-0.3,2.801c0.067,1.933,0.667,3.166,1.8,3.699c1.667,0.767,4.633,1.134,8.9,1.101c4.667-0.033,7.617-0.733,8.85-2.101
		c0.867-0.933,3.933-7.85,9.2-20.75c5.3-12.933,8.567-20.1,9.8-21.5c1.466-1.666,4.866-3.333,10.2-5
		C74.066,77.517,76.583,76.85,78.95,76.35z"/>
</g>
</svg>
