<?xml version="1.0" encoding="iso-8859-1"?>
<!-- Generator: Adobe Illustrator 15.1.0, SVG Export Plug-In . SVG Version: 6.00 Build 0)  -->
<!DOCTYPE svg PUBLIC "-//W3C//DTD SVG 1.1//EN" "http://www.w3.org/Graphics/SVG/1.1/DTD/svg11.dtd">
<svg version="1.1" id="buildings" xmlns="http://www.w3.org/2000/svg" xmlns:xlink="http://www.w3.org/1999/xlink" x="0px" y="0px"
	 width="95.8px" height="26.45px" viewBox="0 0 95.8 26.45" style="enable-background:new 0 0 95.8 26.45;" xml:space="preserve">
<g>
	<path style="fill-rule:evenodd;clip-rule:evenodd;fill:#859F8C;" d="M89.3,3.85C86.1,5.85,81.9,8,76.7,10.3
		c-10.4,4.601-20.533,7.667-30.4,9.2c-9.867,1.533-20.45,2.116-31.75,1.75C8.883,21.083,4.2,20.767,0.5,20.3l3.65-1.8
		c4.467-0.167,9.417-0.4,14.85-0.7c10.9-0.6,18.833-1.25,23.8-1.95c6.267-0.899,16.867-3.816,31.8-8.75
		C82.066,4.633,88.917,2.267,95.15,0L89.3,3.85z"/>
	<path style="fill-rule:evenodd;clip-rule:evenodd;fill:#768D7C;" d="M91,15.3c-4.733,2.101-10.467,4.117-17.2,6.05
		C60.4,25.283,48.8,26.934,39,26.3L0,23.8l0.5-3.5c2.833,0.167,6.567,0.25,11.2,0.25c9.233,0,18.333-0.416,27.3-1.25
		c8.967-0.833,20.066-3.75,33.3-8.75c6.634-2.5,12.367-4.917,17.2-7.25L91,15.3z"/>
	<polygon style="fill-rule:evenodd;clip-rule:evenodd;fill:#4F726D;" points="89.5,3.3 95.15,0 95.8,10.65 91,15.3 	"/>
</g>
</svg>
