<?xml version="1.0" encoding="iso-8859-1"?>
<!-- Generator: Adobe Illustrator 15.1.0, SVG Export Plug-In . SVG Version: 6.00 Build 0)  -->
<!DOCTYPE svg PUBLIC "-//W3C//DTD SVG 1.1//EN" "http://www.w3.org/Graphics/SVG/1.1/DTD/svg11.dtd">
<svg version="1.1" id="buildings-back" xmlns="http://www.w3.org/2000/svg" xmlns:xlink="http://www.w3.org/1999/xlink" x="0px"
	 y="0px" width="22.1px" height="65.15px" viewBox="0 0 22.1 65.15" style="enable-background:new 0 0 22.1 65.15;"
	 xml:space="preserve">
<path style="fill-rule:evenodd;clip-rule:evenodd;fill:#81836F;" d="M22.1,21.65c0,8.633-0.033,13.466-0.1,14.5
	c-0.434,7.833-1.634,12-3.6,12.5c-3.167,0.833-5.034,1.116-5.601,0.85l0.8,4.55c0.601,3.267,1.167,5.45,1.7,6.55
	c0.8,1.801,1.55,3.117,2.25,3.95c-1.1-0.833-2.267-1.184-3.5-1.05c-0.767,0.1-1.366,0.4-1.8,0.9c-0.233,0.267-0.384,0.517-0.45,0.75
	c-0.133-0.267-0.35-0.534-0.649-0.801c-0.601-0.5-1.284-0.716-2.05-0.649c-1.233,0.133-2.333,0.483-3.3,1.05
	c1.5-4.533,2.4-8.316,2.7-11.35c0.167-1.9,0.183-5.184,0.05-9.851L8.3,37.1c-0.833,0.167-1.767,0.184-2.8,0.051
	c-2.067-0.267-3.617-1.167-4.65-2.7c-1.033-1.534-1.133-5.367-0.3-11.5c0.434-3.034,0.95-5.934,1.55-8.7
	c0.433-0.267,0.9-0.467,1.4-0.6c1-0.233,1.633,0.033,1.9,0.8c0.167,0.5,0.05,3-0.35,7.5C4.617,26.35,4.6,29,5,29.9
	c0.433,1.033,1.033,1.684,1.8,1.95c0.4,0.133,0.75,0.167,1.05,0.1l0.2-31.3L10.55,0c1.7-0.133,2.601,0.617,2.7,2.25
	S13.134,11.5,12.6,25.1c-0.267,6.767-0.533,13.383-0.8,19.85l1.9,0.7c1.399,0.3,2.483,0.066,3.25-0.7s1.3-5.05,1.6-12.85
	c0.167-3.9,0.25-7.717,0.25-11.45l1.65-0.95C21.55,19.367,22.1,20.017,22.1,21.65z"/>
</svg>
