<?xml version="1.0" encoding="iso-8859-1"?>
<!-- Generator: Adobe Illustrator 15.1.0, SVG Export Plug-In . SVG Version: 6.00 Build 0)  -->
<!DOCTYPE svg PUBLIC "-//W3C//DTD SVG 1.1//EN" "http://www.w3.org/Graphics/SVG/1.1/DTD/svg11.dtd">
<svg version="1.1" id="buildings-back" xmlns="http://www.w3.org/2000/svg" xmlns:xlink="http://www.w3.org/1999/xlink" x="0px"
	 y="0px" width="132px" height="131.5px" viewBox="0 0 132 131.5" style="enable-background:new 0 0 132 131.5;"
	 xml:space="preserve">
<g>
	<path style="fill-rule:evenodd;clip-rule:evenodd;fill:#544F44;" d="M81,30.5L77.5,46l7.95,12.65C91.184,67.15,95.2,71.6,97.5,72
		c2.3,0.434,5.566-1.35,9.8-5.35c2.134-2,4.033-4.05,5.7-6.15l19,0.5l-16.5,2l-7.5,6l7.5,4.5c-1.667-0.4-3.417-0.767-5.25-1.1
		c-3.667-0.667-5.917-0.801-6.75-0.4c-1.733,0.866-3.184,2.017-4.35,3.45C97.283,77.684,96.566,80.2,97,83
		c0.434,2.7,2.066,6.1,4.9,10.2c1.399,2.033,2.767,3.8,4.1,5.3l1,12.5l2.15,4.25c2,3.167,4.449,5.583,7.35,7.25
		c2.934,1.667,5.9,3,8.9,4c1.5,0.5,2.699,0.833,3.6,1c-2.333-0.233-4.917-0.417-7.75-0.55c-5.667-0.267-9.75-0.084-12.25,0.55
		s-4.667,1.483-6.5,2.55c-0.9,0.566-1.566,1.05-2,1.45c0.434-0.9,0.583-1.8,0.45-2.7c-0.267-1.733-1.75-2.5-4.45-2.3
		s-7.1,1.1-13.2,2.7l-8.3,2.3c1.767-0.9,3.65-2,5.65-3.3c4-2.601,6.616-4.834,7.85-6.7c1.267-1.866,1.316-5.6,0.15-11.2l-2.15-7.8
		c1.267-0.4,2.566-1.05,3.9-1.95c2.666-1.733,4.199-3.75,4.6-6.05c0.434-2.3-1.1-6.066-4.6-11.3L85,76l-16-3L54.5,60L26,70.5
		l-13.5-24H0l14.5-2l7,13l2-7.5v10l2.5,5.5l26.5-10l-2-8l4.5,6.15c3.333,4.333,5.833,7.117,7.5,8.35c2.667,2,6.5,4,11.5,6l16.5,4
		L75,53.5V42l-8-10.5l7.5,7.5L83,18.5L77.5,0L111,2.5l-14.5,2L102,12L90.5,4H81l6.5,14.5L81,28l12,8L81,30.5z"/>
	<path style="fill-rule:evenodd;clip-rule:evenodd;fill:#403C35;" d="M97,102.5c0.967-0.233,1.934,0.483,2.9,2.15
		c0.899,1.6,1.533,3.533,1.899,5.8c0.934,5.8-0.333,8.816-3.8,9.05c-3.533,0.233-5.25-2.384-5.15-7.85
		c0.034-2.167,0.434-4.134,1.2-5.9C94.85,103.884,95.833,102.8,97,102.5z"/>
</g>
</svg>
