<?xml version="1.0" encoding="iso-8859-1"?>
<!-- Generator: Adobe Illustrator 15.1.0, SVG Export Plug-In . SVG Version: 6.00 Build 0)  -->
<!DOCTYPE svg PUBLIC "-//W3C//DTD SVG 1.1//EN" "http://www.w3.org/Graphics/SVG/1.1/DTD/svg11.dtd">
<svg version="1.1" id="Isolation_Mode" xmlns="http://www.w3.org/2000/svg" xmlns:xlink="http://www.w3.org/1999/xlink" x="0px"
	 y="0px" width="426.45px" height="417.75px" viewBox="0 0 426.45 417.75" style="enable-background:new 0 0 426.45 417.75;"
	 xml:space="preserve">
<g>
	
		<linearGradient id="SVGID_1_" gradientUnits="userSpaceOnUse" x1="-55.5024" y1="302.1113" x2="-11.8991" y2="302.1113" gradientTransform="matrix(0.6536 -0.7568 0.7568 0.6536 4.554987e-004 1.015663e-004)">
		<stop  offset="0" style="stop-color:#5F7574"/>
		<stop  offset="1" style="stop-color:#A1AAA9"/>
	</linearGradient>
	<path style="fill-rule:evenodd;clip-rule:evenodd;fill:url(#SVGID_1_);" d="M414.95,352c-3.334,8-5.834,15.333-7.5,22
		c-1.601,6.4,0.133,15.85,5.2,28.35c0.733,1.834,2.366,5.584,4.899,11.25c1.3,2.834,1.667,4.084,1.101,3.75
		c-16.4-10.333-45.634-31.6-87.7-63.8c-48.101-36.767-87.267-68.616-117.5-95.55c-33.733-30-79.184-74.333-136.35-133
		C48.5,95.667,23.283,69.333,1.45,46c-3.333-11.667-1-22.833,7-33.5c4-5.333,8.333-9.5,13-12.5c25.667,27,53.417,56,83.25,87
		c59.667,62,99.917,103,120.75,123c20.833,20,59.416,48,115.75,84c28.166,18,54.25,34,78.25,48L414.95,352z"/>
	<g>
		<path style="fill-rule:evenodd;clip-rule:evenodd;fill:#647978;" d="M336.65,334.65c24.933,17.399,48.483,32.883,70.649,46.449
			c0.533,3.601,2.851,11.084,6.95,22.45c3.434,9.5,4.767,14,4,13.5c-16.733-10.6-46.017-31.916-87.85-63.95
			c-47.834-36.6-86.817-68.3-116.95-95.1c-33.733-30-79.184-74.333-136.35-133C48.5,95.667,23.283,69.333,1.45,46
			c-2.4-8.3-1.85-16.45,1.65-24.45c29.367,32.233,59.833,64.8,91.4,97.7c53.8,56.133,97.217,98.833,130.25,128.1
			C257.25,276.116,294.55,305.217,336.65,334.65z"/>
	</g>
	<g>
		<path style="fill-rule:evenodd;clip-rule:evenodd;fill:#657373;" d="M179.2,193.8c-0.767,0-1.35-0.033-1.75-0.1
			c-1.934,3.133-3.95,5.667-6.05,7.6c2.9,2.3,5.7,5.733,8.4,10.3c2.934,5,4.717,9.767,5.35,14.301c5.333,0.333,9.667,0.149,13-0.551
			c4.434-0.899,7.967-2.783,10.6-5.649c-1.833,0.733-3.517,1.1-5.05,1.1l-1.15-0.1c-4.333-0.467-7.283-2.3-8.85-5.5
			c-0.967-1.9-1.617-5.25-1.95-10.05c-0.267-3.667-0.633-6.3-1.1-7.9c-0.767-2.6-2.133-4.517-4.1-5.75
			c-1.867,1.433-4.15,2.2-6.85,2.3H179.2z M375.55,341.15c-0.166-3.233-2.366-6.834-6.6-10.801c-3.467-3.233-7.017-5.733-10.65-7.5
			c-0.833,0.733-1.649,1.334-2.45,1.801c-2.899,1.8-6.116,2.699-9.649,2.699c-1.733,0-3.617-0.233-5.65-0.699
			c-1.566-0.4-3.083-0.95-4.55-1.65c1.5,3.167,0.833,7.533-2,13.1c1.9,3.667,4.866,6.534,8.9,8.601
			c4.033,2.033,8.899,3.133,14.6,3.3c4.5,0.1,9.017-0.366,13.55-1.4l-0.2-0.35C374.083,346.35,375.65,343.983,375.55,341.15z
			 M329.7,286.7l0.05-0.05l2.2,1.449c1.666,3.167,1.35,6.967-0.95,11.4c-1.4,2.7-3.366,5.366-5.9,8l-0.5,0.5l0.301-0.05
			c0.733,4.467,2.517,8.283,5.35,11.45c2.866,3.166,6.384,5.25,10.55,6.25c5.533,1.366,10.384,0.75,14.55-1.851
			c4.434-2.7,7.867-7.483,10.301-14.35l0.899,0.55c-1.899,5.167-4.383,9.217-7.45,12.15c3.767,1.866,7.384,4.449,10.851,7.75
			c4.233,4.1,6.434,7.833,6.6,11.199c0.101,2.767-1.149,5.117-3.75,7.051c5.101-1.334,9.617-3.25,13.55-5.75
			c4.034-2.567,6.95-5.434,8.75-8.601c0.934-1.7,1.534-3.434,1.801-5.2l0.899,0.551c-0.3,1.767-0.916,3.483-1.85,5.149
			c-1.934,3.4-5.117,6.467-9.55,9.2c-4.334,2.667-9.267,4.667-14.801,6l0.25,0.15c-1.933,2.633-1.366,5.916,1.7,9.85
			c1.667,2.167,4.434,4.8,8.3,7.9l0.051,0.05c1.199,0.967,2.483,1.916,3.85,2.85c1.033-3.866,2.717-7.283,5.05-10.25
			c2.367-3,5.15-5.25,8.351-6.75c2.3-1.033,4.866-1.633,7.699-1.8c1.733-0.1,4.233-0.017,7.5,0.25l0.7,0.05l-0.45,0.95h-0.3
			c-3.333-0.267-5.8-0.35-7.399-0.25c-2.667,0.134-5.101,0.717-7.301,1.75c-3.133,1.434-5.833,3.616-8.1,6.55
			s-3.884,6.283-4.85,10.05c7,4.5,13.816,6.233,20.449,5.2l-0.1,1c-1.233,0.2-2.483,0.3-3.75,0.3c-7.1,0-14.417-3.05-21.95-9.149
			l-0.1-0.05l-2.101-1.75c-2.333,1.933-4.25,4.416-5.75,7.449c-1.466,3-2.366,6.184-2.699,9.551l-0.9-0.65
			c0.333-3.267,1.233-6.384,2.7-9.35h-0.2c-0.2-2.134-1.816-3.75-4.85-4.851c-2.167-0.767-4.867-1.233-8.101-1.399
			c-3.066-0.134-6.366,0-9.899,0.399l-1.101-0.8c3.767-0.5,7.334-0.7,10.7-0.6c3.5,0.133,6.4,0.616,8.7,1.449
			c2.967,1.101,4.75,2.65,5.35,4.65c1.5-2.667,3.25-4.833,5.25-6.5c-7.6-6.533-10.166-11.884-7.7-16.05
			c-3.866,0.866-7.767,1.3-11.699,1.3h-1.45c-5.7-0.167-10.617-1.267-14.75-3.3c-4.101-2.033-7.184-4.884-9.25-8.55
			c-1.934,3.666-4.45,7.183-7.55,10.55l-0.75-0.601c3.966-4.233,6.916-8.699,8.85-13.399c2.1-5,2.333-8.684,0.7-11.05l0.3-0.2
			c-2.866-1.634-5.25-3.816-7.15-6.55c-1.899-2.733-3.166-5.834-3.8-9.301c-5.233,4.934-11.066,7.4-17.5,7.4
			c-3.7,0-7.633-0.8-11.8-2.4c0.366,4.134,0.3,8.034-0.2,11.7l-0.899-0.7c0.433-3.466,0.433-7.267,0-11.399l-0.101-0.05l0.101-0.15
			c-0.7-6-2.15-11.25-4.351-15.75c-2.399-4.866-5.25-7.866-8.55-9c-3,5.366-7.434,10.483-13.3,15.35l-0.851-0.649
			c3.101-2.566,5.9-5.316,8.4-8.25c2.533-3.033,4.467-5.917,5.8-8.65c1.967-3.934,2.267-6.85,0.9-8.75l0.25-0.149
			c-4.233-1.233-7.566-4.517-10-9.851c-2.7,2.2-5.717,3.9-9.05,5.101c-3.467,1.233-6.884,1.85-10.25,1.85
			c-6.634,0-11.75-2.233-15.351-6.7c-0.366,2.267-0.866,4.483-1.5,6.65l-0.8,2.5l-0.85-0.7l0.699-2.1
			c0.733-2.601,1.25-5.101,1.551-7.5l-0.051-0.101l0.101-0.05c0.5-4.167,0.316-7.7-0.55-10.6c-0.967-3.267-2.7-5.417-5.2-6.45
			c-0.8,0.934-1.75,1.85-2.851,2.75c-3.8,3.033-8.566,5.1-14.3,6.2l-0.1-0.15l-0.85-0.7c6-1.066,10.867-3.1,14.6-6.1
			c4.934-3.967,7.6-9.334,8-16.101l-1.25,0.051c-3.8,0-7.934-1.684-12.4-5.051c-3.967-2.966-7.55-6.733-10.75-11.3
			c-2.267,3.101-5.283,5.3-9.05,6.601c-3.1,1.1-6.917,1.649-11.45,1.649c-1.667,0-3.333-0.05-5-0.149
			c0.167,1.699,0.15,3.267-0.05,4.699l-0.1,0.5l-0.9-0.85c0.667-4.733-0.617-10.25-3.85-16.55c-2.867-5.667-6.066-9.867-9.6-12.6
			l0.5-0.65c-3.767,3.5-7.85,5.383-12.25,5.65l-1-0.95c6.867,0.067,12.983-4.133,18.35-12.6c-1.9-0.333-3.733-0.95-5.5-1.85
			c-1.8-0.934-3.35-2.067-4.65-3.4c-0.9-0.933-1.633-1.883-2.2-2.85l-0.15,0.35c-4.167-1.733-8.45-1.5-12.85,0.7
			c-2.767,1.4-5.167,3.333-7.2,5.8l-0.7-0.7c2.2-2.6,4.684-4.6,7.45-6c4.433-2.2,8.75-2.517,12.95-0.95
			c-2.767-5.233-1.917-12.05,2.55-20.45c-3.833-0.133-7.917-1.55-12.25-4.25c-4.333-2.7-7.117-5.55-8.35-8.55
			c-2.4,2.667-5.45,5.25-9.15,7.75c0.667,1.3,1.183,2.4,1.55,3.3c1.5,3.8,2.1,7.6,1.8,11.4c-0.267,3.8-1.417,7.45-3.45,10.95
			l-0.75-0.75c3.9-6.833,4.383-13.917,1.45-21.25c-0.367-1-0.85-2.033-1.45-3.1l-0.15,0.1l-0.5-0.85l0.15-0.15
			c-2.5-4.3-5.967-7.867-10.4-10.7c-4.434-2.833-9.233-4.55-14.4-5.15c0.066,1.066,0.066,2.15,0,3.25
			c-0.167,3.7-0.817,7.233-1.95,10.6l-0.8-0.8c1-3.167,1.583-6.45,1.75-9.85c0.167-3.6-0.2-6.683-1.1-9.25
			c-0.9-2.566-2.217-4.383-3.95-5.45c-1.467,1.267-3.05,2.316-4.75,3.15c-3,1.633-6.3,2.683-9.9,3.15l-0.9-0.9
			c3.6-0.333,7.05-1.367,10.35-3.1c2.1-1.167,3.75-2.3,4.95-3.4l0.05-0.1H104c2.9-2.6,4.433-5.417,4.6-8.45l-0.3-0.1
			c-2.833-1.3-5.033-3.133-6.6-5.5c-0.9-1.4-1.917-3.75-3.05-7.05c-0.967-3-1.917-5.316-2.85-6.95c-3.333,1.1-6.816,1.65-10.45,1.65
			c-4.467,0-8.083-0.817-10.85-2.45l-0.05,1.85c-0.267,4.633-1.867,9.367-4.8,14.2l-0.7-0.75c2.7-4.5,4.2-9,4.5-13.5
			c0.066-0.833,0.066-1.65,0-2.45c-0.267-4.9-2.3-8.95-6.1-12.15c-3.467,4.333-8.3,8.133-14.5,11.4l-0.75-0.75
			c3.667-1.933,6.9-4.083,9.7-6.45c3.133-2.633,5.467-5.35,7-8.15c2.567-4.633,2.733-9.017,0.5-13.15c-0.867,0.133-1.533,0.2-2,0.2
			c-0.2,0.033-0.517,0.05-0.95,0.05c-3.6,0-7.4-1.167-11.4-3.5c-3.967-2.3-8.317-5.867-13.05-10.7
			c0.367,5.434,0.15,9.784-0.65,13.05c-1.033,4.267-3.233,7.767-6.6,10.5l-0.7-0.75c2.267-1.8,3.966-3.934,5.1-6.4
			c1.034-2.2,1.667-4.8,1.9-7.8c-2.7-0.2-5.55-0.167-8.55,0.1c-3.833,0.3-7.183,0.933-10.05,1.9l-0.8-0.8
			c2.867-1.067,6.233-1.767,10.1-2.1c3.2-0.3,6.333-0.333,9.4-0.1c0.133-3.066-0.1-7.583-0.7-13.55c-0.4-4.233-0.65-7.6-0.75-10.1
			c-3.267-0.8-6.033-1.883-8.3-3.25c-3.966-2.4-6.1-5.4-6.4-9c-3.267,4.633-7.183,7.15-11.75,7.55c0.2,5.5-1.017,11.434-3.65,17.8
			l-0.75-0.8c3.4-8.367,4.3-15.883,2.7-22.55c-1.133-4.667-3.583-8.6-7.35-11.8l0.5-0.9c4,3.367,6.6,7.517,7.8,12.45
			c0.4,1.6,0.65,3.2,0.75,4.8c4.667-0.466,8.583-3.216,11.75-8.25l0.05-0.6L25.2,27c1.5-2.5,2.733-5.417,3.7-8.75
			c0.833-2.9,1.367-5.8,1.6-8.7l0.9,0.95c-0.3,2.9-0.883,5.783-1.75,8.65c-1,3.267-2.267,6.133-3.8,8.6
			c-0.2,3.933,1.783,7.15,5.95,9.65c3.6,2.167,8.267,3.533,14,4.1c5.367,0.533,10.184,0.283,14.45-0.75l0.8,0.85
			c-3.1,0.8-6.5,1.2-10.2,1.2c-3.567,0-6.983-0.367-10.25-1.1c0.1,2.433,0.35,5.7,0.75,9.8l0.4,4.5h0.05
			c5,5.233,9.567,9.05,13.7,11.45c4.167,2.4,8.083,3.483,11.75,3.25c4.967-0.233,9.683-2.867,14.15-7.9l0.7,0.75
			c-3.733,4.2-7.667,6.767-11.8,7.7c2.267,4.367,2.067,9-0.6,13.9c-0.5,0.867-1.083,1.75-1.75,2.65c3.9,3.3,6.05,7.434,6.45,12.4
			c3.2,2.133,7.6,3,13.2,2.6c5.633-0.4,10.367-1.917,14.2-4.55c3.4-2.333,5.25-5.15,5.55-8.45l0.85,0.9
			c-0.5,3.267-2.434,6.05-5.8,8.35c-1.566,1.1-3.45,2.05-5.65,2.85c0.933,1.667,1.883,3.967,2.85,6.9
			c1.066,3.2,2.033,5.483,2.9,6.85c1.467,2.2,3.533,3.917,6.2,5.15c2.6,1.2,6.183,2,10.75,2.4c5.367,0.5,9.683,0.1,12.95-1.2
			c1.533-0.633,2.733-1.467,3.6-2.5l0.7,0.7c-1.034,1.2-2.35,2.1-3.95,2.7c-2.433,1-5.55,1.5-9.35,1.5
			c-2.467,0-4.983-0.217-7.55-0.65c-2.434-0.4-4.533-0.917-6.3-1.55c-0.2,3.033-1.75,5.9-4.65,8.6c3,1.967,4.733,5.684,5.2,11.15
			c5.333,0.566,10.316,2.333,14.95,5.3c4.567,2.9,8.167,6.567,10.8,11c4.433-2.933,7.933-6.05,10.5-9.35c3.8-4.933,5.133-9.8,4-14.6
			l1.25,1.3c0.7,4.933-1.083,9.933-5.35,15c1,3.1,3.85,6.05,8.55,8.85c4.733,2.8,8.983,4.05,12.75,3.75
			c3.333-0.267,5.45-1.85,6.35-4.75l0.8,0.8c-1.2,3.067-3.567,4.717-7.1,4.95h-0.5l0.1,0.05c-2.333,4.367-3.7,8.167-4.1,11.4
			c-0.6,4.733,0.683,8.717,3.85,11.95c1.667,1.667,3.65,2.967,5.95,3.9c2.3,0.933,4.567,1.367,6.8,1.3c2.533-0.1,4.7-0.85,6.5-2.25
			l0.1-0.3l0.15,0.05l1.2-1.2c1.2-1.4,2.083-3.367,2.65-5.9c0.3-1.4,0.6-3.6,0.9-6.6l0.05-0.5l0.9,0.9
			c-0.233,2.867-0.55,5.1-0.95,6.7c-0.6,2.533-1.534,4.55-2.8,6.05c-0.1,0.133-0.45,0.5-1.05,1.1c2.033,1.367,3.467,3.433,4.3,6.2
			c0.467,1.667,0.833,4.35,1.1,8.05c0.333,4.6,0.933,7.784,1.8,9.55c1.434,2.933,4.133,4.616,8.1,5.05
			c2.367,0.3,4.883-0.316,7.55-1.851c0.667-1,1.15-1.8,1.45-2.399c1.534-3,2.333-6.134,2.4-9.4c0.066-3.3-0.6-6.333-2-9.1l1.9,1.85
			c0.934,2.733,1.283,5.583,1.05,8.55c-0.233,3-1.05,5.867-2.45,8.6c-0.4,0.733-0.767,1.333-1.1,1.8l0.25,0.35l-0.1,0.101
			c3.233,4.633,6.917,8.45,11.05,11.45c4.699,3.399,8.899,4.866,12.6,4.399c3.8-0.434,6.866-2.934,9.2-7.5l0.8,0.65
			c-2.3,4.434-5.3,7.017-9,7.75c-0.3,5.267-1.934,9.767-4.9,13.5c2.634,1.166,4.467,3.434,5.5,6.8c0.9,3,1.101,6.634,0.601,10.9
			c2.8,3.833,6.767,6.116,11.899,6.85c4.267,0.6,8.667,0.083,13.2-1.55c4.467-1.601,8.2-4,11.2-7.2c3.366-3.566,5.116-7.5,5.25-11.8
			l0.95,0.649c-0.334,5.101-2.733,9.601-7.2,13.5c1.566,3.567,3.5,6.184,5.8,7.851c2.267,1.633,5.017,2.383,8.25,2.25
			c2.566-0.101,5.367-0.867,8.4-2.3c3.166-1.5,5.7-3.351,7.6-5.551l0.8,0.551c-1.966,2.3-4.616,4.25-7.949,5.85
			c-3.167,1.5-6.101,2.316-8.801,2.45h-0.75c-1.199,0-2.283-0.117-3.25-0.351c1.167,2.167,0.784,5.217-1.149,9.15l-0.45,0.85
			c3.467,1.233,6.434,4.301,8.9,9.2c2.267,4.566,3.75,9.884,4.449,15.95c11.767,4.6,21.7,2.7,29.801-5.7
			c2.733-2.833,4.767-5.684,6.1-8.55C332.7,293.55,332.434,289.7,329.7,286.7z"/>
	</g>
	<g>
		<path style="fill-rule:evenodd;clip-rule:evenodd;fill:#586A69;" d="M1.45,46c-1.3-4.533-1.717-9.067-1.25-13.6
			c36.267,37.7,71.883,74.333,106.85,109.9c57.567,58.5,96.367,96.634,116.4,114.4c21.467,19.033,58.05,47.149,109.75,84.35
			c28.967,20.8,55.467,39.4,79.5,55.8c2.3,4.767,3.616,8.884,3.95,12.351c0.333,3.566,0.883,6.2,1.649,7.899
			c-16.733-10.6-46.017-31.916-87.85-63.949c-47.867-36.601-86.867-68.317-117-95.15c-33.733-30-79.184-74.333-136.35-133
			C48.5,95.667,23.283,69.333,1.45,46z"/>
	</g>
	<path style="fill-rule:evenodd;clip-rule:evenodd;fill:#949F9E;" d="M426.45,343.5l-3.2,6.45c-2.4,5.366-4.366,10.666-5.9,15.899
		c-4.866,16.7-4.333,29.584,1.601,38.65l0.3,0.5l0.15,12.75c-4.301-2.833-7.467-6.566-9.5-11.2c-1.067-2.467-2.217-6.649-3.45-12.55
		c-1.867-8.967-0.267-20.316,4.8-34.05c1.6-4.3,3.45-8.584,5.55-12.851l2.65-5.1L426.45,343.5z"/>
	<path style="fill-rule:evenodd;clip-rule:evenodd;fill:#B1B8B7;" d="M419.45,342c-19.9-11.167-41.75-23.917-65.55-38.25
		C306.3,275.083,272.816,252.833,253.45,237C234.083,221.167,189.6,176.917,120,104.25C85.233,67.917,52.383,33.167,21.45,0l4.3,1
		C108.317,87.667,163.1,144.667,190.1,172c21.2,21.433,38.75,38.217,52.65,50.35c15.566,13.601,33.233,27.267,53,41
		c17.1,11.867,44.017,28.784,80.75,50.75c18.366,11,35.017,20.801,49.95,29.4L419.45,342z"/>
</g>
</svg>
