<?xml version="1.0" encoding="iso-8859-1"?>
<!-- Generator: Adobe Illustrator 15.1.0, SVG Export Plug-In . SVG Version: 6.00 Build 0)  -->
<!DOCTYPE svg PUBLIC "-//W3C//DTD SVG 1.1//EN" "http://www.w3.org/Graphics/SVG/1.1/DTD/svg11.dtd">
<svg version="1.1" id="buildings" xmlns="http://www.w3.org/2000/svg" xmlns:xlink="http://www.w3.org/1999/xlink" x="0px" y="0px"
	 width="102.9px" height="140.65px" viewBox="0 0 102.9 140.65" style="enable-background:new 0 0 102.9 140.65;"
	 xml:space="preserve">
<g>
	
		<linearGradient id="SVGID_1_" gradientUnits="userSpaceOnUse" x1="-20.0698" y1="86.2881" x2="46.379" y2="86.2881" gradientTransform="matrix(0.8096 -0.5869 0.5869 0.8096 2.297759e-004 2.039075e-004)">
		<stop  offset="0" style="stop-color:#E35A69"/>
		<stop  offset="1" style="stop-color:#EA878B"/>
	</linearGradient>
	<polygon style="fill-rule:evenodd;clip-rule:evenodd;fill:url(#SVGID_1_);" points="102.9,91.2 98.65,119.5 76.1,120.65 
		60.55,139.8 44.3,129.6 46.9,109.65 39.05,90.15 1.15,48.25 22.4,5.9 22.2,38.8 45.3,86.9 53.35,73.5 64.15,77.15 42.4,36 63.75,0 
		62.3,32.25 71.4,73.55 85.5,89.85 	"/>
	<polygon style="fill-rule:evenodd;clip-rule:evenodd;fill:#893342;" points="22.4,5.9 10.6,43.9 42.6,89.25 52.25,108.85 
		56.45,122.9 64.2,127.95 74.6,118.35 98.65,119.5 76.55,121.9 61.2,140.65 43.25,130.65 46.9,109.65 39.05,90.15 0,49 	"/>
	<polygon style="fill-rule:evenodd;clip-rule:evenodd;fill:#652A33;" points="37.5,85.75 49.75,109.7 49.75,128.05 63.1,132.95 
		76.1,120.65 98.65,119.5 76.55,121.9 61.2,140.65 43.25,130.65 45.85,110.7 34.55,86.4 0,49 9,51.55 	"/>
	<polygon style="fill-rule:evenodd;clip-rule:evenodd;fill:#BC4D5A;" points="62.2,9.7 59.25,32.6 69.9,73.4 65.1,68.7 65.75,63.55 
		62,57.8 62.9,53.25 59.6,44.85 59.4,38.2 56.1,33.7 	"/>
	<polygon style="fill-rule:evenodd;clip-rule:evenodd;fill:#BC4D5A;" points="21.9,16.65 20,39.6 44.45,85.4 35.65,73.3 34.1,67.85 
		26.05,59 26.2,53.3 18.3,45.8 18.65,40.75 18,29.7 20.25,27.15 20.05,19.45 	"/>
	<polygon style="fill-rule:evenodd;clip-rule:evenodd;fill:#893342;" points="63.75,0 49.9,35.15 66.15,77.85 64.15,77.15 42.4,36 	
		"/>
	<polygon style="fill-rule:evenodd;clip-rule:evenodd;fill:#652A33;" points="47.4,37.1 66.15,77.85 64.15,77.15 42.4,36 	"/>
	<polygon style="fill-rule:evenodd;clip-rule:evenodd;fill:#893342;" points="53.35,73.5 55.85,79.7 54,82.45 51.6,83.65 
		49.35,88.3 45.3,86.9 	"/>
	<polygon style="fill-rule:evenodd;clip-rule:evenodd;fill:#893342;" points="59.8,83.95 72.65,81.25 83,91.75 86.2,103 
		71.2,108.55 60.15,116.3 52.45,93.2 	"/>
	<path style="fill-rule:evenodd;clip-rule:evenodd;fill:#F6C79E;" d="M68,94.35c2.167-1.133,3.65-0.683,4.45,1.351
		c0.8,2.066,0.399,3.45-1.2,4.149c-1.434,0.667-2.684,0.101-3.75-1.699C66.434,96.35,66.6,95.083,68,94.35z"/>
	<path style="fill-rule:evenodd;clip-rule:evenodd;fill:none;stroke:#FFFFFF;stroke-width:0.6;" d="M68,94.35
		c-1.4,0.733-1.566,2-0.5,3.801c1.066,1.8,2.316,2.366,3.75,1.699c1.6-0.699,2-2.083,1.2-4.149C71.65,93.667,70.167,93.217,68,94.35
		z"/>
	<g>
		<g>
			<path style="fill-rule:evenodd;clip-rule:evenodd;fill:#893342;" d="M16.15,43.05c0.2,0.633-0.117,1.167-0.95,1.6
				c-0.8,0.467-1.317,0.1-1.55-1.1c0.233-1.233,0.717-1.75,1.45-1.55C15.8,42.2,16.15,42.55,16.15,43.05z"/>
		</g>
	</g>
	<g>
		<g>
			<path style="fill-rule:evenodd;clip-rule:evenodd;fill:#893342;" d="M24.3,55.35c-0.033,0.967-0.5,1.483-1.4,1.55
				c-0.9,0.033-1.25-0.467-1.05-1.5c0.267-0.9,0.75-1.283,1.45-1.15C24.033,54.35,24.367,54.717,24.3,55.35z"/>
		</g>
	</g>
	<g>
		<g>
			<path style="fill-rule:evenodd;clip-rule:evenodd;fill:#893342;" d="M53.8,34.95c0.434,0.566,0.434,1,0,1.3
				c-0.467,0.3-0.783,0.2-0.95-0.3c-0.199-0.3-0.166-0.617,0.101-0.95S53.5,34.65,53.8,34.95z"/>
		</g>
	</g>
	<g>
		<g>
			<path style="fill-rule:evenodd;clip-rule:evenodd;fill:#893342;" d="M96.45,96.25c1.066,0.667,1.333,1.45,0.8,2.35
				c-0.533,0.9-1.2,0.983-2,0.25s-0.95-1.433-0.45-2.1C95.267,96.05,95.816,95.884,96.45,96.25z"/>
		</g>
	</g>
	<g>
		<g>
			<path style="fill-rule:evenodd;clip-rule:evenodd;fill:#893342;" d="M94.6,109.85c0.167,1.567-0.199,2.284-1.1,2.15
				c-1.033-0.134-1.417-0.533-1.15-1.2c0-0.434,0.25-0.883,0.75-1.35C93.7,108.95,94.2,109.083,94.6,109.85z"/>
		</g>
	</g>
	<g>
		<g>
			<path style="fill-rule:evenodd;clip-rule:evenodd;fill:#893342;" d="M72.6,114.35c-0.3,1.167-1.083,1.684-2.35,1.551
				c-1.267-0.167-1.6-0.934-1-2.301c0.7-1.133,1.517-1.5,2.45-1.1C72.6,112.934,72.9,113.55,72.6,114.35z"/>
		</g>
	</g>
	<g>
		<g>
			<path style="fill-rule:evenodd;clip-rule:evenodd;fill:#893342;" d="M86.6,113c0.5,0.866,0.4,1.517-0.3,1.95
				c-0.733,0.467-1.25,0.267-1.55-0.601c-0.267-0.767-0.1-1.316,0.5-1.649C85.85,112.366,86.3,112.467,86.6,113z"/>
		</g>
	</g>
	<g>
		<g>
			<path style="fill-rule:evenodd;clip-rule:evenodd;fill:#893342;" d="M62.3,79.2c1.101,0,1.601,0.366,1.5,1.1
				c-0.133,0.8-0.5,1.101-1.1,0.9c-0.634-0.033-1-0.351-1.101-0.95C61.5,79.65,61.733,79.3,62.3,79.2z"/>
		</g>
	</g>
	<g>
		<g>
			<path style="fill-rule:evenodd;clip-rule:evenodd;fill:#893342;" d="M50.35,96.3c0.4,0.601,0.383,1.033-0.05,1.3
				c-0.466,0.267-0.8,0.15-1-0.35c-0.133-0.2-0.133-0.366,0-0.5c0.167-0.134,0.233-0.267,0.2-0.4C49.233,96.116,49.283,96,49.65,96
				C50.05,95.967,50.283,96.066,50.35,96.3z"/>
		</g>
	</g>
	<g>
		<g>
			<path style="fill-rule:evenodd;clip-rule:evenodd;fill:#893342;" d="M31.5,70.2c-0.6,0.7-0.883,0.683-0.85-0.05
				c0.133-0.3,0.317-0.417,0.55-0.35C31.433,69.867,31.533,70,31.5,70.2z"/>
		</g>
	</g>
	<g>
		<g>
			<path style="fill-rule:evenodd;clip-rule:evenodd;fill:#893342;" d="M64.45,121.3c-0.066,0.533-0.367,0.8-0.9,0.8
				c-0.533,0.034-0.717-0.267-0.55-0.899c0.2-0.533,0.517-0.733,0.95-0.601C64.384,120.733,64.55,120.967,64.45,121.3z"/>
		</g>
	</g>
	<g>
		<g>
			<path style="fill-rule:evenodd;clip-rule:evenodd;fill:#893342;" d="M91.35,93.45c0.634-0.033,1.067,0.434,1.301,1.399
				c0.267,0.967-0.25,1.4-1.551,1.301c-1.199-0.634-1.583-1.284-1.149-1.95C90.35,93.566,90.816,93.316,91.35,93.45z"/>
		</g>
	</g>
	<polygon style="fill-rule:evenodd;clip-rule:evenodd;fill:#BC4D5A;" points="98,95.8 92.8,91.5 100.35,94.2 96.45,115.65 	"/>
	<path style="fill-rule:evenodd;clip-rule:evenodd;fill:#EFA9A8;" d="M55.65,75.35l9.3,3.101c-2.634-0.5-4.316-0.8-5.05-0.9
		c-0.467-0.033-0.834,0.434-1.101,1.4c-0.133,0.5-0.233,1-0.3,1.5L55.65,75.35z"/>
	<path style="fill-rule:evenodd;clip-rule:evenodd;fill:#EFA9A8;" d="M70.3,77.85c0.733-0.633,1.384-1.133,1.95-1.5l11.6,13.801
		L70.3,77.85z"/>
	<polygon style="fill-rule:evenodd;clip-rule:evenodd;fill:#652A33;" points="59.8,83.95 72.65,81.25 83,91.75 86.2,103 
		71.2,108.55 82.85,102.95 80.3,92.8 71.6,83.95 	"/>
</g>
</svg>
