<?xml version="1.0" encoding="iso-8859-1"?>
<!-- Generator: Adobe Illustrator 15.1.0, SVG Export Plug-In . SVG Version: 6.00 Build 0)  -->
<!DOCTYPE svg PUBLIC "-//W3C//DTD SVG 1.1//EN" "http://www.w3.org/Graphics/SVG/1.1/DTD/svg11.dtd">
<svg version="1.1" id="mountains" xmlns="http://www.w3.org/2000/svg" xmlns:xlink="http://www.w3.org/1999/xlink" x="0px" y="0px"
	 width="738px" height="578px" viewBox="0 0 738 578" style="enable-background:new 0 0 738 578;" xml:space="preserve">
<g>
	<path style="fill-rule:evenodd;clip-rule:evenodd;fill:#7EA497;" d="M396,97.25C395,84.083,393,71,390,58l-62,48l5.4,5.3
		c4.5,4.2,9.033,8.017,13.6,11.45c14.667,11,27,16.083,37,15.25S398,123.583,396,97.25z M519.75,135
		c-0.134-11.433-2.833-21.017-8.1-28.75C505.783,97.617,497.9,93.533,488,94c-7.2,0.333-13.217,4.717-18.05,13.15
		c-4.467,7.8-6.884,17.017-7.25,27.65c-0.4,11,1.55,20.25,5.85,27.75c4.9,8.5,12.05,12.983,21.45,13.45
		c9.434,0.467,16.917-3.617,22.45-12.25C517.45,155.983,519.884,146.4,519.75,135z M718.25,111.25
		c-17,4.333-35.083,8.583-54.25,12.75s-34.917,15.75-47.25,34.75c-3.866,5.933-7.15,12.25-9.85,18.95
		c-1.334,3.367-2.301,6.133-2.9,8.3c0.667-10.333-0.333-20.75-3-31.25c-5.333-21-16.333-31.917-33-32.75
		c-9-0.433-16.667,2.75-23,9.55c-4.3,4.633-8.967,12.45-14,23.45c-5.967,13.033-10.134,21.35-12.5,24.95
		C513.167,188.017,507,192.7,500,194c-13.333,2.5-26.667-1.083-40-10.75c-4.167-3.033-8.083-6.483-11.75-10.35L444,168
		c-10,0-20.333,1.333-31,4c-21.333,5.333-33.667,14.667-37,28s2,32,16,56c7,12,14.333,22.667,22,32l-10,62l26,16l-8,64l44,18l22,94
		l62,36H0l162-148l8-64l8.05,3.55c6.7,2.434,13.434,3.75,20.2,3.95c21.667,0.667,39.583-9.833,53.75-31.5s25.417-68.167,33.75-139.5
		c4.167-35.667,6.917-69.167,8.25-100.5L400,6l2.15,6.65c2.033,5.333,4.566,10.283,7.6,14.85C419.417,42.167,432.167,50.333,448,52
		s46.25-6.5,91.25-24.5c22.5-9,43.417-18.167,62.75-27.5c-20,11.667-38.667,23.417-56,35.25C511.333,58.917,500.667,71.167,514,72
		s39.667-3.583,79-13.25C612.667,53.917,631,49,648,44c-17.667,8.333-33.5,16.917-47.5,25.75C572.5,87.417,567.667,97.5,586,100
		s49.167,4.25,92.5,5.25c21.667,0.5,41.5,0.75,59.5,0.75C733.333,107.333,726.75,109.083,718.25,111.25z"/>
	<path style="fill-rule:evenodd;clip-rule:evenodd;fill:#649180;" d="M382,335c-6.167,14-13.333,27.333-21.5,40
		c-16.333,25.333-29.5,34.667-39.5,28s-2.833-20,21.5-40C354.667,353,367.833,343.667,382,335z"/>
	<path style="fill-rule:evenodd;clip-rule:evenodd;fill:#649180;" d="M401,397l-4.65,14.7c-3.899,11.6-7.8,21.916-11.699,30.95
		c-12.5,28.833-22.717,39.283-30.65,31.35c-7.9-7.9-2.433-23.1,16.4-45.6C379.8,417.134,390,406.667,401,397z"/>
	<path style="fill-rule:evenodd;clip-rule:evenodd;fill:#649180;" d="M447,475l-1.4,3.2c-1.133,2.8-2.166,5.816-3.1,9.05
		c-3,10.333-4.5,20.917-4.5,31.75s5.5,20.917,16.5,30.25c5.5,4.667,11,8.25,16.5,10.75c-4.333-0.833-9.5-2.45-15.5-4.85
		c-12-4.834-22.167-11.217-30.5-19.15c-8.333-7.9-7.167-20.434,3.5-37.6c3.333-5.367,7.417-10.884,12.25-16.551L447,475z"/>
	<path style="fill-rule:evenodd;clip-rule:evenodd;fill:#649180;" d="M364,186l-0.8,5.65c-0.6,4.833-1,9.833-1.2,15
		c-0.667,16.5,0.667,31.617,4,45.35c3.333,13.767,8.167,25.233,14.5,34.4c3.167,4.567,6,7.767,8.5,9.6
		c-4.833,0-10.083-1.667-15.75-5c-11.333-6.667-19.083-18.333-23.25-35s-3.083-33.333,3.25-50c1.967-5.2,4.35-10.1,7.15-14.7
		C361.8,189.033,363,187.267,364,186z"/>
	<g>
		<path style="fill-rule:evenodd;clip-rule:evenodd;fill:#649180;" d="M590.1,5.675c-26.678,12.857-51.944,25.482-75.8,37.875
			C467.866,67.65,443.1,82.8,440,89c-3.333,6.667-4.5,15.5-3.5,26.5c0.5,5.5,1.333,10.333,2.5,14.5
			c-3.667,1.167-8.533,2.967-14.6,5.4c-12.167,4.833-24.301,10.367-36.4,16.6c-7.533,3.9-15.116,9.183-22.75,15.85
			c-8.133,7.1-15.25,14.867-21.35,23.3C329.2,211.317,323.233,230.6,326,249c2.5,16.667,9.083,32.333,19.75,47
			c5.333,7.333,10.417,13,15.25,17c-15.167,14.667-29.867,30.167-44.1,46.5c-28.5,32.667-40.467,53.167-35.9,61.5
			c4.6,8.333,17.65,13,39.15,14c10.733,0.5,21.017,0.167,30.85-1l-6.1,6.35c-4.7,5.301-8.667,10.601-11.9,15.9
			c-10.333,17-11.333,30.917-3,41.75s25.667,11.25,52,1.25c13.167-5,25.5-11.083,37-18.25l-4.8,6.65
			c-3.667,5.5-6.65,10.949-8.95,16.35c-7.333,17.333-6.417,31,2.75,41s35.583,18.5,79.25,25.5c21.833,3.5,42.75,6,62.75,7.5H443.8
			c-10.267-2.066-18.2-3.733-23.8-5c-7.5-1.667-17.083-8-28.75-19c-3.634-3.434-7.267-7.134-10.9-11.1L376,538l-24,11l-40-40l-22,30
			l-9-69l-35,28l20-58c-6.167,2.667-12.667,4.5-19.5,5.5c-13.667,2-22.167-1.167-25.5-9.5s9-24.5,37-48.5
			c14-12,28.333-23.167,43-33.5l-22,5l58-50c-4.833-1.333-10-4.116-15.5-8.35c-11-8.5-18.167-20.05-21.5-34.65
			c-3.333-14.567-2-42.433,4-83.6c3-20.6,6.333-39.733,10-57.4l4.2,17.85c2.8,12.566,4.15,20.483,4.05,23.75
			c0.933-2.667,3.167-8.4,6.7-17.2L334,137l4.25,1.85c3.6,1.5,7.267,2.85,11,4.05c12,3.833,22.583,5.533,31.75,5.1
			c10.2-0.467,17.583-4.967,22.15-13.5c3.8-7.167,5.416-16.667,4.85-28.5c-0.4-8.733-3.517-19.35-9.35-31.85
			c-1.834-3.933-3.834-7.8-6-11.6L390,58l9.5,3.25c7.667,2.333,14.833,3.917,21.5,4.75c7.4,0.933,19.616-0.45,36.65-4.15
			c8.533-1.867,16.316-3.817,23.35-5.85c-6.5,1.5-13.866,2.55-22.1,3.15C442.4,60.317,429.767,58.6,421,54
			c-8.733-4.567-14.85-13.933-18.35-28.1C400.884,18.8,400,12.167,400,6l2.15,6.65c2.033,5.333,4.566,10.283,7.6,14.85
			C419.417,42.167,432.167,50.333,448,52c14.6,1.533,41.8-5.367,81.6-20.7C549.083,23.804,569.25,15.263,590.1,5.675z"/>
		<path style="fill-rule:evenodd;clip-rule:evenodd;fill:#649180;" d="M508,79.65c-4.2-3.033-4.2-6.917,0-11.65l0.85-0.65
			c-0.966,2.867,0.75,4.417,5.15,4.65c13.333,0.833,39.667-3.583,79-13.25C612.667,53.917,631,49,648,44
			c-15.333,6.167-31.667,12.417-49,18.75C564.333,75.417,542,82.167,532,83C520.467,83.967,512.467,82.85,508,79.65z"/>
		<path style="fill-rule:evenodd;clip-rule:evenodd;fill:#649180;" d="M570.95,116.6c7.033-1.4,14.383-0.934,22.05,1.4
			c10.833,3.333,15.917,15.667,15.25,37c-0.333,10.667-1.75,21-4.25,31c0.667-10.333-0.333-20.75-3-31.25
			c-5.333-21-16.333-31.917-33-32.75c-4.967-0.233-9.55,0.633-13.75,2.6C558.983,120.533,564.55,117.867,570.95,116.6z"/>
		<path style="fill-rule:evenodd;clip-rule:evenodd;fill:#649180;" d="M494.5,190.25c5.6,0.667,11.066,0.167,16.4-1.5
			c-3.334,2.8-6.967,4.55-10.9,5.25c-13.333,2.5-26.667-1.083-40-10.75c-4.167-3.033-8.083-6.483-11.75-10.35L444,168l6-23l0.6,2.35
			c0.667,2.033,1.601,4.25,2.801,6.65c3.833,7.667,9.699,15.667,17.6,24C477.7,185.067,485.533,189.15,494.5,190.25z"/>
		<path style="fill-rule:evenodd;clip-rule:evenodd;fill:#577D6F;" d="M396,97.25C395,84.083,393,71,390,58l-62,48l5.4,5.3
			c4.5,4.2,9.033,8.017,13.6,11.45c14.667,11,27,16.083,37,15.25S398,123.583,396,97.25z M458.9,59.15
			c8.233-0.6,15.6-1.65,22.1-3.15c-7.033,2.033-14.816,3.983-23.35,5.85C440.616,65.55,428.4,66.933,421,66
			c-6.667-0.833-13.833-2.417-21.5-4.75L390,58l2.65,4.55c2.166,3.8,4.166,7.667,6,11.6c5.833,12.5,8.949,23.117,9.35,31.85
			c0.566,11.833-1.05,21.333-4.85,28.5c-4.567,8.533-11.95,13.033-22.15,13.5c-9.167,0.433-19.75-1.267-31.75-5.1
			c-3.733-1.2-7.4-2.55-11-4.05L334,137l-5.05,12.4c-3.534,8.8-5.767,14.533-6.7,17.2c0.1-3.267-1.25-11.184-4.05-23.75L314,125
			c-3.667,17.667-7,36.8-10,57.4c-6,41.167-7.333,69.033-4,83.6c3.333,14.6,10.5,26.15,21.5,34.65c5.5,4.233,10.667,7.017,15.5,8.35
			l-58,50l22-5c-14.667,10.333-29,21.5-43,33.5c-28,24-40.333,40.167-37,48.5s11.833,11.5,25.5,9.5c6.833-1,13.333-2.833,19.5-5.5
			l-20,58l35-28l9,69l22-30l40,40l24-11l4.35,4.9c3.634,3.966,7.267,7.666,10.9,11.1c11.667,11,21.25,17.333,28.75,19
			c5.6,1.267,13.533,2.934,23.8,5H0l162-148l8-64l8.05,3.55c6.7,2.434,13.434,3.75,20.2,3.95c21.667,0.667,39.583-9.833,53.75-31.5
			s25.417-68.167,33.75-139.5c4.167-35.667,6.917-69.167,8.25-100.5L400,6c0,6.167,0.884,12.8,2.65,19.9
			c3.5,14.167,9.616,23.533,18.35,28.1C429.767,58.6,442.4,60.317,458.9,59.15z"/>
		<path style="fill-rule:evenodd;clip-rule:evenodd;fill:#577D6F;" d="M487.75,94.05c4.967-2.233,10.1-2.883,15.4-1.95
			c4.966,0.833,9.6,2.95,13.899,6.35c4.233,3.333,7.601,7.466,10.101,12.4c2.566,5.133,3.85,10.517,3.85,16.15
			c0,13.333-2.083,24.417-6.25,33.25C520.384,169.517,513.8,176.1,505,180c-7.066,3.167-13.8,2.9-20.2-0.8
			c-3.5-2.034-6.383-4.684-8.649-7.95c4,2.933,8.616,4.517,13.85,4.75c9.434,0.467,16.917-3.617,22.45-12.25
			c5-7.767,7.434-17.35,7.3-28.75c-0.134-11.433-2.833-21.017-8.1-28.75C505.783,97.617,497.9,93.533,488,94L487.75,94.05z"/>
	</g>
	<path style="fill-rule:evenodd;clip-rule:evenodd;fill:#93BCAF;" d="M696,109c-12.667,1.333-24.333,2.333-35,3
		c-6.667,0.433-16.5,5.4-29.5,14.9c-4.066,2.967-8.2,6.2-12.4,9.7L614,141c-0.167-2.167-0.033-4.833,0.4-8
		c0.833-6.333,2.699-12,5.6-17c2.934-5,16.483-7.667,40.65-8C672.717,107.833,684.5,108.167,696,109z"/>
	<path style="fill-rule:evenodd;clip-rule:evenodd;fill:#93BCAF;" d="M577,77c-2.333,1.833-5.033,4.05-8.1,6.65
		c-6.167,5.167-11.134,9.617-14.9,13.35c-3.733,3.767-1.684,7.067,6.15,9.9c3.899,1.4,8.183,2.434,12.85,3.1
		c-5,0.5-10.2,0.583-15.6,0.25c-10.834-0.667-17.301-3.083-19.4-7.25c-2.066-4.167,3.816-9.75,17.65-16.75
		C562.55,82.75,569.667,79.667,577,77z"/>
	<path style="fill-rule:evenodd;clip-rule:evenodd;fill:#93BCAF;" d="M501,57c-3,2.167-6.667,4.967-11,8.4
		c-8.667,6.833-16.333,13.367-23,19.6c-6.667,6.267-11.333,15.65-14,28.15c-1.333,6.233-2,11.85-2,16.85
		c-1.333-2.333-2.533-5.367-3.6-9.1c-2.167-7.5-2.634-14.8-1.4-21.9c1.267-7.067,10.816-16.183,28.65-27.35
		C483.55,66.05,492.333,61.167,501,57z"/>
	<polygon style="fill-rule:evenodd;clip-rule:evenodd;fill:#93BCAF;" points="397,286 410,289 388,354 	"/>
	<path style="fill-rule:evenodd;clip-rule:evenodd;fill:#93BCAF;" d="M408,368l12,2l-0.2,12.2c-0.3,9.899-0.816,19.333-1.55,28.3
		c-2.333,28.667-6.417,47.167-12.25,55.5s-13.75,14-23.75,17c-3.134,0.934-6.283,1.55-9.45,1.85L369,485c4.333-2.833,9-6.833,14-12
		c10-10.333,16.667-21.333,20-33s5.167-27.167,5.5-46.5c0.1-6.033,0.05-12.1-0.15-18.2L408,368z"/>
	<polygon style="fill-rule:evenodd;clip-rule:evenodd;fill:#93BCAF;" points="446,449 458,452 476,538 504,562 467,542 	"/>
</g>
</svg>
