<?xml version="1.0" encoding="iso-8859-1"?>
<!-- Generator: Adobe Illustrator 15.1.0, SVG Export Plug-In . SVG Version: 6.00 Build 0)  -->
<!DOCTYPE svg PUBLIC "-//W3C//DTD SVG 1.1//EN" "http://www.w3.org/Graphics/SVG/1.1/DTD/svg11.dtd">
<svg version="1.1" id="Isolation_Mode" xmlns="http://www.w3.org/2000/svg" xmlns:xlink="http://www.w3.org/1999/xlink" x="0px"
	 y="0px" width="77.05px" height="56.2px" viewBox="0 0 77.05 56.2" style="enable-background:new 0 0 77.05 56.2;"
	 xml:space="preserve">
<g>
	<path style="fill-rule:evenodd;clip-rule:evenodd;fill:#CBCC9D;" d="M74.8,31.45c1.167,8.066,1.917,15.866,2.25,23.399
		c-1.566,0.567-3.434,0.967-5.6,1.2c-4.267,0.434-7.783-0.184-10.55-1.85c1.033-6.101,1.483-12.483,1.35-19.15
		c-0.3-13.333-3.366-21.4-9.2-24.2c-5.833-2.767-15.133-2.6-27.9,0.5c-6.367,1.566-12.167,3.4-17.4,5.5
		c-0.9,0.233-1.883,0.2-2.95-0.1c-2.133-0.6-3.6-2.233-4.4-4.9C-0.3,9.617-0.1,7.783,1,6.35c1.167-1.567,3.517-2.833,7.05-3.8
		c5.133-1.4,14.3-2.233,27.5-2.5c15.267-0.3,25.101,0.867,29.5,3.5C69.217,6.05,72.467,15.35,74.8,31.45z"/>
	<g>
		<path style="fill-rule:evenodd;clip-rule:evenodd;fill:#B2B38A;" d="M41.4,5.9c12.466-1.133,19.916,2.25,22.35,10.15
			c1.3,4.4,2.116,17.717,2.45,39.95c-2-0.267-3.767-0.866-5.3-1.8c1.033-6.101,1.483-12.483,1.35-19.15
			c-0.3-13.333-3.366-21.4-9.2-24.2c-5.833-2.767-15.133-2.6-27.9,0.5c-6.367,1.566-12.167,3.4-17.4,5.5c-0.8,0.2-1.683,0.2-2.65,0
			C3.167,16.417,1.733,15.133,0.8,13C19.633,8.967,33.167,6.6,41.4,5.9z"/>
	</g>
	<path style="fill-rule:evenodd;clip-rule:evenodd;fill:#9FA17C;" d="M40.45,8.45c-2.9,0.133-6.967,0.617-12.2,1.45
		c-3.9,0.6-8.567,1.767-14,3.5c-4.7,1.467-7.2,2.184-7.5,2.15c-1-0.1-2.167-0.383-3.5-0.85c17.2-4.333,28.583-6.767,34.15-7.3
		c4.267-0.433,8.333-0.333,12.2,0.3c4,0.667,6.767,1.733,8.301,3.2c1.833,1.733,3.233,3.6,4.199,5.6c1.233,2.5,1.884,5.35,1.95,8.55
		c0.134,4.667,0.584,14.617,1.351,29.851l-2.851-1c0.167-3.934,0.25-8.2,0.25-12.801c0.033-9.133-0.316-15.266-1.05-18.399
		c-0.833-3.467-1.95-6.233-3.35-8.3c-1.9-2.8-4.4-4.533-7.5-5.2C47.667,8.5,44.184,8.25,40.45,8.45z"/>
	<path style="fill-rule:evenodd;clip-rule:evenodd;fill:#D8D8B6;" d="M66.6,18.2c-1.166-6-2.683-9.833-4.55-11.5
		C60.184,5.033,55.9,3.95,49.2,3.45L39.75,3.2l4.3-0.65c3.3-0.4,6.134-0.566,8.5-0.5c3.733,0.1,6.733,0.55,9,1.35
		c3.3,1.133,5.584,3.067,6.851,5.8c1.199,2.566,2.216,6.25,3.05,11.05c0.434,2.4,0.75,4.55,0.95,6.45c-0.9-3.867-1.851-6.2-2.851-7
		c-0.633-0.467-1.116,0.55-1.45,3.05c-0.166,1.267-0.283,2.583-0.35,3.95C67.55,24.033,67.167,21.2,66.6,18.2z"/>
</g>
</svg>
