<?xml version="1.0" encoding="iso-8859-1"?>
<!-- Generator: Adobe Illustrator 15.1.0, SVG Export Plug-In . SVG Version: 6.00 Build 0)  -->
<!DOCTYPE svg PUBLIC "-//W3C//DTD SVG 1.1//EN" "http://www.w3.org/Graphics/SVG/1.1/DTD/svg11.dtd">
<svg version="1.1" id="buildings" xmlns="http://www.w3.org/2000/svg" xmlns:xlink="http://www.w3.org/1999/xlink" x="0px" y="0px"
	 width="83.45px" height="148.85px" viewBox="0 0 83.45 148.85" style="enable-background:new 0 0 83.45 148.85;"
	 xml:space="preserve">
<g>
	<path style="fill-rule:evenodd;clip-rule:evenodd;fill:#7F3342;" d="M38.35,13.85c19.333,11.566,31.433,23.333,36.3,35.3
		c6.666,16.4,9.55,37.433,8.649,63.1c-0.434,12.833-1.55,24.033-3.35,33.6c-2.2,0.567-4.7,0.65-7.5,0.25
		c-5.533-0.8-9.7-3.55-12.5-8.25c2.566-3.666,4.85-8.949,6.85-15.85c4-13.767,4.617-28.717,1.851-44.85
		c-2.801-16.101-14.634-30.934-35.5-44.5c-10.433-6.767-20.6-11.933-30.5-15.5c-0.867-0.767-1.566-1.833-2.1-3.2
		c-1.033-2.667-0.667-5.434,1.1-8.3c1.8-2.9,3.867-4.683,6.2-5.35C9.017-0.033,10-0.083,10.8,0.15
		C19.5,3.517,28.683,8.083,38.35,13.85z"/>
	<g>
		<path style="fill-rule:evenodd;clip-rule:evenodd;fill:#682D38;" d="M33.15,32.65c-10.433-6.767-20.6-11.933-30.5-15.5
			c-0.867-0.767-1.566-1.833-2.1-3.2c-1.033-2.667-0.667-5.434,1.1-8.3l0.55-0.8c8.167,4.066,16.066,8.4,23.7,13
			c12.5,7.5,21.633,14.167,27.4,20c7.101,7.167,12.283,15.367,15.55,24.6c2.233,6.3,3.834,14.2,4.801,23.7
			c0.633,6.199-0.184,16.55-2.45,31.05c-1.101,7.267-2.283,13.916-3.55,19.95l-6.7-0.851c3.1-5.399,5.5-11.866,7.2-19.399
			c2.767-12.434,2.933-25.684,0.5-39.75C65.85,61.05,54.017,46.217,33.15,32.65z"/>
	</g>
	<path style="fill-rule:evenodd;clip-rule:evenodd;fill:#5B2932;" d="M63.5,131.65l1.6,2c1.5,1.5,3.4,2.666,5.7,3.5
		c2.3,0.833,4.717,1.25,7.25,1.25c1.267,0,2.3-0.084,3.101-0.25l0.25,0.6c0.199,0.533,0.333,1.167,0.399,1.9
		c0.134,1.233,0.033,3.399-0.3,6.5c-0.9,0.633-2.217,1.1-3.95,1.399c-3.399,0.667-7.083,0.267-11.05-1.2
		c-3.967-1.466-6.8-3.517-8.5-6.149l-1.35-3.55c0.899-1.867,1.85-3.301,2.85-4.301c0.634-0.633,1.483-1.1,2.55-1.399
		C62.616,131.783,63.1,131.684,63.5,131.65z"/>
	<path style="fill-rule:evenodd;clip-rule:evenodd;fill:#5A2932;" d="M2.15,8.5L27.8,24.65c4.5,2.833,10.333,7.2,17.5,13.1
		c9.467,7.833,15.75,14.2,18.851,19.1c3.199,5.066,5.383,11.3,6.55,18.7c0.733,4.566,1.267,11.834,1.6,21.8
		c0.2,6.467-0.7,14.534-2.7,24.2c-1,4.867-2.033,9.066-3.1,12.601l-1.7-2c1.467-3.434,2.967-8.867,4.5-16.301
		c1.167-5.566,1.65-12.483,1.45-20.75c-0.2-8.199-1.017-15.949-2.45-23.25c-1.233-6.3-5.483-13.45-12.75-21.45
		c-5.033-5.5-10.383-10.35-16.05-14.55c-5.033-3.733-12.7-8.184-23-13.35c-5.167-2.6-9.833-4.817-14-6.65
		C1.933,14.95,1.533,14,1.3,13c-0.133-0.633-0.033-1.567,0.3-2.8L2.15,8.5z"/>
	<path style="fill-rule:evenodd;clip-rule:evenodd;fill:#AC3F53;" d="M12.65,2.15c7.3,3.4,15.133,7.617,23.5,12.65
		C52.85,24.833,63.8,33.95,69,42.15c2.467,3.867,4.45,8.033,5.95,12.5c0.767,2.233,1.283,4.067,1.55,5.5
		c-0.4-1.833-1.483-4.267-3.25-7.3c-3.566-6.1-8.816-12.167-15.75-18.2c-4.4-3.833-13.884-9.983-28.45-18.45
		C21.75,11.967,14.9,8.117,8.5,4.65l0.4-0.6C9.233,3.617,9.6,3.267,10,3C10.667,2.567,11.55,2.283,12.65,2.15z"/>
	<path style="fill-rule:evenodd;clip-rule:evenodd;fill:#9B3A4C;" d="M78.65,74.85c0.433,0,1.1-0.283,2-0.85L81.6,84.7
		c0.634,7.899,0.983,13.717,1.051,17.45c0.1,6-0.851,17.283-2.851,33.85c-0.434,0.233-0.983,0.35-1.649,0.35
		c-0.4,0-1.051-0.083-1.95-0.25l-1.2-0.25c1.866-11.133,3.2-20.199,4-27.199c0.467-4.367,0.55-11.317,0.25-20.851L78.65,74.85z"/>
	<g>
		<path style="fill-rule:evenodd;clip-rule:evenodd;fill:#4E252C;" d="M58,141.2l-1.35-3.55c0.899-1.867,1.85-3.301,2.85-4.301
			c0.634-0.633,1.483-1.1,2.55-1.399c0.566-0.167,1.05-0.267,1.45-0.3l1.05,1.399c0.967,1.134,2.167,2.101,3.601,2.9v0.2l-1.801,2.3
			c-1.233,1.733-1.85,3.2-1.85,4.399c0,1.233,0.95,2.384,2.85,3.45c1.367,0.767,2.851,1.334,4.45,1.7
			c1.467,0.333,3.084,0.55,4.851,0.65L76.6,148.7c-3.133,0.434-6.5-0.017-10.1-1.351C62.533,145.884,59.7,143.833,58,141.2z"/>
	</g>
	<path style="fill-rule:evenodd;clip-rule:evenodd;fill:#843544;" d="M75.8,140.15l1.8-0.15c1.301,0.033,2.15,0.366,2.551,1
		c0.666,1,0.783,3,0.35,6c-0.8,0.434-1.75,0.65-2.85,0.65L74.8,147.5l0.851-3.65c0.133-0.566,0.199-1.35,0.199-2.35L75.8,140.15z"/>
	<path style="fill-rule:evenodd;clip-rule:evenodd;fill:#3E2126;" d="M58.75,140.8l-0.95-1.3c0.566-1.233,1.134-2.283,1.7-3.15
		c0.333-0.566,0.934-1.183,1.8-1.85l1.2-0.85c1.134,0,1.583,0.566,1.35,1.699c-0.199,0.934-0.716,1.934-1.55,3
		c-0.866,1.101-1.25,2.817-1.149,5.15l-0.851-0.85C59.967,142.316,59.45,141.7,58.75,140.8z"/>
</g>
</svg>
