<?xml version="1.0" encoding="iso-8859-1"?>
<!-- Generator: Adobe Illustrator 15.1.0, SVG Export Plug-In . SVG Version: 6.00 Build 0)  -->
<!DOCTYPE svg PUBLIC "-//W3C//DTD SVG 1.1//EN" "http://www.w3.org/Graphics/SVG/1.1/DTD/svg11.dtd">
<svg version="1.1" id="buildings" xmlns="http://www.w3.org/2000/svg" xmlns:xlink="http://www.w3.org/1999/xlink" x="0px" y="0px"
	 width="141.6px" height="46px" viewBox="0 0 141.6 46" style="enable-background:new 0 0 141.6 46;" xml:space="preserve">
<g>
	<path style="fill-rule:evenodd;clip-rule:evenodd;fill:#FBF5E7;" d="M104.85,29.4c-3.8,1.533-9.183,3.116-16.149,4.75
		c-13.934,3.267-28.75,5.1-44.45,5.5C28.55,40.083,16.467,38.866,8,36c-4.233-1.434-6.9-2.917-8-4.45
		c1.033-2.133,2.917-4.283,5.65-6.45c5.5-4.266,12.483-6.383,20.95-6.35c3.633,0.033,8.75-0.067,15.35-0.3
		c1.433-0.067,7.767-0.333,19-0.8c8.6-0.367,24.616-3.417,48.05-9.15c11.733-2.867,22.6-5.7,32.6-8.5L104.85,29.4z"/>
	<path style="fill-rule:evenodd;clip-rule:evenodd;fill:#F1DFAB;" d="M89.8,32.35c6.267-1.1,11.283-2.083,15.05-2.949l1.4,6.6
		c-4.6,1.667-10.116,3.333-16.55,5c-12.867,3.333-23.9,5-33.1,5c-14.167,0-27.833-1.917-41-5.75c-6.567-1.9-11.733-3.816-15.5-5.75
		L0,31.55c3.233,1.467,7.817,2.8,13.75,4c11.933,2.4,24.767,2.983,38.5,1.75C64.75,36.2,77.267,34.55,89.8,32.35z"/>
	<polygon style="fill-rule:evenodd;clip-rule:evenodd;fill:#B6BA9B;" points="141.25,7.3 106.25,36 104.85,29.4 141.6,0 	"/>
</g>
</svg>
