<?xml version="1.0" encoding="iso-8859-1"?>
<!-- Generator: Adobe Illustrator 15.1.0, SVG Export Plug-In . SVG Version: 6.00 Build 0)  -->
<!DOCTYPE svg PUBLIC "-//W3C//DTD SVG 1.1//EN" "http://www.w3.org/Graphics/SVG/1.1/DTD/svg11.dtd">
<svg version="1.1" id="buildings" xmlns="http://www.w3.org/2000/svg" xmlns:xlink="http://www.w3.org/1999/xlink" x="0px" y="0px"
	 width="541.5px" height="148px" viewBox="0 0 541.5 148" style="enable-background:new 0 0 541.5 148;" xml:space="preserve">
<path style="fill-rule:evenodd;clip-rule:evenodd;fill:#D4E2C8;" d="M456.5,90l-16,27c-9.333-1.833-19.25-4.083-29.75-6.75
	c-21-5.333-34.417-10.083-40.25-14.25s-9.75-10.25-11.75-18.25c-0.634-2.5-1.033-5.033-1.2-7.6L357.5,67l28.75,9.9
	c20.333,6.833,33.417,10.866,39.25,12.1c5.833,1.267,12.75,1.816,20.75,1.65C450.25,90.55,453.667,90.333,456.5,90z"/>
<path style="fill-rule:evenodd;clip-rule:evenodd;fill:#B7CFA2;" d="M458.5,0l13,71.95L444.85,127
	c-7.533-1.333-15.916-3.116-25.149-5.35c-18.5-4.434-32-8.867-40.5-13.301c-8.5-4.433-17.334-7.899-26.5-10.399l-11.2-2.45
	l6.65-28.85c1.133-2.833,2.166-6.033,3.1-9.6c1.866-7.133,2.316-12.517,1.35-16.15c-2.133-7.867-5.616-16.717-10.449-26.55L335.5,2
	l18,2l6.25,12c4.333,9,6.917,16,7.75,21s1.267,12.917,1.3,23.75c0,5.433-0.083,10.35-0.25,14.75l2.8,2.95
	c2.367,2.366,4.934,4.633,7.7,6.8c8.767,6.967,17.584,11.55,26.45,13.75c8.866,2.233,16.9,4.017,24.1,5.35
	c3.601,0.667,6.317,1.117,8.15,1.351L454.5,65l-9-53L458.5,0z"/>
<path style="fill-rule:evenodd;clip-rule:evenodd;fill:#B7CFA2;" d="M346,96c-8.5,2.8-18.55,5.467-30.15,8
	c-23.267,5.134-42.716,7.134-58.35,6c-23.333-1.667-46.417-6.25-69.25-13.75c-7.133-2.333-13.817-4.833-20.05-7.5L161,85.5
	c-4,3.333-9.667,7.35-17,12.05c-14.667,9.434-30.333,17.584-47,24.45c-15.167,6.267-34.967,9.816-59.4,10.65
	c-12.2,0.399-22.9,0.183-32.1-0.65L0,111l18-22.5c3.667,0.333,8.833,0.384,15.5,0.15C46.833,88.15,61,86.434,76,83.5
	c15-2.9,33.333-10.933,55-24.1c10.833-6.6,20.167-12.9,28-18.9l11.05,4.9c9.167,3.967,18.284,7.75,27.35,11.35
	c29,11.5,52.033,18.917,69.1,22.25c17.1,3.333,35.9,2.167,56.4-3.5c10.233-2.833,18.767-6,25.6-9.5L346,96z"/>
<polygon style="fill-rule:evenodd;clip-rule:evenodd;fill:#B7CFA2;" points="509.5,51 458.5,98 463.5,72 490.5,41 481.5,7 492.5,3 
	"/>
<polygon style="fill-rule:evenodd;clip-rule:evenodd;fill:#B7CFA2;" points="505.5,97 450.5,108 450.5,99 499.5,82 534.5,43 
	541.5,53 "/>
<polygon style="fill-rule:evenodd;clip-rule:evenodd;fill:#B7CFA2;" points="525.5,130 481.5,148 444.85,127 450.5,108 488.5,134 
	524.5,117 "/>
<path style="fill-rule:evenodd;clip-rule:evenodd;fill:#D4E2C8;" d="M324.4,77.45c9.933-2.601,17.85-5.517,23.75-8.75
	c-4.667,4.033-11.634,7.684-20.9,10.95c-18.533,6.566-39.35,8.017-62.45,4.35c-22.767-3.6-47.367-11.017-73.8-22.25
	c-8.267-3.5-16.217-7.183-23.85-11.05l-9-4.7l0.65-4.65l10.95,5.3c9.067,4.3,18.067,8.35,27,12.15
	c28.567,12.133,51.033,19.434,67.4,21.9C284.417,83.733,304.5,82.65,324.4,77.45z"/>
<path style="fill-rule:evenodd;clip-rule:evenodd;fill:#789D65;" d="M331.6,98.45c-10.833,3.3-20.949,5.733-30.35,7.3
	c-15.434,2.634-29.733,3.667-42.9,3.1c-12.667-0.533-26.117-2.649-40.35-6.35c-11.3-2.9-24.2-6.934-38.7-12.1L161,83.5
	c-5.867,3.866-12.85,8.217-20.95,13.05C123.817,106.15,110.133,113.3,99,118c-15.8,6.667-34.683,10.333-56.65,11
	c-10.967,0.333-20.367,0-28.2-1l0.65-5.3c8.5-0.2,18.017-0.884,28.55-2.05c21.066-2.334,36.7-5.967,46.9-10.9
	c17.667-8.5,41.25-20.5,70.75-36l35.9,10.75c26.9,7.5,47.85,12.083,62.85,13.75s33.8,0.467,56.4-3.6
	c11.267-2.067,21.05-4.284,29.35-6.65l12.9,6.2c10.333,4.666,19.8,8.383,28.399,11.149c8.634,2.767,20.417,5.784,35.351,9.051
	c7.5,1.666,14.116,3.033,19.85,4.1l-5,4.5c-7.566-1.167-15.434-2.55-23.6-4.15c-16.267-3.233-25.801-5.949-28.601-8.149
	c-2.767-2.233-10.233-5.684-22.399-10.351L345,94C341.467,95.333,337,96.816,331.6,98.45z"/>
<path style="fill-rule:evenodd;clip-rule:evenodd;fill:#789D65;" d="M338.5,5.35h3.65l7.1,15c4.767,10.767,7.283,18.1,7.55,22
	c0.3,3.9-0.217,10.233-1.55,19c-0.667,4.4-1.366,8.4-2.1,12l-3.351-5.3c0.967-2.4,1.884-5.25,2.75-8.55c1.8-6.6,2.55-12.2,2.25-16.8
	c-0.267-4.567-3.066-12.167-8.399-22.8L338.5,5.35z"/>
<polygon style="fill-rule:evenodd;clip-rule:evenodd;fill:#789D65;" points="447.5,12.35 450.5,9.05 460.15,63.05 442.15,107.7 
	439.8,106.05 455.8,63.7 "/>
<polygon style="fill-rule:evenodd;clip-rule:evenodd;fill:#789D65;" points="482.8,8.05 485.8,7.05 495.8,42.7 472.15,69.35 
	471.5,65.05 492.15,40.35 "/>
<polygon style="fill-rule:evenodd;clip-rule:evenodd;fill:#789D65;" points="534.15,44.7 535.5,48.35 500.15,83.7 "/>
<polygon style="fill-rule:evenodd;clip-rule:evenodd;fill:#789D65;" points="503.8,94.05 504.15,96.35 455.5,105.7 459.15,102.35 
	"/>
<polygon style="fill-rule:evenodd;clip-rule:evenodd;fill:#789D65;" points="525.5,130 481.8,146.35 446.8,125.7 448.5,123.05 
	481.5,143.05 523.5,127.35 "/>
<polygon style="fill-rule:evenodd;clip-rule:evenodd;fill:#D4E2C8;" points="488.85,7.65 492.35,6.1 506.85,49.6 "/>
<polygon style="fill-rule:evenodd;clip-rule:evenodd;fill:#D4E2C8;" points="453.85,7.65 457.65,3.85 469,64.4 466.8,66.6 "/>
<polygon style="fill-rule:evenodd;clip-rule:evenodd;fill:#D4E2C8;" points="506.2,94.35 506.2,90.9 537.4,51.8 539.3,53.4 "/>
<polygon style="fill-rule:evenodd;clip-rule:evenodd;fill:#D4E2C8;" points="454.2,112.35 487.9,135.35 451.65,115.5 "/>
<path style="fill-rule:evenodd;clip-rule:evenodd;fill:#D4E2C8;" d="M348.8,6.05h3.7l6.1,10.5c4.301,8.534,6.934,16.7,7.9,24.5
	c0.5,4.133,0.267,9.75-0.7,16.85c-0.5,3.567-1.05,6.717-1.649,9.45c0-12.833-0.067-20.267-0.2-22.3
	c-0.2-3.167-1.017-7.733-2.45-13.7c-1.134-4.567-3.583-10.15-7.35-16.75L348.8,6.05z"/>
</svg>
