<?xml version="1.0" encoding="iso-8859-1"?>
<!-- Generator: Adobe Illustrator 15.1.0, SVG Export Plug-In . SVG Version: 6.00 Build 0)  -->
<!DOCTYPE svg PUBLIC "-//W3C//DTD SVG 1.1//EN" "http://www.w3.org/Graphics/SVG/1.1/DTD/svg11.dtd">
<svg version="1.1" id="buildings" xmlns="http://www.w3.org/2000/svg" xmlns:xlink="http://www.w3.org/1999/xlink" x="0px" y="0px"
	 width="87.2px" height="88px" viewBox="0 0 87.2 88" style="enable-background:new 0 0 87.2 88;" xml:space="preserve">
<g>
	<path style="fill-rule:evenodd;clip-rule:evenodd;fill:#7F3342;" d="M16.4,44.1c-1.833,18.367,0.017,27.851,5.55,28.45
		c5.633,0.634,17.15-0.184,34.55-2.45c8.733-1.1,16.884-2.283,24.45-3.55l0.95,6.05c0.066,4.267-1.25,6.917-3.95,7.95
		c-6.4,2.101-13.851,3.867-22.351,5.3c-17,2.934-30.716,2.834-41.149-0.3c-5.767-1.733-9.833-6.983-12.2-15.75
		C0.283,62.5-0.4,53.283,0.2,42.15c0.466-9.267,1.683-18.233,3.65-26.9C5.65,7.217,7.267,2.733,8.7,1.8c3.133-2,6.433-2.333,9.9-1
		c3.733,1.467,5.017,4.383,3.85,8.75C19.65,20.183,17.633,31.7,16.4,44.1z"/>
	<g>
		<path style="fill-rule:evenodd;clip-rule:evenodd;fill:#682D38;" d="M0.2,42.15c0.466-9.267,1.683-18.233,3.65-26.9
			C5.65,7.217,7.267,2.733,8.7,1.8c1.667-1.033,3.617-1.583,5.85-1.65C11.983,8.017,10.033,18.567,8.7,31.8
			C7.367,45.134,7.067,56.967,7.8,67.3C8.333,74.833,13.4,79.116,23,80.15c3.4,0.399,7.683,0.399,12.85,0
			c2.9-0.2,6.933-0.567,12.1-1.101c5.833-0.434,15.083-1.967,27.75-4.6l2,6.2c-7.233,2.267-15.134,4.1-23.7,5.5
			c-16.3,2.633-29.483,2.433-39.55-0.601c-5.767-1.733-9.833-6.983-12.2-15.75C0.283,62.5-0.4,53.283,0.2,42.15z"/>
	</g>
	<path style="fill-rule:evenodd;clip-rule:evenodd;fill:#5B2932;" d="M82.95,83.55c-1.334,0.101-2.5,0.101-3.5,0
		C76.35,83.316,74.2,82.134,73,80c-1.134-2.033-1.45-5.05-0.95-9.05c0.334-2.566,1.917-4.5,4.75-5.8
		c2.434-1.134,4.45-1.434,6.05-0.9c0.7,2.033,0.917,5.85,0.65,11.45C83.4,78.533,83.217,81.15,82.95,83.55z"/>
	<g>
		<path style="fill-rule:evenodd;clip-rule:evenodd;fill:#4E252C;" d="M83.6,72.5c-0.033,3.634-0.25,7.316-0.649,11.05
			c-1.334,0.101-2.5,0.101-3.5,0c-4.767-0.399-7.3-3.05-7.601-7.95L71.95,75.2l0.6,0.85c0.601,0.566,1.4,0.816,2.4,0.75
			c0.967-0.033,1.767-0.934,2.399-2.7l0.601-2.649l1.7,0.2C81.05,71.85,82.366,72.134,83.6,72.5z"/>
	</g>
	<path style="fill-rule:evenodd;clip-rule:evenodd;fill:#7F3342;" d="M81.75,64c1.5-0.033,2.767,0.983,3.8,3.05
		c0.934,1.867,1.467,4.117,1.601,6.75c0.133,2.7-0.2,4.967-1,6.8c-0.867,2.067-2.167,3.101-3.9,3.101c-3.4,0-4.866-3.267-4.4-9.8
		c0.167-2.534,0.634-4.801,1.4-6.801C80.017,65.066,80.85,64.033,81.75,64z"/>
	
		<linearGradient id="SVGID_1_" gradientUnits="userSpaceOnUse" x1="-86.0625" y1="-73.625" x2="-78.8375" y2="-73.625" gradientTransform="matrix(-1 0 0 -1 0 0)">
		<stop  offset="0" style="stop-color:#893342"/>
		<stop  offset="1" style="stop-color:#2D1D1E"/>
	</linearGradient>
	<path style="fill-rule:evenodd;clip-rule:evenodd;fill:url(#SVGID_1_);" d="M82.55,65.55c1.9,0.233,2.983,2.983,3.25,8.25
		c0.233,5.3-0.883,7.934-3.35,7.9c-2.367-0.066-3.25-2.8-2.65-8.2c0.2-2.066,0.584-3.917,1.15-5.55
		C81.517,66.316,82.05,65.517,82.55,65.55z"/>
	<path style="fill-rule:evenodd;clip-rule:evenodd;fill:#5A2932;" d="M12.05,1.7c-1.3,5.033-2.6,10.85-3.9,17.45
		C5.55,32.35,4.267,42.9,4.3,50.8c0.067,8.334,0.333,13.851,0.8,16.55c0.8,4.301,2.617,7.7,5.45,10.2c2.8,2.467,7.8,4.066,15,4.8
		c5.767,0.601,11.067,0.584,15.9-0.05c5-0.666,15-2.116,30-4.35L71.6,78.7c0.134,0.533,0.334,0.983,0.601,1.35l0.6,0.9
		C70.167,81.717,66.9,82.5,63,83.3c-7.767,1.601-14.75,2.483-20.95,2.65c-9.966,0.233-17.083,0.033-21.35-0.601
		c-7.1-1.066-11.817-3.533-14.15-7.399C3.95,73.616,2.3,67,1.6,58.1C1.067,51.333,1.1,44.9,1.7,38.8c0.6-6.2,1.867-13.367,3.8-21.5
		C7.867,7.4,10.05,2.2,12.05,1.7z"/>
	<path style="fill-rule:evenodd;clip-rule:evenodd;fill:#9B3A4C;" d="M17.45,9.2c0.633-0.567,1.167-0.483,1.6,0.25
		c0.367,0.667,0.583,1.7,0.65,3.1c0.033,0.567-0.617,3.967-1.95,10.2c-1.6,7.667-2.833,14.767-3.7,21.3
		c-0.933,7.2-0.75,14.134,0.55,20.8c0.633,3.334,1.367,5.95,2.2,7.851l-2.85-6c-1.167-2.467-1.817-6.816-1.95-13.05
		c-0.133-4.767,0.05-9.667,0.55-14.7C13.05,33.783,14.683,23.867,17.45,9.2z"/>
	<path style="fill-rule:evenodd;clip-rule:evenodd;fill:#B04054;" d="M31.5,73.45c4.567-0.267,9.083-0.684,13.55-1.25l26.25-3.5
		c-0.166,0.267-0.333,0.533-0.5,0.8c-0.333,0.6-0.5,1-0.5,1.2l0.15,1.85l-44.4,1.15L31.5,73.45z"/>
	<path style="fill-rule:evenodd;clip-rule:evenodd;fill:#843544;" d="M78.95,64.95c-0.934,1.899-1.934,3.1-3,3.6
		c-0.7,0.3-1.384,0.566-2.05,0.8l-0.851,0.2c0.267-0.666,0.816-1.366,1.65-2.1C75.533,66.684,76.95,65.85,78.95,64.95z"/>
	<path style="fill-rule:evenodd;clip-rule:evenodd;fill:#3E2126;" d="M72.95,78.3l0.85,0.65c0.634,0.467,1.217,0.75,1.75,0.85
		c0.834,0.167,1.334,0.05,1.5-0.35l0.2,0.75c0.233,0.533,0.5,0.983,0.8,1.35c0.5,0.601,1,1.101,1.5,1.5
		c-0.934-0.066-1.899-0.3-2.899-0.7C74.616,81.483,73.384,80.134,72.95,78.3z"/>
</g>
</svg>
