<?xml version="1.0" encoding="iso-8859-1"?>
<!-- Generator: Adobe Illustrator 15.1.0, SVG Export Plug-In . SVG Version: 6.00 Build 0)  -->
<!DOCTYPE svg PUBLIC "-//W3C//DTD SVG 1.1//EN" "http://www.w3.org/Graphics/SVG/1.1/DTD/svg11.dtd">
<svg version="1.1" id="ground" xmlns="http://www.w3.org/2000/svg" xmlns:xlink="http://www.w3.org/1999/xlink" x="0px" y="0px"
	 width="210.7px" height="125.1px" viewBox="0 0 210.7 125.1" style="enable-background:new 0 0 210.7 125.1;" xml:space="preserve"
	>
<g>
	<path style="fill-rule:evenodd;clip-rule:evenodd;fill:#7F5257;" d="M166.05,105.8c13.867,7.434,28.75,13.834,44.65,19.2H0V0
		c31.667,14.033,64.117,33.267,97.35,57.7c8.6,6.333,20.55,15.267,35.85,26.8C145.9,93.767,156.85,100.866,166.05,105.8z"/>
	<g>
		<g>
			<path style="fill-rule:evenodd;clip-rule:evenodd;fill:#70424A;" d="M7.9,45.7c0.533,0.5,1.733,0.767,3.6,0.8
				c2,0.033,3.867-0.25,5.6-0.85c-0.7,0.467-1.533,0.9-2.5,1.3c-1.9,0.833-3.483,1.117-4.75,0.85c-1.4-0.233-2.333-0.7-2.8-1.4
				c-0.4-0.633-0.3-1.233,0.3-1.8c0.467-0.4,1.233-0.667,2.3-0.8c0.413-0.051,0.788-0.077,1.125-0.075
				C10.465,43.798,9.907,43.99,9.1,44.3C7.867,44.767,7.467,45.233,7.9,45.7z"/>
		</g>
	</g>
	<g>
		<g>
			<path style="fill-rule:evenodd;clip-rule:evenodd;fill:#70424A;" d="M12.7,11.95c-1.967,1.3-3.717,1.883-5.25,1.75
				c-1.7-0.133-2.817-0.583-3.35-1.35c-0.434-0.7-0.333-1.383,0.3-2.05c0.767-0.767,2.067-1.183,3.9-1.25
				c-0.733,0.2-1.433,0.467-2.1,0.8C4.933,10.45,4.533,11,5,11.5c0.633,0.6,2.017,0.767,4.15,0.5c2.233-0.267,4.233-0.933,6-2
				C14.483,10.667,13.667,11.317,12.7,11.95z"/>
		</g>
	</g>
	<g>
		<g>
			<path style="fill-rule:evenodd;clip-rule:evenodd;fill:#70424A;" d="M42.3,94.9c-3.933,0.933-5.4,2.216-4.4,3.85
				c1.3,2.233,5.083,3.566,11.35,4c6.633,0.434,12.6-0.566,17.9-3c-2.133,1.667-4.733,3.2-7.8,4.6
				c-6.167,2.834-11.467,3.567-15.9,2.2c-4.833-1.5-7.733-3.5-8.7-6c-0.833-2.233-0.1-4.05,2.2-5.45c1.667-1.033,4.1-1.533,7.3-1.5
				c1.567,0.034,2.983,0.15,4.25,0.351C46.367,94.116,44.3,94.434,42.3,94.9z"/>
		</g>
	</g>
	<g>
		<g>
			<path style="fill-rule:evenodd;clip-rule:evenodd;fill:#70424A;" d="M17.1,73.35c0.633,0.034,1.2,0.084,1.7,0.15
				c-0.867,0.1-1.716,0.217-2.55,0.35c-1.667,0.301-2.35,0.801-2.05,1.5c0.367,1.233,2.017,1.9,4.95,2
				c3.072,0.133,5.539-0.634,7.4-2.3c-0.195,0.248-1.145,1.115-2.85,2.601c-2.567,1.666-4.983,2.116-7.25,1.35
				c-2.233-0.9-3.483-1.917-3.75-3.05c-0.233-1,0.2-1.75,1.3-2.25C14.767,73.366,15.8,73.25,17.1,73.35z"/>
		</g>
	</g>
	<g>
		<g>
			<path style="fill-rule:evenodd;clip-rule:evenodd;fill:#70424A;" d="M97.25,72.35c-1.167,1.4-2.667,2.784-4.5,4.15
				c-3.667,2.733-7.05,3.967-10.15,3.7c-3.367-0.267-5.567-1.15-6.6-2.65c-0.9-1.3-0.717-2.6,0.55-3.899
				c0.967-0.934,2.517-1.634,4.65-2.101c1.066-0.233,2.033-0.366,2.9-0.399c-1.4,0.433-2.717,0.949-3.95,1.55
				c-2.5,1.2-3.283,2.267-2.35,3.2c1.2,1.233,3.883,1.55,8.05,0.949C90.317,76.184,94.117,74.684,97.25,72.35z"/>
		</g>
	</g>
	<g>
		<g>
			<path style="fill-rule:evenodd;clip-rule:evenodd;fill:#70424A;" d="M148.75,122.6c1.7,0.034,3.167-0.366,4.4-1.199
				c-0.467,0.5-1.067,0.966-1.801,1.399c-1.466,0.9-2.833,1.15-4.1,0.75c-1.3-0.533-2.033-1.133-2.2-1.8
				c-0.1-0.6,0.167-1.017,0.8-1.25c0.434-0.167,1.017-0.233,1.75-0.2l0.95,0.05c-0.467,0.067-0.95,0.15-1.45,0.25
				c-0.933,0.167-1.316,0.434-1.149,0.801C146.15,122.134,147.083,122.533,148.75,122.6z"/>
		</g>
	</g>
	<g>
		<g>
			<path style="fill-rule:evenodd;clip-rule:evenodd;fill:#70424A;" d="M118.4,78.7c-0.267,1.267-0.934,2.566-2,3.899
				c-2.167,2.667-4.733,3.817-7.7,3.45c-2.767-0.6-4.367-1.583-4.8-2.95c-0.333-1.166,0.1-2.033,1.3-2.6c1.3-0.6,2.95-0.9,4.95-0.9
				c-0.834,0.233-1.684,0.5-2.551,0.801c-1.733,0.566-2.416,1.216-2.05,1.949c0.5,1.467,2.45,1.884,5.851,1.25
				C114.934,82.967,117.267,81.333,118.4,78.7z"/>
		</g>
	</g>
	<g>
		<g>
			<path style="fill-rule:evenodd;clip-rule:evenodd;fill:#70424A;" d="M113.3,96.15c-1.267,0-2.733,0.116-4.399,0.35
				c-3.301,0.5-5.851,1.45-7.65,2.85c-1.033,0.834,0.067,2.017,3.3,3.551c2.934,1.399,6.851,2.767,11.75,4.1
				c3.733,1.033,8.017,1.967,12.851,2.8c2.399,0.4,4.416,0.717,6.05,0.95c0,0.167-1.75,0.066-5.25-0.3
				c-4-0.367-7.967-0.917-11.9-1.65c-11.733-2.1-18.55-4.7-20.45-7.8c-1.867-2.7,0.183-4.3,6.15-4.8
				C106.75,95.967,109.934,95.95,113.3,96.15z"/>
		</g>
	</g>
	<g>
		<g>
			<path style="fill-rule:evenodd;clip-rule:evenodd;fill:#70424A;" d="M52.55,57.9C45.883,58.267,41.9,57.633,40.6,56
				c-1.333-1.267-0.4-2.35,2.8-3.25c1.6-0.467,3.317-0.817,5.15-1.05c-0.7,0.133-1.466,0.35-2.3,0.65
				c-1.733,0.633-3.017,1.433-3.85,2.4c-0.467,0.533,0.25,1.05,2.15,1.55c1.767,0.434,4.034,0.733,6.8,0.9
				c2.167,0.133,4.65,0.033,7.45-0.3c1.4-0.167,2.567-0.333,3.5-0.5C62.267,57.067,59.017,57.567,52.55,57.9z"/>
		</g>
	</g>
	<g>
		<g>
			<path style="fill-rule:evenodd;clip-rule:evenodd;fill:#70424A;" d="M89.25,113.7c-1.033-0.033-2.233,0.017-3.6,0.149
				c-2.767,0.267-4.967,0.95-6.6,2.051c-0.966,0.633-0.1,1.699,2.6,3.199c2.733,1.5,6.083,2.767,10.05,3.801
				c3.333,0.899,7.15,1.466,11.45,1.699c2.167,0.101,3.984,0.101,5.45,0c-1.233,0.2-2.8,0.334-4.7,0.4
				c-3.833,0.2-7.383,0.017-10.65-0.55c-3.967-0.566-7.65-1.584-11.05-3.05c-3.4-1.467-5.517-2.95-6.35-4.45
				c-1.333-2.334,0.5-3.533,5.5-3.601C83.883,113.316,86.517,113.434,89.25,113.7z"/>
		</g>
	</g>
	<g>
		<g>
			<path style="fill-rule:evenodd;clip-rule:evenodd;fill:#70424A;" d="M14.9,21.15c-2.2,0.6-3.816,1.5-4.85,2.7
				c-0.966,1.033,2.534,2.3,10.5,3.8c4,0.767,8.1,1.45,12.3,2.05c-3.533-0.167-7.217-0.467-11.05-0.9
				c-7.7-0.867-12.35-2.017-13.95-3.45c-1.667-1.6-0.483-2.883,3.55-3.85c1.976-0.461,4.118-0.761,6.425-0.9
				C16.94,20.676,15.966,20.859,14.9,21.15z"/>
		</g>
	</g>
	<g>
		<g>
			<path style="fill-rule:evenodd;clip-rule:evenodd;fill:#70424A;" d="M182.6,119.7c-1.233,0.166-2.216,0.533-2.949,1.1
				c-0.267,0.267,0.033,0.566,0.899,0.9c0.934,0.333,2.033,0.55,3.3,0.649c1.7,0.101,3.45-0.133,5.25-0.699
				c0.134,0.433-1.433,0.75-4.699,0.949c-3.267,0.2-5.167-0.233-5.7-1.3c-0.467-0.666,0.05-1.116,1.55-1.35
				C180.983,119.85,181.767,119.767,182.6,119.7z"/>
		</g>
	</g>
	<g>
		<g>
			<path style="fill-rule:evenodd;clip-rule:evenodd;fill:#70424A;" d="M32.15,118.1c-2.933,0.767-5.733,1.267-8.4,1.5
				c-3.233,0.367-6.367,0.284-9.4-0.25c-3.067-0.566-5.033-1.416-5.9-2.55c-1.333-1.633-0.067-2.883,3.8-3.75
				c1.967-0.467,4.033-0.866,6.2-1.2c-0.833,0.2-1.767,0.483-2.8,0.851c-2.066,0.733-3.667,1.649-4.8,2.75
				c-0.7,0.7,0.183,1.416,2.65,2.149c2.533,0.733,5.433,1.084,8.7,1.051c2.767,0.033,5.867-0.233,9.3-0.801
				c1.7-0.267,3.117-0.533,4.25-0.8C34.817,117.384,33.617,117.733,32.15,118.1z"/>
		</g>
	</g>
	<g>
		<g>
			<path style="fill-rule:evenodd;clip-rule:evenodd;fill:#70424A;" d="M159.4,109.7c-1.934,0.3-3.351,0.967-4.25,2
				c-0.634,0.767,1.399,1.35,6.1,1.75c2.327,0.198,4.094,0.307,5.3,0.325c-7.116,0.626-11.332,0.233-12.649-1.176
				c-0.9-0.866-0.25-1.6,1.949-2.199C156.95,110.1,158.134,109.866,159.4,109.7z"/>
		</g>
	</g>
	<g>
		<g>
			<path style="fill-rule:evenodd;clip-rule:evenodd;fill:#70424A;" d="M65.35,42.65c-1.6,0.2-2.767,0.75-3.5,1.65
				c-0.467,0.534,1.167,1.05,4.9,1.55c1.867,0.233,3.783,0.417,5.75,0.55c-1.633,0.067-3.35,0.05-5.15-0.05
				c-3.567-0.2-5.733-0.65-6.5-1.35c-0.767-0.733-0.25-1.35,1.55-1.85C63.3,42.917,64.283,42.75,65.35,42.65z"/>
		</g>
	</g>
</g>
</svg>
