<?xml version="1.0" encoding="iso-8859-1"?>
<!-- Generator: Adobe Illustrator 15.1.0, SVG Export Plug-In . SVG Version: 6.00 Build 0)  -->
<!DOCTYPE svg PUBLIC "-//W3C//DTD SVG 1.1//EN" "http://www.w3.org/Graphics/SVG/1.1/DTD/svg11.dtd">
<svg version="1.1" id="buildings" xmlns="http://www.w3.org/2000/svg" xmlns:xlink="http://www.w3.org/1999/xlink" x="0px" y="0px"
	 width="110.25px" height="162.4px" viewBox="0 0 110.25 162.4" style="enable-background:new 0 0 110.25 162.4;"
	 xml:space="preserve">
<g>
	<g>
		<path style="fill-rule:evenodd;clip-rule:evenodd;fill:#357762;" d="M39.95,60.1c4.367-2.7,8.066-4.667,11.1-5.9l0.85,5.95
			c0.767,4.133,1.684,6.633,2.75,7.5c1.734,1.4,4.15,2.583,7.25,3.55c-4.567,0.1-9.55,0.983-14.95,2.65
			c-10.767,3.333-18.217,8.966-22.35,16.9s-6.6,21.283-7.4,40.05c-0.4,9.367-0.383,17.95,0.05,25.75
			c-1.033,1.101-2.417,1.95-4.15,2.55c-3.5,1.233-7.017,0.684-10.55-1.649c-0.233-10.134,0.184-20.983,1.25-32.55
			c2.133-23.2,6.517-38.45,13.15-45.75C23.55,71.85,31.217,65.5,39.95,60.1z"/>
		<g>
			<path style="fill-rule:evenodd;clip-rule:evenodd;fill:#206652;" d="M16.95,79.15c1-1.1,2.517-2.667,4.55-4.7l0.25-0.05
				l-3.55,4.55c-2.733,4.233-5,9.316-6.8,15.25c-2.066,6.866-3.167,18.899-3.3,36.1c-0.067,8.601,0.083,16.517,0.45,23.75
				C6.517,153.983,4.5,154.3,2.5,155c-0.067-12.934,0.583-25.066,1.95-36.4C6.817,98.9,10.983,85.75,16.95,79.15z"/>
			<path style="fill-rule:evenodd;clip-rule:evenodd;fill:#206652;" d="M22.85,92.15c2.367-6.801,5.9-12.101,10.6-15.9
				c4.7-3.8,9.283-6.6,13.75-8.4c2.233-0.867,4-1.367,5.3-1.5l2.25,1.4c1.733,1.333,4.116,2.483,7.15,3.45
				c-4.567,0.1-9.55,0.983-14.95,2.65c-10.767,3.333-18.217,8.966-22.35,16.9c-1.4,2.634-2.65,6.1-3.75,10.4H20.7
				C20.933,98.517,21.65,95.517,22.85,92.15z"/>
		</g>
		<path style="fill-rule:evenodd;clip-rule:evenodd;fill:#254B3F;" d="M14.25,152.75c1.1-0.467,2.05-0.934,2.85-1.4l1,1.9
			c0.7,1.4,1.083,2.517,1.15,3.35c0.067,1-0.9,2.167-2.9,3.5c-2,1.301-3.934,2.051-5.8,2.25c-1.7,0.2-3.633,0-5.8-0.6
			c-1.867-0.533-3.167-1.1-3.9-1.7C0.317,159.583,0.033,158.9,0,158c0-0.634,0.167-1.533,0.5-2.7c0.267-0.833,0.683-1.7,1.25-2.6
			L2.5,151.6l1.6,1.15c1.4,0.8,2.883,1.233,4.45,1.3C10.117,154.083,12.017,153.65,14.25,152.75z"/>
		<path style="fill-rule:evenodd;clip-rule:evenodd;fill:#5B907C;" d="M51.05,54.2c2.3-1.467,4.8-1.6,7.5-0.4
			c2.4,1.067,4.417,2.883,6.05,5.45c1.634,2.533,2.284,4.917,1.95,7.15c-0.333,2.5-1.883,4.1-4.649,4.8
			c-5.434,1.367-9.367-0.684-11.8-6.15c-0.934-2.133-1.317-4.267-1.15-6.4C49.083,56.483,49.783,55,51.05,54.2z"/>
		
			<linearGradient id="SVGID_1_" gradientUnits="userSpaceOnUse" x1="54.604" y1="60.3374" x2="66.5599" y2="60.3374" gradientTransform="matrix(0.9995 0.0314 -0.0314 0.9995 -1.718253e-004 -6.886199e-005)">
			<stop  offset="0" style="stop-color:#893342"/>
			<stop  offset="1" style="stop-color:#2D1D1E"/>
		</linearGradient>
		<path style="fill-rule:evenodd;clip-rule:evenodd;fill:url(#SVGID_1_);" d="M54.6,55.4c1.4-0.367,2.966,0.017,4.7,1.15
			c1.601,1.067,2.917,2.483,3.95,4.25c1.1,1.833,1.517,3.467,1.25,4.9c-0.3,1.633-1.483,2.683-3.55,3.15
			c-3.967,0.9-6.55-0.967-7.75-5.6c-0.467-1.767-0.567-3.45-0.3-5.05C53.2,56.567,53.767,55.633,54.6,55.4z"/>
		<path style="fill-rule:evenodd;clip-rule:evenodd;fill:#295648;" d="M9.1,96.75l2-5.4L10.3,94.2c-0.6,2.267-1.083,4.25-1.45,5.95
			c-0.5,2.366-0.983,5.616-1.45,9.75c-0.566,4.866-0.917,9.6-1.05,14.199c-0.2,6.634-0.167,16.217,0.1,28.75
			c-1.167-0.033-2.184-0.533-3.05-1.5c0.733-18.3,1.6-31.6,2.6-39.899C6.633,106.25,7.667,101.35,9.1,96.75z"/>
		<path style="fill-rule:evenodd;clip-rule:evenodd;fill:#295648;" d="M36,77.75c-1.7,1.033-3.217,1.983-4.55,2.85
			c1.633-1.967,3.983-4.033,7.05-6.2c1.933-1.333,4.567-2.683,7.9-4.05c1.667-0.7,3.133-1.267,4.4-1.7
			c0.267,0.8,0.917,1.517,1.95,2.15c0.533,0.3,1.033,0.534,1.5,0.7c-1.033,0.067-2.233,0.2-3.6,0.4c-2.767,0.4-5.05,0.967-6.85,1.7
			C42,74.3,39.4,75.683,36,77.75z"/>
		<path style="fill-rule:evenodd;clip-rule:evenodd;fill:#5B907C;" d="M39.35,64.2c-3.067,1.8-8.4,5.333-16,10.6
			c2.867-3.066,5.75-5.767,8.65-8.1c2.9-2.333,7.917-5.6,15.05-9.8c-0.566,0.533-0.9,1.533-1,3c-0.066,0.767-0.066,1.467,0,2.1
			c-0.367-0.1-0.917-0.083-1.65,0.05C42.933,62.35,41.25,63.067,39.35,64.2z"/>
		<path style="fill-rule:evenodd;clip-rule:evenodd;fill:#5B907C;" d="M18.2,92.7l-1.3,5.75c-0.967,4.934-1.633,10.1-2,15.5
			c-0.367,5.434-0.367,13.233,0,23.399c0.167,5.101,0.383,9.65,0.65,13.65l-1.8,0.55c-0.467,0.134-0.917,0.217-1.35,0.25l-0.5-0.05
			c-0.066-14.667,0.017-25.667,0.25-33c0.133-4.566,1.184-10.283,3.15-17.15L18.2,92.7z"/>
		<path style="fill-rule:evenodd;clip-rule:evenodd;fill:#1F362F;" d="M14.8,154.35c0.6,0.067,1.217-0.267,1.85-1l0.85,1
			c0.567,0.767,0.85,1.434,0.85,2c0.033,0.9-0.934,1.784-2.9,2.65c0.1-0.2,0.233-0.816,0.4-1.85c0.1-0.634-0.05-1.301-0.45-2
			L14.8,154.35z"/>
		<g>
			<path style="fill-rule:evenodd;clip-rule:evenodd;fill:#24463B;" d="M16,160.25l-0.2,0.2c-1.9,1.133-3.65,1.767-5.25,1.899
				c-1.7,0.2-3.633,0-5.8-0.6c-1.867-0.533-3.167-1.1-3.9-1.7C0.317,159.583,0.033,158.9,0,158c0-0.634,0.167-1.533,0.5-2.7
				c0.267-0.833,0.683-1.7,1.25-2.6L2.5,151.6l1.6,1.15c1.4,0.8,2.883,1.233,4.45,1.3l-0.4,1.4c-0.233,1.1-0.316,2.1-0.25,3
				c0.133,1.033,0.6,1.8,1.4,2.3c0.7,0.434,1.55,0.616,2.55,0.55C13.05,161.233,14.433,160.884,16,160.25z"/>
		</g>
		<path style="fill-rule:evenodd;clip-rule:evenodd;fill:#40695C;" d="M3.75,153.75c0.267,0.434,0.867,0.85,1.8,1.25l-0.7,2
			c-0.1,0.366-0.217,0.934-0.35,1.7c-0.1,0.6-0.267,0.866-0.5,0.8c-0.267-0.066-0.55-0.333-0.85-0.8
			c-0.3-0.533-0.433-1.017-0.4-1.45c0.033-0.4,0.217-1.1,0.55-2.1L3.75,153.75z"/>
	</g>
	<path style="fill-rule:evenodd;clip-rule:evenodd;fill:#A9AC5D;" d="M17.75,37c5.333,2.433,9.767,5.217,13.3,8.35
		c4.534,3.967,6.85,7.933,6.95,11.9c0.1,3.633-0.95,6.733-3.15,9.3c-1.1,1.267-2.217,2.167-3.35,2.7c0.3-1.5,0.517-3.267,0.65-5.3
		c0.233-4.034-0.066-7.35-0.9-9.95s-3.333-6.217-7.5-10.85L17.75,37z"/>
	<path style="fill-rule:evenodd;clip-rule:evenodd;fill:#A2A550;" d="M23.75,76.5c2-2,6.1-3.9,12.3-5.7c7.167-2.1,13.4-2.7,18.7-1.8
		c4.9,0.833,8.616,5.75,11.15,14.75c1.267,4.5,2.05,8.917,2.35,13.25c-1.733-2.533-3.934-5.25-6.6-8.15
		c-5.334-5.8-10.3-9.583-14.9-11.35c-4.567-1.767-9.767-2.467-15.6-2.1L23.75,76.5z"/>
	<path style="fill-rule:evenodd;clip-rule:evenodd;fill:#DEDFA2;" d="M88.7,69.65c3.533,2,6.883,3.617,10.05,4.85
		c-1.9-0.4-4.233-0.633-7-0.7c-5.5-0.066-10.333,0.833-14.5,2.7S70.333,82.35,69,88.45c-0.667,3.033-0.917,5.883-0.75,8.55
		c-0.5-2.333-1.366-4.95-2.6-7.85c-2.5-5.834-5.634-10.217-9.4-13.15c-3.733-2.9-10.267-3.683-19.6-2.35
		c-4.667,0.667-8.967,1.617-12.9,2.85c1.5-1.067,3.083-2.583,4.75-4.55c3.333-3.934,5.417-8.083,6.25-12.45S33,50.067,27,44.3
		c-1.867-1.767-3.967-3.517-6.3-5.25L17.75,37l2.9,1.25c2.333,0.9,4.583,1.533,6.75,1.9c6.833,1.167,11.283-0.55,13.35-5.15
		l3.55,2.95c3.1,2.233,6.417,4.083,9.95,5.55s7.1,0.733,10.7-2.2c1.8-1.433,3.233-3.033,4.3-4.8l1.3,7.4
		c1.267,5.667,2.834,10.367,4.7,14.1C77.116,61.767,81.6,65.65,88.7,69.65z"/>
	
		<linearGradient id="SVGID_2_" gradientUnits="userSpaceOnUse" x1="-7.5889" y1="-63.8711" x2="0.0729" y2="-63.8711" gradientTransform="matrix(-0.8321 0.5547 -0.5547 -0.8321 -3.497005e-004 3.693104e-004)">
		<stop  offset="0" style="stop-color:#893342"/>
		<stop  offset="1" style="stop-color:#2D1D1E"/>
	</linearGradient>
	<path style="fill-rule:evenodd;clip-rule:evenodd;fill:url(#SVGID_2_);" d="M35,44.4c0.8-0.367,1.933,0,3.4,1.1
		c1.434,1.067,2.717,2.433,3.85,4.1c2.967,4.267,3,6.867,0.1,7.8c-3,0.967-5.55-0.7-7.65-5c-0.867-1.733-1.3-3.35-1.3-4.85
		C33.4,45.917,33.933,44.867,35,44.4z"/>
	
		<linearGradient id="SVGID_3_" gradientUnits="userSpaceOnUse" x1="-29.499" y1="-77.4463" x2="-22.0387" y2="-77.4463" gradientTransform="matrix(-0.8545 0.5194 -0.5194 -0.8545 9.104013e-004 -4.671216e-004)">
		<stop  offset="0" style="stop-color:#893342"/>
		<stop  offset="1" style="stop-color:#2D1D1E"/>
	</linearGradient>
	<path style="fill-rule:evenodd;clip-rule:evenodd;fill:url(#SVGID_3_);" d="M58.75,47.75c1.066-0.6,2.316-0.55,3.75,0.15
		c1.267,0.633,2.4,1.633,3.4,3c1.033,1.367,1.583,2.684,1.649,3.95c0.066,1.367-0.5,2.333-1.7,2.9
		c-2.433,1.133-4.683,0.017-6.75-3.35c-0.833-1.333-1.3-2.633-1.399-3.9C57.566,49.167,57.917,48.25,58.75,47.75z"/>
	
		<linearGradient id="SVGID_4_" gradientUnits="userSpaceOnUse" x1="-15.3354" y1="-97.0366" x2="-7.4204" y2="-97.0366" gradientTransform="matrix(-0.8023 0.597 -0.597 -0.8023 -4.032254e-004 -1.030564e-004)">
		<stop  offset="0" style="stop-color:#893342"/>
		<stop  offset="1" style="stop-color:#2D1D1E"/>
	</linearGradient>
	<path style="fill-rule:evenodd;clip-rule:evenodd;fill:url(#SVGID_4_);" d="M64,65.5c0.9-0.333,2.017-0.067,3.35,0.8
		c1.233,0.833,2.301,1.934,3.2,3.3c2.334,3.533,2.15,5.883-0.55,7.05c-2.767,1.2-5.066-0.133-6.9-4
		c-0.733-1.533-1.05-2.967-0.949-4.3C62.283,66.883,62.9,65.933,64,65.5z"/>
	<path style="fill-rule:evenodd;clip-rule:evenodd;fill:#DC8D68;" d="M52.75,39.5c-1.967,5.933-4.25,10.617-6.85,14.05
		c-1.3,1.7-2.4,2.817-3.3,3.35c-1.567,0.233-3.067-0.15-4.5-1.15c-1.467-1-2.617-2.65-3.45-4.95c-0.9-2.566-0.75-4.533,0.45-5.9
		c1.367-0.133,2.933-0.767,4.7-1.9c3.534-2.267,6.267-5.933,8.2-11c2.133-5.633,2.983-12.65,2.55-21.05
		c-0.2-4.2-0.633-7.85-1.3-10.95c1.367,4.2,2.55,9,3.55,14.4C54.733,25.2,54.717,33.567,52.75,39.5z"/>
	<path style="fill-rule:evenodd;clip-rule:evenodd;fill:#357762;" d="M104.35,47.6c-4.8,7.7-9.333,13.167-13.6,16.4
		s-9.134,6.267-14.6,9.1c-2.733,1.433-5.034,2.533-6.9,3.3c-1.8-0.033-3.184-0.617-4.15-1.75c-1-1.2-1.683-2.6-2.05-4.2
		c-0.5-2.1,0.017-3.617,1.55-4.55l12.25-2.85c8.9-2.6,15.284-5.617,19.15-9.05s7.4-7.3,10.6-11.6c1.601-2.133,2.817-3.933,3.65-5.4
		C108.717,40.2,106.75,43.733,104.35,47.6z"/>
	<path style="fill-rule:evenodd;clip-rule:evenodd;fill:#D15869;" d="M73,48.75c-3.333,4.167-5.967,7-7.9,8.5
		c-0.267,0.1-0.616,0.117-1.05,0.05c-0.866-0.066-1.684-0.417-2.45-1.05c-1.166-0.967-2.033-2.183-2.6-3.65
		c-0.634-1.7-0.55-3.184,0.25-4.45l3.65-0.9c2.899-1.267,5.6-3.517,8.1-6.75s5.3-7.7,8.4-13.4c1.533-2.867,2.816-5.4,3.85-7.6
		c-0.866,3.833-1.95,7.933-3.25,12.3C77.434,40.5,75.1,46.15,73,48.75z"/>
	<g>
		<path style="fill-rule:evenodd;clip-rule:evenodd;fill:#D36E4A;" d="M48,32c2.133-5.633,2.983-12.65,2.55-21.05
			c-0.2-4.2-0.633-7.85-1.3-10.95c0.933,3.367,1.683,7.35,2.25,11.95c1.167,9.233,0.867,16.966-0.9,23.2
			c-2.2,7.833-6.65,14.467-13.35,19.9c-1.3-1.333-2.233-2.983-2.8-4.95c-0.633-2.233-0.417-3.967,0.65-5.2
			c1.367-0.133,2.933-0.767,4.7-1.9C43.333,40.733,46.067,37.067,48,32z"/>
	</g>
	<g>
		<path style="fill-rule:evenodd;clip-rule:evenodd;fill:#206652;" d="M110.25,37c-1.533,2.967-3.566,6.217-6.1,9.75
			c-5,7.067-9.934,12.033-14.801,14.9C82.983,65.45,74.533,69.2,64,72.9c-0.7-1.333-1.066-2.566-1.1-3.7
			c-0.034-1.467,0.533-2.567,1.699-3.3l12.25-2.85c8.9-2.6,15.284-5.617,19.15-9.05s7.4-7.3,10.6-11.6
			C108.2,40.267,109.417,38.467,110.25,37z"/>
	</g>
	<g>
		<path style="fill-rule:evenodd;clip-rule:evenodd;fill:#CA3654;" d="M59.25,48.15l3.65-0.9c2.899-1.267,5.6-3.517,8.1-6.75
			s5.3-7.7,8.4-13.4c1.533-2.867,2.816-5.4,3.85-7.6c-0.8,2.6-1.8,5.5-3,8.7c-2.4,6.433-4.533,11.25-6.4,14.45
			c-2.1,3.6-6.649,7.633-13.649,12.1c-0.767-1.067-1.267-2.15-1.5-3.25C58.467,50.233,58.65,49.117,59.25,48.15z"/>
	</g>
	<path style="fill-rule:evenodd;clip-rule:evenodd;fill:#C46544;" d="M51.5,18.15c0,2.233-0.167,4.783-0.5,7.65
		c-0.633,5.767-1.767,10.3-3.4,13.6c-1.6,3.267-3.717,6.2-6.35,8.8c-1.333,1.333-2.5,2.316-3.5,2.95c-1.267-1.5-1.9-2.717-1.9-3.65
		c0-0.567,0.083-1.05,0.25-1.45l0.25-0.4c1.267-0.7,2.633-1.517,4.1-2.45c2.867-1.867,4.716-3.434,5.55-4.7
		c1.967-2.9,3.467-7.167,4.5-12.8C51.033,22.9,51.367,20.383,51.5,18.15z"/>
	<path style="fill-rule:evenodd;clip-rule:evenodd;fill:#A2394A;" d="M71.35,44c-1.8,2.4-5.3,5.317-10.5,8.75
		c-0.399-0.133-0.75-0.367-1.05-0.7c-0.566-0.733-0.5-1.667,0.2-2.8l4-1.9c2.9-1.5,4.9-2.9,6-4.2c1.733-2.1,4.684-6.483,8.85-13.15
		C76.017,36.5,73.517,41.167,71.35,44z"/>
	<path style="fill-rule:evenodd;clip-rule:evenodd;fill:#295648;" d="M91.55,57.55c2.233-1.333,4.134-2.55,5.7-3.65
		c-4.5,3.9-8.3,6.767-11.4,8.6c-3.066,1.833-10.066,4.717-21,8.65c-0.399-0.333-0.6-0.967-0.6-1.9c0-0.567,0.217-1.133,0.65-1.7
		c0.199-0.267,0.399-0.483,0.6-0.65l4.2-0.6c3.434-0.667,6.816-1.633,10.149-2.9C83.184,62.167,87.083,60.217,91.55,57.55z"/>
	<path style="fill-rule:evenodd;clip-rule:evenodd;fill:#E9BB99;" d="M52.975,19.8c0.144,1.049,0.402,2.666,0.775,4.85
		c0.4,5.133-0.133,10.167-1.6,15.1c-0.633,2.167-1.85,4.75-3.65,7.75c-0.9,1.5-1.733,2.783-2.5,3.85c0.9-1.333,1.4-2.367,1.5-3.1
		c0.067-0.433-0.4-0.283-1.4,0.45c-0.5,0.367-1,0.783-1.5,1.25c2.5-3.7,4.633-7.617,6.4-11.75c1.5-3.534,2.267-7.9,2.3-13.1
		L52.975,19.8z"/>
	<path style="fill-rule:evenodd;clip-rule:evenodd;fill:#EA878B;" d="M79.425,32.075c-2.368,7.386-4.227,12.277-5.575,14.675
		c-0.933,1.667-2.216,3.267-3.85,4.8l-2.15,1.8L69.9,50.5c0.399-0.433-0.45-0.183-2.551,0.75c2.867-2.867,5.167-5.417,6.9-7.65
		C75.737,41.646,77.463,37.804,79.425,32.075z"/>
	<path style="fill-rule:evenodd;clip-rule:evenodd;fill:#5B907C;" d="M90.75,63.5C87.583,65.833,82,69.083,74,73.25
		c4.167-2.667,5.583-3.967,4.25-3.9c-0.967,0.033-2.15,0.233-3.55,0.6c-0.475,0.113-0.875,0.213-1.2,0.3
		c8.479-3.705,14.146-6.472,17-8.3c2.934-1.9,6.267-5.05,10-9.45c-0.833,1.267-1.866,2.667-3.1,4.2
		C94.934,59.767,92.717,62.033,90.75,63.5z"/>
</g>
</svg>
