<?xml version="1.0" encoding="iso-8859-1"?>
<!-- Generator: Adobe Illustrator 15.1.0, SVG Export Plug-In . SVG Version: 6.00 Build 0)  -->
<!DOCTYPE svg PUBLIC "-//W3C//DTD SVG 1.1//EN" "http://www.w3.org/Graphics/SVG/1.1/DTD/svg11.dtd">
<svg version="1.1" id="Isolation_Mode" xmlns="http://www.w3.org/2000/svg" xmlns:xlink="http://www.w3.org/1999/xlink" x="0px"
	 y="0px" width="92.2px" height="170.8px" viewBox="0 0 92.2 170.8" style="enable-background:new 0 0 92.2 170.8;"
	 xml:space="preserve">
<g>
	
		<linearGradient id="SVGID_1_" gradientUnits="userSpaceOnUse" x1="15.146" y1="-54.1167" x2="47.821" y2="-54.1167" gradientTransform="matrix(3.060444e-005 1 -1 0.1085 -6.737391e-006 -2.077669e-004)">
		<stop  offset="0" style="stop-color:#D3CCB7"/>
		<stop  offset="1" style="stop-color:#AC9E76"/>
	</linearGradient>
	<path style="fill-rule:evenodd;clip-rule:evenodd;fill:url(#SVGID_1_);" d="M74,14.5c5.5,7.1,10.366,18.233,14.6,33.4
		c2.634,9.367,3.817,32.317,3.551,68.85c-0.101,18.267-0.483,35.6-1.15,52l-3.9,2.05L16.05,8.95c2.267-1.934,5.383-3.733,9.35-5.4
		c7.934-3.333,16.184-4.316,24.75-2.95C60.05,2.167,68,6.8,74,14.5z"/>
	<path style="fill-rule:evenodd;clip-rule:evenodd;fill:#8B7C53;" d="M74.15,30.3c6.767,14.034,10.966,30.217,12.6,48.55
		c1.1,12.367,1.483,31.4,1.15,57.1c-0.134,12.866-0.4,24.483-0.801,34.85l-71.75-2.149c-2.333-12.767-4.717-26.317-7.15-40.65
		C3.367,99.4,0.8,81.25,0.5,73.55C-1.1,50.883,1.283,33.133,7.65,20.3C14.717,6,26.017-0.25,41.55,1.55
		C54.816,3.083,65.684,12.667,74.15,30.3z"/>
	<path style="fill-rule:evenodd;clip-rule:evenodd;fill:#628F94;" d="M6.3,83.1c-1.6-24.434,0.067-42.983,5-55.65
		c6.167-15.867,17.3-22.034,33.4-18.5c23.267,8.933,36.267,38.566,39,88.899c1.366,25.167,0.399,49.45-2.9,72.851l-60.3-1.9
		c-1.9-7.3-3.933-16.35-6.1-27.149C10.133,120.083,7.433,100.566,6.3,83.1z"/>
	<path style="fill-rule:evenodd;clip-rule:evenodd;fill:#85A7AC;" d="M11.8,63c1.034-35.833,12.717-51.033,35.05-45.6
		c19.467,7.367,29.5,35.1,30.101,83.2c0.3,24.067-1.351,47.384-4.95,69.95l-44.45-1.399c-1.333-4.634-2.733-9.784-4.2-15.45
		c-2.967-11.367-4.767-19.667-5.4-24.9c-1.434-8.7-2.667-17.083-3.7-25.149C12.283,88.083,11.467,74.533,11.8,63z"/>
	<path style="fill-rule:evenodd;clip-rule:evenodd;fill:#495352;" d="M23.6,93.6c1.566,0.167,2.95,0.95,4.15,2.351
		c1.067,1.3,1.75,2.816,2.05,4.55c0.333,1.767,0.15,3.217-0.55,4.35c-0.767,1.267-2.017,1.851-3.75,1.75
		c-3.533-0.199-5.433-2.483-5.7-6.85c-0.1-1.733,0.184-3.2,0.85-4.4C21.35,94.05,22.333,93.467,23.6,93.6z"/>
	<path style="fill-rule:evenodd;clip-rule:evenodd;fill:#628F94;" d="M60.1,73.6c1.034,2.566,1.733,5.55,2.101,8.95
		c0.434,3.5,0.399,6.417-0.101,8.75c-0.566,2.601-1.616,3.884-3.149,3.851C57.417,95.116,56,93.667,54.7,90.8
		c-1.2-2.633-2.017-5.75-2.45-9.35c-0.434-3.667-0.333-6.667,0.3-9c0.767-2.6,2.117-3.717,4.05-3.35
		C57.866,69.333,59.033,70.833,60.1,73.6z M58.65,78.25c-0.534-1.867-1.517-2.883-2.95-3.05c-0.867-0.1-1.25,0.683-1.15,2.35
		c0.101,1.7,0.9,2.7,2.4,3C58.616,80.85,59.184,80.083,58.65,78.25z"/>
	<path style="fill-rule:evenodd;clip-rule:evenodd;fill:#628F94;" d="M53.95,40.8c2.166,11.967,3.866,19.2,5.1,21.7
		c1.767,3.5,3.417,7.883,4.95,13.15c1.866,6.333,2.75,11.534,2.65,15.6c-0.101,3.533,0.166,10.684,0.8,21.45
		c0.3,5.633,0.7,12.267,1.2,19.899c0.066,1.634,0.699,4.884,1.899,9.75c1,4.134,1.351,7.233,1.05,9.301
		c-0.3,1.866-0.883,3.316-1.75,4.35c-0.733,0.9-1.133,2-1.199,3.3c-0.134,2.634-0.117,6.351,0.05,11.15l-2.8-0.601
		c0.966-10.166,1.333-18.983,1.1-26.449c-0.066-2.634-0.634-10.9-1.7-24.801c-0.866-11.633-1.184-19.416-0.95-23.35
		c0.301-5.267-0.116-10.4-1.25-15.4c-1.033-4.467-2.767-9.383-5.199-14.75c-2.034-4.5-3.784-12.767-5.25-24.8
		c-0.7-6.033-1.217-11.617-1.551-16.75C51.934,29.05,52.884,34.8,53.95,40.8z"/>
	<polygon style="fill-rule:evenodd;clip-rule:evenodd;fill:#628F94;" points="71.7,113 70.45,136.55 69.7,113.25 	"/>
	<path style="fill-rule:evenodd;clip-rule:evenodd;fill:#628F94;" d="M59.4,45.5l0.6,6.05c0.566,4.4,1.217,7.583,1.95,9.55
		c1.166,3,1.833,5.3,2,6.9c-0.867-2.067-1.783-4.4-2.75-7c-1.9-5.2-3.066-9.1-3.5-11.7c-0.5-3.066-0.5-4.95,0-5.65
		C58.167,43.017,58.733,43.633,59.4,45.5z"/>
	<path style="fill-rule:evenodd;clip-rule:evenodd;fill:#628F94;" d="M31.9,143.4c0.233-2.367,0.25-3.884,0.05-4.551
		c-0.3-1.1-0.817-2.649-1.55-4.649l-0.95-2.7h2.2L32,133c0.3,1.233,0.633,2.366,1,3.4c0.267,0.699,1.35,2.149,3.25,4.35
		c1.867,2.134,3,3.866,3.4,5.2c0.367,1.2-0.133,2.7-1.5,4.5c-1.5,1.899-2.217,3.383-2.15,4.45c0.167,2.233,1.15,6.816,2.95,13.75
		l-1.9,0.399c-0.3-1.767-0.783-3.767-1.45-6c-0.967-3.2-2.067-7.45-3.3-12.75C31.8,148.2,31.667,145.9,31.9,143.4z"/>
	<path style="fill-rule:evenodd;clip-rule:evenodd;fill:#628F94;" d="M41.25,157.05c-1.133-0.033-1.467,1.334-1,4.101
		c0.467,2.733,1.383,4.183,2.75,4.35c1.333,0.134,1.6-1.233,0.8-4.1C43.033,158.5,42.183,157.05,41.25,157.05z M43.35,166.8
		c-1.967-0.2-3.517-2.267-4.65-6.2c-1.1-3.933-0.25-5.8,2.55-5.6c1.9,0.134,3.183,2.167,3.85,6.1
		C45.733,165.066,45.15,166.967,43.35,166.8z"/>
	<path style="fill-rule:evenodd;clip-rule:evenodd;fill:#628F94;" d="M20,50.4l0.2-10.75l1.35,16.4
		c1.034,11.667,1.967,19.267,2.8,22.8c1.233,5.3,2.183,9.534,2.85,12.7c-1.434-3.1-2.817-7.4-4.15-12.9
		c-1.066-4.4-1.9-8.55-2.5-12.45C20.15,63.4,19.967,58.133,20,50.4z"/>
	<path style="fill-rule:evenodd;clip-rule:evenodd;fill:#628F94;" d="M35,20.65c1.4,9.767,2.8,20.133,4.2,31.1
		c2.833,21.933,4.283,35.917,4.35,41.95c0.1,6.066,0.95,14.3,2.55,24.7c1.467,9.366,2.717,15.649,3.75,18.85
		c0.733,2.167,1.167,5.767,1.301,10.8c0.066,2.533,0.05,4.834-0.051,6.9c-0.233-0.967-0.55-1.9-0.949-2.8
		c-0.767-1.733-1.483-2.334-2.15-1.801c-0.667,0.534-1.1,1.384-1.3,2.551c-0.101,0.566-0.134,1.083-0.101,1.55
		c-0.199-0.7-0.383-1.617-0.55-2.75c-0.3-2.334-0.333-4.667-0.1-7c0.399-4.066,0.616-6.717,0.649-7.95
		c0.134-2.8,0.017-5.65-0.35-8.55c-0.5-3.7-1.283-10.351-2.35-19.95c-1.167-10.167-2.017-17.884-2.55-23.15
		c-0.5-4.967-1.833-15.317-4-31.05c-1.1-7.867-2.15-15.25-3.15-22.15L35,20.65z"/>
	<path style="fill-rule:evenodd;clip-rule:evenodd;fill:#628F94;" d="M48.75,154.25c1,0.033,1.634,1.233,1.9,3.6
		c0.233,2.334-0.2,3.384-1.301,3.15c-1.133-0.267-1.833-1.45-2.1-3.55C46.983,155.316,47.483,154.25,48.75,154.25z"/>
	<path style="fill-rule:evenodd;clip-rule:evenodd;fill:#628F94;" d="M50,92.9l-0.55-6.7l1.399,6.5c1.467,4.6,3.634,7.583,6.5,8.95
		c1.567,0.767,2.884,0.399,3.95-1.101l1.15-2.5L60.8,107c-1,6.6-1.267,11.566-0.8,14.9c0.7,5.033,1.4,11.933,2.1,20.699
		c-0.633-1.699-0.916-1.366-0.85,1c0.033,1.167,0.134,2.517,0.3,4.051c-0.767,13.5-1.184,20.066-1.25,19.699
		c-0.033-0.233-0.033-3.116,0-8.649c0.033-5.066,0.066-8.4,0.101-10c0-1.667-0.284-5.767-0.851-12.3
		c-0.666-7.5-1.316-13.117-1.95-16.851c-0.666-3.833-1.517-7.1-2.55-9.8c-1.267-2.833-2.25-5.033-2.95-6.6
		C51.233,101.184,50.533,97.767,50,92.9z"/>
	<path style="fill-rule:evenodd;clip-rule:evenodd;fill:#628F94;" d="M65,156.1l-0.15,10.45l-1.75,2.101
		c0.434-2.567,0.851-5.134,1.25-7.7C64.653,158.918,64.87,157.301,65,156.1z"/>
	<polygon style="fill-rule:evenodd;clip-rule:evenodd;fill:#628F94;" points="43.05,23.9 45.2,68.55 41,31.45 	"/>
	<path style="fill-rule:evenodd;clip-rule:evenodd;fill:#628F94;" d="M51.15,127.3l2.25,7.8c1.566,5.601,2.5,9.483,2.8,11.65
		c0.467,3.333,0.5,7.15,0.1,11.45l-2.45-0.5c0.334-1.334,0.617-2.851,0.851-4.55c0.467-3.4,0.483-6,0.05-7.801L51.15,127.3z"/>
	<polygon style="fill-rule:evenodd;clip-rule:evenodd;fill:#628F94;" points="55.15,169.25 53.45,169.05 53,160.6 	"/>
	<path style="fill-rule:evenodd;clip-rule:evenodd;fill:#628F94;" d="M32.15,35.35l0.45,11c0.433,8.133,1,14.183,1.7,18.15
		c1.034,5.9,2,12.4,2.9,19.5c-1.233-1.4-2.367-2.167-3.4-2.3c-0.667-0.1-1.1-0.017-1.3,0.25c-0.059,0.079-0.093,0.162-0.1,0.25
		c-0.3-7.927-0.467-13.544-0.5-16.85c-0.033-2.167-0.467-9-1.3-20.5c-0.434-5.733-0.867-11.267-1.3-16.6L32.15,35.35z"/>
	<polygon style="fill-rule:evenodd;clip-rule:evenodd;fill:#628F94;" points="43.45,141.15 40.4,121.1 42.1,121.95 	"/>
	<polygon style="fill-rule:evenodd;clip-rule:evenodd;fill:#628F94;" points="19.9,106.8 28.65,146.9 20.75,119.6 	"/>
	<polygon style="fill-rule:evenodd;clip-rule:evenodd;fill:#628F94;" points="29,167.95 25,144.25 30.7,167.95 	"/>
	<path style="fill-rule:evenodd;clip-rule:evenodd;fill:#628F94;" d="M14.7,66.35l0.6-15.1l0.35,12.65c0.4,9.033,0.967,15,1.7,17.9
		c0.733,2.9,2.083,5.267,4.05,7.101c0.658,0.611,1.283,1.095,1.875,1.449c-0.146-0.057-0.305-0.107-0.475-0.149
		c-1.066-0.267-2.133-0.084-3.2,0.55c-1.067,0.634-1.95,3.767-2.65,9.4c-0.333,2.8-0.567,5.55-0.7,8.25
		c-1.233-8.101-1.9-14.967-2-20.601C14.183,84.267,14.333,77.117,14.7,66.35z"/>
	<polygon style="fill-rule:evenodd;clip-rule:evenodd;fill:#628F94;" points="23.15,27.1 26.5,23.4 26.6,60.9 	"/>
	<path style="fill-rule:evenodd;clip-rule:evenodd;fill:#628F94;" d="M31.75,90.25l1.7,5.9c1.1,4.399,1.617,7.75,1.55,10.05
		c-0.067,2.066-1.067,3.666-3,4.8c-1.867,1.066-2.767,1.866-2.7,2.4c0.167,1.5,1.05,6.633,2.65,15.399l-2.65-1.5l-3-15.899
		l1.45,0.05c1.233-0.4,2.467-1.584,3.7-3.55c1.267-1.967,1.7-5.5,1.3-10.601L31.75,90.25z"/>
	<polygon style="fill-rule:evenodd;clip-rule:evenodd;fill:#628F94;" points="36.85,88.5 39.15,89.25 37.7,114.9 	"/>
	<path style="fill-rule:evenodd;clip-rule:evenodd;fill:#628F94;" d="M70.2,66.4l1.7,12.45c1.233,8.7,2.116,14.083,2.649,16.15
		s0.066,4.6-1.399,7.6c-0.733,1.5-1.517,2.784-2.351,3.851L70.2,66.4z"/>
</g>
</svg>
