<?xml version="1.0" encoding="iso-8859-1"?>
<!-- Generator: Adobe Illustrator 15.1.0, SVG Export Plug-In . SVG Version: 6.00 Build 0)  -->
<!DOCTYPE svg PUBLIC "-//W3C//DTD SVG 1.1//EN" "http://www.w3.org/Graphics/SVG/1.1/DTD/svg11.dtd">
<svg version="1.1" id="buildings" xmlns="http://www.w3.org/2000/svg" xmlns:xlink="http://www.w3.org/1999/xlink" x="0px" y="0px"
	 width="145.75px" height="53.35px" viewBox="0 0 145.75 53.35" style="enable-background:new 0 0 145.75 53.35;"
	 xml:space="preserve">
<g>
	<path style="fill-rule:evenodd;clip-rule:evenodd;fill:#FBF5E7;" d="M145.75,0L118.7,35.95c-31.967,7-52.833,11.184-62.6,12.55
		c-13.733,1.934-27.2,2.116-40.4,0.55C9.1,48.283,3.867,47.316,0,46.15c1.233-2.9,2.95-5.884,5.15-8.95
		c4.367-6.101,8.9-9.5,13.6-10.2c2.233-0.333,10.117-1.183,23.65-2.55C55.7,23.083,67.717,21.6,78.45,20
		c12.633-1.867,27.633-5.767,45-11.7C132.15,5.367,139.583,2.6,145.75,0z"/>
	<path style="fill-rule:evenodd;clip-rule:evenodd;fill:#F1DFAB;" d="M86.85,47.7c-22.966,3.633-38.766,5.517-47.399,5.649
		c-9.733,0.134-19.1-0.466-28.1-1.8c-4.5-0.666-8.033-1.35-10.6-2.05L0,46.15c2.867,0.333,6.583,0.633,11.15,0.899
		c9.133,0.566,18,0.717,26.6,0.45c8.633-0.267,24.717-2.267,48.25-6c11.767-1.866,22.667-3.717,32.7-5.55v6.35
		C108.934,44.1,98.316,45.9,86.85,47.7z"/>
	<polygon style="fill-rule:evenodd;clip-rule:evenodd;fill:#B6BA9B;" points="145.75,7.7 118.7,42.3 118.7,35.95 145.75,0 	"/>
</g>
</svg>
