<?xml version="1.0" encoding="iso-8859-1"?>
<!-- Generator: Adobe Illustrator 15.1.0, SVG Export Plug-In . SVG Version: 6.00 Build 0)  -->
<!DOCTYPE svg PUBLIC "-//W3C//DTD SVG 1.1//EN" "http://www.w3.org/Graphics/SVG/1.1/DTD/svg11.dtd">
<svg version="1.1" id="buildings-back" xmlns="http://www.w3.org/2000/svg" xmlns:xlink="http://www.w3.org/1999/xlink" x="0px"
	 y="0px" width="28.7px" height="85.2px" viewBox="0 0 28.7 85.2" style="enable-background:new 0 0 28.7 85.2;"
	 xml:space="preserve">
<path style="fill-rule:evenodd;clip-rule:evenodd;fill:#81836F;" d="M28.15,20.2c0,1.5,0.183,4.783,0.55,9.85c0,4.4-0.9,6.8-2.7,7.2
	c-2.833,0.633-5.684,0.883-8.55,0.75l1.2,24.45L20.3,62.7c1.267,0,2.3-0.4,3.101-1.2c0.8-0.8,1.149-3.217,1.05-7.25l-0.351-5.8
	l1-0.101c0.733,0.134,1.2,0.801,1.4,2c0.467,3,0.684,5.884,0.65,8.65c-0.067,4.366-0.917,6.7-2.551,7
	c-2.533,0.467-4.433,0.616-5.699,0.45l0.5,4.399c0.5,3.334,1.199,5.983,2.1,7.95s1.85,3.434,2.85,4.4
	c0.435,0.434,0.793,0.709,1.075,0.825c-2.005-0.614-3.547-0.856-4.625-0.726c-0.7,0.101-1.583,0.45-2.649,1.05
	c-0.534,0.301-1,0.584-1.4,0.851c-0.167-1.4-0.717-2.101-1.65-2.101c-0.6,0-1.3,0.084-2.1,0.25l-1,0.2
	c1.9-5.866,2.934-9.983,3.1-12.35c0.101-1.467-0.033-4.601-0.399-9.4l-0.55-6.75c-1.967,0.867-4.017,1.5-6.15,1.9
	c-4.233,0.733-6.7-0.134-7.4-2.601c-0.7-2.466-0.783-6.833-0.25-13.1l1-8.7c0.6-0.2,1.183-0.267,1.75-0.2
	c1.133,0.1,1.65,0.8,1.55,2.1C4.583,35.483,4.267,38.7,3.7,44.1C3.367,49.134,3.6,52,4.4,52.7c0.8,0.7,2.667,0.434,5.6-0.8
	c1.467-0.601,2.85-1.284,4.15-2.051L13.2,31.1c-0.9,0-1.85-0.2-2.85-0.6c-2.033-0.8-3.3-2.183-3.8-4.15s-0.333-5.367,0.5-10.2
	c0.434-2.4,0.9-4.617,1.4-6.65L9.8,9.25c0.867,0.067,1.2,0.7,1,1.9c-1.4,8.867-1.633,13.7-0.7,14.5c0.6,0.5,1.3,0.65,2.1,0.45
	c0.4-0.1,0.733-0.25,1-0.45c-0.4-4.1-0.65-8.25-0.75-12.45C12.25,4.8,12.9,0.4,14.4,0c1.466-0.4,2.267,4.983,2.399,16.15
	c0.033,5.567-0.066,11.184-0.3,16.85l3.55,0.7c2.467,0.333,4.05,0.1,4.75-0.7s1.033-3.65,1-8.55l-0.25-7.1l1.3-0.25
	C27.717,17.3,28.15,18.333,28.15,20.2z"/>
</svg>
