<?xml version="1.0" encoding="iso-8859-1"?>
<!-- Generator: Adobe Illustrator 15.1.0, SVG Export Plug-In . SVG Version: 6.00 Build 0)  -->
<!DOCTYPE svg PUBLIC "-//W3C//DTD SVG 1.1//EN" "http://www.w3.org/Graphics/SVG/1.1/DTD/svg11.dtd">
<svg version="1.1" id="Isolation_Mode" xmlns="http://www.w3.org/2000/svg" xmlns:xlink="http://www.w3.org/1999/xlink" x="0px"
	 y="0px" width="256.35px" height="220.55px" viewBox="0 0 256.35 220.55" style="enable-background:new 0 0 256.35 220.55;"
	 xml:space="preserve">
<g>
	<path style="fill-rule:evenodd;clip-rule:evenodd;fill:#295648;" d="M244.35,72.35c-4.166,2.833-8.366,3.883-12.6,3.15
		c-2.366-0.4-3.384-2.683-3.05-6.85c0.333-3.833,1.649-8.133,3.95-12.9c2.399-4.967,5.116-8.8,8.149-11.5
		c3.467-3.033,6.65-3.85,9.55-2.45c3.267,1.6,5.2,4.35,5.801,8.25c0.566,3.667-0.117,7.333-2.051,11
		C251.5,65.917,248.25,69.683,244.35,72.35z"/>
	<g>
		<path style="fill-rule:evenodd;clip-rule:evenodd;fill:#DEDFA2;" d="M254.45,54.8c-0.601,3.934-2.483,7.667-5.65,11.2
			c-2.866,3.133-6.116,5.467-9.75,7c-3.633,1.567-6.5,1.817-8.6,0.75c-0.167-0.067-5.767-3.55-16.8-10.45
			c-11.367-7.066-21.534-12.917-30.5-17.55C153.783,30.617,134.066,26.633,124,33.8c-10.067,7.133-25.65,38.567-46.75,94.3
			c-10.567,27.834-20.117,54.967-28.65,81.4c-1.367,1.033-3.4,2.033-6.1,3c-5.367,1.9-11.35,2.667-17.95,2.3
			c-6.6-0.366-11.433-1.483-14.5-3.35c-0.966-0.601-1.683-1.233-2.15-1.9l-0.45-0.85c10.267-29.3,22.566-59.7,36.9-91.2
			c28.633-63,53.117-99.95,73.45-110.85c20.334-10.9,48.617-8.35,84.851,7.65c18.1,8,34.166,17.1,48.199,27.3
			C253.95,45.8,255.15,50.2,254.45,54.8z"/>
		<g>
			<path style="fill-rule:evenodd;clip-rule:evenodd;fill:#BDBF71;" d="M110.9,11.25c0.934,1.033,3.15,0.8,6.65-0.7
				c2-0.844,4.175-1.994,6.525-3.45c-2.836,1.858-5.645,3.925-8.425,6.2c-4.967,4.034-8.9,7.983-11.8,11.85
				c-7.267,9.667-15.067,22.133-23.4,37.4c-10.167,18.534-18.434,36.583-24.8,54.15c-5.833,16.066-12.25,35.05-19.25,56.95
				c-3.533,10.966-6.467,20.316-8.8,28.05c-2.333,1.033-4.817,1.967-7.45,2.8c-5.233,1.667-8.583,2.033-10.05,1.1
				c-0.367-0.199-0.7-0.716-1-1.55c11.933-32.967,24.75-64.184,38.45-93.65C71.617,58.667,92.733,25.617,110.9,11.25z"/>
			<path style="fill-rule:evenodd;clip-rule:evenodd;fill:#BDBF71;" d="M237.85,73.5c-3.1,1.1-5.566,1.183-7.399,0.25
				c-0.267-0.133-5.717-3.517-16.351-10.15c-11.1-6.934-21.017-12.667-29.75-17.2c-28.733-15-48.399-19.483-59-13.45
				c4.3-4.067,11.966-5.983,23-5.75c11.667,0.267,23.851,2.933,36.551,8c17.199,6.9,37.767,17.883,61.699,32.95
				C243.833,70.65,240.917,72.433,237.85,73.5z"/>
		</g>
		<path style="fill-rule:evenodd;clip-rule:evenodd;fill:#A2A550;" d="M14.25,190.35c-0.4,0.4,0.633,1.051,3.1,1.95
			c3,1.101,6.867,1.75,11.6,1.95c6.066,0.233,12.316-0.434,18.75-2c3.2-0.767,5.7-1.566,7.5-2.4c2.933,0.2,4.983,4.051,6.15,11.551
			c0.6,3.767,0.9,7.517,0.9,11.25c-1,1.399-3.283,2.783-6.85,4.149c-7.167,2.733-17.15,3.967-29.95,3.7
			c-9.3-0.167-16.333-1.517-21.1-4.05c-2.367-1.3-3.817-2.566-4.35-3.8c1.133-3.567,2.583-7.167,4.35-10.801
			C7.85,194.55,11.15,190.717,14.25,190.35z"/>
		<path style="fill-rule:evenodd;clip-rule:evenodd;fill:#ECECCB;" d="M247.3,44.15c0.3,1.967,0.084,3.95-0.649,5.95
			c-4.534-3.5-9.884-7.383-16.051-11.65c-12.333-8.534-22.616-14.717-30.85-18.55c-8.2-3.833-19.5-7.75-33.9-11.75l-19.1-4.9
			L162.7,5.4c12.2,1.967,22.217,4.317,30.05,7.05c7.866,2.733,19.2,8.45,34,17.15c7.434,4.333,14.066,8.4,19.9,12.2L247.3,44.15z"/>
		<path style="fill-rule:evenodd;clip-rule:evenodd;fill:#E8E8C0;" d="M116.55,33.45c-4.466,8.767-9.216,18.333-14.25,28.7
			C92.233,82.883,85.733,97.267,82.8,105.3L53.05,187.65l-5.7,1.75c1.767-6.434,3.867-13.784,6.3-22.051
			c4.867-16.566,9.033-29.5,12.5-38.8S79.067,100.6,94.5,72.6C102.2,58.633,109.55,45.583,116.55,33.45z"/>
		<path style="fill-rule:evenodd;clip-rule:evenodd;fill:#A9AC5D;" d="M59.65,97.55c-11.3,26.134-18.333,43.033-21.1,50.7
			c-2.733,7.667-5.517,16.983-8.35,27.95c-1.434,5.467-2.583,10.166-3.45,14.1c-0.8,0.3-1.733,0.467-2.8,0.5
			c-2.1,0.066-3.8-0.533-5.1-1.8c7.9-23.967,13.6-40.333,17.1-49.1c2.2-5.467,9.5-20.317,21.9-44.55
			c6.2-12.1,12.183-23.667,17.95-34.7C70.7,72.183,65.317,84.483,59.65,97.55z"/>
		<path style="fill-rule:evenodd;clip-rule:evenodd;fill:#A9AC5D;" d="M240.5,68.1c-0.733,2.2-2.417,3.5-5.05,3.9h-3.7
			c-0.3,0-1.066-0.333-2.3-1c-2.467-1.3-6.084-3.583-10.851-6.85c-4.733-3.3-16.6-9.617-35.6-18.95l-27.05-13.05l16.899,4.75
			c12.834,4.033,23.267,8.15,31.301,12.35L240.5,68.1z"/>
		<g>
			<path style="fill-rule:evenodd;clip-rule:evenodd;fill:#8E9344;" d="M14.25,190.3c-0.4,0.4,0.633,1.066,3.1,2
				c3,1.101,6.867,1.75,11.6,1.95h1.25c-0.967,0.967-1.8,2.05-2.5,3.25c-1.534,2.667-2.534,5.866-3,9.6
				c-0.9,7.367,0.267,11.25,3.5,11.65c6.633,0.833,12.383,0.733,17.25-0.3c4.733-1,8.3-1.65,10.7-1.95
				c-7.133,2.967-17.367,4.3-30.7,4c-9.3-0.167-16.333-1.517-21.1-4.05c-2.367-1.3-3.817-2.566-4.35-3.8
				c1.133-3.567,2.583-7.184,4.35-10.851C7.85,194.5,11.15,190.667,14.25,190.3z"/>
		</g>
		<path style="fill-rule:evenodd;clip-rule:evenodd;fill:#C2C47C;" d="M58,202c0.633,1.934,0.95,3.9,0.95,5.9
			c-0.034,1.899-0.35,3.083-0.95,3.55c-1.567,1.166-4.483,2.05-8.75,2.649c0.767-1.366,1.15-3.8,1.15-7.3c0-2.2-0.233-4.6-0.7-7.2
			l-0.75-3.3C53.183,194.866,56.2,196.767,58,202z"/>
		<path style="fill-rule:evenodd;clip-rule:evenodd;fill:#696D37;" d="M11.75,196c2.167-1.233,3.9-1.116,5.2,0.35
			c1.533,1.733,1.583,4.967,0.15,9.7c-0.567,1.934-0.9,4.184-1,6.75c-0.067,1.267-0.067,2.351,0,3.25
			c-3.7-0.767-6.434-1.467-8.2-2.1c-1.733-0.634-3.167-1.634-4.3-3c0.367-1.867,0.883-3.55,1.55-5.05
			c1.067-2.467,2.217-4.617,3.45-6.45C9.8,197.65,10.85,196.5,11.75,196z"/>
	</g>
</g>
</svg>
