<?xml version="1.0" encoding="iso-8859-1"?>
<!-- Generator: Adobe Illustrator 15.1.0, SVG Export Plug-In . SVG Version: 6.00 Build 0)  -->
<!DOCTYPE svg PUBLIC "-//W3C//DTD SVG 1.1//EN" "http://www.w3.org/Graphics/SVG/1.1/DTD/svg11.dtd">
<svg version="1.1" id="buildings" xmlns="http://www.w3.org/2000/svg" xmlns:xlink="http://www.w3.org/1999/xlink" x="0px" y="0px"
	 width="73.5px" height="185.7px" viewBox="0 0 73.5 185.7" style="enable-background:new 0 0 73.5 185.7;" xml:space="preserve">
<g>
	<path style="fill-rule:evenodd;clip-rule:evenodd;fill:#505346;" d="M50.4,8.1C46.8,46.233,44.6,68.483,43.8,74.85
		c-0.566,4.6,0.733,7.417,3.9,8.45c3.1,1,5.583-0.233,7.45-3.7c1.466-2.733,2.899-8.717,4.3-17.95l1.649-13l4.351,1.95
		c2.767,1.767,3.899,3.9,3.399,6.4c-2,9.967-3.616,16.983-4.85,21.05c-3.333,11.1-6.884,16.783-10.65,17.05L44.4,95.7l3.649,37.25
		c2.9,25.434,5.467,39.633,7.7,42.6s4.783,5.55,7.65,7.75c1.3,0.998,2.425,1.748,3.375,2.25c-2.094-1.042-4.335-2.025-6.726-2.95
		c-4.967-2-8.184-2.75-9.649-2.25c-1.5,0.467-2.551,1.5-3.15,3.101c-0.3,0.8-0.45,1.55-0.45,2.25c-0.6-0.9-1.366-1.783-2.3-2.65
		c-1.9-1.8-3.717-2.7-5.45-2.7s-4.633,0.7-8.7,2.101l-5.6,2.05c0.9-1.3,2-3.467,3.3-6.5c2.567-6.033,4.85-13.4,6.85-22.1
		c1.966-8.7,2.466-16.067,1.5-22.101c-0.334-1.899-0.784-3.55-1.351-4.95l-0.75-1.55L9.25,124.9c-1.5-8.134-2.65-16.317-3.45-24.551
		c-1.566-16.5-0.617-25,2.85-25.5s5.9-0.15,7.3,1.05c0.7,0.6,1.05,1.25,1.05,1.95l-1.2,36.35l21.45,1.75l-0.6-49.45
		c-1.567,0.7-3.3,1.183-5.2,1.45c-3.767,0.5-6.4-0.383-7.9-2.65c-1.767-2.667-3-7.5-3.7-14.5c-0.7-6.966-0.45-11.667,0.75-14.1
		c0.967-1.967,2.35-3.45,4.15-4.45c0.9-0.5,1.7-0.8,2.4-0.9v12.9c0.4,8.633,1.583,13.067,3.55,13.3c2,0.267,3.5,0.05,4.5-0.65
		l0.85-1.1c-1.1-7.433-1.816-14.983-2.15-22.65C33.2,17.85,34.717,9.7,38.45,8.7c3.733-0.967,6.85-1.367,9.35-1.2
		C49.033,7.6,49.9,7.8,50.4,8.1z"/>
	<g>
		<path style="fill-rule:evenodd;clip-rule:evenodd;fill:#404239;" d="M8.65,74.85c1.3-0.2,2.467-0.267,3.5-0.2l0.15,0.2l-1.65,1.6
			C9.583,78.35,9.1,81.4,9.2,85.6c0.1,4.2,0.917,10.933,2.45,20.2c0.767,4.634,1.517,8.851,2.25,12.65
			c4.1,0.333,8.25,0.717,12.45,1.149c8.4,0.9,12.883,1.634,13.45,2.2c0.566,0.533,1.134,5.65,1.7,15.351
			c0.333,5.267,0.733,12.517,1.2,21.75c0.434,6.533,1.8,15.466,4.1,26.8c-0.6-0.9-1.366-1.783-2.3-2.65c-1.9-1.8-3.717-2.7-5.45-2.7
			s-4.633,0.7-8.7,2.101l-5.6,2.05c0.9-1.3,2-3.467,3.3-6.5c2.567-6.033,4.85-13.4,6.85-22.1c1.966-8.7,2.466-16.067,1.5-22.101
			c-0.334-1.899-0.784-3.55-1.351-4.95l-0.75-1.55L9.25,124.9c-1.5-8.134-2.65-16.317-3.45-24.551
			C4.233,83.85,5.183,75.35,8.65,74.85z"/>
		<path style="fill-rule:evenodd;clip-rule:evenodd;fill:#404239;" d="M20.6,36.7c0.967-1.967,2.35-3.45,4.15-4.45
			c0.9-0.5,1.7-0.8,2.4-0.9L24.85,34c-1.5,2.433-2.1,5.333-1.8,8.7c0.5,5.966,1.1,10.367,1.8,13.2c1.167,4.733,2.867,6.95,5.1,6.65
			c2.133-0.267,4.45-1.05,6.95-2.35c1.267-0.667,2.3-1.3,3.1-1.9l0.7,46.25c0.1,3.167-0.066,6.134-0.5,8.9
			c-0.2,1.399-0.417,2.467-0.65,3.2c-0.233,0.3-1,0.066-2.3-0.7l-0.6-49.45c-1.567,0.7-3.3,1.183-5.2,1.45
			c-3.767,0.5-6.4-0.383-7.9-2.65c-1.767-2.667-3-7.5-3.7-14.5C19.15,43.833,19.4,39.133,20.6,36.7z"/>
		<path style="fill-rule:evenodd;clip-rule:evenodd;fill:#404239;" d="M43.65,7.65C42.684,8.083,41.8,8.883,41,10.05
			c-1.3,1.934-2,4.534-2.1,7.8C38.767,23.683,39.066,36.2,39.8,55.4c-0.5,0.367-1.75,0.5-3.75,0.4
			c-1.1-7.433-1.816-14.983-2.15-22.65C33.2,17.85,34.717,9.7,38.45,8.7C40.15,8.233,41.884,7.883,43.65,7.65z"/>
		<path style="fill-rule:evenodd;clip-rule:evenodd;fill:#404239;" d="M61.1,48.65L62.4,49.1c1.033,0.367,1.966,0.816,2.8,1.35
			c-2.066,18.1-4.2,28.4-6.4,30.9c-1.566,1.767-3.533,2.7-5.899,2.8L49.85,83.8l0.051-0.3c2.233-0.3,3.983-1.6,5.25-3.9
			c1.466-2.733,2.899-8.717,4.3-17.95L61.1,48.65z"/>
		<path style="fill-rule:evenodd;clip-rule:evenodd;fill:#404239;" d="M44.4,95.7c-0.767-0.634-1.2-1.684-1.301-3.15l0.051-2.05
			l2.1,0.85c1.7,0.566,3.384,0.95,5.05,1.15c1.667,0.2,3.667-0.183,6-1.15c1.134-0.467,2.117-0.967,2.95-1.5l0.05,0.05
			c-1.967,3.333-3.95,5.067-5.95,5.2L44.4,95.7z"/>
	</g>
	<path style="fill-rule:evenodd;clip-rule:evenodd;fill:#34362F;" d="M38,139.2c0.2-1.733-0.1-4.184-0.9-7.351l-1.2-4.25l3.75-0.3
		l0.449,15.25c0.301,10.8,0.551,17.884,0.75,21.25c0.301,5.367,1.284,11.566,2.95,18.601c-0.767-0.601-2.1-1.134-4-1.601
		c-1.2-0.3-4.066,0.217-8.6,1.55l-6.45,2.15c1.2-0.8,2.467-1.717,3.8-2.75c2.7-2.134,4.417-3.85,5.15-5.15
		c0.733-1.267,1.617-7.366,2.649-18.3C37.316,146.967,37.866,140.6,38,139.2z"/>
	<path style="fill-rule:evenodd;clip-rule:evenodd;fill:#34362F;" d="M6.85,82.9l1.4,8.3c1.033,6.3,1.767,11.383,2.2,15.25
		c0.433,3.833,1.083,7.5,1.95,11c0.467,1.733,0.867,3.083,1.2,4.05c2.733,0.267,5.617,0.533,8.65,0.8c6.033,0.5,9.8,0.717,11.3,0.65
		c1.467-0.066,2.5,0.333,3.101,1.2c0.3,0.466,0.449,0.916,0.449,1.35l-23.8-1.95c-0.4-0.533-0.85-1.25-1.35-2.149
		c-0.967-1.801-1.617-3.567-1.95-5.301c-1.3-6.566-2.217-14.066-2.75-22.5L6.85,82.9z"/>
	<path style="fill-rule:evenodd;clip-rule:evenodd;fill:#34362F;" d="M38.6,62.35l0.551,17.5c0.333,12.167,0.5,19.483,0.5,21.95
		c0,4-0.45,7.634-1.351,10.9c0.2-3.566,0.2-6.7,0-9.4c-0.133-1.666-0.116-8.983,0.05-21.95L38.6,62.35z"/>
	<path style="fill-rule:evenodd;clip-rule:evenodd;fill:#34362F;" d="M22.2,50.15c1.2,7.633,2.4,12.1,3.6,13.4
		c1.167,1.3,3.333,1.383,6.5,0.25c1.567-0.533,3.017-1.216,4.351-2.05L36.2,65.3c-1.434,0.434-2.983,0.717-4.65,0.85
		c-3.367,0.3-5.683-0.267-6.95-1.7c-1.233-1.434-2.25-6.083-3.05-13.95l-0.8-11.4L22.2,50.15z"/>
	<path style="fill-rule:evenodd;clip-rule:evenodd;fill:#34362F;" d="M55.45,81.1c0.633-1.033,1.316-2.317,2.05-3.85
		c1.434-3.033,2.333-5.767,2.7-8.2l2.55-17.75l-0.8,8.6c-0.634,6.2-1.267,10.483-1.9,12.85c-0.7,2.633-1.383,4.5-2.05,5.6
		C57.566,79.083,56.717,80,55.45,81.1z"/>
	<path style="fill-rule:evenodd;clip-rule:evenodd;fill:#34362F;" d="M35.8,42.8c-0.4-4.033-0.5-9.767-0.3-17.2
		c0.167-6.267,0.4-10.4,0.7-12.4c0.2-1.2,0.899-2.1,2.1-2.7c0.634-0.333,1.233-0.533,1.8-0.6c-1.3,1.7-2.199,3.184-2.699,4.45
		C37.1,15.183,36.934,17,36.9,19.8c0,1.733,0.017,5.034,0.05,9.9c0,5.267,0.45,13.417,1.35,24.45l-1.35,0.15
		C36.75,52.8,36.366,48.967,35.8,42.8z"/>
	<path style="fill-rule:evenodd;clip-rule:evenodd;fill:#34362F;" d="M46.05,93.2l0.851,0.35c0.8,0.2,1.816,0.267,3.05,0.2
		c1.967-0.066,4-0.45,6.1-1.15c-1,1.067-2.05,1.65-3.149,1.75l-7,0.15C45.7,94.1,45.75,93.667,46.05,93.2z"/>
	<path style="fill-rule:evenodd;clip-rule:evenodd;fill:#44473D;" d="M43.35,97.95l2.4,30.149c1.767,20.733,3.017,32.784,3.75,36.15
		s1.85,6.95,3.35,10.75c0.733,1.934,1.4,3.517,2,4.75c-1-0.5-2.05-0.866-3.149-1.1c-2.2-0.467-3.483-0.051-3.851,1.25
		c-0.6-9.233-1.35-18.667-2.25-28.301c-0.566-6.033-1.283-17.017-2.149-32.949L42.35,96.6L43.35,97.95z"/>
	<path style="fill-rule:evenodd;clip-rule:evenodd;fill:#44473D;" d="M14.15,80.65c1,0.2,1.3,5.15,0.9,14.85
		c-0.2,4.866-0.5,9.7-0.9,14.5c-0.467-3.066-0.8-6.134-1-9.2c-0.4-6.333-0.617-10.333-0.65-12
		C12.433,83.167,12.983,80.45,14.15,80.65z"/>
	<path style="fill-rule:evenodd;clip-rule:evenodd;fill:#44473D;" d="M44.85,15.1c1.801-0.2,2,9.85,0.601,30.15
		c-0.7,10.167-1.584,20.333-2.65,30.5c-0.3-19.767-0.6-31.733-0.899-35.9c-0.301-4.3-0.25-9.167,0.149-14.6
		C42.583,18.65,43.517,15.267,44.85,15.1z"/>
	<path style="fill-rule:evenodd;clip-rule:evenodd;fill:#44473D;" d="M66.15,55.65c1.166,0.4,1.399,2.6,0.699,6.6
		c-0.366,2.4-1.233,6.55-2.6,12.45c-0.733,3.6-2.217,6.667-4.45,9.2c-1.133,1.267-2.184,2.167-3.149,2.7
		c3.366-4.867,5.449-8.684,6.25-11.45c0.5-1.733,1.199-5.5,2.1-11.3L66.15,55.65z"/>
	<g>
		<g>
			<path style="fill-rule:evenodd;clip-rule:evenodd;fill:#9C9C91;" d="M37.3,12.2c-1.933-4.534-4.6-8.6-8-12.2
				c3.967,3.233,7.233,7.033,9.8,11.4L37.3,12.2z"/>
		</g>
	</g>
	<g>
		<g>
			<path style="fill-rule:evenodd;clip-rule:evenodd;fill:#9C9C91;" d="M47.85,10.05c2.834-2.167,5.867-4.716,9.101-7.65
				c-2.601,3.067-5.316,6.033-8.15,8.9L47.85,10.05z"/>
		</g>
	</g>
	<g>
		<g>
			<path style="fill-rule:evenodd;clip-rule:evenodd;fill:#9C9C91;" d="M40.75,33.85c3.033-1.833,6.8-4.184,11.3-7.05
				c-3.6,3.067-7.066,5.917-10.399,8.55L40.75,33.85z"/>
		</g>
	</g>
	<g>
		<g>
			<path style="fill-rule:evenodd;clip-rule:evenodd;fill:#9C9C91;" d="M21.65,37.2c-0.566-2.467-0.8-5.034-0.7-7.7
				c0.2,2.433,0.75,4.9,1.65,7.4L21.65,37.2z"/>
		</g>
	</g>
	<g>
		<g>
			<path style="fill-rule:evenodd;clip-rule:evenodd;fill:#9C9C91;" d="M65.7,52.6c2.833-2.767,5.434-5.583,7.8-8.45
				c-2,3.233-4.267,6.417-6.8,9.55L65.7,52.6z"/>
		</g>
	</g>
	<g>
		<g>
			<path style="fill-rule:evenodd;clip-rule:evenodd;fill:#9C9C91;" d="M59.45,83.25c4.066,0.767,7.899,0.65,11.5-0.35
				c-3.533,1.434-7.467,2.067-11.8,1.9L59.45,83.25z"/>
		</g>
	</g>
	<g>
		<g>
			<path style="fill-rule:evenodd;clip-rule:evenodd;fill:#9C9C91;" d="M6.2,80.35c-2.067-3.833-4.133-7.434-6.2-10.8
				c2.533,3.133,5.083,6.467,7.65,10L6.2,80.35z"/>
		</g>
	</g>
	<g>
		<g>
			<polygon style="fill-rule:evenodd;clip-rule:evenodd;fill:#9C9C91;" points="13.35,91.65 22.95,87.1 14,92.85 			"/>
		</g>
	</g>
	<g>
		<g>
			<path style="fill-rule:evenodd;clip-rule:evenodd;fill:#9C9C91;" d="M10.8,124.25c-2.233,1.6-4.233,3.5-6,5.7
				c1.467-2.434,3.267-4.634,5.4-6.601L10.8,124.25z"/>
		</g>
	</g>
	<g>
		<g>
			<path style="fill-rule:evenodd;clip-rule:evenodd;fill:#9C9C91;" d="M25.25,56.45c-1.9,0.066-3.7,0.283-5.4,0.65
				c1.767-0.633,3.566-1.083,5.4-1.35V56.45z"/>
		</g>
	</g>
	<g>
		<g>
			<path style="fill-rule:evenodd;clip-rule:evenodd;fill:#9C9C91;" d="M61.15,65.45c-2.667-1.9-4.834-3.733-6.5-5.5
				c1.733,1.4,4.1,2.933,7.1,4.6L61.15,65.45z"/>
		</g>
	</g>
	<path style="fill-rule:evenodd;clip-rule:evenodd;fill:#636655;" d="M44.55,10.65c1.101-0.1,1.983,0.05,2.65,0.45
		c0.8,0.433,1.366,1.283,1.7,2.55c0.5,1.767,0.05,6.133-1.351,13.1c0.3-5.567,0.25-9.2-0.149-10.9
		c-0.233-1.033-1.034-1.717-2.4-2.05c-1.434-0.133-2.267-0.233-2.5-0.3c-0.467-0.1-0.5-0.567-0.1-1.4
		C42.833,11.2,43.55,10.717,44.55,10.65z"/>
	<path style="fill-rule:evenodd;clip-rule:evenodd;fill:#636655;" d="M54.7,85.15l-1.4,1.05c-1.267,0.7-2.833,1.083-4.7,1.15
		c-2,0.066-3.483-0.283-4.449-1.05c-0.801-0.667-1.017-1.25-0.65-1.75c0.5-0.6,2.25-0.3,5.25,0.9
		C50.217,86.017,52.2,85.917,54.7,85.15z"/>
	<path style="fill-rule:evenodd;clip-rule:evenodd;fill:#636655;" d="M13.15,76.65c1.233-0.2,2.017,0.967,2.35,3.5
		c0.167,1.233,0.217,2.5,0.15,3.8c-0.1-2-0.25-3.3-0.45-3.9c-0.133-0.367-0.583-0.617-1.35-0.75c-1.2-0.233-1.833-0.367-1.9-0.4
		c-0.534-0.233-0.667-0.633-0.4-1.2C11.817,77.133,12.35,76.783,13.15,76.65z"/>
	<path style="fill-rule:evenodd;clip-rule:evenodd;fill:#636655;" d="M25.65,34.05l0.15,7.15c0,2.367,0.6,7.183,1.8,14.45
		c-1.6-3.867-2.65-7.5-3.15-10.9c-0.3-2.1-0.2-4.517,0.3-7.25L25.65,34.05z"/>
	<path style="fill-rule:evenodd;clip-rule:evenodd;fill:#636655;" d="M35.8,116.7c1.733,0.5,2.717,1.1,2.95,1.8
		c0.134,0.366,0.083,0.667-0.15,0.9l-23.85-2.551l1.65-1.35L35.8,116.7z"/>
</g>
</svg>
