<?xml version="1.0" encoding="iso-8859-1"?>
<!-- Generator: Adobe Illustrator 15.1.0, SVG Export Plug-In . SVG Version: 6.00 Build 0)  -->
<!DOCTYPE svg PUBLIC "-//W3C//DTD SVG 1.1//EN" "http://www.w3.org/Graphics/SVG/1.1/DTD/svg11.dtd">
<svg version="1.1" id="buildings" xmlns="http://www.w3.org/2000/svg" xmlns:xlink="http://www.w3.org/1999/xlink" x="0px" y="0px"
	 width="67.75px" height="202.55px" viewBox="0 0 67.75 202.55" style="enable-background:new 0 0 67.75 202.55;"
	 xml:space="preserve">
<g>
	<g>
		<path style="fill-rule:evenodd;clip-rule:evenodd;fill:#81908E;" d="M19.15,37.45c-3.566,15.4-4.65,25.883-3.25,31.45
			c0.733,2.967,3.2,5.6,7.4,7.9c2.6,1.434,7.034,3.217,13.3,5.35c6.4,2.2,10.817,3.95,13.25,5.25c4.2,2.2,6.667,4.7,7.4,7.5
			c1.767,6.733,3.483,24.784,5.15,54.15c1.699,29.867,1.75,45.601,0.149,47.2c-1.833,1.833-5.399,2.866-10.7,3.1
			c-5.6,0.233-9.25-0.866-10.949-3.3c1.166-7.166,2.316-15.733,3.449-25.7c2.233-19.899,3.25-36.833,3.051-50.8
			C47.3,112.017,45.1,106.267,40.8,102.3c-2.934-2.7-7.767-5.133-14.5-7.3c-8-2.567-13.15-4.533-15.45-5.9
			c-5.1-3-8.25-7.35-9.45-13.05C-0.9,65.217-0.333,50.467,3.1,31.8c1.7-9.333,3.633-17.583,5.8-24.75l16,9
			C22.833,22.65,20.917,29.783,19.15,37.45z"/>
		<g>
			<path style="fill-rule:evenodd;clip-rule:evenodd;fill:#637572;" d="M49.55,144.05c0.2-10.833,0.184-18.25-0.05-22.25
				c-0.2-3.866-0.767-7.149-1.7-9.85l-1.3-2.9l0.9,3.7c0.633,2.9,1,5.5,1.1,7.8c0.134,3.267,0.184,7.7,0.15,13.3
				c-0.101,6.434-0.317,11.417-0.65,14.95l-3.5,36c0,1.033,0.333,1.55,1,1.55c0.333,0,0.667-0.1,1-0.3c1.5-10.5,2.333-17.833,2.5-22
				C49.2,158.917,49.384,152.25,49.55,144.05z M12,87.3l2.95,2c2.8,1.6,6.233,3.017,10.3,4.25c7,2.167,11.583,3.75,13.75,4.75
				c-1.5-1.333-3.583-2.583-6.25-3.75c-1.267-0.566-3.8-1.466-7.6-2.7c-3.566-1.167-5.867-2.017-6.9-2.55
				c-1.233-0.633-2.65-1.15-4.25-1.55L12,87.3z M6,34.55c0.433-1.767,0.817-4.966,1.15-9.6l0.35-6.4
				c-0.967,4.1-1.933,8.667-2.9,13.7C2.633,42.383,1.6,49.9,1.5,54.8c-0.133,5.767,0.083,11.083,0.65,15.95
				c0.5,4.7,1.2,7.883,2.1,9.55c1.167,2.167,2.167,3.583,3,4.25c-0.7-1.533-1.4-3.55-2.1-6.05C3.717,73.5,3,68.6,3,63.8
				c0-5.133,0.383-10.917,1.15-17.35C4.75,41.25,5.367,37.283,6,34.55z M24.9,16.05l-1.95,6.6c-2.3,0.2-4.45,0-6.45-0.6
				c-1.033-0.3-2.183-0.767-3.45-1.4L11.5,19.8c-1.033,3.967-2.067,8.467-3.1,13.5c-2.033,10.1-3,17.85-2.9,23.25
				C5.667,64.917,6.3,70.8,7.4,74.2c1.8,5.5,5.5,9.367,11.1,11.6c10.1,4.034,15.983,6.483,17.65,7.35
				c5.899,3.033,10.017,6.583,12.35,10.65c2.267,4,3.7,12.834,4.3,26.5c0.367,9.167,0.351,18.75-0.05,28.75
				c-0.333,8.167-0.833,17.75-1.5,28.75c-0.8,0.167-1.767,0.267-2.9,0.3c-2.3,0-4.333-0.416-6.1-1.25
				c3.7-26.8,5.417-49.233,5.15-67.3C47.3,112.017,45.1,106.267,40.8,102.3c-2.934-2.7-7.767-5.133-14.5-7.3
				c-8-2.567-13.15-4.533-15.45-5.9c-5.1-3-8.25-7.35-9.45-13.05C-0.533,66.983-0.433,55.1,1.7,40.4c1.333-9.4,3.316-19,5.95-28.8
				c3.833,1.933,6.7,2.833,8.6,2.7c1.933-0.066,4.6,0.4,8,1.4L24.9,16.05z"/>
			<path style="fill-rule:evenodd;clip-rule:evenodd;fill:#485956;" d="M6,34.55c-0.633,2.733-1.25,6.7-1.85,11.9
				C3.383,52.883,3,58.667,3,63.8c0,4.8,0.717,9.7,2.15,14.7c0.7,2.5,1.4,4.517,2.1,6.05c-0.833-0.667-1.833-2.083-3-4.25
				c-0.9-1.667-1.6-4.85-2.1-9.55C1.583,65.883,1.367,60.567,1.5,54.8c0.1-4.9,1.133-12.417,3.1-22.55
				c0.967-5.033,1.933-9.6,2.9-13.7l-0.35,6.4C6.817,29.583,6.433,32.783,6,34.55z"/>
			<path style="fill-rule:evenodd;clip-rule:evenodd;fill:#485956;" d="M49.5,121.8c0.233,4,0.25,11.417,0.05,22.25
				c-0.166,8.2-0.35,14.867-0.55,20c-0.167,4.167-1,11.5-2.5,22c-0.333,0.2-0.667,0.3-1,0.3c-0.667,0-1-0.517-1-1.55l3.5-36
				c0.333-3.533,0.55-8.517,0.65-14.95c0.033-5.6-0.017-10.033-0.15-13.3c-0.1-2.3-0.467-4.899-1.1-7.8l-0.9-3.7l1.3,2.9
				C48.733,114.65,49.3,117.934,49.5,121.8z"/>
			<path style="fill-rule:evenodd;clip-rule:evenodd;fill:#485956;" d="M18.25,89.3c1.033,0.534,3.333,1.383,6.9,2.55
				c3.8,1.233,6.333,2.133,7.6,2.7c2.667,1.167,4.75,2.417,6.25,3.75c-2.167-1-6.75-2.583-13.75-4.75
				c-4.067-1.233-7.5-2.65-10.3-4.25l-2.95-2l2,0.45C15.6,88.15,17.017,88.667,18.25,89.3z"/>
			<path style="fill-rule:evenodd;clip-rule:evenodd;fill:#9EAEAB;" d="M47,87.3c1.634,0.434,3.4,1.4,5.3,2.9
				c2.167,1.7,3.483,3.4,3.95,5.1c0.667,2.5,1.25,9.917,1.75,22.25c-0.167-2.366-0.366-4.684-0.6-6.95c-0.5-4.5-0.967-6.433-1.4-5.8
				c-0.733,1.101-1.15,2.233-1.25,3.4c0.1-1.967,0.033-3.917-0.2-5.851C54.15,99.083,53.3,96.733,52,95.3
				c-1.533-1.667-2.467-2.6-2.8-2.8c-0.7-0.367-1.684-0.933-2.95-1.7c-1.767-1.066-2.45-2.017-2.05-2.85
				C44.566,87.117,45.5,86.9,47,87.3z"/>
			<path style="fill-rule:evenodd;clip-rule:evenodd;fill:#9EAEAB;" d="M26.75,79.3c1.867,0.934,2.6,1.733,2.2,2.4
				c-0.367,0.566-1.184,0.767-2.45,0.6c-1.6-0.2-3.6-1.033-6-2.5c-3.2-1.933-5.45-4.267-6.75-7c-1.233-2.6-1.6-7.383-1.1-14.35
				l1.1-9.65v9.25l3-13.5l-1.65,10c-0.9,7.367-0.85,12.7,0.15,16C15.95,72.917,19.783,75.833,26.75,79.3z"/>
		</g>
		<g>
			<path style="fill-rule:evenodd;clip-rule:evenodd;fill:#546764;" d="M35.25,192.05c0.733-1.366,2.15-2.816,4.25-4.35l2.9-1.95
				l3,1c2.5,0.634,4.949,0.9,7.35,0.8c2.4-0.1,4.95-0.633,7.65-1.6c1.366-0.467,2.483-0.934,3.35-1.4l2.5,4c1,1.5,1.5,4.667,1.5,9.5
				c-1.134,0.7-2.733,1.417-4.8,2.15c-4.167,1.467-8.65,2.25-13.45,2.35c-4.8,0.101-9.033-0.45-12.7-1.649l-4.05-1.851
				C33.25,196.55,34.083,194.217,35.25,192.05z"/>
			<g>
				<path style="fill-rule:evenodd;clip-rule:evenodd;fill:#4C5D5A;" d="M42.3,193.55c0.2-1.133,0.667-2.233,1.4-3.3l1.05-1.25
					c-1.3,0.434-1.866,0.316-1.7-0.35l-1.2,0.85c-0.866,0.8-1.566,1.767-2.1,2.9c-0.833,1.833-1.25,3.833-1.25,6l0.45,0.3
					c0.366,0.2,0.8,0.35,1.3,0.45l2.5,0.5C42.116,197.417,41.967,195.384,42.3,193.55z M35.25,192.05
					c0.733-1.366,2.15-2.816,4.25-4.35l2.9-1.95l2.55,0.9c2.133,0.6,4.25,0.916,6.35,0.949v0.051l-1.2,1.199
					c-0.866,1.067-1.399,2.167-1.6,3.301c-0.333,1.833-0.5,4.966-0.5,9.399l3.25-0.1c2.467-0.101,4.35-0.25,5.65-0.45
					c1.866-0.3,4.949-1.2,9.25-2.7c0.566-0.2,1.083-0.434,1.55-0.7l0.05,0.45c-1.134,0.7-2.733,1.417-4.8,2.15
					c-4.167,1.467-8.65,2.25-13.45,2.35c-4.8,0.101-9.033-0.45-12.7-1.649l-4.05-1.851C33.25,196.55,34.083,194.217,35.25,192.05z"
					/>
				<path style="fill-rule:evenodd;clip-rule:evenodd;fill:#455452;" d="M44.75,189l-1.05,1.25c-0.733,1.066-1.2,2.167-1.4,3.3
					c-0.333,1.834-0.184,3.867,0.45,6.101l-2.5-0.5c-0.5-0.101-0.934-0.25-1.3-0.45l-0.45-0.3c0-2.167,0.417-4.167,1.25-6
					c0.533-1.134,1.233-2.101,2.1-2.9l1.2-0.85C42.884,189.316,43.45,189.434,44.75,189z"/>
				<path style="fill-rule:evenodd;clip-rule:evenodd;fill:#627974;" d="M63.25,197.4c0.333-2,0.384-3.7,0.15-5.101
					c-0.134-0.866-0.517-1.883-1.15-3.05l-0.85-1.5c1,0.5,1.616,0.833,1.85,1c1.033,0.7,1.7,1.5,2,2.4
					c0.366,1.267,0.667,3.05,0.9,5.35c-0.5,0.267-1.034,0.483-1.601,0.65L63.25,197.4z"/>
			</g>
		</g>
	</g>
	<path style="fill-rule:evenodd;clip-rule:evenodd;fill:#546764;" d="M27.75,20.8c-0.767,0.367-2.5,0.4-5.2,0.1
		c-2.767-0.333-5.2-0.867-7.3-1.6c-2.467-0.867-4.65-2.05-6.55-3.55c-2.233-1.8-3.467-3.617-3.7-5.45C4.8,8.633,5.15,6.55,6.05,4.05
		C6.517,2.817,7,1.733,7.5,0.8c0.367,0.833,1.1,1.817,2.2,2.95c2.167,2.233,5.017,4.083,8.55,5.55
		c3.533,1.467,6.917,2.333,10.15,2.6c1.633,0.133,2.9,0.117,3.8-0.05C30.233,17.317,28.75,20.3,27.75,20.8z"/>
	<g>
		<path style="fill-rule:evenodd;clip-rule:evenodd;fill:#4C5D5A;" d="M8.05,10.8C8.283,9.1,8.867,7.683,9.8,6.55
			c-1.633-1.033-2.466-1.966-2.5-2.8C6.367,5.95,5.85,7.7,5.75,9C5.65,9.9,5.733,10.8,6,11.7c0.233,0.733,0.517,1.316,0.85,1.75
			c0.367,0.466,0.833,0.816,1.4,1.05C7.85,13.767,7.783,12.533,8.05,10.8z M28.1,20.5l-0.35,0.3c-0.767,0.367-2.5,0.4-5.2,0.1
			c-2.767-0.333-5.2-0.867-7.3-1.6c-2.467-0.867-4.65-2.05-6.55-3.55c-2.233-1.8-3.467-3.617-3.7-5.45
			C4.8,8.633,5.15,6.55,6.05,4.05C6.517,2.817,7,1.733,7.5,0.8c0.6,1.4,1.883,2.9,3.85,4.5l0.55,0.9c-1,2.7-1.6,4.716-1.8,6.05
			c-0.2,1.333-0.217,2.467-0.05,3.4l2.3,1.65c2.1,1.2,4.517,2.034,7.25,2.5C23,20.433,25.833,20.667,28.1,20.5z"/>
		<path style="fill-rule:evenodd;clip-rule:evenodd;fill:#455452;" d="M9.8,6.55C8.867,7.683,8.283,9.1,8.05,10.8
			c-0.267,1.733-0.2,2.967,0.2,3.7c-0.567-0.233-1.033-0.583-1.4-1.05C6.517,13.017,6.233,12.433,6,11.7C5.733,10.8,5.65,9.9,5.75,9
			c0.1-1.3,0.617-3.05,1.55-5.25C7.333,4.583,8.167,5.517,9.8,6.55z"/>
		<path style="fill-rule:evenodd;clip-rule:evenodd;fill:#627974;" d="M27.05,19.75c-0.4,0.067-0.9,0.067-1.5,0l-0.75-0.1
			c0.467-0.566,0.867-1.233,1.2-2c0.333-0.8,0.683-2.333,1.05-4.6c0.833,0.267,2.2,0.267,4.1,0l-1.55,3.7
			C28.833,18.65,27.983,19.65,27.05,19.75z"/>
	</g>
	<path style="fill-rule:evenodd;clip-rule:evenodd;fill:#9EAEAB;" d="M7.5,0.8c0.633-0.933,2.55-1.033,5.75-0.3
		c2.9,0.633,5.733,1.65,8.5,3.05c2.7,1.367,5.217,2.967,7.55,4.8c2.5,2,3.4,3.233,2.7,3.7c-0.867,0.567-2.967,0.6-6.3,0.1
		c-3.7-0.566-6.934-1.6-9.7-3.1c-2.967-1.6-5.25-3.2-6.85-4.8C7.55,2.717,7,1.567,7.5,0.8z"/>
	
		<linearGradient id="SVGID_1_" gradientUnits="userSpaceOnUse" x1="-5.6006" y1="-20.3203" x2="-1.7756" y2="-20.3203" gradientTransform="matrix(-0.4706 0.8824 -0.8824 -0.4706 9.840727e-005 -2.135038e-004)">
		<stop  offset="0" style="stop-color:#893342"/>
		<stop  offset="1" style="stop-color:#2D1D1E"/>
	</linearGradient>
	<path style="fill-rule:evenodd;clip-rule:evenodd;fill:url(#SVGID_1_);" d="M21.35,4.95c1.767,0.8,3.467,1.783,5.1,2.95
		c1.733,1.233,2.45,2.033,2.15,2.4c-0.267,0.367-1.517,0.267-3.75-0.3c-2.033-0.5-4.033-1.15-6-1.95
		c-1.833-0.767-3.733-1.833-5.7-3.2s-2.767-2.217-2.4-2.55C11.117,2,12.533,2.167,15,2.8S19.583,4.15,21.35,4.95z"/>
</g>
</svg>
