<?xml version="1.0" encoding="iso-8859-1"?>
<!-- Generator: Adobe Illustrator 15.1.0, SVG Export Plug-In . SVG Version: 6.00 Build 0)  -->
<!DOCTYPE svg PUBLIC "-//W3C//DTD SVG 1.1//EN" "http://www.w3.org/Graphics/SVG/1.1/DTD/svg11.dtd">
<svg version="1.1" id="buildings" xmlns="http://www.w3.org/2000/svg" xmlns:xlink="http://www.w3.org/1999/xlink" x="0px" y="0px"
	 width="62.35px" height="153.35px" viewBox="0 0 62.35 153.35" style="enable-background:new 0 0 62.35 153.35;"
	 xml:space="preserve">
<symbol  id="FlashAICB_x2F_buildings_x2F__x3C_Path_x3E__x5F_1" viewBox="0.01 -43.528 9.89 43.528">
	<g id="Layer_1_3_">
		<path style="fill-rule:evenodd;clip-rule:evenodd;fill:#682D38;" d="M5.65-4.75C4.717-6.25,4.167-7.233,4-7.7
			c-0.5-1.433-0.867-3.783-1.1-7.05c-0.333-5-0.083-14,0.75-27c0-1.333-0.417-1.917-1.25-1.75c-0.833,0.167-1.5,0.917-2,2.25
			c-0.167,4.333-0.283,8.967-0.35,13.9C-0.083-17.483,0.117-11.033,0.65-8S2-2.733,3.1-1.3C3.667-0.567,4.183-0.133,4.65,0
			C3.917-1.567,4.567-2.167,6.6-1.8c1.033,0.2,2.133,0.55,3.3,1.05C7.9-2.083,6.483-3.417,5.65-4.75z"/>
	</g>
</symbol>
<symbol  id="FlashAICB_x2F_buildings_x2F__x3C_Path_x3E__x5F_3" viewBox="0 -66.5 4.826 66.5">
	<g id="Layer_1_2_">
		<path style="fill-rule:evenodd;clip-rule:evenodd;fill:#682D38;" d="M3.5-45.25C3.667-38.583,3.083-23.5,1.75,0
			C2.583-7.867,3.3-16.217,3.9-25.05c1.2-17.667,1.233-28.9,0.1-33.7c-0.7-2.933-1.583-5.1-2.65-6.5C0.85-65.95,0.4-66.367,0-66.5
			c0.833,1,1.417,1.917,1.75,2.75C2.05-62.983,2.367-61,2.7-57.8C3.133-53.967,3.4-49.783,3.5-45.25z"/>
	</g>
</symbol>
<g>
	<path style="fill-rule:evenodd;clip-rule:evenodd;fill:#7F3342;" d="M38.9,86c0.466-6.233-0.2-32.017-2-77.35L55.6,12
		c0.434,12,0.634,24.5,0.601,37.5c-0.134,26-1.45,41.5-3.95,46.5c-1.3,2.6-3.667,4.884-7.1,6.85c-1.4,0.801-4.667,2.267-9.801,4.4
		c-4.066,1.7-6.966,3.3-8.7,4.8c-2.5,2.134-3.75,4.783-3.75,7.95c0,9.333,0.067,19.35,0.2,30.05c-0.733,0.601-1.783,1.184-3.15,1.75
		c-2.733,1.167-5.633,1.684-8.7,1.55c-3.067-0.133-5.717-0.899-7.95-2.3l-2.45-2c-0.767-7.5-1-15.066-0.7-22.7
		c0.567-15.233,3.483-23.133,8.75-23.699c7.267-0.767,13.767-2.551,19.5-5.351C35.1,94.066,38.6,90.3,38.9,86z"/>
	<g>
		<path style="fill-rule:evenodd;clip-rule:evenodd;fill:#9B3A4C;" d="M54.1,24.05c0.101,7.633,0.117,15.7,0.051,24.2
			c-0.067,17-0.417,27.683-1.051,32.05c-0.733,5.033-2.316,10.117-4.75,15.25c0.7-1.566,1.284-3.983,1.75-7.25
			c1.5-10.5,2.25-20.167,2.25-29c0-8.167-0.583-19.833-1.75-35L54.1,24.05z"/>
		<path style="fill-rule:evenodd;clip-rule:evenodd;fill:#9B3A4C;" d="M19.35,117.05c0.2-0.934,0.717-1.916,1.55-2.95l1.2-1.3
			l-0.75,4.15c-0.5,3.3-0.75,6.25-0.75,8.85c0,4.167,0.25,11.917,0.75,23.25L20.8,150c-0.5,0.566-1.066,0.583-1.7,0.05
			c-0.5-8.333-0.75-14.583-0.75-18.75C18.35,124.8,18.683,120.05,19.35,117.05z"/>
		<path style="fill-rule:evenodd;clip-rule:evenodd;fill:#682D38;" d="M39.85,87.8c-0.333,0.834-0.916,1.75-1.75,2.75
			c0.4-0.133,0.851-0.55,1.351-1.25c1.066-1.399,1.95-3.566,2.649-6.5C43.233,78,43.2,66.767,42,49.1
			c-0.6-8.833-1.316-17.184-2.15-25.05c1.334,23.5,1.917,38.583,1.75,45.25c-0.1,4.534-0.366,8.717-0.8,12.55
			C40.467,85.05,40.15,87.033,39.85,87.8z M47.7,15.3c4.366,0.967,7.083,2.817,8.149,5.55l0.051,2.8
			c-4.801,0.767-8.233,0.9-10.301,0.4l-3.25-0.75c1.834,28.833,2.584,46.583,2.25,53.25c-0.267,5.601-0.683,9.283-1.25,11.05
			c-0.767,2.5-2.433,4.567-5,6.2c-2.267,1.434-4.767,2.533-7.5,3.3c-2.267,0.467-3.434,0.7-3.5,0.7
			c7.367-3.3,11.216-7.233,11.55-11.8c0.366-5.066-0.217-28.883-1.75-71.45C41.25,14.383,44.767,14.633,47.7,15.3z"/>
		<path style="fill-rule:evenodd;clip-rule:evenodd;fill:#682D38;" d="M50.6,98.05h0.351c-1.5,1.967-3.8,3.767-6.9,5.4
			c-1.166,0.6-4.05,1.866-8.649,3.8c-7.234,3-11.3,6.417-12.2,10.25c-0.5-2.033-0.184-4.217,0.95-6.55
			c0.867-1.834,1.934-3.3,3.2-4.4c0.733-0.633,1.767-1.066,3.1-1.3c2.5-0.4,4.717-0.884,6.649-1.45
			C41.6,102.467,46.1,100.55,50.6,98.05z"/>
		<path style="fill-rule:evenodd;clip-rule:evenodd;fill:#682D38;" d="M12.2,107.55l1.65-1.25c-1.167,0.5-2.267,0.851-3.3,1.05
			c-2.033,0.367-2.683-0.233-1.95-1.8l-1.55,1.3c-1.1,1.434-1.917,3.667-2.45,6.7S3.867,123.033,4,132.9
			c0.067,4.933,0.183,9.566,0.35,13.899c0.5,1.334,1.167,2.084,2,2.25c0.833,0.167,1.25-0.416,1.25-1.75c-0.833-13-1.083-22-0.75-27
			c0.233-3.267,0.6-5.616,1.1-7.05c0.167-0.467,0.716-1.45,1.65-2.95C10.133,109.467,11,108.55,12.2,107.55z M23.35,104.05
			c-0.533,0.101-1.217,0.283-2.05,0.55c-1.6,0.601-3.083,1.417-4.45,2.45c-2.133,1.634-3.617,3.233-4.45,4.8
			c-1.367,2.567-2.217,6.467-2.55,11.7c-0.434,6.8-0.283,16.7,0.45,29.7c-2.767-0.233-5.167-1-7.2-2.3l-2.25-1.9
			c-0.767-7.5-1-15.066-0.7-22.7c0.567-15.233,3.483-23.133,8.75-23.699c1.967-0.2,3.934-0.5,5.9-0.9c-1.433,0.967-2,1.816-1.7,2.55
			C13.433,105.134,16.85,105.05,23.35,104.05z"/>
		
			<use xlink:href="#FlashAICB_x2F_buildings_x2F__x3C_Path_x3E__x5F_3"  width="4.826" height="66.5" y="-66.5" transform="matrix(1 0 0 -1 38.0996 24.0498)" style="overflow:visible;enable-background:new    ;"/>
		<path style="fill-rule:evenodd;clip-rule:evenodd;fill:#5A2932;" d="M39.45,89.3c-0.5,0.7-0.95,1.117-1.351,1.25
			c0.834-1,1.417-1.916,1.75-2.75c0.301-0.767,0.617-2.75,0.95-5.95c0.434-3.833,0.7-8.016,0.8-12.55
			c0.167-6.667-0.416-21.75-1.75-45.25C40.684,31.917,41.4,40.267,42,49.1c1.2,17.667,1.233,28.9,0.1,33.7
			C41.4,85.733,40.517,87.9,39.45,89.3z"/>
		
			<use xlink:href="#FlashAICB_x2F_buildings_x2F__x3C_Path_x3E__x5F_1"  width="9.89" height="43.528" x="0.01" y="-43.528" transform="matrix(1 0 0 -1 3.9502 105.5498)" style="overflow:visible;enable-background:new    ;"/>
		<path style="fill-rule:evenodd;clip-rule:evenodd;fill:#5A2932;" d="M9.6,110.3c-0.934,1.5-1.483,2.483-1.65,2.95
			c-0.5,1.434-0.867,3.783-1.1,7.05c-0.333,5-0.083,14,0.75,27c0,1.334-0.417,1.917-1.25,1.75c-0.833-0.166-1.5-0.916-2-2.25
			C4.183,142.467,4.067,137.833,4,132.9c-0.133-9.867,0.067-16.317,0.6-19.351s1.35-5.267,2.45-6.7l1.55-1.3
			c-0.733,1.566-0.083,2.167,1.95,1.8c1.034-0.199,2.133-0.55,3.3-1.05l-1.65,1.25C11,108.55,10.133,109.467,9.6,110.3z"/>
	</g>
	<path style="fill-rule:evenodd;clip-rule:evenodd;fill:#5B2932;" d="M46.1,7.3c3.967,0.434,7.867,0.15,11.7-0.85
		c1.9-0.5,3.417-1.05,4.55-1.65c-0.333,3.167-0.583,5.833-0.75,8c-0.133,1.633-0.783,3.567-1.949,5.8
		c-1.167,2.233-2.184,3.467-3.051,3.7c-0.733,0.233-2.083,0.45-4.05,0.65c-2.533,0.233-4.767,0.267-6.7,0.1
		c-2.933-0.233-5.6-1.066-8-2.5c-1.3-0.733-2.133-1.316-2.5-1.75c-0.6-0.7-1.183-2.033-1.75-4c-0.833-2.833-1.25-6.533-1.25-11.1
		l3.301,1.45C38.65,6.183,42.134,6.9,46.1,7.3z"/>
	<path style="fill-rule:evenodd;clip-rule:evenodd;fill:#843544;" d="M47.95,0.1c9.666,0.566,14.467,2.133,14.399,4.7
		c-0.066,2-1.399,3.3-4,3.9C56.184,9.167,52.2,9.267,46.4,9C41.267,8.767,37.5,8.067,35.1,6.9c-2.166-1.066-3.033-2.4-2.6-4
		c0.3-1.133,2.033-1.95,5.2-2.45C40.6,0.017,44.017-0.1,47.95,0.1z"/>
	<path style="fill-rule:evenodd;clip-rule:evenodd;fill:#843544;" d="M55.35,10.45c1.233,0.333,3.067,0.083,5.5-0.75
		c-0.333,2.833-0.916,5.167-1.75,7c-0.533,1.133-1.35,2.033-2.449,2.7L55.1,20.05c0.733-1,1.233-2.25,1.5-3.75
		C56.833,14.8,56.417,12.85,55.35,10.45z"/>
	<path style="fill-rule:evenodd;clip-rule:evenodd;fill:#4E252C;" d="M40.95,18.95c1.967,1.367,4.383,2.417,7.25,3.15
		c1.399,0.367,2.616,0.6,3.649,0.7c-1.233,0-2.6-0.05-4.1-0.15c-2.934-0.2-4.95-0.517-6.05-0.95c-2.233-0.867-3.367-1.3-3.4-1.3
		c-1.1-0.566-2.083-1.383-2.95-2.45c-0.833-1.034-1.517-3.25-2.05-6.65c-0.3-1.667-0.5-3.25-0.6-4.75
		c0.833,1.133,2.333,1.983,4.5,2.55c1.1,0.267,2.1,0.417,3,0.45c-0.667,1.034-1.134,2.2-1.4,3.5
		C38.267,15.617,38.983,17.583,40.95,18.95z"/>
	<path style="fill-rule:evenodd;clip-rule:evenodd;fill:#3E2126;" d="M48.1,1.7c3.2,0.3,5.45,0.583,6.75,0.85
		c2.667,0.5,4.167,1.217,4.5,2.15c0.567,1.566-2.399,2.35-8.899,2.35c-2.334,0-5.3-0.35-8.9-1.05c-3.866-0.8-5.899-1.567-6.1-2.3
		c-0.167-0.833,1.066-1.45,3.7-1.85C41.783,1.417,44.767,1.367,48.1,1.7z"/>
</g>
</svg>
