<?xml version="1.0" encoding="iso-8859-1"?>
<!-- Generator: Adobe Illustrator 15.1.0, SVG Export Plug-In . SVG Version: 6.00 Build 0)  -->
<!DOCTYPE svg PUBLIC "-//W3C//DTD SVG 1.1//EN" "http://www.w3.org/Graphics/SVG/1.1/DTD/svg11.dtd">
<svg version="1.1" id="buildings" xmlns="http://www.w3.org/2000/svg" xmlns:xlink="http://www.w3.org/1999/xlink" x="0px" y="0px"
	 width="96.6px" height="61.15px" viewBox="0 0 96.6 61.15" style="enable-background:new 0 0 96.6 61.15;" xml:space="preserve">
<g>
	<path style="fill-rule:evenodd;clip-rule:evenodd;fill:#D15869;" d="M85.05,23.55c2.967,8.4,5.066,16.934,6.3,25.601
		c-0.833,2.1-2.916,4.066-6.25,5.899l-4.75,2.101c-1.566-7.067-3.433-14.184-5.6-21.351c-4.333-14.333-7.967-21.716-10.9-22.15
		c-2.566-0.367-13.1,1.9-31.6,6.8c-18.7,4.9-28.75,7.3-30.15,7.2c-1.6-0.1-2.283-2.383-2.05-6.85c0.233-4.333,0.867-6.8,1.9-7.4
		c1.8-1,8.533-2.833,20.2-5.5c13.667-3.133,27.4-5.717,41.2-7.75C71.884-1.083,79.116,6.717,85.05,23.55z"/>
	<g>
		<path style="fill-rule:evenodd;clip-rule:evenodd;fill:#CA3654;" d="M73.1,30.65c-3.633-10.967-6.716-16.633-9.25-17
			c-2.566-0.367-13.1,1.9-31.6,6.8c-18.7,4.9-28.75,7.3-30.15,7.2c-0.833-0.033-1.417-0.783-1.75-2.25
			c-0.3-1.267-0.4-2.883-0.3-4.85c10.633-2.333,20.483-4.466,29.55-6.4C47.267,10.383,57.767,8.3,61.1,7.9
			C64.7,7.467,68.45,10.833,72.35,18c2.567,4.767,4.684,9.95,6.351,15.55C79.967,37.717,81.767,44,84.1,52.4l-4.449,1.8
			C77.517,45.233,75.333,37.384,73.1,30.65z"/>
	</g>
	<path style="fill-rule:evenodd;clip-rule:evenodd;fill:#893342;" d="M62.2,10.4c3.066-0.533,5.833,1.633,8.3,6.5
		c0.9,1.767,2.384,5.733,4.45,11.9c1.333,4,2.833,10.45,4.5,19.351c-2.167-8.167-3.867-13.834-5.101-17
		c-4.633-11.567-7.633-17.601-9-18.101c-1.066-0.367-3.449-0.333-7.149,0.1c-3.733,0.467-7.066,1.133-10,2
		c-2.767,0.833-10.784,2.95-24.05,6.35c-13.1,3.367-19.917,5.083-20.45,5.15l-1.3,0.2c-0.433-0.067-0.783-0.417-1.05-1.05
		S0.967,24.433,1,23.6l0.1-1.05C37.1,15.283,57.467,11.233,62.2,10.4z"/>
	<path style="fill-rule:evenodd;clip-rule:evenodd;fill:#ED9D9D;" d="M65.2,2.05c1.633,0.267,3.416,1.267,5.35,3
		c0.81,0.726,1.501,1.426,2.075,2.1c-0.692-0.739-1.751-1.323-3.175-1.75C68.116,5,66.467,4.75,64.5,4.65
		c-2.167-0.133-4.267-0.05-6.3,0.25C55.366,5.333,36.833,9.5,2.6,17.4c0.167-0.333,0.25-0.783,0.25-1.35
		c0-0.367,0.133-0.85,0.4-1.45l0.35-0.8c9.433-2.066,19.066-4.117,28.9-6.15C52.167,3.617,63.066,1.75,65.2,2.05z"/>
	<path style="fill-rule:evenodd;clip-rule:evenodd;fill:#E87A80;" d="M86.1,44.05c-0.767-5.5-1.517-9.883-2.25-13.15
		c-0.466-2.033-1.866-5.483-4.199-10.35L76.35,13.8l3.45,4.75c2.5,3.867,4.217,7.483,5.15,10.85c1.5,5.433,2.583,10.35,3.25,14.75
		C87.366,43.75,86.667,43.717,86.1,44.05z"/>
	<path style="fill-rule:evenodd;clip-rule:evenodd;fill:#BC4D5A;" d="M85.1,46.05c4-0.899,7.017-0.399,9.051,1.5
		c1.633,1.533,2.449,3.767,2.449,6.7c-1.033,2.467-3.716,4.384-8.05,5.75c-4.434,1.366-7.8,1.167-10.1-0.6
		c-1.634-2.534-1.75-5.2-0.351-8C79.5,48.6,81.833,46.816,85.1,46.05z"/>
	<g>
		<path style="fill-rule:evenodd;clip-rule:evenodd;fill:#8F3F49;" d="M82.55,46.95c0,0.066-0.1,0.416-0.3,1.05
			c-0.2,0.7-0.3,1.316-0.3,1.85c0,0.601,0.566,0.801,1.7,0.601c0.633-0.066,1.583-0.267,2.85-0.601c1.066-0.166,2.45-0.166,4.15,0
			c-1.7,0.667-3.434,1.434-5.2,2.301c-3.5,1.666-5.4,2.916-5.7,3.75c-0.2,0.6-0.833,1.383-1.9,2.35c-0.933-2.066-0.933-4.184,0-6.35
			C78.783,49.733,80.35,48.083,82.55,46.95z"/>
	</g>
	<path style="fill-rule:evenodd;clip-rule:evenodd;fill:#652A33;" d="M86.85,50.15c2.4-0.434,4.434-0.483,6.101-0.15
		c2.133,0.4,3.316,1.4,3.55,3c0.3,1.7-0.2,3.217-1.5,4.55c-1.434,1.4-3.65,2.4-6.65,3c-6.6,1.334-10.149,0.434-10.649-2.7
		c-0.3-1.733,0.5-3.333,2.399-4.8C81.833,51.65,84.083,50.684,86.85,50.15z"/>
	
		<linearGradient id="SVGID_1_" gradientUnits="userSpaceOnUse" x1="-80.1699" y1="70.3467" x2="-72.8265" y2="70.3467" gradientTransform="matrix(-0.2553 -0.9669 0.9669 -0.2553 -2.608299e-004 7.562339e-004)">
		<stop  offset="0" style="stop-color:#893342"/>
		<stop  offset="1" style="stop-color:#2D1D1E"/>
	</linearGradient>
	<path style="fill-rule:evenodd;clip-rule:evenodd;fill:url(#SVGID_1_);" d="M86.2,52.3c2-0.633,4-0.684,6-0.149
		c1.899,0.533,2.916,1.283,3.05,2.25c0.134,0.966-0.434,1.933-1.7,2.899c-1.3,1-2.983,1.767-5.05,2.3
		c-2.033,0.534-3.917,0.634-5.65,0.301c-1.699-0.334-2.666-0.95-2.899-1.851c-0.233-0.899,0.267-1.916,1.5-3.05
		C82.684,53.8,84.267,52.9,86.2,52.3z"/>
	<path style="fill-rule:evenodd;clip-rule:evenodd;fill:#C76B70;" d="M88.4,46.8c1.767-0.399,3.316,0.017,4.649,1.25
		C93.717,48.65,94.2,49.3,94.5,50l-2.55-0.85c-0.167-0.267-0.566-0.7-1.2-1.301c-0.366-0.366-0.866-0.649-1.5-0.85L88.4,46.8z"/>
	<path style="fill-rule:evenodd;clip-rule:evenodd;fill:#7C3941;" d="M78.1,52.85c0.534-1.666,1.5-2.983,2.9-3.949
		c-0.167,0.199-0.35,0.433-0.55,0.699c-0.367,0.534-0.566,1-0.601,1.4l-0.199,1.35l-1,1.301c-0.167,0.333-0.467,0.8-0.9,1.399
		C77.75,54.417,77.866,53.684,78.1,52.85z"/>
</g>
</svg>
