<?xml version="1.0" encoding="iso-8859-1"?>
<!-- Generator: Adobe Illustrator 15.1.0, SVG Export Plug-In . SVG Version: 6.00 Build 0)  -->
<!DOCTYPE svg PUBLIC "-//W3C//DTD SVG 1.1//EN" "http://www.w3.org/Graphics/SVG/1.1/DTD/svg11.dtd">
<svg version="1.1" id="buildings" xmlns="http://www.w3.org/2000/svg" xmlns:xlink="http://www.w3.org/1999/xlink" x="0px" y="0px"
	 width="97px" height="19px" viewBox="0 0 97 19" style="enable-background:new 0 0 97 19;" xml:space="preserve">
<g>
	<path style="fill-rule:evenodd;clip-rule:evenodd;fill:#859F8C;" d="M96,7c-5.167,1.5-11.116,2.883-17.85,4.15
		C64.717,13.717,54.1,14.4,46.3,13.2C33.867,11.3,20.483,9.067,6.15,6.5L2,0h11.15c2.434,0.633,5.7,1.3,9.8,2
		C31.183,3.433,39.533,4.383,48,4.85C61.533,5.617,76.467,5.9,92.8,5.7L96,7z"/>
	<path style="fill-rule:evenodd;clip-rule:evenodd;fill:#768D7C;" d="M96,7l1,3.5c-6,1.333-12.75,2.684-20.25,4.05
		C61.75,17.316,50.5,18.8,43,19s-16.917-1.4-28.25-4.8C9.083,12.5,4.167,10.767,0,9l2-9c1.5,0.833,4.1,1.8,7.8,2.9
		C17.233,5.067,26.467,6.767,37.5,8c11.033,1.267,24.1,1.483,39.2,0.65C84.233,8.217,90.667,7.667,96,7z"/>
</g>
</svg>
