<?xml version="1.0" encoding="iso-8859-1"?>
<!-- Generator: Adobe Illustrator 15.1.0, SVG Export Plug-In . SVG Version: 6.00 Build 0)  -->
<!DOCTYPE svg PUBLIC "-//W3C//DTD SVG 1.1//EN" "http://www.w3.org/Graphics/SVG/1.1/DTD/svg11.dtd">
<svg version="1.1" id="Isolation_Mode" xmlns="http://www.w3.org/2000/svg" xmlns:xlink="http://www.w3.org/1999/xlink" x="0px"
	 y="0px" width="135.4px" height="104.1px" viewBox="0 0 135.4 104.1" style="enable-background:new 0 0 135.4 104.1;"
	 xml:space="preserve">
<linearGradient id="SVGID_1_" gradientUnits="userSpaceOnUse" x1="60.5815" y1="68.1504" x2="135.4004" y2="68.1504">
	<stop  offset="0" style="stop-color:#DCAB8C"/>
	<stop  offset="1" style="stop-color:#D08B68"/>
</linearGradient>
<path style="fill-rule:evenodd;clip-rule:evenodd;fill:url(#SVGID_1_);" d="M128.15,48.05c-3.567,6.667-5.351,12.434-5.351,17.3
	c0,4.867,2.101,10.217,6.3,16.051c2.101,2.933,4.2,5.366,6.301,7.3c-2.634-0.367-5.534-0.617-8.7-0.75
	c-6.3-0.233-10.717,0.333-13.25,1.7c-2.533,1.366-4.15,4.183-4.851,8.449c-0.366,2.134-0.466,4.134-0.3,6
	c-5.833-1.699-12.066-4.267-18.7-7.699c-13.3-6.834-22-14.534-26.1-23.101c-4.067-8.566-3.883-17.983,0.55-28.25
	c2.2-5.133,4.816-9.417,7.851-12.85l61.6,7.25C131.733,41.817,129.95,44.683,128.15,48.05z"/>
<g>
	<path style="fill-rule:evenodd;clip-rule:evenodd;fill:#BB7D60;" d="M107.95,65.2c-2.5,1.3-4.351,2.399-5.55,3.3
		c-1.934,1.4-3.284,2.917-4.051,4.55c-0.966,2-0.85,4.184,0.351,6.55c0.733,1.434,2.184,3.351,4.35,5.75l0.15,0.15
		c1.2-1.833,3.283-3.316,6.25-4.45c1.8-0.666,4.399-1.316,7.8-1.95l1.95-0.399c-1.601-1.5-2.5-3.767-2.7-6.8
		c-0.1-1.834,0.066-4.617,0.5-8.351l0.05-0.2c-1.233-0.6-2.184-1.149-2.85-1.649L107.95,65.2z M97.05,45.9
		c0.934,1.1,2.117,1.817,3.55,2.15c0.834,0.2,2.217,0.317,4.15,0.35c2.9,0,5.017,0.367,6.35,1.1c0.334-0.4,0.817-0.867,1.45-1.4
		c2.066-1.467,4.533-1.934,7.4-1.4c2.033,0.4,4.5,1.367,7.399,2.9l-0.3,0.6c-2.8-1.467-5.166-2.383-7.1-2.75
		c-2.733-0.534-5.05-0.117-6.95,1.25c-1.9,1.3-2.85,3-2.85,5.1c0,1.3,0.399,2.617,1.199,3.95c0.767,1.3,1.817,2.417,3.15,3.35
		c1.934,1.334,4.7,2.584,8.3,3.75v0.7c-2-0.633-3.7-1.267-5.1-1.899c-0.566,4.833-0.617,8.283-0.15,10.35
		c0.8,3.6,3.084,5.7,6.851,6.3c1.1,0.167,2.449,0.25,4.05,0.25l0.5,0.7h-0.3c-1.767,0-3.233-0.1-4.4-0.3
		c-2-0.267-3.634-0.983-4.9-2.15l0.101,0.55l-2.101,0.45c-3.533,0.667-6.149,1.316-7.85,1.95c-2.866,1.1-4.85,2.566-5.95,4.4
		c-1.7,2.933-0.866,6.583,2.5,10.949c0.5,0.634,1.283,1.517,2.351,2.65l-0.101,0.95c-1.066-1.134-2-2.184-2.8-3.15
		c-3.434-4.434-4.333-8.233-2.7-11.399l-0.3-0.351c-2.233-2.533-3.7-4.5-4.4-5.899c-1.3-2.567-1.416-4.95-0.35-7.15
		c0.8-1.7,2.2-3.283,4.2-4.75c1.133-0.866,3.017-2.017,5.649-3.45l5.95-3.3c-1.233-1-2.217-2.15-2.95-3.45
		c-0.767-1.366-1.149-2.7-1.149-4s0.399-2.533,1.2-3.7c-1.067-0.6-2.733-0.934-5-1c0.166,2.5-0.017,4.55-0.551,6.15
		c-0.733,2.134-2.166,3.733-4.3,4.8c-0.833,0.434-1.95,0.834-3.35,1.2l-0.2-0.65c1.8-0.6,2.866-0.983,3.2-1.149
		c2-1,3.333-2.483,4-4.45c0.5-1.5,0.666-3.467,0.5-5.9h-0.2c-2-0.033-3.45-0.167-4.35-0.4c-1.567-0.367-2.851-1.15-3.851-2.35
		c-0.833-0.967-1.35-2.233-1.55-3.8l0.7-0.1C95.866,43.85,96.316,45,97.05,45.9z"/>
</g>
<path style="fill-rule:evenodd;clip-rule:evenodd;fill:#B67A5F;" d="M124.5,42.6c-5.3-0.9-9.5-1.25-12.6-1.05
	c-5.601,0.167-9.851,0.4-12.75,0.7c-5.134,0.6-8.534,1.817-10.2,3.65c-1.667,1.8-3.084,1.617-4.25-0.55
	c-0.834-2.633-1.3-4.05-1.4-4.25c-0.066-0.233,3.5-1.083,10.7-2.55c3.6-0.733,7.2-1.45,10.8-2.15l28.7,3.05L131.55,44
	C129.517,43.533,127.167,43.067,124.5,42.6z"/>
<path style="fill-rule:evenodd;clip-rule:evenodd;fill:#CB7E5C;" d="M101.65,95.75c2.267,3.233,4.483,6.017,6.649,8.35l-39.7-2.949
	c-3.033-1.367-6.649-2.784-10.85-4.25c-8.4-2.934-15.517-4.617-21.35-5.051c-5.833-0.433-13.65-0.383-23.45,0.15
	C8.05,92.267,3.733,92.566,0,92.9c1.4-1,2.917-2.217,4.55-3.65c3.267-2.833,5.483-5.267,6.65-7.3c1.167-2.066,2.483-5.283,3.95-9.65
	c1.367-4,1.983-6,1.85-6l15.2-16.55c-1.1-1.133-2.3-2.633-3.6-4.5c-2.6-3.733-4.434-7.45-5.5-11.15c-1.067-3.7-2.133-10.5-3.2-20.4
	C19.4,8.767,18.983,4.2,18.65,0C21.317,4.9,25,10.25,29.7,16.05c9.433,11.6,19.3,19.633,29.6,24.1s20.084,8.3,29.351,11.5
	c4.633,1.6,8.233,2.75,10.8,3.45L96.5,63.2c-1.866,6.3-2.6,11.684-2.2,16.149C94.7,83.816,97.15,89.283,101.65,95.75z"/>
<g>
	<path style="fill-rule:evenodd;clip-rule:evenodd;fill:#AD745A;" d="M62.7,78.4c-0.333-0.233-0.95-0.534-1.85-0.9
		c-0.4,1.533-0.7,3.1-0.9,4.7c1.9-0.733,3.433-1.5,4.6-2.3l-0.4-0.351C63.65,79.05,63.167,78.667,62.7,78.4z M89.8,80.85
		c-2.399-1.033-4.717-1.267-6.95-0.699c-1.733,0.433-3.816,1.683-6.25,3.75c0.467,0.733,0.851,1.399,1.15,2
		c0.9,1.933,1.517,3.949,1.85,6.05c1.967-0.767,3.784-0.95,5.45-0.55c1.667,0.433,3.033,1.399,4.101,2.899
		c2.333-1.366,3.949-2.55,4.85-3.55c1.467-1.7,1.733-3.517,0.8-5.45C93.833,83.366,92.167,81.884,89.8,80.85z M85.55,66.75
		c-1.666-0.2-3.1,0.167-4.3,1.1c-1.167,0.934-1.983,2.2-2.45,3.801c-0.467,1.633-0.434,3.166,0.101,4.6
		c0.333,1.033,1.149,2.267,2.449,3.7l1.301-0.5C85.05,78.85,87.533,79.1,90.1,80.2c2.534,1.133,4.317,2.733,5.351,4.8
		c1.066,2.167,0.783,4.2-0.851,6.1c-0.933,1.101-2.616,2.367-5.05,3.801L89.65,95.1c0.566,0.967,1,2.15,1.3,3.551
		c0.333,1.433,0.467,2.833,0.399,4.199l-0.699-0.05c0.166-2.7-0.367-5.149-1.601-7.35c-0.934-1.733-2.217-2.834-3.85-3.3
		c-1.634-0.5-3.483-0.334-5.55,0.5c0.433,3.133,0.316,6.233-0.351,9.3l-0.7-0.05c0.9-4.034,0.834-8.034-0.199-12l-0.051,0.05
		c-1.733-1.167-3.466-1-5.199,0.5c-1.2,1-2.301,2.5-3.301,4.5c-0.899,1.8-1.6,3.75-2.1,5.85l-0.6-0.3c0.5-2.167,1.216-4.167,2.149-6
		c1.033-2.033,2.167-3.566,3.4-4.6c1.8-1.5,3.633-1.767,5.5-0.801c-0.334-1.166-0.7-2.133-1.101-2.899
		c-2.199-4.634-5.533-7.066-10-7.3V78.6c-1.6,1.733-4.016,3.2-7.25,4.4c-0.233,2.366-0.033,4.366,0.6,6
		c0.3,0.667,0.816,1.583,1.55,2.75c0.733,1.134,1.233,2,1.5,2.6c0.4,1.034,0.55,2.051,0.45,3.051
		c-0.034,0.566-0.184,1.116-0.45,1.649l-0.65-0.25c0.233-0.566,0.367-1.066,0.4-1.5c0.1-0.866-0.033-1.767-0.4-2.7
		c-0.267-0.566-0.75-1.383-1.45-2.449c-0.867-1.434-1.4-2.4-1.6-2.9l-0.1-0.45c-1.034-0.1-2.117,0.434-3.25,1.601
		c-1.1,1.133-2.167,2.8-3.2,5l-0.65-0.2c1.033-2.267,2.15-4.033,3.35-5.3c1.167-1.2,2.333-1.801,3.5-1.801
		c-0.633-2.6-0.383-6.216,0.75-10.85c-2.434-0.7-5.117-0.35-8.05,1.05c-1.733,0.8-4.233,2.4-7.5,4.8L43,84.3
		c2.167,1.767,3.517,3.717,4.05,5.851c0.3,1.066,0.3,2.25,0,3.55l-0.65-0.15c0.233-1.166,0.217-2.233-0.05-3.2
		c-0.5-1.866-1.667-3.6-3.5-5.199c-1.533-1.4-3.45-2.601-5.75-3.601c0.1,1.733-0.283,4.267-1.15,7.601L35.3,91.8l-0.7-0.05L35.25,89
		c0.933-3.5,1.317-6.083,1.15-7.75c-1.6-0.667-3.15-1.167-4.65-1.5c-3-0.6-5.75-0.4-8.25,0.6c-2.5,0.967-4.967,2.817-7.4,5.551
		l-0.05-0.051c0.067,1.934-0.233,3.95-0.9,6.051H14.4c1.167-3.601,1.25-7.067,0.25-10.4c-0.433-1.5-0.95-2.733-1.55-3.7l0.35-0.75
		c0.767,1.066,1.383,2.483,1.85,4.25c0.367,1.066,0.6,2.3,0.7,3.7c2.267-2.434,4.55-4.15,6.85-5.15c2.333-1,4.85-1.333,7.55-1
		c-0.3-2.066-0.75-3.716-1.35-4.949c-0.8-1.7-2-3.034-3.6-4c-0.7-0.367-1.65-0.801-2.85-1.301l0.3-0.649
		c1.3,0.533,2.267,0.983,2.9,1.35c1.767,1.033,3.083,2.483,3.95,4.351c0.6,1.3,1.067,3.083,1.4,5.35l0.75,0.1
		c1.6,0.334,3.283,0.867,5.05,1.601c2.1,0.866,3.933,1.899,5.5,3.1l1.75-1.25c3.833-2.8,6.816-4.6,8.95-5.399
		c3.667-1.4,6.983-1.184,9.95,0.649c0.5,0.3,1.017,0.717,1.55,1.25l0.5,0.45c3.133-2.366,4.2-5.4,3.2-9.1
		c-0.5-1.7-1.417-3.384-2.75-5.051c-0.767-0.966-2.083-2.35-3.95-4.149c-1.533-1.467-2.667-2.617-3.4-3.45
		c-1.167-1.366-2.067-2.7-2.7-4c-0.333-0.733-0.6-1.55-0.8-2.45v0.05c-1.8-0.533-3.6-0.8-5.4-0.8c-2.167,0-3.983,0.434-5.45,1.3
		c-1.733,1-2.833,2.534-3.3,4.6l-0.7-0.15c0.5-2.233,1.717-3.917,3.65-5.05l0.6-0.25c0.6-1.967,0.233-3.75-1.1-5.35
		c-0.9-1.033-2.117-1.95-3.65-2.75h-0.1v-0.05c-1.933-1-4.1-1.75-6.5-2.25c-2.3-0.467-4.216-0.583-5.75-0.35L25.7,40.5l-0.3-0.65
		c0.967-0.2,1.483-0.3,1.55-0.3c0.966-0.167,2.117-0.167,3.45,0c0.434-3.5-0.283-6.85-2.15-10.05c-1.767-2.967-4.2-5.35-7.3-7.15
		l-0.1-0.85c3.333,1.8,5.95,4.267,7.85,7.4c2.066,3.434,2.867,7,2.4,10.7c2.933,0.4,5.683,1.233,8.25,2.5
		c0.033-1.333,0.617-2.783,1.75-4.35c0.9-1.3,1.95-2.417,3.15-3.35l0.4,0.55c-1.133,0.867-2.15,1.95-3.05,3.25
		c-1.1,1.566-1.633,2.983-1.6,4.25c1.5,0.767,2.7,1.683,3.6,2.75c1.333,1.633,1.767,3.433,1.3,5.4c2.8-1.033,6.05-1.033,9.75,0
		c-0.3-1.833-0.2-4.367,0.3-7.6l0.7,0.15c-0.333,2.233-0.5,4-0.5,5.3c0.033,1.9,0.383,3.566,1.05,5c0.9,1.899,2.733,4.166,5.5,6.8
		c2.1-1.967,3.9-3.4,5.399-4.3c2.067-1.233,3.934-1.733,5.601-1.5c1.3,0.2,2.55,0.916,3.75,2.149c1.133-0.3,1.95-0.816,2.45-1.55
		s0.767-1.767,0.8-3.1h0.7c-0.034,2.733-1.167,4.45-3.4,5.149c0.733,0.934,1.3,1.767,1.7,2.5l1.1,2.2
		c1.934-0.6,3.917-0.467,5.95,0.4c2.033,0.866,3.517,2.217,4.45,4.05c0.333,0.667,0.434,1.833,0.3,3.5
		c-0.134,1.9,0.116,3.116,0.75,3.65c0.7,0.6,1.616,0.616,2.75,0.05l0.35,0.649c-0.633,0.301-1.233,0.45-1.8,0.45
		c-0.7,0-1.283-0.2-1.75-0.6c-0.533-0.434-0.866-1.066-1-1.9c-0.066-0.5-0.066-1.283,0-2.35l0.101-1.55
		C88.1,67.35,86.65,66.884,85.55,66.75z M81.3,67l-0.1-0.35c-1.367-3.267-2.4-5.5-3.101-6.7c-1.633-2.9-3.466-4.5-5.5-4.8
		c-1.533-0.233-3.283,0.25-5.25,1.449c-1.333,0.834-3.05,2.217-5.149,4.15c1.9,1.833,3.25,3.25,4.05,4.25
		c1.333,1.7,2.25,3.434,2.75,5.2c0.866,3.033,0.35,5.717-1.55,8.05c3.566,0.3,6.467,1.983,8.7,5.05c1.833-1.533,3.333-2.566,4.5-3.1
		c-1.233-1.367-2.051-2.601-2.45-3.7c-0.533-1.6-0.55-3.283-0.05-5.05c0.5-1.733,1.399-3.117,2.699-4.15L81.3,67z M89.8,67.35
		c-0.066-0.366-0.149-0.633-0.25-0.8c-0.8-1.666-2.133-2.899-4-3.7c-1.833-0.767-3.649-0.916-5.45-0.449
		c0.9,2,1.467,3.316,1.7,3.949L81.9,66.6c1.166-0.6,2.5-0.767,4-0.5C86.967,66.267,88.267,66.684,89.8,67.35z"/>
</g>
<path style="fill-rule:evenodd;clip-rule:evenodd;fill:#DEB092;" d="M90.1,41.55c-2.199,1.6-1.3,4.333,2.7,8.2
	c2,1.967,4.217,3.75,6.65,5.35C92.85,53.533,85.566,51.45,77.6,48.85c-15.866-5.2-27.116-10.434-33.75-15.7
	c-6.6-5.233-12.783-12.333-18.55-21.3C22.433,7.383,20.217,3.433,18.65,0c3.067,2.867,7.417,6.133,13.05,9.8
	c11.233,7.3,23.233,12.9,36,16.8c9.533,2.933,23.35,5.95,41.45,9.05c9.066,1.567,17.183,2.833,24.35,3.8
	c-6.066-0.5-12.417-0.8-19.05-0.9C101.15,38.417,93.033,39.417,90.1,41.55z"/>
<path style="fill-rule:evenodd;clip-rule:evenodd;fill:#D08C6A;" d="M17,66.3l15.2-16.55l34.3,20.3
	c-1.867,0.533-4.383,0.983-7.55,1.351c-6.333,0.733-12.767,0.666-19.3-0.2c-6.5-0.867-12.217-1.95-17.15-3.25L17,66.3z"/>
<path style="fill-rule:evenodd;clip-rule:evenodd;fill:#D49674;" d="M81.3,74.25c-5.899-3.6-9.733-6.717-11.5-9.35
	c-1.733-2.634,1.9-4.817,10.9-6.551c4.5-0.866,9.184-1.483,14.05-1.85l-2.45,5.8c-1.666,4.2-2.55,7.167-2.649,8.9
	c-0.167,2.8-0.167,5.366,0,7.7C87.05,77.634,84.267,76.083,81.3,74.25z"/>
<path style="fill-rule:evenodd;clip-rule:evenodd;fill:#D49674;" d="M48.05,42.95c-2.2,0.9-4.617,1.55-7.25,1.95
	c-5.2,0.767-8.767-0.117-10.7-2.65c-2.033-2.633-3.867-7.767-5.5-15.4c-1.767-8.133-2.117-11.083-1.05-8.85
	c1.767,3.7,6.383,8.967,13.85,15.8C41.133,37.233,44.683,40.283,48.05,42.95z"/>
<path style="fill-rule:evenodd;clip-rule:evenodd;fill:#7C5340;" d="M44.8,42.5c-1.1,0.467-2.417,0.833-3.95,1.1
	c-3.067,0.5-5.717,0.2-7.95-0.9c-2.233-1.067-4.066-4.417-5.5-10.05l-1.5-8.15L44.8,42.5z"/>
<path style="fill-rule:evenodd;clip-rule:evenodd;fill:#7C5340;" d="M91.75,58.35c-0.434,0.667-0.917,1.5-1.45,2.5
	c-1.066,2-1.833,3.817-2.3,5.45c-0.467,1.634-0.616,3.767-0.45,6.4C87.65,74,87.8,75.134,88,76.1c-2.767-1.566-5.5-3.25-8.2-5.05
	c-5.434-3.6-8-6.033-7.7-7.3C72.4,62.483,75.767,61.2,82.2,59.9C85.4,59.267,88.583,58.75,91.75,58.35z"/>
<path style="fill-rule:evenodd;clip-rule:evenodd;fill:#DEB092;" d="M116.45,44.35c1.833,0,3.217,0.867,4.149,2.6
	c0.867,1.533,1.217,3.4,1.051,5.6c-0.134,2.2-0.75,4.033-1.851,5.5c-1.166,1.634-2.666,2.367-4.5,2.2c-1.8-0.167-3.149-1.1-4.05-2.8
	c-0.8-1.5-1.1-3.3-0.9-5.4c0.2-2.1,0.834-3.867,1.9-5.3C113.384,45.15,114.783,44.35,116.45,44.35z"/>
<path style="fill-rule:evenodd;clip-rule:evenodd;fill:#7C5340;" d="M117.15,46.25c1.366,0.1,2.333,0.85,2.899,2.25
	c0.5,1.233,0.584,2.7,0.25,4.4c-0.333,1.7-0.967,3.083-1.899,4.15c-1.034,1.167-2.217,1.601-3.551,1.3
	c-2.166-0.433-2.933-2.6-2.3-6.5C113.184,47.917,114.717,46.05,117.15,46.25z"/>
<path style="fill-rule:evenodd;clip-rule:evenodd;fill:#D49674;" d="M25.45,74.25c1.933,0.434,3.5,1.434,4.7,3
	c1.1,1.467,1.667,3.066,1.7,4.8c0.033,1.767-0.517,3.184-1.65,4.25c-1.233,1.2-2.983,1.7-5.25,1.5c-4.367-0.434-6.05-2.934-5.05-7.5
	c0.4-1.767,1.133-3.267,2.2-4.5C23.233,74.5,24.35,73.983,25.45,74.25z"/>
<path style="fill-rule:evenodd;clip-rule:evenodd;fill:#7C5340;" d="M25.9,76.35c0.867,0.167,1.717,0.75,2.55,1.75
	c0.867,1.034,1.433,2.15,1.7,3.351c0.7,3.133-0.8,4.85-4.5,5.149c-3.733,0.334-5.2-1.366-4.4-5.1c0.3-1.434,0.9-2.684,1.8-3.75
	C24.017,76.65,24.967,76.184,25.9,76.35z"/>
<path style="fill-rule:evenodd;clip-rule:evenodd;fill:#5E4133;" d="M42,21.25c2.533-1.467,5.033-0.55,7.5,2.75
	c0.933,1.267,1.5,2.5,1.7,3.7c0.233,1.233-0.067,2-0.9,2.3c-2.433,0.867-4.733,0.083-6.9-2.35c-1-1.1-1.65-2.333-1.95-3.7
	C41.117,22.55,41.3,21.65,42,21.25z"/>
<path style="fill-rule:evenodd;clip-rule:evenodd;fill:#DEB092;" d="M109.25,95.95l-0.6,2c-1.934-4.134-3.75-8.283-5.45-12.45
	c-2.2-5.366-3.617-10.233-4.25-14.6c-1-7,0.283-11.601,3.85-13.801c3.467-2.133,8.267,2.351,14.4,13.45
	c3.066,5.566,5.783,11.351,8.149,17.351L123,88L109.25,95.95z"/>
<path style="fill-rule:evenodd;clip-rule:evenodd;fill:#B67A5F;" d="M116.8,72.65c2.5,5.066,4.65,10.183,6.45,15.35l-14,7.95
	c-2.333-6.033-4.3-12.117-5.9-18.25c-3.233-12.3-3.066-18.75,0.5-19.351C107.45,57.783,111.767,62.55,116.8,72.65z"/>
<path style="fill-rule:evenodd;clip-rule:evenodd;fill:#7C5340;" d="M114.15,73.55c0.6-0.133,1.116,0.434,1.55,1.7
	c0.399,1.233,0.267,1.9-0.4,2c-0.7,0.134-1.267-0.417-1.7-1.65C113.2,74.366,113.384,73.684,114.15,73.55z"/>
<path style="fill-rule:evenodd;clip-rule:evenodd;fill:#A46F57;" d="M116.85,47.5c0.534-0.1,1.15,0.183,1.851,0.85
	c0.733,0.733,1.116,1.55,1.149,2.45c0.101,1.233-0.449,2.283-1.649,3.15c-0.2-0.101-0.351-0.283-0.45-0.55
	c-0.167-0.567-0.017-1.317,0.45-2.25c0.5-0.933,0.434-1.816-0.2-2.65L116.85,47.5z"/>
<path style="fill-rule:evenodd;clip-rule:evenodd;fill:#A46F57;" d="M82.4,60.8l7.35-1.399C88.884,60.2,88.1,61.6,87.4,63.6
	c-0.367,1.034-0.634,1.967-0.801,2.801c-0.066-2.567-0.149-4.117-0.25-4.65c-0.033-0.333-0.699-0.583-2-0.75L82.4,60.8z"/>
<path style="fill-rule:evenodd;clip-rule:evenodd;fill:#A46F57;" d="M35.8,35.15l8.05,7.1c-3.267,0.767-5.25,1.15-5.95,1.15
	c-0.433,0-0.816-0.05-1.15-0.15l-0.35-0.2l2.4-0.3c1.6-0.333,2.35-0.85,2.25-1.55c-0.066-0.7-0.966-1.917-2.7-3.65L35.8,35.15z"/>
<path style="fill-rule:evenodd;clip-rule:evenodd;fill:#A46F57;" d="M25.3,77.25c0.767-0.066,1.583,0.25,2.45,0.95
	c0.933,0.733,1.483,1.6,1.65,2.6c0.133,0.867-0.033,1.55-0.5,2.05c-0.267,0.267-0.533,0.434-0.8,0.5c0.167-1.1,0.133-2.199-0.1-3.3
	c-0.133-0.666-0.633-1.333-1.5-2L25.3,77.25z"/>
<path style="fill-rule:evenodd;clip-rule:evenodd;fill:#B67A5F;" d="M82.15,50.25c6.433,2,12.199,3.616,17.3,4.85L98.4,58.15
	L88,55.9c-5.3-1.101-11.884-3.167-19.75-6.2c-10.533-4.067-19.133-8.45-25.8-13.15c-6.3-4.466-12.534-11.3-18.7-20.5
	c-3.067-4.6-5.5-8.75-7.3-12.45l2.2-3.6c1.934,4.067,4.817,8.7,8.65,13.9C35,24.333,43.633,32.467,53.2,38.3
	C59.667,42.233,69.316,46.217,82.15,50.25z"/>
<polygon style="fill-rule:evenodd;clip-rule:evenodd;fill:#B67A5F;" points="67.1,69.7 66.65,71.3 28.45,53 31.4,48.65 "/>
</svg>
