<?xml version="1.0" encoding="iso-8859-1"?>
<!-- Generator: Adobe Illustrator 15.1.0, SVG Export Plug-In . SVG Version: 6.00 Build 0)  -->
<!DOCTYPE svg PUBLIC "-//W3C//DTD SVG 1.1//EN" "http://www.w3.org/Graphics/SVG/1.1/DTD/svg11.dtd">
<svg version="1.1" id="buildings" xmlns="http://www.w3.org/2000/svg" xmlns:xlink="http://www.w3.org/1999/xlink" x="0px" y="0px"
	 width="107px" height="19.7px" viewBox="0 0 107 19.7" style="enable-background:new 0 0 107 19.7;" xml:space="preserve">
<g>
	<path style="fill-rule:evenodd;clip-rule:evenodd;fill:#768D7C;" d="M92.65,7.85C80.55,11.983,68.1,14.6,55.3,15.7
		c-12.833,1.1-25.633-1.184-38.4-6.85C10.5,6.017,5.533,3.067,2,0h12c3.333,1.233,7.417,2.45,12.25,3.65
		C35.917,6.017,44.5,7.133,52,7s18.417-1.05,32.75-2.75C91.917,3.383,98.333,2.533,104,1.7l3,0.3
		C103.5,3.833,98.717,5.783,92.65,7.85z"/>
	<path style="fill-rule:evenodd;clip-rule:evenodd;fill:#4F726D;" d="M107,2v3.5c-5.9,2.1-12.717,4.25-20.45,6.45
		C71.15,16.35,58.967,18.866,50,19.5s-19.983-0.434-33.05-3.2C10.417,14.934,4.767,13.5,0,12L2,0c2.333,1.6,5.983,3.233,10.95,4.9
		c9.9,3.333,21.417,5.2,34.55,5.6c13.134,0.434,26.983-0.85,41.55-3.85C96.35,5.15,102.333,3.6,107,2z"/>
</g>
</svg>
