<?xml version="1.0" encoding="iso-8859-1"?>
<!-- Generator: Adobe Illustrator 15.1.0, SVG Export Plug-In . SVG Version: 6.00 Build 0)  -->
<!DOCTYPE svg PUBLIC "-//W3C//DTD SVG 1.1//EN" "http://www.w3.org/Graphics/SVG/1.1/DTD/svg11.dtd">
<svg version="1.1" id="buildings-back" xmlns="http://www.w3.org/2000/svg" xmlns:xlink="http://www.w3.org/1999/xlink" x="0px"
	 y="0px" width="95.5px" height="107.5px" viewBox="0 0 95.5 107.5" style="enable-background:new 0 0 95.5 107.5;"
	 xml:space="preserve">
<path style="fill-rule:evenodd;clip-rule:evenodd;fill:#544F44;" d="M61,0l3,13l-3-6l-17.5,3l-6,21L50,48.5l4.2-1.7
	c2.899-1.4,4.666-2.833,5.3-4.3s0.483-4.65-0.45-9.55L57.5,26C67.833,19,73.667,14.833,75,13.5c0.833-0.833,1.25-3.333,1.25-7.5
	c0-2.067-0.083-4.067-0.25-6l3.5,11.5l16,3H79L62,27l2.25,19.75l-15.75,6L40.25,68.5L42,84l-4.2,2.45c-2.733,2.066-4,4.25-3.8,6.55
	s1.933,4.65,5.2,7.05c1.633,1.233,3.233,2.217,4.8,2.95c-4.367-0.4-8.183,0.233-11.45,1.9L29,107.5c0.1-0.566,0.1-1.217,0-1.95
	c-0.167-1.399-0.667-2.416-1.5-3.05s-3.5-0.483-8,0.45c-2.233,0.467-4.4,0.983-6.5,1.55c2.433-1.4,4.85-2.967,7.25-4.7
	c4.833-3.399,7.25-5.833,7.25-7.3s-1.333-3.9-4-7.3l-4-4.7c2.267-1.333,4.483-2.783,6.65-4.35c4.333-3.167,6.283-5.384,5.85-6.65
	c-0.4-1.233-2.6-6.017-6.6-14.35L19.5,43L0,38l10-15.5l-5.5,14l16.5,4l6.45,13.65c4.566,8.833,7.583,12.616,9.05,11.35
	c1.467-1.233,3.567-4.184,6.3-8.85c1.4-2.334,2.633-4.55,3.7-6.65L34,30.5L40,6l2.2,0.95c2.233,0.4,5.333,0.083,9.3-0.95
	s6.733-2.35,8.3-3.95C60.6,1.283,61,0.6,61,0z"/>
</svg>
