<?xml version="1.0" encoding="iso-8859-1"?>
<!-- Generator: Adobe Illustrator 15.1.0, SVG Export Plug-In . SVG Version: 6.00 Build 0)  -->
<!DOCTYPE svg PUBLIC "-//W3C//DTD SVG 1.1//EN" "http://www.w3.org/Graphics/SVG/1.1/DTD/svg11.dtd">
<svg version="1.1" id="buildings" xmlns="http://www.w3.org/2000/svg" xmlns:xlink="http://www.w3.org/1999/xlink" x="0px" y="0px"
	 width="537.75px" height="151.1px" viewBox="0 0 537.75 151.1" style="enable-background:new 0 0 537.75 151.1;"
	 xml:space="preserve">
<g>
	<path style="fill-rule:evenodd;clip-rule:evenodd;fill:#DBE7D1;" d="M442.5,90.65c4-0.101,7.417-0.317,10.25-0.65l-16,27
		c-9.333-1.833-19.25-4.083-29.75-6.75c-21-5.333-34.417-10.083-40.25-14.25S357,85.75,355,77.75c-0.634-2.5-1.033-5.033-1.2-7.6
		L353.75,67l28.75,9.9c20.333,6.833,33.417,10.866,39.25,12.1C427.583,90.267,434.5,90.816,442.5,90.65z"/>
	<path style="fill-rule:evenodd;clip-rule:evenodd;fill:#BFD7AE;" d="M467.75,71.95L441.1,127
		c-7.533-1.333-15.916-3.116-25.149-5.35c-18.5-4.434-32-8.867-40.5-13.301c-8.5-4.433-17.334-7.899-26.5-10.399l-11.2-2.45
		l6.65-28.85c1.133-2.833,2.166-6.033,3.1-9.6c1.866-7.133,2.316-12.517,1.35-16.15c-2.133-7.867-5.616-16.717-10.449-26.55
		L331.75,2l18,2L356,16c4.333,9,6.917,16,7.75,21s1.267,12.917,1.3,23.75c0,5.433-0.083,10.35-0.25,14.75l2.8,2.95
		c2.367,2.366,4.934,4.633,7.7,6.8c8.767,6.967,17.584,11.55,26.45,13.75c8.866,2.233,16.9,4.017,24.1,5.35
		c3.601,0.667,6.317,1.117,8.15,1.351L450.75,65l-9-53l13-12L467.75,71.95z"/>
	<path style="fill-rule:evenodd;clip-rule:evenodd;fill:#BFD7AE;" d="M342.25,96c-8.533,5.333-18.65,10.566-30.35,15.7
		c-23.367,10.233-42.867,14.783-58.5,13.649c-23.333-1.666-45.933-6.666-67.8-15c-6.867-2.6-13.233-5.383-19.1-8.35l-6.75-3.65
		c-3.433,4.034-8.55,8.75-15.35,14.15c-13.566,10.8-28.683,19.634-45.35,26.5c-11.466,4.767-26,8.167-43.6,10.2
		c-13.467,1.6-26.15,2.2-38.05,1.8c-3.767-0.1-7.717-4.267-11.85-12.5c-4.1-8.167-5.933-15.434-5.5-21.8
		c0.367-5.2,1.567-9.5,3.6-12.9C5.95,99.9,9.6,96.65,14.6,94.05C25.167,88.517,44.383,85,72.25,83.5
		c15.267-0.8,33.683-8.217,55.25-22.25c10.767-7,20.017-13.917,27.75-20.75l11.05,4.9c9.167,3.967,18.284,7.75,27.35,11.35
		c29,11.5,52.033,18.917,69.1,22.25c17.1,3.333,35.9,2.167,56.4-3.5c10.233-2.833,18.767-6,25.6-9.5L342.25,96z"/>
	<path style="fill-rule:evenodd;clip-rule:evenodd;fill:#A8CA92;" d="M1.25,122.5c7.833,0.333,17.067,0.434,27.7,0.3
		c21.233-0.233,38.833-1.5,52.8-3.8s30.817-8.816,50.55-19.55c8.663-4.696,16.246-9.221,22.75-13.575
		c-7.221,5.155-15.304,10.681-24.25,16.575c-20.066,13.233-35.417,22.25-46.05,27.05c-5.333,2.434-18.75,5.267-40.25,8.5
		c-20.867,3.167-32.283,4.333-34.25,3.5c-1.467-0.634-3.4-3.983-5.8-10.05L1.25,122.5z"/>
	<path style="fill-rule:evenodd;clip-rule:evenodd;fill:#A8CA92;" d="M200.05,93.9c26.767,9.166,48.167,13.533,64.2,13.1
		c16.033-0.4,32.6-3.434,49.7-9.1c8.533-2.834,15.467-5.634,20.8-8.4c-6.9,4.267-14.917,8.517-24.05,12.75
		c-18.267,8.434-32.917,12.517-43.95,12.25c-17.067-0.4-39.683-5.35-67.85-14.85c-8.833-3-17.667-6.25-26.5-9.75l-10.65-4.4l3-5.5
		l10.15,4.35C183.333,87.85,191.717,91.033,200.05,93.9z"/>
	<polygon style="fill-rule:evenodd;clip-rule:evenodd;fill:#BFD7AE;" points="505.75,51 454.75,98 459.75,72 486.75,41 477.75,7 
		488.75,3 	"/>
	<polygon style="fill-rule:evenodd;clip-rule:evenodd;fill:#BFD7AE;" points="501.75,97 446.75,108 446.75,99 495.75,82 530.75,43 
		537.75,53 	"/>
	<polygon style="fill-rule:evenodd;clip-rule:evenodd;fill:#BFD7AE;" points="521.75,130 477.75,148 441.1,127 446.75,108 
		484.75,134 520.75,117 	"/>
	<path style="fill-rule:evenodd;clip-rule:evenodd;fill:#DBE7D1;" d="M260.4,80.7c20.267,3.033,40.35,1.95,60.25-3.25
		c9.933-2.6,17.85-5.517,23.75-8.75c-4.667,4.033-11.634,7.684-20.9,10.95c-18.533,6.566-39.35,8.017-62.45,4.35
		c-22.767-3.6-47.367-11.017-73.8-22.25c-8.267-3.5-16.217-7.183-23.85-11.05l-9-4.7l0.65-4.65l10.95,5.3
		c9.067,4.3,18.067,8.35,27,12.15C221.567,70.933,244.033,78.233,260.4,80.7z"/>
	<path style="fill-rule:evenodd;clip-rule:evenodd;fill:#87AA75;" d="M354.65,94.2c10.333,4.666,19.8,8.383,28.399,11.149
		c8.634,2.767,20.417,5.784,35.351,9.051c7.5,1.666,14.116,3.033,19.85,4.1l-4.5,5.5c-6.566-1.233-13.5-2.684-20.8-4.35
		c-14.566-3.301-23.634-5.95-27.2-7.95c-3.467-1.967-11.8-5.384-25-10.25l-18.7-6.75c-3.533,2.1-7.967,4.517-13.3,7.25
		c-10.634,5.533-20.417,10-29.35,13.399c-14.9,5.7-29.834,8.434-44.8,8.2c-11.633-0.2-25.483-2.383-41.55-6.55
		c-11.3-2.9-23.75-7.217-37.35-12.95l-16.95-7.7c-4.067,4.434-9.533,9.417-16.4,14.95c-13.7,11.066-27.567,19.3-41.6,24.7
		c-16,6.2-34.85,10.167-56.55,11.9c-10.867,0.899-20.133,1.166-27.8,0.8l-5.35-4.7c9.7-0.7,20.417-1.884,32.15-3.55
		c23.5-3.367,40.35-7.517,50.55-12.45c11.033-5.3,24.95-13.9,41.75-25.8c8.4-5.934,15.7-11.334,21.9-16.2l10.65,4.2
		c8.833,3.366,17.567,6.533,26.2,9.5c27.533,9.434,48.8,14.983,63.8,16.649c15,1.667,33.45-2.55,55.351-12.649
		c10.966-5.066,20.416-10.3,28.35-15.7L354.65,94.2z"/>
	<path style="fill-rule:evenodd;clip-rule:evenodd;fill:#87AA75;" d="M334.75,5.35h3.65l7.1,15c4.767,10.767,7.283,18.1,7.55,22
		c0.3,3.9-0.217,10.233-1.55,19c-0.667,4.4-1.366,8.4-2.1,12l-3.351-5.3c0.967-2.4,1.884-5.25,2.75-8.55
		c1.8-6.6,2.55-12.2,2.25-16.8c-0.267-4.567-3.066-12.167-8.399-22.8L334.75,5.35z"/>
	<polygon style="fill-rule:evenodd;clip-rule:evenodd;fill:#87AA75;" points="443.75,12.35 446.75,9.05 456.4,63.05 438.4,107.7 
		436.05,106.05 452.05,63.7 	"/>
	<polygon style="fill-rule:evenodd;clip-rule:evenodd;fill:#87AA75;" points="479.05,8.05 482.05,7.05 492.05,42.7 468.4,69.35 
		467.75,65.05 488.4,40.35 	"/>
	<polygon style="fill-rule:evenodd;clip-rule:evenodd;fill:#87AA75;" points="530.4,44.7 531.75,48.35 496.4,83.7 	"/>
	<polygon style="fill-rule:evenodd;clip-rule:evenodd;fill:#87AA75;" points="500.05,94.05 500.4,96.35 451.75,105.7 455.4,102.35 	
		"/>
	<polygon style="fill-rule:evenodd;clip-rule:evenodd;fill:#87AA75;" points="521.75,130 478.05,146.35 443.05,125.7 444.75,123.05 
		477.75,143.05 519.75,127.35 	"/>
	<polygon style="fill-rule:evenodd;clip-rule:evenodd;fill:#DBE7D1;" points="488.6,6.1 503.1,49.6 485.1,7.65 	"/>
	<polygon style="fill-rule:evenodd;clip-rule:evenodd;fill:#DBE7D1;" points="450.1,7.65 453.9,3.85 465.25,64.4 463.05,66.6 	"/>
	<polygon style="fill-rule:evenodd;clip-rule:evenodd;fill:#DBE7D1;" points="502.45,94.35 502.45,90.9 533.65,51.8 535.55,53.4 	
		"/>
	<polygon style="fill-rule:evenodd;clip-rule:evenodd;fill:#DBE7D1;" points="450.45,112.35 484.15,135.35 447.9,115.5 	"/>
	<path style="fill-rule:evenodd;clip-rule:evenodd;fill:#DBE7D1;" d="M345.05,6.05h3.7l6.1,10.5c4.301,8.534,6.934,16.7,7.9,24.5
		c0.5,4.133,0.267,9.75-0.7,16.85c-0.5,3.567-1.05,6.717-1.649,9.45c0-12.833-0.067-20.267-0.2-22.3
		c-0.2-3.167-1.017-7.733-2.45-13.7c-1.134-4.567-3.583-10.15-7.35-16.75L345.05,6.05z"/>
</g>
</svg>
