<?xml version="1.0" encoding="iso-8859-1"?>
<!-- Generator: Adobe Illustrator 15.1.0, SVG Export Plug-In . SVG Version: 6.00 Build 0)  -->
<!DOCTYPE svg PUBLIC "-//W3C//DTD SVG 1.1//EN" "http://www.w3.org/Graphics/SVG/1.1/DTD/svg11.dtd">
<svg version="1.1" id="buildings" xmlns="http://www.w3.org/2000/svg" xmlns:xlink="http://www.w3.org/1999/xlink" x="0px" y="0px"
	 width="44.05px" height="187.75px" viewBox="0 0 44.05 187.75" style="enable-background:new 0 0 44.05 187.75;"
	 xml:space="preserve">
<symbol  id="FlashAICB_x2F_buildings_x2F__x3C_Path_x3E__x5F_4" viewBox="0 -12.25 21.363 12.25">
	<g id="Layer_1_4_">
		<path style="fill-rule:evenodd;clip-rule:evenodd;fill:#637572;" d="M21.05-6.9c0.333-1,0.4-1.95,0.2-2.85
			c-0.833,0.933-1.45,0.8-1.85-0.4c-0.233-0.6-0.367-1.3-0.4-2.1c-0.667,1.167-1.167,2.333-1.5,3.5c-0.2,0.7-2,1.433-5.4,2.2
			c-4.934,1.1-7.55,1.7-7.85,1.8C2.683-4.217,1.5-3.267,0.7-1.9C0.333-1.233,0.1-0.6,0,0l3.5-1.75C4.033-2.017,5.417-2.233,7.65-2.4
			c3.333-0.267,6.033-0.55,8.1-0.85C18.55-3.683,20.317-4.9,21.05-6.9z"/>
	</g>
</symbol>
<symbol  id="FlashAICB_x2F_buildings_x2F__x3C_Path_x3E__x5F_6" viewBox="0 -95.5 4 95.5">
	<g id="Layer_1_3_">
		<path style="fill-rule:evenodd;clip-rule:evenodd;fill:#637572;" d="M1.75-39.5C1.917-34.833,2.083-21.667,2.25,0
			C3.417-14.833,4-24,4-27.5c-0.667-45.333-1.417-68-2.25-68S0.333-94.75,0-93.25L1.75-39.5z"/>
	</g>
</symbol>
<symbol  id="FlashAICB_x2F_buildings_x2F__x3C_Path_x3E__x5F_8" viewBox="0.022 -55.75 4.528 55.75">
	<g id="Layer_1_2_">
		<path style="fill-rule:evenodd;clip-rule:evenodd;fill:#637572;" d="M1.8,0h2.75C3.383-7,2.633-14.5,2.3-22.5
			c-0.333-8-0.5-19.083-0.5-33.25c-1,6-1.583,12.25-1.75,18.75C-0.117-30.5,0.467-18.167,1.8,0z"/>
	</g>
</symbol>
<g>
	<path style="fill-rule:evenodd;clip-rule:evenodd;fill:#81908E;" d="M16.65,39.55c-1.333,17.1,0.217,25.934,4.65,26.5
		C28.9,66.983,33.934,68,36.4,69.1c4.767,2.133,7.3,6,7.6,11.6c0.434,8.433-1.233,43.1-5,104l-1.9,1.35
		c-1.6,0.967-3.3,1.517-5.1,1.65c-1.8,0.133-3.684-0.101-5.65-0.7L24,186.05c0.566-12.666,1.066-25.983,1.5-39.95
		C26.366,118.2,26.533,101.066,26,94.7c-0.5-5.867-3.167-9.45-8-10.75c-2.8-0.567-4.883-1.083-6.25-1.55
		c-2.433-0.767-4.35-2-5.75-3.7c-2.8-3.333-4.083-15.1-3.85-35.3c0.1-10.133,0.483-19.917,1.15-29.35H20
		C18.433,22.483,17.317,30.983,16.65,39.55z"/>
	<g>
		<path style="fill-rule:evenodd;clip-rule:evenodd;fill:#637572;" d="M30,118.5c0-2.2-0.283-7.434-0.85-15.7L28.25,91l-0.15,17.15
			c-0.133,12-0.25,19.449-0.35,22.35L26,184.25l0.4,1.15c0.366,0.733,0.816,1.1,1.35,1.1C28.583,186.5,29.333,163.833,30,118.5z
			 M12,81c0.3,0.1,2.917,0.7,7.85,1.8c3.4,0.767,5.2,1.5,5.4,2.2c0.333,1.167,0.833,2.333,1.5,3.5c0.033-0.8,0.167-1.5,0.4-2.1
			c0.399-1.2,1.017-1.333,1.85-0.4c0.2-0.9,0.134-1.85-0.2-2.85c-0.733-2-2.5-3.217-5.3-3.65c-2.067-0.3-4.767-0.583-8.1-0.85
			c-2.233-0.167-3.617-0.383-4.15-0.65l-3.5-1.75l0.7,1.9C9.25,79.517,10.433,80.467,12,81z M2.15,43.4
			c0.1-10.133,0.483-19.917,1.15-29.35h6.95C8.55,21.683,7.633,27.333,7.5,31c-0.167,4.967-0.017,12.35,0.45,22.15
			c0.533,11.467,1.3,18.083,2.3,19.85c0.8,1.433,3.083,2.15,6.85,2.15c5,0,8.716,0.45,11.15,1.35c3.467,1.3,5.4,5.6,5.8,12.9
			c0.066,0.934-0.116,8.8-0.55,23.6c-0.5,16.233-1.55,41.134-3.15,74.7c-1.5-0.066-3-0.367-4.5-0.9L24,186.05
			c0.566-12.666,1.066-25.983,1.5-39.95C26.366,118.2,26.533,101.066,26,94.7c-0.5-5.867-3.167-9.45-8-10.75
			c-2.8-0.567-4.883-1.083-6.25-1.55c-2.433-0.767-4.35-2-5.75-3.7C3.2,75.367,1.917,63.6,2.15,43.4z M5.5,39.25
			c0.333-8,1.083-15.5,2.25-22.5H5c-1.333,18.167-1.917,30.5-1.75,37S4,66.5,5,72.5C5,58.333,5.167,47.25,5.5,39.25z"/>
		
			<use xlink:href="#FlashAICB_x2F_buildings_x2F__x3C_Path_x3E__x5F_8"  width="4.528" height="55.75" x="0.022" y="-55.75" transform="matrix(1 0 0 -1 3.2002 16.75)" style="overflow:visible;enable-background:new    ;"/>
		<path style="fill-rule:evenodd;clip-rule:evenodd;fill:#485956;" d="M5,16.75h2.75c-1.167,7-1.917,14.5-2.25,22.5S5,58.333,5,72.5
			c-1-6-1.583-12.25-1.75-18.75S3.667,34.917,5,16.75z"/>
		
			<use xlink:href="#FlashAICB_x2F_buildings_x2F__x3C_Path_x3E__x5F_6"  width="4" height="95.5" y="-95.5" transform="matrix(1 0 0 -1 26 91)" style="overflow:visible;enable-background:new    ;"/>
		<path style="fill-rule:evenodd;clip-rule:evenodd;fill:#485956;" d="M27.75,130.5c0.1-2.9,0.217-10.35,0.35-22.35L28.25,91
			l0.9,11.8c0.566,8.267,0.85,13.5,0.85,15.7c-0.667,45.333-1.417,68-2.25,68c-0.533,0-0.983-0.366-1.35-1.1l-0.4-1.15L27.75,130.5z
			"/>
		
			<use xlink:href="#FlashAICB_x2F_buildings_x2F__x3C_Path_x3E__x5F_4"  width="21.363" height="12.25" y="-12.25" transform="matrix(1 0 0 -1 7.75 76.25)" style="overflow:visible;enable-background:new    ;"/>
		<path style="fill-rule:evenodd;clip-rule:evenodd;fill:#485956;" d="M11.25,78c0.533,0.267,1.917,0.483,4.15,0.65
			c3.333,0.267,6.033,0.55,8.1,0.85c2.8,0.433,4.566,1.65,5.3,3.65c0.334,1,0.4,1.95,0.2,2.85c-0.833-0.933-1.45-0.8-1.85,0.4
			c-0.233,0.6-0.367,1.3-0.4,2.1c-0.667-1.167-1.167-2.333-1.5-3.5c-0.2-0.7-2-1.433-5.4-2.2C14.917,81.7,12.3,81.1,12,81
			c-1.567-0.533-2.75-1.483-3.55-2.85l-0.7-1.9L11.25,78z"/>
		<path style="fill-rule:evenodd;clip-rule:evenodd;fill:#8C9997;" d="M16,20.75c-0.5,5.333-1.083,12.333-1.75,21
			c-0.4,5.433-0.267,11.183,0.4,17.25c0.333,3.033,0.7,5.533,1.1,7.5c-0.533-0.7-1.083-1.75-1.65-3.15
			c-1.133-2.8-1.75-5.917-1.85-9.35c-0.167-5.5,0.083-16.5,0.75-33L16,20.75z"/>
		<path style="fill-rule:evenodd;clip-rule:evenodd;fill:#8C9997;" d="M41.55,99.8c-0.166,5.267-0.35,10.084-0.55,14.45
			c-0.333,7-1.167,27.333-2.5,61c-0.5-2.5-0.833-4.583-1-6.25c-0.1-1.033-0.417-0.3-0.95,2.2c-0.267,1.233-0.533,2.583-0.8,4.05
			c0.333-17.5,0.583-29.417,0.75-35.75l2-53c-0.167,13,0.083,19.917,0.75,20.75s1.5-3.833,2.5-14L41.55,99.8z"/>
		<path style="fill-rule:evenodd;clip-rule:evenodd;fill:#9EAEAB;" d="M39.5,77.25c-0.533-0.4-0.983,0.317-1.35,2.15
			c-0.167,0.9-0.301,1.85-0.4,2.85c-0.033-1.167-0.184-2.45-0.45-3.85c-0.566-2.8-1.416-4.767-2.55-5.9s-3.684-2.267-7.65-3.4
			l-5.6-1.35l6.2,1c4.467,0.8,7.566,1.633,9.3,2.5c2.7,1.367,4.3,3.817,4.8,7.35c0.267,1.767,0.25,3.4-0.05,4.9
			C41.083,80,40.333,77.917,39.5,77.25z"/>
	</g>
	<path style="fill-rule:evenodd;clip-rule:evenodd;fill:#546764;" d="M26.5,3.85c-0.033,1.233-0.15,2.583-0.35,4.05
		c-0.434,3-1.101,5.15-2,6.45c-1.434,2.1-3.101,3.717-5,4.85c-1.733,0.433-3.717,0.683-5.95,0.75c-4.434,0.133-7.833-0.733-10.2-2.6
		c-0.967-0.767-1.767-3.417-2.4-7.95C0.3,7.133,0.1,4.95,0,2.85c0.5,0.5,1.333,1.017,2.5,1.55C4.833,5.5,7.667,6.15,11,6.35
		c3.333,0.2,6.917-0.15,10.75-1.05C23.684,4.833,25.267,4.35,26.5,3.85z"/>
	<path style="fill-rule:evenodd;clip-rule:evenodd;fill:#4C5D5A;" d="M6.45,6.8c0.2,4.267,0.7,7.217,1.5,8.85
		c0.667,1.367,1.35,2.3,2.05,2.8c0.9,0.633,2.283,0.95,4.15,0.95c1.633,0,3.3-0.066,5-0.2c-2.167,0.667-4.65,0.933-7.45,0.8
		c-4.534-0.2-7.517-1.133-8.95-2.8c-1.167-1.4-1.933-4.217-2.3-8.45C0.317,7.583,0.167,5.7,0,3.1C3.167,5.4,5.317,6.633,6.45,6.8z"
		/>
	<path style="fill-rule:evenodd;clip-rule:evenodd;fill:#627974;" d="M0,2.85C0.067,0.95,4.333,0,12.8,0c3.1,0,6.067,0.333,8.9,1
		c3.333,0.767,4.934,1.717,4.8,2.85c-0.167,1.133-2.017,2.083-5.55,2.85c-3.1,0.667-5.983,0.933-8.65,0.8
		C9.467,7.4,6.833,6.983,4.4,6.25C1.367,5.35-0.1,4.217,0,2.85z"/>
	<path style="fill-rule:evenodd;clip-rule:evenodd;fill:#455452;" d="M13.3,0.85c2.6,0.066,5.1,0.4,7.5,1C23.2,2.45,24.267,3,24,3.5
		s-1.6,1-4,1.5c-2.467,0.467-4.967,0.7-7.5,0.7c-2.367,0-4.7-0.45-7-1.35c-2.1-0.8-3-1.417-2.7-1.85
		c0.267-0.367,1.517-0.733,3.75-1.1C8.95,0.967,11.2,0.783,13.3,0.85z"/>
	<path style="fill-rule:evenodd;clip-rule:evenodd;fill:#627974;" d="M20.75,8.3l0.8-0.1c0.667-0.133,1.233-0.284,1.7-0.45
		c0.8-0.3,1.55-0.7,2.25-1.2c-0.267,2.833-0.7,4.9-1.3,6.2c-0.634,1.3-2.367,2.75-5.2,4.35c1.167-1.567,1.867-3.017,2.1-4.35
		C21.367,11.417,21.25,9.933,20.75,8.3z"/>
</g>
</svg>
