<?xml version="1.0" encoding="iso-8859-1"?>
<!-- Generator: Adobe Illustrator 15.1.0, SVG Export Plug-In . SVG Version: 6.00 Build 0)  -->
<!DOCTYPE svg PUBLIC "-//W3C//DTD SVG 1.1//EN" "http://www.w3.org/Graphics/SVG/1.1/DTD/svg11.dtd">
<svg version="1.1" id="buildings" xmlns="http://www.w3.org/2000/svg" xmlns:xlink="http://www.w3.org/1999/xlink" x="0px" y="0px"
	 width="49px" height="17.15px" viewBox="0 0 49 17.15" style="enable-background:new 0 0 49 17.15;" xml:space="preserve">
<g>
	<path style="fill-rule:evenodd;clip-rule:evenodd;fill:#768D7C;" d="M46.65,5c-3.7,1.633-7.767,3.283-12.2,4.95
		c-8.834,3.3-15.1,4.983-18.8,5.05c-5.9,0.134-10.617,0.017-14.15-0.35l3-1.45c7.767-0.467,13.033-1.134,15.8-2
		C23.1,10.3,32.5,6.567,48.5,0L46.65,5z"/>
	<path style="fill-rule:evenodd;clip-rule:evenodd;fill:#4F726D;" d="M47,8.15c-2.4,1.6-5.25,3.167-8.55,4.7
		C31.85,15.917,26.366,17.35,22,17.15c-7-0.334-14.333-0.334-22,0l1.5-2.5c1.6,0.1,3.7,0.033,6.3-0.2c5.267-0.4,10.5-1.334,15.7-2.8
		c5.2-1.467,10.6-3.484,16.2-6.05c2.8-1.3,5.066-2.45,6.8-3.45L47,8.15z"/>
	<polygon style="fill-rule:evenodd;clip-rule:evenodd;fill:#3C625D;" points="46.5,2.15 48.5,0 49,4.85 47,8.15 	"/>
</g>
</svg>
