<?xml version="1.0" encoding="iso-8859-1"?>
<!-- Generator: Adobe Illustrator 15.1.0, SVG Export Plug-In . SVG Version: 6.00 Build 0)  -->
<!DOCTYPE svg PUBLIC "-//W3C//DTD SVG 1.1//EN" "http://www.w3.org/Graphics/SVG/1.1/DTD/svg11.dtd">
<svg version="1.1" id="Isolation_Mode" xmlns="http://www.w3.org/2000/svg" xmlns:xlink="http://www.w3.org/1999/xlink" x="0px"
	 y="0px" width="24.9px" height="63.65px" viewBox="0 0 24.9 63.65" style="enable-background:new 0 0 24.9 63.65;"
	 xml:space="preserve">
<g>
	<path style="fill-rule:evenodd;clip-rule:evenodd;fill:#895D60;" d="M5.9,36.1c1.934,4,5.617,8.684,11.05,14.051
		c2.733,2.666,5.267,4.933,7.6,6.8l0.351,3.7c-0.301,2.399-1.884,3.366-4.75,2.899c-2.5-2.467-5.184-5.434-8.051-8.899
		C6.4,47.75,2.683,41.833,0.95,36.9c-1.7-4.9-1.067-11.583,1.9-20.05c1.467-4.233,3.117-7.967,4.95-11.2l7.15,2.2
		c-2.267,3.1-4.35,6.617-6.25,10.55C4.9,26.2,3.967,32.1,5.9,36.1z"/>
	<g>
		<path style="fill-rule:evenodd;clip-rule:evenodd;fill:#794F53;" d="M2.6,33.7c0.9,4.467,3.533,9.533,7.9,15.2
			c1.866,2.433,4.6,5.517,8.2,9.25c1.2,1.199,2.934,2.75,5.2,4.649c-0.834,0.767-2.084,1.017-3.75,0.75
			c-2.5-2.467-5.184-5.434-8.051-8.899C6.4,47.75,2.683,41.833,0.95,36.9C-0.65,32.3-0.2,26.133,2.3,18.4
			c1.4-4.233,3.167-8.35,5.3-12.35l1.8,2.5c-1.467,2.434-2.867,5.317-4.2,8.65C2.6,23.833,1.733,29.333,2.6,33.7z"/>
	</g>
	<path style="fill-rule:evenodd;clip-rule:evenodd;fill:#6D484C;" d="M9.45,9.1C8.083,8.633,7.133,8,6.6,7.2
		C5.967,6.333,5.767,5.2,6,3.8c0.267-1.6,0.55-2.566,0.85-2.9c0.2-0.167,0.767-0.3,1.7-0.4c1.534-0.133,3.1-0.017,4.7,0.35
		c2.167,0.467,3.333,1.3,3.5,2.5c0.233,1.7-0.083,3.217-0.95,4.55C14.566,9.833,12.45,10.233,9.45,9.1z"/>
	<path style="fill-rule:evenodd;clip-rule:evenodd;fill:#895D60;" d="M12.85,0.5c2.167,0.6,3.417,1.267,3.75,2
		c0.367,0.767,0.25,1.383-0.35,1.85c-0.833,0.633-2.434,0.767-4.8,0.4C9.083,4.417,7.567,3.7,6.9,2.6
		C6.333,1.733,6.383,1.1,7.05,0.7C8.483-0.133,10.417-0.2,12.85,0.5z"/>
	<path style="fill-rule:evenodd;clip-rule:evenodd;fill:#4A3939;" d="M11.95,0.8c3,0.833,4.233,1.717,3.7,2.65
		C15.116,4.383,13.417,4.4,10.55,3.5c-2.566-0.833-3.367-1.6-2.4-2.3C9.083,0.5,10.35,0.367,11.95,0.8z"/>
</g>
</svg>
