<?xml version="1.0" encoding="iso-8859-1"?>
<!-- Generator: Adobe Illustrator 15.1.0, SVG Export Plug-In . SVG Version: 6.00 Build 0)  -->
<!DOCTYPE svg PUBLIC "-//W3C//DTD SVG 1.1//EN" "http://www.w3.org/Graphics/SVG/1.1/DTD/svg11.dtd">
<svg version="1.1" id="back_mountains" xmlns="http://www.w3.org/2000/svg" xmlns:xlink="http://www.w3.org/1999/xlink" x="0px"
	 y="0px" width="1176px" height="1042px" viewBox="0 0 1176 1042" style="enable-background:new 0 0 1176 1042;"
	 xml:space="preserve">
<g>
	
		<linearGradient id="SVGID_1_" gradientUnits="userSpaceOnUse" x1="17.9619" y1="-588.0005" x2="2167.6619" y2="-588.0005" gradientTransform="matrix(4.651812e-007 1 -1 -0.001 -3.690120e-004 -1.019269e-004)">
		<stop  offset="0" style="stop-color:#DEB96B"/>
		<stop  offset="1" style="stop-color:#D8E8D9"/>
	</linearGradient>
	<polygon style="fill-rule:evenodd;clip-rule:evenodd;fill:url(#SVGID_1_);" points="962,246 768,288 696,448 758,452 832,500 
		974,490 824,516 748,472 650,478 662,584 592,642 590,726 672,764 648,856 668,894 634,862 640,788 580,756 548,692 502,652 
		456,728 470,806 434,890 476,956 426,1042 452,960 416,882 446,804 428,730 368,754 292,790 260,818 268,872 248,838 184,880 
		216,956 164,1028 198,952 166,876 238,822 260,782 196,788 84,858 180,774 302,770 426,714 464,596 434,596 488,536 436.8,395.15 
		374,386 286,452 106,440 272,434 360,370 436.5,377.65 530,288 368,262 220,234 174,110 44,102 0,0 1176,0 	"/>
	<g>
		<path style="fill-rule:evenodd;clip-rule:evenodd;fill:#FBDBA1;" d="M311.85,404.95l1.85-1.3c4.533,4.2,12.65,7.3,24.35,9.3
			l-3.45,2.55C324.267,413.2,316.683,409.683,311.85,404.95z"/>
		<path style="fill-rule:evenodd;clip-rule:evenodd;fill:#FBDBA1;" d="M494.15,435.7c6.5-2.767,12.633-6.867,18.4-12.3
			c5.767-5.433,10.284-11.4,13.55-17.9c3.5-6.9,5.083-13.5,4.75-19.8c-2.534,3.8-5.934,7.983-10.2,12.55
			c-8.6,9.133-17.3,15.617-26.1,19.45c-8.8,3.8-17.533,3.1-26.2-2.1c-2.7-1.633-5.25-3.617-7.65-5.95l-2.75-3l-0.6,4.5
			c-0.267,3.6-0.1,6.967,0.5,10.1c1.833,10.067,7.55,15.867,17.15,17.4C480.867,439.583,487.25,438.6,494.15,435.7z M539,372.55
			l-1,2.6c-0.733,2.2-1.283,4.383-1.65,6.55c-1.2,7-0.317,12.716,2.65,17.15c3.9,5.833,11.883,10.983,23.95,15.45
			c12.933,4.767,23.316,5.65,31.149,2.65c7.801-2.967,13.934-8.217,18.4-15.75c3.967-6.7,5.55-12.934,4.75-18.7
			c-0.6,3.8-1.983,7.7-4.15,11.7c-4.3,8-10.383,12.517-18.25,13.55c-7.866,1.033-19.533-4.533-35-16.7
			c-4.833-3.767-9.75-7.983-14.75-12.65L539,372.55z M726.9,379.25L721.15,392c-12.367,2.033-32.9,2.717-61.601,2.05l-39.399-1.55
			c-1.4,4.233-3.867,8.583-7.4,13.05c-7.033,8.934-15.833,13.983-26.4,15.15c-10.567,1.167-22.667-1.767-36.3-8.8
			c-4.267-2.233-8.433-4.717-12.5-7.45l-4.8-3.5c-0.467,4.233-2.583,9.05-6.35,14.45c-7.5,10.833-19.467,19.184-35.9,25.05
			c-16.467,5.867-27.983,1.983-34.55-11.65c-2.067-4.267-3.517-9.25-4.35-14.95l-0.6-7.25c-2.267,0.633-5.35,1.4-9.25,2.3
			l-2.35-6.55c3.434-1.867,6.5-3.817,9.2-5.85c1.333-1,2.333-1.833,3-2.5c-3.9,0.9-8.633,1.883-14.2,2.95l-0.6-1.8L374,386
			l-18.35,13.7c-9-1.333-14.967-3.167-17.9-5.5c-1.767-1.4-3.267-3-4.5-4.8l24.75-18c10.267,0.967,21.333,3.367,33.2,7.2
			c5.933,1.9,10.833,3.717,14.7,5.45c2.5-2.333,5.833-5.167,10-8.5l20.6,2.1l34.2-32.8c7-2.067,13.6-3.1,19.8-3.1
			c8.2,0,17.7,3.3,28.5,9.9c5.4,3.267,9.983,6.55,13.75,9.85c0.133-1.4,0.467-3.2,1-5.4c1.133-4.333,2.8-8.4,5-12.2
			c7.066-12.233,18.233-19.517,33.5-21.85c15.267-2.367,25.017,2.567,29.25,14.8c2.1,6.1,2.684,12.433,1.75,19l14.85,1.1
			c12.134,1.033,23.834,2.3,35.101,3.8C689.134,365.517,713.7,371.683,726.9,379.25z M710.65,390.9
			c4.6-0.667,8.066-1.35,10.399-2.05c-3.6,0.233-7.967,0.45-13.1,0.65c-10.267,0.4-19.217,0.5-26.851,0.3
			c-7.633-0.2-19.633-1.133-36-2.8l-22.25-2.4l-0.949,5.65l19.1,1c14.967,0.7,28.017,1.15,39.15,1.35
			C691.316,392.8,701.483,392.233,710.65,390.9z"/>
		<path style="fill-rule:evenodd;clip-rule:evenodd;fill:#F9D38B;" d="M333.25,389.4c1.233,1.8,2.733,3.4,4.5,4.8
			c2.933,2.333,8.9,4.167,17.9,5.5l-17.6,13.25c-11.7-2-19.816-5.1-24.35-9.3L333.25,389.4z"/>
		<path style="fill-rule:evenodd;clip-rule:evenodd;fill:#F9D38B;" d="M439.4,402.35l-2-5.4c5.567-1.067,10.3-2.05,14.2-2.95
			c-0.667,0.667-1.667,1.5-3,2.5C445.9,398.533,442.833,400.483,439.4,402.35z"/>
		<path style="fill-rule:evenodd;clip-rule:evenodd;fill:#F9D38B;" d="M494.55,417.7c8.8-3.833,17.5-10.317,26.1-19.45
			c4.267-4.567,7.667-8.75,10.2-12.55c0.333,6.3-1.25,12.9-4.75,19.8c-3.267,6.5-7.784,12.467-13.55,17.9
			c-5.767,5.434-11.9,9.533-18.4,12.3c-6.9,2.9-13.283,3.883-19.15,2.95c-9.6-1.533-15.317-7.333-17.15-17.4
			c-0.6-3.133-0.767-6.5-0.5-10.1l0.6-4.5l2.75,3c2.4,2.333,4.95,4.317,7.65,5.95C477.017,420.8,485.75,421.5,494.55,417.7z"/>
		<path style="fill-rule:evenodd;clip-rule:evenodd;fill:#F9D38B;" d="M536.35,381.7c0.367-2.167,0.917-4.35,1.65-6.55l1-2.6
			l6.1,5.85c5,4.667,9.917,8.883,14.75,12.65c15.466,12.167,27.133,17.733,35,16.7c7.867-1.033,13.95-5.55,18.25-13.55
			c2.167-4,3.551-7.9,4.15-11.7c0.8,5.767-0.783,12-4.75,18.7c-4.467,7.533-10.6,12.783-18.4,15.75
			c-7.833,3-18.216,2.117-31.149-2.65c-12.067-4.466-20.05-9.617-23.95-15.45C536.033,394.417,535.15,388.7,536.35,381.7z"/>
		<path style="fill-rule:evenodd;clip-rule:evenodd;fill:#F9D38B;" d="M721.05,388.85c-2.333,0.7-5.8,1.383-10.399,2.05
			c-9.167,1.333-19.334,1.9-30.5,1.7c-11.134-0.2-24.184-0.65-39.15-1.35l-19.1-1l0.949-5.65l22.25,2.4
			c16.367,1.667,28.367,2.6,36,2.8c7.634,0.2,16.584,0.1,26.851-0.3C713.083,389.3,717.45,389.083,721.05,388.85z"/>
		<path style="fill-rule:evenodd;clip-rule:evenodd;fill:#FBDBA1;" d="M668.15,158.7c-6.801-1.4-12.567-3.333-17.301-5.8
			c-4.933-2.6-7.899-5.367-8.899-8.3c-1.101-3.2,0.316-6.233,4.25-9.1c-3.733,1.167-7.601,2.75-11.601,4.75
			c-8,4-12.633,8.083-13.899,12.25c-1.434,4.833,2.8,8.8,12.7,11.9c9.399,2.934,20.5,4.133,33.3,3.6
			c12.233-0.5,22.383-1.217,30.45-2.15c8.066-0.967,14.916-2.25,20.55-3.85c4.366-1.233,9.267-3.683,14.7-7.35
			c2.699-1.833,4.966-3.55,6.8-5.15c-3.566,1.667-8.334,3.383-14.3,5.15c-11.934,3.5-23.834,5.45-35.7,5.85
			C682.233,160.733,675.217,160.133,668.15,158.7z M830.7,186c4.366-4.567,8.1-11.267,11.2-20.1l3.3-11.9
			c-1.9,5.1-4.767,10.383-8.601,15.85c-7.666,10.9-16.3,17.283-25.899,19.15c-12.9,2.5-29.184-1.5-48.851-12
			c-6.166-3.267-12.283-7-18.35-11.2l-7.3-5.3l-0.45,6c0,4.833,0.8,9.317,2.4,13.45c5.066,13.233,17.083,20.583,36.05,22.05
			c14.866,1.133,26.967,0.15,36.3-2.95C818.066,196.517,824.8,192.167,830.7,186z M864.7,145.2c-3.934-6.434-6.267-12.167-7-17.2
			l-1.3,3.4c-1,2.867-1.817,5.733-2.45,8.6c-2,9.167-1.75,16.667,0.75,22.5c3,6.967,7.35,11.783,13.05,14.45
			c5.7,2.633,13.184,3.316,22.45,2.05c14.066-1.9,26.399-8.9,37-21c4.366-5,7.017-12.667,7.95-23c0.267-3.233,0.366-6.533,0.3-9.9
			l-0.25-4.1l-0.2,4.15c-0.267,3.434-0.8,6.783-1.6,10.05c-2.601,10.4-7.334,18-14.2,22.8c-7.5,5.233-15.783,7.583-24.851,7.05
			c-7.566-0.433-13.616-2.45-18.149-6.05C872.267,155.833,868.434,151.233,864.7,145.2z M991.95,119.45l6.2-2.95
			c5.399-2.267,11.3-4.183,17.699-5.75c20.467-4.967,42.051-5.35,64.75-1.15l-41.75,48c-8.033,1.4-15.183,2.25-21.449,2.55
			c-7.2,0.367-12.767-0.017-16.7-1.15c-8.733-2.5-21.184-8.167-37.351-17L941.7,129.5l-2,12l5.35,3.7
			c4.533,2.966,9.233,5.716,14.101,8.25c15.566,8.066,29.916,12.417,43.05,13.05c9.333,0.467,19.649-0.3,30.95-2.3l-5,5.7
			c-2.334,0.267-4.4,0.45-6.2,0.55c-21.233,1.267-41.601-2.35-61.101-10.85c-6.1-2.667-11.75-5.667-16.949-9l-5.95-4.15
			c-1,4-3.617,8.5-7.851,13.5c-8.5,10-20.883,17.5-37.149,22.5c-16.233,5-28.601,3-37.101-6c-2.666-2.8-4.783-6.15-6.35-10.05
			l-1.55-4.95c-1,6.5-4.117,13.25-9.351,20.25c-10.5,14-26.383,22.25-47.649,24.75c-21.233,2.5-40.101-3.25-56.601-17.25
			c-5.166-4.367-9.783-9.3-13.85-14.8l-4.55-6.95c-20,2.5-39.117,3.633-57.351,3.4c-36.5-0.5-50.383-7.633-41.649-21.4
			c8.767-13.733,35.899-23.35,81.399-28.85c22.733-2.767,44.601-4.15,65.601-4.15c-0.634-2.534-1.066-5.733-1.3-9.6
			c-0.534-7.7,0.149-14.867,2.05-21.5c5.967-21.133,22.717-32.767,50.25-34.9c16.267-1.233,32.149,7.9,47.649,27.4
			c7.733,9.733,13.851,19.6,18.351,29.6l4.3-5.1c3.767-4.067,7.833-7.733,12.2-11c14-10.5,28.5-15.133,43.5-13.9
			c15,1.267,28,8.65,39,22.15C985.45,106.333,989.45,112.95,991.95,119.45z"/>
		<path style="fill-rule:evenodd;clip-rule:evenodd;fill:#F9D38B;" d="M650.85,152.9c4.733,2.467,10.5,4.4,17.301,5.8
			c7.066,1.433,14.083,2.033,21.05,1.8c11.866-0.4,23.767-2.35,35.7-5.85c5.966-1.767,10.733-3.483,14.3-5.15
			c-1.834,1.6-4.101,3.317-6.8,5.15c-5.434,3.667-10.334,6.117-14.7,7.35c-5.634,1.6-12.483,2.883-20.55,3.85
			c-8.067,0.933-18.217,1.65-30.45,2.15c-12.8,0.533-23.9-0.667-33.3-3.6c-9.9-3.1-14.134-7.066-12.7-11.9
			c1.267-4.167,5.899-8.25,13.899-12.25c4-2,7.867-3.583,11.601-4.75c-3.934,2.867-5.351,5.9-4.25,9.1
			C642.95,147.533,645.917,150.3,650.85,152.9z"/>
		<path style="fill-rule:evenodd;clip-rule:evenodd;fill:#F9D38B;" d="M810.7,189c9.6-1.867,18.233-8.25,25.899-19.15
			c3.834-5.467,6.7-10.75,8.601-15.85l-3.3,11.9c-3.101,8.833-6.834,15.533-11.2,20.1c-5.9,6.167-12.634,10.517-20.2,13.05
			c-9.333,3.1-21.434,4.083-36.3,2.95c-18.967-1.467-30.983-8.817-36.05-22.05c-1.601-4.133-2.4-8.617-2.4-13.45l0.45-6l7.3,5.3
			c6.066,4.2,12.184,7.934,18.35,11.2C781.517,187.5,797.8,191.5,810.7,189z"/>
		<path style="fill-rule:evenodd;clip-rule:evenodd;fill:#F9D38B;" d="M853.95,140c0.633-2.867,1.45-5.733,2.45-8.6l1.3-3.4
			c0.733,5.033,3.066,10.767,7,17.2c3.733,6.033,7.566,10.633,11.5,13.8c4.533,3.6,10.583,5.617,18.149,6.05
			c9.067,0.534,17.351-1.816,24.851-7.05c6.866-4.8,11.6-12.4,14.2-22.8c0.8-3.267,1.333-6.617,1.6-10.05l0.2-4.15l0.25,4.1
			c0.066,3.367-0.033,6.667-0.3,9.9c-0.934,10.333-3.584,18-7.95,23c-10.601,12.1-22.934,19.1-37,21
			c-9.267,1.267-16.75,0.583-22.45-2.05c-5.7-2.667-10.05-7.483-13.05-14.45C852.2,156.667,851.95,149.167,853.95,140z"/>
		<path style="fill-rule:evenodd;clip-rule:evenodd;fill:#F9D38B;" d="M1017.4,160.15c6.267-0.3,13.416-1.15,21.449-2.55l-5.699,6.6
			c-11.301,2-21.617,2.767-30.95,2.3c-13.134-0.633-27.483-4.983-43.05-13.05c-4.867-2.534-9.567-5.284-14.101-8.25l-5.35-3.7l2-12
			L963.35,142c16.167,8.833,28.617,14.5,37.351,17C1004.634,160.133,1010.2,160.517,1017.4,160.15z"/>
		<path style="fill-rule:evenodd;clip-rule:evenodd;fill:#FBDBA1;" d="M163.2,90.55c7.5-2.8,13.533-5.983,18.1-9.55
			c2.434-1.867,6-5.85,10.7-11.95c2.333-3.033,4.433-5.883,6.3-8.55c-2.066,2.5-5.167,5.25-9.3,8.25c-8.267,6-17.5,10.25-27.7,12.75
			c-12.233,3-28.1,1.517-47.6-4.45c-8.833-2.667-16.684-5.9-23.55-9.7c-7.3-4-12.583-8.117-15.85-12.35l-0.35,3.35
			c-0.133,2.767-0.017,5.55,0.35,8.35c1.167,8.9,4.667,16.167,10.5,21.8c3.767,3.633,10.833,6.433,21.2,8.4
			c10.933,2.067,21.2,2.267,30.8,0.6C146.633,95.767,155.433,93.45,163.2,90.55z M292.8,91.5c2.1-2.7,4.233-7.183,6.4-13.45
			l2.6-8.55c-2.066,4.6-5.05,9.267-8.95,14C285.117,93,276.767,98.167,267.8,99c-10.333,0.967-21.033-2.1-32.1-9.2
			c-12.333-7.966-20.967-18.733-25.9-32.3l-1.55,3.05c-1.133,2.567-1.983,5.184-2.55,7.85c-1.833,8.5-0.467,15.867,4.1,22.1
			c5.1,6.967,14.034,12.117,26.8,15.45c11.566,3,21.133,3.517,28.7,1.55c6.467-1.667,12.117-3.95,16.95-6.85
			C286.65,97.983,290.167,94.933,292.8,91.5z M349.3,120c13.767,4.6,30.4,4.317,49.9-0.85c9.733-2.6,18.1-5.65,25.1-9.15
			c-8.9,2.167-18.65,3.733-29.25,4.7c-21.167,1.9-35.917-0.167-44.25-6.2c-8.333-6.033-18.25-14.017-29.75-23.95L306.3,71.5
			l0.85,5.65c1.067,4.6,2.75,9.067,5.05,13.4C319.6,104.417,331.967,114.233,349.3,120z M488.3,82.85
			c28-0.467,35.75,4.917,23.25,16.15s-30.25,16.6-53.25,16.1c-7.167-0.167-14.45-0.917-21.85-2.25l-8.9-1.9
			c-7,3-15.25,5.883-24.75,8.65c-19,5.5-34.75,7.617-47.25,6.35c-12.5-1.233-25.25-8.6-38.25-22.1
			c-4.066-4.233-7.917-8.817-11.55-13.75l-4.2-6.15c-2,5-5.867,9.883-11.6,14.65c-11.5,9.5-26.633,13.617-45.4,12.35
			c-18.733-1.233-32.35-7.1-40.85-17.6c-2.667-3.3-4.667-6.85-6-10.65l-1.15-4.75c-5.5,4-13,8-22.5,12c-19,8-38.5,12-58.5,12
			S82.05,96.967,75.05,87c-2.2-3.133-3.6-6.567-4.2-10.3l-0.3-4.7c-10.8,2.667-22.883,5.167-36.25,7.5l-1.25-2.8
			c8.667-1.934,17.483-4.383,26.45-7.35c4.467-1.467,8.067-2.75,10.8-3.85c-13.367,1.467-26.9,2.583-40.6,3.35l-11.8-27.3
			c5.367-0.066,9.917,0.067,13.65,0.4c6.667-4.833,14.9-10.217,24.7-16.15C75.883,13.967,93.517,5.367,109.15,0h56.45
			c13.3,5.6,27.45,14.767,42.45,27.5c7.5,6.4,13.667,12.217,18.5,17.45l7.95-1.25c6.633-0.934,13.233-1.633,19.8-2.1
			c21-1.5,37.75-0.383,50.25,3.35c12.5,3.767,23.75,9.4,33.75,16.9c5,3.767,8.75,7.15,11.25,10.15l3.8-2.75
			c3.3-2.2,6.917-4.167,10.85-5.9c12.5-5.5,25.617-7.633,39.35-6.4c13.767,1.267,24.4,6.65,31.9,16.15
			c3.733,4.733,6.1,9.35,7.1,13.85l15-1.9C469.317,83.75,479.567,83.017,488.3,82.85z M512.8,95c-1.566,1.1-3.433,2.267-5.6,3.5
			c-4.333,2.5-7.967,4.167-10.9,5c-5.167,1.467-10.733,2.533-16.7,3.2c-8.867,0.966-17.8,0.9-26.8-0.2
			c-7.3-0.9-13.233-2.117-17.8-3.65c-2.833-0.934-4.917-1.917-6.25-2.95c6.467,5.633,12.8,9.3,19,11
			c7.033,1.934,16.717,2.3,29.05,1.1c10.833-1.033,20.083-4.183,27.75-9.45C508.383,99.95,511.133,97.433,512.8,95z"/>
		<path style="fill-rule:evenodd;clip-rule:evenodd;fill:#F9D38B;" d="M33.05,76.7l-3.35-7.85c13.7-0.767,27.233-1.883,40.6-3.35
			c-2.733,1.1-6.333,2.383-10.8,3.85C50.533,72.317,41.717,74.767,33.05,76.7z"/>
		<path style="fill-rule:evenodd;clip-rule:evenodd;fill:#F9D38B;" d="M189,68.75c4.133-3,7.233-5.75,9.3-8.25
			c-1.867,2.667-3.966,5.517-6.3,8.55c-4.7,6.1-8.267,10.083-10.7,11.95c-4.566,3.567-10.6,6.75-18.1,9.55
			c-7.767,2.9-16.567,5.217-26.4,6.95c-9.6,1.667-19.867,1.467-30.8-0.6c-10.367-1.967-17.433-4.767-21.2-8.4
			c-5.833-5.633-9.333-12.9-10.5-21.8c-0.367-2.8-0.483-5.583-0.35-8.35L74.3,55c3.267,4.233,8.55,8.35,15.85,12.35
			c6.867,3.8,14.717,7.033,23.55,9.7c19.5,5.967,35.367,7.45,47.6,4.45C171.5,79,180.733,74.75,189,68.75z"/>
		<path style="fill-rule:evenodd;clip-rule:evenodd;fill:#F9D38B;" d="M292.85,83.5c3.9-4.733,6.883-9.4,8.95-14l-2.6,8.55
			c-2.167,6.267-4.3,10.75-6.4,13.45c-2.633,3.433-6.15,6.483-10.55,9.15c-4.833,2.9-10.483,5.184-16.95,6.85
			c-7.566,1.967-17.133,1.45-28.7-1.55c-12.767-3.333-21.7-8.483-26.8-15.45c-4.566-6.233-5.933-13.6-4.1-22.1
			c0.566-2.667,1.417-5.283,2.55-7.85l1.55-3.05c4.934,13.567,13.567,24.333,25.9,32.3c11.066,7.1,21.767,10.167,32.1,9.2
			C276.767,98.167,285.117,93,292.85,83.5z"/>
		<path style="fill-rule:evenodd;clip-rule:evenodd;fill:#F9D38B;" d="M350.8,108.5c8.333,6.033,23.083,8.1,44.25,6.2
			c10.6-0.967,20.35-2.534,29.25-4.7c-7,3.5-15.367,6.55-25.1,9.15c-19.5,5.167-36.133,5.45-49.9,0.85
			c-17.333-5.767-29.7-15.583-37.1-29.45c-2.3-4.333-3.983-8.8-5.05-13.4l-0.85-5.65l14.75,13.05
			C332.55,94.483,342.467,102.467,350.8,108.5z"/>
		<path style="fill-rule:evenodd;clip-rule:evenodd;fill:#F9D38B;" d="M507.2,98.5c2.167-1.233,4.033-2.4,5.6-3.5
			c-1.667,2.433-4.417,4.95-8.25,7.55c-7.667,5.267-16.917,8.417-27.75,9.45c-12.333,1.2-22.017,0.833-29.05-1.1
			c-6.2-1.7-12.533-5.367-19-11c1.333,1.033,3.417,2.017,6.25,2.95c4.567,1.533,10.5,2.75,17.8,3.65c9,1.1,17.934,1.167,26.8,0.2
			c5.967-0.667,11.533-1.733,16.7-3.2C499.233,102.667,502.867,101,507.2,98.5z"/>
		<path style="fill-rule:evenodd;clip-rule:evenodd;fill:#FBDBA1;" d="M548.8,582.4l-0.15,3.05c0.034,2.5,0.333,4.866,0.9,7.1
			c1.767,7.2,5.85,11.816,12.25,13.851c8.934,2.833,16.767,3.383,23.5,1.649c3.667-0.967,8-3.184,13-6.649
			c2.7-1.867,5.434-5.601,8.2-11.2c1.366-2.767,2.467-5.367,3.3-7.8c-1,2.433-2.649,5-4.95,7.699
			c-4.566,5.4-10.083,8.834-16.55,10.301c-6.633,1.5-14.333-0.367-23.1-5.601C561.233,592.434,555.767,588.3,548.8,582.4z
			 M506.6,566.8l0.7-0.399c-4.1-0.667-7.05-0.767-8.85-0.301c-3,0.767-4.717,3.034-5.15,6.801c-0.433,3.833,2.75,7.183,9.55,10.05
			c4.933,2.1,12.25,4.083,21.95,5.95c6.467,1.267,11.483,1.149,15.05-0.351c1.8-0.767,2.95-1.649,3.45-2.649
			c-6.333-0.334-11.667-0.834-16-1.5c-4.633-0.7-8-1.45-10.1-2.25c-3.833-1.434-6.967-3.684-9.4-6.75
			c-2.3-2.9-3.066-5.267-2.3-7.101C505.733,567.7,506.1,567.2,506.6,566.8z M662,584l-10.5,8.65c-3.934-0.4-7.8-1.301-11.6-2.7
			c-3.567-1.3-6.45-2.816-8.65-4.55c-3.134-2.5-6.65-6.75-10.55-12.75l-4.9-8.25l-1.3,8.449c-0.434,6.233,0.5,10.917,2.8,14.051
			c2.267,3.133,5.851,5.883,10.75,8.25c4.967,2.433,10.05,3.866,15.25,4.3l-2.45,2.05c-7.199-0.967-14.267-3.816-21.199-8.55
			c-2.167-1.5-4.184-3.084-6.051-4.75l-2.149-2.101c-0.867,3.733-2.95,7.534-6.25,11.4c-6.601,7.767-16,12-28.2,12.7
			s-21.3-2.25-27.3-8.851c-1.9-2.066-3.367-4.366-4.4-6.899l-1-3.2c-7.466,0.3-15.283-0.2-23.45-1.5
			c-16.367-2.566-26.35-7.8-29.95-15.7c-3.566-7.899,5.983-11.416,28.65-10.55c11.333,0.434,23.017,1.65,35.05,3.65
			c1.733-2.567,4.316-5.217,7.75-7.95c6.9-5.467,14.65-8.55,23.25-9.25s19.216-0.05,31.85,1.95c6.3,1,11.75,2.066,16.35,3.199
			l1.05-1.55c0.967-1.267,2.167-2.55,3.601-3.85c4.666-4.2,10.816-7.75,18.45-10.65L662,584z"/>
		<path style="fill-rule:evenodd;clip-rule:evenodd;fill:#F9D38B;" d="M507.8,575.4c2.434,3.066,5.567,5.316,9.4,6.75
			c2.1,0.8,5.466,1.55,10.1,2.25c4.333,0.666,9.667,1.166,16,1.5c-0.5,1-1.65,1.883-3.45,2.649c-3.567,1.5-8.583,1.617-15.05,0.351
			c-9.7-1.867-17.017-3.851-21.95-5.95c-6.8-2.867-9.983-6.217-9.55-10.05c0.434-3.767,2.15-6.034,5.15-6.801
			c1.8-0.466,4.75-0.366,8.85,0.301l-0.7,0.399c-0.5,0.4-0.867,0.9-1.1,1.5C504.733,570.134,505.5,572.5,507.8,575.4z"/>
		<path style="fill-rule:evenodd;clip-rule:evenodd;fill:#F9D38B;" d="M549.55,592.55c-0.566-2.233-0.866-4.6-0.9-7.1l0.15-3.05
			c6.967,5.899,12.434,10.033,16.4,12.399c8.767,5.233,16.466,7.101,23.1,5.601c6.467-1.467,11.983-4.9,16.55-10.301
			c2.301-2.699,3.95-5.267,4.95-7.699c-0.833,2.433-1.934,5.033-3.3,7.8c-2.767,5.6-5.5,9.333-8.2,11.2
			c-5,3.466-9.333,5.683-13,6.649c-6.733,1.733-14.566,1.184-23.5-1.649C555.4,604.366,551.316,599.75,549.55,592.55z"/>
		<path style="fill-rule:evenodd;clip-rule:evenodd;fill:#F9D38B;" d="M615.8,564.4l4.9,8.25c3.899,6,7.416,10.25,10.55,12.75
			c2.2,1.733,5.083,3.25,8.65,4.55c3.8,1.399,7.666,2.3,11.6,2.7l-8.2,6.8c-5.2-0.434-10.283-1.867-15.25-4.3
			c-4.899-2.367-8.483-5.117-10.75-8.25c-2.3-3.134-3.233-7.817-2.8-14.051L615.8,564.4z"/>
	</g>
	<g>
		<polygon style="fill-rule:evenodd;clip-rule:evenodd;fill:#A38955;" points="1142,0 1176,0 962,246 768,288 696,448 688.6,439.15 
			757.6,278.65 954.1,239.7 		"/>
		<polygon style="fill-rule:evenodd;clip-rule:evenodd;fill:#A38955;" points="748,472 650,478 662,584 592,642 590,726 672,764 
			648,856 668,894 640.6,860.65 658.6,773.65 582.1,736.15 579.1,641.65 645.1,578.65 640.6,473.65 756.1,466.15 834.1,508.15 
			974,490 824,516 		"/>
		<polygon style="fill-rule:evenodd;clip-rule:evenodd;fill:#A38955;" points="441.15,716.65 502,652 456,728 470,806 434,890 
			476,956 426,1042 428,1035.55 462.15,958.15 423.15,884.65 457.65,806.65 		"/>
		<polygon style="fill-rule:evenodd;clip-rule:evenodd;fill:#A38955;" points="369.15,380.65 419.2,392.6 374,386 286,452 106,440 
			280.65,440.65 		"/>
		<polygon style="fill-rule:evenodd;clip-rule:evenodd;fill:#A38955;" points="417.15,727.15 428,730 368,754 292,790 260,818 
			268,872 260.55,859.35 247.65,826.15 283.65,788.65 		"/>
		<polygon style="fill-rule:evenodd;clip-rule:evenodd;fill:#A38955;" points="178.65,788.65 196,788 84,858 		"/>
		<polygon style="fill-rule:evenodd;clip-rule:evenodd;fill:#A38955;" points="174.15,881.65 238.65,835.15 248,838 184,880 
			216,956 164,1028 207.15,952.15 		"/>
	</g>
</g>
</svg>
