<?xml version="1.0" encoding="iso-8859-1"?>
<!-- Generator: Adobe Illustrator 15.1.0, SVG Export Plug-In . SVG Version: 6.00 Build 0)  -->
<!DOCTYPE svg PUBLIC "-//W3C//DTD SVG 1.1//EN" "http://www.w3.org/Graphics/SVG/1.1/DTD/svg11.dtd">
<svg version="1.1" id="Isolation_Mode" xmlns="http://www.w3.org/2000/svg" xmlns:xlink="http://www.w3.org/1999/xlink" x="0px"
	 y="0px" width="499.95px" height="61.4px" viewBox="0 0 499.95 61.4" style="enable-background:new 0 0 499.95 61.4;"
	 xml:space="preserve">
<g>
	<path style="fill-rule:evenodd;clip-rule:evenodd;fill:#987070;" d="M409.7,32.6c32.767,9.767,62.85,19.367,90.25,28.801H0
		C34.167,50.366,71.017,39.566,110.55,29c79.067-21.167,132.3-30.75,159.7-28.75C297.65,2.25,344.134,13.033,409.7,32.6z"/>
	<g>
		<g>
			<path style="fill-rule:evenodd;clip-rule:evenodd;fill:#895D60;" d="M244.4,37.4c-5.033,2.866-9.667,3.783-13.9,2.75
				c-2.367-0.634-4.283-1.65-5.75-3.051c-1.267-1.199-1.933-2.366-2-3.5c-0.167-1.666,0.917-2.933,3.25-3.8
				c1.333-0.466,3.15-0.683,5.45-0.65c1.133,0.033,2.183,0.1,3.15,0.2c-1.6,0.233-3.167,0.5-4.7,0.8c-3.066,0.633-4.4,1.583-4,2.85
				c0.333,1.033,1.417,1.934,3.25,2.7c1.934,0.8,4.067,1.166,6.4,1.1c4.233,0,9.35-1.267,15.351-3.8
				C249.066,34.5,246.9,35.967,244.4,37.4z"/>
		</g>
	</g>
	<g>
		<g>
			<path style="fill-rule:evenodd;clip-rule:evenodd;fill:#895D60;" d="M170.6,49.25c-3.667-0.533-5.867-1.684-6.6-3.45
				c-0.633-1.566-0.15-2.783,1.45-3.649c1-0.634,2.45-1.101,4.35-1.4c0.934-0.167,1.8-0.267,2.6-0.3
				c-1.267,0.366-2.483,0.783-3.65,1.25c-2.333,0.934-3.2,1.883-2.6,2.85c1,1.601,3.6,2.101,7.8,1.5
				c4.233-0.6,8.083-2.033,11.55-4.3c-1.3,1.3-2.85,2.616-4.65,3.95C177.25,48.366,173.833,49.55,170.6,49.25z"/>
		</g>
	</g>
	<g>
		<g>
			<path style="fill-rule:evenodd;clip-rule:evenodd;fill:#895D60;" d="M100.1,43.15c0.9-0.9,2.4-1.384,4.5-1.45
				c-0.833,0.233-1.633,0.533-2.4,0.899c-1.467,0.7-1.917,1.334-1.35,1.9c0.7,0.7,2.267,0.9,4.7,0.6c2.6-0.333,4.917-1.1,6.95-2.3
				c-0.767,0.767-1.717,1.517-2.85,2.25c-2.267,1.467-4.283,2.134-6.05,2c-1.967-0.2-3.25-0.733-3.85-1.6
				C99.217,44.684,99.333,43.917,100.1,43.15z"/>
		</g>
	</g>
	<g>
		<g>
			<path style="fill-rule:evenodd;clip-rule:evenodd;fill:#895D60;" d="M66.3,50.75c-0.433,0.667-0.983,1.35-1.65,2.05
				c-1.333,1.334-2.633,2.101-3.9,2.3c-1.433,0.2-2.417,0.034-2.95-0.5c-0.466-0.466-0.483-1.033-0.05-1.699
				c0.3-0.467,0.867-0.884,1.7-1.25c0.433-0.167,0.816-0.301,1.15-0.4c-0.533,0.3-1.033,0.616-1.5,0.95
				c-0.9,0.733-1.117,1.25-0.65,1.55c0.6,0.366,1.716,0.267,3.35-0.3C63.533,52.816,65.033,51.917,66.3,50.75z"/>
		</g>
	</g>
	<g>
		<g>
			<path style="fill-rule:evenodd;clip-rule:evenodd;fill:#895D60;" d="M32.55,54.25c0.367-0.033,0.684-0.05,0.95-0.05
				c-0.467,0.133-0.917,0.267-1.35,0.399c-0.833,0.301-1.133,0.617-0.9,0.95c0.333,0.533,1.233,0.75,2.7,0.65
				c1.5-0.101,2.85-0.517,4.05-1.25l-1.65,1.3c-1.333,0.866-2.55,1.2-3.65,1c-1.2-0.267-1.934-0.684-2.2-1.25
				c-0.2-0.467-0.033-0.884,0.5-1.25C31.333,54.517,31.85,54.35,32.55,54.25z"/>
		</g>
	</g>
	<g>
		<g>
			<path style="fill-rule:evenodd;clip-rule:evenodd;fill:#895D60;" d="M97.65,52.75c-0.667,0.5-1.433,0.967-2.3,1.4
				c-1.7,0.899-3.167,1.3-4.4,1.199c-1.4-0.133-2.317-0.533-2.75-1.199c-0.4-0.567-0.317-1.117,0.25-1.65
				c0.667-0.667,1.783-1.017,3.35-1.05c-0.633,0.166-1.233,0.383-1.8,0.649c-1.1,0.5-1.45,0.95-1.05,1.351
				c0.533,0.5,1.683,0.684,3.45,0.55C94.2,53.866,95.95,53.45,97.65,52.75z"/>
		</g>
	</g>
	<g>
		<g>
			<path style="fill-rule:evenodd;clip-rule:evenodd;fill:#895D60;" d="M87.5,39.45c-0.833,0.833-1.633,1.217-2.4,1.149
				c-0.533-0.033-0.883-0.183-1.05-0.449c-0.133-0.2-0.1-0.4,0.1-0.601c0.233-0.233,0.633-0.366,1.2-0.399
				c-0.233,0.066-0.45,0.149-0.65,0.25c-0.367,0.199-0.483,0.366-0.35,0.5c0.2,0.199,0.633,0.25,1.3,0.149
				C86.35,39.983,86.967,39.783,87.5,39.45z"/>
		</g>
	</g>
	<g>
		<g>
			<path style="fill-rule:evenodd;clip-rule:evenodd;fill:#895D60;" d="M79.8,51.2c-1.033,1.6-2.2,2.35-3.5,2.25
				c-0.867-0.033-1.433-0.233-1.7-0.601c-0.2-0.333-0.15-0.666,0.15-1c0.367-0.399,0.983-0.616,1.85-0.649
				c-0.333,0.1-0.667,0.233-1,0.399C75,51.9,74.817,52.167,75.05,52.4c0.3,0.366,0.983,0.433,2.05,0.199
				C78.2,52.366,79.1,51.9,79.8,51.2z"/>
		</g>
	</g>
	<g>
		<g>
			<path style="fill-rule:evenodd;clip-rule:evenodd;fill:#895D60;" d="M384.9,48.6c1,1.801,3.866,2.634,8.6,2.5
				c5-0.1,9.333-1.333,13-3.699c-1.4,1.433-3.184,2.8-5.35,4.1c-4.334,2.634-8.267,3.55-11.801,2.75
				c-3.833-0.967-6.116-2.4-6.85-4.3c-0.634-1.601-0.083-2.95,1.65-4.05c1.199-0.733,2.933-1.167,5.199-1.301
				c1.167-0.033,2.2-0.033,3.101,0c-1.533,0.267-3,0.617-4.4,1.051C385.217,46.45,384.167,47.434,384.9,48.6z"/>
		</g>
	</g>
	<g>
		<g>
			<path style="fill-rule:evenodd;clip-rule:evenodd;fill:#895D60;" d="M459.05,56.65c-2.033,1-3.866,1.216-5.5,0.649
				c-1.733-0.8-2.666-1.633-2.8-2.5c-0.1-0.767,0.3-1.3,1.2-1.6c0.566-0.2,1.333-0.25,2.3-0.15c0.467,0.066,0.884,0.117,1.25,0.15
				c-0.667,0.066-1.3,0.133-1.9,0.2c-1.267,0.133-1.816,0.466-1.649,1c0.3,0.966,1.517,1.55,3.649,1.75
				c2.233,0.166,4.25-0.2,6.051-1.101C460.95,55.616,460.083,56.15,459.05,56.65z"/>
		</g>
	</g>
	<g>
		<g>
			<path style="fill-rule:evenodd;clip-rule:evenodd;fill:#895D60;" d="M482,57.2c-1.3,1.3-2.55,1.899-3.75,1.8
				c-0.833-0.066-1.384-0.283-1.65-0.65c-0.199-0.366-0.149-0.699,0.15-1c0.366-0.366,1-0.566,1.9-0.6c-0.367,0.1-0.7,0.217-1,0.35
				c-0.634,0.301-0.834,0.567-0.601,0.801c0.3,0.333,0.967,0.433,2,0.3C480.15,58.066,481.134,57.733,482,57.2z"/>
		</g>
	</g>
	<g>
		<g>
			<path style="fill-rule:evenodd;clip-rule:evenodd;fill:#895D60;" d="M430.1,49c-0.8,0.366-1.083,0.717-0.85,1.05
				c0.366,0.533,1.283,0.684,2.75,0.45c1.434-0.267,2.767-0.783,4-1.55c-0.467,0.467-1.017,0.934-1.65,1.399
				c-1.233,0.9-2.399,1.317-3.5,1.25c-1.233-0.166-2-0.533-2.3-1.1c-0.233-0.467-0.1-0.9,0.4-1.3c0.533-0.4,1.35-0.634,2.45-0.7
				C430.934,48.667,430.5,48.833,430.1,49z"/>
		</g>
	</g>
	<g>
		<g>
			<path style="fill-rule:evenodd;clip-rule:evenodd;fill:#895D60;" d="M425.3,57c-1.3,1.066-2.533,1.55-3.7,1.45
				c-1.233-0.066-2.05-0.367-2.449-0.9c-0.334-0.467-0.267-0.95,0.199-1.45c0.534-0.533,1.434-0.85,2.7-0.949
				c-0.5,0.166-0.967,0.366-1.399,0.6c-0.9,0.434-1.184,0.833-0.851,1.2c0.434,0.467,1.417,0.566,2.95,0.3
				c1.634-0.3,2.983-0.917,4.05-1.85C426.434,55.934,425.934,56.467,425.3,57z"/>
		</g>
	</g>
	<g>
		<g>
			<path style="fill-rule:evenodd;clip-rule:evenodd;fill:#895D60;" d="M414.35,38.05c-0.833,0.467-1.816,0.867-2.949,1.2
				c-2.233,0.733-4.067,0.833-5.5,0.3c-1.634-0.566-2.601-1.3-2.9-2.2c-0.3-0.767-0.05-1.383,0.75-1.85
				c0.967-0.566,2.366-0.65,4.2-0.25c-0.8,0.033-1.55,0.116-2.25,0.25c-1.434,0.267-1.967,0.684-1.601,1.25
				c0.434,0.767,1.717,1.3,3.851,1.6C410.184,38.684,412.316,38.583,414.35,38.05z"/>
		</g>
	</g>
	<g>
		<g>
			<path style="fill-rule:evenodd;clip-rule:evenodd;fill:#895D60;" d="M422.5,48.2c-0.333,0.333-0.75,0.649-1.25,0.95
				c-0.967,0.633-1.866,0.85-2.7,0.649c-0.899-0.233-1.434-0.55-1.6-0.95c-0.101-0.366,0.05-0.683,0.45-0.949
				c0.466-0.301,1.083-0.4,1.85-0.301c-0.333,0.067-0.65,0.15-0.95,0.25c-0.633,0.2-0.883,0.417-0.75,0.65
				c0.2,0.4,0.851,0.583,1.95,0.55C420.634,49.017,421.634,48.733,422.5,48.2z"/>
		</g>
	</g>
	<g>
		<g>
			<path style="fill-rule:evenodd;clip-rule:evenodd;fill:#895D60;" d="M362.5,33.65c-0.6,0.6-1.333,1.183-2.2,1.75
				c-1.767,1.133-3.366,1.566-4.8,1.3c-1.6-0.267-2.566-0.767-2.9-1.5c-0.333-0.601-0.166-1.167,0.5-1.7
				c0.767-0.634,1.917-0.917,3.45-0.85c-0.633,0.133-1.233,0.316-1.8,0.55c-1.167,0.434-1.583,0.883-1.25,1.35
				c0.5,0.634,1.7,0.884,3.6,0.75C359.167,35.167,360.967,34.616,362.5,33.65z"/>
		</g>
	</g>
	<g>
		<g>
			<path style="fill-rule:evenodd;clip-rule:evenodd;fill:#895D60;" d="M360.65,51.9c0.333,0.166-0.934,0.966-3.801,2.399
				c-2.966,1.5-5.483,2.033-7.55,1.601c-2.267-0.367-3.75-1.101-4.45-2.2c-0.633-1-0.483-1.934,0.45-2.8
				c1.085-1.023,2.835-1.516,5.25-1.476c-0.507,0.122-1.357,0.413-2.55,0.875c-1.934,0.767-2.55,1.533-1.85,2.3
				c0.833,0.801,2.75,1.184,5.75,1.15C355.167,53.717,358.083,53.1,360.65,51.9z"/>
		</g>
	</g>
	<g>
		<g>
			<path style="fill-rule:evenodd;clip-rule:evenodd;fill:#895D60;" d="M391.15,34.8c-2.467,1.7-4.617,2.4-6.45,2.101
				c-1.3-0.2-2.15-0.617-2.55-1.25c-0.367-0.601-0.284-1.134,0.25-1.601c0.666-0.566,1.767-0.833,3.3-0.8
				c-0.634,0.134-1.217,0.3-1.75,0.5c-1.101,0.434-1.45,0.85-1.05,1.25c0.466,0.5,1.55,0.733,3.25,0.7
				C387.884,35.667,389.55,35.366,391.15,34.8z"/>
		</g>
	</g>
	<g>
		<g>
			<path style="fill-rule:evenodd;clip-rule:evenodd;fill:#895D60;" d="M371.45,49.3c0.666,0.2,1.733,0.3,3.2,0.3
				c1.866-0.033,3.533-0.3,5-0.8c-2.634,1.566-4.733,2.25-6.301,2.05c-1.1-0.033-1.916-0.3-2.449-0.8c-0.5-0.467-0.567-1-0.2-1.6
				c0.333-0.533,1-0.917,2-1.15c0.468-0.109,0.818-0.176,1.05-0.2c-0.3,0.078-0.8,0.312-1.5,0.7
				C371.15,48.434,370.884,48.934,371.45,49.3z"/>
		</g>
	</g>
	<g>
		<g>
			<path style="fill-rule:evenodd;clip-rule:evenodd;fill:#895D60;" d="M294.55,24.05c-2.666-0.533-4.3-1.433-4.899-2.7
				c-0.567-1.133-0.267-2.117,0.899-2.95c0.8-0.6,2.033-0.983,3.7-1.15c0.833-0.067,1.583-0.083,2.25-0.05
				c-1.1,0.2-2.15,0.483-3.15,0.85c-2,0.667-2.699,1.4-2.1,2.2c0.8,1.1,2.833,1.6,6.1,1.5c3.233-0.1,6.4-0.75,9.5-1.95
				c-1.199,0.867-2.583,1.684-4.149,2.45C299.566,23.85,296.85,24.45,294.55,24.05z"/>
		</g>
	</g>
	<g>
		<g>
			<path style="fill-rule:evenodd;clip-rule:evenodd;fill:#895D60;" d="M292.55,46c0.967,0,1.783-0.233,2.45-0.7
				c-0.267,0.267-0.6,0.533-1,0.8c-0.8,0.5-1.55,0.65-2.25,0.45c-0.733-0.2-1.167-0.467-1.3-0.8c-0.101-0.3,0.017-0.55,0.35-0.75
				c0.4-0.233,0.917-0.3,1.55-0.2c-0.267,0.033-0.533,0.084-0.8,0.15c-0.533,0.133-0.733,0.316-0.6,0.55
				C291.116,45.833,291.65,46,292.55,46z"/>
		</g>
	</g>
	<g>
		<g>
			<path style="fill-rule:evenodd;clip-rule:evenodd;fill:#895D60;" d="M331.15,40.35c-0.601,0.4-1.301,0.784-2.101,1.15
				c-1.633,0.7-3.017,0.9-4.149,0.6c-1.267-0.333-2.051-0.833-2.351-1.5c-0.267-0.566-0.116-1.05,0.45-1.449
				c0.7-0.467,1.75-0.617,3.15-0.45c-0.601,0.066-1.167,0.184-1.7,0.35c-1.033,0.3-1.4,0.65-1.101,1.05
				c0.367,0.567,1.367,0.884,3,0.95C328.083,41.15,329.684,40.917,331.15,40.35z"/>
		</g>
	</g>
	<g>
		<g>
			<path style="fill-rule:evenodd;clip-rule:evenodd;fill:#895D60;" d="M326.85,57.15c-1.699,0.933-3.166,1.333-4.399,1.199
				c-1.4-0.133-2.316-0.533-2.75-1.199c-0.4-0.567-0.316-1.117,0.25-1.65c0.666-0.667,1.783-1.017,3.35-1.05
				c-0.633,0.166-1.233,0.383-1.8,0.649c-1.1,0.5-1.45,0.95-1.05,1.351c0.533,0.5,1.684,0.684,3.45,0.55
				c1.8-0.134,3.55-0.55,5.25-1.25C328.483,56.25,327.717,56.717,326.85,57.15z"/>
		</g>
	</g>
	<g>
		<g>
			<path style="fill-rule:evenodd;clip-rule:evenodd;fill:#895D60;" d="M335.5,21.7c0.667-0.434,1.65-0.567,2.95-0.4
				c-0.533,0.067-1.05,0.167-1.55,0.3c-1,0.267-1.367,0.6-1.101,1c0.334,0.533,1.283,0.833,2.851,0.9c1.6,0.1,3.1-0.1,4.5-0.6
				c-0.567,0.4-1.233,0.75-2,1.05c-1.534,0.667-2.851,0.85-3.95,0.55c-1.167-0.333-1.884-0.817-2.15-1.45
				C334.816,22.517,334.967,22.067,335.5,21.7z"/>
		</g>
	</g>
	<g>
		<g>
			<path style="fill-rule:evenodd;clip-rule:evenodd;fill:#895D60;" d="M372.75,27.1c-1.033,0.167-1.833,0.183-2.4,0.05
				c-0.399-0.133-0.666-0.3-0.8-0.5c-0.133-0.2-0.1-0.383,0.101-0.55c0.214-0.214,0.581-0.273,1.1-0.175
				c-0.11,0.01-0.294,0.052-0.55,0.125c-0.4,0.1-0.533,0.233-0.4,0.4C370.033,26.683,371.017,26.9,372.75,27.1z"/>
		</g>
	</g>
	<g>
		<g>
			<path style="fill-rule:evenodd;clip-rule:evenodd;fill:#895D60;" d="M319.55,15.8c-0.866-0.233-1.383-0.55-1.55-0.95
				c-0.134-0.367-0.017-0.684,0.35-0.95c0.467-0.3,1.134-0.383,2-0.25c-0.366,0.033-0.716,0.1-1.05,0.2
				c-0.666,0.167-0.916,0.4-0.75,0.7c0.233,0.333,0.884,0.534,1.95,0.6c1.134,0.067,2.184-0.083,3.15-0.45
				c-0.4,0.267-0.867,0.517-1.4,0.75C321.184,15.883,320.283,16,319.55,15.8z"/>
		</g>
	</g>
	<g>
		<g>
			<path style="fill-rule:evenodd;clip-rule:evenodd;fill:#895D60;" d="M323,28.6c-0.634,0.633-1.417,1.233-2.35,1.8
				c-1.867,1.167-3.584,1.583-5.15,1.25c-1.7-0.434-2.7-1.067-3-1.9c-0.267-0.7-0.017-1.283,0.75-1.75c0.5-0.3,1.25-0.483,2.25-0.55
				c0.467,0,0.9,0,1.3,0c-0.633,0.133-1.267,0.283-1.899,0.45c-1.2,0.367-1.65,0.8-1.351,1.3c0.434,0.8,1.684,1.15,3.75,1.05
				C319.467,30.183,321.366,29.633,323,28.6z"/>
		</g>
	</g>
	<g>
		<g>
			<path style="fill-rule:evenodd;clip-rule:evenodd;fill:#895D60;" d="M284,11.4c-1.4,0.5-2.65,0.717-3.75,0.65
				c-2.467-0.1-4.083-0.7-4.85-1.8c-0.733-1-0.617-1.967,0.35-2.9c1-1.133,2.85-1.8,5.55-2c-1.066,0.333-2.05,0.733-2.95,1.2
				C276.517,7.483,275.967,8.3,276.7,9c0.8,0.733,2.75,0.917,5.85,0.55c4.934-0.6,8.066-0.9,9.4-0.9c-1.5,0.233-3,0.684-4.5,1.35
				S284.8,11.133,284,11.4z"/>
		</g>
	</g>
	<g>
		<g>
			<path style="fill-rule:evenodd;clip-rule:evenodd;fill:#895D60;" d="M282.15,21.05c0.699-0.066,1.316-0.267,1.85-0.6
				c-0.833,0.833-1.634,1.216-2.4,1.15c-0.533-0.033-0.883-0.184-1.05-0.45c-0.133-0.2-0.1-0.4,0.101-0.6
				c0.233-0.233,0.633-0.367,1.199-0.4c-0.233,0.067-0.449,0.15-0.649,0.25c-0.367,0.2-0.483,0.367-0.351,0.5
				C281.05,21.1,281.483,21.15,282.15,21.05z"/>
		</g>
	</g>
	<g>
		<g>
			<path style="fill-rule:evenodd;clip-rule:evenodd;fill:#895D60;" d="M261.9,9.9c-0.172,0.031-0.972,0.314-2.4,0.85
				c-1.733,0.6-3.1,0.917-4.1,0.95c-1.367-0.1-2.267-0.45-2.7-1.05c-0.4-0.566-0.334-1.117,0.2-1.65
				c0.566-0.598,1.55-0.94,2.949-1.025c-0.29,0.062-0.79,0.27-1.5,0.625c-1.033,0.5-1.333,0.95-0.899,1.35
				c0.434,0.4,1.533,0.517,3.3,0.35C259.617,10.04,261.334,9.906,261.9,9.9z"/>
		</g>
	</g>
	<g>
		<g>
			<path style="fill-rule:evenodd;clip-rule:evenodd;fill:#895D60;" d="M262.65,24.9c-2.134,1.6-4.017,2.317-5.65,2.15
				c-1.167-0.1-1.95-0.433-2.35-1c-0.334-0.466-0.267-0.933,0.199-1.4c0.567-0.566,1.517-0.867,2.851-0.9
				c-0.533,0.133-1.033,0.317-1.5,0.55c-0.934,0.4-1.233,0.784-0.9,1.15c0.467,0.4,1.434,0.55,2.9,0.45
				C259.7,25.8,261.184,25.467,262.65,24.9z"/>
		</g>
	</g>
	<g>
		<g>
			<path style="fill-rule:evenodd;clip-rule:evenodd;fill:#895D60;" d="M271.15,51.15c-0.034,0-1.351,0.533-3.95,1.6
				c-2.867,1.167-5.117,1.783-6.75,1.85c-2.2-0.066-3.7-0.566-4.5-1.5c-0.733-0.866-0.7-1.767,0.1-2.699
				c0.879-1.099,2.513-1.782,4.9-2.051c-0.492,0.138-1.309,0.521-2.45,1.15c-1.7,0.967-2.184,1.75-1.45,2.35
				c0.8,0.601,2.634,0.733,5.5,0.4C264.25,52.083,267.116,51.717,271.15,51.15z"/>
		</g>
	</g>
	<g>
		<g>
			<path style="fill-rule:evenodd;clip-rule:evenodd;fill:#895D60;" d="M289,30.1c-1.6,1.466-3.033,2.233-4.3,2.3
				c-0.9,0.033-1.55-0.134-1.95-0.5c-0.366-0.367-0.4-0.75-0.1-1.15c0.353-0.482,1.062-0.824,2.125-1.025
				c-0.205,0.06-0.563,0.251-1.075,0.575c-0.733,0.467-0.917,0.816-0.55,1.05c0.399,0.267,1.199,0.267,2.399,0
				C286.783,31.116,287.934,30.7,289,30.1z"/>
		</g>
	</g>
	<g>
		<g>
			<path style="fill-rule:evenodd;clip-rule:evenodd;fill:#895D60;" d="M208.35,17.2c-0.333-1.167,0.1-1.967,1.3-2.4
				c1.167-0.6,2.8-0.85,4.9-0.75c-0.9,0.167-1.767,0.383-2.6,0.65c-1.667,0.5-2.333,1.117-2,1.85c0.633,1.167,2.433,1.667,5.4,1.5
				c2.733-0.2,5.566-0.867,8.5-2c-1.067,0.733-2.283,1.483-3.65,2.25c-2.767,1.534-5.233,2.133-7.4,1.8
				C210.2,19.5,208.717,18.533,208.35,17.2z"/>
		</g>
	</g>
	<g>
		<g>
			<path style="fill-rule:evenodd;clip-rule:evenodd;fill:#895D60;" d="M240.65,11.15c-1.767,1-3.233,1.383-4.4,1.15
				c-0.833-0.167-1.367-0.466-1.6-0.9c-0.267-0.4-0.217-0.75,0.15-1.05c0.434-0.4,1.184-0.55,2.25-0.45
				c-0.433,0.067-0.85,0.167-1.25,0.3c-0.733,0.233-0.966,0.5-0.7,0.8c0.3,0.3,1.017,0.483,2.15,0.55
				C238.417,11.583,239.55,11.45,240.65,11.15z"/>
		</g>
	</g>
	<g>
		<g>
			<path style="fill-rule:evenodd;clip-rule:evenodd;fill:#895D60;" d="M198.65,43.8c-2.467,1.7-4.617,2.4-6.45,2.101
				c-1.3-0.2-2.15-0.617-2.55-1.25c-0.367-0.601-0.283-1.134,0.25-1.601c0.667-0.566,1.767-0.833,3.3-0.8
				c-0.633,0.134-1.217,0.3-1.75,0.5c-1.1,0.434-1.45,0.85-1.05,1.25c0.467,0.5,1.55,0.733,3.25,0.7
				C195.383,44.667,197.05,44.366,198.65,43.8z"/>
		</g>
	</g>
	<g>
		<g>
			<path style="fill-rule:evenodd;clip-rule:evenodd;fill:#895D60;" d="M217.55,53.4c0.267-0.601,0.917-1.117,1.95-1.551
				c1.033-0.433,1.5-0.566,1.4-0.399c-0.1-0.2-0.7,0.133-1.8,1c-1.067,0.833-1.283,1.399-0.65,1.7c0.733,0.133,1.883,0.05,3.45-0.25
				c1.934-0.367,3.633-0.934,5.1-1.7c-2.467,2.1-4.55,3.184-6.25,3.25c-1.2,0.166-2.117,0.033-2.75-0.4
				C217.4,54.616,217.25,54.066,217.55,53.4z"/>
		</g>
	</g>
	<g>
		<g>
			<path style="fill-rule:evenodd;clip-rule:evenodd;fill:#895D60;" d="M199.75,32.35c1.267-0.066,2.583-0.333,3.95-0.8
				c-1.934,1.3-3.617,1.9-5.05,1.8c-1.033-0.1-1.7-0.399-2-0.899c-0.3-0.4-0.25-0.816,0.15-1.25c0.5-0.467,1.333-0.717,2.5-0.75
				c-0.466,0.133-0.9,0.283-1.3,0.45c-0.833,0.4-1.1,0.75-0.8,1.05C197.6,32.283,198.45,32.417,199.75,32.35z"/>
		</g>
	</g>
	<g>
		<g>
			<path style="fill-rule:evenodd;clip-rule:evenodd;fill:#895D60;" d="M187.15,21.2c-2.6,1.833-4.867,2.6-6.8,2.3
				c-1.367-0.2-2.25-0.65-2.65-1.35c-0.4-0.6-0.317-1.15,0.25-1.65c0.667-0.6,1.816-0.883,3.45-0.85
				c-0.667,0.133-1.283,0.317-1.85,0.55c-1.133,0.433-1.5,0.867-1.1,1.3c0.533,0.533,1.683,0.767,3.45,0.7
				C183.733,22.167,185.483,21.833,187.15,21.2z"/>
		</g>
	</g>
	<g>
		<g>
			<path style="fill-rule:evenodd;clip-rule:evenodd;fill:#895D60;" d="M135.7,47.45c-2.567,0.866-3.417,1.8-2.55,2.8
				c1,1.1,3.467,1.733,7.4,1.9c3.567,0.199,7.517-0.017,11.85-0.65c-1.633,0.7-3.467,1.384-5.5,2.05
				c-4.066,1.3-7.35,1.717-9.85,1.25c-3-0.6-4.917-1.649-5.75-3.149c-0.733-1.334-0.45-2.551,0.85-3.65
				c1.463-1.245,3.796-1.745,7-1.5C138.479,46.59,137.33,46.907,135.7,47.45z"/>
		</g>
	</g>
	<g>
		<g>
			<path style="fill-rule:evenodd;clip-rule:evenodd;fill:#895D60;" d="M159.35,27.9c-0.7,0.333-1.483,0.617-2.35,0.85
				c-1.7,0.533-3.083,0.667-4.15,0.4c-1.233-0.333-2-0.833-2.3-1.5c-0.267-0.6-0.1-1.1,0.5-1.5c0.667-0.5,1.717-0.633,3.15-0.4
				c-0.6,0.067-1.167,0.167-1.7,0.3c-1.067,0.267-1.45,0.617-1.15,1.05c0.4,0.5,1.417,0.833,3.05,1
				C156,28.267,157.65,28.2,159.35,27.9z"/>
		</g>
	</g>
	<g>
		<g>
			<path style="fill-rule:evenodd;clip-rule:evenodd;fill:#895D60;" d="M129,35.3c3.033,0.066,4.717,0.117,5.05,0.15
				c-0.033,0-0.85,0.184-2.45,0.55c-1.767,0.4-3.067,0.583-3.9,0.55c-1.167-0.1-1.967-0.416-2.4-0.95c-0.433-0.5-0.433-1.033,0-1.6
				c0.48-0.63,1.421-0.963,2.825-1c-0.309,0.088-0.751,0.271-1.325,0.55c-1.066,0.5-1.367,0.934-0.9,1.3
				C126.3,35.116,127.333,35.267,129,35.3z"/>
		</g>
	</g>
	<g>
		<g>
			<path style="fill-rule:evenodd;clip-rule:evenodd;fill:#895D60;" d="M121.25,53.55c-0.267,0.467-0.683,0.934-1.25,1.4
				c-1.133,0.967-2.217,1.399-3.25,1.3c-1.1-0.066-1.8-0.333-2.1-0.8c-0.3-0.4-0.25-0.816,0.15-1.25c0.467-0.5,1.267-0.767,2.4-0.8
				c-0.434,0.133-0.85,0.3-1.25,0.5c-0.8,0.366-1.05,0.699-0.75,1c0.367,0.433,1.233,0.533,2.6,0.3
				C119.233,54.934,120.383,54.384,121.25,53.55z"/>
		</g>
	</g>
</g>
</svg>
