<?xml version="1.0" encoding="iso-8859-1"?>
<!-- Generator: Adobe Illustrator 15.1.0, SVG Export Plug-In . SVG Version: 6.00 Build 0)  -->
<!DOCTYPE svg PUBLIC "-//W3C//DTD SVG 1.1//EN" "http://www.w3.org/Graphics/SVG/1.1/DTD/svg11.dtd">
<svg version="1.1" id="buildings" xmlns="http://www.w3.org/2000/svg" xmlns:xlink="http://www.w3.org/1999/xlink" x="0px" y="0px"
	 width="62.5px" height="204px" viewBox="0 0 62.5 204" style="enable-background:new 0 0 62.5 204;" xml:space="preserve">
<g>
	
		<linearGradient id="SVGID_1_" gradientUnits="userSpaceOnUse" x1="0.499" y1="-39.4946" x2="136.5194" y2="-39.4946" gradientTransform="matrix(-0.1728 0.985 -0.985 -0.1728 -7.734299e-004 1.447201e-004)">
		<stop  offset="0" style="stop-color:#5F7574"/>
		<stop  offset="1" style="stop-color:#A1AAA9"/>
	</linearGradient>
	<path style="fill-rule:evenodd;clip-rule:evenodd;fill:url(#SVGID_1_);" d="M0,0l46.8,8.2C46.267,75.4,46,117.667,46,135
		s-0.5,40.167-1.5,68.5L22,204c2.667-5.333,5.25-12.583,7.75-21.75c5-18.333,7.083-37.083,6.25-56.25s-7.083-45.917-18.75-80.25
		C11.417,28.583,5.667,13.333,0,0z"/>
	<g>
		<path style="fill-rule:evenodd;clip-rule:evenodd;fill:#657373;" d="M42.35,106.95l-0.024,0.024L42.35,107V106.95z M46.75,18.6
			L46.7,20c-2.4,2.367-5.367,3.7-8.9,4l-1.25,0.05L36.1,24l0.051,0.05c-1.301,2.167-1.567,5.167-0.801,9
			c0.801,3.833,2.384,7.217,4.75,10.15c2,2.466,4.134,3.983,6.4,4.55v0.95c-2.533-0.5-4.934-2.133-7.2-4.9
			c-1.333-1.633-2.416-3.466-3.25-5.5c-1.2,2.9-4.233,5.517-9.1,7.85c2,5.567,4.267,9.483,6.8,11.75c3.033,2.7,7.25,4,12.65,3.9v1
			l-0.551,0.05c-3.933,0-7.216-0.733-9.85-2.2c-0.934,2.167-1.95,4.017-3.05,5.55c0.866,5.533,2.149,9.667,3.85,12.4
			c2.033,3.267,5.184,5.566,9.45,6.9l-0.05,1.05c-2.8-0.867-5.15-2.1-7.05-3.7l-0.801,7.1l0.101-0.05l0.75,3.6
			c0.8,4.1,1.55,7.1,2.25,9c1.166,3.333,2.717,5.783,4.649,7.35l-0.05,1.25c-1.066-0.733-2.116-1.816-3.149-3.25
			c-0.967,1.267-2.233,2.75-3.801,4.45l0.351,0.05c-0.8,6.367,0.017,10.784,2.45,13.25c1.066,1.067,2.433,1.801,4.1,2.2v1
			c-1.033-0.233-1.866-0.517-2.5-0.85c0.1,2.399-0.9,4.733-3,7l0.2-0.05c1.267,4.166,3.017,7.017,5.25,8.55L45.9,144.6
			c-0.7-0.399-1.367-0.916-2-1.55c-1.4,2.967-3.351,6.3-5.851,10h0.15c-0.367,4.533-0.5,7.75-0.4,9.65
			c0.233,3.333,1.084,5.833,2.55,7.5c1.2,1.333,2.884,2.233,5.051,2.7l-0.051,1.05c-1.899-0.4-3.517-1.134-4.85-2.2
			c-1.033,2.934-2.917,5.017-5.65,6.25c-0.866,2.833-0.449,5.2,1.25,7.1c1.834,2.067,4.784,3.367,8.851,3.9l-0.05,1
			c-2.567-0.4-4.733-1.05-6.5-1.95L37.05,189.4c-1.133,1.166-2.017,1.933-2.649,2.3c-1.067,0.633-2.417,0.983-4.05,1.05h-0.5
			c-1.133,0-2.217-0.116-3.25-0.35l0.35-0.95c1.367,0.233,2.5,0.333,3.4,0.3c1.433-0.066,2.617-0.366,3.55-0.9
			c0.6-0.366,1.416-1.083,2.449-2.149l1.15-1.15c-0.833-0.533-1.55-1.116-2.15-1.75c-1.8-2-2.35-4.45-1.649-7.35
			c-1,0.3-2.05,0.5-3.15,0.6l0.3-1.05c1.034-0.1,1.983-0.3,2.85-0.6c3.066-1.101,5.066-3.25,6-6.45L39.6,170.85
			c-1.5-1.699-2.399-4.116-2.699-7.25c-0.2-2.133-0.134-5.183,0.199-9.149l-2.449,3.2l0.199-1.851
			c1.767-2.267,3.517-4.899,5.25-7.899c1.301-2.2,2.267-3.983,2.9-5.351l0.75,0.351c-1.634-1.667-2.917-4.117-3.85-7.351
			l-1.351,1.15c-0.633,0.5-1.45,1.05-2.45,1.649v-1.199c0.601-0.334,1.217-0.733,1.851-1.2c1.633-1.267,2.85-2.65,3.649-4.15
			c0.767-1.5,1.067-2.983,0.9-4.45c-0.4-0.233-0.833-0.583-1.3-1.05c-2.566-2.6-3.5-7.033-2.8-13.3
			c-1.101,1.066-2.2,2.017-3.301,2.85L34.95,114.7c2.461-1.962,4.919-4.537,7.375-7.726c-1.021-1.697-1.879-3.839-2.575-6.425
			c-0.467-1.6-0.983-3.9-1.55-6.9l-0.25-1.35c-0.367,1.867-0.917,3.467-1.65,4.8c-0.733,1.4-1.899,2.933-3.5,4.6l-0.25-1.2
			c1.233-1.267,2.2-2.567,2.9-3.9c0.366-0.667,0.733-1.6,1.1-2.8h-0.3c-0.033-2.033-0.75-3.633-2.15-4.8
			c-1.1-0.967-2.633-1.667-4.6-2.1l-0.25-1.1c2.333,0.5,4.167,1.3,5.5,2.4c1.167,1,1.917,2.25,2.25,3.75
			c0.3-1.5,0.533-3.333,0.7-5.5c0.2-1.867,0.383-3.284,0.55-4.25l0.2,0.05c-1.7-1.667-3.066-3.783-4.101-6.35
			c-0.899-2.267-1.633-5.15-2.199-8.65c-1.8,2.2-3.967,3.983-6.5,5.35l-0.25-1c4.333-2.434,7.567-6.25,9.7-11.45
			c-2-1.267-3.75-3.083-5.25-5.45c-1.333-2.067-2.6-4.784-3.8-8.15C23.483,47.683,20.9,48.5,18.3,49L18,48.05
			c4.1-0.8,7.833-2.216,11.2-4.25c3.333-2,5.35-4.066,6.05-6.2l0.55,0.2c-1.033-2.5-1.633-4.95-1.8-7.35
			c-0.167-2.567,0.2-4.733,1.1-6.5c-4.7-0.434-8.783-2.383-12.25-5.85c-2.1,3.667-6.267,6.45-12.5,8.35L10,25.55
			c4.167-1.267,7.317-2.867,9.45-4.8c2.7-2.467,4.133-5.733,4.3-9.8c0.067-1.733-0.117-4.017-0.55-6.85l1.05,0.15
			c0.4,3,0.567,5.25,0.5,6.75c-0.1,2.333-0.583,4.4-1.45,6.2l0.05-0.05c1.967,2.033,4.217,3.567,6.75,4.6
			c2.534,1,5.083,1.417,7.65,1.25C41.316,22.7,44.316,21.233,46.75,18.6z"/>
	</g>
	
		<linearGradient id="SVGID_2_" gradientUnits="userSpaceOnUse" x1="-1.7881" y1="-67.7773" x2="85.3611" y2="-67.7773" gradientTransform="matrix(-0.1951 0.9808 -0.9808 -0.1951 -8.446127e-004 1.327693e-004)">
		<stop  offset="0" style="stop-color:#707E7C"/>
		<stop  offset="1" style="stop-color:#BDC4C2"/>
	</linearGradient>
	<path style="fill-rule:evenodd;clip-rule:evenodd;fill:url(#SVGID_2_);" d="M62.5,6.5c-7.333,66-11.333,105-12,117
		S49.667,161,50,200l-5.5,3.5L46.8,8.2L62.5,6.5z"/>
	<polygon style="fill-rule:evenodd;clip-rule:evenodd;fill:#B1B8B7;" points="46.8,8.2 0,0 27.8,0.45 62.5,6.5 	"/>
	<g>
		<path style="fill-rule:evenodd;clip-rule:evenodd;fill:#869192;" d="M61.15,18.65L61,19.85c-2.366,1.233-4.884,1.85-7.55,1.85
			c-2.467,0-4.733-0.567-6.8-1.7l0.05-0.6l0.2-0.4c2.3,1.333,4.866,1.883,7.699,1.65c1.4-2,1.817-4.816,1.25-8.45
			c-0.267-1.633-0.783-3.233-1.55-4.8l1.05-0.1c0.667,1.5,1.15,3.083,1.45,4.75c0.601,3.434,0.3,6.25-0.899,8.45
			C57.667,20.2,59.417,19.583,61.15,18.65z"/>
		<path style="fill-rule:evenodd;clip-rule:evenodd;fill:#869192;" d="M52.9,34.55c1.1-2.566,3.533-5,7.3-7.3l-0.15,1.25
			c-3.267,2.1-5.383,4.333-6.35,6.7c-1.066,2.6-0.934,5.85,0.399,9.75c1.7-0.7,3.184-1.467,4.45-2.3L58.4,43.9
			c-1.733,1.067-4.384,2.217-7.95,3.45c1,2.167,1.416,4.733,1.25,7.7c-0.134,2.6-0.684,5.133-1.65,7.6
			c2.233,0.934,4.167,2.7,5.8,5.3L55.65,69.6c-1.101-2.067-2.334-3.617-3.7-4.65c-1.566-1.233-3.5-1.95-5.8-2.15v-0.95
			c1.133,0.066,2.116,0.233,2.949,0.5c0.934-2.367,1.467-4.817,1.601-7.35c0.166-2.833-0.233-5.267-1.2-7.3l-2.85,1.05l-0.301-0.8
			V47.8l6.851-2.5C51.733,41.033,51.634,37.45,52.9,34.55z"/>
		<path style="fill-rule:evenodd;clip-rule:evenodd;fill:#869192;" d="M54,85.45c-2.066,0.7-4.3,1.05-6.7,1.05L45.9,86.45v-1
			c3,0.167,5.733-0.2,8.199-1.1L54,85.45z"/>
		<path style="fill-rule:evenodd;clip-rule:evenodd;fill:#869192;" d="M51.9,106.9l-0.15,1.3c-1.767,1.233-3.816,2.133-6.15,2.7
			v-1.051C48,109.25,50.1,108.267,51.9,106.9z"/>
		<path style="fill-rule:evenodd;clip-rule:evenodd;fill:#869192;" d="M50.25,128.7c-1.3-0.367-2.934-0.4-4.9-0.101l0.051-1
			c2-0.267,3.633-0.233,4.899,0.101L50.25,128.7z"/>
		<path style="fill-rule:evenodd;clip-rule:evenodd;fill:#869192;" d="M45.25,144.1l0.15-1c1.6,0.301,3.116,0.75,4.55,1.351v1.1
			C48.417,144.85,46.85,144.366,45.25,144.1z"/>
		<path style="fill-rule:evenodd;clip-rule:evenodd;fill:#869192;" d="M49.85,172.75c-1.666,0.7-3.25,1.05-4.75,1.05h-0.25v-1
			c1.7,0,3.367-0.383,5-1.149V172.75z"/>
		<path style="fill-rule:evenodd;clip-rule:evenodd;fill:#869192;" d="M47.85,159.95c0.233-1.134,0.917-2.101,2.051-2.9l-0.051,1.3
			c-0.5,0.5-0.85,1.117-1.05,1.851c-0.267,1.333,0.084,2.6,1.05,3.8v1.5C48.05,163.767,47.384,161.917,47.85,159.95z"/>
		<path style="fill-rule:evenodd;clip-rule:evenodd;fill:#869192;" d="M47.4,188.75c-1.101,0.467-1.983,0.95-2.65,1.45l-0.1-0.2
			v-0.95c0.433-0.267,1.199-0.666,2.3-1.2c1.333-0.6,2.316-1.183,2.95-1.75v1.301C49.366,187.767,48.533,188.217,47.4,188.75z"/>
	</g>
	<path style="fill-rule:evenodd;clip-rule:evenodd;fill:#586A69;" d="M3.675,1.4L45.8,9.1L45,99.975
		c-0.191-11.658-0.425-23.45-0.7-35.375c-0.666-31.867-1.6-49.033-2.8-51.5c-0.9-1.867-7.866-4.45-20.9-7.75
		C14.883,3.892,9.242,2.575,3.675,1.4z"/>
	<path style="fill-rule:evenodd;clip-rule:evenodd;fill:#586A69;" d="M47.5,9.1l14.3-1.65l-4.675,44
		c0.191-2.592,0.4-5.192,0.625-7.8c1.767-20.867,2.184-31.833,1.25-32.9c-0.634-0.7-2.733-1.183-6.3-1.45L47.5,9.1z"/>
	<path style="fill-rule:evenodd;clip-rule:evenodd;fill:#586A69;" d="M26.5,195.45l-0.1,1.8c0,1.4,0.133,2.583,0.4,3.55
		c0.333,1.134,2.067,1.767,5.2,1.9c3.066,0.1,5.5-0.316,7.3-1.25c1.467-0.767,2.717-5.184,3.75-13.25l1.101-11.9l-0.65,26.8
		L23,203.45L26.5,195.45z"/>
	<path style="fill-rule:evenodd;clip-rule:evenodd;fill:#586A69;" d="M46.5,199.25c0.6,0.733,1.2,0.684,1.8-0.15
		c0.685-0.937,1.093-7.062,1.226-18.375l0.125,18.525l-4.851,3.7l0.351-6.7C45.55,197.65,46,198.65,46.5,199.25z"/>
</g>
</svg>
