<?xml version="1.0" encoding="iso-8859-1"?>
<!-- Generator: Adobe Illustrator 15.1.0, SVG Export Plug-In . SVG Version: 6.00 Build 0)  -->
<!DOCTYPE svg PUBLIC "-//W3C//DTD SVG 1.1//EN" "http://www.w3.org/Graphics/SVG/1.1/DTD/svg11.dtd">
<svg version="1.1" id="Isolation_Mode" xmlns="http://www.w3.org/2000/svg" xmlns:xlink="http://www.w3.org/1999/xlink" x="0px"
	 y="0px" width="188.45px" height="189.7px" viewBox="0 0 188.45 189.7" style="enable-background:new 0 0 188.45 189.7;"
	 xml:space="preserve">
<g>
	<path style="fill-rule:evenodd;clip-rule:evenodd;fill:#DEDFA2;" d="M165.95,170.35c-4.8,5.2-8.483,8.217-11.05,9.051
		c-2.367,0.767-5.017,0.767-7.95,0c-3.033-0.767-5.717-2.2-8.05-4.301c-5.767-5.199-7.434-12.033-5-20.5
		c0.466-1.666,2.767-4.133,6.899-7.399c2.4-1.9,6.4-5.05,12-9.45c10.2-8.634,12.95-15.866,8.25-21.7
		c-3.333-4.166-9.483-11.033-18.45-20.6c-10.133-10.8-20.133-21.034-30-30.7C85.333,38.05,68.867,25.167,63.2,26.1
		c-2.867,0.467-6.034,2.367-9.5,5.7c-1.733,1.633-4.767,5.017-9.1,10.15c-3.733,4.433-6.65,7.483-8.75,9.15
		c-3.167,2.433-6.017,3.25-8.55,2.45c-9.566-3.066-15.167-6.15-16.8-9.25c-1.6-3.066-0.583-8.65,3.05-16.75
		C20.017,20.95,27.583,15,36.25,9.7C53.583-0.867,67.733-2.8,78.7,3.9C91,11.4,109.134,27.183,133.1,51.25
		c22.067,22.1,38.584,40.383,49.551,54.85c8.633,11.367,7.666,26.467-2.9,45.301C175.884,158.267,171.283,164.583,165.95,170.35z"/>
	<g>
		<path style="fill-rule:evenodd;clip-rule:evenodd;fill:#BDBF71;" d="M73.225,8.6c-2.044-0.53-4.302-0.764-6.775-0.7
			c-5.333,0.133-10.467,1.717-15.4,4.75C45.917,15.75,39.233,21.167,31,28.9c-4.133,3.9-7.75,7.467-10.85,10.7l-8.3-7.95l1.7-4.1
			c5.267-5.367,11.583-10.517,18.95-15.45C47.267,2.267,59.95-1.533,70.55,0.7c-2.1,0.267-3.716,0.9-4.85,1.9
			c-1.233,1.066-0.383,2.367,2.55,3.9C70,7.438,71.658,8.138,73.225,8.6z"/>
		<path style="fill-rule:evenodd;clip-rule:evenodd;fill:#BDBF71;" d="M142.6,95.45c-10.133-10.8-20.133-21.034-30-30.7
			c-26.411-25.863-42.687-38.763-48.825-38.7L65,25.95c1.6,0,3.367,0.233,5.3,0.7c6.1,1.533,12.667,5.117,19.7,10.75
			c13.366,10.767,28.6,24.417,45.7,40.95c22.166,21.466,33.733,35.35,34.7,41.65c0.933,6.033-2.217,15.25-9.45,27.65
			c-3.634,6.199-7.351,11.8-11.15,16.8c-5.899-3.367-11.233-6.517-16-9.45l0.101-0.4c0.466-1.666,2.767-4.133,6.899-7.399
			c2.4-1.9,6.4-5.05,12-9.45c10.2-8.634,12.95-15.866,8.25-21.7C157.717,111.884,151.566,105.017,142.6,95.45z"/>
	</g>
	<path style="fill-rule:evenodd;clip-rule:evenodd;fill:#A2A550;" d="M19.95,21.65L19.5,23.1C19.167,24.333,19,25.633,19,27
		c0,4.367,1.55,8.567,4.65,12.6s6.533,6.767,10.3,8.2c1.867,0.733,3.433,1.067,4.7,1c-2,4.733-3.833,7.867-5.5,9.4
		c-2.967,2.7-5.633,4.683-8,5.95c-1.167,0.633-2.05,0.983-2.65,1.05c-2.2-0.133-4.667-0.8-7.4-2c-5.533-2.434-9.7-6.35-12.5-11.75
		C0.067,46.517-0.617,41.2,0.55,35.5c0.367-1.767,0.883-3.467,1.55-5.1l0.95-1.95c1.833-1.1,3.883-2.233,6.15-3.4
		c2.367-1.2,4.867-2.133,7.5-2.8C18.033,21.95,19.117,21.75,19.95,21.65z"/>
	<path style="fill-rule:evenodd;clip-rule:evenodd;fill:#A2A550;" d="M168.65,167.5l-0.75,3.5c-0.733,2.7-1.65,4.967-2.75,6.8
		c-1.067,1.8-3.367,4.316-6.9,7.55c-1.767,1.601-3.417,3.034-4.95,4.301c-2.066,0.199-4.583-0.134-7.55-1
		c-5.967-1.733-11.25-5.284-15.85-10.65c-4.2-4.8-5.967-10.434-5.301-16.9c0.2-2.033,0.617-4.017,1.25-5.949l0.95-2.301
		c0.834-0.899,2.8-2.216,5.9-3.949c1.7-0.934,3.666-1.584,5.899-1.95c1.134-0.167,2.101-0.25,2.9-0.25l0.65,4.399
		c1.133,3.567,3.399,7,6.8,10.301c3.166,3.066,7.399,5,12.7,5.8C164.316,167.6,166.65,167.7,168.65,167.5z"/>
	<path style="fill-rule:evenodd;clip-rule:evenodd;fill:#E5E5B5;" d="M183.95,135.75c-1.4,5.866-4.45,12.517-9.15,19.95
		c-2.333,3.733-4.533,6.866-6.6,9.399c-0.767,0.233-1.584,0.384-2.45,0.45c-1.767,0.134-2.917-0.166-3.45-0.899
		c2.5-2.601,5.167-5.851,8-9.75c5.667-7.801,9.283-14.917,10.851-21.351c1.466-5.934,2.366-11.033,2.699-15.3l0.101-4.6l1.25,5.899
		C185.733,124.616,185.316,130.017,183.95,135.75z"/>
	<path style="fill-rule:evenodd;clip-rule:evenodd;fill:#ECECCB;" d="M179.6,104.65c-1.466-1.034-2.85-1.917-4.149-2.65
		c-0.834-0.434-1.117-0.017-0.851,1.25c0.101,0.634,0.301,1.316,0.601,2.05c-4.733-5.767-10.066-12.083-16-18.95
		c-11.8-13.767-20.634-23.434-26.5-29c-5.834-5.567-14.767-14.283-26.8-26.15L89.6,15.05l15.1,13.05
		c11.233,9.833,19.767,17.533,25.6,23.1c5.867,5.566,15.834,16.15,29.9,31.75C167.267,90.75,173.733,97.983,179.6,104.65z"/>
	<path style="fill-rule:evenodd;clip-rule:evenodd;fill:#A9AC5D;" d="M56.95,4.1C45.417,10.533,38.4,14.767,35.9,16.8
		c-2.467,2.067-6.85,6.45-13.15,13.15c-0.3-0.967-0.517-2.017-0.65-3.15c-0.3-2.267-0.083-3.767,0.65-4.5
		c8.933-6.433,15.367-10.816,19.3-13.15c2.467-1.467,5.684-2.75,9.65-3.85C53.7,4.767,55.45,4.367,56.95,4.1z"/>
	<path style="fill-rule:evenodd;clip-rule:evenodd;fill:#A9AC5D;" d="M163.4,116.7c-0.301-0.267-6.917-7.55-19.851-21.85
		c-13-14.4-20.916-22.883-23.75-25.45c-3.033-2.733-10.066-9.316-21.1-19.75L83,34.8l17.05,15
		c12.334,10.934,20.967,18.633,25.9,23.1c5.033,4.567,12.45,11.883,22.25,21.95c7.533,7.766,12.6,13.083,15.2,15.95
		c1.166,1.267,1.716,2.8,1.649,4.601C164.95,117.167,164.4,117.6,163.4,116.7z"/>
	<path style="fill-rule:evenodd;clip-rule:evenodd;fill:#A9AC5D;" d="M164.9,125l-0.801,4.7c-0.733,3.666-1.699,6.783-2.899,9.35
		c-1.9,4.066-6.134,10.334-12.7,18.8c-0.6-0.433-1.55-1.6-2.85-3.5c-0.834-1.199-1.301-2.616-1.4-4.25l0.1-2.1l13.801-12.7
		c1.366-1.267,2.899-3.366,4.6-6.3C163.616,127.533,164.333,126.2,164.9,125z"/>
	<g>
		<path style="fill-rule:evenodd;clip-rule:evenodd;fill:#8E9344;" d="M16.7,22.25c1.333-0.3,2.417-0.5,3.25-0.6l-0.9,4.65
			c-0.167,3.8,0.867,7.517,3.1,11.15l-0.05,0.2c-2.033,1.267-4.1,2.867-6.2,4.8c-4.133,3.867-6.3,7.45-6.5,10.75
			c-0.167,3.066,0.867,5.7,3.1,7.9c1.2,1.133,2.6,2.05,4.2,2.75c-6.267-2.3-10.967-6.434-14.1-12.4
			C0.067,46.517-0.617,41.2,0.55,35.5c0.367-1.767,0.883-3.467,1.55-5.1l0.95-1.95c1.833-1.1,3.883-2.233,6.15-3.4
			C11.567,23.85,14.067,22.917,16.7,22.25z"/>
	</g>
	<g>
		<path style="fill-rule:evenodd;clip-rule:evenodd;fill:#8E9344;" d="M138.6,146.95c1.134-0.167,2.101-0.25,2.9-0.25l0.65,4.399
			c1.133,3.567,3.399,7,6.8,10.301l1.899,1.6l-0.149,0.35c-2.2,1.4-4.334,3.101-6.4,5.101c-4.166,4-5.983,7.55-5.45,10.649
			c0.467,2.634,1.7,4.917,3.7,6.851c1.233,1.233,2.634,2.217,4.2,2.95c-6.366-1.601-11.983-5.233-16.85-10.9
			c-4.2-4.8-5.967-10.434-5.301-16.9c0.2-2.033,0.617-4.017,1.25-5.949l0.95-2.301c0.834-0.899,2.8-2.216,5.9-3.949
			C134.4,147.967,136.366,147.316,138.6,146.95z"/>
	</g>
	<path style="fill-rule:evenodd;clip-rule:evenodd;fill:#696D37;" d="M15.75,25.35L15.1,29.3c-1.3,0.434-3.05,1.317-5.25,2.65
		c-1.367,0.8-3.05,2.4-5.05,4.8c-1,1.167-1.867,2.267-2.6,3.3l0.85-9c1.333-1.466,2.867-2.566,4.6-3.3
		C9.417,27.05,12.117,26.25,15.75,25.35z"/>
	<path style="fill-rule:evenodd;clip-rule:evenodd;fill:#696D37;" d="M139.1,150.2c-0.466,1.166-0.333,2.85,0.4,5.05
		c-1.467,0.566-3.283,1.434-5.45,2.6c-1.366,0.733-3.066,1.95-5.1,3.65c-1,0.833-1.867,1.6-2.601,2.3
		c-0.566-0.899-0.783-1.85-0.649-2.85c0.1-0.634,0.5-1.967,1.2-4l1-2.8c0.5-0.334,1.133-0.7,1.899-1.101
		c1.467-0.833,2.8-1.483,4-1.95C135.7,150.366,137.467,150.066,139.1,150.2z"/>
	<path style="fill-rule:evenodd;clip-rule:evenodd;fill:#C2C47C;" d="M161.2,177.6c-1.101,2-2.783,3.851-5.05,5.551
		c-1.134,0.833-2.15,1.466-3.051,1.899l-2.85-3.1c0.634-0.2,1.333-0.55,2.1-1.05c1.567-1,2.767-2.184,3.601-3.551
		c0.8-1.366,1.55-2.899,2.25-4.6l0.8-2.15c1.366-0.399,2.366,0.067,3,1.4C162.7,173.5,162.434,175.366,161.2,177.6z"/>
	<path style="fill-rule:evenodd;clip-rule:evenodd;fill:#C2C47C;" d="M30.2,49.65c1.633,0,2.233,1.317,1.8,3.95
		c-0.4,2.467-1.283,4.367-2.65,5.7c-1.567,1.567-3.167,2.817-4.8,3.75c-2.533-0.066-4.15-0.283-4.85-0.65l-4.6-2.65
		c3.367-1.6,5.85-2.983,7.45-4.15C24.15,54.433,26.7,52.45,30.2,49.65z"/>
</g>
</svg>
