<?xml version="1.0" encoding="iso-8859-1"?>
<!-- Generator: Adobe Illustrator 15.1.0, SVG Export Plug-In . SVG Version: 6.00 Build 0)  -->
<!DOCTYPE svg PUBLIC "-//W3C//DTD SVG 1.1//EN" "http://www.w3.org/Graphics/SVG/1.1/DTD/svg11.dtd">
<svg version="1.1" id="back_mountains" xmlns="http://www.w3.org/2000/svg" xmlns:xlink="http://www.w3.org/1999/xlink" x="0px"
	 y="0px" width="548px" height="1002px" viewBox="0 0 548 1002" style="enable-background:new 0 0 548 1002;" xml:space="preserve">
<g>
	<path style="fill-rule:evenodd;clip-rule:evenodd;fill:#547368;" d="M531.15,78.75c-11.634,64.833-21.767,128.083-30.4,189.75
		C473.083,465.833,465.5,610.333,478,702c10.134,74.3,24.85,146.6,44.15,216.9c9.633,35.133,18.25,62.833,25.85,83.1L0,978
		c18.433-26.267,40.167-57.467,65.2-93.6C115.267,812.134,156.867,751.333,190,702c37.5-55.833,108.083-189.583,211.75-401.25
		C453.583,194.917,501.667,94.667,546,0C541.934,20.1,536.983,46.35,531.15,78.75z"/>
	<g>
		<path style="fill-rule:evenodd;clip-rule:evenodd;fill:#476159;" d="M463.55,338.1c5.563-6.063,11.029-14.579,16.4-25.55
			c-20.179,44.396-38.512,87.196-55,128.4C394.517,517.184,382.866,558.866,390,566c7.5,7.5,19.417,6.75,35.75-2.25
			c8.167-4.5,15.583-9.75,22.25-15.75l-18.2,39.7c-14.233,31.899-26.666,61.5-37.3,88.8C358.5,763.833,349,811.667,364,820
			s32.5,5.5,52.5-8.5c6.267-4.366,12.4-9.6,18.4-15.7l7.1-7.8l-4.8,17.05c-3.601,13.767-6.334,26.584-8.2,38.45
			c-6,38-2.333,59.5,11,64.5s25.333,5.167,36,0.5c5.333-2.333,9.333-5.167,12-8.5l8,62l24-10l28,50l-38.4-1.65L474,946l-11,22
			l-51-37l-24,15l-31-84l-47,64l-6-77l-56,29l60-102l-53,3l124-143l-4.25,3.15c-3.6,2.5-7.3,4.783-11.1,6.85
			c-12.167,6.667-23.051,10-32.65,10c-9.566,0-7.1-18.833,7.4-56.5c4.5-11.767,9.949-24.717,16.35-38.85L363,543l-5.15,4.1
			c-4.199,3.167-8.233,5.934-12.1,8.301c-12.333,7.5-20.583,9.366-24.75,5.6c-4.167-3.733,12.083-34.85,48.75-93.35
			C388.083,438.383,406.833,409.5,426,381c-3.833,3.167-8.033,5.8-12.6,7.9c-9.167,4.167-15.634,3.533-19.4-1.9
			c-3.267-4.733,4.6-34.8,23.6-90.2c11.567-33.8,25.517-72.066,41.851-114.8C492.983,112.333,521.833,51.667,546,0
			c-21,51.333-41.25,103.917-60.75,157.75C446.25,265.417,430.5,325.5,438,338C444.767,349.3,453.283,349.333,463.55,338.1z"/>
		<path style="fill-rule:evenodd;clip-rule:evenodd;fill:#476159;" d="M500,150l0.15,18.8c-0.134,15.034-0.767,28.85-1.9,41.45
			C494.583,250.583,486.5,271.167,474,272s-11.917-19.25,1.75-60.25C482.583,191.25,490.667,170.667,500,150z"/>
		<path style="fill-rule:evenodd;clip-rule:evenodd;fill:#476159;" d="M452.15,422.2c3.8-6.5,7.083-11.883,9.85-16.15
			c0,0.333-0.3,6.9-0.9,19.7c-0.966,15.033-2.399,28.6-4.3,40.7C450.733,504.917,441.134,522.1,428,518
			c-13.3-4.134-11.634-24.017,5-59.65C438.2,447.217,444.583,435.167,452.15,422.2z"/>
		<path style="fill-rule:evenodd;clip-rule:evenodd;fill:#476159;" d="M405,687.75c5.833-10.934,13.083-22.5,21.75-34.7L438,638
			v21.2c-0.333,16.8-1.333,31.816-3,45.05c-5.333,42.333-16.333,58.917-33,49.75S386.333,722.75,405,687.75z"/>
		<path style="fill-rule:evenodd;clip-rule:evenodd;fill:#476159;" d="M455.75,834.75c2.4-6.967,5.5-14.517,9.3-22.65L470,802
			l1.2,11.8c0.8,9.367,1.149,17.851,1.05,25.45c-0.333,24.333-5.083,35.25-14.25,32.75S448.083,857.083,455.75,834.75z"/>
		<path style="fill-rule:evenodd;clip-rule:evenodd;fill:#3F564E;" d="M413.4,388.9c4.566-2.1,8.767-4.733,12.6-7.9
			c-19.167,28.5-37.917,57.383-56.25,86.65c-36.667,58.5-52.917,89.617-48.75,93.35c4.167,3.767,12.417,1.9,24.75-5.6
			c3.866-2.367,7.9-5.134,12.1-8.301L363,543l-8.25,17.65c-6.4,14.133-11.85,27.083-16.35,38.85c-14.5,37.667-16.967,56.5-7.4,56.5
			c9.6,0,20.483-3.333,32.65-10c3.8-2.066,7.5-4.35,11.1-6.85L379,636L255,779l53-3l-60,102l56-29l6,77l47-64l31,84l24-15l51,37
			l11-22l35.6,54.35L0,978c18.433-26.267,40.167-57.467,65.2-93.6C115.267,812.134,156.867,751.333,190,702
			c25.4-37.8,66.667-112.733,123.8-224.8c41.9-82.133,90.45-180.534,145.65-295.2c-16.334,42.733-30.283,81-41.851,114.8
			c-19,55.4-26.866,85.467-23.6,90.2C397.767,392.433,404.233,393.067,413.4,388.9z"/>
	</g>
</g>
</svg>
