<?xml version="1.0" encoding="iso-8859-1"?>
<!-- Generator: Adobe Illustrator 15.1.0, SVG Export Plug-In . SVG Version: 6.00 Build 0)  -->
<!DOCTYPE svg PUBLIC "-//W3C//DTD SVG 1.1//EN" "http://www.w3.org/Graphics/SVG/1.1/DTD/svg11.dtd">
<svg version="1.1" id="buildings" xmlns="http://www.w3.org/2000/svg" xmlns:xlink="http://www.w3.org/1999/xlink" x="0px" y="0px"
	 width="52.05px" height="124px" viewBox="0 0 52.05 124" style="enable-background:new 0 0 52.05 124;" xml:space="preserve">
<g>
	<g>
		<path style="fill-rule:evenodd;clip-rule:evenodd;fill:#505346;" d="M43.35,25.65c0.934-2.267,1.317-6.3,1.15-12.1l2.55-0.35
			c1.7,0.066,2.45,0.867,2.25,2.4c-0.666,5.433-1.033,8.267-1.1,8.5c-0.9,3.833-2.517,5.8-4.851,5.9l-7.6,0.35
			c-3.1,25.833-4.6,42.417-4.5,49.75c0.1,7.167,1.384,14.9,3.85,23.2c2.101,6.934,4.084,11.634,5.95,14.101
			c1.667,2.1,4.15,3.783,7.45,5.05c-7.4-2.467-11.783-3.167-13.15-2.101c-0.966,0.767-1.666,1.601-2.1,2.5
			c-0.233,0.467-0.366,0.851-0.4,1.15c-0.366-0.733-0.899-1.45-1.6-2.15c-1.366-1.399-2.816-2.05-4.35-1.949
			c-1.534,0.1-3.817,0.699-6.851,1.8c-1.533,0.533-2.917,1.066-4.15,1.6c0.967-0.633,2.017-1.684,3.15-3.149
			c2.233-2.934,3.784-6.45,4.65-10.551c0.867-4.1,1.083-10.583,0.65-19.449l-0.9-12.101L8.6,79.65
			C8.433,72.983,8.45,66.283,8.65,59.55C9.017,46.083,10.067,39.2,11.8,38.9c1.7-0.267,3.4-0.083,5.1,0.55
			c0.833,0.333,1.5,0.683,2,1.05l-2.5,15.3c-1.333,10.334-1.2,15.834,0.4,16.5c1.633,0.667,3.35,0.834,5.15,0.5
			c0.9-0.166,1.633-0.399,2.2-0.7c0.5-4.966,0.967-10.35,1.4-16.149c0.867-11.633,1.167-19.6,0.9-23.9
			c-0.033-0.7-0.833-5.5-2.4-14.4c-0.8-4.733-0.383-7.55,1.25-8.45C27,8.233,29.717,7.833,33.45,8c1.866,0.067,3.566,0.233,5.1,0.5
			l-2.5,19.4C40.184,28.3,42.616,27.55,43.35,25.65z"/>
	</g>
	<g>
		<path style="fill-rule:evenodd;clip-rule:evenodd;fill:#404239;" d="M11.8,38.9c1.1-0.167,2.25-0.133,3.45,0.1l0.05,0.05
			l-1.5,1.55c-1,1.4-1.533,3-1.6,4.8c-0.133,2.833,0.1,12.434,0.7,28.8l13.85,0.5l1.05,17.1c0.767,11.733,1.334,18.384,1.7,19.95
			c0.566,2.533,1.684,6.616,3.35,12.25c-0.366-0.733-0.899-1.45-1.6-2.15c-1.366-1.399-2.816-2.05-4.35-1.949
			c-1.534,0.1-3.817,0.699-6.851,1.8c-1.533,0.533-2.917,1.066-4.15,1.6c0.967-0.633,2.017-1.684,3.15-3.149
			c2.233-2.934,3.784-6.45,4.65-10.551c0.867-4.1,1.083-10.583,0.65-19.449l-0.9-12.101L8.6,79.65
			C8.433,72.983,8.45,66.283,8.65,59.55C9.017,46.083,10.067,39.2,11.8,38.9z"/>
		<path style="fill-rule:evenodd;clip-rule:evenodd;fill:#404239;" d="M26.45,32.05c-0.033-0.7-0.833-5.5-2.4-14.4
			c-0.8-4.733-0.383-7.55,1.25-8.45c1.9-1.067,5.066-1.45,9.5-1.15l0.05,0.1C33.783,7.95,32.733,8.1,31.7,8.6
			c-2.033,1-2.983,3.25-2.851,6.75c0.101,2.8,0.317,8.9,0.65,18.3c0.267,8.6,0.333,14.567,0.2,17.9
			c-0.233,5.267-1.101,12.367-2.601,21.3c-1.2,0.034-2.183-0.216-2.95-0.75c0.5-4.966,0.967-10.35,1.4-16.149
			C26.417,44.317,26.717,36.35,26.45,32.05z"/>
		<path style="fill-rule:evenodd;clip-rule:evenodd;fill:#404239;" d="M45.3,25.15c-0.434,1.067-1.483,1.85-3.149,2.35L39.8,27.9
			v-0.05c1.9-0.3,3.084-1.033,3.55-2.2c0.934-2.267,1.317-6.3,1.15-12.1l0.8-0.2c0.634-0.133,1.217-0.184,1.75-0.15
			C46.517,19.567,45.934,23.55,45.3,25.15z"/>
		<path style="fill-rule:evenodd;clip-rule:evenodd;fill:#404239;" d="M43.6,28.4c1.367-0.233,2.567-0.8,3.601-1.7l0.1,0.15
			c-0.934,2-2.25,3.05-3.95,3.15l-7.6,0.35c-0.7-0.333-1.083-0.75-1.15-1.25l0.051-0.7l3.699,0.15
			C40.983,28.583,42.733,28.533,43.6,28.4z"/>
	</g>
	<path style="fill-rule:evenodd;clip-rule:evenodd;fill:#34362F;" d="M11.9,41.2l-0.55,6.6c-0.367,5-0.6,8.9-0.7,11.7
		C10.483,64,10.6,69.3,11,75.4c1.767,0,3.65,0.017,5.65,0.05c4,0.033,6.567,0.1,7.7,0.2c1.133,0.1,1.667,0.366,1.6,0.8
		c-0.034,0.233-0.184,0.45-0.45,0.649l-15.2,0.95C10.233,77.283,10.05,72.9,9.75,64.9c-0.2-5,0.1-10.45,0.9-16.351L11.9,41.2z"/>
	<path style="fill-rule:evenodd;clip-rule:evenodd;fill:#34362F;" d="M25.15,79.3L26.2,78.4l0.05,9.699
		c0.1,7.301,0.267,13.051,0.5,17.25c0.267,4.2,1.116,8.134,2.55,11.801c0.7,1.833,1.384,3.25,2.05,4.25
		c-0.333-0.434-0.767-0.867-1.3-1.301c-1.1-0.866-2.2-1.316-3.3-1.35c-1.067-0.033-2.55,0.35-4.45,1.15l-2.5,1.25
		c2.3-3.601,3.9-7,4.8-10.2c0.566-2,0.833-7.867,0.8-17.601L25.15,79.3z"/>
	<path style="fill-rule:evenodd;clip-rule:evenodd;fill:#34362F;" d="M28.15,9.4c-0.7,1.333-0.884,3.583-0.551,6.75
		c0.2,1.733,0.534,4.133,1,7.2c0.167,1.767,0.25,6.25,0.25,13.45c0,6.633-0.05,11.034-0.149,13.2
		c-0.066,2.367-1.017,8.967-2.85,19.8c1-17.833,1.534-28.433,1.6-31.8c0.033-2.433-0.15-6.433-0.55-12
		c-0.434-5.433-0.851-9.467-1.25-12.1c-0.333-2.133-0.017-3.533,0.95-4.2C27.1,9.4,27.616,9.3,28.15,9.4z"/>
	<polygon style="fill-rule:evenodd;clip-rule:evenodd;fill:#34362F;" points="45.3,14.2 46.45,13.9 44.5,24.85 	"/>
	<path style="fill-rule:evenodd;clip-rule:evenodd;fill:#44473D;" d="M15.4,56.35c-0.433,4.2-0.95,8.383-1.55,12.55
		c-0.133-4.334-0.184-8.65-0.15-12.95c0.066-8.567,0.533-12.75,1.4-12.55C16.1,43.633,16.2,47.95,15.4,56.35z"/>
	<path style="fill-rule:evenodd;clip-rule:evenodd;fill:#44473D;" d="M31.8,49.1c0.033,0.9-0.35,5.566-1.149,14
		c-0.767,8.367-1.101,13.617-1,15.75c0.1,3,1.1,8.801,3,17.4c1.933,8.833,3.449,14.2,4.55,16.1c1.5,2.667,2.983,5.067,4.45,7.2
		c-1.134-0.399-2.317-0.7-3.551-0.899c-2.433-0.367-3.85,0.05-4.25,1.25c-1.133-4.5-2-9.15-2.6-13.95c-1-7.634-1.65-12.8-1.95-15.5
		c-0.733-7.334-0.934-12.65-0.6-15.95c0.467-4.366,0.899-9.167,1.3-14.4c0.434-5.9,0.65-9.917,0.65-12.05L31,32.85L31.8,49.1z"/>
	<path style="fill-rule:evenodd;clip-rule:evenodd;fill:#44473D;" d="M33.75,10.2c0.833,0.267,1.1,1.95,0.8,5.05
		c-0.033,0.067-0.416,2.583-1.149,7.55c-0.367,2.667-0.7,9.217-1,19.65c-0.867-8.767-1.417-14.7-1.65-17.8
		c-0.267-4.3-0.316-7.45-0.15-9.45C30.934,11.367,31.983,9.7,33.75,10.2z"/>
	<path style="fill-rule:evenodd;clip-rule:evenodd;fill:#636655;" d="M34.45,9.3c1,0,1.666,0.333,2,1
		c0.333,0.633,0.467,1.75,0.399,3.35c-0.1,2.067-1.017,6.267-2.75,12.6c0.9-4.733,1.4-8.75,1.5-12.05
		c0.034-2.034-0.149-3.467-0.55-4.3L34.45,9.3z"/>
	<path style="fill-rule:evenodd;clip-rule:evenodd;fill:#636655;" d="M47.6,15c0.4,0.333,0.567,1.3,0.5,2.9
		c-0.033,1.567-0.283,3.317-0.75,5.25c-0.366,1.567-0.883,2.633-1.55,3.2l-0.85,0.35c0.7-0.767,1.2-1.65,1.5-2.65
		S47.134,20.033,47.6,15z"/>
	<path style="fill-rule:evenodd;clip-rule:evenodd;fill:#636655;" d="M24.15,72.75l2.75,1.4l-6.4-0.101c-1,0-2.467-0.149-4.4-0.45
		l-2.6-0.5l0.45-1.149l1.7,0.6c1.267,0.434,2.233,0.7,2.9,0.8C19.617,73.483,21.483,73.283,24.15,72.75z"/>
	<path style="fill-rule:evenodd;clip-rule:evenodd;fill:#636655;" d="M15.2,40.3c0.433-0.2,0.95-0.117,1.55,0.25
		s0.967,0.85,1.1,1.45c0.167,0.833-0.25,2.85-1.25,6.05c0-1.8-0.033-3.133-0.1-4c-0.067-0.533-0.317-0.966-0.75-1.3
		c-0.167-0.1-0.5-0.267-1-0.5c-0.267-0.167-0.383-0.467-0.35-0.9C14.433,40.883,14.7,40.533,15.2,40.3z"/>
	<g>
		<g>
			<path style="fill-rule:evenodd;clip-rule:evenodd;fill:#9C9C91;" d="M47.5,14.45c1.6-2,3.116-3.733,4.55-5.2
				c-1.2,1.467-2.566,3.333-4.1,5.6L47.5,14.45z"/>
		</g>
	</g>
	<g>
		<g>
			<path style="fill-rule:evenodd;clip-rule:evenodd;fill:#9C9C91;" d="M45,28.25c1.134,1.2,2.533,2.133,4.2,2.8
				c-1.733-0.533-3.267-1.367-4.601-2.5L45,28.25z"/>
		</g>
	</g>
	<g>
		<g>
			<path style="fill-rule:evenodd;clip-rule:evenodd;fill:#9C9C91;" d="M44.8,21.8c-0.767-1.1-1.733-2-2.899-2.7
				c1.267,0.6,2.333,1.433,3.199,2.5L44.8,21.8z"/>
		</g>
	</g>
	<g>
		<g>
			<path style="fill-rule:evenodd;clip-rule:evenodd;fill:#9C9C91;" d="M34.9,11.2c0.566-0.8,1.899-2.65,4-5.55
				C40.533,3.383,41.816,1.5,42.75,0c-0.8,1.567-1.934,3.567-3.4,6c-1.8,3-2.949,4.967-3.449,5.9L34.9,11.2z"/>
		</g>
	</g>
	<g>
		<g>
			<path style="fill-rule:evenodd;clip-rule:evenodd;fill:#9C9C91;" d="M26.45,16.15c-1.4-0.367-4.6-1.417-9.6-3.15
				c5.367,1.3,8.65,2.05,9.85,2.25L26.45,16.15z"/>
		</g>
	</g>
	<g>
		<g>
			<path style="fill-rule:evenodd;clip-rule:evenodd;fill:#9C9C91;" d="M28.1,26.7c-2.6,1.133-5.167,1.95-7.7,2.45
				c2.667-0.767,5.133-1.816,7.4-3.15L28.1,26.7z"/>
		</g>
	</g>
	<g>
		<g>
			<path style="fill-rule:evenodd;clip-rule:evenodd;fill:#9C9C91;" d="M15.75,46.7c2.867-1.934,5.583-3.417,8.15-4.45
				c-2.5,1.267-5.066,3-7.7,5.2L15.75,46.7z"/>
		</g>
	</g>
	<g>
		<g>
			<path style="fill-rule:evenodd;clip-rule:evenodd;fill:#9C9C91;" d="M11.25,40.95c-0.533-1.833-0.7-3.617-0.5-5.35
				c-0.033,1.767,0.3,3.517,1,5.25L11.25,40.95z"/>
		</g>
	</g>
	<g>
		<g>
			<path style="fill-rule:evenodd;clip-rule:evenodd;fill:#9C9C91;" d="M10.7,63.55C7.533,63.283,3.967,63.066,0,62.9
				c3.2-0.167,6.817-0.284,10.85-0.351L10.7,63.55z"/>
		</g>
	</g>
	<g>
		<g>
			<polygon style="fill-rule:evenodd;clip-rule:evenodd;fill:#9C9C91;" points="12.15,78.3 9.4,81.35 11.9,78.05 			"/>
		</g>
	</g>
	<g>
		<g>
			<path style="fill-rule:evenodd;clip-rule:evenodd;fill:#9C9C91;" d="M30.9,61c2.533-1.567,5.116-2.9,7.75-4
				c-2.534,1.367-4.983,2.917-7.351,4.65L30.9,61z"/>
		</g>
	</g>
</g>
</svg>
