<?xml version="1.0" encoding="iso-8859-1"?>
<!-- Generator: Adobe Illustrator 15.1.0, SVG Export Plug-In . SVG Version: 6.00 Build 0)  -->
<!DOCTYPE svg PUBLIC "-//W3C//DTD SVG 1.1//EN" "http://www.w3.org/Graphics/SVG/1.1/DTD/svg11.dtd">
<svg version="1.1" id="Isolation_Mode" xmlns="http://www.w3.org/2000/svg" xmlns:xlink="http://www.w3.org/1999/xlink" x="0px"
	 y="0px" width="100.05px" height="114.8px" viewBox="0 0 100.05 114.8" style="enable-background:new 0 0 100.05 114.8;"
	 xml:space="preserve">
<g>
	<path style="fill-rule:evenodd;clip-rule:evenodd;fill:#386F5F;" d="M84.2,15.25c-7.566-0.133-11.9,1.05-13,3.55
		c-0.533,1.167-1.05,4.25-1.55,9.25c-0.867,8.8-1.417,14.083-1.65,15.85c-1.967,15.466-5.35,26.667-10.15,33.6
		c-5,7.2-14.917,15.583-29.75,25.15c-7.4,4.767-14.317,8.816-20.75,12.149c-1.8-0.666-3.417-1.7-4.85-3.1
		c-2.833-2.767-3.267-5.95-1.3-9.55c5.9-1.434,12.367-3.867,19.4-7.301C34.7,87.95,44.667,79.5,50.5,69.5
		c3.066-5.267,4.884-11.6,5.45-19c0.3-3.833,0.217-10.133-0.25-18.9c-0.434-7.4-0.283-12.684,0.45-15.85
		c1.066-4.733,3.633-7.933,7.699-9.6c7.5-3.066,14.983-4.983,22.45-5.75C90,0,92.967-0.083,95.2,0.15c0.866,4,1.533,6.883,2,8.65
		c0.267,1.133,0.017,2.7-0.75,4.7c-0.4,1-0.816,1.883-1.25,2.65C91.634,15.583,87.967,15.283,84.2,15.25z"/>
	<g>
		<path style="fill-rule:evenodd;clip-rule:evenodd;fill:#315E51;" d="M86.25,12.25c3.4-0.033,6.917,0.05,10.55,0.25
			c-0.434,1.3-0.967,2.517-1.6,3.65c-3.566-0.566-7.233-0.867-11-0.9c-7.566-0.133-11.9,1.05-13,3.55
			c-0.233,0.5-0.417,1.133-0.55,1.9c0.1-3.4,1.583-5.767,4.449-7.1C76.934,12.767,80.65,12.317,86.25,12.25z"/>
		<path style="fill-rule:evenodd;clip-rule:evenodd;fill:#315E51;" d="M62.35,8.55c0.992,0.128,2.517-0.13,4.575-0.775
			C65.74,8.18,64.682,8.755,63.75,9.5c-1.767,1.3-2.833,2.95-3.2,4.95c-0.133,0.833-0.333,7.716-0.6,20.65
			c-0.267,11.933-0.983,19.467-2.15,22.6c-1.633,4.3-3.85,8.566-6.649,12.8c-3.333,4.967-6.684,8.5-10.05,10.6
			c3.9-3.666,7.033-7.533,9.4-11.6c3.066-5.267,4.884-11.6,5.45-19c0.3-3.833,0.217-10.133-0.25-18.9
			c-0.434-7.4-0.283-12.684,0.45-15.85c1.066-4.733,3.633-7.933,7.699-9.6L65.2,5.6C62.5,7.467,61.55,8.45,62.35,8.55z"/>
		<path style="fill-rule:evenodd;clip-rule:evenodd;fill:#315E51;" d="M60.05,70.55l-0.1,1.15c-0.033,0.866,0,1.583,0.1,2.149
			c-0.767,1.434-1.5,2.65-2.2,3.65c-5,7.2-14.917,15.583-29.75,25.15c-7.4,4.767-14.317,8.816-20.75,12.149
			c-0.7-0.267-1.5-0.666-2.4-1.2c-1.733-1.066-3.034-2.3-3.9-3.699c4-1.467,8.517-3.267,13.55-5.4
			c7.633-3.233,13.783-6.184,18.45-8.85c5.9-3.367,11.034-6.801,15.4-10.301c3.866-3.133,6.483-5.783,7.85-7.949
			c1.033-1.667,1.967-3.301,2.8-4.9L60.05,70.55z"/>
	</g>
	<path style="fill-rule:evenodd;clip-rule:evenodd;fill:#294B40;" d="M44.55,89.65l-5.4,4.3c-3.967,3.066-6.833,5.133-8.6,6.2
		c-2.833,1.767-10.417,6.316-22.75,13.649l-1.6-1c-0.167-0.1-0.55-0.5-1.15-1.2l-0.85-1.05c9.333-3.934,16.25-6.899,20.75-8.899
		S35.983,95.65,44.55,89.65z"/>
	<path style="fill-rule:evenodd;clip-rule:evenodd;fill:#294B40;" d="M95.8,13.05l-1.6,1.85l-9.65-0.75
		c-1.066-0.033-3.033,0.083-5.899,0.35l-3.95,0.4l3.45-0.95c2.6-0.633,4.733-0.983,6.399-1.05
		C87.217,12.833,90.967,12.883,95.8,13.05z"/>
	<path style="fill-rule:evenodd;clip-rule:evenodd;fill:#294B40;" d="M59.45,10.65l1.1,0.4c-1,2.633-1.616,4.833-1.85,6.6
		c-0.267,1.833-0.3,6.033-0.101,12.6c0.101,3.433,0.25,7.617,0.45,12.55c0.101,2.9-0.983,7.9-3.25,15
		c0.767-6.433,1.233-10.816,1.4-13.15c0.1-1.267-0.017-5.033-0.351-11.3c-0.366-6.934-0.55-11.117-0.55-12.55
		c0-2.133,0.533-4.466,1.601-7C58.4,12.533,58.917,11.483,59.45,10.65z"/>
	<path style="fill-rule:evenodd;clip-rule:evenodd;fill:#538171;" d="M95.2,0.15c2.6,0,4.184,2.5,4.75,7.5
		C100.217,9.95,99.9,12,99,13.8c-0.9,1.767-2,2.55-3.3,2.35c-1.233-0.167-2.267-1.2-3.101-3.1C91.833,11.383,91.4,9.5,91.3,7.4
		c-0.066-1.533,0.3-3.1,1.101-4.7C93.233,1,94.167,0.15,95.2,0.15z"/>
	
		<linearGradient id="SVGID_1_" gradientUnits="userSpaceOnUse" x1="-99.2993" y1="-5.625" x2="-94.0228" y2="-5.625" gradientTransform="matrix(-0.9997 -0.0237 0.0237 -0.9997 -2.741069e-005 -5.928315e-004)">
		<stop  offset="0" style="stop-color:#893342"/>
		<stop  offset="1" style="stop-color:#2D1D1E"/>
	</linearGradient>
	<path style="fill-rule:evenodd;clip-rule:evenodd;fill:url(#SVGID_1_);" d="M95.45,1.4c1.133,0.067,2.05,0.9,2.75,2.5
		c0.566,1.333,0.85,2.75,0.85,4.25s-0.2,2.867-0.6,4.1c-0.467,1.5-1.101,2.217-1.9,2.15c-0.866-0.033-1.684-0.75-2.45-2.15
		C93.333,10.917,92.95,9.6,92.95,8.3c0-1.767,0.149-3.233,0.45-4.4C93.833,2.2,94.517,1.367,95.45,1.4z"/>
	<path style="fill-rule:evenodd;clip-rule:evenodd;fill:#538171;" d="M91.3,1.15C90.733,1.517,90.4,2.133,90.3,3
		c-0.066,0.433-0.066,0.817,0,1.15c-0.533-0.167-1.3-0.3-2.3-0.4c-1.967-0.233-4.066-0.217-6.3,0.05
		c-2.233,0.267-4.934,0.684-8.101,1.25L69.55,5.8l2-1.1c1.867-0.867,4.117-1.583,6.75-2.15C82.566,1.617,86.9,1.15,91.3,1.15z"/>
	<path style="fill-rule:evenodd;clip-rule:evenodd;fill:#538171;" d="M64.8,24.05L65.4,24.7c0.5,0.5,1.017,0.9,1.55,1.2
		c0.533,0.3,0.983-0.5,1.35-2.4l0.4-2.95c-0.5,12.9-1.05,21.15-1.65,24.75c-0.566,3.567-2.35,9.317-5.35,17.25
		c1.166-5.267,2.116-10.1,2.85-14.5C65.316,43.617,65.4,35.617,64.8,24.05z"/>
</g>
</svg>
