<?xml version="1.0" encoding="iso-8859-1"?>
<!-- Generator: Adobe Illustrator 15.1.0, SVG Export Plug-In . SVG Version: 6.00 Build 0)  -->
<!DOCTYPE svg PUBLIC "-//W3C//DTD SVG 1.1//EN" "http://www.w3.org/Graphics/SVG/1.1/DTD/svg11.dtd">
<svg version="1.1" id="Isolation_Mode" xmlns="http://www.w3.org/2000/svg" xmlns:xlink="http://www.w3.org/1999/xlink" x="0px"
	 y="0px" width="315.5px" height="238.35px" viewBox="0 0 315.5 238.35" style="enable-background:new 0 0 315.5 238.35;"
	 xml:space="preserve">
<g>
	<polygon style="fill-rule:evenodd;clip-rule:evenodd;fill:#9EAEAB;" points="104.75,63.95 134.35,38.05 115.9,62.5 	"/>
	<polygon style="fill-rule:evenodd;clip-rule:evenodd;fill:#9EAEAB;" points="48.7,111.75 48.55,55.65 56.75,101.6 	"/>
	<polygon style="fill-rule:evenodd;clip-rule:evenodd;fill:#758784;" points="61.25,112.2 64.15,85.85 67.5,109.45 	"/>
	<polygon style="fill-rule:evenodd;clip-rule:evenodd;fill:#9EAEAB;" points="67.5,109.45 92.55,145.25 84.05,157.05 61.25,112.2 	
		"/>
	<polygon style="fill-rule:evenodd;clip-rule:evenodd;fill:#AFBBB8;" points="98.55,46.75 54.4,35.15 98.95,37.25 	"/>
	<polygon style="fill-rule:evenodd;clip-rule:evenodd;fill:#AFBBB8;" points="89.55,0 115.7,38.3 104.75,39.3 	"/>
	<polygon style="fill-rule:evenodd;clip-rule:evenodd;fill:#758784;" points="117.8,184.05 106.9,185.45 111.25,156.1 121.95,153 	
		"/>
	<polygon style="fill-rule:evenodd;clip-rule:evenodd;fill:#758784;" points="114.15,152.9 122.55,153.75 116.9,188.9 104.15,186.4 
			"/>
	<polygon style="fill-rule:evenodd;clip-rule:evenodd;fill:#9EAEAB;" points="104.95,144.65 110.15,144.25 122.55,153.75 
		116.55,155.8 101.65,153.75 	"/>
	<polygon style="fill-rule:evenodd;clip-rule:evenodd;fill:#9EAEAB;" points="130.2,195.5 109.05,183.45 131.85,184.75 	"/>
	<polygon style="fill-rule:evenodd;clip-rule:evenodd;fill:#758784;" points="131.85,184.75 142,229.05 115.15,230.9 122.75,186.85 
			"/>
	<polygon style="fill-rule:evenodd;clip-rule:evenodd;fill:#AFBBB8;" points="0.75,59.55 29.85,69.95 27.4,78.65 	"/>
	<polygon style="fill-rule:evenodd;clip-rule:evenodd;fill:#AFBBB8;" points="25.15,52.7 45.8,77.6 40,85.25 	"/>
	<polygon style="fill-rule:evenodd;clip-rule:evenodd;fill:#AFBBB8;" points="31.95,177.6 53.85,170.7 64.4,178.75 35.85,184.95 	
		"/>
	
		<linearGradient id="SVGID_1_" gradientUnits="userSpaceOnUse" x1="232.3857" y1="205.3545" x2="275.8817" y2="205.3545" gradientTransform="matrix(0.984 -0.1782 0.1782 0.984 -2.381206e-004 1.237243e-004)">
		<stop  offset="0" style="stop-color:#B9C2C0"/>
		<stop  offset="1" style="stop-color:#CCD4D4"/>
	</linearGradient>
	<path style="fill-rule:evenodd;clip-rule:evenodd;fill:url(#SVGID_1_);" d="M316.15,120l-6.601,8.8l-5.149,33.65l8.899,2.95
		l-5.05,10.25c-3.566,7.8-5.816,14.133-6.75,19c-0.9,4.866-1.167,10.6-0.8,17.199c0.166,3.301,0.434,6.101,0.8,8.4l-34.75,18.1
		c-6.4-2.399-10.45-9.633-12.15-21.699c-1.466-10.301-1.199-23.733,0.801-40.301c1.533-12.5,3.933-27.75,7.199-45.75l4.5-23.25
		l9.551-7.4l18.649,14.9l-1.85-37.25L316.15,120z"/>
	<g>
		<polygon style="fill-rule:evenodd;clip-rule:evenodd;fill:#9EAEAB;" points="300.6,210.15 290.4,214.1 289.95,226.3 
			288.05,227.25 288.5,214.85 264.25,224.25 263.95,222.4 300.55,208.2 		"/>
		<polygon style="fill-rule:evenodd;clip-rule:evenodd;fill:#9EAEAB;" points="268.45,169.7 269.1,167.55 305.15,157.7 
			304.85,159.7 292.85,162.9 291.4,191 304.6,184.3 303.65,186.85 291.85,192.8 262.25,198.8 262.35,196.8 289.5,191.4 
			290.95,163.4 		"/>
		<polygon style="fill-rule:evenodd;clip-rule:evenodd;fill:#9EAEAB;" points="302.85,95.2 303.75,96.85 294.55,99.75 294.45,97.85 
					"/>
		<polygon style="fill-rule:evenodd;clip-rule:evenodd;fill:#9EAEAB;" points="294.05,137 294.1,136.95 291.35,111.7 293.4,113.35 
			295.9,136.6 308.7,134.2 308.45,136.15 294.2,138.85 271.4,139.75 272.05,137.9 		"/>
		<polygon style="fill-rule:evenodd;clip-rule:evenodd;fill:#9EAEAB;" points="281.55,103.85 267.6,108.25 267.1,107.3 269,105.85 
			279.8,102.45 		"/>
	</g>
	<polygon style="fill-rule:evenodd;clip-rule:evenodd;fill:#758784;" points="115.9,62.5 107.65,109.45 97.9,113.4 108.05,62.45 	
		"/>
	<polygon style="fill-rule:evenodd;clip-rule:evenodd;fill:#778583;" points="238.2,131.6 249.35,140.9 255.25,227.15 
		228.55,234.95 218.35,230.3 219.9,218.5 232.9,224.05 228.9,206.7 231.8,196.35 244.7,192.4 233.85,172.25 229.7,166.55 
		233.2,160.15 243.35,159.75 231.35,131.8 	"/>
	<polygon style="fill-rule:evenodd;clip-rule:evenodd;fill:#AFBBB8;" points="272.75,132.3 276.85,124.9 297.75,124.15 	"/>
	<polygon style="fill-rule:evenodd;clip-rule:evenodd;fill:#D9DEDD;" points="266.2,143.2 306.75,146.5 275.9,149.3 	"/>
	
		<linearGradient id="SVGID_2_" gradientUnits="userSpaceOnUse" x1="-283.0625" y1="-121.7305" x2="-29.8612" y2="-121.7305" gradientTransform="matrix(-0.9999 0.0144 -0.0144 -0.9999 5.097687e-005 3.015790e-004)">
		<stop  offset="0" style="stop-color:#9EAEAB"/>
		<stop  offset="1" style="stop-color:#81908E"/>
	</linearGradient>
	<path style="fill-rule:evenodd;clip-rule:evenodd;fill:url(#SVGID_2_);" d="M231.55,131.8l11.15,7.75l24.399-32.2l9.75,17.55
		l-6.8,18.55l5.851,5.85l-6.851,18.4c-4.566,13.833-6.85,24.6-6.85,32.3c0,7.733,0.767,16.45,2.3,26.15
		c0.733,4.833,1.483,8.899,2.25,12.199l-238.35-3.1l3.55-57.65l15.6-1l1.95-41.949l-16.55-2.9L22.2,92.7L0.75,59.55l24.4,14.6V52.7
		l14.6,29.25l8.8-26.3l1.95,49.75l13.65-19.55l-2.9,26.35l25.35,37.1L71,76.1l11.7-0.95l-28.3-40L91.5,41L89.55,0l18.5,36.1
		l26.3,1.95l-26.3,24.4l-4.85,44.9l15.6-10.75l-13.65,47.8l11.4,11.399l-7.5,27.65l13.7,3.399l-2.5,37.2l21.75,5l20.7,1.2l16.6-4.85
		L194.9,229.3l12.25-8.95l21.75,11.15l0.199-24.6l7.851-12l-7.25-27.95l11.399-6.8L231.55,131.8z"/>
	<polygon style="fill-rule:evenodd;clip-rule:evenodd;fill:#D9DEDD;" points="313.3,165.4 269.2,178.15 304.4,162.45 	"/>
	<polygon style="fill-rule:evenodd;clip-rule:evenodd;fill:#758784;" points="105.15,144.4 118.8,96.6 110.15,144.4 	"/>
	<polygon style="fill-rule:evenodd;clip-rule:evenodd;fill:#D9DEDD;" points="273.2,118.2 297.75,124.15 276.85,124.9 	"/>
	<polygon style="fill-rule:evenodd;clip-rule:evenodd;fill:#AFBBB8;" points="316.25,120.25 309.55,128.5 294.05,131.15 	"/>
	<g>
		<polygon style="fill-rule:evenodd;clip-rule:evenodd;fill:#6C7C79;" points="230.95,166.2 233.85,164.45 248.55,165.4 
			249.4,139.4 242.9,139.3 244.3,137.45 272.05,137.95 271.35,139.75 251.3,139.4 250.4,165.6 269,167.65 268.4,169.65 
			244.1,166.75 		"/>
		<path style="fill-rule:evenodd;clip-rule:evenodd;fill:#6C7C79;" d="M107.65,196.5l-68-1.1l-0.25,25l40.3-0.25l27.95,0.3V196.5z
			 M37.8,195.4l-6.95-0.051L31,193.5l40.95,0.4l-0.6-28.5l-23.2-0.7l0.05-1.851L85,163.95l22.65-2.3L108,147.3l1.85,1.8l-0.35,12.4
			l5.65-0.6l-0.5,1.949l-29.55,3l-11.9-0.399l0.6,28.45l48.4,0.949l-0.1,1.9l-12.6-0.2v23.95l11,0.1l-0.15,1.851l-47.5-0.4
			l-0.4,13.75H70.6l0.4-13.75l-41.8,0.25l0.1-1.85l8.2-0.05L37.8,195.4z"/>
		<polygon style="fill-rule:evenodd;clip-rule:evenodd;fill:#6C7C79;" points="247.9,196.6 262.35,196.85 262.25,198.75 
			247.95,198.45 248.2,223.35 263.95,222.4 264.15,224.25 244.55,225.4 228.95,225 228.95,223.15 244.5,223.55 246.35,223.45 
			246.05,198.4 234.75,198.25 235.95,196.4 247.9,196.55 		"/>
		<polygon style="fill-rule:evenodd;clip-rule:evenodd;fill:#6C7C79;" points="71.45,127.1 72.6,128.85 36.4,132.35 32.95,131.75 
			32.7,130.8 32.95,130.8 		"/>
		<polygon style="fill-rule:evenodd;clip-rule:evenodd;fill:#6C7C79;" points="62.5,100.7 62.3,102.6 51.5,103.95 52.95,101.9 		"/>
		<polygon style="fill-rule:evenodd;clip-rule:evenodd;fill:#6C7C79;" points="108.55,126.3 104.55,125.8 82.05,127.95 
			81.65,126.15 104.55,123.95 104.65,123.95 110.8,124.65 108.4,133.05 		"/>
		<polygon style="fill-rule:evenodd;clip-rule:evenodd;fill:#6C7C79;" points="239.6,137.4 242.35,139.25 234.05,139.15 
			233.4,137.25 		"/>
		<polygon style="fill-rule:evenodd;clip-rule:evenodd;fill:#6C7C79;" points="54.4,35.15 72.45,38 55.25,36.3 		"/>
		<polygon style="fill-rule:evenodd;clip-rule:evenodd;fill:#6C7C79;" points="211.8,222.75 215.6,224.7 201.7,224.35 
			204.15,222.55 		"/>
		<polygon style="fill-rule:evenodd;clip-rule:evenodd;fill:#6C7C79;" points="267.5,108.05 267.55,108.2 266.65,107.9 
			267.1,107.35 		"/>
		<polygon style="fill-rule:evenodd;clip-rule:evenodd;fill:#6C7C79;" points="107.55,67.4 107.3,69.3 100.85,69.85 101.4,95.75 
			104.1,95.4 104.5,95.4 104.3,97.25 104.25,97.25 76.25,100.8 75.85,99 99.55,96 98.95,69.9 78.55,69.3 77.25,67.4 77.8,67.4 
			75.5,38.45 77.35,38.75 79.65,67.5 99.6,68.1 		"/>
		<polygon style="fill-rule:evenodd;clip-rule:evenodd;fill:#6C7C79;" points="31.95,67.9 25.15,67.7 25.15,65.85 31.8,66.05 
			33.95,70.3 35.3,104.15 50.4,102.25 50.45,104.1 26.2,107.2 25.7,105.35 33.45,104.4 		"/>
		<polygon style="fill-rule:evenodd;clip-rule:evenodd;fill:#6C7C79;" points="99.6,19.65 101.35,23.05 100.85,38.85 107.6,39.5 
			119.45,36.95 125.95,37.45 107.7,41.4 107.55,41.4 91.4,39.8 91.35,37.95 99,38.7 		"/>
		<polygon style="fill-rule:evenodd;clip-rule:evenodd;fill:#6C7C79;" points="49,66.55 49.05,68.4 44.35,68.25 44.95,66.45 		"/>
		<polygon style="fill-rule:evenodd;clip-rule:evenodd;fill:#6C7C79;" points="10.5,65.4 13.8,67.35 5.65,67.1 4.4,65.2 		"/>
	</g>
	<g>
		<path style="fill-rule:evenodd;clip-rule:evenodd;fill:#8B7C53;" d="M75,94.9c1.133,0.533,1.95,1.367,2.45,2.5
			c0.233,0.6,0.367,1.133,0.4,1.6l3.35-2.55c2.833-1.467,5.8-1.55,8.9-0.25c3.1,1.3,4.683,3.55,4.75,6.75
			c0.033,1.633-0.25,3.117-0.85,4.45l2.75,0.95c1.967,1,3.367,2.433,4.2,4.3c0.767,1.667,1.1,4.35,1,8.05
			c-0.034,1.833-0.15,3.5-0.35,5l3.05,1.05c2.167,1.066,3.617,2.467,4.35,4.2l-2.75,9.5c-1.5,1.666-3.1,3-4.8,4l1.1,2.899
			c0.333,2.334-0.4,4.434-2.2,6.301c-1.7,1.767-4.067,2.517-7.1,2.25L89.2,155l-3.1,2.1c-2.567,1.4-5,2.101-7.3,2.101
			c-2.333,0-4.383-1.45-6.15-4.351l-1.95-4.35c-0.967,0.1-2.034,0.066-3.2-0.1c-2.367-0.334-4.033-1.117-5-2.351
			c-1.7-2.133-2.483-5.033-2.35-8.7l0.65-4.8c-1.367-0.3-2.716-0.899-4.05-1.8c-2.633-1.733-3.817-4.033-3.55-6.9
			c0.267-2.833,1.25-4.916,2.95-6.25l2.45-1.2c-0.9-0.566-1.667-1.417-2.3-2.55c-1.3-2.267-1.3-4.833,0-7.7
			c1.267-2.833,3.25-4.517,5.95-5.05l-1,9.1l1.15,1.75c-2.533,8.5-2.017,16.666,1.55,24.5c4.133,9.033,11.25,13.783,21.35,14.25
			c6,0.3,10.35-2.101,13.05-7.2c2.467-4.566,3.15-10.267,2.05-17.1c-1.1-6.834-3.667-12.717-7.7-17.65c-4.5-5.5-9.9-8.467-16.2-8.9
			L75,94.9z"/>
		<path style="fill-rule:evenodd;clip-rule:evenodd;fill:#628F94;" d="M63.95,138.45c-3.567-7.834-4.083-16-1.55-24.5l4.85,7.05
			c-1.267,6.333-0.667,11.884,1.8,16.65c2.9,5.6,7.7,8.133,14.4,7.6l0.35-0.05l2.8,4.1l-0.9-4.35c4.733-0.867,7.9-3.101,9.5-6.7
			c1.433-3.2,1.483-7,0.15-11.4c-1.267-4.233-3.467-7.983-6.6-11.25c-3.3-3.467-6.85-5.533-10.65-6.2l-1.6-7.55
			c6.3,0.433,11.7,3.4,16.2,8.9c4.033,4.933,6.6,10.816,7.7,17.65c1.1,6.833,0.417,12.533-2.05,17.1c-2.7,5.1-7.05,7.5-13.05,7.2
			C75.2,152.233,68.083,147.483,63.95,138.45z"/>
		<path style="fill-rule:evenodd;clip-rule:evenodd;fill:#495352;" d="M69.05,137.65c-2.466-4.767-3.066-10.317-1.8-16.65
			l16.55,24.2l-0.35,0.05C76.75,145.783,71.95,143.25,69.05,137.65z"/>
		<path style="fill-rule:evenodd;clip-rule:evenodd;fill:#495352;" d="M79.15,114.45l-1.05-5.05c3.8,0.667,7.35,2.733,10.65,6.2
			c3.133,3.267,5.333,7.016,6.6,11.25c1.333,4.4,1.283,8.2-0.15,11.4c-1.6,3.6-4.767,5.833-9.5,6.7l-6.55-30.45
			c0.633,0.433,1.517,1.2,2.65,2.3c1.633,1.567,2.934,3.117,3.9,4.65c1.033,1.633,1.8,3.233,2.3,4.8c0.233,0.8,0.367,1.417,0.4,1.85
			l2.7-3.149c-0.9-1.533-2.067-3.117-3.5-4.75C84.733,116.9,81.917,114.983,79.15,114.45z"/>
		<path style="fill-rule:evenodd;clip-rule:evenodd;fill:#758784;" d="M79.15,114.5v-0.05c2.767,0.533,5.583,2.45,8.45,5.75
			c1.433,1.633,2.6,3.217,3.5,4.75l-2.7,3.149c-0.033-0.433-0.167-1.05-0.4-1.85c-0.5-1.566-1.267-3.167-2.3-4.8
			c-0.967-1.534-2.267-3.083-3.9-4.65C80.667,115.7,79.783,114.933,79.15,114.5z"/>
	</g>
</g>
</svg>
