<?xml version="1.0" encoding="iso-8859-1"?>
<!-- Generator: Adobe Illustrator 15.1.0, SVG Export Plug-In . SVG Version: 6.00 Build 0)  -->
<!DOCTYPE svg PUBLIC "-//W3C//DTD SVG 1.1//EN" "http://www.w3.org/Graphics/SVG/1.1/DTD/svg11.dtd">
<svg version="1.1" id="buildings" xmlns="http://www.w3.org/2000/svg" xmlns:xlink="http://www.w3.org/1999/xlink" x="0px" y="0px"
	 width="114.6px" height="24.25px" viewBox="0 0 114.6 24.25" style="enable-background:new 0 0 114.6 24.25;" xml:space="preserve"
	>
<g>
	<path style="fill-rule:evenodd;clip-rule:evenodd;fill:#768D7C;" d="M84.75,19.05c-18.267,4.167-32.967,5.834-44.1,5
		c-11.1-0.833-21.2-2.633-30.3-5.399C5.783,17.25,2.333,15.934,0,14.7l1.35-3.35C5.117,12.683,10,13.934,16,15.1
		c12,2.334,23.55,3.084,34.65,2.25c11.133-0.833,24.383-3.333,39.75-7.5c7.699-2.067,14.283-4.067,19.75-6l-1.301,8.65
		C101.95,14.767,93.917,16.95,84.75,19.05z"/>
	<path style="fill-rule:evenodd;clip-rule:evenodd;fill:#859F8C;" d="M91.05,10.1c-14.899,4.3-27.717,6.766-38.45,7.4
		c-13.767,0.8-26.434,0.017-38-2.35c-5.8-1.167-10.217-2.434-13.25-3.8l1.5-1.85c4.133,0.933,9.183,1.8,15.15,2.6
		c11.9,1.567,22.433,1.95,31.6,1.15c11.067-0.933,25.216-3.417,42.45-7.45c8.634-2.033,16.15-3.966,22.55-5.8l-4.449,3.85
		C104.85,5.883,98.483,7.967,91.05,10.1z"/>
	<polygon style="fill-rule:evenodd;clip-rule:evenodd;fill:#4F726D;" points="114.6,0 113.35,9 108.85,12.5 109.35,4.25 	"/>
</g>
</svg>
