<?xml version="1.0" encoding="iso-8859-1"?>
<!-- Generator: Adobe Illustrator 15.1.0, SVG Export Plug-In . SVG Version: 6.00 Build 0)  -->
<!DOCTYPE svg PUBLIC "-//W3C//DTD SVG 1.1//EN" "http://www.w3.org/Graphics/SVG/1.1/DTD/svg11.dtd">
<svg version="1.1" id="ground" xmlns="http://www.w3.org/2000/svg" xmlns:xlink="http://www.w3.org/1999/xlink" x="0px" y="0px"
	 width="250px" height="125px" viewBox="0 0 250 125" style="enable-background:new 0 0 250 125;" xml:space="preserve">
<g>
	<rect style="fill-rule:evenodd;clip-rule:evenodd;fill:#7F5257;" width="250" height="125"/>
	<g>
		<g>
			<path style="fill-rule:evenodd;clip-rule:evenodd;fill:#70424A;" d="M26.15,79.5c6.033,0.267,11.483-0.65,16.35-2.75
				c-1.967,1.5-4.35,2.884-7.15,4.15c-5.6,2.5-10.367,3.233-14.3,2.199C16.75,82.033,14.067,80.4,13,78.2
				c-0.933-1.934-0.433-3.617,1.5-5.05c1.467-1.067,3.7-1.667,6.7-1.801c1.5-0.066,2.85-0.033,4.05,0.101
				c-2.033,0.233-3.95,0.616-5.75,1.149c-3.633,1.067-4.9,2.334-3.8,3.801C17.067,78.2,20.55,79.233,26.15,79.5z"/>
		</g>
	</g>
	<g>
		<g>
			<path style="fill-rule:evenodd;clip-rule:evenodd;fill:#70424A;" d="M184.4,87.2c7.666-0.667,14.616-2.634,20.85-5.9
				c-2.4,2.167-5.316,4.267-8.75,6.3c-6.866,4.067-12.884,5.801-18.05,5.2c-5.733-0.633-9.483-2.267-11.25-4.899
				c-1.533-2.334-1.184-4.617,1.05-6.851c1.667-1.633,4.434-2.8,8.3-3.5c1.934-0.333,3.684-0.517,5.25-0.55
				c-2.566,0.667-4.967,1.5-7.2,2.5c-4.466,2-5.866,3.85-4.199,5.55C172.467,87.116,177.134,87.833,184.4,87.2z"/>
		</g>
	</g>
	<g>
		<g>
			<path style="fill-rule:evenodd;clip-rule:evenodd;fill:#70424A;" d="M230.65,17.1c-5.267,2.7-9.733,3.816-13.4,3.35
				c-4.2-0.5-6.95-1.733-8.25-3.7c-1.167-1.733-0.917-3.417,0.75-5.05c1.267-1.267,3.35-2.133,6.25-2.6c1.467-0.233,2.8-0.333,4-0.3
				c-1.967,0.434-3.783,1.017-5.45,1.75c-3.399,1.467-4.467,2.833-3.2,4.1c1.534,1.467,4.983,2.05,10.351,1.75
				c5.533-0.3,10.8-1.467,15.8-3.5C235.566,14.333,233.283,15.733,230.65,17.1z"/>
		</g>
	</g>
	<g>
		<g>
			<path style="fill-rule:evenodd;clip-rule:evenodd;fill:#70424A;" d="M7.3,17.6c0.434,0.633,1.55,0.933,3.35,0.9
				c1.767-0.033,3.517-0.35,5.25-0.95c-0.667,0.467-1.433,0.9-2.3,1.3c-1.767,0.833-3.283,1.133-4.55,0.9
				c-1.5-0.333-2.383-0.867-2.65-1.6C6.133,17.517,6.333,17,7,16.6c0.7-0.5,1.783-0.7,3.25-0.6c-0.633,0.1-1.217,0.25-1.75,0.45
				C7.4,16.783,7,17.167,7.3,17.6z"/>
		</g>
	</g>
	<g>
		<g>
			<path style="fill-rule:evenodd;clip-rule:evenodd;fill:#70424A;" d="M117.45,53.15c0.733,1.233,2.8,1.767,6.2,1.6
				c3.567-0.2,6.683-1.15,9.35-2.85c-1,1.033-2.267,2.033-3.8,3c-3.066,1.934-5.883,2.667-8.45,2.2c-2.733-0.633-4.4-1.6-5-2.9
				c-0.5-1.133-0.133-2.117,1.1-2.95c0.833-0.567,2.083-0.917,3.75-1.05c0.8-0.067,1.533-0.1,2.2-0.1
				c-1.1,0.233-2.167,0.517-3.2,0.85C117.6,51.583,116.883,52.317,117.45,53.15z"/>
		</g>
	</g>
	<g>
		<g>
			<path style="fill-rule:evenodd;clip-rule:evenodd;fill:#70424A;" d="M192.65,13.55c-1,1.034-2.267,2.034-3.801,3
				c-3.066,1.934-5.866,2.667-8.399,2.2c-2.767-0.6-4.434-1.567-5-2.9c-0.5-1.133-0.15-2.117,1.05-2.95
				c0.833-0.566,2.083-0.917,3.75-1.05c0.8-0.067,1.533-0.083,2.2-0.05c-1.101,0.2-2.15,0.467-3.15,0.8c-2,0.667-2.733,1.4-2.2,2.2
				c0.767,1.233,2.851,1.767,6.25,1.6C186.884,16.233,189.983,15.283,192.65,13.55z"/>
		</g>
	</g>
	<g>
		<g>
			<path style="fill-rule:evenodd;clip-rule:evenodd;fill:#70424A;" d="M146.25,113.9c-3.967,1.866-7.434,2.316-10.4,1.35
				c-3.133-1.066-4.983-2.417-5.55-4.05c-0.467-1.467,0.066-2.617,1.601-3.45c1.066-0.6,2.633-0.866,4.699-0.8
				c1,0,1.9,0.066,2.7,0.2c-1.366,0.1-2.684,0.283-3.95,0.55c-2.533,0.533-3.517,1.333-2.949,2.399c0.767,1.567,3.199,2.5,7.3,2.801
				c4.366,0.333,8.217-0.367,11.55-2.101C149.917,111.934,148.25,112.967,146.25,113.9z"/>
		</g>
	</g>
	<g>
		<g>
			<path style="fill-rule:evenodd;clip-rule:evenodd;fill:#70424A;" d="M88.9,94.2c-0.367-1.2,0.117-2.15,1.45-2.851
				c0.933-0.433,2.2-0.649,3.8-0.649c0.767,0,1.467,0.017,2.1,0.05c-1.067,0.167-2.1,0.384-3.1,0.65
				c-2.033,0.466-2.833,1.116-2.4,1.949c0.5,1.5,2.567,2.217,6.2,2.15c3.867-0.1,6.85-1.283,8.95-3.55
				c-0.733,1.233-1.85,2.399-3.35,3.5c-2.966,2.267-5.9,3.017-8.8,2.25C90.95,96.8,89.333,95.634,88.9,94.2z"/>
		</g>
	</g>
	<g>
		<g>
			<path style="fill-rule:evenodd;clip-rule:evenodd;fill:#70424A;" d="M171.75,55.65c0.934-0.167-0.017,0.717-2.85,2.65
				c-2.5,1.667-4.834,2.2-7,1.6c-2.2-0.667-3.5-1.55-3.9-2.65c-0.333-0.933,0-1.717,1-2.35c0.733-0.4,1.783-0.617,3.15-0.65
				c0.666,0,1.25,0.017,1.75,0.05c-0.9,0.133-1.767,0.3-2.601,0.5c-1.666,0.434-2.3,1-1.899,1.7c0.5,1.1,2.183,1.633,5.05,1.6
				C167.483,58.1,169.917,57.283,171.75,55.65z"/>
		</g>
	</g>
	<g>
		<g>
			<path style="fill-rule:evenodd;clip-rule:evenodd;fill:#70424A;" d="M16.1,39.8c3.066,0,5.517-0.833,7.35-2.5
				c0.133-0.033-0.1,0.25-0.7,0.85c-0.633,0.667-1.35,1.267-2.15,1.8c-2.5,1.667-4.85,2.2-7.05,1.6c-2.2-0.633-3.5-1.517-3.9-2.65
				c-0.333-0.967,0.017-1.75,1.05-2.35c0.733-0.4,1.767-0.6,3.1-0.6c0.667,0,1.25,0.017,1.75,0.05c-0.9,0.133-1.767,0.3-2.6,0.5
				c-1.633,0.433-2.25,0.983-1.85,1.65C11.6,39.25,13.267,39.8,16.1,39.8z"/>
		</g>
	</g>
	<g>
		<g>
			<path style="fill-rule:evenodd;clip-rule:evenodd;fill:#70424A;" d="M115.1,17.1c3.066,0,5.517-0.817,7.35-2.45
				c0.933-0.167-0.017,0.717-2.85,2.65c-2.5,1.667-4.85,2.2-7.05,1.6c-2.2-0.667-3.5-1.55-3.9-2.65
				c-0.333-0.967,0.017-1.75,1.05-2.35c0.733-0.4,1.767-0.617,3.1-0.65c0.667,0,1.25,0.017,1.75,0.05c-0.9,0.133-1.767,0.3-2.6,0.5
				c-1.633,0.434-2.25,1-1.85,1.7C110.6,16.6,112.267,17.133,115.1,17.1z"/>
		</g>
	</g>
	<g>
		<g>
			<path style="fill-rule:evenodd;clip-rule:evenodd;fill:#70424A;" d="M215.5,37.2c0.967-0.5,2.316-0.534,4.05-0.1
				c-0.767,0-1.5,0.05-2.2,0.15c-1.366,0.233-1.899,0.633-1.6,1.2c0.4,0.767,1.65,1.316,3.75,1.65c2.066,0.333,4.184,0.333,6.35,0
				c-0.866,0.367-1.866,0.7-3,1c-2.199,0.6-4,0.65-5.399,0.15c-1.601-0.633-2.55-1.383-2.851-2.25
				C214.366,38.233,214.667,37.633,215.5,37.2z"/>
		</g>
	</g>
	<g>
		<g>
			<path style="fill-rule:evenodd;clip-rule:evenodd;fill:#70424A;" d="M242.4,71.1c-4.867-0.199-10.017-0.433-15.45-0.699
				c-10.9-0.534-17.617-1.567-20.15-3.101c-2.633-2-1.149-4,4.45-6c1.833-0.667,3.9-1.25,6.2-1.75c1.752-0.379,2.752-0.546,3-0.5
				c-1.287,0.208-2.688,0.608-4.2,1.2c-3.1,1.167-5.283,2.683-6.55,4.55c-0.667,0.967,0.666,1.767,4,2.4
				c1.6,0.333,5.434,0.833,11.5,1.5C230.9,69.3,236.634,70.1,242.4,71.1z"/>
		</g>
	</g>
	<g>
		<g>
			<path style="fill-rule:evenodd;clip-rule:evenodd;fill:#70424A;" d="M229.7,105.75c-0.767-0.033-1.65,0-2.65,0.1
				c-2,0.233-3.566,0.767-4.7,1.601c-1.267,1.066,1.733,2.684,9,4.85c3.806,1.148,6.646,1.948,8.525,2.4
				c-11.604-1.417-18.196-3.533-19.775-6.351c-1.066-1.666,0.217-2.6,3.851-2.8C225.783,105.483,227.7,105.55,229.7,105.75z"/>
		</g>
	</g>
	<g>
		<g>
			<path style="fill-rule:evenodd;clip-rule:evenodd;fill:#70424A;" d="M162.4,40.25c3.557,0.064,7.065,0.331,10.524,0.8
				c-1.062-0.044-4.17,0.039-9.325,0.25c-7.033,0.267-11.399,0.083-13.1-0.55c-1.9-1.1-1.1-2.517,2.4-4.25
				c3.666-1.833,5.6-2.55,5.8-2.15c-0.834,0.233-1.717,0.6-2.65,1.1c-1.934,1-3.217,2.15-3.85,3.45
				c-0.334,0.667,0.566,1.083,2.7,1.25C155.767,40.217,158.267,40.25,162.4,40.25z"/>
		</g>
	</g>
	<g>
		<g>
			<path style="fill-rule:evenodd;clip-rule:evenodd;fill:#70424A;" d="M85.55,57.4c5.534,0.867,8.35,1.233,8.45,1.1
				c-0.067,0.133-2.5,0.05-7.3-0.25c-5.6-0.367-11.1-0.9-16.5-1.6c-16.367-2.066-26.1-4.9-29.2-8.5c-3.2-3.533-0.583-6.066,7.85-7.6
				c4.233-0.767,8.767-1.183,13.6-1.25c-1.833,0.067-3.9,0.367-6.2,0.9c-4.633,1.1-8.1,2.8-10.4,5.1c-2.4,2.4,4.883,5.35,21.85,8.85
				C73.333,55.35,79.283,56.433,85.55,57.4z"/>
		</g>
	</g>
	<g>
		<g>
			<path style="fill-rule:evenodd;clip-rule:evenodd;fill:#70424A;" d="M45.3,101.7c-0.7,0.1-1.483,0.3-2.35,0.6
				c-1.733,0.601-2.967,1.417-3.7,2.45c-0.633,0.733,2.2,1.533,8.5,2.4c6.4,0.899,9.6,1.366,9.6,1.399
				c-2.733-0.133-5.6-0.316-8.6-0.55c-6.033-0.4-9.733-1.033-11.1-1.9c-1.467-1.166-0.633-2.267,2.5-3.3
				C43.45,101.7,45.167,101.333,45.3,101.7z"/>
		</g>
	</g>
	<g>
		<g>
			<path style="fill-rule:evenodd;clip-rule:evenodd;fill:#70424A;" d="M54.8,11.65c-0.633,0.1-1.35,0.267-2.15,0.5
				c-1.566,0.533-2.733,1.233-3.5,2.1c-0.733,0.9,1.917,1.733,7.95,2.5c3,0.4,6.083,0.7,9.25,0.9c-2.633,0.1-5.4,0.067-8.3-0.1
				c-5.8-0.3-9.3-1.017-10.5-2.15c-1.233-1.133-0.4-2.1,2.5-2.9C51.517,12.1,53.1,11.817,54.8,11.65z"/>
		</g>
	</g>
</g>
</svg>
