<?xml version="1.0" encoding="iso-8859-1"?>
<!-- Generator: Adobe Illustrator 15.1.0, SVG Export Plug-In . SVG Version: 6.00 Build 0)  -->
<!DOCTYPE svg PUBLIC "-//W3C//DTD SVG 1.1//EN" "http://www.w3.org/Graphics/SVG/1.1/DTD/svg11.dtd">
<svg version="1.1" id="Isolation_Mode" xmlns="http://www.w3.org/2000/svg" xmlns:xlink="http://www.w3.org/1999/xlink" x="0px"
	 y="0px" width="102.55px" height="139.55px" viewBox="0 0 102.55 139.55" style="enable-background:new 0 0 102.55 139.55;"
	 xml:space="preserve">
<g>
	<path style="fill-rule:evenodd;clip-rule:evenodd;fill:#DEDFA2;" d="M81.65,1.1c2.966,0.133,5.85,1.316,8.649,3.55
		c2.767,2.2,4.217,4.85,4.351,7.95c0.1,1.566-0.101,2.9-0.601,4c-4.733,4-9.55,8.783-14.45,14.35
		c-9.833,11.133-15.166,20.583-16,28.35C62.767,67.067,67.9,74.566,79,81.8c5.566,3.601,11.2,6.434,16.9,8.5
		c-9.167,1.667-14.65,5.367-16.45,11.101c-0.934,2.833-0.934,5.517,0,8.05c-5.533-2.9-11.367-5.566-17.5-8
		c-12.267-4.834-19.934-6-23-3.5c-2.6,2.133-6.083,9.3-10.45,21.5c-4.267,11.866-7.133,18.2-8.6,19
		c-2.833,1.5-6.683,1.45-11.55-0.15c-4.633-1.5-7.333-3.25-8.1-5.25c-0.867-2.233,0.4-7.416,3.8-15.55
		c3.367-8.1,7.883-16.833,13.55-26.2c4.733-7.767,11.816-12.1,21.25-13c4.733-0.434,8.983-0.1,12.75,1
		c-0.766-0.666-1.516-2.217-2.25-4.649c-1.434-4.9-2.017-11.8-1.75-20.7c0.3-8.867,5.466-20.267,15.5-34.2
		c5-6.933,9.983-13,14.95-18.2L81.65,1.1z"/>
	<g>
		<path style="fill-rule:evenodd;clip-rule:evenodd;fill:#BDBF71;" d="M63.1,19.75c5-6.933,9.983-13,14.95-18.2l0.601-0.2
			c0.533-0.133,1.1-0.217,1.699-0.25l0.801,9.2c-4.067,3.934-8.217,8.7-12.45,14.3c-8.4,11.267-12.917,21.167-13.55,29.7
			c-0.634,8.534-0.317,16.05,0.949,22.55c0.634,3.267,1.317,5.667,2.051,7.2c-1.467-0.8-4.051-2.483-7.75-5.05l1.2,0.3
			c-0.766-0.666-1.516-2.217-2.25-4.649c-1.434-4.9-2.017-11.8-1.75-20.7C47.9,45.083,53.066,33.683,63.1,19.75z"/>
		<path style="fill-rule:evenodd;clip-rule:evenodd;fill:#BDBF71;" d="M35.9,78.7c-2.467,1.033-4.75,2.616-6.85,4.75
			c-2.933,2.967-5.316,6.833-7.15,11.6c-3.367,8.7-7.816,23.15-13.35,43.351c-2.066-0.667-3.867-1.483-5.4-2.45
			c-1.6-1-2.566-1.967-2.9-2.9c-0.867-2.233,0.4-7.416,3.8-15.55c3.367-8.1,7.883-16.833,13.55-26.2C21.8,84.4,27.9,80.2,35.9,78.7z
			"/>
		<path style="fill-rule:evenodd;clip-rule:evenodd;fill:#BDBF71;" d="M50.15,91.8c4.734-0.1,10.966,1.45,18.7,4.65
			c7,2.899,10.434,4.684,10.301,5.35c-0.5,2.3-1.334,4.367-2.5,6.2c-7.233-3.566-13.767-6.35-19.601-8.35
			c-9.466-3.233-15.5-3.801-18.1-1.7c-1.061,0.899-2.21,2.433-3.45,4.6c0.976-2.646,2.159-4.712,3.55-6.2
			C41.75,93.417,45.45,91.9,50.15,91.8z"/>
	</g>
	<path style="fill-rule:evenodd;clip-rule:evenodd;fill:#ECECCB;" d="M84,0.2c2.7,0.533,5.333,1.85,7.9,3.95
		c2.666,2.133,4.283,4.3,4.85,6.5c0.667,2.567-0.283,4.583-2.85,6.05c-4.9,2.833-9.301,1.65-13.2-3.55c-1.5-2-2.55-4.133-3.15-6.4
		c-0.566-2.2-0.533-3.767,0.101-4.7C78.917,0.25,81.033-0.367,84,0.2z"/>
	
		<linearGradient id="SVGID_1_" gradientUnits="userSpaceOnUse" x1="-50.9204" y1="-73.7822" x2="-42.0643" y2="-73.7822" gradientTransform="matrix(-0.6126 0.7904 -0.7904 -0.6126 3.848076e-004 -6.377697e-006)">
		<stop  offset="0" style="stop-color:#893342"/>
		<stop  offset="1" style="stop-color:#2D1D1E"/>
	</linearGradient>
	<path style="fill-rule:evenodd;clip-rule:evenodd;fill:url(#SVGID_1_);" d="M81.05,1.7c1.167-0.534,2.767-0.317,4.8,0.65
		c1.9,0.867,3.667,2.133,5.301,3.8c1.699,1.733,2.733,3.383,3.1,4.95c0.366,1.8-0.25,3.15-1.85,4.05
		c-3.233,1.767-6.517,0.25-9.851-4.55c-1.333-1.9-2.166-3.717-2.5-5.45C79.684,3.317,80.017,2.167,81.05,1.7z"/>
	<path style="fill-rule:evenodd;clip-rule:evenodd;fill:#A2A550;" d="M87.45,86.25c3.333-0.267,6.566,0.3,9.7,1.7
		c2.399,1.1,3.85,3.184,4.35,6.25c0.5,3.033-0.116,6.017-1.85,8.95c-2.767,4.566-5.667,8.05-8.7,10.449
		c-4.601,3.667-8.867,4.117-12.8,1.351c-4.2-2.934-6.25-6.834-6.15-11.7c0.066-4.267,1.616-8.134,4.65-11.6
		C79.483,88.35,83.083,86.55,87.45,86.25z"/>
	<g>
		<path style="fill-rule:evenodd;clip-rule:evenodd;fill:#8E9344;" d="M72.9,98.15h0.05l0.6,2.55c0.5,1.666,1.033,2.366,1.601,2.1
			c0.399-0.2,1.433-1.25,3.1-3.149c1.7-2,2.934-3.233,3.7-3.7c0.767-0.434,1.5,1.816,2.2,6.75c0.699,4.899,0.966,9.533,0.8,13.899
			c-2.4,0.434-4.667-0.116-6.8-1.649c-3-2.101-4.917-4.733-5.75-7.9C71.667,104.25,71.833,101.283,72.9,98.15z"/>
	</g>
	<path style="fill-rule:evenodd;clip-rule:evenodd;fill:#C2C47C;" d="M83.45,94.65c2.8-2.634,5.399-4.483,7.8-5.551
		c2.733-1.199,5.033-1.3,6.9-0.3c3.733,2.033,5.1,5.45,4.1,10.25c-0.767,3.566-2.366,6.816-4.8,9.75s-5.217,5.217-8.351,6.851
		c-4.3,2.233-7.733,2.116-10.3-0.351c-2.366-2.3-3-5.6-1.899-9.899C77.934,101.366,80.116,97.783,83.45,94.65z"/>
	
		<linearGradient id="SVGID_2_" gradientUnits="userSpaceOnUse" x1="-144.2725" y1="-11.9365" x2="-128.7495" y2="-11.9365" gradientTransform="matrix(-0.7183 -0.6957 0.6957 -0.7183 -3.606677e-004 -4.382730e-004)">
		<stop  offset="0" style="stop-color:#893342"/>
		<stop  offset="1" style="stop-color:#2D1D1E"/>
	</linearGradient>
	<path style="fill-rule:evenodd;clip-rule:evenodd;fill:url(#SVGID_2_);" d="M85.15,96.8c1.767-1.767,3.649-3.116,5.649-4.05
		c2.601-1.233,4.767-1.384,6.5-0.45c2.134,1.2,2.917,3.566,2.351,7.101c-0.567,3.3-1.967,6.149-4.2,8.55
		c-2.434,2.633-5.05,4.566-7.851,5.8c-3.333,1.434-5.767,1.233-7.3-0.6c-1.533-1.834-1.616-4.584-0.25-8.25
		C81.217,101.733,82.917,99.033,85.15,96.8z"/>
	<path style="fill-rule:evenodd;clip-rule:evenodd;fill:#A9AC5D;" d="M75.15,6.8l0.75,4c-3.233,3.333-6.634,7.317-10.2,11.95
		c-7.134,9.3-11.483,17.233-13.05,23.8c-1.567,6.567-2.083,13.617-1.551,21.15c0.196,2.464,0.446,4.646,0.75,6.55
		c-0.447-2.306-0.848-4.856-1.2-7.65c-1-7.967-1.083-14.4-0.25-19.3c0.833-4.9,5.216-13.117,13.15-24.65
		C67.483,16.883,71.35,11.6,75.15,6.8z"/>
	<path style="fill-rule:evenodd;clip-rule:evenodd;fill:#A9AC5D;" d="M23.1,88.45c-3.033,4.133-5.434,8.333-7.2,12.6
		s-3.967,11.334-6.6,21.2c-1.3,4.967-2.433,9.483-3.4,13.55c-0.5-0.066-1.033-0.25-1.6-0.55c-1.167-0.6-1.966-1.417-2.4-2.45
		c0.267-1.533,0.717-3.55,1.35-6.05c1.3-4.934,2.933-9.75,4.9-14.45c3.467-8.166,7.633-15.916,12.5-23.25
		c0.833-1.233,2.167-2.517,4-3.85l2.5-1.65L23.1,88.45z"/>
	<path style="fill-rule:evenodd;clip-rule:evenodd;fill:#A9AC5D;" d="M56.9,98.3l-14-3l2.85-0.5c2.467-0.233,5.1-0.149,7.9,0.25
		c4.5,0.667,10.333,2.417,17.5,5.25c-0.5,1.334-0.667,2.5-0.5,3.5c-1-0.633-2.317-1.333-3.95-2.1
		C63.4,100.167,60.134,99.033,56.9,98.3z"/>
	<path style="fill-rule:evenodd;clip-rule:evenodd;fill:#ECECCB;" d="M85.1,19.65c1.101,0.267,2.117,0.367,3.051,0.3
		c-1.601,1.3-3.483,2.966-5.65,5c-4.333,4.1-7.85,8.05-10.55,11.85c-4.233,5.967-7.033,10.617-8.4,13.95
		c-2.267,5.467-3.066,11.433-2.399,17.9c0.633,6.034,4.033,10.734,10.199,14.1c2.553,1.372,5.062,2.339,7.525,2.9
		c-0.735-0.075-1.544-0.075-2.425,0c-0.967,0.066-1.717,0.416-2.25,1.05c-0.267,0.333-0.45,0.649-0.55,0.95
		c-1.7-0.801-3.517-1.817-5.45-3.051c-3.867-2.399-6.384-4.616-7.55-6.649c-1.567-2.634-2.5-6.733-2.801-12.3
		c-0.333-6.167,0.317-11.95,1.95-17.35c1.467-4.8,5.434-11.517,11.9-20.15c3.233-4.3,6.316-8.133,9.25-11.5
		C81.583,18.183,82.967,19.183,85.1,19.65z"/>
	<path style="fill-rule:evenodd;clip-rule:evenodd;fill:#ECECCB;" d="M47.3,82.45c-2.5,1.033-2.8,2.35-0.9,3.95
		c0.934,0.8,2.117,1.483,3.55,2.05c-1.9-0.7-4.017-1.134-6.35-1.3c-4.633-0.4-7.95,0.649-9.95,3.149
		c-2.033,2.5-5.533,10.783-10.5,24.851c-2.467,7-4.75,13.767-6.85,20.3c1.767-6.9,3.733-14.084,5.9-21.55
		c4.367-14.934,7.617-23.75,9.75-26.45c2.167-2.7,5.383-4.351,9.65-4.95C43.7,82.233,45.6,82.217,47.3,82.45z"/>
	<path style="fill-rule:evenodd;clip-rule:evenodd;fill:#696D37;" d="M73.15,103.65c0.1,0.866,1.199,0.866,3.3,0l-0.55,0.699
		c-0.367,0.667-0.617,1.483-0.75,2.45c-0.233,1.566,0.149,3.517,1.149,5.851c-1-1.467-1.883-2.917-2.649-4.351
		c-0.5-0.899-0.733-1.95-0.7-3.149L73.15,103.65z"/>
	<path style="fill-rule:evenodd;clip-rule:evenodd;fill:#C2C47C;" d="M85.95,86.95c1.899-0.434,3.967-0.434,6.2,0l-3.5,1.85
		c-0.601,0.3-1.867,1.316-3.801,3.05c-1.733,1.5-2.966,2.317-3.699,2.45c-1.134,0.2-1.917-0.166-2.351-1.1
		c-0.467-0.967-0.083-1.983,1.15-3.05C81.75,88.583,83.75,87.517,85.95,86.95z"/>
</g>
</svg>
