<?xml version="1.0" encoding="iso-8859-1"?>
<!-- Generator: Adobe Illustrator 15.1.0, SVG Export Plug-In . SVG Version: 6.00 Build 0)  -->
<!DOCTYPE svg PUBLIC "-//W3C//DTD SVG 1.1//EN" "http://www.w3.org/Graphics/SVG/1.1/DTD/svg11.dtd">
<svg version="1.1" id="buildings" xmlns="http://www.w3.org/2000/svg" xmlns:xlink="http://www.w3.org/1999/xlink" x="0px" y="0px"
	 width="92.55px" height="226.65px" viewBox="0 0 92.55 226.65" style="enable-background:new 0 0 92.55 226.65;"
	 xml:space="preserve">
<g>
	<path style="fill-rule:evenodd;clip-rule:evenodd;fill:#B4BEBC;" d="M65.25,35.1c-7.167,8.667-10.134,17.167-8.9,25.5
		c0.101,0.566,1.7,9.533,4.801,26.9c2.866,15.967,5.1,29.8,6.699,41.5c5.101,37.467,4.934,61-0.5,70.6
		c-5.399,9.601-17.017,16.983-34.85,22.15c-8.933,2.566-17.317,4.184-25.15,4.85c-1.3,0.233-2.567-0.199-3.8-1.3
		c-2.533-2.166-3.716-6.517-3.55-13.05c0.133-5.267,1.233-9.283,3.3-12.05c0.667-0.9,1.367-1.601,2.1-2.101l0.95-0.5
		c4.333,1.667,9.383,2.134,15.15,1.4c11.5-1.5,20.783-8.3,27.85-20.4c6.801-11.6,7.801-33.133,3-64.6
		c-0.333-2.167-2.366-13.767-6.1-34.8c-2.133-12.034-3.1-20.233-2.9-24.6c0.433-9.167,3.567-19.083,9.4-29.75
		c2.9-5.333,5.767-9.75,8.6-13.25l15,13C72.517,27.267,68.816,30.767,65.25,35.1z"/>
	<g>
		<path style="fill-rule:evenodd;clip-rule:evenodd;fill:#899495;" d="M49.55,31.15c2.566-5.633,5.65-11,9.25-16.1l3.55,11.55
			c-2.733,1-5.283,3.383-7.649,7.15C50,41.317,48.55,52.033,50.35,65.9c1.233,9.533,3.317,22.083,6.25,37.65
			c2.301,12.367,3.884,23.816,4.75,34.351c1.034,12.899-1.133,24.483-6.5,34.75c-3.966,7.533-9.133,13.616-15.5,18.25l-0.2,0.149
			c3.767-3.2,7.167-7.35,10.2-12.45c6.801-11.6,7.801-33.133,3-64.6c-0.333-2.167-2.366-13.767-6.1-34.8
			c-2.133-12.034-3.1-20.233-2.9-24.6C43.683,47.333,45.75,39.517,49.55,31.15z"/>
		<path style="fill-rule:evenodd;clip-rule:evenodd;fill:#899495;" d="M68.35,190.6c1-0.133,1.817-1.267,2.45-3.399
			c-0.666,5.3-1.816,9.434-3.45,12.399c-5.399,9.601-17.017,16.983-34.85,22.15c-8.933,2.566-17.317,4.184-25.15,4.85
			c-1.233,0.2-2.45-0.183-3.65-1.149c-2.467-2-3.7-6-3.7-12c10.033-0.533,19.367-1.334,28-2.4c13.567-1.666,22.233-3.717,26-6.149
			c4.3-2.767,7.7-7.767,10.2-15c0.767-2.233,1.416-4.584,1.95-7.051l0.5-2.949l-0.15,5.5C66.6,189,67.217,190.733,68.35,190.6z"/>
	</g>
	<g>
		<path style="fill-rule:evenodd;clip-rule:evenodd;fill:#586A69;" d="M50.1,29.95c2.667-5.6,5.817-10.934,9.45-16
			c0.834,2.4,0.983,4.716,0.45,6.95c-2.167,2-4.35,4.867-6.55,8.6c-4.4,7.467-6.667,15.5-6.8,24.1c-0.101,7.733,1.733,22.5,5.5,44.3
			c3.966,23.034,6.033,36.484,6.199,40.35c0.4,9.967-0.183,18.434-1.75,25.4c-2.233,10.133-6.566,17.783-13,22.949
			c1.967-2.233,3.883-4.899,5.75-8c6.801-11.6,7.801-33.133,3-64.6c-0.333-2.167-2.366-13.767-6.1-34.8
			c-2.133-12.034-3.1-20.233-2.9-24.6C43.683,46.967,45.933,38.75,50.1,29.95z"/>
		<path style="fill-rule:evenodd;clip-rule:evenodd;fill:#586A69;" d="M67.75,198.8l-0.4,0.8
			c-5.399,9.601-17.017,16.983-34.85,22.15c-8.933,2.566-17.317,4.184-25.15,4.85c-0.967,0.167-2-0.083-3.1-0.75
			c-2.167-1.333-3.517-4.083-4.05-8.25c12.5-0.3,25.216-1.416,38.15-3.35c9.167-1.4,16.466-4.934,21.9-10.6
			c1.7-1.767,3.116-3.634,4.25-5.601l1.15-2.45C66.017,197.1,66.717,198.167,67.75,198.8z"/>
	</g>
	<path style="fill-rule:evenodd;clip-rule:evenodd;fill:#B4BEBC;" d="M92.1,22.65c-1.166,2.467-2.716,4.9-4.649,7.3
		c-3.834,4.767-7.617,6.917-11.351,6.45c-4.767-0.566-9.866-3.733-15.3-9.5c-5.6-6-7.75-11.1-6.45-15.3
		c1.134-3.7,3.317-6.633,6.551-8.8c1.6-1.1,3.083-1.833,4.449-2.2L92.1,22.65z"/>
	<g>
		<path style="fill-rule:evenodd;clip-rule:evenodd;fill:#586A69;" d="M64.85,13.5c-1.366,3.533-1.6,6.783-0.699,9.75
			c1.233,3.967,2.517,6.7,3.85,8.2c1.7,1.933,4.483,3.25,8.35,3.95c1.067,0.2,2.4,0.083,4-0.35c0.801-0.233,1.767-0.533,2.9-0.9
			c-2.5,1.8-4.884,2.55-7.15,2.25c-4.767-0.566-9.866-3.733-15.3-9.5c-5.6-6-7.75-11.1-6.45-15.3c1.134-3.7,3.317-6.633,6.551-8.8
			c1.6-1.1,3.083-1.833,4.449-2.2L67.4,2.3c-0.034,2.367-0.117,4.633-0.25,6.8C66.283,10.267,65.517,11.733,64.85,13.5z"/>
	</g>
	<path style="fill-rule:evenodd;clip-rule:evenodd;fill:#CBD1D0;" d="M83.75,8.2c3.667,3.066,6.233,5.966,7.7,8.7
		c1.633,3.133,1.434,5.467-0.601,7c-2.033,1.5-4.816,1.367-8.35-0.4c-3.066-1.567-6.25-4.083-9.55-7.55
		C69.884,12.717,67.566,9.6,66,6.6c-1.634-3.167-1.85-5.167-0.65-6c1.5-1.033,4.117-0.733,7.851,0.9
		C76.667,3,80.184,5.233,83.75,8.2z"/>
	<linearGradient id="SVGID_1_" gradientUnits="userSpaceOnUse" x1="68.0146" y1="11.9727" x2="90.7896" y2="11.9727">
		<stop  offset="0" style="stop-color:#893342"/>
		<stop  offset="1" style="stop-color:#2D1D1E"/>
	</linearGradient>
	<path style="fill-rule:evenodd;clip-rule:evenodd;fill:url(#SVGID_1_);" d="M82.7,9.75c7.333,6.2,9.8,10.083,7.399,11.65
		c-1.199,0.767-3.25,0.417-6.149-1.05c-2.667-1.367-5.434-3.3-8.3-5.8c-2.934-2.566-5.067-4.95-6.4-7.15c-1.5-2.433-1.634-4.1-0.4-5
		c0.867-0.6,2.717-0.117,5.551,1.45C77,5.283,79.767,7.25,82.7,9.75z"/>
	<path style="fill-rule:evenodd;clip-rule:evenodd;fill:#CBD1D0;" d="M85.65,26.95c1.233,0.066,2.35,0,3.35-0.2
		c-1.767,2.233-3.65,3.95-5.65,5.15c-1.233,0.767-2.85,1.033-4.85,0.8l-2.65-0.6l4.5-7.2C81.45,26.167,83.217,26.85,85.65,26.95z"/>
	<path style="fill-rule:evenodd;clip-rule:evenodd;fill:#CBD1D0;" d="M53.35,63.25l5.4,24.7c3.767,17.733,6.066,29.717,6.9,35.95
		c1.366,10.133,2.433,19.783,3.199,28.949c1,11.967,1.051,18.767,0.15,20.4s-1.9-3.283-3-14.75c-0.9-9.434-1.566-19.184-2-29.25
		c-0.267-6.533-2.116-19.483-5.55-38.85L53.35,63.25z"/>
	<path style="fill-rule:evenodd;clip-rule:evenodd;fill:#CBD1D0;" d="M41.35,197.5c2.267-1.033,4.15-2,5.65-2.9l-2.3,3.45
		c-2.567,2.601-6.35,4.667-11.35,6.2s-11,2.6-18,3.2c-3.5,0.3-6.5,0.45-9,0.45C6.117,207.033,6,206.15,6,205.25
		c0-0.566,0.283-1.35,0.85-2.35l0.8-1.301c1.967,0.267,4.3,0.467,7,0.601c5.467,0.3,10.133,0.1,14-0.601
		C32.55,200.9,36.783,199.533,41.35,197.5z"/>
</g>
</svg>
