<?xml version="1.0" encoding="iso-8859-1"?>
<!-- Generator: Adobe Illustrator 15.1.0, SVG Export Plug-In . SVG Version: 6.00 Build 0)  -->
<!DOCTYPE svg PUBLIC "-//W3C//DTD SVG 1.1//EN" "http://www.w3.org/Graphics/SVG/1.1/DTD/svg11.dtd">
<svg version="1.1" id="buildings" xmlns="http://www.w3.org/2000/svg" xmlns:xlink="http://www.w3.org/1999/xlink" x="0px" y="0px"
	 width="99.35px" height="165.65px" viewBox="0 0 99.35 165.65" style="enable-background:new 0 0 99.35 165.65;"
	 xml:space="preserve">
<g>
	<path style="fill-rule:evenodd;clip-rule:evenodd;fill:#DEDFA2;" d="M7.6,0.2c4.233-0.733,6.433,0.35,6.6,3.25
		c2.933,42.8,8.433,63,16.5,60.6c8.733-2.6,15.233-4.333,19.5-5.2c7.333-1.467,13.033-1.7,17.1-0.7
		c6.667,1.633,13.483,19.05,20.45,52.25c3.467,16.566,6.267,32.983,8.4,49.25c-1.534,1.333-3.384,2.366-5.551,3.1
		c-4.366,1.5-8.183,0.733-11.449-2.3C77.783,147.517,76,134.267,73.8,120.7C69.4,93.5,65.134,78.233,61,74.9
		c-2.134-1.733-5.483-2.133-10.05-1.2c-1.533,0.3-5.967,1.633-13.3,4c-5.667,1.833-10.066,2.733-13.2,2.7
		c-4.434-0.033-7.717-1.717-9.85-5.05C11.4,70.383,7.95,58.1,4.25,38.5C0.65,19.533-0.667,8.333,0.3,4.9C1,2.467,3.433,0.9,7.6,0.2z
		"/>
	<g>
		<path style="fill-rule:evenodd;clip-rule:evenodd;fill:#BDBF71;" d="M0.3,4.9C0.7,3.533,1.933,2.35,4,1.35
			C4.967,8.75,6.083,16.4,7.35,24.3c2.1,13.233,4.017,23.167,5.75,29.8c2.433,9.433,4.117,15.083,5.05,16.95
			c1.267,2.567,3.5,4.083,6.7,4.55c2.767,0.4,7.5-0.317,14.2-2.15c3.567-0.967,8-2.25,13.3-3.85c3.867-0.867,7.434-0.717,10.7,0.45
			c4.601,1.7,7.617,5.3,9.05,10.8c2.167,8.333,6.917,34.25,14.25,77.75c-2.066,0.434-4.483,0.867-7.25,1.301
			c-1.566-14.367-3.5-28.45-5.8-42.25C69.066,92.35,64.967,78.1,61,74.9c-2.134-1.733-5.483-2.133-10.05-1.2
			c-1.533,0.3-5.967,1.633-13.3,4c-5.667,1.833-10.066,2.733-13.2,2.7c-4.434-0.033-7.717-1.717-9.85-5.05
			C11.4,70.383,7.95,58.1,4.25,38.5C0.65,19.533-0.667,8.333,0.3,4.9z"/>
	</g>
	<path style="fill-rule:evenodd;clip-rule:evenodd;fill:#A2A550;" d="M78.35,153.85l2.051,0.65c1.933,0.366,4.25,0.4,6.949,0.1
		c2.7-0.3,4.801-0.85,6.301-1.649c0.767-0.4,1.25-0.767,1.449-1.101l1.25,1.301c0.934,1.1,1.601,2.166,2,3.199
		c0.667,1.667,1,3.334,1,5c-0.8,0.567-1.833,1.167-3.1,1.801c-2.5,1.267-4.884,2.033-7.15,2.3c-4.033,0.467-7.366,0.1-10-1.101
		l-2.75-2c-0.233-1.166-0.333-2.399-0.3-3.699C76.116,156.083,76.884,154.483,78.35,153.85z"/>
	<path style="fill-rule:evenodd;clip-rule:evenodd;fill:#ECECCB;" d="M9.4,4.05c2.133-1.133,3.667,1.784,4.6,8.75
		c0.567,4.133,1.267,11.717,2.1,22.75c0.7,6.667,2.283,13.583,4.75,20.75c1.267,3.6,2.45,6.517,3.55,8.75
		c-1-1.233-2.117-2.95-3.35-5.15c-2.5-4.367-4.383-8.883-5.65-13.55c-1.233-4.633-2.6-13.083-4.1-25.35
		C10.533,14.9,9.9,9.25,9.4,4.05z"/>
	<path style="fill-rule:evenodd;clip-rule:evenodd;fill:#F6F7E9;" d="M49.6,62.7c-5.233,0.9-11.633,2.117-19.2,3.65l14.7-4.3
		c2.933-0.867,5.917-1.617,8.95-2.25c3.533-0.733,6.15-1.1,7.851-1.1c1.8,0,3.616,0.566,5.449,1.7c1.767,1.133,2.233,1.95,1.4,2.45
		c-0.434,0.267-2.85,0.2-7.25-0.2C56.467,62.183,52.5,62.2,49.6,62.7z"/>
	<path style="fill-rule:evenodd;clip-rule:evenodd;fill:#ECECCB;" d="M70.75,67.7c1.434-1.034,3.267,0.783,5.5,5.45
		c2.066,4.4,3.85,9.917,5.35,16.55c1.867,8.434,4.917,28.383,9.15,59.85c-6.434-35.467-10.65-57.2-12.65-65.2
		c-1.233-5-2.833-9.266-4.8-12.8L70.75,67.7z"/>
	<path style="fill-rule:evenodd;clip-rule:evenodd;fill:#A9AC5D;" d="M9.6,46.7c0.667,3.066,1.717,8.667,3.15,16.8
		c1.667,7,4,11.517,7,13.55c1.733,1.167,4.2,1.55,7.4,1.15c1.6-0.233,3.017-0.567,4.25-1c3.133-0.967,6.533-1.95,10.2-2.95
		c7.267-2,12.15-3.067,14.65-3.2c2.967-0.167,5.65,1.083,8.05,3.75c2.367,2.633,4.3,6.483,5.8,11.55c1.267,4.167,3.5,16.5,6.7,37
		c1.601,10.267,3.084,20.101,4.45,29.5L79.9,152.2c-1.233-9.867-2.717-20.184-4.45-30.95c-3.434-21.533-6.334-34.6-8.7-39.2
		c-2.6-5.066-5.217-8.117-7.85-9.15c-1.834-0.733-4.817-0.617-8.95,0.35c-1.367,0.3-5.95,1.633-13.75,4
		c-6.034,1.8-9.8,2.667-11.3,2.6c-1.333,0.033-2.383,0-3.15-0.1c-1.3-0.2-2.467-0.717-3.5-1.55c-2.867-2.367-5.317-7.817-7.35-16.35
		C8.833,53.117,6.817,43.533,4.85,33.1c-1.633-8.5-2.667-14.417-3.1-17.75c-0.333-2.5-0.4-4.767-0.2-6.8
		c0.2-2.033,0.55-2.6,1.05-1.7c0.367,0.667,1.417,6.4,3.15,17.2C7.717,36.35,9,43.9,9.6,46.7z"/>
	<g>
		<path style="fill-rule:evenodd;clip-rule:evenodd;fill:#8E9344;" d="M79.1,164.35l-2.75-2c-0.233-1.166-0.333-2.399-0.3-3.699
			c0.066-2.567,0.834-4.167,2.3-4.801l1.7,0.601c1.533,0.333,3.4,0.434,5.601,0.3v0.05l-0.75,2.05c-0.467,1.601-0.65,3-0.551,4.2
			c0.134,1.3,0.65,2.3,1.551,3c0.767,0.601,1.666,0.9,2.699,0.9c1.2,0,3.051-0.3,5.551-0.9L94.1,164.15
			c-1.733,0.699-3.399,1.133-5,1.3C85.066,165.917,81.733,165.55,79.1,164.35z"/>
	</g>
	<path style="fill-rule:evenodd;clip-rule:evenodd;fill:#696D37;" d="M77.85,158.85c0.634-2.066,1.967-3.066,4-3l-0.399,1.5
		c-0.233,1.167-0.25,2.25-0.05,3.25c0.333,1.634,0.616,2.801,0.85,3.5c-2.566-0.267-4.033-0.733-4.4-1.399
		C77.35,161.833,77.35,160.55,77.85,158.85z"/>
	<path style="fill-rule:evenodd;clip-rule:evenodd;fill:#C2C47C;" d="M93.25,155.3c0.733-1.5,1.85-1.566,3.35-0.2
		c0.601,0.567,1.117,1.551,1.551,2.95c0.399,1.367,0.466,2.2,0.199,2.5c-0.333,0.4-1.25,0.867-2.75,1.4
		c0.267-0.667,0.284-1.7,0.051-3.101c-0.134-0.866-0.567-1.716-1.301-2.55L93.25,155.3z"/>
</g>
</svg>
