<?xml version="1.0" encoding="iso-8859-1"?>
<!-- Generator: Adobe Illustrator 15.1.0, SVG Export Plug-In . SVG Version: 6.00 Build 0)  -->
<!DOCTYPE svg PUBLIC "-//W3C//DTD SVG 1.1//EN" "http://www.w3.org/Graphics/SVG/1.1/DTD/svg11.dtd">
<svg version="1.1" id="ground" xmlns="http://www.w3.org/2000/svg" xmlns:xlink="http://www.w3.org/1999/xlink" x="0px" y="0px"
	 width="720px" height="54.2px" viewBox="0 0 720 54.2" style="enable-background:new 0 0 720 54.2;" xml:space="preserve">
<g>
	<path style="fill-rule:evenodd;clip-rule:evenodd;fill:#7F5257;" d="M618.8,4.25c-1.667,1.333-3.316,3.067-4.95,5.2
		c-3.267,4.267-4.816,8.417-4.649,12.45c0.5,12.9,18.033,22.133,52.6,27.7c10.634,1.733,21.316,2.934,32.05,3.601
		c7.188,0.438,15.904,0.763,26.15,0.975L-0.025,54.2c23.475-0.538,50.117-2.805,79.925-6.8c22.4-3,54.367-8.233,95.9-15.7
		c46.934-8.434,80.35-14.15,100.25-17.15c38.233-5.8,72.583-9.566,103.05-11.3C436.8-0.017,494.066-0.833,550.9,0.8
		C579.3,1.633,601.934,2.783,618.8,4.25z"/>
	<g>
		<g>
			<path style="fill-rule:evenodd;clip-rule:evenodd;fill:#70424A;" d="M195.4,43.7c-4.9,2.833-9.25,3.967-13.05,3.399
				c-4.267-0.767-6.917-2.149-7.95-4.149c-0.9-1.733-0.45-3.3,1.35-4.7c1.3-1,3.267-1.667,5.9-2c1.333-0.167,2.533-0.233,3.6-0.2
				c-1.767,0.4-3.45,0.884-5.05,1.45c-3.167,1.2-4.25,2.434-3.25,3.7c1.3,1.767,4.583,2.483,9.85,2.149
				c5.4-0.366,10.367-1.716,14.9-4.05C199.967,40.833,197.867,42.3,195.4,43.7z"/>
		</g>
	</g>
	<g>
		<g>
			<path style="fill-rule:evenodd;clip-rule:evenodd;fill:#70424A;" d="M141.5,46.25c-1.867,2.467-3.85,3.35-5.95,2.65
				c-1.3-0.367-2.1-0.884-2.4-1.551c-0.233-0.566-0.05-1.05,0.55-1.449c0.7-0.467,1.733-0.617,3.1-0.45
				c-0.566,0.066-1.117,0.184-1.65,0.35c-1.066,0.267-1.45,0.617-1.15,1.05c0.3,0.634,1.333,0.967,3.1,1
				C139,47.884,140.467,47.35,141.5,46.25z"/>
		</g>
	</g>
	<g>
		<g>
			<path style="fill-rule:evenodd;clip-rule:evenodd;fill:#70424A;" d="M321.25,34c-4.667,2.2-8.783,2.65-12.35,1.35
				c-3.733-1.533-5.85-3.3-6.35-5.3c-0.433-1.7,0.3-2.983,2.2-3.85c1.333-0.567,3.15-0.767,5.45-0.6c1.133,0.1,2.15,0.233,3.05,0.4
				c-1.566,0.067-3.083,0.217-4.55,0.45c-2.934,0.466-4.117,1.333-3.55,2.6c0.7,1.967,3.483,3.184,8.35,3.65
				c5.167,0.5,9.667-0.3,13.5-2.4C325.467,31.667,323.55,32.9,321.25,34z"/>
		</g>
	</g>
	<g>
		<g>
			<path style="fill-rule:evenodd;clip-rule:evenodd;fill:#70424A;" d="M412.85,40.9c0.267,0-0.267,0.583-1.6,1.75
				c-1.5,1.333-3.167,2.533-5,3.6c-5.634,3.2-10.8,3.967-15.5,2.3c-4.733-1.8-7.384-4-7.95-6.6c-0.5-2.233,0.417-3.834,2.75-4.8
				c1.634-0.667,3.867-0.917,6.7-0.75c1.434,0.1,2.7,0.25,3.8,0.449c-1.899,0.134-3.767,0.351-5.6,0.65
				c-3.634,0.6-5.117,1.667-4.45,3.2c0.866,2.5,4.384,3.967,10.55,4.399C403.184,45.6,408.616,44.2,412.85,40.9z"/>
		</g>
	</g>
	<g>
		<g>
			<path style="fill-rule:evenodd;clip-rule:evenodd;fill:#70424A;" d="M346.1,44.55c3.6-0.1,6.517-1.083,8.75-2.95
				c-0.833,1.101-1.967,2.134-3.4,3.101c-2.934,2-5.684,2.666-8.25,2c-2.633-0.7-4.2-1.684-4.7-2.95c-0.467-1.134-0.1-2.066,1.1-2.8
				c0.833-0.5,2.05-0.8,3.65-0.9c0.8-0.033,1.5-0.033,2.1,0c-1.033,0.2-2.05,0.434-3.05,0.7c-1.933,0.566-2.65,1.25-2.15,2.05
				C340.783,44.033,342.767,44.616,346.1,44.55z"/>
		</g>
	</g>
	<g>
		<g>
			<path style="fill-rule:evenodd;clip-rule:evenodd;fill:#70424A;" d="M235.6,29.85c-0.9,0.267-1.233,0.601-1,1
				c0.333,0.567,1.283,0.817,2.85,0.75c1.667-0.066,3.117-0.5,4.35-1.3c-0.466,0.467-1.066,0.934-1.8,1.4
				c-1.4,0.899-2.7,1.233-3.9,1c-1.267-0.334-2.033-0.8-2.3-1.4c-0.233-0.533-0.05-0.983,0.55-1.35c0.633-0.4,1.533-0.566,2.7-0.5
				C236.55,29.55,236.067,29.684,235.6,29.85z"/>
		</g>
	</g>
	<g>
		<g>
			<path style="fill-rule:evenodd;clip-rule:evenodd;fill:#70424A;" d="M539.85,38.05c-1.267,1.533-2.899,3.066-4.899,4.601
				c-3.967,3.033-7.684,4.416-11.15,4.149c-3.833-0.399-6.267-1.45-7.3-3.149c-0.867-1.467-0.55-2.867,0.95-4.2
				c1.033-0.967,2.683-1.667,4.95-2.101c1.133-0.233,2.149-0.383,3.05-0.449c-1.5,0.466-2.917,1.017-4.25,1.649
				c-2.634,1.233-3.5,2.367-2.601,3.4c1.267,1.5,4.2,1.883,8.801,1.149C532.2,42.333,536.35,40.65,539.85,38.05z"/>
		</g>
	</g>
	<g>
		<g>
			<path style="fill-rule:evenodd;clip-rule:evenodd;fill:#70424A;" d="M518.55,10.65c-2.366,1.5-4.5,2.1-6.399,1.8
				c-2.101-0.367-3.4-1.034-3.9-2c-0.434-0.867-0.217-1.65,0.65-2.35c0.633-0.467,1.583-0.783,2.85-0.95
				c0.667-0.066,1.25-0.1,1.75-0.1c-0.833,0.2-1.634,0.45-2.4,0.75c-1.533,0.567-2.066,1.15-1.6,1.75
				c0.634,0.867,2.233,1.217,4.8,1.05c2.7-0.2,5.083-0.95,7.15-2.25C520.684,9.15,519.717,9.917,518.55,10.65z"/>
		</g>
	</g>
	<g>
		<g>
			<path style="fill-rule:evenodd;clip-rule:evenodd;fill:#70424A;" d="M572.2,23.55c-1.2,1.434-2.75,2.85-4.65,4.25
				c-3.8,2.767-7.3,4.017-10.5,3.75c-3.434-0.267-5.684-1.166-6.75-2.7c-0.934-1.366-0.75-2.7,0.55-4
				c0.967-0.967,2.567-1.7,4.801-2.2c1.1-0.233,2.1-0.367,3-0.4c-1.467,0.433-2.834,0.967-4.101,1.6
				c-2.566,1.233-3.366,2.333-2.399,3.3c1.232,1.267,4,1.6,8.3,1C565.05,27.483,568.967,25.95,572.2,23.55z"/>
		</g>
	</g>
	<g>
		<g>
			<path style="fill-rule:evenodd;clip-rule:evenodd;fill:#70424A;" d="M492.75,23.55c1,0.067,1.884,0.167,2.65,0.3
				c-1.334,0.1-2.634,0.25-3.9,0.45c-2.5,0.434-3.517,1.184-3.05,2.25c0.6,1.7,3.017,2.717,7.25,3.05
				c4.5,0.367,8.3-0.483,11.399-2.55c-1.199,1.267-2.783,2.417-4.75,3.45c-3.933,2.1-7.466,2.566-10.6,1.4
				c-3.233-1.267-5.066-2.75-5.5-4.45c-0.366-1.467,0.25-2.583,1.85-3.35C489.233,23.6,490.783,23.417,492.75,23.55z"/>
		</g>
	</g>
	<g>
		<g>
			<path style="fill-rule:evenodd;clip-rule:evenodd;fill:#70424A;" d="M462.4,19.9c2.5,0.267,4.616-0.183,6.35-1.35
				c-0.634,0.7-1.5,1.333-2.6,1.9c-2.233,1.167-4.25,1.383-6.051,0.65c-1.8-0.867-2.767-1.8-2.899-2.8
				c-0.101-0.867,0.333-1.433,1.3-1.7c0.634-0.2,1.467-0.233,2.5-0.1c0.5,0.067,0.967,0.133,1.4,0.2
				c-0.733,0.033-1.434,0.083-2.101,0.15c-1.366,0.1-1.967,0.45-1.8,1.05C458.733,18.967,460.033,19.633,462.4,19.9z"/>
		</g>
	</g>
	<g>
		<g>
			<path style="fill-rule:evenodd;clip-rule:evenodd;fill:#70424A;" d="M614.8,41.6c-1.467,1.267-2.816,1.601-4.05,1
				c-0.767-0.333-1.217-0.716-1.35-1.149c-0.101-0.4,0.05-0.7,0.449-0.9c0.5-0.233,1.167-0.233,2,0c-0.366,0-0.717,0.017-1.05,0.05
				c-0.7,0.101-0.983,0.301-0.85,0.601c0.2,0.399,0.816,0.7,1.85,0.899C613,42.3,614,42.134,614.8,41.6z"/>
		</g>
	</g>
	<g>
		<g>
			<path style="fill-rule:evenodd;clip-rule:evenodd;fill:#70424A;" d="M282.2,22.7c1.433-0.2,2.733-0.633,3.9-1.3
				c-0.434,0.434-0.967,0.85-1.6,1.25c-1.267,0.833-2.4,1.2-3.4,1.1c-1.1-0.1-1.817-0.383-2.15-0.85c-0.3-0.433-0.233-0.867,0.2-1.3
				c0.5-0.5,1.333-0.783,2.5-0.85c-0.466,0.133-0.917,0.3-1.35,0.5c-0.8,0.433-1.05,0.8-0.75,1.1
				C279.95,22.75,280.833,22.867,282.2,22.7z"/>
		</g>
	</g>
	<g>
		<g>
			<path style="fill-rule:evenodd;clip-rule:evenodd;fill:#70424A;" d="M589.25,5.65c-0.833,0.1-1.767,0.283-2.8,0.55
				c-2.067,0.566-3.601,1.367-4.601,2.4c-1,1.1,2.334,2.333,10,3.7c3.801,0.7,7.667,1.3,11.601,1.8c-3.3-0.1-6.783-0.333-10.45-0.7
				c-7.367-0.733-11.8-1.9-13.3-3.5c-1.4-1.533-0.233-2.683,3.5-3.45C585.066,6.05,587.083,5.783,589.25,5.65z"/>
		</g>
	</g>
	<g>
		<g>
			<path style="fill-rule:evenodd;clip-rule:evenodd;fill:#70424A;" d="M445.35,34.85c-0.899,0.134-1.916,0.4-3.05,0.801
				c-2.267,0.833-3.883,1.899-4.85,3.199c-0.934,1.167,2.816,2.217,11.25,3.15c4.267,0.467,8.616,0.866,13.05,1.2
				c-3.7,0.1-7.583,0.066-11.65-0.101c-8.133-0.267-13.083-1.1-14.85-2.5c-1.866-1.533-0.733-2.966,3.4-4.3
				C440.684,35.634,442.917,35.15,445.35,34.85z"/>
		</g>
	</g>
	<g>
		<g>
			<path style="fill-rule:evenodd;clip-rule:evenodd;fill:#70424A;" d="M355.65,17.1c3.68,0.253,6.322,0.386,7.925,0.4
				c-9.967,0.772-15.925,0.373-17.875-1.2c-1.4-1.1-0.6-2.167,2.4-3.2c1.5-0.5,3.133-0.883,4.9-1.15c-0.667,0.133-1.4,0.35-2.2,0.65
				c-1.633,0.633-2.8,1.433-3.5,2.4C346.567,15.933,349.35,16.633,355.65,17.1z"/>
		</g>
	</g>
	<g>
		<g>
			<path style="fill-rule:evenodd;clip-rule:evenodd;fill:#70424A;" d="M418,13.8c-1.634,0.133-2.9,0.6-3.8,1.4
				c-0.601,0.667,1.1,1.333,5.1,2c2.264,0.38,3.905,0.622,4.925,0.725c-1.369,0.011-2.794-0.047-4.274-0.175
				c-3.9-0.3-6.2-0.95-6.9-1.95c-0.633-0.833,0-1.4,1.9-1.7C415.917,13.967,416.934,13.867,418,13.8z"/>
		</g>
	</g>
	<g>
		<g>
			<path style="fill-rule:evenodd;clip-rule:evenodd;fill:#70424A;" d="M270.95,47.2c0.2,0.767-2.767,1.217-8.9,1.35
				c-6.233,0.167-9.883-0.75-10.95-2.75c-0.767-1.267,0.25-2.1,3.05-2.5c1.4-0.2,2.883-0.366,4.45-0.5
				c-0.6,0.101-1.283,0.25-2.05,0.45c-1.533,0.434-2.733,1.017-3.6,1.75c-0.567,0.467,0.033,1.033,1.8,1.7
				c1.8,0.666,3.883,1.066,6.25,1.2C264.2,48.2,267.517,47.967,270.95,47.2z"/>
		</g>
	</g>
</g>
</svg>
