<?xml version="1.0" encoding="iso-8859-1"?>
<!-- Generator: Adobe Illustrator 15.1.0, SVG Export Plug-In . SVG Version: 6.00 Build 0)  -->
<!DOCTYPE svg PUBLIC "-//W3C//DTD SVG 1.1//EN" "http://www.w3.org/Graphics/SVG/1.1/DTD/svg11.dtd">
<svg version="1.1" id="Isolation_Mode" xmlns="http://www.w3.org/2000/svg" xmlns:xlink="http://www.w3.org/1999/xlink" x="0px"
	 y="0px" width="153.85px" height="194.65px" viewBox="0 0 153.85 194.65" style="enable-background:new 0 0 153.85 194.65;"
	 xml:space="preserve">
<g>
	<path style="fill-rule:evenodd;clip-rule:evenodd;fill:#3C3F31;" d="M87.05,62.65c1.767-0.8,5.25-1.167,10.45-1.1
		c6.366,0.067,12.616,0.983,18.75,2.75c17.767,5.034,29.566,15.467,35.4,31.3c3.166,8.6,2.899,18.85-0.801,30.75
		c-3.1,9.9-8.35,20.4-15.75,31.5c-6.166,9.2-12.85,17.467-20.05,24.801c-6.533,6.699-11.033,10.233-13.5,10.6
		c-3.967,0.566-10.233,0.8-18.8,0.7c-6.467-0.101-13.133-0.367-20-0.8c-6.5-0.4-9.95-0.634-10.35-0.7
		c-5.066-0.601-9.733-1.816-14-3.65c-12.267-5.333-22.066-16.033-29.4-32.1c-8.167-17.934-9.767-36.7-4.8-56.3
		c2.133-8.534,5.35-15.917,9.65-22.15c4.3-6.3,9.133-10.617,14.5-12.95c7.367-3.2,18.833-4.367,34.4-3.5
		c3.867,0.233,9.033,0.617,15.5,1.15C83.017,63.25,85.95,63.15,87.05,62.65z"/>
	<path style="fill-rule:evenodd;clip-rule:evenodd;fill:#2C2F26;" d="M77.9,69.65c-6.8-0.7-9.284-1.717-7.45-3.05
		c1.8-1.333,4.583-1.833,8.35-1.5c4.934,0.4,7.783,1.45,8.55,3.15C88.083,69.95,84.934,70.417,77.9,69.65z"/>
	<path style="fill-rule:evenodd;clip-rule:evenodd;fill:#4E513E;" d="M96.9,71.15l6.8-1.4c5.3-0.667,9.816-0.383,13.55,0.85
		c8.634,2.9,15.483,7.683,20.55,14.35c2.134,2.833,4,7,5.601,12.5c0.8,2.733,1.383,5.184,1.75,7.35
		c-1.867-3.133-4.017-6.366-6.45-9.7c-4.867-6.7-8.767-10.617-11.7-11.75s-8.417-0.483-16.45,1.95l-11.2,4l7.301-11.9L96.9,71.15z"
		/>
	<path style="fill-rule:evenodd;clip-rule:evenodd;fill:#9F6237;" d="M94.9,12.95L81.1,24l8.95,11.05L85.9,54.4v13.15
		c-2,0.9-4.317,1.35-6.95,1.35c-1.634,0-3.383-0.333-5.25-1l-2.3-1.05l4.2-7.2L62.4,48.2l-6.2-14.5L41,22.6l19.35,6.25l7.6,17.95
		L78.3,55l2.8-4.75v-15.2L74.85,22.6L92.9,5.4L94.9,12.95z"/>
	<g>
		<path style="fill-rule:evenodd;clip-rule:evenodd;fill:#7B502F;" d="M62.4,48.2l-6.2-14.5l-13.25-9.65v-0.1l16.1,6.9L64.1,46.7
			L81,58.9l-1.5,10h-0.55c-1.634,0-3.383-0.333-5.25-1l-2.3-1.05l4.2-7.2L62.4,48.2z"/>
		<polygon style="fill-rule:evenodd;clip-rule:evenodd;fill:#7B502F;" points="92.9,5.4 94.45,11.2 78.85,23.4 85.35,34.55 
			84.55,49.55 81.3,56.85 78.3,55 81.1,50.25 81.1,35.05 74.85,22.6 		"/>
	</g>
	<polygon style="fill-rule:evenodd;clip-rule:evenodd;fill:#93907A;" points="49.55,19.8 43.75,27.25 29.75,23.1 24.8,13.2 
		6.6,18.15 0,9.05 10.75,7.4 24.8,0 37.15,9.9 45.4,5.75 	"/>
	<polygon style="fill-rule:evenodd;clip-rule:evenodd;fill:#93907A;" points="93.3,1.65 113.1,1.65 115.6,12.35 127.15,16.5 
		110.65,19.8 99.1,14.85 88.35,15.7 	"/>
	<path style="fill-rule:evenodd;clip-rule:evenodd;fill:#2C2F26;" d="M38.6,60.5c7.9-1.733,14.433-1.4,19.6,1L38.8,79.25l0.2,6
		c0.033,4.4-0.3,7.633-1,9.7c-0.7,2.066-0.867,9.616-0.5,22.649c0.167,6.5,0.4,12.801,0.7,18.9l6.6,11.8
		c4.7,8.066,7.733,12.617,9.1,13.65c1.3,0.967,7.283,1.833,17.95,2.6c11.2,0.834,16.966,1.3,17.3,1.4
		c1.866,0.6,6.35,0.833,13.449,0.7c7.934-0.134,12.817-0.934,14.65-2.4l26.45-20.85c-4.101,7.133-8.684,14.566-13.75,22.3
		c-10.134,15.434-17.667,24.583-22.601,27.45c-2.366,1.399-7.633,1.833-15.8,1.3c-8.2-0.867-12.85-1.3-13.95-1.3
		c-7.133,0.267-13.8,0.366-20,0.3c-12.1-0.134-19.184-1.05-21.25-2.75c-7.233-4.134-13.533-8.95-18.9-14.45
		c-10.3-10.566-15.967-23.634-17-39.2c-1.167-17.233,0.267-32.133,4.3-44.7c3.433-10.667,8.183-18.333,14.25-23
		C24.6,65.05,31.133,62.1,38.6,60.5z"/>
	<path style="fill-rule:evenodd;clip-rule:evenodd;fill:#32352A;" d="M20.6,90.3c2.4-5.033,3.933-8.45,4.6-10.25
		c1.1-2.867,4.667-6.85,10.7-11.95c6.267-5.3,11.083-8.133,14.45-8.5c2.967-0.333,6.55-0.017,10.75,0.95
		c2.1,0.467,3.9,0.967,5.4,1.5c-5.5,7.733-10.183,14.833-14.05,21.3c-6.7,11.167-10.367,19.317-11,24.45
		c-0.567,5,0.167,11.467,2.2,19.4c2.767,10.833,7.267,18.45,13.5,22.85c6.3,4.434,11.684,7.483,16.15,9.15
		c1.8,0.666,4.917,1.399,9.351,2.2c10.399,1.899,15.633,2.866,15.699,2.899c4.733,0.566,8.817,0.233,12.25-1
		c3.301-1.2,8.75-4.066,16.351-8.6c3.833-2.3,7.316-4.467,10.45-6.5l-5.301,10.3c-2.833,3.2-6.033,6.566-9.6,10.1
		c-7.167,7.134-12.634,11.601-16.4,13.4c-3.899,1.9-11.199,2.05-21.899,0.45c-7.634-1.167-14.117-2.584-19.45-4.25
		c-2.4-0.733-7.233-2.934-14.5-6.601l-10.2-5.25c-1.966-2.066-4.183-4.566-6.65-7.5c-4.9-5.833-8.533-10.933-10.9-15.3
		c-2.367-4.366-3.7-10-4-16.899l0.2-9.101c-0.434-1.7-0.817-3.666-1.15-5.899c-0.733-4.467-0.933-7.983-0.6-10.551
		C17.283,98.667,18.5,95.067,20.6,90.3z"/>
	<g>
		<g>
			<path style="fill-rule:evenodd;clip-rule:evenodd;fill:#32352A;" d="M90.65,126.1c2.267-0.033,3.716,0.917,4.35,2.851
				c0.667,1.899-0.55,2.833-3.65,2.8c-2.8-0.733-4.017-1.95-3.649-3.65C88.066,126.434,89.05,125.767,90.65,126.1z"/>
		</g>
	</g>
	<g>
		<g>
			<path style="fill-rule:evenodd;clip-rule:evenodd;fill:#32352A;" d="M104.2,141.35c0.866-0.466,1.5-0.399,1.899,0.2
				c0.4,0.601,0.167,1.05-0.699,1.351c-0.801,0.267-1.334,0.149-1.601-0.351S103.667,141.65,104.2,141.35z"/>
		</g>
	</g>
	<g>
		<g>
			<path style="fill-rule:evenodd;clip-rule:evenodd;fill:#32352A;" d="M115.5,118.4c0.833-0.967,1.667-1.2,2.5-0.7
				s0.75,1.2-0.25,2.1c-0.934,0.7-1.684,0.8-2.25,0.3C114.934,119.566,114.934,119,115.5,118.4z"/>
		</g>
	</g>
	<g>
		<g>
			<path style="fill-rule:evenodd;clip-rule:evenodd;fill:#32352A;" d="M129.2,133.2c0.6-0.2,0.967-0.117,1.1,0.25
				c0.101,0.399-0.083,0.6-0.55,0.6c-0.333,0.101-0.6,0.033-0.8-0.2C128.783,133.583,128.866,133.366,129.2,133.2z"/>
		</g>
	</g>
	<g>
		<g>
			<path style="fill-rule:evenodd;clip-rule:evenodd;fill:#32352A;" d="M85.35,101.2c2.4-0.667,4.067-0.101,5,1.7
				c0.934,1.8,0,2.949-2.8,3.449c-2.733,0.034-4.184-0.75-4.35-2.35C83.033,102.4,83.75,101.467,85.35,101.2z"/>
		</g>
	</g>
	<g>
		<g>
			<path style="fill-rule:evenodd;clip-rule:evenodd;fill:#32352A;" d="M65.05,119.9c-0.6,0.3-1.05,0.267-1.35-0.101
				c-0.3-0.399-0.117-0.7,0.55-0.899c0.367-0.101,0.7-0.034,1,0.199C65.55,119.366,65.483,119.634,65.05,119.9z"/>
		</g>
	</g>
	<g>
		<g>
			<path style="fill-rule:evenodd;clip-rule:evenodd;fill:#32352A;" d="M62.8,92.35c1.4-0.367,2.333-0.033,2.8,1
				c0.5,1.033-0.033,1.65-1.6,1.85c-1.4,0.033-2.183-0.383-2.35-1.25C61.45,93.05,61.833,92.517,62.8,92.35z"/>
		</g>
	</g>
	<g>
		<g>
			<path style="fill-rule:evenodd;clip-rule:evenodd;fill:#32352A;" d="M56.05,130.55c2.9-0.8,4.767-0.184,5.6,1.851
				c0.333,0.8,0.25,1.533-0.25,2.199c-0.533,0.733-1.467,1.184-2.8,1.351c-2.567,0.233-4.1-0.483-4.6-2.15
				C53.5,132.134,54.183,131.05,56.05,130.55z"/>
		</g>
	</g>
	<g>
		<g>
			<path style="fill-rule:evenodd;clip-rule:evenodd;fill:#32352A;" d="M78.55,76c1.066,0.2,1.7,0.817,1.9,1.85s-0.5,1.4-2.101,1.1
				c-1.333-0.7-1.816-1.434-1.449-2.2C77.233,76.017,77.783,75.767,78.55,76z"/>
		</g>
	</g>
	<g>
		<g>
			<path style="fill-rule:evenodd;clip-rule:evenodd;fill:#32352A;" d="M131.05,96.15c0,0.6-0.233,0.95-0.7,1.05
				c-0.466,0.1-0.633-0.167-0.5-0.8c0.067-0.467,0.284-0.733,0.65-0.8C130.866,95.533,131.05,95.717,131.05,96.15z"/>
		</g>
	</g>
	<g>
		<g>
			<path style="fill-rule:evenodd;clip-rule:evenodd;fill:#32352A;" d="M145.6,109.15c1.167-0.067,1.917,0.433,2.25,1.5
				c0.301,1-0.316,1.483-1.85,1.449c-1.634-0.466-2.283-1.133-1.95-2C144.417,109.233,144.934,108.917,145.6,109.15z"/>
		</g>
	</g>
	<g>
		<g>
			<path style="fill-rule:evenodd;clip-rule:evenodd;fill:#32352A;" d="M146.9,123.1c0.233,0.034,0.383,0.15,0.449,0.351
				c0.067,0.233-0.083,0.333-0.449,0.3c-0.334-0.167-0.45-0.333-0.351-0.5C146.616,123.116,146.733,123.066,146.9,123.1z"/>
		</g>
	</g>
	<g>
		<g>
			<path style="fill-rule:evenodd;clip-rule:evenodd;fill:#32352A;" d="M112.45,149.8c2.6,0.134,4.033,1.2,4.3,3.2
				c0.233,1.967-1,2.733-3.7,2.3c-2.434-0.666-3.55-1.8-3.35-3.399C109.866,150.366,110.783,149.667,112.45,149.8z"/>
		</g>
	</g>
	<g>
		<g>
			<path style="fill-rule:evenodd;clip-rule:evenodd;fill:#32352A;" d="M133.25,106.3c0.533-0.233,0.983-0.116,1.35,0.351
				c0.334,0.433,0.101,0.75-0.699,0.949c-0.7,0.034-1.084-0.149-1.15-0.55C132.684,106.65,132.85,106.4,133.25,106.3z"/>
		</g>
	</g>
	<g>
		<g>
			<path style="fill-rule:evenodd;clip-rule:evenodd;fill:#32352A;" d="M104.25,95.6c1.333-0.567,2.15-0.434,2.45,0.4
				c0.267,0.867-0.084,1.333-1.05,1.4c-0.801,0.333-1.417,0.217-1.851-0.35C103.4,96.483,103.55,96,104.25,95.6z"/>
		</g>
	</g>
	<g>
		<g>
			<path style="fill-rule:evenodd;clip-rule:evenodd;fill:#32352A;" d="M90.6,75.95c0.634-0.034,1.034,0.25,1.2,0.85
				c0.167,0.6-0.2,0.883-1.1,0.85c-0.967-0.367-1.334-0.767-1.101-1.2C89.833,76.083,90.167,75.917,90.6,75.95z"/>
		</g>
	</g>
	<g>
		<g>
			<path style="fill-rule:evenodd;clip-rule:evenodd;fill:#32352A;" d="M100.7,64.1c0.2,0.133,0.316,0.333,0.35,0.6
				c0.033,0.267-0.166,0.316-0.6,0.15c-0.267-0.267-0.351-0.483-0.25-0.65C100.333,64.033,100.5,64,100.7,64.1z"/>
		</g>
	</g>
	<g>
		<g>
			<path style="fill-rule:evenodd;clip-rule:evenodd;fill:#32352A;" d="M69.3,72.95c0.2,0.333,0.233,0.733,0.1,1.2
				c-0.167,0.5-0.583,0.434-1.25-0.2c-0.2-0.8-0.083-1.25,0.35-1.35C68.9,72.5,69.167,72.617,69.3,72.95z"/>
		</g>
	</g>
	<g>
		<g>
			<path style="fill-rule:evenodd;clip-rule:evenodd;fill:#32352A;" d="M55.2,89.65c1,0.6,1.333,1.317,1,2.15
				c-0.3,0.867-0.95,0.917-1.95,0.15c-0.8-0.767-1-1.45-0.6-2.05S54.567,89.217,55.2,89.65z"/>
		</g>
	</g>
	<g>
		<g>
			<path style="fill-rule:evenodd;clip-rule:evenodd;fill:#32352A;" d="M52.2,117.25c0.933,0.6,1.333,1.55,1.2,2.85
				c-0.167,1.334-1.217,1.45-3.15,0.351c-1.233-1.834-1.333-3.033-0.3-3.601C51.017,116.25,51.767,116.384,52.2,117.25z"/>
		</g>
	</g>
	<g>
		<g>
			<path style="fill-rule:evenodd;clip-rule:evenodd;fill:#32352A;" d="M77.4,153.15c1.466,0.166,2.216,0.8,2.25,1.899
				c0.033,1.066-0.65,1.434-2.051,1.101c-1.333-0.4-1.917-1.034-1.75-1.9C75.983,153.417,76.5,153.05,77.4,153.15z"/>
		</g>
	</g>
	<g>
		<g>
			<path style="fill-rule:evenodd;clip-rule:evenodd;fill:#32352A;" d="M77.25,130.65c1.066-0.834,1.917-0.9,2.55-0.2
				c0.634,0.7,0.434,1.316-0.6,1.85c-1,0.566-1.733,0.55-2.2-0.05C76.566,131.684,76.65,131.15,77.25,130.65z"/>
		</g>
	</g>
	<g>
		<g>
			<path style="fill-rule:evenodd;clip-rule:evenodd;fill:#32352A;" d="M80.4,117.55c-1.334,0.7-2.351,0.65-3.051-0.149
				c-0.733-0.801-0.616-1.567,0.351-2.301c1.633-1.166,2.866-1.216,3.7-0.149C82.267,116.017,81.934,116.884,80.4,117.55z"/>
		</g>
	</g>
	<g>
		<g>
			<path style="fill-rule:evenodd;clip-rule:evenodd;fill:#32352A;" d="M70.1,104.45c0.7-0.767,1.333-0.934,1.9-0.5
				c0.533,0.434,0.467,0.899-0.2,1.399c-0.566,0.534-1.083,0.634-1.55,0.301C69.783,105.35,69.733,104.95,70.1,104.45z"/>
		</g>
	</g>
	<g>
		<g>
			<path style="fill-rule:evenodd;clip-rule:evenodd;fill:#32352A;" d="M87.05,85.6c1.134-0.167,1.816,0.15,2.05,0.95
				c0.233,0.8-0.183,1.2-1.25,1.2c-1,0-1.55-0.333-1.649-1C86.066,86.117,86.35,85.733,87.05,85.6z"/>
		</g>
	</g>
	<g>
		<g>
			<path style="fill-rule:evenodd;clip-rule:evenodd;fill:#32352A;" d="M117.8,65.95c0.767,0.267,1.15,0.816,1.15,1.65
				c-0.033,0.833-0.634,1-1.8,0.5c-0.934-0.8-1.184-1.45-0.75-1.95C116.833,65.717,117.3,65.65,117.8,65.95z"/>
		</g>
	</g>
	<g>
		<g>
			<path style="fill-rule:evenodd;clip-rule:evenodd;fill:#32352A;" d="M143.55,86.05c0.634,0.267,0.917,0.717,0.851,1.35
				c-0.034,0.633-0.5,0.75-1.4,0.35c-0.733-0.667-0.917-1.183-0.55-1.55C142.783,85.833,143.15,85.783,143.55,86.05z"/>
		</g>
	</g>
	<g>
		<g>
			<path style="fill-rule:evenodd;clip-rule:evenodd;fill:#32352A;" d="M148.6,96.35c0.233,0.1,0.367,0.283,0.4,0.55
				c0.033,0.3-0.184,0.367-0.65,0.2c-0.233-0.233-0.3-0.45-0.199-0.65C148.283,96.25,148.434,96.217,148.6,96.35z"/>
		</g>
	</g>
	<g>
		<g>
			<path style="fill-rule:evenodd;clip-rule:evenodd;fill:#32352A;" d="M134,141.35c1.833-1,3.434-0.866,4.8,0.4
				c1.367,1.267,0.783,2.55-1.75,3.85c-2.533,0.667-4.033,0.25-4.5-1.25C132.05,142.85,132.533,141.85,134,141.35z"/>
		</g>
	</g>
	<g>
		<g>
			<path style="fill-rule:evenodd;clip-rule:evenodd;fill:#32352A;" d="M120.35,98.1c-0.433-0.3-0.466-0.683-0.1-1.149
				c0.833-0.733,1.45-0.85,1.85-0.35c0.4,0.533,0.284,0.95-0.35,1.25C121.25,98.283,120.783,98.366,120.35,98.1z"/>
		</g>
	</g>
	<g>
		<g>
			<path style="fill-rule:evenodd;clip-rule:evenodd;fill:#32352A;" d="M109,65.55c0.333-0.1,0.65-0.033,0.95,0.2
				c0.333,0.233,0.184,0.5-0.45,0.8c-0.5,0.034-0.783-0.1-0.85-0.4C108.583,65.85,108.7,65.65,109,65.55z"/>
		</g>
	</g>
	<g>
		<g>
			<path style="fill-rule:evenodd;clip-rule:evenodd;fill:#2C2F26;" d="M52.4,75.5c-0.133,0.667-0.667,1.033-1.6,1.1
				c-0.9,0.066-1.133-0.567-0.7-1.9c1.267-1.233,2.05-1.45,2.35-0.65C52.583,74.417,52.567,74.9,52.4,75.5z"/>
		</g>
	</g>
	<g>
		<g>
			<path style="fill-rule:evenodd;clip-rule:evenodd;fill:#2C2F26;" d="M33.15,88.3c1.6,0.067,2.467,0.717,2.6,1.95
				s-0.617,1.7-2.25,1.4c-1.567-0.433-2.267-1.133-2.1-2.1C31.567,88.583,32.15,88.167,33.15,88.3z"/>
		</g>
	</g>
	<g>
		<g>
			<path style="fill-rule:evenodd;clip-rule:evenodd;fill:#2C2F26;" d="M38.55,73.8c-0.5-0.833-0.283-1.483,0.65-1.95
				c1.466-0.767,2.55-0.667,3.25,0.3c0.733,1,0.333,1.75-1.2,2.25C39.95,74.8,39.05,74.6,38.55,73.8z"/>
		</g>
	</g>
	<g>
		<g>
			<path style="fill-rule:evenodd;clip-rule:evenodd;fill:#2C2F26;" d="M43.05,85.6c0.7,0,1.233,0.4,1.6,1.2
				c0.4,0.8-0.117,1.217-1.55,1.25c-1.3-0.6-1.767-1.2-1.4-1.8C42.033,85.65,42.483,85.433,43.05,85.6z"/>
		</g>
	</g>
	<g>
		<g>
			<path style="fill-rule:evenodd;clip-rule:evenodd;fill:#2C2F26;" d="M32,137c1.767,0.233,3.183,0.884,4.25,1.95
				c0.933,0.934,1.4,1.967,1.4,3.1c0,1.134-0.45,1.967-1.35,2.5c-1,0.634-2.35,0.7-4.05,0.2c-3.433-1.2-4.9-2.934-4.4-5.2
				c0.2-0.866,0.683-1.566,1.45-2.1C30.133,136.917,31.033,136.767,32,137z"/>
		</g>
	</g>
	<g>
		<g>
			<path style="fill-rule:evenodd;clip-rule:evenodd;fill:#2C2F26;" d="M54,158.35c0.4-0.066,0.65,0.034,0.75,0.301
				c0.067,0.3-0.1,0.449-0.5,0.449c-0.367,0-0.567-0.116-0.6-0.35S53.733,158.384,54,158.35z"/>
		</g>
	</g>
	<g>
		<g>
			<path style="fill-rule:evenodd;clip-rule:evenodd;fill:#2C2F26;" d="M35.15,124.85c0.867-0.466,1.5-0.399,1.9,0.2
				c0.4,0.601,0.167,1.033-0.7,1.3c-0.8,0.267-1.333,0.15-1.6-0.35S34.617,125.116,35.15,124.85z"/>
		</g>
	</g>
	<g>
		<g>
			<path style="fill-rule:evenodd;clip-rule:evenodd;fill:#2C2F26;" d="M41.5,152.35c0.833,0,1.35,0.367,1.55,1.101
				c0.2,0.733-0.233,1.083-1.3,1.05c-1.133-0.366-1.6-0.833-1.4-1.4C40.55,152.566,40.933,152.316,41.5,152.35z"/>
		</g>
	</g>
	<g>
		<g>
			<path style="fill-rule:evenodd;clip-rule:evenodd;fill:#2C2F26;" d="M24.4,110.1c1.033-0.166,1.65,0.101,1.85,0.801
				c0.2,0.733-0.183,1.1-1.15,1.1c-0.9,0-1.4-0.283-1.5-0.85C23.467,110.55,23.733,110.2,24.4,110.1z"/>
		</g>
	</g>
	<g>
		<g>
			<path style="fill-rule:evenodd;clip-rule:evenodd;fill:#2C2F26;" d="M24.05,125.1c0.467,0.067,0.767,0.317,0.9,0.75
				c0.1,0.467-0.2,0.684-0.9,0.65c-0.7-0.366-0.95-0.717-0.75-1.05C23.467,125.15,23.717,125.033,24.05,125.1z"/>
		</g>
	</g>
	<g>
		<g>
			<path style="fill-rule:evenodd;clip-rule:evenodd;fill:#2C2F26;" d="M36.4,103.75c1.5-0.467,2.533-0.167,3.1,0.9
				c0.533,1.066,0,1.75-1.6,2.05c-1.566,0.133-2.45-0.267-2.65-1.2S35.433,103.983,36.4,103.75z"/>
		</g>
	</g>
	<g>
		<g>
			<path style="fill-rule:evenodd;clip-rule:evenodd;fill:#2C2F26;" d="M32.05,78.55c0.434,0.1,0.684,0.35,0.75,0.75
				c0.067,0.4-0.216,0.534-0.85,0.4c-0.434-0.233-0.617-0.517-0.55-0.85C31.5,78.55,31.717,78.45,32.05,78.55z"/>
		</g>
	</g>
	<g>
		<g>
			<path style="fill-rule:evenodd;clip-rule:evenodd;fill:#2C2F26;" d="M52.5,63.6c1.867-0.467,2.867-0.15,3,0.95
				c0.167,1.133-0.333,1.65-1.5,1.55c-0.933,0.2-1.65-0.033-2.15-0.7C51.317,64.667,51.533,64.067,52.5,63.6z"/>
		</g>
	</g>
	<g>
		<g>
			<path style="fill-rule:evenodd;clip-rule:evenodd;fill:#2C2F26;" d="M67.95,173.4c1.867-0.667,3.2-0.317,4,1.05
				c0.8,1.366,0.133,2.3-2,2.8c-2.067,0.2-3.233-0.316-3.5-1.55C66.183,174.5,66.683,173.733,67.95,173.4z"/>
		</g>
	</g>
	<g>
		<g>
			<path style="fill-rule:evenodd;clip-rule:evenodd;fill:#2C2F26;" d="M67.6,164.45c1.633-0.834,2.733-0.717,3.3,0.35
				c0.567,1.033,0.15,1.733-1.25,2.101c-1.267,0.466-2.15,0.316-2.65-0.45C66.5,165.65,66.7,164.983,67.6,164.45z"/>
		</g>
	</g>
	<g>
		<g>
			<path style="fill-rule:evenodd;clip-rule:evenodd;fill:#2C2F26;" d="M101.1,171.8c0.667-0.399,1.267-0.366,1.801,0.101
				c0.5,0.5,0.283,0.983-0.65,1.449c-1.033,0.233-1.6,0.084-1.7-0.449C100.417,172.333,100.6,171.967,101.1,171.8z"/>
		</g>
	</g>
	<g>
		<g>
			<path style="fill-rule:evenodd;clip-rule:evenodd;fill:#2C2F26;" d="M124.4,159.65c1-0.967,1.85-1.134,2.55-0.5
				c0.7,0.633,0.533,1.267-0.5,1.899c-0.733,0.533-1.4,0.584-2,0.15C123.85,160.767,123.833,160.25,124.4,159.65z"/>
		</g>
	</g>
	<g>
		<g>
			<path style="fill-rule:evenodd;clip-rule:evenodd;fill:#2C2F26;" d="M116.2,170.5c0.8-0.533,1.5-0.517,2.1,0.05
				c0.601,0.533,0.384,1.084-0.649,1.65c-1,0.333-1.65,0.2-1.95-0.4C115.434,171.233,115.6,170.8,116.2,170.5z"/>
		</g>
	</g>
	<g>
		<g>
			<path style="fill-rule:evenodd;clip-rule:evenodd;fill:#2C2F26;" d="M117.35,162.9c0.233-0.101,0.483-0.067,0.75,0.1
				c0.233,0.2,0.117,0.434-0.35,0.7c-0.434,0.033-0.667-0.084-0.7-0.351C116.983,163.116,117.083,162.967,117.35,162.9z"/>
		</g>
	</g>
	<g>
		<g>
			<path style="fill-rule:evenodd;clip-rule:evenodd;fill:#2C2F26;" d="M87.6,177.6c1.267,0.067,2.034,0.667,2.301,1.801
				c0.267,1.133-0.45,1.616-2.15,1.449c-1.566-0.6-2.2-1.35-1.9-2.25C86.116,177.733,86.7,177.4,87.6,177.6z"/>
		</g>
	</g>
	<g>
		<g>
			<path style="fill-rule:evenodd;clip-rule:evenodd;fill:#2C2F26;" d="M88.35,166.4c0.267-0.267,0.517-0.317,0.75-0.15
				s0.184,0.366-0.149,0.6c-0.233,0.134-0.434,0.134-0.601,0C88.15,166.717,88.15,166.566,88.35,166.4z"/>
		</g>
	</g>
	<g>
		<g>
			<path style="fill-rule:evenodd;clip-rule:evenodd;fill:#2C2F26;" d="M58.7,167.6c0.767-0.267,1.316-0.1,1.65,0.5
				c0.367,0.601,0.066,1-0.9,1.2c-0.867,0.033-1.35-0.217-1.45-0.75S58.133,167.7,58.7,167.6z"/>
		</g>
	</g>
	<g>
		<g>
			<path style="fill-rule:evenodd;clip-rule:evenodd;fill:#2C2F26;" d="M41.2,162.65c0.733,0.199,1.017,0.483,0.85,0.85
				c-0.2,0.434-0.466,0.5-0.8,0.2c-0.333-0.066-0.533-0.267-0.6-0.601C40.617,162.767,40.8,162.616,41.2,162.65z"/>
		</g>
	</g>
	<g>
		<g>
			<path style="fill-rule:evenodd;clip-rule:evenodd;fill:#2C2F26;" d="M43.7,143.15c1.1,0.133,1.867,0.767,2.3,1.899
				c0.467,1.167-0.333,1.717-2.4,1.65c-1.8-0.834-2.45-1.75-1.95-2.75C42.15,142.983,42.833,142.717,43.7,143.15z"/>
		</g>
	</g>
	<polygon style="fill-rule:evenodd;clip-rule:evenodd;fill:#817F6C;" points="43.75,27.25 29.55,23.4 24.65,13.55 6.5,18.7 0,9.05 
		8,15 18.3,10.55 17.5,12.7 25.9,10.15 29.7,16.8 33.45,16.25 30.75,18.8 35.5,22.35 43.65,25.05 47.7,22.35 	"/>
	<polygon style="fill-rule:evenodd;clip-rule:evenodd;fill:#656458;" points="43.75,27.25 29.55,23.7 24.4,13.95 6.4,19.1 0,9.05 
		7.2,16.9 25.35,11.9 31.05,22.05 43.5,26.15 47.7,22.35 	"/>
	<g>
		<g>
			<path style="fill-rule:evenodd;clip-rule:evenodd;fill:#817F6C;" d="M45,8.5l-0.5,9.65c-0.267-1.833-0.383-3.55-0.35-5.15L45,8.5
				z"/>
		</g>
	</g>
	<g>
		<g>
			<path style="fill-rule:evenodd;clip-rule:evenodd;fill:#817F6C;" d="M40.5,18.8c1.433-0.033,2.15-0.033,2.15,0
				c-1.7,0.367-3.3,0.617-4.8,0.75c-2.656,0-4.064,0.034-4.225,0.1c0.102-0.055,0.727-0.188,1.875-0.4
				c1.233-0.2,2.033-0.317,2.4-0.35C38.233,18.867,39.1,18.833,40.5,18.8z"/>
		</g>
	</g>
	<g>
		<g>
			<path style="fill-rule:evenodd;clip-rule:evenodd;fill:#817F6C;" d="M39.4,12.4c-0.033-0.267,0.133-0.767,0.5-1.5
				s0.567-1.066,0.6-1c-0.067-0.033-0.217,0.333-0.45,1.1c-0.233,0.8-0.316,1.283-0.25,1.45c-0.1,0.2-0.05,0.75,0.15,1.65
				c0.144,0.623,0.252,1.022,0.325,1.2C39.66,14.394,39.368,13.428,39.4,12.4z"/>
		</g>
	</g>
	<g>
		<g>
			<path style="fill-rule:evenodd;clip-rule:evenodd;fill:#817F6C;" d="M32.6,14.95c-0.367-0.034-1.017-0.133-1.95-0.3
				c-1.033-0.167-1.533-0.267-1.5-0.3c-0.033,0.066,1.15,0.1,3.55,0.1c0.367,0,1.667,0.183,3.9,0.55
				C35.167,15.033,33.833,15.017,32.6,14.95z"/>
		</g>
	</g>
	<g>
		<g>
			<path style="fill-rule:evenodd;clip-rule:evenodd;fill:#817F6C;" d="M30.95,8.6l0.2-2.8l0.2,2.8l0.6,3
				C31.483,10.567,31.15,9.567,30.95,8.6z"/>
		</g>
	</g>
	<g>
		<g>
			<path style="fill-rule:evenodd;clip-rule:evenodd;fill:#817F6C;" d="M23.85,9.65l-2.7,0.65l2.65-1c0.267-0.1,1.267-0.35,3-0.75
				C25.767,9.017,24.783,9.383,23.85,9.65z"/>
		</g>
	</g>
	<g>
		<g>
			<path style="fill-rule:evenodd;clip-rule:evenodd;fill:#817F6C;" d="M23.85,1.2l2.55,5.5c-0.667-0.934-1.2-1.867-1.6-2.8
				L23.85,1.2z"/>
		</g>
	</g>
	<g>
		<g>
			<path style="fill-rule:evenodd;clip-rule:evenodd;fill:#817F6C;" d="M21.4,4.85l-1.85-1.2L21.6,4.6c0.2,0.133,0.8,0.75,1.8,1.85
				C23.267,6.45,22.6,5.917,21.4,4.85z"/>
		</g>
	</g>
	<g>
		<g>
			<path style="fill-rule:evenodd;clip-rule:evenodd;fill:#817F6C;" d="M17.2,10.8l2.95-2.75c-0.467,0.6-0.95,1.133-1.45,1.6
				L17.2,10.8z"/>
		</g>
	</g>
	<g>
		<g>
			<path style="fill-rule:evenodd;clip-rule:evenodd;fill:#817F6C;" d="M14.6,8.15l-1.425-0.275C13.386,7.892,13.878,7.9,14.65,7.9
				c0.133,0.033,0.45,0.05,0.95,0.05c0.324,0,0.549-0.008,0.675-0.025C15.688,8.075,15.13,8.15,14.6,8.15z"/>
		</g>
	</g>
	<g>
		<g>
			<path style="fill-rule:evenodd;clip-rule:evenodd;fill:#817F6C;" d="M11.3,12.15l-2.05,1.8C9.217,13.917,9.467,13.6,10,13
				c0.533-0.633,0.883-1.017,1.05-1.15L13.5,9.9C13.5,10,12.767,10.75,11.3,12.15z"/>
		</g>
	</g>
	<g>
		<g>
			<path style="fill-rule:evenodd;clip-rule:evenodd;fill:#817F6C;" d="M7.15,9.85C5.977,9.332,5.293,9.04,5.1,8.975L7.25,9.55
				C7.483,9.617,8.317,9.7,9.75,9.8C8.85,9.933,7.983,9.95,7.15,9.85z"/>
		</g>
	</g>
	<polygon style="fill-rule:evenodd;clip-rule:evenodd;fill:#817F6C;" points="93.3,1.65 93.2,12.6 100.8,10.95 106.45,15.3 
		112.4,14.05 110.55,16.25 127.15,16.5 110.65,20.45 98.75,15.45 87.35,16.25 	"/>
	<polygon style="fill-rule:evenodd;clip-rule:evenodd;fill:#656458;" points="93.3,1.65 90.9,13.55 99.4,13.65 110.8,18.95 
		127.15,16.5 110.65,21 98.6,15.95 86.7,16.65 	"/>
	<g>
		<g>
			<path style="fill-rule:evenodd;clip-rule:evenodd;fill:#817F6C;" d="M105.4,2.45L96.55,6.8l1.4-1.05c1.1-0.8,2.1-1.433,3-1.9
				C101.45,3.65,102.934,3.183,105.4,2.45z"/>
		</g>
	</g>
	<g>
		<g>
			<path style="fill-rule:evenodd;clip-rule:evenodd;fill:#817F6C;" d="M101.2,9.35l2.3,1.35l-2.5-1c-1.566-1.3-2.35-1.934-2.35-1.9
				C98.85,7.8,99.7,8.317,101.2,9.35z"/>
		</g>
	</g>
	<g>
		<g>
			<path style="fill-rule:evenodd;clip-rule:evenodd;fill:#817F6C;" d="M110.95,3.9l-7.95,3l1.3-0.65c1.066-0.533,2-0.95,2.8-1.25
				C107.533,4.833,108.816,4.467,110.95,3.9z"/>
		</g>
	</g>
	<g>
		<g>
			<path style="fill-rule:evenodd;clip-rule:evenodd;fill:#817F6C;" d="M107.1,11.8c0.167,0.2,0.584,0.867,1.25,2l-1.55-1.85
				l-1.35-2.3L107.1,11.8z"/>
		</g>
	</g>
	<g>
		<g>
			<polygon style="fill-rule:evenodd;clip-rule:evenodd;fill:#817F6C;" points="113.8,6.1 109.75,7.8 111.8,6.7 			"/>
		</g>
	</g>
	<g>
		<g>
			<polygon style="fill-rule:evenodd;clip-rule:evenodd;fill:#817F6C;" points="94.2,5.35 97.4,2.45 96.05,4 			"/>
		</g>
	</g>
	<g>
		<g>
			<path style="fill-rule:evenodd;clip-rule:evenodd;fill:#817F6C;" d="M94.75,8.85l4.4,1.85c-1.233-0.267-1.967-0.45-2.2-0.55
				L94.75,8.85z"/>
		</g>
	</g>
	<g>
		<g>
			<path style="fill-rule:evenodd;clip-rule:evenodd;fill:#817F6C;" d="M118.6,15.8c-2.166-0.733-3.25-1.083-3.25-1.05
				c0-0.033,0.367,0.017,1.101,0.15c0.833,0.167,1.583,0.333,2.25,0.5c0.366,0.033,1.35,0.267,2.95,0.7
				C119.917,15.967,118.9,15.867,118.6,15.8z"/>
		</g>
	</g>
	<g>
		<path style="fill-rule:evenodd;clip-rule:evenodd;fill:#B1BBA9;" d="M63.7,96.9l0.2,4.95c0.467,3.667,1.5,6.45,3.1,8.351
			c1.8,2.133,3.917,4.05,6.35,5.75c2.167,1.5,3.966,2.45,5.4,2.85l3.4,0.8L79.3,119.95c-1.434,0.133-3.05-0.084-4.85-0.65
			c-3.6-1.166-6.333-3.483-8.2-6.95c-1.9-3.5-3.183-7.149-3.85-10.949L62,96.75L63.7,96.9z"/>
		<path style="fill-rule:evenodd;clip-rule:evenodd;fill:#98A392;" d="M74.35,119.5l7.8,0.1c-1.7,0.534-3.517,1.217-5.45,2.051
			c-3.9,1.633-6.467,3.216-7.7,4.75c-1.933,2.399-3.983,6.366-6.15,11.899L61.7,138.9c-0.1-1.467-0.117-3.117-0.05-4.95
			c0.167-3.667,0.733-6.45,1.7-8.351c0.967-1.866,3.1-3.449,6.4-4.75C71.383,120.217,72.917,119.767,74.35,119.5z"/>
		<path style="fill-rule:evenodd;clip-rule:evenodd;fill:#767F74;" d="M62.8,102.35c0.9,4.134,2.167,7.284,3.8,9.45
			c2.1,2.767,4.85,4.95,8.25,6.55c1.7,0.834,3.183,1.367,4.45,1.601c-3.4,1.1-6.733,2.566-10,4.399
			c-2.066,1.134-3.95,3.9-5.65,8.301c-0.867,2.199-1.517,4.283-1.95,6.25c-0.367-1.801-0.917-3.767-1.65-5.9
			c-1.466-4.233-3.083-7.083-4.85-8.55c-2.534-2.066-5.434-3.8-8.7-5.2l-4.15-1.5l3.8-0.9c3.1-0.933,6-2.25,8.7-3.949
			c2.7-1.7,4.7-4.9,6-9.601L62,96.75L62.8,102.35z"/>
		<path style="fill-rule:evenodd;clip-rule:evenodd;fill:#21231F;" d="M61.75,110.25c1.833,0,3.467,0.917,4.9,2.75
			c1.3,1.7,1.917,3.417,1.85,5.15c-0.1,2.166-0.517,4-1.25,5.5c-1.033,2.066-2.6,3.199-4.7,3.399c-2.333,0.2-4.233-0.566-5.7-2.3
			c-1.467-1.667-2.184-3.884-2.15-6.65c0.033-2.5,0.85-4.483,2.45-5.949C58.483,110.884,60.017,110.25,61.75,110.25z"/>
		<path style="fill-rule:evenodd;clip-rule:evenodd;fill:#36392C;" d="M62.15,111.2c1.533-0.033,2.8,0.733,3.8,2.3
			c0.933,1.4,1.45,3.1,1.55,5.1c0.067,2.034-0.333,3.733-1.2,5.101c-1,1.566-2.433,2.35-4.3,2.35s-3.383-0.767-4.55-2.3
			c-1.034-1.366-1.567-3.05-1.6-5.05c0-2,0.517-3.7,1.55-5.101C58.533,112.033,60.117,111.233,62.15,111.2z"/>
		<path style="fill-rule:evenodd;clip-rule:evenodd;fill:#4E513E;" d="M61.25,112.25c1.367,0,2.583,0.55,3.65,1.65
			c0.967,1,1.567,2.166,1.8,3.5c0.2,1.033-0.15,1.75-1.05,2.149c-0.433,0.2-0.883,0.3-1.35,0.3c-0.066-1.566-0.35-3.083-0.85-4.55
			c-0.333-0.899-0.8-1.684-1.4-2.35L61.25,112.25z"/>
	</g>
</g>
</svg>
