<?xml version="1.0" encoding="iso-8859-1"?>
<!-- Generator: Adobe Illustrator 15.1.0, SVG Export Plug-In . SVG Version: 6.00 Build 0)  -->
<!DOCTYPE svg PUBLIC "-//W3C//DTD SVG 1.1//EN" "http://www.w3.org/Graphics/SVG/1.1/DTD/svg11.dtd">
<svg version="1.1" id="buildings-back" xmlns="http://www.w3.org/2000/svg" xmlns:xlink="http://www.w3.org/1999/xlink" x="0px"
	 y="0px" width="135.5px" height="50.8px" viewBox="0 0 135.5 50.8" style="enable-background:new 0 0 135.5 50.8;"
	 xml:space="preserve">
<g>
	<polygon style="fill-rule:evenodd;clip-rule:evenodd;fill:#BA9F9D;" points="122.55,31.15 130.85,21.9 135.5,50.6 10.65,50.6 
		15.75,19.15 62.4,30.25 67.95,21.9 98.5,33 107.75,22.85 	"/>
	<polygon style="fill-rule:evenodd;clip-rule:evenodd;fill:#A88F8E;" points="15.75,19.15 10.65,50.6 0,39 2.55,12.9 6.5,22.85 	"/>
	<g>
		<path style="fill-rule:evenodd;clip-rule:evenodd;fill:#A39291;" d="M16.55,32.85l-0.55,10l23.7,0.801L38.85,35.1l-9.9-1.3
			L16.55,32.85z M62,34.75h-0.7l-15.9,1.2l-5.6-0.75l0.8,8.5l22.35,0.25L62,34.75z M83.05,35.9l0.15,7.8l18.85-0.2l-0.149-6.9
			L99,36.7L83.05,35.9z M82.3,43.7L82.15,35.85L62.9,34.8l1,9.101L82.3,43.7z M122.85,43.9l-0.1-8.45l-1.45,0.2
			c-0.399,0.1-6.566,0.399-18.5,0.899l0.15,6.9L122.85,43.9z M129.6,24.5h-1.1l0.85-0.9l1.75-0.05l0.15,0.9h-0.7l0.15,9.149l2-0.25
			l0.149,0.9l-9.199,1.1l0.149,8.601l10.65,0.25L134.6,45.1l-2.35-0.05l0.35,5.55h-0.949l-0.351-5.55l-18.95-0.45l0.25,6H111.7
			l-0.3-6.05L94.7,44.5v6.1h-0.9v-6.1l-20.1,0.25L73.6,50.6H72.7l0.1-5.85L52.25,45l-0.35,5.6H51l0.35-5.6l-20.5-0.7l-0.1,6.3h-0.9
			l0.05-6.35L11.85,43.6v-0.5L11.9,42.7l3.15,0.1l0.6-10.05l-2.1-0.15L13.7,31.7L29.95,33l0.55-8.55l-11,0.15l-4.5-1l0.15-0.9
			l4.45,1l14.35-0.25l3.55,0.85l-6.05,0.1l-0.6,8.75l14.6,1.899l5.9-0.45l-0.1-7l0.95,0.2l0.05,6.7l9.05-0.7l9.95,0.55V25.1L66,24.9
			l0.6-0.9l7.9,0.3l2.8,1l-5.1-0.2v9.3l19.7,1.05L91.6,30.5l0.95,0.35l0.3,4.65L99,35.8l11.3-0.5l-0.25-10.15l-4.649,0.3l0.85-1
			l3.95-0.2l1.5,0.8l-0.75,0.05l0.25,10.15c6.399-0.3,9.7-0.467,9.899-0.5c0.267-0.1,3.15-0.45,8.65-1.05L129.6,24.5z"/>
	</g>
	<g>
		<polygon style="fill-rule:evenodd;clip-rule:evenodd;fill:#968686;" points="15.1,22.65 14.7,23.5 10.05,21.4 11.25,20.95 		"/>
		<polygon style="fill-rule:evenodd;clip-rule:evenodd;fill:#968686;" points="4.55,17.9 5,19.15 2.05,17.8 2.15,16.85 		"/>
		<polygon style="fill-rule:evenodd;clip-rule:evenodd;fill:#968686;" points="13.65,31.9 13.3,32.5 1.35,25.5 1.4,24.5 13.7,31.7 
					"/>
		<polygon style="fill-rule:evenodd;clip-rule:evenodd;fill:#968686;" points="11.85,43.15 11.55,43.5 0.5,34.25 0.6,33.1 
			11.95,42.6 		"/>
	</g>
	<path style="fill-rule:evenodd;clip-rule:evenodd;fill:#776653;" d="M85.2,0.7l6.75,50.1l-28.6-0.35
		c-0.8-7.934-1.4-15.983-1.8-24.15C60.717,9.933,61.317,1.167,63.35,0c0.3-0.2,0.967,3.5,2,11.1c0.533,3.8,1.017,7.617,1.45,11.45
		l1.75-12.3l3.8,8.3l1.051-13l4.35,10.6l2.4-8.85L84,19.6L85.2,0.7z"/>
	<path style="fill-rule:evenodd;clip-rule:evenodd;fill:#51473B;" d="M84.5,26.35c1.333,0.101,2.116,0.867,2.35,2.301
		c0.267,1.399-0.449,2.017-2.149,1.85c-1.7-0.134-2.483-0.884-2.351-2.25C82.517,26.917,83.233,26.283,84.5,26.35z"/>
</g>
</svg>
