<?xml version="1.0" encoding="iso-8859-1"?>
<!-- Generator: Adobe Illustrator 15.1.0, SVG Export Plug-In . SVG Version: 6.00 Build 0)  -->
<!DOCTYPE svg PUBLIC "-//W3C//DTD SVG 1.1//EN" "http://www.w3.org/Graphics/SVG/1.1/DTD/svg11.dtd">
<svg version="1.1" id="mountains" xmlns="http://www.w3.org/2000/svg" xmlns:xlink="http://www.w3.org/1999/xlink" x="0px" y="0px"
	 width="288px" height="756.5px" viewBox="0 0 288 756.5" style="enable-background:new 0 0 288 756.5;" xml:space="preserve">
<g>
	<path style="fill-rule:evenodd;clip-rule:evenodd;fill:#7EA497;" d="M112,210c-5.067-1.933-9.717,0.35-13.95,6.85
		c-3.867,5.933-6.633,14.05-8.3,24.35c-1.667,10.4-1.717,20.15-0.15,29.25c1.733,10.1,5.2,17.283,10.4,21.55
		c5.2,4.233,10.133,2.967,14.8-3.8c4.233-6.133,7.3-15.034,9.2-26.7c1.933-11.8,2-22.45,0.2-31.95
		C122.167,218.85,118.1,212.333,112,210z M257.75,28C268.917,18.333,279,9,288,0l-82,104l-2.55,6.2c-1.867,5.066-3.267,10-4.2,14.8
		c-3,15.333-0.75,26.333,6.75,33s15.75,23,24.75,49c4.5,13,8.25,25.333,11.25,37c-7-11.333-14.583-21.833-22.75-31.5
		c-16.333-19.333-27.417-24.833-33.25-16.5s-7.25,25.167-4.25,50.5c1.5,12.667,3.583,24.5,6.25,35.5
		c-4.333-8-8.917-14.833-13.75-20.5c-9.667-11.333-15.75-11.167-18.25,0.5c-1.5,7-1.783,15.167-0.85,24.5
		c0.933,9.333,2.966,18.5,6.1,27.5c3.333,9.567,7.483,17.733,12.45,24.5c5.5,7.467,11.6,12.633,18.3,15.5
		c11.667,5,26.833,0.167,45.5-14.5c9.333-7.333,17.5-15.167,24.5-23.5l-40,138l34,20l-34,78l34,86l4,118.5H0
		c12.333-14.733,25.167-31.233,38.5-49.5C65.167,670.5,81,643.5,86,626s0.167-30.417-14.5-38.75c-4.567-2.6-9.85-4.583-15.85-5.95
		L48,580c11-6.333,22.417-13.75,34.25-22.25c23.667-17,37.583-30.917,41.75-41.75s4.417-32.417,0.75-64.75
		c-1.133-10.1-2.6-20.667-4.4-31.7L118,406l26-12l-4-68c-4.067-0.567-9.083-1.667-15.05-3.3c-11.934-3.267-22.583-7.5-31.95-12.7
		c-30-16.667-41.667-40-35-70s22-49.333,46-58c7.5-2.7,15.417-4.183,23.75-4.45c4.167-0.1,7.583,0.05,10.25,0.45l-4-98l27.25-6
		c20.333-4.667,35.917-8.667,46.75-12S235.417,47.333,257.75,28z"/>
	<g>
		<path style="fill-rule:evenodd;clip-rule:evenodd;fill:#649180;" d="M135.75,230.65c-0.8-7.467-2.083-13.55-3.85-18.25
			c-1.967-5.133-4.267-7.933-6.9-8.4c-4.567-0.833-8.933-0.25-13.1,1.75L107,209l-0.15,0.6c-4.333,0.933-8.184,5-11.55,12.2
			c-3.1,6.733-5.167,14.817-6.2,24.25c-1.067,9.733-0.767,18.617,0.9,26.65c1.867,8.966,5.2,15.4,10,19.3
			c1.733,2.467,4.117,3.967,7.15,4.5c2.967,0.5,6.083-0.033,9.35-1.6c7.7-3.7,13.2-11,16.5-21.9
			C136.6,261.233,137.517,247.117,135.75,230.65z M277.95,12.75c-8.934,10.867-17.7,20.55-26.3,29.05
			C239.517,53.867,228.634,62.6,219,68c-13.333,7.5-26.667,13.583-40,18.25L163,91c-1,12.333-1.866,25.917-2.6,40.75
			c-1.5,29.667-1.634,50.75-0.4,63.25c1.267,12.5,3.483,23.083,6.65,31.75c1.566,4.333,3.017,7.417,4.35,9.25
			c-4-4-8.167-7.367-12.5-10.1c-8.667-5.5-13.833-5.133-15.5,1.1c-1,3.8-1.483,10.817-1.45,21.05c0.034,10.434,0.6,21.8,1.7,34.1
			c2.767,30.6,7.35,53.217,13.75,67.85c5.833,13.333,19.083,20,39.75,20c10.333,0,20.083-1.333,29.25-4l-53,97l23,1l-8.05,15.15
			c-6.267,12.233-11.75,23.767-16.45,34.6c-15,34.667-19.167,55.75-12.5,63.25s16.333,3.583,29-11.75
			c3.967-4.8,7.983-10.45,12.05-16.95L205,540l-9.25,22.55C188.417,580.65,181.833,597.467,176,613c-18.667,49.667-26.333,77-23,82
			s12.5-2.167,27.5-21.5c4.7-6.033,9.684-12.934,14.95-20.7L202,643l-5,54l34-44l29,103.5L233,714l-22,18l-32-22l-34,22l-14-24
			l-16,4l45-108l-5.5,7.75c-4.467,6.2-8.75,11.833-12.85,16.9C128.483,644.816,119.6,652.267,115,651
			c-4.567-1.233-3.1-12.1,4.4-32.6c2.333-6.434,5.133-13.434,8.4-21l4.2-9.4c-2.333,1.667-4.45,2.25-6.35,1.75
			c-3.833-1-4.717-6.917-2.65-17.75c2.1-10.833,11.567-30.417,28.4-58.75c5.233-8.866,10.899-18.066,17-27.6L176,474l-39,19
			c0.833-6.167,1.717-13.45,2.65-21.85c1.833-16.834,2.95-30.884,3.35-42.15c0.433-11.233,9.4-22.767,26.9-34.6
			c5.466-3.7,11.449-7.217,17.949-10.551L196,380l-40,5l-17-74c-1,0.333-2.867,0.417-5.6,0.25c-5.5-0.333-12.633-1.75-21.4-4.25
			c-20.567-5.867-33.9-22.533-40-50c-2.867-12.933-0.4-25.467,7.4-37.6c7.167-11.267,17.367-20.066,30.6-26.4
			c10.433-5,20.4-6.5,29.9-4.5c4.734,1,8.433,2.5,11.1,4.5V92l-17-12l27.25-6c20.333-4.667,35.917-8.667,46.75-12
			s27.417-14.667,49.75-34C268.917,18.333,279,9,288,0L277.95,12.75z"/>
		<path style="fill-rule:evenodd;clip-rule:evenodd;fill:#649180;" d="M186,196l-0.25,0.4c0.5-6.6,2.717-11.417,6.65-14.45
			c4.866-3.767,10.733-2.417,17.6,4.05c7.5,7.1,15.083,18.9,22.75,35.4c3.833,8.233,6.917,15.767,9.25,22.6
			c-7-11.333-14.583-21.833-22.75-31.5C202.917,193.167,191.833,187.667,186,196z"/>
		<path style="fill-rule:evenodd;clip-rule:evenodd;fill:#649180;" d="M179.25,262.75c3.333,6.333,6.25,12.75,8.75,19.25
			c-3.967-7.333-8.25-13.8-12.85-19.4c-9.167-11.2-15.267-12.434-18.301-3.7c0.434-8.533,2.483-13.167,6.15-13.9
			C167.167,244.167,172.583,250.083,179.25,262.75z"/>
		<path style="fill-rule:evenodd;clip-rule:evenodd;fill:#649180;" d="M229,353c-7,2.233-12.917,3.6-17.75,4.1
			c-5.467,0.533-10.083,0.033-13.85-1.5c11.533,1.8,25.767-4.25,42.699-18.15c8.467-6.967,15.767-14.117,21.9-21.45l-2.05,4.8
			c-1.834,3.9-3.9,7.6-6.2,11.1C246.417,343.067,238.167,350.1,229,353z"/>
		<path style="fill-rule:evenodd;clip-rule:evenodd;fill:#649180;" d="M125,204c2.633,0.467,4.933,3.267,6.9,8.4
			c1.767,4.7,3.05,10.783,3.85,18.25c1.767,16.467,0.85,30.583-2.75,42.35c-3.3,10.9-8.8,18.2-16.5,21.9
			c-3.267,1.567-6.383,2.1-9.35,1.6c-3.033-0.533-5.417-2.033-7.15-4.5c5.2,4.233,10.133,2.967,14.8-3.8
			c4.233-6.133,7.3-15.034,9.2-26.7c1.933-11.8,2-22.45,0.2-31.95c-2.034-10.7-6.1-17.216-12.2-19.55
			c-1.733-0.633-3.45-0.767-5.15-0.4L107,209l4.9-3.25C116.067,203.75,120.433,203.167,125,204z"/>
		<path style="fill-rule:evenodd;clip-rule:evenodd;fill:#577D6F;" d="M125,204c2.633,0.467,4.933,3.267,6.9,8.4
			c1.767,4.7,3.05,10.783,3.85,18.25c1.767,16.467,0.85,30.583-2.75,42.35c-3.3,10.9-8.8,18.2-16.5,21.9
			c-3.267,1.567-6.383,2.1-9.35,1.6c-3.033-0.533-5.417-2.033-7.15-4.5c5.2,4.233,10.133,2.967,14.8-3.8
			c4.233-6.133,7.3-15.034,9.2-26.7c1.933-11.8,2-22.45,0.2-31.95c-2.034-10.7-6.1-17.216-12.2-19.55
			c-1.733-0.633-3.45-0.767-5.15-0.4L107,209l4.9-3.25C116.067,203.75,120.433,203.167,125,204z"/>
		<path style="fill-rule:evenodd;clip-rule:evenodd;fill:#649180;" d="M134,80l17,12v101c-2.667-2-6.366-3.5-11.1-4.5
			c-9.5-2-19.467-0.5-29.9,4.5c-13.233,6.333-23.433,15.133-30.6,26.4c-7.8,12.133-10.267,24.667-7.4,37.6
			c6.1,27.467,19.433,44.133,40,50c8.767,2.5,15.9,3.917,21.4,4.25c2.733,0.167,4.6,0.083,5.6-0.25l17,74l40-5l-8.15,3.85
			c-6.5,3.334-12.483,6.851-17.949,10.551c-17.5,11.833-26.467,23.366-26.9,34.6c-0.4,11.267-1.517,25.316-3.35,42.15
			c-0.933,8.399-1.816,15.683-2.65,21.85l39-19l-7.6,11.65c-6.101,9.533-11.767,18.733-17,27.6
			c-16.833,28.333-26.3,47.917-28.4,58.75c-2.067,10.833-1.183,16.75,2.65,17.75c1.9,0.5,4.017-0.083,6.35-1.75l-4.2,9.4
			c-3.267,7.566-6.066,14.566-8.4,21c-7.5,20.5-8.967,31.366-4.4,32.6c4.6,1.267,13.483-6.184,26.65-22.35
			c4.1-5.067,8.383-10.7,12.85-16.9L160,604l-45,108l16-4l14,24l34-22l32,22l22-18l27,42.5H0c12.333-14.733,25.167-31.233,38.5-49.5
			C65.167,670.5,81,643.5,86,626s0.167-30.417-14.5-38.75c-4.567-2.6-9.85-4.583-15.85-5.95L48,580
			c11-6.333,22.417-13.75,34.25-22.25c23.667-17,37.583-30.917,41.75-41.75s4.417-32.417,0.75-64.75
			c-1.133-10.1-2.6-20.667-4.4-31.7L118,406l26-12l-4-68c-4.067-0.567-9.083-1.667-15.05-3.3c-11.934-3.267-22.583-7.5-31.95-12.7
			c-30-16.667-41.667-40-35-70s22-49.333,46-58c7.5-2.7,15.417-4.183,23.75-4.45c4.167-0.1,7.583,0.05,10.25,0.45L134,80z"/>
		<path style="fill-rule:evenodd;clip-rule:evenodd;fill:#577D6F;" d="M134,80l17,12v101c-2.667-2-6.366-3.5-11.1-4.5
			c-9.5-2-19.467-0.5-29.9,4.5c-13.233,6.333-23.433,15.133-30.6,26.4c-7.8,12.133-10.267,24.667-7.4,37.6
			c6.1,27.467,19.433,44.133,40,50c8.767,2.5,15.9,3.917,21.4,4.25c2.733,0.167,4.6,0.083,5.6-0.25l17,74l40-5l-8.15,3.85
			c-6.5,3.334-12.483,6.851-17.949,10.551c-17.5,11.833-26.467,23.366-26.9,34.6c-0.4,11.267-1.517,25.316-3.35,42.15
			c-0.933,8.399-1.816,15.683-2.65,21.85l39-19l-7.6,11.65c-6.101,9.533-11.767,18.733-17,27.6
			c-16.833,28.333-26.3,47.917-28.4,58.75c-2.067,10.833-1.183,16.75,2.65,17.75c1.9,0.5,4.017-0.083,6.35-1.75l-4.2,9.4
			c-3.267,7.566-6.066,14.566-8.4,21c-7.5,20.5-8.967,31.366-4.4,32.6c4.6,1.267,13.483-6.184,26.65-22.35
			c4.1-5.067,8.383-10.7,12.85-16.9L160,604l-45,108l16-4l14,24l34-22l32,22l22-18l27,42.5H0c12.333-14.733,25.167-31.233,38.5-49.5
			C65.167,670.5,81,643.5,86,626s0.167-30.417-14.5-38.75c-4.567-2.6-9.85-4.583-15.85-5.95L48,580
			c11-6.333,22.417-13.75,34.25-22.25c23.667-17,37.583-30.917,41.75-41.75s4.417-32.417,0.75-64.75
			c-1.133-10.1-2.6-20.667-4.4-31.7L118,406l26-12l-4-68c-4.067-0.567-9.083-1.667-15.05-3.3c-11.934-3.267-22.583-7.5-31.95-12.7
			c-30-16.667-41.667-40-35-70s22-49.333,46-58c7.5-2.7,15.417-4.183,23.75-4.45c4.167-0.1,7.583,0.05,10.25,0.45L134,80z"/>
	</g>
	<path style="fill-rule:evenodd;clip-rule:evenodd;fill:#649180;" d="M210,472l-3.55,15.3c-2.967,12.134-5.983,23.084-9.05,32.851
		C187.566,551.316,179.1,564.6,172,560c-7.066-4.566-2.85-20.6,12.65-48.1c4.833-8.601,10.5-17.834,17-27.7L210,472z"/>
	<path style="fill-rule:evenodd;clip-rule:evenodd;fill:#649180;" d="M177,96l30-11l-20,18c-0.5,15.333-1.583,30.8-3.25,46.4
		c-3.333,31.167-7.917,47.367-13.75,48.6c-5.833,1.267-6.417-15.35-1.75-49.85C170.583,130.883,173.5,113.5,177,96z"/>
	<path style="fill-rule:evenodd;clip-rule:evenodd;fill:#649180;" d="M235,363l0.5,9.4c0,7.5-0.833,14.367-2.5,20.6
		c-1.667,6.267-8.333,18.316-20,36.15c-5.833,8.899-11.5,17.183-17,24.85L235,363z"/>
	<path style="fill-rule:evenodd;clip-rule:evenodd;fill:#649180;" d="M202,576l-2.4,12.4c-2.033,10-4.149,19.25-6.35,27.75
		c-7,27.166-13.417,41.783-19.25,43.85c-5.833,2.1-2.917-11.267,8.75-40.1c3.634-9.034,7.934-19.051,12.9-30.051L202,576z"/>
	<path style="fill-rule:evenodd;clip-rule:evenodd;fill:#649180;" d="M219.15,615.65c-1.167,20.833-4.884,35.616-11.15,44.35
		c-0.767,1.1,0.833-10.733,4.8-35.5L219,587l0.4,8.45C219.566,602.384,219.483,609.116,219.15,615.65z"/>
	<polygon style="fill-rule:evenodd;clip-rule:evenodd;fill:#93BCAF;" points="239,478 221,460 251,476 212,548 	"/>
	<path style="fill-rule:evenodd;clip-rule:evenodd;fill:#93BCAF;" d="M219,575l4.3,7.15c3.434,5.899,6.667,11.767,9.7,17.6
		c9.667,18.667,15.333,33.417,17,44.25s2,23.083,1,36.75c-0.5,6.833-1.167,12.583-2,17.25c-0.333-6.333-1-13.833-2-22.5
		c-2-17.333-4.667-31.833-8-43.5s-7.667-24.667-13-39L219,575z"/>
	<path style="fill-rule:evenodd;clip-rule:evenodd;fill:#93BCAF;" d="M193.8,164.15c-2.066-1.566-3.233-2.733-3.5-3.5
		c-0.333-0.933,0.566-1.483,2.7-1.65c5.833-0.4,12.25,4.817,19.25,15.65c3.5,5.4,6.417,10.85,8.75,16.35c-6-6.667-11-12.333-15-17
		C205.1,172.933,201.033,169.65,193.8,164.15z"/>
</g>
</svg>
