<?xml version="1.0" encoding="iso-8859-1"?>
<!-- Generator: Adobe Illustrator 15.1.0, SVG Export Plug-In . SVG Version: 6.00 Build 0)  -->
<!DOCTYPE svg PUBLIC "-//W3C//DTD SVG 1.1//EN" "http://www.w3.org/Graphics/SVG/1.1/DTD/svg11.dtd">
<svg version="1.1" id="buildings-mid" xmlns="http://www.w3.org/2000/svg" xmlns:xlink="http://www.w3.org/1999/xlink" x="0px"
	 y="0px" width="69.45px" height="141.35px" viewBox="0 0 69.45 141.35" style="enable-background:new 0 0 69.45 141.35;"
	 xml:space="preserve">
<g>
	<path style="fill-rule:evenodd;clip-rule:evenodd;fill:#6B6D5F;" d="M63.55,37.25c0.934,7.5,1.084,12.867,0.45,16.1
		c-0.467,2.3-1.9,4.267-4.3,5.9c-2.134,1.4-4.2,2.1-6.2,2.1c-1.467,0-3.316-0.083-5.55-0.25L45,60.85l-2,25.5
		c-0.267,2.567,0.75,5.217,3.05,7.95c2.334,2.767,4.601,3.9,6.8,3.4c1.434-0.334,3.233-4.684,5.4-13.05
		c2.1-8.2,4.017-12.301,5.75-12.301c2.1,0,2.384,5,0.85,15c-0.933,5.967-2.149,11.967-3.649,18c-0.434,1.7-3.334,2.267-8.7,1.7
		c-3.134-0.333-6.3-0.899-9.5-1.7c-0.967-0.233-1.75,3.117-2.35,10.051c-0.634,6.8-0.684,11.783-0.15,14.949
		c0.434,2.5,1.233,4.75,2.4,6.75c0.566,1,1.1,1.75,1.6,2.25c-3.767-1.433-6.483-1.933-8.15-1.5c-0.633,0.2-1.8,0.834-3.5,1.9
		c-0.833,0.566-1.617,1.1-2.35,1.6c-0.2-0.666-0.533-1.316-1-1.949c-0.967-1.233-2.183-1.75-3.65-1.551
		c-1.467,0.2-3.3,0.517-5.5,0.95l-2.85,0.55c1.5-1.833,3.067-3.85,4.7-6.05c3.233-4.434,5.167-7.583,5.8-9.45
		c0.9-2.733,1.933-9.566,3.1-20.5c1.367-12.533,1.5-20.866,0.4-25c-0.567-2.1-2.3-3.899-5.2-5.399
		c-1.667-0.867-4.683-1.983-9.05-3.35c-4.167-1.3-7.05-2.417-8.65-3.35c-2.633-1.467-4-3.267-4.1-5.4
		C4.3,56.883,5.233,47.7,7.3,33.3c1.067-7.2,2.133-14.017,3.2-20.45l3.65-0.1c2.333,0.333,3.283,1.533,2.85,3.6
		c-1.733,7.333-3.067,13.8-4,19.4c-1.767,10.733-1.6,16.933,0.5,18.6c2.1,1.667,5.983,3,11.65,4c2.833,0.5,5.45,0.833,7.85,1l3-23.5
		c-1.733,0.267-3.55,0.316-5.45,0.15c-3.733-0.333-5.917-1.55-6.55-3.65c-0.633-2.067,0.267-7.684,2.7-16.85
		c1.2-4.6,2.466-8.983,3.8-13.15l2.75-0.45c1.667,0.1,2.083,1.083,1.25,2.95c-1.733,3.9-3.1,8.083-4.1,12.55
		c-1.433,6.2-1.066,9.517,1.1,9.95c3.333,0.667,5.233,0.95,5.7,0.85c0.399-3.133,0.967-6.233,1.7-9.3c1.533-6.1,3.233-8.95,5.1-8.55
		c1,0.233,1.483,2.367,1.45,6.4c-0.033,2.1-0.3,6.483-0.8,13.15C43.616,42.667,44.066,49.317,46,49.85
		c3.366,0.933,5.616,1.433,6.75,1.5c1.833,0.133,3.083-0.367,3.75-1.5c0.267-0.434,0.316-4.917,0.15-13.45
		c-0.167-7.7,0.616-11.55,2.35-11.55C61,24.85,62.517,28.983,63.55,37.25z"/>
	<path style="fill-rule:evenodd;clip-rule:evenodd;fill:#5C5F52;" d="M39.85,74.35l0.7,2.351c0.467,1.7,0.733,2.866,0.8,3.5
		c0.067,0.6-0.383,6.116-1.35,16.55c-0.5,5.533-1.167,12.634-2,21.3c-0.267,3.267,0.017,7.467,0.85,12.601
		c0.434,2.566,0.884,4.8,1.351,6.699c-0.434-0.199-0.95-0.383-1.55-0.55c-1.134-0.333-2.017-0.366-2.65-0.1s-1.35,0.733-2.15,1.399
		c-0.4,0.367-0.733,0.684-1,0.95c1.667-6.566,2.833-13.184,3.5-19.85c0.434-4.167,1.15-12.884,2.15-26.15L39.85,74.35z"/>
	<path style="fill-rule:evenodd;clip-rule:evenodd;fill:#5C5F52;" d="M64.5,76.7l-1,8.2c-0.767,5.767-1.366,9.416-1.8,10.949
		C61.3,97.384,60.6,98.4,59.6,98.9c-0.5,0.267-0.966,0.366-1.399,0.3l2.149-5.5c0.434-1.101,1.25-4.267,2.45-9.5L64.5,76.7z"/>
	<path style="fill-rule:evenodd;clip-rule:evenodd;fill:#5C5F52;" d="M60.5,48.05c0.366-1.533,0.417-5.133,0.15-10.8L60.2,29.2
		c2.1,12.667,2.866,20,2.3,22c-0.333,1.267-1.184,2.033-2.55,2.3L58,53.55C59.134,52.317,59.967,50.483,60.5,48.05z"/>
	<path style="fill-rule:evenodd;clip-rule:evenodd;fill:#5C5F52;" d="M15,15.2c0.7,0.2,0.367,3.7-1,10.5
		c-0.7,3.4-1.467,6.783-2.3,10.15c0.333-3.5,0.733-6.983,1.2-10.45C13.767,18.433,14.467,15.033,15,15.2z"/>
	<path style="fill-rule:evenodd;clip-rule:evenodd;fill:#5C5F52;" d="M44,13.7c0.434-0.133,0.483,1.833,0.15,5.9
		c-0.167,2.3-0.483,5.783-0.95,10.45c-0.334,3.767-0.783,11.367-1.351,22.8L41.7,43.2L38.85,58.05
		C39.517,50.717,40.233,43.367,41,36C42.533,21.267,43.533,13.833,44,13.7z"/>
	<path style="fill-rule:evenodd;clip-rule:evenodd;fill:#5C5F52;" d="M33,4.2c0.7,0.1,0.067,2.65-1.9,7.65c-0.967,2.5-2,5-3.1,7.5
		c0.633-2.533,1.3-5.083,2-7.65C31.467,6.633,32.467,4.133,33,4.2z"/>
	<g>
		<path style="fill-rule:evenodd;clip-rule:evenodd;fill:#5C5F52;" d="M7.3,33.3c1.067-7.2,2.133-14.017,3.2-20.45l1.05-0.15
			c0.833-0.067,1.6-0.067,2.3,0c-0.7,0.333-1.2,1.05-1.5,2.15c-0.267,1.133-0.9,9-1.9,23.6C9.95,45.783,9.467,52.983,9,60.05
			l12.85,4.4c8.7,3.3,13.417,5.883,14.15,7.75c1.233,3,0.184,21.666-3.15,56c-0.333,2.333-1.117,6.717-2.35,13.149
			c-0.2-0.666-0.533-1.316-1-1.949c-0.967-1.233-2.183-1.75-3.65-1.551c-1.467,0.2-3.3,0.517-5.5,0.95l-2.85,0.55
			c1.5-1.833,3.067-3.85,4.7-6.05c3.233-4.434,5.167-7.583,5.8-9.45c0.9-2.733,1.933-9.566,3.1-20.5c1.367-12.533,1.5-20.866,0.4-25
			c-0.567-2.1-2.3-3.899-5.2-5.399c-1.667-0.867-4.683-1.983-9.05-3.35c-4.167-1.3-7.05-2.417-8.65-3.35
			c-2.633-1.467-4-3.267-4.1-5.4C4.3,56.883,5.233,47.7,7.3,33.3z"/>
		<path style="fill-rule:evenodd;clip-rule:evenodd;fill:#5C5F52;" d="M43.8,10.35c-1.033,1.033-1.684,2.316-1.95,3.85l-3,15.65
			c-0.333-0.434-0.883-0.983-1.649-1.65c0.366-3.034,0.916-6.05,1.649-9.05C40.35,13.117,42,10.183,43.8,10.35z"/>
		<path style="fill-rule:evenodd;clip-rule:evenodd;fill:#5C5F52;" d="M30.5,6.7c-1.7,5.733-2.817,9.85-3.35,12.35
			c-1.367,6.534-1.25,10.367,0.35,11.5c1.6,1.1,3.667,1.85,6.2,2.25c1.267,0.2,2.366,0.284,3.3,0.25l1,0.15l-2.95,28.35
			c0-0.767-0.684-1.5-2.05-2.2l3-23.5c-1.733,0.267-3.55,0.316-5.45,0.15c-3.733-0.333-5.917-1.55-6.55-3.65
			c-0.633-2.067,0.267-7.684,2.7-16.85c1.2-4.6,2.466-8.983,3.8-13.15l0.8-0.2c0.633-0.133,1.184-0.2,1.65-0.2
			C32.083,2.65,31.267,4.233,30.5,6.7z"/>
		<path style="fill-rule:evenodd;clip-rule:evenodd;fill:#5C5F52;" d="M58.5,33.05c0.5,5.767,0.684,9.55,0.55,11.35
			c-0.3,4.6-1.75,6.883-4.35,6.85c0.833-0.233,1.434-0.7,1.8-1.4c0.267-0.434,0.316-4.917,0.15-13.45
			c-0.167-7.7,0.616-11.55,2.35-11.55l-0.45,1.85C58.316,28.433,58.3,30.55,58.5,33.05z"/>
		<path style="fill-rule:evenodd;clip-rule:evenodd;fill:#5C5F52;" d="M61.2,57.25c0.934-0.533,1.6-1.1,2-1.7
			c-0.934,1.733-2.434,3.167-4.5,4.3c-1.834,1-3.566,1.5-5.2,1.5c-1.467,0-3.316-0.083-5.55-0.25L45,60.85v0.25
			c-0.566-0.467-0.866-1.267-0.9-2.4l0.101-1.5l2.85,0.6c2.4,0.467,4.884,0.767,7.45,0.9C57.1,58.833,59.333,58.35,61.2,57.25z"/>
		<path style="fill-rule:evenodd;clip-rule:evenodd;fill:#5C5F52;" d="M51.2,97.7c0.566,0.1,1.116,0.1,1.649,0
			c1.434-0.334,3.233-4.684,5.4-13.05c2.1-8.2,4.017-12.301,5.75-12.301c0.167,0,0.35,0.067,0.55,0.2c-1,0.767-1.684,2.15-2.05,4.15
			c-0.366,2.333-1.4,6.217-3.1,11.649c-1.767,5.767-3,8.884-3.7,9.351c-0.767,0.533-1.533,0.8-2.3,0.8
			C52.6,98.533,51.866,98.267,51.2,97.7z"/>
		<path style="fill-rule:evenodd;clip-rule:evenodd;fill:#5C5F52;" d="M61.4,104.6l-0.2,0.75c-0.434,1.7-3.334,2.267-8.7,1.7
			c-3.134-0.333-6.3-0.899-9.5-1.7c-0.134,0-0.3,0.101-0.5,0.301c-0.167-0.601-0.184-1.217-0.05-1.851l0.25-0.75l4,0.851
			c3.166,0.6,6,1.033,8.5,1.3C58.233,105.533,60.3,105.333,61.4,104.6z"/>
	</g>
	<path style="fill-rule:evenodd;clip-rule:evenodd;fill:#505346;" d="M7.85,39.35C8.75,32.517,9.7,25.8,10.7,19.2
		C9.967,26,9.267,32.883,8.6,39.85c-1.3,13.933-1.717,21.267-1.25,22c0.467,0.767,4.633,2.55,12.5,5.35
		c3.933,1.433,7.816,2.767,11.65,4c0.7,0.267,1,0.6,0.9,1c-0.066,0.2-0.2,0.366-0.4,0.5c-4.1-1.233-8.267-2.6-12.5-4.1
		c-8.433-3-12.933-5.184-13.5-6.55C5.467,60.65,6.083,53.083,7.85,39.35z"/>
	<path style="fill-rule:evenodd;clip-rule:evenodd;fill:#505346;" d="M31.55,34.85c-2.966-0.167-4.917-0.717-5.85-1.65
		c-1.133-1.1-1.45-3.35-0.95-6.75l1.1-4.75l-0.55,4.4c-0.2,3.1,0.15,5.017,1.05,5.75c0.833,0.7,2.617,1.3,5.35,1.8
		c1.333,0.267,2.6,0.45,3.8,0.55l0.2,0.65C34.4,34.95,33.017,34.95,31.55,34.85z"/>
	<path style="fill-rule:evenodd;clip-rule:evenodd;fill:#505346;" d="M57.2,32.85l1.149,8.7c0.233,1.667-0.05,3.333-0.85,5
		L57.2,32.85z"/>
	<polygon style="fill-rule:evenodd;clip-rule:evenodd;fill:#505346;" points="34.7,58.55 33.85,57.05 36.5,37.85 	"/>
	<path style="fill-rule:evenodd;clip-rule:evenodd;fill:#767867;" d="M33.4,66.2c0.833,0.867,1.7,1.7,2.6,2.5
		c-5.767-3.567-10.033-5.9-12.8-7c-1.733-0.7-4.034-1.934-6.9-3.7l-3.8-2.45l2.6,1.3c1.967,0.933,3.55,1.6,4.75,2
		c1.9,0.667,6.283,1.95,13.15,3.85l-1.5,0.65C31.1,63.55,31.733,64.5,33.4,66.2z"/>
	<path style="fill-rule:evenodd;clip-rule:evenodd;fill:#767867;" d="M29.2,27.85l7.649,1.2l-2.649,0.8l2.149,1.85
		C32.583,29.933,30.2,28.65,29.2,27.85z"/>
	<path style="fill-rule:evenodd;clip-rule:evenodd;fill:#767867;" d="M53.7,53.05c-1.4,0.434-1.601,0.9-0.601,1.4
		c0.29,0.135,0.624,0.26,1,0.375l-7.75-1.975L53.7,53.05z"/>
	<polygon style="fill-rule:evenodd;clip-rule:evenodd;fill:#767867;" points="43.2,62.05 42,79.85 40.85,74.2 	"/>
	<path style="fill-rule:evenodd;clip-rule:evenodd;fill:#767867;" d="M45,96.35l2.2,1.601c1.767,1.133,3.483,1.883,5.149,2.25
		c2.667,0.566,5.051,0.566,7.15,0c-0.6,0.399-1.384,0.75-2.35,1.05c-1.9,0.634-3.717,0.733-5.45,0.3
		c-1.733-0.399-3.75-1.017-6.05-1.85l-2.95-1.15c0.333,0.033,0.684-0.033,1.05-0.2C44.45,97.983,44.866,97.316,45,96.35z"/>
	<g>
		<g>
			<path style="fill-rule:evenodd;clip-rule:evenodd;fill:#9C9C91;" d="M10.1,15.5c-0.733-2.2-1.717-4.217-2.95-6.05
				c1.467,1.633,2.733,3.55,3.8,5.75L10.1,15.5z"/>
		</g>
	</g>
	<g>
		<g>
			<path style="fill-rule:evenodd;clip-rule:evenodd;fill:#9C9C91;" d="M33.2,3.7C35.634,2.633,38,1.4,40.3,0
				c-2.267,1.767-4.5,3.317-6.7,4.65L33.2,3.7z"/>
		</g>
	</g>
	<g>
		<g>
			<path style="fill-rule:evenodd;clip-rule:evenodd;fill:#9C9C91;" d="M59.5,27.8c1.333-1.233,3.267-3.117,5.8-5.65
				c-2.2,2.867-3.883,5-5.05,6.4L59.5,27.8z"/>
		</g>
	</g>
	<g>
		<g>
			<path style="fill-rule:evenodd;clip-rule:evenodd;fill:#9C9C91;" d="M62.9,75.65c-1.367-1.567-2.684-3.184-3.95-4.851
				c1.333,1.4,2.833,2.816,4.5,4.25L62.9,75.65z"/>
		</g>
	</g>
	<g>
		<g>
			<path style="fill-rule:evenodd;clip-rule:evenodd;fill:#9C9C91;" d="M63.65,92.45c1.966-0.134,3.899-0.684,5.8-1.65
				c-1.834,1.2-3.733,2.017-5.7,2.45L63.65,92.45z"/>
		</g>
	</g>
	<g>
		<g>
			<path style="fill-rule:evenodd;clip-rule:evenodd;fill:#9C9C91;" d="M59.5,104.55c0.934,1.566,2.134,2.983,3.6,4.25
				c-1.767-1.166-3.166-2.467-4.199-3.899L59.5,104.55z"/>
		</g>
	</g>
	<g>
		<g>
			<path style="fill-rule:evenodd;clip-rule:evenodd;fill:#9C9C91;" d="M5.15,61.05C3.75,61.617,2.033,62.233,0,62.9
				c1.4-0.633,3.017-1.467,4.85-2.5L5.15,61.05z"/>
		</g>
	</g>
	<g>
		<g>
			<path style="fill-rule:evenodd;clip-rule:evenodd;fill:#9C9C91;" d="M14.9,17.2c3.967-1.833,7.067-3.617,9.3-5.35
				c-2.067,2.066-4.95,4.283-8.65,6.65L14.9,17.2z"/>
		</g>
	</g>
	<g>
		<g>
			<path style="fill-rule:evenodd;clip-rule:evenodd;fill:#9C9C91;" d="M26.8,34.2c-0.667,0.466-1.883,1.216-3.65,2.25
				c-1.566,0.933-2.717,1.683-3.45,2.25c0.667-0.667,1.716-1.567,3.15-2.7c1.6-1.267,2.7-2.183,3.3-2.75L26.8,34.2z"/>
		</g>
	</g>
	<g>
		<g>
			<path style="fill-rule:evenodd;clip-rule:evenodd;fill:#9C9C91;" d="M43,15.5c5.3-4.367,8.767-7.283,10.4-8.75
				c-1,1.167-4.084,4.533-9.25,10.1L43,15.5z"/>
		</g>
	</g>
	<g>
		<g>
			<polygon style="fill-rule:evenodd;clip-rule:evenodd;fill:#9C9C91;" points="35.6,50.75 29.9,47.4 36.05,50 			"/>
		</g>
	</g>
	<g>
		<path style="fill-rule:evenodd;clip-rule:evenodd;fill:#505346;" d="M32.5,97.05c0.267-4.7,0.35-9.767,0.25-15.2l-0.25-6.8
			l2.35,0.8l-0.1,6.851C34.616,88.1,34.366,92.934,34,97.2c-0.767,9.8-1.933,20.416-3.5,31.85l-1.2,10.15
			c-0.9-1.066-2.05-1.517-3.45-1.351c-0.7,0.101-2.517,0.417-5.45,0.95c1.567-1.233,3.017-2.55,4.35-3.95
			c2.033-2.166,3.35-4.1,3.95-5.8c0.5-1.533,1.15-5.45,1.95-11.75C31.55,110.267,32.167,103.517,32.5,97.05z"/>
	</g>
</g>
</svg>
