<?xml version="1.0" encoding="iso-8859-1"?>
<!-- Generator: Adobe Illustrator 15.1.0, SVG Export Plug-In . SVG Version: 6.00 Build 0)  -->
<!DOCTYPE svg PUBLIC "-//W3C//DTD SVG 1.1//EN" "http://www.w3.org/Graphics/SVG/1.1/DTD/svg11.dtd">
<svg version="1.1" id="buildings" xmlns="http://www.w3.org/2000/svg" xmlns:xlink="http://www.w3.org/1999/xlink" x="0px" y="0px"
	 width="65.75px" height="148.3px" viewBox="0 0 65.75 148.3" style="enable-background:new 0 0 65.75 148.3;" xml:space="preserve"
	>
<g>
	<path style="fill-rule:evenodd;clip-rule:evenodd;fill:#357762;" d="M35.45,7.5C41.55,16.933,47.35,27.433,52.85,39
		c11,23.1,14.967,39.934,11.9,50.5c-3.033,10.566-12.717,22.967-29.05,37.2c-8.167,7.1-16.034,13.149-23.6,18.149
		c-2.1,0.233-4.067-0.083-5.9-0.949c-3.667-1.667-4.817-5.134-3.45-10.4c7-3.1,14.417-7.283,22.25-12.55
		c15.667-10.566,25.583-21.267,29.75-32.101c4.167-10.833-1.134-27.3-15.9-49.399C31.483,28.383,23.683,18.4,15.45,9.5
		c-0.233-1.333-0.117-2.717,0.35-4.15c0.867-2.9,2.967-4.633,6.3-5.2c3.333-0.533,6.566,0.533,9.7,3.2
		C33.333,4.683,34.55,6.067,35.45,7.5z"/>
	<g>
		<path style="fill-rule:evenodd;clip-rule:evenodd;fill:#206652;" d="M38.85,39.45C31.483,28.383,23.683,18.4,15.45,9.5
			c-0.133-0.9-0.117-1.9,0.05-3c0.367-2.233,1.4-3.9,3.1-5c4.566,5.433,10.2,12.917,16.9,22.45
			c9.134,12.966,15.066,22.767,17.8,29.4c3.566,8.733,5.634,16.6,6.2,23.6C60.066,84.15,59,90,56.3,94.5
			c-2.5,4.134-7.517,9.884-15.05,17.25c-6.667,6.5-11.767,10.967-15.3,13.4c-3.9,2.666-10.45,6.566-19.65,11.699l-1.55-4.25
			c8.867-4.267,17.167-9.233,24.9-14.899c13-9.566,21.367-19.184,25.1-28.851C58.917,78.017,53.616,61.55,38.85,39.45z"/>
	</g>
	<path style="fill-rule:evenodd;clip-rule:evenodd;fill:#295648;" d="M7.55,131.15L7.3,133.6c-0.033,1.867,0.267,3.417,0.9,4.65
		c0.566,1.1,1.966,2.15,4.2,3.15c1.1,0.5,2.15,0.883,3.15,1.149l-0.3,1.101c-0.3,0.833-0.617,1.566-0.95,2.199
		c-0.566,1-1.566,1.817-3,2.45c-0.867,0.066-1.867-0.033-3-0.3c-2.3-0.566-4.133-1.684-5.5-3.35c-2.033-2.4-2.966-5.117-2.8-8.15
		l0.8-3.8c0.667-0.5,1.434-0.95,2.3-1.351C4.867,130.583,6.35,130.517,7.55,131.15z"/>
	<path style="fill-rule:evenodd;clip-rule:evenodd;fill:#5B907C;" d="M29.1,5.85c2-0.767,4.534,1.066,7.6,5.5
		c1.6,2.333,4.8,7.883,9.6,16.65c3.467,6.367,6.9,13.75,10.3,22.15c3.233,8,5.4,14.333,6.5,19c0.934,3.767,1.301,7.2,1.101,10.3
		C64.1,81.017,63.9,82.2,63.6,83c0.134-2.9,0.034-5.45-0.3-7.65c-0.333-2.233-1.267-5.766-2.8-10.6
		c-1.934-6.067-4.116-11.767-6.55-17.1c-2.3-5-7.134-13.467-14.5-25.4C35.783,16.283,32.333,10.817,29.1,5.85z"/>
	<path style="fill-rule:evenodd;clip-rule:evenodd;fill:#295648;" d="M16.45,9.15c-0.3-0.7-0.25-1.566,0.15-2.6
		c0.2-0.533,0.433-1,0.7-1.4C31.5,22.483,40.384,33.933,43.95,39.5c2.7,4.267,5.633,10.267,8.8,18c3.2,7.9,5.05,13.733,5.55,17.5
		c0.5,3.833,0.167,7.833-1,12c-1.2,4.167-3.1,8-5.7,11.5c-2.633,3.566-5.899,7.25-9.8,11.05c-4.033,3.9-8.1,7.267-12.2,10.101
		c-5.533,3.899-12.7,8.8-21.5,14.699l0.2-2.199c5.1-3.434,8.934-5.767,11.5-7c2.333-1.101,6.733-4.25,13.2-9.45
		c7.2-5.8,12.3-10.584,15.3-14.351c5.767-7.267,8.65-14.666,8.65-22.199c0-3.134-1.05-7.65-3.15-13.55
		c-2.133-6.067-4.8-11.934-8-17.6c-2.7-4.8-8.399-12.717-17.1-23.75C24.333,18.75,20.25,13.717,16.45,9.15z"/>
	<g>
		<path style="fill-rule:evenodd;clip-rule:evenodd;fill:#24463B;" d="M0.8,132.7c0.667-0.5,1.434-0.95,2.3-1.351
			c1.767-0.767,3.25-0.833,4.45-0.199l-0.2,1.6c-0.067,1.267,0,2.434,0.2,3.5c-0.667,0.033-1.35,0.167-2.05,0.4
			c-1.433,0.466-2.283,1.199-2.55,2.199c-0.267,1.134-0.217,2.483,0.15,4.051c0.333,1.466,0.75,2.449,1.25,2.949l1.25,1.101
			c-1.133-0.634-2.067-1.4-2.8-2.3c-2.033-2.4-2.966-5.117-2.8-8.15L0.8,132.7z"/>
	</g>
	<path style="fill-rule:evenodd;clip-rule:evenodd;fill:#1F362F;" d="M6.45,132.35l-0.1,2.051c-0.3-0.067-0.667-0.101-1.1-0.101
		c-0.867,0.033-1.583,0.233-2.15,0.601c-0.867,0.633-1.717,1.783-2.55,3.449c-0.133-0.733-0.2-1.466-0.2-2.199
		c0-0.434,0.117-1.017,0.35-1.75l0.35-1c0.267-0.334,1.1-0.717,2.5-1.15C4.917,131.816,5.883,131.85,6.45,132.35z"/>
	<path style="fill-rule:evenodd;clip-rule:evenodd;fill:#40695C;" d="M11.95,142.4l1.1,0.649c0.667,0.566,0.917,1.134,0.75,1.7
		c-0.367,1.167-1.2,2.033-2.5,2.6c-0.667,0.267-1.167,0.117-1.5-0.449c0.7-0.667,1.25-1.384,1.65-2.15c0.267-0.467,0.433-1,0.5-1.6
		V142.4z"/>
</g>
</svg>
