<?xml version="1.0" encoding="iso-8859-1"?>
<!-- Generator: Adobe Illustrator 15.1.0, SVG Export Plug-In . SVG Version: 6.00 Build 0)  -->
<!DOCTYPE svg PUBLIC "-//W3C//DTD SVG 1.1//EN" "http://www.w3.org/Graphics/SVG/1.1/DTD/svg11.dtd">
<svg version="1.1" id="Isolation_Mode" xmlns="http://www.w3.org/2000/svg" xmlns:xlink="http://www.w3.org/1999/xlink" x="0px"
	 y="0px" width="500px" height="52.5px" viewBox="0 0 500 52.5" style="enable-background:new 0 0 500 52.5;" xml:space="preserve">
<g>
	<path style="fill-rule:evenodd;clip-rule:evenodd;fill:#895D60;" d="M394.25,43.7c35.934,2.934,71.184,5.866,105.75,8.8H0
		c6.567-2.967,13.567-5.983,21-9.05c14.8-6.134,24.283-9.483,28.45-10.05c5.3-0.7,14-5.25,26.1-13.65
		c6.067-4.167,11.6-8.283,16.6-12.35c22.7-0.933,45.7-1.933,69-3c46.6-2.167,71.383-3.617,74.35-4.35
		c1.533-0.367,3.917,1.217,7.15,4.75c0.434,0.467,3.767,4.483,10,12.05c9.933,12.034,17.883,18.05,23.85,18.05
		C283.2,34.9,322.45,37.833,394.25,43.7z"/>
	<g>
		<g>
			<path style="fill-rule:evenodd;clip-rule:evenodd;fill:#7F5257;" d="M121.7,32.35c-0.733-1.433-0.367-2.716,1.1-3.85
				c1-0.8,2.55-1.35,4.65-1.65c1.033-0.167,1.966-0.267,2.8-0.3c-1.367,0.367-2.683,0.8-3.95,1.3c-2.466,1-3.316,2-2.55,3
				c1.033,1.5,3.717,2.017,8.05,1.551c4.567-0.534,8.333-2.084,11.3-4.65c-1.1,1.467-2.567,2.9-4.4,4.3
				c-3.667,2.8-7.15,3.967-10.45,3.5C124.75,35.017,122.567,33.95,121.7,32.35z"/>
		</g>
	</g>
	<g>
		<g>
			<path style="fill-rule:evenodd;clip-rule:evenodd;fill:#7F5257;" d="M44.9,46.75c-2.133,2.033-4.316,3-6.55,2.9
				c-2.467-0.233-3.967-0.9-4.5-2c-0.434-0.934-0.133-1.75,0.9-2.45c1-0.733,2.467-1.184,4.4-1.351c-0.8,0.301-1.566,0.634-2.3,1
				c-1.5,0.667-2.033,1.301-1.6,1.9c0.7,1.1,2.433,1.333,5.2,0.7c2.833-0.634,5.167-1.867,7-3.7
				C46.817,44.75,45.967,45.75,44.9,46.75z"/>
		</g>
	</g>
	<g>
		<g>
			<path style="fill-rule:evenodd;clip-rule:evenodd;fill:#7F5257;" d="M163.2,37c2.733-0.943,5.733-1.693,9-2.25
				c-1.198,0.239-2.531,0.656-4,1.25c-3.1,1.2-5.3,2.733-6.6,4.6c-1.233,1.667,4.05,2.967,15.85,3.9c5.9,0.467,11.9,0.85,18,1.15
				c-5.067,0.233-10.417,0.333-16.05,0.3c-11.3-0.033-18.233-0.983-20.8-2.851C156,41,157.533,38.967,163.2,37z"/>
		</g>
	</g>
	<g>
		<g>
			<path style="fill-rule:evenodd;clip-rule:evenodd;fill:#7F5257;" d="M218.6,17.3c-1.167,0.167-2.467,0.483-3.9,0.95
				c-2.9,0.933-5.017,2.183-6.35,3.75c-1.367,1.6,3.417,3.1,14.35,4.5c5.433,0.7,11.017,1.25,16.75,1.65
				c-4.8,0.166-9.817,0.116-15.05-0.15c-10.467-0.533-16.8-1.85-19-3.95c-2.2-2.066-0.667-3.816,4.6-5.25
				C212.667,18.1,215.533,17.6,218.6,17.3z"/>
		</g>
	</g>
	<g>
		<g>
			<path style="fill-rule:evenodd;clip-rule:evenodd;fill:#7F5257;" d="M65.3,36.5c-0.966,0.5-2,1.184-3.1,2.05
				c-2.133,1.733-3.5,3.5-4.1,5.3c-0.3,0.934,0.967,1.25,3.8,0.95c1.167-0.133,4.35-0.684,9.55-1.649
				c4.7-0.967,9.4-1.483,14.1-1.551c-3.867,0.4-7.966,1.184-12.3,2.351c-5.667,1.399-8.9,2.184-9.7,2.35
				c-3.466,0.7-5.867,0.783-7.2,0.25c-2.567-1-1.867-2.983,2.1-5.95C62.35,37.7,64.633,36.333,65.3,36.5z"/>
		</g>
	</g>
	<g>
		<g>
			<path style="fill-rule:evenodd;clip-rule:evenodd;fill:#7F5257;" d="M320.7,46.4c3.3-0.4,5.833-1.567,7.6-3.5
				c-3.033,4.399-6.366,6.316-10,5.75c-2.3-0.267-3.8-0.917-4.5-1.95c-0.6-0.967-0.467-1.884,0.4-2.75
				c1.1-1.033,2.883-1.566,5.35-1.601c-0.967,0.267-1.899,0.601-2.8,1c-1.767,0.801-2.333,1.534-1.7,2.2
				C315.85,46.45,317.733,46.733,320.7,46.4z"/>
		</g>
	</g>
	<g>
		<g>
			<path style="fill-rule:evenodd;clip-rule:evenodd;fill:#7F5257;" d="M366.05,48.05c-2.2,1.434-4.166,2.084-5.899,1.95
				c-1.9-0.167-3.134-0.684-3.7-1.55c-0.533-0.767-0.434-1.517,0.3-2.25c0.866-0.867,2.316-1.334,4.35-1.4
				c-0.833,0.233-1.6,0.517-2.3,0.851c-1.434,0.699-1.883,1.316-1.35,1.85c0.7,0.7,2.233,0.9,4.6,0.6
				c2.533-0.3,4.783-1.05,6.75-2.25C368.066,46.616,367.15,47.35,366.05,48.05z"/>
		</g>
	</g>
	<g>
		<g>
			<path style="fill-rule:evenodd;clip-rule:evenodd;fill:#7F5257;" d="M246.45,46.25c-3.567,2.066-6.784,2.7-9.65,1.9
				c-3.066-0.967-4.867-2.217-5.4-3.75c-0.433-1.334,0.067-2.4,1.5-3.2c1-0.533,2.417-0.8,4.25-0.8c0.9-0.034,1.717-0.017,2.45,0.05
				c-1.233,0.166-2.417,0.399-3.55,0.7c-2.267,0.566-3.15,1.316-2.65,2.25c0.7,1.5,2.983,2.283,6.85,2.35
				c4.1,0.066,7.617-0.85,10.55-2.75C249.667,44.167,248.217,45.25,246.45,46.25z"/>
		</g>
	</g>
	<g>
		<g>
			<path style="fill-rule:evenodd;clip-rule:evenodd;fill:#7F5257;" d="M183.5,13.7c-1.067,0.7-2,1-2.8,0.9
				c-0.9-0.067-1.483-0.3-1.75-0.7c-0.267-0.367-0.217-0.717,0.15-1.05c0.4-0.434,1.083-0.667,2.05-0.7
				c-0.4,0.133-0.767,0.283-1.1,0.45c-0.667,0.333-0.883,0.617-0.65,0.85c0.333,0.333,1.067,0.433,2.2,0.3
				c1.2-0.167,2.267-0.533,3.2-1.1C184.433,13.017,184,13.367,183.5,13.7z"/>
		</g>
	</g>
	<g>
		<g>
			<path style="fill-rule:evenodd;clip-rule:evenodd;fill:#7F5257;" d="M238.4,12.8c1.8,0.133,3.617-0.033,5.45-0.5
				c-0.767,0.367-1.6,0.733-2.5,1.1c-1.867,0.7-3.4,0.883-4.6,0.55c-1.433-0.5-2.3-1.05-2.6-1.65c-0.267-0.566-0.066-1.117,0.6-1.65
				c0.733-0.533,1.883-0.683,3.45-0.45c-0.667,0.066-1.284,0.167-1.85,0.3c-1.167,0.333-1.583,0.733-1.25,1.2
				C235.5,12.3,236.6,12.667,238.4,12.8z"/>
		</g>
	</g>
	<g>
		<g>
			<path style="fill-rule:evenodd;clip-rule:evenodd;fill:#7F5257;" d="M131.8,46c-0.633-0.9-0.5-1.8,0.4-2.7
				c0.667-0.666,1.75-1.166,3.25-1.5c0.733-0.166,1.4-0.267,2-0.3c-1,0.333-1.934,0.7-2.8,1.1c-1.7,0.867-2.233,1.617-1.6,2.25
				c0.833,0.867,2.717,1.084,5.65,0.65c3.133-0.5,5.75-1.6,7.85-3.3c-0.767,1-1.783,2-3.05,3c-2.533,1.934-4.9,2.816-7.1,2.649
				C134.033,47.65,132.5,47.033,131.8,46z"/>
		</g>
	</g>
	<g>
		<g>
			<path style="fill-rule:evenodd;clip-rule:evenodd;fill:#7F5257;" d="M103.8,17.6c-1.966,1-3.617,1.45-4.95,1.35
				c-1.6-0.167-2.65-0.617-3.15-1.35c-0.434-0.667-0.333-1.3,0.3-1.9c0.7-0.733,1.95-1.117,3.75-1.15c-0.733,0.2-1.4,0.434-2,0.7
				c-1.233,0.567-1.617,1.083-1.15,1.55c0.566,0.567,1.85,0.767,3.85,0.6c1.933-0.167,3.917-0.6,5.95-1.3
				C105.633,16.633,104.767,17.133,103.8,17.6z"/>
		</g>
	</g>
	<g>
		<g>
			<path style="fill-rule:evenodd;clip-rule:evenodd;fill:#7F5257;" d="M97.45,31.65c-0.5,0.533-1.15,1.033-1.95,1.5
				c-1.567,0.966-3.033,1.267-4.4,0.899c-1.467-0.533-2.267-1.166-2.4-1.899c-0.167-0.634,0.117-1.084,0.85-1.351
				c0.733-0.333,1.7-0.399,2.9-0.2c-0.534,0.067-1.05,0.15-1.55,0.25c-1,0.2-1.417,0.517-1.25,0.95c0.233,0.767,1.25,1.15,3.05,1.15
				C94.533,32.983,96.117,32.55,97.45,31.65z"/>
		</g>
	</g>
	<g>
		<g>
			<path style="fill-rule:evenodd;clip-rule:evenodd;fill:#7F5257;" d="M111.3,45.9c2.417,0.132,4.258,0.315,5.525,0.55
				c-0.173-0.015-1.082,0.102-2.725,0.35c-2,0.3-3.434,0.434-4.3,0.4c-1.233-0.101-2.117-0.434-2.65-1
				c-0.5-0.566-0.517-1.15-0.05-1.75c0.367-0.533,1.117-0.9,2.25-1.101c1.066-0.199,1.566-0.233,1.5-0.1c-0.1-0.2-0.783,0-2.05,0.6
				c-1.2,0.601-1.533,1.101-1,1.5C108.233,45.583,109.4,45.767,111.3,45.9z"/>
		</g>
	</g>
	<g>
		<g>
			<path style="fill-rule:evenodd;clip-rule:evenodd;fill:#7F5257;" d="M158.15,11.4c1.934-0.367,3.7-1,5.3-1.9
				c-0.6,0.6-1.333,1.183-2.2,1.75c-1.7,1.167-3.183,1.75-4.45,1.75c-1.4,0.033-2.383-0.233-2.95-0.8
				c-0.533-0.534-0.567-1.133-0.1-1.8c0.556-0.772,1.581-1.272,3.075-1.5c-0.292,0.131-0.766,0.397-1.425,0.8
				c-1.133,0.7-1.433,1.233-0.9,1.6C155.1,11.7,156.317,11.733,158.15,11.4z"/>
		</g>
	</g>
	<g>
		<g>
			<path style="fill-rule:evenodd;clip-rule:evenodd;fill:#7F5257;" d="M193.2,23.95c-1.167,1.966-2.567,2.9-4.2,2.8
				c-1.067-0.067-1.75-0.333-2.05-0.8c-0.267-0.4-0.217-0.8,0.15-1.2c0.467-0.433,1.217-0.7,2.25-0.8
				c-0.4,0.167-0.783,0.333-1.15,0.5c-0.767,0.367-1,0.7-0.7,1c0.367,0.4,1.2,0.483,2.5,0.25
				C191.4,25.433,192.467,24.85,193.2,23.95z"/>
		</g>
	</g>
	<g>
		<g>
			<path style="fill-rule:evenodd;clip-rule:evenodd;fill:#7F5257;" d="M286.55,48.5c-1.866,1-3.517,1.283-4.95,0.85
				c-1.5-0.399-2.416-0.983-2.75-1.75c-0.3-0.666-0.1-1.233,0.601-1.699c0.833-0.534,2.033-0.7,3.6-0.5
				c-0.666,0.1-1.3,0.216-1.899,0.35c-1.233,0.333-1.684,0.75-1.351,1.25c0.434,0.7,1.617,1.083,3.55,1.15
				c2.134,0.066,3.95-0.367,5.45-1.301C288.233,47.45,287.483,48,286.55,48.5z"/>
		</g>
	</g>
</g>
</svg>
