<?xml version="1.0" encoding="iso-8859-1"?>
<!-- Generator: Adobe Illustrator 15.1.0, SVG Export Plug-In . SVG Version: 6.00 Build 0)  -->
<!DOCTYPE svg PUBLIC "-//W3C//DTD SVG 1.1//EN" "http://www.w3.org/Graphics/SVG/1.1/DTD/svg11.dtd">
<svg version="1.1" id="buildings" xmlns="http://www.w3.org/2000/svg" xmlns:xlink="http://www.w3.org/1999/xlink" x="0px" y="0px"
	 width="125px" height="32.7px" viewBox="0 0 125 32.7" style="enable-background:new 0 0 125 32.7;" xml:space="preserve">
<g>
	<path style="fill-rule:evenodd;clip-rule:evenodd;fill:#859F8C;" d="M125,27.15c-0.634,0.8-2.267,1.5-4.9,2.1
		c-5.267,1.2-12.866,1.283-22.8,0.25c-9.899-1.033-27.833-4.85-53.8-11.45c-13-3.267-25-6.45-36-9.55L4,0.15L14.5,0
		c6.167,2.867,13.45,5.95,21.85,9.25c16.833,6.6,30.817,11.017,41.95,13.25c12.101,2.434,23.367,3.833,33.8,4.2
		c5.233,0.166,9.25,0.1,12.051-0.2L125,27.15z"/>
	<path style="fill-rule:evenodd;clip-rule:evenodd;fill:#768D7C;" d="M125,27.15v3.5c-3,0.333-14.167,1-33.5,2
		c-12.066,0.633-30.933-3.101-56.6-11.2C22.067,17.417,10.433,13.317,0,9.15l4-9c8.5,3.667,18.35,7.517,29.55,11.55
		c22.434,8.1,40.417,13.083,53.95,14.95c13.533,1.866,23.85,2.517,30.95,1.949C121.983,28.3,124.167,27.816,125,27.15z"/>
</g>
</svg>
