<?xml version="1.0" encoding="iso-8859-1"?>
<!-- Generator: Adobe Illustrator 15.1.0, SVG Export Plug-In . SVG Version: 6.00 Build 0)  -->
<!DOCTYPE svg PUBLIC "-//W3C//DTD SVG 1.1//EN" "http://www.w3.org/Graphics/SVG/1.1/DTD/svg11.dtd">
<svg version="1.1" id="Isolation_Mode" xmlns="http://www.w3.org/2000/svg" xmlns:xlink="http://www.w3.org/1999/xlink" x="0px"
	 y="0px" width="764.95px" height="209.75px" viewBox="0 0 764.95 209.75" style="enable-background:new 0 0 764.95 209.75;"
	 xml:space="preserve">
<linearGradient id="SVGID_1_" gradientUnits="userSpaceOnUse" x1="25.6689" y1="-380.9404" x2="184.6689" y2="-380.9404" gradientTransform="matrix(6.289308e-006 1 -1 -0.001 -2.031677e-004 -6.355264e-005)">
	<stop  offset="0.0118" style="stop-color:#432024"/>
	<stop  offset="1" style="stop-color:#8C2C40"/>
</linearGradient>
<path style="fill-rule:evenodd;clip-rule:evenodd;fill:url(#SVGID_1_);" d="M690.7,14.6c11.2-3.567,21.366-4.2,30.5-1.9
	c12.8,3.2,22.616,12.05,29.45,26.55c8.566,18.133,12.233,44.6,11,79.4c-1.801,50.3-10.467,77.966-26,83
	c-6.4,2.066-13.65,3.183-21.75,3.35l-10.25-0.35c-40.667-5.167-86.834-10.167-138.5-15c-103.334-9.667-182.5-13.667-237.5-12
	c-55,1.666-126.1,7-213.3,16c-43.633,4.5-81.75,8.833-114.35,13c2.033-0.567,4.567-1.717,7.6-3.45
	c6.066-3.533,11.617-8.3,16.65-14.3c16.1-19.233,24.017-47.317,23.75-84.25C47.7,67.717,41.717,39.2,30.05,19.1
	C26.417,12.8,22.433,7.733,18.1,3.9c-2.2-1.933-4.017-3.233-5.45-3.9c44.833,7.1,93.967,14.5,147.4,22.2
	c106.8,15.4,181.667,24.55,224.601,27.45c42.933,2.934,104.483-1.017,184.649-11.85c40.066-5.433,75.851-11.15,107.351-17.15
	l3.899-2C683.816,17.05,687.2,15.7,690.7,14.6z"/>
<g>
	<path style="fill-rule:evenodd;clip-rule:evenodd;fill:#DDE8D8;" d="M722.3,16c-2.533-0.367-4.934-0.1-7.2,0.8L714.4,6.4
		C717.8,6,721.333,6.083,725,6.65c13.7,2.1,24.1,14.05,31.2,35.85c6.233,19.033,9.133,42.317,8.7,69.85
		c-0.4,26.301-3.601,48.9-9.601,67.801c-6.399,20.233-14.283,30.1-23.649,29.6l-3.601-0.3l-0.8-11.351
		c10.4-0.899,18.35-12.383,23.85-34.449c4.733-19,6.467-38.884,5.2-59.65c-1.533-25.1-4.616-44.767-9.25-59
		C741.283,27.2,733.033,17.533,722.3,16z"/>
</g>
</svg>
