<?xml version="1.0" encoding="iso-8859-1"?>
<!-- Generator: Adobe Illustrator 15.1.0, SVG Export Plug-In . SVG Version: 6.00 Build 0)  -->
<!DOCTYPE svg PUBLIC "-//W3C//DTD SVG 1.1//EN" "http://www.w3.org/Graphics/SVG/1.1/DTD/svg11.dtd">
<svg version="1.1" id="Isolation_Mode" xmlns="http://www.w3.org/2000/svg" xmlns:xlink="http://www.w3.org/1999/xlink" x="0px"
	 y="0px" width="250px" height="100px" viewBox="0 0 250 100" style="enable-background:new 0 0 250 100;" xml:space="preserve">
<g>
	<rect style="fill-rule:evenodd;clip-rule:evenodd;fill:#895D60;" width="250" height="100"/>
	<g>
		<g>
			<path style="fill-rule:evenodd;clip-rule:evenodd;fill:#7F5257;" d="M100,43.9c-1.967,2-4.383,3.967-7.25,5.9
				c-5.8,3.867-11.2,5.4-16.2,4.601c-2.8-0.434-5.167-1.367-7.1-2.801c-1.767-1.233-2.767-2.516-3-3.85
				c-0.434-1.867,0.667-3.533,3.3-5c1.467-0.833,3.633-1.383,6.5-1.65c1.433-0.133,2.767-0.184,4-0.15
				c-2.033,0.5-3.967,1.033-5.8,1.6c-3.6,1.167-5.034,2.517-4.3,4.05c1.367,2.6,5.35,3.65,11.95,3.15
				C88.9,49.25,94.867,47.3,100,43.9z"/>
		</g>
	</g>
	<g>
		<g>
			<path style="fill-rule:evenodd;clip-rule:evenodd;fill:#7F5257;" d="M194.8,27.35c3.467,0.167,6.65-0.317,9.55-1.45
				c-1.166,0.833-2.566,1.6-4.199,2.3c-3.301,1.433-6.084,1.833-8.351,1.2c-2.5-0.667-4.05-1.65-4.649-2.95
				c-0.534-1.167-0.217-2.15,0.949-2.95c0.867-0.6,2.167-0.917,3.9-0.95c0.866-0.033,1.65,0,2.35,0.1
				c-1.166,0.133-2.283,0.333-3.35,0.6c-2.1,0.6-2.85,1.333-2.25,2.2C189.517,26.517,191.533,27.15,194.8,27.35z"/>
		</g>
	</g>
	<g>
		<g>
			<path style="fill-rule:evenodd;clip-rule:evenodd;fill:#7F5257;" d="M59.45,32.6c-7.733,3.867-13.917,5.083-18.55,3.65
				c-3.233-0.9-5.4-2.083-6.5-3.55c-1.033-1.467-0.917-2.983,0.35-4.55c1.2-1.267,3.267-1.967,6.2-2.1
				c0.968-0.044,1.86-0.027,2.675,0.05c-0.89,0.142-2.282,0.525-4.175,1.15c-3.367,1.067-4.4,2.233-3.1,3.5
				c1.467,1.167,4.433,2.017,8.9,2.55C50.417,33.933,55.15,33.7,59.45,32.6z"/>
		</g>
	</g>
	<g>
		<g>
			<path style="fill-rule:evenodd;clip-rule:evenodd;fill:#7F5257;" d="M22.6,12.2c0.767,0.733,2.55,1.133,5.35,1.2
				c3,0.033,5.8-0.383,8.4-1.25c-1.067,0.7-2.317,1.35-3.75,1.95c-2.867,1.2-5.233,1.617-7.1,1.25c-2.1-0.367-3.483-1.067-4.15-2.1
				c-0.6-0.933-0.467-1.817,0.4-2.65c1.032-1,2.74-1.442,5.125-1.325c-0.488,0.089-1.33,0.364-2.525,0.825
				C22.517,10.8,21.933,11.5,22.6,12.2z"/>
		</g>
	</g>
	<g>
		<g>
			<path style="fill-rule:evenodd;clip-rule:evenodd;fill:#7F5257;" d="M139.85,33.35c1.167-1.133,3.084-1.783,5.75-1.95
				c-1.066,0.367-2.083,0.783-3.05,1.25c-1.899,0.934-2.483,1.75-1.75,2.45c0.934,1,3.017,1.233,6.25,0.7
				c3.5-0.566,6.367-1.867,8.601-3.9c0.633,0-0.45,1.15-3.25,3.45c-2.767,2.233-5.4,3.25-7.9,3.05c-2.6-0.2-4.3-0.867-5.1-2
				C138.7,35.367,138.85,34.35,139.85,33.35z"/>
		</g>
	</g>
	<g>
		<g>
			<path style="fill-rule:evenodd;clip-rule:evenodd;fill:#7F5257;" d="M142.2,83.7c7.1-0.733,14.283-2.55,21.55-5.45
				c-2.7,1.934-5.8,3.884-9.3,5.85c-7,3.967-13.05,5.75-18.15,5.351c-6.066-0.634-9.934-2.351-11.6-5.15
				c-1.5-2.5-1.017-4.8,1.45-6.899c1.699-1.534,4.433-2.634,8.199-3.301c1.867-0.366,3.584-0.566,5.15-0.6
				c-2.533,0.667-4.917,1.5-7.15,2.5c-4.399,2-5.833,3.85-4.3,5.55C130.083,83.75,134.8,84.467,142.2,83.7z"/>
		</g>
	</g>
	<g>
		<g>
			<path style="fill-rule:evenodd;clip-rule:evenodd;fill:#7F5257;" d="M228.95,69.05c-0.601,0.334-1.25,0.684-1.95,1.05
				c-1.366,0.733-2.5,1.117-3.4,1.15c-1.133,0.033-1.899-0.184-2.3-0.65c-0.399-0.433-0.399-0.899,0-1.399
				c0.267-0.367,0.783-0.667,1.55-0.9c0.367-0.133,0.717-0.217,1.051-0.25c-0.5,0.2-0.967,0.434-1.4,0.7
				c-0.833,0.5-1.066,0.9-0.7,1.2c0.434,0.3,1.367,0.333,2.8,0.1C225.267,69.95,226.717,69.616,228.95,69.05z"/>
		</g>
	</g>
	<g>
		<g>
			<path style="fill-rule:evenodd;clip-rule:evenodd;fill:#7F5257;" d="M231.55,86.6c-0.8,0.267-1.083,0.551-0.85,0.851
				c0.3,0.467,1.1,0.684,2.399,0.649c1.334-0.033,2.517-0.35,3.551-0.949c-0.367,0.366-0.851,0.733-1.45,1.1
				c-1.233,0.7-2.316,0.934-3.25,0.7c-1-0.233-1.634-0.601-1.9-1.101c-0.2-0.399-0.083-0.767,0.351-1.1
				c0.533-0.4,1.333-0.55,2.399-0.45C232.366,86.366,231.95,86.467,231.55,86.6z"/>
		</g>
	</g>
	<g>
		<g>
			<path style="fill-rule:evenodd;clip-rule:evenodd;fill:#7F5257;" d="M21.95,83.2c-1.133-0.5-1.717-1.05-1.75-1.65
				c-0.067-0.467,0.183-0.8,0.75-1c0.6-0.166,1.333-0.149,2.2,0.05c-0.4,0.034-0.783,0.067-1.15,0.101
				c-0.767,0.1-1.117,0.316-1.05,0.649c0.133,0.667,0.917,1.034,2.35,1.101c1.467,0.066,2.7-0.267,3.7-1l-1.55,1.2
				C24.217,83.384,23.05,83.566,21.95,83.2z"/>
		</g>
	</g>
	<g>
		<g>
			<path style="fill-rule:evenodd;clip-rule:evenodd;fill:#7F5257;" d="M21,35.75c-0.467,0.467-0.917,0.683-1.35,0.65
				c-0.3-0.033-0.5-0.117-0.6-0.25C18.983,36.017,19,35.9,19.1,35.8l0.7-0.25l-0.35,0.15c-0.233,0.133-0.317,0.233-0.25,0.3
				c0.1,0.1,0.35,0.133,0.75,0.1C20.35,36.033,20.7,35.917,21,35.75z"/>
		</g>
	</g>
	<g>
		<g>
			<path style="fill-rule:evenodd;clip-rule:evenodd;fill:#7F5257;" d="M231.35,43.55c1.267-0.367,2.334-0.933,3.2-1.7
				c-0.3,0.433-0.7,0.867-1.2,1.3c-1,0.9-1.933,1.383-2.8,1.45c-0.967,0.066-1.616-0.083-1.95-0.45
				c-0.333-0.333-0.35-0.717-0.05-1.15c0.367-0.5,1.05-0.85,2.05-1.05c-0.399,0.2-0.767,0.4-1.1,0.6
				c-0.634,0.467-0.8,0.817-0.5,1.05C229.4,43.9,230.184,43.883,231.35,43.55z"/>
		</g>
	</g>
	<g>
		<g>
			<path style="fill-rule:evenodd;clip-rule:evenodd;fill:#7F5257;" d="M243.25,9.8c-1.7,1.1-3.2,1.6-4.5,1.5
				c-1.467-0.133-2.417-0.533-2.85-1.2c-0.4-0.567-0.317-1.133,0.25-1.7c0.666-0.667,1.767-1.033,3.3-1.1
				c-0.634,0.2-1.217,0.434-1.75,0.7c-1.066,0.533-1.4,1-1,1.4c0.5,0.533,1.666,0.684,3.5,0.45c1.934-0.233,3.649-0.8,5.149-1.7
				C244.783,8.717,244.083,9.267,243.25,9.8z"/>
		</g>
	</g>
	<g>
		<g>
			<path style="fill-rule:evenodd;clip-rule:evenodd;fill:#7F5257;" d="M149.3,4.95c1.434,0.066,2.867-0.1,4.3-0.5
				c-0.566,0.3-1.199,0.6-1.899,0.9c-1.467,0.6-2.717,0.767-3.75,0.5c-1.2-0.434-1.867-0.95-2-1.55
				c-0.167-0.533,0.05-0.933,0.649-1.2c0.634-0.3,1.483-0.367,2.551-0.2c-0.467,0.067-0.917,0.15-1.351,0.25
				c-0.866,0.167-1.217,0.434-1.05,0.8C146.983,4.517,147.833,4.85,149.3,4.95z"/>
		</g>
	</g>
	<g>
		<g>
			<path style="fill-rule:evenodd;clip-rule:evenodd;fill:#7F5257;" d="M81.85,12.25c-1.667,1.233-3.233,1.8-4.7,1.7
				c-1.667-0.233-2.683-0.717-3.05-1.45c-0.3-0.633-0.117-1.217,0.55-1.75c0.733-0.533,1.817-0.833,3.25-0.9
				c-0.6,0.2-1.167,0.417-1.7,0.65c-1.1,0.467-1.483,0.917-1.15,1.35c0.5,0.7,1.717,0.883,3.65,0.55c1.9-0.3,3.667-0.967,5.3-2
				C83.4,11.033,82.683,11.65,81.85,12.25z"/>
		</g>
	</g>
	<g>
		<g>
			<path style="fill-rule:evenodd;clip-rule:evenodd;fill:#7F5257;" d="M70.65,78.8c-0.367,0.434-0.867,0.816-1.5,1.15
				c-1.3,0.666-2.467,0.816-3.5,0.45c-1.066-0.467-1.65-0.967-1.75-1.5c-0.1-0.5,0.133-0.851,0.7-1.051
				c0.333-0.133,0.816-0.183,1.45-0.149c0.3,0.033,0.583,0.066,0.85,0.1c-0.433,0.033-0.85,0.084-1.25,0.15
				c-0.8,0.133-1.133,0.366-1,0.7c0.167,0.566,0.95,0.899,2.35,1C68.433,79.75,69.65,79.467,70.65,78.8z"/>
		</g>
	</g>
	<g>
		<g>
			<path style="fill-rule:evenodd;clip-rule:evenodd;fill:#7F5257;" d="M30,44.15c1.3,0.033,2.417-0.267,3.35-0.9
				c-0.367,0.367-0.817,0.717-1.35,1.05c-1.1,0.667-2.133,0.85-3.1,0.55c-1-0.4-1.55-0.85-1.65-1.35c-0.1-0.433,0.1-0.75,0.6-0.95
				c0.333-0.133,0.767-0.183,1.3-0.15c0.267,0.033,0.517,0.05,0.75,0.05c-0.367,0.066-0.733,0.133-1.1,0.2c-0.7,0.1-1,0.3-0.9,0.6
				C28.067,43.817,28.767,44.117,30,44.15z"/>
		</g>
	</g>
	<g>
		<g>
			<path style="fill-rule:evenodd;clip-rule:evenodd;fill:#7F5257;" d="M8.9,20.65c0.133,0.667,0.9,1.117,2.3,1.35
				c1.367,0.233,2.733,0.167,4.1-0.2c-0.566,0.3-1.2,0.567-1.9,0.8c-1.4,0.467-2.6,0.5-3.6,0.1c-0.633-0.267-1.117-0.633-1.45-1.1
				c-0.4-0.533-0.483-1.017-0.25-1.45c0.133-0.2,0.35-0.25,0.65-0.15c0.3,0.133,0.5,0.15,0.6,0.05c0.133-0.167,0.5-0.2,1.1-0.1
				c0.267,0.033,0.533,0.083,0.8,0.15c-0.433,0-0.833,0.017-1.2,0.05C9.317,20.217,8.933,20.383,8.9,20.65z"/>
		</g>
	</g>
	<g>
		<g>
			<path style="fill-rule:evenodd;clip-rule:evenodd;fill:#7F5257;" d="M11.95,59.2c-0.133-0.467,0.066-0.816,0.6-1.05
				c0.333-0.167,0.817-0.25,1.45-0.25c0.3,0,0.567,0,0.8,0c-0.4,0.066-0.8,0.149-1.2,0.25c-0.767,0.166-1.083,0.416-0.95,0.75
				c0.267,0.533,1.067,0.816,2.4,0.85c1.167,0,2.467-0.184,3.9-0.55c-0.534,0.267-1.117,0.55-1.75,0.85
				c-1.3,0.566-2.417,0.75-3.35,0.55C12.75,60.2,12.117,59.733,11.95,59.2z"/>
		</g>
	</g>
	<g>
		<g>
			<path style="fill-rule:evenodd;clip-rule:evenodd;fill:#7F5257;" d="M7.75,89.95c0.267,0.633,1.167,0.983,2.7,1.05
				c1.5,0.066,2.983-0.134,4.45-0.6c-0.566,0.333-1.217,0.666-1.95,1c-1.5,0.633-2.8,0.8-3.9,0.5
				c-1.267-0.434-1.966-0.967-2.1-1.601c-0.167-0.533,0.066-0.95,0.7-1.25c0.4-0.166,0.95-0.25,1.65-0.25c0.367,0,0.7,0.017,1,0.05
				C9.8,88.917,9.317,89,8.85,89.1C7.95,89.267,7.583,89.55,7.75,89.95z"/>
		</g>
	</g>
	<g>
		<g>
			<path style="fill-rule:evenodd;clip-rule:evenodd;fill:#7F5257;" d="M13,8.85c-0.967,0.9-1.9,1.133-2.8,0.7
				c-0.6-0.3-0.917-0.6-0.95-0.9C9.217,8.383,9.367,8.2,9.7,8.1c0.333-0.1,0.75-0.083,1.25,0.05c-0.233,0-0.467,0.017-0.7,0.05
				C9.817,8.233,9.633,8.333,9.7,8.5c0.066,0.367,0.483,0.6,1.25,0.7C11.75,9.333,12.433,9.217,13,8.85z"/>
		</g>
	</g>
	<g>
		<g>
			<path style="fill-rule:evenodd;clip-rule:evenodd;fill:#7F5257;" d="M57.1,17.8c-1.1,0.8-2.133,1.05-3.1,0.75
				c-0.633-0.267-0.983-0.566-1.05-0.9c-0.067-0.267,0.066-0.467,0.4-0.6c0.367-0.167,0.833-0.183,1.4-0.05
				c-0.267,0.033-0.517,0.067-0.75,0.1c-0.467,0.066-0.667,0.2-0.6,0.4c0.133,0.333,0.6,0.533,1.4,0.6
				C55.6,18.167,56.367,18.067,57.1,17.8z"/>
		</g>
	</g>
	<g>
		<g>
			<path style="fill-rule:evenodd;clip-rule:evenodd;fill:#7F5257;" d="M187.55,55.95c-1.7,0.899-3.133,1.2-4.3,0.899
				c-0.833-0.267-1.35-0.616-1.55-1.05c-0.167-0.399-0.05-0.733,0.35-1c0.467-0.3,1.167-0.383,2.101-0.25
				c-0.4,0.033-0.784,0.101-1.15,0.2c-0.7,0.167-0.95,0.4-0.75,0.7c0.267,0.366,0.934,0.6,2,0.7
				C185.384,56.25,186.483,56.184,187.55,55.95z"/>
		</g>
	</g>
	<g>
		<g>
			<path style="fill-rule:evenodd;clip-rule:evenodd;fill:#7F5257;" d="M189.35,90.6c2.634,0.101,4.851-0.383,6.65-1.449
				c-3.233,2.733-6.134,3.733-8.7,3c-1.733-0.334-2.85-0.934-3.35-1.801c-0.5-0.767-0.384-1.483,0.35-2.149
				c0.864-0.803,2.239-1.136,4.125-1c-0.395,0.08-1.053,0.28-1.975,0.6c-1.533,0.533-2.033,1.101-1.5,1.7
				C185.616,90.167,187.083,90.533,189.35,90.6z"/>
		</g>
	</g>
	<g>
		<g>
			<path style="fill-rule:evenodd;clip-rule:evenodd;fill:#7F5257;" d="M95,88c-0.2-0.533-0.017-0.983,0.55-1.35
				c0.667-0.434,1.617-0.567,2.85-0.4c-0.533,0.066-1.033,0.167-1.5,0.3c-0.967,0.267-1.333,0.601-1.1,1
				c0.333,0.566,1.284,0.851,2.85,0.851c1.7,0.033,3.15-0.334,4.35-1.101c-0.467,0.467-1.067,0.917-1.8,1.351
				c-1.467,0.833-2.784,1.083-3.95,0.75C96.017,89.066,95.267,88.6,95,88z"/>
		</g>
	</g>
	<g>
		<g>
			<path style="fill-rule:evenodd;clip-rule:evenodd;fill:#7F5257;" d="M158,63.6c-2.167,1.867-4.15,2.551-5.95,2.051
				c-1.133-0.267-1.866-0.7-2.2-1.301c-0.333-0.533-0.25-1.017,0.25-1.449c0.667-0.567,1.7-0.75,3.101-0.551
				c-0.566,0.067-1.101,0.184-1.601,0.351c-1.066,0.3-1.416,0.666-1.05,1.1c0.4,0.5,1.384,0.767,2.95,0.8
				C155.267,64.667,156.767,64.333,158,63.6z"/>
		</g>
	</g>
	<g>
		<g>
			<path style="fill-rule:evenodd;clip-rule:evenodd;fill:#7F5257;" d="M112.4,11.65c-0.867,0.233-1.2,0.533-1,0.9
				c0.3,0.534,1.184,0.817,2.65,0.85c1.534,0,2.85-0.333,3.95-1c-0.4,0.4-0.95,0.8-1.65,1.2c-1.367,0.767-2.583,0.983-3.65,0.65
				c-1.133-0.333-1.8-0.767-2-1.3c-0.2-0.467-0.034-0.883,0.5-1.25c0.633-0.4,1.5-0.5,2.6-0.3
				C113.333,11.433,112.867,11.517,112.4,11.65z"/>
		</g>
	</g>
	<g>
		<g>
			<path style="fill-rule:evenodd;clip-rule:evenodd;fill:#7F5257;" d="M60.45,7.2c-1.1,0.633-2.034,0.8-2.8,0.5
				c-0.533-0.2-0.85-0.45-0.95-0.75c-0.1-0.267-0.017-0.467,0.25-0.6c0.3-0.2,0.75-0.217,1.35-0.05c-0.267,0-0.517,0.017-0.75,0.05
				c-0.466,0.1-0.633,0.25-0.5,0.45c0.133,0.233,0.55,0.4,1.25,0.5C59.067,7.433,59.783,7.4,60.45,7.2z"/>
		</g>
	</g>
	<g>
		<g>
			<path style="fill-rule:evenodd;clip-rule:evenodd;fill:#7F5257;" d="M190.95,10.05c2.233,0.1,4.233-0.133,6-0.7
				c-3.167,1.8-5.733,2.5-7.7,2.1c-1.366-0.2-2.316-0.633-2.85-1.3c-0.534-0.633-0.534-1.267,0-1.9
				c0.667-0.819,1.858-1.194,3.574-1.125c-0.365,0.092-0.924,0.301-1.675,0.625c-1.366,0.567-1.75,1.1-1.149,1.6
				C187.816,9.717,189.083,9.95,190.95,10.05z"/>
		</g>
	</g>
	<g>
		<g>
			<path style="fill-rule:evenodd;clip-rule:evenodd;fill:#7F5257;" d="M223.35,8.45c-1.666,0.767-3.05,1.117-4.149,1.05
				c-1.367-0.133-2.25-0.5-2.65-1.1c-0.366-0.533-0.283-1.066,0.25-1.6c0.562-0.592,1.52-0.909,2.875-0.95
				c-0.28,0.085-0.756,0.285-1.425,0.6c-1.033,0.466-1.35,0.9-0.95,1.3c0.467,0.467,1.55,0.633,3.25,0.5
				c1.566-0.133,3.25-0.467,5.05-1C224.934,7.65,224.184,8.05,223.35,8.45z"/>
		</g>
	</g>
	<g>
		<g>
			<path style="fill-rule:evenodd;clip-rule:evenodd;fill:#7F5257;" d="M248,29.95c-1.333,1.333-2.616,1.95-3.85,1.85
				c-0.867-0.066-1.417-0.3-1.65-0.7c-0.233-0.333-0.2-0.667,0.1-1c0.4-0.367,1.051-0.567,1.95-0.6c-0.366,0.1-0.7,0.233-1,0.4
				c-0.633,0.3-0.833,0.567-0.6,0.8c0.3,0.3,0.983,0.383,2.05,0.25C246.134,30.817,247.134,30.483,248,29.95z"/>
		</g>
	</g>
	<g>
		<g>
			<path style="fill-rule:evenodd;clip-rule:evenodd;fill:#7F5257;" d="M242.2,58.9c0.8-0.134,1.517-0.384,2.149-0.75
				c-0.966,0.933-1.883,1.366-2.75,1.3c-0.6-0.033-1-0.184-1.199-0.45c-0.134-0.267-0.084-0.517,0.149-0.75
				c0.267-0.267,0.717-0.417,1.351-0.45c-0.267,0.066-0.5,0.167-0.7,0.3c-0.467,0.2-0.617,0.4-0.45,0.601
				C240.95,58.9,241.434,58.967,242.2,58.9z"/>
		</g>
	</g>
	<g>
		<g>
			<path style="fill-rule:evenodd;clip-rule:evenodd;fill:#7F5257;" d="M213.9,54.55c-2.534,1.5-4.9,1.95-7.101,1.351
				c-2.467-0.934-3.75-2.067-3.85-3.4c-0.101-1.2,0.467-1.85,1.7-1.95c1.066-0.333,2.517-0.366,4.35-0.1
				c-0.833,0.1-1.634,0.217-2.4,0.35c-1.533,0.267-2.216,0.733-2.05,1.4c0.367,1.267,1.983,1.934,4.851,2
				c2.866,0.033,5.449-0.617,7.75-1.95C216.25,53.05,215.167,53.816,213.9,54.55z"/>
		</g>
	</g>
	<g>
		<g>
			<path style="fill-rule:evenodd;clip-rule:evenodd;fill:#7F5257;" d="M249.2,79.1c-0.334,0.5-0.8,0.967-1.4,1.4
				c-1.267,0.9-2.5,1.167-3.7,0.8c-1.199-0.533-1.85-1.116-1.949-1.75c-0.067-0.5,0.216-0.833,0.85-1c0.6-0.2,1.35-0.217,2.25-0.05
				c-0.4,0.066-0.8,0.116-1.2,0.15c-0.8,0.133-1.149,0.366-1.05,0.699c0.1,0.733,0.917,1.101,2.45,1.101
				C247.017,80.45,248.267,80,249.2,79.1z"/>
		</g>
	</g>
	<g>
		<g>
			<path style="fill-rule:evenodd;clip-rule:evenodd;fill:#7F5257;" d="M247.65,96.4c-1.167,1.066-2.284,1.449-3.351,1.149
				c-0.7-0.2-1.116-0.483-1.25-0.85c-0.133-0.3-0.05-0.566,0.25-0.8c0.4-0.233,0.967-0.301,1.7-0.2c-0.3,0.033-0.6,0.083-0.9,0.149
				c-0.566,0.167-0.767,0.367-0.6,0.601c0.167,0.333,0.717,0.5,1.65,0.5C246.116,96.983,246.95,96.8,247.65,96.4z"/>
		</g>
	</g>
	<g>
		<g>
			<path style="fill-rule:evenodd;clip-rule:evenodd;fill:#7F5257;" d="M196.05,73.55c2.767,0.167,5.434-0.25,8-1.25
				c-1,0.667-2.166,1.3-3.5,1.9c-2.666,1.267-5.05,1.6-7.149,1c-2.367-0.934-3.617-2.05-3.75-3.351c-0.101-1.133,0.449-1.8,1.649-2
				c1.134-0.366,2.634-0.383,4.5-0.05c-0.833,0.066-1.649,0.167-2.45,0.3c-1.6,0.233-2.3,0.684-2.1,1.351
				C191.65,72.717,193.25,73.417,196.05,73.55z"/>
		</g>
	</g>
	<g>
		<g>
			<path style="fill-rule:evenodd;clip-rule:evenodd;fill:#7F5257;" d="M115.25,49.3c2.467-0.133,4.6-0.833,6.4-2.1
				c-0.667,0.733-1.517,1.45-2.55,2.15c-2.033,1.4-4,1.917-5.9,1.55c-2.1-0.634-3.233-1.484-3.4-2.55
				c-0.167-0.967,0.25-1.567,1.25-1.8c0.9-0.333,2.117-0.45,3.65-0.35c-0.667,0.133-1.317,0.283-1.95,0.45
				c-1.3,0.333-1.85,0.767-1.65,1.3C111.5,49.017,112.883,49.467,115.25,49.3z"/>
		</g>
	</g>
	<g>
		<g>
			<path style="fill-rule:evenodd;clip-rule:evenodd;fill:#7F5257;" d="M158,20.2c-0.366,0.367-0.833,0.733-1.4,1.1
				c-1.1,0.7-2.1,0.967-3,0.8c-1-0.167-1.616-0.467-1.85-0.9c-0.2-0.4-0.1-0.767,0.3-1.1c0.5-0.4,1.233-0.583,2.2-0.55
				c-0.4,0.1-0.783,0.217-1.15,0.35c-0.733,0.267-1,0.55-0.8,0.85c0.334,0.4,1.101,0.567,2.3,0.5C155.9,21.15,157.033,20.8,158,20.2
				z"/>
		</g>
	</g>
	<g>
		<g>
			<path style="fill-rule:evenodd;clip-rule:evenodd;fill:#7F5257;" d="M168.55,36.25c0.4,0.5,1.367,0.9,2.9,1.2
				c1.767,0.367,3.366,0.316,4.8-0.15c-2.566,1.4-4.7,1.733-6.4,1c-1.1-0.4-1.8-0.917-2.1-1.55c-0.233-0.6-0.083-1.1,0.45-1.5
				c0.665-0.454,1.632-0.537,2.899-0.25c-0.29,0.018-0.739,0.084-1.35,0.2C168.65,35.4,168.25,35.75,168.55,36.25z"/>
		</g>
	</g>
	<g>
		<g>
			<path style="fill-rule:evenodd;clip-rule:evenodd;fill:#7F5257;" d="M178.25,9.25c-0.634,0.433-1.366,0.867-2.2,1.3
				c-1.633,0.867-3.116,1.15-4.45,0.85c-1.5-0.6-2.316-1.283-2.449-2.05c-0.067-0.6,0.267-1.033,1-1.3
				c0.733-0.267,1.666-0.316,2.8-0.15c-0.533,0.1-1.05,0.2-1.55,0.3c-0.967,0.167-1.384,0.45-1.25,0.85
				c0.3,0.833,1.333,1.233,3.1,1.2C174.85,10.25,176.517,9.917,178.25,9.25z"/>
		</g>
	</g>
	<g>
		<g>
			<path style="fill-rule:evenodd;clip-rule:evenodd;fill:#7F5257;" d="M217.7,24.15c-0.967,0-1.417,0.217-1.351,0.65
				c0.101,0.733,0.967,1.267,2.601,1.6c1.7,0.367,3.217,0.233,4.55-0.4c-0.533,0.4-1.217,0.767-2.05,1.1
				c-1.601,0.6-2.983,0.6-4.15,0c-1.2-0.733-1.816-1.434-1.85-2.1c-0.033-0.6,0.3-0.983,1-1.15c0.733-0.167,1.633-0.05,2.7,0.35
				C218.65,24.167,218.167,24.15,217.7,24.15z"/>
		</g>
	</g>
	<g>
		<g>
			<path style="fill-rule:evenodd;clip-rule:evenodd;fill:#7F5257;" d="M38.5,63.85c0.933-0.8,2.367-1.333,4.3-1.6
				c0.967-0.134,1.85-0.184,2.65-0.15c-1.3,0.267-2.534,0.634-3.7,1.101c-2.3,0.934-3.083,1.85-2.35,2.75
				c1,1.233,3.417,1.717,7.25,1.45c4.033-0.267,7.6-1.334,10.7-3.2c-1.167,1.166-2.633,2.3-4.4,3.399
				c-3.534,2.2-6.7,3.067-9.5,2.601c-3.067-0.5-5-1.45-5.8-2.851C36.95,66.083,37.233,64.917,38.5,63.85z"/>
		</g>
	</g>
	<g>
		<g>
			<path style="fill-rule:evenodd;clip-rule:evenodd;fill:#7F5257;" d="M37.9,90.5c0.167,0.8,1.233,1.366,3.2,1.7
				c2.133,0.366,3.833,0.017,5.1-1.05c0.933-0.134,0.233,0.399-2.1,1.6c-1.833,0.934-3.483,1.05-4.95,0.35
				c-1.4-0.733-2.167-1.5-2.3-2.3c-0.1-0.7,0.233-1.184,1-1.45c0.533-0.166,1.25-0.183,2.15-0.05c0.433,0.066,0.833,0.15,1.2,0.25
				c-0.633,0-1.233,0.017-1.8,0.05C38.2,89.7,37.7,90,37.9,90.5z"/>
		</g>
	</g>
	<g>
		<g>
			<path style="fill-rule:evenodd;clip-rule:evenodd;fill:#7F5257;" d="M16.2,72.8l-1.35,1.351c-1.2,0.899-2.317,1.267-3.35,1.1
				c-1.133-0.167-1.833-0.5-2.1-1C9.167,73.816,9.283,73.4,9.75,73c0.333-0.267,0.833-0.45,1.5-0.55
				c0.333-0.033,0.633-0.05,0.9-0.05c-0.433,0.1-0.85,0.233-1.25,0.399c-0.8,0.334-1.083,0.65-0.85,0.95
				c0.333,0.467,1.184,0.616,2.55,0.45C14.067,74.033,15.267,73.566,16.2,72.8z"/>
		</g>
	</g>
	<g>
		<g>
			<path style="fill-rule:evenodd;clip-rule:evenodd;fill:#7F5257;" d="M115.05,29.65c-0.566,0.1-1.1,0.2-1.6,0.3
				c-1.034,0.2-1.483,0.517-1.35,0.95c0.3,0.8,1.383,1.217,3.25,1.25c1.933,0.033,3.6-0.4,5-1.3c-0.533,0.566-1.217,1.083-2.05,1.55
				c-1.7,0.967-3.25,1.267-4.65,0.9c-0.767-0.233-1.417-0.566-1.95-1c-0.467-0.433-0.717-0.867-0.75-1.3c0-0.3,0.15-0.55,0.45-0.75
				c0.2-0.1,0.483-0.217,0.85-0.35C112.783,29.567,113.717,29.483,115.05,29.65z"/>
		</g>
	</g>
	<g>
		<g>
			<path style="fill-rule:evenodd;clip-rule:evenodd;fill:#7F5257;" d="M110,69.2c-0.667,0.733-1.533,1.399-2.6,2
				c-2.133,1.267-4.2,1.533-6.2,0.8c-1.1-0.434-1.917-1.15-2.45-2.15c-0.433-0.866-0.5-1.517-0.2-1.949
				c0.167-0.334,0.467-0.534,0.9-0.601c0.167-0.033,0.55-0.033,1.15,0c1.033,0,2.017,0.117,2.95,0.351
				c-0.033,0.033-0.633,0.066-1.8,0.1c-1.133,0.066-1.767,0.3-1.9,0.7c-0.033,1.3,1.217,2.083,3.75,2.35
				C106.167,71.033,108.3,70.5,110,69.2z"/>
		</g>
	</g>
	<g>
		<g>
			<path style="fill-rule:evenodd;clip-rule:evenodd;fill:#7F5257;" d="M9.25,41.8c0.4-0.133,0.917-0.183,1.55-0.15
				c0.333,0.033,0.617,0.067,0.85,0.1c-0.433,0.033-0.85,0.083-1.25,0.15c-0.833,0.133-1.183,0.383-1.05,0.75
				c0.2,0.633,1.017,0.983,2.45,1.05c1.534,0.066,2.817-0.25,3.85-0.95c0.033,0-0.5,0.4-1.6,1.2c-1.3,0.733-2.5,0.917-3.6,0.55
				c-1.133-0.467-1.767-0.983-1.9-1.55C8.45,42.417,8.683,42.033,9.25,41.8z"/>
		</g>
	</g>
	<g>
		<g>
			<path style="fill-rule:evenodd;clip-rule:evenodd;fill:#7F5257;" d="M83.5,94.9c-1.8,0.966-3.3,1.466-4.5,1.5
				c-1.5,0-2.517-0.317-3.05-0.95c-0.467-0.566-0.434-1.167,0.1-1.8c0.367-0.467,1.05-0.851,2.05-1.15
				c0.5-0.134,0.967-0.217,1.4-0.25l-1.85,0.85c-1.1,0.634-1.417,1.15-0.95,1.551c1.133,0.8,4.2,0.399,9.2-1.2
				C85.167,93.917,84.367,94.4,83.5,94.9z"/>
		</g>
	</g>
	<g>
		<g>
			<path style="fill-rule:evenodd;clip-rule:evenodd;fill:#7F5257;" d="M88.65,71.65c-2.1,1.767-3.983,2.399-5.65,1.899
				c-1.1-0.267-1.817-0.684-2.15-1.25c-0.333-0.5-0.25-0.967,0.25-1.399c0.555-0.494,1.456-0.686,2.7-0.575
				c-0.266,0.043-0.699,0.168-1.3,0.375c-1.033,0.333-1.367,0.7-1,1.1c0.433,0.434,1.383,0.684,2.85,0.75
				C86.05,72.65,87.483,72.35,88.65,71.65z"/>
		</g>
	</g>
	<g>
		<g>
			<path style="fill-rule:evenodd;clip-rule:evenodd;fill:#7F5257;" d="M44.45,7.2c0.242-0.333,0.717-0.516,1.425-0.55
				c-0.142,0.054-0.35,0.154-0.625,0.3c-0.567,0.267-0.717,0.483-0.45,0.65c0.267,0.133,0.784,0.2,1.55,0.2
				c0.867-0.033,1.683-0.15,2.45-0.35c-1.267,0.733-2.3,1.05-3.1,0.95c-0.567-0.033-0.967-0.167-1.2-0.4
				C44.3,7.767,44.283,7.5,44.45,7.2z"/>
		</g>
	</g>
	<g>
		<g>
			<path style="fill-rule:evenodd;clip-rule:evenodd;fill:#7F5257;" d="M142.3,11.05c-1.7,1-3.2,1.367-4.5,1.1
				c-1.399-0.267-2.283-0.733-2.649-1.4c-0.334-0.567-0.2-1.1,0.399-1.6c0.7-0.566,1.8-0.816,3.3-0.75
				c-0.633,0.133-1.216,0.3-1.75,0.5c-1.133,0.4-1.517,0.817-1.149,1.25c0.467,0.6,1.6,0.85,3.399,0.75c1.867-0.1,3.534-0.566,5-1.4
				C143.816,10.033,143.134,10.55,142.3,11.05z"/>
		</g>
	</g>
	<g>
		<g>
			<path style="fill-rule:evenodd;clip-rule:evenodd;fill:#7F5257;" d="M165.2,51.05c-0.834,0.4-1.084,0.75-0.75,1.05
				c0.366,0.367,1.217,0.483,2.55,0.351c1.467-0.167,2.616-0.601,3.45-1.3c-1.533,1.699-3.033,2.466-4.5,2.3
				c-1.101-0.134-1.634-0.434-1.601-0.9c0.067-0.399,0.017-0.55-0.149-0.45l-0.25,0.25c-0.134,0.233-0.217,0.15-0.25-0.25
				c-0.066-0.433-0.017-0.633,0.149-0.6c0.661-0.629,1.485-0.929,2.476-0.9C166.12,50.648,165.745,50.799,165.2,51.05z"/>
		</g>
	</g>
	<g>
		<g>
			<path style="fill-rule:evenodd;clip-rule:evenodd;fill:#7F5257;" d="M173.1,91.6c-1.733,2.4-3.633,3.467-5.699,3.2
				c-1.301-0.133-2.15-0.5-2.551-1.1c-0.333-0.533-0.25-1.05,0.25-1.55c0.634-0.567,1.634-0.867,3-0.9
				c-0.533,0.167-1.05,0.35-1.55,0.55c-1,0.467-1.316,0.884-0.95,1.25c0.434,0.533,1.483,0.7,3.15,0.5
				C170.616,93.316,172.066,92.667,173.1,91.6z"/>
		</g>
	</g>
	<g>
		<g>
			<path style="fill-rule:evenodd;clip-rule:evenodd;fill:#7F5257;" d="M137.55,59.1c-0.366,0.467-0.85,0.934-1.45,1.4
				c-1.233,0.934-2.366,1.366-3.399,1.3c-1.134-0.1-1.867-0.383-2.2-0.85c-0.3-0.434-0.233-0.884,0.2-1.351
				c0.5-0.5,1.333-0.783,2.5-0.85c-0.467,0.134-0.917,0.3-1.351,0.5c-0.8,0.434-1.05,0.8-0.75,1.1c0.4,0.434,1.301,0.534,2.7,0.301
				C135.267,60.417,136.517,59.9,137.55,59.1z"/>
		</g>
	</g>
	<g>
		<g>
			<path style="fill-rule:evenodd;clip-rule:evenodd;fill:#7F5257;" d="M119,96.1c2.567-0.166,4.6-1.017,6.1-2.55
				c-0.533,0.8-1.3,1.601-2.3,2.4c-2,1.566-4,2.116-6,1.649c-2.066-0.733-3.183-1.616-3.35-2.649c-0.133-0.867,0.3-1.45,1.3-1.75
				c0.967-0.367,2.2-0.467,3.7-0.3c-0.667,0.133-1.333,0.267-2,0.399c-1.267,0.3-1.817,0.717-1.65,1.25
				C115.1,95.717,116.5,96.233,119,96.1z"/>
		</g>
	</g>
	<g>
		<g>
			<path style="fill-rule:evenodd;clip-rule:evenodd;fill:#7F5257;" d="M75.65,30.95c-0.467,0.466-1.083,0.917-1.85,1.35
				c-1.5,0.9-2.833,1.233-4,1c-1.267-0.267-2.05-0.7-2.35-1.3c-0.267-0.5-0.133-0.983,0.4-1.45c0.633-0.5,1.6-0.7,2.9-0.6
				c-0.533,0.1-1.05,0.233-1.55,0.4c-0.967,0.367-1.3,0.75-1,1.15c0.367,0.533,1.367,0.767,3,0.7
				C72.9,32.133,74.383,31.717,75.65,30.95z"/>
		</g>
	</g>
	<g>
		<g>
			<path style="fill-rule:evenodd;clip-rule:evenodd;fill:#7F5257;" d="M94.1,8.35c-0.267-0.5-0.133-0.983,0.4-1.45
				c0.633-0.533,1.583-0.8,2.85-0.8c-0.533,0.133-1.033,0.3-1.5,0.5c-0.967,0.4-1.3,0.783-1,1.15c0.4,0.533,1.417,0.717,3.05,0.55
				c1.7-0.2,3.133-0.75,4.3-1.65c-0.4,0.533-0.95,1.05-1.65,1.55c-1.4,1.066-2.716,1.5-3.95,1.3C95.267,9.333,94.433,8.95,94.1,8.35
				z"/>
		</g>
	</g>
	<g>
		<g>
			<path style="fill-rule:evenodd;clip-rule:evenodd;fill:#7F5257;" d="M95.25,29.25c-0.1-0.5,0.117-0.867,0.65-1.1
				c0.633-0.267,1.45-0.3,2.45-0.1c-0.434,0.034-0.867,0.083-1.3,0.15c-0.833,0.133-1.183,0.383-1.05,0.75
				c0.233,0.6,1.067,0.95,2.5,1.05c1.5,0.1,2.783-0.2,3.85-0.9c-0.434,0.433-0.967,0.833-1.6,1.2c-1.333,0.7-2.533,0.867-3.6,0.5
				C96.05,30.333,95.417,29.817,95.25,29.25z"/>
		</g>
	</g>
	<g>
		<g>
			<path style="fill-rule:evenodd;clip-rule:evenodd;fill:#7F5257;" d="M53.35,51.25c-0.8,0.833-1.6,1.134-2.4,0.9
				C50.417,52.05,50.1,51.866,50,51.6c-0.1-0.233-0.017-0.416,0.25-0.55c0.267-0.2,0.65-0.267,1.15-0.2
				c-0.2,0.034-0.4,0.084-0.6,0.15c-0.4,0.1-0.55,0.233-0.45,0.4c0.133,0.233,0.533,0.35,1.2,0.35
				C52.25,51.75,52.85,51.583,53.35,51.25z"/>
		</g>
	</g>
	<g>
		<g>
			<path style="fill-rule:evenodd;clip-rule:evenodd;fill:#7F5257;" d="M168.9,68.75c1.8-0.1,3.199-0.684,4.199-1.75
				c0.601-0.134,0.084,0.434-1.55,1.7c-1.434,1.066-2.816,1.45-4.149,1.149c-1.334-0.333-2.134-0.833-2.4-1.5
				c-0.2-0.566,0-1.033,0.6-1.399c0.667-0.4,1.617-0.55,2.851-0.45c-0.5,0.1-1,0.217-1.5,0.35c-0.967,0.301-1.334,0.65-1.101,1.051
				C166.184,68.533,167.2,68.816,168.9,68.75z"/>
		</g>
	</g>
	<g>
		<g>
			<path style="fill-rule:evenodd;clip-rule:evenodd;fill:#7F5257;" d="M212.3,92.55c2.066-0.033,4.2-0.333,6.4-0.899
				c-0.867,0.466-1.834,0.933-2.9,1.399c-2.166,0.9-3.934,1.25-5.3,1.05c-1.667-0.233-2.75-0.733-3.25-1.5
				c-0.467-0.699-0.366-1.366,0.3-2c0.748-0.747,2.006-1.114,3.775-1.1c-0.364,0.071-0.973,0.288-1.825,0.65
				c-1.366,0.566-1.8,1.1-1.3,1.6C208.8,92.316,210.167,92.583,212.3,92.55z"/>
		</g>
	</g>
	<g>
		<g>
			<path style="fill-rule:evenodd;clip-rule:evenodd;fill:#7F5257;" d="M232.25,96.45c0.366-0.4,0.95-0.634,1.75-0.7
				c-0.3,0.134-0.6,0.267-0.9,0.4c-0.6,0.333-0.783,0.616-0.55,0.85c0.334,0.267,0.983,0.3,1.95,0.1
				c1.066-0.166,2.017-0.533,2.85-1.1c-0.333,0.333-0.716,0.667-1.149,1c-0.9,0.667-1.717,0.983-2.45,0.95
				c-0.833-0.033-1.384-0.217-1.65-0.55C231.9,97.1,231.95,96.783,232.25,96.45z"/>
		</g>
	</g>
	<g>
		<g>
			<path style="fill-rule:evenodd;clip-rule:evenodd;fill:#7F5257;" d="M233.5,57.25c-0.934,0.6-1.8,0.816-2.6,0.65
				c-0.834-0.167-1.334-0.434-1.5-0.801c-0.167-0.333-0.067-0.633,0.3-0.899c0.399-0.334,1-0.483,1.8-0.45
				c-0.333,0.066-0.65,0.167-0.95,0.3c-0.633,0.233-0.85,0.467-0.649,0.7c0.233,0.366,0.866,0.517,1.899,0.45
				c1.101-0.066,2.05-0.367,2.851-0.9C234.35,56.634,233.967,56.95,233.5,57.25z"/>
		</g>
	</g>
</g>
</svg>
