<?xml version="1.0" encoding="iso-8859-1"?>
<!-- Generator: Adobe Illustrator 15.1.0, SVG Export Plug-In . SVG Version: 6.00 Build 0)  -->
<!DOCTYPE svg PUBLIC "-//W3C//DTD SVG 1.1//EN" "http://www.w3.org/Graphics/SVG/1.1/DTD/svg11.dtd">
<svg version="1.1" id="Isolation_Mode" xmlns="http://www.w3.org/2000/svg" xmlns:xlink="http://www.w3.org/1999/xlink" x="0px"
	 y="0px" width="92.25px" height="45.25px" viewBox="0 0 92.25 45.25" style="enable-background:new 0 0 92.25 45.25;"
	 xml:space="preserve">
<g>
	<path style="fill-rule:evenodd;clip-rule:evenodd;fill:#C57B5B;" d="M87,37.95c-1.9,1.233-4,2.166-6.3,2.8s-4.233,0.983-5.8,1.05
		l-1.7-0.05c-3.4-4.667-7.134-9.4-11.2-14.2c-8.066-9.566-13.667-14.667-16.8-15.3c-3.133-0.633-9.4,2.35-18.8,8.95
		c-4.7,3.3-9.1,6.649-13.2,10.05c-2.5,0.167-4.917-0.017-7.25-0.55C1.283,29.6-0.633,27.283,0.2,23.75
		c3.933-3.333,8.517-6.817,13.75-10.45C24.45,6.067,33.033,1.717,39.7,0.25c6.666-1.467,16.916,4.1,30.75,16.7
		c6.934,6.3,13.184,12.733,18.75,19.3C88.7,36.75,87.967,37.316,87,37.95z"/>
	<g>
		<path style="fill-rule:evenodd;clip-rule:evenodd;fill:#A3684F;" d="M57.7,15.25C61,18.017,68.366,25.6,79.8,38l0.9,2.75
			c-2.3,0.634-4.233,0.983-5.8,1.05l-1.7-0.05c-3.367-4.467-7.05-9.033-11.05-13.7c-7.934-9.333-13.417-14.466-16.45-15.4
			c-2.934-0.9-8.767,1.733-17.5,7.9c-4.5,3.167-9.517,6.75-15.05,10.75C12.317,31.4,11,31.384,9.2,31.25
			c5.667-6.866,12.566-12.367,20.7-16.5C41.133,9.083,50.4,9.25,57.7,15.25z"/>
		<path style="fill-rule:evenodd;clip-rule:evenodd;fill:#A3684F;" d="M39.15,2c-1.967,0.867-5.2,2.667-9.7,5.4
			c-3.467,2.067-8.684,6.133-15.65,12.2c-4.2,3.633-7.867,6.95-11,9.95c-2.367-1.3-3.233-3.233-2.6-5.8
			c3.933-3.333,8.517-6.817,13.75-10.45C24.45,6.067,33.033,1.717,39.7,0.25c1.7-0.333,3.683-0.217,5.95,0.35
			C43.75,0.467,41.583,0.933,39.15,2z"/>
	</g>
	<path style="fill-rule:evenodd;clip-rule:evenodd;fill:#805642;" d="M75.3,36c-1.233-0.134-2.75-0.434-4.55-0.9l-2.3-0.6
		c-2.566-3.866-4.733-6.783-6.5-8.75c-1.934-2.134-4.8-5.017-8.601-8.65L48.2,12.25l2.649,1.25c2.067,1.133,3.884,2.35,5.45,3.65
		C58.8,19.217,65.134,25.5,75.3,36z"/>
	<path style="fill-rule:evenodd;clip-rule:evenodd;fill:#805642;" d="M36.45,1.9c-7.767,4.567-13.267,7.983-16.5,10.25
		c-3.267,2.233-9.1,7.434-17.5,15.6l-0.75-1c-0.167-0.2-0.217-0.7-0.15-1.5l0.15-1.1c2.566-1.767,6.267-4.601,11.1-8.5
		c3.034-2.467,7.883-5.5,14.55-9.1C30.683,4.75,33.717,3.2,36.45,1.9z"/>
	<path style="fill-rule:evenodd;clip-rule:evenodd;fill:#D19A79;" d="M80.95,32.45l-1,0.2c-7.5-8.434-13.05-14.434-16.65-18
		c-2.233-2.233-6-4.883-11.3-7.95l-7.3-3.95l3.05,0.6c2.6,0.8,5.25,2.1,7.95,3.9c4.333,2.933,11.366,8.933,21.1,18
		c4.334,4.1,6.25,6.316,5.75,6.65C82.25,32.1,81.717,32.283,80.95,32.45z"/>
	<path style="fill-rule:evenodd;clip-rule:evenodd;fill:#915F48;" d="M85.75,34.8c0.533-0.533,0.783-1.033,0.75-1.5l2.15,0.9
		c1.566,0.833,2.666,1.934,3.3,3.3c0.767,1.634,0.066,3.333-2.101,5.1c-2.199,1.767-4.666,2.65-7.399,2.65c-2.834,0-5.5-0.233-8-0.7
		c-2.601-0.467-4.267-1.066-5-1.8c-0.634-0.634-1.066-2.116-1.3-4.45l-0.2-3.3l3.149,1.15c2.733,0.699,5.767,0.899,9.101,0.6
		C82.9,36.517,84.75,35.866,85.75,34.8z"/>
	<path style="fill-rule:evenodd;clip-rule:evenodd;fill:#A3684F;" d="M87.25,35.85l1.55,0.101c1.101,0.267,1.75,0.8,1.95,1.6
		c0.233,0.9,0.134,1.7-0.3,2.4c-0.434,0.633-1.05,1.1-1.851,1.399c-0.733,0.301-1.233,0.25-1.5-0.149
		c-0.3-0.367-0.267-0.983,0.101-1.851c0.267-0.699,0.35-1.483,0.25-2.35L87.25,35.85z"/>
	<g>
		<path style="fill-rule:evenodd;clip-rule:evenodd;fill:#805642;" d="M87,44.3c-1.467,0.634-2.983,0.95-4.55,0.95
			c-2.834,0-5.5-0.233-8-0.7c-2.601-0.467-4.267-1.066-5-1.8c-0.634-0.634-1.066-2.116-1.3-4.45l-0.2-3.3l2.7,1.05
			c2.399,0.7,5.05,0.983,7.949,0.851v0.05L77.95,39c-0.334,1.566-0.15,2.8,0.55,3.7C79.566,44.066,82.4,44.6,87,44.3z"/>
	</g>
</g>
</svg>
