<?xml version="1.0" encoding="iso-8859-1"?>
<!-- Generator: Adobe Illustrator 15.1.0, SVG Export Plug-In . SVG Version: 6.00 Build 0)  -->
<!DOCTYPE svg PUBLIC "-//W3C//DTD SVG 1.1//EN" "http://www.w3.org/Graphics/SVG/1.1/DTD/svg11.dtd">
<svg version="1.1" id="mountains" xmlns="http://www.w3.org/2000/svg" xmlns:xlink="http://www.w3.org/1999/xlink" x="0px" y="0px"
	 width="368.95px" height="695.6px" viewBox="0 0 368.95 695.6" style="enable-background:new 0 0 368.95 695.6;"
	 xml:space="preserve">
<g>
	<path style="fill-rule:evenodd;clip-rule:evenodd;fill:#7EA497;" d="M249.55,244.6c3.4-10.833,3.7-18,0.9-21.5
		c-5.667-7.067-13.351-10.817-23.05-11.25c-8.934-0.4-16.25,1.85-21.95,6.75c-2.334,2-3.167,5.566-2.5,10.7
		c0.467,3.7,1.899,9.05,4.3,16.05c3.333,9.8,5.2,15.433,5.6,16.9c1.733,5.967,2.267,10.417,1.601,13.35
		c-1,4.5-3.367,12.383-7.101,23.65c-2.699,9.4-2.833,15.017-0.399,16.85c1.467,1.1,5.133-2.4,11-10.5
		c5.767-7.967,11.6-17.533,17.5-28.7C241.983,264.567,246.684,253.8,249.55,244.6z M136.65,91.1c-3.867-3-7.9-4.133-12.1-3.4
		c-4.667,0.8-9.1,3.833-13.3,9.1c-3.167,3.967-3.267,9.383-0.3,16.25c1.167,2.633,6.417,11.833,15.75,27.6
		c3.267,5.533,5.417,16.583,6.45,33.15c0.5,8.3,0.684,16.05,0.55,23.25c3.033-7.267,5.983-15.883,8.85-25.85
		c5.733-19.934,8.2-36.633,7.4-50.1c-0.367-6.333-1.767-12.217-4.2-17.65C143.35,98.083,140.317,93.967,136.65,91.1z M338.15,52.35
		c10,3.133,17.767,10.566,23.3,22.3c10,21.233,0.5,38.85-28.5,52.85c-9.066,4.367-19.533,8.117-31.4,11.25l-15.1,3.35l-16.5,63
		l33-1.5l-19.5,75c-1.867,1.8-4.134,4.35-6.8,7.65c-5.301,6.567-9.9,13.517-13.801,20.85c-12.5,23.5-15.633,46.5-9.399,69
		c6.267,22.5,16.649,50.75,31.149,84.75c7.233,17,13.851,31.75,19.851,44.25l10.5,39l16.5,3l9,66l28.5,6l-15,76.5H57l11.95-75
		l66-156c-2.5-7-4.684-14.816-6.55-23.449c-3.767-17.233-4.083-29.917-0.95-38.051c1.667-4.366,4.566-8.699,8.7-13
		c2.7-2.8,6.934-6.466,12.7-11c6.367-5.066,10.767-8.733,13.2-11c4.633-4.366,8.1-8.699,10.4-13c2.6-4.8,4.267-14.566,5-29.3
		c0.767-14.4,0.483-29.95-0.85-46.65c-1.467-17.933-3.833-33.183-7.1-45.75c-3.733-14.333-8.25-23.267-13.55-26.8
		c-9.367-6.233-16.934,7.9-22.7,42.4c-2.867,17.233-4.8,35.1-5.8,53.6c-0.733-25.5-2.233-51.117-4.5-76.85
		c-4.5-51.5-10.5-77.883-18-79.15c-7.5-1.233-13.5,3.9-18,15.4c-2.233,5.733-3.733,11.6-4.5,17.6c1.5-14.5,2-28.934,1.5-43.3
		c-1-28.733-6.483-42.783-16.45-42.15c-10,0.633-24.25,11.317-42.75,32.05C15.517,136.567,7.267,146.867,0,157.1
		c23-37.967,38-63.45,45-76.45c4.367-8.133,4.433-19.066,0.2-32.8c-2.133-6.867-4.7-12.934-7.7-18.2
		c19.5,7.5,40.367,15.184,62.6,23.05c44.5,15.767,73.617,24.583,87.35,26.45c11.666,1.567,18.399-8.417,20.2-29.95
		c1.1-13.4,0.283-29.8-2.45-49.2c2.566,14.2,6.366,26.5,11.399,36.9C224.4,53,234.184,62.083,245.95,64.15c7,1.2,16.75,0.2,29.25-3
		c1.8-0.467,7.184-1.967,16.149-4.5c6.667-1.867,12.101-3.233,16.301-4.1C320.083,49.95,330.25,49.883,338.15,52.35z M339.9,87.2
		c-1.534-6.567-4.983-11.8-10.351-15.7c-5.934-4.333-12.8-5.783-20.6-4.35c-6.4,1.167-11.45,4.567-15.15,10.2
		c-3.434,5.233-4.899,11-4.399,17.3c0.466,6.567,2.983,11.767,7.55,15.6c5.2,4.333,12.2,5.967,21,4.9
		c8.8-1.066,15.149-4.483,19.05-10.25C340.467,99.767,341.434,93.867,339.9,87.2z"/>
	<path style="fill-rule:evenodd;clip-rule:evenodd;fill:#649180;" d="M260.4,293.05l-5.851,21.15
		c-4.899,16.833-9.816,32.117-14.75,45.85c-15.833,44-28.967,64.334-39.399,61c-10.4-3.333-3.517-25.666,20.649-67
		C233.116,333.383,246.233,313.05,260.4,293.05z"/>
	<path style="fill-rule:evenodd;clip-rule:evenodd;fill:#649180;" d="M312.4,567.05l-1.15,5.05c-0.9,4.2-1.634,8.434-2.2,12.7
		c-1.833,13.667-1.717,25.084,0.351,34.25c2.1,9.167,8.399,14.417,18.899,15.75c5.233,0.667,10.267,0.417,15.101-0.75
		c-3,3.834-7,7.05-12,9.65c-10,5.166-20,4.616-30-1.65c-10-6.233-11.167-20.6-3.5-43.1c2.399-7.033,5.533-14.467,9.399-22.3
		L312.4,567.05z"/>
	<path style="fill-rule:evenodd;clip-rule:evenodd;fill:#649180;" d="M275.4,516.05l-5.351,15.601
		c-4.434,12.366-8.85,23.5-13.25,33.399c-14.166,31.667-25.633,45-34.399,40c-8.733-5-2.517-21.333,18.649-49
		c6.601-8.633,14.3-17.899,23.101-27.8L275.4,516.05z"/>
	<path style="fill-rule:evenodd;clip-rule:evenodd;fill:#649180;" d="M248.4,436.05l-2.65,13.351
		c-2.333,10.6-4.816,20.199-7.45,28.8c-8.5,27.5-17.133,39.783-25.899,36.85c-8.733-2.899-5.351-16.934,10.149-42.1
		c4.834-7.867,10.584-16.384,17.25-25.55L248.4,436.05z"/>
	<path style="fill-rule:evenodd;clip-rule:evenodd;fill:#649180;" d="M227.4,81.05l-2.351,5.55c-1.833,4.633-3.5,9.333-5,14.1
		c-4.833,15.167-7.05,27.95-6.649,38.35c0.433,10.434,6.899,18.233,19.399,23.4c6.233,2.566,12.434,4.1,18.601,4.6
		c-5.667,0.667-11.95,0.75-18.851,0.25c-13.833-1-23.883-4.417-30.149-10.25c-6.233-5.833-3.934-20.25,6.899-43.25
		C214.7,102.3,220.733,91.383,227.4,81.05z"/>
	<path style="fill-rule:evenodd;clip-rule:evenodd;fill:#93BCAF;" d="M262.4,77.05l1.149,9.8c0.667,7.767,0.834,14.833,0.5,21.2
		c-1.166,20.333-7.383,29.667-18.649,28c-11.233-1.667-11.767-12-1.601-31C248.866,95.55,255.066,86.217,262.4,77.05z"/>
	<polygon style="fill-rule:evenodd;clip-rule:evenodd;fill:#93BCAF;" points="272.4,213.05 294.4,209.05 277.4,276.05 284.4,220.05 
			"/>
	<path style="fill-rule:evenodd;clip-rule:evenodd;fill:#93BCAF;" d="M246.8,386.2l-0.399-7.15c2.066,12.733,8.733,32.033,20,57.9
		c6,13.733,13.666,30.767,23,51.1c3,7.334,7.083,16.667,12.25,28c3.6,8.834,5.183,16.167,4.75,22
		c-0.4,5.834-2.517,10.25-6.351,13.25c-1.934,1.5-3.816,2.417-5.649,2.75c0.666-10,1-19.333,1-28c0-5.467-3.917-16.25-11.75-32.35
		c-10.167-19.767-17.584-34.316-22.25-43.65c-5.834-11.666-10.084-27-12.75-46C247.816,398.116,247.2,392.167,246.8,386.2z"/>
	<g>
		<path style="fill-rule:evenodd;clip-rule:evenodd;fill:#649180;" d="M207.65,49.2c1.1-13.4,0.283-29.8-2.45-49.2
			c1.3,7.233,2.983,14.1,5.05,20.6c5.5,24.3,7.55,40.45,6.15,48.45c-2.733,15.567-12.384,18.934-28.95,10.1
			C199.116,80.717,205.85,70.733,207.65,49.2z"/>
		<path style="fill-rule:evenodd;clip-rule:evenodd;fill:#649180;" d="M257.4,246.05c1.433-4.8,1.6-9.95,0.5-15.45
			c-1.101-5.5-3.25-10.233-6.45-14.2c-3.5-4.267-7.65-6.883-12.45-7.85c-5.434-1.066-11.233,0.117-17.4,3.55
			c-3.133,0.367-6.1,1.1-8.899,2.2c-2.8,1.133-5.217,2.567-7.25,4.3c-2.334,2-3.167,5.566-2.5,10.7c0.467,3.7,1.899,9.05,4.3,16.05
			c3.333,9.8,5.2,15.433,5.6,16.9c1.733,5.967,2.267,10.417,1.601,13.35c-0.533,2.5-2.217,8.15-5.05,16.95
			c-2.4,7.534-3.784,12.983-4.15,16.35c-0.767-1.3-1.366-0.65-1.8,1.95c-0.467,2.6-0.351,5.117,0.35,7.55
			c0.867,2.967,2.4,4.5,4.601,4.6c2.833,0.1,6.5-2.217,11-6.95c9.066-9.5,17.149-21.283,24.25-35.35
			C249.184,269.767,253.767,258.217,257.4,246.05z M142.55,89.35c-3.4-1.867-7.117-2.817-11.15-2.85
			c-3.167-0.033-5.7,0.417-7.6,1.35c-4.4,1-8.583,3.983-12.55,8.95c-3.167,3.967-3.267,9.383-0.3,16.25
			c1.167,2.633,6.417,11.833,15.75,27.6c3.267,5.533,5.417,16.583,6.45,33.15c0.5,8.3,0.684,16.05,0.55,23.25
			c4.466-5.5,8.833-12.7,13.1-21.6c8.567-17.833,12.434-35.3,11.6-52.4C157.533,105.85,152.25,94.617,142.55,89.35z M165.05,118.7
			c0.9,9.566,0.35,18.683-1.65,27.35l22-11l-8,47l9.55-0.1c7.8,0.167,15.333,0.917,22.6,2.25
			c23.167,4.167,39.117,13.117,47.851,26.85c9.066,14.233,9.816,30.45,2.25,48.65c-2.733,6.533-6.851,14.083-12.351,22.65
			c-3.133,4.833-7.767,11.733-13.899,20.7c-4.534,6.967-9.967,16.717-16.301,29.25c-6.899,13.733-13.166,27.533-18.8,41.4
			c-14.6,35.767-20.566,60.55-17.9,74.35c2.5,12.934,12.25,12.816,29.25-0.35c5.3-4.134,11.017-9.316,17.149-15.55l7.601-8.101
			l-63,127l49-20l-36,58l33-14l-3.4,5.65c-2.533,4.6-4.483,9.017-5.85,13.25c-4.334,13.5-1.917,22.533,7.25,27.1
			c9.533,4.8,23.899-1.6,43.1-19.2c6-5.5,12.116-11.783,18.35-18.85l7.551-8.95l-4.351,11.15c-3.066,9.033-4.983,17.566-5.75,25.6
			c-2.5,25.667,6.867,41.417,28.101,47.25c21.267,5.834,38.733,1.101,52.399-14.2c4.267-4.8,7.9-10.366,10.9-16.699l3.25-8.051
			l-7.65,39c-6.233,3.767-13.6,7.067-22.1,9.9c-16.867,5.6-32.467,6.95-46.8,4.05c-14.567-2.899-24.434-10.6-29.601-23.1
			c-1.633-3.934-2.684-8.101-3.149-12.5l-0.25-5.4c-7.167,3.834-15,7.217-23.5,10.15c-17,5.833-28.834,6.45-35.5,1.85
			c-6.667-4.566-10.667-11.434-12-20.6c-0.4-2.867-0.517-5.8-0.351-8.8l0.351-3.601l-45,11l14-58l-35,11l74-102
			c-6,2.334-12.167,3.25-18.5,2.75c-12.667-1-19.833-8.583-21.5-22.75c-1.667-14.166,5-38.25,20-72.25
			c4.7-10.633,9.933-21.616,15.7-32.95l7.301-13.8l4-67l-20-39c1-2.667,1.75-5.75,2.25-9.25c1-7,0.25-12.583-2.25-16.75
			c-2.5-4.167-6.25-7.25-11.25-9.25l-6.75-1.75l6-32c-4.5,5.167-9.2,10.883-14.1,17.15c-9.833,12.5-15.8,21.45-17.9,26.85l-10,26
			c-0.5-10.333-1.25-21.45-2.25-33.35c-2-23.833-4.25-39.717-6.75-47.65c-2.5-7.9-7.417-15.767-14.75-23.6
			c-2.3-2.467-4.7-4.767-7.2-6.9l-3.05-2.5c1.5-3.667,2.383-7.867,2.65-12.6c0.5-9.5-2.383-16.967-8.65-22.4
			c-10-8.667-27.3-25.133-51.9-49.4C49.3,34.183,63.033,39.3,78.7,45c31.4,11.433,56.883,20.117,76.45,26.05l-95.75-24l27.4,13.9
			c21.167,10.167,39.034,17.533,53.6,22.1C155,87.65,163.217,99.533,165.05,118.7z"/>
		<path style="fill-rule:evenodd;clip-rule:evenodd;fill:#649180;" d="M171.4,158.05l-6,32l6.75,1.75c5,2,8.75,5.083,11.25,9.25
			c2.5,4.167,3.25,9.75,2.25,16.75c-0.5,3.5-1.25,6.583-2.25,9.25l20,39l-4,67l-7.301,13.8c-5.767,11.333-11,22.317-15.7,32.95
			c-15,34-21.667,58.084-20,72.25c1.667,14.167,8.833,21.75,21.5,22.75c6.333,0.5,12.5-0.416,18.5-2.75l-74,102l35-11l-14,58l45-11
			l-0.351,3.601c-0.166,3-0.05,5.933,0.351,8.8c1.333,9.166,5.333,16.033,12,20.6c6.666,4.601,18.5,3.983,35.5-1.85
			c8.5-2.934,16.333-6.316,23.5-10.15l0.25,5.4c0.466,4.399,1.517,8.566,3.149,12.5c5.167,12.5,15.033,20.2,29.601,23.1
			c14.333,2.9,29.933,1.55,46.8-4.05c8.5-2.833,15.866-6.134,22.1-9.9l-7.35,37.5H57l11.95-75l66-156
			c-2.5-7-4.684-14.816-6.55-23.449c-3.767-17.233-4.083-29.917-0.95-38.051c1.667-4.366,4.566-8.699,8.7-13
			c2.7-2.8,6.934-6.466,12.7-11c6.367-5.066,10.767-8.733,13.2-11c4.633-4.366,8.1-8.699,10.4-13c2.6-4.8,4.267-14.566,5-29.3
			c0.767-14.4,0.483-29.95-0.85-46.65c-1.467-17.933-3.833-33.183-7.1-45.75c-3.733-14.333-8.25-23.267-13.55-26.8
			c-9.367-6.233-16.934,7.9-22.7,42.4c-2.867,17.233-4.8,35.1-5.8,53.6c-0.733-25.5-2.233-51.117-4.5-76.85
			c-4.5-51.5-10.5-77.883-18-79.15c-7.5-1.233-13.5,3.9-18,15.4c-2.233,5.733-3.733,11.6-4.5,17.6c1.5-14.5,2-28.934,1.5-43.3
			c-1-28.733-6.483-42.783-16.45-42.15c-10,0.633-24.25,11.317-42.75,32.05C15.517,136.567,7.267,146.867,0,157.1
			c23-37.967,38-63.45,45-76.45c4.367-8.133,4.433-19.066,0.2-32.8c-2.133-6.867-4.7-12.934-7.7-18.2
			c24.6,24.267,41.9,40.733,51.9,49.4c6.267,5.434,9.15,12.9,8.65,22.4c-0.267,4.733-1.15,8.933-2.65,12.6l3.05,2.5
			c2.5,2.133,4.9,4.434,7.2,6.9c7.333,7.833,12.25,15.7,14.75,23.6c2.5,7.934,4.75,23.817,6.75,47.65c1,11.9,1.75,23.017,2.25,33.35
			l10-26c2.1-5.4,8.067-14.35,17.9-26.85C162.2,168.933,166.9,163.217,171.4,158.05z"/>
		<path style="fill-rule:evenodd;clip-rule:evenodd;fill:#577D6F;" d="M171.4,158.05l-6,32l6.75,1.75c5,2,8.75,5.083,11.25,9.25
			c2.5,4.167,3.25,9.75,2.25,16.75c-0.5,3.5-1.25,6.583-2.25,9.25l20,39l-4,67l-7.301,13.8c-5.767,11.333-11,22.317-15.7,32.95
			c-15,34-21.667,58.084-20,72.25c1.667,14.167,8.833,21.75,21.5,22.75c6.333,0.5,12.5-0.416,18.5-2.75l-74,102l35-11l-14,58l45-11
			l-0.351,3.601c-0.166,3-0.05,5.933,0.351,8.8c1.333,9.166,5.333,16.033,12,20.6c6.666,4.601,18.5,3.983,35.5-1.85
			c8.5-2.934,16.333-6.316,23.5-10.15l0.25,5.4c0.466,4.399,1.517,8.566,3.149,12.5c5.167,12.5,15.033,20.2,29.601,23.1
			c14.333,2.9,29.933,1.55,46.8-4.05c8.5-2.833,15.866-6.134,22.1-9.9l-7.35,37.5H57l11.95-75l66-156
			c-2.5-7-4.684-14.816-6.55-23.449c-3.767-17.233-4.083-29.917-0.95-38.051c1.667-4.366,4.566-8.699,8.7-13
			c2.7-2.8,6.934-6.466,12.7-11c6.367-5.066,10.767-8.733,13.2-11c4.633-4.366,8.1-8.699,10.4-13c2.6-4.8,4.267-14.566,5-29.3
			c0.767-14.4,0.483-29.95-0.85-46.65c-1.467-17.933-3.833-33.183-7.1-45.75c-3.733-14.333-8.25-23.267-13.55-26.8
			c-9.367-6.233-16.934,7.9-22.7,42.4c-2.867,17.233-4.8,35.1-5.8,53.6c-0.733-25.5-2.233-51.117-4.5-76.85
			c-4.5-51.5-10.5-77.883-18-79.15c-7.5-1.233-13.5,3.9-18,15.4c-2.233,5.733-3.733,11.6-4.5,17.6c1.5-14.5,2-28.934,1.5-43.3
			c-1-28.733-6.483-42.783-16.45-42.15c-10,0.633-24.25,11.317-42.75,32.05C15.517,136.567,7.267,146.867,0,157.1
			c23-37.967,38-63.45,45-76.45c4.367-8.133,4.433-19.066,0.2-32.8c-2.133-6.867-4.7-12.934-7.7-18.2
			c24.6,24.267,41.9,40.733,51.9,49.4c6.267,5.434,9.15,12.9,8.65,22.4c-0.267,4.733-1.15,8.933-2.65,12.6l3.05,2.5
			c2.5,2.133,4.9,4.434,7.2,6.9c7.333,7.833,12.25,15.7,14.75,23.6c2.5,7.934,4.75,23.817,6.75,47.65c1,11.9,1.75,23.017,2.25,33.35
			l10-26c2.1-5.4,8.067-14.35,17.9-26.85C162.2,168.933,166.9,163.217,171.4,158.05z"/>
		<path style="fill-rule:evenodd;clip-rule:evenodd;fill:#649180;" d="M123.8,87.85c1.9-0.934,4.434-1.383,7.6-1.35
			c4.033,0.033,7.75,0.983,11.15,2.85c9.7,5.267,14.983,16.5,15.85,33.7c0.833,17.1-3.033,34.567-11.6,52.4
			c-4.267,8.9-8.633,16.1-13.1,21.6c3.033-7.267,5.983-15.883,8.85-25.85c5.733-19.934,8.2-36.633,7.4-50.1
			c-0.6-10-3.434-18.367-8.5-25.1C136.183,89.067,130.3,86.35,123.8,87.85z"/>
		<path style="fill-rule:evenodd;clip-rule:evenodd;fill:#577D6F;" d="M123.8,87.85c1.9-0.934,4.434-1.383,7.6-1.35
			c4.033,0.033,7.75,0.983,11.15,2.85c9.7,5.267,14.983,16.5,15.85,33.7c0.833,17.1-3.033,34.567-11.6,52.4
			c-4.267,8.9-8.633,16.1-13.1,21.6c3.033-7.267,5.983-15.883,8.85-25.85c5.733-19.934,8.2-36.633,7.4-50.1
			c-0.6-10-3.434-18.367-8.5-25.1C136.183,89.067,130.3,86.35,123.8,87.85z"/>
		<path style="fill-rule:evenodd;clip-rule:evenodd;fill:#577D6F;" d="M339.9,87.2c-1.534-6.567-4.983-11.8-10.351-15.7
			c-5.934-4.333-12.8-5.783-20.6-4.35c-4.267,0.767-7.967,2.583-11.101,5.45l-1.449,0.45c6.533-8.4,13.75-12.883,21.649-13.45
			c6.834-0.5,13.417,1.816,19.75,6.95c5.767,4.7,10.017,10.517,12.75,17.45c2.8,7.1,3.084,13.117,0.851,18.05
			c-3.733,8.333-10.434,13.017-20.101,14.05c-3,0.333-6.133,0.267-9.399-0.2l-3.95-0.75c8.8-1.066,15.149-4.483,19.05-10.25
			C340.467,99.767,341.434,93.867,339.9,87.2z"/>
		<path style="fill-rule:evenodd;clip-rule:evenodd;fill:#649180;" d="M249.55,244.6c3.4-10.833,3.7-18,0.9-21.5
			c-3.533-4.367-8-7.5-13.4-9.4c-4.899-1.7-10.05-2.233-15.45-1.6c6.167-3.434,11.967-4.617,17.4-3.55
			c4.8,0.967,8.95,3.583,12.45,7.85c3.2,3.967,5.35,8.7,6.45,14.2c1.1,5.5,0.933,10.65-0.5,15.45
			c-3.634,12.167-8.217,23.717-13.75,34.65c-7.101,14.066-15.184,25.85-24.25,35.35c-4.5,4.733-8.167,7.05-11,6.95
			c-2.2-0.1-3.733-1.633-4.601-4.6c-0.7-2.433-0.816-4.95-0.35-7.55c0.434-2.6,1.033-3.25,1.8-1.95c-0.366,3.7,0.2,6.1,1.7,7.2
			c1.467,1.1,5.133-2.4,11-10.5c5.767-7.967,11.6-17.533,17.5-28.7C241.983,264.567,246.684,253.8,249.55,244.6z"/>
		<path style="fill-rule:evenodd;clip-rule:evenodd;fill:#577D6F;" d="M249.55,244.6c3.4-10.833,3.7-18,0.9-21.5
			c-3.533-4.367-8-7.5-13.4-9.4c-4.899-1.7-10.05-2.233-15.45-1.6c6.167-3.434,11.967-4.617,17.4-3.55
			c4.8,0.967,8.95,3.583,12.45,7.85c3.2,3.967,5.35,8.7,6.45,14.2c1.1,5.5,0.933,10.65-0.5,15.45
			c-3.634,12.167-8.217,23.717-13.75,34.65c-7.101,14.066-15.184,25.85-24.25,35.35c-4.5,4.733-8.167,7.05-11,6.95
			c-2.2-0.1-3.733-1.633-4.601-4.6c-0.7-2.433-0.816-4.95-0.35-7.55c0.434-2.6,1.033-3.25,1.8-1.95c-0.366,3.7,0.2,6.1,1.7,7.2
			c1.467,1.1,5.133-2.4,11-10.5c5.767-7.967,11.6-17.533,17.5-28.7C241.983,264.567,246.684,253.8,249.55,244.6z"/>
	</g>
</g>
</svg>
