<?xml version="1.0" encoding="iso-8859-1"?>
<!-- Generator: Adobe Illustrator 15.1.0, SVG Export Plug-In . SVG Version: 6.00 Build 0)  -->
<!DOCTYPE svg PUBLIC "-//W3C//DTD SVG 1.1//EN" "http://www.w3.org/Graphics/SVG/1.1/DTD/svg11.dtd">
<svg version="1.1" id="buildings" xmlns="http://www.w3.org/2000/svg" xmlns:xlink="http://www.w3.org/1999/xlink" x="0px" y="0px"
	 width="137px" height="45.5px" viewBox="0 0 137 45.5" style="enable-background:new 0 0 137 45.5;" xml:space="preserve">
<g>
	<g>
		
			<linearGradient id="SVGID_1_" gradientUnits="userSpaceOnUse" x1="0.3735" y1="33.0713" x2="96.5012" y2="33.0713" gradientTransform="matrix(0.9898 -0.1423 0.1423 0.9898 -2.767444e-004 1.675487e-004)">
			<stop  offset="0" style="stop-color:#5F7574"/>
			<stop  offset="1" style="stop-color:#A1AAA9"/>
		</linearGradient>
		<polygon style="fill-rule:evenodd;clip-rule:evenodd;fill:url(#SVGID_1_);" points="111,16.5 114,45.5 0,29.5 10,3.5 		"/>
		<g>
			<path style="fill-rule:evenodd;clip-rule:evenodd;fill:#657373;" d="M97.5,23.2c1.066-2.3,0.9-5.117-0.5-8.45l1.15,0.1
				c1.3,3.367,1.383,6.3,0.25,8.8c-0.233,0.5-0.534,1.017-0.9,1.55c1.6,0.566,3.167,1.467,4.7,2.7c0.934,0.767,2.2,1.966,3.8,3.6
				c1.467,1.533,2.583,2.616,3.35,3.25c1.267,1.033,2.517,1.75,3.75,2.15L113.2,38c-2.101-0.6-4.417-2.2-6.95-4.8
				c-1.366,1.066-2.45,2.583-3.25,4.55s-1.167,3.967-1.1,6v0.1l-1-0.149c-0.067-2.134,0.333-4.25,1.199-6.351
				c0.834-2.066,1.983-3.683,3.45-4.85l-0.3-0.3c-1.634-1.667-2.884-2.851-3.75-3.55c-1.533-1.233-3.083-2.117-4.65-2.65
				c-1.399,1.6-3.533,3.066-6.399,4.4c-1.7,0.767-4.367,1.767-8,3l-0.5,0.149l0.2,0.75c0.8,2.467,1.199,4.783,1.199,6.95l-1-0.15
				c-0.066-2.133-0.449-4.3-1.149-6.5c-0.934-2.933-2.167-5.366-3.7-7.3c-1.566-1.967-3.217-3.133-4.95-3.5
				c-2.1,2.101-5.2,3.617-9.3,4.55c-2.8,0.634-5.867,0.95-9.2,0.95H53.2l0.1,0.65c0.333,2.399,0.167,4.733-0.5,7l-1.05-0.15
				c0.7-2.233,0.883-4.483,0.55-6.75c-0.3-2.434-1.066-4.7-2.3-6.8c-1.267-2.1-2.85-3.783-4.75-5.05
				c-1.1,1.633-2.467,3.083-4.1,4.35s-3.333,2.217-5.1,2.851c0.567,0.833,1.067,1.699,1.5,2.6c1.1,2.3,1.667,4.65,1.7,7.05l-1-0.149
				c-0.1-2.233-0.633-4.4-1.6-6.5c-2.3-4.9-6.867-8.15-13.7-9.75l-0.05,0.1l-0.3-0.15c-2.6-0.6-5.617-0.983-9.05-1.15
				c-2.2-0.133-5.15-0.184-8.85-0.15l0.35-1c3.467-0.033,6.317,0.017,8.55,0.15c3.3,0.167,6.217,0.517,8.75,1.05
				c1-2.6,0.933-5.433-0.2-8.5c-0.566-1.5-1.333-2.9-2.3-4.2l1.35,0.15c0.767,1.2,1.4,2.433,1.9,3.7c1.167,3.267,1.25,6.3,0.25,9.1
				c5.4,1.3,9.417,3.583,12.05,6.85c2-0.666,3.9-1.766,5.7-3.3c1.8-1.533,3.2-3.233,4.2-5.1c1.434-2.733,1.767-5.4,1-8l1.1,0.15
				c0.667,2.733,0.25,5.5-1.25,8.3l-0.4,0.7c1.8,1.2,3.333,2.75,4.6,4.65c1.267,1.9,2.15,3.983,2.65,6.25
				c3.6,0.066,6.9-0.217,9.9-0.85c4.633-1,7.933-2.784,9.9-5.351c2.033-2.667,2.467-6.083,1.3-10.25l1.051,0.1
				c1.1,4.367,0.583,7.967-1.551,10.8L73.3,23c1.767,0.533,3.417,1.767,4.95,3.7c1.3,1.633,2.417,3.616,3.35,5.95l0.5-0.2
				c4.301-1.467,7.367-2.667,9.2-3.601C94.5,27.217,96.566,25.333,97.5,23.2z"/>
		</g>
		
			<linearGradient id="SVGID_2_" gradientUnits="userSpaceOnUse" x1="-7.1831" y1="-125.9824" x2="14.5725" y2="-125.9824" gradientTransform="matrix(-0.1528 0.9883 -0.9883 -0.1528 -4.048347e-004 -2.707690e-004)">
			<stop  offset="0" style="stop-color:#707E7C"/>
			<stop  offset="1" style="stop-color:#BDC4C2"/>
		</linearGradient>
		<polygon style="fill-rule:evenodd;clip-rule:evenodd;fill:url(#SVGID_2_);" points="137,28.5 114,45.5 111,16.5 136.5,15.5 		"/>
		<g>
			<path style="fill-rule:evenodd;clip-rule:evenodd;fill:#869192;" d="M136.75,23l0.05,1.05c-1.7,0.533-3.7,0.917-6,1.15
				c-0.833,2.934-0.717,5.483,0.351,7.649l-0.801,0.601c-1.199-2.334-1.416-5.033-0.649-8.101l-3.65,0.4L126,25.4l-0.05,0.199
				c-0.834,2.733-2.517,5.301-5.05,7.7c-2.233,2.101-4.65,3.667-7.25,4.7l-0.351-0.95c2.467-0.967,4.767-2.45,6.9-4.45
				c2.399-2.267,4-4.699,4.8-7.3c0.934-3.167,0.45-6.083-1.45-8.75l0.8-0.55h0.051c1.866,2.7,2.449,5.617,1.75,8.75l2.399-0.3
				C132.083,24.116,134.816,23.634,136.75,23z"/>
		</g>
		<polygon style="fill-rule:evenodd;clip-rule:evenodd;fill:#B1B8B7;" points="111.5,18.5 10,3.5 54,0 136.5,15.5 		"/>
		<g>
			<polygon style="fill-rule:evenodd;clip-rule:evenodd;fill:#E6E9E8;" points="58.45,0.85 71.8,3.35 49.8,9.4 24.1,5.6 			"/>
			<polygon style="fill-rule:evenodd;clip-rule:evenodd;fill:#CFD2D1;" points="121.5,12.7 132.55,14.8 107.15,17.9 92.85,15.75 			
				"/>
			<polygon style="fill-rule:evenodd;clip-rule:evenodd;fill:#ABC4CF;" points="99,8.5 106.75,9.95 86.45,14.85 71.6,12.65 			"/>
			<polygon style="fill-rule:evenodd;clip-rule:evenodd;fill:#A9BBBF;" points="63.45,11.45 55.7,10.3 77.95,4.55 85.6,5.95 			"/>
		</g>
	</g>
	<path style="fill-rule:evenodd;clip-rule:evenodd;fill:#B9BFBE;" d="M96.7,20.45c-9.5-0.233-17.517-0.9-24.05-2
		C62.217,16.65,42.667,12.533,14,6.1l95,14.35C105.566,20.55,101.467,20.55,96.7,20.45z"/>
	<path style="fill-rule:evenodd;clip-rule:evenodd;fill:#586A69;" d="M104.8,37.85c2.634-0.399,4.434-2.3,5.4-5.699l0.6-4.95
		l1.351,16.649c-16.667-2.866-31.334-5.083-44-6.649C55.483,35.634,33.6,32.417,2.5,27.55l9-22c0.9,5.967,4.817,11.067,11.75,15.3
		c4.567,2.8,11.983,5.917,22.25,9.35c7.333,2.434,18.433,4.5,33.3,6.2C92.434,37.967,101.1,38.45,104.8,37.85z"/>
	<path style="fill-rule:evenodd;clip-rule:evenodd;fill:#778583;" d="M122.4,33.85c2.833-0.566,5.699-1.733,8.6-3.5
		c2.3-1.366,3.816-3.116,4.55-5.25l0.45-2.75v5.85l-21.35,15.35l-1.851-23l1.05,4.45c0.934,3.366,1.917,5.983,2.95,7.85
		C117.533,34.15,119.4,34.483,122.4,33.85z"/>
	<path style="fill-rule:evenodd;clip-rule:evenodd;fill:#CCCFCD;" d="M123.65,20.75l-10.851-0.2l22.2-3.8
		C129.434,19.417,125.65,20.75,123.65,20.75z"/>
</g>
</svg>
