<?xml version="1.0" encoding="iso-8859-1"?>
<!-- Generator: Adobe Illustrator 15.1.0, SVG Export Plug-In . SVG Version: 6.00 Build 0)  -->
<!DOCTYPE svg PUBLIC "-//W3C//DTD SVG 1.1//EN" "http://www.w3.org/Graphics/SVG/1.1/DTD/svg11.dtd">
<svg version="1.1" id="buildings-mid" xmlns="http://www.w3.org/2000/svg" xmlns:xlink="http://www.w3.org/1999/xlink" x="0px"
	 y="0px" width="443px" height="81.1px" viewBox="0 0 443 81.1" style="enable-background:new 0 0 443 81.1;" xml:space="preserve">
<linearGradient id="SVGID_1_" gradientUnits="userSpaceOnUse" x1="14.3911" y1="-221.498" x2="71.3661" y2="-221.498" gradientTransform="matrix(1.755156e-005 1 -1 -0.001 2.550450e-004 -1.214809e-004)">
	<stop  offset="0.0078" style="stop-color:#7A4C52"/>
	<stop  offset="1" style="stop-color:#895D60"/>
</linearGradient>
<path style="fill-rule:evenodd;clip-rule:evenodd;fill:url(#SVGID_1_);" d="M400.2,63.1c14.899,6.2,29.166,12.2,42.8,18H0
	c8.667-6.233,17.967-12.783,27.9-19.649C47.8,47.717,61,39.267,67.5,36.1c8.067-3.934,19.683-8.55,34.85-13.85
	c11.267-3.933,20.667-7,28.2-9.2c2.367-0.7,5.3-1.95,8.8-3.75c2.033-1.033,5.083-2.65,9.15-4.85c7.433-3.767,13.233-5.133,17.4-4.1
	c3.367,0.867,9.25,4.1,17.65,9.7c7.7,5.1,12.934,7.65,15.7,7.65c3.967,0,8.667-0.133,14.1-0.4c5.367-0.267,9.55-0.583,12.55-0.95
	c7.566-0.833,11.399-1.25,11.5-1.25c5.199-0.3,9.366,0.117,12.5,1.25c3.733,1.367,9.55,2.933,17.449,4.7
	c7.967,1.767,13.267,2.65,15.9,2.65c2.267,0,10.95,2.233,26.05,6.7c5.233,1.533,17.467,5.267,36.7,11.2
	C352.366,43.566,370.434,50.733,400.2,63.1z"/>
<g>
	<g>
		<path style="fill-rule:evenodd;clip-rule:evenodd;fill:#7F5257;" d="M97.05,55.2c-1.267,0.666-2.633,1.399-4.1,2.2
			c-2.967,1.566-5.6,2.199-7.9,1.899c-2.833-0.7-4.417-1.783-4.75-3.25c-0.3-1.267,0.2-2.116,1.5-2.55
			c1.233-0.566,2.95-0.8,5.15-0.7c-0.967,0.2-1.883,0.434-2.75,0.7c-1.8,0.5-2.534,1.134-2.2,1.9c0.667,1.3,2.583,1.85,5.75,1.649
			C90.35,56.884,93.45,56.267,97.05,55.2z"/>
	</g>
</g>
<g>
	<g>
		<path style="fill-rule:evenodd;clip-rule:evenodd;fill:#7F5257;" d="M179.15,57.85c0.2,0.034-0.333,0.483-1.6,1.351
			c-1.433,1-2.983,1.883-4.65,2.649c-5.133,2.4-9.566,2.934-13.3,1.601c-3.867-1.267-6.2-2.934-7-5
			c-0.733-1.834-0.167-3.334,1.7-4.5c1.434-0.867,3.483-1.25,6.15-1.15c1.367,0.033,2.566,0.15,3.6,0.351
			c-1.8,0.1-3.533,0.316-5.2,0.649c-3.333,0.733-4.567,1.8-3.7,3.2c1.067,1.833,4.184,2.983,9.35,3.45
			C170.167,60.983,175.05,60.116,179.15,57.85z"/>
	</g>
</g>
<g>
	<g>
		<path style="fill-rule:evenodd;clip-rule:evenodd;fill:#7F5257;" d="M166.15,43.25c-2.733,1.634-5.183,2.184-7.35,1.65
			c-2.3-0.567-3.7-1.4-4.2-2.5c-0.467-0.967-0.184-1.817,0.85-2.55c1.2-0.867,2.966-1.184,5.3-0.95c-1,0.133-1.933,0.35-2.8,0.65
			c-1.8,0.567-2.45,1.217-1.95,1.95c0.633,1.033,2.433,1.517,5.4,1.45c3.1-0.066,5.8-0.783,8.1-2.15
			C168.633,41.634,167.517,42.45,166.15,43.25z"/>
	</g>
</g>
<g>
	<g>
		<path style="fill-rule:evenodd;clip-rule:evenodd;fill:#7F5257;" d="M280,57.05c1.167,1.467,4.1,2.2,8.8,2.2
			c5.233,0,9.566-1.2,13-3.6c0.167,0.066-0.267,0.533-1.3,1.399c-1.2,1-2.533,1.934-4,2.8c-4.467,2.567-8.417,3.434-11.85,2.601
			c-3.534-0.767-5.784-2.017-6.75-3.75c-0.867-1.533-0.551-2.967,0.949-4.3c1.2-0.967,3.051-1.551,5.551-1.75
			c1.233-0.101,2.35-0.101,3.35,0c-1.667,0.233-3.233,0.6-4.7,1.1C280.05,54.75,279.033,55.85,280,57.05z"/>
	</g>
</g>
<g>
	<g>
		<path style="fill-rule:evenodd;clip-rule:evenodd;fill:#7F5257;" d="M346.4,60.5c-2.101,0-3.467-0.434-4.101-1.3
			c-0.566-0.767-0.467-1.55,0.3-2.351c0.801-0.899,2.2-1.483,4.2-1.75c-0.8,0.334-1.55,0.7-2.25,1.101
			c-1.366,0.8-1.767,1.45-1.2,1.95c0.767,0.733,2.367,0.8,4.801,0.199c2.3-0.533,4.583-1.466,6.85-2.8c-0.8,0.8-1.733,1.601-2.8,2.4
			C350.066,59.583,348.134,60.434,346.4,60.5z"/>
	</g>
</g>
<g>
	<g>
		<path style="fill-rule:evenodd;clip-rule:evenodd;fill:#7F5257;" d="M375.9,61.5c-1.067,0.667-1.351,1.184-0.851,1.55
			c0.601,0.434,1.816,0.434,3.65,0c1.899-0.434,3.666-1.149,5.3-2.149c-0.634,0.633-1.35,1.25-2.15,1.85
			c-1.666,1.267-3.149,1.934-4.449,2c-1.5,0.066-2.534-0.2-3.101-0.8c-0.467-0.566-0.45-1.184,0.05-1.851
			c0.567-0.767,1.667-1.283,3.301-1.55C377.017,60.816,376.434,61.134,375.9,61.5z"/>
	</g>
</g>
<g>
	<g>
		<path style="fill-rule:evenodd;clip-rule:evenodd;fill:#7F5257;" d="M229.15,57c5.233-0.066,9.899-1.233,14-3.5
			c-1.567,1.434-3.517,2.8-5.851,4.1c-4.666,2.601-8.833,3.5-12.5,2.7c-4-1-6.4-2.483-7.2-4.45c-0.733-1.699-0.2-3.149,1.6-4.35
			c1.267-0.833,3.133-1.316,5.6-1.45c1.2-0.033,2.3-0.017,3.3,0.05c-1.633,0.267-3.199,0.617-4.699,1.051
			c-3,0.899-4.117,1.966-3.351,3.199C221.116,56.184,224.15,57.066,229.15,57z"/>
	</g>
</g>
<g>
	<g>
		<path style="fill-rule:evenodd;clip-rule:evenodd;fill:#684649;" d="M155.65,16.675c-0.338,0.077-0.872,0.269-1.6,0.575
			c-1.2,0.5-1.55,0.967-1.05,1.4c0.533,0.333,1.667,0.55,3.4,0.65c1.867,0.1,3.684,0,5.45-0.3c-2.934,1.367-5.25,1.9-6.95,1.6
			c-1.267-0.2-2.133-0.6-2.6-1.2c-0.466-0.566-0.45-1.133,0.05-1.7C152.965,16.962,154.065,16.621,155.65,16.675z"/>
	</g>
</g>
<g>
	<g>
		<path style="fill-rule:evenodd;clip-rule:evenodd;fill:#684649;" d="M217.6,24.7c0.667,0-0.367,1.05-3.1,3.15
			c-2.633,2.066-5.117,2.95-7.45,2.65c-2.4-0.267-3.966-0.95-4.7-2.05c-0.667-0.967-0.533-1.9,0.4-2.8c0.7-0.7,1.85-1.2,3.45-1.5
			c0.767-0.133,1.466-0.217,2.1-0.25c-1.033,0.3-2,0.667-2.9,1.1c-1.833,0.833-2.417,1.6-1.75,2.3
			c0.833,0.934,2.783,1.217,5.85,0.85C212.867,27.717,215.567,26.567,217.6,24.7z"/>
	</g>
</g>
<g>
	<g>
		<path style="fill-rule:evenodd;clip-rule:evenodd;fill:#684649;" d="M120,30.8c-0.633,0.6-1.45,1.184-2.45,1.75
			c-2,1.167-3.783,1.583-5.35,1.25c-1.667-0.333-2.7-0.917-3.1-1.75c-0.333-0.7-0.15-1.333,0.55-1.9c0.533-0.4,1.333-0.65,2.4-0.75
			c0.567-0.033,1.067-0.033,1.5,0c-0.733,0.133-1.433,0.3-2.1,0.5c-1.3,0.434-1.75,0.917-1.35,1.45c0.5,0.733,1.833,1.066,4,1
			C116.333,32.283,118.3,31.767,120,30.8z"/>
	</g>
</g>
<g>
	<g>
		<path style="fill-rule:evenodd;clip-rule:evenodd;fill:#684649;" d="M250.9,30.25c-0.767-1.167-0.601-2.3,0.5-3.4
			c0.8-0.8,2.149-1.4,4.05-1.8c0.934-0.167,1.783-0.267,2.55-0.3c-1.233,0.367-2.4,0.8-3.5,1.3c-2.167,1.034-2.85,1.95-2.05,2.75
			c1.033,1,3.333,1.317,6.899,0.95c3.7-0.367,7.134-1.35,10.301-2.95c-1.2,1.067-2.65,2.1-4.351,3.1c-3.333,2-6.267,2.883-8.8,2.65
			C253.634,32.283,251.767,31.517,250.9,30.25z"/>
	</g>
</g>
<g>
	<g>
		<path style="fill-rule:evenodd;clip-rule:evenodd;fill:#684649;" d="M307.5,38.1c-1.066,1.033-2.1,1.517-3.1,1.45
			c-0.667-0.066-1.101-0.25-1.301-0.55c-0.199-0.267-0.166-0.533,0.101-0.8c0.3-0.3,0.816-0.467,1.55-0.5
			c-0.3,0.1-0.566,0.2-0.8,0.3c-0.533,0.233-0.7,0.45-0.5,0.65c0.233,0.233,0.783,0.3,1.649,0.2C306,38.75,306.8,38.5,307.5,38.1z"
			/>
	</g>
</g>
<g>
	<g>
		<path style="fill-rule:evenodd;clip-rule:evenodd;fill:#684649;" d="M332.8,43.75c0.867,0,1.601-0.2,2.2-0.6
			c-0.233,0.233-0.533,0.449-0.9,0.649c-0.733,0.467-1.399,0.601-2,0.4c-0.633-0.167-1.017-0.417-1.149-0.75
			c-0.066-0.267,0.05-0.483,0.35-0.65c0.334-0.2,0.783-0.25,1.351-0.149c-0.233,0.033-0.467,0.066-0.7,0.1
			c-0.5,0.134-0.684,0.3-0.55,0.5C331.533,43.55,332,43.717,332.8,43.75z"/>
	</g>
</g>
<g>
	<g>
		<path style="fill-rule:evenodd;clip-rule:evenodd;fill:#684649;" d="M173.75,35.8c-2.667,1.534-5.1,2-7.3,1.4
			c-2.3-0.7-3.65-1.633-4.05-2.8c-0.333-1,0.05-1.8,1.15-2.4c0.767-0.4,1.833-0.617,3.2-0.65c0.7,0,1.317,0.033,1.85,0.1
			c-0.934,0.133-1.833,0.3-2.7,0.5c-1.7,0.4-2.367,0.966-2,1.7c0.533,1.133,2.267,1.717,5.2,1.75c3.066,0.067,5.7-0.617,7.9-2.05
			C176.167,34.217,175.083,35.033,173.75,35.8z"/>
	</g>
</g>
<g>
	<g>
		<path style="fill-rule:evenodd;clip-rule:evenodd;fill:#684649;" d="M186.4,21.55c-2.533,1.333-4.816,1.717-6.85,1.15
			c-2.2-0.833-3.433-1.8-3.7-2.9c-0.233-0.966,0.183-1.683,1.25-2.15c0.7-0.333,1.683-0.467,2.95-0.4c0.6,0.033,1.15,0.067,1.65,0.1
			c-0.833,0.1-1.65,0.233-2.45,0.4c-1.6,0.3-2.25,0.783-1.95,1.45c0.434,1.167,2.017,1.783,4.75,1.85c2.8,0.1,5.333-0.433,7.6-1.6
			C188.783,20.183,187.7,20.883,186.4,21.55z"/>
	</g>
</g>
<g>
	<g>
		<path style="fill-rule:evenodd;clip-rule:evenodd;fill:#684649;" d="M89.15,36.8c0.333,0.4,1.1,0.617,2.3,0.65
			c1.3,0.033,2.533-0.167,3.7-0.6c-0.467,0.333-1.017,0.633-1.65,0.9c-1.2,0.533-2.25,0.7-3.15,0.5c-1-0.233-1.617-0.583-1.85-1.05
			c-0.2-0.434-0.067-0.817,0.4-1.15c0.533-0.367,1.3-0.5,2.3-0.4c-0.4,0.067-0.8,0.167-1.2,0.3
			C89.2,36.183,88.917,36.467,89.15,36.8z"/>
	</g>
</g>
<g>
	<g>
		<path style="fill-rule:evenodd;clip-rule:evenodd;fill:#684649;" d="M141.15,31.75c0.633-0.1,1.4,0.033,2.3,0.4
			c-0.434-0.033-0.85-0.066-1.25-0.1c-0.833-0.033-1.217,0.133-1.15,0.5c0.067,0.633,0.8,1.117,2.2,1.45
			c1.433,0.367,2.733,0.3,3.9-0.2c-0.467,0.333-1.05,0.617-1.75,0.85c-1.4,0.5-2.6,0.467-3.6-0.1c-1.033-0.667-1.55-1.283-1.55-1.85
			C140.25,32.2,140.55,31.883,141.15,31.75z"/>
	</g>
</g>
<g>
	<g>
		<path style="fill-rule:evenodd;clip-rule:evenodd;fill:#684649;" d="M161.55,6.95c0.534,0.267,1.067,0.383,1.6,0.35
			c-0.967,0.233-1.7,0.167-2.2-0.2c-0.333-0.233-0.517-0.467-0.55-0.7s0.067-0.383,0.3-0.45c0.267-0.067,0.633,0.017,1.1,0.25
			c-0.2-0.034-0.4-0.067-0.6-0.1c-0.367-0.033-0.534,0.033-0.5,0.2C160.767,6.533,161.05,6.75,161.55,6.95z"/>
	</g>
</g>
</svg>
