<?xml version="1.0" encoding="iso-8859-1"?>
<!-- Generator: Adobe Illustrator 15.1.0, SVG Export Plug-In . SVG Version: 6.00 Build 0)  -->
<!DOCTYPE svg PUBLIC "-//W3C//DTD SVG 1.1//EN" "http://www.w3.org/Graphics/SVG/1.1/DTD/svg11.dtd">
<svg version="1.1" id="Isolation_Mode" xmlns="http://www.w3.org/2000/svg" xmlns:xlink="http://www.w3.org/1999/xlink" x="0px"
	 y="0px" width="145px" height="152.05px" viewBox="0 0 145 152.05" style="enable-background:new 0 0 145 152.05;"
	 xml:space="preserve">
<g>
	<g>
		<path style="fill-rule:evenodd;clip-rule:evenodd;fill:#90B379;" d="M91.75,27.95c-0.634,19.867,0.167,34.433,2.4,43.7
			c2.267,9.267,11.416,22.083,27.449,38.45c8.034,8.2,15.834,15.467,23.4,21.801C77.333,142.167,33.667,148.566,14,151.1
			c-3.4,0.434-6.067,0.75-8,0.95L23.8,7.5l69.55-6.6C92.583,9,92.05,18.017,91.75,27.95z"/>
		<path style="fill-rule:evenodd;clip-rule:evenodd;fill:#295648;" d="M87.95,37.2c-0.066,21.367,0.333,33.533,1.2,36.5
			c1.8,6.3,10.767,18,26.899,35.1c8.066,8.566,15.95,16.5,23.65,23.8L13.15,151.2c2.133-12.733,4.267-25.684,6.4-38.851
			c4.267-26.3,6.434-40.5,6.5-42.6L28,9.95L88.25,6C88.05,16.1,87.95,26.5,87.95,37.2z"/>
		<path style="fill-rule:evenodd;clip-rule:evenodd;fill:#357762;" d="M86.7,34.65c-0.434,19.633,0.133,32.567,1.7,38.8
			C90,79.684,98.8,91.467,114.8,108.8c8,8.667,15.834,16.7,23.5,24.101L14.25,151.1c8.067-49.233,12.3-77.183,12.7-83.85
			c0.4-6.633,0.9-25.283,1.5-55.95L87.85,7.05C87.316,15.617,86.934,24.817,86.7,34.65z"/>
		<polygon style="fill-rule:evenodd;clip-rule:evenodd;fill:#295648;" points="77.5,74.2 84.95,72.45 83.2,99.15 		"/>
		<path style="fill-rule:evenodd;clip-rule:evenodd;fill:#89A578;" d="M19.55,5.55L23.8,7.5L6,152.05l-6-3.399
			c2.133-15.367,3.983-28.4,5.55-39.101C7.083,98.816,11.75,64.15,19.55,5.55z"/>
		<polygon style="fill-rule:evenodd;clip-rule:evenodd;fill:#D4E2C8;" points="93.35,0.9 23.8,7.5 19.55,5.55 89.05,0 		"/>
	</g>
	<path style="fill-rule:evenodd;clip-rule:evenodd;fill:#1E6752;" d="M87.85,7.05l-0.899,21.5l-1.101-14
		c-0.133-1.333-0.683-2.133-1.649-2.4s-1.667,0.233-2.101,1.5c-0.267,0.9-0.5,3.3-0.699,7.2c-0.334,3.467-1.117,5.167-2.351,5.1
		c-1.166-0.1-1.383-2.4-0.649-6.9c0.833-4.933,1.116-7.6,0.85-8c-0.6-1-1.6-1.583-3-1.75c-1.6-0.2-3,0.317-4.2,1.55
		c-1.233,1.2-1.733,3.467-1.5,6.8c0.133,2.533,0.784,6.383,1.95,11.55c0.934,4.333,0.75,8.4-0.55,12.2
		c-1.267,3.667-2.767,5.083-4.5,4.25c-1.333-0.633-1.667-3.35-1-8.15c1.033-5.367,1.583-8.783,1.65-10.25
		c0.133-3.2-0.133-6.283-0.8-9.25c-0.9-3.967-2.316-5.85-4.25-5.65c-5.667,0.6-8.583,3.233-8.75,7.9
		c-0.066,1.833-0.15,5.067-0.25,9.7c-0.267,3.7-0.917,5.5-1.95,5.4c-0.9-0.067-1.15-2.033-0.75-5.9c0.533-5.1,0.717-8.233,0.55-9.4
		c-0.333-2.466-1.633-4.316-3.9-5.55c-2.333-1.233-4.467-1.15-6.4,0.25c-1.8,1.3-2.967,5.133-3.5,11.5
		c-0.5,5.733-0.35,10.45,0.45,14.15c1,4.833,1.55,9.383,1.65,13.65c0.167,5.967-0.75,9.083-2.75,9.35s-3.067-2.217-3.2-7.45
		c-0.1-3.534,0.167-7.333,0.8-11.4c0.367-2.566,0.5-5.283,0.4-8.15c-0.133-3.2-0.567-5.517-1.3-6.95
		c-0.633-1.267-1.816-2.483-3.55-3.65l-2.35-1.4l0.2-13.1L87.85,7.05z"/>
	<path style="fill-rule:evenodd;clip-rule:evenodd;fill:#1E6752;" d="M97.75,98.2c0.134,2.7,0.184,6.434,0.15,11.2
		c0.399,3.066,1.233,5.8,2.5,8.199c1.566,2.967,3.283,4.101,5.149,3.4c1.733-0.634,3.717-2.866,5.95-6.7
		c1.1-1.899,2.033-3.75,2.8-5.55l24,24.15L14.25,151.1l3.9-25.949l0.65-1.101c1.067-0.7,2.233-1.7,3.5-3
		c2.567-2.633,4.4-5.5,5.5-8.6c1.267-3.601,2.267-8.233,3-13.9c0.667-5.399,0.833-9.533,0.5-12.399c-0.533-4.5-0.8-7.584-0.8-9.25
		c0.067-3.433,0.85-5.233,2.35-5.4c2.633-0.267,3.7,2.1,3.2,7.1c-0.267,2.7-0.9,6.317-1.9,10.851
		c-0.6,5.767-0.533,12.149,0.2,19.149c1.1,10.7,3.733,16.517,7.9,17.45c4.433,0.967,7.517-3.166,9.25-12.399
		c1.4-7.367,1.75-15.867,1.05-25.5c-0.267-3.767-1.867-11.667-4.8-23.7c-2.1-8.7-2.333-13.867-0.7-15.5
		c2.067-2.067,4.034-2.3,5.9-0.7c1.733,1.533,2.483,3.667,2.25,6.4c-0.233,2.467-0.4,8.117-0.5,16.95
		c-0.1,8.733-0.083,15.633,0.05,20.7c0.133,6.733,0.933,13.3,2.4,19.7c1.833,8.1,4.167,12.2,7,12.3
		c2.434,0.066,3.733-1.916,3.9-5.95c0-2.033,0.017-3.433,0.05-4.199c0.1-1.267,0.4-1.9,0.9-1.9c0.7,0,1.217,2.1,1.55,6.3
		c0.3,4.134,1.083,6.117,2.351,5.95c1.233-0.167,1.899-3.55,2-10.15c0.066-6.6,0.5-9.933,1.3-10c0.566-0.033,1.1,1.15,1.6,3.551
		c0.3,1.466,0.8,4.133,1.5,8c1.601,7.767,3.934,11.517,7,11.25c3.667-0.334,6.167-2.351,7.5-6.051c1.134-3.166,1.4-7.433,0.8-12.8
		c-0.233-1.967-0.683-4.2-1.35-6.7c-0.733-2.566-1.217-4.366-1.45-5.399c-0.767-3.3-0.05-5.033,2.15-5.2
		C96.184,90.8,97.45,93.2,97.75,98.2z"/>
	<path style="fill-rule:evenodd;clip-rule:evenodd;fill:#1E6752;" d="M44.95,97.55c-0.4,3.5-0.784,9.15-1.15,16.95
		c-0.4-9.533-1.183-16.15-2.35-19.85c-1.167-3.667-1.767-6.534-1.8-8.601c-0.1-3.033,0.883-4.75,2.95-5.149
		c2.033-0.367,3.083,1.649,3.15,6.05C45.817,88.917,45.55,92.45,44.95,97.55z"/>
	<path style="fill-rule:evenodd;clip-rule:evenodd;fill:#1E6752;" d="M66.55,95.2c-1.167-8.934-2.033-14.867-2.6-17.8
		c-0.967-4.767-1.5-7.884-1.6-9.351c-0.267-4.1,0.65-6.333,2.75-6.7c2.066-0.367,2.967,2,2.7,7.1
		c-0.167,2.767-0.583,6.533-1.25,11.3C66.383,83.65,66.383,88.8,66.55,95.2z"/>
	<path style="fill-rule:evenodd;clip-rule:evenodd;fill:#1E6752;" d="M80.25,54.15c0.3,3.733-0.167,5.65-1.4,5.75
		c-1.466,0.133-1.899-2.417-1.3-7.65l1.3-7.85C79.717,49.967,80.184,53.217,80.25,54.15z"/>
	<path style="fill-rule:evenodd;clip-rule:evenodd;fill:#223F36;" d="M84.1,84.7L83.2,99.15L77.5,74.2
		c3.233,11.2,4.983,16.166,5.25,14.899L84.1,84.7z"/>
	<path style="fill-rule:evenodd;clip-rule:evenodd;fill:#89A578;" d="M81.35,75.35H80.3l3.8-1.3L83.2,81.8
		c0.166-3.666,0.033-5.7-0.4-6.1C82.6,75.5,82.116,75.383,81.35,75.35z"/>
	<polygon style="fill-rule:evenodd;clip-rule:evenodd;fill:#739463;" points="22.05,7.45 1.9,148.95 0.85,148.1 20.3,6.75 	"/>
	<path style="fill-rule:evenodd;clip-rule:evenodd;fill:#D4E2C8;" d="M14.9,122.25c-0.767-0.1-1.233,0.233-1.4,1
		c-0.167,0.733,0.15,1.167,0.95,1.3c0.767,0.134,1.167-0.2,1.2-1C15.717,122.783,15.467,122.35,14.9,122.25z M15.6,113.85
		c-0.2,0.801,0,1.267,0.6,1.4c0.633,0.134,1.083-0.167,1.35-0.9c0.3-0.767,0-1.25-0.9-1.449
		C16.117,112.767,15.767,113.083,15.6,113.85z M21.6,116.7l-0.45,2.35l-3.5-0.899l-0.45,2.199c2.833,0.101,4.25,0.684,4.25,1.75
		c0,0.567-0.567,0.9-1.7,1c-0.833,0.067-1.85,0-3.05-0.199l-0.2,1.1c2.7,0.167,4.017,0.7,3.95,1.6c-0.1,1.167-0.35,2-0.75,2.5
		L16,126.4l-0.25,1.399l-3.3-1.35l2.85-15.75l3.75,0.2l-0.25,1.3c2.467-0.167,3.784,0.017,3.95,0.55c0.2,0.667-0.083,1.533-0.85,2.6
		l-3.5-1.1l-0.4,2L21.6,116.7z"/>
	<path style="fill-rule:evenodd;clip-rule:evenodd;fill:#D4E2C8;" d="M23.55,41.6c-0.1,0.833,0.167,1.283,0.8,1.35
		c0.667,0.066,1.017-0.317,1.05-1.15c0-0.833-0.3-1.283-0.9-1.35C23.967,40.383,23.65,40.767,23.55,41.6z M24.2,32.85
		c0.167,0.533,0.517,0.833,1.05,0.9s0.767-0.333,0.7-1.2c-0.067-0.833-0.45-1.117-1.15-0.85C24.233,31.933,24.033,32.317,24.2,32.85
		z M26.5,28.8l-0.1,1.65c2.6-0.3,4.017-0.117,4.25,0.55c0.167,0.367-0.316,0.733-1.45,1.1c-0.833,0.3-1.784,0.533-2.85,0.7
		l-0.05,1.25c2.233-0.1,3.417,0.217,3.55,0.95c0.1,0.533-0.017,0.917-0.35,1.15c-0.167,0.1-0.35,0.15-0.55,0.15H26.2l-0.05,1.95
		c2.667-0.433,4-0.333,4,0.3c0,0.733-0.15,1.467-0.45,2.2l-3.65-0.35L26,42c2.067-0.3,3.183-0.133,3.35,0.5
		c0.2,0.8-0.05,1.583-0.75,2.35l-2.7-0.9l-0.05,2.15l-3.3-0.25L23.65,29L26.5,28.8z"/>
</g>
</svg>
