<?xml version="1.0" encoding="iso-8859-1"?>
<!-- Generator: Adobe Illustrator 15.1.0, SVG Export Plug-In . SVG Version: 6.00 Build 0)  -->
<!DOCTYPE svg PUBLIC "-//W3C//DTD SVG 1.1//EN" "http://www.w3.org/Graphics/SVG/1.1/DTD/svg11.dtd">
<svg version="1.1" id="Isolation_Mode" xmlns="http://www.w3.org/2000/svg" xmlns:xlink="http://www.w3.org/1999/xlink" x="0px"
	 y="0px" width="52.95px" height="62.65px" viewBox="0 0 52.95 62.65" style="enable-background:new 0 0 52.95 62.65;"
	 xml:space="preserve">
<g>
	<path style="fill-rule:evenodd;clip-rule:evenodd;fill:#895D60;" d="M26,12.95c12.066,7.367,19.116,13.283,21.15,17.75
		c2.066,4.467,3.649,11.017,4.75,19.649c0.566,4.334,0.916,8.217,1.05,11.65c-1.066,0.5-2.184,0.717-3.351,0.65
		c-2.399-0.134-3.933-1.634-4.6-4.5c0.533-1.101,0.884-2.717,1.05-4.851c0.3-4.3-0.517-9.083-2.45-14.35
		c-1.933-5.267-9.1-11.383-21.5-18.35c-6.2-3.467-12.2-6.417-18-8.85l4.4-8.5C14.133,6.05,19.967,9.283,26,12.95z"/>
	<g>
		<path style="fill-rule:evenodd;clip-rule:evenodd;fill:#794F53;" d="M8.3,9.1c5.1,2.467,10.417,5.333,15.95,8.6
			c11,6.533,17.517,11.816,19.55,15.85c1.767,3.566,3.134,8.884,4.101,15.95c0.566,4.267,0.916,8.616,1.05,13.05
			C46.917,62.184,45.6,60.717,45,58.15c0.533-1.101,0.884-2.717,1.05-4.851c0.3-4.3-0.517-9.083-2.45-14.35
			C41.667,33.684,34.533,27.6,22.2,20.7c-6.167-3.467-12.2-6.434-18.1-8.9L8.3,9.1z"/>
	</g>
	<path style="fill-rule:evenodd;clip-rule:evenodd;fill:#6D484C;" d="M0.7,10.75c-0.8-1.633-0.767-3.667,0.1-6.1
		c0.9-2.4,2.083-3.833,3.55-4.3s3-0.2,4.6,0.8c1.566,1.033,2.35,2.233,2.35,3.6c0,1.533-0.267,3.017-0.8,4.45
		c-0.733,2.033-1.867,3.283-3.4,3.75c-1.434,0.466-2.934,0.233-4.5-0.7C1.833,11.817,1.2,11.317,0.7,10.75z"/>
	<path style="fill-rule:evenodd;clip-rule:evenodd;fill:#563B3E;" d="M2.35,1c0.967-0.833,2-1.15,3.1-0.95
		c1.8,0.333,2.466,2.434,2,6.3C7.217,8.317,6.7,9.817,5.9,10.85c-0.8,1.033-1.783,1.483-2.95,1.35C0.517,11.867-0.4,9.667,0.2,5.6
		C0.467,3.533,1.183,2,2.35,1z"/>
	<path style="fill-rule:evenodd;clip-rule:evenodd;fill:#413233;" d="M4.5,0.85c0.967,0,1.633,0.65,2,1.95
		c0.333,1.167,0.367,2.534,0.1,4.1c-0.7,4-2.2,5.417-4.5,4.25C0.767,10.483,0.45,8.6,1.15,5.5C1.817,2.433,2.933,0.883,4.5,0.85z"/>
</g>
</svg>
