<?xml version="1.0" encoding="iso-8859-1"?>
<!-- Generator: Adobe Illustrator 15.1.0, SVG Export Plug-In . SVG Version: 6.00 Build 0)  -->
<!DOCTYPE svg PUBLIC "-//W3C//DTD SVG 1.1//EN" "http://www.w3.org/Graphics/SVG/1.1/DTD/svg11.dtd">
<svg version="1.1" id="buildings" xmlns="http://www.w3.org/2000/svg" xmlns:xlink="http://www.w3.org/1999/xlink" x="0px" y="0px"
	 width="125.2px" height="27px" viewBox="0 0 125.2 27" style="enable-background:new 0 0 125.2 27;" xml:space="preserve">
<g>
	<path style="fill-rule:evenodd;clip-rule:evenodd;fill:#4F726D;" d="M120.2,2.5l3.3,8.7c-9.9,2.767-20.767,5.483-32.6,8.149
		C67.3,24.75,50.783,27.3,41.35,27c-9.434-0.267-19.15-1.35-29.15-3.25C7.2,22.816,3.133,21.9,0,21v-5.3
		c1.567,0.767,4.567,1.467,9,2.1c8.9,1.2,20.567,1.384,35,0.55c14.467-0.833,31.5-3.716,51.1-8.649C104.934,7.2,113.3,4.8,120.2,2.5
		z"/>
	<path style="fill-rule:evenodd;clip-rule:evenodd;fill:#768D7C;" d="M120.2,2.5c-5.7,2.1-12.983,4.333-21.851,6.7
		c-17.767,4.733-34.566,7.833-50.399,9.3c-15.833,1.467-28.567,1.434-38.2-0.1C4.917,17.667,1.667,16.767,0,15.7l1.95-1.2
		c26,0.833,44,0.917,54,0.25c6.267-0.4,19.184-2.983,38.75-7.75c9.8-2.367,18.967-4.7,27.5-7L120.2,2.5z"/>
	<polygon style="fill-rule:evenodd;clip-rule:evenodd;fill:#3C625D;" points="123.5,11.2 120.2,2.5 122.2,0 125.2,8 	"/>
</g>
</svg>
