<?xml version="1.0" encoding="iso-8859-1"?>
<!-- Generator: Adobe Illustrator 15.1.0, SVG Export Plug-In . SVG Version: 6.00 Build 0)  -->
<!DOCTYPE svg PUBLIC "-//W3C//DTD SVG 1.1//EN" "http://www.w3.org/Graphics/SVG/1.1/DTD/svg11.dtd">
<svg version="1.1" id="buildings" xmlns="http://www.w3.org/2000/svg" xmlns:xlink="http://www.w3.org/1999/xlink" x="0px" y="0px"
	 width="35.8px" height="21.35px" viewBox="0 0 35.8 21.35" style="enable-background:new 0 0 35.8 21.35;" xml:space="preserve">
<g>
	<path style="fill-rule:evenodd;clip-rule:evenodd;fill:#93B6AC;" d="M20.5,18.7c-2.366,0.2-4.767,0.633-7.2,1.3
		c-2.433,0.667-6.867,1-13.3,1c0.9-0.2,1.9-0.533,3-1c2.2-0.9,3.867-1.95,5-3.15c1.1-1.199,1.817-4.366,2.15-9.5
		C10.317,4.783,10.367,2.333,10.3,0c0.5,1.2,1.133,2.433,1.9,3.7c1.566,2.5,3.05,3.883,4.45,4.15C18.884,8.283,21,8.117,23,7.35
		l0.6,4.2c0.601,2.934,1.5,4.75,2.7,5.45c1.9,1.134,5.066,2.083,9.5,2.85l-12.149,1.5L20.5,18.7z"/>
	<g>
		<path style="fill-rule:evenodd;clip-rule:evenodd;fill:#7A9C94;" d="M23.65,21.35L20.5,18.7c-2.366,0.2-4.767,0.633-7.2,1.3
			c-2.433,0.667-6.867,1-13.3,1c0.9-0.2,1.9-0.533,3-1c2.2-0.9,3.867-1.95,5-3.15c1.1-1.199,1.817-4.366,2.15-9.5
			C10.317,4.783,10.367,2.333,10.3,0c0.434,1.4,0.967,2.883,1.6,4.45c1.3,3.2,2.434,5.283,3.4,6.25c0.967,0.967,1.934,1.366,2.9,1.2
			c0.467-0.101,0.833-0.284,1.1-0.551l-0.6,1.75c-0.267,1.2-0.117,1.9,0.45,2.101c0.899,0.333,2.017,0.383,3.35,0.149l6.6,5.351
			L23.65,21.35z"/>
	</g>
	<g>
		<path style="fill-rule:evenodd;clip-rule:evenodd;fill:#617973;" d="M23.15,17l2,2.2L23.6,21.35L20.5,18.7
			c-2.366,0.2-4.767,0.633-7.2,1.3c-2.433,0.667-6.867,1-13.3,1c3.033-0.733,5.483-1.917,7.35-3.55c1.433-0.8,2.367-1.55,2.8-2.25
			c1.233-2,1.783-3.783,1.65-5.35l0.5,2.45c0.5,1.634,1.167,2.483,2,2.55c0.833,0.067,1.617-0.216,2.35-0.85
			c0.367-0.333,0.65-0.667,0.85-1l0.3,1.65c0.3,1.166,0.8,1.85,1.5,2.05C20.434,17.033,21.717,17.134,23.15,17z"/>
	</g>
	<path style="fill-rule:evenodd;clip-rule:evenodd;fill:#4F605D;" d="M23.6,21.35L20.15,20c-2,0.3-4.117,0.566-6.351,0.8
		c-4.466,0.467-7.3,0.483-8.5,0.05c3.333-1.433,5.333-2.433,6-3c0.667-0.566,1.117-1.233,1.35-2c0.233,1.9,0.733,2.684,1.5,2.351
		c0.767-0.334,1.483-1.066,2.15-2.2l0.35,1.2c0.367,0.767,0.867,1.149,1.5,1.149c1,0,2.05,0.117,3.149,0.351L23.6,21.35z"/>
</g>
</svg>
