<?xml version="1.0" encoding="iso-8859-1"?>
<!-- Generator: Adobe Illustrator 15.1.0, SVG Export Plug-In . SVG Version: 6.00 Build 0)  -->
<!DOCTYPE svg PUBLIC "-//W3C//DTD SVG 1.1//EN" "http://www.w3.org/Graphics/SVG/1.1/DTD/svg11.dtd">
<svg version="1.1" id="Isolation_Mode" xmlns="http://www.w3.org/2000/svg" xmlns:xlink="http://www.w3.org/1999/xlink" x="0px"
	 y="0px" width="475.75px" height="424.65px" viewBox="0 0 475.75 424.65" style="enable-background:new 0 0 475.75 424.65;"
	 xml:space="preserve">
<g>
	
		<linearGradient id="SVGID_1_" gradientUnits="userSpaceOnUse" x1="26.4336" y1="-313.7412" x2="93.8943" y2="-313.7412" gradientTransform="matrix(-0.5614 0.8275 -0.8275 -0.5614 4.076958e-005 -2.956390e-005)">
		<stop  offset="0" style="stop-color:#6C7D7A"/>
		<stop  offset="1" style="stop-color:#475150"/>
	</linearGradient>
	<path style="fill-rule:evenodd;clip-rule:evenodd;fill:url(#SVGID_1_);" d="M467.35,348l1.65,6.9
		c1.066,5.699,1.483,11.383,1.25,17.05c-0.833,18.066-8.134,32.416-21.9,43.05c-10.267,7.934-21.35,8.65-33.25,2.15
		c-3.699-2.034-7.267-4.667-10.699-7.9L400.35,405c-57.333-46-103.666-83.667-139-113c-22.1-18.333-72.216-66.5-150.35-144.5
		C74.502,111.095,39.935,76.287,7.3,43.075c-2.725-0.611-4.708-1.503-5.95-2.675c-0.934-0.9-1.383-1.9-1.35-3L0.35,36
		c2.307,2.351,4.624,4.709,6.95,7.075c3.861,0.871,9.211,1.179,16.05,0.925c11.667-0.4,19.667-7.85,24-22.35
		c2.167-7.267,3.167-14.483,3-21.65c24.333,28.667,51.583,59.667,81.75,93c60.333,66.667,105.083,111.667,134.25,135
		c29.167,23.333,71.417,50.333,126.75,81C420.767,324.333,445.517,337.333,467.35,348z"/>
	<path style="fill-rule:evenodd;clip-rule:evenodd;fill:#949F9E;" d="M471.7,387.35c-6.3,26.434-18.417,38.817-36.351,37.15
		c-11.899-1.1-20.916-3.684-27.05-7.75L408.15,404c4.1,5.833,10.883,9.55,20.35,11.15c8.7,1.466,15.483,0.75,20.35-2.15
		c10.634-6.233,16.9-18.934,18.801-38.1c0.6-6,0.733-12.284,0.399-18.851l-0.7-8.05l8.4-0.8l-0.25,12.649
		C474.934,369.917,473.667,379.083,471.7,387.35z"/>
	<path style="fill-rule:evenodd;clip-rule:evenodd;fill:#B1B8B7;" d="M467.35,348c-15.166-7.267-33-16.283-53.5-27.05
		c-41.033-21.533-74.866-41.017-101.5-58.45c-32.333-21.134-68.283-51.1-107.85-89.9c-25.633-25.133-48.35-49.333-68.15-72.6
		c-16.8-19.667-45.467-53-86-100l3.5,0.7c30.667,36,60.933,70.883,90.8,104.65c11.367,12.833,22.967,25.467,34.8,37.9
		c11.1,11.7,20.733,21.467,28.9,29.3c25.767,24.767,44.617,42.017,56.55,51.75c17.066,13.934,40.1,30.066,69.1,48.4
		c26.033,16.467,57.467,33.816,94.3,52.05c18.434,9.134,34.25,16.616,47.45,22.45L467.35,348z"/>
</g>
</svg>
