<?xml version="1.0" encoding="iso-8859-1"?>
<!-- Generator: Adobe Illustrator 15.1.0, SVG Export Plug-In . SVG Version: 6.00 Build 0)  -->
<!DOCTYPE svg PUBLIC "-//W3C//DTD SVG 1.1//EN" "http://www.w3.org/Graphics/SVG/1.1/DTD/svg11.dtd">
<svg version="1.1" id="buildings" xmlns="http://www.w3.org/2000/svg" xmlns:xlink="http://www.w3.org/1999/xlink" x="0px" y="0px"
	 width="123.95px" height="35.8px" viewBox="0 0 123.95 35.8" style="enable-background:new 0 0 123.95 35.8;" xml:space="preserve"
	>
<g>
	<path style="fill-rule:evenodd;clip-rule:evenodd;fill:#FAF2E2;" d="M104.85,17.1c-3.8,1.534-9.183,3.117-16.149,4.75
		c-13.934,3.267-28.75,5.101-44.45,5.5C28.55,27.783,16.467,26.566,8,23.7c-4.233-1.434-6.9-2.917-8-4.45L1.75,14
		c14.333,0,28.4,0.117,42.2,0.35c8.6,0.133,24.517-2.217,47.75-7.05c11.6-2.4,22.35-4.833,32.25-7.3L104.85,17.1z"/>
	<path style="fill-rule:evenodd;clip-rule:evenodd;fill:#EFD79F;" d="M89.8,20.05c6.267-1.1,11.283-2.083,15.05-2.95l1.4,6.6
		c-4.767,1.767-10.45,3.6-17.05,5.5c-13.233,3.767-24.434,5.934-33.6,6.5c-9.133,0.533-21.133-1.55-36-6.25
		c-7.4-2.367-13.9-4.783-19.5-7.25L0,19.25c3.233,1.467,7.817,2.8,13.75,4c11.933,2.4,24.767,2.983,38.5,1.75
		C64.75,23.9,77.267,22.25,89.8,20.05z"/>
	<polygon style="fill-rule:evenodd;clip-rule:evenodd;fill:#ADAF8D;" points="123.25,9 106.25,23.7 104.85,17.1 123.95,0 	"/>
</g>
</svg>
