<?xml version="1.0" encoding="iso-8859-1"?>
<!-- Generator: Adobe Illustrator 15.1.0, SVG Export Plug-In . SVG Version: 6.00 Build 0)  -->
<!DOCTYPE svg PUBLIC "-//W3C//DTD SVG 1.1//EN" "http://www.w3.org/Graphics/SVG/1.1/DTD/svg11.dtd">
<svg version="1.1" id="Isolation_Mode" xmlns="http://www.w3.org/2000/svg" xmlns:xlink="http://www.w3.org/1999/xlink" x="0px"
	 y="0px" width="14.35px" height="29.6px" viewBox="0 0 14.35 29.6" style="enable-background:new 0 0 14.35 29.6;"
	 xml:space="preserve">
<g>
	<path style="fill-rule:evenodd;clip-rule:evenodd;fill:#81908E;" d="M8.8,16.8c0.2-2.4-0.633-4.983-2.5-7.75
		C5.367,7.65,4.417,6.5,3.45,5.6l5.7-2.8c0.733,0.934,1.5,2.083,2.3,3.45c1.6,2.733,2.55,5.133,2.85,7.2
		c0.3,2.1-0.616,5.416-2.75,9.95c-1.066,2.267-2.166,4.333-3.3,6.199c-2.233-0.333-4.183-1.166-5.85-2.5c1-0.767,2-1.767,3-3
		C7.467,21.634,8.6,19.2,8.8,16.8z"/>
	<g>
		<path style="fill-rule:evenodd;clip-rule:evenodd;fill:#637572;" d="M8.55,10.7L7.8,9.6L8.4,10.8
			c0.399,0.967,0.666,1.817,0.8,2.55c0.233,1.167,0.3,2.417,0.2,3.75c-0.134,1.7-0.534,3.034-1.2,4
			c-0.934,1.467-2.35,3.284-4.25,5.45l0.35,0.9c2.567-2.566,4.2-4.733,4.9-6.5c1-2.434,1.166-4.983,0.5-7.65
			C9.5,12.467,9.116,11.6,8.55,10.7z M10.5,4.8c0.366,0.467,0.816,1.217,1.35,2.25C10.816,7.983,10.167,8.5,9.9,8.6L8.45,9.1
			c1.133,1.533,1.833,3.367,2.1,5.5c0.4,3.3-0.066,6.117-1.399,8.45c-0.867,1.434-2.3,3.283-4.3,5.55c-1.033-0.5-1.85-1-2.45-1.5
			c1-0.767,2-1.767,3-3c2.067-2.466,3.2-4.899,3.4-7.3c0.267-3.033-1.033-6.233-3.9-9.6c0.767-1.133,1.533-1.833,2.3-2.1
			C8.467,4.7,9.566,4.6,10.5,4.8z"/>
		<path style="fill-rule:evenodd;clip-rule:evenodd;fill:#485956;" d="M9.7,13.3c0.666,2.667,0.5,5.217-0.5,7.65
			c-0.7,1.767-2.333,3.934-4.9,6.5l-0.35-0.9c1.9-2.166,3.316-3.983,4.25-5.45c0.666-0.966,1.066-2.3,1.2-4
			c0.1-1.333,0.033-2.583-0.2-3.75c-0.134-0.733-0.4-1.583-0.8-2.55L7.8,9.6l0.75,1.1C9.116,11.6,9.5,12.467,9.7,13.3z"/>
		<path style="fill-rule:evenodd;clip-rule:evenodd;fill:#9EAEAB;" d="M11.65,10.55c0.5-0.966,1-0.833,1.5,0.4
			c0.5,1.2,0.683,2.667,0.55,4.399c-0.101,1.434-0.634,3.134-1.601,5.101c-0.5,0.967-0.983,1.8-1.449,2.5
			c1-2.167,1.633-4.3,1.899-6.4C12.816,14.417,12.517,12.417,11.65,10.55z"/>
	</g>
	<path style="fill-rule:evenodd;clip-rule:evenodd;fill:#546764;" d="M10.4,0.45C11.434,0.583,12.233,0.8,12.8,1.1
		c0,2.133-0.217,3.583-0.649,4.35c-0.367,0.6-1.167,1.183-2.4,1.75c-1.267,0.6-2.634,1.017-4.1,1.25C4.417,8.65,3.267,8.567,2.2,8.2
		C1.667,8.033,1.25,7.833,0.95,7.6c-0.667-1.367-0.767-2.617-0.3-3.75C1.117,2.65,2.2,1.767,3.9,1.2
		C6.2,0.433,8.366,0.183,10.4,0.45z"/>
	<g>
		<path style="fill-rule:evenodd;clip-rule:evenodd;fill:#455452;" d="M10.35,0.4c1,0.167,1.817,0.4,2.45,0.7
			C12.2,1,11.9,1.133,11.9,1.5L11.3,2.1L6.35,3.45L4.8,5.7L5,6.5c0.333,0.533,0.967,0.8,1.9,0.8c1.534,0,3.284-0.617,5.25-1.85
			c-0.367,0.6-1.167,1.183-2.4,1.75c-1.267,0.6-2.634,1.017-4.1,1.25C4.417,8.65,3.267,8.567,2.2,8.2
			C1.667,8.033,1.25,7.833,0.95,7.6C0.55,6.767,0.3,6.2,0.2,5.9C0,5.233,0,4.667,0.2,4.2c0.566-1.333,2.183-2.467,4.85-3.4
			C6.65,0.2,8.417,0.067,10.35,0.4z"/>
	</g>
	<path style="fill-rule:evenodd;clip-rule:evenodd;fill:#9EAEAB;" d="M5.05,0.6C6.317,0.2,7.783,0,9.45,0c2,0,3.116,0.383,3.35,1.15
		c0.167,0.533-0.25,1.117-1.25,1.75c-1,0.7-2.366,1.283-4.1,1.75C5.783,5.083,4.283,5.333,2.95,5.4c-1.3,0.1-2.15,0-2.55-0.3
		c-0.667-0.5-0.517-1.217,0.45-2.15C1.817,2.017,3.217,1.233,5.05,0.6z"/>
	<linearGradient id="SVGID_1_" gradientUnits="userSpaceOnUse" x1="0.9624" y1="2.582" x2="11.8374" y2="2.582">
		<stop  offset="0" style="stop-color:#893342"/>
		<stop  offset="1" style="stop-color:#2D1D1E"/>
	</linearGradient>
	<path style="fill-rule:evenodd;clip-rule:evenodd;fill:url(#SVGID_1_);" d="M5.2,1.05c1.233-0.367,2.566-0.55,4-0.55
		c1.533-0.033,2.399,0.183,2.6,0.65c0.367,0.867-1.083,1.75-4.35,2.65C4.283,4.633,2.233,4.867,1.3,4.5
		C0.667,4.267,0.833,3.717,1.8,2.85C2.767,2.05,3.9,1.45,5.2,1.05z"/>
</g>
</svg>
