<?xml version="1.0" encoding="iso-8859-1"?>
<!-- Generator: Adobe Illustrator 15.1.0, SVG Export Plug-In . SVG Version: 6.00 Build 0)  -->
<!DOCTYPE svg PUBLIC "-//W3C//DTD SVG 1.1//EN" "http://www.w3.org/Graphics/SVG/1.1/DTD/svg11.dtd">
<svg version="1.1" id="buildings-back" xmlns="http://www.w3.org/2000/svg" xmlns:xlink="http://www.w3.org/1999/xlink" x="0px"
	 y="0px" width="84.5px" height="86px" viewBox="0 0 84.5 86" style="enable-background:new 0 0 84.5 86;" xml:space="preserve">
<path style="fill-rule:evenodd;clip-rule:evenodd;fill:#544F44;" d="M49.75,16.75c-1.167-1.2-2.35-2.433-3.55-3.7
	c-2.434-2.566-3.75-4-3.95-4.3s0.066-1.683,0.8-4.15c0.4-1.233,0.8-2.434,1.2-3.6c-0.2,0.867-0.366,1.833-0.5,2.9
	C43.517,5.967,43.6,7.417,44,8.25c0.667,1.333,3.25,4.083,7.75,8.25L63,13l-11.25,5.25L42.25,25l-1.75,9l11.25-3L62,33.25l10.75,4
	l11.25-4L74.5,38l3.75,4.5l6.25,4l-7-2.5l-4.25-4.25l-10.25-4l4,6c-1-1.167-2.167-2.367-3.5-3.6c-2.667-2.5-4.833-3.967-6.5-4.4
	c-1.667-0.4-4.5-0.267-8.5,0.4l-5.5,1.1l-10.25,14.5l-6.5,11.75L26,73.25L44.75,60l-4.25,4.75l3-0.75l-3,3l3.5-0.75
	c-2.733,1.333-5.483,2.783-8.25,4.35c-5.5,3.134-8.25,5.267-8.25,6.4s0.75,2.733,2.25,4.8c0.767,1,1.517,1.9,2.25,2.7
	c-5.5-1.333-8.917-1.917-10.25-1.75c-0.833,0.1-1.833,0.667-3,1.7c-0.567,0.533-1.067,1.05-1.5,1.55c-0.4-0.4-0.967-0.833-1.7-1.3
	c-1.4-0.867-2.833-1.351-4.3-1.45L0,85.25l1-0.75c0.233-0.167,2.75-1.384,7.55-3.65c4.2-2,6.6-3.533,7.2-4.6
	c0.833-1.467,0.667-4.066-0.5-7.8l-2-5.2l6.25-2c0.967-1.033,2.017-2.316,3.15-3.85c2.3-3.034,3.917-5.75,4.85-8.15
	s1.333-5.116,1.2-8.15l-0.45-3.85c-2.733-2.667-5.483-5.367-8.25-8.1c-5.5-5.467-8.25-8.35-8.25-8.65c-0.5-9.5-0.833-14.667-1-15.5
	S8,2.5,3,0l9.25,4.25l0.5,8.75l3.5-4.75l-3.75,8l7.75,9.5l11.25,12l-1.25,10.5l7-10.75l3.25-13.25L49.75,16.75z"/>
</svg>
