<?xml version="1.0" encoding="iso-8859-1"?>
<!-- Generator: Adobe Illustrator 15.1.0, SVG Export Plug-In . SVG Version: 6.00 Build 0)  -->
<!DOCTYPE svg PUBLIC "-//W3C//DTD SVG 1.1//EN" "http://www.w3.org/Graphics/SVG/1.1/DTD/svg11.dtd">
<svg version="1.1" id="Isolation_Mode" xmlns="http://www.w3.org/2000/svg" xmlns:xlink="http://www.w3.org/1999/xlink" x="0px"
	 y="0px" width="85.15px" height="104.6px" viewBox="0 0 85.15 104.6" style="enable-background:new 0 0 85.15 104.6;"
	 xml:space="preserve">
<symbol  id="FlashAICB_x5F_0_x2F_Isolation_Mode_x2F__x3C_Path_x3E__x5F_10">
	<g id="Layer_1_2_">
	</g>
</symbol>
<symbol  id="FlashAICB_x5F_0_x2F_Isolation_Mode_x2F__x3C_Path_x3E__x5F_4" viewBox="0 -48.85 9.9 48.825">
	<g id="Layer_1_6_">
		<path style="fill-rule:evenodd;clip-rule:evenodd;fill:#682D38;" d="M8-2.1c0.7-0.1,1.217,0.217,1.55,0.95
			C9.744-0.795,9.86-0.42,9.9-0.025C9.099-11.648,8.383-20.423,7.75-26.35c-0.533-4.867-1.983-10.066-4.35-15.6
			c-1.167-2.8-2.3-5.1-3.4-6.9c0.833,2.1,1.717,4.684,2.65,7.75c1.867,6.167,3.033,11.667,3.5,16.5C6.983-16.033,7.6-8.533,8-2.1z"
			/>
	</g>
</symbol>
<symbol  id="FlashAICB_x5F_0_x2F_Isolation_Mode_x2F__x3C_Path_x3E__x5F_6" viewBox="0 -3.216 39.9 3.216">
	<g id="Layer_1_5_">
		<path style="fill-rule:evenodd;clip-rule:evenodd;fill:#682D38;" d="M25-1.65c4.767-0.2,8.683-0.133,11.75,0.2
			c1.533,0.167,2.583,0.35,3.15,0.55c-0.433-0.3-1.15-0.633-2.15-1c-1.967-0.667-4.3-1.083-7-1.25C26.417-3.383,16.167-3,0-2l2.15,2
			C9.817-0.767,17.433-1.317,25-1.65z"/>
	</g>
</symbol>
<symbol  id="FlashAICB_x5F_0_x2F_Isolation_Mode_x2F__x3C_Path_x3E__x5F_8" viewBox="0.015 -6 43.135 6">
	<g id="Layer_1_4_">
		<path style="fill-rule:evenodd;clip-rule:evenodd;fill:#682D38;" d="M0.8,0c16.067-0.767,25.983-1.433,29.75-2
			c3.333-0.533,7.534-1.867,12.6-4C42.283-5.733,39.9-5.2,36-4.4c-4.4,0.9-7.717,1.483-9.95,1.75
			C24.117-2.417,19.533-2.367,12.3-2.5C5.433-2.6,1.8-2.6,1.4-2.5C0.667-2.333,0.217-1.867,0.05-1.1C-0.083-0.367,0.167,0,0.8,0z"/>
	</g>
</symbol>
<symbol  id="FlashAICB_x5F_0_x2F_Isolation_Mode_x2F__x3C_Path_x3E__x5F_9">
	<g id="Layer_1_3_">
	</g>
</symbol>
<g>
	<path style="fill-rule:evenodd;clip-rule:evenodd;fill:#7F3342;" d="M83,50.25c-0.833,4.5-2,11.066-3.5,19.7
		c-1.434,7.166-3.066,12.866-4.9,17.1c-4.833,11-13.149,16.5-24.949,16.5c-11.234,0-21.267-0.5-30.101-1.5
		c-4.433-0.5-7.733-1-9.9-1.5c2.333-1.5,4.417-3.366,6.25-5.6c3.667-4.5,4.25-8.634,1.75-12.4c5.733,1.066,11.717,1.75,17.95,2.05
		C48.033,85.233,55.5,83.667,58,79.9c3.434-5.167,6.634-15.467,9.6-30.9c3.134-16.167,2.934-24.633-0.6-25.4
		c-9.9-2.167-20.033-3.2-30.4-3.1c-5.2,0.033-9.4,0.283-12.6,0.75c-1.567-0.233-3.05-0.95-4.45-2.15
		c-2.867-2.434-3.95-6.05-3.25-10.85c0.367-2.433,0.684-3.917,0.95-4.45c1-1.8,3.017-2.767,6.05-2.9c7.534-0.3,18,0.6,31.4,2.7
		C65.866,5.333,73.634,6.883,78,8.25c3.066,0.967,5.184,4.8,6.35,11.5C85.75,27.683,85.3,37.85,83,50.25z"/>
	<g>
		<path style="fill-rule:evenodd;clip-rule:evenodd;fill:#682D38;" d="M52.85,101.7c2.7-0.167,5.034-0.584,7-1.25
			c1-0.367,1.717-0.7,2.15-1c-0.566,0.2-1.616,0.383-3.15,0.55c-3.066,0.333-6.983,0.4-11.75,0.2
			c-7.566-0.334-15.183-0.884-22.85-1.65l-2.15,2c4.033,0.267,8.35,0.5,12.95,0.7C44.217,101.684,50.15,101.833,52.85,101.7z
			 M51,97.3c6.1-0.267,10.583-0.767,13.45-1.5c1.767-0.467,3.483-1.25,5.149-2.35c0.7-0.467,1.684-1.283,2.95-2.45
			c-2.333,4.066-5.25,7.116-8.75,9.15c-3.866,2.267-8.583,3.399-14.149,3.399c-11.234,0-21.267-0.5-30.101-1.5
			c-4.433-0.5-7.733-1-9.9-1.5c2.3-1.467,4.367-3.316,6.2-5.55C30.95,96.934,42.667,97.7,51,97.3z"/>
		<path style="fill-rule:evenodd;clip-rule:evenodd;fill:#682D38;" d="M72.4,26.35c-0.334,0.733-0.851,1.05-1.551,0.95
			C70.45,33.733,69.833,41.233,69,49.8c-0.467,4.834-1.634,10.334-3.5,16.5c-0.934,3.066-1.816,5.65-2.65,7.75
			c1.101-1.8,2.233-4.1,3.4-6.899c2.366-5.534,3.816-10.733,4.35-15.601c0.634-5.93,1.35-14.705,2.15-26.325
			C72.714,25.614,72.597,25.989,72.4,26.35z M50,17.95c2.233,0.267,5.55,0.85,9.95,1.75c3.899,0.8,6.283,1.333,7.149,1.6
			c-5.066-2.133-9.267-3.466-12.6-4c-2.366-0.367-8.033-0.8-17-1.3c-4.467-0.267-8.717-0.5-12.75-0.7c-0.633,0-0.883,0.367-0.75,1.1
			c0.167,0.767,0.617,1.233,1.35,1.4c0.4,0.1,4.033,0.1,10.9,0C43.483,17.667,48.066,17.717,50,17.95z M64.65,17.1
			c6.533,1.933,9.85,4.333,9.949,7.2c0.167,4.2-0.267,10.817-1.3,19.85c-1.166,10.667-2.649,18.466-4.45,23.4
			c-1.767,4.9-4.399,8.816-7.899,11.75c-2.601,2.134-5.084,3.384-7.45,3.75c-0.033,0.033-0.066,0.033-0.1,0
			c2.199-0.8,3.733-1.85,4.6-3.149c3.434-5.167,6.634-15.467,9.6-30.9c3.134-16.167,2.934-24.633-0.6-25.4
			c-9.9-2.167-20.033-3.2-30.4-3.1c-5.2,0.033-9.4,0.283-12.6,0.75c-1.067-0.167-2.2-0.633-3.4-1.4c-2.367-1.5-3.8-3.717-4.3-6.65
			c2.467,0.1,12.65,0.466,30.55,1.1C53.417,14.6,59.35,15.533,64.65,17.1z"/>
		
			<use xlink:href="#FlashAICB_x5F_0_x2F_Isolation_Mode_x2F__x3C_Path_x3E__x5F_10"  width="-32766" height="-32766" x="16383" y="16383" transform="matrix(1 0 0 -1 67.0996 21.2998)" style="overflow:visible;enable-background:new    ;"/>
		
			<use xlink:href="#FlashAICB_x5F_0_x2F_Isolation_Mode_x2F__x3C_Path_x3E__x5F_9"  width="-32766" height="-32766" x="16383" y="16383" transform="matrix(1 0 0 -1 67.0996 21.2998)" style="overflow:visible;enable-background:new    ;"/>
		
			<use xlink:href="#FlashAICB_x5F_0_x2F_Isolation_Mode_x2F__x3C_Path_x3E__x5F_8"  width="43.135" height="6" x="0.015" y="-6" transform="matrix(1 0 0 -1 23.9502 15.2998)" style="overflow:visible;enable-background:new    ;"/>
		<path style="fill-rule:evenodd;clip-rule:evenodd;fill:#5A2932;" d="M54.5,17.3c3.333,0.534,7.533,1.867,12.6,4
			c-0.866-0.267-3.25-0.8-7.149-1.6c-4.4-0.9-7.717-1.483-9.95-1.75c-1.934-0.233-6.517-0.284-13.75-0.15
			c-6.867,0.1-10.5,0.1-10.9,0c-0.733-0.167-1.184-0.633-1.35-1.4c-0.133-0.733,0.117-1.1,0.75-1.1c4.033,0.2,8.283,0.434,12.75,0.7
			C46.467,16.5,52.134,16.933,54.5,17.3z"/>
		
			<use xlink:href="#FlashAICB_x5F_0_x2F_Isolation_Mode_x2F__x3C_Path_x3E__x5F_6"  width="39.9" height="3.216" y="-3.216" transform="matrix(1 0 0 -1 22.1001 98.5498)" style="overflow:visible;enable-background:new    ;"/>
		<path style="fill-rule:evenodd;clip-rule:evenodd;fill:#5A2932;" d="M47.1,100.2c4.767,0.2,8.684,0.133,11.75-0.2
			c1.534-0.167,2.584-0.35,3.15-0.55c-0.434,0.3-1.15,0.633-2.15,1c-1.966,0.666-4.3,1.083-7,1.25
			c-2.699,0.133-8.633-0.017-17.8-0.45c-4.6-0.2-8.917-0.434-12.95-0.7l2.15-2C31.917,99.316,39.533,99.866,47.1,100.2z"/>
		
			<use xlink:href="#FlashAICB_x5F_0_x2F_Isolation_Mode_x2F__x3C_Path_x3E__x5F_4"  width="9.9" height="48.825" y="-48.85" transform="matrix(1 0 0 -1 62.8496 25.2002)" style="overflow:visible;enable-background:new    ;"/>
		<path style="fill-rule:evenodd;clip-rule:evenodd;fill:#5A2932;" d="M72.4,26.35c0.196-0.361,0.313-0.736,0.35-1.125
			c-0.801,11.62-1.517,20.395-2.15,26.325c-0.533,4.867-1.983,10.066-4.35,15.601c-1.167,2.8-2.3,5.1-3.4,6.899
			c0.834-2.1,1.717-4.684,2.65-7.75c1.866-6.166,3.033-11.666,3.5-16.5c0.833-8.566,1.45-16.066,1.85-22.5
			C71.55,27.4,72.066,27.083,72.4,26.35z"/>
		<path style="fill-rule:evenodd;clip-rule:evenodd;fill:#9B3A4C;" d="M82.85,17.95c0.534,2.633,0.784,5.6,0.75,8.9
			c-0.033,1.667-0.116,3.066-0.25,4.2c-0.233-3.233-0.767-4.933-1.6-5.1c-0.533-0.1-1.083,0.117-1.65,0.65l-0.75,0.85
			c0.267-2.833,0.101-6.583-0.5-11.25c-0.366-2.9-1.966-5.15-4.8-6.75l-4.2-1.5c3.867,0.133,6.684,0.783,8.45,1.95
			C80.533,11.367,82.05,14.05,82.85,17.95z"/>
		<path style="fill-rule:evenodd;clip-rule:evenodd;fill:#9B3A4C;" d="M60.25,5.2C63.217,5.8,64.2,6.4,63.2,7
			c-1.033,0.6-2.4,0.75-4.101,0.45C57.267,7.117,47.35,6.033,29.35,4.2l1.8-0.15c1.333-0.167,2.317-0.417,2.95-0.75
			c0.667-0.333,0.633-0.833-0.1-1.5L44.65,3C52.283,3.9,57.483,4.633,60.25,5.2z"/>
		<path style="fill-rule:evenodd;clip-rule:evenodd;fill:#9B3A4C;" d="M40.25,87.55c-1.533-0.033-3.817-0.017-6.85,0.05L29.25,87.7
			c0.167-0.934,0.083-1.65-0.25-2.15l6.65,0.3c4.8,0.2,8.083,0.267,9.85,0.2c2.833-0.066,4.283,0.066,4.35,0.4
			C45.85,87.283,42.65,87.65,40.25,87.55z"/>
	</g>
	<path style="fill-rule:evenodd;clip-rule:evenodd;fill:#9B3A4C;" d="M81.05,39.05l0.7-2.1c-3.267,19-5.65,31.416-7.15,37.25
		c-0.933,3.633-2.149,6.583-3.649,8.85C70.217,84.15,69.566,84.9,69,85.3c0.1-0.5,0.184-1,0.25-1.5c0.1-1,0.017-1.5-0.25-1.5
		s-1.017,0.384-2.25,1.15c-0.6,0.366-1.184,0.733-1.75,1.1c1-1,2.167-2.533,3.5-4.6c1.033-1.601,2.283-4.117,3.75-7.55
		c1.5-3.5,2.7-6.733,3.6-9.7c0.801-2.5,1.7-7.167,2.7-14l1.3-9.5C80.116,40.3,80.517,40.25,81.05,39.05z"/>
	<path style="fill-rule:evenodd;clip-rule:evenodd;fill:#5B2932;" d="M2.55,92.15c0.434-4.867,1.2-8.301,2.3-10.301
		c1.5-2.699,3.967-3.883,7.4-3.55c4.433,0.434,7.467,2.15,9.1,5.15c1.1,2,1.566,4.7,1.4,8.1c-0.167,3.3-1.033,6.184-2.6,8.65
		c-2.033,3.233-4.833,4.684-8.4,4.35c-0.267,0-0.883-0.05-1.85-0.149c-0.933-0.101-1.517-0.184-1.75-0.25
		c-2.566-2.367-4.167-4.017-4.8-4.95C2.517,97.866,2.25,95.517,2.55,92.15z"/>
	<path style="fill-rule:evenodd;clip-rule:evenodd;fill:#5B2932;" d="M27.15,22.55c-0.633,0.133-1.566,0.25-2.8,0.35
		c-1.167,0.1-2.067,0.133-2.7,0.1c-1.933-0.9-3.133-2.233-3.6-4c-0.167-0.7-0.333-3.05-0.5-7.05C17.183,8.75,17,6.617,17,5.55
		c0.033-1.6,0.75-3.367,2.15-5.3c2.367-0.333,4.15-0.333,5.35,0c4.633,1.2,6.983,5.117,7.05,11.75c0.034,2.6-0.367,4.933-1.2,7
		C29.483,21.133,28.417,22.317,27.15,22.55z"/>
	<path style="fill-rule:evenodd;clip-rule:evenodd;fill:#3E2126;" d="M19,0.3c1.233-0.2,2.533,0.534,3.9,2.2
		c1.633,1.933,2.6,4.533,2.9,7.8c0.333,3.867,0.25,6.8-0.25,8.8c-0.566,2.367-1.75,3.65-3.55,3.85c-2.067,0.2-3.883-0.684-5.45-2.65
		c-1.667-2.1-2.566-4.966-2.7-8.6c-0.1-3.4,0.517-6.217,1.85-8.45C16.767,1.45,17.867,0.467,19,0.3z"/>
	<path style="fill-rule:evenodd;clip-rule:evenodd;fill:#4E252C;" d="M29.25,20.55c-0.5,0.8-1.05,1.367-1.65,1.7
		c-0.567,0.333-1.967,0.517-4.2,0.55c0.733-0.233,1.233-0.683,1.5-1.35l0.9-1.8l0.4,0.55c0.333,0.4,0.7,0.633,1.1,0.7
		C27.967,21,28.617,20.883,29.25,20.55z"/>
	<path style="fill-rule:evenodd;clip-rule:evenodd;fill:#843544;" d="M25.4,1.15c1.2,0.533,2.233,1.317,3.1,2.35
		c1.167,1.367,1.8,2.883,1.9,4.55c-1.033-0.566-1.783-0.9-2.25-1c-0.267-0.033-0.667,0.017-1.2,0.15l-0.7,0.25
		c-0.533-1.9-1.083-3.3-1.65-4.2c-0.4-0.667-1.017-1.317-1.85-1.95l-0.9-0.75C22.983,0.417,24.167,0.617,25.4,1.15z"/>
	<path style="fill-rule:evenodd;clip-rule:evenodd;fill:#3E2126;" d="M10.6,78.45c1.667,0.3,3.05,1.566,4.15,3.8
		c1.267,2.667,1.683,6.017,1.25,10.05c-0.467,4.167-1.45,7.3-2.95,9.4c-1.3,1.8-2.783,2.633-4.45,2.5
		c-2.467-0.2-4.45-1.134-5.95-2.8c-2.367-2.667-3.133-6.867-2.3-12.601c0.633-4.467,2.35-7.533,5.15-9.2
		C7.233,78.566,8.933,78.184,10.6,78.45z"/>
	<path style="fill-rule:evenodd;clip-rule:evenodd;fill:#843544;" d="M16.75,84.25c-0.067-0.767-0.583-1.85-1.55-3.25l-1.45-1.85
		c1.033-0.034,2.267,0.383,3.7,1.25c1.433,0.866,2.45,1.816,3.05,2.85c0.767,1.4,1.183,2.85,1.25,4.35c-1.3-0.833-2.3-1.283-3-1.35
		c-0.467-0.033-0.933,0.066-1.4,0.3L16.8,86.9C16.867,86.366,16.85,85.483,16.75,84.25z"/>
	<path style="fill-rule:evenodd;clip-rule:evenodd;fill:#4E252C;" d="M15.85,98.9c0.4,0.166,0.833,0.283,1.3,0.35
		c0.733,0.1,1.9-0.1,3.5-0.6l-1.3,1.899c-0.934,1.334-1.667,2.184-2.2,2.55c-0.867,0.601-2,0.967-3.4,1.101
		c-0.7,0.066-1.733,0.05-3.1-0.05c1.333-0.4,2.3-1.067,2.9-2c0.4-0.567,0.833-1.317,1.3-2.25l0.55-1.25L15.85,98.9z"/>
</g>
</svg>
