<?xml version="1.0" encoding="iso-8859-1"?>
<!-- Generator: Adobe Illustrator 15.1.0, SVG Export Plug-In . SVG Version: 6.00 Build 0)  -->
<!DOCTYPE svg PUBLIC "-//W3C//DTD SVG 1.1//EN" "http://www.w3.org/Graphics/SVG/1.1/DTD/svg11.dtd">
<svg version="1.1" id="Isolation_Mode" xmlns="http://www.w3.org/2000/svg" xmlns:xlink="http://www.w3.org/1999/xlink" x="0px"
	 y="0px" width="295px" height="161.55px" viewBox="0 0 295 161.55" style="enable-background:new 0 0 295 161.55;"
	 xml:space="preserve">
<g>
	<g>
		<path style="fill-rule:evenodd;clip-rule:evenodd;fill:#6D7877;" d="M188.55,79.25c-0.666-8.833-1.85-15.333-3.55-19.5
			c-4.6-11.267-11.184-19.5-19.75-24.7c-8.934-5.4-19.017-6.833-30.25-4.3c-9.567,2.133-17.1,16.017-22.6,41.65
			c-1.667,7.667-3.367,17.65-5.1,29.95c-1.7,12.067-2.8,19.2-3.3,21.4c-2.7,12.1-7.95,21.483-15.75,28.15
			c-10.867,9.233-25.617,11.85-44.25,7.85c-17.5-3.733-30.083-14.684-37.75-32.85c-2.4-5.7-4.167-11.767-5.3-18.2L0,100.75l3.75,6.7
			c3.267,5.3,6.817,9.983,10.65,14.05c12.167,13,24.7,17.417,37.6,13.25c7.033-2.267,12.333-8.4,15.9-18.4
			c2.533-7.166,4.633-18.183,6.3-33.05c2.3-20.8,3.783-33.066,4.45-36.8C80.983,33.167,84.433,23.25,89,16.75
			C99.833,1.35,111.583-3.433,124.25,2.4c6.333,2.9,11.583,7.35,15.75,13.35l3.65-3.8c3.233-2.833,6.817-4.983,10.75-6.45
			c12.5-4.667,26.033-1.583,40.6,9.25c5.267,3.9,9.2,10.917,11.8,21.05c1.5,5.767,3.084,15.784,4.75,30.05
			c1.566,13.533,3.217,23.2,4.95,29c2.767,9.267,6.934,15.233,12.5,17.9c10.434,5,24.566,1.167,42.4-11.5
			c8.899-6.333,16.767-13.167,23.6-20.5c-5,11.833-11.783,23.083-20.35,33.75c-17.167,21.333-34.717,29.083-52.65,23.25
			c-9.934-3.233-17.483-8.233-22.65-15c-4.166-5.434-7.033-12.434-8.6-21C190.116,98.283,189.384,90.783,188.55,79.25z"/>
		<g>
			<g>
				<path style="fill-rule:evenodd;clip-rule:evenodd;fill:#586160;" d="M6.25,126.9c-2.4-5.7-4.167-11.767-5.3-18.2L0,100.75
					l2.1,6.95c1.9,5.6,4.167,10.866,6.8,15.8c8.367,15.767,18.7,25.1,31,28c14.3,3.4,26.6,3.733,36.9,1
					c9.633-2.566,17.167-7.733,22.6-15.5l0.2-0.3c-4.3,9.1-10.4,15.733-18.3,19.899c-10,5.301-22.433,6.351-37.3,3.15
					C26.5,156.017,13.917,145.066,6.25,126.9z"/>
				<path style="fill-rule:evenodd;clip-rule:evenodd;fill:#586160;" d="M116.4,0.15l0.5,0.35c-1.066-0.067-2.55,0.517-4.45,1.75
					c-3.733,2.5-7.583,7.083-11.55,13.75c-2.033,3.467-3.767,10.1-5.2,19.9c-0.2,1.3-1.367,11.3-3.5,30
					c-1.5,13.167-3.117,23.583-4.85,31.25C84.883,107.85,81.733,115.8,77.9,121c-6.533,8.866-13.783,14.134-21.75,15.8
					c-4.533,0.967-8.633,0.767-12.3-0.6c2.767-0.101,5.483-0.584,8.15-1.45c7.033-2.267,12.333-8.4,15.9-18.4
					c2.533-7.166,4.633-18.183,6.3-33.05c2.3-20.8,3.783-33.066,4.45-36.8C80.983,33.167,84.433,23.25,89,16.75
					C97.5,4.65,106.633-0.883,116.4,0.15z"/>
				<path style="fill-rule:evenodd;clip-rule:evenodd;fill:#586160;" d="M188.55,79.25c-0.666-8.833-1.85-15.333-3.55-19.5
					c-3.8-9.267-8.983-16.517-15.55-21.75c-6.767-5.367-14.483-8.167-23.15-8.4c-0.233-0.1,0.217-0.5,1.351-1.2
					c1.3-0.8,2.85-1.5,4.649-2.1c5.233-1.7,10.334-1.75,15.3-0.15C183.3,31.283,193.066,51.567,196.9,87
					c1.633,15.134,5.899,26.3,12.8,33.5c6.866,7.167,16.434,10.5,28.7,10c7.8-0.3,15.383-2.434,22.75-6.4
					c5-2.699,9.616-6.05,13.85-10.05c-7.533,9.467-15.267,16.316-23.2,20.55c-9.934,5.334-19.866,6.384-29.8,3.15
					s-17.483-8.233-22.65-15c-4.166-5.434-7.033-12.434-8.6-21C190.116,98.283,189.384,90.783,188.55,79.25z"/>
			</g>
			<path style="fill-rule:evenodd;clip-rule:evenodd;fill:#586160;" d="M126.8,24.35c2.389-0.917,4.613-1.533,6.675-1.85
				c-1.117,0.218-2.409,0.651-3.875,1.3c-4.067,1.833-7.7,4.9-10.9,9.2c-3.2,4.3-6.983,12.15-11.35,23.55
				c-2.2,5.7-4.083,10.967-5.65,15.8c-0.167-2.067-0.3-4.7-0.4-7.9c-0.233-6.367-0.2-12.4,0.1-18.1
				c0.267-5.7,2.017-11.967,5.25-18.8c1.6-3.4,3.184-6.25,4.75-8.55c-3.733,9.6-5.8,18.433-6.2,26.5c-0.2,4.033-0.034,7.1,0.5,9.2
				c0.566-1.6,1.367-3.667,2.4-6.2c2.033-5,4.233-9.717,6.6-14.15C117.067,29.917,121.1,26.583,126.8,24.35z"/>
			<path style="fill-rule:evenodd;clip-rule:evenodd;fill:#586160;" d="M174.05,18.7c5,3.333,10.617,9.283,16.851,17.85
				c3.1,4.267,5.699,8.2,7.8,11.8c0-4.233-0.434-8.684-1.3-13.35c-0.567-2.9-2.517-7.717-5.851-14.45l-4.85-9.2l4.05,5.15
				c3.066,4.567,5.5,9.633,7.3,15.2c1.8,5.566,3.066,14.9,3.8,28c0.367,6.566,0.551,12.566,0.551,18
				c-1.567-5.333-3.784-13.784-6.65-25.35c-1.8-7.233-5.967-15.017-12.5-23.35L174.05,18.7z"/>
			<path style="fill-rule:evenodd;clip-rule:evenodd;fill:#586160;" d="M94.8,96.85L96.4,81.7L95.7,110l8.7-17.65l-2.65,8.551
				c-2.233,6.5-4.467,11.767-6.7,15.8c-2.233,4.033-6.35,8.017-12.35,11.95c-2.967,1.966-5.733,3.533-8.3,4.699
				c1.667-1,3.55-2.366,5.65-4.1c4.167-3.467,7.284-7.017,9.35-10.65C91.5,114.967,93.3,107.717,94.8,96.85z"/>
			<polygon style="fill-rule:evenodd;clip-rule:evenodd;fill:#586160;" points="109.4,67.35 112.4,67.35 103.7,85 			"/>
			<path style="fill-rule:evenodd;clip-rule:evenodd;fill:#586160;" d="M97.05,59.35l1.35,1.35l-5,19.65
				c0.5-3.233,1.033-6.533,1.6-9.9C96.1,63.75,96.783,60.05,97.05,59.35z"/>
			<path style="fill-rule:evenodd;clip-rule:evenodd;fill:#586160;" d="M233.65,126.9l-4.5-1.15l4.899,0.1
				c3.733,0.034,6.851-0.017,9.351-0.149c2.866-0.167,5.716-1.483,8.55-3.95c1.1-0.967,1.666-1.733,1.7-2.3
				c0.066-0.601-0.584-0.75-1.95-0.45c-2.367,0.566-7.351,0.35-14.95-0.65l-10.7-1.649l6.851,0.85
				c5.966,0.4,12.35,0.117,19.149-0.85s13.95-4.934,21.45-11.9c3.767-3.467,6.833-6.833,9.2-10.1c-0.7,1.434-1.667,3.133-2.9,5.1
				c-2.434,3.967-4.899,7.267-7.399,9.9c-4.167,4.399-7.801,7.75-10.9,10.05c-4.9,3.634-9.85,5.884-14.85,6.75
				C241.917,127.333,237.583,127.467,233.65,126.9z"/>
			<path style="fill-rule:evenodd;clip-rule:evenodd;fill:#586160;" d="M207.45,98.5l-0.25-8.45c1,6.867,2.833,14.15,5.5,21.851
				c1.3,3.866,2.517,7.05,3.649,9.55c-0.866-0.733-1.833-1.7-2.899-2.9c-2.101-2.399-3.55-4.816-4.351-7.25
				C208.3,108.9,207.75,104.634,207.45,98.5z"/>
			<path style="fill-rule:evenodd;clip-rule:evenodd;fill:#4D5554;" d="M99.4,11c-5.133,12.467-8.7,22.367-10.7,29.7
				c-1.1,4-2.067,12.966-2.9,26.9c-0.933,15.2-1.733,24.667-2.4,28.4c-0.967,5.434-3.816,11.283-8.55,17.55
				c-2.367,3.134-4.633,5.733-6.8,7.8c2.667-4.233,5.117-9.233,7.35-15c1.233-3.233,2.533-12.566,3.9-28c1.6-18.1,2.733-29.1,3.4-33
				c1.1-6.4,4.216-14.05,9.35-22.95C94.617,17.967,97.067,14.167,99.4,11z"/>
			<path style="fill-rule:evenodd;clip-rule:evenodd;fill:#4D5554;" d="M164.4,30.25c6,1.033,10.666,3.283,14,6.75
				c3.333,3.467,6.216,9.133,8.649,17c0.841,2.66,1.517,5.168,2.025,7.525c-0.249-0.973-0.574-2.031-0.976-3.175
				c-1.833-5.1-4.633-9.883-8.399-14.35c-3.733-4.433-8.733-8.15-15-11.15l-8.3-3.15L164.4,30.25z"/>
			<path style="fill-rule:evenodd;clip-rule:evenodd;fill:#586160;" d="M164.45,7.15c1.133-0.033,2,0.033,2.6,0.2l-10.649,5
				l3.399-0.6c2.767-0.333,5.4-0.35,7.9-0.05c2.5,0.267,5.033,1.233,7.6,2.9c1.3,0.833,2.334,1.633,3.101,2.4
				c-1.934-0.833-4.117-1.617-6.551-2.35c-4.833-1.5-8.433-2.05-10.8-1.65c-2.366,0.433-5.8,1.567-10.3,3.4L144.7,19l3.55-4.15
				c2.934-3,5.866-5.05,8.8-6.15C159.684,7.733,162.15,7.217,164.45,7.15z"/>
			<path style="fill-rule:evenodd;clip-rule:evenodd;fill:#586160;" d="M78.4,142.35c-0.767,1.067-2.417,2.101-4.95,3.101
				c-5,2-11.8,2.866-20.4,2.6c-8.6-0.3-16.183-2.666-22.75-7.1c-2.033-1.4-3.85-2.917-5.45-4.55l-1.8-2.051l6.3,3.801
				c5.4,2.833,11.083,5.017,17.05,6.55c5.233,1.333,12.133,1.35,20.7,0.05C71.4,144.083,75.167,143.283,78.4,142.35z"/>
		</g>
	</g>
	<path style="fill-rule:evenodd;clip-rule:evenodd;fill:#4D5554;" d="M20.1,143.25c7.833,7.667,17.367,11.917,28.6,12.75
		c11.267,0.833,20.983,0.417,29.15-1.25c4.066-0.833,7.017-1.75,8.85-2.75c-1.7,1.733-4.467,3.316-8.3,4.75
		c-7.667,2.9-16.783,3.65-27.35,2.25c-10.5-1.366-18.433-3.717-23.8-7.05c-6.433-4-11.617-10.65-15.55-19.95l2,3.45
		C15.5,138.25,17.633,140.85,20.1,143.25z"/>
	<path style="fill-rule:evenodd;clip-rule:evenodd;fill:#4D5554;" d="M192.7,73.7l0.8,9c0.934,7.233,2.366,13.883,4.3,19.95
		c6.101,19.399,15.967,29.3,29.601,29.699c13.6,0.434,23.399-0.383,29.399-2.449c0.864-0.298,1.614-0.598,2.25-0.9
		c-2.089,1.627-4.539,3.16-7.35,4.6c-8.233,4.167-16.233,5.2-24,3.101c-9.5-2.533-16.334-5.334-20.5-8.4
		c-4.367-3.233-7.634-8.017-9.8-14.35c-1.801-5.4-3.134-13.733-4-25L192.7,73.7z M259.05,129c0.96-0.747,1.843-1.514,2.65-2.3
		C261.51,127.483,260.627,128.25,259.05,129z"/>
</g>
</svg>
