<?xml version="1.0" encoding="iso-8859-1"?>
<!-- Generator: Adobe Illustrator 15.1.0, SVG Export Plug-In . SVG Version: 6.00 Build 0)  -->
<!DOCTYPE svg PUBLIC "-//W3C//DTD SVG 1.1//EN" "http://www.w3.org/Graphics/SVG/1.1/DTD/svg11.dtd">
<svg version="1.1" id="mountains" xmlns="http://www.w3.org/2000/svg" xmlns:xlink="http://www.w3.org/1999/xlink" x="0px" y="0px"
	 width="378px" height="473.3px" viewBox="0 0 378 473.3" style="enable-background:new 0 0 378 473.3;" xml:space="preserve">
<g>
	<path style="fill-rule:evenodd;clip-rule:evenodd;fill:#7EA497;" d="M186,0l-23,21.35c-0.733,3.733-1.817,7.633-3.25,11.7
		C156.85,41.217,153.6,46.2,150,48c-3.2,1.6-8.967,2.25-17.3,1.95c-4.967-0.167-10.284-0.633-15.95-1.4L106,68.3l40,54l-2,58l104-4
		c-3.233,2.333-7.116,5.667-11.65,10c-9.033,8.667-16.733,18-23.1,28c-20.333,32-23.417,64.667-9.25,98
		c14.167,33.334,47.417,70.167,99.75,110.5c26.167,20.167,50.917,37,74.25,50.5H0c13.333-8.833,27.5-18.916,42.5-30.25
		c30-22.666,49.167-40.25,57.5-52.75s7.833-34.916-1.5-67.25c-2.9-10.1-6.517-20.583-10.85-31.45L82,278.3
		c4-10.333,7.917-23.416,11.75-39.25c7.667-31.667,11.083-61.25,10.25-88.75c-0.667-21.633-6.867-43.716-18.6-66.25l-6.75,11.6
		c-1.833,1.733-3.983,3.667-6.45,5.8c-4.934,4.3-9,7.483-12.2,9.55c-3.2,2.1-6.883,7.733-11.05,16.9
		c-2.1,4.567-3.867,8.934-5.3,13.1c4.434-16.667,7.217-26.117,8.35-28.35c0.8-1.6,3.35-5.167,7.65-10.7
		c4.133-5.3,7.684-9.617,10.65-12.95c2.733-3.067,5.133-9.35,7.2-18.85c-3.867-6.2-8-12.2-12.4-18
		c-5.4,10.434-9.883,16.833-13.45,19.2c-4.467,2.867-9.683,5.867-15.65,9L22.3,108l-6,20.65l-0.3-15.3L26.65,79
		c2.067-0.667,4.383-1.833,6.95-3.5c5.167-3.333,9.066-7.5,11.7-12.5s3.883-11.617,3.75-19.85L48,32.3l82-8l-6.9,12.65l0.9-1.3
		l8.5,1.45c6.2,0.867,10.7,0.95,13.5,0.25c2.767-0.7,5.65-4.133,8.65-10.3c1.5-3.1,2.717-6.117,3.65-9.05L186,0z"/>
	<g>
		<path style="fill-rule:evenodd;clip-rule:evenodd;fill:#649180;" d="M91.4,73.6L86,62.35l-3.75,13.1C79.25,84.65,76.5,90.5,74,93
			l-18,18l-4.95,12.5c-2.833,5.567-5.3,11.4-7.4,17.5c4.434-16.667,7.217-26.117,8.35-28.35c0.8-1.6,3.35-5.167,7.65-10.7
			c4.133-5.3,7.684-9.617,10.65-12.95c2.733-3.067,5.133-9.35,7.2-18.85c-3.867-6.2-8-12.2-12.4-18
			c-5.4,10.434-9.883,16.833-13.45,19.2c-4.467,2.867-9.683,5.867-15.65,9L22.3,108l-6,20.65l-0.3-15.3L26.65,79
			c2.067-0.667,4.383-1.833,6.95-3.5c5.167-3.333,9.066-7.5,11.7-12.5s3.883-11.617,3.75-19.85L48,32.3l82-8L82,35.65l16,36l22,78
			l13.3-26l-2,97.35l52.7-20.65l-33.35,85.3L179.3,265l-2,102.65l22-6l-1.6,4.699c-1.167,3.9-1.934,7.834-2.3,11.801
			c-1.233,12.666,1.633,23.166,8.6,31.5c5.967,7.166,22.5,18.433,49.6,33.8c16.967,9.6,35.75,19.55,56.351,29.85h-112.8
			c-10-9.366-17.717-19.467-23.15-30.3c-4.733-9.434-5.817-21.366-3.25-35.8c0.8-4.533,1.917-9.033,3.35-13.5l1.9-5.351
			l-48.7,21.301l34-94.65l-38.65,49.35l-10-86.699L132,287l5.3-48l10,12.65L164.65,219l-50,16L128,151l-16.7,16.65
			c-0.667-7.767-1.583-16.4-2.75-25.9c-2.333-19-4.75-32.8-7.25-41.4C98.8,91.717,95.5,82.8,91.4,73.6z"/>
		<path style="fill-rule:evenodd;clip-rule:evenodd;fill:#577D6F;" d="M82.25,75.45L86,62.35l5.4,11.25
			c4.1,9.2,7.4,18.117,9.9,26.75c2.5,8.6,4.917,22.4,7.25,41.4c1.167,9.5,2.083,18.133,2.75,25.9L128,151l-13.35,84l50-16
			l-17.35,32.65l-10-12.65l-5.3,48l-19.35-9.35l10,86.699L161.3,315l-34,94.65L176,388.35l-1.9,5.351
			c-1.434,4.467-2.55,8.967-3.35,13.5c-2.567,14.434-1.483,26.366,3.25,35.8c5.433,10.833,13.15,20.934,23.15,30.3H0
			c13.333-8.833,27.5-18.916,42.5-30.25c30-22.666,49.167-40.25,57.5-52.75s7.833-34.916-1.5-67.25
			c-2.9-10.1-6.517-20.583-10.85-31.45L82,278.3c4-10.333,7.917-23.416,11.75-39.25c7.667-31.667,11.083-61.25,10.25-88.75
			c-0.667-21.633-6.867-43.716-18.6-66.25l-6.75,11.6c-1.833,1.733-3.983,3.667-6.45,5.8c-4.934,4.3-9,7.483-12.2,9.55
			c-2.7,1.733-5.683,5.9-8.95,12.5L56,111l18-18C76.5,90.5,79.25,84.65,82.25,75.45z"/>
	</g>
	<path style="fill-rule:evenodd;clip-rule:evenodd;fill:#649180;" d="M118.3,106.45c5.4,14.066,6.633,22.133,3.7,24.2
		c-2.9,2.1-5.883-4.717-8.95-20.45L109.3,86L118.3,106.45z"/>
	<path style="fill-rule:evenodd;clip-rule:evenodd;fill:#649180;" d="M193.3,203.3l-1.8,9.05c-1.6,7.267-3.267,13.933-5,20
		c-5.667,19.5-11.283,29.6-16.85,30.3c-5.566,0.699-3.3-8.983,6.8-29.05c3.167-6.3,6.933-13.233,11.3-20.8L193.3,203.3z"/>
	<path style="fill-rule:evenodd;clip-rule:evenodd;fill:#649180;" d="M214.4,393.5c-3-5.934-4.267-10.95-3.801-15.05
		c0.5-4.434,2.967-7.033,7.4-7.8c10.967-1.934,25.967,7.716,45,28.949c9.533,10.601,17.967,21.4,25.3,32.4
		c-4.434-5.167-9.233-10.033-14.399-14.6C263.566,408.3,256.6,405.267,253,408.3c-3.634,3.066,4.717,12.767,25.05,29.101
		c10.167,8.166,20.7,16.033,31.601,23.6c-6.101-3.667-13.367-7.934-21.801-12.8c-16.833-9.733-31.017-17.584-42.55-23.55
		c-6.633-3.434-12.8-8.117-18.5-14.051C221.5,405.134,217.366,399.434,214.4,393.5z"/>
	<path style="fill-rule:evenodd;clip-rule:evenodd;fill:#649180;" d="M190.5,303.8l1.75,8.101c1.267,6.5,2.2,12.449,2.8,17.85
		c1.934,17.233,0.084,25.75-5.55,25.55c-5.633-0.2-7.15-8.85-4.55-25.95c0.8-5.3,1.966-11.149,3.5-17.55L190.5,303.8z"/>
	<polygon style="fill-rule:evenodd;clip-rule:evenodd;fill:#649180;" points="165.5,183.8 228.5,182.8 168.5,189.3 137.5,212.3 
		137,193.3 152,192.3 	"/>
	<polygon style="fill-rule:evenodd;clip-rule:evenodd;fill:#93BCAF;" points="235,180.35 175,181 244,177.35 229.65,190 	"/>
	<path style="fill-rule:evenodd;clip-rule:evenodd;fill:#93BCAF;" d="M198.5,198.7c0.866,3.367,1.533,6.783,2,10.25
		c1.434,11.066,0.483,20.417-2.85,28.05c-3.334,7.634-7.434,13.583-12.3,17.85c-2.467,2.167-4.583,3.551-6.35,4.15
		c2.067-3.233,4.25-7.116,6.55-11.65c4.667-9.033,7.7-16.816,9.101-23.35c1.399-6.533,2.267-13.383,2.6-20.55l0.05-8.8L198.5,198.7z
		"/>
	<path style="fill-rule:evenodd;clip-rule:evenodd;fill:#93BCAF;" d="M209,359.35l1.25-0.6c1.066-0.4,2.283-0.667,3.65-0.8
		c4.333-0.367,9.133,0.767,14.399,3.399c5.3,2.634,10.217,6.301,14.75,11c2.3,2.367,4.05,4.467,5.25,6.301
		c-2.666-2.167-5.783-4.367-9.35-6.601c-7.101-4.434-12.867-6.783-17.3-7.05c-5.301-0.333-8.95-0.95-10.95-1.85
		C208.7,362.283,208.134,361.017,209,359.35z"/>
	<path style="fill-rule:evenodd;clip-rule:evenodd;fill:#93BCAF;" d="M199.65,340c0.699-6.8-1.367-19.184-6.2-37.15L186,278
		l10.6,26.6c7.067,18.767,10.534,30.784,10.4,36.051c-0.134,5.3-2.3,10.05-6.5,14.25c-2.066,2.133-4.134,3.716-6.2,4.75
		c0.634-0.534,1.316-1.767,2.05-3.7C197.85,352.116,198.95,346.8,199.65,340z"/>
	<path style="fill-rule:evenodd;clip-rule:evenodd;fill:#93BCAF;" d="M303.25,433.95l-9.6-10.95l63,42
		c-6.667-2.9-11.784-4.684-15.351-5.35c-2.2-0.4-2.916,0.933-2.149,4c0.399,1.533,1.017,3.1,1.85,4.699
		c-7.134-5.133-14.033-10.699-20.7-16.699C316.134,447.917,310.45,442.017,303.25,433.95z"/>
	<polygon style="fill-rule:evenodd;clip-rule:evenodd;fill:#93BCAF;" points="143.65,125 137.3,180.35 138,124.35 105.65,75 	"/>
	<polygon style="fill-rule:evenodd;clip-rule:evenodd;fill:#93BCAF;" points="120,33.35 98,36 123.3,27.65 	"/>
	<g>
		<path style="fill-rule:evenodd;clip-rule:evenodd;fill:#577D6F;" d="M58.35,48.45l1.3-9.15L68.3,38l11,14.3l-1.8,17.85
			c-3.867-6.2-8-12.2-12.4-18c-5.4,10.434-9.883,16.833-13.45,19.2c-4.467,2.867-9.683,5.867-15.65,9L22.3,108l-6,20.65v-0.8
			L18.65,112L30,81c2.167-1.267,4.667-2.917,7.5-4.95c5.667-4.066,10.167-7.983,13.5-11.75C54.333,60.567,56.783,55.283,58.35,48.45
			z"/>
		<path style="fill-rule:evenodd;clip-rule:evenodd;fill:#577D6F;" d="M186,0l-23,21.35c-0.733,3.733-1.817,7.633-3.25,11.7
			C156.85,41.217,153.6,46.2,150,48c-3.2,1.6-8.967,2.25-17.3,1.95c-4.967-0.167-10.284-0.633-15.95-1.4L109.3,42l6-1.7l15.4,1.7
			c10.9,0.767,17.883,0.317,20.95-1.35c3.033-1.667,5.383-5.717,7.05-12.15c0.833-3.233,1.367-6.3,1.6-9.2L186,0z"/>
	</g>
</g>
</svg>
