<?xml version="1.0" encoding="iso-8859-1"?>
<!-- Generator: Adobe Illustrator 15.1.0, SVG Export Plug-In . SVG Version: 6.00 Build 0)  -->
<!DOCTYPE svg PUBLIC "-//W3C//DTD SVG 1.1//EN" "http://www.w3.org/Graphics/SVG/1.1/DTD/svg11.dtd">
<svg version="1.1" id="Isolation_Mode" xmlns="http://www.w3.org/2000/svg" xmlns:xlink="http://www.w3.org/1999/xlink" x="0px"
	 y="0px" width="71.8px" height="60px" viewBox="0 0 71.8 60" style="enable-background:new 0 0 71.8 60;" xml:space="preserve">
<g>
	<path style="fill-rule:evenodd;clip-rule:evenodd;fill:#386F5F;" d="M44.25,15.2c-14.733-2.833-22.733-2.8-24,0.1
		C19.017,18.233,17,26.467,14.2,40c-1.4,6.767-2.684,13.25-3.85,19.45c-1,0.399-2.2,0.583-3.6,0.55C4.017,60,1.767,58.983,0,56.95
		C0.533,49.217,1.617,41.2,3.25,32.9C6.517,16.267,10.967,6.483,16.6,3.55c5.633-2.9,16-4.033,31.1-3.4
		C55.267,0.483,62.267,1.1,68.7,2c-0.733,0.8-1.45,1.783-2.15,2.95c-1.399,2.367-2,4.483-1.8,6.35c0.333,3,0.75,6,1.25,9
		C58.866,18.3,51.616,16.6,44.25,15.2z"/>
	<g>
		<path style="fill-rule:evenodd;clip-rule:evenodd;fill:#315E51;" d="M24.05,1.4c-0.933,0.033-2.117,0.533-3.55,1.5
			c-2.8,1.9-5.383,5.133-7.75,9.7c-2.2,4.267-4.367,12.633-6.5,25.1c-1.267,7.333-2.3,14.533-3.1,21.6C1.85,58.7,0.8,57.917,0,56.95
			C0.533,49.217,1.617,41.2,3.25,32.9C6.517,16.267,10.967,6.483,16.6,3.55c1.667-0.867,3.933-1.6,6.8-2.2L24.05,1.4z"/>
		<path style="fill-rule:evenodd;clip-rule:evenodd;fill:#315E51;" d="M42.35,10.1c7.434,0.367,14.9,0.867,22.4,1.5
			c0.333,2.933,0.75,5.833,1.25,8.7c-7.134-2-14.384-3.7-21.75-5.1c-14.733-2.833-22.733-2.8-24,0.1l-0.75,2.05
			c-0.267-0.8-0.167-1.85,0.3-3.15c0.633-1.767,1.784-3.034,3.45-3.8C24.85,9.667,31.217,9.567,42.35,10.1z"/>
	</g>
	<path style="fill-rule:evenodd;clip-rule:evenodd;fill:#538171;" d="M68.75,1.95c1.2,0.233,2.05,1.417,2.55,3.55
		c0.5,1.933,0.617,4.15,0.351,6.65c-0.301,2.567-0.917,4.617-1.851,6.15c-1.033,1.733-2.3,2.4-3.8,2
		c-3.033-0.833-3.934-4.216-2.7-10.15c0.467-2.367,1.2-4.35,2.2-5.95C66.6,2.5,67.684,1.75,68.75,1.95z"/>
	
		<linearGradient id="SVGID_1_" gradientUnits="userSpaceOnUse" x1="-71.875" y1="-6.3506" x2="-64.7574" y2="-6.3506" gradientTransform="matrix(-0.9975 -0.0702 0.0702 -0.9975 4.568696e-005 -3.011376e-004)">
		<stop  offset="0" style="stop-color:#893342"/>
		<stop  offset="1" style="stop-color:#2D1D1E"/>
	</linearGradient>
	<path style="fill-rule:evenodd;clip-rule:evenodd;fill:url(#SVGID_1_);" d="M69,3.3c1.733,0.534,2.316,3.45,1.75,8.75
		c-0.566,5.3-1.95,7.6-4.15,6.9c-2.199-0.7-2.8-3.617-1.8-8.75S67.2,2.767,69,3.3z"/>
	<path style="fill-rule:evenodd;clip-rule:evenodd;fill:#294B40;" d="M61.25,13.4c0,1.233,0.384,2.684,1.15,4.35
		c-8.567-1.9-14.851-3.35-18.851-4.35C41.05,12.767,37,12.3,31.4,12l-7.65-0.25l5.35-0.7c4.133-0.4,7.516-0.5,10.15-0.3
		C43.45,11.083,50.783,11.967,61.25,13.4z"/>
	<path style="fill-rule:evenodd;clip-rule:evenodd;fill:#294B40;" d="M6.9,21.1c1.4-5.7,3.717-10.383,6.95-14.05
		c1.6-1.833,3.066-3.1,4.4-3.8l-3.7,4.5c-1.1,1.367-2.417,3.95-3.95,7.75c-1.7,4.133-2.817,7.767-3.35,10.9
		c-0.8,4.466-2.367,15.034-4.7,31.7c-0.867,0-1.533-0.616-2-1.85C2.55,41.917,4.667,30.2,6.9,21.1z"/>
	<path style="fill-rule:evenodd;clip-rule:evenodd;fill:#538171;" d="M65.55,2.25c-0.733,0.267-1.483,0.867-2.25,1.8L62.4,5.4
		c-9.233-1.867-15.733-2.867-19.5-3c-2.367-0.066-6.017-0.083-10.95-0.05l-6.7,0.05l7.15-0.75c5.167-0.5,8.784-0.75,10.85-0.75
		C46.583,0.9,54.017,1.35,65.55,2.25z"/>
</g>
</svg>
