<?xml version="1.0" encoding="iso-8859-1"?>
<!-- Generator: Adobe Illustrator 15.1.0, SVG Export Plug-In . SVG Version: 6.00 Build 0)  -->
<!DOCTYPE svg PUBLIC "-//W3C//DTD SVG 1.1//EN" "http://www.w3.org/Graphics/SVG/1.1/DTD/svg11.dtd">
<svg version="1.1" id="buildings" xmlns="http://www.w3.org/2000/svg" xmlns:xlink="http://www.w3.org/1999/xlink" x="0px" y="0px"
	 width="135.35px" height="38.55px" viewBox="0 0 135.35 38.55" style="enable-background:new 0 0 135.35 38.55;"
	 xml:space="preserve">
<g>
	<path style="fill-rule:evenodd;clip-rule:evenodd;fill:#FBF5E7;" d="M134.2,12.45l-14.5,15.2c-3,1.199-7.084,2.366-12.25,3.5
		c-10.3,2.3-20.884,3.35-31.75,3.149c-18.333-0.366-35.883-3.25-52.65-8.649c-8.4-2.7-14.966-5.367-19.7-8L33,0
		c6.167,1.833,13.3,3.75,21.4,5.75c16.234,4,29.216,6.417,38.95,7.25s19.467,1,29.2,0.5C127.417,13.233,131.3,12.883,134.2,12.45z"
		/>
	<path style="fill-rule:evenodd;clip-rule:evenodd;fill:#F1DFAB;" d="M119.7,27.45l1,3.55c-2.667,1.767-7.167,3.384-13.5,4.85
		c-12.667,2.867-28.167,3.467-46.5,1.801c-18.333-1.667-33.95-4.5-46.85-8.5c-6.434-2-11.05-3.834-13.85-5.5l3.35-6
		c3.1,1.5,8.017,3.167,14.75,5c13.533,3.633,29.483,6.233,47.85,7.8C82.783,31.917,96.8,31.866,108,30.3
		C113.566,29.5,117.467,28.55,119.7,27.45z"/>
	<polygon style="fill-rule:evenodd;clip-rule:evenodd;fill:#B6BA9B;" points="135.35,16.3 120.7,31 119.7,27.45 134.2,12.45 	"/>
</g>
</svg>
