<?xml version="1.0" encoding="iso-8859-1"?>
<!-- Generator: Adobe Illustrator 15.1.0, SVG Export Plug-In . SVG Version: 6.00 Build 0)  -->
<!DOCTYPE svg PUBLIC "-//W3C//DTD SVG 1.1//EN" "http://www.w3.org/Graphics/SVG/1.1/DTD/svg11.dtd">
<svg version="1.1" id="buildings" xmlns="http://www.w3.org/2000/svg" xmlns:xlink="http://www.w3.org/1999/xlink" x="0px" y="0px"
	 width="417.05px" height="117.9px" viewBox="0 0 417.05 117.9" style="enable-background:new 0 0 417.05 117.9;"
	 xml:space="preserve">
<g>
	<path style="fill-rule:evenodd;clip-rule:evenodd;fill:#BFD7AE;" d="M144.45,47.4c-1.3,4.567-2.784,8.767-4.45,12.6l-30.65,10
		l2.8-1.65c2.3-1.466,4.533-3.116,6.7-4.949c6.967-5.8,12.017-12.267,15.15-19.4c3.067-6.933,1.65-12.683-4.25-17.25
		c-1.833-1.433-4.017-2.65-6.55-3.65L120,22l1.35-8l3,0.2c2.467,0.3,4.833,0.816,7.1,1.55c7.2,2.333,12.05,6.417,14.55,12.25
		C147.633,31.767,147.117,38.233,144.45,47.4z"/>
	<path style="fill-rule:evenodd;clip-rule:evenodd;fill:#BFD7AE;" d="M405,49.6c7.167,1.833,11.15,8.417,11.95,19.75
		c0.3,4.567,0,9.233-0.9,14c-0.899,4.601-2.184,8.367-3.85,11.301c-3.867,6.833-8.5,12.533-13.9,17.1c-6.467,5.5-12,7.3-16.6,5.4
		c-3.733-1.534-7.95-3.717-12.65-6.551c-5.267-3.3-9.333-5.767-12.2-7.399c-10.566-6.066-22.116-10.084-34.649-12.05
		c-7.3-1.134-15.45-1.334-24.45-0.601c-5.5,0.434-13.8,1.55-24.9,3.351c-11.5,1.833-20.233,3.033-26.199,3.6
		c-10.134,0.934-19.617,0.983-28.45,0.15c-23.1-2.134-40.7-3.384-52.8-3.75c-13.767-0.4-23.667,0.183-29.7,1.75
		c-7.467,1.966-19.284,3.399-35.45,4.3c-18.4,1-33.7,0.583-45.9-1.25c-11.1-1.667-21.983-7.167-32.65-16.5
		c-3.367-2.934-6.483-6.05-9.35-9.351L9,68.7l2.7-15.35l2.8,4c2.467,3.266,5.217,6.317,8.25,9.15
		c9.733,9.033,20.533,14.283,32.4,15.75l19.3-23.2l1.05,0.75c0.967,0.601,2.167,1.134,3.6,1.601c4.6,1.533,10.683,2.183,18.25,1.949
		c14.233-0.466,26.483-1.066,36.75-1.8l0.25-0.2c2.3-2.3,5.917-3.5,10.85-3.6c1.2,0,5.117,0.317,11.75,0.95
		c15.533,1.434,24.966,2.267,28.3,2.5c10.667,0.7,20.117,0.8,28.35,0.3c12.434-0.733,23.417-2.1,32.95-4.1
		c5.7-1.167,15.45-3.316,29.25-6.45c12.4-2.833,22.134-4.95,29.2-6.35C335.634,38.567,368.967,40.233,405,49.6z"/>
	<path style="fill-rule:evenodd;clip-rule:evenodd;fill:#A8CA92;" d="M411.75,92.85c-3.066,7.4-7.417,11.834-13.05,13.301
		c-10.601,2.767-23.101-0.4-37.5-9.5c-5.101-3.233-12.25-6.233-21.45-9c-9.934-3-18.45-4.5-25.55-4.5
		c-6.167,0-15.017,0.716-26.55,2.149c-14.467,1.9-25.95,3.351-34.45,4.351c-16.4,1.933-38.816,1.683-67.25-0.75
		c-8.867-0.767-17.833-1.7-26.9-2.801L148.2,84.65l29.25,0.949c22.5,0.4,41.25,0.084,56.25-0.949c6.166-0.434,23.149-2.434,50.95-6
		c18.366-2.367,31.716-2.867,40.05-1.5c4.566,0.733,10.533,2.517,17.899,5.35c4.267,1.667,10.767,4.316,19.5,7.95
		c15.9,6.399,26.601,8.467,32.101,6.2c1.3-0.534,2.616-3.2,3.95-8l1.55-7l1.399,5c1.334,3.333,3.034,5,5.101,5
		c2.1,0,4.149-1.584,6.149-4.75c1-1.567,1.784-3.15,2.351-4.75L414.1,85.4C413.5,88.033,412.717,90.517,411.75,92.85z"/>
	<path style="fill-rule:evenodd;clip-rule:evenodd;fill:#BFD7AE;" d="M40.8,11.45c-1.233,8.767-0.6,16.066,1.9,21.9
		c2.5,5.833,7.583,13.583,15.25,23.25c3.833,4.833,7.417,9.083,10.75,12.75l-10,12c-2.9-5-6.034-10.633-9.4-16.899
		C42.5,51.883,37.85,42.4,35.35,36S31.1,23.45,30.1,17.55c-0.5-2.933-0.75-5.233-0.75-6.9L43.35,0C42.25,3.233,41.4,7.05,40.8,11.45
		z"/>
	<path style="fill-rule:evenodd;clip-rule:evenodd;fill:#BFD7AE;" d="M92.75,2.55l-3.8,10.75c-4.667,1-9.217,2.6-13.65,4.8
		c-8.833,4.367-12.65,9.533-11.45,15.5c1.2,5.967,3.333,12.033,6.4,18.2c1.533,3.1,2.933,5.583,4.2,7.45l-6.75,10.9
		c-3.034-4.134-5.883-9.051-8.55-14.75c-5.333-11.367-7.117-20.983-5.35-28.85c1.8-7.867,8.833-14.216,21.1-19.05
		C81.033,5.067,86.983,3.417,92.75,2.55z"/>
	<path style="fill-rule:evenodd;clip-rule:evenodd;fill:#BFD7AE;" d="M8.75,38.8C5.15,32.4,2.233,26.583,0,21.35l10.7-12
		c0.9,3.667,2.233,7.883,4,12.65c3.533,9.567,7.533,17.133,12,22.7c4.433,5.533,11.433,11.867,21,19c4.767,3.566,9.1,6.566,13,9
		L56,86c-1.533-0.866-3.783-2.333-6.75-4.4C43.383,77.5,36.967,72.533,30,66.7C23.067,60.866,15.983,51.567,8.75,38.8z"/>
	<path style="fill-rule:evenodd;clip-rule:evenodd;fill:#DBE7D1;" d="M399.85,56.9l-5.149,2.75c-1-0.5-2.434-1.034-4.3-1.601
		c-3.767-1.167-7.834-1.966-12.2-2.4c-2-0.2-5.733-0.883-11.2-2.05c-8.1-1.733-13.35-2.817-15.75-3.25
		c-14.434-2.767-25.283-3.55-32.55-2.35c-3.566,0.6-10.584,2.2-21.05,4.8c-18.967,4.7-29.101,7.2-30.4,7.5
		c-27.6,6.601-45.9,9.717-54.9,9.351c-10.133-0.4-27.95-0.267-53.45,0.399l-35.2,1.101L142.35,60l27.7,2.5
		c20.067,1.634,34.05,2.35,41.95,2.15c8.333-0.233,15.6-0.851,21.8-1.851c0.167-0.033,7.8-1.517,22.9-4.45
		c6.833-1.333,18.166-3.967,34-7.9c14.967-3.5,27.733-5.65,38.3-6.45c9.866-0.733,25.85,0.733,47.95,4.4
		c11.066,1.833,21.149,3.75,30.25,5.75C405.967,54.15,403.517,55.067,399.85,56.9z"/>
	<path style="fill-rule:evenodd;clip-rule:evenodd;fill:#87AA75;" d="M349.2,97.15c-6.467-2.9-14.4-5.233-23.8-7
		c-11.967-2.233-22.534-2.567-31.7-1c-12.367,2.133-23.483,3.816-33.351,5.05c-13.8,1.7-24.017,2.35-30.649,1.95
		c-7.066-0.4-23.517-1.267-49.35-2.601L143.7,91.65c-3.333,0.8-7.567,1.666-12.7,2.6c-10.233,1.866-19.833,3.167-28.8,3.9
		c-6.333,0.533-13.784,0.666-22.35,0.399c-9.367-0.434-16.083-0.733-20.15-0.899c-12.3-0.4-24.233-5.317-35.8-14.75
		c-3.633-2.934-7-6.15-10.1-9.65l-3.6-4.35l0.5-3.75l2.9,3.199c2.5,2.601,5.133,5.101,7.9,7.5c8.767,7.733,17.167,13,25.2,15.801
		c5.367,1.899,13.15,2.85,23.35,2.85c6.467,0.033,16.017-0.417,28.65-1.35c6.867-0.5,16.466-1.817,28.8-3.95
		c9.933-1.7,16.167-2.384,18.7-2.05c3.8,0.5,16.35,1.383,37.65,2.649c21.4,1.233,34.683,1.851,39.85,1.851
		c9.767,0,17.95-0.15,24.55-0.45c12.167-0.533,21.483-1.55,27.95-3.05c8.033-1.867,15.55-3.034,22.55-3.5
		c8-0.5,16.483-0.167,25.45,1c12.633,1.666,23.149,4.75,31.55,9.25c2.3,1.233,5.65,3.116,10.05,5.649
		c4.101,2.167,8.316,3.95,12.65,5.351c6.467,2.1,12.533,2.433,18.2,1c2.833-0.7,5.017-1.617,6.55-2.75
		c-2.667,2.267-5.584,4.433-8.75,6.5c-6.334,4.166-10.75,5.833-13.25,5c-2.066-0.7-7.101-3.551-15.101-8.551
		C357.5,101.667,351.866,98.35,349.2,97.15z"/>
	<path style="fill-rule:evenodd;clip-rule:evenodd;fill:#87AA75;" d="M3.95,18.65C5.65,23.083,7.6,27.8,9.8,32.8
		c4.367,10.034,7.75,16.567,10.15,19.6c2.4,3.033,7.917,8.484,16.55,16.35c4.3,3.934,8.367,7.566,12.2,10.9
		c-3-1.834-6.383-4.184-10.15-7.051c-7.533-5.699-13.233-11.1-17.1-16.2c-3.233-4.267-7.5-11.467-12.8-21.6
		C6.017,29.733,3.7,25.1,1.7,20.9L3.95,18.65z"/>
	<path style="fill-rule:evenodd;clip-rule:evenodd;fill:#87AA75;" d="M36.95,37.65c-2.4-5.533-4.167-11.683-5.3-18.45
		c-0.533-3.4-0.85-6.25-0.95-8.55l2.5-1.5c0.433,3.5,0.983,7.283,1.65,11.35c1.333,8.133,2.533,13.6,3.6,16.4
		c1.833,4.833,5.583,14.167,11.25,28C45.033,55.567,40.783,46.483,36.95,37.65z"/>
	<path style="fill-rule:evenodd;clip-rule:evenodd;fill:#87AA75;" d="M85.2,5.05c2.333-0.6,4.333-1.066,6-1.4l-1.5,2.5
		c-12.833,3.667-20.5,6.167-23,7.5c-2.867,1.533-5.217,3.4-7.05,5.6c-2.867,3.4-4.35,7.45-4.45,12.15
		c-0.1,4.467,1.367,10.983,4.4,19.55c1.533,4.267,3.066,8.083,4.6,11.45c-2.833-5.167-5.167-9.917-7-14.25
		c-1.467-3.433-2.417-6.383-2.85-8.85c-0.5-2.9-0.633-6.617-0.4-11.15c0.233-4.267,2.5-8.25,6.8-11.95
		c3.3-2.833,7.45-5.267,12.45-7.3C76.533,7.533,80.533,6.25,85.2,5.05z"/>
	<path style="fill-rule:evenodd;clip-rule:evenodd;fill:#87AA75;" d="M127.9,22.15c4.5,2.5,7.267,4.583,8.3,6.25
		c1.333,2.1,2.017,4.833,2.05,8.2c0.033,3.633-0.733,7.066-2.3,10.3c-1.367,2.8-4.1,6.233-8.2,10.3l-5.8,5.2
		c5.5-6,9.083-10.417,10.75-13.25c1.267-2.167,2.15-4.35,2.65-6.55c0.533-2.267,0.733-5,0.6-8.2c-0.133-2.7-2.633-5.717-7.5-9.05
		l-7.25-4.2l0.25-2.25L127.9,22.15z"/>
	<path style="fill-rule:evenodd;clip-rule:evenodd;fill:#DBE7D1;" d="M122.7,14.65l8.35,2.3c5.967,2.1,9.934,4.5,11.9,7.2
		c3.2,4.367,3.783,10.617,1.75,18.75c-0.5,2-1.083,3.5-1.75,4.5c0.767-2.066,1.333-4.467,1.7-7.2c0.733-5.4,0.167-9.667-1.7-12.8
		s-5.8-5.816-11.8-8.05l-8.45-2.45V14.65z"/>
	<polygon style="fill-rule:evenodd;clip-rule:evenodd;fill:#DBE7D1;" points="89.2,7.65 88.95,11.9 86.95,12.15 	"/>
	<path style="fill-rule:evenodd;clip-rule:evenodd;fill:#DBE7D1;" d="M62.925,24.475c-0.15,0.465-0.225,2.94-0.225,7.425
		c0,3.033,1.25,7.684,3.75,13.95c1.267,3.167,2.517,6.017,3.75,8.55l-2.5-0.5c-1.667-3-3.583-7.917-5.75-14.75
		c-1.367-4.267-1.6-8-0.7-11.2L62.925,24.475z"/>
	<path style="fill-rule:evenodd;clip-rule:evenodd;fill:#DBE7D1;" d="M42.8,37.75c-3.133-4.8-4.75-8.5-4.85-11.1
		c-0.167-4.167,0.167-10.5,1-19L35.2,8.4l6.25-5.25c-0.633,2.967-1.184,6.2-1.65,9.7c-0.966,7-1.083,11.85-0.35,14.55
		c0.733,2.7,2.283,6.3,4.65,10.8c1.2,2.267,2.316,4.25,3.35,5.95C45.917,42.283,44.367,40.15,42.8,37.75z"/>
	<path style="fill-rule:evenodd;clip-rule:evenodd;fill:#DBE7D1;" d="M6.45,16.4l3.75-4.25c3.966,11.733,7.05,19.65,9.25,23.75
		c1.867,3.533,5.216,7.967,10.05,13.3c2.433,2.667,4.667,4.983,6.7,6.95c-2.4-2.167-4.967-4.617-7.7-7.35
		c-5.4-5.5-8.833-9.716-10.3-12.65c-2.333-4.667-5.083-11.5-8.25-20.5L6.45,16.4z"/>
	<path style="fill-rule:evenodd;clip-rule:evenodd;fill:#DBE7D1;" d="M11.95,55.65l6.65,7.8c5.033,5.6,9.066,9.333,12.1,11.2
		c2.6,1.633,5.833,3.083,9.7,4.35c1.934,0.634,3.617,1.1,5.05,1.4c-1.167-0.134-2.567-0.367-4.2-0.7
		c-3.3-0.667-6.15-1.517-8.55-2.55c-2.4-1.034-6.2-4.184-11.4-9.45l-7.1-7.55l-2.75,0.25L11.95,55.65z"/>
</g>
</svg>
