<?xml version="1.0" encoding="iso-8859-1"?>
<!-- Generator: Adobe Illustrator 15.1.0, SVG Export Plug-In . SVG Version: 6.00 Build 0)  -->
<!DOCTYPE svg PUBLIC "-//W3C//DTD SVG 1.1//EN" "http://www.w3.org/Graphics/SVG/1.1/DTD/svg11.dtd">
<svg version="1.1" id="buildings-back" xmlns="http://www.w3.org/2000/svg" xmlns:xlink="http://www.w3.org/1999/xlink" x="0px"
	 y="0px" width="26.55px" height="59.35px" viewBox="0 0 26.55 59.35" style="enable-background:new 0 0 26.55 59.35;"
	 xml:space="preserve">
<path style="fill-rule:evenodd;clip-rule:evenodd;fill:#81836F;" d="M24.15,20.8c-1.134,3.667-2.334,5.583-3.601,5.75L16.15,26.9
	L15.4,34c-0.434,5.3-0.417,9.4,0.05,12.3c0.467,2.9,1.217,5.834,2.25,8.8c0.5,1.5,0.967,2.7,1.399,3.601
	c-1.033-0.4-1.883-0.517-2.55-0.351C16.15,58.45,15.634,58.65,15,58.95l-0.85,0.399c-0.134-0.333-0.384-0.649-0.75-0.949
	c-0.734-0.567-1.634-0.7-2.7-0.4l0.9-18.85c-1.2,0.333-2.5,0.483-3.9,0.449c-2.8-0.066-4.733-1-5.8-2.8
	c-1.066-1.833-1.683-5.916-1.85-12.25c-0.1-3.2-0.083-6.2,0.05-9c0.867-0.1,1.683-0.1,2.45,0c1.567,0.267,2.2,1,1.9,2.2
	c-0.434,1.833-0.434,4.95,0,9.35c0.466,4.8,1.267,7.534,2.4,8.2c1.066,0.634,2.033,0.816,2.9,0.55c0.433-0.1,0.75-0.283,0.95-0.55
	l1.1-35.1L13.95,0c1.366,0.3,1.983,1.583,1.85,3.85L14.7,22.5l1.95,0.4c1.466-0.033,2.649-0.9,3.55-2.6
	c0.934-1.667,1.633-4.483,2.1-8.45c0.233-1.967,0.384-3.783,0.45-5.45L25,7.05c1.4,0.867,1.866,2.367,1.4,4.5
	C25.434,16.117,24.684,19.2,24.15,20.8z"/>
</svg>
