<?xml version="1.0" encoding="iso-8859-1"?>
<!-- Generator: Adobe Illustrator 15.1.0, SVG Export Plug-In . SVG Version: 6.00 Build 0)  -->
<!DOCTYPE svg PUBLIC "-//W3C//DTD SVG 1.1//EN" "http://www.w3.org/Graphics/SVG/1.1/DTD/svg11.dtd">
<svg version="1.1" id="Isolation_Mode" xmlns="http://www.w3.org/2000/svg" xmlns:xlink="http://www.w3.org/1999/xlink" x="0px"
	 y="0px" width="41.25px" height="117.75px" viewBox="0 0 41.25 117.75" style="enable-background:new 0 0 41.25 117.75;"
	 xml:space="preserve">
<g>
	<path style="fill-rule:evenodd;clip-rule:evenodd;fill:#CBCC9D;" d="M13.85,43.15c0.933,1.1,6.05,5.517,15.35,13.25
		c8.7,8,12.684,13.85,11.95,17.55c-1.367,6.866-3.784,16.217-7.25,28.05c-1.767,5.9-3.384,11.116-4.851,15.65
		c-0.533,0.1-1.2,0.133-2,0.1c-1.6-0.1-3.05-0.533-4.35-1.3c-1.5-0.834-2.617-1.584-3.35-2.25c-1.167-1.066-1.934-2.25-2.3-3.55
		c1.7-3,3.45-6.567,5.25-10.7c3.601-8.334,5.601-15.417,6-21.25c0.367-5.2-4.116-11.117-13.45-17.75C8.717,56.583,5.4,54.2,4.9,53.8
		c-3.066-2.5-4.683-4.667-4.85-6.5c-0.3-3.533,0.4-10.65,2.1-21.35C3.017,20.617,3.917,15.633,4.85,11l1.4,1.75
		c1.167,1.2,2.267,1.85,3.3,1.95c1.667,0.167,4.717-0.067,9.15-0.7c-1.267,4.333-2.417,8.783-3.45,13.35
		C13.183,36.517,12.717,41.783,13.85,43.15z"/>
	<g>
		<path style="fill-rule:evenodd;clip-rule:evenodd;fill:#B2B38A;" d="M0.05,47.3c-0.3-3.533,0.4-10.65,2.1-21.35
			C3.017,20.617,3.917,15.633,4.85,11l1.4,1.75c1.167,1.2,2.267,1.85,3.3,1.95c0.167,0.033,0.483,0.05,0.95,0.05
			c-3.167,14.5-4.817,23.733-4.95,27.7c-0.1,2.966,0.617,5.1,2.15,6.4c1.1,0.933,3.667,2.6,7.7,5c4.633,3.233,8.5,6.567,11.6,10
			c4.167,4.567,6.217,8.601,6.15,12.101c-0.034,3.1-1.7,10.149-5,21.149c-1.9,6.334-3.917,12.684-6.051,19.051
			c-1.3-0.801-2.3-1.534-3-2.2c-1.033-1-1.717-2.101-2.05-3.3c1.7-3,3.45-6.567,5.25-10.7c3.601-8.334,5.601-15.417,6-21.25
			c0.367-5.2-4.116-11.117-13.45-17.75C8.717,56.583,5.4,54.2,4.9,53.8C1.833,51.3,0.217,49.133,0.05,47.3z"/>
	</g>
	<path style="fill-rule:evenodd;clip-rule:evenodd;fill:#9FA17C;" d="M3,45.4c0.1,1.767,0.783,3.25,2.05,4.45
		c0.9,0.867,4.284,3.4,10.15,7.6c5.8,4.2,9.166,6.75,10.1,7.649c1.566,1.467,2.967,3.534,4.2,6.2c1.434,3.033,2.033,5.667,1.8,7.9
		c-0.566,5.434-2.566,12.883-6,22.35c-1.733,4.733-3.399,8.917-5,12.55c-1.1-0.433-1.816-1.183-2.15-2.25
		c1.933-3.899,3.867-8.166,5.8-12.8c3.866-9.267,5.767-15.717,5.7-19.35c-0.034-4.066-1.084-7.634-3.15-10.7
		c-1.733-2.533-4.3-4.884-7.7-7.05C8.667,55.617,3,51,1.8,48.1c-1.033-2.467-0.783-8.383,0.75-17.75l2.6-14.5L6.6,16.8
		c0.333,0.167,0.983,0.267,1.95,0.3c-2.833,9.9-4.5,16.933-5,21.1C3.117,41.933,2.933,44.333,3,45.4z"/>
	<path style="fill-rule:evenodd;clip-rule:evenodd;fill:#D8D8B6;" d="M12.7,18.65c1.1,0.1,2.15-0.133,3.15-0.7
		c-0.633,2.966-1.3,6.117-2,9.45c-1.333,6.667-2.1,10.967-2.3,12.9c-0.3,2.633,0.383,4.767,2.05,6.4c0.833,0.8,1.7,1.333,2.6,1.6
		c-1.233,0-2.4-0.333-3.5-1c-2.267-1.367-3.15-3.75-2.65-7.15L12.7,18.65z"/>
	<path style="fill-rule:evenodd;clip-rule:evenodd;fill:#D8D8B6;" d="M33.45,66.1l-4.101-6.3c0.801,0.9,2.817,2.75,6.051,5.55
		c2.833,3.067,4.216,6.267,4.149,9.601c-0.094,3.031-1.677,9.182-4.75,18.45c0.407-1.332,0.657-2.415,0.75-3.25
		c0.066-0.767-0.583-0.134-1.95,1.899c-0.666,1-1.35,2.084-2.05,3.25c3.2-9.233,5.033-15.566,5.5-19
		C37.316,74.167,36.116,70.767,33.45,66.1z"/>
	<path style="fill-rule:evenodd;clip-rule:evenodd;fill:#B8BA78;" d="M20.85,11.1c-0.366,1.633-0.866,2.7-1.5,3.2
		c-0.8,0.633-2.017,1.15-3.65,1.55c-1.8,0.4-3.583,0.5-5.35,0.3c-2.067-0.233-3.817-1-5.25-2.3c-1.434-1.267-2.283-2.783-2.55-4.55
		c-0.2-1.466-0.233-2.667-0.1-3.6C2.683,4.767,2.833,4.05,2.9,3.55c2.333-1.4,5.883-1.683,10.65-0.85c4.567,0.8,7.25,2,8.05,3.6
		C21.134,9.333,20.884,10.933,20.85,11.1z"/>
	<path style="fill-rule:evenodd;clip-rule:evenodd;fill:#979B66;" d="M8.2,8.7l0.05,1.75c0.067,1.267,0.217,2.167,0.45,2.7l1.4,2.95
		l-0.8-0.15c-0.8-0.2-1.483-0.434-2.05-0.7c-1.267-0.567-2.317-1.383-3.15-2.45c-0.867-1.066-1.383-2.233-1.55-3.5l-0.15-1
		c-0.033-0.9-0.033-1.75,0-2.55l0.5-2.2C3.733,3.05,4.767,2.7,6,2.5C7.5,5.667,8.233,7.733,8.2,8.7z"/>
	<path style="fill-rule:evenodd;clip-rule:evenodd;fill:#CBCC9D;" d="M3.1,3c1.367-2.433,4.517-3.383,9.45-2.85
		c2.267,0.267,4.434,1.133,6.5,2.6c2.066,1.5,2.9,2.8,2.5,3.9c-1.066,2.733-4.816,3.533-11.25,2.4C7.433,8.583,5.333,7.667,4,6.3
		C2.833,5.133,2.533,4.033,3.1,3z"/>
	<linearGradient id="SVGID_1_" gradientUnits="userSpaceOnUse" x1="5.0405" y1="4.502" x2="19.6655" y2="4.502">
		<stop  offset="0" style="stop-color:#893342"/>
		<stop  offset="1" style="stop-color:#2D1D1E"/>
	</linearGradient>
	<path style="fill-rule:evenodd;clip-rule:evenodd;fill:url(#SVGID_1_);" d="M12.2,1.15c2.033,0.067,3.95,0.75,5.75,2.05
		c1.9,1.367,2.267,2.55,1.1,3.55c-0.6,0.5-1.683,0.833-3.25,1c-1.6,0.2-3.133,0.167-4.6-0.1c-2.034-0.367-3.633-1-4.8-1.9
		C5.533,5.083,5.083,4.433,5.05,3.8c-0.1-0.867,0.6-1.55,2.1-2.05C8.55,1.25,10.233,1.05,12.2,1.15z"/>
	<path style="fill-rule:evenodd;clip-rule:evenodd;fill:#CBCC9D;" d="M18.3,10.05c0.567-0.1,1.317-0.4,2.25-0.9L19.7,12.6
		c-0.167,0.7-0.733,1.267-1.7,1.7l-1.4,0.4c0.633-0.333,1.083-0.967,1.35-1.9c0.2-0.6,0.316-1.233,0.35-1.9V10.05z"/>
</g>
</svg>
