<?xml version="1.0" encoding="iso-8859-1"?>
<!-- Generator: Adobe Illustrator 15.1.0, SVG Export Plug-In . SVG Version: 6.00 Build 0)  -->
<!DOCTYPE svg PUBLIC "-//W3C//DTD SVG 1.1//EN" "http://www.w3.org/Graphics/SVG/1.1/DTD/svg11.dtd">
<svg version="1.1" id="stars" xmlns="http://www.w3.org/2000/svg" xmlns:xlink="http://www.w3.org/1999/xlink" x="0px" y="0px"
	 width="750px" height="750px" viewBox="0 0 750 750" style="enable-background:new 0 0 750 750;" xml:space="preserve">
<g>
	<polygon style="fill-rule:evenodd;clip-rule:evenodd;fill:#2F5D60;" points="538.65,686.85 556.7,675.9 544.5,692.45 557.9,707.8 
		541.35,698.75 543.95,729.7 536.2,702.2 505.5,709.95 529.4,695.1 515.55,669.5 531.35,685.35 538.45,656.4 	"/>
	<polygon style="fill-rule:evenodd;clip-rule:evenodd;fill:#FFFFFF;" points="295.9,625.15 309,637.25 311.8,625.55 313.55,640.25 
		330.4,629.2 315.65,644.2 324,657.2 310.5,647.1 304.95,665.9 307.7,645.5 289.9,654.1 307.15,641 	"/>
	<polygon style="fill-rule:evenodd;clip-rule:evenodd;fill:#FFFFFF;" points="368.45,725.75 377.35,716.75 363.95,710.7 
		378.8,714.9 374.3,700.8 382.2,714.95 395.1,708.25 384.8,716.7 393.15,720 382.1,719.75 388.55,733.4 378.9,720.9 	"/>
	<polygon style="fill-rule:evenodd;clip-rule:evenodd;fill:#FFFFFF;" points="45.6,668.45 60.15,672.05 65.05,662.25 63.8,674.2 
		77.35,670.75 63.8,676.5 75.5,684.25 61.25,678.4 55.65,691.05 58.3,678.7 50.1,681.2 58.5,674.8 	"/>
	<path style="fill-rule:evenodd;clip-rule:evenodd;fill:#FFFFFF;" d="M165.2,595.25l7.15,14.45l6.55-12.55l-2.75,13.699l17-3.05
		l-15.35,6.25l8.3,16.55L175.75,617.9l-4.6,11.949l0.6-12.6l-15.8,7.9L169.9,614.6l-11.3-7.699c6.633,2.267,9.883,2.983,9.75,2.149
		C168.217,608.217,167.167,603.616,165.2,595.25z"/>
	<polygon style="fill-rule:evenodd;clip-rule:evenodd;fill:#FFFFFF;" points="625.7,677.8 622.9,651.35 631.85,678.95 636.95,642.8 
		636.25,678.5 662.65,663.15 638.15,685.25 662.7,711.7 636.3,691.05 626.15,716.5 626.8,691.7 606.7,702.45 627.95,683.85 
		598.8,663.6 	"/>
	<polygon style="fill-rule:evenodd;clip-rule:evenodd;fill:#FFFFFF;" points="160.35,702.4 149.15,708.85 159.25,713.85 
		147.35,710.75 159.15,720.8 146.5,712.45 146,725.4 143.65,711.6 128.6,714.4 142,709.6 135.15,700.2 143.9,706.05 144.6,696.45 
		146.45,708.25 	"/>
	<polygon style="fill-rule:evenodd;clip-rule:evenodd;fill:#2F5D60;" points="634.6,508.7 626.7,536.55 628.9,505.35 594.75,503.45 
		626.35,500.15 616.55,476.15 632.4,493.5 639,472.95 636.8,499.6 669.95,494.25 642.3,502.25 661.55,518.45 637.3,505.5 
		657.6,533.5 	"/>
	<polygon style="fill-rule:evenodd;clip-rule:evenodd;fill:#2F5D60;" points="458.85,589.3 452.75,564.7 437.85,581.1 450.05,560.2 
		424.75,577.1 447.35,557.75 423.15,549.85 450.45,552.85 453.3,522.9 455.15,550.75 476.55,543 460.75,556.35 478.6,562.85 
		455.25,559.95 	"/>
	<polygon style="fill-rule:evenodd;clip-rule:evenodd;fill:#2F5D60;" points="213.85,454.9 227.65,441.65 215.8,456.15 
		231.65,458.35 214.4,459.5 215.95,478.35 211.75,461.3 199.35,468.5 207.65,458.5 195.9,456.45 210.65,455.65 205.2,437.9 
		211.7,452.45 219.1,440.65 	"/>
	<polygon style="fill-rule:evenodd;clip-rule:evenodd;fill:#2F5D60;" points="358.8,476.75 346.75,482.2 358.4,473.65 340.5,476.85 
		357.5,471.65 346.15,461.55 360.4,469.7 369.15,454 363.45,469.7 377.05,470.55 365.2,474.1 373.4,481.95 361.35,474.75 
		356.25,491.7 	"/>
	<polygon style="fill-rule:evenodd;clip-rule:evenodd;fill:#FFFFFF;" points="567.25,541.15 559.4,533.2 569.45,538.75 571.4,521.7 
		574.85,539.5 587.25,538.2 575,543.6 579.2,560.45 571.25,543.95 559.15,549.95 	"/>
	<polygon style="fill-rule:evenodd;clip-rule:evenodd;fill:#FFFFFF;" points="275.1,405.4 275.4,385.9 281.35,402.05 296.75,397.2 
		283.05,406.5 303.7,420.2 278.45,412.95 272.05,429.7 273.15,410.45 248.75,404.75 	"/>
	<polygon style="fill-rule:evenodd;clip-rule:evenodd;fill:#FFFFFF;" points="705.7,372.05 733.15,383.6 706.8,382.8 704.9,407.4 
		699.55,382.65 668.35,404.05 693.05,372.5 672.95,353.8 699.65,366.35 721.65,335.05 	"/>
	<polygon style="fill-rule:evenodd;clip-rule:evenodd;fill:#FFFFFF;" points="678.6,558.35 694.1,587.85 715.85,576.15 
		701.65,592.7 716.5,606.7 697.8,597.3 695.4,628.5 687.85,596.2 665.4,599.45 687.35,588.75 	"/>
	<polygon style="fill-rule:evenodd;clip-rule:evenodd;fill:#FFFFFF;" points="354.45,334.9 349.6,314.1 360.15,330.65 377.7,324.25 
		363.2,334 371.2,348.95 358.2,338.9 342.8,350.45 	"/>
	<polygon style="fill-rule:evenodd;clip-rule:evenodd;fill:#2F5D60;" points="568,304.25 587.3,308.8 598.4,288.35 593.45,311.25 
		609.25,331.6 589.35,318.75 573.35,334.65 584.35,316.65 	"/>
	<polygon style="fill-rule:evenodd;clip-rule:evenodd;fill:#FFFFFF;" points="145.45,539.3 125.4,530.15 145.6,531.95 151.4,513.6 
		150.2,531.55 167.5,534.45 151.1,538.7 150.8,558.6 	"/>
	<path style="fill-rule:evenodd;clip-rule:evenodd;fill:#FFFFFF;" d="M496.6,417.75l-13.5,23.8c1.034-3.767,1.967-7.583,2.801-11.45
		c1.733-7.767,2.216-11.933,1.449-12.5c-1.199-0.866-11.066-1.816-29.6-2.85l28.45-4.5l0.5-23.9l7,20l24.75-17.5l-19.9,21.051
		l14.7,10.6L496.6,417.75z"/>
	<path style="fill-rule:evenodd;clip-rule:evenodd;fill:#FFFFFF;" d="M95,249.3c0.033-0.667-2.033-4.6-6.2-11.8l8.65,9.55l9.1-5.6
		l-5.8,7.45l12.6,5.05l-12.75-2.35l-0.4,8.1l-3.05-6.9l-12.2,0.7C91.617,251.367,94.967,249.967,95,249.3z"/>
	<path style="fill-rule:evenodd;clip-rule:evenodd;fill:#2F5D60;" d="M188.4,316.35l-1.95,33.7l27.2,6.6l-24.6,2.95l13.75,32.75
		l-19.05-28l-15.85,14.1l7.3-18.35l-23.8-21.45l12.4,6.15c8.434,3.934,13.067,5.517,13.9,4.75c0.833-0.733,2.867-6.483,6.1-17.25
		L188.4,316.35z"/>
	<path style="fill-rule:evenodd;clip-rule:evenodd;fill:#FFFFFF;" d="M276.5,582.9c-4.3,5.3-6.267,8.316-5.9,9.05
		s4.117,3.217,11.25,7.45c3.566,2.133,7.083,4.183,10.55,6.149l-23.75-7.45l-9.55,18.25l2.3-18.1l-25.85,3.95L259,593.6l-7.25-13.85
		l11.8,8.55l19.55-13.149L276.5,582.9z"/>
	<path style="fill-rule:evenodd;clip-rule:evenodd;fill:#2F5D60;" d="M331.45,83.65c-7.6-1.133-11.633-1.316-12.1-0.55
		s-0.733,5.783-0.8,15.05c0,4.667,0.034,9.233,0.1,13.7l-6.3-27.1L289.3,85.9l18.75-8.1l-18.5-22.65l21.6,17.7L320.4,58l-1.5,16.2
		l23.8,11.4C339,84.867,335.25,84.217,331.45,83.65z"/>
	<polygon style="fill-rule:evenodd;clip-rule:evenodd;fill:#FFFFFF;" points="689.35,44.75 693.6,60.2 687.1,49.75 679.7,64.45 
		683.35,48.1 672.3,51.75 680.9,44.35 675.6,34.45 683.35,41.35 685.75,24.4 686.55,40.15 704,39.75 	"/>
	<polygon style="fill-rule:evenodd;clip-rule:evenodd;fill:#2F5D60;" points="544.4,111.55 521.2,120.15 542.05,105.85 
		526.15,98.55 543.15,99.25 547.5,82.9 549,98.45 569,82.25 553.7,100.4 573.3,117.9 552,108.35 540.9,129.8 	"/>
	<polygon style="fill-rule:evenodd;clip-rule:evenodd;fill:#2F5D60;" points="613.1,216.9 609.05,244.9 606.1,216.2 590.05,228.15 
		600.05,211.4 586,198.1 602.45,205.15 597.15,176.15 607,201.45 635.3,191.35 614.1,207.5 629.5,230.45 	"/>
	<polygon style="fill-rule:evenodd;clip-rule:evenodd;fill:#FFFFFF;" points="83.1,83.7 73.2,114.15 73.4,85.7 44,83.75 66.1,78.8 
		45.15,57.05 71.3,73.3 71.7,51.95 79.25,71.35 99.65,68.2 82.95,77.5 110.9,91.9 	"/>
	<polygon style="fill-rule:evenodd;clip-rule:evenodd;fill:#FFFFFF;" points="258.05,186.85 250.15,211.95 250.1,188.55 
		225.9,187.25 244.05,182.95 226.6,165.25 248.25,178.4 248.35,160.85 254.8,176.7 271.5,173.9 257.9,181.7 280.95,193.35 	"/>
	<polygon style="fill-rule:evenodd;clip-rule:evenodd;fill:#FFFFFF;" points="177.75,32.85 171.95,39.2 174.85,31.3 167.85,26.8 
		175.35,28.45 170.8,16.6 177,26.55 188.15,20 180.45,28.55 188.85,37 180.8,32.6 181.35,44.75 	"/>
	<polygon style="fill-rule:evenodd;clip-rule:evenodd;fill:#2F5D60;" points="56.3,383.65 57.1,375.75 45.55,381.8 54.95,374.3 
		46.95,363.65 56.6,370.5 64.3,361 60.7,369.7 73.1,367.75 61.35,372.75 68.5,378 60.1,375.95 	"/>
	<polygon style="fill-rule:evenodd;clip-rule:evenodd;fill:#2F5D60;" points="61.2,579.7 68.3,562.5 68.3,580.65 85.8,584.55 
		69.35,586.75 87.35,607.35 67.45,591.85 49.7,613.4 58.95,590.4 35.75,579.45 55.25,582.45 45.15,558.2 	"/>
	<polygon style="fill-rule:evenodd;clip-rule:evenodd;fill:#2F5D60;" points="29.15,177.55 30.9,168.6 32.65,177.3 41.4,177.5 
		33.75,180.15 44.35,188.3 33.35,182.75 26.85,194.85 29.1,182.9 16.9,179.85 26.55,179.45 19.35,168.75 	"/>
	<polygon style="fill-rule:evenodd;clip-rule:evenodd;fill:#FFFFFF;" points="430.15,59.1 409.6,56.8 415.35,80.15 405.65,56.85 
		392.15,76.9 402.35,52.4 380.6,42.6 401.9,47.3 397.7,33.15 408.65,47.65 419.6,25.5 413.3,50.55 	"/>
	<polygon style="fill-rule:evenodd;clip-rule:evenodd;fill:#FFFFFF;" points="463.2,213 457.4,247.75 456.1,209.15 421.4,209.25 
		452.5,202.6 438.35,186.4 461.6,199.05 462.85,163.05 469.55,200.1 497.05,201.25 468.4,210.6 490.1,238.1 	"/>
	<polygon style="fill-rule:evenodd;clip-rule:evenodd;fill:#2F5D60;" points="426.4,380.3 406.15,372.35 429.65,376.5 434,355.55 
		434.05,375.15 445.6,368.7 435,381.1 456.6,386.45 433.4,385.8 429.15,402.25 427.2,383.75 407.8,393.35 	"/>
	<polygon style="fill-rule:evenodd;clip-rule:evenodd;fill:#2F5D60;" points="694.15,143 697.75,155.55 690,146.35 671.35,154.4 
		687.2,142.6 687.35,115.8 691.35,138.75 715,137.2 	"/>
	<polygon style="fill-rule:evenodd;clip-rule:evenodd;fill:#2F5D60;" points="167,94.4 171.15,123.6 163.1,99.2 137.6,104.75 
		159.3,95.1 153.4,81.95 163.35,90.75 182.3,79 	"/>
	<path style="fill-rule:evenodd;clip-rule:evenodd;fill:#FFFFFF;" d="M499.55,62.45l-14,32.25l7.8-33.95l-27.05,2.8l9.5-4
		c6.167-2.8,8.851-4.533,8.05-5.2c-1.267-1.1-8.75-6.75-22.449-16.95l29.3,12.8l-6.05-27.5L498,47.15l22-26.4l-15.3,29.1l33.7,14.65
		l-32-6.15l8.3,24.1L499.55,62.45z"/>
</g>
</svg>
