<?xml version="1.0" encoding="iso-8859-1"?>
<!-- Generator: Adobe Illustrator 15.1.0, SVG Export Plug-In . SVG Version: 6.00 Build 0)  -->
<!DOCTYPE svg PUBLIC "-//W3C//DTD SVG 1.1//EN" "http://www.w3.org/Graphics/SVG/1.1/DTD/svg11.dtd">
<svg version="1.1" id="Isolation_Mode" xmlns="http://www.w3.org/2000/svg" xmlns:xlink="http://www.w3.org/1999/xlink" x="0px"
	 y="0px" width="71.4px" height="61.45px" viewBox="0 0 71.4 61.45" style="enable-background:new 0 0 71.4 61.45;"
	 xml:space="preserve">
<g>
	<path style="fill-rule:evenodd;clip-rule:evenodd;fill:#295648;" d="M69.75,11.65c0.9,0.434,1.434,1.2,1.6,2.3
		c0.167,1-0.033,2.017-0.6,3.05c-0.7,1.367-1.6,2.417-2.7,3.15c-1.166,0.833-2.333,1.133-3.5,0.9c-1.467-0.267-1.383-2.1,0.25-5.5
		C66.434,12.15,68.083,10.85,69.75,11.65z"/>
	<g>
		<path style="fill-rule:evenodd;clip-rule:evenodd;fill:#C8CFA0;" d="M69.85,11.6c1.7,2.267,1.517,4.533-0.55,6.8
			c-1.934,2.167-3.633,2.883-5.1,2.15c-4.601-3.033-8.983-5.633-13.15-7.8c-8.2-4.2-13.7-5.317-16.5-3.35
			c-2.8,2-7.15,10.767-13.05,26.3c-2.933,7.733-5.583,15.283-7.95,22.649c-0.367,0.301-0.933,0.584-1.7,0.851
			c-1.5,0.533-3.167,0.75-5,0.649c-1.867-0.1-3.217-0.416-4.05-0.949l-0.75-0.75c2.867-8.167,6.3-16.634,10.3-25.4
			C20.317,15.183,27.133,4.883,32.8,1.85C38.467-1.183,46.35-0.467,56.45,4C61.483,6.233,65.95,8.767,69.85,11.6z"/>
		<g>
			<path style="fill-rule:evenodd;clip-rule:evenodd;fill:#B2B98F;" d="M13.25,30.75c6.7-14.4,12.583-23.6,17.65-27.6
				c0.4,0.434,1.667,0.017,3.8-1.25c-2.534,1.633-4.467,3.333-5.8,5.1c-2,2.7-4.167,6.183-6.5,10.45
				c-2.833,5.167-5.133,10.183-6.9,15.05c-2.6,7.167-5.2,15.066-7.8,23.7c-2.6,1.133-4.233,1.5-4.9,1.1
				c-0.133-0.066-0.216-0.217-0.25-0.45C5.817,47.783,9.383,39.083,13.25,30.75z"/>
			<path style="fill-rule:evenodd;clip-rule:evenodd;fill:#B2B98F;" d="M41.3,7.6c3.233,0.066,6.634,0.8,10.2,2.2
				c4.5,1.833,10.233,4.9,17.2,9.2c-0.8,0.7-1.617,1.2-2.45,1.5c-0.866,0.3-1.55,0.317-2.05,0.05
				c-4.467-2.933-8.75-5.466-12.851-7.6c-8-4.2-13.483-5.45-16.45-3.75C36.1,8.067,38.233,7.533,41.3,7.6z"/>
		</g>
		<path style="fill-rule:evenodd;clip-rule:evenodd;fill:#B0BC78;" d="M15.35,52.9c0.833,0.033,1.417,1.1,1.75,3.199
			c0.167,1.067,0.25,2.117,0.25,3.15c-0.267,0.4-0.9,0.783-1.9,1.15c-2,0.767-4.8,1.116-8.4,1.05C4.483,61.384,2.533,61,1.2,60.3
			c-0.667-0.366-1.067-0.717-1.2-1.05c0.333-1,0.733-2,1.2-3c0.966-2.033,1.883-3.1,2.75-3.2c-0.1,0.101,0.183,0.283,0.85,0.55
			c0.867,0.301,1.95,0.467,3.25,0.5C10.75,54.233,13.183,53.833,15.35,52.9z"/>
		<path style="fill-rule:evenodd;clip-rule:evenodd;fill:#D8DCBA;" d="M68.7,13.95c-5.033-3.9-9.384-6.7-13.05-8.4
			c-2.301-1.066-5.45-2.167-9.45-3.3L40.9,0.9l4.449,0.6c3.367,0.567,6.15,1.233,8.351,2c3.5,1.2,8.5,3.917,15,8.15l0.2,0.65
			C68.967,12.867,68.9,13.417,68.7,13.95z"/>
		<path style="fill-rule:evenodd;clip-rule:evenodd;fill:#D8DCBA;" d="M32.45,9.35c-4.967,9.767-8.1,16.433-9.4,20l-8.3,22.95
			l-1.55,0.5c1.933-7.166,3.667-12.833,5.2-17C19.967,31.667,24.65,22.85,32.45,9.35z"/>
		<path style="fill-rule:evenodd;clip-rule:evenodd;fill:#9EA580;" d="M10.75,41.3c-1.233,3.434-2.333,7.334-3.3,11.7
			c-0.233,0.1-0.5,0.15-0.8,0.15c-0.566,0.033-1.033-0.134-1.4-0.5C7.45,45.983,9.033,41.434,10,39c0.6-1.533,2.633-5.667,6.1-12.4
			c1.733-3.4,3.4-6.633,5-9.7C15.4,29.767,11.95,37.9,10.75,41.3z"/>
		<path style="fill-rule:evenodd;clip-rule:evenodd;fill:#9EA580;" d="M67,18.95c-0.2,0.633-0.667,1-1.4,1.1h-1.05
			c-0.333,0-1.55-0.716-3.649-2.15c-1.334-0.9-4.634-2.667-9.9-5.3l-7.55-3.65l4.7,1.35c3.566,1.1,6.466,2.233,8.699,3.4
			C60.45,15.6,63.833,17.35,67,18.95z"/>
		<g>
			<path style="fill-rule:evenodd;clip-rule:evenodd;fill:#99A56B;" d="M12.65,60.85l3-0.55c-2.033,0.834-4.9,1.217-8.6,1.15
				C4.483,61.384,2.533,61,1.2,60.3c-0.667-0.366-1.067-0.717-1.2-1.05c0.333-1,0.733-2.017,1.2-3.05
				C2.167,54.167,3.083,53.1,3.95,53c-0.1,0.134,0.183,0.316,0.85,0.55c0.867,0.334,1.95,0.517,3.25,0.55L8.4,54.15
				c-0.267,0.267-0.5,0.566-0.7,0.899c-0.434,0.733-0.717,1.617-0.85,2.65c-0.233,2.033,0.1,3.116,1,3.25
				C9.583,61.217,11.183,61.184,12.65,60.85z"/>
		</g>
		<path style="fill-rule:evenodd;clip-rule:evenodd;fill:#838F5F;" d="M3.25,54.6c0.6-0.333,1.083-0.3,1.45,0.101
			c0.433,0.5,0.45,1.399,0.05,2.7c-0.267,0.866-0.367,1.8-0.3,2.8C3.45,60,2.7,59.8,2.2,59.6c-0.5-0.166-0.9-0.433-1.2-0.8
			c0.1-0.533,0.233-1.017,0.4-1.45C2.1,55.85,2.717,54.934,3.25,54.6z"/>
	</g>
</g>
</svg>
