<?xml version="1.0" encoding="iso-8859-1"?>
<!-- Generator: Adobe Illustrator 15.1.0, SVG Export Plug-In . SVG Version: 6.00 Build 0)  -->
<!DOCTYPE svg PUBLIC "-//W3C//DTD SVG 1.1//EN" "http://www.w3.org/Graphics/SVG/1.1/DTD/svg11.dtd">
<svg version="1.1" id="buildings" xmlns="http://www.w3.org/2000/svg" xmlns:xlink="http://www.w3.org/1999/xlink" x="0px" y="0px"
	 width="147.75px" height="317px" viewBox="0 0 147.75 317" style="enable-background:new 0 0 147.75 317;" xml:space="preserve">
<g>
	<g>
		<path style="fill-rule:evenodd;clip-rule:evenodd;fill:#CE4B5D;" d="M54.75,36c-1.8,2.667-5.317,10.55-10.55,23.65
			C38.167,74.583,32.867,89.2,28.3,103.5c-13.2,41.067-15.45,63.333-6.75,66.8c3.567,1.434,11.3,3.983,23.2,7.65
			c14.6,4.533,25.2,7.934,31.8,10.2c27.033,9.199,41.367,16.8,43,22.8c4.934,18.133,12.834,50.816,23.7,98.05
			c-2.733,1.5-6.1,2.434-10.1,2.8c-8,0.767-15.134-1.666-21.4-7.3c0.2-13.934-0.167-28.083-1.1-42.45
			c-1.834-28.733-5.534-44.2-11.101-46.399c-5.6-2.233-15.033-5.517-28.3-9.851c-15.767-5.133-26.567-8.733-32.4-10.8
			C13.583,185.934,0.7,178.15,0.2,171.65c-0.633-8.067,0.316-20.467,2.85-37.2c2.3-15.067,5.483-31.267,9.55-48.6
			c4-17,7.917-31.1,11.75-42.3c4.1-12.033,7.233-18.05,9.4-18.05c6.7,0,12.083,0.633,16.15,1.9C55.767,29.2,57.383,32.067,54.75,36z
			"/>
		<g>
			<path style="fill-rule:evenodd;clip-rule:evenodd;fill:#CA3654;" d="M31.45,27.3c2.733,2.567,5.316,5.117,7.75,7.65
				c-3.767,8.833-7.717,19.2-11.85,31.1c-8.3,23.767-13.35,43.3-15.15,58.6c-2.633,22.533-4,35-4.1,37.4
				c-0.267,6.867,1.1,11.5,4.1,13.9c2.833,2.267,16.25,7.717,40.25,16.35c17.4,6.267,31.217,11.05,41.45,14.351
				c5.699,1.833,10.199,3.983,13.5,6.449c4.966,3.7,7.899,8.434,8.8,14.2c1.333,8.667,4.116,35.334,8.35,80l-10.25-0.75
				c-0.767-0.533-1.616-1.217-2.55-2.05c0.2-13.934-0.167-28.083-1.1-42.45c-1.834-28.733-5.534-44.2-11.101-46.399
				c-5.6-2.233-15.033-5.517-28.3-9.851c-15.767-5.133-26.567-8.733-32.4-10.8C13.583,185.934,0.7,178.15,0.2,171.65
				c-1.167-15.167,2.417-41.367,10.75-78.601c3.533-15.7,7.133-29.55,10.8-41.55C25.65,38.867,28.883,30.8,31.45,27.3z"/>
		</g>
		<path style="fill-rule:evenodd;clip-rule:evenodd;fill:#893342;" d="M32.65,40.45c-2.633,7.433-5.4,15.583-8.3,24.45
			c-5.767,17.733-9.333,30.25-10.7,37.55L3.4,157.95c0.533-6.133,1.233-13.034,2.1-20.7c1.7-15.333,3.333-26.85,4.9-34.55
			C11.967,95,15.733,81.767,21.7,63c2.966-9.367,5.783-17.967,8.45-25.8l0.6,1.45C31.283,39.65,31.917,40.25,32.65,40.45z"/>
		<path style="fill-rule:evenodd;clip-rule:evenodd;fill:#893342;" d="M20.85,182.35c8.9,4.301,16.167,7.334,21.8,9.101
			c5.8,1.833,16.3,5.333,31.5,10.5c12.833,4.366,20.833,7.116,24,8.25c1.833,0.666,3.083,1.383,3.75,2.149
			c0.699,0.801,0.199,1.084-1.5,0.851c-1.634-0.233-8.617-2.384-20.95-6.45c-11.667-3.833-19.767-6.6-24.3-8.3
			c-26.133-9.8-41.467-17.134-46-22L20.85,182.35z"/>
		<path style="fill-rule:evenodd;clip-rule:evenodd;fill:#893342;" d="M107.15,220.95c1.333,0.8,2.883,3.633,4.649,8.5
			c1.9,5.233,3.267,10.816,4.101,16.75c1.166,8.333,2.75,25.583,4.75,51.75c-0.834-0.5-1.834-0.834-3-1
			c-0.733-0.101-1.584-0.417-2.551-0.95l-1.199-0.8c-0.334-23.5-0.834-39.334-1.5-47.5c-0.4-5.101-1.4-11.084-3-17.95L107.15,220.95
			z"/>
		<path style="fill-rule:evenodd;clip-rule:evenodd;fill:#D3626F;" d="M120.8,228.45c3.2,9.333,5.066,16.5,5.601,21.5
			c0.433,4.133,2.166,12.934,5.199,26.399c2.7,11.834,3.884,17.95,3.551,18.351c-0.534,0.666-1.601,1.149-3.2,1.45
			c-1.7,0.333-2.967,0.267-3.8-0.2c-3.334-27.667-5.25-44.584-5.75-50.75c-0.301-3.867-1.434-9.9-3.4-18.101l-2.85-11.149
			L120.8,228.45z"/>
		<path style="fill-rule:evenodd;clip-rule:evenodd;fill:#D3626F;" d="M44.6,44.8c1.066-0.033,2-0.15,2.8-0.35
			c-10.667,24-17.583,40.583-20.75,49.75c-1.967,5.733-5.15,18.033-9.55,36.9c-2.167,9.433-4.15,18.3-5.95,26.6
			c0.5-3,0.75-5.667,0.75-8c0-1.733,1.434-10.567,4.3-26.5c2.867-15.867,4.933-26.45,6.2-31.75c1.033-4.367,4.184-13.684,9.45-27.95
			c2.633-7.1,5.15-13.783,7.55-20.05C40.767,44.383,42.5,44.833,44.6,44.8z"/>
		<path style="fill-rule:evenodd;clip-rule:evenodd;fill:#EA878B;" d="M46.3,183.35L20.15,172.7l38.5,13
			c2.767,0.934,10.05,3.383,21.85,7.35c10.9,3.667,17.366,5.8,19.4,6.4c2.1,0.633,4.683,1.866,7.75,3.7
			c1.533,0.899,2.866,1.75,4,2.55c-1.2-0.634-2.434-1.2-3.7-1.7c-2.566-1.066-4-1.333-4.3-0.8c-0.301,0.533-0.184,1.267,0.35,2.2
			c0.267,0.5,0.566,0.933,0.9,1.3c-2.4-1.233-5.25-2.601-8.551-4.101c-6.533-3-11.933-5.133-16.199-6.399
			C75.884,194.967,64.6,190.684,46.3,183.35z"/>
		<path style="fill-rule:evenodd;clip-rule:evenodd;fill:#BC4D5A;" d="M140.2,296.3l1.55,0.55c1.3,0.634,2.566,1.567,3.8,2.801
			c1.267,1.267,1.983,3.816,2.15,7.649c0.066,1.9,0.017,3.684-0.15,5.351c-1.533,0.767-3.616,1.533-6.25,2.3
			c-5.267,1.5-10.633,2.184-16.1,2.05c-5.267-0.134-9.95-1.017-14.05-2.65L106.55,312c-0.066-1.6-0.066-3.3,0-5.1
			c0.101-3.567,0.434-5.767,1-6.601c0.566-0.833,1.467-1.684,2.7-2.55l1.65-1.1l5.399,2.05c4.233,1.333,7.867,1.866,10.9,1.6
			c3.066-0.267,5.983-1.017,8.75-2.25C138.35,297.45,139.434,296.866,140.2,296.3z"/>
		<g>
			<path style="fill-rule:evenodd;clip-rule:evenodd;fill:#8F3F49;" d="M124.3,315.6c3.066,0.2,5.851,0.15,8.351-0.149
				c4-0.5,8.966-1.434,14.899-2.8c-1.533,0.767-3.616,1.533-6.25,2.3c-5.267,1.5-10.633,2.184-16.1,2.05
				c-5.267-0.134-9.95-1.017-14.05-2.65L106.55,312c-0.066-1.6-0.066-3.3,0-5.1c0.101-3.567,0.434-5.767,1-6.601
				c0.566-0.833,1.467-1.684,2.7-2.55l1.65-1.1l3.6,1.449c2.9,1.067,5.6,1.75,8.1,2.051l0.051,0.05l-1.4,1.149
				c-0.967,1-1.5,2.117-1.6,3.351c-0.167,2-0.25,5.5-0.25,10.5L124.3,315.6z"/>
		</g>
		<path style="fill-rule:evenodd;clip-rule:evenodd;fill:#7C3941;" d="M118.75,300.95l-1.25,1.55c-0.866,1.2-1.316,2.184-1.35,2.95
			c-0.101,1.267-0.15,3.899-0.15,7.899c-2.333-0.267-3.833-0.566-4.5-0.899l-3.25-1.351c0-3.933,0.083-6.517,0.25-7.75
			c0.2-1.466,1.033-2.633,2.5-3.5l1.9-0.75C116.4,300.434,118.35,301.05,118.75,300.95z"/>
		<path style="fill-rule:evenodd;clip-rule:evenodd;fill:#C76B70;" d="M146.45,307.2c0.166,1.1,0.233,2.1,0.2,3
			c-1,0.666-1.834,1.05-2.5,1.149l-3.75,0.601c0.166-2.566,0.033-4.65-0.4-6.25c-0.233-0.967-0.866-2.15-1.9-3.55l-1.449-1.801
			l2.699-0.05c2.067,0.2,3.667,0.834,4.801,1.9C145.283,303.3,146.05,304.967,146.45,307.2z"/>
		<path style="fill-rule:evenodd;clip-rule:evenodd;fill:#BC4D5A;" d="M64.8,26.7c-1.633,3.466-3.45,7.2-5.45,11.2
			c-1.367,2.733-4.684,4-9.95,3.8c-4.433-0.2-8.767-1.2-13-3c-3.433-1.467-5.917-2.95-7.45-4.45c-1.467-1.4-2.5-3.25-3.1-5.55
			c-0.533-1.967-0.317-4.65,0.65-8.05l1.55-4.5L64.8,26.7z"/>
		<path style="fill-rule:evenodd;clip-rule:evenodd;fill:#C76B70;" d="M53.05,37.9c0.2-0.733,0.434-1.85,0.7-3.35l0.3-2
			c1.867,0.1,3.6-0.1,5.2-0.6c0.8-0.233,1.4-0.483,1.8-0.75l-1.7,3.9c-1.3,2.7-2.35,4.233-3.15,4.6c-0.8,0.4-1.883,0.6-3.25,0.6
			l-1.8-0.15C52.083,39.817,52.717,39.067,53.05,37.9z"/>
		<g>
			<path style="fill-rule:evenodd;clip-rule:evenodd;fill:#8F3F49;" d="M44.55,40.9c0.8,0.233,2.133,0.483,4,0.75
				c-4.367-0.3-8.417-1.283-12.15-2.95c-3.433-1.467-5.917-2.95-7.45-4.45c-1.467-1.4-2.5-3.25-3.1-5.55
				c-0.533-1.967-0.317-4.65,0.65-8.05l1.55-4.5l0.65,0.2l7.85,9.55l-1.25,3.7c-0.7,2.667-0.733,4.533-0.1,5.6
				c0.667,1.167,2.117,2.367,4.35,3.6C41.35,39.767,43.017,40.467,44.55,40.9z"/>
		</g>
		<path style="fill-rule:evenodd;clip-rule:evenodd;fill:#C76B70;" d="M49.45,15.3c4.133,1.633,7.633,3.383,10.5,5.25
			c4.3,2.767,5.8,5.017,4.5,6.75c-1.6,2.133-4.317,3.35-8.15,3.65c-4.2,0.3-8.917-0.583-14.15-2.65
			c-5.467-2.167-9.45-4.433-11.95-6.8c-2.434-2.367-3.017-4.433-1.75-6.2c1.633-2.2,4.966-3.066,10-2.6
			C42.283,13.033,45.95,13.9,49.45,15.3z"/>
		
			<linearGradient id="SVGID_1_" gradientUnits="userSpaceOnUse" x1="-4.5239" y1="-51.333" x2="4.617" y2="-51.333" gradientTransform="matrix(-0.413 0.9107 -0.9107 -0.413 -3.527999e-004 6.502867e-005)">
			<stop  offset="0" style="stop-color:#893342"/>
			<stop  offset="1" style="stop-color:#2D1D1E"/>
		</linearGradient>
		<path style="fill-rule:evenodd;clip-rule:evenodd;fill:url(#SVGID_1_);" d="M48.4,16.85c9.733,4.033,14.15,7.2,13.25,9.5
			c-0.5,1.233-2.717,1.633-6.65,1.2c-3.533-0.367-7.317-1.233-11.35-2.6c-3.633-1.233-6.7-2.833-9.2-4.8
			c-2.434-1.933-3.25-3.367-2.45-4.3c0.867-1.033,3.433-1.317,7.7-0.85C43.533,15.367,46.433,15.983,48.4,16.85z"/>
		<path style="fill-rule:evenodd;clip-rule:evenodd;fill:#7C3941;" d="M28.15,22.45c0.867,1.3,2.467,2.5,4.8,3.6l-0.55,1.3
			c-0.433,1.066-0.767,2.083-1,3.05c-0.4,1.567-0.483,2.95-0.25,4.15c-0.6-0.667-1.233-1.466-1.9-2.4
			c-1.267-1.8-1.967-3.25-2.1-4.35c-0.133-1.1-0.017-2.316,0.35-3.65L28.15,22.45z"/>
	</g>
	<g>
		<path style="fill-rule:evenodd;clip-rule:evenodd;fill:#81908E;" d="M66.9,1.5c-0.667,0.867-1.066,1.917-1.2,3.15
			C65.6,5.883,66.05,7,67.05,8c-1.733-0.233-3.617-0.367-5.65-0.4c-4.066-0.033-6.8,0.533-8.2,1.7c-1.034,0.867-2.5,3.8-4.4,8.8
			c-0.966,2.5-1.833,4.9-2.6,7.2c-2-0.333-3.383-0.933-4.15-1.8c0.767-2.733,1.733-5.55,2.9-8.45c2.333-5.867,4.533-9.283,6.6-10.25
			c2.1-0.966,5.284-1.8,9.55-2.5C63.233,1.933,65.167,1.667,66.9,1.5z"/>
		<g>
			<path style="fill-rule:evenodd;clip-rule:evenodd;fill:#637572;" d="M64.35,5.6L64.2,4.45c-1.4,0.133-2.983,0.35-4.75,0.65
				c-3.5,0.667-6.083,1.517-7.75,2.55c-1.534,0.967-3.233,3.783-5.1,8.45c-1.1,2.833-2.05,5.667-2.85,8.5
				c-0.8-0.367-1.367-0.733-1.7-1.1c0.767-2.733,1.733-5.55,2.9-8.45c2.333-5.867,4.533-9.283,6.6-10.25
				c2.1-0.966,5.284-1.8,9.55-2.5c2.133-0.367,4.066-0.633,5.8-0.8c-0.667,0.867-1.066,1.917-1.2,3.15C65.6,5.883,66.05,7,67.05,8
				L65.3,7.8C64.833,7.233,64.517,6.5,64.35,5.6z"/>
		</g>
		<path style="fill-rule:evenodd;clip-rule:evenodd;fill:#485956;" d="M64.15,3.6C57.217,4.267,53.1,5.083,51.8,6.05
			c-0.966,0.7-2.017,1.967-3.15,3.8c-1.133,1.867-2.05,3.8-2.75,5.8l-2.65,7.8L42.9,23.1c1.867-5.7,3.25-9.583,4.15-11.65
			c1.367-2.967,2.85-4.983,4.45-6.05c0.933-0.566,5.233-1.5,12.9-2.8L64.15,3.6z"/>
		<path style="fill-rule:evenodd;clip-rule:evenodd;fill:#9EAEAB;" d="M62.8,5.45c-0.066,0.5,0.067,1,0.4,1.5
			c-0.9,0-1.934,0.033-3.1,0.1c-2.367,0.167-4.25,0.45-5.65,0.85c-1.367,0.367-2.617,1.317-3.75,2.85l-1.25,2.15l0.7-1.9
			c0.733-1.433,1.667-2.467,2.8-3.1c1.133-0.667,3.117-1.267,5.95-1.8C60.333,5.8,61.633,5.583,62.8,5.45z"/>
	</g>
	<path style="fill-rule:evenodd;clip-rule:evenodd;fill:#546764;" d="M65.15,4.9c-0.066-0.867,0.017-1.717,0.25-2.55
		c0.267-0.9,0.633-1.45,1.1-1.65c0.667-0.233,1.567-0.333,2.7-0.3l0.25,8.25c-1.7,0-2.684-0.066-2.95-0.2
		c-0.367-0.167-0.667-0.617-0.9-1.35C65.367,6.433,65.217,5.7,65.15,4.9z"/>
	<path style="fill-rule:evenodd;clip-rule:evenodd;fill:#627974;" d="M69.25,0.4c1,0.1,1.45,1.517,1.35,4.25
		c-0.1,2.767-0.483,4.1-1.15,4c-0.534-0.033-0.934-0.5-1.2-1.4c-0.233-0.667-0.35-1.433-0.35-2.3c-0.066-1.067,0-2.05,0.2-2.95
		C68.333,0.9,68.717,0.367,69.25,0.4z"/>
	
		<linearGradient id="SVGID_2_" gradientUnits="userSpaceOnUse" x1="-70.4502" y1="-4.4507" x2="-68.7502" y2="-4.4507" gradientTransform="matrix(-1 0 0 -1 0 0)">
		<stop  offset="0" style="stop-color:#893342"/>
		<stop  offset="1" style="stop-color:#2D1D1E"/>
	</linearGradient>
	<path style="fill-rule:evenodd;clip-rule:evenodd;fill:url(#SVGID_2_);" d="M69.35,1.25c0.467,0,0.75,0.9,0.85,2.7
		c0.033,0.733,0.017,1.45-0.05,2.15c-0.1,1-0.3,1.517-0.6,1.55C69.283,7.683,69.067,7.2,68.9,6.2c-0.1-0.7-0.15-1.4-0.15-2.1
		C68.75,2.2,68.95,1.25,69.35,1.25z"/>
	<path style="fill-rule:evenodd;clip-rule:evenodd;fill:#EA878B;" d="M71,5.55c-0.333-0.066-0.733-0.05-1.2,0.05l-0.6,0.2
		c-0.034,0-0.067-0.017-0.1-0.05c-0.033-0.067-0.017-0.15,0.05-0.25L70,5.35c0.633-0.1,1.1-0.083,1.4,0.05
		c0.133,0.067,0.317,0.25,0.55,0.55c0.167,0.233,0.483,0.383,0.95,0.45c0.466,0.067,0.767-0.35,0.9-1.25
		C74,4.083,74.15,3.5,74.25,3.4c0.366-0.3,0.85-0.566,1.45-0.8l0.05,0.3c-0.167,0.067-0.366,0.133-0.6,0.2
		c-0.4,0.167-0.65,0.316-0.75,0.45C74.333,3.65,74.233,4.1,74.1,4.9c-0.133,0.8-0.267,1.267-0.399,1.4
		c-0.233,0.233-0.65,0.317-1.25,0.25c-0.267-0.033-0.517-0.2-0.75-0.5C71.467,5.75,71.233,5.583,71,5.55z"/>
	<path style="fill-rule:evenodd;clip-rule:evenodd;fill:#893342;" d="M76.5,4.75c-0.833,0.167-1.417,0.167-1.75,0
		c-0.134-0.067-0.434-0.333-0.9-0.8C73.417,3.517,73.116,3.3,72.95,3.3c-0.167,0-0.467,0.184-0.9,0.55c-0.466,0.4-0.767,0.6-0.9,0.6
		l-2.2-0.05c-0.034-0.033-0.05-0.066-0.05-0.1c0-0.066,0.033-0.117,0.1-0.15l0.7,0.1c0.533,0.033,0.933,0.033,1.2,0
		c0.233-0.033,0.55-0.217,0.95-0.55c0.433-0.367,0.75-0.567,0.95-0.6c0.233-0.033,0.566,0.167,1,0.6c0.533,0.5,0.867,0.767,1,0.8
		c0.4,0.1,0.967,0.1,1.7,0V4.75z"/>
	<path style="fill-rule:evenodd;clip-rule:evenodd;fill:#EA878B;" d="M73.6,2.35C73.3,2.15,73.083,2.033,72.95,2
		c-0.233-0.033-0.517,0.2-0.85,0.7c-0.367,0.633-0.717,0.95-1.05,0.95c-0.2,0-0.4-0.117-0.6-0.35c-0.233-0.267-0.4-0.466-0.5-0.6
		c-0.133-0.133-0.3-0.217-0.5-0.25L69.2,2.4c-0.034-0.033-0.05-0.066-0.05-0.1c0-0.066,0.05-0.1,0.15-0.1l0.45,0.15
		c0.3,0.133,0.467,0.283,0.5,0.45c0.2,0.5,0.55,0.7,1.05,0.6c0.133-0.033,0.35-0.3,0.65-0.8c0.3-0.5,0.533-0.767,0.7-0.8
		c0.167-0.066,0.433,0.017,0.8,0.25c0.366,0.233,0.633,0.333,0.8,0.3c0.333-0.033,0.634-0.184,0.9-0.45l0.1,0.25
		c-0.366,0.367-0.7,0.533-1,0.5C74.083,2.65,73.866,2.55,73.6,2.35z"/>
	<path style="fill-rule:evenodd;clip-rule:evenodd;fill:#893342;" d="M71.5,2.75c-0.1,0.033-0.3,0.067-0.6,0.1h-1.95
		c0-0.033,0-0.067,0-0.1s0.033-0.067,0.1-0.1L70,2.75c0.7,0,1.2-0.117,1.5-0.35c0.467-0.4,0.567-1.183,0.3-2.35L72,0
		c0.2,0.9,0.183,1.6-0.05,2.1C71.783,2.433,71.633,2.65,71.5,2.75z"/>
</g>
</svg>
