<?xml version="1.0" encoding="iso-8859-1"?>
<!-- Generator: Adobe Illustrator 15.1.0, SVG Export Plug-In . SVG Version: 6.00 Build 0)  -->
<!DOCTYPE svg PUBLIC "-//W3C//DTD SVG 1.1//EN" "http://www.w3.org/Graphics/SVG/1.1/DTD/svg11.dtd">
<svg version="1.1" id="Isolation_Mode" xmlns="http://www.w3.org/2000/svg" xmlns:xlink="http://www.w3.org/1999/xlink" x="0px"
	 y="0px" width="970.25px" height="57.55px" viewBox="0 0 970.25 57.55" style="enable-background:new 0 0 970.25 57.55;"
	 xml:space="preserve">
<g>
	<path style="fill-rule:evenodd;clip-rule:evenodd;fill:#987070;" d="M727.3,28.6c120.834,4.7,201.817,14.35,242.95,28.95
		L-0.025,57.375c42.936-1.123,88.71-4.298,137.325-9.525c41.434-4.466,73.45-8.899,96.05-13.3
		c24.167-4.733,48.133-11.883,71.9-21.45c12.7-5.133,20.067-8.067,22.1-8.8c7.066-2.466,13.233-3.883,18.5-4.25
		c8.133-0.533,33.833,2.8,77.1,10c48.167,8.034,80.684,12.583,97.55,13.65c6.767,0.433,32.75,1,77.95,1.7
		C649.617,26.167,692.566,27.233,727.3,28.6z"/>
	<g>
		<g>
			<path style="fill-rule:evenodd;clip-rule:evenodd;fill:#895D60;" d="M347.75,22.3c1.133,0.034,2.184,0.1,3.15,0.2
				c-1.6,0.233-3.167,0.5-4.7,0.8c-3.067,0.633-4.4,1.583-4,2.85c0.333,1.033,1.417,1.934,3.25,2.7c1.933,0.8,4.066,1.167,6.4,1.1
				c4.233,0,9.35-1.267,15.35-3.8c-1.833,1.5-4,2.966-6.5,4.4c-5.034,2.867-9.667,3.783-13.9,2.75
				c-2.366-0.633-4.283-1.649-5.75-3.05c-1.267-1.2-1.933-2.367-2-3.5c-0.167-1.667,0.917-2.933,3.25-3.8
				C343.633,22.483,345.45,22.267,347.75,22.3z"/>
		</g>
	</g>
	<g>
		<g>
			<path style="fill-rule:evenodd;clip-rule:evenodd;fill:#895D60;" d="M270.05,43.9c0.867-1.034,2.384-1.834,4.55-2.4
				c0.803-0.194,1.561-0.336,2.275-0.425c-0.665,0.246-1.757,0.788-3.275,1.625c-2.467,1.333-3.15,2.434-2.05,3.3
				c1.267,0.9,3.884,1.1,7.85,0.6c4.267-0.533,8.067-1.767,11.4-3.699c-1.3,1.267-2.883,2.483-4.75,3.649
				c-3.733,2.4-6.983,3.517-9.75,3.351c-3.066-0.101-5.167-0.817-6.3-2.15C268.967,46.517,268.983,45.233,270.05,43.9z"/>
		</g>
	</g>
	<g>
		<g>
			<path style="fill-rule:evenodd;clip-rule:evenodd;fill:#895D60;" d="M239.95,49.2c0.233,0.5,1,0.767,2.3,0.8
				c1.367,0.033,2.55-0.233,3.55-0.8c-0.367,0.366-0.867,0.717-1.5,1.05c-1.233,0.634-2.316,0.816-3.25,0.55
				c-1-0.3-1.583-0.7-1.75-1.2c-0.167-0.433-0.017-0.8,0.45-1.1c0.533-0.366,1.3-0.45,2.3-0.25c-0.433,0.033-0.85,0.1-1.25,0.2
				C240.033,48.65,239.75,48.9,239.95,49.2z"/>
		</g>
	</g>
	<g>
		<g>
			<path style="fill-rule:evenodd;clip-rule:evenodd;fill:#895D60;" d="M198.7,49.1c1.033,1.067,3.316,1.25,6.85,0.551
				c3.733-0.733,6.85-2.184,9.35-4.351c-0.9,1.233-2.083,2.467-3.55,3.7c-2.967,2.533-5.783,3.733-8.45,3.6
				c-2.933-0.133-4.833-0.816-5.7-2.05c-0.767-1.066-0.617-2.166,0.45-3.3c0.8-0.833,2.067-1.467,3.8-1.9
				c0.9-0.233,1.7-0.383,2.4-0.449c-1.133,0.399-2.217,0.866-3.25,1.399C198.567,47.4,197.933,48.333,198.7,49.1z"/>
		</g>
	</g>
	<g>
		<g>
			<path style="fill-rule:evenodd;clip-rule:evenodd;fill:#895D60;" d="M169.35,51.3c-0.268,0.052-1.251,0.435-2.95,1.15
				c-2.133,0.866-3.783,1.35-4.95,1.45c-1.6,0-2.7-0.334-3.3-1c-0.533-0.634-0.533-1.301,0-2c0.626-0.813,1.809-1.33,3.55-1.551
				c-0.349,0.114-0.932,0.414-1.75,0.9c-1.233,0.733-1.567,1.316-1,1.75c0.566,0.4,1.9,0.45,4,0.15
				C166.478,51.632,168.611,51.349,169.35,51.3z"/>
		</g>
	</g>
	<g>
		<g>
			<path style="fill-rule:evenodd;clip-rule:evenodd;fill:#895D60;" d="M136.8,52.3c-1.433,1.4-2.8,2.05-4.1,1.95
				c-0.9-0.066-1.5-0.3-1.8-0.7c-0.233-0.366-0.183-0.733,0.15-1.1c0.434-0.4,1.133-0.617,2.1-0.65c-0.4,0.101-0.767,0.233-1.1,0.4
				c-0.667,0.333-0.883,0.633-0.65,0.899c0.333,0.334,1.067,0.417,2.2,0.25C134.767,53.217,135.833,52.866,136.8,52.3z"/>
		</g>
	</g>
	<g>
		<g>
			<path style="fill-rule:evenodd;clip-rule:evenodd;fill:#895D60;" d="M306.45,22.1c-0.6,0.3-1.15,0.6-1.65,0.9
				c-1.033,0.633-1.35,1.15-0.95,1.55c0.6,0.534,1.833,0.55,3.7,0.05c1.733-0.467,3.483-1.233,5.25-2.3
				c-0.633,0.6-1.35,1.233-2.15,1.9c-1.6,1.3-3.066,2-4.4,2.1c-1.633,0.034-2.7-0.283-3.2-0.95c-0.466-0.6-0.4-1.2,0.2-1.8
				C303.883,22.85,304.95,22.367,306.45,22.1z"/>
		</g>
	</g>
	<g>
		<g>
			<path style="fill-rule:evenodd;clip-rule:evenodd;fill:#895D60;" d="M263.8,35.6c-0.667,0.667-1.517,1.301-2.55,1.9
				c-2.1,1.2-3.95,1.634-5.55,1.3c-1.733-0.333-2.817-0.934-3.25-1.8c-0.4-0.733-0.233-1.4,0.5-2c0.566-0.4,1.417-0.65,2.55-0.75
				c0.567-0.066,1.083-0.083,1.55-0.05c-0.767,0.133-1.483,0.316-2.15,0.55c-1.367,0.467-1.85,0.967-1.45,1.5
				c0.533,0.767,1.917,1.116,4.15,1.05C259.967,37.2,262.033,36.634,263.8,35.6z"/>
		</g>
	</g>
	<g>
		<g>
			<path style="fill-rule:evenodd;clip-rule:evenodd;fill:#895D60;" d="M223.45,40.6c-0.434-0.767-0.25-1.5,0.55-2.199
				c0.933-0.801,2.35-1.184,4.25-1.15c-0.767,0.2-1.517,0.434-2.25,0.7c-1.433,0.6-1.917,1.184-1.45,1.75
				c0.633,0.8,2.167,1.066,4.6,0.8c2.567-0.3,4.717-1.134,6.45-2.5c-0.633,0.8-1.467,1.583-2.5,2.35
				c-2.133,1.601-4.117,2.25-5.95,1.95C225.183,42.033,223.95,41.467,223.45,40.6z"/>
		</g>
	</g>
	<g>
		<g>
			<path style="fill-rule:evenodd;clip-rule:evenodd;fill:#895D60;" d="M229.05,51.3c-1,0.601-1.9,0.8-2.7,0.601
				c-0.867-0.2-1.383-0.5-1.55-0.9c-0.133-0.333-0.017-0.65,0.35-0.95c0.467-0.3,1.1-0.399,1.9-0.3c-0.333,0.033-0.667,0.1-1,0.2
				c-0.633,0.2-0.867,0.434-0.7,0.7c0.233,0.399,0.883,0.583,1.95,0.55c1.133-0.033,2.133-0.316,3-0.851
				C229.967,50.684,229.55,51,229.05,51.3z"/>
		</g>
	</g>
	<g>
		<g>
			<path style="fill-rule:evenodd;clip-rule:evenodd;fill:#895D60;" d="M337.6,46.5c-1.067,0.167-2.083,0.417-3.05,0.75
				c-1.966,0.634-2.667,1.35-2.1,2.15c0.767,1.1,2.75,1.616,5.95,1.55c3.4-0.101,6.367-0.917,8.9-2.45
				c-0.966,0.967-2.2,1.884-3.7,2.75c-2.967,1.767-5.633,2.384-8,1.85c-2.567-0.566-4.133-1.449-4.7-2.649
				c-0.5-1.066-0.183-2.017,0.95-2.851c0.8-0.6,2-0.966,3.6-1.1C336.25,46.434,336.967,46.434,337.6,46.5z"/>
		</g>
	</g>
	<g>
		<g>
			<path style="fill-rule:evenodd;clip-rule:evenodd;fill:#895D60;" d="M310.8,37.5c0.767-0.767,2.034-1.184,3.8-1.25
				c-0.7,0.2-1.367,0.45-2,0.75c-1.267,0.6-1.667,1.134-1.2,1.6c0.6,0.601,1.95,0.784,4.05,0.551c2.167-0.267,4.117-0.917,5.85-1.95
				c-0.633,0.666-1.433,1.3-2.4,1.899c-1.9,1.233-3.6,1.784-5.1,1.65c-1.667-0.134-2.75-0.566-3.25-1.3
				C310.083,38.783,310.167,38.134,310.8,37.5z"/>
		</g>
	</g>
	<g>
		<g>
			<path style="fill-rule:evenodd;clip-rule:evenodd;fill:#895D60;" d="M313.8,51.85c-1.3,1.301-2.55,1.9-3.75,1.801
				c-0.833-0.067-1.383-0.284-1.65-0.65c-0.2-0.366-0.15-0.7,0.15-1c0.367-0.366,1-0.566,1.9-0.6c-0.367,0.1-0.7,0.216-1,0.35
				c-0.633,0.3-0.833,0.566-0.6,0.8c0.3,0.334,0.967,0.434,2,0.3C311.95,52.717,312.934,52.384,313.8,51.85z"/>
		</g>
	</g>
	<g>
		<g>
			<path style="fill-rule:evenodd;clip-rule:evenodd;fill:#895D60;" d="M278.25,30.95c0.5-0.367,1.233-0.5,2.2-0.4
				c-0.4,0.066-0.784,0.167-1.15,0.3c-0.767,0.233-1.05,0.5-0.85,0.801c0.267,0.466,1.05,0.683,2.35,0.649
				c1.333-0.066,2.5-0.416,3.5-1.05c-0.366,0.366-0.85,0.733-1.45,1.1c-1.167,0.733-2.233,1-3.2,0.801
				c-1.033-0.233-1.65-0.584-1.85-1.051C277.633,31.667,277.783,31.283,278.25,30.95z"/>
		</g>
	</g>
	<g>
		<g>
			<path style="fill-rule:evenodd;clip-rule:evenodd;fill:#895D60;" d="M366.95,7.65c-1,0.867-2.2,1.7-3.6,2.5
				c-2.767,1.667-5.283,2.317-7.55,1.95c-2.566-0.6-4.083-1.517-4.55-2.75c-0.4-1.033-0.017-1.9,1.15-2.6
				c0.733-0.433,1.817-0.717,3.25-0.85c0.7-0.066,1.35-0.1,1.95-0.1c-0.967,0.233-1.883,0.483-2.75,0.75
				c-1.767,0.6-2.434,1.25-2,1.95c0.633,1.167,2.483,1.65,5.55,1.45C361.434,9.75,364.283,8.983,366.95,7.65z"/>
		</g>
	</g>
	<g>
		<g>
			<path style="fill-rule:evenodd;clip-rule:evenodd;fill:#895D60;" d="M333.35,13.6c0.7,0.533,2.417,0.467,5.15-0.2
				c-1.566,0.934-2.9,1.367-4,1.3c-0.8-0.1-1.333-0.333-1.6-0.7c-0.233-0.367-0.183-0.7,0.15-1c0.367-0.367,1.017-0.55,1.95-0.55
				c-0.367,0.1-0.717,0.216-1.05,0.35C333.317,13.1,333.117,13.367,333.35,13.6z"/>
		</g>
	</g>
	<g>
		<g>
			<path style="fill-rule:evenodd;clip-rule:evenodd;fill:#895D60;" d="M408.65,34.25c3.7-0.134,7.2-0.8,10.5-2
				c-1.3,0.9-2.833,1.767-4.6,2.6c-3.566,1.667-6.517,2.351-8.85,2.051c-2.667-0.267-4.467-1.034-5.4-2.301
				c-0.833-1.166-0.733-2.3,0.3-3.399c1.201-1.293,3.268-1.977,6.2-2.05c-0.607,0.177-1.59,0.576-2.95,1.199
				c-2.3,1.034-2.983,1.967-2.05,2.801C402.867,33.983,405.15,34.35,408.65,34.25z"/>
		</g>
	</g>
	<g>
		<g>
			<path style="fill-rule:evenodd;clip-rule:evenodd;fill:#895D60;" d="M386.35,12.2c0.5,0.466,1.7,0.816,3.6,1.05
				c1.9,0.233,3.833,0.267,5.8,0.1c-3.2,1.233-5.717,1.6-7.55,1.1c-1.367-0.333-2.267-0.85-2.7-1.55c-0.4-0.667-0.3-1.267,0.3-1.8
				c0.694-0.664,1.852-0.905,3.475-0.725c-0.361,0.054-0.902,0.196-1.625,0.425C386.317,11.2,385.883,11.667,386.35,12.2z"/>
		</g>
	</g>
	<g>
		<g>
			<path style="fill-rule:evenodd;clip-rule:evenodd;fill:#895D60;" d="M392.45,28.65c-0.767,0.6-1.684,1.183-2.75,1.75
				c-2.067,1.133-3.883,1.566-5.45,1.3c-1.767-0.3-2.883-0.867-3.35-1.7c-0.367-0.733-0.183-1.4,0.55-2
				c0.867-0.733,2.216-1.05,4.05-0.95c-0.767,0.167-1.483,0.367-2.15,0.6c-1.333,0.533-1.8,1.067-1.4,1.6
				c0.6,0.667,1.983,0.967,4.15,0.9C388.4,30.05,390.517,29.55,392.45,28.65z"/>
		</g>
	</g>
	<g>
		<g>
			<path style="fill-rule:evenodd;clip-rule:evenodd;fill:#895D60;" d="M380.8,51.15c-0.4,0.433-0.917,0.85-1.55,1.25
				c-1.2,0.8-2.283,1.149-3.25,1.05c-1.066-0.101-1.75-0.384-2.05-0.851c-0.3-0.399-0.25-0.816,0.15-1.25
				c0.5-0.466,1.316-0.716,2.45-0.75c-0.466,0.134-0.9,0.284-1.3,0.45c-0.8,0.4-1.05,0.75-0.75,1.05
				c0.367,0.367,1.217,0.467,2.55,0.301C378.45,52.233,379.7,51.816,380.8,51.15z"/>
		</g>
	</g>
	<g>
		<g>
			<path style="fill-rule:evenodd;clip-rule:evenodd;fill:#895D60;" d="M376.15,39.9c-1.8,1-3.4,1.267-4.8,0.8
				c-1.5-0.5-2.367-1.117-2.6-1.851c-0.233-0.633,0.017-1.166,0.75-1.6c0.833-0.467,1.95-0.55,3.35-0.25
				c-0.6,0.033-1.184,0.116-1.75,0.25c-1.167,0.267-1.617,0.634-1.35,1.1c0.333,0.733,1.45,1.134,3.35,1.2
				c2,0.101,3.733-0.3,5.2-1.2C377.733,38.884,377.017,39.4,376.15,39.9z"/>
		</g>
	</g>
	<g>
		<g>
			<path style="fill-rule:evenodd;clip-rule:evenodd;fill:#895D60;" d="M478.8,43.65c-1.366,1.399-3.1,2.767-5.2,4.1
				c-4.167,2.634-8,3.6-11.5,2.9c-3.8-0.9-6.067-2.267-6.8-4.101c-0.633-1.566-0.1-2.883,1.6-3.95c1.167-0.733,2.85-1.183,5.05-1.35
				c1.1-0.1,2.083-0.134,2.95-0.1c-1.466,0.3-2.883,0.666-4.25,1.1c-2.7,0.866-3.7,1.85-3,2.95c1,1.767,3.817,2.533,8.45,2.3
				C470.934,47.233,475.167,45.95,478.8,43.65z"/>
		</g>
	</g>
	<g>
		<g>
			<path style="fill-rule:evenodd;clip-rule:evenodd;fill:#895D60;" d="M418.05,49.05c-1.466,0.8-1.917,1.483-1.35,2.05
				c0.767,0.7,2.417,0.851,4.95,0.45c2.633-0.434,5.017-1.316,7.15-2.649c-0.833,0.833-1.816,1.649-2.95,2.449
				c-2.267,1.634-4.317,2.4-6.15,2.301c-2.1-0.101-3.467-0.601-4.1-1.5c-0.567-0.801-0.467-1.601,0.3-2.4
				c0.934-0.967,2.45-1.533,4.55-1.7C419.617,48.35,418.817,48.684,418.05,49.05z"/>
		</g>
	</g>
	<g>
		<g>
			<path style="fill-rule:evenodd;clip-rule:evenodd;fill:#895D60;" d="M399.6,46.8c-1.133,1.7-2.417,2.5-3.85,2.4
				c-0.933-0.033-1.55-0.25-1.85-0.65c-0.233-0.366-0.183-0.733,0.15-1.1c0.4-0.434,1.083-0.667,2.05-0.7
				c-0.367,0.134-0.717,0.283-1.05,0.45c-0.667,0.333-0.883,0.616-0.65,0.85c0.333,0.367,1.083,0.434,2.25,0.2
				C397.85,48.017,398.833,47.533,399.6,46.8z"/>
		</g>
	</g>
	<g>
		<g>
			<path style="fill-rule:evenodd;clip-rule:evenodd;fill:#895D60;" d="M452.8,18.05c-1.167,1.2-2.65,2.35-4.45,3.45
				c-3.6,2.133-6.867,2.867-9.8,2.2c-3.133-0.767-5.033-1.917-5.7-3.45c-0.567-1.333-0.133-2.467,1.3-3.4
				c0.967-0.633,2.417-1.017,4.35-1.15c0.967-0.034,1.833-0.034,2.6,0c-1.3,0.233-2.533,0.533-3.7,0.9
				c-2.367,0.7-3.233,1.533-2.6,2.5c0.867,1.433,3.267,2.1,7.2,2C446.133,21,449.733,19.983,452.8,18.05z"/>
		</g>
	</g>
	<g>
		<g>
			<path style="fill-rule:evenodd;clip-rule:evenodd;fill:#895D60;" d="M413.95,18.05c-0.567,0.4-1.233,0.75-2,1.05
				c-1.534,0.667-2.85,0.85-3.95,0.55c-1.167-0.333-1.883-0.816-2.15-1.45c-0.233-0.534-0.083-0.983,0.45-1.35
				c0.667-0.434,1.65-0.567,2.95-0.4c-0.533,0.066-1.05,0.167-1.55,0.3c-1,0.267-1.367,0.6-1.1,1c0.333,0.533,1.283,0.833,2.85,0.9
				C411.05,18.75,412.55,18.55,413.95,18.05z"/>
		</g>
	</g>
	<g>
		<g>
			<path style="fill-rule:evenodd;clip-rule:evenodd;fill:#895D60;" d="M441.45,36.65c0.6,0.533,1.917,0.733,3.95,0.6
				c2.133-0.2,4.15-0.717,6.05-1.55c-0.733,0.6-1.6,1.166-2.6,1.7c-1.967,1.066-3.667,1.533-5.1,1.399
				c-1.633-0.166-2.717-0.616-3.25-1.35c-0.433-0.667-0.333-1.316,0.3-1.95c0.767-0.733,2.05-1.134,3.85-1.2
				c-0.733,0.2-1.417,0.45-2.05,0.75C441.367,35.65,440.983,36.184,441.45,36.65z"/>
		</g>
	</g>
	<g>
		<g>
			<path style="fill-rule:evenodd;clip-rule:evenodd;fill:#895D60;" d="M443.15,51.95c1.4,0.267,2.684,0.184,3.85-0.25
				c-0.5,0.3-1.083,0.583-1.75,0.85c-1.333,0.467-2.467,0.483-3.4,0.05c-1-0.466-1.567-0.966-1.7-1.5
				c-0.066-0.466,0.167-0.816,0.7-1.05c0.633-0.267,1.433-0.25,2.4,0.05c-0.433-0.033-0.867-0.017-1.3,0.051
				c-0.833,0.066-1.184,0.283-1.05,0.649C441.133,51.333,441.883,51.717,443.15,51.95z"/>
		</g>
	</g>
	<g>
		<g>
			<path style="fill-rule:evenodd;clip-rule:evenodd;fill:#895D60;" d="M513.75,44.4c0.533-0.4,1.333-0.551,2.4-0.45
				c-0.434,0.066-0.867,0.184-1.301,0.35c-0.8,0.267-1.083,0.566-0.85,0.9c0.333,0.467,1.184,0.666,2.55,0.6
				c1.434-0.066,2.684-0.45,3.75-1.149c-0.399,0.433-0.916,0.833-1.55,1.199c-1.233,0.801-2.366,1.101-3.4,0.9
				c-1.1-0.233-1.767-0.6-2-1.1C513.117,45.184,513.25,44.767,513.75,44.4z"/>
		</g>
	</g>
	<g>
		<g>
			<path style="fill-rule:evenodd;clip-rule:evenodd;fill:#895D60;" d="M493.15,30.25c1.967-0.134,4.116-0.5,6.449-1.1
				c-0.833,0.5-1.8,1-2.899,1.5c-2.134,1-3.9,1.433-5.3,1.3c-1.7-0.2-2.817-0.684-3.351-1.45c-0.467-0.7-0.366-1.384,0.3-2.05
				c0.768-0.8,2.134-1.217,4.101-1.25c-0.8,0.2-1.533,0.45-2.2,0.75c-1.333,0.6-1.75,1.166-1.25,1.7
				C489.6,30.184,490.983,30.384,493.15,30.25z"/>
		</g>
	</g>
	<g>
		<g>
			<path style="fill-rule:evenodd;clip-rule:evenodd;fill:#895D60;" d="M472,24.15c-0.833,0.1-1.183,0.333-1.05,0.7
				c0.2,0.467,0.933,0.867,2.2,1.2c1.367,0.333,2.7,0.4,4,0.2c-0.566,0.233-1.2,0.417-1.9,0.55c-1.4,0.3-2.533,0.25-3.4-0.15
				c-1-0.5-1.55-1.017-1.65-1.55c-0.1-0.467,0.133-0.817,0.7-1.05c0.633-0.267,1.45-0.233,2.45,0.1
				C472.883,24.117,472.434,24.117,472,24.15z"/>
		</g>
	</g>
	<g>
		<g>
			<path style="fill-rule:evenodd;clip-rule:evenodd;fill:#895D60;" d="M494.55,47.35c1.5-0.399,2.917-1,4.25-1.8
				c-0.5,0.5-1.083,1-1.75,1.5c-1.3,1.033-2.467,1.584-3.5,1.65c-1.166,0.133-1.983-0.05-2.45-0.55
				c-0.433-0.434-0.466-0.917-0.1-1.45c0.467-0.634,1.35-1.101,2.65-1.4c-0.5,0.267-0.967,0.55-1.4,0.851
				c-0.833,0.6-1.05,1.033-0.65,1.3C492.1,47.75,493.083,47.717,494.55,47.35z"/>
		</g>
	</g>
	<g>
		<g>
			<path style="fill-rule:evenodd;clip-rule:evenodd;fill:#895D60;" d="M511.1,52.2c-0.3,0.467-0.716,0.967-1.25,1.5
				c-1.066,1.033-2.116,1.55-3.149,1.55c-1.167,0.033-1.917-0.184-2.25-0.65c-0.3-0.399-0.25-0.816,0.149-1.25
				c0.467-0.533,1.217-0.866,2.25-1c-0.399,0.167-0.783,0.351-1.149,0.551c-0.767,0.466-1,0.833-0.7,1.1
				c0.434,0.4,1.316,0.434,2.65,0.1C509.05,53.733,510.2,53.1,511.1,52.2z"/>
		</g>
	</g>
	<g>
		<g>
			<path style="fill-rule:evenodd;clip-rule:evenodd;fill:#895D60;" d="M613.8,45.4c-1.066,1.066-2.333,2.116-3.8,3.149
				c-2.967,2.066-5.65,3.033-8.05,2.9c-2.7-0.167-4.45-0.834-5.25-2c-0.733-1-0.601-2.033,0.399-3.101
				c0.768-0.767,1.983-1.35,3.65-1.75c0.833-0.199,1.6-0.316,2.3-0.35c-1.133,0.366-2.183,0.8-3.149,1.3
				c-1.934,1-2.533,1.851-1.801,2.55c0.967,0.934,3.101,1.15,6.4,0.65C607.967,48.25,611.066,47.134,613.8,45.4z"/>
		</g>
	</g>
	<g>
		<g>
			<path style="fill-rule:evenodd;clip-rule:evenodd;fill:#895D60;" d="M577.3,46.7c-0.899,0.899-2,1.767-3.3,2.6
				c-2.6,1.7-4.917,2.467-6.95,2.3c-2.267-0.199-3.75-0.816-4.45-1.85c-0.6-0.9-0.466-1.783,0.4-2.65
				c1.033-1.033,2.767-1.583,5.2-1.649c-0.967,0.267-1.884,0.6-2.75,1c-1.7,0.833-2.233,1.566-1.601,2.2
				c0.834,0.833,2.65,1.066,5.45,0.699C572.3,48.983,574.967,48.1,577.3,46.7z"/>
		</g>
	</g>
	<g>
		<g>
			<path style="fill-rule:evenodd;clip-rule:evenodd;fill:#895D60;" d="M544.15,33.8c-0.567,0.3-0.7,0.533-0.4,0.7
				c0.1,0.033,0.6,0.1,1.5,0.2c0.934,0.066,1.733,0.217,2.4,0.45c-1.434,0.066-2.45,0.1-3.051,0.1c-0.5-0.033-0.883-0.167-1.149-0.4
				c-0.233-0.233-0.267-0.483-0.101-0.75c0.167-0.267,0.518-0.449,1.051-0.55c0.467-0.1,0.699-0.116,0.699-0.05
				C545.033,33.4,544.717,33.5,544.15,33.8z"/>
		</g>
	</g>
	<g>
		<g>
			<path style="fill-rule:evenodd;clip-rule:evenodd;fill:#895D60;" d="M512,32c-0.3-0.333-0.316-0.7-0.05-1.1
				c0.267-0.334,0.733-0.567,1.399-0.7c0.733-0.167,1.051-0.2,0.95-0.101c-0.066-0.1-0.483,0.051-1.25,0.45
				c-0.767,0.367-0.967,0.684-0.6,0.95c0.5,0.267,2.417,0.4,5.75,0.4c-0.033,0-0.601,0.116-1.7,0.35c-1.267,0.3-2.2,0.434-2.8,0.4
				C512.934,32.583,512.367,32.366,512,32z"/>
		</g>
	</g>
	<g>
		<g>
			<path style="fill-rule:evenodd;clip-rule:evenodd;fill:#895D60;" d="M542.15,48.85c-0.767,0.233-1.017,0.5-0.75,0.801
				c0.333,0.3,1.066,0.517,2.199,0.649c1.034,0.101,2.2,0.117,3.5,0.05c-1.933,0.667-3.449,0.9-4.55,0.7
				c-0.833-0.2-1.383-0.517-1.649-0.95c-0.233-0.433-0.167-0.8,0.199-1.1c0.434-0.4,1.217-0.55,2.351-0.45
				C542.983,48.616,542.55,48.717,542.15,48.85z"/>
		</g>
	</g>
	<g>
		<g>
			<path style="fill-rule:evenodd;clip-rule:evenodd;fill:#895D60;" d="M590.4,35.8c-2.167-0.267-3.601-0.934-4.301-2
				c-0.6-0.967-0.466-1.85,0.4-2.649c0.667-0.634,1.767-1.067,3.3-1.301c0.767-0.1,1.45-0.149,2.05-0.149
				c-1,0.233-1.949,0.533-2.85,0.899c-1.733,0.733-2.283,1.434-1.65,2.101c0.768,0.8,2.567,1.116,5.4,0.95
				c2.967-0.167,5.7-0.817,8.2-1.95c-0.967,0.8-2.134,1.566-3.5,2.3C594.717,35.467,592.367,36.066,590.4,35.8z"/>
		</g>
	</g>
	<g>
		<g>
			<path style="fill-rule:evenodd;clip-rule:evenodd;fill:#895D60;" d="M565.2,34.45c1.934-0.267,3.633-0.8,5.1-1.601
				c-2.433,2.134-4.55,3.167-6.35,3.101c-1.233,0.033-2.15-0.2-2.75-0.7c-0.533-0.5-0.601-1.066-0.2-1.7c0.333-0.533,1-0.967,2-1.3
				c1-0.3,1.467-0.384,1.4-0.25c-0.067-0.167-0.684,0.116-1.851,0.85c-1.1,0.7-1.366,1.217-0.8,1.551
				C562.384,34.667,563.533,34.684,565.2,34.45z"/>
		</g>
	</g>
	<g>
		<g>
			<path style="fill-rule:evenodd;clip-rule:evenodd;fill:#895D60;" d="M660.25,49.1c-2,1.301-3.816,1.817-5.45,1.551
				c-1.8-0.267-2.916-0.817-3.35-1.65c-0.4-0.7-0.233-1.366,0.5-2c0.866-0.733,2.2-1.066,4-1c-0.733,0.167-1.434,0.384-2.101,0.65
				c-1.333,0.5-1.8,1.017-1.399,1.55c0.566,0.733,1.95,1.017,4.149,0.85c2.367-0.2,4.434-0.85,6.2-1.95
				C662.134,47.8,661.283,48.467,660.25,49.1z"/>
		</g>
	</g>
	<g>
		<g>
			<path style="fill-rule:evenodd;clip-rule:evenodd;fill:#895D60;" d="M626.3,55.3c-1.5,1.3-2.983,1.917-4.45,1.851
				c-1.6-0.167-2.583-0.601-2.949-1.301c-0.334-0.6-0.184-1.149,0.449-1.649c0.7-0.566,1.733-0.9,3.101-1
				c-0.566,0.2-1.117,0.416-1.65,0.649c-1,0.5-1.35,0.95-1.05,1.351c0.5,0.666,1.667,0.816,3.5,0.45
				c1.934-0.367,3.55-1.134,4.85-2.301C627.634,54.017,627.033,54.667,626.3,55.3z"/>
		</g>
	</g>
	<g>
		<g>
			<path style="fill-rule:evenodd;clip-rule:evenodd;fill:#895D60;" d="M634.45,34.8c-1.7,1.066-3.083,1.634-4.15,1.7
				c-0.833,0.033-1.416-0.134-1.75-0.5c-0.333-0.333-0.366-0.684-0.1-1.05c0.2-0.3,0.616-0.55,1.25-0.75
				c0.333-0.101,0.616-0.167,0.85-0.2c-0.399,0.167-0.767,0.35-1.1,0.55c-0.7,0.4-0.884,0.717-0.55,0.95
				C629.7,35.9,631.55,35.667,634.45,34.8z"/>
		</g>
	</g>
	<g>
		<g>
			<path style="fill-rule:evenodd;clip-rule:evenodd;fill:#895D60;" d="M621.8,28.65c-0.166,0.2-0.399,0.383-0.7,0.55
				c-0.566,0.333-1.083,0.399-1.55,0.2c-0.5-0.167-0.783-0.367-0.85-0.601c-0.033-0.2,0.083-0.367,0.35-0.5s0.601-0.15,1-0.05
				c-0.166,0-0.333,0.017-0.5,0.05c-0.366,0.067-0.533,0.184-0.5,0.35c0.101,0.267,0.467,0.417,1.101,0.45
				C620.783,29.134,621.333,28.983,621.8,28.65z"/>
		</g>
	</g>
	<g>
		<g>
			<path style="fill-rule:evenodd;clip-rule:evenodd;fill:#895D60;" d="M706.6,44.35c2.867-0.366,5.434-1.233,7.7-2.6
				c-0.866,0.866-1.916,1.717-3.149,2.55c-2.533,1.634-4.783,2.367-6.75,2.2c-2.2-0.2-3.634-0.783-4.301-1.75
				c-0.566-0.9-0.433-1.767,0.4-2.6c0.967-1,2.634-1.534,5-1.601c-0.934,0.267-1.816,0.601-2.65,1
				c-1.666,0.767-2.183,1.467-1.55,2.101C702.1,44.45,703.867,44.684,706.6,44.35z"/>
		</g>
	</g>
	<g>
		<g>
			<path style="fill-rule:evenodd;clip-rule:evenodd;fill:#895D60;" d="M675.85,32.95c0.768-0.8,2.134-1.217,4.101-1.25
				c-0.8,0.2-1.533,0.45-2.2,0.75c-1.333,0.6-1.75,1.166-1.25,1.7c0.6,0.566,1.983,0.767,4.15,0.6c1.899-0.134,4.066-0.5,6.5-1.1
				c-0.867,0.5-1.834,1-2.9,1.5c-2.167,0.966-3.95,1.399-5.35,1.3c-1.7-0.2-2.817-0.684-3.351-1.45
				C675.083,34.3,675.184,33.616,675.85,32.95z"/>
		</g>
	</g>
	<g>
		<g>
			<path style="fill-rule:evenodd;clip-rule:evenodd;fill:#895D60;" d="M687.6,51.05c-0.666,0.334-1.399,0.65-2.199,0.95
				c-1.634,0.634-2.95,0.917-3.95,0.85c-1.267-0.166-2.083-0.533-2.45-1.1c-0.366-0.533-0.3-1.05,0.2-1.55
				c0.528-0.56,1.445-0.843,2.75-0.851c-0.267,0.06-0.716,0.226-1.351,0.5c-1,0.467-1.316,0.884-0.949,1.25
				C680.45,51.833,683.1,51.816,687.6,51.05z"/>
		</g>
	</g>
	<g>
		<g>
			<path style="fill-rule:evenodd;clip-rule:evenodd;fill:#895D60;" d="M657.45,34.6c-2.066,1.434-3.783,2.167-5.15,2.2
				c-1.066,0.033-1.816-0.184-2.25-0.649c-0.399-0.434-0.416-0.884-0.05-1.351c0.434-0.566,1.316-0.934,2.65-1.1
				c-0.533,0.2-1,0.416-1.4,0.649c-0.866,0.5-1.1,0.884-0.7,1.15c0.467,0.267,1.384,0.316,2.75,0.15
				C654.634,35.45,656.017,35.1,657.45,34.6z"/>
		</g>
	</g>
	<g>
		<g>
			<path style="fill-rule:evenodd;clip-rule:evenodd;fill:#895D60;" d="M748,48.95c-1.366,0.366-1.883,0.833-1.55,1.399
				c0.434,0.867,1.8,1.317,4.1,1.351c2.434,0.033,4.517-0.5,6.25-1.601c-0.666,0.667-1.533,1.301-2.6,1.9
				c-2.101,1.2-4,1.566-5.7,1.1c-1.8-0.533-2.866-1.233-3.2-2.1c-0.3-0.733-0.033-1.366,0.8-1.9c0.967-0.633,2.317-0.816,4.051-0.55
				C749.417,48.616,748.7,48.75,748,48.95z"/>
		</g>
	</g>
	<g>
		<g>
			<path style="fill-rule:evenodd;clip-rule:evenodd;fill:#895D60;" d="M721.5,56.25c-1.3-0.1-2.15-0.434-2.55-1
				c-0.333-0.533-0.25-1.033,0.25-1.5c0.566-0.6,1.533-0.934,2.899-1c-0.533,0.167-1.05,0.366-1.55,0.6
				c-0.967,0.467-1.267,0.884-0.899,1.25c0.467,0.467,1.5,0.601,3.1,0.4c1.7-0.2,3.217-0.7,4.55-1.5c-0.5,0.5-1.116,0.983-1.85,1.45
				C723.95,55.917,722.634,56.35,721.5,56.25z"/>
		</g>
	</g>
	<g>
		<g>
			<path style="fill-rule:evenodd;clip-rule:evenodd;fill:#895D60;" d="M742.15,38.35c-2.5,1.7-4.817,2.434-6.95,2.2
				c-2.367-0.399-3.816-1.149-4.351-2.25c-0.433-0.967-0.133-1.8,0.9-2.5c0.667-0.5,1.667-0.85,3-1.05
				c0.667-0.066,1.267-0.116,1.8-0.15c-0.899,0.267-1.75,0.551-2.55,0.851c-1.633,0.633-2.217,1.267-1.75,1.899
				c0.7,1.034,2.45,1.4,5.25,1.101c2.9-0.334,5.5-1.233,7.8-2.7C744.434,36.616,743.384,37.483,742.15,38.35z"/>
		</g>
	</g>
	<g>
		<g>
			<path style="fill-rule:evenodd;clip-rule:evenodd;fill:#895D60;" d="M722.45,30.75c-0.14,0.003-0.406,0.086-0.8,0.25
				c-0.5,0.2-0.65,0.384-0.45,0.55c0.5,0.434,1.75,0.434,3.75,0c-1.167,0.634-2.15,0.917-2.95,0.851
				c-0.566-0.067-0.95-0.25-1.15-0.551c-0.133-0.233-0.083-0.466,0.15-0.699C721.266,30.884,721.749,30.751,722.45,30.75z"/>
		</g>
	</g>
	<g>
		<g>
			<path style="fill-rule:evenodd;clip-rule:evenodd;fill:#895D60;" d="M787.7,40.75c2.033-0.366,3.899-1.033,5.6-2
				c-0.633,0.634-1.399,1.25-2.3,1.85c-1.8,1.2-3.366,1.801-4.7,1.801c-1.533-0.034-2.583-0.384-3.149-1.051
				c-0.533-0.6-0.533-1.216,0-1.85c0.633-0.767,1.85-1.267,3.649-1.5c-0.7,0.267-1.35,0.566-1.95,0.9
				c-1.166,0.666-1.482,1.199-0.949,1.6C784.5,41,785.767,41.083,787.7,40.75z"/>
		</g>
	</g>
	<g>
		<g>
			<path style="fill-rule:evenodd;clip-rule:evenodd;fill:#895D60;" d="M786.8,51.95c-0.533,0.533-1.183,1.05-1.95,1.55
				c-1.566,1-2.966,1.45-4.199,1.35c-1.367-0.1-2.25-0.466-2.65-1.1c-0.366-0.533-0.3-1.05,0.2-1.55
				c0.633-0.634,1.667-0.983,3.1-1.05c-0.566,0.166-1.116,0.383-1.649,0.649c-1,0.5-1.317,0.934-0.95,1.3
				c0.5,0.467,1.6,0.601,3.3,0.4C783.8,53.3,785.4,52.783,786.8,51.95z"/>
		</g>
	</g>
	<g>
		<g>
			<path style="fill-rule:evenodd;clip-rule:evenodd;fill:#895D60;" d="M759.25,34.7c0.467,0.633,1.617,0.883,3.45,0.75
				c1.934-0.134,3.633-0.667,5.1-1.601c-0.566,0.567-1.267,1.117-2.1,1.65c-1.667,1.1-3.184,1.517-4.55,1.25
				c-1.5-0.267-2.434-0.75-2.801-1.45c-0.3-0.566-0.133-1.1,0.5-1.6c0.733-0.601,1.834-0.867,3.301-0.8
				c-0.601,0.133-1.184,0.3-1.75,0.5C759.3,33.833,758.917,34.267,759.25,34.7z"/>
		</g>
	</g>
	<g>
		<g>
			<path style="fill-rule:evenodd;clip-rule:evenodd;fill:#895D60;" d="M772.3,44.1c-0.833,0.834-1.633,1.217-2.399,1.15
				c-0.533-0.033-0.884-0.184-1.051-0.45c-0.133-0.2-0.1-0.399,0.101-0.6c0.233-0.233,0.633-0.367,1.2-0.4
				c-0.233,0.066-0.45,0.15-0.65,0.25c-0.366,0.2-0.483,0.367-0.35,0.5c0.199,0.2,0.633,0.25,1.3,0.15
				C771.15,44.634,771.767,44.434,772.3,44.1z"/>
		</g>
	</g>
	<g>
		<g>
			<path style="fill-rule:evenodd;clip-rule:evenodd;fill:#895D60;" d="M858.3,45.8c-0.833,0.834-1.85,1.65-3.05,2.45
				c-2.434,1.6-4.6,2.316-6.5,2.15c-2.133-0.2-3.517-0.767-4.15-1.7c-0.6-0.834-0.482-1.667,0.351-2.5
				c0.967-0.967,2.583-1.483,4.85-1.55c-0.899,0.267-1.75,0.583-2.55,0.949c-1.6,0.767-2.1,1.45-1.5,2.051
				c0.733,0.767,2.434,0.983,5.1,0.649C853.617,47.967,856.1,47.134,858.3,45.8z"/>
		</g>
	</g>
	<g>
		<g>
			<path style="fill-rule:evenodd;clip-rule:evenodd;fill:#895D60;" d="M822.25,38.8c-1.4,0.4-2.45,0.617-3.15,0.65
				c-1.1-0.066-1.816-0.334-2.149-0.8c-0.333-0.434-0.283-0.867,0.149-1.301c0.437-0.498,1.203-0.781,2.301-0.85
				c-0.229,0.064-0.612,0.231-1.15,0.5c-0.8,0.4-1.033,0.75-0.7,1.05c0.334,0.3,1.2,0.4,2.601,0.3c1.933-0.131,3.282-0.164,4.05-0.1
				C824.035,38.259,823.385,38.441,822.25,38.8z"/>
		</g>
	</g>
	<g>
		<g>
			<path style="fill-rule:evenodd;clip-rule:evenodd;fill:#895D60;" d="M814.8,50.35c-1.3,1.301-2.55,1.9-3.75,1.801
				c-0.833-0.067-1.383-0.284-1.649-0.65c-0.2-0.366-0.15-0.7,0.149-1c0.367-0.366,1-0.566,1.9-0.6c-0.367,0.1-0.7,0.216-1,0.35
				c-0.634,0.3-0.833,0.566-0.601,0.8c0.301,0.334,0.967,0.434,2,0.3C812.95,51.217,813.934,50.884,814.8,50.35z"/>
		</g>
	</g>
	<g>
		<g>
			<path style="fill-rule:evenodd;clip-rule:evenodd;fill:#895D60;" d="M796.4,55.95c-0.233-0.3-0.2-0.601,0.1-0.9
				c0.333-0.366,0.9-0.566,1.7-0.6c-0.3,0.1-0.601,0.217-0.9,0.35c-0.533,0.3-0.7,0.55-0.5,0.75c0.267,0.334,0.884,0.384,1.851,0.15
				c1.033-0.2,1.85-0.617,2.449-1.25c-0.199,0.333-0.482,0.684-0.85,1.05c-0.767,0.7-1.533,1.033-2.3,1
				C797.15,56.467,796.634,56.283,796.4,55.95z"/>
		</g>
	</g>
	<g>
		<g>
			<path style="fill-rule:evenodd;clip-rule:evenodd;fill:#895D60;" d="M809.75,39.425c-0.431-0.07-1.896,0.088-4.4,0.476
				c-0.732,0.033-1.3-0.101-1.699-0.4c-0.434-0.333-0.533-0.717-0.301-1.15c0.167-0.433,0.634-0.767,1.4-1
				c0.7-0.199,1.05-0.233,1.05-0.1c-0.1-0.167-0.55,0.017-1.35,0.55c-0.8,0.5-0.967,0.867-0.5,1.101c0.033,0,0.783,0.017,2.25,0.05
				C807.521,38.95,808.704,39.108,809.75,39.425z"/>
		</g>
	</g>
	<g>
		<g>
			<path style="fill-rule:evenodd;clip-rule:evenodd;fill:#895D60;" d="M838.95,52.5c-1.4,0.7-2.583,0.833-3.55,0.4
				c-0.667-0.267-1.051-0.584-1.15-0.95c-0.1-0.334,0.033-0.601,0.4-0.8c0.399-0.2,0.967-0.184,1.699,0.05
				c-0.333,0-0.649,0.017-0.949,0.05c-0.567,0.066-0.783,0.217-0.65,0.45c0.167,0.333,0.684,0.6,1.55,0.8
				C837.233,52.667,838.117,52.667,838.95,52.5z"/>
		</g>
	</g>
	<g>
		<g>
			<path style="fill-rule:evenodd;clip-rule:evenodd;fill:#895D60;" d="M850.45,41.8c-1.667,1.101-3.101,1.601-4.3,1.5
				c-0.867-0.1-1.45-0.35-1.75-0.75c-0.233-0.399-0.184-0.767,0.149-1.1c0.434-0.4,1.15-0.601,2.15-0.601
				c-0.4,0.101-0.767,0.233-1.101,0.4c-0.699,0.3-0.933,0.583-0.699,0.85c0.333,0.267,1.05,0.384,2.149,0.351
				C848.184,42.384,849.316,42.167,850.45,41.8z"/>
		</g>
	</g>
	<g>
		<g>
			<path style="fill-rule:evenodd;clip-rule:evenodd;fill:#895D60;" d="M881.05,44.85c0.967-0.833,2.45-1.216,4.45-1.149
				c-0.833,0.2-1.616,0.45-2.35,0.75c-1.5,0.6-2.017,1.2-1.551,1.8c0.667,0.767,2.25,1.05,4.75,0.85
				c2.634-0.199,4.95-0.916,6.95-2.149c-0.767,0.767-1.717,1.517-2.85,2.25c-2.3,1.467-4.367,2.05-6.2,1.75
				c-2-0.3-3.25-0.9-3.75-1.8C880.033,46.316,880.217,45.55,881.05,44.85z"/>
		</g>
	</g>
	<g>
		<g>
			<path style="fill-rule:evenodd;clip-rule:evenodd;fill:#895D60;" d="M926.55,51.7c-0.267,0.5-0.666,1-1.2,1.5
				c-1.066,1.066-2.133,1.6-3.199,1.6c-1.134,0-1.867-0.233-2.2-0.7c-0.3-0.399-0.25-0.816,0.149-1.25
				c0.467-0.533,1.233-0.866,2.301-1c-0.434,0.167-0.834,0.367-1.2,0.601c-0.767,0.434-1,0.783-0.7,1.05
				c0.4,0.4,1.267,0.434,2.6,0.1C924.533,53.233,925.684,52.6,926.55,51.7z"/>
		</g>
	</g>
	<g>
		<g>
			<path style="fill-rule:evenodd;clip-rule:evenodd;fill:#895D60;" d="M876.95,51.55c-0.3-0.366-0.25-0.75,0.149-1.149
				c0.434-0.434,1.184-0.667,2.25-0.7c-0.433,0.133-0.833,0.283-1.199,0.45c-0.733,0.333-0.967,0.649-0.7,0.949
				c0.333,0.334,1.116,0.434,2.35,0.301c1.3-0.167,2.467-0.551,3.5-1.15c-0.399,0.4-0.883,0.783-1.45,1.15
				c-1.133,0.733-2.133,1.05-3,0.949C877.884,52.25,877.25,51.983,876.95,51.55z"/>
		</g>
	</g>
	<g>
		<g>
			<path style="fill-rule:evenodd;clip-rule:evenodd;fill:#895D60;" d="M909.3,47.3c-1.433,1.4-2.8,2.05-4.1,1.95
				c-0.9-0.066-1.5-0.3-1.8-0.7c-0.233-0.366-0.184-0.733,0.149-1.1c0.434-0.4,1.134-0.617,2.101-0.65
				c-0.4,0.101-0.767,0.233-1.101,0.4c-0.666,0.333-0.883,0.633-0.649,0.899c0.333,0.334,1.066,0.417,2.199,0.25
				C907.267,48.217,908.333,47.866,909.3,47.3z"/>
		</g>
	</g>
	<g>
		<g>
			<path style="fill-rule:evenodd;clip-rule:evenodd;fill:#895D60;" d="M945.15,53.7c0.248-0.083,0.48-0.158,0.699-0.226
				c-0.18,0.082-0.497,0.273-0.949,0.575c-0.667,0.434-0.834,0.75-0.5,0.95c0.366,0.233,1.1,0.233,2.199,0
				c1.134-0.267,2.2-0.667,3.2-1.2c-1.467,1.367-2.783,2.084-3.95,2.15c-0.833,0.033-1.433-0.117-1.8-0.45
				c-0.333-0.333-0.366-0.684-0.1-1.05C944.15,54.15,944.55,53.9,945.15,53.7z"/>
		</g>
	</g>
	<g>
		<g>
			<path style="fill-rule:evenodd;clip-rule:evenodd;fill:#895D60;" d="M868.3,42.2c-0.6,0.666-1.25,0.883-1.95,0.649
				c-0.433-0.233-0.649-0.449-0.649-0.649c0-0.134,0.116-0.233,0.35-0.3c0.267-0.101,0.533-0.101,0.8,0c-0.133,0-0.267,0-0.399,0
				c-0.3,0.033-0.45,0.116-0.45,0.25c0.066,0.233,0.367,0.366,0.9,0.399C867.467,42.616,867.934,42.5,868.3,42.2z"/>
		</g>
	</g>
	<g>
		<g>
			<path style="fill-rule:evenodd;clip-rule:evenodd;fill:#895D60;" d="M868.55,54.1c1.267-0.133,2.567-0.433,3.9-0.899
				c-1.934,1.333-3.55,2-4.851,2c-0.933,0.033-1.616-0.167-2.05-0.601c-0.366-0.399-0.399-0.816-0.1-1.25
				c0.233-0.333,0.733-0.616,1.5-0.85c0.366-0.1,0.7-0.184,1-0.25c-0.5,0.2-0.95,0.417-1.351,0.65c-0.767,0.466-0.966,0.833-0.6,1.1
				C866.467,54.233,867.316,54.267,868.55,54.1z"/>
		</g>
	</g>
	<g>
		<g>
			<path style="fill-rule:evenodd;clip-rule:evenodd;fill:#895D60;" d="M828.55,44.15c1.567-0.367,2.983-0.9,4.25-1.601
				c-2,1.834-3.75,2.816-5.25,2.95c-1.066,0.134-1.85,0-2.35-0.4c-0.5-0.366-0.601-0.833-0.3-1.399
				c0.233-0.467,0.767-0.884,1.6-1.25c0.767-0.334,1.15-0.45,1.15-0.351c-0.101-0.1-0.601,0.184-1.5,0.851
				c-0.867,0.666-1.051,1.133-0.551,1.399C826.134,44.517,827.117,44.45,828.55,44.15z"/>
		</g>
	</g>
</g>
</svg>
