<?xml version="1.0" encoding="iso-8859-1"?>
<!-- Generator: Adobe Illustrator 15.1.0, SVG Export Plug-In . SVG Version: 6.00 Build 0)  -->
<!DOCTYPE svg PUBLIC "-//W3C//DTD SVG 1.1//EN" "http://www.w3.org/Graphics/SVG/1.1/DTD/svg11.dtd">
<svg version="1.1" id="buildings" xmlns="http://www.w3.org/2000/svg" xmlns:xlink="http://www.w3.org/1999/xlink" x="0px" y="0px"
	 width="510.5px" height="124.9px" viewBox="0 0 510.5 124.9" style="enable-background:new 0 0 510.5 124.9;" xml:space="preserve"
	>
<g>
	<path style="fill-rule:evenodd;clip-rule:evenodd;fill:#919E9C;" d="M503.5,81.35c-29.333,5.334-62.783,11-100.35,17
		c-75.167,12-133.384,19.667-174.65,23c-41.233,3.334-76.6,4.334-106.1,3c-9.233-0.399-17.316-1.017-24.25-1.85l-7.65-1.15l-3-8
		l5.9,1c5.333,0.733,11.583,1.284,18.75,1.65c22.833,1.167,50.283,0.283,82.35-2.65c32.1-2.899,94.4-12.433,186.9-28.6
		c46.233-8.1,89.267-15.9,129.1-23.4L503.5,81.35z"/>
	<path style="fill-rule:evenodd;clip-rule:evenodd;fill:#677A79;" d="M502.2,80.15c-103.101,17.533-162.767,27.3-179,29.3
		c-40.934,5.066-69.817,8.399-86.65,10c-12.6,1.233-29.267,2.283-50,3.149c-21.8,0.9-38.8,1.184-51,0.851
		c-10.566-0.267-20.8-0.851-30.7-1.75l-11.65-1.25l-1-1.65l7.15,1.55c6.566,1.067,14.3,1.667,23.2,1.801
		c10.767,0.166,22.75,0.083,35.95-0.25c13.4-0.301,25.633-0.784,36.7-1.45c13.5-0.8,32.983-2.467,58.45-5
		c30.067-3.033,56.15-6.134,78.25-9.3C351.5,103.316,378.8,99,413.8,93.2c17.9-2.967,37.367-6.217,58.4-9.75
		c11.666-1.8,21-5.55,28-11.25c3.5-2.867,5.833-5.55,7-8.05L502.2,80.15z"/>
	<path style="fill-rule:evenodd;clip-rule:evenodd;fill:#C2C8C7;" d="M446.4,83.3c-8.601,1.667-19.983,3.634-34.15,5.9
		c-16,2.533-25.7,4.116-29.1,4.75c-45,8.133-85,14.05-120,17.75c-17.8,1.866-35.984,3.55-54.55,5.05l-18.225,1.35l12.675-1.199
		c13.233-1.267,24.85-2.417,34.85-3.45c9.5-1,25.183-3.117,47.05-6.351c31.967-4.733,49.283-7.283,51.95-7.649
		c12.5-1.733,29.066-4.7,49.699-8.9c10.967-2.233,24.4-5.017,40.301-8.35c12-2.334,35.083-7.584,69.25-15.75
		C490.384,72.316,473.8,77.934,446.4,83.3z"/>
	<linearGradient id="SVGID_1_" gradientUnits="userSpaceOnUse" x1="0" y1="59.457" x2="510.5" y2="59.457">
		<stop  offset="0" style="stop-color:#DCE0DF"/>
		<stop  offset="1" style="stop-color:#A6B6B9"/>
	</linearGradient>
	<path style="fill-rule:evenodd;clip-rule:evenodd;fill:url(#SVGID_1_);" d="M403.65,0L510.5,61.35
		c-23.667,5.466-49.7,11.25-78.1,17.35c-56.767,12.233-96.95,20.017-120.551,23.35c-21,3.101-37.833,5.5-50.5,7.2
		c-22.667,3.1-42.766,5.417-60.3,6.95c-49.8,4.399-87.65,3.45-113.55-2.851L0,57.8c25.833-1.3,54.767-3.05,86.8-5.25
		c64.1-4.367,111.717-8.767,142.85-13.2c31.1-4.434,69.433-12.317,115-23.65C367.417,10.033,387.083,4.8,403.65,0z"/>
	<polygon style="fill-rule:evenodd;clip-rule:evenodd;fill:#677A79;" points="0,57.8 87.5,113.35 90.5,121.35 1.35,63.15 	"/>
	<g>
		<polygon style="fill-rule:evenodd;clip-rule:evenodd;fill:#EBEDED;" points="391.85,3.3 400.8,0.85 502.65,63.15 479.85,68.3 		
			"/>
		<path style="fill-rule:evenodd;clip-rule:evenodd;fill:#D6DAD9;" d="M17.75,56.85l14.15-0.8l92.9,62.351
			c-10.167-0.601-19.117-1.567-26.85-2.9L17.75,56.85z"/>
		<path style="fill-rule:evenodd;clip-rule:evenodd;fill:#EBEDED;" d="M56.85,54.55L68.2,53.8l86.15,65.05
			c-6.1,0.101-12.117,0.101-18.05,0L56.85,54.55z"/>
		<path style="fill-rule:evenodd;clip-rule:evenodd;fill:#B4C4C9;" d="M185.8,117.4c-7.6,0.533-14.716,0.916-21.35,1.149l-75-66.15
			l15.8-1.1L185.8,117.4z"/>
		<polygon style="fill-rule:evenodd;clip-rule:evenodd;fill:#B7CDD7;" points="467.3,71.05 445.7,75.8 365.65,10.35 373.45,8.3 		
			"/>
		<polygon style="fill-rule:evenodd;clip-rule:evenodd;fill:#D6DAD9;" points="428.35,79.55 407.1,84.1 338.05,17.3 346.65,15.2 		
			"/>
		<path style="fill-rule:evenodd;clip-rule:evenodd;fill:#B7CDD7;" d="M220.2,114.3c-5.867,0.634-11.85,1.233-17.95,1.8
			l-72.9-66.649l11.9-0.95L220.2,114.3z"/>
		<polygon style="fill-rule:evenodd;clip-rule:evenodd;fill:#D6DAD9;" points="254.65,110.15 236.65,112.45 161,46.85 172.25,45.8 
					"/>
		<polygon style="fill-rule:evenodd;clip-rule:evenodd;fill:#B7CDD7;" points="198.25,43.2 209.2,42 288.7,105.35 266.95,108.45 		
			"/>
		<path style="fill-rule:evenodd;clip-rule:evenodd;fill:#EBEDED;" d="M311.65,102.05L305.6,102.9l-70.3-64.4
			c5.167-0.767,9.883-1.533,14.15-2.3L311.65,102.05z"/>
		<path style="fill-rule:evenodd;clip-rule:evenodd;fill:#D6DAD9;" d="M350.5,95.45c-9.767,1.8-16.434,3-20,3.6L271.2,32.2
			l13.95-2.8L350.5,95.45z"/>
		<polygon style="fill-rule:evenodd;clip-rule:evenodd;fill:#B4C4C9;" points="382.55,89.15 367,92.25 308.5,24.3 317.4,22.25 		"/>
	</g>
	<path style="fill-rule:evenodd;clip-rule:evenodd;fill:#485555;" d="M72.75,109.425c3.474,2.155,5.807,3.464,7,3.925
		c3.133,1.2,5.233,1.601,6.3,1.2c0.567-0.2,0.8-0.517,0.7-0.95l2.9,7L72.75,109.425z M39.275,87.175L1.85,62.55l-0.9-3.65l1.3,1.5
		c0.933,1.133,1.667,1.934,2.2,2.4C17.835,72.207,29.443,80.332,39.275,87.175z"/>
</g>
</svg>
