<?xml version="1.0" encoding="iso-8859-1"?>
<!-- Generator: Adobe Illustrator 15.1.0, SVG Export Plug-In . SVG Version: 6.00 Build 0)  -->
<!DOCTYPE svg PUBLIC "-//W3C//DTD SVG 1.1//EN" "http://www.w3.org/Graphics/SVG/1.1/DTD/svg11.dtd">
<svg version="1.1" id="Isolation_Mode" xmlns="http://www.w3.org/2000/svg" xmlns:xlink="http://www.w3.org/1999/xlink" x="0px"
	 y="0px" width="406.05px" height="212.45px" viewBox="0 0 406.05 212.45" style="enable-background:new 0 0 406.05 212.45;"
	 xml:space="preserve">
<g>
	<path style="fill-rule:evenodd;clip-rule:evenodd;fill:#987070;" d="M406.05,0v212.45H0c57.8-30.601,118.05-62.4,180.75-95.4
		C306.217,51.05,381.316,12.033,406.05,0z"/>
	<g>
		<g>
			<path style="fill-rule:evenodd;clip-rule:evenodd;fill:#895D60;" d="M306.8,120.3c-2.7,1.934-5.783,3.884-9.25,5.851
				c-7,3.966-13.05,5.75-18.149,5.35c-6.067-0.634-9.934-2.366-11.601-5.2c-1.5-2.467-1.033-4.75,1.4-6.85
				c1.7-1.533,4.434-2.65,8.2-3.351c1.899-0.366,3.633-0.566,5.199-0.6c-2.533,0.7-4.916,1.55-7.149,2.55
				c-4.4,1.967-5.834,3.8-4.3,5.5c2.033,2.2,6.733,2.934,14.1,2.2C292.35,125.017,299.533,123.2,306.8,120.3z"/>
		</g>
	</g>
	<g>
		<g>
			<path style="fill-rule:evenodd;clip-rule:evenodd;fill:#895D60;" d="M290.45,168.45c0.6,0.899,2.184,1.333,4.75,1.3
				c2.8,0,5.2-0.634,7.2-1.9c-0.767,0.801-1.75,1.534-2.95,2.2c-2.434,1.4-4.601,1.884-6.5,1.45c-2.033-0.467-3.283-1.2-3.75-2.2
				c-0.434-0.866-0.2-1.633,0.7-2.3c0.666-0.467,1.666-0.75,3-0.85c0.633-0.034,1.216-0.034,1.75,0c-0.9,0.166-1.75,0.366-2.551,0.6
				C290.533,167.25,289.983,167.816,290.45,168.45z"/>
		</g>
	</g>
	<g>
		<g>
			<path style="fill-rule:evenodd;clip-rule:evenodd;fill:#895D60;" d="M200.95,170.45c1.4-0.267,2.467-0.851,3.2-1.75
				c-1.167,1.967-2.567,2.899-4.2,2.8c-1.067-0.066-1.75-0.333-2.05-0.8c-0.267-0.4-0.217-0.8,0.15-1.2
				c0.467-0.434,1.217-0.7,2.25-0.8c-0.4,0.133-0.783,0.3-1.15,0.5c-0.767,0.366-1,0.7-0.7,1
				C198.817,170.6,199.65,170.684,200.95,170.45z"/>
		</g>
	</g>
	<g>
		<g>
			<path style="fill-rule:evenodd;clip-rule:evenodd;fill:#895D60;" d="M155.5,187.8c3.1-0.333,5.85-1.283,8.25-2.85
				c-0.9,0.934-2,1.85-3.3,2.75c-2.633,1.833-5.1,2.6-7.4,2.3c-2.566-0.533-4.1-1.384-4.6-2.55c-0.434-1-0.1-1.867,1-2.601
				c0.733-0.5,1.8-0.833,3.2-1c0.7-0.066,1.333-0.116,1.9-0.149c-0.933,0.267-1.833,0.55-2.7,0.85c-1.7,0.634-2.333,1.3-1.9,2
				C150.65,187.684,152.5,188.1,155.5,187.8z"/>
		</g>
	</g>
	<g>
		<g>
			<path style="fill-rule:evenodd;clip-rule:evenodd;fill:#895D60;" d="M95.8,191c-1.6-0.134-2.65-0.566-3.15-1.3
				c-0.433-0.634-0.333-1.267,0.3-1.9c0.433-0.467,1.167-0.8,2.2-1c0.533-0.1,1.017-0.166,1.45-0.2l-1.95,0.75
				c-1.2,0.567-1.583,1.084-1.15,1.551c0.6,0.6,1.9,0.767,3.9,0.5c2.133-0.267,4.017-0.9,5.65-1.9l-2.3,1.85
				C98.917,190.583,97.267,191.134,95.8,191z"/>
		</g>
	</g>
	<g>
		<g>
			<path style="fill-rule:evenodd;clip-rule:evenodd;fill:#895D60;" d="M210.45,145c-4.533,3.7-9.1,5.233-13.7,4.6
				c-2.567-0.399-4.717-1.316-6.45-2.75c-1.566-1.333-2.316-2.616-2.25-3.85c-0.033-0.934,0.367-1.717,1.2-2.35
				c0.433-0.301,1.233-0.684,2.4-1.15c1.133-0.533,2.783-0.884,4.95-1.05c1.1-0.101,2.133-0.167,3.1-0.2
				c-1.567,0.434-3.067,0.866-4.5,1.3c-2.867,0.867-4.133,1.9-3.8,3.101c0.967,2.566,4.317,3.533,10.05,2.899
				c5.833-0.666,10.7-2.717,14.6-6.149C214.616,141.267,212.75,143.134,210.45,145z"/>
		</g>
	</g>
	<g>
		<g>
			<path style="fill-rule:evenodd;clip-rule:evenodd;fill:#895D60;" d="M240,188.05c0.709,0.29,1.218,0.731,1.525,1.325
				c-0.095-0.122-0.37-0.297-0.825-0.525c-0.566-0.3-1.033-0.449-1.4-0.449c-0.399-0.134-0.666-0.334-0.8-0.601
				c-0.167-0.267-0.134-0.483,0.1-0.649c0.264-0.234,0.696-0.276,1.301-0.125c-0.148,0.002-0.348,0.027-0.601,0.074
				c-0.5,0.101-0.666,0.25-0.5,0.45C238.833,187.583,239.233,187.75,240,188.05z"/>
		</g>
	</g>
	<g>
		<g>
			<path style="fill-rule:evenodd;clip-rule:evenodd;fill:#895D60;" d="M225.55,207.05c-1.833-0.7-2.899-1.533-3.2-2.5
				c-0.267-0.866,0.067-1.533,1-2c1.034-0.566,2.5-0.633,4.4-0.2c-0.833,0-1.616,0.067-2.35,0.2c-1.534,0.3-2.134,0.767-1.801,1.4
				c0.467,0.866,1.884,1.45,4.25,1.75c2.367,0.3,4.717,0.184,7.051-0.351c-0.967,0.5-2.051,0.934-3.25,1.301
				C229.184,207.45,227.15,207.583,225.55,207.05z"/>
		</g>
	</g>
	<g>
		<g>
			<path style="fill-rule:evenodd;clip-rule:evenodd;fill:#895D60;" d="M93.2,203.05c-2.167,1.033-4.05,1.351-5.65,0.95
				c-1.8-0.566-2.85-1.3-3.15-2.2c-0.3-0.8-0.017-1.434,0.85-1.899c0.6-0.301,1.433-0.45,2.5-0.45c0.567,0,1.05,0.017,1.45,0.05
				c-0.7,0.1-1.4,0.233-2.1,0.4c-1.333,0.3-1.85,0.733-1.55,1.3c0.434,0.899,1.767,1.366,4,1.399c2.267,0.067,4.4-0.333,6.4-1.199
				C95.183,202,94.267,202.55,93.2,203.05z"/>
		</g>
	</g>
	<g>
		<g>
			<path style="fill-rule:evenodd;clip-rule:evenodd;fill:#895D60;" d="M53.5,203.45l-0.95,1.399c-0.8,1-1.683,1.551-2.65,1.65
				c-1.033,0.066-1.7-0.1-2-0.5c-0.267-0.366-0.233-0.75,0.1-1.15c0.267-0.267,0.65-0.483,1.15-0.649c0.4-0.167,0.65-0.25,0.75-0.25
				c0,0.033-0.316,0.233-0.95,0.6c-0.6,0.4-0.784,0.717-0.55,0.95c0.367,0.366,1.117,0.333,2.25-0.1
				C51.85,204.967,52.8,204.316,53.5,203.45z"/>
		</g>
	</g>
	<g>
		<g>
			<path style="fill-rule:evenodd;clip-rule:evenodd;fill:#895D60;" d="M32.75,202.35c-1.967,1-3.617,1.45-4.95,1.351
				c-1.6-0.167-2.65-0.617-3.15-1.351c-0.433-0.666-0.333-1.3,0.3-1.899c0.433-0.467,1.183-0.8,2.25-1
				c0.533-0.101,1.033-0.15,1.5-0.15c-0.733,0.2-1.4,0.434-2,0.7c-1.233,0.566-1.617,1.083-1.15,1.55
				c0.567,0.566,1.85,0.767,3.85,0.601c1.934-0.167,3.917-0.601,5.95-1.301C34.583,201.384,33.717,201.884,32.75,202.35z"/>
		</g>
	</g>
	<g>
		<g>
			<path style="fill-rule:evenodd;clip-rule:evenodd;fill:#895D60;" d="M147.9,147.55c-2.8,1.533-3.566,2.783-2.3,3.75
				c1.3,0.9,4.217,1.117,8.75,0.65c1.333-0.134,5.917-0.783,13.75-1.95c-1.934,0.866-4.033,1.783-6.3,2.75
				c-4.566,1.934-8.183,2.884-10.85,2.85c-3.367-0.133-5.7-0.883-7-2.25c-1.167-1.267-1.184-2.699-0.05-4.3
				c0.9-1.267,2.617-2.233,5.15-2.899c2.333-0.601,3.5-0.784,3.5-0.551C152.317,145.3,150.767,145.95,147.9,147.55z"/>
		</g>
	</g>
	<g>
		<g>
			<path style="fill-rule:evenodd;clip-rule:evenodd;fill:#895D60;" d="M116.65,163.25c0.733,1.033,2.583,1.384,5.55,1.05
				c2.1-0.267,5.017-0.916,8.75-1.95c-0.034,0-1.317,0.7-3.85,2.101c-2.8,1.533-5.233,2.25-7.3,2.149
				c-2.566-0.399-4.117-1.216-4.65-2.449c-0.5-1.067-0.183-1.934,0.95-2.601c0.7-0.467,1.75-0.816,3.15-1.05
				c0.7-0.1,1.333-0.167,1.9-0.2c-0.933,0.233-1.833,0.533-2.7,0.9C116.783,161.866,116.183,162.55,116.65,163.25z"/>
		</g>
	</g>
	<g>
		<g>
			<path style="fill-rule:evenodd;clip-rule:evenodd;fill:#895D60;" d="M80.4,177.4l-1.3,1.05c-1.033,0.7-1.967,1-2.8,0.899
				c-0.9-0.066-1.483-0.3-1.75-0.699c-0.233-0.367-0.183-0.717,0.15-1.051c0.267-0.267,0.683-0.466,1.25-0.6
				c0.3-0.066,0.566-0.1,0.8-0.1l-1.1,0.449c-0.667,0.334-0.867,0.617-0.6,0.851c0.333,0.333,1.05,0.434,2.15,0.3
				C78.4,178.333,79.467,177.967,80.4,177.4z"/>
		</g>
	</g>
	<g>
		<g>
			<path style="fill-rule:evenodd;clip-rule:evenodd;fill:#895D60;" d="M70.15,188.05c0.333-0.333,0.9-0.583,1.7-0.75
				c0.367-0.066,0.717-0.116,1.05-0.149l-1.45,0.55c-0.934,0.434-1.217,0.833-0.85,1.2c0.433,0.433,1.4,0.55,2.9,0.35
				c1.6-0.2,3.017-0.667,4.25-1.4l-1.75,1.4c-1.367,0.9-2.6,1.3-3.7,1.2c-1.2-0.101-1.983-0.417-2.35-0.95
				C69.617,189,69.683,188.517,70.15,188.05z"/>
		</g>
	</g>
	<g>
		<g>
			<path style="fill-rule:evenodd;clip-rule:evenodd;fill:#895D60;" d="M49.65,190.15c0.367-0.233,0.934-0.384,1.7-0.45
				c0.367-0.033,0.7-0.05,1-0.05c-0.5,0.1-0.983,0.233-1.45,0.399c-0.9,0.267-1.233,0.601-1,1c0.333,0.566,1.283,0.816,2.85,0.75
				c1.633-0.066,3.067-0.5,4.3-1.3c0.034,0-0.55,0.467-1.75,1.4c-1.4,0.899-2.7,1.233-3.9,1c-1.267-0.334-2.033-0.801-2.3-1.4
				C48.867,190.967,49.05,190.517,49.65,190.15z"/>
		</g>
	</g>
	<g>
		<g>
			<path style="fill-rule:evenodd;clip-rule:evenodd;fill:#895D60;" d="M28.25,210.2c0.233,0.2,0.8,0.283,1.7,0.25
				c0.533,0,1.433-0.05,2.7-0.15c-0.033,0-0.45,0.134-1.25,0.4c-0.933,0.3-1.65,0.45-2.15,0.45c-0.733-0.101-1.2-0.301-1.4-0.601
				c-0.2-0.267-0.167-0.55,0.1-0.85c0.2-0.2,0.55-0.351,1.05-0.45c0.174-0.024,0.341-0.042,0.5-0.05
				c-0.149,0.044-0.399,0.144-0.75,0.3C28.217,209.767,28.05,210,28.25,210.2z"/>
		</g>
	</g>
	<g>
		<g>
			<path style="fill-rule:evenodd;clip-rule:evenodd;fill:#895D60;" d="M75.3,199.45c-1.767,0.934-3.15,1.434-4.15,1.5
				c-0.8,0.066-1.4-0.05-1.8-0.351c-0.333-0.3-0.383-0.666-0.15-1.1c0.2-0.333,0.617-0.616,1.25-0.85
				c0.358-0.12,0.608-0.195,0.75-0.226c-0.188,0.051-0.538,0.259-1.05,0.625c-0.667,0.467-0.816,0.8-0.45,1
				c0.333,0.134,1.066,0.117,2.2-0.05C72.567,199.9,73.7,199.717,75.3,199.45z"/>
		</g>
	</g>
	<g>
		<g>
			<path style="fill-rule:evenodd;clip-rule:evenodd;fill:#895D60;" d="M16.35,209.15c-0.067-0.267,0.066-0.483,0.4-0.65
				c0.233-0.066,0.55-0.083,0.95-0.05c0.2,0.033,0.367,0.05,0.5,0.05c-0.267,0.033-0.517,0.066-0.75,0.1
				c-0.5,0.067-0.717,0.2-0.65,0.4c0.267,0.6,1.55,0.833,3.85,0.7c-0.333,0.1-0.717,0.217-1.15,0.35
				c-0.833,0.2-1.517,0.217-2.05,0.05C16.783,209.833,16.417,209.517,16.35,209.15z"/>
		</g>
	</g>
	<g>
		<g>
			<path style="fill-rule:evenodd;clip-rule:evenodd;fill:#895D60;" d="M266.7,171.45c-3.934,2.767-7.5,4.083-10.7,3.95
				c-3.6-0.2-5.95-1.084-7.05-2.65c-0.967-1.4-0.767-2.783,0.6-4.15c0.967-1,2.566-1.767,4.8-2.3c1.101-0.267,2.117-0.45,3.051-0.55
				c-1.5,0.5-2.884,1.083-4.15,1.75c-2.6,1.333-3.4,2.483-2.4,3.45c1.301,1.267,4.15,1.55,8.551,0.85
				c4.5-0.733,8.616-2.233,12.35-4.5C270.35,168.7,268.667,170.083,266.7,171.45z"/>
		</g>
	</g>
	<g>
		<g>
			<path style="fill-rule:evenodd;clip-rule:evenodd;fill:#895D60;" d="M387.05,193.45c-0.967,1-2.184,1.967-3.649,2.899
				c-2.934,1.867-5.634,2.567-8.101,2.101c-2.666-0.601-4.267-1.55-4.8-2.851c-0.467-1.133-0.116-2.083,1.05-2.85
				c0.8-0.533,1.983-0.866,3.55-1c0.801-0.066,1.517-0.083,2.15-0.05c-1.066,0.233-2.083,0.5-3.05,0.8
				c-1.9,0.634-2.601,1.333-2.101,2.1c0.7,1.2,2.7,1.717,6,1.551C381.533,195.983,384.517,195.083,387.05,193.45z"/>
		</g>
	</g>
	<g>
		<g>
			<path style="fill-rule:evenodd;clip-rule:evenodd;fill:#895D60;" d="M361.4,55.2c0.333,0.833,1.517,1.25,3.55,1.25
				c2.1,0,3.916-0.517,5.45-1.55c-0.567,0.633-1.301,1.217-2.2,1.75c-1.834,1.133-3.517,1.483-5.05,1.05
				c-1.634-0.534-2.567-1.217-2.801-2.05c-0.199-0.667,0.084-1.2,0.851-1.6c0.833-0.4,1.967-0.5,3.399-0.3
				c-0.633,0.067-1.233,0.167-1.8,0.3C361.634,54.317,361.167,54.7,361.4,55.2z"/>
		</g>
	</g>
	<g>
		<g>
			<path style="fill-rule:evenodd;clip-rule:evenodd;fill:#895D60;" d="M390.05,32.2c-1.733,0.6-3.1,0.783-4.1,0.55
				c-0.7-0.167-1.167-0.433-1.4-0.8s-0.184-0.7,0.15-1c0.371-0.34,0.996-0.465,1.875-0.375c-0.174,0.034-0.465,0.125-0.875,0.275
				c-0.733,0.2-0.967,0.433-0.7,0.7C385.566,32.117,387.25,32.333,390.05,32.2z"/>
		</g>
	</g>
	<g>
		<g>
			<path style="fill-rule:evenodd;clip-rule:evenodd;fill:#895D60;" d="M402.35,15.6c-1.699,0.9-3.083,1.367-4.149,1.4
				c-1.334,0.033-2.25-0.233-2.75-0.8c-0.5-0.5-0.533-1.05-0.101-1.65c0.334-0.5,0.983-0.883,1.95-1.15c0.9-0.3,1.351-0.4,1.351-0.3
				c-0.067-0.133-0.65,0.133-1.75,0.8c-1.067,0.667-1.351,1.167-0.851,1.5c0.967,0.633,3.851,0.283,8.65-1.05
				C404,14.75,403.217,15.167,402.35,15.6z"/>
		</g>
	</g>
	<g>
		<g>
			<path style="fill-rule:evenodd;clip-rule:evenodd;fill:#895D60;" d="M388.9,73.15c-1.301,0.367-2.551,0.783-3.75,1.25
				c-2.4,0.967-3.25,1.934-2.551,2.9c1.034,1.467,3.617,1.967,7.75,1.5c4.233-0.5,8.034-1.816,11.4-3.95
				c-1.267,1.3-2.816,2.583-4.65,3.85c-3.666,2.5-7.05,3.566-10.149,3.2c-3.467-0.566-5.584-1.65-6.351-3.25
				c-0.666-1.4-0.267-2.633,1.2-3.7c0.967-0.733,2.434-1.233,4.4-1.5C387.167,73.283,388.066,73.183,388.9,73.15z"/>
		</g>
	</g>
	<g>
		<g>
			<path style="fill-rule:evenodd;clip-rule:evenodd;fill:#895D60;" d="M339.65,61.95c-1.101-0.3-1.733-0.717-1.9-1.25
				c-0.167-0.434,0-0.8,0.5-1.1c0.333-0.167,0.8-0.267,1.4-0.3c0.3-0.033,0.583-0.05,0.85-0.05c-0.4,0.1-0.8,0.2-1.2,0.3
				c-0.767,0.233-1.066,0.5-0.899,0.8c0.267,0.533,1.066,0.767,2.399,0.7c1.4-0.033,2.601-0.383,3.601-1.05
				c-0.4,0.4-0.884,0.783-1.45,1.15C341.75,61.883,340.65,62.15,339.65,61.95z"/>
		</g>
	</g>
	<g>
		<g>
			<path style="fill-rule:evenodd;clip-rule:evenodd;fill:#895D60;" d="M397.4,56.8c-2.434,1.467-4.7,1.917-6.801,1.35
				c-2.233-0.8-3.483-1.75-3.75-2.85c-0.199-0.933,0.25-1.633,1.351-2.1c0.7-0.3,1.649-0.434,2.85-0.4
				c0.566,0,1.101,0.017,1.601,0.05c-0.801,0.133-1.584,0.283-2.351,0.45c-1.533,0.333-2.184,0.817-1.95,1.45
				c0.434,1.167,2.017,1.767,4.75,1.8c2.834,0,5.267-0.683,7.301-2.05C399.634,55.3,398.634,56.067,397.4,56.8z"/>
		</g>
	</g>
	<g>
		<g>
			<path style="fill-rule:evenodd;clip-rule:evenodd;fill:#895D60;" d="M366.6,38.9c-1.5,0.667-2.8,0.9-3.899,0.7
				c-1.267-0.333-2.017-0.8-2.25-1.4c-0.233-0.567-0.066-1.034,0.5-1.4c0.399-0.233,0.983-0.383,1.75-0.45c0.399,0,0.767,0,1.1,0
				c-0.533,0.1-1.05,0.217-1.55,0.35c-0.934,0.267-1.267,0.6-1,1c0.333,0.566,1.283,0.85,2.85,0.85c1.467,0,2.983-0.233,4.551-0.7
				C368.05,38.217,367.366,38.567,366.6,38.9z"/>
		</g>
	</g>
	<g>
		<g>
			<path style="fill-rule:evenodd;clip-rule:evenodd;fill:#895D60;" d="M402.15,33.9c1.166,0.167,2.133,0.017,2.899-0.45
				c-1.467,1.2-2.783,1.533-3.95,1c-0.8-0.333-1.25-0.717-1.35-1.15c-0.134-0.4,0-0.7,0.4-0.9c0.5-0.233,1.166-0.233,2,0
				c-0.367,0-0.733,0.017-1.101,0.05c-0.666,0.1-0.934,0.3-0.8,0.6C400.417,33.45,401.05,33.733,402.15,33.9z"/>
		</g>
	</g>
	<g>
		<g>
			<path style="fill-rule:evenodd;clip-rule:evenodd;fill:#895D60;" d="M386.9,22.65c-1.767,1.133-3.384,1.567-4.851,1.3
				c-1.566-0.333-2.533-0.867-2.899-1.6c-0.301-0.667-0.101-1.25,0.6-1.75c0.767-0.533,1.9-0.767,3.4-0.7
				c-0.634,0.167-1.233,0.35-1.801,0.55c-1.166,0.367-1.583,0.783-1.25,1.25c0.434,0.7,1.634,1,3.601,0.9
				c2.033-0.133,3.816-0.7,5.35-1.7C388.483,21.5,387.767,22.083,386.9,22.65z"/>
		</g>
	</g>
	<g>
		<g>
			<path style="fill-rule:evenodd;clip-rule:evenodd;fill:#895D60;" d="M309.6,74.2c-4.267,3.033-8.066,4.533-11.399,4.5
				c-3.834-0.034-6.4-0.867-7.7-2.5c-1.167-1.467-1.066-2.983,0.3-4.55c0.967-1.167,2.684-2.083,5.15-2.75
				c1.233-0.367,2.366-0.6,3.399-0.7c-1.633,0.566-3.149,1.25-4.55,2.05c-2.767,1.6-3.566,2.9-2.399,3.9
				c1.466,1.233,4.55,1.417,9.25,0.55c4.866-0.9,9.333-2.567,13.399-5C313.55,71.2,311.733,72.7,309.6,74.2z"/>
		</g>
	</g>
	<g>
		<g>
			<path style="fill-rule:evenodd;clip-rule:evenodd;fill:#895D60;" d="M248.2,97.45c-0.601,0.1-1.25,0.2-1.95,0.3
				c-1.4,0.2-2.467,0.217-3.2,0.05c-0.934-0.233-1.55-0.583-1.85-1.05c-0.267-0.467-0.184-0.883,0.25-1.25
				c0.482-0.452,1.266-0.602,2.35-0.45c-0.246,0.022-0.612,0.106-1.1,0.25c-0.934,0.267-1.233,0.583-0.9,0.95
				c0.3,0.3,1.101,0.55,2.4,0.75C244.566,97.067,245.9,97.217,248.2,97.45z"/>
		</g>
	</g>
	<g>
		<g>
			<path style="fill-rule:evenodd;clip-rule:evenodd;fill:#895D60;" d="M226.9,115.15c-2.934,1.6-5.517,2.283-7.75,2.05
				c-2.801-0.566-4.417-1.55-4.851-2.95c-0.399-1.267,0.05-2.15,1.351-2.65c1.199-0.633,2.916-0.949,5.149-0.949
				c-0.967,0.233-1.883,0.517-2.75,0.85c-1.767,0.6-2.45,1.267-2.05,2c0.7,1.2,2.616,1.667,5.75,1.4c2.667-0.2,5.717-0.867,9.15-2
				C229.7,113.634,228.366,114.384,226.9,115.15z"/>
		</g>
	</g>
	<g>
		<g>
			<path style="fill-rule:evenodd;clip-rule:evenodd;fill:#895D60;" d="M202.65,113.9c-1.367,0.899-2.6,1.3-3.7,1.199
				c-1.2-0.1-1.983-0.416-2.35-0.949c-0.333-0.5-0.267-0.983,0.2-1.45c0.534-0.533,1.45-0.816,2.75-0.851
				c-0.533,0.134-1.017,0.317-1.45,0.551c-0.934,0.399-1.217,0.783-0.85,1.149c0.433,0.434,1.4,0.55,2.9,0.351
				c1.6-0.2,3.017-0.667,4.25-1.4C203.934,112.967,203.35,113.434,202.65,113.9z"/>
		</g>
	</g>
	<g>
		<g>
			<path style="fill-rule:evenodd;clip-rule:evenodd;fill:#895D60;" d="M172.05,130.55c-0.566-0.767-0.466-1.533,0.3-2.3
				c0.833-0.9,2.316-1.417,4.45-1.55c-0.867,0.267-1.65,0.583-2.35,0.95c-1.467,0.733-1.917,1.366-1.35,1.899
				c0.633,0.601,2.183,0.783,4.65,0.55c4.11-0.433,6.519-0.666,7.225-0.699c-0.374,0.07-1.465,0.453-3.275,1.149
				c-2.467,0.934-4.4,1.417-5.8,1.45C173.933,131.9,172.65,131.417,172.05,130.55z"/>
		</g>
	</g>
	<g>
		<g>
			<path style="fill-rule:evenodd;clip-rule:evenodd;fill:#895D60;" d="M156,173.15c2.4-0.167,4.617-0.551,6.65-1.15
				c-3.566,2.066-6.333,3.05-8.3,2.95c-1.467,0.033-2.55-0.2-3.25-0.7c-0.733-0.467-0.934-1.15-0.6-2.05
				c0.3-0.834,1.167-1.467,2.6-1.9c1.566-0.533,2.217-0.666,1.95-0.399c-0.167-0.267-1,0.116-2.5,1.149
				c-1.433,0.967-1.733,1.65-0.9,2.05C152.55,173.3,154,173.316,156,173.15z"/>
		</g>
	</g>
	<g>
		<g>
			<path style="fill-rule:evenodd;clip-rule:evenodd;fill:#895D60;" d="M142.6,164.05c-1.067,0.4-1.9,0.584-2.5,0.55
				c-0.8-0.1-1.317-0.333-1.55-0.699c-0.233-0.334-0.2-0.65,0.1-0.95c0.233-0.233,0.633-0.4,1.2-0.5
				c0.267-0.033,0.517-0.05,0.75-0.05c-0.367,0.1-0.717,0.216-1.05,0.35c-0.633,0.267-0.833,0.517-0.6,0.75
				c0.267,0.267,0.917,0.384,1.95,0.35c0.6-0.033,1.65-0.133,3.15-0.3C144.017,163.55,143.533,163.717,142.6,164.05z"/>
		</g>
	</g>
	<g>
		<g>
			<path style="fill-rule:evenodd;clip-rule:evenodd;fill:#895D60;" d="M106.7,165.8c-1.567,0.3-2.8,0.267-3.7-0.1
				c-1.067-0.434-1.7-0.95-1.9-1.55c-0.167-0.534,0.017-0.967,0.55-1.301c0.4-0.233,1-0.316,1.8-0.25
				c0.324,0.027,0.625,0.077,0.9,0.15c-0.243-0.019-0.71,0.031-1.4,0.15c-1,0.133-1.367,0.416-1.1,0.85
				c0.3,0.467,1.167,0.85,2.6,1.15c1.4,0.333,2.867,0.466,4.4,0.399C108.217,165.5,107.5,165.667,106.7,165.8z"/>
		</g>
	</g>
	<g>
		<g>
			<path style="fill-rule:evenodd;clip-rule:evenodd;fill:#895D60;" d="M97.6,178.8c-1.267,0.566-2.3,0.816-3.1,0.75
				c-0.967-0.1-1.6-0.383-1.9-0.85c-0.3-0.4-0.25-0.8,0.15-1.2c0.267-0.3,0.733-0.5,1.4-0.6c0.367-0.067,0.684-0.101,0.95-0.101
				c-0.434,0.134-0.85,0.283-1.25,0.45c-0.8,0.333-1.05,0.65-0.75,0.95c0.6,0.566,2.683,0.517,6.25-0.15
				C98.817,178.283,98.233,178.533,97.6,178.8z"/>
		</g>
	</g>
	<g>
		<g>
			<path style="fill-rule:evenodd;clip-rule:evenodd;fill:#895D60;" d="M122.05,197.85c1.4,1.567,4.7,2.65,9.9,3.25
				c5.867,0.667,11.066,0.084,15.6-1.75c-8.1,5.2-14.966,6.851-20.6,4.95c-3.767-1.1-6.2-2.583-7.3-4.45c-1-1.733-0.7-3.399,0.9-5
				c1.434-1.233,3.717-1.866,6.85-1.899c1.069,0,2.061,0.059,2.975,0.175c-0.968,0.105-2.543,0.447-4.725,1.025
				C122.017,195.15,120.817,196.384,122.05,197.85z"/>
		</g>
	</g>
	<g>
		<g>
			<path style="fill-rule:evenodd;clip-rule:evenodd;fill:#895D60;" d="M132.35,175.95c-1.667,1.066-3.167,1.5-4.5,1.3
				c-1.6-0.267-2.533-0.8-2.8-1.6c-0.267-0.733-0.017-1.25,0.75-1.551c0.367-0.3,0.983-0.5,1.85-0.6
				c0.434-0.033,0.817-0.05,1.15-0.05c-0.566,0.133-1.117,0.3-1.65,0.5c-1.033,0.399-1.417,0.8-1.15,1.2
				c0.433,0.633,1.567,0.883,3.4,0.75c1.867-0.134,3.533-0.65,5-1.551L132.35,175.95z"/>
		</g>
	</g>
	<g>
		<g>
			<path style="fill-rule:evenodd;clip-rule:evenodd;fill:#895D60;" d="M115.75,184.05l-1.35,1.05c-1.066,0.667-2.05,0.9-2.95,0.7
				c-0.967-0.267-1.534-0.649-1.7-1.149c-0.133-0.4,0.017-0.733,0.45-1c0.3-0.167,0.733-0.25,1.3-0.25c0.267,0,0.517,0,0.75,0
				c-0.367,0.066-0.733,0.149-1.1,0.25c-0.7,0.166-0.967,0.399-0.8,0.699c0.2,0.467,0.917,0.7,2.15,0.7
				C113.767,185.017,114.85,184.684,115.75,184.05z"/>
		</g>
	</g>
	<g>
		<g>
			<path style="fill-rule:evenodd;clip-rule:evenodd;fill:#895D60;" d="M107.8,204.7c1.567-0.101,3.167-0.417,4.8-0.95
				c-0.6,0.4-1.3,0.8-2.1,1.2c-1.633,0.767-2.983,1.1-4.05,1c-1.267-0.134-2.1-0.5-2.5-1.101c-0.367-0.533-0.3-1.05,0.2-1.55
				c0.367-0.366,1-0.633,1.9-0.8c0.434-0.066,0.833-0.1,1.2-0.1c-0.6,0.166-1.15,0.35-1.65,0.55c-1,0.467-1.317,0.883-0.95,1.25
				C105.117,204.634,106.167,204.8,107.8,204.7z"/>
		</g>
	</g>
	<g>
		<g>
			<path style="fill-rule:evenodd;clip-rule:evenodd;fill:#895D60;" d="M182.5,197.3c1.3,1.767,4.533,2.351,9.7,1.75
				c5.267-0.6,10-2.217,14.2-4.85c-1.567,1.633-3.484,3.217-5.75,4.75c-4.6,3.1-8.816,4.434-12.65,4
				c-4.267-0.601-6.917-1.884-7.95-3.851c-0.9-1.733-0.466-3.283,1.3-4.649c1.233-0.967,3.083-1.65,5.55-2.05
				c1.267-0.2,2.417-0.317,3.45-0.351c-1.667,0.467-3.25,1.017-4.75,1.65C182.6,194.934,181.567,196.134,182.5,197.3z"/>
		</g>
	</g>
	<g>
		<g>
			<path style="fill-rule:evenodd;clip-rule:evenodd;fill:#895D60;" d="M193.4,155.35c-1.833,1.233-3.467,1.784-4.9,1.65
				c-1.633-0.134-2.683-0.566-3.15-1.3c-0.467-0.634-0.383-1.267,0.25-1.9c0.733-0.733,1.95-1.133,3.65-1.2
				c-0.7,0.2-1.35,0.45-1.95,0.75c-1.2,0.567-1.566,1.084-1.1,1.551c0.566,0.566,1.867,0.733,3.9,0.5c2.1-0.267,3.983-0.9,5.65-1.9
				C195.117,154.134,194.333,154.75,193.4,155.35z"/>
		</g>
	</g>
	<g>
		<g>
			<path style="fill-rule:evenodd;clip-rule:evenodd;fill:#895D60;" d="M236.05,181c-2.533,1.134-4.684,1.483-6.45,1.05
				c-1.899-0.467-3.116-1.166-3.649-2.1c-0.434-0.834-0.25-1.617,0.55-2.351c1.1-0.833,2.75-1.116,4.95-0.85
				c-0.934,0.134-1.8,0.316-2.601,0.55c-1.666,0.533-2.233,1.117-1.699,1.75c0.6,0.8,2.183,1.25,4.75,1.351
				c2.666,0.066,5.149-0.334,7.449-1.2C238.45,179.866,237.35,180.467,236.05,181z"/>
		</g>
	</g>
	<g>
		<g>
			<path style="fill-rule:evenodd;clip-rule:evenodd;fill:#895D60;" d="M292.45,195.55c-0.934-0.967-0.983-2.033-0.15-3.2
				c0.667-0.933,1.917-1.683,3.75-2.25c1.8-0.533,2.65-0.699,2.55-0.5c-0.1-0.267-1.216,0.25-3.35,1.551
				c-2.033,1.233-2.566,2.183-1.6,2.85c1.133,0.7,3.333,0.783,6.6,0.25c3.667-0.6,6.75-1.816,9.25-3.65
				c0.434,0.167-0.8,1.301-3.7,3.4c-3,2.167-5.7,3.2-8.1,3.1C295.2,197.134,293.45,196.616,292.45,195.55z"/>
		</g>
	</g>
	<g>
		<g>
			<path style="fill-rule:evenodd;clip-rule:evenodd;fill:#895D60;" d="M362.65,146.5c-0.601,0.366-1.301,0.684-2.101,0.95
				c-1.6,0.566-2.934,0.666-4,0.3c-1.2-0.434-1.899-0.95-2.1-1.55c-0.233-0.566-0.05-1.033,0.55-1.4
				c0.667-0.399,1.65-0.467,2.95-0.2c-0.566,0.034-1.101,0.101-1.601,0.2c-1,0.2-1.366,0.517-1.1,0.95
				c0.3,0.566,1.233,0.934,2.8,1.1C359.684,147.05,361.217,146.934,362.65,146.5z"/>
		</g>
	</g>
	<g>
		<g>
			<path style="fill-rule:evenodd;clip-rule:evenodd;fill:#895D60;" d="M339.5,190.8c1.2-0.833,3.083-1.184,5.65-1.05
				c-1.067,0.2-2.084,0.45-3.051,0.75c-1.899,0.634-2.583,1.35-2.05,2.15c0.7,1,2.634,1.483,5.8,1.449
				c1.828,0,4.92-0.108,9.275-0.324c-0.565,0.102-1.957,0.526-4.175,1.274c-3.233,1.033-5.816,1.45-7.75,1.25
				c-2.601-0.533-4.167-1.45-4.7-2.75C338,192.417,338.333,191.5,339.5,190.8z"/>
		</g>
	</g>
	<g>
		<g>
			<path style="fill-rule:evenodd;clip-rule:evenodd;fill:#895D60;" d="M359.8,207.5c-3.366,1.533-6.116,2.283-8.25,2.25
				c-2.733-0.2-4.533-0.9-5.399-2.1c-0.767-1.101-0.617-2.167,0.449-3.2c1.107-1.202,3.058-1.91,5.851-2.125
				c-0.546,0.145-1.513,0.569-2.9,1.274c-2.066,1-2.7,1.884-1.899,2.65c0.933,0.866,3.116,1.134,6.55,0.8
				c1.566-0.166,4.983-0.733,10.25-1.7C363.017,206.05,361.467,206.767,359.8,207.5z"/>
		</g>
	</g>
	<g>
		<g>
			<path style="fill-rule:evenodd;clip-rule:evenodd;fill:#895D60;" d="M391.85,157.3c1.233-0.066,2.601-0.3,4.101-0.7
				c-0.533,0.334-1.15,0.65-1.851,0.95c-1.366,0.634-2.5,0.9-3.399,0.8c-1.066-0.1-1.767-0.399-2.101-0.899
				c-0.3-0.467-0.25-0.917,0.15-1.351c0.457-0.457,1.232-0.707,2.325-0.75c-0.23,0.067-0.589,0.217-1.075,0.45
				c-0.866,0.4-1.134,0.75-0.8,1.05C389.566,157.217,390.45,157.366,391.85,157.3z"/>
		</g>
	</g>
	<g>
		<g>
			<path style="fill-rule:evenodd;clip-rule:evenodd;fill:#895D60;" d="M400,200.25c-1.533,0.467-2.717,0.583-3.55,0.35
				c-0.634-0.133-1.05-0.366-1.25-0.699c-0.2-0.334-0.15-0.617,0.149-0.851c0.299-0.299,0.824-0.407,1.575-0.325
				c-0.164,0.021-0.405,0.079-0.725,0.176c-0.634,0.199-0.834,0.416-0.601,0.649C396.134,200.083,397.6,200.316,400,200.25z"/>
		</g>
	</g>
	<g>
		<g>
			<path style="fill-rule:evenodd;clip-rule:evenodd;fill:#895D60;" d="M387.7,122.1c0.633,0.034,1.184,0.067,1.649,0.101
				c-0.8,0.1-1.6,0.233-2.399,0.399c-1.566,0.301-2.2,0.784-1.9,1.45c0.4,1.134,1.967,1.733,4.7,1.8
				c2.833,0.034,5.267-0.649,7.3-2.05c-0.767,0.834-1.75,1.617-2.95,2.351c-2.433,1.5-4.716,1.933-6.85,1.3
				c-2.167-0.8-3.384-1.75-3.65-2.851c-0.233-0.933,0.184-1.633,1.25-2.1C385.55,122.2,386.5,122.066,387.7,122.1z"/>
		</g>
	</g>
	<g>
		<g>
			<path style="fill-rule:evenodd;clip-rule:evenodd;fill:#895D60;" d="M359.95,101.6c0.767,0.9,2.583,1.083,5.45,0.55
				c3.1-0.6,5.5-1.85,7.199-3.75c0.7-0.133-0.166,0.917-2.6,3.15c-2.3,2.1-4.566,3.067-6.8,2.9c-2.267-0.167-3.75-0.75-4.45-1.75
				c-0.6-0.867-0.483-1.733,0.35-2.6c1.034-1,2.7-1.583,5-1.75c-0.933,0.3-1.8,0.65-2.6,1.05
				C359.833,100.233,359.316,100.967,359.95,101.6z"/>
		</g>
	</g>
	<g>
		<g>
			<path style="fill-rule:evenodd;clip-rule:evenodd;fill:#895D60;" d="M335.6,82.1c-0.966-1.4-0.767-2.783,0.601-4.15
				c1-1,2.649-1.733,4.95-2.2c1.133-0.233,2.166-0.367,3.1-0.4c-1.533,0.433-2.95,0.967-4.25,1.6c-2.667,1.267-3.5,2.4-2.5,3.4
				c1.267,1.267,4.1,1.633,8.5,1.1c4.634-0.6,8.767-1.983,12.4-4.15c-1.367,1.367-3.067,2.717-5.101,4.05
				c-4,2.633-7.6,3.816-10.8,3.55C338.967,84.6,336.667,83.667,335.6,82.1z"/>
		</g>
	</g>
	<g>
		<g>
			<path style="fill-rule:evenodd;clip-rule:evenodd;fill:#895D60;" d="M348.95,122.1c-3.934,1.967-7.3,2.684-10.101,2.15
				c-3.033-0.5-5.017-1.5-5.949-3c-0.867-1.333-0.667-2.583,0.6-3.75c1-0.934,2.6-1.517,4.8-1.75
				c0.772-0.094,1.489-0.136,2.15-0.125c-0.686,0.153-1.802,0.528-3.351,1.125c-2.566,1-3.383,2-2.449,3
				c1.133,1.134,3.683,1.667,7.649,1.6c4.367-0.033,8.267-0.866,11.7-2.5C354.3,119.15,352.616,120.233,348.95,122.1z"/>
		</g>
	</g>
	<g>
		<g>
			<path style="fill-rule:evenodd;clip-rule:evenodd;fill:#895D60;" d="M346.85,160.15c-2.333,1.5-4.399,2.183-6.199,2.05
				c-2-0.167-3.317-0.7-3.95-1.601c-0.533-0.8-0.417-1.6,0.35-2.399c0.9-0.9,2.434-1.384,4.601-1.45
				c-0.867,0.233-1.684,0.533-2.45,0.9c-1.5,0.733-1.967,1.383-1.4,1.949c0.7,0.7,2.316,0.9,4.851,0.601
				c2.666-0.334,5.033-1.117,7.1-2.351C348.95,158.65,347.983,159.417,346.85,160.15z"/>
		</g>
	</g>
	<g>
		<g>
			<path style="fill-rule:evenodd;clip-rule:evenodd;fill:#895D60;" d="M325.2,201.55c-2.533,1.667-4.8,2.417-6.8,2.25
				c-2.2-0.2-3.634-0.783-4.301-1.75c-0.6-0.899-0.483-1.767,0.351-2.6c0.633-0.634,1.666-1.101,3.1-1.4
				c0.7-0.133,1.351-0.217,1.95-0.25c-0.967,0.267-1.866,0.601-2.7,1c-1.666,0.8-2.184,1.517-1.55,2.15
				c0.833,0.8,2.616,1.033,5.35,0.7c2.9-0.367,5.5-1.25,7.801-2.65C327.533,199.866,326.467,200.717,325.2,201.55z"/>
		</g>
	</g>
	<g>
		<g>
			<path style="fill-rule:evenodd;clip-rule:evenodd;fill:#895D60;" d="M311.1,147.7c-1.399,0.399-1.916,0.883-1.55,1.45
				c0.5,0.733,1.851,1.149,4.05,1.25c2.301,0.133,4.417-0.2,6.351-1c-0.767,0.566-1.7,1.1-2.8,1.6
				c-2.167,0.967-4.017,1.233-5.551,0.8c-1.699-0.467-2.733-1.133-3.1-2c-0.333-0.767-0.116-1.416,0.65-1.95
				c0.933-0.633,2.316-0.816,4.149-0.55C312.533,147.366,311.8,147.5,311.1,147.7z"/>
		</g>
	</g>
	<g>
		<g>
			<path style="fill-rule:evenodd;clip-rule:evenodd;fill:#895D60;" d="M268.75,197.7c-2.934,1.434-3.75,2.649-2.45,3.649
				c1.334,0.934,4.217,1.317,8.65,1.15c4.366-0.167,8.883-0.8,13.55-1.9c-1.8,1-3.833,1.967-6.1,2.9
				c-4.567,1.934-8.25,2.75-11.051,2.45c-3.3-0.334-5.55-1.2-6.75-2.601c-1.133-1.3-1.133-2.733,0-4.3
				c1-1.267,2.801-2.149,5.4-2.649c2.5-0.5,3.684-0.617,3.55-0.351C273.417,195.684,271.816,196.233,268.75,197.7z"/>
		</g>
	</g>
	<g>
		<g>
			<path style="fill-rule:evenodd;clip-rule:evenodd;fill:#895D60;" d="M282.4,149.1c-0.5,0.5-1.134,1-1.9,1.5
				c-1.467,0.967-2.8,1.4-4,1.301c-1.3-0.101-2.15-0.45-2.55-1.051c-0.367-0.533-0.3-1.033,0.2-1.5c0.6-0.6,1.6-0.933,3-1
				c-0.567,0.167-1.101,0.367-1.601,0.601c-0.967,0.467-1.267,0.883-0.899,1.25c0.466,0.467,1.517,0.616,3.149,0.45
				C279.533,150.417,281.066,149.9,282.4,149.1z"/>
		</g>
	</g>
	<g>
		<g>
			<path style="fill-rule:evenodd;clip-rule:evenodd;fill:#895D60;" d="M237.25,147.25c0.2,0.733,1.2,1.217,3,1.45
				c1.9,0.2,3.5-0.134,4.8-1c0.566,0-0.1,0.483-2,1.45c-1.666,0.833-3.166,0.983-4.5,0.449c-1.366-0.6-2.116-1.283-2.25-2.05
				c-0.133-0.633,0.15-1.083,0.851-1.35c0.5-0.167,1.149-0.2,1.949-0.101c0.4,0.034,0.767,0.084,1.101,0.15
				c-0.566,0-1.101,0.033-1.601,0.1C237.533,146.483,237.083,146.783,237.25,147.25z"/>
		</g>
	</g>
	<g>
		<g>
			<path style="fill-rule:evenodd;clip-rule:evenodd;fill:#895D60;" d="M210.05,162.65c-0.566-0.834-0.45-1.667,0.351-2.5
				c0.966-0.934,2.566-1.467,4.8-1.601c-0.867,0.267-1.7,0.601-2.5,1c-1.566,0.767-2.066,1.45-1.5,2.05
				c0.733,0.801,2.45,0.983,5.149,0.551c2.867-0.434,5.25-1.45,7.15-3.051c-0.667,0.934-1.583,1.851-2.75,2.75
				c-2.3,1.801-4.467,2.617-6.5,2.45C212.116,164.134,210.717,163.583,210.05,162.65z"/>
		</g>
	</g>
	<g>
		<g>
			<path style="fill-rule:evenodd;clip-rule:evenodd;fill:#895D60;" d="M187.5,170.15c-2.067,0.433-3.633,0.5-4.7,0.199
				c-0.8-0.233-1.333-0.566-1.6-1c-0.233-0.433-0.167-0.8,0.2-1.1c0.455-0.425,1.188-0.558,2.2-0.4
				c-0.229,0.027-0.579,0.11-1.05,0.25c-0.833,0.2-1.1,0.467-0.8,0.801C182.217,169.333,184.133,169.75,187.5,170.15z"/>
		</g>
	</g>
	<g>
		<g>
			<path style="fill-rule:evenodd;clip-rule:evenodd;fill:#895D60;" d="M160.1,204.05c0.9,0.667,2.85,0.65,5.85-0.05
				c1.767-0.4,4.75-1.217,8.95-2.45c-0.033,0-1.35,0.767-3.95,2.3c-2.833,1.667-5.167,2.617-7,2.851c-2.434,0.133-4.1-0.283-5-1.25
				c-0.8-0.9-0.784-1.867,0.05-2.9c0.533-0.767,1.567-1.434,3.1-2c0.8-0.267,1.533-0.467,2.2-0.6c-0.033,0-0.983,0.517-2.85,1.55
				C159.75,202.6,159.3,203.45,160.1,204.05z"/>
		</g>
	</g>
	<g>
		<g>
			<path style="fill-rule:evenodd;clip-rule:evenodd;fill:#895D60;" d="M274.5,97.65c3.5-0.3,6.583-1.283,9.25-2.95
				c-1.033,1.033-2.3,2.033-3.8,3c-3.033,1.933-5.767,2.733-8.2,2.4c-2.7-0.4-4.4-1.233-5.1-2.5c-0.601-1.067-0.351-2.067,0.75-3
				c0.8-0.667,2.033-1.117,3.699-1.35c0.834-0.133,1.601-0.2,2.301-0.2c-1.134,0.3-2.2,0.65-3.2,1.05
				c-1.967,0.767-2.634,1.55-2,2.35C269.033,97.55,271.134,97.95,274.5,97.65z"/>
		</g>
	</g>
	<g>
		<g>
			<path style="fill-rule:evenodd;clip-rule:evenodd;fill:#895D60;" d="M242.45,120.75c0.633-0.634,1.666-1.1,3.1-1.4
				c0.7-0.133,1.351-0.216,1.95-0.25c-0.967,0.267-1.866,0.601-2.7,1c-1.666,0.801-2.184,1.517-1.55,2.15
				c0.833,0.8,2.616,1.033,5.35,0.7c2.9-0.367,5.5-1.233,7.801-2.601c-0.867,0.867-1.934,1.717-3.2,2.551
				c-2.533,1.666-4.8,2.416-6.8,2.25c-2.2-0.2-3.634-0.801-4.301-1.801C241.5,122.45,241.616,121.583,242.45,120.75z"/>
		</g>
	</g>
	<g>
		<g>
			<path style="fill-rule:evenodd;clip-rule:evenodd;fill:#895D60;" d="M306.6,98.7c0.967,1.433,3.517,2.1,7.65,2
				c4.434-0.1,8.267-1.167,11.5-3.2c-1.233,1.267-2.816,2.467-4.75,3.6c-3.866,2.3-7.333,3.1-10.4,2.4c-3.267-0.733-5.267-1.9-6-3.5
				c-0.666-1.433-0.267-2.667,1.2-3.7c1.033-0.733,2.584-1.167,4.65-1.3c1.033-0.067,1.967-0.083,2.8-0.05
				c-1.366,0.233-2.684,0.566-3.95,1C306.767,96.75,305.866,97.667,306.6,98.7z"/>
		</g>
	</g>
	<g>
		<g>
			<path style="fill-rule:evenodd;clip-rule:evenodd;fill:#895D60;" d="M381.55,143.2c0.7-0.7,1.851-1.066,3.45-1.101
				c-0.634,0.2-1.233,0.434-1.8,0.7c-1.134,0.533-1.5,1.017-1.101,1.45c0.567,0.533,1.784,0.684,3.65,0.45
				c2-0.233,3.767-0.834,5.3-1.8c-0.566,0.6-1.283,1.183-2.149,1.75c-1.733,1.133-3.284,1.649-4.65,1.55
				c-1.5-0.134-2.483-0.533-2.95-1.2C380.9,144.4,380.983,143.8,381.55,143.2z"/>
		</g>
	</g>
	<g>
		<g>
			<path style="fill-rule:evenodd;clip-rule:evenodd;fill:#895D60;" d="M402.4,178.7c-1.601,1.434-3.084,1.85-4.45,1.25
				c-0.9-0.367-1.417-0.783-1.55-1.25c-0.134-0.434,0.017-0.767,0.449-1c0.567-0.267,1.301-0.283,2.2-0.05
				c-0.399,0-0.783,0.033-1.149,0.1c-0.767,0.1-1.067,0.316-0.9,0.65c0.167,0.466,0.866,0.767,2.1,0.899
				C400.4,179.467,401.5,179.267,402.4,178.7z"/>
		</g>
	</g>
	<g>
		<g>
			<path style="fill-rule:evenodd;clip-rule:evenodd;fill:#895D60;" d="M369.3,165.35c0.634,1.067,2.45,1.601,5.45,1.601
				c3.233,0.033,6-0.65,8.3-2.05c0.566,0.1-0.583,0.933-3.45,2.5c-2.8,1.566-5.3,2.083-7.5,1.55c-2.466-0.601-3.933-1.533-4.399-2.8
				c-0.434-1.134-0.05-1.967,1.149-2.5c1.101-0.801,2.867-1.084,5.301-0.851c-1,0.134-1.95,0.334-2.851,0.601
				C369.5,163.967,368.833,164.616,369.3,165.35z"/>
		</g>
	</g>
	<g>
		<g>
			<path style="fill-rule:evenodd;clip-rule:evenodd;fill:#895D60;" d="M400.1,108.75c2.101-0.267,3.983-0.9,5.65-1.9
				c-0.634,0.633-1.417,1.25-2.35,1.85c-1.834,1.2-3.467,1.733-4.9,1.6c-1.634-0.133-2.684-0.55-3.15-1.25
				c-0.466-0.633-0.383-1.267,0.25-1.899c0.733-0.734,1.95-1.134,3.65-1.2c-0.7,0.2-1.35,0.45-1.95,0.75
				c-1.2,0.566-1.566,1.083-1.1,1.55C396.767,108.816,398.066,108.983,400.1,108.75z"/>
		</g>
	</g>
	<g>
		<g>
			<path style="fill-rule:evenodd;clip-rule:evenodd;fill:#895D60;" d="M404.4,90.25c-0.567,0.6-1.301,1.167-2.2,1.7
				c-1.834,1.133-3.517,1.5-5.05,1.1c-1.634-0.533-2.567-1.216-2.801-2.05c-0.199-0.667,0.084-1.2,0.851-1.6
				c0.5-0.233,1.217-0.35,2.149-0.35c0.467,0,0.884,0,1.25,0c-0.633,0.1-1.233,0.217-1.8,0.35c-1.166,0.267-1.633,0.65-1.399,1.15
				c0.333,0.833,1.517,1.25,3.55,1.25C401.05,91.8,402.866,91.283,404.4,90.25z"/>
		</g>
	</g>
	<g>
		<g>
			<path style="fill-rule:evenodd;clip-rule:evenodd;fill:#895D60;" d="M373.05,68.55c-1.899,1.733-3.684,2.284-5.35,1.65
				c-1.066-0.367-1.717-0.833-1.95-1.4c-0.167-0.533,0-0.95,0.5-1.25c0.634-0.367,1.533-0.433,2.7-0.2
				c-0.467,0.033-0.934,0.1-1.4,0.2c-0.934,0.167-1.283,0.45-1.05,0.85c0.267,0.533,1.116,0.867,2.55,1
				C370.65,69.533,371.983,69.25,373.05,68.55z"/>
		</g>
	</g>
	<g>
		<g>
			<path style="fill-rule:evenodd;clip-rule:evenodd;fill:#895D60;" d="M343.8,45.9c0.167-0.533,0.684-1.017,1.55-1.45
				c0.269-0.134,0.535-0.25,0.801-0.35c-0.257,0.161-0.623,0.461-1.101,0.9c-0.866,0.8-1.017,1.3-0.45,1.5
				c0.267,0.133,1.267-0.017,3-0.45c1.646-0.418,3.129-0.46,4.45-0.125c-0.402-0.006-1.053,0.119-1.95,0.375
				c-1.233,0.367-2.366,0.784-3.399,1.25c-1.101,0.2-1.934,0.133-2.5-0.2C343.667,47.017,343.533,46.533,343.8,45.9z"/>
		</g>
	</g>
	<g>
		<g>
			<path style="fill-rule:evenodd;clip-rule:evenodd;fill:#895D60;" d="M319.05,56.6c2.033-0.133,3.816-0.7,5.351-1.7
				c-0.567,0.6-1.301,1.184-2.2,1.75c-1.733,1.133-3.334,1.567-4.8,1.3c-1.601-0.333-2.567-0.867-2.9-1.6
				c-0.3-0.667-0.116-1.25,0.55-1.75c0.767-0.533,1.917-0.767,3.45-0.7c-0.634,0.167-1.233,0.35-1.8,0.55
				c-1.167,0.367-1.584,0.783-1.25,1.25C315.884,56.4,317.083,56.7,319.05,56.6z"/>
		</g>
	</g>
	<g>
		<g>
			<path style="fill-rule:evenodd;clip-rule:evenodd;fill:#895D60;" d="M330.4,78.55c-0.434,0.467-0.967,0.9-1.601,1.3
				c-1.3,0.833-2.5,1.133-3.6,0.9c-1.167-0.3-1.867-0.733-2.101-1.3c-0.199-0.5-0.033-0.917,0.5-1.25c0.567-0.367,1.4-0.5,2.5-0.4
				c-0.433,0.067-0.866,0.167-1.3,0.3c-0.866,0.267-1.2,0.566-1,0.9c0.334,0.567,1.217,0.817,2.65,0.75
				C327.95,79.683,329.267,79.283,330.4,78.55z"/>
		</g>
	</g>
	<g>
		<g>
			<path style="fill-rule:evenodd;clip-rule:evenodd;fill:#895D60;" d="M345.45,103.85c-1.3,0.833-2.5,1.133-3.601,0.9
				c-1.166-0.3-1.866-0.733-2.1-1.3c-0.2-0.5-0.033-0.917,0.5-1.25c0.6-0.367,1.434-0.5,2.5-0.4c-0.434,0.067-0.866,0.167-1.3,0.3
				c-0.867,0.267-1.184,0.566-0.95,0.9c0.3,0.567,1.167,0.817,2.6,0.75c1.534-0.067,2.851-0.467,3.95-1.2
				C346.65,103.017,346.116,103.45,345.45,103.85z"/>
		</g>
	</g>
	<g>
		<g>
			<path style="fill-rule:evenodd;clip-rule:evenodd;fill:#895D60;" d="M321.25,127.4c2.833,0.033,5.217-0.483,7.15-1.551
				c-3.634,2.801-6.717,3.9-9.25,3.301c-1.667-0.267-2.834-0.717-3.5-1.351c-0.667-0.666-0.75-1.45-0.25-2.35
				c0.533-0.834,1.583-1.367,3.149-1.601c1.9-0.333,2.584-0.366,2.05-0.1c0-0.3-0.933-0.033-2.8,0.8c-1.7,0.8-2.149,1.483-1.35,2.05
				C317.384,127.1,318.983,127.366,321.25,127.4z"/>
		</g>
	</g>
	<g>
		<g>
			<path style="fill-rule:evenodd;clip-rule:evenodd;fill:#895D60;" d="M338.45,175.8c-1.101,1.767-2.667,3.5-4.7,5.2
				c-4.066,3.366-8.184,4.684-12.35,3.95c-2.2-0.367-4.034-1.15-5.5-2.351c-1.233-1-1.917-2.017-2.051-3.05
				c-0.233-1.434,0.684-2.633,2.75-3.6c1.134-0.5,2.733-0.834,4.801-1c1-0.066,1.933-0.101,2.8-0.101
				c-1.4,0.367-2.767,0.75-4.101,1.15c-2.699,0.8-3.833,1.75-3.399,2.85c0.833,2.233,3.833,3.101,9,2.601
				C331.1,180.917,335.35,179.033,338.45,175.8z"/>
		</g>
	</g>
	<g>
		<g>
			<path style="fill-rule:evenodd;clip-rule:evenodd;fill:#895D60;" d="M366.25,130.65c-1.333,0.333-2.434,0.25-3.3-0.25
				c-0.9-0.601-1.351-1.167-1.351-1.7c-0.033-0.467,0.217-0.767,0.75-0.9c0.601-0.166,1.351-0.05,2.25,0.351
				c-0.399-0.067-0.8-0.101-1.199-0.101c-0.801-0.033-1.167,0.134-1.101,0.5c0.101,0.533,0.783,0.983,2.05,1.351
				c1.301,0.399,2.517,0.449,3.65,0.149C367.5,130.283,366.917,130.483,366.25,130.65z"/>
		</g>
	</g>
	<g>
		<g>
			<path style="fill-rule:evenodd;clip-rule:evenodd;fill:#895D60;" d="M386.25,110c-1.7,1.167-3.184,1.75-4.45,1.75
				c-1.434,0.033-2.434-0.233-3-0.8c-0.533-0.533-0.566-1.134-0.1-1.8c0.366-0.534,1.066-0.95,2.1-1.25
				c1.033-0.334,1.483-0.434,1.351-0.301c0-0.166-0.601,0.117-1.801,0.851c-1.133,0.7-1.433,1.233-0.899,1.6
				c0.6,0.4,1.816,0.434,3.649,0.101c1.934-0.367,3.7-1,5.301-1.9C387.8,108.85,387.083,109.434,386.25,110z"/>
		</g>
	</g>
	<g>
		<g>
			<path style="fill-rule:evenodd;clip-rule:evenodd;fill:#895D60;" d="M230.9,129.65c-2-0.067-3.4-0.184-4.2-0.351
				c-0.601-0.133-1.05-0.366-1.351-0.7c-0.333-0.366-0.366-0.716-0.1-1.05c0.267-0.366,0.767-0.566,1.5-0.6
				c0.7-0.066,1.033-0.033,1,0.1c-0.033-0.2-0.5-0.133-1.4,0.2c-0.833,0.3-1.05,0.6-0.649,0.9
				C227.233,128.483,228.967,128.983,230.9,129.65z"/>
		</g>
	</g>
</g>
</svg>
