<?xml version="1.0" encoding="iso-8859-1"?>
<!-- Generator: Adobe Illustrator 15.1.0, SVG Export Plug-In . SVG Version: 6.00 Build 0)  -->
<!DOCTYPE svg PUBLIC "-//W3C//DTD SVG 1.1//EN" "http://www.w3.org/Graphics/SVG/1.1/DTD/svg11.dtd">
<svg version="1.1" id="buildings" xmlns="http://www.w3.org/2000/svg" xmlns:xlink="http://www.w3.org/1999/xlink" x="0px" y="0px"
	 width="286.95px" height="84.45px" viewBox="0 0 286.95 84.45" style="enable-background:new 0 0 286.95 84.45;"
	 xml:space="preserve">
<path style="fill-rule:evenodd;clip-rule:evenodd;fill:#B7CFA2;" d="M271.95,1l15-1c0.166,7.667-1.167,16.15-4,25.45
	c-5.667,18.566-16,31.866-31,39.899c-15,8.067-38.167,12.601-69.5,13.601c-9.8,0.333-19.816,0.283-30.05-0.15l-12.45-0.75
	c-15,2.667-31.217,4.55-48.65,5.65c-34.9,2.233-58.466-0.55-70.7-8.351C8.367,67.583,1.583,53.483,0.25,33.05
	C-0.383,22.817,0.183,13.367,1.95,4.7l26.55,9.85c-2.433,5.233-3.183,10.817-2.25,16.75c1.8,11.867,11.033,19.601,27.7,23.2
	c13.667,2.967,28.017,4.95,43.05,5.95c12.467,0.8,29.95,1.149,52.45,1.05c7.434-0.033,19.533-0.934,36.3-2.7
	c15.934-1.666,26.217-3.033,30.85-4.1c24.934-5.7,41.634-16.367,50.101-32C270.967,14.9,272.717,7.667,271.95,1z"/>
<path style="fill-rule:evenodd;clip-rule:evenodd;fill:#789D65;" d="M136.45,77c-28.633,2.467-51.467,4.134-68.5,5
	c-13.667,0.7-25.117-0.517-34.35-3.65c-8-2.699-14.717-6.983-20.15-12.85c-5.833-6.233-9.167-15.6-10-28.1
	c-0.4-6.267-0.233-11.9,0.5-16.9l1.15,7.25c1,4.667,2.117,6.583,3.35,5.75c1.267-0.833,2.233-3.167,2.9-7l0.6-5.5
	c-0.333,7.267,0.167,14.783,1.5,22.55C16.117,59.15,21.617,68.3,29.95,71c9.867,3.2,19.033,5.384,27.5,6.55
	c8.233,1.134,16.9,1.45,26,0.95c12-0.667,29.667-2.167,53-4.5V77z"/>
<path style="fill-rule:evenodd;clip-rule:evenodd;fill:#D4E2C8;" d="M135.6,64.85c-8.567,0.434-18.317,0.601-29.25,0.5
	c-21.9-0.233-38.817-1.733-50.75-4.5C41.767,57.65,32.583,54.267,28.05,50.7c-4.033-3.167-6.566-8.4-7.6-15.7
	c-0.833-5.833-0.383-10.483,1.35-13.95c0.833-1.767,1.767-2.933,2.8-3.5l3.9-3c-2.833,4.9-4.2,10.267-4.1,16.1
	c0.233,11.6,7.75,19.667,22.55,24.2c15.8,4.834,35.2,7.517,58.2,8.051c11.533,0.233,21.467,0,29.8-0.7L135.6,64.85z"/>
<path style="fill-rule:evenodd;clip-rule:evenodd;fill:#789D65;" d="M252.95,58.5l7-1c-3.334,2.1-7.45,4.35-12.351,6.75
	c-9.833,4.833-18.716,8.083-26.649,9.75s-19.783,2.667-35.55,3c-14.467,0-21.95,0-22.45,0c-0.634,0,2.6-0.333,9.7-1
	c3.533-0.333,7.133-0.667,10.8-1l-22.5-1l21.399-0.95c15.834-0.733,27.7-1.416,35.601-2.05c7.934-0.634,16.149-2.9,24.649-6.8
	C246.833,62.233,250.283,60.333,252.95,58.5z"/>
<path style="fill-rule:evenodd;clip-rule:evenodd;fill:#D4E2C8;" d="M252.45,43c-2.334,2.333-5.25,4.767-8.75,7.3
	c-7,5.101-13.417,8.167-19.25,9.2c-5.834,1.033-18.167,2.434-37,4.2l-26.5,2.3l-0.5-3l26.2-2.05
	c18.733-1.767,31.333-3.584,37.8-5.45s13.066-4.517,19.8-7.95C247.65,45.85,250.384,44.333,252.45,43z"/>
</svg>
