<?xml version="1.0" encoding="iso-8859-1"?>
<!-- Generator: Adobe Illustrator 15.1.0, SVG Export Plug-In . SVG Version: 6.00 Build 0)  -->
<!DOCTYPE svg PUBLIC "-//W3C//DTD SVG 1.1//EN" "http://www.w3.org/Graphics/SVG/1.1/DTD/svg11.dtd">
<svg version="1.1" id="Isolation_Mode" xmlns="http://www.w3.org/2000/svg" xmlns:xlink="http://www.w3.org/1999/xlink" x="0px"
	 y="0px" width="498.7px" height="51.5px" viewBox="0 0 498.7 51.5" style="enable-background:new 0 0 498.7 51.5;"
	 xml:space="preserve">
<g>
	<path style="fill-rule:evenodd;clip-rule:evenodd;fill:#895D60;" d="M377.65,6.05l12.449,12.2l67.75,3.45L498.7,51.5H0
		c2.767-0.967,14.2-5.35,34.3-13.15c16.8-6.533,31.9-11.866,45.3-16C121.467,9.383,164.35,2.2,208.25,0.8
		c45.3-1.433,87.134-0.983,125.5,1.35C352.917,3.317,367.55,4.617,377.65,6.05z"/>
	<g>
		<g>
			<path style="fill-rule:evenodd;clip-rule:evenodd;fill:#7F5257;" d="M122.85,37.05c-4.3,1.267-8.25,1.566-11.85,0.9
				c-7.033-1.4-11.417-3.8-13.15-7.2c-1.5-3-0.75-5.667,2.25-8c2.233-1.667,5.6-2.717,10.1-3.15c2.233-0.233,4.233-0.3,6-0.2
				c-2.967,0.567-5.8,1.333-8.5,2.3c-5.434,1.9-7.317,3.933-5.65,6.1c0.9,1.334,2.9,2.367,6,3.101c3.1,0.733,6.65,1,10.65,0.8
				c9.8-0.5,17.767-3.334,23.9-8.5c-0.533,0.733-1.317,1.667-2.35,2.8c-2.1,2.267-4.4,4.233-6.9,5.9
				C130.083,34.2,126.583,35.917,122.85,37.05z"/>
		</g>
	</g>
	<g>
		<g>
			<path style="fill-rule:evenodd;clip-rule:evenodd;fill:#7F5257;" d="M185.7,17.2c6.966-0.867,13.183-2.934,18.65-6.2
				c-2.067,2.067-4.617,4.1-7.65,6.1c-6.034,3.967-11.434,5.75-16.2,5.35c-5.3-0.467-8.75-1.883-10.35-4.25
				C168.717,16.067,169,14,171,12c1.5-1.5,3.967-2.6,7.4-3.3c1.733-0.367,3.3-0.583,4.7-0.65c-2.267,0.667-4.4,1.467-6.4,2.4
				c-3.967,1.933-5.2,3.633-3.7,5.1C174.867,17.45,179.1,18,185.7,17.2z"/>
		</g>
	</g>
	<g>
		<g>
			<path style="fill-rule:evenodd;clip-rule:evenodd;fill:#7F5257;" d="M307.9,20c5.966-1,11.449-3,16.449-6
				c-1.866,1.867-4.1,3.717-6.699,5.55c-5.233,3.667-9.967,5.434-14.2,5.3c-4.8-0.267-7.934-1.434-9.4-3.5
				c-1.3-1.833-1.05-3.684,0.75-5.55c1.3-1.3,3.417-2.316,6.351-3.05c1.5-0.333,2.866-0.567,4.1-0.7
				c-1.967,0.667-3.816,1.45-5.55,2.35c-3.4,1.767-4.45,3.283-3.15,4.55C298.283,20.65,302.066,21,307.9,20z"/>
		</g>
	</g>
	<g>
		<g>
			<path style="fill-rule:evenodd;clip-rule:evenodd;fill:#7F5257;" d="M72.85,36c-0.8,0.267-1.567,0.583-2.3,0.95
				c-1.433,0.733-1.883,1.366-1.35,1.899c0.7,0.801,2.3,0.967,4.8,0.5c2.667-0.5,4.833-1.55,6.5-3.149
				c-0.567,0.899-1.367,1.8-2.4,2.7c-2.067,1.767-4.067,2.6-6,2.5c-2.033-0.134-3.35-0.65-3.95-1.551
				c-0.533-0.8-0.433-1.566,0.3-2.3c0.566-0.566,1.466-1,2.7-1.3C71.783,36.116,72.35,36.033,72.85,36z"/>
		</g>
	</g>
	<g>
		<g>
			<path style="fill-rule:evenodd;clip-rule:evenodd;fill:#7F5257;" d="M256.45,41.35c0.833-1.3,2.45-2.383,4.85-3.25
				c2.367-0.833,3.483-1.116,3.351-0.85c-0.167-0.333-1.617,0.434-4.351,2.3c-2.6,1.767-3.25,3.084-1.95,3.95
				c1.534,0.866,4.483,0.816,8.851-0.15c4.8-1.1,8.883-2.933,12.25-5.5c0.533,0.134-1.066,1.7-4.8,4.7
				c-3.9,3.101-7.417,4.684-10.551,4.75c-3.433,0.233-5.85-0.333-7.25-1.7C255.55,44.366,255.417,42.95,256.45,41.35z"/>
		</g>
	</g>
	<g>
		<g>
			<path style="fill-rule:evenodd;clip-rule:evenodd;fill:#7F5257;" d="M448.35,41.7c-6.966,3.934-13.233,5.283-18.8,4.05
				c-6.166-1.6-9.783-3.983-10.85-7.15c-0.9-2.767,0.083-4.866,2.95-6.3c1.899-1.033,4.616-1.633,8.149-1.8
				c1.767-0.066,3.367-0.05,4.8,0.05c-2.399,0.4-4.699,0.9-6.899,1.5c-4.434,1.267-6.134,2.816-5.101,4.65
				c1.567,2.833,6.101,4.2,13.601,4.1c7.733-0.1,14.733-1.833,21-5.2C454.767,37.7,451.816,39.733,448.35,41.7z"/>
		</g>
	</g>
	<g>
		<g>
			<path style="fill-rule:evenodd;clip-rule:evenodd;fill:#7F5257;" d="M371.6,36.9c-0.633,0.267-1.316,0.633-2.05,1.1
				c-1.5,0.9-2.533,1.884-3.1,2.95c-0.467,1.066,2.45,1.267,8.75,0.6c6.233-0.633,9.283-0.85,9.149-0.649c0.067-0.134-2.6,0.3-8,1.3
				c-6,1.066-9.783,1.133-11.35,0.2c-1.366-0.934-0.684-2.101,2.05-3.5C368.417,38.167,369.934,37.5,371.6,36.9z"/>
		</g>
	</g>
	<g>
		<g>
			<path style="fill-rule:evenodd;clip-rule:evenodd;fill:#7F5257;" d="M208.45,32.95c-0.967,0.333-2.05,0.816-3.25,1.45
				c-2.367,1.267-4.034,2.666-5,4.199c-0.9,1.667,3.55,2.284,13.35,1.851c4.9-0.233,9.8-0.517,14.7-0.851
				c-4.033,0.7-8.35,1.334-12.95,1.9c-9.3,1.167-15.133,0.934-17.5-0.7c-2.066-1.566-0.917-3.316,3.45-5.25
				C203.45,34.583,205.85,33.717,208.45,32.95z"/>
		</g>
	</g>
	<g>
		<g>
			<path style="fill-rule:evenodd;clip-rule:evenodd;fill:#7F5257;" d="M341.45,27.9c-0.601,0.233-1.233,0.55-1.9,0.949
				c-1.333,0.801-2.267,1.667-2.8,2.601c-0.5,1.033,2.134,1.25,7.9,0.649c2.866-0.3,5.75-0.633,8.649-1
				c-2.366,0.567-4.899,1.084-7.6,1.551c-5.434,1-8.851,1.066-10.25,0.199c-1.3-0.833-0.684-1.899,1.85-3.199
				C338.566,29.017,339.95,28.434,341.45,27.9z"/>
		</g>
	</g>
	<g>
		<g>
			<path style="fill-rule:evenodd;clip-rule:evenodd;fill:#895D60;" d="M47.85,42.45c-0.667,0.066-1.15,0.283-1.45,0.649
				c-0.2,0.233,0.483,0.45,2.05,0.65c0.767,0.1,1.566,0.184,2.4,0.25c-2.767,0.066-4.4-0.134-4.9-0.6
				c-0.3-0.301-0.083-0.551,0.65-0.75C47,42.55,47.417,42.483,47.85,42.45z"/>
		</g>
	</g>
	<g>
		<g>
			<path style="fill-rule:evenodd;clip-rule:evenodd;fill:#7F5257;" d="M46.1,42.05c-1.3-0.1-2.333,0.134-3.1,0.7
				c-0.6,0.533,0.683,1.233,3.85,2.1c1.37,0.371,2.462,0.638,3.275,0.801c-4.789-0.441-7.497-1.274-8.125-2.5
				c-0.433-0.7,0.133-1.101,1.7-1.2C44.467,41.917,45.267,41.95,46.1,42.05z"/>
		</g>
	</g>
	<g>
		<g>
			<path style="fill-rule:evenodd;clip-rule:evenodd;fill:#7F5257;" d="M27.6,46.5c-0.267,0.033-0.567,0.1-0.9,0.2
				c-0.7,0.2-1.2,0.483-1.5,0.85c-0.267,0.267,0.816,0.65,3.25,1.15l3.65,0.75c-1.033-0.101-2.133-0.217-3.3-0.351
				c-2.333-0.3-3.75-0.666-4.25-1.1c-0.533-0.467-0.183-0.866,1.05-1.2C26.233,46.667,26.9,46.566,27.6,46.5z"/>
		</g>
	</g>
	<g>
		<g>
			<path style="fill-rule:evenodd;clip-rule:evenodd;fill:#7F5257;" d="M150.2,14.85c-2,0.433-3.417,1.233-4.25,2.4
				c-0.467,0.667,1.633,1.15,6.3,1.45c2.333,0.167,4.7,0.283,7.1,0.35c-2,0.133-4.117,0.2-6.35,0.2c-4.433,0.067-7.167-0.267-8.2-1
				c-1.033-0.8-0.45-1.617,1.75-2.45C147.683,15.4,148.9,15.083,150.2,14.85z"/>
		</g>
	</g>
	<g>
		<g>
			<path style="fill-rule:evenodd;clip-rule:evenodd;fill:#7F5257;" d="M155.35,42.15c-1.3,0.399-2.25,0.983-2.85,1.75
				c-0.367,0.666,1.133,0.949,4.5,0.85c1.667-0.066,3.35-0.2,5.05-0.4c-1.367,0.301-2.85,0.551-4.45,0.75c-3.2,0.4-5.2,0.233-6-0.5
				c-0.6-0.566-0.167-1.133,1.3-1.699C153.667,42.634,154.483,42.384,155.35,42.15z"/>
		</g>
	</g>
	<g>
		<g>
			<path style="fill-rule:evenodd;clip-rule:evenodd;fill:#7F5257;" d="M129.55,43.45c-1.066,0.133-1.85,0.5-2.35,1.1
				c-0.333,0.467,0.783,0.767,3.35,0.9c1.32,0.083,2.312,0.125,2.975,0.125c-3.942,0.447-6.267,0.256-6.975-0.575
				c-0.5-0.467-0.15-0.866,1.05-1.2C128.2,43.634,128.85,43.517,129.55,43.45z"/>
		</g>
	</g>
	<g>
		<g>
			<path style="fill-rule:evenodd;clip-rule:evenodd;fill:#7F5257;" d="M246.2,11.3c2.42,0.292,4.921,0.333,7.5,0.125
				c-9.319,0.992-14.653,0.317-16-2.025c-0.833-1.1,0.017-1.85,2.55-2.25c1.267-0.2,2.617-0.333,4.05-0.4
				c-2.167,0.2-3.85,0.817-5.05,1.85c-0.433,0.433,0.083,0.933,1.55,1.5C242.267,10.633,244.067,11.033,246.2,11.3z"/>
		</g>
	</g>
	<g>
		<g>
			<path style="fill-rule:evenodd;clip-rule:evenodd;fill:#7F5257;" d="M180.1,30.5c-1.733,0.134-3.133,0.55-4.2,1.25
				c-0.767,0.866,1.117,1.684,5.65,2.45c2.395,0.401,4.162,0.66,5.3,0.774c-1.471,0.049-3.021,0.024-4.65-0.074
				c-4.4-0.334-6.95-1.2-7.65-2.601c-0.533-0.934,0.217-1.483,2.25-1.649C177.833,30.55,178.933,30.5,180.1,30.5z"/>
		</g>
	</g>
	<g>
		<g>
			<path style="fill-rule:evenodd;clip-rule:evenodd;fill:#7F5257;" d="M321.15,45.65c-0.9,0.333-1.567,0.783-2,1.35
				c-0.233,0.5,0.866,0.634,3.3,0.4c1.2-0.134,2.399-0.301,3.6-0.5c-0.967,0.267-2.017,0.517-3.149,0.75
				c-2.301,0.433-3.75,0.383-4.351-0.15c-0.467-0.4-0.166-0.816,0.9-1.25C319.983,46.017,320.55,45.816,321.15,45.65z"/>
		</g>
	</g>
	<g>
		<g>
			<path style="fill-rule:evenodd;clip-rule:evenodd;fill:#7F5257;" d="M473.55,42.6c-1.767,0.2-3.149,0.717-4.149,1.551
				c-0.667,0.833,1.233,1.55,5.699,2.149c2.544,0.355,4.369,0.581,5.476,0.675c-1.519,0.055-3.11,0.029-4.775-0.074
				c-4.333-0.2-6.899-0.9-7.7-2.101c-0.633-0.899,0.084-1.517,2.15-1.85C471.283,42.783,472.384,42.667,473.55,42.6z"/>
		</g>
	</g>
	<g>
		<g>
			<path style="fill-rule:evenodd;clip-rule:evenodd;fill:#7F5257;" d="M458.725,30.65c-6.088,0.918-9.646,0.451-10.675-1.4
				c-0.533-0.833,0.134-1.4,2-1.7c0.967-0.166,1.983-0.3,3.05-0.399c-1.6,0.267-2.866,0.767-3.8,1.5
				c-0.733,0.933,1.066,1.55,5.4,1.85C456.347,30.599,457.688,30.649,458.725,30.65c0.811-0.127,1.669-0.277,2.575-0.45
				C461.321,30.493,460.463,30.644,458.725,30.65z"/>
		</g>
	</g>
	<g>
		<g>
			<path style="fill-rule:evenodd;clip-rule:evenodd;fill:#7F5257;" d="M406,28.6c2.175,0.371,3.791,0.612,4.85,0.726
				c-1.336,0.037-2.753-0.005-4.25-0.125c-4.1-0.267-6.466-1.084-7.1-2.45c-0.434-0.833,0.283-1.317,2.15-1.45
				c0.966-0.066,1.966-0.117,3-0.15c-1.567,0.133-2.851,0.517-3.851,1.15C400.066,27.134,401.8,27.9,406,28.6z"/>
		</g>
	</g>
	<g>
		<g>
			<path style="fill-rule:evenodd;clip-rule:evenodd;fill:#7F5257;" d="M400,43.55c-1.866,0.4-3.333,1.066-4.4,2
				c-0.433,0.4,0.067,0.834,1.5,1.3c1.467,0.467,3.167,0.684,5.101,0.65c2.6-0.033,5.2-0.35,7.8-0.95
				c-9.066,2.334-14.35,2.267-15.85-0.2c-0.7-0.966,0.066-1.683,2.3-2.149C397.583,43.934,398.767,43.717,400,43.55z"/>
		</g>
	</g>
	<g>
		<g>
			<path style="fill-rule:evenodd;clip-rule:evenodd;fill:#7F5257;" d="M376.65,21.6c-1.067,0.233-1.851,0.683-2.351,1.35
				c-0.366,0.633,0.867,0.867,3.7,0.7c1.025-0.071,1.867-0.146,2.525-0.225c-3.864,0.953-6.189,0.978-6.976,0.075
				c-0.533-0.467-0.166-0.917,1.101-1.35C375.25,21.917,375.917,21.733,376.65,21.6z"/>
		</g>
	</g>
	<g>
		<g>
			<path style="fill-rule:evenodd;clip-rule:evenodd;fill:#7F5257;" d="M390.025,32.775c-0.681,0.121-1.189,0.396-1.525,0.824
				c-0.267,0.367,0.583,0.584,2.55,0.65c0.909,0.031,1.609,0.039,2.101,0.025c-2.918,0.39-4.634,0.282-5.15-0.325
				c-0.366-0.367-0.1-0.667,0.8-0.9C389.179,32.934,389.588,32.842,390.025,32.775z"/>
		</g>
	</g>
	<g>
		<g>
			<path style="fill-rule:evenodd;clip-rule:evenodd;fill:#7F5257;" d="M365,9.2c1.569,0.275,2.761,0.458,3.575,0.55
				c-4.854-0.025-7.696-0.575-8.525-1.65c-0.533-0.633-0.033-1.083,1.5-1.35c0.767-0.133,1.566-0.2,2.4-0.2
				c-1.267,0.034-2.267,0.383-3,1.05C360.483,8.1,361.833,8.633,365,9.2z"/>
		</g>
	</g>
	<g>
		<g>
			<path style="fill-rule:evenodd;clip-rule:evenodd;fill:#7F5257;" d="M344.075,44.125c-1.718,0.258-2.976,0.866-3.775,1.825
				c-0.5,0.6,1.367,1.166,5.601,1.7c2.1,0.3,4.25,0.517,6.449,0.649c-1.833,0.066-3.767,0.05-5.8-0.05
				c-4.033-0.233-6.483-0.75-7.35-1.55c-0.867-0.8-0.267-1.467,1.8-2C341.938,44.45,342.963,44.259,344.075,44.125z"/>
		</g>
	</g>
	<g>
		<g>
			<path style="fill-rule:evenodd;clip-rule:evenodd;fill:#7F5257;" d="M353.05,15.25c-1.5,0.1-2.633,0.533-3.399,1.3
				c-0.534,0.567,1.017,1.167,4.649,1.8c1.951,0.334,3.385,0.551,4.3,0.65c-5.701-0.019-9.034-0.635-10-1.85
				c-0.633-0.733-0.066-1.267,1.7-1.6C351.167,15.383,352.083,15.283,353.05,15.25z"/>
		</g>
	</g>
	<g>
		<g>
			<path style="fill-rule:evenodd;clip-rule:evenodd;fill:#7F5257;" d="M337.05,8.325c-0.697,0.12-1.214,0.378-1.55,0.775
				c-0.233,0.267,0.583,0.517,2.45,0.75c0.967,0.133,1.934,0.233,2.899,0.3c-3.3,0.1-5.25-0.133-5.85-0.7
				c-0.366-0.367-0.1-0.667,0.8-0.9C336.179,8.462,336.596,8.388,337.05,8.325z"/>
		</g>
	</g>
	<g>
		<g>
			<path style="fill-rule:evenodd;clip-rule:evenodd;fill:#7F5257;" d="M316.4,31.4c-0.5,0.066-1.067,0.199-1.7,0.399
				c-1.233,0.367-2.134,0.9-2.7,1.601c-0.566,0.699,1.483,1.35,6.15,1.949c2.333,0.301,4.733,0.534,7.199,0.7
				c-2.066,0.066-4.216,0.033-6.449-0.1c-4.5-0.233-7.217-0.783-8.15-1.65c-0.967-0.899-0.316-1.649,1.95-2.25
				C313.833,31.75,315.066,31.533,316.4,31.4z"/>
		</g>
	</g>
	<g>
		<g>
			<path style="fill-rule:evenodd;clip-rule:evenodd;fill:#7F5257;" d="M314.8,7.775c-1.123,0.178-1.957,0.586-2.5,1.225
				c-0.366,0.5,0.9,0.85,3.8,1.05c1.538,0.106,2.68,0.165,3.426,0.175c-4.479,0.45-7.138,0.225-7.976-0.675
				c-0.566-0.533-0.166-0.983,1.2-1.35C313.375,8.013,314.059,7.871,314.8,7.775z"/>
		</g>
	</g>
	<g>
		<g>
			<path style="fill-rule:evenodd;clip-rule:evenodd;fill:#7F5257;" d="M290.85,39.7c-1.466,0.267-2.55,0.833-3.25,1.7
				c-0.433,0.633,1.184,1.017,4.851,1.149c3.8,0.167,5.666,0.15,5.6-0.05c0.101,0.2-1.566,0.366-5,0.5
				c-3.5,0.167-5.633-0.116-6.399-0.85c-0.7-0.634-0.217-1.233,1.449-1.801C288.967,40.05,289.884,39.833,290.85,39.7z"/>
		</g>
	</g>
	<g>
		<g>
			<path style="fill-rule:evenodd;clip-rule:evenodd;fill:#7F5257;" d="M277.85,11c-0.466,0.033-1.017,0.117-1.649,0.25
				c-1.2,0.267-2.117,0.7-2.75,1.3c-0.667,0.667,1.283,1.467,5.85,2.4c2.453,0.48,4.27,0.796,5.45,0.95
				c-7.188-0.241-11.388-1.108-12.6-2.6c-0.801-0.933-0.101-1.6,2.1-2C275.384,11.1,276.583,11,277.85,11z"/>
		</g>
	</g>
	<g>
		<g>
			<path style="fill-rule:evenodd;clip-rule:evenodd;fill:#7F5257;" d="M297.95,32.75c-0.667,0-1.184,0.15-1.55,0.45
				c-0.267,0.267,0.383,0.583,1.949,0.95c0.641,0.144,1.157,0.252,1.551,0.324c-2.313-0.122-3.646-0.464-4-1.024
				c-0.233-0.367,0.033-0.584,0.8-0.65C297.1,32.733,297.517,32.717,297.95,32.75z"/>
		</g>
	</g>
	<g>
		<g>
			<path style="fill-rule:evenodd;clip-rule:evenodd;fill:#7F5257;" d="M238.35,45.2c-1.467,0.267-2.55,0.833-3.25,1.7
				c-0.434,0.633,1.183,1.017,4.85,1.149c3.8,0.167,5.667,0.15,5.6-0.05c0.1,0.2-1.566,0.366-5,0.5c-3.5,0.167-5.633-0.116-6.4-0.85
				c-0.7-0.634-0.217-1.233,1.45-1.801C236.467,45.55,237.383,45.333,238.35,45.2z"/>
		</g>
	</g>
	<g>
		<g>
			<path style="fill-rule:evenodd;clip-rule:evenodd;fill:#7F5257;" d="M216.75,17.15c-1.2,0.3-2.133,0.767-2.8,1.4
				c-0.434,0.7,0.983,1.05,4.25,1.05c1.618,0,2.834-0.025,3.65-0.075c-0.974,0.19-2.008,0.332-3.1,0.425
				c-3.133,0.3-5.033,0.017-5.7-0.85c-0.5-0.6-0.033-1.083,1.4-1.45C215.183,17.483,215.95,17.317,216.75,17.15z"/>
		</g>
	</g>
	<g>
		<g>
			<path style="fill-rule:evenodd;clip-rule:evenodd;fill:#7F5257;" d="M259.95,5.1c-1.5,0.5-2.483,1.217-2.95,2.15
				c-0.267,0.4,1.3,0.6,4.7,0.6c3.434,0.033,5.149,0.066,5.149,0.1c-1.466,0.1-3,0.2-4.6,0.3c-3.2,0.233-5.2,0.167-6-0.2
				c-0.9-0.466-0.55-1.1,1.05-1.9C258.066,5.75,258.95,5.4,259.95,5.1z"/>
		</g>
	</g>
	<g>
		<g>
			<path style="fill-rule:evenodd;clip-rule:evenodd;fill:#7F5257;" d="M291.85,3.55c-0.74,0.035-1.34,0.252-1.8,0.65
				c-0.333,0.333,0.533,0.7,2.601,1.1c1.059,0.215,1.859,0.357,2.399,0.425c-3.239-0.077-5.106-0.485-5.6-1.225
				c-0.3-0.433,0.05-0.717,1.05-0.85C290.938,3.592,291.388,3.558,291.85,3.55z"/>
		</g>
	</g>
	<g>
		<g>
			<path style="fill-rule:evenodd;clip-rule:evenodd;fill:#7F5257;" d="M196.05,5.3c-0.966,0.4-1.617,0.917-1.95,1.55
				c-0.167,0.333,0.933,0.417,3.3,0.25c2.333-0.2,3.483-0.267,3.45-0.2c0-0.033-1.017,0.117-3.05,0.45c-2.2,0.333-3.6,0.367-4.2,0.1
				c-0.567-0.333-0.333-0.784,0.7-1.35C194.833,5.8,195.417,5.533,196.05,5.3z"/>
		</g>
	</g>
	<g>
		<g>
			<path style="fill-rule:evenodd;clip-rule:evenodd;fill:#7F5257;" d="M185.075,46.425c-1.409,0.249-2.417,0.758-3.025,1.525
				c-0.333,0.399,1.15,0.866,4.45,1.399c3.333,0.534,4.95,0.867,4.85,1c0.033-0.066-1.4-0.233-4.3-0.5
				c-3.167-0.3-5.133-0.699-5.9-1.199c-0.7-0.634-0.233-1.2,1.4-1.7C183.331,46.731,184.173,46.557,185.075,46.425z"/>
		</g>
	</g>
	<g>
		<g>
			<path style="fill-rule:evenodd;clip-rule:evenodd;fill:#7F5257;" d="M212.95,25.9c-0.967,0.033-1.717,0.284-2.25,0.75
				c-0.4,0.399,0.6,0.816,3,1.25c1.176,0.241,2.068,0.408,2.675,0.5c-3.667-0.074-5.792-0.541-6.375-1.4
				c-0.367-0.467,0.017-0.8,1.15-1C211.717,25.933,212.317,25.9,212.95,25.9z"/>
		</g>
	</g>
	<g>
		<g>
			<path style="fill-rule:evenodd;clip-rule:evenodd;fill:#7F5257;" d="M93.7,43.95c-1.6,0.366-2.767,1.017-3.5,1.95
				c-0.434,0.666,1.333,1.05,5.3,1.149c1.967,0.066,3.917,0.101,5.85,0.101c-1.6,0.166-3.333,0.283-5.2,0.35
				c-3.767,0.2-6.1-0.083-7-0.85c-0.733-0.667-0.2-1.317,1.6-1.95C91.65,44.4,92.633,44.15,93.7,43.95z"/>
		</g>
	</g>
	<g>
		<g>
			<path style="fill-rule:evenodd;clip-rule:evenodd;fill:#7F5257;" d="M86.3,26.7c-0.9,0.2-1.6,0.517-2.1,0.95
				c-0.4,0.533,0.65,0.833,3.15,0.899c1.165,0.03,2.056,0.03,2.675,0c-3.708,0.704-5.882,0.521-6.525-0.55
				c-0.333-0.434,0.033-0.767,1.1-1C85.133,26.9,85.7,26.8,86.3,26.7z"/>
		</g>
	</g>
	<g>
		<g>
			<path style="fill-rule:evenodd;clip-rule:evenodd;fill:#7F5257;" d="M64.8,44.65c-0.367,0.133-0.733,0.333-1.1,0.6
				c-0.8,0.566-1.284,1.167-1.45,1.8c-0.167,0.233,1.3,0.233,4.4,0c3.133-0.3,4.7-0.366,4.7-0.2c0-0.066-1.367,0.101-4.1,0.5
				c-3,0.434-4.833,0.634-5.5,0.601c-1-0.267-0.783-0.934,0.65-2C63.9,44.816,64.7,44.384,64.8,44.65z"/>
		</g>
	</g>
	<g>
		<g>
			<path style="fill-rule:evenodd;clip-rule:evenodd;fill:#7F5257;" d="M60.025,34.5c-0.792,0.039-1.417,0.272-1.875,0.7
				c-0.367,0.366,0.567,0.767,2.8,1.2c1.088,0.191,1.914,0.325,2.475,0.399c-3.431-0.068-5.422-0.502-5.975-1.3
				c-0.3-0.467,0.066-0.767,1.1-0.9C59.017,34.542,59.508,34.509,60.025,34.5z"/>
		</g>
	</g>
	<g>
		<g>
			<path style="fill-rule:evenodd;clip-rule:evenodd;fill:#7F5257;" d="M158.85,32.1c-0.267,0.767-0.8,1.517-1.6,2.25
				c-1.6,1.534-3.283,2.084-5.05,1.65c-1.633-0.467-2.583-1.1-2.85-1.9c-0.267-0.699-0.033-1.267,0.7-1.699
				c0.867-0.434,2.017-0.584,3.45-0.45c-0.6,0.1-1.2,0.233-1.8,0.399c-1.2,0.301-1.65,0.7-1.35,1.2
				c0.267,0.867,1.483,1.233,3.65,1.101C156.3,34.517,157.917,33.667,158.85,32.1z"/>
		</g>
	</g>
	<g>
		<g>
			<path style="fill-rule:evenodd;clip-rule:evenodd;fill:#7F5257;" d="M166.85,24.8c-0.833,0.833-1.633,1.217-2.4,1.15
				c-0.534-0.034-0.883-0.184-1.05-0.45c-0.133-0.2-0.1-0.4,0.1-0.6c0.233-0.233,0.633-0.367,1.2-0.4
				c-0.233,0.067-0.45,0.15-0.65,0.25c-0.367,0.2-0.483,0.367-0.35,0.5c0.2,0.2,0.633,0.25,1.3,0.15
				C165.7,25.333,166.317,25.133,166.85,24.8z"/>
		</g>
	</g>
	<g>
		<g>
			<path style="fill-rule:evenodd;clip-rule:evenodd;fill:#7F5257;" d="M169.45,11.3c0.633-0.233,0.216,0.367-1.25,1.8
				c-1.233,1.233-2.534,1.75-3.9,1.55c-1.333-0.2-2.133-0.6-2.4-1.2c-0.267-0.534-0.117-1,0.45-1.4
				c0.633-0.433,1.517-0.667,2.65-0.7c-0.467,0.167-0.933,0.333-1.4,0.5c-0.867,0.367-1.184,0.717-0.95,1.05
				c0.333,0.633,1.333,0.817,3,0.55C167.417,13.183,168.683,12.467,169.45,11.3z"/>
		</g>
	</g>
	<g>
		<g>
			<path style="fill-rule:evenodd;clip-rule:evenodd;fill:#7F5257;" d="M129.85,16.85c0.2,0.367,0.8,0.533,1.8,0.5
				c1.033,0,1.934-0.25,2.7-0.75c-0.3,0.3-0.667,0.583-1.1,0.85c-0.933,0.566-1.767,0.75-2.5,0.55c-0.833-0.2-1.317-0.483-1.45-0.85
				c-0.1-0.333,0.034-0.617,0.4-0.85c0.433-0.267,1-0.35,1.7-0.25c-0.3,0.034-0.6,0.1-0.9,0.2
				C129.933,16.417,129.717,16.617,129.85,16.85z"/>
		</g>
	</g>
	<g>
		<g>
			<path style="fill-rule:evenodd;clip-rule:evenodd;fill:#7F5257;" d="M140.85,38.45c-0.367,0.366-0.85,0.733-1.45,1.1
				c-1.167,0.733-2.217,1-3.15,0.8c-1.067-0.233-1.7-0.583-1.9-1.05c-0.167-0.399-0.017-0.783,0.45-1.149
				c0.5-0.367,1.233-0.5,2.2-0.4c-0.4,0.066-0.783,0.167-1.15,0.3c-0.767,0.267-1.05,0.55-0.85,0.851
				c0.267,0.466,1.05,0.666,2.35,0.6C138.683,39.434,139.85,39.083,140.85,38.45z"/>
		</g>
	</g>
	<g>
		<g>
			<path style="fill-rule:evenodd;clip-rule:evenodd;fill:#7F5257;" d="M111.25,42.65c1.933-0.134,3.633-0.667,5.1-1.601
				c-0.567,0.566-1.267,1.117-2.1,1.65c-1.667,1.1-3.183,1.517-4.55,1.25c-1.5-0.267-2.434-0.75-2.8-1.45
				c-0.3-0.566-0.133-1.1,0.5-1.6c0.733-0.601,1.833-0.867,3.3-0.801c-0.6,0.134-1.184,0.301-1.75,0.5
				c-1.1,0.434-1.483,0.867-1.15,1.301C108.267,42.533,109.417,42.783,111.25,42.65z"/>
		</g>
	</g>
	<g>
		<g>
			<path style="fill-rule:evenodd;clip-rule:evenodd;fill:#7F5257;" d="M89.2,36.35c-0.733,0.334-0.967,0.65-0.7,0.95
				c0.333,0.334,1.117,0.434,2.35,0.3c1.3-0.166,2.467-0.55,3.5-1.149c-0.4,0.399-0.883,0.783-1.45,1.149
				c-1.133,0.733-2.133,1.051-3,0.95c-0.967-0.1-1.6-0.366-1.9-0.8c-0.3-0.366-0.25-0.75,0.15-1.15
				c0.434-0.433,1.184-0.666,2.25-0.699C89.967,36.033,89.567,36.184,89.2,36.35z"/>
		</g>
	</g>
	<g>
		<g>
			<path style="fill-rule:evenodd;clip-rule:evenodd;fill:#7F5257;" d="M78.45,31.65c-1.4,0.899-2.583,1.283-3.55,1.149
				c-0.733-0.1-1.217-0.316-1.45-0.649c-0.2-0.334-0.167-0.634,0.1-0.9c0.367-0.333,0.983-0.5,1.85-0.5c-0.367,0.1-0.7,0.2-1,0.3
				c-0.566,0.267-0.75,0.517-0.55,0.75c0.267,0.233,0.867,0.334,1.8,0.3C76.583,32.066,77.517,31.917,78.45,31.65z"/>
		</g>
	</g>
	<g>
		<g>
			<path style="fill-rule:evenodd;clip-rule:evenodd;fill:#7F5257;" d="M84.35,46.2c-0.267,0.233-0.6,0.434-1,0.6
				c-0.867,0.4-1.617,0.384-2.25-0.05c-0.633-0.467-0.934-0.866-0.9-1.2c0-0.267,0.2-0.434,0.6-0.5c0.434-0.1,0.883-0.017,1.35,0.25
				c-0.233-0.033-0.467-0.066-0.7-0.1c-0.534-0.033-0.784,0.066-0.75,0.3c0,0.4,0.433,0.717,1.3,0.95
				C82.9,46.684,83.683,46.6,84.35,46.2z"/>
		</g>
	</g>
	<g>
		<g>
			<path style="fill-rule:evenodd;clip-rule:evenodd;fill:#7F5257;" d="M200.35,30.5c1.333-0.066,2.5-0.417,3.5-1.05
				c-0.367,0.366-0.85,0.733-1.45,1.1c-1.167,0.733-2.217,1-3.15,0.8c-1.067-0.233-1.7-0.583-1.9-1.05
				c-0.167-0.399-0.017-0.783,0.45-1.149c0.5-0.367,1.233-0.5,2.2-0.4c-0.4,0.066-0.783,0.167-1.15,0.3
				c-0.767,0.267-1.05,0.55-0.85,0.851C198.267,30.366,199.05,30.566,200.35,30.5z"/>
		</g>
	</g>
	<g>
		<g>
			<path style="fill-rule:evenodd;clip-rule:evenodd;fill:#7F5257;" d="M188.05,42.9c1.733-0.267,3.333-0.867,4.8-1.801
				c-0.567,0.567-1.217,1.117-1.95,1.65c-1.533,1.1-2.95,1.6-4.25,1.5c-1.467-0.167-2.383-0.583-2.75-1.25
				c-0.3-0.6-0.133-1.116,0.5-1.55c0.633-0.533,1.617-0.834,2.95-0.9c-0.567,0.2-1.1,0.4-1.6,0.601c-0.967,0.433-1.3,0.85-1,1.25
				C185.217,43,186.317,43.167,188.05,42.9z"/>
		</g>
	</g>
	<g>
		<g>
			<path style="fill-rule:evenodd;clip-rule:evenodd;fill:#7F5257;" d="M169.65,36.8c-1.066,0.566-1.367,1.033-0.9,1.4
				c0.567,0.366,1.667,0.483,3.3,0.35c1.833-0.166,3.434-0.649,4.8-1.45c-2.267,2.034-4.317,2.95-6.15,2.75
				c-1.233-0.033-2.083-0.333-2.55-0.899c-0.433-0.533-0.433-1.066,0-1.601c0.521-0.675,1.48-1.066,2.875-1.175
				C170.735,36.269,170.277,36.477,169.65,36.8z"/>
		</g>
	</g>
	<g>
		<g>
			<path style="fill-rule:evenodd;clip-rule:evenodd;fill:#7F5257;" d="M229.35,32.6c-2.267,2.034-4.35,2.9-6.25,2.601
				c-1.3-0.2-2.15-0.617-2.55-1.25c-0.367-0.566-0.3-1.084,0.2-1.55c0.633-0.567,1.717-0.851,3.25-0.851
				c-0.633,0.134-1.217,0.316-1.75,0.55c-1.033,0.434-1.367,0.851-1,1.25c0.467,0.534,1.55,0.733,3.25,0.601
				C226.333,33.85,227.95,33.4,229.35,32.6z"/>
		</g>
	</g>
	<g>
		<g>
			<path style="fill-rule:evenodd;clip-rule:evenodd;fill:#7F5257;" d="M229.35,9c-0.6,0.6-1.333,1.183-2.2,1.75
				c-1.8,1.1-3.45,1.5-4.95,1.2c-1.667-0.434-2.633-1.05-2.9-1.85c-0.267-0.667-0.017-1.217,0.75-1.65c0.5-0.3,1.217-0.467,2.15-0.5
				c0.466-0.034,0.883-0.05,1.25-0.05c-0.633,0.133-1.233,0.283-1.8,0.45c-1.133,0.333-1.566,0.733-1.3,1.2
				c0.4,0.767,1.6,1.117,3.6,1.05C226.017,10.533,227.817,10,229.35,9z"/>
		</g>
	</g>
	<g>
		<g>
			<path style="fill-rule:evenodd;clip-rule:evenodd;fill:#7F5257;" d="M221.35,4.4c-0.633,0.667-1.434,1.3-2.4,1.9
				c-1.9,1.233-3.6,1.784-5.1,1.65c-1.667-0.133-2.75-0.567-3.25-1.3c-0.467-0.667-0.383-1.316,0.25-1.95
				c0.767-0.767,2.033-1.184,3.8-1.25c-0.7,0.2-1.367,0.45-2,0.75c-1.267,0.6-1.667,1.133-1.2,1.6c0.6,0.6,1.95,0.784,4.05,0.55
				C217.667,6.083,219.617,5.433,221.35,4.4z"/>
		</g>
	</g>
	<g>
		<g>
			<path style="fill-rule:evenodd;clip-rule:evenodd;fill:#7F5257;" d="M120.15,25.45c1.1-0.333,2.167-0.817,3.2-1.45
				c-1.367,1.5-2.65,2.333-3.85,2.5c-0.9,0.134-1.533,0.033-1.9-0.3c-0.333-0.3-0.367-0.667-0.1-1.1c0.2-0.3,0.567-0.583,1.1-0.85
				c0.3-0.133,0.566-0.233,0.8-0.3c-0.367,0.2-0.7,0.417-1,0.65c-0.6,0.5-0.75,0.85-0.45,1.05
				C118.35,25.85,119.083,25.783,120.15,25.45z"/>
		</g>
	</g>
	<g>
		<g>
			<path style="fill-rule:evenodd;clip-rule:evenodd;fill:#7F5257;" d="M258.8,18.6c-0.1-0.3,0.017-0.55,0.351-0.75
				c0.399-0.233,0.949-0.283,1.649-0.15c-0.3,0.033-0.583,0.066-0.85,0.1c-0.566,0.133-0.783,0.317-0.65,0.55
				c0.167,0.3,0.7,0.5,1.601,0.6c0.866,0.066,1.733-0.017,2.6-0.25c-0.366,0.2-0.767,0.383-1.2,0.55
				c-0.899,0.333-1.649,0.4-2.25,0.2C259.35,19.25,258.934,18.967,258.8,18.6z"/>
		</g>
	</g>
	<g>
		<g>
			<path style="fill-rule:evenodd;clip-rule:evenodd;fill:#7F5257;" d="M247.95,36.3c0.633-0.233,0.216,0.384-1.25,1.851
				c-1.233,1.199-2.534,1.699-3.9,1.5c-1.3-0.233-2.1-0.65-2.4-1.25c-0.267-0.534-0.117-1,0.45-1.4c0.6-0.434,1.5-0.65,2.7-0.65
				c-0.5,0.134-0.966,0.301-1.4,0.5c-0.933,0.334-1.267,0.684-1,1.051c0.367,0.633,1.367,0.816,3,0.55
				C245.917,38.217,247.183,37.5,247.95,36.3z"/>
		</g>
	</g>
	<g>
		<g>
			<path style="fill-rule:evenodd;clip-rule:evenodd;fill:#7F5257;" d="M230.7,19.85c0.667,0.767,2.25,1.017,4.75,0.75
				c2.8-0.333,4.966-1.3,6.5-2.9c0.7-0.1-0.1,0.767-2.4,2.6c-2.133,1.733-4.167,2.45-6.1,2.15c-1.967-0.2-3.25-0.75-3.85-1.65
				c-0.533-0.8-0.417-1.566,0.35-2.3c0.933-0.867,2.45-1.317,4.55-1.35c-0.833,0.233-1.633,0.517-2.4,0.85
				C230.6,18.667,230.133,19.283,230.7,19.85z"/>
		</g>
	</g>
	<g>
		<g>
			<path style="fill-rule:evenodd;clip-rule:evenodd;fill:#7F5257;" d="M331.05,20.3c0.601,0.633,1.983,0.817,4.15,0.55
				c2.267-0.3,4.316-0.983,6.149-2.05c-0.666,0.7-1.5,1.367-2.5,2c-2,1.333-3.783,1.934-5.35,1.8c-1.733-0.167-2.866-0.633-3.4-1.4
				c-0.466-0.7-0.366-1.383,0.301-2.05c0.767-0.8,2.083-1.233,3.949-1.3c-0.733,0.233-1.433,0.5-2.1,0.8
				C330.95,19.283,330.55,19.833,331.05,20.3z"/>
		</g>
	</g>
	<g>
		<g>
			<path style="fill-rule:evenodd;clip-rule:evenodd;fill:#7F5257;" d="M302.3,43.4c0.467,0.633,1.617,0.883,3.45,0.75
				c1.934-0.134,3.634-0.667,5.1-1.601c-0.566,0.566-1.267,1.117-2.1,1.65c-1.667,1.1-3.184,1.517-4.55,1.25
				c-1.5-0.267-2.434-0.75-2.8-1.45c-0.301-0.566-0.134-1.1,0.5-1.6c0.733-0.601,1.833-0.867,3.3-0.801
				c-0.601,0.134-1.184,0.301-1.75,0.5C302.35,42.533,301.967,42.967,302.3,43.4z"/>
		</g>
	</g>
	<g>
		<g>
			<path style="fill-rule:evenodd;clip-rule:evenodd;fill:#7F5257;" d="M286.35,47.3c-0.233,0.233-0.483,0.483-0.75,0.75
				c-0.533,0.467-1.05,0.717-1.55,0.75c-0.6,0.033-0.983-0.066-1.149-0.3c-0.134-0.167-0.101-0.384,0.1-0.65
				c0.21-0.239,0.526-0.398,0.95-0.475c-0.097,0.048-0.247,0.14-0.45,0.275c-0.333,0.233-0.434,0.416-0.3,0.55
				c0.233,0.166,0.666,0.166,1.3,0C285.2,48.033,285.816,47.733,286.35,47.3z"/>
		</g>
	</g>
	<g>
		<g>
			<path style="fill-rule:evenodd;clip-rule:evenodd;fill:#7F5257;" d="M274.15,24c-1.2,0.7-1.567,1.283-1.101,1.75
				c0.667,0.634,2.084,0.684,4.25,0.15c2-0.533,4.017-1.4,6.05-2.6c-0.699,0.733-1.517,1.467-2.449,2.2
				c-1.867,1.467-3.584,2.233-5.15,2.3c-1.866,0.033-3.083-0.333-3.65-1.1c-0.5-0.667-0.416-1.367,0.25-2.1
				c0.733-0.8,1.983-1.333,3.75-1.6C275.4,23.3,274.75,23.633,274.15,24z"/>
		</g>
	</g>
	<g>
		<g>
			<path style="fill-rule:evenodd;clip-rule:evenodd;fill:#7F5257;" d="M253.45,27.75c-1.033,0.9-2.033,1.316-3,1.25
				c-1-0.033-1.65-0.267-1.95-0.7c-0.267-0.399-0.217-0.8,0.15-1.2c0.433-0.466,1.167-0.716,2.2-0.75
				c-0.399,0.134-0.783,0.284-1.149,0.45c-0.733,0.367-0.967,0.684-0.7,0.95c0.366,0.4,1.167,0.483,2.4,0.25
				c1.333-0.267,2.416-0.783,3.25-1.55C254.384,26.884,253.983,27.316,253.45,27.75z"/>
		</g>
	</g>
	<g>
		<g>
			<path style="fill-rule:evenodd;clip-rule:evenodd;fill:#7F5257;" d="M373.35,28.8c-0.666,0.667-1.517,1.3-2.55,1.9
				c-2.1,1.2-3.95,1.633-5.55,1.3c-1.767-0.333-2.866-0.934-3.3-1.8c-0.367-0.733-0.184-1.4,0.55-2c0.566-0.4,1.417-0.65,2.55-0.75
				c0.566-0.066,1.084-0.084,1.55-0.05c-0.767,0.133-1.483,0.316-2.149,0.55c-1.367,0.467-1.851,0.967-1.45,1.5
				c0.533,0.767,1.917,1.116,4.15,1.05C369.517,30.4,371.583,29.833,373.35,28.8z"/>
		</g>
	</g>
	<g>
		<g>
			<path style="fill-rule:evenodd;clip-rule:evenodd;fill:#7F5257;" d="M372.85,16.55c1.267,0.034,2.483-0.167,3.65-0.6
				c-0.467,0.3-1.017,0.6-1.65,0.9c-1.199,0.566-2.25,0.733-3.149,0.5c-1.033-0.233-1.65-0.583-1.851-1.05
				c-0.199-0.433-0.05-0.816,0.45-1.15c0.533-0.367,1.283-0.483,2.25-0.35c-0.399,0.067-0.8,0.15-1.2,0.25
				c-0.767,0.267-1.05,0.55-0.85,0.85C370.833,16.3,371.616,16.517,372.85,16.55z"/>
		</g>
	</g>
	<g>
		<g>
			<path style="fill-rule:evenodd;clip-rule:evenodd;fill:#7F5257;" d="M412.85,38.05c-1.3,1.3-2.55,1.9-3.75,1.8
				c-0.833-0.066-1.383-0.283-1.649-0.649c-0.2-0.367-0.15-0.7,0.149-1c0.367-0.367,1-0.566,1.9-0.601
				c-0.366,0.101-0.7,0.217-1,0.351c-0.634,0.3-0.833,0.566-0.6,0.8c0.3,0.333,0.966,0.434,2,0.3
				C411,38.917,411.983,38.583,412.85,38.05z"/>
		</g>
	</g>
	<g>
		<g>
			<path style="fill-rule:evenodd;clip-rule:evenodd;fill:#7F5257;" d="M436.8,35.35c-0.166-0.5,0.033-0.883,0.601-1.149
				c0.366-0.167,0.883-0.233,1.55-0.2c0.333,0,0.633,0.017,0.899,0.05c-0.466,0.066-0.899,0.134-1.3,0.2
				c-0.866,0.167-1.217,0.417-1.05,0.75c0.267,0.566,1.1,0.9,2.5,1c1.4,0.066,2.733-0.15,4-0.65c-0.5,0.367-1.083,0.7-1.75,1
				c-1.366,0.601-2.55,0.75-3.55,0.45C437.566,36.4,436.934,35.917,436.8,35.35z"/>
		</g>
	</g>
	<g>
		<g>
			<path style="fill-rule:evenodd;clip-rule:evenodd;fill:#7F5257;" d="M444.5,26.55c-2.6,1.867-4.866,2.65-6.8,2.351
				c-1.367-0.233-2.25-0.684-2.65-1.351c-0.399-0.633-0.316-1.2,0.25-1.7c0.667-0.6,1.816-0.883,3.45-0.85
				c-0.667,0.133-1.283,0.317-1.85,0.55c-1.134,0.434-1.5,0.884-1.101,1.351c0.5,0.5,1.65,0.733,3.45,0.699
				C441.116,27.533,442.866,27.184,444.5,26.55z"/>
		</g>
	</g>
	<g>
		<g>
			<path style="fill-rule:evenodd;clip-rule:evenodd;fill:#7F5257;" d="M462.5,45.9c-1.9,1.333-3.566,1.933-5,1.8
				c-1.033-0.101-1.7-0.4-2-0.9c-0.3-0.399-0.25-0.816,0.15-1.25c0.5-0.467,1.333-0.7,2.5-0.7c-0.467,0.134-0.9,0.284-1.301,0.45
				c-0.833,0.367-1.1,0.7-0.8,1c0.4,0.334,1.25,0.467,2.55,0.4C459.934,46.634,461.233,46.366,462.5,45.9z"/>
		</g>
	</g>
	<g>
		<g>
			<path style="fill-rule:evenodd;clip-rule:evenodd;fill:#7F5257;" d="M352.25,39.55c1.967-0.166,3.667-0.666,5.1-1.5
				c-2.366,2.167-4.533,3.134-6.5,2.9c-1.267-0.066-2.166-0.384-2.699-0.95c-0.467-0.533-0.467-1.1,0-1.7
				c0.583-0.706,1.607-1.114,3.074-1.225c-0.313,0.106-0.806,0.331-1.475,0.675c-1.134,0.566-1.45,1.05-0.95,1.45
				C349.366,39.6,350.517,39.717,352.25,39.55z"/>
		</g>
	</g>
	<g>
		<g>
			<path style="fill-rule:evenodd;clip-rule:evenodd;fill:#7F5257;" d="M333,40.85c0.267,0.467,1.05,0.684,2.35,0.65
				c1.334-0.066,2.5-0.417,3.5-1.05c-0.366,0.366-0.85,0.733-1.449,1.1c-1.167,0.733-2.233,1-3.2,0.8
				c-1.033-0.233-1.65-0.583-1.851-1.05c-0.166-0.434-0.017-0.816,0.45-1.149c0.5-0.367,1.233-0.5,2.2-0.4
				c-0.4,0.066-0.783,0.167-1.15,0.3C333.083,40.283,332.8,40.55,333,40.85z"/>
		</g>
	</g>
	<g>
		<g>
			<path style="fill-rule:evenodd;clip-rule:evenodd;fill:#7F5257;" d="M327.5,27.55c-0.4,0.267-0.866,0.517-1.4,0.75
				c-1.066,0.467-1.983,0.601-2.75,0.4c-0.899-0.267-1.416-0.601-1.55-1c-0.1-0.367,0.05-0.684,0.45-0.95
				c0.467-0.267,1.1-0.35,1.9-0.25c-0.334,0.033-0.667,0.1-1,0.2c-0.634,0.2-0.884,0.434-0.75,0.7
				c0.233,0.366,0.883,0.566,1.949,0.6C325.483,28.066,326.533,27.917,327.5,27.55z"/>
		</g>
	</g>
	<g>
		<g>
			<path style="fill-rule:evenodd;clip-rule:evenodd;fill:#7F5257;" d="M383.35,47.5c-0.6,0.6-1.333,1.184-2.199,1.75
				c-1.733,1.134-3.284,1.634-4.65,1.5c-1.5-0.1-2.483-0.5-2.95-1.2c-0.399-0.6-0.316-1.184,0.25-1.75
				c0.7-0.7,1.851-1.083,3.45-1.149c-0.634,0.199-1.233,0.433-1.8,0.699c-1.134,0.567-1.5,1.051-1.101,1.45
				c0.567,0.566,1.784,0.733,3.65,0.5C379.967,49.033,381.75,48.434,383.35,47.5z"/>
		</g>
	</g>
</g>
</svg>
