<?xml version="1.0" encoding="iso-8859-1"?>
<!-- Generator: Adobe Illustrator 15.1.0, SVG Export Plug-In . SVG Version: 6.00 Build 0)  -->
<!DOCTYPE svg PUBLIC "-//W3C//DTD SVG 1.1//EN" "http://www.w3.org/Graphics/SVG/1.1/DTD/svg11.dtd">
<svg version="1.1" id="buildings" xmlns="http://www.w3.org/2000/svg" xmlns:xlink="http://www.w3.org/1999/xlink" x="0px" y="0px"
	 width="239.6px" height="136.5px" viewBox="0 0 239.6 136.5" style="enable-background:new 0 0 239.6 136.5;" xml:space="preserve"
	>
<g>
	
		<linearGradient id="SVGID_1_" gradientUnits="userSpaceOnUse" x1="21.2021" y1="-9.2075" x2="178.3067" y2="-9.2075" gradientTransform="matrix(0.5006 0.8657 -0.8657 0.5006 -3.148317e-004 4.450083e-004)">
		<stop  offset="0" style="stop-color:#6F8584"/>
		<stop  offset="1" style="stop-color:#ADB6B4"/>
	</linearGradient>
	<polygon style="fill-rule:evenodd;clip-rule:evenodd;fill:url(#SVGID_1_);" points="0,46.5 1.5,0 124.5,132 96,136.5 	"/>
	
		<linearGradient id="SVGID_2_" gradientUnits="userSpaceOnUse" x1="49.1543" y1="-70.9639" x2="223.029" y2="-70.9639" gradientTransform="matrix(0.5687 0.8226 -0.8226 0.5687 1.438260e-004 2.875328e-004)">
		<stop  offset="0" style="stop-color:#DCE0DF"/>
		<stop  offset="1" style="stop-color:#A6B6B9"/>
	</linearGradient>
	<path style="fill-rule:evenodd;clip-rule:evenodd;fill:url(#SVGID_2_);" d="M196.5,44.2c11,21,18.366,34.616,22.1,40.85
		c3.767,6.267,8.4,15.15,13.9,26.65c2.733,5.733,5.1,10.85,7.1,15.35L124.5,132L1.5,0l179.6,14.55L196.5,44.2z"/>
	<g>
		<polygon style="fill-rule:evenodd;clip-rule:evenodd;fill:#EBEDED;" points="182.3,16.85 187.4,26.75 21.2,21.15 5.9,4.75 		"/>
		<polygon style="fill-rule:evenodd;clip-rule:evenodd;fill:#EBEDED;" points="233.45,113.75 238,123.4 120.9,128.15 112,118.6 		
			"/>
		<polygon style="fill-rule:evenodd;clip-rule:evenodd;fill:#D6DAD9;" points="225.05,96.7 229.45,105.4 104.8,110.9 93.3,98.5 		
			"/>
		<polygon style="fill-rule:evenodd;clip-rule:evenodd;fill:#D6DAD9;" points="204.5,59.4 211.1,71.65 71.2,74.8 56.95,59.5 		"/>
		<polygon style="fill-rule:evenodd;clip-rule:evenodd;fill:#B7CDD7;" points="188.85,29.55 193.3,38.05 38.35,39.55 26.8,27.15 		
			"/>
		<polygon style="fill-rule:evenodd;clip-rule:evenodd;fill:#B4C4C9;" points="196.35,43.9 200.95,52.65 51.45,53.6 42.8,44.3 		"/>
		<path style="fill-rule:evenodd;clip-rule:evenodd;fill:#B7CDD7;" d="M218.6,85.05l2.2,3.8L87.95,92.8L77.2,81.25l137.55-3
			C216.684,81.717,217.967,83.983,218.6,85.05z"/>
	</g>
	<g>
		<path style="fill-rule:evenodd;clip-rule:evenodd;fill:#758383;" d="M24.1,24.4l0.05-0.1l0.8,0.85
			c-0.534,2.367-1.317,4.533-2.35,6.5l0.25-0.2c1.5,1.7,3.8,4.867,6.9,9.5c3.933,5.833,7.05,10.083,9.35,12.75
			c3.867,4.533,7.467,7.433,10.8,8.7l0.4-0.1l0.05,0.25c0.8,0.3,1.6,0.5,2.4,0.6c2.233,0.267,4.383-0.15,6.45-1.25l0.7,0.75
			c-1.933,1.033-3.883,1.55-5.85,1.55l-1.4-0.05c-0.733-0.1-1.417-0.25-2.05-0.45c0.767,4.7-0.033,9.6-2.4,14.7
			C51.167,80.8,54.783,82.6,59.05,83.8c4.733,1.334,9.1,1.517,13.1,0.55c2.1-0.5,3.967-1.333,5.6-2.5l0.7,0.7
			c-1.8,1.334-3.817,2.267-6.05,2.8c-1.733,0.4-3.533,0.601-5.4,0.601h-0.2c0.934,3.833,0.934,7.333,0,10.5l0.05-0.05
			c2.967,3.033,6.283,5.25,9.95,6.649c3.633,1.4,7.2,1.816,10.7,1.25c3-0.467,5.667-1.616,8-3.45l0.65,0.75
			c-1.833,1.4-3.783,2.417-5.85,3.051c3.267,4.199,3.95,9.3,2.05,15.3c2.4,0.899,5,2.7,7.8,5.399c2.867,2.767,5.333,5.867,7.4,9.301
			l-1.05,0.199c-2.033-3.267-4.4-6.199-7.1-8.8c-2.667-2.566-5.117-4.283-7.35-5.149L91.3,122.8c-0.867,2-2.017,4.017-3.45,6.05
			l-0.75-0.699c1.267-1.733,2.367-3.65,3.3-5.75c1.167-2.733,1.8-5.384,1.9-7.95c0.167-3.667-0.85-6.834-3.05-9.5l-1.6,0.35
			c-1.1,0.167-2.117,0.25-3.05,0.25c-3.133,0-6.283-0.7-9.45-2.1c-3.133-1.434-6.033-3.434-8.7-6c-0.9,2.399-2.417,4.75-4.55,7.05
			l-0.75-0.7c2.3-2.5,3.85-5.083,4.65-7.75c0.934-3.1,0.917-6.483-0.05-10.149c-3.3-0.134-6.617-0.834-9.95-2.101
			c-3.1-1.2-5.767-2.684-8-4.45c-0.933,1.867-2.117,3.801-3.55,5.801L43,86.8l-0.75-0.7l1.2-1.55
			c2.566-3.533,4.383-7.149,5.45-10.85c1.033-3.7,1.233-7.167,0.6-10.4c-3.467-1.333-7.167-4.283-11.1-8.85
			c-2.3-2.667-5.467-6.983-9.5-12.95c-3.066-4.567-5.283-7.633-6.65-9.2c-2.133,3.867-4.7,6.467-7.7,7.8c6.534,10,8.3,18.333,5.3,25
			l-0.75-0.7c1.467-3.367,1.65-7.167,0.55-11.4c-1.1-4.2-3.5-8.95-7.2-14.25c-4.3-6.133-8.217-10.533-11.75-13.2v-1.2
			c3.8,2.667,7.983,7.267,12.55,13.8L14,39.3c2.3-0.966,4.383-2.816,6.25-5.55C22.083,30.983,23.367,27.867,24.1,24.4z"/>
	</g>
	<path style="fill-rule:evenodd;clip-rule:evenodd;fill:#677A79;" d="M2.5,2.65l119.25,129l-25,3.75l-31.5-29.5l15.25,12.3
		c10.667,8.267,17.25,12.5,19.75,12.7c3.3,0.267,5.467,0.033,6.5-0.7c1.267-0.934,1.433-2.867,0.5-5.8
		c-0.833-2.601-18.533-23.667-53.1-63.2C36.85,41.433,19.633,21.917,2.5,2.65z"/>
	<path style="fill-rule:evenodd;clip-rule:evenodd;fill:#677A79;" d="M2.25,29.9l0.7,5.35c0.9,4.2,2.333,7.917,4.3,11.15
		s9.733,11.867,23.3,25.9c6.767,7.033,13.333,13.733,19.7,20.101l-49-46.5L2.25,29.9z"/>
</g>
</svg>
