<?xml version="1.0" encoding="iso-8859-1"?>
<!-- Generator: Adobe Illustrator 15.1.0, SVG Export Plug-In . SVG Version: 6.00 Build 0)  -->
<!DOCTYPE svg PUBLIC "-//W3C//DTD SVG 1.1//EN" "http://www.w3.org/Graphics/SVG/1.1/DTD/svg11.dtd">
<svg version="1.1" id="Isolation_Mode" xmlns="http://www.w3.org/2000/svg" xmlns:xlink="http://www.w3.org/1999/xlink" x="0px"
	 y="0px" width="348px" height="231.1px" viewBox="0 0 348 231.1" style="enable-background:new 0 0 348 231.1;"
	 xml:space="preserve">
<g>
	
		<linearGradient id="SVGID_1_" gradientUnits="userSpaceOnUse" x1="6.6846" y1="-212.1641" x2="39.7837" y2="-212.1641" gradientTransform="matrix(-0.4834 0.8754 -0.8754 -0.4834 -3.458858e-004 -1.848936e-004)">
		<stop  offset="0" style="stop-color:#6C7D7A"/>
		<stop  offset="1" style="stop-color:#475150"/>
	</linearGradient>
	<path style="fill-rule:evenodd;clip-rule:evenodd;fill:url(#SVGID_1_);" d="M324.55,173c11.033,1.333,18.851,1.233,23.45-0.3
		l-0.75,12.399c-0.767,9.733-1.85,18.2-3.25,25.4c-1.366,7.233-5.55,12.316-12.55,15.25c-2.2,0.934-4.533,1.583-7,1.95l-3.101,0.3
		c-3.433-0.333-7.517-0.866-12.25-1.6c-9.433-1.434-17.35-3.117-23.75-5.051c-12.066-3.666-31.316-11.466-57.75-23.399
		C192.134,181.917,158.717,164.6,127.35,146c-30-17.767-60.217-40.433-90.65-68C21.467,64.233,9.233,52.233,0,42
		c1.467,1.233,3.45,1.85,5.95,1.85c5,0,10.133-3.05,15.4-9.15c5.267-6.133,7.733-13.75,7.4-22.85C28.617,7.283,27.933,3.333,26.7,0
		c11.1,10.233,25.983,24.017,44.65,41.35c7.7,7.167,19.283,15.85,34.75,26.05c12,7.934,28.967,18.467,50.9,31.6
		c8.633,5.167,22.366,13.433,41.2,24.8c16.866,9.8,31.967,17.7,45.3,23.7C275.5,161.866,302.517,170.366,324.55,173z"/>
	<path style="fill-rule:evenodd;clip-rule:evenodd;fill:#949F9E;" d="M347.3,190.7c-0.967,12.833-2.649,21.35-5.05,25.55
		c-3.1,5.467-7.483,9.5-13.15,12.1c-5.066,2.301-10.366,3.167-15.899,2.601L314,223c8.366,0.566,14.967-1.55,19.8-6.35
		c3.934-3.9,6.417-9.2,7.45-15.9c0.733-4.8,1.167-10.616,1.3-17.45l-0.05-8.8l5.5-1.8L347.3,190.7z"/>
	<path style="fill-rule:evenodd;clip-rule:evenodd;fill:#B1B8B7;" d="M334.4,175.05c-7.634-0.233-17.017-1.75-28.15-4.55
		c-12.833-3.233-26.483-7.767-40.95-13.6c-13.1-5.334-27.866-12.134-44.3-20.4c-13.9-7-29.05-15.316-45.45-24.95
		c-9.8-5.767-24.65-14.783-44.55-27.05c-14.133-8.7-28.55-18.65-43.25-29.85C73.383,43.717,61.883,34,53.25,25.5
		C41.917,14.333,33.067,5.833,26.7,0h3.55c8,7.833,17.667,16.733,29,26.7c22.667,19.966,42.333,35.316,59,46.05
		c20.433,13.167,41.683,26.117,63.75,38.85c28.566,16.466,52.233,28.85,71,37.15c25.5,11.267,51.583,19.184,78.25,23.75
		c3.934,0.7,7.9,0.934,11.9,0.7c2.033-0.101,3.649-0.267,4.85-0.5l-5.5,1.8C340.934,174.967,338.233,175.15,334.4,175.05z"/>
</g>
</svg>
