<?xml version="1.0" encoding="iso-8859-1"?>
<!-- Generator: Adobe Illustrator 15.1.0, SVG Export Plug-In . SVG Version: 6.00 Build 0)  -->
<!DOCTYPE svg PUBLIC "-//W3C//DTD SVG 1.1//EN" "http://www.w3.org/Graphics/SVG/1.1/DTD/svg11.dtd">
<svg version="1.1" id="back_mountains" xmlns="http://www.w3.org/2000/svg" xmlns:xlink="http://www.w3.org/1999/xlink" x="0px"
	 y="0px" width="229.45px" height="545.95px" viewBox="0 0 229.45 545.95" style="enable-background:new 0 0 229.45 545.95;"
	 xml:space="preserve">
<g>
	<path style="fill-rule:evenodd;clip-rule:evenodd;fill:#547368;" d="M178.45,81l51-27l-18,69l-7.5-31.5
		c-3.5,1.267-7.117,2.833-10.851,4.7c-7.5,3.733-11.883,7.167-13.149,10.3c-1.233,3.133-1.601,9.067-1.101,17.8
		c0.233,4.4,0.601,8.467,1.101,12.2c-1.233-5.233-2.983-10.35-5.25-15.35c-4.5-10-9.25-14.383-14.25-13.15
		c-6.4,1.6-13.084,7.483-20.05,17.65c-7.334,10.667-10.65,20.283-9.95,28.85c0.633,7.467,0.316,17.7-0.95,30.7
		c-0.6,6.5-1.283,12.25-2.05,17.25c-1-10.233-2.617-20.667-4.851-31.3c-4.5-21.233-9.883-32.783-16.149-34.65
		c-6.233-1.867-14.1,2.567-23.6,13.3c-4.733,5.4-8.85,10.967-12.35,16.7l11.8,17.4c8.233,11.733,13.284,17.917,15.15,18.55
		s2.933,7.316,3.2,20.05c0.133,6.4,0.067,12.717-0.2,18.95l-11.95,25.5l26.95,9l-19.5,55.5l-25.45,13.5l-4.5,54l29.95,13.5
		l13.5,40.5l49.5,12l1.5,48l42,3l6,30L0,542.95c6.767-15.5,13.583-32.566,20.45-51.2c13.733-37.233,20.917-63.667,21.55-79.3
		c0.633-15.634-1.683-30.066-6.95-43.3c-1.633-4.167-3.466-7.95-5.5-11.351L27,353.95l18-40.5l16.5-1.5
		c1.767-6.5,3.267-14.117,4.5-22.851c2.5-17.5,2.5-31.883,0-43.149c-1.3-5.9-4.367-12.367-9.2-19.4
		c-2.367-3.4-6.983-9.25-13.85-17.55c-5.667-6.833-9.45-12.017-11.35-15.55c-2.767-5.267-3.3-9.767-1.6-13.5
		c3.133-6.867,12.067-17.167,26.8-30.9C64.2,142.183,71.267,136,78,130.5l-13.5-72L125.95,0l6,16.5
		c-6.233,4.5-12.783,9.383-19.65,14.65C98.567,41.65,90.133,48.767,87,52.5c-1.8,2.167-3.283,6.267-4.45,12.3
		c-1.066,5.667-1.65,11.883-1.75,18.65c-0.1,6.933,0.35,12.867,1.35,17.8c1.1,5.433,2.717,8.683,4.85,9.75c2,1,4.333,0.733,7-0.8
		c1.5-0.867,4.333-3.1,8.5-6.7c9.8-8.4,19.116-13.9,27.95-16.5c10.633-3.133,21.816-5.067,33.55-5.8
		C169.9,80.833,174.717,80.767,178.45,81z"/>
	<g>
		<path style="fill-rule:evenodd;clip-rule:evenodd;fill:#476159;" d="M125.95,0l2.899,7.85L75.35,59.4l10,69
			c-7,6.5-13.7,13.8-20.1,21.9c-12.833,16.167-17.8,28.2-14.9,36.1c2.933,7.934,9.483,13.483,19.65,16.65
			c5.067,1.567,9.85,2.35,14.35,2.35l-4.6,13.75c-2.5,9.333-2.3,14.417,0.6,15.25l7,2l-2.8,6.4c-2.167,5.233-3.983,10.233-5.45,15
			c-4.667,15.167-4.917,25.033-0.75,29.601c4.167,4.6,8.417,6.316,12.75,5.149c2.167-0.6,3.917-1.649,5.25-3.149l-40,53l-1,79h25
			l-4.25,10.3c-3.233,8.333-5.85,16.149-7.85,23.45c-6.5,23.333-5.8,37.083,2.1,41.25c7.933,4.166,15.816,3.583,23.65-1.75
			c2.433-1.667,4.717-3.7,6.85-6.101l2.5-3.149l-1,29l29-18l9,32l68.101,17.55l-27.05-0.4c-27.667-4.633-45.351-8.333-53.051-11.1
			c-6.133-2.233-9.3-6.017-9.5-11.351c-0.066-1.666,0.167-3.399,0.7-5.199l0.8-2.15l-10.5,6.75c-8,4.8-14.5,7.884-19.5,9.25
			c-5,1.4-7.717-1.517-8.15-8.75c-0.167-2.233-0.083-4.783,0.25-7.65l0.55-3.6l-5.5,4.1c-4.9,2.767-10.4,4.301-16.5,4.601
			c-6.133,0.267-8.533-7.101-7.2-22.101c0.434-4.699,1.2-9.866,2.3-15.5l1.55-7.1l-1.15,1.6c-1.033,1.233-2.117,2.284-3.25,3.15
			c-3.667,2.8-7.3,3.217-10.9,1.25c-3.633-1.934-1.283-11.184,7.05-27.75c2.6-5.167,5.65-10.767,9.15-16.8l4.45-7.45l-17.35,7.35
			l2-94.649l34.7-46c-1.767-0.566-3.6-1.601-5.5-3.101c-3.8-3-5.967-6.866-6.5-11.6c-0.567-4.7,0.7-13.117,3.8-25.25L79,239.75
			c-0.9-0.1-2.033-0.533-3.4-1.3c-2.8-1.567-5.45-4.017-7.95-7.35c-2.5-3.333-2.8-7.883-0.9-13.65c0.6-1.833,1.383-3.667,2.35-5.5
			l1.25-2.2c-3.667-0.767-7.617-2.15-11.85-4.15c-8.433-4-14.05-9.05-16.85-15.15c-2.566-5.7-2.2-12.833,1.1-21.4
			c1.8-4.566,4.217-9.083,7.25-13.55c5.567-5.467,11.9-11.267,19-17.4l9-7.6l-7.65-70.75L125.95,0z"/>
		<path style="fill-rule:evenodd;clip-rule:evenodd;fill:#476159;" d="M106.45,136.5c-3.034-0.933-6.517-0.3-10.45,1.9
			c3.433-5.333,7.633-8.6,12.6-9.8c5.567-1.333,9.817,0.933,12.75,6.8c2.467,4.967,4.2,15.65,5.2,32.05
			c0.634,10.566,0.9,21.9,0.8,34c-1.3-12.133-3.149-23.434-5.55-33.9C117.434,148.617,112.317,138.267,106.45,136.5z"/>
		<path style="fill-rule:evenodd;clip-rule:evenodd;fill:#476159;" d="M174.25,108.05c1.7,5.3,3.333,12.083,4.9,20.35
			c0.233,3.067,0.5,5.767,0.8,8.1c-1.233-5.233-2.983-10.35-5.25-15.35c-4.5-10-9.25-14.383-14.25-13.15
			c-3.233,0.767-6.983,3.15-11.25,7.15c3.233-5.867,6.033-10.233,8.399-13.1c3.667-4.466,6.917-6.35,9.75-5.65
			C169.616,96.967,171.917,100.85,174.25,108.05z"/>
		<path style="fill-rule:evenodd;clip-rule:evenodd;fill:#476159;" d="M203.95,91.5c-2.2,0.8-4.684,1.817-7.45,3.05
			c-5.533,2.5-9.75,4.934-12.65,7.3l-0.5-0.45l26-18l2.601,37.7l-0.5,1.9L203.95,91.5z"/>
		<path style="fill-rule:evenodd;clip-rule:evenodd;fill:#476159;" d="M88.55,445.3l3.8-6.899l0.7,6.899
			c0.4,5.5,0.5,10.533,0.3,15.101c-0.667,14.666-4.333,22-11,22c-6.667,0-7-7.334-1-22C83.217,455.833,85.617,450.8,88.55,445.3z"/>
		<path style="fill-rule:evenodd;clip-rule:evenodd;fill:#476159;" d="M130.35,122.4c-3.333,0.434-4.166-3.933-2.5-13.1l3.5-13.9
			l2.5,13.15C134.85,117.383,133.684,122,130.35,122.4z"/>
		<polygon style="fill-rule:evenodd;clip-rule:evenodd;fill:#3F564E;" points="125.95,0 70.35,59.75 78,130.5 64.5,58.5 		"/>
		<path style="fill-rule:evenodd;clip-rule:evenodd;fill:#3F564E;" d="M31.6,193.45c-2.767-5.267-3.3-9.767-1.6-13.5
			c2.533-5.633,9.2-13.784,20-24.45c-3.033,4.467-5.45,8.983-7.25,13.55c-3.3,8.567-3.667,15.7-1.1,21.4
			c2.8,6.1,8.417,11.15,16.85,15.15c4.233,2,8.183,3.383,11.85,4.15l-1.25,2.2c-0.967,1.833-1.75,3.667-2.35,5.5
			c-1.9,5.767-1.6,10.316,0.9,13.65c2.5,3.333,5.15,5.783,7.95,7.35c1.367,0.767,2.5,1.2,3.4,1.3l-4.85,16.75
			c-3.1,12.133-4.367,20.55-3.8,25.25c0.533,4.733,2.7,8.6,6.5,11.6c1.9,1.5,3.733,2.534,5.5,3.101l-34.7,46l-2,94.649L63,429.75
			l-4.45,7.45c-3.5,6.033-6.55,11.633-9.15,16.8c-8.333,16.566-10.683,25.816-7.05,27.75c3.6,1.967,7.233,1.55,10.9-1.25
			c1.133-0.866,2.217-1.917,3.25-3.15l1.15-1.6l-1.55,7.1c-1.1,5.634-1.867,10.801-2.3,15.5c-1.333,15,1.067,22.367,7.2,22.101
			c6.1-0.3,11.6-1.834,16.5-4.601l5.5-4.1l-0.55,3.6c-0.333,2.867-0.417,5.417-0.25,7.65c0.433,7.233,3.15,10.15,8.15,8.75
			c5-1.366,11.5-4.45,19.5-9.25l10.5-6.75l-0.8,2.15c-0.533,1.8-0.767,3.533-0.7,5.199c0.2,5.334,3.367,9.117,9.5,11.351
			c7.7,2.767,25.384,6.467,53.051,11.1L0,542.95c6.767-15.5,13.583-32.566,20.45-51.2c13.733-37.233,20.917-63.667,21.55-79.3
			c0.633-15.634-1.683-30.066-6.95-43.3c-1.633-4.167-3.466-7.95-5.5-11.351L27,353.95l18-40.5l16.5-1.5
			c1.767-6.5,3.267-14.117,4.5-22.851c2.5-17.5,2.5-31.883,0-43.149c-1.3-5.9-4.367-12.367-9.2-19.4
			c-2.367-3.4-6.983-9.25-13.85-17.55C37.283,202.167,33.5,196.983,31.6,193.45z"/>
		<path style="fill-rule:evenodd;clip-rule:evenodd;fill:#476159;" d="M121.75,480.05l11.9-10.95l-1.5,3.95
			c-1.267,3.134-2.567,5.967-3.9,8.5c-4.333,8.101-8.3,11.733-11.9,10.9C112.717,491.616,114.517,487.483,121.75,480.05z"/>
		<polygon style="fill-rule:evenodd;clip-rule:evenodd;fill:#476159;" points="191.65,523.75 192.35,532.45 147,520.45 147,475.75 
			153,516.45 		"/>
	</g>
</g>
</svg>
