<?xml version="1.0" encoding="iso-8859-1"?>
<!-- Generator: Adobe Illustrator 15.1.0, SVG Export Plug-In . SVG Version: 6.00 Build 0)  -->
<!DOCTYPE svg PUBLIC "-//W3C//DTD SVG 1.1//EN" "http://www.w3.org/Graphics/SVG/1.1/DTD/svg11.dtd">
<svg version="1.1" id="buildings" xmlns="http://www.w3.org/2000/svg" xmlns:xlink="http://www.w3.org/1999/xlink" x="0px" y="0px"
	 width="411.65px" height="135.2px" viewBox="0 0 411.65 135.2" style="enable-background:new 0 0 411.65 135.2;"
	 xml:space="preserve">
<g>
	<path style="fill-rule:evenodd;clip-rule:evenodd;fill:#919E9C;" d="M308,123.85l-1.7,11.351
		c-7.033-0.667-16.583-1.884-28.649-3.65c-24.101-3.566-48.65-8.133-73.65-13.7c-25-5.533-66.5-18.416-124.5-38.649
		C50.5,69.1,24,59.55,0,50.55l13.3-38c9.9,6.9,22.434,15,37.6,24.3C81.233,55.517,109.6,70.967,136,83.2
		c26.367,12.233,62.95,22.684,109.75,31.35C269.15,118.884,289.9,121.983,308,123.85z"/>
	
		<linearGradient id="SVGID_1_" gradientUnits="userSpaceOnUse" x1="97.0522" y1="-26.0083" x2="355.7081" y2="-26.0083" gradientTransform="matrix(0.9104 0.4138 -0.4138 0.9104 0 5.445480e-004)">
		<stop  offset="0" style="stop-color:#DCE0DF"/>
		<stop  offset="1" style="stop-color:#A6B6B9"/>
	</linearGradient>
	<path style="fill-rule:evenodd;clip-rule:evenodd;fill:url(#SVGID_1_);" d="M411.65,98.7L308,123.85
		c-13,0.667-29.75-0.083-50.25-2.25c-41-4.333-80.25-13.583-117.75-27.75C102.5,79.684,70.133,61.883,42.9,40.45
		c-13.6-10.7-23.467-20-29.6-27.9L177,0l15.4,10.45c12.734,8.533,25.05,16.583,36.95,24.15c38.2,24.333,65.634,39.7,82.301,46.1
		c16.666,6.366,38.333,11.283,65,14.75C389.983,97.184,401.65,98.267,411.65,98.7z"/>
	<g>
		<path style="fill-rule:evenodd;clip-rule:evenodd;fill:#EBEDED;" d="M180.95,2.75l6.95,4.7L31.45,30.9
			c-4.6-4.066-8.883-8.183-12.85-12.35L180.95,2.75z"/>
		<path style="fill-rule:evenodd;clip-rule:evenodd;fill:#EBEDED;" d="M262.5,55.05c3.1,1.867,6.366,3.784,9.8,5.75L126.85,88.65
			c-9.6-4-18.633-8.134-27.1-12.4L262.5,55.05z"/>
		<path style="fill-rule:evenodd;clip-rule:evenodd;fill:#EBEDED;" d="M390.05,97c5.634,0.533,10.084,0.917,13.351,1.15L300,124
			c-10.833,0-22.583-0.566-35.25-1.7L390.05,97z"/>
		<path style="fill-rule:evenodd;clip-rule:evenodd;fill:#EBEDED;" d="M240.05,41.4l12,7.4L91.55,71.95
			c-6.433-3.4-13.05-7.2-19.85-11.4L240.05,41.4z"/>
		<path style="fill-rule:evenodd;clip-rule:evenodd;fill:#D6DAD9;" d="M198,14.25l13.6,8.95l-163,21.6
			c-4.167-3.066-8.283-6.333-12.35-9.8L198,14.25z"/>
		<path style="fill-rule:evenodd;clip-rule:evenodd;fill:#D6DAD9;" d="M352.4,91.65c6.733,1.267,14.149,2.449,22.25,3.55
			l-128.801,25c-6.333-0.834-12.383-1.75-18.149-2.75L352.4,91.65z"/>
		<path style="fill-rule:evenodd;clip-rule:evenodd;fill:#B7CDD7;" d="M222.15,30.05l7.85,5L63.85,55.5
			c-3.133-2.067-6.35-4.267-9.65-6.6L222.15,30.05z"/>
		<path style="fill-rule:evenodd;clip-rule:evenodd;fill:#B7CDD7;" d="M334.15,87.65c3,0.767,5.783,1.416,8.35,1.949l-124.45,26.15
			c-4.866-0.9-10.883-2.167-18.05-3.8L334.15,87.65z"/>
		<path style="fill-rule:evenodd;clip-rule:evenodd;fill:#B4C4C9;" d="M279.85,65.05c2.801,1.6,5.551,3.101,8.25,4.5l-135.35,28.9
			c-4.967-1.7-9.217-3.233-12.75-4.601l-5.45-2.1L279.85,65.05z"/>
		<path style="fill-rule:evenodd;clip-rule:evenodd;fill:#B4C4C9;" d="M311.65,80.7l1.949,0.75L184.1,108
			c-8.067-2.167-15.667-4.4-22.8-6.7c10.9-1.866,57.65-10.184,140.25-24.95C305.017,77.95,308.384,79.4,311.65,80.7z"/>
	</g>
	<polygon style="fill-rule:evenodd;clip-rule:evenodd;fill:#A1ACAA;" points="408.3,106.7 306.3,135.2 308,123.85 411.65,98.7 	"/>
	<path style="fill-rule:evenodd;clip-rule:evenodd;fill:#677A79;" d="M188,111.85c9.567,2.467,24.767,5.551,45.6,9.25
		c18.534,3.267,34.667,5.851,48.4,7.75c10.134,1.4,17.116,1.317,20.95-0.25c1.476-0.595,2.351-1.278,2.625-2.05l-0.925,7.65
		c-1.267,0-3.65-0.184-7.15-0.55c-6.934-0.733-15.884-2-26.85-3.801c-24.767-4.033-46.067-8.133-63.9-12.3
		c-20.1-4.733-41.583-10.85-64.45-18.35C123.367,92.967,94.467,82.767,55.6,68.6C36.167,61.5,18.633,55.033,3,49.2l11-31.35
		c-0.667,9.1-0.783,15.767-0.35,20c0.4,3.833,2.583,7.483,6.55,10.95c5.367,4.6,14.4,9.4,27.1,14.4
		c15.1,5.934,39.467,14.75,73.1,26.45C155.667,101.917,178.2,109.316,188,111.85z"/>
	<path style="fill-rule:evenodd;clip-rule:evenodd;fill:#889493;" d="M360.85,116.8c15.801-3.5,31.284-6.983,46.45-10.45l-99,25.5
		l0.351-4.35C311.85,127.366,329.25,123.8,360.85,116.8z"/>
	<path style="fill-rule:evenodd;clip-rule:evenodd;fill:#D4D7D5;" d="M409.65,100.35c-3.567,2-7.233,3.551-11,4.65
		c-2.967,0.9-32.301,7.184-88,18.85L409.65,100.35z"/>
	<path style="fill-rule:evenodd;clip-rule:evenodd;fill:#C2C8C7;" d="M88.1,72.55C68.2,63.15,56.167,57.133,52,54.5
		s-11.417-9.3-21.75-20C25.083,29.133,20.333,24.033,16,19.2c3.6,3.5,7.933,7.483,13,11.95c10.1,8.934,18.767,15.833,26,20.7
		c7.2,4.867,19.633,11.983,37.3,21.35c8.833,4.7,16.95,8.916,24.35,12.649C107.55,81.684,98.033,77.25,88.1,72.55z"/>
</g>
</svg>
