<?xml version="1.0" encoding="iso-8859-1"?>
<!-- Generator: Adobe Illustrator 15.1.0, SVG Export Plug-In . SVG Version: 6.00 Build 0)  -->
<!DOCTYPE svg PUBLIC "-//W3C//DTD SVG 1.1//EN" "http://www.w3.org/Graphics/SVG/1.1/DTD/svg11.dtd">
<svg version="1.1" id="buildings" xmlns="http://www.w3.org/2000/svg" xmlns:xlink="http://www.w3.org/1999/xlink" x="0px" y="0px"
	 width="62px" height="193.65px" viewBox="0 0 62 193.65" style="enable-background:new 0 0 62 193.65;" xml:space="preserve">
<symbol  id="FlashAICB_x2F_buildings_x2F__x3C_Path_x3E__x5F_4" viewBox="0.005 -76.813 5.745 76.813">
	<g id="Layer_1_4_">
		<path style="fill-rule:evenodd;clip-rule:evenodd;fill:#CA3654;" d="M0.05-46c-0.1,4.667-0.033,20,0.2,46L2.4-45.7
			c0.2-2.533,1.317-12.867,3.35-31c-0.8-0.2-1.467-0.133-2,0.2l-2.7,1.8L0.05-46z"/>
	</g>
</symbol>
<symbol  id="FlashAICB_x2F_buildings_x2F__x3C_Path_x3E__x5F_6" viewBox="-0.018 -21.05 33.068 21.101">
	<g id="Layer_1_3_">
		<path style="fill-rule:evenodd;clip-rule:evenodd;fill:#CA3654;" d="M30.45-16.15c-0.7,0.733-0.867,0.267-0.5-1.4
			c0.2-0.867,0.45-1.784,0.75-2.75c-0.4,0.966-0.967,2.017-1.7,3.15c-1.5,2.2-3.1,3.617-4.8,4.25c-3.6,1.167-6.5,2.133-8.7,2.9
			c-4.133,1.4-7.067,2.55-8.8,3.45c-1.9,1-3.483,2.15-4.75,3.45c-0.934,0.967-1.567,1.867-1.9,2.7c-0.233,0.566,0.133,0.6,1.1,0.1
			c0.9-0.467,1.7-1.05,2.4-1.75c0.767-0.6,1.784-1.267,3.05-2c2.533-1.467,5.1-2.55,7.7-3.25c7.633-1.967,12.184-3.467,13.65-4.5
			c0.833-0.6,1.733-1.517,2.7-2.75c0.934-1.167,1.483-2.083,1.65-2.75c0.267-0.833,0.517-2.083,0.75-3.75
			C32.383-18.95,31.517-17.317,30.45-16.15z"/>
	</g>
</symbol>
<symbol  id="FlashAICB_x2F_buildings_x2F__x3C_Path_x3E__x5F_8" viewBox="0 -52.6 3.65 52.6">
	<g id="Layer_1_2_">
		<path style="fill-rule:evenodd;clip-rule:evenodd;fill:#CA3654;" d="M0-36.35C0-34.017,0.217-21.9,0.65,0
			C0.817-0.333,1.433-0.75,2.5-1.25l0.25-25.6c0.1-5.333,0.4-13.25,0.9-23.75c-0.5,1.5-0.967,2.25-1.4,2.25S1.567-49.067,1.5-50.5
			c-0.033-0.7-0.033-1.4,0-2.1c-0.233,1.167-0.4,2.2-0.5,3.1C0.333-43.067,0-38.683,0-36.35z"/>
	</g>
</symbol>
<g>
	<g>
		<path style="fill-rule:evenodd;clip-rule:evenodd;fill:#D15869;" d="M23.5,38.5C22.167,56.4,24,66.6,29,69.1
			c2.167,1.1,5.217,2.1,9.15,3c4.166,0.967,7,1.767,8.5,2.4c5.899,2.567,9.116,8.533,9.649,17.9c0.767,13.034,1.3,31.734,1.601,56.1
			c0.333,26.134,0.033,39.667-0.9,40.6c-1.3,1.301-4.05,1.851-8.25,1.65c-4.7-0.233-7.95-1.684-9.75-4.35
			c-0.467-40.434-0.917-67.983-1.35-82.65c-0.134-4.934-1.834-8.8-5.101-11.6c-2.233-1.933-5.833-3.7-10.8-5.3
			c-5.933-1.967-9.667-3.367-11.2-4.2c-3.566-2-5.65-4.75-6.25-8.25c-1.1-6.667-1.65-19-1.65-37c0-9,0.117-17.333,0.35-25h24
			C25.333,20.867,24.167,29.567,23.5,38.5z"/>
		<g>
			<path style="fill-rule:evenodd;clip-rule:evenodd;fill:#CA3654;" d="M39.5,102.9L39.35,123.3c-0.1,14.167-0.116,22.7-0.05,25.601
				l1,28.699L43,179.4c0.533,0.333,1.2,0.399,2,0.199c-2.033-18.133-3.15-28.466-3.35-31L39.5,102.9z M8.5,79.1
				c1.267,1.3,2.85,2.45,4.75,3.45c1.733,0.9,4.667,2.05,8.8,3.45c2.2,0.767,5.1,1.733,8.7,2.9c1.7,0.633,3.3,2.05,4.8,4.25
				c0.733,1.133,1.3,2.184,1.7,3.15c-0.3-0.966-0.55-1.883-0.75-2.75c-0.366-1.667-0.2-2.133,0.5-1.4c1.066,1.167,1.934,2.8,2.6,4.9
				c-0.233-1.667-0.483-2.917-0.75-3.75c-0.166-0.667-0.716-1.583-1.649-2.75c-0.967-1.233-1.867-2.15-2.7-2.75
				c-1.467-1.033-6.017-2.533-13.65-4.5c-2.6-0.7-5.167-1.783-7.7-3.25l-3.05-2c-0.7-0.7-1.5-1.283-2.4-1.75
				c-0.967-0.5-1.333-0.466-1.1,0.1C6.933,77.233,7.567,78.133,8.5,79.1z M6.85,20.8C5.783,20.3,5.167,19.883,5,19.55
				C4.567,41.45,4.35,53.567,4.35,55.9c0,2.333,0.333,6.717,1,13.15c0.1,0.9,0.267,1.934,0.5,3.1c-0.033-0.7-0.033-1.4,0-2.1
				c0.066-1.433,0.316-2.15,0.75-2.15c0.433,0,0.9,0.75,1.4,2.25C7.5,59.65,7.2,51.733,7.1,46.4L6.85,20.8z M26.3,16.1l-0.5,3.2
				c-2,1.4-4.566,2.233-7.7,2.5c-2.333,0.2-4.65,0.15-6.95-0.15l-2.8-0.5c0.1,6.3,0.25,12.967,0.45,20
				c0.4,14.1,0.833,23.017,1.3,26.75c0.533,4.1,2.15,7.233,4.85,9.4c1.933,1.5,5.117,2.934,9.55,4.3c6.566,2,10.566,3.433,12,4.3
				c4.434,2.667,6.934,6.833,7.5,12.5c0.767,7.866,1.634,35.366,2.6,82.5c-0.767,0.133-1.666,0.199-2.699,0.199
				c-2.067,0-3.733-0.3-5-0.899c-0.5-40.3-0.917-65.783-1.25-76.45c-0.134-4.934-1.834-8.8-5.101-11.6
				c-2.233-1.933-5.833-3.7-10.8-5.3c-5.933-1.967-9.667-3.367-11.2-4.2c-3.566-2-5.65-4.75-6.25-8.25
				c-0.966-5.8-1.517-15.983-1.65-30.55C2.583,34.883,2.667,25.433,2.9,15.5l13.35,0.9L26.3,16.1z"/>
			
				<use xlink:href="#FlashAICB_x2F_buildings_x2F__x3C_Path_x3E__x5F_8"  width="3.65" height="52.6" y="-52.6" transform="matrix(1 0 0 -1 4.3501 19.5498)" style="overflow:visible;enable-background:new    ;"/>
			<path style="fill-rule:evenodd;clip-rule:evenodd;fill:#893342;" d="M5,19.55c0.167,0.333,0.783,0.75,1.85,1.25L7.1,46.4
				C7.2,51.733,7.5,59.65,8,70.15c-0.5-1.5-0.967-2.25-1.4-2.25c-0.434,0-0.684,0.717-0.75,2.15c-0.033,0.7-0.033,1.4,0,2.1
				c-0.233-1.167-0.4-2.2-0.5-3.1c-0.667-6.433-1-10.816-1-13.15C4.35,53.567,4.567,41.45,5,19.55z"/>
			
				<use xlink:href="#FlashAICB_x2F_buildings_x2F__x3C_Path_x3E__x5F_6"  width="33.068" height="21.101" x="-0.018" y="-21.05" transform="matrix(1 0 0 -1 6.5498 76)" style="overflow:visible;enable-background:new    ;"/>
			<path style="fill-rule:evenodd;clip-rule:evenodd;fill:#893342;" d="M13.25,82.55c-1.9-1-3.483-2.15-4.75-3.45
				c-0.933-0.967-1.567-1.867-1.9-2.7c-0.233-0.566,0.133-0.6,1.1-0.1c0.9,0.467,1.7,1.05,2.4,1.75l3.05,2
				c2.533,1.467,5.1,2.55,7.7,3.25c7.633,1.967,12.183,3.467,13.65,4.5c0.833,0.6,1.733,1.517,2.7,2.75
				c0.934,1.167,1.483,2.083,1.649,2.75c0.267,0.833,0.517,2.083,0.75,3.75c-0.666-2.1-1.533-3.733-2.6-4.9
				c-0.7-0.733-0.866-0.267-0.5,1.4c0.2,0.867,0.45,1.784,0.75,2.75c-0.4-0.966-0.967-2.017-1.7-3.15c-1.5-2.2-3.1-3.617-4.8-4.25
				c-3.6-1.167-6.5-2.133-8.7-2.9C17.917,84.6,14.983,83.45,13.25,82.55z"/>
			
				<use xlink:href="#FlashAICB_x2F_buildings_x2F__x3C_Path_x3E__x5F_4"  width="5.745" height="76.813" x="0.005" y="-76.813" transform="matrix(1 0 0 -1 39.25 102.9004)" style="overflow:visible;enable-background:new    ;"/>
			<path style="fill-rule:evenodd;clip-rule:evenodd;fill:#893342;" d="M39.35,123.3L39.5,102.9l2.15,45.699
				c0.199,2.534,1.316,12.867,3.35,31c-0.8,0.2-1.467,0.134-2-0.199l-2.7-1.801l-1-28.699C39.233,146,39.25,137.467,39.35,123.3z"/>
			<path style="fill-rule:evenodd;clip-rule:evenodd;fill:#D7717C;" d="M23,23.25c-0.433,3.6-0.85,7.583-1.25,11.95
				c-0.8,8.733-1.117,15.083-0.95,19.05c0.2,4.733,0.983,8.85,2.35,12.35c0.7,1.733,1.367,3,2,3.8
				c-1.333-0.733-2.683-1.95-4.05-3.65c-2.733-3.4-4.167-7.45-4.3-12.15c-0.2-7.567-0.533-17.633-1-30.2
				c1.967,0.633,3.75,0.633,5.35,0C21.983,24.067,22.6,23.683,23,23.25z"/>
			<path style="fill-rule:evenodd;clip-rule:evenodd;fill:#EA878B;" d="M53.3,95.75c-0.467-0.267-1.116-0.067-1.95,0.6
				c-0.399,0.333-0.75,0.683-1.05,1.05c-0.899-6.333-1.733-11.167-2.5-14.5c-0.467-2.133-2.25-4.367-5.35-6.7L38,73.4
				c2.5,0.333,4.95,1.05,7.35,2.15c3.767,1.767,6.25,4.117,7.45,7.05c1.101,2.667,1.8,6.1,2.101,10.3c0.133,2.1,0.166,3.934,0.1,5.5
				C54.667,97.066,54.1,96.183,53.3,95.75z"/>
			<path style="fill-rule:evenodd;clip-rule:evenodd;fill:#D7717C;" d="M53,110.15c1.667-1.134,2.8,9.816,3.4,32.85
				c0.267,11.533,0.383,23.167,0.35,34.9l-2.5,1c-0.667,0.333-1.5,0.5-2.5,0.5c0.333-9.667,0.5-17,0.5-22L53,110.15z"/>
		</g>
	</g>
	<path style="fill-rule:evenodd;clip-rule:evenodd;fill:#BC4D5A;" d="M29.5,13.25c-0.567,2.5-1.15,3.95-1.75,4.35
		c-2.1,1.3-4.667,2.2-7.7,2.7c-4.9,0.867-9.75,0.317-14.55-1.65C4.9,18.417,4.433,18.2,4.1,18c-0.367-0.233-0.717-0.45-1.05-0.65
		c-1.4-0.833-2.333-2.684-2.8-5.55c-0.4-2.633-0.317-5.033,0.25-7.2c0.2-0.867,2.533-1.567,7-2.1c4.7-0.6,8.917-0.6,12.65,0
		s5.95,1.017,6.65,1.25C29.033,4.583,30.183,6,30.25,8C30.283,9.2,30.033,10.95,29.5,13.25z"/>
	<path style="fill-rule:evenodd;clip-rule:evenodd;fill:#BC4D5A;" d="M37.3,192.05l-3.8-1.399c0.333-3.334,0.667-5.75,1-7.25
		c0.2-0.934,1-2,2.4-3.2l2-1.5l2.6,1.2c2.134,0.767,4.3,1.1,6.5,1c3.5-0.167,6.816-0.867,9.95-2.101l1.35,1.15
		c1,1,1.65,2.066,1.95,3.2c0.5,1.833,0.75,4.416,0.75,7.75c-0.967,0.5-2.267,0.983-3.9,1.449c-3.3,0.967-6.666,1.4-10.1,1.301
		C44.134,193.55,40.566,193.017,37.3,192.05z"/>
	<g>
		<path style="fill-rule:evenodd;clip-rule:evenodd;fill:#8F3F49;" d="M34.5,183.4c0.2-0.934,1-2,2.4-3.2l2-1.5l2.149,1.05
			c1.8,0.7,3.65,1.083,5.55,1.15l-2.149,1.55c-1.5,1.267-2.316,2.416-2.45,3.45c-0.267,1.666-0.483,3.633-0.65,5.899l3.101,0.65
			c2.366,0.434,4.333,0.633,5.899,0.6c2.167-0.066,6.034-0.934,11.601-2.6L62,190.9c-0.967,0.5-2.267,0.983-3.9,1.449
			c-3.3,0.967-6.666,1.4-10.1,1.301c-3.866-0.101-7.434-0.634-10.7-1.601l-3.8-1.399C33.833,187.316,34.167,184.9,34.5,183.4z
			 M39.6,181.3c-0.166,0-0.383,0.066-0.649,0.2c-0.533,0.233-1.066,0.667-1.601,1.3c-0.833,1-1.333,2.867-1.5,5.601l3.9,1.399
			c0-1.666,0.2-3.217,0.6-4.649c0.267-0.867,0.767-1.667,1.5-2.4l1-0.85c-0.633,0.166-1.366,0.116-2.199-0.15L39.6,181.3z"/>
		<path style="fill-rule:evenodd;clip-rule:evenodd;fill:#C76B70;" d="M57,189.1c0.233-0.699,0.184-1.85-0.15-3.449
			c-0.199-0.967-0.55-1.9-1.05-2.801l-0.7-1.05c1.233-0.366,2.117-0.45,2.65-0.25s1.116,0.783,1.75,1.75
			c0.833,1.233,1.167,2.767,1,4.601L57,189.1z"/>
		<path style="fill-rule:evenodd;clip-rule:evenodd;fill:#7C3941;" d="M40.35,185.15c-0.399,1.433-0.6,2.983-0.6,4.649l-3.9-1.399
			c0.167-2.733,0.667-4.601,1.5-5.601c0.534-0.633,1.067-1.066,1.601-1.3c0.267-0.134,0.483-0.2,0.649-0.2l1.051,0.45
			c0.833,0.267,1.566,0.316,2.199,0.15l-1,0.85C41.116,183.483,40.616,184.283,40.35,185.15z"/>
	</g>
	<path style="fill-rule:evenodd;clip-rule:evenodd;fill:#C76B70;" d="M25.8,12.65c0.9-0.1,1.934-0.533,3.1-1.3
		c-0.433,2.933-0.883,4.7-1.35,5.3c-0.433,0.633-1.433,1.167-3,1.6c0.467-0.6,0.8-1.317,1-2.15c0.133-0.533,0.217-1.267,0.25-2.2
		V12.65z"/>
	<g>
		<path style="fill-rule:evenodd;clip-rule:evenodd;fill:#8F3F49;" d="M20.8,20.1h0.25c-5.2,1.167-10.383,0.683-15.55-1.45
			C4.9,18.417,4.433,18.2,4.1,18c-0.367-0.233-0.717-0.45-1.05-0.65c-1.4-0.833-2.333-2.684-2.8-5.55
			c-0.4-2.633-0.317-5.033,0.25-7.2c0-0.067,0.067-0.167,0.2-0.3l5.05,4.45C5.517,8.783,5.267,8.917,5,9.15
			C4.533,9.55,4.283,10.167,4.25,11L4.1,12.3c0,1.067,0.316,2.133,0.95,3.2c0.667,1.167,1.917,2.15,3.75,2.95
			c1.434,0.6,2.934,1,4.5,1.2C16.5,20.083,19,20.233,20.8,20.1z"/>
	</g>
	<path style="fill-rule:evenodd;clip-rule:evenodd;fill:#C76B70;" d="M0.55,4.35c1.333-2.233,4.75-3.6,10.25-4.1
		c4.434-0.433,8.333-0.3,11.7,0.4c2.7,0.6,4.75,1.667,6.15,3.2c1.167,1.267,1.7,2.617,1.6,4.05c-0.233,3.033-5.683,4.483-16.35,4.35
		C8.233,12.183,4.267,11.033,2,8.8C0.3,7.1-0.183,5.617,0.55,4.35z"/>
	<path style="fill-rule:evenodd;clip-rule:evenodd;fill:#652A33;" d="M25.6,3.8c1.033,0.9,1.55,1.833,1.55,2.8
		c0,2.267-2.95,3.65-8.85,4.15c-3.8,0.333-7.316-0.117-10.55-1.35c-2.667-1.033-4.167-2.05-4.5-3.05C3.05,5.717,3.133,5.1,3.5,4.5
		c0.2-0.3,0.417-0.55,0.65-0.75c1.333-1.1,3-1.8,5-2.1c1.767-0.267,4.733-0.333,8.9-0.2C21.483,1.55,24,2.333,25.6,3.8z"/>
</g>
</svg>
