<?xml version="1.0" encoding="iso-8859-1"?>
<!-- Generator: Adobe Illustrator 15.1.0, SVG Export Plug-In . SVG Version: 6.00 Build 0)  -->
<!DOCTYPE svg PUBLIC "-//W3C//DTD SVG 1.1//EN" "http://www.w3.org/Graphics/SVG/1.1/DTD/svg11.dtd">
<svg version="1.1" id="Isolation_Mode" xmlns="http://www.w3.org/2000/svg" xmlns:xlink="http://www.w3.org/1999/xlink" x="0px"
	 y="0px" width="97.95px" height="240.15px" viewBox="0 0 97.95 240.15" style="enable-background:new 0 0 97.95 240.15;"
	 xml:space="preserve">
<g>
	<path style="fill-rule:evenodd;clip-rule:evenodd;fill:#B4BEBC;" d="M28.95,43.85C23.617,38.25,18.2,33.533,12.7,29.7l11-15
		c6,5.333,11.966,11.3,17.9,17.9c11.833,13.167,17.534,22.867,17.1,29.1c-0.167,2.566-1.8,10.7-4.9,24.4
		c-4,17.767-6.9,31.383-8.7,40.85c-7.3,38.3-8.1,62.55-2.4,72.75c4.167,7.467,11.5,12.666,22,15.6
		c7.434,2.066,16.083,2.917,25.95,2.55c1.699-0.066,3.083,1.067,4.149,3.4c0.967,2.134,1.467,4.7,1.5,7.7
		c0.066,3.1-0.399,5.684-1.399,7.75c-1.134,2.333-2.733,3.483-4.801,3.45c-12.899-0.2-24.533-1.817-34.899-4.851
		c-14.7-4.333-25.534-11.2-32.5-20.6c-9.367-12.601-8.983-37.351,1.15-74.25c2.233-8.2,6.4-21.6,12.5-40.2
		c4.533-13.867,6.983-22.717,7.35-26.55C44.533,64.967,39.617,55.017,28.95,43.85z"/>
	<g>
		<path style="fill-rule:evenodd;clip-rule:evenodd;fill:#899495;" d="M28.95,43.85C23.617,38.25,18.2,33.533,12.7,29.7l0.5-0.65
			l7.2-0.35c4.767,3.433,9.483,7.733,14.15,12.9c9.333,10.333,13.783,19.867,13.35,28.6c-0.333,7-4.983,28.716-13.95,65.149
			c-7.633,35.7-9.15,59.15-4.55,70.351c4.8,11.666,16.15,18.833,34.05,21.5c8.967,1.333,17.45,1.5,25.45,0.5L87.55,240.1
			c-12.7-0.433-24.033-2.199-34-5.3c-13.833-4.333-24.117-11.033-30.85-20.1c-9.367-12.601-8.983-37.351,1.15-74.25
			c2.233-8.2,6.4-21.6,12.5-40.2c4.533-13.867,6.983-22.717,7.35-26.55C44.533,64.967,39.617,55.017,28.95,43.85z"/>
	</g>
	<g>
		<path style="fill-rule:evenodd;clip-rule:evenodd;fill:#586A69;" d="M28.95,43.85C23.617,38.25,18.2,33.533,12.7,29.7l0.95-1.3
			c8.733,6.5,15.483,12.1,20.25,16.8c4.033,4.033,7.083,8.633,9.15,13.8c2.067,5.267,2.85,10.5,2.35,15.7
			c-0.367,4-3.467,17.417-9.3,40.25c-6.7,26.2-10.434,41.116-11.2,44.75c-0.566,2.767-1.517,7.05-2.85,12.85
			c-1,5.2-1.483,9.816-1.45,13.851c0.066,11,4,21.267,11.8,30.8c7.5,9.166,19.417,14.833,35.75,17c8.166,1.1,15.583,1.267,22.25,0.5
			l-0.5,5.45c-12.934-0.233-24.551-1.867-34.851-4.9c-14.6-4.3-25.383-11.15-32.35-20.55c-9.367-12.601-8.983-37.351,1.15-74.25
			c2.233-8.2,6.4-21.6,12.5-40.2c4.533-13.867,6.983-22.717,7.35-26.55C44.533,64.967,39.617,55.017,28.95,43.85z"/>
	</g>
	<path style="fill-rule:evenodd;clip-rule:evenodd;fill:#B4BEBC;" d="M31.7,9.7c0.733,1.3,0.966,3.283,0.7,5.95
		c-0.367,3.867-1.95,7.633-4.75,11.3c-2.7,3.533-5.767,6.267-9.2,8.2c-1.7,0.967-3.133,1.567-4.3,1.8L2.9,30.2L23.3,1.15
		C28.4,5.95,31.2,8.8,31.7,9.7z"/>
	<g>
		<path style="fill-rule:evenodd;clip-rule:evenodd;fill:#586A69;" d="M30.75,21.2l-1.45,3.25c-0.533,0.933-1.083,1.767-1.65,2.5
			c-3,3.933-5.667,6.7-8,8.3c-1.933,1.267-3.767,1.833-5.5,1.7c-1.3-0.1-3.566-1.25-6.8-3.45L2.9,30.2L3.7,29
			c2.433-0.333,6.417-0.717,11.95-1.15l1.3,1.1c1.066,0.767,2.083,1.267,3.05,1.5c1,0.267,3.1-1.2,6.3-4.4
			C27.867,24.483,29.35,22.867,30.75,21.2z"/>
	</g>
	<path style="fill-rule:evenodd;clip-rule:evenodd;fill:#CBD1D0;" d="M28.05,29.4l2.65-2.7l3.65,3c2.933,2.533,5.683,5.133,8.25,7.8
		c8.167,8.5,12.867,16.017,14.1,22.55c0.6,3.133-1.066,11.083-5,23.85c-1.967,6.333-3.85,12.05-5.65,17.15
		C51.384,81.717,53.5,67.933,52.4,59.7c-0.7-5.133-4.967-11.717-12.8-19.75L28.05,29.4z"/>
	<path style="fill-rule:evenodd;clip-rule:evenodd;fill:#CBD1D0;" d="M34.65,184.1c0.333-2.833,0.833-5.699,1.5-8.6l0.9-3.45
		L37,182.55c0.433,8.233,1.9,15.4,4.4,21.5c2.5,6.101,8.417,10.65,17.75,13.65c4.666,1.533,9.083,2.434,13.25,2.7l1.649,5
		c-0.899,0-3.684-0.45-8.35-1.351c-5.066-0.967-9.917-2.7-14.55-5.2c-6.601-3.566-11.3-8.05-14.101-13.449
		C34.417,200.267,33.617,193.167,34.65,184.1z"/>
	<path style="fill-rule:evenodd;clip-rule:evenodd;fill:#899495;" d="M13.4,2.75c3.533-2.5,6.4-3.3,8.6-2.4
		c2.333,0.967,3.383,3.383,3.15,7.25c-0.2,3.566-1.367,7.45-3.5,11.65c-2.233,4.333-4.816,7.633-7.75,9.9
		c-3.333,2.6-6.5,3.283-9.5,2.05c-3.2-1.333-4.65-3.917-4.35-7.75c0.267-3.333,1.784-7.067,4.55-11.2
		C7.2,8.283,10.133,5.117,13.4,2.75z"/>
	<linearGradient id="SVGID_1_" gradientUnits="userSpaceOnUse" x1="2.4873" y1="15.2324" x2="21.8123" y2="15.2324">
		<stop  offset="0" style="stop-color:#893342"/>
		<stop  offset="1" style="stop-color:#2D1D1E"/>
	</linearGradient>
	<path style="fill-rule:evenodd;clip-rule:evenodd;fill:url(#SVGID_1_);" d="M9.15,10.2c2.8-4,5.55-6.467,8.25-7.4
		c2.6-0.9,4.05-0.05,4.35,2.55c0.467,3.733-1.433,8.617-5.7,14.65c-4.3,6.1-7.85,8.717-10.65,7.85c-2.667-0.8-3.517-2.883-2.55-6.25
		C3.65,18.867,5.75,15.067,9.15,10.2z"/>
	<path style="fill-rule:evenodd;clip-rule:evenodd;fill:#CBD1D0;" d="M27,7.4l1.55,0.35c1.233,0.533,1.967,1.483,2.2,2.85
		c0.267,1.367,0.083,2.867-0.55,4.5c-0.333,0.833-0.684,1.533-1.05,2.1c-0.167-1.333-0.217-2.867-0.15-4.6
		c0.067-1.167-0.233-2.383-0.9-3.65C27.637,8.097,27.27,7.58,27,7.4z"/>
	<path style="fill-rule:evenodd;clip-rule:evenodd;fill:#CBD1D0;" d="M91.15,217.95c1.966-0.066,3.6,1.05,4.899,3.35
		c1.2,2.101,1.834,4.634,1.9,7.601c0.033,3.033-0.584,5.583-1.851,7.649c-1.433,2.367-3.5,3.566-6.199,3.601
		c-2.434,0.033-4.4-1.084-5.9-3.351c-1.4-2.066-2.083-4.566-2.05-7.5c0-3.033,0.75-5.6,2.25-7.7
		C85.866,219.267,88.184,218.05,91.15,217.95z"/>
	<linearGradient id="SVGID_2_" gradientUnits="userSpaceOnUse" x1="85.1621" y1="228.9502" x2="96.1371" y2="228.9502">
		<stop  offset="0" style="stop-color:#893342"/>
		<stop  offset="1" style="stop-color:#2D1D1E"/>
	</linearGradient>
	<path style="fill-rule:evenodd;clip-rule:evenodd;fill:url(#SVGID_2_);" d="M91.15,219.95c1.267,0.066,2.383,1.033,3.35,2.899
		c0.934,1.733,1.483,3.767,1.65,6.101c0.399,5.899-1.434,8.899-5.5,9c-2.034,0.066-3.534-0.851-4.5-2.75
		c-0.834-1.634-1.117-3.717-0.851-6.25c0.233-2.434,0.867-4.517,1.9-6.25C88.333,220.8,89.65,219.884,91.15,219.95z"/>
</g>
</svg>
