<?xml version="1.0" encoding="iso-8859-1"?>
<!-- Generator: Adobe Illustrator 15.1.0, SVG Export Plug-In . SVG Version: 6.00 Build 0)  -->
<!DOCTYPE svg PUBLIC "-//W3C//DTD SVG 1.1//EN" "http://www.w3.org/Graphics/SVG/1.1/DTD/svg11.dtd">
<svg version="1.1" id="buildings-mid" xmlns="http://www.w3.org/2000/svg" xmlns:xlink="http://www.w3.org/1999/xlink" x="0px"
	 y="0px" width="195.35px" height="256.6px" viewBox="0 0 195.35 256.6" style="enable-background:new 0 0 195.35 256.6;"
	 xml:space="preserve">
<g>
	<path style="fill-rule:evenodd;clip-rule:evenodd;fill:#A1BBB1;" d="M143.1,33c10.5,26.933,17.017,51.083,19.551,72.45
		c2.633,22,3.233,53.783,1.8,95.35c-0.4,11.334,4.633,21.851,15.1,31.55c5.233,4.834,10.5,8.534,15.8,11.101
		c-13.1,2.434-26.633,4.8-40.6,7.1c-27.9,4.533-43.934,6.384-48.1,5.55c-2.233-0.433-2.617-1.267-1.15-2.5
		c0.866-0.733,3.134-2.017,6.8-3.85c3.9-1.934,6.517-3.384,7.851-4.35c2.267-1.601,2.883-2.917,1.85-3.95s-4.3-0.717-9.8,0.95
		c-2.834,0.866-8.767,2.983-17.8,6.35c-17.433,6.533-27.783,8.983-31.05,7.35c-2.1-1.033-2.267-2.3-0.5-3.8
		c1.167-1,3.717-2.399,7.65-4.2c4.4-2.033,7.2-3.433,8.4-4.199c2.333-1.5,2.917-2.767,1.75-3.801c-1.167-1-5.45-0.616-12.85,1.15
		c-2.466,0.6-10.533,2.833-24.2,6.7c-23.967,6.733-38.5,9-43.6,6.8c14.233-6.333,29.933-15.75,47.1-28.25
		c34.333-25,58.85-52.917,73.55-83.75c14.699-30.8,20.35-63.567,16.949-98.3c-1.066-10.767-3-21.3-5.8-31.6
		c-1.366-5.133-2.633-9.383-3.8-12.75c0-0.733,1.517,2.1,4.55,8.5C136.083,15.967,139.6,24.1,143.1,33z"/>
	<g>
		<path style="fill-rule:evenodd;clip-rule:evenodd;fill:#829891;" d="M137.6,44.45c-1.066-10.767-3-21.3-5.8-31.6
			c-1.366-5.133-2.633-9.383-3.8-12.75l0.25,0.15c0.4,0.6,1.017,1.733,1.85,3.4c2.334,5.533,6.084,18.567,11.25,39.1
			c1.767,7.1,1.9,15,0.4,23.7c-0.366,2.1-0.85,4.833-1.45,8.2c-0.333,2.5-0.217,4.317,0.351,5.45c1.133,2.233,2.699,2.35,4.699,0.35
			c1-1,1.884-2.233,2.65-3.7l-3.35,16.85c-2.434,12.433-4.2,21.717-5.301,27.85c-1.133,6.1-0.133,8.816,3,8.149
			c1.567-0.333,3.233-1.283,5-2.85c-4.333,7-8.833,14.55-13.5,22.65c-9.333,16.233-14.833,27.133-16.5,32.699
			c-1.566,5.233,1.067,6.917,7.9,5.051c3.6-1,7.95-2.834,13.05-5.5c-4.3,2.366-7.55,5.583-9.75,9.649
			c-3.934,7.233-2.783,15.283,3.45,24.15c6.667,9.434,19.233,16.934,37.7,22.5c9.2,2.767,17.75,4.6,25.649,5.5
			c-13.1,2.434-26.633,4.8-40.6,7.1c-27.9,4.533-43.934,6.384-48.1,5.55c-2.233-0.433-2.617-1.267-1.15-2.5
			c0.866-0.733,3.134-2.017,6.8-3.85c3.9-1.934,6.517-3.384,7.851-4.35c2.267-1.601,2.883-2.917,1.85-3.95s-4.3-0.717-9.8,0.95
			c-2.834,0.866-8.767,2.983-17.8,6.35c-17.433,6.533-27.783,8.983-31.05,7.35c-2.1-1.033-2.267-2.3-0.5-3.8
			c1.167-1,3.717-2.399,7.65-4.2c4.4-2.033,7.2-3.433,8.4-4.199c2.333-1.5,2.917-2.767,1.75-3.801c-1.167-1-5.45-0.616-12.85,1.15
			c-2.466,0.6-10.533,2.833-24.2,6.7c-23.967,6.733-38.5,9-43.6,6.8c14.233-6.333,29.933-15.75,47.1-28.25
			c34.333-25,58.85-52.917,73.55-83.75C135.35,111.95,141,79.183,137.6,44.45z"/>
	</g>
	<g>
		<path style="fill-rule:evenodd;clip-rule:evenodd;fill:#70827C;" d="M128.65,123.2c1.8-0.567,3.583-1.483,5.35-2.75l-4.1,9.899
			c-2.967,7.233-4.934,12.367-5.9,15.4c-0.967,3.066,0.017,4.217,2.95,3.45c1.467-0.4,3.033-1.101,4.7-2.101
			c-5.434,5.934-11.034,12.317-16.801,19.15c-11.566,13.667-18.183,22.733-19.85,27.2c-1.667,4.434,0.833,6.316,7.5,5.649
			c3.333-0.333,6.833-1.116,10.5-2.35l-4.2,4c-2.934,3.467-4.75,7.134-5.45,11c-0.699,3.9,1.7,4.233,7.2,1l8.45-6l0.5,2.95
			c0.5,2.5,1.2,4.95,2.1,7.35c2.867,7.733,7.217,13.75,13.051,18.05c5.1,3.767,11.366,6.983,18.8,9.65
			c4.6,1.667,9.017,2.917,13.25,3.75c-35.134,6.033-55.15,8.566-60.05,7.6c-2.233-0.433-2.617-1.267-1.15-2.5
			c0.866-0.733,3.134-2.017,6.8-3.85c3.9-1.934,6.517-3.384,7.851-4.35c2.267-1.601,2.883-2.917,1.85-3.95s-4.3-0.717-9.8,0.95
			c-2.834,0.866-8.767,2.983-17.8,6.35c-17.433,6.533-27.783,8.983-31.05,7.35c-2.1-1.033-2.267-2.3-0.5-3.8
			c1.167-1,3.717-2.399,7.65-4.2c4.4-2.033,7.2-3.433,8.4-4.199c2.333-1.5,2.917-2.767,1.75-3.801c-1.167-1-5.45-0.616-12.85,1.15
			c-2.466,0.6-10.533,2.833-24.2,6.7c-23.967,6.733-38.5,9-43.6,6.8c14.233-6.333,29.933-15.75,47.1-28.25
			c34.333-25,58.85-52.917,73.55-83.75C123.717,136.417,126.384,129.9,128.65,123.2z"/>
	</g>
	<g>
		<path style="fill-rule:evenodd;clip-rule:evenodd;fill:#5A6764;" d="M120.65,142.75l0.55-1.15
			c-2.267,8.434-5.117,15.267-8.55,20.5c-3.367,5.2-9.517,13.817-18.45,25.851c-9.3,12.6-15.7,20.866-19.2,24.8
			c-2.367,2.7-9.517,8.116-21.45,16.25c-9.966,6.833-14.267,10.417-12.9,10.75c1.667,0.434,8.167-1.267,19.5-5.1
			c5.667-1.934,11.167-3.9,16.5-5.9l-4.2,2.85c-2.267,1.9-2.083,2.851,0.55,2.851s6.65-0.667,12.05-2c2.7-0.667,5.133-1.334,7.3-2
			L86,239.4c-3.833,5.933-4.717,8.833-2.65,8.699c1.733-0.133,6.95-1.883,15.65-5.25c9-3.5,14.45-5.416,16.35-5.75
			c2.934-0.5,5.75,0.233,8.45,2.2c2.667,1.9,3.4,3.617,2.2,5.15c-0.533,0.666-2.684,2.267-6.45,4.8c-2.5,1.667-2.8,2.5-0.899,2.5
			c1.966,0,13.05-1.083,33.25-3.25c17.866-1.934,31.5-3.467,40.899-4.6c-15.533,2.866-30.467,5.433-44.8,7.699
			c-23.767,3.767-37.55,5.267-41.35,4.5c-2.233-0.433-2.617-1.267-1.15-2.5c0.866-0.733,3.134-2.017,6.8-3.85
			c3.9-1.934,6.517-3.384,7.851-4.35c2.267-1.601,2.883-2.917,1.85-3.95s-4.3-0.717-9.8,0.95c-2.834,0.866-8.767,2.983-17.8,6.35
			c-17.433,6.533-27.783,8.983-31.05,7.35c-2.1-1.033-2.267-2.3-0.5-3.8c1.167-1,3.717-2.399,7.65-4.2
			c4.4-2.033,7.2-3.433,8.4-4.199c2.333-1.5,2.917-2.767,1.75-3.801c-1.167-1-5.45-0.616-12.85,1.15
			c-2.466,0.6-10.533,2.833-24.2,6.7c-23.967,6.733-38.5,9-43.6,6.8c14.233-6.333,29.933-15.75,47.1-28.25
			C81.433,201.5,105.95,173.583,120.65,142.75z"/>
	</g>
	<path style="fill-rule:evenodd;clip-rule:evenodd;fill:#B9CAC3;" d="M150.15,62.95l3.8,13.4c2.6,9.667,4,16.367,4.2,20.1
		c0.333,5.9,0,11.083-1,15.55c-1.334,5.967-3.667,9.283-7,9.95c-3.2,0.633-4.467-1.35-3.801-5.95
		c1.534-6.033,2.634-10.383,3.301-13.05c0.833-3.333,1.166-11,1-23L150.15,62.95z"/>
	<path style="fill-rule:evenodd;clip-rule:evenodd;fill:#B9CAC3;" d="M159.65,214.95c1.666,2.934,4.833,7.066,9.5,12.399
		c2.333,2.667,4.5,5.034,6.5,7.101c-4.667-1.233-9.517-2.934-14.551-5.101c-10.1-4.333-16.083-8.8-17.949-13.399
		c-2.067-5.066-1.767-9.634,0.899-13.7c2.334-3.566,5.367-5.5,9.101-5.8c2.433-0.2,3.833,1.95,4.199,6.45
		C157.85,209.134,158.616,213.15,159.65,214.95z"/>
	<path style="fill-rule:evenodd;clip-rule:evenodd;fill:#829891;" d="M132.15,172.95c2.767-5.9,5.833-11.684,9.199-17.351
		c6.733-11.333,11.667-16.383,14.801-15.149c3.133,1.267,0.066,7.066-9.2,17.399C142.35,163.017,137.417,168.05,132.15,172.95z"/>
	<path style="fill-rule:evenodd;clip-rule:evenodd;fill:#829891;" d="M142.65,189.45c1.767-4,3.733-7.934,5.899-11.8
		c4.334-7.767,7.533-11.334,9.601-10.7c2.1,0.633,0.149,4.566-5.851,11.8C149.3,182.384,146.083,185.95,142.65,189.45z"/>
</g>
</svg>
