<?xml version="1.0" encoding="iso-8859-1"?>
<!-- Generator: Adobe Illustrator 15.1.0, SVG Export Plug-In . SVG Version: 6.00 Build 0)  -->
<!DOCTYPE svg PUBLIC "-//W3C//DTD SVG 1.1//EN" "http://www.w3.org/Graphics/SVG/1.1/DTD/svg11.dtd">
<svg version="1.1" id="Isolation_Mode" xmlns="http://www.w3.org/2000/svg" xmlns:xlink="http://www.w3.org/1999/xlink" x="0px"
	 y="0px" width="77.2px" height="43.75px" viewBox="0 0 77.2 43.75" style="enable-background:new 0 0 77.2 43.75;"
	 xml:space="preserve">
<g>
	<path style="fill-rule:evenodd;clip-rule:evenodd;fill:#D08B68;" d="M51.6,21.65C44.667,11.55,39.9,6.583,37.3,6.75
		C32.833,7.017,21.783,8.6,4.15,11.5c0.467-0.733,0.633-1.533,0.5-2.4C4.417,7.367,2.867,6.15,0,5.45
		C3.333,4.617,7.367,3.767,12.1,2.9C21.5,1.167,29.617,0.2,36.45,0C43.384-0.2,51.6,5.45,61.1,16.95c3.134,3.8,6.134,7.899,9,12.3
		c2.267,3.467,3.517,5.566,3.75,6.3c0.267,0.834-0.966,1.517-3.699,2.05c-2.733,0.567-4.967,0.584-6.7,0.051
		c-0.733-0.233-2.267-2.017-4.601-5.351C55.783,27.733,53.366,24.184,51.6,21.65z"/>
	<g>
		<path style="fill-rule:evenodd;clip-rule:evenodd;fill:#BF7F61;" d="M61.2,29.9c1.866,2.733,3.416,4.933,4.649,6.6
			c-0.767,0.566-1.666,0.9-2.699,1c-0.834-0.5-2.434-2.467-4.801-5.9c-3.033-4.566-5.416-8.083-7.149-10.55
			c-6.7-9.7-11.334-14.466-13.9-14.3C32.933,6.983,22.55,8.467,6.15,11.2V9C24.383,6,35.333,4.6,39,4.8
			c2.333,0.1,6.384,3.833,12.15,11.2C53.65,19.167,57,23.8,61.2,29.9z"/>
	</g>
	<path style="fill-rule:evenodd;clip-rule:evenodd;fill:#CB7E5C;" d="M75.4,41.65c-1.667,1.166-3.917,1.85-6.75,2.05
		c-2.467,0.166-4.567-0.15-6.301-0.95L60.5,41.5l1.7-4.85c2.1,0.199,4.434-0.384,7-1.75c1.267-0.667,2.333-1.367,3.2-2.101l2,2
		c1.399,1.5,2.283,2.684,2.649,3.55C77.517,39.45,76.967,40.55,75.4,41.65z"/>
	<path style="fill-rule:evenodd;clip-rule:evenodd;fill:#B1765B;" d="M64.05,35.4c-0.566,0.366-1.066,0.517-1.5,0.449l-0.5-0.25
		c-2.2-3.5-4.267-6.566-6.2-9.199L43.15,8.8l3.6,3.85c2.7,2.967,4.783,5.383,6.25,7.25C55.333,22.866,59.017,28.033,64.05,35.4z"/>
	<path style="fill-rule:evenodd;clip-rule:evenodd;fill:#B1765B;" d="M36.35,5.7c1.433,0,2.25,0.133,2.45,0.4
		c-2.4,0.1-4.55,0.316-6.45,0.65L7.7,10.4l0.45-1.05L36.35,5.7z"/>
	<path style="fill-rule:evenodd;clip-rule:evenodd;fill:#D8A07E;" d="M70.65,33.15L69.6,33.55
		c-5.366-9.633-9.149-15.683-11.35-18.15c-1.533-1.733-3.5-3.783-5.9-6.15l-3.149-3l5.5,4.8c4.166,3.934,7.517,7.817,10.05,11.65
		c3.434,5.166,5.75,8.399,6.95,9.7C71.434,32.667,71.083,32.917,70.65,33.15z"/>
	<path style="fill-rule:evenodd;clip-rule:evenodd;fill:#D8A07E;" d="M38.8,1.2c-1.633-0.367-7.267,0.2-16.9,1.7
		c-4.8,0.767-9.45,1.55-13.95,2.35l0.85-1.1c15-2.467,24.25-3.683,27.75-3.65c1.752,0.031,3.786,0.589,6.101,1.675
		C41.996,1.942,40.713,1.617,38.8,1.2z"/>
	<g>
		<path style="fill-rule:evenodd;clip-rule:evenodd;fill:#B26F53;" d="M62.2,36.65c1.066,0.1,2.2-0.017,3.399-0.351l0.15,0.05
			l-0.3,3.15c-0.101,2.1,0.2,3.25,0.899,3.45c0.733,0.2,2.134,0.149,4.2-0.15c1.934-0.267,3.25-0.566,3.95-0.899
			c0.833-0.4,1.35-0.684,1.55-0.851l-0.1,0.15c-1.601,1.434-4.033,2.267-7.3,2.5c-2.467,0.166-4.567-0.15-6.301-0.95L60.5,41.5
			L62.2,36.65z"/>
	</g>
	<path style="fill-rule:evenodd;clip-rule:evenodd;fill:#D08B68;" d="M72.05,34.2c0.5,0.133,1.3,0.8,2.4,2
		c1.033,1.166,1.517,1.899,1.45,2.2c-0.067,0.267-0.45,0.583-1.15,0.949c-0.667,0.367-1.184,0.567-1.55,0.601
		C72.866,39.983,72.5,39,72.1,37C71.7,35.033,71.684,34.1,72.05,34.2z"/>
</g>
</svg>
