<?xml version="1.0" encoding="iso-8859-1"?>
<!-- Generator: Adobe Illustrator 15.1.0, SVG Export Plug-In . SVG Version: 6.00 Build 0)  -->
<!DOCTYPE svg PUBLIC "-//W3C//DTD SVG 1.1//EN" "http://www.w3.org/Graphics/SVG/1.1/DTD/svg11.dtd">
<svg version="1.1" id="buildings" xmlns="http://www.w3.org/2000/svg" xmlns:xlink="http://www.w3.org/1999/xlink" x="0px" y="0px"
	 width="49px" height="58.75px" viewBox="0 0 49 58.75" style="enable-background:new 0 0 49 58.75;" xml:space="preserve">
<g>
	
		<linearGradient id="SVGID_1_" gradientUnits="userSpaceOnUse" x1="10.3735" y1="-24.5615" x2="48.7148" y2="-24.5615" gradientTransform="matrix(0.0998 0.995 -0.995 0.0998 4.269481e-004 -1.415163e-004)">
		<stop  offset="0" style="stop-color:#707E7C"/>
		<stop  offset="1" style="stop-color:#BDC4C2"/>
	</linearGradient>
	<path style="fill-rule:evenodd;clip-rule:evenodd;fill:url(#SVGID_1_);" d="M22,3.75l7.5-1c-1,2.6-1.85,5.667-2.55,9.2
		c-1.434,7.066-1.417,13,0.05,17.8s5.566,10.983,12.3,18.55c3.4,3.8,6.634,7.117,9.7,9.95l-11,0.5c-4.366-2.1-8.8-4.634-13.3-7.6
		C15.667,45.25,10.767,40.2,10,36c-1.967-10.933-0.567-19.583,4.2-25.95C16.6,6.85,19.2,4.75,22,3.75z"/>
	<g>
		<path style="fill-rule:evenodd;clip-rule:evenodd;fill:#869192;" d="M21.6,38.35c3.867-0.433,7.1-0.466,9.7-0.1l0.8,1.15
			l-0.85-0.15c1.033,5.066,2.717,8.384,5.05,9.95c1.3,0.899,3.033,1.434,5.2,1.6l1,1h-0.1c-2.767,0-4.983-0.583-6.65-1.75
			c-2.634-1.767-4.483-5.416-5.55-10.95c-2.334-0.233-5.167-0.149-8.5,0.25L21.6,38.35z"/>
		<path style="fill-rule:evenodd;clip-rule:evenodd;fill:#869192;" d="M22.45,17.2c0.5-2.434,2.05-4.45,4.649-6.05l-0.3,1.4
			c-1.934,1.367-3.083,3.067-3.45,5.1c1.034,0.633,1.9,1.233,2.6,1.8l-0.05,1.2c-2.167-1.867-4.567-3.133-7.2-3.8l0.25-0.95
			C20.05,16.167,21.217,16.6,22.45,17.2z"/>
	</g>
	
		<linearGradient id="SVGID_2_" gradientUnits="userSpaceOnUse" x1="-4.4365" y1="-33.2607" x2="44.4409" y2="-33.2607" gradientTransform="matrix(-0.5115 0.8593 -0.8593 -0.5115 -2.909899e-004 -1.929998e-004)">
		<stop  offset="0" style="stop-color:#5F7574"/>
		<stop  offset="1" style="stop-color:#A1AAA9"/>
	</linearGradient>
	<path style="fill-rule:evenodd;clip-rule:evenodd;fill:url(#SVGID_2_);" d="M19,31.75c1.167,6.267,4.683,12.65,10.55,19.15
		c2.934,3.233,5.75,5.85,8.45,7.85l-38-7l4-51l18,3c-1,2-1.867,4.667-2.6,8C17.9,18.417,17.767,25.083,19,31.75z"/>
	<polygon style="fill-rule:evenodd;clip-rule:evenodd;fill:#B1B8B7;" points="4,0.75 16,0 29.5,2.75 22,3.75 	"/>
	<g>
		<path style="fill-rule:evenodd;clip-rule:evenodd;fill:#657373;" d="M11.25,7.95c0.333-2.333,0.517-4.284,0.55-5.85l1,0.15
			C12.767,3.05,12.583,5,12.25,8.1c-0.4,2.433-0.783,4.3-1.15,5.6h0.05c-0.033,1.267,0.967,2.033,3,2.3
			c1.333,0.233,2.833,0.133,4.5-0.3l-0.15,1.05c-0.9,0.233-1.9,0.35-3,0.35L15,17.05c-3.6,5.167-3.85,10.4-0.75,15.7
			c1.733,3.066,3.683,4.833,5.85,5.3L21,38.2l0.45,0.95L21.1,39.2c-0.367,0-0.783-0.05-1.25-0.15c-2.033-0.467-3.9-1.934-5.6-4.399
			c-1.3,1.566-2.683,2.883-4.15,3.949c1.233,0.934,2.283,2.301,3.15,4.101c0.833,1.8,1.433,3.85,1.8,6.149
			c1.833-0.166,4.184,0.617,7.05,2.351c2.766,1.7,5.016,3.666,6.75,5.899l-1.5-0.3c-1.699-1.934-3.783-3.616-6.25-5.05
			c-2.467-1.4-4.45-2.033-5.95-1.9c0.2,1.567,0.217,3.15,0.05,4.75L14.25,54.4c0.167-1.634,0.117-3.351-0.15-5.15
			c-0.333-2.3-0.917-4.316-1.75-6.05c-0.833-1.8-1.833-3.117-3-3.95l0.25-0.3C6.967,40.65,4.1,41.5,1,41.5H0.8l0.05-1.1
			c4.867,0.1,9.117-2.067,12.75-6.5l0.3,0.199l-0.55-0.85c-3.167-5.567-3-11,0.5-16.3c-1.6-0.267-2.684-0.833-3.25-1.7
			c-1.767,4.733-4.55,7.217-8.35,7.45l0.1-1c2.8-0.233,4.967-1.867,6.5-4.9C9.917,14.633,10.717,11.683,11.25,7.95z"/>
	</g>
	<path style="fill-rule:evenodd;clip-rule:evenodd;fill:#586A69;" d="M17.8,15c-0.6,4.067-0.917,7-0.95,8.8
		c-0.033,4.4,0.733,8.75,2.3,13.05c1.533,4.167,4.733,8.917,9.6,14.25c2.467,2.667,4.767,4.917,6.9,6.75L0.5,51l1.15-8l3.9,4
		c3.167,2.8,6.2,4.467,9.1,5c3.767,0.733,7.1,1.066,10,1c3.1-0.066,4.05-0.616,2.85-1.65c-1.767-1.533-3.867-4.333-6.3-8.399
		c-3.034-5.066-4.767-9.55-5.2-13.45c-0.4-3.667-0.317-8.05,0.25-13.15c0.3-2.7,0.717-5.65,1.25-8.85c0.133-1.233-1.833-2.567-5.9-4
		c-2-0.733-4.033-1.333-6.1-1.8L21,4.35C19.333,8.583,18.267,12.133,17.8,15z"/>
	<path style="fill-rule:evenodd;clip-rule:evenodd;fill:#778583;" d="M22.65,4.35l6-1c-0.9,2.433-1.7,5.25-2.4,8.45
		c-1.4,6.4-1.65,11.467-0.75,15.2c1.533,6.4,6.417,14.066,14.65,23c2.333,2.566,5,5.184,8,7.85l-9.5,0.351l3.199-0.4
		c2.067-0.399,3-0.883,2.801-1.45c-3.167-3.267-6.301-6.733-9.4-10.399c-6.2-7.3-9.684-13.283-10.45-17.95
		c-0.8-4.967-0.75-10.05,0.15-15.25C25.717,8.217,26.066,5.867,26,5.7c-0.366-0.7-1.033-1.133-2-1.3L22.65,4.35z"/>
</g>
</svg>
