<?xml version="1.0" encoding="iso-8859-1"?>
<!-- Generator: Adobe Illustrator 15.1.0, SVG Export Plug-In . SVG Version: 6.00 Build 0)  -->
<!DOCTYPE svg PUBLIC "-//W3C//DTD SVG 1.1//EN" "http://www.w3.org/Graphics/SVG/1.1/DTD/svg11.dtd">
<svg version="1.1" id="Isolation_Mode" xmlns="http://www.w3.org/2000/svg" xmlns:xlink="http://www.w3.org/1999/xlink" x="0px"
	 y="0px" width="255.2px" height="292.8px" viewBox="0 0 255.2 292.8" style="enable-background:new 0 0 255.2 292.8;"
	 xml:space="preserve">
<linearGradient id="SVGID_1_" gradientUnits="userSpaceOnUse" x1="50.002" y1="-123.1841" x2="255.452" y2="-123.1841" gradientTransform="matrix(4.867365e-006 1 -1 -0.001 1.752719e-004 -7.000077e-005)">
	<stop  offset="0.0078" style="stop-color:#4A2126"/>
	<stop  offset="1" style="stop-color:#8C2C40"/>
</linearGradient>
<path style="fill-rule:evenodd;clip-rule:evenodd;fill:url(#SVGID_1_);" d="M169.95,26.75c14.533,6.7,27.316,16.433,38.35,29.2
	c10.467,12.133,18.851,26.383,25.15,42.75c6.133,15.867,9.967,32.767,11.5,50.7c1.7,19.933,1.866,36.899,0.5,50.899
	c-1.7,17.233-5.767,31.617-12.2,43.15c-15.3,27.366-45.45,40.717-90.45,40.05c-24.033-0.366-45.583-4.316-64.65-11.85
	c-17.967-7.067-33.1-17.051-45.4-29.95c-11.767-12.334-20.433-26.733-26-43.2C1.317,182.366-0.833,165.2,0.3,147
	c1.1-17.367,5.517-34.233,13.25-50.6c7.2-15.233,16.717-28.983,28.55-41.25C53.5,43.317,65.933,34,79.4,27.2
	c13.6-6.867,26.733-10.434,39.4-10.7C137.3,16.133,154.35,19.55,169.95,26.75z"/>
<g>
	
		<linearGradient id="SVGID_2_" gradientUnits="userSpaceOnUse" x1="-100.9316" y1="-131.9199" x2="177.4207" y2="-131.9199" gradientTransform="matrix(-0.6395 0.7688 -0.7688 -0.6395 1.680851e-004 5.674362e-005)">
		<stop  offset="0.0078" style="stop-color:#967C8D"/>
		<stop  offset="0.9882" style="stop-color:#62455A"/>
	</linearGradient>
	<path style="fill-rule:evenodd;clip-rule:evenodd;fill:url(#SVGID_2_);" d="M145.45,9c6.333,1.967,11.434,4.183,15.3,6.65
		c4.333,2.8,6.733,5.717,7.2,8.75c0.467,3.133-1.7,5.167-6.5,6.1c-3.834,0.767-9.167,0.817-16,0.15V9z"/>
	
		<linearGradient id="SVGID_3_" gradientUnits="userSpaceOnUse" x1="-100.9404" y1="-226.938" x2="177.4119" y2="-226.938" gradientTransform="matrix(-0.6395 0.7688 -0.7688 -0.6395 1.680851e-004 5.674362e-005)">
		<stop  offset="0.0078" style="stop-color:#967C8D"/>
		<stop  offset="0.9882" style="stop-color:#62455A"/>
	</linearGradient>
	<path style="fill-rule:evenodd;clip-rule:evenodd;fill:url(#SVGID_3_);" d="M225.4,207.65c1.066,5.666,1.083,9.75,0.05,12.25
		s-2.767,4.916-5.2,7.25c-1.2,1.166-2.3,2.083-3.3,2.75c4.6-1.034,10.566-5.934,17.899-14.7c3.667-4.367,6.867-8.634,9.601-12.8
		c-5,3.666-8.834,6.333-11.5,8c-1.667,1.033-3.75-0.4-6.25-4.301l-3.25-6.199L225.4,207.65z M237.85,173.45l-2.1-0.95
		c-0.1-0.066-0.35-0.134-0.75-0.2l-0.35-0.149l-1.2-0.25c-2.367-0.334-4.517,0.533-6.45,2.6c-1.8,1.967-2.917,4.4-3.35,7.3
		c-0.434,3.033,0.05,5.65,1.449,7.851c1.601,2.5,4.217,3.916,7.851,4.25c2.934,0.3,5.35-0.2,7.25-1.5
		c1.733-1.167,2.883-2.834,3.45-5l0.199-0.851l0.051-0.1l0.149-1.7l-0.1-1.95l-0.55-2.35l-0.601-1.5l-1.05-1.8l-1-1.301l-1.6-1.5
		L237.85,173.45z M223.45,167.4l8.5-0.75c6.166,0.166,10.5,1.916,13,5.25c2.5,3.333,2.916,8.5,1.25,15.5
		c-0.834,3.5-1.917,6.666-3.25,9.5c1.434-1.9,2.733-4.301,3.899-7.2c2.334-5.733,2.867-11,1.601-15.8
		c-1.367-5.267-4.967-8.351-10.8-9.25C232.517,163.884,227.783,164.8,223.45,167.4z M235,126.1c-1.5-1.467-3.417-2.283-5.75-2.45
		h-0.05c-0.667-0.066-1.2-0.083-1.601-0.05c-3.166,0.167-5.633,1.283-7.399,3.35c-1.566,1.9-2.3,4.167-2.2,6.8s0.983,4.85,2.65,6.65
		c1.866,2,4.3,3,7.3,3h0.2c3.5-0.033,6.166-1.517,8-4.45v-0.05l0.399-0.75l0.05-0.05l0.301-0.75l0.05-0.1l0.25-0.75l0.05-0.1
		l0.25-0.9l0.15-0.75l0.05-0.9l0.05-0.15l-0.05-1.75l-0.101-0.85h-0.05C237.217,129.067,236.366,127.4,235,126.1z M215.95,91
		c1.1-1.267,1.7-2.817,1.8-4.65c0.1-1.9-0.384-3.483-1.45-4.75c-1.233-1.467-3.017-2.2-5.35-2.2c-2.367,0-4.117,0.684-5.25,2.05
		c-1,1.2-1.367,2.7-1.101,4.5c0.233,1.767,0.967,3.316,2.2,4.65c1.3,1.4,2.851,2.167,4.65,2.3S214.75,92.4,215.95,91z M210.75,48.85
		c4.066,3.5,6.967,7.017,8.7,10.55c-0.066-1.233-0.566-2.95-1.5-5.15c-1.834-4.333-4.834-8.8-9-13.4
		C196.684,27.217,180.85,16.4,161.45,8.4c-4.834-1.967-10.167-3.433-16-4.4V0c20.967,3.867,39.566,13.4,55.8,28.6
		c13.1,12.267,24.233,27.767,33.4,46.5c0.5,1.066,0.949,2.217,1.35,3.45h-0.05l-1.101,9.85c-1.166,6.9-2.8,11.184-4.899,12.85
		c-2.066,1.667-4.75,3.233-8.05,4.7l-4.301,1.65l6.051-1.5c4.399-1.133,7.5-1.967,9.3-2.5c2.866-0.9,4.866-1.567,6-2l-13.5,6.8
		l3.149-0.05c2.5,0.066,4.784,0.417,6.851,1.05c2.033,0.633,5.133,2.934,9.3,6.9c2.134,2,4.15,4.05,6.05,6.15
		c0.5,1.867,0.867,3.383,1.101,4.55c2.833,14.633,3.85,31.75,3.05,51.35c-1.033,26.301-5.601,48.467-13.7,66.5l0.3-0.75
		c-7.366,7.334-15.416,13.217-24.149,17.65c-11.101,5.634-22.917,8.684-35.45,9.15c-14.533,0.6-26.7,0.183-36.5-1.25V258.85l3,0.351
		c1.467,0.133,2.583,0.2,3.35,0.2c17.566,0.566,31.217-6.9,40.95-22.4c8.7-13.866,12.75-31.083,12.15-51.65
		c-0.601-20.433-5.534-37.816-14.801-52.149c-10.267-15.833-23.566-23.75-39.899-23.75c-0.467,0-1.2,0.033-2.2,0.1l-2.55,0.3v-9.2
		c2.066-0.3,4.066-0.383,6-0.25c7.5,0.633,14.583,1.9,21.25,3.8c3.333,0.966,5.916,1.867,7.75,2.7
		c-4.834-2.833-9.667-6.267-14.5-10.3c-9.667-8.1-14.5-15.167-14.5-21.2s1.666-11.683,5-16.95c1.666-2.6,3.333-4.617,5-6.05
		c-1.834,1.333-3.851,3.267-6.05,5.8c-4.434,5.1-7.584,10.667-9.45,16.7l-0.5,1.7V33.85c13.166,3.3,25.083,4.883,35.75,4.75
		C192.767,38.467,202.616,41.883,210.75,48.85z M191.75,63.3l-3.3-5.4l2.2,6c1.233,4.5,1.333,8,0.3,10.5s-2.851,4.833-5.45,7
		l-3.55,2.5l5.8-0.8c4.267-0.267,7.333,0.333,9.2,1.8c2.533,2.033,4.583,5.633,6.149,10.8c-0.966-3.733-1.6-7.017-1.899-9.85
		c-0.467-4.733,0.116-7.55,1.75-8.45c1.866-1.033,4.434-1.933,7.7-2.7c1.633-0.367,3.066-0.633,4.3-0.8
		c-1.4,0-3.084-0.117-5.05-0.35c-3.934-0.5-7.25-1.383-9.95-2.65C197.25,69.667,194.517,67.133,191.75,63.3z M180.5,78.75l1.65-1.75
		l1.25-1.95l0.8-2.05l0.2-0.7l0.25-1.45l0.05-2.2l-0.3-1.9l-0.301-1.1V65.6c-0.666-1.934-1.75-3.55-3.25-4.85
		c-1.633-1.433-3.649-2.367-6.05-2.8L173.4,57.8c-1.301-0.133-2.784-0.1-4.45,0.1c-3.334,0.467-5.934,2.067-7.8,4.8
		c-1.733,2.5-2.483,5.333-2.25,8.5c0.233,3.267,1.449,5.883,3.649,7.85c2.5,2.267,5.8,3.217,9.9,2.85c0.333,0,0.833-0.066,1.5-0.2
		l1.45-0.3l0.5-0.15l2.05-0.8l1.55-0.95L180.5,78.75z"/>
	<path style="fill-rule:evenodd;clip-rule:evenodd;fill:#4A3645;" d="M229.2,123.65h0.05c2.333,0.167,4.25,0.983,5.75,2.45
		c1.366,1.3,2.217,2.967,2.55,5h0.05l0.101,0.85l0.05,1.75l-0.05,0.15l-0.05,0.9l-0.15,0.75l-0.25,0.9l-0.05,0.1l-0.25,0.75
		l-0.05,0.1l-0.301,0.75l-0.05,0.05l-0.399,0.75v0.05c-1.834,2.933-4.5,4.417-8,4.45c3.267-2.667,5.033-5.833,5.3-9.5
		C233.684,130.3,232.267,126.883,229.2,123.65z"/>
	<path style="fill-rule:evenodd;clip-rule:evenodd;fill:#4A3645;" d="M214.7,85.9c0.1-1.967-0.5-3.65-1.8-5.05l-1.95-1.45
		c2.333,0,4.116,0.733,5.35,2.2c1.066,1.267,1.55,2.85,1.45,4.75c-0.1,1.833-0.7,3.383-1.8,4.65c-1.2,1.4-2.7,2.033-4.5,1.9
		c-0.367,0-0.7-0.05-1-0.15c1.366-0.333,2.383-1,3.05-2C214.167,89.683,214.566,88.067,214.7,85.9z"/>
	<path style="fill-rule:evenodd;clip-rule:evenodd;fill:#4A3645;" d="M235,172.3c0.4,0.066,0.65,0.134,0.75,0.2l2.1,0.95
		l1.301,0.899l1.6,1.5l1,1.301l1.05,1.8l0.601,1.5l0.55,2.35l0.1,1.95l-0.149,1.7l-0.051,0.1l-0.199,0.851
		c-0.5,1.933-1.483,3.483-2.95,4.649c-1.601,1.267-3.617,1.917-6.05,1.95c3.166-2.167,4.933-5.366,5.3-9.6
		c0.267-3.067-0.55-5.867-2.45-8.4c-1.233-1.634-2.733-3-4.5-4.1h0.45l1.2,0.25L235,172.3z"/>
	<path style="fill-rule:evenodd;clip-rule:evenodd;fill:#4A3645;" d="M174.8,57.95c2.4,0.433,4.417,1.367,6.05,2.8
		c1.5,1.3,2.584,2.917,3.25,4.85v0.05l0.5,2.2l0.101,0.8v1.4L184.6,71.2L184.2,73l-0.8,2.05l-0.851,1.4l-2.05,2.3l-1.45,1.05
		l-1.1,0.65l-2.55,0.95l-1.45,0.3c-0.667,0.133-1.167,0.2-1.5,0.2c1.934-0.833,3.533-2.35,4.8-4.55c1.467-2.533,2.2-5.517,2.2-8.95
		c0-3.233-0.8-5.867-2.4-7.9c-1.1-1.4-2.316-2.3-3.649-2.7L174.8,57.95z"/>
	<path style="fill-rule:evenodd;clip-rule:evenodd;fill:#4A3645;" d="M188.95,158.25c-5.334-16.733-13.417-29.567-24.25-38.5
		c-6.233-5.133-12.5-8.45-18.8-9.95l2.1-0.25c1-0.066,1.733-0.1,2.2-0.1c16.333,0,29.633,7.917,39.899,23.75
		c9.267,14.333,14.2,31.717,14.801,52.149c0.6,20.567-3.45,37.784-12.15,51.65c-9.733,15.5-23.384,22.967-40.95,22.4
		c-0.767,0-1.883-0.067-3.35-0.2l-3-0.351V247.95c4.8-0.033,10.184-0.601,16.149-1.7c15.934-2.934,26.317-12.85,31.15-29.75
		C197.417,200.267,196.15,180.85,188.95,158.25z"/>
	<path style="fill-rule:evenodd;clip-rule:evenodd;fill:#BBA3B1;" d="M219.45,59.4c-1.733-3.533-4.634-7.05-8.7-10.55
		c-8.134-6.967-17.983-10.383-29.55-10.25c-10.667,0.133-22.584-1.45-35.75-4.75v-3.2c6.833,0.667,12.166,0.617,16-0.15
		c4.8-0.933,6.967-2.967,6.5-6.1c-0.467-3.033-2.867-5.95-7.2-8.75c-3.866-2.467-8.967-4.683-15.3-6.65V4
		c5.833,0.967,11.166,2.433,16,4.4c19.399,8,35.233,18.817,47.5,32.45c4.166,4.6,7.166,9.066,9,13.4
		C218.884,56.45,219.384,58.167,219.45,59.4z"/>
	<path style="fill-rule:evenodd;clip-rule:evenodd;fill:#5A4053;" d="M145.45,282.55V269.65c9.8,1.433,21.967,1.85,36.5,1.25
		c12.533-0.467,24.35-3.517,35.45-9.15c8.733-4.434,16.783-10.316,24.149-17.65l-4.399,8.95l-5.25,8.351l-4.2,5.449l-3.05,3.351
		c-11.733,6.133-24.684,10.133-38.851,12C174.066,283.733,160.616,283.85,145.45,282.55z"/>
	<path style="fill-rule:evenodd;clip-rule:evenodd;fill:#4A3645;" d="M145.45,292.8v-10.25c15.166,1.3,28.616,1.184,40.35-0.35
		c14.167-1.867,27.117-5.867,38.851-12c-5.601,5.866-11.851,10.5-18.75,13.899l-2.65,1.25l-2.85,1.15l-0.301,0.15
		c-2.166,0.8-4.1,1.433-5.8,1.899l-0.6,0.15c-0.7,0.233-1.467,0.434-2.3,0.6l-3.051,0.65l-0.25,0.1l-3,0.5l-0.55,0.05l-0.399,0.101
		l-3.25,0.35C168.9,292.283,157.083,292.866,145.45,292.8z"/>
	<path style="fill-rule:evenodd;clip-rule:evenodd;fill:#6B4B62;" d="M235.95,78.55H236c1.233,2.267,2.1,6.784,2.6,13.55
		c0.233,3.4,0.351,6.566,0.351,9.5c-1.134,0.433-3.134,1.1-6,2c-1.8,0.533-4.9,1.367-9.3,2.5l-6.051,1.5l4.301-1.65
		c3.3-1.467,5.983-3.034,8.05-4.7c2.1-1.667,3.733-5.95,4.899-12.85L235.95,78.55z"/>
	<path style="fill-rule:evenodd;clip-rule:evenodd;fill:#BBA3B1;" d="M235.45,109.4c-2.066-0.633-4.351-0.983-6.851-1.05
		l-3.149,0.05l13.5-6.8l1.95,2.25c2.166,2.566,4.066,5.217,5.699,7.95c2.301,3.9,3.7,7.45,4.2,10.65
		c-1.899-2.1-3.916-4.15-6.05-6.15C240.583,112.333,237.483,110.033,235.45,109.4z"/>
	<path style="fill-rule:evenodd;clip-rule:evenodd;fill:#BBA3B1;" d="M223.45,167.4c4.333-2.601,9.066-3.517,14.2-2.75
		c5.833,0.899,9.433,3.983,10.8,9.25c1.267,4.8,0.733,10.066-1.601,15.8c-1.166,2.899-2.466,5.3-3.899,7.2
		c1.333-2.834,2.416-6,3.25-9.5c1.666-7,1.25-12.167-1.25-15.5c-2.5-3.334-6.834-5.084-13-5.25L223.45,167.4z"/>
	<path style="fill-rule:evenodd;clip-rule:evenodd;fill:#9F7C92;" d="M165.95,96.6c4.833,4.033,9.666,7.467,14.5,10.3
		c-1.834-0.833-4.417-1.733-7.75-2.7c-6.667-1.9-13.75-3.167-21.25-3.8c-1.934-0.133-3.934-0.05-6,0.25V76.6l0.5-1.7
		c1.866-6.033,5.017-11.6,9.45-16.7c2.199-2.534,4.216-4.467,6.05-5.8c-1.667,1.434-3.334,3.45-5,6.05
		c-3.334,5.267-5,10.917-5,16.95S156.283,88.5,165.95,96.6z"/>
	<path style="fill-rule:evenodd;clip-rule:evenodd;fill:#5A4053;" d="M220.25,227.15c2.434-2.334,4.167-4.75,5.2-7.25
		s1.017-6.584-0.05-12.25l-1.95-7.75l3.25,6.199c2.5,3.9,4.583,5.334,6.25,4.301c2.666-1.667,6.5-4.334,11.5-8
		c-2.733,4.166-5.934,8.433-9.601,12.8c-7.333,8.767-13.3,13.666-17.899,14.7C217.95,229.233,219.05,228.316,220.25,227.15z"/>
	<path style="fill-rule:evenodd;clip-rule:evenodd;fill:#9F7C92;" d="M190.95,74.4c1.033-2.5,0.934-6-0.3-10.5l-2.2-6l3.3,5.4
		c2.767,3.833,5.5,6.367,8.2,7.6c2.7,1.267,6.017,2.15,9.95,2.65c1.966,0.233,3.649,0.35,5.05,0.35
		c-1.233,0.167-2.667,0.434-4.3,0.8c-3.267,0.767-5.834,1.667-7.7,2.7c-1.634,0.9-2.217,3.717-1.75,8.45
		c0.3,2.833,0.934,6.117,1.899,9.85c-1.566-5.167-3.616-8.767-6.149-10.8c-1.867-1.467-4.934-2.066-9.2-1.8l-5.8,0.8l3.55-2.5
		C188.1,79.233,189.917,76.9,190.95,74.4z"/>
</g>
</svg>
