<?xml version="1.0" encoding="iso-8859-1"?>
<!-- Generator: Adobe Illustrator 15.1.0, SVG Export Plug-In . SVG Version: 6.00 Build 0)  -->
<!DOCTYPE svg PUBLIC "-//W3C//DTD SVG 1.1//EN" "http://www.w3.org/Graphics/SVG/1.1/DTD/svg11.dtd">
<svg version="1.1" id="Isolation_Mode" xmlns="http://www.w3.org/2000/svg" xmlns:xlink="http://www.w3.org/1999/xlink" x="0px"
	 y="0px" width="102.35px" height="146px" viewBox="0 0 102.35 146" style="enable-background:new 0 0 102.35 146;"
	 xml:space="preserve">
<g>
	<g>
		<path style="fill-rule:evenodd;clip-rule:evenodd;fill:#357762;" d="M32.4,53.35c1.333-1.9,3.667-3.267,7-4.1
			c3.333-0.833,6-0.75,8,0.25c1,0.5,1.667,1.083,2,1.75c1.667,11.8,3.633,23.717,5.9,35.75c4.566,24.134,8.384,36.884,11.45,38.25
			c3.033,1.4,5.384,1.05,7.05-1.05L75.4,120.6L76.6,122.7c1.067,1.6,2.334,2.95,3.801,4.05c4.666,3.566,10.333,3.967,17,1.2
			c-1.867,3.2-4.301,6.35-7.301,9.45c-6,6.199-11.783,9.05-17.35,8.55c-12.5-1.134-23.133-16.467-31.9-46
			c-4.4-14.767-7.55-29.434-9.45-44C31.4,55.183,31.733,54.317,32.4,53.35z"/>
		<g>
			<path style="fill-rule:evenodd;clip-rule:evenodd;fill:#206652;" d="M31.4,55.95c0-0.767,0.333-1.617,1-2.55
				c1.3-1.867,3.583-3.233,6.85-4.1c1.1,10.467,2.65,21.1,4.65,31.9c3.6,19.566,7.75,33.783,12.45,42.649
				c5.301,10,10.684,15.284,16.15,15.851c3.7,0.366,7.366-1.467,11-5.5c1.267-1.467,2.45-3,3.55-4.601
				c3.167,0.434,6.584-0.1,10.25-1.6h0.05c-2.1,3.5-4.683,6.8-7.75,9.9c-5.833,5.866-11.449,8.55-16.85,8.05
				c-12.5-1.134-23.133-16.467-31.9-46C36.45,85.184,33.3,70.517,31.4,55.95z"/>
		</g>
		<path style="fill-rule:evenodd;clip-rule:evenodd;fill:#254B3F;" d="M75.15,129.25c-1.9-2.434-2.5-5.45-1.801-9.05
			c0.634-3.367,2.084-5.934,4.351-7.7c1.633-1.267,5.767-0.65,12.399,1.85c6.9,2.567,10.817,5.367,11.75,8.4
			c0.867,2.8,0.034,5.75-2.5,8.85c-1.366,1.634-2.883,2.917-4.55,3.851c-1.533,0.833-2.934,1.25-4.2,1.25
			c-2.699,0-4.916-0.283-6.649-0.851C80.684,134.75,77.75,132.55,75.15,129.25z"/>
		<path style="fill-rule:evenodd;clip-rule:evenodd;fill:#24463B;" d="M84.95,119.25c2.566-1.566,5.733-2.583,9.5-3.05
			c4.267,2.233,6.733,4.416,7.399,6.55c0.867,2.8,0.034,5.75-2.5,8.85c-1.366,1.634-2.883,2.917-4.55,3.851
			c-1.533,0.833-2.934,1.25-4.2,1.25c-3.3,0-6.033-0.483-8.199-1.45c0.767-1.7,1.25-3.116,1.449-4.25
			c0.134-0.833-0.449-1.917-1.75-3.25L80.15,126C80.417,123.3,82.017,121.05,84.95,119.25z"/>
		<path style="fill-rule:evenodd;clip-rule:evenodd;fill:#40695C;" d="M75,118.2c-0.1-2.601,0.884-4.584,2.95-5.95
			c1.733-1.134,3.934-1.6,6.6-1.4c2.767,0.2,5.867,1.117,9.3,2.75c3.801,1.834,6.351,4.334,7.65,7.5
			c1.167,2.767,1.116,4.817-0.15,6.15c-1.366,1.434-3.783,2.25-7.25,2.45c-4.233,0.233-8.449-0.834-12.649-3.2
			C77.283,124.167,75.134,121.4,75,118.2z"/>
		
			<linearGradient id="SVGID_1_" gradientUnits="userSpaceOnUse" x1="83.5605" y1="-119.4277" x2="95.6316" y2="-119.4277" gradientTransform="matrix(-0.2837 0.9589 -0.9589 -0.2837 1.950860e-004 8.237362e-005)">
			<stop  offset="0" style="stop-color:#893342"/>
			<stop  offset="1" style="stop-color:#2D1D1E"/>
		</linearGradient>
		<path style="fill-rule:evenodd;clip-rule:evenodd;fill:url(#SVGID_1_);" d="M80.95,123.25c-2.267-1.5-3.45-3.2-3.55-5.1
			c-0.101-1.301,0.25-2.4,1.05-3.301c1.8-2.066,4.5-2.816,8.1-2.25c2.867,0.434,5.75,1.567,8.65,3.4c2.3,1.434,3.883,3,4.75,4.7
			c0.866,1.767,0.783,3.283-0.25,4.55c-1.267,1.566-4.066,2.083-8.4,1.55C87.134,126.267,83.684,125.083,80.95,123.25z"/>
		<path style="fill-rule:evenodd;clip-rule:evenodd;fill:#5B907C;" d="M45,67.35c1.467,0.767,2.817,1.083,4.05,0.95
			c0.633-0.066,1.117-0.216,1.45-0.45l1.3,7.65c1.101,6.134,2.167,11.8,3.2,17c1.667,8.333,4.384,18.616,8.15,30.85
			c-0.301-0.733-0.634-1.466-1-2.199c-0.767-1.4-1.367-2-1.801-1.801c-0.566,0.301-0.517,1.75,0.15,4.351
			c0.333,1.3,0.717,2.566,1.15,3.8c-1.067-2.3-2.267-5.033-3.601-8.2c-2.666-6.333-4.633-11.649-5.899-15.95
			c-1.234-4.3-2.8-11.6-4.7-21.899L45,67.35z"/>
		<path style="fill-rule:evenodd;clip-rule:evenodd;fill:#295648;" d="M36,67.2l1.65-0.35L41.5,86.7
			c3.067,14.366,5.85,24.366,8.35,30c2.966,6.7,6.55,12.366,10.75,17c4.134,4.6,8.051,7.316,11.75,8.149
			c3.034,0.7,5.617,0.067,7.75-1.899l2.25-3.101l0.601,0.5c0.467,0.367,0.866,0.584,1.2,0.65c0.566,0.134,1.683,0.033,3.35-0.3
			l-2.85,2.75c-2.267,1.967-4.367,3.267-6.301,3.899c-2.533,0.801-5.199,0.784-8-0.05c-3.166-0.934-6.166-2.866-9-5.8
			c-2.933-3-5.866-7.25-8.8-12.75c-2.8-5.267-5.316-11.116-7.55-17.55C43.2,103,41.15,94.6,38.85,83L36,67.2z"/>
		<path style="fill-rule:evenodd;clip-rule:evenodd;fill:#1F362F;" d="M90,130.2c1.033,0.467,2.517,0.55,4.45,0.25
			c0.967-0.134,1.816-0.334,2.55-0.601l-0.8,1.95c-0.834,1.4-1.9,2.417-3.2,3.05c-1.333,0.634-2.866,0.934-4.6,0.9l-2.25-0.25
			c0.8-0.533,1.366-0.967,1.699-1.3C88.184,133.866,88.9,132.533,90,130.2z"/>
	</g>
	<g>
		<path style="fill-rule:evenodd;clip-rule:evenodd;fill:#A9AC5D;" d="M0,63.45c2.5-0.867,5.3-1.617,8.4-2.25
			c6.2-1.233,10.85-1.233,13.95,0c3.1,1.267,4.783,3.8,5.05,7.6c0.133,1.9-0.033,3.667-0.5,5.3c-0.9-1.3-2.183-2.633-3.85-4
			c-3.333-2.7-6.9-4.15-10.7-4.35c-2.9-0.133-6.7-0.383-11.4-0.75L0,63.45z"/>
		<path style="fill-rule:evenodd;clip-rule:evenodd;fill:#8E9344;" d="M14.9,56.05c-0.1,0.3-2.517,1.517-7.25,3.65
			c0.8-1.5,1-2.967,0.6-4.4c-0.233-0.867-0.767-1.867-1.6-3L5.5,50.9l-1.25-2.5C11.45,53.2,15,55.75,14.9,56.05z"/>
		<path style="fill-rule:evenodd;clip-rule:evenodd;fill:#C7CA5D;" d="M74.4,51.9l-0.5,1.15c-6.367,2.633-10.367,4.6-12,5.9
			c-1.601,1.3-3.467,3.216-5.601,5.75L53.95,60c0.033-1,0.2-2.05,0.5-3.15c0.633-2.167,1.6-3.434,2.899-3.8
			C59.483,52.417,65.167,52.033,74.4,51.9z"/>
		<path style="fill-rule:evenodd;clip-rule:evenodd;fill:#ECECCB;" d="M69.75,39.95l-0.85,3.1C68.634,43.283,68.35,43.6,68.05,44
			c-0.566,0.8-0.85,1.633-0.85,2.5c0,1.433,0.616,3.05,1.85,4.85L61,49.1c0.733-1.367,1.65-2.783,2.75-4.25
			C65.917,41.95,67.917,40.317,69.75,39.95z"/>
		<path style="fill-rule:evenodd;clip-rule:evenodd;fill:#DEDFA2;" d="M43.1,36.8c1.033,0.534,4.683,1.45,10.95,2.75
			c3.233,0.7,6.816,0.967,10.75,0.8c1.967-0.067,3.617-0.2,4.95-0.4c-0.733,0.633-1.467,1.367-2.2,2.2
			c-1.467,1.633-2.133,2.883-2,3.75c0.233,1.633,1.783,3.133,4.65,4.5c1.434,0.667,2.833,1.167,4.2,1.5
			c-4.167,0.5-8.084,1.533-11.75,3.1c-2.467,1.067-4.65,2.217-6.551,3.45c-0.966,0.633-1.683,1.15-2.149,1.55
			c-1.267-0.333-2.834-0.633-4.7-0.9c-3.733-0.6-7.05-0.817-9.95-0.65c-2.867,0.167-6.033,2.267-9.5,6.3
			c-1.733,2.033-3.183,4.033-4.35,6c-0.267-0.567-0.65-1.217-1.15-1.95c-1.066-1.466-2.267-2.583-3.6-3.35
			c-2.534-1.367-6.75-2.117-12.65-2.25C5.117,63.167,2.433,63.25,0,63.45c1.433-0.733,2.917-1.6,4.45-2.6
			c3.066-2,4.833-3.65,5.3-4.95c0.467-1.267-0.3-2.9-2.3-4.9l-3.2-2.6c4.5,0.5,9.067-0.683,13.7-3.55c2.3-1.467,4.15-2.967,5.55-4.5
			l3.1,1.1c2.467,0.7,4.733,0.966,6.8,0.8c2.1-0.133,4.35-1.083,6.75-2.85C41.35,38.533,42.333,37.667,43.1,36.8z"/>
		
			<linearGradient id="SVGID_2_" gradientUnits="userSpaceOnUse" x1="46.6353" y1="-56.9907" x2="50.7621" y2="-56.9907" gradientTransform="matrix(0.0303 0.9995 -0.9995 0.0303 -1.811758e-004 -2.910085e-004)">
			<stop  offset="0" style="stop-color:#893342"/>
			<stop  offset="1" style="stop-color:#2D1D1E"/>
		</linearGradient>
		<path style="fill-rule:evenodd;clip-rule:evenodd;fill:url(#SVGID_2_);" d="M58.2,44.85c2.399,0,3.666,0.683,3.8,2.05
			s-1.134,1.983-3.8,1.85c-2.533-0.1-3.617-0.783-3.25-2.05C55.35,45.467,56.434,44.85,58.2,44.85z"/>
		
			<linearGradient id="SVGID_3_" gradientUnits="userSpaceOnUse" x1="51.3359" y1="-31.2627" x2="55.7009" y2="-31.2627" gradientTransform="matrix(0.1718 0.9851 -0.9851 0.1718 -2.293140e-004 3.353506e-004)">
			<stop  offset="0" style="stop-color:#893342"/>
			<stop  offset="1" style="stop-color:#2D1D1E"/>
		</linearGradient>
		<path style="fill-rule:evenodd;clip-rule:evenodd;fill:url(#SVGID_3_);" d="M34.3,48.05c0.367-1.466,2.083-2.45,5.15-2.95
			c3.966-0.6,6.083-0.1,6.35,1.5c0.267,1.566-1.716,2.566-5.95,3C35.783,50.033,33.933,49.517,34.3,48.05z"/>
		
			<linearGradient id="SVGID_4_" gradientUnits="userSpaceOnUse" x1="57.7715" y1="-10.6582" x2="62.4405" y2="-10.6582" gradientTransform="matrix(0.1713 0.9852 -0.9852 0.1713 -7.587671e-005 7.344782e-005)">
			<stop  offset="0" style="stop-color:#893342"/>
			<stop  offset="1" style="stop-color:#2D1D1E"/>
		</linearGradient>
		<path style="fill-rule:evenodd;clip-rule:evenodd;fill:url(#SVGID_4_);" d="M20.2,55.25c2.733-0.8,4.433-0.45,5.1,1.05
			c0.667,1.5-0.733,2.6-4.2,3.3c-3.367,0.7-4.967,0.316-4.8-1.15C16.467,57.017,17.767,55.95,20.2,55.25z"/>
		<path style="fill-rule:evenodd;clip-rule:evenodd;fill:#A2A550;" d="M25.45,70.75c0.633-1.667,1.617-3.433,2.95-5.3
			c2.667-3.767,5.7-6.184,9.1-7.25c1.8-0.567,5.083-0.434,9.85,0.4c2.4,0.4,4.6,0.867,6.6,1.4l2.35,4.7
			c-2.166-0.667-4.566-1.267-7.2-1.8c-5.233-1.033-8.95-1.233-11.15-0.6c-2.2,0.633-4.7,2.784-7.5,6.45
			c-1.4,1.867-2.583,3.65-3.55,5.35L25.45,70.75z"/>
		<path style="fill-rule:evenodd;clip-rule:evenodd;fill:#7F3342;" d="M44.75,47.8c-0.9,0.733-2.483,1.217-4.75,1.45
			c-3.4,0.333-5.15-0.05-5.25-1.15c-0.567-3-1.133-6.317-1.7-9.95c-1.167-7.267-1.75-12.5-1.75-15.7c0-3.2,0.684-7.9,2.05-14.1
			c0.667-3.1,1.333-5.883,2-8.35c-0.434,2.867-0.783,6-1.05,9.4c-0.5,6.767-0.267,11.467,0.7,14.1
			c1.333,3.667,4.817,11.417,10.45,23.25C45.45,47.083,45.217,47.433,44.75,47.8z"/>
		<path style="fill-rule:evenodd;clip-rule:evenodd;fill:#357762;" d="M14.5,43.7c-0.333-2.633-0.367-7.784-0.1-15.45
			c0.1-3.833,0.25-7.417,0.45-10.75c0.433,9.467,1.066,17.05,1.9,22.75c0.533,3.6,2.05,7.35,4.55,11.25
			c1.267,1.933,2.483,3.517,3.65,4.75c0.167,0.833-0.184,1.5-1.05,2c-0.5,0.267-1.55,0.6-3.15,1c-1.467,0.367-2.583,0.4-3.35,0.1
			l-0.75-0.55C15.75,52.9,15.033,47.867,14.5,43.7z"/>
		<path style="fill-rule:evenodd;clip-rule:evenodd;fill:#D15869;" d="M65.45,17.4c-0.8,1.434-1.634,3.1-2.5,5
			c-1.767,3.8-2.816,6.917-3.15,9.35c-0.333,2.433-0.1,5.683,0.7,9.75c0.366,2.033,0.783,3.817,1.25,5.35
			c0.033,0.233-0.05,0.483-0.25,0.75c-0.4,0.5-1.116,0.767-2.15,0.8c-2.267,0.167-3.666-0.267-4.199-1.3c0.1-2,0.333-4.3,0.699-6.9
			c0.7-5.133,1.684-9.1,2.95-11.9c1.267-2.767,2.75-5.417,4.45-7.95C64.116,19.083,64.85,18.1,65.45,17.4z"/>
		<g>
			<path style="fill-rule:evenodd;clip-rule:evenodd;fill:#682D38;" d="M33.45,9.8c-0.667,5.133-0.767,9.767-0.3,13.9
				c0.7,6.066,1.667,11.433,2.9,16.1c1.333,5,2.6,7.733,3.8,8.2c1.233,0.5,2.417,0.667,3.55,0.5c-0.833,0.3-1.967,0.55-3.4,0.75
				c-3.4,0.333-5.15-0.05-5.25-1.15c-0.567-3-1.133-6.317-1.7-9.95c-1.167-7.267-1.75-12.5-1.75-15.7
				c0-4.367,1.175-11.192,3.525-20.475C34.258,4.508,33.8,7.117,33.45,9.8z"/>
		</g>
		<g>
			<path style="fill-rule:evenodd;clip-rule:evenodd;fill:#206652;" d="M14.5,43.7c-0.333-2.633-0.367-7.784-0.1-15.45
				c0.1-3.833,0.25-7.417,0.45-10.75c-0.1,3.033-0.15,6.333-0.15,9.9c0,7.1,0.316,11.967,0.95,14.6c0.867,3.7,1.783,7.017,2.75,9.95
				c1.133,3.466,2.05,5.433,2.75,5.9c0.6,0.4,1.217,0.667,1.85,0.8c-0.2,0.067-0.95,0.267-2.25,0.6c-1.467,0.367-2.583,0.4-3.35,0.1
				l-0.75-0.55C15.75,52.9,15.033,47.867,14.5,43.7z"/>
		</g>
		<g>
			<path style="fill-rule:evenodd;clip-rule:evenodd;fill:#CA3654;" d="M65.45,17.4c-1.066,1.467-2.167,3.267-3.3,5.4
				c-2.267,4.3-3.534,8.15-3.801,11.55c-0.333,3.9-0.416,7.083-0.25,9.55c0.167,2.3,0.517,3.617,1.051,3.95
				c0.533,0.333,1.083,0.417,1.649,0.25c-0.467,0.2-0.95,0.3-1.45,0.3c-2.267,0.167-3.666-0.267-4.199-1.3
				c0.1-2,0.333-4.3,0.699-6.9c0.7-5.133,1.684-9.1,2.95-11.9c1.267-2.767,2.75-5.417,4.45-7.95
				C64.116,19.083,64.85,18.1,65.45,17.4z"/>
		</g>
		<path style="fill-rule:evenodd;clip-rule:evenodd;fill:#5A2932;" d="M36.4,44.8c0.5,1.233,1.233,2.517,2.2,3.85
			c-0.3,0.1-0.65,0.15-1.05,0.15c-0.767,0.034-1.333-0.183-1.7-0.65c-0.434-0.5-1.2-3.717-2.3-9.65
			c-1.066-5.733-1.667-9.633-1.8-11.7c-0.233-3.4-0.033-6.816,0.6-10.25c-0.267,3.333-0.133,6.917,0.4,10.75
			c0.433,2.9,1.05,6.3,1.85,10.2C35.433,41.433,36.033,43.867,36.4,44.8z"/>
		<path style="fill-rule:evenodd;clip-rule:evenodd;fill:#AC3B4E;" d="M58.1,47.65c-1.233,0.267-2.05,0.017-2.449-0.75
			c-0.2-0.4-0.067-2.233,0.399-5.5c0.434-3.066,0.917-5.7,1.45-7.9c0.434-1.733,0.917-3.2,1.45-4.4l0.649-1.25
			c-0.899,2.5-1.633,5.9-2.199,10.2c-0.367,2.7-0.367,5.1,0,7.2C57.6,46.317,57.833,47.117,58.1,47.65z"/>
		<path style="fill-rule:evenodd;clip-rule:evenodd;fill:#295648;" d="M14.45,33.9l0.5,5.85c0.367,3.4,1.017,7.25,1.95,11.55
			c0.533,2.4,1.483,4.817,2.85,7.25c-0.233,0.067-0.517,0.117-0.85,0.15c-0.633,0-1.1-0.15-1.4-0.45s-0.683-1.95-1.15-4.95
			c-0.5-3.7-0.883-6.35-1.15-7.95c-0.333-1.967-0.55-4.467-0.65-7.5L14.45,33.9z"/>
		<path style="fill-rule:evenodd;clip-rule:evenodd;fill:#5B907C;" d="M15.15,28.65l1.2,11.5c0.233,1.867,1.033,4.383,2.4,7.55
			c0.7,1.633,1.417,3.25,2.15,4.85c0.167,0.534,0.167,0.967,0,1.3c-0.2,0.4-0.533,0.383-1-0.05c-0.5-0.433-1.183-2.167-2.05-5.2
			c-0.8-2.7-1.434-5.217-1.9-7.55c-0.333-1.733-0.567-4.316-0.7-7.75L15.15,28.65z"/>
		<path style="fill-rule:evenodd;clip-rule:evenodd;fill:#9B3A4C;" d="M33.7,10.55c-0.067,4.833,0.066,8.9,0.4,12.2
			c0.2,1.967,1.25,5.05,3.15,9.25c0.967,2.133,2.017,4.433,3.15,6.9c0.267,0.934,0.267,1.7,0,2.3c-0.3,0.667-0.8,0.883-1.5,0.65
			c-0.7-0.233-1.65-2.417-2.85-6.55c-1.2-4.033-1.966-7.6-2.3-10.7C33.35,20.6,33.333,15.917,33.7,10.55z"/>
		<path style="fill-rule:evenodd;clip-rule:evenodd;fill:#EA878B;" d="M58.6,34.75c0.2-2.033,0.817-4.45,1.851-7.25l0.825-2
			c-0.403,1.076-0.778,2.276-1.125,3.6c-0.567,2.033-0.9,3.683-1,4.95c-0.034,0.567,0.116,2.5,0.449,5.8
			c0.301,2.6,0.233,3.867-0.199,3.8c-0.534-0.033-0.867-0.95-1-2.75C58.267,39.233,58.333,37.183,58.6,34.75z"/>
	</g>
</g>
</svg>
