<?xml version="1.0" encoding="iso-8859-1"?>
<!-- Generator: Adobe Illustrator 15.1.0, SVG Export Plug-In . SVG Version: 6.00 Build 0)  -->
<!DOCTYPE svg PUBLIC "-//W3C//DTD SVG 1.1//EN" "http://www.w3.org/Graphics/SVG/1.1/DTD/svg11.dtd">
<svg version="1.1" id="buildings" xmlns="http://www.w3.org/2000/svg" xmlns:xlink="http://www.w3.org/1999/xlink" x="0px" y="0px"
	 width="294px" height="90.9px" viewBox="0 0 294 90.9" style="enable-background:new 0 0 294 90.9;" xml:space="preserve">
<g>
	<path style="fill-rule:evenodd;clip-rule:evenodd;fill:#BFD7AE;" d="M289.4,42.25c-4.367,17.366-12.284,29.116-23.75,35.25
		c-15,8.066-37.534,11.65-67.601,10.75c-9.399-0.267-19-0.967-28.8-2.1L157.4,84.5c-17.167,2.667-35.55,4.55-55.15,5.65
		c-39.2,2.199-64.9-0.601-77.1-8.4C15.95,75.917,9.067,66.533,4.5,53.6C0.4,42.067-0.883,31.117,0.65,20.75
		C1.383,15.617,4.683,11.7,10.55,9c5.4-2.5,11.1-3.25,17.1-2.25c3.733,0.633,6.167,2.033,7.3,4.2c1.566,3.066,1.05,7.917-1.55,14.55
		c-2.033,5.267-0.867,10.6,3.5,16c5,6.233,13.167,10.566,24.5,13c13.667,2.967,28.017,4.95,43.05,5.95
		c12.466,0.8,29.95,1.149,52.45,1.05c7.433-0.033,19.533-0.934,36.3-2.7c15.934-1.666,26.217-3.033,30.85-4.1
		c18.233-4.167,30.066-11.184,35.5-21.05c1.867-3.433,3.15-7.55,3.851-12.35c0.466-5.1,0.883-8.7,1.25-10.8c0.5-3,2.1-5.4,4.8-7.2
		c3.366-2.3,8.184-3.4,14.45-3.3c3.199,0.067,5.716,0.767,7.55,2.1c1.899,1.367,2.733,3.167,2.5,5.4
		c-0.4,5.767-0.8,10.683-1.2,14.75C291.983,29.783,290.866,36.45,289.4,42.25z"/>
	<path style="fill-rule:evenodd;clip-rule:evenodd;fill:#87AA75;" d="M124.35,86.9c-23.333,2.166-41.983,3.033-55.95,2.6
		c-15.433-0.467-27.7-2.783-36.8-6.95c-7.133-3.3-13.2-8.316-18.2-15.05C8.267,60.634,4.933,51,3.4,38.6
		C2.633,32.367,2.383,26.833,2.65,22l1,7.15c0.934,4.567,2.017,6.434,3.25,5.6c1.267-0.833,2.483-3.117,3.65-6.85l1.35-5.4
		c-0.433,7.033-0.083,14.483,1.05,22.35c2.233,15.7,7.216,25.583,14.95,29.65c9.733,5.134,19.633,8.316,29.7,9.55
		c3.967,0.467,12.816,0.7,26.55,0.7c13.167,0,36.833-0.417,71-1.25C146.283,84.667,136.017,85.8,124.35,86.9z"/>
	<path style="fill-rule:evenodd;clip-rule:evenodd;fill:#A8CA92;" d="M275.65,53c-0.934,1.866-3.417,5.1-7.45,9.7l-5.8,6.3l1.3-0.65
		c1.267-0.699,3-1.733,5.2-3.1c3.5-2.167,8.166-6.167,14-12c-0.5,1.967-1.851,4.267-4.051,6.9c-4.366,5.3-10.767,9.666-19.199,13.1
		c-8.634,3.533-20.067,5.816-34.301,6.85c-5.966,0.434-15.033,0.65-27.199,0.65c-5.9,0-14.384,0.05-25.45,0.15
		c-11.9,0.133-20.084,0.25-24.55,0.35c-11.067,0.634-20.917,1.184-29.55,1.65c-16.633,0.866-28.533,1.149-35.7,0.85
		c-9.066-0.366-19.083-1.566-30.05-3.6c-11.233-2.101-19.3-4.317-24.2-6.65c-4.167-1.967-7.083-5.9-8.75-11.8
		c-0.533-1.834-0.9-3.75-1.1-5.75l-0.15-2.45l2.45,5.65c2.233,4.199,4.917,7.399,8.05,9.6c3.467,2.434,9.684,4.667,18.65,6.7
		c7.567,1.7,16.017,3.05,25.35,4.05c6.567,0.7,23.517,0.3,50.85-1.2c30.6-1.7,46.233-2.55,46.9-2.55
		c12.767,0,22.149-0.066,28.149-0.2c14.733-0.3,26.851-0.983,36.351-2.05c9.267-1.033,18.75-4.767,28.449-11.2
		C268.717,59.1,272.65,56,275.65,53z"/>
	<path style="fill-rule:evenodd;clip-rule:evenodd;fill:#87AA75;" d="M266.1,72.7c5.5-2.434,9.434-4.75,11.801-6.95
		c-1.567,2.7-4.801,5.583-9.7,8.65c-9.8,6.133-22.983,10.083-39.55,11.85c-8.034,0.866-20.184,0.884-36.45,0.05
		c-14.867-1.033-22.55-1.55-23.05-1.55l21-0.25l-23-2.75l22.35,0.35c16.5,0.134,28.717-0.066,36.65-0.6
		C241.783,80.467,255.1,77.533,266.1,72.7z"/>
	<path style="fill-rule:evenodd;clip-rule:evenodd;fill:#DBE7D1;" d="M248.35,46.55c2.9-1.767,5.167-3.367,6.801-4.8
		c-1.801,2.333-4.167,4.767-7.101,7.3c-5.934,5.101-11.816,8.167-17.649,9.2c-6.9,1.233-18.051,2.8-33.45,4.7
		c-15.2,1.899-24.717,2.916-28.55,3.05c-11.334,0.366-26.45,0.333-45.351-0.1c-28.566-0.7-48.566-2.384-60-5.051
		C49.217,57.65,40.033,54.267,35.5,50.7c-4.033-3.167-6.567-8.4-7.6-15.7c-0.867-6.167-0.4-11.283,1.4-15.35
		c1.434-3.267,2.967-4.9,4.6-4.9c0.934,0,1.167,0.917,0.7,2.75c-0.2,0.933-0.517,1.85-0.95,2.75c-2.133,4.033-2.767,8.467-1.9,13.3
		c1.7,9.667,10,16.566,24.9,20.7c14.133,3.934,35.533,6.566,64.2,7.9c11.167,0.5,26.85,0.8,47.05,0.899
		c6.233,0,15.966-0.816,29.199-2.45c14.733-1.833,25.667-3.783,32.801-5.85C236.366,52.884,242.517,50.15,248.35,46.55z"/>
	<path style="fill-rule:evenodd;clip-rule:evenodd;fill:#DBE7D1;" d="M286.85,1.3c2.667,0.567,4.601,1.717,5.801,3.45
		c0.633,0.933,0.199,6.633-1.301,17.1c-0.767,5.233-1.583,10.367-2.449,15.4l-0.25-5.5l-4.25,6.5c1.833-11.2,3.25-19.45,4.25-24.75
		c0.833-4.467,0.166-7.9-2-10.3c-0.667-0.733-1.45-1.317-2.351-1.75L283.15,1L286.85,1.3z"/>
</g>
</svg>
