<?xml version="1.0" encoding="iso-8859-1"?>
<!-- Generator: Adobe Illustrator 15.1.0, SVG Export Plug-In . SVG Version: 6.00 Build 0)  -->
<!DOCTYPE svg PUBLIC "-//W3C//DTD SVG 1.1//EN" "http://www.w3.org/Graphics/SVG/1.1/DTD/svg11.dtd">
<svg version="1.1" id="buildings" xmlns="http://www.w3.org/2000/svg" xmlns:xlink="http://www.w3.org/1999/xlink" x="0px" y="0px"
	 width="174.7px" height="187.1px" viewBox="0 0 174.7 187.1" style="enable-background:new 0 0 174.7 187.1;" xml:space="preserve"
	>
<g>
	<g>
		<g>
			
				<linearGradient id="SVGID_1_" gradientUnits="userSpaceOnUse" x1="63.5596" y1="73.2236" x2="177.015" y2="73.2236" gradientTransform="matrix(0.972 0.2351 -0.2351 0.972 2.648830e-004 -8.010864e-005)">
				<stop  offset="0" style="stop-color:#E35A69"/>
				<stop  offset="1" style="stop-color:#EA878B"/>
			</linearGradient>
			<polygon style="fill-rule:evenodd;clip-rule:evenodd;fill:url(#SVGID_1_);" points="166,97.3 157.6,103.45 145.4,126.15 
				143.65,146.15 113.2,186.9 96.5,187.1 61.75,180.75 27.45,157.2 9.5,153.6 1.1,133.35 3,120.2 14.3,64.95 32.7,39.2 49.25,27.9 
				62.6,0 98.15,12.3 100.2,28.95 114.65,21.95 142.05,40.55 141.35,53.75 150.1,50.8 174.7,68.5 			"/>
			<polygon style="fill-rule:evenodd;clip-rule:evenodd;fill:#CE4B5D;" points="114.65,21.95 129.75,32.45 119.5,39.15 115.2,54.05 
				110.65,64.2 98.55,50.4 100.2,28.95 			"/>
			<polygon style="fill-rule:evenodd;clip-rule:evenodd;fill:#CE4B5D;" points="80.45,6.65 73.45,25.2 77.85,51.25 62.7,47.4 
				55.65,35.8 54.8,27.85 62.6,0 			"/>
			<polygon style="fill-rule:evenodd;clip-rule:evenodd;fill:#CE4B5D;" points="150.1,50.8 166.25,62.65 155.65,68.05 147.9,89.75 
				143.2,87.45 135.05,75.35 141.35,53.75 			"/>
			<polygon style="fill-rule:evenodd;clip-rule:evenodd;fill:#893342;" points="110.65,64.2 102.4,54.95 113.05,31.7 132.2,36.6 
				138.15,51.15 129.55,69 122.85,69.1 			"/>
			<polygon style="fill-rule:evenodd;clip-rule:evenodd;fill:#893342;" points="170.65,69.8 164.9,91.6 153.4,92.05 143.2,87.45 
				137.75,78.8 150.15,56.35 161.5,61.25 			"/>
			<polygon style="fill-rule:evenodd;clip-rule:evenodd;fill:#893342;" points="96.85,24 91.65,49.4 77.85,51.25 62.7,47.4 
				55.65,35.8 67.85,7.4 89.75,12.05 			"/>
			<path style="fill-rule:evenodd;clip-rule:evenodd;fill:#F6C79E;" d="M81.55,26.1c2.7,0.833,3.633,2.533,2.8,5.1
				c-0.8,2.566-2.5,3.316-5.1,2.25c-2.433-1.034-3.167-2.684-2.2-4.95C78.017,26.267,79.517,25.467,81.55,26.1z"/>
			<path style="fill-rule:evenodd;clip-rule:evenodd;fill:none;stroke:#FFFFFF;" d="M81.55,26.1c-2.033-0.633-3.533,0.167-4.5,2.4
				c-0.966,2.267-0.233,3.917,2.2,4.95c2.6,1.066,4.3,0.316,5.1-2.25C85.183,28.633,84.25,26.933,81.55,26.1z"/>
			<path style="fill-rule:evenodd;clip-rule:evenodd;fill:#F6C79E;" d="M128.1,50.75c0.367,0.967,0.351,1.933-0.05,2.9
				c-0.934,2.5-2.684,3-5.25,1.5c-2.333-1.367-2.783-2.983-1.35-4.85c1.399-1.8,2.833-2.417,4.3-1.85
				C126.917,48.883,127.7,49.65,128.1,50.75z"/>
			<path style="fill-rule:evenodd;clip-rule:evenodd;fill:none;stroke:#FFFFFF;stroke-width:0.8;" d="M128.1,50.75
				c-0.399-1.1-1.183-1.867-2.35-2.3c-1.467-0.567-2.9,0.05-4.3,1.85c-1.434,1.867-0.983,3.483,1.35,4.85
				c2.566,1.5,4.316,1,5.25-1.5C128.45,52.683,128.467,51.717,128.1,50.75z"/>
			<path style="fill-rule:evenodd;clip-rule:evenodd;fill:#F6C79E;" d="M159.4,72.8c2.066,1.2,2.483,2.767,1.25,4.7
				s-2.817,2.183-4.75,0.75c-1.867-1.367-2.2-2.883-1-4.55C156.134,72.033,157.634,71.733,159.4,72.8z"/>
			<path style="fill-rule:evenodd;clip-rule:evenodd;fill:none;stroke:#FFFFFF;stroke-width:0.8;" d="M159.4,72.8
				c-1.767-1.066-3.267-0.767-4.5,0.9c-1.2,1.667-0.867,3.183,1,4.55c1.933,1.433,3.517,1.183,4.75-0.75S161.467,74,159.4,72.8z"/>
			<polygon style="fill-rule:evenodd;clip-rule:evenodd;fill:#BC4D5A;" points="106.75,72.6 111.6,94.2 107.35,111.35 110.35,120 
				109.05,127.85 112.95,135.35 118.2,141.2 109.65,138.15 103.2,124.15 95.75,115.65 104.6,93.45 			"/>
			<polygon style="fill-rule:evenodd;clip-rule:evenodd;fill:#893342;" points="106.75,72.6 106.45,94.5 102.1,112.6 107.25,121.5 
				105.15,129.5 98.5,124.5 84.85,117.6 86.35,107.45 93.6,107.65 102.15,92.4 			"/>
			<polygon style="fill-rule:evenodd;clip-rule:evenodd;fill:#893342;" points="98.5,124.5 99.9,124.6 105.45,124.55 110.7,135.7 
				118.2,141.2 121.1,136.25 117.15,120.3 122.55,83.3 121.8,103.5 119.35,119.05 122.55,135.65 120.3,146.45 107.45,140.05 
				104.15,131.85 			"/>
			<path style="fill-rule:evenodd;clip-rule:evenodd;fill:#893342;" d="M81.1,132.2l-17,1.649l18.2-3.699l5.75,4.399
				c4.233,3.101,7.434,5.167,9.601,6.2c3.433,1.667,8.583,3.583,15.449,5.75l5.15,15.7l-7.7-13.3c-5.533-2.5-10.267-4.167-14.2-5
				c-2.466-0.534-5.75-2.634-9.85-6.301L81.1,132.2z"/>
			<polygon style="fill-rule:evenodd;clip-rule:evenodd;fill:#893342;" points="96.35,150.5 89.3,147.5 78.3,148.25 88.4,144.2 
				100.25,149.5 95.15,162 			"/>
			<polygon style="fill-rule:evenodd;clip-rule:evenodd;fill:#893342;" points="44.6,46.2 47.8,69.05 51.6,108.9 47.15,131.7 
				38.05,155.65 63.6,177.25 113.2,186.9 96.5,187.1 58.35,182.45 40.55,173.15 27.8,158.6 9.5,153.45 0.95,133.3 3,120.2 
				14.3,64.95 32.7,39.2 49.25,27.9 62.6,0 54.8,27.85 			"/>
			<polygon style="fill-rule:evenodd;clip-rule:evenodd;fill:#BC4D5A;" points="55.05,66.15 78.5,74.3 66.25,116.9 70.9,78.7 			"/>
			<polygon style="fill-rule:evenodd;clip-rule:evenodd;fill:#BC4D5A;" points="148.25,115.65 140.8,115.15 127.35,144.3 
				138.85,109.05 			"/>
			<polygon style="fill-rule:evenodd;clip-rule:evenodd;fill:#652A33;" points="89.75,12.05 96.85,24 91.65,49.4 77.85,51.25 
				87.4,47.35 92.15,24.35 86.9,14.6 67.85,7.4 			"/>
			<polygon style="fill-rule:evenodd;clip-rule:evenodd;fill:#652A33;" points="138.15,51.15 129.55,69 122.85,69.1 128.15,66.85 
				133.9,50.35 130.15,38.35 113.05,31.7 132.2,36.6 			"/>
			<polygon style="fill-rule:evenodd;clip-rule:evenodd;fill:#652A33;" points="170.65,69.8 164.9,91.6 153.4,92.05 162.9,88.85 
				167.9,69.85 159.65,61.6 150.15,56.35 161.5,61.25 			"/>
		</g>
		<polygon style="fill-rule:evenodd;clip-rule:evenodd;fill:#652A33;" points="40.1,41.4 31.05,67.95 39.7,104.85 31.15,152.75 
			55.3,176.05 96.5,187.1 58.35,182.45 40.55,173.15 26.2,157.45 9.5,153.45 0,131.65 14.3,64.95 34.9,41.05 		"/>
		<polygon style="fill-rule:evenodd;clip-rule:evenodd;fill:#4B2329;" points="23.65,99.15 27.05,109.25 18.85,102.45 14.15,108.95 
			13.95,117.25 11,110.9 15.5,98.75 		"/>
		<polygon style="fill-rule:evenodd;clip-rule:evenodd;fill:#652A33;" points="86.4,107.75 89.3,116.7 101.2,123.1 105.15,129.5 
			107.45,140.05 102.8,129.8 98.5,124.5 84.85,117.6 		"/>
		<path style="fill-rule:evenodd;clip-rule:evenodd;fill:#652A33;" d="M82.3,130.15l6.25,4.449c4.5,3.167,7.533,5.217,9.101,6.15
			c2.466,1.533,7.616,3.45,15.449,5.75l5.15,15.7l-6.45-14.65c-9-2.767-14.866-4.95-17.6-6.55c-1.7-1-4.15-2.866-7.35-5.6
			L82.6,131.6l-18.5,2.25L82.3,130.15z"/>
		<polygon style="fill-rule:evenodd;clip-rule:evenodd;fill:#4B2329;" points="9,152 28.6,155.6 41.5,172.15 59.5,181.5 95.8,186.8 
			58.35,182.45 40.55,173.15 26.85,158.1 9.5,153.45 		"/>
		<polygon style="fill-rule:evenodd;clip-rule:evenodd;fill:#EFA9A8;" points="117.8,95.7 118.15,85.2 121.5,85.4 119.75,96.85 
			115.65,104.3 		"/>
		<polygon style="fill-rule:evenodd;clip-rule:evenodd;fill:#EFA9A8;" points="91.7,12.1 97.05,13.8 97.55,18.4 97.25,22.55 
			95.05,17.25 		"/>
		<polygon style="fill-rule:evenodd;clip-rule:evenodd;fill:#EFA9A8;" points="136.25,39.9 140.25,41.95 139.35,50.4 		"/>
		<polygon style="fill-rule:evenodd;clip-rule:evenodd;fill:#EFA9A8;" points="168.45,66.55 173.55,68.65 170.2,77.4 171.85,69.1 		
			"/>
		<polygon style="fill-rule:evenodd;clip-rule:evenodd;fill:#BC4D5A;" points="51.15,142.95 52.7,145.6 54.3,147 58.45,146.35 
			55.25,148 51.3,146.8 		"/>
		<polygon style="fill-rule:evenodd;clip-rule:evenodd;fill:#BC4D5A;" points="107.1,167.95 108.6,170.6 110.25,172 114.4,171.35 
			111.2,173 107.25,171.8 		"/>
		<polygon style="fill-rule:evenodd;clip-rule:evenodd;fill:#BC4D5A;" points="141.2,99.7 142.85,101.1 146.95,100.4 143.8,102.1 
			139.85,100.9 139.7,97.05 		"/>
		<polygon style="fill-rule:evenodd;clip-rule:evenodd;fill:#BC4D5A;" points="86.7,82.65 88.25,85.3 89.85,86.7 94,86.05 
			90.8,87.7 86.85,86.5 		"/>
		<polygon style="fill-rule:evenodd;clip-rule:evenodd;fill:#BC4D5A;" points="57.5,50.75 59.1,52.1 63.25,51.45 60.05,53.1 
			56.15,51.9 55.95,48.05 		"/>
	</g>
	<g>
		<g>
			<path style="fill-rule:evenodd;clip-rule:evenodd;fill:#893342;" d="M65.35,158.75c1.033,1.333,1.066,2.283,0.1,2.85
				c-1.034,0.634-1.75,0.467-2.15-0.5c-0.533-0.767-0.483-1.5,0.15-2.199C64.05,158.167,64.683,158.116,65.35,158.75z"/>
		</g>
	</g>
	<g>
		<g>
			<path style="fill-rule:evenodd;clip-rule:evenodd;fill:#893342;" d="M71.2,145.65c0.367-0.4,0.7-0.467,1-0.2
				c0.3,0.3,0.283,0.583-0.05,0.85c-0.333,0.233-0.633,0.233-0.9,0S70.967,145.85,71.2,145.65z"/>
		</g>
	</g>
	<g>
		<g>
			<path style="fill-rule:evenodd;clip-rule:evenodd;fill:#893342;" d="M70,124.7c-0.633-1.134-0.533-1.851,0.3-2.15
				c0.9-0.366,1.4-0.133,1.5,0.7c0.267,0.566,0.15,1.1-0.35,1.6C70.95,125.384,70.467,125.333,70,124.7z"/>
		</g>
	</g>
	<g>
		<g>
			<path style="fill-rule:evenodd;clip-rule:evenodd;fill:#893342;" d="M56.25,123.15c-0.067-1.367,0.533-2.101,1.8-2.2
				c1.267-0.101,1.784,0.533,1.55,1.899c-0.2,1.267-0.8,1.867-1.8,1.801C56.8,124.55,56.283,124.05,56.25,123.15z"/>
		</g>
	</g>
	<g>
		<g>
			<path style="fill-rule:evenodd;clip-rule:evenodd;fill:#893342;" d="M89.05,170.75c0.3,0.5,0.267,0.866-0.1,1.1
				c-0.4,0.2-0.667,0.101-0.8-0.3c-0.134-0.333-0.051-0.616,0.25-0.85C88.667,170.467,88.884,170.483,89.05,170.75z"/>
		</g>
	</g>
	<g>
		<g>
			<path style="fill-rule:evenodd;clip-rule:evenodd;fill:#893342;" d="M77.7,172.8c-0.034-0.1-0.083-0.217-0.15-0.35
				c-0.066-0.3,0.117-0.384,0.55-0.25C78.433,172.866,78.3,173.066,77.7,172.8z"/>
		</g>
	</g>
	<g>
		<g>
			<path style="fill-rule:evenodd;clip-rule:evenodd;fill:#893342;" d="M106,161.5c-0.434-0.434-0.384-1.1,0.15-2
				c0.5-0.866,1.166-0.75,2,0.35c0.366,1.267,0.166,1.983-0.601,2.15S106.267,162,106,161.5z"/>
		</g>
	</g>
	<g>
		<g>
			<path style="fill-rule:evenodd;clip-rule:evenodd;fill:#893342;" d="M126.9,127c0.1-0.2,0.183-0.25,0.25-0.15
				c0.1,0.134,0.1,0.2,0,0.2C126.95,127.25,126.866,127.233,126.9,127z"/>
		</g>
	</g>
	<g>
		<g>
			<path style="fill-rule:evenodd;clip-rule:evenodd;fill:#893342;" d="M131.45,109.3c-0.2-0.3-0.167-0.583,0.1-0.85
				c0.267-0.233,0.483-0.15,0.65,0.25c0.1,0.267,0.033,0.5-0.2,0.7C131.767,109.566,131.583,109.533,131.45,109.3z"/>
		</g>
	</g>
	<g>
		<g>
			<path style="fill-rule:evenodd;clip-rule:evenodd;fill:#893342;" d="M146.9,105.35c0.733-0.866,1.517-0.983,2.35-0.35
				c0.8,0.634,0.767,1.316-0.1,2.05c-0.867,0.634-1.584,0.634-2.15,0C146.467,106.45,146.434,105.884,146.9,105.35z"/>
		</g>
	</g>
	<g>
		<g>
			<path style="fill-rule:evenodd;clip-rule:evenodd;fill:#893342;" d="M145.4,92.5c0.066-0.767,0.333-1.1,0.8-1
				c0.533,0.133,0.7,0.383,0.5,0.75c-0.033,0.3-0.233,0.517-0.601,0.65C145.733,93.067,145.5,92.933,145.4,92.5z"/>
		</g>
	</g>
	<g>
		<g>
			<path style="fill-rule:evenodd;clip-rule:evenodd;fill:#893342;" d="M133.6,92.35c-0.333-0.867-0.1-1.5,0.7-1.9
				c0.8-0.4,1.283-0.117,1.45,0.85c0.134,0.867-0.134,1.4-0.8,1.6C134.283,93.1,133.833,92.917,133.6,92.35z"/>
		</g>
	</g>
	<g>
		<g>
			<path style="fill-rule:evenodd;clip-rule:evenodd;fill:#893342;" d="M90.15,95.95c-0.134-0.334-0.034-0.584,0.3-0.75
				c0.3-0.167,0.5-0.05,0.6,0.35c0.033,0.434-0.083,0.667-0.35,0.7S90.25,96.184,90.15,95.95z"/>
		</g>
	</g>
	<g>
		<g>
			<path style="fill-rule:evenodd;clip-rule:evenodd;fill:#893342;" d="M63.05,90.05c-0.9-1.3-0.7-2.533,0.6-3.7
				c1.3-1.133,2.4-0.767,3.3,1.1c0.533,1.933,0.133,3.1-1.2,3.5C64.45,91.317,63.55,91.017,63.05,90.05z"/>
		</g>
	</g>
	<g>
		<g>
			<path style="fill-rule:evenodd;clip-rule:evenodd;fill:#893342;" d="M59.75,97.3c-0.167-0.133-0.217-0.283-0.15-0.45
				c0.066-0.199,0.15-0.216,0.25-0.05c0.1,0.101,0.133,0.233,0.1,0.4C59.917,97.333,59.85,97.366,59.75,97.3z"/>
		</g>
	</g>
	<g>
		<g>
			<path style="fill-rule:evenodd;clip-rule:evenodd;fill:#893342;" d="M87,69.2c-0.267-0.7,0.033-1.317,0.9-1.85
				c0.866-0.5,1.449-0.117,1.75,1.15c-0.167,1.3-0.634,1.883-1.4,1.75S87.066,69.767,87,69.2z"/>
		</g>
	</g>
	<g>
		<g>
			<path style="fill-rule:evenodd;clip-rule:evenodd;fill:#893342;" d="M67.5,63.15c-0.2-0.5-0.05-0.883,0.45-1.15
				s0.816-0.083,0.95,0.55c0.033,0.7-0.167,1.05-0.6,1.05C67.833,63.6,67.567,63.45,67.5,63.15z"/>
		</g>
	</g>
	<g>
		<g>
			<path style="fill-rule:evenodd;clip-rule:evenodd;fill:#893342;" d="M53.6,61.7c-0.4-0.7-0.3-1.2,0.3-1.5
				c0.6-0.333,1.017-0.15,1.25,0.55c0.2,0.633,0.05,1.067-0.45,1.3C54.2,62.25,53.833,62.133,53.6,61.7z"/>
		</g>
	</g>
	<g>
		<g>
			<path style="fill-rule:evenodd;clip-rule:evenodd;fill:#893342;" d="M37.7,77.7c-0.034-1.367,0.533-2.067,1.7-2.1
				c1.133,0,1.583,0.583,1.35,1.75c-0.167,1.066-0.717,1.6-1.65,1.6C38.2,78.983,37.733,78.567,37.7,77.7z"/>
		</g>
	</g>
	<g>
		<g>
			<path style="fill-rule:evenodd;clip-rule:evenodd;fill:#452227;" d="M26.15,75.4c-0.6-1.4-0.433-2.183,0.5-2.35
				c1-0.167,1.483,0.117,1.45,0.85c0.267,0.533,0.133,1.067-0.4,1.6C27.167,76.067,26.65,76.033,26.15,75.4z"/>
		</g>
	</g>
	<g>
		<g>
			<path style="fill-rule:evenodd;clip-rule:evenodd;fill:#452227;" d="M21.65,130.9c-0.066-0.434,0.083-0.684,0.45-0.75
				c0.367-0.067,0.533,0.1,0.5,0.5c-0.033,0.366-0.184,0.566-0.45,0.6C21.85,131.283,21.683,131.167,21.65,130.9z"/>
		</g>
	</g>
	<g>
		<g>
			<path style="fill-rule:evenodd;clip-rule:evenodd;fill:#452227;" d="M32.45,122c0.167-0.5,0.466-0.684,0.9-0.55
				c0.433,0.133,0.517,0.399,0.25,0.8c-0.2,0.366-0.467,0.5-0.8,0.4C32.467,122.517,32.35,122.3,32.45,122z"/>
		</g>
	</g>
	<g>
		<g>
			<path style="fill-rule:evenodd;clip-rule:evenodd;fill:#452227;" d="M15.7,122.7c-0.133-0.134-0.184-0.283-0.15-0.45
				c0.067-0.167,0.167-0.184,0.3-0.05c0.133,0.133,0.167,0.267,0.1,0.399C15.883,122.733,15.8,122.767,15.7,122.7z"/>
		</g>
	</g>
	<g>
		<g>
			<path style="fill-rule:evenodd;clip-rule:evenodd;fill:#452227;" d="M10.75,139c0.2,0.267,0.183,0.467-0.05,0.6
				c-0.267,0.101-0.45,0.017-0.55-0.25c-0.133-0.233-0.083-0.399,0.15-0.5C10.5,138.75,10.65,138.8,10.75,139z"/>
		</g>
	</g>
	<g>
		<g>
			<path style="fill-rule:evenodd;clip-rule:evenodd;fill:#452227;" d="M18.15,87.7c-0.733-1.034-0.733-1.7,0-2
				c0.8-0.367,1.267-0.233,1.4,0.4c0.333,0.4,0.317,0.867-0.05,1.4C19.133,88.067,18.683,88.133,18.15,87.7z"/>
		</g>
	</g>
	<g>
		<g>
			<path style="fill-rule:evenodd;clip-rule:evenodd;fill:#893342;" d="M61.8,15.15c0.067-0.133,0.15-0.167,0.25-0.1
				c0.1,0.034,0.117,0.1,0.05,0.2c-0.033,0.1-0.1,0.133-0.2,0.1C61.8,15.283,61.767,15.217,61.8,15.15z"/>
		</g>
	</g>
	<g>
		<g>
			<path style="fill-rule:evenodd;clip-rule:evenodd;fill:#893342;" d="M72.75,9.75c0.767-0.8,1.4-0.9,1.9-0.3
				c0.533,0.6,0.5,1.083-0.1,1.45c-0.466,0.434-0.966,0.483-1.5,0.15C72.483,10.683,72.383,10.25,72.75,9.75z"/>
		</g>
	</g>
	<g>
		<g>
			<path style="fill-rule:evenodd;clip-rule:evenodd;fill:#893342;" d="M70.9,31.65c0.367-0.066,0.633,0.117,0.8,0.55
				c0.167,0.4-0.05,0.6-0.65,0.6c-0.433-0.1-0.65-0.316-0.65-0.65C70.433,31.783,70.6,31.617,70.9,31.65z"/>
		</g>
	</g>
	<g>
		<g>
			<path style="fill-rule:evenodd;clip-rule:evenodd;fill:#893342;" d="M71,41.85c0.033,0.833-0.183,0.983-0.65,0.45
				c-0.1-0.4-0.017-0.617,0.25-0.65C70.833,41.617,70.967,41.683,71,41.85z"/>
		</g>
	</g>
	<g>
		<g>
			<path style="fill-rule:evenodd;clip-rule:evenodd;fill:#893342;" d="M86.9,26.2c0.433-0.034,0.683,0.133,0.75,0.5
				c0.066,0.367-0.101,0.533-0.5,0.5c-0.367-0.034-0.567-0.2-0.601-0.5C86.517,26.4,86.633,26.233,86.9,26.2z"/>
		</g>
	</g>
	<g>
		<g>
			<path style="fill-rule:evenodd;clip-rule:evenodd;fill:#893342;" d="M84.35,41.95c0.267,0.033,0.383,0.167,0.35,0.4
				c-0.034,0.2-0.15,0.283-0.35,0.25c-0.3-0.1-0.417-0.233-0.35-0.4C84.067,42.033,84.183,41.95,84.35,41.95z"/>
		</g>
	</g>
	<g>
		<g>
			<path style="fill-rule:evenodd;clip-rule:evenodd;fill:#893342;" d="M113.8,27.55c0.3,0.067,0.467,0.333,0.5,0.8
				c0.033,0.433-0.25,0.566-0.85,0.4c-0.434-0.367-0.55-0.683-0.351-0.95C113.333,27.5,113.566,27.417,113.8,27.55z"/>
		</g>
	</g>
	<g>
		<g>
			<path style="fill-rule:evenodd;clip-rule:evenodd;fill:#893342;" d="M104.55,38.15c0.233,0.267,0.25,0.45,0.05,0.55
				c-0.199,0.133-0.35,0.117-0.449-0.05c-0.167-0.267-0.167-0.433,0-0.5C104.283,38.083,104.417,38.083,104.55,38.15z"/>
		</g>
	</g>
	<g>
		<g>
			<path style="fill-rule:evenodd;clip-rule:evenodd;fill:#893342;" d="M112.65,48.7c0.267-0.233,0.5-0.217,0.699,0.05
				c0.334,0.367,0.351,0.717,0.051,1.05c-0.334,0.333-0.634,0.284-0.9-0.15C112.3,49.283,112.35,48.967,112.65,48.7z"/>
		</g>
	</g>
	<g>
		<g>
			<path style="fill-rule:evenodd;clip-rule:evenodd;fill:#893342;" d="M120.75,60.05c-0.5-0.433-0.616-0.816-0.35-1.15
				c0.267-0.367,0.566-0.467,0.899-0.3c0.5,0.233,0.667,0.617,0.5,1.15C121.634,60.283,121.283,60.383,120.75,60.05z"/>
		</g>
	</g>
	<g>
		<g>
			<path style="fill-rule:evenodd;clip-rule:evenodd;fill:#893342;" d="M130.65,42.55c0.733,0.267,1,0.717,0.8,1.35
				c-0.2,0.667-0.617,0.817-1.25,0.45c-0.566-0.333-0.75-0.75-0.55-1.25C129.85,42.6,130.184,42.417,130.65,42.55z"/>
		</g>
	</g>
	<g>
		<g>
			<path style="fill-rule:evenodd;clip-rule:evenodd;fill:#893342;" d="M153.1,58.65c1.067,0.6,1.334,1.083,0.801,1.45
				c-0.767,0.533-1.117,0.566-1.051,0.1c-0.199-0.233-0.35-0.483-0.449-0.75C152.233,58.95,152.467,58.683,153.1,58.65z"/>
		</g>
	</g>
	<g>
		<g>
			<path style="fill-rule:evenodd;clip-rule:evenodd;fill:#893342;" d="M145.55,57c0-0.033-0.133,0.05-0.399,0.25
				s-0.417-0.017-0.45-0.65C145.366,56.1,145.65,56.233,145.55,57z"/>
		</g>
	</g>
	<g>
		<g>
			<path style="fill-rule:evenodd;clip-rule:evenodd;fill:#893342;" d="M141.25,69.65c0.267,0.3,0.25,0.6-0.05,0.9
				c-0.267,0.267-0.517,0.2-0.75-0.2c-0.2-0.434-0.15-0.717,0.149-0.85C140.866,69.367,141.083,69.417,141.25,69.65z"/>
		</g>
	</g>
	<g>
		<g>
			<path style="fill-rule:evenodd;clip-rule:evenodd;fill:#893342;" d="M151.5,75.8c0.2,0.333,0.1,0.717-0.3,1.15
				c-0.367,0.4-0.733,0.25-1.101-0.45c-0.1-0.633,0.084-1,0.551-1.1C151.083,75.3,151.366,75.433,151.5,75.8z"/>
		</g>
	</g>
	<g>
		<g>
			<path style="fill-rule:evenodd;clip-rule:evenodd;fill:#893342;" d="M162.8,77.15c0.434,0.3,0.517,0.6,0.25,0.9
				c-0.267,0.333-0.533,0.367-0.8,0.1c-0.3-0.333-0.333-0.617-0.1-0.85C162.35,77.067,162.566,77.017,162.8,77.15z"/>
		</g>
	</g>
	<g>
		<g>
			<path style="fill-rule:evenodd;clip-rule:evenodd;fill:#893342;" d="M164.8,70.55c0.233,0.067,0.316,0.217,0.25,0.45
				c-0.066,0.2-0.2,0.25-0.399,0.15c-0.2-0.133-0.267-0.283-0.2-0.45C164.517,70.533,164.634,70.483,164.8,70.55z"/>
		</g>
	</g>
	<g>
		<g>
			<path style="fill-rule:evenodd;clip-rule:evenodd;fill:#893342;" d="M156.85,86.4c1.167,0.533,1.517,1.233,1.051,2.1
				c-0.434,0.9-1.034,1.017-1.801,0.35c-0.633-0.367-0.85-0.917-0.649-1.65C155.616,86.433,156.083,86.167,156.85,86.4z"/>
		</g>
	</g>
	<g>
		<g>
			<path style="fill-rule:evenodd;clip-rule:evenodd;fill:#893342;" d="M122.15,77c0.666,0.167,0.933,0.483,0.8,0.95
				c-0.167,0.5-0.467,0.65-0.9,0.45c-0.366-0.167-0.533-0.467-0.5-0.9S121.783,76.9,122.15,77z"/>
		</g>
	</g>
	<g>
		<g>
			<path style="fill-rule:evenodd;clip-rule:evenodd;fill:#893342;" d="M105.95,69.45c-1.167,0.533-1.95,0.316-2.351-0.65
				c-0.433-1-0.116-1.617,0.95-1.85c1.066-0.267,1.733,0.017,2,0.85C106.816,68.6,106.616,69.15,105.95,69.45z"/>
		</g>
	</g>
	<g>
		<g>
			<path style="fill-rule:evenodd;clip-rule:evenodd;fill:#893342;" d="M95.2,59.9c-1.101,0.467-1.917,0.15-2.45-0.95
				c-0.533-1.067-0.15-1.7,1.15-1.9c1.233-0.167,1.949,0.2,2.149,1.1C96.25,59.017,95.967,59.6,95.2,59.9z"/>
		</g>
	</g>
</g>
</svg>
