<?xml version="1.0" encoding="iso-8859-1"?>
<!-- Generator: Adobe Illustrator 15.1.0, SVG Export Plug-In . SVG Version: 6.00 Build 0)  -->
<!DOCTYPE svg PUBLIC "-//W3C//DTD SVG 1.1//EN" "http://www.w3.org/Graphics/SVG/1.1/DTD/svg11.dtd">
<svg version="1.1" id="buildings" xmlns="http://www.w3.org/2000/svg" xmlns:xlink="http://www.w3.org/1999/xlink" x="0px" y="0px"
	 width="329.35px" height="52.8px" viewBox="0 0 329.35 52.8" style="enable-background:new 0 0 329.35 52.8;" xml:space="preserve"
	>
<g>
	<polygon style="fill-rule:evenodd;clip-rule:evenodd;fill:#E35A69;" points="329.35,16 324.7,23.35 327.35,31.35 237.35,30 
		211.35,42.65 118,46 104.7,38 0,34.65 6.7,27.35 0.7,15.35 205.35,12.65 	"/>
	<path style="fill-rule:evenodd;clip-rule:evenodd;fill:#EA878B;" d="M230.7,18.65l-22.7,8.7L120,26c-7.533-4-11.967-6-13.3-6
		c-1.333,0-36.667-1.55-106-4.65L78,2.65l45.35,2l66,2l98-6.65l42,16L230.7,18.65z"/>
	<path style="fill-rule:evenodd;clip-rule:evenodd;fill:#E35A69;" d="M226.1,6.95c-12.267,1.267-24.233,2-35.899,2.2
		c-11.667,0.2-33.5-0.2-65.5-1.2c-16-0.5-30.833-1.017-44.5-1.55l-69,8.5l67.75-11l32.7,1.4c23.567,0.967,39.667,1.5,48.3,1.6
		c6.934,0.1,17.217,0.233,30.85,0.4c10.934,0.067,18.65-0.066,23.15-0.4l27-1.75C237.15,5.75,232.2,6.35,226.1,6.95z"/>
	<polygon style="fill-rule:evenodd;clip-rule:evenodd;fill:#E7767D;" points="237.35,30 211.35,42.65 208,27.35 231.7,18.35 	"/>
	<polygon style="fill-rule:evenodd;clip-rule:evenodd;fill:#E7767D;" points="324.7,23.35 326,27.35 286,26.35 	"/>
	<polygon style="fill-rule:evenodd;clip-rule:evenodd;fill:#CA3654;" points="329.35,16 326.35,20.35 314.7,18.65 273.35,19.65 
		248.7,21.65 231.7,18.35 	"/>
	<polygon style="fill-rule:evenodd;clip-rule:evenodd;fill:#CA3654;" points="108,20.65 93.35,21.65 41.7,20.35 13.7,21.35 4.7,24 
		0.7,15.35 	"/>
	<polygon style="fill-rule:evenodd;clip-rule:evenodd;fill:#E7767D;" points="6.7,27.35 28.35,29.65 46,29.35 26,31.65 3.7,30.65 	
		"/>
	<polygon style="fill-rule:evenodd;clip-rule:evenodd;fill:#EA878B;" points="199.35,35.35 206.7,42.65 125.35,41.35 132,36 	"/>
	<path style="fill-rule:evenodd;clip-rule:evenodd;fill:#E35A69;" d="M206.7,42.65v8c-20,1.8-34,2.466-42,2l-39.35-2V41.35
		L206.7,42.65z"/>
	<polygon style="fill-rule:evenodd;clip-rule:evenodd;fill:#CE4B5D;" points="108,20.65 120,26 118,46 104.7,38 	"/>
	<polygon style="fill-rule:evenodd;clip-rule:evenodd;fill:#F3BCB9;" points="285.7,1 320,14 268,15.35 309,11.65 	"/>
	<polygon style="fill-rule:evenodd;clip-rule:evenodd;fill:#F3BCB9;" points="177.45,24.15 206.45,26.15 120.7,24.4 111.45,19.9 
		122.2,22.65 	"/>
	<polygon style="fill-rule:evenodd;clip-rule:evenodd;fill:#F3BCB9;" points="208.45,25.55 230.95,17.15 208.3,26.55 	"/>
	<polygon style="fill-rule:evenodd;clip-rule:evenodd;fill:#F3BCB9;" points="132.2,36.4 131.2,39.15 205.3,42.15 127.2,40.65 	"/>
	<path style="fill-rule:evenodd;clip-rule:evenodd;fill:#CA3654;" d="M178.1,43.625c-2.991,0.05-5.991,0.075-9,0.075
		c-24.033,0-36.833,0.316-38.399,0.95c-1.567,0.633-2.617,1.649-3.15,3.05c-0.238,0.654-0.354,1.246-0.35,1.774l-0.25-6.574
		L178.1,43.625z"/>
	<path style="fill-rule:evenodd;clip-rule:evenodd;fill:#CA3654;" d="M122.95,32.4c-1.034,1.466-1.967,3.899-2.8,7.3
		c-0.433,1.733-0.75,3.3-0.95,4.7l2-16.75l85.75,1c-32,1.333-51.167,2-57.5,2C142.283,30.35,137,30.2,133.6,30.2
		C127.533,30.2,123.983,30.934,122.95,32.4z"/>
</g>
</svg>
