<?xml version="1.0" encoding="iso-8859-1"?>
<!-- Generator: Adobe Illustrator 15.1.0, SVG Export Plug-In . SVG Version: 6.00 Build 0)  -->
<!DOCTYPE svg PUBLIC "-//W3C//DTD SVG 1.1//EN" "http://www.w3.org/Graphics/SVG/1.1/DTD/svg11.dtd">
<svg version="1.1" id="mountains" xmlns="http://www.w3.org/2000/svg" xmlns:xlink="http://www.w3.org/1999/xlink" x="0px" y="0px"
	 width="210px" height="443px" viewBox="0 0 210 443" style="enable-background:new 0 0 210 443;" xml:space="preserve">
<g>
	<path style="fill-rule:evenodd;clip-rule:evenodd;fill:#7EA497;" d="M186.75,63.75c-16,48-25.25,85.75-27.75,113.25
		s0.083,80.083,7.75,157.75c3.833,38.833,7.917,74.917,12.25,108.25H0c8.5-27.833,18.583-58.866,30.25-93.1
		C53.583,281.4,73.167,231.1,89,199c16.1-32.567,41.1-75.5,75-128.8c16.934-26.667,32.267-50.067,46-70.2
		C202.5,18.5,194.75,39.75,186.75,63.75z"/>
	<g>
		<path style="fill-rule:evenodd;clip-rule:evenodd;fill:#649180;" d="M162.25,74.75C178.184,49.05,194.1,24.133,210,0
			c-12.1,22.233-24.45,45.35-37.05,69.35c-25.233,48-39.101,76.45-41.601,85.35c-2.5,8.867-0.699,10.75,5.4,5.65
			c3.066-2.567,6.366-6.017,9.9-10.35c-13.767,22.633-26.4,45.467-37.9,68.5c-23,46.066-28.8,70.134-17.4,72.2
			c6.1,1.1,14.034-1.9,23.8-9c3.066-2.2,6.133-4.7,9.199-7.5l3.65-3.5l-12.3,16.649c-9.566,13.367-17.883,25.733-24.95,37.101
			C68.183,360.783,62.6,380.2,74,382.7s21.933,0.583,31.6-5.75c3-1.967,5.75-4.267,8.25-6.9l2.801-3.35l-0.45,4.7
			c-0.233,3.733-0.134,7.166,0.3,10.3c1.333,10,5.616,15,12.85,15c6.601,0,15.067-1.967,25.4-5.9c6-2.3,11.7-4.866,17.1-7.7
			c1.7,15.101,3.084,27,4.15,35.7l-20-9.45L139.35,428.7L110,409.35l-24,12V398.7L56.65,412l6-18.65c-2.433-0.1-5.1-0.683-8-1.75
			c-5.767-2.1-9.767-5.517-12-10.25s6.883-20.267,27.35-46.6c6.4-8.233,13.55-17.033,21.45-26.4l9.9-11.649
			c-6.233,2.1-12.184,2.967-17.85,2.6c-11.333-0.8-15.617-7.45-12.85-19.95s13.717-34.8,32.85-66.899
			c9.566-16.067,18.85-30.883,27.85-44.45c-3,2.567-5.966,4.317-8.899,5.25c-5.9,1.9-8.717-1.183-8.45-9.25
			C114.267,155.967,130.35,126.217,162.25,74.75z"/>
		<path style="fill-rule:evenodd;clip-rule:evenodd;fill:#577D6F;" d="M188.4,32.775c-8.641,13.8-17.357,27.792-26.15,41.975
			c-31.9,51.467-47.983,81.217-48.25,89.25c-0.267,8.067,2.55,11.15,8.45,9.25c2.934-0.933,5.899-2.683,8.899-5.25
			c-9,13.567-18.283,28.383-27.85,44.45c-19.133,32.1-30.083,54.399-32.85,66.899s1.517,19.15,12.85,19.95
			c5.667,0.367,11.617-0.5,17.85-2.6l-9.9,11.649c-7.9,9.367-15.05,18.167-21.45,26.4c-20.467,26.333-29.583,41.866-27.35,46.6
			s6.233,8.15,12,10.25c2.9,1.067,5.567,1.65,8,1.75l-6,18.65L86,398.7v22.649l24-12l29.35,19.351L156,409.35l20,9.45
			c1.2,10.033,2.2,18.101,3,24.2H0c8.5-27.833,18.583-58.866,30.25-93.1C53.583,281.4,73.167,231.1,89,199
			c16.1-32.567,41.1-75.5,75-128.8C172.467,56.867,180.6,44.392,188.4,32.775z"/>
	</g>
	<path style="fill-rule:evenodd;clip-rule:evenodd;fill:#649180;" d="M132.2,202.95c-3.167,10.867-6.367,20.883-9.601,30.05
		c-10.333,29.333-18.983,44.566-25.95,45.7c-6.933,1.1-2.45-13.467,13.45-43.7c4.967-9.467,10.767-19.9,17.4-31.3l8.5-14.35
		L132.2,202.95z"/>
	<path style="fill-rule:evenodd;clip-rule:evenodd;fill:#649180;" d="M115.75,306.15c-3.033,10.733-6.116,20.466-9.25,29.199
		c-10,28-18.617,40.884-25.85,38.65c-7.233-2.2-2.95-16.417,12.85-42.65c4.933-8.199,10.717-17.1,17.35-26.699l8.5-11.95
		L115.75,306.15z"/>
	<path style="fill-rule:evenodd;clip-rule:evenodd;fill:#649180;" d="M136.65,321.35l0.699,10.45
		c0.467,8.334,0.65,15.983,0.551,22.95c-0.334,22.333-3.417,33.65-9.25,33.95c-5.834,0.267-6.25-10.884-1.25-33.45
		c1.566-7.033,3.583-14.8,6.05-23.3L136.65,321.35z"/>
	<path style="fill-rule:evenodd;clip-rule:evenodd;fill:#93BCAF;" d="M181.35,64c-4.666,14-9.716,27.8-15.149,41.4
		c-10.9,27.233-18.3,39.883-22.2,37.95c-3.9-1.934,1.15-15.733,15.15-41.4C166.184,89.117,173.583,76.467,181.35,64z"/>
	<path style="fill-rule:evenodd;clip-rule:evenodd;fill:#93BCAF;" d="M148,175.35l0.5,7.45c0.333,6.2,0.384,12.3,0.15,18.3
		c-0.667,19.233-3.767,33.983-9.301,44.25c-5.566,10.267-12.133,18.45-19.699,24.551c-3.767,3.066-6.983,5.1-9.65,6.1
		c1.333-1.434,3.134-3.9,5.4-7.4c4.566-7,9.216-15.633,13.949-25.899c4.7-10.3,9.217-24.617,13.551-42.95L148,175.35z"/>
	<path style="fill-rule:evenodd;clip-rule:evenodd;fill:#93BCAF;" d="M144,256.7l-1.55,10.1c-1.367,8.334-2.934,16.55-4.7,24.65
		c-5.667,25.866-12.25,45.616-19.75,59.25c-7.5,13.6-15.417,22.35-23.75,26.25c-4.167,1.934-7.583,2.517-10.25,1.75
		c2.667-1.767,5.833-4.434,9.5-8c7.333-7.134,13.5-15.134,18.5-24c5-8.9,11.833-26.566,20.5-53L144,256.7z"/>
	<path style="fill-rule:evenodd;clip-rule:evenodd;fill:#93BCAF;" d="M152,380c-2.5,6.4-6.35,10.316-11.55,11.75
		c-1.634,0.467-3.316,0.65-5.05,0.55l-2.051-0.3c1-0.2,2.2-1,3.601-2.4c2.767-2.767,5.116-7.066,7.05-12.899
		c1.934-5.834,3.066-24.584,3.4-56.25l-0.051-45.75l4.601,46.899C154.483,354.167,154.5,373.634,152,380z"/>
</g>
</svg>
