<?xml version="1.0" encoding="iso-8859-1"?>
<!-- Generator: Adobe Illustrator 15.1.0, SVG Export Plug-In . SVG Version: 6.00 Build 0)  -->
<!DOCTYPE svg PUBLIC "-//W3C//DTD SVG 1.1//EN" "http://www.w3.org/Graphics/SVG/1.1/DTD/svg11.dtd">
<svg version="1.1" id="Isolation_Mode" xmlns="http://www.w3.org/2000/svg" xmlns:xlink="http://www.w3.org/1999/xlink" x="0px"
	 y="0px" width="750px" height="83.85px" viewBox="0 0 750 83.85" style="enable-background:new 0 0 750 83.85;"
	 xml:space="preserve">
<g>
	<path style="fill-rule:evenodd;clip-rule:evenodd;fill:#895D60;" d="M505.7,68c13.366,2.2,58.1,5.5,134.2,9.9
		c38.033,2.199,74.733,4.183,110.1,5.949H0c16.5-9.866,33.967-19.899,52.4-30.1c36.833-20.333,60.083-31.233,69.75-32.7
		c10.1-1.5,27.75-1.867,52.95-1.1c17.133,0.5,35.233,1.417,54.3,2.75c9.067,0.633,29.417-2.7,61.05-10
		c19.267-4.467,31.167-7.184,35.7-8.15c12.5-2.633,21.85-4.133,28.05-4.5c6.4-0.4,16.8,2.65,31.2,9.15
		c9.767,4.4,24.166,11.8,43.199,22.2c22.567,12.333,37.2,20.183,43.9,23.55C487.6,62.517,498.667,66.866,505.7,68z"/>
	<g>
		<g>
			<path style="fill-rule:evenodd;clip-rule:evenodd;fill:#7F5257;" d="M168.1,61.2c-7.5,3.7-13.934,4.883-19.3,3.55
				c-5.767-1.233-9.45-3.3-11.05-6.2c-1.4-2.6-0.85-4.934,1.65-7c1.934-1.566,4.967-2.5,9.1-2.8c2.067-0.134,3.917-0.116,5.55,0.05
				c-2.733,0.367-5.333,0.95-7.8,1.75c-4.9,1.634-6.55,3.417-4.95,5.351c1.934,2.333,6.7,3.583,14.3,3.75
				c8.267,0.199,15.566-1.284,21.9-4.45c0.167,0.066-0.667,0.733-2.5,2C172.833,58.667,170.533,60,168.1,61.2z"/>
		</g>
	</g>
	<g>
		<g>
			<path style="fill-rule:evenodd;clip-rule:evenodd;fill:#7F5257;" d="M524.6,76.7c2.867-0.167,5.384-0.934,7.551-2.3
				c-0.834,0.833-1.867,1.633-3.101,2.399c-2.5,1.566-4.767,2.167-6.8,1.8c-2.2-0.466-3.533-1.216-4-2.25
				c-0.434-0.933-0.167-1.75,0.8-2.449c0.667-0.467,1.667-0.767,3-0.9c0.667-0.033,1.267-0.05,1.8-0.05
				c-0.866,0.2-1.716,0.434-2.55,0.7c-1.633,0.533-2.217,1.133-1.75,1.8C520.184,76.417,521.866,76.833,524.6,76.7z"/>
		</g>
	</g>
	<g>
		<g>
			<path style="fill-rule:evenodd;clip-rule:evenodd;fill:#7F5257;" d="M455.2,71.4c-3.134-0.4-5.084-1.284-5.851-2.65
				c-0.633-1.2-0.333-2.316,0.9-3.35c0.866-0.667,2.167-1.167,3.9-1.5c0.866-0.167,1.649-0.301,2.35-0.4
				c-1.134,0.4-2.217,0.833-3.25,1.3c-2.1,0.934-2.816,1.816-2.15,2.65c0.967,1.333,3.301,1.649,7,0.95
				c3.9-0.7,7.117-2.233,9.65-4.601c-0.9,1.334-2.1,2.65-3.6,3.95C461.15,70.384,458.167,71.6,455.2,71.4z"/>
		</g>
	</g>
	<g>
		<g>
			<path style="fill-rule:evenodd;clip-rule:evenodd;fill:#7F5257;" d="M347.25,23.65c-1.9,0.267-2.783,0.8-2.65,1.6
				c0.333,1.767,2.333,2.65,6,2.65c3.733,0,6.917-0.983,9.55-2.95c-1.033,1.1-2.316,2.167-3.85,3.2c-3.066,2.1-6.083,2.733-9.05,1.9
				c-3.1-1.333-4.667-2.816-4.7-4.45c0-1.434,0.75-2.217,2.25-2.35c1.467-0.267,3.217-0.25,5.25,0.05
				C349.117,23.4,348.183,23.517,347.25,23.65z"/>
		</g>
	</g>
	<g>
		<g>
			<path style="fill-rule:evenodd;clip-rule:evenodd;fill:#7F5257;" d="M412.95,47.3c-0.667,0.233-1.417,0.566-2.25,1
				c-1.601,0.9-2.717,1.884-3.351,2.95c-0.5,0.967,2.5,1.366,9,1.2c6.567-0.134,9.834-0.15,9.801-0.05c0-0.034-2.884,0.233-8.65,0.8
				c-6.2,0.6-10.1,0.467-11.7-0.4c-1.467-1-0.717-2.217,2.25-3.649C409.517,48.45,411.15,47.833,412.95,47.3z"/>
		</g>
	</g>
	<g>
		<g>
			<path style="fill-rule:evenodd;clip-rule:evenodd;fill:#7F5257;" d="M298.35,60.05c-1.367,0.367-2.367,0.95-3,1.75
				c-0.367,0.601,1.183,0.917,4.65,0.95c1.733,0.033,3.45,0.05,5.15,0.05c-1.4,0.134-2.917,0.267-4.55,0.4
				c-3.3,0.2-5.35-0.033-6.15-0.7c-0.667-0.6-0.217-1.184,1.35-1.75C296.6,60.483,297.45,60.25,298.35,60.05z"/>
		</g>
	</g>
	<g>
		<g>
			<path style="fill-rule:evenodd;clip-rule:evenodd;fill:#7F5257;" d="M90.45,73.35c-1,0.7-2.167,1.351-3.5,1.95
				c-2.7,1.267-5.083,1.617-7.15,1.05c-2.3-0.866-3.583-1.883-3.85-3.05c-0.233-1,0.233-1.733,1.4-2.2
				c0.733-0.333,1.733-0.483,3-0.449c0.633,0.033,1.217,0.083,1.75,0.149c-0.9,0.101-1.767,0.233-2.6,0.4c-1.633,0.3-2.3,0.8-2,1.5
				c0.433,1.2,2.067,1.85,4.9,1.95C85.2,74.783,87.883,74.35,90.45,73.35z"/>
		</g>
	</g>
	<g>
		<g>
			<path style="fill-rule:evenodd;clip-rule:evenodd;fill:#7F5257;" d="M46.1,72.3c0.6-0.233,1.4-0.3,2.4-0.2
				c0.5,0.067,0.933,0.117,1.3,0.15c-0.633,0.066-1.283,0.15-1.95,0.25c-1.3,0.167-1.85,0.533-1.65,1.1c0.267,1,1.55,1.567,3.85,1.7
				c2.4,0.134,4.434-0.399,6.1-1.6c-0.667,0.7-1.5,1.35-2.5,1.95c-2.033,1.199-3.95,1.5-5.75,0.899
				c-1.767-0.767-2.733-1.616-2.9-2.55C44.833,73.233,45.2,72.667,46.1,72.3z"/>
		</g>
	</g>
	<g>
		<g>
			<path style="fill-rule:evenodd;clip-rule:evenodd;fill:#7F5257;" d="M140.75,30.55c-1,1.4-2.383,2.767-4.15,4.1
				c-3.5,2.667-6.833,3.783-10,3.35c-3.333-0.533-5.417-1.567-6.25-3.1c-0.7-1.367-0.35-2.6,1.05-3.7
				c0.967-0.733,2.45-1.25,4.45-1.55c0.967-0.133,1.85-0.217,2.65-0.25c-1.3,0.367-2.55,0.783-3.75,1.25
				c-2.367,0.967-3.183,1.917-2.45,2.85c1,1.433,3.55,1.917,7.65,1.45C134.35,34.45,137.95,32.983,140.75,30.55z"/>
		</g>
	</g>
	<g>
		<g>
			<path style="fill-rule:evenodd;clip-rule:evenodd;fill:#7F5257;" d="M92.1,49.45c0.9,1.233,3.183,1.733,6.85,1.5
				c3.867-0.3,7.267-1.367,10.2-3.2c-1.133,1.134-2.533,2.233-4.2,3.3c-3.333,2.134-6.367,2.983-9.1,2.55
				c-2.967-0.533-4.8-1.5-5.5-2.899c-0.633-1.233-0.317-2.334,0.95-3.3c0.9-0.667,2.25-1.117,4.05-1.351
				c0.933-0.1,1.767-0.149,2.5-0.149c-1.233,0.267-2.4,0.616-3.5,1.05C92.183,47.75,91.433,48.583,92.1,49.45z"/>
		</g>
	</g>
	<g>
		<g>
			<path style="fill-rule:evenodd;clip-rule:evenodd;fill:#7F5257;" d="M113.5,72.3c0.567-0.533,1.483-0.816,2.75-0.85
				c-0.5,0.133-0.983,0.316-1.45,0.55c-0.9,0.4-1.183,0.783-0.85,1.15c0.466,0.433,1.45,0.55,2.95,0.35
				c1.567-0.2,2.983-0.667,4.25-1.4c-0.467,0.467-1.05,0.934-1.75,1.4c-1.367,0.9-2.6,1.3-3.7,1.2
				c-1.233-0.101-2.034-0.417-2.4-0.95C112.967,73.283,113.033,72.8,113.5,72.3z"/>
		</g>
	</g>
	<g>
		<g>
			<path style="fill-rule:evenodd;clip-rule:evenodd;fill:#7F5257;" d="M76.8,56.15c-0.233,0.6-0.65,1.183-1.25,1.75
				c-1.233,1.166-2.583,1.583-4.05,1.25c-0.833-0.167-1.467-0.617-1.9-1.351c-0.4-0.7-0.417-1.184-0.05-1.45
				c0.133-0.199,0.35-0.283,0.65-0.25c0.167,0,0.417,0.034,0.75,0.101c0.933-0.167,1.483-0.2,1.65-0.101
				c0,0.034-0.35,0.117-1.05,0.25c-0.667,0.134-1.066,0.301-1.2,0.5c0,0.967,0.883,1.384,2.65,1.25
				C74.767,57.967,76.033,57.316,76.8,56.15z"/>
		</g>
	</g>
	<g>
		<g>
			<path style="fill-rule:evenodd;clip-rule:evenodd;fill:#7F5257;" d="M25.85,74.15c0.4-0.067,1.033,0.116,1.9,0.55
				c-0.367-0.066-0.75-0.134-1.15-0.2c-0.733-0.134-1.133-0.05-1.2,0.25c-0.133,0.7,0.533,1.3,2,1.8c1.5,0.5,2.75,0.384,3.75-0.35
				c0.7,0,0.15,0.35-1.65,1.05c-1.433,0.533-2.667,0.417-3.7-0.35c-1.133-0.867-1.533-1.717-1.2-2.551
				c0.133-0.199,0.333-0.283,0.6-0.25C25.6,74.134,25.817,74.15,25.85,74.15z"/>
		</g>
	</g>
	<g>
		<g>
			<path style="fill-rule:evenodd;clip-rule:evenodd;fill:#7F5257;" d="M200.4,74.6c3.367-0.066,6.283-0.899,8.75-2.5
				c-0.933,0.967-2.133,1.9-3.6,2.801c-2.9,1.767-5.566,2.35-8,1.75c-2.667-0.834-4.183-1.9-4.55-3.2
				c-0.333-1.101,0.133-1.967,1.4-2.601c0.833-0.399,1.967-0.616,3.4-0.649c0.733,0,1.4,0.017,2,0.05c-1,0.167-1.966,0.366-2.9,0.6
				c-1.833,0.467-2.566,1.084-2.2,1.851C195.267,74,197.167,74.634,200.4,74.6z"/>
		</g>
	</g>
	<g>
		<g>
			<path style="fill-rule:evenodd;clip-rule:evenodd;fill:#7F5257;" d="M160.75,75.65c-0.467,0.866-1.183,1.716-2.15,2.55
				c-1.967,1.666-3.934,2.316-5.9,1.95c-1.967-0.434-3.15-1.117-3.55-2.051c-0.333-0.8-0.066-1.483,0.8-2.05
				c0.966-0.6,2.3-0.866,4-0.8c-0.7,0.2-1.4,0.417-2.1,0.65c-1.333,0.466-1.833,0.966-1.5,1.5c0.467,0.966,1.933,1.316,4.4,1.05
				C157.35,78.15,159.35,77.217,160.75,75.65z"/>
		</g>
	</g>
	<g>
		<g>
			<path style="fill-rule:evenodd;clip-rule:evenodd;fill:#7F5257;" d="M209.4,39.8c-5.333,3.667-10.25,5.25-14.75,4.75
				c-5.033-0.733-8.117-2.316-9.25-4.75c-1-2.133-0.433-3.917,1.7-5.35c1.433-1.034,3.583-1.767,6.45-2.2
				c1.434-0.233,2.733-0.35,3.9-0.35c-1.934,0.5-3.767,1.1-5.5,1.8c-3.467,1.4-4.684,2.783-3.65,4.15c1.5,2.1,5.25,2.816,11.25,2.15
				c6.2-0.7,11.733-2.6,16.6-5.7C214.317,36.167,212.067,38,209.4,39.8z"/>
		</g>
	</g>
	<g>
		<g>
			<path style="fill-rule:evenodd;clip-rule:evenodd;fill:#7F5257;" d="M163.5,32.3c0.567-0.533,1.483-0.816,2.75-0.85
				c-0.5,0.133-0.983,0.316-1.45,0.55c-0.9,0.4-1.183,0.783-0.85,1.15c0.466,0.434,1.45,0.55,2.95,0.35
				c1.567-0.2,2.983-0.667,4.25-1.4c-0.467,0.467-1.05,0.933-1.75,1.4c-1.367,0.9-2.6,1.3-3.7,1.2c-1.233-0.1-2.034-0.417-2.4-0.95
				C162.967,33.283,163.033,32.8,163.5,32.3z"/>
		</g>
	</g>
	<g>
		<g>
			<path style="fill-rule:evenodd;clip-rule:evenodd;fill:#7F5257;" d="M278.45,60.05c4.033-0.333,7.6-1.467,10.7-3.399
				c-1.167,1.199-2.633,2.35-4.4,3.449c-3.5,2.267-6.683,3.184-9.55,2.75c-3.167-0.533-5.117-1.55-5.85-3.05
				c-0.667-1.3-0.333-2.45,1-3.45c0.933-0.733,2.35-1.216,4.25-1.449c0.967-0.134,1.833-0.2,2.6-0.2
				c-1.267,0.333-2.483,0.717-3.65,1.149c-2.267,0.867-3.05,1.75-2.35,2.65C272.133,59.833,274.55,60.35,278.45,60.05z"/>
		</g>
	</g>
	<g>
		<g>
			<path style="fill-rule:evenodd;clip-rule:evenodd;fill:#7F5257;" d="M251.1,42.55c-3.633-1.1-5.7-2.617-6.2-4.55
				c-0.4-1.667,0.267-2.833,2-3.5c1.133-0.5,2.7-0.767,4.7-0.8c1,0,1.9,0.033,2.7,0.1c-1.367,0.2-2.683,0.45-3.95,0.75
				c-2.567,0.6-3.6,1.434-3.1,2.5c0.767,1.8,3.383,2.7,7.85,2.7c4.667,0,8.683-1.133,12.05-3.4c-1.3,1.333-2.95,2.617-4.95,3.85
				C258.233,42.667,254.533,43.45,251.1,42.55z"/>
		</g>
	</g>
	<g>
		<g>
			<path style="fill-rule:evenodd;clip-rule:evenodd;fill:#7F5257;" d="M250.95,69c3.267-0.134,6.433-0.8,9.5-2
				c-1.167,0.866-2.534,1.7-4.1,2.5c-3.133,1.6-5.867,2.2-8.2,1.8c-2.667-0.566-4.3-1.483-4.9-2.75c-0.5-1.133-0.167-2.116,1-2.95
				c0.8-0.566,2.017-0.933,3.65-1.1c0.833-0.066,1.583-0.1,2.25-0.1c-1.133,0.233-2.183,0.517-3.15,0.85
				c-2,0.7-2.717,1.45-2.15,2.25C245.65,68.6,247.683,69.1,250.95,69z"/>
		</g>
	</g>
	<g>
		<g>
			<path style="fill-rule:evenodd;clip-rule:evenodd;fill:#7F5257;" d="M328.7,72.5c2.1-0.1,3.917-0.65,5.45-1.65
				c-0.6,0.601-1.35,1.184-2.25,1.75c-1.8,1.101-3.45,1.5-4.95,1.2c-1.633-0.434-2.583-1.05-2.85-1.85
				c-0.233-0.667,0.017-1.217,0.75-1.65c0.833-0.467,1.967-0.633,3.4-0.5c-0.633,0.101-1.233,0.233-1.8,0.4
				c-1.133,0.333-1.567,0.733-1.3,1.2C325.517,72.2,326.7,72.566,328.7,72.5z"/>
		</g>
	</g>
	<g>
		<g>
			<path style="fill-rule:evenodd;clip-rule:evenodd;fill:#7F5257;" d="M316.45,22.65c0.533,0.2-1.1,1.083-4.9,2.65
				c-3.833,1.6-7.017,2.067-9.55,1.4c-2.767-0.534-4.583-1.5-5.45-2.9c-0.8-1.3-0.6-2.483,0.6-3.55
				c1.413-1.29,3.663-1.815,6.75-1.575c-0.672,0.119-1.755,0.427-3.25,0.925c-2.5,0.867-3.3,1.8-2.4,2.8
				c1.067,1,3.433,1.617,7.1,1.85C309.517,24.483,313.217,23.95,316.45,22.65z"/>
		</g>
	</g>
	<g>
		<g>
			<path style="fill-rule:evenodd;clip-rule:evenodd;fill:#7F5257;" d="M326.75,45.65c-1.9,1.233-3.6,1.783-5.1,1.649
				c-1.667-0.133-2.75-0.566-3.25-1.3c-0.467-0.667-0.383-1.316,0.25-1.95c0.767-0.767,2.033-1.184,3.8-1.25
				c-0.7,0.2-1.367,0.45-2,0.75c-1.267,0.601-1.667,1.134-1.2,1.601c0.6,0.6,1.95,0.783,4.05,0.55
				c2.167-0.267,4.117-0.917,5.85-1.95C328.517,44.417,327.717,45.05,326.75,45.65z"/>
		</g>
	</g>
	<g>
		<g>
			<path style="fill-rule:evenodd;clip-rule:evenodd;fill:#7F5257;" d="M374.15,71.9c3-0.367,5.667-1.25,8-2.65
				c-0.9,0.9-2,1.767-3.301,2.6c-2.6,1.7-4.917,2.467-6.95,2.301c-2.267-0.2-3.75-0.817-4.45-1.851
				c-0.6-0.899-0.467-1.783,0.4-2.649c0.633-0.634,1.7-1.101,3.2-1.4c0.733-0.134,1.4-0.217,2-0.25c-0.966,0.267-1.883,0.6-2.75,1
				c-1.7,0.833-2.233,1.566-1.6,2.2C369.533,72.033,371.35,72.267,374.15,71.9z"/>
		</g>
	</g>
	<g>
		<g>
			<path style="fill-rule:evenodd;clip-rule:evenodd;fill:#7F5257;" d="M381.15,38.2c-0.334-0.9-0.034-1.633,0.899-2.2
				c0.7-0.4,1.7-0.583,3-0.55c0.667,0,1.267,0.05,1.8,0.15c-0.899,0.033-1.75,0.15-2.55,0.35c-1.633,0.333-2.25,0.85-1.85,1.55
				c0.533,0.9,2.066,1.467,4.6,1.7c2.634,0.267,5.117,0.033,7.45-0.7c-0.934,0.567-2.05,1.083-3.35,1.55
				c-2.601,0.967-4.767,1.184-6.5,0.65C382.717,40.067,381.55,39.233,381.15,38.2z"/>
		</g>
	</g>
	<g>
		<g>
			<path style="fill-rule:evenodd;clip-rule:evenodd;fill:#7F5257;" d="M368.25,13.5c-2.9,2.333-5.667,3.4-8.3,3.2
				c-2.767-0.2-4.567-0.917-5.4-2.15c-0.767-1.066-0.617-2.133,0.45-3.2c0.767-0.733,2.017-1.3,3.75-1.7
				c0.867-0.2,1.65-0.316,2.35-0.35c-1.133,0.367-2.2,0.8-3.2,1.3c-2,1-2.633,1.867-1.9,2.6c0.967,1.066,3.167,1.316,6.6,0.75
				c3.733-0.6,6.783-1.95,9.15-4.05C372.417,9.9,371.25,11.1,368.25,13.5z"/>
		</g>
	</g>
	<g>
		<g>
			<path style="fill-rule:evenodd;clip-rule:evenodd;fill:#7F5257;" d="M364.15,52.75c-0.667,0.7-1.45,1.4-2.35,2.1
				c-1.833,1.4-3.583,2.034-5.25,1.9c-1.867-0.333-3-0.9-3.4-1.7c-0.333-0.733-0.1-1.366,0.7-1.899c0.5-0.367,1.25-0.617,2.25-0.75
				c0.467-0.101,0.917-0.167,1.35-0.2c-0.667,0.2-1.3,0.416-1.9,0.649c-1.2,0.5-1.633,1-1.3,1.5c0.533,0.834,1.867,1.067,4,0.7
				C360.417,54.717,362.383,53.95,364.15,52.75z"/>
		</g>
	</g>
	<g>
		<g>
			<path style="fill-rule:evenodd;clip-rule:evenodd;fill:#7F5257;" d="M294.5,79.5c-0.7-1.033-0.55-2.033,0.45-3
				c0.733-0.733,1.933-1.283,3.6-1.65c0.833-0.166,1.583-0.267,2.25-0.3c-1.1,0.334-2.133,0.733-3.1,1.2
				c-1.934,0.934-2.534,1.75-1.8,2.45c0.934,0.934,3,1.2,6.2,0.8c3.367-0.4,6.383-1.4,9.05-3c-1,1-2.233,1.983-3.7,2.95
				c-2.967,1.934-5.6,2.8-7.9,2.6C296.983,81.316,295.3,80.634,294.5,79.5z"/>
		</g>
	</g>
	<g>
		<g>
			<path style="fill-rule:evenodd;clip-rule:evenodd;fill:#7F5257;" d="M414.45,74.15c-0.834,0.199-1.617,0.416-2.351,0.649
				c-1.5,0.5-2.05,1.05-1.649,1.65c0.566,0.934,2.116,1.333,4.649,1.2c2.667-0.167,5.017-0.884,7.051-2.15
				c-0.767,0.767-1.733,1.517-2.9,2.25c-2.3,1.467-4.4,2.017-6.3,1.65c-2.101-0.467-3.367-1.2-3.8-2.2
				c-0.367-0.867-0.084-1.601,0.85-2.2c0.634-0.4,1.566-0.667,2.8-0.8C413.4,74.167,413.95,74.15,414.45,74.15z"/>
		</g>
	</g>
	<g>
		<g>
			<path style="fill-rule:evenodd;clip-rule:evenodd;fill:#7F5257;" d="M412.75,35.85c-3.1-1.133-4.767-2.533-5-4.2
				c-0.2-1.433,0.467-2.333,2-2.7c0.934-0.333,2.184-0.467,3.75-0.4c0.767,0.034,1.467,0.083,2.1,0.15
				c-1.066,0.133-2.116,0.283-3.149,0.45c-2.066,0.4-2.95,1.05-2.65,1.95c0.5,1.6,2.634,2.433,6.4,2.5
				c3.866,0.033,7.184-0.9,9.95-2.8c-1.067,1.133-2.417,2.2-4.051,3.2C418.767,36.033,415.65,36.65,412.75,35.85z"/>
		</g>
	</g>
	<g>
		<g>
			<path style="fill-rule:evenodd;clip-rule:evenodd;fill:#7F5257;" d="M444.2,55.5c2.267-0.1,4.25-0.7,5.95-1.8
				c-0.667,0.7-1.483,1.35-2.45,1.95c-1.967,1.233-3.767,1.666-5.4,1.3c-1.733-0.434-2.783-1.066-3.149-1.9
				c-0.301-0.733-0.051-1.366,0.75-1.899c0.533-0.334,1.316-0.534,2.35-0.601c0.533-0.033,1-0.05,1.4-0.05
				c-0.667,0.134-1.334,0.3-2,0.5c-1.267,0.4-1.733,0.866-1.4,1.4C440.717,55.2,442.033,55.566,444.2,55.5z"/>
		</g>
	</g>
	<g>
		<g>
			<path style="fill-rule:evenodd;clip-rule:evenodd;fill:#7F5257;" d="M496.5,76.6c-0.9,0.567-1.95,1.101-3.15,1.601
				c-2.333,1-4.383,1.217-6.149,0.649c-1.967-0.833-3.05-1.75-3.25-2.75c-0.2-0.833,0.2-1.449,1.2-1.85
				c1.066-0.434,2.466-0.467,4.199-0.1c-0.8,0.033-1.55,0.116-2.25,0.25c-1.433,0.199-2.033,0.616-1.8,1.25
				c0.367,1.033,1.767,1.649,4.2,1.85C491.9,77.667,494.233,77.366,496.5,76.6z"/>
		</g>
	</g>
	<g>
		<g>
			<path style="fill-rule:evenodd;clip-rule:evenodd;fill:#7F5257;" d="M573.15,80.1c-2.167,1.667-4.067,2.267-5.7,1.801
				c-1.101-0.2-1.816-0.584-2.15-1.15c-0.333-0.533-0.25-1,0.25-1.4c0.551-0.489,1.443-0.698,2.675-0.625
				c-0.271,0.052-0.695,0.177-1.274,0.375c-1.033,0.367-1.367,0.733-1,1.101c0.434,0.434,1.399,0.684,2.899,0.75
				C570.55,81.017,571.983,80.733,573.15,80.1z"/>
		</g>
	</g>
	<g>
		<g>
			<path style="fill-rule:evenodd;clip-rule:evenodd;fill:#7F5257;" d="M350.9,68.25c2-0.533,3.667-1.434,5-2.7
				c-0.467,0.7-1.066,1.417-1.8,2.15c-1.533,1.434-3.05,2.184-4.55,2.25c-1.633-0.033-2.7-0.384-3.2-1.05
				c-0.4-0.601-0.317-1.2,0.25-1.801c0.633-0.699,1.717-1.166,3.25-1.399c-0.6,0.267-1.167,0.566-1.7,0.899
				c-1.033,0.601-1.35,1.101-0.95,1.5C347.767,68.7,349,68.75,350.9,68.25z"/>
		</g>
	</g>
	<g>
		<g>
			<path style="fill-rule:evenodd;clip-rule:evenodd;fill:#7F5257;" d="M200,56.4c0.533,0.8,1.967,1.199,4.3,1.199
				c2.534,0,4.7-0.55,6.5-1.649c-0.7,0.7-1.6,1.35-2.7,1.95c-2.2,1.233-4.15,1.633-5.85,1.199c-1.8-0.399-2.917-1.066-3.35-2
				c-0.367-0.8-0.15-1.483,0.65-2.05c0.967-0.666,2.4-0.899,4.3-0.7c-0.8,0.101-1.567,0.267-2.3,0.5
				C200.117,55.283,199.6,55.8,200,56.4z"/>
		</g>
	</g>
	<g>
		<g>
			<path style="fill-rule:evenodd;clip-rule:evenodd;fill:#7F5257;" d="M234.2,76.9c-1.6,0.767-2.934,1.1-4,1
				c-1.3-0.134-2.15-0.5-2.55-1.101c-0.367-0.533-0.283-1.05,0.25-1.55c0.526-0.558,1.443-0.857,2.75-0.9
				c-0.275,0.083-0.725,0.267-1.35,0.551c-1,0.466-1.316,0.883-0.95,1.25c0.467,0.433,1.517,0.6,3.15,0.5
				c1.6-0.101,3.217-0.417,4.85-0.95C235.717,76.1,235,76.5,234.2,76.9z"/>
		</g>
	</g>
	<g>
		<g>
			<path style="fill-rule:evenodd;clip-rule:evenodd;fill:#7F5257;" d="M235.45,47.5c-2.5,2.267-4.817,3.2-6.95,2.8
				c-1.433-0.233-2.383-0.7-2.85-1.399c-0.367-0.601-0.267-1.184,0.3-1.75c0.688-0.626,1.804-0.926,3.35-0.9
				c-0.319,0.066-0.87,0.25-1.65,0.55c-1.2,0.467-1.583,0.934-1.15,1.4c0.533,0.533,1.733,0.783,3.6,0.75
				C232.167,48.884,233.95,48.4,235.45,47.5z"/>
		</g>
	</g>
	<g>
		<g>
			<path style="fill-rule:evenodd;clip-rule:evenodd;fill:#7F5257;" d="M293.7,41.7c-0.467-0.7-0.367-1.383,0.3-2.05
				c0.8-0.767,2.083-1.2,3.85-1.3c-0.7,0.233-1.367,0.5-2,0.8c-1.267,0.667-1.667,1.233-1.2,1.7c0.633,0.667,2.017,0.816,4.15,0.45
				c2.367-0.4,4.284-1.267,5.75-2.6c0.434,0-0.283,0.767-2.15,2.3c-1.833,1.5-3.583,2.184-5.25,2.05
				C295.383,42.917,294.233,42.467,293.7,41.7z"/>
		</g>
	</g>
	<g>
		<g>
			<path style="fill-rule:evenodd;clip-rule:evenodd;fill:#7F5257;" d="M284,26.45c-1.133,0.767-2.167,1.1-3.1,1
				c-1-0.1-1.65-0.367-1.95-0.8c-0.267-0.4-0.217-0.8,0.15-1.2c0.467-0.467,1.233-0.717,2.3-0.75c-0.433,0.133-0.833,0.283-1.2,0.45
				c-0.767,0.367-1,0.7-0.7,1c0.333,0.333,1.133,0.434,2.4,0.3c1.333-0.167,2.517-0.567,3.55-1.2
				C285.05,25.65,284.567,26.05,284,26.45z"/>
		</g>
	</g>
	<g>
		<g>
			<path style="fill-rule:evenodd;clip-rule:evenodd;fill:#7F5257;" d="M116.35,59c0.867,0.967,2.7,1.017,5.5,0.15
				c2.833-0.867,5.267-2.267,7.3-4.2c-0.7,1.033-1.583,2.1-2.65,3.2c-2.167,2.233-4.367,3.416-6.6,3.55
				c-2.566,0.033-4.2-0.533-4.9-1.7c-0.6-1-0.383-1.866,0.65-2.6c0.934-0.867,2.434-1.5,4.5-1.9c-0.833,0.4-1.617,0.816-2.35,1.25
				C116.3,57.65,115.817,58.4,116.35,59z"/>
		</g>
	</g>
	<g>
		<g>
			<path style="fill-rule:evenodd;clip-rule:evenodd;fill:#7F5257;" d="M106.55,60.7c-1.033,1.833-2.3,2.7-3.8,2.6
				c-0.933-0.066-1.55-0.316-1.85-0.75c-0.233-0.366-0.167-0.717,0.2-1.05c0.4-0.4,1.066-0.634,2-0.7
				c-0.367,0.134-0.717,0.283-1.05,0.45c-0.667,0.333-0.867,0.616-0.6,0.85c0.3,0.367,1.033,0.434,2.2,0.2
				C104.95,62.066,105.917,61.533,106.55,60.7z"/>
		</g>
	</g>
	<g>
		<g>
			<path style="fill-rule:evenodd;clip-rule:evenodd;fill:#7F5257;" d="M111.45,37c-0.767,0.8-1.517,1.167-2.25,1.1
				c-0.5-0.033-0.833-0.167-1-0.4c-0.133-0.2-0.1-0.4,0.1-0.6c0.233-0.233,0.617-0.367,1.15-0.4c-0.2,0.066-0.4,0.15-0.6,0.25
				c-0.4,0.2-0.533,0.367-0.4,0.5c0.2,0.2,0.6,0.25,1.2,0.15C110.317,37.5,110.917,37.3,111.45,37z"/>
		</g>
	</g>
	<g>
		<g>
			<path style="fill-rule:evenodd;clip-rule:evenodd;fill:#7F5257;" d="M183.95,68.45c-1.8,0.899-3.4,1.066-4.8,0.5
				c-1.433-0.601-2.25-1.283-2.45-2.05c-0.167-0.667,0.117-1.167,0.85-1.5c0.833-0.4,1.95-0.434,3.35-0.101
				c-0.633,0.033-1.233,0.084-1.8,0.15c-1.167,0.2-1.633,0.55-1.4,1.05c0.3,0.733,1.383,1.2,3.25,1.4c2.066,0.233,3.8-0.101,5.2-1
				C185.583,67.467,184.85,67.983,183.95,68.45z"/>
		</g>
	</g>
	<g>
		<g>
			<path style="fill-rule:evenodd;clip-rule:evenodd;fill:#7F5257;" d="M172.55,47.75c0.7-0.1,0.184,0.45-1.55,1.65
				c-1.5,1-2.933,1.199-4.3,0.6c-1.267-0.6-1.95-1.233-2.05-1.9c-0.1-0.566,0.184-0.983,0.85-1.25c0.433-0.133,1.033-0.149,1.8-0.05
				l0.95,0.101c-0.5,0.033-0.983,0.066-1.45,0.1c-0.966,0.1-1.383,0.366-1.25,0.8c0.133,0.733,1.067,1.184,2.8,1.351
				C170.217,49.316,171.617,48.85,172.55,47.75z"/>
		</g>
	</g>
	<g>
		<g>
			<path style="fill-rule:evenodd;clip-rule:evenodd;fill:#7F5257;" d="M219.7,33.35c0.7,0.233,1.35,0.35,1.95,0.35
				c-1.2,0.267-2.083,0.25-2.65-0.05c-0.4-0.133-0.667-0.333-0.8-0.6c-0.133-0.267-0.1-0.483,0.1-0.65
				c0.258-0.2,0.666-0.242,1.225-0.125c-0.135,0.01-0.311,0.035-0.525,0.075c-0.5,0.1-0.667,0.25-0.5,0.45
				C218.767,32.967,219.167,33.15,219.7,33.35z"/>
		</g>
	</g>
	<g>
		<g>
			<path style="fill-rule:evenodd;clip-rule:evenodd;fill:#7F5257;" d="M224.85,65.2c-1.2-0.233-1.9-0.634-2.1-1.2
				c-0.167-0.467,0.017-0.85,0.55-1.15c0.567-0.3,1.3-0.449,2.2-0.449c-0.4,0.133-0.783,0.267-1.15,0.399
				c-0.733,0.267-1.017,0.55-0.85,0.851c0.2,0.633,1.05,0.816,2.55,0.55c1.534-0.3,2.517-1.017,2.95-2.15
				c-0.1,0.533-0.383,1.084-0.85,1.65C227.217,64.9,226.117,65.4,224.85,65.2z"/>
		</g>
	</g>
	<g>
		<g>
			<path style="fill-rule:evenodd;clip-rule:evenodd;fill:#7F5257;" d="M279.7,73.85c-2.1,1.267-3.8,1.934-5.1,2
				c-1.033,0.034-1.767-0.149-2.2-0.55c-0.4-0.366-0.433-0.8-0.1-1.3c0.267-0.4,0.784-0.733,1.55-1c0.7-0.233,1.05-0.316,1.05-0.25
				c-0.066-0.066-0.533,0.167-1.4,0.7c-0.833,0.533-1.033,0.934-0.6,1.2C273.533,75.017,275.8,74.75,279.7,73.85z"/>
		</g>
	</g>
	<g>
		<g>
			<path style="fill-rule:evenodd;clip-rule:evenodd;fill:#7F5257;" d="M283.7,41.85c-1.367,0.9-2.6,1.3-3.7,1.2
				c-1.2-0.1-1.983-0.416-2.35-0.95c-0.333-0.5-0.267-0.983,0.2-1.45c0.533-0.533,1.45-0.833,2.75-0.9
				c-0.533,0.167-1.017,0.35-1.45,0.55c-0.933,0.434-1.217,0.833-0.85,1.2c0.434,0.433,1.4,0.55,2.9,0.35
				c1.6-0.2,3.017-0.667,4.25-1.4C284.983,40.917,284.4,41.383,283.7,41.85z"/>
		</g>
	</g>
	<g>
		<g>
			<path style="fill-rule:evenodd;clip-rule:evenodd;fill:#7F5257;" d="M342.8,54.45c-0.767,0.8-1.733,1.566-2.9,2.3
				c-2.367,1.5-4.5,2.116-6.4,1.85c-2.1-0.366-3.4-1.05-3.9-2.05c-0.434-0.866-0.2-1.633,0.7-2.3c0.633-0.467,1.567-0.783,2.8-0.95
				c0.633-0.1,1.217-0.149,1.75-0.149c-0.867,0.233-1.684,0.483-2.45,0.75c-1.5,0.6-2.017,1.199-1.55,1.8
				c0.633,0.899,2.233,1.25,4.8,1.05C338.35,56.517,340.733,55.75,342.8,54.45z"/>
		</g>
	</g>
	<g>
		<g>
			<path style="fill-rule:evenodd;clip-rule:evenodd;fill:#7F5257;" d="M329.85,12.65c-0.033-0.1-0.333,0.067-0.9,0.5
				c-0.567,0.4-0.684,0.667-0.35,0.8c0.233,0.066,0.8,0.033,1.7-0.1c1.2-0.167,2.117-0.267,2.75-0.3c-1.466,0.6-2.566,0.967-3.3,1.1
				c-0.6,0.067-1.05-0.017-1.35-0.25c-0.333-0.2-0.417-0.467-0.25-0.8c0.133-0.3,0.467-0.55,1-0.75
				C329.717,12.617,329.95,12.55,329.85,12.65z"/>
		</g>
	</g>
	<g>
		<g>
			<path style="fill-rule:evenodd;clip-rule:evenodd;fill:#7F5257;" d="M334.35,30.85c-1.533,0.667-2.833,0.883-3.9,0.65
				c-1.267-0.333-2.034-0.8-2.3-1.4c-0.2-0.533-0.017-0.983,0.55-1.35c0.633-0.433,1.566-0.583,2.8-0.45
				c-0.533,0.1-1.033,0.217-1.5,0.35c-0.933,0.267-1.283,0.6-1.05,1c0.333,0.533,1.283,0.817,2.85,0.85c1.5,0,3.017-0.233,4.55-0.7
				C335.783,30.167,335.117,30.517,334.35,30.85z"/>
		</g>
	</g>
	<g>
		<g>
			<path style="fill-rule:evenodd;clip-rule:evenodd;fill:#7F5257;" d="M384.9,62.25c-1.634-0.1-2.7-0.533-3.2-1.3
				c-0.434-0.634-0.334-1.267,0.3-1.9c0.733-0.7,1.934-1.116,3.6-1.25c-0.666,0.233-1.3,0.5-1.899,0.8
				c-1.2,0.601-1.566,1.117-1.101,1.551c0.567,0.633,1.867,0.783,3.9,0.449c2.233-0.366,4.017-1.183,5.35-2.449
				c0.567-0.134-0.1,0.583-2,2.149C388.116,61.733,386.467,62.384,384.9,62.25z"/>
		</g>
	</g>
	<g>
		<g>
			<path style="fill-rule:evenodd;clip-rule:evenodd;fill:#7F5257;" d="M393.45,23.9c-1.733,1.567-3.367,2.05-4.9,1.45
				c-1.033-0.367-1.633-0.817-1.8-1.35c-0.134-0.467,0.05-0.833,0.55-1.1c0.566-0.3,1.367-0.333,2.4-0.1
				c-0.434,0-0.867,0.05-1.3,0.15c-0.834,0.133-1.15,0.367-0.95,0.7c0.233,0.5,1.017,0.817,2.35,0.95
				C391.233,24.767,392.45,24.533,393.45,23.9z"/>
		</g>
	</g>
	<g>
		<g>
			<path style="fill-rule:evenodd;clip-rule:evenodd;fill:#7F5257;" d="M365.8,32.1c-0.533,0.267-0.7,0.5-0.5,0.7
				c0.233,0.2,0.8,0.3,1.7,0.3c0.533-0.033,1.433-0.1,2.7-0.2l-1.25,0.45c-0.934,0.3-1.667,0.433-2.2,0.4
				c-0.667-0.1-1.117-0.3-1.35-0.6c-0.2-0.3-0.167-0.583,0.1-0.85c0.332-0.332,0.915-0.498,1.75-0.5
				C366.572,31.805,366.256,31.905,365.8,32.1z"/>
		</g>
	</g>
	<g>
		<g>
			<path style="fill-rule:evenodd;clip-rule:evenodd;fill:#7F5257;" d="M412.25,67.1c1.2-0.166,2.267-0.533,3.2-1.1
				c-0.334,0.366-0.767,0.717-1.3,1.05c-1.034,0.7-1.967,1-2.801,0.9c-0.899-0.066-1.483-0.3-1.75-0.7
				c-0.233-0.366-0.183-0.717,0.15-1.05c0.4-0.434,1.083-0.667,2.05-0.7c-0.399,0.134-0.767,0.283-1.1,0.45
				c-0.667,0.333-0.867,0.616-0.601,0.85C410.434,67.134,411.15,67.233,412.25,67.1z"/>
		</g>
	</g>
	<g>
		<g>
			<path style="fill-rule:evenodd;clip-rule:evenodd;fill:#7F5257;" d="M392.4,78.25c1.466,0.066,2.716-0.267,3.75-1
				c-0.4,0.4-0.917,0.8-1.551,1.2c-1.233,0.733-2.416,0.916-3.55,0.55c-1.133-0.533-1.717-1.1-1.75-1.7
				c-0.066-0.467,0.2-0.783,0.8-0.95c0.601-0.166,1.334-0.149,2.2,0.051c-0.399,0.033-0.8,0.066-1.2,0.1
				c-0.767,0.066-1.116,0.267-1.05,0.6C390.184,77.767,390.967,78.15,392.4,78.25z"/>
		</g>
	</g>
	<g>
		<g>
			<path style="fill-rule:evenodd;clip-rule:evenodd;fill:#7F5257;" d="M441.45,72.15c-1.101,1.133-2.15,1.649-3.15,1.55
				c-0.7-0.066-1.166-0.25-1.399-0.55c-0.2-0.267-0.167-0.551,0.1-0.851c0.333-0.333,0.884-0.5,1.65-0.5
				c-0.301,0.101-0.584,0.2-0.851,0.3c-0.533,0.267-0.7,0.5-0.5,0.7c0.233,0.233,0.8,0.3,1.7,0.2
				C439.934,72.866,440.75,72.583,441.45,72.15z"/>
		</g>
	</g>
</g>
</svg>
