<?xml version="1.0" encoding="iso-8859-1"?>
<!-- Generator: Adobe Illustrator 15.1.0, SVG Export Plug-In . SVG Version: 6.00 Build 0)  -->
<!DOCTYPE svg PUBLIC "-//W3C//DTD SVG 1.1//EN" "http://www.w3.org/Graphics/SVG/1.1/DTD/svg11.dtd">
<svg version="1.1" id="buildings" xmlns="http://www.w3.org/2000/svg" xmlns:xlink="http://www.w3.org/1999/xlink" x="0px" y="0px"
	 width="119.5px" height="37.8px" viewBox="0 0 119.5 37.8" style="enable-background:new 0 0 119.5 37.8;" xml:space="preserve">
<g>
	<path style="fill-rule:evenodd;clip-rule:evenodd;fill:#FBF5E7;" d="M95,26.45c-8.866,4.033-18.65,5.983-29.35,5.85
		c-10.7-0.133-24.134-2.033-40.3-5.7C17.283,24.767,10.267,22.95,4.3,21.15l31.85-18.5c4.333,1.233,9.517,2.4,15.55,3.5
		c12.066,2.233,22.333,3.067,30.8,2.5c8.467-0.566,17.167-2.183,26.1-4.85c4.5-1.3,8.134-2.566,10.9-3.8l-14.35,20.3
		C102.85,22.366,99.467,24.417,95,26.45z"/>
	<path style="fill-rule:evenodd;clip-rule:evenodd;fill:#F1DFAB;" d="M102,20.15l3,1.649c-3.667,3.101-8.7,6.084-15.1,8.95
		c-12.834,5.733-26.134,7.967-39.9,6.7C36.267,36.217,23.817,34.066,12.65,31C7.05,29.467,2.833,28.066,0,26.8l4.3-5.649
		c2.4,0.767,6.3,1.666,11.7,2.699c10.767,2.067,23.65,3.717,38.65,4.95c15,1.267,27.4,0.2,37.2-3.2
		C96.717,23.9,100.1,22.083,102,20.15z"/>
	<polygon style="fill-rule:evenodd;clip-rule:evenodd;fill:#B6BA9B;" points="119.5,0 108.3,18.3 105,21.8 102,20.15 	"/>
</g>
</svg>
