<?xml version="1.0" encoding="iso-8859-1"?>
<!-- Generator: Adobe Illustrator 15.1.0, SVG Export Plug-In . SVG Version: 6.00 Build 0)  -->
<!DOCTYPE svg PUBLIC "-//W3C//DTD SVG 1.1//EN" "http://www.w3.org/Graphics/SVG/1.1/DTD/svg11.dtd">
<svg version="1.1" id="buildings" xmlns="http://www.w3.org/2000/svg" xmlns:xlink="http://www.w3.org/1999/xlink" x="0px" y="0px"
	 width="130.45px" height="36.25px" viewBox="0 0 130.45 36.25" style="enable-background:new 0 0 130.45 36.25;"
	 xml:space="preserve">
<g>
	<path style="fill-rule:evenodd;clip-rule:evenodd;fill:#FAF2E2;" d="M118.7,15.95c-31.967,7-52.834,11.184-62.6,12.55
		c-13.733,1.934-27.2,2.116-40.4,0.55C9.1,28.283,3.867,27.316,0,26.15l1.25-9c26.867-2.467,49.6-5.066,68.2-7.8
		c20.2-3,40.533-6.117,61-9.35L118.7,15.95z"/>
	<path style="fill-rule:evenodd;clip-rule:evenodd;fill:#EFD79F;" d="M86.65,29.75c-23.101,4.833-38.95,6.967-47.55,6.4
		c-8.6-0.534-17.567-1.801-26.9-3.801c-4.667-1-8.483-1.949-11.45-2.85L0,26.15c2.867,0.333,6.583,0.633,11.15,0.899
		c9.133,0.566,18,0.717,26.6,0.45c8.633-0.267,24.717-2.267,48.25-6c11.767-1.866,22.667-3.717,32.7-5.55v6.35
		C108.866,24.833,98.184,27.316,86.65,29.75z"/>
	<polygon style="fill-rule:evenodd;clip-rule:evenodd;fill:#ADAF8D;" points="130.45,7.65 118.7,22.3 118.7,15.95 130.45,0 	"/>
</g>
</svg>
