<?xml version="1.0" encoding="iso-8859-1"?>
<!-- Generator: Adobe Illustrator 15.1.0, SVG Export Plug-In . SVG Version: 6.00 Build 0)  -->
<!DOCTYPE svg PUBLIC "-//W3C//DTD SVG 1.1//EN" "http://www.w3.org/Graphics/SVG/1.1/DTD/svg11.dtd">
<svg version="1.1" id="ground" xmlns="http://www.w3.org/2000/svg" xmlns:xlink="http://www.w3.org/1999/xlink" x="0px" y="0px"
	 width="491.4px" height="45.8px" viewBox="0 0 491.4 45.8" style="enable-background:new 0 0 491.4 45.8;" xml:space="preserve">
<g>
	<path style="fill-rule:evenodd;clip-rule:evenodd;fill:#7F5257;" d="M390.3,13.4c38.733,8.934,72.434,19.734,101.101,32.4
		L-0.025,45.75C20.008,45.217,40.233,42.967,60.65,39c11.434-2.2,32.184-7.233,62.25-15.1c27.333-7.134,50.75-12.333,70.25-15.601
		c29.434-4.933,60.517-7.683,93.25-8.25C314.8-0.45,349.434,4,390.3,13.4z"/>
	<g>
		<g>
			<path style="fill-rule:evenodd;clip-rule:evenodd;fill:#70424A;" d="M136.8,36.05c6.7-0.033,12.85-1.283,18.45-3.75
				c-2.2,1.733-4.85,3.367-7.95,4.9c-6.233,3.066-11.583,4.133-16.05,3.2c-5-1.034-8.133-2.767-9.4-5.2
				c-1.133-2.167-0.617-4.101,1.55-5.8c1.6-1.233,4.067-2,7.4-2.301c1.667-0.133,3.184-0.149,4.55-0.05
				c-2.233,0.367-4.35,0.884-6.35,1.55c-4,1.367-5.383,2.851-4.15,4.45C126.45,35.05,130.433,36.05,136.8,36.05z"/>
		</g>
	</g>
	<g>
		<g>
			<path style="fill-rule:evenodd;clip-rule:evenodd;fill:#70424A;" d="M277.95,19.1c-3.5,2.033-6.667,2.717-9.5,2.05
				c-2.967-0.733-4.767-1.833-5.4-3.3c-0.566-1.267-0.184-2.367,1.15-3.3c0.967-0.633,2.383-1.017,4.25-1.15
				c0.934-0.033,1.783-0.017,2.55,0.05c-1.267,0.2-2.467,0.466-3.6,0.8c-2.301,0.7-3.134,1.517-2.5,2.45
				c0.833,1.333,3.133,1.983,6.899,1.95c4.033-0.033,7.517-0.983,10.45-2.85C281.116,16.967,279.684,18.067,277.95,19.1z"/>
		</g>
	</g>
	<g>
		<g>
			<path style="fill-rule:evenodd;clip-rule:evenodd;fill:#70424A;" d="M212.9,34.65c1.033-0.667,2.55-1.017,4.55-1.051
				c1,0,1.9,0.051,2.7,0.15c-1.333,0.134-2.617,0.366-3.85,0.7c-2.466,0.666-3.367,1.5-2.7,2.5c0.867,1.333,3.233,2.1,7.1,2.3
				c4.167,0.2,7.867-0.483,11.1-2.05c-1.3,1.066-2.9,2.05-4.8,2.95c-3.8,1.8-7.083,2.3-9.85,1.5c-3-0.834-4.816-2.017-5.45-3.551
				C211.1,36.733,211.5,35.583,212.9,34.65z"/>
		</g>
	</g>
	<g>
		<g>
			<path style="fill-rule:evenodd;clip-rule:evenodd;fill:#70424A;" d="M421.45,36.25c-2.066,0.833-4.384,1.6-6.95,2.3
				c-5.134,1.4-9.217,1.733-12.25,1c-3.634-0.899-5.95-2.283-6.95-4.149c-0.899-1.7-0.533-3.2,1.101-4.5
				c1.267-1.034,3.267-1.617,6-1.75c2.5-0.101,3.75-0.034,3.75,0.199c-0.167-0.366-1.917-0.05-5.25,0.95
				c-3.267,0.967-4.367,2.101-3.301,3.4c1.233,1.333,4.267,2.25,9.101,2.75C411.366,36.917,416.283,36.85,421.45,36.25z"/>
		</g>
	</g>
	<g>
		<g>
			<path style="fill-rule:evenodd;clip-rule:evenodd;fill:#70424A;" d="M238.2,19.8c-3.633,2.167-6.983,2.684-10.05,1.55
				c-3.066-1.267-4.783-2.7-5.15-4.3c-0.3-1.4,0.317-2.433,1.85-3.1c1.066-0.434,2.517-0.583,4.35-0.45c0.9,0.1,1.683,0.2,2.35,0.3
				c-1.2,0.1-2.383,0.233-3.55,0.4c-2.333,0.367-3.3,1.05-2.9,2.05c0.5,1.667,2.767,2.65,6.8,2.95c4.3,0.267,7.783-0.717,10.45-2.95
				c0.2-0.033-0.133,0.35-1,1.15C240.417,18.3,239.367,19.1,238.2,19.8z"/>
		</g>
	</g>
	<g>
		<g>
			<path style="fill-rule:evenodd;clip-rule:evenodd;fill:#70424A;" d="M71.95,42.3c1.367-0.399,2.433-1.033,3.2-1.899
				c-1.2,1.966-2.55,2.983-4.05,3.05c-0.967,0.1-1.65-0.05-2.05-0.45c-0.367-0.333-0.417-0.733-0.15-1.2
				c0.233-0.333,0.684-0.633,1.35-0.899c0.333-0.134,0.633-0.233,0.9-0.301c-0.433,0.233-0.816,0.467-1.15,0.7
				c-0.733,0.533-0.917,0.9-0.55,1.101C69.883,42.667,70.717,42.634,71.95,42.3z"/>
		</g>
	</g>
	<g>
		<g>
			<path style="fill-rule:evenodd;clip-rule:evenodd;fill:#70424A;" d="M454.8,37.55c0.533-0.399,1.334-0.666,2.4-0.8
				c0.566-0.066,1.066-0.1,1.5-0.1c-0.733,0.166-1.434,0.366-2.101,0.6c-1.3,0.5-1.75,1-1.35,1.5c0.533,0.767,1.9,1.083,4.1,0.95
				c2.301-0.167,4.317-0.8,6.051-1.9c-0.667,0.667-1.5,1.316-2.5,1.95c-1.967,1.267-3.767,1.767-5.4,1.5
				c-1.8-0.333-2.9-0.917-3.3-1.75C453.833,38.733,454.033,38.083,454.8,37.55z"/>
		</g>
	</g>
	<g>
		<g>
			<path style="fill-rule:evenodd;clip-rule:evenodd;fill:#70424A;" d="M172.35,35.9c0.467-0.634,1.3-1.167,2.5-1.601
				c0.6-0.2,1.15-0.366,1.65-0.5c-0.8,0.4-1.533,0.816-2.2,1.25c-1.333,0.9-1.683,1.584-1.05,2.05c0.8,0.601,2.367,0.551,4.7-0.149
				c2.466-0.7,4.583-1.8,6.35-3.3c-0.6,0.866-1.4,1.75-2.4,2.649c-1.933,1.8-3.783,2.75-5.55,2.851c-1.967,0.133-3.3-0.184-4-0.95
				C171.717,37.533,171.717,36.767,172.35,35.9z"/>
		</g>
	</g>
	<g>
		<g>
			<path style="fill-rule:evenodd;clip-rule:evenodd;fill:#70424A;" d="M321.1,12.15c0.434,0.667,1.617,1.033,3.551,1.1
				c2.133,0.067,3.933-0.367,5.399-1.3c0.5,0-0.25,0.55-2.25,1.65c-1.833,1-3.467,1.3-4.899,0.9c-1.534-0.4-2.45-1-2.75-1.8
				c-0.301-0.667-0.101-1.233,0.6-1.7c0.8-0.533,1.983-0.7,3.55-0.5c-0.633,0.1-1.267,0.233-1.899,0.4
				C321.2,11.233,320.767,11.65,321.1,12.15z"/>
		</g>
	</g>
	<g>
		<g>
			<path style="fill-rule:evenodd;clip-rule:evenodd;fill:#70424A;" d="M348.8,34.65c-0.666,0.133-1.434,0.366-2.3,0.699
				c-1.7,0.667-2.95,1.483-3.75,2.45c-0.866,1.267,2.15,2,9.05,2.2c3.4,0.097,5.976,0.113,7.726,0.05
				c-10.328,1.573-16.503,1.257-18.525-0.95c-1.3-1.233-0.384-2.316,2.75-3.25C345.316,35.35,347,34.95,348.8,34.65z"/>
		</g>
	</g>
	<g>
		<g>
			<path style="fill-rule:evenodd;clip-rule:evenodd;fill:#70424A;" d="M361,20.1c1.599-0.063,2.898-0.138,3.9-0.225
				c-5.796,1.331-9.296,1.306-10.5-0.075c-0.767-0.733-0.217-1.4,1.649-2c0.934-0.3,1.917-0.566,2.95-0.8
				c-1.566,0.4-2.733,1.067-3.5,2C354.967,19.9,356.8,20.267,361,20.1z"/>
		</g>
	</g>
	<g>
		<g>
			<path style="fill-rule:evenodd;clip-rule:evenodd;fill:#70424A;" d="M302.8,30.1c1.236-0.487,2.587-0.896,4.05-1.225
				c-0.543,0.138-1.144,0.362-1.8,0.675c-1.366,0.601-2.35,1.334-2.95,2.2c-0.6,0.866,1.867,1.35,7.4,1.45
				c2.733,0.033,5.533-0.033,8.4-0.2c-2.367,0.366-4.867,0.634-7.5,0.8c-5.2,0.367-8.4,0.084-9.601-0.85
				C299.6,32.05,300.267,31.1,302.8,30.1z"/>
		</g>
	</g>
	<g>
		<g>
			<path style="fill-rule:evenodd;clip-rule:evenodd;fill:#70424A;" d="M268.35,38.6c-1.833,0.267-3.183,0.917-4.05,1.95
				c-0.6,0.733,1.334,1.283,5.8,1.65c2.168,0.174,3.826,0.273,4.976,0.3c-6.734,0.604-10.726,0.222-11.976-1.15
				c-0.866-0.833-0.25-1.533,1.851-2.1C266.017,38.95,267.15,38.733,268.35,38.6z"/>
		</g>
	</g>
	<g>
		<g>
			<path style="fill-rule:evenodd;clip-rule:evenodd;fill:#70424A;" d="M191.75,20.1c-0.2,0.066-0.417,0.15-0.65,0.25
				c-0.434,0.233-0.717,0.517-0.85,0.85c-0.1,0.133,0.667,0.233,2.3,0.3l2.55,0.15c-2.867,0.067-4.583,0.05-5.15-0.05
				c-0.5-0.2-0.35-0.517,0.45-0.95C191.267,20.15,191.717,19.967,191.75,20.1z"/>
		</g>
	</g>
</g>
</svg>
