<?xml version="1.0" encoding="iso-8859-1"?>
<!-- Generator: Adobe Illustrator 15.1.0, SVG Export Plug-In . SVG Version: 6.00 Build 0)  -->
<!DOCTYPE svg PUBLIC "-//W3C//DTD SVG 1.1//EN" "http://www.w3.org/Graphics/SVG/1.1/DTD/svg11.dtd">
<svg version="1.1" id="Isolation_Mode" xmlns="http://www.w3.org/2000/svg" xmlns:xlink="http://www.w3.org/1999/xlink" x="0px"
	 y="0px" width="555.95px" height="212.45px" viewBox="0 0 555.95 212.45" style="enable-background:new 0 0 555.95 212.45;"
	 xml:space="preserve">
<g>
	<path style="fill-rule:evenodd;clip-rule:evenodd;fill:#987070;" d="M0,0c41.467,14.7,146.567,54.517,315.3,119.45
		c84.367,32.467,164.584,63.467,240.65,93H0V0z"/>
	<g>
		<g>
			<path style="fill-rule:evenodd;clip-rule:evenodd;fill:#895D60;" d="M198.1,156.45c1.7-1.533,4.433-2.65,8.2-3.351
				c1.9-0.366,3.633-0.566,5.2-0.6c-2.533,0.7-4.917,1.55-7.15,2.55c-4.4,1.967-5.833,3.8-4.3,5.5c2.034,2.2,6.733,2.934,14.1,2.2
				c7.1-0.733,14.283-2.55,21.55-5.45c-2.7,1.934-5.784,3.884-9.25,5.851c-7,3.966-13.05,5.75-18.15,5.35
				c-6.066-0.634-9.933-2.366-11.6-5.2C195.2,160.833,195.667,158.55,198.1,156.45z"/>
		</g>
	</g>
	<g>
		<g>
			<path style="fill-rule:evenodd;clip-rule:evenodd;fill:#895D60;" d="M80.5,97.95c2.3,0.267,4.233-0.117,5.8-1.15
				c-2.8,2.467-5.417,3.233-7.85,2.3c-1.5-0.5-2.417-1.167-2.75-2c-0.3-0.767-0.083-1.383,0.65-1.85c0.6-0.333,1.45-0.467,2.55-0.4
				c0.533,0,1.017,0.05,1.45,0.15c-0.733,0-1.434,0.083-2.1,0.25c-1.367,0.267-1.867,0.683-1.5,1.25
				C77.15,97.233,78.4,97.717,80.5,97.95z"/>
		</g>
	</g>
	<g>
		<g>
			<path style="fill-rule:evenodd;clip-rule:evenodd;fill:#895D60;" d="M89.55,132.2c-0.333-1.101,0.117-1.967,1.35-2.601
				c0.833-0.433,1.983-0.649,3.45-0.649c0.733,0,1.383,0.017,1.95,0.05c-0.966,0.167-1.917,0.35-2.85,0.55
				c-1.867,0.467-2.6,1.084-2.2,1.851c0.567,1.333,2.467,1.983,5.7,1.949c3.367-0.033,6.267-0.866,8.7-2.5
				c-0.933,0.967-2.117,1.9-3.55,2.801c-2.9,1.767-5.583,2.333-8.05,1.699C91.45,134.517,89.95,133.467,89.55,132.2z"/>
		</g>
	</g>
	<g>
		<g>
			<path style="fill-rule:evenodd;clip-rule:evenodd;fill:#895D60;" d="M449.15,191.55c0.866-0.967,2.316-1.649,4.35-2.05
				c0.763-0.147,1.471-0.239,2.125-0.275c-0.618,0.189-1.66,0.632-3.125,1.325c-2.333,1.101-3.033,2.084-2.1,2.95
				c1.1,1.066,3.533,1.4,7.3,1c4.267-0.434,7.649-1.8,10.149-4.1c-4.333,5.333-8.733,7.666-13.199,7
				c-2.867-0.301-4.784-1.067-5.75-2.301C448.033,193.967,448.116,192.783,449.15,191.55z"/>
		</g>
	</g>
	<g>
		<g>
			<path style="fill-rule:evenodd;clip-rule:evenodd;fill:#895D60;" d="M402.9,175.45c4.5,0.366,8.3-0.483,11.399-2.55
				c-1.2,1.267-2.783,2.416-4.75,3.449c-3.934,2.101-7.467,2.567-10.6,1.4c-3.2-1.267-5.033-2.75-5.5-4.45
				c-0.367-1.5,0.25-2.616,1.85-3.35c1.134-0.5,2.684-0.684,4.65-0.55c1,0.066,1.883,0.166,2.649,0.3
				c-1.333,0.066-2.633,0.217-3.899,0.45c-2.5,0.399-3.517,1.133-3.05,2.199C396.25,174.083,398.667,175.116,402.9,175.45z"/>
		</g>
	</g>
	<g>
		<g>
			<path style="fill-rule:evenodd;clip-rule:evenodd;fill:#895D60;" d="M343.55,180c0.8-0.333,0.184,0.767-1.85,3.3
				c-1.8,2.233-3.816,3.367-6.05,3.4c-2.233-0.033-3.684-0.5-4.351-1.4c-0.6-0.8-0.5-1.633,0.3-2.5
				c0.567-0.566,1.467-1.033,2.7-1.399c0.634-0.2,1.184-0.351,1.65-0.45c-0.767,0.366-1.517,0.767-2.25,1.2
				c-1.434,0.833-1.867,1.517-1.3,2.05c0.733,0.899,2.433,0.95,5.1,0.149C340.366,183.483,342.384,182.033,343.55,180z"/>
		</g>
	</g>
	<g>
		<g>
			<path style="fill-rule:evenodd;clip-rule:evenodd;fill:#895D60;" d="M11.7,22.35c0.733-0.2,1.417-0.333,2.05-0.4
				c-1,0.367-1.933,0.783-2.8,1.25c-1.767,0.933-2.317,1.716-1.65,2.35c0.9,0.867,2.867,1.034,5.9,0.5
				c3.033-0.566,5.85-1.633,8.45-3.2c-0.967,0.967-2.117,1.933-3.45,2.9c-2.667,1.933-5.1,2.883-7.3,2.85
				c-2.5-0.1-4.117-0.7-4.85-1.8c-0.7-0.966-0.583-1.917,0.35-2.85C9.067,23.25,10.167,22.717,11.7,22.35z"/>
		</g>
	</g>
	<g>
		<g>
			<path style="fill-rule:evenodd;clip-rule:evenodd;fill:#895D60;" d="M33.5,83.3c3.167,0.5,5.95,0.167,8.35-1
				c-0.967,0.8-2.184,1.5-3.65,2.1c-2.967,1.2-5.517,1.333-7.65,0.4c-2.233-1-3.483-2.117-3.75-3.35
				c-0.233-1.067,0.233-1.85,1.4-2.35c0.833-0.367,1.966-0.45,3.4-0.25c0.733,0.066,1.383,0.183,1.95,0.35c-1,0-1.95,0.05-2.85,0.15
				c-1.867,0.2-2.633,0.7-2.3,1.5C28.8,82.05,30.5,82.867,33.5,83.3z"/>
		</g>
	</g>
	<g>
		<g>
			<path style="fill-rule:evenodd;clip-rule:evenodd;fill:#895D60;" d="M44.45,47.4c0.8,2.133,3.6,3.05,8.4,2.75
				c4.9-0.267,9.167-1.683,12.8-4.25c-1.4,1.467-3.117,2.9-5.15,4.3c-4.1,2.833-8.033,3.883-11.8,3.15
				c-4.2-1.233-6.483-2.95-6.85-5.15c-0.333-1.9,0.5-3.083,2.5-3.55c1.167-0.433,2.733-0.683,4.7-0.75
				c0.967-0.033,1.867-0.033,2.7,0c-1.333,0.267-2.65,0.567-3.95,0.9C45.2,45.433,44.083,46.3,44.45,47.4z"/>
		</g>
	</g>
	<g>
		<g>
			<path style="fill-rule:evenodd;clip-rule:evenodd;fill:#895D60;" d="M42.85,184.65c-1.233-1.867-0.917-3.601,0.95-5.2
				c1.167-1.134,2.983-2.134,5.45-3c1.267-0.434,2.417-0.767,3.45-1c0.066,0.1-1.467,0.95-4.6,2.55
				c-2.934,1.833-3.85,3.316-2.75,4.45c1.733,1.8,5.333,1.816,10.8,0.05c5.419-1.784,10.019-4.518,13.8-8.2
				c-0.638,0.729-2.238,2.762-4.8,6.101c-4.133,4.433-8.383,6.833-12.75,7.199C47.467,187.767,44.283,186.783,42.85,184.65z"/>
		</g>
	</g>
	<g>
		<g>
			<path style="fill-rule:evenodd;clip-rule:evenodd;fill:#895D60;" d="M40.7,145.85c-1.3,0.834-2.5,1.134-3.6,0.9
				c-1.2-0.3-1.917-0.733-2.15-1.3c-0.167-0.5,0.017-0.917,0.55-1.25c0.367-0.2,0.883-0.316,1.55-0.351
				c0.367-0.033,0.684-0.05,0.95-0.05c-0.467,0.101-0.9,0.217-1.3,0.351c-0.833,0.267-1.167,0.566-1,0.899
				c0.3,0.566,1.183,0.816,2.65,0.75c1.5-0.1,2.816-0.517,3.95-1.25L40.7,145.85z"/>
		</g>
	</g>
	<g>
		<g>
			<path style="fill-rule:evenodd;clip-rule:evenodd;fill:#895D60;" d="M30.75,180.1l-2.15,2.351c-1.8,1.6-3.567,2.35-5.3,2.25
				c-1.933-0.2-3.117-0.733-3.55-1.601c-0.4-0.733-0.2-1.383,0.6-1.949c0.5-0.4,1.267-0.7,2.3-0.9c0.5-0.1,0.95-0.184,1.35-0.25
				c0.033,0.066-0.6,0.333-1.9,0.8c-1.2,0.566-1.633,1.084-1.3,1.55c0.567,0.834,1.967,1.017,4.2,0.551
				C27.3,182.434,29.217,181.5,30.75,180.1z"/>
		</g>
	</g>
	<g>
		<g>
			<path style="fill-rule:evenodd;clip-rule:evenodd;fill:#895D60;" d="M23.6,204.75c-2.2,1.333-4.267,1.733-6.2,1.2
				c-2.033-0.8-3.133-1.717-3.3-2.75c-0.167-0.9,0.267-1.517,1.3-1.851c0.633-0.233,1.467-0.316,2.5-0.25
				c0.533,0,1.017,0.017,1.45,0.051c-0.733,0.1-1.434,0.216-2.1,0.35c-1.367,0.233-1.967,0.65-1.8,1.25
				c0.3,1.134,1.716,1.717,4.25,1.75c2.48,0.032,4.622-0.543,6.425-1.725C25.77,203.034,24.928,203.692,23.6,204.75z"/>
		</g>
	</g>
	<g>
		<g>
			<path style="fill-rule:evenodd;clip-rule:evenodd;fill:#895D60;" d="M144.3,196.35c-2.767,0.934-3.75,1.95-2.95,3.051
				c1.066,1.566,3.867,2.267,8.4,2.1c4.833-0.167,9.017-1.35,12.55-3.55c-1.367,1.399-3.083,2.717-5.15,3.95
				c-4.2,2.5-7.967,3.399-11.3,2.699c-3.633-0.767-5.85-2.033-6.65-3.8c-0.733-1.5-0.317-2.833,1.25-4c1.133-0.8,2.833-1.3,5.1-1.5
				c1.133-0.066,2.15-0.083,3.05-0.05C147.1,195.517,145.667,195.884,144.3,196.35z"/>
		</g>
	</g>
	<g>
		<g>
			<path style="fill-rule:evenodd;clip-rule:evenodd;fill:#895D60;" d="M35,121.15c0.033,0-0.983,0.75-3.05,2.25
				c-2.467,1.399-4.7,1.8-6.7,1.199c-2.1-0.699-3.317-1.583-3.65-2.649c-0.3-0.9,0.05-1.634,1.05-2.2
				c0.7-0.366,1.684-0.533,2.95-0.5c0.633,0,1.2,0.033,1.7,0.1c-0.833,0.101-1.65,0.233-2.45,0.4c-1.6,0.366-2.233,0.884-1.9,1.55
				c0.5,1.033,2.083,1.601,4.75,1.7C30.533,123.066,32.967,122.45,35,121.15z"/>
		</g>
	</g>
	<g>
		<g>
			<path style="fill-rule:evenodd;clip-rule:evenodd;fill:#895D60;" d="M13.25,158.35c-1.867-0.333-3.033-0.949-3.5-1.85
				c-0.367-0.8-0.15-1.483,0.65-2.05c0.567-0.434,1.417-0.717,2.55-0.851c0.566-0.066,1.083-0.1,1.55-0.1
				c-0.733,0.167-1.45,0.384-2.15,0.65c-1.367,0.5-1.85,1.033-1.45,1.6c0.567,0.8,2.017,1.116,4.35,0.95
				c2.433-0.2,4.567-0.884,6.4-2.05l-2.65,2.1C16.9,158.083,14.983,158.616,13.25,158.35z"/>
		</g>
	</g>
	<g>
		<g>
			<path style="fill-rule:evenodd;clip-rule:evenodd;fill:#895D60;" d="M9.05,190.05c1.7-0.333,3.233-0.883,4.6-1.649
				c-2.1,2.033-4.017,3.05-5.75,3.05c-1.2,0.033-2.05-0.184-2.55-0.65c-0.467-0.434-0.517-0.95-0.15-1.55
				c0.333-0.467,0.933-0.85,1.8-1.15c0.8-0.267,1.2-0.35,1.2-0.25c-0.067-0.133-0.6,0.134-1.6,0.801c-0.967,0.6-1.2,1.066-0.7,1.399
				C6.433,190.35,7.483,190.35,9.05,190.05z"/>
		</g>
	</g>
	<g>
		<g>
			<path style="fill-rule:evenodd;clip-rule:evenodd;fill:#895D60;" d="M50.2,197.35c0,0.034-0.6,0.284-1.8,0.75
				c-1.1,0.567-1.45,1.051-1.05,1.45c0.533,0.601,1.767,0.733,3.7,0.4c2.067-0.367,3.733-1.15,5-2.351c0.4,0-0.216,0.684-1.85,2.051
				c-1.6,1.333-3.15,1.949-4.65,1.85c-1.533-0.1-2.533-0.5-3-1.2c-0.4-0.6-0.316-1.184,0.25-1.75c0.434-0.434,1.133-0.767,2.1-1
				C49.367,197.45,49.8,197.384,50.2,197.35z"/>
		</g>
	</g>
	<g>
		<g>
			<path style="fill-rule:evenodd;clip-rule:evenodd;fill:#895D60;" d="M8.95,39.2c-0.5,0.033-0.967,0.083-1.4,0.15
				c-0.933,0.133-1.367,0.383-1.3,0.75c0.167,0.767,1.117,1.233,2.85,1.4c1.8,0.133,3.316-0.217,4.55-1.05
				c0.033,0-0.6,0.45-1.9,1.35c-1.567,0.833-2.983,1.034-4.25,0.6c-0.733-0.267-1.317-0.633-1.75-1.1
				c-0.4-0.433-0.583-0.867-0.55-1.3c0.033-0.267,0.2-0.45,0.5-0.55c0.2-0.067,0.466-0.15,0.8-0.25c0.3-0.133,0.8-0.184,1.5-0.15
				C8.367,39.083,8.683,39.133,8.95,39.2z"/>
		</g>
	</g>
	<g>
		<g>
			<path style="fill-rule:evenodd;clip-rule:evenodd;fill:#895D60;" d="M11,10.8c-1.267,1.267-2.483,1.85-3.65,1.75
				c-0.8-0.066-1.333-0.283-1.6-0.65c-0.2-0.333-0.15-0.65,0.15-0.95c0.367-0.333,0.983-0.517,1.85-0.55
				c-0.333,0.1-0.667,0.217-1,0.35c-0.6,0.267-0.783,0.517-0.55,0.75c0.3,0.3,0.95,0.383,1.95,0.25
				C9.217,11.617,10.167,11.3,11,10.8z"/>
		</g>
	</g>
	<g>
		<g>
			<path style="fill-rule:evenodd;clip-rule:evenodd;fill:#895D60;" d="M20.8,61.2c-2.367-0.567-4.283-1.517-5.75-2.85
				c-1.2-1.1-1.867-2.2-2-3.3c-0.233-1.7,0.767-3,3-3.9c1.333-0.467,3.117-0.717,5.35-0.75c1.133-0.033,2.167-0.017,3.1,0.05
				c-1.567,0.267-3.1,0.583-4.6,0.95c-2.967,0.667-4.233,1.633-3.8,2.9c0.333,1,1.417,1.85,3.25,2.55
				c1.933,0.733,4.05,1.033,6.35,0.9c4.2-0.133,9.15-1.55,14.85-4.25c-1.7,1.533-3.767,3.05-6.2,4.55
				C29.517,61.05,25,62.1,20.8,61.2z"/>
		</g>
	</g>
	<g>
		<g>
			<path style="fill-rule:evenodd;clip-rule:evenodd;fill:#895D60;" d="M8.45,94.95c0.966,0,1.816-0.233,2.55-0.7l-1.05,0.8
				c-0.867,0.534-1.667,0.7-2.4,0.5c-0.8-0.267-1.233-0.6-1.3-1c-0.067-0.333,0.083-0.583,0.45-0.75c0.233-0.1,0.566-0.15,1-0.15
				h0.55c-0.267,0.067-0.533,0.133-0.8,0.2c-0.534,0.1-0.767,0.267-0.7,0.5C6.917,94.75,7.483,94.95,8.45,94.95z"/>
		</g>
	</g>
	<g>
		<g>
			<path style="fill-rule:evenodd;clip-rule:evenodd;fill:#895D60;" d="M10.1,76.1c1.167,0.066,2.133-0.133,2.9-0.6
				c-1.433,1.167-2.7,1.567-3.8,1.2c-0.733-0.133-1.217-0.383-1.45-0.75C7.55,75.583,7.6,75.267,7.9,75
				c0.267-0.233,0.684-0.367,1.25-0.4c0.205-0.023,0.396-0.031,0.575-0.025c-0.187,0.039-0.479,0.131-0.875,0.275
				c-0.667,0.2-0.883,0.433-0.65,0.7C8.5,75.85,9.133,76.033,10.1,76.1z"/>
		</g>
	</g>
	<g>
		<g>
			<path style="fill-rule:evenodd;clip-rule:evenodd;fill:#895D60;" d="M40.3,105.35l-5,3.95c-3.966,2.533-7.583,3.533-10.85,3
				c-3.6-0.666-5.8-1.85-6.6-3.55c-0.7-1.467-0.283-2.767,1.25-3.9c1.066-0.8,2.667-1.317,4.8-1.55c1.1-0.1,2.083-0.15,2.95-0.15
				c-1.434,0.333-2.8,0.733-4.1,1.2c-2.633,0.933-3.567,1.917-2.8,2.95c1.066,1.566,3.8,2.184,8.2,1.851
				C32.75,108.816,36.8,107.55,40.3,105.35z"/>
		</g>
	</g>
	<g>
		<g>
			<path style="fill-rule:evenodd;clip-rule:evenodd;fill:#895D60;" d="M9.15,122.45c0,0.033-0.383,0.017-1.15-0.05
				c-0.767-0.067-1.167,0.05-1.2,0.35c-0.233,0.866,0.5,1.434,2.2,1.7c1.7,0.3,2.95-0.101,3.75-1.2c0.1-0.033-0.367,0.45-1.4,1.45
				c-1.333,0.934-2.667,1.017-4,0.25c-1.1-0.9-1.583-1.667-1.45-2.3c0.133-0.534,0.533-0.767,1.2-0.7
				C7.733,122.017,8.417,122.184,9.15,122.45z"/>
		</g>
	</g>
	<g>
		<g>
			<path style="fill-rule:evenodd;clip-rule:evenodd;fill:#895D60;" d="M27.4,141.2c-1.167,1.3-2.483,1.85-3.95,1.649
				c-1.367-0.233-2.184-0.683-2.45-1.35c-0.233-0.533-0.05-0.983,0.55-1.35c0.4-0.233,0.967-0.417,1.7-0.551
				c0.367-0.033,0.683-0.066,0.95-0.1c0.033,0.066-0.434,0.233-1.4,0.5c-0.9,0.333-1.233,0.684-1,1.05c0.3,0.7,1.3,0.9,3,0.601
				c1.833-0.301,3.083-1.101,3.75-2.4C28.617,139.217,28.233,139.866,27.4,141.2z"/>
		</g>
	</g>
	<g>
		<g>
			<path style="fill-rule:evenodd;clip-rule:evenodd;fill:#895D60;" d="M49.65,162.55c-1.767,1.7-3.383,2.584-4.85,2.65
				c-1.033,0.066-1.767-0.101-2.2-0.5c-0.4-0.367-0.434-0.8-0.1-1.3c0.267-0.4,0.767-0.733,1.5-1
				c0.324-0.114,0.566-0.188,0.725-0.226c-0.217,0.09-0.575,0.315-1.075,0.675c-0.8,0.534-0.983,0.934-0.55,1.2
				c0.467,0.233,1.35,0.217,2.65-0.05C47.15,163.7,48.45,163.217,49.65,162.55z"/>
		</g>
	</g>
	<g>
		<g>
			<path style="fill-rule:evenodd;clip-rule:evenodd;fill:#895D60;" d="M149.65,169.85c-1.733,1.767-3.867,3.5-6.4,5.2
				c-5.133,3.434-9.883,4.8-14.25,4.101c-4.867-1-7.75-2.7-8.65-5.101c-0.8-2.1-0.117-3.75,2.05-4.95
				c1.4-0.866,3.434-1.433,6.1-1.699c1.333-0.134,2.55-0.184,3.65-0.15c-1.8,0.4-3.533,0.884-5.2,1.45
				c-3.3,1.133-4.534,2.383-3.7,3.75c1.267,2.166,4.8,3.017,10.6,2.55C139.85,174.533,145.117,172.816,149.65,169.85z"/>
		</g>
	</g>
	<g>
		<g>
			<path style="fill-rule:evenodd;clip-rule:evenodd;fill:#895D60;" d="M115.7,204.15c-3.267,1.733-6.15,2.183-8.65,1.35
				c-2.6-0.8-4.167-1.866-4.7-3.2c-0.467-1.166-0.083-2.133,1.15-2.899c0.9-0.567,2.217-0.851,3.95-0.851
				c0.867,0,1.633,0.05,2.3,0.15c-1.167,0.1-2.283,0.283-3.35,0.55c-2.133,0.5-2.917,1.2-2.35,2.1c0.7,1.2,2.75,1.9,6.15,2.101
				c3.733,0.233,6.883-0.467,9.45-2.101c0.133,0-0.2,0.301-1,0.9C117.717,202.983,116.733,203.616,115.7,204.15z"/>
		</g>
	</g>
	<g>
		<g>
			<path style="fill-rule:evenodd;clip-rule:evenodd;fill:#895D60;" d="M99.2,169.2c-0.567,0.366-1.233,0.717-2,1.05
				c-1.534,0.667-2.833,0.884-3.9,0.65c-1.267-0.334-2.033-0.801-2.3-1.4c-0.2-0.533-0.017-0.983,0.55-1.35
				c0.4-0.267,0.983-0.417,1.75-0.45c0.367-0.033,0.717-0.033,1.05,0c-0.533,0.1-1.033,0.217-1.5,0.35
				c-0.934,0.267-1.283,0.601-1.05,1c0.333,0.533,1.284,0.816,2.85,0.851C96.15,169.9,97.667,169.667,99.2,169.2z"/>
		</g>
	</g>
	<g>
		<g>
			<path style="fill-rule:evenodd;clip-rule:evenodd;fill:#895D60;" d="M82.25,204c-2.267,1.233-4.3,1.55-6.1,0.95
				c-1.867-0.634-2.933-1.434-3.2-2.4c-0.267-0.866,0.05-1.533,0.95-2c0.633-0.333,1.533-0.483,2.7-0.45
				c0.566,0.034,1.083,0.084,1.55,0.15c-0.8,0.066-1.566,0.184-2.3,0.35c-1.434,0.301-2,0.75-1.7,1.351
				c0.434,0.934,1.85,1.467,4.25,1.6c2.6,0.134,4.8-0.383,6.6-1.55C85.067,202,84.15,202.667,82.25,204z"/>
		</g>
	</g>
	<g>
		<g>
			<path style="fill-rule:evenodd;clip-rule:evenodd;fill:#895D60;" d="M69.1,148.25c0.767,0.767,2.467,0.983,5.1,0.65
				c2.767-0.334,5.25-1.15,7.45-2.45l-3.05,2.45c-2.4,1.566-4.567,2.267-6.5,2.1c-2.1-0.2-3.483-0.767-4.15-1.7
				c-0.567-0.833-0.45-1.666,0.35-2.5c0.6-0.566,1.583-1,2.95-1.3c0.7-0.134,1.333-0.217,1.9-0.25l-2.55,0.95
				C69,146.967,68.5,147.65,69.1,148.25z"/>
		</g>
	</g>
	<g>
		<g>
			<path style="fill-rule:evenodd;clip-rule:evenodd;fill:#895D60;" d="M179.95,115.6c8.333-0.966,17.117-4.133,26.35-9.5
				c-2.9,3-6.45,5.983-10.65,8.95c-8.4,5.967-16.3,8.55-23.7,7.75c-4.133-0.533-7.6-1.666-10.4-3.399
				c-2.433-1.534-3.983-3.217-4.65-5.051c-0.566-1.533-0.467-3.05,0.3-4.55c0.667-1.333,1.767-2.533,3.3-3.6
				c2.267-1.434,5.583-2.45,9.95-3.05c2.2-0.3,4.216-0.483,6.05-0.55c-2.967,0.833-5.8,1.767-8.5,2.8
				c-5.433,2.067-7.467,4.2-6.1,6.4c1,1.566,3.184,2.733,6.55,3.5C171.95,116.1,175.783,116.2,179.95,115.6z"/>
		</g>
	</g>
	<g>
		<g>
			<path style="fill-rule:evenodd;clip-rule:evenodd;fill:#895D60;" d="M239.7,180.4c0.6,1,2.233,1.283,4.9,0.85
				c2.867-0.434,5.066-1.55,6.6-3.35c-0.5,0.966-1.267,1.933-2.3,2.899c-2.1,1.9-4.233,2.717-6.4,2.45c-2.2-0.3-3.55-0.95-4.05-1.95
				c-0.434-0.899-0.2-1.684,0.7-2.35c1-0.733,2.483-1.134,4.45-1.2c-0.8,0.267-1.583,0.55-2.35,0.85
				C239.783,179.233,239.267,179.833,239.7,180.4z"/>
		</g>
	</g>
	<g>
		<g>
			<path style="fill-rule:evenodd;clip-rule:evenodd;fill:#895D60;" d="M265.2,201.55c-1.534,0.7-2.833,0.934-3.9,0.7
				c-1.267-0.333-2.033-0.8-2.3-1.4c-0.2-0.566-0.017-1.033,0.55-1.399c0.633-0.4,1.567-0.533,2.8-0.4
				c-0.533,0.101-1.033,0.217-1.5,0.351c-0.934,0.267-1.283,0.583-1.05,0.949c0.333,0.567,1.284,0.851,2.85,0.851
				c1.467,0,2.983-0.233,4.55-0.7C266.633,200.866,265.967,201.217,265.2,201.55z"/>
		</g>
	</g>
	<g>
		<g>
			<path style="fill-rule:evenodd;clip-rule:evenodd;fill:#895D60;" d="M349.8,201.3c-1.533,0.667-3.184,1.334-4.95,2
				c-3.566,1.4-6.383,2.101-8.449,2.101c-2.534-0.034-4.317-0.617-5.351-1.75c-0.967-1.067-1.017-2.2-0.149-3.4
				c1.028-1.422,3.003-2.264,5.925-2.525c-0.618,0.221-1.543,0.679-2.775,1.375c-2.2,1.233-2.783,2.217-1.75,2.95
				c1.033,0.634,3.3,0.816,6.8,0.55C341.1,202.434,344.667,202,349.8,201.3z"/>
		</g>
	</g>
	<g>
		<g>
			<path style="fill-rule:evenodd;clip-rule:evenodd;fill:#895D60;" d="M422.55,195.45c-1.133,0.833-2.45,1.666-3.95,2.5
				c-3,1.6-5.449,2.416-7.35,2.45c-2.233,0.033-3.833-0.334-4.8-1.101c-0.934-0.733-1.101-1.7-0.5-2.899
				c0.533-1.034,1.7-1.851,3.5-2.45c1.8-0.601,2.633-0.783,2.5-0.55c-0.2-0.267-1.283,0.267-3.25,1.6
				c-1.934,1.267-2.384,2.184-1.351,2.75c1.034,0.467,3.051,0.483,6.051,0.05C416.533,197.366,419.583,196.583,422.55,195.45z"/>
		</g>
	</g>
	<g>
		<g>
			<path style="fill-rule:evenodd;clip-rule:evenodd;fill:#895D60;" d="M530.25,208.05c-2.634,2.101-5.2,3-7.7,2.7
				c-2.7-0.467-4.316-1.316-4.85-2.55c-0.467-1.066-0.117-1.983,1.05-2.75c0.767-0.5,1.866-0.851,3.3-1.05
				c0.733-0.101,1.384-0.167,1.95-0.2c-0.967,0.267-1.9,0.566-2.8,0.899c-1.767,0.7-2.4,1.4-1.9,2.101
				c0.7,1.233,2.65,1.633,5.851,1.2c3.3-0.434,6.05-1.617,8.25-3.551C532.6,205.917,531.55,206.983,530.25,208.05z"/>
		</g>
	</g>
	<g>
		<g>
			<path style="fill-rule:evenodd;clip-rule:evenodd;fill:#895D60;" d="M492.75,195.9c1.566-0.2,2.983-0.667,4.25-1.4
				c-0.467,0.467-1.05,0.934-1.75,1.4c-1.366,0.899-2.6,1.3-3.7,1.199c-1.233-0.1-2.033-0.416-2.399-0.949
				c-0.334-0.467-0.267-0.95,0.199-1.45c0.567-0.533,1.483-0.816,2.75-0.851c-0.5,0.134-0.983,0.317-1.449,0.551
				c-0.9,0.399-1.184,0.783-0.851,1.149C490.267,195.983,491.25,196.1,492.75,195.9z"/>
		</g>
	</g>
	<g>
		<g>
			<path style="fill-rule:evenodd;clip-rule:evenodd;fill:#895D60;" d="M482.35,205.7c1.733,0.066,3.367-0.134,4.9-0.601
				c-0.634,0.367-1.384,0.717-2.25,1.051c-1.667,0.666-3.033,0.883-4.1,0.649c-1.233-0.233-2.034-0.649-2.4-1.25
				c-0.333-0.533-0.25-1.05,0.25-1.55c0.623-0.561,1.606-0.802,2.95-0.725c-0.276,0.06-0.76,0.218-1.45,0.475
				c-1.066,0.366-1.417,0.767-1.05,1.2C479.667,205.384,480.717,205.634,482.35,205.7z"/>
		</g>
	</g>
	<g>
		<g>
			<path style="fill-rule:evenodd;clip-rule:evenodd;fill:#895D60;" d="M512.05,204.25c-0.467,0.7-1.066,1.434-1.8,2.2
				c-1.5,1.467-2.95,2.283-4.35,2.45c-1.534,0.166-2.601-0.051-3.2-0.65c-0.533-0.533-0.566-1.134-0.101-1.8
				c0.367-0.533,1.017-0.983,1.95-1.351c0.467-0.199,0.9-0.35,1.3-0.449c-0.6,0.333-1.166,0.683-1.699,1.05
				c-1.034,0.767-1.301,1.316-0.801,1.649c0.667,0.434,1.917,0.351,3.75-0.25C509.033,206.434,510.684,205.483,512.05,204.25z"/>
		</g>
	</g>
	<g>
		<g>
			<path style="fill-rule:evenodd;clip-rule:evenodd;fill:#895D60;" d="M362.25,157.15c3.733,0.233,7.25-0.184,10.55-1.25
				c-1.333,0.833-2.899,1.616-4.7,2.35c-3.633,1.434-6.666,1.85-9.1,1.25c-2.7-0.667-4.4-1.684-5.1-3.05
				c-0.634-1.267-0.351-2.367,0.85-3.3c1.396-1.055,3.495-1.446,6.3-1.176c-0.596,0.09-1.612,0.348-3.05,0.775
				c-2.333,0.733-3.134,1.566-2.4,2.5C356.5,156.316,358.717,156.95,362.25,157.15z"/>
		</g>
	</g>
	<g>
		<g>
			<path style="fill-rule:evenodd;clip-rule:evenodd;fill:#895D60;" d="M390.1,159.4c2.2,0.199,4.051-0.2,5.551-1.2
				c-0.601,0.633-1.367,1.2-2.301,1.7c-1.933,1-3.649,1.199-5.149,0.6c-1.566-0.634-2.45-1.35-2.65-2.15
				c-0.2-0.699,0.101-1.233,0.9-1.6c0.899-0.4,2.083-0.434,3.55-0.1c-0.667,0.033-1.3,0.1-1.9,0.199
				c-1.233,0.2-1.733,0.551-1.5,1.051C386.9,158.733,388.066,159.233,390.1,159.4z"/>
		</g>
	</g>
	<g>
		<g>
			<path style="fill-rule:evenodd;clip-rule:evenodd;fill:#895D60;" d="M436.4,172.4c-1.467,0.333-2,0.8-1.601,1.399
				c0.533,0.733,1.867,1.25,4,1.55c2.4,0.334,4.533,0.134,6.4-0.6c0.366,0.134-0.584,0.616-2.851,1.45
				c-2.267,0.833-4.149,0.967-5.649,0.399c-1.601-0.533-2.584-1.233-2.95-2.1c-0.333-0.8-0.116-1.467,0.65-2
				c0.966-0.634,2.399-0.75,4.3-0.35C437.9,172.184,437.134,172.267,436.4,172.4z"/>
		</g>
	</g>
	<g>
		<g>
			<path style="fill-rule:evenodd;clip-rule:evenodd;fill:#895D60;" d="M443.2,203.2c-0.566,0.366-1.233,0.717-2,1.05
				c-1.533,0.667-2.834,0.884-3.9,0.65c-1.267-0.334-2.033-0.801-2.3-1.4c-0.2-0.533-0.017-0.983,0.55-1.35
				c0.634-0.434,1.566-0.584,2.8-0.45c-0.533,0.1-1.033,0.217-1.5,0.35c-0.933,0.267-1.283,0.601-1.05,1
				c0.334,0.533,1.283,0.816,2.851,0.851C440.15,203.9,441.667,203.667,443.2,203.2z"/>
		</g>
	</g>
	<g>
		<g>
			<path style="fill-rule:evenodd;clip-rule:evenodd;fill:#895D60;" d="M467.25,184.7c-0.533,0.267-1.116,0.517-1.75,0.75
				c-1.267,0.533-2.3,0.783-3.1,0.75c-0.967-0.101-1.601-0.384-1.9-0.851c-0.3-0.399-0.25-0.783,0.15-1.149
				c0.433-0.467,1.216-0.717,2.35-0.75c-0.434,0.133-0.85,0.283-1.25,0.45c-0.8,0.333-1.05,0.649-0.75,0.949
				C461.566,185.417,463.65,185.366,467.25,184.7z"/>
		</g>
	</g>
	<g>
		<g>
			<path style="fill-rule:evenodd;clip-rule:evenodd;fill:#895D60;" d="M424,184.8c0.468-0.498,1.259-0.765,2.375-0.8
				c-0.234,0.064-0.626,0.215-1.175,0.45c-0.834,0.399-1.101,0.767-0.8,1.1c0.666,0.634,2.949,0.55,6.85-0.25
				c-0.566,0.267-1.2,0.55-1.9,0.851c-1.366,0.633-2.5,0.916-3.399,0.85c-1.101-0.1-1.816-0.4-2.15-0.9
				C423.5,185.667,423.566,185.233,424,184.8z"/>
		</g>
	</g>
	<g>
		<g>
			<path style="fill-rule:evenodd;clip-rule:evenodd;fill:#895D60;" d="M373.7,194.55c-2.3-0.8-3.65-1.816-4.05-3.05
				c-0.367-1.066,0.017-1.934,1.149-2.6c0.8-0.467,1.967-0.65,3.5-0.551c0.767,0.034,1.45,0.101,2.05,0.2
				c-1.033,0.066-2.017,0.184-2.949,0.351c-1.934,0.399-2.667,1-2.2,1.8c0.566,1.1,2.366,1.8,5.399,2.1
				c3.233,0.334,6.101-0.083,8.601-1.25c-1,0.834-2.25,1.566-3.75,2.2C378.45,195.05,375.866,195.316,373.7,194.55z"/>
		</g>
	</g>
	<g>
		<g>
			<path style="fill-rule:evenodd;clip-rule:evenodd;fill:#895D60;" d="M391.65,204c-0.7,0.733-1.584,1.434-2.65,2.1
				c-2.1,1.334-4.017,1.867-5.75,1.601c-1.866-0.334-3.033-0.95-3.5-1.851c-0.366-0.8-0.15-1.5,0.65-2.1
				c0.899-0.667,2.267-0.967,4.1-0.9c-0.733,0.167-1.45,0.384-2.15,0.65c-1.366,0.5-1.85,1.017-1.449,1.55
				c0.566,0.834,2.017,1.167,4.35,1C387.684,205.85,389.816,205.167,391.65,204z"/>
		</g>
	</g>
	<g>
		<g>
			<path style="fill-rule:evenodd;clip-rule:evenodd;fill:#895D60;" d="M374,169.95c2.267,0.333,4.15-0.033,5.65-1.101
				c-0.601,0.634-1.384,1.2-2.351,1.7c-2,1-3.8,1.117-5.399,0.351c-1.567-0.834-2.4-1.684-2.5-2.551
				c-0.067-0.733,0.333-1.233,1.199-1.5c0.934-0.267,2.084-0.183,3.45,0.25c-0.633,0-1.25,0.017-1.85,0.051
				c-1.233,0.066-1.767,0.366-1.601,0.899C370.733,168.983,371.866,169.616,374,169.95z"/>
		</g>
	</g>
	<g>
		<g>
			<path style="fill-rule:evenodd;clip-rule:evenodd;fill:#895D60;" d="M354.35,187.95c1.733-0.233,3.284-0.75,4.65-1.55
				c-0.5,0.533-1.134,1.033-1.9,1.5c-1.5,1-2.85,1.449-4.05,1.35c-1.3-0.1-2.149-0.45-2.55-1.05c-0.333-0.533-0.25-1.05,0.25-1.55
				c0.566-0.601,1.55-0.917,2.95-0.95c-0.566,0.166-1.101,0.366-1.601,0.6c-0.966,0.467-1.267,0.884-0.899,1.25
				C351.667,188.017,352.717,188.15,354.35,187.95z"/>
		</g>
	</g>
	<g>
		<g>
			<path style="fill-rule:evenodd;clip-rule:evenodd;fill:#895D60;" d="M304.15,156.9c-3.233,2.5-6.384,3.517-9.45,3.05
				c-3.233-0.667-5.134-1.8-5.7-3.4c-0.5-1.399-0.05-2.5,1.35-3.3c0.967-0.533,2.317-0.884,4.051-1.05
				c0.866-0.101,1.649-0.15,2.35-0.15c-1.167,0.3-2.283,0.634-3.35,1c-2.2,0.733-3.034,1.533-2.5,2.4
				c0.833,1.533,3.183,2.1,7.05,1.7c4.033-0.4,7.399-1.75,10.1-4.051C307.05,154.4,305.75,155.667,304.15,156.9z"/>
		</g>
	</g>
	<g>
		<g>
			<path style="fill-rule:evenodd;clip-rule:evenodd;fill:#895D60;" d="M345.35,162.35c-2.933,1.867-5.583,2.634-7.949,2.301
				c-2.601-0.4-4.233-1.217-4.9-2.45c-0.566-1.033-0.3-2,0.8-2.9c0.767-0.6,1.95-1.017,3.55-1.25c0.801-0.1,1.517-0.166,2.15-0.2
				c-1.066,0.267-2.066,0.601-3,1c-1.934,0.767-2.583,1.517-1.95,2.25c0.8,1.067,2.816,1.467,6.05,1.2
				c3.334-0.3,6.301-1.25,8.9-2.85C348.033,160.45,346.816,161.417,345.35,162.35z"/>
		</g>
	</g>
	<g>
		<g>
			<path style="fill-rule:evenodd;clip-rule:evenodd;fill:#895D60;" d="M326.55,136.95c-4.133,2.533-7.866,3.666-11.2,3.399
				c-4.1-0.733-6.483-2.116-7.149-4.149c-0.601-1.767,0.033-3.05,1.899-3.851c1.067-0.633,2.601-1.083,4.601-1.35
				c1.033-0.134,1.983-0.217,2.85-0.25c-1.399,0.4-2.733,0.833-4,1.3c-2.533,0.967-3.517,1.967-2.95,3
				c1.067,1.733,3.9,2.351,8.5,1.851c4.101-0.5,8.434-1.7,13-3.601C330.467,134.5,328.616,135.717,326.55,136.95z"/>
		</g>
	</g>
	<g>
		<g>
			<path style="fill-rule:evenodd;clip-rule:evenodd;fill:#895D60;" d="M303.7,184.4c1.033-0.7,2.583-1.067,4.649-1.101
				c1.034-0.033,1.95,0,2.75,0.101c-1.366,0.166-2.683,0.416-3.949,0.75c-2.534,0.699-3.45,1.566-2.75,2.6
				c0.866,1.434,3.316,2.2,7.35,2.3c4.4,0.101,8.15-0.833,11.25-2.8c-1.2,1.233-2.75,2.366-4.65,3.4
				c-3.833,2.133-7.25,2.783-10.25,1.949c-3.1-0.866-4.983-2.083-5.649-3.649C301.85,186.55,302.267,185.366,303.7,184.4z"/>
		</g>
	</g>
	<g>
		<g>
			<path style="fill-rule:evenodd;clip-rule:evenodd;fill:#895D60;" d="M332.3,171c-0.566,0.566-1.233,1.15-2,1.75
				c-1.5,1.167-2.883,1.767-4.149,1.8c-1.5-0.033-2.483-0.35-2.95-0.95c-0.4-0.533-0.334-1.1,0.2-1.699
				c0.6-0.634,1.616-1.051,3.05-1.25c-0.566,0.233-1.101,0.5-1.601,0.8c-1,0.566-1.3,1.033-0.899,1.399
				c0.533,0.5,1.684,0.551,3.45,0.15C329.066,172.6,330.7,171.934,332.3,171z"/>
		</g>
	</g>
	<g>
		<g>
			<path style="fill-rule:evenodd;clip-rule:evenodd;fill:#895D60;" d="M307.05,207.05c-3.166,2.033-6.017,2.884-8.55,2.55
				c-2.8-0.433-4.55-1.3-5.25-2.6c-0.634-1.167-0.384-2.217,0.75-3.15c0.833-0.666,2.116-1.133,3.85-1.399
				c0.867-0.101,1.65-0.167,2.351-0.2c-1.134,0.3-2.217,0.667-3.25,1.1c-2.066,0.834-2.767,1.65-2.101,2.45
				c0.9,1.134,3.067,1.55,6.5,1.25c3.634-0.333,6.851-1.366,9.65-3.1C309.934,205.017,308.616,206.05,307.05,207.05z"/>
		</g>
	</g>
	<g>
		<g>
			<path style="fill-rule:evenodd;clip-rule:evenodd;fill:#895D60;" d="M272.7,171.35c0.6-0.199,1.167-0.333,1.7-0.399
				c-0.833,0.3-1.6,0.666-2.3,1.1c-1.367,0.867-1.733,1.533-1.1,2c0.767,0.566,2.317,0.617,4.65,0.15
				c2.567-0.533,4.716-1.517,6.45-2.95c0.267,0.134-0.566,0.983-2.5,2.55c-2.066,1.667-3.966,2.483-5.7,2.45
				c-1.833,0.033-3.1-0.333-3.8-1.1c-0.633-0.7-0.65-1.45-0.05-2.25C270.55,172.267,271.433,171.75,272.7,171.35z"/>
		</g>
	</g>
	<g>
		<g>
			<path style="fill-rule:evenodd;clip-rule:evenodd;fill:#895D60;" d="M256.35,126.8c0.886-0.918,2.437-1.401,4.65-1.45
				c-0.426,0.099-1.209,0.398-2.35,0.9c-1.633,0.733-2.15,1.4-1.55,2c0.767,0.7,2.467,0.983,5.1,0.85
				c2.333-0.133,4.966-0.566,7.9-1.3c-1.067,0.601-2.25,1.184-3.55,1.75c-2.633,1.167-4.8,1.684-6.5,1.55
				c-2.066-0.233-3.433-0.833-4.1-1.8C255.383,128.434,255.517,127.6,256.35,126.8z"/>
		</g>
	</g>
	<g>
		<g>
			<path style="fill-rule:evenodd;clip-rule:evenodd;fill:#895D60;" d="M293.25,125.35c-0.533,0.267-1.116,0.534-1.75,0.801
				c-1.3,0.5-2.4,0.649-3.3,0.449c-1.033-0.3-1.65-0.699-1.851-1.199c-0.199-0.467-0.05-0.851,0.45-1.15
				c0.533-0.366,1.316-0.467,2.351-0.3c-0.434,0.033-0.851,0.116-1.25,0.25c-0.801,0.2-1.101,0.467-0.9,0.8
				c0.3,0.467,1.1,0.717,2.4,0.75C290.6,125.816,291.884,125.684,293.25,125.35z"/>
		</g>
	</g>
	<g>
		<g>
			<path style="fill-rule:evenodd;clip-rule:evenodd;fill:#895D60;" d="M268.45,154.6c-3.167,1.667-5.883,2.317-8.15,1.95
				c-2.533-0.333-4.183-1.1-4.95-2.3c-0.7-1.066-0.533-2.083,0.5-3.05c1.148-1.117,3.032-1.668,5.65-1.65
				c-0.541,0.122-1.458,0.455-2.75,1c-2.067,0.867-2.717,1.684-1.95,2.45c0.9,0.9,2.983,1.3,6.25,1.2
				c3.434-0.134,6.6-0.851,9.5-2.15C271.417,152.95,270.05,153.8,268.45,154.6z"/>
		</g>
	</g>
	<g>
		<g>
			<path style="fill-rule:evenodd;clip-rule:evenodd;fill:#895D60;" d="M196.55,195.05c1.133,1.066,3.7,1.533,7.7,1.4
				c4.1-0.134,8.05-0.867,11.85-2.2c-1.5,1.033-3.233,2.017-5.2,2.95c-4,1.866-7.35,2.616-10.05,2.25
				c-3.1-0.434-5.117-1.384-6.05-2.851c-0.867-1.333-0.683-2.6,0.55-3.8c0.967-0.934,2.55-1.55,4.75-1.85
				c0.822-0.125,1.588-0.191,2.3-0.2c-0.673,0.154-1.823,0.57-3.45,1.25C196.417,193.066,195.617,194.083,196.55,195.05z"/>
		</g>
	</g>
	<g>
		<g>
			<path style="fill-rule:evenodd;clip-rule:evenodd;fill:#895D60;" d="M167.9,144.3c-0.667,0.467-1.483,0.867-2.45,1.2
				c-1.9,0.7-3.517,0.783-4.85,0.25c-1.4-0.634-2.2-1.333-2.4-2.1c-0.133-0.7,0.167-1.217,0.9-1.551
				c0.833-0.366,1.967-0.35,3.4,0.051c-0.633,0-1.25,0.033-1.85,0.1c-1.167,0.167-1.633,0.5-1.4,1c0.267,0.733,1.333,1.25,3.2,1.55
				C164.45,145.1,166.267,144.934,167.9,144.3z"/>
		</g>
	</g>
	<g>
		<g>
			<path style="fill-rule:evenodd;clip-rule:evenodd;fill:#895D60;" d="M206.1,133c0.533-0.3,1.283-0.366,2.25-0.2
				c-0.4,0.033-0.8,0.084-1.2,0.15c-0.767,0.166-1.066,0.416-0.9,0.75c0.233,0.399,0.95,0.666,2.15,0.8
				c0.733,0.1,1.95,0.217,3.65,0.35l-1.75,0.301c-1.267,0.233-2.267,0.267-3,0.1c-0.933-0.333-1.483-0.733-1.65-1.2
				C205.483,133.616,205.633,133.267,206.1,133z"/>
		</g>
	</g>
	<g>
		<g>
			<path style="fill-rule:evenodd;clip-rule:evenodd;fill:#895D60;" d="M216.2,103.1c-2.367,1.2-4.4,1.667-6.1,1.4
				c-1.967-0.367-3.184-1.017-3.65-1.95c-0.434-0.8-0.217-1.533,0.65-2.2c0.933-0.733,2.4-1.05,4.4-0.95
				c-0.833,0.167-1.617,0.383-2.35,0.65c-1.5,0.534-2.017,1.1-1.55,1.7c0.633,0.767,2.15,1.117,4.55,1.05
				c2.434-0.1,4.8-0.617,7.1-1.55C218.383,101.883,217.367,102.5,216.2,103.1z"/>
		</g>
	</g>
	<g>
		<g>
			<path style="fill-rule:evenodd;clip-rule:evenodd;fill:#895D60;" d="M239,120.1c1.767-0.133,3.617-0.517,5.55-1.149
				c-0.733,0.467-1.55,0.934-2.45,1.399c-1.833,0.9-3.383,1.301-4.65,1.2c-1.5-0.133-2.467-0.55-2.9-1.25
				c-0.433-0.6-0.35-1.184,0.25-1.75c0.667-0.7,1.85-1.066,3.55-1.1c-0.7,0.166-1.333,0.383-1.9,0.649
				c-1.167,0.534-1.534,1.017-1.1,1.45C235.883,120.05,237.1,120.233,239,120.1z"/>
		</g>
	</g>
	<g>
		<g>
			<path style="fill-rule:evenodd;clip-rule:evenodd;fill:#895D60;" d="M232.1,144.6c0.633-0.633,1.7-0.983,3.2-1.05
				c-0.6,0.167-1.167,0.384-1.7,0.65c-1.067,0.5-1.4,0.95-1,1.35c0.5,0.5,1.633,0.65,3.4,0.45c1.867-0.233,3.533-0.783,5-1.65
				c-0.567,0.567-1.25,1.101-2.05,1.601c-1.633,1.066-3.083,1.55-4.35,1.45c-1.4-0.134-2.317-0.517-2.75-1.15
				C231.483,145.684,231.567,145.134,232.1,144.6z"/>
		</g>
	</g>
	<g>
		<g>
			<path style="fill-rule:evenodd;clip-rule:evenodd;fill:#895D60;" d="M126.5,80.85c-0.7-1.567-0.267-2.917,1.3-4.05
				c1.167-0.833,2.95-1.283,5.35-1.35c1.167-0.067,2.233-0.034,3.2,0.1c-1.6,0.167-3.117,0.467-4.55,0.9
				c-2.9,0.8-3.933,1.783-3.1,2.95c1.066,1.5,3.833,2.35,8.3,2.55c4.733,0.233,9.1-0.434,13.1-2c-1.6,1.167-3.517,2.233-5.75,3.2
				c-4.467,1.967-8.267,2.533-11.4,1.7C129.483,83.95,127.333,82.617,126.5,80.85z"/>
		</g>
	</g>
	<g>
		<g>
			<path style="fill-rule:evenodd;clip-rule:evenodd;fill:#895D60;" d="M172.6,80.5c-0.5-0.8-0.383-1.517,0.35-2.15
				c0.84-0.75,2.19-1.025,4.05-0.825c-0.418,0.057-1.051,0.215-1.9,0.475c-1.567,0.5-2.067,1.067-1.5,1.7
				c0.633,0.566,2.05,0.983,4.25,1.25c2.433,0.267,4.75,0.183,6.95-0.25c-0.933,0.466-2,0.867-3.2,1.2
				c-2.434,0.7-4.367,0.85-5.8,0.45C174.167,81.983,173.1,81.367,172.6,80.5z"/>
		</g>
	</g>
	<g>
		<g>
			<path style="fill-rule:evenodd;clip-rule:evenodd;fill:#895D60;" d="M255.95,103.4c-2.1,0.767-3.817,1.033-5.15,0.8
				c-1.667-0.4-2.7-1-3.1-1.8c-0.3-0.7-0.083-1.316,0.65-1.85c0.533-0.367,1.316-0.6,2.35-0.7c0.533-0.033,1.017-0.033,1.45,0
				c-0.7,0.133-1.383,0.3-2.05,0.5c-1.267,0.433-1.717,0.9-1.35,1.4c0.833,1.167,4.183,1.333,10.05,0.5
				C257.933,102.617,256.983,103,255.95,103.4z"/>
		</g>
	</g>
	<g>
		<g>
			<path style="fill-rule:evenodd;clip-rule:evenodd;fill:#895D60;" d="M273.05,113.7c1.8-0.4,3.55-1.101,5.25-2.101
				c-0.6,0.601-1.316,1.2-2.15,1.801c-1.633,1.267-3.133,1.916-4.5,1.949c-1.566-0.033-2.6-0.383-3.1-1.05
				c-0.4-0.6-0.316-1.2,0.25-1.8c0.633-0.7,1.717-1.134,3.25-1.3c-0.6,0.233-1.167,0.5-1.7,0.8c-1.067,0.6-1.4,1.1-1,1.5
				C269.95,114.066,271.183,114.134,273.05,113.7z"/>
		</g>
	</g>
	<g>
		<g>
			<path style="fill-rule:evenodd;clip-rule:evenodd;fill:#895D60;" d="M173.75,95.1c-2.267-0.133-3.75-0.7-4.45-1.7
				c-0.6-0.9-0.466-1.783,0.4-2.65c0.633-0.633,1.65-1.1,3.05-1.4c0.7-0.167,1.333-0.283,1.9-0.35c-0.9,0.3-1.767,0.667-2.6,1.1
				c-1.633,0.8-2.15,1.517-1.55,2.15c0.767,0.9,2.583,1.083,5.45,0.55c3.1-0.566,5.5-1.816,7.2-3.75
				c0.733-0.133-0.133,0.934-2.6,3.2C178.25,94.35,175.983,95.3,173.75,95.1z"/>
		</g>
	</g>
	<g>
		<g>
			<path style="fill-rule:evenodd;clip-rule:evenodd;fill:#895D60;" d="M86,46.2c-3.4,0.867-4.8,2.017-4.2,3.45
				c1.067,2.467,4.65,3.633,10.75,3.5c6.367-0.1,11.85-1.683,16.45-4.75c-1.767,1.867-4,3.633-6.7,5.3
				c-5.433,3.333-10.466,4.466-15.1,3.4c-2.534-0.567-4.617-1.517-6.25-2.85c-1.434-1.167-2.25-2.35-2.45-3.55
				c-0.4-1.833,0.6-3.367,3-4.6c1.433-0.667,3.483-1.033,6.15-1.1c1.333-0.033,2.55-0.017,3.65,0.05
				C89.467,45.383,87.7,45.767,86,46.2z"/>
		</g>
	</g>
	<g>
		<g>
			<path style="fill-rule:evenodd;clip-rule:evenodd;fill:#895D60;" d="M77.75,70.45c1.067,0.033,2.217-0.083,3.45-0.35
				c-0.467,0.233-1,0.467-1.6,0.7c-1.167,0.467-2.15,0.6-2.95,0.4c-0.967-0.333-1.533-0.733-1.7-1.2c-0.133-0.4,0.033-0.733,0.5-1
				c0.466-0.3,1.167-0.367,2.1-0.2c-0.4,0.034-0.767,0.083-1.1,0.15c-0.733,0.2-1.017,0.45-0.85,0.75
				C75.833,70.133,76.55,70.383,77.75,70.45z"/>
		</g>
	</g>
	<g>
		<g>
			<path style="fill-rule:evenodd;clip-rule:evenodd;fill:#895D60;" d="M53.6,86.1c-0.667,0.2-1.283,0.433-1.85,0.7
				c-1.133,0.534-1.483,1-1.05,1.4c0.533,0.566,1.75,0.733,3.65,0.5c1.967-0.233,3.733-0.833,5.3-1.8l-2.2,1.75
				c-1.7,1.133-3.233,1.65-4.6,1.55c-1.533-0.133-2.533-0.55-3-1.25c-0.4-0.6-0.3-1.184,0.3-1.75c0.434-0.434,1.133-0.75,2.1-0.95
				C52.75,86.15,53.2,86.1,53.6,86.1z"/>
		</g>
	</g>
	<g>
		<g>
			<path style="fill-rule:evenodd;clip-rule:evenodd;fill:#895D60;" d="M67.525,111.325c-0.316,0.238-1.175,1.029-2.575,2.375
				c-2,1.666-3.867,2.566-5.6,2.7c-2.067,0.033-3.417-0.367-4.05-1.2c-0.566-0.733-0.483-1.5,0.25-2.3
				c0.5-0.567,1.317-1.034,2.45-1.4c0.567-0.2,1.1-0.35,1.6-0.45c0,0.033-0.7,0.417-2.1,1.15c-1.3,0.833-1.7,1.483-1.2,1.95
				c0.767,0.699,2.333,0.716,4.7,0.05C63.126,113.611,65.301,112.653,67.525,111.325z"/>
		</g>
	</g>
	<g>
		<g>
			<path style="fill-rule:evenodd;clip-rule:evenodd;fill:#895D60;" d="M78.025,128.475c-0.175,0.167-1.033,1.142-2.575,2.926
				c-2.133,2.033-4.217,3.116-6.25,3.25c-2.333,0.033-3.85-0.417-4.55-1.351c-0.633-0.833-0.533-1.684,0.3-2.55
				c0.566-0.6,1.466-1.1,2.7-1.5c0.633-0.233,1.217-0.4,1.75-0.5c0.033,0.033-0.733,0.45-2.3,1.25c-1.434,0.9-1.867,1.616-1.3,2.15
				c0.833,0.833,2.567,0.85,5.2,0.05C73.653,131.404,75.995,130.162,78.025,128.475z"/>
		</g>
	</g>
	<g>
		<g>
			<path style="fill-rule:evenodd;clip-rule:evenodd;fill:#895D60;" d="M145.5,102.55c-2.033,1.534-4.317,3.133-6.85,4.8
				c-5.133,3.334-9.833,4.817-14.1,4.45c-5.1-0.866-8.1-2.55-9-5.05c-0.767-2.2-0.017-3.833,2.25-4.9
				c1.333-0.8,3.284-1.367,5.85-1.7c1.3-0.2,2.483-0.316,3.55-0.35c-1.733,0.5-3.4,1.05-5,1.65c-3.2,1.2-4.417,2.45-3.65,3.75
				c0.567,0.966,1.867,1.683,3.9,2.149c2.066,0.467,4.35,0.517,6.85,0.15c2.233-0.267,4.867-0.9,7.9-1.9
				C138.333,105.233,141.1,104.217,145.5,102.55z"/>
		</g>
	</g>
	<g>
		<g>
			<path style="fill-rule:evenodd;clip-rule:evenodd;fill:#895D60;" d="M129.85,146.4c0.4,0.6,1.433,0.899,3.1,0.899
				c1.667-0.033,3.3-0.333,4.9-0.899c-0.6,0.433-1.317,0.85-2.15,1.25c-1.633,0.733-3.034,0.983-4.2,0.75
				c-1.367-0.334-2.2-0.834-2.5-1.5c-0.233-0.601-0.033-1.101,0.6-1.5c0.433-0.267,1.066-0.417,1.9-0.45
				c0.4-0.033,0.767-0.033,1.1,0c-0.567,0.1-1.1,0.217-1.6,0.35C129.967,145.634,129.583,146,129.85,146.4z"/>
		</g>
	</g>
	<g>
		<g>
			<path style="fill-rule:evenodd;clip-rule:evenodd;fill:#895D60;" d="M100.45,147.25c0.6,1.1,2.35,1.583,5.25,1.45
				c3.033-0.134,5.683-0.917,7.95-2.351l-3.25,2.551c-2.6,1.633-5,2.233-7.2,1.8c-2.367-0.601-3.767-1.467-4.2-2.601
				c-0.4-1-0.067-1.833,1-2.5c0.733-0.433,1.783-0.683,3.15-0.75c0.667-0.066,1.283-0.083,1.85-0.05
				c-0.9,0.167-1.783,0.384-2.65,0.65C100.683,145.95,100.05,146.55,100.45,147.25z"/>
		</g>
	</g>
	<g>
		<g>
			<path style="fill-rule:evenodd;clip-rule:evenodd;fill:#895D60;" d="M172.6,166.1c-0.833,0.534-1.767,1.067-2.8,1.601
				c-2.066,1.066-3.816,1.55-5.25,1.45c-1.7-0.167-2.8-0.634-3.3-1.4c-0.467-0.7-0.367-1.366,0.3-2c0.767-0.8,2.083-1.217,3.95-1.25
				c-0.733,0.2-1.433,0.45-2.1,0.75c-1.3,0.634-1.717,1.184-1.25,1.65c0.6,0.6,1.967,0.8,4.1,0.6
				C168.317,167.333,170.433,166.866,172.6,166.1z"/>
		</g>
	</g>
	<g>
		<g>
			<path style="fill-rule:evenodd;clip-rule:evenodd;fill:#895D60;" d="M173.9,184.6c-0.867,0.634-1.883,1.267-3.05,1.9
				c-2.3,1.2-4.25,1.733-5.85,1.6c-1.9-0.199-3.133-0.716-3.7-1.55c-0.533-0.767-0.433-1.517,0.3-2.25
				c0.533-0.566,1.433-0.967,2.7-1.2c0.633-0.133,1.217-0.199,1.75-0.199c-0.867,0.233-1.667,0.517-2.4,0.85
				c-1.433,0.667-1.883,1.283-1.35,1.85c0.667,0.634,2.2,0.851,4.6,0.65C169.233,186.05,171.567,185.5,173.9,184.6z"/>
		</g>
	</g>
	<g>
		<g>
			<path style="fill-rule:evenodd;clip-rule:evenodd;fill:#895D60;" d="M118.6,183.35c-0.867,0.567-1.85,1.134-2.95,1.7
				c-2.267,1.167-4.25,1.584-5.95,1.25c-2.1-0.533-3.284-1.35-3.55-2.45c-0.267-1,0.133-1.616,1.2-1.85c0.5-0.3,1.3-0.483,2.4-0.55
				c0.533-0.033,1.033-0.033,1.5,0c-0.767,0.133-1.483,0.3-2.15,0.5c-1.367,0.399-1.917,0.883-1.65,1.45
				c0.5,0.899,1.933,1.333,4.3,1.3C114.083,184.7,116.367,184.25,118.6,183.35z"/>
		</g>
	</g>
	<g>
		<g>
			<path style="fill-rule:evenodd;clip-rule:evenodd;fill:#895D60;" d="M78.35,188.2c1.667-0.2,3.517-0.617,5.55-1.25
				c-0.733,0.467-1.55,0.934-2.45,1.399c-1.833,0.934-3.333,1.417-4.5,1.45c-1.4,0-2.367-0.283-2.9-0.85
				c-0.533-0.566-0.566-1.167-0.1-1.8c0.367-0.534,1.066-0.95,2.1-1.25c0.967-0.301,1.45-0.4,1.45-0.301
				c-0.133-0.133-0.767,0.15-1.9,0.851s-1.434,1.233-0.9,1.6C75.267,188.417,76.483,188.467,78.35,188.2z"/>
		</g>
	</g>
	<g>
		<g>
			<path style="fill-rule:evenodd;clip-rule:evenodd;fill:#895D60;" d="M233.3,204.7c-1.833,1.2-3.466,1.733-4.9,1.6
				c-1.633-0.133-2.683-0.55-3.15-1.25c-0.467-0.633-0.383-1.267,0.25-1.899c0.733-0.733,1.95-1.134,3.65-1.2
				c-0.7,0.2-1.35,0.45-1.95,0.75c-1.2,0.566-1.567,1.083-1.1,1.55c0.566,0.566,1.867,0.733,3.9,0.5c2.1-0.267,3.983-0.9,5.65-1.9
				C235.017,203.483,234.233,204.1,233.3,204.7z"/>
		</g>
	</g>
	<g>
		<g>
			<path style="fill-rule:evenodd;clip-rule:evenodd;fill:#895D60;" d="M221.15,179.25c0.833-0.566,2.133-0.767,3.9-0.6
				c-0.767,0.1-1.483,0.25-2.15,0.449c-1.333,0.4-1.816,0.884-1.45,1.45c0.5,0.8,1.85,1.184,4.05,1.15
				c2.367,0,4.417-0.533,6.15-1.601c-0.667,0.667-1.517,1.284-2.55,1.851c-2.067,1.166-3.917,1.566-5.55,1.2
				c-1.8-0.434-2.883-1.101-3.25-2C220,180.316,220.283,179.684,221.15,179.25z"/>
		</g>
	</g>
	<g>
		<g>
			<path style="fill-rule:evenodd;clip-rule:evenodd;fill:#895D60;" d="M176.35,131.5c-0.467-1.134-0.117-2,1.05-2.6
				c0.667-0.467,1.7-0.784,3.1-0.95c0.7-0.066,1.35-0.117,1.95-0.15c-0.934,0.233-1.833,0.517-2.7,0.851
				c-1.733,0.633-2.367,1.3-1.9,2c0.7,1.066,2.55,1.466,5.55,1.199c2.867-0.233,5.7-0.983,8.5-2.25
				c-1.033,0.801-2.233,1.601-3.6,2.4c-2.767,1.634-5.216,2.333-7.35,2.1C178.383,133.634,176.85,132.767,176.35,131.5z"/>
		</g>
	</g>
	<g>
		<g>
			<path style="fill-rule:evenodd;clip-rule:evenodd;fill:#895D60;" d="M147.6,93.45c2.267-0.3,4.283-0.983,6.05-2.05
				c-0.667,0.667-1.483,1.333-2.45,2c-1.967,1.267-3.733,1.833-5.3,1.7c-1.7-0.133-2.8-0.583-3.3-1.35
				c-0.467-0.667-0.383-1.333,0.25-2c0.767-0.767,2.066-1.2,3.9-1.3c-0.733,0.233-1.417,0.5-2.05,0.8
				c-1.267,0.633-1.667,1.183-1.2,1.65C144.1,93.5,145.467,93.683,147.6,93.45z"/>
		</g>
	</g>
	<g>
		<g>
			<path style="fill-rule:evenodd;clip-rule:evenodd;fill:#895D60;" d="M187,107.75c-0.567,0.5-1.217,1.017-1.95,1.55
				c-1.466,1.033-2.7,1.617-3.7,1.75c-1.1,0.2-1.95,0.101-2.55-0.3c-0.566-0.4-0.716-0.9-0.45-1.5c0.233-0.533,0.8-1.017,1.7-1.45
				c0.9-0.467,1.317-0.616,1.25-0.45c-0.066-0.166-0.583,0.167-1.55,1c-0.933,0.801-1.117,1.317-0.55,1.551
				c0.566,0.133,1.617,0,3.15-0.4C184.017,109.1,185.567,108.517,187,107.75z"/>
		</g>
	</g>
	<g>
		<g>
			<path style="fill-rule:evenodd;clip-rule:evenodd;fill:#895D60;" d="M129.35,66.75c-0.633-0.933-0.517-1.833,0.35-2.7
				c0.94-1.002,2.598-1.502,4.975-1.5c-0.47,0.098-1.295,0.398-2.475,0.9c-1.767,0.767-2.317,1.483-1.65,2.15
				c0.7,0.667,2.483,1,5.35,1c1.693,0,4.56-0.017,8.6-0.05c-0.273,0.033-1.623,0.383-4.05,1.05c-2.967,0.8-5.25,1.15-6.85,1.05
				C131.433,68.383,130.017,67.75,129.35,66.75z"/>
		</g>
	</g>
	<g>
		<g>
			<path style="fill-rule:evenodd;clip-rule:evenodd;fill:#895D60;" d="M57.05,31.4c-1.566-0.233-3.15-0.167-4.75,0.2
				c-1.6,0.333-2.833,0.566-3.7,0.7c-1.467,0.2-2.767,0.15-3.9-0.15c-2.6-0.767-4.1-1.833-4.5-3.2c-0.367-1.267,0.1-2.15,1.4-2.65
				c1.233-0.7,3.1-0.883,5.6-0.55c-1.067,0.1-2.083,0.267-3.05,0.5c-1.9,0.467-2.65,1.1-2.25,1.9c0.567,1.067,2.45,1.733,5.65,2
				C52.217,30.517,55.383,30.933,57.05,31.4z"/>
		</g>
	</g>
	<g>
		<g>
			<path style="fill-rule:evenodd;clip-rule:evenodd;fill:#895D60;" d="M65.45,60c0.233,0.067,0.8,0.033,1.7-0.1
				c1.267-0.167,2.184-0.267,2.75-0.3c-1.467,0.6-2.566,0.967-3.3,1.1c-0.6,0.066-1.05-0.017-1.35-0.25
				c-0.333-0.2-0.417-0.467-0.25-0.8c0.133-0.3,0.467-0.55,1-0.75c0.567-0.233,0.8-0.3,0.7-0.2c-0.034-0.1-0.333,0.066-0.9,0.5
				C65.233,59.6,65.117,59.867,65.45,60z"/>
		</g>
	</g>
	<g>
		<g>
			<path style="fill-rule:evenodd;clip-rule:evenodd;fill:#895D60;" d="M69.1,40.2c1.2,0.133,2.35,0.1,3.45-0.1
				c-1.867,0.867-3.367,1.133-4.5,0.8c-0.8-0.2-1.333-0.5-1.6-0.9c-0.233-0.4-0.184-0.767,0.15-1.1
				c0.456-0.365,1.165-0.49,2.125-0.375c-0.222,0.016-0.563,0.09-1.025,0.225c-0.767,0.233-1.017,0.517-0.75,0.85
				C67.283,39.867,68,40.067,69.1,40.2z"/>
		</g>
	</g>
	<g>
		<g>
			<path style="fill-rule:evenodd;clip-rule:evenodd;fill:#895D60;" d="M100.05,80.65c0.6-0.6,1.6-0.917,3-0.95
				c-0.566,0.167-1.1,0.367-1.6,0.6c-0.967,0.467-1.267,0.883-0.9,1.25c0.467,0.467,1.517,0.6,3.15,0.4
				c1.733-0.233,3.267-0.75,4.6-1.55c-0.5,0.533-1.133,1.033-1.9,1.5c-1.467,1-2.8,1.45-4,1.35c-1.3-0.1-2.15-0.45-2.55-1.05
				C99.483,81.667,99.55,81.15,100.05,80.65z"/>
		</g>
	</g>
	<g>
		<g>
			<path style="fill-rule:evenodd;clip-rule:evenodd;fill:#895D60;" d="M105.85,109.8c0.167-0.133,0.467-0.2,0.9-0.2
				c0.125,0,0.241,0.009,0.35,0.025c-0.133,0.007-0.333,0.049-0.6,0.125c-0.5,0.1-0.667,0.25-0.5,0.45
				c0.167,0.133,0.583,0.283,1.25,0.45c0.4,0.1,1.083,0.267,2.05,0.5c-1.2,0.066-2.1,0.033-2.7-0.101
				c-0.434-0.133-0.733-0.333-0.9-0.6C105.567,110.184,105.617,109.967,105.85,109.8z"/>
		</g>
	</g>
	<g>
		<g>
			<path style="fill-rule:evenodd;clip-rule:evenodd;fill:#895D60;" d="M131.85,136.6c-2.3-0.199-3.817-0.816-4.55-1.85
				c-0.6-0.934-0.466-1.833,0.4-2.7c0.667-0.666,1.75-1.149,3.25-1.45c0.767-0.166,1.45-0.267,2.05-0.3c-1,0.3-1.933,0.65-2.8,1.05
				c-1.733,0.867-2.267,1.617-1.6,2.25c0.833,0.834,2.683,1.084,5.55,0.75c3.033-0.399,5.75-1.316,8.15-2.75
				c-0.9,0.9-2.017,1.784-3.35,2.65C136.317,136.017,133.95,136.8,131.85,136.6z"/>
		</g>
	</g>
	<g>
		<g>
			<path style="fill-rule:evenodd;clip-rule:evenodd;fill:#895D60;" d="M93.425,110.525c-0.317,0.048-1.008,0.39-2.075,1.024
				c-1.367,0.767-1.733,1.384-1.1,1.851c0.7,0.466,2.15,0.55,4.35,0.25c2.167-0.267,4.367-0.817,6.6-1.65
				c-0.833,0.6-1.784,1.184-2.85,1.75c-2.167,1.2-3.967,1.783-5.4,1.75c-1.733,0-2.917-0.35-3.55-1.05c-0.6-0.667-0.6-1.384,0-2.15
				c0.434-0.6,1.267-1.083,2.5-1.45C92.663,110.648,93.171,110.54,93.425,110.525z"/>
		</g>
	</g>
	<g>
		<g>
			<path style="fill-rule:evenodd;clip-rule:evenodd;fill:#895D60;" d="M118.7,63.65c2.466-0.233,4.566-0.233,6.3,0
				c-3.633,0.833-6.183,1.383-7.65,1.65c-1.367,0.167-2.4,0.017-3.1-0.45c-0.7-0.434-0.883-1.067-0.55-1.9
				c0.233-0.733,0.983-1.35,2.25-1.85c1.2-0.467,1.8-0.617,1.8-0.45c-0.233-0.2-0.983,0.2-2.25,1.2c-1.267,0.967-1.517,1.6-0.75,1.9
				C115.15,63.85,116.467,63.817,118.7,63.65z"/>
		</g>
	</g>
	<g>
		<g>
			<path style="fill-rule:evenodd;clip-rule:evenodd;fill:#895D60;" d="M157.2,66.4c-0.8,0.1-1.117,0.317-0.95,0.65
				c0.2,0.434,0.9,0.784,2.1,1.05c1.233,0.233,2.417,0.217,3.55-0.05c-0.467,0.233-1.017,0.434-1.65,0.6
				c-1.267,0.367-2.3,0.367-3.1,0c-0.867-0.367-1.383-0.8-1.55-1.3c-0.133-0.434,0.033-0.767,0.5-1c0.566-0.267,1.333-0.267,2.3,0
				C157.967,66.35,157.567,66.367,157.2,66.4z"/>
		</g>
	</g>
	<g>
		<g>
			<path style="fill-rule:evenodd;clip-rule:evenodd;fill:#895D60;" d="M225.1,94.65c-0.233-0.367-0.184-0.733,0.15-1.1
				c0.402-0.371,1.061-0.571,1.975-0.6c-0.193,0.046-0.519,0.163-0.975,0.35c-0.7,0.333-0.917,0.633-0.65,0.9
				c0.566,0.533,2.433,0.5,5.6-0.1c-0.467,0.233-0.983,0.467-1.55,0.7c-1.167,0.467-2.1,0.667-2.8,0.6
				C225.983,95.3,225.4,95.05,225.1,94.65z"/>
		</g>
	</g>
</g>
</svg>
