<?xml version="1.0" encoding="iso-8859-1"?>
<!-- Generator: Adobe Illustrator 15.1.0, SVG Export Plug-In . SVG Version: 6.00 Build 0)  -->
<!DOCTYPE svg PUBLIC "-//W3C//DTD SVG 1.1//EN" "http://www.w3.org/Graphics/SVG/1.1/DTD/svg11.dtd">
<svg version="1.1" id="Isolation_Mode" xmlns="http://www.w3.org/2000/svg" xmlns:xlink="http://www.w3.org/1999/xlink" x="0px"
	 y="0px" width="160.6px" height="90.9px" viewBox="0 0 160.6 90.9" style="enable-background:new 0 0 160.6 90.9;"
	 xml:space="preserve">
<g>
	<path style="fill-rule:evenodd;clip-rule:evenodd;fill:#DC8D68;" d="M122.4,67.15c-6.367-9.5-11.384-16.884-15.051-22.15
		c-14.399-20.967-24.3-31.3-29.7-31c-5.833,0.333-19.083,2.083-39.75,5.25c-10.333,1.6-20.083,3.15-29.25,4.65
		c0.934-1.5,1.267-3.15,1-4.95c-0.5-3.633-3.717-6.2-9.65-7.7C6.967,9.55,15.35,7.8,25.15,6c19.6-3.567,36.517-5.567,50.75-6
		c14.367-0.467,31.45,11.267,51.25,35.2c6.5,7.867,12.716,16.366,18.649,25.5c4.7,7.267,7.283,11.649,7.75,13.149
		c0.566,1.733-2,3.167-7.7,4.301c-5.699,1.166-10.333,1.199-13.899,0.1C130.45,77.783,127.267,74.083,122.4,67.15z"/>
	<g>
		<path style="fill-rule:evenodd;clip-rule:evenodd;fill:#CB7857;" d="M81.15,9.9c4.833,0.267,13.25,8.05,25.25,23.35
			c5.066,6.433,12.033,16.083,20.899,28.95c3.867,5.633,7.066,10.2,9.601,13.7c-1.534,1.166-3.384,1.85-5.551,2.05
			c-1.699-1.066-5.017-5.15-9.949-12.25c-6.334-9.467-11.284-16.767-14.851-21.9C92.583,23.633,82.95,13.7,77.65,14
			c-8.566,0.467-30.183,3.55-64.85,9.25v-4.6c9.5-1.566,19.467-3.1,29.9-4.6C63.6,11.05,76.417,9.667,81.15,9.9z"/>
	</g>
	<path style="fill-rule:evenodd;clip-rule:evenodd;fill:#CD6C49;" d="M143.9,72.5c2.666-1.4,4.883-2.833,6.649-4.3l4.2,4.1
		c2.967,3.101,4.816,5.566,5.55,7.4c0.934,2.333-0.233,4.616-3.5,6.85c-3.5,2.4-8.184,3.816-14.05,4.25
		c-5.1,0.367-9.45-0.283-13.05-1.95l-3.9-2.55l3.55-10.1C133.717,76.566,138.566,75.333,143.9,72.5z"/>
	<path style="fill-rule:evenodd;clip-rule:evenodd;fill:#C46544;" d="M89.75,18.25l7.5,8c5.6,6.133,9.917,11.15,12.95,15.05
		c4.866,6.233,12.55,16.983,23.05,32.25c-1.2,0.8-2.267,1.117-3.2,0.95l-1-0.5c-4.6-7.3-8.883-13.667-12.85-19.1L89.75,18.25z"/>
	<path style="fill-rule:evenodd;clip-rule:evenodd;fill:#C46544;" d="M75.6,11.8c1.867,0,3.283,0.15,4.25,0.45
		c0.466,0.167,0.75,0.317,0.85,0.45c-4.967,0.167-9.45,0.6-13.45,1.3L16,21.6l1.05-2.2L75.6,11.8z"/>
	<path style="fill-rule:evenodd;clip-rule:evenodd;fill:#E9BB99;" d="M113.75,22.85c8.7,8.233,15.7,16.333,21,24.3
		c4.434,6.699,8.167,12.066,11.2,16.1c1.533,2.033,2.616,3.384,3.25,4.05c-0.601,0.566-1.334,1.101-2.2,1.601
		c-0.467,0.267-0.967,0.483-1.5,0.649l-0.7,0.2c-2.8-5-5.883-10.333-9.25-16c-6.733-11.3-11.533-18.567-14.399-21.8
		c-3.167-3.567-7.25-7.8-12.25-12.7l-6.601-6.3L113.75,22.85z"/>
	<path style="fill-rule:evenodd;clip-rule:evenodd;fill:#E9BB99;" d="M85,3c1.185,0.447,2.269,0.889,3.25,1.325
		c-1.44-0.483-3.957-1.108-7.55-1.875c-3.4-0.733-15.1,0.466-35.1,3.6c-10,1.567-19.667,3.2-29,4.9l1.75-2.35
		c7.8-1.3,16.05-2.583,24.75-3.85C60.5,2.183,71.483,0.933,76.05,1C78.483,1.033,81.467,1.7,85,3z"/>
	<g>
		<path style="fill-rule:evenodd;clip-rule:evenodd;fill:#AD5E40;" d="M136.1,82.05c-0.166,4.434,0.45,6.851,1.851,7.25
			c1.566,0.434,4.483,0.334,8.75-0.3c4.033-0.6,6.783-1.25,8.25-1.95c1.733-0.833,2.816-1.416,3.25-1.75l-0.25,0.351
			c-1.566,1.333-3.601,2.449-6.101,3.35c-2.699,0.967-5.733,1.566-9.1,1.8c-5.1,0.367-9.45-0.283-13.05-1.95l-3.9-2.55l3.55-10.1
			c2.233,0.2,4.601-0.033,7.101-0.7h0.3L136.1,82.05z"/>
	</g>
	<path style="fill-rule:evenodd;clip-rule:evenodd;fill:#D98560;" d="M149.85,71.05c1.067,0.267,2.717,1.65,4.95,4.15
		c2.2,2.434,3.217,3.95,3.05,4.55c-0.166,0.533-0.983,1.2-2.449,2c-1.4,0.767-2.467,1.184-3.2,1.25c-0.7,0.066-1.467-1.95-2.3-6.05
		C149.066,72.85,149.05,70.884,149.85,71.05z"/>
	<path style="fill-rule:evenodd;clip-rule:evenodd;fill:#7F4A34;" d="M130.2,77.6c0.434,0.434,1.649,0.417,3.649-0.05l-0.699,3.3
		c-0.167,1.034-0.051,2.917,0.35,5.65c-0.5,0.566-1.3,0.7-2.4,0.4c-0.699-0.2-1.433-0.7-2.199-1.5l-0.95-1.15L130.2,77.6z"/>
</g>
</svg>
