<?xml version="1.0" encoding="iso-8859-1"?>
<!-- Generator: Adobe Illustrator 15.1.0, SVG Export Plug-In . SVG Version: 6.00 Build 0)  -->
<!DOCTYPE svg PUBLIC "-//W3C//DTD SVG 1.1//EN" "http://www.w3.org/Graphics/SVG/1.1/DTD/svg11.dtd">
<svg version="1.1" id="ground" xmlns="http://www.w3.org/2000/svg" xmlns:xlink="http://www.w3.org/1999/xlink" x="0px" y="0px"
	 width="250px" height="125px" viewBox="0 0 250 125" style="enable-background:new 0 0 250 125;" xml:space="preserve">
<g>
	<rect style="fill-rule:evenodd;clip-rule:evenodd;fill:#7F5257;" width="250" height="125"/>
	<g>
		<g>
			<path style="fill-rule:evenodd;clip-rule:evenodd;fill:#70424A;" d="M27.5,62.15c6,0.3,11.433-0.6,16.3-2.7
				c-1.966,1.5-4.35,2.883-7.15,4.149c-5.6,2.5-10.35,3.233-14.25,2.2c-4.3-1.066-6.983-2.7-8.05-4.9
				c-0.967-1.933-0.483-3.633,1.45-5.1c1.467-1.1,3.7-1.7,6.7-1.8c1.5-0.067,2.85-0.017,4.05,0.15c-2,0.233-3.9,0.6-5.7,1.1
				c-3.633,1.067-4.9,2.333-3.8,3.8C18.417,60.85,21.9,61.883,27.5,62.15z"/>
		</g>
	</g>
	<g>
		<g>
			<path style="fill-rule:evenodd;clip-rule:evenodd;fill:#70424A;" d="M71.25,30c-2.4,2.167-5.317,4.25-8.75,6.25
				c-6.9,4.067-12.917,5.8-18.05,5.2c-5.733-0.6-9.483-2.217-11.25-4.85c-1.534-2.333-1.184-4.617,1.05-6.85
				c1.667-1.667,4.433-2.85,8.3-3.55c1.934-0.333,3.684-0.5,5.25-0.5c-2.566,0.633-4.966,1.45-7.2,2.45
				c-4.467,2.033-5.867,3.9-4.2,5.6c2.067,2.033,6.733,2.733,14,2.1C58.067,35.217,65.017,33.267,71.25,30z"/>
		</g>
	</g>
	<g>
		<g>
			<path style="fill-rule:evenodd;clip-rule:evenodd;fill:#70424A;" d="M190,48.8c-1.967,0.434-3.783,1.017-5.45,1.75
				c-3.399,1.467-4.467,2.833-3.2,4.1c1.534,1.467,4.983,2.05,10.351,1.75c5.533-0.3,10.8-1.467,15.8-3.5
				c-1.934,1.434-4.217,2.833-6.85,4.2c-5.267,2.7-9.733,3.816-13.4,3.35c-4.2-0.5-6.95-1.733-8.25-3.7
				c-1.167-1.733-0.917-3.417,0.75-5.05c1.267-1.267,3.35-2.133,6.25-2.6C187.467,48.867,188.8,48.767,190,48.8z"/>
		</g>
	</g>
	<g>
		<g>
			<path style="fill-rule:evenodd;clip-rule:evenodd;fill:#70424A;" d="M78.25,16.85c-1.733,0.833-3.233,1.133-4.5,0.9
				c-1.5-0.333-2.4-0.867-2.7-1.6c-0.267-0.633-0.066-1.15,0.6-1.55c0.733-0.5,1.817-0.7,3.25-0.6c-0.6,0.1-1.183,0.25-1.75,0.45
				c-1.1,0.333-1.5,0.716-1.2,1.15c0.433,0.633,1.55,0.933,3.35,0.9c1.767-0.033,3.517-0.35,5.25-0.95
				C79.883,16.017,79.117,16.45,78.25,16.85z"/>
		</g>
	</g>
	<g>
		<g>
			<path style="fill-rule:evenodd;clip-rule:evenodd;fill:#70424A;" d="M117.45,53.15c0.733,1.233,2.8,1.767,6.2,1.6
				c3.567-0.2,6.683-1.15,9.35-2.85c-1,1.033-2.267,2.033-3.8,3c-3.066,1.934-5.883,2.667-8.45,2.2c-2.733-0.633-4.4-1.6-5-2.9
				c-0.5-1.133-0.133-2.117,1.1-2.95c0.833-0.567,2.083-0.917,3.75-1.05c0.8-0.067,1.533-0.1,2.2-0.1
				c-1.1,0.233-2.167,0.517-3.2,0.85C117.6,51.583,116.883,52.317,117.45,53.15z"/>
		</g>
	</g>
	<g>
		<g>
			<path style="fill-rule:evenodd;clip-rule:evenodd;fill:#70424A;" d="M237.85,10.25c-3.066,1.933-5.866,2.667-8.399,2.2
				c-2.767-0.6-4.434-1.583-5-2.95c-0.5-1.133-0.15-2.117,1.05-2.95c0.833-0.566,2.083-0.917,3.75-1.05
				c0.8-0.067,1.533-0.083,2.2-0.05c-1.101,0.233-2.15,0.517-3.15,0.85c-2,0.633-2.733,1.367-2.2,2.2
				c0.767,1.233,2.851,1.767,6.25,1.6c3.534-0.2,6.634-1.15,9.301-2.85C240.65,8.283,239.384,9.283,237.85,10.25z"/>
		</g>
	</g>
	<g>
		<g>
			<path style="fill-rule:evenodd;clip-rule:evenodd;fill:#70424A;" d="M192.65,13.55c-1,1.034-2.267,2.034-3.801,3
				c-3.066,1.934-5.866,2.667-8.399,2.2c-2.767-0.6-4.434-1.567-5-2.9c-0.5-1.133-0.15-2.117,1.05-2.95
				c0.833-0.566,2.083-0.917,3.75-1.05c0.8-0.067,1.533-0.083,2.2-0.05c-1.101,0.2-2.15,0.467-3.15,0.8c-2,0.667-2.733,1.4-2.2,2.2
				c0.767,1.233,2.851,1.767,6.25,1.6C186.884,16.233,189.983,15.283,192.65,13.55z"/>
		</g>
	</g>
	<g>
		<g>
			<path style="fill-rule:evenodd;clip-rule:evenodd;fill:#70424A;" d="M145.6,115.2c-3.966,1.899-7.433,2.366-10.399,1.399
				c-3.167-1.066-5.017-2.433-5.55-4.1c-0.5-1.434,0.017-2.583,1.55-3.45c1.1-0.6,2.666-0.866,4.7-0.8
				c1.033,0.033,1.949,0.116,2.75,0.25c-1.4,0.1-2.733,0.283-4,0.55c-2.534,0.533-3.5,1.334-2.9,2.4c0.767,1.533,3.2,2.45,7.3,2.75
				c4.367,0.366,8.2-0.316,11.5-2.05C149.25,113.25,147.6,114.267,145.6,115.2z"/>
		</g>
	</g>
	<g>
		<g>
			<path style="fill-rule:evenodd;clip-rule:evenodd;fill:#70424A;" d="M234.3,73.5c3.867-0.1,6.834-1.283,8.9-3.55
				c-0.733,1.233-1.851,2.399-3.351,3.5c-2.966,2.267-5.883,3.017-8.75,2.25c-2.833-0.9-4.466-2.066-4.899-3.5
				c-0.334-1.2,0.166-2.15,1.5-2.851c0.899-0.433,2.149-0.649,3.75-0.649c0.8,0,1.5,0.017,2.1,0.05
				c-1.033,0.167-2.066,0.384-3.1,0.65c-2,0.466-2.8,1.116-2.4,1.949C228.55,72.85,230.634,73.566,234.3,73.5z"/>
		</g>
	</g>
	<g>
		<g>
			<path style="fill-rule:evenodd;clip-rule:evenodd;fill:#70424A;" d="M103.75,105.15c-0.633,0.666-1.35,1.267-2.15,1.8
				c-2.5,1.666-4.85,2.2-7.05,1.6c-2.2-0.633-3.5-1.517-3.9-2.649c-0.333-0.967,0.017-1.75,1.05-2.351
				c0.733-0.399,1.767-0.6,3.1-0.6c0.667,0,1.25,0.017,1.75,0.05c-0.9,0.134-1.767,0.3-2.6,0.5c-1.633,0.434-2.25,0.983-1.85,1.65
				c0.5,1.1,2.167,1.649,5,1.649c3.066,0,5.517-0.833,7.35-2.5C104.583,104.267,104.35,104.55,103.75,105.15z"/>
		</g>
	</g>
	<g>
		<g>
			<path style="fill-rule:evenodd;clip-rule:evenodd;fill:#70424A;" d="M37.4,90.5c0.5,1.1,2.184,1.634,5.05,1.6
				c3.033,0,5.466-0.816,7.3-2.449c0.933-0.167-0.017,0.716-2.85,2.649c-2.5,1.667-4.833,2.2-7,1.601c-2.2-0.667-3.5-1.551-3.9-2.65
				c-0.333-0.934,0-1.717,1-2.35c0.733-0.4,1.783-0.617,3.15-0.65c0.667,0,1.25,0.017,1.75,0.05c-0.9,0.134-1.767,0.3-2.6,0.5
				C37.633,89.233,37,89.8,37.4,90.5z"/>
		</g>
	</g>
	<g>
		<g>
			<path style="fill-rule:evenodd;clip-rule:evenodd;fill:#70424A;" d="M21.25,11.3c-2.5,1.667-4.833,2.2-7,1.6
				c-2.2-0.667-3.5-1.55-3.9-2.65c-0.367-0.967-0.033-1.75,1-2.35c0.733-0.4,1.767-0.617,3.1-0.65c0.667,0,1.25,0.017,1.75,0.05
				c-0.867,0.133-1.717,0.3-2.55,0.5c-1.667,0.434-2.3,1-1.9,1.7c0.5,1.1,2.167,1.633,5,1.6c3.067,0,5.517-0.817,7.35-2.45
				C25.033,8.483,24.083,9.367,21.25,11.3z"/>
		</g>
	</g>
	<g>
		<g>
			<path style="fill-rule:evenodd;clip-rule:evenodd;fill:#70424A;" d="M115.1,17.1c3.066,0,5.517-0.817,7.35-2.45
				c0.933-0.167-0.017,0.717-2.85,2.65c-2.5,1.667-4.85,2.2-7.05,1.6c-2.2-0.667-3.5-1.55-3.9-2.65
				c-0.333-0.967,0.017-1.75,1.05-2.35c0.733-0.4,1.767-0.617,3.1-0.65c0.667,0,1.25,0.017,1.75,0.05c-0.9,0.133-1.767,0.3-2.6,0.5
				c-1.633,0.434-2.25,1-1.85,1.7C110.6,16.6,112.267,17.133,115.1,17.1z"/>
		</g>
	</g>
	<g>
		<g>
			<path style="fill-rule:evenodd;clip-rule:evenodd;fill:#70424A;" d="M215.5,37.2c0.967-0.5,2.316-0.534,4.05-0.1
				c-0.767,0-1.5,0.05-2.2,0.15c-1.366,0.233-1.899,0.633-1.6,1.2c0.4,0.767,1.65,1.316,3.75,1.65c2.066,0.333,4.184,0.333,6.35,0
				c-0.866,0.367-1.866,0.7-3,1c-2.199,0.6-4,0.65-5.399,0.15c-1.601-0.633-2.55-1.383-2.851-2.25
				C214.366,38.233,214.667,37.633,215.5,37.2z"/>
		</g>
	</g>
	<g>
		<g>
			<path style="fill-rule:evenodd;clip-rule:evenodd;fill:#70424A;" d="M73.075,68.35c-1.277,0.244-2.669,0.644-4.175,1.2
				c-3.066,1.2-5.233,2.733-6.5,4.601c-0.667,0.966,0.65,1.767,3.95,2.399c1.6,0.334,5.433,0.834,11.5,1.5
				c5.733,0.601,11.467,1.4,17.2,2.4c-4.867-0.233-10-0.483-15.4-0.75c-10.9-0.533-17.617-1.55-20.15-3.05
				c-2.667-2.034-1.2-4.051,4.4-6.051c1.833-0.633,3.9-1.199,6.2-1.699C71.815,68.528,72.807,68.345,73.075,68.35z"/>
		</g>
	</g>
	<g>
		<g>
			<path style="fill-rule:evenodd;clip-rule:evenodd;fill:#70424A;" d="M229.7,105.75c-0.767-0.033-1.65,0-2.65,0.1
				c-2,0.233-3.566,0.767-4.7,1.601c-1.267,1.066,1.733,2.684,9,4.85c3.806,1.148,6.646,1.948,8.525,2.4
				c-11.604-1.417-18.196-3.533-19.775-6.351c-1.066-1.666,0.217-2.6,3.851-2.8C225.783,105.483,227.7,105.55,229.7,105.75z"/>
		</g>
	</g>
	<g>
		<g>
			<path style="fill-rule:evenodd;clip-rule:evenodd;fill:#70424A;" d="M162.4,40.25c3.557,0.064,7.065,0.331,10.524,0.8
				c-1.062-0.044-4.17,0.039-9.325,0.25c-7.033,0.267-11.399,0.083-13.1-0.55c-1.9-1.1-1.1-2.517,2.4-4.25
				c3.666-1.833,5.6-2.55,5.8-2.15c-0.834,0.233-1.717,0.6-2.65,1.1c-1.934,1-3.217,2.15-3.85,3.45
				c-0.334,0.667,0.566,1.083,2.7,1.25C155.767,40.217,158.267,40.25,162.4,40.25z"/>
		</g>
	</g>
	<g>
		<g>
			<path style="fill-rule:evenodd;clip-rule:evenodd;fill:#70424A;" d="M177.8,80.65c-1.833,0.066-3.916,0.366-6.25,0.899
				c-4.633,1.101-8.1,2.8-10.399,5.101c-2.4,2.366,4.883,5.316,21.85,8.85c5.7,1.167,11.667,2.233,17.9,3.2
				c5.533,0.866,8.35,1.233,8.449,1.1c-0.066,0.134-2.5,0.05-7.3-0.25c-5.6-0.333-11.1-0.85-16.5-1.55
				c-16.333-2.066-26.066-4.9-29.2-8.5c-3.199-3.533-0.583-6.066,7.851-7.6C168.434,81.134,172.967,80.717,177.8,80.65z"/>
		</g>
	</g>
	<g>
		<g>
			<path style="fill-rule:evenodd;clip-rule:evenodd;fill:#70424A;" d="M22.65,109c-0.7,0.1-1.483,0.3-2.35,0.6
				c-1.733,0.601-2.966,1.417-3.7,2.45c-0.633,0.767,2.2,1.584,8.5,2.45l9.6,1.35c-2.733-0.133-5.6-0.3-8.6-0.5
				c-6.067-0.399-9.783-1.05-11.15-1.949c-1.434-1.167-0.583-2.267,2.55-3.301C20.8,109,22.517,108.634,22.65,109z"/>
		</g>
	</g>
	<g>
		<g>
			<path style="fill-rule:evenodd;clip-rule:evenodd;fill:#70424A;" d="M130.8,69.65c-0.633,0.1-1.35,0.267-2.149,0.5
				c-1.567,0.533-2.733,1.233-3.5,2.1c-0.734,0.9,1.916,1.733,7.949,2.5c3,0.4,6.084,0.7,9.25,0.9c-2.633,0.1-5.399,0.066-8.3-0.101
				c-5.8-0.3-9.3-1.017-10.5-2.149c-1.233-1.134-0.4-2.101,2.5-2.9C127.517,70.1,129.1,69.816,130.8,69.65z"/>
		</g>
	</g>
</g>
</svg>
