<?xml version="1.0" encoding="iso-8859-1"?>
<!-- Generator: Adobe Illustrator 15.1.0, SVG Export Plug-In . SVG Version: 6.00 Build 0)  -->
<!DOCTYPE svg PUBLIC "-//W3C//DTD SVG 1.1//EN" "http://www.w3.org/Graphics/SVG/1.1/DTD/svg11.dtd">
<svg version="1.1" id="Isolation_Mode" xmlns="http://www.w3.org/2000/svg" xmlns:xlink="http://www.w3.org/1999/xlink" x="0px"
	 y="0px" width="80.35px" height="60.55px" viewBox="0 0 80.35 60.55" style="enable-background:new 0 0 80.35 60.55;"
	 xml:space="preserve">
<g>
	<path style="fill-rule:evenodd;clip-rule:evenodd;fill:#A64E5E;" d="M79.15,14.55c0.699,0.467,0.233,1.983-1.4,4.55l-2.65,3.7
		c-5.533-3.066-11.366-6.017-17.5-8.85C45.4,8.317,37.867,6.183,35,7.55c-5.8,2.767-10.167,11.467-13.1,26.101
		c-1.467,7.333-2.35,14.383-2.65,21.149c-0.667,0.434-1.517,0.884-2.55,1.351c-2.1,0.933-4.083,1.483-5.95,1.649
		c-2.3,0.2-4.733-0.066-7.3-0.8c-1.3-0.366-2.367-0.767-3.2-1.2c1.8-8.133,4.467-16.5,8-25.1C15.35,13.433,23.267,3.55,32,1.05
		c7.433-2.1,16.5-1.083,27.2,3.05C65.934,6.7,72.583,10.183,79.15,14.55z"/>
	<g>
		<path style="fill-rule:evenodd;clip-rule:evenodd;fill:#85424F;" d="M53.8,8.25c5.3,1.4,12.867,4.15,22.7,8.25l0.4,6.75
			c-0.434,0.033-0.867-0.033-1.301-0.2l-0.5-0.25c-5.366-2.966-11.033-5.85-17-8.65c-12-5.533-19.583-7.767-22.75-6.7
			c1.933-0.8,4.583-1.117,7.95-0.95C46.5,6.667,50,7.25,53.8,8.25z"/>
		<path style="fill-rule:evenodd;clip-rule:evenodd;fill:#85424F;" d="M21.05,14.65c-1.966,4.233-4.383,11.733-7.25,22.5
			c-1.433,5.366-2.7,10.366-3.8,15l-8.55-1.2c2.833-10.566,6.233-19.834,10.2-27.8c6.233-12.633,13.017-20,20.35-22.1l1.75-0.4
			c-1.567,0.8-3.25,2.017-5.05,3.65C25.467,7.2,22.917,10.65,21.05,14.65z"/>
	</g>
	<path style="fill-rule:evenodd;clip-rule:evenodd;fill:#5B2932;" d="M2.75,46.45l1.4,2c1.533,1.3,3.9,1.916,7.1,1.85
		c1.9,0,4.767-0.967,8.6-2.899l0.9,3.699c0.6,2.567,0.85,4.117,0.75,4.65c-0.2,0.967-1.083,1.917-2.65,2.85
		c-2.167,1.301-5.033,1.95-8.6,1.95c-3.033,0-5.483-0.416-7.35-1.25c-1.533-0.7-2.483-1.566-2.85-2.6
		c-0.233-0.733,0.15-2.667,1.15-5.8L2.75,46.45z"/>
	<path style="fill-rule:evenodd;clip-rule:evenodd;fill:#66363F;" d="M21.7,9.15c1.933-1.967,3.667-3.467,5.2-4.5
		c-2.633,2.633-4.717,5.233-6.25,7.8c-1.333,2.267-2.8,5.3-4.4,9.1c-1.933,4.467-3.367,8.467-4.3,12
		C10.55,38.717,9.3,43.967,8.2,49.3C6.9,48.9,5.833,48.35,5,47.65L4.2,46.7c2.5-8.4,5.383-16.483,8.65-24.25
		C14.883,17.583,17.833,13.15,21.7,9.15z"/>
	<path style="fill-rule:evenodd;clip-rule:evenodd;fill:#66363F;" d="M72.3,16.1l-1.649,3.5c-1.867-1.367-4.467-2.917-7.801-4.65
		c-2.066-1.067-6-2.65-11.8-4.75l-8.1-2.85l4.85,0.8c3.533,0.667,6.084,1.233,7.65,1.7C57.95,10.617,63.566,12.7,72.3,16.1z"/>
	<g>
		<path style="fill-rule:evenodd;clip-rule:evenodd;fill:#412227;" d="M2.75,46.45L4,48.3c1.367,1.267,3.45,1.934,6.25,2
			C9.717,51.134,9.3,52.017,9,52.95c-0.533,1.533-0.6,2.816-0.2,3.85c0.434,1.134,2.017,1.851,4.75,2.15
			c1.4,0.166,2.85,0.217,4.35,0.149c-2.1,0.967-4.65,1.45-7.65,1.45c-3.033,0-5.483-0.416-7.35-1.25
			c-1.533-0.7-2.483-1.566-2.85-2.6c-0.233-0.733,0.15-2.667,1.15-5.8L2.75,46.45z"/>
	</g>
	<path style="fill-rule:evenodd;clip-rule:evenodd;fill:#85424F;" d="M16,50.85l3.4-1.25l0.75,1.9c0.467,1.4,0.6,2.533,0.4,3.4
		c-0.167,0.866-0.816,1.55-1.95,2.05l-1.7,0.45c-0.267-0.267-0.183-0.95,0.25-2.051c0.267-0.699,0.15-1.666-0.35-2.899L16,50.85z"/>
	<path style="fill-rule:evenodd;clip-rule:evenodd;fill:#BA727B;" d="M15.35,47.3c2.033-8.8,3.566-15.149,4.6-19.05
		c0.633-2.4,2.167-5.983,4.6-10.75c1.2-2.367,2.333-4.5,3.4-6.4c-3.2,7.633-5.217,13.45-6.05,17.45c-0.833,4.033-1.8,9.8-2.9,17.3
		C17.267,46.884,16.05,47.366,15.35,47.3z"/>
	<path style="fill-rule:evenodd;clip-rule:evenodd;fill:#BA727B;" d="M70.65,10.45l2.199,2.6C63.184,8.35,55.783,5.167,50.65,3.5
		c-3.2-1.033-6.733-1.483-10.601-1.35l-4.8,0.5l3.5-0.95c2.934-0.567,5.833-0.633,8.7-0.2c2.866,0.433,7.583,2.05,14.149,4.85
		C64.9,7.783,67.917,9.15,70.65,10.45z"/>
	<path style="fill-rule:evenodd;clip-rule:evenodd;fill:#BA727B;" d="M78.9,14.4c1.366,0.533,1.767,2.267,1.199,5.2
		c-0.6,2.933-2.017,4.117-4.25,3.55c-2.267-0.6-2.816-2.4-1.649-5.4C75.333,14.717,76.9,13.6,78.9,14.4z"/>
	<linearGradient id="SVGID_1_" gradientUnits="userSpaceOnUse" x1="75.0996" y1="18.7549" x2="79.5996" y2="18.7549">
		<stop  offset="0" style="stop-color:#893342"/>
		<stop  offset="1" style="stop-color:#2D1D1E"/>
	</linearGradient>
	<path style="fill-rule:evenodd;clip-rule:evenodd;fill:url(#SVGID_1_);" d="M78.6,15c1,0.267,1.301,1.667,0.9,4.2
		c-0.366,2.533-1.333,3.633-2.9,3.3c-1.6-0.333-1.983-1.75-1.149-4.25C76.25,15.783,77.3,14.7,78.6,15z"/>
</g>
</svg>
