<?xml version="1.0" encoding="iso-8859-1"?>
<!-- Generator: Adobe Illustrator 15.1.0, SVG Export Plug-In . SVG Version: 6.00 Build 0)  -->
<!DOCTYPE svg PUBLIC "-//W3C//DTD SVG 1.1//EN" "http://www.w3.org/Graphics/SVG/1.1/DTD/svg11.dtd">
<svg version="1.1" id="Isolation_Mode" xmlns="http://www.w3.org/2000/svg" xmlns:xlink="http://www.w3.org/1999/xlink" x="0px"
	 y="0px" width="54.2px" height="66.75px" viewBox="0 0 54.2 66.75" style="enable-background:new 0 0 54.2 66.75;"
	 xml:space="preserve">
<g>
	<path style="fill-rule:evenodd;clip-rule:evenodd;fill:#CBCC9D;" d="M53.25,6.1c0.866,0.633,0.667,2.316-0.6,5.05
		s-2.667,3.7-4.2,2.9c-4.167-2.1-7.917-3.55-11.25-4.35c-4.634-1.1-8.2-0.883-10.7,0.65c-3.6,2.233-6.683,11.816-9.25,28.75
		c-1.267,8.467-2.183,16.717-2.75,24.75l-1.95,1.65c-1.867,1.033-4.2,1.417-7,1.15C2.783,66.384,1.033,65.5,0.3,64L0,61.85
		c1.033-8.366,2.783-17.116,5.25-26.25C10.183,17.4,16.267,6.483,23.5,2.85c5.767-2.867,11.783-3.567,18.05-2.1
		C45.684,1.717,49.583,3.5,53.25,6.1z"/>
	<g>
		<path style="fill-rule:evenodd;clip-rule:evenodd;fill:#B2B38A;" d="M23.15,5.05c-0.9,0.767-1.983,2.1-3.25,4
			c-2.533,3.8-4.667,8.583-6.4,14.35c-1.533,5.067-3.133,12.883-4.8,23.45C7.667,53.316,6.733,59.917,5.9,66.65H5.55
			C2.783,66.384,1.033,65.5,0.3,64L0,61.85C0.8,55.35,2.15,48.2,4.05,40.4C7.817,24.833,12.4,13.883,17.8,7.55
			c0.434,0.4,1.45,0.1,3.05-0.9C21.65,6.15,22.417,5.617,23.15,5.05z"/>
		<path style="fill-rule:evenodd;clip-rule:evenodd;fill:#B2B38A;" d="M40.9,7.95c3.633,0.5,7.05,1.25,10.25,2.25l-2.65,3.9
			c-10.267-5.167-17.6-6.417-22-3.75C28.8,7.783,33.6,6.983,40.9,7.95z"/>
	</g>
	<path style="fill-rule:evenodd;clip-rule:evenodd;fill:#9FA17C;" d="M7.5,30.65c1.3-4.767,3.35-9.7,6.15-14.8
		c1.434-2.533,2.717-4.6,3.85-6.2c-1.033,2.033-2.15,4.417-3.35,7.15c-2.433,5.4-4.066,9.784-4.9,13.15
		c-1.333,5.399-3.033,17.267-5.1,35.6c-1.233-0.467-2.183-1.066-2.85-1.8L0.65,62.8C3.15,48.967,5.433,38.25,7.5,30.65z"/>
	<path style="fill-rule:evenodd;clip-rule:evenodd;fill:#9FA17C;" d="M49.4,11.2l-1.25,1.85c-2-1.066-4.184-1.95-6.551-2.65
		C40.1,9.933,37.9,9.483,35,9.05l-3.9-0.5l1.95-0.2c1.601-0.1,3.117-0.083,4.55,0.05C39.866,8.6,43.8,9.533,49.4,11.2z"/>
	<path style="fill-rule:evenodd;clip-rule:evenodd;fill:#D8D8B6;" d="M49.1,4.7L48.4,6.45c-3.334-2.1-6.267-3.434-8.801-4
		c-1.6-0.367-3.866-0.5-6.8-0.4L28.9,2.3l2.649-0.55C33.816,1.383,36.1,1.233,38.4,1.3c2.333,0.067,4.816,0.65,7.449,1.75
		C47.184,3.617,48.267,4.167,49.1,4.7z"/>
	<path style="fill-rule:evenodd;clip-rule:evenodd;fill:#D8D8B6;" d="M20.5,16.95C19.333,22.083,18.25,27,17.25,31.7
		c-1,4.733-2.283,15.3-3.85,31.7c-0.333,0.5-0.633,0.8-0.9,0.899l-1.15,0.5c1.133-12.033,2.217-21.116,3.25-27.25
		c0.767-4.533,1.983-9.333,3.65-14.4C19.083,20.65,19.833,18.583,20.5,16.95z"/>
	<path style="fill-rule:evenodd;clip-rule:evenodd;fill:#D8D8B6;" d="M53.1,6c1.434,0.8,1.45,2.617,0.051,5.45
		c-1.434,2.833-2.983,3.716-4.65,2.65c-1.7-1.067-1.733-2.9-0.1-5.5C50,6,51.566,5.133,53.1,6z"/>
	<linearGradient id="SVGID_1_" gradientUnits="userSpaceOnUse" x1="48.4004" y1="10.1934" x2="53.6004" y2="10.1934">
		<stop  offset="0" style="stop-color:#893342"/>
		<stop  offset="1" style="stop-color:#2D1D1E"/>
	</linearGradient>
	<path style="fill-rule:evenodd;clip-rule:evenodd;fill:url(#SVGID_1_);" d="M52.75,6.7c1.3,0.733,1.283,2.283-0.05,4.65
		c-1.367,2.333-2.601,3.033-3.7,2.1c-1.033-0.9-0.9-2.383,0.4-4.45C50.7,6.933,51.816,6.167,52.75,6.7z"/>
</g>
</svg>
