<?xml version="1.0" encoding="iso-8859-1"?>
<!-- Generator: Adobe Illustrator 15.1.0, SVG Export Plug-In . SVG Version: 6.00 Build 0)  -->
<!DOCTYPE svg PUBLIC "-//W3C//DTD SVG 1.1//EN" "http://www.w3.org/Graphics/SVG/1.1/DTD/svg11.dtd">
<svg version="1.1" id="buildings-back" xmlns="http://www.w3.org/2000/svg" xmlns:xlink="http://www.w3.org/1999/xlink" x="0px"
	 y="0px" width="21.45px" height="75.65px" viewBox="0 0 21.45 75.65" style="enable-background:new 0 0 21.45 75.65;"
	 xml:space="preserve">
<path style="fill-rule:evenodd;clip-rule:evenodd;fill:#81836F;" d="M15.8,7.45c0,3.3-0.217,9.933-0.649,19.9
	C14.884,49.95,15.5,63.066,17,66.7c1.333,3.267,2.816,5.983,4.45,8.149c-2.434-0.966-4.2-1.383-5.3-1.25
	c-0.667,0.101-1.301,0.467-1.9,1.101c-0.333,0.333-0.583,0.649-0.75,0.95c-0.8-0.801-1.75-1.2-2.85-1.2
	c-0.667,0-1.534,0.133-2.601,0.399l-1.45,0.4c3.133-10.733,4.7-17.116,4.7-19.15c0-1.267-0.133-3.816-0.399-7.649l-0.45-5.4
	C9.183,43.483,7.833,43.7,6.4,43.7c-2.867-0.033-4.767-1.2-5.7-3.5c-0.934-2.3-0.917-7.567,0.05-15.8
	c0.5-4.133,1.083-8.033,1.75-11.7c0.833-0.3,1.6-0.417,2.3-0.35c1.434,0.133,1.9,1.133,1.4,3C5.467,17.983,4.933,21.533,4.6,26
	c-0.367,5-0.184,8.433,0.55,10.3c0.7,1.7,1.783,2.417,3.25,2.15c0.767-0.134,1.45-0.434,2.05-0.9C10.184,31.45,10.1,25.3,10.2,19.1
	C10.366,6.733,11.333,0.383,13.1,0.05C14.9-0.283,15.8,2.183,15.8,7.45z"/>
</svg>
