<?xml version="1.0" encoding="iso-8859-1"?>
<!-- Generator: Adobe Illustrator 15.1.0, SVG Export Plug-In . SVG Version: 6.00 Build 0)  -->
<!DOCTYPE svg PUBLIC "-//W3C//DTD SVG 1.1//EN" "http://www.w3.org/Graphics/SVG/1.1/DTD/svg11.dtd">
<svg version="1.1" id="cloud_x5F_01.ai" xmlns="http://www.w3.org/2000/svg" xmlns:xlink="http://www.w3.org/1999/xlink" x="0px"
	 y="0px" width="437.8px" height="116.9px" viewBox="0 0 437.8 116.9" style="enable-background:new 0 0 437.8 116.9;"
	 xml:space="preserve">
<g>
	<path style="fill-rule:evenodd;clip-rule:evenodd;fill:#FBDBA1;" d="M336.95,14.05c6.899,5.6,12.066,11.417,15.5,17.45l9.3-1.05
		c7.634-0.534,15.083-0.4,22.35,0.4c23.267,2.6,40.267,11.433,51,26.5c10.767,15.067-10.55,19.583-63.949,13.55
		c-16.667-1.867-35.551-4.684-56.65-8.45l-26.65-5.1c0.434,5.167-0.75,10.867-3.55,17.1c-5.6,12.5-16.467,21.434-32.6,26.8
		c-16.134,5.366-32.601,3.533-49.4-5.5c-5.267-2.8-10.233-6.167-14.9-10.1l-5.45-5.051c-1.3,5.601-4.417,11.301-9.35,17.101
		c-9.9,11.633-24,17.983-42.3,19.05c-18.3,1.1-31.983-3.3-41.05-13.2c-2.8-3.1-4.983-6.566-6.55-10.399l-1.5-4.801
		C70,88.783,58.267,88.033,46,86.1C21.467,82.2,6.5,74.333,1.1,62.5c-5.367-11.833,8.95-17.1,42.95-15.8
		c17.034,0.633,34.583,2.45,52.65,5.45l2.9-3.65c2.6-2.967,5.517-5.733,8.75-8.3c10.333-8.167,21.95-12.784,34.85-13.85
		c12.933-1.067,28.867-0.1,47.8,2.9c9.467,1.5,17.65,3.117,24.55,4.85l3.05-4.15c2.967-3.4,6.75-6.65,11.351-9.75
		c14.7-9.934,34.866-16.5,60.5-19.7C307.684-1.633,323.184,2.883,336.95,14.05z"/>
	<path style="fill-rule:evenodd;clip-rule:evenodd;fill:#F9D38B;" d="M25.7,51l-1.05,0.65c-0.767,0.567-1.316,1.283-1.65,2.15
		c-1.133,2.767,0.017,6.334,3.45,10.7c3.633,4.634,8.316,8.017,14.05,10.15c3.2,1.166,8.267,2.283,15.2,3.35
		c6.5,1,14.5,1.75,24,2.25c-0.733,1.5-2.45,2.816-5.15,3.95c-5.367,2.233-12.9,2.416-22.6,0.55c-14.567-2.8-25.534-5.767-32.9-8.9
		C8.817,71.517,4.033,66.483,4.7,60.75c0.667-5.633,3.233-9.033,7.7-10.2C15.1,49.817,19.533,49.967,25.7,51z"/>
	<path style="fill-rule:evenodd;clip-rule:evenodd;fill:#F9D38B;" d="M172.05,86.55c3.434-4.066,5.9-7.916,7.4-11.55
		c-1.233,3.634-2.883,7.533-4.95,11.7c-4.133,8.399-8.233,14-12.3,16.8c-7.5,5.2-14,8.517-19.5,9.95
		c-10.067,2.633-21.817,1.816-35.25-2.45c-9.6-3.033-15.733-9.95-18.4-20.75c-0.833-3.366-1.267-6.917-1.3-10.65l0.2-4.6
		c10.433,8.833,18.617,15.017,24.55,18.55c13.2,7.867,24.767,10.684,34.7,8.45C156.9,99.8,165.183,94.65,172.05,86.55z"/>
	<path style="fill-rule:evenodd;clip-rule:evenodd;fill:#F9D38B;" d="M256.7,90c6.866-1.233,13.3-7.483,19.3-18.75
		c3-5.634,5.316-11.134,6.95-16.5l-0.65,9.1c-1.133,7.134-3.416,13.351-6.85,18.65c-3.9,6.033-8.684,10.35-14.351,12.95
		c-4.699,2.166-11.916,3.85-21.649,5.05c-8.767,1.1-18.117-0.333-28.05-4.3c-9.533-3.834-16.433-8.65-20.7-14.45
		c-3.434-4.7-4.833-11.733-4.2-21.1c0.2-2.934,0.583-5.917,1.15-8.95l0.8-3.7l7.4,12.4c5.867,9,11.15,15.366,15.85,19.1
		c4.8,3.833,11.333,6.833,19.6,9C240.467,90.9,248.934,91.4,256.7,90z"/>
	<path style="fill-rule:evenodd;clip-rule:evenodd;fill:#F9D38B;" d="M405.2,67.4c8,0.433,15,0.716,21,0.85
		c-3.634,0.767-8.75,1.333-15.351,1.7c-13.267,0.733-27.399,0.166-42.399-1.7s-32.617-4.934-52.851-9.2l-25.899-5.8l0.75-8.25
		l28.899,7.95c21.233,5.633,36.851,9.233,46.851,10.8S389.2,66.533,405.2,67.4z"/>
</g>
</svg>
