<?xml version="1.0" encoding="iso-8859-1"?>
<!-- Generator: Adobe Illustrator 15.1.0, SVG Export Plug-In . SVG Version: 6.00 Build 0)  -->
<!DOCTYPE svg PUBLIC "-//W3C//DTD SVG 1.1//EN" "http://www.w3.org/Graphics/SVG/1.1/DTD/svg11.dtd">
<svg version="1.1" id="cloud_x5F_02.ai" xmlns="http://www.w3.org/2000/svg" xmlns:xlink="http://www.w3.org/1999/xlink" x="0px"
	 y="0px" width="454.65px" height="129.45px" viewBox="0 0 454.65 129.45" style="enable-background:new 0 0 454.65 129.45;"
	 xml:space="preserve">
<symbol  id="Symbol_1" viewBox="-0.001 -129.437 454.649 129.441">
	<g id="Layer_1_2_">
		<g>
			<path style="fill-rule:evenodd;clip-rule:evenodd;fill:#FBDBA1;" d="M356-76.7l-22.5,1.1c-1.5-4.5-4.117-9.133-7.85-13.9
				c-7.5-9.5-16.883-14.867-28.15-16.1c-11.233-1.267-24.1,1.85-38.6,9.35c-4.533,2.367-8.967,5.017-13.3,7.95l-5.1,3.7
				c-0.5-4.5-2.75-9.633-6.75-15.4c-8-11.5-20.75-20.367-38.25-26.6c-17.5-6.267-29.75-2.15-36.75,12.35
				c-2.2,4.533-3.733,9.833-4.6,15.9l-0.65,7.75c-9-2.5-20.117-4.883-33.35-7.15c-26.5-4.5-50.383-6.117-71.65-4.85
				c-12.267,0.733-22.55,2.8-30.85,6.2C9.983-93.267,4.767-89.333,2-84.6c-2.7,4.633-2.667,9.317,0.1,14.05
				c2.867,4.966,8.333,9.283,16.4,12.95c13.767,6.233,32.4,6.6,55.9,1.1c11.733-2.733,22.1-6.1,31.1-10.1c8,7.5,17.733,15,29.2,22.5
				c23,15,43.267,22.5,60.8,22.5c8.767,0,18.9-3.5,30.4-10.5c5.733-3.5,10.6-7,14.6-10.5c0.133,1.5,0.5,3.4,1.1,5.7
				c1.167,4.633,2.934,8.983,5.3,13.05c7.5,13,19.367,20.75,35.6,23.25c16.267,2.5,26.65-2.75,31.15-15.75
				c2.233-6.5,2.85-13.25,1.85-20.25l16.9-1.25c13.733-1.2,26.85-2.667,39.35-4.4c40-5.5,66.25-12.617,78.75-21.35
				c12.5-8.767-3.25-13.4-47.25-13.9C389.517-77.633,373.767-77.367,356-76.7z"/>
			<path style="fill-rule:evenodd;clip-rule:evenodd;fill:#F9D38B;" d="M138.5-87.45c-13.967-7-29.85-10.966-47.65-11.9
				c-22.867-1.2-41.816-0.566-56.85,1.9C17.267-94.717,7.3-89.967,4.1-83.2c-2.8,5.934-0.4,11.733,7.2,17.4
				c3.933,2.933,8.767,5.75,14.5,8.45l-0.45-1.85c-0.3-1.566-0.367-3.167-0.2-4.8c0.5-5.2,3.1-9.667,7.8-13.4
				c4.733-3.8,16.35-6.283,34.85-7.45c15.533-1,29.533-0.917,42,0.25c8.5,0.8,18.433,2.267,29.8,4.4c5.7,1.067,10.534,2.067,14.5,3
				C150.7-80.533,145.5-83.95,138.5-87.45z"/>
			<path style="fill-rule:evenodd;clip-rule:evenodd;fill:#F9D38B;" d="M238.45-68.35c0.367-6.7-1.316-13.733-5.05-21.1
				c-3.467-6.9-8.283-13.25-14.45-19.05c-6.133-5.8-12.65-10.15-19.55-13.05c-7.333-3.133-14.117-4.184-20.35-3.15
				c-10.233,1.633-16.333,7.8-18.3,18.5c-0.633,3.367-0.8,6.967-0.5,10.8l0.6,4.75l2.95-3.2c2.533-2.5,5.233-4.617,8.1-6.35
				c9.267-5.533,18.583-6.267,27.95-2.2c9.367,4.066,18.617,10.967,27.75,20.7C232.167-76.867,235.783-72.417,238.45-68.35z"/>
			<path style="fill-rule:evenodd;clip-rule:evenodd;fill:#F9D38B;" d="M330.4-64.95c0.833-6.133-0.867-12.767-5.1-19.9
				c-4.733-8-11.233-13.6-19.5-16.8c-8.367-3.2-19.417-2.25-33.15,2.85c-5.8,2.133-11.017,4.7-15.65,7.7
				c-4.7,3-7.983,5.917-9.85,8.75c-3.167,4.733-4.117,10.817-2.85,18.25c0.4,2.333,1,4.65,1.8,6.95l1.05,2.8l6.45-6.2
				c5.333-4.967,10.583-9.467,15.75-13.5c16.434-12.934,28.833-18.85,37.2-17.75c8.367,1.1,14.85,5.9,19.45,14.4
				C328.3-73.133,329.767-68.983,330.4-64.95z"/>
			<path style="fill-rule:evenodd;clip-rule:evenodd;fill:#F9D38B;" d="M429.8-73.9c-9.767-1.4-20.583-2-32.45-1.8
				c-11.867,0.2-25.767,0.684-41.7,1.45l-20.3,1.05l1,6l23.7-2.55c17.4-1.767,30.167-2.75,38.3-2.95c8.133-0.2,17.65-0.1,28.55,0.3
				c5.467,0.2,10.117,0.433,13.95,0.7C438.35-72.467,434.667-73.2,429.8-73.9z"/>
		</g>
	</g>
</symbol>
<use xlink:href="#Symbol_1"  width="454.649" height="129.441" x="-0.001" y="-129.437" transform="matrix(1 0 0 -1 0 0)" style="overflow:visible;opacity:0.6914;enable-background:new    ;"/>
</svg>
