<?xml version="1.0" encoding="iso-8859-1"?>
<!-- Generator: Adobe Illustrator 15.1.0, SVG Export Plug-In . SVG Version: 6.00 Build 0)  -->
<!DOCTYPE svg PUBLIC "-//W3C//DTD SVG 1.1//EN" "http://www.w3.org/Graphics/SVG/1.1/DTD/svg11.dtd">
<svg version="1.1" id="cloud_x5F_03.ai" xmlns="http://www.w3.org/2000/svg" xmlns:xlink="http://www.w3.org/1999/xlink" x="0px"
	 y="0px" width="492.05px" height="156.65px" viewBox="0 0 492.05 156.65" style="enable-background:new 0 0 492.05 156.65;"
	 xml:space="preserve">
<g>
	<path style="fill-rule:evenodd;clip-rule:evenodd;fill:#FBDBA1;" d="M377.55,69.1l6.5-3.1c5.7-2.367,11.917-4.333,18.65-5.9
		c21.5-5,44.116-5,67.85,0c13.434,2.833,20.566,7.5,21.4,14c0.7,5.766-3.434,12.233-12.4,19.4c-8.5,6.767-19.366,12.65-32.6,17.65
		c-13.834,5.233-26.967,8.216-39.4,8.949c-21.233,1.267-41.6-2.35-61.1-10.85c-6.101-2.667-11.75-5.667-16.95-9l-5.95-4.15
		c-1,4-3.616,8.5-7.85,13.5c-8.5,10-20.884,17.5-37.15,22.5c-16.233,5-28.6,3-37.1-6c-2.667-2.8-4.784-6.149-6.35-10.05l-1.55-4.95
		c-1,6.5-4.117,13.25-9.35,20.25c-10.5,14-26.383,22.25-47.65,24.75c-21.233,2.5-40.1-3.25-56.6-17.25
		c-5.167-4.366-9.784-9.3-13.85-14.8l-4.55-6.95c-20,2.5-39.117,3.634-57.35,3.4C7.7,120-6.183,112.866,2.55,99.1
		c8.767-13.733,35.9-23.35,81.4-28.85c22.733-2.767,44.6-4.15,65.6-4.15c-0.633-2.533-1.083-5.733-1.35-9.6
		c-0.5-7.733,0.183-14.9,2.05-21.5c6-21.133,22.767-32.767,50.3-34.9C216.817-1.133,232.7,8,248.2,27.5
		c7.733,9.733,13.85,19.6,18.35,29.6l4.3-5.1c3.767-4.067,7.834-7.733,12.2-11c14-10.5,28.5-15.133,43.5-13.9
		c15,1.267,28,8.65,39,22.15C371.05,55.983,375.05,62.6,377.55,69.1z"/>
	<path style="fill-rule:evenodd;clip-rule:evenodd;fill:#F9D38B;" d="M31.75,85.15c-3.933,2.866-5.35,5.899-4.25,9.1
		c1,2.934,3.967,5.7,8.9,8.3c4.733,2.467,10.5,4.4,17.3,5.8c7.066,1.434,14.083,2.034,21.05,1.801
		c11.867-0.4,23.767-2.351,35.7-5.851c5.966-1.767,10.733-3.483,14.3-5.149c-1.833,1.6-4.1,3.316-6.8,5.149
		c-5.434,3.667-10.333,6.117-14.7,7.351c-5.633,1.6-12.483,2.883-20.55,3.85c-8.067,0.934-18.217,1.65-30.45,2.15
		c-12.8,0.533-23.9-0.667-33.3-3.601c-9.9-3.1-14.133-7.066-12.7-11.899c1.267-4.167,5.9-8.25,13.9-12.25
		C24.15,87.9,28.017,86.316,31.75,85.15z"/>
	<path style="fill-rule:evenodd;clip-rule:evenodd;fill:#F9D38B;" d="M222.15,119.5c3.833-5.467,6.7-10.75,8.6-15.85l-3.3,11.899
		c-3.1,8.834-6.833,15.533-11.2,20.101c-5.9,6.166-12.633,10.517-20.2,13.05c-9.333,3.1-21.433,4.083-36.3,2.95
		c-18.967-1.467-30.983-8.817-36.05-22.051c-1.6-4.133-2.4-8.616-2.4-13.449l0.45-6l7.3,5.3c6.067,4.2,12.184,7.934,18.35,11.2
		c19.667,10.5,35.95,14.5,48.85,12C205.85,136.783,214.483,130.4,222.15,119.5z"/>
	<path style="fill-rule:evenodd;clip-rule:evenodd;fill:#F9D38B;" d="M243.25,77.65c0.733,5.034,3.066,10.767,7,17.2
		c3.733,6.034,7.566,10.634,11.5,13.801c4.533,3.6,10.583,5.616,18.15,6.05c9.066,0.533,17.35-1.816,24.85-7.05
		c6.866-4.801,11.6-12.4,14.2-22.801c0.8-3.267,1.333-6.616,1.6-10.05l0.2-4.15l0.25,4.1c0.066,3.367-0.033,6.667-0.3,9.9
		c-0.934,10.333-3.584,18-7.95,23c-10.6,12.1-22.934,19.1-37,21c-9.267,1.267-16.75,0.583-22.45-2.051
		c-5.7-2.666-10.05-7.483-13.05-14.449c-2.5-5.834-2.75-13.334-0.75-22.5c0.633-2.867,1.45-5.733,2.45-8.601L243.25,77.65z"/>
	<path style="fill-rule:evenodd;clip-rule:evenodd;fill:#F9D38B;" d="M484.45,86.15c-4.101,4-9.167,7.666-15.2,11
		c-9,4.966-20.45,9.316-34.35,13.05c-17.233,4.633-32.95,6.616-47.15,5.95c-13.134-0.634-27.483-4.983-43.05-13.051
		c-4.867-2.533-9.566-5.283-14.101-8.25l-5.35-3.699l2-12l21.65,12.5c16.166,8.833,28.616,14.5,37.35,17
		c6.967,2,18.5,1.733,34.6-0.801c13.534-2.1,25.334-4.833,35.4-8.199c6.866-2.301,14.35-6.067,22.45-11.301
		c4.033-2.633,7.383-5.033,10.05-7.199C487.917,82.483,486.483,84.15,484.45,86.15z"/>
</g>
</svg>
