<?xml version="1.0" encoding="iso-8859-1"?>
<!-- Generator: Adobe Illustrator 15.1.0, SVG Export Plug-In . SVG Version: 6.00 Build 0)  -->
<!DOCTYPE svg PUBLIC "-//W3C//DTD SVG 1.1//EN" "http://www.w3.org/Graphics/SVG/1.1/DTD/svg11.dtd">
<svg version="1.1" id="cloud_x5F_04.ai" xmlns="http://www.w3.org/2000/svg" xmlns:xlink="http://www.w3.org/1999/xlink" x="0px"
	 y="0px" width="558.3px" height="132.35px" viewBox="0 0 558.3 132.35" style="enable-background:new 0 0 558.3 132.35;"
	 xml:space="preserve">
<g>
	<path style="fill-rule:evenodd;clip-rule:evenodd;fill:#FBDBA1;" d="M529.25,88.9c28-0.5,35.75,4.866,23.25,16.1
		c-12.5,11.267-30.25,16.65-53.25,16.15c-7.2-0.167-14.483-0.917-21.85-2.25l-8.9-1.9c-7,3-15.25,5.884-24.75,8.65
		c-19,5.5-34.75,7.616-47.25,6.35c-12.5-1.233-25.25-8.6-38.25-22.1c-4.066-4.233-7.917-8.817-11.55-13.75L342.5,90
		c-2,5-5.866,9.884-11.6,14.65c-11.5,9.5-26.634,13.616-45.4,12.35c-18.733-1.233-32.35-7.1-40.85-17.6
		c-2.667-3.301-4.667-6.851-6-10.65L237.5,84c-5.5,4-13,8-22.5,12c-19,8-38.5,12-58.5,12S123,103,116,93
		c-2.2-3.134-3.6-6.566-4.2-10.3l-0.3-4.7c-20,5-39.617,8.634-58.85,10.9C14.15,93.4-3.233,88.767,0.5,75
		c3.767-13.733,16.9-22.35,39.4-25.85C51.133,47.383,62,47,72.5,48c11-8,23.75-16,38.25-24C139.75,8,163,0,180.5,0
		c16.667,0,36.167,8.5,58.5,25.5c11.167,8.5,20.667,17,28.5,25.5l7.95-1.25c6.633-0.933,13.233-1.633,19.8-2.1
		c21-1.5,37.75-0.383,50.25,3.35c12.5,3.767,23.75,9.4,33.75,16.9c5,3.733,8.75,7.1,11.25,10.1l3.8-2.75
		c3.3-2.2,6.917-4.15,10.851-5.85c12.5-5.5,25.616-7.634,39.35-6.4c13.767,1.267,24.4,6.65,31.9,16.15
		c3.733,4.733,6.1,9.35,7.1,13.85l15-1.9C510.267,89.767,520.517,89.033,529.25,88.9z"/>
	<path style="fill-rule:evenodd;clip-rule:evenodd;fill:#F9D38B;" d="M84.9,80c-20.5,5.5-38.05,7.833-52.65,7
		c-8.267-0.467-14.533-2.05-18.8-4.75C9.617,79.816,7.8,76.8,8,73.2c0.2-3.434,2.15-6.733,5.85-9.9c3.833-3.267,8.8-5.7,14.9-7.3
		l-2.1,2.2c-1.5,1.767-2.583,3.466-3.25,5.1c-2.167,5.267,0.283,8.834,7.35,10.7c7.1,1.866,22.65,2.017,46.65,0.45
		c12-0.8,23.283-1.783,33.85-2.95C103.917,74.434,95.133,77.267,84.9,80z"/>
	<path style="fill-rule:evenodd;clip-rule:evenodd;fill:#F9D38B;" d="M229.95,74.75c4.133-3,7.233-5.75,9.3-8.25
		c-1.867,2.667-3.967,5.517-6.3,8.55c-4.7,6.101-8.267,10.084-10.7,11.95c-4.567,3.566-10.6,6.75-18.1,9.55
		c-7.767,2.9-16.566,5.217-26.4,6.95c-9.6,1.667-19.867,1.467-30.8-0.6c-10.367-1.967-17.434-4.767-21.2-8.4
		c-5.833-5.634-9.333-12.9-10.5-21.8c-0.367-2.8-0.483-5.584-0.35-8.35l0.35-3.35c3.267,4.233,8.55,8.35,15.85,12.35
		c6.867,3.801,14.717,7.034,23.55,9.7c19.5,5.967,35.367,7.45,47.6,4.45C212.45,85,221.683,80.75,229.95,74.75z"/>
	<path style="fill-rule:evenodd;clip-rule:evenodd;fill:#F9D38B;" d="M333.8,89.5c3.9-4.733,6.884-9.4,8.95-14l-2.6,8.55
		c-2.167,6.267-4.301,10.75-6.4,13.45c-2.634,3.434-6.15,6.483-10.55,9.15c-4.834,2.899-10.483,5.183-16.95,6.85
		c-7.566,1.967-17.134,1.45-28.7-1.55c-12.767-3.334-21.7-8.483-26.8-15.45c-4.567-6.233-5.933-13.6-4.1-22.1
		c0.567-2.667,1.417-5.284,2.55-7.851l1.55-3.05c4.933,13.566,13.567,24.333,25.9,32.3c11.067,7.101,21.767,10.167,32.1,9.2
		C317.717,104.167,326.066,99,333.8,89.5z"/>
	<path style="fill-rule:evenodd;clip-rule:evenodd;fill:#F9D38B;" d="M347.25,77.5L362,90.55c11.5,9.934,21.417,17.917,29.75,23.95
		s23.083,8.1,44.25,6.2c10.6-0.967,20.35-2.533,29.25-4.7c-7,3.5-15.366,6.55-25.1,9.15c-19.5,5.166-36.134,5.449-49.9,0.85
		c-17.333-5.767-29.7-15.583-37.1-29.45c-2.301-4.333-3.983-8.8-5.051-13.399L347.25,77.5z"/>
	<path style="fill-rule:evenodd;clip-rule:evenodd;fill:#F9D38B;" d="M545.5,108.55c-7.667,5.267-16.917,8.417-27.75,9.45
		c-12.467,1.2-22.233,0.8-29.3-1.2c-6.233-1.733-12.634-5.5-19.2-11.3l4.55,2.55c4.767,1.934,11.417,3.417,19.95,4.45
		c9,1.1,17.934,1.167,26.8,0.2c5.967-0.667,11.533-1.733,16.7-3.2c2.934-0.833,6.566-2.5,10.9-5c2.166-1.233,4.033-2.4,5.6-3.5
		C552.083,103.434,549.333,105.95,545.5,108.55z"/>
</g>
</svg>
