<?xml version="1.0" encoding="iso-8859-1"?>
<!-- Generator: Adobe Illustrator 15.1.0, SVG Export Plug-In . SVG Version: 6.00 Build 0)  -->
<!DOCTYPE svg PUBLIC "-//W3C//DTD SVG 1.1//EN" "http://www.w3.org/Graphics/SVG/1.1/DTD/svg11.dtd">
<svg version="1.1" id="buildings_1" xmlns="http://www.w3.org/2000/svg" xmlns:xlink="http://www.w3.org/1999/xlink" x="0px"
	 y="0px" width="359px" height="436.05px" viewBox="0 0 359 436.05" style="enable-background:new 0 0 359 436.05;"
	 xml:space="preserve">
<symbol  id="FlashAICB_x2F_buildings_1_x2F__x3C_Path_x3E_" viewBox="0 -73.65 132.3 73.61">
	<g id="Layer_1_5_">
		<path style="fill-rule:evenodd;clip-rule:evenodd;fill:#8B5636;" d="M132.3-73.65c-4.433,6.167-9.683,12.767-15.75,19.8
			C104.45-39.783,94.367-30.6,86.3-26.3c-10,5.367-17.1,9-21.3,10.9c-8.133,3.733-15.283,6.117-21.45,7.15
			c-6.133,1.033-15.233,1-27.3-0.1C10.217-8.883,4.8-9.533,0-10.3c3.9,0.867,8.45,1.683,13.65,2.45c10.434,1.5,18.983,1.9,25.65,1.2
			c6.667-0.7,14.75-2.75,24.25-6.15c4.767-1.733,8.85-3.383,12.25-4.95c-3.7,2.1-7.816,4.317-12.35,6.65
			C54.317-6.467,47.6-3.6,43.3-2.5C39-1.367,32.933-0.883,25.1-1.05c-3.9-0.1-7.383-0.3-10.45-0.6c2.833,0.467,6.033,0.867,9.6,1.2
			c7.133,0.633,12.567,0.534,16.3-0.3c5.367-1.2,11.983-3.567,19.85-7.1c9.633-4.3,19.167-9.566,28.6-15.8
			c8.6-5.7,18.4-15.733,29.4-30.1C123.9-60.95,128.533-67.583,132.3-73.65z"/>
	</g>
</symbol>
<symbol  id="FlashAICB_x2F_buildings_1_x2F__x3C_Path_x3E__x5F_25" viewBox="0.018 -77.35 13.532 77.35">
	<g id="Layer_1_4_">
		<path style="fill-rule:evenodd;clip-rule:evenodd;fill:#8B5636;" d="M0.05-45.7C-0.083-42,0.2-36.833,0.9-30.2
			c0.633,5.833,2.45,12.617,5.45,20.35C7.883-5.983,9.333-2.7,10.7,0l2.85-77.35c-1.066,1.167-2.117,2.35-3.15,3.55
			c-2.133,2.4-3.2,3.667-3.2,3.8c-0.7,1.6-1.467,3.35-2.3,5.25c-1.7,3.867-2.816,6.883-3.35,9.05C0.65-52.1,0.15-48.767,0.05-45.7z"
			/>
	</g>
</symbol>
<symbol  id="FlashAICB_x2F_buildings_1_x2F__x3C_Path_x3E__x5F_33" viewBox="0 -41.65 61 41.65">
	<g id="Layer_1_3_">
		<path style="fill-rule:evenodd;clip-rule:evenodd;fill:#8B5636;" d="M44-21.65c6.267-5,10.983-9.833,14.15-14.5
			c1.567-2.333,2.517-4.167,2.85-5.5c-0.867,1.6-2.583,3.783-5.15,6.55C50.75-29.533,44.033-23.833,35.7-18
			C26.2-11.333,17.4-6.333,9.3-3C5.267-1.333,2.167-0.333,0,0c6.267-0.133,13.683-2.483,22.25-7.05
			C29.15-10.717,36.4-15.583,44-21.65z"/>
	</g>
</symbol>
<symbol  id="FlashAICB_x2F_buildings_1_x2F__x3C_Path_x3E__x5F_37" viewBox="0 -128.5 63.5 128.5">
	<g id="Layer_1_2_">
		<path style="fill-rule:evenodd;clip-rule:evenodd;fill:#C99553;" d="M46.35-22.8c1.867,5.133,5.283,9,10.25,11.6
			c2.5,1.3,4.8,2.083,6.9,2.35L47.2-120.8l-21.85-7.7l0.65,6.25c-1.167,4.567-5.15,21.367-11.95,50.4
			c-3.4,14.533-6.683,28.6-9.85,42.2L0,0c0.667-0.067,1.467-0.45,2.4-1.15C4.233-2.517,5.767-4.733,7-7.8
			c1.4-3.4,3.133-9.65,5.2-18.75c1.833-8.1,3.216-15.133,4.15-21.1c3.3-20.967,6.25-35.917,8.85-44.85
			c1.167-4.067,2.867-8.317,5.1-12.75c1.967,5.167,3.367,10.083,4.2,14.75c1.067,5.633,1.833,10.433,2.3,14.4
			c0.133,1.1,0.767,7.467,1.9,19.1c0.8,8.367,1.9,15.333,3.3,20.9C42.767-33.067,44.217-28.633,46.35-22.8z"/>
	</g>
</symbol>
<g>
	<path style="fill-rule:evenodd;clip-rule:evenodd;fill:#915938;" d="M188.35,35.05c-1.1-5.267-3.433-11.066-7-17.4l-5-7.9l6.5,6
		c4.667,5.1,7.834,10.433,9.5,16c2.667,8.867,5.551,21.533,8.65,38l-13.15,20.6c0.534-7.1,0.95-14.733,1.25-22.9
		C189.7,51.15,189.45,40.35,188.35,35.05z"/>
	<path style="fill-rule:evenodd;clip-rule:evenodd;fill:#9E5F3B;" d="M7.95,340.6c7.1-19.366,15.2-33.866,24.3-43.5L71,288.75l65,3
		c-5.667,1.333-12.533,3.25-20.6,5.75c-16.167,5-30.3,10.417-42.4,16.25c-12.067,5.833-27.85,16.417-47.35,31.75
		C15.883,353.167,7.333,360.25,0,366.75C1.733,359.017,4.383,350.3,7.95,340.6z"/>
	<g>
		
			<linearGradient id="SVGID_1_" gradientUnits="userSpaceOnUse" x1="-252.25" y1="-88.1172" x2="-188.15" y2="-88.1172" gradientTransform="matrix(-1 0 0 -1 0 0)">
			<stop  offset="0" style="stop-color:#FAD591"/>
			<stop  offset="1" style="stop-color:#F5BD52"/>
		</linearGradient>
		<path style="fill-rule:evenodd;clip-rule:evenodd;fill:url(#SVGID_1_);" d="M243.75,18.85c0.533,1.867,0.866,3.75,1,5.65l1.2,1.35
			c0.8,1.167,1.283,2.417,1.45,3.75c0.267,2.133,0.183,4.017-0.25,5.65l1.449,1.8c1.067,1.667,1.867,3.684,2.4,6.05
			c0.4,1.8,0.483,4.583,0.25,8.35l1.2,0.55c0.899,0.667,1.583,1.75,2.05,3.25c0.7,2,0.866,7,0.5,15l1.7,5.75l1.2,1.5
			c0.767,1.333,1.149,2.817,1.149,4.45c0,2.667-0.133,4.533-0.399,5.6l1.25,2.3c0.833,1.833,1.25,3.583,1.25,5.25
			c0,2.667-0.301,4.917-0.9,6.75l1.5,2.15c1,1.733,1.5,3.333,1.5,4.8c0,2.4-0.333,4.867-1,7.4l1.4,2.3
			c0.899,1.833,1.267,3.583,1.1,5.25c-0.267,2.633-0.967,4.75-2.1,6.35l3.949,34.6c-3.166,1.933-7.216,3.867-12.149,5.8
			c-9.867,3.833-19.2,5.75-28,5.75c-9.967,0-19.517-1.917-28.65-5.75c-2.866-1.233-5.517-2.567-7.95-4l-2.8-1.8l1.601-34.2
			c-0.534-0.733-1.051-1.617-1.551-2.65c-1-2.133-1.416-4.033-1.25-5.7c0.167-1.667,0.684-3.883,1.551-6.65l1.25-3.7
			c-0.4-0.466-0.784-1.083-1.15-1.85c-0.733-1.534-1.017-3.034-0.85-4.5c0.166-1.5,0.683-3.267,1.55-5.3l1.25-2.65
			c-0.267-0.267-0.533-0.767-0.8-1.5c-0.534-1.467-0.801-3.35-0.801-5.65c0-2.333,0.334-4.033,1-5.1c0.334-0.533,0.667-0.833,1-0.9
			c-0.267-0.667-0.517-1.467-0.75-2.4c-0.466-1.934-0.616-3.65-0.449-5.15c0.166-1.5,0.616-2.933,1.35-4.3
			c0.366-0.7,0.717-1.25,1.05-1.65c-0.333-0.8-0.633-1.833-0.899-3.1c-0.534-2.5-0.634-4.817-0.301-6.95
			c0.334-2.167,0.9-4.367,1.7-6.6l1.101-2.75c-0.134-0.534-0.2-1.267-0.2-2.2c0-1.867,0.316-3.783,0.95-5.75
			c0.666-2,1.666-3.967,3-5.9c0.666-1,1.267-1.783,1.8-2.35c-0.134-2.167,0.184-4.25,0.95-6.25c0.466-1.233,1.166-2.35,2.1-3.35
			c0.5-0.5,0.934-0.883,1.3-1.15c-0.066-1.6,0.167-3.333,0.7-5.2c0.533-1.833,1.5-3.417,2.9-4.75c0.1-1.133,0.633-2.833,1.6-5.1
			c0.533-1.233,1.417-2.333,2.65-3.3c0.633-0.5,1.199-0.867,1.699-1.1L213,3.3c0.866-1.3,2-2.233,3.4-2.8
			c1.666-0.633,3.216-0.683,4.649-0.15c0.7,0.3,1.233,0.65,1.601,1.05l2.399-0.95c1.8-0.534,3.2-0.55,4.2-0.05
			c0.967,0.5,1.884,1.434,2.75,2.8c0.434,0.667,0.767,1.283,1,1.85l1.35,0.7c1.134,0.6,2.184,1.3,3.15,2.1
			c1.267,1,2.184,2.417,2.75,4.25c0.3,0.933,0.467,1.75,0.5,2.45l1.2,1.1C242.85,16.617,243.45,17.683,243.75,18.85z"/>
		<path style="fill-rule:evenodd;clip-rule:evenodd;fill:#F5BA60;" d="M205.7,86.4l0.35,3.75c0.3,2.567,0.65,4.05,1.05,4.45
			c0.434,0.433,1.15,0.4,2.15-0.1c0.5-0.233,0.95-0.517,1.35-0.85l0.051,2.4c-0.034,1.7-0.117,2.867-0.25,3.5
			c-0.567,2.167-1.65,3.167-3.25,3c-0.967-0.1-1.75-0.8-2.351-2.1c-0.6-1.3-0.866-2.9-0.8-4.8c0.1-1.566,0.417-3.583,0.95-6.05
			L205.7,86.4z"/>
		<path style="fill-rule:evenodd;clip-rule:evenodd;fill:#EAB35D;" d="M221.6,10.55c-0.066-2-0.233-3.466-0.5-4.4
			c0.434-0.333,0.684-0.867,0.75-1.6c0.134-0.933,0.301-1.816,0.5-2.65c-0.166,0.9,0.051,2.317,0.65,4.25
			c-0.533,1.6-0.8,3.067-0.8,4.4c0,1.333,0.1,2.65,0.3,3.95l-0.45,1.6c-0.267,1.333-0.383,2.6-0.35,3.8
			c0.033,1.934,0.5,3.383,1.399,4.35L222.4,26.4c-0.467,1.6-0.7,2.9-0.7,3.9c0,1.633,0.467,3.167,1.399,4.6l-0.699,3.6
			c-0.434,2.733-0.617,4.833-0.551,6.3c0.101,2.4,0.684,4.983,1.75,7.75l-0.75,2.55c-0.5,2-0.699,3.767-0.6,5.3
			c0.167,2.434,0.616,5.184,1.35,8.25l-1.1,2.9c-0.733,2.2-1.066,3.95-1,5.25c0.134,2.133,0.7,4.967,1.7,8.5l-0.75,2.75
			c-0.5,2.2-0.75,4.233-0.75,6.1s0.333,3.95,1,6.25c0.333,1.133,0.666,2.083,1,2.85l-0.95,3.2c-0.634,2.533-0.884,4.9-0.75,7.1
			c0.233,3.5,0.816,6.617,1.75,9.35l-0.6,3.15c-0.4,2.567-0.551,5.1-0.45,7.6c0.1,2.5,0.533,4.483,1.3,5.95
			c0.366,0.733,0.733,1.217,1.1,1.45l-1.25,3.85c-0.8,2.833-1.166,5-1.1,6.5c0.134,2.4,0.783,5.117,1.95,8.15l-0.65,1.4
			c-0.434,1.1-0.666,2.133-0.7,3.1c-0.066,1.567-0.267,2.817-0.6,3.75l-0.4,0.6c-0.1-1.4-0.233-2.767-0.399-4.1
			c-0.101-0.833-0.384-1.833-0.851-3l-0.649-1.55c1.2-3.067,1.75-5.883,1.649-8.45c-0.066-1.566-0.466-3.667-1.199-6.3l-1.051-3.5
			c0.267-0.233,0.534-0.667,0.801-1.3c0.566-1.267,0.933-2.833,1.1-4.7c0.2-1.867-0.083-4.533-0.85-8l-1.15-4.6
			c0.267-0.4,0.533-1.033,0.8-1.9c0.566-1.7,0.867-3.65,0.9-5.85c0.033-2.2-0.3-4.833-1-7.9l-1-4c1.1-2.667,1.649-5.5,1.649-8.5
			c0-1.867-0.433-3.9-1.3-6.1l-1.3-2.75c1.233-1.9,2.05-4.433,2.45-7.6c0.233-1.966,0.066-4.167-0.5-6.6l-0.95-3.05
			c0.333-0.4,0.684-0.983,1.05-1.75c0.7-1.533,1.084-3.2,1.15-5c0.066-1.8-0.283-3.95-1.05-6.45l-1.15-3.2
			c0.267-0.233,0.533-0.683,0.8-1.35c0.566-1.333,0.884-3.05,0.95-5.15c0.1-2.067-0.116-4.467-0.65-7.2l-0.85-3.5l0.75-0.85
			c0.467-0.867,0.7-2.05,0.7-3.55s-0.283-2.967-0.851-4.4l-0.85-1.7c1-1.367,1.533-2.95,1.6-4.75c0.034-1.1-0.133-2.267-0.5-3.5
			l-0.6-1.55l0.85-0.95C221.384,12.9,221.634,11.817,221.6,10.55z"/>
		<path style="fill-rule:evenodd;clip-rule:evenodd;fill:#E7B15C;" d="M213.7,5.55c-0.3,1.633-0.45,3.117-0.45,4.45
			s0.25,2.85,0.75,4.55l-0.55,1.15c-0.367,1.033-0.566,2.15-0.601,3.35c-0.033,1.934,0.301,3.75,1,5.45l-0.649,1.6
			c-0.467,1.3-0.7,2.517-0.7,3.65c0,1.767,0.533,3.483,1.6,5.15l-0.949,3c-0.601,2.367-0.917,4.417-0.95,6.15
			c-0.066,2.8,0.35,5.534,1.25,8.2l-0.7,2.85c-0.5,2.233-0.75,4.117-0.75,5.65c0,2.433,0.566,5.117,1.7,8.05l-1,1.75
			c-0.667,1.6-0.983,3.434-0.95,5.5c0.066,3.333,0.55,6.583,1.45,9.75l-0.851,2.25c-0.6,1.8-0.883,3.55-0.85,5.25
			c0.066,2.733,0.566,5.733,1.5,9l-0.7,3.75c-0.434,2.833-0.616,5.067-0.55,6.7c0.134,2.6,0.583,5.65,1.35,9.15l-0.75,3.7
			c-0.5,2.8-0.716,4.983-0.649,6.55c0.1,2.5,0.533,5.3,1.3,8.4l-1.25,12.1c0.167-2.833,0.25-4.867,0.25-6.1
			c0-0.733-0.417-2.033-1.25-3.9l-1.25-2.6c0.967-3.033,1.5-5.533,1.6-7.5c0.067-1.2-0.033-3.267-0.3-6.2l-0.45-4.05
			c0.267-1.367,0.551-3.383,0.851-6.05c0.166-1.667,0.033-4.467-0.4-8.4l-0.7-5.45c0.434-1.5,0.717-3.383,0.851-5.65
			c0.066-1.433-0.084-3.783-0.45-7.05l-0.55-4.45c0.666-3.467,1.1-6.367,1.3-8.7c0.134-1.466,0.05-3.316-0.25-5.55l-0.55-2.95
			c0.7-2.7,1.05-4.883,1.05-6.55c0-1.033-0.15-2.917-0.45-5.65l-0.45-3.8c0.667-2.533,1-5.083,1-7.65c0-1.6-0.183-3.65-0.55-6.15
			L210.5,35c0.8-1.567,1.283-3.267,1.45-5.1c0.1-1.133,0.017-2.383-0.25-3.75l-0.45-1.65c0.5-1.733,0.833-3.433,1-5.1
			c0.1-1.033,0.05-2.167-0.15-3.4l-0.35-1.5c0.5-1,0.833-2.4,1-4.2c0.167-1.767-0.017-3.367-0.55-4.8l0.3-0.45L213.7,5.55z"/>
		<path style="fill-rule:evenodd;clip-rule:evenodd;fill:#F5BA60;" d="M233,5.05l1.2,0.5c-0.3,1.633-0.45,3.117-0.45,4.45
			s0.25,2.85,0.75,4.55l-0.55,1.15c-0.367,1.033-0.566,2.15-0.601,3.35c-0.033,1.934,0.301,3.75,1,5.45l-0.649,1.6
			c-0.467,1.3-0.7,2.517-0.7,3.65c0,1.767,0.533,3.483,1.6,5.15l-0.949,3c-0.601,2.367-0.917,4.417-0.95,6.15
			c-0.066,2.8,0.35,5.534,1.25,8.2l-0.7,2.85c-0.5,2.233-0.75,4.117-0.75,5.65c0,2.433,0.566,5.117,1.7,8.05l-1,1.75
			c-0.667,1.6-0.983,3.434-0.95,5.5c0.066,3.333,0.55,6.583,1.45,9.75l-0.851,2.25c-0.6,1.8-0.883,3.55-0.85,5.25
			c0.066,2.733,0.566,5.733,1.5,9l-0.7,3.75c-0.434,2.833-0.616,5.067-0.55,6.7c0.134,2.6,0.583,5.65,1.35,9.15l-0.75,3.7
			c-0.5,2.8-0.716,4.983-0.649,6.55c0.1,2.5,0.533,5.3,1.3,8.4l-1.25,12.1c0.167-2.833,0.25-4.867,0.25-6.1
			c0-0.733-0.417-2.033-1.25-3.9l-1.25-2.6c0.967-3.033,1.5-5.533,1.6-7.5c0.067-1.2-0.033-3.267-0.3-6.2l-0.45-4.05
			c0.267-1.367,0.551-3.383,0.851-6.05c0.166-1.667,0.033-4.467-0.4-8.4l-0.7-5.45c0.434-1.5,0.717-3.383,0.851-5.65
			c0.066-1.433-0.084-3.783-0.45-7.05l-0.55-4.45c0.666-3.467,1.1-6.367,1.3-8.7c0.134-1.466,0.05-3.316-0.25-5.55l-0.55-2.95
			c0.7-2.7,1.05-4.883,1.05-6.55c0-1.033-0.15-2.917-0.45-5.65l-0.45-3.8c0.667-2.533,1-5.083,1-7.65c0-1.6-0.183-3.65-0.55-6.15
			L231,35c0.8-1.567,1.283-3.267,1.45-5.1c0.1-1.133,0.017-2.383-0.25-3.75l-0.45-1.65c0.5-1.733,0.833-3.433,1-5.1
			c0.1-1.033,0.05-2.167-0.15-3.4l-0.35-1.5c0.5-1,0.833-2.4,1-4.2c0.167-1.767-0.017-3.367-0.55-4.8L233,5.05z"/>
		<path style="fill-rule:evenodd;clip-rule:evenodd;fill:#E5B05B;" d="M206,15l0.45-0.45l0.399,5.75c0.067,1.067,0.45,2.3,1.15,3.7
			l-0.7,1.95c-0.5,1.5-0.767,2.683-0.8,3.55c-0.033,1.367,0.083,3.217,0.35,5.55l-0.3,3.2c-0.233,2.367-0.333,4.2-0.3,5.5
			c0.066,2.033,0.384,4.883,0.95,8.55l-0.851,2.6c-0.533,1.967-0.783,3.55-0.75,4.75c0.067,1.867,0.367,4.733,0.9,8.6l-0.75,2.95
			c-0.533,2.167-0.8,3.733-0.8,4.7c0,1.533,0.184,4.75,0.55,9.65l-0.7,2.65c-0.467,2-0.7,3.65-0.7,4.95
			c0,2.033,0.367,4.833,1.101,8.4l-0.25,1.65c-0.134,1.3-0.217,2.483-0.25,3.55l-0.45,8.3l-0.25-4.4
			c-0.066-1.133-0.467-2.967-1.2-5.5l-1.1-3.4c1.267-3.8,1.934-6.55,2-8.25c0.033-1.067-0.233-2.633-0.8-4.7l-0.801-2.75
			c1.567-4.667,2.4-8.083,2.5-10.25c0.101-1.367-0.183-3.066-0.85-5.1l-1.05-2.65c1.5-3.167,2.267-5.933,2.3-8.3
			c0.033-1.5-0.15-3.117-0.55-4.85l-0.601-2.15c1.067-3.133,1.65-6.05,1.75-8.75c0.067-1.7,0.051-3.65-0.05-5.85l-0.2-2.75
			c0.5-1.566,0.75-3.367,0.75-5.4c0-1.3-0.05-2.6-0.149-3.9l-0.2-1.55c0.467-1,0.7-2.417,0.7-4.25c0-1.133-0.066-2.367-0.2-3.7
			L206,15z"/>
		<path style="fill-rule:evenodd;clip-rule:evenodd;fill:#F6C371;" d="M240.2,15l0.399-0.45l0.4,5.75c0.066,1.067,0.467,2.3,1.2,3.7
			l-0.75,1.95c-0.467,1.5-0.717,2.683-0.75,3.55c-0.066,1.367,0.033,3.217,0.3,5.55l-0.3,3.2c-0.2,2.367-0.283,4.2-0.25,5.5
			c0.033,2.033,0.333,4.883,0.899,8.55l-0.8,2.6c-0.566,1.967-0.833,3.55-0.8,4.75c0.066,1.867,0.384,4.733,0.95,8.6l-0.8,2.95
			c-0.534,2.167-0.801,3.733-0.801,4.7c0,1.533,0.2,4.75,0.601,9.65L239,88.2c-0.5,2-0.75,3.65-0.75,4.95
			c0,2.033,0.366,4.833,1.1,8.4l-0.199,1.65c-0.167,1.3-0.267,2.483-0.301,3.55l-0.399,8.3l-0.25-4.4
			c-0.066-1.133-0.483-2.967-1.25-5.5l-1.101-3.4c1.267-3.8,1.934-6.55,2-8.25c0.034-1.067-0.216-2.633-0.75-4.7l-0.85-2.75
			c1.566-4.667,2.4-8.083,2.5-10.25c0.1-1.367-0.184-3.066-0.85-5.1l-1.051-2.65c1.5-3.167,2.284-5.933,2.351-8.3
			c0.033-1.5-0.167-3.117-0.601-4.85l-0.6-2.15c1.066-3.133,1.65-6.05,1.75-8.75c0.1-1.7,0.083-3.65-0.05-5.85l-0.2-2.75
			c0.5-1.566,0.75-3.367,0.75-5.4c0-1.3-0.05-2.6-0.15-3.9l-0.149-1.55c0.434-1,0.649-2.417,0.649-4.25
			c0-1.133-0.066-2.367-0.199-3.7L240.2,15z"/>
		<path style="fill-rule:evenodd;clip-rule:evenodd;fill:#E5B05B;" d="M202.525,26.8l0.024,0.4L202.525,26.8z M202.55,27.2l0.45,8.4
			l-0.35,1.9c-0.267,1.633-0.45,3.35-0.551,5.15c-0.166,2.9-0.333,6.533-0.5,10.9l-0.449,1.6c-0.334,1.3-0.483,2.55-0.45,3.75
			l0.149,8l-0.25,1c-0.199,0.867-0.35,1.817-0.449,2.85c-0.134,1.667-0.2,4.533-0.2,8.6l-0.101-4.45
			c-0.033-1.066-0.199-2.816-0.5-5.25l-0.399-3.35c0.6-1.533,0.983-3.683,1.149-6.45c0.101-1.7,0.134-3.267,0.101-4.7L200.1,53.5
			c0.4-0.633,0.75-2.05,1.051-4.25c0.199-1.4,0.316-4.1,0.35-8.1v-5.6c0.4-0.367,0.7-1.617,0.9-3.75
			C202.533,30.467,202.583,28.933,202.55,27.2z"/>
		<path style="fill-rule:evenodd;clip-rule:evenodd;fill:#F6C475;" d="M244.725,26.8l0.025,0.4l0.45,8.4l-0.4,1.9
			c-0.267,1.633-0.45,3.35-0.55,5.15c-0.167,2.9-0.333,6.533-0.5,10.9l-0.45,1.6c-0.3,1.3-0.434,2.55-0.399,3.75l0.1,8l-0.25,1
			c-0.2,0.867-0.35,1.817-0.45,2.85c-0.1,1.667-0.149,4.533-0.149,8.6L242,74.9c-0.033-1.066-0.184-2.816-0.45-5.25l-0.399-3.35
			c0.566-1.533,0.933-3.683,1.1-6.45c0.1-1.7,0.134-3.267,0.1-4.7l-0.1-1.65c0.434-0.633,0.783-2.05,1.05-4.25
			c0.2-1.4,0.316-4.1,0.351-8.1l0.05-5.6c0.366-0.367,0.649-1.617,0.85-3.75c0.134-1.333,0.2-2.867,0.2-4.6L244.725,26.8z"/>
		<path style="fill-rule:evenodd;clip-rule:evenodd;fill:#E3AE5B;" d="M198.15,35.85l0.399,4.4c0.3,3.067,0.434,5.017,0.4,5.85
			c-0.033,1.333-0.15,3.55-0.351,6.65l-0.6,5.9c-0.033,1.267-0.467,3.05-1.3,5.35c0.366-1.6,0.616-3.167,0.75-4.7
			c0.1-0.966,0.017-2.35-0.25-4.15l-0.45-2.4c0.9-2.8,1.4-5.033,1.5-6.7c0.1-1.033,0.116-3.05,0.05-6.05L198.15,35.85z"/>
		<path style="fill-rule:evenodd;clip-rule:evenodd;fill:#F6C475;" d="M247.35,35.75L248,40.2c0.467,3.1,0.684,5.066,0.65,5.9
			l-0.95,12.55c-0.033,1.267-0.267,5.184-0.7,11.75c-0.033-5.867,0.017-9.566,0.15-11.1c0.066-0.966-0.034-2.35-0.301-4.15
			l-0.399-2.4c0.866-2.8,1.366-5.033,1.5-6.7c0.1-1.033,0.033-3.066-0.2-6.1L247.35,35.75z"/>
		<path style="fill-rule:evenodd;clip-rule:evenodd;fill:#F5BA60;" d="M250.75,58.55c0.134-0.7,0.283-2.033,0.45-4l0.149-2.75
			l0.051,2.65c0,1.933-0.051,3.3-0.15,4.1c-0.1,1.3,0.066,3.417,0.5,6.35l-0.65,3.15c-0.242,1.123-0.542,2.947-0.899,5.475
			c0.2-1.771,0.3-3.313,0.3-4.625c0-0.933-0.134-1.9-0.4-2.9l-0.399-1.2L250.75,58.55z"/>
		<path style="fill-rule:evenodd;clip-rule:evenodd;fill:#F5BA60;" d="M223.2,2l0.149,0.85c0.2,0.7,0.65,1.417,1.351,2.15
			c0.666,0.733,2.083,1.017,4.25,0.85c1.066-0.067,2.066-0.217,3-0.45c-0.834,0.434-1.783,0.75-2.851,0.95
			c-2.1,0.467-3.649,0.217-4.649-0.75c-0.9-0.833-1.384-1.684-1.45-2.55C223,2.617,223.066,2.267,223.2,2z"/>
		<path style="fill-rule:evenodd;clip-rule:evenodd;fill:#F5BA60;" d="M234.45,6.45l-0.101,2.2c-0.033,1.633,0.101,2.9,0.4,3.8
			c0.267,0.933,1.267,1.466,3,1.6c0.866,0.067,1.7,0.05,2.5-0.05c-1.3,0.667-2.55,0.867-3.75,0.6c-1-0.2-1.717-1.033-2.15-2.5
			C233.884,10.5,233.917,8.617,234.45,6.45z"/>
		<path style="fill-rule:evenodd;clip-rule:evenodd;fill:#F5BA60;" d="M244.45,24.45c-0.367,0-0.767-0.1-1.2-0.3
			c-0.833-0.367-1.384-0.983-1.65-1.85c-0.233-0.867-0.416-2.3-0.55-4.3l-0.1-2.8l0.25,2.6c0.166,1.833,0.35,3.1,0.55,3.8
			C242.017,22.7,242.917,23.65,244.45,24.45z"/>
		<path style="fill-rule:evenodd;clip-rule:evenodd;fill:#F5BA60;" d="M233.95,16.9l0.75-1.75c-0.533,1.467-0.684,3.117-0.45,4.95
			c0.2,1.7,0.65,2.867,1.35,3.5c0.534,0.5,1.417,0.617,2.65,0.35c0.634-0.133,1.2-0.317,1.7-0.55c-0.334,0.467-0.733,0.8-1.2,1
			c-0.733,0.333-1.517,0.417-2.35,0.25c-1.301-0.3-2.15-1.3-2.551-3C233.483,19.983,233.517,18.4,233.95,16.9z"/>
		<path style="fill-rule:evenodd;clip-rule:evenodd;fill:#F5BA60;" d="M245.5,25.75v3c0.033,2.133,0.134,3.567,0.3,4.3
			c0.2,0.767,0.483,1.267,0.851,1.5c0.199,0.133,0.383,0.184,0.55,0.15c-0.167,0.2-0.367,0.316-0.601,0.35
			c-0.433,0.034-0.783-0.433-1.05-1.4c-0.233-1.033-0.333-2.633-0.3-4.8C245.283,26.817,245.366,25.783,245.5,25.75z"/>
		<path style="fill-rule:evenodd;clip-rule:evenodd;fill:#F5BA60;" d="M245.45,36.1l-0.65,6.5c-0.333,4.433-0.267,6.917,0.2,7.45
			c0.434,0.534,0.983,0.367,1.65-0.5c0.333-0.433,0.616-0.933,0.85-1.5c-0.267,0.767-0.6,1.467-1,2.1c-0.8,1.233-1.5,1.467-2.1,0.7
			c-0.601-0.733-0.601-3.417,0-8.05L245.45,36.1z"/>
		<path style="fill-rule:evenodd;clip-rule:evenodd;fill:#F5BA60;" d="M244.05,54.1l-0.55,4.75c-0.233,3.367,0.017,5.583,0.75,6.65
			c0.333,0.467,0.85,0.55,1.55,0.25c0.334-0.167,0.634-0.383,0.9-0.65c-0.101,0.233-0.3,0.45-0.601,0.65
			c-0.533,0.433-1.183,0.55-1.949,0.35c-0.567-0.133-0.917-1.25-1.051-3.35c-0.133-1.9-0.083-3.817,0.15-5.75
			c0.134-0.833,0.3-1.567,0.5-2.2L244.05,54.1z"/>
		<path style="fill-rule:evenodd;clip-rule:evenodd;fill:#F5BA60;" d="M248.9,40.1v4.6c0.1,3.167,0.3,4.983,0.6,5.45
			c0.467,0.733,0.983,0.9,1.55,0.5c-0.434,0.7-1.033,0.817-1.8,0.35c-0.467-0.267-0.667-2.167-0.6-5.7L248.9,40.1z"/>
		<path style="fill-rule:evenodd;clip-rule:evenodd;fill:#F5BA60;" d="M248.7,52.5l-0.25,4.6c-0.134,3.1-0.066,4.816,0.2,5.15
			c0.433,0.567,0.883,0.45,1.35-0.35c-0.333,1.167-0.884,1.667-1.65,1.5c-0.466-0.1-0.55-1.95-0.25-5.55L248.7,52.5z"/>
		<path style="fill-rule:evenodd;clip-rule:evenodd;fill:#F5BA60;" d="M251.95,52.95l-0.15,2.35c-0.1,1.7-0.116,2.85-0.05,3.45
			c0.167,1,0.5,2,1,3l-0.7,0.25c-0.267-0.367-0.45-1.25-0.55-2.65c-0.066-0.867-0.017-2.2,0.15-4L251.95,52.95z"/>
		<path style="fill-rule:evenodd;clip-rule:evenodd;fill:#F5BA60;" d="M244,33.6c0,0.3-0.066,0.6-0.2,0.9
			c-0.3,0.567-0.783,0.817-1.45,0.75c-0.733-0.1-1.199-0.983-1.399-2.65c-0.167-1.434-0.117-2.783,0.149-4.05
			c0.167-0.867,0.417-1.667,0.75-2.4l0.4-0.9l-0.45,1.65c-0.333,1.233-0.517,2.117-0.55,2.65c-0.066,1.5-0.083,2.483-0.05,2.95
			c0.1,1.333,0.399,2.1,0.899,2.3C242.866,35.133,243.5,34.733,244,33.6z"/>
		<path style="fill-rule:evenodd;clip-rule:evenodd;fill:#F5BA60;" d="M241.35,36.65l-0.1,6c0,0.467-0.017,1.55-0.05,3.25
			c0.033,1.633,0.2,2.883,0.5,3.75c0.5,1.4,1.05,0.283,1.649-3.35l-0.5,3.6c-0.199,0.934-0.449,1.317-0.75,1.15
			c-0.366-0.2-0.683-1.117-0.949-2.75c-0.233-1.466-0.267-3.85-0.101-7.15L241.35,36.65z"/>
		<path style="fill-rule:evenodd;clip-rule:evenodd;fill:#F5BA60;" d="M241,55c-0.233,1.767-0.35,3.45-0.35,5.05
			c0,1.6,0.116,2.583,0.35,2.95c0.288,0.432,0.579-0.043,0.875-1.425L241.5,63.5c-0.167,0.667-0.366,0.917-0.6,0.75
			c-0.267-0.2-0.483-1.033-0.65-2.5c-0.134-1.367-0.05-2.9,0.25-4.6L241,55z"/>
		<path style="fill-rule:evenodd;clip-rule:evenodd;fill:#F5BA60;" d="M234.65,25.3c-0.7,4.133-0.25,6.917,1.35,8.35
			c0.7,0.633,1.583,0.6,2.65-0.1c0.533-0.367,0.983-0.783,1.35-1.25c-0.2,1.167-0.717,1.917-1.55,2.25c-1,0.4-1.884,0.467-2.65,0.2
			c-1.166-0.433-1.883-1.6-2.149-3.5c-0.267-1.867-0.184-3.417,0.25-4.65L234.65,25.3z"/>
		<path style="fill-rule:evenodd;clip-rule:evenodd;fill:#F5BA60;" d="M234.75,36.6c-0.4,2.4-0.45,5.1-0.15,8.1
			c0.334,3.066,0.884,4.767,1.65,5.1c0.7,0.3,1.4-0.6,2.1-2.7l0.9-3.25L239.2,45c-0.033,0.9-0.117,1.667-0.25,2.3
			c-0.233,1.167-0.55,2.133-0.95,2.9c-0.634,1.167-1.35,1.633-2.15,1.4c-1.8-0.533-2.75-2.567-2.85-6.1
			c-0.033-2.633,0.25-4.9,0.85-6.8L234.75,36.6z"/>
		<path style="fill-rule:evenodd;clip-rule:evenodd;fill:#F5BA60;" d="M233.6,55.4l0.75-2.05c-1.199,5.733-0.983,9.667,0.65,11.8
			c0.667,0.867,1.483,0.55,2.45-0.95c0.467-0.767,0.866-1.617,1.2-2.55L238,64.6c-0.667,1.967-1.55,2.967-2.65,3
			c-0.767,0.033-1.366-0.583-1.8-1.85c-0.467-1.267-0.7-2.967-0.7-5.1C232.85,58.883,233.1,57.133,233.6,55.4z"/>
		<path style="fill-rule:evenodd;clip-rule:evenodd;fill:#F5BA60;" d="M233.3,72.05l0.7-1.95c-0.6,2.7-0.75,5.183-0.45,7.45
			c0.233,2,0.75,3.367,1.55,4.1c0.601,0.6,1.301,0.133,2.101-1.4c0.399-0.767,0.75-1.6,1.05-2.5c-0.833,3.867-1.667,6.033-2.5,6.5
			c-0.7,0.367-1.3,0.083-1.8-0.85c-0.566-1.1-0.934-2.9-1.101-5.4C232.684,75.767,232.833,73.783,233.3,72.05z"/>
		<path style="fill-rule:evenodd;clip-rule:evenodd;fill:#F5BA60;" d="M233.75,87.15c-0.8,2.167-1.167,4.1-1.1,5.8
			c0.033,0.966,0.3,2.333,0.8,4.1c0.3,1.1,0.75,1.934,1.35,2.5c0.3,0.267,0.566,0.434,0.8,0.5l-0.149,1.5
			c-0.134,0.4-0.45,0.417-0.95,0.05c-1-0.733-1.7-3.184-2.1-7.35c-0.2-1.9-0.034-3.65,0.5-5.25L233.75,87.15z"/>
		<path style="fill-rule:evenodd;clip-rule:evenodd;fill:#F5BA60;" d="M233.85,103.25l-0.399,3.05c-0.267,2.167-0.367,3.667-0.3,4.5
			c0.066,1.333,0.416,3,1.05,5l-0.5,4.3c-0.733-3-1.101-5.85-1.101-8.55c0-1.7,0.217-3.583,0.65-5.65L233.85,103.25z"/>
		<path style="fill-rule:evenodd;clip-rule:evenodd;fill:#F5BA60;" d="M223.45,6.9c-0.134,2.3,0.066,3.934,0.6,4.9
			c0.467,0.8,1.334,1.333,2.601,1.6c1.566,0.333,3.566,0.083,6-0.75c-0.034,0.333-0.2,0.7-0.5,1.1c-0.4,0.5-1.717,0.85-3.95,1.05
			c-1.434,0.133-2.517,0.1-3.25-0.1c-1.033-0.3-1.684-0.983-1.95-2.05c-0.233-0.967-0.233-2.217,0-3.75L223.45,6.9z"/>
		<path style="fill-rule:evenodd;clip-rule:evenodd;fill:#F5BA60;" d="M228.35,24.4c-1.433,0.1-2.5,0.05-3.199-0.15
			c-0.9-0.267-1.534-0.583-1.9-0.95c-0.533-0.533-0.884-1.417-1.05-2.65c-0.134-1.133-0.084-2.4,0.149-3.8l0.4-1.7
			c-0.267,4.467,0.783,7.033,3.15,7.7c1.3,0.367,3.399,0.083,6.3-0.85c-0.2,1.167-0.566,1.85-1.101,2.05
			C230.6,24.217,229.684,24.333,228.35,24.4z"/>
		<path style="fill-rule:evenodd;clip-rule:evenodd;fill:#F5BA60;" d="M223.25,24.85c-0.4,4.533,0.3,7.367,2.1,8.5
			c0.801,0.533,2.101,0.6,3.9,0.2c0.9-0.167,1.717-0.4,2.45-0.7l-0.75,1.8c-2.367,0.667-4.384,0.817-6.05,0.45
			c-1.9-0.434-2.817-2.25-2.75-5.45c0.033-0.967,0.216-2.05,0.55-3.25L223.25,24.85z"/>
		<path style="fill-rule:evenodd;clip-rule:evenodd;fill:#F5BA60;" d="M223.2,36.4c-0.267,2.667-0.084,5.333,0.55,8
			c0.634,2.6,1.45,4.167,2.45,4.7c0.8,0.433,1.967-0.033,3.5-1.4c0.733-0.7,1.399-1.434,2-2.2l-0.05,0.75
			c-0.067,0.633-0.2,1.317-0.4,2.05c-0.267,0.967-0.767,1.75-1.5,2.35c-0.833,0.667-1.783,0.983-2.85,0.95
			c-1.267-0.033-2.233-0.434-2.9-1.2c-0.833-1-1.3-2.7-1.4-5.1c-0.1-2.167-0.033-4.3,0.2-6.4L223.2,36.4z"/>
		<path style="fill-rule:evenodd;clip-rule:evenodd;fill:#F5BA60;" d="M223.75,53.5c-0.5,2.367-0.467,4.85,0.1,7.45
			c0.5,2.4,1.167,3.933,2,4.6c0.634,0.5,1.75,0.4,3.351-0.3c0.833-0.333,1.583-0.733,2.25-1.2L230.9,67
			c-0.567,0.333-1.233,0.633-2,0.9c-1.5,0.533-2.684,0.583-3.551,0.15c-1.699-0.8-2.616-3.566-2.75-8.3
			c-0.066-1.667,0.101-3.2,0.5-4.6L223.75,53.5z"/>
		<path style="fill-rule:evenodd;clip-rule:evenodd;fill:#F5BA60;" d="M223,71.6l0.85-2.1c-0.433,1.967-0.55,4.217-0.35,6.75
			c0.2,2.633,0.7,4.483,1.5,5.55c0.7,0.934,1.866,1.1,3.5,0.5c0.8-0.3,1.533-0.683,2.2-1.15l-0.45,2.95
			c-0.7,0.3-1.467,0.533-2.3,0.7c-1.7,0.367-2.95,0.233-3.75-0.4c-0.867-0.7-1.5-1.883-1.9-3.55c-0.333-1.467-0.434-3.067-0.3-4.8
			C222.1,74.717,222.434,73.233,223,71.6z"/>
		<path style="fill-rule:evenodd;clip-rule:evenodd;fill:#F5BA60;" d="M223.35,86.55c-0.267,2.267-0.199,4.934,0.2,8
			c0.4,3.367,1,5.233,1.8,5.6c0.733,0.367,1.884,0.283,3.45-0.25c0.8-0.267,1.517-0.566,2.15-0.9l-0.601,2.6
			c-1.899,1-3.533,1.316-4.899,0.95c-1.066-0.267-1.884-1.083-2.45-2.45c-0.6-1.4-0.884-3.3-0.85-5.7
			c0.033-2.033,0.233-3.95,0.6-5.75L223.35,86.55z"/>
		<path style="fill-rule:evenodd;clip-rule:evenodd;fill:#F5BA60;" d="M223.75,104.3c-0.566,2.434-0.684,5.417-0.35,8.95
			c0.3,3.567,0.883,5.817,1.75,6.75c0.733,0.767,1.949,0.683,3.649-0.25c0.834-0.467,1.601-1.017,2.3-1.65l-0.25,3.05
			c-2,0.967-3.899,1.267-5.699,0.9c-1.167-0.233-1.967-1.383-2.4-3.45c-0.167-0.833-0.35-2.817-0.55-5.95
			c-0.101-1.6,0.133-3.467,0.7-5.6L223.75,104.3z"/>
		<path style="fill-rule:evenodd;clip-rule:evenodd;fill:#F5BA60;" d="M224,123.75c-0.3,2.2-0.283,4.85,0.05,7.95
			c0.3,2.933,0.7,4.733,1.2,5.4c0.4,0.533,1.417,0.383,3.05-0.45c0.8-0.4,1.566-0.867,2.3-1.4l-0.449,3.6
			c-0.534,0.467-1.15,0.85-1.851,1.15c-1.366,0.6-2.483,0.55-3.35-0.15c-0.467-0.4-0.917-1.3-1.351-2.7c-0.5-1.6-0.75-3.2-0.75-4.8
			c0-1.434,0.2-3.3,0.601-5.6L224,123.75z"/>
		<path style="fill-rule:evenodd;clip-rule:evenodd;fill:#F5BA60;" d="M225.2,142.05l-0.4,3.15c-0.267,2.333-0.416,4.1-0.45,5.3
			c-0.066,1.2,0.334,2.483,1.2,3.85c0.434,0.7,0.867,1.267,1.3,1.7l-1.35,3.25c-0.366-0.7-0.717-1.583-1.05-2.65
			c-0.7-2.167-1.033-4.183-1-6.05c0.066-1.867,0.383-3.85,0.95-5.95L225.2,142.05z"/>
		<path style="fill-rule:evenodd;clip-rule:evenodd;fill:#F5BA60;" d="M216.75,0.55c-1.533,1.1-2.233,2.05-2.1,2.85
			c0.1,0.667,0.767,1.15,2,1.45c1.399,0.367,3.05,0.167,4.949-0.6l-0.35,1.25c-0.767,0.533-1.517,0.783-2.25,0.75
			c-3.667-0.333-5.517-1.083-5.55-2.25c-0.033-0.767,0.517-1.567,1.649-2.4C215.634,1.167,216.184,0.817,216.75,0.55z"/>
		<path style="fill-rule:evenodd;clip-rule:evenodd;fill:#F5BA60;" d="M214.2,6.55c-0.3,3.633,0.3,5.8,1.8,6.5
			c1.3,0.567,2.934,0.55,4.9-0.05c-0.334,0.7-0.65,1.15-0.95,1.35c-0.4,0.267-1.134,0.417-2.2,0.45c-1.333,0-2.366-0.316-3.1-0.95
			c-0.7-0.633-0.983-2.033-0.851-4.2C213.866,8.55,214,7.517,214.2,6.55z"/>
		<path style="fill-rule:evenodd;clip-rule:evenodd;fill:#F5BA60;" d="M213.8,16.3l0.55-1c-0.267,1.3-0.333,2.583-0.199,3.85
			c0.166,1.467,0.566,2.533,1.199,3.2c0.567,0.6,1.534,0.733,2.9,0.4c0.7-0.133,1.333-0.35,1.9-0.65l-0.75,2.05
			c-1.334,0.5-2.567,0.567-3.7,0.2c-0.8-0.267-1.367-0.783-1.7-1.55c-0.267-0.633-0.467-1.733-0.6-3.3
			C213.3,18.3,213.434,17.233,213.8,16.3z"/>
		<path style="fill-rule:evenodd;clip-rule:evenodd;fill:#F5BA60;" d="M212.9,30.25c-0.134-1.1,0.033-2.317,0.5-3.65l0.699-1.7
			c-0.199,2.533-0.183,4.317,0.051,5.35c0.233,1.1,0.833,1.933,1.8,2.5c0.8,0.467,1.866,0.483,3.2,0.05
			c0.633-0.2,1.199-0.45,1.699-0.75l-0.949,2.7c-2.101,0.6-3.617,0.683-4.551,0.25C214.017,34.367,213.2,32.783,212.9,30.25z"/>
		<path style="fill-rule:evenodd;clip-rule:evenodd;fill:#F5BA60;" d="M214.2,36.25c-0.4,2.633-0.483,4.817-0.25,6.55
			c0.2,1.5,0.684,2.867,1.45,4.1c0.6,0.967,1.666,1.333,3.199,1.1c0.767-0.1,1.467-0.317,2.101-0.65l-1,4.4
			c-1.033,0.533-2.4,0.567-4.101,0.1c-1.233-0.333-2.116-1.184-2.649-2.55c-0.467-1.267-0.667-3.1-0.601-5.5
			c0.034-1.933,0.351-3.767,0.95-5.5L214.2,36.25z"/>
		<path style="fill-rule:evenodd;clip-rule:evenodd;fill:#F5BA60;" d="M213.65,52.65c-0.434,2.633-0.317,5.05,0.35,7.25
			c0.6,2.067,1.517,3.434,2.75,4.1c1,0.533,2.05,0.4,3.15-0.4c0.566-0.367,1.017-0.8,1.35-1.3l-0.1,1.2
			c-0.134,0.867-0.284,1.567-0.45,2.1c-0.233,0.833-0.667,1.667-1.3,2.5c-1.834,0.667-3.317,0.733-4.45,0.2
			c-0.8-0.367-1.417-1.367-1.851-3c-0.399-1.466-0.6-3.183-0.6-5.15c0-1.5,0.2-3.2,0.6-5.1L213.65,52.65z"/>
		<path style="fill-rule:evenodd;clip-rule:evenodd;fill:#F5BA60;" d="M212.95,71.35l0.899-1.8c-0.466,1.767-0.616,3.75-0.449,5.95
			c0.166,2.333,0.649,3.933,1.449,4.8c0.7,0.767,1.801,1.017,3.301,0.75c0.767-0.133,1.466-0.35,2.1-0.65c-1,3.067-1.667,4.733-2,5
			c-0.333,0.3-0.884,0.483-1.65,0.55c-0.966,0.033-1.783-0.2-2.449-0.7c-0.7-0.567-1.2-1.6-1.5-3.1
			c-0.267-1.267-0.434-3.133-0.5-5.6C212.083,74.65,212.35,72.917,212.95,71.35z"/>
		<path style="fill-rule:evenodd;clip-rule:evenodd;fill:#F5BA60;" d="M213.25,86.75c-0.2,2.2-0.15,4.317,0.15,6.35
			c0.333,2.233,0.899,3.7,1.699,4.4c0.7,0.6,1.817,0.667,3.351,0.2c0.8-0.233,1.517-0.517,2.149-0.85l-0.949,5.25
			c-1.134,0.467-2.301,0.6-3.5,0.4c-2.434-0.467-3.851-2.633-4.25-6.5c-0.2-1.967-0.034-4.1,0.5-6.4L213.25,86.75z"/>
		<path style="fill-rule:evenodd;clip-rule:evenodd;fill:#F5BA60;" d="M212.75,105.55l0.6-2.3c-0.399,3.233-0.199,6.25,0.601,9.05
			c0.767,2.7,1.816,4.284,3.149,4.75c1.067,0.367,2.034,0.1,2.9-0.8c0.434-0.433,0.767-0.917,1-1.45l0.05,1.4
			c0,1.066-0.05,1.883-0.149,2.45c-0.267,1.833-0.684,3.033-1.25,3.6c-0.4,0.367-1,0.533-1.801,0.5c-0.933-0.067-1.916-0.4-2.949-1
			c-1.067-0.633-1.801-1.85-2.2-3.65c-0.367-1.5-0.55-3.65-0.55-6.45C212.15,109.55,212.35,107.517,212.75,105.55z"/>
		<path style="fill-rule:evenodd;clip-rule:evenodd;fill:#F5BA60;" d="M214.65,140.1c-2-1.667-2.834-4.817-2.5-9.45
			c0.133-1.733,0.35-3.55,0.649-5.45l0.45-2.35c-0.2,2.333,0,4.883,0.6,7.65c0.667,3.1,1.584,5.067,2.75,5.9
			c1.034,0.767,2.184,0.65,3.45-0.35c0.634-0.466,1.15-1.033,1.55-1.7c-0.066,2.367-0.55,4.283-1.449,5.75
			C218.85,142.133,217.017,142.133,214.65,140.1z"/>
		<path style="fill-rule:evenodd;clip-rule:evenodd;fill:#F5BA60;" d="M221.5,149.75c0.366,1.367,0.2,3.4-0.5,6.1
			c-0.333,1.367-0.717,2.6-1.15,3.7l-2.85-7.4l0.25,0.4c0.2,0.2,0.483,0.217,0.85,0.05
			C218.634,152.367,219.767,151.417,221.5,149.75z"/>
		<path style="fill-rule:evenodd;clip-rule:evenodd;fill:#F5BA60;" d="M209.5,7.1c-1.4,3.233-1.583,5.033-0.55,5.4
			c0.8,0.267,1.967-0.217,3.5-1.45l-0.75,3.05c-0.634,0.2-1.283,0.35-1.95,0.45c-1.4,0.167-2.25-0.017-2.55-0.55
			c-0.334-0.567-0.384-1.283-0.15-2.15c0.066-0.233,0.367-0.983,0.9-2.25C208.384,8.633,208.9,7.8,209.5,7.1z"/>
		<path style="fill-rule:evenodd;clip-rule:evenodd;fill:#F5BA60;" d="M207,15.1l0.3,2.05c0.367,1.467,0.917,2.467,1.65,3
			c0.733,0.567,1.467,0.633,2.2,0.2c0.366-0.2,0.649-0.467,0.85-0.8l-0.3,2.35c-0.066,0.5-0.217,1.117-0.45,1.85
			c-0.667,0.433-1.35,0.483-2.05,0.15c-0.9-0.433-1.566-1.6-2-3.5c-0.2-0.833-0.283-1.967-0.25-3.4L207,15.1z"/>
		<path style="fill-rule:evenodd;clip-rule:evenodd;fill:#F5BA60;" d="M206.85,28.85c0.034-0.733,0.25-1.667,0.65-2.8l0.6-1.45
			c-0.233,1.233-0.3,2.6-0.199,4.1c0.133,1.667,0.466,2.633,1,2.9c0.733,0.433,1.683,0,2.85-1.3c-0.4,1.967-0.767,3.284-1.1,3.95
			c-0.267,0.533-0.75,0.833-1.45,0.9c-0.7,0.067-1.3-0.15-1.8-0.65c-0.434-0.467-0.667-1.333-0.7-2.6
			C206.7,31.6,206.75,30.583,206.85,28.85z"/>
		<path style="fill-rule:evenodd;clip-rule:evenodd;fill:#F5BA60;" d="M207.5,35.85l0.1,4.75c0.167,3.233,0.517,5.033,1.051,5.4
			c0.533,0.333,1.116,0.017,1.75-0.95c0.333-0.466,0.616-0.983,0.85-1.55l-0.05,2.55c-0.066,1.833-0.167,3.117-0.3,3.85
			c-0.2,0.934-0.483,1.567-0.851,1.9c-0.434,0.4-1.033,0.467-1.8,0.2c-0.7-0.267-1.2-1.617-1.5-4.05c-0.2-1.7-0.283-3.517-0.25-5.45
			c0.033-1.033,0.217-2.45,0.55-4.25L207.5,35.85z"/>
		<path style="fill-rule:evenodd;clip-rule:evenodd;fill:#F5BA60;" d="M207.35,52.9l-0.1,3.3c0.033,2.367,0.283,3.917,0.75,4.65
			s1.15,0.783,2.05,0.15c0.434-0.3,0.816-0.683,1.15-1.15l-0.05,2.1c-0.067,1.5-0.167,2.6-0.301,3.3
			c-0.199,0.867-0.616,1.583-1.25,2.15c-0.666,0.6-1.333,0.717-2,0.35c-0.666-0.367-1.149-1.617-1.449-3.75
			c-0.267-1.733-0.351-3.467-0.25-5.2c0.033-1.167,0.283-2.5,0.75-4L207.35,52.9z"/>
		<path style="fill-rule:evenodd;clip-rule:evenodd;fill:#F5BA60;" d="M206.6,69.1l0.2,3.3c0.233,2.3,0.584,3.7,1.05,4.2
			c0.467,0.5,1.101,0.566,1.9,0.2c0.434-0.167,0.8-0.4,1.1-0.7v1.55c-0.033,1.2-0.116,2.167-0.25,2.9c-0.3,1.6-0.55,2.6-0.75,3
			c-0.5,1.1-1.3,1.6-2.399,1.5c-1.7-0.133-2.45-3.316-2.25-9.55c0.066-1.233,0.316-2.667,0.75-4.3L206.6,69.1z"/>
		<path style="fill-rule:evenodd;clip-rule:evenodd;fill:#F5BA60;" d="M210.5,108.25l0.3,3.15c0.101,2.5,0,4.733-0.3,6.7
			c-0.267,1.767-0.634,3.316-1.1,4.65l-1.75-11.65l1.25-0.6C209.7,110.133,210.233,109.383,210.5,108.25z"/>
		<path style="fill-rule:evenodd;clip-rule:evenodd;fill:#F0B75E;" d="M203.45,19.25c0.2-0.7,0.583-1.533,1.149-2.5
			c0.301-0.467,0.567-0.867,0.801-1.2l-0.5,1.3c-0.267,1.033-0.267,1.867,0,2.5c0.399,1.033,0.85,1.5,1.35,1.4
			c-0.267,2.267-0.616,3.533-1.05,3.8c-0.4,0.233-0.816,0.35-1.25,0.35c-0.566,0.033-0.934-0.15-1.101-0.55
			C202.517,23.683,202.717,21.983,203.45,19.25z"/>
		<path style="fill-rule:evenodd;clip-rule:evenodd;fill:#F0B75E;" d="M202.95,25.15c0.2,1.567,0.733,2.684,1.6,3.35
			c0.467,0.333,0.9,0.517,1.3,0.55c-0.233,3.567-0.649,5.383-1.25,5.45c-0.533,0.033-0.883-0.117-1.05-0.45
			c-0.2-0.433-0.316-1.35-0.35-2.75L202.95,25.15z"/>
		<path style="fill-rule:evenodd;clip-rule:evenodd;fill:#F0B75E;" d="M203.4,36.5l-0.15,2.55c0,1.833,0.15,3.017,0.45,3.55
			c0.5,0.867,1.083,1.117,1.75,0.75c-1.233,5.967-2.167,8.65-2.8,8.05c-0.7-0.633-0.851-3.167-0.45-7.6
			c0.166-1.566,0.416-3.25,0.75-5.05L203.4,36.5z"/>
		<path style="fill-rule:evenodd;clip-rule:evenodd;fill:#F0B75E;" d="M202.1,53.25l0.101,1.85c0.133,1.367,0.316,2.333,0.55,2.9
			c0.267,0.533,0.667,0.617,1.2,0.25c0.267-0.167,0.5-0.4,0.7-0.7L204.6,59.7c-0.033,1.533-0.116,2.566-0.25,3.1
			c-0.899,3.267-1.783,4.684-2.649,4.25c-0.467-0.267-0.733-1.4-0.8-3.4c0.033-2.4,0.05-4.033,0.05-4.9c0-1.1,0.2-2.35,0.6-3.75
			L202.1,53.25z"/>
		<path style="fill-rule:evenodd;clip-rule:evenodd;fill:#F0B75E;" d="M200.7,68.9l0.6,1.7c0.467,1.233,0.867,2.05,1.2,2.45
			c0.566,0.633,1.15,0.7,1.75,0.2l0.1,1.25c0.034,0.967,0,1.767-0.1,2.4c-0.167,1-0.583,2.733-1.25,5.2l-2.6-12.55L200.7,68.9z"/>
		<path style="fill-rule:evenodd;clip-rule:evenodd;fill:#EDB55E;" d="M199.25,29.3c0.267-0.833,0.783-1.733,1.55-2.7
			c0.4-0.5,0.767-0.917,1.101-1.25l-0.65,1.55c-0.434,1.133-0.55,1.85-0.35,2.15c0.3,0.5,0.8,0.417,1.5-0.25
			c-0.167,3.233-0.417,5.15-0.75,5.75c-0.9,1.534-1.801,1.784-2.7,0.75c-0.467-0.6-0.617-1.517-0.45-2.75
			C198.566,31.983,198.816,30.9,199.25,29.3z"/>
		<path style="fill-rule:evenodd;clip-rule:evenodd;fill:#EDB55E;" d="M198.65,36.25l0.5,1.6c0.399,1.167,0.716,1.9,0.949,2.2
			c0.367,0.5,0.717,0,1.051-1.5l0.149,1.2c0.066,1.133,0.05,2.483-0.05,4.05c-0.066,1.833-0.25,3.65-0.55,5.45
			c-0.267,1.767-0.517,2.767-0.75,3c-0.467,0.433-0.733-0.35-0.8-2.35c-0.134-4.667-0.184-7.617-0.15-8.85
			c0.066-1.033,0.033-2.133-0.1-3.3L198.65,36.25z"/>
		<path style="fill-rule:evenodd;clip-rule:evenodd;fill:#EDB55E;" d="M197.9,61.35l1.1-7.95l0.05,1.8
			c0.033,1.267,0.084,2.033,0.15,2.3c0.133,0.4,0.383,0.4,0.75,0l-0.101,3.25c-0.1,1.067-0.333,2.4-0.699,4L197.9,61.35z"/>
		<path style="fill-rule:evenodd;clip-rule:evenodd;fill:#E3AE5B;" d="M197.4,36.5l0.3,2.5c0.2,2.233,0.2,4.75,0,7.55
			c-0.134,2.067-0.717,3.917-1.75,5.55l0.45,1.45c0.333,1.167,0.533,2.184,0.6,3.05c0.134,1.433,0.167,2.417,0.1,2.95l-1.6-3.5
			c-0.2-0.466-0.733-1.216-1.6-2.25l-1.25-1.4l0.8-0.1c-0.334-0.433-0.566-1.033-0.7-1.8c-0.233-2,0.1-4.367,1-7.1
			c0.467-1.3,1.217-2.833,2.25-4.6C196.5,37.9,196.967,37.133,197.4,36.5z"/>
		<path style="fill-rule:evenodd;clip-rule:evenodd;fill:#FAD899;" d="M236.65,8.6c0.399-0.4,0.899-0.033,1.5,1.1
			c0.6,1.1,0.6,1.733,0,1.9c-0.601,0.2-1.101-0.15-1.5-1.05C236.25,9.65,236.25,9,236.65,8.6z"/>
		<path style="fill-rule:evenodd;clip-rule:evenodd;fill:#FAD899;" d="M228.15,1.1c0.6-0.3,1.233-0.083,1.899,0.65
			c0.667,0.733,0.717,1.233,0.15,1.5S229,3.3,228.3,2.6C227.634,1.9,227.583,1.4,228.15,1.1z"/>
		<path style="fill-rule:evenodd;clip-rule:evenodd;fill:#FAD899;" d="M218.5,0.85c0.434-0.367,0.767-0.2,1,0.5
			c0.233,0.7,0.15,1.083-0.25,1.15s-0.7-0.117-0.9-0.55C218.15,1.517,218.2,1.15,218.5,0.85z"/>
		<path style="fill-rule:evenodd;clip-rule:evenodd;fill:#F9CF7F;" d="M229.95,7.4c0.633-0.3,1.233,0,1.8,0.9
			c0.566,0.9,0.684,1.434,0.35,1.6c-0.866,0.4-1.566,0.15-2.1-0.75C229.467,8.217,229.45,7.633,229.95,7.4z"/>
		<path style="fill-rule:evenodd;clip-rule:evenodd;fill:#F9CF7F;" d="M229.7,16.05c0.366-0.133,0.733,0.267,1.1,1.2
			c0.4,0.933,0.334,1.4-0.2,1.4c-0.5,0-0.866-0.4-1.1-1.2C229.233,16.683,229.3,16.217,229.7,16.05z"/>
		<path style="fill-rule:evenodd;clip-rule:evenodd;fill:#F9CF7F;" d="M237.7,16.3c0.434-0.133,0.866,0.2,1.3,1
			c0.467,0.767,0.417,1.217-0.15,1.35c-0.533,0.133-0.966-0.2-1.3-1C237.25,16.883,237.3,16.433,237.7,16.3z"/>
		<path style="fill-rule:evenodd;clip-rule:evenodd;fill:#F9CF7F;" d="M228.85,25.8c0.7-0.167,1.217,0.233,1.551,1.2
			c0.333,0.933,0.183,1.517-0.45,1.75c-0.566,0.2-0.983-0.217-1.25-1.25S228.483,25.9,228.85,25.8z"/>
	</g>
	
		<use xlink:href="#FlashAICB_x2F_buildings_1_x2F__x3C_Path_x3E__x5F_37"  width="63.5" height="128.5" y="-128.5" transform="matrix(1 0 0 -1 192 52.25)" style="overflow:visible;opacity:0.5;enable-background:new    ;"/>
	
		<linearGradient id="SVGID_2_" gradientUnits="userSpaceOnUse" x1="-173.9014" y1="-220.814" x2="-39.413" y2="-220.814" gradientTransform="matrix(-0.907 0.4212 -0.4212 -0.907 -1.792908e-004 -2.663732e-004)">
		<stop  offset="0" style="stop-color:#D99061"/>
		<stop  offset="1" style="stop-color:#C27144"/>
	</linearGradient>
	<path style="fill-rule:evenodd;clip-rule:evenodd;fill:url(#SVGID_2_);" d="M186.25,80.25c0.333-11.133-0.55-17.417-2.65-18.85
		c-1.733-1.2-4.616-0.55-8.649,1.95c-5.7,3.5-10.083,5.633-13.15,6.4c-5.3,1.333-9.433-0.75-12.4-6.25c-0.9-1.733-1.633-3.7-2.2-5.9
		l-0.6-2.8l1.5,2.65c1.267,2,2.55,3.566,3.85,4.7c4.2,3.633,7.783,2.283,10.75-4.05c3.267-7,7.85-11.2,13.75-12.6
		c6.733-1.6,12.783,1.6,18.149,9.6c2.567,3.833,4.767,10,6.601,18.5c0.934,4.4,2.416,13.383,4.45,26.95
		c4.166,27.667,9.333,48.633,15.5,62.9c4.6,10.6,7.399,28.383,8.399,53.35c0.533,12.467,0.584,23.884,0.15,34.25
		c-2.566,4.9-5.267,8.233-8.101,10c-5.666,3.566-9.199-2.434-10.6-18c-0.2-2.133-1.733-5.283-4.6-9.45
		c-3.967-5.366-7.084-9.649-9.351-12.85c-9.2-12.767-14.316-24-15.35-33.7c-0.967-9-1.217-20.45-0.75-34.35
		c0.399-11.633,1.283-24.267,2.649-37.9C185.167,98.667,186.05,87.15,186.25,80.25z"/>
	<g>
		<path style="fill-rule:evenodd;clip-rule:evenodd;fill:#B76B41;" d="M186.25,80.25c0.333-11.133-0.55-17.417-2.65-18.85
			l-0.399-0.25c1.566,0.167,3.166,2.033,4.8,5.6c1.4,2.967,2.55,11.183,3.45,24.65c0.8,12.333,1.1,23.883,0.899,34.65
			c-0.199,11.867,0.267,23.767,1.4,35.7c1.467,14.867,3.783,26.75,6.95,35.65c2.934,8.2,6.75,17.1,11.45,26.7
			c2.366,4.801,4.433,8.784,6.199,11.95c-3.633-0.899-7.933-2.184-12.899-3.85c-9.101-12.767-13.8-19.4-14.101-19.9
			c-5.6-9.066-8.816-17.483-9.649-25.25c-0.967-9-1.217-20.45-0.75-34.35c0.399-11.633,1.283-24.267,2.649-37.9
			C185.167,98.667,186.05,87.15,186.25,80.25z"/>
	</g>
	<g>
		<path style="fill-rule:evenodd;clip-rule:evenodd;fill:#B76B41;" d="M173,64.5c-2.033,1.267-3.733,2.25-5.1,2.95
			c-2.066,1.033-4.1,1.8-6.1,2.3c-5.3,1.333-9.433-0.75-12.4-6.25c-0.9-1.733-1.633-3.7-2.2-5.9l-0.6-2.8l1.05,2.4
			c0.934,1.867,1.95,3.566,3.05,5.1c3.466,4.8,7.066,6.784,10.8,5.95C166.267,67.15,170.1,65.9,173,64.5z"/>
		<path style="fill-rule:evenodd;clip-rule:evenodd;fill:#9E5F3B;" d="M182.35,60.4c2,0.2,4.101,1.4,6.301,3.6
			c2.3,2.3,3.783,12.533,4.449,30.7c0.467,12.667,0.517,26.767,0.15,42.3c-0.233,10.033,0.083,18.6,0.95,25.7
			c0.833,6.433,2.35,13.367,4.55,20.8c2.833,9.5,5.417,16.917,7.75,22.25c-1.033-1.833-2.25-4.2-3.65-7.1
			c-2.8-5.833-5.083-11.467-6.85-16.9c-1.934-5.9-3.333-13.183-4.2-21.85c-0.666-7-0.934-13.8-0.8-20.4
			c0.4-17.567,0.483-30.9,0.25-40c-0.1-4.067-0.417-9.533-0.95-16.4l-0.8-9.1l0.2,18.45c0.066,13.633,0,23.733-0.2,30.3
			c-0.167,5.267-0.517,13.75-1.05,25.45c-0.101,10.533,0.75,19.716,2.55,27.55c1.767,7.7,5.55,17.717,11.35,30.05
			c2.9,6.167,5.617,11.567,8.15,16.2c-3-4.3-6.134-9.5-9.4-15.6c-6.533-12.267-10.483-22.983-11.85-32.15
			c-2.333-15.9-2.75-34.983-1.25-57.25c0.333-5,0.55-11.367,0.65-19.1c0.066-6.8,0.017-11.683-0.15-14.65
			c-0.1-2.067-0.3-4.567-0.6-7.5L187.5,72c-0.5,11.667-0.95,24.15-1.35,37.45c-0.834,26.566-1.051,43.917-0.65,52.05
			c0.5,9.467,1.634,17.767,3.4,24.9c1.633,6.6,4,12.883,7.1,18.85c2.5,4.8,5.167,10.95,8,18.45c1.434,3.733,2.6,7,3.5,9.8l-1.3-0.25
			c-7.733-10.533-12.601-17.45-14.601-20.75c-5.8-9.5-9.1-17.983-9.899-25.45c-0.967-9-1.217-20.45-0.75-34.35
			c0.399-11.633,1.283-24.267,2.649-37.9c1.567-16.133,2.45-27.65,2.65-34.55c0.333-11.133-0.55-17.417-2.65-18.85
			c-0.966-0.633-2.05-0.85-3.25-0.65H180L182.35,60.4z"/>
	</g>
	
		<linearGradient id="SVGID_3_" gradientUnits="userSpaceOnUse" x1="-173.8623" y1="-402.394" x2="-39.3739" y2="-402.394" gradientTransform="matrix(-0.907 0.4212 -0.4212 -0.907 -1.792908e-004 -2.663732e-004)">
		<stop  offset="0" style="stop-color:#D99061"/>
		<stop  offset="0.5059" style="stop-color:#CC7F51"/>
		<stop  offset="1" style="stop-color:#C27144"/>
	</linearGradient>
	<path style="fill-rule:evenodd;clip-rule:evenodd;fill:url(#SVGID_3_);" d="M152,349.75c2.9-1.4,6-3.483,9.3-6.25
		c6.667-5.566,11.067-11.816,13.2-18.75c2.167-6.967,2.067-18.8-0.3-35.5l-4.2-23l37-33.1l30,11.1l40,19.5l-2.2,64.65l14.2,25.35
		l-5,31.5l9,33.8l-1.6,1.8c-1.5,1.5-3.351,2.9-5.551,4.2c-7.1,4.233-16.466,6.9-28.1,8c-8.9,0.3-17.917,0.884-27.05,1.75l-11,1.25
		c-2.566-0.833-5.8-1.517-9.7-2.05c-7.8-1.1-15.05-0.917-21.75,0.55c-10.633-0.399-18.55-1.95-23.75-4.649
		c-3.933-2.067-6.867-5.233-8.8-9.5c0.867-5.601,1.583-11.667,2.15-18.2c1.133-13.066,1.017-21.884-0.35-26.45
		c-1.6-5.366-3-11.3-4.2-17.8L152,349.75z"/>
	
		<linearGradient id="SVGID_4_" gradientUnits="userSpaceOnUse" x1="-173.8813" y1="-366.665" x2="-39.393" y2="-366.665" gradientTransform="matrix(-0.907 0.4212 -0.4212 -0.907 -1.792908e-004 -2.663732e-004)">
		<stop  offset="0" style="stop-color:#D99061"/>
		<stop  offset="1" style="stop-color:#C27144"/>
	</linearGradient>
	<path style="fill-rule:evenodd;clip-rule:evenodd;fill:url(#SVGID_4_);" d="M91.5,283.25c3.167,1.167,5.667,2.333,7.5,3.5
		c0.3-0.467,0.8-1.017,1.5-1.65c1.4-1.3,3.133-2.333,5.2-3.1c6.566-2.5,15.167-2.083,25.8,1.25c7.3,2.3,18.083,12.066,32.35,29.3
		c7.1,8.634,13.483,17.033,19.15,25.2v78c-4-0.5-8.033-2.033-12.1-4.6c-8.167-5.167-12.467-12.967-12.9-23.4
		c-0.533-13.667-3.417-26.283-8.65-37.85c-5.934-13.2-14.383-23.584-25.35-31.15c-20.4-14.167-41.85-22-64.35-23.5
		c-11.267-0.733-20.483-0.066-27.65,2c2.6-2.9,6.2-5.816,10.8-8.75c9.267-5.833,19-8.75,29.2-8.75
		C78.667,279.75,85.167,280.917,91.5,283.25z"/>
	
		<use xlink:href="#FlashAICB_x2F_buildings_1_x2F__x3C_Path_x3E__x5F_33"  width="61" height="41.65" y="-41.65" transform="matrix(1 0 0 -1 99 286.75)" style="overflow:visible;opacity:0.6016;enable-background:new    ;"/>
	<path style="fill-rule:evenodd;clip-rule:evenodd;fill:#B76B41;" d="M194.5,69.75l2.8,13.2c1.934,10.233,3,19,3.2,26.3
		c0.1,3.167,0.3,9.7,0.6,19.6c0.301,9.3,0.601,16.517,0.9,21.65c0.3,5.1,1.4,13.217,3.3,24.35c0.934,5.566,1.834,10.617,2.7,15.15
		c-0.5-1.4-1.116-3.4-1.85-6c-1.467-5.167-2.767-10.667-3.9-16.5c-1.1-5.633-1.8-14.433-2.1-26.4
		c-0.134-13.733-0.351-23.767-0.65-30.1c-0.2-4.9-1.1-13.25-2.7-25.05L194.5,69.75z"/>
	<path style="fill-rule:evenodd;clip-rule:evenodd;fill:#B76B41;" d="M178,47c1.967,0,3.733,0.333,5.3,1
		c0.767,0.333,1.334,0.667,1.7,1c-0.7-0.333-1.65-0.583-2.85-0.75c-2.367-0.333-4.75-0.083-7.15,0.75s-4.783,2.833-7.15,6L165,59.5
		l1.7-3.6c1.4-2.633,2.833-4.517,4.3-5.65s3.067-2.017,4.8-2.65C176.7,47.3,177.433,47.1,178,47z"/>
	<path style="fill-rule:evenodd;clip-rule:evenodd;fill:#B76B41;" d="M179.25,50.25c-1.667,0.667-3.25,1.417-4.75,2.25
		c-0.933,0.533-2.5,2.1-4.7,4.7l-3.05,3.8l1.65-3c1.333-2.233,2.617-3.983,3.85-5.25c1.267-1.233,2.817-2.017,4.65-2.35
		C177.8,50.233,178.583,50.183,179.25,50.25z"/>
	<path style="fill-rule:evenodd;clip-rule:evenodd;fill:#9E5F3B;" d="M195,89.4l-1.5-15.9l2.3,15.95
		c1.533,11.167,2.351,18.1,2.45,20.8c0,0.367-0.083,7.6-0.25,21.7c-0.167,12.733,0,22.083,0.5,28.05
		c0.533,6.267,2.434,14.85,5.7,25.75c1.666,5.467,3.267,10.3,4.8,14.5c-7.333-17.167-11.583-30.833-12.75-41
		c-0.434-3.733-0.517-12.133-0.25-25.2c0.333-13.367,0.5-21.216,0.5-23.55C196.5,107.6,196,100.567,195,89.4z"/>
	<path style="fill-rule:evenodd;clip-rule:evenodd;fill:#9E5F3B;" d="M188.75,183.25c-1-4.133-1.717-9.667-2.15-16.6l-0.35-9.15
		l1.25,13c0.233,2.567,0.833,5.483,1.8,8.75c0.4,1.267,1.884,5.683,4.45,13.25c1.667,4.9,4.634,11.617,8.9,20.15
		c2.1,4.267,4.05,8.05,5.85,11.35c-2.566-3.9-5.333-8.533-8.3-13.9C194.333,199.4,190.517,190.45,188.75,183.25z"/>
	<path style="fill-rule:evenodd;clip-rule:evenodd;fill:#C57345;" d="M202.25,88.25c0.866,5.367,1.833,13.417,2.9,24.15
		c1.233,12.767,1.933,19.883,2.1,21.35c0.833,6.667,2.667,19.333,5.5,38c-1-4.033-2.066-8.75-3.2-14.15
		c-2.3-10.8-3.816-19.583-4.55-26.35c-0.2-1.8-0.9-9.533-2.1-23.2c-0.767-8.966-1.65-16.4-2.65-22.3
		c-1.2-7.133-3.033-13.567-5.5-19.3c-2.3-5.333-4.384-8.4-6.25-9.2c-1.467-0.633-3.066-0.9-4.8-0.8l-2.2,0.3l3.5-1.05
		c2.667-0.434,4.833,0.083,6.5,1.55c1.967,1.7,3.983,5.583,6.05,11.65C199.517,74.767,201.083,81.217,202.25,88.25z"/>
	<g>
		<path style="fill-rule:evenodd;clip-rule:evenodd;fill:#BA6D42;" d="M131,320.15c9.733,5.267,16.817,10.716,21.25,16.35
			c7.833,9.833,13.667,17.667,17.5,23.5l6.6,11.4l-7.95,60.149c-3.5-1.2-6.3-2.816-8.4-4.85c-1.7-1.634-3.133-3.733-4.3-6.3
			c1.5-9.9,2.433-19.25,2.8-28.051c-0.233-1.3-0.4-2.833-0.5-4.6c-0.533-13.667-3.417-26.283-8.65-37.85
			c-5.934-13.2-14.383-23.584-25.35-31.15c-2.7-1.934-6.05-4.083-10.05-6.45C119.65,314.434,125.333,317.05,131,320.15z"/>
		<path style="fill-rule:evenodd;clip-rule:evenodd;fill:#B76B41;" d="M207.35,232.9l10.851,3L184,267.25l-1.35,15.55
			c-0.967,11.601-1.601,20.417-1.9,26.45c-0.5,9.667-0.634,23-0.4,40l0.15,2.3l-6.25-25.05c0-0.233-0.083-0.6-0.25-1.1l0.2,0.25
			l0.3-0.9c2.167-6.967,2.067-18.8-0.3-35.5l-4.2-23L207.35,232.9z"/>
	</g>
	<g>
		<path style="fill-rule:evenodd;clip-rule:evenodd;fill:#9E5F3B;" d="M206.1,233.05l1.051-0.1L178.5,265.9l0.45,17.899
			c0.233,13,0.25,22.15,0.05,27.45c-0.1,2.733,0.3,15.566,1.2,38.5l-6-24.1l0.3-0.9c2.167-6.967,2.067-18.8-0.3-35.5l-4.2-23
			L206.1,233.05z"/>
		<path style="fill-rule:evenodd;clip-rule:evenodd;fill:#9E5F3B;" d="M158.5,392.35c-0.233-1.3-0.4-2.833-0.5-4.6
			c-0.5-12.3-2.9-23.8-7.2-34.5c-4.867-12.066-11.767-22-20.7-29.8c9.267,6.434,18.533,16.85,27.8,31.25
			c4.633,7.2,8.333,13.767,11.1,19.7l-4.55,55.5c-2.233-1.2-4.083-2.65-5.55-4.351c-1.2-1.399-2.267-3.116-3.2-5.149
			C157.2,410.5,158.133,401.15,158.5,392.35z"/>
	</g>
	<path style="fill-rule:evenodd;clip-rule:evenodd;fill:#915938;" d="M260,44.75c3.9-3.067,7.684-4.267,11.35-3.6
		c1.834,0.333,3.284,0.967,4.351,1.9c-1.101-0.333-2.5-0.316-4.2,0.05c-3.333,0.733-6.384,2.833-9.15,6.3
		c-2.466,3.067-4.316,9.383-5.55,18.95c-0.6,4.767-0.967,9.233-1.1,13.4l-11.7-5.7c1.267-4.1,2.866-8.483,4.8-13.15
		C252.733,53.6,256.467,47.55,260,44.75z"/>
	
		<use xlink:href="#FlashAICB_x2F_buildings_1_x2F__x3C_Path_x3E__x5F_25"  width="13.532" height="77.35" x="0.018" y="-77.35" transform="matrix(1 0 0 -1 211.7998 167.0498)" style="overflow:visible;opacity:0.6016;enable-background:new    ;"/>
	
		<linearGradient id="SVGID_5_" gradientUnits="userSpaceOnUse" x1="-173.8691" y1="-246.0723" x2="-39.3808" y2="-246.0723" gradientTransform="matrix(-0.907 0.4212 -0.4212 -0.907 -1.792908e-004 -2.663732e-004)">
		<stop  offset="0" style="stop-color:#D99061"/>
		<stop  offset="1" style="stop-color:#C27144"/>
	</linearGradient>
	<path style="fill-rule:evenodd;clip-rule:evenodd;fill:url(#SVGID_5_);" d="M275,87.1c-1.533-4.2-3.467-5.917-5.8-5.15
		c-2.5,0.833-4.017,2.883-4.55,6.15c-0.467,2.6-0.301,6.517,0.5,11.75c0.433,3.066,1.316,8.217,2.649,15.45
		c1.167,6.8,1.834,12.6,2,17.4c0.267,6.9,0.15,15.316-0.35,25.25c-0.601,12.333-1.634,22.483-3.101,30.45
		c-0.699,3.833-2.716,8.667-6.05,14.5c-1.267,2.2-4.649,7.6-10.149,16.2c-9.2,14.301-13.801,24.95-13.801,31.95
		c0,3.867-2.333,4.65-7,2.351l-7-4.65c-1.633-4.733-3.116-10.583-4.449-17.55c-2.634-13.9-3.134-26.35-1.5-37.35
		c1.566-10.833,3.517-19.367,5.85-25.6c2.667-6,4.7-11.083,6.1-15.25c1.801-5.467,3.551-15.783,5.25-30.95
		c1.167-10.6,2.101-21.267,2.801-32c0.466-7.2,2.466-13.566,6-19.1c3.666-5.767,8.033-9.05,13.1-9.85
		c14.033-2.3,24.167,6.25,30.4,25.65c1.333,4.1,3.083,11.2,5.25,21.3c1.5,7.067,2.833,11,4,11.8c3.466,2.367,7.399,1.883,11.8-1.45
		c2.166-1.667,4-3.566,5.5-5.7c-0.467,1.9-1.5,3.816-3.101,5.75c-3.166,3.867-7.5,5.833-13,5.9c-4.767,0.066-8.649-2.267-11.649-7
		c-2.134-3.333-4.066-8.467-5.8-15.4C276.6,92.817,275.3,87.867,275,87.1z"/>
	<path style="fill-rule:evenodd;clip-rule:evenodd;fill:#E0A779;" d="M250.25,292.75c0-1.167-1.55-5.316-4.65-12.45
		c-3.733-8.6-7.35-14.7-10.85-18.3c-3.434-3.533-7.134-6.267-11.1-8.2l-4.9-1.8l3.9,0.8c3.033,0.767,5.649,1.834,7.85,3.2
		s4.65,3.35,7.35,5.95c1.367,1.333,2.5,2.517,3.4,3.55c-0.167-0.667-0.467-1.483-0.9-2.45c-0.866-1.967-1.983-3.733-3.35-5.3
		s-2.733-3-4.1-4.3l-1.65-1.45l3.05,2.05c2.334,1.601,4.233,3.084,5.7,4.45c2.333,2.167,5.75,5.833,10.25,11
		c-0.333-1.533-0.816-3.25-1.45-5.15c-1.233-3.8-2.583-6.583-4.05-8.35s-3.15-3.5-5.05-5.2l-2.45-2.05l4.1,2.65
		c3.134,2.199,5.684,4.399,7.65,6.6c1.533,1.7,3.866,5.75,7,12.15c1.566,3.199,2.983,6.233,4.25,9.1L250.25,292.75z"/>
	<path style="fill-rule:evenodd;clip-rule:evenodd;fill:#E0A779;" d="M261.75,85c-0.533,2.3-0.684,6.2-0.45,11.7
		c0.101,2.733,0.25,5.25,0.45,7.55c-0.033-2.067,0.033-4.4,0.2-7c0.333-5.167,1.017-9,2.05-11.5s2.217-3.883,3.55-4.15
		c0.667-0.133,1.217-0.017,1.65,0.35c-2.5,0.833-4.017,2.883-4.55,6.15c-0.467,2.6-0.301,6.517,0.5,11.75
		c0.433,3.066,1.316,8.217,2.649,15.45c1.167,6.8,1.834,12.6,2,17.4c0.267,6.9,0.15,15.316-0.35,25.25
		c-0.601,12.333-1.634,22.483-3.101,30.45c-0.966,5.133-4.899,13.083-11.8,23.85c-8.133,12.667-13.184,21.35-15.149,26.05l-4.9,5.7
		l0.5-6.5l-8.25,7.75l3-8.75l-9,6.8l-0.05-0.1c4.733-7,8.75-13.65,12.05-19.95c5.267-9.567,9.616-17.817,13.05-24.75
		c6.5-12.967,10.483-22.717,11.95-29.25c1.467-6.5,1.5-19.217,0.1-38.15c-1.8-19.133-2.833-30.167-3.1-33.1
		c-0.3-3.633-0.066-8.017,0.7-13.15l1.3-6.6c-0.533,8.333-0.316,16.383,0.65,24.15c0.5,3.867,1.033,6.9,1.6,9.1
		c0.333-11.833,0.75-19.75,1.25-23.75c0.3-2.5,1.233-5.283,2.8-8.35l2.2-3.9l-1.3,2.7C263.017,80.433,262.283,82.7,261.75,85z"/>
	<path style="fill-rule:evenodd;clip-rule:evenodd;fill:#C57345;" d="M261.15,95.1c-0.067-3.467,0.666-6.783,2.199-9.95l2.351-3.75
		l-1.9,3.45c-1.233,3.066-1.717,6.467-1.45,10.2c0.267,3.233,1.101,8.317,2.5,15.25c1.733,8.434,2.9,14.684,3.5,18.75
		c0.934,6.434,0.75,16.317-0.55,29.65c-1.166,12.167-2.767,22.617-4.8,31.35c-1.533,6.667-6.767,16.4-15.7,29.2
		c-4.467,6.366-8.783,12.083-12.95,17.15c11.767-18.234,19.217-30.351,22.351-36.351c2.133-4.133,3.633-7.8,4.5-11
		c0.533-1.966,1.366-6.4,2.5-13.3c1.166-6.9,2.083-14.683,2.75-23.35c0.767-9.933,0.85-17.05,0.25-21.35
		c-0.066-0.466-1.134-6.583-3.2-18.35C262,104.267,261.217,98.4,261.15,95.1z"/>
	<path style="fill-rule:evenodd;clip-rule:evenodd;fill:#B76B41;" d="M248.8,67.75c1.8-1.8,3.483-3.25,5.05-4.35
		c-1.333,1.1-2.767,2.483-4.3,4.15c-3.1,3.333-5.166,6.4-6.2,9.2c-1.466,3.867-2.466,7.55-3,11.05c-0.733,4.6-0.899,9.917-0.5,15.95
		c0.434,6.567,0.45,12.75,0.051,18.55c-0.4,5.767-1.301,12.583-2.7,20.45c-0.601,3.233-2.783,12.217-6.55,26.95
		c-3.034,11.9-4.75,20.8-5.15,26.7c-0.4,6.4-0.483,14.65-0.25,24.75c0.1,5.066,0.25,9.483,0.45,13.25
		c-2.334-21.333-3.334-34.5-3-39.5c0.233-3.633,1.233-9.35,3-17.15c1.666-7.567,3.1-12.9,4.3-16c1.366-3.467,2.366-6.3,3-8.5
		c0.866-3.033,1.65-6.65,2.35-10.85c0.733-4.533,1.384-10.967,1.95-19.3c0.533-8.233,0.717-14.25,0.55-18.05
		c-0.166-4.2,0.034-8.633,0.601-13.3c0.633-5.4,1.649-9.967,3.05-13.7C242.767,74.717,245.2,71.283,248.8,67.75z"/>
	<path style="fill-rule:evenodd;clip-rule:evenodd;fill:#B76B41;" d="M222.5,181.15l3.5-11.1l-3.05,12.75
		c-2,9.467-2.867,16.55-2.601,21.25c0.434,7.567,1.267,15.233,2.5,23c-0.733-3.033-1.466-6.45-2.199-10.25
		c-1.434-7.633-2.084-13.433-1.95-17.4C218.833,195.433,220.1,189.35,222.5,181.15z"/>
	<g>
		<path style="fill-rule:evenodd;clip-rule:evenodd;fill:#B76B41;" d="M275,87.1c-1.533-4.2-3.467-5.917-5.8-5.15l1.85-1.2
			c1.5-0.5,2.816,0.083,3.95,1.75c0.434,0.6,2.35,6.65,5.75,18.15c3.2,10.733,6.116,17.267,8.75,19.6c2.9,2.5,5.816,3.817,8.75,3.95
			l-1.9,0.15c-4.767,0.066-8.649-2.267-11.649-7c-2.134-3.333-4.066-8.467-5.8-15.4C276.6,92.817,275.3,87.867,275,87.1z"/>
	</g>
	<path style="fill-rule:evenodd;clip-rule:evenodd;fill:#D78656;" d="M268,73.25l1.9-0.1c1.5,0.067,2.866,0.367,4.1,0.9
		c1.566,0.7,2.767,1.567,3.6,2.6c0.967,1.167,2.167,3.367,3.601,6.6c1.166,2.6,2.283,6.467,3.35,11.6
		c1.334,6.5,2.15,10.233,2.45,11.2c1.233,4.133,2.9,7.967,5,11.5c-0.667-0.767-1.4-1.767-2.2-3c-1.6-2.433-2.75-4.767-3.45-7
		c-0.5-1.633-1.35-5.267-2.55-10.9c-1.166-5.533-2.1-9.4-2.8-11.6c-0.833-2.566-1.967-4.55-3.4-5.95l-1.899-1.35l1.2,1.25
		c0.933,1.2,1.633,2.667,2.1,4.4c0.366,1.3,1.066,4.383,2.1,9.25c1.101,5.1,1.967,8.85,2.601,11.25c0.8,2.934,1.899,5.717,3.3,8.35
		c0.066,0.133,1.4,2.35,4,6.65c1.2,1.934,2.884,3.2,5.05,3.8c0.718,0.217,1.385,0.342,2,0.375c-2.008-0.003-3.691-0.395-5.05-1.175
		c-1.3-0.767-2.884-2.617-4.75-5.55c-2.066-3.3-3.65-6.733-4.75-10.3c-0.434-1.433-1.684-6.133-3.75-14.1
		c-1.566-6-2.7-9.733-3.4-11.2c-0.767-1.6-2.183-2.383-4.25-2.35l-2.899,0.5c1.1-0.7,2.283-1.133,3.55-1.3
		c0.667-0.067,1.2-0.083,1.6-0.05l-0.649-1.3l1.3-0.7l-2-1.15L268,73.25z"/>
	<path style="fill-rule:evenodd;clip-rule:evenodd;fill:#C57345;" d="M263.75,134.25c0.733,7.6,0.366,17.4-1.1,29.4
		c-1.434,11.7-3.233,20.233-5.4,25.6c-1.767,4.367-6.833,12.717-15.2,25.05c-2.88,4.229-5.68,8.245-8.399,12.05
		c2.037-3.037,4.171-6.337,6.399-9.899C247.15,205.017,251.8,195.867,254,189c2.934-9.2,5.05-18.217,6.35-27.05
		c1.534-10.467,1.834-20.117,0.9-28.95c-0.833-7.9-1.95-17.267-3.35-28.1L256,91l3.3,15.8
		C261.634,118.633,263.116,127.783,263.75,134.25z"/>
	<path style="fill-rule:evenodd;clip-rule:evenodd;fill:#C57345;" d="M252.75,80.75c-0.4,3.267,0.267,14.683,2,34.25
		c1.767,19.6,2.184,33.017,1.25,40.25c-1.134,8.9-4.967,21.7-11.5,38.4c-5.866,15-10.2,24.367-13,28.1
		c3.033-6.7,6.167-14.083,9.4-22.15c6.466-16.133,10.166-27.583,11.1-34.35c1-7.333,1.483-15.95,1.45-25.85
		c0-7.7-0.316-15.333-0.95-22.9c-0.967-9-1.6-15.85-1.9-20.55c-0.566-8.3-0.267-14.45,0.9-18.45c1.134-3.967,3.816-7.117,8.05-9.45
		c2.101-1.167,4.084-1.933,5.95-2.3c-1.866,0.533-3.8,1.567-5.8,3.1C255.7,71.883,253.384,75.85,252.75,80.75z"/>
	<path style="fill-rule:evenodd;clip-rule:evenodd;fill:#C57345;" d="M245.25,87.25c-0.066,2.933,0.366,11.05,1.3,24.35
		c0.834,12.233,1.066,20.283,0.7,24.15c-0.366,4-1.517,9.333-3.45,16c-2.6,8.9-4.2,14.733-4.8,17.5
		c-1.833,8.333-4.667,21.75-8.5,40.25c0.333-3.533,0.85-7.867,1.55-13c1.367-10.233,2.934-19.317,4.7-27.25
		c2.667-10.7,4.434-18.1,5.3-22.2c1.4-6.5,2.05-13.017,1.95-19.55c-0.4-10.067-0.684-17.433-0.85-22.1
		c-0.301-8.2-0.101-14.833,0.6-19.9c0.733-5.2,2.7-9.883,5.9-14.05c1.6-2.1,3.133-3.667,4.6-4.7c-1.467,1.633-2.934,3.7-4.4,6.2
		C246.884,78.017,245.35,82.783,245.25,87.25z"/>
	<polygon style="fill-rule:evenodd;clip-rule:evenodd;fill:#9E5F3B;" points="183.25,266.25 181,288.25 181.25,266 209,234.75 
		201.25,246.5 215,235.5 	"/>
	
		<linearGradient id="SVGID_6_" gradientUnits="userSpaceOnUse" x1="-164.5908" y1="366.4805" x2="-96.4984" y2="366.4805" gradientTransform="matrix(0.3917 -0.9201 0.9201 0.3917 2.188385e-004 1.157522e-004)">
		<stop  offset="0" style="stop-color:#CC7F51"/>
		<stop  offset="1" style="stop-color:#B36940"/>
	</linearGradient>
	<path style="fill-rule:evenodd;clip-rule:evenodd;fill:url(#SVGID_6_);" d="M337,239.75c-7.333-0.066-15.017,0.767-23.05,2.5
		c-16.101,3.5-25.917,9.833-29.45,19c-2.6,6.767-4.884,17.384-6.85,31.85c-0.967,7.233-1.684,13.784-2.15,19.65
		c-0.866-1.667-2-3.45-3.4-5.35c-2.8-3.733-5.5-6.117-8.1-7.15c-2.066-0.833-5.267-0.417-9.6,1.25l-5.9,2.75
		c-1.733-6.566-2.767-13.983-3.1-22.25c-0.667-16.5,2.533-28.917,9.6-37.25c7.733-9.1,17.9-15.517,30.5-19.25
		c10.233-3.033,20.4-3.95,30.5-2.75c7.1,0.833,12.733,3.917,16.9,9.25C334.967,234.667,336.333,237.25,337,239.75z"/>
	
		<linearGradient id="SVGID_7_" gradientUnits="userSpaceOnUse" x1="-173.8701" y1="-368.5801" x2="-39.3817" y2="-368.5801" gradientTransform="matrix(-0.907 0.4212 -0.4212 -0.907 -1.792908e-004 -2.663732e-004)">
		<stop  offset="0" style="stop-color:#D99061"/>
		<stop  offset="1" style="stop-color:#C27144"/>
	</linearGradient>
	<path style="fill-rule:evenodd;clip-rule:evenodd;fill:url(#SVGID_7_);" d="M356.25,272.55c-2.167,7.934-4.917,15-8.25,21.2
		c-1.833-9.5-4.167-19.366-7-29.6c-5.667-20.5-11-32.634-16-36.4c-5-3.733-13.95-4.934-26.85-3.6
		c-4.067,0.399-8.267,1.033-12.601,1.899l-5.3,1.2c14.134-6.467,27.934-9.2,41.4-8.2c14.8,1.066,25.583,6.634,32.35,16.7
		C359.833,244.417,360.583,256.684,356.25,272.55z"/>
	<path style="fill-rule:evenodd;clip-rule:evenodd;fill:#E0A779;" d="M333.225,226.1l1.775,1.2c4.167,3.334,6.95,6.816,8.35,10.45
		c1.4,3.6,2.983,9.783,4.75,18.55c0.9,4.4,1.65,8.434,2.25,12.101l-1-23.65l3.65,25c0.566-1.434,1.017-3.45,1.35-6.05
		c0.667-5.167,0.45-10.601-0.649-16.3c-1.134-5.7-3.367-10.634-6.7-14.801l-4.65-4.55l4,2.351c3,2.233,5.334,5.017,7,8.35
		c1.801,3.634,2.95,7.533,3.45,11.7c0.334,2.899,0.4,6.883,0.2,11.95c-0.134,3.466-1.45,8.616-3.95,15.449
		c-1.233,3.434-2.467,6.5-3.7,9.2c-1.767-8.666-3.55-16-5.35-22c-2.6-8.767-4.634-15.066-6.1-18.899
		c-3.367-8.667-6.884-14.584-10.551-17.75c-3.066-2.634-7.433-4.434-13.1-5.4l-7.55-0.6c6.133-0.233,11,0.267,14.6,1.5
		c5.5,1.866,10.066,5.699,13.7,11.5c2.5,3.966,5.483,10.983,8.95,21.05c1.7,5.066,3.166,9.717,4.399,13.95
		c0.101-1.101,0.017-2.95-0.25-5.551c-0.566-5.233-1.816-11.6-3.75-19.1c-1.933-7.5-5.033-13.467-9.3-17.9
		C334.451,227.222,333.843,226.639,333.225,226.1L329.2,223.4l1.7,0.949C331.69,224.864,332.465,225.448,333.225,226.1z"/>
	<path style="fill-rule:evenodd;clip-rule:evenodd;fill:#D98E5F;" d="M116.35,283.75l5.4,0.7c4.5,1.066,9.033,3.05,13.6,5.95
		c4.933,3.133,10.333,7.783,16.2,13.949c4.934,5.167,9.417,10.517,13.45,16.051c2.933,4.033,5.483,8.399,7.65,13.1
		c1.067,2.366,1.85,4.333,2.35,5.9l-13.65-19.351l4.05,8.7c2.967,6.434,5.067,11.316,6.3,14.65c-1.1-2.4-2.633-5.334-4.6-8.801
		c-3.9-6.933-7.934-13.116-12.1-18.55c-4.267-5.533-9.65-10.649-16.15-15.35c-1.9-1.367-6.283-4.134-13.15-8.3
		c-2.5-1.534-6.534-3.217-12.1-5.051l-7.6-2.3l7.5,1.3c6,1.4,11.5,3.417,16.5,6.051c5,2.633,11.167,7.433,18.5,14.399
		c3.667,3.467,6.833,6.667,9.5,9.601c-0.6-1.267-1.6-2.917-3-4.95c-2.767-4-6.1-7.8-10-11.4c-4.167-3.866-8.667-7.25-13.5-10.149
		c-3.933-2.334-6.867-3.717-8.8-4.15c-1.233-0.3-2.667-0.717-4.3-1.25L116.35,283.75z"/>
	<polygon style="fill-rule:evenodd;clip-rule:evenodd;fill:#D98E5F;" points="280.7,350.05 282.7,358.4 272.35,345.4 273.7,355.75 
		264.35,344.75 266,363.75 262.35,359.75 262,369.4 258.35,353.4 264.7,357.75 261.35,337.75 271.35,350.4 266.7,335.05 
		280.7,354.05 273.35,338.4 279.35,346.75 273,331.05 287.7,353.75 280.7,344.05 284,353.75 	"/>
	<path style="fill-rule:evenodd;clip-rule:evenodd;fill:#9E5F3B;" d="M293.15,228.6c-8.101,1.767-14.367,4.034-18.801,6.801
		C264.017,241.833,256.9,251.05,253,263.05c-1.533,4.733-1.533,11.934,0,21.601c0.733,4.833,1.634,9.199,2.7,13.1
		c-1.566-3.667-2.95-7.917-4.15-12.75c-2.467-9.6-2.866-17.25-1.2-22.95c1.867-6.333,5.417-12.35,10.65-18.05
		c4.5-4.9,9.4-8.767,14.7-11.6c3.866-2.067,9.75-3.634,17.649-4.7c3.934-0.533,7.483-0.851,10.65-0.95
		C300.833,227.083,297.217,227.7,293.15,228.6z"/>
	<path style="fill-rule:evenodd;clip-rule:evenodd;fill:#9E5F3B;" d="M301.25,232.05c-11.1,2.467-18.184,4.467-21.25,6
		c-4.333,2.2-8.167,5.334-11.5,9.4c-4.1,4.967-6.6,10.5-7.5,16.6c-0.833,5.566-0.684,13.566,0.45,24c0.533,5.233,1.166,9.9,1.899,14
		c-1.267-3.434-2.399-7.6-3.399-12.5c-2-9.767-2.316-18.267-0.95-25.5c1.5-7.767,4.417-14.017,8.75-18.75
		c3.033-3.267,7.45-6.35,13.25-9.25c3.9-1.934,11.066-3.733,21.5-5.399c5.233-0.834,10.066-1.467,14.5-1.9
		C312.066,229.684,306.816,230.783,301.25,232.05z"/>
	<path style="fill-rule:evenodd;clip-rule:evenodd;fill:#9E5F3B;" d="M305.05,234.75c-12.166,2.866-19.85,5.2-23.05,7
		c-4.167,2.333-7.583,5.9-10.25,10.7c-3.066,5.399-4.75,11.717-5.05,18.95c-0.3,6.399,0.116,15.216,1.25,26.449
		c0.566,5.601,1.149,10.567,1.75,14.9c-1-4.066-1.95-8.85-2.851-14.35c-1.833-11-2.55-20.117-2.149-27.351
		c0.467-8.133,2.25-14.85,5.35-20.149c2.634-4.534,6.4-8.25,11.3-11.15c3.767-2.233,11.733-4.35,23.9-6.35
		c6.066-1,11.767-1.784,17.1-2.351C316.917,232.116,311.15,233.35,305.05,234.75z"/>
	<path style="fill-rule:evenodd;clip-rule:evenodd;fill:#9E5F3B;" d="M306.05,240c-11.633,3.366-18.75,6.384-21.35,9.05
		c-4.867,5-8.367,15.283-10.5,30.851c-1.033,7.8-1.601,15.083-1.7,21.85c-0.066-2.667-0.05-6.1,0.05-10.3
		c0.233-8.4,0.834-16.417,1.8-24.05c1.067-8.367,3.15-14.4,6.25-18.101c2.067-2.467,5.983-4.983,11.75-7.55
		c4.034-1.8,10.301-3.35,18.801-4.65c4.267-0.633,8.116-1.083,11.55-1.35C317.4,236.917,311.85,238.333,306.05,240z"/>
	<path style="fill-rule:evenodd;clip-rule:evenodd;fill:#D98E5F;" d="M261.5,376.25l13.5,28.5l-4-24l11,33.5l-2.5-25l13.5,29.8
		l-7.3,4.75c-5.434,3.066-9.5,4.384-12.2,3.95c0-1.733-0.15-4.017-0.45-6.85c-0.566-5.667-1.583-11.217-3.05-16.65
		c-1.467-5.4-3.316-11.684-5.55-18.85L261.5,376.25z"/>
	<path style="fill-rule:evenodd;clip-rule:evenodd;fill:#B76B41;" d="M251.5,329.75c0.434-5.833-1.267-16.667-5.1-32.5l-5.9-22
		l6.4,18.75c4.333,14,6.699,24.75,7.1,32.25c0.434,7.5,0.15,14.583-0.85,21.25c-0.5,3.333-1.051,5.917-1.65,7.75l4,19.5
		c1.267,6.267,4.066,16.9,8.4,31.9c2.166,7.5,4.199,14.366,6.1,20.6l-2.5-1l-18.5-69C250,348.25,250.833,339.083,251.5,329.75z"/>
	<path style="fill-rule:evenodd;clip-rule:evenodd;fill:#B76B41;" d="M262.5,330.75c-1-6-1.833-11.333-2.5-16
		c-0.4-2.9-1.1-5.767-2.1-8.6l-1.4-3.4l3.95,8.75C262.85,318.5,263.533,324.917,262.5,330.75z"/>
	<path style="fill-rule:evenodd;clip-rule:evenodd;fill:#9E5F3B;" d="M180,382.4c-0.667,4.666-3.217,20-7.65,46l6.65-58
		c2.9-9.801,4.35-15.467,4.35-17l0.351-8.351l0.85,5.05c0.434,3.733,0.367,6.5-0.2,8.301C183.217,362.066,181.767,370.066,180,382.4
		z"/>
	
		<use xlink:href="#FlashAICB_x2F_buildings_1_x2F__x3C_Path_x3E_"  width="132.3" height="73.61" y="-73.65" transform="matrix(1 0 0 -1 41.7002 282.75)" style="overflow:visible;opacity:0.6016;enable-background:new    ;"/>
</g>
</svg>
