<?xml version="1.0" encoding="iso-8859-1"?>
<!-- Generator: Adobe Illustrator 15.1.0, SVG Export Plug-In . SVG Version: 6.00 Build 0)  -->
<!DOCTYPE svg PUBLIC "-//W3C//DTD SVG 1.1//EN" "http://www.w3.org/Graphics/SVG/1.1/DTD/svg11.dtd">
<svg version="1.1" id="buildings" xmlns="http://www.w3.org/2000/svg" xmlns:xlink="http://www.w3.org/1999/xlink" x="0px" y="0px"
	 width="26.65px" height="44.65px" viewBox="0 0 26.65 44.65" style="enable-background:new 0 0 26.65 44.65;" xml:space="preserve"
	>
<symbol  id="FlashAICB_x2F_buildings_x2F__x3C_Path_x3E_" viewBox="0 -2.55 7.05 2.55">
	<g id="Layer_1_10_">
		<polygon style="fill-rule:evenodd;clip-rule:evenodd;fill:#787B68;" points="7.05,-1.95 7,-2.55 0,0 		"/>
	</g>
</symbol>
<symbol  id="FlashAICB_x2F_buildings_x2F__x3C_Path_x3E__x5F_1" viewBox="0 -14.8 7.3 14.8">
	<g id="Layer_1_9_">
		<polygon style="fill-rule:evenodd;clip-rule:evenodd;fill:#787B68;" points="5.6,-13.95 0,0 7.3,-14.8 5.95,-13.2 		"/>
	</g>
</symbol>
<symbol  id="FlashAICB_x2F_buildings_x2F__x3C_Path_x3E__x5F_2" viewBox="0 -30.4 5.55 30.4">
	<g id="Layer_1_8_">
		<polygon style="fill-rule:evenodd;clip-rule:evenodd;fill:#787B68;" points="4.6,-30.4 0,0 5.55,-28.25 4.95,-28.1 		"/>
	</g>
</symbol>
<symbol  id="FlashAICB_x2F_buildings_x2F__x3C_Path_x3E__x5F_3" viewBox="0 -22.1 2.2 22.1">
	<g id="Layer_1_7_">
		<polygon style="fill-rule:evenodd;clip-rule:evenodd;fill:#787B68;" points="1.2,-22.1 0,0 2.2,-20.45 1.75,-19.8 		"/>
	</g>
</symbol>
<symbol  id="FlashAICB_x2F_buildings_x2F__x3C_Path_x3E__x5F_4" viewBox="0 -28.8 3.5 28.8">
	<g id="Layer_1_6_">
		<polygon style="fill-rule:evenodd;clip-rule:evenodd;fill:#787B68;" points="0,-28.8 3.5,0 0.8,-27.65 		"/>
	</g>
</symbol>
<symbol  id="FlashAICB_x2F_buildings_x2F__x3C_Path_x3E__x5F_5" viewBox="0 -8.6 3.6 8.6">
	<g id="Layer_1_5_">
		<polygon style="fill-rule:evenodd;clip-rule:evenodd;fill:#787B68;" points="0,-8.6 3.6,0 0.85,-8.15 0.7,-7.65 		"/>
	</g>
</symbol>
<symbol  id="FlashAICB_x2F_buildings_x2F__x3C_Path_x3E__x5F_6" viewBox="0 -5.55 4.5 5.55">
	<g id="Layer_1_4_">
		<polygon style="fill-rule:evenodd;clip-rule:evenodd;fill:#787B68;" points="0,-5.25 4.5,0 0.6,-5.55 		"/>
	</g>
</symbol>
<symbol  id="FlashAICB_x2F_buildings_x2F__x3C_Path_x3E__x5F_7" viewBox="0 -4.95 8.6 4.95">
	<g id="Layer_1_3_">
		<polygon style="fill-rule:evenodd;clip-rule:evenodd;fill:#787B68;" points="0,-4.95 3.1,-2.15 8.6,0 		"/>
	</g>
</symbol>
<symbol  id="FlashAICB_x2F_buildings_x2F__x3C_Path_x3E__x5F_9" viewBox="0 -3.75 11.65 3.75">
	<g id="Layer_1_2_">
		<polygon style="fill-rule:evenodd;clip-rule:evenodd;fill:#36262C;" points="0,-3.05 7.15,0 11.65,-2 10,-2.9 7,-2.65 4.05,-3.75 
					"/>
	</g>
</symbol>
<g>
	
		<use xlink:href="#FlashAICB_x2F_buildings_x2F__x3C_Path_x3E__x5F_9"  width="11.65" height="3.75" y="-3.75" transform="matrix(1 0 0 -1 7.2998 40.9004)" style="overflow:visible;opacity:0.5;enable-background:new    ;"/>
	<polygon style="fill-rule:evenodd;clip-rule:evenodd;fill:#735E55;" points="9.05,43.65 0,38.55 8.15,40.75 3.05,23.35 10.15,37.9 
		5.7,1.55 12.1,33.3 11.65,7.95 14.55,31.75 19.15,0 15.65,37.25 20.25,28 16.9,38.55 24.45,32.6 19.85,39.45 26.65,37.05 
		16.75,43.4 13.85,43 11.05,43.95 	"/>
	
		<use xlink:href="#FlashAICB_x2F_buildings_x2F__x3C_Path_x3E__x5F_7"  width="8.6" height="4.95" y="-4.95" transform="matrix(1 0 0 -1 16.75 37.5996)" style="overflow:visible;opacity:0.5;enable-background:new    ;"/>
	
		<use xlink:href="#FlashAICB_x2F_buildings_x2F__x3C_Path_x3E__x5F_6"  width="4.5" height="5.55" y="-5.55" transform="matrix(1 0 0 -1 19.2998 33.4004)" style="overflow:visible;opacity:0.5;enable-background:new    ;"/>
	
		<use xlink:href="#FlashAICB_x2F_buildings_x2F__x3C_Path_x3E__x5F_5"  width="3.6" height="8.6" y="-8.6" transform="matrix(1 0 0 -1 15.5996 30.75)" style="overflow:visible;opacity:0.5;enable-background:new    ;"/>
	
		<use xlink:href="#FlashAICB_x2F_buildings_x2F__x3C_Path_x3E__x5F_4"  width="3.5" height="28.8" y="-28.8" transform="matrix(1 0 0 -1 14.8496 7)" style="overflow:visible;opacity:0.5;enable-background:new    ;"/>
	
		<use xlink:href="#FlashAICB_x2F_buildings_x2F__x3C_Path_x3E__x5F_3"  width="2.2" height="22.1" y="-22.1" transform="matrix(1 0 0 -1 12.0498 12.1001)" style="overflow:visible;opacity:0.5;enable-background:new    ;"/>
	
		<use xlink:href="#FlashAICB_x2F_buildings_x2F__x3C_Path_x3E__x5F_2"  width="5.55" height="30.4" y="-30.4" transform="matrix(1 0 0 -1 7.0498 8.8501)" style="overflow:visible;opacity:0.5;enable-background:new    ;"/>
	
		<use xlink:href="#FlashAICB_x2F_buildings_x2F__x3C_Path_x3E__x5F_1"  width="7.3" height="14.8" y="-14.8" transform="matrix(1 0 0 -1 4.0498 25.9004)" style="overflow:visible;opacity:0.5;enable-background:new    ;"/>
	
		<use xlink:href="#FlashAICB_x2F_buildings_x2F__x3C_Path_x3E_"  width="7.05" height="2.55" y="-2.55" transform="matrix(1 0 0 -1 1.5498 39.0498)" style="overflow:visible;opacity:0.5;enable-background:new    ;"/>
</g>
</svg>
