<?xml version="1.0" encoding="iso-8859-1"?>
<!-- Generator: Adobe Illustrator 15.1.0, SVG Export Plug-In . SVG Version: 6.00 Build 0)  -->
<!DOCTYPE svg PUBLIC "-//W3C//DTD SVG 1.1//EN" "http://www.w3.org/Graphics/SVG/1.1/DTD/svg11.dtd">
<svg version="1.1" id="buildings" xmlns="http://www.w3.org/2000/svg" xmlns:xlink="http://www.w3.org/1999/xlink" x="0px" y="0px"
	 width="23.2px" height="24.1px" viewBox="0 0 23.2 24.1" style="enable-background:new 0 0 23.2 24.1;" xml:space="preserve">
<symbol  id="FlashAICB_x2F_buildings_x2F__x3C_Path_x3E_" viewBox="0 -2.1 5.3 2.1">
	<g id="Layer_1_11_">
		<polygon style="fill-rule:evenodd;clip-rule:evenodd;fill:#787B68;" points="5.2,-1.75 5.3,-2.1 0,0 		"/>
	</g>
</symbol>
<symbol  id="FlashAICB_x2F_buildings_x2F__x3C_Path_x3E__x5F_1" viewBox="0 -3.55 3.85 3.55">
	<g id="Layer_1_10_">
		<polygon style="fill-rule:evenodd;clip-rule:evenodd;fill:#787B68;" points="3.85,-3.25 3.65,-3.55 0,0 		"/>
	</g>
</symbol>
<symbol  id="FlashAICB_x2F_buildings_x2F__x3C_Path_x3E__x5F_10" viewBox="0 -2.45 14.6 2.45">
	<g id="Layer_1_2_">
		<polygon style="fill-rule:evenodd;clip-rule:evenodd;fill:#36262C;" points="14.6,-1.2 12.2,-1.7 11.55,-2.45 8.85,-2 6.7,-2.3 
			4.1,-1.65 2.25,-2.35 0,-1.5 3.85,-0.45 9.65,0 		"/>
	</g>
</symbol>
<symbol  id="FlashAICB_x2F_buildings_x2F__x3C_Path_x3E__x5F_2" viewBox="0 -5.95 5.05 5.95">
	<g id="Layer_1_9_">
		<polygon style="fill-rule:evenodd;clip-rule:evenodd;fill:#787B68;" points="5.05,-5.05 4.4,-5.05 4.75,-5.95 0,0 		"/>
	</g>
</symbol>
<symbol  id="FlashAICB_x2F_buildings_x2F__x3C_Path_x3E__x5F_3" viewBox="0 -11.05 4.7 11.05">
	<g id="Layer_1_8_">
		<polygon style="fill-rule:evenodd;clip-rule:evenodd;fill:#787B68;" points="4.7,-11.05 3.75,-10.15 3.6,-10.65 0,0 		"/>
	</g>
</symbol>
<symbol  id="FlashAICB_x2F_buildings_x2F__x3C_Path_x3E__x5F_4" viewBox="0 -11.4 2.75 11.4">
	<g id="Layer_1_7_">
		<polygon style="fill-rule:evenodd;clip-rule:evenodd;fill:#787B68;" points="2.25,-11.4 0,0 2.75,-11.35 2.45,-11.15 		"/>
	</g>
</symbol>
<symbol  id="FlashAICB_x2F_buildings_x2F__x3C_Path_x3E__x5F_5" viewBox="0 -6.35 1.1 6.35">
	<g id="Layer_1_6_">
		<polygon style="fill-rule:evenodd;clip-rule:evenodd;fill:#787B68;" points="0,-5.65 1.1,0 0.7,-6.35 0.4,-5.65 		"/>
	</g>
</symbol>
<symbol  id="FlashAICB_x2F_buildings_x2F__x3C_Path_x3E__x5F_6" viewBox="0 -17.4 7.55 17.4">
	<g id="Layer_1_5_">
		<polygon style="fill-rule:evenodd;clip-rule:evenodd;fill:#787B68;" points="0,-17.4 7.55,0 0.85,-17.15 		"/>
	</g>
</symbol>
<symbol  id="FlashAICB_x2F_buildings_x2F__x3C_Path_x3E__x5F_7" viewBox="0 -10.4 4.15 10.4">
	<g id="Layer_1_4_">
		<polygon style="fill-rule:evenodd;clip-rule:evenodd;fill:#787B68;" points="0,-10.4 4.15,0 0.75,-9.85 0.65,-9.4 		"/>
	</g>
</symbol>
<symbol  id="FlashAICB_x2F_buildings_x2F__x3C_Path_x3E__x5F_8" viewBox="0 -5.95 5 5.95">
	<g id="Layer_1_3_">
		<polygon style="fill-rule:evenodd;clip-rule:evenodd;fill:#787B68;" points="0.45,-5.95 0.55,-5.5 0,-5.8 5,0 		"/>
	</g>
</symbol>
<g>
	
		<use xlink:href="#FlashAICB_x2F_buildings_x2F__x3C_Path_x3E__x5F_10"  width="14.6" height="2.45" y="-2.45" transform="matrix(1 0 0 -1 4.5498 21.6504)" style="overflow:visible;opacity:0.5;enable-background:new    ;"/>
	<polygon style="fill-rule:evenodd;clip-rule:evenodd;fill:#787B68;" points="6.6,23.3 0,18.85 5.75,20.8 2.65,16.7 7.3,20.6 
		2.75,12.15 7.95,17.25 5.2,5.6 10.9,18.85 8.55,4.4 12.4,19.25 14.2,12.25 13.7,19.6 23,0 15.35,19.8 21.4,8.7 17.35,20.95 
		23.2,14.2 17.75,22.85 16.3,22.65 15,23.3 12.25,22.55 10.6,23.35 8.55,22.55 	"/>
	
		<use xlink:href="#FlashAICB_x2F_buildings_x2F__x3C_Path_x3E__x5F_8"  width="5" height="5.95" y="-5.95" transform="matrix(1 0 0 -1 17.0498 15.7002)" style="overflow:visible;opacity:0.5;enable-background:new    ;"/>
	
		<use xlink:href="#FlashAICB_x2F_buildings_x2F__x3C_Path_x3E__x5F_7"  width="4.15" height="10.4" y="-10.4" transform="matrix(1 0 0 -1 16.6504 10.2002)" style="overflow:visible;opacity:0.5;enable-background:new    ;"/>
	
		<use xlink:href="#FlashAICB_x2F_buildings_x2F__x3C_Path_x3E__x5F_6"  width="7.55" height="17.4" y="-17.4" transform="matrix(1 0 0 -1 14.25 2.8501)" style="overflow:visible;opacity:0.5;enable-background:new    ;"/>
	
		<use xlink:href="#FlashAICB_x2F_buildings_x2F__x3C_Path_x3E__x5F_5"  width="1.1" height="6.35" y="-6.35" transform="matrix(1 0 0 -1 12.8496 13.9502)" style="overflow:visible;opacity:0.5;enable-background:new    ;"/>
	
		<use xlink:href="#FlashAICB_x2F_buildings_x2F__x3C_Path_x3E__x5F_4"  width="2.75" height="11.4" y="-11.4" transform="matrix(1 0 0 -1 9.5 8.3999)" style="overflow:visible;opacity:0.5;enable-background:new    ;"/>
	
		<use xlink:href="#FlashAICB_x2F_buildings_x2F__x3C_Path_x3E__x5F_3"  width="4.7" height="11.05" y="-11.05" transform="matrix(1 0 0 -1 6.1001 8.0498)" style="overflow:visible;opacity:0.5;enable-background:new    ;"/>
	
		<use xlink:href="#FlashAICB_x2F_buildings_x2F__x3C_Path_x3E__x5F_2"  width="5.05" height="5.95" y="-5.95" transform="matrix(1 0 0 -1 3.3501 12.8501)" style="overflow:visible;opacity:0.5;enable-background:new    ;"/>
	
		<use xlink:href="#FlashAICB_x2F_buildings_x2F__x3C_Path_x3E__x5F_1"  width="3.85" height="3.55" y="-3.55" transform="matrix(1 0 0 -1 3.5 17.5)" style="overflow:visible;opacity:0.5;enable-background:new    ;"/>
	
		<use xlink:href="#FlashAICB_x2F_buildings_x2F__x3C_Path_x3E_"  width="5.3" height="2.1" y="-2.1" transform="matrix(1 0 0 -1 0.6001 19.2002)" style="overflow:visible;opacity:0.5;enable-background:new    ;"/>
</g>
</svg>
