<?xml version="1.0" encoding="iso-8859-1"?>
<!-- Generator: Adobe Illustrator 15.1.0, SVG Export Plug-In . SVG Version: 6.00 Build 0)  -->
<!DOCTYPE svg PUBLIC "-//W3C//DTD SVG 1.1//EN" "http://www.w3.org/Graphics/SVG/1.1/DTD/svg11.dtd">
<svg version="1.1" id="buildings" xmlns="http://www.w3.org/2000/svg" xmlns:xlink="http://www.w3.org/1999/xlink" x="0px" y="0px"
	 width="50.5px" height="54.65px" viewBox="0 0 50.5 54.65" style="enable-background:new 0 0 50.5 54.65;" xml:space="preserve">
<symbol  id="FlashAICB_x2F_buildings_x2F__x3C_Path_x3E_" viewBox="0 -4.95 13.7 4.95">
	<g id="Layer_1_5_">
		<path style="fill-rule:evenodd;clip-rule:evenodd;fill:#A1C0B7;" d="M11.6-2.35c0.733-0.167,1.433-0.233,2.1-0.2
			c-0.567-0.4-1.284-0.8-2.15-1.2c-1.767-0.8-3.4-1.2-4.9-1.2c-1.533,0-3.1,0.6-4.7,1.8C1.15-2.517,0.5-1.9,0-1.3
			c0.367-0.1,0.933-0.15,1.7-0.15c1.566,0,3.333,0.3,5.3,0.9L8.65,0C9.117-1.167,10.1-1.95,11.6-2.35z"/>
	</g>
</symbol>
<symbol  id="FlashAICB_x2F_buildings_x2F__x3C_Path_x3E__x5F_0" viewBox="0 -15.05 26.35 15.05">
	<g id="Layer_1_6_">
		<path style="fill-rule:evenodd;clip-rule:evenodd;fill:#A1C0B7;" d="M11.5-4.9c0.867,0.233,1.817,1.117,2.85,2.65
			c0.533,0.767,0.967,1.517,1.3,2.25l10.7-12.9c-1.867,0.167-3.95,0.316-6.25,0.45c-4.6,0.233-7.934,0.2-10-0.1
			c-3.3-0.467-6.667-1.3-10.1-2.5c1.067,2.1,1.683,4.517,1.85,7.25c2-0.733,3.467-0.817,4.4-0.25c0.567,0.367,0.8,1.333,0.7,2.9
			C6.883-4.35,6.767-3.6,6.6-2.9l1.65-1.25C9.517-4.917,10.6-5.167,11.5-4.9z"/>
	</g>
</symbol>
<symbol  id="FlashAICB_x2F_buildings_x2F__x3C_Path_x3E__x5F_1" viewBox="0 -21.7 5 21.7">
	<g id="Layer_1_4_">
		<path style="fill-rule:evenodd;clip-rule:evenodd;fill:#A1C0B7;" d="M1.15-18.6L0-12L5,0C3.533-9.067,2.433-16.3,1.7-21.7
			C1.467-20.733,1.283-19.7,1.15-18.6z"/>
	</g>
</symbol>
<symbol  id="FlashAICB_x2F_buildings_x2F__x3C_Path_x3E__x5F_1_x5F_0" viewBox="0 -4.5 3.1 4.5">
	<g id="Layer_1_11_">
		<polygon style="fill-rule:evenodd;clip-rule:evenodd;fill:#8BA8A2;" points="0.35,-0.65 2.5,0 3.1,-4 2.35,-4.5 1.85,-3.15 
			0,-3.4 		"/>
	</g>
</symbol>
<symbol  id="FlashAICB_x2F_buildings_x2F__x3C_Path_x3E__x5F_2" viewBox="0 -16.65 12 16.65">
	<g id="Layer_1_3_">
		<polygon style="fill-rule:evenodd;clip-rule:evenodd;fill:#A1C0B7;" points="12,-16.65 10.5,-12.4 0,0 9.55,-8.5 11.15,-10.65 		
			"/>
	</g>
</symbol>
<symbol  id="FlashAICB_x2F_buildings_x2F__x3C_Path_x3E__x5F_2_x5F_0" viewBox="0 -16.75 9.65 16.75">
	<g id="Layer_1_10_">
		<polygon style="fill-rule:evenodd;clip-rule:evenodd;fill:#8BA8A2;" points="9.65,-9.25 8.9,-16.75 0,-13.2 1.25,-4.1 3.4,-5.1 
			4.75,0 8.25,-0.1 6.25,-8.85 		"/>
	</g>
</symbol>
<symbol  id="FlashAICB_x2F_buildings_x2F__x3C_Path_x3E__x5F_3" viewBox="0 -23.3 18.571 23.3">
	<g id="Layer_1_9_">
		<path style="fill-rule:evenodd;clip-rule:evenodd;fill:#8BA8A2;" d="M18.55-8.9c-0.133-3.5-0.233-5.667-0.3-6.5
			c-0.3-3.133-0.883-5.567-1.75-7.3l-0.45-0.6L0-16.85l5.3,15.6c2.6-0.6,4.567-0.9,5.9-0.9c1.333,0,3.533,0.717,6.6,2.15
			C18.4-3.767,18.65-6.733,18.55-8.9z"/>
	</g>
</symbol>
<symbol  id="FlashAICB_x2F_buildings_x2F__x3C_Path_x3E__x5F_4" viewBox="0 -17.75 8.5 17.75">
	<g id="Layer_1_8_">
		<path style="fill-rule:evenodd;clip-rule:evenodd;fill:#8BA8A2;" d="M0,0l8.5-11.25l-0.4-6l-1-0.5l-0.75,2.9l-1-0.65
			c-0.833,3.1-1.5,5.4-2,6.9S1.733-4.233,0,0z"/>
	</g>
</symbol>
<symbol  id="FlashAICB_x2F_buildings_x2F__x3C_Path_x3E__x5F_5" viewBox="0 -48.95 23.3 48.95">
	<g id="Layer_1_7_">
		<path style="fill-rule:evenodd;clip-rule:evenodd;fill:#8BA8A2;" d="M23.3-16.6c-0.066-2.767-0.566-4.65-1.5-5.65
			c-0.9-1-2.233-2.117-4-3.35l0.45-3.25c0.267-2.4,0.367-4.283,0.3-5.65c-0.133-3.5-0.233-5.667-0.3-6.5
			c-0.3-3.133-0.883-5.567-1.75-7.3l-0.35-0.65l-0.1,0.05L0-42.45l5.3,15.6c1.7,0.467,3.434,1.167,5.2,2.1
			c3.533,1.867,5.45,3.983,5.75,6.35s-0.433,6.15-2.2,11.35C13.15-4.483,12.233-2.133,11.3,0l10.5-12.35L23.3-16.6z"/>
	</g>
</symbol>
<symbol  id="FlashAICB_x2F_buildings_x2F__x3C_Path_x3E__x5F_6" viewBox="0 -14.85 9.2 14.85">
	<g id="Layer_1_12_">
		<polygon style="fill-rule:evenodd;clip-rule:evenodd;fill:#8BA8A2;" points="9.2,0 4.2,-12 1.6,-14.85 0,-12.7 		"/>
	</g>
</symbol>
<symbol  id="FlashAICB_x2F_buildings_x2F__x3C_Path_x3E__x5F_7" viewBox="0 -10.15 50.5 10.15">
	<g id="Layer_1_2_">
		<path style="fill-rule:evenodd;clip-rule:evenodd;fill:#36262C;" d="M44.5-4.3l6-3.5c-9.133,0.1-15.367,0.267-18.7,0.5
			c-2.066,0.133-4.767-0.3-8.1-1.3l-4.4-1.55L0-1.65l7.65,1L31.3,0L44.5-4.3z"/>
	</g>
</symbol>
<g>
	
		<use xlink:href="#FlashAICB_x2F_buildings_x2F__x3C_Path_x3E__x5F_7"  width="50.5" height="10.15" y="-10.15" transform="matrix(1 0 0 -1 0 44.5)" style="overflow:visible;opacity:0.5;enable-background:new    ;"/>
	
		<linearGradient id="SVGID_1_" gradientUnits="userSpaceOnUse" x1="-23.7725" y1="-39.1191" x2="7.5991" y2="-39.1191" gradientTransform="matrix(-0.8694 0.4941 -0.4941 -0.8694 4.088879e-005 -1.944602e-004)">
		<stop  offset="0" style="stop-color:#C4D5D0"/>
		<stop  offset="1" style="stop-color:#71A697"/>
	</linearGradient>
	<path style="fill-rule:evenodd;clip-rule:evenodd;fill:url(#SVGID_1_);" d="M14.85,4.25l9.55,8.45L33.6,0l-1.8,11.4
		c-1.233,8-1.917,13.034-2.05,15.1c-0.167,2.1,0.667,3.5,2.5,4.2c0.9,0.333,1.816,0.467,2.75,0.399l0.4,7.101L46.1,51.1
		c-1.866-0.166-3.949-0.316-6.25-0.449c-4.6-0.233-7.933-0.2-10,0.1c-2.066,0.3-4.366,0.8-6.899,1.5l-3.2,1L19.7,53.2l-0.1-0.05
		L3.55,46.7L8.85,31.1l5.2-2.1c3.533-1.867,5.45-3.983,5.75-6.35c0.3-2.367-0.433-6.15-2.2-11.35L14.85,4.25z"/>
	<g>
		
			<use xlink:href="#FlashAICB_x2F_buildings_x2F__x3C_Path_x3E__x5F_2"  width="12" height="16.65" y="-16.65" transform="matrix(1 0 0 -1 14.8501 4.2002)" style="overflow:visible;opacity:0.75;enable-background:new    ;"/>
		
			<use xlink:href="#FlashAICB_x2F_buildings_x2F__x3C_Path_x3E__x5F_1"  width="5" height="21.7" y="-21.7" transform="matrix(1 0 0 -1 28.5996 0)" style="overflow:visible;opacity:0.75;enable-background:new    ;"/>
		
			<use xlink:href="#FlashAICB_x2F_buildings_x2F__x3C_Path_x3E_"  width="13.7" height="4.95" y="-4.95" transform="matrix(1 0 0 -1 21.3501 28.5498)" style="overflow:visible;opacity:0.75;enable-background:new    ;"/>
	</g>
	<g>
		
			<use xlink:href="#FlashAICB_x2F_buildings_x2F__x3C_Path_x3E__x5F_0"  width="26.35" height="15.05" y="-15.05" transform="matrix(1 0 0 -1 19.75 38.2002)" style="overflow:visible;opacity:0.5;enable-background:new    ;"/>
	</g>
	
		<use xlink:href="#FlashAICB_x2F_buildings_x2F__x3C_Path_x3E__x5F_5"  width="23.3" height="48.95" y="-48.95" transform="matrix(1 0 0 -1 3.5498 4.25)" style="overflow:visible;enable-background:new    ;"/>
	
		<use xlink:href="#FlashAICB_x2F_buildings_x2F__x3C_Path_x3E__x5F_4"  width="8.5" height="17.75" y="-17.75" transform="matrix(1 0 0 -1 16 6.25)" style="overflow:visible;enable-background:new    ;"/>
	
		<use xlink:href="#FlashAICB_x2F_buildings_x2F__x3C_Path_x3E__x5F_3"  width="18.571" height="23.3" y="-23.3" transform="matrix(1 0 0 -1 3.5498 29.8496)" style="overflow:visible;enable-background:new    ;"/>
	
		<use xlink:href="#FlashAICB_x2F_buildings_x2F__x3C_Path_x3E__x5F_2_x5F_0"  width="9.65" height="16.75" y="-16.75" transform="matrix(1 0 0 -1 7.8501 35.25)" style="overflow:visible;enable-background:new    ;"/>
	
		<use xlink:href="#FlashAICB_x2F_buildings_x2F__x3C_Path_x3E__x5F_1_x5F_0"  width="3.1" height="4.5" y="-4.5" transform="matrix(1 0 0 -1 25 35.0996)" style="overflow:visible;opacity:0.3594;enable-background:new    ;"/>
	
		<use xlink:href="#FlashAICB_x2F_buildings_x2F__x3C_Path_x3E__x5F_6"  width="9.2" height="14.85" y="-14.85" transform="matrix(1 0 0 -1 24.3999 0)" style="overflow:visible;opacity:0.3594;enable-background:new    ;"/>
</g>
</svg>
