<?xml version="1.0" encoding="iso-8859-1"?>
<!-- Generator: Adobe Illustrator 15.1.0, SVG Export Plug-In . SVG Version: 6.00 Build 0)  -->
<!DOCTYPE svg PUBLIC "-//W3C//DTD SVG 1.1//EN" "http://www.w3.org/Graphics/SVG/1.1/DTD/svg11.dtd">
<svg version="1.1" id="buildings" xmlns="http://www.w3.org/2000/svg" xmlns:xlink="http://www.w3.org/1999/xlink" x="0px" y="0px"
	 width="20.35px" height="15.25px" viewBox="0 0 20.35 15.25" style="enable-background:new 0 0 20.35 15.25;" xml:space="preserve"
	>
<symbol  id="FlashAICB_x2F_buildings_x2F__x3C_Path_x3E_" viewBox="0 -7.05 4.4 7.05">
	<g id="Layer_1_8_">
		<polygon style="fill-rule:evenodd;clip-rule:evenodd;fill:#787B68;" points="3.95,-7.05 0,0 4.4,-6.45 3.9,-6.3 		"/>
	</g>
</symbol>
<symbol  id="FlashAICB_x2F_buildings_x2F__x3C_Path_x3E__x5F_1" viewBox="0 -10.05 4.55 10.05">
	<g id="Layer_1_7_">
		<polygon style="fill-rule:evenodd;clip-rule:evenodd;fill:#787B68;" points="3.95,-9.55 0,0 4.55,-10.05 		"/>
	</g>
</symbol>
<symbol  id="FlashAICB_x2F_buildings_x2F__x3C_Path_x3E__x5F_2" viewBox="0 -5.75 1.6 5.75">
	<g id="Layer_1_6_">
		<polygon style="fill-rule:evenodd;clip-rule:evenodd;fill:#787B68;" points="0.95,-5.75 0,0 1.6,-5.6 		"/>
	</g>
</symbol>
<symbol  id="FlashAICB_x2F_buildings_x2F__x3C_Path_x3E__x5F_3" viewBox="0 -5.75 1.4 5.75">
	<g id="Layer_1_5_">
		<polygon style="fill-rule:evenodd;clip-rule:evenodd;fill:#787B68;" points="0,-5.75 1.4,0 0.45,-5.7 		"/>
	</g>
</symbol>
<symbol  id="FlashAICB_x2F_buildings_x2F__x3C_Path_x3E__x5F_4" viewBox="0 -3.2 5.95 3.2">
	<g id="Layer_1_4_">
		<polygon style="fill-rule:evenodd;clip-rule:evenodd;fill:#787B68;" points="0,-2.75 5.95,0 0.15,-3.2 		"/>
	</g>
</symbol>
<symbol  id="FlashAICB_x2F_buildings_x2F__x3C_Path_x3E__x5F_5" viewBox="0 -6.85 6.6 6.85">
	<g id="Layer_1_3_">
		<polygon style="fill-rule:evenodd;clip-rule:evenodd;fill:#787B68;" points="0,-6.7 6.6,0 0.5,-6.85 0.65,-6.4 		"/>
	</g>
</symbol>
<symbol  id="FlashAICB_x2F_buildings_x2F__x3C_Path_x3E__x5F_7" viewBox="0 -2.25 10.85 2.25">
	<g id="Layer_1_2_">
		<polygon style="fill-rule:evenodd;clip-rule:evenodd;fill:#36262C;" points="10.85,-1.45 5.15,-2.25 3.25,-1.1 2,-1.35 0,-1.1 
			1.75,-0.2 5.6,0 		"/>
	</g>
</symbol>
<g>
	
		<use xlink:href="#FlashAICB_x2F_buildings_x2F__x3C_Path_x3E__x5F_7"  width="10.85" height="2.25" y="-2.25" transform="matrix(1 0 0 -1 3 13)" style="overflow:visible;opacity:0.5;enable-background:new    ;"/>
	<polygon style="fill-rule:evenodd;clip-rule:evenodd;fill:#A48476;" points="6.85,4.55 9.15,11.9 11.45,5 10.3,12.8 20.35,3.2 
		11.65,13.25 19.65,9.95 12.35,14.15 10.3,14.15 8.45,14.75 6.3,13.5 4.9,13.95 4.1,12.55 0,3.9 5.7,12.1 1.6,0 7.8,13 	"/>
	
		<use xlink:href="#FlashAICB_x2F_buildings_x2F__x3C_Path_x3E__x5F_5"  width="6.6" height="6.85" y="-6.85" transform="matrix(1 0 0 -1 10.5996 6.6499)" style="overflow:visible;opacity:0.5;enable-background:new    ;"/>
	
		<use xlink:href="#FlashAICB_x2F_buildings_x2F__x3C_Path_x3E__x5F_4"  width="5.95" height="3.2" y="-3.2" transform="matrix(1 0 0 -1 12.0996 10.7998)" style="overflow:visible;opacity:0.5;enable-background:new    ;"/>
	
		<use xlink:href="#FlashAICB_x2F_buildings_x2F__x3C_Path_x3E__x5F_3"  width="1.4" height="5.75" y="-5.75" transform="matrix(1 0 0 -1 9.3999 7.75)" style="overflow:visible;opacity:0.5;enable-background:new    ;"/>
	
		<use xlink:href="#FlashAICB_x2F_buildings_x2F__x3C_Path_x3E__x5F_2"  width="1.6" height="5.75" y="-5.75" transform="matrix(1 0 0 -1 7.3501 6.6001)" style="overflow:visible;opacity:0.5;enable-background:new    ;"/>
	
		<use xlink:href="#FlashAICB_x2F_buildings_x2F__x3C_Path_x3E__x5F_1"  width="4.55" height="10.05" y="-10.05" transform="matrix(1 0 0 -1 3.0498 3.1499)" style="overflow:visible;opacity:0.5;enable-background:new    ;"/>
	
		<use xlink:href="#FlashAICB_x2F_buildings_x2F__x3C_Path_x3E_"  width="4.4" height="7.05" y="-7.05" transform="matrix(1 0 0 -1 1.2998 6)" style="overflow:visible;opacity:0.5;enable-background:new    ;"/>
</g>
</svg>
