<?xml version="1.0" encoding="iso-8859-1"?>
<!-- Generator: Adobe Illustrator 15.1.0, SVG Export Plug-In . SVG Version: 6.00 Build 0)  -->
<!DOCTYPE svg PUBLIC "-//W3C//DTD SVG 1.1//EN" "http://www.w3.org/Graphics/SVG/1.1/DTD/svg11.dtd">
<svg version="1.1" id="buildings" xmlns="http://www.w3.org/2000/svg" xmlns:xlink="http://www.w3.org/1999/xlink" x="0px" y="0px"
	 width="39.35px" height="40.85px" viewBox="0 0 39.35 40.85" style="enable-background:new 0 0 39.35 40.85;" xml:space="preserve"
	>
<symbol  id="FlashAICB_x2F_buildings_x2F__x3C_Path_x3E_" viewBox="0 -8.15 5.2 8.15">
	<g id="Layer_1_17_">
		<polygon style="fill-rule:evenodd;clip-rule:evenodd;fill:#A1C0B7;" points="5.2,-7.35 0,-8.15 1.05,-4.45 2.7,-3.95 2.9,-0.7 
			4.15,0 		"/>
	</g>
</symbol>
<symbol  id="FlashAICB_x2F_buildings_x2F__x3C_Path_x3E__x5F_1" viewBox="0 -7.15 7.7 7.15">
	<g id="Layer_1_16_">
		<path style="fill-rule:evenodd;clip-rule:evenodd;fill:#A1C0B7;" d="M5.45-0.75l0.05-1.8l1,0.25L6.95,0L7.7-6.3L2.75-7.15L0-6.5
			l1.7,1.85L1.85-5.9c1.6,0.267,2.483,0.6,2.65,1s0.333,1.733,0.5,4L5.45-0.75z"/>
	</g>
</symbol>
<symbol  id="FlashAICB_x2F_buildings_x2F__x3C_Path_x3E__x5F_10" viewBox="0 -8.35 5.9 8.35">
	<g id="Layer_1_7_">
		<polygon style="fill-rule:evenodd;clip-rule:evenodd;fill:#8BA8A2;" points="0,-5.6 0.9,-3.3 1.3,0 4.55,-0.55 4.4,-2.25 
			5.9,-2.4 4.3,-8.35 		"/>
	</g>
</symbol>
<symbol  id="FlashAICB_x2F_buildings_x2F__x3C_Path_x3E__x5F_11" viewBox="0 -8.75 12.25 8.75">
	<g id="Layer_1_6_">
		<polygon style="fill-rule:evenodd;clip-rule:evenodd;fill:#A1C0B7;" points="2,-0.4 4,-0.1 5.25,-0.6 12.25,0 3.35,-3.1 
			2.6,-8.75 1,-8.65 1.1,-5.5 0,-5.25 0.9,-1.35 1.85,-1.25 		"/>
	</g>
</symbol>
<symbol  id="FlashAICB_x2F_buildings_x2F__x3C_Path_x3E__x5F_12" viewBox="0 -12.7 11.75 12.7">
	<g id="Layer_1_5_">
		<polygon style="fill-rule:evenodd;clip-rule:evenodd;fill:#8BA8A2;" points="0,-7.7 1.15,-6.2 1.1,0 11.75,-3.1 7.85,-12.7 		"/>
	</g>
</symbol>
<symbol  id="FlashAICB_x2F_buildings_x2F__x3C_Path_x3E__x5F_13" viewBox="0 -3.25 10.65 3.1">
	<g id="Layer_1_4_">
		<polygon style="fill-rule:evenodd;clip-rule:evenodd;fill:#7C9691;" points="8.4,-0.25 10.65,-3.25 0,-0.15 		"/>
	</g>
</symbol>
<symbol  id="FlashAICB_x2F_buildings_x2F__x3C_Path_x3E__x5F_14" viewBox="0 -33.15 21 33.15">
	<g id="Layer_1_3_">
		<path style="fill-rule:evenodd;clip-rule:evenodd;fill:#8BA8A2;" d="M16.5-20.55l2.25-3l-3.9-9.6l-7.85,5l-7,1l2.5,10.6l5.5,1.1
			c-1.033,2.667-1.7,5.017-2,7.05C5.833-7.1,6.533-5.317,8.1-3.05C8.867-1.917,9.65-0.9,10.45,0l0.4-0.15
			c2.267-1.9,3.8-3.033,4.6-3.4c1.333-0.633,3.183-1.367,5.55-2.2l-3.8-7.55L16.5-20.55z"/>
	</g>
</symbol>
<symbol  id="FlashAICB_x2F_buildings_x2F__x3C_Path_x3E__x5F_16" viewBox="0 -9.35 39.35 9.35">
	<g id="Layer_1_2_">
		<polygon style="fill-rule:evenodd;clip-rule:evenodd;fill:#36262C;" points="17.15,-9.35 9.5,-3.85 0,-1.85 4,-1 28,0 
			39.35,-3.35 29.35,-5 25.35,-7.85 		"/>
	</g>
</symbol>
<symbol  id="FlashAICB_x2F_buildings_x2F__x3C_Path_x3E__x5F_2" viewBox="0 -8.15 2.5 8.15">
	<g id="Layer_1_15_">
		<polygon style="fill-rule:evenodd;clip-rule:evenodd;fill:#A1C0B7;" points="0,-8.15 0.5,0 2.5,-7.6 		"/>
	</g>
</symbol>
<symbol  id="FlashAICB_x2F_buildings_x2F__x3C_Path_x3E__x5F_3" viewBox="0 -4.4 14.85 4.4">
	<g id="Layer_1_14_">
		<path style="fill-rule:evenodd;clip-rule:evenodd;fill:#A1C0B7;" d="M13.35-3.25l1.5-0.5c-1.067-0.3-2.1-0.5-3.1-0.6
			c-0.633-0.066-1.4-0.066-2.3,0l-1.2,0.1L3.75-2.7C2.983-2.4,1.733-1.5,0,0l4-1.5l1.7-0.95C6.933-3.117,7.733-3.5,8.1-3.6
			C8.7-3.767,10.45-3.65,13.35-3.25z"/>
	</g>
</symbol>
<symbol  id="FlashAICB_x2F_buildings_x2F__x3C_Path_x3E__x5F_4" viewBox="0 -4.8 8.15 4.8">
	<g id="Layer_1_13_">
		<path style="fill-rule:evenodd;clip-rule:evenodd;fill:#A1C0B7;" d="M0-1.8c1.567-0.167,2.867-0.167,3.9,0
			C4.967-1.633,6.383-1.033,8.15,0l-2.4-2.3l-3.5-2.5L0-1.8z"/>
	</g>
</symbol>
<symbol  id="FlashAICB_x2F_buildings_x2F__x3C_Path_x3E__x5F_5" viewBox="0 -6.85 10 6.85">
	<g id="Layer_1_12_">
		<path style="fill-rule:evenodd;clip-rule:evenodd;fill:#A1C0B7;" d="M10,0L8.7-1.7L5-1.75l-2.4-5.1L1.7-6.6L1.25-4.75L0-5.45
			L2.6-0.2c0.767-0.2,1.767-0.333,3-0.4C6.833-0.667,8.3-0.467,10,0z"/>
	</g>
</symbol>
<symbol  id="FlashAICB_x2F_buildings_x2F__x3C_Path_x3E__x5F_6" viewBox="0 -9.6 3.6 9.6">
	<g id="Layer_1_11_">
		<polygon style="fill-rule:evenodd;clip-rule:evenodd;fill:#8BA8A2;" points="0.75,-9.6 0,0 1.25,-5.4 2,-5.25 3.6,-9.35 		"/>
	</g>
</symbol>
<symbol  id="FlashAICB_x2F_buildings_x2F__x3C_Path_x3E__x5F_7" viewBox="0 -9.95 4.45 9.95">
	<g id="Layer_1_10_">
		<polygon style="fill-rule:evenodd;clip-rule:evenodd;fill:#8BA8A2;" points="4.45,0 3.75,-9.95 0,-8.6 		"/>
	</g>
</symbol>
<symbol  id="FlashAICB_x2F_buildings_x2F__x3C_Path_x3E__x5F_8" viewBox="0 -5.75 10.9 5.75">
	<g id="Layer_1_9_">
		<polygon style="fill-rule:evenodd;clip-rule:evenodd;fill:#8BA8A2;" points="9,-1.6 10.9,-1.2 8.05,-5.75 7.8,-3 5.3,-2.25 
			3.9,-3.25 0,-1.25 1.25,-0.2 4,-1.5 5.55,0 		"/>
	</g>
</symbol>
<symbol  id="FlashAICB_x2F_buildings_x2F__x3C_Path_x3E__x5F_9" viewBox="0 -4.9 9.4 4.9">
	<g id="Layer_1_8_">
		<path style="fill-rule:evenodd;clip-rule:evenodd;fill:#8BA8A2;" d="M9.4-2.65L9.25-4.9C6.583-4.3,4.833-3.783,4-3.35
			C3.167-2.883,1.833-1.767,0,0c1.5-0.9,2.967-1.6,4.4-2.1C5.867-2.6,7.533-2.783,9.4-2.65z"/>
	</g>
</symbol>
<g>
	
		<use xlink:href="#FlashAICB_x2F_buildings_x2F__x3C_Path_x3E__x5F_16"  width="39.35" height="9.35" y="-9.35" transform="matrix(1 0 0 -1 0 31.5)" style="overflow:visible;opacity:0.5;enable-background:new    ;"/>
	
		<linearGradient id="SVGID_1_" gradientUnits="userSpaceOnUse" x1="-18.2363" y1="-30.0234" x2="4.6699" y2="-30.0234" gradientTransform="matrix(-0.8699 0.4933 -0.4933 -0.8699 -6.673634e-004 3.124475e-004)">
		<stop  offset="0" style="stop-color:#C4D5D0"/>
		<stop  offset="1" style="stop-color:#71A697"/>
	</linearGradient>
	<path style="fill-rule:evenodd;clip-rule:evenodd;fill:url(#SVGID_1_);" d="M31.05,14.9c-1.2,2.667-1.866,4.55-2,5.65
		c-0.2,1.467,0.851,4.3,3.15,8.5c1.134,2.101,2.283,4.05,3.45,5.851l-6.801,0.8L24.65,38.35l-6.65,1l-7.85-5l-7-1l2.5-10.6l5.5-1.1
		c-1.034-2.667-1.7-5.017-2-7.05c-0.167-1.3,0.533-3.083,2.1-5.35C12.017,8.117,12.8,7.1,13.6,6.2l6.8,2.4L24.85,0l2.2,9.05l2,0.8
		c1.434,0.566,2.384,1.033,2.851,1.4C32.3,11.583,32.017,12.8,31.05,14.9z"/>
	
		<use xlink:href="#FlashAICB_x2F_buildings_x2F__x3C_Path_x3E__x5F_14"  width="21" height="33.15" y="-33.15" transform="matrix(1 0 0 -1 3.1499 6.2002)" style="overflow:visible;enable-background:new    ;"/>
	
		<use xlink:href="#FlashAICB_x2F_buildings_x2F__x3C_Path_x3E__x5F_13"  width="10.65" height="3.1" y="-3.25" transform="matrix(1 0 0 -1 11.25 26.5)" style="overflow:visible;enable-background:new    ;"/>
	
		<use xlink:href="#FlashAICB_x2F_buildings_x2F__x3C_Path_x3E__x5F_12"  width="11.75" height="12.7" y="-12.7" transform="matrix(1 0 0 -1 10.1499 26.6504)" style="overflow:visible;enable-background:new    ;"/>
	
		<use xlink:href="#FlashAICB_x2F_buildings_x2F__x3C_Path_x3E__x5F_11"  width="12.25" height="8.75" y="-8.75" transform="matrix(1 0 0 -1 5.8999 23.3496)" style="overflow:visible;enable-background:new    ;"/>
	
		<use xlink:href="#FlashAICB_x2F_buildings_x2F__x3C_Path_x3E__x5F_10"  width="5.9" height="8.35" y="-8.35" transform="matrix(1 0 0 -1 12.4502 30.2002)" style="overflow:visible;enable-background:new    ;"/>
	
		<use xlink:href="#FlashAICB_x2F_buildings_x2F__x3C_Path_x3E__x5F_9"  width="9.4" height="4.9" y="-4.9" transform="matrix(1 0 0 -1 10.8999 16.8501)" style="overflow:visible;enable-background:new    ;"/>
	
		<use xlink:href="#FlashAICB_x2F_buildings_x2F__x3C_Path_x3E__x5F_8"  width="10.9" height="5.75" y="-5.75" transform="matrix(1 0 0 -1 10.5 10.75)" style="overflow:visible;enable-background:new    ;"/>
	
		<use xlink:href="#FlashAICB_x2F_buildings_x2F__x3C_Path_x3E__x5F_7"  width="4.45" height="9.95" y="-9.95" transform="matrix(1 0 0 -1 20.4004 0)" style="overflow:visible;enable-background:new    ;"/>
	
		<use xlink:href="#FlashAICB_x2F_buildings_x2F__x3C_Path_x3E__x5F_6"  width="3.6" height="9.6" y="-9.6" transform="matrix(1 0 0 -1 28.0498 26.0996)" style="overflow:visible;enable-background:new    ;"/>
	
		<use xlink:href="#FlashAICB_x2F_buildings_x2F__x3C_Path_x3E__x5F_5"  width="10" height="6.85" y="-6.85" transform="matrix(1 0 0 -1 21.5498 11.75)" style="overflow:visible;enable-background:new    ;"/>
	
		<use xlink:href="#FlashAICB_x2F_buildings_x2F__x3C_Path_x3E__x5F_4"  width="8.15" height="4.8" y="-4.8" transform="matrix(1 0 0 -1 19.6504 24.9502)" style="overflow:visible;opacity:0.5;enable-background:new    ;"/>
	
		<use xlink:href="#FlashAICB_x2F_buildings_x2F__x3C_Path_x3E__x5F_3"  width="14.85" height="4.4" y="-4.4" transform="matrix(1 0 0 -1 16.2998 7.5)" style="overflow:visible;opacity:0.5;enable-background:new    ;"/>
	
		<use xlink:href="#FlashAICB_x2F_buildings_x2F__x3C_Path_x3E__x5F_2"  width="2.5" height="8.15" y="-8.15" transform="matrix(1 0 0 -1 24.5498 1.4502)" style="overflow:visible;opacity:0.75;enable-background:new    ;"/>
	
		<use xlink:href="#FlashAICB_x2F_buildings_x2F__x3C_Path_x3E__x5F_1"  width="7.7" height="7.15" y="-7.15" transform="matrix(1 0 0 -1 21.5498 17.2002)" style="overflow:visible;opacity:0.5;enable-background:new    ;"/>
	
		<use xlink:href="#FlashAICB_x2F_buildings_x2F__x3C_Path_x3E_"  width="5.2" height="8.15" y="-8.15" transform="matrix(1 0 0 -1 19.4502 31)" style="overflow:visible;enable-background:new    ;"/>
</g>
</svg>
