<?xml version="1.0" encoding="iso-8859-1"?>
<!-- Generator: Adobe Illustrator 15.1.0, SVG Export Plug-In . SVG Version: 6.00 Build 0)  -->
<!DOCTYPE svg PUBLIC "-//W3C//DTD SVG 1.1//EN" "http://www.w3.org/Graphics/SVG/1.1/DTD/svg11.dtd">
<svg version="1.1" id="buildings" xmlns="http://www.w3.org/2000/svg" xmlns:xlink="http://www.w3.org/1999/xlink" x="0px" y="0px"
	 width="32.55px" height="34.95px" viewBox="0 0 32.55 34.95" style="enable-background:new 0 0 32.55 34.95;" xml:space="preserve"
	>
<symbol  id="FlashAICB_x2F_buildings_x2F__x3C_Path_x3E_" viewBox="0 -2.55 7.7 2.55">
	<g id="Layer_1_11_">
		<polygon style="fill-rule:evenodd;clip-rule:evenodd;fill:#787B68;" points="7.5,-2.1 7.7,-2.55 0,0 		"/>
	</g>
</symbol>
<symbol  id="FlashAICB_x2F_buildings_x2F__x3C_Path_x3E__x5F_1" viewBox="0 -4.7 5.8 4.7">
	<g id="Layer_1_10_">
		<polygon style="fill-rule:evenodd;clip-rule:evenodd;fill:#787B68;" points="5.8,-4.25 5.55,-4.7 0,0 		"/>
	</g>
</symbol>
<symbol  id="FlashAICB_x2F_buildings_x2F__x3C_Path_x3E__x5F_10" viewBox="0 -3.75 19.55 3.75">
	<g id="Layer_1_2_">
		<polygon style="fill-rule:evenodd;clip-rule:evenodd;fill:#36262C;" points="14.9,0 19.55,-1.75 16.25,-2.1 14.3,-2.95 10.3,-2.7 
			7.75,-3.6 4.65,-3 2.15,-3.75 0,-3.5 2.05,-0.5 		"/>
	</g>
</symbol>
<symbol  id="FlashAICB_x2F_buildings_x2F__x3C_Path_x3E__x5F_2" viewBox="0 -8.05 7.6 8.05">
	<g id="Layer_1_9_">
		<polygon style="fill-rule:evenodd;clip-rule:evenodd;fill:#787B68;" points="7.6,-6.8 6.7,-6.85 7.3,-8.05 0,0 		"/>
	</g>
</symbol>
<symbol  id="FlashAICB_x2F_buildings_x2F__x3C_Path_x3E__x5F_3" viewBox="0 -15.3 7.6 15.3">
	<g id="Layer_1_8_">
		<polygon style="fill-rule:evenodd;clip-rule:evenodd;fill:#787B68;" points="7.6,-15.3 6.15,-14.1 5.95,-14.8 0,0 		"/>
	</g>
</symbol>
<symbol  id="FlashAICB_x2F_buildings_x2F__x3C_Path_x3E__x5F_4" viewBox="0 -16.05 4.9 16.05">
	<g id="Layer_1_7_">
		<polygon style="fill-rule:evenodd;clip-rule:evenodd;fill:#787B68;" points="4.2,-16.05 0,0 4.9,-15.9 4.45,-15.65 		"/>
	</g>
</symbol>
<symbol  id="FlashAICB_x2F_buildings_x2F__x3C_Path_x3E__x5F_5" viewBox="0 -9.1 1.05 9.1">
	<g id="Layer_1_6_">
		<polygon style="fill-rule:evenodd;clip-rule:evenodd;fill:#787B68;" points="0,-8.15 1.05,0 0.95,-9.1 0.5,-8.1 		"/>
	</g>
</symbol>
<symbol  id="FlashAICB_x2F_buildings_x2F__x3C_Path_x3E__x5F_6" viewBox="0 -25.4 9.2 25.4">
	<g id="Layer_1_5_">
		<polygon style="fill-rule:evenodd;clip-rule:evenodd;fill:#787B68;" points="0,-25.4 9.2,0 1.15,-24.95 		"/>
	</g>
</symbol>
<symbol  id="FlashAICB_x2F_buildings_x2F__x3C_Path_x3E__x5F_7" viewBox="0 -15.05 4.95 15.05">
	<g id="Layer_1_4_">
		<polygon style="fill-rule:evenodd;clip-rule:evenodd;fill:#787B68;" points="0,-15.05 4.95,0 1,-14.25 0.8,-13.65 		"/>
	</g>
</symbol>
<symbol  id="FlashAICB_x2F_buildings_x2F__x3C_Path_x3E__x5F_8" viewBox="0 -8.9 6.65 8.9">
	<g id="Layer_1_3_">
		<polygon style="fill-rule:evenodd;clip-rule:evenodd;fill:#787B68;" points="0.7,-8.9 0.8,-8.2 0,-8.65 6.65,0 		"/>
	</g>
</symbol>
<g>
	
		<use xlink:href="#FlashAICB_x2F_buildings_x2F__x3C_Path_x3E__x5F_10"  width="19.55" height="3.75" y="-3.75" transform="matrix(1 0 0 -1 7.8999 31.2002)" style="overflow:visible;opacity:0.5;enable-background:new    ;"/>
	<polygon style="fill-rule:evenodd;clip-rule:evenodd;fill:#735E55;" points="25.6,32.9 23.5,32.7 21.75,33.75 17.75,32.95 
		15.5,34.2 12.5,33.25 9.75,34.5 0,28.7 8.35,31 3.6,25.45 10.55,30.6 3.35,19 11.15,25.8 6.25,9.45 15.55,27.8 10.95,7.45 
		17.65,28.2 19.65,18.15 19.5,28.6 31.05,0 21.9,28.8 29.6,12.5 24.85,30.2 32.55,20.1 	"/>
	
		<use xlink:href="#FlashAICB_x2F_buildings_x2F__x3C_Path_x3E__x5F_8"  width="6.65" height="8.9" y="-8.9" transform="matrix(1 0 0 -1 24.4502 22.3496)" style="overflow:visible;opacity:0.5;enable-background:new    ;"/>
	
		<use xlink:href="#FlashAICB_x2F_buildings_x2F__x3C_Path_x3E__x5F_7"  width="4.95" height="15.05" y="-15.05" transform="matrix(1 0 0 -1 23.8496 14.7002)" style="overflow:visible;opacity:0.5;enable-background:new    ;"/>
	
		<use xlink:href="#FlashAICB_x2F_buildings_x2F__x3C_Path_x3E__x5F_6"  width="9.2" height="25.4" y="-25.4" transform="matrix(1 0 0 -1 20.4004 4.1001)" style="overflow:visible;opacity:0.5;enable-background:new    ;"/>
	
		<use xlink:href="#FlashAICB_x2F_buildings_x2F__x3C_Path_x3E__x5F_5"  width="1.05" height="9.1" y="-9.1" transform="matrix(1 0 0 -1 18.4004 20.5498)" style="overflow:visible;opacity:0.5;enable-background:new    ;"/>
	
		<use xlink:href="#FlashAICB_x2F_buildings_x2F__x3C_Path_x3E__x5F_4"  width="4.9" height="16.05" y="-16.05" transform="matrix(1 0 0 -1 12.6001 13.0498)" style="overflow:visible;opacity:0.5;enable-background:new    ;"/>
	
		<use xlink:href="#FlashAICB_x2F_buildings_x2F__x3C_Path_x3E__x5F_3"  width="7.6" height="15.3" y="-15.3" transform="matrix(1 0 0 -1 7.7998 12.8501)" style="overflow:visible;opacity:0.5;enable-background:new    ;"/>
	
		<use xlink:href="#FlashAICB_x2F_buildings_x2F__x3C_Path_x3E__x5F_2"  width="7.6" height="8.05" y="-8.05" transform="matrix(1 0 0 -1 4.25 19.9004)" style="overflow:visible;opacity:0.5;enable-background:new    ;"/>
	
		<use xlink:href="#FlashAICB_x2F_buildings_x2F__x3C_Path_x3E__x5F_1"  width="5.8" height="4.7" y="-4.7" transform="matrix(1 0 0 -1 4.8501 26.5498)" style="overflow:visible;opacity:0.5;enable-background:new    ;"/>
	
		<use xlink:href="#FlashAICB_x2F_buildings_x2F__x3C_Path_x3E_"  width="7.7" height="2.55" y="-2.55" transform="matrix(1 0 0 -1 0.8999 29.1504)" style="overflow:visible;opacity:0.5;enable-background:new    ;"/>
</g>
</svg>
