<?xml version="1.0" encoding="iso-8859-1"?>
<!-- Generator: Adobe Illustrator 15.1.0, SVG Export Plug-In . SVG Version: 6.00 Build 0)  -->
<!DOCTYPE svg PUBLIC "-//W3C//DTD SVG 1.1//EN" "http://www.w3.org/Graphics/SVG/1.1/DTD/svg11.dtd">
<svg version="1.1" id="buildings" xmlns="http://www.w3.org/2000/svg" xmlns:xlink="http://www.w3.org/1999/xlink" x="0px" y="0px"
	 width="20.3px" height="20.95px" viewBox="0 0 20.3 20.95" style="enable-background:new 0 0 20.3 20.95;" xml:space="preserve">
<symbol  id="FlashAICB_x2F_buildings_x2F__x3C_Path_x3E_" viewBox="0 -0.25 3.95 0.25">
	<g id="Layer_1_13_">
		<polygon style="fill-rule:evenodd;clip-rule:evenodd;fill:#787B68;" points="3.9,0 3.95,-0.25 0,0 		"/>
	</g>
</symbol>
<symbol  id="FlashAICB_x2F_buildings_x2F__x3C_Path_x3E__x5F_1" viewBox="0 -3.45 3.55 3.45">
	<g id="Layer_1_12_">
		<polygon style="fill-rule:evenodd;clip-rule:evenodd;fill:#787B68;" points="3.55,-3.45 0,0 2.45,-1.75 		"/>
	</g>
</symbol>
<symbol  id="FlashAICB_x2F_buildings_x2F__x3C_Path_x3E__x5F_10" viewBox="0 -2.7 2.9 2.7">
	<g id="Layer_1_3_">
		<polygon style="fill-rule:evenodd;clip-rule:evenodd;fill:#787B68;" points="0,-2.45 2.9,0 0.3,-2.7 		"/>
	</g>
</symbol>
<symbol  id="FlashAICB_x2F_buildings_x2F__x3C_Path_x3E__x5F_12" viewBox="0 -2.8 13.95 2.8">
	<g id="Layer_1_2_">
		<polygon style="fill-rule:evenodd;clip-rule:evenodd;fill:#36262C;" points="10.2,0 13.95,-2.35 10.65,-2.3 9,-2.5 7.35,-2.1 
			4.6,-2.8 2.75,-1.55 0,-1.9 2,-0.4 		"/>
	</g>
</symbol>
<symbol  id="FlashAICB_x2F_buildings_x2F__x3C_Path_x3E__x5F_2" viewBox="0 -10.2 7.3 10.2">
	<g id="Layer_1_11_">
		<polygon style="fill-rule:evenodd;clip-rule:evenodd;fill:#787B68;" points="7.3,-10.2 0,0 7.1,-8.7 6.65,-8.6 		"/>
	</g>
</symbol>
<symbol  id="FlashAICB_x2F_buildings_x2F__x3C_Path_x3E__x5F_3" viewBox="0 -12.35 4.4 12.35">
	<g id="Layer_1_10_">
		<polygon style="fill-rule:evenodd;clip-rule:evenodd;fill:#787B68;" points="4.1,-12.35 0,0 4.4,-11.6 4,-10.9 		"/>
	</g>
</symbol>
<symbol  id="FlashAICB_x2F_buildings_x2F__x3C_Path_x3E__x5F_4" viewBox="0 -10.4 1.85 10.4">
	<g id="Layer_1_9_">
		<polygon style="fill-rule:evenodd;clip-rule:evenodd;fill:#787B68;" points="1.2,-9.85 0,0 1.85,-10.4 1.4,-9.65 		"/>
	</g>
</symbol>
<symbol  id="FlashAICB_x2F_buildings_x2F__x3C_Path_x3E__x5F_5" viewBox="0 -7.9 0.4 7.9">
	<g id="Layer_1_8_">
		<polygon style="fill-rule:evenodd;clip-rule:evenodd;fill:#787B68;" points="0,-7.9 0.35,0 0.4,-6.5 		"/>
	</g>
</symbol>
<symbol  id="FlashAICB_x2F_buildings_x2F__x3C_Path_x3E__x5F_6" viewBox="0 -11.9 2.25 11.9">
	<g id="Layer_1_7_">
		<polygon style="fill-rule:evenodd;clip-rule:evenodd;fill:#787B68;" points="0,-11.9 2.25,0 0.4,-11.3 		"/>
	</g>
</symbol>
<symbol  id="FlashAICB_x2F_buildings_x2F__x3C_Path_x3E__x5F_7" viewBox="0 -6.25 1.5 6.25">
	<g id="Layer_1_6_">
		<polygon style="fill-rule:evenodd;clip-rule:evenodd;fill:#787B68;" points="0,-6.25 1.3,0 1.5,-5 1.05,-4.7 		"/>
	</g>
</symbol>
<symbol  id="FlashAICB_x2F_buildings_x2F__x3C_Path_x3E__x5F_8" viewBox="0 -9.4 2.3 9.4">
	<g id="Layer_1_5_">
		<polygon style="fill-rule:evenodd;clip-rule:evenodd;fill:#787B68;" points="0,-9.4 2.3,0 0.55,-9.1 		"/>
	</g>
</symbol>
<symbol  id="FlashAICB_x2F_buildings_x2F__x3C_Path_x3E__x5F_9" viewBox="0 -5.55 2.6 5.55">
	<g id="Layer_1_4_">
		<polygon style="fill-rule:evenodd;clip-rule:evenodd;fill:#787B68;" points="0,-5.3 2.6,0 0.55,-5.55 0.45,-5.15 		"/>
	</g>
</symbol>
<g>
	
		<use xlink:href="#FlashAICB_x2F_buildings_x2F__x3C_Path_x3E__x5F_12"  width="13.95" height="2.8" y="-2.8" transform="matrix(1 0 0 -1 5.25 18.1504)" style="overflow:visible;opacity:0.5;enable-background:new    ;"/>
	<polygon style="fill-rule:evenodd;clip-rule:evenodd;fill:#A48476;" points="7.3,18.2 1.85,16.65 6.8,16.55 3.9,13.2 7.25,15.55 
		0,4.7 8.25,14.7 3.95,0 9.8,14.8 9.8,6.2 11.5,16.4 13,5.2 13,13.95 15.35,4.05 13.45,16.4 15.55,10.15 15.8,15.15 18.9,4.7 
		16.7,16.7 19.9,11.4 17.6,18.25 20.3,16.5 17.15,19.95 15.95,19.3 14.2,20.05 12.35,19.75 10.1,20.45 8.25,19.15 6.55,19.65 	"/>
	
		<use xlink:href="#FlashAICB_x2F_buildings_x2F__x3C_Path_x3E__x5F_10"  width="2.9" height="2.7" y="-2.7" transform="matrix(1 0 0 -1 16.8496 17)" style="overflow:visible;opacity:0.5;enable-background:new    ;"/>
	
		<use xlink:href="#FlashAICB_x2F_buildings_x2F__x3C_Path_x3E__x5F_9"  width="2.6" height="5.55" y="-5.55" transform="matrix(1 0 0 -1 16.7002 12.8496)" style="overflow:visible;opacity:0.5;enable-background:new    ;"/>
	
		<use xlink:href="#FlashAICB_x2F_buildings_x2F__x3C_Path_x3E__x5F_8"  width="2.3" height="9.4" y="-9.4" transform="matrix(1 0 0 -1 15.9502 7.6001)" style="overflow:visible;opacity:0.5;enable-background:new    ;"/>
	
		<use xlink:href="#FlashAICB_x2F_buildings_x2F__x3C_Path_x3E__x5F_7"  width="1.5" height="6.25" y="-6.25" transform="matrix(1 0 0 -1 14.2002 10.8501)" style="overflow:visible;opacity:0.5;enable-background:new    ;"/>
	
		<use xlink:href="#FlashAICB_x2F_buildings_x2F__x3C_Path_x3E__x5F_6"  width="2.25" height="11.9" y="-11.9" transform="matrix(1 0 0 -1 12.7002 6.0498)" style="overflow:visible;opacity:0.5;enable-background:new    ;"/>
	
		<use xlink:href="#FlashAICB_x2F_buildings_x2F__x3C_Path_x3E__x5F_5"  width="0.4" height="7.9" y="-7.9" transform="matrix(1 0 0 -1 12.5 8.1499)" style="overflow:visible;opacity:0.5;enable-background:new    ;"/>
	
		<use xlink:href="#FlashAICB_x2F_buildings_x2F__x3C_Path_x3E__x5F_4"  width="1.85" height="10.4" y="-10.4" transform="matrix(1 0 0 -1 9.9502 8.1001)" style="overflow:visible;opacity:0.5;enable-background:new    ;"/>
	
		<use xlink:href="#FlashAICB_x2F_buildings_x2F__x3C_Path_x3E__x5F_3"  width="4.4" height="12.35" y="-12.35" transform="matrix(1 0 0 -1 5.3501 3.8501)" style="overflow:visible;opacity:0.5;enable-background:new    ;"/>
	
		<use xlink:href="#FlashAICB_x2F_buildings_x2F__x3C_Path_x3E__x5F_2"  width="7.3" height="10.2" y="-10.2" transform="matrix(1 0 0 -1 1.5498 6.75)" style="overflow:visible;opacity:0.5;enable-background:new    ;"/>
	
		<use xlink:href="#FlashAICB_x2F_buildings_x2F__x3C_Path_x3E__x5F_1"  width="3.55" height="3.45" y="-3.45" transform="matrix(1 0 0 -1 4.9502 14.0996)" style="overflow:visible;opacity:0.5;enable-background:new    ;"/>
	
		<use xlink:href="#FlashAICB_x2F_buildings_x2F__x3C_Path_x3E_"  width="3.95" height="0.25" y="-0.25" transform="matrix(1 0 0 -1 2.8999 16.75)" style="overflow:visible;opacity:0.5;enable-background:new    ;"/>
</g>
</svg>
