<?xml version="1.0" encoding="iso-8859-1"?>
<!-- Generator: Adobe Illustrator 15.1.0, SVG Export Plug-In . SVG Version: 6.00 Build 0)  -->
<!DOCTYPE svg PUBLIC "-//W3C//DTD SVG 1.1//EN" "http://www.w3.org/Graphics/SVG/1.1/DTD/svg11.dtd">
<svg version="1.1" id="buildings" xmlns="http://www.w3.org/2000/svg" xmlns:xlink="http://www.w3.org/1999/xlink" x="0px" y="0px"
	 width="31.25px" height="20.15px" viewBox="0 0 31.25 20.15" style="enable-background:new 0 0 31.25 20.15;" xml:space="preserve"
	>
<symbol  id="FlashAICB_x2F_buildings_x2F__x3C_Path_x3E_" viewBox="0 -4.4 9.5 4.4">
	<g id="Layer_1_10_">
		<polygon style="fill-rule:evenodd;clip-rule:evenodd;fill:#A48476;" points="0.05,-3.7 9.5,0 0,-4.4 0.7,-3.9 		"/>
	</g>
</symbol>
<symbol  id="FlashAICB_x2F_buildings_x2F__x3C_Path_x3E__x5F_1" viewBox="0 -4.15 6.5 4.15">
	<g id="Layer_1_9_">
		<polygon style="fill-rule:evenodd;clip-rule:evenodd;fill:#A48476;" points="0.4,-4.15 0,-3.95 6.5,0 		"/>
	</g>
</symbol>
<symbol  id="FlashAICB_x2F_buildings_x2F__x3C_Path_x3E__x5F_2" viewBox="0 -11.95 7.5 11.95">
	<g id="Layer_1_8_">
		<path style="fill-rule:evenodd;clip-rule:evenodd;fill:#A48476;" d="M0-11.85C0.8-8.517,1.8-6,3-4.3C4.233-2.633,5.733-1.2,7.5,0
			C4.567-2.8,2.8-4.867,2.2-6.2c-0.633-1.367-1.1-3.283-1.4-5.75L0-11.85z"/>
	</g>
</symbol>
<symbol  id="FlashAICB_x2F_buildings_x2F__x3C_Path_x3E__x5F_3" viewBox="0 -12.85 2.45 12.85">
	<g id="Layer_1_7_">
		<polygon style="fill-rule:evenodd;clip-rule:evenodd;fill:#A48476;" points="0,-11.05 2.45,0 0.6,-12.85 0.6,-10.5 		"/>
	</g>
</symbol>
<symbol  id="FlashAICB_x2F_buildings_x2F__x3C_Path_x3E__x5F_4" viewBox="0 -12.9 1.6 12.9">
	<g id="Layer_1_6_">
		<polygon style="fill-rule:evenodd;clip-rule:evenodd;fill:#A48476;" points="0,-12.15 1.6,0 0.8,-12.9 		"/>
	</g>
</symbol>
<symbol  id="FlashAICB_x2F_buildings_x2F__x3C_Path_x3E__x5F_5" viewBox="0 -9.8 1.25 9.8">
	<g id="Layer_1_5_">
		<polygon style="fill-rule:evenodd;clip-rule:evenodd;fill:#A48476;" points="0.35,-8.5 0,0 1.25,-9.8 0.7,-8.15 		"/>
	</g>
</symbol>
<symbol  id="FlashAICB_x2F_buildings_x2F__x3C_Path_x3E__x5F_6" viewBox="0 -8.95 3.1 8.95">
	<g id="Layer_1_4_">
		<polygon style="fill-rule:evenodd;clip-rule:evenodd;fill:#A48476;" points="2.35,-8.15 0,0 3.1,-8.95 		"/>
	</g>
</symbol>
<symbol  id="FlashAICB_x2F_buildings_x2F__x3C_Path_x3E__x5F_7" viewBox="0 -7.9 9.1 7.9">
	<g id="Layer_1_3_">
		<path style="fill-rule:evenodd;clip-rule:evenodd;fill:#A48476;" d="M7.4-7.9C5.9-5.8,4.817-4.4,4.15-3.7
			C3.517-3.033,2.133-1.8,0,0c2.767-2.033,4.617-3.6,5.55-4.7c0.733-0.867,1.917-1.867,3.55-3L7.85-7.35L7.4-7.9z"/>
	</g>
</symbol>
<symbol  id="FlashAICB_x2F_buildings_x2F__x3C_Path_x3E__x5F_9" viewBox="0 -3.15 19.8 3.15">
	<g id="Layer_1_2_">
		<polygon style="fill-rule:evenodd;clip-rule:evenodd;fill:#36262C;" points="14.4,-0.1 19.8,-2.25 17.8,-3 14.5,-2.25 11,-3.15 
			8.3,-2.5 4.9,-3.1 0,-2.6 5.25,0 		"/>
	</g>
</symbol>
<g>
	
		<use xlink:href="#FlashAICB_x2F_buildings_x2F__x3C_Path_x3E__x5F_9"  width="19.8" height="3.15" y="-3.15" transform="matrix(1 0 0 -1 4.25 17)" style="overflow:visible;opacity:0.5;enable-background:new    ;"/>
	<path style="fill-rule:evenodd;clip-rule:evenodd;fill:#735E55;" d="M3.5,9.75c2.4,1.8,3.833,3.017,4.3,3.65
		c0.767,1,1.767,1.866,3,2.6L8.75,5.2l3.9,11l0.55-9.9l1.1,8.4l3-14.7l-0.75,13.75l3.75-10.4l-1.7,11.9l1.801-3.3
		c1.366-2.467,2.5-4.284,3.399-5.45c1.5-1.867,3.684-3.533,6.55-5c-0.767,0.6-1.633,1.316-2.6,2.15
		c-1.867,1.7-3.184,3.217-3.95,4.55c-0.767,1.3-1.333,2.683-1.7,4.149c-0.199,0.733-0.316,1.334-0.35,1.801l8.2-5.05l-7.45,6.5
		l8.75-3.35l-8,6.35l-1.65,0.95l-3-0.95l-3.55,0.95l-2.4-0.6l-3.7,0.6l-3-0.2c0.267-0.533,0.467-1.149,0.6-1.85
		c0.3-1.434,0.217-2.617-0.25-3.55c-0.467-0.934-1.65-2.333-3.55-4.2L0,7.25L3.5,9.75z"/>
	
		<use xlink:href="#FlashAICB_x2F_buildings_x2F__x3C_Path_x3E__x5F_7"  width="9.1" height="7.9" y="-7.9" transform="matrix(1 0 0 -1 2.5 9.2002)" style="overflow:visible;opacity:0.5;enable-background:new    ;"/>
	
		<use xlink:href="#FlashAICB_x2F_buildings_x2F__x3C_Path_x3E__x5F_6"  width="3.1" height="8.95" y="-8.95" transform="matrix(1 0 0 -1 9.5498 7.75)" style="overflow:visible;opacity:0.5;enable-background:new    ;"/>
	
		<use xlink:href="#FlashAICB_x2F_buildings_x2F__x3C_Path_x3E__x5F_5"  width="1.25" height="9.8" y="-9.8" transform="matrix(1 0 0 -1 13.2998 8.2002)" style="overflow:visible;opacity:0.5;enable-background:new    ;"/>
	
		<use xlink:href="#FlashAICB_x2F_buildings_x2F__x3C_Path_x3E__x5F_4"  width="1.6" height="12.9" y="-12.9" transform="matrix(1 0 0 -1 15.4502 2.25)" style="overflow:visible;opacity:0.5;enable-background:new    ;"/>
	
		<use xlink:href="#FlashAICB_x2F_buildings_x2F__x3C_Path_x3E__x5F_3"  width="2.45" height="12.85" y="-12.85" transform="matrix(1 0 0 -1 17.4004 5.1001)" style="overflow:visible;opacity:0.5;enable-background:new    ;"/>
	
		<use xlink:href="#FlashAICB_x2F_buildings_x2F__x3C_Path_x3E__x5F_2"  width="7.5" height="11.95" y="-11.95" transform="matrix(1 0 0 -1 20.75 2.9502)" style="overflow:visible;opacity:0.5;enable-background:new    ;"/>
	
		<use xlink:href="#FlashAICB_x2F_buildings_x2F__x3C_Path_x3E__x5F_1"  width="6.5" height="4.15" y="-4.15" transform="matrix(1 0 0 -1 22.0996 10.1499)" style="overflow:visible;opacity:0.5;enable-background:new    ;"/>
	
		<use xlink:href="#FlashAICB_x2F_buildings_x2F__x3C_Path_x3E_"  width="9.5" height="4.4" y="-4.4" transform="matrix(1 0 0 -1 20.7002 12.8496)" style="overflow:visible;opacity:0.5;enable-background:new    ;"/>
</g>
</svg>
