<?xml version="1.0" encoding="iso-8859-1"?>
<!-- Generator: Adobe Illustrator 15.1.0, SVG Export Plug-In . SVG Version: 6.00 Build 0)  -->
<!DOCTYPE svg PUBLIC "-//W3C//DTD SVG 1.1//EN" "http://www.w3.org/Graphics/SVG/1.1/DTD/svg11.dtd">
<svg version="1.1" id="buildings" xmlns="http://www.w3.org/2000/svg" xmlns:xlink="http://www.w3.org/1999/xlink" x="0px" y="0px"
	 width="60.35px" height="40.55px" viewBox="0 0 60.35 40.55" style="enable-background:new 0 0 60.35 40.55;" xml:space="preserve"
	>
<symbol  id="FlashAICB_x2F_buildings_x2F__x3C_Path_x3E_" viewBox="0 -39.25 41.5 39.25">
	<g id="Layer_1_3_">
		<path style="fill-rule:evenodd;clip-rule:evenodd;fill:#8BA8A2;" d="M26.5-15.75c3.167-1,5.917-1.417,8.25-1.25
			c-0.667-0.367-1.35-0.9-2.05-1.6c-1.367-1.367-2.1-2.833-2.2-4.4s0.333-2.783,1.3-3.65c0.467-0.434,0.95-0.717,1.45-0.85v-4
			L37-34.35c2.6-2.133,4.1-3.767,4.5-4.9l-9,1.75L22.75-39l-3,3c-3.667,0.667-6.5,1.25-8.5,1.75S5.5-33.583,0-33.75
			c6.333,5.167,10.083,8.667,11.25,10.5s2,4.833,2.5,9l4.75,2.5L17.5,0c0.7-2.367,1.6-4.8,2.7-7.3
			C22.433-12.3,24.533-15.117,26.5-15.75z"/>
	</g>
</symbol>
<symbol  id="FlashAICB_x2F_buildings_x2F__x3C_Path_x3E__x5F_0" viewBox="0 -24.75 25.5 24.75">
	<g id="Layer_1_4_">
		<path style="fill-rule:evenodd;clip-rule:evenodd;fill:#8BA8A2;" d="M22.25-13c0.833-2.167,1.917-4,3.25-5.5l-2.75-6.25l-3,3
			c-3.667,0.667-6.5,1.25-8.5,1.75S5.5-19.333,0-19.5C6.333-14.333,10.083-10.833,11.25-9s2,4.833,2.5,9l9.75-5.5
			c-0.4-0.7-0.767-1.55-1.1-2.55C21.767-9.983,21.717-11.633,22.25-13z"/>
	</g>
</symbol>
<symbol  id="FlashAICB_x2F_buildings_x2F__x3C_Path_x3E__x5F_1" viewBox="0 -19.121 27.85 19.121">
	<g id="Layer_1_7_">
		<path style="fill-rule:evenodd;clip-rule:evenodd;fill:#A1C0B7;" d="M27.85-17.6c-2.733-1.3-4.934-1.767-6.6-1.4
			c-1.367,0.3-2.433,0.733-3.2,1.3l-0.8,0.7c-2.333-0.167-5.083,0.25-8.25,1.25C7.033-15.117,4.933-12.3,2.7-7.3
			C1.6-4.8,0.7-2.367,0,0c0.933-1.133,1.95-2.267,3.05-3.4c2.2-2.233,3.767-3.35,4.7-3.35S9.467-6.3,10.1-5.4
			c0.3,0.467,0.517,0.933,0.65,1.4l0.65-2.05c0.7-1.434,1.733-2.25,3.1-2.45s2.683,0.033,3.95,0.7
			c0.667,0.333,1.183,0.683,1.55,1.05l1-5.2c0.933-3.566,2.017-5.5,3.25-5.8C25.517-18.083,26.717-18.033,27.85-17.6z"/>
	</g>
</symbol>
<symbol  id="FlashAICB_x2F_buildings_x2F__x3C_Path_x3E__x5F_2" viewBox="0 -4 6.35 4">
	<g id="Layer_1_6_">
		<polygon style="fill-rule:evenodd;clip-rule:evenodd;fill:#A1C0B7;" points="0,0 6.35,-0.9 0,-4 		"/>
	</g>
</symbol>
<symbol  id="FlashAICB_x2F_buildings_x2F__x3C_Path_x3E__x5F_3" viewBox="0.028 -8.2 16.022 8.2">
	<g id="Layer_1_5_">
		<path style="fill-rule:evenodd;clip-rule:evenodd;fill:#A1C0B7;" d="M14.9-0.6c0.5,0.167,0.883,0.367,1.15,0.6
			c-0.8-0.733-1.667-1.617-2.6-2.65c-1.867-2.1-3.1-3.883-3.7-5.35c-3,1.167-4.817,1.75-5.45,1.75c-0.833,0-2.167-0.65-4-1.95
			C0.067-7.467-0.017-6.733,0.05-6c0.1,1.567,0.833,3.033,2.2,4.4C2.95-0.9,3.633-0.367,4.3,0l0.8-0.7c0.767-0.566,1.833-1,3.2-1.3
			C9.967-2.367,12.167-1.9,14.9-0.6z"/>
	</g>
</symbol>
<symbol  id="FlashAICB_x2F_buildings_x2F__x3C_Path_x3E__x5F_4" viewBox="0 -14.85 15.5 14.85">
	<g id="Layer_1_8_">
		<path style="fill-rule:evenodd;clip-rule:evenodd;fill:#8BA8A2;" d="M12.6-5.6l2.9-2.65v-6.6C11.833-14.183,9-13.6,7-13.1
			c-1.133,0.3-3.467,0.483-7,0.55c2.1,0.667,3.6,1.483,4.5,2.45C5.9-8.533,7.517-5.833,9.35-2l0.4-4.5l3.5,6.5L12.6-5.6z"/>
	</g>
</symbol>
<symbol  id="FlashAICB_x2F_buildings_x2F__x3C_Path_x3E__x5F_5" viewBox="0 -11.4 60.35 11.4">
	<g id="Layer_1_2_">
		<path style="fill-rule:evenodd;clip-rule:evenodd;fill:#36262C;" d="M44.7-0.05c0.267-0.133,2.95-0.55,8.05-1.25
			c2.567-0.333,5.1-0.65,7.6-0.95l-12-8.8l-9,1.5l-10-1.85l-4,3.35L15.7-5.9L0-5.75l11.35,4.5C33.117-0.25,44.233,0.15,44.7-0.05z"
			/>
	</g>
</symbol>
<symbol  id="FlashAICB_x2F_buildings_x2F__x3C_Path_x3E__x5F_6" viewBox="0 -22.75 17.6 22.75">
	<g id="Layer_1_9_">
		<path style="fill-rule:evenodd;clip-rule:evenodd;fill:#A1C0B7;" d="M8-11c0.1,2.067-0.033,3.667-0.4,4.8L7-5.1L0,0l9-4.75
			c-0.167-1.733-0.217-3.433-0.15-5.1c0.1-1.667,0.933-4.083,2.5-7.25l6.25-5.25l-6.5,3.25l-2.6-3.65l1.6,4.25
			c-0.333,1.267-0.7,2.267-1.1,3c-0.267,0.467-0.517,1.367-0.75,2.7L8-11z"/>
	</g>
</symbol>
<symbol  id="FlashAICB_x2F_buildings_x2F__x3C_Path_x3E__x5F_7" viewBox="0 -6.75 10.7 6.75">
	<g id="Layer_1_10_">
		<path style="fill-rule:evenodd;clip-rule:evenodd;fill:#A1C0B7;" d="M4,0c1.9-0.733,4.1-1.35,6.6-1.85h0.1l-6.5-4.9
			c-0.367,1.2-0.817,2.167-1.35,2.9C2.117-2.85,1.167-1.933,0-1.1c3-1.267,4.75-1.85,5.25-1.75C5.75-2.783,5.333-1.833,4,0z"/>
	</g>
</symbol>
<g>
	
		<use xlink:href="#FlashAICB_x2F_buildings_x2F__x3C_Path_x3E__x5F_5"  width="60.35" height="11.4" y="-11.4" transform="matrix(1 0 0 -1 0 29.1504)" style="overflow:visible;opacity:0.5;enable-background:new    ;"/>
	
		<linearGradient id="SVGID_1_" gradientUnits="userSpaceOnUse" x1="-32.3999" y1="-34.9453" x2="-1.3756" y2="-34.9453" gradientTransform="matrix(-0.8695 0.494 -0.494 -0.8695 6.959438e-004 -1.367927e-004)">
		<stop  offset="0" style="stop-color:#C4D5D0"/>
		<stop  offset="1" style="stop-color:#71A697"/>
	</linearGradient>
	<path style="fill-rule:evenodd;clip-rule:evenodd;fill:url(#SVGID_1_);" d="M48.75,21.95c-2.566,3.5-2.917,5.767-1.05,6.8
		c1.866,1.033,4.183,1.85,6.95,2.45c1.366,0.3,2.55,0.483,3.55,0.55l-10,7.5l-9-1.75L29.45,39l-3-3c-3.667-0.667-6.5-1.25-8.5-1.75
		c-1.233-0.3-3.483-0.483-6.75-0.55l-4.5,0.05c6.333-5.167,10.083-8.667,11.25-10.5c1.167-1.833,2-4.833,2.5-9l4.75-2.5L24.2,0
		l3.05,3.4c2.2,2.233,3.767,3.35,4.7,3.35c0.933,0,1.716-0.45,2.35-1.35c0.3-0.466,0.517-0.933,0.65-1.4L35.6,6.05
		C36.3,7.483,37.333,8.3,38.7,8.5c1.366,0.2,2.683-0.033,3.95-0.7c0.666-0.333,1.183-0.683,1.55-1.05l1,5.2
		c0.933,3.566,2.017,5.5,3.25,5.8c1.267,0.3,2.433,0.267,3.5-0.1c0.524-0.164,0.933-0.373,1.225-0.625
		C51.521,18.546,50.047,20.188,48.75,21.95z"/>
	<g>
		
			<use xlink:href="#FlashAICB_x2F_buildings_x2F__x3C_Path_x3E_"  width="41.5" height="39.25" y="-39.25" transform="matrix(1 0 0 -1 6.7002 0)" style="overflow:visible;enable-background:new    ;"/>
	</g>
	<g>
		
			<use xlink:href="#FlashAICB_x2F_buildings_x2F__x3C_Path_x3E__x5F_0"  width="25.5" height="24.75" y="-24.75" transform="matrix(1 0 0 -1 6.7002 14.25)" style="overflow:visible;enable-background:new    ;"/>
	</g>
	
		<use xlink:href="#FlashAICB_x2F_buildings_x2F__x3C_Path_x3E__x5F_3"  width="16.022" height="8.2" x="0.028" y="-8.2" transform="matrix(1 0 0 -1 37.1504 17)" style="overflow:visible;enable-background:new    ;"/>
	
		<use xlink:href="#FlashAICB_x2F_buildings_x2F__x3C_Path_x3E__x5F_2"  width="6.35" height="4" y="-4" transform="matrix(1 0 0 -1 39.9502 27.5)" style="overflow:visible;opacity:0.5;enable-background:new    ;"/>
	
		<use xlink:href="#FlashAICB_x2F_buildings_x2F__x3C_Path_x3E__x5F_1"  width="27.85" height="19.121" y="-19.121" transform="matrix(1 0 0 -1 24.2002 0)" style="overflow:visible;opacity:0.75;enable-background:new    ;"/>
	<g>
		
			<use xlink:href="#FlashAICB_x2F_buildings_x2F__x3C_Path_x3E__x5F_4"  width="15.5" height="14.85" y="-14.85" transform="matrix(1 0 0 -1 10.9502 21.1504)" style="overflow:visible;enable-background:new    ;"/>
	</g>
	
		<use xlink:href="#FlashAICB_x2F_buildings_x2F__x3C_Path_x3E__x5F_6"  width="17.6" height="22.75" y="-22.75" transform="matrix(1 0 0 -1 24.7002 13.8999)" style="overflow:visible;enable-background:new    ;"/>
	<g>
		
			<use xlink:href="#FlashAICB_x2F_buildings_x2F__x3C_Path_x3E__x5F_7"  width="10.7" height="6.75" y="-6.75" transform="matrix(1 0 0 -1 45.4502 31.4004)" style="overflow:visible;opacity:0.5;enable-background:new    ;"/>
	</g>
</g>
</svg>
