<?xml version="1.0" encoding="iso-8859-1"?>
<!-- Generator: Adobe Illustrator 15.1.0, SVG Export Plug-In . SVG Version: 6.00 Build 0)  -->
<!DOCTYPE svg PUBLIC "-//W3C//DTD SVG 1.1//EN" "http://www.w3.org/Graphics/SVG/1.1/DTD/svg11.dtd">
<svg version="1.1" id="buildings" xmlns="http://www.w3.org/2000/svg" xmlns:xlink="http://www.w3.org/1999/xlink" x="0px" y="0px"
	 width="29.75px" height="31.15px" viewBox="0 0 29.75 31.15" style="enable-background:new 0 0 29.75 31.15;" xml:space="preserve"
	>
<symbol  id="FlashAICB_x2F_buildings_x2F__x3C_Path_x3E_" viewBox="0 -2.55 6.9 2.55">
	<g id="Layer_1_11_">
		<polygon style="fill-rule:evenodd;clip-rule:evenodd;fill:#787B68;" points="6.75,-2.1 6.9,-2.55 0,0 		"/>
	</g>
</symbol>
<symbol  id="FlashAICB_x2F_buildings_x2F__x3C_Path_x3E__x5F_1" viewBox="0 -4.4 5.1 4.4">
	<g id="Layer_1_10_">
		<polygon style="fill-rule:evenodd;clip-rule:evenodd;fill:#787B68;" points="5.1,-4 4.85,-4.4 0,0 		"/>
	</g>
</symbol>
<symbol  id="FlashAICB_x2F_buildings_x2F__x3C_Path_x3E__x5F_10" viewBox="0 -4 18.15 4">
	<g id="Layer_1_2_">
		<polygon style="fill-rule:evenodd;clip-rule:evenodd;fill:#36262C;" points="11.8,0 18.15,-3.05 15.7,-3.05 13.5,-3.6 10.6,-3.15 
			8.1,-3.85 4.85,-3.4 2.55,-4 0,-3.45 2.5,-2.25 		"/>
	</g>
</symbol>
<symbol  id="FlashAICB_x2F_buildings_x2F__x3C_Path_x3E__x5F_2" viewBox="0 -7.5 6.7 7.5">
	<g id="Layer_1_9_">
		<polygon style="fill-rule:evenodd;clip-rule:evenodd;fill:#787B68;" points="6.7,-6.35 5.9,-6.35 6.35,-7.5 0,0 		"/>
	</g>
</symbol>
<symbol  id="FlashAICB_x2F_buildings_x2F__x3C_Path_x3E__x5F_3" viewBox="0 -14.1 6.45 14.1">
	<g id="Layer_1_8_">
		<polygon style="fill-rule:evenodd;clip-rule:evenodd;fill:#787B68;" points="6.45,-14.1 5.15,-12.95 4.95,-13.6 0,0 		"/>
	</g>
</symbol>
<symbol  id="FlashAICB_x2F_buildings_x2F__x3C_Path_x3E__x5F_4" viewBox="0 -14.65 4 14.65">
	<g id="Layer_1_7_">
		<polygon style="fill-rule:evenodd;clip-rule:evenodd;fill:#787B68;" points="3.35,-14.65 0,0 4,-14.55 3.6,-14.3 		"/>
	</g>
</symbol>
<symbol  id="FlashAICB_x2F_buildings_x2F__x3C_Path_x3E__x5F_5" viewBox="0 -8.2 1.2 8.2">
	<g id="Layer_1_6_">
		<polygon style="fill-rule:evenodd;clip-rule:evenodd;fill:#787B68;" points="0,-7.3 1.2,0 0.9,-8.2 0.5,-7.3 		"/>
	</g>
</symbol>
<symbol  id="FlashAICB_x2F_buildings_x2F__x3C_Path_x3E__x5F_6" viewBox="0 -22.7 9.05 22.7">
	<g id="Layer_1_5_">
		<polygon style="fill-rule:evenodd;clip-rule:evenodd;fill:#787B68;" points="0,-22.7 9.05,0 1.05,-22.35 		"/>
	</g>
</symbol>
<symbol  id="FlashAICB_x2F_buildings_x2F__x3C_Path_x3E__x5F_7" viewBox="0 -13.5 5 13.5">
	<g id="Layer_1_4_">
		<polygon style="fill-rule:evenodd;clip-rule:evenodd;fill:#787B68;" points="0,-13.5 5,0 0.95,-12.8 0.8,-12.25 		"/>
	</g>
</symbol>
<symbol  id="FlashAICB_x2F_buildings_x2F__x3C_Path_x3E__x5F_8" viewBox="0 -7.85 6.25 7.85">
	<g id="Layer_1_3_">
		<polygon style="fill-rule:evenodd;clip-rule:evenodd;fill:#787B68;" points="0.6,-7.85 0.75,-7.25 0,-7.65 6.25,0 		"/>
	</g>
</symbol>
<g>
	
		<use xlink:href="#FlashAICB_x2F_buildings_x2F__x3C_Path_x3E__x5F_10"  width="18.15" height="4" y="-4" transform="matrix(1 0 0 -1 6.0498 27.1504)" style="overflow:visible;opacity:0.5;enable-background:new    ;"/>
	<polygon style="fill-rule:evenodd;clip-rule:evenodd;fill:#A48476;" points="3.35,16.4 10.25,22.8 6.25,7.85 14.1,24.75 
		10.55,6.15 16,25.15 18.1,16.1 17.7,25.55 29,0 19.85,25.8 27.3,11.3 22.5,27.2 29.75,18.25 23.1,29.6 21.15,29.4 19.55,30.3 
		15.95,29.5 13.9,30.55 11.2,29.6 8.7,30.6 0,25.1 7.55,27.4 3.35,22.25 9.55,27.15 	"/>
	
		<use xlink:href="#FlashAICB_x2F_buildings_x2F__x3C_Path_x3E__x5F_8"  width="6.25" height="7.85" y="-7.85" transform="matrix(1 0 0 -1 22.0996 20.25)" style="overflow:visible;opacity:0.5;enable-background:new    ;"/>
	
		<use xlink:href="#FlashAICB_x2F_buildings_x2F__x3C_Path_x3E__x5F_7"  width="5" height="13.5" y="-13.5" transform="matrix(1 0 0 -1 21.5498 13.25)" style="overflow:visible;opacity:0.5;enable-background:new    ;"/>
	
		<use xlink:href="#FlashAICB_x2F_buildings_x2F__x3C_Path_x3E__x5F_6"  width="9.05" height="22.7" y="-22.7" transform="matrix(1 0 0 -1 18.5 3.7002)" style="overflow:visible;opacity:0.5;enable-background:new    ;"/>
	
		<use xlink:href="#FlashAICB_x2F_buildings_x2F__x3C_Path_x3E__x5F_5"  width="1.2" height="8.2" y="-8.2" transform="matrix(1 0 0 -1 16.6504 18.2998)" style="overflow:visible;opacity:0.5;enable-background:new    ;"/>
	
		<use xlink:href="#FlashAICB_x2F_buildings_x2F__x3C_Path_x3E__x5F_4"  width="4" height="14.65" y="-14.65" transform="matrix(1 0 0 -1 11.8999 11.2998)" style="overflow:visible;opacity:0.5;enable-background:new    ;"/>
	
		<use xlink:href="#FlashAICB_x2F_buildings_x2F__x3C_Path_x3E__x5F_3"  width="6.45" height="14.1" y="-14.1" transform="matrix(1 0 0 -1 7.5498 10.9502)" style="overflow:visible;opacity:0.5;enable-background:new    ;"/>
	
		<use xlink:href="#FlashAICB_x2F_buildings_x2F__x3C_Path_x3E__x5F_2"  width="6.7" height="7.5" y="-7.5" transform="matrix(1 0 0 -1 4.1499 17.25)" style="overflow:visible;opacity:0.5;enable-background:new    ;"/>
	
		<use xlink:href="#FlashAICB_x2F_buildings_x2F__x3C_Path_x3E__x5F_1"  width="5.1" height="4.4" y="-4.4" transform="matrix(1 0 0 -1 4.5 23.2998)" style="overflow:visible;opacity:0.5;enable-background:new    ;"/>
	
		<use xlink:href="#FlashAICB_x2F_buildings_x2F__x3C_Path_x3E_"  width="6.9" height="2.55" y="-2.55" transform="matrix(1 0 0 -1 0.8501 25.5)" style="overflow:visible;opacity:0.5;enable-background:new    ;"/>
</g>
</svg>
