<?xml version="1.0" encoding="iso-8859-1"?>
<!-- Generator: Adobe Illustrator 15.1.0, SVG Export Plug-In . SVG Version: 6.00 Build 0)  -->
<!DOCTYPE svg PUBLIC "-//W3C//DTD SVG 1.1//EN" "http://www.w3.org/Graphics/SVG/1.1/DTD/svg11.dtd">
<svg version="1.1" id="craggyMountain_x5F_mid_x5F_04.ai"
	 xmlns="http://www.w3.org/2000/svg" xmlns:xlink="http://www.w3.org/1999/xlink" x="0px" y="0px" width="568px" height="364.1px"
	 viewBox="0 0 568 364.1" style="enable-background:new 0 0 568 364.1;" xml:space="preserve">
<g>
	<path style="fill-rule:evenodd;clip-rule:evenodd;fill:#DFBC71;" d="M520,135.05l-1,15l13,2l14,68l14,5l8,138H2l17-133l14,7l15-66
		l21-9l8-27l33-4l5-39l21-8l12-59l-8-6l17.9,1c14.833,0.667,29.533,1,44.1,1c2.1,0,5,2.35,8.7,7.05c1.8,2.3,5.367,7.45,10.7,15.45
		c4.8,7.2,8.55,12.35,11.25,15.45c4.1,4.7,7.55,7.05,10.35,7.05c13.067,0,28.117-7.5,45.15-22.5c4.233-3.733,9.75-8.883,16.55-15.45
		c5.1-4.7,8.533-7.05,10.3-7.05c2.6,0,5.983-1.05,10.15-3.15c0.3-0.133,4.466-2.45,12.5-6.95c12.233-6.9,23.017-10.534,32.35-10.9
		c9.2-0.367,17.866,2.217,26,7.75c5.134,3.5,8.184,5.517,9.15,6.05c3.533,1.933,7.149,3,10.85,3.2c7.1,0.434,14.233,0.567,21.4,0.4
		c3.566-0.1,6.433-0.233,8.6-0.4l1,19l22,14l-5,23l25,16l2,42L520,135.05z"/>
	<polygon style="fill-rule:evenodd;clip-rule:evenodd;fill:#C9A071;" points="148,25.05 140,19.05 156.5,27.05 146.5,93.05 
		124.5,95.55 122,128.05 116,127.55 117,145.55 86,143.05 82,195.05 74.5,193.05 73,175.55 62.5,178.05 66,363.1 0,363.1 
		18.5,229.6 31,235.1 48,171.05 69,162.05 77,135.05 110,131.05 115,92.05 136,84.05 	"/>
	<path style="fill-rule:evenodd;clip-rule:evenodd;fill:#C9A071;" d="M355.3,2.8c0,2.1-0.467,4.434-1.399,7
		c-1.9,5.1-5.2,8.767-9.9,11c-4.733,2.2-9.6,3.967-14.6,5.3l-6.101,1.35l-4.649,16L299.3,52.1l-8.649-1.3l-22,27.3v51.35l-4,9.35
		l6.65,44l-6,34.65l-4-1.351l5.35-34l-6-1.3v-36.7l-6.65-2.65l7.3-55.35c-4.433-3.1-8.65-6.434-12.65-10
		c-2.5-2.2-5.25-4.967-8.25-8.3l-3.75-4.35l9.75,0.6c7.434-0.133,13.517-1.45,18.25-3.95c4.7-2.5,10.767-6.867,18.2-13.1
		c3.867-3.233,8.016-6.867,12.45-10.9c0.233-0.167,2.983-2.817,8.25-7.95c4.033-3.933,6.851-6.167,8.45-6.7
		c0.8-0.267,2.5-0.75,5.1-1.45c1.9-0.5,3.75-1.133,5.551-1.9c1.566-0.667,6.433-3.217,14.6-7.65C345.517,6.15,351.533,3.6,355.3,2.8
		z"/>
	<polygon style="fill-rule:evenodd;clip-rule:evenodd;fill:#C9A071;" points="82.65,282.8 88.65,298.1 82.65,300.1 74,281.45 
		76.65,264.8 62,258.1 60.65,234.1 90.65,220.1 90,252.8 84.65,256.8 	"/>
	<polygon style="fill-rule:evenodd;clip-rule:evenodd;fill:#C9A071;" points="80.65,329.8 111.3,335.1 122.65,363.1 54.65,362.45 
		63.3,309.8 	"/>
	<polygon style="fill-rule:evenodd;clip-rule:evenodd;fill:#C9A071;" points="182,31.45 174,53.45 174.65,118.8 161.3,104.1 
		166,48.1 	"/>
	<polygon style="fill-rule:evenodd;clip-rule:evenodd;fill:#C9A071;" points="116,127.55 137.3,119.45 133.3,162.1 126.65,173.45 
		128.65,208.1 119.3,232.1 112.65,230.8 124,207.45 120.65,172.8 111.3,171.45 111.3,137.45 	"/>
	<path style="fill-rule:evenodd;clip-rule:evenodd;fill:#C9A071;" d="M136.65,237.45l-8.65,24l15.3,14.649l6,60.7l6,26h-50.65
		v-15.35c0-1.334,0.883-16.217,2.65-44.65l-5.3-26.7l16.65-24.649l13.35-16L136.65,237.45z"/>
	<polygon style="fill-rule:evenodd;clip-rule:evenodd;fill:#C9A071;" points="194.65,133.45 189.3,174.8 202,172.1 202,185.45 
		190.65,188.8 208,235.45 192.65,219.45 183.3,223.45 178.65,173.45 183.3,143.45 	"/>
	<polygon style="fill-rule:evenodd;clip-rule:evenodd;fill:#C9A071;" points="214.65,93.45 212,138.1 204,136.1 204.65,102.8 
		203.3,66.8 	"/>
	<polygon style="fill-rule:evenodd;clip-rule:evenodd;fill:#C9A071;" points="200,335.45 191.3,331.45 185.3,312.1 194.65,273.45 	
		"/>
	<polygon style="fill-rule:evenodd;clip-rule:evenodd;fill:#C9A071;" points="299.3,52.1 294,103.45 305.3,134.8 290.65,140.8 
		284.65,128.1 264.65,138.8 265.3,72.8 295.3,44.1 	"/>
	<polygon style="fill-rule:evenodd;clip-rule:evenodd;fill:#C9A071;" points="330.65,362.8 315.3,362.8 317.3,338.8 281.3,318.8 
		278.65,260.8 254,264.1 254,243.45 262,242.8 261.3,216.1 269.3,182.8 306,205.45 302.65,260.1 310,310.1 328,336.8 	"/>
	<polygon style="fill-rule:evenodd;clip-rule:evenodd;fill:#C9A071;" points="339.3,184.1 356.65,199.45 344,233.45 353.3,254.1 
		338.65,278.1 322,276.1 302.65,312.8 282.65,196.8 269.3,182.8 264,161.45 290,167.45 327.3,150.1 	"/>
	<polygon style="fill-rule:evenodd;clip-rule:evenodd;fill:#C9A071;" points="354,53.45 350.65,85.45 357.3,85.45 356.65,116.8 
		350.65,113.45 351.3,149.45 341.3,140.1 344.65,50.8 362.65,31.45 	"/>
	<polygon style="fill-rule:evenodd;clip-rule:evenodd;fill:#C9A071;" points="305.3,44.8 326,69.45 316,137.45 292.65,140.1 
		288,104.8 295.3,44.1 	"/>
	<polygon style="fill-rule:evenodd;clip-rule:evenodd;fill:#C9A071;" points="446,106.1 469.3,142.8 470,164.1 475.3,164.1 
		474,186.1 468,185.45 466.65,235.45 452.65,236.1 458,158.8 444,160.1 442.65,177.45 433.3,177.45 	"/>
	<polygon style="fill-rule:evenodd;clip-rule:evenodd;fill:#C9A071;" points="427.3,216.1 423.3,285.45 430,303.45 423.3,364.1 
		410.65,361.45 406,350.8 411.3,286.8 418,284.1 418.65,214.1 	"/>
	<polygon style="fill-rule:evenodd;clip-rule:evenodd;fill:#C9A071;" points="338,274.1 354,308.1 367.3,309.45 373.3,275.45 
		382,280.8 378,324.1 409.3,339.45 423.3,364.1 315.3,364.1 320,327.45 300,300.8 318,284.1 329.3,294.1 	"/>
	<polygon style="fill-rule:evenodd;clip-rule:evenodd;fill:#C9A071;" points="384,104.8 403.3,121.45 394.65,258.1 388.65,178.8 
		378.65,168.1 	"/>
	<polygon style="fill-rule:evenodd;clip-rule:evenodd;fill:#C9A071;" points="483.3,208.8 480.65,281.45 494.65,296.1 504.65,362.8 
		488.65,362.8 481.3,298.8 470.65,291.45 	"/>
	<polygon style="fill-rule:evenodd;clip-rule:evenodd;fill:#C9A071;" points="443.3,266.8 454,271.45 450,349.45 	"/>
	<polygon style="fill-rule:evenodd;clip-rule:evenodd;fill:#C9A071;" points="535.3,226.8 543.3,228.8 539.3,274.8 551.3,275.45 
		557.3,318.1 544.65,317.45 543.3,290.1 529.3,288.1 	"/>
	<polygon style="fill-rule:evenodd;clip-rule:evenodd;fill:#C9A071;" points="503.3,152.8 522,158.1 526.65,200.1 521.3,198.8 
		515.3,162.8 498,158.8 498,141.45 	"/>
	<polygon style="fill-rule:evenodd;clip-rule:evenodd;fill:#C9A071;" points="481.3,92.1 486,130.1 470.65,128.1 454.65,138.8 
		448.65,122.1 446,106.1 467.3,85.45 	"/>
	<polygon style="fill-rule:evenodd;clip-rule:evenodd;fill:#C9A071;" points="438.65,70.1 420.65,79.45 412,69.45 437.3,62.8 
		454.65,70.8 447.3,89.45 448,76.1 	"/>
	<polygon style="fill-rule:evenodd;clip-rule:evenodd;fill:#C9A071;" points="422.65,26.8 431.3,28.1 427.3,52.8 	"/>
	<path style="fill-rule:evenodd;clip-rule:evenodd;fill:#E6CB90;" d="M202,21.05l6,3.75l-58-0.7l-10-5.05
		C146.667,19.217,167.333,19.883,202,21.05z"/>
	<path style="fill-rule:evenodd;clip-rule:evenodd;fill:#E6CB90;" d="M370.65,4.1l6.25-0.75c4.566-0.333,7.816-0.083,9.75,0.75
		c3.1,1.333,9.55,6,19.35,14l-5.35,2.7L386,6.8L370.65,4.1z"/>
	<polygon style="fill-rule:evenodd;clip-rule:evenodd;fill:#E6CB90;" points="230.65,62.8 226,62.1 224,68.8 204.65,30.8 	"/>
	<polygon style="fill-rule:evenodd;clip-rule:evenodd;fill:#E6CB90;" points="526,162.8 530.65,162.8 537.3,215.45 531.3,210.1 	"/>
	<polygon style="fill-rule:evenodd;clip-rule:evenodd;fill:#E6CB90;" points="426.65,20.8 444,20.1 442,44.8 436.65,24.8 	"/>
	<polygon style="fill-rule:evenodd;clip-rule:evenodd;fill:#E6CB90;" points="373.3,44.1 384,44.1 369.3,95.45 	"/>
	<polygon style="fill-rule:evenodd;clip-rule:evenodd;fill:#E6CB90;" points="551.3,231.45 556.65,232.1 556,265.45 	"/>
	<polygon style="fill-rule:evenodd;clip-rule:evenodd;fill:#E6CB90;" points="406,193.45 412.65,134.1 417.3,197.45 	"/>
	<polygon style="fill-rule:evenodd;clip-rule:evenodd;fill:#E6CB90;" points="493.3,213.45 497.3,248.1 490,246.8 	"/>
	<polygon style="fill-rule:evenodd;clip-rule:evenodd;fill:#E6CB90;" points="244,170.1 236.65,170.1 246.65,106.8 	"/>
	<polygon style="fill-rule:evenodd;clip-rule:evenodd;fill:#E6CB90;" points="244.65,335.45 248,278.1 252.65,333.45 	"/>
	<polygon style="fill-rule:evenodd;clip-rule:evenodd;fill:#E6CB90;" points="151.3,185.45 153.3,132.8 158.65,183.45 	"/>
	<polygon style="fill-rule:evenodd;clip-rule:evenodd;fill:#E6CB90;" points="166,278.1 177.3,248.1 174.65,280.1 	"/>
</g>
</svg>
