<?xml version="1.0" encoding="iso-8859-1"?>
<!-- Generator: Adobe Illustrator 15.1.0, SVG Export Plug-In . SVG Version: 6.00 Build 0)  -->
<!DOCTYPE svg PUBLIC "-//W3C//DTD SVG 1.1//EN" "http://www.w3.org/Graphics/SVG/1.1/DTD/svg11.dtd">
<svg version="1.1" id="craggyMountain_x5F_background_x5F_10.ai"
	 xmlns="http://www.w3.org/2000/svg" xmlns:xlink="http://www.w3.org/1999/xlink" x="0px" y="0px" width="590.95px"
	 height="656.15px" viewBox="0 0 590.95 656.15" style="enable-background:new 0 0 590.95 656.15;" xml:space="preserve">
<g>
	<path style="fill-rule:evenodd;clip-rule:evenodd;fill:#CBBC8A;" d="M442.45,72l7.5,94.5l-25.5,15l22.5,24l4.5,48l22.5,10.5v61.5
		l25.5,28.5l-1.5,61.5l25.5,46.5l42,21l-12,54l37.5,49.5v69H0L3,585l13.45-1.5l9-28.5l13.5-1.5l12-70.5l15-3l16.5-70.5l19.5,3
		l6-91.5l21-6l31.5-60l37.5-3l31.5-67.5v-33l-24-30l17.05,4.15c13.767,3,26.583,5.117,38.45,6.35c11.867,1.267,32.933,1.4,63.2,0.4
		c15.133-0.5,29.066-1.133,41.8-1.9l-3-67.5l22.5-3l13.5-60h58.5L442.45,72z"/>
	<polygon style="fill-rule:evenodd;clip-rule:evenodd;fill:#C4B685;" points="415.85,8.8 402.5,58.15 409.15,60.15 402.5,90.8 
		388.5,92.8 389.85,125.5 433.85,155.5 397.15,145.5 392.5,188.8 367.15,198.8 365.15,242.8 350.5,245.5 349.15,185.5 373.15,175.5 
		365.95,130.5 362.95,63 384.5,59.5 398.95,0 457.45,0 	"/>
	<path style="fill-rule:evenodd;clip-rule:evenodd;fill:#C4B685;" d="M223.9,131.15c12.9,6.667,20.867,10.55,23.9,11.65
		c4.9,1.8,9.133,3.133,12.7,4l-4,49.35l8.65,8.65l-8,36.7l-9.35,2l-23.3,36.65l-20,6.65l-8.7,47.351l14.7,2l-10,38.649h-28l-8,24
		l8-0.649l-2.7,29.35l-17.3,5.3l-10,40l32,1.351l-0.7,30.649l24.7,7.351v55.35h8.65l-0.65,20.65l20,3.35l-0.7,41.3l8-0.649v24H0
		L3,585l13.5-2.85l8-28.65l12.65-0.7l12.65-71.3l16-2l15.35-70.7l20,2.7l6.65-90.7l20-6.65l31.35-60l37.35-2.65l30-65.35l1.3-34.65
		l-22.35-30L223.9,131.15z"/>
	<polygon style="fill-rule:evenodd;clip-rule:evenodd;fill:#C4B685;" points="356.85,155.45 325.85,161.45 323.85,179.45 
		300.85,184.45 285.85,260.45 274.85,256.45 286.85,187.45 272.85,184.45 275.85,150.45 291.85,148.45 289.85,173.45 307.85,172.45 
		313.85,147.45 355.85,140.45 	"/>
	<polygon style="fill-rule:evenodd;clip-rule:evenodd;fill:#C4B685;" points="427.85,19.45 442.85,16.45 430.85,47.45 435.85,55.45 
		429.85,131.45 403.85,115.45 403.85,99.45 420.85,98.45 426.85,62.45 421.85,53.45 	"/>
	<polygon style="fill-rule:evenodd;clip-rule:evenodd;fill:#C4B685;" points="428.85,163.45 420.85,172.45 420.85,199.45 
		440.85,206.45 394.85,210.45 408.85,159.45 	"/>
	<polygon style="fill-rule:evenodd;clip-rule:evenodd;fill:#C4B685;" points="345.85,256.45 348.85,275.45 322.85,270.45 
		321.85,311.45 342.85,309.45 342.85,342.45 317.85,341.45 315.85,396.45 280.85,391.45 294.85,330.45 271.85,327.45 281.85,285.45 
		306.85,271.45 317.85,208.45 326.85,206.45 323.85,251.45 	"/>
	<polygon style="fill-rule:evenodd;clip-rule:evenodd;fill:#C4B685;" points="238.85,331.45 211.85,327.45 219.85,303.45 
		235.85,295.45 252.85,271.45 244.85,305.45 238.85,315.45 260.85,320.45 246.85,366.45 259.85,369.45 242.85,411.45 258.85,416.45 
		253.85,453.45 231.85,459.45 234.85,480.45 250.85,486.45 239.85,567.45 223.85,568.45 228.85,506.45 212.85,501.45 211.85,463.45 
		157.85,463.45 180.85,451.45 187.85,435.45 226.85,434.45 236.85,385.45 222.85,387.45 	"/>
	<polygon style="fill-rule:evenodd;clip-rule:evenodd;fill:#C4B685;" points="419.85,259.45 461.85,268.45 428.85,316.45 	"/>
	<polygon style="fill-rule:evenodd;clip-rule:evenodd;fill:#C4B685;" points="511.85,460.45 512.85,487.45 500.85,554.45 
		505.85,607.45 493.85,638.45 481.85,637.45 492.85,609.45 481.85,553.45 488.85,485.45 457.85,482.45 419.85,447.45 430.85,418.45 
		462.85,449.45 	"/>
	<polygon style="fill-rule:evenodd;clip-rule:evenodd;fill:#C4B685;" points="534.85,486.45 555.85,489.45 538.85,532.45 	"/>
	<polygon style="fill-rule:evenodd;clip-rule:evenodd;fill:#C4B685;" points="530.85,560.45 549.85,552.45 574.85,593.45 
		540.85,646.45 553.85,586.45 	"/>
	<polygon style="fill-rule:evenodd;clip-rule:evenodd;fill:#C4B685;" points="379.85,302.45 392.85,309.45 369.85,410.45 
		341.85,407.45 343.85,371.45 364.85,367.45 	"/>
	<polygon style="fill-rule:evenodd;clip-rule:evenodd;fill:#C4B685;" points="473.85,373.45 449.85,366.45 447.85,346.45 
		493.85,364.45 487.85,414.45 475.85,411.45 	"/>
	<polygon style="fill-rule:evenodd;clip-rule:evenodd;fill:#C4B685;" points="391.85,491.45 401.85,485.45 400.85,523.45 
		425.85,535.45 413.85,610.45 390.85,611.45 383.85,646.45 366.85,642.45 375.85,601.45 397.85,599.45 406.85,548.45 388.85,527.45 
			"/>
	<polygon style="fill-rule:evenodd;clip-rule:evenodd;fill:#C4B685;" points="278.85,565.45 293.85,548.45 301.85,458.45 
		328.85,440.45 337.85,451.45 341.85,407.45 360.85,401.45 347.85,468.45 367.85,493.45 360.85,571.45 380.85,602.45 380.85,622.45 
		377.85,652.45 274.85,648.45 	"/>
</g>
</svg>
