<?xml version="1.0" encoding="iso-8859-1"?>
<!-- Generator: Adobe Illustrator 15.1.0, SVG Export Plug-In . SVG Version: 6.00 Build 0)  -->
<!DOCTYPE svg PUBLIC "-//W3C//DTD SVG 1.1//EN" "http://www.w3.org/Graphics/SVG/1.1/DTD/svg11.dtd">
<svg version="1.1" id="craggyMountain_x5F_mid_x5F_05.ai"
	 xmlns="http://www.w3.org/2000/svg" xmlns:xlink="http://www.w3.org/1999/xlink" x="0px" y="0px" width="95.35px" height="340px"
	 viewBox="0 0 95.35 340" style="enable-background:new 0 0 95.35 340;" xml:space="preserve">
<g>
	<polygon style="fill-rule:evenodd;clip-rule:evenodd;fill:#DFBC71;" points="64.35,33 41.35,63 42.35,169 51.35,179 62.35,218 
		78.35,225 81.35,263 93.35,268 93.35,340 5.35,340 6.65,286.65 1.35,276.65 1,226 3.35,222 6.65,188 3.35,188.65 6.35,112.65 
		0,109.35 0.35,0 95.35,5 72.35,16 	"/>
	<path style="fill-rule:evenodd;clip-rule:evenodd;fill:#C9A071;" d="M94,6l-14,6c-4.667-0.667-8.217-1-10.65-1
		c-1.533,0-4-0.1-7.399-0.3l-4.601-0.35l-6.699,9L47,32l-8.35,13l-1.3,15.65l-0.7-17l7.7-12.3l1.65-14L44.35,5l8.85,0.65
		C59.733,6.15,64.667,6.6,68,7c3.333,0.433,8.9,0.233,16.7-0.6C88.566,5.967,92.116,5.5,95.35,5L94,6z"/>
	<path style="fill-rule:evenodd;clip-rule:evenodd;fill:#C9A071;" d="M37,4.35L42,5L32,6c-1.433,0.167-2.767,0.2-4,0.1
		c-1.567-0.167-2.9-0.317-4-0.45c-1.4-0.133-2.933-0.383-4.6-0.75l-2.05-0.55L9.65,5l5,15.65l-1.6,6.05c-1,4.4-1.35,7.5-1.05,9.3
		c0.433,2.9,1.767,9.45,4,19.65l-3.25,9.45C10.517,71.867,9.267,76.5,9,79c-0.433,4-0.883,11.217-1.35,21.65l-7.3,9V0
		C11.65,2.233,18.533,3.35,21,3.35C23.433,3.35,28.767,3.683,37,4.35z"/>
	<polygon style="fill-rule:evenodd;clip-rule:evenodd;fill:#C9A071;" points="76.85,273 78.35,290 82.35,295.5 80.85,307 74.35,313 
		73.85,323.5 83.85,325 86.85,331 67.35,328.5 	"/>
	<polygon style="fill-rule:evenodd;clip-rule:evenodd;fill:#C9A071;" points="21,144.35 26.35,117.65 22.35,113.35 27.65,95.35 
		28,109.35 32,111.35 29,140 32.65,144 34,171 23.65,169.35 12,173.65 22,161.65 	"/>
	<polygon style="fill-rule:evenodd;clip-rule:evenodd;fill:#C9A071;" points="24.35,23.65 30.65,24.35 26.65,32 27.35,26 	"/>
	<polygon style="fill-rule:evenodd;clip-rule:evenodd;fill:#C9A071;" points="31.35,189.35 36.65,193 44.65,220 65,226 67.35,246 
		63.35,246.35 62.35,234.35 58.65,233.35 53.35,261.35 50.65,261 54.65,228.65 42,226.35 	"/>
	<polygon style="fill-rule:evenodd;clip-rule:evenodd;fill:#C9A071;" points="8.65,180 15,185.35 5,226 3.65,267.65 11.35,284.65 
		6,302 6.35,287 0.65,277 0.35,226 3,220.65 7.35,187.35 3.35,188.65 6.65,111.65 	"/>
	<polygon style="fill-rule:evenodd;clip-rule:evenodd;fill:#C9A071;" points="30,255 37,254.35 40.65,264.65 34.65,261.65 
		36.65,276.65 29.35,302 23.35,304 31,277.35 23,252.35 26,247.35 	"/>
	<polygon style="fill-rule:evenodd;clip-rule:evenodd;fill:#C9A071;" points="72.15,340 5.35,340 20.65,334.35 24.65,326.35 
		36.35,326 41,318.65 48.65,320.65 48,329 58.35,332.35 62,337.35 	"/>
	<path style="fill-rule:evenodd;clip-rule:evenodd;fill:#EBD7AC;" d="M44.35,5l-20.4-1.25C9.55,2.083,1.683,0.833,0.35,0
		c9.9,0.667,15.517,0.95,16.85,0.85C18.033,0.817,31.317,1.5,57.05,2.9C69.884,3.6,82.65,4.3,95.35,5L77.6,7.35L68.95,7.1L44.35,5z"
		/>
	<polygon style="fill-rule:evenodd;clip-rule:evenodd;fill:#E6CB90;" points="60.35,15.85 62.35,19.35 63.5,15 66,15 62.65,29.5 
		54,42.65 52.15,43 59.65,29.35 	"/>
	<polygon style="fill-rule:evenodd;clip-rule:evenodd;fill:#E6CB90;" points="35.65,79 38.65,81 36.35,103.65 38.35,110 32.35,136 
		35.35,110 32.65,105.65 	"/>
	<polygon style="fill-rule:evenodd;clip-rule:evenodd;fill:#E6CB90;" points="39.65,191.3 44.35,196.65 49,211.3 54.65,219.3 
		48,216 	"/>
	<polygon style="fill-rule:evenodd;clip-rule:evenodd;fill:#E6CB90;" points="48.35,196 52.65,196.3 55.65,210.65 	"/>
	<polygon style="fill-rule:evenodd;clip-rule:evenodd;fill:#E6CB90;" points="41.35,174 47.35,178 31,175.3 	"/>
	<polygon style="fill-rule:evenodd;clip-rule:evenodd;fill:#E6CB90;" points="83,267.3 89.65,275.65 88,294 85.65,295 86,279.65 
		81.35,277 	"/>
	<polygon style="fill-rule:evenodd;clip-rule:evenodd;fill:#E6CB90;" points="37.35,287.3 40.35,277.3 38.35,268.3 44,276.65 
		41.65,287 	"/>
</g>
</svg>
