<?xml version="1.0" encoding="iso-8859-1"?>
<!-- Generator: Adobe Illustrator 15.1.0, SVG Export Plug-In . SVG Version: 6.00 Build 0)  -->
<!DOCTYPE svg PUBLIC "-//W3C//DTD SVG 1.1//EN" "http://www.w3.org/Graphics/SVG/1.1/DTD/svg11.dtd">
<svg version="1.1" id="craggyMountain_x5F_mid_x5F_02.ai"
	 xmlns="http://www.w3.org/2000/svg" xmlns:xlink="http://www.w3.org/1999/xlink" x="0px" y="0px" width="709.35px"
	 height="597.25px" viewBox="0 0 709.35 597.25" style="enable-background:new 0 0 709.35 597.25;" xml:space="preserve">
<symbol  id="craggyMountain_x5F_mid_x5F_02.ai_Assets_x2F_Layer_1_x2F__x3C_Path_x3E__x5F_14" viewBox="0 -64.404 87.55 64.404">
	<g id="Layer_1_2_">
		<linearGradient id="SVGID_1_" gradientUnits="userSpaceOnUse" x1="3.0752" y1="-32.2021" x2="87.2252" y2="-32.2021">
			<stop  offset="0" style="stop-color:#D5A748"/>
			<stop  offset="1" style="stop-color:#64532D"/>
		</linearGradient>
		<path style="fill-rule:evenodd;clip-rule:evenodd;fill:url(#SVGID_1_);" d="M87.55-53.05c-0.566-0.967-1.583-2.083-3.05-3.35
			c-2.9-2.5-6.517-4.467-10.85-5.9c-4.367-1.467-8.767-2.167-13.2-2.1l-5.35,0.55L27.35-40.2L0,0
			c25.167-17.533,42.783-30.167,52.85-37.9c6.267-4.833,13.933-8.817,23-11.95C80.383-51.383,84.283-52.45,87.55-53.05z"/>
	</g>
</symbol>
<g>
	<path style="fill-rule:evenodd;clip-rule:evenodd;fill:#DFBC71;" d="M652.85,523.45l28.25-0.9l4.551,16.4H704.8l4.55,58.3H18.65
		v-68.3l27.35-6.4l11.85-57.399l17.25-2.75l28.25-63.801l22.75-12.75l16.45-73.8l21.85-9.1l26.45-62.9
		c13.967-13.367,23.383-21.867,28.25-25.5c3.033-2.3,6.217-12.25,9.55-29.85l4.1-25.75l11.85-11.85l1.8-59.25l10.95-9.1
		c-0.9-10.467-1.65-21.517-2.25-33.15c-1.233-23.233-1.083-37.7,0.45-43.4c1.434-5.4,10.633-0.967,27.6,13.3
		c4.5,3.8,11.217,9.617,20.15,17.45c7.3,6.267,12.383,10.167,15.25,11.7c7.233,3.867,16.667,7.217,28.3,10.05
		c5.833,1.433,10.933,2.466,15.3,3.1l-4.551,88.4l6.351,86.55L401.35,251l25.5,38.25l58.301,26.45l24.6,41L538,368.55l28.25,42.8
		L652.85,523.45z"/>
	<path style="fill-rule:evenodd;clip-rule:evenodd;fill:#C9A071;" d="M254.9,19.9l18.5,15.45l3.1,42.45l-10.8,14.7l5.4,53.3
		l-7.75-2.35l-8.45,74.15l-26.3,30.15l0.8,93.45l-21.65,20.1l-8.5,86.5l27.05,33.25l-1.55,54.851l20.85,5.399l1.55,55.601H0V569.85
		l10.85-4.6l3.85-38.65l31.3-4.05l8.85-56.95L75.1,462.4l28.25-63.801l22.75-12.75l16.45-73.8l21.85-9.1l26.45-62.9l28.25-25.5
		c2.133-1.933,5.05-11.783,8.75-29.55l4.9-26.05l11.85-11.85l1.8-59.25l10-9.25L254.9,19.9z"/>
	<path style="fill-rule:evenodd;clip-rule:evenodd;fill:#7D644A;" d="M362.15,57.8c2.033,0.367,0.783,3-3.75,7.9
		c-4.101,4.466-7.45,7.466-10.05,9c-1.067,0.667-1.934,3.6-2.6,8.8c-0.633,4.9-2.083,7.633-4.35,8.2
		c-2.066,0.533-4.483-0.583-7.25-3.35c-2.633-2.633-4.85-3.567-6.65-2.8c-1.167,0.5-2.083,2.2-2.75,5.1
		c-0.3,1.233-0.767,4.3-1.4,9.2c-1.167,8.667-3.133,13.417-5.9,14.25c-3.2,0.967-5.267-2.217-6.2-9.55
		c-0.5-9.066-1.017-15.15-1.55-18.25c-0.367-2.2-1.483-3.8-3.35-4.8c-1.7-0.933-3.7-1.167-6-0.7c-2.333,0.467-4.383,1.55-6.15,3.25
		c-1.967,1.867-3.233,4.167-3.8,6.9c-0.467,2.333-0.717,5.85-0.75,10.55c0,2.633,0,6.617,0,11.95c-0.233,9.2-2.033,13.8-5.4,13.8
		c-3.533,0-5.25-6.983-5.15-20.95c0.833-16.167,1.25-26.433,1.25-30.8c0-5.467-1.917-11.883-5.75-19.25l-5.8-9.35l0.1,6.65
		c-0.4,4.534-1.733,6.95-4,7.25c-2.4,0.367-4.767-1.933-7.1-6.9c-1.9-4-3.133-7.867-3.7-11.6c-0.3-2.267-0.267-9.133,0.1-20.6
		c0.2-5.733,0.433-11.233,0.7-16.5c25.934,19.767,50.967,34.316,75.1,43.65C339.833,52.65,350.55,55.633,362.15,57.8z"/>
	<path style="fill-rule:evenodd;clip-rule:evenodd;fill:#E6CB90;" d="M347.3,52.1c5.733,2.4,10.684,4.3,14.851,5.7
		c-3.967,5.133-9.067,9.75-15.3,13.85c-12.4,8.167-24.15,9.6-35.25,4.3c-11.1-5.3-21.184-14.617-30.25-27.95
		c-2.867-4.167-5.434-8.483-7.7-12.95l-2.6-5.45c-3.433-3.667-6.566-7.633-9.4-11.9c-5.7-8.534-7.1-14.25-4.2-17.15
		c1.667-1.667,10.05,2.567,25.15,12.7c8.3,5.567,20.283,13.717,35.95,24.45C326.25,42.533,335.833,47.333,347.3,52.1z"/>
	
		<use xlink:href="#craggyMountain_x5F_mid_x5F_02.ai_Assets_x2F_Layer_1_x2F__x3C_Path_x3E__x5F_14"  width="87.55" height="64.404" y="-64.404" transform="matrix(1 0 0 -1 265.7002 6.75)" style="overflow:visible;enable-background:new    ;"/>
	<polygon style="fill-rule:evenodd;clip-rule:evenodd;fill:#C9A071;" points="259.5,258.55 284.25,275.55 291.95,334.25 
		324.4,337.35 327.5,416.15 307.4,417.7 305.85,366.7 284.25,360.55 264.15,383.7 268.8,464.05 248.7,453.2 247.15,385.25 
		264.15,349.7 	"/>
	<polygon style="fill-rule:evenodd;clip-rule:evenodd;fill:#C9A071;" points="489.7,359 508.25,377.5 466.55,377.5 472.7,423.85 
		463.45,484.1 444.9,482.6 452.6,426.95 427.9,345.1 	"/>
	<polygon style="fill-rule:evenodd;clip-rule:evenodd;fill:#C9A071;" points="599.4,484.1 583.95,490.3 563.85,451.7 525.25,399.15 
		545.3,400.7 570.05,434.7 	"/>
	<polygon style="fill-rule:evenodd;clip-rule:evenodd;fill:#C9A071;" points="336.75,138.05 344.5,119.5 352.2,190.6 350.65,260.1 
		339.85,255.45 	"/>
	<polygon style="fill-rule:evenodd;clip-rule:evenodd;fill:#C9A071;" points="293.5,156.6 322.85,148.9 322.85,164.35 
		305.85,175.15 308.95,250.85 295.05,247.75 	"/>
	<polygon style="fill-rule:evenodd;clip-rule:evenodd;fill:#C9A071;" points="383.1,436.25 398.55,454.75 398.55,530.45 
		400.1,593.8 378.45,587.65 372.3,527.4 389.3,507.3 	"/>
	<path style="fill-rule:evenodd;clip-rule:evenodd;fill:#C9A071;" d="M658.85,542.85l-3.85,41.7l-11.6-2.35l1.55-33.2l-18.5,1.55
		c1-15.434,1.25-23.934,0.75-25.5h6.2l2.3,16.25L658.85,542.85z"/>
	<polygon style="fill-rule:evenodd;clip-rule:evenodd;fill:#C9A071;" points="256.4,563.7 268.8,562.9 275.75,510.4 312.8,514.25 
		309.7,453.2 331.35,459.4 335.2,536.65 349.9,542.05 356.85,596.15 257.95,596.15 	"/>
	<polygon style="fill-rule:evenodd;clip-rule:evenodd;fill:#C9A071;" points="371.85,267.1 401.95,282.15 385.75,358.65 	"/>
	<polygon style="fill-rule:evenodd;clip-rule:evenodd;fill:#C9A071;" points="537.5,505.8 520.15,566.05 518.95,484.9 	"/>
	<polygon style="fill-rule:evenodd;clip-rule:evenodd;fill:#E6CB90;" points="558.35,582.25 558.35,484.95 579.2,581.1 	"/>
	<polygon style="fill-rule:evenodd;clip-rule:evenodd;fill:#E6CB90;" points="319.7,181.35 334.75,277.55 318.55,269.4 	"/>
	<polygon style="fill-rule:evenodd;clip-rule:evenodd;fill:#E6CB90;" points="492.35,458.3 485.35,393.4 506.25,449 	"/>
	<polygon style="fill-rule:evenodd;clip-rule:evenodd;fill:#E6CB90;" points="419.35,439.75 405.45,333.15 430.9,431.65 	"/>
</g>
</svg>
