<?xml version="1.0" encoding="iso-8859-1"?>
<!-- Generator: Adobe Illustrator 15.1.0, SVG Export Plug-In . SVG Version: 6.00 Build 0)  -->
<!DOCTYPE svg PUBLIC "-//W3C//DTD SVG 1.1//EN" "http://www.w3.org/Graphics/SVG/1.1/DTD/svg11.dtd">
<svg version="1.1" id="craggyMountain_x5F_background_x5F_11.ai"
	 xmlns="http://www.w3.org/2000/svg" xmlns:xlink="http://www.w3.org/1999/xlink" x="0px" y="0px" width="202px" height="659px"
	 viewBox="0 0 202 659" style="enable-background:new 0 0 202 659;" xml:space="preserve">
<g>
	<path style="fill-rule:evenodd;clip-rule:evenodd;fill:#CBBC8A;" d="M109.3,282l0.7-10l-2.7-9.3l-11.3,2l-2.7,9.3l5.35,8H109.3z
		 M106.65,241.35l10-12.65l-3.351-17.35l-16.75-1.15L96,214.7l-8.7,3.3l-2,15.35l7.35,7.35L106.65,241.35z M100.65,28.7L96,44.7
		l-20.7-1.35l-8-12.65L52,41.35V82l11.3,48.7l4,32l30,23.3l26.7,4l11.3-40.65l18.7-8L146.65,62L128,28L100.65,28.7z M180,26l4,40v64
		l-14,32l6,42l-40,20l-6,60l12,36l-17,25l7,65l16,18v50l26,28l8,74l20,10l-12,69H20L0,542l24-8l8-82l24-6l10-118l20-22l-22-22l4-76
		l-54-50L8,58l18-44L98,0l38,10l12.5,4L180,26z"/>
	<polygon style="fill-rule:evenodd;clip-rule:evenodd;fill:#C4B685;" points="29,48 18.5,57.5 22,85.5 26.5,151 49.5,157.5 
		56.5,172.5 71.5,178.5 73.5,208 79,217.5 76.5,257.5 69,266.5 81.5,274 82,288.5 95,300.5 93,319 83.5,332.5 81,347.5 94,352 
		93.5,362.5 87,362.5 89,402 99,405 89,474 73,470 59,523 71,523 72,572 53,590 68,601 74,659 20,659 0,542 24,534 32,452 56,446 
		66,328 82,305 64,284 68,208 14,158 8,58 26,14 	"/>
	<polygon style="fill-rule:evenodd;clip-rule:evenodd;fill:#C4B685;" points="37.5,61.5 40,82 46.5,83.5 43.5,120.5 50.5,120.5 
		51,148.5 44.5,149 45,127.5 39,130.5 40.5,92.5 34.5,93 31,66.5 	"/>
	<polygon style="fill-rule:evenodd;clip-rule:evenodd;fill:#C4B685;" points="96.5,43 95,47.5 68.5,52.5 61,43 52.5,49 49,36.5 
		54,31.5 52,24.5 60.5,20.5 61.5,29 67.5,27 75.3,43.35 	"/>
	<polygon style="fill-rule:evenodd;clip-rule:evenodd;fill:#C4B685;" points="134,23.5 143.5,42 146.5,41.5 149.5,59.5 153,60.5 
		153,89 157,87 160,108 157,108.5 158,147.5 147,150 141.5,159 143,162.5 138,179 136,177 129,193 124,190 124.5,184 122,181.5 
		122.5,170 127,168.5 134,145 147.5,136 142,107.5 145.5,101 141.5,94.5 138,62 131,52.5 129,41 117.5,32.5 99,34.5 102.5,23 
		117.5,27 	"/>
	<polygon style="fill-rule:evenodd;clip-rule:evenodd;fill:#C4B685;" points="89.5,11 105,16.5 91.5,35 95,22 86.5,21 86.5,33.5 
		80,32 77,16 	"/>
	<polygon style="fill-rule:evenodd;clip-rule:evenodd;fill:#C4B685;" points="170,93 166,91.5 163.5,51 156.5,53.5 153,30 158,30 
		160.5,45.5 169.5,43.5 	"/>
	<polygon style="fill-rule:evenodd;clip-rule:evenodd;fill:#C4B685;" points="170.5,114.5 178.5,129 165,151 	"/>
	<polygon style="fill-rule:evenodd;clip-rule:evenodd;fill:#C4B685;" points="165.5,162 165,183.5 150.5,195 150,210 141.5,212.5 
		141,194 158,175.5 159.5,164.5 	"/>
	<polygon style="fill-rule:evenodd;clip-rule:evenodd;fill:#C4B685;" points="87,222.5 87.3,218 96,214.7 96.55,210.2 116,209.5 
		122.5,230 111.5,243 102,241 104.5,236.5 112,227 110.5,217 100,215.5 96.5,219.5 	"/>
	<polygon style="fill-rule:evenodd;clip-rule:evenodd;fill:#C4B685;" points="126.5,232.5 132.5,229.5 131,249 123.5,283.5 118,247 
		125.5,248 	"/>
	<polygon style="fill-rule:evenodd;clip-rule:evenodd;fill:#C4B685;" points="95,268 96,264.7 109,261.5 112,271 109.3,282 103,282 
		107,272.5 105,266.5 	"/>
	<polygon style="fill-rule:evenodd;clip-rule:evenodd;fill:#C4B685;" points="113,296 128.5,291.5 132,318 115.5,343.5 110.5,335.5 
		123.5,313 	"/>
	<polygon style="fill-rule:evenodd;clip-rule:evenodd;fill:#C4B685;" points="100.5,320.5 111.5,319.5 97,340.5 	"/>
	<polygon style="fill-rule:evenodd;clip-rule:evenodd;fill:#C4B685;" points="110.5,359 117,357.5 120.5,381 125,383 126,431.5 
		117.5,430.5 113,391 97,393 99,380 107.5,381 	"/>
	<polygon style="fill-rule:evenodd;clip-rule:evenodd;fill:#C4B685;" points="136,426 142.5,435 134,480 	"/>
	<polygon style="fill-rule:evenodd;clip-rule:evenodd;fill:#C4B685;" points="103.5,448.5 113.5,454 115,517.5 138,507 131,550.5 
		120.5,551.5 123,533 94.5,543 93.5,566 82,567 83.5,539.5 93.5,535 94.5,505 73.5,508 80,488.5 103.5,490.5 	"/>
	<polygon style="fill-rule:evenodd;clip-rule:evenodd;fill:#C4B685;" points="166.5,507 172,527 173,562 171.5,582 165,579.5 
		163,561 163.5,529.5 155.5,505.5 	"/>
	<polygon style="fill-rule:evenodd;clip-rule:evenodd;fill:#C4B685;" points="95,589.5 126,587 104,592 104,619 115,623 112,659 
		103.5,659 103.5,630 89.5,630.5 	"/>
	<polygon style="fill-rule:evenodd;clip-rule:evenodd;fill:#C4B685;" points="167,612 181.5,612 177,644.5 162.5,643 165.5,620 
		150.5,621.5 152,591.5 166.5,593 	"/>
</g>
</svg>
