<?xml version="1.0" encoding="iso-8859-1"?>
<!-- Generator: Adobe Illustrator 15.1.0, SVG Export Plug-In . SVG Version: 6.00 Build 0)  -->
<!DOCTYPE svg PUBLIC "-//W3C//DTD SVG 1.1//EN" "http://www.w3.org/Graphics/SVG/1.1/DTD/svg11.dtd">
<svg version="1.1" id="craggyMountain_x5F_mid_x5F_01.ai"
	 xmlns="http://www.w3.org/2000/svg" xmlns:xlink="http://www.w3.org/1999/xlink" x="0px" y="0px" width="730.05px"
	 height="388.95px" viewBox="0 0 730.05 388.95" style="enable-background:new 0 0 730.05 388.95;" xml:space="preserve">
<g>
	<polygon style="fill-rule:evenodd;clip-rule:evenodd;fill:#DFBC71;" points="730.05,386.95 1.15,386.95 27.25,279 43.5,269.8 
		61.7,190.5 81.85,184.5 88.95,153 118.65,148.5 124.55,90 145.95,76.5 150.7,33 202.95,0 271.8,0 278.9,25.5 334.7,37.5 
		351.35,73.5 403.55,82.5 446.3,129 466.95,131.95 478.95,166.95 505.95,190.95 528.95,216.95 562.95,219.95 582.95,248.95 
		681.35,274.5 686.95,340.65 	"/>
	<path style="fill-rule:evenodd;clip-rule:evenodd;fill:#C9A071;" d="M202.95,0l-29,31.95l8,82l-27,38l-15,88l27,16l12,132
		c0-0.667-59.65-0.334-178.95,1l21-112l18-8l19-81l19.95-5l7-30l30-6l5-59l26-11.45L150.7,33L202.95,0z"/>
	<polygon style="fill-rule:evenodd;clip-rule:evenodd;fill:#C9A071;" points="183.25,166.95 231.95,150.25 251.95,150.95 
		251.95,164.95 237.95,167.6 235.25,193.6 241.25,248.25 233.95,254.25 225.95,199.6 223.25,170.95 203.25,178.25 202.6,220.25 
		190.6,224.25 191.95,172.95 179.95,174.95 	"/>
	<polygon style="fill-rule:evenodd;clip-rule:evenodd;fill:#C9A071;" points="281.25,206.95 291.25,210.95 277.25,264.25 
		281.95,270.25 287.25,355.6 273.25,367.6 259.25,370.95 268.6,274.25 264.6,262.95 283.25,217.6 	"/>
	<polygon style="fill-rule:evenodd;clip-rule:evenodd;fill:#C9A071;" points="309.95,40.95 322.6,43.6 339.25,72.95 313.25,70.95 
		297.95,96.25 279.95,93.6 302.6,64.25 317.95,59.6 	"/>
	<polygon style="fill-rule:evenodd;clip-rule:evenodd;fill:#C9A071;" points="324.6,139.6 333.95,123.6 339.95,156.95 361.25,161.6 
		366.6,193.6 373.95,192.95 377.25,224.95 369.95,226.25 375.95,277.6 365.95,274.95 351.25,179.6 341.25,184.95 341.95,229.6 
		333.25,227.6 	"/>
	<polygon style="fill-rule:evenodd;clip-rule:evenodd;fill:#C9A071;" points="413.25,181.6 424.6,182.95 427.95,240.95 
		421.25,243.6 432.6,284.95 421.95,283.6 411.25,236.25 417.25,233.6 415.25,194.25 407.95,193.6 407.25,149.6 414.6,148.25 	"/>
	<polygon style="fill-rule:evenodd;clip-rule:evenodd;fill:#C9A071;" points="169.25,310.95 207.25,309.6 215.25,358.25 
		201.25,360.95 195.95,344.25 173.95,348.95 	"/>
	<polygon style="fill-rule:evenodd;clip-rule:evenodd;fill:#C9A071;" points="241.25,24.95 217.25,40.25 222.6,99.6 206.6,96.95 
		207.95,33.6 	"/>
	<polygon style="fill-rule:evenodd;clip-rule:evenodd;fill:#C9A071;" points="501.95,202.95 518.6,218.25 504.6,218.95 
		481.25,248.25 492.6,206.95 464.6,181.6 	"/>
	<polygon style="fill-rule:evenodd;clip-rule:evenodd;fill:#C9A071;" points="389.25,92.95 405.95,137.6 393.95,136.25 382.6,103.6 
		374.6,102.95 375.95,134.25 361.25,136.95 357.25,90.25 	"/>
	<polygon style="fill-rule:evenodd;clip-rule:evenodd;fill:#C9A071;" points="340.95,387.95 341.95,347.95 287.25,355.6 
		281.95,270.25 344.95,250.95 351.95,319.95 414.95,329.95 415.95,387.95 	"/>
	<polygon style="fill-rule:evenodd;clip-rule:evenodd;fill:#C9A071;" points="501.95,330.95 507.95,374.95 492.95,372.95 
		489.95,296.95 473.95,277.95 497.95,274.95 506.95,297.95 556.95,300.95 570.95,372.95 553.95,373.95 545.95,349.95 520.95,349.95 
		515.95,326.95 	"/>
	<polygon style="fill-rule:evenodd;clip-rule:evenodd;fill:#C9A071;" points="656.95,386.95 656.95,360.95 640.95,348.95 
		642.95,294.95 617.95,276.95 652.95,286.95 657.95,342.95 702.95,385.95 	"/>
	<polygon style="fill-rule:evenodd;clip-rule:evenodd;fill:#E6CB90;" points="667.95,337.6 665.95,287.6 675.95,338.25 	"/>
	<polygon style="fill-rule:evenodd;clip-rule:evenodd;fill:#E6CB90;" points="389.25,207.6 409.25,263.6 399.25,260.95 	"/>
	<polygon style="fill-rule:evenodd;clip-rule:evenodd;fill:#E6CB90;" points="395.95,95.6 401.25,95.6 428.6,131.6 414.6,132.25 	
		"/>
	<polygon style="fill-rule:evenodd;clip-rule:evenodd;fill:#E6CB90;" points="348.6,138.25 403.95,147.6 347.95,146.25 	"/>
	<polygon style="fill-rule:evenodd;clip-rule:evenodd;fill:#E6CB90;" points="265.25,34.25 262.6,9.6 208.6,4.95 269.95,3.6 
		276.6,33.6 	"/>
	<polygon style="fill-rule:evenodd;clip-rule:evenodd;fill:#E6CB90;" points="271.25,187.6 270.6,110.95 280.6,188.95 	"/>
	<polygon style="fill-rule:evenodd;clip-rule:evenodd;fill:#E6CB90;" points="587.95,321.6 558.6,226.95 600.6,323.6 	"/>
</g>
</svg>
