<?xml version="1.0" encoding="iso-8859-1"?>
<!-- Generator: Adobe Illustrator 15.1.0, SVG Export Plug-In . SVG Version: 6.00 Build 0)  -->
<!DOCTYPE svg PUBLIC "-//W3C//DTD SVG 1.1//EN" "http://www.w3.org/Graphics/SVG/1.1/DTD/svg11.dtd">
<svg version="1.1" id="craggyMountain_x5F_background_x5F_09.ai"
	 xmlns="http://www.w3.org/2000/svg" xmlns:xlink="http://www.w3.org/1999/xlink" x="0px" y="0px" width="194px" height="693.45px"
	 viewBox="0 0 194 693.45" style="enable-background:new 0 0 194 693.45;" xml:space="preserve">
<g>
	<path style="fill-rule:evenodd;clip-rule:evenodd;fill:#CBBC8A;" d="M107.8,0l9.851,12.3c-2.467,45.067-3.7,69.233-3.7,72.5
		c0,2.034,2.467,8.383,7.399,19.05c2.434,5.333,4.884,10.45,7.351,15.35l-17.2,77.45l14.75,54.1l-6.15,76.2L145.9,378.6
		l2.699,84.851l15.75,6.1l-3.25,81l19.2,6.3l13.7,121.9l-40.65,10l-30-3.3L2.1,685.9L25.45,528.55l30.7-41.8L34.05,472v-46.7
		l23.35-76.2v-63.95l9.85-1.2l1.2-87.3l12.3-8.6l-4.9-90.95l20.9-8.6L89.7,0.45L107.8,0z"/>
	<polygon style="fill-rule:evenodd;clip-rule:evenodd;fill:#C4B685;" points="107.35,0.1 103.35,45.45 106,58.75 104.7,106.1 
		88,114.1 98,116.75 98.7,174.1 94.7,207.45 81.35,211.45 84.7,261.45 99.35,266.1 92,311.45 76,307.45 88,355.45 82,398.75 
		98,426.75 94,470.1 78.7,469.45 80,540.1 62.7,555.45 84.7,579.45 82,622.1 120,628.75 123.35,685.45 94,692.75 41.35,693.45 
		0,685.45 23.35,528.75 54,488.1 32.65,471.45 33.35,424.75 56,350.1 57.35,284.1 66,284.1 68,194.75 79.35,188.1 75.35,95.45 
		96,87.45 89.7,0.45 	"/>
	<polygon style="fill-rule:evenodd;clip-rule:evenodd;fill:#C4B685;" points="117.35,117.45 123.35,122.1 108,182.75 	"/>
	<polygon style="fill-rule:evenodd;clip-rule:evenodd;fill:#C4B685;" points="105.35,232.1 93.35,235.45 94,220.75 106,216.1 
		122.7,260.1 107.35,310.1 112.7,260.75 	"/>
	<polygon style="fill-rule:evenodd;clip-rule:evenodd;fill:#C4B685;" points="92.65,334.75 114.65,331.45 134,375.45 132.65,440.1 
		124,448.1 126,392.1 112.65,390.1 109.35,409.45 100.65,398.75 106.65,368.1 121.35,372.75 110.65,350.1 95.35,345.45 	"/>
	<polygon style="fill-rule:evenodd;clip-rule:evenodd;fill:#C4B685;" points="100,485.45 108.65,482.1 107.35,495.45 114.65,498.75 
		117.35,463.45 132.65,464.1 128,520.75 110,520.1 110,546.1 96,543.45 	"/>
	<polygon style="fill-rule:evenodd;clip-rule:evenodd;fill:#C4B685;" points="164,612.1 174.65,611.45 178.65,665.45 163.35,667.45 
		164,621.45 154.65,621.45 151.35,578.1 163.35,580.75 	"/>
	<polygon style="fill-rule:evenodd;clip-rule:evenodd;fill:#C4B685;" points="127.35,604.1 116,602.1 124,550.75 	"/>
	<polygon style="fill-rule:evenodd;clip-rule:evenodd;fill:#C4B685;" points="150.7,473.45 158.7,478.1 152.7,526.1 	"/>
</g>
</svg>
