<?xml version="1.0" encoding="iso-8859-1"?>
<!-- Generator: Adobe Illustrator 15.1.0, SVG Export Plug-In . SVG Version: 6.00 Build 0)  -->
<!DOCTYPE svg PUBLIC "-//W3C//DTD SVG 1.1//EN" "http://www.w3.org/Graphics/SVG/1.1/DTD/svg11.dtd">
<svg version="1.1" id="craggyMountain_x5F_background_x5F_07.ai"
	 xmlns="http://www.w3.org/2000/svg" xmlns:xlink="http://www.w3.org/1999/xlink" x="0px" y="0px" width="496.25px"
	 height="176.5px" viewBox="0 0 496.25 176.5" style="enable-background:new 0 0 496.25 176.5;" xml:space="preserve">
<g>
	<path style="fill-rule:evenodd;clip-rule:evenodd;fill:#CBBC8A;" d="M490.75,18.35l-80.6,21.95l-5.45,25.65l-38.5,1.8l-29.25,49.45
		l-29.3,9.149l-27.5,40.301L265.5,175.8l-26.95,0.7l-4.15-51.95l-49.45-9.149l-9.15-27.5l-49.45-10.95L104.4,33l-84.25-7.35L0,0
		l126.35,16.5l10.15,1.95c8.5,1.566,17.1,2.983,25.8,4.25c27.767,3.966,51.184,5.566,70.25,4.8
		c16.934-0.667,35.717-4.717,56.351-12.15c11.267-4.033,17.55-6.25,18.85-6.65c5.667-1.7,9.9-2.15,12.7-1.35
		c4.267,1.233,10.684,4.6,19.25,10.1c8.533,5.5,14.934,8.85,19.2,10.05c5.333,1.533,29.833-2.6,73.5-12.4
		c21.8-4.867,43.083-9.9,63.85-15.1L490.75,18.35z"/>
	<path style="fill-rule:evenodd;clip-rule:evenodd;fill:#C4B685;" d="M272.7,77.5c0.267,1.1-0.983,12.866-3.75,35.3
		c-1.4,11.233-2.816,22.351-4.25,33.351l-4.7,30l-21.45,0.35l-5.9-48.35l-48.65-10l-10.65-28L124,78.8l-20.65-42l-83.2-11.15L0,0
		l32,4.8l11.35,14L124,25.5l12,22.65l14,2.65l6.65-10l26,4l23.35,52l34.65-4.649c1.133-3.234,2.333-6.434,3.6-9.601
		c2.567-6.333,4.267-9.35,5.1-9.05c0.667,0.233,4.717,0.65,12.15,1.25C268.7,75.483,272.434,76.4,272.7,77.5z"/>
	<polygon style="fill-rule:evenodd;clip-rule:evenodd;fill:#C4B685;" points="206.65,39.5 217.35,36.15 220.65,69.5 236,66.8 
		230.65,83.5 214.65,80.8 	"/>
	<polygon style="fill-rule:evenodd;clip-rule:evenodd;fill:#C4B685;" points="328.7,72.15 354,67.5 332,109.5 294,113.5 
		276.7,157.5 272,156.8 278,122.15 291.35,56.8 303.35,59.5 298,104.8 325.35,103.5 	"/>
	<polygon style="fill-rule:evenodd;clip-rule:evenodd;fill:#C4B685;" points="333.35,51.5 324,52.8 327.35,30.15 302.7,30.8 
		288.7,24.15 314.7,16.8 345.35,28.15 	"/>
	<polygon style="fill-rule:evenodd;clip-rule:evenodd;fill:#C4B685;" points="410.15,40.3 404.7,30.15 490.75,18.35 	"/>
	<polygon style="fill-rule:evenodd;clip-rule:evenodd;fill:#C4B685;" points="378.7,40.8 392,39.5 384.7,57.5 	"/>
</g>
</svg>
