<?xml version="1.0" encoding="iso-8859-1"?>
<!-- Generator: Adobe Illustrator 15.1.0, SVG Export Plug-In . SVG Version: 6.00 Build 0)  -->
<!DOCTYPE svg PUBLIC "-//W3C//DTD SVG 1.1//EN" "http://www.w3.org/Graphics/SVG/1.1/DTD/svg11.dtd">
<svg version="1.1" id="craggyMountain_x5F_background_x5F_05.ai"
	 xmlns="http://www.w3.org/2000/svg" xmlns:xlink="http://www.w3.org/1999/xlink" x="0px" y="0px" width="19.5px" height="130.75px"
	 viewBox="0 0 19.5 130.75" style="enable-background:new 0 0 19.5 130.75;" xml:space="preserve">
<g>
	<polygon style="fill-rule:evenodd;clip-rule:evenodd;fill:#CBBC8A;" points="13,46 19.5,52 16.5,100.5 18.5,110.5 17,129.25 
		7,130.75 0.5,128.5 4,99 9,96 2,55 7,42.5 6.5,1 9.6,0.15 12,1 	"/>
	<polygon style="fill-rule:evenodd;clip-rule:evenodd;fill:#C4B685;" points="9.25,0 9,48 6,55.5 14,97.25 8.5,103.25 7,130.75 
		0,128.25 3.25,98.5 8.5,94.5 2,55 6.5,43.5 5.75,0 	"/>
	<polygon style="fill-rule:evenodd;clip-rule:evenodd;fill:#C4B685;" points="16,54.5 13.5,57 14.75,72.25 10.25,56.25 12.25,51.5 	
		"/>
	<polygon style="fill-rule:evenodd;clip-rule:evenodd;fill:#C4B685;" points="12.75,107.5 16.25,112 14.25,112 11.75,123.25 	"/>
</g>
</svg>
