<?xml version="1.0" encoding="iso-8859-1"?>
<!-- Generator: Adobe Illustrator 15.1.0, SVG Export Plug-In . SVG Version: 6.00 Build 0)  -->
<!DOCTYPE svg PUBLIC "-//W3C//DTD SVG 1.1//EN" "http://www.w3.org/Graphics/SVG/1.1/DTD/svg11.dtd">
<svg version="1.1" id="craggyMountain_x5F_background_x5F_03.ai"
	 xmlns="http://www.w3.org/2000/svg" xmlns:xlink="http://www.w3.org/1999/xlink" x="0px" y="0px" width="44px" height="274.3px"
	 viewBox="0 0 44 274.3" style="enable-background:new 0 0 44 274.3;" xml:space="preserve">
<g>
	<polygon style="fill-rule:evenodd;clip-rule:evenodd;fill:#CBBC8A;" points="36,66.3 42,108.3 22,134.3 36,152.3 32,202.3 
		42,212.3 32,274.3 10,268.3 0,172.3 10,168.3 8,104.3 22,104.3 26,2.3 44,28.3 	"/>
	<polygon style="fill-rule:evenodd;clip-rule:evenodd;fill:#C4B685;" points="24.5,0 30.5,10 31.2,108 15.15,117.35 20.5,169.35 
		14.5,175.35 17.85,212 27.85,216.7 22.5,271.35 10,268.3 0,172.3 7.85,168 5.85,103.35 22,104.3 	"/>
</g>
</svg>
