<?xml version="1.0" encoding="iso-8859-1"?>
<!-- Generator: Adobe Illustrator 15.1.0, SVG Export Plug-In . SVG Version: 6.00 Build 0)  -->
<!DOCTYPE svg PUBLIC "-//W3C//DTD SVG 1.1//EN" "http://www.w3.org/Graphics/SVG/1.1/DTD/svg11.dtd">
<svg version="1.1" id="craggyMountain_x5F_background_x5F_08.ai"
	 xmlns="http://www.w3.org/2000/svg" xmlns:xlink="http://www.w3.org/1999/xlink" x="0px" y="0px" width="834.05px"
	 height="717.1px" viewBox="0 0 834.05 717.1" style="enable-background:new 0 0 834.05 717.1;" xml:space="preserve">
<g>
	<polygon style="fill-rule:evenodd;clip-rule:evenodd;fill:#CBBC8A;" points="696,486.05 708,588.1 747,585.1 774,633.1 
		834.05,642.1 834.05,717.1 0,717.1 15,546.1 48,531.1 57,345.05 102,333.05 128.95,156.05 164.95,165.05 179.95,99.05 
		203.95,102.05 206.95,9 257.95,9 278.95,36.05 465,36.05 486,0 549,0 579,87.05 618,99.05 615,207.05 594,231.05 624,273.05 
		666,297.05 663,474.05 	"/>
	<polygon style="fill-rule:evenodd;clip-rule:evenodd;fill:#C4B685;" points="246.5,90.15 251,145.65 278,141.15 270.5,258.15 
		306.5,271.65 270.5,438.15 210.5,466.65 227,535.65 351.35,551.1 347.35,616.1 386.35,638.1 386.35,717.1 0,717.1 10.35,545.1 
		45.35,529.1 54.35,344.1 101.35,331.1 126.35,157.1 164.35,158.1 179.35,96.1 202.35,99.1 206.95,9 257.95,9 	"/>
	<polygon style="fill-rule:evenodd;clip-rule:evenodd;fill:#C4B685;" points="496.35,14.1 520.35,20.1 518.35,118.1 460.35,126.1 
		454.35,176.1 498.35,188.1 488.35,254.1 442.35,250.1 408.35,372.1 388.35,368.1 424.35,226.1 390.35,218.1 402.35,128.1 
		324.35,118.1 332.35,84.1 424.35,90.1 466.35,94.1 	"/>
	<polygon style="fill-rule:evenodd;clip-rule:evenodd;fill:#C4B685;" points="650.35,470.1 618.35,462.1 596.35,572.1 570.35,564.1 
		592.35,402.1 568.35,396.1 578.35,328.1 602.35,334.1 598.35,286.1 650.35,308.1 	"/>
	<polygon style="fill-rule:evenodd;clip-rule:evenodd;fill:#C4B685;" points="570.35,118.1 600.35,124.1 590.35,204.1 	"/>
	<polygon style="fill-rule:evenodd;clip-rule:evenodd;fill:#C4B685;" points="486.35,360.1 512.35,388.1 482.35,640.1 480.35,488.1 
		452.35,474.1 	"/>
	<polygon style="fill-rule:evenodd;clip-rule:evenodd;fill:#C4B685;" points="654.35,498.1 688.35,500.1 678.35,668.1 	"/>
	<polygon style="fill-rule:evenodd;clip-rule:evenodd;fill:#C4B685;" points="400.35,448.1 424.35,458.1 406.35,534.1 	"/>
	<polygon style="fill-rule:evenodd;clip-rule:evenodd;fill:#C4B685;" points="608.35,636.1 624.35,638.1 614.35,706.1 600.35,708.1 
			"/>
	<polygon style="fill-rule:evenodd;clip-rule:evenodd;fill:#C4B685;" points="738.35,622.1 750.35,620.1 762.35,668.1 810.35,672.1 
		812.35,706.1 748.35,704.1 	"/>
	<polygon style="fill-rule:evenodd;clip-rule:evenodd;fill:#C4B685;" points="438.35,600.1 468.35,602.1 442.35,700.1 	"/>
	<polygon style="fill-rule:evenodd;clip-rule:evenodd;fill:#C4B685;" points="546.35,276.1 520.35,206.1 578.35,214.1 	"/>
	<polygon style="fill-rule:evenodd;clip-rule:evenodd;fill:#C4B685;" points="243.5,481.65 293,468.15 303.5,432.15 324.5,435.15 
		327.5,459.15 384.5,448.65 360.5,580.65 357.5,489.15 248,502.65 	"/>
	<polygon style="fill-rule:evenodd;clip-rule:evenodd;fill:#C4B685;" points="260,87.15 278,52.65 323,52.65 327.5,67.65 281,78.15 
		285.5,108.15 308,115.65 312.5,217.65 300.5,223.65 294.5,127.65 270.5,124.65 	"/>
	<polygon style="fill-rule:evenodd;clip-rule:evenodd;fill:#C4B685;" points="360.5,246.15 381.5,247.65 368,351.15 371,364.65 
		371,438.15 344,438.15 347,379.65 356,357.15 	"/>
	<polygon style="fill-rule:evenodd;clip-rule:evenodd;fill:#C4B685;" points="326,255.15 341,256.65 311,346.65 	"/>
	<polygon style="fill-rule:evenodd;clip-rule:evenodd;fill:#C4B685;" points="473,297.15 464,328.65 444.5,330.15 459.5,279.15 
		578,294.15 579.5,309.15 	"/>
	<polygon style="fill-rule:evenodd;clip-rule:evenodd;fill:#C4B685;" points="489.5,156.15 497,141.15 582.5,132.15 584,148.65 	"/>
	<polygon style="fill-rule:evenodd;clip-rule:evenodd;fill:#C4B685;" points="536,493.65 549.5,490.65 533,555.15 554,564.15 
		534.5,685.65 515,688.65 533,582.15 510.5,583.65 	"/>
</g>
</svg>
