<?xml version="1.0" encoding="iso-8859-1"?>
<!-- Generator: Adobe Illustrator 15.1.0, SVG Export Plug-In . SVG Version: 6.00 Build 0)  -->
<!DOCTYPE svg PUBLIC "-//W3C//DTD SVG 1.1//EN" "http://www.w3.org/Graphics/SVG/1.1/DTD/svg11.dtd">
<svg version="1.1" id="craggyMountain_x5F_background_x5F_12.ai"
	 xmlns="http://www.w3.org/2000/svg" xmlns:xlink="http://www.w3.org/1999/xlink" x="0px" y="0px" width="40.45px"
	 height="154.45px" viewBox="0 0 40.45 154.45" style="enable-background:new 0 0 40.45 154.45;" xml:space="preserve">
<g>
	<polygon style="fill-rule:evenodd;clip-rule:evenodd;fill:#CBBC8A;" points="40.45,9 28.45,52.5 23.95,66 23.95,151.5 13.7,154.45 
		1.45,151.5 1.45,105 10.45,103.5 13.45,52.5 19.45,45 31.45,0 	"/>
	<polygon style="fill-rule:evenodd;clip-rule:evenodd;fill:#C4B685;" points="19.45,45 31.45,0 35,3.45 25,43.1 18.7,53.1 
		20.7,59.45 14,76.75 16,106.1 11,108.75 11.35,121.45 7.7,127.75 13.35,135.45 13.7,154.45 0,151.45 1.45,105 10.45,103.5 
		13.45,52.5 	"/>
	<polygon style="fill-rule:evenodd;clip-rule:evenodd;fill:#C4B685;" points="20.35,108.45 20.7,125.75 12.7,126.1 18.35,121.1 
		16.35,110.45 	"/>
	<polygon style="fill-rule:evenodd;clip-rule:evenodd;fill:#C4B685;" points="17.7,75.45 21.7,74.45 20,96.1 	"/>
	<polygon style="fill-rule:evenodd;clip-rule:evenodd;fill:#C4B685;" points="24.35,52.45 24,57.45 21.7,52.45 27.35,46.75 	"/>
	<polygon style="fill-rule:evenodd;clip-rule:evenodd;fill:#C4B685;" points="34.35,12.45 37,12.45 34,22.75 	"/>
</g>
</svg>
