<?xml version="1.0" encoding="iso-8859-1"?>
<!-- Generator: Adobe Illustrator 15.1.0, SVG Export Plug-In . SVG Version: 6.00 Build 0)  -->
<!DOCTYPE svg PUBLIC "-//W3C//DTD SVG 1.1//EN" "http://www.w3.org/Graphics/SVG/1.1/DTD/svg11.dtd">
<svg version="1.1" id="craggyMountain_x5F_background_x5F_04.ai"
	 xmlns="http://www.w3.org/2000/svg" xmlns:xlink="http://www.w3.org/1999/xlink" x="0px" y="0px" width="404.95px"
	 height="103.5px" viewBox="0 0 404.95 103.5" style="enable-background:new 0 0 404.95 103.5;" xml:space="preserve">
<g>
	<polygon style="fill-rule:evenodd;clip-rule:evenodd;fill:#CBBC8A;" points="404.95,28.5 397.45,57 338.95,67.5 296.95,78 
		292.5,103.5 276,90 244.5,100.5 207,73.5 156,78 90,70.5 22.5,58.5 0,0 25.5,3 61.5,27 135,31.5 192,12 271.5,19.5 295.45,40.5 
		352.45,43.5 376.45,25.5 	"/>
	<polygon style="fill-rule:evenodd;clip-rule:evenodd;fill:#C4B685;" points="276.3,81.4 292.5,103.5 276,90 245.3,102.9 
		206.3,75.9 152.8,78.4 21.8,60.4 0,0 21.3,2.9 37.8,37.9 88.3,61.4 91.3,38.4 136.3,42.4 147.3,64.9 183.8,58.9 186.8,32.4 
		196.8,33.4 196.3,46.4 213.8,46.9 249.3,92.9 	"/>
	<polygon style="fill-rule:evenodd;clip-rule:evenodd;fill:#C4B685;" points="258.8,33.4 268.8,26.9 283.8,39.4 281.8,43.9 
		268.8,39.4 243.8,36.4 240.8,44.4 252.3,78.9 226.3,43.9 230.3,25.4 	"/>
	<polygon style="fill-rule:evenodd;clip-rule:evenodd;fill:#C4B685;" points="177.3,37.4 167.3,40.4 159.8,58.4 154.3,36.4 	"/>
	<polygon style="fill-rule:evenodd;clip-rule:evenodd;fill:#C4B685;" points="80.8,51.4 74.3,36.9 85.3,37.9 	"/>
	<polygon style="fill-rule:evenodd;clip-rule:evenodd;fill:#C4B685;" points="380.8,32.9 397.3,33.9 382.3,51.9 386.8,37.9 	"/>
	<polygon style="fill-rule:evenodd;clip-rule:evenodd;fill:#C4B685;" points="313.8,53.9 300.8,67.4 303.8,48.9 353.3,49.9 	"/>
</g>
</svg>
