<?xml version="1.0" encoding="iso-8859-1"?>
<!-- Generator: Adobe Illustrator 15.1.0, SVG Export Plug-In . SVG Version: 6.00 Build 0)  -->
<!DOCTYPE svg PUBLIC "-//W3C//DTD SVG 1.1//EN" "http://www.w3.org/Graphics/SVG/1.1/DTD/svg11.dtd">
<svg version="1.1" id="buildings_1" xmlns="http://www.w3.org/2000/svg" xmlns:xlink="http://www.w3.org/1999/xlink" x="0px"
	 y="0px" width="182.7px" height="166px" viewBox="0 0 182.7 166" style="enable-background:new 0 0 182.7 166;"
	 xml:space="preserve">
<g>
	<path style="fill-rule:evenodd;clip-rule:evenodd;fill:#C2A467;" d="M177.05,5.55l5.05,1.4c-1.033,9.066-2.033,18.933-3,29.6
		c-1.866,21.367-2.533,36.083-2,44.15l5.601,81.5l-4.25,3.8c-1.967-11.866-3.934-24.3-5.9-37.3c-4-25.967-6.066-41.8-6.2-47.5
		c-0.133-5.7,1.617-20.017,5.25-42.95C173.4,26.783,175.217,15.883,177.05,5.55z"/>
	<path style="fill-rule:evenodd;clip-rule:evenodd;fill:#AB8441;" d="M174.1,36.75c-1.833,22.733-2.466,38.933-1.899,48.6
		c0.934,15.434,3.017,42.317,6.25,80.65l-177.8-4.65c2.767-43.866,4.15-73.233,4.15-88.1C4.8,63.983,4,49,2.4,28.3
		C1.6,17.933,0.8,8.5,0,0c9.467,1.1,20.15,2.183,32.05,3.25c23.867,2.167,42,3.25,54.4,3.25c19.833,0,50.033-0.317,90.6-0.95
		C176.017,14.983,175.033,25.383,174.1,36.75z"/>
	<path style="fill-rule:evenodd;clip-rule:evenodd;fill:#448793;" d="M10.3,12.7c19.467,1.9,34.133,3.283,44,4.15
		c9.833,0.867,20.65,1.3,32.45,1.3l-1.4,145.45l-76.9-2.05c0.833-6.233,1.7-13.7,2.6-22.399c1.8-17.4,2.833-32.25,3.1-44.551
		c0.267-12.3-0.3-29.649-1.7-52.05C11.783,31.383,11.067,21.433,10.3,12.7z"/>
	<path style="fill-rule:evenodd;clip-rule:evenodd;fill:#448793;" d="M164.8,42.2c-0.967,19.267-1.45,33.983-1.45,44.149
		c0,10.167,1.134,26.45,3.4,48.851c1.1,11.2,2.217,21.383,3.35,30.55l-76.649-2l1.5-145.5l13.649-0.2
		c9.867-0.133,16.667-0.267,20.4-0.4l37.25-1.3C165.783,23.95,165.3,32.567,164.8,42.2z"/>
	<path style="fill-rule:evenodd;clip-rule:evenodd;fill:#6397A3;" d="M14.45,16.85l66.8,5.45l0.55,141.2l-67.7-1.8
		c0.967-9.367,1.9-19.5,2.8-30.4c1.833-21.767,2.617-36.467,2.35-44.1C18.85,75,17.25,51.55,14.45,16.85z"/>
	<path style="fill-rule:evenodd;clip-rule:evenodd;fill:#6397A3;" d="M161.75,20.5c-0.533,9.1-1.033,18.983-1.5,29.65
		c-0.967,21.367-1.333,36-1.1,43.9c0.433,12.634,2.416,36.517,5.949,71.65L98.2,163.85L100.1,22.45l30.15-0.35
		C136.884,22.1,147.384,21.567,161.75,20.5z"/>
	<polygon style="fill-rule:evenodd;clip-rule:evenodd;fill:#293F4D;" points="73.9,91.4 76.45,91.05 75.5,113.85 72.6,113.55 	"/>
	<polygon style="fill-rule:evenodd;clip-rule:evenodd;fill:#293F4D;" points="102.95,89.9 105.2,89.55 106.5,113 102.95,113.95 	"/>
	<polygon style="fill-rule:evenodd;clip-rule:evenodd;fill:#293F4D;" points="20.25,22.65 78.05,25.85 77.1,76.9 24.1,74.35 	"/>
	<path style="fill-rule:evenodd;clip-rule:evenodd;fill:#293F4D;" d="M131.4,25.8c8.833-0.133,17.55-0.283,26.149-0.45L155,76.4
		l-52.65-1.6L103.3,26C104.366,26.133,113.733,26.067,131.4,25.8z"/>
	<path style="fill-rule:evenodd;clip-rule:evenodd;fill:#8FB3BC;" d="M51.15,27.45l-15.55-1.4l39.35,2.05v24.75
		c-0.167-3.033-0.5-6.2-1-9.5c-1-6.6-2.367-10.6-4.1-12S61.883,28.65,51.15,27.45z"/>
	<path style="fill-rule:evenodd;clip-rule:evenodd;fill:#8FB3BC;" d="M130.95,29.6l-13.25-0.7l35.8-0.15l-0.3,24.575
		c-0.055-3-0.271-6.075-0.65-9.225c-0.866-7.167-2.366-11.217-4.5-12.15C145.917,31.017,140.217,30.233,130.95,29.6z"/>
	<path style="fill-rule:evenodd;clip-rule:evenodd;fill:#448793;" d="M22.35,147c-0.2,3.566-0.917,7.9-2.15,13l-2.35,0.2
		c1.467-12.9,2.467-22.017,3-27.351c0.367-3.333,0.583-9.883,0.65-19.649l0.05-13.7l3,2.75c1.867,2.4,2.534,4.983,2,7.75
		c-0.4,2-1.216,4.583-2.45,7.75c-0.934,2.467-1.4,4.5-1.4,6.1C22.7,135.717,22.583,143.434,22.35,147z"/>
	<path style="fill-rule:evenodd;clip-rule:evenodd;fill:#448793;" d="M52.2,89.35c1.466-0.133,2.7,0.667,3.7,2.4
		c0.934,1.6,1.45,3.533,1.55,5.8c0.133,2.334-0.217,4.283-1.05,5.851c-0.967,1.767-2.367,2.633-4.2,2.6
		c-3.6-0.066-5.1-2.816-4.5-8.25c0.233-2.1,0.783-3.983,1.65-5.65C50.25,90.366,51.2,89.45,52.2,89.35z M53.35,98
		c1.467-0.066,2.133-0.75,2-2.05c-0.133-1.334-0.85-2.033-2.15-2.101c-1.633-0.133-2.4,0.551-2.3,2.051S51.817,98.1,53.35,98z"/>
	<path style="fill-rule:evenodd;clip-rule:evenodd;fill:#448793;" d="M65.05,137.7c1.534-0.367,2.35,0.666,2.45,3.1
		c0.067,2.4-0.75,3.634-2.45,3.7c-1.833,0.066-2.816-0.934-2.95-3C61.933,139.434,62.917,138.167,65.05,137.7z"/>
	<path style="fill-rule:evenodd;clip-rule:evenodd;fill:#448793;" d="M27.05,118.2c1.267-0.2,1.967,1.717,2.1,5.75
		c0.133,4-0.8,5.8-2.8,5.399c-2-0.399-2.733-2.316-2.2-5.75C24.65,120.2,25.617,118.4,27.05,118.2z"/>
	<path style="fill-rule:evenodd;clip-rule:evenodd;fill:#448793;" d="M30.05,107.2l2.5,7.3l-0.2,5.4c-0.2,3.933-0.367,6.8-0.5,8.6
		c-0.133,1.967-0.667,3.866-1.6,5.7c-0.667,1.267-1.633,2.7-2.9,4.3c-0.8,1-1.233,3.167-1.3,6.5c-0.133,4.9-0.2,7.4-0.2,7.5
		c-0.333,2.566-1,5.066-2,7.5c0.233-7.767,0.566-13.816,1-18.15c0.233-2.267,0.983-4.25,2.25-5.949c1.367-1.867,2.233-3.767,2.6-5.7
		c0.466-2.566,0.667-7.167,0.6-13.8L30.05,107.2z"/>
	<polygon style="fill-rule:evenodd;clip-rule:evenodd;fill:#448793;" points="29.85,141 30.7,141 31.7,159.2 29.7,157.7 	"/>
	<path style="fill-rule:evenodd;clip-rule:evenodd;fill:#448793;" d="M17.2,19.85l1.5,6.8c0.466,5.9,0.95,11.983,1.45,18.25
		c0.967,12.533,1.483,19.733,1.55,21.6c0.1,3-0.184,12.667-0.85,29c-0.533-12.667-0.75-22.117-0.65-28.35
		C20.3,60.95,19.3,45.183,17.2,19.85z"/>
	<path style="fill-rule:evenodd;clip-rule:evenodd;fill:#448793;" d="M24.7,77l0.15,5.05c0.233,3.733,0.633,6.5,1.2,8.3L28.7,98.7
		l-1.15,6.649l-0.5-4.649c-1.466-4.233-2.3-7.566-2.5-10c-0.133-1.533-0.15-4.283-0.05-8.25L24.7,77z"/>
	<path style="fill-rule:evenodd;clip-rule:evenodd;fill:#448793;" d="M28.35,77.85l2.2,0.15l-0.35,6.2c-0.1,2-0.434,5.6-1,10.8
		c0-1.767-0.217-3.366-0.65-4.8c-0.267-0.9-0.383-3.233-0.35-7L28.35,77.85z"/>
	<path style="fill-rule:evenodd;clip-rule:evenodd;fill:#448793;" d="M33.7,79.7l0.85,4.5l-0.85,5.95c-0.6,4.3-0.934,7.316-1,9.05
		c-0.1,3,0.733,6.55,2.5,10.649c0.5,1.167,0.733,3.084,0.7,5.75c0,1.2-0.117,3.567-0.35,7.101c-0.233,3-0.966,8.1-2.2,15.3
		c0.8-12.434,1.133-20.1,1-23c-0.033-1.333-0.533-3.15-1.5-5.45c-0.934-2.3-1.434-4.483-1.5-6.55c-0.067-2.434,0.3-7.05,1.1-13.85
		L33.7,79.7z"/>
	<path style="fill-rule:evenodd;clip-rule:evenodd;fill:#448793;" d="M45.35,91.85l-0.05,4.7c0.067,3.434,0.417,5.917,1.05,7.45
		c0.767,1.833,1.717,3.283,2.85,4.35c1.167,1.101,2.333,1.65,3.5,1.65c0.966,0,2.433-0.917,4.4-2.75l2.6-2.75l-4.35,6.2
		c-0.8,1.233-1.467,3.2-2,5.899c-0.6,2.934-0.817,5.733-0.65,8.4c0.233,3.767-0.05,16.05-0.85,36.85l-1.3-0.35l0.8-37.8
		c0.2-7.267-1.567-12.767-5.3-16.5c-1.6-1.601-2.2-4.634-1.8-9.101L45.35,91.85z"/>
	<path style="fill-rule:evenodd;clip-rule:evenodd;fill:#448793;" d="M36.55,89.7l1.8-1.851l-1.2,8.551
		c-0.833,5.433-1.433,7.416-1.8,5.949c-0.333-1.466-0.233-4.017,0.3-7.649L36.55,89.7z"/>
	<path style="fill-rule:evenodd;clip-rule:evenodd;fill:#448793;" d="M39.05,94.85l0.6,2.5c0.4,1.9,0.633,3.517,0.7,4.851
		c0.133,2.1-0.133,11.767-0.8,29l-1.5,11.149c0-7.666,0.05-13.283,0.15-16.85L39.05,94.85z"/>
	<polygon style="fill-rule:evenodd;clip-rule:evenodd;fill:#448793;" points="35.7,139.35 34.35,151.35 34.55,139.2 	"/>
	<path style="fill-rule:evenodd;clip-rule:evenodd;fill:#448793;" d="M44.85,112c1.467-0.167,2.267,1.767,2.4,5.8
		c0.1,4.033-0.533,6.05-1.9,6.05c-1.333,0-2.083-1.933-2.25-5.8C42.933,114.184,43.517,112.167,44.85,112z"/>
	<polygon style="fill-rule:evenodd;clip-rule:evenodd;fill:#448793;" points="47.05,158.7 45.05,159.7 47.55,127.35 	"/>
	<polygon style="fill-rule:evenodd;clip-rule:evenodd;fill:#448793;" points="43.2,125.2 44.4,127.2 42.55,144 	"/>
	<polygon style="fill-rule:evenodd;clip-rule:evenodd;fill:#448793;" points="40.55,141.5 40.55,160.5 37.85,160 	"/>
	<path style="fill-rule:evenodd;clip-rule:evenodd;fill:#448793;" d="M40.7,78.85l2-1.85c-0.333,12.134-0.833,18.134-1.5,18
		C40.533,94.9,40.367,89.517,40.7,78.85z"/>
	<path style="fill-rule:evenodd;clip-rule:evenodd;fill:#448793;" d="M69.85,79.85L70.55,95c0,0.333-0.083,7.434-0.25,21.3
		c-0.167,12.134-0.083,19.101,0.25,20.9c0.367,1.866-0.033,4.217-1.2,7.05c-0.633,1.5-1.467,3.25-2.5,5.25
		c-0.533,1.467-0.133,5.533,1.2,12.2l-2.5-0.2c-0.066-1.967-0.066-4.017,0-6.15c0.1-4.233,0.434-6.733,1-7.5
		c0.833-1.133,1.417-2.383,1.75-3.75c0.434-1.866,0.45-4.116,0.05-6.75c-0.3-2.267-0.967-4.283-2-6.05
		c-1.267-2.133-1.983-3.5-2.15-4.1c-0.3-1.033,0.117-2.851,1.25-5.45c1.333-3.066,2.033-5.917,2.1-8.55
		c0.067-3.134,0.467-9.634,1.2-19.5L69.85,79.85z"/>
	<path style="fill-rule:evenodd;clip-rule:evenodd;fill:#448793;" d="M78.55,104.5l1,2.7l-0.25,9.2
		c-0.133,6.633-0.167,11.233-0.1,13.8c0.1,4.1,0.1,11.316,0,21.649l-1.85-0.35L78.55,104.5z"/>
	<path style="fill-rule:evenodd;clip-rule:evenodd;fill:#448793;" d="M55.85,116.2l0.05,7.649c0.1,5.5,0.25,9.284,0.45,11.351
		c0.333,3.333,0.45,11.767,0.35,25.3l-1.35-0.3L54.7,134.85c-0.067-2.433,0.1-6.267,0.5-11.5L55.85,116.2z"/>
	<path style="fill-rule:evenodd;clip-rule:evenodd;fill:#448793;" d="M64.85,78.35l1.7,4l-0.25,9
		c-0.133,6.534-0.167,11.084-0.1,13.65c0.066,2.6-0.383,5.767-1.35,9.5c-0.5,1.866-1,3.483-1.5,4.85c0.9-5.333,1.35-9.833,1.35-13.5
		L64.85,78.35z"/>
	<path style="fill-rule:evenodd;clip-rule:evenodd;fill:#448793;" d="M59.35,112.5l1.2,9.35c0.133,0.834,0.434,2.267,0.9,4.301
		c0.367,1.899,0.45,3.517,0.25,4.85c-0.333,2.233-1.284,6.35-2.85,12.35L59.35,112.5z"/>
	<path style="fill-rule:evenodd;clip-rule:evenodd;fill:#448793;" d="M61.2,145.35l0.05,2.75c0,2-0.067,3.417-0.2,4.25
		c-0.233,1.334,0.034,4.551,0.8,9.65l-1.65-0.3l-0.15-7.351c0-0.767,0.2-2.5,0.6-5.199L61.2,145.35z"/>
	<polygon style="fill-rule:evenodd;clip-rule:evenodd;fill:#448793;" points="74.55,154.35 73.35,151.35 72.85,119 	"/>
	<path style="fill-rule:evenodd;clip-rule:evenodd;fill:#448793;" d="M69.85,149.35c0.667,0,1.1,1.7,1.3,5.101
		c0.233,3.366-0.083,5.05-0.95,5.05c-0.934,0-1.45-1.684-1.55-5.05C68.55,151.05,68.95,149.35,69.85,149.35z"/>
	<path style="fill-rule:evenodd;clip-rule:evenodd;fill:#448793;" d="M58.85,79.35l2.5,2.5l0.45,5.05
		c0.3,3.566,0.383,5.833,0.25,6.8c-0.233,1.533-0.566,5.866-1,13c-0.333-4.467-0.667-8.967-1-13.5
		C59.35,84.167,58.95,79.55,58.85,79.35z"/>
	<polygon style="fill-rule:evenodd;clip-rule:evenodd;fill:#448793;" points="48.05,77 49.85,78 47.7,88.2 	"/>
	<polygon style="fill-rule:evenodd;clip-rule:evenodd;fill:#448793;" points="54.55,78.85 55.85,79.2 57.2,86.7 55.35,86 	"/>
	<polygon style="fill-rule:evenodd;clip-rule:evenodd;fill:#448793;" points="77.85,97.35 79.025,42.875 79.05,99.2 	"/>
	<path style="fill-rule:evenodd;clip-rule:evenodd;fill:#448793;" d="M101.2,24.5l1,4.5l-0.65,25.7
		c-0.1,4.533-0.05,16.133,0.15,34.8l-1.851,7.2v-13C99.85,80.7,100.3,60.967,101.2,24.5z"/>
	<path style="fill-rule:evenodd;clip-rule:evenodd;fill:#448793;" d="M158.55,22.85l1.3,6.35c-0.366,8.1-0.716,16.433-1.05,25
		c-0.733,17.2-1.1,27.083-1.1,29.649c0,4.101,0.783,18.767,2.35,44l-2.2-1.5c-1-27.433-1.433-43.05-1.3-46.85L158.55,22.85z"/>
	<path style="fill-rule:evenodd;clip-rule:evenodd;fill:#448793;" d="M108.35,93.35l0.851-4l0.85,10.7
		c0.533,7.601,0.7,12.584,0.5,14.95c-0.166,2.033-1.366,5.767-3.6,11.2c-2.101,5.166-3.134,8.217-3.101,9.149
		c0.134,2,0.034,10.95-0.3,26.851l-2,0.149c0.767-13.566,1.101-22.017,1-25.35c-0.066-2.434-0.316-5.3-0.75-8.6
		c-0.399-3.233-0.767-5.367-1.1-6.4c-0.267-0.833-0.351-4.8-0.25-11.9L100.7,99.7l1,2.5l0.1,8.3c0.2,5.967,0.717,10.134,1.55,12.5
		c0.867,2.5,1.801,2.8,2.801,0.9c0.5-0.967,1.3-3.434,2.399-7.4c0.634-2.2,0.783-6.717,0.45-13.55L108.35,93.35z"/>
	<path style="fill-rule:evenodd;clip-rule:evenodd;fill:#448793;" d="M109.2,131c1.533,0,2.816,1.1,3.85,3.3
		c0.934,2,1.467,4.384,1.601,7.15c0.1,2.833-0.267,5.149-1.101,6.95c-0.899,2-2.233,2.866-4,2.6c-3.333-0.5-4.666-3.983-4-10.45
		c0.233-2.434,0.733-4.633,1.5-6.6S108.533,131,109.2,131z M112.75,141.8c-0.267-4.533-1.333-6.8-3.2-6.8
		c-1.566,0-2.333,2.4-2.3,7.2c0.066,4.767,1.05,7.033,2.95,6.8C112.167,148.767,113.017,146.366,112.75,141.8z"/>
	<polygon style="fill-rule:evenodd;clip-rule:evenodd;fill:#448793;" points="106.2,151.15 107.85,154.5 109.05,161.85 
		107.2,161.85 	"/>
	<path style="fill-rule:evenodd;clip-rule:evenodd;fill:#448793;" d="M116.35,148.2c-0.6,2.633-1.199,4.517-1.8,5.649
		c-0.5,0.9-0.767,2.65-0.8,5.25c0,1.301,0.033,2.5,0.1,3.601h-1.8c-0.233-1.334-0.383-2.75-0.45-4.25
		c-0.133-2.967,0.184-4.834,0.95-5.601c1.066-1.066,1.851-2.449,2.351-4.149c0.699-2.2,1.133-5.367,1.3-9.5
		c0.133-3.733,0.2-8.717,0.2-14.95L116.35,116l1,3.35l0.25,8.9c0.101,6.333,0.084,10.483-0.05,12.45
		C117.384,142.967,116.983,145.467,116.35,148.2z"/>
	<path style="fill-rule:evenodd;clip-rule:evenodd;fill:#448793;" d="M113.75,90c0.066,6.167,0.267,10.283,0.6,12.35
		c0.367,2.134,0.467,6.067,0.301,11.801c-0.101,3.767-0.25,6.949-0.45,9.55c-0.101,1.333-0.101,4.6,0,9.8
		c-1.767-2.2-2.767-3.8-3-4.8c-0.101-0.434,0.25-2.417,1.05-5.95c0.866-3.866,1.3-6.667,1.3-8.4c0-2.033-0.2-8.633-0.6-19.8
		l-0.601-16.2l1.351,3L113.75,90z"/>
	<path style="fill-rule:evenodd;clip-rule:evenodd;fill:#448793;" d="M104.05,77l3.3,0.2v8c0,1.333-0.166,5.05-0.5,11.149
		c-0.199-5.1-0.416-8.716-0.649-10.85c-0.134-1.3-0.533-3.117-1.2-5.45L104.05,77z"/>
	<path style="fill-rule:evenodd;clip-rule:evenodd;fill:#448793;" d="M115.7,77.7l1.35-0.2L117,79.45
		c0.033,1.533,0.15,2.883,0.35,4.05c0.134,0.833,0.601,1.733,1.4,2.7c0.667,0.866,1.033,1.967,1.1,3.3
		c0.067,1.233-0.366,2.566-1.3,4c-0.899,1.434-1.3,2.767-1.2,4c0.233,2.467,0.301,8.083,0.2,16.85l-0.85-2.649L115.7,77.7z"/>
	<path style="fill-rule:evenodd;clip-rule:evenodd;fill:#448793;" d="M143.2,90.15c3.033,0.233,4.566,2.416,4.6,6.55
		c0,1.666-0.35,3.083-1.05,4.25c-0.8,1.267-1.866,1.899-3.2,1.899c-2.7,0-3.967-2.149-3.8-6.449c0.066-1.7,0.4-3.167,1-4.4
		C141.417,90.7,142.233,90.083,143.2,90.15z"/>
	<path style="fill-rule:evenodd;clip-rule:evenodd;fill:#448793;" d="M155.55,154.85c1,0.2,1.65-0.6,1.95-2.399
		c0.3-1.733-0.25-2.483-1.65-2.25c-1.3,0.2-1.916,0.983-1.85,2.35C154.033,153.884,154.55,154.65,155.55,154.85z M154.7,145.7
		c1.233-0.066,2.316,0.717,3.25,2.35c0.899,1.533,1.467,3.367,1.7,5.5c0.233,2.233,0.033,4.101-0.601,5.601
		c-0.733,1.699-1.899,2.55-3.5,2.55c-2.434,0-4.333-0.816-5.7-2.45c-1.199-1.434-1.8-3.217-1.8-5.35c0-2.101,0.584-3.934,1.75-5.5
		C151.033,146.733,152.667,145.833,154.7,145.7z"/>
	<path style="fill-rule:evenodd;clip-rule:evenodd;fill:#448793;" d="M152.55,79.5l2.15,7.5l0.3,7.3
		c0.233,5.2,0.417,8.667,0.55,10.4c0.233,2.767,0.283,14.366,0.15,34.8l2.149,1.9c1.534,1.533,2.65,2.966,3.351,4.3
		c0.7,1.3,0.983,4.616,0.85,9.95c-0.033,2.633-0.149,5.149-0.35,7.55l-1.5-0.351c0.233-1.899,0.399-3.966,0.5-6.199
		c0.233-4.4,0.066-7.334-0.5-8.801c-0.566-1.466-1.717-2.899-3.45-4.3l-2.4-1.7c0.233-19,0.233-30.449,0-34.35L152.55,79.5z"/>
	<path style="fill-rule:evenodd;clip-rule:evenodd;fill:#448793;" d="M121.55,105l0.05,9.15c0.034,6.767,0.017,11.883-0.05,15.35
		c-0.033,2.8-0.149,5.7-0.35,8.7c0.066,2.066,0.733,4.333,2,6.8c1.267,2.434,2.066,6,2.399,10.7c0.167,2.333,0.2,4.434,0.101,6.3
		l-1.851,0.2L123.2,151c-0.066-0.967-0.584-2.134-1.55-3.5l-1.45-1.8c-0.334-10.8-0.45-18.084-0.351-21.851
		c0.101-2.366,0.051-7.433-0.149-15.199L119.35,97.7L121.55,105z"/>
	<polygon style="fill-rule:evenodd;clip-rule:evenodd;fill:#448793;" points="118.2,148.7 120.35,149.35 118.35,159.5 	"/>
	<path style="fill-rule:evenodd;clip-rule:evenodd;fill:#448793;" d="M121.85,79.7l2,3.15l-0.199,2.5c-0.101,1.9-0.084,3.4,0.05,4.5
		c0.233,1.767,0.85,7.434,1.85,17l-1.5,8L121.85,79.7z"/>
	<path style="fill-rule:evenodd;clip-rule:evenodd;fill:#448793;" d="M134.85,117.85c1.867,0.334,2.75,2.25,2.65,5.75
		c-0.134,3.467-1.066,5.167-2.8,5.101c-1.634-0.101-2.4-2-2.3-5.7C132.533,119.3,133.35,117.583,134.85,117.85z"/>
	<path style="fill-rule:evenodd;clip-rule:evenodd;fill:#448793;" d="M137.35,89.7l0.351,5.6c0.366,3.967,0.866,6.434,1.5,7.4
		c0.366,0.566,1.35,1.616,2.95,3.149c1.366,1.367,2.333,2.65,2.899,3.851c0.634,1.333,0.983,4.316,1.05,8.95
		c0.067,2.533,0.051,5.816-0.05,9.85c0,8.2,0.5,12.533,1.5,13c0.867,0.467,1.367,2.417,1.5,5.85c-0.2,0.134-0.416,0.317-0.649,0.551
		c-0.5,0.466-0.851,0.899-1.051,1.3c-0.333,0.666-0.55,2.05-0.649,4.149l-2.851,3.851c0.801-17.134,1.084-27.867,0.851-32.2
		c0.133-4.566,0.116-7.95-0.05-10.15c-0.301-3.8-1.5-6.466-3.601-8c-2.1-1.566-3.366-4.816-3.8-9.75
		C136.95,93.4,136.983,90.934,137.35,89.7z"/>
	<path style="fill-rule:evenodd;clip-rule:evenodd;fill:#448793;" d="M147.85,77.5h1.851l0.35,10c0.3,6.8,0.517,10.583,0.65,11.35
		c0.166,0.801,0.083,4.784-0.25,11.95c-0.267,6.467-0.517,11.101-0.75,13.9c-0.233,2.866-0.184,8.2,0.149,16
		c-0.399-1.667-0.783-3.5-1.149-5.5c-0.733-4.033-0.95-6.934-0.65-8.7c0.367-2.3,0.75-6.167,1.15-11.6
		c0.399-5.867,0.566-10.267,0.5-13.2c-0.066-2.634-0.4-7.467-1-14.5L147.85,77.5z"/>
	<path style="fill-rule:evenodd;clip-rule:evenodd;fill:#448793;" d="M153.05,124.2c0.101,3.866-0.017,7.75-0.35,11.649
		c-0.767-3.1-1.267-6.149-1.5-9.149c-0.134-1.867-0.017-7.184,0.35-15.95l0.65-12.55L153.05,124.2z"/>
	<path style="fill-rule:evenodd;clip-rule:evenodd;fill:#448793;" d="M140.85,109.85c0.9,0.4,1.267,2.067,1.101,5
		c-0.066,1.601-0.2,3.884-0.4,6.851c0.101,2.333,0.2,9,0.3,20l-1.8,4.649l0.8-16c0.101-1.699,0-6-0.3-12.899
		C140.316,112.15,140.417,109.616,140.85,109.85z"/>
	<path style="fill-rule:evenodd;clip-rule:evenodd;fill:#448793;" d="M138.85,78.2l1.2-0.2l0.45,5.8
		c0.134,3.867-0.184,5.834-0.95,5.9s-1.116-1.834-1.05-5.7L138.85,78.2z"/>
	<polygon style="fill-rule:evenodd;clip-rule:evenodd;fill:#448793;" points="144.55,78.7 146.2,78.2 144.7,86.35 	"/>
	<path style="fill-rule:evenodd;clip-rule:evenodd;fill:#448793;" d="M126.55,78.35l1.5,0.85l0.05,2.3c0.034,1.8,0.117,3.467,0.25,5
		l1,10.7l-2,6L126.55,78.35z"/>
	<path style="fill-rule:evenodd;clip-rule:evenodd;fill:#448793;" d="M124.2,119.35l0.399,11.101
		c0.134,7.366-0.116,10.95-0.75,10.75c-0.633-0.2-0.767-3.9-0.399-11.101L124.2,119.35z"/>
	<path style="fill-rule:evenodd;clip-rule:evenodd;fill:#448793;" d="M128.2,107.85l0.35,8c0.3,5.601,0.517,9.101,0.65,10.5
		c0.233,2.2,0.184,10.867-0.15,26l-1.5-4.35L128.2,107.85z"/>
	<path style="fill-rule:evenodd;clip-rule:evenodd;fill:#448793;" d="M131.85,80.85l1.2,1.85L133,89.2
		c0.033,4.733,0.15,8.116,0.35,10.149c0.267,2.5,0.334,6.017,0.2,10.551c-0.166,4.633-0.45,7.233-0.85,7.8
		c-0.367,0.467-0.884,1.75-1.55,3.85c-0.367,1.033-0.684,2.017-0.95,2.95c0.333-6.767,0.883-11.7,1.649-14.8
		c0.5-1.967,0.65-7.367,0.45-16.2L131.85,80.85z"/>
	<polygon style="fill-rule:evenodd;clip-rule:evenodd;fill:#448793;" points="137.7,117.35 135.7,115 135.35,92.2 	"/>
	<polygon style="fill-rule:evenodd;clip-rule:evenodd;fill:#448793;" points="142.7,164.2 141.05,163.85 142.35,147.35 	"/>
	<polygon style="fill-rule:evenodd;clip-rule:evenodd;fill:#448793;" points="134.55,162 132.35,161.2 132.2,130.7 	"/>
	<polygon style="fill-rule:evenodd;clip-rule:evenodd;fill:#448793;" points="136.35,131.85 138.05,132.5 136.7,153.35 	"/>
</g>
</svg>
