<?xml version="1.0" encoding="iso-8859-1"?>
<!-- Generator: Adobe Illustrator 15.1.0, SVG Export Plug-In . SVG Version: 6.00 Build 0)  -->
<!DOCTYPE svg PUBLIC "-//W3C//DTD SVG 1.1//EN" "http://www.w3.org/Graphics/SVG/1.1/DTD/svg11.dtd">
<svg version="1.1" id="Isolation_Mode" xmlns="http://www.w3.org/2000/svg" xmlns:xlink="http://www.w3.org/1999/xlink" x="0px"
	 y="0px" width="111.5px" height="187.6px" viewBox="0 0 111.5 187.6" style="enable-background:new 0 0 111.5 187.6;"
	 xml:space="preserve">
<g>
	
		<linearGradient id="SVGID_1_" gradientUnits="userSpaceOnUse" x1="10.4263" y1="-73.7578" x2="46.1263" y2="-73.7578" gradientTransform="matrix(2.801121e-005 1 -1 -0.001 3.881155e-004 1.441466e-004)">
		<stop  offset="0" style="stop-color:#D3CCB7"/>
		<stop  offset="1" style="stop-color:#AC9E76"/>
	</linearGradient>
	<path style="fill-rule:evenodd;clip-rule:evenodd;fill:url(#SVGID_1_);" d="M108.6,39.85c2.767,8.933,3.567,35.667,2.4,80.2
		c-0.566,22.267-1.417,43.65-2.55,64.15l-5.55,3.399L36,6.95l2.7-1.35c2.3-1.067,4.783-2,7.45-2.8C54.583,0.2,63-0.583,71.4,0.45
		c9.8,1.233,17.55,4.983,23.25,11.25C99.95,17.533,104.6,26.917,108.6,39.85z"/>
	<path style="fill-rule:evenodd;clip-rule:evenodd;fill:#8B7C53;" d="M105.75,69.9c0.967,13.633,0.783,37.333-0.55,71.1
		c-0.667,16.9-1.434,32.434-2.3,46.6L0,186.2c0.5-16.9,1.15-34.617,1.95-53.15C3.517,95.983,5.067,73.367,6.6,65.2
		c3.2-20.9,9.267-36.883,18.2-47.95C34.6,5.15,47.233-0.2,62.7,1.2C76,2.4,86.566,10.55,94.4,25.65
		C100.767,37.917,104.55,52.667,105.75,69.9z"/>
	<path style="fill-rule:evenodd;clip-rule:evenodd;fill:#628F94;" d="M10.9,93.1c3.333-26.467,8.667-46.417,16-59.85
		c9.167-16.8,21.167-22.9,36-18.3c26.133,8.133,39.133,39.35,39,93.649c-0.034,16.967-1.384,35.217-4.051,54.75
		c-1.3,9.801-2.616,17.884-3.949,24.25l-86.45-1.25c-0.4-7.966-0.55-17.833-0.45-29.6C7.2,133.217,8.5,112,10.9,93.1z"/>
	<path style="fill-rule:evenodd;clip-rule:evenodd;fill:#85A7AC;" d="M25.3,71.1c7.967-28.333,21.15-39.317,39.55-32.95
		c17.634,6.1,25.667,32.833,24.101,80.2c-0.767,23.7-3.316,46.784-7.65,69.25l-63.75-0.949c-0.167-6.867-0.3-14.434-0.4-22.7
		c-0.2-16.566-0.083-28.351,0.35-35.351C19.067,103.1,21.667,83.933,25.3,71.1z"/>
	<path style="fill-rule:evenodd;clip-rule:evenodd;fill:#495352;" d="M40.8,126.5c-1.233,1.6-2.983,2.35-5.25,2.25
		c-2.233-0.1-3.883-1.033-4.95-2.8c-0.9-1.566-1.233-3.483-1-5.75c0.2-2.2,0.85-4.066,1.95-5.601c1.2-1.633,2.583-2.383,4.15-2.25
		c1.966,0.167,3.583,1.134,4.85,2.9c1.133,1.634,1.733,3.55,1.8,5.75C42.417,123.2,41.9,125.033,40.8,126.5z"/>
	<path style="fill-rule:evenodd;clip-rule:evenodd;fill:#628F94;" d="M69.2,93.35c1.967,0.333,2.733-0.533,2.3-2.6
		c-0.467-2.067-1.55-3.183-3.25-3.35c-1.033-0.133-1.6,0.75-1.7,2.65C66.483,91.95,67.366,93.05,69.2,93.35z M70,80.65
		c1.467,0.267,2.717,1.967,3.75,5.1c0.967,2.933,1.517,6.35,1.65,10.25c0.133,4-0.233,7.333-1.101,10c-0.967,3-2.399,4.5-4.3,4.5
		c-1.934,0-3.533-1.634-4.8-4.9c-1.134-2.966-1.75-6.517-1.851-10.649c-0.1-4.2,0.384-7.65,1.45-10.35
		C66,81.567,67.733,80.25,70,80.65z"/>
	<path style="fill-rule:evenodd;clip-rule:evenodd;fill:#628F94;" d="M80.65,87.65c1.6,5.6,2.149,10.25,1.649,13.95
		c-0.467,3.334-0.833,10.417-1.1,21.25c-0.167,5.7-0.316,12.5-0.45,20.4c-0.066,1.733,0.45,5.333,1.55,10.8
		c0.934,4.634,1.066,8.167,0.4,10.601c-0.601,2.166-1.533,3.866-2.8,5.1c-1.134,1.134-1.834,2.483-2.101,4.05
		c-0.5,3.2-0.916,7.783-1.25,13.75L72.6,186.9c0.667-3.101,1.351-6.75,2.051-10.95c1.466-8.4,2.383-15.3,2.75-20.7
		c0.233-3.233,0.399-11.983,0.5-26.25c0.1-11.967,0.483-19.833,1.149-23.6c0.867-4.867,0.867-9.551,0-14.05
		c-0.767-3.967-2.333-8.283-4.7-12.95C72.45,74.667,71.3,68.033,70.9,58.5V45.35L72.35,58.9c1.233,9.434,2.45,15.184,3.65,17.25
		C77.767,79.183,79.316,83.017,80.65,87.65z"/>
	<polygon style="fill-rule:evenodd;clip-rule:evenodd;fill:#628F94;" points="85.9,108.15 82.4,138.1 83.4,108.5 	"/>
	<path style="fill-rule:evenodd;clip-rule:evenodd;fill:#628F94;" d="M77.7,53.9l0.149,6c0.233,4.4,0.7,7.6,1.4,9.6
		c1.1,3.133,1.684,5.533,1.75,7.2c-0.833-2.133-1.684-4.534-2.55-7.2c-1.767-5.333-2.767-9.3-3-11.9
		c-0.267-2.967-0.101-4.783,0.5-5.45C76.517,51.517,77.1,52.1,77.7,53.9z"/>
	<path style="fill-rule:evenodd;clip-rule:evenodd;fill:#628F94;" d="M29.85,148.25c0.833-3.333,1.2-5.45,1.1-6.35
		c-0.2-1.467-0.55-3.534-1.05-6.2l-0.7-3.55l2.9-0.051l0.15,2c0.133,1.601,0.35,3.101,0.65,4.5c0.2,0.934,1.333,2.9,3.4,5.9
		c2.067,2.934,3.25,5.3,3.55,7.1c0.267,1.7-0.733,3.851-3,6.45c-2.467,2.834-3.75,5.033-3.85,6.601
		c-0.267,3.267,0.117,10.25,1.15,20.949l-2.85,0.65c-0.033-2.8-0.283-5.917-0.75-9.35c-0.633-4.733-1.2-11.034-1.7-18.9
		C28.65,155,28.983,151.75,29.85,148.25z"/>
	<path style="fill-rule:evenodd;clip-rule:evenodd;fill:#628F94;" d="M37.6,173.9c0.1,4.166,1.1,6.35,3,6.55
		c1.833,0.2,2.483-1.884,1.95-6.25c-0.5-4.367-1.4-6.55-2.7-6.55C38.283,167.684,37.533,169.767,37.6,173.9z M40.25,164.6
		c2.667,0.134,4.05,3.2,4.15,9.2c0.033,2.434-0.25,4.467-0.85,6.101c-0.667,1.833-1.583,2.699-2.75,2.6
		c-1.167-0.1-2.283-1.116-3.35-3.05c-0.967-1.8-1.6-3.867-1.9-6.2c-0.3-2.5-0.117-4.533,0.55-6.1
		C36.933,165.35,38.317,164.5,40.25,164.6z"/>
	<path style="fill-rule:evenodd;clip-rule:evenodd;fill:#628F94;" d="M35.2,53.05L33.8,70.1c-0.9,12.2-1.183,20.283-0.85,24.25
		c0.5,6.167,0.867,11.15,1.1,14.95c-1.167-3.733-2.05-8.733-2.65-15c-0.467-5.033-0.667-9.716-0.6-14.05
		c0.034-2.967,0.767-8.383,2.2-16.25L35.2,53.05z"/>
	<path style="fill-rule:evenodd;clip-rule:evenodd;fill:#628F94;" d="M51.1,53.3l2.4-8.15c0.3,7.6,0.517,15.717,0.65,24.35
		c0.267,17.267,0.017,28.517-0.75,33.75c-0.8,5.6-0.933,13.417-0.4,23.45c0.467,9.166,1.15,15.35,2.05,18.55
		c0.634,2.3,0.634,6.167,0,11.6c-0.333,2.7-0.716,5.184-1.15,7.45c-0.167-1.066-0.45-2.083-0.85-3.05
		c-0.767-1.9-1.65-2.55-2.65-1.95c-1.033,0.601-1.783,1.533-2.25,2.8c-0.233,0.667-0.367,1.25-0.4,1.75
		c-0.167-0.733-0.25-1.733-0.25-3c-0.033-2.533,0.3-5.066,1-7.6c1.233-4.366,1.983-7.167,2.25-8.4c0.6-2.899,0.883-5.833,0.85-8.8
		c-0.033-4.166-0.017-10.5,0.05-19c0.067-9.733,0.167-16.833,0.3-21.3c0.133-4.233,0.033-12.583-0.3-25.05L51.1,53.3z"/>
	<path style="fill-rule:evenodd;clip-rule:evenodd;fill:#628F94;" d="M50.75,163.4c1.4-0.034,2.083,1.716,2.05,5.25
		c-0.033,3.5-0.8,5.083-2.3,4.75c-1.6-0.334-2.383-2.084-2.35-5.25C48.15,164.983,49.017,163.4,50.75,163.4z"/>
	<path style="fill-rule:evenodd;clip-rule:evenodd;fill:#628F94;" d="M74.75,111.5l1.7-2.35L73.35,117.8
		c-2.066,6.434-3,11.316-2.8,14.65c0.334,5.2,0.434,12.5,0.3,21.899c-0.666-1.866-1.1-1.483-1.3,1.15
		c-0.133,1.3-0.184,2.783-0.149,4.45c-2.934,15.733-4.417,23.383-4.45,22.95c1.6-12.767,2.5-20.017,2.7-21.75
		c0.233-1.733,0.399-6.15,0.5-13.25c0.1-8-0.034-13.934-0.4-17.801c-0.366-3.767-1.05-6.983-2.05-9.649
		c-1.233-2.733-2.184-4.834-2.851-6.3c-0.8-1.867-1.233-5.034-1.3-9.5l0.2-6.15l0.9,5.95c1.267,4.233,3.6,6.967,7,8.2
		C71.55,113.35,73.25,112.967,74.75,111.5z"/>
	<path style="fill-rule:evenodd;clip-rule:evenodd;fill:#628F94;" d="M72.975,165.775L71.5,181.55l-2.75,3.351
		c0.934-3.934,1.833-7.834,2.7-11.7C72.133,170.082,72.641,167.606,72.975,165.775z"/>
	<polygon style="fill-rule:evenodd;clip-rule:evenodd;fill:#628F94;" points="58.8,51.75 62,44.55 58.9,90.3 	"/>
	<path style="fill-rule:evenodd;clip-rule:evenodd;fill:#628F94;" d="M58.3,126.25l1.8,10.4c1.233,7.5,1.917,12.75,2.051,15.75
		c0.166,4.733-0.351,10.267-1.551,16.6l-3.3-0.7c0.634-1.934,1.25-4.133,1.851-6.6c1.166-4.934,1.6-8.684,1.3-11.25
		c-0.3-2.601-0.75-7.417-1.351-14.45L58.3,126.25z"/>
	<polygon style="fill-rule:evenodd;clip-rule:evenodd;fill:#628F94;" points="57.3,186 54.85,185.8 55.65,172.7 	"/>
	<path style="fill-rule:evenodd;clip-rule:evenodd;fill:#628F94;" d="M45.45,57.05l-1.25,11.4c-0.8,8.433-1.117,14.816-0.95,19.15
		c0.267,6.7,0.35,14.25,0.25,22.65c-1.267-1.667-2.55-2.583-3.85-2.75c-0.8-0.1-1.35,0.017-1.65,0.35
		c-0.097,0.121-0.155,0.237-0.175,0.351c1.053-9.352,1.861-15.902,2.425-19.65c0.367-2.4,0.983-9.517,1.85-21.35l1.2-17.05
		L45.45,57.05z"/>
	<polygon style="fill-rule:evenodd;clip-rule:evenodd;fill:#628F94;" points="47.4,119.6 45.85,144.8 45.4,118.55 	"/>
	<polygon style="fill-rule:evenodd;clip-rule:evenodd;fill:#628F94;" points="22.35,101.5 24.65,153.15 20.55,117 	"/>
	<polygon style="fill-rule:evenodd;clip-rule:evenodd;fill:#628F94;" points="20.3,149.5 22.4,184.7 19.95,184.7 	"/>
</g>
</svg>
