<?xml version="1.0" encoding="iso-8859-1"?>
<!-- Generator: Adobe Illustrator 15.1.0, SVG Export Plug-In . SVG Version: 6.00 Build 0)  -->
<!DOCTYPE svg PUBLIC "-//W3C//DTD SVG 1.1//EN" "http://www.w3.org/Graphics/SVG/1.1/DTD/svg11.dtd">
<svg version="1.1" id="door_x5F_asset_x5F_yellowPurple.ai"
	 xmlns="http://www.w3.org/2000/svg" xmlns:xlink="http://www.w3.org/1999/xlink" x="0px" y="0px" width="97.95px"
	 height="150.15px" viewBox="0 0 97.95 150.15" style="enable-background:new 0 0 97.95 150.15;" xml:space="preserve">
<g>
	<path style="fill-rule:evenodd;clip-rule:evenodd;fill:#F8CC77;" d="M4.8,29.25c1.833-5.7,5.1-10.867,9.8-15.5
		C19.233,9.183,24.733,5.7,31.1,3.3C45.533-2.133,59.583-0.9,73.25,7c15.6,9.067,23.8,35.65,24.6,79.75
		c0.4,22.033-0.767,43.167-3.5,63.4L16.2,145.6C11.733,134.2,7.917,120.8,4.75,105.4C-1.617,74.6-1.6,49.217,4.8,29.25z"/>
	<path style="fill-rule:evenodd;clip-rule:evenodd;fill:#60383E;" d="M92,95.6c0,7.5-1.5,25.584-4.5,54.25L22.2,146.2
		c-2.8-7.5-5.617-16.217-8.45-26.15C8.117,100.116,5.3,84,5.3,71.7c0-15.567,2.467-27.667,7.4-36.3
		c5.433-9.566,14.216-15.583,26.35-18.05c12.4-2.533,22.2-1.85,29.4,2.05c6.866,3.7,12.217,10.833,16.05,21.4
		c3.233,8.934,5.417,19.233,6.55,30.9C91.684,78.2,92,86.167,92,95.6z"/>
	<path style="fill-rule:evenodd;clip-rule:evenodd;fill:#9B535C;" d="M76.8,34.95C82.9,45.083,86.4,60.017,87.3,79.75
		c0.634,14.066-0.066,29.833-2.1,47.3c-1.033,8.733-2.117,16.05-3.25,21.95l-54.8-3c-2.066-4.667-4.3-10.583-6.7-17.75
		c-4.867-14.3-8.184-27.634-9.95-40c-5.733-39.6,4.883-62.133,31.85-67.6C57.717,17.55,69.2,22.317,76.8,34.95z"/>
	<path style="fill-rule:evenodd;clip-rule:evenodd;fill:#60383E;" d="M74.65,87.15c2.066-0.534,3.633-0.2,4.699,1
		c0.934,1.033,1.384,2.533,1.351,4.5c-0.033,1.8-0.434,3.433-1.2,4.899c-0.833,1.533-1.816,2.3-2.95,2.3
		c-4.434,0-6.717-1.899-6.85-5.699c-0.066-1.567,0.35-3,1.25-4.301C71.884,88.45,73.116,87.55,74.65,87.15z"/>
	<path style="fill-rule:evenodd;clip-rule:evenodd;fill:#8A4C54;" d="M37.85,127.05c1.767-0.133,2.417-1.95,1.95-5.45
		c-0.5-3.5-1.433-5.017-2.8-4.55c-1.2,0.434-1.783,2.233-1.75,5.4C35.25,125.65,36.117,127.184,37.85,127.05z M42.95,116.35
		c1.533,2.934,2.633,6.167,3.3,9.7c0.767,3.9,0.733,7.033-0.1,9.4c-0.967,2.767-2.967,4.05-6,3.85c-3.066-0.2-5.417-1.8-7.05-4.8
		c-1.434-2.634-2.117-5.866-2.05-9.7c0.067-3.7,0.784-6.816,2.15-9.35c1.466-2.767,3.3-4.033,5.5-3.8
		C39.967,111.783,41.383,113.35,42.95,116.35z"/>
	<path style="fill-rule:evenodd;clip-rule:evenodd;fill:#8A4C54;" d="M67.25,44.9c1-0.066,1.9,0.533,2.7,1.8
		c0.767,1.167,1.233,2.566,1.399,4.2c0.5,4.133-0.683,6.133-3.55,6c-3-0.133-4.583-2.117-4.75-5.95c-0.1-1.567,0.2-2.917,0.9-4.05
		C64.717,45.667,65.816,45,67.25,44.9z"/>
	<path style="fill-rule:evenodd;clip-rule:evenodd;fill:#8A4C54;" d="M32.45,48.35c2.667,0.133,3.95-2.233,3.85-7.1
		c-0.1-4.867-1.383-7.45-3.85-7.75c-0.767-0.067-1.467,0.65-2.1,2.15c-0.6,1.4-0.967,3.083-1.1,5.05
		C28.85,45.667,29.917,48.217,32.45,48.35z M33.3,31.5c1.5,0.333,2.717,1.7,3.65,4.1c0.867,2.233,1.3,4.767,1.3,7.6
		c-0.033,2.9-0.55,5.25-1.55,7.05c-1.167,2.033-2.784,2.917-4.85,2.65c-2.067-0.267-3.567-1.617-4.5-4.05
		c-0.8-2.167-1.05-4.733-0.75-7.7c0.3-2.9,1.033-5.283,2.2-7.15C30.1,31.967,31.6,31.133,33.3,31.5z"/>
	<path style="fill-rule:evenodd;clip-rule:evenodd;fill:#8A4C54;" d="M41.55,35.5l0.55,3.3c0.333,2.567,0.433,4.8,0.3,6.7
		c-0.1,1.867-0.883,4.517-2.35,7.95c-0.8,1.833-1.816,4.117-3.05,6.85c-0.467,1.3-0.417,2.684,0.15,4.15c0.4,1,1.3,3.233,2.7,6.7
		c0.967,2.733,1.35,5.833,1.15,9.3c-0.067,1.733-0.25,3.2-0.55,4.399c0.133-1.466,0.15-2.966,0.05-4.5
		c-0.267-3.033-1.05-4.667-2.35-4.899c-1.3-0.233-2.217,2.45-2.75,8.05C35.133,86.3,35,89.134,35,92
		c-0.567-11.033-1.317-19.6-2.25-25.7c-0.567-3.533-1.717-6.066-3.45-7.6c-2.8-2.434-4.517-4.167-5.15-5.2
		c-1.533-2.5-2.283-6.95-2.25-13.35l0.55-8.9l0.45,3.9c0.267,3.067,0.4,5.85,0.4,8.35c0,2.9,0.817,5.433,2.45,7.6
		c1.533,2.033,3.567,3.5,6.1,4.4c2.233,0.767,4.2-0.067,5.9-2.5c1.433-2.067,2.333-4.567,2.7-7.5L41.55,35.5z"/>
	<path style="fill-rule:evenodd;clip-rule:evenodd;fill:#8A4C54;" d="M14.5,51.75l-0.4,9.05c-0.267,6.667-0.333,11.55-0.2,14.65
		c0.133,3.1,2.883,15.434,8.25,37c2.667,10.8,5.333,21.283,8,31.45l-2.25-0.851c-2.467-9.366-5-19.217-7.6-29.55
		c-5.2-20.7-8.1-33.483-8.7-38.35s-0.3-10.233,0.9-16.1L14.5,51.75z"/>
	<path style="fill-rule:evenodd;clip-rule:evenodd;fill:#8A4C54;" d="M21.65,59c2.9,9.733,4.4,15.967,4.5,18.7l1.45,36.8
		c-2.467-16.533-3.983-27.65-4.55-33.35c-0.367-3.567-1.417-10.634-3.15-21.2L17.35,45.2L21.65,59z"/>
	<polygon style="fill-rule:evenodd;clip-rule:evenodd;fill:#8A4C54;" points="17.35,69.45 22.2,102.25 17.35,79.7 	"/>
	<path style="fill-rule:evenodd;clip-rule:evenodd;fill:#8A4C54;" d="M37.85,95.1l-0.1,3.851c-0.233,2.866-0.767,5.017-1.6,6.45
		c-2.867,4.866-4.667,8.666-5.4,11.399c-0.567,2.101-0.767,7.233-0.6,15.4c-0.367-1.9-0.667-4.066-0.9-6.5
		c-0.467-4.834-0.35-8.566,0.35-11.2c0.667-2.4,1.717-5.083,3.15-8.05c1.4-2.9,2.15-4.584,2.25-5.05c0.267-0.967,0.817-2.301,1.65-4
		L37.85,95.1z"/>
	<polygon style="fill-rule:evenodd;clip-rule:evenodd;fill:#8A4C54;" points="30.15,72.3 31.85,98.55 29,83.15 	"/>
	<path style="fill-rule:evenodd;clip-rule:evenodd;fill:#8A4C54;" d="M46.45,39l-0.3-10.9l4.25,32.2
		c0.366,2.867,0.566,10.067,0.6,21.601c0.033,6.1,0.033,13.449,0,22.05c0,3.1,0.616,7.45,1.85,13.05c0.634,2.8,1.25,5.3,1.851,7.5
		l-4.851,20.25l-2.3-64.45c-0.1-4.133-0.5-7.017-1.2-8.65c-1-1.566-1.833-2.967-2.5-4.2c-1.8-3.367-1.417-7.934,1.15-13.7
		C45.967,51.617,46.45,46.7,46.45,39z"/>
	<path style="fill-rule:evenodd;clip-rule:evenodd;fill:#8A4C54;" d="M42.7,88.85l1.35,0.7c0.967,0.8,1.567,2.084,1.8,3.851
		c0.367,2.866,0.267,9.233-0.3,19.1L42.7,88.85z"/>
	<path style="fill-rule:evenodd;clip-rule:evenodd;fill:#8A4C54;" d="M56.7,25.8l0.85,38.5c0.066,1.767,0.667,5.917,1.8,12.45
		c0.733,4.267,0.601,7.066-0.399,8.4c-1.367,1.833-2.816,2.383-4.351,1.649c-1.566-0.733-2.017-2.517-1.35-5.35
		c0.634-2.634,1.05-6.583,1.25-11.85c0.134-3.033,0.2-7.55,0.2-13.55c0-5.533-1.05-16.466-3.15-32.8l3.4,10.55L56.7,25.8z"/>
	<polygon style="fill-rule:evenodd;clip-rule:evenodd;fill:#8A4C54;" points="57.25,99.1 60.4,95.1 59.25,119.65 	"/>
	<path style="fill-rule:evenodd;clip-rule:evenodd;fill:#8A4C54;" d="M67.25,95.7l-0.9,7.1c-0.533,5.434-0.616,10-0.25,13.7
		c0.567,5.9,2.284,15.316,5.15,28.25l-3.45-6l-2.25-8.25l-6.6,12.8c0.633-1.6,1.3-3.6,2-6c1.366-4.8,2.233-9.166,2.6-13.1
		c0.367-3.9,0.334-11.767-0.1-23.601L62.7,84L67.25,95.7z"/>
	<path style="fill-rule:evenodd;clip-rule:evenodd;fill:#8A4C54;" d="M79.5,147.85l-2,0.301c0.566-4.367,1.417-8.267,2.55-11.7
		c0.733-2.134,1.384-8.467,1.95-19l0.65-15.2c1.533,3.7,1.466,12.4-0.2,26.1C81.616,135.217,80.634,141.717,79.5,147.85z"/>
	<path style="fill-rule:evenodd;clip-rule:evenodd;fill:#8A4C54;" d="M70.35,104.25l3.75,7.4l3.7-8.25l-0.55,6.75
		c-0.4,4.866-0.783,8.316-1.15,10.35c-0.6,3.233-1.366,9.5-2.3,18.8c-0.2-6.633-0.583-12.05-1.149-16.25L70.35,104.25z"/>
	<path style="fill-rule:evenodd;clip-rule:evenodd;fill:#8A4C54;" d="M81.2,57.45c0.6,2.5,0.883,7.533,0.85,15.1
		c-0.033,3.8-0.116,7.334-0.25,10.601c-1.533-7.034-2.399-13.4-2.6-19.101C79.1,60.483,78.167,55.8,76.4,50L73.8,42.35l3.2,5.3
		C79.233,51.717,80.634,54.983,81.2,57.45z"/>
	<path style="fill-rule:evenodd;clip-rule:evenodd;fill:#8A4C54;" d="M61.65,51.4c0.699,3.367,1.699,5.583,3,6.65
		c1.3,1.067,3.133,1.333,5.5,0.8c1.166-0.267,2.199-0.633,3.1-1.1c-0.9,0.633-1.8,1.4-2.7,2.3c-1.767,1.8-2.583,3.417-2.45,4.85
		c0.2,2.267,1.617,7.4,4.25,15.4L67.5,83.15c-0.434-2.9-0.967-5.934-1.6-9.101c-1.267-6.333-2.434-10.15-3.5-11.45
		c-1.067-1.3-1.634-4.35-1.7-9.15l0.25-6.8L61.65,51.4z"/>
	<polygon style="fill-rule:evenodd;clip-rule:evenodd;fill:#8A4C54;" points="62.95,28.65 66.4,34.35 64.4,42.65 	"/>
</g>
</svg>
