<?xml version="1.0" encoding="iso-8859-1"?>
<!-- Generator: Adobe Illustrator 15.1.0, SVG Export Plug-In . SVG Version: 6.00 Build 0)  -->
<!DOCTYPE svg PUBLIC "-//W3C//DTD SVG 1.1//EN" "http://www.w3.org/Graphics/SVG/1.1/DTD/svg11.dtd">
<svg version="1.1" id="door_x5F_asset_x5F_yellowPurple2.ai"
	 xmlns="http://www.w3.org/2000/svg" xmlns:xlink="http://www.w3.org/1999/xlink" x="0px" y="0px" width="97.05px" height="148px"
	 viewBox="0 0 97.05 148" style="enable-background:new 0 0 97.05 148;" xml:space="preserve">
<g>
	<polygon style="fill-rule:evenodd;clip-rule:evenodd;fill:#F8CC77;" points="0,147.75 2.95,0 97.05,0.35 63.45,147.75 	"/>
	<polygon style="fill-rule:evenodd;clip-rule:evenodd;fill:#60383E;" points="1.35,148 6.4,5.55 92.4,5.55 60,147.7 	"/>
	<polygon style="fill-rule:evenodd;clip-rule:evenodd;fill:#9B535C;" points="6.15,146 13.15,11.25 84.45,10.05 56,145.05 	"/>
	<path style="fill-rule:evenodd;clip-rule:evenodd;fill:#8A4C54;" d="M29.55,32.75c0.867,3.4,0.767,7.867-0.3,13.4
		c-0.433,2.2-1.6,6.667-3.5,13.4c-0.9,3.133-1.35,9.767-1.35,19.9c-0.033,5.3-0.05,11.7-0.05,19.2
		c-0.267,4.6-1.467,20.183-3.6,46.75l-1.6-0.25l3.6-46.25c0.367-4.767,0.417-12.267,0.15-22.5c-0.267-8.734-0.583-15.3-0.95-19.7
		c-0.867-9.9-0.8-17.417,0.2-22.55c0.8-4.1,1.4-11.05,1.8-20.85l1.6-1.4C26.883,20.567,28.217,27.517,29.55,32.75z M25.75,36.55
		c-1.467,0.434-2.1,2.15-1.9,5.15c0.167,2.966,0.8,4.566,1.9,4.8c1.1,0.267,1.75-1.45,1.95-5.15
		C27.9,37.717,27.25,36.117,25.75,36.55z"/>
	<path style="fill-rule:evenodd;clip-rule:evenodd;fill:#8A4C54;" d="M35.95,58.85c0.633-0.133,1.183,0.6,1.65,2.2
		c0.467,1.534,0.7,3.333,0.7,5.4c0,5.333-1.316,8.166-3.95,8.5c-2.7,0.333-3.583-2.184-2.65-7.55c0.367-2.1,0.95-4,1.75-5.7
		C34.283,59.933,35.117,58.983,35.95,58.85z"/>
	<path style="fill-rule:evenodd;clip-rule:evenodd;fill:#8A4C54;" d="M15.85,98.35c0.433,7.634,0.6,12.884,0.5,15.75
		c-0.067,2.5-0.4,5.017-1,7.551c-0.6,2.6-0.934,4.583-1,5.949c-0.133,3.167-0.267,8.15-0.4,14.95c-0.133-0.633-0.3-1.2-0.5-1.7
		c-0.4-1.033-0.767-1.267-1.1-0.699l-1,1.899c1.333-11.833,2.2-20.684,2.6-26.55c0.267-3.634,0.55-9.35,0.85-17.15l0.35-10.6
		L15.85,98.35z"/>
	<path style="fill-rule:evenodd;clip-rule:evenodd;fill:#8A4C54;" d="M19.95,96.8l-1.2-19.95c-0.233-4.233-0.367-10.167-0.4-17.8
		V48.9l0.7,10c0.534,7.267,0.967,12.383,1.3,15.35C20.883,78.983,20.75,86.5,19.95,96.8z"/>
	<path style="fill-rule:evenodd;clip-rule:evenodd;fill:#8A4C54;" d="M17.75,14.5c1.033-0.367,1.433,2.95,1.2,9.95
		c-0.267,7-0.934,10.55-2,10.65c-1.1,0.133-1.5-3.167-1.2-9.9C16.017,18.433,16.683,14.867,17.75,14.5z"/>
	<polygon style="fill-rule:evenodd;clip-rule:evenodd;fill:#8A4C54;" points="14.35,74 12.95,74 15.15,42.95 	"/>
	<path style="fill-rule:evenodd;clip-rule:evenodd;fill:#8A4C54;" d="M79.6,22.35c-1.233,7.2-2.316,11.7-3.25,13.5
		c-1.1,2.133-2.283,5.617-3.55,10.45c-1.3,4.833-2.05,8.617-2.25,11.35c-0.267,3.633-1.399,12.167-3.399,25.6h-2
		c2.133-13.433,3.733-23.067,4.8-28.9c0.967-5.367,1.633-9.133,2-11.3c0.533-3.433,0.934-6.7,1.2-9.8
		C73.417,30.383,74.366,25.967,76,20c0.8-3,1.583-5.7,2.35-8.1l2.801,0.2C80.717,15.333,80.2,18.75,79.6,22.35z"/>
	<path style="fill-rule:evenodd;clip-rule:evenodd;fill:#8A4C54;" d="M31.15,15.7c2.533,8.533,3.733,14.133,3.6,16.8
		C34.683,34.167,34.1,37.667,33,43c-0.633,3.133-1.717,8.417-3.25,15.85c-0.9,4.633-1.267,8.433-1.1,11.4
		c0.067,1.5,0.233,2.517,0.5,3.05l-1.8,0.25c0-5.367,0.2-9.4,0.6-12.1c0.9-4.534,1.7-8.55,2.4-12.05
		c1.3-6.767,2.033-11.683,2.2-14.75C32.817,29.583,32.35,23.267,31.15,15.7z"/>
	<path style="fill-rule:evenodd;clip-rule:evenodd;fill:#8A4C54;" d="M25.15,124.05l2.4-39.149l1,26.1
		C28.683,112.9,27.55,117.25,25.15,124.05z"/>
	<path style="fill-rule:evenodd;clip-rule:evenodd;fill:#8A4C54;" d="M46.65,125.6c0.233,1.067,0.867,1.417,1.9,1.051
		c1.066-0.367,1.601-1.217,1.601-2.551c0-1.333-0.667-1.666-2-1C46.95,123.7,46.45,124.533,46.65,125.6z M49.15,117.15
		c1.133-0.267,2.05,0.666,2.75,2.8c0.633,1.967,0.966,4.434,1,7.399c0.066,7.4-1.184,11.284-3.75,11.65
		c-1.234,0.167-2.3-0.783-3.2-2.85c-0.8-1.934-1.267-4.317-1.4-7.15C44.25,121.934,45.783,117.983,49.15,117.15z"/>
	<path style="fill-rule:evenodd;clip-rule:evenodd;fill:#8A4C54;" d="M36.95,84.45v13.1c0.033,9.033,0.167,14.384,0.4,16.05
		c0.4,2.7-0.4,12.434-2.4,29.2l-2.4,0.2c2.4-15.8,3.534-25.983,3.4-30.55c-0.067-2.867,0.083-8.4,0.45-16.601L36.95,84.45z"/>
	<path style="fill-rule:evenodd;clip-rule:evenodd;fill:#8A4C54;" d="M63.75,17.15c0.566-3.066,0.967-4.75,1.2-5.05
		c0.133-0.167-0.101,2.55-0.7,8.15c-0.767,6.633-1.066,11.2-0.9,13.7c0.233,3.767-0.017,7.883-0.75,12.35
		c-0.8,4.8-1.75,6.767-2.85,5.9c-0.866-0.7-0.866-2.867,0-6.5c1.3-5.567,2.033-9.65,2.2-12.25c0.267-3.934,0.017-8.517-0.75-13.75
		l-1.25-6.65l3,8.55C63.184,20.133,63.45,18.65,63.75,17.15z"/>
	<polygon style="fill-rule:evenodd;clip-rule:evenodd;fill:#8A4C54;" points="63.55,75.45 61.35,75.45 69.55,26.35 	"/>
	<path style="fill-rule:evenodd;clip-rule:evenodd;fill:#8A4C54;" d="M49.75,16.4c1.2,8.2,1.8,14.117,1.8,17.75
		c0,2.733,0.217,6.117,0.65,10.15c0.434,4,0.95,7.417,1.55,10.25c0.5,2.3,0.116,4.65-1.15,7.05c-0.699,1.3-1.649,2.983-2.85,5.05
		c-0.4,1.3-0.816,6.783-1.25,16.45c-0.233,4.867-0.417,9.584-0.55,14.15l-1.8-0.7c1.067-14.866,2-25.533,2.8-32
		C49.75,58.05,50.017,42,49.75,16.4z"/>
	<path style="fill-rule:evenodd;clip-rule:evenodd;fill:#8A4C54;" d="M42.75,13.8l2.4-0.25c-0.233,3.8-0.45,7.833-0.65,12.1
		c-0.4,8.6-0.517,14.133-0.35,16.6c0.267,3.933,0.2,12.3-0.2,25.1l-2,0.25c0.4-2.2,0.767-4.717,1.1-7.55
		c0.667-5.633,0.833-9.983,0.5-13.05c-0.333-3.067-0.566-9.517-0.7-19.35C42.783,22.717,42.75,18.1,42.75,13.8z"/>
	<path style="fill-rule:evenodd;clip-rule:evenodd;fill:#8A4C54;" d="M37.95,16.85l2-0.2c-0.667,16.267-1.067,25.117-1.2,26.55
		c-0.1,1.033,0.067,3.117,0.5,6.25c0.433,3.1,1,6.3,1.7,9.6c0.6,2.767,0.483,6.133-0.35,10.1c-0.434,1.967-0.917,3.667-1.45,5.1
		l-1.4,0.7c1.2-7.1,1.867-11.767,2-14c0.067-1.067-0.317-2.9-1.15-5.5c-0.833-2.534-1.184-4.333-1.05-5.4
		C37.817,48.017,37.95,36.95,37.95,16.85z"/>
	<path style="fill-rule:evenodd;clip-rule:evenodd;fill:#8A4C54;" d="M31.95,80.9l1.8,4.5l-0.6,26.55
		c-0.133,2.833-1,11.3-2.6,25.399h-3.2c2.133-10.933,3.6-19.399,4.4-25.399c0.5-3.733,0.683-10.033,0.55-18.9L31.95,80.9z"/>
	<polygon style="fill-rule:evenodd;clip-rule:evenodd;fill:#8A4C54;" points="41.55,80.9 42.55,80.4 41.375,123.925 	"/>
	<polygon style="fill-rule:evenodd;clip-rule:evenodd;fill:#8A4C54;" points="54.15,67.6 56.35,66.65 49.55,106.5 	"/>
	<path style="fill-rule:evenodd;clip-rule:evenodd;fill:#8A4C54;" d="M62.55,86.8l2.4,0.25l-0.601,3.8
		c-0.466,2.733-0.866,4.634-1.199,5.7c-0.434,1.467-1.267,5.5-2.5,12.101c-1.301,7.033-2.134,12.25-2.5,15.649
		c-0.534,4.9-1.934,11.134-4.2,18.7l-2.4-0.45c2.8-8.866,4.4-14.717,4.8-17.55c0.367-2.467,0.95-5.833,1.75-10.1
		c0.934-4.867,1.817-8.934,2.65-12.2c0.767-2.967,1.3-6.5,1.6-10.601L62.55,86.8z"/>
	<path style="fill-rule:evenodd;clip-rule:evenodd;fill:#8A4C54;" d="M47.15,107.2c1.333-2.367,2.4-5.017,3.2-7.95l0.801-3.65
		l0.35,5.4c0.333,4.033,0.75,7.134,1.25,9.3c0.8,3.467,1.066,8.45,0.8,14.95c-0.267-3.5-0.6-6.116-1-7.85
		c-0.333-1.434-1.05-2.5-2.149-3.2c-1.2-0.8-2.417-0.75-3.65,0.149c-1.067,0.767-1.917,3.367-2.55,7.801
		c-0.333,2.199-0.55,4.333-0.65,6.399c-0.533-4.899-0.533-8.767,0-11.6c0.333-1.8,1.034-3.967,2.1-6.5L47.15,107.2z"/>
	<g>
		<path style="fill-rule:evenodd;clip-rule:evenodd;fill:#60383E;" d="M60.45,77.75c1.399-0.134,2.483,0.333,3.25,1.4
			c0.7,0.933,1.033,2.133,1,3.6c-0.066,1.434-0.483,2.65-1.25,3.65c-0.834,1.1-1.917,1.6-3.25,1.5c-3.066-0.2-4.483-1.867-4.25-5
			C56.15,79.733,57.65,78.017,60.45,77.75z"/>
		<path style="fill-rule:evenodd;clip-rule:evenodd;fill:#C97E84;" d="M61.85,79.05c1.5,1.233,2.15,2.584,1.95,4.05
			c-0.2,1.301-0.684,1.983-1.45,2.051c-0.466,0.033-0.633-0.233-0.5-0.801c0.067-0.233,0.301-0.8,0.7-1.699
			c0.2-0.467,0.15-1.2-0.149-2.2L61.85,79.05z"/>
		<g>
			<path style="fill-rule:evenodd;clip-rule:evenodd;fill:#492D31;" d="M58.45,82.4c0.2,1.533,0.967,2.616,2.3,3.25
				c1.134,0.533,2.167,0.583,3.1,0.149c-0.8,1.5-2.017,2.2-3.649,2.101c-2.9-0.2-4.316-1.784-4.25-4.75
				c0.066-2.967,1.383-4.733,3.95-5.301l-0.9,1C58.434,79.816,58.25,81,58.45,82.4z"/>
		</g>
	</g>
</g>
</svg>
