<?xml version="1.0" encoding="iso-8859-1"?>
<!-- Generator: Adobe Illustrator 15.1.0, SVG Export Plug-In . SVG Version: 6.00 Build 0)  -->
<!DOCTYPE svg PUBLIC "-//W3C//DTD SVG 1.1//EN" "http://www.w3.org/Graphics/SVG/1.1/DTD/svg11.dtd">
<svg version="1.1" id="door_x5F_asset_x5F_tree.ai" xmlns="http://www.w3.org/2000/svg" xmlns:xlink="http://www.w3.org/1999/xlink"
	 x="0px" y="0px" width="101.9px" height="141.05px" viewBox="0 0 101.9 141.05" style="enable-background:new 0 0 101.9 141.05;"
	 xml:space="preserve">
<g>
	<path style="fill-rule:evenodd;clip-rule:evenodd;fill:#564933;" d="M95.15,51.3c1,16.967,3.25,46.384,6.75,88.25l-100.95,1.5
		c3.5-7.967,7.133-17.217,10.9-27.75c7.6-21.066,12.183-37.983,13.75-50.75c0.667-5.333,1.217-12.667,1.65-22
		c0.433-9.033,0.883-15.316,1.35-18.85c0.8-6.067,2.183-10.717,4.15-13.95c2.3-3.8,5.65-6.233,10.05-7.3
		c4.534-1.1,9.816-0.267,15.851,2.5c5.699,2.566,11.3,6.466,16.8,11.7c5.5,5.3,10,11.083,13.5,17.35
		C92.717,38.733,94.783,45.167,95.15,51.3z"/>
	<path style="fill-rule:evenodd;clip-rule:evenodd;fill:#706243;" d="M93.85,91.8c1.134,15.367,2.067,30.283,2.801,44.75l-88.25,2
		c1.867-4.3,3.967-9.55,6.3-15.75c4.6-12.366,7.983-23.233,10.15-32.6c1.5-6.434,3.15-21.8,4.95-46.1
		c1.534-20.2,3.383-31.25,5.55-33.15c0.833-0.733,2.05-2.034,3.65-3.9c1.267-1.466,2.35-2.483,3.25-3.05
		c2.6-1.6,6.767-1.283,12.5,0.95c6.434,2.5,13.05,7.367,19.85,14.6C80.934,26.25,85.3,32.6,87.7,38.6
		C89.566,43.267,91.616,61,93.85,91.8z"/>
	<polygon style="fill-rule:evenodd;clip-rule:evenodd;fill:#C6B696;" points="24.5,31.5 37.4,30.35 34.75,38.95 23.35,38.95 	"/>
	<polygon style="fill-rule:evenodd;clip-rule:evenodd;fill:#C6B696;" points="11.75,105.55 26.55,105.35 25.8,111.35 9.15,111.5 	
		"/>
	<polygon style="fill-rule:evenodd;clip-rule:evenodd;fill:#C6B696;" points="9.35,112.85 26,112.65 25.25,116.4 8.8,115.05 	"/>
	<polygon style="fill-rule:evenodd;clip-rule:evenodd;fill:#C6B696;" points="7.85,116.95 25.6,117.7 24.3,123.3 6,122.9 	"/>
	<polygon style="fill-rule:evenodd;clip-rule:evenodd;fill:#C6B696;" points="22.8,28.3 26.15,26.8 24.85,52.8 22.25,52.6 	"/>
	<polygon style="fill-rule:evenodd;clip-rule:evenodd;fill:#C6B696;" points="24.3,39.9 34.6,40.45 34.2,44.2 24.5,43.65 	"/>
	<polygon style="fill-rule:evenodd;clip-rule:evenodd;fill:#C6B696;" points="24.85,45.9 33.45,45.5 33.85,49.45 24.5,49.45 	"/>
	<polygon style="fill-rule:evenodd;clip-rule:evenodd;fill:#C6B696;" points="9.7,102.35 12.9,101.8 6.15,126.1 0,125.75 	"/>
	<path style="fill-rule:evenodd;clip-rule:evenodd;fill:#564933;" d="M23.35,107.05c0.933,0,1.333,0.517,1.2,1.55
		c-0.133,1-0.783,1.417-1.95,1.25c-1.133-0.199-1.517-0.716-1.15-1.55C21.817,107.467,22.45,107.05,23.35,107.05z"/>
	<path style="fill-rule:evenodd;clip-rule:evenodd;fill:#564933;" d="M23.2,113.55c0.633-0.066,0.933,0.25,0.9,0.95
		s-0.333,0.95-0.9,0.75c-0.6-0.2-0.934-0.5-1-0.9C22.167,113.95,22.5,113.684,23.2,113.55z"/>
	<path style="fill-rule:evenodd;clip-rule:evenodd;fill:#564933;" d="M22.25,119c1.133,0.1,1.583,0.583,1.35,1.45
		c-0.2,0.866-0.717,1.25-1.55,1.149c-0.767-0.066-1.133-0.533-1.1-1.399C20.95,119.333,21.383,118.934,22.25,119z"/>
	<path style="fill-rule:evenodd;clip-rule:evenodd;fill:#564933;" d="M32.9,32.8c1.067-0.1,1.467,0.417,1.2,1.55
		c-0.233,1.1-0.75,1.65-1.55,1.65c-0.767,0-1.117-0.517-1.05-1.55C31.567,33.417,32.033,32.867,32.9,32.8z"/>
	<path style="fill-rule:evenodd;clip-rule:evenodd;fill:#564933;" d="M32.15,41.05c0.867-0.167,1.317,0.133,1.35,0.9
		c0.033,0.767-0.233,1.15-0.8,1.15c-0.467,0-0.8-0.317-1-0.95C31.5,41.517,31.65,41.15,32.15,41.05z"/>
	<path style="fill-rule:evenodd;clip-rule:evenodd;fill:#564933;" d="M31.8,46.25c0.7-0.067,1.017,0.25,0.95,0.95
		c-0.067,0.733-0.383,1.1-0.95,1.1c-0.6,0-0.95-0.316-1.05-0.95C30.683,46.717,31.033,46.35,31.8,46.25z"/>
	<path style="fill-rule:evenodd;clip-rule:evenodd;fill:#504733;" d="M82.55,89.7c1.2-0.233,2.667,0.783,4.4,3.05
		c1.633,2.167,2.399,3.833,2.3,5c-0.066,1.2-0.866,2.25-2.4,3.15c-1.633,0.933-3.399,1.166-5.3,0.699
		c-1.899-0.466-3.2-1.616-3.899-3.449c-0.634-1.7-0.567-3.284,0.199-4.75c0.7-1.334,1.7-2.351,3-3.051
		C81.483,90.017,82.05,89.8,82.55,89.7z"/>
	<path style="fill-rule:evenodd;clip-rule:evenodd;fill:#C6B696;" d="M84.25,89.55c1.566,0,2.85,0.584,3.85,1.75
		c0.934,1.033,1.434,2.3,1.5,3.8c0.067,1.5-0.333,2.75-1.199,3.75c-1,1.101-2.417,1.617-4.25,1.551
		c-1.834-0.067-3.25-0.667-4.25-1.801c-0.9-1.033-1.317-2.283-1.25-3.75c0.1-1.433,0.616-2.649,1.55-3.649
		C81.267,90.1,82.616,89.55,84.25,89.55z"/>
	<path style="fill-rule:evenodd;clip-rule:evenodd;fill:#E8E0D0;" d="M85.1,91.2c0.801-0.334,1.65,0.25,2.551,1.75
		c0.899,1.5,0.816,2.383-0.25,2.649c-1.034,0.233-1.884-0.35-2.551-1.75C84.184,92.45,84.267,91.566,85.1,91.2z"/>
	<path style="fill-rule:evenodd;clip-rule:evenodd;fill:#B19B73;" d="M87.3,98.85c-0.233,0.267-0.6,0.517-1.1,0.75
		c-0.967,0.434-2.05,0.534-3.25,0.301c-2.566-0.534-3.8-2.15-3.7-4.851c0.066-1,0.3-1.833,0.7-2.5c0.2-0.333,0.6-0.833,1.2-1.5
		l-0.301,1.9c-0.066,1.5,0.233,2.8,0.9,3.899c0.634,1.134,1.75,1.801,3.35,2C85.9,98.983,86.634,98.983,87.3,98.85z"/>
	<path style="fill-rule:evenodd;clip-rule:evenodd;fill:#83704C;" d="M70,36c1.333,0,2.566,1.05,3.7,3.15
		c1.033,1.967,1.684,4.267,1.95,6.9c0.233,2.767-0.067,5.05-0.9,6.85c-0.967,2.033-2.55,3.033-4.75,3
		c-2.2-0.066-3.884-1.133-5.05-3.2c-1.066-1.867-1.533-4.15-1.4-6.85c0.101-2.633,0.7-4.9,1.8-6.8C66.583,37.017,68.134,36,70,36z
		 M72.95,48.7c-0.101-1.934-0.934-2.967-2.5-3.1c-1.634-0.133-2.417,0.85-2.351,2.95c0.034,2.067,0.884,3.1,2.551,3.1
		C72.316,51.65,73.083,50.667,72.95,48.7z"/>
	<path style="fill-rule:evenodd;clip-rule:evenodd;fill:#83704C;" d="M61.75,109.25c2.033,0.1,3.533,1.1,4.5,3
		c0.833,1.667,1.134,3.733,0.9,6.2c-0.233,2.366-0.867,4.434-1.9,6.2c-1.134,1.933-2.45,2.983-3.95,3.149
		c-1.467,0.167-2.666-0.717-3.6-2.649c-0.834-1.767-1.25-3.934-1.25-6.5c0-2.634,0.434-4.817,1.3-6.551
		C58.717,110.134,60.05,109.184,61.75,109.25z"/>
	<path style="fill-rule:evenodd;clip-rule:evenodd;fill:#83704C;" d="M41.65,85.15c2.3-0.2,3.233-1.684,2.8-4.45
		c-0.467-2.733-1.55-4.15-3.25-4.25c-1.9-0.167-2.9,1.3-3,4.399C38.133,83.917,39.283,85.35,41.65,85.15z M34.9,79.8
		c0.4-1.5,1.2-2.833,2.4-4c1.233-1.2,2.534-1.816,3.9-1.85c1.733-0.033,3.216,0.684,4.45,2.149c1.1,1.334,1.7,2.917,1.8,4.75
		c0.133,1.867-0.35,3.367-1.45,4.5c-1.267,1.267-3.1,1.717-5.5,1.351C35.8,86,33.933,83.7,34.9,79.8z"/>
	<path style="fill-rule:evenodd;clip-rule:evenodd;fill:#83704C;" d="M67.3,15l1.8,2l0.051,6.7c-0.134,4.633-0.667,7.466-1.601,8.5
		c-3.533,3.833-5.467,8.15-5.8,12.95c-0.2,2.6,0,5.983,0.6,10.15c0.301,2.1,0.617,3.934,0.95,5.5l-3.8,6.7
		c0-3.867-0.066-6.85-0.2-8.95c-0.166-1.867,0.05-7.75,0.65-17.65c0.166-2.9,1.35-5.45,3.55-7.65c2.366-2.433,3.634-4.05,3.8-4.85
		C67.9,25.867,67.9,21.4,67.3,15z"/>
	<path style="fill-rule:evenodd;clip-rule:evenodd;fill:#83704C;" d="M78.25,34.2l1.15,10.3c0.6,7.367,0.517,12.35-0.25,14.95
		c-0.467,1.6-1.967,4.117-4.5,7.55c-2.134,2.867-3.233,5.717-3.301,8.55c-0.1,3.367,0,9.084,0.301,17.15
		c0.233,6.467,0.5,12.066,0.8,16.8c0.3,4.767,0.6,13.467,0.899,26.1H70c0.733-13.1,1.033-21.583,0.9-25.449
		c-0.367-8.534-0.967-17.317-1.801-26.351c-0.433-4.934-0.5-8.717-0.199-11.35c0.433-4.034,1.699-7.25,3.8-9.65
		c1.934-2.233,3.283-5.517,4.05-9.85L78.25,34.2z"/>
	<path style="fill-rule:evenodd;clip-rule:evenodd;fill:#83704C;" d="M83.4,34.45l4.25,11.15l0.399,14.95
		C88.384,71.05,88.7,77.6,89,80.2c0.2,2,1.05,5.633,2.55,10.899c1.367,4.733,2,7.801,1.9,9.2c-0.066,1.367-0.917,3.117-2.55,5.25
		c-1.634,2.167-2.5,3.917-2.601,5.25c-0.133,2.7,1.367,10.967,4.5,24.8L89,134.7c-0.6-3.233-1.15-6.7-1.65-10.4
		c-1-7.434-1.267-12.366-0.8-14.8c0.367-2,1.334-3.884,2.9-5.65c1.399-1.6,2.133-3.066,2.2-4.399c0.1-1.967-0.351-4.7-1.351-8.2
		c-0.899-3.033-1.866-5.6-2.899-7.7c-0.667-1.366-0.934-4.233-0.801-8.6c0.2-6.5,0.25-10.55,0.15-12.15
		c-0.2-3.433-0.816-9.183-1.85-17.25L83.4,34.45z"/>
	<polygon style="fill-rule:evenodd;clip-rule:evenodd;fill:#83704C;" points="82.05,55.2 82.75,85.15 80.5,84.7 	"/>
	<path style="fill-rule:evenodd;clip-rule:evenodd;fill:#83704C;" d="M74.45,78.45l2.05,1.75l0.45,20.35
		c0.133,5.066,0.649,10.434,1.55,16.101L75.8,120v-12.75c0-2.333-0.217-7.833-0.649-16.5L74.45,78.45z"/>
	<polygon style="fill-rule:evenodd;clip-rule:evenodd;fill:#83704C;" points="82.75,111.25 84.95,134.5 82.5,134.5 	"/>
	<path style="fill-rule:evenodd;clip-rule:evenodd;fill:#83704C;" d="M51.7,10.1c0.733,2.066,1.1,4.75,1.1,8.05
		c0,1.633,0.517,4.117,1.55,7.45c1,3.233,1.45,5.517,1.351,6.85c-0.066,1.267-0.9,4.133-2.5,8.6c-1.601,4.4-2.4,7.333-2.4,8.8
		c0,2.933,0.601,11.867,1.8,26.8c0.101,1.133,0.95,3.8,2.551,8c1.399,3.633,1.966,7.3,1.699,11c-0.267,3.6-1.283,7.183-3.05,10.75
		c-1.6,3.267-2.383,5.333-2.35,6.199c0.166,2.4,0.316,10.15,0.45,23.25L48.8,133.15c1.167-13.4,1.533-21.584,1.1-24.551
		c-0.7-4-1.25-7.267-1.65-9.8c-0.767-4.733-1.117-8.1-1.05-10.1c0.066-1.367,0.7-3.65,1.9-6.851c1.133-3.033,1.7-5.816,1.7-8.35
		c0-1.767-0.434-5.133-1.3-10.1c-0.867-4.833-1.25-9.5-1.15-14C48.483,41.367,49.6,28.267,51.7,10.1z"/>
	<path style="fill-rule:evenodd;clip-rule:evenodd;fill:#83704C;" d="M59.95,11.65l1.6,3.05c1.033,2.367,1.55,4.333,1.55,5.9
		c0,2.533-0.966,5.95-2.899,10.25L59.95,11.65z"/>
	<path style="fill-rule:evenodd;clip-rule:evenodd;fill:#83704C;" d="M65.55,65.7l1.101,13.7c0.833,9.633,1.433,15.716,1.8,18.25
		c0.6,4,0.517,8.767-0.25,14.3c-0.601-3.733-0.9-6.267-0.9-7.601c0-0.833-0.366-1.716-1.1-2.649l-1.101-1.15l-7.399,6.075
		c0.973-0.829,2.006-1.838,3.1-3.025c2.3-2.533,3.733-4.816,4.3-6.85c0.567-2.033,0.817-7.816,0.75-17.35L65.55,65.7z"/>
	<polygon style="fill-rule:evenodd;clip-rule:evenodd;fill:#83704C;" points="55.5,53 58.4,84.7 55.5,76.85 	"/>
	<path style="fill-rule:evenodd;clip-rule:evenodd;fill:#83704C;" d="M40.2,95.7l-0.55-5.2L42.3,98
		c1.733,5.533,2.55,9.65,2.45,12.35c-0.067,2.2-0.667,4.017-1.8,5.45c-1,1.3-1.434,2.834-1.3,4.601c0.3,3.6,0.45,8.816,0.45,15.649
		l-4.05-2.899c1.067-13.7,1.817-22.784,2.25-27.25C40.567,103.1,40.533,99.7,40.2,95.7z"/>
	<path style="fill-rule:evenodd;clip-rule:evenodd;fill:#83704C;" d="M45,45.4c-0.1,1.633-0.45,3.833-1.05,6.6
		c-0.667,2.967-1.067,5.233-1.2,6.8c-0.2,2.034,0.117,4.883,0.95,8.55c0.433,1.833,0.867,3.45,1.3,4.85
		c-0.7-0.4-1.55-0.667-2.55-0.8c-2.034-0.2-3.8,0.433-5.3,1.899c-2.367,2.367-4.517,5.267-6.45,8.7c0.3-1.533,0.8-3.134,1.5-4.8
		c1.433-3.4,3.167-5.517,5.2-6.35s3.033-3.75,3-8.75c-0.433-6.233-0.617-10.767-0.55-13.6c0.167-5.667,0.316-18.4,0.45-38.2L43,6.5
		c-0.467,12.667-0.617,20.717-0.45,24.15c0.067,1.6,0.534,4.117,1.4,7.55C44.717,41.367,45.067,43.767,45,45.4z"/>
	<polygon style="fill-rule:evenodd;clip-rule:evenodd;fill:#83704C;" points="30.25,92.3 32.05,93.2 29.8,117.5 	"/>
	<polygon style="fill-rule:evenodd;clip-rule:evenodd;fill:#83704C;" points="33.35,51.4 34.5,61.45 31.8,66.15 	"/>
	<polygon style="fill-rule:evenodd;clip-rule:evenodd;fill:#83704C;" points="36.75,14.1 38.3,16.8 35.4,26.4 	"/>
	<polygon style="fill-rule:evenodd;clip-rule:evenodd;fill:#83704C;" points="35.85,103 32.95,134.95 30.25,135.15 	"/>
	<polygon style="fill-rule:evenodd;clip-rule:evenodd;fill:#83704C;" points="17.95,134.05 20,124.9 22.2,125.55 20.4,135.15 	"/>
</g>
</svg>
