<?xml version="1.0" encoding="iso-8859-1"?>
<!-- Generator: Adobe Illustrator 15.1.0, SVG Export Plug-In . SVG Version: 6.00 Build 0)  -->
<!DOCTYPE svg PUBLIC "-//W3C//DTD SVG 1.1//EN" "http://www.w3.org/Graphics/SVG/1.1/DTD/svg11.dtd">
<svg version="1.1" id="wall_items" xmlns="http://www.w3.org/2000/svg" xmlns:xlink="http://www.w3.org/1999/xlink" x="0px" y="0px"
	 width="187.5px" height="164.8px" viewBox="0 0 187.5 164.8" style="enable-background:new 0 0 187.5 164.8;" xml:space="preserve"
	>
<polygon style="fill-rule:evenodd;clip-rule:evenodd;fill:#2A2622;" points="181.8,159 187.5,164.8 7.8,162.5 0.8,159 "/>
<g>
	<path style="fill-rule:evenodd;clip-rule:evenodd;fill:#413B31;" d="M4.65,0.1C6.583,9.433,8.5,19.517,10.4,30.35
		c3.767,21.667,5.517,36.316,5.25,43.95c-0.433,12.233-3.017,41.267-7.75,87.101L2,159c2.433-51.8,3.533-83.033,3.3-93.7
		C5.067,54.633,3.3,32.867,0,0L4.65,0.1z"/>
	<path style="fill-rule:evenodd;clip-rule:evenodd;fill:#554D3D;" d="M179.35,34.15c-1.5,22.767-1.883,38.967-1.149,48.6
		c1.133,15.434,3.616,42.3,7.45,80.6L7.9,161.4c2.067-43.9,2.983-73.267,2.75-88.101c-0.133-9.267-1.183-24.25-3.15-44.95
		C6.533,18.017,5.583,8.6,4.65,0.1c9.467,0.933,20.167,1.85,32.1,2.75c23.9,1.8,42.05,2.6,54.45,2.4
		c19.833-0.3,50.033-1.067,90.6-2.3C180.9,12.383,180.083,22.783,179.35,34.15z"/>
	<path style="fill-rule:evenodd;clip-rule:evenodd;fill:#448793;" d="M15.15,12.6c19.5,1.633,34.184,2.8,44.05,3.5
		c9.867,0.7,20.7,0.967,32.5,0.8l0.85,145.45L15.6,161.5c0.767-6.233,1.517-13.717,2.25-22.45c1.533-17.434,2.333-32.3,2.4-44.6
		c0.1-12.3-0.717-29.633-2.45-52C16.933,31.283,16.05,21.333,15.15,12.6z"/>
	<path style="fill-rule:evenodd;clip-rule:evenodd;fill:#448793;" d="M170.1,39.75c-0.666,19.267-0.916,33.983-0.75,44.15
		c0.134,10.166,1.517,26.433,4.15,48.8c1.3,11.2,2.583,21.366,3.85,30.5l-76.699-0.851L99.9,16.9l13.649-0.4
		c9.834-0.3,16.617-0.55,20.351-0.75c6-0.333,18.416-0.967,37.25-1.9C170.783,21.45,170.434,30.083,170.1,39.75z"/>
	<path style="fill-rule:evenodd;clip-rule:evenodd;fill:#6397A3;" d="M19.4,16.7l66.9,4.45L89,162.3l-67.7-0.75
		c0.833-9.366,1.617-19.5,2.35-30.399C25.117,109.35,25.667,94.634,25.3,87C24.667,74.8,22.7,51.367,19.4,16.7z"/>
	<path style="fill-rule:evenodd;clip-rule:evenodd;fill:#6397A3;" d="M165.65,47.8c-0.634,21.367-0.75,36-0.351,43.9
		c0.601,12.6,2.95,36.434,7.05,71.5l-66.949-0.8L105.1,21l30.15-0.8c6.667-0.1,17.15-0.8,31.45-2.1
		C166.3,27.2,165.95,37.1,165.65,47.8z"/>
	<polygon style="fill-rule:evenodd;clip-rule:evenodd;fill:#293F4D;" points="79.95,90.3 82.55,89.95 81.9,112.8 79,112.5 	"/>
	<polygon style="fill-rule:evenodd;clip-rule:evenodd;fill:#293F4D;" points="109.05,88.35 111.25,88 112.9,111.45 109.4,112.45 	
		"/>
	
		<linearGradient id="SVGID_1_" gradientUnits="userSpaceOnUse" x1="-221.4282" y1="-54.0957" x2="235.9011" y2="-54.0957" gradientTransform="matrix(0.0044 1 -1 0.0044 2.560783e-004 -2.350886e-004)">
		<stop  offset="0" style="stop-color:#DEB96B"/>
		<stop  offset="1" style="stop-color:#D8E8D9"/>
	</linearGradient>
	<polygon style="fill-rule:evenodd;clip-rule:evenodd;fill:url(#SVGID_1_);" points="83.15,24.75 82.95,75.8 29.9,74.05 25.25,22.4 
			"/>
	
		<linearGradient id="SVGID_2_" gradientUnits="userSpaceOnUse" x1="-221.4233" y1="-135.1621" x2="235.906" y2="-135.1621" gradientTransform="matrix(0.0044 1 -1 0.0044 2.560783e-004 -2.350886e-004)">
		<stop  offset="0" style="stop-color:#DEB96B"/>
		<stop  offset="1" style="stop-color:#D8E8D9"/>
	</linearGradient>
	<path style="fill-rule:evenodd;clip-rule:evenodd;fill:url(#SVGID_2_);" d="M108.35,24.45c1.101,0.133,10.467-0.067,28.101-0.6
		C145.283,23.583,154,23.3,162.6,23l-1.75,51.1l-52.699-0.8L108.35,24.45z"/>
	<path style="fill-rule:evenodd;clip-rule:evenodd;fill:#FFFFFF;" d="M40.7,25.55l39.35,1.5l0.4,24.75
		c-0.2-3.033-0.583-6.2-1.15-9.5c-1.1-6.6-2.533-10.583-4.3-11.95s-8.017-2.583-18.75-3.65L40.7,25.55z"/>
	<path style="fill-rule:evenodd;clip-rule:evenodd;fill:#FFFFFF;" d="M122.8,27.2l35.8-0.75l0.075,24.575
		c-0.108-2.996-0.366-6.054-0.774-9.175c-1-7.133-2.567-11.167-4.7-12.1c-2.167-0.9-7.884-1.6-17.15-2.1L122.8,27.2z"/>
	<path style="fill-rule:evenodd;clip-rule:evenodd;fill:#448793;" d="M29.3,146.75c-0.167,3.566-0.816,7.9-1.95,13l-2.35,0.2
		c1.267-12.9,2.133-22.017,2.6-27.351c0.3-3.333,0.417-9.883,0.35-19.649l-0.2-13.7l3.05,2.7c1.934,2.366,2.633,4.95,2.1,7.75
		c-0.367,2-1.117,4.583-2.25,7.75c-0.933,2.467-1.383,4.5-1.35,6.1C29.433,136.05,29.433,143.783,29.3,146.75z"/>
	<path style="fill-rule:evenodd;clip-rule:evenodd;fill:#448793;" d="M58.25,88.6c1.467-0.133,2.717,0.65,3.75,2.351
		c0.933,1.566,1.483,3.5,1.65,5.8c0.133,2.333-0.2,4.3-1,5.9c-0.933,1.767-2.316,2.649-4.15,2.649c-3.6-0.033-5.133-2.767-4.6-8.2
		c0.2-2.133,0.717-4.05,1.55-5.75C56.317,89.616,57.25,88.7,58.25,88.6z M59.55,97.25c1.467-0.1,2.117-0.8,1.95-2.1
		c-0.133-1.301-0.85-1.983-2.15-2.051c-1.633-0.066-2.4,0.634-2.3,2.101C57.183,96.7,58.017,97.384,59.55,97.25z"/>
	<path style="fill-rule:evenodd;clip-rule:evenodd;fill:#448793;" d="M71.85,136.75c1.533-0.366,2.367,0.65,2.5,3.05
		c0.1,2.4-0.7,3.667-2.4,3.8c-1.833,0.101-2.833-0.883-3-2.949C68.75,138.55,69.717,137.25,71.85,136.75z"/>
	<path style="fill-rule:evenodd;clip-rule:evenodd;fill:#448793;" d="M33.55,117.85c1.267-0.233,2,1.684,2.2,5.75
		c0.2,3.967-0.7,5.767-2.7,5.4c-2-0.333-2.767-2.233-2.3-5.7C31.183,119.9,32.117,118.083,33.55,117.85z"/>
	<path style="fill-rule:evenodd;clip-rule:evenodd;fill:#448793;" d="M36.35,106.8l2.65,7.3l-0.45,14
		c-0.233,3.267-1.683,6.617-4.35,10.051c-0.767,1.033-1.167,3.216-1.2,6.55c-0.067,4.899-0.1,7.399-0.1,7.5
		c-0.3,2.566-0.933,5.066-1.9,7.5c0.1-7.767,0.35-13.816,0.75-18.15c0.2-2.267,0.9-4.267,2.1-6c1.367-1.899,2.217-3.816,2.55-5.75
		c0.434-2.566,0.55-7.166,0.35-13.8L36.35,106.8z"/>
	<polygon style="fill-rule:evenodd;clip-rule:evenodd;fill:#448793;" points="36.75,140.6 37.55,140.6 38.85,158.75 36.8,157.3 	"/>
	<path style="fill-rule:evenodd;clip-rule:evenodd;fill:#448793;" d="M22.2,19.65l1.6,6.85c0.567,5.867,1.133,11.933,1.7,18.2
		c1.167,12.5,1.8,19.683,1.9,21.55c0.167,3,0.033,12.667-0.4,29c-0.733-12.633-1.1-22.067-1.1-28.3
		C25.933,60.717,24.7,44.95,22.2,19.65z"/>
	<path style="fill-rule:evenodd;clip-rule:evenodd;fill:#448793;" d="M30.55,76.7l0.25,5.05c0.3,3.7,0.733,6.45,1.3,8.25
		c0.933,2.9,1.867,5.667,2.8,8.3l-1.05,6.7l-0.6-4.65c-1.5-4.199-2.383-7.517-2.65-9.949c-0.133-1.534-0.184-4.284-0.15-8.25
		L30.55,76.7z"/>
	<path style="fill-rule:evenodd;clip-rule:evenodd;fill:#448793;" d="M34.25,77.5l2.15,0.1l-0.2,6.2c-0.1,2-0.383,5.617-0.85,10.851
		c-0.033-1.801-0.283-3.417-0.75-4.851c-0.3-0.899-0.45-3.217-0.45-6.95L34.25,77.5z"/>
	<path style="fill-rule:evenodd;clip-rule:evenodd;fill:#448793;" d="M39.75,89.7c-0.533,4.3-0.817,7.316-0.85,9.05
		c-0.066,3.134,0.833,6.684,2.7,10.65c0.533,1.166,0.8,3.066,0.8,5.699c0,1.167-0.1,3.534-0.3,7.101c-0.167,3-0.8,8.116-1.9,15.35
		c0.566-12.434,0.767-20.1,0.6-23c-0.066-1.3-0.583-3.1-1.55-5.399c-0.967-2.267-1.5-4.45-1.6-6.551c-0.1-2.399,0.2-7.017,0.9-13.85
		l1.05-9.5l0.9,4.5L39.75,89.7z"/>
	<path style="fill-rule:evenodd;clip-rule:evenodd;fill:#448793;" d="M51.45,91.2v4.75c0.167,3.434,0.566,5.899,1.2,7.399
		c0.767,1.801,1.75,3.25,2.95,4.351c1.167,1.066,2.333,1.6,3.5,1.6c0.967-0.033,2.4-0.983,4.3-2.85l2.6-2.8l-4.25,6.25
		c-0.767,1.267-1.4,3.25-1.9,5.949c-0.567,2.934-0.75,5.733-0.55,8.4c0.3,3.8,0.217,16.083-0.25,36.85l-1.35-0.3l0.25-37.85
		c0.066-7.3-1.8-12.767-5.6-16.4c-1.6-1.566-2.233-4.6-1.9-9.1L51.45,91.2z"/>
	<path style="fill-rule:evenodd;clip-rule:evenodd;fill:#448793;" d="M42.6,89.2l1.8-1.851c-1.267,12-2.183,16.851-2.75,14.551
		c-0.367-1.467-0.316-4.017,0.15-7.65L42.6,89.2z"/>
	<path style="fill-rule:evenodd;clip-rule:evenodd;fill:#448793;" d="M45.2,94.3l0.65,2.5c0.433,1.9,0.7,3.517,0.8,4.851
		c0.133,2.1,0,11.767-0.4,29L44.9,141.85c-0.1-7.666-0.133-13.283-0.1-16.85L45.2,94.3z"/>
	<polygon style="fill-rule:evenodd;clip-rule:evenodd;fill:#448793;" points="42.55,138.85 41.4,150.9 41.35,138.7 	"/>
	<path style="fill-rule:evenodd;clip-rule:evenodd;fill:#448793;" d="M51.3,111.4c1.467-0.2,2.284,1.716,2.45,5.75
		c0.167,4.033-0.433,6.05-1.8,6.05c-1.333,0.033-2.117-1.884-2.35-5.75C49.4,113.583,49.967,111.566,51.3,111.4z"/>
	<polygon style="fill-rule:evenodd;clip-rule:evenodd;fill:#448793;" points="54.15,158 52.2,159.05 54.2,126.7 	"/>
	<polygon style="fill-rule:evenodd;clip-rule:evenodd;fill:#448793;" points="49.8,124.6 51,126.55 49.45,143.45 	"/>
	<polygon style="fill-rule:evenodd;clip-rule:evenodd;fill:#448793;" points="47.7,159.95 45,159.5 47.4,140.95 	"/>
	<path style="fill-rule:evenodd;clip-rule:evenodd;fill:#448793;" d="M46.6,78.3l1.95-1.85c-0.133,12.1-0.533,18.1-1.2,18
		C46.683,94.35,46.433,88.967,46.6,78.3z"/>
	<path style="fill-rule:evenodd;clip-rule:evenodd;fill:#448793;" d="M75.8,78.85L76.7,94c0,0.1,0.017,7.2,0.05,21.3
		c0.033,12.134,0.233,19.084,0.6,20.851c0.367,1.866,0,4.216-1.1,7.05c-0.6,1.533-1.4,3.316-2.4,5.35
		c-0.533,1.467-0.083,5.517,1.35,12.15l-2.5-0.15c-0.067-1.967-0.1-4.017-0.1-6.149c0.066-4.233,0.367-6.733,0.9-7.5
		c1.833-2.601,2.383-6.117,1.65-10.551c-0.333-2.233-1.033-4.216-2.1-5.949c-1.267-2.134-2-3.517-2.2-4.15
		c-0.333-1.033,0.05-2.85,1.15-5.45c1.3-3.1,1.95-5.967,1.95-8.6c0.033-3.134,0.35-9.634,0.95-19.5L75.8,78.85z"/>
	<path style="fill-rule:evenodd;clip-rule:evenodd;fill:#448793;" d="M84.8,103.4l1.05,2.649l-0.1,9.2
		c-0.033,6.634,0.017,11.233,0.15,13.8c0.167,4.101,0.267,11.316,0.3,21.65l-1.8-0.3L84.8,103.4z"/>
	<path style="fill-rule:evenodd;clip-rule:evenodd;fill:#448793;" d="M62.35,115.4l0.2,7.649c0.167,5.5,0.367,9.283,0.6,11.351
		c0.367,3.333,0.6,11.767,0.7,25.3l-1.35-0.3L61.45,134.1c-0.1-2.433,0.017-6.283,0.35-11.55L62.35,115.4z"/>
	<path style="fill-rule:evenodd;clip-rule:evenodd;fill:#448793;" d="M70.75,77.45l1.75,3.95l-0.1,9
		c-0.033,6.533,0,11.083,0.1,13.649c0.1,2.601-0.3,5.783-1.2,9.55c-0.466,1.867-0.933,3.483-1.4,4.851
		c0.8-5.367,1.167-9.884,1.1-13.55L70.75,77.45z"/>
	<path style="fill-rule:evenodd;clip-rule:evenodd;fill:#448793;" d="M65.8,111.65l1.3,9.35c0.133,0.833,0.45,2.25,0.95,4.25
		c0.4,1.934,0.517,3.566,0.35,4.9c-0.3,2.233-1.183,6.35-2.65,12.35L65.8,111.65z"/>
	<path style="fill-rule:evenodd;clip-rule:evenodd;fill:#448793;" d="M68.1,144.45l0.1,2.75c0.033,2-0.017,3.434-0.15,4.3
		c-0.2,1.333,0.133,4.55,1,9.65L67.4,160.8c-0.2-3.666-0.3-6.1-0.3-7.3c-0.033-0.767,0.133-2.5,0.5-5.2L68.1,144.45z"/>
	<polygon style="fill-rule:evenodd;clip-rule:evenodd;fill:#448793;" points="80.4,150.3 79.4,117.95 81.6,153.25 	"/>
	<path style="fill-rule:evenodd;clip-rule:evenodd;fill:#448793;" d="M78.2,153.4c0.267,3.366-0.017,5.066-0.85,5.1
		c-0.934,0.033-1.467-1.65-1.6-5.05c-0.167-3.4,0.2-5.101,1.1-5.101C77.483,148.316,77.933,150,78.2,153.4z"/>
	<path style="fill-rule:evenodd;clip-rule:evenodd;fill:#448793;" d="M64.75,78.5L67.3,81l0.55,5c0.333,3.566,0.433,5.833,0.3,6.8
		c-0.2,1.566-0.467,5.9-0.8,13c-0.4-4.467-0.8-8.95-1.2-13.45C65.317,83.316,64.85,78.7,64.75,78.5z"/>
	<polygon style="fill-rule:evenodd;clip-rule:evenodd;fill:#448793;" points="53.9,76.35 55.75,77.3 53.75,87.5 	"/>
	<polygon style="fill-rule:evenodd;clip-rule:evenodd;fill:#448793;" points="60.45,78.1 61.75,78.4 63.2,85.9 61.35,85.25 	"/>
	<polygon style="fill-rule:evenodd;clip-rule:evenodd;fill:#448793;" points="85.25,98.05 84.05,96.2 84.35,41.725 	"/>
	<path style="fill-rule:evenodd;clip-rule:evenodd;fill:#448793;" d="M106.25,23.05l1.05,4.45l-0.25,25.7
		c-0.033,4.566,0.2,16.167,0.7,34.8l-1.7,7.2l-0.2-13C105.783,79.2,105.917,59.483,106.25,23.05z"/>
	<path style="fill-rule:evenodd;clip-rule:evenodd;fill:#448793;" d="M163.55,20.5l1.45,6.3c-0.233,8.1-0.467,16.45-0.7,25.05
		c-0.467,17.2-0.684,27.083-0.649,29.65c0.066,4.1,1.066,18.75,3,43.95L164.5,124c-1.434-27.434-2.116-43.033-2.05-46.8L163.55,20.5
		z"/>
	<path style="fill-rule:evenodd;clip-rule:evenodd;fill:#448793;" d="M114.5,91.75l0.75-4l1.05,10.7
		c0.634,7.6,0.867,12.583,0.7,14.95c-0.167,1.966-1.316,5.699-3.45,11.199c-2,5.2-2.967,8.267-2.899,9.2
		c0.133,2,0.149,10.95,0.05,26.851l-2,0.199c0.566-13.566,0.767-22.017,0.6-25.35c-0.1-2.434-0.383-5.3-0.85-8.6
		c-0.434-3.233-0.834-5.351-1.2-6.351c-0.3-0.833-0.45-4.8-0.45-11.899L106.9,98.2l1.05,2.5l0.2,8.3
		c0.333,5.967,0.933,10.134,1.8,12.5c0.934,2.467,1.866,2.75,2.8,0.85c0.467-0.966,1.217-3.449,2.25-7.449
		c0.6-2.233,0.7-6.767,0.3-13.601L114.5,91.75z"/>
	<path style="fill-rule:evenodd;clip-rule:evenodd;fill:#448793;" d="M115.9,129.4c1.533-0.034,2.833,1.05,3.899,3.25
		c0.967,1.966,1.533,4.333,1.7,7.1c0.134,2.833-0.184,5.15-0.95,6.95c-0.899,2.033-2.233,2.934-4,2.7
		c-3.366-0.467-4.767-3.917-4.2-10.351c0.233-2.467,0.717-4.684,1.45-6.649C114.5,130.4,115.2,129.4,115.9,129.4z M117.15,147.4
		c1.966-0.301,2.783-2.717,2.449-7.25c-0.333-4.534-1.433-6.784-3.3-6.75c-1.566,0.033-2.3,2.449-2.2,7.25
		C114.233,145.417,115.25,147.667,117.15,147.4z"/>
	<polygon style="fill-rule:evenodd;clip-rule:evenodd;fill:#448793;" points="113.2,149.6 114.95,152.9 116.2,160.25 114.35,160.25 
			"/>
	<path style="fill-rule:evenodd;clip-rule:evenodd;fill:#448793;" d="M123.3,146.45c-0.566,2.666-1.133,4.566-1.7,5.7
		c-0.767,1.466-0.949,4.416-0.55,8.85h-1.85c-0.233-1.333-0.4-2.733-0.5-4.2c-0.167-2.967,0.116-4.833,0.85-5.6
		c1.066-1.101,1.851-2.5,2.351-4.2c0.666-2.267,1.033-5.45,1.1-9.55c0.1-3.733,0.1-8.717,0-14.95l-0.15-8.2l1.051,3.3l0.35,8.9
		c0.2,6.333,0.25,10.483,0.15,12.45C124.267,141.25,123.9,143.75,123.3,146.45z"/>
	<path style="fill-rule:evenodd;clip-rule:evenodd;fill:#448793;" d="M119.8,88.3c0.167,6.167,0.434,10.283,0.8,12.351
		c0.667,3.533,0.733,10.649,0.2,21.35c-0.1,1.333-0.05,4.6,0.15,9.8c-1.834-2.166-2.867-3.75-3.101-4.75
		c-0.1-0.399,0.217-2.383,0.95-5.95c0.8-3.866,1.184-6.683,1.15-8.449c-0.033-2-0.316-8.584-0.851-19.75l-0.85-16.2l1.4,2.95
		L119.8,88.3z"/>
	<path style="fill-rule:evenodd;clip-rule:evenodd;fill:#448793;" d="M109.9,75.5l3.35,0.1l0.1,8c0.034,1.334-0.066,5.051-0.3,11.15
		c-0.3-5.1-0.583-8.7-0.85-10.8c-0.167-1.3-0.601-3.1-1.3-5.4L109.9,75.5z"/>
	<path style="fill-rule:evenodd;clip-rule:evenodd;fill:#448793;" d="M121.55,75.95l1.351-0.15v1.95
		c0.066,1.5,0.216,2.85,0.449,4.05c0.134,0.8,0.601,1.684,1.4,2.65c0.7,0.866,1.083,1.967,1.15,3.3c0.066,1.2-0.351,2.533-1.25,4
		c-0.867,1.434-1.233,2.783-1.101,4.05c0.267,2.434,0.4,8.033,0.4,16.8l-0.851-2.649c-0.3-4.101-0.517-7.434-0.649-10L121.55,75.95z
		"/>
	<path style="fill-rule:evenodd;clip-rule:evenodd;fill:#448793;" d="M149.25,88.05c3.066,0.2,4.634,2.351,4.7,6.45
		c0.066,1.667-0.267,3.083-1,4.25c-0.767,1.267-1.816,1.917-3.15,1.95c-2.7,0.033-4-2.101-3.899-6.4
		c0.033-1.7,0.35-3.149,0.949-4.35C147.483,88.616,148.283,87.983,149.25,88.05z"/>
	<path style="fill-rule:evenodd;clip-rule:evenodd;fill:#448793;" d="M166.65,151.2c0.267,2.2,0.1,4.05-0.5,5.55
		c-0.7,1.7-1.851,2.566-3.45,2.6c-2.434,0.034-4.351-0.75-5.75-2.35c-1.2-1.4-1.816-3.184-1.851-5.35
		c-0.033-2.101,0.517-3.934,1.65-5.5c1.233-1.7,2.85-2.634,4.85-2.801c1.233-0.066,2.334,0.717,3.301,2.351
		C165.8,147.2,166.384,149.033,166.65,151.2z M162.6,152.5c1,0.167,1.65-0.634,1.95-2.4c0.267-1.767-0.3-2.517-1.7-2.25
		c-1.333,0.233-1.949,1.034-1.85,2.4C161.066,151.583,161.6,152.333,162.6,152.5z"/>
	<path style="fill-rule:evenodd;clip-rule:evenodd;fill:#448793;" d="M162.5,137.2l2.15,1.85c1.6,1.5,2.75,2.9,3.449,4.2
		c0.733,1.3,1.084,4.616,1.051,9.95c0,2.633-0.084,5.149-0.25,7.55l-1.5-0.3c0.199-1.934,0.333-4,0.399-6.2
		c0.167-4.434-0.05-7.366-0.649-8.8c-0.567-1.467-1.733-2.884-3.5-4.25l-2.45-1.65c-0.066-19-0.233-30.45-0.5-34.35l-2.25-27.95
		l2.25,7.45l0.399,7.25c0.301,5.2,0.534,8.666,0.7,10.399C162.066,105.116,162.3,116.733,162.5,137.2z"/>
	<path style="fill-rule:evenodd;clip-rule:evenodd;fill:#448793;" d="M127.85,103.2l0.2,9.149c0.134,6.767,0.184,11.884,0.15,15.351
		c0,2.8-0.084,5.7-0.25,8.7c0.1,2.033,0.816,4.3,2.149,6.8c1.301,2.399,2.15,5.95,2.551,10.649c0.199,2.334,0.267,4.434,0.199,6.301
		l-1.8,0.199L130.2,149.2c-0.066-0.967-0.601-2.15-1.601-3.55l-1.5-1.75c-0.5-10.767-0.716-18.051-0.649-21.851
		c0.033-2.366-0.101-7.434-0.4-15.2l-0.5-10.949L127.85,103.2z"/>
	<polygon style="fill-rule:evenodd;clip-rule:evenodd;fill:#448793;" points="125.15,146.95 127.35,147.55 125.5,157.75 	"/>
	<path style="fill-rule:evenodd;clip-rule:evenodd;fill:#448793;" d="M127.75,77.9l2.05,3.1l-0.149,2.5
		c-0.067,1.9-0.034,3.4,0.1,4.5c0.267,1.8,0.967,7.467,2.1,17l-1.35,8L127.75,77.9z"/>
	<path style="fill-rule:evenodd;clip-rule:evenodd;fill:#448793;" d="M141.35,115.85c1.9,0.301,2.801,2.2,2.7,5.7
		c-0.066,3.467-0.967,5.167-2.7,5.101c-1.633-0.034-2.433-1.9-2.399-5.601C139.017,117.316,139.816,115.583,141.35,115.85z"/>
	<path style="fill-rule:evenodd;clip-rule:evenodd;fill:#448793;" d="M143.4,87.65l0.449,5.6c0.434,3.934,0.967,6.384,1.601,7.35
		c0.399,0.567,1.399,1.617,3,3.15c1.399,1.333,2.383,2.583,2.95,3.75c0.666,1.333,1.066,4.333,1.199,9
		c0.067,2.5,0.101,5.783,0.101,9.85c0.1,8.134,0.666,12.45,1.7,12.95c0.899,0.434,1.433,2.367,1.6,5.8
		c-0.2,0.134-0.417,0.317-0.65,0.551c-0.466,0.466-0.8,0.916-1,1.35c-0.333,0.667-0.533,2.05-0.6,4.15l-2.8,3.899
		c0.533-17.133,0.649-27.866,0.35-32.2c0.033-4.566-0.05-7.949-0.25-10.149c-0.333-3.8-1.566-6.45-3.7-7.95
		c-2.133-1.5-3.433-4.733-3.899-9.7C143.05,91.316,143.033,88.85,143.4,87.65z"/>
	<path style="fill-rule:evenodd;clip-rule:evenodd;fill:#448793;" d="M153.75,75.3h1.8l0.55,9.95c0.4,6.8,0.667,10.583,0.801,11.35
		c0.166,0.801,0.149,4.784-0.051,11.95c-0.199,6.3-0.383,10.934-0.55,13.9c-0.166,2.899-0.033,8.233,0.4,16
		c-0.434-1.667-0.851-3.5-1.25-5.5c-0.767-4-1.033-6.884-0.8-8.65c0.333-2.333,0.649-6.2,0.949-11.6
		c0.367-5.867,0.483-10.283,0.351-13.25c-0.134-2.634-0.533-7.45-1.2-14.45L153.75,75.3z"/>
	<path style="fill-rule:evenodd;clip-rule:evenodd;fill:#448793;" d="M159.6,121.9c0.167,3.866,0.117,7.75-0.149,11.649
		c-0.8-3.1-1.351-6.149-1.65-9.149c-0.166-1.867-0.116-7.167,0.15-15.9l0.45-12.6L159.6,121.9z"/>
	<path style="fill-rule:evenodd;clip-rule:evenodd;fill:#448793;" d="M147.25,107.75c0.866,0.366,1.25,2.017,1.15,4.95
		c-0.067,1.6-0.167,3.883-0.301,6.85c0.134,2.334,0.334,9,0.601,20l-1.75,4.7l0.6-16c0.066-1.667-0.116-5.967-0.55-12.9
		C146.667,110.083,146.75,107.55,147.25,107.75z"/>
	<path style="fill-rule:evenodd;clip-rule:evenodd;fill:#448793;" d="M144.75,76.1l1.15-0.15l0.55,5.75
		c0.2,3.866-0.084,5.833-0.851,5.899c-0.767,0.101-1.133-1.783-1.1-5.649L144.75,76.1z"/>
	<polygon style="fill-rule:evenodd;clip-rule:evenodd;fill:#448793;" points="150.4,76.55 152.1,76 150.7,84.2 	"/>
	<path style="fill-rule:evenodd;clip-rule:evenodd;fill:#448793;" d="M132.4,76.45l1.55,0.85l0.05,2.3c0.1,1.8,0.217,3.466,0.35,5
		l1.2,10.65l-1.899,6.05L132.4,76.45z"/>
	<path style="fill-rule:evenodd;clip-rule:evenodd;fill:#448793;" d="M130.7,117.5l0.55,11.1c0.267,7.367,0.083,10.95-0.55,10.75
		c-0.634-0.199-0.816-3.899-0.55-11.1L130.7,117.5z"/>
	<path style="fill-rule:evenodd;clip-rule:evenodd;fill:#448793;" d="M134.55,105.95l1.25,18.5c0.267,2.2,0.351,10.85,0.25,25.95
		l-1.55-4.301L134.55,105.95z"/>
	<path style="fill-rule:evenodd;clip-rule:evenodd;fill:#448793;" d="M137.8,78.9l1.2,1.8l0.05,6.55c0.101,4.733,0.267,8.1,0.5,10.1
		c0.3,2.5,0.417,6.017,0.351,10.551c-0.067,4.633-0.301,7.233-0.7,7.8c-0.367,0.5-0.867,1.8-1.5,3.899
		c-0.334,1.067-0.634,2.067-0.9,3c0.233-6.8,0.717-11.767,1.45-14.899C138.95,104.6,138.8,95,137.8,78.9z"/>
	<polygon style="fill-rule:evenodd;clip-rule:evenodd;fill:#448793;" points="144.2,115.3 142.15,113 141.45,90.15 	"/>
	<polygon style="fill-rule:evenodd;clip-rule:evenodd;fill:#448793;" points="149.9,162.05 148.25,161.75 149.3,145.2 	"/>
	<polygon style="fill-rule:evenodd;clip-rule:evenodd;fill:#448793;" points="141.7,160 139.5,159.2 138.9,128.7 	"/>
	<polygon style="fill-rule:evenodd;clip-rule:evenodd;fill:#448793;" points="143.05,129.8 144.75,130.45 143.75,151.3 	"/>
</g>
</svg>
