<?xml version="1.0" encoding="iso-8859-1"?>
<!-- Generator: Adobe Illustrator 15.1.0, SVG Export Plug-In . SVG Version: 6.00 Build 0)  -->
<!DOCTYPE svg PUBLIC "-//W3C//DTD SVG 1.1//EN" "http://www.w3.org/Graphics/SVG/1.1/DTD/svg11.dtd">
<svg version="1.1" id="Layer_3" xmlns="http://www.w3.org/2000/svg" xmlns:xlink="http://www.w3.org/1999/xlink" x="0px" y="0px"
	 width="79.4px" height="67.05px" viewBox="0 0 79.4 67.05" style="enable-background:new 0 0 79.4 67.05;" xml:space="preserve">
<symbol  id="FlashAICB_x2F_Layer_3_x2F__x3C_Path_x3E__x5F_5" viewBox="-0.04 -21.533 79.371 21.555">
	<g id="Layer_1_2_">
		<path style="fill-rule:evenodd;clip-rule:evenodd;fill:#5B605E;" d="M66.5-3.5c14.067-4.967,16.567-9.233,7.5-12.8
			c-8-3.1-21.617-4.833-40.85-5.2c-15.833-0.333-26.2,1.833-31.1,6.5c-2.033,1.9-2.583,3.917-1.65,6.05
			C1.333-6.817,3.583-5,7.15-3.5c6.033,2.533,16.1,3.7,30.2,3.5C50.717-0.2,60.433-1.367,66.5-3.5z"/>
	</g>
</symbol>
<g>
	
		<use xlink:href="#FlashAICB_x2F_Layer_3_x2F__x3C_Path_x3E__x5F_5"  width="79.371" height="21.555" x="-0.04" y="-21.533" transform="matrix(1 0 0 -1 0.0498 45.5)" style="overflow:visible;opacity:0.3281;enable-background:new    ;"/>
	<path style="fill-rule:evenodd;clip-rule:evenodd;fill:#766D60;" d="M72.85,7.05c0.767,2.367-0.966,4.784-5.199,7.25
		c-4.134,2.4-9,3.95-14.601,4.65c-5.8,0.733-11.583,0.917-17.35,0.55c-6.4-0.4-12.1-1.417-17.1-3.05
		c-4.367-1.4-7.317-3.383-8.85-5.95C9.25,9.7,8.933,8.9,8.8,8.1l-0.05-1C19.183,6.3,29.667,5.683,40.2,5.25
		C61.3,4.417,72.184,5.017,72.85,7.05z"/>
	<path style="fill-rule:evenodd;clip-rule:evenodd;fill:#9B8A7E;" d="M54.45,0.3c8,0.633,13.533,2.083,16.6,4.35
		c2.867,2.133,2.816,4.317-0.149,6.55c-3.101,2.4-8.601,4.033-16.5,4.9c-7.767,0.867-15.517,0.867-23.25,0c-7-0.8-12.667-2.133-17-4
		C9.85,10.267,8.1,8.433,8.9,6.6c0.9-1.967,4.867-3.467,11.9-4.5C33.9,0.2,45.116-0.4,54.45,0.3z"/>
	<path style="fill-rule:evenodd;clip-rule:evenodd;fill:#766D60;" d="M38.5,18.55h1.85c0.601,7.833,1.067,15.65,1.4,23.45
		c0.7,15.667,0.483,23.517-0.65,23.55c-1.133,0.066-1.916-7.75-2.35-23.45C38.55,34.267,38.467,26.417,38.5,18.55z"/>
	<path style="fill-rule:evenodd;clip-rule:evenodd;fill:#766D60;" d="M25.5,17.2l1.6,0.1c-2.633,6.8-5.333,13.55-8.1,20.25
		c-5.567,13.434-8.733,19.934-9.5,19.5c-0.8-0.399,1.633-7.166,7.3-20.3C19.633,30.183,22.533,23.667,25.5,17.2z"/>
	<path style="fill-rule:evenodd;clip-rule:evenodd;fill:#766D60;" d="M54,17.8l1.25-0.6c3,6.667,5.884,13.367,8.65,20.1
		c5.533,13.434,7.767,20.316,6.699,20.65c-0.666,0.2-3.633-6.434-8.899-19.9C59.066,31.317,56.5,24.567,54,17.8z"/>
</g>
</svg>
