<?xml version="1.0" encoding="iso-8859-1"?>
<!-- Generator: Adobe Illustrator 15.1.0, SVG Export Plug-In . SVG Version: 6.00 Build 0)  -->
<!DOCTYPE svg PUBLIC "-//W3C//DTD SVG 1.1//EN" "http://www.w3.org/Graphics/SVG/1.1/DTD/svg11.dtd">
<svg version="1.1" id="ground" xmlns="http://www.w3.org/2000/svg" xmlns:xlink="http://www.w3.org/1999/xlink" x="0px" y="0px"
	 width="500px" height="300px" viewBox="0 0 500 300" style="enable-background:new 0 0 500 300;" xml:space="preserve">
<g>
	<rect y="100" style="fill-rule:evenodd;clip-rule:evenodd;fill:#ABA254;" width="500" height="100"/>
	<g>
		<polygon style="fill-rule:evenodd;clip-rule:evenodd;fill:#918B4B;" points="46.2,190.7 41.9,184.75 37.3,190.5 41.9,181.7 		"/>
	</g>
	<g>
		<polygon style="fill-rule:evenodd;clip-rule:evenodd;fill:#918B4B;" points="76.25,178.7 71.1,171.55 65.55,178.45 71.1,167.85 		
			"/>
	</g>
	<g>
		<polygon style="fill-rule:evenodd;clip-rule:evenodd;fill:#918B4B;" points="106.9,181.9 102.85,176.25 98.45,181.7 
			102.85,173.35 		"/>
	</g>
	<g>
		<polygon style="fill-rule:evenodd;clip-rule:evenodd;fill:#918B4B;" points="139.4,183.8 134.95,177.6 130.1,183.65 134.95,174.4 
					"/>
	</g>
	<g>
		<polygon style="fill-rule:evenodd;clip-rule:evenodd;fill:#918B4B;" points="158.8,167.75 153.55,174.25 158.8,164.3 
			163.6,174.45 		"/>
	</g>
	<g>
		<polygon style="fill-rule:evenodd;clip-rule:evenodd;fill:#918B4B;" points="197.2,182.45 194.35,178.5 191.3,182.35 
			194.35,176.45 		"/>
	</g>
	<g>
		<polygon style="fill-rule:evenodd;clip-rule:evenodd;fill:#918B4B;" points="230.25,174.4 225.5,167.8 220.4,174.2 225.5,164.4 		
			"/>
	</g>
	<g>
		<polygon style="fill-rule:evenodd;clip-rule:evenodd;fill:#918B4B;" points="256.85,187.1 252.25,180.75 247.3,186.9 
			252.25,177.45 		"/>
	</g>
	<g>
		<polygon style="fill-rule:evenodd;clip-rule:evenodd;fill:#918B4B;" points="278.7,179.75 273.45,172.5 267.75,179.55 
			273.45,168.7 		"/>
	</g>
	<g>
		<polygon style="fill-rule:evenodd;clip-rule:evenodd;fill:#918B4B;" points="320.2,179.7 316.1,174 311.65,179.5 316.1,171.05 		
			"/>
	</g>
	<g>
		<polygon style="fill-rule:evenodd;clip-rule:evenodd;fill:#918B4B;" points="352.75,190.1 347.65,182.95 342.05,189.85 
			347.65,179.3 		"/>
	</g>
	<g>
		<polygon style="fill-rule:evenodd;clip-rule:evenodd;fill:#918B4B;" points="382.45,193.6 379.5,189.5 376.3,193.45 379.5,187.4 
					"/>
	</g>
	<g>
		<polygon style="fill-rule:evenodd;clip-rule:evenodd;fill:#918B4B;" points="404.95,181.15 402.3,177.45 399.4,181 402.3,175.55 
					"/>
	</g>
	<g>
		<polygon style="fill-rule:evenodd;clip-rule:evenodd;fill:#918B4B;" points="438.35,185.2 433,177.75 427.15,185 433,173.9 		"/>
	</g>
	<g>
		<polygon style="fill-rule:evenodd;clip-rule:evenodd;fill:#918B4B;" points="471.45,177 465.85,169.25 459.8,176.75 
			465.85,165.25 		"/>
	</g>
	<g>
		<polygon style="fill-rule:evenodd;clip-rule:evenodd;fill:#918B4B;" points="496.4,189.95 491.65,183.35 486.5,189.7 
			491.65,179.95 		"/>
	</g>
	<g>
		<polygon style="fill-rule:evenodd;clip-rule:evenodd;fill:#918B4B;" points="227.85,194.4 222.5,187 216.65,194.2 222.5,183.15 		
			"/>
	</g>
	<g>
		<polygon style="fill-rule:evenodd;clip-rule:evenodd;fill:#918B4B;" points="456.35,194.25 453.3,190 449.95,194.15 453.3,187.8 
					"/>
	</g>
	<g>
		<polygon style="fill-rule:evenodd;clip-rule:evenodd;fill:#918B4B;" points="169.7,193.25 164.45,186 158.8,193 164.45,182.25 		
			"/>
	</g>
	<g>
		<polygon style="fill-rule:evenodd;clip-rule:evenodd;fill:#918B4B;" points="497.4,160.5 494.5,156.45 491.3,160.35 494.5,154.35 
					"/>
	</g>
	<g>
		<polygon style="fill-rule:evenodd;clip-rule:evenodd;fill:#918B4B;" points="467.7,155.7 465.05,152.05 462.2,155.6 465.05,150.2 
					"/>
	</g>
	<g>
		<polygon style="fill-rule:evenodd;clip-rule:evenodd;fill:#918B4B;" points="438.45,165.3 433.9,159 428.95,165.1 433.9,155.7 		
			"/>
	</g>
	<g>
		<polygon style="fill-rule:evenodd;clip-rule:evenodd;fill:#918B4B;" points="400.95,161.6 396.35,155.15 391.3,161.4 
			396.35,151.85 		"/>
	</g>
	<g>
		<polygon style="fill-rule:evenodd;clip-rule:evenodd;fill:#918B4B;" points="371.25,162.7 367.8,157.85 364.05,162.55 
			367.8,155.4 		"/>
	</g>
	<g>
		<polygon style="fill-rule:evenodd;clip-rule:evenodd;fill:#918B4B;" points="347.15,168.2 344.5,164.5 341.6,168.1 344.5,162.6 		
			"/>
	</g>
	<g>
		<polygon style="fill-rule:evenodd;clip-rule:evenodd;fill:#918B4B;" points="321.3,154 318.3,157.7 321.3,152.05 324.05,157.8 		
			"/>
	</g>
	<g>
		<polygon style="fill-rule:evenodd;clip-rule:evenodd;fill:#918B4B;" points="294.7,167.85 291.3,163.1 287.55,167.7 291.3,160.65 
					"/>
	</g>
	<g>
		<polygon style="fill-rule:evenodd;clip-rule:evenodd;fill:#918B4B;" points="262.65,157.15 259.5,152.7 256.05,157 259.5,150.45 
					"/>
	</g>
	<g>
		<polygon style="fill-rule:evenodd;clip-rule:evenodd;fill:#918B4B;" points="218.55,116.1 215.4,111.65 211.95,115.95 
			215.4,109.4 		"/>
	</g>
	<g>
		<polygon style="fill-rule:evenodd;clip-rule:evenodd;fill:#918B4B;" points="234.1,154.75 229.1,147.85 223.7,154.55 
			229.1,144.25 		"/>
	</g>
	<g>
		<polygon style="fill-rule:evenodd;clip-rule:evenodd;fill:#918B4B;" points="199.2,158.1 193.5,165.15 199.2,154.3 204.45,165.4 
					"/>
	</g>
	<g>
		<polygon style="fill-rule:evenodd;clip-rule:evenodd;fill:#918B4B;" points="179.35,163.15 174.8,156.8 169.85,162.95 
			174.8,153.5 		"/>
	</g>
	<g>
		<polygon style="fill-rule:evenodd;clip-rule:evenodd;fill:#918B4B;" points="145.55,160.5 142.15,155.75 138.4,160.35 
			142.15,153.3 		"/>
	</g>
	<g>
		<polygon style="fill-rule:evenodd;clip-rule:evenodd;fill:#918B4B;" points="491.1,111.25 487.65,106.45 483.95,111.1 487.65,104 
					"/>
	</g>
	<g>
		<polygon style="fill-rule:evenodd;clip-rule:evenodd;fill:#918B4B;" points="113.15,153.6 108.4,147 103.25,153.4 108.4,143.55 		
			"/>
	</g>
	<g>
		<polygon style="fill-rule:evenodd;clip-rule:evenodd;fill:#918B4B;" points="79.3,151.55 76,155.6 79.3,149.4 82.3,155.75 		"/>
	</g>
	<g>
		<polygon style="fill-rule:evenodd;clip-rule:evenodd;fill:#918B4B;" points="13.7,168.1 10.65,163.95 7.4,168 10.65,161.75 		"/>
	</g>
	<g>
		<polygon style="fill-rule:evenodd;clip-rule:evenodd;fill:#918B4B;" points="57.85,162.25 52.35,154.6 46.4,162 52.35,150.65 		
			"/>
	</g>
	<g>
		<polygon style="fill-rule:evenodd;clip-rule:evenodd;fill:#918B4B;" points="32.7,157.25 28.5,151.45 23.95,157.1 28.5,148.45 		
			"/>
	</g>
	<g>
		<polygon style="fill-rule:evenodd;clip-rule:evenodd;fill:#918B4B;" points="19.25,138.45 14.9,132.35 10.15,138.25 14.9,129.25 
					"/>
	</g>
	<g>
		<polygon style="fill-rule:evenodd;clip-rule:evenodd;fill:#918B4B;" points="38.45,127.2 33.2,133.75 38.45,123.75 43.3,133.95 		
			"/>
	</g>
	<g>
		<polygon style="fill-rule:evenodd;clip-rule:evenodd;fill:#918B4B;" points="72.2,143.2 66.5,135.25 60.3,142.95 66.5,131.15 		
			"/>
	</g>
	<g>
		<polygon style="fill-rule:evenodd;clip-rule:evenodd;fill:#918B4B;" points="100.4,135.65 96.7,130.5 92.65,135.5 96.7,127.8 		
			"/>
	</g>
	<g>
		<polygon style="fill-rule:evenodd;clip-rule:evenodd;fill:#918B4B;" points="130.65,121.1 127.4,116.6 123.9,121 127.4,114.3 		
			"/>
	</g>
	<g>
		<polygon style="fill-rule:evenodd;clip-rule:evenodd;fill:#918B4B;" points="151.2,145.45 148,141 144.55,145.3 148,138.7 		"/>
	</g>
	<g>
		<polygon style="fill-rule:evenodd;clip-rule:evenodd;fill:#918B4B;" points="194,147.75 191.3,144 188.35,147.6 191.3,142.05 		
			"/>
	</g>
	<g>
		<polygon style="fill-rule:evenodd;clip-rule:evenodd;fill:#918B4B;" points="173.95,138.75 171.25,135 168.35,138.6 
			171.25,133.05 		"/>
	</g>
	<g>
		<polygon style="fill-rule:evenodd;clip-rule:evenodd;fill:#918B4B;" points="20.2,195.25 17.5,191.5 14.6,195.15 17.5,189.6 		"/>
	</g>
	<g>
		<polygon style="fill-rule:evenodd;clip-rule:evenodd;fill:#918B4B;" points="230.05,131.2 226,125.55 221.55,131 226,122.6 		"/>
	</g>
	<g>
		<polygon style="fill-rule:evenodd;clip-rule:evenodd;fill:#918B4B;" points="256.6,145.3 251.65,138.4 246.25,145.1 
			251.65,134.85 		"/>
	</g>
	<g>
		<polygon style="fill-rule:evenodd;clip-rule:evenodd;fill:#918B4B;" points="288.5,146.95 284.95,141.95 281.05,146.8 
			284.95,139.4 		"/>
	</g>
	<g>
		<polygon style="fill-rule:evenodd;clip-rule:evenodd;fill:#918B4B;" points="315.45,146.7 310.55,139.85 305.2,146.45 
			310.55,136.35 		"/>
	</g>
	<g>
		<polygon style="fill-rule:evenodd;clip-rule:evenodd;fill:#918B4B;" points="347.2,144.55 344.2,140.45 341,144.45 344.2,138.3 		
			"/>
	</g>
	<g>
		<polygon style="fill-rule:evenodd;clip-rule:evenodd;fill:#918B4B;" points="380.1,138.45 375.4,131.9 370.25,138.2 375.4,128.5 
					"/>
	</g>
	<g>
		<polygon style="fill-rule:evenodd;clip-rule:evenodd;fill:#918B4B;" points="403.3,138.3 397.6,145.4 403.3,134.55 408.55,145.6 
					"/>
	</g>
	<g>
		<polygon style="fill-rule:evenodd;clip-rule:evenodd;fill:#918B4B;" points="427.8,143.8 424.2,148.35 427.8,141.4 431.15,148.5 
					"/>
	</g>
	<g>
		<polygon style="fill-rule:evenodd;clip-rule:evenodd;fill:#918B4B;" points="456.15,147.7 452.8,143 449.1,147.55 452.8,140.6 		
			"/>
	</g>
	<g>
		<polygon style="fill-rule:evenodd;clip-rule:evenodd;fill:#918B4B;" points="490.5,146.9 486.2,140.9 481.5,146.7 486.2,137.8 		
			"/>
	</g>
	<g>
		<polygon style="fill-rule:evenodd;clip-rule:evenodd;fill:#918B4B;" points="30.25,116.95 24.5,108.95 18.25,116.7 24.5,104.85 		
			"/>
	</g>
	<g>
		<polygon style="fill-rule:evenodd;clip-rule:evenodd;fill:#918B4B;" points="458.9,112.95 455.35,108 451.45,112.8 455.35,105.4 
					"/>
	</g>
	<g>
		<polygon style="fill-rule:evenodd;clip-rule:evenodd;fill:#918B4B;" points="302.4,195.85 297.45,189 292.1,195.65 297.45,185.45 
					"/>
	</g>
	<g>
		<polygon style="fill-rule:evenodd;clip-rule:evenodd;fill:#918B4B;" points="89.35,192.25 86.3,188 82.95,192.1 86.3,185.8 		"/>
	</g>
	<g>
		<polygon style="fill-rule:evenodd;clip-rule:evenodd;fill:#918B4B;" points="482.1,124.45 477.4,117.9 472.25,124.25 477.4,114.5 
					"/>
	</g>
	<g>
		<polygon style="fill-rule:evenodd;clip-rule:evenodd;fill:#918B4B;" points="449.85,128.8 446.75,124.45 443.35,128.65 
			446.75,122.25 		"/>
	</g>
	<g>
		<polygon style="fill-rule:evenodd;clip-rule:evenodd;fill:#918B4B;" points="424.85,118.15 421.5,113.5 417.9,118 421.5,111.1 		
			"/>
	</g>
	<g>
		<polygon style="fill-rule:evenodd;clip-rule:evenodd;fill:#918B4B;" points="398.3,117.45 395.5,113.5 392.45,117.3 395.5,111.5 
					"/>
	</g>
	<g>
		<polygon style="fill-rule:evenodd;clip-rule:evenodd;fill:#918B4B;" points="370.9,116.85 365.55,109.35 359.65,116.65 
			365.55,105.5 		"/>
	</g>
	<g>
		<polygon style="fill-rule:evenodd;clip-rule:evenodd;fill:#918B4B;" points="338.95,121.9 333.55,114.35 327.65,121.7 
			333.55,110.5 		"/>
	</g>
	<g>
		<polygon style="fill-rule:evenodd;clip-rule:evenodd;fill:#918B4B;" points="303.65,119.5 298.5,112.4 292.95,119.3 298.5,108.7 
					"/>
	</g>
	<g>
		<polygon style="fill-rule:evenodd;clip-rule:evenodd;fill:#918B4B;" points="277.5,127.3 272.5,120.4 267.15,127.1 272.5,116.85 
					"/>
	</g>
	<g>
		<polygon style="fill-rule:evenodd;clip-rule:evenodd;fill:#918B4B;" points="253.4,125.85 247.7,117.85 241.45,125.6 
			247.7,113.75 		"/>
	</g>
	<g>
		<polygon style="fill-rule:evenodd;clip-rule:evenodd;fill:#918B4B;" points="213.85,140.05 209.95,134.6 205.7,139.85 
			209.95,131.8 		"/>
	</g>
	<g>
		<polygon style="fill-rule:evenodd;clip-rule:evenodd;fill:#918B4B;" points="195.05,123.75 189.7,116.3 183.85,123.55 
			189.7,112.4 		"/>
	</g>
	<g>
		<polygon style="fill-rule:evenodd;clip-rule:evenodd;fill:#918B4B;" points="160.2,120.35 157.1,115.95 153.7,120.2 157.1,113.7 
					"/>
	</g>
	<g>
		<polygon style="fill-rule:evenodd;clip-rule:evenodd;fill:#918B4B;" points="140.25,135.55 136.1,129.75 131.55,135.35 
			136.1,126.75 		"/>
	</g>
	<g>
		<polygon style="fill-rule:evenodd;clip-rule:evenodd;fill:#918B4B;" points="106.55,119.1 103.3,114.6 99.8,118.95 103.3,112.25 
					"/>
	</g>
	<g>
		<polygon style="fill-rule:evenodd;clip-rule:evenodd;fill:#918B4B;" points="77.15,119.2 71.55,111.35 65.4,118.95 71.55,107.3 		
			"/>
	</g>
	<g>
		<polygon style="fill-rule:evenodd;clip-rule:evenodd;fill:#918B4B;" points="48.55,123.3 45.05,118.5 41.3,123.15 45.05,116 		"/>
	</g>
	<g>
		<polygon style="fill-rule:evenodd;clip-rule:evenodd;fill:#918B4B;" points="14.3,126.05 10.75,121.1 6.85,125.9 10.75,118.55 		
			"/>
	</g>
</g>
<g>
	<rect y="200" style="fill-rule:evenodd;clip-rule:evenodd;fill:#ABA254;" width="500" height="100"/>
	<g>
		<polygon style="fill-rule:evenodd;clip-rule:evenodd;fill:#918B4B;" points="46.2,290.7 41.9,284.75 37.3,290.5 41.9,281.7 		"/>
	</g>
	<g>
		<polygon style="fill-rule:evenodd;clip-rule:evenodd;fill:#918B4B;" points="76.25,278.7 71.1,271.55 65.55,278.45 71.1,267.85 		
			"/>
	</g>
	<g>
		<polygon style="fill-rule:evenodd;clip-rule:evenodd;fill:#918B4B;" points="106.9,281.9 102.85,276.25 98.45,281.7 
			102.85,273.35 		"/>
	</g>
	<g>
		<polygon style="fill-rule:evenodd;clip-rule:evenodd;fill:#918B4B;" points="139.4,283.8 134.95,277.6 130.1,283.65 134.95,274.4 
					"/>
	</g>
	<g>
		<polygon style="fill-rule:evenodd;clip-rule:evenodd;fill:#918B4B;" points="158.8,267.75 153.55,274.25 158.8,264.3 
			163.6,274.45 		"/>
	</g>
	<g>
		<polygon style="fill-rule:evenodd;clip-rule:evenodd;fill:#918B4B;" points="197.2,282.45 194.35,278.5 191.3,282.35 
			194.35,276.45 		"/>
	</g>
	<g>
		<polygon style="fill-rule:evenodd;clip-rule:evenodd;fill:#918B4B;" points="230.25,274.4 225.5,267.8 220.4,274.2 225.5,264.4 		
			"/>
	</g>
	<g>
		<polygon style="fill-rule:evenodd;clip-rule:evenodd;fill:#918B4B;" points="256.85,287.1 252.25,280.75 247.3,286.9 
			252.25,277.45 		"/>
	</g>
	<g>
		<polygon style="fill-rule:evenodd;clip-rule:evenodd;fill:#918B4B;" points="278.7,279.75 273.45,272.5 267.75,279.55 
			273.45,268.7 		"/>
	</g>
	<g>
		<polygon style="fill-rule:evenodd;clip-rule:evenodd;fill:#918B4B;" points="320.2,279.7 316.1,274 311.65,279.5 316.1,271.05 		
			"/>
	</g>
	<g>
		<polygon style="fill-rule:evenodd;clip-rule:evenodd;fill:#918B4B;" points="352.75,290.1 347.65,282.95 342.05,289.85 
			347.65,279.3 		"/>
	</g>
	<g>
		<polygon style="fill-rule:evenodd;clip-rule:evenodd;fill:#918B4B;" points="382.45,293.6 379.5,289.5 376.3,293.45 379.5,287.4 
					"/>
	</g>
	<g>
		<polygon style="fill-rule:evenodd;clip-rule:evenodd;fill:#918B4B;" points="404.95,281.15 402.3,277.45 399.4,281 402.3,275.55 
					"/>
	</g>
	<g>
		<polygon style="fill-rule:evenodd;clip-rule:evenodd;fill:#918B4B;" points="438.35,285.2 433,277.75 427.15,285 433,273.9 		"/>
	</g>
	<g>
		<polygon style="fill-rule:evenodd;clip-rule:evenodd;fill:#918B4B;" points="471.45,277 465.85,269.25 459.8,276.75 
			465.85,265.25 		"/>
	</g>
	<g>
		<polygon style="fill-rule:evenodd;clip-rule:evenodd;fill:#918B4B;" points="496.4,289.95 491.65,283.35 486.5,289.7 
			491.65,279.95 		"/>
	</g>
	<g>
		<polygon style="fill-rule:evenodd;clip-rule:evenodd;fill:#918B4B;" points="227.85,294.4 222.5,287 216.65,294.2 222.5,283.15 		
			"/>
	</g>
	<g>
		<polygon style="fill-rule:evenodd;clip-rule:evenodd;fill:#918B4B;" points="456.35,294.25 453.3,290 449.95,294.15 453.3,287.8 
					"/>
	</g>
	<g>
		<polygon style="fill-rule:evenodd;clip-rule:evenodd;fill:#918B4B;" points="169.7,293.25 164.45,286 158.8,293 164.45,282.25 		
			"/>
	</g>
	<g>
		<polygon style="fill-rule:evenodd;clip-rule:evenodd;fill:#918B4B;" points="497.4,260.5 494.5,256.45 491.3,260.35 494.5,254.35 
					"/>
	</g>
	<g>
		<polygon style="fill-rule:evenodd;clip-rule:evenodd;fill:#918B4B;" points="467.7,255.7 465.05,252.05 462.2,255.6 465.05,250.2 
					"/>
	</g>
	<g>
		<polygon style="fill-rule:evenodd;clip-rule:evenodd;fill:#918B4B;" points="438.45,265.3 433.9,259 428.95,265.1 433.9,255.7 		
			"/>
	</g>
	<g>
		<polygon style="fill-rule:evenodd;clip-rule:evenodd;fill:#918B4B;" points="400.95,261.6 396.35,255.15 391.3,261.4 
			396.35,251.85 		"/>
	</g>
	<g>
		<polygon style="fill-rule:evenodd;clip-rule:evenodd;fill:#918B4B;" points="371.25,262.7 367.8,257.85 364.05,262.55 
			367.8,255.4 		"/>
	</g>
	<g>
		<polygon style="fill-rule:evenodd;clip-rule:evenodd;fill:#918B4B;" points="347.15,268.2 344.5,264.5 341.6,268.1 344.5,262.6 		
			"/>
	</g>
	<g>
		<polygon style="fill-rule:evenodd;clip-rule:evenodd;fill:#918B4B;" points="321.3,254 318.3,257.7 321.3,252.05 324.05,257.8 		
			"/>
	</g>
	<g>
		<polygon style="fill-rule:evenodd;clip-rule:evenodd;fill:#918B4B;" points="294.7,267.85 291.3,263.1 287.55,267.7 291.3,260.65 
					"/>
	</g>
	<g>
		<polygon style="fill-rule:evenodd;clip-rule:evenodd;fill:#918B4B;" points="262.65,257.15 259.5,252.7 256.05,257 259.5,250.45 
					"/>
	</g>
	<g>
		<polygon style="fill-rule:evenodd;clip-rule:evenodd;fill:#918B4B;" points="218.55,216.1 215.4,211.65 211.95,215.95 
			215.4,209.4 		"/>
	</g>
	<g>
		<polygon style="fill-rule:evenodd;clip-rule:evenodd;fill:#918B4B;" points="234.1,254.75 229.1,247.85 223.7,254.55 
			229.1,244.25 		"/>
	</g>
	<g>
		<polygon style="fill-rule:evenodd;clip-rule:evenodd;fill:#918B4B;" points="199.2,258.1 193.5,265.15 199.2,254.3 204.45,265.4 
					"/>
	</g>
	<g>
		<polygon style="fill-rule:evenodd;clip-rule:evenodd;fill:#918B4B;" points="179.35,263.15 174.8,256.8 169.85,262.95 
			174.8,253.5 		"/>
	</g>
	<g>
		<polygon style="fill-rule:evenodd;clip-rule:evenodd;fill:#918B4B;" points="145.55,260.5 142.15,255.75 138.4,260.35 
			142.15,253.3 		"/>
	</g>
	<g>
		<polygon style="fill-rule:evenodd;clip-rule:evenodd;fill:#918B4B;" points="491.1,211.25 487.65,206.45 483.95,211.1 487.65,204 
					"/>
	</g>
	<g>
		<polygon style="fill-rule:evenodd;clip-rule:evenodd;fill:#918B4B;" points="113.15,253.6 108.4,247 103.25,253.4 108.4,243.55 		
			"/>
	</g>
	<g>
		<polygon style="fill-rule:evenodd;clip-rule:evenodd;fill:#918B4B;" points="79.3,251.55 76,255.6 79.3,249.4 82.3,255.75 		"/>
	</g>
	<g>
		<polygon style="fill-rule:evenodd;clip-rule:evenodd;fill:#918B4B;" points="13.7,268.1 10.65,263.95 7.4,268 10.65,261.75 		"/>
	</g>
	<g>
		<polygon style="fill-rule:evenodd;clip-rule:evenodd;fill:#918B4B;" points="57.85,262.25 52.35,254.6 46.4,262 52.35,250.65 		
			"/>
	</g>
	<g>
		<polygon style="fill-rule:evenodd;clip-rule:evenodd;fill:#918B4B;" points="32.7,257.25 28.5,251.45 23.95,257.1 28.5,248.45 		
			"/>
	</g>
	<g>
		<polygon style="fill-rule:evenodd;clip-rule:evenodd;fill:#918B4B;" points="19.25,238.45 14.9,232.35 10.15,238.25 14.9,229.25 
					"/>
	</g>
	<g>
		<polygon style="fill-rule:evenodd;clip-rule:evenodd;fill:#918B4B;" points="38.45,227.2 33.2,233.75 38.45,223.75 43.3,233.95 		
			"/>
	</g>
	<g>
		<polygon style="fill-rule:evenodd;clip-rule:evenodd;fill:#918B4B;" points="72.2,243.2 66.5,235.25 60.3,242.95 66.5,231.15 		
			"/>
	</g>
	<g>
		<polygon style="fill-rule:evenodd;clip-rule:evenodd;fill:#918B4B;" points="100.4,235.65 96.7,230.5 92.65,235.5 96.7,227.8 		
			"/>
	</g>
	<g>
		<polygon style="fill-rule:evenodd;clip-rule:evenodd;fill:#918B4B;" points="130.65,221.1 127.4,216.6 123.9,221 127.4,214.3 		
			"/>
	</g>
	<g>
		<polygon style="fill-rule:evenodd;clip-rule:evenodd;fill:#918B4B;" points="151.2,245.45 148,241 144.55,245.3 148,238.7 		"/>
	</g>
	<g>
		<polygon style="fill-rule:evenodd;clip-rule:evenodd;fill:#918B4B;" points="194,247.75 191.3,244 188.35,247.6 191.3,242.05 		
			"/>
	</g>
	<g>
		<polygon style="fill-rule:evenodd;clip-rule:evenodd;fill:#918B4B;" points="173.95,238.75 171.25,235 168.35,238.6 
			171.25,233.05 		"/>
	</g>
	<g>
		<polygon style="fill-rule:evenodd;clip-rule:evenodd;fill:#918B4B;" points="20.2,295.25 17.5,291.5 14.6,295.15 17.5,289.6 		"/>
	</g>
	<g>
		<polygon style="fill-rule:evenodd;clip-rule:evenodd;fill:#918B4B;" points="230.05,231.2 226,225.55 221.55,231 226,222.6 		"/>
	</g>
	<g>
		<polygon style="fill-rule:evenodd;clip-rule:evenodd;fill:#918B4B;" points="256.6,245.3 251.65,238.4 246.25,245.1 
			251.65,234.85 		"/>
	</g>
	<g>
		<polygon style="fill-rule:evenodd;clip-rule:evenodd;fill:#918B4B;" points="288.5,246.95 284.95,241.95 281.05,246.8 
			284.95,239.4 		"/>
	</g>
	<g>
		<polygon style="fill-rule:evenodd;clip-rule:evenodd;fill:#918B4B;" points="315.45,246.7 310.55,239.85 305.2,246.45 
			310.55,236.35 		"/>
	</g>
	<g>
		<polygon style="fill-rule:evenodd;clip-rule:evenodd;fill:#918B4B;" points="347.2,244.55 344.2,240.45 341,244.45 344.2,238.3 		
			"/>
	</g>
	<g>
		<polygon style="fill-rule:evenodd;clip-rule:evenodd;fill:#918B4B;" points="380.1,238.45 375.4,231.9 370.25,238.2 375.4,228.5 
					"/>
	</g>
	<g>
		<polygon style="fill-rule:evenodd;clip-rule:evenodd;fill:#918B4B;" points="403.3,238.3 397.6,245.4 403.3,234.55 408.55,245.6 
					"/>
	</g>
	<g>
		<polygon style="fill-rule:evenodd;clip-rule:evenodd;fill:#918B4B;" points="431.15,248.5 427.8,243.8 424.2,248.35 427.8,241.4 
					"/>
	</g>
	<g>
		<polygon style="fill-rule:evenodd;clip-rule:evenodd;fill:#918B4B;" points="456.15,247.7 452.8,243 449.1,247.55 452.8,240.6 		
			"/>
	</g>
	<g>
		<polygon style="fill-rule:evenodd;clip-rule:evenodd;fill:#918B4B;" points="490.5,246.9 486.2,240.9 481.5,246.7 486.2,237.8 		
			"/>
	</g>
	<g>
		<polygon style="fill-rule:evenodd;clip-rule:evenodd;fill:#918B4B;" points="30.25,216.95 24.5,208.95 18.25,216.7 24.5,204.85 		
			"/>
	</g>
	<g>
		<polygon style="fill-rule:evenodd;clip-rule:evenodd;fill:#918B4B;" points="458.9,212.95 455.35,208 451.45,212.8 455.35,205.4 
					"/>
	</g>
	<g>
		<polygon style="fill-rule:evenodd;clip-rule:evenodd;fill:#918B4B;" points="302.4,295.85 297.45,289 292.1,295.65 297.45,285.45 
					"/>
	</g>
	<g>
		<polygon style="fill-rule:evenodd;clip-rule:evenodd;fill:#918B4B;" points="89.35,292.25 86.3,288 82.95,292.1 86.3,285.8 		"/>
	</g>
	<g>
		<polygon style="fill-rule:evenodd;clip-rule:evenodd;fill:#918B4B;" points="482.1,224.45 477.4,217.9 472.25,224.25 477.4,214.5 
					"/>
	</g>
	<g>
		<polygon style="fill-rule:evenodd;clip-rule:evenodd;fill:#918B4B;" points="449.85,228.8 446.75,224.45 443.35,228.65 
			446.75,222.25 		"/>
	</g>
	<g>
		<polygon style="fill-rule:evenodd;clip-rule:evenodd;fill:#918B4B;" points="424.85,218.15 421.5,213.5 417.9,218 421.5,211.1 		
			"/>
	</g>
	<g>
		<polygon style="fill-rule:evenodd;clip-rule:evenodd;fill:#918B4B;" points="398.3,217.45 395.5,213.5 392.45,217.3 395.5,211.5 
					"/>
	</g>
	<g>
		<polygon style="fill-rule:evenodd;clip-rule:evenodd;fill:#918B4B;" points="370.9,216.85 365.55,209.35 359.65,216.65 
			365.55,205.5 		"/>
	</g>
	<g>
		<polygon style="fill-rule:evenodd;clip-rule:evenodd;fill:#918B4B;" points="338.95,221.9 333.55,214.35 327.65,221.7 
			333.55,210.5 		"/>
	</g>
	<g>
		<polygon style="fill-rule:evenodd;clip-rule:evenodd;fill:#918B4B;" points="303.65,219.5 298.5,212.4 292.95,219.3 298.5,208.7 
					"/>
	</g>
	<g>
		<polygon style="fill-rule:evenodd;clip-rule:evenodd;fill:#918B4B;" points="277.5,227.3 272.5,220.4 267.15,227.1 272.5,216.85 
					"/>
	</g>
	<g>
		<polygon style="fill-rule:evenodd;clip-rule:evenodd;fill:#918B4B;" points="253.4,225.85 247.7,217.85 241.45,225.6 
			247.7,213.75 		"/>
	</g>
	<g>
		<polygon style="fill-rule:evenodd;clip-rule:evenodd;fill:#918B4B;" points="213.85,240.05 209.95,234.6 205.7,239.85 
			209.95,231.8 		"/>
	</g>
	<g>
		<polygon style="fill-rule:evenodd;clip-rule:evenodd;fill:#918B4B;" points="195.05,223.75 189.7,216.3 183.85,223.55 
			189.7,212.4 		"/>
	</g>
	<g>
		<polygon style="fill-rule:evenodd;clip-rule:evenodd;fill:#918B4B;" points="160.2,220.35 157.1,215.95 153.7,220.2 157.1,213.7 
					"/>
	</g>
	<g>
		<polygon style="fill-rule:evenodd;clip-rule:evenodd;fill:#918B4B;" points="140.25,235.55 136.1,229.75 131.55,235.35 
			136.1,226.75 		"/>
	</g>
	<g>
		<polygon style="fill-rule:evenodd;clip-rule:evenodd;fill:#918B4B;" points="106.55,219.1 103.3,214.6 99.8,218.95 103.3,212.25 
					"/>
	</g>
	<g>
		<polygon style="fill-rule:evenodd;clip-rule:evenodd;fill:#918B4B;" points="77.15,219.2 71.55,211.35 65.4,218.95 71.55,207.3 		
			"/>
	</g>
	<g>
		<polygon style="fill-rule:evenodd;clip-rule:evenodd;fill:#918B4B;" points="48.55,223.3 45.05,218.5 41.3,223.15 45.05,216 		"/>
	</g>
	<g>
		<polygon style="fill-rule:evenodd;clip-rule:evenodd;fill:#918B4B;" points="14.3,226.05 10.75,221.1 6.85,225.9 10.75,218.55 		
			"/>
	</g>
</g>
<g>
	<rect style="fill-rule:evenodd;clip-rule:evenodd;fill:#ABA254;" width="500" height="100"/>
	<g>
		<polygon style="fill-rule:evenodd;clip-rule:evenodd;fill:#918B4B;" points="46.2,90.7 41.9,84.75 37.3,90.5 41.9,81.7 		"/>
	</g>
	<g>
		<polygon style="fill-rule:evenodd;clip-rule:evenodd;fill:#918B4B;" points="76.25,78.7 71.1,71.55 65.55,78.45 71.1,67.85 		"/>
	</g>
	<g>
		<polygon style="fill-rule:evenodd;clip-rule:evenodd;fill:#918B4B;" points="106.9,81.9 102.85,76.25 98.45,81.7 102.85,73.35 		
			"/>
	</g>
	<g>
		<polygon style="fill-rule:evenodd;clip-rule:evenodd;fill:#918B4B;" points="139.4,83.8 134.95,77.6 130.1,83.65 134.95,74.4 		
			"/>
	</g>
	<g>
		<polygon style="fill-rule:evenodd;clip-rule:evenodd;fill:#918B4B;" points="158.8,67.75 153.55,74.25 158.8,64.3 163.6,74.45 		
			"/>
	</g>
	<g>
		<polygon style="fill-rule:evenodd;clip-rule:evenodd;fill:#918B4B;" points="197.2,82.45 194.35,78.5 191.3,82.35 194.35,76.45 		
			"/>
	</g>
	<g>
		<polygon style="fill-rule:evenodd;clip-rule:evenodd;fill:#918B4B;" points="230.25,74.4 225.5,67.8 220.4,74.2 225.5,64.4 		"/>
	</g>
	<g>
		<polygon style="fill-rule:evenodd;clip-rule:evenodd;fill:#918B4B;" points="256.85,87.1 252.25,80.75 247.3,86.9 252.25,77.45 		
			"/>
	</g>
	<g>
		<polygon style="fill-rule:evenodd;clip-rule:evenodd;fill:#918B4B;" points="278.7,79.75 273.45,72.5 267.75,79.55 273.45,68.7 		
			"/>
	</g>
	<g>
		<polygon style="fill-rule:evenodd;clip-rule:evenodd;fill:#918B4B;" points="320.2,79.7 316.1,74 311.65,79.5 316.1,71.05 		"/>
	</g>
	<g>
		<polygon style="fill-rule:evenodd;clip-rule:evenodd;fill:#918B4B;" points="352.75,90.1 347.65,82.95 342.05,89.85 347.65,79.3 
					"/>
	</g>
	<g>
		<polygon style="fill-rule:evenodd;clip-rule:evenodd;fill:#918B4B;" points="382.45,93.6 379.5,89.5 376.3,93.45 379.5,87.4 		"/>
	</g>
	<g>
		<polygon style="fill-rule:evenodd;clip-rule:evenodd;fill:#918B4B;" points="404.95,81.15 402.3,77.45 399.4,81 402.3,75.55 		"/>
	</g>
	<g>
		<polygon style="fill-rule:evenodd;clip-rule:evenodd;fill:#918B4B;" points="438.35,85.2 433,77.75 427.15,85 433,73.9 		"/>
	</g>
	<g>
		<polygon style="fill-rule:evenodd;clip-rule:evenodd;fill:#918B4B;" points="471.45,77 465.85,69.25 459.8,76.75 465.85,65.25 		
			"/>
	</g>
	<g>
		<polygon style="fill-rule:evenodd;clip-rule:evenodd;fill:#918B4B;" points="496.4,89.95 491.65,83.35 486.5,89.75 491.65,79.95 
					"/>
	</g>
	<g>
		<polygon style="fill-rule:evenodd;clip-rule:evenodd;fill:#918B4B;" points="227.85,94.4 222.5,87 216.65,94.2 222.5,83.15 		"/>
	</g>
	<g>
		<polygon style="fill-rule:evenodd;clip-rule:evenodd;fill:#918B4B;" points="456.35,94.25 453.3,90 449.95,94.15 453.3,87.8 		"/>
	</g>
	<g>
		<polygon style="fill-rule:evenodd;clip-rule:evenodd;fill:#918B4B;" points="169.7,93.25 164.45,86 158.8,93 164.45,82.25 		"/>
	</g>
	<g>
		<polygon style="fill-rule:evenodd;clip-rule:evenodd;fill:#918B4B;" points="497.4,60.5 494.5,56.45 491.3,60.35 494.5,54.35 		
			"/>
	</g>
	<g>
		<polygon style="fill-rule:evenodd;clip-rule:evenodd;fill:#918B4B;" points="467.7,55.7 465.05,52.05 462.2,55.6 465.05,50.2 		
			"/>
	</g>
	<g>
		<polygon style="fill-rule:evenodd;clip-rule:evenodd;fill:#918B4B;" points="438.45,65.3 433.9,59 428.95,65.1 433.9,55.7 		"/>
	</g>
	<g>
		<polygon style="fill-rule:evenodd;clip-rule:evenodd;fill:#918B4B;" points="400.95,61.6 396.35,55.15 391.3,61.4 396.35,51.85 		
			"/>
	</g>
	<g>
		<polygon style="fill-rule:evenodd;clip-rule:evenodd;fill:#918B4B;" points="371.25,62.7 367.8,57.85 364.05,62.55 367.8,55.4 		
			"/>
	</g>
	<g>
		<polygon style="fill-rule:evenodd;clip-rule:evenodd;fill:#918B4B;" points="347.15,68.2 344.5,64.5 341.6,68.1 344.5,62.6 		"/>
	</g>
	<g>
		<polygon style="fill-rule:evenodd;clip-rule:evenodd;fill:#918B4B;" points="321.3,54 318.3,57.7 321.3,52.05 324.05,57.8 		"/>
	</g>
	<g>
		<polygon style="fill-rule:evenodd;clip-rule:evenodd;fill:#918B4B;" points="294.7,67.85 291.3,63.1 287.55,67.7 291.3,60.65 		
			"/>
	</g>
	<g>
		<polygon style="fill-rule:evenodd;clip-rule:evenodd;fill:#918B4B;" points="262.65,57.15 259.5,52.7 256.05,57 259.5,50.45 		"/>
	</g>
	<g>
		<polygon style="fill-rule:evenodd;clip-rule:evenodd;fill:#918B4B;" points="218.55,16.1 215.4,11.65 211.95,15.95 215.4,9.4 		
			"/>
	</g>
	<g>
		<polygon style="fill-rule:evenodd;clip-rule:evenodd;fill:#918B4B;" points="234.1,54.75 229.1,47.85 223.7,54.55 229.1,44.25 		
			"/>
	</g>
	<g>
		<polygon style="fill-rule:evenodd;clip-rule:evenodd;fill:#918B4B;" points="199.2,58.1 193.5,65.15 199.2,54.3 204.45,65.4 		"/>
	</g>
	<g>
		<polygon style="fill-rule:evenodd;clip-rule:evenodd;fill:#918B4B;" points="179.35,63.15 174.8,56.8 169.85,62.95 174.8,53.5 		
			"/>
	</g>
	<g>
		<polygon style="fill-rule:evenodd;clip-rule:evenodd;fill:#918B4B;" points="145.55,60.5 142.15,55.75 138.4,60.35 142.15,53.3 		
			"/>
	</g>
	<g>
		<polygon style="fill-rule:evenodd;clip-rule:evenodd;fill:#918B4B;" points="491.1,11.25 487.65,6.45 483.95,11.1 487.65,4 		"/>
	</g>
	<g>
		<polygon style="fill-rule:evenodd;clip-rule:evenodd;fill:#918B4B;" points="113.15,53.6 108.4,47 103.25,53.4 108.4,43.55 		"/>
	</g>
	<g>
		<polygon style="fill-rule:evenodd;clip-rule:evenodd;fill:#918B4B;" points="79.3,51.55 76,55.6 79.3,49.4 82.3,55.75 		"/>
	</g>
	<g>
		<polygon style="fill-rule:evenodd;clip-rule:evenodd;fill:#918B4B;" points="13.7,68.1 10.65,63.95 7.4,68 10.65,61.75 		"/>
	</g>
	<g>
		<polygon style="fill-rule:evenodd;clip-rule:evenodd;fill:#918B4B;" points="57.85,62.25 52.35,54.6 46.4,62 52.35,50.65 		"/>
	</g>
	<g>
		<polygon style="fill-rule:evenodd;clip-rule:evenodd;fill:#918B4B;" points="32.7,57.25 28.5,51.45 23.95,57.1 28.5,48.45 		"/>
	</g>
	<g>
		<polygon style="fill-rule:evenodd;clip-rule:evenodd;fill:#918B4B;" points="19.25,38.45 14.9,32.35 10.15,38.25 14.9,29.25 		"/>
	</g>
	<g>
		<polygon style="fill-rule:evenodd;clip-rule:evenodd;fill:#918B4B;" points="38.45,27.2 33.2,33.75 38.45,23.75 43.3,33.95 		"/>
	</g>
	<g>
		<polygon style="fill-rule:evenodd;clip-rule:evenodd;fill:#918B4B;" points="72.2,43.2 66.5,35.25 60.3,42.95 66.5,31.15 		"/>
	</g>
	<g>
		<polygon style="fill-rule:evenodd;clip-rule:evenodd;fill:#918B4B;" points="100.4,35.65 96.7,30.5 92.65,35.5 96.7,27.8 		"/>
	</g>
	<g>
		<polygon style="fill-rule:evenodd;clip-rule:evenodd;fill:#918B4B;" points="130.65,21.1 127.4,16.6 123.9,21 127.4,14.3 		"/>
	</g>
	<g>
		<polygon style="fill-rule:evenodd;clip-rule:evenodd;fill:#918B4B;" points="151.2,45.45 148,41 144.55,45.3 148,38.7 		"/>
	</g>
	<g>
		<polygon style="fill-rule:evenodd;clip-rule:evenodd;fill:#918B4B;" points="194,47.75 191.3,44 188.35,47.6 191.3,42.05 		"/>
	</g>
	<g>
		<polygon style="fill-rule:evenodd;clip-rule:evenodd;fill:#918B4B;" points="173.95,38.75 171.25,35 168.35,38.6 171.25,33.05 		
			"/>
	</g>
	<g>
		<polygon style="fill-rule:evenodd;clip-rule:evenodd;fill:#918B4B;" points="20.2,95.25 17.5,91.5 14.6,95.15 17.5,89.6 		"/>
	</g>
	<g>
		<polygon style="fill-rule:evenodd;clip-rule:evenodd;fill:#918B4B;" points="230.05,31.2 226,25.55 221.55,31 226,22.6 		"/>
	</g>
	<g>
		<polygon style="fill-rule:evenodd;clip-rule:evenodd;fill:#918B4B;" points="256.6,45.3 251.65,38.4 246.25,45.1 251.65,34.85 		
			"/>
	</g>
	<g>
		<polygon style="fill-rule:evenodd;clip-rule:evenodd;fill:#918B4B;" points="288.5,46.95 284.95,41.95 281.05,46.8 284.95,39.4 		
			"/>
	</g>
	<g>
		<polygon style="fill-rule:evenodd;clip-rule:evenodd;fill:#918B4B;" points="315.45,46.7 310.55,39.85 305.2,46.45 310.55,36.35 
					"/>
	</g>
	<g>
		<polygon style="fill-rule:evenodd;clip-rule:evenodd;fill:#918B4B;" points="347.2,44.55 344.2,40.45 341,44.45 344.2,38.3 		"/>
	</g>
	<g>
		<polygon style="fill-rule:evenodd;clip-rule:evenodd;fill:#918B4B;" points="380.1,38.45 375.4,31.9 370.25,38.2 375.4,28.5 		"/>
	</g>
	<g>
		<polygon style="fill-rule:evenodd;clip-rule:evenodd;fill:#918B4B;" points="403.3,38.3 397.6,45.4 403.3,34.55 408.55,45.6 		"/>
	</g>
	<g>
		<polygon style="fill-rule:evenodd;clip-rule:evenodd;fill:#918B4B;" points="431.15,48.5 427.8,43.8 424.2,48.35 427.8,41.4 		"/>
	</g>
	<g>
		<polygon style="fill-rule:evenodd;clip-rule:evenodd;fill:#918B4B;" points="456.15,47.7 452.8,43 449.1,47.55 452.8,40.6 		"/>
	</g>
	<g>
		<polygon style="fill-rule:evenodd;clip-rule:evenodd;fill:#918B4B;" points="490.5,46.9 486.2,40.9 481.5,46.7 486.2,37.8 		"/>
	</g>
	<g>
		<polygon style="fill-rule:evenodd;clip-rule:evenodd;fill:#918B4B;" points="30.25,16.95 24.5,8.95 18.25,16.7 24.5,4.85 		"/>
	</g>
	<g>
		<polygon style="fill-rule:evenodd;clip-rule:evenodd;fill:#918B4B;" points="458.9,12.95 455.35,8 451.45,12.8 455.35,5.4 		"/>
	</g>
	<g>
		<polygon style="fill-rule:evenodd;clip-rule:evenodd;fill:#918B4B;" points="302.4,95.85 297.45,89 292.1,95.65 297.45,85.45 		
			"/>
	</g>
	<g>
		<polygon style="fill-rule:evenodd;clip-rule:evenodd;fill:#918B4B;" points="89.35,92.25 86.3,88 82.95,92.1 86.3,85.8 		"/>
	</g>
	<g>
		<polygon style="fill-rule:evenodd;clip-rule:evenodd;fill:#918B4B;" points="482.1,24.45 477.4,17.9 472.25,24.25 477.4,14.5 		
			"/>
	</g>
	<g>
		<polygon style="fill-rule:evenodd;clip-rule:evenodd;fill:#918B4B;" points="449.85,28.8 446.75,24.45 443.35,28.65 446.75,22.25 
					"/>
	</g>
	<g>
		<polygon style="fill-rule:evenodd;clip-rule:evenodd;fill:#918B4B;" points="424.85,18.15 421.5,13.5 417.9,18 421.5,11.1 		"/>
	</g>
	<g>
		<polygon style="fill-rule:evenodd;clip-rule:evenodd;fill:#918B4B;" points="398.3,17.45 395.5,13.5 392.45,17.3 395.5,11.5 		"/>
	</g>
	<g>
		<polygon style="fill-rule:evenodd;clip-rule:evenodd;fill:#918B4B;" points="370.9,16.85 365.55,9.35 359.65,16.65 365.55,5.5 		
			"/>
	</g>
	<g>
		<polygon style="fill-rule:evenodd;clip-rule:evenodd;fill:#918B4B;" points="338.95,21.9 333.55,14.35 327.65,21.7 333.55,10.5 		
			"/>
	</g>
	<g>
		<polygon style="fill-rule:evenodd;clip-rule:evenodd;fill:#918B4B;" points="303.65,19.5 298.5,12.4 292.95,19.3 298.5,8.7 		"/>
	</g>
	<g>
		<polygon style="fill-rule:evenodd;clip-rule:evenodd;fill:#918B4B;" points="277.5,27.3 272.5,20.4 267.15,27.1 272.5,16.85 		"/>
	</g>
	<g>
		<polygon style="fill-rule:evenodd;clip-rule:evenodd;fill:#918B4B;" points="253.4,25.85 247.7,17.85 241.45,25.6 247.7,13.75 		
			"/>
	</g>
	<g>
		<polygon style="fill-rule:evenodd;clip-rule:evenodd;fill:#918B4B;" points="213.85,40.05 209.95,34.6 205.7,39.85 209.95,31.8 		
			"/>
	</g>
	<g>
		<polygon style="fill-rule:evenodd;clip-rule:evenodd;fill:#918B4B;" points="195.05,23.75 189.7,16.3 183.85,23.55 189.7,12.4 		
			"/>
	</g>
	<g>
		<polygon style="fill-rule:evenodd;clip-rule:evenodd;fill:#918B4B;" points="160.2,20.35 157.1,15.95 153.7,20.2 157.1,13.7 		"/>
	</g>
	<g>
		<polygon style="fill-rule:evenodd;clip-rule:evenodd;fill:#918B4B;" points="140.25,35.55 136.1,29.75 131.55,35.35 136.1,26.75 
					"/>
	</g>
	<g>
		<polygon style="fill-rule:evenodd;clip-rule:evenodd;fill:#918B4B;" points="106.55,19.1 103.3,14.6 99.8,18.95 103.3,12.25 		"/>
	</g>
	<g>
		<polygon style="fill-rule:evenodd;clip-rule:evenodd;fill:#918B4B;" points="77.15,19.2 71.55,11.35 65.4,18.95 71.55,7.3 		"/>
	</g>
	<g>
		<polygon style="fill-rule:evenodd;clip-rule:evenodd;fill:#918B4B;" points="48.55,23.3 45.05,18.5 41.3,23.15 45.05,16 		"/>
	</g>
	<g>
		<polygon style="fill-rule:evenodd;clip-rule:evenodd;fill:#918B4B;" points="14.3,26.05 10.75,21.1 6.85,25.9 10.75,18.55 		"/>
	</g>
</g>
</svg>
