<?xml version="1.0" encoding="iso-8859-1"?>
<!-- Generator: Adobe Illustrator 15.1.0, SVG Export Plug-In . SVG Version: 6.00 Build 0)  -->
<!DOCTYPE svg PUBLIC "-//W3C//DTD SVG 1.1//EN" "http://www.w3.org/Graphics/SVG/1.1/DTD/svg11.dtd">
<svg version="1.1" id="floor" xmlns="http://www.w3.org/2000/svg" xmlns:xlink="http://www.w3.org/1999/xlink" x="0px" y="0px"
	 width="150px" height="135px" viewBox="0 0 150 135" style="enable-background:new 0 0 150 135;" xml:space="preserve">
<polygon style="fill-rule:evenodd;clip-rule:evenodd;fill:#9FA7A2;" points="0,135 150,0 150,135 "/>
<path style="fill-rule:evenodd;clip-rule:evenodd;fill:#8F9793;" d="M117.5,85.05c-0.5,0-1.017,0.233-1.55,0.7l-0.7,0.7l0.45-1.101
	c0.399-0.767,0.883-1.216,1.45-1.35c0.6-0.134,1.133,0.033,1.6,0.5c0.233,0.233,0.4,0.483,0.5,0.75l0.45-0.8
	c0.5-0.566,1.3-0.9,2.399-1c1.101-0.066,1.867,0.5,2.301,1.7c0.199,0.633,0.3,1.25,0.3,1.85c-0.7-1.434-1.517-2.2-2.45-2.3
	c-0.566-0.066-1.233,0.233-2,0.899l-1,1.051C118.917,85.583,118.333,85.05,117.5,85.05z"/>
<path style="fill-rule:evenodd;clip-rule:evenodd;fill:#8F9793;" d="M73.5,109.5c-0.7-1.4-1.533-2.15-2.5-2.25
	c-0.567-0.066-1.233,0.233-2,0.9c-0.367,0.333-0.683,0.666-0.95,1c-0.367-1.067-0.95-1.601-1.75-1.601c-0.533,0-1.066,0.25-1.6,0.75
	c-0.3,0.233-0.534,0.467-0.7,0.7c0.1-0.366,0.25-0.733,0.45-1.1c0.433-0.801,0.933-1.267,1.5-1.4c0.6-0.134,1.133,0.033,1.6,0.5
	c0.233,0.233,0.4,0.483,0.5,0.75c0.034-0.267,0.167-0.533,0.4-0.8c0.5-0.566,1.3-0.884,2.4-0.95s1.867,0.5,2.3,1.7
	C73.383,108.3,73.5,108.9,73.5,109.5z"/>
<path style="fill-rule:evenodd;clip-rule:evenodd;fill:#8F9793;" d="M126.7,127.1c-0.7-1.433-1.517-2.199-2.45-2.3
	c-0.566-0.066-1.233,0.233-2,0.9c-0.4,0.333-0.733,0.684-1,1.05c-0.333-1.066-0.917-1.6-1.75-1.6c-0.5,0-1.017,0.233-1.55,0.699
	c-0.3,0.233-0.533,0.467-0.7,0.7c0.1-0.333,0.25-0.7,0.45-1.1c0.399-0.767,0.883-1.217,1.45-1.351c0.933-0.233,1.633,0.167,2.1,1.2
	c0.033-0.267,0.184-0.533,0.45-0.8c0.5-0.533,1.3-0.85,2.399-0.95c1.101-0.066,1.867,0.5,2.301,1.7
	C126.6,125.884,126.7,126.5,126.7,127.1z"/>
<path style="fill-rule:evenodd;clip-rule:evenodd;fill:#8F9793;" d="M56.45,128.85c-0.7-1.433-1.517-2.199-2.45-2.3
	c-0.567-0.066-1.233,0.233-2,0.9c-0.4,0.333-0.733,0.684-1,1.05c-0.333-1.066-0.917-1.6-1.75-1.6c-0.5,0-1.017,0.233-1.55,0.699
	c-0.3,0.233-0.534,0.467-0.7,0.7c0.1-0.333,0.25-0.7,0.45-1.1c0.4-0.767,0.883-1.217,1.45-1.351c0.934-0.233,1.633,0.167,2.1,1.2
	c0.033-0.267,0.183-0.533,0.45-0.8c0.5-0.533,1.3-0.85,2.4-0.95c1.1-0.066,1.867,0.5,2.3,1.7
	C56.35,127.634,56.45,128.25,56.45,128.85z"/>
<path style="fill-rule:evenodd;clip-rule:evenodd;fill:#8F9793;" d="M139.5,30.25l0.45-0.8c0.5-0.567,1.3-0.9,2.399-1
	c1.101-0.067,1.867,0.5,2.301,1.7c0.199,0.633,0.3,1.25,0.3,1.85c-0.7-1.433-1.517-2.2-2.45-2.3c-0.566-0.067-1.233,0.233-2,0.9
	l-1,1.05c-0.333-1.066-0.917-1.6-1.75-1.6c-0.5,0-1.017,0.233-1.55,0.7l-0.7,0.7l0.45-1.1c0.399-0.767,0.883-1.217,1.45-1.35
	c0.6-0.133,1.133,0.033,1.6,0.5C139.233,29.733,139.4,29.983,139.5,30.25z"/>
<path style="fill-rule:evenodd;clip-rule:evenodd;fill:#8F9793;" d="M136.55,109.9c-0.366-1.067-0.95-1.601-1.75-1.601
	c-0.533,0-1.066,0.25-1.6,0.75l-0.7,0.7l0.45-1.1c0.434-0.801,0.934-1.267,1.5-1.4c0.6-0.134,1.133,0.033,1.6,0.5
	c0.233,0.233,0.4,0.483,0.5,0.75l0.4-0.8c0.5-0.566,1.3-0.884,2.399-0.95c1.101-0.066,1.867,0.5,2.301,1.7
	c0.233,0.6,0.35,1.2,0.35,1.8c-0.7-1.4-1.533-2.15-2.5-2.25c-0.566-0.066-1.233,0.233-2,0.9L136.55,109.9z"/>
<path style="fill-rule:evenodd;clip-rule:evenodd;fill:#8F9793;" d="M103.4,115.95c-1.2-0.533-2.301-0.75-3.301-0.65
	c-0.633,0.066-1.216,0.4-1.75,1c-0.267,0.3-0.466,0.584-0.6,0.851c-0.233-0.334-0.517-0.65-0.85-0.95c-0.7-0.634-1.367-0.884-2-0.75
	c-0.634,0.133-1.2,0.483-1.7,1.05c-0.267,0.3-0.467,0.566-0.601,0.8c-0.066-0.467-0.233-0.934-0.5-1.399
	c-0.5-0.867-1.166-1.233-2-1.101c-0.833,0.134-1.5,0.283-2,0.45l-0.5,0.2c0.233-0.267,0.517-0.533,0.851-0.8
	c0.733-0.567,1.45-0.851,2.149-0.851c0.7,0,1.284,0.316,1.75,0.95c0.267,0.3,0.45,0.6,0.551,0.9c0.199-0.233,0.466-0.467,0.8-0.7
	c0.666-0.467,1.35-0.733,2.05-0.8c0.7-0.067,1.184,0.183,1.45,0.75c0.133,0.3,0.2,0.6,0.2,0.899c0.199-0.2,0.483-0.399,0.85-0.6
	c0.7-0.4,1.417-0.65,2.15-0.75c0.767-0.066,1.5,0.166,2.199,0.7C102.934,115.417,103.2,115.684,103.4,115.95z"/>
<path style="fill-rule:evenodd;clip-rule:evenodd;fill:#8F9793;" d="M103.7,61c0.7,0,1.283,0.3,1.75,0.9
	c0.267,0.3,0.45,0.6,0.55,0.9l0.8-0.7c0.667-0.467,1.351-0.733,2.05-0.8c0.7-0.066,1.184,0.2,1.45,0.8c0.134,0.3,0.2,0.6,0.2,0.9
	l0.85-0.6c0.7-0.433,1.417-0.683,2.15-0.75c0.767-0.066,1.5,0.167,2.2,0.7c0.333,0.267,0.6,0.533,0.8,0.8
	c-1.2-0.566-2.3-0.783-3.3-0.65c-0.634,0.067-1.217,0.383-1.75,0.95l-0.601,0.85c-0.233-0.333-0.517-0.65-0.85-0.95
	c-0.7-0.6-1.366-0.833-2-0.7s-1.2,0.483-1.7,1.05l-0.6,0.8c-0.066-0.467-0.233-0.933-0.5-1.4c-0.5-0.867-1.167-1.233-2-1.1
	c-0.834,0.133-1.5,0.283-2,0.45l-0.5,0.2l0.85-0.8C102.283,61.283,103,61,103.7,61z"/>
<path style="fill-rule:evenodd;clip-rule:evenodd;fill:#8F9793;" d="M92.7,86.1l0.649-0.8c0.534-0.566,1.117-0.85,1.75-0.85
	c0.634,0,1.034,0.316,1.2,0.95c0.066,0.333,0.084,0.649,0.05,0.949c-0.166-0.933-0.633-1.35-1.399-1.25
	c-0.467,0.034-0.983,0.217-1.55,0.551L92.7,86.1z"/>
<path style="fill-rule:evenodd;clip-rule:evenodd;fill:#8F9793;" d="M49.5,102.25c0.167-0.267,0.383-0.533,0.65-0.8
	c0.533-0.566,1.117-0.851,1.75-0.851s1.033,0.317,1.2,0.95c0.066,0.334,0.083,0.65,0.05,0.95c-0.167-0.934-0.633-1.35-1.4-1.25
	c-0.467,0.033-0.983,0.217-1.55,0.55C49.933,101.967,49.7,102.116,49.5,102.25z"/>
<path style="fill-rule:evenodd;clip-rule:evenodd;fill:#8F9793;" d="M132.7,70.85l0.649-0.8c0.534-0.566,1.117-0.85,1.75-0.85
	c0.634,0,1.034,0.316,1.2,0.95c0.066,0.333,0.084,0.649,0.05,0.949c-0.166-0.933-0.633-1.35-1.399-1.25
	c-0.467,0.034-0.983,0.217-1.55,0.551L132.7,70.85z"/>
<path style="fill-rule:evenodd;clip-rule:evenodd;fill:#8F9793;" d="M21.25,128.5c0.167-0.267,0.383-0.533,0.65-0.8
	c0.533-0.566,1.117-0.851,1.75-0.851s1.033,0.317,1.2,0.95c0.066,0.334,0.083,0.65,0.05,0.95c-0.167-0.934-0.633-1.35-1.4-1.25
	c-0.467,0.033-0.983,0.217-1.55,0.55C21.683,128.217,21.45,128.366,21.25,128.5z"/>
<path style="fill-rule:evenodd;clip-rule:evenodd;fill:#8F9793;" d="M137.4,53.1l0.6-0.8c0.533-0.533,1.116-0.8,1.75-0.8
	s1.033,0.317,1.2,0.95c0.066,0.3,0.083,0.6,0.05,0.9c-0.167-0.9-0.616-1.317-1.35-1.25c-0.467,0.066-0.983,0.25-1.551,0.55
	L137.4,53.1z"/>
</svg>
