<?xml version="1.0" encoding="iso-8859-1"?>
<!-- Generator: Adobe Illustrator 15.1.0, SVG Export Plug-In . SVG Version: 6.00 Build 0)  -->
<!DOCTYPE svg PUBLIC "-//W3C//DTD SVG 1.1//EN" "http://www.w3.org/Graphics/SVG/1.1/DTD/svg11.dtd">
<svg version="1.1" id="floor" xmlns="http://www.w3.org/2000/svg" xmlns:xlink="http://www.w3.org/1999/xlink" x="0px" y="0px"
	 width="500px" height="135px" viewBox="0 0 500 135" style="enable-background:new 0 0 500 135;" xml:space="preserve">
<g>
	<rect style="fill-rule:evenodd;clip-rule:evenodd;fill:#9FA7A2;" width="500" height="135"/>
	<path style="fill-rule:evenodd;clip-rule:evenodd;fill:#8F9793;" d="M475.5,11.25c-0.6-0.067-1.283,0.233-2.05,0.9l-0.95,1
		c-0.366-1.066-0.95-1.6-1.75-1.6c-0.533,0-1.066,0.25-1.6,0.75l-0.7,0.7l0.45-1.1c0.433-0.8,0.933-1.267,1.5-1.4
		c0.6-0.133,1.133,0.033,1.6,0.5c0.233,0.233,0.4,0.483,0.5,0.75l0.4-0.8c0.5-0.567,1.3-0.883,2.399-0.95
		c1.101-0.067,1.867,0.5,2.3,1.7c0.233,0.6,0.351,1.2,0.351,1.8C477.25,12.1,476.434,11.35,475.5,11.25z"/>
	<path style="fill-rule:evenodd;clip-rule:evenodd;fill:#8F9793;" d="M436.4,73.85c0.5-0.566,1.3-0.883,2.399-0.949
		c1.101-0.067,1.867,0.5,2.3,1.699c0.2,0.601,0.301,1.2,0.301,1.801c-0.7-1.4-1.517-2.15-2.45-2.25
		c-0.566-0.067-1.233,0.233-2,0.899l-0.95,1c-0.366-1.033-0.95-1.55-1.75-1.55c-0.533,0-1.066,0.233-1.6,0.7l-0.7,0.7l0.45-1.101
		c0.399-0.8,0.899-1.267,1.5-1.399c0.6-0.134,1.133,0.033,1.6,0.5c0.233,0.233,0.4,0.483,0.5,0.75L436.4,73.85z"/>
	<path style="fill-rule:evenodd;clip-rule:evenodd;fill:#8F9793;" d="M292.95,45.55l0.45-1.1c0.399-0.767,0.899-1.217,1.5-1.35
		c0.933-0.233,1.633,0.167,2.1,1.2l0.4-0.8c0.5-0.533,1.3-0.85,2.399-0.95c1.101-0.066,1.867,0.5,2.3,1.7
		c0.2,0.6,0.301,1.2,0.301,1.8c-0.7-1.4-1.517-2.15-2.45-2.25c-0.566-0.066-1.233,0.233-2,0.9l-0.95,1
		c-0.366-1.034-0.95-1.55-1.75-1.55c-0.533,0-1.066,0.233-1.6,0.7L292.95,45.55z"/>
	<path style="fill-rule:evenodd;clip-rule:evenodd;fill:#8F9793;" d="M259.05,126.75c-0.7-1.4-1.517-2.167-2.45-2.3
		c-0.566-0.066-1.233,0.233-2,0.899l-0.949,1.051c-0.367-1.067-0.95-1.601-1.75-1.601c-0.534,0-1.067,0.233-1.601,0.7l-0.7,0.7
		l0.45-1.101c0.434-0.767,0.934-1.216,1.5-1.35c0.601-0.134,1.134,0.033,1.601,0.5c0.233,0.233,0.399,0.483,0.5,0.75l0.399-0.8
		c0.5-0.566,1.3-0.9,2.4-1c1.1-0.066,1.866,0.5,2.3,1.7C258.95,125.533,259.05,126.15,259.05,126.75z"/>
	<path style="fill-rule:evenodd;clip-rule:evenodd;fill:#8F9793;" d="M290.95,122.1c-0.566-0.066-1.233,0.233-2,0.9l-1,1.05
		c-0.334-1.066-0.917-1.6-1.75-1.6c-0.5,0-1.017,0.233-1.55,0.7l-0.7,0.699l0.45-1.1c0.399-0.767,0.883-1.217,1.449-1.35
		c0.601-0.134,1.134,0.033,1.601,0.5c0.233,0.233,0.399,0.483,0.5,0.75l0.45-0.801c0.5-0.566,1.3-0.883,2.399-0.949
		c1.101-0.067,1.867,0.5,2.3,1.699c0.2,0.601,0.301,1.2,0.301,1.801C292.7,123,291.884,122.233,290.95,122.1z"/>
	<path style="fill-rule:evenodd;clip-rule:evenodd;fill:#8F9793;" d="M257.3,12.05c-0.333-1.066-0.916-1.6-1.75-1.6
		c-0.5,0-1.017,0.233-1.55,0.7l-0.7,0.7l0.45-1.1c0.4-0.767,0.884-1.217,1.45-1.35c0.6-0.133,1.133,0.033,1.6,0.5
		c0.233,0.233,0.4,0.483,0.5,0.75l0.45-0.8c0.5-0.567,1.283-0.883,2.35-0.95c1.101-0.066,1.867,0.5,2.301,1.7
		c0.233,0.6,0.35,1.2,0.35,1.8c-0.7-1.4-1.517-2.167-2.45-2.3c-0.566-0.067-1.233,0.233-2,0.9L257.3,12.05z"/>
	<path style="fill-rule:evenodd;clip-rule:evenodd;fill:#8F9793;" d="M282.8,72.45l-0.95,1c-0.366-1.033-0.949-1.55-1.75-1.55
		c-0.533,0-1.066,0.233-1.6,0.699l-0.7,0.7l0.45-1.1c0.434-0.767,0.934-1.217,1.5-1.351c0.934-0.233,1.634,0.167,2.1,1.2l0.4-0.8
		c0.5-0.533,1.3-0.85,2.4-0.95c1.1-0.066,1.866,0.5,2.3,1.7c0.2,0.6,0.3,1.2,0.3,1.8c-0.7-1.399-1.517-2.149-2.45-2.25
		C284.233,71.483,283.566,71.783,282.8,72.45z"/>
	<path style="fill-rule:evenodd;clip-rule:evenodd;fill:#8F9793;" d="M453.75,41.4c0.233,0.233,0.4,0.483,0.5,0.75l0.4-0.8
		c0.5-0.567,1.3-0.883,2.399-0.95c1.101-0.066,1.867,0.5,2.3,1.7c0.2,0.6,0.301,1.2,0.301,1.8c-0.7-1.4-1.517-2.15-2.45-2.25
		c-0.566-0.066-1.233,0.233-2,0.9l-0.95,1c-0.366-1.033-0.95-1.55-1.75-1.55c-0.533,0-1.066,0.233-1.6,0.7l-0.7,0.7l0.45-1.1
		c0.399-0.8,0.899-1.267,1.5-1.4C452.75,40.767,453.283,40.933,453.75,41.4z"/>
	<path style="fill-rule:evenodd;clip-rule:evenodd;fill:#8F9793;" d="M320.75,86.4c-0.7-1.4-1.517-2.167-2.45-2.301
		c-0.566-0.066-1.233,0.233-2,0.9l-1,1.05c-0.333-1.066-0.916-1.6-1.75-1.6c-0.5,0-1.017,0.233-1.55,0.7l-0.7,0.699l0.45-1.1
		c0.4-0.767,0.884-1.217,1.45-1.35c0.934-0.233,1.633,0.183,2.1,1.25l0.45-0.801c0.5-0.566,1.283-0.883,2.35-0.949
		c1.101-0.067,1.867,0.5,2.301,1.699C320.634,85.2,320.75,85.8,320.75,86.4z"/>
	<path style="fill-rule:evenodd;clip-rule:evenodd;fill:#8F9793;" d="M387.15,121.3c0.399-0.8,0.899-1.267,1.5-1.399
		c0.933-0.233,1.633,0.183,2.1,1.25l0.4-0.801c0.5-0.566,1.3-0.883,2.399-0.949c1.101-0.067,1.867,0.5,2.3,1.699
		c0.2,0.601,0.301,1.2,0.301,1.801c-0.7-1.4-1.517-2.15-2.45-2.25c-0.566-0.067-1.233,0.233-2,0.899l-0.95,1
		c-0.366-1.033-0.95-1.55-1.75-1.55c-0.533,0-1.066,0.233-1.6,0.7l-0.7,0.7L387.15,121.3z"/>
	<path style="fill-rule:evenodd;clip-rule:evenodd;fill:#8F9793;" d="M328.15,133.4c-0.7-1.4-1.517-2.15-2.45-2.25
		c-0.566-0.067-1.233,0.233-2,0.899l-0.95,1c-0.366-1.033-0.95-1.55-1.75-1.55c-0.533,0-1.066,0.233-1.6,0.7l-0.7,0.7l0.45-1.101
		c0.399-0.8,0.899-1.267,1.5-1.399c0.6-0.134,1.133,0.033,1.6,0.5c0.233,0.233,0.4,0.483,0.5,0.75l0.4-0.801
		c0.5-0.566,1.3-0.883,2.399-0.949c1.101-0.067,1.867,0.5,2.3,1.699C328.05,132.2,328.15,132.8,328.15,133.4z"/>
	<path style="fill-rule:evenodd;clip-rule:evenodd;fill:#8F9793;" d="M337.65,107.9c-0.7-1.4-1.517-2.15-2.45-2.25
		c-0.566-0.067-1.233,0.233-2,0.899l-0.95,1c-0.366-1.033-0.95-1.55-1.75-1.55c-0.533,0-1.066,0.233-1.6,0.7l-0.7,0.7l0.45-1.101
		c0.399-0.8,0.899-1.267,1.5-1.399c0.6-0.134,1.133,0.033,1.6,0.5c0.233,0.233,0.4,0.483,0.5,0.75l0.4-0.801
		c0.5-0.566,1.3-0.883,2.399-0.949c1.101-0.067,1.867,0.5,2.3,1.699C337.55,106.7,337.65,107.3,337.65,107.9z"/>
	<path style="fill-rule:evenodd;clip-rule:evenodd;fill:#8F9793;" d="M334.85,57.9c0.2,0.633,0.301,1.25,0.301,1.85
		c-0.7-1.433-1.517-2.2-2.45-2.3c-0.566-0.067-1.233,0.233-2,0.9l-0.95,1.05c-0.366-1.066-0.967-1.6-1.8-1.6
		c-0.5,0-1.017,0.233-1.55,0.7l-0.7,0.7l0.45-1.1c0.399-0.767,0.883-1.217,1.449-1.35c0.934-0.233,1.65,0.183,2.15,1.25l0.4-0.8
		c0.5-0.567,1.3-0.9,2.399-1C333.65,56.133,334.417,56.7,334.85,57.9z"/>
	<path style="fill-rule:evenodd;clip-rule:evenodd;fill:#8F9793;" d="M366.1,19.95c0.233,0.6,0.351,1.2,0.351,1.8
		c-0.7-1.4-1.517-2.15-2.45-2.25c-0.6-0.067-1.283,0.233-2.05,0.9l-0.95,1c-0.366-1.066-0.95-1.6-1.75-1.6
		c-0.533,0-1.066,0.25-1.6,0.75l-0.7,0.7l0.45-1.1c0.433-0.8,0.933-1.267,1.5-1.4c0.6-0.133,1.133,0.033,1.6,0.5
		c0.233,0.233,0.4,0.483,0.5,0.75l0.4-0.8c0.5-0.567,1.3-0.883,2.399-0.95C364.9,18.183,365.667,18.75,366.1,19.95z"/>
	<path style="fill-rule:evenodd;clip-rule:evenodd;fill:#8F9793;" d="M416.1,53.15c0.2,0.633,0.301,1.25,0.301,1.85
		c-0.7-1.433-1.517-2.2-2.45-2.3c-0.566-0.067-1.233,0.233-2,0.9L411,54.65c-0.366-1.066-0.967-1.6-1.8-1.6
		c-0.5,0-1.017,0.233-1.55,0.7l-0.7,0.7l0.45-1.1c0.399-0.767,0.883-1.217,1.449-1.35c0.934-0.233,1.65,0.183,2.15,1.25l0.4-0.8
		c0.5-0.567,1.3-0.9,2.399-1C414.9,51.383,415.667,51.95,416.1,53.15z"/>
	<path style="fill-rule:evenodd;clip-rule:evenodd;fill:#8F9793;" d="M374.35,69.25l-0.699,0.7l0.449-1.101
		c0.4-0.767,0.884-1.216,1.45-1.35c0.601-0.133,1.134,0.033,1.601,0.5c0.233,0.233,0.399,0.483,0.5,0.75l0.449-0.8
		c0.5-0.567,1.301-0.883,2.4-0.95s1.866,0.5,2.3,1.7c0.2,0.6,0.3,1.2,0.3,1.8c-0.699-1.4-1.517-2.167-2.449-2.3
		c-0.567-0.066-1.233,0.233-2,0.899l-1,1.051c-0.334-1.067-0.917-1.601-1.75-1.601C375.4,68.55,374.884,68.783,374.35,69.25z"/>
	<path style="fill-rule:evenodd;clip-rule:evenodd;fill:#8F9793;" d="M475.4,118.2l-0.7,0.7l0.45-1.101
		c0.399-0.8,0.899-1.267,1.5-1.399c0.6-0.134,1.133,0.033,1.6,0.5c0.233,0.233,0.4,0.483,0.5,0.75l0.4-0.801
		c0.5-0.566,1.3-0.883,2.399-0.949c1.101-0.067,1.867,0.5,2.3,1.699c0.2,0.601,0.301,1.2,0.301,1.801c-0.7-1.4-1.517-2.15-2.45-2.25
		c-0.566-0.067-1.233,0.233-2,0.899l-0.95,1c-0.366-1.033-0.95-1.55-1.75-1.55C476.467,117.5,475.934,117.733,475.4,118.2z"/>
	<path style="fill-rule:evenodd;clip-rule:evenodd;fill:#8F9793;" d="M408.15,21.35c0.399-0.767,0.883-1.217,1.449-1.35
		c0.934-0.233,1.65,0.183,2.15,1.25l0.4-0.8c0.5-0.567,1.3-0.9,2.399-1c1.101-0.067,1.867,0.5,2.3,1.7
		c0.2,0.633,0.301,1.25,0.301,1.85c-0.7-1.433-1.517-2.2-2.45-2.3c-0.566-0.067-1.233,0.233-2,0.9l-0.95,1.05
		c-0.366-1.066-0.967-1.6-1.8-1.6c-0.5,0-1.017,0.233-1.55,0.7l-0.7,0.7L408.15,21.35z"/>
	<path style="fill-rule:evenodd;clip-rule:evenodd;fill:#8F9793;" d="M328.95,8.2L328,9.25c-0.366-1.067-0.95-1.6-1.75-1.6
		c-0.533,0-1.066,0.233-1.6,0.7l-0.7,0.7l0.45-1.1c0.433-0.767,0.933-1.217,1.5-1.35c0.6-0.133,1.133,0.033,1.6,0.5
		c0.233,0.233,0.4,0.483,0.5,0.75l0.4-0.8c0.5-0.566,1.3-0.883,2.399-0.95c1.101-0.067,1.867,0.5,2.3,1.7
		c0.233,0.6,0.351,1.2,0.351,1.8c-0.7-1.4-1.517-2.167-2.45-2.3C330.4,7.233,329.717,7.533,328.95,8.2z"/>
	<path style="fill-rule:evenodd;clip-rule:evenodd;fill:#8F9793;" d="M425.8,120.65c-0.833,0.133-1.5,0.283-2,0.449l-0.5,0.2
		l0.9-0.8c0.7-0.566,1.399-0.85,2.1-0.85s1.3,0.316,1.8,0.949c0.267,0.301,0.45,0.601,0.551,0.9l0.8-0.7
		c0.666-0.467,1.35-0.733,2.05-0.8s1.184,0.184,1.45,0.75c0.133,0.3,0.2,0.6,0.2,0.9l0.8-0.601c0.7-0.399,1.434-0.649,2.2-0.75
		c0.767-0.066,1.5,0.167,2.199,0.7c0.334,0.267,0.601,0.533,0.801,0.8c-1.233-0.533-2.351-0.75-3.351-0.649
		c-0.633,0.066-1.2,0.399-1.7,1l-0.6,0.85c-0.233-0.333-0.517-0.65-0.85-0.95c-0.7-0.633-1.367-0.883-2-0.75
		c-0.634,0.134-1.217,0.483-1.75,1.05l-0.601,0.801c-0.066-0.467-0.233-0.934-0.5-1.4C427.3,120.884,426.634,120.517,425.8,120.65z"
		/>
	<path style="fill-rule:evenodd;clip-rule:evenodd;fill:#8F9793;" d="M472.5,63.65c-1.233-0.566-2.35-0.783-3.35-0.65
		c-0.634,0.067-1.217,0.383-1.75,0.95L466.8,64.8c-0.2-0.333-0.483-0.65-0.85-0.95c-0.667-0.6-1.316-0.833-1.95-0.7
		s-1.217,0.483-1.75,1.05l-0.6,0.8c-0.067-0.467-0.233-0.933-0.5-1.4c-0.5-0.867-1.167-1.233-2-1.1c-0.834,0.133-1.5,0.283-2,0.45
		l-0.5,0.2l0.85-0.8c0.733-0.567,1.45-0.85,2.15-0.85c0.699,0,1.3,0.3,1.8,0.9c0.267,0.3,0.45,0.6,0.55,0.9l0.8-0.7
		c0.634-0.467,1.3-0.733,2-0.8c0.7-0.066,1.2,0.2,1.5,0.8c0.134,0.3,0.2,0.6,0.2,0.9l0.8-0.6c0.7-0.433,1.434-0.683,2.2-0.75
		c0.767-0.066,1.5,0.167,2.2,0.7C472.033,63.117,472.3,63.383,472.5,63.65z"/>
	<path style="fill-rule:evenodd;clip-rule:evenodd;fill:#8F9793;" d="M285.5,21.5l0.8-0.6c0.7-0.433,1.434-0.683,2.2-0.75
		c1.2-0.1,2.2,0.4,3,1.5c-1.233-0.566-2.35-0.783-3.35-0.65c-0.634,0.067-1.217,0.383-1.75,0.95L285.8,22.8
		c-0.2-0.333-0.483-0.65-0.85-0.95c-0.667-0.6-1.316-0.833-1.95-0.7s-1.217,0.483-1.75,1.05l-0.6,0.8
		c-0.067-0.467-0.233-0.933-0.5-1.4c-0.5-0.867-1.167-1.233-2-1.1c-0.834,0.133-1.5,0.283-2,0.45l-0.5,0.2l0.85-0.8
		c0.733-0.567,1.45-0.85,2.15-0.85c0.699,0,1.3,0.3,1.8,0.9c0.267,0.3,0.45,0.6,0.55,0.9l0.8-0.7c0.634-0.467,1.3-0.733,2-0.8
		c0.7-0.066,1.2,0.2,1.5,0.8C285.434,20.9,285.5,21.2,285.5,21.5z"/>
	<path style="fill-rule:evenodd;clip-rule:evenodd;fill:#8F9793;" d="M493.5,40c0.767-0.067,1.5,0.167,2.2,0.7
		c0.333,0.267,0.6,0.533,0.8,0.8c-1.233-0.567-2.35-0.8-3.35-0.7c-0.634,0.1-1.217,0.434-1.75,1l-0.601,0.85
		c-0.2-0.333-0.483-0.65-0.85-0.95c-0.667-0.6-1.316-0.833-1.95-0.7s-1.217,0.467-1.75,1l-0.6,0.8
		c-0.067-0.466-0.233-0.917-0.5-1.35c-0.5-0.9-1.167-1.284-2-1.15c-0.834,0.133-1.5,0.3-2,0.5l-0.5,0.2l0.85-0.85
		c0.733-0.566,1.45-0.85,2.15-0.85c0.699,0,1.3,0.317,1.8,0.95c0.267,0.3,0.45,0.6,0.55,0.9l0.8-0.7c0.634-0.467,1.3-0.733,2-0.8
		c0.7-0.066,1.2,0.184,1.5,0.75c0.134,0.3,0.2,0.6,0.2,0.9l0.8-0.6C492,40.3,492.733,40.067,493.5,40z"/>
	<path style="fill-rule:evenodd;clip-rule:evenodd;fill:#8F9793;" d="M370.15,94l0.85-0.85c0.733-0.567,1.45-0.851,2.15-0.851
		c0.699,0,1.3,0.316,1.8,0.95c0.267,0.3,0.45,0.6,0.55,0.9l0.8-0.7c0.634-0.467,1.3-0.733,2-0.8c0.7-0.067,1.2,0.183,1.5,0.75
		c0.134,0.3,0.2,0.6,0.2,0.899l0.8-0.6c0.7-0.4,1.434-0.634,2.2-0.7s1.5,0.167,2.2,0.7c0.333,0.267,0.6,0.533,0.8,0.8
		c-1.233-0.566-2.35-0.8-3.35-0.7c-0.634,0.101-1.217,0.434-1.75,1L380.3,95.65c-0.2-0.334-0.483-0.65-0.85-0.95
		c-0.667-0.601-1.316-0.834-1.95-0.7s-1.217,0.467-1.75,1l-0.6,0.8c-0.067-0.467-0.233-0.916-0.5-1.35c-0.5-0.9-1.167-1.283-2-1.15
		c-0.834,0.134-1.5,0.3-2,0.5L370.15,94z"/>
	<path style="fill-rule:evenodd;clip-rule:evenodd;fill:#8F9793;" d="M266,102.8c-1.233-0.533-2.35-0.75-3.35-0.649
		c-0.634,0.066-1.217,0.399-1.75,1L260.3,104c-0.2-0.333-0.483-0.65-0.85-0.95c-0.667-0.633-1.316-0.883-1.95-0.75
		c-0.634,0.134-1.217,0.483-1.75,1.05l-0.6,0.801c-0.067-0.467-0.233-0.934-0.5-1.4c-0.5-0.866-1.167-1.233-2-1.1
		c-0.834,0.133-1.5,0.283-2,0.449l-0.5,0.2l0.85-0.8c0.733-0.566,1.45-0.85,2.15-0.85c0.699,0,1.3,0.316,1.8,0.949
		c0.267,0.301,0.45,0.601,0.55,0.9l0.8-0.7c0.634-0.467,1.3-0.733,2-0.8s1.2,0.184,1.5,0.75c0.134,0.3,0.2,0.6,0.2,0.9l0.8-0.601
		c0.7-0.399,1.434-0.649,2.2-0.75c0.767-0.066,1.5,0.167,2.2,0.7C265.533,102.267,265.8,102.533,266,102.8z"/>
	<path style="fill-rule:evenodd;clip-rule:evenodd;fill:#8F9793;" d="M370.65,41.15l0.85-0.8c0.733-0.567,1.45-0.85,2.15-0.85
		c0.699,0,1.3,0.3,1.8,0.9c0.267,0.3,0.45,0.6,0.55,0.9l0.8-0.7c0.634-0.467,1.3-0.733,2-0.8c0.7-0.066,1.2,0.2,1.5,0.8
		c0.134,0.3,0.2,0.6,0.2,0.9l0.8-0.6c0.7-0.433,1.434-0.683,2.2-0.75c0.767-0.066,1.5,0.167,2.2,0.7c0.333,0.267,0.6,0.533,0.8,0.8
		c-1.233-0.566-2.35-0.783-3.35-0.65c-0.634,0.067-1.217,0.383-1.75,0.95L380.8,42.8c-0.2-0.333-0.483-0.65-0.85-0.95
		c-0.667-0.6-1.316-0.833-1.95-0.7s-1.217,0.483-1.75,1.05l-0.6,0.8c-0.067-0.467-0.233-0.933-0.5-1.4c-0.5-0.867-1.167-1.233-2-1.1
		c-0.834,0.133-1.5,0.283-2,0.45L370.65,41.15z"/>
	<path style="fill-rule:evenodd;clip-rule:evenodd;fill:#8F9793;" d="M470.05,26.65l0.65-0.8c0.533-0.567,1.116-0.85,1.75-0.85
		c0.633,0,1.033,0.317,1.2,0.95c0.066,0.333,0.083,0.65,0.05,0.95c-0.167-0.933-0.634-1.35-1.4-1.25
		c-0.467,0.033-0.983,0.217-1.55,0.55L470.05,26.65z"/>
	<path style="fill-rule:evenodd;clip-rule:evenodd;fill:#8F9793;" d="M487.05,89.3l0.65-0.8c0.533-0.533,1.116-0.8,1.75-0.8
		c0.633,0,1.033,0.316,1.2,0.95c0.066,0.3,0.083,0.6,0.05,0.899c-0.167-0.899-0.634-1.316-1.4-1.25
		c-0.467,0.066-0.983,0.25-1.55,0.55L487.05,89.3z"/>
	<path style="fill-rule:evenodd;clip-rule:evenodd;fill:#8F9793;" d="M454.4,129l0.6-0.8c0.533-0.566,1.116-0.851,1.75-0.851
		s1.033,0.317,1.2,0.95c0.066,0.334,0.083,0.65,0.05,0.95c-0.167-0.934-0.616-1.35-1.35-1.25c-0.467,0.033-0.983,0.217-1.551,0.55
		L454.4,129z"/>
	<path style="fill-rule:evenodd;clip-rule:evenodd;fill:#8F9793;" d="M494.05,131l0.65-0.8c0.533-0.566,1.116-0.851,1.75-0.851
		c0.633,0,1.033,0.317,1.2,0.95c0.066,0.334,0.083,0.65,0.05,0.95c-0.167-0.934-0.634-1.35-1.4-1.25
		c-0.467,0.033-0.983,0.217-1.55,0.55L494.05,131z"/>
	<path style="fill-rule:evenodd;clip-rule:evenodd;fill:#8F9793;" d="M448.05,98l0.65-0.8c0.533-0.566,1.116-0.851,1.75-0.851
		c0.633,0,1.033,0.317,1.2,0.95c0.066,0.334,0.083,0.65,0.05,0.95c-0.167-0.934-0.634-1.35-1.4-1.25
		c-0.467,0.033-0.983,0.217-1.55,0.55L448.05,98z"/>
	<path style="fill-rule:evenodd;clip-rule:evenodd;fill:#8F9793;" d="M409.4,104l0.6-0.8c0.533-0.566,1.116-0.851,1.75-0.851
		s1.033,0.317,1.2,0.95c0.066,0.334,0.083,0.65,0.05,0.95c-0.167-0.934-0.616-1.35-1.35-1.25c-0.467,0.033-0.983,0.217-1.551,0.55
		L409.4,104z"/>
	<path style="fill-rule:evenodd;clip-rule:evenodd;fill:#8F9793;" d="M406.6,73.6l0.65-0.8c0.533-0.533,1.116-0.8,1.75-0.8
		s1.033,0.316,1.2,0.95c0.066,0.3,0.083,0.6,0.05,0.899c-0.167-0.899-0.634-1.316-1.4-1.25c-0.466,0.067-0.983,0.25-1.55,0.551
		L406.6,73.6z"/>
	<path style="fill-rule:evenodd;clip-rule:evenodd;fill:#8F9793;" d="M430.75,56l0.6-0.8c0.534-0.567,1.117-0.85,1.75-0.85
		c0.634,0,1.034,0.316,1.2,0.95c0.066,0.333,0.084,0.65,0.05,0.95c-0.166-0.933-0.616-1.35-1.35-1.25
		c-0.467,0.033-0.983,0.217-1.55,0.55L430.75,56z"/>
	<path style="fill-rule:evenodd;clip-rule:evenodd;fill:#8F9793;" d="M488.75,73.3l0.6-0.8c0.534-0.533,1.117-0.8,1.75-0.8
		c0.634,0,1.034,0.316,1.2,0.95c0.066,0.3,0.084,0.6,0.05,0.899c-0.166-0.899-0.616-1.316-1.35-1.25
		c-0.467,0.066-0.983,0.25-1.55,0.55L488.75,73.3z"/>
	<path style="fill-rule:evenodd;clip-rule:evenodd;fill:#8F9793;" d="M439.4,16.65l0.6-0.8c0.533-0.567,1.116-0.85,1.75-0.85
		s1.033,0.317,1.2,0.95c0.066,0.333,0.083,0.65,0.05,0.95c-0.167-0.933-0.616-1.35-1.35-1.25c-0.467,0.033-0.983,0.217-1.551,0.55
		L439.4,16.65z"/>
	<path style="fill-rule:evenodd;clip-rule:evenodd;fill:#8F9793;" d="M381.6,7.95l0.65-0.8c0.533-0.566,1.116-0.85,1.75-0.85
		s1.033,0.317,1.2,0.95c0.066,0.333,0.083,0.65,0.05,0.95c-0.167-0.934-0.634-1.35-1.4-1.25c-0.466,0.033-0.983,0.216-1.55,0.55
		L381.6,7.95z"/>
	<path style="fill-rule:evenodd;clip-rule:evenodd;fill:#8F9793;" d="M342.75,37l0.6-0.8c0.534-0.567,1.117-0.85,1.75-0.85
		c0.634,0,1.034,0.316,1.2,0.95c0.066,0.333,0.084,0.65,0.05,0.95c-0.166-0.933-0.616-1.35-1.35-1.25
		c-0.467,0.033-0.983,0.217-1.55,0.55L342.75,37z"/>
	<path style="fill-rule:evenodd;clip-rule:evenodd;fill:#8F9793;" d="M342.25,78.6l0.65-0.8c0.533-0.533,1.116-0.8,1.75-0.8
		c0.633,0,1.033,0.316,1.199,0.95c0.067,0.3,0.084,0.6,0.051,0.899c-0.167-0.899-0.634-1.316-1.4-1.25
		c-0.467,0.067-0.983,0.25-1.55,0.551L342.25,78.6z"/>
	<path style="fill-rule:evenodd;clip-rule:evenodd;fill:#8F9793;" d="M357.75,118l0.6-0.8c0.534-0.566,1.117-0.851,1.75-0.851
		c0.634,0,1.034,0.317,1.2,0.95c0.066,0.334,0.084,0.65,0.05,0.95c-0.166-0.934-0.616-1.35-1.35-1.25
		c-0.467,0.033-0.983,0.217-1.55,0.55L357.75,118z"/>
	<path style="fill-rule:evenodd;clip-rule:evenodd;fill:#8F9793;" d="M309.95,116.25l0.6-0.8c0.533-0.533,1.117-0.8,1.75-0.8
		c0.634,0,1.033,0.316,1.2,0.949c0.066,0.301,0.083,0.601,0.05,0.9c-0.166-0.9-0.616-1.316-1.35-1.25
		c-0.467,0.066-0.983,0.25-1.55,0.55L309.95,116.25z"/>
	<path style="fill-rule:evenodd;clip-rule:evenodd;fill:#8F9793;" d="M324.35,34.9c-0.166-0.933-0.616-1.35-1.35-1.25
		c-0.467,0.033-0.983,0.217-1.55,0.55l-0.7,0.45l0.6-0.8c0.534-0.567,1.117-0.85,1.75-0.85c0.634,0,1.034,0.317,1.2,0.95
		C324.366,34.283,324.384,34.6,324.35,34.9z"/>
	<path style="fill-rule:evenodd;clip-rule:evenodd;fill:#8F9793;" d="M288.4,100.3l0.6-0.8c0.533-0.533,1.116-0.8,1.75-0.8
		s1.033,0.316,1.2,0.95c0.066,0.3,0.083,0.6,0.05,0.899c-0.167-0.899-0.616-1.316-1.35-1.25c-0.467,0.066-0.983,0.25-1.551,0.55
		L288.4,100.3z"/>
	<path style="fill-rule:evenodd;clip-rule:evenodd;fill:#8F9793;" d="M255.25,72.95l0.65-0.8c0.533-0.567,1.116-0.851,1.75-0.851
		c0.633,0,1.033,0.316,1.199,0.95c0.067,0.333,0.084,0.65,0.051,0.95c-0.167-0.934-0.634-1.351-1.4-1.25
		c-0.467,0.033-0.983,0.217-1.55,0.55L255.25,72.95z"/>
	<path style="fill-rule:evenodd;clip-rule:evenodd;fill:#8F9793;" d="M263.95,44.6l0.6-0.8c0.533-0.533,1.117-0.8,1.75-0.8
		c0.634,0,1.033,0.317,1.2,0.95c0.066,0.3,0.083,0.6,0.05,0.9c-0.166-0.9-0.616-1.317-1.35-1.25c-0.467,0.066-0.983,0.25-1.55,0.55
		L263.95,44.6z"/>
	<path style="fill-rule:evenodd;clip-rule:evenodd;fill:#8F9793;" d="M1.35,30.4c0.566-1.1,1.35-1.65,2.35-1.65
		c0.633,0,1.033,0.317,1.2,0.95c0.067,0.333,0.083,0.65,0.05,0.95C4.783,29.717,4.333,29.3,3.6,29.4
		C2.833,29.467,2.083,29.8,1.35,30.4z"/>
	<path style="fill-rule:evenodd;clip-rule:evenodd;fill:#8F9793;" d="M305.4,12.3l0.6-0.8c0.533-0.533,1.116-0.8,1.75-0.8
		s1.033,0.316,1.2,0.95c0.066,0.3,0.083,0.6,0.05,0.9c-0.167-0.9-0.616-1.316-1.35-1.25c-0.467,0.067-0.983,0.25-1.551,0.55
		L305.4,12.3z"/>
	<path style="fill-rule:evenodd;clip-rule:evenodd;fill:#8F9793;" d="M223.9,10.5c0.6-0.133,1.133,0.033,1.6,0.5
		c0.233,0.233,0.4,0.483,0.5,0.75l0.4-0.8c0.5-0.567,1.3-0.883,2.4-0.95c1.1-0.067,1.867,0.5,2.3,1.7c0.233,0.6,0.35,1.2,0.35,1.8
		c-0.7-1.4-1.517-2.15-2.45-2.25c-0.6-0.067-1.283,0.233-2.05,0.9l-0.95,1c-0.367-1.066-0.95-1.6-1.75-1.6
		c-0.533,0-1.067,0.25-1.6,0.75l-0.7,0.7l0.45-1.1C222.833,11.1,223.333,10.633,223.9,10.5z"/>
	<path style="fill-rule:evenodd;clip-rule:evenodd;fill:#8F9793;" d="M189.9,73.85c0.5-0.566,1.3-0.883,2.4-0.949
		c1.1-0.067,1.867,0.5,2.3,1.699c0.2,0.601,0.3,1.2,0.3,1.801c-0.7-1.4-1.517-2.15-2.45-2.25c-0.567-0.067-1.233,0.233-2,0.899
		l-0.95,1c-0.367-1.033-0.95-1.55-1.75-1.55c-0.533,0-1.067,0.233-1.6,0.7l-0.7,0.7l0.45-1.101c0.4-0.8,0.9-1.267,1.5-1.399
		c0.6-0.134,1.133,0.033,1.6,0.5c0.233,0.233,0.4,0.483,0.5,0.75L189.9,73.85z"/>
	<path style="fill-rule:evenodd;clip-rule:evenodd;fill:#8F9793;" d="M50.5,45.7c-0.367-1.034-0.95-1.55-1.75-1.55
		c-0.533,0-1.067,0.233-1.6,0.7c-0.3,0.233-0.533,0.467-0.7,0.7c0.1-0.333,0.25-0.7,0.45-1.1c0.4-0.767,0.9-1.217,1.5-1.35
		c0.934-0.233,1.633,0.167,2.1,1.2l0.4-0.8c0.5-0.533,1.3-0.85,2.4-0.95c1.1-0.066,1.867,0.5,2.3,1.7c0.2,0.6,0.3,1.2,0.3,1.8
		c-0.7-1.4-1.517-2.15-2.45-2.25c-0.567-0.066-1.233,0.233-2,0.9L50.5,45.7z"/>
	<path style="fill-rule:evenodd;clip-rule:evenodd;fill:#8F9793;" d="M12.25,124.9c0.2,0.633,0.3,1.25,0.3,1.85
		c-0.7-1.4-1.517-2.167-2.45-2.3c-0.567-0.066-1.233,0.233-2,0.899c-0.367,0.334-0.684,0.684-0.95,1.051
		C6.783,125.333,6.2,124.8,5.4,124.8c-0.833,0-1.6,0.467-2.3,1.4c0.367-1.4,1.017-2.217,1.95-2.45c0.6-0.134,1.133,0.033,1.6,0.5
		c0.233,0.233,0.4,0.483,0.5,0.75c0.033-0.267,0.167-0.533,0.4-0.8c0.5-0.566,1.3-0.9,2.4-1C11.05,123.134,11.817,123.7,12.25,124.9
		z"/>
	<path style="fill-rule:evenodd;clip-rule:evenodd;fill:#8F9793;" d="M46.9,124.4c-0.7-1.4-1.517-2.167-2.45-2.301
		c-0.567-0.066-1.233,0.233-2,0.9c-0.4,0.366-0.733,0.717-1,1.05c-0.333-1.066-0.917-1.6-1.75-1.6c-0.5,0-1.017,0.233-1.55,0.7
		c-0.3,0.233-0.533,0.466-0.7,0.699c0.1-0.333,0.25-0.699,0.45-1.1c0.4-0.767,0.883-1.217,1.45-1.35c0.6-0.134,1.133,0.033,1.6,0.5
		c0.233,0.233,0.4,0.483,0.5,0.75c0.033-0.267,0.183-0.534,0.45-0.801c0.5-0.566,1.3-0.883,2.4-0.949c1.1-0.067,1.867,0.5,2.3,1.699
		C46.8,123.2,46.9,123.8,46.9,124.4z"/>
	<path style="fill-rule:evenodd;clip-rule:evenodd;fill:#8F9793;" d="M13.8,10.1c-0.566-0.067-1.233,0.233-2,0.9
		c-0.4,0.367-0.733,0.717-1,1.05c-0.333-1.066-0.917-1.6-1.75-1.6c-0.5,0-1.017,0.233-1.55,0.7c-0.3,0.233-0.533,0.467-0.7,0.7
		c0.333-1.4,0.967-2.217,1.9-2.45c0.6-0.133,1.133,0.033,1.6,0.5c0.233,0.233,0.4,0.483,0.5,0.75c0.034-0.267,0.184-0.533,0.45-0.8
		c0.5-0.567,1.283-0.883,2.35-0.95c1.1-0.066,1.867,0.5,2.3,1.7c0.233,0.6,0.35,1.2,0.35,1.8C15.55,11,14.733,10.233,13.8,10.1z"/>
	<path style="fill-rule:evenodd;clip-rule:evenodd;fill:#8F9793;" d="M33.25,70.85c0.933-0.233,1.633,0.167,2.1,1.2
		c0.033-0.267,0.167-0.533,0.4-0.8c0.5-0.533,1.3-0.85,2.4-0.95c1.1-0.066,1.867,0.5,2.3,1.7c0.2,0.6,0.3,1.2,0.3,1.8
		c-0.7-1.399-1.517-2.149-2.45-2.25c-0.566-0.066-1.233,0.233-2,0.9c-0.367,0.333-0.683,0.666-0.95,1
		c-0.367-1.033-0.95-1.55-1.75-1.55c-0.533,0-1.067,0.233-1.6,0.699c-0.3,0.233-0.533,0.467-0.7,0.7c0.1-0.333,0.25-0.7,0.45-1.1
		C32.183,71.434,32.683,70.983,33.25,70.85z"/>
	<path style="fill-rule:evenodd;clip-rule:evenodd;fill:#8F9793;" d="M210.7,41.65c-0.567-0.066-1.233,0.233-2,0.9l-0.95,1
		C207.383,42.517,206.8,42,206,42c-0.533,0-1.067,0.233-1.6,0.7l-0.7,0.7l0.45-1.1c0.4-0.8,0.9-1.267,1.5-1.4s1.133,0.033,1.6,0.5
		c0.233,0.233,0.4,0.483,0.5,0.75l0.4-0.8c0.5-0.567,1.3-0.883,2.4-0.95c1.1-0.066,1.867,0.5,2.3,1.7c0.2,0.6,0.3,1.2,0.3,1.8
		C212.45,42.5,211.633,41.75,210.7,41.65z"/>
	<path style="fill-rule:evenodd;clip-rule:evenodd;fill:#8F9793;" d="M74.25,86.4c-0.7-1.4-1.517-2.167-2.45-2.301
		c-0.566-0.066-1.233,0.233-2,0.9c-0.4,0.366-0.733,0.717-1,1.05c-0.333-1.066-0.917-1.6-1.75-1.6c-0.5,0-1.017,0.233-1.55,0.7
		c-0.3,0.233-0.533,0.466-0.7,0.699c0.1-0.333,0.25-0.699,0.45-1.1c0.4-0.767,0.883-1.217,1.45-1.35c0.6-0.134,1.133,0.033,1.6,0.5
		c0.233,0.233,0.4,0.483,0.5,0.75c0.034-0.267,0.184-0.534,0.45-0.801c0.5-0.566,1.283-0.883,2.35-0.949
		c1.1-0.067,1.867,0.5,2.3,1.699C74.133,85.2,74.25,85.8,74.25,86.4z"/>
	<path style="fill-rule:evenodd;clip-rule:evenodd;fill:#8F9793;" d="M145.2,121.55l-0.95,1c-0.367-1.033-0.95-1.55-1.75-1.55
		c-0.533,0-1.067,0.233-1.6,0.7l-0.7,0.7l0.45-1.101c0.4-0.8,0.9-1.267,1.5-1.399c0.6-0.134,1.133,0.033,1.6,0.5
		c0.233,0.233,0.4,0.483,0.5,0.75l0.4-0.801c0.5-0.566,1.3-0.883,2.4-0.949c1.1-0.067,1.867,0.5,2.3,1.699
		c0.2,0.601,0.3,1.2,0.3,1.801c-0.7-1.4-1.517-2.15-2.45-2.25C146.633,120.583,145.967,120.884,145.2,121.55z"/>
	<path style="fill-rule:evenodd;clip-rule:evenodd;fill:#8F9793;" d="M74.15,130.4c0.6-0.134,1.133,0.033,1.6,0.5
		c0.233,0.233,0.4,0.483,0.5,0.75c0.033-0.267,0.167-0.534,0.4-0.801c0.5-0.566,1.3-0.883,2.4-0.949c1.1-0.067,1.867,0.5,2.3,1.699
		c0.2,0.601,0.3,1.2,0.3,1.801c-0.7-1.4-1.517-2.15-2.45-2.25c-0.567-0.067-1.233,0.233-2,0.899c-0.367,0.334-0.684,0.667-0.95,1
		c-0.367-1.033-0.95-1.55-1.75-1.55c-0.533,0-1.067,0.233-1.6,0.7c-0.3,0.233-0.533,0.467-0.7,0.7c0.1-0.367,0.25-0.733,0.45-1.101
		C73.05,131,73.55,130.533,74.15,130.4z"/>
	<path style="fill-rule:evenodd;clip-rule:evenodd;fill:#8F9793;" d="M85.75,107.55C85.383,106.517,84.8,106,84,106
		c-0.533,0-1.067,0.233-1.6,0.7c-0.3,0.233-0.533,0.467-0.7,0.7c0.1-0.367,0.25-0.733,0.45-1.101c0.4-0.8,0.9-1.267,1.5-1.399
		c0.6-0.134,1.133,0.033,1.6,0.5c0.233,0.233,0.4,0.483,0.5,0.75c0.033-0.267,0.167-0.534,0.4-0.801c0.5-0.566,1.3-0.883,2.4-0.949
		c1.1-0.067,1.867,0.5,2.3,1.699c0.2,0.601,0.3,1.2,0.3,1.801c-0.7-1.4-1.517-2.15-2.45-2.25c-0.567-0.067-1.233,0.233-2,0.899
		C86.333,106.884,86.017,107.217,85.75,107.55z"/>
	<path style="fill-rule:evenodd;clip-rule:evenodd;fill:#8F9793;" d="M83.65,57.2c0.5-0.567,1.3-0.9,2.4-1
		c1.1-0.067,1.867,0.5,2.3,1.7c0.2,0.633,0.3,1.25,0.3,1.85c-0.7-1.433-1.517-2.2-2.45-2.3c-0.567-0.067-1.233,0.233-2,0.9
		l-0.95,1.05c-0.367-1.066-0.967-1.6-1.8-1.6c-0.5,0-1.017,0.233-1.55,0.7l-0.7,0.7l0.45-1.1c0.4-0.767,0.883-1.217,1.45-1.35
		c0.6-0.133,1.133,0.033,1.6,0.5c0.233,0.233,0.417,0.483,0.55,0.75L83.65,57.2z"/>
	<path style="fill-rule:evenodd;clip-rule:evenodd;fill:#8F9793;" d="M111.15,20.55l-0.7,0.7l0.45-1.1
		c0.434-0.8,0.934-1.267,1.5-1.4c0.6-0.133,1.133,0.033,1.6,0.5c0.233,0.233,0.4,0.483,0.5,0.75l0.4-0.8
		c0.5-0.567,1.3-0.883,2.4-0.95c1.1-0.067,1.867,0.5,2.3,1.7c0.233,0.6,0.35,1.2,0.35,1.8c-0.7-1.4-1.517-2.15-2.45-2.25
		c-0.6-0.067-1.283,0.233-2.05,0.9l-0.95,1c-0.367-1.066-0.95-1.6-1.75-1.6C112.217,19.8,111.683,20.05,111.15,20.55z"/>
	<path style="fill-rule:evenodd;clip-rule:evenodd;fill:#8F9793;" d="M169.9,55c-0.7-1.433-1.517-2.2-2.45-2.3
		c-0.567-0.067-1.233,0.233-2,0.9l-0.95,1.05c-0.367-1.066-0.967-1.6-1.8-1.6c-0.5,0-1.017,0.233-1.55,0.7l-0.7,0.7l0.45-1.1
		c0.4-0.767,0.883-1.217,1.45-1.35c0.6-0.133,1.133,0.033,1.6,0.5c0.233,0.233,0.417,0.483,0.55,0.75l0.4-0.8
		c0.5-0.567,1.3-0.9,2.4-1c1.1-0.067,1.867,0.5,2.3,1.7C169.8,53.783,169.9,54.4,169.9,55z"/>
	<path style="fill-rule:evenodd;clip-rule:evenodd;fill:#8F9793;" d="M131.15,70.15c-0.333-1.067-0.917-1.601-1.75-1.601
		c-0.5,0-1.017,0.233-1.55,0.7l-0.7,0.7l0.45-1.101c0.4-0.767,0.883-1.216,1.45-1.35c0.6-0.133,1.133,0.033,1.6,0.5
		c0.233,0.233,0.4,0.483,0.5,0.75l0.45-0.8c0.5-0.567,1.3-0.883,2.4-0.95s1.867,0.5,2.3,1.7c0.2,0.6,0.3,1.2,0.3,1.8
		c-0.7-1.4-1.517-2.167-2.45-2.3c-0.566-0.066-1.233,0.233-2,0.899L131.15,70.15z"/>
	<path style="fill-rule:evenodd;clip-rule:evenodd;fill:#8F9793;" d="M232.25,119.05c-0.367-1.033-0.95-1.55-1.75-1.55
		c-0.533,0-1.067,0.233-1.6,0.7l-0.7,0.7l0.45-1.101c0.4-0.8,0.9-1.267,1.5-1.399c0.6-0.134,1.133,0.033,1.6,0.5
		c0.233,0.233,0.4,0.483,0.5,0.75l0.4-0.801c0.5-0.566,1.3-0.883,2.4-0.949c1.1-0.067,1.867,0.5,2.3,1.699
		c0.2,0.601,0.3,1.2,0.3,1.801c-0.7-1.4-1.517-2.15-2.45-2.25c-0.567-0.067-1.233,0.233-2,0.899L232.25,119.05z"/>
	<path style="fill-rule:evenodd;clip-rule:evenodd;fill:#8F9793;" d="M165.25,21.25l0.4-0.8c0.5-0.567,1.3-0.9,2.4-1
		c1.1-0.067,1.867,0.5,2.3,1.7c0.2,0.633,0.3,1.25,0.3,1.85c-0.7-1.433-1.517-2.2-2.45-2.3c-0.567-0.067-1.233,0.233-2,0.9
		l-0.95,1.05c-0.367-1.066-0.967-1.6-1.8-1.6c-0.5,0-1.017,0.233-1.55,0.7l-0.7,0.7l0.45-1.1c0.4-0.767,0.883-1.217,1.45-1.35
		c0.6-0.133,1.133,0.033,1.6,0.5C164.933,20.733,165.117,20.983,165.25,21.25z"/>
	<path style="fill-rule:evenodd;clip-rule:evenodd;fill:#8F9793;" d="M86.95,9.6c-0.7-1.4-1.517-2.167-2.45-2.3
		c-0.6-0.066-1.283,0.233-2.05,0.9L81.5,9.25c-0.367-1.067-0.95-1.6-1.75-1.6c-0.533,0-1.067,0.233-1.6,0.7l-0.7,0.7l0.45-1.1
		c0.434-0.767,0.934-1.217,1.5-1.35C80,6.467,80.533,6.633,81,7.1c0.233,0.233,0.4,0.483,0.5,0.75l0.4-0.8
		c0.5-0.566,1.3-0.883,2.4-0.95c1.1-0.067,1.867,0.5,2.3,1.7C86.833,8.4,86.95,9,86.95,9.6z"/>
	<path style="fill-rule:evenodd;clip-rule:evenodd;fill:#8F9793;" d="M182.4,122.35l-0.6,0.801c-0.066-0.467-0.233-0.934-0.5-1.4
		c-0.5-0.866-1.167-1.233-2-1.1c-0.833,0.133-1.5,0.283-2,0.449l-0.5,0.2l0.9-0.8c0.7-0.566,1.4-0.85,2.1-0.85
		c0.7,0,1.3,0.316,1.8,0.949c0.267,0.301,0.45,0.601,0.55,0.9l0.8-0.7c0.667-0.467,1.35-0.733,2.05-0.8s1.183,0.184,1.45,0.75
		c0.133,0.3,0.2,0.6,0.2,0.9l0.8-0.601c0.7-0.399,1.433-0.649,2.2-0.75c0.767-0.066,1.5,0.167,2.2,0.7
		c0.333,0.267,0.6,0.533,0.8,0.8c-1.233-0.533-2.35-0.75-3.35-0.649c-0.633,0.066-1.2,0.399-1.7,1L187,123
		c-0.233-0.333-0.517-0.65-0.85-0.95c-0.7-0.633-1.367-0.883-2-0.75C183.517,121.434,182.933,121.783,182.4,122.35z"/>
	<path style="fill-rule:evenodd;clip-rule:evenodd;fill:#8F9793;" d="M226,63.65c-1.233-0.566-2.35-0.783-3.35-0.65
		c-0.633,0.067-1.217,0.383-1.75,0.95l-0.6,0.85c-0.2-0.333-0.483-0.65-0.85-0.95c-0.667-0.6-1.317-0.833-1.95-0.7
		s-1.217,0.483-1.75,1.05l-0.6,0.8c-0.066-0.467-0.233-0.933-0.5-1.4c-0.5-0.867-1.167-1.233-2-1.1c-0.833,0.133-1.5,0.283-2,0.45
		l-0.5,0.2l0.85-0.8c0.733-0.567,1.45-0.85,2.15-0.85c0.7,0,1.3,0.3,1.8,0.9c0.267,0.3,0.45,0.6,0.55,0.9l0.8-0.7
		c0.633-0.467,1.3-0.733,2-0.8c0.7-0.066,1.2,0.2,1.5,0.8c0.133,0.3,0.2,0.6,0.2,0.9l0.8-0.6c0.7-0.433,1.434-0.683,2.2-0.75
		c0.767-0.066,1.5,0.167,2.2,0.7C225.533,63.117,225.8,63.383,226,63.65z"/>
	<path style="fill-rule:evenodd;clip-rule:evenodd;fill:#8F9793;" d="M41.65,21c-0.633,0.067-1.217,0.383-1.75,0.95l-0.6,0.85
		c-0.2-0.333-0.483-0.65-0.85-0.95c-0.667-0.6-1.317-0.833-1.95-0.7s-1.217,0.483-1.75,1.05l-0.6,0.8
		c-0.066-0.467-0.233-0.933-0.5-1.4c-0.5-0.867-1.167-1.233-2-1.1c-0.833,0.133-1.5,0.283-2,0.45l-0.5,0.2l0.85-0.8
		c0.733-0.567,1.45-0.85,2.15-0.85c0.7,0,1.3,0.3,1.8,0.9c0.267,0.3,0.45,0.6,0.55,0.9l0.8-0.7c0.633-0.467,1.3-0.733,2-0.8
		c0.7-0.066,1.2,0.2,1.5,0.8c0.133,0.3,0.2,0.6,0.2,0.9l0.8-0.6c0.7-0.433,1.434-0.683,2.2-0.75c0.767-0.066,1.5,0.167,2.2,0.7
		c0.333,0.267,0.6,0.533,0.8,0.8C43.767,21.083,42.65,20.867,41.65,21z"/>
	<path style="fill-rule:evenodd;clip-rule:evenodd;fill:#8F9793;" d="M250,41.5c-1.233-0.567-2.35-0.8-3.35-0.7
		c-0.633,0.1-1.217,0.434-1.75,1l-0.6,0.85c-0.2-0.333-0.483-0.65-0.85-0.95c-0.667-0.6-1.317-0.833-1.95-0.7s-1.217,0.467-1.75,1
		l-0.6,0.8c-0.066-0.466-0.233-0.917-0.5-1.35c-0.5-0.9-1.167-1.284-2-1.15c-0.833,0.133-1.5,0.3-2,0.5l-0.5,0.2l0.85-0.85
		c0.733-0.566,1.45-0.85,2.15-0.85c0.7,0,1.3,0.317,1.8,0.95c0.267,0.3,0.45,0.6,0.55,0.9l0.8-0.7c0.633-0.467,1.3-0.733,2-0.8
		c0.7-0.066,1.2,0.184,1.5,0.75c0.133,0.3,0.2,0.6,0.2,0.9l0.8-0.6c0.7-0.4,1.434-0.633,2.2-0.7s1.5,0.167,2.2,0.7
		C249.533,40.967,249.8,41.233,250,41.5z"/>
	<path style="fill-rule:evenodd;clip-rule:evenodd;fill:#8F9793;" d="M123.65,94l0.85-0.85c0.733-0.567,1.45-0.851,2.15-0.851
		c0.7,0,1.3,0.316,1.8,0.95c0.267,0.3,0.45,0.6,0.55,0.9l0.8-0.7c0.633-0.467,1.3-0.733,2-0.8c0.7-0.067,1.2,0.183,1.5,0.75
		c0.133,0.3,0.2,0.6,0.2,0.899l0.8-0.6c0.7-0.4,1.434-0.634,2.2-0.7s1.5,0.167,2.2,0.7c0.333,0.267,0.6,0.533,0.8,0.8
		c-1.233-0.566-2.35-0.8-3.35-0.7c-0.633,0.101-1.217,0.434-1.75,1l-0.6,0.851c-0.2-0.334-0.483-0.65-0.85-0.95
		c-0.667-0.601-1.317-0.834-1.95-0.7s-1.217,0.467-1.75,1l-0.6,0.8c-0.066-0.467-0.233-0.916-0.5-1.35c-0.5-0.9-1.167-1.283-2-1.15
		c-0.833,0.134-1.5,0.3-2,0.5L123.65,94z"/>
	<path style="fill-rule:evenodd;clip-rule:evenodd;fill:#8F9793;" d="M18.7,102c0.333,0.267,0.6,0.533,0.8,0.8
		c-1.233-0.533-2.35-0.75-3.35-0.649c-0.633,0.066-1.217,0.399-1.75,1c-0.267,0.3-0.467,0.583-0.6,0.85
		c-0.2-0.333-0.483-0.65-0.85-0.95c-0.667-0.633-1.317-0.883-1.95-0.75c-0.633,0.134-1.217,0.483-1.75,1.05
		c-0.267,0.301-0.467,0.567-0.6,0.801c-0.066-0.467-0.233-0.934-0.5-1.4c-0.5-0.866-1.167-1.233-2-1.1
		c-1.333,0.233-2.167,0.449-2.5,0.649c0.867-1.1,1.867-1.649,3-1.649c0.7,0,1.3,0.316,1.8,0.949C8.717,101.9,8.9,102.2,9,102.5
		c0.2-0.233,0.467-0.467,0.8-0.7c0.633-0.467,1.3-0.733,2-0.8c0.7-0.066,1.2,0.184,1.5,0.75c0.133,0.3,0.2,0.6,0.2,0.9
		c0.2-0.2,0.467-0.4,0.8-0.601c0.7-0.399,1.434-0.649,2.2-0.75C17.267,101.233,18,101.467,18.7,102z"/>
	<path style="fill-rule:evenodd;clip-rule:evenodd;fill:#8F9793;" d="M128.95,40.4c0.267,0.3,0.45,0.6,0.55,0.9l0.8-0.7
		c0.633-0.467,1.3-0.733,2-0.8c0.7-0.066,1.2,0.2,1.5,0.8c0.133,0.3,0.2,0.6,0.2,0.9l0.8-0.6c0.7-0.433,1.434-0.683,2.2-0.75
		c0.767-0.066,1.5,0.167,2.2,0.7c0.333,0.267,0.6,0.533,0.8,0.8c-1.233-0.566-2.35-0.783-3.35-0.65
		c-0.633,0.067-1.217,0.383-1.75,0.95l-0.6,0.85c-0.2-0.333-0.483-0.65-0.85-0.95c-0.667-0.6-1.317-0.833-1.95-0.7
		s-1.217,0.483-1.75,1.05l-0.6,0.8c-0.066-0.467-0.233-0.933-0.5-1.4c-0.5-0.867-1.167-1.233-2-1.1c-0.833,0.133-1.5,0.283-2,0.45
		l-0.5,0.2l0.85-0.8c0.733-0.567,1.45-0.85,2.15-0.85C127.85,39.5,128.45,39.8,128.95,40.4z"/>
	<path style="fill-rule:evenodd;clip-rule:evenodd;fill:#8F9793;" d="M223.55,26.65l0.65-0.8c0.533-0.567,1.117-0.85,1.75-0.85
		s1.033,0.317,1.2,0.95c0.067,0.333,0.083,0.65,0.05,0.95c-0.167-0.933-0.633-1.35-1.4-1.25c-0.466,0.033-0.983,0.217-1.55,0.55
		L223.55,26.65z"/>
	<path style="fill-rule:evenodd;clip-rule:evenodd;fill:#8F9793;" d="M244.2,89.55c-0.167-0.899-0.633-1.316-1.4-1.25
		c-0.466,0.066-0.983,0.25-1.55,0.55l-0.7,0.45l0.65-0.8c0.533-0.533,1.117-0.8,1.75-0.8s1.033,0.316,1.2,0.95
		C244.217,88.95,244.233,89.25,244.2,89.55z"/>
	<path style="fill-rule:evenodd;clip-rule:evenodd;fill:#8F9793;" d="M207.9,129l0.6-0.8c0.533-0.566,1.117-0.851,1.75-0.851
		s1.033,0.317,1.2,0.95c0.066,0.334,0.083,0.65,0.05,0.95c-0.167-0.934-0.617-1.35-1.35-1.25c-0.467,0.033-0.983,0.217-1.55,0.55
		L207.9,129z"/>
	<path style="fill-rule:evenodd;clip-rule:evenodd;fill:#8F9793;" d="M247.55,131l0.65-0.8c0.533-0.566,1.117-0.851,1.75-0.851
		c0.633,0,1.033,0.317,1.2,0.95c0.066,0.334,0.083,0.65,0.05,0.95c-0.167-0.934-0.634-1.35-1.4-1.25
		c-0.466,0.033-0.983,0.217-1.55,0.55L247.55,131z"/>
	<path style="fill-rule:evenodd;clip-rule:evenodd;fill:#8F9793;" d="M201.55,98l0.65-0.8c0.533-0.566,1.117-0.851,1.75-0.851
		s1.033,0.317,1.2,0.95c0.067,0.334,0.083,0.65,0.05,0.95c-0.167-0.934-0.633-1.35-1.4-1.25c-0.466,0.033-0.983,0.217-1.55,0.55
		L201.55,98z"/>
	<path style="fill-rule:evenodd;clip-rule:evenodd;fill:#8F9793;" d="M162.9,104l0.6-0.8c0.533-0.566,1.117-0.851,1.75-0.851
		s1.033,0.317,1.2,0.95c0.066,0.334,0.083,0.65,0.05,0.95c-0.167-0.934-0.617-1.35-1.35-1.25c-0.467,0.033-0.983,0.217-1.55,0.55
		L162.9,104z"/>
	<path style="fill-rule:evenodd;clip-rule:evenodd;fill:#8F9793;" d="M162.35,72.6c-0.467,0.067-0.983,0.25-1.55,0.551l-0.7,0.449
		l0.65-0.8c0.533-0.533,1.117-0.8,1.75-0.8s1.033,0.316,1.2,0.95c0.066,0.3,0.083,0.6,0.05,0.899
		C163.583,72.95,163.117,72.533,162.35,72.6z"/>
	<path style="fill-rule:evenodd;clip-rule:evenodd;fill:#8F9793;" d="M184.25,56l0.6-0.8c0.533-0.567,1.117-0.85,1.75-0.85
		s1.033,0.316,1.2,0.95c0.067,0.333,0.083,0.65,0.05,0.95c-0.167-0.933-0.617-1.35-1.35-1.25c-0.467,0.033-0.983,0.217-1.55,0.55
		L184.25,56z"/>
	<path style="fill-rule:evenodd;clip-rule:evenodd;fill:#8F9793;" d="M244.5,72.3c-0.467,0.066-0.983,0.25-1.55,0.55l-0.7,0.45
		l0.6-0.8c0.533-0.533,1.117-0.8,1.75-0.8s1.033,0.316,1.2,0.95c0.067,0.3,0.083,0.6,0.05,0.899
		C245.683,72.65,245.233,72.233,244.5,72.3z"/>
	<path style="fill-rule:evenodd;clip-rule:evenodd;fill:#8F9793;" d="M192.9,16.65l0.6-0.8c0.533-0.567,1.117-0.85,1.75-0.85
		s1.033,0.317,1.2,0.95c0.066,0.333,0.083,0.65,0.05,0.95c-0.167-0.933-0.617-1.35-1.35-1.25c-0.467,0.033-0.983,0.217-1.55,0.55
		L192.9,16.65z"/>
	<path style="fill-rule:evenodd;clip-rule:evenodd;fill:#8F9793;" d="M135.1,7.95l0.65-0.8c0.533-0.566,1.117-0.85,1.75-0.85
		s1.033,0.317,1.2,0.95c0.066,0.333,0.083,0.65,0.05,0.95c-0.167-0.934-0.633-1.35-1.4-1.25c-0.467,0.033-0.983,0.216-1.55,0.55
		L135.1,7.95z"/>
	<path style="fill-rule:evenodd;clip-rule:evenodd;fill:#8F9793;" d="M96.25,37l0.6-0.8c0.533-0.567,1.117-0.85,1.75-0.85
		s1.033,0.316,1.2,0.95c0.067,0.333,0.083,0.65,0.05,0.95c-0.167-0.933-0.617-1.35-1.35-1.25c-0.467,0.033-0.983,0.217-1.55,0.55
		L96.25,37z"/>
	<path style="fill-rule:evenodd;clip-rule:evenodd;fill:#8F9793;" d="M95.75,78.6l0.65-0.8c0.533-0.533,1.117-0.8,1.75-0.8
		s1.033,0.316,1.2,0.95c0.066,0.3,0.083,0.6,0.05,0.899c-0.167-0.899-0.633-1.316-1.4-1.25c-0.467,0.067-0.983,0.25-1.55,0.551
		L95.75,78.6z"/>
	<path style="fill-rule:evenodd;clip-rule:evenodd;fill:#8F9793;" d="M111.25,118c0.133-0.267,0.333-0.533,0.6-0.8
		c0.533-0.566,1.117-0.851,1.75-0.851s1.033,0.317,1.2,0.95c0.067,0.334,0.083,0.65,0.05,0.95c-0.167-0.934-0.617-1.35-1.35-1.25
		c-0.467,0.033-0.983,0.217-1.55,0.55C111.683,117.717,111.45,117.866,111.25,118z"/>
	<path style="fill-rule:evenodd;clip-rule:evenodd;fill:#8F9793;" d="M63.45,116.25c0.133-0.267,0.333-0.533,0.6-0.8
		c0.534-0.533,1.117-0.8,1.75-0.8s1.034,0.316,1.2,0.949c0.067,0.301,0.083,0.601,0.05,0.9c-0.167-0.9-0.617-1.316-1.35-1.25
		c-0.467,0.066-0.983,0.25-1.55,0.55C63.883,115.967,63.65,116.116,63.45,116.25z"/>
	<path style="fill-rule:evenodd;clip-rule:evenodd;fill:#8F9793;" d="M74.25,34.65l0.6-0.8C75.383,33.283,75.967,33,76.6,33
		s1.033,0.317,1.2,0.95c0.067,0.333,0.083,0.65,0.05,0.95c-0.167-0.933-0.617-1.35-1.35-1.25c-0.467,0.033-0.983,0.217-1.55,0.55
		L74.25,34.65z"/>
	<path style="fill-rule:evenodd;clip-rule:evenodd;fill:#8F9793;" d="M41.9,100.3c0.133-0.267,0.333-0.533,0.6-0.8
		c0.533-0.533,1.117-0.8,1.75-0.8s1.033,0.316,1.2,0.95c0.066,0.3,0.083,0.6,0.05,0.899c-0.167-0.899-0.617-1.316-1.35-1.25
		c-0.467,0.066-0.983,0.25-1.55,0.55C42.333,100.017,42.1,100.167,41.9,100.3z"/>
	<path style="fill-rule:evenodd;clip-rule:evenodd;fill:#8F9793;" d="M8.75,72.95c0.167-0.267,0.383-0.533,0.65-0.8
		c0.533-0.567,1.117-0.851,1.75-0.851s1.033,0.316,1.2,0.95c0.066,0.333,0.083,0.65,0.05,0.95c-0.167-0.934-0.633-1.351-1.4-1.25
		c-0.467,0.033-0.983,0.217-1.55,0.55C9.183,72.667,8.95,72.816,8.75,72.95z"/>
	<path style="fill-rule:evenodd;clip-rule:evenodd;fill:#8F9793;" d="M17.45,44.6c0.133-0.267,0.333-0.533,0.6-0.8
		c0.534-0.533,1.117-0.8,1.75-0.8s1.034,0.317,1.2,0.95c0.067,0.3,0.083,0.6,0.05,0.9c-0.167-0.9-0.617-1.317-1.35-1.25
		c-0.467,0.066-0.983,0.25-1.55,0.55C17.883,44.317,17.65,44.467,17.45,44.6z"/>
	<path style="fill-rule:evenodd;clip-rule:evenodd;fill:#8F9793;" d="M58.9,12.3l0.6-0.8c0.533-0.533,1.117-0.8,1.75-0.8
		s1.033,0.316,1.2,0.95c0.066,0.3,0.083,0.6,0.05,0.9c-0.167-0.9-0.617-1.316-1.35-1.25c-0.467,0.067-0.983,0.25-1.55,0.55
		L58.9,12.3z"/>
</g>
</svg>
