<?xml version="1.0" encoding="iso-8859-1"?>
<!-- Generator: Adobe Illustrator 15.1.0, SVG Export Plug-In . SVG Version: 6.00 Build 0)  -->
<!DOCTYPE svg PUBLIC "-//W3C//DTD SVG 1.1//EN" "http://www.w3.org/Graphics/SVG/1.1/DTD/svg11.dtd">
<svg version="1.1" id="floor" xmlns="http://www.w3.org/2000/svg" xmlns:xlink="http://www.w3.org/1999/xlink" x="0px" y="0px"
	 width="150px" height="135px" viewBox="0 0 150 135" style="enable-background:new 0 0 150 135;" xml:space="preserve">
<polygon style="fill-rule:evenodd;clip-rule:evenodd;fill:#9FA7A2;" points="150,135 0,135 0,0 "/>
<path style="fill-rule:evenodd;clip-rule:evenodd;fill:#8F9793;" d="M20.45,98.4c0.5-0.534,1.3-0.851,2.4-0.95
	c1.1-0.066,1.867,0.5,2.3,1.7c0.2,0.633,0.3,1.25,0.3,1.85c-0.7-1.434-1.517-2.2-2.45-2.3c-0.567-0.066-1.233,0.233-2,0.899
	c-0.4,0.334-0.733,0.667-1,1c-0.333-1.033-0.917-1.55-1.75-1.55c-0.5,0-1.017,0.233-1.55,0.7c-0.3,0.233-0.534,0.467-0.7,0.7
	c0.1-0.334,0.25-0.7,0.45-1.101c0.4-0.767,0.883-1.216,1.45-1.35c0.934-0.233,1.633,0.167,2.1,1.2
	C20.033,98.934,20.183,98.667,20.45,98.4z"/>
<path style="fill-rule:evenodd;clip-rule:evenodd;fill:#8F9793;" d="M104.75,118.6c-0.4,0.334-0.733,0.667-1,1
	c-0.333-1.033-0.917-1.55-1.75-1.55c-0.5,0-1.017,0.233-1.55,0.7c-0.3,0.233-0.533,0.467-0.7,0.7c0.1-0.334,0.25-0.7,0.45-1.101
	c0.399-0.767,0.883-1.216,1.45-1.35c0.933-0.233,1.633,0.167,2.1,1.2c0.033-0.267,0.184-0.533,0.45-0.8
	c0.5-0.534,1.3-0.851,2.399-0.95c1.101-0.066,1.867,0.5,2.301,1.7c0.199,0.633,0.3,1.25,0.3,1.85c-0.7-1.434-1.517-2.2-2.45-2.3
	C106.184,117.634,105.517,117.934,104.75,118.6z"/>
<path style="fill-rule:evenodd;clip-rule:evenodd;fill:#8F9793;" d="M65.4,74.2c0.5-0.566,1.3-0.884,2.4-0.95
	c1.1-0.066,1.867,0.5,2.3,1.7c0.233,0.6,0.35,1.2,0.35,1.8c-0.7-1.4-1.517-2.15-2.45-2.25c-0.6-0.066-1.283,0.233-2.05,0.9
	c-0.367,0.333-0.684,0.666-0.95,1c-0.367-1.067-0.95-1.601-1.75-1.601c-0.533,0-1.067,0.25-1.6,0.75c-0.3,0.233-0.533,0.467-0.7,0.7
	c0.1-0.366,0.25-0.733,0.45-1.1c0.434-0.801,0.934-1.267,1.5-1.4c0.6-0.134,1.133,0.033,1.6,0.5c0.233,0.233,0.4,0.483,0.5,0.75
	C65.033,74.733,65.167,74.467,65.4,74.2z"/>
<path style="fill-rule:evenodd;clip-rule:evenodd;fill:#8F9793;" d="M23.45,47.6c0.4-0.767,0.883-1.217,1.45-1.35
	c0.934-0.233,1.633,0.167,2.1,1.2c0.033-0.267,0.183-0.534,0.45-0.8c0.5-0.533,1.3-0.85,2.4-0.95c1.1-0.067,1.867,0.5,2.3,1.7
	c0.2,0.633,0.3,1.25,0.3,1.85c-0.7-1.433-1.517-2.2-2.45-2.3c-0.567-0.067-1.233,0.233-2,0.9c-0.4,0.333-0.733,0.667-1,1
	c-0.333-1.033-0.917-1.55-1.75-1.55c-0.5,0-1.017,0.233-1.55,0.7c-0.3,0.233-0.534,0.467-0.7,0.7C23.1,48.367,23.25,48,23.45,47.6z"
	/>
<path style="fill-rule:evenodd;clip-rule:evenodd;fill:#8F9793;" d="M9.5,21.4c-0.367-1.066-0.967-1.6-1.8-1.6
	c-0.5,0-1.017,0.233-1.55,0.7c-0.3,0.233-0.533,0.467-0.7,0.7c0.333-1.4,0.966-2.217,1.9-2.45C8.283,18.517,9,18.933,9.5,20
	c0.033-0.267,0.167-0.533,0.4-0.8c0.5-0.567,1.3-0.9,2.4-1c1.1-0.067,1.867,0.5,2.3,1.7c0.2,0.633,0.3,1.25,0.3,1.85
	c-0.7-1.433-1.517-2.2-2.45-2.3c-0.567-0.067-1.233,0.233-2,0.9C10.083,20.683,9.767,21.033,9.5,21.4z"/>
<path style="fill-rule:evenodd;clip-rule:evenodd;fill:#8F9793;" d="M51.8,128c-0.633,0.066-1.2,0.384-1.7,0.95
	c-0.267,0.3-0.467,0.583-0.6,0.85c-0.233-0.333-0.517-0.649-0.85-0.95c-0.7-0.6-1.367-0.833-2-0.699
	c-0.633,0.133-1.217,0.483-1.75,1.05c-0.267,0.3-0.467,0.566-0.6,0.8c-0.066-0.467-0.233-0.934-0.5-1.4
	c-0.5-0.866-1.167-1.233-2-1.1c-0.833,0.134-1.5,0.283-2,0.45l-0.5,0.2c0.233-0.267,0.534-0.534,0.9-0.801
	c0.7-0.566,1.4-0.85,2.1-0.85c0.7,0,1.3,0.3,1.8,0.9c0.267,0.3,0.45,0.6,0.55,0.899c0.2-0.2,0.467-0.416,0.8-0.649
	c0.667-0.467,1.35-0.75,2.05-0.851c0.7-0.066,1.183,0.2,1.45,0.8c0.133,0.301,0.2,0.601,0.2,0.9c0.2-0.2,0.467-0.4,0.8-0.6
	c0.7-0.434,1.433-0.684,2.2-0.75c0.767-0.067,1.5,0.166,2.2,0.699c0.333,0.267,0.6,0.534,0.8,0.801
	C53.917,128.083,52.8,127.866,51.8,128z"/>
<path style="fill-rule:evenodd;clip-rule:evenodd;fill:#8F9793;" d="M29.65,67.15c0.233-0.267,0.517-0.533,0.85-0.8
	c0.733-0.567,1.45-0.85,2.15-0.85c0.7,0,1.3,0.3,1.8,0.9c0.267,0.3,0.45,0.6,0.55,0.9c0.2-0.233,0.467-0.466,0.8-0.7
	c0.633-0.467,1.3-0.733,2-0.8c0.7-0.066,1.2,0.2,1.5,0.8c0.133,0.3,0.2,0.6,0.2,0.9c0.2-0.2,0.467-0.4,0.8-0.6
	c0.7-0.433,1.434-0.683,2.2-0.75c0.767-0.066,1.5,0.167,2.2,0.7c0.333,0.267,0.6,0.533,0.8,0.8c-1.233-0.566-2.35-0.783-3.35-0.65
	c-0.633,0.067-1.217,0.383-1.75,0.95c-0.267,0.3-0.467,0.583-0.6,0.85c-0.2-0.333-0.483-0.649-0.85-0.95
	c-0.667-0.6-1.317-0.833-1.95-0.7s-1.217,0.483-1.75,1.05c-0.267,0.3-0.467,0.566-0.6,0.8c-0.066-0.467-0.233-0.934-0.5-1.4
	c-0.5-0.867-1.167-1.233-2-1.1c-0.833,0.133-1.5,0.283-2,0.45L29.65,67.15z"/>
<path style="fill-rule:evenodd;clip-rule:evenodd;fill:#8F9793;" d="M71.1,102.65c-0.267,0.3-0.467,0.583-0.6,0.85
	c-0.233-0.333-0.517-0.65-0.85-0.95c-0.7-0.633-1.367-0.883-2-0.75c-0.633,0.134-1.217,0.483-1.75,1.05
	c-0.267,0.301-0.467,0.567-0.6,0.801c-0.066-0.467-0.233-0.934-0.5-1.4c-0.5-0.866-1.167-1.233-2-1.1
	c-0.833,0.133-1.5,0.283-2,0.449l-0.5,0.2c0.233-0.267,0.534-0.533,0.9-0.8c0.7-0.566,1.4-0.85,2.1-0.85c0.7,0,1.3,0.316,1.8,0.949
	c0.267,0.301,0.45,0.601,0.55,0.9c0.2-0.233,0.467-0.467,0.8-0.7c0.667-0.467,1.35-0.733,2.05-0.8s1.183,0.184,1.45,0.75
	c0.133,0.3,0.2,0.6,0.2,0.9c0.2-0.2,0.467-0.4,0.8-0.601c0.7-0.399,1.433-0.649,2.2-0.75c0.767-0.066,1.5,0.167,2.2,0.7
	c0.334,0.267,0.601,0.533,0.801,0.8c-1.234-0.533-2.351-0.75-3.351-0.649C72.167,101.717,71.6,102.05,71.1,102.65z"/>
<path style="fill-rule:evenodd;clip-rule:evenodd;fill:#8F9793;" d="M103.5,131.1c0.134-0.267,0.333-0.533,0.6-0.8
	c0.534-0.533,1.117-0.8,1.75-0.8c0.634,0,1.034,0.316,1.2,0.95c0.066,0.3,0.084,0.6,0.05,0.899c-0.166-0.899-0.616-1.316-1.35-1.25
	c-0.467,0.067-0.983,0.25-1.55,0.551C103.934,130.816,103.7,130.967,103.5,131.1z"/>
<path style="fill-rule:evenodd;clip-rule:evenodd;fill:#8F9793;" d="M60.75,118c0.133-0.267,0.333-0.533,0.6-0.8
	c0.533-0.566,1.117-0.851,1.75-0.851s1.033,0.317,1.2,0.95c0.067,0.334,0.083,0.65,0.05,0.95c-0.167-0.934-0.617-1.35-1.35-1.25
	c-0.467,0.033-0.983,0.217-1.55,0.55C61.183,117.717,60.95,117.866,60.75,118z"/>
<path style="fill-rule:evenodd;clip-rule:evenodd;fill:#8F9793;" d="M41.1,86.85c0.167-0.267,0.383-0.533,0.65-0.8
	c0.533-0.533,1.117-0.8,1.75-0.8s1.033,0.316,1.2,0.95c0.066,0.3,0.083,0.6,0.05,0.899c-0.167-0.899-0.633-1.316-1.4-1.25
	c-0.467,0.067-0.983,0.25-1.55,0.551C41.533,86.566,41.3,86.717,41.1,86.85z"/>
<path style="fill-rule:evenodd;clip-rule:evenodd;fill:#8F9793;" d="M88.25,94.6c0.134-0.267,0.333-0.533,0.6-0.8
	c0.534-0.533,1.117-0.8,1.75-0.8c0.634,0,1.034,0.316,1.2,0.95c0.066,0.3,0.084,0.6,0.05,0.899c-0.166-0.899-0.616-1.316-1.35-1.25
	c-0.467,0.067-0.983,0.25-1.55,0.551C88.684,94.316,88.45,94.467,88.25,94.6z"/>
<path style="fill-rule:evenodd;clip-rule:evenodd;fill:#8F9793;" d="M132.5,127.35l0.6-0.8c0.534-0.533,1.117-0.8,1.75-0.8
	c0.634,0,1.034,0.316,1.2,0.95c0.066,0.3,0.084,0.6,0.05,0.899c-0.166-0.899-0.616-1.316-1.35-1.25
	c-0.467,0.067-0.983,0.25-1.55,0.551L132.5,127.35z"/>
<path style="fill-rule:evenodd;clip-rule:evenodd;fill:#8F9793;" d="M15.15,127c0.133-0.267,0.333-0.533,0.6-0.8
	c0.533-0.533,1.117-0.8,1.75-0.8s1.033,0.316,1.2,0.949c0.066,0.301,0.083,0.601,0.05,0.9c-0.167-0.9-0.617-1.316-1.35-1.25
	c-0.467,0.066-0.983,0.25-1.55,0.55C15.583,126.717,15.35,126.866,15.15,127z"/>
<path style="fill-rule:evenodd;clip-rule:evenodd;fill:#8F9793;" d="M6.4,68.65c0.133-0.267,0.333-0.534,0.6-0.8
	C7.533,67.283,8.117,67,8.75,67s1.033,0.317,1.2,0.95c0.066,0.333,0.083,0.649,0.05,0.95c-0.167-0.934-0.617-1.351-1.35-1.25
	c-0.467,0.033-0.983,0.217-1.55,0.55C6.833,68.366,6.6,68.517,6.4,68.65z"/>
<path style="fill-rule:evenodd;clip-rule:evenodd;fill:#8F9793;" d="M10.75,34.65c0.133-0.267,0.333-0.533,0.6-0.8
	C11.883,33.283,12.467,33,13.1,33s1.033,0.317,1.2,0.95c0.067,0.333,0.083,0.65,0.05,0.95c-0.167-0.933-0.617-1.35-1.35-1.25
	c-0.467,0.033-0.983,0.217-1.55,0.55C11.183,34.367,10.95,34.517,10.75,34.65z"/>
</svg>
