<?xml version="1.0" encoding="iso-8859-1"?>
<!-- Generator: Adobe Illustrator 15.1.0, SVG Export Plug-In . SVG Version: 6.00 Build 0)  -->
<!DOCTYPE svg PUBLIC "-//W3C//DTD SVG 1.1//EN" "http://www.w3.org/Graphics/SVG/1.1/DTD/svg11.dtd">
<svg version="1.1" id="floor" xmlns="http://www.w3.org/2000/svg" xmlns:xlink="http://www.w3.org/1999/xlink" x="0px" y="0px"
	 width="500px" height="141.05px" viewBox="0 0 500 141.05" style="enable-background:new 0 0 500 141.05;" xml:space="preserve">
<g>
	<g>
		<path style="fill-rule:evenodd;clip-rule:evenodd;fill:#A19962;" d="M487.4,5.15c5.333-1.2,9.533-2.033,12.6-2.5v138.4H0V2.65
			c0.267-0.167,0.483-0.167,0.65,0c8-0.333,14-0.5,18-0.5c2.167,0,7.25,0.333,15.25,1c8,0.667,12.583,1,13.75,1
			c1,0,10.833-0.333,29.5-1c18.667-0.667,29.5-1,32.5-1c2.3,0,6.383-0.45,12.25-1.35c5-0.8,8.583-1.017,10.75-0.65
			c2,0.333,9.417,1.583,22.25,3.75c12.467,1.934,20.383,2.684,23.75,2.25c0.767-0.1,7.733-1.05,20.9-2.85
			c10.2-1.433,15.9-2.15,17.1-2.15c0.6,0,2.65,0.667,6.15,2c3.5,1.333,6.784,2,9.85,2c4.667,0,21.633-0.533,50.9-1.6
			c30.367-1.133,48.066-1.933,53.101-2.4C341.116,0.75,351,0.633,366.3,0.8c8.066,0.067,18.184,0.184,30.351,0.35
			c4.066,0,10.699,1.133,19.899,3.4c8.434,2.067,13.8,2.934,16.101,2.6c2.333-0.333,9.833-0.333,22.5,0
			c12.666,0.333,20.166,0.333,22.5,0C478.983,6.95,482.233,6.283,487.4,5.15z"/>
	</g>
	<path style="fill-rule:evenodd;clip-rule:evenodd;fill:#98925D;" d="M45.4,74.15l-9.9,2.5l6.45-2.75c4.733-2,8.25-3.417,10.55-4.25
		c2.267-0.833,5.15-1.066,8.65-0.7c2,0.233,5.117,0.633,9.35,1.2c2.7,0.2,5.45,1.484,8.25,3.85c1.4,1.2,2.533,2.366,3.4,3.5
		c-3.033-0.967-6.267-1.934-9.7-2.9C65.583,72.634,61.1,71.65,59,71.65C56.933,71.65,52.4,72.483,45.4,74.15z"/>
	<path style="fill-rule:evenodd;clip-rule:evenodd;fill:#98925D;" d="M328.15,82.4l-9.9,2.5l6.45-2.75
		c4.733-2,8.25-3.417,10.55-4.25c2.267-0.834,5.15-1.067,8.65-0.7c2,0.233,5.116,0.633,9.35,1.2c2.7,0.199,5.45,1.483,8.25,3.85
		c1.4,1.2,2.533,2.366,3.4,3.5c-3.034-0.967-6.267-1.934-9.7-2.9c-6.867-1.966-11.351-2.949-13.45-2.949
		C339.684,79.9,335.15,80.733,328.15,82.4z"/>
	<polygon style="fill-rule:evenodd;clip-rule:evenodd;fill:#98925D;" points="127.15,46.85 104.15,47.85 126.15,42.85 149.15,47.85 
			"/>
	<polygon style="fill-rule:evenodd;clip-rule:evenodd;fill:#98925D;" points="58.75,20.9 35.75,21.9 57.75,16.9 80.75,21.9 	"/>
	<polygon style="fill-rule:evenodd;clip-rule:evenodd;fill:#98925D;" points="123.25,112.4 145.25,107.4 168.25,112.4 146.25,111.4 
			"/>
	<polygon style="fill-rule:evenodd;clip-rule:evenodd;fill:#98925D;" points="215.95,23.7 237.95,18.7 260.95,23.7 238.95,22.7 	"/>
	<polygon style="fill-rule:evenodd;clip-rule:evenodd;fill:#98925D;" points="449.95,63.7 471.95,58.7 494.95,63.7 472.95,62.7 	"/>
	<polygon style="fill-rule:evenodd;clip-rule:evenodd;fill:#98925D;" points="256.25,118.7 233.25,119.7 255.25,114.7 278.25,119.7 
			"/>
	<path style="fill-rule:evenodd;clip-rule:evenodd;fill:#98925D;" d="M251.25,74.5c-11.2-3.167-17.567-4.55-19.1-4.15
		c-1.533,0.433-7.066,0.9-16.6,1.4l-13.9,0.6l13.2-2.75c9-2,13.983-3.417,14.95-4.25c0.967-0.833,7.567,1.25,19.8,6.25
		c6.133,2.5,12.15,5.084,18.05,7.75C262.35,77.684,256.884,76.066,251.25,74.5z"/>
	<path style="fill-rule:evenodd;clip-rule:evenodd;fill:#98925D;" d="M451.85,115.55c-11.199-3.166-17.566-4.55-19.1-4.149
		c-1.533,0.433-7.066,0.899-16.6,1.399l-13.9,0.601l13.2-2.75c9-2,13.983-3.417,14.95-4.25c0.966-0.834,7.566,1.25,19.8,6.25
		c6.133,2.5,12.149,5.083,18.05,7.75C462.95,118.733,457.483,117.116,451.85,115.55z"/>
	<path style="fill-rule:evenodd;clip-rule:evenodd;fill:#98925D;" d="M415.2,33.55C404,30.383,397.634,29,396.1,29.4
		c-1.533,0.434-7.083,0.9-16.649,1.4L365.6,31.4l13.2-2.75c9-2,13.983-3.417,14.95-4.25c0.967-0.833,7.566,1.25,19.8,6.25
		c6.134,2.5,12.15,5.083,18.05,7.75C426.3,36.733,420.833,35.117,415.2,33.55z"/>
</g>
</svg>
