<?xml version="1.0" encoding="iso-8859-1"?>
<!-- Generator: Adobe Illustrator 15.1.0, SVG Export Plug-In . SVG Version: 6.00 Build 0)  -->
<!DOCTYPE svg PUBLIC "-//W3C//DTD SVG 1.1//EN" "http://www.w3.org/Graphics/SVG/1.1/DTD/svg11.dtd">
<svg version="1.1" id="floor" xmlns="http://www.w3.org/2000/svg" xmlns:xlink="http://www.w3.org/1999/xlink" x="0px" y="0px"
	 width="150px" height="138.4px" viewBox="0 0 150 138.4" style="enable-background:new 0 0 150 138.4;" xml:space="preserve">
<g>
	<g>
		<path style="fill-rule:evenodd;clip-rule:evenodd;fill:#A19962;" d="M113.2,94.9c2.1,1.333,6.6,4.166,13.5,8.5
			c5.066,3.333,10.467,10.166,16.2,20.5c2.866,5.166,5.233,10,7.1,14.5H0V0c1.9,1.1,4.85,3,8.85,5.7c4.767,3.2,8.333,5.767,10.7,7.7
			c2.534,2.1,6.317,6.233,11.35,12.4c2.533,3.067,4.817,5.934,6.85,8.6l6.3,2.15c4.7,1.833,8.317,3.784,10.85,5.85
			c1.633,1.333,5.767,5.383,12.4,12.15c5.767,5.833,9.4,9.117,10.9,9.85c1.133,0.567,3.45,0.95,6.95,1.15
			c3,0.133,5.05,0.75,6.149,1.85c1.167,1.167,3.7,4.716,7.601,10.65c4.433,6.767,6.966,10.55,7.6,11.351
			C107.733,91,109.967,92.833,113.2,94.9z"/>
	</g>
	<path style="fill-rule:evenodd;clip-rule:evenodd;fill:#98925D;" d="M85.8,121.05l-9.899,2.5l6.449-2.75
		c4.733-2,8.25-3.416,10.551-4.25c2.267-0.833,5.149-1.066,8.649-0.7c2,0.233,5.117,0.634,9.351,1.2
		c2.699,0.2,5.466,1.483,8.3,3.851c1.399,1.199,2.533,2.366,3.399,3.5c-3.033-0.967-6.267-1.934-9.699-2.9
		c-6.9-1.967-11.4-2.95-13.5-2.95C97.333,118.55,92.8,119.384,85.8,121.05z"/>
	<polygon style="fill-rule:evenodd;clip-rule:evenodd;fill:#98925D;" points="16.95,75.05 38.95,70.05 61.95,75.05 39.95,74.05 	"/>
</g>
</svg>
