<?xml version="1.0" encoding="iso-8859-1"?>
<!-- Generator: Adobe Illustrator 15.1.0, SVG Export Plug-In . SVG Version: 6.00 Build 0)  -->
<!DOCTYPE svg PUBLIC "-//W3C//DTD SVG 1.1//EN" "http://www.w3.org/Graphics/SVG/1.1/DTD/svg11.dtd">
<svg version="1.1" id="buildings_1" xmlns="http://www.w3.org/2000/svg" xmlns:xlink="http://www.w3.org/1999/xlink" x="0px"
	 y="0px" width="230.15px" height="32.95px" viewBox="0 0 230.15 32.95" style="enable-background:new 0 0 230.15 32.95;"
	 xml:space="preserve">
<g>
	<linearGradient id="SVGID_1_" gradientUnits="userSpaceOnUse" x1="0" y1="10.2578" x2="230.1504" y2="10.2578">
		<stop  offset="0" style="stop-color:#EBC8AA"/>
		<stop  offset="1" style="stop-color:#F2DDC9"/>
	</linearGradient>
	<path style="fill-rule:evenodd;clip-rule:evenodd;fill:url(#SVGID_1_);" d="M203.55,3.15c17.634,2.8,26.5,7.533,26.601,14.2L0,20.5
		C0.333,13.467,14.2,8.3,41.6,5c14.6-1.733,37.55-3.15,68.85-4.25C152.884-0.75,183.917,0.05,203.55,3.15z"/>
	<path style="fill-rule:evenodd;clip-rule:evenodd;fill:#F5E5D6;" d="M207.65,6c-3.733-0.633-10.384-1.367-19.95-2.2
		c-9.8-0.867-16.717-1.3-20.75-1.3c-3.434,0-9.667-0.167-18.7-0.5L135.7,1.5l13-0.35c10.1-0.133,18.684,0.067,25.75,0.6
		c13.666,1,21.333,1.583,23,1.75c7.3,0.7,12.366,1.533,15.2,2.5c2.699,0.933,5.633,2.417,8.8,4.45c1.6,1.033,2.916,1.966,3.95,2.8
		c-1.733-1-3.784-2.05-6.15-3.15C214.55,7.9,210.684,6.533,207.65,6z"/>
	<path style="fill-rule:evenodd;clip-rule:evenodd;fill:#F5E5D6;" d="M85.2,3.25L82.95,4.5C57.45,6,40.283,7.5,31.45,9
		c-5.534,0.933-11.233,2.3-17.1,4.1c-2.934,0.9-5.317,1.7-7.15,2.4c3.5-2.667,6.417-4.333,8.75-5c4.267-1.233,12.183-2.567,23.75-4
		c6.667-0.833,16.25-1.617,28.75-2.35C74.717,3.75,80.3,3.45,85.2,3.25z"/>
	
		<linearGradient id="SVGID_2_" gradientUnits="userSpaceOnUse" x1="8.3843" y1="-115.8535" x2="35.8936" y2="-115.8535" gradientTransform="matrix(3.636364e-005 1 -1 -0.001 -2.382556e-004 -1.878946e-004)">
		<stop  offset="0" style="stop-color:#B36940"/>
		<stop  offset="1" style="stop-color:#2A211D"/>
	</linearGradient>
	<path style="fill-rule:evenodd;clip-rule:evenodd;fill:url(#SVGID_2_);" d="M217.6,17.35c0.4,5.634-8.533,9.617-26.8,11.95
		c-13.7,1.733-37.366,2.9-71,3.5c-27.1,0.467-50.466-0.184-70.1-1.95c-23.967-2.133-35.833-5.583-35.6-10.35
		c0.233-4.433,10.5-8.017,30.8-10.75c17.667-2.4,39.184-3.733,64.55-4c34.767-0.4,57.116-0.35,67.05,0.15
		C203.434,7.233,217.134,11.05,217.6,17.35z"/>
	<g>
		
			<linearGradient id="SVGID_3_" gradientUnits="userSpaceOnUse" x1="6.958" y1="-116.7305" x2="46.108" y2="-116.7305" gradientTransform="matrix(2.554278e-005 1 -1 -0.001 2.543788e-004 -1.957008e-004)">
			<stop  offset="0" style="stop-color:#CBDDE7"/>
			<stop  offset="1" style="stop-color:#85B7CD"/>
		</linearGradient>
		<path style="fill-rule:evenodd;clip-rule:evenodd;fill:url(#SVGID_3_);" d="M217.45,16.95l0.149,0.399
			c0.4,5.634-8.533,9.617-26.8,11.95c-13.7,1.733-37.366,2.9-71,3.5c-23.667,0.434-44.816-0.017-63.45-1.35
			c-22.3-1.634-35.8-4.283-40.5-7.95v-0.1l4.1-0.9c3.1-0.833,5.55-1.8,7.35-2.9c1.8-1.133,3.117-2.416,3.95-3.85
			c0.433-0.733,0.667-1.35,0.7-1.85l2.85,3.2c2.434,2,5.05,2.717,7.85,2.15c2.767-0.566,5.434-1.85,8-3.85
			c1.267-0.967,2.267-1.9,3-2.8l3.2,3.6c2.6,2.3,5.083,3.1,7.45,2.399c2.367-0.699,5.017-2.366,7.95-5c1.467-1.3,2.7-2.533,3.7-3.7
			l3.5,2.75c2.733,1.733,5.133,2.383,7.2,1.95c2.1-0.4,4.167-1.467,6.2-3.2c1.033-0.867,1.85-1.7,2.45-2.5l2.75,3.6
			c2.434,2.233,5.184,2.933,8.25,2.1c3.067-0.833,5.6-2.033,7.6-3.6c1-0.767,1.683-1.467,2.05-2.1l1.6,2.45
			c1.667,1.633,4.033,2.383,7.101,2.25c3.033-0.133,5.666-1.133,7.899-3c1.101-0.9,1.9-1.8,2.4-2.7l3.149,3.25
			c2.567,2.133,4.967,3.05,7.2,2.75c2.233-0.267,4.634-1.066,7.2-2.4c1.267-0.667,2.316-1.3,3.15-1.9l3.3,2.25
			c2.7,1.433,5.366,2.017,8,1.75c2.633-0.3,5.483-1.167,8.55-2.6c1.533-0.733,2.8-1.433,3.8-2.1l1.5,3.1
			c1.533,2,3.684,2.867,6.45,2.6c2.767-0.3,5.2-1,7.3-2.1c1.066-0.567,1.851-1.1,2.351-1.6l2.1,2.65c1.767,1.7,3.634,2.483,5.6,2.35
			c1.934-0.133,3.684-0.667,5.25-1.6c0.767-0.466,1.351-0.933,1.75-1.4L217.45,16.95z"/>
	</g>
</g>
</svg>
