<?xml version="1.0" encoding="iso-8859-1"?>
<!-- Generator: Adobe Illustrator 15.1.0, SVG Export Plug-In . SVG Version: 6.00 Build 0)  -->
<!DOCTYPE svg PUBLIC "-//W3C//DTD SVG 1.1//EN" "http://www.w3.org/Graphics/SVG/1.1/DTD/svg11.dtd">
<svg version="1.1" id="buildings_1" xmlns="http://www.w3.org/2000/svg" xmlns:xlink="http://www.w3.org/1999/xlink" x="0px"
	 y="0px" width="31.9px" height="114.75px" viewBox="0 0 31.9 114.75" style="enable-background:new 0 0 31.9 114.75;"
	 xml:space="preserve">
<g>
	<path style="fill-rule:evenodd;clip-rule:evenodd;fill:#939A9D;" d="M25.9,23c-1.4,9.6-2.584,19.567-3.551,29.9
		C20.417,73.566,20.6,85.767,22.9,89.5c3.066,5.033,4.767,9.967,5.1,14.8c0.4,5.434-1.3,8.667-5.1,9.7
		c-5.634,1.5-11.55,0.816-17.75-2.05c-2.633-1.2-4.267-2.5-4.9-3.9c-0.7-1.533,0.017-2.883,2.15-4.05
		c2.633-1.467,5.833-2.316,9.6-2.55c1.9-0.134,3.533-0.117,4.9,0.05c-1.233,0.167-2.55,0.417-3.95,0.75
		c-2.733,0.667-4.417,1.417-5.05,2.25c-0.733,0.967,0.1,1.684,2.5,2.15c2.333,0.433,4.667,0.383,7-0.15
		c1.966-0.434,2.483-2.634,1.55-6.6C18.55,98.066,17.2,94.1,14.9,88c-1.867-5-3.933-11.6-6.2-19.8C5.967,58.167,4.033,49.433,2.9,42
		c-1.033-6.867-1.683-15.767-1.95-26.7C0.85,9.867,0.833,5.1,0.9,1l31-1L25.9,23z"/>
	<g>
		<path style="fill-rule:evenodd;clip-rule:evenodd;fill:#696F71;" d="M21.45,113.1c2.267-0.166,4.116-0.966,5.55-2.399
			c-0.833,1.666-2.2,2.767-4.1,3.3c-5.634,1.5-11.55,0.816-17.75-2.05c-2.633-1.2-4.267-2.5-4.9-3.9
			c-0.7-1.533,0.017-2.883,2.15-4.05c0.967-0.533,2-0.983,3.1-1.35c-3.667,1.666-4.983,3.283-3.95,4.85
			c0.833,1.267,2.7,2.434,5.6,3.5c2.7,0.967,5.3,1.55,7.8,1.75C18.417,113.05,20.583,113.167,21.45,113.1z"/>
	</g>
	<g>
		<g>
			<path style="fill-rule:evenodd;clip-rule:evenodd;fill:#54585B;" d="M5.65,107c0.167,0.3,0.067,0.583-0.3,0.85
				c-0.333,0.267-0.6,0.15-0.8-0.35c-0.033-0.5,0.117-0.783,0.45-0.85C5.333,106.616,5.55,106.733,5.65,107z"/>
		</g>
	</g>
	<g>
		<g>
			<path style="fill-rule:evenodd;clip-rule:evenodd;fill:#54585B;" d="M12.4,109.95c0.6,0.566,0.517,0.767-0.25,0.6
				c-0.066-0.133-0.1-0.25-0.1-0.35C12.05,109.967,12.167,109.884,12.4,109.95z"/>
		</g>
	</g>
	<g>
		<g>
			<path style="fill-rule:evenodd;clip-rule:evenodd;fill:#54585B;" d="M23.55,109.9c0.101,0.199,0.033,0.433-0.2,0.699
				c-0.199,0.301-0.416,0.217-0.649-0.25c-0.066-0.433,0.05-0.666,0.35-0.699C23.316,109.583,23.483,109.667,23.55,109.9z"/>
		</g>
	</g>
	<g>
		<g>
			<path style="fill-rule:evenodd;clip-rule:evenodd;fill:#54585B;" d="M18.55,108.45c0.334,0.666,0.283,1.05-0.149,1.149
				c-0.467,0.167-0.733,0.051-0.801-0.35c-0.1-0.267-0.033-0.533,0.2-0.8C18.033,108.15,18.283,108.15,18.55,108.45z"/>
		</g>
	</g>
	<g>
		<g>
			<path style="fill-rule:evenodd;clip-rule:evenodd;fill:#54585B;" d="M23.5,98.9c-0.167-0.601-0.083-0.934,0.25-1
				c0.366-0.067,0.6,0.017,0.7,0.25c0.267,0.366,0.233,0.683-0.101,0.949C24.017,99.4,23.733,99.333,23.5,98.9z"/>
		</g>
	</g>
	<g>
		<g>
			<path style="fill-rule:evenodd;clip-rule:evenodd;fill:#54585B;" d="M24.85,103.85c0.434,0.101,0.601,0.267,0.5,0.5
				c-0.166,0.267-0.316,0.334-0.449,0.2c-0.167-0.033-0.267-0.149-0.301-0.35C24.566,103.967,24.65,103.85,24.85,103.85z"/>
		</g>
	</g>
	<g>
		<path style="fill-rule:evenodd;clip-rule:evenodd;fill:#696F71;" d="M3.1,43.15L26.05,9.3L25.9,21.8c-1.9,2-3.934,4.5-6.101,7.5
			c-4.333,6-7.133,11.5-8.4,16.5c-1.1,4.367-1.583,8.45-1.45,12.25c0.1,4.134,0.917,8.617,2.45,13.45
			c1.067,3.333,3.284,9.9,6.65,19.7c2.601,8.366,3.267,13.066,2,14.1c-1.066,0.934-2.45,1.483-4.149,1.65
			c-1.101,0.133-2.15,0.1-3.15-0.101c1.366,0,2.583-0.116,3.65-0.35c1.966-0.434,2.483-2.634,1.55-6.6
			C18.55,98.066,17.2,94.1,14.9,88c-1.833-4.866-3.85-11.283-6.05-19.25C6.183,59.05,4.267,50.517,3.1,43.15z"/>
	</g>
	<g>
		<g>
			<path style="fill-rule:evenodd;clip-rule:evenodd;fill:#54585B;" d="M20.05,36.85c0.334,0.4,0.367,0.65,0.101,0.75
				c-0.334,0.133-0.517,0.1-0.551-0.1c-0.199-0.167-0.216-0.35-0.05-0.55C19.717,36.717,19.884,36.683,20.05,36.85z"/>
		</g>
	</g>
	<g>
		<g>
			<path style="fill-rule:evenodd;clip-rule:evenodd;fill:#54585B;" d="M15.95,47.9c0.733-0.1,1.2,0.133,1.399,0.7
				c0.367,0.867,0.15,1.533-0.649,2s-1.351,0.167-1.65-0.9C14.917,48.633,15.217,48.033,15.95,47.9z"/>
		</g>
	</g>
	<g>
		<g>
			<path style="fill-rule:evenodd;clip-rule:evenodd;fill:#54585B;" d="M17.85,64.15c0.2,0.699,0.051,1.116-0.449,1.25
				C16.866,65.5,16.6,65.3,16.6,64.8c-0.066-0.333,0.067-0.616,0.4-0.85C17.366,63.717,17.65,63.783,17.85,64.15z"/>
		</g>
	</g>
	<g>
		<g>
			<path style="fill-rule:evenodd;clip-rule:evenodd;fill:#54585B;" d="M18,75.5c0.434,0.366,0.483,0.8,0.15,1.3
				c-0.367,0.5-0.784,0.483-1.25-0.05c-0.334-0.566-0.301-1,0.1-1.3S17.733,75.167,18,75.5z"/>
		</g>
	</g>
	<g>
		<g>
			<path style="fill-rule:evenodd;clip-rule:evenodd;fill:#54585B;" d="M21.9,90.95c0.233,0.3,0.233,0.6,0,0.899
				c-0.267,0.334-0.517,0.267-0.75-0.199c-0.101-0.233-0.051-0.467,0.149-0.7C21.5,90.684,21.7,90.684,21.9,90.95z"/>
		</g>
	</g>
	<g>
		<g>
			<path style="fill-rule:evenodd;clip-rule:evenodd;fill:#54585B;" d="M20.7,54.6c0.233,0.566,0.133,0.917-0.3,1.05
				c-0.467,0.1-0.7-0.05-0.7-0.45c-0.066-0.3,0.05-0.55,0.35-0.75C20.35,54.25,20.566,54.3,20.7,54.6z"/>
		</g>
	</g>
	<g>
		<g>
			<path style="fill-rule:evenodd;clip-rule:evenodd;fill:#54585B;" d="M14.75,56.4c0.067,0.733-0.133,1.067-0.6,1
				c-0.5-0.1-0.667-0.3-0.5-0.6c-0.066-0.233,0.05-0.45,0.35-0.65C14.333,55.95,14.583,56.033,14.75,56.4z"/>
		</g>
	</g>
	<g>
		<g>
			<path style="fill-rule:evenodd;clip-rule:evenodd;fill:#54585B;" d="M15.95,39.9c0.267,0.7,0.133,0.867-0.4,0.5
				c-0.133-0.167-0.133-0.316,0-0.45C15.684,39.783,15.816,39.767,15.95,39.9z"/>
		</g>
	</g>
	<g>
		<g>
			<path style="fill-rule:evenodd;clip-rule:evenodd;fill:#54585B;" d="M22.95,31.1c0.1,0.1,0.066,0.267-0.101,0.5
				c-0.166,0.233-0.35,0.183-0.55-0.15c-0.066-0.333,0.017-0.517,0.25-0.55C22.75,30.867,22.884,30.933,22.95,31.1z"/>
		</g>
	</g>
</g>
</svg>
