<?xml version="1.0" encoding="iso-8859-1"?>
<!-- Generator: Adobe Illustrator 15.1.0, SVG Export Plug-In . SVG Version: 6.00 Build 0)  -->
<!DOCTYPE svg PUBLIC "-//W3C//DTD SVG 1.1//EN" "http://www.w3.org/Graphics/SVG/1.1/DTD/svg11.dtd">
<svg version="1.1" id="buildings_1" xmlns="http://www.w3.org/2000/svg" xmlns:xlink="http://www.w3.org/1999/xlink" x="0px"
	 y="0px" width="266.4px" height="201.95px" viewBox="0 0 266.4 201.95" style="enable-background:new 0 0 266.4 201.95;"
	 xml:space="preserve">
<g>
	<path style="fill-rule:evenodd;clip-rule:evenodd;fill:#939A9D;" d="M86.8,21c0.534,1.933,1.3,5.15,2.3,9.65
		c1.033,4.1,2.167,7.483,3.4,10.15c2.5,5.434,7.583,9.817,15.25,13.15c3.833,1.667,7.417,2.783,10.75,3.35l-2.5,21
		c-1.167-0.233-2.933-0.883-5.3-1.95c-4.767-2.067-10.167-5.083-16.2-9.05c-5.667-3.7-9.6-11.85-11.8-24.45
		c-0.934-6.267-1.617-10.65-2.05-13.15c-0.733-4.233-1.617-6.867-2.65-7.9c-1.833-1.833-5.183-1.316-10.05,1.55
		c-6.333,3.733-10.817,5.717-13.45,5.95c-4.367,0.434-7.433-2.017-9.2-7.35c-0.533-1.667-0.917-3.534-1.15-5.6L44,13.8l0.25,1.9
		c0.233,1.5,0.633,2.883,1.2,4.15c1.733,4.1,4.583,6.25,8.55,6.45c3.233,0.167,7.317-2.2,12.25-7.1c5.1-5.1,9.183-7.733,12.25-7.9
		C82.267,11.1,85.033,14.333,86.8,21z"/>
	<g>
		<path style="fill-rule:evenodd;clip-rule:evenodd;fill:#696F71;" d="M82.4,24.1c0.434,2,0.934,5.066,1.5,9.2
			c0.9,4.9,2,9.534,3.3,13.9c2.066,6.9,4.267,11.566,6.6,14c2.233,2.333,4.583,4.183,7.05,5.55c1.233,0.667,2.25,1.1,3.05,1.3
			c-2.066-5.167-3.517-9.283-4.35-12.35c-0.466-1.733-0.966-4.317-1.5-7.75c2.9,2.533,6.5,4.683,10.8,6.45
			c1.633,6.067,3.683,13.934,6.15,23.6c-5.233-1.633-12.067-5.2-20.5-10.7c-5.667-3.7-9.6-11.85-11.8-24.45
			c-0.934-6.267-1.617-10.65-2.05-13.15c-0.733-4.233-1.617-6.867-2.65-7.9c-1.833-1.833-5.183-1.316-10.05,1.55
			c-6.333,3.733-10.817,5.717-13.45,5.95c-4.367,0.434-7.433-2.017-9.2-7.35c-0.533-1.667-0.917-3.534-1.15-5.6l-0.125-2.2
			c0.177,2.192,0.552,4.259,1.125,6.2c1.267,4.1,3.184,6.467,5.75,7.1c2.833,0.7,5.8,0.4,8.9-0.9c1.934-0.8,4.267-2.216,7-4.25
			c3.034-2.233,5.05-3.617,6.05-4.15c2.333-1.2,4.316-1.4,5.95-0.6C80.4,18.35,81.6,20.533,82.4,24.1z"/>
	</g>
	
		<linearGradient id="SVGID_1_" gradientUnits="userSpaceOnUse" x1="-81.1465" y1="-90.3735" x2="56.579" y2="-90.3735" gradientTransform="matrix(-0.5845 0.8114 -0.8114 -0.5845 5.348921e-004 1.744032e-004)">
		<stop  offset="0" style="stop-color:#C8CDCE"/>
		<stop  offset="1" style="stop-color:#9DA6A9"/>
	</linearGradient>
	<path style="fill-rule:evenodd;clip-rule:evenodd;fill:url(#SVGID_1_);" d="M101.75,74.35c4.167-1.2,7.75-3.217,10.75-6.05l11.5,21
		c-4.567,0.934-10.017,1.45-16.35,1.55c-12.667,0.267-23.383-1.583-32.15-5.55c-4.667-2.1-7.867-5.683-9.6-10.75
		c-1.1-3.267-1.75-8.167-1.95-14.7c-0.233-6.733-0.667-11.217-1.3-13.45c-1.233-4.066-3.783-6.433-7.65-7.1
		c-3.933-0.667-7.383-0.25-10.35,1.25c-2.066,1.067-4.316,3-6.75,5.8c-3.167,3.6-5.25,5.816-6.25,6.65
		c-2.6,2.2-5.483,3.467-8.65,3.8c-6.033,0.633-11.683-0.683-16.95-3.95c-1.633-1-3.133-2.15-4.5-3.45L0,47.8
		c2.333,0.934,4.983,1.85,7.95,2.75c5.9,1.833,10.417,2.75,13.55,2.75c1.567,0,3.367-1.183,5.4-3.55
		c2.533-3.333,4.567-5.917,6.1-7.75c6.133-7.367,12.967-10.767,20.5-10.2c4.567,0.367,8.067,1.434,10.5,3.2
		c1.967,1.467,3.65,3.817,5.05,7.05c0.867,1.967,2.217,5.434,4.05,10.4c2.033,4.867,4.5,9.316,7.4,13.35
		C86.333,73.933,93.417,76.783,101.75,74.35z"/>
	<g>
		<path style="fill-rule:evenodd;clip-rule:evenodd;fill:#939A9D;" d="M87.65,82.8l19.25-10.6L94.6,90.25
			c-7.167-0.8-13.533-2.45-19.1-4.95c-4.667-2.1-7.867-5.683-9.6-10.75c-1.1-3.267-1.75-8.167-1.95-14.7
			c-0.233-6.733-0.667-11.217-1.3-13.45c-1.233-4.066-3.783-6.433-7.65-7.1c-3.933-0.667-7.383-0.25-10.35,1.25
			c-2.066,1.067-4.316,3-6.75,5.8c-3.167,3.6-5.25,5.816-6.25,6.65c-2.6,2.2-5.483,3.467-8.65,3.8
			c-5.533,0.567-10.733-0.483-15.6-3.15L0,47.8l4.15,2.8c3.467,2.033,6.967,3.483,10.5,4.35c5.333,1.333,10.083,0.583,14.25-2.25
			c2.567-1.767,5.65-5.067,9.25-9.9c2.467-3.3,5.983-5.417,10.55-6.35c4.033-0.767,7.35-0.483,9.95,0.85
			c2.434,1.233,4.083,2.517,4.95,3.85c1.1,1.667,1.95,4.6,2.55,8.8c0.767,5.066,2.067,10.4,3.9,16c2.133,6.4,4.233,10.683,6.3,12.85
			c1.867,1.934,4.316,3.184,7.35,3.75C85.2,82.817,86.517,82.9,87.65,82.8z"/>
		<g>
			<path style="fill-rule:evenodd;clip-rule:evenodd;fill:#696F71;" d="M85.9,85.6l-1.95,2.65c-2.767-0.7-5.583-1.683-8.45-2.95
				c-4.667-2.1-7.867-5.683-9.6-10.75c-1.1-3.267-1.75-8.167-1.95-14.7c-0.233-6.733-0.667-11.217-1.3-13.45
				c-1.233-4.066-3.783-6.433-7.65-7.1c-3.933-0.667-7.383-0.25-10.35,1.25c-2.066,1.067-4.316,3-6.75,5.8
				c-3.167,3.6-5.25,5.816-6.25,6.65c-2.6,2.2-5.483,3.467-8.65,3.8c-6.033,0.633-11.683-0.683-16.95-3.95
				c-1.633-1-3.133-2.15-4.5-3.45L0,47.8c3.433,3.034,6.783,5.233,10.05,6.6c3,1.2,6.35,1.883,10.05,2.05
				c1.833,0.066,3.517-0.133,5.05-0.6c1.467-0.467,3.033-1.267,4.7-2.4c1.3-0.9,3.217-2.75,5.75-5.55c0.8-0.9,2.566-2.933,5.3-6.1
				c2.667-3.1,7.367-4.417,14.1-3.95c5.333,0.367,8.617,4.267,9.85,11.7c0.233,1.434,0.65,4.883,1.25,10.35
				c0.833,5.633,2.05,10.6,3.65,14.9c1.6,4.3,4.767,7.383,9.5,9.25C81.65,85.017,83.867,85.533,85.9,85.6z"/>
		</g>
	</g>
	<path style="fill-rule:evenodd;clip-rule:evenodd;fill:#939A9D;" d="M207.45,15.8c-1.867-0.1-4.617-1.533-8.25-4.3
		c-1.2-0.9-2.05-1.333-2.55-1.3c-0.634,0.1-1.034,0.966-1.2,2.6c0.033,6.5-0.084,12.733-0.351,18.7c-0.5,11.6-1.883,20.7-4.149,27.3
		c-2.267,6.667-7.934,13.667-17,21c-2.834,2.3-5.851,4.483-9.05,6.55L161,88.8l-3.5-30l3.1-0.05c2.534-0.167,5-0.55,7.4-1.15
		c7.667-1.9,13.167-5.667,16.5-11.3c2.667-4.533,4.267-12.6,4.8-24.2c0.233-5.267,0.533-8.9,0.9-10.9
		c0.633-3.3,1.767-5.434,3.399-6.4c2.101-1.2,4.601-0.417,7.5,2.35c3.434,3.3,5.884,5.017,7.351,5.15c2.3,0.2,4.983-0.15,8.05-1.05
		c1.566-0.467,2.884-0.95,3.95-1.45c-1.167,1.067-2.584,2.1-4.25,3.1C212.9,14.967,209.983,15.933,207.45,15.8z"/>
	<path style="fill-rule:evenodd;clip-rule:evenodd;fill:#696F71;" d="M207.5,14.45c1.967,0.1,4.316-0.383,7.05-1.45
		c2.267-0.9,4.233-1.967,5.9-3.2c-1.167,1.067-2.584,2.1-4.25,3.1c-3.3,2.067-6.217,3.033-8.75,2.9c-1.867-0.1-4.617-1.533-8.25-4.3
		c-1.2-0.9-2.05-1.333-2.55-1.3c-0.634,0.1-1.034,0.966-1.2,2.6c0.033,6.5-0.084,12.733-0.351,18.7c-0.5,11.6-1.883,20.7-4.149,27.3
		c-2.7,7.9-10,16.133-21.9,24.7l-2,0.05L170.15,57c2.666-0.833,5.083-1.967,7.25-3.4c0,3.267-0.2,5.833-0.601,7.7l-1.399,6.65
		l4.6-2.05c3.267-1.867,5.45-4.1,6.55-6.7c2.134-5.167,3.533-8.95,4.2-11.35c1.566-5.7,2.483-12.583,2.75-20.65
		c0.3-9.3,0.616-14.934,0.95-16.9c0.333-1.966,1.133-2.8,2.399-2.5c0.567,0.133,2.101,1.3,4.601,3.5
		C203.816,13.3,205.833,14.35,207.5,14.45z"/>
	
		<linearGradient id="SVGID_2_" gradientUnits="userSpaceOnUse" x1="-81.1523" y1="-204.9277" x2="56.5732" y2="-204.9277" gradientTransform="matrix(-0.5845 0.8114 -0.8114 -0.5845 5.348921e-004 1.744032e-004)">
		<stop  offset="0" style="stop-color:#C8CDCE"/>
		<stop  offset="1" style="stop-color:#9DA6A9"/>
	</linearGradient>
	<path style="fill-rule:evenodd;clip-rule:evenodd;fill:url(#SVGID_2_);" d="M250.45,68.3c-2.601-0.8-7.167-5.3-13.7-13.5
		c-6-7.5-9.934-11-11.8-10.5c-1.134,0.3-2.601,2.383-4.4,6.25c-1.066,2.3-2.916,6.517-5.55,12.65
		c-5.733,12.3-11.917,19.333-18.55,21.1c-7.066,1.867-17.517,3.434-31.351,4.7l-18.6,1.3l1.5-23l4.7,0.95
		c3.866,0.733,7.666,1.25,11.399,1.55c12,1,21.117-0.167,27.351-3.5c3.3-1.767,6.316-4.95,9.05-9.55
		c1.3-2.167,3.467-6.583,6.5-13.25c2.533-5.567,4.733-9.517,6.6-11.85c2.733-3.467,5.851-5.25,9.351-5.35
		c3.5-0.1,6.666,1.733,9.5,5.5c1.967,2.6,4.2,6.833,6.7,12.7c2.966,7,4.899,11.317,5.8,12.95c2.267,4,4.6,6.117,7,6.35
		c4.6,0.434,8.483-0.433,11.649-2.6c1.178-0.827,2.103-1.668,2.775-2.525c-1.298,1.847-2.855,3.622-4.675,5.325
		C257.533,67.9,253.783,69.333,250.45,68.3z"/>
	<g>
		<path style="fill-rule:evenodd;clip-rule:evenodd;fill:#939A9D;" d="M254.35,66.95c2.4,0.2,5.717-1.917,9.95-6.35
			c0.634-0.5,1.15-0.967,1.55-1.4l0.051,0.05c-2,2.667-4.101,4.833-6.301,6.5c-3.366,2.533-6.416,3.383-9.149,2.55
			c-2.601-0.8-7.167-5.3-13.7-13.5c-6-7.5-9.934-11-11.8-10.5c-1.134,0.3-2.601,2.383-4.4,6.25c-1.066,2.3-2.916,6.517-5.55,12.65
			c-5.733,12.3-11.917,19.333-18.55,21.1c-5.733,1.5-13.717,2.817-23.95,3.95l-7.7-2.55l3.25-11.25l9.3,1
			c7.233,0.267,13.45-0.617,18.65-2.65c4.767-1.867,9.934-7.566,15.5-17.1c1.4-2.367,3.283-5.633,5.65-9.8
			c1.866-3.033,3.35-4.767,4.449-5.2c2.534-1.034,5.184-0.483,7.95,1.65c2.533,1.967,5.684,5.7,9.45,11.2
			c3.434,5.034,6.366,8.55,8.8,10.55C249.866,65.8,252.05,66.75,254.35,66.95z"/>
		<g>
			<path style="fill-rule:evenodd;clip-rule:evenodd;fill:#696F71;" d="M245.1,63.05c2.4,2.3,4.084,3.717,5.051,4.25
				c2.1,1.133,4.35,1.184,6.75,0.15c-2.301,1.167-4.45,1.45-6.45,0.85c-2.601-0.8-7.167-5.3-13.7-13.5c-6-7.5-9.934-11-11.8-10.5
				c-1.134,0.3-2.601,2.383-4.4,6.25c-1.066,2.3-2.916,6.517-5.55,12.65c-5.733,12.3-11.917,19.333-18.55,21.1
				c-4.934,1.3-11.601,2.467-20,3.5l-10.8-8l5.149,0.15c4.134,0.033,8.084-0.117,11.851-0.45c11.966-1,19.533-3.567,22.699-7.7
				c3-3.867,6.517-9.367,10.551-16.5c4.066-7.233,6.267-11.066,6.6-11.5c1.066-1.4,2.417-1.9,4.05-1.5
				c1.334,0.333,2.483,1.05,3.45,2.15c0.5,0.6,2.783,3.517,6.85,8.75C240.983,58.467,243.733,61.75,245.1,63.05z"/>
		</g>
	</g>
	
		<linearGradient id="SVGID_3_" gradientUnits="userSpaceOnUse" x1="-81.1626" y1="-152.416" x2="56.5629" y2="-152.416" gradientTransform="matrix(-0.5845 0.8114 -0.8114 -0.5845 5.348921e-004 1.744032e-004)">
		<stop  offset="0" style="stop-color:#C8CDCE"/>
		<stop  offset="1" style="stop-color:#9DA6A9"/>
	</linearGradient>
	<path style="fill-rule:evenodd;clip-rule:evenodd;fill:url(#SVGID_3_);" d="M168.1,21.15c0.567,0.833,0.817,2.15,0.75,3.95
		l1.301,0.9c0.899,0.667,1.433,1.183,1.6,1.55c3.7,7.8,5.267,16.284,4.7,25.45c-0.467,7.933-2.45,15.667-5.95,23.2
		c3.934,0.733,7.6,1.1,11,1.1c7.7,0,13.7-1.566,18-4.7c2.533-1.833,4.033-2.867,4.5-3.1c1.8-0.9,3.95-1.3,6.45-1.2
		c2.6,0.1,4.7,1.583,6.3,4.45c1.134,2,2.2,5.167,3.2,9.5c1.3,5.467,2.116,8.717,2.45,9.75c1.066,3.1,2.416,4.867,4.05,5.3
		c3.133,0.833,6.566,0.583,10.3-0.75c1.9-0.667,3.467-1.417,4.7-2.25c-1.434,1.567-3.167,3.034-5.2,4.4
		c-4.1,2.767-7.7,3.633-10.8,2.6c-2-0.667-3.783-2.233-5.351-4.7c-0.866-1.4-2.066-3.867-3.6-7.4c-1.4-3.3-2.566-5.6-3.5-6.9
		c-1.467-2-3.15-3-5.05-3c-1.8,0-3.55,0.65-5.25,1.95c-2,1.867-3.634,3.35-4.9,4.45c-5.066,4.433-11.666,6.966-19.8,7.6
		c-7.866,0.567-15.583,0.7-23.15,0.4c-5.866,3.367-9.783,5.966-11.75,7.8c-4.433,4.134-8.216,10.15-11.35,18.05
		c-10.667,26.9-16.383,41.5-17.15,43.8c-5.1,15-5.983,23.801-2.65,26.4c3.5,2.733,6.65,4.033,9.45,3.9
		c2.4-0.101,3.7-0.967,3.9-2.601c0.1-0.967-1.45-1.399-4.65-1.3l-4.85,0.45l3.15-1.75c2.533-1.134,4.933-1.517,7.2-1.15
		c2.3,0.367,3.917,0.983,4.85,1.851c1.133,1.033,1.533,2.616,1.2,4.75c-0.367,2.333-1.583,4.149-3.65,5.449
		c-2.8,1.733-7.233,2.601-13.3,2.601c-7.967,0-13.467-2.767-16.5-8.3c-2.733-4.934-3.167-11.351-1.3-19.25
		c0.3-1.2,3.183-10.801,8.65-28.801c4.333-14.3,7.1-26.05,8.3-35.25c0.6-4.699,0.45-9.667-0.45-14.899
		c-19,3.033-35.517,3.983-49.55,2.85c-9.566-0.767-16.467-4.716-20.7-11.85c-1.767-3.567-3.05-6.034-3.85-7.4
		c-1.3-2.3-2.783-3.55-4.45-3.75c-1.8-0.233-3.233,0.35-4.3,1.75c-0.667,0.833-1.483,2.55-2.45,5.15
		c-2.167,5.733-4.917,9.267-8.25,10.6c-4.167,1.667-8.667,1.833-13.5,0.5c-2.4-0.667-4.4-1.5-6-2.5c1.167,0.167,2.6,0.3,4.3,0.4
		c3.433,0.167,6.5,0.033,9.2-0.4c1.367-0.2,2.65-1.566,3.85-4.1c1.4-3.5,2.533-6.233,3.4-8.2c3.5-7.9,8.417-12.133,14.75-12.7
		c3.6-0.333,6.55,0.75,8.85,3.25c0.8,0.833,2.583,3.6,5.35,8.3c2.233,3.8,4.6,6.483,7.1,8.05c3.633,2.267,8.367,3.067,14.2,2.4
		c6.833-0.8,13.617-2.85,20.35-6.15c5.1-2.533,9.983-5.683,14.65-9.45c-2.433-6.567-4.117-11.417-5.05-14.55
		c-1.667-5.5-2.75-10.566-3.25-15.2c-0.067-0.667,0.65-1.35,2.15-2.05c1.533-0.7,2.333-1.4,2.4-2.1c0.1-0.8-0.433-2.45-1.6-4.95
		c-1.133-2.367-1.533-4.017-1.2-4.95c1.733-5.2,4.417-10,8.05-14.4c3.767-4.533,8.05-8.017,12.85-10.45
		c11.333-5.733,22.45-4.533,33.35,3.6C160.134,11.283,164.634,15.95,168.1,21.15z"/>
	<path style="fill-rule:evenodd;clip-rule:evenodd;fill:#939A9D;" d="M168.35,21.95c0.434,0.433,0.601,1.483,0.5,3.15L158,30.8
		l5-3.7C164.667,25.9,166.45,24.183,168.35,21.95z"/>
	<path style="fill-rule:evenodd;clip-rule:evenodd;fill:#939A9D;" d="M171.35,32.3l1.9,8.55c1.167,6.267,1.533,10.85,1.1,13.75
		c-0.533,3.8-1.05,6.75-1.55,8.85c-0.633,2.6-1.566,5.55-2.8,8.85c-1.1,2.934-2.65,6.034-4.65,9.3l-2.699,4v-1.65l-11.65,1l4-2.6
		c3.1-2.5,5.767-5.633,8-9.4c2.233-3.733,3.85-9.684,4.85-17.85l0.801-11.15L172,50.3L171.35,32.3z"/>
	<path style="fill-rule:evenodd;clip-rule:evenodd;fill:#818E91;" d="M151.25,23.6c1.1,0.767,1.8,1.933,2.1,3.5
		c0.267,1.6-0.066,2.917-1,3.95l-1.5,1.05l2.051,2.2c1.133,1.667,1.216,3.05,0.25,4.15c-0.967,1.1-2.117,1.6-3.45,1.5l-1.7-0.5
		l-0.55,2.6c-0.601,1.8-1.533,2.767-2.8,2.9c-1.233,0.133-2.517-0.35-3.851-1.45l-1.649-1.7c-0.4,0.767-0.934,1.517-1.601,2.25
		c-1.267,1.5-2.45,2.25-3.55,2.25c-1.1,0-2.183-0.716-3.25-2.15l-1.25-2.2c-0.5,0.566-1.167,1.1-2,1.6c-1.633,1-3.25,1.35-4.85,1.05
		c-1.533-0.267-2.583-1.367-3.15-3.3l-0.35-2.85c-0.467,0.466-1.05,0.816-1.75,1.05c-1.433,0.433-2.783,0.083-4.05-1.05
		c-1.4-1.233-1.883-2.517-1.45-3.85l1.1-1.65c-0.567-0.067-1.15-0.25-1.75-0.55c-1.2-0.6-1.9-1.533-2.1-2.8
		c-0.2-1.233,0.15-2.3,1.05-3.2c0.466-0.433,0.95-0.75,1.45-0.95c-0.433-0.367-0.816-0.867-1.15-1.5c-0.667-1.267-0.717-2.6-0.15-4
		c0.533-1.4,1.417-2.3,2.65-2.7c0.6-0.167,1.15-0.217,1.65-0.15c-0.3-0.7-0.517-1.483-0.65-2.35c-0.233-1.8,0.1-3.183,1-4.15
		s2.033-1.167,3.4-0.6c0.667,0.267,1.25,0.633,1.75,1.1c-0.033-0.7,0.05-1.434,0.25-2.2c0.367-1.533,1.067-2.517,2.1-2.95
		c1.033-0.4,2.117-0.184,3.25,0.65c0.567,0.4,1.033,0.85,1.4,1.35l1-1.8c0.9-1.167,1.967-1.683,3.2-1.55
		c1.6,0.2,2.667,0.967,3.2,2.3c0.267,0.667,0.367,1.3,0.3,1.9l2.301-1.5c1.8-0.767,3.466-0.55,5,0.65
		c1.533,1.2,2.333,2.583,2.399,4.15c0.033,0.8-0.1,1.467-0.399,2l2.6,0.05c1.9,0.333,3.267,1.267,4.1,2.8
		c0.834,1.533,0.884,2.983,0.15,4.35c-0.366,0.7-0.816,1.25-1.35,1.65L151.25,23.6z"/>
	<path style="fill-rule:evenodd;clip-rule:evenodd;fill:#CDD1D2;" d="M139.6,2.85c6.367,0.2,12.4,3.233,18.101,9.1
		c2.866,2.933,5.1,5.85,6.7,8.75l-5.5,1.75c-0.733-1.767-1.634-3.684-2.7-5.75c-2.167-4.1-4.084-6.883-5.75-8.35
		c-2.4-2.067-4.934-3.6-7.601-4.6L139.6,2.85z"/>
	<path style="fill-rule:evenodd;clip-rule:evenodd;fill:#494F51;" d="M129.35,9.1c3.966-0.133,7.9,1.3,11.8,4.3
		c3.533,2.7,5.767,5.55,6.699,8.55c0.934,3.066,1.267,6.216,1,9.45c-0.333,3.733-1.449,6.133-3.35,7.2
		c-1.934,1.1-4.95,1.65-9.05,1.65c-3.534,0-7.4-0.383-11.6-1.15c-4.067-0.7-7.167-2.434-9.3-5.2c-2.367-3.1-2.883-6.8-1.55-11.1
		c1.333-4.333,3.533-7.733,6.6-10.2C123.3,10.4,126.217,9.233,129.35,9.1z"/>
	<path style="fill-rule:evenodd;clip-rule:evenodd;fill:#393D3F;" d="M146.75,37.25c-1.5,1.133-2.983,1.833-4.45,2.1
		c-0.6,0.1-2.149,0.167-4.649,0.2c-4.2,0.1-7.884-0.133-11.05-0.7c-4.1-0.7-6.967-1.9-8.6-3.6c-1.767-1.767-2.217-2.933-1.35-3.5
		c0.233-0.133,1,0.367,2.3,1.5c1.566,1.4,3.017,2.3,4.35,2.7c7.1,2.167,13.134,3.033,18.101,2.6
		C143.9,38.35,145.684,37.917,146.75,37.25z"/>
	<path style="fill-rule:evenodd;clip-rule:evenodd;fill:#AAB2B5;" d="M142.35,17.45c1.601,1.733,2.684,3.75,3.25,6.05
		c0.301,1.167,0.434,2.15,0.4,2.95c-0.767-1.233-1.483-2.017-2.15-2.35c-0.399-0.2-0.85,0.15-1.35,1.05l-0.65,1.45
		c0-1.767-0.616-4.1-1.85-7c-0.767-1.8-2.217-3.45-4.35-4.95l-3-1.7l3.4,0.7C138.65,14.45,140.75,15.717,142.35,17.45z"/>
	<g>
		<path style="fill-rule:evenodd;clip-rule:evenodd;fill:#939A9D;" d="M86.85,93.9c8.933-1.1,17.117-2.583,24.55-4.45
			c3.767-0.934,7.267-2.633,10.5-5.1c1.633-1.233,2.883-2.367,3.75-3.4l-1.7,14.7c-1.534,11.067-3.35,19.833-5.45,26.3
			c-1.667,5.166-5.45,16.066-11.35,32.7c-5,15.133-7.333,25.283-7,30.449c0.367,5.5,2.283,9.483,5.75,11.95
			c2.267,1.566,5.35,2.533,9.25,2.9c2.833,0.267,5.55,0.184,8.15-0.25c3.434-0.533,6.117-1.617,8.05-3.25
			c-1.967,3.666-7.333,5.5-16.1,5.5c-7.967,0-13.467-2.767-16.5-8.3c-2.733-4.934-3.167-11.351-1.3-19.25
			c0.3-1.2,3.183-10.801,8.65-28.801c4.333-14.3,7.1-26.05,8.3-35.25c0.6-4.699,0.45-9.667-0.45-14.899
			c-19,3.033-35.517,3.983-49.55,2.85c-9.566-0.767-16.467-4.716-20.7-11.85c-1.767-3.567-3.05-6.034-3.85-7.4
			c-1.3-2.3-2.783-3.55-4.45-3.75c-1.8-0.233-3.233,0.35-4.3,1.75c-0.667,0.833-1.483,2.55-2.45,5.15
			c-2.167,5.733-4.917,9.267-8.25,10.6c-3.733,1.467-7.75,1.75-12.05,0.85c-2.5-0.533-4.833-1.4-7-2.6
			c2.667,0.833,5.3,1.434,7.9,1.8c4.167,0.533,7.217,0.233,9.15-0.9c2.434-1.434,4.434-3.35,6-5.75c1.1-1.733,2.184-4.117,3.25-7.15
			c1.967-5.566,5.184-7.733,9.65-6.5c1,0.3,2.367,1.633,4.1,4c1.033,1.4,2.8,3.883,5.3,7.45c5.267,7.033,10.55,10.717,15.85,11.05
			C68.95,95.483,77.05,95.1,86.85,93.9z"/>
		<path style="fill-rule:evenodd;clip-rule:evenodd;fill:#939A9D;" d="M171.15,90.45c7.199-1.233,11.933-2.233,14.199-3
			c3.101-1.067,6.75-3.184,10.95-6.35c4.2-3.1,7.483-5.017,9.851-5.75c1.866-0.567,3.683-0.483,5.449,0.25
			c1.301,0.566,2.934,3.183,4.9,7.85c1.1,2.566,2.533,6.066,4.3,10.5c1.4,2.933,3.8,4.667,7.2,5.2
			c4.134,0.633,8.616-0.983,13.45-4.85c-1.434,1.567-3.167,3.034-5.2,4.4c-4.1,2.767-7.7,3.633-10.8,2.6
			c-2-0.667-3.783-2.233-5.351-4.7c-0.866-1.4-2.066-3.867-3.6-7.4c-1.4-3.3-2.566-5.6-3.5-6.9c-1.467-2-3.15-3-5.05-3
			c-1.8,0-3.55,0.65-5.25,1.95c-2,1.867-3.634,3.35-4.9,4.45c-5.066,4.433-11.666,6.966-19.8,7.6c-7.866,0.567-15.583,0.7-23.15,0.4
			l3.851-0.9C162.2,92.033,166.35,91.25,171.15,90.45z"/>
	</g>
	<g>
		<path style="fill-rule:evenodd;clip-rule:evenodd;fill:#696F71;" d="M104.8,94.45c6.733-1.767,11.35-3.1,13.85-4l-0.1,8.75
			c-0.3,6.7-0.966,12.233-2,16.6c-1.2,5.066-3.2,12.2-6,21.4c-2.667,8.833-4.75,15.25-6.25,19.25
			c-1.966,5.133-3.566,10.017-4.8,14.649c-1.667,6.367-2.283,10.983-1.85,13.851c0.633,4.033,1.817,7.233,3.55,9.6
			c2.4,3.2,6.017,5.2,10.85,6c4.567,0.767,8.284,0.934,11.15,0.5c1.7-0.267,3.533-0.866,5.5-1.8c-2.767,1.8-7.25,2.7-13.45,2.7
			c-7.967,0-13.467-2.767-16.5-8.3c-2.733-4.934-3.167-11.351-1.3-19.25c0.3-1.2,3.183-10.801,8.65-28.801
			c4.333-14.3,7.1-26.05,8.3-35.25c0.6-4.699,0.45-9.667-0.45-14.899c-19,3.033-35.517,3.983-49.55,2.85
			c-9.566-0.767-16.467-4.716-20.7-11.85c-1.767-3.567-3.05-6.034-3.85-7.4c-1.3-2.3-2.783-3.55-4.45-3.75
			c-1.8-0.233-3.233,0.35-4.3,1.75c-0.667,0.833-1.483,2.55-2.45,5.15c-2.167,5.733-4.917,9.267-8.25,10.6
			c-4.167,1.667-8.667,1.833-13.5,0.5c-2.4-0.667-4.4-1.5-6-2.5c1,0.534,2.233,1.05,3.7,1.55c2.9,1,5.5,1.45,7.8,1.35
			c3.2-0.133,5.767-0.667,7.7-1.6c2.5-1.233,4.433-3.283,5.8-6.15c1.833-4.167,3.184-7.034,4.05-8.6c1.466-2.567,3-3.833,4.6-3.8
			c1.633,0.067,3.117,0.9,4.45,2.5c0.467,0.6,1.433,2.15,2.9,4.65c1.833,3.133,3.567,5.617,5.2,7.45c3.233,3.667,6.8,6.05,10.7,7.15
			c4.434,1.3,12.133,1.817,23.1,1.55C91.567,96.583,99.533,95.783,104.8,94.45z"/>
		<path style="fill-rule:evenodd;clip-rule:evenodd;fill:#696F71;" d="M197.8,85.7c-5.066,4.433-11.666,6.966-19.8,7.6
			c-5.1,0.367-10.366,0.55-15.8,0.55c0.1-0.1,0.25-0.15,0.45-0.15c3.866-0.367,7.949-0.9,12.25-1.6c5.899-1,10.616-2.1,14.149-3.3
			c2.733-0.933,6.134-3.083,10.2-6.45c3.8-3.167,6.583-4.934,8.35-5.3c2.4-0.466,4.5,0.833,6.301,3.9
			c0.366,0.633,1.899,4.133,4.6,10.5c1.533,3.566,3.366,6.05,5.5,7.45c1.8,1.167,4.05,1.684,6.75,1.55
			c2.033-0.1,4.417-1.15,7.15-3.15c1.399-1,2.583-2,3.55-3c-1.434,1.567-3.167,3.034-5.2,4.4c-4.1,2.767-7.7,3.633-10.8,2.6
			c-2-0.667-3.783-2.233-5.351-4.7c-0.866-1.4-2.066-3.867-3.6-7.4c-1.4-3.3-2.566-5.6-3.5-6.9c-1.467-2-3.15-3-5.05-3
			c-1.8,0-3.55,0.65-5.25,1.95C200.7,83.117,199.066,84.6,197.8,85.7z"/>
	</g>
	<g>
		<path style="fill-rule:evenodd;clip-rule:evenodd;fill:#939A9D;" d="M98.6,42.45C98.533,41.683,99,40.533,100,39
			c0.5-0.767,1-1.45,1.5-2.05c-0.4-0.667-0.783-1.417-1.15-2.25c-0.733-1.7-1-2.95-0.8-3.75c1.567-5.9,4.367-11.367,8.4-16.4
			c4.2-5.233,9.05-9.1,14.55-11.6c-2.833,1.6-5.683,4.117-8.55,7.55c-5.767,6.9-8.75,15-8.95,24.3c-0.2,8.7,1.25,16.75,4.35,24.15
			c1.533,3.7,3.083,6.533,4.65,8.5c-2.767,1.767-5.133,3.35-7.1,4.75c-2.4-6.534-4.083-11.383-5.05-14.55
			C100.183,52.117,99.1,47.05,98.6,42.45z"/>
	</g>
	<g>
		<path style="fill-rule:evenodd;clip-rule:evenodd;fill:#939A9D;" d="M143.65,96.45c0.933,0.466,3.083,0.15,6.449-0.95
			c1.667-0.533,3.25-1.133,4.75-1.8c-5.866,3.367-9.783,5.966-11.75,7.8c-4.433,4.134-8.216,10.15-11.35,18.05
			c-10.667,26.9-16.383,41.5-17.15,43.8c-5.1,15-5.983,23.801-2.65,26.4c3,2.3,5.75,3.566,8.25,3.8l-0.05,0.05
			c-1.833,0.2-3.733,0.067-5.7-0.399c-3.934-0.934-6.25-3.066-6.95-6.4c-0.733-3.566,0.683-11.45,4.25-23.649
			c2.833-9.667,6.033-19.067,9.6-28.2c3.033-7.733,7.083-17.517,12.15-29.351c1.6-3.733,3.75-8.966,6.45-15.7l3.55-8.95l-0.75,7.3
			C142.45,93.25,142.75,95.983,143.65,96.45z"/>
	</g>
	<g>
		<path style="fill-rule:evenodd;clip-rule:evenodd;fill:#696F71;" d="M120.65,189.75l-4.85,0.45l2.5-0.7
			c1.934-0.467,3.467-0.7,4.6-0.7c1.3,0,2.283,0.25,2.95,0.75c0.633,0.5,0.816,1.05,0.55,1.65c-0.333,0.733-1.5,1.483-3.5,2.25
			l-0.1-0.05c1.567-0.4,2.4-1.184,2.5-2.351C125.4,190.083,123.85,189.65,120.65,189.75z"/>
	</g>
	<g>
		<g>
			<path style="fill-rule:evenodd;clip-rule:evenodd;fill:#54585B;" d="M167.65,56.95c0.066,0.667-0.233,1.066-0.9,1.2
				c-0.667,0.167-0.983-0.133-0.95-0.9c0.134-0.8,0.467-1.15,1-1.05C167.333,56.267,167.616,56.517,167.65,56.95z"/>
		</g>
	</g>
	<g>
		<g>
			<path style="fill-rule:evenodd;clip-rule:evenodd;fill:#54585B;" d="M163.6,68.05c0,0.2-0.133,0.333-0.399,0.4
				c-0.267,0.033-0.384-0.117-0.351-0.45c0.167-0.333,0.351-0.45,0.551-0.35C163.533,67.75,163.6,67.883,163.6,68.05z"/>
		</g>
	</g>
	<g>
		<g>
			<path style="fill-rule:evenodd;clip-rule:evenodd;fill:#54585B;" d="M138.7,74c0,1.1-0.467,1.65-1.4,1.65
				c-0.934,0.033-1.316-0.417-1.149-1.35c0.166-1,0.633-1.45,1.399-1.35C138.25,73.05,138.634,73.4,138.7,74z"/>
		</g>
	</g>
	<g>
		<g>
			<path style="fill-rule:evenodd;clip-rule:evenodd;fill:#54585B;" d="M121.05,76.95c-0.2,0.566-0.466,0.75-0.8,0.55
				c-0.367-0.233-0.433-0.467-0.2-0.7c0.067-0.2,0.267-0.316,0.6-0.35C120.95,76.417,121.083,76.583,121.05,76.95z"/>
		</g>
	</g>
	<g>
		<g>
			<path style="fill-rule:evenodd;clip-rule:evenodd;fill:#54585B;" d="M95.1,86c0.167,0.4,0.117,0.633-0.15,0.7
				c-0.3,0.1-0.434,0.017-0.4-0.25c-0.1-0.133-0.066-0.284,0.1-0.45C94.783,85.8,94.933,85.8,95.1,86z"/>
		</g>
	</g>
	<g>
		<g>
			<path style="fill-rule:evenodd;clip-rule:evenodd;fill:#54585B;" d="M80.55,90.45c-0.033,0.733-0.3,1.066-0.8,1
				c-0.533-0.1-0.717-0.35-0.55-0.75c0.033-0.434,0.25-0.667,0.65-0.7C80.283,89.933,80.517,90.083,80.55,90.45z"/>
		</g>
	</g>
	<g>
		<g>
			<path style="fill-rule:evenodd;clip-rule:evenodd;fill:#54585B;" d="M119.6,46.5c0.066,0.4-0.067,0.633-0.4,0.7
				c-0.333,0.066-0.5-0.083-0.5-0.45c0-0.333,0.133-0.517,0.4-0.55C119.367,46.167,119.533,46.267,119.6,46.5z"/>
		</g>
	</g>
	<g>
		<g>
			<path style="fill-rule:evenodd;clip-rule:evenodd;fill:#54585B;" d="M110.3,41.55c0.233,0.767,0.05,1.233-0.55,1.4
				c-0.6,0.133-0.9-0.1-0.9-0.7c-0.1-0.467,0.066-0.8,0.5-1C109.783,41.017,110.1,41.117,110.3,41.55z"/>
		</g>
	</g>
	<g>
		<g>
			<path style="fill-rule:evenodd;clip-rule:evenodd;fill:#54585B;" d="M166.5,34.65c0.267,0.767,0.033,1.35-0.7,1.75
				c-0.767,0.4-1.25,0.083-1.45-0.95c-0.033-0.867,0.284-1.367,0.95-1.5C165.967,33.85,166.366,34.083,166.5,34.65z"/>
		</g>
	</g>
	<g>
		<g>
			<path style="fill-rule:evenodd;clip-rule:evenodd;fill:#54585B;" d="M163.25,47.65c0.066,0.3-0.033,0.483-0.3,0.55
				c-0.233,0.033-0.351-0.083-0.351-0.35c0-0.233,0.101-0.367,0.301-0.4C163.066,47.417,163.184,47.483,163.25,47.65z"/>
		</g>
	</g>
	<g>
		<g>
			<path style="fill-rule:evenodd;clip-rule:evenodd;fill:#54585B;" d="M157.6,57c0.067,0.4-0.066,0.633-0.399,0.7
				c-0.334,0.066-0.5-0.083-0.5-0.45c0-0.333,0.133-0.517,0.399-0.55C157.366,56.667,157.533,56.767,157.6,57z"/>
		</g>
	</g>
	<g>
		<g>
			<path style="fill-rule:evenodd;clip-rule:evenodd;fill:#54585B;" d="M153.75,46.4c0.267,0.767,0.033,1.35-0.7,1.75
				c-0.767,0.4-1.25,0.083-1.45-0.95c-0.033-0.867,0.284-1.367,0.95-1.5C153.217,45.6,153.616,45.833,153.75,46.4z"/>
		</g>
	</g>
	<g>
		<g>
			<path style="fill-rule:evenodd;clip-rule:evenodd;fill:#54585B;" d="M174.45,39.6c0.333,1.167,0.033,1.85-0.9,2.05
				c-0.934,0.233-1.399-0.133-1.399-1.1c-0.101-0.767,0.199-1.283,0.899-1.55S174.217,38.933,174.45,39.6z"/>
		</g>
	</g>
	<g>
		<g>
			<path style="fill-rule:evenodd;clip-rule:evenodd;fill:#54585B;" d="M161.1,81.6c0.167,1.333-0.333,2.117-1.5,2.35
				c-1.166,0.233-1.716-0.333-1.649-1.7c0.1-1.067,0.633-1.667,1.6-1.8C160.483,80.317,161,80.7,161.1,81.6z"/>
		</g>
	</g>
	<g>
		<g>
			<path style="fill-rule:evenodd;clip-rule:evenodd;fill:#54585B;" d="M132.35,92.85c0.167,1.2-0.184,1.816-1.05,1.85
				c-0.867,0-1.233-0.383-1.1-1.15c-0.034-0.566,0.25-1,0.85-1.3C131.683,91.95,132.117,92.15,132.35,92.85z"/>
		</g>
	</g>
	<g>
		<g>
			<path style="fill-rule:evenodd;clip-rule:evenodd;fill:#54585B;" d="M128.6,104.25c-0.033,0.366-0.067,0.667-0.1,0.9
				c-0.1,0.466-0.45,0.399-1.05-0.2c-0.1-0.601,0.033-0.934,0.4-1S128.467,103.983,128.6,104.25z"/>
		</g>
	</g>
	<g>
		<g>
			<path style="fill-rule:evenodd;clip-rule:evenodd;fill:#54585B;" d="M124.4,115.75c0.133,0.667-0.083,1.066-0.65,1.2
				c-0.567,0.133-0.85-0.117-0.85-0.75c0-0.601,0.233-0.934,0.7-1S124.333,115.316,124.4,115.75z"/>
		</g>
	</g>
	<g>
		<g>
			<path style="fill-rule:evenodd;clip-rule:evenodd;fill:#54585B;" d="M167.8,25.9c0.233,0.567,0.134,0.917-0.3,1.05
				c-0.467,0.1-0.7-0.067-0.7-0.5c-0.066-0.3,0.033-0.534,0.3-0.7C167.4,25.55,167.634,25.6,167.8,25.9z"/>
		</g>
	</g>
	<g>
		<g>
			<path style="fill-rule:evenodd;clip-rule:evenodd;fill:#54585B;" d="M135.4,2.35c0.033,0.2,0.05,0.383,0.05,0.55
				c0,0.333-0.25,0.367-0.75,0.1c-0.134-0.467-0.084-0.733,0.149-0.8C135.083,2.167,135.267,2.217,135.4,2.35z"/>
		</g>
	</g>
	<g>
		<g>
			<path style="fill-rule:evenodd;clip-rule:evenodd;fill:#54585B;" d="M110.7,50c0.133,0.267-0.017,0.567-0.45,0.9
				c-0.433,0.333-0.75,0.15-0.95-0.55c0.133-0.7,0.4-1,0.8-0.9C110.5,49.517,110.7,49.7,110.7,50z"/>
		</g>
	</g>
	<g>
		<g>
			<path style="fill-rule:evenodd;clip-rule:evenodd;fill:#54585B;" d="M106.9,33.35c0.033,0.2-0.033,0.316-0.2,0.35
				c-0.167,0.033-0.25-0.034-0.25-0.2s0.066-0.267,0.2-0.3C106.783,33.2,106.867,33.25,106.9,33.35z"/>
		</g>
	</g>
	<g>
		<g>
			<path style="fill-rule:evenodd;clip-rule:evenodd;fill:#54585B;" d="M108.65,25c0.133,0.667-0.083,1.067-0.65,1.2
				s-0.85-0.117-0.85-0.75c0-0.6,0.233-0.934,0.7-1C108.317,24.383,108.583,24.567,108.65,25z"/>
		</g>
	</g>
	<g>
		<g>
			<path style="fill-rule:evenodd;clip-rule:evenodd;fill:#54585B;" d="M154.65,19.95c0.233,0.233,0.25,0.483,0.05,0.75
				c-0.167,0.233-0.367,0.183-0.601-0.15c-0.133-0.167-0.116-0.35,0.051-0.55C154.316,19.8,154.483,19.783,154.65,19.95z"/>
		</g>
	</g>
	<g>
		<g>
			<path style="fill-rule:evenodd;clip-rule:evenodd;fill:#54585B;" d="M148.8,11.4c0.101,0.1,0.066,0.267-0.1,0.5
				c-0.167,0.233-0.351,0.184-0.55-0.15c-0.067-0.333,0.017-0.517,0.25-0.55C148.6,11.167,148.733,11.233,148.8,11.4z"/>
		</g>
	</g>
	<g>
		<g>
			<path style="fill-rule:evenodd;clip-rule:evenodd;fill:#54585B;" d="M172.75,48.05c0.233,0.267,0.233,0.55,0,0.85
				c-0.267,0.3-0.533,0.233-0.8-0.2c-0.134-0.3-0.066-0.55,0.2-0.75C172.384,47.783,172.583,47.817,172.75,48.05z"/>
		</g>
	</g>
	<g>
		<g>
			<path style="fill-rule:evenodd;clip-rule:evenodd;fill:#54585B;" d="M139.75,51.15c0.066,0.3-0.033,0.483-0.3,0.55
				c-0.233,0.033-0.351-0.083-0.351-0.35c0-0.233,0.101-0.367,0.301-0.4C139.566,50.917,139.684,50.983,139.75,51.15z"/>
		</g>
	</g>
	<g>
		<g>
			<path style="fill-rule:evenodd;clip-rule:evenodd;fill:#54585B;" d="M119.25,66.6c0.367,0.4,0.367,0.833,0,1.3
				s-0.75,0.367-1.15-0.3c-0.2-0.467-0.117-0.833,0.25-1.1C118.75,66.233,119.05,66.267,119.25,66.6z"/>
		</g>
	</g>
	<g>
		<g>
			<path style="fill-rule:evenodd;clip-rule:evenodd;fill:#54585B;" d="M112.4,79.1c-0.1,1.167-0.633,1.7-1.6,1.6
				c-0.966-0.1-1.3-0.617-1-1.55c0.233-0.867,0.733-1.267,1.5-1.2C112.067,78.017,112.433,78.4,112.4,79.1z"/>
		</g>
	</g>
	<g>
		<g>
			<path style="fill-rule:evenodd;clip-rule:evenodd;fill:#54585B;" d="M104.55,86.85c0.3,0.467,0.2,0.9-0.3,1.3
				c-0.467,0.367-0.85,0.217-1.15-0.45c-0.167-0.733,0-1.15,0.5-1.25C104.067,86.383,104.383,86.517,104.55,86.85z"/>
		</g>
	</g>
	<g>
		<g>
			<path style="fill-rule:evenodd;clip-rule:evenodd;fill:#54585B;" d="M104.6,78.1c0.033,0.7-0.4,1.133-1.3,1.3
				c-0.867,0.167-1.233-0.3-1.1-1.4c0.433-1,0.966-1.367,1.6-1.1S104.7,77.567,104.6,78.1z"/>
		</g>
	</g>
	<g>
		<g>
			<path style="fill-rule:evenodd;clip-rule:evenodd;fill:#54585B;" d="M138.45,82.8c0.333,0.733,0.184,1.267-0.45,1.6
				c-0.634,0.333-1.033,0.117-1.2-0.65c-0.133-0.533,0.05-0.95,0.55-1.25S138.217,82.3,138.45,82.8z"/>
		</g>
	</g>
	<g>
		<g>
			<path style="fill-rule:evenodd;clip-rule:evenodd;fill:#54585B;" d="M129.55,77.15c0.133,0.6-0.05,0.95-0.55,1.05
				c-0.5,0.1-0.75-0.117-0.75-0.65c0-0.5,0.2-0.783,0.6-0.85C129.25,76.633,129.483,76.783,129.55,77.15z"/>
		</g>
	</g>
	<g>
		<g>
			<path style="fill-rule:evenodd;clip-rule:evenodd;fill:#54585B;" d="M150.5,71.7c0.066,0.833-0.333,1.333-1.2,1.5
				c-0.866,0.167-1.233-0.267-1.1-1.3c0.233-0.9,0.684-1.3,1.35-1.2C150.217,70.767,150.533,71.1,150.5,71.7z"/>
		</g>
	</g>
	<g>
		<g>
			<path style="fill-rule:evenodd;clip-rule:evenodd;fill:#54585B;" d="M151.55,88.65c0.233,0.567,0.134,0.917-0.3,1.05
				c-0.467,0.1-0.7-0.067-0.7-0.5c-0.066-0.3,0.033-0.534,0.3-0.7C151.15,88.3,151.384,88.35,151.55,88.65z"/>
		</g>
	</g>
	<g>
		<g>
			<path style="fill-rule:evenodd;clip-rule:evenodd;fill:#54585B;" d="M175.2,83.7c0.2,0.466,0.05,0.867-0.45,1.2
				c-0.5,0.367-0.85,0.167-1.05-0.6c-0.033-0.667,0.184-1.033,0.649-1.1C174.816,83.133,175.1,83.3,175.2,83.7z"/>
		</g>
	</g>
	<g>
		<g>
			<path style="fill-rule:evenodd;clip-rule:evenodd;fill:#54585B;" d="M167.95,88.3c0.1,0.5-0.05,0.784-0.45,0.85
				c-0.434,0.1-0.65-0.066-0.65-0.5c0-0.4,0.167-0.633,0.5-0.7C167.684,87.917,167.884,88.033,167.95,88.3z"/>
		</g>
	</g>
	<g>
		<g>
			<path style="fill-rule:evenodd;clip-rule:evenodd;fill:#54585B;" d="M214.9,71.8c0.199,0.5,0.133,0.8-0.2,0.9
				c-0.4,0.1-0.584-0.034-0.55-0.4c-0.067-0.133,0-0.316,0.199-0.55C214.55,71.483,214.733,71.5,214.9,71.8z"/>
		</g>
	</g>
	<g>
		<g>
			<path style="fill-rule:evenodd;clip-rule:evenodd;fill:#54585B;" d="M217.95,81.65c0.066,0.3-0.033,0.483-0.3,0.55
				c-0.233,0.033-0.351-0.083-0.351-0.35c0-0.233,0.101-0.367,0.3-0.4C217.767,81.417,217.884,81.483,217.95,81.65z"/>
		</g>
	</g>
	<g>
		<g>
			<path style="fill-rule:evenodd;clip-rule:evenodd;fill:#54585B;" d="M206.05,72.95c-0.399,1.233-0.8,1.3-1.2,0.2
				c0.134-0.566,0.367-0.8,0.7-0.7C205.884,72.517,206.05,72.683,206.05,72.95z"/>
		</g>
	</g>
	<g>
		<g>
			<path style="fill-rule:evenodd;clip-rule:evenodd;fill:#54585B;" d="M189.85,80.75c0.067,0.633-0.216,1.033-0.85,1.2
				c-0.667,0.133-0.983-0.184-0.95-0.95c0.167-0.867,0.5-1.217,1-1.05C189.517,80.083,189.783,80.35,189.85,80.75z"/>
		</g>
	</g>
	<g>
		<g>
			<path style="fill-rule:evenodd;clip-rule:evenodd;fill:#54585B;" d="M181.65,80.05c0.199,0.133,0.216,0.333,0.05,0.6
				c-0.167,0.267-0.367,0.267-0.601,0c-0.199-0.4-0.183-0.633,0.051-0.7C181.316,79.917,181.483,79.95,181.65,80.05z"/>
		</g>
	</g>
	<g>
		<g>
			<path style="fill-rule:evenodd;clip-rule:evenodd;fill:#54585B;" d="M226.1,30.8c0.134,0.934-0.233,1.483-1.1,1.65
				c-0.866,0.133-1.233-0.284-1.1-1.25c0.066-0.733,0.433-1.15,1.1-1.25C225.667,29.85,226.033,30.133,226.1,30.8z"/>
		</g>
	</g>
	<g>
		<g>
			<path style="fill-rule:evenodd;clip-rule:evenodd;fill:#54585B;" d="M234.3,40.15c0.134,0.067,0.167,0.167,0.101,0.3
				c-0.101,0.1-0.184,0.1-0.25,0c-0.101-0.067-0.117-0.133-0.051-0.2C234.167,40.15,234.233,40.117,234.3,40.15z"/>
		</g>
	</g>
	<g>
		<g>
			<path style="fill-rule:evenodd;clip-rule:evenodd;fill:#54585B;" d="M216.45,37.4c0.333,0.667,0.25,1.083-0.25,1.25
				c-0.5,0.167-0.8,0.033-0.9-0.4c-0.166-0.433-0.066-0.767,0.3-1C215.934,36.983,216.217,37.033,216.45,37.4z"/>
		</g>
	</g>
	<g>
		<g>
			<path style="fill-rule:evenodd;clip-rule:evenodd;fill:#54585B;" d="M210.35,46.7c0.4,0.7,0.267,1.35-0.399,1.95
				c-0.667,0.6-1.217,0.367-1.65-0.7c-0.2-0.867,0.033-1.434,0.7-1.7S210.116,46.133,210.35,46.7z"/>
		</g>
	</g>
	<g>
		<g>
			<path style="fill-rule:evenodd;clip-rule:evenodd;fill:#54585B;" d="M206.95,56.15c-0.033,0.3-0.217,0.483-0.55,0.55
				c-0.334,0.066-0.483-0.117-0.45-0.55c0.133-0.367,0.333-0.517,0.6-0.45C206.816,55.767,206.95,55.917,206.95,56.15z"/>
		</g>
	</g>
	<g>
		<g>
			<path style="fill-rule:evenodd;clip-rule:evenodd;fill:#54585B;" d="M199.05,65c0.066,0.4-0.066,0.633-0.399,0.7
				c-0.334,0.066-0.5-0.083-0.5-0.45c0-0.333,0.133-0.517,0.399-0.55C198.816,64.667,198.983,64.767,199.05,65z"/>
		</g>
	</g>
	<g>
		<g>
			<path style="fill-rule:evenodd;clip-rule:evenodd;fill:#54585B;" d="M188.6,70c0.067,0.4-0.066,0.633-0.399,0.7
				c-0.334,0.066-0.5-0.083-0.5-0.45c0-0.333,0.133-0.517,0.399-0.55C188.366,69.667,188.533,69.767,188.6,70z"/>
		</g>
	</g>
	<g>
		<g>
			<path style="fill-rule:evenodd;clip-rule:evenodd;fill:#54585B;" d="M240.4,52.3c0.1,0.5-0.051,0.784-0.45,0.85
				c-0.434,0.1-0.65-0.066-0.65-0.5c0-0.4,0.167-0.633,0.5-0.7C240.134,51.917,240.333,52.033,240.4,52.3z"/>
		</g>
	</g>
	<g>
		<g>
			<path style="fill-rule:evenodd;clip-rule:evenodd;fill:#54585B;" d="M255.4,65.05c0.1,0.1,0.1,0.233,0,0.4
				c-0.101,0.133-0.233,0.1-0.4-0.1c-0.1-0.233-0.066-0.367,0.1-0.4C255.233,64.95,255.333,64.983,255.4,65.05z"/>
		</g>
	</g>
	<g>
		<g>
			<path style="fill-rule:evenodd;clip-rule:evenodd;fill:#54585B;" d="M228.6,37.7c0.101,0.2,0.034,0.433-0.199,0.7
				c-0.2,0.3-0.417,0.217-0.65-0.25c-0.066-0.433,0.05-0.667,0.35-0.7C228.366,37.383,228.533,37.467,228.6,37.7z"/>
		</g>
	</g>
	<g>
		<g>
			<path style="fill-rule:evenodd;clip-rule:evenodd;fill:#54585B;" d="M219.4,30.5c0.133,0.267-0.017,0.567-0.45,0.9
				c-0.434,0.333-0.75,0.15-0.95-0.55c0.134-0.7,0.4-1,0.8-0.9C219.2,30.017,219.4,30.2,219.4,30.5z"/>
		</g>
	</g>
	<g>
		<g>
			<path style="fill-rule:evenodd;clip-rule:evenodd;fill:#54585B;" d="M120.6,129.55c0.233,0.2,0.267,0.417,0.1,0.65
				c-0.167,0.2-0.35,0.184-0.55-0.05c-0.033-0.233-0.05-0.4-0.05-0.5C120.133,129.45,120.3,129.417,120.6,129.55z"/>
		</g>
	</g>
	<g>
		<g>
			<path style="fill-rule:evenodd;clip-rule:evenodd;fill:#54585B;" d="M115.7,136.75c0.267,0.434,0.183,0.816-0.25,1.15
				c-0.4,0.333-0.733,0.233-1-0.301c-0.167-0.666-0.034-1.033,0.4-1.1C115.217,136.4,115.5,136.483,115.7,136.75z"/>
		</g>
	</g>
	<g>
		<g>
			<path style="fill-rule:evenodd;clip-rule:evenodd;fill:#54585B;" d="M124.55,122.15c0.1,0.1,0.067,0.267-0.1,0.5
				c-0.167,0.233-0.35,0.183-0.55-0.15c-0.066-0.333,0.017-0.517,0.25-0.55C124.35,121.917,124.483,121.983,124.55,122.15z"/>
		</g>
	</g>
	<g>
		<g>
			<path style="fill-rule:evenodd;clip-rule:evenodd;fill:#54585B;" d="M128.55,87.9c0.1,0.1,0.067,0.267-0.1,0.5
				c-0.167,0.233-0.35,0.184-0.55-0.15c-0.066-0.333,0.017-0.517,0.25-0.55C128.35,87.667,128.483,87.733,128.55,87.9z"/>
		</g>
	</g>
	<g>
		<g>
			<path style="fill-rule:evenodd;clip-rule:evenodd;fill:#54585B;" d="M171.35,65.95c-0.399,1.233-0.8,1.3-1.199,0.2
				c0.133-0.566,0.366-0.8,0.699-0.7C171.184,65.517,171.35,65.683,171.35,65.95z"/>
		</g>
	</g>
	<g>
		<g>
			<path style="fill-rule:evenodd;clip-rule:evenodd;fill:#54585B;" d="M110.85,157.6c0.033,0.7-0.4,1.134-1.3,1.301
				c-0.867,0.166-1.233-0.301-1.1-1.4c0.433-1,0.966-1.366,1.6-1.1S110.95,157.066,110.85,157.6z"/>
		</g>
	</g>
	<g>
		<g>
			<path style="fill-rule:evenodd;clip-rule:evenodd;fill:#54585B;" d="M105.05,179.8c0.267,0.267,0.167,0.7-0.3,1.3
				c-0.433,0.601-0.917,0.467-1.45-0.399c-0.066-1.066,0.184-1.566,0.75-1.5C104.55,179.233,104.883,179.434,105.05,179.8z"/>
		</g>
	</g>
	<g>
		<g>
			<path style="fill-rule:evenodd;clip-rule:evenodd;fill:#54585B;" d="M104.9,189.2c0.233,0.233,0.25,0.483,0.05,0.75
				c-0.167,0.233-0.367,0.184-0.6-0.15c-0.133-0.166-0.117-0.35,0.05-0.55C104.567,189.05,104.733,189.033,104.9,189.2z"/>
		</g>
	</g>
	<g>
		<g>
			<path style="fill-rule:evenodd;clip-rule:evenodd;fill:#54585B;" d="M105.45,169.95c0.3,0.5,0.233,0.899-0.2,1.2
				c-0.433,0.333-0.767,0.199-1-0.4c-0.133-0.434-0.017-0.767,0.35-1S105.25,169.583,105.45,169.95z"/>
		</g>
	</g>
	<g>
		<g>
			<path style="fill-rule:evenodd;clip-rule:evenodd;fill:#54585B;" d="M113.4,144.35c0.033,0.2-0.033,0.317-0.2,0.351
				c-0.167,0.033-0.25-0.033-0.25-0.2s0.066-0.267,0.2-0.3C113.283,144.2,113.367,144.25,113.4,144.35z"/>
		</g>
	</g>
	<g>
		<g>
			<path style="fill-rule:evenodd;clip-rule:evenodd;fill:#54585B;" d="M119.55,134.65c0.1,0.1,0.067,0.267-0.1,0.5
				c-0.167,0.233-0.35,0.183-0.55-0.15c-0.066-0.333,0.017-0.517,0.25-0.55C119.35,134.417,119.483,134.483,119.55,134.65z"/>
		</g>
	</g>
	<g>
		<g>
			<path style="fill-rule:evenodd;clip-rule:evenodd;fill:#54585B;" d="M113.1,150.5c0.167,0.4,0.117,0.634-0.15,0.7
				c-0.3,0.1-0.434,0.017-0.4-0.25c-0.1-0.134-0.066-0.283,0.1-0.45C112.783,150.3,112.933,150.3,113.1,150.5z"/>
		</g>
	</g>
	<g>
		<g>
			<path style="fill-rule:evenodd;clip-rule:evenodd;fill:#54585B;" d="M115.3,196c0.434,0.2,0.567,0.5,0.4,0.9
				c-0.167,0.399-0.434,0.466-0.8,0.199s-0.45-0.55-0.25-0.85C114.85,195.95,115.067,195.866,115.3,196z"/>
		</g>
	</g>
	<g>
		<g>
			<path style="fill-rule:evenodd;clip-rule:evenodd;fill:#54585B;" d="M122.3,197c0.333,0.634,0.2,0.816-0.4,0.55
				c-0.2-0.366-0.2-0.566,0-0.6C122,196.95,122.133,196.967,122.3,197z"/>
		</g>
	</g>
	<g>
		<g>
			<path style="fill-rule:evenodd;clip-rule:evenodd;fill:#54585B;" d="M110.7,193.2c0.466,0.133,0.633,0.366,0.5,0.7
				c-0.167,0.333-0.383,0.433-0.65,0.3c-0.433-0.233-0.566-0.467-0.4-0.7C110.283,193.267,110.467,193.167,110.7,193.2z"/>
		</g>
	</g>
	<g>
		<g>
			<path style="fill-rule:evenodd;clip-rule:evenodd;fill:#54585B;" d="M102.15,184.55c0.3,0.3,0.25,0.417-0.15,0.351
				c-0.033-0.034-0.05-0.084-0.05-0.15C101.917,184.583,101.983,184.517,102.15,184.55z"/>
		</g>
	</g>
	<g>
		<g>
			<path style="fill-rule:evenodd;clip-rule:evenodd;fill:#54585B;" d="M108.95,162.95c0.167,0.233,0.167,0.399,0,0.5
				c-0.2,0.066-0.317,0.017-0.35-0.15c-0.067-0.1-0.05-0.217,0.05-0.35C108.75,162.85,108.85,162.85,108.95,162.95z"/>
		</g>
	</g>
	<g>
		<g>
			<path style="fill-rule:evenodd;clip-rule:evenodd;fill:#54585B;" d="M128.75,192.6c0,0.334-0.183,0.534-0.55,0.601
				c-0.333,0.066-0.467-0.117-0.4-0.55c0.067-0.267,0.25-0.417,0.55-0.45C128.683,192.167,128.817,192.3,128.75,192.6z"/>
		</g>
	</g>
	<g>
		<g>
			<path style="fill-rule:evenodd;clip-rule:evenodd;fill:#54585B;" d="M140.25,96.55c0.2,0.5,0.116,0.8-0.25,0.9
				c-0.4,0.1-0.583-0.034-0.55-0.4c-0.033-0.2,0.033-0.4,0.2-0.6C139.816,96.25,140.017,96.283,140.25,96.55z"/>
		</g>
	</g>
	<g>
		<g>
			<path style="fill-rule:evenodd;clip-rule:evenodd;fill:#54585B;" d="M138.75,101.65c0.066,0.3-0.033,0.483-0.3,0.55
				c-0.233,0.033-0.351-0.084-0.351-0.351c0-0.233,0.101-0.366,0.301-0.399C138.566,101.417,138.684,101.483,138.75,101.65z"/>
		</g>
	</g>
	<g>
		<g>
			<path style="fill-rule:evenodd;clip-rule:evenodd;fill:#54585B;" d="M129.45,120.9c0.066,0.733-0.233,1.166-0.9,1.3
				c-0.7,0.1-1-0.25-0.9-1.05c0.067-0.567,0.383-0.884,0.95-0.95C129.133,120.134,129.417,120.366,129.45,120.9z"/>
		</g>
	</g>
	<g>
		<g>
			<path style="fill-rule:evenodd;clip-rule:evenodd;fill:#54585B;" d="M121.25,141.4c0.067,0.3-0.033,0.483-0.3,0.55
				c-0.233,0.033-0.35-0.084-0.35-0.351c0-0.233,0.1-0.366,0.3-0.399C121.067,141.167,121.183,141.233,121.25,141.4z"/>
		</g>
	</g>
	<g>
		<g>
			<path style="fill-rule:evenodd;clip-rule:evenodd;fill:#54585B;" d="M141.9,98.3c0.3,0.3,0.25,0.417-0.15,0.35
				c-0.033-0.033-0.05-0.083-0.05-0.15C141.667,98.333,141.733,98.267,141.9,98.3z"/>
		</g>
	</g>
	<g>
		<g>
			<path style="fill-rule:evenodd;clip-rule:evenodd;fill:#54585B;" d="M136.6,105.7c0.167,0.2,0.051,0.434-0.35,0.7
				c-0.366,0.267-0.634,0.116-0.8-0.45c0.133-0.7,0.35-0.95,0.649-0.75C136.267,105.3,136.434,105.467,136.6,105.7z"/>
		</g>
	</g>
	<g>
		<g>
			<path style="fill-rule:evenodd;clip-rule:evenodd;fill:#54585B;" d="M21.6,85.65c0.4,0.4,0.433,0.733,0.1,1
				c-0.3,0.267-0.567,0.233-0.8-0.1c-0.233-0.267-0.233-0.533,0-0.8C21.1,85.483,21.333,85.45,21.6,85.65z"/>
		</g>
	</g>
	<g>
		<g>
			<path style="fill-rule:evenodd;clip-rule:evenodd;fill:#54585B;" d="M23.95,77.85c0.333,0.233,0.417,0.5,0.25,0.8
				c-0.2,0.3-0.434,0.317-0.7,0.05c-0.233-0.233-0.267-0.467-0.1-0.7C23.567,77.767,23.75,77.717,23.95,77.85z"/>
		</g>
	</g>
	<g>
		<g>
			<path style="fill-rule:evenodd;clip-rule:evenodd;fill:#54585B;" d="M36.05,68.15c0.233,0.133,0.284,0.3,0.15,0.5
				c-0.133,0.2-0.284,0.217-0.45,0.05c-0.167-0.167-0.2-0.333-0.1-0.5C35.75,68.067,35.883,68.05,36.05,68.15z"/>
		</g>
	</g>
	<g>
		<g>
			<path style="fill-rule:evenodd;clip-rule:evenodd;fill:#54585B;" d="M51.5,82.1c1,0.8,1.167,1.7,0.5,2.7c-0.633,1-1.417,1-2.35,0
				c-0.733-0.966-0.767-1.8-0.1-2.5C50.217,81.6,50.867,81.533,51.5,82.1z"/>
		</g>
	</g>
	<g>
		<g>
			<path style="fill-rule:evenodd;clip-rule:evenodd;fill:#54585B;" d="M62.55,91.05c0.367,0.167,0.5,0.45,0.4,0.85
				c-0.133,0.4-0.417,0.467-0.85,0.2c-0.333-0.3-0.4-0.583-0.2-0.85C62.1,90.983,62.317,90.917,62.55,91.05z"/>
		</g>
	</g>
	<g>
		<g>
			<path style="fill-rule:evenodd;clip-rule:evenodd;fill:#54585B;" d="M71.05,93.25c0.3,0.4,0.2,0.867-0.3,1.4
				c-0.5,0.5-0.967,0.35-1.4-0.45c-0.1-1.067,0.133-1.567,0.7-1.5C70.583,92.733,70.917,92.917,71.05,93.25z"/>
		</g>
	</g>
	<g>
		<g>
			<path style="fill-rule:evenodd;clip-rule:evenodd;fill:#54585B;" d="M44,71.55c0.167,0.767-0.067,1.233-0.7,1.4
				c-0.667,0.133-1-0.167-1-0.9c0-0.633,0.267-0.983,0.8-1.05C43.633,70.9,43.933,71.083,44,71.55z"/>
		</g>
	</g>
	<g>
		<g>
			<path style="fill-rule:evenodd;clip-rule:evenodd;fill:#54585B;" d="M27.1,72.6c0.2,0.033,0.3,0.217,0.3,0.55
				c0.033,0.3-0.167,0.367-0.6,0.2c-0.267-0.2-0.316-0.4-0.15-0.6C26.783,72.55,26.933,72.5,27.1,72.6z"/>
		</g>
	</g>
	<g>
		<g>
			<path style="fill-rule:evenodd;clip-rule:evenodd;fill:#54585B;" d="M11.7,52.35c0.133,0.033,0.216,0.15,0.25,0.35
				c0,0.167-0.117,0.216-0.35,0.15c-0.233-0.133-0.3-0.267-0.2-0.4C11.5,52.35,11.6,52.317,11.7,52.35z"/>
		</g>
	</g>
	<g>
		<g>
			<path style="fill-rule:evenodd;clip-rule:evenodd;fill:#54585B;" d="M16.4,54.2c0.333,0.167,0.434,0.483,0.3,0.95
				c-0.133,0.434-0.467,0.483-1,0.15c-0.367-0.466-0.4-0.816-0.1-1.05C15.933,54.017,16.2,54,16.4,54.2z"/>
		</g>
	</g>
	<g>
		<g>
			<path style="fill-rule:evenodd;clip-rule:evenodd;fill:#54585B;" d="M31.55,47.4c0.733,0.133,1.034,0.45,0.9,0.95
				c-0.133,0.533-0.45,0.683-0.95,0.45c-0.333-0.066-0.517-0.316-0.55-0.75C30.883,47.583,31.083,47.367,31.55,47.4z"/>
		</g>
	</g>
	<g>
		<g>
			<path style="fill-rule:evenodd;clip-rule:evenodd;fill:#54585B;" d="M46.95,34.15c0.1,1.067-0.184,1.2-0.85,0.4
				c-0.067-0.233,0.017-0.417,0.25-0.55C46.617,33.833,46.817,33.883,46.95,34.15z"/>
		</g>
	</g>
	<g>
		<g>
			<path style="fill-rule:evenodd;clip-rule:evenodd;fill:#54585B;" d="M39.55,37.6c0.233,0.167,0.284,0.367,0.15,0.6
				c-0.167,0.2-0.333,0.183-0.5-0.05c-0.034-0.167-0.05-0.3-0.05-0.4C39.15,37.517,39.283,37.467,39.55,37.6z"/>
		</g>
	</g>
	<g>
		<g>
			<path style="fill-rule:evenodd;clip-rule:evenodd;fill:#54585B;" d="M81.8,75.75c0.733-0.933,1.633-1.067,2.7-0.4
				c1.067,0.667,1.083,1.5,0.05,2.5c-1.3,0.833-2.233,0.833-2.8,0C81.25,77.017,81.267,76.317,81.8,75.75z"/>
		</g>
	</g>
	<g>
		<g>
			<path style="fill-rule:evenodd;clip-rule:evenodd;fill:#54585B;" d="M90.7,78.4c0.333-0.2,0.466-0.083,0.4,0.35
				c-0.267,0.133-0.4,0.133-0.4,0C90.7,78.55,90.7,78.433,90.7,78.4z"/>
		</g>
	</g>
	<g>
		<g>
			<path style="fill-rule:evenodd;clip-rule:evenodd;fill:#54585B;" d="M77.05,69.85c0.5-0.4,0.934-0.383,1.3,0.05
				c0.367,0.434,0.283,0.783-0.25,1.05c-0.5,0.233-0.883,0.167-1.15-0.2C76.683,70.383,76.717,70.083,77.05,69.85z"/>
		</g>
	</g>
	<g>
		<g>
			<path style="fill-rule:evenodd;clip-rule:evenodd;fill:#54585B;" d="M84.15,81.4c1.1-0.1,1.317,0.2,0.65,0.9
				c-0.533,0.133-0.833,0.034-0.9-0.3C83.833,81.667,83.917,81.467,84.15,81.4z"/>
		</g>
	</g>
	<g>
		<g>
			<path style="fill-rule:evenodd;clip-rule:evenodd;fill:#54585B;" d="M73.35,62.55c0.367-0.2,0.717-0.083,1.05,0.35
				c0.3,0.4,0.133,0.7-0.5,0.9c-0.566,0.067-0.883-0.117-0.95-0.55C72.85,62.85,72.983,62.617,73.35,62.55z"/>
		</g>
	</g>
	<g>
		<g>
			<path style="fill-rule:evenodd;clip-rule:evenodd;fill:#54585B;" d="M70.95,68.45c0.667-0.4,1.3-0.267,1.9,0.4
				c0.6,0.667,0.367,1.217-0.7,1.65c-0.833,0.2-1.4-0.033-1.7-0.7C70.183,69.133,70.35,68.683,70.95,68.45z"/>
		</g>
	</g>
	<g>
		<g>
			<path style="fill-rule:evenodd;clip-rule:evenodd;fill:#54585B;" d="M95.65,76.75c0.067-0.1,0.15-0.117,0.25-0.05
				c0.1,0.066,0.1,0.133,0,0.2c-0.066,0.1-0.133,0.117-0.2,0.05C95.6,76.883,95.583,76.817,95.65,76.75z"/>
		</g>
	</g>
	<g>
		<g>
			<path style="fill-rule:evenodd;clip-rule:evenodd;fill:#54585B;" d="M69.65,55.35c0.7-0.3,0.867-0.167,0.5,0.4
				c-0.133,0.1-0.283,0.083-0.45-0.05C69.533,55.6,69.517,55.483,69.65,55.35z"/>
		</g>
	</g>
	<g>
		<g>
			<path style="fill-rule:evenodd;clip-rule:evenodd;fill:#54585B;" d="M68,60.6c0.433-0.533,0.95-0.6,1.55-0.2
				c0.633,0.4,0.633,0.883,0,1.45c-0.767,0.467-1.3,0.45-1.6-0.05C67.683,61.333,67.7,60.933,68,60.6z"/>
		</g>
	</g>
	<g>
		<g>
			<path style="fill-rule:evenodd;clip-rule:evenodd;fill:#54585B;" d="M73.1,57.8c0.367-0.566,0.617-0.7,0.75-0.4
				c0.066,0.133,0.083,0.3,0.05,0.5c0,0.167-0.15,0.267-0.45,0.3C73.183,58.233,73.067,58.1,73.1,57.8z"/>
		</g>
	</g>
	<g>
		<g>
			<path style="fill-rule:evenodd;clip-rule:evenodd;fill:#54585B;" d="M64.55,40.1c0.1-0.533,0.367-0.75,0.8-0.65
				c0.433,0.066,0.583,0.316,0.45,0.75c-0.267,0.533-0.55,0.716-0.85,0.55C64.717,40.583,64.583,40.367,64.55,40.1z"/>
		</g>
	</g>
	<g>
		<g>
			<path style="fill-rule:evenodd;clip-rule:evenodd;fill:#54585B;" d="M67.1,47.15c0.433-0.4,0.933-0.4,1.5,0
				c0.533,0.4,0.467,0.85-0.2,1.35c-0.7,0.333-1.183,0.267-1.45-0.2C66.717,47.8,66.767,47.417,67.1,47.15z"/>
		</g>
	</g>
	<g>
		<g>
			<path style="fill-rule:evenodd;clip-rule:evenodd;fill:#54585B;" d="M57.35,34.5c0.6-0.567,1.1-0.617,1.5-0.15
				c0.433,0.5,0.367,0.883-0.2,1.15c-0.367,0.3-0.75,0.3-1.15,0C57.067,35.2,57.017,34.867,57.35,34.5z"/>
		</g>
	</g>
	<g>
		<g>
			<path style="fill-rule:evenodd;clip-rule:evenodd;fill:#54585B;" d="M207.85,54.65c0.301-0.066,0.467,0.017,0.5,0.25
				c0.067,0.267-0.033,0.4-0.3,0.4s-0.416-0.1-0.45-0.3C207.566,54.8,207.65,54.683,207.85,54.65z"/>
		</g>
	</g>
	<g>
		<g>
			<path style="fill-rule:evenodd;clip-rule:evenodd;fill:#54585B;" d="M194.3,68.85c0.2,0.033,0.3,0.217,0.3,0.55
				c0.034,0.3-0.166,0.367-0.6,0.2c-0.267-0.2-0.316-0.4-0.15-0.6C193.983,68.8,194.134,68.75,194.3,68.85z"/>
		</g>
	</g>
	<g>
		<g>
			<path style="fill-rule:evenodd;clip-rule:evenodd;fill:#54585B;" d="M235.1,43.1c0.034,0.2-0.033,0.316-0.199,0.35
				c-0.167,0.033-0.25-0.034-0.25-0.2s0.066-0.267,0.199-0.3C234.983,42.95,235.066,43,235.1,43.1z"/>
		</g>
	</g>
	<g>
		<g>
			<path style="fill-rule:evenodd;clip-rule:evenodd;fill:#54585B;" d="M95,60.75c-0.467-1.133-0.283-1.817,0.55-2.05
				c0.833-0.267,1.3-0.017,1.4,0.75c0.267,0.733,0.1,1.283-0.5,1.65C95.817,61.433,95.333,61.317,95,60.75z"/>
		</g>
	</g>
	<g>
		<g>
			<path style="fill-rule:evenodd;clip-rule:evenodd;fill:#54585B;" d="M94.6,52.6c-0.3-0.3-0.3-0.667,0-1.1
				c0.3-0.433,0.65-0.367,1.05,0.2c0.2,0.5,0.117,0.85-0.25,1.05S94.767,52.9,94.6,52.6z"/>
		</g>
	</g>
	<g>
		<g>
			<path style="fill-rule:evenodd;clip-rule:evenodd;fill:#54585B;" d="M87.6,44.1c-0.1-0.8,0.117-1.184,0.65-1.15
				c0.567,0.033,0.783,0.267,0.65,0.7c0.033,0.333-0.133,0.583-0.5,0.75C88,44.6,87.733,44.5,87.6,44.1z"/>
		</g>
	</g>
	<g>
		<g>
			<path style="fill-rule:evenodd;clip-rule:evenodd;fill:#54585B;" d="M91.95,44.75c0.2-0.6,0.533-0.817,1-0.65
				c0.466,0.167,0.583,0.467,0.35,0.9c-0.2,0.433-0.5,0.583-0.9,0.45C92.033,45.35,91.883,45.117,91.95,44.75z"/>
		</g>
	</g>
	<g>
		<g>
			<path style="fill-rule:evenodd;clip-rule:evenodd;fill:#54585B;" d="M89.55,50.15C89.65,50.017,89.8,50,90,50.1
				c0.167,0.1,0.15,0.233-0.05,0.4c-0.267,0.133-0.417,0.133-0.45,0C89.467,50.333,89.483,50.217,89.55,50.15z"/>
		</g>
	</g>
	<g>
		<g>
			<path style="fill-rule:evenodd;clip-rule:evenodd;fill:#54585B;" d="M79,14.2c-0.267-0.3-0.283-0.483-0.05-0.55
				c0.333-0.1,0.45-0.066,0.35,0.1c-0.066-0.033-0.066,0.017,0,0.15C79.4,14.1,79.3,14.2,79,14.2z"/>
		</g>
	</g>
	<g>
		<g>
			<path style="fill-rule:evenodd;clip-rule:evenodd;fill:#54585B;" d="M85.55,26.9c0.3-0.467,0.65-0.566,1.05-0.3
				c0.4,0.233,0.417,0.533,0.05,0.9c-0.3,0.333-0.6,0.383-0.9,0.15C85.417,27.417,85.35,27.167,85.55,26.9z"/>
		</g>
	</g>
	<g>
		<g>
			<path style="fill-rule:evenodd;clip-rule:evenodd;fill:#54585B;" d="M86.9,35.75c0.833,0.2,0.934,0.45,0.3,0.75
				c-0.333,0-0.5-0.117-0.5-0.35C86.667,35.95,86.733,35.817,86.9,35.75z"/>
		</g>
	</g>
	<g>
		<g>
			<path style="fill-rule:evenodd;clip-rule:evenodd;fill:#54585B;" d="M83.95,19.25c0.133-0.233,0.3-0.283,0.5-0.15
				c0.2,0.133,0.216,0.283,0.05,0.45c-0.167,0.167-0.333,0.2-0.5,0.1C83.867,19.517,83.85,19.383,83.95,19.25z"/>
		</g>
	</g>
	<g>
		<g>
			<path style="fill-rule:evenodd;clip-rule:evenodd;fill:#54585B;" d="M73.05,16.4c-0.4,0.067-0.633-0.066-0.7-0.4
				c-0.1-0.333,0.033-0.5,0.4-0.5c0.333,0,0.517,0.133,0.55,0.4C73.367,16.167,73.283,16.333,73.05,16.4z"/>
		</g>
	</g>
	<g>
		<g>
			<path style="fill-rule:evenodd;clip-rule:evenodd;fill:#54585B;" d="M67.5,19.65c-0.2,0.033-0.317-0.017-0.35-0.15
				c0-0.167,0.083-0.25,0.25-0.25c0.167,0,0.267,0.067,0.3,0.2C67.7,19.55,67.633,19.617,67.5,19.65z"/>
		</g>
	</g>
	<g>
		<g>
			<path style="fill-rule:evenodd;clip-rule:evenodd;fill:#54585B;" d="M54.15,26.75c1.3,0.333,1.434,0.75,0.4,1.25
				c-0.633-0.067-0.917-0.283-0.85-0.65C53.733,26.983,53.883,26.783,54.15,26.75z"/>
		</g>
	</g>
	<g>
		<g>
			<path style="fill-rule:evenodd;clip-rule:evenodd;fill:#54585B;" d="M181.65,57.3c0.699-0.533,1.283-0.5,1.75,0.1
				c0.5,0.567,0.383,1.033-0.351,1.4c-0.666,0.333-1.166,0.25-1.5-0.25C181.217,58.05,181.25,57.633,181.65,57.3z"/>
		</g>
	</g>
	<g>
		<g>
			<path style="fill-rule:evenodd;clip-rule:evenodd;fill:#54585B;" d="M181.05,62.65c0.267-0.1,0.417-0.066,0.45,0.1
				c0.033,0.2-0.033,0.3-0.2,0.3c-0.066,0.034-0.149,0-0.25-0.1C180.917,62.85,180.917,62.75,181.05,62.65z"/>
		</g>
	</g>
	<g>
		<g>
			<path style="fill-rule:evenodd;clip-rule:evenodd;fill:#54585B;" d="M185.25,48.65c0.467-0.767,1.017-0.967,1.65-0.6
				c0.633,0.4,0.699,0.883,0.199,1.45s-1,0.683-1.5,0.35C185.1,49.517,184.983,49.117,185.25,48.65z"/>
		</g>
	</g>
	<g>
		<g>
			<path style="fill-rule:evenodd;clip-rule:evenodd;fill:#54585B;" d="M189.4,34.25c0.166-0.133,0.333-0.083,0.5,0.15
				c0.199,0.233,0.133,0.434-0.2,0.6c-0.5,0-0.684-0.1-0.55-0.3C189.35,34.467,189.434,34.317,189.4,34.25z"/>
		</g>
	</g>
	<g>
		<g>
			<path style="fill-rule:evenodd;clip-rule:evenodd;fill:#54585B;" d="M189.85,40.05c0.467-0.3,0.767-0.283,0.9,0.05
				c0.134,0.333,0.083,0.55-0.15,0.65c-0.333,0.2-0.583,0.167-0.75-0.1C189.684,40.417,189.684,40.217,189.85,40.05z"/>
		</g>
	</g>
	<g>
		<g>
			<path style="fill-rule:evenodd;clip-rule:evenodd;fill:#54585B;" d="M190.85,19.25c0.4-0.433,0.75-0.5,1.051-0.2
				c0.267,0.333,0.25,0.617-0.051,0.85c-0.3,0.267-0.583,0.3-0.85,0.1S190.684,19.55,190.85,19.25z"/>
		</g>
	</g>
	<g>
		<g>
			<path style="fill-rule:evenodd;clip-rule:evenodd;fill:#54585B;" d="M191.65,25.8c0.3-0.2,0.55-0.167,0.75,0.1
				c0.233,0.267,0.166,0.5-0.2,0.7c-0.434,0.1-0.684,0.017-0.75-0.25C191.384,26.05,191.45,25.867,191.65,25.8z"/>
		</g>
	</g>
	<g>
		<g>
			<path style="fill-rule:evenodd;clip-rule:evenodd;fill:#54585B;" d="M194.35,5.8c0.534-0.3,0.95-0.216,1.25,0.25
				c0.267,0.467,0.134,0.784-0.399,0.95c-0.5,0.167-0.851,0.067-1.05-0.3C193.95,6.333,194.017,6.033,194.35,5.8z"/>
		</g>
	</g>
	<g>
		<g>
			<path style="fill-rule:evenodd;clip-rule:evenodd;fill:#54585B;" d="M192.05,12.25c0.167-0.167,0.351-0.167,0.55,0
				c0.2,0.133,0.15,0.3-0.149,0.5c-0.2,0.1-0.367,0.067-0.5-0.1C191.85,12.483,191.884,12.35,192.05,12.25z"/>
		</g>
	</g>
	<g>
		<g>
			<path style="fill-rule:evenodd;clip-rule:evenodd;fill:#54585B;" d="M199.85,6.8c0.334-0.066,0.534,0.083,0.601,0.45
				c0.066,0.333-0.101,0.483-0.5,0.45c-0.434-0.1-0.601-0.267-0.5-0.5C199.517,6.933,199.65,6.8,199.85,6.8z"/>
		</g>
	</g>
	<g>
		<g>
			<path style="fill-rule:evenodd;clip-rule:evenodd;fill:#54585B;" d="M205.2,11.95c0.333-0.067,0.517,0.033,0.55,0.3
				c0.066,0.267-0.05,0.4-0.35,0.4c-0.267,0-0.417-0.117-0.45-0.35C204.917,12.1,205,11.983,205.2,11.95z"/>
		</g>
	</g>
	<g>
		<g>
			<path style="fill-rule:evenodd;clip-rule:evenodd;fill:#54585B;" d="M208.85,13.1c0.301-0.067,0.5,0.033,0.601,0.3
				c0.066,0.267-0.05,0.4-0.351,0.4c-0.267,0-0.433-0.117-0.5-0.35C208.566,13.25,208.65,13.133,208.85,13.1z"/>
		</g>
	</g>
	<path style="fill-rule:evenodd;clip-rule:evenodd;fill:#696F71;" d="M99.55,30.95l0.95,1.45c0.733,1.067,1.35,1.8,1.85,2.2
		c0.767,0.667,1.367,1.45,1.8,2.35h-2.65c-0.433-0.534-0.85-1.2-1.25-2C99.483,33.417,99.25,32.083,99.55,30.95z"/>
	<g>
		<path style="fill-rule:evenodd;clip-rule:evenodd;fill:#696F71;" d="M113.65,51.95l5.35,4.4l-4.35,4.35l-1.05,0.35
			c2.2-2.733,3.217-4.483,3.05-5.25c-0.1-0.5-0.733-1.267-1.9-2.3L113,52.1L113.65,51.95z"/>
		<path style="fill-rule:evenodd;clip-rule:evenodd;fill:#CDD1D2;" d="M113.65,51.95l7.5,4.25l-6.5,4.5l1.55-1.6
			c1-1.267,1.4-2.317,1.2-3.15c-0.2-0.833-0.883-1.75-2.05-2.75L113.65,51.95z"/>
	</g>
	<g>
		<polygon style="fill-rule:evenodd;clip-rule:evenodd;fill:#696F71;" points="125.15,52.95 129.65,58.2 128.5,58.55 124.35,53.3 		
			"/>
		<polygon style="fill-rule:evenodd;clip-rule:evenodd;fill:#696F71;" points="129.5,59.05 131,59.35 129.4,67.7 128.85,66.8 		"/>
		<polygon style="fill-rule:evenodd;clip-rule:evenodd;fill:#696F71;" points="131.65,60.2 132.85,59.7 136.9,66.95 135.9,66.7 		
			"/>
		<polygon style="fill-rule:evenodd;clip-rule:evenodd;fill:#696F71;" points="132.4,49.7 131,57.55 129.5,56.6 131.85,49.85 		"/>
		<polygon style="fill-rule:evenodd;clip-rule:evenodd;fill:#696F71;" points="138.4,54.45 131.75,57.45 131.9,56.45 136.9,54.45 		
			"/>
		<polygon style="fill-rule:evenodd;clip-rule:evenodd;fill:#CDD1D2;" points="133.9,59.7 136.9,66.95 132.15,59.95 129.4,67.7 
			130.4,59.45 121.9,59.2 129.15,57.7 125.15,52.95 130.65,56.7 132.4,49.7 132.4,56.95 138.4,54.45 133.65,57.7 141.15,60.2 		"/>
	</g>
	<g>
		<polygon style="fill-rule:evenodd;clip-rule:evenodd;fill:#696F71;" points="149.4,53.45 144.35,56.8 149.4,62.7 147.35,62.1 
			140.65,56.55 147.65,53.45 		"/>
		<path style="fill-rule:evenodd;clip-rule:evenodd;fill:#CDD1D2;" d="M149.4,53.45c-0.5,0.333-1.017,0.733-1.551,1.2
			c-1.033,0.967-1.6,1.817-1.699,2.55c-0.101,0.733,0.416,1.867,1.55,3.4c0.566,0.767,1.133,1.467,1.7,2.1l-7.5-6.25L149.4,53.45z"
			/>
	</g>
	<path style="fill-rule:evenodd;clip-rule:evenodd;fill:#CDD1D2;" d="M228.6,31.3c-1.3-1.6-2.949-2.617-4.949-3.05L221.1,28.1
		l2.25-0.45c1.834-0.1,3.584,0.45,5.25,1.65c1.667,1.167,3.917,4.184,6.75,9.05c1.434,2.433,2.684,4.75,3.75,6.95
		c-0.767-1.333-1.366-2.233-1.8-2.7c-0.3-0.267-0.3,0.316,0,1.75c0.134,0.733,0.3,1.483,0.5,2.25
		C233.8,38.933,230.733,33.833,228.6,31.3z"/>
	<path style="fill-rule:evenodd;clip-rule:evenodd;fill:#CDD1D2;" d="M205.85,70.35l-3.899,1.45l2.45-1.4
		c1.899-0.933,3.583-1.367,5.05-1.3c1.666,0.1,3.2,0.717,4.6,1.85c1.233,1.033,2.25,2.417,3.05,4.15c1,2.233,1.834,4.9,2.5,8
		c-0.333-1.1-0.85-2.383-1.55-3.85c-1.434-2.967-3.083-5.35-4.95-7.15C211.233,70.3,208.816,69.717,205.85,70.35z"/>
	<g>
		<g>
			<path style="fill-rule:evenodd;clip-rule:evenodd;fill:#C8C9CB;" d="M107,152.95c0.467,1.2,0.5,1.916,0.1,2.149
				c-0.2,0.134-0.45,0.134-0.75,0l-8.4-3.5l0.85-2L107,152.95z"/>
			<polygon style="fill-rule:evenodd;clip-rule:evenodd;fill:#E9EAEA;" points="99.8,151.1 100.15,150.45 106.65,153.05 
				106.85,153.85 			"/>
			<polygon style="fill-rule:evenodd;clip-rule:evenodd;fill:#A0A1A4;" points="107,154.6 106.65,155.05 100.3,152.3 100.2,151.7 
							"/>
		</g>
		<g>
			<polygon style="fill-rule:evenodd;clip-rule:evenodd;fill:#939A9D;" points="99.65,147.9 99,150.95 96.95,155.3 95.55,155.1 
				98,151.1 98.4,147.3 			"/>
			<polygon style="fill-rule:evenodd;clip-rule:evenodd;fill:#939A9D;" points="97.3,149.8 96.55,152.25 95.5,152.55 96.65,149.05 
							"/>
			<polygon style="fill-rule:evenodd;clip-rule:evenodd;fill:#939A9D;" points="99.75,150.95 101.15,152.8 100.5,154.1 
				98.65,151.45 			"/>
			<polygon style="fill-rule:evenodd;clip-rule:evenodd;fill:#939A9D;" points="102.35,147.3 103.15,150.45 101.65,154.8 
				99.9,156.25 98.65,156.35 101.15,153.45 102.2,149.95 101.05,146.85 			"/>
			<path style="fill-rule:evenodd;clip-rule:evenodd;fill:#696F71;" d="M101.2,150.7l-1.9,0.85l1.25,1.65L101.2,150.7z M98.05,152.1
				L96.4,154.7l1.75,0.25L98.05,152.1z M97.7,150.85l-1-1.3l-0.75,2.25L97.7,150.85z M98.3,146.7l2.75,0.149l1.15,3.101l-1.25,4.25
				l-2.3,2.149l-3.35-0.75l-0.6-3.149l1.25-3.101L98.3,146.7z M100.3,148.1l-1.6-0.3v2.8L100.3,148.1z"/>
		</g>
	</g>
</g>
</svg>
