<?xml version="1.0" encoding="iso-8859-1"?>
<!-- Generator: Adobe Illustrator 15.1.0, SVG Export Plug-In . SVG Version: 6.00 Build 0)  -->
<!DOCTYPE svg PUBLIC "-//W3C//DTD SVG 1.1//EN" "http://www.w3.org/Graphics/SVG/1.1/DTD/svg11.dtd">
<svg version="1.1" id="buildings_1" xmlns="http://www.w3.org/2000/svg" xmlns:xlink="http://www.w3.org/1999/xlink" x="0px"
	 y="0px" width="272.75px" height="283.35px" viewBox="0 0 272.75 283.35" style="enable-background:new 0 0 272.75 283.35;"
	 xml:space="preserve">
<symbol  id="FlashAICB_x2F_buildings_1_x2F__x3C_Path_x3E__x5F_1" viewBox="0 -27 200.45 27">
	<g id="Layer_1_2_">
		
			<linearGradient id="SVGID_1_" gradientUnits="userSpaceOnUse" x1="12.542" y1="-16005.5146" x2="43.067" y2="-16005.5146" gradientTransform="matrix(3.276003e-005 -1 1 -0.001 16105.7354 -2.0503)">
			<stop  offset="0" style="stop-color:#CBDDE7"/>
			<stop  offset="1" style="stop-color:#85B7CD"/>
		</linearGradient>
		<path style="fill-rule:evenodd;clip-rule:evenodd;fill:url(#SVGID_1_);" d="M183.1-0.65l1.35-1.45c1.333-1,3.1-1.633,5.3-1.9
			c2.233-0.267,4.683,0.217,7.35,1.45c1.333,0.6,2.45,1.233,3.35,1.9V-27H0v19c2.2-0.133,4.5,0.483,6.9,1.85
			C8.1-5.45,9.067-4.733,9.8-4l0.9-0.85c0.833-0.633,1.867-1.017,3.1-1.15c1.267-0.133,2.934,0.217,5,1.05
			c1.034,0.4,1.934,0.833,2.7,1.3l1.75-0.8C24.683-5.083,26.1-5.6,27.5-6c1.367-0.433,3.617-0.167,6.75,0.8
			c1.567,0.467,2.983,0.983,4.25,1.55l2.6-1.5c2.1-1,4.117-1.5,6.05-1.5c1.934,0,4.184,0.55,6.75,1.65
			c1.267,0.533,2.35,1.083,3.25,1.65l1.5-1.35c1.333-0.867,2.833-1.3,4.5-1.3c1.667,0,3.567,0.333,5.7,1
			c1.033,0.333,1.917,0.667,2.65,1l2.4-0.25c1.9-0.1,3.533-0.017,4.9,0.25c2.233,0.433,4.8,1.1,7.7,2l2-1.55
			c1.667-1.067,3.333-1.667,5-1.8S98-4.633,102-2.8c2,0.933,3.833,1.867,5.5,2.8l4.35-2.8c3.3-1.833,5.85-2.684,7.65-2.55
			s3.833,0.967,6.1,2.5c1.167,0.733,2.133,1.467,2.9,2.2l2.05-1.65c1.7-1.167,3.45-1.95,5.25-2.35c1.8-0.434,4.3,0.1,7.5,1.6
			c1.567,0.767,2.967,1.566,4.2,2.4l1.55-2.15c1.367-1.5,2.95-2.45,4.75-2.85c1.8-0.434,4.067,0.1,6.8,1.6
			c1.333,0.767,2.5,1.566,3.5,2.4l1.9-2.2c1.7-1.433,3.733-2.15,6.1-2.15c2.1,0,4.566,0.883,7.4,2.65
			C180.9-2.45,182.1-1.55,183.1-0.65z"/>
	</g>
</symbol>
<g>
	<g>
		<linearGradient id="SVGID_2_" gradientUnits="userSpaceOnUse" x1="16.0498" y1="223.8086" x2="246.2002" y2="223.8086">
			<stop  offset="0" style="stop-color:#EBC8AA"/>
			<stop  offset="1" style="stop-color:#F2DDC9"/>
		</linearGradient>
		<path style="fill-rule:evenodd;clip-rule:evenodd;fill:url(#SVGID_2_);" d="M16.05,234.05c0.333-7.033,14.2-12.2,41.6-15.5
			c14.6-1.733,37.55-3.149,68.85-4.25c42.434-1.5,73.467-0.7,93.1,2.4c17.634,2.8,26.5,7.533,26.601,14.2L16.05,234.05z"/>
		<path style="fill-rule:evenodd;clip-rule:evenodd;fill:#F5E5D6;" d="M203.75,217.35c-9.8-0.866-16.717-1.3-20.75-1.3
			c-3.434,0-9.667-0.166-18.7-0.5l-12.55-0.5l13-0.35c10.1-0.134,18.684,0.066,25.75,0.6c13.667,1,21.333,1.584,23,1.75
			c7.3,0.7,12.366,1.533,15.2,2.5c2.7,0.934,5.633,2.417,8.8,4.45c1.6,1.033,2.917,1.967,3.95,2.8c-1.733-1-3.783-2.05-6.15-3.149
			c-4.7-2.2-8.566-3.567-11.6-4.101C219.967,218.917,213.316,218.184,203.75,217.35z"/>
		<path style="fill-rule:evenodd;clip-rule:evenodd;fill:#F5E5D6;" d="M101.25,216.8L99,218.05c-25.5,1.5-42.667,3-51.5,4.5
			c-5.533,0.934-11.233,2.3-17.1,4.101c-2.933,0.899-5.316,1.699-7.15,2.399c0.867-0.666,1.883-1.366,3.05-2.1
			c2.333-1.5,4.233-2.467,5.7-2.9c4.267-1.233,12.183-2.566,23.75-4c6.667-0.833,16.25-1.616,28.75-2.35
			C90.767,217.3,96.35,217,101.25,216.8z"/>
		
			<linearGradient id="SVGID_3_" gradientUnits="userSpaceOnUse" x1="221.918" y1="-131.8955" x2="249.4268" y2="-131.8955" gradientTransform="matrix(3.636364e-005 1 -1 -0.001 -4.023057e-005 -1.866515e-004)">
			<stop  offset="0" style="stop-color:#B36940"/>
			<stop  offset="1" style="stop-color:#2A211D"/>
		</linearGradient>
		<path style="fill-rule:evenodd;clip-rule:evenodd;fill:url(#SVGID_3_);" d="M65.75,244.4c-23.967-2.134-35.833-5.584-35.6-10.351
			c0.233-4.434,10.5-8.017,30.8-10.75c17.667-2.399,39.183-3.733,64.55-4c34.767-0.399,57.116-0.35,67.05,0.15
			c26.934,1.333,40.634,5.149,41.101,11.45c0.399,5.633-8.534,9.616-26.801,11.949c-13.699,1.733-37.366,2.9-71,3.5
			C108.75,246.816,85.383,246.167,65.75,244.4z"/>
		<g>
			
				<linearGradient id="SVGID_4_" gradientUnits="userSpaceOnUse" x1="220.4922" y1="-132.7759" x2="259.6422" y2="-132.7759" gradientTransform="matrix(2.554278e-005 1 -1 -0.001 -2.820197e-004 -1.956949e-004)">
				<stop  offset="0" style="stop-color:#CBDDE7"/>
				<stop  offset="1" style="stop-color:#85B7CD"/>
			</linearGradient>
			<path style="fill-rule:evenodd;clip-rule:evenodd;fill:url(#SVGID_4_);" d="M122.35,228.15c3.066-0.834,5.6-2.034,7.6-3.601
				l2.05-2.1l1.6,2.45c1.667,1.633,4.034,2.383,7.1,2.25c3.033-0.134,5.666-1.134,7.899-3l2.4-2.7l3.15,3.25
				c2.566,2.133,4.966,3.05,7.199,2.75c2.233-0.267,4.634-1.066,7.2-2.4l3.15-1.899l3.3,2.25c2.7,1.433,5.366,2.017,8,1.75
				c2.634-0.301,5.483-1.167,8.55-2.601c1.533-0.733,2.8-1.434,3.8-2.1l1.5,3.1c1.534,2,3.684,2.867,6.45,2.601
				c2.767-0.301,5.2-1,7.3-2.101c1.067-0.566,1.851-1.1,2.351-1.6l2.1,2.649c1.767,1.7,3.634,2.483,5.601,2.351
				c1.933-0.134,3.683-0.667,5.25-1.601c0.767-0.466,1.35-0.933,1.75-1.399l5.85,4.05l0.15,0.4
				c0.399,5.633-8.534,9.616-26.801,11.949c-13.699,1.733-37.366,2.9-71,3.5c-23.667,0.434-44.817-0.017-63.45-1.35
				c-22.3-1.634-35.8-4.283-40.5-7.95v-0.1l4.1-0.9c3.1-0.833,5.55-1.8,7.35-2.899c1.8-1.134,3.117-2.417,3.95-3.851l0.7-1.85
				l2.85,3.2c2.433,2,5.05,2.716,7.85,2.149c2.767-0.566,5.433-1.85,8-3.85l3-2.8l3.2,3.6c2.6,2.3,5.083,3.1,7.45,2.4
				c2.367-0.7,5.017-2.367,7.95-5l3.7-3.7l3.5,2.75c2.733,1.733,5.133,2.383,7.2,1.95c2.1-0.4,4.167-1.467,6.2-3.2l2.45-2.5
				l2.75,3.6C116.533,228.283,119.283,228.983,122.35,228.15z"/>
		</g>
	</g>
	<g>
		<path style="fill-rule:evenodd;clip-rule:evenodd;fill:#939A9D;" d="M159.85,133.65l-6,23l-3.55,29.899
			c-1.934,20.667-1.75,32.867,0.55,36.601c3.067,5.033,4.767,9.966,5.101,14.8c0.399,5.434-1.3,8.666-5.101,9.7
			c-5.633,1.5-11.55,0.816-17.75-2.051c-2.633-1.199-4.267-2.5-4.9-3.899c-0.7-1.533,0.017-2.884,2.15-4.05
			c2.633-1.467,5.833-2.317,9.6-2.551c1.899-0.133,3.533-0.116,4.899,0.051c-1.233,0.166-2.55,0.416-3.949,0.75
			c-2.733,0.666-4.417,1.416-5.05,2.25c-0.733,0.966,0.1,1.683,2.5,2.149c2.334,0.434,4.667,0.384,7-0.149
			c1.967-0.434,2.483-2.634,1.551-6.601c-0.4-1.833-1.75-5.8-4.051-11.899c-1.866-5-3.933-11.601-6.199-19.801
			c-2.734-10.033-4.667-18.767-5.8-26.199c-1.033-6.867-1.684-15.767-1.95-26.7l-0.05-14.3L159.85,133.65z"/>
		<g>
			<path style="fill-rule:evenodd;clip-rule:evenodd;fill:#696F71;" d="M142.9,246.4c3.466,0.3,5.633,0.416,6.5,0.35
				c2.267-0.167,4.116-0.967,5.55-2.4c-0.834,1.667-2.2,2.767-4.101,3.301c-5.633,1.5-11.55,0.816-17.75-2.051
				c-2.633-1.199-4.267-2.5-4.9-3.899c-0.7-1.533,0.017-2.884,2.15-4.05c0.967-0.534,2-0.983,3.1-1.351
				c-3.667,1.667-4.983,3.283-3.95,4.851c0.833,1.267,2.7,2.433,5.6,3.5C137.8,245.616,140.4,246.2,142.9,246.4z"/>
		</g>
		<g>
			<g>
				<path style="fill-rule:evenodd;clip-rule:evenodd;fill:#54585B;" d="M133.6,240.65c0.167,0.3,0.066,0.583-0.3,0.85
					c-0.333,0.267-0.6,0.15-0.8-0.35c-0.033-0.5,0.117-0.784,0.45-0.851C133.283,240.267,133.5,240.384,133.6,240.65z"/>
			</g>
		</g>
		<g>
			<g>
				<path style="fill-rule:evenodd;clip-rule:evenodd;fill:#54585B;" d="M140.35,243.6c0.601,0.567,0.517,0.767-0.25,0.601
					c-0.066-0.134-0.1-0.25-0.1-0.351C140,243.616,140.116,243.533,140.35,243.6z"/>
			</g>
		</g>
		<g>
			<g>
				<path style="fill-rule:evenodd;clip-rule:evenodd;fill:#54585B;" d="M151.5,243.55c0.1,0.2,0.033,0.434-0.2,0.7
					c-0.2,0.3-0.416,0.217-0.649-0.25c-0.067-0.434,0.05-0.667,0.35-0.7C151.267,243.233,151.434,243.316,151.5,243.55z"/>
			</g>
		</g>
		<g>
			<g>
				<path style="fill-rule:evenodd;clip-rule:evenodd;fill:#54585B;" d="M146.5,242.1c0.333,0.667,0.283,1.051-0.15,1.15
					c-0.466,0.167-0.733,0.05-0.8-0.35c-0.1-0.267-0.033-0.534,0.2-0.801C145.983,241.8,146.233,241.8,146.5,242.1z"/>
			</g>
		</g>
		<g>
			<g>
				<path style="fill-rule:evenodd;clip-rule:evenodd;fill:#54585B;" d="M152.4,231.8c0.267,0.367,0.233,0.684-0.101,0.95
					c-0.333,0.3-0.616,0.233-0.85-0.2c-0.167-0.6-0.084-0.934,0.25-1C152.066,231.483,152.3,231.566,152.4,231.8z"/>
			</g>
		</g>
		<g>
			<g>
				<path style="fill-rule:evenodd;clip-rule:evenodd;fill:#54585B;" d="M152.8,237.5c0.434,0.1,0.601,0.267,0.5,0.5
					c-0.166,0.267-0.316,0.333-0.45,0.2c-0.166-0.033-0.267-0.15-0.3-0.351C152.517,237.616,152.6,237.5,152.8,237.5z"/>
			</g>
		</g>
		<g>
			<path style="fill-rule:evenodd;clip-rule:evenodd;fill:#696F71;" d="M153.85,155.45c-1.899,2-3.933,4.5-6.1,7.5
				c-4.333,6-7.134,11.5-8.4,16.5c-1.1,4.366-1.583,8.45-1.449,12.25c0.1,4.133,0.916,8.616,2.449,13.45
				c1.067,3.333,3.284,9.899,6.65,19.699c2.6,8.367,3.267,13.067,2,14.101c-1.066,0.934-2.45,1.483-4.15,1.649
				c-1.1,0.134-2.149,0.101-3.149-0.1c1.366,0,2.583-0.116,3.649-0.35c1.967-0.434,2.483-2.634,1.551-6.601
				c-0.4-1.833-1.75-5.8-4.051-11.899c-1.833-4.867-3.85-11.284-6.05-19.25c-2.667-9.7-4.583-18.233-5.75-25.601L154,142.95
				L153.85,155.45z"/>
		</g>
		<g>
			<g>
				<path style="fill-rule:evenodd;clip-rule:evenodd;fill:#54585B;" d="M148,170.5c0.333,0.4,0.366,0.65,0.1,0.75
					c-0.333,0.134-0.517,0.1-0.55-0.1c-0.2-0.167-0.217-0.351-0.05-0.551C147.667,170.366,147.833,170.333,148,170.5z"/>
			</g>
		</g>
		<g>
			<g>
				<path style="fill-rule:evenodd;clip-rule:evenodd;fill:#54585B;" d="M145.3,182.25c0.367,0.866,0.15,1.533-0.649,2
					c-0.801,0.467-1.351,0.167-1.65-0.9c-0.134-1.066,0.167-1.666,0.9-1.8C144.634,181.45,145.1,181.684,145.3,182.25z"/>
			</g>
		</g>
		<g>
			<g>
				<path style="fill-rule:evenodd;clip-rule:evenodd;fill:#54585B;" d="M144.95,197.6c0.366-0.233,0.649-0.166,0.85,0.2
					c0.2,0.7,0.05,1.117-0.45,1.25c-0.533,0.101-0.8-0.1-0.8-0.6C144.483,198.116,144.616,197.833,144.95,197.6z"/>
			</g>
		</g>
		<g>
			<g>
				<path style="fill-rule:evenodd;clip-rule:evenodd;fill:#54585B;" d="M145.95,209.15c0.434,0.366,0.483,0.8,0.149,1.3
					c-0.366,0.5-0.783,0.483-1.25-0.05c-0.333-0.567-0.3-1,0.101-1.301C145.35,208.8,145.684,208.816,145.95,209.15z"/>
			</g>
		</g>
		<g>
			<g>
				<path style="fill-rule:evenodd;clip-rule:evenodd;fill:#54585B;" d="M149.85,224.6c0.233,0.301,0.233,0.601,0,0.9
					c-0.267,0.333-0.517,0.267-0.75-0.2c-0.1-0.233-0.05-0.467,0.15-0.7C149.45,224.333,149.65,224.333,149.85,224.6z"/>
			</g>
		</g>
		<g>
			<g>
				<path style="fill-rule:evenodd;clip-rule:evenodd;fill:#54585B;" d="M148.65,188.25c0.233,0.566,0.133,0.917-0.301,1.05
					c-0.466,0.101-0.699-0.05-0.699-0.45c-0.067-0.3,0.05-0.55,0.35-0.75C148.3,187.9,148.517,187.95,148.65,188.25z"/>
			</g>
		</g>
		<g>
			<g>
				<path style="fill-rule:evenodd;clip-rule:evenodd;fill:#54585B;" d="M142.7,190.05c0.066,0.733-0.134,1.066-0.601,1
					c-0.5-0.1-0.666-0.3-0.5-0.6c-0.066-0.233,0.051-0.45,0.351-0.65C142.283,189.6,142.533,189.684,142.7,190.05z"/>
			</g>
		</g>
		<g>
			<g>
				<path style="fill-rule:evenodd;clip-rule:evenodd;fill:#54585B;" d="M143.9,173.55c0.267,0.7,0.133,0.867-0.4,0.5
					c-0.134-0.166-0.134-0.316,0-0.45C143.634,173.434,143.767,173.417,143.9,173.55z"/>
			</g>
		</g>
		<g>
			<g>
				<path style="fill-rule:evenodd;clip-rule:evenodd;fill:#54585B;" d="M150.9,164.75c0.1,0.1,0.066,0.267-0.101,0.5
					c-0.166,0.233-0.35,0.184-0.55-0.15c-0.066-0.333,0.017-0.517,0.25-0.55C150.7,164.517,150.833,164.583,150.9,164.75z"/>
			</g>
		</g>
	</g>
	
		<use xlink:href="#FlashAICB_x2F_buildings_1_x2F__x3C_Path_x3E__x5F_1"  width="200.45" height="27" y="-27" transform="matrix(1 0 0 -1 35.2002 231.7998)" style="overflow:visible;opacity:0.6914;enable-background:new    ;"/>
	<g>
		<path style="fill-rule:evenodd;clip-rule:evenodd;fill:#939A9D;" d="M87,87.55c-0.733-4.233-1.617-6.867-2.65-7.9
			c-1.833-1.833-5.184-1.316-10.05,1.55c-6.333,3.733-10.816,5.716-13.45,5.95c-4.367,0.434-7.434-2.017-9.2-7.35
			c-0.533-1.667-0.917-3.533-1.15-5.6l-0.15-2.55l0.25,1.9c0.233,1.5,0.633,2.883,1.2,4.15c1.733,4.1,4.583,6.25,8.55,6.45
			c3.233,0.167,7.316-2.2,12.25-7.1c5.1-5.1,9.183-7.733,12.25-7.9c3.767-0.2,6.533,3.033,8.3,9.7c0.533,1.933,1.3,5.15,2.3,9.65
			c1.033,4.1,2.167,7.483,3.4,10.15c2.5,5.434,7.583,9.817,15.25,13.15c3.833,1.667,7.417,2.784,10.75,3.35l-2.5,21
			c-1.167-0.233-2.934-0.883-5.3-1.95c-4.767-2.067-10.167-5.083-16.2-9.05c-5.667-3.7-9.6-11.85-11.8-24.45
			C88.117,94.433,87.433,90.05,87,87.55z"/>
		<g>
			<path style="fill-rule:evenodd;clip-rule:evenodd;fill:#696F71;" d="M85.15,75.4c1.6,0.8,2.8,2.983,3.6,6.55
				c0.433,2,0.933,5.066,1.5,9.2c0.9,4.9,2,9.533,3.3,13.9c2.067,6.9,4.267,11.567,6.6,14c2.233,2.333,4.583,4.184,7.05,5.55
				c1.233,0.667,2.25,1.1,3.05,1.3c-2.067-5.167-3.517-9.283-4.35-12.35c-0.467-1.733-0.967-4.316-1.5-7.75
				c2.9,2.534,6.5,4.684,10.8,6.45c1.633,6.067,3.683,13.933,6.15,23.6c-5.233-1.633-12.067-5.2-20.5-10.7
				c-5.667-3.7-9.6-11.85-11.8-24.45c-0.933-6.267-1.617-10.65-2.05-13.15c-0.733-4.233-1.617-6.867-2.65-7.9
				c-1.833-1.833-5.184-1.316-10.05,1.55c-6.333,3.733-10.816,5.716-13.45,5.95c-4.367,0.434-7.434-2.017-9.2-7.35
				c-0.533-1.667-0.917-3.533-1.15-5.6L50.375,72c0.177,2.192,0.552,4.259,1.125,6.2c1.267,4.1,3.183,6.466,5.75,7.1
				c2.833,0.7,5.8,0.4,8.9-0.9c1.934-0.8,4.267-2.217,7-4.25c3.033-2.233,5.05-3.617,6.05-4.15C81.533,74.8,83.517,74.6,85.15,75.4z
				"/>
		</g>
		
			<linearGradient id="SVGID_5_" gradientUnits="userSpaceOnUse" x1="-37.9185" y1="-129.3394" x2="99.8071" y2="-129.3394" gradientTransform="matrix(-0.5845 0.8114 -0.8114 -0.5845 -2.012253e-004 4.315376e-005)">
			<stop  offset="0" style="stop-color:#C8CDCE"/>
			<stop  offset="1" style="stop-color:#9DA6A9"/>
		</linearGradient>
		<path style="fill-rule:evenodd;clip-rule:evenodd;fill:url(#SVGID_5_);" d="M61.35,97.15C57.417,96.483,53.967,96.9,51,98.4
			c-2.067,1.067-4.317,3-6.75,5.8c-3.167,3.6-5.25,5.816-6.25,6.65c-2.6,2.2-5.483,3.467-8.65,3.8
			c-6.033,0.633-11.684-0.683-16.95-3.95c-1.633-1-3.133-2.15-4.5-3.45l-1.55-1.6c2.333,0.934,4.983,1.85,7.95,2.75
			c5.9,1.833,10.417,2.75,13.55,2.75c1.566,0,3.367-1.183,5.4-3.55c2.533-3.333,4.567-5.917,6.1-7.75
			c6.133-7.367,12.967-10.767,20.5-10.2c4.566,0.367,8.066,1.434,10.5,3.2c1.967,1.467,3.65,3.816,5.05,7.05
			c0.867,1.967,2.217,5.434,4.05,10.4c2.033,4.867,4.5,9.317,7.4,13.35c5.833,8.133,12.917,10.983,21.25,8.55
			c4.167-1.2,7.75-3.217,10.75-6.05l11.5,21c-4.567,0.933-10.017,1.449-16.35,1.55c-12.667,0.267-23.383-1.584-32.15-5.55
			c-4.667-2.101-7.867-5.684-9.6-10.75c-1.1-3.267-1.75-8.167-1.95-14.7c-0.233-6.733-0.667-11.217-1.3-13.45
			C67.767,100.183,65.217,97.817,61.35,97.15z"/>
		<g>
			<path style="fill-rule:evenodd;clip-rule:evenodd;fill:#939A9D;" d="M61.35,97.15C57.417,96.483,53.967,96.9,51,98.4
				c-2.067,1.067-4.317,3-6.75,5.8c-3.167,3.6-5.25,5.816-6.25,6.65c-2.6,2.2-5.483,3.467-8.65,3.8
				c-5.533,0.567-10.733-0.483-15.6-3.15l-7.4-5.85l4.15,2.8c3.467,2.033,6.967,3.483,10.5,4.35
				c5.333,1.333,10.083,0.583,14.25-2.25c2.567-1.767,5.65-5.066,9.25-9.9c2.467-3.3,5.983-5.417,10.55-6.35
				c4.034-0.767,7.35-0.483,9.95,0.85c2.433,1.233,4.083,2.517,4.95,3.85c1.1,1.667,1.95,4.6,2.55,8.8
				c0.767,5.067,2.067,10.4,3.9,16c2.133,6.4,4.233,10.684,6.3,12.85c1.867,1.934,4.316,3.184,7.35,3.75
				c1.5,0.267,2.817,0.35,3.95,0.25l19.25-10.6l-12.3,18.05c-7.167-0.8-13.534-2.449-19.1-4.949c-4.667-2.101-7.867-5.684-9.6-10.75
				c-1.1-3.267-1.75-8.167-1.95-14.7c-0.233-6.733-0.667-11.217-1.3-13.45C67.767,100.183,65.217,97.817,61.35,97.15z"/>
			<g>
				<path style="fill-rule:evenodd;clip-rule:evenodd;fill:#696F71;" d="M61.35,97.15C57.417,96.483,53.967,96.9,51,98.4
					c-2.067,1.067-4.317,3-6.75,5.8c-3.167,3.6-5.25,5.816-6.25,6.65c-2.6,2.2-5.483,3.467-8.65,3.8
					c-6.033,0.633-11.684-0.683-16.95-3.95c-1.633-1-3.133-2.15-4.5-3.45l-1.55-1.6c3.433,3.033,6.783,5.233,10.05,6.6
					c3,1.2,6.35,1.883,10.05,2.05c1.833,0.067,3.517-0.133,5.05-0.6c1.467-0.467,3.033-1.267,4.7-2.4c1.3-0.9,3.216-2.75,5.75-5.55
					c0.8-0.9,2.566-2.933,5.3-6.1c2.667-3.1,7.367-4.417,14.1-3.95c5.333,0.367,8.617,4.267,9.85,11.7
					c0.233,1.434,0.65,4.883,1.25,10.35c0.833,5.633,2.05,10.6,3.65,14.9c1.6,4.3,4.767,7.383,9.5,9.25
					c2.4,0.966,4.617,1.484,6.65,1.55L90.3,146.1c-2.767-0.699-5.583-1.683-8.45-2.949c-4.667-2.101-7.867-5.684-9.6-10.75
					c-1.1-3.267-1.75-8.167-1.95-14.7c-0.233-6.733-0.667-11.217-1.3-13.45C67.767,100.183,65.217,97.817,61.35,97.15z"/>
			</g>
		</g>
		<path style="fill-rule:evenodd;clip-rule:evenodd;fill:#939A9D;" d="M201.45,89.35c-0.5,11.6-1.884,20.7-4.15,27.3
			c-2.267,6.667-7.934,13.667-17,21c-4.533,3.667-8.85,6.667-12.95,9l-3.5-30l3.101-0.05c2.533-0.167,5-0.55,7.399-1.15
			c7.667-1.9,13.167-5.667,16.5-11.3c2.667-4.533,4.267-12.6,4.801-24.2c0.233-5.267,0.533-8.9,0.899-10.9
			c0.634-3.3,1.767-5.433,3.4-6.4c2.1-1.2,4.6-0.417,7.5,2.35c3.434,3.3,5.883,5.017,7.35,5.15c2.3,0.2,4.983-0.15,8.05-1.05
			c1.567-0.467,2.884-0.95,3.95-1.45c-1.166,1.067-2.583,2.1-4.25,3.1c-3.3,2.067-6.217,3.033-8.75,2.9
			c-1.866-0.1-4.616-1.533-8.25-4.3c-1.2-0.9-2.05-1.333-2.55-1.3c-0.634,0.1-1.033,0.967-1.2,2.6
			C201.667,72.15,201.55,78.383,201.45,89.35z"/>
		<path style="fill-rule:evenodd;clip-rule:evenodd;fill:#696F71;" d="M199.85,85.05c0.301-9.3,0.617-14.933,0.95-16.9
			c0.334-1.967,1.134-2.8,2.4-2.5c0.566,0.133,2.1,1.3,4.6,3.5c2.367,2,4.384,3.05,6.05,3.15c1.967,0.1,4.317-0.383,7.051-1.45
			c2.267-0.9,4.233-1.967,5.899-3.2c-1.166,1.067-2.583,2.1-4.25,3.1c-3.3,2.067-6.217,3.033-8.75,2.9
			c-1.866-0.1-4.616-1.533-8.25-4.3c-1.2-0.9-2.05-1.333-2.55-1.3c-0.634,0.1-1.033,0.967-1.2,2.6c-0.133,1.5-0.25,7.733-0.35,18.7
			c-0.5,11.6-1.884,20.7-4.15,27.3c-2.7,7.9-10,16.133-21.899,24.7l-2,0.05l3.1-26.55c2.667-0.833,5.083-1.967,7.25-3.4
			c0,3.267-0.2,5.833-0.6,7.7l-1.4,6.65l4.6-2.05c3.267-1.867,5.45-4.1,6.551-6.7c2.133-5.167,3.533-8.95,4.199-11.35
			C198.667,100,199.583,93.117,199.85,85.05z"/>
		
			<linearGradient id="SVGID_6_" gradientUnits="userSpaceOnUse" x1="-37.9243" y1="-243.8931" x2="99.8012" y2="-243.8931" gradientTransform="matrix(-0.5845 0.8114 -0.8114 -0.5845 -2.012253e-004 4.315376e-005)">
			<stop  offset="0" style="stop-color:#C8CDCE"/>
			<stop  offset="1" style="stop-color:#9DA6A9"/>
		</linearGradient>
		<path style="fill-rule:evenodd;clip-rule:evenodd;fill:url(#SVGID_6_);" d="M238.8,89.65c1.967,2.6,4.2,6.833,6.7,12.7
			c2.967,7,4.9,11.316,5.8,12.95c2.267,4,4.601,6.117,7,6.35c4.601,0.434,8.483-0.433,11.65-2.6
			c1.177-0.826,2.102-1.668,2.774-2.525c-1.297,1.847-2.855,3.622-4.675,5.325c-4.166,3.9-7.916,5.333-11.25,4.3
			c-2.6-0.8-7.166-5.3-13.7-13.5c-6-7.5-9.933-11-11.8-10.5c-1.133,0.3-2.6,2.383-4.399,6.25c-1.067,2.3-2.917,6.517-5.551,12.65
			c-5.733,12.3-11.916,19.333-18.55,21.101c-7.066,1.866-17.517,3.433-31.35,4.699l-18.601,1.301l1.5-23l4.7,0.95
			c3.867,0.733,7.667,1.25,11.4,1.55c12,1,21.116-0.167,27.35-3.5c3.3-1.767,6.316-4.95,9.05-9.55
			c1.301-2.167,3.467-6.583,6.5-13.25c2.534-5.567,4.733-9.517,6.601-11.85c2.733-3.467,5.85-5.25,9.35-5.35
			S235.967,85.883,238.8,89.65z"/>
		<g>
			<path style="fill-rule:evenodd;clip-rule:evenodd;fill:#939A9D;" d="M231.3,102.15c-1.133,0.3-2.6,2.383-4.399,6.25
				c-1.067,2.3-2.917,6.517-5.551,12.65c-5.733,12.3-11.916,19.333-18.55,21.101c-5.733,1.5-13.717,2.816-23.95,3.949l-7.699-2.55
				l3.25-11.25l9.3,1c7.233,0.267,13.45-0.617,18.649-2.65c4.767-1.867,9.934-7.566,15.5-17.1c1.4-2.367,3.284-5.633,5.65-9.8
				c1.866-3.033,3.35-4.767,4.45-5.2c2.533-1.033,5.184-0.483,7.95,1.65c2.533,1.966,5.683,5.7,9.449,11.2
				c3.434,5.033,6.367,8.55,8.801,10.55c2.066,1.7,4.25,2.65,6.55,2.85c2.399,0.2,5.717-1.917,9.95-6.35
				c0.633-0.5,1.149-0.967,1.55-1.4l0.05,0.05c-2,2.667-4.1,4.833-6.3,6.5c-3.367,2.533-6.417,3.383-9.15,2.55
				c-2.6-0.8-7.166-5.3-13.7-13.5C237.1,105.15,233.167,101.65,231.3,102.15z"/>
			<g>
				<path style="fill-rule:evenodd;clip-rule:evenodd;fill:#696F71;" d="M231.3,102.15c-1.133,0.3-2.6,2.383-4.399,6.25
					c-1.067,2.3-2.917,6.517-5.551,12.65c-5.733,12.3-11.916,19.333-18.55,21.101c-4.934,1.3-11.6,2.466-20,3.5l-10.8-8l5.15,0.15
					c4.133,0.034,8.083-0.117,11.85-0.45c11.967-1,19.533-3.567,22.7-7.7c3-3.867,6.517-9.367,10.55-16.5
					c4.066-7.233,6.267-11.066,6.6-11.5c1.067-1.4,2.417-1.9,4.051-1.5c1.333,0.333,2.483,1.05,3.449,2.15
					c0.5,0.6,2.784,3.517,6.851,8.75c4.133,5.267,6.883,8.55,8.25,9.85c2.399,2.3,4.083,3.717,5.05,4.25
					c2.1,1.133,4.35,1.184,6.75,0.15c-2.3,1.167-4.45,1.45-6.45,0.85c-2.6-0.8-7.166-5.3-13.7-13.5
					C237.1,105.15,233.167,101.65,231.3,102.15z"/>
			</g>
		</g>
		
			<linearGradient id="SVGID_7_" gradientUnits="userSpaceOnUse" x1="-37.9351" y1="-191.3818" x2="99.7905" y2="-191.3818" gradientTransform="matrix(-0.5845 0.8114 -0.8114 -0.5845 -2.012253e-004 4.315376e-005)">
			<stop  offset="0" style="stop-color:#C8CDCE"/>
			<stop  offset="1" style="stop-color:#9DA6A9"/>
		</linearGradient>
		<path style="fill-rule:evenodd;clip-rule:evenodd;fill:url(#SVGID_7_);" d="M174.45,79c0.566,0.833,0.816,2.15,0.75,3.95l1.3,0.9
			c0.9,0.667,1.434,1.183,1.6,1.55c3.7,7.8,5.267,16.283,4.7,25.45c-0.467,7.933-2.45,15.667-5.95,23.2
			c3.934,0.733,7.601,1.1,11,1.1c7.7,0,13.7-1.566,18-4.7c2.534-1.833,4.034-2.867,4.5-3.1c1.801-0.9,3.95-1.3,6.45-1.2
			c2.601,0.1,4.7,1.583,6.3,4.45c1.134,2,2.2,5.167,3.2,9.5c1.3,5.466,2.117,8.716,2.45,9.75c1.066,3.101,2.417,4.867,4.05,5.301
			c3.134,0.833,6.566,0.583,10.3-0.75c1.9-0.667,3.467-1.417,4.7-2.25c-1.434,1.566-3.166,3.033-5.2,4.399
			c-4.1,2.767-7.699,3.634-10.8,2.601c-2-0.667-3.783-2.233-5.35-4.7c-0.867-1.4-2.066-3.867-3.601-7.4
			c-1.399-3.3-2.566-5.6-3.5-6.9c-1.466-2-3.149-3-5.05-3c-1.8,0-3.55,0.65-5.25,1.95c-2,1.867-3.633,3.35-4.899,4.45
			c-5.067,4.434-11.667,6.967-19.801,7.601c-7.866,0.566-15.583,0.699-23.149,0.399c-5.867,3.367-9.783,5.967-11.75,7.8
			c-4.434,4.134-8.217,10.15-11.351,18.051c-10.667,26.899-16.383,41.5-17.149,43.8c-5.1,15-5.983,23.8-2.65,26.399
			c3.5,2.733,6.65,4.034,9.45,3.9c2.4-0.1,3.7-0.967,3.9-2.6c0.1-0.967-1.45-1.4-4.65-1.301l-4.85,0.45l3.15-1.75
			c2.534-1.133,4.934-1.517,7.2-1.149c2.3,0.366,3.917,0.983,4.85,1.85c1.134,1.033,1.534,2.616,1.2,4.75
			c-0.366,2.333-1.583,4.15-3.65,5.45c-2.8,1.733-7.233,2.6-13.3,2.6c-7.967,0-13.467-2.767-16.5-8.3
			c-2.733-4.934-3.167-11.35-1.3-19.25c0.3-1.2,3.184-10.8,8.65-28.8c4.333-14.3,7.1-26.05,8.3-35.25c0.6-4.7,0.45-9.667-0.45-14.9
			c-19,3.033-35.517,3.983-49.55,2.851c-9.567-0.767-16.467-4.717-20.7-11.851c-1.767-3.566-3.05-6.033-3.85-7.4
			c-1.3-2.3-2.784-3.55-4.45-3.75c-1.8-0.233-3.233,0.35-4.3,1.75c-0.667,0.833-1.483,2.55-2.45,5.15
			c-2.167,5.733-4.917,9.267-8.25,10.601c-4.167,1.666-8.667,1.833-13.5,0.5c-2.4-0.667-4.4-1.5-6-2.5
			c1.167,0.166,2.6,0.3,4.3,0.399c3.434,0.167,6.5,0.033,9.2-0.399c1.367-0.2,2.65-1.567,3.85-4.101c1.4-3.5,2.533-6.233,3.4-8.2
			c3.5-7.9,8.417-12.133,14.75-12.7c3.6-0.333,6.55,0.75,8.85,3.25c0.8,0.833,2.583,3.6,5.35,8.3c2.233,3.8,4.6,6.483,7.1,8.05
			c3.633,2.267,8.367,3.066,14.2,2.4c6.833-0.801,13.617-2.851,20.35-6.15c5.1-2.533,9.983-5.683,14.65-9.45
			c-2.433-6.566-4.117-11.417-5.05-14.55c-1.667-5.5-2.75-10.567-3.25-15.2c-0.067-0.667,0.65-1.35,2.15-2.05
			c1.533-0.7,2.333-1.4,2.4-2.1c0.1-0.8-0.433-2.45-1.6-4.95c-1.133-2.367-1.533-4.017-1.2-4.95c1.733-5.2,4.417-10,8.05-14.4
			c3.767-4.533,8.05-8.017,12.85-10.45c11.333-5.733,22.45-4.533,33.35,3.6C166.483,69.133,170.983,73.8,174.45,79z"/>
		<path style="fill-rule:evenodd;clip-rule:evenodd;fill:#939A9D;" d="M174.7,79.8c0.434,0.434,0.6,1.483,0.5,3.15l-10.851,5.7
			l5-3.7C171.017,83.75,172.8,82.033,174.7,79.8z"/>
		<path style="fill-rule:evenodd;clip-rule:evenodd;fill:#939A9D;" d="M177.7,90.15l1.899,8.55c1.167,6.267,1.534,10.85,1.101,13.75
			c-0.533,3.8-1.05,6.75-1.55,8.85c-0.634,2.6-1.567,5.55-2.801,8.85c-1.1,2.934-2.649,6.033-4.649,9.3c-1,1.633-1.9,2.967-2.7,4
			v-1.65l-11.65,1l4-2.6c3.101-2.5,5.767-5.633,8-9.4c2.233-3.733,3.851-9.683,4.851-17.85l0.8-11.15l3.35,6.35L177.7,90.15z"/>
		<path style="fill-rule:evenodd;clip-rule:evenodd;fill:#818E91;" d="M121.35,68.45c0.9-0.967,2.033-1.167,3.4-0.6
			c0.667,0.267,1.25,0.633,1.75,1.1c-0.033-0.7,0.05-1.434,0.25-2.2c0.367-1.533,1.067-2.517,2.1-2.95
			c1.033-0.4,2.117-0.183,3.25,0.65c0.566,0.4,1.033,0.85,1.4,1.35l1-1.8c0.9-1.167,1.967-1.683,3.2-1.55
			c1.6,0.2,2.666,0.966,3.2,2.3c0.267,0.667,0.366,1.3,0.3,1.9l2.3-1.5c1.8-0.767,3.467-0.55,5,0.65c1.533,1.2,2.333,2.583,2.4,4.15
			c0.033,0.8-0.101,1.466-0.4,2l2.6,0.05c1.9,0.333,3.267,1.267,4.101,2.8c0.833,1.534,0.883,2.983,0.149,4.35
			c-0.366,0.7-0.816,1.25-1.35,1.65l1.6,0.65c1.101,0.767,1.801,1.933,2.101,3.5c0.267,1.6-0.066,2.917-1,3.95l-1.5,1.05l2.05,2.2
			c1.134,1.667,1.217,3.05,0.25,4.15c-0.967,1.1-2.116,1.6-3.45,1.5l-1.7-0.5l-0.55,2.6c-0.6,1.8-1.533,2.767-2.8,2.9
			c-1.233,0.133-2.517-0.35-3.85-1.45l-1.65-1.7c-0.4,0.767-0.934,1.517-1.6,2.25c-1.267,1.5-2.45,2.25-3.551,2.25
			c-1.1,0-2.183-0.717-3.25-2.15l-1.25-2.2c-0.5,0.567-1.167,1.1-2,1.6c-1.633,1-3.25,1.35-4.85,1.05
			c-1.533-0.267-2.583-1.367-3.15-3.3l-0.35-2.85c-0.467,0.467-1.05,0.817-1.75,1.05c-1.433,0.433-2.783,0.083-4.05-1.05
			c-1.4-1.233-1.883-2.517-1.45-3.85l1.1-1.65c-0.567-0.066-1.15-0.25-1.75-0.55c-1.2-0.6-1.9-1.533-2.1-2.8
			c-0.2-1.233,0.15-2.3,1.05-3.2c0.467-0.433,0.95-0.75,1.45-0.95c-0.433-0.367-0.817-0.867-1.15-1.5c-0.667-1.267-0.717-2.6-0.15-4
			c0.533-1.4,1.417-2.3,2.65-2.7c0.6-0.167,1.15-0.217,1.65-0.15c-0.3-0.7-0.517-1.483-0.65-2.35
			C120.117,70.8,120.45,69.417,121.35,68.45z"/>
		<path style="fill-rule:evenodd;clip-rule:evenodd;fill:#CDD1D2;" d="M164.05,69.8c2.867,2.934,5.101,5.85,6.7,8.75l-5.5,1.75
			c-0.733-1.767-1.634-3.683-2.7-5.75c-2.166-4.1-4.083-6.883-5.75-8.35c-2.399-2.067-4.934-3.6-7.6-4.6l-3.25-0.9
			C152.316,60.9,158.35,63.933,164.05,69.8z"/>
		<path style="fill-rule:evenodd;clip-rule:evenodd;fill:#494F51;" d="M135.7,66.95c3.967-0.133,7.899,1.3,11.8,4.3
			c3.533,2.7,5.767,5.55,6.7,8.55c0.934,3.067,1.267,6.217,1,9.45c-0.334,3.733-1.45,6.133-3.351,7.2
			c-1.933,1.1-4.949,1.65-9.05,1.65c-3.533,0-7.4-0.383-11.6-1.15c-4.067-0.7-7.167-2.434-9.3-5.2c-2.367-3.1-2.883-6.8-1.55-11.1
			c1.333-4.333,3.533-7.733,6.6-10.2C129.65,68.25,132.567,67.083,135.7,66.95z"/>
		<path style="fill-rule:evenodd;clip-rule:evenodd;fill:#393D3F;" d="M123,89.6c0.233-0.133,1,0.367,2.3,1.5
			c1.567,1.4,3.017,2.3,4.35,2.7c7.1,2.167,13.133,3.034,18.1,2.6c2.5-0.2,4.283-0.633,5.35-1.3c-1.5,1.133-2.983,1.833-4.449,2.1
			c-0.601,0.1-2.15,0.167-4.65,0.2c-4.2,0.1-7.884-0.133-11.05-0.7c-4.1-0.7-6.967-1.9-8.6-3.6
			C122.583,91.333,122.133,90.167,123,89.6z"/>
		<path style="fill-rule:evenodd;clip-rule:evenodd;fill:#AAB2B5;" d="M148.2,84.45c0-1.767-0.617-4.1-1.851-7
			c-0.767-1.8-2.216-3.45-4.35-4.95l-3-1.7l3.4,0.7c2.6,0.8,4.699,2.067,6.3,3.8c1.6,1.733,2.684,3.75,3.25,6.05
			c0.3,1.167,0.434,2.15,0.399,2.95c-0.767-1.233-1.483-2.017-2.149-2.35c-0.4-0.2-0.851,0.15-1.351,1.05L148.2,84.45z"/>
		<g>
			<path style="fill-rule:evenodd;clip-rule:evenodd;fill:#939A9D;" d="M50.05,144.3c-1.767-3.566-3.05-6.033-3.85-7.4
				c-1.3-2.3-2.784-3.55-4.45-3.75c-1.8-0.233-3.233,0.35-4.3,1.75c-0.667,0.833-1.483,2.55-2.45,5.15
				c-2.167,5.733-4.917,9.267-8.25,10.601c-3.733,1.466-7.75,1.75-12.05,0.85c-2.5-0.533-4.833-1.4-7-2.6
				c2.667,0.833,5.3,1.433,7.9,1.8c4.167,0.533,7.217,0.233,9.15-0.9c2.433-1.434,4.433-3.35,6-5.75
				c1.1-1.733,2.183-4.117,3.25-7.15c1.967-5.566,5.183-7.733,9.65-6.5c1,0.3,2.367,1.633,4.1,4c1.033,1.4,2.8,3.883,5.3,7.45
				c5.267,7.034,10.55,10.716,15.85,11.05c6.4,0.433,14.5,0.05,24.3-1.15c8.933-1.1,17.117-2.583,24.55-4.45
				c3.767-0.934,7.267-2.633,10.5-5.1c1.633-1.233,2.883-2.367,3.75-3.4l-1.7,14.7c-1.533,11.066-3.35,19.833-5.45,26.3
				c-1.667,5.167-5.45,16.066-11.35,32.7c-5,15.134-7.333,25.283-7,30.45c0.367,5.5,2.283,9.483,5.75,11.95
				c2.267,1.566,5.35,2.533,9.25,2.899c2.833,0.267,5.55,0.184,8.15-0.25c3.434-0.533,6.117-1.616,8.05-3.25
				c-1.967,3.667-7.333,5.5-16.1,5.5c-7.967,0-13.467-2.767-16.5-8.3c-2.733-4.934-3.167-11.35-1.3-19.25
				c0.3-1.2,3.184-10.8,8.65-28.8c4.333-14.3,7.1-26.05,8.3-35.25c0.6-4.7,0.45-9.667-0.45-14.9c-19,3.033-35.517,3.983-49.55,2.851
				C61.183,155.384,54.283,151.434,50.05,144.3z"/>
			<path style="fill-rule:evenodd;clip-rule:evenodd;fill:#939A9D;" d="M202.65,138.95c4.199-3.1,7.483-5.017,9.85-5.75
				c1.866-0.567,3.684-0.483,5.45,0.25c1.3,0.566,2.934,3.183,4.899,7.85c1.101,2.566,2.534,6.066,4.301,10.5
				c1.399,2.934,3.8,4.667,7.199,5.2c4.134,0.634,8.617-0.983,13.45-4.85c-1.434,1.566-3.166,3.033-5.2,4.399
				c-4.1,2.767-7.699,3.634-10.8,2.601c-2-0.667-3.783-2.233-5.35-4.7c-0.867-1.4-2.066-3.867-3.601-7.4
				c-1.399-3.3-2.566-5.6-3.5-6.9c-1.466-2-3.149-3-5.05-3c-1.8,0-3.55,0.65-5.25,1.95c-2,1.867-3.633,3.35-4.899,4.45
				c-5.067,4.434-11.667,6.967-19.801,7.601c-7.866,0.566-15.583,0.699-23.149,0.399l3.85-0.899c3.5-0.767,7.65-1.551,12.45-2.351
				c7.2-1.233,11.934-2.233,14.2-3C194.8,144.233,198.45,142.116,202.65,138.95z"/>
		</g>
		<g>
			<path style="fill-rule:evenodd;clip-rule:evenodd;fill:#696F71;" d="M50.05,144.3c-1.767-3.566-3.05-6.033-3.85-7.4
				c-1.3-2.3-2.784-3.55-4.45-3.75c-1.8-0.233-3.233,0.35-4.3,1.75c-0.667,0.833-1.483,2.55-2.45,5.15
				c-2.167,5.733-4.917,9.267-8.25,10.601c-4.167,1.666-8.667,1.833-13.5,0.5c-2.4-0.667-4.4-1.5-6-2.5l3.7,1.55
				c2.9,1,5.5,1.45,7.8,1.35c3.2-0.133,5.767-0.666,7.7-1.6c2.5-1.233,4.433-3.283,5.8-6.15c1.833-4.167,3.183-7.033,4.05-8.6
				c1.467-2.567,3-3.833,4.6-3.8c1.633,0.067,3.117,0.9,4.45,2.5c0.467,0.6,1.433,2.15,2.9,4.65c1.833,3.133,3.567,5.617,5.2,7.45
				c3.233,3.667,6.8,6.05,10.7,7.15c4.434,1.3,12.133,1.816,23.1,1.55c10.667-0.267,18.633-1.066,23.9-2.4
				c6.733-1.767,11.35-3.1,13.85-4l-0.1,8.75c-0.3,6.7-0.967,12.233-2,16.601c-1.2,5.066-3.2,12.199-6,21.399
				c-2.667,8.834-4.75,15.25-6.25,19.25c-1.967,5.134-3.566,10.017-4.8,14.65c-1.667,6.366-2.283,10.983-1.85,13.85
				c0.633,4.033,1.817,7.233,3.55,9.601c2.4,3.199,6.017,5.199,10.85,6c4.567,0.767,8.283,0.933,11.15,0.5
				c1.7-0.267,3.534-0.867,5.5-1.801c-2.767,1.801-7.25,2.7-13.45,2.7c-7.967,0-13.467-2.767-16.5-8.3
				c-2.733-4.934-3.167-11.35-1.3-19.25c0.3-1.2,3.184-10.8,8.65-28.8c4.333-14.3,7.1-26.05,8.3-35.25c0.6-4.7,0.45-9.667-0.45-14.9
				c-19,3.033-35.517,3.983-49.55,2.851C61.183,155.384,54.283,151.434,50.05,144.3z"/>
			<path style="fill-rule:evenodd;clip-rule:evenodd;fill:#696F71;" d="M222.85,147.05c-1.399-3.3-2.566-5.6-3.5-6.9
				c-1.466-2-3.149-3-5.05-3c-1.8,0-3.55,0.65-5.25,1.95c-2,1.867-3.633,3.35-4.899,4.45c-5.067,4.434-11.667,6.967-19.801,7.601
				c-5.1,0.366-10.366,0.55-15.8,0.55c0.101-0.101,0.25-0.15,0.45-0.15c3.866-0.366,7.95-0.899,12.25-1.6
				c5.9-1,10.616-2.101,14.15-3.3c2.733-0.934,6.133-3.084,10.199-6.45c3.801-3.167,6.584-4.934,8.351-5.3
				c2.399-0.467,4.5,0.833,6.3,3.9c0.366,0.633,1.9,4.134,4.6,10.5c1.534,3.566,3.367,6.05,5.5,7.45
				c1.801,1.167,4.051,1.684,6.75,1.55c2.034-0.1,4.417-1.149,7.15-3.149c1.4-1,2.583-2,3.55-3c-1.434,1.566-3.166,3.033-5.2,4.399
				c-4.1,2.767-7.699,3.634-10.8,2.601c-2-0.667-3.783-2.233-5.35-4.7C225.583,153.05,224.384,150.583,222.85,147.05z"/>
		</g>
		<g>
			<path style="fill-rule:evenodd;clip-rule:evenodd;fill:#939A9D;" d="M106.35,96.85c0.5-0.767,1-1.45,1.5-2.05
				c-0.4-0.667-0.783-1.417-1.15-2.25c-0.733-1.7-1-2.95-0.8-3.75c1.567-5.9,4.367-11.367,8.4-16.4c4.2-5.233,9.05-9.1,14.55-11.6
				c-2.833,1.6-5.684,4.117-8.55,7.55c-5.767,6.9-8.75,15-8.95,24.3c-0.2,8.7,1.25,16.75,4.35,24.15c1.533,3.7,3.083,6.534,4.65,8.5
				c-2.767,1.767-5.133,3.35-7.1,4.75c-2.4-6.533-4.083-11.383-5.05-14.55c-1.667-5.533-2.75-10.6-3.25-15.2
				C104.883,99.533,105.35,98.383,106.35,96.85z"/>
		</g>
		<g>
			<path style="fill-rule:evenodd;clip-rule:evenodd;fill:#939A9D;" d="M146.3,147.75l3.55-8.95l-0.75,7.3c-0.3,5,0,7.733,0.9,8.2
				c0.934,0.467,3.083,0.15,6.45-0.95c1.666-0.533,3.25-1.133,4.75-1.8c-5.867,3.367-9.783,5.967-11.75,7.8
				c-4.434,4.134-8.217,10.15-11.351,18.051c-10.667,26.899-16.383,41.5-17.149,43.8c-5.1,15-5.983,23.8-2.65,26.399
				c3,2.301,5.75,3.567,8.25,3.801l-0.05,0.05c-1.833,0.2-3.733,0.066-5.7-0.4c-3.933-0.934-6.25-3.066-6.95-6.399
				c-0.733-3.567,0.683-11.45,4.25-23.65c2.833-9.667,6.033-19.066,9.6-28.2c3.033-7.733,7.083-17.517,12.149-29.35
				C141.45,159.717,143.6,154.483,146.3,147.75z"/>
		</g>
		<g>
			<path style="fill-rule:evenodd;clip-rule:evenodd;fill:#696F71;" d="M124.65,247.35c1.934-0.466,3.467-0.699,4.6-0.699
				c1.3,0,2.283,0.25,2.95,0.75c0.633,0.5,0.816,1.05,0.55,1.649c-0.333,0.733-1.5,1.483-3.5,2.25l-0.1-0.05
				c1.567-0.4,2.4-1.184,2.5-2.35c0.1-0.967-1.45-1.4-4.65-1.301l-4.85,0.45L124.65,247.35z"/>
		</g>
		<g>
			<g>
				<path style="fill-rule:evenodd;clip-rule:evenodd;fill:#54585B;" d="M174,114.8c0.066,0.667-0.233,1.067-0.9,1.2
					c-0.666,0.167-0.983-0.133-0.949-0.9c0.133-0.8,0.466-1.15,1-1.05C173.684,114.117,173.967,114.367,174,114.8z"/>
			</g>
		</g>
		<g>
			<g>
				<path style="fill-rule:evenodd;clip-rule:evenodd;fill:#54585B;" d="M169.95,125.9c0,0.2-0.134,0.333-0.4,0.4
					c-0.267,0.034-0.383-0.117-0.35-0.45c0.166-0.333,0.35-0.45,0.55-0.35C169.884,125.6,169.95,125.733,169.95,125.9z"/>
			</g>
		</g>
		<g>
			<g>
				<path style="fill-rule:evenodd;clip-rule:evenodd;fill:#54585B;" d="M145.05,131.85c0,1.1-0.467,1.65-1.399,1.65
					c-0.934,0.033-1.317-0.417-1.15-1.35c0.167-1,0.634-1.45,1.4-1.35C144.6,130.9,144.983,131.25,145.05,131.85z"/>
			</g>
		</g>
		<g>
			<g>
				<path style="fill-rule:evenodd;clip-rule:evenodd;fill:#54585B;" d="M127.4,134.8c-0.2,0.567-0.467,0.75-0.8,0.55
					c-0.367-0.233-0.434-0.467-0.2-0.7c0.067-0.2,0.267-0.316,0.6-0.35C127.3,134.267,127.433,134.433,127.4,134.8z"/>
			</g>
		</g>
		<g>
			<g>
				<path style="fill-rule:evenodd;clip-rule:evenodd;fill:#54585B;" d="M101.45,143.85c0.167,0.4,0.117,0.634-0.15,0.7
					c-0.3,0.101-0.433,0.017-0.4-0.25c-0.1-0.133-0.066-0.283,0.1-0.45C101.133,143.65,101.283,143.65,101.45,143.85z"/>
			</g>
		</g>
		<g>
			<g>
				<path style="fill-rule:evenodd;clip-rule:evenodd;fill:#54585B;" d="M86.2,147.85c0.433-0.066,0.667,0.084,0.7,0.45
					c-0.033,0.733-0.3,1.066-0.8,1c-0.533-0.1-0.717-0.35-0.55-0.75C85.583,148.116,85.8,147.884,86.2,147.85z"/>
			</g>
		</g>
		<g>
			<g>
				<path style="fill-rule:evenodd;clip-rule:evenodd;fill:#54585B;" d="M125.95,104.35c0.066,0.4-0.067,0.633-0.4,0.7
					c-0.333,0.067-0.5-0.083-0.5-0.45c0-0.333,0.133-0.517,0.4-0.55C125.717,104.017,125.883,104.117,125.95,104.35z"/>
			</g>
		</g>
		<g>
			<g>
				<path style="fill-rule:evenodd;clip-rule:evenodd;fill:#54585B;" d="M116.65,99.4c0.233,0.767,0.05,1.233-0.55,1.4
					c-0.6,0.133-0.9-0.1-0.9-0.7c-0.1-0.467,0.066-0.8,0.5-1C116.133,98.867,116.45,98.967,116.65,99.4z"/>
			</g>
		</g>
		<g>
			<g>
				<path style="fill-rule:evenodd;clip-rule:evenodd;fill:#54585B;" d="M172.85,92.5c0.267,0.767,0.034,1.35-0.699,1.75
					c-0.767,0.4-1.25,0.083-1.45-0.95c-0.033-0.867,0.283-1.367,0.95-1.5C172.316,91.7,172.717,91.933,172.85,92.5z"/>
			</g>
		</g>
		<g>
			<g>
				<path style="fill-rule:evenodd;clip-rule:evenodd;fill:#54585B;" d="M169.6,105.5c0.067,0.3-0.033,0.483-0.3,0.55
					c-0.233,0.034-0.35-0.083-0.35-0.35c0-0.233,0.1-0.367,0.3-0.4C169.417,105.267,169.533,105.333,169.6,105.5z"/>
			</g>
		</g>
		<g>
			<g>
				<path style="fill-rule:evenodd;clip-rule:evenodd;fill:#54585B;" d="M163.95,114.85c0.066,0.4-0.066,0.633-0.4,0.7
					c-0.333,0.067-0.5-0.083-0.5-0.45c0-0.333,0.134-0.517,0.4-0.55C163.717,114.517,163.884,114.617,163.95,114.85z"/>
			</g>
		</g>
		<g>
			<g>
				<path style="fill-rule:evenodd;clip-rule:evenodd;fill:#54585B;" d="M160.1,104.25c0.267,0.767,0.034,1.35-0.699,1.75
					c-0.767,0.4-1.25,0.083-1.45-0.95c-0.033-0.867,0.283-1.367,0.95-1.5C159.566,103.45,159.967,103.683,160.1,104.25z"/>
			</g>
		</g>
		<g>
			<g>
				<path style="fill-rule:evenodd;clip-rule:evenodd;fill:#54585B;" d="M178.5,98.4c-0.1-0.767,0.2-1.283,0.9-1.55
					c0.699-0.267,1.166-0.067,1.399,0.6c0.334,1.167,0.033,1.85-0.899,2.05C178.967,99.733,178.5,99.367,178.5,98.4z"/>
			</g>
		</g>
		<g>
			<g>
				<path style="fill-rule:evenodd;clip-rule:evenodd;fill:#54585B;" d="M167.45,139.45c0.166,1.333-0.334,2.117-1.5,2.35
					c-1.167,0.233-1.717-0.333-1.65-1.7c0.101-1.067,0.634-1.667,1.601-1.8C166.833,138.167,167.35,138.55,167.45,139.45z"/>
			</g>
		</g>
		<g>
			<g>
				<path style="fill-rule:evenodd;clip-rule:evenodd;fill:#54585B;" d="M138.7,150.7c0.166,1.2-0.184,1.816-1.05,1.85
					c-0.867,0-1.233-0.383-1.101-1.149c-0.033-0.567,0.25-1,0.851-1.301C138.033,149.8,138.467,150,138.7,150.7z"/>
			</g>
		</g>
		<g>
			<g>
				<path style="fill-rule:evenodd;clip-rule:evenodd;fill:#54585B;" d="M134.95,162.1c-0.067,0-0.1,0.301-0.1,0.9
					c-0.1,0.467-0.45,0.4-1.05-0.2c-0.1-0.6,0.034-0.934,0.4-1S134.817,161.833,134.95,162.1z"/>
			</g>
		</g>
		<g>
			<g>
				<path style="fill-rule:evenodd;clip-rule:evenodd;fill:#54585B;" d="M130.75,173.6c0.133,0.667-0.083,1.067-0.65,1.2
					c-0.567,0.134-0.85-0.116-0.85-0.75c0-0.6,0.233-0.934,0.7-1C130.417,172.983,130.683,173.167,130.75,173.6z"/>
			</g>
		</g>
		<g>
			<g>
				<path style="fill-rule:evenodd;clip-rule:evenodd;fill:#54585B;" d="M174.15,83.75c0.233,0.567,0.133,0.917-0.301,1.05
					c-0.466,0.1-0.699-0.066-0.699-0.5c-0.067-0.3,0.033-0.533,0.3-0.7C173.75,83.4,173.983,83.45,174.15,83.75z"/>
			</g>
		</g>
		<g>
			<g>
				<path style="fill-rule:evenodd;clip-rule:evenodd;fill:#54585B;" d="M141.75,60.2c0.033,0.2,0.05,0.383,0.05,0.55
					c0,0.333-0.25,0.367-0.75,0.1c-0.133-0.467-0.083-0.733,0.15-0.8C141.434,60.017,141.616,60.067,141.75,60.2z"/>
			</g>
		</g>
		<g>
			<g>
				<path style="fill-rule:evenodd;clip-rule:evenodd;fill:#54585B;" d="M117.05,107.85c0.133,0.267-0.017,0.566-0.45,0.9
					c-0.434,0.333-0.75,0.15-0.95-0.55c0.133-0.7,0.4-1,0.8-0.9C116.85,107.367,117.05,107.55,117.05,107.85z"/>
			</g>
		</g>
		<g>
			<g>
				<path style="fill-rule:evenodd;clip-rule:evenodd;fill:#54585B;" d="M113.25,91.2c0.033,0.2-0.033,0.316-0.2,0.35
					c-0.167,0.034-0.25-0.033-0.25-0.2c0-0.167,0.067-0.267,0.2-0.3C113.133,91.05,113.217,91.1,113.25,91.2z"/>
			</g>
		</g>
		<g>
			<g>
				<path style="fill-rule:evenodd;clip-rule:evenodd;fill:#54585B;" d="M115,82.85c0.133,0.667-0.083,1.066-0.65,1.2
					c-0.567,0.133-0.85-0.117-0.85-0.75c0-0.6,0.233-0.933,0.7-1C114.667,82.233,114.933,82.417,115,82.85z"/>
			</g>
		</g>
		<g>
			<g>
				<path style="fill-rule:evenodd;clip-rule:evenodd;fill:#54585B;" d="M161,77.8c0.233,0.233,0.25,0.483,0.05,0.75
					c-0.166,0.233-0.366,0.184-0.6-0.15c-0.134-0.167-0.117-0.35,0.05-0.55C160.667,77.65,160.833,77.633,161,77.8z"/>
			</g>
		</g>
		<g>
			<g>
				<path style="fill-rule:evenodd;clip-rule:evenodd;fill:#54585B;" d="M155.15,69.25c0.1,0.1,0.066,0.267-0.101,0.5
					c-0.166,0.233-0.35,0.183-0.55-0.15c-0.066-0.333,0.017-0.517,0.25-0.55C154.95,69.017,155.083,69.083,155.15,69.25z"/>
			</g>
		</g>
		<g>
			<g>
				<path style="fill-rule:evenodd;clip-rule:evenodd;fill:#54585B;" d="M179.1,105.9c0.233,0.267,0.233,0.55,0,0.85
					c-0.267,0.3-0.533,0.233-0.8-0.2c-0.133-0.3-0.066-0.55,0.2-0.75C178.733,105.633,178.934,105.667,179.1,105.9z"/>
			</g>
		</g>
		<g>
			<g>
				<path style="fill-rule:evenodd;clip-rule:evenodd;fill:#54585B;" d="M146.1,109c0.067,0.3-0.033,0.483-0.3,0.55
					c-0.233,0.034-0.35-0.083-0.35-0.35c0-0.233,0.1-0.367,0.3-0.4C145.917,108.767,146.033,108.833,146.1,109z"/>
			</g>
		</g>
		<g>
			<g>
				<path style="fill-rule:evenodd;clip-rule:evenodd;fill:#54585B;" d="M125.6,124.45c0.367,0.4,0.367,0.833,0,1.3
					s-0.75,0.367-1.15-0.3c-0.2-0.467-0.117-0.833,0.25-1.1C125.1,124.083,125.4,124.117,125.6,124.45z"/>
			</g>
		</g>
		<g>
			<g>
				<path style="fill-rule:evenodd;clip-rule:evenodd;fill:#54585B;" d="M118.75,136.95c-0.1,1.167-0.633,1.7-1.6,1.6
					c-0.967-0.1-1.3-0.617-1-1.55c0.233-0.867,0.733-1.267,1.5-1.2C118.417,135.867,118.783,136.25,118.75,136.95z"/>
			</g>
		</g>
		<g>
			<g>
				<path style="fill-rule:evenodd;clip-rule:evenodd;fill:#54585B;" d="M110.9,144.7c0.3,0.467,0.2,0.899-0.3,1.3
					c-0.467,0.366-0.85,0.217-1.15-0.45c-0.167-0.733,0-1.149,0.5-1.25C110.417,144.233,110.733,144.366,110.9,144.7z"/>
			</g>
		</g>
		<g>
			<g>
				<path style="fill-rule:evenodd;clip-rule:evenodd;fill:#54585B;" d="M110.95,135.95c0.033,0.7-0.4,1.133-1.3,1.3
					c-0.867,0.167-1.233-0.3-1.1-1.4c0.434-1,0.967-1.367,1.6-1.1S111.05,135.417,110.95,135.95z"/>
			</g>
		</g>
		<g>
			<g>
				<path style="fill-rule:evenodd;clip-rule:evenodd;fill:#54585B;" d="M144.8,140.65c0.334,0.733,0.184,1.267-0.45,1.6
					c-0.633,0.333-1.033,0.116-1.199-0.65c-0.134-0.533,0.05-0.95,0.55-1.25C144.2,140.05,144.566,140.15,144.8,140.65z"/>
			</g>
		</g>
		<g>
			<g>
				<path style="fill-rule:evenodd;clip-rule:evenodd;fill:#54585B;" d="M135.9,135c0.133,0.6-0.05,0.95-0.55,1.05
					c-0.5,0.1-0.75-0.117-0.75-0.65c0-0.5,0.2-0.783,0.6-0.85C135.6,134.483,135.833,134.633,135.9,135z"/>
			</g>
		</g>
		<g>
			<g>
				<path style="fill-rule:evenodd;clip-rule:evenodd;fill:#54585B;" d="M156.85,129.55c0.067,0.833-0.333,1.333-1.199,1.5
					c-0.867,0.167-1.233-0.267-1.101-1.3c0.233-0.9,0.684-1.3,1.351-1.2C156.566,128.617,156.884,128.95,156.85,129.55z"/>
			</g>
		</g>
		<g>
			<g>
				<path style="fill-rule:evenodd;clip-rule:evenodd;fill:#54585B;" d="M157.9,146.5c0.233,0.566,0.133,0.917-0.301,1.05
					c-0.466,0.101-0.699-0.066-0.699-0.5c-0.067-0.3,0.033-0.533,0.3-0.7C157.5,146.15,157.733,146.2,157.9,146.5z"/>
			</g>
		</g>
		<g>
			<g>
				<path style="fill-rule:evenodd;clip-rule:evenodd;fill:#54585B;" d="M181.55,141.55c0.2,0.467,0.05,0.867-0.45,1.2
					c-0.5,0.366-0.85,0.167-1.05-0.6c-0.033-0.667,0.184-1.034,0.65-1.101C181.167,140.983,181.45,141.15,181.55,141.55z"/>
			</g>
		</g>
		<g>
			<g>
				<path style="fill-rule:evenodd;clip-rule:evenodd;fill:#54585B;" d="M174.3,146.15c0.101,0.5-0.05,0.783-0.45,0.85
					c-0.433,0.1-0.649-0.066-0.649-0.5c0-0.4,0.166-0.634,0.5-0.7C174.033,145.767,174.233,145.884,174.3,146.15z"/>
			</g>
		</g>
		<g>
			<g>
				<path style="fill-rule:evenodd;clip-rule:evenodd;fill:#54585B;" d="M221.25,129.65c0.2,0.5,0.134,0.8-0.2,0.9
					c-0.399,0.1-0.583-0.033-0.55-0.4c-0.066-0.133,0-0.316,0.2-0.55C220.9,129.333,221.083,129.35,221.25,129.65z"/>
			</g>
		</g>
		<g>
			<g>
				<path style="fill-rule:evenodd;clip-rule:evenodd;fill:#54585B;" d="M224.3,139.5c0.066,0.3-0.033,0.483-0.3,0.55
					c-0.233,0.034-0.35-0.083-0.35-0.35c0-0.233,0.1-0.367,0.3-0.4C224.116,139.267,224.233,139.333,224.3,139.5z"/>
			</g>
		</g>
		<g>
			<g>
				<path style="fill-rule:evenodd;clip-rule:evenodd;fill:#54585B;" d="M212.4,130.8c-0.4,1.233-0.801,1.3-1.2,0.2
					c0.133-0.567,0.366-0.8,0.7-0.7C212.233,130.367,212.4,130.533,212.4,130.8z"/>
			</g>
		</g>
		<g>
			<g>
				<path style="fill-rule:evenodd;clip-rule:evenodd;fill:#54585B;" d="M196.2,138.6c0.066,0.633-0.217,1.033-0.851,1.2
					c-0.666,0.133-0.983-0.183-0.949-0.95c0.166-0.867,0.5-1.217,1-1.05C195.866,137.933,196.134,138.2,196.2,138.6z"/>
			</g>
		</g>
		<g>
			<g>
				<path style="fill-rule:evenodd;clip-rule:evenodd;fill:#54585B;" d="M188,137.9c0.2,0.133,0.217,0.333,0.05,0.6
					c-0.166,0.267-0.366,0.267-0.6,0c-0.2-0.4-0.184-0.633,0.05-0.7C187.667,137.767,187.833,137.8,188,137.9z"/>
			</g>
		</g>
		<g>
			<g>
				<path style="fill-rule:evenodd;clip-rule:evenodd;fill:#54585B;" d="M232.45,88.65c0.133,0.934-0.233,1.483-1.101,1.65
					c-0.866,0.133-1.233-0.283-1.1-1.25c0.066-0.733,0.434-1.15,1.1-1.25C232.017,87.7,232.384,87.983,232.45,88.65z"/>
			</g>
		</g>
		<g>
			<g>
				<path style="fill-rule:evenodd;clip-rule:evenodd;fill:#54585B;" d="M240.65,98c0.133,0.067,0.166,0.167,0.1,0.3
					c-0.1,0.1-0.184,0.1-0.25,0c-0.1-0.066-0.116-0.133-0.05-0.2C240.517,98,240.583,97.967,240.65,98z"/>
			</g>
		</g>
		<g>
			<g>
				<path style="fill-rule:evenodd;clip-rule:evenodd;fill:#54585B;" d="M222.8,95.25c0.334,0.667,0.25,1.083-0.25,1.25
					s-0.8,0.033-0.899-0.4c-0.167-0.434-0.067-0.767,0.3-1C222.283,94.833,222.566,94.883,222.8,95.25z"/>
			</g>
		</g>
		<g>
			<g>
				<path style="fill-rule:evenodd;clip-rule:evenodd;fill:#54585B;" d="M216.7,104.55c0.399,0.7,0.267,1.35-0.4,1.95
					c-0.666,0.6-1.217,0.367-1.649-0.7c-0.2-0.867,0.033-1.433,0.699-1.7C216.017,103.833,216.467,103.983,216.7,104.55z"/>
			</g>
		</g>
		<g>
			<g>
				<path style="fill-rule:evenodd;clip-rule:evenodd;fill:#54585B;" d="M213.3,114c-0.033,0.3-0.217,0.483-0.55,0.55
					c-0.333,0.067-0.483-0.117-0.45-0.55c0.134-0.367,0.334-0.517,0.601-0.45C213.167,113.617,213.3,113.767,213.3,114z"/>
			</g>
		</g>
		<g>
			<g>
				<path style="fill-rule:evenodd;clip-rule:evenodd;fill:#54585B;" d="M205.4,122.85c0.066,0.4-0.067,0.633-0.4,0.7
					c-0.333,0.067-0.5-0.083-0.5-0.45c0-0.333,0.134-0.517,0.4-0.55C205.167,122.517,205.333,122.617,205.4,122.85z"/>
			</g>
		</g>
		<g>
			<g>
				<path style="fill-rule:evenodd;clip-rule:evenodd;fill:#54585B;" d="M194.95,127.85c0.066,0.4-0.066,0.633-0.4,0.7
					c-0.333,0.067-0.5-0.083-0.5-0.45c0-0.333,0.134-0.517,0.4-0.55C194.717,127.517,194.884,127.617,194.95,127.85z"/>
			</g>
		</g>
		<g>
			<g>
				<path style="fill-rule:evenodd;clip-rule:evenodd;fill:#54585B;" d="M246.75,110.15c0.1,0.5-0.05,0.783-0.45,0.85
					c-0.434,0.1-0.649-0.067-0.649-0.5c0-0.4,0.166-0.633,0.5-0.7C246.483,109.767,246.684,109.883,246.75,110.15z"/>
			</g>
		</g>
		<g>
			<g>
				<path style="fill-rule:evenodd;clip-rule:evenodd;fill:#54585B;" d="M261.75,122.9c0.1,0.1,0.1,0.233,0,0.4
					c-0.1,0.133-0.233,0.1-0.4-0.1c-0.1-0.233-0.066-0.367,0.101-0.4C261.583,122.8,261.684,122.833,261.75,122.9z"/>
			</g>
		</g>
		<g>
			<g>
				<path style="fill-rule:evenodd;clip-rule:evenodd;fill:#54585B;" d="M234.95,95.55c0.1,0.2,0.033,0.434-0.2,0.7
					c-0.2,0.3-0.417,0.217-0.65-0.25c-0.066-0.433,0.051-0.667,0.351-0.7C234.717,95.233,234.884,95.317,234.95,95.55z"/>
			</g>
		</g>
		<g>
			<g>
				<path style="fill-rule:evenodd;clip-rule:evenodd;fill:#54585B;" d="M225.75,88.35c0.134,0.267-0.017,0.566-0.45,0.9
					s-0.75,0.15-0.95-0.55c0.134-0.7,0.4-1,0.801-0.9C225.55,87.867,225.75,88.05,225.75,88.35z"/>
			</g>
		</g>
		<g>
			<g>
				<path style="fill-rule:evenodd;clip-rule:evenodd;fill:#54585B;" d="M126.95,187.4c0.233,0.199,0.267,0.416,0.1,0.649
					c-0.167,0.2-0.35,0.184-0.55-0.05c-0.033-0.233-0.05-0.4-0.05-0.5C126.483,187.3,126.65,187.267,126.95,187.4z"/>
			</g>
		</g>
		<g>
			<g>
				<path style="fill-rule:evenodd;clip-rule:evenodd;fill:#54585B;" d="M120.8,195.45c-0.167-0.667-0.033-1.033,0.4-1.101
					c0.367-0.1,0.65-0.017,0.85,0.25c0.267,0.434,0.184,0.817-0.25,1.15C121.4,196.083,121.067,195.983,120.8,195.45z"/>
			</g>
		</g>
		<g>
			<g>
				<path style="fill-rule:evenodd;clip-rule:evenodd;fill:#54585B;" d="M130.9,180c0.1,0.1,0.067,0.267-0.1,0.5
					c-0.167,0.233-0.35,0.184-0.55-0.15c-0.067-0.333,0.017-0.517,0.25-0.55C130.7,179.767,130.833,179.833,130.9,180z"/>
			</g>
		</g>
		<g>
			<g>
				<path style="fill-rule:evenodd;clip-rule:evenodd;fill:#54585B;" d="M134.9,145.75c0.1,0.1,0.067,0.267-0.1,0.5
					c-0.167,0.233-0.35,0.184-0.55-0.15c-0.067-0.333,0.017-0.517,0.25-0.55C134.7,145.517,134.833,145.583,134.9,145.75z"/>
			</g>
		</g>
		<g>
			<g>
				<path style="fill-rule:evenodd;clip-rule:evenodd;fill:#54585B;" d="M177.7,123.8c-0.4,1.233-0.8,1.3-1.2,0.2
					c0.134-0.567,0.366-0.8,0.7-0.7C177.533,123.367,177.7,123.533,177.7,123.8z"/>
			</g>
		</g>
		<g>
			<g>
				<path style="fill-rule:evenodd;clip-rule:evenodd;fill:#54585B;" d="M117.2,215.45c0.033,0.7-0.4,1.133-1.3,1.3
					c-0.867,0.167-1.233-0.3-1.1-1.4c0.434-1,0.967-1.366,1.6-1.1S117.3,214.917,117.2,215.45z"/>
			</g>
		</g>
		<g>
			<g>
				<path style="fill-rule:evenodd;clip-rule:evenodd;fill:#54585B;" d="M111.4,237.65c0.267,0.267,0.167,0.699-0.3,1.3
					c-0.434,0.6-0.917,0.467-1.45-0.4c-0.066-1.066,0.184-1.566,0.75-1.5C110.9,237.083,111.233,237.283,111.4,237.65z"/>
			</g>
		</g>
		<g>
			<g>
				<path style="fill-rule:evenodd;clip-rule:evenodd;fill:#54585B;" d="M110.75,247.1c0.167-0.199,0.333-0.216,0.5-0.05
					c0.233,0.233,0.25,0.483,0.05,0.75c-0.167,0.233-0.367,0.184-0.6-0.149C110.567,247.483,110.583,247.3,110.75,247.1z"/>
			</g>
		</g>
		<g>
			<g>
				<path style="fill-rule:evenodd;clip-rule:evenodd;fill:#54585B;" d="M111.8,227.8c0.3,0.5,0.233,0.9-0.2,1.2
					c-0.434,0.333-0.767,0.2-1-0.4c-0.133-0.433-0.017-0.767,0.35-1S111.6,227.434,111.8,227.8z"/>
			</g>
		</g>
		<g>
			<g>
				<path style="fill-rule:evenodd;clip-rule:evenodd;fill:#54585B;" d="M119.75,202.2c0.033,0.2-0.033,0.316-0.2,0.35
					c-0.167,0.033-0.25-0.033-0.25-0.2c0-0.166,0.067-0.267,0.2-0.3C119.633,202.05,119.717,202.1,119.75,202.2z"/>
			</g>
		</g>
		<g>
			<g>
				<path style="fill-rule:evenodd;clip-rule:evenodd;fill:#54585B;" d="M125.9,192.5c0.1,0.1,0.067,0.267-0.1,0.5
					c-0.167,0.233-0.35,0.184-0.55-0.15c-0.067-0.333,0.017-0.517,0.25-0.55C125.7,192.267,125.833,192.333,125.9,192.5z"/>
			</g>
		</g>
		<g>
			<g>
				<path style="fill-rule:evenodd;clip-rule:evenodd;fill:#54585B;" d="M119.45,208.35c0.167,0.4,0.117,0.634-0.15,0.7
					c-0.3,0.101-0.433,0.017-0.4-0.25c-0.1-0.133-0.066-0.283,0.1-0.45C119.133,208.15,119.283,208.15,119.45,208.35z"/>
			</g>
		</g>
		<g>
			<g>
				<path style="fill-rule:evenodd;clip-rule:evenodd;fill:#54585B;" d="M121.25,254.95c-0.367-0.267-0.45-0.55-0.25-0.851
					c0.2-0.3,0.417-0.383,0.65-0.25c0.434,0.2,0.567,0.5,0.4,0.9C121.883,255.15,121.617,255.217,121.25,254.95z"/>
			</g>
		</g>
		<g>
			<g>
				<path style="fill-rule:evenodd;clip-rule:evenodd;fill:#54585B;" d="M128.65,254.85c0.333,0.634,0.2,0.817-0.4,0.551
					c-0.2-0.367-0.2-0.567,0-0.601C128.35,254.8,128.483,254.816,128.65,254.85z"/>
			</g>
		</g>
		<g>
			<g>
				<path style="fill-rule:evenodd;clip-rule:evenodd;fill:#54585B;" d="M117.05,251.05c0.467,0.134,0.633,0.367,0.5,0.7
					c-0.167,0.333-0.383,0.434-0.65,0.3c-0.433-0.233-0.566-0.467-0.4-0.7C116.633,251.116,116.817,251.017,117.05,251.05z"/>
			</g>
		</g>
		<g>
			<g>
				<path style="fill-rule:evenodd;clip-rule:evenodd;fill:#54585B;" d="M108.5,242.4c0.3,0.3,0.25,0.416-0.15,0.35
					c-0.033-0.033-0.05-0.083-0.05-0.15C108.267,242.434,108.333,242.366,108.5,242.4z"/>
			</g>
		</g>
		<g>
			<g>
				<path style="fill-rule:evenodd;clip-rule:evenodd;fill:#54585B;" d="M115.3,220.8c0.167,0.233,0.167,0.4,0,0.5
					c-0.2,0.066-0.316,0.017-0.35-0.149c-0.067-0.101-0.05-0.217,0.05-0.351C115.1,220.7,115.2,220.7,115.3,220.8z"/>
			</g>
		</g>
		<g>
			<g>
				<path style="fill-rule:evenodd;clip-rule:evenodd;fill:#54585B;" d="M135.1,250.45c0,0.333-0.184,0.533-0.55,0.6
					c-0.333,0.066-0.466-0.116-0.4-0.55c0.067-0.267,0.25-0.417,0.55-0.45C135.033,250.017,135.167,250.15,135.1,250.45z"/>
			</g>
		</g>
		<g>
			<g>
				<path style="fill-rule:evenodd;clip-rule:evenodd;fill:#54585B;" d="M146.6,154.4c0.2,0.5,0.117,0.8-0.25,0.899
					c-0.399,0.101-0.583-0.033-0.55-0.399c-0.033-0.2,0.033-0.4,0.2-0.601S146.366,154.134,146.6,154.4z"/>
			</g>
		</g>
		<g>
			<g>
				<path style="fill-rule:evenodd;clip-rule:evenodd;fill:#54585B;" d="M145.1,159.5c0.067,0.3-0.033,0.483-0.3,0.55
					c-0.233,0.033-0.35-0.083-0.35-0.35c0-0.233,0.1-0.367,0.3-0.4C144.917,159.267,145.033,159.333,145.1,159.5z"/>
			</g>
		</g>
		<g>
			<g>
				<path style="fill-rule:evenodd;clip-rule:evenodd;fill:#54585B;" d="M135.8,178.75c0.067,0.733-0.233,1.167-0.9,1.3
					c-0.7,0.101-1-0.25-0.9-1.05c0.067-0.566,0.383-0.884,0.95-0.95C135.483,177.983,135.767,178.217,135.8,178.75z"/>
			</g>
		</g>
		<g>
			<g>
				<path style="fill-rule:evenodd;clip-rule:evenodd;fill:#54585B;" d="M127.6,199.25c0.066,0.3-0.033,0.483-0.3,0.55
					c-0.233,0.033-0.35-0.083-0.35-0.35c0-0.233,0.1-0.367,0.3-0.4C127.417,199.017,127.533,199.083,127.6,199.25z"/>
			</g>
		</g>
		<g>
			<g>
				<path style="fill-rule:evenodd;clip-rule:evenodd;fill:#54585B;" d="M148.25,156.15c0.3,0.3,0.25,0.416-0.15,0.35
					c-0.033-0.033-0.05-0.083-0.05-0.15C148.017,156.184,148.083,156.116,148.25,156.15z"/>
			</g>
		</g>
		<g>
			<g>
				<path style="fill-rule:evenodd;clip-rule:evenodd;fill:#54585B;" d="M142.95,163.55c0.166,0.2,0.05,0.434-0.351,0.7
					c-0.366,0.267-0.633,0.116-0.8-0.45c0.134-0.7,0.351-0.95,0.65-0.75C142.616,163.15,142.783,163.316,142.95,163.55z"/>
			</g>
		</g>
		<g>
			<g>
				<path style="fill-rule:evenodd;clip-rule:evenodd;fill:#54585B;" d="M27.95,143.5c0.4,0.4,0.433,0.733,0.1,1
					c-0.3,0.267-0.566,0.233-0.8-0.1c-0.233-0.267-0.233-0.534,0-0.801C27.45,143.333,27.683,143.3,27.95,143.5z"/>
			</g>
		</g>
		<g>
			<g>
				<path style="fill-rule:evenodd;clip-rule:evenodd;fill:#54585B;" d="M30.3,135.7c0.333,0.233,0.417,0.5,0.25,0.8
					c-0.2,0.3-0.433,0.317-0.7,0.05c-0.233-0.233-0.267-0.466-0.1-0.7S30.1,135.567,30.3,135.7z"/>
			</g>
		</g>
		<g>
			<g>
				<path style="fill-rule:evenodd;clip-rule:evenodd;fill:#54585B;" d="M42.4,126c0.233,0.133,0.283,0.3,0.15,0.5
					s-0.283,0.217-0.45,0.05c-0.167-0.167-0.2-0.333-0.1-0.5C42.1,125.917,42.233,125.9,42.4,126z"/>
			</g>
		</g>
		<g>
			<g>
				<path style="fill-rule:evenodd;clip-rule:evenodd;fill:#54585B;" d="M57.85,139.95c1,0.8,1.167,1.7,0.5,2.7
					c-0.633,1-1.417,1-2.35,0c-0.733-0.967-0.767-1.8-0.1-2.5C56.567,139.45,57.217,139.383,57.85,139.95z"/>
			</g>
		</g>
		<g>
			<g>
				<path style="fill-rule:evenodd;clip-rule:evenodd;fill:#54585B;" d="M68.9,148.9c0.367,0.166,0.5,0.449,0.4,0.85
					c-0.133,0.4-0.417,0.467-0.85,0.2c-0.333-0.3-0.4-0.584-0.2-0.851S68.667,148.767,68.9,148.9z"/>
			</g>
		</g>
		<g>
			<g>
				<path style="fill-rule:evenodd;clip-rule:evenodd;fill:#54585B;" d="M77.4,151.1c0.3,0.4,0.2,0.867-0.3,1.4
					c-0.5,0.5-0.967,0.35-1.4-0.45c-0.1-1.066,0.133-1.566,0.7-1.5C76.933,150.583,77.267,150.767,77.4,151.1z"/>
			</g>
		</g>
		<g>
			<g>
				<path style="fill-rule:evenodd;clip-rule:evenodd;fill:#54585B;" d="M50.35,129.4c0.167,0.767-0.067,1.233-0.7,1.4
					c-0.667,0.133-1-0.167-1-0.9c0-0.633,0.267-0.983,0.8-1.05C49.983,128.75,50.283,128.933,50.35,129.4z"/>
			</g>
		</g>
		<g>
			<g>
				<path style="fill-rule:evenodd;clip-rule:evenodd;fill:#54585B;" d="M33.45,130.45c0.2,0.033,0.3,0.216,0.3,0.55
					c0.033,0.3-0.167,0.367-0.6,0.2c-0.267-0.2-0.316-0.4-0.15-0.6C33.133,130.4,33.283,130.35,33.45,130.45z"/>
			</g>
		</g>
		<g>
			<g>
				<path style="fill-rule:evenodd;clip-rule:evenodd;fill:#54585B;" d="M18.05,110.2c0.133,0.033,0.217,0.15,0.25,0.35
					c0,0.167-0.117,0.217-0.35,0.15c-0.233-0.133-0.3-0.267-0.2-0.4C17.85,110.2,17.95,110.167,18.05,110.2z"/>
			</g>
		</g>
		<g>
			<g>
				<path style="fill-rule:evenodd;clip-rule:evenodd;fill:#54585B;" d="M22.75,112.05c0.333,0.167,0.433,0.483,0.3,0.95
					c-0.133,0.433-0.466,0.483-1,0.15c-0.367-0.467-0.4-0.816-0.1-1.05C22.283,111.867,22.55,111.85,22.75,112.05z"/>
			</g>
		</g>
		<g>
			<g>
				<path style="fill-rule:evenodd;clip-rule:evenodd;fill:#54585B;" d="M37.9,105.25c0.733,0.133,1.033,0.45,0.9,0.95
					c-0.133,0.533-0.45,0.683-0.95,0.45c-0.333-0.066-0.517-0.316-0.55-0.75C37.233,105.433,37.433,105.217,37.9,105.25z"/>
			</g>
		</g>
		<g>
			<g>
				<path style="fill-rule:evenodd;clip-rule:evenodd;fill:#54585B;" d="M53.3,92c0.1,1.067-0.183,1.2-0.85,0.4
					c-0.067-0.233,0.017-0.417,0.25-0.55C52.967,91.683,53.167,91.733,53.3,92z"/>
			</g>
		</g>
		<g>
			<g>
				<path style="fill-rule:evenodd;clip-rule:evenodd;fill:#54585B;" d="M45.9,95.45c0.233,0.167,0.283,0.367,0.15,0.6
					c-0.167,0.2-0.333,0.184-0.5-0.05c-0.033-0.167-0.05-0.3-0.05-0.4C45.5,95.367,45.633,95.317,45.9,95.45z"/>
			</g>
		</g>
		<g>
			<g>
				<path style="fill-rule:evenodd;clip-rule:evenodd;fill:#54585B;" d="M88.15,133.6c0.733-0.934,1.633-1.067,2.7-0.4
					c1.066,0.667,1.083,1.5,0.05,2.5c-1.3,0.833-2.233,0.833-2.8,0C87.6,134.867,87.617,134.167,88.15,133.6z"/>
			</g>
		</g>
		<g>
			<g>
				<path style="fill-rule:evenodd;clip-rule:evenodd;fill:#54585B;" d="M97.05,136.25c0.233-0.133,0.383-0.117,0.45,0.05
					c0.067,0.167,0.05,0.267-0.05,0.3c-0.267,0.133-0.4,0.133-0.4,0C97.05,136.4,97.05,136.283,97.05,136.25z"/>
			</g>
		</g>
		<g>
			<g>
				<path style="fill-rule:evenodd;clip-rule:evenodd;fill:#54585B;" d="M83.4,127.7c0.5-0.4,0.934-0.383,1.3,0.05
					s0.283,0.783-0.25,1.05c-0.5,0.233-0.883,0.167-1.15-0.2C83.033,128.233,83.067,127.933,83.4,127.7z"/>
			</g>
		</g>
		<g>
			<g>
				<path style="fill-rule:evenodd;clip-rule:evenodd;fill:#54585B;" d="M90.5,139.25c0.067-0.133,0.3-0.133,0.7,0
					c0.4,0.167,0.383,0.467-0.05,0.9c-0.533,0.133-0.833,0.033-0.9-0.3C90.183,139.517,90.267,139.317,90.5,139.25z"/>
			</g>
		</g>
		<g>
			<g>
				<path style="fill-rule:evenodd;clip-rule:evenodd;fill:#54585B;" d="M79.7,120.4c0.367-0.2,0.716-0.083,1.05,0.35
					c0.3,0.4,0.133,0.7-0.5,0.9c-0.567,0.067-0.883-0.117-0.95-0.55C79.2,120.7,79.333,120.467,79.7,120.4z"/>
			</g>
		</g>
		<g>
			<g>
				<path style="fill-rule:evenodd;clip-rule:evenodd;fill:#54585B;" d="M77.3,126.3c0.667-0.4,1.3-0.267,1.9,0.4
					c0.6,0.667,0.367,1.216-0.7,1.65c-0.833,0.2-1.4-0.033-1.7-0.7C76.533,126.983,76.7,126.533,77.3,126.3z"/>
			</g>
		</g>
		<g>
			<g>
				<path style="fill-rule:evenodd;clip-rule:evenodd;fill:#54585B;" d="M102,134.6c0.067-0.1,0.15-0.117,0.25-0.05
					c0.1,0.067,0.1,0.133,0,0.2c-0.067,0.1-0.133,0.117-0.2,0.05C101.95,134.733,101.933,134.667,102,134.6z"/>
			</g>
		</g>
		<g>
			<g>
				<path style="fill-rule:evenodd;clip-rule:evenodd;fill:#54585B;" d="M76,113.2c0.1-0.133,0.267-0.184,0.5-0.15
					c0.233,0,0.233,0.184,0,0.55c-0.133,0.1-0.283,0.083-0.45-0.05C75.883,113.45,75.867,113.333,76,113.2z"/>
			</g>
		</g>
		<g>
			<g>
				<path style="fill-rule:evenodd;clip-rule:evenodd;fill:#54585B;" d="M74.35,118.45c0.433-0.534,0.95-0.6,1.55-0.2
					c0.633,0.4,0.633,0.883,0,1.45c-0.767,0.466-1.3,0.45-1.6-0.05C74.033,119.183,74.05,118.783,74.35,118.45z"/>
			</g>
		</g>
		<g>
			<g>
				<path style="fill-rule:evenodd;clip-rule:evenodd;fill:#54585B;" d="M79.45,115.65c0.367-0.566,0.617-0.7,0.75-0.4
					c0.066,0.133,0.083,0.3,0.05,0.5c0,0.167-0.15,0.267-0.45,0.3C79.533,116.083,79.417,115.95,79.45,115.65z"/>
			</g>
		</g>
		<g>
			<g>
				<path style="fill-rule:evenodd;clip-rule:evenodd;fill:#54585B;" d="M70.9,97.95c0.1-0.534,0.367-0.75,0.8-0.65
					c0.433,0.067,0.583,0.317,0.45,0.75c-0.267,0.534-0.55,0.717-0.85,0.55C71.067,98.433,70.933,98.217,70.9,97.95z"/>
			</g>
		</g>
		<g>
			<g>
				<path style="fill-rule:evenodd;clip-rule:evenodd;fill:#54585B;" d="M73.45,105c0.433-0.4,0.933-0.4,1.5,0
					c0.533,0.4,0.466,0.85-0.2,1.35c-0.7,0.333-1.183,0.267-1.45-0.2C73.067,105.65,73.117,105.267,73.45,105z"/>
			</g>
		</g>
		<g>
			<g>
				<path style="fill-rule:evenodd;clip-rule:evenodd;fill:#54585B;" d="M63.7,92.35c0.6-0.567,1.1-0.617,1.5-0.15
					c0.433,0.5,0.367,0.883-0.2,1.15c-0.367,0.3-0.75,0.3-1.15,0C63.417,93.05,63.367,92.717,63.7,92.35z"/>
			</g>
		</g>
		<g>
			<g>
				<path style="fill-rule:evenodd;clip-rule:evenodd;fill:#54585B;" d="M214.2,112.5c0.3-0.067,0.467,0.017,0.5,0.25
					c0.066,0.267-0.033,0.4-0.3,0.4s-0.417-0.1-0.45-0.3C213.917,112.65,214,112.533,214.2,112.5z"/>
			</g>
		</g>
		<g>
			<g>
				<path style="fill-rule:evenodd;clip-rule:evenodd;fill:#54585B;" d="M200.65,126.7c0.199,0.033,0.3,0.216,0.3,0.55
					c0.033,0.3-0.167,0.367-0.601,0.2c-0.267-0.2-0.316-0.4-0.149-0.6C200.333,126.65,200.483,126.6,200.65,126.7z"/>
			</g>
		</g>
		<g>
			<g>
				<path style="fill-rule:evenodd;clip-rule:evenodd;fill:#54585B;" d="M241.45,100.95c0.033,0.2-0.033,0.316-0.2,0.35
					c-0.167,0.034-0.25-0.033-0.25-0.2c0-0.167,0.066-0.267,0.2-0.3C241.333,100.8,241.417,100.85,241.45,100.95z"/>
			</g>
		</g>
		<g>
			<g>
				<path style="fill-rule:evenodd;clip-rule:evenodd;fill:#54585B;" d="M101.35,118.6c-0.467-1.133-0.283-1.817,0.55-2.05
					c0.833-0.267,1.3-0.017,1.4,0.75c0.267,0.733,0.1,1.284-0.5,1.65C102.167,119.283,101.683,119.167,101.35,118.6z"/>
			</g>
		</g>
		<g>
			<g>
				<path style="fill-rule:evenodd;clip-rule:evenodd;fill:#54585B;" d="M100.95,110.45c-0.3-0.3-0.3-0.667,0-1.1
					c0.3-0.434,0.65-0.367,1.05,0.2c0.2,0.5,0.117,0.85-0.25,1.05C101.383,110.8,101.117,110.75,100.95,110.45z"/>
			</g>
		</g>
		<g>
			<g>
				<path style="fill-rule:evenodd;clip-rule:evenodd;fill:#54585B;" d="M93.95,101.95c-0.1-0.8,0.117-1.184,0.65-1.15
					c0.566,0.034,0.783,0.267,0.65,0.7c0.033,0.333-0.133,0.583-0.5,0.75C94.35,102.45,94.083,102.35,93.95,101.95z"/>
			</g>
		</g>
		<g>
			<g>
				<path style="fill-rule:evenodd;clip-rule:evenodd;fill:#54585B;" d="M98.3,102.6c0.2-0.6,0.534-0.817,1-0.65
					c0.467,0.167,0.583,0.466,0.35,0.9c-0.2,0.433-0.5,0.583-0.9,0.45C98.383,103.2,98.233,102.967,98.3,102.6z"/>
			</g>
		</g>
		<g>
			<g>
				<path style="fill-rule:evenodd;clip-rule:evenodd;fill:#54585B;" d="M95.9,108c0.1-0.133,0.25-0.15,0.45-0.05
					c0.167,0.1,0.15,0.233-0.05,0.4C95.9,108.583,95.767,108.467,95.9,108z"/>
			</g>
		</g>
		<g>
			<g>
				<path style="fill-rule:evenodd;clip-rule:evenodd;fill:#54585B;" d="M85.35,72.05c-0.267-0.3-0.283-0.483-0.05-0.55
					c0.333-0.1,0.45-0.067,0.35,0.1c-0.066-0.033-0.066,0.017,0,0.15C85.75,71.95,85.65,72.05,85.35,72.05z"/>
			</g>
		</g>
		<g>
			<g>
				<path style="fill-rule:evenodd;clip-rule:evenodd;fill:#54585B;" d="M91.9,84.75c0.3-0.467,0.65-0.567,1.05-0.3
					c0.4,0.233,0.417,0.533,0.05,0.9c-0.3,0.333-0.6,0.383-0.9,0.15C91.767,85.267,91.7,85.017,91.9,84.75z"/>
			</g>
		</g>
		<g>
			<g>
				<path style="fill-rule:evenodd;clip-rule:evenodd;fill:#54585B;" d="M93.25,93.6c0.833,0.2,0.933,0.45,0.3,0.75
					c-0.333,0-0.5-0.117-0.5-0.35C93.017,93.8,93.083,93.667,93.25,93.6z"/>
			</g>
		</g>
		<g>
			<g>
				<path style="fill-rule:evenodd;clip-rule:evenodd;fill:#54585B;" d="M90.3,77.1c0.133-0.233,0.3-0.283,0.5-0.15
					c0.2,0.133,0.217,0.283,0.05,0.45c-0.167,0.167-0.333,0.2-0.5,0.1C90.217,77.367,90.2,77.233,90.3,77.1z"/>
			</g>
		</g>
		<g>
			<g>
				<path style="fill-rule:evenodd;clip-rule:evenodd;fill:#54585B;" d="M79.4,74.25c-0.4,0.067-0.633-0.067-0.7-0.4
					c-0.1-0.333,0.033-0.5,0.4-0.5c0.333,0,0.517,0.133,0.55,0.4C79.717,74.017,79.633,74.183,79.4,74.25z"/>
			</g>
		</g>
		<g>
			<g>
				<path style="fill-rule:evenodd;clip-rule:evenodd;fill:#54585B;" d="M73.85,77.5c-0.2,0.033-0.317-0.017-0.35-0.15
					c0-0.167,0.083-0.25,0.25-0.25s0.267,0.066,0.3,0.2C74.05,77.4,73.983,77.467,73.85,77.5z"/>
			</g>
		</g>
		<g>
			<g>
				<path style="fill-rule:evenodd;clip-rule:evenodd;fill:#54585B;" d="M60.5,84.6c1.3,0.333,1.433,0.75,0.4,1.25
					c-0.633-0.067-0.917-0.283-0.85-0.65C60.083,84.833,60.233,84.633,60.5,84.6z"/>
			</g>
		</g>
		<g>
			<g>
				<path style="fill-rule:evenodd;clip-rule:evenodd;fill:#54585B;" d="M188,115.15c0.7-0.533,1.283-0.5,1.75,0.1
					c0.5,0.567,0.384,1.033-0.35,1.4c-0.667,0.333-1.167,0.25-1.5-0.25C187.566,115.9,187.6,115.483,188,115.15z"/>
			</g>
		</g>
		<g>
			<g>
				<path style="fill-rule:evenodd;clip-rule:evenodd;fill:#54585B;" d="M187.4,120.5c0.267-0.1,0.416-0.067,0.449,0.1
					c0.034,0.2-0.033,0.3-0.199,0.3c-0.067,0.033-0.15,0-0.25-0.1C187.267,120.7,187.267,120.6,187.4,120.5z"/>
			</g>
		</g>
		<g>
			<g>
				<path style="fill-rule:evenodd;clip-rule:evenodd;fill:#54585B;" d="M191.6,106.5c0.467-0.767,1.017-0.967,1.65-0.6
					c0.634,0.4,0.7,0.883,0.2,1.45c-0.5,0.566-1,0.683-1.5,0.35C191.45,107.367,191.333,106.967,191.6,106.5z"/>
			</g>
		</g>
		<g>
			<g>
				<path style="fill-rule:evenodd;clip-rule:evenodd;fill:#54585B;" d="M195.75,92.1c0.167-0.133,0.333-0.083,0.5,0.15
					c0.2,0.233,0.134,0.433-0.2,0.6c-0.5,0-0.684-0.1-0.55-0.3C195.7,92.317,195.783,92.167,195.75,92.1z"/>
			</g>
		</g>
		<g>
			<g>
				<path style="fill-rule:evenodd;clip-rule:evenodd;fill:#54585B;" d="M196.2,97.9c0.467-0.3,0.767-0.283,0.899,0.05
					c0.134,0.333,0.084,0.55-0.149,0.65c-0.334,0.2-0.584,0.167-0.75-0.1C196.033,98.267,196.033,98.067,196.2,97.9z"/>
			</g>
		</g>
		<g>
			<g>
				<path style="fill-rule:evenodd;clip-rule:evenodd;fill:#54585B;" d="M197.2,77.1c0.399-0.434,0.75-0.5,1.05-0.2
					c0.267,0.333,0.25,0.617-0.05,0.85c-0.3,0.267-0.584,0.3-0.851,0.1C197.083,77.65,197.033,77.4,197.2,77.1z"/>
			</g>
		</g>
		<g>
			<g>
				<path style="fill-rule:evenodd;clip-rule:evenodd;fill:#54585B;" d="M198,83.65c0.3-0.2,0.55-0.167,0.75,0.1
					c0.233,0.267,0.167,0.5-0.2,0.7c-0.434,0.1-0.684,0.017-0.75-0.25C197.733,83.9,197.8,83.717,198,83.65z"/>
			</g>
		</g>
		<g>
			<g>
				<path style="fill-rule:evenodd;clip-rule:evenodd;fill:#54585B;" d="M200.7,63.65c0.533-0.3,0.95-0.217,1.25,0.25
					c0.267,0.467,0.133,0.783-0.4,0.95c-0.5,0.167-0.85,0.066-1.05-0.3S200.366,63.883,200.7,63.65z"/>
			</g>
		</g>
		<g>
			<g>
				<path style="fill-rule:evenodd;clip-rule:evenodd;fill:#54585B;" d="M198.4,70.1c0.166-0.167,0.35-0.167,0.55,0
					c0.2,0.133,0.149,0.3-0.15,0.5c-0.2,0.1-0.366,0.066-0.5-0.1C198.2,70.333,198.233,70.2,198.4,70.1z"/>
			</g>
		</g>
		<g>
			<g>
				<path style="fill-rule:evenodd;clip-rule:evenodd;fill:#54585B;" d="M206.2,64.65c0.333-0.066,0.533,0.083,0.6,0.45
					c0.066,0.333-0.1,0.483-0.5,0.45c-0.434-0.1-0.6-0.267-0.5-0.5C205.866,64.783,206,64.65,206.2,64.65z"/>
			</g>
		</g>
		<g>
			<g>
				<path style="fill-rule:evenodd;clip-rule:evenodd;fill:#54585B;" d="M211.55,69.8c0.334-0.066,0.517,0.034,0.55,0.3
					c0.067,0.267-0.05,0.4-0.35,0.4c-0.267,0-0.417-0.117-0.45-0.35C211.267,69.95,211.35,69.833,211.55,69.8z"/>
			</g>
		</g>
		<g>
			<g>
				<path style="fill-rule:evenodd;clip-rule:evenodd;fill:#54585B;" d="M215.2,70.95c0.3-0.067,0.5,0.033,0.6,0.3
					c0.066,0.267-0.05,0.4-0.35,0.4c-0.267,0-0.434-0.117-0.5-0.35C214.917,71.1,215,70.983,215.2,70.95z"/>
			</g>
		</g>
		<path style="fill-rule:evenodd;clip-rule:evenodd;fill:#696F71;" d="M105.9,88.8l0.95,1.45c0.733,1.067,1.35,1.8,1.85,2.2
			c0.767,0.667,1.367,1.45,1.8,2.35h-2.65c-0.434-0.533-0.85-1.2-1.25-2C105.833,91.267,105.6,89.933,105.9,88.8z"/>
		<g>
			<path style="fill-rule:evenodd;clip-rule:evenodd;fill:#696F71;" d="M121,118.55l-1.05,0.35c2.2-2.733,3.216-4.483,3.05-5.25
				c-0.1-0.5-0.733-1.267-1.9-2.3l-1.75-1.4l0.65-0.15l5.35,4.4L121,118.55z"/>
			<path style="fill-rule:evenodd;clip-rule:evenodd;fill:#CDD1D2;" d="M121.7,111.05l-1.7-1.25l7.5,4.25l-6.5,4.5
				c0.533-0.466,1.05-1,1.55-1.6c1-1.267,1.4-2.317,1.2-3.15C123.55,112.967,122.867,112.05,121.7,111.05z"/>
		</g>
		<g>
			<polygon style="fill-rule:evenodd;clip-rule:evenodd;fill:#696F71;" points="131.5,110.8 136,116.05 134.85,116.4 130.7,111.15 
							"/>
			<polygon style="fill-rule:evenodd;clip-rule:evenodd;fill:#696F71;" points="135.85,116.9 137.35,117.2 135.75,125.55 
				135.2,124.65 			"/>
			<polygon style="fill-rule:evenodd;clip-rule:evenodd;fill:#696F71;" points="138,118.05 139.2,117.55 143.25,124.8 
				142.25,124.55 			"/>
			<polygon style="fill-rule:evenodd;clip-rule:evenodd;fill:#696F71;" points="138.75,107.55 137.35,115.4 135.85,114.45 
				138.2,107.7 			"/>
			<polygon style="fill-rule:evenodd;clip-rule:evenodd;fill:#696F71;" points="144.75,112.3 138.1,115.3 138.25,114.3 
				143.25,112.3 			"/>
			<polygon style="fill-rule:evenodd;clip-rule:evenodd;fill:#CDD1D2;" points="137,114.55 138.75,107.55 138.75,114.8 
				144.75,112.3 140,115.55 147.5,118.05 140.25,117.55 143.25,124.8 138.5,117.8 135.75,125.55 136.75,117.3 128.25,117.05 
				135.5,115.55 131.5,110.8 			"/>
		</g>
		<g>
			<polygon style="fill-rule:evenodd;clip-rule:evenodd;fill:#696F71;" points="155.75,111.3 150.7,114.65 155.75,120.55 
				153.7,119.95 147,114.4 154,111.3 			"/>
			<path style="fill-rule:evenodd;clip-rule:evenodd;fill:#CDD1D2;" d="M155.75,111.3c-0.5,0.333-1.017,0.733-1.55,1.2
				c-1.033,0.967-1.601,1.817-1.7,2.55c-0.1,0.733,0.417,1.867,1.55,3.4c0.566,0.767,1.134,1.466,1.7,2.1l-7.5-6.25L155.75,111.3z"
				/>
		</g>
		<path style="fill-rule:evenodd;clip-rule:evenodd;fill:#CDD1D2;" d="M227.45,85.95l2.25-0.45c1.833-0.1,3.583,0.45,5.25,1.65
			c1.666,1.167,3.916,4.184,6.75,9.05c1.434,2.433,2.684,4.75,3.75,6.95c-0.767-1.333-1.367-2.233-1.8-2.7
			c-0.301-0.267-0.301,0.316,0,1.75c0.133,0.733,0.3,1.483,0.5,2.25c-4-7.667-7.067-12.767-9.2-15.3c-1.3-1.6-2.95-2.617-4.95-3.05
			L227.45,85.95z"/>
		<path style="fill-rule:evenodd;clip-rule:evenodd;fill:#CDD1D2;" d="M215.8,126.95c1.667,0.1,3.2,0.716,4.601,1.85
			c1.233,1.034,2.25,2.417,3.05,4.15c1,2.233,1.833,4.9,2.5,8c-0.334-1.1-0.851-2.383-1.55-3.85c-1.434-2.967-3.084-5.35-4.95-7.15
			c-1.867-1.8-4.283-2.383-7.25-1.75l-3.9,1.45l2.45-1.4C212.65,127.317,214.333,126.883,215.8,126.95z"/>
		<g>
			<g>
				<path style="fill-rule:evenodd;clip-rule:evenodd;fill:#C8C9CB;" d="M113.35,210.8c0.467,1.2,0.5,1.917,0.1,2.15
					c-0.2,0.133-0.45,0.133-0.75,0l-8.4-3.5l0.85-2L113.35,210.8z"/>
				<polygon style="fill-rule:evenodd;clip-rule:evenodd;fill:#E9EAEA;" points="106.15,208.95 106.5,208.3 113,210.9 113.2,211.7 
									"/>
				<polygon style="fill-rule:evenodd;clip-rule:evenodd;fill:#A0A1A4;" points="113.35,212.45 113,212.9 106.65,210.15 
					106.55,209.55 				"/>
			</g>
			<g>
				<polygon style="fill-rule:evenodd;clip-rule:evenodd;fill:#939A9D;" points="106,205.75 105.35,208.8 103.3,213.15 
					101.9,212.95 104.35,208.95 104.75,205.15 				"/>
				<polygon style="fill-rule:evenodd;clip-rule:evenodd;fill:#939A9D;" points="103.65,207.65 102.9,210.1 101.85,210.4 103,206.9 
									"/>
				<polygon style="fill-rule:evenodd;clip-rule:evenodd;fill:#939A9D;" points="106.1,208.8 107.5,210.65 106.85,211.95 105,209.3 
									"/>
				<polygon style="fill-rule:evenodd;clip-rule:evenodd;fill:#939A9D;" points="107.4,204.7 108.7,205.15 109.5,208.3 108,212.65 
					106.25,214.1 105,214.2 107.5,211.3 108.55,207.8 				"/>
				<path style="fill-rule:evenodd;clip-rule:evenodd;fill:#696F71;" d="M102.75,212.55l1.75,0.25l-0.1-2.85L102.75,212.55z
					 M107.55,208.55l-1.9,0.851l1.25,1.649L107.55,208.55z M102.3,207.2l2.35-2.65l2.75,0.15l1.15,3.1l-1.25,4.25l-2.3,2.15
					l-3.35-0.75l-0.6-3.15L102.3,207.2z M102.3,209.65l1.75-0.95l-1-1.3L102.3,209.65z M105.05,205.65v2.8l1.6-2.5L105.05,205.65z"
					/>
			</g>
		</g>
	</g>
	<g>
		<g>
			
				<linearGradient id="SVGID_8_" gradientUnits="userSpaceOnUse" x1="-248.5586" y1="-260.0293" x2="6.1523" y2="-260.0293" gradientTransform="matrix(-0.9999 0.0168 -0.0168 -0.9999 6.262958e-005 -9.387732e-006)">
				<stop  offset="0" style="stop-color:#E4B48B"/>
				<stop  offset="1" style="stop-color:#D27948"/>
			</linearGradient>
			<path style="fill-rule:evenodd;clip-rule:evenodd;fill:url(#SVGID_8_);" d="M15.05,240.4l1-6.101c3,3.134,10.25,6.233,21.75,9.3
				c23.067,6.134,55.917,8.983,98.55,8.551c42.634-0.4,73.733-3.934,93.301-10.601c6.1-2.066,10.683-4.333,13.75-6.8
				c1.566-1.233,2.5-2.25,2.8-3.05l0.8,6.95c0.7,5.033,1.483,8.649,2.35,10.85c0.867,2.167,3.75,5.35,8.65,9.55
				c2.434,2.066,4.783,3.934,7.05,5.601c-3.166,1.767-7.166,3.683-12,5.75c-9.633,4.133-18.55,6.933-26.75,8.399
				c-10.899,1.934-32.333,3.267-64.3,4c-28.7,0.667-56.25,0.717-82.65,0.15c-22.233-0.467-42.133-3.217-59.7-8.25
				c-8.767-2.5-15.316-4.967-19.65-7.4c1.267-1.467,2.7-3.233,4.3-5.3c3.167-4.1,5.517-7.566,7.05-10.4
				C12.883,248.767,14.117,245.033,15.05,240.4z"/>
			<g>
				<path style="fill-rule:evenodd;clip-rule:evenodd;fill:#BD7B54;" d="M196.45,262.75l0.55,9.1l20.8-1.8l13-4l-1.7-9l-4.949,2.15
					L196.45,262.75z M31.5,267.5l4.35,1.9l26.1,2.199v-9.3l-6-0.399L33,258.4L31.5,267.5z M124.75,274.05l33.8-0.2L158,264
					l-33.25,0.25V274.05z M159.5,264.05l0.55,9.75l14.65-0.1l20.85-1.75l-0.55-9l-10,1.25L159.5,264.05z M91.3,273.3l0.3-8.95
					L63.45,262.4v9.35l15.3,1.3L91.3,273.3z M99.05,264.9l-5.95-0.45l-0.3,8.899l30.45,0.65v-9.7L99.05,264.9z M109.25,254.45
					l1.5,0.05l-0.3,8.6l31.45-0.699l-0.301-5.2l1.5-0.101l0.301,5.301l33.199,0.25l-0.35-7.15l1.5-0.05l0.35,7.2l6.851,0.05
					l25.899-3.3l-0.3-14.25l1.5-0.051l0.3,14.101l11.4-1.45l20.6-9l-1.449-11.5l1.5-0.2l1.399,11.05l2.7-1.199l0.45,1.449
					L246,249.65l0.05,0.399l-1.35,0.15l-14.2,6.2l1.75,9.199l24.55-7.55l1.351,1.15l-6.101,1.85l1.65,9.05l-1.4,0.65l-1.7-9.25
					l-32.55,10.05l-3.649,0.3l0.149,8.4l-1.5,0.15L212.9,272l-33.75,2.85l0.649,7.45l-1.5,0.05l-0.649-7.399l-2.9,0.25l-32.65,0.25
					l-0.35,7.75h-1.5l0.35-7.75l-29.8-0.2l0.35,8.1h-1.5l-0.35-8.149l-30.55-0.65l-0.2,8.4l-1.5-0.05l0.2-8.45l-29.15-2.5v8.6
					l-1.5-0.2v-8.55l-11.1-0.95l-18.45-8.1l-1.3,10.75l-1.45-0.45l1.3-10.95L7,258.35l0.9-1.25l22.2,9.75l1.4-8.649h-0.15
					l-13.2-11.05h-0.2v-0.2l-3.7-3.101l0.4-1.6l3.3,2.75v-9.55h1.5v10.8L32,256.75l15.4,2.35l0.85-10.05l1.5,0.15l-0.9,10.1
					l7.3,1.101l21.45,1.5v-8.75h1.5V262l19.95,1.4l9.9-0.25L109.25,254.45z"/>
			</g>
		</g>
		<linearGradient id="SVGID_9_" gradientUnits="userSpaceOnUse" x1="16.0356" y1="244.6113" x2="246.2012" y2="244.6113">
			<stop  offset="0" style="stop-color:#EBC8AA"/>
			<stop  offset="1" style="stop-color:#F2DDC9"/>
		</linearGradient>
		<path style="fill-rule:evenodd;clip-rule:evenodd;fill:url(#SVGID_9_);" d="M16.05,234.05l14.15-0.2l-0.05,0.2
			c-0.233,4.767,11.633,8.217,35.6,10.351c19.633,1.767,43,2.416,70.1,1.949c33.466-0.6,57.05-1.767,70.75-3.5
			c18.233-2.3,27.25-6.216,27.051-11.75l12.55-0.199c0.133,9.666-10.851,16.816-32.95,21.449c-20.333,4.233-49.417,6.217-87.25,5.95
			c-35-0.233-60.45-1.649-76.35-4.25C26.783,250.384,15.583,243.717,16.05,234.05z"/>
		<path style="fill-rule:evenodd;clip-rule:evenodd;fill:#F5E5D6;" d="M233.2,243.55c-3.767,2.101-8.3,3.983-13.601,5.65
			c-6.166,1.934-12.633,3.3-19.399,4.1c-6.033,0.733-16.7,1.367-32,1.9l-21.2,0.6l26-2.25l-8.75-1.5l16.05-0.35
			c11.934-0.467,21.066-1.267,27.4-2.4c7.366-1.333,13.467-2.899,18.3-4.7c4.5-1.666,7.4-3.35,8.7-5.05
			c1.467-2.066,2.483-3.467,3.05-4.2c0.9-1.133,1.717-1.649,2.45-1.55c1.066,0.167,0.967,1.351-0.3,3.55
			C238.467,239.783,236.233,241.85,233.2,243.55z"/>
		<path style="fill-rule:evenodd;clip-rule:evenodd;fill:#F5E5D6;" d="M94.25,253.3l11,2c-2.867,0-6.717-0.1-11.55-0.3
			c-9.667-0.366-19.4-1.017-29.2-1.95c-10.867-1.033-19.9-2.6-27.1-4.7c-6.033-1.733-10.25-3.666-12.65-5.8
			c-1.767-1.566-2.3-2.916-1.6-4.05l1.6-1.2l0.4,1.8c0.667,1.367,2.033,2.517,4.1,3.45c3.367,1.533,7.05,2.8,11.05,3.8
			c6.1,1.567,14.083,2.967,23.95,4.2C79.083,252.384,89.083,253.3,94.25,253.3z"/>
		<path style="fill-rule:evenodd;clip-rule:evenodd;fill:#DFA272;" d="M127.35,249.7c-18.7,0.866-34.15,0.733-46.35-0.4
			c-15.533-1.467-26.383-2.783-32.55-3.95c-7.267-1.366-12.75-3.3-16.45-5.8l1.65,0.9c1.633,0.733,3.917,1.45,6.85,2.149
			c9.333,2.267,23.167,3.917,41.5,4.95s35.467,1.434,51.4,1.2c7.933-0.134,14.05-0.366,18.35-0.7
			C144.85,248.717,136.717,249.267,127.35,249.7z"/>
		<path style="fill-rule:evenodd;clip-rule:evenodd;fill:#DFA272;" d="M234.2,235.05c-0.033,0.7-0.566,1.601-1.601,2.7
			c-2.033,2.167-5.5,4.184-10.399,6.05c-4.9,1.867-12.7,3.134-23.4,3.8l-44.05,1.7l50.95-4.5c9.866-0.866,17.583-2.75,23.149-5.649
			C231.616,237.684,233.4,236.316,234.2,235.05z"/>
	</g>
	<g>
		<path style="fill-rule:evenodd;clip-rule:evenodd;fill:#494F51;" d="M143.65,58.75c0.933-0.6,2.267-0.567,4,0.1
			c1.566,0.633,2.399,1.167,2.5,1.6c0.066,0.333-0.367,0.483-1.301,0.45c-0.966-0.033-1.866-0.233-2.699-0.6
			c-0.7-0.3-1.334-0.65-1.9-1.05L143.65,58.75z"/>
		<path style="fill-rule:evenodd;clip-rule:evenodd;fill:#CACBCD;" d="M169.65,45.5c-1.801,5.167-3.851,7.817-6.15,7.95
			c-1.733,0.1-4.083-0.367-7.05-1.4c-2.101-0.733-3.351-0.7-3.75,0.1c-0.5,0.967-1.117,2.633-1.851,5c-0.399,1.2-0.733,2.3-1,3.3
			c-1.1,0.133-2.216-0.034-3.35-0.5L144,58.8c0.566-1.233,1.217-2.617,1.95-4.15c1.467-3.033,2.649-5.2,3.55-6.5
			c0.833-1.233,2.566-1.383,5.2-0.45c3.2,1.1,5.133,1.583,5.8,1.45c1.267-0.3,2.733-2.417,4.4-6.35l2.1-5.85l4.7,0.85L169.65,45.5z"
			/>
		<g>
			<path style="fill-rule:evenodd;clip-rule:evenodd;fill:#A0A1A4;" d="M170,40.7l1.05,0.05c-0.767,3.2-1.666,5.85-2.7,7.95
				c-1.5,3.066-3.116,4.65-4.85,4.75c-1.733,0.1-4.083-0.367-7.05-1.4c-2.101-0.733-3.351-0.7-3.75,0.1
				c-0.5,0.967-1.117,2.633-1.851,5c-0.399,1.2-0.733,2.3-1,3.3c-1.1,0.133-2.216-0.034-3.35-0.5l-0.7-0.25
				c-0.633-0.2-0.983-0.4-1.05-0.6c2.3,0.233,3.634,0.217,4-0.05c0.2-0.133,0.833-1.6,1.9-4.4c1.1-2.8,1.75-4.3,1.949-4.5
				c0.167-0.167,2,0.267,5.5,1.3c3.5,1.033,5.5,1.367,6,1C165,51.85,166.967,47.933,170,40.7z"/>
		</g>
		<path style="fill-rule:evenodd;clip-rule:evenodd;fill:#E9EAEA;" d="M166,42.4l0.95,0.15c-1,3.067-2.2,5.233-3.601,6.5
			c-0.866,0.8-1.683,1.167-2.449,1.1L160,49.8l0.6-0.05c0.534-0.1,1.167-0.333,1.9-0.7s1.533-1.583,2.4-3.65L166,42.4z"/>
		<path style="fill-rule:evenodd;clip-rule:evenodd;fill:#E9EAEA;" d="M151.85,47.9c-0.267,0.067-0.566,0.217-0.899,0.45
			c-0.667,0.433-1.15,1.033-1.45,1.8c-0.5,1.2-1.517,3.833-3.05,7.9l-1.25-0.25c0.566-1.233,1.166-2.533,1.8-3.9
			c1.3-2.733,2.134-4.4,2.5-5c0.4-0.6,0.917-0.95,1.55-1.05C151.35,47.817,151.616,47.833,151.85,47.9z"/>
		<linearGradient id="SVGID_10_" gradientUnits="userSpaceOnUse" x1="146.0996" y1="23.5601" x2="199.0246" y2="23.5601">
			<stop  offset="0" style="stop-color:#84533A"/>
			<stop  offset="1" style="stop-color:#BC8E71"/>
		</linearGradient>
		<path style="fill-rule:evenodd;clip-rule:evenodd;fill:url(#SVGID_10_);" d="M172.35,10.15c7.934-0.3,14.75-1.267,20.45-2.9
			c2.834-0.833,4.884-1.633,6.15-2.4l-24.601,25.3l-3.649,12c-0.834,0.2-1.834,0.15-3-0.15c-0.733-0.2-1.283-0.45-1.65-0.75
			l-0.35-0.45l-0.351-11L146.1,5.55l6,2.55C157.7,9.733,164.45,10.417,172.35,10.15z"/>
		<path style="fill-rule:evenodd;clip-rule:evenodd;fill:#9B5E41;" d="M187.9,14c2.466-2,4.916-4.017,7.35-6.05L173,29.8l-3,12
			l-0.9-0.35L171.2,28.3l13.05-16.25c-0.733,1.1-1.45,2.233-2.15,3.4c-1.399,2.367-2.017,3.7-1.85,4
			C180.45,19.75,183,17.933,187.9,14z"/>
		<linearGradient id="SVGID_11_" gradientUnits="userSpaceOnUse" x1="145.8672" y1="5.46" x2="199.6846" y2="5.46">
			<stop  offset="0" style="stop-color:#744B35"/>
			<stop  offset="1" style="stop-color:#27201D"/>
		</linearGradient>
		<path style="fill-rule:evenodd;clip-rule:evenodd;fill:url(#SVGID_11_);" d="M188.5,0.5c7.866,0.6,11.583,1.7,11.15,3.3
			c-0.467,1.733-3.584,3.284-9.351,4.65c-5.166,1.2-11.033,1.983-17.6,2.35c-5.767,0.3-11.101-0.017-16-0.95
			c-4.566-0.867-7.9-2.1-10-3.7c-1.934-1.467-0.5-2.733,4.3-3.8c4.533-1.033,11.316-1.767,20.35-2.2
			C176.684-0.117,182.4,0,188.5,0.5z"/>
		<path style="fill-rule:evenodd;clip-rule:evenodd;fill:#D5E8F7;" d="M169.7,13.15l1.75,2.95c1.2,2.2,1.883,3.9,2.05,5.1
			c0.4,2.5-1.033,3.75-4.3,3.75c-2.667,0-3.733-1.567-3.2-4.7c0.233-1.3,0.917-2.883,2.05-4.75
			C168.616,14.6,169.167,13.817,169.7,13.15z"/>
		<path style="fill-rule:evenodd;clip-rule:evenodd;fill:#57B0E3;" d="M169.7,14.35l2.55,5.25c1.066,3.433-0.05,5-3.35,4.7
			c-2.4-0.233-2.983-1.966-1.75-5.2C167.75,17.5,168.6,15.917,169.7,14.35z"/>
		<path style="fill-rule:evenodd;clip-rule:evenodd;fill:#A2CEEE;" d="M169.95,15.7l0.95,1.65c0.666,1.167,1.033,2.017,1.1,2.55
			c0.233,1.533,0.066,2.4-0.5,2.6c-0.434,0.133-0.616-0.567-0.55-2.1c0.033-0.467-0.117-1.383-0.45-2.75L169.95,15.7z"/>
		<path style="fill-rule:evenodd;clip-rule:evenodd;fill:#D5E8F7;" d="M161,18.5c-1.4-0.2-1.717-1.167-0.95-2.9l1.55-2.55l1.45,2.95
			C163.616,17.933,162.934,18.767,161,18.5z"/>
		<path style="fill-rule:evenodd;clip-rule:evenodd;fill:#D5E8F7;" d="M178.25,11.8l1.7,3.1c0.767,2.1,0.184,3.167-1.75,3.2
			c-1.334,0.033-1.717-1-1.15-3.1L178.25,11.8z"/>
		<path style="fill-rule:evenodd;clip-rule:evenodd;fill:#57B0E3;" d="M161.4,18.2c-0.5-0.034-0.851-0.3-1.051-0.8
			c-0.199-0.4-0.066-1.083,0.4-2.05l0.7-1.3c0.866,1.8,1.184,2.983,0.95,3.55C162.2,18.067,161.866,18.267,161.4,18.2z"/>
		<path style="fill-rule:evenodd;clip-rule:evenodd;fill:#57B0E3;" d="M178.375,13.25c0.027,0.235,0.319,0.935,0.875,2.1
			c0.5,1.433,0.2,2.1-0.9,2c-0.699-0.067-0.899-0.783-0.6-2.15L178.375,13.25z"/>
		<path style="fill-rule:evenodd;clip-rule:evenodd;fill:#6D4733;" d="M183.95,10.2c-4.5,1-9.334,1.583-14.5,1.75
			c-3.233,0.1-7.217-0.25-11.95-1.05l-6.15-1.2l15.75,17.35l1.15,14.25c0,0.4-0.25,0.517-0.75,0.35c-0.3-0.1-0.65-0.333-1.05-0.7
			l-0.45-0.5l-0.05-10.8L148,7.45l2.7,1.1c2.233,0.833,4.333,1.45,6.3,1.85c3,0.6,6.917,0.9,11.75,0.9
			C171.483,11.3,176.55,10.933,183.95,10.2z"/>
		<path style="fill-rule:evenodd;clip-rule:evenodd;fill:#9BC2D4;" d="M192.4,7.55c-5.5,1.5-11.134,2.417-16.9,2.75
			c-4.467,0.267-8.95,0.184-13.45-0.25c-4.733-0.466-8.283-1.216-10.649-2.25h1.649c1.134-0.033,1.834-0.117,2.101-0.25
			c0.5-0.267,0.916-0.65,1.25-1.15l0.649,0.85c0.7,0.633,1.65,1.017,2.851,1.15c1,0.133,2.116-0.2,3.35-1l1.35,0.75
			c0.967,0.5,1.65,0.717,2.051,0.65c1-0.167,1.949-0.667,2.85-1.5l0.9,0.9c0.899,0.566,2.1,0.85,3.6,0.85
			c1.467,0,2.767-0.583,3.9-1.75l2.3,0.6c1.6,0.367,2.583,0.417,2.95,0.15c0.566-0.433,1.517-0.9,2.85-1.4l1.2,0.6
			c0.899,0.367,1.55,0.5,1.95,0.4c0.666-0.167,1.416-0.533,2.25-1.1L192.4,7.55z"/>
	</g>
	<path style="fill-rule:evenodd;clip-rule:evenodd;fill:#B76B41;" d="M134,258.8c18.233-0.434,32.033-0.934,41.4-1.5
		c18.366-1.133,32.05-2.883,41.05-5.25c10.733-2.8,18.7-5.85,23.899-9.149c2.601-1.634,4.134-3,4.601-4.101
		c-0.5,1.334-2.05,2.967-4.65,4.9c-5.2,3.833-13.066,7.2-23.6,10.1c-10.967,3.033-27.283,5.084-48.95,6.15
		c-15.434,0.767-31.35,0.967-47.75,0.6c-11.567-0.233-26.783-1.033-45.65-2.399c-18.8-1.367-30.333-2.483-34.6-3.351
		c-5.667-1.166-12.583-3.416-20.75-6.75l-5,11.75c-1.167,2.667-2.917,5.917-5.25,9.75l-7-2.75c4.833-6.6,8.083-11.267,9.75-14
		c1.367-2.2,2.517-5.066,3.45-8.6l1.05-4.65l0.55,1.351c0.667,1.133,1.633,2.267,2.9,3.399c4.133,3.601,10.733,6.434,19.8,8.5
		c9.8,2.267,25.65,3.95,47.55,5.05C105.067,258.783,120.8,259.1,134,258.8z"/>
</g>
</svg>
