<?xml version="1.0" encoding="iso-8859-1"?>
<!-- Generator: Adobe Illustrator 15.1.0, SVG Export Plug-In . SVG Version: 6.00 Build 0)  -->
<!DOCTYPE svg PUBLIC "-//W3C//DTD SVG 1.1//EN" "http://www.w3.org/Graphics/SVG/1.1/DTD/svg11.dtd">
<svg version="1.1" id="Isolation_Mode" xmlns="http://www.w3.org/2000/svg" xmlns:xlink="http://www.w3.org/1999/xlink" x="0px"
	 y="0px" width="500px" height="82px" viewBox="0 0 500 82" style="enable-background:new 0 0 500 82;" xml:space="preserve">
<g>
	<g>
		<path style="fill-rule:evenodd;clip-rule:evenodd;fill:#ABA254;" d="M500,11.95V82H0V41.95c14.433,0,38.15-2.067,71.15-6.2
			c10.733-1.367,44.567-5.983,101.5-13.85c46.267-6.4,83.833-11.167,112.7-14.3C326.917,3.1,361.833,0.567,390.1,0
			c12.7-0.233,31.4,1.667,56.101,5.7C471.566,9.867,489.5,11.95,500,11.95z"/>
	</g>
	<g>
		<polygon style="fill-rule:evenodd;clip-rule:evenodd;fill:#918B4B;" points="46.15,72.7 41.9,66.75 37.3,72.5 41.9,63.7 		"/>
	</g>
	<g>
		<polygon style="fill-rule:evenodd;clip-rule:evenodd;fill:#918B4B;" points="76.25,60.7 71.1,53.55 65.55,60.45 71.1,49.85 		"/>
	</g>
	<g>
		<polygon style="fill-rule:evenodd;clip-rule:evenodd;fill:#918B4B;" points="106.9,63.9 102.85,58.25 98.45,63.7 102.85,55.35 		
			"/>
	</g>
	<g>
		<polygon style="fill-rule:evenodd;clip-rule:evenodd;fill:#918B4B;" points="139.35,65.8 134.9,59.6 130.05,65.65 134.9,56.4 		
			"/>
	</g>
	<g>
		<polygon style="fill-rule:evenodd;clip-rule:evenodd;fill:#918B4B;" points="158.8,49.75 153.55,56.25 158.8,46.3 163.6,56.45 		
			"/>
	</g>
	<g>
		<polygon style="fill-rule:evenodd;clip-rule:evenodd;fill:#918B4B;" points="197.2,64.45 194.35,60.5 191.25,64.35 194.35,58.45 
					"/>
	</g>
	<g>
		<polygon style="fill-rule:evenodd;clip-rule:evenodd;fill:#918B4B;" points="230.25,56.4 225.5,49.8 220.35,56.2 225.5,46.4 		"/>
	</g>
	<g>
		<polygon style="fill-rule:evenodd;clip-rule:evenodd;fill:#918B4B;" points="256.85,69.1 252.25,62.75 247.25,68.9 252.25,59.45 
					"/>
	</g>
	<g>
		<polygon style="fill-rule:evenodd;clip-rule:evenodd;fill:#918B4B;" points="278.65,61.75 273.45,54.5 267.75,61.55 273.45,50.7 
					"/>
	</g>
	<g>
		<polygon style="fill-rule:evenodd;clip-rule:evenodd;fill:#918B4B;" points="320.2,61.7 316.1,56 311.65,61.5 316.1,53.05 		"/>
	</g>
	<g>
		<polygon style="fill-rule:evenodd;clip-rule:evenodd;fill:#918B4B;" points="352.75,72.1 347.65,64.95 342.05,71.85 347.65,61.3 
					"/>
	</g>
	<g>
		<polygon style="fill-rule:evenodd;clip-rule:evenodd;fill:#918B4B;" points="382.45,75.6 379.5,71.5 376.3,75.45 379.5,69.4 		"/>
	</g>
	<g>
		<polygon style="fill-rule:evenodd;clip-rule:evenodd;fill:#918B4B;" points="404.95,63.15 402.3,59.45 399.4,63 402.3,57.55 		"/>
	</g>
	<g>
		<polygon style="fill-rule:evenodd;clip-rule:evenodd;fill:#918B4B;" points="438.35,67.2 432.95,59.75 427.15,67 432.95,55.9 		
			"/>
	</g>
	<g>
		<polygon style="fill-rule:evenodd;clip-rule:evenodd;fill:#918B4B;" points="471.45,59 465.85,51.25 459.75,58.75 465.85,47.2 		
			"/>
	</g>
	<g>
		<polygon style="fill-rule:evenodd;clip-rule:evenodd;fill:#918B4B;" points="496.35,71.95 491.65,65.35 486.5,71.7 491.65,61.95 
					"/>
	</g>
	<g>
		<polygon style="fill-rule:evenodd;clip-rule:evenodd;fill:#918B4B;" points="227.8,76.4 222.45,68.95 216.65,76.2 222.45,65.15 		
			"/>
	</g>
	<g>
		<polygon style="fill-rule:evenodd;clip-rule:evenodd;fill:#918B4B;" points="456.35,76.25 453.25,72 449.95,76.15 453.25,69.8 		
			"/>
	</g>
	<g>
		<polygon style="fill-rule:evenodd;clip-rule:evenodd;fill:#918B4B;" points="169.65,75.25 164.45,68 158.8,75 164.45,64.25 		"/>
	</g>
	<g>
		<polygon style="fill-rule:evenodd;clip-rule:evenodd;fill:#918B4B;" points="497.4,42.5 494.45,38.45 491.3,42.35 494.45,36.35 		
			"/>
	</g>
	<g>
		<polygon style="fill-rule:evenodd;clip-rule:evenodd;fill:#918B4B;" points="467.65,37.7 465.05,34.05 462.2,37.6 465.05,32.2 		
			"/>
	</g>
	<g>
		<polygon style="fill-rule:evenodd;clip-rule:evenodd;fill:#918B4B;" points="438.45,47.3 433.85,41 428.95,47.1 433.85,37.7 		"/>
	</g>
	<g>
		<polygon style="fill-rule:evenodd;clip-rule:evenodd;fill:#918B4B;" points="400.95,43.6 396.35,37.15 391.3,43.4 396.35,33.85 		
			"/>
	</g>
	<g>
		<polygon style="fill-rule:evenodd;clip-rule:evenodd;fill:#918B4B;" points="371.25,44.7 367.8,39.85 364,44.55 367.8,37.4 		"/>
	</g>
	<g>
		<polygon style="fill-rule:evenodd;clip-rule:evenodd;fill:#918B4B;" points="347.15,50.2 344.45,46.5 341.6,50.1 344.45,44.6 		
			"/>
	</g>
	<g>
		<polygon style="fill-rule:evenodd;clip-rule:evenodd;fill:#918B4B;" points="321.3,36 318.3,39.7 321.3,34.05 324,39.8 		"/>
	</g>
	<g>
		<polygon style="fill-rule:evenodd;clip-rule:evenodd;fill:#918B4B;" points="294.7,49.85 291.3,45.1 287.55,49.7 291.3,42.65 		
			"/>
	</g>
	<g>
		<polygon style="fill-rule:evenodd;clip-rule:evenodd;fill:#918B4B;" points="262.65,39.15 259.45,34.7 256,39 259.45,32.45 		"/>
	</g>
	<g>
		<polygon style="fill-rule:evenodd;clip-rule:evenodd;fill:#918B4B;" points="147.65,79.1 144.5,74.7 141.05,78.95 144.5,72.4 		
			"/>
	</g>
	<g>
		<polygon style="fill-rule:evenodd;clip-rule:evenodd;fill:#918B4B;" points="234.1,36.75 229.1,29.85 223.65,36.55 229.1,26.25 		
			"/>
	</g>
	<g>
		<polygon style="fill-rule:evenodd;clip-rule:evenodd;fill:#918B4B;" points="199.2,40.1 193.45,47.15 199.2,36.3 204.45,47.4 		
			"/>
	</g>
	<g>
		<polygon style="fill-rule:evenodd;clip-rule:evenodd;fill:#918B4B;" points="179.35,45.15 174.8,38.8 169.8,44.95 174.8,35.5 		
			"/>
	</g>
	<g>
		<polygon style="fill-rule:evenodd;clip-rule:evenodd;fill:#918B4B;" points="145.55,42.5 142.15,37.75 138.4,42.35 142.15,35.3 		
			"/>
	</g>
	<g>
		<polygon style="fill-rule:evenodd;clip-rule:evenodd;fill:#918B4B;" points="415.9,81.05 412.5,76.3 408.8,80.9 412.5,73.85 		"/>
	</g>
	<g>
		<polygon style="fill-rule:evenodd;clip-rule:evenodd;fill:#918B4B;" points="120.25,44.8 115.5,38.2 110.35,44.6 115.5,34.8 		"/>
	</g>
	<g>
		<polygon style="fill-rule:evenodd;clip-rule:evenodd;fill:#918B4B;" points="89,45.3 86,41.1 82.7,45.15 86,38.95 		"/>
	</g>
	<g>
		<polygon style="fill-rule:evenodd;clip-rule:evenodd;fill:#918B4B;" points="13.65,50.1 10.65,45.95 7.4,50 10.65,43.75 		"/>
	</g>
	<g>
		<polygon style="fill-rule:evenodd;clip-rule:evenodd;fill:#918B4B;" points="32,79.8 26.5,72.15 20.55,79.6 26.5,68.2 		"/>
	</g>
	<g>
		<polygon style="fill-rule:evenodd;clip-rule:evenodd;fill:#918B4B;" points="37.2,56.75 33,50.95 28.45,56.6 33,47.95 		"/>
	</g>
	<g>
		<polygon style="fill-rule:evenodd;clip-rule:evenodd;fill:#918B4B;" points="56.35,52.45 51.5,45.7 46.25,52.25 51.5,42.2 		"/>
	</g>
	<g>
		<polygon style="fill-rule:evenodd;clip-rule:evenodd;fill:#918B4B;" points="69.75,79.1 64,71.15 57.8,78.85 64,67.05 		"/>
	</g>
	<g>
		<polygon style="fill-rule:evenodd;clip-rule:evenodd;fill:#918B4B;" points="157.2,32.25 154,27.8 150.55,32.1 154,25.5 		"/>
	</g>
	<g>
		<polygon style="fill-rule:evenodd;clip-rule:evenodd;fill:#918B4B;" points="193.95,29.75 191.3,26 188.35,29.6 191.3,24.05 		"/>
	</g>
	<g>
		<polygon style="fill-rule:evenodd;clip-rule:evenodd;fill:#918B4B;" points="12.7,76.05 10,72.3 7.05,75.95 10,70.4 		"/>
	</g>
	<g>
		<polygon style="fill-rule:evenodd;clip-rule:evenodd;fill:#918B4B;" points="188.55,79.85 184.5,74.15 180.1,79.65 184.5,71.25 		
			"/>
	</g>
	<g>
		<polygon style="fill-rule:evenodd;clip-rule:evenodd;fill:#918B4B;" points="256.6,27.3 251.65,20.4 246.25,27.1 251.65,16.85 		
			"/>
	</g>
	<g>
		<polygon style="fill-rule:evenodd;clip-rule:evenodd;fill:#918B4B;" points="288.5,28.95 284.95,23.95 281.05,28.8 284.95,21.4 		
			"/>
	</g>
	<g>
		<polygon style="fill-rule:evenodd;clip-rule:evenodd;fill:#918B4B;" points="315.45,28.7 310.55,21.85 305.2,28.45 310.55,18.35 
					"/>
	</g>
	<g>
		<polygon style="fill-rule:evenodd;clip-rule:evenodd;fill:#918B4B;" points="347.2,26.55 344.2,22.45 340.95,26.45 344.2,20.3 		
			"/>
	</g>
	<g>
		<polygon style="fill-rule:evenodd;clip-rule:evenodd;fill:#918B4B;" points="380.05,20.45 375.35,13.9 370.25,20.2 375.35,10.5 		
			"/>
	</g>
	<g>
		<polygon style="fill-rule:evenodd;clip-rule:evenodd;fill:#918B4B;" points="403.3,20.3 397.6,27.4 403.3,16.55 408.5,27.6 		"/>
	</g>
	<g>
		<polygon style="fill-rule:evenodd;clip-rule:evenodd;fill:#918B4B;" points="431.15,30.5 427.8,25.8 424.15,30.35 427.8,23.4 		
			"/>
	</g>
	<g>
		<polygon style="fill-rule:evenodd;clip-rule:evenodd;fill:#918B4B;" points="456.15,29.7 452.75,25 449.1,29.55 452.75,22.6 		"/>
	</g>
	<g>
		<polygon style="fill-rule:evenodd;clip-rule:evenodd;fill:#918B4B;" points="490.5,28.9 486.15,22.9 481.5,28.7 486.15,19.8 		"/>
	</g>
	<g>
		<polygon style="fill-rule:evenodd;clip-rule:evenodd;fill:#918B4B;" points="362,75.25 358.1,80.1 362,72.7 365.55,80.25 		"/>
	</g>
	<g>
		<polygon style="fill-rule:evenodd;clip-rule:evenodd;fill:#918B4B;" points="302.35,77.85 297.45,71 292.05,77.65 297.45,67.45 		
			"/>
	</g>
	<g>
		<polygon style="fill-rule:evenodd;clip-rule:evenodd;fill:#918B4B;" points="89.35,74.25 86.25,70 82.95,74.1 86.25,67.8 		"/>
	</g>
	<g>
		<polygon style="fill-rule:evenodd;clip-rule:evenodd;fill:#918B4B;" points="479.75,80.3 475,73.7 469.85,80.1 475,70.3 		"/>
	</g>
	<g>
		<polygon style="fill-rule:evenodd;clip-rule:evenodd;fill:#918B4B;" points="445,11.3 441.6,15.5 445,9.05 448.1,15.65 		"/>
	</g>
	<g>
		<polygon style="fill-rule:evenodd;clip-rule:evenodd;fill:#918B4B;" points="393.8,8.75 391,4.8 387.95,8.6 391,2.8 		"/>
	</g>
	<g>
		<polygon style="fill-rule:evenodd;clip-rule:evenodd;fill:#918B4B;" points="329.4,80.15 324,72.65 318.15,79.95 324,68.8 		"/>
	</g>
	<g>
		<polygon style="fill-rule:evenodd;clip-rule:evenodd;fill:#918B4B;" points="339.45,16.2 334,8.65 328.1,16 334,4.75 		"/>
	</g>
	<g>
		<polygon style="fill-rule:evenodd;clip-rule:evenodd;fill:#918B4B;" points="302.65,20 297.5,12.9 291.95,19.8 297.5,9.2 		"/>
	</g>
	<g>
		<polygon style="fill-rule:evenodd;clip-rule:evenodd;fill:#918B4B;" points="241,73.2 235.6,79.9 241,69.65 245.95,80.1 		"/>
	</g>
	<g>
		<polygon style="fill-rule:evenodd;clip-rule:evenodd;fill:#918B4B;" points="213.4,27.7 209.5,22.25 205.25,27.5 209.5,19.45 		
			"/>
	</g>
	<g>
		<polygon style="fill-rule:evenodd;clip-rule:evenodd;fill:#918B4B;" points="121.4,78.65 116,71.15 110.15,78.4 116,67.3 		"/>
	</g>
</g>
</svg>
