<?xml version="1.0" encoding="iso-8859-1"?>
<!-- Generator: Adobe Illustrator 15.1.0, SVG Export Plug-In . SVG Version: 6.00 Build 0)  -->
<!DOCTYPE svg PUBLIC "-//W3C//DTD SVG 1.1//EN" "http://www.w3.org/Graphics/SVG/1.1/DTD/svg11.dtd">
<svg version="1.1" id="front_ground_2" xmlns="http://www.w3.org/2000/svg" xmlns:xlink="http://www.w3.org/1999/xlink" x="0px"
	 y="0px" width="427.5px" height="141.95px" viewBox="0 0 427.5 141.95" style="enable-background:new 0 0 427.5 141.95;"
	 xml:space="preserve">
<g>
	<path style="fill-rule:evenodd;clip-rule:evenodd;fill:#ABA254;" d="M415.55,121.4c5.233,8.267,9.217,15.116,11.95,20.55H0
		c9.767-2,21.583-5.316,35.45-9.95c27.733-9.233,51.917-20.417,72.55-33.55c8.433-5.367,17.433-14.783,27-28.25
		c2.667-3.767,6.683-9.567,12.05-17.4c4.9-6.933,9.317-12.7,13.25-17.3c11.034-12.8,23.25-22,36.65-27.6
		c16.866-7.066,37.217-9.383,61.05-6.95c43.134,4.367,84.316,29.183,123.55,74.45C393.816,89.533,405.15,104.866,415.55,121.4z"/>
	<g>
		<polygon style="fill-rule:evenodd;clip-rule:evenodd;fill:#918B4B;" points="219.55,86.7 224.1,77.2 229,86.5 224.1,80.45 		"/>
	</g>
	<g>
		<polygon style="fill-rule:evenodd;clip-rule:evenodd;fill:#918B4B;" points="302.55,124.55 307.4,114.25 312.7,124.35 
			307.4,117.75 		"/>
	</g>
	<g>
		<polygon style="fill-rule:evenodd;clip-rule:evenodd;fill:#918B4B;" points="273,138.8 278.1,128.1 283.6,138.6 278.1,131.75 		
			"/>
	</g>
	<g>
		<polygon style="fill-rule:evenodd;clip-rule:evenodd;fill:#918B4B;" points="333,63.1 338.1,52.45 343.6,62.9 338.1,56.05 		"/>
	</g>
	<g>
		<polygon style="fill-rule:evenodd;clip-rule:evenodd;fill:#918B4B;" points="303,103.45 306.6,95.8 310.55,103.3 306.6,98.4 		"/>
	</g>
	<g>
		<polygon style="fill-rule:evenodd;clip-rule:evenodd;fill:#918B4B;" points="127.1,138.8 130.75,131.15 134.7,138.65 
			130.75,133.75 		"/>
	</g>
	<g>
		<polygon style="fill-rule:evenodd;clip-rule:evenodd;fill:#918B4B;" points="179.65,137.7 183.3,130.05 187.2,137.55 
			183.3,132.65 		"/>
	</g>
	<g>
		<polygon style="fill-rule:evenodd;clip-rule:evenodd;fill:#918B4B;" points="278.65,99.7 283.4,89.7 288.55,99.5 283.4,93.1 		"/>
	</g>
	<g>
		<polygon style="fill-rule:evenodd;clip-rule:evenodd;fill:#918B4B;" points="122.7,119.1 127.45,109.1 132.6,118.9 127.45,112.5 
					"/>
	</g>
	<g>
		<polygon style="fill-rule:evenodd;clip-rule:evenodd;fill:#918B4B;" points="81.05,125.6 85.8,115.6 90.95,125.4 85.8,119 		"/>
	</g>
	<g>
		<polygon style="fill-rule:evenodd;clip-rule:evenodd;fill:#918B4B;" points="150.35,108 153.4,101.55 156.75,107.9 153.4,103.75 
					"/>
	</g>
	<g>
		<polygon style="fill-rule:evenodd;clip-rule:evenodd;fill:#918B4B;" points="210.35,16.7 213.4,10.25 216.75,16.55 213.4,12.45 		
			"/>
	</g>
	<g>
		<polygon style="fill-rule:evenodd;clip-rule:evenodd;fill:#918B4B;" points="214.85,123 220.1,112 225.75,122.8 220.1,115.75 		
			"/>
	</g>
	<g>
		<polygon style="fill-rule:evenodd;clip-rule:evenodd;fill:#918B4B;" points="216.85,41.7 222.1,30.7 227.75,41.45 222.1,34.45 		
			"/>
	</g>
	<g>
		<polygon style="fill-rule:evenodd;clip-rule:evenodd;fill:#918B4B;" points="152.85,129.7 158.1,118.7 163.75,129.45 
			158.1,122.45 		"/>
	</g>
	<g>
		<polygon style="fill-rule:evenodd;clip-rule:evenodd;fill:#918B4B;" points="248.1,13.75 242.85,21 248.1,10 253.75,20.8 		"/>
	</g>
	<g>
		<polygon style="fill-rule:evenodd;clip-rule:evenodd;fill:#918B4B;" points="324.75,124.35 322.05,128.05 324.75,122.45 
			327.65,127.95 		"/>
	</g>
	<g>
		<polygon style="fill-rule:evenodd;clip-rule:evenodd;fill:#918B4B;" points="317.4,64.7 320.1,59.1 323,64.6 320.1,61 		"/>
	</g>
	<g>
		<polygon style="fill-rule:evenodd;clip-rule:evenodd;fill:#918B4B;" points="335.4,79.45 338.1,73.85 341,79.35 338.1,75.75 		"/>
	</g>
	<g>
		<polygon style="fill-rule:evenodd;clip-rule:evenodd;fill:#918B4B;" points="42.1,135.1 39.4,138.8 42.1,133.2 45,138.7 		"/>
	</g>
	<g>
		<polygon style="fill-rule:evenodd;clip-rule:evenodd;fill:#918B4B;" points="260.05,89.4 262.75,83.75 265.65,89.25 262.75,85.65 
					"/>
	</g>
	<g>
		<polygon style="fill-rule:evenodd;clip-rule:evenodd;fill:#918B4B;" points="268.75,70.7 271.4,65.1 274.3,70.6 271.4,67 		"/>
	</g>
	<g>
		<polygon style="fill-rule:evenodd;clip-rule:evenodd;fill:#918B4B;" points="244.1,67.75 241.4,71.45 244.1,65.85 247,71.35 		"/>
	</g>
	<g>
		<polygon style="fill-rule:evenodd;clip-rule:evenodd;fill:#918B4B;" points="377.4,98.05 380.1,92.45 383,97.95 380.1,94.35 		"/>
	</g>
	<g>
		<polygon style="fill-rule:evenodd;clip-rule:evenodd;fill:#918B4B;" points="214.3,135.4 217.4,128.85 220.8,135.25 217.4,131.1 
					"/>
	</g>
	<g>
		<polygon style="fill-rule:evenodd;clip-rule:evenodd;fill:#918B4B;" points="357,110.75 360.1,104.2 363.45,110.6 360.1,106.45 		
			"/>
	</g>
	<g>
		<polygon style="fill-rule:evenodd;clip-rule:evenodd;fill:#918B4B;" points="234.95,98.95 238.1,92.45 241.45,98.85 238.1,94.65 
					"/>
	</g>
	<g>
		<polygon style="fill-rule:evenodd;clip-rule:evenodd;fill:#918B4B;" points="286.95,73.65 290.1,67.1 293.45,73.5 290.1,69.3 		
			"/>
	</g>
	<g>
		<polygon style="fill-rule:evenodd;clip-rule:evenodd;fill:#918B4B;" points="205.65,64.1 208.75,57.55 212.1,63.95 208.75,59.75 
					"/>
	</g>
	<g>
		<polygon style="fill-rule:evenodd;clip-rule:evenodd;fill:#918B4B;" points="336.7,93.5 339.4,87.75 342.4,93.4 339.4,89.7 		"/>
	</g>
	<g>
		<polygon style="fill-rule:evenodd;clip-rule:evenodd;fill:#918B4B;" points="192.7,122.9 195.4,117.15 198.4,122.8 195.4,119.1 		
			"/>
	</g>
	<g>
		<polygon style="fill-rule:evenodd;clip-rule:evenodd;fill:#918B4B;" points="296.35,35.9 299.1,30.1 302.1,35.75 299.1,32.05 		
			"/>
	</g>
	<g>
		<polygon style="fill-rule:evenodd;clip-rule:evenodd;fill:#918B4B;" points="192,42.9 194.75,37.15 197.7,42.8 194.75,39.1 		"/>
	</g>
	<g>
		<polygon style="fill-rule:evenodd;clip-rule:evenodd;fill:#918B4B;" points="222.7,60.25 225.4,54.45 228.4,60.1 225.4,56.45 		
			"/>
	</g>
	<g>
		<polygon style="fill-rule:evenodd;clip-rule:evenodd;fill:#918B4B;" points="99.35,130.25 102.1,124.45 105.05,130.1 
			102.1,126.45 		"/>
	</g>
	<g>
		<polygon style="fill-rule:evenodd;clip-rule:evenodd;fill:#918B4B;" points="105.35,111.5 108.1,105.75 111.05,111.4 108.1,107.7 
					"/>
	</g>
	<g>
		<polygon style="fill-rule:evenodd;clip-rule:evenodd;fill:#918B4B;" points="57.35,134.2 60.1,128.45 63.05,134.05 60.1,130.4 		
			"/>
	</g>
	<g>
		<polygon style="fill-rule:evenodd;clip-rule:evenodd;fill:#918B4B;" points="300.7,138.85 303.4,133.1 306.4,138.75 303.4,135.05 
					"/>
	</g>
	<g>
		<polygon style="fill-rule:evenodd;clip-rule:evenodd;fill:#918B4B;" points="334,138.25 336.75,132.45 339.7,138.1 336.75,134.45 
					"/>
	</g>
	<g>
		<polygon style="fill-rule:evenodd;clip-rule:evenodd;fill:#918B4B;" points="412,134.9 414.75,129.15 417.7,134.8 414.75,131.1 		
			"/>
	</g>
	<g>
		<polygon style="fill-rule:evenodd;clip-rule:evenodd;fill:#918B4B;" points="271.35,11.55 274.1,5.8 277.05,11.45 274.1,7.75 		
			"/>
	</g>
	<g>
		<polygon style="fill-rule:evenodd;clip-rule:evenodd;fill:#918B4B;" points="174.65,87.05 178.75,78.45 183.2,86.85 178.75,81.35 
					"/>
	</g>
	<g>
		<polygon style="fill-rule:evenodd;clip-rule:evenodd;fill:#918B4B;" points="314.65,42.4 318.75,33.75 323.2,42.2 318.75,36.7 		
			"/>
	</g>
	<g>
		<polygon style="fill-rule:evenodd;clip-rule:evenodd;fill:#918B4B;" points="163.3,52.8 167.4,44.15 171.85,52.6 167.4,47.1 		"/>
	</g>
	<g>
		<polygon style="fill-rule:evenodd;clip-rule:evenodd;fill:#918B4B;" points="288,29.05 292.1,20.45 296.5,28.85 292.1,23.35 		"/>
	</g>
	<g>
		<polygon style="fill-rule:evenodd;clip-rule:evenodd;fill:#918B4B;" points="372.2,129.4 376.75,119.85 381.65,129.2 
			376.75,123.1 		"/>
	</g>
	<g>
		<polygon style="fill-rule:evenodd;clip-rule:evenodd;fill:#918B4B;" points="397.7,128 400.75,121.55 404.1,127.9 400.75,123.75 
					"/>
	</g>
	<g>
		<polygon style="fill-rule:evenodd;clip-rule:evenodd;fill:#918B4B;" points="395,108.7 398.1,102.25 401.4,108.55 398.1,104.45 		
			"/>
	</g>
	<g>
		<polygon style="fill-rule:evenodd;clip-rule:evenodd;fill:#918B4B;" points="384.55,136.45 387.4,130.35 390.55,136.3 
			387.4,132.45 		"/>
	</g>
	<g>
		<polygon style="fill-rule:evenodd;clip-rule:evenodd;fill:#918B4B;" points="357.2,137.2 360.1,131.1 363.2,137.05 360.1,133.15 
					"/>
	</g>
	<g>
		<polygon style="fill-rule:evenodd;clip-rule:evenodd;fill:#918B4B;" points="277.85,45.2 280.75,39.1 283.9,45.05 280.75,41.15 		
			"/>
	</g>
	<g>
		<polygon style="fill-rule:evenodd;clip-rule:evenodd;fill:#918B4B;" points="81.25,139.65 83.4,135.1 85.75,139.55 83.4,136.65 		
			"/>
	</g>
	<g>
		<polygon style="fill-rule:evenodd;clip-rule:evenodd;fill:#918B4B;" points="174.65,105.2 177.35,99 180.65,104.9 177.4,101.1 		
			"/>
	</g>
	<g>
		<polygon style="fill-rule:evenodd;clip-rule:evenodd;fill:#918B4B;" points="268.65,27.85 271.35,21.7 274.65,27.55 271.4,23.75 
					"/>
	</g>
	<g>
		<polygon style="fill-rule:evenodd;clip-rule:evenodd;fill:#918B4B;" points="228.65,21.2 231.35,15 234.65,20.9 231.4,17.1 		"/>
	</g>
	<g>
		<polygon style="fill-rule:evenodd;clip-rule:evenodd;fill:#918B4B;" points="285.4,113.15 282.5,117.2 285.4,111.1 288.55,117.05 
					"/>
	</g>
	<g>
		<polygon style="fill-rule:evenodd;clip-rule:evenodd;fill:#918B4B;" points="158.05,73.9 160.95,67.8 164.1,73.75 160.95,69.85 		
			"/>
	</g>
	<g>
		<polygon style="fill-rule:evenodd;clip-rule:evenodd;fill:#918B4B;" points="350.05,59.9 352.95,53.8 356.1,59.75 352.95,55.85 		
			"/>
	</g>
	<g>
		<polygon style="fill-rule:evenodd;clip-rule:evenodd;fill:#918B4B;" points="237.2,47.2 240.1,41.1 243.2,47.05 240.1,43.15 		"/>
	</g>
	<g>
		<polygon style="fill-rule:evenodd;clip-rule:evenodd;fill:#918B4B;" points="358.6,88.5 363.4,78.3 368.65,88.25 363.4,81.75 		
			"/>
	</g>
	<g>
		<polygon style="fill-rule:evenodd;clip-rule:evenodd;fill:#918B4B;" points="331.4,118.95 336.1,109.05 341.15,118.75 
			336.1,112.45 		"/>
	</g>
	<g>
		<polygon style="fill-rule:evenodd;clip-rule:evenodd;fill:#918B4B;" points="310.7,86.95 315.4,77.05 320.5,86.75 315.4,80.45 		
			"/>
	</g>
	<g>
		<polygon style="fill-rule:evenodd;clip-rule:evenodd;fill:#918B4B;" points="139.4,88.95 144.1,79.05 149.15,88.75 144.1,82.45 		
			"/>
	</g>
	<g>
		<polygon style="fill-rule:evenodd;clip-rule:evenodd;fill:#918B4B;" points="236.05,136.95 240.75,127.05 245.85,136.75 
			240.75,130.45 		"/>
	</g>
	<g>
		<polygon style="fill-rule:evenodd;clip-rule:evenodd;fill:#918B4B;" points="200.45,105.35 205.4,94.85 210.8,105.15 205.4,98.45 
					"/>
	</g>
	<g>
		<polygon style="fill-rule:evenodd;clip-rule:evenodd;fill:#918B4B;" points="248.95,114.65 254.6,102.75 260.75,114.45 
			254.6,106.8 		"/>
	</g>
	<g>
		<polygon style="fill-rule:evenodd;clip-rule:evenodd;fill:#918B4B;" points="189.65,28 195.3,16.1 201.4,27.75 195.3,20.15 		"/>
	</g>
	<g>
		<polygon style="fill-rule:evenodd;clip-rule:evenodd;fill:#918B4B;" points="292.95,58.65 298.6,46.75 304.75,58.45 298.6,50.8 		
			"/>
	</g>
	<g>
		<polygon style="fill-rule:evenodd;clip-rule:evenodd;fill:#918B4B;" points="253.75,54.95 259.4,43.05 265.55,54.7 259.4,47.1 		
			"/>
	</g>
	<g>
		<polygon style="fill-rule:evenodd;clip-rule:evenodd;fill:#918B4B;" points="177.75,62.25 183.4,50.4 189.55,62.05 183.4,54.45 		
			"/>
	</g>
</g>
</svg>
