<?xml version="1.0" encoding="iso-8859-1"?>
<!-- Generator: Adobe Illustrator 15.1.0, SVG Export Plug-In . SVG Version: 6.00 Build 0)  -->
<!DOCTYPE svg PUBLIC "-//W3C//DTD SVG 1.1//EN" "http://www.w3.org/Graphics/SVG/1.1/DTD/svg11.dtd">
<svg version="1.1" id="ground_x5F_front_x5F_left.ai"
	 xmlns="http://www.w3.org/2000/svg" xmlns:xlink="http://www.w3.org/1999/xlink" x="0px" y="0px" width="207.65px" height="110px"
	 viewBox="0 0 207.65 110" style="enable-background:new 0 0 207.65 110;" xml:space="preserve">
<g>
	<path style="fill-rule:evenodd;clip-rule:evenodd;fill:#ABA254;" d="M207.65,0v110H0l97.3-53.95c16.8-9.3,40.233-21.433,70.3-36.4
		C182.634,12.183,195.983,5.633,207.65,0z"/>
	<g>
		<polygon style="fill-rule:evenodd;clip-rule:evenodd;fill:#918B4B;" points="129.85,105.15 135.4,93.4 141.45,104.9 135.4,97.4 		
			"/>
	</g>
	<g>
		<polygon style="fill-rule:evenodd;clip-rule:evenodd;fill:#918B4B;" points="170.2,93.1 176.9,78.95 184.2,92.8 176.9,83.75 		"/>
	</g>
	<g>
		<polygon style="fill-rule:evenodd;clip-rule:evenodd;fill:#918B4B;" points="184.1,62.6 188.05,54.3 192.3,62.4 188.05,57.1 		"/>
	</g>
	<g>
		<polygon style="fill-rule:evenodd;clip-rule:evenodd;fill:#918B4B;" points="124.4,87.5 128.3,79.2 132.6,87.35 128.3,82.05 		"/>
	</g>
	<g>
		<polygon style="fill-rule:evenodd;clip-rule:evenodd;fill:#918B4B;" points="92.7,85.5 96.65,77.2 100.95,85.35 96.65,80.05 		"/>
	</g>
	<g>
		<polygon style="fill-rule:evenodd;clip-rule:evenodd;fill:#918B4B;" points="144.65,71.15 151.85,56 159.65,70.85 151.85,61.15 		
			"/>
	</g>
	<g>
		<polygon style="fill-rule:evenodd;clip-rule:evenodd;fill:#918B4B;" points="108.7,69.85 114.15,58.25 120.1,69.6 114.15,62.2 		
			"/>
	</g>
	<g>
		<polygon style="fill-rule:evenodd;clip-rule:evenodd;fill:#918B4B;" points="66.2,87.1 71.9,75.05 78.1,86.85 71.9,79.15 		"/>
	</g>
	<g>
		<polygon style="fill-rule:evenodd;clip-rule:evenodd;fill:#918B4B;" points="126,56.5 132.3,43.15 139.2,56.25 132.3,47.7 		"/>
	</g>
	<g>
		<polygon style="fill-rule:evenodd;clip-rule:evenodd;fill:#918B4B;" points="163.2,45.8 170.7,30.05 178.8,45.5 170.7,35.4 		"/>
	</g>
	<g>
		<polygon style="fill-rule:evenodd;clip-rule:evenodd;fill:#918B4B;" points="193.8,37.8 198.65,27.55 203.95,37.55 198.65,31 		
			"/>
	</g>
	<g>
		<polygon style="fill-rule:evenodd;clip-rule:evenodd;fill:#918B4B;" points="106.15,107.95 109.65,100.5 113.45,107.8 
			109.65,103.05 		"/>
	</g>
	<g>
		<polygon style="fill-rule:evenodd;clip-rule:evenodd;fill:#918B4B;" points="189.8,18.9 193.3,11.5 197.15,18.75 193.3,14.05 		
			"/>
	</g>
	<g>
		<polygon style="fill-rule:evenodd;clip-rule:evenodd;fill:#918B4B;" points="68.95,108.9 76.3,93.4 84.3,108.6 76.3,98.65 		"/>
	</g>
	<g>
		<polygon style="fill-rule:evenodd;clip-rule:evenodd;fill:#918B4B;" points="47.15,98.65 51.65,89.1 56.55,98.45 51.65,92.35 		
			"/>
	</g>
	<g>
		<polygon style="fill-rule:evenodd;clip-rule:evenodd;fill:#918B4B;" points="192.5,105 197,95.5 201.95,104.85 197,98.75 		"/>
	</g>
	<g>
		<polygon style="fill-rule:evenodd;clip-rule:evenodd;fill:#918B4B;" points="24.9,108 29.55,98.2 34.6,107.8 29.55,101.55 		"/>
	</g>
</g>
</svg>
