<?xml version="1.0" encoding="iso-8859-1"?>
<!-- Generator: Adobe Illustrator 15.1.0, SVG Export Plug-In . SVG Version: 6.00 Build 0)  -->
<!DOCTYPE svg PUBLIC "-//W3C//DTD SVG 1.1//EN" "http://www.w3.org/Graphics/SVG/1.1/DTD/svg11.dtd">
<svg version="1.1" id="ground_x5F_mid_x5F_top_x5F_07.ai"
	 xmlns="http://www.w3.org/2000/svg" xmlns:xlink="http://www.w3.org/1999/xlink" x="0px" y="0px" width="500px" height="72.3px"
	 viewBox="0 0 500 72.3" style="enable-background:new 0 0 500 72.3;" xml:space="preserve">
<g>
	<g>
		<path style="fill-rule:evenodd;clip-rule:evenodd;fill:#B3AB64;" d="M376.65,28.55C419.483,41.55,460.6,56.134,500,72.3H0v-70
			c54.967-1.133,101.4-1.867,139.3-2.2c71.567-0.6,119.816,1.133,144.75,5.2C307.116,9.067,337.983,16.817,376.65,28.55z"/>
	</g>
	<g>
		<polygon style="fill-rule:evenodd;clip-rule:evenodd;fill:#A49A48;" points="45.45,62.25 41.9,57.3 38,62.1 41.9,54.75 		"/>
	</g>
	<g>
		<polygon style="fill-rule:evenodd;clip-rule:evenodd;fill:#A49A48;" points="75.35,50.1 71.05,44.15 66.4,49.9 71.05,41.05 		"/>
	</g>
	<g>
		<polygon style="fill-rule:evenodd;clip-rule:evenodd;fill:#A49A48;" points="106.2,53.5 102.8,48.8 99.15,53.35 102.8,46.4 		"/>
	</g>
	<g>
		<polygon style="fill-rule:evenodd;clip-rule:evenodd;fill:#A49A48;" points="138.6,55.35 134.9,50.2 130.85,55.2 134.9,47.5 		"/>
	</g>
	<g>
		<polygon style="fill-rule:evenodd;clip-rule:evenodd;fill:#A49A48;" points="158.75,40.35 154.4,45.75 158.75,37.45 162.75,45.9 
					"/>
	</g>
	<g>
		<polygon style="fill-rule:evenodd;clip-rule:evenodd;fill:#A49A48;" points="196.7,54.25 194.35,50.95 191.75,54.15 194.35,49.25 
					"/>
	</g>
	<g>
		<polygon style="fill-rule:evenodd;clip-rule:evenodd;fill:#A49A48;" points="229.4,45.9 225.45,40.4 221.2,45.7 225.45,37.55 		
			"/>
	</g>
	<g>
		<polygon style="fill-rule:evenodd;clip-rule:evenodd;fill:#A49A48;" points="256.05,58.65 252.2,53.3 248.05,58.45 252.2,50.6 		
			"/>
	</g>
	<g>
		<polygon style="fill-rule:evenodd;clip-rule:evenodd;fill:#A49A48;" points="277.75,51.15 273.4,45.1 268.65,50.95 273.4,41.95 		
			"/>
	</g>
	<g>
		<polygon style="fill-rule:evenodd;clip-rule:evenodd;fill:#A49A48;" points="319.45,51.3 316.05,46.55 312.35,51.15 316.05,44.1 
					"/>
	</g>
	<g>
		<polygon style="fill-rule:evenodd;clip-rule:evenodd;fill:#A49A48;" points="351.85,61.5 347.6,55.55 342.95,61.3 347.6,52.5 		
			"/>
	</g>
	<g>
		<polygon style="fill-rule:evenodd;clip-rule:evenodd;fill:#A49A48;" points="381.9,65.4 379.5,62 376.8,65.3 379.5,60.25 		"/>
	</g>
	<g>
		<polygon style="fill-rule:evenodd;clip-rule:evenodd;fill:#A49A48;" points="404.5,53 402.25,49.9 399.85,52.9 402.25,48.35 		"/>
	</g>
	<g>
		<polygon style="fill-rule:evenodd;clip-rule:evenodd;fill:#A49A48;" points="435.4,58.1 430.95,51.85 426.05,57.9 430.95,48.65 		
			"/>
	</g>
	<g>
		<polygon style="fill-rule:evenodd;clip-rule:evenodd;fill:#A49A48;" points="226.9,65.8 222.45,59.6 217.6,65.6 222.45,56.4 		"/>
	</g>
	<g>
		<polygon style="fill-rule:evenodd;clip-rule:evenodd;fill:#A49A48;" points="455.8,66.05 453.25,62.5 450.45,65.9 453.25,60.65 		
			"/>
	</g>
	<g>
		<polygon style="fill-rule:evenodd;clip-rule:evenodd;fill:#A49A48;" points="168.75,64.65 164.4,58.6 159.7,64.45 164.4,55.45 		
			"/>
	</g>
	<g>
		<polygon style="fill-rule:evenodd;clip-rule:evenodd;fill:#A49A48;" points="478.65,69.85 476.5,66.8 474.1,69.75 476.5,65.2 		
			"/>
	</g>
	<g>
		<polygon style="fill-rule:evenodd;clip-rule:evenodd;fill:#A49A48;" points="370.65,34.4 367.75,30.35 364.6,34.25 367.75,28.3 		
			"/>
	</g>
	<g>
		<polygon style="fill-rule:evenodd;clip-rule:evenodd;fill:#A49A48;" points="346.65,40.05 344.45,36.95 342.05,39.95 344.45,35.4 
					"/>
	</g>
	<g>
		<polygon style="fill-rule:evenodd;clip-rule:evenodd;fill:#A49A48;" points="323.55,29.65 321.25,26.45 318.75,29.55 
			321.25,24.85 		"/>
	</g>
	<g>
		<polygon style="fill-rule:evenodd;clip-rule:evenodd;fill:#A49A48;" points="294.1,39.6 291.25,35.6 288.15,39.45 291.25,33.55 		
			"/>
	</g>
	<g>
		<polygon style="fill-rule:evenodd;clip-rule:evenodd;fill:#A49A48;" points="262.1,28.9 259.45,25.2 256.55,28.75 259.45,23.3 		
			"/>
	</g>
	<g>
		<polygon style="fill-rule:evenodd;clip-rule:evenodd;fill:#A49A48;" points="233.2,26.2 229.05,20.4 224.55,26.05 229.05,17.45 		
			"/>
	</g>
	<g>
		<polygon style="fill-rule:evenodd;clip-rule:evenodd;fill:#A49A48;" points="199.15,30.7 194.4,36.6 199.15,27.55 203.55,36.8 		
			"/>
	</g>
	<g>
		<polygon style="fill-rule:evenodd;clip-rule:evenodd;fill:#A49A48;" points="178.55,34.65 174.75,29.35 170.6,34.5 174.75,26.65 
					"/>
	</g>
	<g>
		<polygon style="fill-rule:evenodd;clip-rule:evenodd;fill:#A49A48;" points="144.95,32.25 142.1,28.25 139,32.1 142.1,26.25 		"/>
	</g>
	<g>
		<polygon style="fill-rule:evenodd;clip-rule:evenodd;fill:#A49A48;" points="112.3,25.05 108.35,19.55 104.05,24.9 108.35,16.7 		
			"/>
	</g>
	<g>
		<polygon style="fill-rule:evenodd;clip-rule:evenodd;fill:#A49A48;" points="79.25,24.05 76.55,27.4 79.25,22.25 81.75,27.55 		
			"/>
	</g>
	<g>
		<polygon style="fill-rule:evenodd;clip-rule:evenodd;fill:#A49A48;" points="13.15,39.9 10.65,36.4 7.9,39.8 10.65,34.6 		"/>
	</g>
	<g>
		<polygon style="fill-rule:evenodd;clip-rule:evenodd;fill:#A49A48;" points="56.9,33.6 52.3,27.2 47.35,33.4 52.3,23.9 		"/>
	</g>
	<g>
		<polygon style="fill-rule:evenodd;clip-rule:evenodd;fill:#A49A48;" points="31.95,28.85 28.5,24 24.7,28.7 28.5,21.5 		"/>
	</g>
	<g>
		<polygon style="fill-rule:evenodd;clip-rule:evenodd;fill:#A49A48;" points="19.1,16.85 15.5,11.8 11.5,16.7 15.5,9.15 		"/>
	</g>
	<g>
		<polygon style="fill-rule:evenodd;clip-rule:evenodd;fill:#A49A48;" points="39,8.3 34.6,13.7 39,5.4 43,13.9 		"/>
	</g>
	<g>
		<polygon style="fill-rule:evenodd;clip-rule:evenodd;fill:#A49A48;" points="71.2,14.5 66.45,7.9 61.25,14.3 66.45,4.5 		"/>
	</g>
	<g>
		<polygon style="fill-rule:evenodd;clip-rule:evenodd;fill:#A49A48;" points="99.5,9.3 96.4,4.95 93,9.15 96.4,2.75 		"/>
	</g>
	<g>
		<polygon style="fill-rule:evenodd;clip-rule:evenodd;fill:#A49A48;" points="150.65,17.2 148,13.5 145.1,17.05 148,11.55 		"/>
	</g>
	<g>
		<polygon style="fill-rule:evenodd;clip-rule:evenodd;fill:#A49A48;" points="193.5,19.6 191.25,16.45 188.85,19.5 191.25,14.85 		
			"/>
	</g>
	<g>
		<polygon style="fill-rule:evenodd;clip-rule:evenodd;fill:#A49A48;" points="173.45,10.55 171.2,7.45 168.8,10.5 171.2,5.85 		"/>
	</g>
	<g>
		<polygon style="fill-rule:evenodd;clip-rule:evenodd;fill:#A49A48;" points="19.7,67.1 17.5,64 15.05,67 17.5,62.4 		"/>
	</g>
	<g>
		<polygon style="fill-rule:evenodd;clip-rule:evenodd;fill:#A49A48;" points="255.7,16.75 251.6,11 247.1,16.55 251.6,8.05 		"/>
	</g>
	<g>
		<polygon style="fill-rule:evenodd;clip-rule:evenodd;fill:#A49A48;" points="287.85,18.6 284.9,14.5 281.65,18.5 284.9,12.35 		
			"/>
	</g>
	<g>
		<polygon style="fill-rule:evenodd;clip-rule:evenodd;fill:#A49A48;" points="313.6,20.65 309.5,14.95 305.05,20.45 309.5,12 		"/>
	</g>
	<g>
		<polygon style="fill-rule:evenodd;clip-rule:evenodd;fill:#A49A48;" points="420.35,69.85 416,63.8 411.25,69.65 416,60.65 		"/>
	</g>
	<g>
		<polygon style="fill-rule:evenodd;clip-rule:evenodd;fill:#A49A48;" points="301.5,67.3 297.4,61.55 292.9,67.1 297.4,58.6 		"/>
	</g>
	<g>
		<polygon style="fill-rule:evenodd;clip-rule:evenodd;fill:#A49A48;" points="88.8,64.05 86.25,60.45 83.45,63.9 86.25,58.65 		"/>
	</g>
	<g>
		<polygon style="fill-rule:evenodd;clip-rule:evenodd;fill:#A49A48;" points="333.75,70.3 329.5,64.35 324.85,70.1 329.5,61.3 		
			"/>
	</g>
	<g>
		<polygon style="fill-rule:evenodd;clip-rule:evenodd;fill:#A49A48;" points="280.75,69.95 276,63.3 270.8,69.75 276,59.85 		"/>
	</g>
	<g>
		<polygon style="fill-rule:evenodd;clip-rule:evenodd;fill:#A49A48;" points="213.15,11.65 209.9,7.15 206.4,11.55 209.9,4.8 		"/>
	</g>
	<g>
		<polygon style="fill-rule:evenodd;clip-rule:evenodd;fill:#A49A48;" points="192.95,70.55 188.5,64.3 183.6,70.35 188.5,61.05 		
			"/>
	</g>
	<g>
		<polygon style="fill-rule:evenodd;clip-rule:evenodd;fill:#A49A48;" points="138.05,11.6 134.55,6.8 130.8,11.45 134.55,4.3 		"/>
	</g>
	<g>
		<polygon style="fill-rule:evenodd;clip-rule:evenodd;fill:#A49A48;" points="125.2,69.05 122.5,65.3 119.55,68.95 122.5,63.35 		
			"/>
	</g>
	<g>
		<polygon style="fill-rule:evenodd;clip-rule:evenodd;fill:#A49A48;" points="70.45,71.4 67.5,67.3 64.25,71.3 67.5,65.15 		"/>
	</g>
</g>
</svg>
