<?xml version="1.0" encoding="iso-8859-1"?>
<!-- Generator: Adobe Illustrator 15.1.0, SVG Export Plug-In . SVG Version: 6.00 Build 0)  -->
<!DOCTYPE svg PUBLIC "-//W3C//DTD SVG 1.1//EN" "http://www.w3.org/Graphics/SVG/1.1/DTD/svg11.dtd">
<svg version="1.1" id="ground_x5F_mid_x5F_top_x5F_05.ai"
	 xmlns="http://www.w3.org/2000/svg" xmlns:xlink="http://www.w3.org/1999/xlink" x="0px" y="0px" width="500px" height="82px"
	 viewBox="0 0 500 82" style="enable-background:new 0 0 500 82;" xml:space="preserve">
<g>
	<g>
		<path style="fill-rule:evenodd;clip-rule:evenodd;fill:#B3AB64;" d="M500,12v70H0V42c14.433,0,38.15-2.067,71.15-6.2
			c10.7-1.367,44.533-6,101.5-13.9c46.267-6.4,83.833-11.167,112.7-14.3C326.917,3.1,361.833,0.567,390.1,0
			c12.7-0.233,31.4,1.683,56.101,5.75C471.566,9.917,489.5,12,500,12z"/>
	</g>
	<g>
		<polygon style="fill-rule:evenodd;clip-rule:evenodd;fill:#A49A48;" points="45.45,71.95 41.9,67 38,71.8 41.9,64.45 		"/>
	</g>
	<g>
		<polygon style="fill-rule:evenodd;clip-rule:evenodd;fill:#A49A48;" points="75.35,59.8 71.05,53.85 66.4,59.6 71.05,50.75 		"/>
	</g>
	<g>
		<polygon style="fill-rule:evenodd;clip-rule:evenodd;fill:#A49A48;" points="106.2,63.2 102.8,58.5 99.15,63.05 102.8,56.1 		"/>
	</g>
	<g>
		<polygon style="fill-rule:evenodd;clip-rule:evenodd;fill:#A49A48;" points="138.6,65.05 134.9,59.9 130.85,64.9 134.9,57.2 		"/>
	</g>
	<g>
		<polygon style="fill-rule:evenodd;clip-rule:evenodd;fill:#A49A48;" points="158.75,50.05 154.4,55.45 158.75,47.15 162.75,55.6 
					"/>
	</g>
	<g>
		<polygon style="fill-rule:evenodd;clip-rule:evenodd;fill:#A49A48;" points="196.7,63.95 194.35,60.65 191.75,63.85 194.35,58.95 
					"/>
	</g>
	<g>
		<polygon style="fill-rule:evenodd;clip-rule:evenodd;fill:#A49A48;" points="229.4,55.6 225.45,50.1 221.2,55.4 225.45,47.25 		
			"/>
	</g>
	<g>
		<polygon style="fill-rule:evenodd;clip-rule:evenodd;fill:#A49A48;" points="256.05,68.35 252.2,63 248.05,68.15 252.2,60.3 		"/>
	</g>
	<g>
		<polygon style="fill-rule:evenodd;clip-rule:evenodd;fill:#A49A48;" points="277.75,60.85 273.4,54.8 268.65,60.65 273.4,51.65 		
			"/>
	</g>
	<g>
		<polygon style="fill-rule:evenodd;clip-rule:evenodd;fill:#A49A48;" points="319.45,61 316.05,56.25 312.35,60.85 316.05,53.8 		
			"/>
	</g>
	<g>
		<polygon style="fill-rule:evenodd;clip-rule:evenodd;fill:#A49A48;" points="351.85,71.2 347.6,65.25 342.95,71 347.6,62.2 		"/>
	</g>
	<g>
		<polygon style="fill-rule:evenodd;clip-rule:evenodd;fill:#A49A48;" points="381.9,75.1 379.5,71.7 376.8,75 379.5,69.95 		"/>
	</g>
	<g>
		<polygon style="fill-rule:evenodd;clip-rule:evenodd;fill:#A49A48;" points="404.5,62.7 402.25,59.6 399.85,62.6 402.25,58.05 		
			"/>
	</g>
	<g>
		<polygon style="fill-rule:evenodd;clip-rule:evenodd;fill:#A49A48;" points="437.4,66.3 432.95,60.05 428.05,66.1 432.95,56.85 		
			"/>
	</g>
	<g>
		<polygon style="fill-rule:evenodd;clip-rule:evenodd;fill:#A49A48;" points="470.45,58.05 465.8,51.55 460.75,57.85 465.8,48.2 		
			"/>
	</g>
	<g>
		<polygon style="fill-rule:evenodd;clip-rule:evenodd;fill:#A49A48;" points="495.55,71.1 491.6,65.65 487.3,70.95 491.6,62.8 		
			"/>
	</g>
	<g>
		<polygon style="fill-rule:evenodd;clip-rule:evenodd;fill:#A49A48;" points="226.9,75.5 222.45,69.3 217.6,75.3 222.45,66.1 		"/>
	</g>
	<g>
		<polygon style="fill-rule:evenodd;clip-rule:evenodd;fill:#A49A48;" points="455.8,75.75 453.25,72.2 450.45,75.6 453.25,70.35 		
			"/>
	</g>
	<g>
		<polygon style="fill-rule:evenodd;clip-rule:evenodd;fill:#A49A48;" points="168.75,74.35 164.4,68.3 159.7,74.15 164.4,65.15 		
			"/>
	</g>
	<g>
		<polygon style="fill-rule:evenodd;clip-rule:evenodd;fill:#A49A48;" points="496.9,42 494.45,38.6 491.8,41.9 494.45,36.85 		"/>
	</g>
	<g>
		<polygon style="fill-rule:evenodd;clip-rule:evenodd;fill:#A49A48;" points="467.2,37.25 465,34.2 462.65,37.2 465,32.65 		"/>
	</g>
	<g>
		<polygon style="fill-rule:evenodd;clip-rule:evenodd;fill:#A49A48;" points="437.65,46.55 433.85,41.25 429.7,46.35 433.85,38.55 
					"/>
	</g>
	<g>
		<polygon style="fill-rule:evenodd;clip-rule:evenodd;fill:#A49A48;" points="400.15,42.8 396.3,37.45 392.1,42.65 396.3,34.7 		
			"/>
	</g>
	<g>
		<polygon style="fill-rule:evenodd;clip-rule:evenodd;fill:#A49A48;" points="370.65,44.1 367.75,40.05 364.6,43.95 367.75,38 		
			"/>
	</g>
	<g>
		<polygon style="fill-rule:evenodd;clip-rule:evenodd;fill:#A49A48;" points="346.65,49.75 344.45,46.65 342.05,49.65 344.45,45.1 
					"/>
	</g>
	<g>
		<polygon style="fill-rule:evenodd;clip-rule:evenodd;fill:#A49A48;" points="323.55,39.35 321.25,36.15 318.75,39.25 
			321.25,34.55 		"/>
	</g>
	<g>
		<polygon style="fill-rule:evenodd;clip-rule:evenodd;fill:#A49A48;" points="294.1,49.3 291.25,45.3 288.15,49.15 291.25,43.25 		
			"/>
	</g>
	<g>
		<polygon style="fill-rule:evenodd;clip-rule:evenodd;fill:#A49A48;" points="262.1,38.6 259.45,34.9 256.55,38.45 259.45,33 		"/>
	</g>
	<g>
		<polygon style="fill-rule:evenodd;clip-rule:evenodd;fill:#A49A48;" points="147.1,78.55 144.5,74.9 141.6,78.45 144.5,73 		"/>
	</g>
	<g>
		<polygon style="fill-rule:evenodd;clip-rule:evenodd;fill:#A49A48;" points="233.2,35.9 229.05,30.1 224.55,35.75 229.05,27.15 		
			"/>
	</g>
	<g>
		<polygon style="fill-rule:evenodd;clip-rule:evenodd;fill:#A49A48;" points="199.15,40.4 194.4,46.3 199.15,37.25 203.55,46.5 		
			"/>
	</g>
	<g>
		<polygon style="fill-rule:evenodd;clip-rule:evenodd;fill:#A49A48;" points="178.55,44.35 174.75,39.05 170.6,44.2 174.75,36.35 
					"/>
	</g>
	<g>
		<polygon style="fill-rule:evenodd;clip-rule:evenodd;fill:#A49A48;" points="144.95,41.95 142.1,37.95 139,41.8 142.1,35.95 		"/>
	</g>
	<g>
		<polygon style="fill-rule:evenodd;clip-rule:evenodd;fill:#A49A48;" points="415.3,80.45 412.5,76.5 409.4,80.3 412.5,74.45 		"/>
	</g>
	<g>
		<polygon style="fill-rule:evenodd;clip-rule:evenodd;fill:#A49A48;" points="119.45,44 115.5,38.5 111.2,43.8 115.5,35.65 		"/>
	</g>
	<g>
		<polygon style="fill-rule:evenodd;clip-rule:evenodd;fill:#A49A48;" points="88.5,44.8 86,41.3 83.25,44.65 86,39.5 		"/>
	</g>
	<g>
		<polygon style="fill-rule:evenodd;clip-rule:evenodd;fill:#A49A48;" points="13.15,49.6 10.65,46.1 7.9,49.5 10.65,44.3 		"/>
	</g>
	<g>
		<polygon style="fill-rule:evenodd;clip-rule:evenodd;fill:#A49A48;" points="31.05,78.85 26.5,72.5 21.5,78.65 26.5,69.2 		"/>
	</g>
	<g>
		<polygon style="fill-rule:evenodd;clip-rule:evenodd;fill:#A49A48;" points="36.45,56.05 33,51.2 29.2,55.9 33,48.7 		"/>
	</g>
	<g>
		<polygon style="fill-rule:evenodd;clip-rule:evenodd;fill:#A49A48;" points="55.5,51.6 51.5,46 47.1,51.4 51.5,43.1 		"/>
	</g>
	<g>
		<polygon style="fill-rule:evenodd;clip-rule:evenodd;fill:#A49A48;" points="68.75,78.1 64,71.5 58.8,77.9 64,68.05 		"/>
	</g>
	<g>
		<polygon style="fill-rule:evenodd;clip-rule:evenodd;fill:#A49A48;" points="156.65,31.7 154,28 151.1,31.55 154,26.05 		"/>
	</g>
	<g>
		<polygon style="fill-rule:evenodd;clip-rule:evenodd;fill:#A49A48;" points="193.5,29.3 191.25,26.15 188.85,29.2 191.25,24.55 		
			"/>
	</g>
	<g>
		<polygon style="fill-rule:evenodd;clip-rule:evenodd;fill:#A49A48;" points="12.2,75.6 10,72.5 7.55,75.5 10,70.9 		"/>
	</g>
	<g>
		<polygon style="fill-rule:evenodd;clip-rule:evenodd;fill:#A49A48;" points="187.85,79.15 184.5,74.4 180.8,79 184.5,72 		"/>
	</g>
	<g>
		<polygon style="fill-rule:evenodd;clip-rule:evenodd;fill:#A49A48;" points="255.7,26.45 251.6,20.7 247.1,26.25 251.6,17.75 		
			"/>
	</g>
	<g>
		<polygon style="fill-rule:evenodd;clip-rule:evenodd;fill:#A49A48;" points="287.85,28.3 284.9,24.2 281.65,28.2 284.9,22.05 		
			"/>
	</g>
	<g>
		<polygon style="fill-rule:evenodd;clip-rule:evenodd;fill:#A49A48;" points="314.6,27.85 310.5,22.15 306.05,27.65 310.5,19.2 		
			"/>
	</g>
	<g>
		<polygon style="fill-rule:evenodd;clip-rule:evenodd;fill:#A49A48;" points="346.65,26.05 344.2,22.6 341.5,25.95 344.2,20.85 		
			"/>
	</g>
	<g>
		<polygon style="fill-rule:evenodd;clip-rule:evenodd;fill:#A49A48;" points="379.25,19.6 375.35,14.15 371.05,19.45 375.35,11.35 
					"/>
	</g>
	<g>
		<polygon style="fill-rule:evenodd;clip-rule:evenodd;fill:#A49A48;" points="403.25,20.65 398.5,26.5 403.25,17.5 407.6,26.7 		
			"/>
	</g>
	<g>
		<polygon style="fill-rule:evenodd;clip-rule:evenodd;fill:#A49A48;" points="430.55,29.9 427.8,26 424.75,29.8 427.8,24 		"/>
	</g>
	<g>
		<polygon style="fill-rule:evenodd;clip-rule:evenodd;fill:#A49A48;" points="455.55,29.1 452.75,25.2 449.7,29 452.75,23.2 		"/>
	</g>
	<g>
		<polygon style="fill-rule:evenodd;clip-rule:evenodd;fill:#A49A48;" points="489.75,28.15 486.15,23.15 482.25,28 486.15,20.6 		
			"/>
	</g>
	<g>
		<polygon style="fill-rule:evenodd;clip-rule:evenodd;fill:#A49A48;" points="362,75.5 358.75,79.5 362,73.35 364.95,79.65 		"/>
	</g>
	<g>
		<polygon style="fill-rule:evenodd;clip-rule:evenodd;fill:#A49A48;" points="301.5,77 297.4,71.25 292.9,76.8 297.4,68.3 		"/>
	</g>
	<g>
		<polygon style="fill-rule:evenodd;clip-rule:evenodd;fill:#A49A48;" points="88.8,73.75 86.25,70.15 83.45,73.6 86.25,68.35 		"/>
	</g>
	<g>
		<polygon style="fill-rule:evenodd;clip-rule:evenodd;fill:#A49A48;" points="478.9,79.45 475,74 470.7,79.3 475,71.15 		"/>
	</g>
	<g>
		<polygon style="fill-rule:evenodd;clip-rule:evenodd;fill:#A49A48;" points="445,11.5 442.15,15 445,9.6 447.55,15.1 		"/>
	</g>
	<g>
		<polygon style="fill-rule:evenodd;clip-rule:evenodd;fill:#A49A48;" points="393.3,8.25 391,5 388.45,8.15 391,3.3 		"/>
	</g>
	<g>
		<polygon style="fill-rule:evenodd;clip-rule:evenodd;fill:#A49A48;" points="328.45,79.25 324,73 319.1,79.05 324,69.75 		"/>
	</g>
	<g>
		<polygon style="fill-rule:evenodd;clip-rule:evenodd;fill:#A49A48;" points="338.5,15.3 334,9 329.05,15.1 334,5.75 		"/>
	</g>
	<g>
		<polygon style="fill-rule:evenodd;clip-rule:evenodd;fill:#A49A48;" points="301.75,19.15 297.5,13.2 292.85,18.95 297.5,10.1 		
			"/>
	</g>
	<g>
		<polygon style="fill-rule:evenodd;clip-rule:evenodd;fill:#A49A48;" points="241,73.5 236.5,79.05 241,70.5 245.1,79.25 		"/>
	</g>
	<g>
		<polygon style="fill-rule:evenodd;clip-rule:evenodd;fill:#A49A48;" points="212.75,27 209.5,22.5 205.95,26.85 209.5,20.15 		"/>
	</g>
	<g>
		<polygon style="fill-rule:evenodd;clip-rule:evenodd;fill:#A49A48;" points="120.45,77.75 116,71.5 111.1,77.55 116,68.25 		"/>
	</g>
</g>
</svg>
