<?xml version="1.0" encoding="iso-8859-1"?>
<!-- Generator: Adobe Illustrator 15.1.0, SVG Export Plug-In . SVG Version: 6.00 Build 0)  -->
<!DOCTYPE svg PUBLIC "-//W3C//DTD SVG 1.1//EN" "http://www.w3.org/Graphics/SVG/1.1/DTD/svg11.dtd">
<svg version="1.1" id="ground_x5F_mid_x5F_right.ai"
	 xmlns="http://www.w3.org/2000/svg" xmlns:xlink="http://www.w3.org/1999/xlink" x="0px" y="0px" width="553.5px"
	 height="256.85px" viewBox="0 0 553.5 256.85" style="enable-background:new 0 0 553.5 256.85;" xml:space="preserve">
<g>
	<path style="fill-rule:evenodd;clip-rule:evenodd;fill:#B3AB64;" d="M365.7,165.2c72.467,34.633,135.066,65.184,187.8,91.649H0V0
		C98.8,40.833,220.7,95.9,365.7,165.2z"/>
	<g>
		<polygon style="fill-rule:evenodd;clip-rule:evenodd;fill:#A49A48;" points="186.55,100.9 181.5,93.85 175.95,100.7 181.5,90.2 		
			"/>
	</g>
	<g>
		<polygon style="fill-rule:evenodd;clip-rule:evenodd;fill:#A49A48;" points="128.25,117.95 124.8,113.15 121.05,117.8 
			124.8,110.7 		"/>
	</g>
	<g>
		<polygon style="fill-rule:evenodd;clip-rule:evenodd;fill:#A49A48;" points="135.3,97.1 131.85,92.3 128.1,96.95 131.85,89.8 		
			"/>
	</g>
	<g>
		<polygon style="fill-rule:evenodd;clip-rule:evenodd;fill:#A49A48;" points="111.35,126.35 108.6,122.55 105.65,126.25 
			108.6,120.6 		"/>
	</g>
	<g>
		<polygon style="fill-rule:evenodd;clip-rule:evenodd;fill:#A49A48;" points="91,159.75 86.35,153.2 81.2,159.55 86.35,149.85 		
			"/>
	</g>
	<g>
		<polygon style="fill-rule:evenodd;clip-rule:evenodd;fill:#A49A48;" points="77,200.95 71.25,208.1 77,197.15 82.3,208.35 		"/>
	</g>
	<g>
		<polygon style="fill-rule:evenodd;clip-rule:evenodd;fill:#A49A48;" points="117.8,232 112.35,224.4 106.4,231.75 112.35,220.5 		
			"/>
	</g>
	<g>
		<polygon style="fill-rule:evenodd;clip-rule:evenodd;fill:#A49A48;" points="146.55,246.65 143.05,241.75 139.2,246.5 
			143.05,239.2 		"/>
	</g>
	<g>
		<polygon style="fill-rule:evenodd;clip-rule:evenodd;fill:#A49A48;" points="187.3,238.6 183.85,233.75 180.05,238.45 
			183.85,231.25 		"/>
	</g>
	<g>
		<polygon style="fill-rule:evenodd;clip-rule:evenodd;fill:#A49A48;" points="226.6,244.3 221.5,237.15 215.9,244.1 221.5,233.5 		
			"/>
	</g>
	<g>
		<polygon style="fill-rule:evenodd;clip-rule:evenodd;fill:#A49A48;" points="266.2,247.3 260.8,239.85 254.95,247.05 260.8,236 		
			"/>
	</g>
	<g>
		<polygon style="fill-rule:evenodd;clip-rule:evenodd;fill:#A49A48;" points="302,239.45 297.35,232.95 292.3,239.25 297.35,229.6 
					"/>
	</g>
	<g>
		<polygon style="fill-rule:evenodd;clip-rule:evenodd;fill:#A49A48;" points="343.65,243.95 341.05,240.35 338.25,243.85 
			341.05,238.45 		"/>
	</g>
	<g>
		<polygon style="fill-rule:evenodd;clip-rule:evenodd;fill:#A49A48;" points="385.1,237.85 382.2,233.8 379,237.75 382.2,231.7 		
			"/>
	</g>
	<g>
		<polygon style="fill-rule:evenodd;clip-rule:evenodd;fill:#A49A48;" points="427.9,241.8 422.55,234.3 416.7,241.55 
			422.55,230.45 		"/>
	</g>
	<g>
		<polygon style="fill-rule:evenodd;clip-rule:evenodd;fill:#A49A48;" points="463.2,251.4 458.2,244.4 452.7,251.15 458.2,240.8 		
			"/>
	</g>
	<g>
		<polygon style="fill-rule:evenodd;clip-rule:evenodd;fill:#A49A48;" points="502.6,243.45 497.4,236.2 491.75,243.25 
			497.4,232.45 		"/>
	</g>
	<g>
		<polygon style="fill-rule:evenodd;clip-rule:evenodd;fill:#A49A48;" points="536.65,254.15 533.7,250.05 530.5,254.05 
			533.7,247.95 		"/>
	</g>
	<g>
		<polygon style="fill-rule:evenodd;clip-rule:evenodd;fill:#A49A48;" points="437.05,212.7 432.15,205.85 426.8,212.45 
			432.15,202.3 		"/>
	</g>
	<g>
		<polygon style="fill-rule:evenodd;clip-rule:evenodd;fill:#A49A48;" points="525.3,251.15 520.8,244.9 515.95,250.95 520.8,241.7 
					"/>
	</g>
	<g>
		<polygon style="fill-rule:evenodd;clip-rule:evenodd;fill:#A49A48;" points="484.05,254.4 478.75,247.05 473,254.2 478.75,243.25 
					"/>
	</g>
	<g>
		<polygon style="fill-rule:evenodd;clip-rule:evenodd;fill:#A49A48;" points="438.45,255.25 433.9,248.9 429,255.05 433.9,245.65 
					"/>
	</g>
	<g>
		<polygon style="fill-rule:evenodd;clip-rule:evenodd;fill:#A49A48;" points="400.9,233.4 396.35,239.05 400.9,230.4 405.1,239.25 
					"/>
	</g>
	<g>
		<polygon style="fill-rule:evenodd;clip-rule:evenodd;fill:#A49A48;" points="359.6,250.35 356.35,245.9 352.85,250.2 
			356.35,243.55 		"/>
	</g>
	<g>
		<polygon style="fill-rule:evenodd;clip-rule:evenodd;fill:#A49A48;" points="316.85,249.7 314.05,245.75 310.95,249.55 
			314.05,243.7 		"/>
	</g>
	<g>
		<polygon style="fill-rule:evenodd;clip-rule:evenodd;fill:#A49A48;" points="253.35,221.25 247.95,213.75 242.1,221 247.95,209.9 
					"/>
	</g>
	<g>
		<polygon style="fill-rule:evenodd;clip-rule:evenodd;fill:#A49A48;" points="242.7,246.15 237.45,252.65 242.7,242.7 
			247.5,252.85 		"/>
	</g>
	<g>
		<polygon style="fill-rule:evenodd;clip-rule:evenodd;fill:#A49A48;" points="208.75,255.55 204.75,250.05 200.45,255.4 
			204.75,247.15 		"/>
	</g>
	<g>
		<polygon style="fill-rule:evenodd;clip-rule:evenodd;fill:#A49A48;" points="173.8,248.1 168.2,240.35 162.15,247.85 168.2,236.3 
					"/>
	</g>
	<g>
		<polygon style="fill-rule:evenodd;clip-rule:evenodd;fill:#A49A48;" points="132.35,232.95 129.5,229 126.4,232.85 129.5,227 		
			"/>
	</g>
	<g>
		<polygon style="fill-rule:evenodd;clip-rule:evenodd;fill:#A49A48;" points="88.4,237.35 85.75,233.65 82.9,237.2 85.75,231.75 		
			"/>
	</g>
	<g>
		<polygon style="fill-rule:evenodd;clip-rule:evenodd;fill:#A49A48;" points="48.8,246.7 43.8,239.75 38.4,246.45 43.8,236.15 		
			"/>
	</g>
	<g>
		<polygon style="fill-rule:evenodd;clip-rule:evenodd;fill:#A49A48;" points="16.6,250.85 11,243.05 4.95,250.6 11,239.05 		"/>
	</g>
	<g>
		<polygon style="fill-rule:evenodd;clip-rule:evenodd;fill:#A49A48;" points="36.15,221.35 32.95,216.9 29.45,221.25 32.95,214.6 
					"/>
	</g>
	<g>
		<polygon style="fill-rule:evenodd;clip-rule:evenodd;fill:#A49A48;" points="73.6,250.85 70.85,246.95 67.8,250.7 70.85,244.95 		
			"/>
	</g>
	<g>
		<polygon style="fill-rule:evenodd;clip-rule:evenodd;fill:#A49A48;" points="64.55,158.5 59.3,151.2 53.6,158.25 59.3,147.4 		"/>
	</g>
	<g>
		<polygon style="fill-rule:evenodd;clip-rule:evenodd;fill:#A49A48;" points="14.2,220.3 10.8,215.6 7.15,220.15 10.8,213.15 		"/>
	</g>
	<g>
		<polygon style="fill-rule:evenodd;clip-rule:evenodd;fill:#A49A48;" points="60.7,221.8 55.6,214.65 50,221.6 55.6,210.95 		"/>
	</g>
	<g>
		<polygon style="fill-rule:evenodd;clip-rule:evenodd;fill:#A49A48;" points="103.35,193.75 98.15,186.5 92.5,193.55 98.15,182.75 
					"/>
	</g>
	<g>
		<polygon style="fill-rule:evenodd;clip-rule:evenodd;fill:#A49A48;" points="131.1,195.3 128.15,191.15 124.9,195.15 
			128.15,189.05 		"/>
	</g>
	<g>
		<polygon style="fill-rule:evenodd;clip-rule:evenodd;fill:#A49A48;" points="177.35,206.5 173.75,201.45 169.8,206.35 
			173.75,198.85 		"/>
	</g>
	<g>
		<polygon style="fill-rule:evenodd;clip-rule:evenodd;fill:#A49A48;" points="218.65,196.3 214.1,190 209.15,196.1 214.1,186.7 		
			"/>
	</g>
	<g>
		<polygon style="fill-rule:evenodd;clip-rule:evenodd;fill:#A49A48;" points="256,197.7 251.45,191.4 246.55,197.5 251.45,188.15 
					"/>
	</g>
	<g>
		<polygon style="fill-rule:evenodd;clip-rule:evenodd;fill:#A49A48;" points="289.75,198.85 287.1,195.15 284.25,198.7 
			287.1,193.25 		"/>
	</g>
	<g>
		<polygon style="fill-rule:evenodd;clip-rule:evenodd;fill:#A49A48;" points="396.15,253.85 393.5,250.15 390.65,253.7 
			393.5,248.25 		"/>
	</g>
	<g>
		<polygon style="fill-rule:evenodd;clip-rule:evenodd;fill:#A49A48;" points="200.1,217.5 197.5,213.85 194.6,217.4 197.5,211.95 
					"/>
	</g>
	<g>
		<polygon style="fill-rule:evenodd;clip-rule:evenodd;fill:#A49A48;" points="332.6,209.5 328.05,203.1 323.05,209.3 
			328.05,199.85 		"/>
	</g>
	<g>
		<polygon style="fill-rule:evenodd;clip-rule:evenodd;fill:#A49A48;" points="369.55,203.35 366.15,198.6 362.45,203.2 
			366.15,196.15 		"/>
	</g>
	<g>
		<polygon style="fill-rule:evenodd;clip-rule:evenodd;fill:#A49A48;" points="403.45,208.5 398.4,214.8 403.45,205.1 408.15,215 		
			"/>
	</g>
	<g>
		<polygon style="fill-rule:evenodd;clip-rule:evenodd;fill:#A49A48;" points="334.95,183.05 332.15,179.15 329.1,182.95 
			332.15,177.15 		"/>
	</g>
	<g>
		<polygon style="fill-rule:evenodd;clip-rule:evenodd;fill:#A49A48;" points="478.3,231.75 475.5,227.85 472.45,231.6 
			475.5,225.85 		"/>
	</g>
	<g>
		<polygon style="fill-rule:evenodd;clip-rule:evenodd;fill:#A49A48;" points="373.65,180.1 368.6,173.1 363.15,179.85 
			368.6,169.45 		"/>
	</g>
	<g>
		<polygon style="fill-rule:evenodd;clip-rule:evenodd;fill:#A49A48;" points="361.25,222.4 357.5,217.15 353.4,222.25 357.5,214.5 
					"/>
	</g>
	<g>
		<polygon style="fill-rule:evenodd;clip-rule:evenodd;fill:#A49A48;" points="311.05,219.55 305.5,211.85 299.45,219.35 
			305.5,207.85 		"/>
	</g>
	<g>
		<polygon style="fill-rule:evenodd;clip-rule:evenodd;fill:#A49A48;" points="457.05,228.25 451.5,220.5 445.45,228 451.5,216.5 		
			"/>
	</g>
	<g>
		<polygon style="fill-rule:evenodd;clip-rule:evenodd;fill:#A49A48;" points="395.5,189.4 392.3,185 388.85,189.25 392.3,182.7 		
			"/>
	</g>
	<g>
		<polygon style="fill-rule:evenodd;clip-rule:evenodd;fill:#A49A48;" points="346.75,176.15 344.15,172.5 341.3,176.05 
			344.15,170.6 		"/>
	</g>
	<g>
		<polygon style="fill-rule:evenodd;clip-rule:evenodd;fill:#A49A48;" points="312.45,183.85 309.55,179.9 306.45,183.75 
			309.55,177.85 		"/>
	</g>
	<g>
		<polygon style="fill-rule:evenodd;clip-rule:evenodd;fill:#A49A48;" points="273.6,178.35 270.75,174.35 267.6,178.2 
			270.75,172.3 		"/>
	</g>
	<g>
		<polygon style="fill-rule:evenodd;clip-rule:evenodd;fill:#A49A48;" points="237.35,165.8 232.95,159.75 228.25,165.6 
			232.95,156.6 		"/>
	</g>
	<g>
		<polygon style="fill-rule:evenodd;clip-rule:evenodd;fill:#A49A48;" points="197.55,180.7 193.55,175.1 189.15,180.55 
			193.55,172.2 		"/>
	</g>
	<g>
		<polygon style="fill-rule:evenodd;clip-rule:evenodd;fill:#A49A48;" points="157.4,174.7 151.4,182.15 157.4,170.75 162.95,182.4 
					"/>
	</g>
	<g>
		<polygon style="fill-rule:evenodd;clip-rule:evenodd;fill:#A49A48;" points="128.3,174.15 122.8,166.5 116.85,173.9 122.8,162.55 
					"/>
	</g>
	<g>
		<polygon style="fill-rule:evenodd;clip-rule:evenodd;fill:#A49A48;" points="78,174.75 74.35,179.3 78,172.35 81.35,179.45 		"/>
	</g>
	<g>
		<polygon style="fill-rule:evenodd;clip-rule:evenodd;fill:#A49A48;" points="44.05,184.6 41.05,180.5 37.85,184.5 41.05,178.35 		
			"/>
	</g>
	<g>
		<polygon style="fill-rule:evenodd;clip-rule:evenodd;fill:#A49A48;" points="19.1,175.4 14.15,168.5 8.75,175.2 14.15,164.95 		
			"/>
	</g>
	<g>
		<polygon style="fill-rule:evenodd;clip-rule:evenodd;fill:#A49A48;" points="225.85,219.6 221.05,212.95 215.85,219.4 
			221.05,209.5 		"/>
	</g>
	<g>
		<polygon style="fill-rule:evenodd;clip-rule:evenodd;fill:#A49A48;" points="33.25,200.95 28.15,193.85 22.55,200.75 
			28.15,190.15 		"/>
	</g>
	<g>
		<polygon style="fill-rule:evenodd;clip-rule:evenodd;fill:#A49A48;" points="37.5,163 32.8,156.5 27.75,162.8 32.8,153.15 		"/>
	</g>
	<g>
		<polygon style="fill-rule:evenodd;clip-rule:evenodd;fill:#A49A48;" points="12,140.3 8.8,135.85 5.3,140.15 8.8,133.55 		"/>
	</g>
	<g>
		<polygon style="fill-rule:evenodd;clip-rule:evenodd;fill:#A49A48;" points="61.35,133.35 57.05,127.35 52.35,133.15 
			57.05,124.25 		"/>
	</g>
	<g>
		<polygon style="fill-rule:evenodd;clip-rule:evenodd;fill:#A49A48;" points="104.8,152.7 99.7,145.6 94.1,152.5 99.7,141.9 		"/>
	</g>
	<g>
		<polygon style="fill-rule:evenodd;clip-rule:evenodd;fill:#A49A48;" points="145.1,145.3 140.15,138.4 134.8,145.05 140.15,134.9 
					"/>
	</g>
	<g>
		<polygon style="fill-rule:evenodd;clip-rule:evenodd;fill:#A49A48;" points="184.7,145.3 181.35,140.7 177.75,145.2 181.35,138.3 
					"/>
	</g>
	<g>
		<polygon style="fill-rule:evenodd;clip-rule:evenodd;fill:#A49A48;" points="227.25,127.25 221.85,119.75 216.05,127 
			221.85,115.9 		"/>
	</g>
	<g>
		<polygon style="fill-rule:evenodd;clip-rule:evenodd;fill:#A49A48;" points="258.3,126.5 255,121.95 251.45,126.35 255,119.6 		
			"/>
	</g>
	<g>
		<polygon style="fill-rule:evenodd;clip-rule:evenodd;fill:#A49A48;" points="192.9,124.15 188.8,118.5 184.4,124 188.8,115.6 		
			"/>
	</g>
	<g>
		<polygon style="fill-rule:evenodd;clip-rule:evenodd;fill:#A49A48;" points="156.05,217.8 150.8,210.5 145.1,217.55 150.8,206.75 
					"/>
	</g>
	<g>
		<polygon style="fill-rule:evenodd;clip-rule:evenodd;fill:#A49A48;" points="279.15,219.95 276.4,216.2 273.5,219.85 
			276.4,214.25 		"/>
	</g>
	<g>
		<polygon style="fill-rule:evenodd;clip-rule:evenodd;fill:#A49A48;" points="319.95,161.15 316.15,155.85 312,161 316.15,153.1 		
			"/>
	</g>
	<g>
		<polygon style="fill-rule:evenodd;clip-rule:evenodd;fill:#A49A48;" points="295.25,147.8 291.5,142.5 287.35,147.6 291.5,139.8 
					"/>
	</g>
	<g>
		<polygon style="fill-rule:evenodd;clip-rule:evenodd;fill:#A49A48;" points="267.05,153.35 262.15,146.5 256.8,153.15 
			262.15,142.95 		"/>
	</g>
	<g>
		<polygon style="fill-rule:evenodd;clip-rule:evenodd;fill:#A49A48;" points="212.75,152.4 209.5,147.85 205.9,152.25 
			209.5,145.45 		"/>
	</g>
	<g>
		<polygon style="fill-rule:evenodd;clip-rule:evenodd;fill:#A49A48;" points="184.45,169.65 178.8,161.85 172.7,169.4 178.8,157.8 
					"/>
	</g>
	<g>
		<polygon style="fill-rule:evenodd;clip-rule:evenodd;fill:#A49A48;" points="206,104.55 202.5,99.65 198.65,104.4 202.5,97.1 		
			"/>
	</g>
	<g>
		<polygon style="fill-rule:evenodd;clip-rule:evenodd;fill:#A49A48;" points="160.8,78.5 157.95,82.05 160.8,76.6 163.45,82.2 		
			"/>
	</g>
	<g>
		<polygon style="fill-rule:evenodd;clip-rule:evenodd;fill:#A49A48;" points="120.15,79.85 116.4,84.45 120.15,77.35 123.55,84.6 
					"/>
	</g>
	<g>
		<polygon style="fill-rule:evenodd;clip-rule:evenodd;fill:#A49A48;" points="94.85,91.7 89.35,84 83.35,91.45 89.35,80.05 		"/>
	</g>
	<g>
		<polygon style="fill-rule:evenodd;clip-rule:evenodd;fill:#A49A48;" points="55.85,97.1 51.25,90.7 46.3,96.9 51.25,87.45 		"/>
	</g>
	<g>
		<polygon style="fill-rule:evenodd;clip-rule:evenodd;fill:#A49A48;" points="17.25,92.15 11.55,84.25 5.4,91.9 11.55,80.2 		"/>
	</g>
	<g>
		<polygon style="fill-rule:evenodd;clip-rule:evenodd;fill:#A49A48;" points="47.85,111.95 44.55,107.4 41,111.85 44.55,105.05 		
			"/>
	</g>
	<g>
		<polygon style="fill-rule:evenodd;clip-rule:evenodd;fill:#A49A48;" points="14.1,105.75 10.8,101.15 7.25,105.6 10.8,98.8 		"/>
	</g>
	<g>
		<polygon style="fill-rule:evenodd;clip-rule:evenodd;fill:#A49A48;" points="24.5,121 20.8,115.85 16.8,120.85 20.8,113.15 		"/>
	</g>
	<g>
		<polygon style="fill-rule:evenodd;clip-rule:evenodd;fill:#A49A48;" points="20.15,69.15 17.55,65.55 14.75,69.05 17.55,63.7 		
			"/>
	</g>
	<g>
		<polygon style="fill-rule:evenodd;clip-rule:evenodd;fill:#A49A48;" points="17.7,45.95 13.8,40.55 9.55,45.8 13.8,37.75 		"/>
	</g>
	<g>
		<polygon style="fill-rule:evenodd;clip-rule:evenodd;fill:#A49A48;" points="33.45,54.8 29.55,49.35 25.3,54.6 29.55,46.5 		"/>
	</g>
	<g>
		<polygon style="fill-rule:evenodd;clip-rule:evenodd;fill:#A49A48;" points="72.1,64.95 66.6,57.3 60.6,64.75 66.6,53.35 		"/>
	</g>
	<g>
		<polygon style="fill-rule:evenodd;clip-rule:evenodd;fill:#A49A48;" points="105.6,64.1 102.45,59.75 99.05,63.95 102.45,57.5 		
			"/>
	</g>
	<g>
		<polygon style="fill-rule:evenodd;clip-rule:evenodd;fill:#A49A48;" points="80.15,109.15 75.2,115.25 80.15,105.9 84.65,115.45 
					"/>
	</g>
	<g>
		<polygon style="fill-rule:evenodd;clip-rule:evenodd;fill:#A49A48;" points="160.15,106.6 154.8,99.15 149,106.35 154.8,95.35 		
			"/>
	</g>
	<g>
		<polygon style="fill-rule:evenodd;clip-rule:evenodd;fill:#A49A48;" points="167.55,132.2 163.5,126.5 159.05,132 163.5,123.55 		
			"/>
	</g>
	<g>
		<polygon style="fill-rule:evenodd;clip-rule:evenodd;fill:#A49A48;" points="140.8,71.85 136.1,65.25 130.95,71.65 136.1,61.85 		
			"/>
	</g>
	<g>
		<polygon style="fill-rule:evenodd;clip-rule:evenodd;fill:#A49A48;" points="94.1,54.1 90.35,48.85 86.25,53.95 90.35,46.15 		"/>
	</g>
	<g>
		<polygon style="fill-rule:evenodd;clip-rule:evenodd;fill:#A49A48;" points="65.75,44.7 60.8,37.85 55.45,44.5 60.8,34.3 		"/>
	</g>
	<g>
		<polygon style="fill-rule:evenodd;clip-rule:evenodd;fill:#A49A48;" points="50.5,72.15 45.5,65.15 40.05,71.9 45.5,61.6 		"/>
	</g>
	<g>
		<polygon style="fill-rule:evenodd;clip-rule:evenodd;fill:#A49A48;" points="38.15,29.15 35,33.1 38.15,27.1 41.05,33.2 		"/>
	</g>
	<g>
		<polygon style="fill-rule:evenodd;clip-rule:evenodd;fill:#A49A48;" points="17.3,23.05 12.15,15.85 6.5,22.8 12.15,12.15 		"/>
	</g>
</g>
</svg>
