<?xml version="1.0" encoding="iso-8859-1"?>
<!-- Generator: Adobe Illustrator 15.1.0, SVG Export Plug-In . SVG Version: 6.00 Build 0)  -->
<!DOCTYPE svg PUBLIC "-//W3C//DTD SVG 1.1//EN" "http://www.w3.org/Graphics/SVG/1.1/DTD/svg11.dtd">
<svg version="1.1" id="ground" xmlns="http://www.w3.org/2000/svg" xmlns:xlink="http://www.w3.org/1999/xlink" x="0px" y="0px"
	 width="2500px" height="110.55px" viewBox="0 0 2500 110.55" style="enable-background:new 0 0 2500 110.55;" xml:space="preserve"
	>
<g>
	<g>
		<path style="fill-rule:evenodd;clip-rule:evenodd;fill:#ABA254;" d="M500.008,40.5v70.05H0V40.5c14.667,0,29.734-2.033,45.201-6.1
			c5.267-1.4,19.384-5.933,42.351-13.6c18.7-6.233,35.617-10.85,50.75-13.85c21.768-4.3,45.234-6.6,70.402-6.9
			c22.233-0.433,48.934,1.4,80.101,5.5c22.734,3,50.734,7.667,84.001,14c18.133,3.467,43.067,8.25,74.801,14.35
			C472.041,38.3,489.507,40.5,500.008,40.5z"/>
	</g>
	<g>
		<polygon style="fill-rule:evenodd;clip-rule:evenodd;fill:#918B4B;" points="46.201,101.25 41.951,95.3 37.3,101.05 41.951,92.25 
					"/>
	</g>
	<g>
		<polygon style="fill-rule:evenodd;clip-rule:evenodd;fill:#918B4B;" points="76.251,89.2 71.151,82.1 65.551,89 71.151,78.4 		"/>
	</g>
	<g>
		<polygon style="fill-rule:evenodd;clip-rule:evenodd;fill:#918B4B;" points="106.901,92.45 102.852,86.8 98.452,92.25 
			102.852,83.9 		"/>
	</g>
	<g>
		<polygon style="fill-rule:evenodd;clip-rule:evenodd;fill:#918B4B;" points="139.402,94.35 134.952,88.15 130.102,94.15 
			134.952,84.95 		"/>
	</g>
	<g>
		<polygon style="fill-rule:evenodd;clip-rule:evenodd;fill:#918B4B;" points="158.802,78.3 153.552,84.8 158.802,74.85 163.603,85 
					"/>
	</g>
	<g>
		<polygon style="fill-rule:evenodd;clip-rule:evenodd;fill:#918B4B;" points="197.203,93 194.403,89.05 191.303,92.85 194.403,87 
					"/>
	</g>
	<g>
		<polygon style="fill-rule:evenodd;clip-rule:evenodd;fill:#918B4B;" points="230.253,84.95 225.503,78.35 220.403,84.75 
			225.503,74.95 		"/>
	</g>
	<g>
		<polygon style="fill-rule:evenodd;clip-rule:evenodd;fill:#918B4B;" points="256.854,97.65 252.254,91.3 247.304,97.45 
			252.254,88 		"/>
	</g>
	<g>
		<polygon style="fill-rule:evenodd;clip-rule:evenodd;fill:#918B4B;" points="278.705,90.3 273.455,83 267.754,90.05 
			273.455,79.25 		"/>
	</g>
	<g>
		<polygon style="fill-rule:evenodd;clip-rule:evenodd;fill:#918B4B;" points="320.205,90.2 316.105,84.55 311.655,90.05 
			316.105,81.6 		"/>
	</g>
	<g>
		<polygon style="fill-rule:evenodd;clip-rule:evenodd;fill:#918B4B;" points="352.755,100.65 347.655,93.5 342.105,100.4 
			347.655,89.85 		"/>
	</g>
	<g>
		<polygon style="fill-rule:evenodd;clip-rule:evenodd;fill:#918B4B;" points="382.456,104.15 379.506,100.05 376.306,104 
			379.506,97.95 		"/>
	</g>
	<g>
		<polygon style="fill-rule:evenodd;clip-rule:evenodd;fill:#918B4B;" points="404.957,91.7 402.306,88 399.406,91.55 402.306,86.1 
					"/>
	</g>
	<g>
		<polygon style="fill-rule:evenodd;clip-rule:evenodd;fill:#918B4B;" points="421.556,37.05 418.906,33.4 416.056,36.95 
			418.906,31.5 		"/>
	</g>
	<g>
		<polygon style="fill-rule:evenodd;clip-rule:evenodd;fill:#918B4B;" points="438.357,95.75 433.007,88.3 427.156,95.55 
			433.007,84.4 		"/>
	</g>
	<g>
		<polygon style="fill-rule:evenodd;clip-rule:evenodd;fill:#918B4B;" points="471.458,87.55 465.857,79.8 459.807,87.3 
			465.857,75.75 		"/>
	</g>
	<g>
		<polygon style="fill-rule:evenodd;clip-rule:evenodd;fill:#918B4B;" points="496.407,100.45 491.657,93.9 486.507,100.25 
			491.657,90.5 		"/>
	</g>
	<g>
		<polygon style="fill-rule:evenodd;clip-rule:evenodd;fill:#918B4B;" points="227.854,104.95 222.503,97.5 216.653,104.75 
			222.503,93.7 		"/>
	</g>
	<g>
		<polygon style="fill-rule:evenodd;clip-rule:evenodd;fill:#918B4B;" points="456.357,104.8 453.307,100.55 449.957,104.65 
			453.307,98.35 		"/>
	</g>
	<g>
		<polygon style="fill-rule:evenodd;clip-rule:evenodd;fill:#918B4B;" points="169.703,103.8 164.453,96.5 158.802,103.55 
			164.453,92.75 		"/>
	</g>
	<g>
		<polygon style="fill-rule:evenodd;clip-rule:evenodd;fill:#918B4B;" points="497.408,71.05 494.507,66.95 491.307,70.9 
			494.507,64.9 		"/>
	</g>
	<g>
		<polygon style="fill-rule:evenodd;clip-rule:evenodd;fill:#918B4B;" points="467.708,66.25 465.057,62.6 462.207,66.15 
			465.057,60.7 		"/>
	</g>
	<g>
		<polygon style="fill-rule:evenodd;clip-rule:evenodd;fill:#918B4B;" points="438.457,75.85 433.907,69.5 428.957,75.65 
			433.907,66.25 		"/>
	</g>
	<g>
		<polygon style="fill-rule:evenodd;clip-rule:evenodd;fill:#918B4B;" points="401.006,72.15 396.356,65.7 391.356,71.95 
			396.356,62.4 		"/>
	</g>
	<g>
		<polygon style="fill-rule:evenodd;clip-rule:evenodd;fill:#918B4B;" points="371.256,73.2 367.806,68.4 364.055,73.05 
			367.806,65.9 		"/>
	</g>
	<g>
		<polygon style="fill-rule:evenodd;clip-rule:evenodd;fill:#918B4B;" points="347.155,78.75 344.505,75.05 341.605,78.6 
			344.505,73.15 		"/>
	</g>
	<g>
		<polygon style="fill-rule:evenodd;clip-rule:evenodd;fill:#918B4B;" points="471.657,46.75 469.007,43.05 466.107,46.6 
			469.007,41.15 		"/>
	</g>
	<g>
		<polygon style="fill-rule:evenodd;clip-rule:evenodd;fill:#918B4B;" points="293.154,14.55 290.504,10.85 287.654,14.45 
			290.504,8.95 		"/>
	</g>
	<g>
		<polygon style="fill-rule:evenodd;clip-rule:evenodd;fill:#918B4B;" points="321.305,64.55 318.305,68.25 321.305,62.6 
			324.055,68.35 		"/>
	</g>
	<g>
		<polygon style="fill-rule:evenodd;clip-rule:evenodd;fill:#918B4B;" points="379.556,87.85 376.806,84.05 373.806,87.75 
			376.806,82.1 		"/>
	</g>
	<g>
		<polygon style="fill-rule:evenodd;clip-rule:evenodd;fill:#918B4B;" points="294.705,78.4 291.304,73.65 287.604,78.25 
			291.304,71.2 		"/>
	</g>
	<g>
		<polygon style="fill-rule:evenodd;clip-rule:evenodd;fill:#918B4B;" points="262.654,67.65 259.504,63.25 256.054,67.55 
			259.504,61 		"/>
	</g>
	<g>
		<polygon style="fill-rule:evenodd;clip-rule:evenodd;fill:#918B4B;" points="267.204,14.25 264.004,9.85 260.554,14.1 
			264.004,7.55 		"/>
	</g>
	<g>
		<polygon style="fill-rule:evenodd;clip-rule:evenodd;fill:#918B4B;" points="218.553,26.6 215.403,22.2 211.954,26.5 
			215.403,19.95 		"/>
	</g>
	<g>
		<polygon style="fill-rule:evenodd;clip-rule:evenodd;fill:#918B4B;" points="198.203,108.75 195.003,104.35 191.553,108.6 
			195.003,102.05 		"/>
	</g>
	<g>
		<polygon style="fill-rule:evenodd;clip-rule:evenodd;fill:#918B4B;" points="210.204,8.75 207.003,4.35 203.553,8.6 207.003,2.05 
					"/>
	</g>
	<g>
		<polygon style="fill-rule:evenodd;clip-rule:evenodd;fill:#918B4B;" points="234.104,65.3 229.104,58.35 223.704,65.1 
			229.104,54.8 		"/>
	</g>
	<g>
		<polygon style="fill-rule:evenodd;clip-rule:evenodd;fill:#918B4B;" points="199.203,68.6 193.503,75.7 199.203,64.85 
			204.453,75.95 		"/>
	</g>
	<g>
		<polygon style="fill-rule:evenodd;clip-rule:evenodd;fill:#918B4B;" points="179.353,73.7 174.802,67.35 169.853,73.5 
			174.802,64.05 		"/>
	</g>
	<g>
		<polygon style="fill-rule:evenodd;clip-rule:evenodd;fill:#918B4B;" points="145.552,71.05 142.152,66.3 138.452,70.9 
			142.152,63.85 		"/>
	</g>
	<g>
		<polygon style="fill-rule:evenodd;clip-rule:evenodd;fill:#918B4B;" points="413.457,108.1 410.006,103.3 406.306,107.95 
			410.006,100.85 		"/>
	</g>
	<g>
		<polygon style="fill-rule:evenodd;clip-rule:evenodd;fill:#918B4B;" points="113.152,64.15 108.401,57.5 103.251,63.9 
			108.401,54.1 		"/>
	</g>
	<g>
		<polygon style="fill-rule:evenodd;clip-rule:evenodd;fill:#918B4B;" points="79.301,62.1 76.001,66.15 79.301,59.95 82.301,66.3 
					"/>
	</g>
	<g>
		<polygon style="fill-rule:evenodd;clip-rule:evenodd;fill:#918B4B;" points="13.7,78.65 10.65,74.45 7.4,78.55 10.65,72.3 		"/>
	</g>
	<g>
		<polygon style="fill-rule:evenodd;clip-rule:evenodd;fill:#918B4B;" points="57.901,72.75 52.401,65.1 46.4,72.55 52.401,61.15 		
			"/>
	</g>
	<g>
		<polygon style="fill-rule:evenodd;clip-rule:evenodd;fill:#918B4B;" points="32.701,67.8 28.5,62 23.951,67.65 28.5,58.95 		"/>
	</g>
	<g>
		<polygon style="fill-rule:evenodd;clip-rule:evenodd;fill:#918B4B;" points="19.25,49 14.9,42.9 10.15,48.8 14.9,39.75 		"/>
	</g>
	<g>
		<polygon style="fill-rule:evenodd;clip-rule:evenodd;fill:#918B4B;" points="51.351,47 46.55,40.25 41.25,46.75 46.55,36.75 		"/>
	</g>
	<g>
		<polygon style="fill-rule:evenodd;clip-rule:evenodd;fill:#918B4B;" points="72.251,53.75 66.501,45.8 60.301,53.5 66.501,41.7 		
			"/>
	</g>
	<g>
		<polygon style="fill-rule:evenodd;clip-rule:evenodd;fill:#918B4B;" points="100.401,46.2 96.702,41.05 92.651,46.05 
			96.702,38.35 		"/>
	</g>
	<g>
		<polygon style="fill-rule:evenodd;clip-rule:evenodd;fill:#918B4B;" points="130.652,31.65 127.402,27.15 123.902,31.5 
			127.402,24.85 		"/>
	</g>
	<g>
		<polygon style="fill-rule:evenodd;clip-rule:evenodd;fill:#918B4B;" points="142.152,19.15 138.902,14.65 135.402,19 
			138.902,12.35 		"/>
	</g>
	<g>
		<polygon style="fill-rule:evenodd;clip-rule:evenodd;fill:#918B4B;" points="151.203,56 148.052,51.55 144.552,55.85 
			148.052,49.25 		"/>
	</g>
	<g>
		<polygon style="fill-rule:evenodd;clip-rule:evenodd;fill:#918B4B;" points="194.003,58.3 191.303,54.55 188.403,58.15 
			191.303,52.6 		"/>
	</g>
	<g>
		<polygon style="fill-rule:evenodd;clip-rule:evenodd;fill:#918B4B;" points="173.953,49.3 171.252,45.55 168.353,49.15 
			171.252,43.6 		"/>
	</g>
	<g>
		<polygon style="fill-rule:evenodd;clip-rule:evenodd;fill:#918B4B;" points="20.201,105.8 17.5,102.05 14.6,105.7 17.5,100.15 		
			"/>
	</g>
	<g>
		<polygon style="fill-rule:evenodd;clip-rule:evenodd;fill:#918B4B;" points="230.053,41.75 226.003,36.05 221.553,41.55 
			226.003,33.15 		"/>
	</g>
	<g>
		<polygon style="fill-rule:evenodd;clip-rule:evenodd;fill:#918B4B;" points="241.104,16.45 237.003,10.8 232.604,16.25 
			237.003,7.85 		"/>
	</g>
	<g>
		<polygon style="fill-rule:evenodd;clip-rule:evenodd;fill:#918B4B;" points="256.604,55.85 251.654,48.95 246.254,55.6 
			251.654,45.4 		"/>
	</g>
	<g>
		<polygon style="fill-rule:evenodd;clip-rule:evenodd;fill:#918B4B;" points="288.504,57.5 284.955,52.5 281.054,57.3 
			284.955,49.95 		"/>
	</g>
	<g>
		<polygon style="fill-rule:evenodd;clip-rule:evenodd;fill:#918B4B;" points="315.455,57.2 310.555,50.4 305.205,57 310.555,46.9 
					"/>
	</g>
	<g>
		<polygon style="fill-rule:evenodd;clip-rule:evenodd;fill:#918B4B;" points="347.206,55.1 344.206,50.95 341.005,55 
			344.206,48.85 		"/>
	</g>
	<g>
		<polygon style="fill-rule:evenodd;clip-rule:evenodd;fill:#918B4B;" points="380.106,48.95 375.406,42.45 370.256,48.75 
			375.406,39.05 		"/>
	</g>
	<g>
		<polygon style="fill-rule:evenodd;clip-rule:evenodd;fill:#918B4B;" points="403.306,48.85 397.606,55.95 403.306,45.1 
			408.556,56.15 		"/>
	</g>
	<g>
		<polygon style="fill-rule:evenodd;clip-rule:evenodd;fill:#918B4B;" points="431.156,59 427.806,54.35 424.207,58.85 
			427.806,51.95 		"/>
	</g>
	<g>
		<polygon style="fill-rule:evenodd;clip-rule:evenodd;fill:#918B4B;" points="456.157,58.25 452.807,53.55 449.107,58.1 
			452.807,51.15 		"/>
	</g>
	<g>
		<polygon style="fill-rule:evenodd;clip-rule:evenodd;fill:#918B4B;" points="490.507,57.45 486.208,51.45 481.507,57.25 
			486.208,48.35 		"/>
	</g>
	<g>
		<polygon style="fill-rule:evenodd;clip-rule:evenodd;fill:#918B4B;" points="31.8,91.7 26.05,83.7 19.8,91.45 26.05,79.55 		"/>
	</g>
	<g>
		<polygon style="fill-rule:evenodd;clip-rule:evenodd;fill:#918B4B;" points="67.801,109.2 62.051,101.2 55.801,108.95 
			62.051,97.05 		"/>
	</g>
	<g>
		<polygon style="fill-rule:evenodd;clip-rule:evenodd;fill:#918B4B;" points="272.104,108.8 268.504,103.8 264.654,108.65 
			268.504,101.25 		"/>
	</g>
	<g>
		<polygon style="fill-rule:evenodd;clip-rule:evenodd;fill:#918B4B;" points="302.404,106.4 297.455,99.5 292.104,106.15 
			297.455,96 		"/>
	</g>
	<g>
		<polygon style="fill-rule:evenodd;clip-rule:evenodd;fill:#918B4B;" points="89.352,102.8 86.301,98.55 82.952,102.65 
			86.301,96.35 		"/>
	</g>
	<g>
		<polygon style="fill-rule:evenodd;clip-rule:evenodd;fill:#918B4B;" points="478.757,107.85 474.057,101.25 468.907,107.6 
			474.057,97.85 		"/>
	</g>
	<g>
		<polygon style="fill-rule:evenodd;clip-rule:evenodd;fill:#918B4B;" points="449.357,41.35 446.257,37 442.857,41.2 446.257,34.8 
					"/>
	</g>
	<g>
		<polygon style="fill-rule:evenodd;clip-rule:evenodd;fill:#918B4B;" points="328.855,107.95 325.505,103.35 321.905,107.85 
			325.505,100.95 		"/>
	</g>
	<g>
		<polygon style="fill-rule:evenodd;clip-rule:evenodd;fill:#918B4B;" points="398.856,36.25 396.006,32.35 392.956,36.15 
			396.006,30.35 		"/>
	</g>
	<g>
		<polygon style="fill-rule:evenodd;clip-rule:evenodd;fill:#918B4B;" points="364.055,25.9 358.155,33.2 364.055,22.05 
			369.406,33.4 		"/>
	</g>
	<g>
		<polygon style="fill-rule:evenodd;clip-rule:evenodd;fill:#918B4B;" points="338.956,32.45 333.555,24.9 327.655,32.2 333.555,21 
					"/>
	</g>
	<g>
		<polygon style="fill-rule:evenodd;clip-rule:evenodd;fill:#918B4B;" points="303.654,30.05 298.554,22.95 292.955,29.85 
			298.554,19.25 		"/>
	</g>
	<g>
		<polygon style="fill-rule:evenodd;clip-rule:evenodd;fill:#918B4B;" points="277.504,37.85 272.554,30.95 267.154,37.6 
			272.554,27.4 		"/>
	</g>
	<g>
		<polygon style="fill-rule:evenodd;clip-rule:evenodd;fill:#918B4B;" points="253.404,36.4 247.704,28.4 241.454,36.15 
			247.704,24.3 		"/>
	</g>
	<g>
		<polygon style="fill-rule:evenodd;clip-rule:evenodd;fill:#918B4B;" points="213.854,50.6 209.954,45.15 205.703,50.4 
			209.954,42.35 		"/>
	</g>
	<g>
		<polygon style="fill-rule:evenodd;clip-rule:evenodd;fill:#918B4B;" points="195.053,34.3 189.703,26.85 183.853,34.1 
			189.703,22.95 		"/>
	</g>
	<g>
		<polygon style="fill-rule:evenodd;clip-rule:evenodd;fill:#918B4B;" points="160.203,30.85 157.103,26.5 153.703,30.75 
			157.103,24.25 		"/>
	</g>
	<g>
		<polygon style="fill-rule:evenodd;clip-rule:evenodd;fill:#918B4B;" points="181.653,15.7 178.503,11.35 175.103,15.55 
			178.503,9.1 		"/>
	</g>
	<g>
		<polygon style="fill-rule:evenodd;clip-rule:evenodd;fill:#918B4B;" points="140.302,46.05 136.102,40.25 131.602,45.9 
			136.102,37.3 		"/>
	</g>
	<g>
		<polygon style="fill-rule:evenodd;clip-rule:evenodd;fill:#918B4B;" points="106.551,29.65 103.301,25.1 99.801,29.5 
			103.301,22.8 		"/>
	</g>
	<g>
		<polygon style="fill-rule:evenodd;clip-rule:evenodd;fill:#918B4B;" points="130.152,109 124.552,101.2 118.402,108.8 
			124.552,97.15 		"/>
	</g>
	<g>
		<polygon style="fill-rule:evenodd;clip-rule:evenodd;fill:#918B4B;" points="85.501,33.65 82.001,28.8 78.251,33.5 82.001,26.35 
					"/>
	</g>
	<g>
		<polygon style="fill-rule:evenodd;clip-rule:evenodd;fill:#918B4B;" points="14.1,62.25 10.5,57.3 6.65,62.1 10.5,54.75 		"/>
	</g>
</g>
<g>
	<g>
		<path style="fill-rule:evenodd;clip-rule:evenodd;fill:#ABA254;" d="M1000.015,70.5v40.05H500.008V40.5
			c14.7,0,44.4,1.267,89.101,3.8c44.667,2.5,79.368,3.75,104.102,3.75c34.867-0.033,91.501,3.7,169.902,11.2
			c51.201,4.9,78.284,7.483,81.251,7.75C970.765,69.333,989.315,70.5,1000.015,70.5z"/>
	</g>
	<g>
		<polygon style="fill-rule:evenodd;clip-rule:evenodd;fill:#918B4B;" points="546.208,101.25 541.958,95.3 537.308,101.05 
			541.958,92.25 		"/>
	</g>
	<g>
		<polygon style="fill-rule:evenodd;clip-rule:evenodd;fill:#918B4B;" points="576.259,89.2 571.159,82.1 565.559,89 571.159,78.4 
					"/>
	</g>
	<g>
		<polygon style="fill-rule:evenodd;clip-rule:evenodd;fill:#918B4B;" points="606.909,92.45 602.859,86.8 598.459,92.25 
			602.859,83.9 		"/>
	</g>
	<g>
		<polygon style="fill-rule:evenodd;clip-rule:evenodd;fill:#918B4B;" points="639.41,94.35 634.96,88.15 630.11,94.15 
			634.96,84.95 		"/>
	</g>
	<g>
		<polygon style="fill-rule:evenodd;clip-rule:evenodd;fill:#918B4B;" points="663.61,85 658.81,78.3 653.56,84.8 658.81,74.85 		
			"/>
	</g>
	<g>
		<polygon style="fill-rule:evenodd;clip-rule:evenodd;fill:#918B4B;" points="697.211,93 694.411,89.05 691.311,92.85 694.411,87 
					"/>
	</g>
	<g>
		<polygon style="fill-rule:evenodd;clip-rule:evenodd;fill:#918B4B;" points="725.511,78.35 720.411,84.75 725.511,74.95 
			730.261,84.95 		"/>
	</g>
	<g>
		<polygon style="fill-rule:evenodd;clip-rule:evenodd;fill:#918B4B;" points="756.862,97.65 752.262,91.3 747.311,97.45 
			752.262,88 		"/>
	</g>
	<g>
		<polygon style="fill-rule:evenodd;clip-rule:evenodd;fill:#918B4B;" points="778.712,90.3 773.462,83 767.762,90.05 
			773.462,79.25 		"/>
	</g>
	<g>
		<polygon style="fill-rule:evenodd;clip-rule:evenodd;fill:#918B4B;" points="820.213,90.2 816.112,84.55 811.662,90.05 
			816.112,81.6 		"/>
	</g>
	<g>
		<polygon style="fill-rule:evenodd;clip-rule:evenodd;fill:#918B4B;" points="852.763,100.65 847.663,93.5 842.113,100.4 
			847.663,89.85 		"/>
	</g>
	<g>
		<polygon style="fill-rule:evenodd;clip-rule:evenodd;fill:#918B4B;" points="882.464,104.15 879.514,100.05 876.313,104 
			879.514,97.95 		"/>
	</g>
	<g>
		<polygon style="fill-rule:evenodd;clip-rule:evenodd;fill:#918B4B;" points="904.964,91.7 902.313,88 899.414,91.55 902.313,86.1 
					"/>
	</g>
	<g>
		<polygon style="fill-rule:evenodd;clip-rule:evenodd;fill:#918B4B;" points="938.364,95.75 933.014,88.3 927.164,95.55 
			933.014,84.4 		"/>
	</g>
	<g>
		<polygon style="fill-rule:evenodd;clip-rule:evenodd;fill:#918B4B;" points="971.465,87.55 965.865,79.8 959.814,87.3 
			965.865,75.75 		"/>
	</g>
	<g>
		<polygon style="fill-rule:evenodd;clip-rule:evenodd;fill:#918B4B;" points="996.415,100.45 991.665,93.9 986.515,100.25 
			991.665,90.5 		"/>
	</g>
	<g>
		<polygon style="fill-rule:evenodd;clip-rule:evenodd;fill:#918B4B;" points="727.861,104.95 722.511,97.5 716.661,104.75 
			722.511,93.7 		"/>
	</g>
	<g>
		<polygon style="fill-rule:evenodd;clip-rule:evenodd;fill:#918B4B;" points="956.365,104.8 953.314,100.55 949.965,104.65 
			953.314,98.35 		"/>
	</g>
	<g>
		<polygon style="fill-rule:evenodd;clip-rule:evenodd;fill:#918B4B;" points="669.71,103.8 664.46,96.5 658.81,103.55 
			664.46,92.75 		"/>
	</g>
	<g>
		<polygon style="fill-rule:evenodd;clip-rule:evenodd;fill:#918B4B;" points="993.965,79.4 991.015,75.35 987.865,79.3 
			991.015,73.25 		"/>
	</g>
	<g>
		<polygon style="fill-rule:evenodd;clip-rule:evenodd;fill:#918B4B;" points="928.164,109 925.514,105.35 922.664,108.9 
			925.514,103.5 		"/>
	</g>
	<g>
		<polygon style="fill-rule:evenodd;clip-rule:evenodd;fill:#918B4B;" points="938.464,75.85 933.914,69.5 928.964,75.65 
			933.914,66.25 		"/>
	</g>
	<g>
		<polygon style="fill-rule:evenodd;clip-rule:evenodd;fill:#918B4B;" points="901.014,72.15 896.364,65.7 891.364,71.95 
			896.364,62.4 		"/>
	</g>
	<g>
		<polygon style="fill-rule:evenodd;clip-rule:evenodd;fill:#918B4B;" points="871.263,73.2 867.813,68.4 864.063,73.05 
			867.813,65.9 		"/>
	</g>
	<g>
		<polygon style="fill-rule:evenodd;clip-rule:evenodd;fill:#918B4B;" points="847.163,78.75 844.513,75.05 841.613,78.6 
			844.513,73.15 		"/>
	</g>
	<g>
		<polygon style="fill-rule:evenodd;clip-rule:evenodd;fill:#918B4B;" points="824.063,68.35 821.313,64.55 818.313,68.25 
			821.313,62.6 		"/>
	</g>
	<g>
		<polygon style="fill-rule:evenodd;clip-rule:evenodd;fill:#918B4B;" points="794.712,78.4 791.312,73.65 787.612,78.25 
			791.312,71.2 		"/>
	</g>
	<g>
		<polygon style="fill-rule:evenodd;clip-rule:evenodd;fill:#918B4B;" points="762.662,67.65 759.512,63.25 756.062,67.55 
			759.512,61 		"/>
	</g>
	<g>
		<polygon style="fill-rule:evenodd;clip-rule:evenodd;fill:#918B4B;" points="734.111,65.3 729.111,58.35 723.711,65.1 
			729.111,54.8 		"/>
	</g>
	<g>
		<polygon style="fill-rule:evenodd;clip-rule:evenodd;fill:#918B4B;" points="704.461,75.95 699.211,68.6 693.511,75.7 
			699.211,64.85 		"/>
	</g>
	<g>
		<polygon style="fill-rule:evenodd;clip-rule:evenodd;fill:#918B4B;" points="679.36,73.7 674.81,67.35 669.86,73.5 674.81,64.05 
					"/>
	</g>
	<g>
		<polygon style="fill-rule:evenodd;clip-rule:evenodd;fill:#918B4B;" points="645.56,71.05 642.16,66.3 638.46,70.9 642.16,63.85 
					"/>
	</g>
	<g>
		<polygon style="fill-rule:evenodd;clip-rule:evenodd;fill:#918B4B;" points="613.159,64.15 608.409,57.5 603.259,63.9 
			608.409,54.1 		"/>
	</g>
	<g>
		<polygon style="fill-rule:evenodd;clip-rule:evenodd;fill:#918B4B;" points="582.309,66.3 579.309,62.1 576.009,66.15 
			579.309,59.95 		"/>
	</g>
	<g>
		<polygon style="fill-rule:evenodd;clip-rule:evenodd;fill:#918B4B;" points="513.708,78.65 510.658,74.45 507.408,78.55 
			510.658,72.3 		"/>
	</g>
	<g>
		<polygon style="fill-rule:evenodd;clip-rule:evenodd;fill:#918B4B;" points="557.908,72.75 552.408,65.1 546.408,72.55 
			552.408,61.15 		"/>
	</g>
	<g>
		<polygon style="fill-rule:evenodd;clip-rule:evenodd;fill:#918B4B;" points="532.708,67.8 528.508,62 523.958,67.65 
			528.508,58.95 		"/>
	</g>
	<g>
		<polygon style="fill-rule:evenodd;clip-rule:evenodd;fill:#918B4B;" points="519.258,49 514.908,42.9 510.158,48.8 514.908,39.75 
					"/>
	</g>
	<g>
		<polygon style="fill-rule:evenodd;clip-rule:evenodd;fill:#918B4B;" points="566.509,45.8 560.309,53.5 566.509,41.7 
			572.259,53.75 		"/>
	</g>
	<g>
		<polygon style="fill-rule:evenodd;clip-rule:evenodd;fill:#918B4B;" points="651.21,56 648.06,51.55 644.56,55.85 648.06,49.25 		
			"/>
	</g>
	<g>
		<polygon style="fill-rule:evenodd;clip-rule:evenodd;fill:#918B4B;" points="694.011,58.3 691.311,54.55 688.41,58.15 
			691.311,52.6 		"/>
	</g>
	<g>
		<polygon style="fill-rule:evenodd;clip-rule:evenodd;fill:#918B4B;" points="693.711,107.2 691.011,103.45 688.11,107.1 
			691.011,101.55 		"/>
	</g>
	<g>
		<polygon style="fill-rule:evenodd;clip-rule:evenodd;fill:#918B4B;" points="520.208,105.8 517.508,102.05 514.608,105.7 
			517.508,100.15 		"/>
	</g>
	<g>
		<polygon style="fill-rule:evenodd;clip-rule:evenodd;fill:#918B4B;" points="751.962,63.6 747.061,56.75 741.661,63.4 
			747.061,53.2 		"/>
	</g>
	<g>
		<polygon style="fill-rule:evenodd;clip-rule:evenodd;fill:#918B4B;" points="788.612,61.8 785.012,56.8 781.162,61.6 
			785.012,54.25 		"/>
	</g>
	<g>
		<polygon style="fill-rule:evenodd;clip-rule:evenodd;fill:#918B4B;" points="807.562,60.25 802.212,66.85 807.562,56.7 
			812.462,67.05 		"/>
	</g>
	<g>
		<polygon style="fill-rule:evenodd;clip-rule:evenodd;fill:#918B4B;" points="849.513,68 846.513,63.85 843.313,67.85 
			846.513,61.7 		"/>
	</g>
	<g>
		<polygon style="fill-rule:evenodd;clip-rule:evenodd;fill:#918B4B;" points="826.113,109.45 821.413,102.95 816.263,109.25 
			821.413,99.55 		"/>
	</g>
	<g>
		<polygon style="fill-rule:evenodd;clip-rule:evenodd;fill:#918B4B;" points="888.764,89.5 883.563,82.2 877.863,89.3 
			883.563,78.45 		"/>
	</g>
	<g>
		<polygon style="fill-rule:evenodd;clip-rule:evenodd;fill:#918B4B;" points="899.164,108.5 895.813,103.85 892.214,108.35 
			895.813,101.45 		"/>
	</g>
	<g>
		<polygon style="fill-rule:evenodd;clip-rule:evenodd;fill:#918B4B;" points="980.865,108.25 976.515,102.25 971.865,108.1 
			976.515,99.2 		"/>
	</g>
	<g>
		<polygon style="fill-rule:evenodd;clip-rule:evenodd;fill:#918B4B;" points="802.412,106.4 797.462,99.5 792.112,106.15 
			797.462,96 		"/>
	</g>
	<g>
		<polygon style="fill-rule:evenodd;clip-rule:evenodd;fill:#918B4B;" points="589.359,102.8 586.309,98.55 582.959,102.65 
			586.309,96.35 		"/>
	</g>
	<g>
		<polygon style="fill-rule:evenodd;clip-rule:evenodd;fill:#918B4B;" points="670.66,59.7 667.51,55.35 664.11,59.55 667.51,53.1 
					"/>
	</g>
	<g>
		<polygon style="fill-rule:evenodd;clip-rule:evenodd;fill:#918B4B;" points="627.16,108.55 621.559,100.7 615.409,108.3 
			621.559,96.65 		"/>
	</g>
	<g>
		<polygon style="fill-rule:evenodd;clip-rule:evenodd;fill:#918B4B;" points="566.509,104.8 562.659,109.6 566.509,102.25 
			570.109,109.75 		"/>
	</g>
</g>
<g>
	<g>
		<path style="fill-rule:evenodd;clip-rule:evenodd;fill:#ABA254;" d="M1500.023,70.5v40.05h-500.008V70.5
			c10.967,0,24.201-2.55,39.701-7.65c8.867-2.933,23.267-8.55,43.201-16.85c19.367-8.1,34.134-13.767,44.301-17
			c16.333-5.167,30.65-7.817,42.951-7.95c33.634-0.333,68.618,2.034,104.951,7.1c26.667,3.733,56.968,9.417,90.901,17.05
			c18.534,4.2,43.685,9.983,75.452,17.35C1466.439,67.85,1485.956,70.5,1500.023,70.5z"/>
	</g>
	<g>
		<polygon style="fill-rule:evenodd;clip-rule:evenodd;fill:#918B4B;" points="1046.216,101.25 1041.966,95.3 1037.315,101.05 
			1041.966,92.25 		"/>
	</g>
	<g>
		<polygon style="fill-rule:evenodd;clip-rule:evenodd;fill:#918B4B;" points="1076.267,89.2 1071.166,82.1 1065.566,89 
			1071.166,78.4 		"/>
	</g>
	<g>
		<polygon style="fill-rule:evenodd;clip-rule:evenodd;fill:#918B4B;" points="1106.917,92.45 1102.867,86.8 1098.467,92.25 
			1102.867,83.9 		"/>
	</g>
	<g>
		<polygon style="fill-rule:evenodd;clip-rule:evenodd;fill:#918B4B;" points="1139.417,94.35 1134.968,88.15 1130.117,94.15 
			1134.968,84.95 		"/>
	</g>
	<g>
		<polygon style="fill-rule:evenodd;clip-rule:evenodd;fill:#918B4B;" points="1163.618,85 1158.817,78.3 1153.567,84.8 
			1158.817,74.85 		"/>
	</g>
	<g>
		<polygon style="fill-rule:evenodd;clip-rule:evenodd;fill:#918B4B;" points="1197.219,93 1194.418,89.05 1191.318,92.85 
			1194.418,87 		"/>
	</g>
	<g>
		<polygon style="fill-rule:evenodd;clip-rule:evenodd;fill:#918B4B;" points="1230.269,84.95 1225.519,78.35 1220.418,84.75 
			1225.519,74.95 		"/>
	</g>
	<g>
		<polygon style="fill-rule:evenodd;clip-rule:evenodd;fill:#918B4B;" points="1252.27,91.3 1247.319,97.45 1252.27,88 
			1256.869,97.65 		"/>
	</g>
	<g>
		<polygon style="fill-rule:evenodd;clip-rule:evenodd;fill:#918B4B;" points="1278.72,90.3 1273.47,83 1267.77,90.05 
			1273.47,79.25 		"/>
	</g>
	<g>
		<polygon style="fill-rule:evenodd;clip-rule:evenodd;fill:#918B4B;" points="1320.221,90.2 1316.12,84.55 1311.67,90.05 
			1316.12,81.6 		"/>
	</g>
	<g>
		<polygon style="fill-rule:evenodd;clip-rule:evenodd;fill:#918B4B;" points="1352.771,100.65 1347.671,93.5 1342.12,100.4 
			1347.671,89.85 		"/>
	</g>
	<g>
		<polygon style="fill-rule:evenodd;clip-rule:evenodd;fill:#918B4B;" points="1382.472,104.15 1379.521,100.05 1376.32,104 
			1379.521,97.95 		"/>
	</g>
	<g>
		<polygon style="fill-rule:evenodd;clip-rule:evenodd;fill:#918B4B;" points="1404.972,91.7 1402.321,88 1399.422,91.55 
			1402.321,86.1 		"/>
	</g>
	<g>
		<polygon style="fill-rule:evenodd;clip-rule:evenodd;fill:#918B4B;" points="1438.371,95.75 1433.021,88.3 1427.172,95.55 
			1433.021,84.4 		"/>
	</g>
	<g>
		<polygon style="fill-rule:evenodd;clip-rule:evenodd;fill:#918B4B;" points="1471.473,87.55 1465.872,79.8 1459.822,87.3 
			1465.872,75.75 		"/>
	</g>
	<g>
		<polygon style="fill-rule:evenodd;clip-rule:evenodd;fill:#918B4B;" points="1496.423,100.45 1491.673,93.9 1486.522,100.25 
			1491.673,90.5 		"/>
	</g>
	<g>
		<polygon style="fill-rule:evenodd;clip-rule:evenodd;fill:#918B4B;" points="1227.869,104.95 1222.519,97.5 1216.668,104.75 
			1222.519,93.7 		"/>
	</g>
	<g>
		<polygon style="fill-rule:evenodd;clip-rule:evenodd;fill:#918B4B;" points="1456.372,104.8 1453.322,100.55 1449.973,104.65 
			1453.322,98.35 		"/>
	</g>
	<g>
		<polygon style="fill-rule:evenodd;clip-rule:evenodd;fill:#918B4B;" points="1169.718,103.8 1164.468,96.5 1158.817,103.55 
			1164.468,92.75 		"/>
	</g>
	<g>
		<polygon style="fill-rule:evenodd;clip-rule:evenodd;fill:#918B4B;" points="1478.973,108.65 1476.022,104.6 1472.872,108.55 
			1476.022,102.5 		"/>
	</g>
	<g>
		<polygon style="fill-rule:evenodd;clip-rule:evenodd;fill:#918B4B;" points="1486.173,79 1483.522,75.35 1480.673,78.9 
			1483.522,73.5 		"/>
	</g>
	<g>
		<polygon style="fill-rule:evenodd;clip-rule:evenodd;fill:#918B4B;" points="1438.473,75.85 1433.922,69.5 1428.972,75.65 
			1433.922,66.25 		"/>
	</g>
	<g>
		<polygon style="fill-rule:evenodd;clip-rule:evenodd;fill:#918B4B;" points="1401.021,72.15 1396.371,65.7 1391.371,71.95 
			1396.371,62.4 		"/>
	</g>
	<g>
		<polygon style="fill-rule:evenodd;clip-rule:evenodd;fill:#918B4B;" points="1371.271,73.2 1367.82,68.4 1364.07,73.05 
			1367.82,65.9 		"/>
	</g>
	<g>
		<polygon style="fill-rule:evenodd;clip-rule:evenodd;fill:#918B4B;" points="1347.171,78.75 1344.521,75.05 1341.62,78.6 
			1344.521,73.15 		"/>
	</g>
	<g>
		<polygon style="fill-rule:evenodd;clip-rule:evenodd;fill:#918B4B;" points="1324.07,68.35 1321.32,64.55 1318.32,68.25 
			1321.32,62.6 		"/>
	</g>
	<g>
		<polygon style="fill-rule:evenodd;clip-rule:evenodd;fill:#918B4B;" points="1294.72,78.4 1291.319,73.65 1287.619,78.25 
			1291.319,71.2 		"/>
	</g>
	<g>
		<polygon style="fill-rule:evenodd;clip-rule:evenodd;fill:#918B4B;" points="1262.67,67.65 1259.52,63.25 1256.069,67.55 
			1259.52,61 		"/>
	</g>
	<g>
		<polygon style="fill-rule:evenodd;clip-rule:evenodd;fill:#918B4B;" points="1214.519,26.35 1211.068,30.6 1214.519,24.05 
			1217.719,30.75 		"/>
	</g>
	<g>
		<polygon style="fill-rule:evenodd;clip-rule:evenodd;fill:#918B4B;" points="1234.119,65.3 1229.119,58.35 1223.719,65.1 
			1229.119,54.8 		"/>
	</g>
	<g>
		<polygon style="fill-rule:evenodd;clip-rule:evenodd;fill:#918B4B;" points="1204.469,75.95 1199.219,68.6 1193.518,75.7 
			1199.219,64.85 		"/>
	</g>
	<g>
		<polygon style="fill-rule:evenodd;clip-rule:evenodd;fill:#918B4B;" points="1179.368,73.7 1174.818,67.35 1169.868,73.5 
			1174.818,64.05 		"/>
	</g>
	<g>
		<polygon style="fill-rule:evenodd;clip-rule:evenodd;fill:#918B4B;" points="1145.567,71.05 1142.167,66.3 1138.468,70.9 
			1142.167,63.85 		"/>
	</g>
	<g>
		<polygon style="fill-rule:evenodd;clip-rule:evenodd;fill:#918B4B;" points="1113.167,64.15 1108.417,57.5 1103.267,63.9 
			1108.417,54.1 		"/>
	</g>
	<g>
		<polygon style="fill-rule:evenodd;clip-rule:evenodd;fill:#918B4B;" points="1082.316,66.3 1079.316,62.1 1076.017,66.15 
			1079.316,59.95 		"/>
	</g>
	<g>
		<polygon style="fill-rule:evenodd;clip-rule:evenodd;fill:#918B4B;" points="1010.666,74.45 1007.415,78.55 1010.666,72.3 
			1013.716,78.65 		"/>
	</g>
	<g>
		<polygon style="fill-rule:evenodd;clip-rule:evenodd;fill:#918B4B;" points="1052.416,65.1 1046.416,72.55 1052.416,61.15 
			1057.916,72.75 		"/>
	</g>
	<g>
		<polygon style="fill-rule:evenodd;clip-rule:evenodd;fill:#918B4B;" points="1033.216,85.1 1029.016,79.3 1024.466,84.95 
			1029.016,76.25 		"/>
	</g>
	<g>
		<polygon style="fill-rule:evenodd;clip-rule:evenodd;fill:#918B4B;" points="1069.767,109.15 1064.066,101.2 1057.816,108.9 
			1064.066,97.1 		"/>
	</g>
	<g>
		<polygon style="fill-rule:evenodd;clip-rule:evenodd;fill:#918B4B;" points="1101.267,52 1097.517,46.8 1093.517,51.8 
			1097.517,44.15 		"/>
	</g>
	<g>
		<polygon style="fill-rule:evenodd;clip-rule:evenodd;fill:#918B4B;" points="1194.268,109.35 1191.018,104.85 1187.518,109.2 
			1191.018,102.5 		"/>
	</g>
	<g>
		<polygon style="fill-rule:evenodd;clip-rule:evenodd;fill:#918B4B;" points="1151.218,56 1148.067,51.55 1144.567,55.85 
			1148.067,49.25 		"/>
	</g>
	<g>
		<polygon style="fill-rule:evenodd;clip-rule:evenodd;fill:#918B4B;" points="1194.018,58.3 1191.318,54.55 1188.418,58.15 
			1191.318,52.6 		"/>
	</g>
	<g>
		<polygon style="fill-rule:evenodd;clip-rule:evenodd;fill:#918B4B;" points="1173.968,49.3 1171.268,45.55 1168.368,49.15 
			1171.268,43.6 		"/>
	</g>
	<g>
		<polygon style="fill-rule:evenodd;clip-rule:evenodd;fill:#918B4B;" points="1020.216,105.8 1017.516,102.05 1014.616,105.7 
			1017.516,100.15 		"/>
	</g>
	<g>
		<polygon style="fill-rule:evenodd;clip-rule:evenodd;fill:#918B4B;" points="1230.068,41.75 1226.019,36.05 1221.568,41.55 
			1226.019,33.15 		"/>
	</g>
	<g>
		<polygon style="fill-rule:evenodd;clip-rule:evenodd;fill:#918B4B;" points="1256.619,55.85 1251.67,48.95 1246.269,55.6 
			1251.67,45.4 		"/>
	</g>
	<g>
		<polygon style="fill-rule:evenodd;clip-rule:evenodd;fill:#918B4B;" points="1288.52,57.5 1284.97,52.5 1281.069,57.3 
			1284.97,49.95 		"/>
	</g>
	<g>
		<polygon style="fill-rule:evenodd;clip-rule:evenodd;fill:#918B4B;" points="1315.471,57.2 1310.57,50.4 1305.22,57 1310.57,46.9 
					"/>
	</g>
	<g>
		<polygon style="fill-rule:evenodd;clip-rule:evenodd;fill:#918B4B;" points="1347.221,55.1 1344.221,50.95 1341.021,55 
			1344.221,48.85 		"/>
	</g>
	<g>
		<polygon style="fill-rule:evenodd;clip-rule:evenodd;fill:#918B4B;" points="1372.57,51.75 1367.421,58.1 1372.57,48.4 
			1377.271,58.3 		"/>
	</g>
	<g>
		<polygon style="fill-rule:evenodd;clip-rule:evenodd;fill:#918B4B;" points="1324.671,108.5 1321.32,103.85 1317.721,108.35 
			1321.32,101.45 		"/>
	</g>
	<g>
		<polygon style="fill-rule:evenodd;clip-rule:evenodd;fill:#918B4B;" points="1425.021,108.95 1420.722,102.95 1416.021,108.75 
			1420.722,99.85 		"/>
	</g>
	<g>
		<polygon style="fill-rule:evenodd;clip-rule:evenodd;fill:#918B4B;" points="1302.42,106.4 1297.47,99.5 1292.119,106.15 
			1297.47,96 		"/>
	</g>
	<g>
		<polygon style="fill-rule:evenodd;clip-rule:evenodd;fill:#918B4B;" points="1089.367,102.8 1086.316,98.55 1082.967,102.65 
			1086.316,96.35 		"/>
	</g>
	<g>
		<polygon style="fill-rule:evenodd;clip-rule:evenodd;fill:#918B4B;" points="1270.869,108.95 1268.02,105.05 1264.97,108.85 
			1268.02,103 		"/>
	</g>
	<g>
		<polygon style="fill-rule:evenodd;clip-rule:evenodd;fill:#918B4B;" points="1277.52,37.85 1272.569,30.95 1267.17,37.6 
			1272.569,27.4 		"/>
	</g>
	<g>
		<polygon style="fill-rule:evenodd;clip-rule:evenodd;fill:#918B4B;" points="1253.42,36.4 1247.719,28.4 1241.469,36.15 
			1247.719,24.3 		"/>
	</g>
	<g>
		<polygon style="fill-rule:evenodd;clip-rule:evenodd;fill:#918B4B;" points="1213.869,50.6 1209.969,45.15 1205.719,50.4 
			1209.969,42.35 		"/>
	</g>
	<g>
		<polygon style="fill-rule:evenodd;clip-rule:evenodd;fill:#918B4B;" points="1195.068,34.3 1189.718,26.85 1183.868,34.1 
			1189.718,22.95 		"/>
	</g>
	<g>
		<polygon style="fill-rule:evenodd;clip-rule:evenodd;fill:#918B4B;" points="1160.218,30.85 1157.118,26.5 1153.718,30.75 
			1157.118,24.25 		"/>
	</g>
	<g>
		<polygon style="fill-rule:evenodd;clip-rule:evenodd;fill:#918B4B;" points="1140.317,46.05 1136.117,40.25 1131.617,45.9 
			1136.117,37.3 		"/>
	</g>
	<g>
		<polygon style="fill-rule:evenodd;clip-rule:evenodd;fill:#918B4B;" points="1124.567,107.15 1121.317,102.6 1117.817,107 
			1121.317,100.3 		"/>
	</g>
</g>
<g>
	<g>
		<path style="fill-rule:evenodd;clip-rule:evenodd;fill:#ABA254;" d="M1946.279,34.25c25.334,4.167,43.251,6.25,53.751,6.25v70.05
			h-500.007V70.5c14.434,0,38.15-2.066,71.15-6.2c10.768-1.366,44.617-5.983,101.552-13.85c46.234-6.4,83.802-11.167,112.702-14.3
			c41.533-4.5,76.434-7.033,104.701-7.6C1902.862,28.317,1921.579,30.217,1946.279,34.25z"/>
	</g>
	<g>
		<polygon style="fill-rule:evenodd;clip-rule:evenodd;fill:#918B4B;" points="1546.224,101.25 1541.974,95.3 1537.323,101.05 
			1541.974,92.25 		"/>
	</g>
	<g>
		<polygon style="fill-rule:evenodd;clip-rule:evenodd;fill:#918B4B;" points="1576.274,89.2 1571.174,82.1 1565.574,89 
			1571.174,78.4 		"/>
	</g>
	<g>
		<polygon style="fill-rule:evenodd;clip-rule:evenodd;fill:#918B4B;" points="1606.925,92.45 1602.874,86.8 1598.475,92.25 
			1602.874,83.9 		"/>
	</g>
	<g>
		<polygon style="fill-rule:evenodd;clip-rule:evenodd;fill:#918B4B;" points="1639.426,94.35 1634.975,88.15 1630.125,94.15 
			1634.975,84.95 		"/>
	</g>
	<g>
		<polygon style="fill-rule:evenodd;clip-rule:evenodd;fill:#918B4B;" points="1658.825,78.3 1653.575,84.8 1658.825,74.85 
			1663.625,85 		"/>
	</g>
	<g>
		<polygon style="fill-rule:evenodd;clip-rule:evenodd;fill:#918B4B;" points="1697.227,93 1694.426,89.05 1691.325,92.85 
			1694.426,87 		"/>
	</g>
	<g>
		<polygon style="fill-rule:evenodd;clip-rule:evenodd;fill:#918B4B;" points="1730.276,84.95 1725.526,78.35 1720.427,84.75 
			1725.526,74.95 		"/>
	</g>
	<g>
		<polygon style="fill-rule:evenodd;clip-rule:evenodd;fill:#918B4B;" points="1756.877,97.65 1752.276,91.3 1747.326,97.45 
			1752.276,88 		"/>
	</g>
	<g>
		<polygon style="fill-rule:evenodd;clip-rule:evenodd;fill:#918B4B;" points="1778.728,90.3 1773.478,83 1767.777,90.05 
			1773.478,79.25 		"/>
	</g>
	<g>
		<polygon style="fill-rule:evenodd;clip-rule:evenodd;fill:#918B4B;" points="1820.229,90.2 1816.127,84.55 1811.678,90.05 
			1816.127,81.6 		"/>
	</g>
	<g>
		<polygon style="fill-rule:evenodd;clip-rule:evenodd;fill:#918B4B;" points="1852.778,100.65 1847.679,93.5 1842.128,100.4 
			1847.679,89.85 		"/>
	</g>
	<g>
		<polygon style="fill-rule:evenodd;clip-rule:evenodd;fill:#918B4B;" points="1882.479,104.15 1879.528,100.05 1876.328,104 
			1879.528,97.95 		"/>
	</g>
	<g>
		<polygon style="fill-rule:evenodd;clip-rule:evenodd;fill:#918B4B;" points="1902.329,88 1899.43,91.55 1902.329,86.1 
			1904.979,91.7 		"/>
	</g>
	<g>
		<polygon style="fill-rule:evenodd;clip-rule:evenodd;fill:#918B4B;" points="1938.379,95.75 1933.029,88.3 1927.18,95.55 
			1933.029,84.4 		"/>
	</g>
	<g>
		<polygon style="fill-rule:evenodd;clip-rule:evenodd;fill:#918B4B;" points="1971.48,87.55 1965.88,79.8 1959.83,87.3 
			1965.88,75.75 		"/>
	</g>
	<g>
		<polygon style="fill-rule:evenodd;clip-rule:evenodd;fill:#918B4B;" points="1996.431,100.45 1991.681,93.9 1986.53,100.25 
			1991.681,90.5 		"/>
	</g>
	<g>
		<polygon style="fill-rule:evenodd;clip-rule:evenodd;fill:#918B4B;" points="1727.876,104.95 1722.526,97.5 1716.677,104.75 
			1722.526,93.7 		"/>
	</g>
	<g>
		<polygon style="fill-rule:evenodd;clip-rule:evenodd;fill:#918B4B;" points="1956.38,104.8 1953.33,100.55 1949.98,104.65 
			1953.33,98.35 		"/>
	</g>
	<g>
		<polygon style="fill-rule:evenodd;clip-rule:evenodd;fill:#918B4B;" points="1669.726,103.8 1664.476,96.5 1658.825,103.55 
			1664.476,92.75 		"/>
	</g>
	<g>
		<polygon style="fill-rule:evenodd;clip-rule:evenodd;fill:#918B4B;" points="1997.431,71.05 1994.53,66.95 1991.33,70.9 
			1994.53,64.9 		"/>
	</g>
	<g>
		<polygon style="fill-rule:evenodd;clip-rule:evenodd;fill:#918B4B;" points="1967.73,66.25 1965.08,62.6 1962.23,66.15 
			1965.08,60.7 		"/>
	</g>
	<g>
		<polygon style="fill-rule:evenodd;clip-rule:evenodd;fill:#918B4B;" points="1938.479,75.85 1933.93,69.5 1928.979,75.65 
			1933.93,66.25 		"/>
	</g>
	<g>
		<polygon style="fill-rule:evenodd;clip-rule:evenodd;fill:#918B4B;" points="1901.029,72.15 1896.379,65.7 1891.379,71.95 
			1896.379,62.4 		"/>
	</g>
	<g>
		<polygon style="fill-rule:evenodd;clip-rule:evenodd;fill:#918B4B;" points="1871.278,73.2 1867.828,68.4 1864.078,73.05 
			1867.828,65.9 		"/>
	</g>
	<g>
		<polygon style="fill-rule:evenodd;clip-rule:evenodd;fill:#918B4B;" points="1847.179,78.75 1844.528,75.05 1841.628,78.6 
			1844.528,73.15 		"/>
	</g>
	<g>
		<polygon style="fill-rule:evenodd;clip-rule:evenodd;fill:#918B4B;" points="1821.328,64.55 1818.327,68.25 1821.328,62.6 
			1824.078,68.35 		"/>
	</g>
	<g>
		<polygon style="fill-rule:evenodd;clip-rule:evenodd;fill:#918B4B;" points="1794.728,78.4 1791.327,73.65 1787.627,78.25 
			1791.327,71.2 		"/>
	</g>
	<g>
		<polygon style="fill-rule:evenodd;clip-rule:evenodd;fill:#918B4B;" points="1762.678,67.65 1759.527,63.25 1756.076,67.55 
			1759.527,61 		"/>
	</g>
	<g>
		<polygon style="fill-rule:evenodd;clip-rule:evenodd;fill:#918B4B;" points="1647.726,107.65 1644.525,103.25 1641.075,107.5 
			1644.525,100.95 		"/>
	</g>
	<g>
		<polygon style="fill-rule:evenodd;clip-rule:evenodd;fill:#918B4B;" points="1734.126,65.3 1729.126,58.35 1723.727,65.1 
			1729.126,54.8 		"/>
	</g>
	<g>
		<polygon style="fill-rule:evenodd;clip-rule:evenodd;fill:#918B4B;" points="1699.227,68.6 1693.525,75.7 1699.227,64.85 
			1704.477,75.95 		"/>
	</g>
	<g>
		<polygon style="fill-rule:evenodd;clip-rule:evenodd;fill:#918B4B;" points="1679.375,73.7 1674.825,67.35 1669.875,73.5 
			1674.825,64.05 		"/>
	</g>
	<g>
		<polygon style="fill-rule:evenodd;clip-rule:evenodd;fill:#918B4B;" points="1645.575,71.05 1642.176,66.3 1638.476,70.9 
			1642.176,63.85 		"/>
	</g>
	<g>
		<polygon style="fill-rule:evenodd;clip-rule:evenodd;fill:#918B4B;" points="1915.979,109.6 1912.529,104.8 1908.829,109.45 
			1912.529,102.35 		"/>
	</g>
	<g>
		<polygon style="fill-rule:evenodd;clip-rule:evenodd;fill:#918B4B;" points="1615.574,66.75 1610.374,73.15 1615.574,63.35 
			1620.324,73.35 		"/>
	</g>
	<g>
		<polygon style="fill-rule:evenodd;clip-rule:evenodd;fill:#918B4B;" points="1589.074,73.85 1586.024,69.65 1582.774,73.7 
			1586.024,67.5 		"/>
	</g>
	<g>
		<polygon style="fill-rule:evenodd;clip-rule:evenodd;fill:#918B4B;" points="1513.724,78.65 1510.674,74.45 1507.424,78.55 
			1510.674,72.3 		"/>
	</g>
	<g>
		<polygon style="fill-rule:evenodd;clip-rule:evenodd;fill:#918B4B;" points="1532.073,108.35 1526.573,100.7 1520.573,108.1 
			1526.573,96.75 		"/>
	</g>
	<g>
		<polygon style="fill-rule:evenodd;clip-rule:evenodd;fill:#918B4B;" points="1537.224,85.3 1533.023,79.5 1528.474,85.15 
			1533.023,76.45 		"/>
	</g>
	<g>
		<polygon style="fill-rule:evenodd;clip-rule:evenodd;fill:#918B4B;" points="1556.373,81 1551.573,74.25 1546.273,80.75 
			1551.573,70.75 		"/>
	</g>
	<g>
		<polygon style="fill-rule:evenodd;clip-rule:evenodd;fill:#918B4B;" points="1569.773,107.65 1564.074,99.7 1557.823,107.4 
			1564.074,95.6 		"/>
	</g>
	<g>
		<polygon style="fill-rule:evenodd;clip-rule:evenodd;fill:#918B4B;" points="1657.226,60.8 1654.025,56.35 1650.575,60.65 
			1654.025,54.05 		"/>
	</g>
	<g>
		<polygon style="fill-rule:evenodd;clip-rule:evenodd;fill:#918B4B;" points="1694.025,58.3 1691.325,54.55 1688.426,58.15 
			1691.325,52.6 		"/>
	</g>
	<g>
		<polygon style="fill-rule:evenodd;clip-rule:evenodd;fill:#918B4B;" points="1512.724,104.6 1510.023,100.85 1507.123,104.5 
			1510.023,98.95 		"/>
	</g>
	<g>
		<polygon style="fill-rule:evenodd;clip-rule:evenodd;fill:#918B4B;" points="1688.625,108.35 1684.525,102.7 1680.125,108.2 
			1684.525,99.8 		"/>
	</g>
	<g>
		<polygon style="fill-rule:evenodd;clip-rule:evenodd;fill:#918B4B;" points="1756.627,55.85 1751.677,48.95 1746.276,55.6 
			1751.677,45.4 		"/>
	</g>
	<g>
		<polygon style="fill-rule:evenodd;clip-rule:evenodd;fill:#918B4B;" points="1788.527,57.5 1784.978,52.5 1781.077,57.3 
			1784.978,49.95 		"/>
	</g>
	<g>
		<polygon style="fill-rule:evenodd;clip-rule:evenodd;fill:#918B4B;" points="1815.478,57.2 1810.577,50.4 1805.228,57 
			1810.577,46.9 		"/>
	</g>
	<g>
		<polygon style="fill-rule:evenodd;clip-rule:evenodd;fill:#918B4B;" points="1847.229,55.1 1844.229,50.95 1841.028,55 
			1844.229,48.85 		"/>
	</g>
	<g>
		<polygon style="fill-rule:evenodd;clip-rule:evenodd;fill:#918B4B;" points="1880.128,48.95 1875.429,42.45 1870.278,48.75 
			1875.429,39.05 		"/>
	</g>
	<g>
		<polygon style="fill-rule:evenodd;clip-rule:evenodd;fill:#918B4B;" points="1908.579,56.15 1903.329,48.85 1897.629,55.95 
			1903.329,45.1 		"/>
	</g>
	<g>
		<polygon style="fill-rule:evenodd;clip-rule:evenodd;fill:#918B4B;" points="1931.18,59 1927.829,54.35 1924.229,58.85 
			1927.829,51.95 		"/>
	</g>
	<g>
		<polygon style="fill-rule:evenodd;clip-rule:evenodd;fill:#918B4B;" points="1956.181,58.25 1952.83,53.55 1949.129,58.1 
			1952.83,51.15 		"/>
	</g>
	<g>
		<polygon style="fill-rule:evenodd;clip-rule:evenodd;fill:#918B4B;" points="1990.53,57.45 1986.23,51.45 1981.53,57.25 
			1986.23,48.35 		"/>
	</g>
	<g>
		<polygon style="fill-rule:evenodd;clip-rule:evenodd;fill:#918B4B;" points="1862.028,103.8 1858.179,108.65 1862.028,101.25 
			1865.628,108.8 		"/>
	</g>
	<g>
		<polygon style="fill-rule:evenodd;clip-rule:evenodd;fill:#918B4B;" points="1802.428,106.4 1797.478,99.5 1792.127,106.15 
			1797.478,96 		"/>
	</g>
	<g>
		<polygon style="fill-rule:evenodd;clip-rule:evenodd;fill:#918B4B;" points="1589.374,102.8 1586.324,98.55 1582.975,102.65 
			1586.324,96.35 		"/>
	</g>
	<g>
		<polygon style="fill-rule:evenodd;clip-rule:evenodd;fill:#918B4B;" points="1979.78,108.85 1975.08,102.25 1969.931,108.6 
			1975.08,98.85 		"/>
	</g>
	<g>
		<polygon style="fill-rule:evenodd;clip-rule:evenodd;fill:#918B4B;" points="1948.18,44.15 1945.029,39.85 1941.68,44.05 
			1945.029,37.6 		"/>
	</g>
	<g>
		<polygon style="fill-rule:evenodd;clip-rule:evenodd;fill:#918B4B;" points="1893.879,37.25 1891.029,33.35 1887.979,37.15 
			1891.029,31.35 		"/>
	</g>
	<g>
		<polygon style="fill-rule:evenodd;clip-rule:evenodd;fill:#918B4B;" points="1829.429,108.7 1824.078,101.2 1818.178,108.45 
			1824.078,97.35 		"/>
	</g>
	<g>
		<polygon style="fill-rule:evenodd;clip-rule:evenodd;fill:#918B4B;" points="1839.479,44.75 1834.078,37.2 1828.179,44.5 
			1834.078,33.3 		"/>
	</g>
	<g>
		<polygon style="fill-rule:evenodd;clip-rule:evenodd;fill:#918B4B;" points="1802.678,48.55 1797.577,41.45 1791.978,48.35 
			1797.577,37.75 		"/>
	</g>
	<g>
		<polygon style="fill-rule:evenodd;clip-rule:evenodd;fill:#918B4B;" points="1741.076,101.75 1735.677,108.4 1741.076,98.2 
			1746.026,108.65 		"/>
	</g>
	<g>
		<polygon style="fill-rule:evenodd;clip-rule:evenodd;fill:#918B4B;" points="1713.477,56.25 1709.526,50.8 1705.326,56.05 
			1709.526,48 		"/>
	</g>
	<g>
		<polygon style="fill-rule:evenodd;clip-rule:evenodd;fill:#918B4B;" points="1616.074,99.7 1610.225,106.95 1616.074,95.85 
			1621.425,107.2 		"/>
	</g>
</g>
<g>
	<g>
		<path style="fill-rule:evenodd;clip-rule:evenodd;fill:#ABA254;" d="M2457.637,43.15c16.568-1.767,30.685-2.65,42.352-2.65v70.05
			H2000.03V40.5c6.667,0,23.118,0.867,49.351,2.6c15.601,1.033,43.668,2.9,84.201,5.6c83.603,5.267,146.937,7.55,190.003,6.85
			c19.167,0.7,48.718-1.55,88.652-6.75C2434.471,45.867,2449.604,43.983,2457.637,43.15z"/>
	</g>
	<g>
		<polygon style="fill-rule:evenodd;clip-rule:evenodd;fill:#918B4B;" points="2046.182,101.25 2041.932,95.3 2037.281,101.05 
			2041.932,92.25 		"/>
	</g>
	<g>
		<polygon style="fill-rule:evenodd;clip-rule:evenodd;fill:#918B4B;" points="2076.232,89.2 2071.131,82.1 2065.531,89 
			2071.131,78.4 		"/>
	</g>
	<g>
		<polygon style="fill-rule:evenodd;clip-rule:evenodd;fill:#918B4B;" points="2102.832,86.8 2098.433,92.25 2102.832,83.9 
			2106.882,92.45 		"/>
	</g>
	<g>
		<polygon style="fill-rule:evenodd;clip-rule:evenodd;fill:#918B4B;" points="2139.383,94.35 2134.933,88.15 2130.082,94.15 
			2134.933,84.95 		"/>
	</g>
	<g>
		<polygon style="fill-rule:evenodd;clip-rule:evenodd;fill:#918B4B;" points="2163.583,85 2158.783,78.3 2153.533,84.8 
			2158.783,74.85 		"/>
	</g>
	<g>
		<polygon style="fill-rule:evenodd;clip-rule:evenodd;fill:#918B4B;" points="2197.184,93 2194.383,89.05 2191.283,92.85 
			2194.383,87 		"/>
	</g>
	<g>
		<polygon style="fill-rule:evenodd;clip-rule:evenodd;fill:#918B4B;" points="2225.484,78.35 2220.384,84.75 2225.484,74.95 
			2230.234,84.95 		"/>
	</g>
	<g>
		<polygon style="fill-rule:evenodd;clip-rule:evenodd;fill:#918B4B;" points="2256.834,97.65 2252.234,91.3 2247.284,97.45 
			2252.234,88 		"/>
	</g>
	<g>
		<polygon style="fill-rule:evenodd;clip-rule:evenodd;fill:#918B4B;" points="2278.686,90.3 2273.436,83 2267.734,90.05 
			2273.436,79.25 		"/>
	</g>
	<g>
		<polygon style="fill-rule:evenodd;clip-rule:evenodd;fill:#918B4B;" points="2320.186,90.2 2316.085,84.55 2311.635,90.05 
			2316.085,81.6 		"/>
	</g>
	<g>
		<polygon style="fill-rule:evenodd;clip-rule:evenodd;fill:#918B4B;" points="2352.736,100.65 2347.636,93.5 2342.086,100.4 
			2347.636,89.85 		"/>
	</g>
	<g>
		<polygon style="fill-rule:evenodd;clip-rule:evenodd;fill:#918B4B;" points="2382.437,104.15 2379.486,100.05 2376.286,104 
			2379.486,97.95 		"/>
	</g>
	<g>
		<polygon style="fill-rule:evenodd;clip-rule:evenodd;fill:#918B4B;" points="2404.938,91.7 2402.287,88 2399.387,91.55 
			2402.287,86.1 		"/>
	</g>
	<g>
		<polygon style="fill-rule:evenodd;clip-rule:evenodd;fill:#918B4B;" points="2438.337,95.75 2432.987,88.3 2427.137,95.55 
			2432.987,84.4 		"/>
	</g>
	<g>
		<polygon style="fill-rule:evenodd;clip-rule:evenodd;fill:#918B4B;" points="2465.838,79.8 2459.787,87.3 2465.838,75.75 
			2471.438,87.55 		"/>
	</g>
	<g>
		<polygon style="fill-rule:evenodd;clip-rule:evenodd;fill:#918B4B;" points="2496.388,100.45 2491.638,93.9 2486.488,100.25 
			2491.638,90.5 		"/>
	</g>
	<g>
		<polygon style="fill-rule:evenodd;clip-rule:evenodd;fill:#918B4B;" points="2227.834,104.95 2222.484,97.5 2216.634,104.75 
			2222.484,93.7 		"/>
	</g>
	<g>
		<polygon style="fill-rule:evenodd;clip-rule:evenodd;fill:#918B4B;" points="2456.338,104.8 2453.287,100.55 2449.938,104.65 
			2453.287,98.35 		"/>
	</g>
	<g>
		<polygon style="fill-rule:evenodd;clip-rule:evenodd;fill:#918B4B;" points="2169.684,103.8 2164.434,96.5 2158.783,103.55 
			2164.434,92.75 		"/>
	</g>
	<g>
		<polygon style="fill-rule:evenodd;clip-rule:evenodd;fill:#918B4B;" points="2497.388,71.05 2494.488,66.95 2491.288,70.9 
			2494.488,64.9 		"/>
	</g>
	<g>
		<polygon style="fill-rule:evenodd;clip-rule:evenodd;fill:#918B4B;" points="2467.688,66.25 2465.037,62.6 2462.188,66.15 
			2465.037,60.7 		"/>
	</g>
	<g>
		<polygon style="fill-rule:evenodd;clip-rule:evenodd;fill:#918B4B;" points="2438.438,75.85 2433.887,69.5 2428.938,75.65 
			2433.887,66.25 		"/>
	</g>
	<g>
		<polygon style="fill-rule:evenodd;clip-rule:evenodd;fill:#918B4B;" points="2400.986,72.15 2396.336,65.7 2391.336,71.95 
			2396.336,62.4 		"/>
	</g>
	<g>
		<polygon style="fill-rule:evenodd;clip-rule:evenodd;fill:#918B4B;" points="2371.236,73.2 2367.786,68.4 2364.036,73.05 
			2367.786,65.9 		"/>
	</g>
	<g>
		<polygon style="fill-rule:evenodd;clip-rule:evenodd;fill:#918B4B;" points="2347.136,78.75 2344.486,75.05 2341.586,78.6 
			2344.486,73.15 		"/>
	</g>
	<g>
		<polygon style="fill-rule:evenodd;clip-rule:evenodd;fill:#918B4B;" points="2324.035,68.35 2321.285,64.55 2318.285,68.25 
			2321.285,62.6 		"/>
	</g>
	<g>
		<polygon style="fill-rule:evenodd;clip-rule:evenodd;fill:#918B4B;" points="2294.686,78.4 2291.285,73.65 2287.585,78.25 
			2291.285,71.2 		"/>
	</g>
	<g>
		<polygon style="fill-rule:evenodd;clip-rule:evenodd;fill:#918B4B;" points="2262.634,67.65 2259.484,63.25 2256.034,67.55 
			2259.484,61 		"/>
	</g>
	<g>
		<polygon style="fill-rule:evenodd;clip-rule:evenodd;fill:#918B4B;" points="2234.084,65.3 2229.084,58.35 2223.685,65.1 
			2229.084,54.8 		"/>
	</g>
	<g>
		<polygon style="fill-rule:evenodd;clip-rule:evenodd;fill:#918B4B;" points="2204.434,75.95 2199.184,68.6 2193.483,75.7 
			2199.184,64.85 		"/>
	</g>
	<g>
		<polygon style="fill-rule:evenodd;clip-rule:evenodd;fill:#918B4B;" points="2179.333,73.7 2174.783,67.35 2169.833,73.5 
			2174.783,64.05 		"/>
	</g>
	<g>
		<polygon style="fill-rule:evenodd;clip-rule:evenodd;fill:#918B4B;" points="2145.533,71.05 2142.133,66.3 2138.434,70.9 
			2142.133,63.85 		"/>
	</g>
	<g>
		<polygon style="fill-rule:evenodd;clip-rule:evenodd;fill:#918B4B;" points="2113.132,64.15 2108.382,57.5 2103.232,63.9 
			2108.382,54.1 		"/>
	</g>
	<g>
		<polygon style="fill-rule:evenodd;clip-rule:evenodd;fill:#918B4B;" points="2082.281,66.3 2079.281,62.1 2075.982,66.15 
			2079.281,59.95 		"/>
	</g>
	<g>
		<polygon style="fill-rule:evenodd;clip-rule:evenodd;fill:#918B4B;" points="2013.73,78.65 2010.681,74.45 2007.431,78.55 
			2010.681,72.3 		"/>
	</g>
	<g>
		<polygon style="fill-rule:evenodd;clip-rule:evenodd;fill:#918B4B;" points="2057.881,72.75 2052.381,65.1 2046.381,72.55 
			2052.381,61.15 		"/>
	</g>
	<g>
		<polygon style="fill-rule:evenodd;clip-rule:evenodd;fill:#918B4B;" points="2032.682,67.8 2028.481,62 2023.981,67.65 
			2028.481,58.95 		"/>
	</g>
	<g>
		<polygon style="fill-rule:evenodd;clip-rule:evenodd;fill:#918B4B;" points="2020.932,52.85 2016.58,46.75 2011.83,52.65 
			2016.58,43.65 		"/>
	</g>
	<g>
		<polygon style="fill-rule:evenodd;clip-rule:evenodd;fill:#918B4B;" points="2046.331,59 2041.531,52.25 2036.231,58.75 
			2041.531,48.75 		"/>
	</g>
	<g>
		<polygon style="fill-rule:evenodd;clip-rule:evenodd;fill:#918B4B;" points="2073.232,57.75 2067.481,49.8 2061.281,57.5 
			2067.481,45.7 		"/>
	</g>
	<g>
		<polygon style="fill-rule:evenodd;clip-rule:evenodd;fill:#918B4B;" points="2102.482,104.3 2098.482,109.3 2102.482,101.65 
			2106.232,109.5 		"/>
	</g>
	<g>
		<polygon style="fill-rule:evenodd;clip-rule:evenodd;fill:#918B4B;" points="2151.184,56 2148.033,51.55 2144.533,55.85 
			2148.033,49.25 		"/>
	</g>
	<g>
		<polygon style="fill-rule:evenodd;clip-rule:evenodd;fill:#918B4B;" points="2193.983,58.3 2191.283,54.55 2188.383,58.15 
			2191.283,52.6 		"/>
	</g>
	<g>
		<polygon style="fill-rule:evenodd;clip-rule:evenodd;fill:#918B4B;" points="2143.982,105.35 2141.082,109 2143.982,103.45 
			2146.684,109.1 		"/>
	</g>
	<g>
		<polygon style="fill-rule:evenodd;clip-rule:evenodd;fill:#918B4B;" points="2020.231,105.8 2017.531,102.05 2014.631,105.7 
			2017.531,100.15 		"/>
	</g>
	<g>
		<polygon style="fill-rule:evenodd;clip-rule:evenodd;fill:#918B4B;" points="2205.484,110.1 2200.533,103.25 2195.133,109.9 
			2200.533,99.7 		"/>
	</g>
	<g>
		<polygon style="fill-rule:evenodd;clip-rule:evenodd;fill:#918B4B;" points="2265.984,104.45 2262.134,109.25 2265.984,101.9 
			2269.584,109.4 		"/>
	</g>
	<g>
		<polygon style="fill-rule:evenodd;clip-rule:evenodd;fill:#918B4B;" points="2305.535,64.25 2300.186,70.85 2305.535,60.7 
			2310.436,71.05 		"/>
	</g>
	<g>
		<polygon style="fill-rule:evenodd;clip-rule:evenodd;fill:#918B4B;" points="2408.487,109 2405.486,104.85 2402.287,108.85 
			2405.486,102.7 		"/>
	</g>
	<g>
		<polygon style="fill-rule:evenodd;clip-rule:evenodd;fill:#918B4B;" points="2382.586,65.95 2377.886,59.45 2372.736,65.75 
			2377.886,56.05 		"/>
	</g>
	<g>
		<polygon style="fill-rule:evenodd;clip-rule:evenodd;fill:#918B4B;" points="2413.237,61.5 2408.037,54.2 2402.336,61.3 
			2408.037,50.45 		"/>
	</g>
	<g>
		<polygon style="fill-rule:evenodd;clip-rule:evenodd;fill:#918B4B;" points="2427.787,54.35 2424.188,58.85 2427.787,51.95 
			2431.137,59 		"/>
	</g>
	<g>
		<polygon style="fill-rule:evenodd;clip-rule:evenodd;fill:#918B4B;" points="2456.137,58.25 2452.787,53.55 2449.087,58.1 
			2452.787,51.15 		"/>
	</g>
	<g>
		<polygon style="fill-rule:evenodd;clip-rule:evenodd;fill:#918B4B;" points="2490.488,57.45 2486.188,51.45 2481.488,57.25 
			2486.188,48.35 		"/>
	</g>
	<g>
		<polygon style="fill-rule:evenodd;clip-rule:evenodd;fill:#918B4B;" points="2302.385,106.4 2297.436,99.5 2292.085,106.15 
			2297.436,96 		"/>
	</g>
	<g>
		<polygon style="fill-rule:evenodd;clip-rule:evenodd;fill:#918B4B;" points="2089.332,102.8 2086.281,98.55 2082.932,102.65 
			2086.281,96.35 		"/>
	</g>
	<g>
		<polygon style="fill-rule:evenodd;clip-rule:evenodd;fill:#918B4B;" points="2482.238,109.85 2477.538,103.25 2472.388,109.6 
			2477.538,99.85 		"/>
	</g>
	<g>
		<polygon style="fill-rule:evenodd;clip-rule:evenodd;fill:#918B4B;" points="2325.635,109.15 2322.485,104.85 2319.135,109.05 
			2322.485,102.6 		"/>
	</g>
	<g>
		<polygon style="fill-rule:evenodd;clip-rule:evenodd;fill:#918B4B;" points="2134.683,60.1 2130.482,54.3 2125.982,59.9 
			2130.482,51.3 		"/>
	</g>
	<g>
		<polygon style="fill-rule:evenodd;clip-rule:evenodd;fill:#918B4B;" points="2061.031,100.7 2054.881,108.3 2061.031,96.65 
			2066.631,108.55 		"/>
	</g>
	<g>
		<polygon style="fill-rule:evenodd;clip-rule:evenodd;fill:#918B4B;" points="2023.031,86.8 2019.182,91.6 2023.031,84.25 
			2026.631,91.75 		"/>
	</g>
</g>
</svg>
