<?xml version="1.0" encoding="iso-8859-1"?>
<!-- Generator: Adobe Illustrator 15.1.0, SVG Export Plug-In . SVG Version: 6.00 Build 0)  -->
<!DOCTYPE svg PUBLIC "-//W3C//DTD SVG 1.1//EN" "http://www.w3.org/Graphics/SVG/1.1/DTD/svg11.dtd">
<svg version="1.1" id="ground_x5F_front_x5F_right.ai"
	 xmlns="http://www.w3.org/2000/svg" xmlns:xlink="http://www.w3.org/1999/xlink" x="0px" y="0px" width="207.65px" height="110px"
	 viewBox="0 0 207.65 110" style="enable-background:new 0 0 207.65 110;" xml:space="preserve">
<g>
	<path style="fill-rule:evenodd;clip-rule:evenodd;fill:#ABA254;" d="M0,0c11.667,5.633,25.017,12.183,40.05,19.65
		c30.067,14.967,53.5,27.1,70.3,36.4L207.65,110H0V0z"/>
	<g>
		<polygon style="fill-rule:evenodd;clip-rule:evenodd;fill:#918B4B;" points="77.8,105.15 72.25,97.4 66.2,104.9 72.25,93.4 		"/>
	</g>
	<g>
		<polygon style="fill-rule:evenodd;clip-rule:evenodd;fill:#918B4B;" points="37.45,93.1 30.75,83.75 23.45,92.8 30.75,78.95 		"/>
	</g>
	<g>
		<polygon style="fill-rule:evenodd;clip-rule:evenodd;fill:#918B4B;" points="23.55,62.6 19.6,57.1 15.35,62.4 19.6,54.3 		"/>
	</g>
	<g>
		<polygon style="fill-rule:evenodd;clip-rule:evenodd;fill:#918B4B;" points="79.35,82.05 75.05,87.35 79.35,79.2 83.25,87.5 		"/>
	</g>
	<g>
		<polygon style="fill-rule:evenodd;clip-rule:evenodd;fill:#918B4B;" points="114.95,85.5 111,80.05 106.7,85.35 111,77.2 		"/>
	</g>
	<g>
		<polygon style="fill-rule:evenodd;clip-rule:evenodd;fill:#918B4B;" points="63,71.15 55.8,61.15 48,70.85 55.8,56 		"/>
	</g>
	<g>
		<polygon style="fill-rule:evenodd;clip-rule:evenodd;fill:#918B4B;" points="99,69.85 93.5,62.2 87.55,69.6 93.5,58.25 		"/>
	</g>
	<g>
		<polygon style="fill-rule:evenodd;clip-rule:evenodd;fill:#918B4B;" points="141.45,87.1 135.75,79.15 129.55,86.85 135.75,75.05 
					"/>
	</g>
	<g>
		<polygon style="fill-rule:evenodd;clip-rule:evenodd;fill:#918B4B;" points="75.35,47.7 68.45,56.25 75.35,43.15 81.65,56.5 		"/>
	</g>
	<g>
		<polygon style="fill-rule:evenodd;clip-rule:evenodd;fill:#918B4B;" points="37,35.4 28.85,45.5 37,30.05 44.45,45.8 		"/>
	</g>
	<g>
		<polygon style="fill-rule:evenodd;clip-rule:evenodd;fill:#918B4B;" points="13.85,37.8 9,31 3.7,37.55 9,27.55 		"/>
	</g>
	<g>
		<polygon style="fill-rule:evenodd;clip-rule:evenodd;fill:#918B4B;" points="101.5,107.95 98,103.05 94.2,107.8 98,100.5 		"/>
	</g>
	<g>
		<polygon style="fill-rule:evenodd;clip-rule:evenodd;fill:#918B4B;" points="17.85,18.9 14.35,14.05 10.5,18.75 14.35,11.5 		"/>
	</g>
	<g>
		<polygon style="fill-rule:evenodd;clip-rule:evenodd;fill:#918B4B;" points="138.7,108.9 131.35,98.65 123.35,108.6 131.35,93.4 
					"/>
	</g>
	<g>
		<polygon style="fill-rule:evenodd;clip-rule:evenodd;fill:#918B4B;" points="160.5,98.65 156,92.35 151.1,98.45 156,89.1 		"/>
	</g>
	<g>
		<polygon style="fill-rule:evenodd;clip-rule:evenodd;fill:#918B4B;" points="15.15,105 10.65,98.75 5.7,104.85 10.65,95.5 		"/>
	</g>
	<g>
		<polygon style="fill-rule:evenodd;clip-rule:evenodd;fill:#918B4B;" points="182.75,108 178.1,101.55 173.05,107.8 178.1,98.2 		
			"/>
	</g>
</g>
</svg>
