<?xml version="1.0" encoding="iso-8859-1"?>
<!-- Generator: Adobe Illustrator 15.1.0, SVG Export Plug-In . SVG Version: 6.00 Build 0)  -->
<!DOCTYPE svg PUBLIC "-//W3C//DTD SVG 1.1//EN" "http://www.w3.org/Graphics/SVG/1.1/DTD/svg11.dtd">
<svg version="1.1" id="Isolation_Mode" xmlns="http://www.w3.org/2000/svg" xmlns:xlink="http://www.w3.org/1999/xlink" x="0px"
	 y="0px" width="500px" height="72.35px" viewBox="0 0 500 72.35" style="enable-background:new 0 0 500 72.35;"
	 xml:space="preserve">
<g>
	<g>
		<path style="fill-rule:evenodd;clip-rule:evenodd;fill:#ABA254;" d="M376.65,28.6C419.483,41.6,460.6,56.184,500,72.35H0V2.3
			c54.967-1.133,101.4-1.867,139.3-2.2c71.567-0.6,119.816,1.15,144.75,5.25C307.116,9.117,337.983,16.867,376.65,28.6z"/>
	</g>
	<g>
		<polygon style="fill-rule:evenodd;clip-rule:evenodd;fill:#918B4B;" points="46.15,63.05 41.9,57.1 37.3,62.85 41.9,54.05 		"/>
	</g>
	<g>
		<polygon style="fill-rule:evenodd;clip-rule:evenodd;fill:#918B4B;" points="76.25,51.05 71.1,43.9 65.55,50.8 71.1,40.2 		"/>
	</g>
	<g>
		<polygon style="fill-rule:evenodd;clip-rule:evenodd;fill:#918B4B;" points="106.9,54.25 102.85,48.6 98.45,54.05 102.85,45.7 		
			"/>
	</g>
	<g>
		<polygon style="fill-rule:evenodd;clip-rule:evenodd;fill:#918B4B;" points="139.35,56.15 134.9,49.95 130.05,56 134.9,46.75 		
			"/>
	</g>
	<g>
		<polygon style="fill-rule:evenodd;clip-rule:evenodd;fill:#918B4B;" points="158.8,40.1 153.55,46.6 158.8,36.65 163.6,46.8 		"/>
	</g>
	<g>
		<polygon style="fill-rule:evenodd;clip-rule:evenodd;fill:#918B4B;" points="197.2,54.8 194.35,50.85 191.25,54.7 194.35,48.8 		
			"/>
	</g>
	<g>
		<polygon style="fill-rule:evenodd;clip-rule:evenodd;fill:#918B4B;" points="230.25,46.75 225.5,40.15 220.35,46.55 225.5,36.75 
					"/>
	</g>
	<g>
		<polygon style="fill-rule:evenodd;clip-rule:evenodd;fill:#918B4B;" points="256.85,59.45 252.25,53.1 247.25,59.25 252.25,49.8 
					"/>
	</g>
	<g>
		<polygon style="fill-rule:evenodd;clip-rule:evenodd;fill:#918B4B;" points="278.65,52.1 273.45,44.85 267.75,51.9 273.45,41.05 
					"/>
	</g>
	<g>
		<polygon style="fill-rule:evenodd;clip-rule:evenodd;fill:#918B4B;" points="320.2,52.05 316.1,46.35 311.65,51.85 316.1,43.4 		
			"/>
	</g>
	<g>
		<polygon style="fill-rule:evenodd;clip-rule:evenodd;fill:#918B4B;" points="352.75,62.45 347.65,55.3 342.05,62.2 347.65,51.65 
					"/>
	</g>
	<g>
		<polygon style="fill-rule:evenodd;clip-rule:evenodd;fill:#918B4B;" points="382.45,65.95 379.5,61.85 376.3,65.8 379.5,59.75 		
			"/>
	</g>
	<g>
		<polygon style="fill-rule:evenodd;clip-rule:evenodd;fill:#918B4B;" points="404.95,53.5 402.3,49.8 399.4,53.35 402.3,47.9 		"/>
	</g>
	<g>
		<polygon style="fill-rule:evenodd;clip-rule:evenodd;fill:#918B4B;" points="436.35,59.05 430.95,51.6 425.15,58.85 430.95,47.75 
					"/>
	</g>
	<g>
		<polygon style="fill-rule:evenodd;clip-rule:evenodd;fill:#918B4B;" points="227.8,66.75 222.45,59.3 216.65,66.55 222.45,55.5 		
			"/>
	</g>
	<g>
		<polygon style="fill-rule:evenodd;clip-rule:evenodd;fill:#918B4B;" points="456.35,66.6 453.25,62.35 449.95,66.5 453.25,60.15 
					"/>
	</g>
	<g>
		<polygon style="fill-rule:evenodd;clip-rule:evenodd;fill:#918B4B;" points="169.7,65.6 164.45,58.35 158.8,65.35 164.45,54.6 		
			"/>
	</g>
	<g>
		<polygon style="fill-rule:evenodd;clip-rule:evenodd;fill:#918B4B;" points="479.1,70.35 476.5,66.65 473.65,70.2 476.5,64.8 		
			"/>
	</g>
	<g>
		<polygon style="fill-rule:evenodd;clip-rule:evenodd;fill:#918B4B;" points="371.25,35.05 367.8,30.2 364,34.9 367.8,27.75 		"/>
	</g>
	<g>
		<polygon style="fill-rule:evenodd;clip-rule:evenodd;fill:#918B4B;" points="347.15,40.55 344.45,36.85 341.6,40.45 344.45,34.95 
					"/>
	</g>
	<g>
		<polygon style="fill-rule:evenodd;clip-rule:evenodd;fill:#918B4B;" points="321.3,26.35 318.3,30.05 321.3,24.4 324,30.15 		"/>
	</g>
	<g>
		<polygon style="fill-rule:evenodd;clip-rule:evenodd;fill:#918B4B;" points="294.7,40.2 291.3,35.45 287.55,40.05 291.3,33 		"/>
	</g>
	<g>
		<polygon style="fill-rule:evenodd;clip-rule:evenodd;fill:#918B4B;" points="262.65,29.5 259.45,25.05 256,29.35 259.45,22.8 		
			"/>
	</g>
	<g>
		<polygon style="fill-rule:evenodd;clip-rule:evenodd;fill:#918B4B;" points="234.1,27.1 229.1,20.2 223.65,26.9 229.1,16.6 		"/>
	</g>
	<g>
		<polygon style="fill-rule:evenodd;clip-rule:evenodd;fill:#918B4B;" points="199.2,30.45 193.45,37.5 199.2,26.65 204.45,37.75 		
			"/>
	</g>
	<g>
		<polygon style="fill-rule:evenodd;clip-rule:evenodd;fill:#918B4B;" points="179.35,35.5 174.8,29.15 169.8,35.3 174.8,25.85 		
			"/>
	</g>
	<g>
		<polygon style="fill-rule:evenodd;clip-rule:evenodd;fill:#918B4B;" points="145.55,32.85 142.15,28.1 138.4,32.7 142.15,25.65 		
			"/>
	</g>
	<g>
		<polygon style="fill-rule:evenodd;clip-rule:evenodd;fill:#918B4B;" points="113.15,25.95 108.4,19.35 103.25,25.75 108.4,15.9 		
			"/>
	</g>
	<g>
		<polygon style="fill-rule:evenodd;clip-rule:evenodd;fill:#918B4B;" points="79.3,23.9 76,27.95 79.3,21.75 82.3,28.1 		"/>
	</g>
	<g>
		<polygon style="fill-rule:evenodd;clip-rule:evenodd;fill:#918B4B;" points="13.65,40.45 10.65,36.3 7.4,40.35 10.65,34.1 		"/>
	</g>
	<g>
		<polygon style="fill-rule:evenodd;clip-rule:evenodd;fill:#918B4B;" points="57.85,34.6 52.35,26.95 46.4,34.35 52.35,23 		"/>
	</g>
	<g>
		<polygon style="fill-rule:evenodd;clip-rule:evenodd;fill:#918B4B;" points="32.7,29.6 28.5,23.8 23.95,29.45 28.5,20.8 		"/>
	</g>
	<g>
		<polygon style="fill-rule:evenodd;clip-rule:evenodd;fill:#918B4B;" points="19.9,17.65 15.5,11.55 10.75,17.45 15.5,8.45 		"/>
	</g>
	<g>
		<polygon style="fill-rule:evenodd;clip-rule:evenodd;fill:#918B4B;" points="39,8.05 33.75,14.6 39,4.55 43.85,14.8 		"/>
	</g>
	<g>
		<polygon style="fill-rule:evenodd;clip-rule:evenodd;fill:#918B4B;" points="72.2,15.55 66.5,7.6 60.3,15.3 66.5,3.5 		"/>
	</g>
	<g>
		<polygon style="fill-rule:evenodd;clip-rule:evenodd;fill:#918B4B;" points="100.1,9.95 96.4,4.8 92.35,9.8 96.4,2.15 		"/>
	</g>
	<g>
		<polygon style="fill-rule:evenodd;clip-rule:evenodd;fill:#918B4B;" points="151.2,17.8 148,13.35 144.55,17.65 148,11.05 		"/>
	</g>
	<g>
		<polygon style="fill-rule:evenodd;clip-rule:evenodd;fill:#918B4B;" points="193.95,20.1 191.3,16.35 188.35,19.95 191.3,14.4 		
			"/>
	</g>
	<g>
		<polygon style="fill-rule:evenodd;clip-rule:evenodd;fill:#918B4B;" points="173.95,11.1 171.25,7.35 168.3,10.95 171.25,5.4 		
			"/>
	</g>
	<g>
		<polygon style="fill-rule:evenodd;clip-rule:evenodd;fill:#918B4B;" points="20.2,67.6 17.5,63.85 14.55,67.5 17.5,61.95 		"/>
	</g>
	<g>
		<polygon style="fill-rule:evenodd;clip-rule:evenodd;fill:#918B4B;" points="256.6,17.65 251.65,10.75 246.25,17.45 251.65,7.2 		
			"/>
	</g>
	<g>
		<polygon style="fill-rule:evenodd;clip-rule:evenodd;fill:#918B4B;" points="288.5,19.3 284.95,14.3 281.05,19.15 284.95,11.75 		
			"/>
	</g>
	<g>
		<polygon style="fill-rule:evenodd;clip-rule:evenodd;fill:#918B4B;" points="314.45,21.55 309.55,14.7 304.2,21.3 309.55,11.2 		
			"/>
	</g>
	<g>
		<polygon style="fill-rule:evenodd;clip-rule:evenodd;fill:#918B4B;" points="421.25,70.8 416,63.55 410.3,70.6 416,59.75 		"/>
	</g>
	<g>
		<polygon style="fill-rule:evenodd;clip-rule:evenodd;fill:#918B4B;" points="302.35,68.2 297.45,61.35 292.05,68 297.45,57.8 		
			"/>
	</g>
	<g>
		<polygon style="fill-rule:evenodd;clip-rule:evenodd;fill:#918B4B;" points="89.35,64.6 86.25,60.35 82.95,64.45 86.25,58.15 		
			"/>
	</g>
	<g>
		<polygon style="fill-rule:evenodd;clip-rule:evenodd;fill:#918B4B;" points="334.65,71.25 329.5,64.1 323.95,71 329.5,60.4 		"/>
	</g>
	<g>
		<polygon style="fill-rule:evenodd;clip-rule:evenodd;fill:#918B4B;" points="281.75,71 276,63 269.8,70.75 276,58.9 		"/>
	</g>
	<g>
		<polygon style="fill-rule:evenodd;clip-rule:evenodd;fill:#918B4B;" points="213.85,12.4 209.95,6.95 205.7,12.2 209.95,4.15 		
			"/>
	</g>
	<g>
		<polygon style="fill-rule:evenodd;clip-rule:evenodd;fill:#918B4B;" points="193.9,71.5 188.5,64 182.65,71.25 188.5,60.15 		"/>
	</g>
	<g>
		<polygon style="fill-rule:evenodd;clip-rule:evenodd;fill:#918B4B;" points="138.75,12.4 134.6,6.6 130.05,12.2 134.6,3.6 		"/>
	</g>
	<g>
		<polygon style="fill-rule:evenodd;clip-rule:evenodd;fill:#918B4B;" points="125.75,69.65 122.5,65.15 119,69.5 122.5,62.8 		"/>
	</g>
	<g>
		<polygon style="fill-rule:evenodd;clip-rule:evenodd;fill:#918B4B;" points="71.05,72.05 67.5,67.1 63.65,71.9 67.5,64.55 		"/>
	</g>
</g>
</svg>
