<?xml version="1.0" encoding="iso-8859-1"?>
<!-- Generator: Adobe Illustrator 15.1.0, SVG Export Plug-In . SVG Version: 6.00 Build 0)  -->
<!DOCTYPE svg PUBLIC "-//W3C//DTD SVG 1.1//EN" "http://www.w3.org/Graphics/SVG/1.1/DTD/svg11.dtd">
<svg version="1.1" id="ground_x5F_back_x5F_top_x5F_06.ai"
	 xmlns="http://www.w3.org/2000/svg" xmlns:xlink="http://www.w3.org/1999/xlink" x="0px" y="0px" width="500px" height="70.05px"
	 viewBox="0 0 500 70.05" style="enable-background:new 0 0 500 70.05;" xml:space="preserve">
<g>
	<g>
		<path style="fill-rule:evenodd;clip-rule:evenodd;fill:#BCB472;" d="M500,0v70.05H0V0c6.667,0,23.117,0.867,49.35,2.6
			c15.6,1.033,43.667,2.9,84.2,5.6c83.6,5.267,146.934,7.533,190,6.8c19.2,0.733,48.767-1.517,88.7-6.75
			c22.333-2.9,37.467-4.767,45.4-5.6C474.217,0.883,488.333,0,500,0z"/>
	</g>
	<g>
		<polygon style="fill-rule:evenodd;clip-rule:evenodd;fill:#B3AB64;" points="45.4,59.95 41.85,55 38,59.8 41.85,52.5 		"/>
	</g>
	<g>
		<polygon style="fill-rule:evenodd;clip-rule:evenodd;fill:#B3AB64;" points="75.35,47.8 71.05,41.85 66.4,47.6 71.05,38.75 		"/>
	</g>
	<g>
		<polygon style="fill-rule:evenodd;clip-rule:evenodd;fill:#B3AB64;" points="106.15,51.2 102.8,46.5 99.15,51.05 102.8,44.1 		"/>
	</g>
	<g>
		<polygon style="fill-rule:evenodd;clip-rule:evenodd;fill:#B3AB64;" points="138.6,53.05 134.9,47.9 130.85,52.9 134.9,45.2 		"/>
	</g>
	<g>
		<polygon style="fill-rule:evenodd;clip-rule:evenodd;fill:#B3AB64;" points="158.75,38.05 154.4,43.45 158.75,35.15 162.75,43.6 
					"/>
	</g>
	<g>
		<polygon style="fill-rule:evenodd;clip-rule:evenodd;fill:#B3AB64;" points="196.7,51.95 194.35,48.7 191.75,51.85 194.35,47 		
			"/>
	</g>
	<g>
		<polygon style="fill-rule:evenodd;clip-rule:evenodd;fill:#B3AB64;" points="229.4,43.6 225.45,38.1 221.2,43.4 225.45,35.25 		
			"/>
	</g>
	<g>
		<polygon style="fill-rule:evenodd;clip-rule:evenodd;fill:#B3AB64;" points="256.05,56.35 252.2,51 248.05,56.15 252.2,48.3 		"/>
	</g>
	<g>
		<polygon style="fill-rule:evenodd;clip-rule:evenodd;fill:#B3AB64;" points="277.75,48.85 273.4,42.8 268.65,48.65 273.4,39.65 		
			"/>
	</g>
	<g>
		<polygon style="fill-rule:evenodd;clip-rule:evenodd;fill:#B3AB64;" points="319.45,49 316.05,44.25 312.35,48.85 316.05,41.8 		
			"/>
	</g>
	<g>
		<polygon style="fill-rule:evenodd;clip-rule:evenodd;fill:#B3AB64;" points="351.85,59.2 347.6,53.25 342.95,59 347.6,50.2 		"/>
	</g>
	<g>
		<polygon style="fill-rule:evenodd;clip-rule:evenodd;fill:#B3AB64;" points="381.9,63.1 379.45,59.7 376.8,63 379.45,57.95 		"/>
	</g>
	<g>
		<polygon style="fill-rule:evenodd;clip-rule:evenodd;fill:#B3AB64;" points="404.45,50.7 402.25,47.6 399.85,50.6 402.25,46.05 		
			"/>
	</g>
	<g>
		<polygon style="fill-rule:evenodd;clip-rule:evenodd;fill:#B3AB64;" points="437.4,54.3 432.95,48.05 428.05,54.1 432.95,44.85 		
			"/>
	</g>
	<g>
		<polygon style="fill-rule:evenodd;clip-rule:evenodd;fill:#B3AB64;" points="470.45,46.05 465.8,39.55 460.75,45.85 465.8,36.25 
					"/>
	</g>
	<g>
		<polygon style="fill-rule:evenodd;clip-rule:evenodd;fill:#B3AB64;" points="495.55,59.1 491.6,53.65 487.3,58.95 491.6,50.8 		
			"/>
	</g>
	<g>
		<polygon style="fill-rule:evenodd;clip-rule:evenodd;fill:#B3AB64;" points="226.9,63.5 222.4,57.3 217.55,63.3 222.4,54.1 		"/>
	</g>
	<g>
		<polygon style="fill-rule:evenodd;clip-rule:evenodd;fill:#B3AB64;" points="455.8,63.75 453.25,60.2 450.45,63.65 453.25,58.35 
					"/>
	</g>
	<g>
		<polygon style="fill-rule:evenodd;clip-rule:evenodd;fill:#B3AB64;" points="168.75,62.35 164.4,56.3 159.7,62.15 164.4,53.15 		
			"/>
	</g>
	<g>
		<polygon style="fill-rule:evenodd;clip-rule:evenodd;fill:#B3AB64;" points="496.9,30 494.45,26.6 491.8,29.9 494.45,24.85 		"/>
	</g>
	<g>
		<polygon style="fill-rule:evenodd;clip-rule:evenodd;fill:#B3AB64;" points="467.2,25.3 465,22.25 462.65,25.2 465,20.65 		"/>
	</g>
	<g>
		<polygon style="fill-rule:evenodd;clip-rule:evenodd;fill:#B3AB64;" points="437.65,34.55 433.85,29.25 429.7,34.35 433.85,26.55 
					"/>
	</g>
	<g>
		<polygon style="fill-rule:evenodd;clip-rule:evenodd;fill:#B3AB64;" points="400.15,30.8 396.3,25.45 392.1,30.65 396.3,22.7 		
			"/>
	</g>
	<g>
		<polygon style="fill-rule:evenodd;clip-rule:evenodd;fill:#B3AB64;" points="370.65,32.1 367.75,28.1 364.6,31.95 367.75,26 		"/>
	</g>
	<g>
		<polygon style="fill-rule:evenodd;clip-rule:evenodd;fill:#B3AB64;" points="346.65,37.75 344.45,34.7 342.05,37.65 344.45,33.1 
					"/>
	</g>
	<g>
		<polygon style="fill-rule:evenodd;clip-rule:evenodd;fill:#B3AB64;" points="323.55,27.35 321.25,24.2 318.75,27.25 321.25,22.55 
					"/>
	</g>
	<g>
		<polygon style="fill-rule:evenodd;clip-rule:evenodd;fill:#B3AB64;" points="294.1,37.3 291.25,33.3 288.15,37.15 291.25,31.3 		
			"/>
	</g>
	<g>
		<polygon style="fill-rule:evenodd;clip-rule:evenodd;fill:#B3AB64;" points="262.1,26.6 259.45,22.9 256.55,26.5 259.45,21 		"/>
	</g>
	<g>
		<polygon style="fill-rule:evenodd;clip-rule:evenodd;fill:#B3AB64;" points="233.2,23.9 229.05,18.1 224.55,23.75 229.05,15.15 		
			"/>
	</g>
	<g>
		<polygon style="fill-rule:evenodd;clip-rule:evenodd;fill:#B3AB64;" points="199.15,28.4 194.4,34.3 199.15,25.25 203.55,34.5 		
			"/>
	</g>
	<g>
		<polygon style="fill-rule:evenodd;clip-rule:evenodd;fill:#B3AB64;" points="178.55,32.35 174.75,27.05 170.6,32.2 174.75,24.35 
					"/>
	</g>
	<g>
		<polygon style="fill-rule:evenodd;clip-rule:evenodd;fill:#B3AB64;" points="144.95,29.95 142.1,26 139,29.8 142.1,23.95 		"/>
	</g>
	<g>
		<polygon style="fill-rule:evenodd;clip-rule:evenodd;fill:#B3AB64;" points="112.3,22.75 108.35,17.25 104.05,22.6 108.35,14.45 
					"/>
	</g>
	<g>
		<polygon style="fill-rule:evenodd;clip-rule:evenodd;fill:#B3AB64;" points="79.25,21.75 76.5,25.15 79.25,19.95 81.75,25.25 		
			"/>
	</g>
	<g>
		<polygon style="fill-rule:evenodd;clip-rule:evenodd;fill:#B3AB64;" points="13.15,37.6 10.6,34.1 7.9,37.5 10.6,32.3 		"/>
	</g>
	<g>
		<polygon style="fill-rule:evenodd;clip-rule:evenodd;fill:#B3AB64;" points="56.9,31.3 52.3,24.9 47.35,31.1 52.3,21.6 		"/>
	</g>
	<g>
		<polygon style="fill-rule:evenodd;clip-rule:evenodd;fill:#B3AB64;" points="31.95,26.55 28.45,21.7 24.65,26.4 28.45,19.2 		"/>
	</g>
	<g>
		<polygon style="fill-rule:evenodd;clip-rule:evenodd;fill:#B3AB64;" points="20.1,11.55 16.45,6.5 12.5,11.4 16.45,3.9 		"/>
	</g>
	<g>
		<polygon style="fill-rule:evenodd;clip-rule:evenodd;fill:#B3AB64;" points="45.5,17.6 41.45,12 37.1,17.45 41.45,9.1 		"/>
	</g>
	<g>
		<polygon style="fill-rule:evenodd;clip-rule:evenodd;fill:#B3AB64;" points="72.2,16.25 67.45,9.6 62.25,16 67.45,6.2 		"/>
	</g>
	<g>
		<polygon style="fill-rule:evenodd;clip-rule:evenodd;fill:#B3AB64;" points="105.55,68.3 102.45,64 99.1,68.15 102.45,61.75 		"/>
	</g>
	<g>
		<polygon style="fill-rule:evenodd;clip-rule:evenodd;fill:#B3AB64;" points="150.65,14.9 148,11.2 145.1,14.8 148,9.3 		"/>
	</g>
	<g>
		<polygon style="fill-rule:evenodd;clip-rule:evenodd;fill:#B3AB64;" points="193.5,17.3 191.25,14.15 188.8,17.2 191.25,12.55 		
			"/>
	</g>
	<g>
		<polygon style="fill-rule:evenodd;clip-rule:evenodd;fill:#B3AB64;" points="146.2,68.1 143.95,65 141.55,68 143.95,63.4 		"/>
	</g>
	<g>
		<polygon style="fill-rule:evenodd;clip-rule:evenodd;fill:#B3AB64;" points="19.7,64.8 17.45,61.7 15.05,64.7 17.45,60.1 		"/>
	</g>
	<g>
		<polygon style="fill-rule:evenodd;clip-rule:evenodd;fill:#B3AB64;" points="200.45,63 196,68.55 200.45,60.05 204.6,68.7 		"/>
	</g>
	<g>
		<polygon style="fill-rule:evenodd;clip-rule:evenodd;fill:#B3AB64;" points="268.95,68.25 265.95,64.1 262.75,68.15 265.95,62 		
			"/>
	</g>
	<g>
		<polygon style="fill-rule:evenodd;clip-rule:evenodd;fill:#B3AB64;" points="309.55,29.7 305.45,24 301.05,29.5 305.45,21.05 		
			"/>
	</g>
	<g>
		<polygon style="fill-rule:evenodd;clip-rule:evenodd;fill:#B3AB64;" points="407.95,67.95 405.45,64.5 402.75,67.85 405.45,62.7 
					"/>
	</g>
	<g>
		<polygon style="fill-rule:evenodd;clip-rule:evenodd;fill:#B3AB64;" points="381.75,24.6 377.8,19.15 373.55,24.45 377.8,16.35 		
			"/>
	</g>
	<g>
		<polygon style="fill-rule:evenodd;clip-rule:evenodd;fill:#B3AB64;" points="412.35,20.05 407.95,14 403.2,19.9 407.95,10.85 		
			"/>
	</g>
	<g>
		<polygon style="fill-rule:evenodd;clip-rule:evenodd;fill:#B3AB64;" points="430.55,17.9 427.75,14.05 424.75,17.8 427.75,12 		
			"/>
	</g>
	<g>
		<polygon style="fill-rule:evenodd;clip-rule:evenodd;fill:#B3AB64;" points="455.55,17.15 452.75,13.25 449.7,17 452.75,11.2 		
			"/>
	</g>
	<g>
		<polygon style="fill-rule:evenodd;clip-rule:evenodd;fill:#B3AB64;" points="489.75,16.15 486.15,11.15 482.25,16 486.15,8.6 		
			"/>
	</g>
	<g>
		<polygon style="fill-rule:evenodd;clip-rule:evenodd;fill:#B3AB64;" points="301.5,65 297.4,59.25 292.9,64.8 297.4,56.3 		"/>
	</g>
	<g>
		<polygon style="fill-rule:evenodd;clip-rule:evenodd;fill:#B3AB64;" points="88.8,61.75 86.25,58.2 83.45,61.6 86.25,56.35 		"/>
	</g>
	<g>
		<polygon style="fill-rule:evenodd;clip-rule:evenodd;fill:#B3AB64;" points="481.4,68.45 477.45,63 473.2,68.3 477.45,60.15 		"/>
	</g>
	<g>
		<polygon style="fill-rule:evenodd;clip-rule:evenodd;fill:#B3AB64;" points="322.45,64.5 319.65,68 322.45,62.65 325.05,68.1 		
			"/>
	</g>
	<g>
		<polygon style="fill-rule:evenodd;clip-rule:evenodd;fill:#B3AB64;" points="133.95,18.8 130.45,14 126.7,18.65 130.45,11.5 		"/>
	</g>
	<g>
		<polygon style="fill-rule:evenodd;clip-rule:evenodd;fill:#B3AB64;" points="65.65,67 60.95,60.5 55.85,66.8 60.95,57.15 		"/>
	</g>
	<g>
		<polygon style="fill-rule:evenodd;clip-rule:evenodd;fill:#B3AB64;" points="25.95,50.6 22.95,46.5 19.75,50.5 22.95,44.35 		"/>
	</g>
</g>
</svg>
