<?xml version="1.0" encoding="iso-8859-1"?>
<!-- Generator: Adobe Illustrator 15.1.0, SVG Export Plug-In . SVG Version: 6.00 Build 0)  -->
<!DOCTYPE svg PUBLIC "-//W3C//DTD SVG 1.1//EN" "http://www.w3.org/Graphics/SVG/1.1/DTD/svg11.dtd">
<svg version="1.1" id="Isolation_Mode" xmlns="http://www.w3.org/2000/svg" xmlns:xlink="http://www.w3.org/1999/xlink" x="0px"
	 y="0px" width="553.5px" height="256.8px" viewBox="0 0 553.5 256.8" style="enable-background:new 0 0 553.5 256.8;"
	 xml:space="preserve">
<g>
	<path style="fill-rule:evenodd;clip-rule:evenodd;fill:#ABA254;" d="M365.7,165.15c72.467,34.633,135.066,65.183,187.8,91.649H0V0
		C98.8,40.833,220.7,95.883,365.7,165.15z"/>
	<g>
		<polygon style="fill-rule:evenodd;clip-rule:evenodd;fill:#918B4B;" points="187.6,101.95 181.5,93.5 174.9,101.7 181.5,89.1 		
			"/>
	</g>
	<g>
		<polygon style="fill-rule:evenodd;clip-rule:evenodd;fill:#918B4B;" points="129,118.7 124.85,112.9 120.35,118.5 124.85,109.95 
					"/>
	</g>
	<g>
		<polygon style="fill-rule:evenodd;clip-rule:evenodd;fill:#918B4B;" points="136,97.8 131.85,92.05 127.4,97.65 131.85,89.1 		"/>
	</g>
	<g>
		<polygon style="fill-rule:evenodd;clip-rule:evenodd;fill:#918B4B;" points="111.9,126.9 108.65,122.35 105.05,126.75 108.65,120 
					"/>
	</g>
	<g>
		<polygon style="fill-rule:evenodd;clip-rule:evenodd;fill:#918B4B;" points="92,160.75 86.35,152.9 80.25,160.5 86.35,148.85 		
			"/>
	</g>
	<g>
		<polygon style="fill-rule:evenodd;clip-rule:evenodd;fill:#918B4B;" points="77.05,200.6 70.1,209.2 77.05,196.05 83.4,209.45 		
			"/>
	</g>
	<g>
		<polygon style="fill-rule:evenodd;clip-rule:evenodd;fill:#918B4B;" points="118.95,233.15 112.4,224.05 105.25,232.85 
			112.4,219.35 		"/>
	</g>
	<g>
		<polygon style="fill-rule:evenodd;clip-rule:evenodd;fill:#918B4B;" points="147.3,247.35 143.05,241.5 138.5,247.2 
			143.05,238.45 		"/>
	</g>
	<g>
		<polygon style="fill-rule:evenodd;clip-rule:evenodd;fill:#918B4B;" points="188.05,239.35 183.85,233.55 179.3,239.15 
			183.85,230.55 		"/>
	</g>
	<g>
		<polygon style="fill-rule:evenodd;clip-rule:evenodd;fill:#918B4B;" points="227.7,245.4 221.5,236.8 214.8,245.1 221.5,232.4 		
			"/>
	</g>
	<g>
		<polygon style="fill-rule:evenodd;clip-rule:evenodd;fill:#918B4B;" points="267.3,248.4 260.85,239.45 253.85,248.15 
			260.85,234.85 		"/>
	</g>
	<g>
		<polygon style="fill-rule:evenodd;clip-rule:evenodd;fill:#918B4B;" points="303,240.4 297.4,232.65 291.3,240.15 297.4,228.65 		
			"/>
	</g>
	<g>
		<polygon style="fill-rule:evenodd;clip-rule:evenodd;fill:#918B4B;" points="344.2,244.5 341.1,240.15 337.7,244.35 341.1,237.9 
					"/>
	</g>
	<g>
		<polygon style="fill-rule:evenodd;clip-rule:evenodd;fill:#918B4B;" points="385.7,238.45 382.2,233.6 378.4,238.3 382.2,231.05 
					"/>
	</g>
	<g>
		<polygon style="fill-rule:evenodd;clip-rule:evenodd;fill:#918B4B;" points="429.05,242.9 422.6,233.9 415.55,242.65 422.6,229.3 
					"/>
	</g>
	<g>
		<polygon style="fill-rule:evenodd;clip-rule:evenodd;fill:#918B4B;" points="464.25,252.45 458.25,244.05 451.65,252.15 
			458.25,239.7 		"/>
	</g>
	<g>
		<polygon style="fill-rule:evenodd;clip-rule:evenodd;fill:#918B4B;" points="503.7,244.55 497.45,235.85 490.65,244.25 
			497.45,231.35 		"/>
	</g>
	<g>
		<polygon style="fill-rule:evenodd;clip-rule:evenodd;fill:#918B4B;" points="537.25,254.75 533.75,249.85 529.9,254.6 
			533.75,247.3 		"/>
	</g>
	<g>
		<polygon style="fill-rule:evenodd;clip-rule:evenodd;fill:#918B4B;" points="438.1,213.7 432.2,205.5 425.75,213.45 432.2,201.25 
					"/>
	</g>
	<g>
		<polygon style="fill-rule:evenodd;clip-rule:evenodd;fill:#918B4B;" points="526.25,252.05 520.85,244.6 515,251.85 
			520.85,240.75 		"/>
	</g>
	<g>
		<polygon style="fill-rule:evenodd;clip-rule:evenodd;fill:#918B4B;" points="485.15,255.5 478.8,246.7 471.9,255.25 478.8,242.15 
					"/>
	</g>
	<g>
		<polygon style="fill-rule:evenodd;clip-rule:evenodd;fill:#918B4B;" points="439.4,256.15 433.95,248.6 428.05,255.95 
			433.95,244.65 		"/>
	</g>
	<g>
		<polygon style="fill-rule:evenodd;clip-rule:evenodd;fill:#918B4B;" points="400.9,233.1 395.45,239.9 400.9,229.5 405.95,240.1 
					"/>
	</g>
	<g>
		<polygon style="fill-rule:evenodd;clip-rule:evenodd;fill:#918B4B;" points="360.25,251 356.4,245.65 352.2,250.85 356.4,242.9 		
			"/>
	</g>
	<g>
		<polygon style="fill-rule:evenodd;clip-rule:evenodd;fill:#918B4B;" points="317.45,250.25 314.05,245.55 310.35,250.1 
			314.05,243.1 		"/>
	</g>
	<g>
		<polygon style="fill-rule:evenodd;clip-rule:evenodd;fill:#918B4B;" points="254.45,222.35 248,213.4 241,222.1 248,208.75 		"/>
	</g>
	<g>
		<polygon style="fill-rule:evenodd;clip-rule:evenodd;fill:#918B4B;" points="242.75,245.85 236.45,253.6 242.75,241.7 
			248.5,253.85 		"/>
	</g>
	<g>
		<polygon style="fill-rule:evenodd;clip-rule:evenodd;fill:#918B4B;" points="209.55,256.4 204.8,249.75 199.6,256.2 204.8,246.3 
					"/>
	</g>
	<g>
		<polygon style="fill-rule:evenodd;clip-rule:evenodd;fill:#918B4B;" points="174.95,249.25 168.25,239.95 161,248.95 
			168.25,235.15 		"/>
	</g>
	<g>
		<polygon style="fill-rule:evenodd;clip-rule:evenodd;fill:#918B4B;" points="132.95,233.55 129.55,228.8 125.8,233.4 
			129.55,226.35 		"/>
	</g>
	<g>
		<polygon style="fill-rule:evenodd;clip-rule:evenodd;fill:#918B4B;" points="88.95,237.85 85.8,233.45 82.35,237.75 85.8,231.2 		
			"/>
	</g>
	<g>
		<polygon style="fill-rule:evenodd;clip-rule:evenodd;fill:#918B4B;" points="49.85,247.7 43.85,239.4 37.35,247.45 43.85,235.1 		
			"/>
	</g>
	<g>
		<polygon style="fill-rule:evenodd;clip-rule:evenodd;fill:#918B4B;" points="17.75,252 11.05,242.7 3.75,251.7 11.05,237.9 		"/>
	</g>
	<g>
		<polygon style="fill-rule:evenodd;clip-rule:evenodd;fill:#918B4B;" points="36.8,222.05 32.95,216.7 28.8,221.85 32.95,213.95 		
			"/>
	</g>
	<g>
		<polygon style="fill-rule:evenodd;clip-rule:evenodd;fill:#918B4B;" points="74.2,251.4 70.85,246.75 67.2,251.25 70.85,244.35 		
			"/>
	</g>
	<g>
		<polygon style="fill-rule:evenodd;clip-rule:evenodd;fill:#918B4B;" points="65.65,159.6 59.35,150.8 52.5,159.3 59.35,146.3 		
			"/>
	</g>
	<g>
		<polygon style="fill-rule:evenodd;clip-rule:evenodd;fill:#918B4B;" points="14.9,221 10.85,215.35 6.45,220.8 10.85,212.45 		"/>
	</g>
	<g>
		<polygon style="fill-rule:evenodd;clip-rule:evenodd;fill:#918B4B;" points="61.8,222.9 55.65,214.3 48.9,222.6 55.65,209.9 		"/>
	</g>
	<g>
		<polygon style="fill-rule:evenodd;clip-rule:evenodd;fill:#918B4B;" points="104.45,194.85 98.2,186.15 91.4,194.55 98.2,181.65 
					"/>
	</g>
	<g>
		<polygon style="fill-rule:evenodd;clip-rule:evenodd;fill:#918B4B;" points="131.75,195.9 128.15,190.95 124.3,195.75 
			128.15,188.4 		"/>
	</g>
	<g>
		<polygon style="fill-rule:evenodd;clip-rule:evenodd;fill:#918B4B;" points="178.15,207.25 173.8,201.2 169.05,207.05 
			173.8,198.1 		"/>
	</g>
	<g>
		<polygon style="fill-rule:evenodd;clip-rule:evenodd;fill:#918B4B;" points="219.6,197.25 214.15,189.65 208.2,197.05 
			214.15,185.75 		"/>
	</g>
	<g>
		<polygon style="fill-rule:evenodd;clip-rule:evenodd;fill:#918B4B;" points="256.95,198.65 251.5,191.1 245.6,198.4 251.5,187.2 
					"/>
	</g>
	<g>
		<polygon style="fill-rule:evenodd;clip-rule:evenodd;fill:#918B4B;" points="290.3,199.35 287.1,194.95 283.7,199.25 287.1,192.7 
					"/>
	</g>
	<g>
		<polygon style="fill-rule:evenodd;clip-rule:evenodd;fill:#918B4B;" points="396.7,254.4 393.55,249.95 390.1,254.25 
			393.55,247.7 		"/>
	</g>
	<g>
		<polygon style="fill-rule:evenodd;clip-rule:evenodd;fill:#918B4B;" points="200.65,218.05 197.5,213.65 194.05,217.9 
			197.5,211.35 		"/>
	</g>
	<g>
		<polygon style="fill-rule:evenodd;clip-rule:evenodd;fill:#918B4B;" points="333.55,210.45 328.05,202.8 322.1,210.2 
			328.05,198.85 		"/>
	</g>
	<g>
		<polygon style="fill-rule:evenodd;clip-rule:evenodd;fill:#918B4B;" points="370.3,204.05 366.2,198.35 361.7,203.9 366.2,195.4 
					"/>
	</g>
	<g>
		<polygon style="fill-rule:evenodd;clip-rule:evenodd;fill:#918B4B;" points="403.5,208.15 397.4,215.75 403.5,204.1 
			409.15,215.95 		"/>
	</g>
	<g>
		<polygon style="fill-rule:evenodd;clip-rule:evenodd;fill:#918B4B;" points="335.55,183.65 332.15,178.95 328.5,183.5 
			332.15,176.55 		"/>
	</g>
	<g>
		<polygon style="fill-rule:evenodd;clip-rule:evenodd;fill:#918B4B;" points="478.85,232.3 475.5,227.65 471.85,232.15 
			475.5,225.2 		"/>
	</g>
	<g>
		<polygon style="fill-rule:evenodd;clip-rule:evenodd;fill:#918B4B;" points="374.7,181.15 368.65,172.75 362.1,180.85 
			368.65,168.4 		"/>
	</g>
	<g>
		<polygon style="fill-rule:evenodd;clip-rule:evenodd;fill:#918B4B;" points="362,223.2 357.5,216.9 352.6,223 357.5,213.65 		"/>
	</g>
	<g>
		<polygon style="fill-rule:evenodd;clip-rule:evenodd;fill:#918B4B;" points="312.2,220.75 305.5,211.45 298.25,220.45 
			305.5,206.65 		"/>
	</g>
	<g>
		<polygon style="fill-rule:evenodd;clip-rule:evenodd;fill:#918B4B;" points="458.2,229.4 451.5,220.1 444.25,229.1 451.5,215.35 
					"/>
	</g>
	<g>
		<polygon style="fill-rule:evenodd;clip-rule:evenodd;fill:#918B4B;" points="396.15,190.05 392.35,184.75 388.2,189.9 
			392.35,182.05 		"/>
	</g>
	<g>
		<polygon style="fill-rule:evenodd;clip-rule:evenodd;fill:#918B4B;" points="347.3,176.7 344.15,172.3 340.75,176.55 
			344.15,170.05 		"/>
	</g>
	<g>
		<polygon style="fill-rule:evenodd;clip-rule:evenodd;fill:#918B4B;" points="313,184.45 309.6,179.7 305.85,184.3 309.6,177.2 		
			"/>
	</g>
	<g>
		<polygon style="fill-rule:evenodd;clip-rule:evenodd;fill:#918B4B;" points="274.2,178.95 270.75,174.15 267,178.8 270.75,171.65 
					"/>
	</g>
	<g>
		<polygon style="fill-rule:evenodd;clip-rule:evenodd;fill:#918B4B;" points="238.25,166.7 233,159.45 227.35,166.5 233,155.7 		
			"/>
	</g>
	<g>
		<polygon style="fill-rule:evenodd;clip-rule:evenodd;fill:#918B4B;" points="198.4,181.55 193.55,174.8 188.3,181.35 
			193.55,171.35 		"/>
	</g>
	<g>
		<polygon style="fill-rule:evenodd;clip-rule:evenodd;fill:#918B4B;" points="157.45,174.35 150.25,183.25 157.45,169.6 
			164.1,183.55 		"/>
	</g>
	<g>
		<polygon style="fill-rule:evenodd;clip-rule:evenodd;fill:#918B4B;" points="129.45,175.25 122.85,166.1 115.7,175 122.85,161.4 
					"/>
	</g>
	<g>
		<polygon style="fill-rule:evenodd;clip-rule:evenodd;fill:#918B4B;" points="78,174.55 73.65,179.95 78,171.65 82.05,180.15 		"/>
	</g>
	<g>
		<polygon style="fill-rule:evenodd;clip-rule:evenodd;fill:#918B4B;" points="44.65,185.25 41.1,180.3 37.2,185.1 41.1,177.75 		
			"/>
	</g>
	<g>
		<polygon style="fill-rule:evenodd;clip-rule:evenodd;fill:#918B4B;" points="20.15,176.45 14.2,168.15 7.7,176.15 14.2,163.9 		
			"/>
	</g>
	<g>
		<polygon style="fill-rule:evenodd;clip-rule:evenodd;fill:#918B4B;" points="226.85,220.6 221.1,212.6 214.85,220.35 221.1,208.5 
					"/>
	</g>
	<g>
		<polygon style="fill-rule:evenodd;clip-rule:evenodd;fill:#918B4B;" points="34.35,202.05 28.2,193.5 21.5,201.75 28.2,189.05 		
			"/>
	</g>
	<g>
		<polygon style="fill-rule:evenodd;clip-rule:evenodd;fill:#918B4B;" points="38.45,163.95 32.85,156.15 26.75,163.7 32.85,152.15 
					"/>
	</g>
	<g>
		<polygon style="fill-rule:evenodd;clip-rule:evenodd;fill:#918B4B;" points="12.7,140.95 8.85,135.6 4.65,140.8 8.85,132.85 		"/>
	</g>
	<g>
		<polygon style="fill-rule:evenodd;clip-rule:evenodd;fill:#918B4B;" points="62.25,134.25 57.1,127.05 51.45,134 57.1,123.3 		"/>
	</g>
	<g>
		<polygon style="fill-rule:evenodd;clip-rule:evenodd;fill:#918B4B;" points="105.85,153.75 99.7,145.2 93.05,153.5 99.7,140.8 		
			"/>
	</g>
	<g>
		<polygon style="fill-rule:evenodd;clip-rule:evenodd;fill:#918B4B;" points="146.15,146.3 140.2,138.1 133.75,146.05 
			140.2,133.85 		"/>
	</g>
	<g>
		<polygon style="fill-rule:evenodd;clip-rule:evenodd;fill:#918B4B;" points="185.4,146 181.4,140.45 177.05,145.85 181.4,137.6 		
			"/>
	</g>
	<g>
		<polygon style="fill-rule:evenodd;clip-rule:evenodd;fill:#918B4B;" points="228.35,128.35 221.9,119.4 214.9,128.05 
			221.9,114.75 		"/>
	</g>
	<g>
		<polygon style="fill-rule:evenodd;clip-rule:evenodd;fill:#918B4B;" points="259,127.2 255.05,121.7 250.75,127 255.05,118.9 		
			"/>
	</g>
	<g>
		<polygon style="fill-rule:evenodd;clip-rule:evenodd;fill:#918B4B;" points="193.75,125 188.85,118.2 183.55,124.8 188.85,114.7 
					"/>
	</g>
	<g>
		<polygon style="fill-rule:evenodd;clip-rule:evenodd;fill:#918B4B;" points="157.15,218.85 150.85,210.15 144.05,218.6 
			150.85,205.65 		"/>
	</g>
	<g>
		<polygon style="fill-rule:evenodd;clip-rule:evenodd;fill:#918B4B;" points="279.7,220.5 276.45,216 272.9,220.35 276.45,213.65 
					"/>
	</g>
	<g>
		<polygon style="fill-rule:evenodd;clip-rule:evenodd;fill:#918B4B;" points="320.75,161.95 316.2,155.55 311.2,161.75 
			316.2,152.25 		"/>
	</g>
	<g>
		<polygon style="fill-rule:evenodd;clip-rule:evenodd;fill:#918B4B;" points="291.5,142.25 286.55,148.4 291.5,138.95 
			296.05,148.55 		"/>
	</g>
	<g>
		<polygon style="fill-rule:evenodd;clip-rule:evenodd;fill:#918B4B;" points="268.1,154.4 262.2,146.15 255.75,154.15 262.2,141.9 
					"/>
	</g>
	<g>
		<polygon style="fill-rule:evenodd;clip-rule:evenodd;fill:#918B4B;" points="213.45,153.1 209.5,147.6 205.2,152.95 209.5,144.75 
					"/>
	</g>
	<g>
		<polygon style="fill-rule:evenodd;clip-rule:evenodd;fill:#918B4B;" points="185.6,170.85 178.85,161.45 171.5,170.55 
			178.85,156.6 		"/>
	</g>
	<g>
		<polygon style="fill-rule:evenodd;clip-rule:evenodd;fill:#918B4B;" points="206.75,105.3 202.5,99.4 197.9,105.1 202.5,96.35 		
			"/>
	</g>
	<g>
		<polygon style="fill-rule:evenodd;clip-rule:evenodd;fill:#918B4B;" points="160.85,78.3 157.4,82.6 160.85,76.05 164,82.75 		"/>
	</g>
	<g>
		<polygon style="fill-rule:evenodd;clip-rule:evenodd;fill:#918B4B;" points="120.15,79.6 115.7,85.15 120.15,76.65 124.3,85.3 		
			"/>
	</g>
	<g>
		<polygon style="fill-rule:evenodd;clip-rule:evenodd;fill:#918B4B;" points="96,92.8 89.4,83.65 82.2,92.55 89.4,78.9 		"/>
	</g>
	<g>
		<polygon style="fill-rule:evenodd;clip-rule:evenodd;fill:#918B4B;" points="56.8,98.05 51.3,90.4 45.3,97.8 51.3,86.45 		"/>
	</g>
	<g>
		<polygon style="fill-rule:evenodd;clip-rule:evenodd;fill:#918B4B;" points="18.45,93.35 11.6,83.85 4.2,93.05 11.6,78.95 		"/>
	</g>
	<g>
		<polygon style="fill-rule:evenodd;clip-rule:evenodd;fill:#918B4B;" points="48.55,112.65 44.6,107.15 40.3,112.5 44.6,104.35 		
			"/>
	</g>
	<g>
		<polygon style="fill-rule:evenodd;clip-rule:evenodd;fill:#918B4B;" points="14.75,106.4 10.85,100.95 6.55,106.25 10.85,98.1 		
			"/>
	</g>
	<g>
		<polygon style="fill-rule:evenodd;clip-rule:evenodd;fill:#918B4B;" points="25.3,121.75 20.85,115.55 16,121.55 20.85,112.4 		
			"/>
	</g>
	<g>
		<polygon style="fill-rule:evenodd;clip-rule:evenodd;fill:#918B4B;" points="20.7,69.7 17.55,65.35 14.2,69.55 17.55,63.15 		"/>
	</g>
	<g>
		<polygon style="fill-rule:evenodd;clip-rule:evenodd;fill:#918B4B;" points="18.5,46.75 13.85,40.25 8.75,46.55 13.85,36.9 		"/>
	</g>
	<g>
		<polygon style="fill-rule:evenodd;clip-rule:evenodd;fill:#918B4B;" points="34.25,55.6 29.55,49.05 24.45,55.4 29.55,45.7 		"/>
	</g>
	<g>
		<polygon style="fill-rule:evenodd;clip-rule:evenodd;fill:#918B4B;" points="73.25,66.1 66.65,56.95 59.45,65.85 66.65,52.2 		"/>
	</g>
	<g>
		<polygon style="fill-rule:evenodd;clip-rule:evenodd;fill:#918B4B;" points="106.25,64.75 102.5,59.5 98.4,64.55 102.5,56.8 		"/>
	</g>
	<g>
		<polygon style="fill-rule:evenodd;clip-rule:evenodd;fill:#918B4B;" points="80.2,108.85 74.25,116.15 80.2,104.95 85.6,116.4 		
			"/>
	</g>
	<g>
		<polygon style="fill-rule:evenodd;clip-rule:evenodd;fill:#918B4B;" points="161.25,107.7 154.85,98.8 147.9,107.45 154.85,94.2 
					"/>
	</g>
	<g>
		<polygon style="fill-rule:evenodd;clip-rule:evenodd;fill:#918B4B;" points="168.4,133.05 163.5,126.2 158.15,132.85 163.5,122.7 
					"/>
	</g>
	<g>
		<polygon style="fill-rule:evenodd;clip-rule:evenodd;fill:#918B4B;" points="141.8,72.8 136.1,64.9 129.95,72.55 136.1,60.85 		
			"/>
	</g>
	<g>
		<polygon style="fill-rule:evenodd;clip-rule:evenodd;fill:#918B4B;" points="94.9,54.85 90.4,48.6 85.5,54.7 90.4,45.35 		"/>
	</g>
	<g>
		<polygon style="fill-rule:evenodd;clip-rule:evenodd;fill:#918B4B;" points="66.8,45.75 60.85,37.5 54.4,45.5 60.85,33.25 		"/>
	</g>
	<g>
		<polygon style="fill-rule:evenodd;clip-rule:evenodd;fill:#918B4B;" points="51.5,73.15 45.5,64.8 39,72.9 45.5,60.5 		"/>
	</g>
	<g>
		<polygon style="fill-rule:evenodd;clip-rule:evenodd;fill:#918B4B;" points="38.15,28.95 34.35,33.65 38.15,26.45 41.65,33.8 		
			"/>
	</g>
	<g>
		<polygon style="fill-rule:evenodd;clip-rule:evenodd;fill:#918B4B;" points="18.4,24.1 12.2,15.45 5.45,23.85 12.2,11 		"/>
	</g>
</g>
</svg>
