<?xml version="1.0" encoding="iso-8859-1"?>
<!-- Generator: Adobe Illustrator 15.1.0, SVG Export Plug-In . SVG Version: 6.00 Build 0)  -->
<!DOCTYPE svg PUBLIC "-//W3C//DTD SVG 1.1//EN" "http://www.w3.org/Graphics/SVG/1.1/DTD/svg11.dtd">
<svg version="1.1" id="Isolation_Mode" xmlns="http://www.w3.org/2000/svg" xmlns:xlink="http://www.w3.org/1999/xlink" x="0px"
	 y="0px" width="500px" height="100px" viewBox="0 0 500 100" style="enable-background:new 0 0 500 100;" xml:space="preserve">
<g>
	<rect style="fill-rule:evenodd;clip-rule:evenodd;fill:#ABA254;" width="500" height="100"/>
	<g>
		<polygon style="fill-rule:evenodd;clip-rule:evenodd;fill:#918B4B;" points="46.15,90.7 41.9,84.75 37.3,90.5 41.9,81.7 		"/>
	</g>
	<g>
		<polygon style="fill-rule:evenodd;clip-rule:evenodd;fill:#918B4B;" points="76.25,78.7 71.1,71.55 65.55,78.45 71.1,67.85 		"/>
	</g>
	<g>
		<polygon style="fill-rule:evenodd;clip-rule:evenodd;fill:#918B4B;" points="106.9,81.9 102.85,76.25 98.45,81.7 102.85,73.35 		
			"/>
	</g>
	<g>
		<polygon style="fill-rule:evenodd;clip-rule:evenodd;fill:#918B4B;" points="139.35,83.8 134.9,77.6 130.05,83.65 134.9,74.4 		
			"/>
	</g>
	<g>
		<polygon style="fill-rule:evenodd;clip-rule:evenodd;fill:#918B4B;" points="158.8,67.75 153.55,74.25 158.8,64.3 163.6,74.45 		
			"/>
	</g>
	<g>
		<polygon style="fill-rule:evenodd;clip-rule:evenodd;fill:#918B4B;" points="197.2,82.45 194.35,78.5 191.25,82.35 194.35,76.45 
					"/>
	</g>
	<g>
		<polygon style="fill-rule:evenodd;clip-rule:evenodd;fill:#918B4B;" points="230.25,74.4 225.5,67.8 220.35,74.2 225.5,64.4 		"/>
	</g>
	<g>
		<polygon style="fill-rule:evenodd;clip-rule:evenodd;fill:#918B4B;" points="256.85,87.1 252.25,80.75 247.25,86.9 252.25,77.45 
					"/>
	</g>
	<g>
		<polygon style="fill-rule:evenodd;clip-rule:evenodd;fill:#918B4B;" points="278.65,79.75 273.45,72.5 267.75,79.55 273.45,68.7 
					"/>
	</g>
	<g>
		<polygon style="fill-rule:evenodd;clip-rule:evenodd;fill:#918B4B;" points="320.2,79.7 316.1,74 311.65,79.5 316.1,71.05 		"/>
	</g>
	<g>
		<polygon style="fill-rule:evenodd;clip-rule:evenodd;fill:#918B4B;" points="352.75,90.1 347.65,82.95 342.05,89.85 347.65,79.3 
					"/>
	</g>
	<g>
		<polygon style="fill-rule:evenodd;clip-rule:evenodd;fill:#918B4B;" points="382.45,93.6 379.5,89.5 376.3,93.45 379.5,87.4 		"/>
	</g>
	<g>
		<polygon style="fill-rule:evenodd;clip-rule:evenodd;fill:#918B4B;" points="404.95,81.15 402.3,77.45 399.4,81 402.3,75.55 		"/>
	</g>
	<g>
		<polygon style="fill-rule:evenodd;clip-rule:evenodd;fill:#918B4B;" points="438.35,85.2 432.95,77.75 427.15,85 432.95,73.9 		
			"/>
	</g>
	<g>
		<polygon style="fill-rule:evenodd;clip-rule:evenodd;fill:#918B4B;" points="471.45,77 465.85,69.25 459.75,76.75 465.85,65.2 		
			"/>
	</g>
	<g>
		<polygon style="fill-rule:evenodd;clip-rule:evenodd;fill:#918B4B;" points="496.35,89.95 491.65,83.35 486.5,89.7 491.65,79.95 
					"/>
	</g>
	<g>
		<polygon style="fill-rule:evenodd;clip-rule:evenodd;fill:#918B4B;" points="227.8,94.4 222.45,86.95 216.65,94.2 222.45,83.15 		
			"/>
	</g>
	<g>
		<polygon style="fill-rule:evenodd;clip-rule:evenodd;fill:#918B4B;" points="456.35,94.25 453.25,90 449.95,94.15 453.25,87.8 		
			"/>
	</g>
	<g>
		<polygon style="fill-rule:evenodd;clip-rule:evenodd;fill:#918B4B;" points="169.7,93.25 164.45,86 158.8,93 164.45,82.25 		"/>
	</g>
	<g>
		<polygon style="fill-rule:evenodd;clip-rule:evenodd;fill:#918B4B;" points="497.4,60.5 494.45,56.45 491.3,60.35 494.45,54.35 		
			"/>
	</g>
	<g>
		<polygon style="fill-rule:evenodd;clip-rule:evenodd;fill:#918B4B;" points="467.65,55.7 465.05,52.05 462.2,55.6 465.05,50.2 		
			"/>
	</g>
	<g>
		<polygon style="fill-rule:evenodd;clip-rule:evenodd;fill:#918B4B;" points="438.45,65.3 433.85,59 428.95,65.1 433.85,55.7 		"/>
	</g>
	<g>
		<polygon style="fill-rule:evenodd;clip-rule:evenodd;fill:#918B4B;" points="400.95,61.6 396.35,55.15 391.3,61.4 396.35,51.85 		
			"/>
	</g>
	<g>
		<polygon style="fill-rule:evenodd;clip-rule:evenodd;fill:#918B4B;" points="371.25,62.7 367.8,57.85 364,62.55 367.8,55.4 		"/>
	</g>
	<g>
		<polygon style="fill-rule:evenodd;clip-rule:evenodd;fill:#918B4B;" points="347.15,68.2 344.45,64.5 341.6,68.1 344.45,62.6 		
			"/>
	</g>
	<g>
		<polygon style="fill-rule:evenodd;clip-rule:evenodd;fill:#918B4B;" points="321.3,54 318.3,57.7 321.3,52.05 324,57.8 		"/>
	</g>
	<g>
		<polygon style="fill-rule:evenodd;clip-rule:evenodd;fill:#918B4B;" points="294.7,67.85 291.3,63.1 287.55,67.7 291.3,60.65 		
			"/>
	</g>
	<g>
		<polygon style="fill-rule:evenodd;clip-rule:evenodd;fill:#918B4B;" points="262.65,57.15 259.45,52.7 256,57 259.45,50.45 		"/>
	</g>
	<g>
		<polygon style="fill-rule:evenodd;clip-rule:evenodd;fill:#918B4B;" points="218.55,16.1 215.4,11.65 211.95,15.95 215.4,9.4 		
			"/>
	</g>
	<g>
		<polygon style="fill-rule:evenodd;clip-rule:evenodd;fill:#918B4B;" points="234.1,54.75 229.1,47.85 223.65,54.55 229.1,44.25 		
			"/>
	</g>
	<g>
		<polygon style="fill-rule:evenodd;clip-rule:evenodd;fill:#918B4B;" points="199.2,58.1 193.45,65.15 199.2,54.3 204.45,65.4 		
			"/>
	</g>
	<g>
		<polygon style="fill-rule:evenodd;clip-rule:evenodd;fill:#918B4B;" points="179.35,63.15 174.8,56.8 169.8,62.95 174.8,53.5 		
			"/>
	</g>
	<g>
		<polygon style="fill-rule:evenodd;clip-rule:evenodd;fill:#918B4B;" points="145.55,60.5 142.15,55.75 138.4,60.35 142.15,53.3 		
			"/>
	</g>
	<g>
		<polygon style="fill-rule:evenodd;clip-rule:evenodd;fill:#918B4B;" points="491.1,11.25 487.65,6.45 483.95,11.1 487.65,4 		"/>
	</g>
	<g>
		<polygon style="fill-rule:evenodd;clip-rule:evenodd;fill:#918B4B;" points="113.15,53.6 108.4,47 103.25,53.4 108.4,43.55 		"/>
	</g>
	<g>
		<polygon style="fill-rule:evenodd;clip-rule:evenodd;fill:#918B4B;" points="79.3,51.55 76,55.6 79.3,49.4 82.3,55.75 		"/>
	</g>
	<g>
		<polygon style="fill-rule:evenodd;clip-rule:evenodd;fill:#918B4B;" points="13.65,68.1 10.65,63.95 7.4,68 10.65,61.75 		"/>
	</g>
	<g>
		<polygon style="fill-rule:evenodd;clip-rule:evenodd;fill:#918B4B;" points="57.85,62.25 52.35,54.6 46.4,62 52.35,50.65 		"/>
	</g>
	<g>
		<polygon style="fill-rule:evenodd;clip-rule:evenodd;fill:#918B4B;" points="32.7,57.25 28.5,51.45 23.95,57.1 28.5,48.45 		"/>
	</g>
	<g>
		<polygon style="fill-rule:evenodd;clip-rule:evenodd;fill:#918B4B;" points="19.25,38.45 14.85,32.35 10.1,38.25 14.85,29.2 		"/>
	</g>
	<g>
		<polygon style="fill-rule:evenodd;clip-rule:evenodd;fill:#918B4B;" points="38.45,27.2 33.15,33.75 38.45,23.75 43.3,33.95 		"/>
	</g>
	<g>
		<polygon style="fill-rule:evenodd;clip-rule:evenodd;fill:#918B4B;" points="72.2,43.2 66.5,35.25 60.3,42.95 66.5,31.15 		"/>
	</g>
	<g>
		<polygon style="fill-rule:evenodd;clip-rule:evenodd;fill:#918B4B;" points="100.4,35.65 96.7,30.5 92.65,35.5 96.7,27.8 		"/>
	</g>
	<g>
		<polygon style="fill-rule:evenodd;clip-rule:evenodd;fill:#918B4B;" points="130.6,21.1 127.4,16.6 123.85,21 127.4,14.3 		"/>
	</g>
	<g>
		<polygon style="fill-rule:evenodd;clip-rule:evenodd;fill:#918B4B;" points="151.2,45.45 148,41 144.55,45.3 148,38.7 		"/>
	</g>
	<g>
		<polygon style="fill-rule:evenodd;clip-rule:evenodd;fill:#918B4B;" points="193.95,47.75 191.3,44 188.35,47.6 191.3,42.05 		"/>
	</g>
	<g>
		<polygon style="fill-rule:evenodd;clip-rule:evenodd;fill:#918B4B;" points="173.9,38.75 171.25,35 168.3,38.6 171.25,33.05 		"/>
	</g>
	<g>
		<polygon style="fill-rule:evenodd;clip-rule:evenodd;fill:#918B4B;" points="20.2,95.25 17.5,91.5 14.55,95.15 17.5,89.6 		"/>
	</g>
	<g>
		<polygon style="fill-rule:evenodd;clip-rule:evenodd;fill:#918B4B;" points="230.05,31.2 225.95,25.55 221.55,31 225.95,22.6 		
			"/>
	</g>
	<g>
		<polygon style="fill-rule:evenodd;clip-rule:evenodd;fill:#918B4B;" points="256.6,45.3 251.65,38.4 246.25,45.1 251.65,34.85 		
			"/>
	</g>
	<g>
		<polygon style="fill-rule:evenodd;clip-rule:evenodd;fill:#918B4B;" points="288.5,46.95 284.95,41.95 281.05,46.8 284.95,39.4 		
			"/>
	</g>
	<g>
		<polygon style="fill-rule:evenodd;clip-rule:evenodd;fill:#918B4B;" points="315.45,46.7 310.55,39.85 305.2,46.45 310.55,36.35 
					"/>
	</g>
	<g>
		<polygon style="fill-rule:evenodd;clip-rule:evenodd;fill:#918B4B;" points="347.2,44.55 344.2,40.45 340.95,44.45 344.2,38.3 		
			"/>
	</g>
	<g>
		<polygon style="fill-rule:evenodd;clip-rule:evenodd;fill:#918B4B;" points="380.05,38.45 375.35,31.9 370.25,38.2 375.35,28.5 		
			"/>
	</g>
	<g>
		<polygon style="fill-rule:evenodd;clip-rule:evenodd;fill:#918B4B;" points="403.3,38.3 397.6,45.4 403.3,34.55 408.5,45.6 		"/>
	</g>
	<g>
		<polygon style="fill-rule:evenodd;clip-rule:evenodd;fill:#918B4B;" points="431.15,48.5 427.8,43.8 424.15,48.35 427.8,41.4 		
			"/>
	</g>
	<g>
		<polygon style="fill-rule:evenodd;clip-rule:evenodd;fill:#918B4B;" points="456.15,47.7 452.75,43 449.1,47.55 452.75,40.6 		"/>
	</g>
	<g>
		<polygon style="fill-rule:evenodd;clip-rule:evenodd;fill:#918B4B;" points="490.5,46.9 486.15,40.9 481.5,46.7 486.15,37.8 		"/>
	</g>
	<g>
		<polygon style="fill-rule:evenodd;clip-rule:evenodd;fill:#918B4B;" points="30.25,16.95 24.5,8.95 18.25,16.7 24.5,4.85 		"/>
	</g>
	<g>
		<polygon style="fill-rule:evenodd;clip-rule:evenodd;fill:#918B4B;" points="458.9,12.95 455.3,8 451.45,12.8 455.3,5.4 		"/>
	</g>
	<g>
		<polygon style="fill-rule:evenodd;clip-rule:evenodd;fill:#918B4B;" points="302.35,95.85 297.45,89 292.05,95.65 297.45,85.45 		
			"/>
	</g>
	<g>
		<polygon style="fill-rule:evenodd;clip-rule:evenodd;fill:#918B4B;" points="89.35,92.25 86.25,88 82.95,92.1 86.25,85.8 		"/>
	</g>
	<g>
		<polygon style="fill-rule:evenodd;clip-rule:evenodd;fill:#918B4B;" points="482.1,24.45 477.35,17.9 472.2,24.25 477.35,14.5 		
			"/>
	</g>
	<g>
		<polygon style="fill-rule:evenodd;clip-rule:evenodd;fill:#918B4B;" points="449.85,28.8 446.7,24.45 443.35,28.65 446.7,22.25 		
			"/>
	</g>
	<g>
		<polygon style="fill-rule:evenodd;clip-rule:evenodd;fill:#918B4B;" points="424.85,18.15 421.5,13.5 417.85,18 421.5,11.1 		"/>
	</g>
	<g>
		<polygon style="fill-rule:evenodd;clip-rule:evenodd;fill:#918B4B;" points="398.3,17.45 395.5,13.5 392.45,17.3 395.5,11.5 		"/>
	</g>
	<g>
		<polygon style="fill-rule:evenodd;clip-rule:evenodd;fill:#918B4B;" points="370.9,16.85 365.5,9.35 359.65,16.65 365.5,5.5 		"/>
	</g>
	<g>
		<polygon style="fill-rule:evenodd;clip-rule:evenodd;fill:#918B4B;" points="338.95,21.9 333.5,14.35 327.6,21.7 333.5,10.45 		
			"/>
	</g>
	<g>
		<polygon style="fill-rule:evenodd;clip-rule:evenodd;fill:#918B4B;" points="303.65,19.5 298.5,12.4 292.95,19.3 298.5,8.7 		"/>
	</g>
	<g>
		<polygon style="fill-rule:evenodd;clip-rule:evenodd;fill:#918B4B;" points="277.45,27.3 272.5,20.4 267.1,27.1 272.5,16.85 		"/>
	</g>
	<g>
		<polygon style="fill-rule:evenodd;clip-rule:evenodd;fill:#918B4B;" points="253.4,25.85 247.65,17.85 241.45,25.6 247.65,13.75 
					"/>
	</g>
	<g>
		<polygon style="fill-rule:evenodd;clip-rule:evenodd;fill:#918B4B;" points="213.85,40.05 209.95,34.6 205.7,39.85 209.95,31.8 		
			"/>
	</g>
	<g>
		<polygon style="fill-rule:evenodd;clip-rule:evenodd;fill:#918B4B;" points="195.05,23.75 189.65,16.3 183.8,23.55 189.65,12.4 		
			"/>
	</g>
	<g>
		<polygon style="fill-rule:evenodd;clip-rule:evenodd;fill:#918B4B;" points="160.2,20.35 157.05,15.95 153.65,20.2 157.05,13.7 		
			"/>
	</g>
	<g>
		<polygon style="fill-rule:evenodd;clip-rule:evenodd;fill:#918B4B;" points="140.25,35.55 136.1,29.75 131.55,35.35 136.1,26.75 
					"/>
	</g>
	<g>
		<polygon style="fill-rule:evenodd;clip-rule:evenodd;fill:#918B4B;" points="106.55,19.1 103.3,14.6 99.8,18.95 103.3,12.25 		"/>
	</g>
	<g>
		<polygon style="fill-rule:evenodd;clip-rule:evenodd;fill:#918B4B;" points="77.15,19.2 71.5,11.35 65.4,18.95 71.5,7.3 		"/>
	</g>
	<g>
		<polygon style="fill-rule:evenodd;clip-rule:evenodd;fill:#918B4B;" points="48.5,23.3 45.05,18.5 41.3,23.15 45.05,16 		"/>
	</g>
	<g>
		<polygon style="fill-rule:evenodd;clip-rule:evenodd;fill:#918B4B;" points="14.3,26.05 10.7,21.1 6.85,25.9 10.7,18.55 		"/>
	</g>
</g>
</svg>
