<?xml version="1.0" encoding="iso-8859-1"?>
<!-- Generator: Adobe Illustrator 15.1.0, SVG Export Plug-In . SVG Version: 6.00 Build 0)  -->
<!DOCTYPE svg PUBLIC "-//W3C//DTD SVG 1.1//EN" "http://www.w3.org/Graphics/SVG/1.1/DTD/svg11.dtd">
<svg version="1.1" id="ground_x5F_back_x5F_top_x5F_01.ai"
	 xmlns="http://www.w3.org/2000/svg" xmlns:xlink="http://www.w3.org/1999/xlink" x="0px" y="0px" width="500px" height="92.8px"
	 viewBox="0 0 500 92.8" style="enable-background:new 0 0 500 92.8;" xml:space="preserve">
<g>
	<g>
		<path style="fill-rule:evenodd;clip-rule:evenodd;fill:#BCB472;" d="M500,22.75V92.8H0c11.267-11.133,23.05-22.45,35.35-33.95
			c24.6-23.066,39.55-35.6,44.85-37.6c25.6-9.7,56.75-16.1,93.45-19.2c30.733-2.633,61.083-2.733,91.05-0.3
			c2.233,0.167,12.066,1.45,29.5,3.85c20.866,2.9,39.45,5.3,55.75,7.2C407.184,19.433,457.2,22.75,500,22.75z"/>
	</g>
	<g>
		<polygon style="fill-rule:evenodd;clip-rule:evenodd;fill:#B3AB64;" points="45.4,82.7 41.85,77.75 38,82.55 41.85,75.2 		"/>
	</g>
	<g>
		<polygon style="fill-rule:evenodd;clip-rule:evenodd;fill:#B3AB64;" points="75.35,70.55 71.05,64.6 66.4,70.35 71.05,61.5 		"/>
	</g>
	<g>
		<polygon style="fill-rule:evenodd;clip-rule:evenodd;fill:#B3AB64;" points="106.15,73.95 102.8,69.25 99.15,73.8 102.8,66.85 		
			"/>
	</g>
	<g>
		<polygon style="fill-rule:evenodd;clip-rule:evenodd;fill:#B3AB64;" points="138.6,75.8 134.9,70.65 130.85,75.65 134.9,67.95 		
			"/>
	</g>
	<g>
		<polygon style="fill-rule:evenodd;clip-rule:evenodd;fill:#B3AB64;" points="158.75,60.8 154.4,66.2 158.75,57.9 162.75,66.35 		
			"/>
	</g>
	<g>
		<polygon style="fill-rule:evenodd;clip-rule:evenodd;fill:#B3AB64;" points="196.7,74.7 194.35,71.4 191.75,74.6 194.35,69.7 		
			"/>
	</g>
	<g>
		<polygon style="fill-rule:evenodd;clip-rule:evenodd;fill:#B3AB64;" points="229.4,66.35 225.45,60.85 221.2,66.15 225.45,58 		
			"/>
	</g>
	<g>
		<polygon style="fill-rule:evenodd;clip-rule:evenodd;fill:#B3AB64;" points="256.05,79.1 252.2,73.75 248.05,78.9 252.2,71.05 		
			"/>
	</g>
	<g>
		<polygon style="fill-rule:evenodd;clip-rule:evenodd;fill:#B3AB64;" points="277.75,71.6 273.4,65.55 268.65,71.4 273.4,62.4 		
			"/>
	</g>
	<g>
		<polygon style="fill-rule:evenodd;clip-rule:evenodd;fill:#B3AB64;" points="319.45,71.75 316.05,67 312.35,71.6 316.05,64.55 		
			"/>
	</g>
	<g>
		<polygon style="fill-rule:evenodd;clip-rule:evenodd;fill:#B3AB64;" points="351.85,81.95 347.6,76 342.95,81.75 347.6,72.95 		
			"/>
	</g>
	<g>
		<polygon style="fill-rule:evenodd;clip-rule:evenodd;fill:#B3AB64;" points="381.9,85.85 379.45,82.45 376.8,85.75 379.45,80.7 		
			"/>
	</g>
	<g>
		<polygon style="fill-rule:evenodd;clip-rule:evenodd;fill:#B3AB64;" points="404.45,73.45 402.25,70.35 399.85,73.35 402.25,68.8 
					"/>
	</g>
	<g>
		<polygon style="fill-rule:evenodd;clip-rule:evenodd;fill:#B3AB64;" points="437.4,77.05 432.95,70.8 428.05,76.85 432.95,67.6 		
			"/>
	</g>
	<g>
		<polygon style="fill-rule:evenodd;clip-rule:evenodd;fill:#B3AB64;" points="470.45,68.8 465.8,62.3 460.75,68.6 465.8,58.95 		
			"/>
	</g>
	<g>
		<polygon style="fill-rule:evenodd;clip-rule:evenodd;fill:#B3AB64;" points="495.55,81.85 491.6,76.4 487.3,81.7 491.6,73.55 		
			"/>
	</g>
	<g>
		<polygon style="fill-rule:evenodd;clip-rule:evenodd;fill:#B3AB64;" points="226.9,86.25 222.4,80.05 217.55,86.05 222.4,76.85 		
			"/>
	</g>
	<g>
		<polygon style="fill-rule:evenodd;clip-rule:evenodd;fill:#B3AB64;" points="455.8,86.5 453.25,82.95 450.45,86.4 453.25,81.1 		
			"/>
	</g>
	<g>
		<polygon style="fill-rule:evenodd;clip-rule:evenodd;fill:#B3AB64;" points="168.75,85.1 164.4,79.05 159.7,84.9 164.4,75.9 		"/>
	</g>
	<g>
		<polygon style="fill-rule:evenodd;clip-rule:evenodd;fill:#B3AB64;" points="496.9,52.75 494.45,49.35 491.8,52.65 494.45,47.6 		
			"/>
	</g>
	<g>
		<polygon style="fill-rule:evenodd;clip-rule:evenodd;fill:#B3AB64;" points="467.2,48.05 465,45 462.65,47.95 465,43.4 		"/>
	</g>
	<g>
		<polygon style="fill-rule:evenodd;clip-rule:evenodd;fill:#B3AB64;" points="475.15,30.8 472.95,27.75 470.6,30.7 472.95,26.15 		
			"/>
	</g>
	<g>
		<polygon style="fill-rule:evenodd;clip-rule:evenodd;fill:#B3AB64;" points="437.65,57.3 433.85,52 429.7,57.1 433.85,49.3 		"/>
	</g>
	<g>
		<polygon style="fill-rule:evenodd;clip-rule:evenodd;fill:#B3AB64;" points="443.65,30.8 439.85,25.5 435.7,30.6 439.85,22.8 		
			"/>
	</g>
	<g>
		<polygon style="fill-rule:evenodd;clip-rule:evenodd;fill:#B3AB64;" points="400.15,53.55 396.3,48.2 392.1,53.4 396.3,45.45 		
			"/>
	</g>
	<g>
		<polygon style="fill-rule:evenodd;clip-rule:evenodd;fill:#B3AB64;" points="370.65,54.85 367.75,50.8 364.6,54.7 367.75,48.75 		
			"/>
	</g>
	<g>
		<polygon style="fill-rule:evenodd;clip-rule:evenodd;fill:#B3AB64;" points="346.65,60.5 344.45,57.4 342.05,60.4 344.45,55.85 		
			"/>
	</g>
	<g>
		<polygon style="fill-rule:evenodd;clip-rule:evenodd;fill:#B3AB64;" points="323.55,50.1 321.25,46.95 318.75,50 321.25,45.3 		
			"/>
	</g>
	<g>
		<polygon style="fill-rule:evenodd;clip-rule:evenodd;fill:#B3AB64;" points="294.1,60.05 291.25,56.05 288.15,59.9 291.25,54.05 
					"/>
	</g>
	<g>
		<polygon style="fill-rule:evenodd;clip-rule:evenodd;fill:#B3AB64;" points="262.1,49.35 259.45,45.65 256.55,49.2 259.45,43.75 
					"/>
	</g>
	<g>
		<polygon style="fill-rule:evenodd;clip-rule:evenodd;fill:#B3AB64;" points="218,8.3 215.35,4.6 212.5,8.15 215.35,2.7 		"/>
	</g>
	<g>
		<polygon style="fill-rule:evenodd;clip-rule:evenodd;fill:#B3AB64;" points="233.2,46.65 229.05,40.85 224.55,46.5 229.05,37.9 		
			"/>
	</g>
	<g>
		<polygon style="fill-rule:evenodd;clip-rule:evenodd;fill:#B3AB64;" points="199.15,51.15 194.4,57.05 199.15,48 203.55,57.25 		
			"/>
	</g>
	<g>
		<polygon style="fill-rule:evenodd;clip-rule:evenodd;fill:#B3AB64;" points="178.55,55.1 174.75,49.8 170.6,54.95 174.75,47.1 		
			"/>
	</g>
	<g>
		<polygon style="fill-rule:evenodd;clip-rule:evenodd;fill:#B3AB64;" points="144.95,52.7 142.1,48.7 139,52.55 142.1,46.7 		"/>
	</g>
	<g>
		<polygon style="fill-rule:evenodd;clip-rule:evenodd;fill:#B3AB64;" points="417.45,89.9 414.65,85.95 411.55,89.75 414.65,83.9 
					"/>
	</g>
	<g>
		<polygon style="fill-rule:evenodd;clip-rule:evenodd;fill:#B3AB64;" points="112.3,45.5 108.35,40 104.05,45.35 108.35,37.2 		"/>
	</g>
	<g>
		<polygon style="fill-rule:evenodd;clip-rule:evenodd;fill:#B3AB64;" points="79.25,44.5 76.5,47.9 79.25,42.7 81.75,48 		"/>
	</g>
	<g>
		<polygon style="fill-rule:evenodd;clip-rule:evenodd;fill:#B3AB64;" points="384.5,44.75 381.95,41.25 379.25,44.6 381.95,39.45 
					"/>
	</g>
	<g>
		<polygon style="fill-rule:evenodd;clip-rule:evenodd;fill:#B3AB64;" points="56.9,54.05 52.3,47.65 47.35,53.85 52.3,44.35 		"/>
	</g>
	<g>
		<polygon style="fill-rule:evenodd;clip-rule:evenodd;fill:#B3AB64;" points="151.95,91.6 148.45,86.75 144.65,91.45 148.45,84.25 
					"/>
	</g>
	<g>
		<polygon style="fill-rule:evenodd;clip-rule:evenodd;fill:#B3AB64;" points="364.45,87.25 360.5,92.15 364.45,84.6 368.1,92.3 		
			"/>
	</g>
	<g>
		<polygon style="fill-rule:evenodd;clip-rule:evenodd;fill:#B3AB64;" points="35,90.85 30.95,85.25 26.6,90.7 30.95,82.35 		"/>
	</g>
	<g>
		<polygon style="fill-rule:evenodd;clip-rule:evenodd;fill:#B3AB64;" points="80.25,36.85 75.45,30.25 70.3,36.65 75.45,26.8 		"/>
	</g>
	<g>
		<polygon style="fill-rule:evenodd;clip-rule:evenodd;fill:#B3AB64;" points="99.75,27.75 96.65,23.45 93.3,27.65 96.65,21.25 		
			"/>
	</g>
	<g>
		<polygon style="fill-rule:evenodd;clip-rule:evenodd;fill:#B3AB64;" points="129.05,17.3 126.35,13.55 123.4,17.2 126.35,11.65 		
			"/>
	</g>
	<g>
		<polygon style="fill-rule:evenodd;clip-rule:evenodd;fill:#B3AB64;" points="150.65,37.65 148,33.95 145.1,37.5 148,32.05 		"/>
	</g>
	<g>
		<polygon style="fill-rule:evenodd;clip-rule:evenodd;fill:#B3AB64;" points="193.5,40.05 191.25,36.9 188.8,39.95 191.25,35.3 		
			"/>
	</g>
	<g>
		<polygon style="fill-rule:evenodd;clip-rule:evenodd;fill:#B3AB64;" points="173.45,31.05 171.2,27.9 168.8,30.95 171.2,26.3 		
			"/>
	</g>
	<g>
		<polygon style="fill-rule:evenodd;clip-rule:evenodd;fill:#B3AB64;" points="19.7,87.55 17.45,84.45 15.05,87.45 17.45,82.85 		
			"/>
	</g>
	<g>
		<polygon style="fill-rule:evenodd;clip-rule:evenodd;fill:#B3AB64;" points="229.3,23.25 225.95,18.5 222.25,23.1 225.95,16.1 		
			"/>
	</g>
	<g>
		<polygon style="fill-rule:evenodd;clip-rule:evenodd;fill:#B3AB64;" points="255.7,37.2 251.6,31.45 247.1,37 251.6,28.5 		"/>
	</g>
	<g>
		<polygon style="fill-rule:evenodd;clip-rule:evenodd;fill:#B3AB64;" points="287.85,39.05 284.9,34.95 281.65,38.95 284.9,32.8 		
			"/>
	</g>
	<g>
		<polygon style="fill-rule:evenodd;clip-rule:evenodd;fill:#B3AB64;" points="314.55,38.6 310.5,32.9 306.05,38.4 310.5,29.95 		
			"/>
	</g>
	<g>
		<polygon style="fill-rule:evenodd;clip-rule:evenodd;fill:#B3AB64;" points="346.65,36.8 344.2,33.35 341.5,36.7 344.2,31.6 		"/>
	</g>
	<g>
		<polygon style="fill-rule:evenodd;clip-rule:evenodd;fill:#B3AB64;" points="379.25,30.35 375.3,24.9 371.05,30.2 375.3,22.1 		
			"/>
	</g>
	<g>
		<polygon style="fill-rule:evenodd;clip-rule:evenodd;fill:#B3AB64;" points="403.25,31.4 398.5,37.25 403.25,28.25 407.6,37.45 		
			"/>
	</g>
	<g>
		<polygon style="fill-rule:evenodd;clip-rule:evenodd;fill:#B3AB64;" points="430.55,40.65 427.75,36.75 424.75,40.55 
			427.75,34.75 		"/>
	</g>
	<g>
		<polygon style="fill-rule:evenodd;clip-rule:evenodd;fill:#B3AB64;" points="455.55,39.9 452.75,35.95 449.7,39.75 452.75,33.95 
					"/>
	</g>
	<g>
		<polygon style="fill-rule:evenodd;clip-rule:evenodd;fill:#B3AB64;" points="489.75,38.9 486.15,33.9 482.25,38.75 486.15,31.35 
					"/>
	</g>
	<g>
		<polygon style="fill-rule:evenodd;clip-rule:evenodd;fill:#B3AB64;" points="129.75,62.4 124.95,55.75 119.75,62.2 124.95,52.3 		
			"/>
	</g>
	<g>
		<polygon style="fill-rule:evenodd;clip-rule:evenodd;fill:#B3AB64;" points="330.95,91.4 327.95,87.25 324.75,91.25 327.95,85.1 
					"/>
	</g>
	<g>
		<polygon style="fill-rule:evenodd;clip-rule:evenodd;fill:#B3AB64;" points="301.5,87.75 297.4,82 292.9,87.55 297.4,79.05 		"/>
	</g>
	<g>
		<polygon style="fill-rule:evenodd;clip-rule:evenodd;fill:#B3AB64;" points="88.8,84.5 86.25,80.95 83.45,84.35 86.25,79.1 		"/>
	</g>
	<g>
		<polygon style="fill-rule:evenodd;clip-rule:evenodd;fill:#B3AB64;" points="478.25,89.4 474.3,83.9 470.05,89.2 474.3,81.1 		"/>
	</g>
	<g>
		<polygon style="fill-rule:evenodd;clip-rule:evenodd;fill:#B3AB64;" points="198.55,88.35 195.95,84.75 193.15,88.25 195.95,82.9 
					"/>
	</g>
	<g>
		<polygon style="fill-rule:evenodd;clip-rule:evenodd;fill:#B3AB64;" points="381.25,68.6 378.45,64.75 375.45,68.5 378.45,62.75 
					"/>
	</g>
	<g>
		<polygon style="fill-rule:evenodd;clip-rule:evenodd;fill:#B3AB64;" points="361.3,24 358.95,20.75 356.4,23.9 358.95,19.05 		"/>
	</g>
	<g>
		<polygon style="fill-rule:evenodd;clip-rule:evenodd;fill:#B3AB64;" points="278.95,89 274.45,82.75 269.6,88.8 274.45,79.5 		"/>
	</g>
	<g>
		<polygon style="fill-rule:evenodd;clip-rule:evenodd;fill:#B3AB64;" points="337.5,25.05 332.95,18.75 328.05,24.85 332.95,15.5 
					"/>
	</g>
	<g>
		<polygon style="fill-rule:evenodd;clip-rule:evenodd;fill:#B3AB64;" points="302.75,20.9 298.45,14.95 293.8,20.7 298.45,11.85 		
			"/>
	</g>
	<g>
		<polygon style="fill-rule:evenodd;clip-rule:evenodd;fill:#B3AB64;" points="276.6,19.2 272.45,13.45 268,19 272.45,10.45 		"/>
	</g>
	<g>
		<polygon style="fill-rule:evenodd;clip-rule:evenodd;fill:#B3AB64;" points="252.4,17.6 247.6,10.95 242.45,17.4 247.6,7.5 		"/>
	</g>
	<g>
		<polygon style="fill-rule:evenodd;clip-rule:evenodd;fill:#B3AB64;" points="213.15,32.1 209.9,27.6 206.35,32 209.9,25.25 		"/>
	</g>
	<g>
		<polygon style="fill-rule:evenodd;clip-rule:evenodd;fill:#B3AB64;" points="194.1,15.6 189.65,9.35 184.75,15.4 189.65,6.15 		
			"/>
	</g>
	<g>
		<polygon style="fill-rule:evenodd;clip-rule:evenodd;fill:#B3AB64;" points="159.65,12.55 157.05,8.9 154.2,12.45 157.05,7.05 		
			"/>
	</g>
	<g>
		<polygon style="fill-rule:evenodd;clip-rule:evenodd;fill:#B3AB64;" points="139.55,27.55 136.05,22.75 132.3,27.4 136.05,20.25 
					"/>
	</g>
	<g>
		<polygon style="fill-rule:evenodd;clip-rule:evenodd;fill:#B3AB64;" points="126.15,90 123.45,86.25 120.55,89.9 123.45,84.3 		
			"/>
	</g>
	<g>
		<polygon style="fill-rule:evenodd;clip-rule:evenodd;fill:#B3AB64;" points="100.65,59.95 95.95,53.45 90.85,59.75 95.95,50.1 		
			"/>
	</g>
	<g>
		<polygon style="fill-rule:evenodd;clip-rule:evenodd;fill:#B3AB64;" points="69.85,89.25 66.95,85.25 63.85,89.1 66.95,83.15 		
			"/>
	</g>
	<g>
		<polygon style="fill-rule:evenodd;clip-rule:evenodd;fill:#B3AB64;" points="39.95,63.25 36.75,67.25 39.95,61.1 42.95,67.35 		
			"/>
	</g>
</g>
</svg>
