<?xml version="1.0" encoding="iso-8859-1"?>
<!-- Generator: Adobe Illustrator 15.1.0, SVG Export Plug-In . SVG Version: 6.00 Build 0)  -->
<!DOCTYPE svg PUBLIC "-//W3C//DTD SVG 1.1//EN" "http://www.w3.org/Graphics/SVG/1.1/DTD/svg11.dtd">
<svg version="1.1" id="front_ground_2" xmlns="http://www.w3.org/2000/svg" xmlns:xlink="http://www.w3.org/1999/xlink" x="0px"
	 y="0px" width="521.1px" height="62.5px" viewBox="0 0 521.1 62.5" style="enable-background:new 0 0 521.1 62.5;"
	 xml:space="preserve">
<g>
	<path style="fill-rule:evenodd;clip-rule:evenodd;fill:#ABA254;" d="M521.075,62.5H0c5.5-0.4,12.8-1.65,21.9-3.75
		C40.067,54.583,58.1,48.333,76,40c29.267-13.633,60.317-24.033,93.15-31.2C211.483-0.467,249.767-2.4,284,3
		c28.033,4.433,60.7,13.9,98,28.4c22.767,8.833,35.85,13.85,39.25,15.05c13.6,4.833,25.184,8.017,34.75,9.55
		c18.333,2.934,35.5,4.9,51.5,5.9C512.839,62.233,517.363,62.434,521.075,62.5z"/>
	<g>
		<polygon style="fill-rule:evenodd;clip-rule:evenodd;fill:#918B4B;" points="345.85,48.25 350.35,38.75 355.25,48.05 350.35,42 		
			"/>
	</g>
	<g>
		<polygon style="fill-rule:evenodd;clip-rule:evenodd;fill:#918B4B;" points="294.15,20.75 299,10.5 304.35,20.55 299,14 		"/>
	</g>
	<g>
		<polygon style="fill-rule:evenodd;clip-rule:evenodd;fill:#918B4B;" points="302.6,50.35 307.7,39.65 313.2,50.15 307.7,43.3 		
			"/>
	</g>
	<g>
		<polygon style="fill-rule:evenodd;clip-rule:evenodd;fill:#918B4B;" points="222.05,24.35 225.7,16.7 229.65,24.2 225.7,19.3 		
			"/>
	</g>
	<g>
		<polygon style="fill-rule:evenodd;clip-rule:evenodd;fill:#918B4B;" points="188.9,20.55 193.65,10.55 198.85,20.35 193.65,13.95 
					"/>
	</g>
	<g>
		<polygon style="fill-rule:evenodd;clip-rule:evenodd;fill:#918B4B;" points="141.95,28.25 145,21.8 148.35,28.1 145,24 		"/>
	</g>
	<g>
		<polygon style="fill-rule:evenodd;clip-rule:evenodd;fill:#918B4B;" points="165.15,41.4 170.35,30.4 176.05,41.15 170.35,34.15 
					"/>
	</g>
	<g>
		<polygon style="fill-rule:evenodd;clip-rule:evenodd;fill:#918B4B;" points="85.15,49.9 90.35,38.9 96.05,49.65 90.35,42.65 		"/>
	</g>
	<g>
		<polygon style="fill-rule:evenodd;clip-rule:evenodd;fill:#918B4B;" points="101,57.7 103.7,52.05 106.6,57.55 103.7,54 		"/>
	</g>
	<g>
		<polygon style="fill-rule:evenodd;clip-rule:evenodd;fill:#918B4B;" points="167.7,55.7 170.35,50.05 173.25,55.55 170.35,52 		
			"/>
	</g>
	<g>
		<polygon style="fill-rule:evenodd;clip-rule:evenodd;fill:#918B4B;" points="108.6,38.5 111.7,32 115.05,38.4 111.7,34.2 		"/>
	</g>
	<g>
		<polygon style="fill-rule:evenodd;clip-rule:evenodd;fill:#918B4B;" points="329,55.3 332.1,48.75 335.5,55.15 332.1,51 		"/>
	</g>
	<g>
		<polygon style="fill-rule:evenodd;clip-rule:evenodd;fill:#918B4B;" points="217.9,57.2 221,50.65 224.4,57.05 221,52.85 		"/>
	</g>
	<g>
		<polygon style="fill-rule:evenodd;clip-rule:evenodd;fill:#918B4B;" points="366.35,55.3 363.6,59.1 366.35,53.35 369.35,59 		"/>
	</g>
	<g>
		<polygon style="fill-rule:evenodd;clip-rule:evenodd;fill:#918B4B;" points="44.3,61.8 47,56 50,61.65 47,58 		"/>
	</g>
	<g>
		<polygon style="fill-rule:evenodd;clip-rule:evenodd;fill:#918B4B;" points="70.3,53.8 73,48 76,53.65 73,50 		"/>
	</g>
	<g>
		<polygon style="fill-rule:evenodd;clip-rule:evenodd;fill:#918B4B;" points="414.65,58.75 417.4,53 420.35,58.65 417.4,54.95 		
			"/>
	</g>
	<g>
		<polygon style="fill-rule:evenodd;clip-rule:evenodd;fill:#918B4B;" points="260.95,53.65 265,45.05 269.45,53.5 265,48 		"/>
	</g>
	<g>
		<polygon style="fill-rule:evenodd;clip-rule:evenodd;fill:#918B4B;" points="395.85,55.6 400.35,46.05 405.25,55.4 400.35,49.3 		
			"/>
	</g>
	<g>
		<polygon style="fill-rule:evenodd;clip-rule:evenodd;fill:#918B4B;" points="373.3,48.9 376.35,42.45 379.7,48.75 376.35,44.65 		
			"/>
	</g>
	<g>
		<polygon style="fill-rule:evenodd;clip-rule:evenodd;fill:#918B4B;" points="360.6,35.55 363.7,29.1 367,35.45 363.7,31.3 		"/>
	</g>
	<g>
		<polygon style="fill-rule:evenodd;clip-rule:evenodd;fill:#918B4B;" points="430.8,59.3 433.7,53.25 436.85,59.2 433.7,55.3 		"/>
	</g>
	<g>
		<polygon style="fill-rule:evenodd;clip-rule:evenodd;fill:#918B4B;" points="124.8,39.3 127.7,33.25 130.85,39.2 127.7,35.3 		"/>
	</g>
	<g>
		<polygon style="fill-rule:evenodd;clip-rule:evenodd;fill:#918B4B;" points="228.8,11.3 231.7,5.25 234.85,11.2 231.7,7.3 		"/>
	</g>
	<g>
		<polygon style="fill-rule:evenodd;clip-rule:evenodd;fill:#918B4B;" points="325.55,34.7 330.35,24.5 335.6,34.5 330.35,28 		"/>
	</g>
	<g>
		<polygon style="fill-rule:evenodd;clip-rule:evenodd;fill:#918B4B;" points="249.7,19.8 254.35,9.95 259.45,19.6 254.35,13.3 		
			"/>
	</g>
	<g>
		<polygon style="fill-rule:evenodd;clip-rule:evenodd;fill:#918B4B;" points="269.65,38.5 274.35,28.6 279.45,38.3 274.35,32 		"/>
	</g>
	<g>
		<polygon style="fill-rule:evenodd;clip-rule:evenodd;fill:#918B4B;" points="139.65,56.5 144.35,46.6 149.45,56.3 144.35,50 		"/>
	</g>
	<g>
		<polygon style="fill-rule:evenodd;clip-rule:evenodd;fill:#918B4B;" points="233.9,49.05 238.85,38.55 244.25,48.85 238.85,42.15 
					"/>
	</g>
	<g>
		<polygon style="fill-rule:evenodd;clip-rule:evenodd;fill:#918B4B;" points="191.5,50.15 197.15,38.25 203.3,49.95 197.15,42.3 		
			"/>
	</g>
</g>
</svg>
