<?xml version="1.0" encoding="iso-8859-1"?>
<!-- Generator: Adobe Illustrator 15.1.0, SVG Export Plug-In . SVG Version: 6.00 Build 0)  -->
<!DOCTYPE svg PUBLIC "-//W3C//DTD SVG 1.1//EN" "http://www.w3.org/Graphics/SVG/1.1/DTD/svg11.dtd">
<svg version="1.1" id="ground_x5F_back_x5F_top_x5F_03.ai"
	 xmlns="http://www.w3.org/2000/svg" xmlns:xlink="http://www.w3.org/1999/xlink" x="0px" y="0px" width="500px" height="70.05px"
	 viewBox="0 0 500 70.05" style="enable-background:new 0 0 500 70.05;" xml:space="preserve">
<g>
	<g>
		<path style="fill-rule:evenodd;clip-rule:evenodd;fill:#BCB472;" d="M500,30v40.05H0V0c14.633,0,44.333,1.25,89.1,3.75
			c44.6,2.533,79.283,3.783,104.05,3.75c34.867,0,91.517,3.75,169.95,11.25c51.034,4.867,78.117,7.45,81.25,7.75
			C470.75,28.833,489.3,30,500,30z"/>
	</g>
	<g>
		<polygon style="fill-rule:evenodd;clip-rule:evenodd;fill:#B3AB64;" points="45.4,59.95 41.85,55 38,59.8 41.85,52.45 		"/>
	</g>
	<g>
		<polygon style="fill-rule:evenodd;clip-rule:evenodd;fill:#B3AB64;" points="75.35,47.8 71.05,41.85 66.4,47.6 71.05,38.75 		"/>
	</g>
	<g>
		<polygon style="fill-rule:evenodd;clip-rule:evenodd;fill:#B3AB64;" points="106.15,51.2 102.8,46.5 99.15,51.05 102.8,44.1 		"/>
	</g>
	<g>
		<polygon style="fill-rule:evenodd;clip-rule:evenodd;fill:#B3AB64;" points="138.6,53.05 134.9,47.9 130.85,52.9 134.9,45.2 		"/>
	</g>
	<g>
		<polygon style="fill-rule:evenodd;clip-rule:evenodd;fill:#B3AB64;" points="158.75,38.05 154.4,43.45 158.75,35.15 162.75,43.6 
					"/>
	</g>
	<g>
		<polygon style="fill-rule:evenodd;clip-rule:evenodd;fill:#B3AB64;" points="196.7,51.95 194.35,48.65 191.75,51.85 194.35,46.95 
					"/>
	</g>
	<g>
		<polygon style="fill-rule:evenodd;clip-rule:evenodd;fill:#B3AB64;" points="229.4,43.6 225.45,38.1 221.2,43.4 225.45,35.25 		
			"/>
	</g>
	<g>
		<polygon style="fill-rule:evenodd;clip-rule:evenodd;fill:#B3AB64;" points="256.05,56.35 252.2,51 248.05,56.15 252.2,48.3 		"/>
	</g>
	<g>
		<polygon style="fill-rule:evenodd;clip-rule:evenodd;fill:#B3AB64;" points="277.75,48.85 273.4,42.8 268.65,48.65 273.4,39.65 		
			"/>
	</g>
	<g>
		<polygon style="fill-rule:evenodd;clip-rule:evenodd;fill:#B3AB64;" points="319.45,49 316.05,44.25 312.35,48.85 316.05,41.8 		
			"/>
	</g>
	<g>
		<polygon style="fill-rule:evenodd;clip-rule:evenodd;fill:#B3AB64;" points="351.85,59.2 347.6,53.25 342.95,59 347.6,50.2 		"/>
	</g>
	<g>
		<polygon style="fill-rule:evenodd;clip-rule:evenodd;fill:#B3AB64;" points="381.9,63.1 379.45,59.7 376.8,63 379.45,57.95 		"/>
	</g>
	<g>
		<polygon style="fill-rule:evenodd;clip-rule:evenodd;fill:#B3AB64;" points="404.45,50.7 402.25,47.6 399.85,50.6 402.25,46.05 		
			"/>
	</g>
	<g>
		<polygon style="fill-rule:evenodd;clip-rule:evenodd;fill:#B3AB64;" points="437.4,54.3 432.95,48.05 428.05,54.1 432.95,44.85 		
			"/>
	</g>
	<g>
		<polygon style="fill-rule:evenodd;clip-rule:evenodd;fill:#B3AB64;" points="470.45,46.05 465.8,39.55 460.75,45.85 465.8,36.2 		
			"/>
	</g>
	<g>
		<polygon style="fill-rule:evenodd;clip-rule:evenodd;fill:#B3AB64;" points="495.55,59.1 491.6,53.65 487.3,58.95 491.6,50.8 		
			"/>
	</g>
	<g>
		<polygon style="fill-rule:evenodd;clip-rule:evenodd;fill:#B3AB64;" points="226.9,63.5 222.4,57.3 217.55,63.3 222.4,54.1 		"/>
	</g>
	<g>
		<polygon style="fill-rule:evenodd;clip-rule:evenodd;fill:#B3AB64;" points="455.8,63.75 453.25,60.2 450.45,63.65 453.25,58.35 
					"/>
	</g>
	<g>
		<polygon style="fill-rule:evenodd;clip-rule:evenodd;fill:#B3AB64;" points="168.75,62.35 164.4,56.3 159.7,62.15 164.4,53.15 		
			"/>
	</g>
	<g>
		<polygon style="fill-rule:evenodd;clip-rule:evenodd;fill:#B3AB64;" points="493.4,38.35 490.95,35 488.35,38.25 490.95,33.25 		
			"/>
	</g>
	<g>
		<polygon style="fill-rule:evenodd;clip-rule:evenodd;fill:#B3AB64;" points="427.65,68.05 425.45,65 423.1,67.95 425.45,63.4 		
			"/>
	</g>
	<g>
		<polygon style="fill-rule:evenodd;clip-rule:evenodd;fill:#B3AB64;" points="437.65,34.55 433.85,29.25 429.7,34.35 433.85,26.55 
					"/>
	</g>
	<g>
		<polygon style="fill-rule:evenodd;clip-rule:evenodd;fill:#B3AB64;" points="400.15,30.8 396.3,25.45 392.1,30.65 396.3,22.7 		
			"/>
	</g>
	<g>
		<polygon style="fill-rule:evenodd;clip-rule:evenodd;fill:#B3AB64;" points="370.65,32.1 367.75,28.05 364.6,31.95 367.75,26 		
			"/>
	</g>
	<g>
		<polygon style="fill-rule:evenodd;clip-rule:evenodd;fill:#B3AB64;" points="346.65,37.75 344.45,34.65 342.05,37.65 344.45,33.1 
					"/>
	</g>
	<g>
		<polygon style="fill-rule:evenodd;clip-rule:evenodd;fill:#B3AB64;" points="323.55,27.35 321.25,24.2 318.75,27.25 321.25,22.55 
					"/>
	</g>
	<g>
		<polygon style="fill-rule:evenodd;clip-rule:evenodd;fill:#B3AB64;" points="294.1,37.3 291.25,33.3 288.15,37.15 291.25,31.3 		
			"/>
	</g>
	<g>
		<polygon style="fill-rule:evenodd;clip-rule:evenodd;fill:#B3AB64;" points="262.1,26.6 259.45,22.9 256.55,26.45 259.45,21 		"/>
	</g>
	<g>
		<polygon style="fill-rule:evenodd;clip-rule:evenodd;fill:#B3AB64;" points="233.2,23.9 229.05,18.1 224.55,23.75 229.05,15.15 		
			"/>
	</g>
	<g>
		<polygon style="fill-rule:evenodd;clip-rule:evenodd;fill:#B3AB64;" points="199.15,28.4 194.4,34.3 199.15,25.25 203.55,34.5 		
			"/>
	</g>
	<g>
		<polygon style="fill-rule:evenodd;clip-rule:evenodd;fill:#B3AB64;" points="178.55,32.35 174.75,27.05 170.6,32.2 174.75,24.35 
					"/>
	</g>
	<g>
		<polygon style="fill-rule:evenodd;clip-rule:evenodd;fill:#B3AB64;" points="144.95,29.95 142.1,25.95 139,29.8 142.1,23.95 		"/>
	</g>
	<g>
		<polygon style="fill-rule:evenodd;clip-rule:evenodd;fill:#B3AB64;" points="112.3,22.75 108.35,17.25 104.05,22.6 108.35,14.45 
					"/>
	</g>
	<g>
		<polygon style="fill-rule:evenodd;clip-rule:evenodd;fill:#B3AB64;" points="79.25,21.75 76.5,25.15 79.25,19.95 81.75,25.25 		
			"/>
	</g>
	<g>
		<polygon style="fill-rule:evenodd;clip-rule:evenodd;fill:#B3AB64;" points="13.15,37.6 10.6,34.1 7.9,37.5 10.6,32.3 		"/>
	</g>
	<g>
		<polygon style="fill-rule:evenodd;clip-rule:evenodd;fill:#B3AB64;" points="56.9,31.3 52.3,24.9 47.35,31.1 52.3,21.6 		"/>
	</g>
	<g>
		<polygon style="fill-rule:evenodd;clip-rule:evenodd;fill:#B3AB64;" points="31.95,26.55 28.45,21.7 24.65,26.4 28.45,19.2 		"/>
	</g>
	<g>
		<polygon style="fill-rule:evenodd;clip-rule:evenodd;fill:#B3AB64;" points="18.45,7.7 14.85,2.6 10.85,7.55 14.85,0 		"/>
	</g>
	<g>
		<polygon style="fill-rule:evenodd;clip-rule:evenodd;fill:#B3AB64;" points="71.2,12.25 66.45,5.6 61.25,12 66.45,2.2 		"/>
	</g>
	<g>
		<polygon style="fill-rule:evenodd;clip-rule:evenodd;fill:#B3AB64;" points="150.65,14.9 148,11.2 145.1,14.75 148,9.3 		"/>
	</g>
	<g>
		<polygon style="fill-rule:evenodd;clip-rule:evenodd;fill:#B3AB64;" points="193.5,17.3 191.25,14.15 188.8,17.2 191.25,12.55 		
			"/>
	</g>
	<g>
		<polygon style="fill-rule:evenodd;clip-rule:evenodd;fill:#B3AB64;" points="193.2,66.2 190.95,63.1 188.55,66.1 190.95,61.5 		
			"/>
	</g>
	<g>
		<polygon style="fill-rule:evenodd;clip-rule:evenodd;fill:#B3AB64;" points="19.7,64.8 17.45,61.7 15.05,64.7 17.45,60.1 		"/>
	</g>
	<g>
		<polygon style="fill-rule:evenodd;clip-rule:evenodd;fill:#B3AB64;" points="251.1,22.2 246.95,16.5 242.5,22.05 246.95,13.55 		
			"/>
	</g>
	<g>
		<polygon style="fill-rule:evenodd;clip-rule:evenodd;fill:#B3AB64;" points="287.95,20.65 284.95,16.5 281.75,20.5 284.95,14.35 
					"/>
	</g>
	<g>
		<polygon style="fill-rule:evenodd;clip-rule:evenodd;fill:#B3AB64;" points="311.55,25.7 307.45,20 303.05,25.5 307.45,17.05 		
			"/>
	</g>
	<g>
		<polygon style="fill-rule:evenodd;clip-rule:evenodd;fill:#B3AB64;" points="348.95,26.95 346.45,23.5 343.75,26.85 346.45,21.7 
					"/>
	</g>
	<g>
		<polygon style="fill-rule:evenodd;clip-rule:evenodd;fill:#B3AB64;" points="321.3,62.65 317.05,67.95 321.3,59.85 325.25,68.1 		
			"/>
	</g>
	<g>
		<polygon style="fill-rule:evenodd;clip-rule:evenodd;fill:#B3AB64;" points="387.85,48.05 383.45,42 378.7,47.9 383.45,38.85 		
			"/>
	</g>
	<g>
		<polygon style="fill-rule:evenodd;clip-rule:evenodd;fill:#B3AB64;" points="398.55,67.4 395.75,63.5 392.75,67.3 395.75,61.5 		
			"/>
	</g>
	<g>
		<polygon style="fill-rule:evenodd;clip-rule:evenodd;fill:#B3AB64;" points="480.05,67 476.45,62 472.55,66.85 476.45,59.4 		"/>
	</g>
	<g>
		<polygon style="fill-rule:evenodd;clip-rule:evenodd;fill:#B3AB64;" points="301.5,65 297.4,59.25 292.9,64.8 297.4,56.3 		"/>
	</g>
	<g>
		<polygon style="fill-rule:evenodd;clip-rule:evenodd;fill:#B3AB64;" points="88.8,61.75 86.25,58.2 83.45,61.6 86.25,56.35 		"/>
	</g>
	<g>
		<polygon style="fill-rule:evenodd;clip-rule:evenodd;fill:#B3AB64;" points="170.1,18.6 167.45,15 164.65,18.5 167.45,13.1 		"/>
	</g>
	<g>
		<polygon style="fill-rule:evenodd;clip-rule:evenodd;fill:#B3AB64;" points="121.45,60.5 116.35,66.8 121.45,57.1 126.15,67 		"/>
	</g>
	<g>
		<polygon style="fill-rule:evenodd;clip-rule:evenodd;fill:#B3AB64;" points="69.45,68.6 66.45,64.5 63.25,68.5 66.45,62.35 		"/>
	</g>
</g>
</svg>
