<?xml version="1.0" encoding="iso-8859-1"?>
<!-- Generator: Adobe Illustrator 15.1.0, SVG Export Plug-In . SVG Version: 6.00 Build 0)  -->
<!DOCTYPE svg PUBLIC "-//W3C//DTD SVG 1.1//EN" "http://www.w3.org/Graphics/SVG/1.1/DTD/svg11.dtd">
<svg version="1.1" id="ground_x5F_back_x5F_top_x5F_04.ai"
	 xmlns="http://www.w3.org/2000/svg" xmlns:xlink="http://www.w3.org/1999/xlink" x="0px" y="0px" width="500px" height="89.6px"
	 viewBox="0 0 500 89.6" style="enable-background:new 0 0 500 89.6;" xml:space="preserve">
<g>
	<g>
		<path style="fill-rule:evenodd;clip-rule:evenodd;fill:#BCB472;" d="M500,49.55V89.6H0V49.55c10.967,0,24.183-2.55,39.65-7.65
			c8.867-2.9,23.267-8.517,43.2-16.85c19.367-8.1,34.133-13.767,44.3-17c16.333-5.2,30.667-7.867,43-8
			c33.6-0.333,68.567,2.034,104.9,7.1c26.667,3.733,56.967,9.434,90.9,17.1c18.533,4.167,43.684,9.95,75.45,17.35
			C466.366,46.9,485.9,49.55,500,49.55z"/>
	</g>
	<g>
		<polygon style="fill-rule:evenodd;clip-rule:evenodd;fill:#B3AB64;" points="45.4,79.5 41.85,74.55 38,79.35 41.85,72.05 		"/>
	</g>
	<g>
		<polygon style="fill-rule:evenodd;clip-rule:evenodd;fill:#B3AB64;" points="75.35,67.35 71.05,61.4 66.4,67.15 71.05,58.3 		"/>
	</g>
	<g>
		<polygon style="fill-rule:evenodd;clip-rule:evenodd;fill:#B3AB64;" points="106.15,70.75 102.8,66.05 99.15,70.6 102.8,63.65 		
			"/>
	</g>
	<g>
		<polygon style="fill-rule:evenodd;clip-rule:evenodd;fill:#B3AB64;" points="138.6,72.6 134.9,67.45 130.85,72.45 134.9,64.75 		
			"/>
	</g>
	<g>
		<polygon style="fill-rule:evenodd;clip-rule:evenodd;fill:#B3AB64;" points="158.75,57.6 154.4,63 158.75,54.7 162.75,63.15 		"/>
	</g>
	<g>
		<polygon style="fill-rule:evenodd;clip-rule:evenodd;fill:#B3AB64;" points="196.7,71.5 194.35,68.25 191.75,71.4 194.35,66.55 		
			"/>
	</g>
	<g>
		<polygon style="fill-rule:evenodd;clip-rule:evenodd;fill:#B3AB64;" points="229.4,63.15 225.45,57.65 221.2,62.95 225.45,54.8 		
			"/>
	</g>
	<g>
		<polygon style="fill-rule:evenodd;clip-rule:evenodd;fill:#B3AB64;" points="256.05,75.9 252.2,70.55 248.05,75.7 252.2,67.85 		
			"/>
	</g>
	<g>
		<polygon style="fill-rule:evenodd;clip-rule:evenodd;fill:#B3AB64;" points="277.75,68.4 273.4,62.35 268.65,68.2 273.4,59.2 		
			"/>
	</g>
	<g>
		<polygon style="fill-rule:evenodd;clip-rule:evenodd;fill:#B3AB64;" points="319.45,68.55 316.05,63.8 312.35,68.4 316.05,61.35 
					"/>
	</g>
	<g>
		<polygon style="fill-rule:evenodd;clip-rule:evenodd;fill:#B3AB64;" points="351.85,78.75 347.6,72.8 342.95,78.55 347.6,69.75 		
			"/>
	</g>
	<g>
		<polygon style="fill-rule:evenodd;clip-rule:evenodd;fill:#B3AB64;" points="381.9,82.65 379.45,79.25 376.8,82.55 379.45,77.5 		
			"/>
	</g>
	<g>
		<polygon style="fill-rule:evenodd;clip-rule:evenodd;fill:#B3AB64;" points="404.45,70.25 402.25,67.15 399.85,70.15 402.25,65.6 
					"/>
	</g>
	<g>
		<polygon style="fill-rule:evenodd;clip-rule:evenodd;fill:#B3AB64;" points="437.4,73.85 432.95,67.6 428.05,73.65 432.95,64.4 		
			"/>
	</g>
	<g>
		<polygon style="fill-rule:evenodd;clip-rule:evenodd;fill:#B3AB64;" points="470.45,65.6 465.8,59.1 460.75,65.4 465.8,55.8 		"/>
	</g>
	<g>
		<polygon style="fill-rule:evenodd;clip-rule:evenodd;fill:#B3AB64;" points="495.55,78.65 491.6,73.2 487.3,78.5 491.6,70.35 		
			"/>
	</g>
	<g>
		<polygon style="fill-rule:evenodd;clip-rule:evenodd;fill:#B3AB64;" points="226.9,83.05 222.4,76.85 217.55,82.85 222.4,73.65 		
			"/>
	</g>
	<g>
		<polygon style="fill-rule:evenodd;clip-rule:evenodd;fill:#B3AB64;" points="455.8,83.3 453.25,79.75 450.45,83.2 453.25,77.9 		
			"/>
	</g>
	<g>
		<polygon style="fill-rule:evenodd;clip-rule:evenodd;fill:#B3AB64;" points="168.75,81.9 164.4,75.85 159.7,81.7 164.4,72.7 		"/>
	</g>
	<g>
		<polygon style="fill-rule:evenodd;clip-rule:evenodd;fill:#B3AB64;" points="478.4,87.15 475.95,83.8 473.35,87.05 475.95,82.05 
					"/>
	</g>
	<g>
		<polygon style="fill-rule:evenodd;clip-rule:evenodd;fill:#B3AB64;" points="485.65,57.6 483.45,54.55 481.1,57.5 483.45,52.95 		
			"/>
	</g>
	<g>
		<polygon style="fill-rule:evenodd;clip-rule:evenodd;fill:#B3AB64;" points="437.65,54.1 433.85,48.8 429.7,53.9 433.85,46.1 		
			"/>
	</g>
	<g>
		<polygon style="fill-rule:evenodd;clip-rule:evenodd;fill:#B3AB64;" points="400.15,50.35 396.3,45 392.1,50.2 396.3,42.25 		"/>
	</g>
	<g>
		<polygon style="fill-rule:evenodd;clip-rule:evenodd;fill:#B3AB64;" points="370.65,51.65 367.75,47.65 364.6,51.5 367.75,45.55 
					"/>
	</g>
	<g>
		<polygon style="fill-rule:evenodd;clip-rule:evenodd;fill:#B3AB64;" points="346.65,57.3 344.45,54.25 342.05,57.2 344.45,52.65 
					"/>
	</g>
	<g>
		<polygon style="fill-rule:evenodd;clip-rule:evenodd;fill:#B3AB64;" points="323.55,46.9 321.25,43.75 318.75,46.8 321.25,42.1 		
			"/>
	</g>
	<g>
		<polygon style="fill-rule:evenodd;clip-rule:evenodd;fill:#B3AB64;" points="294.1,56.85 291.25,52.85 288.15,56.7 291.25,50.85 
					"/>
	</g>
	<g>
		<polygon style="fill-rule:evenodd;clip-rule:evenodd;fill:#B3AB64;" points="262.1,46.15 259.45,42.45 256.55,46.05 259.45,40.55 
					"/>
	</g>
	<g>
		<polygon style="fill-rule:evenodd;clip-rule:evenodd;fill:#B3AB64;" points="217.1,9.2 214.45,5.55 211.6,9.1 214.45,3.65 		"/>
	</g>
	<g>
		<polygon style="fill-rule:evenodd;clip-rule:evenodd;fill:#B3AB64;" points="233.2,43.45 229.05,37.65 224.55,43.3 229.05,34.7 		
			"/>
	</g>
	<g>
		<polygon style="fill-rule:evenodd;clip-rule:evenodd;fill:#B3AB64;" points="203.55,54.05 199.15,47.95 194.4,53.85 199.15,44.8 
					"/>
	</g>
	<g>
		<polygon style="fill-rule:evenodd;clip-rule:evenodd;fill:#B3AB64;" points="178.55,51.9 174.75,46.6 170.6,51.75 174.75,43.9 		
			"/>
	</g>
	<g>
		<polygon style="fill-rule:evenodd;clip-rule:evenodd;fill:#B3AB64;" points="144.95,49.5 142.1,45.55 139,49.35 142.1,43.5 		"/>
	</g>
	<g>
		<polygon style="fill-rule:evenodd;clip-rule:evenodd;fill:#B3AB64;" points="112.3,42.3 108.35,36.8 104.05,42.15 108.35,34 		"/>
	</g>
	<g>
		<polygon style="fill-rule:evenodd;clip-rule:evenodd;fill:#B3AB64;" points="79.25,41.3 76.5,44.7 79.25,39.5 81.75,44.8 		"/>
	</g>
	<g>
		<polygon style="fill-rule:evenodd;clip-rule:evenodd;fill:#B3AB64;" points="13.15,57.15 10.6,53.65 7.9,57.05 10.6,51.85 		"/>
	</g>
	<g>
		<polygon style="fill-rule:evenodd;clip-rule:evenodd;fill:#B3AB64;" points="56.9,50.85 52.3,44.45 47.35,50.65 52.3,41.15 		"/>
	</g>
	<g>
		<polygon style="fill-rule:evenodd;clip-rule:evenodd;fill:#B3AB64;" points="32.45,63.4 28.95,58.55 25.15,63.25 28.95,56.05 		
			"/>
	</g>
	<g>
		<polygon style="fill-rule:evenodd;clip-rule:evenodd;fill:#B3AB64;" points="68.75,87.15 63.95,80.55 58.8,86.95 63.95,77.1 		"/>
	</g>
	<g>
		<polygon style="fill-rule:evenodd;clip-rule:evenodd;fill:#B3AB64;" points="100.55,30.35 97.45,26.05 94.1,30.2 97.45,23.8 		"/>
	</g>
	<g>
		<polygon style="fill-rule:evenodd;clip-rule:evenodd;fill:#B3AB64;" points="193.65,87.8 190.95,84.05 188.05,87.7 190.95,82.1 		
			"/>
	</g>
	<g>
		<polygon style="fill-rule:evenodd;clip-rule:evenodd;fill:#B3AB64;" points="150.65,34.45 148,30.75 145.1,34.35 148,28.85 		"/>
	</g>
	<g>
		<polygon style="fill-rule:evenodd;clip-rule:evenodd;fill:#B3AB64;" points="193.5,36.85 191.25,33.7 188.8,36.75 191.25,32.1 		
			"/>
	</g>
	<g>
		<polygon style="fill-rule:evenodd;clip-rule:evenodd;fill:#B3AB64;" points="173.45,27.85 171.2,24.7 168.8,27.75 171.2,23.1 		
			"/>
	</g>
	<g>
		<polygon style="fill-rule:evenodd;clip-rule:evenodd;fill:#B3AB64;" points="19.7,84.35 17.45,81.25 15.05,84.25 17.45,79.65 		
			"/>
	</g>
	<g>
		<polygon style="fill-rule:evenodd;clip-rule:evenodd;fill:#B3AB64;" points="229.3,20.05 225.95,15.3 222.25,19.9 225.95,12.9 		
			"/>
	</g>
	<g>
		<polygon style="fill-rule:evenodd;clip-rule:evenodd;fill:#B3AB64;" points="255.7,34 251.6,28.25 247.1,33.8 251.6,25.3 		"/>
	</g>
	<g>
		<polygon style="fill-rule:evenodd;clip-rule:evenodd;fill:#B3AB64;" points="287.85,35.9 284.9,31.75 281.65,35.75 284.9,29.6 		
			"/>
	</g>
	<g>
		<polygon style="fill-rule:evenodd;clip-rule:evenodd;fill:#B3AB64;" points="314.55,35.4 310.5,29.7 306.05,35.2 310.5,26.75 		
			"/>
	</g>
	<g>
		<polygon style="fill-rule:evenodd;clip-rule:evenodd;fill:#B3AB64;" points="346.65,33.6 344.2,30.15 341.5,33.5 344.2,28.4 		"/>
	</g>
	<g>
		<polygon style="fill-rule:evenodd;clip-rule:evenodd;fill:#B3AB64;" points="376.4,36.5 372.45,31.05 368.2,36.3 372.45,28.25 		
			"/>
	</g>
	<g>
		<polygon style="fill-rule:evenodd;clip-rule:evenodd;fill:#B3AB64;" points="321.25,83.1 318.25,86.85 321.25,81.05 324.05,86.95 
					"/>
	</g>
	<g>
		<polygon style="fill-rule:evenodd;clip-rule:evenodd;fill:#B3AB64;" points="424.25,87.2 420.65,82.2 416.75,87.05 420.65,79.65 
					"/>
	</g>
	<g>
		<polygon style="fill-rule:evenodd;clip-rule:evenodd;fill:#B3AB64;" points="301.5,84.55 297.4,78.8 292.9,84.35 297.4,75.85 		
			"/>
	</g>
	<g>
		<polygon style="fill-rule:evenodd;clip-rule:evenodd;fill:#B3AB64;" points="88.8,81.3 86.25,77.75 83.45,81.15 86.25,75.9 		"/>
	</g>
	<g>
		<polygon style="fill-rule:evenodd;clip-rule:evenodd;fill:#B3AB64;" points="270.3,87.5 267.95,84.2 265.4,87.4 267.95,82.55 		
			"/>
	</g>
	<g>
		<polygon style="fill-rule:evenodd;clip-rule:evenodd;fill:#B3AB64;" points="276.6,16 272.45,10.25 268,15.8 272.45,7.3 		"/>
	</g>
	<g>
		<polygon style="fill-rule:evenodd;clip-rule:evenodd;fill:#B3AB64;" points="252.4,14.4 247.6,7.75 242.45,14.2 247.6,4.3 		"/>
	</g>
	<g>
		<polygon style="fill-rule:evenodd;clip-rule:evenodd;fill:#B3AB64;" points="213.15,28.9 209.9,24.4 206.35,28.8 209.9,22.05 		
			"/>
	</g>
	<g>
		<polygon style="fill-rule:evenodd;clip-rule:evenodd;fill:#B3AB64;" points="194.1,12.4 189.65,6.15 184.75,12.2 189.65,2.95 		
			"/>
	</g>
	<g>
		<polygon style="fill-rule:evenodd;clip-rule:evenodd;fill:#B3AB64;" points="159.65,9.35 157.05,5.7 154.2,9.25 157.05,3.85 		"/>
	</g>
	<g>
		<polygon style="fill-rule:evenodd;clip-rule:evenodd;fill:#B3AB64;" points="139.55,24.35 136.05,19.55 132.3,24.2 136.05,17.05 
					"/>
	</g>
	<g>
		<polygon style="fill-rule:evenodd;clip-rule:evenodd;fill:#B3AB64;" points="121.25,81.85 118.35,85.45 121.25,79.9 124,85.6 		
			"/>
	</g>
</g>
</svg>
