<?xml version="1.0" encoding="iso-8859-1"?>
<!-- Generator: Adobe Illustrator 15.1.0, SVG Export Plug-In . SVG Version: 6.00 Build 0)  -->
<!DOCTYPE svg PUBLIC "-//W3C//DTD SVG 1.1//EN" "http://www.w3.org/Graphics/SVG/1.1/DTD/svg11.dtd">
<svg version="1.1" id="Layer_1" xmlns="http://www.w3.org/2000/svg" xmlns:xlink="http://www.w3.org/1999/xlink" x="0px" y="0px"
	 width="245px" height="77.9px" viewBox="0 0 245 77.9" style="enable-background:new 0 0 245 77.9;" xml:space="preserve">
<g>
	<defs>
		<rect id="SVGID_1_" x="0.5" y="1.4" width="244" height="76"/>
	</defs>
	<clipPath id="SVGID_2_">
		<use xlink:href="#SVGID_1_"  style="overflow:visible;"/>
	</clipPath>
	<g id="Isolation_Mode" style="clip-path:url(#SVGID_2_);">
		<g>
			<g>
				
					<line style="fill-rule:evenodd;clip-rule:evenodd;fill:none;stroke:#FFFFFF;stroke-linecap:round;stroke-linejoin:round;stroke-miterlimit:3;" x1="44.6" y1="2" x2="204.65" y2="0.5"/>
				<path style="fill-rule:evenodd;clip-rule:evenodd;fill:#ABA254;" d="M10,72.7V2.65c54.967-1.133,101.4-1.867,139.3-2.2
					c35.704-0.299,65.604-0.016,89.7,0.85v71.4H10z"/>
			</g>
			<g>
				<polygon style="fill-rule:evenodd;clip-rule:evenodd;fill:#918B4B;" points="56.15,63.4 51.9,57.45 47.3,63.2 51.9,54.4 				"/>
			</g>
			<g>
				<polygon style="fill-rule:evenodd;clip-rule:evenodd;fill:#918B4B;" points="86.25,51.4 81.1,44.25 75.55,51.15 81.1,40.55 				
					"/>
			</g>
			<g>
				<polygon style="fill-rule:evenodd;clip-rule:evenodd;fill:#918B4B;" points="116.9,54.6 112.85,48.95 108.45,54.4 112.85,46.05 
									"/>
			</g>
			<g>
				<polygon style="fill-rule:evenodd;clip-rule:evenodd;fill:#918B4B;" points="149.35,56.5 144.9,50.3 140.05,56.35 144.9,47.1 
									"/>
			</g>
			<g>
				<polygon style="fill-rule:evenodd;clip-rule:evenodd;fill:#918B4B;" points="168.8,40.45 163.55,46.95 168.8,37 173.6,47.15 
									"/>
			</g>
			<g>
				<polygon style="fill-rule:evenodd;clip-rule:evenodd;fill:#918B4B;" points="207.2,55.15 204.35,51.2 201.25,55.05 
					204.35,49.15 				"/>
			</g>
			<g>
				<polygon style="fill-rule:evenodd;clip-rule:evenodd;fill:#918B4B;" points="179.7,65.95 174.45,58.7 168.8,65.7 174.45,54.95 
									"/>
			</g>
			<g>
				<polygon style="fill-rule:evenodd;clip-rule:evenodd;fill:#918B4B;" points="209.2,30.8 203.45,37.85 209.2,27 214.45,38.1 				
					"/>
			</g>
			<g>
				<polygon style="fill-rule:evenodd;clip-rule:evenodd;fill:#918B4B;" points="189.35,35.85 184.8,29.5 179.8,35.65 184.8,26.2 
									"/>
			</g>
			<g>
				<polygon style="fill-rule:evenodd;clip-rule:evenodd;fill:#918B4B;" points="155.55,33.2 152.15,28.45 148.4,33.05 152.15,26 
									"/>
			</g>
			<g>
				<polygon style="fill-rule:evenodd;clip-rule:evenodd;fill:#918B4B;" points="123.15,26.3 118.4,19.7 113.25,26.1 118.4,16.25 
									"/>
			</g>
			<g>
				<polygon style="fill-rule:evenodd;clip-rule:evenodd;fill:#918B4B;" points="89.3,24.25 86,28.3 89.3,22.1 92.3,28.45 				"/>
			</g>
			<g>
				<polygon style="fill-rule:evenodd;clip-rule:evenodd;fill:#918B4B;" points="23.65,40.8 20.65,36.65 17.4,40.7 20.65,34.45 				
					"/>
			</g>
			<g>
				<polygon style="fill-rule:evenodd;clip-rule:evenodd;fill:#918B4B;" points="67.85,34.95 62.35,27.3 56.4,34.7 62.35,23.35 				
					"/>
			</g>
			<g>
				<polygon style="fill-rule:evenodd;clip-rule:evenodd;fill:#918B4B;" points="42.7,29.95 38.5,24.15 33.95,29.8 38.5,21.15 				
					"/>
			</g>
			<g>
				<polygon style="fill-rule:evenodd;clip-rule:evenodd;fill:#918B4B;" points="29.9,18 25.5,11.9 20.75,17.8 25.5,8.8 				"/>
			</g>
			<g>
				<polygon style="fill-rule:evenodd;clip-rule:evenodd;fill:#918B4B;" points="49,8.4 43.75,14.95 49,4.9 53.85,15.15 				"/>
			</g>
			<g>
				<polygon style="fill-rule:evenodd;clip-rule:evenodd;fill:#918B4B;" points="82.2,15.9 76.5,7.95 70.3,15.65 76.5,3.85 				"/>
			</g>
			<g>
				<polygon style="fill-rule:evenodd;clip-rule:evenodd;fill:#918B4B;" points="110.1,10.3 106.4,5.15 102.35,10.15 106.4,2.5 				
					"/>
			</g>
			<g>
				<polygon style="fill-rule:evenodd;clip-rule:evenodd;fill:#918B4B;" points="161.2,18.15 158,13.7 154.55,18 158,11.4 				"/>
			</g>
			<g>
				<polygon style="fill-rule:evenodd;clip-rule:evenodd;fill:#918B4B;" points="203.95,20.45 201.3,16.7 198.35,20.3 201.3,14.75 
									"/>
			</g>
			<g>
				<polygon style="fill-rule:evenodd;clip-rule:evenodd;fill:#918B4B;" points="183.95,11.45 181.25,7.7 178.3,11.3 181.25,5.75 
									"/>
			</g>
			<g>
				<polygon style="fill-rule:evenodd;clip-rule:evenodd;fill:#918B4B;" points="30.2,67.95 27.5,64.2 24.55,67.85 27.5,62.3 				
					"/>
			</g>
			<g>
				<polygon style="fill-rule:evenodd;clip-rule:evenodd;fill:#918B4B;" points="99.35,64.95 96.25,60.7 92.95,64.8 96.25,58.5 				
					"/>
			</g>
			<g>
				<polygon style="fill-rule:evenodd;clip-rule:evenodd;fill:#918B4B;" points="223.85,12.75 219.95,7.3 215.7,12.55 219.95,4.5 
									"/>
			</g>
			<g>
				<polygon style="fill-rule:evenodd;clip-rule:evenodd;fill:#918B4B;" points="203.9,71.85 198.5,64.35 192.65,71.6 198.5,60.5 
									"/>
			</g>
			<g>
				<polygon style="fill-rule:evenodd;clip-rule:evenodd;fill:#918B4B;" points="148.75,12.75 144.6,6.95 140.05,12.55 144.6,3.95 
									"/>
			</g>
			<g>
				<polygon style="fill-rule:evenodd;clip-rule:evenodd;fill:#918B4B;" points="135.75,70 132.5,65.5 129,69.85 132.5,63.15 				
					"/>
			</g>
			<g>
				<polygon style="fill-rule:evenodd;clip-rule:evenodd;fill:#918B4B;" points="81.05,72.4 77.5,67.45 73.65,72.25 77.5,64.9 				
					"/>
			</g>
		</g>
	</g>
</g>
</svg>
