<?xml version="1.0" encoding="iso-8859-1"?>
<!-- Generator: Adobe Illustrator 15.1.0, SVG Export Plug-In . SVG Version: 6.00 Build 0)  -->
<!DOCTYPE svg PUBLIC "-//W3C//DTD SVG 1.1//EN" "http://www.w3.org/Graphics/SVG/1.1/DTD/svg11.dtd">
<svg version="1.1" id="ground_x5F_front_x5F_top_x5F_02.ai"
	 xmlns="http://www.w3.org/2000/svg" xmlns:xlink="http://www.w3.org/1999/xlink" x="0px" y="0px" width="1500px" height="35px"
	 viewBox="0 0 1500 35" style="enable-background:new 0 0 1500 35;" xml:space="preserve">
<g>
	<rect style="fill-rule:evenodd;clip-rule:evenodd;fill:#ABA254;" width="250" height="35"/>
	<g>
		<polygon style="fill-rule:evenodd;clip-rule:evenodd;fill:#918B4B;" points="205.5,32.3 210,22.8 214.9,32.1 210,26 		"/>
	</g>
	<g>
		<polygon style="fill-rule:evenodd;clip-rule:evenodd;fill:#918B4B;" points="175.7,31.35 180.6,21.1 185.9,31.15 180.6,24.6 		"/>
	</g>
	<g>
		<polygon style="fill-rule:evenodd;clip-rule:evenodd;fill:#918B4B;" points="126.55,14.8 131.6,4.1 137.1,14.6 131.6,7.75 		"/>
	</g>
	<g>
		<polygon style="fill-rule:evenodd;clip-rule:evenodd;fill:#918B4B;" points="93.4,29.65 97,22 100.95,29.5 97,24.6 		"/>
	</g>
	<g>
		<polygon style="fill-rule:evenodd;clip-rule:evenodd;fill:#918B4B;" points="56.9,13.95 61.65,3.9 66.85,13.7 61.65,7.3 		"/>
	</g>
	<g>
		<polygon style="fill-rule:evenodd;clip-rule:evenodd;fill:#918B4B;" points="23.65,29.15 26.7,22.7 30,29.05 26.7,24.9 		"/>
	</g>
	<g>
		<polygon style="fill-rule:evenodd;clip-rule:evenodd;fill:#918B4B;" points="44.5,31.45 49.7,20.45 55.35,31.2 49.7,24.2 		"/>
	</g>
	<g>
		<polygon style="fill-rule:evenodd;clip-rule:evenodd;fill:#918B4B;" points="96.85,8.65 99.5,3 102.4,8.55 99.5,4.95 		"/>
	</g>
	<g>
		<polygon style="fill-rule:evenodd;clip-rule:evenodd;fill:#918B4B;" points="121.9,30.8 125,24.3 128.35,30.7 125,26.5 		"/>
	</g>
	<g>
		<polygon style="fill-rule:evenodd;clip-rule:evenodd;fill:#918B4B;" points="153.55,15.35 156.25,9.6 159.25,15.25 156.25,11.55 
					"/>
	</g>
	<g>
		<polygon style="fill-rule:evenodd;clip-rule:evenodd;fill:#918B4B;" points="8.75,11.85 11.5,6.05 14.45,11.7 11.5,8 		"/>
	</g>
	<g>
		<polygon style="fill-rule:evenodd;clip-rule:evenodd;fill:#918B4B;" points="167.4,12.7 171.5,4.1 175.95,12.55 171.5,7 		"/>
	</g>
	<g>
		<polygon style="fill-rule:evenodd;clip-rule:evenodd;fill:#918B4B;" points="243.4,6.85 238.9,13.15 243.4,3.6 248.3,12.95 		"/>
	</g>
	<g>
		<polygon style="fill-rule:evenodd;clip-rule:evenodd;fill:#918B4B;" points="238.75,31.25 241.8,24.8 245.15,31.1 241.8,27 		"/>
	</g>
	<g>
		<polygon style="fill-rule:evenodd;clip-rule:evenodd;fill:#918B4B;" points="226.1,23.55 229,17.45 232.15,23.4 229,19.5 		"/>
	</g>
	<g>
		<polygon style="fill-rule:evenodd;clip-rule:evenodd;fill:#918B4B;" points="5.6,32.05 8.5,25.95 11.65,31.9 8.5,28 		"/>
	</g>
	<g>
		<polygon style="fill-rule:evenodd;clip-rule:evenodd;fill:#918B4B;" points="192.65,15.4 197.45,5.2 202.7,15.2 197.45,8.7 		"/>
	</g>
	<g>
		<polygon style="fill-rule:evenodd;clip-rule:evenodd;fill:#918B4B;" points="138.35,30.05 143,20.15 148.1,29.85 143,23.5 		"/>
	</g>
	<g>
		<polygon style="fill-rule:evenodd;clip-rule:evenodd;fill:#918B4B;" points="110.55,20.1 115.25,10.2 120.3,19.9 115.25,13.6 		
			"/>
	</g>
	<g>
		<polygon style="fill-rule:evenodd;clip-rule:evenodd;fill:#918B4B;" points="81.55,14.85 76.55,21.8 81.55,11.3 86.95,21.55 		"/>
	</g>
	<g>
		<polygon style="fill-rule:evenodd;clip-rule:evenodd;fill:#918B4B;" points="27.5,14.2 33.15,2.3 39.3,13.95 33.15,6.35 		"/>
	</g>
</g>
<g>
	<rect x="249.95" y="0.45" style="fill-rule:evenodd;clip-rule:evenodd;fill:#ABA254;" width="250" height="35"/>
	<g>
		<polygon style="fill-rule:evenodd;clip-rule:evenodd;fill:#918B4B;" points="455.45,32.75 459.95,23.25 464.85,32.55 
			459.95,26.45 		"/>
	</g>
	<g>
		<polygon style="fill-rule:evenodd;clip-rule:evenodd;fill:#918B4B;" points="425.65,31.8 430.55,21.55 435.85,31.6 430.55,25.05 
					"/>
	</g>
	<g>
		<polygon style="fill-rule:evenodd;clip-rule:evenodd;fill:#918B4B;" points="376.5,15.25 381.55,4.55 387.05,15.05 381.55,8.2 		
			"/>
	</g>
	<g>
		<polygon style="fill-rule:evenodd;clip-rule:evenodd;fill:#918B4B;" points="343.35,30.1 346.95,22.45 350.9,29.95 346.95,25.05 
					"/>
	</g>
	<g>
		<polygon style="fill-rule:evenodd;clip-rule:evenodd;fill:#918B4B;" points="306.85,14.4 311.6,4.35 316.8,14.15 311.6,7.75 		"/>
	</g>
	<g>
		<polygon style="fill-rule:evenodd;clip-rule:evenodd;fill:#918B4B;" points="273.6,29.6 276.65,23.15 279.95,29.5 276.65,25.35 		
			"/>
	</g>
	<g>
		<polygon style="fill-rule:evenodd;clip-rule:evenodd;fill:#918B4B;" points="294.45,31.9 299.65,20.9 305.3,31.65 299.65,24.65 		
			"/>
	</g>
	<g>
		<polygon style="fill-rule:evenodd;clip-rule:evenodd;fill:#918B4B;" points="346.8,9.1 349.45,3.45 352.35,9 349.45,5.4 		"/>
	</g>
	<g>
		<polygon style="fill-rule:evenodd;clip-rule:evenodd;fill:#918B4B;" points="371.85,31.25 374.95,24.75 378.3,31.15 374.95,26.95 
					"/>
	</g>
	<g>
		<polygon style="fill-rule:evenodd;clip-rule:evenodd;fill:#918B4B;" points="403.5,15.8 406.2,10.05 409.2,15.7 406.2,12 		"/>
	</g>
	<g>
		<polygon style="fill-rule:evenodd;clip-rule:evenodd;fill:#918B4B;" points="258.7,12.3 261.45,6.5 264.4,12.15 261.45,8.45 		"/>
	</g>
	<g>
		<polygon style="fill-rule:evenodd;clip-rule:evenodd;fill:#918B4B;" points="417.35,13.15 421.45,4.55 425.9,13 421.45,7.45 		"/>
	</g>
	<g>
		<polygon style="fill-rule:evenodd;clip-rule:evenodd;fill:#918B4B;" points="493.35,7.3 488.85,13.6 493.35,4.05 498.25,13.4 		
			"/>
	</g>
	<g>
		<polygon style="fill-rule:evenodd;clip-rule:evenodd;fill:#918B4B;" points="488.7,31.7 491.75,25.25 495.1,31.55 491.75,27.45 		
			"/>
	</g>
	<g>
		<polygon style="fill-rule:evenodd;clip-rule:evenodd;fill:#918B4B;" points="476.05,24 478.95,17.9 482.1,23.85 478.95,19.95 		
			"/>
	</g>
	<g>
		<polygon style="fill-rule:evenodd;clip-rule:evenodd;fill:#918B4B;" points="255.55,32.5 258.45,26.4 261.6,32.35 258.45,28.45 		
			"/>
	</g>
	<g>
		<polygon style="fill-rule:evenodd;clip-rule:evenodd;fill:#918B4B;" points="442.6,15.85 447.4,5.65 452.65,15.65 447.4,9.15 		
			"/>
	</g>
	<g>
		<polygon style="fill-rule:evenodd;clip-rule:evenodd;fill:#918B4B;" points="388.3,30.5 392.95,20.6 398.05,30.3 392.95,23.95 		
			"/>
	</g>
	<g>
		<polygon style="fill-rule:evenodd;clip-rule:evenodd;fill:#918B4B;" points="360.5,20.55 365.2,10.65 370.25,20.35 365.2,14.05 		
			"/>
	</g>
	<g>
		<polygon style="fill-rule:evenodd;clip-rule:evenodd;fill:#918B4B;" points="331.5,15.3 326.5,22.25 331.5,11.75 336.9,22 		"/>
	</g>
	<g>
		<polygon style="fill-rule:evenodd;clip-rule:evenodd;fill:#918B4B;" points="277.45,14.65 283.1,2.75 289.25,14.4 283.1,6.8 		"/>
	</g>
</g>
<g>
	<rect x="499.95" y="0.45" style="fill-rule:evenodd;clip-rule:evenodd;fill:#ABA254;" width="250" height="35"/>
	<g>
		<polygon style="fill-rule:evenodd;clip-rule:evenodd;fill:#918B4B;" points="705.45,32.75 709.95,23.25 714.85,32.55 
			709.95,26.45 		"/>
	</g>
	<g>
		<polygon style="fill-rule:evenodd;clip-rule:evenodd;fill:#918B4B;" points="675.65,31.8 680.55,21.55 685.85,31.6 680.55,25.05 
					"/>
	</g>
	<g>
		<polygon style="fill-rule:evenodd;clip-rule:evenodd;fill:#918B4B;" points="626.5,15.25 631.55,4.55 637.05,15.05 631.55,8.2 		
			"/>
	</g>
	<g>
		<polygon style="fill-rule:evenodd;clip-rule:evenodd;fill:#918B4B;" points="593.35,30.1 596.95,22.45 600.9,29.95 596.95,25.05 
					"/>
	</g>
	<g>
		<polygon style="fill-rule:evenodd;clip-rule:evenodd;fill:#918B4B;" points="556.85,14.4 561.6,4.35 566.8,14.15 561.6,7.75 		"/>
	</g>
	<g>
		<polygon style="fill-rule:evenodd;clip-rule:evenodd;fill:#918B4B;" points="523.6,29.6 526.65,23.15 529.95,29.5 526.65,25.35 		
			"/>
	</g>
	<g>
		<polygon style="fill-rule:evenodd;clip-rule:evenodd;fill:#918B4B;" points="544.45,31.9 549.65,20.9 555.3,31.65 549.65,24.65 		
			"/>
	</g>
	<g>
		<polygon style="fill-rule:evenodd;clip-rule:evenodd;fill:#918B4B;" points="596.8,9.1 599.45,3.45 602.35,9 599.45,5.4 		"/>
	</g>
	<g>
		<polygon style="fill-rule:evenodd;clip-rule:evenodd;fill:#918B4B;" points="621.85,31.25 624.95,24.75 628.3,31.15 624.95,26.95 
					"/>
	</g>
	<g>
		<polygon style="fill-rule:evenodd;clip-rule:evenodd;fill:#918B4B;" points="653.5,15.8 656.2,10.05 659.2,15.7 656.2,12 		"/>
	</g>
	<g>
		<polygon style="fill-rule:evenodd;clip-rule:evenodd;fill:#918B4B;" points="508.7,12.3 511.45,6.5 514.4,12.15 511.45,8.45 		"/>
	</g>
	<g>
		<polygon style="fill-rule:evenodd;clip-rule:evenodd;fill:#918B4B;" points="667.35,13.15 671.45,4.55 675.9,13 671.45,7.45 		"/>
	</g>
	<g>
		<polygon style="fill-rule:evenodd;clip-rule:evenodd;fill:#918B4B;" points="743.35,7.3 738.85,13.6 743.35,4.05 748.25,13.4 		
			"/>
	</g>
	<g>
		<polygon style="fill-rule:evenodd;clip-rule:evenodd;fill:#918B4B;" points="738.7,31.7 741.75,25.25 745.1,31.55 741.75,27.45 		
			"/>
	</g>
	<g>
		<polygon style="fill-rule:evenodd;clip-rule:evenodd;fill:#918B4B;" points="726.05,24 728.95,17.9 732.1,23.85 728.95,19.95 		
			"/>
	</g>
	<g>
		<polygon style="fill-rule:evenodd;clip-rule:evenodd;fill:#918B4B;" points="505.55,32.5 508.45,26.4 511.6,32.35 508.45,28.45 		
			"/>
	</g>
	<g>
		<polygon style="fill-rule:evenodd;clip-rule:evenodd;fill:#918B4B;" points="692.6,15.85 697.4,5.65 702.65,15.65 697.4,9.15 		
			"/>
	</g>
	<g>
		<polygon style="fill-rule:evenodd;clip-rule:evenodd;fill:#918B4B;" points="638.3,30.5 642.95,20.6 648.05,30.3 642.95,23.95 		
			"/>
	</g>
	<g>
		<polygon style="fill-rule:evenodd;clip-rule:evenodd;fill:#918B4B;" points="610.5,20.55 615.2,10.65 620.25,20.35 615.2,14.05 		
			"/>
	</g>
	<g>
		<polygon style="fill-rule:evenodd;clip-rule:evenodd;fill:#918B4B;" points="581.5,15.3 576.5,22.25 581.5,11.75 586.9,22 		"/>
	</g>
	<g>
		<polygon style="fill-rule:evenodd;clip-rule:evenodd;fill:#918B4B;" points="527.45,14.65 533.1,2.75 539.25,14.4 533.1,6.8 		"/>
	</g>
</g>
<g>
	<rect x="749.95" y="0.45" style="fill-rule:evenodd;clip-rule:evenodd;fill:#ABA254;" width="250" height="35"/>
	<g>
		<polygon style="fill-rule:evenodd;clip-rule:evenodd;fill:#918B4B;" points="955.45,32.75 959.95,23.25 964.85,32.55 
			959.95,26.45 		"/>
	</g>
	<g>
		<polygon style="fill-rule:evenodd;clip-rule:evenodd;fill:#918B4B;" points="925.65,31.8 930.55,21.55 935.85,31.6 930.55,25.05 
					"/>
	</g>
	<g>
		<polygon style="fill-rule:evenodd;clip-rule:evenodd;fill:#918B4B;" points="876.5,15.25 881.55,4.55 887.05,15.05 881.55,8.2 		
			"/>
	</g>
	<g>
		<polygon style="fill-rule:evenodd;clip-rule:evenodd;fill:#918B4B;" points="843.35,30.1 846.95,22.45 850.9,29.95 846.95,25.05 
					"/>
	</g>
	<g>
		<polygon style="fill-rule:evenodd;clip-rule:evenodd;fill:#918B4B;" points="806.85,14.4 811.6,4.35 816.8,14.15 811.6,7.75 		"/>
	</g>
	<g>
		<polygon style="fill-rule:evenodd;clip-rule:evenodd;fill:#918B4B;" points="773.6,29.6 776.65,23.15 779.95,29.5 776.65,25.35 		
			"/>
	</g>
	<g>
		<polygon style="fill-rule:evenodd;clip-rule:evenodd;fill:#918B4B;" points="794.45,31.9 799.65,20.9 805.3,31.65 799.65,24.65 		
			"/>
	</g>
	<g>
		<polygon style="fill-rule:evenodd;clip-rule:evenodd;fill:#918B4B;" points="846.8,9.1 849.45,3.45 852.35,9 849.45,5.4 		"/>
	</g>
	<g>
		<polygon style="fill-rule:evenodd;clip-rule:evenodd;fill:#918B4B;" points="871.85,31.25 874.95,24.75 878.3,31.15 874.95,26.95 
					"/>
	</g>
	<g>
		<polygon style="fill-rule:evenodd;clip-rule:evenodd;fill:#918B4B;" points="903.5,15.8 906.2,10.05 909.2,15.7 906.2,12 		"/>
	</g>
	<g>
		<polygon style="fill-rule:evenodd;clip-rule:evenodd;fill:#918B4B;" points="758.7,12.3 761.45,6.5 764.4,12.15 761.45,8.45 		"/>
	</g>
	<g>
		<polygon style="fill-rule:evenodd;clip-rule:evenodd;fill:#918B4B;" points="917.35,13.15 921.45,4.55 925.9,13 921.45,7.45 		"/>
	</g>
	<g>
		<polygon style="fill-rule:evenodd;clip-rule:evenodd;fill:#918B4B;" points="993.35,7.3 988.85,13.6 993.35,4.05 998.25,13.4 		
			"/>
	</g>
	<g>
		<polygon style="fill-rule:evenodd;clip-rule:evenodd;fill:#918B4B;" points="988.7,31.7 991.75,25.25 995.1,31.55 991.75,27.45 		
			"/>
	</g>
	<g>
		<polygon style="fill-rule:evenodd;clip-rule:evenodd;fill:#918B4B;" points="976.05,24 978.95,17.9 982.1,23.85 978.95,19.95 		
			"/>
	</g>
	<g>
		<polygon style="fill-rule:evenodd;clip-rule:evenodd;fill:#918B4B;" points="755.55,32.5 758.45,26.4 761.6,32.35 758.45,28.45 		
			"/>
	</g>
	<g>
		<polygon style="fill-rule:evenodd;clip-rule:evenodd;fill:#918B4B;" points="942.6,15.85 947.4,5.65 952.65,15.65 947.4,9.15 		
			"/>
	</g>
	<g>
		<polygon style="fill-rule:evenodd;clip-rule:evenodd;fill:#918B4B;" points="888.3,30.5 892.95,20.6 898.05,30.3 892.95,23.95 		
			"/>
	</g>
	<g>
		<polygon style="fill-rule:evenodd;clip-rule:evenodd;fill:#918B4B;" points="860.5,20.55 865.2,10.65 870.25,20.35 865.2,14.05 		
			"/>
	</g>
	<g>
		<polygon style="fill-rule:evenodd;clip-rule:evenodd;fill:#918B4B;" points="831.5,15.3 826.5,22.25 831.5,11.75 836.9,22 		"/>
	</g>
	<g>
		<polygon style="fill-rule:evenodd;clip-rule:evenodd;fill:#918B4B;" points="777.45,14.65 783.1,2.75 789.25,14.4 783.1,6.8 		"/>
	</g>
</g>
<g>
	<rect x="999.95" y="0.45" style="fill-rule:evenodd;clip-rule:evenodd;fill:#ABA254;" width="250" height="35"/>
	<g>
		<polygon style="fill-rule:evenodd;clip-rule:evenodd;fill:#918B4B;" points="1205.45,32.75 1209.95,23.25 1214.85,32.55 
			1209.95,26.45 		"/>
	</g>
	<g>
		<polygon style="fill-rule:evenodd;clip-rule:evenodd;fill:#918B4B;" points="1175.65,31.8 1180.55,21.55 1185.85,31.6 
			1180.55,25.05 		"/>
	</g>
	<g>
		<polygon style="fill-rule:evenodd;clip-rule:evenodd;fill:#918B4B;" points="1126.5,15.25 1131.55,4.55 1137.05,15.05 
			1131.55,8.2 		"/>
	</g>
	<g>
		<polygon style="fill-rule:evenodd;clip-rule:evenodd;fill:#918B4B;" points="1093.35,30.1 1096.95,22.45 1100.9,29.95 
			1096.95,25.05 		"/>
	</g>
	<g>
		<polygon style="fill-rule:evenodd;clip-rule:evenodd;fill:#918B4B;" points="1056.85,14.4 1061.6,4.35 1066.8,14.15 1061.6,7.75 
					"/>
	</g>
	<g>
		<polygon style="fill-rule:evenodd;clip-rule:evenodd;fill:#918B4B;" points="1023.6,29.6 1026.65,23.15 1029.95,29.5 
			1026.65,25.35 		"/>
	</g>
	<g>
		<polygon style="fill-rule:evenodd;clip-rule:evenodd;fill:#918B4B;" points="1044.45,31.9 1049.65,20.9 1055.3,31.65 
			1049.65,24.65 		"/>
	</g>
	<g>
		<polygon style="fill-rule:evenodd;clip-rule:evenodd;fill:#918B4B;" points="1096.8,9.1 1099.45,3.45 1102.35,9 1099.45,5.4 		"/>
	</g>
	<g>
		<polygon style="fill-rule:evenodd;clip-rule:evenodd;fill:#918B4B;" points="1121.85,31.25 1124.95,24.75 1128.3,31.15 
			1124.95,26.95 		"/>
	</g>
	<g>
		<polygon style="fill-rule:evenodd;clip-rule:evenodd;fill:#918B4B;" points="1153.5,15.8 1156.2,10.05 1159.2,15.7 1156.2,12 		
			"/>
	</g>
	<g>
		<polygon style="fill-rule:evenodd;clip-rule:evenodd;fill:#918B4B;" points="1008.7,12.3 1011.45,6.5 1014.4,12.15 1011.45,8.45 
					"/>
	</g>
	<g>
		<polygon style="fill-rule:evenodd;clip-rule:evenodd;fill:#918B4B;" points="1167.35,13.15 1171.45,4.55 1175.9,13 1171.45,7.45 
					"/>
	</g>
	<g>
		<polygon style="fill-rule:evenodd;clip-rule:evenodd;fill:#918B4B;" points="1243.35,7.3 1238.85,13.6 1243.35,4.05 1248.25,13.4 
					"/>
	</g>
	<g>
		<polygon style="fill-rule:evenodd;clip-rule:evenodd;fill:#918B4B;" points="1238.7,31.7 1241.75,25.25 1245.1,31.55 
			1241.75,27.45 		"/>
	</g>
	<g>
		<polygon style="fill-rule:evenodd;clip-rule:evenodd;fill:#918B4B;" points="1226.05,24 1228.95,17.9 1232.1,23.85 1228.95,19.95 
					"/>
	</g>
	<g>
		<polygon style="fill-rule:evenodd;clip-rule:evenodd;fill:#918B4B;" points="1005.55,32.5 1008.45,26.4 1011.6,32.35 
			1008.45,28.45 		"/>
	</g>
	<g>
		<polygon style="fill-rule:evenodd;clip-rule:evenodd;fill:#918B4B;" points="1192.6,15.85 1197.4,5.65 1202.65,15.65 1197.4,9.15 
					"/>
	</g>
	<g>
		<polygon style="fill-rule:evenodd;clip-rule:evenodd;fill:#918B4B;" points="1138.3,30.5 1142.95,20.6 1148.05,30.3 
			1142.95,23.95 		"/>
	</g>
	<g>
		<polygon style="fill-rule:evenodd;clip-rule:evenodd;fill:#918B4B;" points="1110.5,20.55 1115.2,10.65 1120.25,20.35 
			1115.2,14.05 		"/>
	</g>
	<g>
		<polygon style="fill-rule:evenodd;clip-rule:evenodd;fill:#918B4B;" points="1081.5,15.3 1076.5,22.25 1081.5,11.75 1086.9,22 		
			"/>
	</g>
	<g>
		<polygon style="fill-rule:evenodd;clip-rule:evenodd;fill:#918B4B;" points="1027.45,14.65 1033.1,2.75 1039.25,14.4 1033.1,6.8 
					"/>
	</g>
</g>
<g>
	<rect x="1249.9" y="0.45" style="fill-rule:evenodd;clip-rule:evenodd;fill:#ABA254;" width="250" height="35"/>
	<g>
		<polygon style="fill-rule:evenodd;clip-rule:evenodd;fill:#918B4B;" points="1455.4,32.75 1459.9,23.25 1464.8,32.55 
			1459.9,26.45 		"/>
	</g>
	<g>
		<polygon style="fill-rule:evenodd;clip-rule:evenodd;fill:#918B4B;" points="1425.6,31.8 1430.5,21.55 1435.8,31.6 1430.5,25.05 
					"/>
	</g>
	<g>
		<polygon style="fill-rule:evenodd;clip-rule:evenodd;fill:#918B4B;" points="1376.45,15.25 1381.5,4.55 1387,15.05 1381.5,8.2 		
			"/>
	</g>
	<g>
		<polygon style="fill-rule:evenodd;clip-rule:evenodd;fill:#918B4B;" points="1343.3,30.1 1346.9,22.45 1350.85,29.95 
			1346.9,25.05 		"/>
	</g>
	<g>
		<polygon style="fill-rule:evenodd;clip-rule:evenodd;fill:#918B4B;" points="1306.8,14.4 1311.55,4.35 1316.75,14.15 
			1311.55,7.75 		"/>
	</g>
	<g>
		<polygon style="fill-rule:evenodd;clip-rule:evenodd;fill:#918B4B;" points="1273.55,29.6 1276.6,23.15 1279.9,29.5 1276.6,25.35 
					"/>
	</g>
	<g>
		<polygon style="fill-rule:evenodd;clip-rule:evenodd;fill:#918B4B;" points="1294.4,31.9 1299.6,20.9 1305.25,31.65 1299.6,24.65 
					"/>
	</g>
	<g>
		<polygon style="fill-rule:evenodd;clip-rule:evenodd;fill:#918B4B;" points="1346.75,9.1 1349.4,3.45 1352.3,9 1349.4,5.4 		"/>
	</g>
	<g>
		<polygon style="fill-rule:evenodd;clip-rule:evenodd;fill:#918B4B;" points="1371.8,31.25 1374.9,24.75 1378.25,31.15 
			1374.9,26.95 		"/>
	</g>
	<g>
		<polygon style="fill-rule:evenodd;clip-rule:evenodd;fill:#918B4B;" points="1403.45,15.8 1406.15,10.05 1409.15,15.7 1406.15,12 
					"/>
	</g>
	<g>
		<polygon style="fill-rule:evenodd;clip-rule:evenodd;fill:#918B4B;" points="1258.65,12.3 1261.4,6.5 1264.35,12.15 1261.4,8.45 
					"/>
	</g>
	<g>
		<polygon style="fill-rule:evenodd;clip-rule:evenodd;fill:#918B4B;" points="1417.3,13.15 1421.4,4.55 1425.85,13 1421.4,7.45 		
			"/>
	</g>
	<g>
		<polygon style="fill-rule:evenodd;clip-rule:evenodd;fill:#918B4B;" points="1493.3,7.3 1488.8,13.6 1493.3,4.05 1498.2,13.4 		
			"/>
	</g>
	<g>
		<polygon style="fill-rule:evenodd;clip-rule:evenodd;fill:#918B4B;" points="1488.65,31.7 1491.7,25.25 1495.05,31.55 
			1491.7,27.45 		"/>
	</g>
	<g>
		<polygon style="fill-rule:evenodd;clip-rule:evenodd;fill:#918B4B;" points="1476,24 1478.9,17.9 1482.05,23.85 1478.9,19.95 		
			"/>
	</g>
	<g>
		<polygon style="fill-rule:evenodd;clip-rule:evenodd;fill:#918B4B;" points="1255.5,32.5 1258.4,26.4 1261.55,32.35 1258.4,28.45 
					"/>
	</g>
	<g>
		<polygon style="fill-rule:evenodd;clip-rule:evenodd;fill:#918B4B;" points="1442.55,15.85 1447.35,5.65 1452.6,15.65 
			1447.35,9.15 		"/>
	</g>
	<g>
		<polygon style="fill-rule:evenodd;clip-rule:evenodd;fill:#918B4B;" points="1388.25,30.5 1392.9,20.6 1398,30.3 1392.9,23.95 		
			"/>
	</g>
	<g>
		<polygon style="fill-rule:evenodd;clip-rule:evenodd;fill:#918B4B;" points="1360.45,20.55 1365.15,10.65 1370.2,20.35 
			1365.15,14.05 		"/>
	</g>
	<g>
		<polygon style="fill-rule:evenodd;clip-rule:evenodd;fill:#918B4B;" points="1331.45,15.3 1326.45,22.25 1331.45,11.75 
			1336.85,22 		"/>
	</g>
	<g>
		<polygon style="fill-rule:evenodd;clip-rule:evenodd;fill:#918B4B;" points="1277.4,14.65 1283.05,2.75 1289.2,14.4 1283.05,6.8 
					"/>
	</g>
</g>
</svg>
