<?xml version="1.0" encoding="iso-8859-1"?>
<!-- Generator: Adobe Illustrator 15.1.0, SVG Export Plug-In . SVG Version: 6.00 Build 0)  -->
<!DOCTYPE svg PUBLIC "-//W3C//DTD SVG 1.1//EN" "http://www.w3.org/Graphics/SVG/1.1/DTD/svg11.dtd">
<svg version="1.1" id="ground" xmlns="http://www.w3.org/2000/svg" xmlns:xlink="http://www.w3.org/1999/xlink" x="0px" y="0px"
	 width="2500px" height="110.55px" viewBox="0 0 2500 110.55" style="enable-background:new 0 0 2500 110.55;" xml:space="preserve"
	>
<g>
	<g>
		<path style="fill-rule:evenodd;clip-rule:evenodd;fill:#ABA254;" d="M2447.587,33.9c24.435,4.4,41.901,6.6,52.401,6.6v70.05
			H1999.98V40.5c14.633,0,29.701-2.033,45.201-6.1c5.267-1.4,19.366-5.933,42.301-13.6c18.733-6.233,35.649-10.85,50.75-13.85
			c21.801-4.3,45.284-6.6,70.451-6.9c22.233-0.433,48.934,1.417,80.102,5.55c22.7,3,50.701,7.667,84.001,14
			C2390.919,23.033,2415.854,27.8,2447.587,33.9z"/>
	</g>
	<g>
		<polygon style="fill-rule:evenodd;clip-rule:evenodd;fill:#918B4B;" points="2046.131,101.25 2041.881,95.3 2037.281,101.05 
			2041.881,92.25 		"/>
	</g>
	<g>
		<polygon style="fill-rule:evenodd;clip-rule:evenodd;fill:#918B4B;" points="2076.232,89.25 2071.081,82.1 2065.531,89 
			2071.081,78.4 		"/>
	</g>
	<g>
		<polygon style="fill-rule:evenodd;clip-rule:evenodd;fill:#918B4B;" points="2102.832,86.8 2098.433,92.25 2102.832,83.9 
			2106.882,92.45 		"/>
	</g>
	<g>
		<polygon style="fill-rule:evenodd;clip-rule:evenodd;fill:#918B4B;" points="2139.383,94.35 2134.882,88.15 2130.082,94.2 
			2134.882,84.95 		"/>
	</g>
	<g>
		<polygon style="fill-rule:evenodd;clip-rule:evenodd;fill:#918B4B;" points="2163.583,85 2158.783,78.3 2153.533,84.8 
			2158.783,74.85 		"/>
	</g>
	<g>
		<polygon style="fill-rule:evenodd;clip-rule:evenodd;fill:#918B4B;" points="2197.184,93 2194.333,89.05 2191.283,92.9 
			2194.333,87 		"/>
	</g>
	<g>
		<polygon style="fill-rule:evenodd;clip-rule:evenodd;fill:#918B4B;" points="2225.484,78.35 2220.334,84.75 2225.484,74.95 
			2230.234,84.95 		"/>
	</g>
	<g>
		<polygon style="fill-rule:evenodd;clip-rule:evenodd;fill:#918B4B;" points="2256.834,97.65 2252.234,91.3 2247.234,97.45 
			2252.234,88 		"/>
	</g>
	<g>
		<polygon style="fill-rule:evenodd;clip-rule:evenodd;fill:#918B4B;" points="2278.635,90.3 2273.436,83.05 2267.734,90.1 
			2273.436,79.25 		"/>
	</g>
	<g>
		<polygon style="fill-rule:evenodd;clip-rule:evenodd;fill:#918B4B;" points="2320.186,90.25 2316.085,84.55 2311.635,90.05 
			2316.085,81.6 		"/>
	</g>
	<g>
		<polygon style="fill-rule:evenodd;clip-rule:evenodd;fill:#918B4B;" points="2352.736,100.65 2347.636,93.5 2342.035,100.4 
			2347.636,89.85 		"/>
	</g>
	<g>
		<polygon style="fill-rule:evenodd;clip-rule:evenodd;fill:#918B4B;" points="2382.437,104.15 2379.486,100.05 2376.286,104 
			2379.486,97.95 		"/>
	</g>
	<g>
		<polygon style="fill-rule:evenodd;clip-rule:evenodd;fill:#918B4B;" points="2404.938,91.7 2402.287,88 2399.387,91.55 
			2402.287,86.1 		"/>
	</g>
	<g>
		<polygon style="fill-rule:evenodd;clip-rule:evenodd;fill:#918B4B;" points="2421.537,37.1 2418.887,33.4 2415.987,36.95 
			2418.887,31.5 		"/>
	</g>
	<g>
		<polygon style="fill-rule:evenodd;clip-rule:evenodd;fill:#918B4B;" points="2438.337,95.75 2432.987,88.3 2427.137,95.55 
			2432.987,84.45 		"/>
	</g>
	<g>
		<polygon style="fill-rule:evenodd;clip-rule:evenodd;fill:#918B4B;" points="2465.838,79.8 2459.738,87.3 2465.838,75.8 
			2471.438,87.55 		"/>
	</g>
	<g>
		<polygon style="fill-rule:evenodd;clip-rule:evenodd;fill:#918B4B;" points="2496.338,100.5 2491.638,93.9 2486.488,100.3 
			2491.638,90.5 		"/>
	</g>
	<g>
		<polygon style="fill-rule:evenodd;clip-rule:evenodd;fill:#918B4B;" points="2227.784,104.95 2222.435,97.55 2216.634,104.75 
			2222.435,93.7 		"/>
	</g>
	<g>
		<polygon style="fill-rule:evenodd;clip-rule:evenodd;fill:#918B4B;" points="2456.338,104.8 2453.237,100.55 2449.938,104.7 
			2453.237,98.35 		"/>
	</g>
	<g>
		<polygon style="fill-rule:evenodd;clip-rule:evenodd;fill:#918B4B;" points="2169.684,103.8 2164.434,96.55 2158.783,103.55 
			2164.434,92.8 		"/>
	</g>
	<g>
		<polygon style="fill-rule:evenodd;clip-rule:evenodd;fill:#918B4B;" points="2497.388,71.05 2494.438,67 2491.288,70.9 
			2494.438,64.9 		"/>
	</g>
	<g>
		<polygon style="fill-rule:evenodd;clip-rule:evenodd;fill:#918B4B;" points="2467.637,66.25 2465.037,62.6 2462.188,66.15 
			2465.037,60.75 		"/>
	</g>
	<g>
		<polygon style="fill-rule:evenodd;clip-rule:evenodd;fill:#918B4B;" points="2438.438,75.85 2433.887,69.55 2428.938,75.65 
			2433.887,66.25 		"/>
	</g>
	<g>
		<polygon style="fill-rule:evenodd;clip-rule:evenodd;fill:#918B4B;" points="2400.938,72.15 2396.336,65.7 2391.286,71.95 
			2396.336,62.4 		"/>
	</g>
	<g>
		<polygon style="fill-rule:evenodd;clip-rule:evenodd;fill:#918B4B;" points="2371.236,73.25 2367.786,68.4 2363.986,73.1 
			2367.786,65.95 		"/>
	</g>
	<g>
		<polygon style="fill-rule:evenodd;clip-rule:evenodd;fill:#918B4B;" points="2347.136,78.75 2344.486,75.05 2341.586,78.65 
			2344.486,73.15 		"/>
	</g>
	<g>
		<polygon style="fill-rule:evenodd;clip-rule:evenodd;fill:#918B4B;" points="2468.988,43.05 2466.088,46.65 2468.988,41.15 
			2471.637,46.75 		"/>
	</g>
	<g>
		<polygon style="fill-rule:evenodd;clip-rule:evenodd;fill:#918B4B;" points="2293.135,14.55 2290.485,10.85 2287.585,14.45 
			2290.485,8.95 		"/>
	</g>
	<g>
		<polygon style="fill-rule:evenodd;clip-rule:evenodd;fill:#918B4B;" points="2324.035,68.4 2321.285,64.55 2318.285,68.25 
			2321.285,62.6 		"/>
	</g>
	<g>
		<polygon style="fill-rule:evenodd;clip-rule:evenodd;fill:#918B4B;" points="2379.536,87.9 2376.786,84.05 2373.786,87.75 
			2376.786,82.1 		"/>
	</g>
	<g>
		<polygon style="fill-rule:evenodd;clip-rule:evenodd;fill:#918B4B;" points="2294.686,78.4 2291.285,73.65 2287.535,78.25 
			2291.285,71.2 		"/>
	</g>
	<g>
		<polygon style="fill-rule:evenodd;clip-rule:evenodd;fill:#918B4B;" points="2262.634,67.7 2259.435,63.25 2256.034,67.55 
			2259.435,61 		"/>
	</g>
	<g>
		<polygon style="fill-rule:evenodd;clip-rule:evenodd;fill:#918B4B;" points="2267.135,14.25 2263.984,9.85 2260.534,14.1 
			2263.984,7.55 		"/>
	</g>
	<g>
		<polygon style="fill-rule:evenodd;clip-rule:evenodd;fill:#918B4B;" points="2218.534,26.65 2215.383,22.2 2211.934,26.5 
			2215.383,19.95 		"/>
	</g>
	<g>
		<polygon style="fill-rule:evenodd;clip-rule:evenodd;fill:#918B4B;" points="2198.133,108.75 2194.983,104.35 2191.533,108.6 
			2194.983,102.05 		"/>
	</g>
	<g>
		<polygon style="fill-rule:evenodd;clip-rule:evenodd;fill:#918B4B;" points="2210.133,8.75 2206.984,4.35 2203.533,8.6 
			2206.984,2.05 		"/>
	</g>
	<g>
		<polygon style="fill-rule:evenodd;clip-rule:evenodd;fill:#918B4B;" points="2234.084,65.3 2229.084,58.4 2223.634,65.1 
			2229.084,54.8 		"/>
	</g>
	<g>
		<polygon style="fill-rule:evenodd;clip-rule:evenodd;fill:#918B4B;" points="2204.434,75.95 2199.184,68.65 2193.434,75.7 
			2199.184,64.85 		"/>
	</g>
	<g>
		<polygon style="fill-rule:evenodd;clip-rule:evenodd;fill:#918B4B;" points="2179.333,73.7 2174.783,67.35 2169.783,73.5 
			2174.783,64.05 		"/>
	</g>
	<g>
		<polygon style="fill-rule:evenodd;clip-rule:evenodd;fill:#918B4B;" points="2145.533,71.05 2142.133,66.3 2138.383,70.9 
			2142.133,63.85 		"/>
	</g>
	<g>
		<polygon style="fill-rule:evenodd;clip-rule:evenodd;fill:#918B4B;" points="2413.387,108.1 2409.987,103.35 2406.287,107.95 
			2409.987,100.9 		"/>
	</g>
	<g>
		<polygon style="fill-rule:evenodd;clip-rule:evenodd;fill:#918B4B;" points="2113.132,64.15 2108.382,57.55 2103.232,63.95 
			2108.382,54.15 		"/>
	</g>
	<g>
		<polygon style="fill-rule:evenodd;clip-rule:evenodd;fill:#918B4B;" points="2082.281,66.3 2079.281,62.1 2075.982,66.15 
			2079.281,59.95 		"/>
	</g>
	<g>
		<polygon style="fill-rule:evenodd;clip-rule:evenodd;fill:#918B4B;" points="2013.631,78.65 2010.63,74.5 2007.38,78.55 
			2010.63,72.3 		"/>
	</g>
	<g>
		<polygon style="fill-rule:evenodd;clip-rule:evenodd;fill:#918B4B;" points="2057.831,72.8 2052.331,65.15 2046.381,72.55 
			2052.331,61.2 		"/>
	</g>
	<g>
		<polygon style="fill-rule:evenodd;clip-rule:evenodd;fill:#918B4B;" points="2032.682,67.8 2028.481,62 2023.932,67.65 
			2028.481,59 		"/>
	</g>
	<g>
		<polygon style="fill-rule:evenodd;clip-rule:evenodd;fill:#918B4B;" points="2019.23,49 2014.83,42.9 2010.08,48.8 2014.83,39.8 
					"/>
	</g>
	<g>
		<polygon style="fill-rule:evenodd;clip-rule:evenodd;fill:#918B4B;" points="2051.331,47 2046.481,40.25 2041.231,46.8 
			2046.481,36.75 		"/>
	</g>
	<g>
		<polygon style="fill-rule:evenodd;clip-rule:evenodd;fill:#918B4B;" points="2072.182,53.75 2066.481,45.8 2060.281,53.5 
			2066.481,41.7 		"/>
	</g>
	<g>
		<polygon style="fill-rule:evenodd;clip-rule:evenodd;fill:#918B4B;" points="2100.382,46.2 2096.683,41.05 2092.632,46.05 
			2096.683,38.35 		"/>
	</g>
	<g>
		<polygon style="fill-rule:evenodd;clip-rule:evenodd;fill:#918B4B;" points="2130.632,31.65 2127.382,27.15 2123.832,31.55 
			2127.382,24.85 		"/>
	</g>
	<g>
		<polygon style="fill-rule:evenodd;clip-rule:evenodd;fill:#918B4B;" points="2142.133,19.15 2138.883,14.65 2135.332,19.05 
			2138.883,12.35 		"/>
	</g>
	<g>
		<polygon style="fill-rule:evenodd;clip-rule:evenodd;fill:#918B4B;" points="2151.184,56 2147.982,51.55 2144.533,55.85 
			2147.982,49.25 		"/>
	</g>
	<g>
		<polygon style="fill-rule:evenodd;clip-rule:evenodd;fill:#918B4B;" points="2193.934,58.3 2191.283,54.55 2188.333,58.15 
			2191.283,52.6 		"/>
	</g>
	<g>
		<polygon style="fill-rule:evenodd;clip-rule:evenodd;fill:#918B4B;" points="2173.934,49.3 2171.233,45.55 2168.283,49.15 
			2171.233,43.6 		"/>
	</g>
	<g>
		<polygon style="fill-rule:evenodd;clip-rule:evenodd;fill:#918B4B;" points="2020.182,105.8 2017.48,102.05 2014.58,105.7 
			2017.48,100.15 		"/>
	</g>
	<g>
		<polygon style="fill-rule:evenodd;clip-rule:evenodd;fill:#918B4B;" points="2225.935,36.1 2221.534,41.55 2225.935,33.15 
			2230.034,41.75 		"/>
	</g>
	<g>
		<polygon style="fill-rule:evenodd;clip-rule:evenodd;fill:#918B4B;" points="2241.084,16.45 2236.984,10.8 2232.584,16.3 
			2236.984,7.9 		"/>
	</g>
	<g>
		<polygon style="fill-rule:evenodd;clip-rule:evenodd;fill:#918B4B;" points="2256.584,55.85 2251.634,48.95 2246.234,55.65 
			2251.634,45.4 		"/>
	</g>
	<g>
		<polygon style="fill-rule:evenodd;clip-rule:evenodd;fill:#918B4B;" points="2288.485,57.5 2284.936,52.5 2281.035,57.35 
			2284.936,49.95 		"/>
	</g>
	<g>
		<polygon style="fill-rule:evenodd;clip-rule:evenodd;fill:#918B4B;" points="2315.436,57.25 2310.535,50.4 2305.186,57 
			2310.535,46.9 		"/>
	</g>
	<g>
		<polygon style="fill-rule:evenodd;clip-rule:evenodd;fill:#918B4B;" points="2347.187,55.1 2344.187,51 2340.936,55 
			2344.187,48.85 		"/>
	</g>
	<g>
		<polygon style="fill-rule:evenodd;clip-rule:evenodd;fill:#918B4B;" points="2380.036,49 2375.336,42.45 2370.236,48.75 
			2375.336,39.05 		"/>
	</g>
	<g>
		<polygon style="fill-rule:evenodd;clip-rule:evenodd;fill:#918B4B;" points="2408.487,56.15 2403.287,48.85 2397.586,55.95 
			2403.287,45.1 		"/>
	</g>
	<g>
		<polygon style="fill-rule:evenodd;clip-rule:evenodd;fill:#918B4B;" points="2427.787,54.35 2424.137,58.9 2427.787,51.95 
			2431.137,59.05 		"/>
	</g>
	<g>
		<polygon style="fill-rule:evenodd;clip-rule:evenodd;fill:#918B4B;" points="2456.137,58.25 2452.737,53.55 2449.087,58.1 
			2452.737,51.15 		"/>
	</g>
	<g>
		<polygon style="fill-rule:evenodd;clip-rule:evenodd;fill:#918B4B;" points="2490.488,57.45 2486.188,51.45 2481.488,57.25 
			2486.188,48.35 		"/>
	</g>
	<g>
		<polygon style="fill-rule:evenodd;clip-rule:evenodd;fill:#918B4B;" points="2031.731,91.7 2025.981,83.7 2019.73,91.45 
			2025.981,79.55 		"/>
	</g>
	<g>
		<polygon style="fill-rule:evenodd;clip-rule:evenodd;fill:#918B4B;" points="2061.981,101.2 2055.731,108.95 2061.981,97.05 
			2067.731,109.2 		"/>
	</g>
	<g>
		<polygon style="fill-rule:evenodd;clip-rule:evenodd;fill:#918B4B;" points="2272.084,108.8 2268.484,103.8 2264.584,108.65 
			2268.484,101.25 		"/>
	</g>
	<g>
		<polygon style="fill-rule:evenodd;clip-rule:evenodd;fill:#918B4B;" points="2302.335,106.4 2297.436,99.55 2292.035,106.2 
			2297.436,96 		"/>
	</g>
	<g>
		<polygon style="fill-rule:evenodd;clip-rule:evenodd;fill:#918B4B;" points="2089.332,102.8 2086.232,98.55 2082.932,102.65 
			2086.232,96.35 		"/>
	</g>
	<g>
		<polygon style="fill-rule:evenodd;clip-rule:evenodd;fill:#918B4B;" points="2478.738,107.85 2473.988,101.25 2468.838,107.65 
			2473.988,97.85 		"/>
	</g>
	<g>
		<polygon style="fill-rule:evenodd;clip-rule:evenodd;fill:#918B4B;" points="2449.337,41.35 2446.188,37 2442.837,41.2 
			2446.188,34.8 		"/>
	</g>
	<g>
		<polygon style="fill-rule:evenodd;clip-rule:evenodd;fill:#918B4B;" points="2328.836,108 2325.485,103.35 2321.835,107.85 
			2325.485,100.95 		"/>
	</g>
	<g>
		<polygon style="fill-rule:evenodd;clip-rule:evenodd;fill:#918B4B;" points="2398.787,36.3 2395.986,32.35 2392.938,36.15 
			2395.986,30.35 		"/>
	</g>
	<g>
		<polygon style="fill-rule:evenodd;clip-rule:evenodd;fill:#918B4B;" points="2369.386,33.4 2363.986,25.9 2358.136,33.2 
			2363.986,22.05 		"/>
	</g>
	<g>
		<polygon style="fill-rule:evenodd;clip-rule:evenodd;fill:#918B4B;" points="2338.936,32.45 2333.486,24.9 2327.585,32.25 
			2333.486,21.05 		"/>
	</g>
	<g>
		<polygon style="fill-rule:evenodd;clip-rule:evenodd;fill:#918B4B;" points="2303.635,30.05 2298.485,22.95 2292.936,29.85 
			2298.485,19.25 		"/>
	</g>
	<g>
		<polygon style="fill-rule:evenodd;clip-rule:evenodd;fill:#918B4B;" points="2277.484,37.85 2272.484,30.95 2267.084,37.65 
			2272.484,27.4 		"/>
	</g>
	<g>
		<polygon style="fill-rule:evenodd;clip-rule:evenodd;fill:#918B4B;" points="2253.384,36.4 2247.634,28.4 2241.435,36.15 
			2247.634,24.3 		"/>
	</g>
	<g>
		<polygon style="fill-rule:evenodd;clip-rule:evenodd;fill:#918B4B;" points="2213.834,50.6 2209.934,45.15 2205.684,50.4 
			2209.934,42.35 		"/>
	</g>
	<g>
		<polygon style="fill-rule:evenodd;clip-rule:evenodd;fill:#918B4B;" points="2195.033,34.3 2189.684,26.85 2183.833,34.1 
			2189.684,22.95 		"/>
	</g>
	<g>
		<polygon style="fill-rule:evenodd;clip-rule:evenodd;fill:#918B4B;" points="2160.184,30.9 2157.033,26.5 2153.633,30.75 
			2157.033,24.25 		"/>
	</g>
	<g>
		<polygon style="fill-rule:evenodd;clip-rule:evenodd;fill:#918B4B;" points="2181.633,15.7 2178.483,11.35 2175.083,15.55 
			2178.483,9.1 		"/>
	</g>
	<g>
		<polygon style="fill-rule:evenodd;clip-rule:evenodd;fill:#918B4B;" points="2140.232,46.1 2136.082,40.3 2131.532,45.9 
			2136.082,37.3 		"/>
	</g>
	<g>
		<polygon style="fill-rule:evenodd;clip-rule:evenodd;fill:#918B4B;" points="2103.282,25.15 2099.782,29.5 2103.282,22.8 
			2106.532,29.65 		"/>
	</g>
	<g>
		<polygon style="fill-rule:evenodd;clip-rule:evenodd;fill:#918B4B;" points="2130.132,109.05 2124.482,101.2 2118.382,108.8 
			2124.482,97.15 		"/>
	</g>
	<g>
		<polygon style="fill-rule:evenodd;clip-rule:evenodd;fill:#918B4B;" points="2085.432,33.65 2081.982,28.85 2078.232,33.5 
			2081.982,26.35 		"/>
	</g>
	<g>
		<polygon style="fill-rule:evenodd;clip-rule:evenodd;fill:#918B4B;" points="2014.031,62.25 2010.48,57.3 2006.63,62.1 
			2010.48,54.75 		"/>
	</g>
</g>
<g>
	<g>
		<path style="fill-rule:evenodd;clip-rule:evenodd;fill:#ABA254;" d="M1000.015,70.5v40.05H500.008V40.5
			c14.7,0,44.4,1.267,89.101,3.8c44.667,2.5,79.352,3.75,104.052,3.75c34.9-0.033,91.551,3.7,169.953,11.2
			c51.234,4.9,78.317,7.483,81.251,7.75C970.765,69.333,989.315,70.5,1000.015,70.5z"/>
	</g>
	<g>
		<polygon style="fill-rule:evenodd;clip-rule:evenodd;fill:#918B4B;" points="546.158,101.25 541.908,95.3 537.308,101.05 
			541.908,92.25 		"/>
	</g>
	<g>
		<polygon style="fill-rule:evenodd;clip-rule:evenodd;fill:#918B4B;" points="576.259,89.25 571.109,82.1 565.559,89 571.109,78.4 
					"/>
	</g>
	<g>
		<polygon style="fill-rule:evenodd;clip-rule:evenodd;fill:#918B4B;" points="606.909,92.45 602.859,86.8 598.459,92.25 
			602.859,83.9 		"/>
	</g>
	<g>
		<polygon style="fill-rule:evenodd;clip-rule:evenodd;fill:#918B4B;" points="639.41,94.35 634.91,88.15 630.11,94.2 634.91,84.95 
					"/>
	</g>
	<g>
		<polygon style="fill-rule:evenodd;clip-rule:evenodd;fill:#918B4B;" points="663.61,85 658.81,78.3 653.56,84.8 658.81,74.85 		
			"/>
	</g>
	<g>
		<polygon style="fill-rule:evenodd;clip-rule:evenodd;fill:#918B4B;" points="697.211,93 694.361,89.05 691.261,92.9 694.361,87 		
			"/>
	</g>
	<g>
		<polygon style="fill-rule:evenodd;clip-rule:evenodd;fill:#918B4B;" points="725.511,78.35 720.361,84.75 725.511,74.95 
			730.261,84.95 		"/>
	</g>
	<g>
		<polygon style="fill-rule:evenodd;clip-rule:evenodd;fill:#918B4B;" points="756.862,97.65 752.262,91.3 747.261,97.45 
			752.262,88 		"/>
	</g>
	<g>
		<polygon style="fill-rule:evenodd;clip-rule:evenodd;fill:#918B4B;" points="778.662,90.3 773.462,83.05 767.762,90.1 
			773.462,79.25 		"/>
	</g>
	<g>
		<polygon style="fill-rule:evenodd;clip-rule:evenodd;fill:#918B4B;" points="820.213,90.25 816.112,84.55 811.662,90.05 
			816.112,81.6 		"/>
	</g>
	<g>
		<polygon style="fill-rule:evenodd;clip-rule:evenodd;fill:#918B4B;" points="852.763,100.65 847.663,93.5 842.063,100.4 
			847.663,89.85 		"/>
	</g>
	<g>
		<polygon style="fill-rule:evenodd;clip-rule:evenodd;fill:#918B4B;" points="882.464,104.15 879.514,100.05 876.313,104 
			879.514,97.95 		"/>
	</g>
	<g>
		<polygon style="fill-rule:evenodd;clip-rule:evenodd;fill:#918B4B;" points="904.964,91.7 902.313,88 899.414,91.55 902.313,86.1 
					"/>
	</g>
	<g>
		<polygon style="fill-rule:evenodd;clip-rule:evenodd;fill:#918B4B;" points="938.364,95.75 933.014,88.3 927.164,95.55 
			933.014,84.45 		"/>
	</g>
	<g>
		<polygon style="fill-rule:evenodd;clip-rule:evenodd;fill:#918B4B;" points="971.465,87.55 965.865,79.8 959.765,87.3 
			965.865,75.8 		"/>
	</g>
	<g>
		<polygon style="fill-rule:evenodd;clip-rule:evenodd;fill:#918B4B;" points="996.365,100.5 991.665,93.9 986.515,100.3 
			991.665,90.5 		"/>
	</g>
	<g>
		<polygon style="fill-rule:evenodd;clip-rule:evenodd;fill:#918B4B;" points="727.811,104.95 722.461,97.55 716.661,104.75 
			722.461,93.7 		"/>
	</g>
	<g>
		<polygon style="fill-rule:evenodd;clip-rule:evenodd;fill:#918B4B;" points="956.365,104.8 953.265,100.55 949.965,104.7 
			953.265,98.35 		"/>
	</g>
	<g>
		<polygon style="fill-rule:evenodd;clip-rule:evenodd;fill:#918B4B;" points="669.71,103.8 664.46,96.55 658.81,103.55 
			664.46,92.8 		"/>
	</g>
	<g>
		<polygon style="fill-rule:evenodd;clip-rule:evenodd;fill:#918B4B;" points="993.915,79.4 991.015,75.35 987.865,79.3 
			991.015,73.25 		"/>
	</g>
	<g>
		<polygon style="fill-rule:evenodd;clip-rule:evenodd;fill:#918B4B;" points="928.164,109.05 925.514,105.35 922.664,108.9 
			925.514,103.5 		"/>
	</g>
	<g>
		<polygon style="fill-rule:evenodd;clip-rule:evenodd;fill:#918B4B;" points="938.464,75.85 933.914,69.55 928.964,75.65 
			933.914,66.25 		"/>
	</g>
	<g>
		<polygon style="fill-rule:evenodd;clip-rule:evenodd;fill:#918B4B;" points="900.964,72.15 896.364,65.7 891.313,71.95 
			896.364,62.4 		"/>
	</g>
	<g>
		<polygon style="fill-rule:evenodd;clip-rule:evenodd;fill:#918B4B;" points="871.263,73.25 867.813,68.4 864.013,73.1 
			867.813,65.95 		"/>
	</g>
	<g>
		<polygon style="fill-rule:evenodd;clip-rule:evenodd;fill:#918B4B;" points="847.163,78.75 844.513,75.05 841.613,78.65 
			844.513,73.15 		"/>
	</g>
	<g>
		<polygon style="fill-rule:evenodd;clip-rule:evenodd;fill:#918B4B;" points="824.063,68.4 821.313,64.55 818.313,68.25 
			821.313,62.6 		"/>
	</g>
	<g>
		<polygon style="fill-rule:evenodd;clip-rule:evenodd;fill:#918B4B;" points="794.712,78.4 791.312,73.65 787.562,78.25 
			791.312,71.2 		"/>
	</g>
	<g>
		<polygon style="fill-rule:evenodd;clip-rule:evenodd;fill:#918B4B;" points="762.662,67.7 759.462,63.25 756.062,67.55 
			759.462,61 		"/>
	</g>
	<g>
		<polygon style="fill-rule:evenodd;clip-rule:evenodd;fill:#918B4B;" points="734.111,65.3 729.111,58.4 723.661,65.1 
			729.111,54.8 		"/>
	</g>
	<g>
		<polygon style="fill-rule:evenodd;clip-rule:evenodd;fill:#918B4B;" points="704.461,75.95 699.211,68.65 693.461,75.7 
			699.211,64.85 		"/>
	</g>
	<g>
		<polygon style="fill-rule:evenodd;clip-rule:evenodd;fill:#918B4B;" points="679.36,73.7 674.81,67.35 669.81,73.5 674.81,64.05 
					"/>
	</g>
	<g>
		<polygon style="fill-rule:evenodd;clip-rule:evenodd;fill:#918B4B;" points="645.56,71.05 642.16,66.3 638.41,70.9 642.16,63.85 
					"/>
	</g>
	<g>
		<polygon style="fill-rule:evenodd;clip-rule:evenodd;fill:#918B4B;" points="613.159,64.15 608.409,57.55 603.259,63.95 
			608.409,54.15 		"/>
	</g>
	<g>
		<polygon style="fill-rule:evenodd;clip-rule:evenodd;fill:#918B4B;" points="582.309,66.3 579.309,62.1 576.009,66.15 
			579.309,59.95 		"/>
	</g>
	<g>
		<polygon style="fill-rule:evenodd;clip-rule:evenodd;fill:#918B4B;" points="513.658,78.65 510.658,74.5 507.408,78.55 
			510.658,72.3 		"/>
	</g>
	<g>
		<polygon style="fill-rule:evenodd;clip-rule:evenodd;fill:#918B4B;" points="557.858,72.8 552.358,65.15 546.408,72.55 
			552.358,61.2 		"/>
	</g>
	<g>
		<polygon style="fill-rule:evenodd;clip-rule:evenodd;fill:#918B4B;" points="532.708,67.8 528.508,62 523.958,67.65 528.508,59 		
			"/>
	</g>
	<g>
		<polygon style="fill-rule:evenodd;clip-rule:evenodd;fill:#918B4B;" points="519.258,49 514.858,42.9 510.108,48.8 514.858,39.8 
					"/>
	</g>
	<g>
		<polygon style="fill-rule:evenodd;clip-rule:evenodd;fill:#918B4B;" points="566.509,45.8 560.309,53.5 566.509,41.7 
			572.209,53.75 		"/>
	</g>
	<g>
		<polygon style="fill-rule:evenodd;clip-rule:evenodd;fill:#918B4B;" points="651.21,56 648.01,51.55 644.56,55.85 648.01,49.25 		
			"/>
	</g>
	<g>
		<polygon style="fill-rule:evenodd;clip-rule:evenodd;fill:#918B4B;" points="693.961,58.3 691.311,54.55 688.36,58.15 
			691.311,52.6 		"/>
	</g>
	<g>
		<polygon style="fill-rule:evenodd;clip-rule:evenodd;fill:#918B4B;" points="693.711,107.2 691.011,103.5 688.11,107.1 
			691.011,101.55 		"/>
	</g>
	<g>
		<polygon style="fill-rule:evenodd;clip-rule:evenodd;fill:#918B4B;" points="520.208,105.8 517.508,102.05 514.608,105.7 
			517.508,100.15 		"/>
	</g>
	<g>
		<polygon style="fill-rule:evenodd;clip-rule:evenodd;fill:#918B4B;" points="751.962,63.6 747.011,56.75 741.661,63.4 
			747.011,53.2 		"/>
	</g>
	<g>
		<polygon style="fill-rule:evenodd;clip-rule:evenodd;fill:#918B4B;" points="788.562,61.8 785.012,56.8 781.112,61.65 
			785.012,54.25 		"/>
	</g>
	<g>
		<polygon style="fill-rule:evenodd;clip-rule:evenodd;fill:#918B4B;" points="807.512,60.25 802.212,66.85 807.512,56.75 
			812.412,67.05 		"/>
	</g>
	<g>
		<polygon style="fill-rule:evenodd;clip-rule:evenodd;fill:#918B4B;" points="849.513,68 846.513,63.85 843.263,67.85 
			846.513,61.7 		"/>
	</g>
	<g>
		<polygon style="fill-rule:evenodd;clip-rule:evenodd;fill:#918B4B;" points="826.063,109.5 821.363,102.95 816.263,109.25 
			821.363,99.55 		"/>
	</g>
	<g>
		<polygon style="fill-rule:evenodd;clip-rule:evenodd;fill:#918B4B;" points="888.764,89.5 883.514,82.25 877.813,89.3 
			883.514,78.45 		"/>
	</g>
	<g>
		<polygon style="fill-rule:evenodd;clip-rule:evenodd;fill:#918B4B;" points="899.164,108.55 895.813,103.85 892.164,108.4 
			895.813,101.45 		"/>
	</g>
	<g>
		<polygon style="fill-rule:evenodd;clip-rule:evenodd;fill:#918B4B;" points="980.815,108.3 976.515,102.3 971.814,108.1 
			976.515,99.2 		"/>
	</g>
	<g>
		<polygon style="fill-rule:evenodd;clip-rule:evenodd;fill:#918B4B;" points="802.362,106.4 797.462,99.55 792.062,106.2 
			797.462,96 		"/>
	</g>
	<g>
		<polygon style="fill-rule:evenodd;clip-rule:evenodd;fill:#918B4B;" points="589.359,102.8 586.259,98.55 582.959,102.65 
			586.259,96.35 		"/>
	</g>
	<g>
		<polygon style="fill-rule:evenodd;clip-rule:evenodd;fill:#918B4B;" points="670.66,59.7 667.51,55.35 664.11,59.55 667.51,53.1 
					"/>
	</g>
	<g>
		<polygon style="fill-rule:evenodd;clip-rule:evenodd;fill:#918B4B;" points="627.16,108.55 621.509,100.7 615.409,108.3 
			621.509,96.65 		"/>
	</g>
	<g>
		<polygon style="fill-rule:evenodd;clip-rule:evenodd;fill:#918B4B;" points="566.509,104.8 562.659,109.6 566.509,102.25 
			570.059,109.75 		"/>
	</g>
</g>
<g>
	<g>
		<path style="fill-rule:evenodd;clip-rule:evenodd;fill:#ABA254;" d="M1500.023,70.5v40.05h-500.008V70.5
			c10.967,0,24.201-2.55,39.701-7.65c8.867-2.933,23.267-8.55,43.201-16.85c19.367-8.1,34.117-13.767,44.25-17
			c16.334-5.167,30.667-7.817,43.001-7.95c33.634-0.333,68.618,2.034,104.951,7.1c26.667,3.733,56.968,9.417,90.901,17.05
			c18.534,4.2,43.685,9.983,75.452,17.35C1466.439,67.85,1485.956,70.5,1500.023,70.5z"/>
	</g>
	<g>
		<polygon style="fill-rule:evenodd;clip-rule:evenodd;fill:#918B4B;" points="1046.166,101.25 1041.916,95.3 1037.315,101.05 
			1041.916,92.25 		"/>
	</g>
	<g>
		<polygon style="fill-rule:evenodd;clip-rule:evenodd;fill:#918B4B;" points="1076.267,89.25 1071.116,82.1 1065.566,89 
			1071.116,78.4 		"/>
	</g>
	<g>
		<polygon style="fill-rule:evenodd;clip-rule:evenodd;fill:#918B4B;" points="1106.917,92.45 1102.867,86.8 1098.467,92.25 
			1102.867,83.9 		"/>
	</g>
	<g>
		<polygon style="fill-rule:evenodd;clip-rule:evenodd;fill:#918B4B;" points="1139.417,94.35 1134.917,88.15 1130.117,94.2 
			1134.917,84.95 		"/>
	</g>
	<g>
		<polygon style="fill-rule:evenodd;clip-rule:evenodd;fill:#918B4B;" points="1163.618,85 1158.817,78.3 1153.567,84.8 
			1158.817,74.85 		"/>
	</g>
	<g>
		<polygon style="fill-rule:evenodd;clip-rule:evenodd;fill:#918B4B;" points="1197.219,93 1194.368,89.05 1191.268,92.9 
			1194.368,87 		"/>
	</g>
	<g>
		<polygon style="fill-rule:evenodd;clip-rule:evenodd;fill:#918B4B;" points="1230.269,84.95 1225.519,78.35 1220.369,84.75 
			1225.519,74.95 		"/>
	</g>
	<g>
		<polygon style="fill-rule:evenodd;clip-rule:evenodd;fill:#918B4B;" points="1252.27,91.3 1247.269,97.45 1252.27,88 
			1256.869,97.65 		"/>
	</g>
	<g>
		<polygon style="fill-rule:evenodd;clip-rule:evenodd;fill:#918B4B;" points="1278.67,90.3 1273.47,83.05 1267.77,90.1 
			1273.47,79.25 		"/>
	</g>
	<g>
		<polygon style="fill-rule:evenodd;clip-rule:evenodd;fill:#918B4B;" points="1320.221,90.25 1316.12,84.55 1311.67,90.05 
			1316.12,81.6 		"/>
	</g>
	<g>
		<polygon style="fill-rule:evenodd;clip-rule:evenodd;fill:#918B4B;" points="1352.771,100.65 1347.671,93.5 1342.07,100.4 
			1347.671,89.85 		"/>
	</g>
	<g>
		<polygon style="fill-rule:evenodd;clip-rule:evenodd;fill:#918B4B;" points="1382.472,104.15 1379.521,100.05 1376.32,104 
			1379.521,97.95 		"/>
	</g>
	<g>
		<polygon style="fill-rule:evenodd;clip-rule:evenodd;fill:#918B4B;" points="1404.972,91.7 1402.321,88 1399.422,91.55 
			1402.321,86.1 		"/>
	</g>
	<g>
		<polygon style="fill-rule:evenodd;clip-rule:evenodd;fill:#918B4B;" points="1438.371,95.75 1433.021,88.3 1427.172,95.55 
			1433.021,84.45 		"/>
	</g>
	<g>
		<polygon style="fill-rule:evenodd;clip-rule:evenodd;fill:#918B4B;" points="1471.473,87.55 1465.872,79.8 1459.772,87.3 
			1465.872,75.8 		"/>
	</g>
	<g>
		<polygon style="fill-rule:evenodd;clip-rule:evenodd;fill:#918B4B;" points="1496.372,100.5 1491.673,93.9 1486.522,100.3 
			1491.673,90.5 		"/>
	</g>
	<g>
		<polygon style="fill-rule:evenodd;clip-rule:evenodd;fill:#918B4B;" points="1227.818,104.95 1222.469,97.55 1216.668,104.75 
			1222.469,93.7 		"/>
	</g>
	<g>
		<polygon style="fill-rule:evenodd;clip-rule:evenodd;fill:#918B4B;" points="1456.372,104.8 1453.272,100.55 1449.973,104.7 
			1453.272,98.35 		"/>
	</g>
	<g>
		<polygon style="fill-rule:evenodd;clip-rule:evenodd;fill:#918B4B;" points="1169.718,103.8 1164.468,96.55 1158.817,103.55 
			1164.468,92.8 		"/>
	</g>
	<g>
		<polygon style="fill-rule:evenodd;clip-rule:evenodd;fill:#918B4B;" points="1478.923,108.65 1476.022,104.6 1472.872,108.55 
			1476.022,102.5 		"/>
	</g>
	<g>
		<polygon style="fill-rule:evenodd;clip-rule:evenodd;fill:#918B4B;" points="1486.173,79.05 1483.522,75.35 1480.673,78.9 
			1483.522,73.5 		"/>
	</g>
	<g>
		<polygon style="fill-rule:evenodd;clip-rule:evenodd;fill:#918B4B;" points="1438.473,75.85 1433.922,69.55 1428.972,75.65 
			1433.922,66.25 		"/>
	</g>
	<g>
		<polygon style="fill-rule:evenodd;clip-rule:evenodd;fill:#918B4B;" points="1400.972,72.15 1396.371,65.7 1391.321,71.95 
			1396.371,62.4 		"/>
	</g>
	<g>
		<polygon style="fill-rule:evenodd;clip-rule:evenodd;fill:#918B4B;" points="1371.271,73.25 1367.82,68.4 1364.021,73.1 
			1367.82,65.95 		"/>
	</g>
	<g>
		<polygon style="fill-rule:evenodd;clip-rule:evenodd;fill:#918B4B;" points="1347.171,78.75 1344.521,75.05 1341.62,78.65 
			1344.521,73.15 		"/>
	</g>
	<g>
		<polygon style="fill-rule:evenodd;clip-rule:evenodd;fill:#918B4B;" points="1324.07,68.4 1321.32,64.55 1318.32,68.25 
			1321.32,62.6 		"/>
	</g>
	<g>
		<polygon style="fill-rule:evenodd;clip-rule:evenodd;fill:#918B4B;" points="1294.72,78.4 1291.319,73.65 1287.569,78.25 
			1291.319,71.2 		"/>
	</g>
	<g>
		<polygon style="fill-rule:evenodd;clip-rule:evenodd;fill:#918B4B;" points="1262.67,67.7 1259.47,63.25 1256.069,67.55 
			1259.47,61 		"/>
	</g>
	<g>
		<polygon style="fill-rule:evenodd;clip-rule:evenodd;fill:#918B4B;" points="1214.519,26.35 1211.068,30.6 1214.519,24.05 
			1217.668,30.75 		"/>
	</g>
	<g>
		<polygon style="fill-rule:evenodd;clip-rule:evenodd;fill:#918B4B;" points="1234.119,65.3 1229.119,58.4 1223.668,65.1 
			1229.119,54.8 		"/>
	</g>
	<g>
		<polygon style="fill-rule:evenodd;clip-rule:evenodd;fill:#918B4B;" points="1204.469,75.95 1199.219,68.65 1193.468,75.7 
			1199.219,64.85 		"/>
	</g>
	<g>
		<polygon style="fill-rule:evenodd;clip-rule:evenodd;fill:#918B4B;" points="1179.368,73.7 1174.818,67.35 1169.817,73.5 
			1174.818,64.05 		"/>
	</g>
	<g>
		<polygon style="fill-rule:evenodd;clip-rule:evenodd;fill:#918B4B;" points="1145.567,71.05 1142.167,66.3 1138.417,70.9 
			1142.167,63.85 		"/>
	</g>
	<g>
		<polygon style="fill-rule:evenodd;clip-rule:evenodd;fill:#918B4B;" points="1113.167,64.15 1108.417,57.55 1103.267,63.95 
			1108.417,54.15 		"/>
	</g>
	<g>
		<polygon style="fill-rule:evenodd;clip-rule:evenodd;fill:#918B4B;" points="1082.316,66.3 1079.316,62.1 1076.017,66.15 
			1079.316,59.95 		"/>
	</g>
	<g>
		<polygon style="fill-rule:evenodd;clip-rule:evenodd;fill:#918B4B;" points="1010.666,74.5 1007.415,78.55 1010.666,72.3 
			1013.666,78.65 		"/>
	</g>
	<g>
		<polygon style="fill-rule:evenodd;clip-rule:evenodd;fill:#918B4B;" points="1052.366,65.15 1046.416,72.55 1052.366,61.2 
			1057.866,72.8 		"/>
	</g>
	<g>
		<polygon style="fill-rule:evenodd;clip-rule:evenodd;fill:#918B4B;" points="1033.216,85.1 1029.016,79.3 1024.466,84.95 
			1029.016,76.3 		"/>
	</g>
	<g>
		<polygon style="fill-rule:evenodd;clip-rule:evenodd;fill:#918B4B;" points="1069.767,109.15 1064.016,101.2 1057.816,108.9 
			1064.016,97.1 		"/>
	</g>
	<g>
		<polygon style="fill-rule:evenodd;clip-rule:evenodd;fill:#918B4B;" points="1101.217,52 1097.517,46.8 1093.467,51.8 
			1097.517,44.15 		"/>
	</g>
	<g>
		<polygon style="fill-rule:evenodd;clip-rule:evenodd;fill:#918B4B;" points="1194.268,109.35 1191.018,104.85 1187.518,109.2 
			1191.018,102.5 		"/>
	</g>
	<g>
		<polygon style="fill-rule:evenodd;clip-rule:evenodd;fill:#918B4B;" points="1151.218,56 1148.018,51.55 1144.567,55.85 
			1148.018,49.25 		"/>
	</g>
	<g>
		<polygon style="fill-rule:evenodd;clip-rule:evenodd;fill:#918B4B;" points="1193.968,58.3 1191.318,54.55 1188.368,58.15 
			1191.318,52.6 		"/>
	</g>
	<g>
		<polygon style="fill-rule:evenodd;clip-rule:evenodd;fill:#918B4B;" points="1173.968,49.3 1171.268,45.55 1168.317,49.15 
			1171.268,43.6 		"/>
	</g>
	<g>
		<polygon style="fill-rule:evenodd;clip-rule:evenodd;fill:#918B4B;" points="1020.216,105.8 1017.516,102.05 1014.616,105.7 
			1017.516,100.15 		"/>
	</g>
	<g>
		<polygon style="fill-rule:evenodd;clip-rule:evenodd;fill:#918B4B;" points="1230.068,41.75 1225.969,36.1 1221.568,41.55 
			1225.969,33.15 		"/>
	</g>
	<g>
		<polygon style="fill-rule:evenodd;clip-rule:evenodd;fill:#918B4B;" points="1256.619,55.85 1251.67,48.95 1246.269,55.65 
			1251.67,45.4 		"/>
	</g>
	<g>
		<polygon style="fill-rule:evenodd;clip-rule:evenodd;fill:#918B4B;" points="1288.52,57.5 1284.97,52.5 1281.069,57.35 
			1284.97,49.95 		"/>
	</g>
	<g>
		<polygon style="fill-rule:evenodd;clip-rule:evenodd;fill:#918B4B;" points="1315.471,57.25 1310.57,50.4 1305.22,57 
			1310.57,46.9 		"/>
	</g>
	<g>
		<polygon style="fill-rule:evenodd;clip-rule:evenodd;fill:#918B4B;" points="1347.221,55.1 1344.221,51 1340.971,55 
			1344.221,48.85 		"/>
	</g>
	<g>
		<polygon style="fill-rule:evenodd;clip-rule:evenodd;fill:#918B4B;" points="1372.521,51.75 1367.421,58.1 1372.521,48.4 
			1377.221,58.3 		"/>
	</g>
	<g>
		<polygon style="fill-rule:evenodd;clip-rule:evenodd;fill:#918B4B;" points="1324.671,108.55 1321.32,103.85 1317.671,108.4 
			1321.32,101.45 		"/>
	</g>
	<g>
		<polygon style="fill-rule:evenodd;clip-rule:evenodd;fill:#918B4B;" points="1425.021,108.95 1420.722,102.95 1416.021,108.75 
			1420.722,99.85 		"/>
	</g>
	<g>
		<polygon style="fill-rule:evenodd;clip-rule:evenodd;fill:#918B4B;" points="1302.369,106.4 1297.47,99.55 1292.069,106.2 
			1297.47,96 		"/>
	</g>
	<g>
		<polygon style="fill-rule:evenodd;clip-rule:evenodd;fill:#918B4B;" points="1089.367,102.8 1086.267,98.55 1082.967,102.65 
			1086.267,96.35 		"/>
	</g>
	<g>
		<polygon style="fill-rule:evenodd;clip-rule:evenodd;fill:#918B4B;" points="1270.819,108.95 1268.02,105.05 1264.97,108.85 
			1268.02,103.05 		"/>
	</g>
	<g>
		<polygon style="fill-rule:evenodd;clip-rule:evenodd;fill:#918B4B;" points="1277.52,37.85 1272.52,30.95 1267.119,37.65 
			1272.52,27.4 		"/>
	</g>
	<g>
		<polygon style="fill-rule:evenodd;clip-rule:evenodd;fill:#918B4B;" points="1253.42,36.4 1247.669,28.4 1241.469,36.15 
			1247.669,24.3 		"/>
	</g>
	<g>
		<polygon style="fill-rule:evenodd;clip-rule:evenodd;fill:#918B4B;" points="1213.869,50.6 1209.969,45.15 1205.719,50.4 
			1209.969,42.35 		"/>
	</g>
	<g>
		<polygon style="fill-rule:evenodd;clip-rule:evenodd;fill:#918B4B;" points="1195.068,34.3 1189.718,26.85 1183.868,34.1 
			1189.718,22.95 		"/>
	</g>
	<g>
		<polygon style="fill-rule:evenodd;clip-rule:evenodd;fill:#918B4B;" points="1160.218,30.9 1157.067,26.5 1153.667,30.75 
			1157.067,24.25 		"/>
	</g>
	<g>
		<polygon style="fill-rule:evenodd;clip-rule:evenodd;fill:#918B4B;" points="1140.268,46.1 1136.117,40.3 1131.567,45.9 
			1136.117,37.3 		"/>
	</g>
	<g>
		<polygon style="fill-rule:evenodd;clip-rule:evenodd;fill:#918B4B;" points="1124.567,107.15 1121.317,102.65 1117.817,107 
			1121.317,100.3 		"/>
	</g>
</g>
<g>
	<g>
		<path style="fill-rule:evenodd;clip-rule:evenodd;fill:#ABA254;" d="M1946.229,34.25c25.367,4.167,43.284,6.25,53.751,6.25v70.05
			h-499.957V70.5c14.434,0,38.15-2.066,71.15-6.2c10.733-1.366,44.567-5.983,101.502-13.85c46.268-6.4,83.834-11.167,112.701-14.3
			c41.568-4.5,76.484-7.033,104.752-7.6C1902.829,28.317,1921.529,30.217,1946.229,34.25z"/>
	</g>
	<g>
		<polygon style="fill-rule:evenodd;clip-rule:evenodd;fill:#918B4B;" points="1546.174,101.25 1541.924,95.3 1537.323,101.05 
			1541.924,92.25 		"/>
	</g>
	<g>
		<polygon style="fill-rule:evenodd;clip-rule:evenodd;fill:#918B4B;" points="1576.274,89.25 1571.123,82.1 1565.574,89 
			1571.123,78.4 		"/>
	</g>
	<g>
		<polygon style="fill-rule:evenodd;clip-rule:evenodd;fill:#918B4B;" points="1606.925,92.45 1602.874,86.8 1598.475,92.25 
			1602.874,83.9 		"/>
	</g>
	<g>
		<polygon style="fill-rule:evenodd;clip-rule:evenodd;fill:#918B4B;" points="1639.426,94.35 1634.926,88.15 1630.125,94.2 
			1634.926,84.95 		"/>
	</g>
	<g>
		<polygon style="fill-rule:evenodd;clip-rule:evenodd;fill:#918B4B;" points="1658.825,78.3 1653.575,84.8 1658.825,74.85 
			1663.625,85 		"/>
	</g>
	<g>
		<polygon style="fill-rule:evenodd;clip-rule:evenodd;fill:#918B4B;" points="1697.227,93 1694.375,89.05 1691.275,92.9 
			1694.375,87 		"/>
	</g>
	<g>
		<polygon style="fill-rule:evenodd;clip-rule:evenodd;fill:#918B4B;" points="1730.276,84.95 1725.526,78.35 1720.376,84.75 
			1725.526,74.95 		"/>
	</g>
	<g>
		<polygon style="fill-rule:evenodd;clip-rule:evenodd;fill:#918B4B;" points="1756.877,97.65 1752.276,91.3 1747.276,97.45 
			1752.276,88 		"/>
	</g>
	<g>
		<polygon style="fill-rule:evenodd;clip-rule:evenodd;fill:#918B4B;" points="1778.678,90.3 1773.478,83.05 1767.777,90.1 
			1773.478,79.25 		"/>
	</g>
	<g>
		<polygon style="fill-rule:evenodd;clip-rule:evenodd;fill:#918B4B;" points="1820.229,90.25 1816.127,84.55 1811.678,90.05 
			1816.127,81.6 		"/>
	</g>
	<g>
		<polygon style="fill-rule:evenodd;clip-rule:evenodd;fill:#918B4B;" points="1852.778,100.65 1847.679,93.5 1842.078,100.4 
			1847.679,89.85 		"/>
	</g>
	<g>
		<polygon style="fill-rule:evenodd;clip-rule:evenodd;fill:#918B4B;" points="1882.479,104.15 1879.528,100.05 1876.328,104 
			1879.528,97.95 		"/>
	</g>
	<g>
		<polygon style="fill-rule:evenodd;clip-rule:evenodd;fill:#918B4B;" points="1902.329,88 1899.43,91.55 1902.329,86.1 
			1904.979,91.7 		"/>
	</g>
	<g>
		<polygon style="fill-rule:evenodd;clip-rule:evenodd;fill:#918B4B;" points="1938.379,95.75 1933.029,88.3 1927.18,95.55 
			1933.029,84.45 		"/>
	</g>
	<g>
		<polygon style="fill-rule:evenodd;clip-rule:evenodd;fill:#918B4B;" points="1971.48,87.55 1965.88,79.8 1959.78,87.3 
			1965.88,75.8 		"/>
	</g>
	<g>
		<polygon style="fill-rule:evenodd;clip-rule:evenodd;fill:#918B4B;" points="1996.33,100.5 1991.63,93.9 1986.48,100.3 
			1991.63,90.5 		"/>
	</g>
	<g>
		<polygon style="fill-rule:evenodd;clip-rule:evenodd;fill:#918B4B;" points="1727.826,104.95 1722.477,97.55 1716.677,104.75 
			1722.477,93.7 		"/>
	</g>
	<g>
		<polygon style="fill-rule:evenodd;clip-rule:evenodd;fill:#918B4B;" points="1956.38,104.8 1953.279,100.55 1949.98,104.7 
			1953.279,98.35 		"/>
	</g>
	<g>
		<polygon style="fill-rule:evenodd;clip-rule:evenodd;fill:#918B4B;" points="1669.726,103.8 1664.476,96.55 1658.825,103.55 
			1664.476,92.8 		"/>
	</g>
	<g>
		<polygon style="fill-rule:evenodd;clip-rule:evenodd;fill:#918B4B;" points="1997.38,71.05 1994.431,67 1991.28,70.9 
			1994.431,64.9 		"/>
	</g>
	<g>
		<polygon style="fill-rule:evenodd;clip-rule:evenodd;fill:#918B4B;" points="1967.681,66.25 1965.08,62.6 1962.23,66.15 
			1965.08,60.75 		"/>
	</g>
	<g>
		<polygon style="fill-rule:evenodd;clip-rule:evenodd;fill:#918B4B;" points="1938.479,75.85 1933.93,69.55 1928.979,75.65 
			1933.93,66.25 		"/>
	</g>
	<g>
		<polygon style="fill-rule:evenodd;clip-rule:evenodd;fill:#918B4B;" points="1900.979,72.15 1896.379,65.7 1891.328,71.95 
			1896.379,62.4 		"/>
	</g>
	<g>
		<polygon style="fill-rule:evenodd;clip-rule:evenodd;fill:#918B4B;" points="1871.278,73.25 1867.828,68.4 1864.028,73.1 
			1867.828,65.95 		"/>
	</g>
	<g>
		<polygon style="fill-rule:evenodd;clip-rule:evenodd;fill:#918B4B;" points="1847.179,78.75 1844.528,75.05 1841.628,78.65 
			1844.528,73.15 		"/>
	</g>
	<g>
		<polygon style="fill-rule:evenodd;clip-rule:evenodd;fill:#918B4B;" points="1821.328,64.55 1818.327,68.25 1821.328,62.6 
			1824.078,68.4 		"/>
	</g>
	<g>
		<polygon style="fill-rule:evenodd;clip-rule:evenodd;fill:#918B4B;" points="1794.728,78.4 1791.327,73.65 1787.577,78.25 
			1791.327,71.2 		"/>
	</g>
	<g>
		<polygon style="fill-rule:evenodd;clip-rule:evenodd;fill:#918B4B;" points="1762.678,67.7 1759.477,63.25 1756.076,67.55 
			1759.477,61 		"/>
	</g>
	<g>
		<polygon style="fill-rule:evenodd;clip-rule:evenodd;fill:#918B4B;" points="1647.676,107.65 1644.525,103.25 1641.075,107.5 
			1644.525,100.95 		"/>
	</g>
	<g>
		<polygon style="fill-rule:evenodd;clip-rule:evenodd;fill:#918B4B;" points="1734.126,65.3 1729.126,58.4 1723.677,65.1 
			1729.126,54.8 		"/>
	</g>
	<g>
		<polygon style="fill-rule:evenodd;clip-rule:evenodd;fill:#918B4B;" points="1699.227,68.65 1693.477,75.7 1699.227,64.85 
			1704.477,75.95 		"/>
	</g>
	<g>
		<polygon style="fill-rule:evenodd;clip-rule:evenodd;fill:#918B4B;" points="1679.375,73.7 1674.825,67.35 1669.825,73.5 
			1674.825,64.05 		"/>
	</g>
	<g>
		<polygon style="fill-rule:evenodd;clip-rule:evenodd;fill:#918B4B;" points="1645.575,71.05 1642.176,66.3 1638.426,70.9 
			1642.176,63.85 		"/>
	</g>
	<g>
		<polygon style="fill-rule:evenodd;clip-rule:evenodd;fill:#918B4B;" points="1915.93,109.6 1912.529,104.85 1908.829,109.45 
			1912.529,102.4 		"/>
	</g>
	<g>
		<polygon style="fill-rule:evenodd;clip-rule:evenodd;fill:#918B4B;" points="1615.524,66.75 1610.374,73.15 1615.524,63.35 
			1620.274,73.35 		"/>
	</g>
	<g>
		<polygon style="fill-rule:evenodd;clip-rule:evenodd;fill:#918B4B;" points="1589.024,73.85 1586.024,69.65 1582.774,73.7 
			1586.024,67.5 		"/>
	</g>
	<g>
		<polygon style="fill-rule:evenodd;clip-rule:evenodd;fill:#918B4B;" points="1513.674,78.65 1510.674,74.5 1507.424,78.55 
			1510.674,72.3 		"/>
	</g>
	<g>
		<polygon style="fill-rule:evenodd;clip-rule:evenodd;fill:#918B4B;" points="1532.023,108.35 1526.523,100.7 1520.573,108.15 
			1526.523,96.75 		"/>
	</g>
	<g>
		<polygon style="fill-rule:evenodd;clip-rule:evenodd;fill:#918B4B;" points="1537.224,85.3 1533.023,79.5 1528.474,85.15 
			1533.023,76.5 		"/>
	</g>
	<g>
		<polygon style="fill-rule:evenodd;clip-rule:evenodd;fill:#918B4B;" points="1556.373,81 1551.523,74.25 1546.273,80.8 
			1551.523,70.75 		"/>
	</g>
	<g>
		<polygon style="fill-rule:evenodd;clip-rule:evenodd;fill:#918B4B;" points="1569.773,107.65 1564.023,99.7 1557.823,107.4 
			1564.023,95.6 		"/>
	</g>
	<g>
		<polygon style="fill-rule:evenodd;clip-rule:evenodd;fill:#918B4B;" points="1657.226,60.8 1654.025,56.35 1650.575,60.65 
			1654.025,54.05 		"/>
	</g>
	<g>
		<polygon style="fill-rule:evenodd;clip-rule:evenodd;fill:#918B4B;" points="1693.977,58.3 1691.325,54.55 1688.375,58.15 
			1691.325,52.6 		"/>
	</g>
	<g>
		<polygon style="fill-rule:evenodd;clip-rule:evenodd;fill:#918B4B;" points="1512.724,104.6 1510.023,100.85 1507.123,104.5 
			1510.023,98.95 		"/>
	</g>
	<g>
		<polygon style="fill-rule:evenodd;clip-rule:evenodd;fill:#918B4B;" points="1688.625,108.4 1684.525,102.7 1680.125,108.2 
			1684.525,99.8 		"/>
	</g>
	<g>
		<polygon style="fill-rule:evenodd;clip-rule:evenodd;fill:#918B4B;" points="1756.627,55.85 1751.677,48.95 1746.276,55.65 
			1751.677,45.4 		"/>
	</g>
	<g>
		<polygon style="fill-rule:evenodd;clip-rule:evenodd;fill:#918B4B;" points="1788.527,57.5 1784.978,52.5 1781.077,57.35 
			1784.978,49.95 		"/>
	</g>
	<g>
		<polygon style="fill-rule:evenodd;clip-rule:evenodd;fill:#918B4B;" points="1815.478,57.25 1810.577,50.4 1805.228,57 
			1810.577,46.9 		"/>
	</g>
	<g>
		<polygon style="fill-rule:evenodd;clip-rule:evenodd;fill:#918B4B;" points="1847.229,55.1 1844.229,51 1840.979,55 
			1844.229,48.85 		"/>
	</g>
	<g>
		<polygon style="fill-rule:evenodd;clip-rule:evenodd;fill:#918B4B;" points="1880.078,49 1875.378,42.45 1870.278,48.75 
			1875.378,39.05 		"/>
	</g>
	<g>
		<polygon style="fill-rule:evenodd;clip-rule:evenodd;fill:#918B4B;" points="1908.529,56.15 1903.329,48.85 1897.629,55.95 
			1903.329,45.1 		"/>
	</g>
	<g>
		<polygon style="fill-rule:evenodd;clip-rule:evenodd;fill:#918B4B;" points="1931.18,59.05 1927.829,54.35 1924.18,58.9 
			1927.829,51.95 		"/>
	</g>
	<g>
		<polygon style="fill-rule:evenodd;clip-rule:evenodd;fill:#918B4B;" points="1956.181,58.25 1952.779,53.55 1949.129,58.1 
			1952.779,51.15 		"/>
	</g>
	<g>
		<polygon style="fill-rule:evenodd;clip-rule:evenodd;fill:#918B4B;" points="1990.48,57.45 1986.181,51.45 1981.48,57.25 
			1986.181,48.35 		"/>
	</g>
	<g>
		<polygon style="fill-rule:evenodd;clip-rule:evenodd;fill:#918B4B;" points="1862.028,103.8 1858.128,108.65 1862.028,101.25 
			1865.628,108.8 		"/>
	</g>
	<g>
		<polygon style="fill-rule:evenodd;clip-rule:evenodd;fill:#918B4B;" points="1802.377,106.4 1797.478,99.55 1792.077,106.2 
			1797.478,96 		"/>
	</g>
	<g>
		<polygon style="fill-rule:evenodd;clip-rule:evenodd;fill:#918B4B;" points="1589.374,102.8 1586.274,98.55 1582.975,102.65 
			1586.274,96.35 		"/>
	</g>
	<g>
		<polygon style="fill-rule:evenodd;clip-rule:evenodd;fill:#918B4B;" points="1979.73,108.85 1975.03,102.25 1969.88,108.65 
			1975.03,98.85 		"/>
	</g>
	<g>
		<polygon style="fill-rule:evenodd;clip-rule:evenodd;fill:#918B4B;" points="1948.129,44.2 1945.029,39.85 1941.629,44.05 
			1945.029,37.6 		"/>
	</g>
	<g>
		<polygon style="fill-rule:evenodd;clip-rule:evenodd;fill:#918B4B;" points="1893.829,37.3 1891.029,33.35 1887.979,37.15 
			1891.029,31.35 		"/>
	</g>
	<g>
		<polygon style="fill-rule:evenodd;clip-rule:evenodd;fill:#918B4B;" points="1829.429,108.7 1824.027,101.2 1818.178,108.5 
			1824.027,97.35 		"/>
	</g>
	<g>
		<polygon style="fill-rule:evenodd;clip-rule:evenodd;fill:#918B4B;" points="1839.479,44.75 1834.028,37.2 1828.128,44.55 
			1834.028,33.3 		"/>
	</g>
	<g>
		<polygon style="fill-rule:evenodd;clip-rule:evenodd;fill:#918B4B;" points="1802.678,48.55 1797.527,41.45 1791.978,48.35 
			1797.527,37.75 		"/>
	</g>
	<g>
		<polygon style="fill-rule:evenodd;clip-rule:evenodd;fill:#918B4B;" points="1741.026,101.75 1735.626,108.45 1741.026,98.2 
			1746.026,108.65 		"/>
	</g>
	<g>
		<polygon style="fill-rule:evenodd;clip-rule:evenodd;fill:#918B4B;" points="1713.427,56.25 1709.526,50.8 1705.276,56.05 
			1709.526,48 		"/>
	</g>
	<g>
		<polygon style="fill-rule:evenodd;clip-rule:evenodd;fill:#918B4B;" points="1616.024,99.7 1610.175,106.95 1616.024,95.85 
			1621.425,107.2 		"/>
	</g>
</g>
<g>
	<g>
		<path style="fill-rule:evenodd;clip-rule:evenodd;fill:#ABA254;" d="M500.008,40.5v70.05H0V40.5c6.7,0,23.15,0.867,49.351,2.6
			c15.633,1.033,43.717,2.9,84.251,5.6c83.635,5.267,146.969,7.55,190.003,6.85c19.167,0.7,48.718-1.55,88.651-6.75
			c22.234-2.933,37.367-4.816,45.4-5.65C474.224,41.383,488.341,40.5,500.008,40.5z"/>
	</g>
	<g>
		<polygon style="fill-rule:evenodd;clip-rule:evenodd;fill:#918B4B;" points="46.15,101.25 41.9,95.3 37.3,101.05 41.9,92.25 		"/>
	</g>
	<g>
		<polygon style="fill-rule:evenodd;clip-rule:evenodd;fill:#918B4B;" points="76.251,89.25 71.101,82.1 65.551,89 71.101,78.4 		
			"/>
	</g>
	<g>
		<polygon style="fill-rule:evenodd;clip-rule:evenodd;fill:#918B4B;" points="106.901,92.45 102.852,86.8 98.452,92.25 
			102.852,83.9 		"/>
	</g>
	<g>
		<polygon style="fill-rule:evenodd;clip-rule:evenodd;fill:#918B4B;" points="139.402,94.35 134.902,88.15 130.102,94.2 
			134.902,84.95 		"/>
	</g>
	<g>
		<polygon style="fill-rule:evenodd;clip-rule:evenodd;fill:#918B4B;" points="158.802,78.3 153.552,84.8 158.802,74.85 163.603,85 
					"/>
	</g>
	<g>
		<polygon style="fill-rule:evenodd;clip-rule:evenodd;fill:#918B4B;" points="197.203,93 194.353,89.05 191.253,92.9 194.353,87 		
			"/>
	</g>
	<g>
		<polygon style="fill-rule:evenodd;clip-rule:evenodd;fill:#918B4B;" points="230.253,84.95 225.503,78.35 220.354,84.75 
			225.503,74.95 		"/>
	</g>
	<g>
		<polygon style="fill-rule:evenodd;clip-rule:evenodd;fill:#918B4B;" points="256.854,97.65 252.254,91.3 247.254,97.45 
			252.254,88 		"/>
	</g>
	<g>
		<polygon style="fill-rule:evenodd;clip-rule:evenodd;fill:#918B4B;" points="278.654,90.3 273.455,83.05 267.754,90.1 
			273.455,79.25 		"/>
	</g>
	<g>
		<polygon style="fill-rule:evenodd;clip-rule:evenodd;fill:#918B4B;" points="320.205,90.25 316.105,84.55 311.655,90.05 
			316.105,81.6 		"/>
	</g>
	<g>
		<polygon style="fill-rule:evenodd;clip-rule:evenodd;fill:#918B4B;" points="352.755,100.65 347.655,93.5 342.055,100.4 
			347.655,89.85 		"/>
	</g>
	<g>
		<polygon style="fill-rule:evenodd;clip-rule:evenodd;fill:#918B4B;" points="382.456,104.15 379.506,100.05 376.306,104 
			379.506,97.95 		"/>
	</g>
	<g>
		<polygon style="fill-rule:evenodd;clip-rule:evenodd;fill:#918B4B;" points="404.957,91.7 402.306,88 399.406,91.55 402.306,86.1 
					"/>
	</g>
	<g>
		<polygon style="fill-rule:evenodd;clip-rule:evenodd;fill:#918B4B;" points="438.357,95.75 433.007,88.3 427.156,95.55 
			433.007,84.45 		"/>
	</g>
	<g>
		<polygon style="fill-rule:evenodd;clip-rule:evenodd;fill:#918B4B;" points="471.458,87.55 465.857,79.8 459.757,87.3 
			465.857,75.8 		"/>
	</g>
	<g>
		<polygon style="fill-rule:evenodd;clip-rule:evenodd;fill:#918B4B;" points="496.357,100.5 491.657,93.9 486.507,100.3 
			491.657,90.5 		"/>
	</g>
	<g>
		<polygon style="fill-rule:evenodd;clip-rule:evenodd;fill:#918B4B;" points="227.803,104.95 222.454,97.55 216.653,104.75 
			222.454,93.7 		"/>
	</g>
	<g>
		<polygon style="fill-rule:evenodd;clip-rule:evenodd;fill:#918B4B;" points="456.357,104.8 453.257,100.55 449.957,104.7 
			453.257,98.35 		"/>
	</g>
	<g>
		<polygon style="fill-rule:evenodd;clip-rule:evenodd;fill:#918B4B;" points="169.703,103.8 164.453,96.55 158.802,103.55 
			164.453,92.8 		"/>
	</g>
	<g>
		<polygon style="fill-rule:evenodd;clip-rule:evenodd;fill:#918B4B;" points="497.408,71.05 494.458,67 491.307,70.9 494.458,64.9 
					"/>
	</g>
	<g>
		<polygon style="fill-rule:evenodd;clip-rule:evenodd;fill:#918B4B;" points="467.657,66.25 465.057,62.6 462.207,66.15 
			465.057,60.75 		"/>
	</g>
	<g>
		<polygon style="fill-rule:evenodd;clip-rule:evenodd;fill:#918B4B;" points="438.457,75.85 433.907,69.55 428.957,75.65 
			433.907,66.25 		"/>
	</g>
	<g>
		<polygon style="fill-rule:evenodd;clip-rule:evenodd;fill:#918B4B;" points="400.956,72.15 396.356,65.7 391.306,71.95 
			396.356,62.4 		"/>
	</g>
	<g>
		<polygon style="fill-rule:evenodd;clip-rule:evenodd;fill:#918B4B;" points="371.256,73.25 367.806,68.4 364.005,73.1 
			367.806,65.95 		"/>
	</g>
	<g>
		<polygon style="fill-rule:evenodd;clip-rule:evenodd;fill:#918B4B;" points="347.155,78.75 344.505,75.05 341.605,78.65 
			344.505,73.15 		"/>
	</g>
	<g>
		<polygon style="fill-rule:evenodd;clip-rule:evenodd;fill:#918B4B;" points="321.305,64.55 318.305,68.25 321.305,62.6 
			324.055,68.4 		"/>
	</g>
	<g>
		<polygon style="fill-rule:evenodd;clip-rule:evenodd;fill:#918B4B;" points="294.705,78.4 291.304,73.65 287.554,78.25 
			291.304,71.2 		"/>
	</g>
	<g>
		<polygon style="fill-rule:evenodd;clip-rule:evenodd;fill:#918B4B;" points="262.654,67.7 259.454,63.25 256.054,67.55 
			259.454,61 		"/>
	</g>
	<g>
		<polygon style="fill-rule:evenodd;clip-rule:evenodd;fill:#918B4B;" points="234.104,65.3 229.104,58.4 223.653,65.1 
			229.104,54.8 		"/>
	</g>
	<g>
		<polygon style="fill-rule:evenodd;clip-rule:evenodd;fill:#918B4B;" points="199.203,68.65 193.453,75.7 199.203,64.85 
			204.453,75.95 		"/>
	</g>
	<g>
		<polygon style="fill-rule:evenodd;clip-rule:evenodd;fill:#918B4B;" points="179.353,73.7 174.802,67.35 169.802,73.5 
			174.802,64.05 		"/>
	</g>
	<g>
		<polygon style="fill-rule:evenodd;clip-rule:evenodd;fill:#918B4B;" points="145.552,71.05 142.152,66.3 138.402,70.9 
			142.152,63.85 		"/>
	</g>
	<g>
		<polygon style="fill-rule:evenodd;clip-rule:evenodd;fill:#918B4B;" points="113.152,64.15 108.401,57.55 103.251,63.95 
			108.401,54.15 		"/>
	</g>
	<g>
		<polygon style="fill-rule:evenodd;clip-rule:evenodd;fill:#918B4B;" points="79.301,62.1 76.001,66.15 79.301,59.95 82.301,66.3 
					"/>
	</g>
	<g>
		<polygon style="fill-rule:evenodd;clip-rule:evenodd;fill:#918B4B;" points="13.65,78.65 10.65,74.5 7.4,78.55 10.65,72.3 		"/>
	</g>
	<g>
		<polygon style="fill-rule:evenodd;clip-rule:evenodd;fill:#918B4B;" points="57.851,72.8 52.351,65.15 46.4,72.55 52.351,61.2 		
			"/>
	</g>
	<g>
		<polygon style="fill-rule:evenodd;clip-rule:evenodd;fill:#918B4B;" points="32.701,67.8 28.5,62 23.951,67.65 28.5,59 		"/>
	</g>
	<g>
		<polygon style="fill-rule:evenodd;clip-rule:evenodd;fill:#918B4B;" points="20.9,52.85 16.5,46.8 11.75,52.65 16.5,43.65 		"/>
	</g>
	<g>
		<polygon style="fill-rule:evenodd;clip-rule:evenodd;fill:#918B4B;" points="46.351,59 41.5,52.25 36.25,58.8 41.5,48.75 		"/>
	</g>
	<g>
		<polygon style="fill-rule:evenodd;clip-rule:evenodd;fill:#918B4B;" points="73.201,57.75 67.501,49.8 61.301,57.5 67.501,45.7 		
			"/>
	</g>
	<g>
		<polygon style="fill-rule:evenodd;clip-rule:evenodd;fill:#918B4B;" points="106.202,109.5 102.501,104.3 98.452,109.3 
			102.501,101.65 		"/>
	</g>
	<g>
		<polygon style="fill-rule:evenodd;clip-rule:evenodd;fill:#918B4B;" points="151.203,56 148.002,51.55 144.552,55.85 
			148.002,49.25 		"/>
	</g>
	<g>
		<polygon style="fill-rule:evenodd;clip-rule:evenodd;fill:#918B4B;" points="193.953,58.3 191.303,54.55 188.353,58.15 
			191.303,52.6 		"/>
	</g>
	<g>
		<polygon style="fill-rule:evenodd;clip-rule:evenodd;fill:#918B4B;" points="146.703,109.1 144.002,105.35 141.102,109 
			144.002,103.45 		"/>
	</g>
	<g>
		<polygon style="fill-rule:evenodd;clip-rule:evenodd;fill:#918B4B;" points="20.201,105.8 17.5,102.05 14.6,105.7 17.5,100.15 		
			"/>
	</g>
	<g>
		<polygon style="fill-rule:evenodd;clip-rule:evenodd;fill:#918B4B;" points="200.503,103.25 195.153,109.9 200.503,99.7 
			205.453,110.1 		"/>
	</g>
	<g>
		<polygon style="fill-rule:evenodd;clip-rule:evenodd;fill:#918B4B;" points="269.554,109.4 266.004,104.45 262.104,109.25 
			266.004,101.9 		"/>
	</g>
	<g>
		<polygon style="fill-rule:evenodd;clip-rule:evenodd;fill:#918B4B;" points="310.405,71.05 305.505,64.25 300.205,70.85 
			305.505,60.75 		"/>
	</g>
	<g>
		<polygon style="fill-rule:evenodd;clip-rule:evenodd;fill:#918B4B;" points="408.506,109 405.506,104.85 402.256,108.85 
			405.506,102.7 		"/>
	</g>
	<g>
		<polygon style="fill-rule:evenodd;clip-rule:evenodd;fill:#918B4B;" points="382.556,66 377.856,59.45 372.756,65.75 
			377.856,56.05 		"/>
	</g>
	<g>
		<polygon style="fill-rule:evenodd;clip-rule:evenodd;fill:#918B4B;" points="413.256,61.5 408.006,54.25 402.306,61.3 
			408.006,50.45 		"/>
	</g>
	<g>
		<polygon style="fill-rule:evenodd;clip-rule:evenodd;fill:#918B4B;" points="431.156,59.05 427.806,54.35 424.156,58.9 
			427.806,51.95 		"/>
	</g>
	<g>
		<polygon style="fill-rule:evenodd;clip-rule:evenodd;fill:#918B4B;" points="456.157,58.25 452.757,53.55 449.107,58.1 
			452.757,51.15 		"/>
	</g>
	<g>
		<polygon style="fill-rule:evenodd;clip-rule:evenodd;fill:#918B4B;" points="490.507,57.45 486.208,51.45 481.507,57.25 
			486.208,48.35 		"/>
	</g>
	<g>
		<polygon style="fill-rule:evenodd;clip-rule:evenodd;fill:#918B4B;" points="302.354,106.4 297.455,99.55 292.054,106.2 
			297.455,96 		"/>
	</g>
	<g>
		<polygon style="fill-rule:evenodd;clip-rule:evenodd;fill:#918B4B;" points="89.352,102.8 86.251,98.55 82.952,102.65 
			86.251,96.35 		"/>
	</g>
	<g>
		<polygon style="fill-rule:evenodd;clip-rule:evenodd;fill:#918B4B;" points="482.257,109.85 477.507,103.25 472.357,109.65 
			477.507,99.85 		"/>
	</g>
	<g>
		<polygon style="fill-rule:evenodd;clip-rule:evenodd;fill:#918B4B;" points="322.505,104.85 319.105,109.05 322.505,102.6 
			325.605,109.2 		"/>
	</g>
	<g>
		<polygon style="fill-rule:evenodd;clip-rule:evenodd;fill:#918B4B;" points="134.652,60.1 130.502,54.3 126.002,59.9 
			130.502,51.3 		"/>
	</g>
	<g>
		<polygon style="fill-rule:evenodd;clip-rule:evenodd;fill:#918B4B;" points="66.651,108.55 61.001,100.7 54.901,108.3 
			61.001,96.65 		"/>
	</g>
	<g>
		<polygon style="fill-rule:evenodd;clip-rule:evenodd;fill:#918B4B;" points="26.55,91.75 23,86.8 19.15,91.6 23,84.25 		"/>
	</g>
</g>
</svg>
