<?xml version="1.0" encoding="iso-8859-1"?>
<!-- Generator: Adobe Illustrator 15.1.0, SVG Export Plug-In . SVG Version: 6.00 Build 0)  -->
<!DOCTYPE svg PUBLIC "-//W3C//DTD SVG 1.1//EN" "http://www.w3.org/Graphics/SVG/1.1/DTD/svg11.dtd">
<svg version="1.1" id="ground_x5F_mid_x5F_left.ai" xmlns="http://www.w3.org/2000/svg" xmlns:xlink="http://www.w3.org/1999/xlink"
	 x="0px" y="0px" width="292.5px" height="267px" viewBox="0 0 292.5 267" style="enable-background:new 0 0 292.5 267;"
	 xml:space="preserve">
<g>
	<polygon style="fill-rule:evenodd;clip-rule:evenodd;fill:#B3AB64;" points="292.5,267 0,267 292.5,0 	"/>
	<g>
		<polygon style="fill-rule:evenodd;clip-rule:evenodd;fill:#A49A48;" points="278.65,232.65 272.7,240 278.65,228.75 284.1,240.25 
					"/>
	</g>
	<g>
		<polygon style="fill-rule:evenodd;clip-rule:evenodd;fill:#A49A48;" points="260.2,254.3 256.55,249.2 252.6,254.1 256.55,246.6 
					"/>
	</g>
	<g>
		<polygon style="fill-rule:evenodd;clip-rule:evenodd;fill:#A49A48;" points="219.35,234.65 215.75,229.65 211.8,234.5 
			215.75,227.05 		"/>
	</g>
	<g>
		<polygon style="fill-rule:evenodd;clip-rule:evenodd;fill:#A49A48;" points="175.75,229.55 173.2,225.95 170.4,229.45 
			173.2,224.1 		"/>
	</g>
	<g>
		<polygon style="fill-rule:evenodd;clip-rule:evenodd;fill:#A49A48;" points="150,260.1 147.45,256.5 144.65,260 147.45,254.65 		
			"/>
	</g>
	<g>
		<polygon style="fill-rule:evenodd;clip-rule:evenodd;fill:#A49A48;" points="210.45,159.55 207.85,155.95 205.05,159.45 
			207.85,154.1 		"/>
	</g>
	<g>
		<polygon style="fill-rule:evenodd;clip-rule:evenodd;fill:#A49A48;" points="135.9,251.55 132.7,247.1 129.25,251.4 132.7,244.8 
					"/>
	</g>
	<g>
		<polygon style="fill-rule:evenodd;clip-rule:evenodd;fill:#A49A48;" points="99.85,244.3 94.25,236.55 88.2,244.05 94.25,232.55 
					"/>
	</g>
	<g>
		<polygon style="fill-rule:evenodd;clip-rule:evenodd;fill:#A49A48;" points="76.05,226.6 71.3,220 66.15,226.35 71.3,216.6 		"/>
	</g>
	<g>
		<polygon style="fill-rule:evenodd;clip-rule:evenodd;fill:#A49A48;" points="32.25,261.5 27.3,254.65 21.95,261.3 27.3,251.1 		
			"/>
	</g>
	<g>
		<polygon style="fill-rule:evenodd;clip-rule:evenodd;fill:#A49A48;" points="50.35,245 45.3,238 39.8,244.8 45.3,234.35 		"/>
	</g>
	<g>
		<polygon style="fill-rule:evenodd;clip-rule:evenodd;fill:#A49A48;" points="56.2,260 53.3,256 50.2,259.85 53.3,253.9 		"/>
	</g>
	<g>
		<polygon style="fill-rule:evenodd;clip-rule:evenodd;fill:#A49A48;" points="106.9,218.4 104.25,214.75 101.35,218.3 
			104.25,212.85 		"/>
	</g>
	<g>
		<polygon style="fill-rule:evenodd;clip-rule:evenodd;fill:#A49A48;" points="123.95,200 121.35,196.3 118.45,199.85 121.35,194.4 
					"/>
	</g>
	<g>
		<polygon style="fill-rule:evenodd;clip-rule:evenodd;fill:#A49A48;" points="145.15,216.85 139.4,208.9 133.2,216.6 139.4,204.75 
					"/>
	</g>
	<g>
		<polygon style="fill-rule:evenodd;clip-rule:evenodd;fill:#A49A48;" points="75.4,251.55 69.2,259.25 75.4,247.45 81.15,259.5 		
			"/>
	</g>
	<g>
		<polygon style="fill-rule:evenodd;clip-rule:evenodd;fill:#A49A48;" points="187.75,225.4 185,221.55 182,225.3 185,219.6 		"/>
	</g>
	<g>
		<polygon style="fill-rule:evenodd;clip-rule:evenodd;fill:#A49A48;" points="229.45,204.75 225.8,199.7 221.9,204.6 225.8,197.15 
					"/>
	</g>
	<g>
		<polygon style="fill-rule:evenodd;clip-rule:evenodd;fill:#A49A48;" points="272.6,215.1 268.9,209.95 264.9,214.9 268.9,207.3 		
			"/>
	</g>
	<g>
		<polygon style="fill-rule:evenodd;clip-rule:evenodd;fill:#A49A48;" points="172.75,256.5 168.55,250.7 164,256.3 168.55,247.7 		
			"/>
	</g>
	<g>
		<polygon style="fill-rule:evenodd;clip-rule:evenodd;fill:#A49A48;" points="278.35,195 273.3,188 267.8,194.8 273.3,184.35 		"/>
	</g>
	<g>
		<polygon style="fill-rule:evenodd;clip-rule:evenodd;fill:#A49A48;" points="289.25,181.7 284.65,175.3 279.65,181.5 284.65,172 
					"/>
	</g>
	<g>
		<polygon style="fill-rule:evenodd;clip-rule:evenodd;fill:#A49A48;" points="253.6,181.45 249.9,176.3 245.85,181.3 249.9,173.65 
					"/>
	</g>
	<g>
		<polygon style="fill-rule:evenodd;clip-rule:evenodd;fill:#A49A48;" points="200.35,243.8 196.65,238.65 192.6,243.65 196.65,236 
					"/>
	</g>
	<g>
		<polygon style="fill-rule:evenodd;clip-rule:evenodd;fill:#A49A48;" points="212.05,184.65 208.6,179.9 204.9,184.5 208.6,177.45 
					"/>
	</g>
	<g>
		<polygon style="fill-rule:evenodd;clip-rule:evenodd;fill:#A49A48;" points="206.7,215.4 203.3,210.65 199.6,215.25 203.3,208.2 
					"/>
	</g>
	<g>
		<polygon style="fill-rule:evenodd;clip-rule:evenodd;fill:#A49A48;" points="173.95,183.8 169.8,178.05 165.3,183.6 169.8,175.1 
					"/>
	</g>
	<g>
		<polygon style="fill-rule:evenodd;clip-rule:evenodd;fill:#A49A48;" points="125.95,232.45 121.8,226.7 117.3,232.3 121.8,223.75 
					"/>
	</g>
	<g>
		<polygon style="fill-rule:evenodd;clip-rule:evenodd;fill:#A49A48;" points="136.65,176.1 132.8,170.7 128.65,175.9 132.8,167.95 
					"/>
	</g>
	<g>
		<polygon style="fill-rule:evenodd;clip-rule:evenodd;fill:#A49A48;" points="114.2,187.2 110.9,182.65 107.35,187.05 110.9,180.3 
					"/>
	</g>
	<g>
		<polygon style="fill-rule:evenodd;clip-rule:evenodd;fill:#A49A48;" points="98.25,208.45 92.65,200.65 86.55,208.2 92.65,196.65 
					"/>
	</g>
	<g>
		<polygon style="fill-rule:evenodd;clip-rule:evenodd;fill:#A49A48;" points="161.45,149.35 156.4,142.35 150.9,149.15 
			156.4,138.75 		"/>
	</g>
	<g>
		<polygon style="fill-rule:evenodd;clip-rule:evenodd;fill:#A49A48;" points="153.75,177.55 150.6,173.15 147.2,177.4 150.6,170.9 
					"/>
	</g>
	<g>
		<polygon style="fill-rule:evenodd;clip-rule:evenodd;fill:#A49A48;" points="191.6,162.95 186.7,156.1 181.35,162.7 186.7,152.55 
					"/>
	</g>
	<g>
		<polygon style="fill-rule:evenodd;clip-rule:evenodd;fill:#A49A48;" points="232.8,146.85 229.3,142 225.5,146.7 229.3,139.45 		
			"/>
	</g>
	<g>
		<polygon style="fill-rule:evenodd;clip-rule:evenodd;fill:#A49A48;" points="265.9,153.05 261.3,146.65 256.3,152.85 
			261.3,143.35 		"/>
	</g>
	<g>
		<polygon style="fill-rule:evenodd;clip-rule:evenodd;fill:#A49A48;" points="282.3,139.75 278.65,134.65 274.7,139.55 
			278.65,132.05 		"/>
	</g>
	<g>
		<polygon style="fill-rule:evenodd;clip-rule:evenodd;fill:#A49A48;" points="236.15,120.2 232.65,115.3 228.85,120.05 
			232.65,112.8 		"/>
	</g>
	<g>
		<polygon style="fill-rule:evenodd;clip-rule:evenodd;fill:#A49A48;" points="234.15,258.85 230.65,254 226.85,258.7 
			230.65,251.45 		"/>
	</g>
	<g>
		<polygon style="fill-rule:evenodd;clip-rule:evenodd;fill:#A49A48;" points="271.5,126.5 266.2,119.15 260.45,126.25 
			266.2,115.35 		"/>
	</g>
	<g>
		<polygon style="fill-rule:evenodd;clip-rule:evenodd;fill:#A49A48;" points="217.35,139.7 213.1,133.7 208.45,139.5 213.1,130.65 
					"/>
	</g>
	<g>
		<polygon style="fill-rule:evenodd;clip-rule:evenodd;fill:#A49A48;" points="179.4,121.35 173.9,113.7 167.9,121.15 173.9,109.75 
					"/>
	</g>
	<g>
		<polygon style="fill-rule:evenodd;clip-rule:evenodd;fill:#A49A48;" points="138.15,157.25 135.3,153.3 132.25,157.1 135.3,151.3 
					"/>
	</g>
	<g>
		<polygon style="fill-rule:evenodd;clip-rule:evenodd;fill:#A49A48;" points="210.9,114.9 206.65,108.95 202,114.7 206.65,105.85 
					"/>
	</g>
	<g>
		<polygon style="fill-rule:evenodd;clip-rule:evenodd;fill:#A49A48;" points="253.7,117.4 249.85,112.1 245.7,117.25 249.85,109.3 
					"/>
	</g>
	<g>
		<polygon style="fill-rule:evenodd;clip-rule:evenodd;fill:#A49A48;" points="286.7,101.65 281.3,94.15 275.4,101.4 281.3,90.25 		
			"/>
	</g>
	<g>
		<polygon style="fill-rule:evenodd;clip-rule:evenodd;fill:#A49A48;" points="230.85,171.25 226.5,165.15 221.75,171.05 
			226.5,162.05 		"/>
	</g>
	<g>
		<polygon style="fill-rule:evenodd;clip-rule:evenodd;fill:#A49A48;" points="261.7,98.75 258.05,93.65 254.05,98.6 258.05,91 		
			"/>
	</g>
	<g>
		<polygon style="fill-rule:evenodd;clip-rule:evenodd;fill:#A49A48;" points="277.45,82.95 273.55,77.55 269.3,82.8 273.55,74.75 
					"/>
	</g>
	<g>
		<polygon style="fill-rule:evenodd;clip-rule:evenodd;fill:#A49A48;" points="238.15,98.65 233.4,92 228.2,98.45 233.4,88.55 		"/>
	</g>
	<g>
		<polygon style="fill-rule:evenodd;clip-rule:evenodd;fill:#A49A48;" points="198.85,107.9 193.9,101 188.45,107.7 193.9,97.4 		
			"/>
	</g>
	<g>
		<polygon style="fill-rule:evenodd;clip-rule:evenodd;fill:#A49A48;" points="213.95,89.3 210.95,85.1 207.65,89.2 210.95,82.95 		
			"/>
	</g>
	<g>
		<polygon style="fill-rule:evenodd;clip-rule:evenodd;fill:#A49A48;" points="238.7,77.1 235.95,73.3 233,77 235.95,71.35 		"/>
	</g>
	<g>
		<polygon style="fill-rule:evenodd;clip-rule:evenodd;fill:#A49A48;" points="261.1,77.95 257.3,72.65 253.15,77.8 257.3,69.9 		
			"/>
	</g>
	<g>
		<polygon style="fill-rule:evenodd;clip-rule:evenodd;fill:#A49A48;" points="167.65,204.4 163.95,199.3 160,204.25 163.95,196.7 
					"/>
	</g>
	<g>
		<polygon style="fill-rule:evenodd;clip-rule:evenodd;fill:#A49A48;" points="255.55,225.05 249.95,217.3 243.95,224.8 
			249.95,213.35 		"/>
	</g>
	<g>
		<polygon style="fill-rule:evenodd;clip-rule:evenodd;fill:#A49A48;" points="280.55,59.6 275.3,66.1 280.55,56.1 285.4,66.3 		"/>
	</g>
	<g>
		<polygon style="fill-rule:evenodd;clip-rule:evenodd;fill:#A49A48;" points="268.6,56.15 264.65,50.65 260.35,55.95 264.65,47.8 
					"/>
	</g>
	<g>
		<polygon style="fill-rule:evenodd;clip-rule:evenodd;fill:#A49A48;" points="249.9,59.4 247.1,55.5 244,59.3 247.1,53.45 		"/>
	</g>
	<g>
		<polygon style="fill-rule:evenodd;clip-rule:evenodd;fill:#A49A48;" points="195.4,139.25 190.65,132.65 185.5,139.05 
			190.65,129.25 		"/>
	</g>
	<g>
		<polygon style="fill-rule:evenodd;clip-rule:evenodd;fill:#A49A48;" points="289.5,44.95 284,37.35 278.1,44.7 284,33.45 		"/>
	</g>
	<g>
		<polygon style="fill-rule:evenodd;clip-rule:evenodd;fill:#A49A48;" points="282.7,164.3 278.65,158.65 274.2,164.15 
			278.65,155.75 		"/>
	</g>
	<g>
		<polygon style="fill-rule:evenodd;clip-rule:evenodd;fill:#A49A48;" points="276.15,34.15 271.9,28.25 267.3,34 271.9,25.25 		"/>
	</g>
	<g>
		<polygon style="fill-rule:evenodd;clip-rule:evenodd;fill:#A49A48;" points="291.3,17.3 287.95,12.65 284.35,17.15 287.95,10.25 
					"/>
	</g>
	<g>
		<polygon style="fill-rule:evenodd;clip-rule:evenodd;fill:#A49A48;" points="249.65,142.7 245.3,136.65 240.6,142.5 245.3,133.55 
					"/>
	</g>
	<g>
		<polygon style="fill-rule:evenodd;clip-rule:evenodd;fill:#A49A48;" points="282.3,262.45 277.95,256.45 273.25,262.25 
			277.95,253.3 		"/>
	</g>
	<g>
		<polygon style="fill-rule:evenodd;clip-rule:evenodd;fill:#A49A48;" points="194.2,190.2 190.65,185.2 186.75,190.05 
			190.65,182.65 		"/>
	</g>
	<g>
		<polygon style="fill-rule:evenodd;clip-rule:evenodd;fill:#A49A48;" points="155.55,234.3 151.95,229.3 148.1,234.15 
			151.95,226.75 		"/>
	</g>
	<g>
		<polygon style="fill-rule:evenodd;clip-rule:evenodd;fill:#A49A48;" points="118.2,260.2 114.65,255.2 110.75,260.05 
			114.65,252.65 		"/>
	</g>
</g>
</svg>
