<?xml version="1.0" encoding="iso-8859-1"?>
<!-- Generator: Adobe Illustrator 15.1.0, SVG Export Plug-In . SVG Version: 6.00 Build 0)  -->
<!DOCTYPE svg PUBLIC "-//W3C//DTD SVG 1.1//EN" "http://www.w3.org/Graphics/SVG/1.1/DTD/svg11.dtd">
<svg version="1.1" id="ground_x5F_front_x5F_tile_x5F_750.ai"
	 xmlns="http://www.w3.org/2000/svg" xmlns:xlink="http://www.w3.org/1999/xlink" x="0px" y="0px" width="749.95px" height="110px"
	 viewBox="0 0 749.95 110" style="enable-background:new 0 0 749.95 110;" xml:space="preserve">
<g>
	<rect style="fill-rule:evenodd;clip-rule:evenodd;fill:#ABA254;" width="749.95" height="110"/>
	<g>
		<polygon style="fill-rule:evenodd;clip-rule:evenodd;fill:#918B4B;" points="87.5,93.1 94.2,78.95 101.5,92.8 94.2,83.75 		"/>
	</g>
	<g>
		<polygon style="fill-rule:evenodd;clip-rule:evenodd;fill:#918B4B;" points="131.35,97.4 136.65,86.3 142.35,97.2 136.65,90.05 		
			"/>
	</g>
	<g>
		<polygon style="fill-rule:evenodd;clip-rule:evenodd;fill:#918B4B;" points="173.55,100 179.35,87.7 185.7,99.75 179.35,91.9 		
			"/>
	</g>
	<g>
		<polygon style="fill-rule:evenodd;clip-rule:evenodd;fill:#918B4B;" points="204.85,87.45 211.15,74.2 217.95,87.2 211.15,78.7 		
			"/>
	</g>
	<g>
		<polygon style="fill-rule:evenodd;clip-rule:evenodd;fill:#918B4B;" points="255.1,98.2 258.8,90.35 262.85,98.05 258.8,93.05 		
			"/>
	</g>
	<g>
		<polygon style="fill-rule:evenodd;clip-rule:evenodd;fill:#918B4B;" points="293.9,87.4 300.1,74.35 306.8,87.15 300.1,78.8 		"/>
	</g>
	<g>
		<polygon style="fill-rule:evenodd;clip-rule:evenodd;fill:#918B4B;" points="329.8,104.35 335.8,91.75 342.3,104.1 335.8,96.05 		
			"/>
	</g>
	<g>
		<polygon style="fill-rule:evenodd;clip-rule:evenodd;fill:#918B4B;" points="357.1,94.55 363.95,80.1 371.4,94.25 363.95,85 		"/>
	</g>
	<g>
		<polygon style="fill-rule:evenodd;clip-rule:evenodd;fill:#918B4B;" points="415.6,94.45 420.95,83.2 426.75,94.25 420.95,87 		
			"/>
	</g>
	<g>
		<polygon style="fill-rule:evenodd;clip-rule:evenodd;fill:#918B4B;" points="456.2,108.3 462.9,94.2 470.15,108.05 462.9,99 		"/>
	</g>
	<g>
		<polygon style="fill-rule:evenodd;clip-rule:evenodd;fill:#918B4B;" points="501.3,108.4 505.1,100.3 509.3,108.2 505.1,103.05 		
			"/>
	</g>
	<g>
		<polygon style="fill-rule:evenodd;clip-rule:evenodd;fill:#918B4B;" points="539.9,93.65 543.35,86.35 547.15,93.5 543.35,88.85 
					"/>
	</g>
	<g>
		<polygon style="fill-rule:evenodd;clip-rule:evenodd;fill:#918B4B;" points="569.6,101.85 576.65,87 584.3,101.5 576.65,92.05 		
			"/>
	</g>
	<g>
		<polygon style="fill-rule:evenodd;clip-rule:evenodd;fill:#918B4B;" points="613.15,90.9 620.45,75.45 628.4,90.55 620.45,80.7 		
			"/>
	</g>
	<g>
		<polygon style="fill-rule:evenodd;clip-rule:evenodd;fill:#918B4B;" points="648.75,108.1 654.95,95.1 661.65,107.85 654.95,99.5 
					"/>
	</g>
	<g>
		<polygon style="fill-rule:evenodd;clip-rule:evenodd;fill:#918B4B;" points="655.1,68.9 658.95,60.9 663.1,68.75 658.95,63.6 		
			"/>
	</g>
	<g>
		<polygon style="fill-rule:evenodd;clip-rule:evenodd;fill:#918B4B;" points="616.3,62.55 619.7,55.3 623.45,62.4 619.7,57.8 		"/>
	</g>
	<g>
		<polygon style="fill-rule:evenodd;clip-rule:evenodd;fill:#918B4B;" points="572,75.3 577.95,62.75 584.4,75.05 577.95,67 		"/>
	</g>
	<g>
		<polygon style="fill-rule:evenodd;clip-rule:evenodd;fill:#918B4B;" points="527.9,61.95 521.85,70.35 527.9,57.6 534.45,70.1 		
			"/>
	</g>
	<g>
		<polygon style="fill-rule:evenodd;clip-rule:evenodd;fill:#918B4B;" points="489.95,65.5 485.45,71.8 489.95,62.3 494.85,71.6 		
			"/>
	</g>
	<g>
		<polygon style="fill-rule:evenodd;clip-rule:evenodd;fill:#918B4B;" points="455.5,79.2 458.95,71.9 462.75,79.05 458.95,74.4 		
			"/>
	</g>
	<g>
		<polygon style="fill-rule:evenodd;clip-rule:evenodd;fill:#918B4B;" points="424.45,65.35 428.05,57.8 431.95,65.2 428.05,60.35 
					"/>
	</g>
	<g>
		<polygon style="fill-rule:evenodd;clip-rule:evenodd;fill:#918B4B;" points="383.5,78.75 387.95,69.3 392.8,78.55 387.95,72.5 		
			"/>
	</g>
	<g>
		<polygon style="fill-rule:evenodd;clip-rule:evenodd;fill:#918B4B;" points="341.45,64.45 345.55,55.7 350.05,64.25 345.55,58.65 
					"/>
	</g>
	<g>
		<polygon style="fill-rule:evenodd;clip-rule:evenodd;fill:#918B4B;" points="298.35,61.25 304.85,47.5 311.95,60.95 304.85,52.15 
					"/>
	</g>
	<g>
		<polygon style="fill-rule:evenodd;clip-rule:evenodd;fill:#918B4B;" points="258.1,75.4 264.95,60.9 272.45,75.1 264.95,65.85 		
			"/>
	</g>
	<g>
		<polygon style="fill-rule:evenodd;clip-rule:evenodd;fill:#918B4B;" points="226.5,72.4 232.5,59.85 239,72.15 232.5,64.1 		"/>
	</g>
	<g>
		<polygon style="fill-rule:evenodd;clip-rule:evenodd;fill:#918B4B;" points="184.6,68.95 189.1,59.5 193.95,68.75 189.1,62.75 		
			"/>
	</g>
	<g>
		<polygon style="fill-rule:evenodd;clip-rule:evenodd;fill:#918B4B;" points="137.75,59.65 143.95,46.55 150.7,59.4 143.95,51 		
			"/>
	</g>
	<g>
		<polygon style="fill-rule:evenodd;clip-rule:evenodd;fill:#918B4B;" points="101.4,62.6 105.35,54.3 109.6,62.4 105.35,57.1 		"/>
	</g>
	<g>
		<polygon style="fill-rule:evenodd;clip-rule:evenodd;fill:#918B4B;" points="88,35.4 80.55,45.8 88,30.05 96.1,45.5 		"/>
	</g>
	<g>
		<polygon style="fill-rule:evenodd;clip-rule:evenodd;fill:#918B4B;" points="123.6,35.8 128.45,25.55 133.75,35.55 128.45,29 		
			"/>
	</g>
	<g>
		<polygon style="fill-rule:evenodd;clip-rule:evenodd;fill:#918B4B;" points="165.2,16.4 169.45,7.5 174.05,16.25 169.45,10.5 		
			"/>
	</g>
	<g>
		<polygon style="fill-rule:evenodd;clip-rule:evenodd;fill:#918B4B;" points="192.8,48.85 196.95,40.05 201.5,48.65 196.95,43 		
			"/>
	</g>
	<g>
		<polygon style="fill-rule:evenodd;clip-rule:evenodd;fill:#918B4B;" points="251.2,51.9 254.7,44.5 258.55,51.75 254.7,47.05 		
			"/>
	</g>
	<g>
		<polygon style="fill-rule:evenodd;clip-rule:evenodd;fill:#918B4B;" points="295.5,29.8 300.8,18.6 306.6,29.6 300.8,22.4 		"/>
	</g>
	<g>
		<polygon style="fill-rule:evenodd;clip-rule:evenodd;fill:#918B4B;" points="328.45,48.6 334.9,34.95 341.95,48.3 334.9,39.6 		
			"/>
	</g>
	<g>
		<polygon style="fill-rule:evenodd;clip-rule:evenodd;fill:#918B4B;" points="374.8,50.85 379.45,41 384.55,50.6 379.45,44.35 		
			"/>
	</g>
	<g>
		<polygon style="fill-rule:evenodd;clip-rule:evenodd;fill:#918B4B;" points="407.05,50.45 413.45,36.95 420.4,50.15 413.45,41.5 
					"/>
	</g>
	<g>
		<polygon style="fill-rule:evenodd;clip-rule:evenodd;fill:#918B4B;" points="454.7,47.7 458.55,39.5 462.8,47.5 458.55,42.25 		
			"/>
	</g>
	<g>
		<polygon style="fill-rule:evenodd;clip-rule:evenodd;fill:#918B4B;" points="493.8,39.45 499.9,26.5 506.6,39.2 499.9,30.9 		"/>
	</g>
	<g>
		<polygon style="fill-rule:evenodd;clip-rule:evenodd;fill:#918B4B;" points="530.25,49 537.1,34.55 544.55,48.7 537.1,39.5 		"/>
	</g>
	<g>
		<polygon style="fill-rule:evenodd;clip-rule:evenodd;fill:#918B4B;" points="570,46.8 565.6,52.9 570,43.65 574.75,52.7 		"/>
	</g>
	<g>
		<polygon style="fill-rule:evenodd;clip-rule:evenodd;fill:#918B4B;" points="598.85,51.85 603.25,42.55 608.05,51.65 
			603.25,45.75 		"/>
	</g>
	<g>
		<polygon style="fill-rule:evenodd;clip-rule:evenodd;fill:#918B4B;" points="642.05,50.75 647.7,38.85 653.85,50.5 647.7,42.9 		
			"/>
	</g>
	<g>
		<polygon style="fill-rule:evenodd;clip-rule:evenodd;fill:#918B4B;" points="629.75,20.85 635.9,7.8 642.65,20.55 635.9,12.2 		
			"/>
	</g>
	<g>
		<polygon style="fill-rule:evenodd;clip-rule:evenodd;fill:#918B4B;" points="591.15,26.65 595.25,18.1 599.65,26.5 595.25,21 		
			"/>
	</g>
	<g>
		<polygon style="fill-rule:evenodd;clip-rule:evenodd;fill:#918B4B;" points="553.7,18.9 558.05,9.65 562.8,18.7 558.05,12.8 		"/>
	</g>
	<g>
		<polygon style="fill-rule:evenodd;clip-rule:evenodd;fill:#918B4B;" points="520.5,14.95 524.2,7.2 528.2,14.8 524.2,9.85 		"/>
	</g>
	<g>
		<polygon style="fill-rule:evenodd;clip-rule:evenodd;fill:#918B4B;" points="474.1,19.55 481.15,4.7 488.8,19.25 481.15,9.75 		
			"/>
	</g>
	<g>
		<polygon style="fill-rule:evenodd;clip-rule:evenodd;fill:#918B4B;" points="437.5,25.8 444.6,10.85 452.3,25.5 444.6,15.9 		"/>
	</g>
	<g>
		<polygon style="fill-rule:evenodd;clip-rule:evenodd;fill:#918B4B;" points="392.75,22.35 399.45,8.2 406.75,22.05 399.45,13 		
			"/>
	</g>
	<g>
		<polygon style="fill-rule:evenodd;clip-rule:evenodd;fill:#918B4B;" points="357.45,32.55 363.95,18.85 371,32.25 363.95,23.5 		
			"/>
	</g>
	<g>
		<polygon style="fill-rule:evenodd;clip-rule:evenodd;fill:#918B4B;" points="329.55,12.2 322.05,22.65 329.55,6.85 337.7,22.3 		
			"/>
	</g>
	<g>
		<polygon style="fill-rule:evenodd;clip-rule:evenodd;fill:#918B4B;" points="274.35,41.65 279.45,30.85 285,41.4 279.45,34.5 		
			"/>
	</g>
	<g>
		<polygon style="fill-rule:evenodd;clip-rule:evenodd;fill:#918B4B;" points="248.3,14.55 241.25,24.35 248.3,9.5 255.95,24 		"/>
	</g>
	<g>
		<polygon style="fill-rule:evenodd;clip-rule:evenodd;fill:#918B4B;" points="204.95,15.35 209.05,6.75 213.5,15.2 209.05,9.65 		
			"/>
	</g>
	<g>
		<polygon style="fill-rule:evenodd;clip-rule:evenodd;fill:#918B4B;" points="175.5,35.6 180.95,24.1 186.85,35.35 180.95,28 		"/>
	</g>
	<g>
		<polygon style="fill-rule:evenodd;clip-rule:evenodd;fill:#918B4B;" points="133.1,13.7 137.35,4.75 141.95,13.5 137.35,7.8 		"/>
	</g>
	<g>
		<polygon style="fill-rule:evenodd;clip-rule:evenodd;fill:#918B4B;" points="89.55,19.55 96.9,4.05 104.9,19.25 96.9,9.35 		"/>
	</g>
</g>
</svg>
