<?xml version="1.0" encoding="iso-8859-1"?>
<!-- Generator: Adobe Illustrator 15.1.0, SVG Export Plug-In . SVG Version: 6.00 Build 0)  -->
<!DOCTYPE svg PUBLIC "-//W3C//DTD SVG 1.1//EN" "http://www.w3.org/Graphics/SVG/1.1/DTD/svg11.dtd">
<svg version="1.1" id="Isolation_Mode" xmlns="http://www.w3.org/2000/svg" xmlns:xlink="http://www.w3.org/1999/xlink" x="0px"
	 y="0px" width="292.5px" height="266.95px" viewBox="0 0 292.5 266.95" style="enable-background:new 0 0 292.5 266.95;"
	 xml:space="preserve">
<g>
	<polygon style="fill-rule:evenodd;clip-rule:evenodd;fill:#ABA254;" points="292.5,266.95 0,266.95 292.5,0 	"/>
	<g>
		<polygon style="fill-rule:evenodd;clip-rule:evenodd;fill:#918B4B;" points="278.7,232.25 271.6,241.1 278.7,227.6 285.25,241.35 
					"/>
	</g>
	<g>
		<polygon style="fill-rule:evenodd;clip-rule:evenodd;fill:#918B4B;" points="260.95,255.05 256.6,248.95 251.85,254.85 
			256.6,245.8 		"/>
	</g>
	<g>
		<polygon style="fill-rule:evenodd;clip-rule:evenodd;fill:#918B4B;" points="220.1,235.4 215.75,229.4 211.05,235.2 215.75,226.3 
					"/>
	</g>
	<g>
		<polygon style="fill-rule:evenodd;clip-rule:evenodd;fill:#918B4B;" points="176.3,230.1 173.2,225.8 169.85,229.95 173.2,223.55 
					"/>
	</g>
	<g>
		<polygon style="fill-rule:evenodd;clip-rule:evenodd;fill:#918B4B;" points="150.55,260.65 147.45,256.3 144.1,260.5 
			147.45,254.1 		"/>
	</g>
	<g>
		<polygon style="fill-rule:evenodd;clip-rule:evenodd;fill:#918B4B;" points="210.95,160.1 207.85,155.8 204.5,159.95 
			207.85,153.55 		"/>
	</g>
	<g>
		<polygon style="fill-rule:evenodd;clip-rule:evenodd;fill:#918B4B;" points="136.6,252.2 132.75,246.85 128.55,252.05 
			132.75,244.1 		"/>
	</g>
	<g>
		<polygon style="fill-rule:evenodd;clip-rule:evenodd;fill:#918B4B;" points="101,245.5 94.3,236.15 87,245.2 94.3,231.35 		"/>
	</g>
	<g>
		<polygon style="fill-rule:evenodd;clip-rule:evenodd;fill:#918B4B;" points="77.05,227.55 71.35,219.65 65.15,227.3 71.35,215.55 
					"/>
	</g>
	<g>
		<polygon style="fill-rule:evenodd;clip-rule:evenodd;fill:#918B4B;" points="33.25,262.55 27.35,254.3 20.9,262.3 27.35,250.05 		
			"/>
	</g>
	<g>
		<polygon style="fill-rule:evenodd;clip-rule:evenodd;fill:#918B4B;" points="51.4,246.05 45.35,237.65 38.75,245.8 45.35,233.3 		
			"/>
	</g>
	<g>
		<polygon style="fill-rule:evenodd;clip-rule:evenodd;fill:#918B4B;" points="56.8,260.55 53.35,255.8 49.6,260.4 53.35,253.3 		
			"/>
	</g>
	<g>
		<polygon style="fill-rule:evenodd;clip-rule:evenodd;fill:#918B4B;" points="107.45,218.95 104.25,214.55 100.8,218.8 
			104.25,212.25 		"/>
	</g>
	<g>
		<polygon style="fill-rule:evenodd;clip-rule:evenodd;fill:#918B4B;" points="124.55,200.55 121.35,196.1 117.9,200.4 
			121.35,193.85 		"/>
	</g>
	<g>
		<polygon style="fill-rule:evenodd;clip-rule:evenodd;fill:#918B4B;" points="146.35,218.05 139.45,208.5 132,217.75 
			139.45,203.55 		"/>
	</g>
	<g>
		<polygon style="fill-rule:evenodd;clip-rule:evenodd;fill:#918B4B;" points="75.45,251.15 68,260.4 75.45,246.2 82.35,260.7 		"/>
	</g>
	<g>
		<polygon style="fill-rule:evenodd;clip-rule:evenodd;fill:#918B4B;" points="188.3,226 185,221.35 181.4,225.85 185,219 		"/>
	</g>
	<g>
		<polygon style="fill-rule:evenodd;clip-rule:evenodd;fill:#918B4B;" points="230.2,205.5 225.85,199.45 221.15,205.3 
			225.85,196.35 		"/>
	</g>
	<g>
		<polygon style="fill-rule:evenodd;clip-rule:evenodd;fill:#918B4B;" points="273.35,215.85 268.95,209.7 264.1,215.65 
			268.95,206.5 		"/>
	</g>
	<g>
		<polygon style="fill-rule:evenodd;clip-rule:evenodd;fill:#918B4B;" points="173.6,257.35 168.6,250.4 163.15,257.15 168.6,246.8 
					"/>
	</g>
	<g>
		<polygon style="fill-rule:evenodd;clip-rule:evenodd;fill:#918B4B;" points="279.4,196.05 273.35,187.65 266.75,195.8 
			273.35,183.3 		"/>
	</g>
	<g>
		<polygon style="fill-rule:evenodd;clip-rule:evenodd;fill:#918B4B;" points="290.2,182.65 284.7,175 278.7,182.45 284.7,171.05 		
			"/>
	</g>
	<g>
		<polygon style="fill-rule:evenodd;clip-rule:evenodd;fill:#918B4B;" points="254.35,182.25 249.9,176.05 245.1,182.05 
			249.9,172.85 		"/>
	</g>
	<g>
		<polygon style="fill-rule:evenodd;clip-rule:evenodd;fill:#918B4B;" points="201.1,244.55 196.65,238.4 191.85,244.35 
			196.65,235.2 		"/>
	</g>
	<g>
		<polygon style="fill-rule:evenodd;clip-rule:evenodd;fill:#918B4B;" points="212.75,185.35 208.65,179.65 204.2,185.15 
			208.65,176.7 		"/>
	</g>
	<g>
		<polygon style="fill-rule:evenodd;clip-rule:evenodd;fill:#918B4B;" points="207.45,216.1 203.35,210.4 198.9,215.9 
			203.35,207.45 		"/>
	</g>
	<g>
		<polygon style="fill-rule:evenodd;clip-rule:evenodd;fill:#918B4B;" points="174.8,184.65 169.85,177.75 164.45,184.45 
			169.85,174.2 		"/>
	</g>
	<g>
		<polygon style="fill-rule:evenodd;clip-rule:evenodd;fill:#918B4B;" points="126.8,233.35 121.85,226.4 116.45,233.1 
			121.85,222.85 		"/>
	</g>
	<g>
		<polygon style="fill-rule:evenodd;clip-rule:evenodd;fill:#918B4B;" points="137.45,176.9 132.85,170.45 127.8,176.7 
			132.85,167.15 		"/>
	</g>
	<g>
		<polygon style="fill-rule:evenodd;clip-rule:evenodd;fill:#918B4B;" points="114.85,187.85 110.95,182.4 106.7,187.7 
			110.95,179.6 		"/>
	</g>
	<g>
		<polygon style="fill-rule:evenodd;clip-rule:evenodd;fill:#918B4B;" points="99.4,209.6 92.7,200.25 85.4,209.3 92.7,195.45 		"/>
	</g>
	<g>
		<polygon style="fill-rule:evenodd;clip-rule:evenodd;fill:#918B4B;" points="156.45,142 149.85,150.15 156.45,137.65 162.5,150.4 
					"/>
	</g>
	<g>
		<polygon style="fill-rule:evenodd;clip-rule:evenodd;fill:#918B4B;" points="154.45,178.2 150.65,172.9 146.55,178.05 
			150.65,170.2 		"/>
	</g>
	<g>
		<polygon style="fill-rule:evenodd;clip-rule:evenodd;fill:#918B4B;" points="192.65,163.95 186.75,155.75 180.3,163.7 
			186.75,151.5 		"/>
	</g>
	<g>
		<polygon style="fill-rule:evenodd;clip-rule:evenodd;fill:#918B4B;" points="233.55,147.6 229.35,141.75 224.75,147.4 
			229.35,138.7 		"/>
	</g>
	<g>
		<polygon style="fill-rule:evenodd;clip-rule:evenodd;fill:#918B4B;" points="266.85,154 261.35,146.35 255.35,153.75 
			261.35,142.35 		"/>
	</g>
	<g>
		<polygon style="fill-rule:evenodd;clip-rule:evenodd;fill:#918B4B;" points="283.05,140.5 278.65,134.4 273.9,140.3 
			278.65,131.25 		"/>
	</g>
	<g>
		<polygon style="fill-rule:evenodd;clip-rule:evenodd;fill:#918B4B;" points="236.9,120.95 232.65,115.05 228.1,120.75 
			232.65,112.05 		"/>
	</g>
	<g>
		<polygon style="fill-rule:evenodd;clip-rule:evenodd;fill:#918B4B;" points="234.9,259.6 230.65,253.75 226.1,259.4 230.65,250.7 
					"/>
	</g>
	<g>
		<polygon style="fill-rule:evenodd;clip-rule:evenodd;fill:#918B4B;" points="272.6,127.6 266.25,118.75 259.35,127.3 
			266.25,114.2 		"/>
	</g>
	<g>
		<polygon style="fill-rule:evenodd;clip-rule:evenodd;fill:#918B4B;" points="218.25,140.55 213.15,133.4 207.55,140.35 
			213.15,129.75 		"/>
	</g>
	<g>
		<polygon style="fill-rule:evenodd;clip-rule:evenodd;fill:#918B4B;" points="180.55,122.5 173.95,113.3 166.75,122.2 
			173.95,108.55 		"/>
	</g>
	<g>
		<polygon style="fill-rule:evenodd;clip-rule:evenodd;fill:#918B4B;" points="138.7,157.8 135.35,153.1 131.65,157.65 
			135.35,150.7 		"/>
	</g>
	<g>
		<polygon style="fill-rule:evenodd;clip-rule:evenodd;fill:#918B4B;" points="211.8,115.75 206.7,108.65 201.1,115.55 
			206.7,104.95 		"/>
	</g>
	<g>
		<polygon style="fill-rule:evenodd;clip-rule:evenodd;fill:#918B4B;" points="254.5,118.2 249.9,111.8 244.9,118 249.9,108.5 		"/>
	</g>
	<g>
		<polygon style="fill-rule:evenodd;clip-rule:evenodd;fill:#918B4B;" points="287.85,102.8 281.35,93.75 274.3,102.5 281.35,89.1 
					"/>
	</g>
	<g>
		<polygon style="fill-rule:evenodd;clip-rule:evenodd;fill:#918B4B;" points="231.75,172.15 226.55,164.85 220.85,171.9 
			226.55,161.1 		"/>
	</g>
	<g>
		<polygon style="fill-rule:evenodd;clip-rule:evenodd;fill:#918B4B;" points="262.5,99.55 258.05,93.4 253.25,99.35 258.05,90.2 		
			"/>
	</g>
	<g>
		<polygon style="fill-rule:evenodd;clip-rule:evenodd;fill:#918B4B;" points="278.25,83.8 273.6,77.3 268.5,83.55 273.6,73.95 		
			"/>
	</g>
	<g>
		<polygon style="fill-rule:evenodd;clip-rule:evenodd;fill:#918B4B;" points="239.15,99.65 233.4,91.65 227.2,99.4 233.4,87.55 		
			"/>
	</g>
	<g>
		<polygon style="fill-rule:evenodd;clip-rule:evenodd;fill:#918B4B;" points="199.9,108.95 193.95,100.65 187.45,108.7 
			193.95,96.35 		"/>
	</g>
	<g>
		<polygon style="fill-rule:evenodd;clip-rule:evenodd;fill:#918B4B;" points="214.6,89.95 210.95,84.9 207.05,89.8 210.95,82.3 		
			"/>
	</g>
	<g>
		<polygon style="fill-rule:evenodd;clip-rule:evenodd;fill:#918B4B;" points="239.25,77.65 236,73.1 232.45,77.55 236,70.8 		"/>
	</g>
	<g>
		<polygon style="fill-rule:evenodd;clip-rule:evenodd;fill:#918B4B;" points="261.9,78.75 257.35,72.4 252.4,78.55 257.35,69.1 		
			"/>
	</g>
	<g>
		<polygon style="fill-rule:evenodd;clip-rule:evenodd;fill:#918B4B;" points="168.4,205.15 164,199.05 159.25,204.95 164,195.9 		
			"/>
	</g>
	<g>
		<polygon style="fill-rule:evenodd;clip-rule:evenodd;fill:#918B4B;" points="256.7,226.2 250,216.95 242.75,225.95 250,212.15 		
			"/>
	</g>
	<g>
		<polygon style="fill-rule:evenodd;clip-rule:evenodd;fill:#918B4B;" points="280.6,59.25 274.25,67.05 280.6,55.1 286.4,67.3 		
			"/>
	</g>
	<g>
		<polygon style="fill-rule:evenodd;clip-rule:evenodd;fill:#918B4B;" points="269.4,56.95 264.65,50.35 259.55,56.75 264.65,46.95 
					"/>
	</g>
	<g>
		<polygon style="fill-rule:evenodd;clip-rule:evenodd;fill:#918B4B;" points="250.5,60 247.1,55.25 243.45,59.85 247.1,52.85 		"/>
	</g>
	<g>
		<polygon style="fill-rule:evenodd;clip-rule:evenodd;fill:#918B4B;" points="196.4,140.25 190.7,132.3 184.5,140 190.7,128.25 		
			"/>
	</g>
	<g>
		<polygon style="fill-rule:evenodd;clip-rule:evenodd;fill:#918B4B;" points="290.6,46.1 284.05,36.95 276.95,45.8 284.05,32.25 		
			"/>
	</g>
	<g>
		<polygon style="fill-rule:evenodd;clip-rule:evenodd;fill:#918B4B;" points="278.7,158.35 273.35,164.95 278.7,154.85 
			283.55,165.15 		"/>
	</g>
	<g>
		<polygon style="fill-rule:evenodd;clip-rule:evenodd;fill:#918B4B;" points="277.05,35.05 271.95,27.95 266.4,34.85 271.95,24.3 
					"/>
	</g>
	<g>
		<polygon style="fill-rule:evenodd;clip-rule:evenodd;fill:#918B4B;" points="292,18 288,12.4 283.65,17.8 288,9.55 		"/>
	</g>
	<g>
		<polygon style="fill-rule:evenodd;clip-rule:evenodd;fill:#918B4B;" points="250.55,143.6 245.35,136.35 239.7,143.35 
			245.35,132.6 		"/>
	</g>
	<g>
		<polygon style="fill-rule:evenodd;clip-rule:evenodd;fill:#918B4B;" points="283.2,263.35 278,256.1 272.35,263.15 278,252.4 		
			"/>
	</g>
	<g>
		<polygon style="fill-rule:evenodd;clip-rule:evenodd;fill:#918B4B;" points="194.95,190.95 190.65,184.95 186,190.75 
			190.65,181.9 		"/>
	</g>
	<g>
		<polygon style="fill-rule:evenodd;clip-rule:evenodd;fill:#918B4B;" points="156.3,235.05 152,229.05 147.35,234.85 152,226 		"/>
	</g>
	<g>
		<polygon style="fill-rule:evenodd;clip-rule:evenodd;fill:#918B4B;" points="118.95,260.95 114.65,254.95 110,260.75 
			114.65,251.9 		"/>
	</g>
</g>
</svg>
