<?xml version="1.0" encoding="iso-8859-1"?>
<!-- Generator: Adobe Illustrator 15.1.0, SVG Export Plug-In . SVG Version: 6.00 Build 0)  -->
<!DOCTYPE svg PUBLIC "-//W3C//DTD SVG 1.1//EN" "http://www.w3.org/Graphics/SVG/1.1/DTD/svg11.dtd">
<svg version="1.1" id="ground_x5F_front_x5F_top_x5F_04.ai"
	 xmlns="http://www.w3.org/2000/svg" xmlns:xlink="http://www.w3.org/1999/xlink" x="0px" y="0px" width="250px" height="35.5px"
	 viewBox="0 0 250 35.5" style="enable-background:new 0 0 250 35.5;" xml:space="preserve">
<g>
	<path style="fill-rule:evenodd;clip-rule:evenodd;fill:#ABA254;" d="M191,8.5c5.033,1.967,24.7,10.967,59,27H0v-35
		C20.4,0.167,35.117,0,44.15,0c6.2,0,18.567,0.183,37.1,0.55c16.6,0.333,30.017,0.65,40.25,0.95
		c13.066,0.367,25.384,1.017,36.95,1.95C174.95,4.817,185.8,6.5,191,8.5z"/>
	<g>
		<polygon style="fill-rule:evenodd;clip-rule:evenodd;fill:#918B4B;" points="12,30.65 9,26.5 5.75,30.55 9,24.4 		"/>
	</g>
	<g>
		<polygon style="fill-rule:evenodd;clip-rule:evenodd;fill:#918B4B;" points="35.5,23.5 29.45,31 35.5,19.55 41.05,31.25 		"/>
	</g>
	<g>
		<polygon style="fill-rule:evenodd;clip-rule:evenodd;fill:#918B4B;" points="65.8,24.4 62.65,20.1 59.3,24.3 62.65,17.85 		"/>
	</g>
	<g>
		<polygon style="fill-rule:evenodd;clip-rule:evenodd;fill:#918B4B;" points="101.7,29.15 98.55,24.75 95.1,29.05 98.55,22.5 		"/>
	</g>
	<g>
		<polygon style="fill-rule:evenodd;clip-rule:evenodd;fill:#918B4B;" points="130.25,31 125.8,24.75 120.9,30.8 125.8,21.55 		"/>
	</g>
	<g>
		<polygon style="fill-rule:evenodd;clip-rule:evenodd;fill:#918B4B;" points="192.35,18.65 189,14 185.4,18.5 189,11.65 		"/>
	</g>
	<g>
		<polygon style="fill-rule:evenodd;clip-rule:evenodd;fill:#918B4B;" points="188.65,32.9 183,25 176.85,32.65 183,20.95 		"/>
	</g>
	<g>
		<polygon style="fill-rule:evenodd;clip-rule:evenodd;fill:#918B4B;" points="217.7,32.55 213.65,26.95 209.25,32.4 213.65,24.05 
					"/>
	</g>
	<g>
		<polygon style="fill-rule:evenodd;clip-rule:evenodd;fill:#918B4B;" points="159.4,18.05 154.25,24.4 159.4,14.6 164.15,24.65 		
			"/>
	</g>
	<g>
		<polygon style="fill-rule:evenodd;clip-rule:evenodd;fill:#918B4B;" points="145.75,19.6 139.65,11.1 133.05,19.35 139.65,6.75 		
			"/>
	</g>
	<g>
		<polygon style="fill-rule:evenodd;clip-rule:evenodd;fill:#918B4B;" points="113.8,17.2 109.2,10.7 104.15,17 109.2,7.4 		"/>
	</g>
	<g>
		<polygon style="fill-rule:evenodd;clip-rule:evenodd;fill:#918B4B;" points="79.8,8.55 73.4,16.5 79.8,4.35 85.7,16.8 		"/>
	</g>
	<g>
		<polygon style="fill-rule:evenodd;clip-rule:evenodd;fill:#918B4B;" points="54.05,14.85 50.35,9.7 46.35,14.65 50.35,7.05 		"/>
	</g>
	<g>
		<polygon style="fill-rule:evenodd;clip-rule:evenodd;fill:#918B4B;" points="24.05,14.3 19.4,7.85 14.4,14.1 19.4,4.55 		"/>
	</g>
</g>
</svg>
