<?xml version="1.0" encoding="iso-8859-1"?>
<!-- Generator: Adobe Illustrator 15.1.0, SVG Export Plug-In . SVG Version: 6.00 Build 0)  -->
<!DOCTYPE svg PUBLIC "-//W3C//DTD SVG 1.1//EN" "http://www.w3.org/Graphics/SVG/1.1/DTD/svg11.dtd">
<svg version="1.1" id="ground_x5F_front_x5F_top_x5F_01.ai"
	 xmlns="http://www.w3.org/2000/svg" xmlns:xlink="http://www.w3.org/1999/xlink" x="0px" y="0px" width="250px" height="35.5px"
	 viewBox="0 0 250 35.5" style="enable-background:new 0 0 250 35.5;" xml:space="preserve">
<g>
	<path style="fill-rule:evenodd;clip-rule:evenodd;fill:#ABA254;" d="M250,35.5H0c34.3-16.033,53.967-25.033,59-27
		c5.2-2,16.067-3.683,32.6-5.05c11.533-0.934,23.833-1.583,36.9-1.95c10.233-0.3,23.65-0.617,40.25-0.95
		C187.283,0.183,199.65,0,205.85,0c9.034,0,23.75,0.167,44.15,0.5V35.5z"/>
	<g>
		<polygon style="fill-rule:evenodd;clip-rule:evenodd;fill:#918B4B;" points="238,30.65 241,24.4 244.25,30.55 241,26.5 		"/>
	</g>
	<g>
		<polygon style="fill-rule:evenodd;clip-rule:evenodd;fill:#918B4B;" points="208.95,31.25 214.5,19.55 220.55,31 214.5,23.5 		"/>
	</g>
	<g>
		<polygon style="fill-rule:evenodd;clip-rule:evenodd;fill:#918B4B;" points="184.25,24.4 187.35,17.85 190.7,24.3 187.35,20.1 		
			"/>
	</g>
	<g>
		<polygon style="fill-rule:evenodd;clip-rule:evenodd;fill:#918B4B;" points="148.3,29.15 151.45,22.5 154.9,29.05 151.45,24.75 		
			"/>
	</g>
	<g>
		<polygon style="fill-rule:evenodd;clip-rule:evenodd;fill:#918B4B;" points="124.2,24.75 119.75,31 124.2,21.55 129.1,30.8 		"/>
	</g>
	<g>
		<polygon style="fill-rule:evenodd;clip-rule:evenodd;fill:#918B4B;" points="57.65,18.65 61,11.65 64.65,18.5 61,14 		"/>
	</g>
	<g>
		<polygon style="fill-rule:evenodd;clip-rule:evenodd;fill:#918B4B;" points="61.35,32.9 67,20.95 73.15,32.65 67,25 		"/>
	</g>
	<g>
		<polygon style="fill-rule:evenodd;clip-rule:evenodd;fill:#918B4B;" points="32.3,32.55 36.35,24.05 40.75,32.4 36.35,26.95 		"/>
	</g>
	<g>
		<polygon style="fill-rule:evenodd;clip-rule:evenodd;fill:#918B4B;" points="85.85,24.65 90.6,14.6 95.75,24.4 90.6,18.05 		"/>
	</g>
	<g>
		<polygon style="fill-rule:evenodd;clip-rule:evenodd;fill:#918B4B;" points="104.25,19.6 110.35,6.75 116.95,19.35 110.35,11.1 		
			"/>
	</g>
	<g>
		<polygon style="fill-rule:evenodd;clip-rule:evenodd;fill:#918B4B;" points="136.2,17.2 140.8,7.4 145.85,17 140.8,10.7 		"/>
	</g>
	<g>
		<polygon style="fill-rule:evenodd;clip-rule:evenodd;fill:#918B4B;" points="164.3,16.8 170.2,4.35 176.6,16.5 170.2,8.55 		"/>
	</g>
	<g>
		<polygon style="fill-rule:evenodd;clip-rule:evenodd;fill:#918B4B;" points="195.95,14.85 199.65,7.05 203.65,14.65 199.65,9.7 		
			"/>
	</g>
	<g>
		<polygon style="fill-rule:evenodd;clip-rule:evenodd;fill:#918B4B;" points="225.95,14.3 230.6,4.55 235.6,14.1 230.6,7.85 		"/>
	</g>
</g>
</svg>
