<?xml version="1.0" encoding="iso-8859-1"?>
<!-- Generator: Adobe Illustrator 15.1.0, SVG Export Plug-In . SVG Version: 6.00 Build 0)  -->
<!DOCTYPE svg PUBLIC "-//W3C//DTD SVG 1.1//EN" "http://www.w3.org/Graphics/SVG/1.1/DTD/svg11.dtd">
<svg version="1.1" id="ground_x5F_back_x5F_top_x5F_05.ai"
	 xmlns="http://www.w3.org/2000/svg" xmlns:xlink="http://www.w3.org/1999/xlink" x="0px" y="0px" width="500px" height="82.05px"
	 viewBox="0 0 500 82.05" style="enable-background:new 0 0 500 82.05;" xml:space="preserve">
<g>
	<g>
		<path style="fill-rule:evenodd;clip-rule:evenodd;fill:#BCB472;" d="M500,12v70.05H0V42c14.433,0,38.15-2.067,71.15-6.2
			c10.7-1.367,44.533-6,101.5-13.9c46.267-6.4,83.833-11.167,112.7-14.3C326.917,3.1,361.833,0.567,390.1,0
			c12.7-0.233,31.4,1.683,56.101,5.75C471.566,9.917,489.5,12,500,12z"/>
	</g>
	<g>
		<polygon style="fill-rule:evenodd;clip-rule:evenodd;fill:#B3AB64;" points="45.4,71.95 41.85,67 38,71.8 41.85,64.5 		"/>
	</g>
	<g>
		<polygon style="fill-rule:evenodd;clip-rule:evenodd;fill:#B3AB64;" points="75.35,59.8 71.05,53.85 66.4,59.6 71.05,50.75 		"/>
	</g>
	<g>
		<polygon style="fill-rule:evenodd;clip-rule:evenodd;fill:#B3AB64;" points="106.15,63.2 102.8,58.5 99.15,63.05 102.8,56.1 		"/>
	</g>
	<g>
		<polygon style="fill-rule:evenodd;clip-rule:evenodd;fill:#B3AB64;" points="138.6,65.05 134.9,59.9 130.85,64.9 134.9,57.2 		"/>
	</g>
	<g>
		<polygon style="fill-rule:evenodd;clip-rule:evenodd;fill:#B3AB64;" points="158.75,50.05 154.4,55.45 158.75,47.15 162.75,55.6 
					"/>
	</g>
	<g>
		<polygon style="fill-rule:evenodd;clip-rule:evenodd;fill:#B3AB64;" points="196.7,63.95 194.35,60.7 191.75,63.85 194.35,59 		
			"/>
	</g>
	<g>
		<polygon style="fill-rule:evenodd;clip-rule:evenodd;fill:#B3AB64;" points="229.4,55.6 225.45,50.1 221.2,55.4 225.45,47.25 		
			"/>
	</g>
	<g>
		<polygon style="fill-rule:evenodd;clip-rule:evenodd;fill:#B3AB64;" points="256.05,68.35 252.2,63 248.05,68.15 252.2,60.3 		"/>
	</g>
	<g>
		<polygon style="fill-rule:evenodd;clip-rule:evenodd;fill:#B3AB64;" points="277.75,60.85 273.4,54.8 268.65,60.65 273.4,51.65 		
			"/>
	</g>
	<g>
		<polygon style="fill-rule:evenodd;clip-rule:evenodd;fill:#B3AB64;" points="319.45,61 316.05,56.25 312.35,60.85 316.05,53.8 		
			"/>
	</g>
	<g>
		<polygon style="fill-rule:evenodd;clip-rule:evenodd;fill:#B3AB64;" points="351.85,71.2 347.6,65.25 342.95,71 347.6,62.2 		"/>
	</g>
	<g>
		<polygon style="fill-rule:evenodd;clip-rule:evenodd;fill:#B3AB64;" points="381.9,75.1 379.45,71.7 376.8,75 379.45,69.95 		"/>
	</g>
	<g>
		<polygon style="fill-rule:evenodd;clip-rule:evenodd;fill:#B3AB64;" points="404.45,62.7 402.25,59.6 399.85,62.6 402.25,58.05 		
			"/>
	</g>
	<g>
		<polygon style="fill-rule:evenodd;clip-rule:evenodd;fill:#B3AB64;" points="437.4,66.3 432.95,60.05 428.05,66.1 432.95,56.85 		
			"/>
	</g>
	<g>
		<polygon style="fill-rule:evenodd;clip-rule:evenodd;fill:#B3AB64;" points="470.45,58.05 465.8,51.55 460.75,57.85 465.8,48.25 
					"/>
	</g>
	<g>
		<polygon style="fill-rule:evenodd;clip-rule:evenodd;fill:#B3AB64;" points="495.55,71.1 491.6,65.65 487.3,70.95 491.6,62.8 		
			"/>
	</g>
	<g>
		<polygon style="fill-rule:evenodd;clip-rule:evenodd;fill:#B3AB64;" points="226.9,75.5 222.4,69.3 217.55,75.3 222.4,66.1 		"/>
	</g>
	<g>
		<polygon style="fill-rule:evenodd;clip-rule:evenodd;fill:#B3AB64;" points="455.8,75.75 453.25,72.2 450.45,75.65 453.25,70.35 
					"/>
	</g>
	<g>
		<polygon style="fill-rule:evenodd;clip-rule:evenodd;fill:#B3AB64;" points="168.75,74.35 164.4,68.3 159.7,74.15 164.4,65.15 		
			"/>
	</g>
	<g>
		<polygon style="fill-rule:evenodd;clip-rule:evenodd;fill:#B3AB64;" points="496.9,42 494.45,38.6 491.8,41.9 494.45,36.85 		"/>
	</g>
	<g>
		<polygon style="fill-rule:evenodd;clip-rule:evenodd;fill:#B3AB64;" points="467.2,37.3 465,34.25 462.65,37.2 465,32.65 		"/>
	</g>
	<g>
		<polygon style="fill-rule:evenodd;clip-rule:evenodd;fill:#B3AB64;" points="437.65,46.55 433.85,41.25 429.7,46.35 433.85,38.55 
					"/>
	</g>
	<g>
		<polygon style="fill-rule:evenodd;clip-rule:evenodd;fill:#B3AB64;" points="400.15,42.8 396.3,37.45 392.1,42.65 396.3,34.7 		
			"/>
	</g>
	<g>
		<polygon style="fill-rule:evenodd;clip-rule:evenodd;fill:#B3AB64;" points="370.65,44.1 367.75,40.1 364.6,43.95 367.75,38 		"/>
	</g>
	<g>
		<polygon style="fill-rule:evenodd;clip-rule:evenodd;fill:#B3AB64;" points="346.65,49.75 344.45,46.7 342.05,49.65 344.45,45.1 
					"/>
	</g>
	<g>
		<polygon style="fill-rule:evenodd;clip-rule:evenodd;fill:#B3AB64;" points="323.55,39.35 321.25,36.2 318.75,39.25 321.25,34.55 
					"/>
	</g>
	<g>
		<polygon style="fill-rule:evenodd;clip-rule:evenodd;fill:#B3AB64;" points="294.1,49.3 291.25,45.3 288.15,49.15 291.25,43.3 		
			"/>
	</g>
	<g>
		<polygon style="fill-rule:evenodd;clip-rule:evenodd;fill:#B3AB64;" points="262.1,38.6 259.45,34.9 256.55,38.5 259.45,33 		"/>
	</g>
	<g>
		<polygon style="fill-rule:evenodd;clip-rule:evenodd;fill:#B3AB64;" points="147.1,78.55 144.45,74.9 141.6,78.45 144.45,73 		"/>
	</g>
	<g>
		<polygon style="fill-rule:evenodd;clip-rule:evenodd;fill:#B3AB64;" points="233.2,35.9 229.05,30.1 224.55,35.75 229.05,27.15 		
			"/>
	</g>
	<g>
		<polygon style="fill-rule:evenodd;clip-rule:evenodd;fill:#B3AB64;" points="199.15,40.4 194.4,46.3 199.15,37.25 203.55,46.5 		
			"/>
	</g>
	<g>
		<polygon style="fill-rule:evenodd;clip-rule:evenodd;fill:#B3AB64;" points="178.55,44.35 174.75,39.05 170.6,44.2 174.75,36.35 
					"/>
	</g>
	<g>
		<polygon style="fill-rule:evenodd;clip-rule:evenodd;fill:#B3AB64;" points="144.95,41.95 142.1,38 139,41.8 142.1,35.95 		"/>
	</g>
	<g>
		<polygon style="fill-rule:evenodd;clip-rule:evenodd;fill:#B3AB64;" points="415.3,80.45 412.45,76.5 409.35,80.35 412.45,74.45 
					"/>
	</g>
	<g>
		<polygon style="fill-rule:evenodd;clip-rule:evenodd;fill:#B3AB64;" points="119.4,44 115.45,38.5 111.15,43.8 115.45,35.65 		"/>
	</g>
	<g>
		<polygon style="fill-rule:evenodd;clip-rule:evenodd;fill:#B3AB64;" points="88.5,44.8 85.95,41.3 83.25,44.65 85.95,39.5 		"/>
	</g>
	<g>
		<polygon style="fill-rule:evenodd;clip-rule:evenodd;fill:#B3AB64;" points="13.15,49.6 10.6,46.1 7.9,49.5 10.6,44.3 		"/>
	</g>
	<g>
		<polygon style="fill-rule:evenodd;clip-rule:evenodd;fill:#B3AB64;" points="31.05,78.85 26.45,72.5 21.5,78.65 26.45,69.2 		"/>
	</g>
	<g>
		<polygon style="fill-rule:evenodd;clip-rule:evenodd;fill:#B3AB64;" points="36.45,56.05 32.95,51.2 29.15,55.9 32.95,48.7 		"/>
	</g>
	<g>
		<polygon style="fill-rule:evenodd;clip-rule:evenodd;fill:#B3AB64;" points="55.5,51.6 51.45,46 47.1,51.45 51.45,43.1 		"/>
	</g>
	<g>
		<polygon style="fill-rule:evenodd;clip-rule:evenodd;fill:#B3AB64;" points="68.75,78.1 63.95,71.5 58.8,77.9 63.95,68.05 		"/>
	</g>
	<g>
		<polygon style="fill-rule:evenodd;clip-rule:evenodd;fill:#B3AB64;" points="156.65,31.7 153.95,28 151.1,31.6 153.95,26.1 		"/>
	</g>
	<g>
		<polygon style="fill-rule:evenodd;clip-rule:evenodd;fill:#B3AB64;" points="193.5,29.3 191.25,26.15 188.8,29.2 191.25,24.55 		
			"/>
	</g>
	<g>
		<polygon style="fill-rule:evenodd;clip-rule:evenodd;fill:#B3AB64;" points="12.2,75.6 9.95,72.5 7.55,75.5 9.95,70.9 		"/>
	</g>
	<g>
		<polygon style="fill-rule:evenodd;clip-rule:evenodd;fill:#B3AB64;" points="187.85,79.15 184.45,74.4 180.8,79 184.45,72 		"/>
	</g>
	<g>
		<polygon style="fill-rule:evenodd;clip-rule:evenodd;fill:#B3AB64;" points="255.7,26.45 251.6,20.7 247.1,26.25 251.6,17.75 		
			"/>
	</g>
	<g>
		<polygon style="fill-rule:evenodd;clip-rule:evenodd;fill:#B3AB64;" points="287.85,28.35 284.9,24.2 281.65,28.2 284.9,22.05 		
			"/>
	</g>
	<g>
		<polygon style="fill-rule:evenodd;clip-rule:evenodd;fill:#B3AB64;" points="314.55,27.85 310.5,22.15 306.05,27.65 310.5,19.2 		
			"/>
	</g>
	<g>
		<polygon style="fill-rule:evenodd;clip-rule:evenodd;fill:#B3AB64;" points="346.65,26.05 344.2,22.6 341.5,25.95 344.2,20.85 		
			"/>
	</g>
	<g>
		<polygon style="fill-rule:evenodd;clip-rule:evenodd;fill:#B3AB64;" points="379.25,19.6 375.3,14.15 371.05,19.45 375.3,11.35 		
			"/>
	</g>
	<g>
		<polygon style="fill-rule:evenodd;clip-rule:evenodd;fill:#B3AB64;" points="403.25,20.65 398.5,26.5 403.25,17.5 407.6,26.7 		
			"/>
	</g>
	<g>
		<polygon style="fill-rule:evenodd;clip-rule:evenodd;fill:#B3AB64;" points="430.55,29.9 427.75,26.05 424.75,29.8 427.75,24 		
			"/>
	</g>
	<g>
		<polygon style="fill-rule:evenodd;clip-rule:evenodd;fill:#B3AB64;" points="455.55,29.15 452.75,25.25 449.7,29 452.75,23.2 		
			"/>
	</g>
	<g>
		<polygon style="fill-rule:evenodd;clip-rule:evenodd;fill:#B3AB64;" points="489.75,28.15 486.15,23.15 482.25,28 486.15,20.6 		
			"/>
	</g>
	<g>
		<polygon style="fill-rule:evenodd;clip-rule:evenodd;fill:#B3AB64;" points="361.95,75.5 358.75,79.5 361.95,73.35 364.95,79.65 
					"/>
	</g>
	<g>
		<polygon style="fill-rule:evenodd;clip-rule:evenodd;fill:#B3AB64;" points="301.5,77 297.4,71.25 292.9,76.8 297.4,68.3 		"/>
	</g>
	<g>
		<polygon style="fill-rule:evenodd;clip-rule:evenodd;fill:#B3AB64;" points="88.8,73.75 86.25,70.2 83.45,73.6 86.25,68.35 		"/>
	</g>
	<g>
		<polygon style="fill-rule:evenodd;clip-rule:evenodd;fill:#B3AB64;" points="478.9,79.45 474.95,74 470.7,79.3 474.95,71.15 		"/>
	</g>
	<g>
		<polygon style="fill-rule:evenodd;clip-rule:evenodd;fill:#B3AB64;" points="444.95,11.5 442.15,15 444.95,9.65 447.55,15.1 		"/>
	</g>
	<g>
		<polygon style="fill-rule:evenodd;clip-rule:evenodd;fill:#B3AB64;" points="393.3,8.25 390.95,5 388.4,8.15 390.95,3.3 		"/>
	</g>
	<g>
		<polygon style="fill-rule:evenodd;clip-rule:evenodd;fill:#B3AB64;" points="323.95,73 319.1,79.05 323.95,69.75 328.45,79.25 		
			"/>
	</g>
	<g>
		<polygon style="fill-rule:evenodd;clip-rule:evenodd;fill:#B3AB64;" points="338.5,15.3 333.95,9 329.05,15.1 333.95,5.75 		"/>
	</g>
	<g>
		<polygon style="fill-rule:evenodd;clip-rule:evenodd;fill:#B3AB64;" points="301.75,19.15 297.45,13.2 292.8,18.95 297.45,10.1 		
			"/>
	</g>
	<g>
		<polygon style="fill-rule:evenodd;clip-rule:evenodd;fill:#B3AB64;" points="240.95,73.5 236.5,79.05 240.95,70.5 245.1,79.25 		
			"/>
	</g>
	<g>
		<polygon style="fill-rule:evenodd;clip-rule:evenodd;fill:#B3AB64;" points="212.7,27 209.45,22.5 205.95,26.85 209.45,20.15 		
			"/>
	</g>
	<g>
		<polygon style="fill-rule:evenodd;clip-rule:evenodd;fill:#B3AB64;" points="120.45,77.75 115.95,71.5 111.1,77.55 115.95,68.25 
					"/>
	</g>
</g>
</svg>
