<?xml version="1.0" encoding="iso-8859-1"?>
<!-- Generator: Adobe Illustrator 15.1.0, SVG Export Plug-In . SVG Version: 6.00 Build 0)  -->
<!DOCTYPE svg PUBLIC "-//W3C//DTD SVG 1.1//EN" "http://www.w3.org/Graphics/SVG/1.1/DTD/svg11.dtd">
<svg version="1.1" id="Isolation_Mode" xmlns="http://www.w3.org/2000/svg" xmlns:xlink="http://www.w3.org/1999/xlink" x="0px"
	 y="0px" width="500px" height="89.55px" viewBox="0 0 500 89.55" style="enable-background:new 0 0 500 89.55;"
	 xml:space="preserve">
<g>
	<g>
		<path style="fill-rule:evenodd;clip-rule:evenodd;fill:#ABA254;" d="M500,49.5v40.05H0V49.5c10.967,0,24.183-2.55,39.65-7.65
			c8.867-2.9,23.267-8.517,43.2-16.85c19.367-8.1,34.133-13.767,44.3-17c16.333-5.167,30.667-7.817,43-7.95
			c33.6-0.333,68.567,2.034,104.9,7.1c26.667,3.733,56.967,9.417,90.9,17.05c18.533,4.2,43.684,9.983,75.45,17.35
			C466.366,46.85,485.9,49.5,500,49.5z"/>
	</g>
	<g>
		<polygon style="fill-rule:evenodd;clip-rule:evenodd;fill:#918B4B;" points="46.15,80.25 41.9,74.3 37.3,80.05 41.9,71.25 		"/>
	</g>
	<g>
		<polygon style="fill-rule:evenodd;clip-rule:evenodd;fill:#918B4B;" points="76.25,68.25 71.1,61.1 65.55,68 71.1,57.4 		"/>
	</g>
	<g>
		<polygon style="fill-rule:evenodd;clip-rule:evenodd;fill:#918B4B;" points="106.9,71.45 102.85,65.8 98.45,71.25 102.85,62.9 		
			"/>
	</g>
	<g>
		<polygon style="fill-rule:evenodd;clip-rule:evenodd;fill:#918B4B;" points="139.35,73.35 134.9,67.15 130.05,73.2 134.9,63.95 		
			"/>
	</g>
	<g>
		<polygon style="fill-rule:evenodd;clip-rule:evenodd;fill:#918B4B;" points="158.8,57.3 153.55,63.8 158.8,53.85 163.6,64 		"/>
	</g>
	<g>
		<polygon style="fill-rule:evenodd;clip-rule:evenodd;fill:#918B4B;" points="197.2,72 194.35,68.05 191.25,71.9 194.35,66 		"/>
	</g>
	<g>
		<polygon style="fill-rule:evenodd;clip-rule:evenodd;fill:#918B4B;" points="230.25,63.95 225.5,57.35 220.35,63.75 225.5,53.95 
					"/>
	</g>
	<g>
		<polygon style="fill-rule:evenodd;clip-rule:evenodd;fill:#918B4B;" points="256.85,76.65 252.25,70.3 247.25,76.45 252.25,67 		
			"/>
	</g>
	<g>
		<polygon style="fill-rule:evenodd;clip-rule:evenodd;fill:#918B4B;" points="278.65,69.3 273.45,62.05 267.75,69.1 273.45,58.25 
					"/>
	</g>
	<g>
		<polygon style="fill-rule:evenodd;clip-rule:evenodd;fill:#918B4B;" points="320.2,69.25 316.1,63.55 311.65,69.05 316.1,60.6 		
			"/>
	</g>
	<g>
		<polygon style="fill-rule:evenodd;clip-rule:evenodd;fill:#918B4B;" points="352.75,79.65 347.65,72.5 342.05,79.4 347.65,68.85 
					"/>
	</g>
	<g>
		<polygon style="fill-rule:evenodd;clip-rule:evenodd;fill:#918B4B;" points="382.45,83.15 379.5,79.05 376.3,83 379.5,76.95 		"/>
	</g>
	<g>
		<polygon style="fill-rule:evenodd;clip-rule:evenodd;fill:#918B4B;" points="404.95,70.7 402.3,67 399.4,70.55 402.3,65.1 		"/>
	</g>
	<g>
		<polygon style="fill-rule:evenodd;clip-rule:evenodd;fill:#918B4B;" points="438.35,74.75 432.95,67.3 427.15,74.55 432.95,63.45 
					"/>
	</g>
	<g>
		<polygon style="fill-rule:evenodd;clip-rule:evenodd;fill:#918B4B;" points="471.45,66.55 465.85,58.8 459.75,66.3 465.85,54.75 
					"/>
	</g>
	<g>
		<polygon style="fill-rule:evenodd;clip-rule:evenodd;fill:#918B4B;" points="496.35,79.5 491.65,72.9 486.5,79.25 491.65,69.5 		
			"/>
	</g>
	<g>
		<polygon style="fill-rule:evenodd;clip-rule:evenodd;fill:#918B4B;" points="227.8,83.95 222.45,76.5 216.65,83.75 222.45,72.7 		
			"/>
	</g>
	<g>
		<polygon style="fill-rule:evenodd;clip-rule:evenodd;fill:#918B4B;" points="456.35,83.8 453.25,79.55 449.95,83.7 453.25,77.35 
					"/>
	</g>
	<g>
		<polygon style="fill-rule:evenodd;clip-rule:evenodd;fill:#918B4B;" points="169.65,82.8 164.45,75.55 158.8,82.55 164.45,71.8 		
			"/>
	</g>
	<g>
		<polygon style="fill-rule:evenodd;clip-rule:evenodd;fill:#918B4B;" points="478.9,87.65 476,83.6 472.85,87.55 476,81.5 		"/>
	</g>
	<g>
		<polygon style="fill-rule:evenodd;clip-rule:evenodd;fill:#918B4B;" points="483.5,54.35 480.65,57.9 483.5,52.5 486.1,58.05 		
			"/>
	</g>
	<g>
		<polygon style="fill-rule:evenodd;clip-rule:evenodd;fill:#918B4B;" points="438.45,54.85 433.85,48.55 428.95,54.65 
			433.85,45.25 		"/>
	</g>
	<g>
		<polygon style="fill-rule:evenodd;clip-rule:evenodd;fill:#918B4B;" points="400.95,51.15 396.35,44.7 391.3,50.95 396.35,41.4 		
			"/>
	</g>
	<g>
		<polygon style="fill-rule:evenodd;clip-rule:evenodd;fill:#918B4B;" points="371.25,52.25 367.8,47.4 364,52.1 367.8,44.95 		"/>
	</g>
	<g>
		<polygon style="fill-rule:evenodd;clip-rule:evenodd;fill:#918B4B;" points="347.15,57.75 344.45,54.05 341.6,57.65 344.45,52.15 
					"/>
	</g>
	<g>
		<polygon style="fill-rule:evenodd;clip-rule:evenodd;fill:#918B4B;" points="321.3,43.55 318.3,47.25 321.3,41.6 324,47.35 		"/>
	</g>
	<g>
		<polygon style="fill-rule:evenodd;clip-rule:evenodd;fill:#918B4B;" points="294.7,57.4 291.3,52.65 287.55,57.25 291.3,50.2 		
			"/>
	</g>
	<g>
		<polygon style="fill-rule:evenodd;clip-rule:evenodd;fill:#918B4B;" points="262.65,46.7 259.45,42.25 256,46.55 259.45,40 		"/>
	</g>
	<g>
		<polygon style="fill-rule:evenodd;clip-rule:evenodd;fill:#918B4B;" points="217.65,9.75 214.5,5.35 211.05,9.6 214.5,3.05 		"/>
	</g>
	<g>
		<polygon style="fill-rule:evenodd;clip-rule:evenodd;fill:#918B4B;" points="234.1,44.3 229.1,37.4 223.65,44.1 229.1,33.8 		"/>
	</g>
	<g>
		<polygon style="fill-rule:evenodd;clip-rule:evenodd;fill:#918B4B;" points="204.45,54.95 199.2,47.65 193.45,54.7 199.2,43.85 		
			"/>
	</g>
	<g>
		<polygon style="fill-rule:evenodd;clip-rule:evenodd;fill:#918B4B;" points="179.35,52.7 174.8,46.35 169.8,52.5 174.8,43.05 		
			"/>
	</g>
	<g>
		<polygon style="fill-rule:evenodd;clip-rule:evenodd;fill:#918B4B;" points="145.55,50.05 142.15,45.3 138.4,49.9 142.15,42.85 		
			"/>
	</g>
	<g>
		<polygon style="fill-rule:evenodd;clip-rule:evenodd;fill:#918B4B;" points="113.15,43.15 108.4,36.55 103.25,42.95 108.4,33.1 		
			"/>
	</g>
	<g>
		<polygon style="fill-rule:evenodd;clip-rule:evenodd;fill:#918B4B;" points="79.3,41.1 76,45.15 79.3,38.95 82.3,45.3 		"/>
	</g>
	<g>
		<polygon style="fill-rule:evenodd;clip-rule:evenodd;fill:#918B4B;" points="13.65,57.65 10.65,53.5 7.4,57.55 10.65,51.3 		"/>
	</g>
	<g>
		<polygon style="fill-rule:evenodd;clip-rule:evenodd;fill:#918B4B;" points="57.85,51.8 52.35,44.15 46.4,51.55 52.35,40.2 		"/>
	</g>
	<g>
		<polygon style="fill-rule:evenodd;clip-rule:evenodd;fill:#918B4B;" points="33.2,64.1 29,58.3 24.45,63.95 29,55.3 		"/>
	</g>
	<g>
		<polygon style="fill-rule:evenodd;clip-rule:evenodd;fill:#918B4B;" points="69.75,88.15 64,80.2 57.8,87.9 64,76.1 		"/>
	</g>
	<g>
		<polygon style="fill-rule:evenodd;clip-rule:evenodd;fill:#918B4B;" points="101.2,31 97.5,25.8 93.45,30.8 97.5,23.15 		"/>
	</g>
	<g>
		<polygon style="fill-rule:evenodd;clip-rule:evenodd;fill:#918B4B;" points="194.25,88.35 191,83.85 187.5,88.2 191,81.5 		"/>
	</g>
	<g>
		<polygon style="fill-rule:evenodd;clip-rule:evenodd;fill:#918B4B;" points="151.2,35 148,30.55 144.55,34.85 148,28.25 		"/>
	</g>
	<g>
		<polygon style="fill-rule:evenodd;clip-rule:evenodd;fill:#918B4B;" points="193.95,37.3 191.3,33.55 188.35,37.15 191.3,31.6 		
			"/>
	</g>
	<g>
		<polygon style="fill-rule:evenodd;clip-rule:evenodd;fill:#918B4B;" points="173.9,28.3 171.25,24.55 168.3,28.15 171.25,22.6 		
			"/>
	</g>
	<g>
		<polygon style="fill-rule:evenodd;clip-rule:evenodd;fill:#918B4B;" points="20.2,84.8 17.5,81.05 14.55,84.7 17.5,79.15 		"/>
	</g>
	<g>
		<polygon style="fill-rule:evenodd;clip-rule:evenodd;fill:#918B4B;" points="230.05,20.75 225.95,15.1 221.55,20.55 225.95,12.15 
					"/>
	</g>
	<g>
		<polygon style="fill-rule:evenodd;clip-rule:evenodd;fill:#918B4B;" points="256.6,34.85 251.65,27.95 246.25,34.65 251.65,24.4 
					"/>
	</g>
	<g>
		<polygon style="fill-rule:evenodd;clip-rule:evenodd;fill:#918B4B;" points="288.5,36.5 284.95,31.5 281.05,36.35 284.95,28.95 		
			"/>
	</g>
	<g>
		<polygon style="fill-rule:evenodd;clip-rule:evenodd;fill:#918B4B;" points="315.45,36.25 310.55,29.4 305.2,36 310.55,25.9 		"/>
	</g>
	<g>
		<polygon style="fill-rule:evenodd;clip-rule:evenodd;fill:#918B4B;" points="347.2,34.1 344.2,30 340.95,34 344.2,27.85 		"/>
	</g>
	<g>
		<polygon style="fill-rule:evenodd;clip-rule:evenodd;fill:#918B4B;" points="377.2,37.3 372.5,30.75 367.4,37.1 372.5,27.4 		"/>
	</g>
	<g>
		<polygon style="fill-rule:evenodd;clip-rule:evenodd;fill:#918B4B;" points="321.3,82.85 317.65,87.4 321.3,80.45 324.65,87.55 		
			"/>
	</g>
	<g>
		<polygon style="fill-rule:evenodd;clip-rule:evenodd;fill:#918B4B;" points="425,87.95 420.65,81.95 416,87.75 420.65,78.85 		"/>
	</g>
	<g>
		<polygon style="fill-rule:evenodd;clip-rule:evenodd;fill:#918B4B;" points="302.35,85.4 297.45,78.55 292.05,85.2 297.45,75 		
			"/>
	</g>
	<g>
		<polygon style="fill-rule:evenodd;clip-rule:evenodd;fill:#918B4B;" points="89.35,81.8 86.25,77.55 82.95,81.65 86.25,75.35 		
			"/>
	</g>
	<g>
		<polygon style="fill-rule:evenodd;clip-rule:evenodd;fill:#918B4B;" points="270.8,87.95 268,84.05 264.95,87.85 268,82.05 		"/>
	</g>
	<g>
		<polygon style="fill-rule:evenodd;clip-rule:evenodd;fill:#918B4B;" points="277.45,16.85 272.5,9.95 267.1,16.65 272.5,6.4 		"/>
	</g>
	<g>
		<polygon style="fill-rule:evenodd;clip-rule:evenodd;fill:#918B4B;" points="253.4,15.4 247.65,7.4 241.45,15.15 247.65,3.3 		"/>
	</g>
	<g>
		<polygon style="fill-rule:evenodd;clip-rule:evenodd;fill:#918B4B;" points="213.85,29.6 209.95,24.15 205.7,29.4 209.95,21.35 		
			"/>
	</g>
	<g>
		<polygon style="fill-rule:evenodd;clip-rule:evenodd;fill:#918B4B;" points="195.05,13.3 189.65,5.85 183.8,13.1 189.65,1.95 		
			"/>
	</g>
	<g>
		<polygon style="fill-rule:evenodd;clip-rule:evenodd;fill:#918B4B;" points="160.2,9.9 157.05,5.5 153.65,9.75 157.05,3.25 		"/>
	</g>
	<g>
		<polygon style="fill-rule:evenodd;clip-rule:evenodd;fill:#918B4B;" points="140.25,25.1 136.1,19.3 131.55,24.9 136.1,16.3 		"/>
	</g>
	<g>
		<polygon style="fill-rule:evenodd;clip-rule:evenodd;fill:#918B4B;" points="121.3,81.65 117.8,86 121.3,79.3 124.55,86.15 		"/>
	</g>
</g>
</svg>
