<?xml version="1.0" encoding="iso-8859-1"?>
<!-- Generator: Adobe Illustrator 15.1.0, SVG Export Plug-In . SVG Version: 6.00 Build 0)  -->
<!DOCTYPE svg PUBLIC "-//W3C//DTD SVG 1.1//EN" "http://www.w3.org/Graphics/SVG/1.1/DTD/svg11.dtd">
<svg version="1.1" id="front_ground_2" xmlns="http://www.w3.org/2000/svg" xmlns:xlink="http://www.w3.org/1999/xlink" x="0px"
	 y="0px" width="338.45px" height="43.25px" viewBox="0 0 338.45 43.25" style="enable-background:new 0 0 338.45 43.25;"
	 xml:space="preserve">
<g>
	<path style="fill-rule:evenodd;clip-rule:evenodd;fill:#ABA254;" d="M317.7,41.25c8.666,1,15.583,1.667,20.75,2L-0.025,43.225
		C3.621,43.1,7.996,42.775,13.1,42.25c11.667-1.167,22.283-3,31.85-5.5c4.966-1.3,11.117-3.884,18.45-7.75
		c1.5-0.8,8.25-4.616,20.25-11.45c17.967-10.233,32.233-16,42.8-17.3c11-1.333,32.483,2.733,64.45,12.2
		c8.633,2.566,21.666,6.5,39.1,11.8c14.8,4.333,26.616,7.333,35.45,9C282.95,36.583,300.366,39.25,317.7,41.25z"/>
	<g>
		<g>
			<polygon style="fill-rule:evenodd;clip-rule:evenodd;fill:#918B4B;" points="91.9,28.3 94.9,22.05 98.1,28.2 94.9,24.15 			"/>
		</g>
	</g>
	<g>
		<g>
			<polygon style="fill-rule:evenodd;clip-rule:evenodd;fill:#918B4B;" points="127.4,27.65 130.65,20.8 134.2,27.5 130.65,23.15 
							"/>
		</g>
	</g>
	<g>
		<g>
			<polygon style="fill-rule:evenodd;clip-rule:evenodd;fill:#918B4B;" points="150.75,39.85 156.1,28.6 161.9,39.65 156.1,32.4 			
				"/>
		</g>
	</g>
	<g>
		<g>
			<polygon style="fill-rule:evenodd;clip-rule:evenodd;fill:#918B4B;" points="168.6,27.2 173.55,16.85 178.85,27 173.55,20.35 			
				"/>
		</g>
	</g>
	<g>
		<g>
			<polygon style="fill-rule:evenodd;clip-rule:evenodd;fill:#918B4B;" points="201.4,25.3 199.25,28.3 201.4,23.75 203.75,28.2 			
				"/>
		</g>
	</g>
	<g>
		<g>
			<polygon style="fill-rule:evenodd;clip-rule:evenodd;fill:#918B4B;" points="220.75,35.7 225.35,26.1 230.3,35.5 225.35,29.35 
							"/>
		</g>
	</g>
	<g>
		<g>
			<polygon style="fill-rule:evenodd;clip-rule:evenodd;fill:#918B4B;" points="252.5,39.9 255.5,33.6 258.75,39.75 255.5,35.75 			
				"/>
		</g>
	</g>
	<g>
		<g>
			<polygon style="fill-rule:evenodd;clip-rule:evenodd;fill:#918B4B;" points="150.55,22.4 156.3,10.3 162.5,22.15 156.3,14.4 			
				"/>
		</g>
	</g>
	<g>
		<g>
			<polygon style="fill-rule:evenodd;clip-rule:evenodd;fill:#918B4B;" points="108.45,19.8 115.1,5.75 122.4,19.55 115.1,10.5 			
				"/>
		</g>
	</g>
	<g>
		<g>
			<polygon style="fill-rule:evenodd;clip-rule:evenodd;fill:#918B4B;" points="61.3,40.05 66.85,28.4 72.85,39.8 66.85,32.35 			
				"/>
		</g>
	</g>
	<g>
		<g>
			<polygon style="fill-rule:evenodd;clip-rule:evenodd;fill:#918B4B;" points="81.5,32.15 77.7,37.4 81.5,29.45 85.55,37.25 			"/>
		</g>
	</g>
	<g>
		<g>
			<polygon style="fill-rule:evenodd;clip-rule:evenodd;fill:#918B4B;" points="187.7,38.75 191.5,30.8 195.55,38.55 191.5,33.5 			
				"/>
		</g>
	</g>
	<g>
		<g>
			<polygon style="fill-rule:evenodd;clip-rule:evenodd;fill:#918B4B;" points="109.05,41.2 113.8,31.25 118.95,41 113.8,34.65 			
				"/>
		</g>
	</g>
</g>
</svg>
