<?xml version="1.0" encoding="iso-8859-1"?>
<!-- Generator: Adobe Illustrator 15.1.0, SVG Export Plug-In . SVG Version: 6.00 Build 0)  -->
<!DOCTYPE svg PUBLIC "-//W3C//DTD SVG 1.1//EN" "http://www.w3.org/Graphics/SVG/1.1/DTD/svg11.dtd">
<svg version="1.1" id="ground_x5F_mid_x5F_top_x5F_02.ai"
	 xmlns="http://www.w3.org/2000/svg" xmlns:xlink="http://www.w3.org/1999/xlink" x="0px" y="0px" width="2500px" height="110.55px"
	 viewBox="0 0 2500 110.55" style="enable-background:new 0 0 2500 110.55;" xml:space="preserve">
<g>
	<g>
		<path style="fill-rule:evenodd;clip-rule:evenodd;fill:#B3AB64;" d="M1499.95,70.55v40h-500v-70c14.633,0,44.333,1.25,89.1,3.75
			c44.6,2.534,79.284,3.784,104.05,3.75c34.867,0,91.517,3.75,169.95,11.25c51.033,4.867,78.117,7.45,81.25,7.75
			C1470.7,69.384,1489.25,70.55,1499.95,70.55z"/>
	</g>
	<g>
		<polygon style="fill-rule:evenodd;clip-rule:evenodd;fill:#A49A48;" points="1045.4,100.5 1041.85,95.55 1037.95,100.35 
			1041.85,93 		"/>
	</g>
	<g>
		<polygon style="fill-rule:evenodd;clip-rule:evenodd;fill:#A49A48;" points="1075.3,88.35 1071,82.4 1066.35,88.15 1071,79.3 		
			"/>
	</g>
	<g>
		<polygon style="fill-rule:evenodd;clip-rule:evenodd;fill:#A49A48;" points="1106.15,91.75 1102.75,87.05 1099.1,91.6 
			1102.75,84.65 		"/>
	</g>
	<g>
		<polygon style="fill-rule:evenodd;clip-rule:evenodd;fill:#A49A48;" points="1138.55,93.6 1134.85,88.45 1130.8,93.45 
			1134.85,85.75 		"/>
	</g>
	<g>
		<polygon style="fill-rule:evenodd;clip-rule:evenodd;fill:#A49A48;" points="1158.7,78.6 1154.35,84 1158.7,75.7 1162.7,84.15 		
			"/>
	</g>
	<g>
		<polygon style="fill-rule:evenodd;clip-rule:evenodd;fill:#A49A48;" points="1196.65,92.5 1194.3,89.2 1191.7,92.4 1194.3,87.5 		
			"/>
	</g>
	<g>
		<polygon style="fill-rule:evenodd;clip-rule:evenodd;fill:#A49A48;" points="1229.35,84.15 1225.4,78.65 1221.15,83.95 
			1225.4,75.8 		"/>
	</g>
	<g>
		<polygon style="fill-rule:evenodd;clip-rule:evenodd;fill:#A49A48;" points="1256,96.9 1252.15,91.55 1248,96.7 1252.15,88.85 		
			"/>
	</g>
	<g>
		<polygon style="fill-rule:evenodd;clip-rule:evenodd;fill:#A49A48;" points="1277.7,89.4 1273.35,83.35 1268.6,89.2 1273.35,80.2 
					"/>
	</g>
	<g>
		<polygon style="fill-rule:evenodd;clip-rule:evenodd;fill:#A49A48;" points="1319.4,89.55 1316,84.8 1312.3,89.4 1316,82.35 		"/>
	</g>
	<g>
		<polygon style="fill-rule:evenodd;clip-rule:evenodd;fill:#A49A48;" points="1351.8,99.75 1347.55,93.8 1342.9,99.55 
			1347.55,90.75 		"/>
	</g>
	<g>
		<polygon style="fill-rule:evenodd;clip-rule:evenodd;fill:#A49A48;" points="1381.85,103.65 1379.45,100.25 1376.75,103.55 
			1379.45,98.5 		"/>
	</g>
	<g>
		<polygon style="fill-rule:evenodd;clip-rule:evenodd;fill:#A49A48;" points="1404.45,91.25 1402.2,88.15 1399.8,91.15 
			1402.2,86.6 		"/>
	</g>
	<g>
		<polygon style="fill-rule:evenodd;clip-rule:evenodd;fill:#A49A48;" points="1437.35,94.85 1432.9,88.6 1428,94.65 1432.9,85.4 		
			"/>
	</g>
	<g>
		<polygon style="fill-rule:evenodd;clip-rule:evenodd;fill:#A49A48;" points="1470.4,86.6 1465.75,80.1 1460.7,86.4 1465.75,76.75 
					"/>
	</g>
	<g>
		<polygon style="fill-rule:evenodd;clip-rule:evenodd;fill:#A49A48;" points="1495.5,99.65 1491.55,94.2 1487.25,99.5 
			1491.55,91.35 		"/>
	</g>
	<g>
		<polygon style="fill-rule:evenodd;clip-rule:evenodd;fill:#A49A48;" points="1226.85,104.05 1222.4,97.85 1217.55,103.85 
			1222.4,94.65 		"/>
	</g>
	<g>
		<polygon style="fill-rule:evenodd;clip-rule:evenodd;fill:#A49A48;" points="1455.75,104.3 1453.2,100.75 1450.4,104.15 
			1453.2,98.9 		"/>
	</g>
	<g>
		<polygon style="fill-rule:evenodd;clip-rule:evenodd;fill:#A49A48;" points="1168.7,102.9 1164.35,96.85 1159.65,102.7 
			1164.35,93.7 		"/>
	</g>
	<g>
		<polygon style="fill-rule:evenodd;clip-rule:evenodd;fill:#A49A48;" points="1493.35,78.9 1490.95,75.55 1488.3,78.8 
			1490.95,73.8 		"/>
	</g>
	<g>
		<polygon style="fill-rule:evenodd;clip-rule:evenodd;fill:#A49A48;" points="1427.6,108.6 1425.45,105.55 1423.05,108.5 
			1425.45,103.95 		"/>
	</g>
	<g>
		<polygon style="fill-rule:evenodd;clip-rule:evenodd;fill:#A49A48;" points="1437.6,75.1 1433.8,69.8 1429.65,74.9 1433.8,67.1 		
			"/>
	</g>
	<g>
		<polygon style="fill-rule:evenodd;clip-rule:evenodd;fill:#A49A48;" points="1400.1,71.35 1396.25,66 1392.05,71.2 1396.25,63.25 
					"/>
	</g>
	<g>
		<polygon style="fill-rule:evenodd;clip-rule:evenodd;fill:#A49A48;" points="1370.6,72.65 1367.7,68.6 1364.55,72.5 1367.7,66.55 
					"/>
	</g>
	<g>
		<polygon style="fill-rule:evenodd;clip-rule:evenodd;fill:#A49A48;" points="1346.6,78.3 1344.4,75.2 1342,78.2 1344.4,73.65 		
			"/>
	</g>
	<g>
		<polygon style="fill-rule:evenodd;clip-rule:evenodd;fill:#A49A48;" points="1323.5,67.9 1321.2,64.7 1318.7,67.8 1321.2,63.1 		
			"/>
	</g>
	<g>
		<polygon style="fill-rule:evenodd;clip-rule:evenodd;fill:#A49A48;" points="1294.05,77.85 1291.2,73.85 1288.1,77.7 1291.2,71.8 
					"/>
	</g>
	<g>
		<polygon style="fill-rule:evenodd;clip-rule:evenodd;fill:#A49A48;" points="1262.05,67.15 1259.4,63.45 1256.5,67 1259.4,61.55 
					"/>
	</g>
	<g>
		<polygon style="fill-rule:evenodd;clip-rule:evenodd;fill:#A49A48;" points="1233.15,64.45 1229,58.65 1224.5,64.3 1229,55.7 		
			"/>
	</g>
	<g>
		<polygon style="fill-rule:evenodd;clip-rule:evenodd;fill:#A49A48;" points="1199.1,68.95 1194.35,74.85 1199.1,65.8 
			1203.5,75.05 		"/>
	</g>
	<g>
		<polygon style="fill-rule:evenodd;clip-rule:evenodd;fill:#A49A48;" points="1178.5,72.9 1174.7,67.6 1170.55,72.75 1174.7,64.9 
					"/>
	</g>
	<g>
		<polygon style="fill-rule:evenodd;clip-rule:evenodd;fill:#A49A48;" points="1144.9,70.5 1142.05,66.5 1138.95,70.35 
			1142.05,64.5 		"/>
	</g>
	<g>
		<polygon style="fill-rule:evenodd;clip-rule:evenodd;fill:#A49A48;" points="1112.25,63.3 1108.3,57.8 1104,63.15 1108.3,54.95 		
			"/>
	</g>
	<g>
		<polygon style="fill-rule:evenodd;clip-rule:evenodd;fill:#A49A48;" points="1079.2,62.3 1076.5,65.65 1079.2,60.5 1081.7,65.8 		
			"/>
	</g>
	<g>
		<polygon style="fill-rule:evenodd;clip-rule:evenodd;fill:#A49A48;" points="1013.1,78.15 1010.6,74.65 1007.85,78.05 
			1010.6,72.85 		"/>
	</g>
	<g>
		<polygon style="fill-rule:evenodd;clip-rule:evenodd;fill:#A49A48;" points="1056.85,71.85 1052.25,65.45 1047.3,71.65 
			1052.25,62.15 		"/>
	</g>
	<g>
		<polygon style="fill-rule:evenodd;clip-rule:evenodd;fill:#A49A48;" points="1031.9,67.1 1028.45,62.25 1024.65,66.95 
			1028.45,59.75 		"/>
	</g>
	<g>
		<polygon style="fill-rule:evenodd;clip-rule:evenodd;fill:#A49A48;" points="1018.45,48.25 1014.8,43.15 1010.85,48.1 
			1014.8,40.55 		"/>
	</g>
	<g>
		<polygon style="fill-rule:evenodd;clip-rule:evenodd;fill:#A49A48;" points="1071.15,52.75 1066.4,46.15 1061.2,52.55 
			1066.4,42.75 		"/>
	</g>
	<g>
		<polygon style="fill-rule:evenodd;clip-rule:evenodd;fill:#A49A48;" points="1150.6,55.45 1147.95,51.75 1145.05,55.3 
			1147.95,49.8 		"/>
	</g>
	<g>
		<polygon style="fill-rule:evenodd;clip-rule:evenodd;fill:#A49A48;" points="1193.45,57.85 1191.2,54.7 1188.8,57.75 1191.2,53.1 
					"/>
	</g>
	<g>
		<polygon style="fill-rule:evenodd;clip-rule:evenodd;fill:#A49A48;" points="1193.15,106.75 1190.95,103.65 1188.5,106.65 
			1190.95,102.05 		"/>
	</g>
	<g>
		<polygon style="fill-rule:evenodd;clip-rule:evenodd;fill:#A49A48;" points="1019.65,105.35 1017.45,102.25 1015,105.25 
			1017.45,100.65 		"/>
	</g>
	<g>
		<polygon style="fill-rule:evenodd;clip-rule:evenodd;fill:#A49A48;" points="1251.05,62.75 1246.95,57.05 1242.45,62.6 
			1246.95,54.1 		"/>
	</g>
	<g>
		<polygon style="fill-rule:evenodd;clip-rule:evenodd;fill:#A49A48;" points="1287.9,61.15 1284.95,57.05 1281.7,61.05 
			1284.95,54.9 		"/>
	</g>
	<g>
		<polygon style="fill-rule:evenodd;clip-rule:evenodd;fill:#A49A48;" points="1311.5,66.2 1307.45,60.55 1303,66.05 1307.45,57.6 
					"/>
	</g>
	<g>
		<polygon style="fill-rule:evenodd;clip-rule:evenodd;fill:#A49A48;" points="1348.9,67.5 1346.45,64.05 1343.75,67.35 
			1346.45,62.25 		"/>
	</g>
	<g>
		<polygon style="fill-rule:evenodd;clip-rule:evenodd;fill:#A49A48;" points="1321.3,103.2 1317,108.5 1321.3,100.4 1325.2,108.65 
					"/>
	</g>
	<g>
		<polygon style="fill-rule:evenodd;clip-rule:evenodd;fill:#A49A48;" points="1387.8,88.6 1383.45,82.55 1378.7,88.4 1383.45,79.4 
					"/>
	</g>
	<g>
		<polygon style="fill-rule:evenodd;clip-rule:evenodd;fill:#A49A48;" points="1398.5,107.95 1395.75,104.05 1392.7,107.85 
			1395.75,102.05 		"/>
	</g>
	<g>
		<polygon style="fill-rule:evenodd;clip-rule:evenodd;fill:#A49A48;" points="1480,107.55 1476.45,102.55 1472.5,107.4 
			1476.45,99.95 		"/>
	</g>
	<g>
		<polygon style="fill-rule:evenodd;clip-rule:evenodd;fill:#A49A48;" points="1301.45,105.55 1297.35,99.8 1292.85,105.35 
			1297.35,96.85 		"/>
	</g>
	<g>
		<polygon style="fill-rule:evenodd;clip-rule:evenodd;fill:#A49A48;" points="1088.75,102.3 1086.2,98.7 1083.4,102.15 
			1086.2,96.9 		"/>
	</g>
	<g>
		<polygon style="fill-rule:evenodd;clip-rule:evenodd;fill:#A49A48;" points="1170.05,59.15 1167.45,55.55 1164.6,59.05 
			1167.45,53.65 		"/>
	</g>
	<g>
		<polygon style="fill-rule:evenodd;clip-rule:evenodd;fill:#A49A48;" points="1126.1,107.55 1121.45,101.05 1116.35,107.35 
			1121.45,97.65 		"/>
	</g>
	<g>
		<polygon style="fill-rule:evenodd;clip-rule:evenodd;fill:#A49A48;" points="1069.4,109.15 1066.45,105.05 1063.2,109.05 
			1066.45,102.9 		"/>
	</g>
</g>
<g>
	<g>
		<path style="fill-rule:evenodd;clip-rule:evenodd;fill:#B3AB64;" d="M2000,40.55v70h-500v-40c14.434,0,38.15-2.066,71.15-6.2
			c10.699-1.366,44.533-6,101.5-13.899c46.267-6.4,83.833-11.167,112.699-14.3c41.567-4.5,76.483-7.033,104.75-7.6
			c12.7-0.233,31.4,1.684,56.101,5.75C1971.566,38.467,1989.5,40.55,2000,40.55z"/>
	</g>
	<g>
		<polygon style="fill-rule:evenodd;clip-rule:evenodd;fill:#A49A48;" points="1545.45,100.5 1541.9,95.55 1538,100.35 1541.9,93 		
			"/>
	</g>
	<g>
		<polygon style="fill-rule:evenodd;clip-rule:evenodd;fill:#A49A48;" points="1575.35,88.35 1571.05,82.4 1566.4,88.15 
			1571.05,79.3 		"/>
	</g>
	<g>
		<polygon style="fill-rule:evenodd;clip-rule:evenodd;fill:#A49A48;" points="1606.2,91.75 1602.8,87.05 1599.15,91.6 
			1602.8,84.65 		"/>
	</g>
	<g>
		<polygon style="fill-rule:evenodd;clip-rule:evenodd;fill:#A49A48;" points="1638.6,93.6 1634.9,88.45 1630.85,93.45 
			1634.9,85.75 		"/>
	</g>
	<g>
		<polygon style="fill-rule:evenodd;clip-rule:evenodd;fill:#A49A48;" points="1658.75,78.6 1654.4,84 1658.75,75.7 1662.75,84.15 
					"/>
	</g>
	<g>
		<polygon style="fill-rule:evenodd;clip-rule:evenodd;fill:#A49A48;" points="1696.7,92.5 1694.35,89.2 1691.75,92.4 1694.35,87.5 
					"/>
	</g>
	<g>
		<polygon style="fill-rule:evenodd;clip-rule:evenodd;fill:#A49A48;" points="1729.4,84.15 1725.45,78.65 1721.2,83.95 
			1725.45,75.8 		"/>
	</g>
	<g>
		<polygon style="fill-rule:evenodd;clip-rule:evenodd;fill:#A49A48;" points="1756.05,96.9 1752.2,91.55 1748.05,96.7 
			1752.2,88.85 		"/>
	</g>
	<g>
		<polygon style="fill-rule:evenodd;clip-rule:evenodd;fill:#A49A48;" points="1777.75,89.4 1773.4,83.35 1768.65,89.2 1773.4,80.2 
					"/>
	</g>
	<g>
		<polygon style="fill-rule:evenodd;clip-rule:evenodd;fill:#A49A48;" points="1819.45,89.55 1816.05,84.8 1812.35,89.4 
			1816.05,82.35 		"/>
	</g>
	<g>
		<polygon style="fill-rule:evenodd;clip-rule:evenodd;fill:#A49A48;" points="1851.85,99.75 1847.6,93.8 1842.95,99.55 
			1847.6,90.75 		"/>
	</g>
	<g>
		<polygon style="fill-rule:evenodd;clip-rule:evenodd;fill:#A49A48;" points="1881.9,103.65 1879.5,100.25 1876.8,103.55 
			1879.5,98.5 		"/>
	</g>
	<g>
		<polygon style="fill-rule:evenodd;clip-rule:evenodd;fill:#A49A48;" points="1904.5,91.25 1902.25,88.15 1899.85,91.15 
			1902.25,86.6 		"/>
	</g>
	<g>
		<polygon style="fill-rule:evenodd;clip-rule:evenodd;fill:#A49A48;" points="1937.4,94.85 1932.95,88.6 1928.05,94.65 
			1932.95,85.4 		"/>
	</g>
	<g>
		<polygon style="fill-rule:evenodd;clip-rule:evenodd;fill:#A49A48;" points="1970.45,86.6 1965.8,80.1 1960.75,86.4 1965.8,76.75 
					"/>
	</g>
	<g>
		<polygon style="fill-rule:evenodd;clip-rule:evenodd;fill:#A49A48;" points="1995.55,99.65 1991.6,94.2 1987.3,99.5 1991.6,91.35 
					"/>
	</g>
	<g>
		<polygon style="fill-rule:evenodd;clip-rule:evenodd;fill:#A49A48;" points="1726.9,104.05 1722.45,97.85 1717.6,103.85 
			1722.45,94.65 		"/>
	</g>
	<g>
		<polygon style="fill-rule:evenodd;clip-rule:evenodd;fill:#A49A48;" points="1955.8,104.3 1953.25,100.75 1950.45,104.15 
			1953.25,98.9 		"/>
	</g>
	<g>
		<polygon style="fill-rule:evenodd;clip-rule:evenodd;fill:#A49A48;" points="1668.75,102.9 1664.4,96.85 1659.7,102.7 
			1664.4,93.7 		"/>
	</g>
	<g>
		<polygon style="fill-rule:evenodd;clip-rule:evenodd;fill:#A49A48;" points="1996.9,70.55 1994.45,67.15 1991.8,70.45 
			1994.45,65.4 		"/>
	</g>
	<g>
		<polygon style="fill-rule:evenodd;clip-rule:evenodd;fill:#A49A48;" points="1967.2,65.8 1965,62.75 1962.65,65.75 1965,61.2 		
			"/>
	</g>
	<g>
		<polygon style="fill-rule:evenodd;clip-rule:evenodd;fill:#A49A48;" points="1937.65,75.1 1933.85,69.8 1929.7,74.9 1933.85,67.1 
					"/>
	</g>
	<g>
		<polygon style="fill-rule:evenodd;clip-rule:evenodd;fill:#A49A48;" points="1900.15,71.35 1896.3,66 1892.1,71.2 1896.3,63.25 		
			"/>
	</g>
	<g>
		<polygon style="fill-rule:evenodd;clip-rule:evenodd;fill:#A49A48;" points="1870.65,72.65 1867.75,68.6 1864.6,72.5 
			1867.75,66.55 		"/>
	</g>
	<g>
		<polygon style="fill-rule:evenodd;clip-rule:evenodd;fill:#A49A48;" points="1846.65,78.3 1844.45,75.2 1842.05,78.2 
			1844.45,73.65 		"/>
	</g>
	<g>
		<polygon style="fill-rule:evenodd;clip-rule:evenodd;fill:#A49A48;" points="1823.55,67.9 1821.25,64.7 1818.75,67.8 
			1821.25,63.1 		"/>
	</g>
	<g>
		<polygon style="fill-rule:evenodd;clip-rule:evenodd;fill:#A49A48;" points="1794.1,77.85 1791.25,73.85 1788.15,77.7 
			1791.25,71.8 		"/>
	</g>
	<g>
		<polygon style="fill-rule:evenodd;clip-rule:evenodd;fill:#A49A48;" points="1762.1,67.15 1759.45,63.45 1756.55,67 
			1759.45,61.55 		"/>
	</g>
	<g>
		<polygon style="fill-rule:evenodd;clip-rule:evenodd;fill:#A49A48;" points="1647.1,107.1 1644.5,103.45 1641.6,107 
			1644.5,101.55 		"/>
	</g>
	<g>
		<polygon style="fill-rule:evenodd;clip-rule:evenodd;fill:#A49A48;" points="1733.2,64.45 1729.05,58.65 1724.55,64.3 
			1729.05,55.7 		"/>
	</g>
	<g>
		<polygon style="fill-rule:evenodd;clip-rule:evenodd;fill:#A49A48;" points="1699.15,68.95 1694.4,74.85 1699.15,65.8 
			1703.55,75.05 		"/>
	</g>
	<g>
		<polygon style="fill-rule:evenodd;clip-rule:evenodd;fill:#A49A48;" points="1678.55,72.9 1674.75,67.6 1670.6,72.75 
			1674.75,64.9 		"/>
	</g>
	<g>
		<polygon style="fill-rule:evenodd;clip-rule:evenodd;fill:#A49A48;" points="1644.95,70.5 1642.1,66.5 1639,70.35 1642.1,64.5 		
			"/>
	</g>
	<g>
		<polygon style="fill-rule:evenodd;clip-rule:evenodd;fill:#A49A48;" points="1915.3,109 1912.5,105.05 1909.4,108.85 1912.5,103 
					"/>
	</g>
	<g>
		<polygon style="fill-rule:evenodd;clip-rule:evenodd;fill:#A49A48;" points="1619.45,72.55 1615.5,67.05 1611.2,72.35 
			1615.5,64.2 		"/>
	</g>
	<g>
		<polygon style="fill-rule:evenodd;clip-rule:evenodd;fill:#A49A48;" points="1588.5,73.35 1586,69.85 1583.25,73.2 1586,68.05 		
			"/>
	</g>
	<g>
		<polygon style="fill-rule:evenodd;clip-rule:evenodd;fill:#A49A48;" points="1513.15,78.15 1510.65,74.65 1507.9,78.05 
			1510.65,72.85 		"/>
	</g>
	<g>
		<polygon style="fill-rule:evenodd;clip-rule:evenodd;fill:#A49A48;" points="1531.05,107.4 1526.5,101.05 1521.5,107.2 
			1526.5,97.75 		"/>
	</g>
	<g>
		<polygon style="fill-rule:evenodd;clip-rule:evenodd;fill:#A49A48;" points="1536.45,84.6 1533,79.75 1529.2,84.45 1533,77.25 		
			"/>
	</g>
	<g>
		<polygon style="fill-rule:evenodd;clip-rule:evenodd;fill:#A49A48;" points="1555.5,80.15 1551.5,74.55 1547.1,79.95 
			1551.5,71.65 		"/>
	</g>
	<g>
		<polygon style="fill-rule:evenodd;clip-rule:evenodd;fill:#A49A48;" points="1568.75,106.65 1564,100.05 1558.8,106.45 1564,96.6 
					"/>
	</g>
	<g>
		<polygon style="fill-rule:evenodd;clip-rule:evenodd;fill:#A49A48;" points="1656.65,60.25 1654,56.55 1651.1,60.1 1654,54.6 		
			"/>
	</g>
	<g>
		<polygon style="fill-rule:evenodd;clip-rule:evenodd;fill:#A49A48;" points="1693.5,57.85 1691.25,54.7 1688.85,57.75 
			1691.25,53.1 		"/>
	</g>
	<g>
		<polygon style="fill-rule:evenodd;clip-rule:evenodd;fill:#A49A48;" points="1512.2,104.15 1510,101.05 1507.55,104.05 
			1510,99.45 		"/>
	</g>
	<g>
		<polygon style="fill-rule:evenodd;clip-rule:evenodd;fill:#A49A48;" points="1687.85,107.7 1684.5,102.95 1680.8,107.55 
			1684.5,100.55 		"/>
	</g>
	<g>
		<polygon style="fill-rule:evenodd;clip-rule:evenodd;fill:#A49A48;" points="1755.7,55 1751.6,49.25 1747.1,54.8 1751.6,46.3 		
			"/>
	</g>
	<g>
		<polygon style="fill-rule:evenodd;clip-rule:evenodd;fill:#A49A48;" points="1787.85,56.85 1784.9,52.75 1781.65,56.75 
			1784.9,50.6 		"/>
	</g>
	<g>
		<polygon style="fill-rule:evenodd;clip-rule:evenodd;fill:#A49A48;" points="1814.6,56.4 1810.5,50.7 1806.05,56.2 1810.5,47.75 
					"/>
	</g>
	<g>
		<polygon style="fill-rule:evenodd;clip-rule:evenodd;fill:#A49A48;" points="1846.65,54.6 1844.2,51.15 1841.5,54.5 1844.2,49.4 
					"/>
	</g>
	<g>
		<polygon style="fill-rule:evenodd;clip-rule:evenodd;fill:#A49A48;" points="1879.25,48.15 1875.35,42.7 1871.05,48 1875.35,39.9 
					"/>
	</g>
	<g>
		<polygon style="fill-rule:evenodd;clip-rule:evenodd;fill:#A49A48;" points="1903.25,49.2 1898.5,55.05 1903.25,46.05 
			1907.6,55.25 		"/>
	</g>
	<g>
		<polygon style="fill-rule:evenodd;clip-rule:evenodd;fill:#A49A48;" points="1930.55,58.45 1927.8,54.55 1924.75,58.35 
			1927.8,52.55 		"/>
	</g>
	<g>
		<polygon style="fill-rule:evenodd;clip-rule:evenodd;fill:#A49A48;" points="1955.55,57.65 1952.75,53.75 1949.7,57.55 
			1952.75,51.75 		"/>
	</g>
	<g>
		<polygon style="fill-rule:evenodd;clip-rule:evenodd;fill:#A49A48;" points="1989.75,56.7 1986.15,51.7 1982.25,56.55 
			1986.15,49.15 		"/>
	</g>
	<g>
		<polygon style="fill-rule:evenodd;clip-rule:evenodd;fill:#A49A48;" points="1862,104.05 1858.75,108.05 1862,101.9 
			1864.95,108.2 		"/>
	</g>
	<g>
		<polygon style="fill-rule:evenodd;clip-rule:evenodd;fill:#A49A48;" points="1801.5,105.55 1797.4,99.8 1792.9,105.35 
			1797.4,96.85 		"/>
	</g>
	<g>
		<polygon style="fill-rule:evenodd;clip-rule:evenodd;fill:#A49A48;" points="1588.8,102.3 1586.25,98.7 1583.45,102.15 
			1586.25,96.9 		"/>
	</g>
	<g>
		<polygon style="fill-rule:evenodd;clip-rule:evenodd;fill:#A49A48;" points="1978.9,108 1975,102.55 1970.7,107.85 1975,99.7 		
			"/>
	</g>
	<g>
		<polygon style="fill-rule:evenodd;clip-rule:evenodd;fill:#A49A48;" points="1945,40.05 1942.15,43.55 1945,38.15 1947.55,43.65 
					"/>
	</g>
	<g>
		<polygon style="fill-rule:evenodd;clip-rule:evenodd;fill:#A49A48;" points="1893.3,36.8 1891,33.55 1888.45,36.7 1891,31.85 		
			"/>
	</g>
	<g>
		<polygon style="fill-rule:evenodd;clip-rule:evenodd;fill:#A49A48;" points="1828.45,107.8 1824,101.55 1819.1,107.6 1824,98.3 		
			"/>
	</g>
	<g>
		<polygon style="fill-rule:evenodd;clip-rule:evenodd;fill:#A49A48;" points="1838.5,43.85 1834,37.55 1829.05,43.65 1834,34.3 		
			"/>
	</g>
	<g>
		<polygon style="fill-rule:evenodd;clip-rule:evenodd;fill:#A49A48;" points="1801.75,47.7 1797.5,41.75 1792.85,47.5 
			1797.5,38.65 		"/>
	</g>
	<g>
		<polygon style="fill-rule:evenodd;clip-rule:evenodd;fill:#A49A48;" points="1741,102.05 1736.5,107.6 1741,99.05 1745.1,107.8 		
			"/>
	</g>
	<g>
		<polygon style="fill-rule:evenodd;clip-rule:evenodd;fill:#A49A48;" points="1712.75,55.55 1709.5,51.05 1705.95,55.4 
			1709.5,48.7 		"/>
	</g>
	<g>
		<polygon style="fill-rule:evenodd;clip-rule:evenodd;fill:#A49A48;" points="1620.45,106.3 1616,100.05 1611.1,106.1 1616,96.8 		
			"/>
	</g>
</g>
<g>
	<g>
		<path style="fill-rule:evenodd;clip-rule:evenodd;fill:#B3AB64;" d="M2500,40.55v70h-500v-70c6.7,0,23.15,0.867,49.35,2.6
			c15.601,1.033,43.667,2.9,84.2,5.6c83.634,5.267,146.983,7.533,190.05,6.8c19.2,0.733,48.75-1.517,88.65-6.75
			c22.333-2.9,37.467-4.767,45.4-5.6C2474.217,41.433,2488.333,40.55,2500,40.55z"/>
	</g>
	<g>
		<polygon style="fill-rule:evenodd;clip-rule:evenodd;fill:#A49A48;" points="2045.45,100.5 2041.9,95.55 2038,100.35 2041.9,93 		
			"/>
	</g>
	<g>
		<polygon style="fill-rule:evenodd;clip-rule:evenodd;fill:#A49A48;" points="2075.35,88.35 2071.05,82.4 2066.4,88.15 
			2071.05,79.3 		"/>
	</g>
	<g>
		<polygon style="fill-rule:evenodd;clip-rule:evenodd;fill:#A49A48;" points="2106.2,91.75 2102.8,87.05 2099.15,91.6 
			2102.8,84.65 		"/>
	</g>
	<g>
		<polygon style="fill-rule:evenodd;clip-rule:evenodd;fill:#A49A48;" points="2138.6,93.6 2134.9,88.45 2130.85,93.45 
			2134.9,85.75 		"/>
	</g>
	<g>
		<polygon style="fill-rule:evenodd;clip-rule:evenodd;fill:#A49A48;" points="2158.75,78.6 2154.4,84 2158.75,75.7 2162.75,84.15 
					"/>
	</g>
	<g>
		<polygon style="fill-rule:evenodd;clip-rule:evenodd;fill:#A49A48;" points="2196.7,92.5 2194.35,89.2 2191.75,92.4 2194.35,87.5 
					"/>
	</g>
	<g>
		<polygon style="fill-rule:evenodd;clip-rule:evenodd;fill:#A49A48;" points="2229.4,84.15 2225.45,78.65 2221.2,83.95 
			2225.45,75.8 		"/>
	</g>
	<g>
		<polygon style="fill-rule:evenodd;clip-rule:evenodd;fill:#A49A48;" points="2256.05,96.9 2252.2,91.55 2248.05,96.7 
			2252.2,88.85 		"/>
	</g>
	<g>
		<polygon style="fill-rule:evenodd;clip-rule:evenodd;fill:#A49A48;" points="2277.75,89.4 2273.4,83.35 2268.65,89.2 2273.4,80.2 
					"/>
	</g>
	<g>
		<polygon style="fill-rule:evenodd;clip-rule:evenodd;fill:#A49A48;" points="2319.45,89.55 2316.05,84.8 2312.35,89.4 
			2316.05,82.35 		"/>
	</g>
	<g>
		<polygon style="fill-rule:evenodd;clip-rule:evenodd;fill:#A49A48;" points="2351.85,99.75 2347.6,93.8 2342.95,99.55 
			2347.6,90.75 		"/>
	</g>
	<g>
		<polygon style="fill-rule:evenodd;clip-rule:evenodd;fill:#A49A48;" points="2381.9,103.65 2379.5,100.25 2376.8,103.55 
			2379.5,98.5 		"/>
	</g>
	<g>
		<polygon style="fill-rule:evenodd;clip-rule:evenodd;fill:#A49A48;" points="2404.5,91.25 2402.25,88.15 2399.85,91.15 
			2402.25,86.6 		"/>
	</g>
	<g>
		<polygon style="fill-rule:evenodd;clip-rule:evenodd;fill:#A49A48;" points="2437.4,94.85 2432.95,88.6 2428.05,94.65 
			2432.95,85.4 		"/>
	</g>
	<g>
		<polygon style="fill-rule:evenodd;clip-rule:evenodd;fill:#A49A48;" points="2470.45,86.6 2465.8,80.1 2460.75,86.4 2465.8,76.75 
					"/>
	</g>
	<g>
		<polygon style="fill-rule:evenodd;clip-rule:evenodd;fill:#A49A48;" points="2495.55,99.65 2491.6,94.2 2487.3,99.5 2491.6,91.35 
					"/>
	</g>
	<g>
		<polygon style="fill-rule:evenodd;clip-rule:evenodd;fill:#A49A48;" points="2226.9,104.05 2222.45,97.85 2217.6,103.85 
			2222.45,94.65 		"/>
	</g>
	<g>
		<polygon style="fill-rule:evenodd;clip-rule:evenodd;fill:#A49A48;" points="2455.8,104.3 2453.25,100.75 2450.45,104.15 
			2453.25,98.9 		"/>
	</g>
	<g>
		<polygon style="fill-rule:evenodd;clip-rule:evenodd;fill:#A49A48;" points="2168.75,102.9 2164.4,96.85 2159.7,102.7 
			2164.4,93.7 		"/>
	</g>
	<g>
		<polygon style="fill-rule:evenodd;clip-rule:evenodd;fill:#A49A48;" points="2496.9,70.55 2494.45,67.15 2491.8,70.45 
			2494.45,65.4 		"/>
	</g>
	<g>
		<polygon style="fill-rule:evenodd;clip-rule:evenodd;fill:#A49A48;" points="2467.2,65.8 2465,62.75 2462.65,65.75 2465,61.2 		
			"/>
	</g>
	<g>
		<polygon style="fill-rule:evenodd;clip-rule:evenodd;fill:#A49A48;" points="2437.65,75.1 2433.85,69.8 2429.7,74.9 2433.85,67.1 
					"/>
	</g>
	<g>
		<polygon style="fill-rule:evenodd;clip-rule:evenodd;fill:#A49A48;" points="2400.15,71.35 2396.3,66 2392.1,71.2 2396.3,63.25 		
			"/>
	</g>
	<g>
		<polygon style="fill-rule:evenodd;clip-rule:evenodd;fill:#A49A48;" points="2370.65,72.65 2367.75,68.6 2364.6,72.5 
			2367.75,66.55 		"/>
	</g>
	<g>
		<polygon style="fill-rule:evenodd;clip-rule:evenodd;fill:#A49A48;" points="2346.65,78.3 2344.45,75.2 2342.05,78.2 
			2344.45,73.65 		"/>
	</g>
	<g>
		<polygon style="fill-rule:evenodd;clip-rule:evenodd;fill:#A49A48;" points="2323.55,67.9 2321.25,64.7 2318.75,67.8 
			2321.25,63.1 		"/>
	</g>
	<g>
		<polygon style="fill-rule:evenodd;clip-rule:evenodd;fill:#A49A48;" points="2294.1,77.85 2291.25,73.85 2288.15,77.7 
			2291.25,71.8 		"/>
	</g>
	<g>
		<polygon style="fill-rule:evenodd;clip-rule:evenodd;fill:#A49A48;" points="2262.1,67.15 2259.45,63.45 2256.55,67 
			2259.45,61.55 		"/>
	</g>
	<g>
		<polygon style="fill-rule:evenodd;clip-rule:evenodd;fill:#A49A48;" points="2233.2,64.45 2229.05,58.65 2224.55,64.3 
			2229.05,55.7 		"/>
	</g>
	<g>
		<polygon style="fill-rule:evenodd;clip-rule:evenodd;fill:#A49A48;" points="2199.15,68.95 2194.4,74.85 2199.15,65.8 
			2203.55,75.05 		"/>
	</g>
	<g>
		<polygon style="fill-rule:evenodd;clip-rule:evenodd;fill:#A49A48;" points="2178.55,72.9 2174.75,67.6 2170.6,72.75 
			2174.75,64.9 		"/>
	</g>
	<g>
		<polygon style="fill-rule:evenodd;clip-rule:evenodd;fill:#A49A48;" points="2144.95,70.5 2142.1,66.5 2139,70.35 2142.1,64.5 		
			"/>
	</g>
	<g>
		<polygon style="fill-rule:evenodd;clip-rule:evenodd;fill:#A49A48;" points="2112.3,63.3 2108.35,57.8 2104.05,63.15 
			2108.35,54.95 		"/>
	</g>
	<g>
		<polygon style="fill-rule:evenodd;clip-rule:evenodd;fill:#A49A48;" points="2079.25,62.3 2076.55,65.65 2079.25,60.5 
			2081.75,65.8 		"/>
	</g>
	<g>
		<polygon style="fill-rule:evenodd;clip-rule:evenodd;fill:#A49A48;" points="2013.15,78.15 2010.65,74.65 2007.9,78.05 
			2010.65,72.85 		"/>
	</g>
	<g>
		<polygon style="fill-rule:evenodd;clip-rule:evenodd;fill:#A49A48;" points="2056.9,71.85 2052.3,65.45 2047.35,71.65 
			2052.3,62.15 		"/>
	</g>
	<g>
		<polygon style="fill-rule:evenodd;clip-rule:evenodd;fill:#A49A48;" points="2031.95,67.1 2028.5,62.25 2024.7,66.95 
			2028.5,59.75 		"/>
	</g>
	<g>
		<polygon style="fill-rule:evenodd;clip-rule:evenodd;fill:#A49A48;" points="2020.1,52.1 2016.5,47.05 2012.5,51.95 2016.5,44.4 
					"/>
	</g>
	<g>
		<polygon style="fill-rule:evenodd;clip-rule:evenodd;fill:#A49A48;" points="2045.5,58.15 2041.5,52.55 2037.1,57.95 
			2041.5,49.65 		"/>
	</g>
	<g>
		<polygon style="fill-rule:evenodd;clip-rule:evenodd;fill:#A49A48;" points="2072.2,56.75 2067.45,50.15 2062.25,56.55 
			2067.45,46.75 		"/>
	</g>
	<g>
		<polygon style="fill-rule:evenodd;clip-rule:evenodd;fill:#A49A48;" points="2105.55,108.85 2102.5,104.55 2099.1,108.7 
			2102.5,102.3 		"/>
	</g>
	<g>
		<polygon style="fill-rule:evenodd;clip-rule:evenodd;fill:#A49A48;" points="2150.65,55.45 2148,51.75 2145.1,55.3 2148,49.8 		
			"/>
	</g>
	<g>
		<polygon style="fill-rule:evenodd;clip-rule:evenodd;fill:#A49A48;" points="2193.5,57.85 2191.25,54.7 2188.85,57.75 
			2191.25,53.1 		"/>
	</g>
	<g>
		<polygon style="fill-rule:evenodd;clip-rule:evenodd;fill:#A49A48;" points="2146.2,108.65 2144,105.55 2141.55,108.55 
			2144,103.95 		"/>
	</g>
	<g>
		<polygon style="fill-rule:evenodd;clip-rule:evenodd;fill:#A49A48;" points="2019.7,105.35 2017.5,102.25 2015.05,105.25 
			2017.5,100.65 		"/>
	</g>
	<g>
		<polygon style="fill-rule:evenodd;clip-rule:evenodd;fill:#A49A48;" points="2200.5,103.55 2196,109.1 2200.5,100.6 
			2204.6,109.25 		"/>
	</g>
	<g>
		<polygon style="fill-rule:evenodd;clip-rule:evenodd;fill:#A49A48;" points="2268.95,108.8 2266,104.65 2262.75,108.7 
			2266,102.55 		"/>
	</g>
	<g>
		<polygon style="fill-rule:evenodd;clip-rule:evenodd;fill:#A49A48;" points="2309.55,70.2 2305.5,64.55 2301.05,70.05 
			2305.5,61.6 		"/>
	</g>
	<g>
		<polygon style="fill-rule:evenodd;clip-rule:evenodd;fill:#A49A48;" points="2407.95,108.5 2405.5,105.05 2402.8,108.35 
			2405.5,103.25 		"/>
	</g>
	<g>
		<polygon style="fill-rule:evenodd;clip-rule:evenodd;fill:#A49A48;" points="2381.75,65.15 2377.85,59.7 2373.55,65 2377.85,56.9 
					"/>
	</g>
	<g>
		<polygon style="fill-rule:evenodd;clip-rule:evenodd;fill:#A49A48;" points="2412.35,60.6 2408,54.55 2403.25,60.4 2408,51.4 		
			"/>
	</g>
	<g>
		<polygon style="fill-rule:evenodd;clip-rule:evenodd;fill:#A49A48;" points="2430.55,58.45 2427.8,54.55 2424.75,58.35 
			2427.8,52.55 		"/>
	</g>
	<g>
		<polygon style="fill-rule:evenodd;clip-rule:evenodd;fill:#A49A48;" points="2455.55,57.65 2452.75,53.75 2449.7,57.55 
			2452.75,51.75 		"/>
	</g>
	<g>
		<polygon style="fill-rule:evenodd;clip-rule:evenodd;fill:#A49A48;" points="2489.75,56.7 2486.15,51.7 2482.25,56.55 
			2486.15,49.15 		"/>
	</g>
	<g>
		<polygon style="fill-rule:evenodd;clip-rule:evenodd;fill:#A49A48;" points="2301.5,105.55 2297.4,99.8 2292.9,105.35 
			2297.4,96.85 		"/>
	</g>
	<g>
		<polygon style="fill-rule:evenodd;clip-rule:evenodd;fill:#A49A48;" points="2088.8,102.3 2086.25,98.7 2083.45,102.15 
			2086.25,96.9 		"/>
	</g>
	<g>
		<polygon style="fill-rule:evenodd;clip-rule:evenodd;fill:#A49A48;" points="2481.4,109 2477.5,103.55 2473.2,108.85 
			2477.5,100.7 		"/>
	</g>
	<g>
		<polygon style="fill-rule:evenodd;clip-rule:evenodd;fill:#A49A48;" points="2322.5,105.05 2319.65,108.55 2322.5,103.15 
			2325.05,108.65 		"/>
	</g>
	<g>
		<polygon style="fill-rule:evenodd;clip-rule:evenodd;fill:#A49A48;" points="2133.95,59.35 2130.5,54.55 2126.7,59.2 
			2130.5,52.05 		"/>
	</g>
	<g>
		<polygon style="fill-rule:evenodd;clip-rule:evenodd;fill:#A49A48;" points="2065.65,107.55 2061,101.05 2055.9,107.35 
			2061,97.65 		"/>
	</g>
	<g>
		<polygon style="fill-rule:evenodd;clip-rule:evenodd;fill:#A49A48;" points="2025.95,91.15 2023,87.05 2019.75,91.05 2023,84.9 		
			"/>
	</g>
</g>
<g>
	<g>
		<path style="fill-rule:evenodd;clip-rule:evenodd;fill:#B3AB64;" d="M999.95,40.55v70h-500v-40c14.433,0,38.15-2.066,71.15-6.2
			c10.7-1.366,44.533-6,101.5-13.899c46.267-6.4,83.833-11.167,112.7-14.3c41.567-4.5,76.483-7.033,104.75-7.6
			c12.7-0.233,31.4,1.684,56.1,5.75C971.517,38.467,989.45,40.55,999.95,40.55z"/>
	</g>
	<g>
		<polygon style="fill-rule:evenodd;clip-rule:evenodd;fill:#A49A48;" points="545.4,100.5 541.85,95.55 537.95,100.35 541.85,93 		
			"/>
	</g>
	<g>
		<polygon style="fill-rule:evenodd;clip-rule:evenodd;fill:#A49A48;" points="575.3,88.35 571,82.4 566.35,88.15 571,79.3 		"/>
	</g>
	<g>
		<polygon style="fill-rule:evenodd;clip-rule:evenodd;fill:#A49A48;" points="606.15,91.75 602.75,87.05 599.1,91.6 602.75,84.65 
					"/>
	</g>
	<g>
		<polygon style="fill-rule:evenodd;clip-rule:evenodd;fill:#A49A48;" points="638.55,93.6 634.85,88.45 630.8,93.45 634.85,85.75 
					"/>
	</g>
	<g>
		<polygon style="fill-rule:evenodd;clip-rule:evenodd;fill:#A49A48;" points="658.7,78.6 654.35,84 658.7,75.7 662.7,84.15 		"/>
	</g>
	<g>
		<polygon style="fill-rule:evenodd;clip-rule:evenodd;fill:#A49A48;" points="696.65,92.5 694.3,89.2 691.7,92.4 694.3,87.5 		"/>
	</g>
	<g>
		<polygon style="fill-rule:evenodd;clip-rule:evenodd;fill:#A49A48;" points="729.35,84.15 725.4,78.65 721.15,83.95 725.4,75.8 		
			"/>
	</g>
	<g>
		<polygon style="fill-rule:evenodd;clip-rule:evenodd;fill:#A49A48;" points="756,96.9 752.15,91.55 748,96.7 752.15,88.85 		"/>
	</g>
	<g>
		<polygon style="fill-rule:evenodd;clip-rule:evenodd;fill:#A49A48;" points="777.7,89.4 773.35,83.35 768.6,89.2 773.35,80.2 		
			"/>
	</g>
	<g>
		<polygon style="fill-rule:evenodd;clip-rule:evenodd;fill:#A49A48;" points="819.4,89.55 816,84.8 812.3,89.4 816,82.35 		"/>
	</g>
	<g>
		<polygon style="fill-rule:evenodd;clip-rule:evenodd;fill:#A49A48;" points="851.8,99.75 847.55,93.8 842.9,99.55 847.55,90.75 		
			"/>
	</g>
	<g>
		<polygon style="fill-rule:evenodd;clip-rule:evenodd;fill:#A49A48;" points="881.85,103.65 879.45,100.25 876.75,103.55 
			879.45,98.5 		"/>
	</g>
	<g>
		<polygon style="fill-rule:evenodd;clip-rule:evenodd;fill:#A49A48;" points="904.45,91.25 902.2,88.15 899.8,91.15 902.2,86.6 		
			"/>
	</g>
	<g>
		<polygon style="fill-rule:evenodd;clip-rule:evenodd;fill:#A49A48;" points="937.35,94.85 932.9,88.6 928,94.65 932.9,85.4 		"/>
	</g>
	<g>
		<polygon style="fill-rule:evenodd;clip-rule:evenodd;fill:#A49A48;" points="970.4,86.6 965.75,80.1 960.7,86.4 965.75,76.75 		
			"/>
	</g>
	<g>
		<polygon style="fill-rule:evenodd;clip-rule:evenodd;fill:#A49A48;" points="995.5,99.65 991.55,94.2 987.25,99.5 991.55,91.35 		
			"/>
	</g>
	<g>
		<polygon style="fill-rule:evenodd;clip-rule:evenodd;fill:#A49A48;" points="726.85,104.05 722.4,97.85 717.55,103.85 
			722.4,94.65 		"/>
	</g>
	<g>
		<polygon style="fill-rule:evenodd;clip-rule:evenodd;fill:#A49A48;" points="955.75,104.3 953.2,100.75 950.4,104.15 953.2,98.9 
					"/>
	</g>
	<g>
		<polygon style="fill-rule:evenodd;clip-rule:evenodd;fill:#A49A48;" points="668.7,102.9 664.35,96.85 659.65,102.7 664.35,93.7 
					"/>
	</g>
	<g>
		<polygon style="fill-rule:evenodd;clip-rule:evenodd;fill:#A49A48;" points="996.85,70.55 994.4,67.15 991.75,70.45 994.4,65.4 		
			"/>
	</g>
	<g>
		<polygon style="fill-rule:evenodd;clip-rule:evenodd;fill:#A49A48;" points="967.15,65.8 964.95,62.75 962.6,65.75 964.95,61.2 		
			"/>
	</g>
	<g>
		<polygon style="fill-rule:evenodd;clip-rule:evenodd;fill:#A49A48;" points="937.6,75.1 933.8,69.8 929.65,74.9 933.8,67.1 		"/>
	</g>
	<g>
		<polygon style="fill-rule:evenodd;clip-rule:evenodd;fill:#A49A48;" points="900.1,71.35 896.25,66 892.05,71.2 896.25,63.25 		
			"/>
	</g>
	<g>
		<polygon style="fill-rule:evenodd;clip-rule:evenodd;fill:#A49A48;" points="870.6,72.65 867.7,68.6 864.55,72.5 867.7,66.55 		
			"/>
	</g>
	<g>
		<polygon style="fill-rule:evenodd;clip-rule:evenodd;fill:#A49A48;" points="846.6,78.3 844.4,75.2 842,78.2 844.4,73.65 		"/>
	</g>
	<g>
		<polygon style="fill-rule:evenodd;clip-rule:evenodd;fill:#A49A48;" points="823.5,67.9 821.2,64.7 818.7,67.8 821.2,63.1 		"/>
	</g>
	<g>
		<polygon style="fill-rule:evenodd;clip-rule:evenodd;fill:#A49A48;" points="794.05,77.85 791.2,73.85 788.1,77.7 791.2,71.8 		
			"/>
	</g>
	<g>
		<polygon style="fill-rule:evenodd;clip-rule:evenodd;fill:#A49A48;" points="762.05,67.15 759.4,63.45 756.5,67 759.4,61.55 		"/>
	</g>
	<g>
		<polygon style="fill-rule:evenodd;clip-rule:evenodd;fill:#A49A48;" points="647.05,107.1 644.45,103.45 641.55,107 
			644.45,101.55 		"/>
	</g>
	<g>
		<polygon style="fill-rule:evenodd;clip-rule:evenodd;fill:#A49A48;" points="733.15,64.45 729,58.65 724.5,64.3 729,55.7 		"/>
	</g>
	<g>
		<polygon style="fill-rule:evenodd;clip-rule:evenodd;fill:#A49A48;" points="699.1,68.95 694.35,74.85 699.1,65.8 703.5,75.05 		
			"/>
	</g>
	<g>
		<polygon style="fill-rule:evenodd;clip-rule:evenodd;fill:#A49A48;" points="678.5,72.9 674.7,67.6 670.55,72.75 674.7,64.9 		"/>
	</g>
	<g>
		<polygon style="fill-rule:evenodd;clip-rule:evenodd;fill:#A49A48;" points="644.9,70.5 642.05,66.5 638.95,70.35 642.05,64.5 		
			"/>
	</g>
	<g>
		<polygon style="fill-rule:evenodd;clip-rule:evenodd;fill:#A49A48;" points="915.25,109 912.45,105.05 909.35,108.85 912.45,103 
					"/>
	</g>
	<g>
		<polygon style="fill-rule:evenodd;clip-rule:evenodd;fill:#A49A48;" points="619.4,72.55 615.45,67.05 611.15,72.35 615.45,64.2 
					"/>
	</g>
	<g>
		<polygon style="fill-rule:evenodd;clip-rule:evenodd;fill:#A49A48;" points="588.45,73.35 585.95,69.85 583.2,73.2 585.95,68.05 
					"/>
	</g>
	<g>
		<polygon style="fill-rule:evenodd;clip-rule:evenodd;fill:#A49A48;" points="513.1,78.15 510.6,74.65 507.85,78.05 510.6,72.85 		
			"/>
	</g>
	<g>
		<polygon style="fill-rule:evenodd;clip-rule:evenodd;fill:#A49A48;" points="531,107.4 526.45,101.05 521.45,107.2 526.45,97.75 
					"/>
	</g>
	<g>
		<polygon style="fill-rule:evenodd;clip-rule:evenodd;fill:#A49A48;" points="536.4,84.6 532.95,79.75 529.15,84.45 532.95,77.25 
					"/>
	</g>
	<g>
		<polygon style="fill-rule:evenodd;clip-rule:evenodd;fill:#A49A48;" points="555.45,80.15 551.45,74.55 547.05,79.95 
			551.45,71.65 		"/>
	</g>
	<g>
		<polygon style="fill-rule:evenodd;clip-rule:evenodd;fill:#A49A48;" points="568.7,106.65 563.95,100.05 558.75,106.45 
			563.95,96.6 		"/>
	</g>
	<g>
		<polygon style="fill-rule:evenodd;clip-rule:evenodd;fill:#A49A48;" points="656.6,60.25 653.95,56.55 651.05,60.1 653.95,54.6 		
			"/>
	</g>
	<g>
		<polygon style="fill-rule:evenodd;clip-rule:evenodd;fill:#A49A48;" points="693.45,57.85 691.2,54.7 688.8,57.75 691.2,53.1 		
			"/>
	</g>
	<g>
		<polygon style="fill-rule:evenodd;clip-rule:evenodd;fill:#A49A48;" points="512.15,104.15 509.95,101.05 507.5,104.05 
			509.95,99.45 		"/>
	</g>
	<g>
		<polygon style="fill-rule:evenodd;clip-rule:evenodd;fill:#A49A48;" points="687.8,107.7 684.45,102.95 680.75,107.55 
			684.45,100.55 		"/>
	</g>
	<g>
		<polygon style="fill-rule:evenodd;clip-rule:evenodd;fill:#A49A48;" points="755.65,55 751.55,49.25 747.05,54.8 751.55,46.3 		
			"/>
	</g>
	<g>
		<polygon style="fill-rule:evenodd;clip-rule:evenodd;fill:#A49A48;" points="787.8,56.85 784.85,52.75 781.6,56.75 784.85,50.6 		
			"/>
	</g>
	<g>
		<polygon style="fill-rule:evenodd;clip-rule:evenodd;fill:#A49A48;" points="814.55,56.4 810.45,50.7 806,56.2 810.45,47.75 		"/>
	</g>
	<g>
		<polygon style="fill-rule:evenodd;clip-rule:evenodd;fill:#A49A48;" points="846.6,54.6 844.15,51.15 841.45,54.5 844.15,49.4 		
			"/>
	</g>
	<g>
		<polygon style="fill-rule:evenodd;clip-rule:evenodd;fill:#A49A48;" points="879.2,48.15 875.3,42.7 871,48 875.3,39.9 		"/>
	</g>
	<g>
		<polygon style="fill-rule:evenodd;clip-rule:evenodd;fill:#A49A48;" points="903.2,49.2 898.45,55.05 903.2,46.05 907.55,55.25 		
			"/>
	</g>
	<g>
		<polygon style="fill-rule:evenodd;clip-rule:evenodd;fill:#A49A48;" points="930.5,58.45 927.75,54.55 924.7,58.35 927.75,52.55 
					"/>
	</g>
	<g>
		<polygon style="fill-rule:evenodd;clip-rule:evenodd;fill:#A49A48;" points="955.5,57.65 952.7,53.75 949.65,57.55 952.7,51.75 		
			"/>
	</g>
	<g>
		<polygon style="fill-rule:evenodd;clip-rule:evenodd;fill:#A49A48;" points="989.7,56.7 986.1,51.7 982.2,56.55 986.1,49.15 		"/>
	</g>
	<g>
		<polygon style="fill-rule:evenodd;clip-rule:evenodd;fill:#A49A48;" points="861.95,104.05 858.7,108.05 861.95,101.9 
			864.9,108.2 		"/>
	</g>
	<g>
		<polygon style="fill-rule:evenodd;clip-rule:evenodd;fill:#A49A48;" points="801.45,105.55 797.35,99.8 792.85,105.35 
			797.35,96.85 		"/>
	</g>
	<g>
		<polygon style="fill-rule:evenodd;clip-rule:evenodd;fill:#A49A48;" points="588.75,102.3 586.2,98.7 583.4,102.15 586.2,96.9 		
			"/>
	</g>
	<g>
		<polygon style="fill-rule:evenodd;clip-rule:evenodd;fill:#A49A48;" points="978.85,108 974.95,102.55 970.65,107.85 974.95,99.7 
					"/>
	</g>
	<g>
		<polygon style="fill-rule:evenodd;clip-rule:evenodd;fill:#A49A48;" points="944.95,40.05 942.1,43.55 944.95,38.15 947.5,43.65 
					"/>
	</g>
	<g>
		<polygon style="fill-rule:evenodd;clip-rule:evenodd;fill:#A49A48;" points="893.25,36.8 890.95,33.55 888.4,36.7 890.95,31.85 		
			"/>
	</g>
	<g>
		<polygon style="fill-rule:evenodd;clip-rule:evenodd;fill:#A49A48;" points="828.4,107.8 823.95,101.55 819.05,107.6 823.95,98.3 
					"/>
	</g>
	<g>
		<polygon style="fill-rule:evenodd;clip-rule:evenodd;fill:#A49A48;" points="838.45,43.85 833.95,37.55 829,43.65 833.95,34.3 		
			"/>
	</g>
	<g>
		<polygon style="fill-rule:evenodd;clip-rule:evenodd;fill:#A49A48;" points="801.7,47.7 797.45,41.75 792.8,47.5 797.45,38.65 		
			"/>
	</g>
	<g>
		<polygon style="fill-rule:evenodd;clip-rule:evenodd;fill:#A49A48;" points="740.95,102.05 736.45,107.6 740.95,99.05 
			745.05,107.8 		"/>
	</g>
	<g>
		<polygon style="fill-rule:evenodd;clip-rule:evenodd;fill:#A49A48;" points="712.7,55.55 709.45,51.05 705.9,55.4 709.45,48.7 		
			"/>
	</g>
	<g>
		<polygon style="fill-rule:evenodd;clip-rule:evenodd;fill:#A49A48;" points="620.4,106.3 615.95,100.05 611.05,106.1 615.95,96.8 
					"/>
	</g>
</g>
<g>
	<g>
		<path style="fill-rule:evenodd;clip-rule:evenodd;fill:#B3AB64;" d="M500.05,70.55v40h-500v-70c14.633,0,44.333,1.25,89.1,3.75
			c44.6,2.534,79.283,3.784,104.05,3.75c34.867,0,91.517,3.75,169.95,11.25c51.033,4.867,78.117,7.45,81.25,7.75
			C470.8,69.384,489.35,70.55,500.05,70.55z"/>
	</g>
	<g>
		<polygon style="fill-rule:evenodd;clip-rule:evenodd;fill:#A49A48;" points="45.5,100.5 41.95,95.55 38.05,100.35 41.95,93 		"/>
	</g>
	<g>
		<polygon style="fill-rule:evenodd;clip-rule:evenodd;fill:#A49A48;" points="75.4,88.35 71.1,82.4 66.45,88.15 71.1,79.3 		"/>
	</g>
	<g>
		<polygon style="fill-rule:evenodd;clip-rule:evenodd;fill:#A49A48;" points="106.25,91.75 102.85,87.05 99.2,91.6 102.85,84.65 		
			"/>
	</g>
	<g>
		<polygon style="fill-rule:evenodd;clip-rule:evenodd;fill:#A49A48;" points="138.65,93.6 134.95,88.45 130.9,93.45 134.95,85.75 
					"/>
	</g>
	<g>
		<polygon style="fill-rule:evenodd;clip-rule:evenodd;fill:#A49A48;" points="158.8,78.6 154.45,84 158.8,75.7 162.8,84.15 		"/>
	</g>
	<g>
		<polygon style="fill-rule:evenodd;clip-rule:evenodd;fill:#A49A48;" points="196.75,92.5 194.4,89.2 191.8,92.4 194.4,87.5 		"/>
	</g>
	<g>
		<polygon style="fill-rule:evenodd;clip-rule:evenodd;fill:#A49A48;" points="229.45,84.15 225.5,78.65 221.25,83.95 225.5,75.8 		
			"/>
	</g>
	<g>
		<polygon style="fill-rule:evenodd;clip-rule:evenodd;fill:#A49A48;" points="256.1,96.9 252.25,91.55 248.1,96.7 252.25,88.85 		
			"/>
	</g>
	<g>
		<polygon style="fill-rule:evenodd;clip-rule:evenodd;fill:#A49A48;" points="277.8,89.4 273.45,83.35 268.7,89.2 273.45,80.2 		
			"/>
	</g>
	<g>
		<polygon style="fill-rule:evenodd;clip-rule:evenodd;fill:#A49A48;" points="319.5,89.55 316.1,84.8 312.4,89.4 316.1,82.35 		"/>
	</g>
	<g>
		<polygon style="fill-rule:evenodd;clip-rule:evenodd;fill:#A49A48;" points="351.9,99.75 347.65,93.8 343,99.55 347.65,90.75 		
			"/>
	</g>
	<g>
		<polygon style="fill-rule:evenodd;clip-rule:evenodd;fill:#A49A48;" points="381.95,103.65 379.55,100.25 376.85,103.55 
			379.55,98.5 		"/>
	</g>
	<g>
		<polygon style="fill-rule:evenodd;clip-rule:evenodd;fill:#A49A48;" points="404.55,91.25 402.3,88.15 399.9,91.15 402.3,86.6 		
			"/>
	</g>
	<g>
		<polygon style="fill-rule:evenodd;clip-rule:evenodd;fill:#A49A48;" points="437.45,94.85 433,88.6 428.1,94.65 433,85.4 		"/>
	</g>
	<g>
		<polygon style="fill-rule:evenodd;clip-rule:evenodd;fill:#A49A48;" points="470.5,86.6 465.85,80.1 460.8,86.4 465.85,76.75 		
			"/>
	</g>
	<g>
		<polygon style="fill-rule:evenodd;clip-rule:evenodd;fill:#A49A48;" points="495.6,99.65 491.65,94.2 487.35,99.5 491.65,91.35 		
			"/>
	</g>
	<g>
		<polygon style="fill-rule:evenodd;clip-rule:evenodd;fill:#A49A48;" points="226.95,104.05 222.5,97.85 217.65,103.85 
			222.5,94.65 		"/>
	</g>
	<g>
		<polygon style="fill-rule:evenodd;clip-rule:evenodd;fill:#A49A48;" points="455.85,104.3 453.3,100.75 450.5,104.15 453.3,98.9 
					"/>
	</g>
	<g>
		<polygon style="fill-rule:evenodd;clip-rule:evenodd;fill:#A49A48;" points="168.8,102.9 164.45,96.85 159.75,102.7 164.45,93.7 
					"/>
	</g>
	<g>
		<polygon style="fill-rule:evenodd;clip-rule:evenodd;fill:#A49A48;" points="493.45,78.9 491.05,75.55 488.4,78.8 491.05,73.8 		
			"/>
	</g>
	<g>
		<polygon style="fill-rule:evenodd;clip-rule:evenodd;fill:#A49A48;" points="427.7,108.6 425.55,105.55 423.15,108.5 
			425.55,103.95 		"/>
	</g>
	<g>
		<polygon style="fill-rule:evenodd;clip-rule:evenodd;fill:#A49A48;" points="437.7,75.1 433.9,69.8 429.75,74.9 433.9,67.1 		"/>
	</g>
	<g>
		<polygon style="fill-rule:evenodd;clip-rule:evenodd;fill:#A49A48;" points="400.2,71.35 396.35,66 392.15,71.2 396.35,63.25 		
			"/>
	</g>
	<g>
		<polygon style="fill-rule:evenodd;clip-rule:evenodd;fill:#A49A48;" points="370.7,72.65 367.8,68.6 364.65,72.5 367.8,66.55 		
			"/>
	</g>
	<g>
		<polygon style="fill-rule:evenodd;clip-rule:evenodd;fill:#A49A48;" points="346.7,78.3 344.5,75.2 342.1,78.2 344.5,73.65 		"/>
	</g>
	<g>
		<polygon style="fill-rule:evenodd;clip-rule:evenodd;fill:#A49A48;" points="323.6,67.9 321.3,64.7 318.8,67.8 321.3,63.1 		"/>
	</g>
	<g>
		<polygon style="fill-rule:evenodd;clip-rule:evenodd;fill:#A49A48;" points="294.15,77.85 291.3,73.85 288.2,77.7 291.3,71.8 		
			"/>
	</g>
	<g>
		<polygon style="fill-rule:evenodd;clip-rule:evenodd;fill:#A49A48;" points="262.15,67.15 259.5,63.45 256.6,67 259.5,61.55 		"/>
	</g>
	<g>
		<polygon style="fill-rule:evenodd;clip-rule:evenodd;fill:#A49A48;" points="233.25,64.45 229.1,58.65 224.6,64.3 229.1,55.7 		
			"/>
	</g>
	<g>
		<polygon style="fill-rule:evenodd;clip-rule:evenodd;fill:#A49A48;" points="199.2,68.95 194.45,74.85 199.2,65.8 203.6,75.05 		
			"/>
	</g>
	<g>
		<polygon style="fill-rule:evenodd;clip-rule:evenodd;fill:#A49A48;" points="178.6,72.9 174.8,67.6 170.65,72.75 174.8,64.9 		"/>
	</g>
	<g>
		<polygon style="fill-rule:evenodd;clip-rule:evenodd;fill:#A49A48;" points="145,70.5 142.15,66.5 139.05,70.35 142.15,64.5 		"/>
	</g>
	<g>
		<polygon style="fill-rule:evenodd;clip-rule:evenodd;fill:#A49A48;" points="112.35,63.3 108.4,57.8 104.1,63.15 108.4,54.95 		
			"/>
	</g>
	<g>
		<polygon style="fill-rule:evenodd;clip-rule:evenodd;fill:#A49A48;" points="79.3,62.3 76.6,65.65 79.3,60.5 81.8,65.8 		"/>
	</g>
	<g>
		<polygon style="fill-rule:evenodd;clip-rule:evenodd;fill:#A49A48;" points="13.2,78.15 10.7,74.65 7.95,78.05 10.7,72.85 		"/>
	</g>
	<g>
		<polygon style="fill-rule:evenodd;clip-rule:evenodd;fill:#A49A48;" points="56.95,71.85 52.35,65.45 47.4,71.65 52.35,62.15 		
			"/>
	</g>
	<g>
		<polygon style="fill-rule:evenodd;clip-rule:evenodd;fill:#A49A48;" points="32,67.1 28.55,62.25 24.75,66.95 28.55,59.75 		"/>
	</g>
	<g>
		<polygon style="fill-rule:evenodd;clip-rule:evenodd;fill:#A49A48;" points="18.55,48.25 14.9,43.15 10.95,48.1 14.9,40.55 		"/>
	</g>
	<g>
		<polygon style="fill-rule:evenodd;clip-rule:evenodd;fill:#A49A48;" points="71.25,52.75 66.5,46.15 61.3,52.55 66.5,42.75 		"/>
	</g>
	<g>
		<polygon style="fill-rule:evenodd;clip-rule:evenodd;fill:#A49A48;" points="150.7,55.45 148.05,51.75 145.15,55.3 148.05,49.8 		
			"/>
	</g>
	<g>
		<polygon style="fill-rule:evenodd;clip-rule:evenodd;fill:#A49A48;" points="193.55,57.85 191.3,54.7 188.9,57.75 191.3,53.1 		
			"/>
	</g>
	<g>
		<polygon style="fill-rule:evenodd;clip-rule:evenodd;fill:#A49A48;" points="193.25,106.75 191.05,103.65 188.6,106.65 
			191.05,102.05 		"/>
	</g>
	<g>
		<polygon style="fill-rule:evenodd;clip-rule:evenodd;fill:#A49A48;" points="19.75,105.35 17.55,102.25 15.1,105.25 17.55,100.65 
					"/>
	</g>
	<g>
		<polygon style="fill-rule:evenodd;clip-rule:evenodd;fill:#A49A48;" points="251.15,62.75 247.05,57.05 242.55,62.6 247.05,54.1 
					"/>
	</g>
	<g>
		<polygon style="fill-rule:evenodd;clip-rule:evenodd;fill:#A49A48;" points="288,61.15 285.05,57.05 281.8,61.05 285.05,54.9 		
			"/>
	</g>
	<g>
		<polygon style="fill-rule:evenodd;clip-rule:evenodd;fill:#A49A48;" points="311.6,66.2 307.55,60.55 303.1,66.05 307.55,57.6 		
			"/>
	</g>
	<g>
		<polygon style="fill-rule:evenodd;clip-rule:evenodd;fill:#A49A48;" points="349,67.5 346.55,64.05 343.85,67.35 346.55,62.25 		
			"/>
	</g>
	<g>
		<polygon style="fill-rule:evenodd;clip-rule:evenodd;fill:#A49A48;" points="321.4,103.2 317.1,108.5 321.4,100.4 325.3,108.65 		
			"/>
	</g>
	<g>
		<polygon style="fill-rule:evenodd;clip-rule:evenodd;fill:#A49A48;" points="387.9,88.6 383.55,82.55 378.8,88.4 383.55,79.4 		
			"/>
	</g>
	<g>
		<polygon style="fill-rule:evenodd;clip-rule:evenodd;fill:#A49A48;" points="398.6,107.95 395.85,104.05 392.8,107.85 
			395.85,102.05 		"/>
	</g>
	<g>
		<polygon style="fill-rule:evenodd;clip-rule:evenodd;fill:#A49A48;" points="480.1,107.55 476.55,102.55 472.6,107.4 
			476.55,99.95 		"/>
	</g>
	<g>
		<polygon style="fill-rule:evenodd;clip-rule:evenodd;fill:#A49A48;" points="301.55,105.55 297.45,99.8 292.95,105.35 
			297.45,96.85 		"/>
	</g>
	<g>
		<polygon style="fill-rule:evenodd;clip-rule:evenodd;fill:#A49A48;" points="88.85,102.3 86.3,98.7 83.5,102.15 86.3,96.9 		"/>
	</g>
	<g>
		<polygon style="fill-rule:evenodd;clip-rule:evenodd;fill:#A49A48;" points="170.15,59.15 167.55,55.55 164.7,59.05 167.55,53.65 
					"/>
	</g>
	<g>
		<polygon style="fill-rule:evenodd;clip-rule:evenodd;fill:#A49A48;" points="126.2,107.55 121.55,101.05 116.45,107.35 
			121.55,97.65 		"/>
	</g>
	<g>
		<polygon style="fill-rule:evenodd;clip-rule:evenodd;fill:#A49A48;" points="69.5,109.15 66.55,105.05 63.3,109.05 66.55,102.9 		
			"/>
	</g>
</g>
</svg>
