<?xml version="1.0" encoding="iso-8859-1"?>
<!-- Generator: Adobe Illustrator 15.1.0, SVG Export Plug-In . SVG Version: 6.00 Build 0)  -->
<!DOCTYPE svg PUBLIC "-//W3C//DTD SVG 1.1//EN" "http://www.w3.org/Graphics/SVG/1.1/DTD/svg11.dtd">
<svg version="1.1" id="Isolation_Mode" xmlns="http://www.w3.org/2000/svg" xmlns:xlink="http://www.w3.org/1999/xlink" x="0px"
	 y="0px" width="500px" height="110.55px" viewBox="0 0 500 110.55" style="enable-background:new 0 0 500 110.55;"
	 xml:space="preserve">
<g>
	<g>
		<path style="fill-rule:evenodd;clip-rule:evenodd;fill:#ABA254;" d="M500,40.5v70.05H0V40.5c14.633,0,29.7-2.033,45.2-6.1
			c5.267-1.4,19.367-5.933,42.3-13.6c18.733-6.233,35.65-10.85,50.75-13.85c21.8-4.3,45.283-6.6,70.45-6.9
			c22.233-0.433,48.934,1.417,80.1,5.55c22.7,3,50.7,7.667,84,14c18.101,3.433,43.017,8.2,74.75,14.3
			C471.983,38.3,489.467,40.5,500,40.5z"/>
	</g>
	<g>
		<polygon style="fill-rule:evenodd;clip-rule:evenodd;fill:#918B4B;" points="46.15,101.25 41.9,95.3 37.3,101.05 41.9,92.25 		"/>
	</g>
	<g>
		<polygon style="fill-rule:evenodd;clip-rule:evenodd;fill:#918B4B;" points="76.25,89.25 71.1,82.1 65.55,89 71.1,78.4 		"/>
	</g>
	<g>
		<polygon style="fill-rule:evenodd;clip-rule:evenodd;fill:#918B4B;" points="106.9,92.45 102.85,86.8 98.45,92.25 102.85,83.9 		
			"/>
	</g>
	<g>
		<polygon style="fill-rule:evenodd;clip-rule:evenodd;fill:#918B4B;" points="139.35,94.35 134.9,88.15 130.05,94.2 134.9,84.95 		
			"/>
	</g>
	<g>
		<polygon style="fill-rule:evenodd;clip-rule:evenodd;fill:#918B4B;" points="158.8,78.3 153.55,84.8 158.8,74.85 163.6,85 		"/>
	</g>
	<g>
		<polygon style="fill-rule:evenodd;clip-rule:evenodd;fill:#918B4B;" points="197.2,93 194.35,89.05 191.25,92.9 194.35,87 		"/>
	</g>
	<g>
		<polygon style="fill-rule:evenodd;clip-rule:evenodd;fill:#918B4B;" points="230.25,84.95 225.5,78.35 220.35,84.75 225.5,74.95 
					"/>
	</g>
	<g>
		<polygon style="fill-rule:evenodd;clip-rule:evenodd;fill:#918B4B;" points="256.85,97.65 252.25,91.3 247.25,97.45 252.25,88 		
			"/>
	</g>
	<g>
		<polygon style="fill-rule:evenodd;clip-rule:evenodd;fill:#918B4B;" points="278.65,90.3 273.45,83.05 267.75,90.1 273.45,79.25 
					"/>
	</g>
	<g>
		<polygon style="fill-rule:evenodd;clip-rule:evenodd;fill:#918B4B;" points="320.2,90.25 316.1,84.55 311.65,90.05 316.1,81.6 		
			"/>
	</g>
	<g>
		<polygon style="fill-rule:evenodd;clip-rule:evenodd;fill:#918B4B;" points="352.75,100.65 347.65,93.5 342.05,100.4 
			347.65,89.85 		"/>
	</g>
	<g>
		<polygon style="fill-rule:evenodd;clip-rule:evenodd;fill:#918B4B;" points="382.45,104.15 379.5,100.05 376.3,104 379.5,97.95 		
			"/>
	</g>
	<g>
		<polygon style="fill-rule:evenodd;clip-rule:evenodd;fill:#918B4B;" points="404.95,91.7 402.3,88 399.4,91.55 402.3,86.1 		"/>
	</g>
	<g>
		<polygon style="fill-rule:evenodd;clip-rule:evenodd;fill:#918B4B;" points="421.55,37.1 418.9,33.4 416,36.95 418.9,31.5 		"/>
	</g>
	<g>
		<polygon style="fill-rule:evenodd;clip-rule:evenodd;fill:#918B4B;" points="438.35,95.75 432.95,88.3 427.15,95.55 432.95,84.45 
					"/>
	</g>
	<g>
		<polygon style="fill-rule:evenodd;clip-rule:evenodd;fill:#918B4B;" points="471.45,87.55 465.85,79.8 459.75,87.3 465.85,75.75 
					"/>
	</g>
	<g>
		<polygon style="fill-rule:evenodd;clip-rule:evenodd;fill:#918B4B;" points="496.35,100.5 491.65,93.9 486.5,100.25 491.65,90.5 
					"/>
	</g>
	<g>
		<polygon style="fill-rule:evenodd;clip-rule:evenodd;fill:#918B4B;" points="227.8,104.95 222.45,97.5 216.65,104.75 222.45,93.7 
					"/>
	</g>
	<g>
		<polygon style="fill-rule:evenodd;clip-rule:evenodd;fill:#918B4B;" points="456.35,104.8 453.25,100.55 449.95,104.7 
			453.25,98.35 		"/>
	</g>
	<g>
		<polygon style="fill-rule:evenodd;clip-rule:evenodd;fill:#918B4B;" points="169.7,103.8 164.45,96.55 158.8,103.55 164.45,92.8 
					"/>
	</g>
	<g>
		<polygon style="fill-rule:evenodd;clip-rule:evenodd;fill:#918B4B;" points="497.4,71.05 494.45,67 491.3,70.9 494.45,64.9 		"/>
	</g>
	<g>
		<polygon style="fill-rule:evenodd;clip-rule:evenodd;fill:#918B4B;" points="467.65,66.25 465.05,62.6 462.2,66.15 465.05,60.75 
					"/>
	</g>
	<g>
		<polygon style="fill-rule:evenodd;clip-rule:evenodd;fill:#918B4B;" points="438.45,75.85 433.85,69.55 428.95,75.65 
			433.85,66.25 		"/>
	</g>
	<g>
		<polygon style="fill-rule:evenodd;clip-rule:evenodd;fill:#918B4B;" points="400.95,72.15 396.35,65.7 391.3,71.95 396.35,62.4 		
			"/>
	</g>
	<g>
		<polygon style="fill-rule:evenodd;clip-rule:evenodd;fill:#918B4B;" points="371.25,73.25 367.8,68.4 364,73.1 367.8,65.95 		"/>
	</g>
	<g>
		<polygon style="fill-rule:evenodd;clip-rule:evenodd;fill:#918B4B;" points="347.15,78.75 344.45,75.05 341.6,78.65 344.45,73.15 
					"/>
	</g>
	<g>
		<polygon style="fill-rule:evenodd;clip-rule:evenodd;fill:#918B4B;" points="471.65,46.75 468.95,43.05 466.1,46.65 468.95,41.15 
					"/>
	</g>
	<g>
		<polygon style="fill-rule:evenodd;clip-rule:evenodd;fill:#918B4B;" points="293.15,14.55 290.5,10.85 287.6,14.45 290.5,8.95 		
			"/>
	</g>
	<g>
		<polygon style="fill-rule:evenodd;clip-rule:evenodd;fill:#918B4B;" points="321.3,64.55 318.3,68.25 321.3,62.6 324,68.35 		"/>
	</g>
	<g>
		<polygon style="fill-rule:evenodd;clip-rule:evenodd;fill:#918B4B;" points="379.5,87.85 376.8,84.05 373.8,87.75 376.8,82.1 		
			"/>
	</g>
	<g>
		<polygon style="fill-rule:evenodd;clip-rule:evenodd;fill:#918B4B;" points="294.7,78.4 291.3,73.65 287.55,78.25 291.3,71.2 		
			"/>
	</g>
	<g>
		<polygon style="fill-rule:evenodd;clip-rule:evenodd;fill:#918B4B;" points="262.65,67.7 259.45,63.25 256,67.55 259.45,61 		"/>
	</g>
	<g>
		<polygon style="fill-rule:evenodd;clip-rule:evenodd;fill:#918B4B;" points="267.15,14.25 264,9.85 260.55,14.1 264,7.55 		"/>
	</g>
	<g>
		<polygon style="fill-rule:evenodd;clip-rule:evenodd;fill:#918B4B;" points="218.55,26.65 215.4,22.2 211.95,26.5 215.4,19.95 		
			"/>
	</g>
	<g>
		<polygon style="fill-rule:evenodd;clip-rule:evenodd;fill:#918B4B;" points="198.15,108.75 195,104.35 191.55,108.6 195,102.05 		
			"/>
	</g>
	<g>
		<polygon style="fill-rule:evenodd;clip-rule:evenodd;fill:#918B4B;" points="210.15,8.75 207,4.35 203.55,8.6 207,2.05 		"/>
	</g>
	<g>
		<polygon style="fill-rule:evenodd;clip-rule:evenodd;fill:#918B4B;" points="234.1,65.3 229.1,58.4 223.65,65.1 229.1,54.8 		"/>
	</g>
	<g>
		<polygon style="fill-rule:evenodd;clip-rule:evenodd;fill:#918B4B;" points="199.2,68.65 193.45,75.7 199.2,64.85 204.45,75.95 		
			"/>
	</g>
	<g>
		<polygon style="fill-rule:evenodd;clip-rule:evenodd;fill:#918B4B;" points="179.35,73.7 174.8,67.35 169.8,73.5 174.8,64.05 		
			"/>
	</g>
	<g>
		<polygon style="fill-rule:evenodd;clip-rule:evenodd;fill:#918B4B;" points="145.55,71.05 142.15,66.3 138.4,70.9 142.15,63.85 		
			"/>
	</g>
	<g>
		<polygon style="fill-rule:evenodd;clip-rule:evenodd;fill:#918B4B;" points="413.4,108.1 410,103.35 406.3,107.95 410,100.9 		"/>
	</g>
	<g>
		<polygon style="fill-rule:evenodd;clip-rule:evenodd;fill:#918B4B;" points="113.15,64.15 108.4,57.55 103.25,63.95 108.4,54.1 		
			"/>
	</g>
	<g>
		<polygon style="fill-rule:evenodd;clip-rule:evenodd;fill:#918B4B;" points="79.3,62.1 76,66.15 79.3,59.95 82.3,66.3 		"/>
	</g>
	<g>
		<polygon style="fill-rule:evenodd;clip-rule:evenodd;fill:#918B4B;" points="13.65,78.65 10.65,74.5 7.4,78.55 10.65,72.3 		"/>
	</g>
	<g>
		<polygon style="fill-rule:evenodd;clip-rule:evenodd;fill:#918B4B;" points="57.85,72.8 52.35,65.15 46.4,72.55 52.35,61.2 		"/>
	</g>
	<g>
		<polygon style="fill-rule:evenodd;clip-rule:evenodd;fill:#918B4B;" points="32.7,67.8 28.5,62 23.95,67.65 28.5,59 		"/>
	</g>
	<g>
		<polygon style="fill-rule:evenodd;clip-rule:evenodd;fill:#918B4B;" points="19.25,49 14.85,42.9 10.1,48.8 14.85,39.75 		"/>
	</g>
	<g>
		<polygon style="fill-rule:evenodd;clip-rule:evenodd;fill:#918B4B;" points="51.35,47 46.5,40.25 41.25,46.8 46.5,36.75 		"/>
	</g>
	<g>
		<polygon style="fill-rule:evenodd;clip-rule:evenodd;fill:#918B4B;" points="72.2,53.75 66.5,45.8 60.3,53.5 66.5,41.7 		"/>
	</g>
	<g>
		<polygon style="fill-rule:evenodd;clip-rule:evenodd;fill:#918B4B;" points="100.4,46.2 96.7,41.05 92.65,46.05 96.7,38.35 		"/>
	</g>
	<g>
		<polygon style="fill-rule:evenodd;clip-rule:evenodd;fill:#918B4B;" points="130.6,31.65 127.4,27.15 123.85,31.55 127.4,24.85 		
			"/>
	</g>
	<g>
		<polygon style="fill-rule:evenodd;clip-rule:evenodd;fill:#918B4B;" points="142.1,19.15 138.9,14.65 135.35,19.05 138.9,12.35 		
			"/>
	</g>
	<g>
		<polygon style="fill-rule:evenodd;clip-rule:evenodd;fill:#918B4B;" points="151.2,56 148,51.55 144.55,55.85 148,49.25 		"/>
	</g>
	<g>
		<polygon style="fill-rule:evenodd;clip-rule:evenodd;fill:#918B4B;" points="193.95,58.3 191.3,54.55 188.35,58.15 191.3,52.6 		
			"/>
	</g>
	<g>
		<polygon style="fill-rule:evenodd;clip-rule:evenodd;fill:#918B4B;" points="173.9,49.3 171.25,45.55 168.3,49.15 171.25,43.6 		
			"/>
	</g>
	<g>
		<polygon style="fill-rule:evenodd;clip-rule:evenodd;fill:#918B4B;" points="20.2,105.8 17.5,102.05 14.55,105.7 17.5,100.15 		
			"/>
	</g>
	<g>
		<polygon style="fill-rule:evenodd;clip-rule:evenodd;fill:#918B4B;" points="230.05,41.75 225.95,36.1 221.55,41.55 225.95,33.15 
					"/>
	</g>
	<g>
		<polygon style="fill-rule:evenodd;clip-rule:evenodd;fill:#918B4B;" points="241.05,16.45 237,10.8 232.6,16.25 237,7.85 		"/>
	</g>
	<g>
		<polygon style="fill-rule:evenodd;clip-rule:evenodd;fill:#918B4B;" points="256.6,55.85 251.65,48.95 246.25,55.65 251.65,45.4 
					"/>
	</g>
	<g>
		<polygon style="fill-rule:evenodd;clip-rule:evenodd;fill:#918B4B;" points="288.5,57.5 284.95,52.5 281.05,57.35 284.95,49.95 		
			"/>
	</g>
	<g>
		<polygon style="fill-rule:evenodd;clip-rule:evenodd;fill:#918B4B;" points="315.45,57.25 310.55,50.4 305.2,57 310.55,46.9 		"/>
	</g>
	<g>
		<polygon style="fill-rule:evenodd;clip-rule:evenodd;fill:#918B4B;" points="347.2,55.1 344.2,51 340.95,55 344.2,48.85 		"/>
	</g>
	<g>
		<polygon style="fill-rule:evenodd;clip-rule:evenodd;fill:#918B4B;" points="380.05,49 375.35,42.45 370.25,48.75 375.35,39.05 		
			"/>
	</g>
	<g>
		<polygon style="fill-rule:evenodd;clip-rule:evenodd;fill:#918B4B;" points="403.3,48.85 397.6,55.95 403.3,45.1 408.5,56.15 		
			"/>
	</g>
	<g>
		<polygon style="fill-rule:evenodd;clip-rule:evenodd;fill:#918B4B;" points="431.15,59.05 427.8,54.35 424.15,58.9 427.8,51.95 		
			"/>
	</g>
	<g>
		<polygon style="fill-rule:evenodd;clip-rule:evenodd;fill:#918B4B;" points="456.15,58.25 452.75,53.55 449.1,58.1 452.75,51.15 
					"/>
	</g>
	<g>
		<polygon style="fill-rule:evenodd;clip-rule:evenodd;fill:#918B4B;" points="490.5,57.45 486.15,51.45 481.5,57.25 486.15,48.35 
					"/>
	</g>
	<g>
		<polygon style="fill-rule:evenodd;clip-rule:evenodd;fill:#918B4B;" points="31.75,91.7 26,83.7 19.75,91.45 26,79.55 		"/>
	</g>
	<g>
		<polygon style="fill-rule:evenodd;clip-rule:evenodd;fill:#918B4B;" points="67.75,109.2 62,101.2 55.75,108.95 62,97.05 		"/>
	</g>
	<g>
		<polygon style="fill-rule:evenodd;clip-rule:evenodd;fill:#918B4B;" points="272.05,108.8 268.5,103.8 264.6,108.65 268.5,101.25 
					"/>
	</g>
	<g>
		<polygon style="fill-rule:evenodd;clip-rule:evenodd;fill:#918B4B;" points="302.35,106.4 297.45,99.55 292.05,106.2 297.45,96 		
			"/>
	</g>
	<g>
		<polygon style="fill-rule:evenodd;clip-rule:evenodd;fill:#918B4B;" points="89.35,102.8 86.25,98.55 82.95,102.65 86.25,96.35 		
			"/>
	</g>
	<g>
		<polygon style="fill-rule:evenodd;clip-rule:evenodd;fill:#918B4B;" points="478.75,107.85 474,101.25 468.85,107.65 474,97.85 		
			"/>
	</g>
	<g>
		<polygon style="fill-rule:evenodd;clip-rule:evenodd;fill:#918B4B;" points="449.35,41.35 446.2,37 442.85,41.2 446.2,34.8 		"/>
	</g>
	<g>
		<polygon style="fill-rule:evenodd;clip-rule:evenodd;fill:#918B4B;" points="328.85,108 325.5,103.35 321.85,107.85 325.5,100.95 
					"/>
	</g>
	<g>
		<polygon style="fill-rule:evenodd;clip-rule:evenodd;fill:#918B4B;" points="398.8,36.3 396,32.35 392.95,36.15 396,30.35 		"/>
	</g>
	<g>
		<polygon style="fill-rule:evenodd;clip-rule:evenodd;fill:#918B4B;" points="364,25.9 358.15,33.2 364,22.05 369.4,33.4 		"/>
	</g>
	<g>
		<polygon style="fill-rule:evenodd;clip-rule:evenodd;fill:#918B4B;" points="338.95,32.45 333.5,24.9 327.6,32.25 333.5,21 		"/>
	</g>
	<g>
		<polygon style="fill-rule:evenodd;clip-rule:evenodd;fill:#918B4B;" points="303.65,30.05 298.5,22.95 292.95,29.85 298.5,19.25 
					"/>
	</g>
	<g>
		<polygon style="fill-rule:evenodd;clip-rule:evenodd;fill:#918B4B;" points="277.45,37.85 272.5,30.95 267.1,37.65 272.5,27.4 		
			"/>
	</g>
	<g>
		<polygon style="fill-rule:evenodd;clip-rule:evenodd;fill:#918B4B;" points="253.4,36.4 247.65,28.4 241.45,36.15 247.65,24.3 		
			"/>
	</g>
	<g>
		<polygon style="fill-rule:evenodd;clip-rule:evenodd;fill:#918B4B;" points="213.85,50.6 209.95,45.15 205.7,50.4 209.95,42.35 		
			"/>
	</g>
	<g>
		<polygon style="fill-rule:evenodd;clip-rule:evenodd;fill:#918B4B;" points="195.05,34.3 189.65,26.85 183.8,34.1 189.65,22.95 		
			"/>
	</g>
	<g>
		<polygon style="fill-rule:evenodd;clip-rule:evenodd;fill:#918B4B;" points="160.2,30.9 157.05,26.5 153.65,30.75 157.05,24.25 		
			"/>
	</g>
	<g>
		<polygon style="fill-rule:evenodd;clip-rule:evenodd;fill:#918B4B;" points="181.65,15.7 178.5,11.35 175.1,15.55 178.5,9.1 		"/>
	</g>
	<g>
		<polygon style="fill-rule:evenodd;clip-rule:evenodd;fill:#918B4B;" points="140.25,46.1 136.1,40.3 131.55,45.9 136.1,37.3 		"/>
	</g>
	<g>
		<polygon style="fill-rule:evenodd;clip-rule:evenodd;fill:#918B4B;" points="106.55,29.65 103.3,25.15 99.8,29.5 103.3,22.8 		"/>
	</g>
	<g>
		<polygon style="fill-rule:evenodd;clip-rule:evenodd;fill:#918B4B;" points="130.15,109.05 124.5,101.2 118.4,108.8 124.5,97.15 
					"/>
	</g>
	<g>
		<polygon style="fill-rule:evenodd;clip-rule:evenodd;fill:#918B4B;" points="85.45,33.65 82,28.85 78.25,33.5 82,26.35 		"/>
	</g>
	<g>
		<polygon style="fill-rule:evenodd;clip-rule:evenodd;fill:#918B4B;" points="14.05,62.25 10.5,57.3 6.65,62.1 10.5,54.75 		"/>
	</g>
</g>
</svg>
