<?xml version="1.0" encoding="iso-8859-1"?>
<!-- Generator: Adobe Illustrator 15.1.0, SVG Export Plug-In . SVG Version: 6.00 Build 0)  -->
<!DOCTYPE svg PUBLIC "-//W3C//DTD SVG 1.1//EN" "http://www.w3.org/Graphics/SVG/1.1/DTD/svg11.dtd">
<svg version="1.1" id="ground_x5F_back_x5F_right.ai"
	 xmlns="http://www.w3.org/2000/svg" xmlns:xlink="http://www.w3.org/1999/xlink" x="0px" y="0px" width="553.5px"
	 height="256.85px" viewBox="0 0 553.5 256.85" style="enable-background:new 0 0 553.5 256.85;" xml:space="preserve">
<g>
	<path style="fill-rule:evenodd;clip-rule:evenodd;fill:#BCB472;" d="M365.7,165.2c72.467,34.633,135.066,65.184,187.8,91.649H0V0
		C98.8,40.867,220.7,95.933,365.7,165.2z"/>
	<g>
		<polygon style="fill-rule:evenodd;clip-rule:evenodd;fill:#B3AB64;" points="186.55,100.9 181.45,93.85 175.95,100.7 181.45,90.2 
					"/>
	</g>
	<g>
		<polygon style="fill-rule:evenodd;clip-rule:evenodd;fill:#B3AB64;" points="128.25,118 124.8,113.15 121.05,117.85 124.8,110.7 
					"/>
	</g>
	<g>
		<polygon style="fill-rule:evenodd;clip-rule:evenodd;fill:#B3AB64;" points="135.3,97.1 131.85,92.3 128.1,96.95 131.85,89.85 		
			"/>
	</g>
	<g>
		<polygon style="fill-rule:evenodd;clip-rule:evenodd;fill:#B3AB64;" points="111.35,126.35 108.6,122.55 105.65,126.25 
			108.6,120.6 		"/>
	</g>
	<g>
		<polygon style="fill-rule:evenodd;clip-rule:evenodd;fill:#B3AB64;" points="91,159.75 86.3,153.25 81.2,159.55 86.3,149.85 		"/>
	</g>
	<g>
		<polygon style="fill-rule:evenodd;clip-rule:evenodd;fill:#B3AB64;" points="77,201 71.2,208.15 77,197.15 82.3,208.35 		"/>
	</g>
	<g>
		<polygon style="fill-rule:evenodd;clip-rule:evenodd;fill:#B3AB64;" points="117.8,232 112.35,224.4 106.4,231.75 112.35,220.5 		
			"/>
	</g>
	<g>
		<polygon style="fill-rule:evenodd;clip-rule:evenodd;fill:#B3AB64;" points="146.55,246.65 143.05,241.75 139.2,246.5 
			143.05,239.2 		"/>
	</g>
	<g>
		<polygon style="fill-rule:evenodd;clip-rule:evenodd;fill:#B3AB64;" points="187.3,238.65 183.85,233.8 180.05,238.5 
			183.85,231.3 		"/>
	</g>
	<g>
		<polygon style="fill-rule:evenodd;clip-rule:evenodd;fill:#B3AB64;" points="226.6,244.3 221.45,237.15 215.9,244.1 221.45,233.5 
					"/>
	</g>
	<g>
		<polygon style="fill-rule:evenodd;clip-rule:evenodd;fill:#B3AB64;" points="266.15,247.3 260.8,239.85 254.95,247.1 260.8,236 		
			"/>
	</g>
	<g>
		<polygon style="fill-rule:evenodd;clip-rule:evenodd;fill:#B3AB64;" points="302,239.45 297.35,232.95 292.3,239.25 
			297.35,229.65 		"/>
	</g>
	<g>
		<polygon style="fill-rule:evenodd;clip-rule:evenodd;fill:#B3AB64;" points="343.65,243.95 341.05,240.35 338.2,243.85 
			341.05,238.45 		"/>
	</g>
	<g>
		<polygon style="fill-rule:evenodd;clip-rule:evenodd;fill:#B3AB64;" points="385.1,237.85 382.15,233.8 379,237.75 382.15,231.7 
					"/>
	</g>
	<g>
		<polygon style="fill-rule:evenodd;clip-rule:evenodd;fill:#B3AB64;" points="427.9,241.8 422.55,234.3 416.7,241.55 
			422.55,230.45 		"/>
	</g>
	<g>
		<polygon style="fill-rule:evenodd;clip-rule:evenodd;fill:#B3AB64;" points="463.2,251.4 458.2,244.4 452.7,251.15 458.2,240.8 		
			"/>
	</g>
	<g>
		<polygon style="fill-rule:evenodd;clip-rule:evenodd;fill:#B3AB64;" points="502.6,243.45 497.4,236.2 491.75,243.25 497.4,232.5 
					"/>
	</g>
	<g>
		<polygon style="fill-rule:evenodd;clip-rule:evenodd;fill:#B3AB64;" points="536.65,254.15 533.7,250.05 530.5,254.05 
			533.7,247.95 		"/>
	</g>
	<g>
		<polygon style="fill-rule:evenodd;clip-rule:evenodd;fill:#B3AB64;" points="437.05,212.7 432.15,205.85 426.8,212.45 
			432.15,202.3 		"/>
	</g>
	<g>
		<polygon style="fill-rule:evenodd;clip-rule:evenodd;fill:#B3AB64;" points="525.3,251.15 520.8,244.9 515.95,250.95 520.8,241.7 
					"/>
	</g>
	<g>
		<polygon style="fill-rule:evenodd;clip-rule:evenodd;fill:#B3AB64;" points="484.05,254.4 478.75,247.05 473,254.2 478.75,243.25 
					"/>
	</g>
	<g>
		<polygon style="fill-rule:evenodd;clip-rule:evenodd;fill:#B3AB64;" points="438.45,255.25 433.9,248.9 428.95,255.05 
			433.9,245.65 		"/>
	</g>
	<g>
		<polygon style="fill-rule:evenodd;clip-rule:evenodd;fill:#B3AB64;" points="400.9,233.4 396.3,239.05 400.9,230.4 405.05,239.25 
					"/>
	</g>
	<g>
		<polygon style="fill-rule:evenodd;clip-rule:evenodd;fill:#B3AB64;" points="359.6,250.35 356.35,245.9 352.85,250.2 
			356.35,243.55 		"/>
	</g>
	<g>
		<polygon style="fill-rule:evenodd;clip-rule:evenodd;fill:#B3AB64;" points="316.85,249.7 314,245.75 310.95,249.55 314,243.75 		
			"/>
	</g>
	<g>
		<polygon style="fill-rule:evenodd;clip-rule:evenodd;fill:#B3AB64;" points="253.3,221.25 247.95,213.75 242.1,221 247.95,209.9 
					"/>
	</g>
	<g>
		<polygon style="fill-rule:evenodd;clip-rule:evenodd;fill:#B3AB64;" points="242.7,246.15 237.45,252.65 242.7,242.7 
			247.5,252.85 		"/>
	</g>
	<g>
		<polygon style="fill-rule:evenodd;clip-rule:evenodd;fill:#B3AB64;" points="208.7,255.55 204.75,250.05 200.4,255.4 
			204.75,247.2 		"/>
	</g>
	<g>
		<polygon style="fill-rule:evenodd;clip-rule:evenodd;fill:#B3AB64;" points="173.8,248.1 168.2,240.35 162.15,247.85 
			168.2,236.35 		"/>
	</g>
	<g>
		<polygon style="fill-rule:evenodd;clip-rule:evenodd;fill:#B3AB64;" points="132.35,233 129.5,229 126.4,232.85 129.5,227 		"/>
	</g>
	<g>
		<polygon style="fill-rule:evenodd;clip-rule:evenodd;fill:#B3AB64;" points="88.4,237.35 85.75,233.65 82.9,237.2 85.75,231.75 		
			"/>
	</g>
	<g>
		<polygon style="fill-rule:evenodd;clip-rule:evenodd;fill:#B3AB64;" points="48.8,246.7 43.8,239.75 38.4,246.45 43.8,236.15 		
			"/>
	</g>
	<g>
		<polygon style="fill-rule:evenodd;clip-rule:evenodd;fill:#B3AB64;" points="16.55,250.85 11,243.1 4.95,250.6 11,239.1 		"/>
	</g>
	<g>
		<polygon style="fill-rule:evenodd;clip-rule:evenodd;fill:#B3AB64;" points="36.15,221.4 32.95,216.9 29.45,221.25 32.95,214.6 		
			"/>
	</g>
	<g>
		<polygon style="fill-rule:evenodd;clip-rule:evenodd;fill:#B3AB64;" points="73.6,250.85 70.8,246.95 67.8,250.7 70.8,244.95 		
			"/>
	</g>
	<g>
		<polygon style="fill-rule:evenodd;clip-rule:evenodd;fill:#B3AB64;" points="64.55,158.5 59.3,151.2 53.6,158.25 59.3,147.45 		
			"/>
	</g>
	<g>
		<polygon style="fill-rule:evenodd;clip-rule:evenodd;fill:#B3AB64;" points="14.2,220.3 10.8,215.6 7.15,220.15 10.8,213.15 		"/>
	</g>
	<g>
		<polygon style="fill-rule:evenodd;clip-rule:evenodd;fill:#B3AB64;" points="60.7,221.8 55.6,214.65 50,221.6 55.6,211 		"/>
	</g>
	<g>
		<polygon style="fill-rule:evenodd;clip-rule:evenodd;fill:#B3AB64;" points="103.35,193.75 98.15,186.5 92.45,193.55 
			98.15,182.75 		"/>
	</g>
	<g>
		<polygon style="fill-rule:evenodd;clip-rule:evenodd;fill:#B3AB64;" points="131.1,195.3 128.15,191.15 124.9,195.2 
			128.15,189.05 		"/>
	</g>
	<g>
		<polygon style="fill-rule:evenodd;clip-rule:evenodd;fill:#B3AB64;" points="177.35,206.5 173.75,201.45 169.8,206.35 
			173.75,198.85 		"/>
	</g>
	<g>
		<polygon style="fill-rule:evenodd;clip-rule:evenodd;fill:#B3AB64;" points="218.65,196.3 214.1,190 209.15,196.15 214.1,186.7 		
			"/>
	</g>
	<g>
		<polygon style="fill-rule:evenodd;clip-rule:evenodd;fill:#B3AB64;" points="256,197.7 251.45,191.4 246.55,197.5 251.45,188.15 
					"/>
	</g>
	<g>
		<polygon style="fill-rule:evenodd;clip-rule:evenodd;fill:#B3AB64;" points="289.75,198.85 287.1,195.15 284.2,198.7 
			287.1,193.25 		"/>
	</g>
	<g>
		<polygon style="fill-rule:evenodd;clip-rule:evenodd;fill:#B3AB64;" points="396.15,253.85 393.5,250.15 390.65,253.75 
			393.5,248.3 		"/>
	</g>
	<g>
		<polygon style="fill-rule:evenodd;clip-rule:evenodd;fill:#B3AB64;" points="200.1,217.5 197.45,213.85 194.6,217.4 
			197.45,211.95 		"/>
	</g>
	<g>
		<polygon style="fill-rule:evenodd;clip-rule:evenodd;fill:#B3AB64;" points="332.6,209.5 328,203.1 323.05,209.3 328,199.85 		"/>
	</g>
	<g>
		<polygon style="fill-rule:evenodd;clip-rule:evenodd;fill:#B3AB64;" points="369.55,203.35 366.15,198.6 362.45,203.2 
			366.15,196.15 		"/>
	</g>
	<g>
		<polygon style="fill-rule:evenodd;clip-rule:evenodd;fill:#B3AB64;" points="403.45,208.5 398.35,214.8 403.45,205.15 408.15,215 
					"/>
	</g>
	<g>
		<polygon style="fill-rule:evenodd;clip-rule:evenodd;fill:#B3AB64;" points="334.95,183.1 332.15,179.2 329.1,182.95 
			332.15,177.15 		"/>
	</g>
	<g>
		<polygon style="fill-rule:evenodd;clip-rule:evenodd;fill:#B3AB64;" points="478.25,231.75 475.45,227.85 472.4,231.6 
			475.45,225.85 		"/>
	</g>
	<g>
		<polygon style="fill-rule:evenodd;clip-rule:evenodd;fill:#B3AB64;" points="373.6,180.1 368.6,173.1 363.1,179.85 368.6,169.5 		
			"/>
	</g>
	<g>
		<polygon style="fill-rule:evenodd;clip-rule:evenodd;fill:#B3AB64;" points="361.25,222.4 357.45,217.2 353.4,222.25 
			357.45,214.5 		"/>
	</g>
	<g>
		<polygon style="fill-rule:evenodd;clip-rule:evenodd;fill:#B3AB64;" points="311.05,219.6 305.45,211.85 299.4,219.35 
			305.45,207.85 		"/>
	</g>
	<g>
		<polygon style="fill-rule:evenodd;clip-rule:evenodd;fill:#B3AB64;" points="457.05,228.25 451.45,220.5 445.4,228 451.45,216.5 
					"/>
	</g>
	<g>
		<polygon style="fill-rule:evenodd;clip-rule:evenodd;fill:#B3AB64;" points="395.45,189.4 392.3,185 388.85,189.25 392.3,182.75 
					"/>
	</g>
	<g>
		<polygon style="fill-rule:evenodd;clip-rule:evenodd;fill:#B3AB64;" points="346.75,176.15 344.15,172.5 341.25,176.05 
			344.15,170.6 		"/>
	</g>
	<g>
		<polygon style="fill-rule:evenodd;clip-rule:evenodd;fill:#B3AB64;" points="312.4,183.9 309.55,179.9 306.45,183.75 
			309.55,177.85 		"/>
	</g>
	<g>
		<polygon style="fill-rule:evenodd;clip-rule:evenodd;fill:#B3AB64;" points="273.6,178.35 270.7,174.35 267.6,178.25 270.7,172.3 
					"/>
	</g>
	<g>
		<polygon style="fill-rule:evenodd;clip-rule:evenodd;fill:#B3AB64;" points="237.3,165.8 232.95,159.75 228.25,165.6 
			232.95,156.65 		"/>
	</g>
	<g>
		<polygon style="fill-rule:evenodd;clip-rule:evenodd;fill:#B3AB64;" points="197.55,180.7 193.5,175.1 189.15,180.55 193.5,172.2 
					"/>
	</g>
	<g>
		<polygon style="fill-rule:evenodd;clip-rule:evenodd;fill:#B3AB64;" points="157.4,174.7 151.4,182.15 157.4,170.75 162.95,182.4 
					"/>
	</g>
	<g>
		<polygon style="fill-rule:evenodd;clip-rule:evenodd;fill:#B3AB64;" points="128.3,174.15 122.8,166.5 116.85,173.9 122.8,162.55 
					"/>
	</g>
	<g>
		<polygon style="fill-rule:evenodd;clip-rule:evenodd;fill:#B3AB64;" points="77.95,174.8 74.3,179.3 77.95,172.35 81.35,179.45 		
			"/>
	</g>
	<g>
		<polygon style="fill-rule:evenodd;clip-rule:evenodd;fill:#B3AB64;" points="44,184.65 41.05,180.5 37.85,184.5 41.05,178.35 		
			"/>
	</g>
	<g>
		<polygon style="fill-rule:evenodd;clip-rule:evenodd;fill:#B3AB64;" points="19.1,175.4 14.15,168.5 8.75,175.2 14.15,164.95 		
			"/>
	</g>
	<g>
		<polygon style="fill-rule:evenodd;clip-rule:evenodd;fill:#B3AB64;" points="225.85,219.6 221.05,212.95 215.85,219.4 
			221.05,209.5 		"/>
	</g>
	<g>
		<polygon style="fill-rule:evenodd;clip-rule:evenodd;fill:#B3AB64;" points="33.25,200.95 28.15,193.85 22.55,200.75 
			28.15,190.15 		"/>
	</g>
	<g>
		<polygon style="fill-rule:evenodd;clip-rule:evenodd;fill:#B3AB64;" points="37.45,163 32.8,156.5 27.75,162.8 32.8,153.15 		"/>
	</g>
	<g>
		<polygon style="fill-rule:evenodd;clip-rule:evenodd;fill:#B3AB64;" points="12,140.3 8.8,135.85 5.3,140.15 8.8,133.55 		"/>
	</g>
	<g>
		<polygon style="fill-rule:evenodd;clip-rule:evenodd;fill:#B3AB64;" points="61.35,133.35 57.05,127.35 52.35,133.15 
			57.05,124.25 		"/>
	</g>
	<g>
		<polygon style="fill-rule:evenodd;clip-rule:evenodd;fill:#B3AB64;" points="104.8,152.7 99.65,145.6 94.1,152.5 99.65,141.9 		
			"/>
	</g>
	<g>
		<polygon style="fill-rule:evenodd;clip-rule:evenodd;fill:#B3AB64;" points="145.1,145.3 140.15,138.45 134.8,145.1 140.15,134.9 
					"/>
	</g>
	<g>
		<polygon style="fill-rule:evenodd;clip-rule:evenodd;fill:#B3AB64;" points="184.7,145.35 181.35,140.7 177.75,145.2 
			181.35,138.3 		"/>
	</g>
	<g>
		<polygon style="fill-rule:evenodd;clip-rule:evenodd;fill:#B3AB64;" points="227.2,127.25 221.85,119.75 216,127 221.85,115.9 		
			"/>
	</g>
	<g>
		<polygon style="fill-rule:evenodd;clip-rule:evenodd;fill:#B3AB64;" points="258.3,126.5 255,121.95 251.45,126.35 255,119.6 		
			"/>
	</g>
	<g>
		<polygon style="fill-rule:evenodd;clip-rule:evenodd;fill:#B3AB64;" points="192.9,124.2 188.8,118.5 184.35,124 188.8,115.6 		
			"/>
	</g>
	<g>
		<polygon style="fill-rule:evenodd;clip-rule:evenodd;fill:#B3AB64;" points="156.05,217.8 150.8,210.5 145.1,217.55 150.8,206.75 
					"/>
	</g>
	<g>
		<polygon style="fill-rule:evenodd;clip-rule:evenodd;fill:#B3AB64;" points="279.1,219.95 276.4,216.2 273.45,219.85 
			276.4,214.25 		"/>
	</g>
	<g>
		<polygon style="fill-rule:evenodd;clip-rule:evenodd;fill:#B3AB64;" points="319.95,161.15 316.15,155.85 312,161 316.15,153.1 		
			"/>
	</g>
	<g>
		<polygon style="fill-rule:evenodd;clip-rule:evenodd;fill:#B3AB64;" points="295.25,147.8 291.45,142.5 287.35,147.65 
			291.45,139.8 		"/>
	</g>
	<g>
		<polygon style="fill-rule:evenodd;clip-rule:evenodd;fill:#B3AB64;" points="267.05,153.35 262.15,146.5 256.8,153.15 
			262.15,142.95 		"/>
	</g>
	<g>
		<polygon style="fill-rule:evenodd;clip-rule:evenodd;fill:#B3AB64;" points="212.75,152.4 209.45,147.85 205.9,152.3 
			209.45,145.5 		"/>
	</g>
	<g>
		<polygon style="fill-rule:evenodd;clip-rule:evenodd;fill:#B3AB64;" points="184.45,169.65 178.8,161.85 172.7,169.45 
			178.8,157.8 		"/>
	</g>
	<g>
		<polygon style="fill-rule:evenodd;clip-rule:evenodd;fill:#B3AB64;" points="202.45,99.65 198.6,104.4 202.45,97.1 206,104.55 		
			"/>
	</g>
	<g>
		<polygon style="fill-rule:evenodd;clip-rule:evenodd;fill:#B3AB64;" points="160.8,78.5 157.9,82.05 160.8,76.6 163.45,82.2 		"/>
	</g>
	<g>
		<polygon style="fill-rule:evenodd;clip-rule:evenodd;fill:#B3AB64;" points="120.15,79.85 116.4,84.45 120.15,77.4 123.55,84.6 		
			"/>
	</g>
	<g>
		<polygon style="fill-rule:evenodd;clip-rule:evenodd;fill:#B3AB64;" points="94.85,91.7 89.35,84 83.35,91.45 89.35,80.05 		"/>
	</g>
	<g>
		<polygon style="fill-rule:evenodd;clip-rule:evenodd;fill:#B3AB64;" points="55.85,97.1 51.25,90.75 46.25,96.9 51.25,87.45 		"/>
	</g>
	<g>
		<polygon style="fill-rule:evenodd;clip-rule:evenodd;fill:#B3AB64;" points="17.25,92.15 11.55,84.25 5.4,91.9 11.55,80.2 		"/>
	</g>
	<g>
		<polygon style="fill-rule:evenodd;clip-rule:evenodd;fill:#B3AB64;" points="47.85,112 44.55,107.4 41,111.85 44.55,105.05 		"/>
	</g>
	<g>
		<polygon style="fill-rule:evenodd;clip-rule:evenodd;fill:#B3AB64;" points="14.1,105.75 10.8,101.15 7.25,105.6 10.8,98.8 		"/>
	</g>
	<g>
		<polygon style="fill-rule:evenodd;clip-rule:evenodd;fill:#B3AB64;" points="24.5,121 20.8,115.85 16.75,120.85 20.8,113.2 		"/>
	</g>
	<g>
		<polygon style="fill-rule:evenodd;clip-rule:evenodd;fill:#B3AB64;" points="20.15,69.15 17.55,65.55 14.7,69.05 17.55,63.7 		"/>
	</g>
	<g>
		<polygon style="fill-rule:evenodd;clip-rule:evenodd;fill:#B3AB64;" points="17.7,45.95 13.8,40.55 9.55,45.8 13.8,37.75 		"/>
	</g>
	<g>
		<polygon style="fill-rule:evenodd;clip-rule:evenodd;fill:#B3AB64;" points="33.45,54.8 29.55,49.35 25.25,54.6 29.55,46.5 		"/>
	</g>
	<g>
		<polygon style="fill-rule:evenodd;clip-rule:evenodd;fill:#B3AB64;" points="72.1,65 66.6,57.3 60.6,64.75 66.6,53.4 		"/>
	</g>
	<g>
		<polygon style="fill-rule:evenodd;clip-rule:evenodd;fill:#B3AB64;" points="105.6,64.1 102.45,59.75 99.05,63.95 102.45,57.5 		
			"/>
	</g>
	<g>
		<polygon style="fill-rule:evenodd;clip-rule:evenodd;fill:#B3AB64;" points="80.15,109.15 75.2,115.3 80.15,105.9 84.65,115.45 		
			"/>
	</g>
	<g>
		<polygon style="fill-rule:evenodd;clip-rule:evenodd;fill:#B3AB64;" points="160.15,106.6 154.8,99.15 149,106.35 154.8,95.35 		
			"/>
	</g>
	<g>
		<polygon style="fill-rule:evenodd;clip-rule:evenodd;fill:#B3AB64;" points="167.55,132.2 163.45,126.5 159,132 163.45,123.55 		
			"/>
	</g>
	<g>
		<polygon style="fill-rule:evenodd;clip-rule:evenodd;fill:#B3AB64;" points="140.8,71.85 136.05,65.25 130.95,71.65 136.05,61.85 
					"/>
	</g>
	<g>
		<polygon style="fill-rule:evenodd;clip-rule:evenodd;fill:#B3AB64;" points="94.1,54.1 90.35,48.85 86.25,53.95 90.35,46.2 		"/>
	</g>
	<g>
		<polygon style="fill-rule:evenodd;clip-rule:evenodd;fill:#B3AB64;" points="65.75,44.7 60.8,37.85 55.45,44.5 60.8,34.3 		"/>
	</g>
	<g>
		<polygon style="fill-rule:evenodd;clip-rule:evenodd;fill:#B3AB64;" points="50.45,72.15 45.45,65.15 40.05,71.9 45.45,61.6 		"/>
	</g>
	<g>
		<polygon style="fill-rule:evenodd;clip-rule:evenodd;fill:#B3AB64;" points="38.15,29.15 34.95,33.1 38.15,27.1 41.05,33.2 		"/>
	</g>
	<g>
		<polygon style="fill-rule:evenodd;clip-rule:evenodd;fill:#B3AB64;" points="17.3,23.05 12.15,15.85 6.5,22.8 12.15,12.15 		"/>
	</g>
</g>
</svg>
