<?xml version="1.0" encoding="iso-8859-1"?>
<!-- Generator: Adobe Illustrator 15.1.0, SVG Export Plug-In . SVG Version: 6.00 Build 0)  -->
<!DOCTYPE svg PUBLIC "-//W3C//DTD SVG 1.1//EN" "http://www.w3.org/Graphics/SVG/1.1/DTD/svg11.dtd">
<svg version="1.1" id="ground_x5F_mid_x5F_top_x5F_06.ai"
	 xmlns="http://www.w3.org/2000/svg" xmlns:xlink="http://www.w3.org/1999/xlink" x="0px" y="0px" width="500px" height="70px"
	 viewBox="0 0 500 70" style="enable-background:new 0 0 500 70;" xml:space="preserve">
<g>
	<g>
		<path style="fill-rule:evenodd;clip-rule:evenodd;fill:#B3AB64;" d="M500,0v70H0V0c6.7,0,23.15,0.867,49.35,2.6
			c15.6,1.033,43.667,2.9,84.2,5.6c83.633,5.267,146.983,7.533,190.05,6.8c19.2,0.733,48.75-1.517,88.65-6.75
			c22.333-2.9,37.467-4.767,45.4-5.6C474.217,0.883,488.333,0,500,0z"/>
	</g>
	<g>
		<polygon style="fill-rule:evenodd;clip-rule:evenodd;fill:#A49A48;" points="45.45,59.95 41.9,55 38,59.8 41.9,52.45 		"/>
	</g>
	<g>
		<polygon style="fill-rule:evenodd;clip-rule:evenodd;fill:#A49A48;" points="75.35,47.8 71.05,41.85 66.4,47.6 71.05,38.75 		"/>
	</g>
	<g>
		<polygon style="fill-rule:evenodd;clip-rule:evenodd;fill:#A49A48;" points="106.2,51.2 102.8,46.5 99.15,51.05 102.8,44.1 		"/>
	</g>
	<g>
		<polygon style="fill-rule:evenodd;clip-rule:evenodd;fill:#A49A48;" points="138.6,53.05 134.9,47.9 130.85,52.9 134.9,45.2 		"/>
	</g>
	<g>
		<polygon style="fill-rule:evenodd;clip-rule:evenodd;fill:#A49A48;" points="158.75,38.05 154.4,43.45 158.75,35.15 162.75,43.6 
					"/>
	</g>
	<g>
		<polygon style="fill-rule:evenodd;clip-rule:evenodd;fill:#A49A48;" points="196.7,51.95 194.35,48.65 191.75,51.85 194.35,46.95 
					"/>
	</g>
	<g>
		<polygon style="fill-rule:evenodd;clip-rule:evenodd;fill:#A49A48;" points="229.4,43.6 225.45,38.1 221.2,43.4 225.45,35.25 		
			"/>
	</g>
	<g>
		<polygon style="fill-rule:evenodd;clip-rule:evenodd;fill:#A49A48;" points="256.05,56.35 252.2,51 248.05,56.15 252.2,48.3 		"/>
	</g>
	<g>
		<polygon style="fill-rule:evenodd;clip-rule:evenodd;fill:#A49A48;" points="277.75,48.85 273.4,42.8 268.65,48.65 273.4,39.65 		
			"/>
	</g>
	<g>
		<polygon style="fill-rule:evenodd;clip-rule:evenodd;fill:#A49A48;" points="319.45,49 316.05,44.25 312.35,48.85 316.05,41.8 		
			"/>
	</g>
	<g>
		<polygon style="fill-rule:evenodd;clip-rule:evenodd;fill:#A49A48;" points="351.85,59.2 347.6,53.25 342.95,59 347.6,50.2 		"/>
	</g>
	<g>
		<polygon style="fill-rule:evenodd;clip-rule:evenodd;fill:#A49A48;" points="381.9,63.1 379.5,59.7 376.8,63 379.5,57.95 		"/>
	</g>
	<g>
		<polygon style="fill-rule:evenodd;clip-rule:evenodd;fill:#A49A48;" points="404.5,50.7 402.25,47.6 399.85,50.6 402.25,46.05 		
			"/>
	</g>
	<g>
		<polygon style="fill-rule:evenodd;clip-rule:evenodd;fill:#A49A48;" points="437.4,54.3 432.95,48.05 428.05,54.1 432.95,44.85 		
			"/>
	</g>
	<g>
		<polygon style="fill-rule:evenodd;clip-rule:evenodd;fill:#A49A48;" points="470.45,46.05 465.8,39.55 460.75,45.85 465.8,36.2 		
			"/>
	</g>
	<g>
		<polygon style="fill-rule:evenodd;clip-rule:evenodd;fill:#A49A48;" points="495.55,59.1 491.6,53.65 487.3,58.95 491.6,50.8 		
			"/>
	</g>
	<g>
		<polygon style="fill-rule:evenodd;clip-rule:evenodd;fill:#A49A48;" points="226.9,63.5 222.45,57.3 217.6,63.3 222.45,54.1 		"/>
	</g>
	<g>
		<polygon style="fill-rule:evenodd;clip-rule:evenodd;fill:#A49A48;" points="455.8,63.75 453.25,60.2 450.45,63.6 453.25,58.35 		
			"/>
	</g>
	<g>
		<polygon style="fill-rule:evenodd;clip-rule:evenodd;fill:#A49A48;" points="168.75,62.35 164.4,56.3 159.7,62.15 164.4,53.15 		
			"/>
	</g>
	<g>
		<polygon style="fill-rule:evenodd;clip-rule:evenodd;fill:#A49A48;" points="496.9,30 494.45,26.6 491.8,29.9 494.45,24.85 		"/>
	</g>
	<g>
		<polygon style="fill-rule:evenodd;clip-rule:evenodd;fill:#A49A48;" points="467.2,25.25 465,22.2 462.65,25.2 465,20.65 		"/>
	</g>
	<g>
		<polygon style="fill-rule:evenodd;clip-rule:evenodd;fill:#A49A48;" points="437.65,34.55 433.85,29.25 429.7,34.35 433.85,26.55 
					"/>
	</g>
	<g>
		<polygon style="fill-rule:evenodd;clip-rule:evenodd;fill:#A49A48;" points="400.15,30.8 396.3,25.45 392.1,30.65 396.3,22.7 		
			"/>
	</g>
	<g>
		<polygon style="fill-rule:evenodd;clip-rule:evenodd;fill:#A49A48;" points="370.65,32.1 367.75,28.05 364.6,31.95 367.75,26 		
			"/>
	</g>
	<g>
		<polygon style="fill-rule:evenodd;clip-rule:evenodd;fill:#A49A48;" points="346.65,37.75 344.45,34.65 342.05,37.65 344.45,33.1 
					"/>
	</g>
	<g>
		<polygon style="fill-rule:evenodd;clip-rule:evenodd;fill:#A49A48;" points="323.55,27.35 321.25,24.15 318.75,27.25 
			321.25,22.55 		"/>
	</g>
	<g>
		<polygon style="fill-rule:evenodd;clip-rule:evenodd;fill:#A49A48;" points="294.1,37.3 291.25,33.3 288.15,37.15 291.25,31.25 		
			"/>
	</g>
	<g>
		<polygon style="fill-rule:evenodd;clip-rule:evenodd;fill:#A49A48;" points="262.1,26.6 259.45,22.9 256.55,26.45 259.45,21 		"/>
	</g>
	<g>
		<polygon style="fill-rule:evenodd;clip-rule:evenodd;fill:#A49A48;" points="233.2,23.9 229.05,18.1 224.55,23.75 229.05,15.15 		
			"/>
	</g>
	<g>
		<polygon style="fill-rule:evenodd;clip-rule:evenodd;fill:#A49A48;" points="199.15,28.4 194.4,34.3 199.15,25.25 203.55,34.5 		
			"/>
	</g>
	<g>
		<polygon style="fill-rule:evenodd;clip-rule:evenodd;fill:#A49A48;" points="178.55,32.35 174.75,27.05 170.6,32.2 174.75,24.35 
					"/>
	</g>
	<g>
		<polygon style="fill-rule:evenodd;clip-rule:evenodd;fill:#A49A48;" points="144.95,29.95 142.1,25.95 139,29.8 142.1,23.95 		"/>
	</g>
	<g>
		<polygon style="fill-rule:evenodd;clip-rule:evenodd;fill:#A49A48;" points="112.3,22.75 108.35,17.25 104.05,22.6 108.35,14.4 		
			"/>
	</g>
	<g>
		<polygon style="fill-rule:evenodd;clip-rule:evenodd;fill:#A49A48;" points="79.25,21.75 76.55,25.1 79.25,19.95 81.75,25.25 		
			"/>
	</g>
	<g>
		<polygon style="fill-rule:evenodd;clip-rule:evenodd;fill:#A49A48;" points="13.15,37.6 10.65,34.1 7.9,37.5 10.65,32.3 		"/>
	</g>
	<g>
		<polygon style="fill-rule:evenodd;clip-rule:evenodd;fill:#A49A48;" points="56.9,31.3 52.3,24.9 47.35,31.1 52.3,21.6 		"/>
	</g>
	<g>
		<polygon style="fill-rule:evenodd;clip-rule:evenodd;fill:#A49A48;" points="31.95,26.55 28.5,21.7 24.7,26.4 28.5,19.2 		"/>
	</g>
	<g>
		<polygon style="fill-rule:evenodd;clip-rule:evenodd;fill:#A49A48;" points="20.1,11.55 16.5,6.5 12.5,11.4 16.5,3.85 		"/>
	</g>
	<g>
		<polygon style="fill-rule:evenodd;clip-rule:evenodd;fill:#A49A48;" points="45.5,17.6 41.5,12 37.1,17.4 41.5,9.1 		"/>
	</g>
	<g>
		<polygon style="fill-rule:evenodd;clip-rule:evenodd;fill:#A49A48;" points="72.2,16.2 67.45,9.6 62.25,16 67.45,6.2 		"/>
	</g>
	<g>
		<polygon style="fill-rule:evenodd;clip-rule:evenodd;fill:#A49A48;" points="105.55,68.3 102.5,64 99.1,68.15 102.5,61.75 		"/>
	</g>
	<g>
		<polygon style="fill-rule:evenodd;clip-rule:evenodd;fill:#A49A48;" points="150.65,14.9 148,11.2 145.1,14.75 148,9.25 		"/>
	</g>
	<g>
		<polygon style="fill-rule:evenodd;clip-rule:evenodd;fill:#A49A48;" points="193.5,17.3 191.25,14.15 188.85,17.2 191.25,12.55 		
			"/>
	</g>
	<g>
		<polygon style="fill-rule:evenodd;clip-rule:evenodd;fill:#A49A48;" points="146.2,68.1 144,65 141.55,68 144,63.4 		"/>
	</g>
	<g>
		<polygon style="fill-rule:evenodd;clip-rule:evenodd;fill:#A49A48;" points="19.7,64.8 17.5,61.7 15.05,64.7 17.5,60.1 		"/>
	</g>
	<g>
		<polygon style="fill-rule:evenodd;clip-rule:evenodd;fill:#A49A48;" points="200.5,63 196,68.55 200.5,60.05 204.6,68.7 		"/>
	</g>
	<g>
		<polygon style="fill-rule:evenodd;clip-rule:evenodd;fill:#A49A48;" points="268.95,68.25 266,64.1 262.75,68.15 266,62 		"/>
	</g>
	<g>
		<polygon style="fill-rule:evenodd;clip-rule:evenodd;fill:#A49A48;" points="309.55,29.65 305.5,24 301.05,29.5 305.5,21.05 		"/>
	</g>
	<g>
		<polygon style="fill-rule:evenodd;clip-rule:evenodd;fill:#A49A48;" points="407.95,67.95 405.5,64.5 402.8,67.8 405.5,62.7 		"/>
	</g>
	<g>
		<polygon style="fill-rule:evenodd;clip-rule:evenodd;fill:#A49A48;" points="381.75,24.6 377.85,19.15 373.55,24.45 377.85,16.35 
					"/>
	</g>
	<g>
		<polygon style="fill-rule:evenodd;clip-rule:evenodd;fill:#A49A48;" points="412.35,20.05 408,14 403.25,19.85 408,10.85 		"/>
	</g>
	<g>
		<polygon style="fill-rule:evenodd;clip-rule:evenodd;fill:#A49A48;" points="430.55,17.9 427.8,14 424.75,17.8 427.8,12 		"/>
	</g>
	<g>
		<polygon style="fill-rule:evenodd;clip-rule:evenodd;fill:#A49A48;" points="455.55,17.1 452.75,13.2 449.7,17 452.75,11.2 		"/>
	</g>
	<g>
		<polygon style="fill-rule:evenodd;clip-rule:evenodd;fill:#A49A48;" points="489.75,16.15 486.15,11.15 482.25,16 486.15,8.6 		
			"/>
	</g>
	<g>
		<polygon style="fill-rule:evenodd;clip-rule:evenodd;fill:#A49A48;" points="301.5,65 297.4,59.25 292.9,64.8 297.4,56.3 		"/>
	</g>
	<g>
		<polygon style="fill-rule:evenodd;clip-rule:evenodd;fill:#A49A48;" points="88.8,61.75 86.25,58.15 83.45,61.6 86.25,56.35 		"/>
	</g>
	<g>
		<polygon style="fill-rule:evenodd;clip-rule:evenodd;fill:#A49A48;" points="481.4,68.45 477.5,63 473.2,68.3 477.5,60.15 		"/>
	</g>
	<g>
		<polygon style="fill-rule:evenodd;clip-rule:evenodd;fill:#A49A48;" points="322.5,64.5 319.65,68 322.5,62.6 325.05,68.1 		"/>
	</g>
	<g>
		<polygon style="fill-rule:evenodd;clip-rule:evenodd;fill:#A49A48;" points="133.95,18.8 130.5,14 126.7,18.65 130.5,11.5 		"/>
	</g>
	<g>
		<polygon style="fill-rule:evenodd;clip-rule:evenodd;fill:#A49A48;" points="65.65,67 61,60.5 55.9,66.8 61,57.1 		"/>
	</g>
	<g>
		<polygon style="fill-rule:evenodd;clip-rule:evenodd;fill:#A49A48;" points="25.95,50.6 23,46.5 19.75,50.5 23,44.35 		"/>
	</g>
</g>
</svg>
