<?xml version="1.0" encoding="iso-8859-1"?>
<!-- Generator: Adobe Illustrator 15.1.0, SVG Export Plug-In . SVG Version: 6.00 Build 0)  -->
<!DOCTYPE svg PUBLIC "-//W3C//DTD SVG 1.1//EN" "http://www.w3.org/Graphics/SVG/1.1/DTD/svg11.dtd">
<svg version="1.1" id="Isolation_Mode" xmlns="http://www.w3.org/2000/svg" xmlns:xlink="http://www.w3.org/1999/xlink" x="0px"
	 y="0px" width="499.95px" height="70.05px" viewBox="0 0 499.95 70.05" style="enable-background:new 0 0 499.95 70.05;"
	 xml:space="preserve">
<g>
	<g>
		<path style="fill-rule:evenodd;clip-rule:evenodd;fill:#ABA254;" d="M499.95,0v70.05H0V0c6.7,0,23.15,0.867,49.35,2.6
			c15.6,1.033,43.667,2.9,84.2,5.6c83.6,5.267,146.934,7.55,190,6.85c19.167,0.7,48.717-1.55,88.65-6.75
			c22.233-2.933,37.366-4.816,45.399-5.65C474.167,0.883,488.283,0,499.95,0z"/>
	</g>
	<g>
		<polygon style="fill-rule:evenodd;clip-rule:evenodd;fill:#918B4B;" points="46.1,60.75 41.9,54.8 37.3,60.55 41.9,51.75 		"/>
	</g>
	<g>
		<polygon style="fill-rule:evenodd;clip-rule:evenodd;fill:#918B4B;" points="76.2,48.75 71.05,41.6 65.5,48.5 71.05,37.9 		"/>
	</g>
	<g>
		<polygon style="fill-rule:evenodd;clip-rule:evenodd;fill:#918B4B;" points="106.85,51.95 102.8,46.3 98.4,51.75 102.8,43.4 		"/>
	</g>
	<g>
		<polygon style="fill-rule:evenodd;clip-rule:evenodd;fill:#918B4B;" points="139.3,53.85 134.85,47.65 130,53.7 134.85,44.45 		
			"/>
	</g>
	<g>
		<polygon style="fill-rule:evenodd;clip-rule:evenodd;fill:#918B4B;" points="158.75,37.8 153.5,44.3 158.75,34.35 163.55,44.5 		
			"/>
	</g>
	<g>
		<polygon style="fill-rule:evenodd;clip-rule:evenodd;fill:#918B4B;" points="197.15,52.5 194.3,48.55 191.2,52.4 194.3,46.5 		"/>
	</g>
	<g>
		<polygon style="fill-rule:evenodd;clip-rule:evenodd;fill:#918B4B;" points="230.2,44.45 225.45,37.85 220.3,44.25 225.45,34.45 
					"/>
	</g>
	<g>
		<polygon style="fill-rule:evenodd;clip-rule:evenodd;fill:#918B4B;" points="256.8,57.15 252.2,50.8 247.2,56.95 252.2,47.5 		"/>
	</g>
	<g>
		<polygon style="fill-rule:evenodd;clip-rule:evenodd;fill:#918B4B;" points="278.6,49.8 273.4,42.55 267.7,49.6 273.4,38.75 		"/>
	</g>
	<g>
		<polygon style="fill-rule:evenodd;clip-rule:evenodd;fill:#918B4B;" points="320.15,49.75 316.05,44.05 311.6,49.55 316.05,41.1 
					"/>
	</g>
	<g>
		<polygon style="fill-rule:evenodd;clip-rule:evenodd;fill:#918B4B;" points="352.7,60.15 347.6,53 342,59.9 347.6,49.35 		"/>
	</g>
	<g>
		<polygon style="fill-rule:evenodd;clip-rule:evenodd;fill:#918B4B;" points="382.4,63.65 379.45,59.55 376.25,63.5 379.45,57.45 
					"/>
	</g>
	<g>
		<polygon style="fill-rule:evenodd;clip-rule:evenodd;fill:#918B4B;" points="404.9,51.2 402.25,47.5 399.35,51.05 402.25,45.6 		
			"/>
	</g>
	<g>
		<polygon style="fill-rule:evenodd;clip-rule:evenodd;fill:#918B4B;" points="438.3,55.25 432.9,47.8 427.1,55.05 432.9,43.95 		
			"/>
	</g>
	<g>
		<polygon style="fill-rule:evenodd;clip-rule:evenodd;fill:#918B4B;" points="471.4,47.05 465.8,39.3 459.7,46.8 465.8,35.25 		"/>
	</g>
	<g>
		<polygon style="fill-rule:evenodd;clip-rule:evenodd;fill:#918B4B;" points="496.3,60 491.6,53.4 486.45,59.75 491.6,50 		"/>
	</g>
	<g>
		<polygon style="fill-rule:evenodd;clip-rule:evenodd;fill:#918B4B;" points="227.75,64.45 222.4,57 216.6,64.25 222.4,53.2 		"/>
	</g>
	<g>
		<polygon style="fill-rule:evenodd;clip-rule:evenodd;fill:#918B4B;" points="456.3,64.3 453.2,60.05 449.9,64.2 453.2,57.85 		"/>
	</g>
	<g>
		<polygon style="fill-rule:evenodd;clip-rule:evenodd;fill:#918B4B;" points="169.6,63.3 164.4,56.05 158.75,63.05 164.4,52.3 		
			"/>
	</g>
	<g>
		<polygon style="fill-rule:evenodd;clip-rule:evenodd;fill:#918B4B;" points="497.35,30.55 494.4,26.5 491.25,30.4 494.4,24.4 		
			"/>
	</g>
	<g>
		<polygon style="fill-rule:evenodd;clip-rule:evenodd;fill:#918B4B;" points="467.6,25.75 465,22.1 462.15,25.65 465,20.25 		"/>
	</g>
	<g>
		<polygon style="fill-rule:evenodd;clip-rule:evenodd;fill:#918B4B;" points="438.4,35.35 433.8,29.05 428.9,35.15 433.8,25.75 		
			"/>
	</g>
	<g>
		<polygon style="fill-rule:evenodd;clip-rule:evenodd;fill:#918B4B;" points="400.9,31.65 396.3,25.2 391.25,31.45 396.3,21.9 		
			"/>
	</g>
	<g>
		<polygon style="fill-rule:evenodd;clip-rule:evenodd;fill:#918B4B;" points="371.2,32.75 367.75,27.9 363.95,32.6 367.75,25.45 		
			"/>
	</g>
	<g>
		<polygon style="fill-rule:evenodd;clip-rule:evenodd;fill:#918B4B;" points="347.1,38.25 344.4,34.55 341.55,38.15 344.4,32.65 		
			"/>
	</g>
	<g>
		<polygon style="fill-rule:evenodd;clip-rule:evenodd;fill:#918B4B;" points="323.95,27.85 321.25,24.05 318.25,27.75 321.25,22.1 
					"/>
	</g>
	<g>
		<polygon style="fill-rule:evenodd;clip-rule:evenodd;fill:#918B4B;" points="294.65,37.9 291.25,33.15 287.5,37.75 291.25,30.7 		
			"/>
	</g>
	<g>
		<polygon style="fill-rule:evenodd;clip-rule:evenodd;fill:#918B4B;" points="262.6,27.2 259.4,22.75 255.95,27.05 259.4,20.5 		
			"/>
	</g>
	<g>
		<polygon style="fill-rule:evenodd;clip-rule:evenodd;fill:#918B4B;" points="234.05,24.8 229.05,17.9 223.6,24.6 229.05,14.3 		
			"/>
	</g>
	<g>
		<polygon style="fill-rule:evenodd;clip-rule:evenodd;fill:#918B4B;" points="199.15,28.15 193.4,35.2 199.15,24.35 204.4,35.45 		
			"/>
	</g>
	<g>
		<polygon style="fill-rule:evenodd;clip-rule:evenodd;fill:#918B4B;" points="179.3,33.2 174.75,26.85 169.75,33 174.75,23.55 		
			"/>
	</g>
	<g>
		<polygon style="fill-rule:evenodd;clip-rule:evenodd;fill:#918B4B;" points="145.5,30.55 142.1,25.8 138.35,30.4 142.1,23.35 		
			"/>
	</g>
	<g>
		<polygon style="fill-rule:evenodd;clip-rule:evenodd;fill:#918B4B;" points="113.1,23.65 108.35,17.05 103.2,23.45 108.35,13.6 		
			"/>
	</g>
	<g>
		<polygon style="fill-rule:evenodd;clip-rule:evenodd;fill:#918B4B;" points="79.25,21.6 75.95,25.65 79.25,19.45 82.25,25.8 		"/>
	</g>
	<g>
		<polygon style="fill-rule:evenodd;clip-rule:evenodd;fill:#918B4B;" points="13.65,38.15 10.65,34 7.4,38.05 10.65,31.8 		"/>
	</g>
	<g>
		<polygon style="fill-rule:evenodd;clip-rule:evenodd;fill:#918B4B;" points="57.8,32.3 52.3,24.65 46.35,32.05 52.3,20.7 		"/>
	</g>
	<g>
		<polygon style="fill-rule:evenodd;clip-rule:evenodd;fill:#918B4B;" points="32.7,27.3 28.5,21.5 23.95,27.15 28.5,18.5 		"/>
	</g>
	<g>
		<polygon style="fill-rule:evenodd;clip-rule:evenodd;fill:#918B4B;" points="20.9,12.35 16.5,6.25 11.75,12.15 16.5,3.15 		"/>
	</g>
	<g>
		<polygon style="fill-rule:evenodd;clip-rule:evenodd;fill:#918B4B;" points="46.3,18.5 41.5,11.75 36.25,18.3 41.5,8.25 		"/>
	</g>
	<g>
		<polygon style="fill-rule:evenodd;clip-rule:evenodd;fill:#918B4B;" points="73.15,17.25 67.45,9.3 61.25,17 67.45,5.2 		"/>
	</g>
	<g>
		<polygon style="fill-rule:evenodd;clip-rule:evenodd;fill:#918B4B;" points="106.15,69 102.45,63.8 98.4,68.8 102.45,61.15 		"/>
	</g>
	<g>
		<polygon style="fill-rule:evenodd;clip-rule:evenodd;fill:#918B4B;" points="151.15,15.5 147.95,11.05 144.5,15.35 147.95,8.75 		
			"/>
	</g>
	<g>
		<polygon style="fill-rule:evenodd;clip-rule:evenodd;fill:#918B4B;" points="193.9,17.8 191.25,14.05 188.3,17.65 191.25,12.1 		
			"/>
	</g>
	<g>
		<polygon style="fill-rule:evenodd;clip-rule:evenodd;fill:#918B4B;" points="146.65,68.6 143.95,64.85 141,68.5 143.95,62.95 		
			"/>
	</g>
	<g>
		<polygon style="fill-rule:evenodd;clip-rule:evenodd;fill:#918B4B;" points="20.2,65.3 17.5,61.55 14.55,65.2 17.5,59.65 		"/>
	</g>
	<g>
		<polygon style="fill-rule:evenodd;clip-rule:evenodd;fill:#918B4B;" points="200.45,62.75 195.1,69.4 200.45,59.2 205.4,69.6 		
			"/>
	</g>
	<g>
		<polygon style="fill-rule:evenodd;clip-rule:evenodd;fill:#918B4B;" points="269.5,68.9 265.95,63.95 262.05,68.75 265.95,61.4 		
			"/>
	</g>
	<g>
		<polygon style="fill-rule:evenodd;clip-rule:evenodd;fill:#918B4B;" points="310.35,30.55 305.45,23.75 300.15,30.35 
			305.45,20.25 		"/>
	</g>
	<g>
		<polygon style="fill-rule:evenodd;clip-rule:evenodd;fill:#918B4B;" points="408.4,68.5 405.45,64.35 402.2,68.35 405.45,62.2 		
			"/>
	</g>
	<g>
		<polygon style="fill-rule:evenodd;clip-rule:evenodd;fill:#918B4B;" points="382.5,25.5 377.8,18.95 372.7,25.25 377.8,15.55 		
			"/>
	</g>
	<g>
		<polygon style="fill-rule:evenodd;clip-rule:evenodd;fill:#918B4B;" points="413.2,21 407.95,13.75 402.25,20.8 407.95,9.95 		"/>
	</g>
	<g>
		<polygon style="fill-rule:evenodd;clip-rule:evenodd;fill:#918B4B;" points="431.1,18.55 427.75,13.85 424.1,18.4 427.75,11.45 		
			"/>
	</g>
	<g>
		<polygon style="fill-rule:evenodd;clip-rule:evenodd;fill:#918B4B;" points="456.1,17.75 452.7,13.05 449.05,17.6 452.7,10.65 		
			"/>
	</g>
	<g>
		<polygon style="fill-rule:evenodd;clip-rule:evenodd;fill:#918B4B;" points="490.45,16.95 486.1,10.95 481.45,16.75 486.1,7.85 		
			"/>
	</g>
	<g>
		<polygon style="fill-rule:evenodd;clip-rule:evenodd;fill:#918B4B;" points="302.3,65.9 297.4,59.05 292,65.7 297.4,55.5 		"/>
	</g>
	<g>
		<polygon style="fill-rule:evenodd;clip-rule:evenodd;fill:#918B4B;" points="89.3,62.3 86.2,58.05 82.9,62.15 86.2,55.85 		"/>
	</g>
	<g>
		<polygon style="fill-rule:evenodd;clip-rule:evenodd;fill:#918B4B;" points="482.2,69.35 477.45,62.75 472.3,69.15 477.45,59.35 
					"/>
	</g>
	<g>
		<polygon style="fill-rule:evenodd;clip-rule:evenodd;fill:#918B4B;" points="322.45,64.35 319.05,68.55 322.45,62.1 325.55,68.7 
					"/>
	</g>
	<g>
		<polygon style="fill-rule:evenodd;clip-rule:evenodd;fill:#918B4B;" points="134.6,19.6 130.45,13.8 125.95,19.4 130.45,10.8 		
			"/>
	</g>
	<g>
		<polygon style="fill-rule:evenodd;clip-rule:evenodd;fill:#918B4B;" points="66.6,68.05 60.95,60.2 54.85,67.8 60.95,56.15 		"/>
	</g>
	<g>
		<polygon style="fill-rule:evenodd;clip-rule:evenodd;fill:#918B4B;" points="26.55,51.25 23,46.3 19.15,51.1 23,43.75 		"/>
	</g>
</g>
</svg>
