<?xml version="1.0" encoding="iso-8859-1"?>
<!-- Generator: Adobe Illustrator 15.1.0, SVG Export Plug-In . SVG Version: 6.00 Build 0)  -->
<!DOCTYPE svg PUBLIC "-//W3C//DTD SVG 1.1//EN" "http://www.w3.org/Graphics/SVG/1.1/DTD/svg11.dtd">
<svg version="1.1" id="ground_x5F_front_x5F_top_x5F_02.ai"
	 xmlns="http://www.w3.org/2000/svg" xmlns:xlink="http://www.w3.org/1999/xlink" x="0px" y="0px" width="250px" height="35px"
	 viewBox="0 0 250 35" style="enable-background:new 0 0 250 35;" xml:space="preserve">
<g>
	<rect style="fill-rule:evenodd;clip-rule:evenodd;fill:#ABA254;" width="250" height="35"/>
	<g>
		<polygon style="fill-rule:evenodd;clip-rule:evenodd;fill:#918B4B;" points="205.5,32.3 210,22.8 214.9,32.1 210,26 		"/>
	</g>
	<g>
		<polygon style="fill-rule:evenodd;clip-rule:evenodd;fill:#918B4B;" points="175.7,31.35 180.6,21.1 185.9,31.15 180.6,24.6 		"/>
	</g>
	<g>
		<polygon style="fill-rule:evenodd;clip-rule:evenodd;fill:#918B4B;" points="126.55,14.8 131.6,4.1 137.1,14.6 131.6,7.75 		"/>
	</g>
	<g>
		<polygon style="fill-rule:evenodd;clip-rule:evenodd;fill:#918B4B;" points="93.4,29.65 97,22 100.95,29.5 97,24.6 		"/>
	</g>
	<g>
		<polygon style="fill-rule:evenodd;clip-rule:evenodd;fill:#918B4B;" points="56.9,13.95 61.65,3.9 66.85,13.7 61.65,7.3 		"/>
	</g>
	<g>
		<polygon style="fill-rule:evenodd;clip-rule:evenodd;fill:#918B4B;" points="23.65,29.15 26.7,22.7 30,29.05 26.7,24.9 		"/>
	</g>
	<g>
		<polygon style="fill-rule:evenodd;clip-rule:evenodd;fill:#918B4B;" points="44.5,31.45 49.7,20.45 55.35,31.2 49.7,24.2 		"/>
	</g>
	<g>
		<polygon style="fill-rule:evenodd;clip-rule:evenodd;fill:#918B4B;" points="96.85,8.65 99.5,3 102.4,8.55 99.5,4.95 		"/>
	</g>
	<g>
		<polygon style="fill-rule:evenodd;clip-rule:evenodd;fill:#918B4B;" points="121.9,30.8 125,24.3 128.35,30.7 125,26.5 		"/>
	</g>
	<g>
		<polygon style="fill-rule:evenodd;clip-rule:evenodd;fill:#918B4B;" points="153.55,15.35 156.25,9.6 159.25,15.25 156.25,11.55 
					"/>
	</g>
	<g>
		<polygon style="fill-rule:evenodd;clip-rule:evenodd;fill:#918B4B;" points="8.75,11.85 11.5,6.05 14.45,11.7 11.5,8 		"/>
	</g>
	<g>
		<polygon style="fill-rule:evenodd;clip-rule:evenodd;fill:#918B4B;" points="167.4,12.7 171.5,4.1 175.95,12.55 171.5,7 		"/>
	</g>
	<g>
		<polygon style="fill-rule:evenodd;clip-rule:evenodd;fill:#918B4B;" points="243.4,6.85 238.9,13.15 243.4,3.6 248.3,12.95 		"/>
	</g>
	<g>
		<polygon style="fill-rule:evenodd;clip-rule:evenodd;fill:#918B4B;" points="238.75,31.25 241.8,24.8 245.15,31.1 241.8,27 		"/>
	</g>
	<g>
		<polygon style="fill-rule:evenodd;clip-rule:evenodd;fill:#918B4B;" points="226.1,23.55 229,17.45 232.15,23.4 229,19.5 		"/>
	</g>
	<g>
		<polygon style="fill-rule:evenodd;clip-rule:evenodd;fill:#918B4B;" points="5.6,32.05 8.5,25.95 11.65,31.9 8.5,28 		"/>
	</g>
	<g>
		<polygon style="fill-rule:evenodd;clip-rule:evenodd;fill:#918B4B;" points="192.65,15.4 197.45,5.2 202.7,15.2 197.45,8.7 		"/>
	</g>
	<g>
		<polygon style="fill-rule:evenodd;clip-rule:evenodd;fill:#918B4B;" points="138.35,30.05 143,20.15 148.1,29.85 143,23.5 		"/>
	</g>
	<g>
		<polygon style="fill-rule:evenodd;clip-rule:evenodd;fill:#918B4B;" points="110.55,20.1 115.25,10.2 120.3,19.9 115.25,13.6 		
			"/>
	</g>
	<g>
		<polygon style="fill-rule:evenodd;clip-rule:evenodd;fill:#918B4B;" points="81.55,14.85 76.55,21.8 81.55,11.3 86.95,21.55 		"/>
	</g>
	<g>
		<polygon style="fill-rule:evenodd;clip-rule:evenodd;fill:#918B4B;" points="27.5,14.2 33.15,2.3 39.3,13.95 33.15,6.35 		"/>
	</g>
</g>
</svg>
