<?xml version="1.0" encoding="iso-8859-1"?>
<!-- Generator: Adobe Illustrator 15.1.0, SVG Export Plug-In . SVG Version: 6.00 Build 0)  -->
<!DOCTYPE svg PUBLIC "-//W3C//DTD SVG 1.1//EN" "http://www.w3.org/Graphics/SVG/1.1/DTD/svg11.dtd">
<svg version="1.1" id="front_ground_2" xmlns="http://www.w3.org/2000/svg" xmlns:xlink="http://www.w3.org/1999/xlink" x="0px"
	 y="0px" width="495.5px" height="56.35px" viewBox="0 0 495.5 56.35" style="enable-background:new 0 0 495.5 56.35;"
	 xml:space="preserve">
<g>
	<path style="fill-rule:evenodd;clip-rule:evenodd;fill:#ABA254;" d="M410.05,21.65c3.634,2.167,10.634,6.767,21,13.8
		c7.167,4.833,12.65,7.967,16.45,9.399c8.333,3.134,18.833,5.983,31.5,8.551c6.333,1.3,11.833,2.283,16.5,2.949H0
		c14.1-6.333,30-12.566,47.7-18.699c35.4-12.234,62.167-17.833,80.3-16.8c16.2,0.933,33.55,4.733,52.05,11.4
		c11.4,4.066,17.467,6.217,18.2,6.45c5.933,1.866,10.85,2.75,14.75,2.649c3.633-0.1,10.317-2.533,20.05-7.3
		c5.8-2.866,16.101-7.95,30.9-15.25C294.884,4.533,321.733-1.617,344.5,0.35C367.733,2.383,389.583,9.483,410.05,21.65z"/>
	<g>
		<polygon style="fill-rule:evenodd;clip-rule:evenodd;fill:#918B4B;" points="284.15,48.45 288.7,38.9 293.6,48.25 288.7,42.15 		
			"/>
	</g>
	<g>
		<polygon style="fill-rule:evenodd;clip-rule:evenodd;fill:#918B4B;" points="358.5,52.15 363.35,41.85 368.65,51.95 363.35,45.35 
					"/>
	</g>
	<g>
		<polygon style="fill-rule:evenodd;clip-rule:evenodd;fill:#918B4B;" points="340.95,33.9 346,23.2 351.55,33.65 346,26.85 		"/>
	</g>
	<g>
		<polygon style="fill-rule:evenodd;clip-rule:evenodd;fill:#918B4B;" points="300.4,22.55 304,14.9 307.95,22.4 304,17.5 		"/>
	</g>
	<g>
		<polygon style="fill-rule:evenodd;clip-rule:evenodd;fill:#918B4B;" points="68.4,49.2 72,41.55 75.95,49.05 72,44.15 		"/>
	</g>
	<g>
		<polygon style="fill-rule:evenodd;clip-rule:evenodd;fill:#918B4B;" points="316.6,33.45 321.35,23.4 326.5,33.25 321.35,26.85 		
			"/>
	</g>
	<g>
		<polygon style="fill-rule:evenodd;clip-rule:evenodd;fill:#918B4B;" points="45.9,51.25 50.65,41.25 55.85,51.05 50.65,44.65 		
			"/>
	</g>
	<g>
		<polygon style="fill-rule:evenodd;clip-rule:evenodd;fill:#918B4B;" points="176.95,42.4 180,35.95 183.35,42.3 180,38.15 		"/>
	</g>
	<g>
		<polygon style="fill-rule:evenodd;clip-rule:evenodd;fill:#918B4B;" points="260.8,32.1 266,21.1 271.7,31.85 266,24.85 		"/>
	</g>
	<g>
		<polygon style="fill-rule:evenodd;clip-rule:evenodd;fill:#918B4B;" points="126.15,51.4 131.35,40.4 137,51.2 131.35,44.15 		"/>
	</g>
	<g>
		<polygon style="fill-rule:evenodd;clip-rule:evenodd;fill:#918B4B;" points="142.7,40.45 145.35,34.85 148.25,40.35 145.35,36.75 
					"/>
	</g>
	<g>
		<polygon style="fill-rule:evenodd;clip-rule:evenodd;fill:#918B4B;" points="224,51.1 226.7,45.5 229.6,51 226.7,47.4 		"/>
	</g>
	<g>
		<polygon style="fill-rule:evenodd;clip-rule:evenodd;fill:#918B4B;" points="380,52.55 382.7,46.9 385.6,52.4 382.7,48.85 		"/>
	</g>
	<g>
		<polygon style="fill-rule:evenodd;clip-rule:evenodd;fill:#918B4B;" points="157.6,36.7 160.7,30.15 164.05,36.55 160.7,32.4 		
			"/>
	</g>
	<g>
		<polygon style="fill-rule:evenodd;clip-rule:evenodd;fill:#918B4B;" points="374.9,18.5 378,11.95 381.4,18.35 378,14.15 		"/>
	</g>
	<g>
		<polygon style="fill-rule:evenodd;clip-rule:evenodd;fill:#918B4B;" points="280.25,29.15 283.35,22.6 286.75,29 283.35,24.85 		
			"/>
	</g>
	<g>
		<polygon style="fill-rule:evenodd;clip-rule:evenodd;fill:#918B4B;" points="381,37.6 383.7,31.85 386.7,37.5 383.7,33.8 		"/>
	</g>
	<g>
		<polygon style="fill-rule:evenodd;clip-rule:evenodd;fill:#918B4B;" points="103,51.6 105.7,45.85 108.7,51.5 105.7,47.8 		"/>
	</g>
	<g>
		<polygon style="fill-rule:evenodd;clip-rule:evenodd;fill:#918B4B;" points="23.3,52.65 26,46.85 29,52.5 26,48.85 		"/>
	</g>
	<g>
		<polygon style="fill-rule:evenodd;clip-rule:evenodd;fill:#918B4B;" points="122,34.1 119.3,37.9 122,32.15 125,37.8 		"/>
	</g>
	<g>
		<polygon style="fill-rule:evenodd;clip-rule:evenodd;fill:#918B4B;" points="133.3,30.6 136,24.85 139,30.45 136,26.8 		"/>
	</g>
	<g>
		<polygon style="fill-rule:evenodd;clip-rule:evenodd;fill:#918B4B;" points="427.3,44.65 430,38.85 433,44.5 430,40.85 		"/>
	</g>
	<g>
		<polygon style="fill-rule:evenodd;clip-rule:evenodd;fill:#918B4B;" points="352.6,13.85 356.7,5.25 361.15,13.65 356.7,8.15 		
			"/>
	</g>
	<g>
		<polygon style="fill-rule:evenodd;clip-rule:evenodd;fill:#918B4B;" points="408.15,53.8 412.7,44.25 417.6,53.6 412.7,47.5 		"/>
	</g>
	<g>
		<polygon style="fill-rule:evenodd;clip-rule:evenodd;fill:#918B4B;" points="408.95,35.75 412,29.3 415.35,35.6 412,31.5 		"/>
	</g>
	<g>
		<polygon style="fill-rule:evenodd;clip-rule:evenodd;fill:#918B4B;" points="394.3,47.1 397.35,40.65 400.7,46.95 397.35,42.85 		
			"/>
	</g>
	<g>
		<polygon style="fill-rule:evenodd;clip-rule:evenodd;fill:#918B4B;" points="447.15,53.5 450,47.4 453.15,53.4 450,49.5 		"/>
	</g>
	<g>
		<polygon style="fill-rule:evenodd;clip-rule:evenodd;fill:#918B4B;" points="162.7,48.25 159.8,52.25 162.7,46.15 165.85,52.1 		
			"/>
	</g>
	<g>
		<polygon style="fill-rule:evenodd;clip-rule:evenodd;fill:#918B4B;" points="81.55,34.25 78.75,38.35 81.45,32.2 84.75,38.1 		"/>
	</g>
	<g>
		<polygon style="fill-rule:evenodd;clip-rule:evenodd;fill:#918B4B;" points="342.45,52.85 345.35,46.75 348.5,52.7 345.35,48.85 
					"/>
	</g>
	<g>
		<polygon style="fill-rule:evenodd;clip-rule:evenodd;fill:#918B4B;" points="392.55,30.2 397.35,20.05 402.6,30 397.35,23.5 		"/>
	</g>
	<g>
		<polygon style="fill-rule:evenodd;clip-rule:evenodd;fill:#918B4B;" points="312,52 316.7,42.15 321.75,51.8 316.7,45.5 		"/>
	</g>
	<g>
		<polygon style="fill-rule:evenodd;clip-rule:evenodd;fill:#918B4B;" points="368.7,27.5 364,34 368.7,24.15 373.8,33.8 		"/>
	</g>
	<g>
		<polygon style="fill-rule:evenodd;clip-rule:evenodd;fill:#918B4B;" points="95.35,39.35 100,29.45 105.1,39.15 100,32.85 		"/>
	</g>
	<g>
		<polygon style="fill-rule:evenodd;clip-rule:evenodd;fill:#918B4B;" points="194.65,53.4 199.35,43.5 204.45,53.15 199.35,46.85 
					"/>
	</g>
	<g>
		<polygon style="fill-rule:evenodd;clip-rule:evenodd;fill:#918B4B;" points="327.7,15.75 332.7,5.25 338.1,15.55 332.7,8.85 		"/>
	</g>
	<g>
		<polygon style="fill-rule:evenodd;clip-rule:evenodd;fill:#918B4B;" points="245.7,49.35 251.35,37.45 257.5,49.1 251.35,41.5 		
			"/>
	</g>
</g>
</svg>
