<?xml version="1.0" encoding="iso-8859-1"?>
<!-- Generator: Adobe Illustrator 15.1.0, SVG Export Plug-In . SVG Version: 6.00 Build 0)  -->
<!DOCTYPE svg PUBLIC "-//W3C//DTD SVG 1.1//EN" "http://www.w3.org/Graphics/SVG/1.1/DTD/svg11.dtd">
<svg version="1.1" id="FlashAICB" xmlns="http://www.w3.org/2000/svg" xmlns:xlink="http://www.w3.org/1999/xlink" x="0px" y="0px"
	 width="174.5px" height="207.85px" viewBox="0 0 174.5 207.85" style="enable-background:new 0 0 174.5 207.85;"
	 xml:space="preserve">
<g>
	<g>
		<g>
			
				<linearGradient id="SVGID_1_" gradientUnits="userSpaceOnUse" x1="65.5415" y1="83.7505" x2="179.0008" y2="83.7505" gradientTransform="matrix(0.9728 0.2316 -0.2316 0.9728 3.494620e-004 -2.767146e-004)">
				<stop  offset="0" style="stop-color:#E35A69"/>
				<stop  offset="1" style="stop-color:#EA878B"/>
			</linearGradient>
			<polygon style="fill-rule:evenodd;clip-rule:evenodd;fill:url(#SVGID_1_);" points="165.85,107.4 157.45,113.55 145.35,136.35 
				143.7,156.3 113.35,197.2 96.7,197.45 61.9,191.25 27.5,167.8 9.55,164.25 1.1,144.05 2.9,130.9 14.05,75.6 32.3,49.8 
				48.85,38.4 62.1,10.45 99.9,39.95 99.85,41.95 111.85,39.3 140,60.8 140.35,70.6 164.95,73.65 174.45,78.6 			"/>
			<polygon style="fill-rule:evenodd;clip-rule:evenodd;fill:#CE4B5D;" points="111.85,39.3 124.5,48.95 119.15,49.4 114.9,64.35 
				110.35,74.5 98.2,60.75 99.9,39.95 			"/>
			<polygon style="fill-rule:evenodd;clip-rule:evenodd;fill:#CE4B5D;" points="78,22.8 73.05,35.65 77.55,61.7 62.4,57.85 
				55.3,46.3 54.4,38.35 62.1,10.45 			"/>
			<polygon style="fill-rule:evenodd;clip-rule:evenodd;fill:#CE4B5D;" points="140.35,70.6 165.1,73.75 155.4,78.15 147.85,99.6 
				143,97.6 134.9,85.1 			"/>
			<polygon style="fill-rule:evenodd;clip-rule:evenodd;fill:#893342;" points="110.35,74.5 102.1,65.3 112.7,42 136.35,64.45 
				129.3,79.25 122.6,79.4 			"/>
			<polygon style="fill-rule:evenodd;clip-rule:evenodd;fill:#893342;" points="171,77.45 164.7,101.7 153.25,102.2 143,97.6 
				137.5,89 143.45,77 			"/>
			<polygon style="fill-rule:evenodd;clip-rule:evenodd;fill:#893342;" points="94.7,44.45 91.35,59.75 77.55,61.7 62.4,57.85 
				55.3,46.3 67.4,17.85 			"/>
			<path style="fill-rule:evenodd;clip-rule:evenodd;fill:#F6C79E;" d="M81.45,43.15c2.7,0.833,3.65,2.55,2.85,5.15
				c-0.8,2.567-2.5,3.317-5.1,2.25c-2.434-1.033-3.167-2.683-2.2-4.95C77.933,43.333,79.417,42.517,81.45,43.15z"/>
			<path style="fill-rule:evenodd;clip-rule:evenodd;fill:none;stroke:#FFFFFF;" d="M81.45,43.15
				c-2.034-0.633-3.517,0.184-4.45,2.45c-0.967,2.267-0.233,3.917,2.2,4.95c2.6,1.067,4.3,0.317,5.1-2.25
				C85.1,45.7,84.15,43.983,81.45,43.15z"/>
			<path style="fill-rule:evenodd;clip-rule:evenodd;fill:#F6C79E;" d="M125.1,62.35c1.167,0.433,1.95,1.2,2.351,2.3
				c0.366,0.967,0.35,1.934-0.05,2.9c-0.934,2.5-2.684,3-5.25,1.5c-2.334-1.367-2.784-2.966-1.351-4.8
				C122.2,62.417,123.634,61.783,125.1,62.35z"/>
			<path style="fill-rule:evenodd;clip-rule:evenodd;fill:none;stroke:#FFFFFF;stroke-width:0.8;" d="M125.1,62.35
				c-1.466-0.567-2.899,0.066-4.3,1.9c-1.434,1.833-0.983,3.433,1.351,4.8c2.566,1.5,4.316,1,5.25-1.5
				c0.399-0.966,0.416-1.933,0.05-2.9C127.05,63.55,126.267,62.783,125.1,62.35z"/>
			<path style="fill-rule:evenodd;clip-rule:evenodd;fill:#F6C79E;" d="M157.75,90.05c-1.866-1.367-2.2-2.883-1-4.55
				s2.7-1.983,4.5-0.95c2.066,1.2,2.483,2.767,1.25,4.7S159.684,91.45,157.75,90.05z"/>
			<path style="fill-rule:evenodd;clip-rule:evenodd;fill:none;stroke:#FFFFFF;stroke-width:0.8;" d="M157.75,90.05
				c1.934,1.4,3.517,1.133,4.75-0.8s0.816-3.5-1.25-4.7c-1.8-1.033-3.3-0.716-4.5,0.95S155.884,88.683,157.75,90.05z"/>
			<polygon style="fill-rule:evenodd;clip-rule:evenodd;fill:#BC4D5A;" points="106.5,82.9 111.45,104.5 107.25,121.7 110.25,130.3 
				109,138.15 112.95,145.65 118.2,151.45 109.65,148.45 103.15,134.45 95.65,126 104.4,103.75 			"/>
			<polygon style="fill-rule:evenodd;clip-rule:evenodd;fill:#893342;" points="106.5,82.9 106.3,104.85 102,122.95 107.15,131.8 
				105.1,139.8 98.45,134.85 84.75,128 86.25,117.85 93.5,118 102,102.7 			"/>
			<polygon style="fill-rule:evenodd;clip-rule:evenodd;fill:#893342;" points="98.45,134.85 99.85,134.95 105.4,134.85 110.7,146 
				118.2,151.45 121.1,146.5 117.1,130.6 122.35,93.6 121.7,113.75 119.3,129.3 122.55,145.9 120.3,156.7 107.45,150.35 
				104.1,142.2 			"/>
			<path style="fill-rule:evenodd;clip-rule:evenodd;fill:#893342;" d="M55.7,155.6l26.55-15.05L88,144.9
				c4.267,3.1,7.483,5.166,9.65,6.199c3.466,1.634,8.616,3.517,15.449,5.65l3.101,28.7L109,165.3c-5.533-3.899-10.083-6.566-13.65-8
				c-2.333-0.967-5.866-2.5-10.6-4.6l-6.4-2.9L55.7,155.6z"/>
			<polygon style="fill-rule:evenodd;clip-rule:evenodd;fill:#893342;" points="86.65,162.3 77.35,162.95 85.6,159.6 97.45,164.85 
				94,174.6 93.85,165.8 			"/>
			<polygon style="fill-rule:evenodd;clip-rule:evenodd;fill:#893342;" points="44.3,56.75 47.55,79.6 51.5,119.4 47.1,142.2 
				38.1,166.25 63.7,187.7 113.35,197.2 96.7,197.45 58.5,192.95 40.65,183.7 27.85,169.2 9.55,164.1 0.9,144 2.9,130.9 14.05,75.6 
				32.3,49.8 48.85,38.4 62.1,10.45 54.4,38.35 			"/>
			<polygon style="fill-rule:evenodd;clip-rule:evenodd;fill:#BC4D5A;" points="54.8,76.65 78.25,84.7 66.2,127.35 70.7,89.15 			
				"/>
			<polygon style="fill-rule:evenodd;clip-rule:evenodd;fill:#BC4D5A;" points="148.15,125.8 140.7,125.35 127.35,154.55 
				138.75,119.25 			"/>
			<polygon style="fill-rule:evenodd;clip-rule:evenodd;fill:#652A33;" points="94.85,44.45 91.35,59.75 77.55,61.7 87.05,57.75 
				88.85,45.1 67.4,17.85 			"/>
			<polygon style="fill-rule:evenodd;clip-rule:evenodd;fill:#652A33;" points="136.35,64.3 129.3,79.25 122.6,79.4 127.85,77.1 
				131.5,65.1 112.7,42 			"/>
			<polygon style="fill-rule:evenodd;clip-rule:evenodd;fill:#652A33;" points="162.7,99 168.35,79.1 143.45,77 171,77.45 
				164.7,101.7 153.25,102.2 			"/>
			
				<linearGradient id="SVGID_2_" gradientUnits="userSpaceOnUse" x1="59.9463" y1="6.3521" x2="191.9217" y2="6.3521" gradientTransform="matrix(0.9409 0.3387 -0.3387 0.9409 1.965165e-004 -6.341934e-005)">
				<stop  offset="0" style="stop-color:#E35A69"/>
				<stop  offset="1" style="stop-color:#EA878B"/>
			</linearGradient>
			<polygon style="fill-rule:evenodd;clip-rule:evenodd;fill:url(#SVGID_2_);" points="81.45,29.85 94.85,44.3 92.05,53.05 
				75.85,45.6 61.6,34.65 67.4,17.85 			"/>
			
				<linearGradient id="SVGID_3_" gradientUnits="userSpaceOnUse" x1="60.2373" y1="11.8838" x2="192.5609" y2="11.8838" gradientTransform="matrix(0.9409 0.3388 -0.3388 0.9409 3.548861e-004 -5.169809e-004)">
				<stop  offset="0" style="stop-color:#E35A69"/>
				<stop  offset="1" style="stop-color:#EA878B"/>
			</linearGradient>
			<polygon style="fill-rule:evenodd;clip-rule:evenodd;fill:url(#SVGID_3_);" points="107.85,54.95 112.7,42 125.2,52.25 
				136.35,64.3 132.1,71.4 118.35,65.85 			"/>
			
				<linearGradient id="SVGID_4_" gradientUnits="userSpaceOnUse" x1="60.1563" y1="23.1025" x2="192.6379" y2="23.1025" gradientTransform="matrix(0.9409 0.3387 -0.3387 0.9409 -3.336072e-004 3.302395e-004)">
				<stop  offset="0" style="stop-color:#E35A69"/>
				<stop  offset="1" style="stop-color:#EA878B"/>
			</linearGradient>
			<polygon style="fill-rule:evenodd;clip-rule:evenodd;fill:url(#SVGID_4_);" points="171,77.45 166.6,90.2 153,88.3 141.25,83.2 
				143.45,77 155,74.45 			"/>
		</g>
		<polygon style="fill-rule:evenodd;clip-rule:evenodd;fill:#652A33;" points="39.75,51.95 30.8,78.55 39.6,115.4 31.15,163.35 
			55.4,186.55 96.7,197.45 58.5,192.95 40.65,183.7 26.3,168.05 9.55,164.1 0,142.35 14.05,75.6 34.55,51.6 		"/>
		<polygon style="fill-rule:evenodd;clip-rule:evenodd;fill:#4B2329;" points="23.5,109.75 26.95,119.85 18.75,113.05 14.05,119.6 
			13.9,127.9 10.9,121.55 15.35,109.35 		"/>
		<polygon style="fill-rule:evenodd;clip-rule:evenodd;fill:#652A33;" points="86.3,118.15 89.2,127.05 101.15,133.4 105.1,139.8 
			107.45,150.35 102.75,140.1 98.45,134.85 84.75,128 		"/>
		<path style="fill-rule:evenodd;clip-rule:evenodd;fill:#652A33;" d="M82.25,140.55l6.3,4.45c4.5,3.134,7.533,5.167,9.101,6.1
			c2.466,1.5,7.616,3.384,15.449,5.65l3.101,28.7l-4.351-27.65c-9.033-2.7-14.916-4.85-17.649-6.45l-12.7-7.05l-25.8,11.3
			L82.25,140.55z"/>
		<polygon style="fill-rule:evenodd;clip-rule:evenodd;fill:#4B2329;" points="9.05,162.65 28.65,166.2 41.6,182.7 59.65,192 
			95.95,197.15 58.5,192.95 40.65,183.7 26.9,168.7 9.55,164.1 		"/>
		<polygon style="fill-rule:evenodd;clip-rule:evenodd;fill:#EFA9A8;" points="117.95,95.45 121.3,95.7 119.6,107.1 115.55,114.6 
			117.65,106 		"/>
		<polygon style="fill-rule:evenodd;clip-rule:evenodd;fill:#EFA9A8;" points="93.3,38.2 98.55,41.45 97.95,45.45 96.05,52.1 
			95.95,43.85 		"/>
		<polygon style="fill-rule:evenodd;clip-rule:evenodd;fill:#EFA9A8;" points="139.3,61.5 139.15,69.05 135.25,59.45 		"/>
		<polygon style="fill-rule:evenodd;clip-rule:evenodd;fill:#EFA9A8;" points="171.45,77.6 173.85,79.25 170.8,87.5 172.45,79.2 		
			"/>
		<polygon style="fill-rule:evenodd;clip-rule:evenodd;fill:#BC4D5A;" points="53.25,154.2 52.95,156.75 53.65,157.6 56.75,158.25 
			52.55,159.15 51.7,157.85 		"/>
		<polygon style="fill-rule:evenodd;clip-rule:evenodd;fill:#BC4D5A;" points="113.3,185.35 114.65,187.2 116.35,187.4 118.45,186 
			116.5,188.85 114.35,188.6 		"/>
		<polygon style="fill-rule:evenodd;clip-rule:evenodd;fill:#BC4D5A;" points="141.05,109.9 142.7,111.25 146.85,110.6 
			143.65,112.25 139.7,111.1 139.55,107.25 		"/>
		<polygon style="fill-rule:evenodd;clip-rule:evenodd;fill:#BC4D5A;" points="86.5,93.05 88.05,95.7 89.65,97.05 93.8,96.4 
			90.6,98.05 86.7,96.9 		"/>
		<polygon style="fill-rule:evenodd;clip-rule:evenodd;fill:#BC4D5A;" points="57.15,61.2 58.8,62.6 62.95,61.9 59.75,63.6 
			55.8,62.4 55.6,58.55 		"/>
	</g>
	<g>
		<g>
			<path style="fill-rule:evenodd;clip-rule:evenodd;fill:#893342;" d="M65.4,169.2c1.067,1.3,1.1,2.25,0.1,2.85
				c-1.033,0.634-1.733,0.483-2.1-0.45c-0.533-0.767-0.5-1.517,0.1-2.25S64.733,168.566,65.4,169.2z"/>
		</g>
		<g>
			<path style="fill-rule:evenodd;clip-rule:evenodd;fill:#893342;" d="M71.2,156.05c0.367-0.366,0.7-0.416,1-0.149
				c0.3,0.3,0.283,0.583-0.05,0.85c-0.3,0.233-0.583,0.233-0.85,0C71.033,156.517,71,156.283,71.2,156.05z"/>
		</g>
		<g>
			<path style="fill-rule:evenodd;clip-rule:evenodd;fill:#893342;" d="M69.9,135.15c-0.6-1.134-0.483-1.851,0.35-2.15
				c0.9-0.333,1.4-0.1,1.5,0.7c0.267,0.533,0.15,1.066-0.35,1.6C70.867,135.8,70.367,135.75,69.9,135.15z"/>
		</g>
		<g>
			<path style="fill-rule:evenodd;clip-rule:evenodd;fill:#893342;" d="M56.2,133.65c-0.1-1.367,0.483-2.117,1.75-2.25
				c1.3-0.101,1.833,0.55,1.6,1.949c-0.2,1.267-0.8,1.867-1.8,1.801C56.75,135.05,56.233,134.55,56.2,133.65z"/>
		</g>
		<g>
			<path style="fill-rule:evenodd;clip-rule:evenodd;fill:#893342;" d="M89.15,181.15c0.3,0.5,0.267,0.85-0.101,1.05
				c-0.399,0.233-0.666,0.149-0.8-0.25c-0.1-0.334-0.017-0.634,0.25-0.9C88.8,180.816,89.017,180.85,89.15,181.15z"/>
		</g>
		<g>
			<path style="fill-rule:evenodd;clip-rule:evenodd;fill:#893342;" d="M77.8,183.2l-0.1-0.351c-0.1-0.267,0.083-0.35,0.55-0.25
				C78.55,183.267,78.4,183.467,77.8,183.2z"/>
		</g>
		<g>
			<path style="fill-rule:evenodd;clip-rule:evenodd;fill:#893342;" d="M106.05,171.8c-0.434-0.399-0.383-1.05,0.15-1.95
				c0.5-0.866,1.166-0.767,2,0.301c0.366,1.267,0.166,1.983-0.601,2.149C106.833,172.467,106.316,172.3,106.05,171.8z"/>
		</g>
		<g>
			<path style="fill-rule:evenodd;clip-rule:evenodd;fill:#893342;" d="M126.85,137.25c0.101-0.2,0.184-0.25,0.25-0.15
				c0.101,0.134,0.117,0.2,0.051,0.2C126.917,137.467,126.816,137.45,126.85,137.25z"/>
		</g>
		<g>
			<path style="fill-rule:evenodd;clip-rule:evenodd;fill:#893342;" d="M131.35,119.5c-0.233-0.3-0.199-0.583,0.101-0.85
				c0.267-0.233,0.483-0.134,0.649,0.3c0.101,0.267,0.034,0.483-0.199,0.649C131.667,119.8,131.483,119.767,131.35,119.5z"/>
		</g>
		<g>
			<path style="fill-rule:evenodd;clip-rule:evenodd;fill:#893342;" d="M146.8,115.55c0.7-0.866,1.467-1,2.3-0.399
				c0.834,0.633,0.817,1.316-0.05,2.05c-0.866,0.633-1.583,0.633-2.149,0C146.333,116.6,146.3,116.05,146.8,115.55z"/>
		</g>
		<g>
			<path style="fill-rule:evenodd;clip-rule:evenodd;fill:#893342;" d="M145.25,102.65c0.033-0.767,0.3-1.083,0.8-0.95
				s0.667,0.383,0.5,0.75c-0.033,0.267-0.233,0.483-0.6,0.65C145.583,103.233,145.35,103.083,145.25,102.65z"/>
		</g>
		<g>
			<path style="fill-rule:evenodd;clip-rule:evenodd;fill:#893342;" d="M133.45,102.55c-0.334-0.867-0.101-1.5,0.7-1.9
				c0.8-0.4,1.267-0.117,1.399,0.85c0.167,0.9-0.083,1.45-0.75,1.65C134.134,103.317,133.684,103.117,133.45,102.55z"/>
		</g>
		<g>
			<path style="fill-rule:evenodd;clip-rule:evenodd;fill:#893342;" d="M90,106.3c-0.134-0.3-0.033-0.533,0.3-0.7
				c0.3-0.199,0.5-0.1,0.601,0.301c0.033,0.433-0.084,0.666-0.351,0.699C90.25,106.634,90.066,106.533,90,106.3z"/>
		</g>
		<g>
			<path style="fill-rule:evenodd;clip-rule:evenodd;fill:#893342;" d="M62.85,100.5c-0.867-1.3-0.65-2.533,0.65-3.7
				c1.267-1.133,2.35-0.767,3.25,1.1c0.533,1.934,0.133,3.1-1.2,3.5C64.25,101.767,63.35,101.467,62.85,100.5z"/>
		</g>
		<g>
			<path style="fill-rule:evenodd;clip-rule:evenodd;fill:#893342;" d="M59.6,107.75c-0.167-0.1-0.217-0.233-0.15-0.4
				c0.033-0.199,0.117-0.233,0.25-0.1s0.167,0.267,0.1,0.4C59.767,107.816,59.7,107.85,59.6,107.75z"/>
		</g>
		<g>
			<path style="fill-rule:evenodd;clip-rule:evenodd;fill:#893342;" d="M86.75,79.55c-0.267-0.667,0.033-1.267,0.9-1.8
				c0.866-0.5,1.449-0.117,1.75,1.15c-0.167,1.3-0.634,1.883-1.4,1.75S86.817,80.15,86.75,79.55z"/>
		</g>
		<g>
			<path style="fill-rule:evenodd;clip-rule:evenodd;fill:#893342;" d="M67.2,73.6c-0.2-0.5-0.05-0.883,0.45-1.15
				c0.5-0.267,0.833-0.083,1,0.55c0.033,0.7-0.183,1.05-0.65,1.05C67.567,74.05,67.3,73.9,67.2,73.6z"/>
		</g>
		<g>
			<path style="fill-rule:evenodd;clip-rule:evenodd;fill:#893342;" d="M53.35,72.2c-0.4-0.667-0.3-1.167,0.3-1.5
				c0.6-0.333,1-0.15,1.2,0.55c0.2,0.633,0.066,1.067-0.4,1.3C53.95,72.75,53.583,72.633,53.35,72.2z"/>
		</g>
		<g>
			<path style="fill-rule:evenodd;clip-rule:evenodd;fill:#893342;" d="M37.45,88.3c-0.034-1.367,0.533-2.066,1.7-2.1
				c1.167-0.034,1.617,0.533,1.35,1.7c-0.167,1.033-0.7,1.567-1.6,1.6S37.517,89.133,37.45,88.3z"/>
		</g>
		<g>
			<g>
				<path style="fill-rule:evenodd;clip-rule:evenodd;fill:#452227;" d="M25.9,86c-0.6-1.4-0.433-2.183,0.5-2.35
					c1-0.167,1.5,0.1,1.5,0.8c0.267,0.566,0.117,1.117-0.45,1.65C26.917,86.667,26.4,86.633,25.9,86z"/>
			</g>
		</g>
		<g>
			<g>
				<path style="fill-rule:evenodd;clip-rule:evenodd;fill:#452227;" d="M21.6,141.5c-0.067-0.434,0.083-0.684,0.45-0.75
					c0.4-0.066,0.583,0.1,0.55,0.5c-0.033,0.366-0.2,0.566-0.5,0.6C21.8,141.884,21.633,141.767,21.6,141.5z"/>
			</g>
		</g>
		<g>
			<g>
				<path style="fill-rule:evenodd;clip-rule:evenodd;fill:#452227;" d="M32.4,132.55c0.133-0.5,0.434-0.666,0.9-0.5
					c0.434,0.134,0.517,0.4,0.25,0.8c-0.2,0.367-0.466,0.483-0.8,0.351C32.417,133.066,32.3,132.85,32.4,132.55z"/>
			</g>
		</g>
		<g>
			<g>
				<path style="fill-rule:evenodd;clip-rule:evenodd;fill:#452227;" d="M15.65,133.35c-0.133-0.133-0.183-0.283-0.15-0.449
					c0.067-0.2,0.167-0.217,0.3-0.051c0.1,0.101,0.133,0.233,0.1,0.4C15.833,133.384,15.75,133.417,15.65,133.35z"/>
			</g>
		</g>
		<g>
			<g>
				<path style="fill-rule:evenodd;clip-rule:evenodd;fill:#452227;" d="M10.75,149.65c0.2,0.267,0.167,0.466-0.1,0.6
					c-0.233,0.1-0.417,0.017-0.55-0.25c-0.1-0.233-0.033-0.4,0.2-0.5C10.5,149.4,10.65,149.45,10.75,149.65z"/>
			</g>
		</g>
		<g>
			<g>
				<path style="fill-rule:evenodd;clip-rule:evenodd;fill:#452227;" d="M18,98.3c-0.767-1.033-0.783-1.7-0.05-2
					c0.8-0.367,1.267-0.233,1.4,0.4c0.333,0.433,0.316,0.917-0.05,1.45S18.5,98.733,18,98.3z"/>
			</g>
		</g>
		<g>
			<path style="fill-rule:evenodd;clip-rule:evenodd;fill:#893342;" d="M61.35,25.65c0.033-0.133,0.117-0.183,0.25-0.15
				c0.1,0.033,0.117,0.1,0.05,0.2c-0.033,0.1-0.1,0.133-0.2,0.1C61.383,25.767,61.35,25.717,61.35,25.65z"/>
		</g>
		<g>
			<path style="fill-rule:evenodd;clip-rule:evenodd;fill:#893342;" d="M83.95,52.35c0.3,0.033,0.433,0.15,0.4,0.35
				C84.317,52.933,84.2,53.033,84,53c-0.3-0.1-0.417-0.233-0.35-0.4C83.717,52.433,83.817,52.35,83.95,52.35z"/>
		</g>
		<g>
			<path style="fill-rule:evenodd;clip-rule:evenodd;fill:#893342;" d="M104.2,48.45c0.233,0.267,0.25,0.466,0.05,0.6
				s-0.366,0.117-0.5-0.05c-0.167-0.267-0.15-0.45,0.05-0.55C103.934,48.383,104.066,48.383,104.2,48.45z"/>
		</g>
		<g>
			<path style="fill-rule:evenodd;clip-rule:evenodd;fill:#893342;" d="M141,79.85c0.267,0.3,0.25,0.6-0.05,0.9
				c-0.267,0.267-0.517,0.2-0.75-0.2c-0.2-0.433-0.15-0.716,0.149-0.85C140.616,79.567,140.833,79.617,141,79.85z"/>
		</g>
		<g>
			<path style="fill-rule:evenodd;clip-rule:evenodd;fill:#893342;" d="M121.9,87.25c0.666,0.167,0.933,0.483,0.8,0.95
				c-0.134,0.5-0.417,0.65-0.851,0.45c-0.399-0.167-0.583-0.467-0.55-0.9C121.333,87.35,121.533,87.183,121.9,87.25z"/>
		</g>
		<g>
			<path style="fill-rule:evenodd;clip-rule:evenodd;fill:#893342;" d="M105.7,79.8c-1.167,0.5-1.95,0.267-2.351-0.7
				c-0.433-1-0.133-1.617,0.9-1.85c1.1-0.233,1.783,0.067,2.05,0.9C106.566,78.95,106.366,79.5,105.7,79.8z"/>
		</g>
		<g>
			<path style="fill-rule:evenodd;clip-rule:evenodd;fill:#893342;" d="M94.9,70.25c-1.101,0.467-1.917,0.167-2.45-0.9
				c-0.533-1.067-0.15-1.717,1.149-1.95c1.233-0.167,1.95,0.2,2.15,1.1C95.95,69.367,95.667,69.95,94.9,70.25z"/>
		</g>
	</g>
	<polygon style="fill-rule:evenodd;clip-rule:evenodd;fill:#CE4B5D;" points="77.45,24.1 70.55,41.6 61.6,34.75 67.4,17.85 	"/>
	<polygon style="fill-rule:evenodd;clip-rule:evenodd;fill:#CE4B5D;" points="112.7,42 121.5,49.2 114.85,51.55 112.25,59.45 
		107.85,55.1 	"/>
	<polygon style="fill-rule:evenodd;clip-rule:evenodd;fill:#CE4B5D;" points="150.25,87.1 141.15,83.3 143.45,77 151.85,72.55 
		161.3,75.5 	"/>
</g>
</svg>
