<?xml version="1.0" encoding="iso-8859-1"?>
<!-- Generator: Adobe Illustrator 15.1.0, SVG Export Plug-In . SVG Version: 6.00 Build 0)  -->
<!DOCTYPE svg PUBLIC "-//W3C//DTD SVG 1.1//EN" "http://www.w3.org/Graphics/SVG/1.1/DTD/svg11.dtd">
<svg version="1.1" id="house_x5F_blue_x5F_background_x5F_02.ai"
	 xmlns="http://www.w3.org/2000/svg" xmlns:xlink="http://www.w3.org/1999/xlink" x="0px" y="0px" width="170.2px"
	 height="116.65px" viewBox="0 0 170.2 116.65" style="enable-background:new 0 0 170.2 116.65;" xml:space="preserve">
<g>
	<linearGradient id="SVGID_1_" gradientUnits="userSpaceOnUse" x1="107.5498" y1="67.625" x2="155.2002" y2="67.625">
		<stop  offset="0" style="stop-color:#D5DBDC"/>
		<stop  offset="1" style="stop-color:#DFE4E5"/>
	</linearGradient>
	<polygon style="fill-rule:evenodd;clip-rule:evenodd;fill:url(#SVGID_1_);" points="124.35,23.15 155.2,18.6 147.3,48.65 
		142.5,49.05 137.5,69 142.05,68.55 132.1,106.2 109.4,116.65 107.55,115.75 	"/>
	<g>
		<polygon style="fill-rule:evenodd;clip-rule:evenodd;fill:#C8D0D2;" points="119.45,65.65 119.4,64.85 139.05,62.9 138.85,63.7 
			131,64.5 129.3,76.45 140.85,72.95 140.65,73.85 116.55,81.15 116.3,80.35 128.5,76.7 130.2,64.6 		"/>
		<polygon style="fill-rule:evenodd;clip-rule:evenodd;fill:#C8D0D2;" points="137.65,30 137.25,34.4 151.35,33.25 151.15,34.05 
			125.25,36.15 125.2,35.35 136.45,34.45 136.85,29.9 		"/>
		<polygon style="fill-rule:evenodd;clip-rule:evenodd;fill:#C8D0D2;" points="113.7,95.2 113.35,94.5 138.15,83.2 137.9,84.2 
			126.45,89.4 124.65,102.25 134.3,97.85 134,98.85 111,109.3 110.65,108.6 123.75,102.65 125.6,89.8 		"/>
		<polygon style="fill-rule:evenodd;clip-rule:evenodd;fill:#C8D0D2;" points="123.85,43.55 123.8,42.75 149.4,40.6 149.2,41.4 
			135.1,42.6 133.7,51.75 142.15,50.55 141.95,51.35 121.7,54.35 121.55,53.55 132.9,51.9 134.25,42.65 		"/>
	</g>
	<path style="fill-rule:evenodd;clip-rule:evenodd;fill:#B4C1C3;" d="M125.05,35.75l1.2-6l26.4-0.2l-1.2,3
		c-3.867,0.133-7.066,0.267-9.601,0.4c-1.566,0.1-4.833,0.6-9.8,1.5L125.05,35.75z"/>
	<linearGradient id="SVGID_2_" gradientUnits="userSpaceOnUse" x1="21.3501" y1="67.1758" x2="128.4502" y2="67.1758">
		<stop  offset="0" style="stop-color:#A1B1B3"/>
		<stop  offset="1" style="stop-color:#C6CFD1"/>
	</linearGradient>
	<polygon style="fill-rule:evenodd;clip-rule:evenodd;fill:url(#SVGID_2_);" points="27.05,67.15 21.35,17.7 128.45,19.55 
		109.4,116.65 32.25,109.6 29.05,85.35 34.5,85.35 33.6,67.2 	"/>
	<linearGradient id="SVGID_3_" gradientUnits="userSpaceOnUse" x1="21.3501" y1="67.1758" x2="128.4502" y2="67.1758">
		<stop  offset="0" style="stop-color:#A1B1B3"/>
		<stop  offset="1" style="stop-color:#C6CFD1"/>
	</linearGradient>
	<polygon style="fill-rule:evenodd;clip-rule:evenodd;fill:url(#SVGID_3_);" points="27.05,67.15 21.35,17.7 128.45,19.55 
		109.4,116.65 32.25,109.6 29.05,85.35 34.5,85.35 33.6,67.2 	"/>
	<g>
		<path style="fill-rule:evenodd;clip-rule:evenodd;fill:#9CAFB3;" d="M71.7,92.1L69.6,91.7l-0.65,12.6l21.75,1.95l1.6-14.5
			L71.7,92.1z M53.35,88.55l-5.4-0.2l0.1,14.351l3.6,0.05l16.5,1.5l0.65-12.7L53.35,88.55z M70.25,62.45L68.4,62.35L47.25,59.4
			L47.5,73l15.35,0.35L69.4,74.2L70.25,62.45z M59.05,49.2l-0.25-0.05l-26.3-1.8L32.15,58.3l14.7,0.25l12.7,1.75L59.05,49.2z
			 M58.95,38.65L59.3,31l-27.8-2.75l-0.45,7.25L58.95,38.65z M48.55,47.65l10.3,0.7l11.6,1.4l0.65-9.15L49,38.35L48.55,47.65z
			 M83.6,76.9L82.95,91.1l10.5-0.149l15.7,2.75L110.1,80.35L83.6,76.9z M82.15,91.15L82.8,76.8l-20-2.649l-3.75-0.101v14.8
			l12.7,2.45L82.15,91.15z M94.25,63.75H94.2L71.05,62.5l-0.9,11.8l22.8,3L94.25,63.75z M89.1,51.95l4.95,0.25l0.75-9.55l-22.9-2
			l-0.65,9.2L89.1,51.95z M84.45,62.45l0.2-10.2l-24.8-2.95l0.5,11.15l8.15,1.1l1.8,0.101l0.05-0.2l0.8,0.05l-0.05,0.2L84.45,62.45z
			 M113.2,64.4l1.2-10.4l-28.95-1.65l-0.2,10.1L113.2,64.4z M85.95,41.2l0.6-7.9L60.1,31.1l-0.35,7.6L85.95,41.2z M87.35,33.35
			l-0.6,7.95l30,1.25l0.55-7L87.35,33.35z M125.25,35.35L125.2,36v0.15l-7.101-0.5l-0.55,6.9l6.3,0.2V43l-0.1,0.55L95.6,42.7
			l-0.75,9.55l26.801,1.3l-0.051,0.8l-6.399-0.3l-1.2,10.4l5.45,0.399l-0.05,0.75v0.051L95.05,63.8L93.75,77.4l22.75,2.949
			l-0.15,0.801l-5.449-0.7l-0.95,13.399l3.649,0.601l-0.149,0.8l-20.101-3.5H93.1l-1.649,14.6l19.45,2.2l-0.101,0.8l-2.55-0.3
			l-0.8,7.4l-0.8-0.05l0.8-7.4l-26.85-2.85l-0.8,7.8L79,113.85l0.8-7.8l-21.4-1.899l-0.55,7.8l-0.8-0.101l0.55-7.75l-6-0.55
			l-17.1-0.25l-0.2,6.5l-0.8-0.1l0.2-6.4l-2.3-0.05l-0.1-0.8l15.95,0.25l-0.1-14.351L29.4,87.7l-0.15-0.8l2.7,0.1L32,85.35h0.8
			L32.75,87l20.7,0.75l4.8,0.95V74.05l-24.35-0.6v-0.8l12.8,0.3L46.45,59.35L26.1,59L26,58.2l5.35,0.1l0.35-11l-7-0.45l-0.1-0.8
			l23.15,1.55l0.45-9.35l-24.8-2.8l-0.1-0.85l6.95,0.8l0.45-7.25l-8.25-0.85l-0.1-0.8l25.9,2.6l0.55-10.9h0.75l-0.5,11l22.5,2.15
			l0.2-12.8l0.8,0.05l-0.2,12.85L86.6,32.5l0.15-1.75l0.8,0.05L87.4,32.55l30,2.2l0.35-4.35l0.8,0.1l-0.35,4.35L125.25,35.35z"/>
	</g>
	<path style="fill-rule:evenodd;clip-rule:evenodd;fill:#8AA2A6;" d="M126.45,29.45l-1.2,6.3c-1.6,0.267-4.533,0.4-8.8,0.4
		c-5.767,0-11.483-0.217-17.15-0.65c-8.934-0.667-15.55-1.783-19.85-3.35c-4.167-1.5-7.184-3.45-9.05-5.85l-1.55-3.15l-16.6-1
		l-4,4.4l-25.6,2.6l-1.2-15l44.6-1.2L126.45,29.45z"/>
	<polygon style="fill-rule:evenodd;clip-rule:evenodd;fill:#CFD9DB;" points="78.45,113.95 54.7,111.55 49.25,53.3 91.35,61.4 	"/>
	<path style="fill-rule:evenodd;clip-rule:evenodd;fill:#CFD9DB;" d="M95.5,49.3c-0.4-0.2-0.767-0.483-1.1-0.85
		c-0.7-0.7-0.917-1.434-0.65-2.2c0.3-0.8,0.85-1.483,1.65-2.05c0.433-0.3,0.816-0.517,1.149-0.65c-0.333-0.667-0.566-1.367-0.7-2.1
		c-0.233-1.467,0.184-2.367,1.25-2.7c1.067-0.333,2.051-0.25,2.95,0.25c0.467,0.233,0.816,0.5,1.05,0.8l1-1.05
		c0.834-0.733,1.65-1.183,2.45-1.35c0.9-0.167,1.834,0.083,2.8,0.75c0.5,0.3,0.9,0.633,1.2,1l0.95-0.9c0.8-0.6,1.55-0.917,2.25-0.95
		c1.167-0.1,2.417,0.567,3.75,2l1.1-0.7c0.934-0.4,1.9-0.483,2.9-0.25s1.4,0.816,1.2,1.75c-0.134,0.467-0.351,0.9-0.65,1.3l0.8,0.5
		c0.467,0.5,0.601,1.233,0.4,2.2c-0.366,1.5-1.35,2.783-2.95,3.85l0.95,0.65c0.634,0.633,0.9,1.483,0.8,2.55
		c-0.133,1.067-0.733,1.85-1.8,2.35l-1.55,0.45l0.5,0.8c0.3,0.733,0.316,1.617,0.05,2.65c-0.467,1.7-1.4,3.133-2.8,4.3l0.649,1.35
		c0.334,1,0.334,1.834,0,2.5c-0.333,0.667-0.899,1.101-1.699,1.3L112.3,66.9l0.55,1.149c0.233,1,0.051,2.033-0.55,3.101
		c-0.6,1.066-1.467,1.816-2.6,2.25l-1.55,0.3l0.199,1c0.034,0.8-0.25,1.533-0.85,2.2c-0.6,0.666-1.55,1-2.85,1l-1.801-0.2
		c-0.166,0.333-0.416,0.633-0.75,0.899c-0.699,0.534-1.517,0.634-2.449,0.301c-0.967-0.334-1.567-1.034-1.801-2.101l-0.1-1.5
		c-0.333,0-0.684-0.1-1.05-0.3c-0.767-0.434-1.25-1.184-1.45-2.25c-0.233-1.033-0.267-2.05-0.1-3.05l0.35-1.2
		c-0.3-0.066-0.6-0.217-0.9-0.45c-0.633-0.467-1-1.116-1.1-1.95c-0.1-0.833,0.1-1.767,0.6-2.8l0.75-1.35
		C94.616,61.85,94.4,61.667,94.2,61.4c-0.434-0.567-0.617-1.317-0.55-2.25c0.033-0.934,0.316-1.851,0.85-2.75
		c0.267-0.467,0.517-0.833,0.75-1.1c-0.333-0.133-0.667-0.35-1-0.65c-0.667-0.6-1-1.316-1-2.15s0.384-1.617,1.15-2.35
		C94.767,49.783,95.134,49.5,95.5,49.3z"/>
	<path style="fill-rule:evenodd;clip-rule:evenodd;fill:#8AA2A6;" d="M97.6,40.85l21.75-0.9c-1.3,6.466-3.033,12.85-5.199,19.149
		c-4.301,12.601-8.534,18.467-12.7,17.601C97.283,75.833,95.4,69.6,95.8,58c0.101-3.6,0.434-7.55,1-11.85L97.6,40.85z"/>
	<path style="fill-rule:evenodd;clip-rule:evenodd;fill:#CFD9DB;" d="M51.5,29.15c0.567,0.5,0.783,1.517,0.65,3.05
		c-0.066,0.767-0.2,1.483-0.4,2.15l1.25,1c0.8,0.833,1.15,1.75,1.05,2.75c-0.133,1-0.683,1.767-1.65,2.3l-1.45,0.5l0.95,1.45
		c0.6,1.1,0.817,1.983,0.65,2.65c-0.167,0.667-0.75,1.167-1.75,1.5l-1.45,0.25c0.733,1.767,0.783,3.233,0.15,4.4
		c-0.4,0.733-1.233,1.283-2.5,1.65l-1.75,0.35l-0.4,1.8c-0.4,1.233-0.934,1.966-1.6,2.2c-1.067,0.367-2.717,0.15-4.95-0.65
		l-1.5,1.35c-1.133,0.833-2.017,1.133-2.65,0.9c-0.6-0.2-1-0.8-1.2-1.8l-0.1-1.4C31.25,55.183,30,54.333,29.1,53
		c-0.567-0.833-0.8-2.017-0.7-3.55l0.3-2.05c-0.367-0.066-0.733-0.25-1.1-0.55c-0.733-0.6-1.083-1.434-1.05-2.5
		c0.067-1.033,0.45-1.883,1.15-2.55l1-0.65c-0.9-1.6-1.117-2.85-0.65-3.75c0.267-0.533,0.833-1,1.7-1.4
		c0.433-0.2,0.833-0.35,1.2-0.45c-0.4-0.267-0.767-0.6-1.1-1c-0.633-0.833-0.75-1.6-0.35-2.3c0.4-0.733,1.05-1.183,1.95-1.35
		c0.466-0.066,0.883-0.066,1.25,0c-0.067-0.367-0.05-0.733,0.05-1.1c0.233-0.767,0.8-1.2,1.7-1.3c0.867-0.133,1.867,0.117,3,0.75
		c0.566,0.333,1.033,0.667,1.4,1l1.2-1.2c0.934-0.8,1.817-1.25,2.65-1.35c1.167-0.133,2.25,0.233,3.25,1.1
		c0.5,0.434,0.883,0.867,1.15,1.3l1.7-0.9C50.033,28.667,50.933,28.65,51.5,29.15z"/>
	<path style="fill-rule:evenodd;clip-rule:evenodd;fill:#8AA2A6;" d="M50.6,30.85c-0.067,4.267-0.7,8.5-1.9,12.7
		c-2.367,8.4-6.333,12.417-11.9,12.05c-5.566-0.367-7.85-4.367-6.85-12c0.333-2.4,0.966-5.017,1.9-7.85l1.3-3.5L50.6,30.85z"/>
	<polygon style="fill-rule:evenodd;clip-rule:evenodd;fill:#63757B;" points="168.85,30.2 138.9,30.85 140.7,13.65 170.2,17.5 	"/>
	<path style="fill-rule:evenodd;clip-rule:evenodd;fill:#7E8C93;" d="M113.25,14.15c-21.033-0.533-35.333-1.467-42.9-2.8
		C58.25,9.25,40.85,5.467,18.15,0l51.1,5.45c20.167,1.9,39,3.716,56.5,5.45c9.066,0.9,23.884,3.1,44.45,6.6l-27.7-2.95
		C133.5,14.55,123.75,14.417,113.25,14.15z"/>
	<path style="fill-rule:evenodd;clip-rule:evenodd;fill:#54696F;" d="M122.9,14.15c7.566,0.267,14.1,0.4,19.6,0.4
		c-1.5,10.867-2.7,16.3-3.6,16.3c-6.867,0.767-14.117,1.383-21.75,1.85c-15.134,1-26.034,0.85-32.7-0.45
		c-5.867-1.133-10.133-3.3-12.8-6.5c-0.8-0.967-1.417-2-1.85-3.1l-0.35-1.3l-19.5-0.9l-3.2,4.05L0,25.45L18.15,0
		c7.033,1.367,15.1,2.867,24.2,4.5c18.167,3.267,32.35,5.55,42.55,6.85C95.1,12.683,107.767,13.617,122.9,14.15z"/>
	<g>
		<path style="fill-rule:evenodd;clip-rule:evenodd;fill:#485B60;" d="M88.95,29.7c6.267,1.033,16.2,1.55,29.8,1.55
			c6.9,0,13.583-0.117,20.05-0.35c-7.267,0.767-14.666,1.383-22.2,1.85c-14.866,0.933-25.583,0.767-32.149-0.5
			c-5.867-1.133-10.133-3.3-12.8-6.5c-0.8-0.967-1.417-2-1.85-3.1l-0.35-1.3l-19.5-0.9l2.1-2.75l19.45,1.85l0.55,1.25
			c0.567,1,1.367,1.95,2.4,2.85C77.683,26.617,82.517,28.633,88.95,29.7z"/>
	</g>
	<polygon style="fill-rule:evenodd;clip-rule:evenodd;fill:#8AA2A6;" points="56.3,111.4 52.2,56.95 88.95,62.85 75.8,113.25 	"/>
	<polygon style="fill-rule:evenodd;clip-rule:evenodd;fill:#B6C3C5;" points="80.8,66.5 72.65,111.4 59.9,110.05 58.55,62.85 	"/>
	<path style="fill-rule:evenodd;clip-rule:evenodd;fill:#67777B;" d="M100.3,43.8h13.15L111.1,57.45
		c-2.133,9.066-4.517,13.6-7.149,13.6c-2.634,0-4.033-4.533-4.2-13.6L100.3,43.8z"/>
	<path style="fill-rule:evenodd;clip-rule:evenodd;fill:#67777B;" d="M44.05,35.65L43,43.75c-1.3,5.367-3.367,7.95-6.2,7.75
		c-2.867-0.2-3.716-2.817-2.55-7.85l2.55-7.55L44.05,35.65z"/>
	<path style="fill-rule:evenodd;clip-rule:evenodd;fill:#54696F;" d="M73.55,86.45c1.3,0.434,1.65,1.55,1.05,3.35
		c-0.567,1.8-1.533,2.434-2.9,1.9c-1.4-0.601-1.85-1.75-1.35-3.45C70.85,86.517,71.917,85.917,73.55,86.45z"/>
</g>
</svg>
