<?xml version="1.0" encoding="iso-8859-1"?>
<!-- Generator: Adobe Illustrator 15.1.0, SVG Export Plug-In . SVG Version: 6.00 Build 0)  -->
<!DOCTYPE svg PUBLIC "-//W3C//DTD SVG 1.1//EN" "http://www.w3.org/Graphics/SVG/1.1/DTD/svg11.dtd">
<svg version="1.1" id="house_x5F_blue_x5F_background_x5F_01.ai"
	 xmlns="http://www.w3.org/2000/svg" xmlns:xlink="http://www.w3.org/1999/xlink" x="0px" y="0px" width="160px" height="179.2px"
	 viewBox="0 0 160 179.2" style="enable-background:new 0 0 160 179.2;" xml:space="preserve">
<g>
	<linearGradient id="SVGID_1_" gradientUnits="userSpaceOnUse" x1="107.2002" y1="108.7998" x2="149.3496" y2="108.7998">
		<stop  offset="0" style="stop-color:#D5DBDC"/>
		<stop  offset="1" style="stop-color:#DFE4E5"/>
	</linearGradient>
	<polygon style="fill-rule:evenodd;clip-rule:evenodd;fill:url(#SVGID_1_);" points="149.35,53.35 148.3,81.6 141.9,82.15 
		137.1,101.85 140.8,104 126.4,155.2 107.2,168.55 127.5,49.05 	"/>
	<g>
		<polygon style="fill-rule:evenodd;clip-rule:evenodd;fill:#C6CFD1;" points="110.2,159.1 109.85,158.35 127.75,150.4 127.5,151.4 
					"/>
		<polygon style="fill-rule:evenodd;clip-rule:evenodd;fill:#C6CFD1;" points="130.9,139.2 130.65,140.25 113.2,148.7 
			112.85,147.95 		"/>
		<polygon style="fill-rule:evenodd;clip-rule:evenodd;fill:#C6CFD1;" points="134.45,126.65 134.2,127.5 113.9,132.5 
			113.75,131.75 		"/>
		<polygon style="fill-rule:evenodd;clip-rule:evenodd;fill:#C6CFD1;" points="137.4,116.15 137.15,117 116.1,120.7 115.95,119.95 
					"/>
		<path style="fill-rule:evenodd;clip-rule:evenodd;fill:#C6CFD1;" d="M124.05,109.5l-0.05-0.8c0.4,0,5.85-1.017,16.35-3.05
			l-0.25,0.85C130.033,108.5,124.684,109.5,124.05,109.5z"/>
		<polygon style="fill-rule:evenodd;clip-rule:evenodd;fill:#C6CFD1;" points="129.85,84.9 129.8,84.1 141.55,83.6 141.35,84.4 		
			"/>
		<polygon style="fill-rule:evenodd;clip-rule:evenodd;fill:#C6CFD1;" points="127.5,95.3 127.35,94.55 139.25,92.95 139.05,93.8 		
			"/>
		<polygon style="fill-rule:evenodd;clip-rule:evenodd;fill:#C6CFD1;" points="135.1,60 135.15,59.2 149.1,59.95 149.1,60.75 		"/>
		<polygon style="fill-rule:evenodd;clip-rule:evenodd;fill:#C6CFD1;" points="132.65,71.3 132.6,70.5 148.7,70.4 148.7,71.2 		"/>
	</g>
	<polygon style="fill-rule:evenodd;clip-rule:evenodd;fill:#B4C1C3;" points="134.5,63.6 135.75,57.05 149.35,58.95 148.8,63.45 	
		"/>
	<linearGradient id="SVGID_2_" gradientUnits="userSpaceOnUse" x1="13.1499" y1="109.7002" x2="138.25" y2="109.7002">
		<stop  offset="0" style="stop-color:#A1B1B3"/>
		<stop  offset="1" style="stop-color:#C6CFD1"/>
	</linearGradient>
	<polygon style="fill-rule:evenodd;clip-rule:evenodd;fill:url(#SVGID_2_);" points="22.25,89.65 13.15,40.2 138.25,45.95 
		123.6,111.45 117.9,110.95 112.65,139.5 115.2,139.75 107.2,168.55 38.7,179.2 25.6,118.4 29.9,119.45 26.7,90.15 	"/>
	<g>
		<path style="fill-rule:evenodd;clip-rule:evenodd;fill:#9CAFB3;" d="M78.45,150.2l0.15,10.649l17.05-1.149v-0.15l0.8-0.05v0.15
			l10.2-0.95l0.75-10.3L101.8,148.1l-15.55,1L78.45,150.2z M77.45,121.2l0.35,12.45l17.8-1.5l14.45-0.351l0.351-10.45l-8.95,0.95
			L77.45,121.2z M52.2,147.55l-7.75,0.5L44.8,162.4l7-1.9l20.05,0.8l5.95-0.399L77.65,150.3l-6.25,0.851l-0.05-0.051l-10.7-2h-0.8
			v-0.149L52.2,147.55z M60.65,134.4V148.3l10.8,2l14.7-1.95l10.1-0.649l1.15-14.8h-1.75l-20.8,1.8L60.65,134.4z M76.65,121.15
			l-4.85-0.25l-28.75,1.6v10.65l16.8,0.449v-0.1h0.8v0.1l14.2,0.301l2.15-0.15L76.65,121.15z M63.4,110.1L61,109.65l-0.15,11.1
			l10.95-0.65l4.85,0.25l0.8-0.05v0.101l20.8,0.949L99,110.9L63.4,110.1z M51.2,95.1L42.85,95.2l0.15,11l4.65-0.101L60.5,108.7
			l0.55,0.05l-0.05,0.1l2.5,0.5l12.1,0.25L75.25,96.2l-4.4,0.3L51.2,95.1z M42.05,81.2l6,0.55l23,0.15l2.2,0.2l0.35-9.65L42.4,70.8
			L42.05,81.2z M23.2,57.4l-0.15,11.3l38,2.5v-11l-16.8,0.5L23.2,57.4z M111.4,97.5L88.8,95.1l-12.75,1l0.35,13.5l23.85,0.5
			l10.4-0.6L111.4,97.5z M100.6,84.6l-7-0.1L71,82.7l-9.4-0.05l-0.15,12.4l9.4,0.65L88.8,94.35l11.25,1.15L100.6,84.6z M98.85,72.55
			L99,59.85L75.6,59.7l-13.75,0.45v11.1L98.85,72.55z M99.8,59.85l-0.149,12.7l4.399,0.15l28.55-2.15L132.65,71l-0.101,0.35
			l-15.75,1.2l-0.75,11.4l13.65,0.15l-0.2,0.8l-28.1-0.3l-0.551,11L111.8,96.7l15.55-2.15l-0.149,0.8l-15,2.15l-0.75,11.95
			l12.6-0.75v0.75L124,109.5l-24.2,1.4l-0.75,10.5l2.4,0.1l14.55-1.55l0.05,0.75l-4.85,0.55l-0.351,10.55l2.95-0.1l0.05,0.8
			L98.2,132.85l-1.15,14.801l4.75-0.351l11.15,0.601l-0.2,0.8l-4.55-0.25l-0.75,10.149l2.55-0.25v0.15l-0.15,0.65l-13.399,1.3
			l0.25,9.7l-0.8,0.149l-0.25-9.8l-23.8,1.6l-9.25-0.35l-0.15,11.15l13.45,0.5l-4.15,0.649L57.2,173.5l-12,1.2l-0.05,3.5l-0.8,0.1
			l0.05-3.55l-6.5,0.65l-0.15-0.801l19.45-1.85l4.45,0.15l0.15-11.2l-9.95-0.351L35.8,165.7l-0.15-0.8l8.35-2.25L43.65,148.1
			L32.2,148.9L32,148.1l20.25-1.399l7.6,1.45V134.4l-31-0.95L28.7,132.6l13.55,0.551V122.5l-15.85-0.45l-0.15-0.8h0.15l-0.1-2.7
			l0.8,0.2l0.1,2.5l15.65,0.45l17.2-0.95l0.15-11.25l-12.6-2.55l-19.05,0.25l-0.1-0.8l13.75-0.2l-0.15-11l-14.8,0.1l-0.1-0.8
			l14.9-0.1V94.35l0.8-0.05V94.4L51.2,94.3l9.45,0.7l0.15-12.35L48,82.5l-22.95-2l0.1,9.45l-0.8-0.1l-0.1-9.4L20.5,80.1l-0.15-0.8
			l20.9,1.85l0.35-10.4L18.45,69.2l-0.15-0.85l3.95,0.3L22.4,57.3l-6.3-1l-0.15-0.85L43,59.75l-0.55-15l0.8-0.05l0.55,15.15l0.5,0.1
			l31.3-1.05l59.5,0.3V60L99.8,59.85z M116,72.6l-11.95,0.9l-29.65-1l-0.35,9.65l19.601,1.6l21.6,0.2L116,72.6z"/>
	</g>
	<path style="fill-rule:evenodd;clip-rule:evenodd;fill:#CFD9DB;" d="M63.4,94.45c3.667-2.267,7.483-3.316,11.45-3.15
		c6.966,0.367,12.883,3.517,17.75,9.45c4.5,5.467,6.9,11.65,7.2,18.55c0.267,5.434-0.25,15.5-1.55,30.2
		c-0.634,7.333-1.3,14.134-2,20.4l-42-1c-0.633-7.301-1.133-15.25-1.5-23.851c-0.733-17.2-0.433-29.05,0.9-35.55
		C55.05,102.667,58.3,97.65,63.4,94.45z"/>
	<path style="fill-rule:evenodd;clip-rule:evenodd;fill:#CFD9DB;" d="M102.8,65.5l0.601-0.7c0.699-0.466,1.833-0.7,3.399-0.7
		c1.601,0,2.884,0.267,3.851,0.8c0.5,0.267,0.833,0.533,1,0.8l1-0.95c0.833-0.667,1.699-1.083,2.6-1.25
		c0.934-0.167,2.25,0.15,3.95,0.95c0.833,0.4,1.583,0.816,2.25,1.25l1.85-0.45c1.434-0.267,2.684-0.317,3.75-0.15
		c1.101,0.167,1.267,1.217,0.5,3.15c-0.399,0.967-0.899,1.917-1.5,2.85l1.101,0.65c0.699,0.7,0.916,1.75,0.649,3.15
		c-0.233,1.434-0.833,2.867-1.8,4.3l-1.35,1.7l1.199,0.85c0.7,0.867,0.834,2.05,0.4,3.55c-0.667,2.4-1.733,4.733-3.2,7l0.75,2.25
		c0.367,1.733,0.316,3.184-0.149,4.351c-0.5,1.166-1.217,1.85-2.15,2.05l-1.25-0.05c-0.134,0.267-0.35,0.533-0.65,0.8
		c-0.633,0.5-1.416,0.7-2.35,0.6c-0.9-0.066-1.667-0.583-2.3-1.55l-0.7-1.45c-1.066,0.667-2.467,1-4.2,1c-1.066,0-2.1-0.533-3.1-1.6
		L105.8,97.1c-0.366,0.267-0.816,0.5-1.35,0.7c-1.134,0.4-2.2,0.434-3.2,0.101c-1.033-0.334-2.033-1.134-3-2.4l-1.2-1.8
		c-0.566,0.366-1.267,0.649-2.1,0.85c-1.667,0.367-3.167,0.084-4.5-0.85c-1.334-0.9-1.533-2.4-0.601-4.5l1.801-2.9
		c-0.4-0.167-0.801-0.4-1.2-0.7c-0.834-0.633-1.3-1.333-1.4-2.1c-0.1-0.733,0.066-2.017,0.5-3.85l0.7-2.55
		c-0.233-0.1-0.467-0.283-0.7-0.55c-0.434-0.533-0.6-1.216-0.5-2.05c0.101-0.833,0.467-1.617,1.101-2.35
		c0.3-0.367,0.6-0.65,0.899-0.85c-0.434-0.6-0.8-1.25-1.1-1.95c-0.601-1.434-0.566-2.45,0.1-3.05c0.667-0.566,1.467-0.767,2.4-0.6
		c0.467,0.066,0.866,0.2,1.2,0.4l0.85-0.4c0.8-0.3,1.783-0.567,2.95-0.8C98.917,64.633,100.7,64.833,102.8,65.5z"/>
	<polygon style="fill-rule:evenodd;clip-rule:evenodd;fill:#8AA2A6;" points="135.1,59.6 134.5,63.6 56.9,62.8 54.9,51.6 32.1,48.4 
		25.1,57.2 15.5,54.4 15.1,47.8 28.1,39 	"/>
	<path style="fill-rule:evenodd;clip-rule:evenodd;fill:#8AA2A6;" d="M54.75,132.95c0.633-22.9,6.4-34.9,17.3-36
		c11.334-1.101,18.934,3.866,22.8,14.899c2.467,7.101,3.233,15.667,2.301,25.7c-0.733,7.867-1.284,18.2-1.65,31l-38.4-1.6
		C55.233,155.717,54.45,144.384,54.75,132.95z"/>
	<polygon style="fill-rule:evenodd;clip-rule:evenodd;fill:#8AA2A6;" points="92.05,90.95 92.3,68 125.65,67.2 120.05,99.2 	"/>
	<path style="fill-rule:evenodd;clip-rule:evenodd;fill:#54696F;" d="M107.7,24.85c12.467,1.367,23.684,2.5,33.649,3.4l0.551,33.1
		L58.35,60.4l-1.9-10.6l-27.9-3.85l-5.8,7.7L0,50.15L6.95,0c2.466,1.9,6.183,4.033,11.15,6.4c9.933,4.733,21.117,8.3,33.55,10.7
		C64.083,19.5,82.767,22.083,107.7,24.85z"/>
	<path style="fill-rule:evenodd;clip-rule:evenodd;fill:#B6C3C5;" d="M58.15,132.7c0.333-21.834,6.117-33.15,17.35-33.95
		s17.483,10.2,18.75,33c0.634,11.4,0.15,22.866-1.45,34.4l-31.75-1C58.983,154.417,58.017,143.6,58.15,132.7z"/>
	<g>
		<path style="fill-rule:evenodd;clip-rule:evenodd;fill:#CFD9DB;" d="M32.4,60.4c-0.367-1.233-0.35-2.066,0.05-2.5
			c0.433-0.4,1.466-0.717,3.1-0.95c0.8-0.133,1.567-0.217,2.3-0.25c0.2-0.567,0.517-1.15,0.95-1.75
			c0.867-1.233,1.883-1.917,3.05-2.05c2-0.233,3.767,0.467,5.3,2.1c0.767,0.8,1.333,1.633,1.7,2.5l1.45-0.15
			c1.133,0.1,2.117,0.683,2.95,1.75c0.833,1.1,0.983,2.633,0.45,4.6c-0.267,0.966-0.617,1.833-1.05,2.6l1,0.3
			c0.667,0.533,1,1.633,1,3.3c0,2.667-0.467,4.867-1.4,6.6l1.6,1.15c1.033,1.033,1.5,2.25,1.4,3.65c-0.067,1.434-0.583,2.767-1.55,4
			c-0.5,0.6-0.983,1.067-1.45,1.4l0.95,1.15c0.566,1.133,0.716,2.617,0.45,4.45c-0.233,1.834-0.7,3.184-1.4,4.05
			c-0.367,0.434-0.7,0.684-1,0.75l-0.2,2.7c-0.333,1.834-1,2.867-2,3.101c-1,0.267-1.8,0.183-2.4-0.25l-0.6-0.75l-1.15,1.3
			c-1.033,0.866-2.183,1.3-3.45,1.3c-1.233,0-2.133-0.434-2.7-1.3l-0.5-1.3c-0.467,0.3-1.083,0.566-1.85,0.8
			c-1.533,0.467-3.05,0.533-4.55,0.2c-1.5-0.334-2.184-1.5-2.05-3.5l0.65-2.9c-0.367,0.033-0.75-0.033-1.15-0.2
			c-0.8-0.366-1.283-1.1-1.45-2.2c-0.167-1.066,0.017-2.683,0.55-4.85l0.85-2.95c-0.233,0.067-0.483,0.034-0.75-0.1
			c-0.567-0.3-0.983-1-1.25-2.1c-0.233-1.067,0.067-2.483,0.9-4.25l1.3-2.35c-0.434-0.3-0.867-0.683-1.3-1.15
			c-0.867-0.967-1.3-1.917-1.3-2.85c0-0.9,0.5-1.8,1.5-2.7l1.5-1.1c-0.367-0.4-0.684-0.883-0.95-1.45
			c-0.566-1.133-0.65-2.117-0.25-2.95c0.434-0.833,1.133-1.617,2.1-2.35l1.3-0.85C32.783,61.567,32.567,61,32.4,60.4z"/>
		<path style="fill-rule:evenodd;clip-rule:evenodd;fill:#8AA2A6;" d="M32.55,95.5c-0.833-3.967-1.2-8.55-1.1-13.75
			c0.133-6.533,1.15-12.3,3.05-17.3c2-5.267,4.367-7.95,7.1-8.05c7-0.233,10.566,7.067,10.7,21.9
			c0.067,7.434-0.566,14.884-1.9,22.351L33.85,99.85C33.417,98.917,32.983,97.467,32.55,95.5z"/>
		<path style="fill-rule:evenodd;clip-rule:evenodd;fill:#67777B;" d="M36.55,86.95c-1.2-2.8-1.867-6.133-2-10
			c-0.133-4.034,0.4-7.434,1.6-10.2c1.367-3.167,3.383-4.883,6.05-5.15c2.267-0.233,3.933,1.183,5,4.25
			c0.966,2.733,1.316,6.167,1.05,10.3c-0.267,4.067-1.017,7.567-2.25,10.5c-1.333,3.2-2.917,4.8-4.75,4.8S37.85,89.95,36.55,86.95z"
			/>
	</g>
	<polygon style="fill-rule:evenodd;clip-rule:evenodd;fill:#67777B;" points="95.9,71.95 119,71.95 114.2,93.1 95.9,85.4 	"/>
	<path style="fill-rule:evenodd;clip-rule:evenodd;fill:#54696F;" d="M86.8,134.25c2.4-0.533,3.667,0.55,3.8,3.25
		c0.101,2.7-1.05,4.316-3.449,4.85c-2.2,0.5-3.167-0.649-2.9-3.449C84.483,136.1,85.333,134.55,86.8,134.25z"/>
	<polygon style="fill-rule:evenodd;clip-rule:evenodd;fill:#63757B;" points="160,39.45 154.7,60.8 141.9,61.35 141.35,28.25 	"/>
</g>
</svg>
