<?xml version="1.0" encoding="iso-8859-1"?>
<!-- Generator: Adobe Illustrator 15.1.0, SVG Export Plug-In . SVG Version: 6.00 Build 0)  -->
<!DOCTYPE svg PUBLIC "-//W3C//DTD SVG 1.1//EN" "http://www.w3.org/Graphics/SVG/1.1/DTD/svg11.dtd">
<svg version="1.1" id="house_x5F_orange_x5F_front_x5F_02.ai"
	 xmlns="http://www.w3.org/2000/svg" xmlns:xlink="http://www.w3.org/1999/xlink" x="0px" y="0px" width="338.55px"
	 height="236.35px" viewBox="0 0 338.55 236.35" style="enable-background:new 0 0 338.55 236.35;" xml:space="preserve">
<g>
	<polygon style="fill-rule:evenodd;clip-rule:evenodd;fill:#60383E;" points="15.6,67.55 46,21.15 60.4,64.35 	"/>
	
		<linearGradient id="SVGID_1_" gradientUnits="userSpaceOnUse" x1="-90.3457" y1="-118.917" x2="-42.3101" y2="-118.917" gradientTransform="matrix(-0.9993 -0.0385 0.0385 -0.9993 -4.077815e-004 -5.434081e-004)">
		<stop  offset="0" style="stop-color:#CF703E"/>
		<stop  offset="1" style="stop-color:#8F5837"/>
	</linearGradient>
	<path style="fill-rule:evenodd;clip-rule:evenodd;fill:url(#SVGID_1_);" d="M121.2,68.35l-52.8,168l-20.8-8
		c1.066-13.199,2.066-27.533,3-43c1.867-30.933,2.467-52.066,1.8-63.399c-0.667-11.333-2.333-24.6-5-39.8l-3.8-19.4l40.8-55.2
		L121.2,68.35z"/>
	<g>
		<polygon style="fill-rule:evenodd;clip-rule:evenodd;fill:#895E42;" points="76.2,191.15 75.8,192.7 50.55,186.2 50.65,184.55 		
			"/>
		<polygon style="fill-rule:evenodd;clip-rule:evenodd;fill:#895E42;" points="71.1,215.2 70.5,216.7 49.1,208.25 49.2,206.6 		"/>
		<polygon style="fill-rule:evenodd;clip-rule:evenodd;fill:#895E42;" points="78.6,171.55 78.2,173.1 51.65,166.15 51.7,164.5 		
			"/>
		<polygon style="fill-rule:evenodd;clip-rule:evenodd;fill:#895E42;" points="52.45,145.9 52.5,144.3 82.1,147.95 81.9,149.55 		
			"/>
		<polygon style="fill-rule:evenodd;clip-rule:evenodd;fill:#895E42;" points="52.55,126.4 52.5,124.8 84.85,126.35 84.75,127.95 		
			"/>
		<polygon style="fill-rule:evenodd;clip-rule:evenodd;fill:#895E42;" points="50.75,104.35 50.55,102.75 88.5,107.15 88.3,108.75 
					"/>
		<polygon style="fill-rule:evenodd;clip-rule:evenodd;fill:#895E42;" points="91.35,90.35 91.05,91.9 47.5,82.8 47.2,81.1 		"/>
	</g>
	<polygon style="fill-rule:evenodd;clip-rule:evenodd;fill:#955B39;" points="92.4,78.75 46.4,75.55 43.6,62.75 94.4,64.75 	"/>
	
		<linearGradient id="SVGID_2_" gradientUnits="userSpaceOnUse" x1="-297.5894" y1="-132.1841" x2="-67.1838" y2="-132.1841" gradientTransform="matrix(-1 0.0069 -0.0069 -1 -1.424565e-004 4.626862e-004)">
		<stop  offset="0" style="stop-color:#E4B48B"/>
		<stop  offset="1" style="stop-color:#D27948"/>
	</linearGradient>
	<polygon style="fill-rule:evenodd;clip-rule:evenodd;fill:url(#SVGID_2_);" points="101.55,26.8 271.6,37.95 305.2,234.75 
		68.4,236.35 	"/>
	<g>
		<path style="fill-rule:evenodd;clip-rule:evenodd;fill:#BD7B54;" d="M107.2,148.8l45.2,1.55l0.75-17.399L107.6,129.6L107.2,148.8z
			 M160,195.15L125.2,194l0.4,21.15l45.65,1l1.5-22L160,195.15z M103.55,173.45l-0.75,18.25L146,193.1l0.4-18.949L103.55,173.45z
			 M148.75,90.65l-45.65,1l-0.65,14.2l7.5-0.7l38.45,1.35L148.75,90.65z M279.6,195.05l-7.699,0.101l-42.7-4.95l0.399,23.5l34-1.75
			l17.9,1.3L279.6,195.05z M201.6,107.35l24.801,0.2l31.949-1.8L258,88.9l-56.8,1.05L201.6,107.35z M229.6,170.25l10.9-0.7
			l36.3,5.601l4.75-0.601l-2.35-23.35h0.1l-11.75-2.05L230,150.55L229.6,170.25z M202.8,149.95l0.4-0.05V132.8l-47.6,0.351
			l-0.85-0.051l-0.7,17.2L202.8,149.95z M227.6,190.05l-0.8-0.1L174.35,194l-1.5,22.2l6.351,0.149l48.8-2.55L227.6,190.05z
			 M172,173.25l1.1-21.5l-21.899,0.2L124.8,151l0.35,21.15L172,173.25z M199.25,190.5l1.4-16.7l-19.4,1.351L148,174.2l-0.4,18.95
			l12.35,0.399L199.25,190.5z M174.7,151.75L173.6,173.3l7.601,0.25l46.8-3.2l0.4-19.75l-25.601,0.95L174.7,151.75z M202.3,173.7
			l-1.45,16.649l25.95-2h0.101l27.8,3.2l-1.5-18.45l-12.851-1.949L202.3,173.7z M174.8,131.4L174.4,108.8l-47.601-1.45l0.4,22.1
			l28.45,2.1L174.8,131.4z M166.4,107.15l33.6,0.2l-0.4-17.4l-49.25,0.65L150,106.55L166.4,107.15z M216.4,131.15l11.6-0.5
			l-0.4-21.601l-1.149,0.1L176,108.8l0.4,22.601L216.4,131.15z M216.4,132.75L204.8,132.8v17.05l52.4-1.949l0.399-16.851
			L216.4,132.75z M229.2,109l0.399,21.6l45.2-1.85h0.05l6.65,0.4l-3-22.95L229.2,109z M254.4,48.35l1.6-0.05l0.75,20.9l20.2,0.25
			l0.3,1.6l-46.45-0.6l0.75,17.35l48.4-0.9l0.25,1.6L259.6,88.85l0.351,16.8l23-1.3l0.25,1.6l-3.101,0.15l3,23.15l4.101,0.25
			l0.3,1.6l-12.7-0.75L259.2,131l-0.4,16.85l8.95-0.3L291,151.65l0.3,1.649l-10.45-1.85l2.25,22.899l11.551-1.399l0.25,1.6
			l-18.101,2.2l-21.95-3.4l1.45,18.4l15.75,1.8l26.05-0.25l0.301,1.601l-17.15,0.149l1.9,18.3l18.6,1.4l0.3,1.6l-38.45-2.8l-7.6,0.4
			l0.3,21.1l-1.6,0.05l-0.3-21.1l-51.25,2.7l-0.601,18.75h-1.6l0.6-18.7l-22.3,1.2l-34.9-0.9l-0.65,18.8h-1.6l0.65-18.85
			l-42.45-0.25l-0.95,19.4H97.7l1-19.4H71.5l0.25-1.6H98.8V215.1l25.2,0.051l-0.4-21.2l-47.6-1.2v-1.6l25.2,0.5l0.75-18.2
			l-23.55-0.3l0.25-1.601l44.9,0.601l-0.35-21.2l-41.1-1.4l0.25-1.6l23.25,0.8l0.4-19.25L85.55,128l0.25-1.6l39.8,2.949l-0.4-22.05
			l-15.2-0.55l-21.4,1.95l0.25-1.6l12-1.1l0.65-14.3l-10.25,0.25l0.25-1.6l10.1-0.25v-0.2l1.6,0.05v0.1l17.95-0.4l-0.35-17.3
			l1.6-0.05l0.35,17.3L172,88.65l1.2-17.95l1.6,0.1l-1.149,17.8l56.3-0.75l-0.75-17.4l-38-0.5v-1.6l63.95,0.8L254.4,48.35z"/>
	</g>
	<path style="fill-rule:evenodd;clip-rule:evenodd;fill:#B36940;" d="M276.8,61.95l2.8,19.2l-8.899-0.5
		c-3.7-4.9-8.15-9.783-13.351-14.65c-10.399-9.733-19.366-14.483-26.899-14.25c-7.533,0.2-14.283,4.483-20.25,12.85
		c-1.834,2.6-3.5,5.45-5,8.55c-0.733,1.567-1.283,2.867-1.65,3.9c-5,0.934-10.7,1.9-17.1,2.9c-12.8,1.966-22.75,3.066-29.85,3.3
		c-7.1,0.2-19.934-0.483-38.5-2.05l-25.7-2.45l2-14c17.7-4.2,27.067-6.133,28.1-5.8c0.8,0.267,13.3-3.434,37.5-11.1
		c24.566-7.767,41.85-13.533,51.85-17.3c8.601-3.233,22,1.034,40.2,12.8C261.184,49.217,269.434,55.417,276.8,61.95z"/>
	<path style="fill-rule:evenodd;clip-rule:evenodd;fill:#9B535C;" d="M273.5,75.6c-3.467-5.033-7.917-9.967-13.35-14.8
		c-10.834-9.7-21.101-14.066-30.801-13.1c-9.699,0.966-17.633,5.133-23.8,12.5c-1.934,2.3-3.583,4.783-4.95,7.45l-1.449,3.3
		c-2.7,0.767-6.867,1.55-12.5,2.35c-11.233,1.534-24.117,2.3-38.65,2.3s-35.75-1.2-63.65-3.6c-13.967-1.233-26.483-2.45-37.55-3.65
		L57.25,0c19,2.933,39.65,5.75,61.95,8.45c44.566,5.466,75.083,7.716,91.55,6.75c16.467-0.967,35.733-3.583,57.8-7.85
		c11.066-2.133,20.467-4.167,28.2-6.1l41.8,74.35H273.5z"/>
	<g>
		<g>
			<path style="fill-rule:evenodd;clip-rule:evenodd;fill:#7F474F;" d="M271.3,15.6l0.55,1.3c0.2,0.9-0.166,1.483-1.1,1.75
				c-1.233,0.2-1.816-0.183-1.75-1.15c0.182-0.605,0.29-1.03,0.325-1.275c0.001,0.188-0.007,0.48-0.025,0.875
				c0.101,0.733,0.483,1.133,1.15,1.2c0.566,0.034,0.883-0.4,0.95-1.3L271.3,15.6z"/>
		</g>
	</g>
	<path style="fill-rule:evenodd;clip-rule:evenodd;fill:#C1787D;" d="M204.4,19c-13.167,1.167-24.184,1.617-33.051,1.35
		c-14.667-0.467-37.383-2.65-68.149-6.55c-15.367-1.966-29.284-3.883-41.75-5.75l2.15-3.7c13.233,2.033,27.816,4.1,43.75,6.2
		c31.8,4.167,54.367,6.367,67.7,6.6c21.334,0.333,36.8,0.333,46.4,0C216.65,17.783,210.967,18.4,204.4,19z"/>
	<polygon style="fill-rule:evenodd;clip-rule:evenodd;fill:#7F474F;" points="15.6,67.55 0,69.95 57.25,0 46.8,68.35 35.6,67.95 
		42,29.55 	"/>
	<path style="fill-rule:evenodd;clip-rule:evenodd;fill:#F8CC77;" d="M247.35,64.05c2.101,0.667,3.784,2.2,5.051,4.6
		c0.666,1.2,1.1,2.333,1.3,3.4l1.95-0.1c1.6,0.167,3.183,0.917,4.75,2.25c1.533,1.333,2.533,3.25,3,5.75
		c0.233,1.233,0.3,2.333,0.199,3.3l2.101,0.65c1.467,0.9,2.366,2.467,2.7,4.7c0.333,2.233,0.083,4.6-0.75,7.1
		c-0.434,1.233-0.9,2.25-1.4,3.05l2.4-0.25c1.633,0.3,2.616,1.617,2.949,3.95c0.334,2.333-0.449,4.6-2.35,6.8l-3,2.55l1.8,2
		c1.167,1.767,1.634,3.767,1.4,6c-0.233,2.233-1.634,4.417-4.2,6.55l-3.8,2.5l0.7,1.801c0.166,1.6-0.417,3.399-1.75,5.399
		c-1.334,2-3.551,3.233-6.65,3.7l-4.3,0.05L249.1,142c-0.533,1.6-1.566,2.733-3.1,3.4c-1.566,0.666-3.816,0.733-6.75,0.199l-3.9-1
		c0,0.834-0.233,1.733-0.699,2.7c-0.934,1.9-2.584,3.134-4.95,3.7c-2.334,0.566-4.584-0.417-6.75-2.95l-2.55-4
		c-1.434,0.3-3.034,0.417-4.801,0.351c-3.566-0.2-6.233-1.284-8-3.25c-1.899-2.134-2.783-4.417-2.649-6.851l0.75-3.05
		c-0.967-0.6-1.917-1.5-2.851-2.7c-1.866-2.399-2.683-5.05-2.449-7.95c0.199-2.899,1.017-5.366,2.449-7.399
		c0.7-1.034,1.384-1.767,2.051-2.2c-0.801-1.333-1.517-2.9-2.15-4.7c-1.233-3.6-1.4-6.566-0.5-8.9c0.9-2.333,2.15-3.917,3.75-4.75
		c0.8-0.433,1.5-0.633,2.1-0.6c-0.166-0.933-0.233-2.017-0.199-3.25c0.033-2.5,0.55-4.517,1.55-6.05c1-1.567,2.333-2.7,4-3.4
		c0.8-0.367,1.517-0.567,2.149-0.6c-0.133-1.067-0.133-2.3,0-3.7c0.301-2.767,1.184-4.917,2.65-6.45
		c2.134-2.233,4.417-3.083,6.85-2.55c1.2,0.3,2.2,0.8,3,1.5l1.5-2.55c1.434-1.733,3.167-2.75,5.2-3.05
		c1.533-0.233,3.066,0.583,4.601,2.45c0.767,0.934,1.366,1.883,1.8,2.85l1.149-2.2C243.55,63.717,245.217,63.383,247.35,64.05z"/>
	<path style="fill-rule:evenodd;clip-rule:evenodd;fill:#9B535C;" d="M219.4,77.55c5.866-7.633,11.783-11.083,17.75-10.35
		c8.6,1.066,15.449,5.617,20.55,13.65c4.7,7.433,6.934,16,6.7,25.7c-0.233,9.934-3.067,18.167-8.5,24.7
		c-6.067,7.366-14.384,10.983-24.95,10.85c-10.467-0.1-17.634-4.216-21.5-12.35c-3.3-7-3.816-15.817-1.55-26.45
		C210.033,93.333,213.866,84.75,219.4,77.55z"/>
	<path style="fill-rule:evenodd;clip-rule:evenodd;fill:#60383E;" d="M223.1,85.55c4.467-6.2,9.317-9.733,14.551-10.6
		c4.466-0.733,8.466,2.05,12,8.35c3.333,5.967,5.233,13.05,5.699,21.25c0.5,8.733-0.899,15.867-4.199,21.4
		c-3.834,6.434-9.7,9.399-17.601,8.899c-7.967-0.466-13.566-3.699-16.8-9.699c-2.8-5.233-3.483-11.784-2.05-19.65
		C216.066,98.067,218.866,91.417,223.1,85.55z"/>
	<path style="fill-rule:evenodd;clip-rule:evenodd;fill:#F8CC77;" d="M199.6,188.6c-7.8,0.367-13.083-1.1-15.85-4.399
		c-2.267-2.7-2.95-6.834-2.05-12.4c0.767-4.5,3.017-8.267,6.75-11.3c3.166-2.566,6.35-3.95,9.55-4.15
		c5.066-0.366,9.316,1.551,12.75,5.75c2.866,3.5,4.384,7.267,4.55,11.301c0.2,4.733-0.283,8-1.45,9.8
		C211.75,186.434,207,188.233,199.6,188.6z"/>
	<path style="fill-rule:evenodd;clip-rule:evenodd;fill:#9B535C;" d="M196.75,186.5c-6,0-10.017-1.55-12.05-4.65
		c-1.733-2.6-1.884-5.949-0.45-10.05c1.3-3.733,3.45-6.967,6.45-9.7c3.133-2.833,6.05-4.017,8.75-3.55
		c3.866,0.667,7.184,2.517,9.95,5.55c2.633,2.867,4.1,6.017,4.399,9.45c0.3,3.667-0.85,6.65-3.45,8.95
		C207.35,185.167,202.816,186.5,196.75,186.5z"/>
	<path style="fill-rule:evenodd;clip-rule:evenodd;fill:#F8CC77;" d="M188.75,197.65c3.066-3.334,6.417-4.834,10.05-4.5
		c4.267,0.366,7.767,1.966,10.5,4.8c2.267,2.366,3.566,5.033,3.9,8c0.399,4,0.184,7-0.65,9c-1.467,3.533-4.816,5.416-10.05,5.649
		c-5.634,0.267-10.033-0.933-13.2-3.6c-2.8-2.3-4.35-5.366-4.649-9.2C184.384,204.233,185.75,200.85,188.75,197.65z"/>
	<path style="fill-rule:evenodd;clip-rule:evenodd;fill:#9B535C;" d="M206.85,199.55c2.233,2.4,3.584,5.167,4.051,8.3
		c0.466,3.267-0.233,5.9-2.101,7.9c-2.1,2.267-5.383,3.2-9.85,2.8c-4.434-0.399-7.634-1.866-9.601-4.399c-1.699-2.2-2.3-4.867-1.8-8
		c0.467-2.934,1.7-5.467,3.7-7.601c2.134-2.233,4.483-3.283,7.05-3.149C201.533,195.566,204.384,196.95,206.85,199.55z"/>
	<path style="fill-rule:evenodd;clip-rule:evenodd;fill:#60383E;" d="M197.4,184.45c-3.2,0.166-5.584-0.834-7.15-3
		c-1.434-1.934-1.967-4.384-1.6-7.351c0.333-2.933,1.433-5.466,3.3-7.6c2.033-2.366,4.533-3.65,7.5-3.85
		c2.6-0.167,4.666,0.833,6.2,3c1.399,2,2.066,4.466,2,7.399c-0.101,2.967-0.983,5.5-2.65,7.601
		C203.134,183.017,200.6,184.283,197.4,184.45z"/>
	<path style="fill-rule:evenodd;clip-rule:evenodd;fill:#60383E;" d="M205.2,200.8c1.666,1.601,2.649,3.55,2.95,5.851
		c0.267,2.333-0.301,4.267-1.7,5.8c-1.566,1.733-3.95,2.517-7.15,2.35c-3.166-0.166-5.467-1.1-6.899-2.8
		c-1.267-1.434-1.733-3.25-1.4-5.45c0.3-2.033,1.167-3.85,2.6-5.45c1.5-1.633,3.167-2.517,5-2.649
		C201.167,198.283,203.366,199.066,205.2,200.8z"/>
	<path style="fill-rule:evenodd;clip-rule:evenodd;fill:#C1787D;" d="M244.65,80.85L247,85.7c1.733,3.7,3,6.716,3.8,9.05
		c0.9,2.7,1.101,6.133,0.601,10.3c-0.5,4.067-1.233,5.967-2.2,5.7c-0.667-0.2-0.9-1.833-0.7-4.9c0.333-4.567,0.384-8,0.15-10.3
		c-0.334-3.233-1.101-6.65-2.301-10.25L244.65,80.85z"/>
	<path style="fill-rule:evenodd;clip-rule:evenodd;fill:#C1787D;" d="M202.5,166.2c2,0.233,3.1,2.149,3.3,5.75
		c0.167,3.467-0.217,5.366-1.149,5.7c-0.567,0.233-0.834-0.034-0.801-0.801c0-0.333,0.184-1.483,0.551-3.449
		c0.199-1.101-0.2-2.684-1.2-4.75C202.434,166.983,202.2,166.167,202.5,166.2z"/>
	<path style="fill-rule:evenodd;clip-rule:evenodd;fill:#C1787D;" d="M203.05,201.65c2.101,0.233,3.367,1.566,3.8,4
		c0.4,2.3,0.2,3.55-0.6,3.75c-0.4,0.1-0.6-0.267-0.6-1.101c0-1.366-0.067-2.333-0.2-2.899c-0.233-0.9-0.7-1.801-1.4-2.7
		L203.05,201.65z"/>
	<g>
		<g>
			<path style="fill-rule:evenodd;clip-rule:evenodd;fill:#7F474F;" d="M82.625,32.225c-0.015,0.309,0.027,1.101,0.125,2.375
				c-0.267,1.633-1.467,2.117-3.6,1.45c-1.633-0.833-2-1.95-1.1-3.35c1.167-1.267,1.733-1.9,1.7-1.9c0.033,0-0.283,0.517-0.95,1.55
				c-0.5,1.2-0.383,2.167,0.35,2.9C80.695,36.5,81.854,35.491,82.625,32.225z"/>
		</g>
	</g>
	<g>
		<g>
			<path style="fill-rule:evenodd;clip-rule:evenodd;fill:#7F474F;" d="M95.7,60.4c0.21-0.562,0.344-0.97,0.4-1.225l0.05,1.275
				c0.067,1.4-0.017,2.6-0.25,3.6c-0.867,3.367-3.383,4.35-7.55,2.95c-3.633-1.967-4.4-4.367-2.3-7.2
				c2.202-1.936,3.46-3.12,3.775-3.55c-0.208,0.382-0.899,1.365-2.075,2.95c-1.233,2.433-1.05,4.483,0.55,6.15
				c2.067,1.667,4.017,1.066,5.85-1.8C94.75,62.617,95.267,61.567,95.7,60.4z"/>
		</g>
	</g>
	<g>
		<g>
			<path style="fill-rule:evenodd;clip-rule:evenodd;fill:#7F474F;" d="M285.825,14.5c0.021,0.626,0.012,1.66-0.025,3.1
				c0.4,2.667,1.783,4.15,4.15,4.45c2.6,0.034,3.733-1.633,3.399-5c-0.734-2.909-1.168-4.509-1.3-4.8l1,1.2
				c0.9,1.033,1.566,2.017,2,2.95c1.367,3.133,0.017,5.45-4.05,6.95c-4.366,0.6-6.45-0.85-6.25-4.35
				C285.363,16.813,285.722,15.313,285.825,14.5z"/>
		</g>
	</g>
	<g>
		<g>
			<path style="fill-rule:evenodd;clip-rule:evenodd;fill:#7F474F;" d="M202.7,33.25c0.154-0.873,0.245-1.506,0.274-1.9
				c0.083,0.391,0.225,1.024,0.426,1.9c0.5,2.133,0.699,3.967,0.6,5.5c-0.366,5.233-4,7.283-10.9,6.15
				c-3.699-1.267-5.783-3.066-6.25-5.4c-0.366-1.8,0.217-3.583,1.75-5.35c1.667-2.066,3.483-4.05,5.45-5.95
				c0.233,0.033-0.783,1.683-3.05,4.95c-1.767,3.8-1.2,6.883,1.7,9.25c3.633,2.1,6.467,0.767,8.5-4
				C201.866,36.867,202.366,35.15,202.7,33.25z"/>
		</g>
	</g>
	<g>
		<g>
			<path style="fill-rule:evenodd;clip-rule:evenodd;fill:#7F474F;" d="M309.6,58.125c-0.073,0.272-0.24,0.797-0.5,1.575
				c-0.199,1.3,0.184,2.216,1.15,2.75c1.033,0.466,1.85-0.05,2.45-1.55l0.649-2.45l0.2,2.55c-0.2,1.633-1.217,2.367-3.05,2.2
				c-1.967-0.333-2.667-1.317-2.1-2.95C309.06,59.166,309.46,58.458,309.6,58.125z"/>
		</g>
	</g>
	<g>
		<g>
			<path style="fill-rule:evenodd;clip-rule:evenodd;fill:#7F474F;" d="M282.05,53.5c0.1-1.265,0.3-1.898,0.601-1.9
				c-0.134,0.003-0.2,0.47-0.2,1.4c0.033,1.033,0.35,1.733,0.95,2.1c1.166,0.6,1.966-0.383,2.399-2.95l0.15,1.95
				c-0.134,1.267-0.934,1.8-2.4,1.6C282.417,55.5,281.917,54.767,282.05,53.5z"/>
		</g>
	</g>
	<g>
		<g>
			<path style="fill-rule:evenodd;clip-rule:evenodd;fill:#7F474F;" d="M163.15,64.65c0.932-3.319,1.432-5.177,1.5-5.575
				c0.021,0.207,0.12,0.798,0.3,1.775c0.267,1.533,0.333,2.883,0.2,4.05c-0.5,3.934-3.083,5.55-7.75,4.85
				c-4.566-1.433-5.95-3.95-4.15-7.55c0.5-1.034,1.3-2.217,2.4-3.55c0.68-0.816,1.046-1.299,1.1-1.45
				c-0.042,0.27-0.625,1.603-1.75,4c-0.867,2.966-0.2,5.2,2,6.7C159.533,69.267,161.583,68.183,163.15,64.65z"/>
		</g>
	</g>
	<g>
		<g>
			<path style="fill-rule:evenodd;clip-rule:evenodd;fill:#7F474F;" d="M98,24.25c0.66-1.084,1.06-1.792,1.2-2.125
				c-0.074,0.272-0.241,0.797-0.5,1.575c-0.2,1.3,0.183,2.216,1.15,2.75c1.033,0.466,1.85-0.05,2.45-1.55l0.65-2.45l0.2,2.55
				c-0.2,1.633-1.217,2.367-3.05,2.2C98.133,26.867,97.433,25.883,98,24.25z"/>
		</g>
	</g>
	<g>
		<g>
			<path style="fill-rule:evenodd;clip-rule:evenodd;fill:#7F474F;" d="M110.925,37.675c-0.146,0.278-0.455,0.819-0.925,1.625
				c-0.533,1.367-0.317,2.45,0.65,3.25c1,0.733,2.017,0.333,3.05-1.2c0.5-0.767,0.9-1.6,1.2-2.5l-0.3,2.8
				c-0.6,1.767-1.883,2.367-3.85,1.8c-2.1-0.833-2.65-2.083-1.65-3.75C110.082,38.671,110.69,37.997,110.925,37.675z"/>
		</g>
	</g>
	<g>
		<g>
			<path style="fill-rule:evenodd;clip-rule:evenodd;fill:#7F474F;" d="M67.35,51.5c-0.116,0.235-0.416,0.751-0.9,1.55
				c-0.5,1.267-0.317,2.3,0.55,3.1c0.933,0.7,1.883,0.35,2.85-1.05c0.5-0.7,0.883-1.483,1.15-2.35l-0.3,2.65
				c-0.534,1.633-1.733,2.167-3.6,1.6c-1.9-0.833-2.383-2.017-1.45-3.55C66.603,52.422,67.169,51.772,67.35,51.5z"/>
		</g>
	</g>
	<g>
		<g>
			<path style="fill-rule:evenodd;clip-rule:evenodd;fill:#7F474F;" d="M67.3,17.5c0.034,0.033-0.216,0.367-0.75,1
				c-0.4,0.767-0.35,1.433,0.15,2c1.072,0.877,1.855,0.235,2.35-1.925c0,0.245,0.034,0.753,0.1,1.525c-0.167,1.1-1,1.417-2.5,0.95
				c-1.133-0.7-1.35-1.483-0.65-2.35C66.367,18.233,66.8,17.833,67.3,17.5z"/>
		</g>
	</g>
	<g>
		<g>
			<path style="fill-rule:evenodd;clip-rule:evenodd;fill:#7F474F;" d="M59.85,38.85c-1.367,0.933-1.567,2.117-0.6,3.55
				c1.7,1.2,2.917,0.867,3.65-1c0.234-1.21,0.384-2.052,0.45-2.525c0.091,0.486,0.325,1.361,0.7,2.625
				c0.034,2.033-1.566,2.683-4.8,1.95c-1.633-1.2-2.3-2.317-2-3.35c0.233-0.833,0.783-1.3,1.65-1.4c0.667-0.167,1.35-0.367,2.05-0.6
				c0.13-0.043,0.247-0.085,0.35-0.125C60.824,38.214,60.341,38.506,59.85,38.85z"/>
		</g>
	</g>
	<g>
		<g>
			<path style="fill-rule:evenodd;clip-rule:evenodd;fill:#7F474F;" d="M130.9,63.4c-0.192,0.406-0.526,1.04-1,1.9
				c-0.6,1.8-0.15,3.15,1.35,4.05c1.967,0.667,3.15-0.167,3.55-2.5c0.022-1.582,0.022-2.632,0-3.15c0.172,0.502,0.605,1.502,1.3,3
				c0.433,2.367-1.05,3.617-4.45,3.75c-3.167-0.934-4.117-2.467-2.85-4.6C129.865,64.706,130.565,63.89,130.9,63.4z"/>
		</g>
	</g>
	<g>
		<g>
			<path style="fill-rule:evenodd;clip-rule:evenodd;fill:#7F474F;" d="M87.15,14.55c-0.033,0.7-0.167,1.35-0.4,1.95
				c-0.533,1.233-1.433,1.683-2.7,1.35c-1.667-0.7-2.083-1.617-1.25-2.75c0.612-0.522,1.038-0.914,1.275-1.175
				c-0.14,0.217-0.348,0.525-0.625,0.925c-0.434,0.967-0.267,1.75,0.5,2.35c0.7,0.466,1.417,0.167,2.15-0.9
				C86.5,15.767,86.85,15.183,87.15,14.55z"/>
		</g>
	</g>
	<g>
		<g>
			<path style="fill-rule:evenodd;clip-rule:evenodd;fill:#7F474F;" d="M126.55,22.2l-0.2,2.4c0.1,1.7,0.783,2.8,2.05,3.3
				c1.367,0.434,2.333-0.383,2.9-2.45c0.198-1.805,0.297-2.847,0.3-3.125c0.054,0.278,0.32,1.32,0.8,3.125
				c0.1,2.167-1.1,3.3-3.6,3.4c-2.333-0.067-3.4-1.2-3.2-3.4C126.182,23.531,126.499,22.447,126.55,22.2z"/>
		</g>
	</g>
	<g>
		<g>
			<path style="fill-rule:evenodd;clip-rule:evenodd;fill:#7F474F;" d="M184.45,51.675c0.052,0.275,0.302,1.267,0.75,2.975
				c0.066,2.033-1.134,3.083-3.601,3.15c-2.433-0.333-3.366-1.517-2.8-3.55c0.785-1.469,1.235-2.386,1.351-2.75
				c-0.06,0.301-0.242,0.984-0.551,2.05c-0.166,1.6,0.384,2.7,1.65,3.3c1.4,0.467,2.366-0.283,2.9-2.25
				C184.346,52.922,184.445,51.947,184.45,51.675z"/>
		</g>
	</g>
	<g>
		<g>
			<path style="fill-rule:evenodd;clip-rule:evenodd;fill:#7F474F;" d="M221.45,23.6l0.25,2.2c0.366,1.5,1.133,2.367,2.3,2.6
				s1.917-0.6,2.25-2.5l0.15-2.9l0.8,2.8c0.133,1.934-0.783,3.05-2.75,3.35c-1.967,0.3-3.05-0.533-3.25-2.5L221.45,23.6z"/>
		</g>
	</g>
	<g>
		<g>
			<path style="fill-rule:evenodd;clip-rule:evenodd;fill:#7F474F;" d="M232.525,37.3c-0.064,0.285-0.173,0.701-0.325,1.25
				c-0.101,1.267,0.416,2.067,1.55,2.4c1.3,0.133,1.95-0.583,1.95-2.15c-0.193-1.137-0.327-1.854-0.4-2.15
				c0.146,0.273,0.546,0.907,1.2,1.9c0.533,1.534-0.233,2.567-2.3,3.1c-2.233-0.133-3.101-0.983-2.601-2.55
				C232.066,38.274,232.375,37.675,232.525,37.3z"/>
		</g>
	</g>
	<g>
		<g>
			<path style="fill-rule:evenodd;clip-rule:evenodd;fill:#7F474F;" d="M116.65,52.15l-0.15,1.6c0.033,1.1,0.45,1.817,1.25,2.15
				c0.8,0.333,1.45-0.133,1.95-1.4l0.5-2.05l0.15,2.1c-0.167,1.4-0.967,2.05-2.4,1.95c-1.434-0.067-2.083-0.817-1.95-2.25
				L116.65,52.15z"/>
		</g>
	</g>
	<g>
		<g>
			<path style="fill-rule:evenodd;clip-rule:evenodd;fill:#7F474F;" d="M280.1,63.6c-0.055,0.403-0.204,1.137-0.449,2.2
				c-0.067,1.867,0.666,3.067,2.199,3.6c1.767,0.367,2.767-0.6,3-2.9c-0.05-1.764-0.091-2.864-0.125-3.3
				c0.135,0.419,0.576,1.452,1.325,3.1c0.467,2.3-0.75,3.667-3.649,4.1c-3-0.167-4.217-1.417-3.65-3.75
				C279.503,65.122,279.953,64.105,280.1,63.6z"/>
		</g>
	</g>
	<g>
		<g>
			<path style="fill-rule:evenodd;clip-rule:evenodd;fill:#7F474F;" d="M268.75,48.35l-0.1,0.85c0.033,0.6,0.267,1,0.699,1.2
				c0.667,0.267,1.117-0.367,1.351-1.9l0.1,1.15c-0.1,0.733-0.55,1.083-1.35,1.05c-0.767-0.034-1.117-0.434-1.05-1.2L268.75,48.35z"
				/>
		</g>
	</g>
	<g>
		<g>
			<path style="fill-rule:evenodd;clip-rule:evenodd;fill:#7F474F;" d="M297.9,33.75c0.012,0.585-0.021,1.618-0.101,3.1
				c0.3,2.6,1.617,4.066,3.95,4.4c2.7-0.067,3.8-1.717,3.3-4.95c-0.133-1.033-0.434-2.117-0.899-3.25
				c-0.178-0.459-0.319-0.801-0.426-1.025c0.169,0.187,0.428,0.462,0.775,0.825c0.967,0.967,1.684,1.883,2.15,2.75
				c1.533,2.933,0.25,5.233-3.851,6.9c-4.267,0.533-6.283-0.9-6.05-4.3C297.417,35.985,297.8,34.501,297.9,33.75z"/>
		</g>
	</g>
	<g>
		<g>
			<path style="fill-rule:evenodd;clip-rule:evenodd;fill:#7F474F;" d="M327.05,71.25c-1,0.333-1.616,0.017-1.85-0.95
				c-0.024-0.74-0.049-1.215-0.075-1.425l0.225,0.975c0.301,0.7,0.767,1.05,1.4,1.05c0.634-0.033,0.9-0.517,0.8-1.45l-0.3-1.45
				l0.8,1.25C328.35,70.183,328.017,70.85,327.05,71.25z"/>
		</g>
	</g>
	<g>
		<g>
			<path style="fill-rule:evenodd;clip-rule:evenodd;fill:#7F474F;" d="M278.875,34.125c0.017,0.312,0.025,0.804,0.025,1.475
				c0.199,1.3,0.866,2,2,2.1c1.199-0.034,1.733-0.85,1.6-2.45l-0.5-2.375c0.059,0.127,0.492,0.818,1.3,2.075
				c0.533,1.533-0.083,2.633-1.85,3.3c-2.167,0.367-3.2-0.283-3.101-1.95C278.65,35.26,278.825,34.535,278.875,34.125z"/>
		</g>
	</g>
	<g>
		<g>
			<path style="fill-rule:evenodd;clip-rule:evenodd;fill:#7F474F;" d="M215.1,40.2c-0.133,0.066,0.084,0.533,0.65,1.4
				c0.6,0.9,1.267,1.367,2,1.4c1.167,0.067,1.517-1.267,1.05-4c0.033,0,0.3,0.633,0.8,1.9c0.267,1.367-0.233,2.233-1.5,2.6
				c-1.033,0.4-1.866-0.017-2.5-1.25C214.967,41.05,214.8,40.367,215.1,40.2z"/>
		</g>
	</g>
	<g>
		<g>
			<path style="fill-rule:evenodd;clip-rule:evenodd;fill:#7F474F;" d="M189.475,63.5c-0.066,0.067,0.025,0.35,0.275,0.85
				c0.233,0.533,0.55,0.85,0.95,0.95c0.566,0.2,0.95-0.466,1.149-2c0.367,1.534,0.034,2.3-1,2.3c-0.566,0.133-0.983-0.167-1.25-0.9
				C189.341,64.02,189.3,63.62,189.475,63.5z"/>
		</g>
	</g>
	<g>
		<g>
			<path style="fill-rule:evenodd;clip-rule:evenodd;fill:#7F474F;" d="M256.35,48.1c0.034,0,0.017,0.35-0.05,1.05
				c0.033,0.7,0.334,1.15,0.9,1.35c1.122,0.165,1.447-0.635,0.975-2.4c0.056,0.135,0.28,0.519,0.675,1.15
				c0.267,0.867-0.216,1.417-1.449,1.65c-1-0.033-1.467-0.5-1.4-1.4C256.267,48.567,256.384,48.1,256.35,48.1z"/>
		</g>
	</g>
</g>
</svg>
