<?xml version="1.0" encoding="iso-8859-1"?>
<!-- Generator: Adobe Illustrator 15.1.0, SVG Export Plug-In . SVG Version: 6.00 Build 0)  -->
<!DOCTYPE svg PUBLIC "-//W3C//DTD SVG 1.1//EN" "http://www.w3.org/Graphics/SVG/1.1/DTD/svg11.dtd">
<svg version="1.1" id="house_x5F_red_x5F_mid_x5F_02.ai"
	 xmlns="http://www.w3.org/2000/svg" xmlns:xlink="http://www.w3.org/1999/xlink" x="0px" y="0px" width="293px" height="208.85px"
	 viewBox="0 0 293 208.85" style="enable-background:new 0 0 293 208.85;" xml:space="preserve">
<g>
	
		<linearGradient id="SVGID_1_" gradientUnits="userSpaceOnUse" x1="168.1953" y1="119.0068" x2="226.9998" y2="119.0068" gradientTransform="matrix(0.9999 -0.0123 0.0123 0.9999 2.374053e-004 -8.700602e-005)">
		<stop  offset="0" style="stop-color:#C5988D"/>
		<stop  offset="1" style="stop-color:#D2B3AA"/>
	</linearGradient>
	<path style="fill-rule:evenodd;clip-rule:evenodd;fill:url(#SVGID_1_);" d="M249.7,59.1c-18.733,27-30.917,48.933-36.55,65.8
		c-5.634,16.866-9.567,34.116-11.801,51.75c-1.133,8.8-1.699,15.916-1.699,21.35l-27.15,10.85
		c-5.233-5.166-9.75-11.899-13.55-20.199c-7.667-16.534-7.983-32.534-0.95-48c7.033-15.467,21.333-37.934,42.9-67.4
		c10.8-14.7,20.883-27.867,30.25-39.5l45-10.1C267.917,33.783,259.1,45.6,249.7,59.1z"/>
	<polygon style="fill-rule:evenodd;clip-rule:evenodd;fill:#BD877C;" points="265,36.6 258.5,46.35 232.15,52.35 236.5,44.85 	"/>
	<g>
		<polygon style="fill-rule:evenodd;clip-rule:evenodd;fill:#BD877C;" points="171.85,182.4 171.65,181.3 201.45,175.85 201.3,177 
			194.65,178.25 195.15,188.1 200.3,186.3 200.2,187.55 171.7,197.4 171.35,196.35 194.05,188.5 193.55,178.45 		"/>
		<polygon style="fill-rule:evenodd;clip-rule:evenodd;fill:#BD877C;" points="265.1,37.85 263.95,39.35 234.9,47.75 234.6,46.7 		
			"/>
		<polygon style="fill-rule:evenodd;clip-rule:evenodd;fill:#BD877C;" points="176,159.55 175.8,158.4 205.35,153.3 205.1,154.5 
			195.7,156.1 195.05,168.35 202.75,167 202.55,168.15 173.35,173.4 173.15,172.3 193.9,168.55 194.6,156.3 		"/>
		<polygon style="fill-rule:evenodd;clip-rule:evenodd;fill:#BD877C;" points="253.25,54.05 252.15,55.6 238.1,60.15 232.45,78.25 
			237.65,77.2 236.8,78.5 211.6,83.75 211.4,82.65 231.2,78.55 236.8,60.6 223.3,65 222.95,63.95 237.2,59.3 237.2,59.25 
			237.25,59.25 		"/>
		<polygon style="fill-rule:evenodd;clip-rule:evenodd;fill:#BD877C;" points="229.35,90.8 228.55,92.2 220.65,94.6 213.6,112.55 
			218.35,111.85 217.8,113.1 192.45,116.8 192.3,115.65 212.35,112.75 219.3,95 200.8,100.65 200.45,99.55 		"/>
		<polygon style="fill-rule:evenodd;clip-rule:evenodd;fill:#BD877C;" points="213.5,123.8 213.15,124.9 213.1,124.95 204.1,126.15 
			201.55,141.9 208.4,140.75 208.05,141.95 201.4,143.1 201.3,143.1 179.75,146.8 179.55,145.65 200.4,142.1 202.9,126.3 
			186.45,128.4 186.3,127.3 		"/>
	</g>
	<polygon style="fill-rule:evenodd;clip-rule:evenodd;fill:#C28E86;" points="53.65,127.1 37.5,121.1 57,115.1 63.4,117.35 	"/>
	<polygon style="fill-rule:evenodd;clip-rule:evenodd;fill:#C28E86;" points="53.25,183.35 70.15,174.7 75.4,185.6 54.75,189.35 	
		"/>
	<linearGradient id="SVGID_2_" gradientUnits="userSpaceOnUse" x1="19.5" y1="120.3496" x2="247.5" y2="120.3496">
		<stop  offset="0" style="stop-color:#A8655C"/>
		<stop  offset="1" style="stop-color:#C08E82"/>
	</linearGradient>
	<path style="fill-rule:evenodd;clip-rule:evenodd;fill:url(#SVGID_2_);" d="M192.75,37.85c1.033,0,2.15-0.283,3.35-0.85l51.4-5.15
		c-9.5,12-19.5,25.883-30,41.65c-21,31.5-34,56.616-39,75.35c-5,18.767-7.5,34.4-7.5,46.9c0,6.233,0.5,10.6,1.5,13.1L47.25,208.1
		l6-24.75l5.25-0.75l3-28.5l-9.75-0.75L37.5,121.1l7.5-0.75l-6-31.5L26.45,87.3L19.5,46.85c4.167,0.4,9.55,0.25,16.15-0.45
		c13.2-1.433,25.85-4.917,37.95-10.45c21.1,3.566,40.717,5.6,58.85,6.1C153.316,42.617,173.417,41.217,192.75,37.85z"/>
	<linearGradient id="SVGID_3_" gradientUnits="userSpaceOnUse" x1="19.5" y1="120.3496" x2="247.5" y2="120.3496">
		<stop  offset="0" style="stop-color:#A8655C"/>
		<stop  offset="1" style="stop-color:#C08E82"/>
	</linearGradient>
	<path style="fill-rule:evenodd;clip-rule:evenodd;fill:url(#SVGID_3_);" d="M192.75,37.85c1.033,0,2.15-0.283,3.35-0.85l51.4-5.15
		c-9.5,12-19.5,25.883-30,41.65c-21,31.5-34,56.616-39,75.35c-5,18.767-7.5,34.4-7.5,46.9c0,6.233,0.5,10.6,1.5,13.1L47.25,208.1
		l6-24.75l5.25-0.75l3-28.5l-9.75-0.75L37.5,121.1l7.5-0.75l-6-31.5L26.45,87.3L19.5,46.85c4.167,0.4,9.55,0.25,16.15-0.45
		c13.2-1.433,25.85-4.917,37.95-10.45c21.1,3.566,40.717,5.6,58.85,6.1C153.316,42.617,173.417,41.217,192.75,37.85z"/>
	<g>
		<path style="fill-rule:evenodd;clip-rule:evenodd;fill:#9E5E56;" d="M107.6,181.7l-0.5,12.85l38.05,1.05l-0.2-11.75L107.6,181.7z
			 M89.5,180.95l10.95-0.8l25.4,1.5l0.65-9l-17.75-3l-18.6,1.75L89.5,180.95z M108.8,168.55h0.05l24.7,4.101l11.5,0.3l-1.35-14.2
			l-12.05-1.1l-5.65,0.6v0.2l-1.1-0.05v-0.051l-17.85,1.851v8.5L108.8,168.55z M106.15,112.75l0.5-13.65L90,98.4l-20.45,0.4
			L69.4,109.9L106.15,112.75z M129,127.2l-1.05-11.851l-40.15-3l0.5,14.45l29.5-1L129,127.2z M145.75,142.75l1.35-14.1l-11.8,0.5
			l-17.55-2.25l-12.15,0.449l0.85,13.351l16.2,2.35L145.75,142.75z M125.6,144.15h-3.05l-20.55-3l-11.05,1.199l0.35,15.95
			l11.45,1.25l22.2-2.3L125.6,144.15z M148.5,113.45l0.55-13.4l-12.55,0.25l-28.7-1.15l-0.55,13.65l25.15,1.75L148.5,113.45z
			 M72.2,181.5v12.1l33.75,0.9l0.55-12.85l-6.05-0.351l-20.95,1.5h-0.1L72.2,181.5z M72.8,158.8l0.3,9.45l15.4,2.15l17.45-1.601
			v-8.45l-3.2,0.301h-0.05L85.05,158.8H72.8z M51.45,110.5l1.4,13.6l32.7,2.801l1.65-0.051l-0.55-14.6l-12.8-1.1L51.45,110.5z
			 M69.05,126.65l0.7,14.05l11.65,1.6l20.6-2.25l3.35,0.45l-0.85-13.15l-18.95,0.7L69.05,126.65z M31.7,67.5l-0.2,12.6l36.55,1.45
			v-11.7L31.7,67.5z M107.65,79.65L108,67.6l-38.8,2.3v11.7l8.45,0.3L107.65,79.65z M87.55,97.35l-1.05-15l-8.85,0.7L51,82
			l0.2,16.05L87.55,97.35z M87.6,82.3l1.05,15l41.9,1.6l0.65-16l-23.55-2.1L87.6,82.3z M86.05,67.75l1.05-13.7L61.15,55.3L49.7,54.8
			l0.35,12.75l19,1.25L86.05,67.75z M88.25,54L87.2,67.7l25.7-1.55l22.85,1.75L135.2,54l-26.85-0.95L88.25,54z M112.9,67.3l-3.8,0.2
			l-0.35,12.25L150,83.4l1.35-0.1l0.351-13.05L112.9,67.3z M165.2,158.65l0.55-13.551l-10.95-1.3l-28.1,0.3l-0.65,13l5.6-0.55h0.05
			l25.5,2.25L165.2,158.65z M162.4,182.2l0.149-8.45l-14.8,0.4L133.4,173.8l-5.75-1l-0.65,8.9l25.6,1.45L162.4,182.2z M166.2,126.65
			l0.8-12.2l-6.9-0.65l-27.75,1.851l-3.3-0.2l1.1,11.8l-0.6,0.05l5.85,0.75L166.2,126.65z M183.95,114.85l-0.2-15.1l-33.6,0.3
			l-0.5,13.3l10.55-0.699L183.95,114.85z M173.95,81.55l11.899,0.35l0.551-14.15L152.8,70.2l-0.35,13L173.95,81.55z M170.1,98.55
			l0.7-15.65L150,84.55h-0.05L132.35,83l-0.7,15.95l4.9,0.2L170.1,98.55z M171.2,98.55l8.05-0.15L199,99.45l1.35-16L174,82.65
			l-2.1,0.15L171.2,98.55z M172.3,55l-1.1,12.75l31.149-2.3l1.7-14.1L172.3,55z M170.05,67.8l1.101-12.65l-1.25,0.15l-33.55-1.25
			l0.5,13.95l15.05,1.15l18.3-1.35H170.05z M234.7,46.65l0.1,1.15l-29.6,3.4l-1.7,14.15l19.6-1.45l0.051,1.15L187.35,67.7h0.15
			l-0.55,14.25l24.55,0.7l-0.7,1.1l-9.3-0.25l-1.4,16l0.551,0.05l-0.051,0.85l-0.1,0.25l-15.6-0.8L185.05,115l7.15,0.65l-0.55,1.05
			l-23.5-2.15L167.3,126.6l1.45-0.05l17.65,0.75v0.25L186,128.4l-17.25-0.75l-20.5,0.949l-1.35,14.15l8-0.1l24.55,3l-0.351,1.1
			l-12.25-1.5l-0.5,13.35l9.5-0.199l0.051,1l-0.051,0.149L157.15,159.9L144.8,158.85l1.4,14.15l27.05-0.7v0.25l-0.15,0.851
			l-9.399,0.3l-0.2,8.399l8.2-0.8l0.1,1.101L152.65,184.3H152.6l-6.55-0.399l0.2,11.699l24.75,0.7v1.101l-12.2-0.301l-0.3,11.65
			h-1.15l0.301-11.7l-29.75-0.8l0.25,12.35H127l-0.25-12.399l-38.05-1.05l-0.35,13.199h-1.1l0.3-13.25l-31.15-0.85l-0.8,13.9h-1.1
			l0.8-13.9l-4.65-0.15l0.25-1.1l20.15,0.55V181.3l-12.2-2.149L59,178l20.55,3.65l8.8-0.601l0.7-9.55l-0.55,0.05h-0.05L60.1,167.6
			l0.1-1.149L72,168.1l-0.35-9.3H61l0.15-1.149h24l5.05,0.55l-0.35-15.7l-8.5,0.9H81.3L55.8,140l2.85,13.9l-1.2-0.101l-2.85-13.95
			l-9.35-1.3l-0.55-1.2l10.2,1.4l0.6-0.15l0.05,0.2l13.05,1.75l-0.65-14l-29.15-2.5l-0.5-1.2L51.75,124l-1.4-13.55l-7.25-0.2
			l-0.25-1.15l25.4,0.75l0.2-11L41,99.4l-0.2-1.15l9.25-0.15L49.9,81.95L25.4,81l-0.2-1.15l5.2,0.2l0.15-12.65l-7.6-0.5l-0.2-1.15
			L48.9,67.5l-0.3-12.75L20.65,53.5l-0.2-1.15l40.7,1.8L87.2,52.9v-0.1l0.95,0.1L106,52l1.1-7.1l1.1,0.15l-1.05,6.9l1.2-0.05
			l61.5,2.25L204.2,50.2v-0.05h0.149L234.7,46.65z"/>
	</g>
	<path style="fill-rule:evenodd;clip-rule:evenodd;fill:#C28E86;" d="M253.5,21.35c-9.733,4.133-21.517,8.133-35.35,12
		c-27.7,7.7-51.867,10.833-72.5,9.4c-20.633-1.4-48.1-4.633-82.4-9.7c-17.133-2.533-32.217-4.933-45.25-7.2l52.25-8.95
		c9.767,0.934,21.533,1.733,35.3,2.4c27.567,1.3,51.434,1.25,71.601-0.15c20.133-1.4,45.483-5.017,76.05-10.85
		C268.5,5.4,281.767,2.633,293,0L253.5,21.35z"/>
	<path style="fill-rule:evenodd;clip-rule:evenodd;fill:#93554E;" d="M234,39.85l1.9,7.35l-3.75,5.15l-48.65,10l-0.5-3.5l-3-7.5
		c-1.333,0.167-2.85,0.433-4.55,0.8c-3.434,0.767-6.084,1.667-7.95,2.7s-3.767,2.683-5.7,4.95l-2.3,3.05l-36,0.5l1-3l-7-16.5
		c-2.233,0.267-4.8,0.667-7.7,1.2c-5.733,1.067-10.167,2.333-13.3,3.8s-6.983,4.233-11.55,8.3c-2.3,2.067-4.284,3.967-5.95,5.7
		l-56.4,1.9l-1-5.75l1.4-5.15L89.6,38.4c17.033,2.367,33.233,3.617,48.6,3.75c17.033,0.167,33.583-1,49.649-3.5L234,39.85z"/>
	<path style="fill-rule:evenodd;clip-rule:evenodd;fill:#A35855;" d="M253.5,21.35l4.5,24l-75,13.5c-0.5-1.233-1.434-2.417-2.8-3.55
		c-2.767-2.267-6.334-3.083-10.7-2.45s-7.434,2.066-9.2,4.3c-0.533,0.7-0.916,1.45-1.149,2.25c-0.101,0.4-0.15,0.717-0.15,0.95
		h-34.5c-1-2.5-2.567-5-4.7-7.5c-4.233-5-9.167-7.5-14.8-7.5s-12.067,2.5-19.3,7.5l-9.2,7.5l-76.5,3l18-37.5c78,6,126,9.5,144,10.5
		c11.267,0.633,29.9-1.684,55.9-6.95C230.9,26.8,242.767,24.117,253.5,21.35z"/>
	<polygon style="fill-rule:evenodd;clip-rule:evenodd;fill:#AD6862;" points="293,0 285.15,16.9 258,45.35 253.5,21.35 	"/>
	<g>
		<path style="fill-rule:evenodd;clip-rule:evenodd;fill:#924B4B;" d="M171.75,50.6c4.233-0.167,7.816,0.717,10.75,2.65
			c1.467,0.967,2.517,1.95,3.15,2.95L258,45.35l-75,13.5c-0.5-1.233-1.434-2.417-2.8-3.55c-2.767-2.267-6.334-3.083-10.7-2.45
			s-7.434,2.066-9.2,4.3c-0.533,0.7-0.916,1.45-1.149,2.25c-0.101,0.4-0.15,0.717-0.15,0.95h-34.5c-1-2.5-2.567-5-4.7-7.5
			c-4.233-5-9.167-7.5-14.8-7.5s-12.067,2.5-19.3,7.5l-9.2,7.5l-76.5,3l4.15-8.65h69l12.3-6.25c9.066-4.034,15.716-5.817,19.95-5.35
			c4.2,0.467,9.083,3.233,14.65,8.3c2.8,2.533,5.167,5.017,7.1,7.45l29.6-0.4l3.7-3.8C163.783,52.083,167.55,50.733,171.75,50.6z"/>
	</g>
	<path style="fill-rule:evenodd;clip-rule:evenodd;fill:#CB9878;" d="M138,148.85c11.1,0,17.434,9.934,19,29.801
		c0.767,9.933,0.434,19.866-1,29.8l-36.35,0.399c-1.566-10-1.983-20-1.25-30C119.9,158.85,126.433,148.85,138,148.85z"/>
	<path style="fill-rule:evenodd;clip-rule:evenodd;fill:#A35E56;" d="M152.85,181.75c0.967,8.733,1.017,17.634,0.15,26.7
		l-29.6,0.399c-1.566-7.866-2.217-15.899-1.95-24.1c0.566-16.366,5.466-25.333,14.7-26.9
		C145.35,156.283,150.917,164.25,152.85,181.75z"/>
	<path style="fill-rule:evenodd;clip-rule:evenodd;fill:#B87F74;" d="M150.85,184.15c0.9,7.6,1,15.333,0.301,23.199H126.4
		c-1.433-6.733-2.1-13.616-2-20.649c0.267-14.066,4.3-21.816,12.1-23.25C144.3,162.05,149.083,168.95,150.85,184.15z"/>
	<path style="fill-rule:evenodd;clip-rule:evenodd;fill:#9D4F4F;" d="M147,184.85c1.667-0.199,2.533,0.801,2.6,3
		c0.067,2.167-0.666,3.534-2.199,4.101c-1.567,0.6-2.484-0.384-2.75-2.95S145.167,185.05,147,184.85z"/>
	<path style="fill-rule:evenodd;clip-rule:evenodd;fill:#CB9878;" d="M172.25,56.05c0.866-0.066,1.45,0.3,1.75,1.1l0.45-0.45
		c0.366-0.267,0.75-0.333,1.149-0.2c0.634,0.2,1.233,1.05,1.801,2.55h0.6c0.467,0.067,0.85,0.284,1.15,0.65
		c0.5,0.566,0.666,1.566,0.5,3l0.649,0.45c0.467,0.367,0.783,0.8,0.95,1.3c0.233,0.833,0.066,1.683-0.5,2.55l0.6,0.4
		c0.4,0.4,0.617,0.917,0.65,1.55c0.033,1-0.167,1.75-0.6,2.25l0.699,0.4c0.434,0.367,0.667,0.733,0.7,1.1
		c0.066,0.633-0.333,1.483-1.2,2.55l0.45,0.45c0.3,0.466,0.467,1.1,0.5,1.9c0.066,1.3-0.35,2.267-1.25,2.9l0.65,0.8
		c0.434,0.633,0.6,1.25,0.5,1.85c-0.066,0.6-0.351,1-0.851,1.2l-0.75,0.1c0.5,0.867,0.434,1.65-0.199,2.35
		c-0.367,0.434-0.834,0.45-1.4,0.05l-0.75-0.7c-0.167,0.5-0.85,0.9-2.05,1.2c-0.733,0.2-1.4,0.133-2-0.2l-0.65-0.55
		c-0.733,1-1.566,1.5-2.5,1.5c-0.566,0-1.116-0.184-1.649-0.55l-0.601-0.6c-0.5,1.133-1.184,1.733-2.05,1.8
		c-0.566,0.033-1-0.2-1.3-0.7l-0.3-0.8c-0.367,0-0.717-0.067-1.051-0.2c-0.733-0.267-1.1-0.733-1.1-1.4
		c0-0.667,0.184-1.35,0.55-2.05c0.2-0.333,0.384-0.617,0.55-0.85c-0.866-0.7-1.267-1.55-1.199-2.55
		c0.033-0.633,0.267-1.167,0.699-1.6c0.2-0.2,0.4-0.35,0.601-0.45c-0.2-0.066-0.417-0.217-0.65-0.45c-0.399-0.434-0.566-1-0.5-1.7
		c0.101-0.7,0.45-1.417,1.05-2.15c0.301-0.333,0.584-0.617,0.851-0.85c-0.233-0.167-0.467-0.433-0.7-0.8
		c-0.4-0.733-0.483-1.534-0.25-2.4s0.583-1.466,1.05-1.8c0.233-0.167,0.45-0.25,0.65-0.25c-0.233-0.033-0.467-0.117-0.7-0.25
		c-0.434-0.3-0.583-0.717-0.45-1.25c0.167-0.533,0.467-0.967,0.9-1.3c0.2-0.133,0.383-0.233,0.55-0.3
		c-0.233-0.033-0.417-0.15-0.55-0.35c-0.334-0.367-0.316-0.933,0.05-1.7c0.366-0.733,0.833-1.15,1.4-1.25
		c0.3-0.067,0.55-0.05,0.75,0.05c-0.134-0.167-0.233-0.383-0.301-0.65c-0.133-0.567,0-1.167,0.4-1.8s0.917-0.9,1.55-0.8
		c0.3,0.033,0.566,0.133,0.8,0.3c-0.033-0.367,0.017-0.75,0.15-1.15C170.767,56.533,171.35,56.117,172.25,56.05z"/>
	<path style="fill-rule:evenodd;clip-rule:evenodd;fill:#CB9878;" d="M113.15,59.5c0.4,0.633,0.383,1.317-0.05,2.05l-0.8,0.95
		l1.35,0.8c0.934,0.667,1.434,1.333,1.5,2c0.1,1.067-0.35,1.917-1.35,2.55l1,0.5c0.7,0.5,1.067,1.117,1.1,1.85
		c0.067,1.167-0.4,2.1-1.4,2.8l1,0.5c0.7,0.567,1.117,1.333,1.25,2.3c0.1,0.967-0.167,1.867-0.8,2.7l-1,0.9l0.8,0.95
		c0.533,0.767,0.8,1.45,0.8,2.05c0,0.934-0.5,1.7-1.5,2.3l1,0.7c0.667,0.633,0.95,1.317,0.85,2.05c-0.066,0.733-0.367,1.25-0.9,1.55
		l-0.75,0.2l0.9,0.8c0.6,0.633,0.883,1.217,0.85,1.75c-0.067,0.867-0.817,1.367-2.25,1.5l0.15,1.3c-0.033,0.867-0.417,1.4-1.15,1.6
		c-0.733,0.2-1.433,0.15-2.1-0.15l-0.75-0.5c-0.8,0.633-1.517,0.983-2.15,1.05c-0.4,0.034-1.117-0.183-2.15-0.65l-1.4-0.75
		c-0.367,0.733-1.083,1.167-2.15,1.3c-0.667,0.1-1.433-0.167-2.3-0.8l-1.1-1c-0.933,0.934-1.983,1.467-3.15,1.6
		c-0.733,0.1-1.283-0.167-1.65-0.8l-0.35-1c-0.4,0-0.833-0.083-1.3-0.25c-0.867-0.3-1.4-0.833-1.6-1.6
		c-0.2-0.8-0.25-1.517-0.15-2.15l0.15-0.75c-0.7-0.434-1.133-1.067-1.3-1.9c-0.133-0.5-0.083-1.25,0.15-2.25l0.4-1.4
		c-0.934-0.233-1.533-0.917-1.8-2.05c-0.133-0.7,0-1.483,0.4-2.35l0.65-1.05c-0.867-1-1.3-2-1.3-3c0-0.633,0.233-1.167,0.7-1.6
		c0.233-0.2,0.467-0.35,0.7-0.45c-1.367-0.633-1.967-1.417-1.8-2.35c0.133-0.566,0.517-1.133,1.15-1.7
		c0.333-0.3,0.65-0.533,0.95-0.7c-0.233-0.3-0.467-0.667-0.7-1.1c-0.433-0.867-0.55-1.6-0.35-2.2c0.2-0.567,0.6-1.033,1.2-1.4
		c0.3-0.2,0.583-0.333,0.85-0.4c-0.3-0.4-0.55-0.85-0.75-1.35c-0.4-1-0.4-1.8,0-2.4c0.433-0.566,1.033-0.833,1.8-0.8
		c0.367,0.033,0.7,0.117,1,0.25c0.1-0.4,0.233-0.833,0.4-1.3c0.4-0.934,0.867-1.6,1.4-2c0.867-0.6,2.017-0.867,3.45-0.8l0.35-1.1
		c0.4-0.767,0.983-1.25,1.75-1.45c1-0.267,1.867,0.017,2.6,0.85l0.6-0.55c0.467-0.367,0.95-0.533,1.45-0.5
		c0.833,0.067,1.534,0.75,2.1,2.05h0.7c0.533,0.1,1.017,0.483,1.45,1.15c0.667,1.066,0.784,1.85,0.35,2.35l1.15,0.1
		C112.167,58.467,112.783,58.867,113.15,59.5z"/>
	<path style="fill-rule:evenodd;clip-rule:evenodd;fill:#A35855;" d="M93.4,94.1c-1.566-5.934-2.433-12-2.6-18.2
		c-0.3-12.367,3.067-19.183,10.1-20.45c7.033-1.233,11.267,4.966,12.7,18.6c0.733,6.8,0.75,13.733,0.05,20.8L93.4,94.1z"/>
	<path style="fill-rule:evenodd;clip-rule:evenodd;fill:#A35855;" d="M172.5,58.45c4.533-0.3,7.15,4.1,7.85,13.2
		c0.334,4.567,0.217,9.167-0.35,13.8l-15,1.15c-0.1-4.6,0.134-9.217,0.7-13.85C166.833,63.483,169.1,58.717,172.5,58.45z"/>
	<path style="fill-rule:evenodd;clip-rule:evenodd;fill:#CB9878;" d="M73.2,110.55c-0.4-0.899-0.333-1.6,0.2-2.1
		c0.567-0.533,1.333-0.617,2.3-0.25c0.5,0.2,0.933,0.434,1.3,0.7c0.033-0.334,0.167-0.667,0.4-1c0.467-0.733,1.2-1.184,2.2-1.351
		c0.8-0.1,1.7,0.617,2.7,2.15c0.034-0.3,0.133-0.601,0.3-0.9c0.3-0.566,0.733-0.783,1.3-0.649c0.934,0.166,1.65,0.85,2.15,2.05
		c0.133-0.334,0.333-0.667,0.6-1c0.467-0.667,0.967-0.967,1.5-0.9c0.8,0.134,1.8,0.917,3,2.351c0.167-0.334,0.4-0.65,0.7-0.95
		c0.6-0.634,1.233-0.934,1.9-0.9c1.067,0.066,1.95,0.851,2.65,2.351l1.05-0.301c0.8,0,1.35,0.4,1.65,1.2
		c0.3,0.834,0.15,1.75-0.45,2.75c-0.333,0.467-0.683,0.867-1.05,1.2l0.95,0.3c0.633,0.4,0.917,1.05,0.85,1.95
		c-0.066,0.9-0.483,1.533-1.25,1.9c-0.367,0.166-0.733,0.25-1.1,0.25l0.65,0.5c0.4,0.466,0.55,1.05,0.45,1.75
		c-0.1,1.133-0.566,1.733-1.4,1.8l0.85,0.75c0.566,0.666,0.85,1.416,0.85,2.25c0,0.8-0.367,1.583-1.1,2.35
		c-0.4,0.4-0.783,0.7-1.15,0.9l0.55,0.6c0.367,0.601,0.55,1.351,0.55,2.25c0,1.434-0.55,2.517-1.65,3.25l0.7,0.8
		c0.433,0.667,0.633,1.367,0.6,2.101c-0.034,0.767-0.383,1.434-1.05,2c-0.333,0.3-0.667,0.517-1,0.649l0.4,1.301
		c0.1,0.966-0.2,1.6-0.9,1.899c-0.7,0.3-1.55,0.25-2.55-0.149l-1.3-0.7c-0.533,0.866-1.367,1.366-2.5,1.5
		c-0.7,0.1-1.417-0.167-2.15-0.8l-0.85-1c-1.133,0.767-2.233,1.183-3.3,1.25c-0.667,0.033-1.267-0.2-1.8-0.7l-0.65-0.75
		c-0.733,1.133-1.6,1.7-2.6,1.7c-0.633,0-1.25-0.351-1.85-1.051l-0.7-1.1c-1.433,0.767-2.483,0.8-3.15,0.1
		c-0.433-0.433-0.45-0.983-0.05-1.649l0.7-0.9c-0.433-1.066-0.633-1.967-0.6-2.7c0.034-0.466,0.184-0.933,0.45-1.399l0.4-0.5
		c-0.667-0.167-0.967-0.717-0.9-1.65c0.033-0.566,0.283-1.217,0.75-1.95l0.75-0.899c-0.7-0.233-1.183-0.816-1.45-1.75
		c-0.133-0.566,0.05-1.2,0.55-1.9l0.8-0.899c-0.767-0.334-1.15-1.034-1.15-2.101c0-0.666,0.35-1.45,1.05-2.35l1-1.2
		c-0.267-0.033-0.517-0.15-0.75-0.35c-0.533-0.434-0.783-1.101-0.75-2c0.034-0.9,0.333-1.551,0.9-1.95l0.8-0.3
		c-1.067-0.934-1.467-1.9-1.2-2.9c0.133-0.634,0.467-1.116,1-1.45l0.7-0.35C73.7,111.366,73.433,110.983,73.2,110.55z"/>
	<path style="fill-rule:evenodd;clip-rule:evenodd;fill:#CB9878;" d="M147.1,98.6c0.567-0.467,1.167-0.617,1.801-0.45
		c0.633,0.133,1,0.65,1.1,1.55c0.066,0.433,0.066,0.85,0,1.25l0.9,0.3c0.633,0.333,0.966,0.817,1,1.45c0.066,1-0.434,1.917-1.5,2.75
		l1.35,0.3c0.9,0.366,1.35,0.917,1.35,1.65c0,1.199-0.716,2.166-2.149,2.899l0.95,0.7c0.666,0.634,1.033,1.316,1.1,2.05
		c0.134,1.167-0.45,2.217-1.75,3.15l1.2,0.8c0.8,0.7,1.2,1.434,1.2,2.2c0,0.8-0.367,1.45-1.101,1.95l-1.149,0.5l1.05,0.6
		c0.733,0.533,1.133,1.083,1.2,1.65c0.133,0.933-0.517,1.85-1.95,2.75l0.8,0.899c0.533,0.733,0.8,1.434,0.8,2.101
		c0,1.033-0.5,1.716-1.5,2.05l0.75,0.25c0.5,0.3,0.75,0.8,0.75,1.5c0,1.133-0.316,1.8-0.95,2l-0.05,0.8
		c-0.166,0.566-0.684,0.983-1.55,1.25s-1.65,0.15-2.35-0.35l-0.851-0.851c-0.6,0.8-1.35,1.267-2.25,1.4
		c-0.533,0.1-1.066-0.066-1.6-0.5l-0.65-0.65c-1.1,0.934-2.033,1.533-2.8,1.8c-0.733,0.233-1.55-0.399-2.45-1.899
		c-0.433,0.899-1.2,1.399-2.3,1.5c-0.7,0.1-1.3-0.15-1.8-0.75l-0.55-0.9c-0.633,0.733-1.35,1.167-2.15,1.3
		c-0.533,0.101-1-0.1-1.4-0.6l-0.5-0.8c-0.4,0.066-0.8,0.066-1.2,0c-0.8-0.134-1.25-0.517-1.35-1.15
		c-0.066-0.633,0.034-1.166,0.3-1.6l0.45-0.45c-0.533-0.5-0.75-1.217-0.65-2.15c0.1-0.566,0.317-1.1,0.65-1.6
		c0.167-0.233,0.333-0.417,0.5-0.55c-0.566,0.233-0.917,0.017-1.05-0.65c-0.067-0.434,0.1-1.066,0.5-1.899l0.65-1.101
		c-0.833,0-1.367-0.5-1.6-1.5c-0.167-0.633,0.083-1.233,0.75-1.8c0.3-0.267,0.633-0.483,1-0.65c-1,0-1.517-0.399-1.55-1.199
		c-0.033-0.534,0.167-1.051,0.6-1.551c0.233-0.267,0.467-0.483,0.7-0.649c-0.767-0.101-1.2-0.684-1.3-1.75
		c-0.067-0.667,0.183-1.45,0.75-2.351c0.3-0.466,0.6-0.866,0.9-1.199c-1.167-0.7-1.7-1.45-1.6-2.25c0.1-0.534,0.417-0.934,0.95-1.2
		c0.267-0.167,0.517-0.267,0.75-0.3c-0.867-0.7-1.183-1.483-0.95-2.351c0.167-0.566,0.534-1.05,1.1-1.45
		c0.3-0.2,0.567-0.35,0.8-0.45c-0.434-0.2-0.85-0.45-1.25-0.75c-0.8-0.6-1.1-1.1-0.9-1.5c0.2-0.4,0.583-0.683,1.15-0.85
		c0.3-0.066,0.566-0.1,0.8-0.1l0.35-0.8c0.333-0.566,0.783-0.85,1.35-0.85c0.933,0,1.833,0.434,2.7,1.3l0.5-0.7
		c0.434-0.467,0.867-0.7,1.3-0.7c0.7,0,1.383,0.333,2.05,1l0.6-0.7c0.533-0.5,1.15-0.783,1.85-0.85c1.133-0.133,2.066,0.233,2.8,1.1
		l0.35-1c0.367-0.7,0.883-1.05,1.55-1.05c0.934,0,1.617,0.466,2.05,1.4L147.1,98.6z"/>
	<polygon style="fill-rule:evenodd;clip-rule:evenodd;fill:#A35855;" points="129.75,101.6 149.25,100.85 151.5,136.1 127.9,135.7 	
		"/>
	<polygon style="fill-rule:evenodd;clip-rule:evenodd;fill:#A35855;" points="72,142.1 74.65,109.45 97.15,110.95 94.15,143.2 	"/>
	<path style="fill-rule:evenodd;clip-rule:evenodd;fill:#CB9878;" d="M102.2,160.65c0.4-0.567,0.8-0.851,1.2-0.851
		c0.7,0,1.2,0.601,1.5,1.8c0.167-0.366,0.4-0.733,0.7-1.1c0.633-0.767,1.316-1.15,2.05-1.15s1.333,0.434,1.8,1.301
		c0.233,0.399,0.383,0.816,0.45,1.25l1.4-0.65c0.967-0.267,1.55-0.033,1.75,0.7c0.2,0.767,0.034,1.45-0.5,2.05
		c-0.267,0.3-0.566,0.533-0.9,0.7l0.75,0.649c0.434,0.567,0.5,1.217,0.2,1.95c-0.5,1.2-1.217,1.8-2.15,1.8l0.35,0.551
		c0.2,0.5,0.184,1.166-0.05,2c-0.4,1.3-1.033,1.983-1.9,2.05l0.65,0.5c0.4,0.434,0.467,0.983,0.2,1.649
		c-0.434,1.067-1.117,1.601-2.05,1.601l0.5,0.7c0.233,0.566,0.15,1.199-0.25,1.899c-0.367,0.7-1.066,1.25-2.1,1.65l-1.45,0.35
		l-0.1,1.25c-0.167,0.867-0.567,1.417-1.2,1.65c-1,0.366-2.066,0.149-3.2-0.65c-0.934,1.101-1.717,1.533-2.35,1.3
		c-0.4-0.166-0.7-0.616-0.9-1.35l-0.2-1.1c-0.5,0.433-1.033,0.366-1.6-0.2c-0.367-0.334-0.667-0.95-0.9-1.851l-0.25-1.3
		c-0.667,0.167-1.167-0.116-1.5-0.85c-0.2-0.467-0.25-1.167-0.15-2.101l0.15-1.199c-0.867-0.134-1.367-0.667-1.5-1.601
		c-0.066-0.566,0.017-1.1,0.25-1.6l0.4-0.55c-0.933-0.567-1.433-1.25-1.5-2.051c-0.033-0.5,0.133-0.949,0.5-1.35l0.55-0.45
		c-0.267-0.133-0.55-0.316-0.85-0.55c-0.533-0.5-0.783-1.066-0.75-1.7c0.033-0.633,0.233-1.05,0.6-1.25l0.55-0.149
		c-0.233-0.4-0.4-0.834-0.5-1.301c-0.2-0.866,0-1.399,0.6-1.6c0.933-0.3,1.9-0.05,2.9,0.75c0.033-0.167,0.117-0.35,0.25-0.55
		c0.233-0.4,0.617-0.617,1.15-0.65c0.8-0.066,1.8,0.367,3,1.3c-0.066-0.333-0.05-0.649,0.05-0.949c0.2-0.667,0.717-1,1.55-1
		c0.867,0,1.65,0.366,2.35,1.1C101.85,161.233,102,160.95,102.2,160.65z"/>
	<path style="fill-rule:evenodd;clip-rule:evenodd;fill:#A35855;" d="M90.75,163.1l20.65-0.75l-2.75,10.75
		c-2.5,7.167-5.467,10.7-8.9,10.601c-3.4-0.066-5.917-3.517-7.55-10.351L90.75,163.1z"/>
	<path style="fill-rule:evenodd;clip-rule:evenodd;fill:#714240;" d="M95.25,92.1c-1.133-5.233-1.75-10.583-1.85-16.05
		c-0.233-10.867,2.184-16.767,7.25-17.7c5.033-0.934,8.383,4.45,10.05,16.15c0.833,5.867,1.15,11.817,0.95,17.85L95.25,92.1z"/>
	<path style="fill-rule:evenodd;clip-rule:evenodd;fill:#714240;" d="M173,60.1c2.6,0,4.316,3.967,5.15,11.9
		c0.433,3.933,0.6,7.883,0.5,11.85L166.9,84.6c0.033-4.067,0.316-8.15,0.85-12.25C168.816,64.183,170.566,60.1,173,60.1z"/>
	<polygon style="fill-rule:evenodd;clip-rule:evenodd;fill:#714240;" points="132.5,103.95 145.75,103.45 147.75,132.85 
		130.25,132.95 	"/>
	<polygon style="fill-rule:evenodd;clip-rule:evenodd;fill:#714240;" points="75.25,139.1 76.5,112.7 93.9,113.1 91.15,139.95 	"/>
	<path style="fill-rule:evenodd;clip-rule:evenodd;fill:#714240;" d="M93.5,165.1l15.5-0.149l-2.65,8.1
		c-2.233,5.4-4.55,8.084-6.95,8.05c-1.733-0.033-3.233-2.716-4.5-8.05L93.5,165.1z"/>
	<path style="fill-rule:evenodd;clip-rule:evenodd;fill:#B87F74;" d="M87.75,114.15l4.3,0.199l-0.9,7.5
		c0.1-3.133-0.15-5.066-0.75-5.8c-0.4-0.467-0.967-0.934-1.7-1.399L87.75,114.15z"/>
	<path style="fill-rule:evenodd;clip-rule:evenodd;fill:#B87F74;" d="M139.15,105.7H144l0.75,8.649
		c-0.633-3.767-1.317-6.083-2.05-6.949c-0.467-0.534-1.2-0.983-2.2-1.351L139.15,105.7z"/>
	<path style="fill-rule:evenodd;clip-rule:evenodd;fill:#B87F74;" d="M102.2,60.55c2.433,1,4.216,3.083,5.35,6.25
		c0.567,1.567,0.9,3.034,1,4.4l-1.85,0.2c0-1.233-0.184-2.85-0.55-4.85c-0.233-1.233-0.967-2.6-2.2-4.1L102.2,60.55z"/>
	<path style="fill-rule:evenodd;clip-rule:evenodd;fill:#B87F74;" d="M172.7,61.1c1.633,0.467,2.85,2.316,3.649,5.55
		c0.367,1.633,0.584,3.217,0.65,4.75h-1.7c0.134-1.233,0.134-2.917,0-5.05c-0.066-1.333-0.517-2.6-1.35-3.8L172.7,61.1z"/>
	<path style="fill-rule:evenodd;clip-rule:evenodd;fill:#B87F74;" d="M102,166.3l5.65-0.2l-0.9,2.2c-0.467,1.267-1.3,2.783-2.5,4.55
		c1.467-2.833,1.917-4.666,1.35-5.5c-0.233-0.366-0.9-0.649-2-0.85L102,166.3z"/>
</g>
</svg>
