<?xml version="1.0" encoding="iso-8859-1"?>
<!-- Generator: Adobe Illustrator 15.1.0, SVG Export Plug-In . SVG Version: 6.00 Build 0)  -->
<!DOCTYPE svg PUBLIC "-//W3C//DTD SVG 1.1//EN" "http://www.w3.org/Graphics/SVG/1.1/DTD/svg11.dtd">
<svg version="1.1" id="house_x5F_yellow_x5F_front_x5F_01.ai"
	 xmlns="http://www.w3.org/2000/svg" xmlns:xlink="http://www.w3.org/1999/xlink" x="0px" y="0px" width="277.85px"
	 height="253.8px" viewBox="0 0 277.85 253.8" style="enable-background:new 0 0 277.85 253.8;" xml:space="preserve">
<g>
	
		<linearGradient id="SVGID_1_" gradientUnits="userSpaceOnUse" x1="-249.5664" y1="-113.2427" x2="-225.3184" y2="-113.2427" gradientTransform="matrix(-0.9939 -0.1103 0.1103 -0.9939 -3.230125e-004 2.682209e-005)">
		<stop  offset="0" style="stop-color:#FDEAC8"/>
		<stop  offset="1" style="stop-color:#FBDDA6"/>
	</linearGradient>
	<path style="fill-rule:evenodd;clip-rule:evenodd;fill:url(#SVGID_1_);" d="M257.3,54.1c-6.8,16.8-10.934,28.35-12.399,34.65
		c-1.467,6.267-3.051,17.05-4.75,32.35c-0.834,7.633-1.517,14.65-2.051,21.05l-7.449,2.649L229.7,154.9l2.95,5.899l-2.95,7.95
		c-2.167,6.2-3.767,11.517-4.8,15.95c-1.7,7.1-5.217,26.05-10.551,56.85L193.15,250.4l1.3-179.101c0-0.566,6.767-8.45,20.3-23.65
		C221.483,40.05,228.233,32.5,235,25l32,5.8C263.9,37.933,260.667,45.7,257.3,54.1z"/>
	<polygon style="fill-rule:evenodd;clip-rule:evenodd;fill:#E7C47D;" points="265.5,35.15 263.45,39.5 233.1,33.35 234.65,27.1 	"/>
	
		<linearGradient id="SVGID_2_" gradientUnits="userSpaceOnUse" x1="-198.6357" y1="-152.5781" x2="-51.9498" y2="-152.5781" gradientTransform="matrix(-0.9897 0.1432 -0.1432 -0.9897 6.513298e-004 9.238720e-006)">
		<stop  offset="0" style="stop-color:#FAD898"/>
		<stop  offset="1" style="stop-color:#F7C568"/>
	</linearGradient>
	<path style="fill-rule:evenodd;clip-rule:evenodd;fill:url(#SVGID_2_);" d="M216.8,70.1l-0.5,43.55l8.55,5.6L213,161.15l-6.6-3.551
		l-5.75,12.351c-3.967,9.833-6.2,18.8-6.7,26.899c-0.8,12.967-1.066,30.817-0.8,53.551L93.9,253.8c-0.167-11.6-1-25.267-2.5-41
		c-2.967-31.467-7.767-57.5-14.4-78.1c-9.8-30.434-23.983-53.383-42.55-68.85c-9.3-7.733-17.617-12.434-24.95-14.1L128.55,11.4
		l109.101,7L224.2,68.95L216.8,70.1z"/>
	<g>
		<path style="fill-rule:evenodd;clip-rule:evenodd;fill:#CEB071;" d="M151.65,200.45l-4.7,0.85l-33.85-1.7l-11.7,2.051l2.2,26.399
			l49.3-1.95L151.65,200.45z M98,150.25l0.95,25.1l12.1-0.85l37.5,1.3l-1.3-26.1l-35.15-1.65L98,150.25z M147.6,109.6l-25.45-1.75
			l-28.8,4.9l1.5,16.2l9.45-1h0.05c7.8,0.366,19.417,0.916,34.85,1.649l8.7-0.85L147.6,109.6z M111.55,90.2l-6.8,0.55h-0.1l-17.05-2
			l-17.05,2l2.25,22.1l17.75-1l23.35-4L111.55,90.2z M112.7,88.65v0.1l32.149-2.7l-1.899-26.3l-31.5,3.2L85.35,64l2.55,23.45
			l16.8,1.95l6.7-0.55V88.8L112.7,88.65z M192.05,195l-23.3,2.25L153,200.2l1.25,25.8l5.6-0.25l30.65-6.35L192.05,195z
			 M171.6,195.65l-1.5-20.45l-10.35,2.3l-36.5-1.25l3.1,22.7l20.5,1l4.75-0.851V199l0.7-0.05l16.25-3L171.6,195.65z M189.5,145.05
			l-15.4-0.35l-25.5,4.8l1.25,26.35l9.7,0.301c16.934-3.801,27.434-6.084,31.5-6.851L189.5,145.05z M187.45,104.95l-5.7-0.15
			l-30.5,5.05h-0.05l-2.3-0.15l0.35,18.899c16.533-1.833,25.066-2.833,25.6-3c0.9-0.167,5.417-0.1,13.551,0.2L187.45,104.95z
			 M171,143.9l0.35-16.5c-4.933,0.6-11.283,1.333-19.05,2.199c-8.166,0.9-12.533,1.351-13.1,1.351l-23.7-1.15L117,146.9l30.5,1.449
			L171,143.9z M205.9,144.05l1.55-16.649l-5.601,0.199c-16.699-0.667-25.583-0.899-26.649-0.7l-2.55,0.35l-0.301,16.4l1.601-0.301
			L205.9,144.05z M187.8,79.7L168,84.4l1.3,21.1l12.4-2.05l28.149,0.65l-0.3-23.25L187.8,79.7z M166.65,84.75
			c-2.434,0.567-3.7,0.883-3.801,0.95c-1,0.3-17.649,1.75-49.95,4.35l2.35,17.6l6.8-1.15l25.5,1.75v-0.05l1.351-0.05v0.2l2.3,0.15
			l16.75-2.75L166.65,84.75z M162.45,84.4c0.434-0.133,4.217-1.05,11.35-2.75c6.934-1.667,11.367-2.717,13.3-3.15l1.851-22.85
			l-44.65,4l1.9,26.25C156.566,85.033,161.983,84.533,162.45,84.4z M215.55,29.1h1.351l-0.351,22.25l12.7-1.45l-0.35,1.4L190.3,55.5
			l-1.85,22.9l21.1,1.1v-0.15h1.3v0.2l5.851,0.3l-0.05,1.35l-5.75-0.3l0.3,23.2l5.2,0.1v1.35l-27.601-0.6l0.95,20.85l12.1,0.45
			l21.2-0.65l-0.35,1.35l-13.9,0.399l-1.55,16.75l10.5,0.25l-0.35,1.301L190.8,145.05l1.601,24.101l4.949,0.35
			c0.634,0.033,1.75,0.1,3.351,0.2l-0.5,1.3l-8.101-0.5c-0.833,0.066-7.733,1.533-20.699,4.4l1.55,20.6l21.3-2.05l-0.15,1.35
			l-0.699,0.05l-1.551,24.25l1.351-0.25v1.4c-10.334,2.066-21.367,4.35-33.101,6.85l-42.649,2l-24.7,0.5l-0.1-1.35l9.6-0.2
			l-2.2-26.149l-9.6,1.649l-0.15-1.35l22.7-3.9l12,0.55l-3.1-22.649l-10.85-0.351L86.9,177.65l-0.2-1.351l10.95-0.85l-0.95-25
			l-14.7,2.3l-0.35-1.3L112,146.7l3.65,0.149l-1.5-17.1l-9.8-0.5L76.2,132.3l-0.45-1.3l17.75-1.9l-1.45-16.149l-1.4,0.25l-21.4,1.2
			l-0.55-1.35l2.8-0.15l-2.3-22l-11.8,1.35L56.6,91l29.95-3.5L84,64.05l-5.1,0.25l-41,4.55l-1.35-1.2l42.25-4.7l32.55-1.35
			l1.35-0.15l-1.3-33l1.3-0.05l1.35,32.95l53.25-5.25l-0.649-22.6l1.35-0.05L168.65,56l20.399-1.75l0.05-0.4l1.351,0.1l-0.05,0.2
			l24.85-2.65L215.55,29.1z"/>
		<polygon style="fill-rule:evenodd;clip-rule:evenodd;fill:#CEB071;" points="63.45,64.15 62.15,64.4 59.45,49.65 60.8,49.4 		"/>
	</g>
	<path style="fill-rule:evenodd;clip-rule:evenodd;fill:#CEB071;" d="M235.85,25.2l-2.199,8.2l-79.15,9.35c0-1.2-0.9-3.583-2.7-7.15
		c-1.467-2.967-4.467-4.85-9-5.65c-5.1-0.934-11.333-0.25-18.7,2.05c-6.533,2.033-11.767,6.217-15.7,12.55
		c-1.967,3.167-3.283,6.133-3.95,8.9L28.5,61.5L13.35,53C69.617,33.067,104.6,21,118.3,16.8c8.567-2.6,30.733-1.983,66.5,1.85
		C202.667,20.583,219.684,22.767,235.85,25.2z"/>
	<path style="fill-rule:evenodd;clip-rule:evenodd;fill:#AB8441;" d="M136.05,33.6c0.4,0.566,0.667,1.133,0.8,1.7l2.15-0.45
		c1.6-0.233,2.884-0.133,3.85,0.3c1.367,0.6,2.367,1.75,3,3.45c0.334,0.833,0.517,1.617,0.551,2.35l2.35,0.6
		c1.634,0.633,2.583,1.517,2.85,2.65s0.084,2.417-0.55,3.85c-0.333,0.733-0.684,1.333-1.05,1.8l1.85,1.2
		c1.267,1.133,1.934,2.517,2,4.15c0.067,1.233-0.366,2.333-1.3,3.3l-1.45,1.1l2,3.15c1.267,2.267,1.733,3.9,1.4,4.9
		c-0.333,1.033-0.917,1.583-1.75,1.65l-1.15-0.15l1.65,4.2c0.967,3.033,1.116,5.183,0.45,6.45c-0.667,1.3-1.434,1.934-2.3,1.9
		l-1.101-0.45L151.9,83c1.066,1.4,1.5,2.667,1.3,3.8c-0.2,1.2-0.816,2.133-1.851,2.8l-1.55,0.6l0.3,3.2
		c-0.033,2.2-0.616,3.5-1.75,3.9c-1.133,0.4-2.449,0.25-3.949-0.45l-1.851-1.15c-0.366,0.633-0.899,1.216-1.6,1.75
		c-1.4,1.1-2.867,1.483-4.4,1.15c-1.566-0.333-2.716-1-3.45-2l-0.6-1.4c-0.633,0.533-1.383,1.033-2.25,1.5
		c-1.733,0.966-3.2,1.267-4.4,0.9c-1.2-0.333-2-0.917-2.4-1.75l-0.2-1.15c-0.567,0.267-1.183,0.4-1.85,0.4
		c-1.367-0.067-2.316-0.85-2.85-2.35c-0.733-2.067-0.7-3.767,0.1-5.1c0.4-0.667,0.867-1.117,1.4-1.35
		c-0.667-0.333-1.316-0.85-1.95-1.55c-1.3-1.333-1.85-2.817-1.65-4.45c0.2-1.633,0.617-2.8,1.25-3.5
		c0.3-0.333,0.583-0.517,0.85-0.55c-0.566-0.633-1.1-1.417-1.6-2.35c-1.034-1.833-1.417-3.417-1.15-4.75
		c0.267-1.367,0.8-2.55,1.6-3.55c0.434-0.533,0.817-0.917,1.15-1.15c-0.466-0.333-0.9-0.817-1.3-1.45c-0.8-1.2-1.067-2.45-0.8-3.75
		c0.267-1.267,0.733-2.183,1.4-2.75c0.333-0.3,0.633-0.467,0.9-0.5c-0.3-0.533-0.55-1.217-0.75-2.05
		c-0.367-1.7-0.283-3.333,0.25-4.9c0.533-1.533,1.317-2.716,2.35-3.55c0.5-0.433,0.95-0.7,1.35-0.8c-0.1-0.7-0.133-1.483-0.1-2.35
		c0.066-1.767,0.433-3.1,1.1-4c0.667-0.867,1.733-1.283,3.2-1.25c0.7,0,1.35,0.1,1.95,0.3l0.95-2.4c0.934-1.667,2.25-2.6,3.95-2.8
		C134.267,32.067,135.283,32.533,136.05,33.6z"/>
	<path style="fill-rule:evenodd;clip-rule:evenodd;fill:#448793;" d="M148.9,64.4c0.066,9.567-0.801,19.217-2.601,28.95l-23.8-0.65
		c-1.933-9.034-2.883-18.15-2.85-27.35c0.1-18.367,5.117-27.917,15.05-28.65C144.033,36,148.767,45.233,148.9,64.4z"/>
	<path style="fill-rule:evenodd;clip-rule:evenodd;fill:#448793;" d="M241.3,5.95l-5.1,23.55l-80.15,6.8
		c-0.366-2.233-1.649-4.4-3.85-6.5c-4.334-4.133-10.983-5.767-19.95-4.9s-16.9,4.783-23.8,11.75c-2.167,2.2-4.083,4.55-5.75,7.05
		l-1.9,3.15L0,57.55l10.6-45.3c9.433-1.533,21.1-3.167,35-4.9c27.767-3.5,52.833-5.783,75.2-6.85
		c22.367-1.067,49.167-0.483,80.4,1.75C216.8,3.383,230.167,4.617,241.3,5.95z"/>
	<g>
		<path style="fill-rule:evenodd;clip-rule:evenodd;fill:#325F73;" d="M109.85,35.3c-2.533,2.367-4.8,5-6.8,7.9l-2.25,3.65L0,57.55
			l3.05-13.2C43.917,40.783,79.517,37.767,109.85,35.3z"/>
		<path style="fill-rule:evenodd;clip-rule:evenodd;fill:#325F73;" d="M156.05,36.3c-0.2-1.133-0.733-2.4-1.6-3.8
			c17.434-0.6,44.684-1.6,81.75-3L156.05,36.3z"/>
	</g>
	<path style="fill-rule:evenodd;clip-rule:evenodd;fill:#293F4D;" d="M145.1,62.75c-0.066,7.9-1.066,16.117-3,24.65l-14.6,1.55
		c-1.133-6.9-1.833-13.967-2.1-21.2c-0.566-14.433,1.333-22.4,5.7-23.9C140.533,40.65,145.2,46.95,145.1,62.75z"/>
	<polygon style="fill-rule:evenodd;clip-rule:evenodd;fill:#6C9EA9;" points="274.4,37.7 236.2,29.5 241.3,5.95 277.85,17.05 	"/>
	<polygon style="fill-rule:evenodd;clip-rule:evenodd;fill:#E7C47D;" points="206.4,157.6 213,161.15 225.7,181.2 	"/>
	<polygon style="fill-rule:evenodd;clip-rule:evenodd;fill:#E7C47D;" points="224.2,68.95 249.15,76 216.1,70.65 	"/>
	<polygon style="fill-rule:evenodd;clip-rule:evenodd;fill:#FEF5E5;" points="216.3,113.65 240.45,117.3 224.85,119.25 217,114.4 	
		"/>
	<polygon style="fill-rule:evenodd;clip-rule:evenodd;fill:#E7C47D;" points="238.1,142.15 230.65,144.8 218.15,143.25 	"/>
	<polygon style="fill-rule:evenodd;clip-rule:evenodd;fill:#FEF5E5;" points="232.65,160.8 215.25,155.3 229.7,154.9 	"/>
	
		<line style="fill-rule:evenodd;clip-rule:evenodd;fill:none;stroke:#E0CCA6;stroke-width:1.3;" x1="229.65" y1="50.55" x2="257.75" y2="53.25"/>
	
		<line style="fill-rule:evenodd;clip-rule:evenodd;fill:none;stroke:#E0CCA6;stroke-width:1.3;" x1="217.25" y1="80.35" x2="246.05" y2="85.7"/>
	
		<line style="fill-rule:evenodd;clip-rule:evenodd;fill:none;stroke:#E0CCA6;stroke-width:1.3;" x1="216.25" y1="104.5" x2="241.7" y2="108.5"/>
	
		<line style="fill-rule:evenodd;clip-rule:evenodd;fill:none;stroke:#E0CCA6;stroke-width:1.3;" x1="223.25" y1="126.6" x2="239.35" y2="126.25"/>
	
		<line style="fill-rule:evenodd;clip-rule:evenodd;fill:none;stroke:#E0CCA6;stroke-width:1.3;" x1="217.9" y1="145.35" x2="230.3" y2="147.35"/>
	
		<line style="fill-rule:evenodd;clip-rule:evenodd;fill:none;stroke:#E0CCA6;stroke-width:1.3;" x1="200.15" y1="170.5" x2="225.3" y2="182.55"/>
	
		<line style="fill-rule:evenodd;clip-rule:evenodd;fill:none;stroke:#E0CCA6;stroke-width:1.3;" x1="194.45" y1="193.95" x2="223.6" y2="192.6"/>
	
		<line style="fill-rule:evenodd;clip-rule:evenodd;fill:none;stroke:#E0CCA6;stroke-width:1.3;" x1="192.8" y1="219.05" x2="218.6" y2="220.05"/>
	<g>
		<g>
			<path style="fill-rule:evenodd;clip-rule:evenodd;fill:#325F73;" d="M49.85,26.65c-0.083-0.5-0.158-0.867-0.225-1.1
				c0.15,0.2,0.392,0.5,0.725,0.9c0.733,1,1.233,1.966,1.5,2.9c0.9,3-0.8,5.066-5.1,6.2c-3.7,0.633-5.75-0.6-6.15-3.7
				c-0.133-1-0.083-2.117,0.15-3.35c0.2-1.033,0.333-1.55,0.4-1.55l0.4,3.45c0.667,2.367,2.1,3.684,4.3,3.95
				c2.533,0.167,3.933-1.317,4.2-4.45C50.117,28.867,50.05,27.783,49.85,26.65z"/>
		</g>
	</g>
	<g>
		<g>
			<path style="fill-rule:evenodd;clip-rule:evenodd;fill:#325F73;" d="M18.95,44.45c-1.8,0.466-2.917-0.133-3.35-1.8
				c-0.439-1.599-0.464-2.491-0.075-2.675C15.372,40.105,15.53,40.713,16,41.8c0.533,1.267,1.367,1.934,2.5,2
				c0.967,0.2,1.733-0.517,2.3-2.15c0.4-1.667,0.617-2.517,0.65-2.55c0.4,0,0.5,0.85,0.3,2.55
				C21.55,43.35,20.617,44.283,18.95,44.45z"/>
		</g>
	</g>
	<g>
		<g>
			<path style="fill-rule:evenodd;clip-rule:evenodd;fill:#325F73;" d="M28.075,14.475c-0.01,0.188-0.035,0.513-0.075,0.975
				c0.1,0.767,0.55,1.2,1.35,1.3c0.767,0.033,1.2-0.45,1.3-1.45l-0.05-1.5l0.65,1.4c0.167,0.966-0.367,1.617-1.6,1.95
				c-1.467,0.2-2.15-0.217-2.05-1.25C27.866,15.192,28.024,14.717,28.075,14.475z"/>
		</g>
	</g>
	<g>
		<g>
			<path style="fill-rule:evenodd;clip-rule:evenodd;fill:#325F73;" d="M82.8,13.85c-0.093,0.341-0.377,1.091-0.85,2.25
				c-0.367,1.8,0.25,3.1,1.85,3.9c1.7,0.7,3.05,0,4.05-2.1c0.495-1.023,0.829-2.115,1-3.275c-0.004,0.207,0.129,1.349,0.4,3.425
				c-0.333,2.267-2.017,3.267-5.05,3c-3.2-0.7-4.333-2.133-3.4-4.3C81.956,15.217,82.623,14.25,82.8,13.85z"/>
		</g>
	</g>
	<g>
		<g>
			<path style="fill-rule:evenodd;clip-rule:evenodd;fill:#325F73;" d="M82.2,40.65c1.433,0.5,2.6-0.233,3.5-2.2
				c0.466-0.967,0.783-2,0.95-3.1l0.35,3.2c-0.3,2.133-1.767,3.15-4.4,3.05c-2.633-0.133-3.833-1.283-3.6-3.45l1.15-3.2l-0.25,2.4
				C80,39.017,80.767,40.117,82.2,40.65z"/>
		</g>
	</g>
	<g>
		<g>
			<path style="fill-rule:evenodd;clip-rule:evenodd;fill:#325F73;" d="M128.45,6.85c-0.167,0.066-0.15,0.517,0.05,1.35
				c0.233,0.9,0.683,1.483,1.35,1.75c1.167,0.5,2.017-0.434,2.55-2.8c0.033,0,0.083,0.6,0.15,1.8c-0.2,1.167-1.033,1.667-2.5,1.5
				c-1.066,0-1.7-0.583-1.9-1.75C127.95,7.6,128.05,6.983,128.45,6.85z"/>
		</g>
	</g>
	<g>
		<g>
			<path style="fill-rule:evenodd;clip-rule:evenodd;fill:#325F73;" d="M64.3,22.85c-2.3-0.333-3.2-1.333-2.7-3
				c0.688-1.154,1.096-1.896,1.225-2.225c-0.066,0.274-0.225,0.833-0.475,1.675c-0.1,1.333,0.433,2.25,1.6,2.75
				c1.4,0.434,2.35-0.167,2.85-1.8c0.154-1.304,0.237-2.096,0.25-2.375c0.065,0.274,0.332,1.05,0.8,2.325
				C67.983,21.867,66.8,22.75,64.3,22.85z"/>
		</g>
	</g>
	<g>
		<g>
			<path style="fill-rule:evenodd;clip-rule:evenodd;fill:#325F73;" d="M62.05,42.65c0.769-1.307,1.211-2.115,1.325-2.425
				c-0.056,0.26-0.231,0.869-0.525,1.825c-0.133,1.4,0.417,2.383,1.65,2.95c1.267,0.533,2.3-0.033,3.1-1.7
				c0.4-0.8,0.667-1.667,0.8-2.6l0.3,2.75c-0.267,1.767-1.55,2.566-3.85,2.4C62.45,45.483,61.517,44.417,62.05,42.65z"/>
		</g>
	</g>
	<g>
		<g>
			<path style="fill-rule:evenodd;clip-rule:evenodd;fill:#325F73;" d="M164.85,12.25l-0.25,2c0.067,1.433,0.7,2.35,1.9,2.75
				c1.2,0.433,2.184-0.167,2.95-1.8c0.399-0.833,0.666-1.7,0.8-2.6l0.25,2.7c-0.233,1.767-1.45,2.6-3.65,2.5
				c-2.199-0.066-3.183-1.017-2.949-2.85L164.85,12.25z"/>
		</g>
	</g>
	<g>
		<g>
			<path style="fill-rule:evenodd;clip-rule:evenodd;fill:#325F73;" d="M169.7,29c0.166,0.933-0.45,1.517-1.851,1.75
				c-1.267,0-1.85-0.483-1.75-1.45c0.334-1,0.483-1.5,0.45-1.5c0.033,0,0.017,0.367-0.05,1.1c0.066,0.767,0.434,1.25,1.1,1.45
				c0.801,0.1,1.301-0.317,1.5-1.25c0.024-0.707,0.033-1.156,0.025-1.35C169.185,27.936,169.376,28.353,169.7,29z"/>
		</g>
	</g>
	<g>
		<g>
			<path style="fill-rule:evenodd;clip-rule:evenodd;fill:#325F73;" d="M106.75,14.4l0.1,2c0.333,1.4,1.1,2.233,2.3,2.5
				c1.3,0.267,2.2-0.467,2.7-2.2c0.278-1.003,0.437-1.728,0.475-2.175l0.625,2.075c0.1,1.8-1.034,2.816-3.4,3.05
				c-2.033,0.167-3.117-0.65-3.25-2.45C106.133,15.333,106.283,14.4,106.75,14.4z"/>
		</g>
	</g>
	<g>
		<g>
			<path style="fill-rule:evenodd;clip-rule:evenodd;fill:#325F73;" d="M197.2,7.3l0.35,0.95c0.334,0.667,0.816,0.983,1.45,0.95
				c1.066-0.1,1.333-1.034,0.8-2.8l0.75,1.2c0.267,0.867-0.149,1.5-1.25,1.9c-0.967,0.367-1.616,0.117-1.95-0.75
				C197.25,7.817,197.2,7.333,197.2,7.3z"/>
		</g>
	</g>
	<g>
		<g>
			<path style="fill-rule:evenodd;clip-rule:evenodd;fill:#325F73;" d="M193.6,24.55c0.4-0.8,0.65-1.667,0.75-2.6l0.301,2.75
				c-0.267,1.767-1.551,2.566-3.851,2.4c-2.399-0.367-3.333-1.434-2.8-3.2c0.886-1.505,1.353-2.347,1.4-2.525
				c-0.02,0.153-0.202,0.795-0.551,1.925c-0.133,1.4,0.417,2.383,1.65,2.95C191.767,26.783,192.8,26.217,193.6,24.55z"/>
		</g>
	</g>
	<g>
		<g>
			<path style="fill-rule:evenodd;clip-rule:evenodd;fill:#325F73;" d="M221.45,14.2c0.166-0.333,0.283-0.684,0.35-1.05l0.101,1.1
				c-0.101,0.733-0.65,1.033-1.65,0.9c-1.066-0.333-1.4-0.833-1-1.5c0.415-0.392,0.673-0.658,0.775-0.8
				c-0.063,0.122-0.188,0.339-0.375,0.65c-0.167,0.533,0,0.967,0.5,1.3C220.684,15.067,221.116,14.867,221.45,14.2z"/>
		</g>
	</g>
	<g>
		<g>
			<path style="fill-rule:evenodd;clip-rule:evenodd;fill:#325F73;" d="M215.5,26.85c-1.167,0.1-1.717-0.283-1.65-1.15
				c0.264-0.686,0.405-1.102,0.426-1.25c0,0.122-0.025,0.421-0.075,0.9c0.066,0.667,0.416,1.05,1.05,1.15
				c0.566,0.133,0.983-0.217,1.25-1.05c0.2-0.833,0.316-1.25,0.35-1.25c0.034,0,0.084,0.417,0.15,1.25
				C216.866,26.317,216.366,26.783,215.5,26.85z"/>
		</g>
	</g>
	<g>
		<g>
			<path style="fill-rule:evenodd;clip-rule:evenodd;fill:#325F73;" d="M147.8,6.05c-0.232-1.128-0.183-1.762,0.15-1.9
				c-0.164,0.073-0.098,0.523,0.2,1.35c0.3,0.9,0.816,1.433,1.55,1.6c0.733,0.233,1.333-0.2,1.8-1.3c0.233-0.566,0.4-1.167,0.5-1.8
				c0.233,0.633,0.3,1.25,0.2,1.85c-0.167,1.2-0.934,1.783-2.3,1.75C148.733,7.733,148.033,7.217,147.8,6.05z"/>
		</g>
	</g>
	<g>
		<g>
			<path style="fill-rule:evenodd;clip-rule:evenodd;fill:#325F73;" d="M16.825,26.375c-0.05,0.05,0.042,0.309,0.275,0.775
				c0.267,0.533,0.633,0.817,1.1,0.85c0.933,0,1.2-0.75,0.8-2.25c0,0.033,0.2,0.367,0.6,1c0.233,0.7-0.167,1.2-1.2,1.5
				c-0.733,0.2-1.233-0.05-1.5-0.75C16.679,26.835,16.653,26.46,16.825,26.375z"/>
		</g>
	</g>
	<g>
		<g>
			<path style="fill-rule:evenodd;clip-rule:evenodd;fill:#325F73;" d="M147.5,14.9c0.033,0,0.116,0.717,0.25,2.15
				c-0.2,1.434-1.1,2.184-2.7,2.25c-1.899,0.067-2.767-0.633-2.6-2.1c0.429-1.257,0.645-1.974,0.649-2.15
				c0.017,0.146-0.017,0.662-0.1,1.55c0.1,1.133,0.667,1.816,1.7,2.05c0.934,0.267,1.666-0.283,2.2-1.65
				C147.267,15.6,147.467,14.9,147.5,14.9z"/>
		</g>
	</g>
	<g>
		<g>
			<path style="fill-rule:evenodd;clip-rule:evenodd;fill:#325F73;" d="M47.5,11.35L48,12.9c0.567,1,1.333,1.45,2.3,1.35
				c1.034-0.067,1.55-0.833,1.55-2.3l-0.3-2.15l1.15,1.85c0.433,1.367-0.2,2.4-1.9,3.1c-1.533,0.633-2.55,0.267-3.05-1.1
				C47.55,12.15,47.467,11.383,47.5,11.35z"/>
		</g>
	</g>
	<g>
		<g>
			<path style="fill-rule:evenodd;clip-rule:evenodd;fill:#325F73;" d="M35.95,44.25l-0.2,1.45c0.067,1.066,0.533,1.75,1.4,2.05
				c0.9,0.3,1.633-0.15,2.2-1.35l0.55-1.9l0.2,2c-0.2,1.3-1.1,1.917-2.7,1.85c-1.566-0.067-2.283-0.767-2.15-2.1L35.95,44.25z"/>
		</g>
	</g>
	<g>
		<g>
			<path style="fill-rule:evenodd;clip-rule:evenodd;fill:#325F73;" d="M13.725,51.325c0.123,0.385,0.297,0.893,0.525,1.525
				c0.1,1.633-1.167,2.333-3.8,2.1c-2.233-0.833-2.9-1.95-2-3.35c0.947-0.922,1.505-1.505,1.675-1.75
				c-0.104,0.215-0.379,0.699-0.825,1.45c-0.433,1.2-0.117,2.15,0.95,2.85c1.4,0.667,2.383,0.233,2.95-1.3
				C13.442,52.223,13.617,51.715,13.725,51.325c-0.212-0.625-0.287-0.917-0.225-0.875C13.857,50.249,13.933,50.541,13.725,51.325z"
				/>
		</g>
	</g>
	<g>
		<g>
			<path style="fill-rule:evenodd;clip-rule:evenodd;fill:#325F73;" d="M227.95,21.65L227.8,23c0.033,0.933,0.45,1.55,1.25,1.85
				c0.8,0.267,1.467-0.15,2-1.25c0.233-0.533,0.4-1.1,0.5-1.7l0.2,1.8c-0.167,1.167-0.983,1.716-2.45,1.65
				c-1.467-0.067-2.133-0.7-2-1.9L227.95,21.65z"/>
		</g>
	</g>
	<g>
		<g>
			<path style="fill-rule:evenodd;clip-rule:evenodd;fill:#325F73;" d="M233.25,9.05c0.128-0.568,0.203-1.001,0.225-1.3
				c0.12,0.278,0.295,0.678,0.525,1.2c0.2,1.167-0.583,1.867-2.35,2.1c-1.534-0.033-2.233-0.65-2.101-1.85
				c0.347-0.987,0.547-1.578,0.601-1.775L230,8.7c0.066,0.966,0.533,1.566,1.4,1.8C232.4,10.7,233.017,10.217,233.25,9.05z"/>
		</g>
	</g>
	<g>
		<g>
			<path style="fill-rule:evenodd;clip-rule:evenodd;fill:#448793;" d="M252.7,12.775c-0.067,0.136-0.184,0.361-0.351,0.675
				c-0.233,0.633-0.033,1.133,0.601,1.5c0.633,0.267,1.133,0.017,1.5-0.75c0.2-0.367,0.333-0.767,0.399-1.2l0.101,1.25
				c-0.134,0.867-0.767,1.25-1.9,1.15c-1.267-0.4-1.666-0.983-1.2-1.75C252.289,13.232,252.572,12.94,252.7,12.775z"/>
		</g>
	</g>
	<g>
		<g>
			<path style="fill-rule:evenodd;clip-rule:evenodd;fill:#448793;" d="M250.7,28.3c-1.9-0.933-2.4-1.95-1.5-3.05
				c0.857-0.649,1.383-1.091,1.575-1.325c-0.121,0.202-0.396,0.56-0.825,1.075c-0.467,0.967-0.267,1.817,0.6,2.55
				c1.066,0.6,1.95,0.317,2.65-0.85c0.335-0.549,0.561-1.141,0.675-1.775c-0.001,0.292,0.057,0.934,0.175,1.925
				C253.85,28.217,252.733,28.7,250.7,28.3z"/>
		</g>
	</g>
	<g>
		<g>
			<path style="fill-rule:evenodd;clip-rule:evenodd;fill:#448793;" d="M268.4,29.15c0.1,1.633-1.167,2.333-3.801,2.1
				c-2.233-0.8-2.899-1.9-2-3.3c0.939-0.939,1.498-1.539,1.676-1.8c-0.11,0.226-0.386,0.709-0.825,1.45
				c-0.434,1.2-0.117,2.167,0.95,2.9c2.167,0.985,3.25-0.198,3.25-3.55C267.723,27.253,267.973,27.986,268.4,29.15z"/>
		</g>
	</g>
	<g>
		<g>
			<path style="fill-rule:evenodd;clip-rule:evenodd;fill:#448793;" d="M266.45,17.7l-0.05,0.65c0.033,0.467,0.25,0.767,0.649,0.9
				c0.634,0.233,1.033-0.25,1.2-1.45l0.1,0.9c-0.066,0.6-0.466,0.883-1.199,0.85c-0.733-0.033-1.067-0.35-1-0.95L266.45,17.7z"/>
		</g>
	</g>
	<g>
		<g>
			<path style="fill-rule:evenodd;clip-rule:evenodd;fill:#448793;" d="M244.55,17.8c0.233-0.433,0.384-0.9,0.45-1.4l0.15,1.45
				c-0.134,0.967-0.851,1.383-2.15,1.25c-1.333-0.333-1.8-0.95-1.4-1.85c0.503-0.628,0.795-1.028,0.875-1.2
				c-0.043,0.141-0.168,0.441-0.375,0.9c-0.166,0.733,0.084,1.3,0.75,1.7C243.55,18.95,244.116,18.667,244.55,17.8z"/>
		</g>
	</g>
	<g>
		<g>
			<path style="fill-rule:evenodd;clip-rule:evenodd;fill:#325F73;" d="M182.4,4.65c0.033,0-0.134,0.467-0.5,1.4
				c-0.134,1.034,0.25,1.784,1.149,2.25c0.967,0.434,1.75,0.034,2.351-1.2c0.3-0.6,0.483-1.233,0.55-1.9
				c0.233,0.667,0.3,1.333,0.2,2c-0.2,1.3-1.167,1.867-2.9,1.7c-1.767-0.333-2.417-1.133-1.95-2.4
				C181.533,5.867,181.9,5.25,182.4,4.65z"/>
		</g>
	</g>
	<g>
		<g>
			<path style="fill-rule:evenodd;clip-rule:evenodd;fill:#325F73;" d="M101.2,29.55c-2.6-0.733-3.45-1.867-2.55-3.4
				c0.853-0.874,1.395-1.482,1.625-1.825c-0.124,0.288-0.366,0.763-0.725,1.425c-0.4,1.3,0.034,2.283,1.3,2.95
				c1.467,0.5,2.467-0.083,3-1.75c0.21-1.365,0.327-2.182,0.35-2.45c0.055,0.265,0.305,1.065,0.75,2.4
				C105.017,28.633,103.767,29.517,101.2,29.55z"/>
		</g>
	</g>
	<g>
		<g>
			<path style="fill-rule:evenodd;clip-rule:evenodd;fill:#325F73;" d="M77.1,26.525c0.061,0.257,0.261,0.815,0.6,1.675
				c0.1,1.3-0.917,1.883-3.05,1.75c-2-1-2.5-1.967-1.5-2.9c0.64-0.328,1.098-0.586,1.375-0.775
				c-0.146,0.167-0.354,0.392-0.625,0.675c-0.533,0.9-0.35,1.683,0.55,2.35c1.167,0.534,1.966,0.184,2.4-1.05
				C76.987,27.362,77.07,26.787,77.1,26.525z"/>
		</g>
	</g>
	<g>
		<g>
			<path style="fill-rule:evenodd;clip-rule:evenodd;fill:#325F73;" d="M72.7,9.25c-0.067,0-0.1,0.217-0.1,0.65
				c0,0.5,0.15,0.85,0.45,1.05c0.6,0.333,1.067-0.083,1.4-1.25l0.05,0.95c-0.1,0.567-0.567,0.75-1.4,0.55
				c-0.6-0.133-0.867-0.5-0.8-1.1C72.4,9.467,72.533,9.183,72.7,9.25z"/>
		</g>
	</g>
	<g>
		<g>
			<path style="fill-rule:evenodd;clip-rule:evenodd;fill:#325F73;" d="M101.8,5.6c0.498-0.45,0.797-0.75,0.9-0.9
				c-0.062,0.132-0.212,0.382-0.45,0.75c-0.233,0.633-0.1,1.167,0.4,1.6c1.056,0.627,1.772,0.077,2.15-1.65
				c-0.013,0.149,0.021,0.582,0.1,1.3c-0.167,0.833-0.9,1.1-2.2,0.8C101.6,7,101.3,6.367,101.8,5.6z"/>
		</g>
	</g>
	<path style="fill-rule:evenodd;clip-rule:evenodd;fill:#8FB3BC;" d="M138.35,48.8l-1.5-1.95c2.266,0.933,3.85,3.833,4.75,8.7
		c0.467,2.434,0.7,4.784,0.7,7.05l-3.1-0.15c0.833-3.4,1.133-6.367,0.899-8.9C139.967,51.983,139.384,50.4,138.35,48.8z"/>
</g>
</svg>
