<?xml version="1.0" encoding="iso-8859-1"?>
<!-- Generator: Adobe Illustrator 15.1.0, SVG Export Plug-In . SVG Version: 6.00 Build 0)  -->
<!DOCTYPE svg PUBLIC "-//W3C//DTD SVG 1.1//EN" "http://www.w3.org/Graphics/SVG/1.1/DTD/svg11.dtd">
<svg version="1.1" id="Layer_3" xmlns="http://www.w3.org/2000/svg" xmlns:xlink="http://www.w3.org/1999/xlink" x="0px" y="0px"
	 width="113.75px" height="167.8px" viewBox="0 0 113.75 167.8" style="enable-background:new 0 0 113.75 167.8;"
	 xml:space="preserve">
<symbol  id="FlashAICB_x2F_Layer_3_x2F__x3C_Path_x3E__x5F_8" viewBox="0 -9.75 113.75 9.75">
	<g id="Layer_1_2_">
		<polygon style="fill-rule:evenodd;clip-rule:evenodd;fill:#615A42;" points="113.75,-0.5 107.5,-9.75 0,-8.75 8.5,0 		"/>
	</g>
</symbol>
<g>
	
		<use xlink:href="#FlashAICB_x2F_Layer_3_x2F__x3C_Path_x3E__x5F_8"  width="113.75" height="9.75" y="-9.75" transform="matrix(1 0 0 -1 0 158.0498)" style="overflow:visible;opacity:0.5;enable-background:new    ;"/>
	
		<linearGradient id="SVGID_1_" gradientUnits="userSpaceOnUse" x1="9.5869" y1="-71.8379" x2="55.0083" y2="-71.8379" gradientTransform="matrix(0.104 0.9946 -0.9946 0.104 7.319450e-005 1.663268e-004)">
		<stop  offset="0" style="stop-color:#E6BA8B"/>
		<stop  offset="1" style="stop-color:#C99968"/>
	</linearGradient>
	<path style="fill-rule:evenodd;clip-rule:evenodd;fill:url(#SVGID_1_);" d="M50.45,1.35l4.95-1.3c4.133-0.367,8.35,0.633,12.65,3
		C75.65,7.25,83.134,20.933,90.5,44.1c5.7,17.967,10.283,37.733,13.75,59.3c2.066,12.8,4.167,31.233,6.3,55.3l-4.149,7.05L52.8,2.95
		L50.45,1.35z"/>
	<path style="fill-rule:evenodd;clip-rule:evenodd;fill:#C1AF7A;" d="M52.8,0.8C71.566-0.633,86.134,26.433,96.5,82
		c5.167,27.767,8.467,55.684,9.9,83.75L2.1,165.9c1.167-26.967,4.15-54.067,8.95-81.301C20.683,30.133,34.6,2.2,52.8,0.8z"/>
	<path style="fill-rule:evenodd;clip-rule:evenodd;fill:#6B6448;" d="M91.3,88.5c1.5,10.866,2.851,22.134,4.05,33.8
		c0.7,4.7,2.351,19.217,4.95,43.55L5.45,165.95c0.733-9,1.75-19.417,3.05-31.25c2.533-23.634,5.15-42.434,7.85-56.4
		c2.9-15.1,6.683-28.633,11.35-40.6c3.867-9.867,7.767-17.35,11.7-22.45c2.934-3.8,6.133-6.15,9.6-7.05
		c2.333-0.633,4.9-0.583,7.7,0.15c3.233,0.8,6.666,3.167,10.3,7.1c5.434,5.933,10.167,14.466,14.2,25.6
		C84.967,51.517,88.333,67.333,91.3,88.5z"/>
	<path style="fill-rule:evenodd;clip-rule:evenodd;fill:#A46F3F;" d="M72.65,24.8c6.933,11.7,11.866,27.2,14.8,46.5
		c2.833,18.601,6.733,50.101,11.7,94.5L6.2,165.9c1-11.967,2.383-25.384,4.15-40.25c3.566-29.733,7.316-51.833,11.25-66.3
		c4.4-16.133,9.283-28.667,14.65-37.6c4.867-8.1,9.6-12.433,14.2-13C58.316,7.783,65.717,13.133,72.65,24.8z"/>
	<g>
		<path style="fill-rule:evenodd;clip-rule:evenodd;fill:#B18961;" d="M26.35,44.05c2.7-7.9,5.633-14.7,8.8-20.4
			c-3.267,29.2-5.017,50.633-5.25,64.3c-0.167,9.7-0.316,35.666-0.45,77.899L19.2,165.9c1.933-28.2,3-47.917,3.2-59.15
			C22.667,95.517,23.983,74.617,26.35,44.05z"/>
		<path style="fill-rule:evenodd;clip-rule:evenodd;fill:#AF7642;" d="M44.35,11.65c1.867-1.5,3.617-2.417,5.25-2.75
			c-1.233,10.333-1.867,17.15-1.9,20.45c0,1.333,0.533,6.667,1.6,16c1,9,1.45,15.633,1.35,19.9c-0.1,4.1-0.95,9.033-2.55,14.8
			c-1.567,5.634-2.35,9.351-2.35,11.15c-0.033,2.399,0.55,27.283,1.75,74.649h-9.95c0.034-5.666,0.333-20.649,0.9-44.949
			c0.566-23.2,0.833-37.15,0.8-41.851C39.183,69.117,40.883,46.65,44.35,11.65z"/>
		<path style="fill-rule:evenodd;clip-rule:evenodd;fill:#B18961;" d="M58.25,10.05c3.267,1.5,6.4,4.05,9.4,7.65
			c1.1,16.8,1.3,27.216,0.6,31.25c-0.566,3.2-0.95,12.9-1.15,29.1c-0.033,2.6-0.1,12.816-0.199,30.65
			c0,7.6,0.399,26.649,1.199,57.149H58.2c-0.066-22.767-0.167-38.199-0.3-46.3c-0.067-3.434,0.283-11.517,1.05-24.25
			C59.783,81.1,60.25,72,60.35,68C60.517,61.2,59.816,41.883,58.25,10.05z"/>
		<path style="fill-rule:evenodd;clip-rule:evenodd;fill:#AF7642;" d="M74.95,84.65c0-5.767,0.633-22.967,1.899-51.601
			c3.034,6.767,5.584,14.45,7.65,23.05c1.4,39.8,2.1,62.583,2.1,68.35c-0.033,5.434,0.517,19.217,1.65,41.35H75.5
			c0.8-22.1,1.2-34.283,1.2-36.55c0-1.467-0.3-8.366-0.9-20.7C75.2,96.384,74.917,88.417,74.95,84.65z"/>
		<path style="fill-rule:evenodd;clip-rule:evenodd;fill:#AF7642;" d="M51.95,8.65c1.3,0,2.517,0.167,3.65,0.5
			c0.6,34.3,0.667,55.517,0.2,63.65c-0.367,6.967-0.55,37.983-0.55,93.05h-5c0.567-28.1,0.767-47.066,0.6-56.899
			c-0.1-5.767,0.35-13.25,1.35-22.45c1.066-9.567,1.6-15.5,1.6-17.8C53.833,63.8,53.217,43.783,51.95,8.65z"/>
		<path style="fill-rule:evenodd;clip-rule:evenodd;fill:#AF7642;" d="M14.95,92.3c2.167-13.533,4.383-24.517,6.65-32.95L22,58.1
			l-9.2,107.8h-3c1-16,1.534-26.834,1.6-32.5C11.433,127.533,12.617,113.833,14.95,92.3z"/>
		<path style="fill-rule:evenodd;clip-rule:evenodd;fill:#B18961;" d="M91.3,99.5c1.566,12.366,3.101,25.033,4.601,38l0.75,28.3
			H91.5l-0.75-17.149C90.583,144.616,90.767,128.233,91.3,99.5z"/>
	</g>
	<path style="fill-rule:evenodd;clip-rule:evenodd;fill:#62452B;" d="M73.3,90.2l5,3.1c3.267,2.533,4.684,5,4.25,7.4
		c-0.533,2.967-2.8,4.483-6.8,4.55c-4.066,0.033-6.467-1.65-7.2-5.05c-0.633-2.9-0.033-5.434,1.8-7.601L73.3,90.2z"/>
	<path style="fill-rule:evenodd;clip-rule:evenodd;fill:#724F30;" d="M81.5,91.45c1.167,1.267,1.8,2.934,1.9,5
		c0.066,2-0.417,3.75-1.45,5.25c-1.134,1.666-2.684,2.583-4.65,2.75c-2.399,0.066-4.316-0.65-5.75-2.15
		c-1.267-1.333-1.916-3.017-1.95-5.05c-0.066-2,0.467-3.717,1.601-5.15c1.233-1.566,2.916-2.399,5.05-2.5
		C78.417,89.366,80.167,89.983,81.5,91.45z"/>
	<path style="fill-rule:evenodd;clip-rule:evenodd;fill:#583F29;" d="M73.05,91.95c0.867-0.566,1.384-0.75,1.55-0.55
		c0.134,0.133,0.084,0.6-0.149,1.399c-0.733,2.5-0.95,4.217-0.65,5.15c0.367,1.166,1.233,2.316,2.601,3.45
		c0.966,0.8,1.267,1.316,0.899,1.55c-0.833,0.5-1.833,0.55-3,0.149c-1.434-0.533-2.434-1.75-3-3.649
		c-0.533-1.767-0.399-3.55,0.4-5.351L73.05,91.95z"/>
	<path style="fill-rule:evenodd;clip-rule:evenodd;fill:#9A693C;" d="M80.8,97.7c-1.033-0.134-1.95-1.084-2.75-2.851
		C77.217,93.05,77.3,92,78.3,91.7c1.2-0.367,2.184,0.566,2.95,2.8C82.017,96.767,81.866,97.833,80.8,97.7z"/>
</g>
</svg>
