<?xml version="1.0" encoding="iso-8859-1"?>
<!-- Generator: Adobe Illustrator 15.1.0, SVG Export Plug-In . SVG Version: 6.00 Build 0)  -->
<!DOCTYPE svg PUBLIC "-//W3C//DTD SVG 1.1//EN" "http://www.w3.org/Graphics/SVG/1.1/DTD/svg11.dtd">
<svg version="1.1" id="Layer_3" xmlns="http://www.w3.org/2000/svg" xmlns:xlink="http://www.w3.org/1999/xlink" x="0px" y="0px"
	 width="126.65px" height="172.4px" viewBox="0 0 126.65 172.4" style="enable-background:new 0 0 126.65 172.4;"
	 xml:space="preserve">
<g>
	<g>
		<path style="fill-rule:evenodd;clip-rule:evenodd;fill:#867344;" d="M0,73.25c0.4-16.633,4.717-32.2,12.95-46.7
			C20.517,13.317,32.1,5.017,47.7,1.65c7.8-1.7,14.833-2.066,21.1-1.1L26.05,172.15l-6.95-3.9c-1.767-7.5-4.2-16.167-7.3-26
			c-2.566-8.033-4.816-16.9-6.75-26.6C1.45,97.95-0.233,83.817,0,73.25z"/>
		<path style="fill-rule:evenodd;clip-rule:evenodd;fill:#C5A65E;" d="M47.75,3.85c8.8-3.067,17.767-4.184,26.9-3.35
			c9.899,0.867,19.183,4,27.85,9.4c18.934,11.767,26.733,42.383,23.4,91.85c-1.634,24.733-5.184,48.283-10.65,70.65l-89.2-0.25
			c-5.566-13.067-10.316-28.534-14.25-46.4c-7.833-35.7-7.6-65.483,0.7-89.35c2.5-7.233,6.917-13.75,13.25-19.55
			C32.017,11.083,39.35,6.75,47.75,3.85z"/>
		<path style="fill-rule:evenodd;clip-rule:evenodd;fill:#482E32;" d="M118.5,88.65c0.1,7.366-0.316,16.449-1.25,27.25
			c-0.767,8.199-3.8,26.899-9.1,56.1h-77c-3.167-8.467-6.333-18.35-9.5-29.65c-6.3-22.533-9.35-40.783-9.15-54.75
			c0.233-18.633,3.633-33.183,10.2-43.649c7.3-11.633,18.85-18.867,34.65-21.7c16.2-2.9,28.784-1.817,37.75,3.25
			c8.467,4.767,14.617,13.717,18.45,26.85C116.65,63.017,118.3,75.117,118.5,88.65z"/>
		<path style="fill-rule:evenodd;clip-rule:evenodd;fill:#6E4249;" d="M115.5,93.4c-0.167,15.966-2.184,33.85-6.05,53.649
			c-1.9,9.934-3.8,18.25-5.7,24.95h-69.7c-2.367-5.434-4.883-12.316-7.55-20.65c-5.333-16.633-8.767-32.133-10.3-46.5
			c-2.167-20.133-0.35-36.583,5.45-49.35c7.233-15.933,20.483-25.6,39.75-29c20.1-3.567,34.65,1.817,43.65,16.15
			C112.217,54.117,115.7,71.033,115.5,93.4z"/>
		<path style="fill-rule:evenodd;clip-rule:evenodd;fill:#57363A;" d="M96.1,107.2c2.567-0.566,4.534-0.233,5.9,1
			c1.2,1.1,1.783,2.666,1.75,4.7c-0.033,1.933-0.6,3.666-1.7,5.199c-1.166,1.667-2.633,2.551-4.399,2.65
			c-2.667,0.134-4.7-0.4-6.101-1.6c-1.267-1.067-1.883-2.483-1.85-4.25c0.033-1.7,0.616-3.284,1.75-4.75
			C92.65,108.616,94.2,107.634,96.1,107.2z"/>
		<path style="fill-rule:evenodd;clip-rule:evenodd;fill:#643C42;" d="M52.1,132.85c1.533,0.167,3.133,1.834,4.8,5
			c1.667,3.134,2.817,6.567,3.45,10.301c0.7,4.166,0.517,7.5-0.55,10c-1.3,2.933-3.733,4.283-7.3,4.05c-3.6-0.233-6.3-1.95-8.1-5.15
			c-1.566-2.833-2.217-6.283-1.95-10.35c0.233-3.9,1.216-7.2,2.95-9.9C47.267,133.866,49.5,132.55,52.1,132.85z M52.95,143.6
			c-0.434-3.733-1.483-5.366-3.15-4.899c-1.466,0.434-2.233,2.333-2.3,5.7c-0.1,3.433,0.867,5.083,2.9,4.949
			C52.5,149.217,53.35,147.3,52.95,143.6z"/>
		<path style="fill-rule:evenodd;clip-rule:evenodd;fill:#643C42;" d="M91.45,57c1.3-0.067,2.399,0.667,3.3,2.2
			c0.833,1.4,1.3,3.083,1.4,5.05c0.1,2-0.25,3.65-1.051,4.95c-0.866,1.5-2.166,2.2-3.899,2.1c-1.767-0.1-3.15-0.883-4.15-2.35
			c-0.934-1.367-1.383-2.983-1.35-4.85s0.533-3.467,1.5-4.8C88.233,57.867,89.65,57.1,91.45,57z"/>
		<path style="fill-rule:evenodd;clip-rule:evenodd;fill:#643C42;" d="M49.2,39.85c1.9,0.467,3.383,2.167,4.45,5.1
			c1,2.733,1.434,5.8,1.3,9.2c-0.2,3.567-0.983,6.434-2.35,8.6c-1.533,2.467-3.6,3.517-6.2,3.15s-4.45-2.05-5.55-5.05
			c-0.934-2.633-1.15-5.75-0.65-9.35c0.5-3.533,1.55-6.433,3.15-8.7C45.083,40.333,47.033,39.35,49.2,39.85z M51.45,45.55
			c-0.833-1.933-1.983-3-3.45-3.2c-0.967-0.133-1.883,0.717-2.75,2.55c-0.833,1.7-1.383,3.733-1.65,6.1
			c-0.733,6.067,0.5,9.2,3.7,9.4c1.6,0.1,2.883-0.733,3.85-2.5c0.867-1.6,1.333-3.617,1.4-6.05
			C52.583,49.45,52.217,47.35,51.45,45.55z"/>
		<path style="fill-rule:evenodd;clip-rule:evenodd;fill:#643C42;" d="M59.6,45l0.5,4c0.267,3.133,0.267,5.85,0,8.15
			c-0.233,2.233-1.367,5.4-3.4,9.5c-1.1,2.167-2.5,4.883-4.2,8.15c-0.667,1.5-0.683,3.117-0.05,4.85
			c0.433,1.167,1.45,3.783,3.05,7.85c1.033,3.167,1.35,6.733,0.95,10.7c-0.2,2-0.517,3.666-0.95,5c0.267-1.667,0.35-3.384,0.25-5.15
			c-0.133-3.467-1-5.35-2.6-5.649c-1.6-0.301-2.85,2.733-3.75,9.1c-0.433,3.2-0.717,6.417-0.85,9.65
			c-0.2-12.534-0.767-22.334-1.7-29.4c-0.533-4.2-1.85-7.2-3.95-9c-1.267-1-2.25-1.817-2.95-2.45c-1.267-1.1-2.367-2.4-3.3-3.9
			c-1.867-3.033-2.65-8.467-2.35-16.3l1-10.85l0.4,4.8c0.267,3.833,0.35,7.267,0.25,10.3c-0.133,3.5,0.8,6.566,2.8,9.2
			c1.867,2.467,4.383,4.267,7.55,5.4c2.733,0.966,5.25,0.017,7.55-2.85c1.9-2.434,3.15-5.417,3.75-8.95L59.6,45z"/>
		<path style="fill-rule:evenodd;clip-rule:evenodd;fill:#643C42;" d="M24.45,64.2l-0.7,10.7c-0.467,7.833-0.667,13.55-0.6,17.15
			c0.067,3.533,3,17.066,8.8,40.601c2.9,11.767,5.8,23.166,8.7,34.199L38,166c-2.7-10.167-5.467-20.884-8.3-32.15
			c-5.667-22.533-8.817-36.6-9.45-42.199c-0.633-5.7-0.117-11.984,1.55-18.851L24.45,64.2z"/>
		<path style="fill-rule:evenodd;clip-rule:evenodd;fill:#643C42;" d="M28.25,56.3l4.95,16.45c3.333,11.567,5.017,18.934,5.05,22.1
			l0.4,41c-2.4-18.267-3.867-30.649-4.4-37.149c-0.3-4.101-1.4-12.4-3.3-24.9L28.25,56.3z"/>
		<polygon style="fill-rule:evenodd;clip-rule:evenodd;fill:#643C42;" points="27.55,85.15 32.55,122.4 27.25,97 		"/>
		<path style="fill-rule:evenodd;clip-rule:evenodd;fill:#643C42;" d="M51.85,114.65l-0.3,4.25c-0.4,3.166-1.15,5.533-2.25,7.1
			c-3.633,5.267-5.95,9.384-6.95,12.35c-0.767,2.233-1.2,7.684-1.3,16.351c-0.367-2-0.65-4.3-0.85-6.9
			c-0.4-5.166-0.117-9.149,0.85-11.95c0.867-2.6,2.233-5.517,4.1-8.75c1.8-3.1,2.783-4.933,2.95-5.5
			c0.333-1.033,1.066-2.5,2.2-4.399L51.85,114.65z"/>
		<polygon style="fill-rule:evenodd;clip-rule:evenodd;fill:#643C42;" points="41.55,101.1 43.4,88.65 44.45,118.4 		"/>
		<path style="fill-rule:evenodd;clip-rule:evenodd;fill:#643C42;" d="M65.55,49.25l0.3-13.35l3.4,39.1
			c0.267,3.367,0.066,11.617-0.6,24.75c-0.334,6.9-0.801,15.184-1.4,24.85c-0.167,3.367,0.316,8.067,1.45,14.101
			c0.566,3.033,1.149,5.717,1.75,8.05l-6.851,21.1c0.467-39.199,0.767-62.449,0.9-69.75c0.1-4.733-0.233-8.05-1-9.949
			c-1.133-1.8-2.083-3.434-2.85-4.9c-2.066-3.967-1.333-9.333,2.2-16.1C64.184,64.617,65.083,58.65,65.55,49.25z"/>
		<path style="fill-rule:evenodd;clip-rule:evenodd;fill:#643C42;" d="M58.1,107.7l1.6,0.8c1.1,0.9,1.75,2.35,1.95,4.35
			c0.3,3.2-0.15,10.2-1.35,21L58.1,107.7z"/>
		<path style="fill-rule:evenodd;clip-rule:evenodd;fill:#643C42;" d="M79.55,33.3l-1.7,46.55c-0.066,2.133,0.384,6.917,1.351,14.35
			c0.6,4.899,0.25,8.083-1.05,9.55c-1.801,2.066-3.601,2.684-5.4,1.85c-1.9-0.866-2.333-2.899-1.3-6.1c0.934-3,1.7-7.55,2.3-13.65
			c0.333-3.6,0.7-8.867,1.1-15.8c0.4-6.6-0.166-19.95-1.699-40.05L76.8,43.15L79.55,33.3z"/>
		<polygon style="fill-rule:evenodd;clip-rule:evenodd;fill:#643C42;" points="75.15,119.35 79.2,114.95 76.15,141.65 		"/>
		<path style="fill-rule:evenodd;clip-rule:evenodd;fill:#643C42;" d="M77,160.2c1.934-4.967,3.25-9.517,3.95-13.65
			c0.7-4.2,1.2-12.8,1.5-25.8l0.3-18.25l4.7,13.15l-1.601,7.75c-1.033,6-1.483,10.983-1.35,14.949
			c0.267,6.301,1.583,16.184,3.95,29.65l-3.55-6.2l-2.051-8.649l-8.55,13.3C75.134,164.783,76.033,162.7,77,160.2z"/>
		<path style="fill-rule:evenodd;clip-rule:evenodd;fill:#643C42;" d="M103.3,139.3l2.101-16.2c1.5,4.034,0.883,12.75-1.851,26.15
			c-1.399,6.7-2.934,13-4.6,18.9l-3.2,0.25c0.833-2.4,2.05-5.367,3.65-8.9C100.434,157.3,101.733,150.566,103.3,139.3z"/>
		<path style="fill-rule:evenodd;clip-rule:evenodd;fill:#643C42;" d="M90.55,125.15l3.851,8.05l5.1-8.95l-1.2,7.3
			c-0.899,5.3-1.649,9.017-2.25,11.15c-0.967,3.434-2.366,10.017-4.2,19.75c0.301-6.934,0.284-12.617-0.05-17.05
			c-0.233-2.801-0.517-7.017-0.85-12.65L90.55,125.15z"/>
		<path style="fill-rule:evenodd;clip-rule:evenodd;fill:#643C42;" d="M99.95,54l3.5,6.45c2.399,4.867,3.85,8.783,4.35,11.75
			c0.5,2.933,0.367,8.75-0.399,17.45c-0.367,4.333-0.801,8.383-1.301,12.149c-0.3-2-0.583-4.416-0.85-7.25
			c-0.533-5.666-0.717-10.566-0.55-14.7c0.2-4.2-0.533-9.767-2.2-16.7L99.95,54z"/>
		<path style="fill-rule:evenodd;clip-rule:evenodd;fill:#643C42;" d="M83.4,58.9l0.5,5.7c0.633,4.033,1.733,6.7,3.3,8
			c1.533,1.267,3.767,1.617,6.7,1.05c1.466-0.3,2.783-0.717,3.949-1.25c-1.166,0.7-2.333,1.583-3.5,2.65
			c-2.333,2.067-3.483,3.934-3.449,5.6c0.033,2.667,1.366,8.6,4,17.8l-6.15,3.149c-0.3-3.333-0.717-6.816-1.25-10.449
			c-1.1-7.3-2.267-11.717-3.5-13.25s-1.7-5.167-1.4-10.9L83.4,58.9z"/>
		<polygon style="fill-rule:evenodd;clip-rule:evenodd;fill:#643C42;" points="87.35,37 91.25,44.15 88.05,54.15 		"/>
		<path style="fill-rule:evenodd;clip-rule:evenodd;fill:#482E32;" d="M97.1,106.25c2.567-0.566,4.534-0.233,5.9,1
			c1.2,1.1,1.783,2.667,1.75,4.7c-0.033,1.967-0.6,3.717-1.7,5.25c-1.2,1.666-2.666,2.55-4.399,2.649
			c-2.667,0.134-4.7-0.416-6.101-1.649c-1.267-1.066-1.883-2.483-1.85-4.25c0.033-1.7,0.616-3.283,1.75-4.75
			C93.65,107.667,95.2,106.684,97.1,106.25z"/>
	</g>
	<path style="fill-rule:evenodd;clip-rule:evenodd;fill:#A48B63;" d="M98.45,107.4c2.233-0.267,3.783,0.55,4.649,2.449
		c0.733,1.634,0.801,2.983,0.2,4.051c-0.333,0.6-0.767,0.816-1.3,0.649l-0.7-0.399c0.4-1.101,0.517-2.334,0.351-3.7
		c-0.067-0.867-0.617-1.634-1.65-2.3L98.45,107.4z"/>
	<path style="fill-rule:evenodd;clip-rule:evenodd;fill:#382427;" d="M92.45,110.7c1.166-1,2.25-0.467,3.25,1.6
		c1.233,2.566,2.166,3.917,2.8,4.05c1.467,0.334,2.033,0.801,1.7,1.4c-0.3,0.667-1.733,0.917-4.3,0.75
		c-2.334-0.134-3.601-1.467-3.801-4L92.45,110.7z"/>
</g>
</svg>
