<?xml version="1.0" encoding="iso-8859-1"?>
<!-- Generator: Adobe Illustrator 15.1.0, SVG Export Plug-In . SVG Version: 6.00 Build 0)  -->
<!DOCTYPE svg PUBLIC "-//W3C//DTD SVG 1.1//EN" "http://www.w3.org/Graphics/SVG/1.1/DTD/svg11.dtd">
<svg version="1.1" id="Layer_3" xmlns="http://www.w3.org/2000/svg" xmlns:xlink="http://www.w3.org/1999/xlink" x="0px" y="0px"
	 width="124.6px" height="124.25px" viewBox="0 0 124.6 124.25" style="enable-background:new 0 0 124.6 124.25;"
	 xml:space="preserve">
<path style="fill-rule:evenodd;clip-rule:evenodd;fill:#998C64;" d="M122.9,49.8c2.267,7.833,2.25,17.45-0.051,28.851
	c-2.699,13.6-8.1,24.616-16.199,33.05c-4.233,4.399-10.5,7.717-18.801,9.95c-8.199,2.233-17.033,3.033-26.5,2.399
	c-10.033-0.633-19.267-2.8-27.7-6.5c-9.333-4.1-16.783-9.717-22.35-16.85C1.567,88.2-1.883,72.934,0.95,54.9
	c1.433-9.033,3.833-16.816,7.2-23.35c4.967-2.966,13.717-4.383,26.25-4.25c11.2,0.1,23.733,1.367,37.6,3.8
	c13.366,2.367,24.816,5.233,34.35,8.6C116.483,43.3,122,46.667,122.9,49.8z"/>
<path style="fill-rule:evenodd;clip-rule:evenodd;fill:#C1AF7A;" d="M107.6,18.2c10.7,11.233,16.051,25.517,16.051,42.85
	c0,19.834-4.95,35.017-14.851,45.55c-9.7,10.301-23.416,15.45-41.149,15.45c-18.767,0-34.434-4.95-47-14.85
	c-13.8-10.934-20.467-25.65-20-44.15c0.5-19.267,6.75-34.767,18.75-46.5c11.767-11.5,26.517-17,44.25-16.5
	C81.917,0.583,96.566,6.633,107.6,18.2z"/>
<path style="fill-rule:evenodd;clip-rule:evenodd;fill:#6B6448;" d="M98.9,24.55c10.433,10.167,15.683,22.583,15.75,37.25
	c0.1,19.233-6.184,33.283-18.851,42.15c-8.767,6.066-19.066,9.1-30.899,9.1c-7.667,0-14.5-0.916-20.5-2.75
	c-9.6-2.967-17.316-7.717-23.15-14.25C13.917,87.884,10.133,77.467,9.9,64.8c-0.333-18.333,6.017-32.566,19.05-42.7
	c5.1-3.934,10.85-6.934,17.25-9c5.533-1.767,10.767-2.617,15.7-2.55c6.4,0.067,12.5,1.05,18.3,2.95
	C87.533,15.867,93.767,19.55,98.9,24.55z"/>
<path style="fill-rule:evenodd;clip-rule:evenodd;fill:#A46F3F;" d="M113.3,60.55c0.867,14.033-2.767,25.9-10.899,35.601
	c-9.134,10.833-22.051,16.133-38.75,15.899c-16.734-0.233-29.917-5.366-39.55-15.399C15.467,87.684,11.083,76.6,10.95,63.4
	c-0.133-13,3.867-24.3,12-33.9c8.867-10.533,20.767-16.35,35.7-17.45c16.034-1.167,29.183,3.383,39.45,13.65
	C107.333,34.967,112.4,46.583,113.3,60.55z"/>
<g>
	<path style="fill-rule:evenodd;clip-rule:evenodd;fill:#AF7642;" d="M87.4,17.7c1.199,0.667,2.1,1.2,2.699,1.6
		c0.434,5.434,0.917,10.517,1.45,15.25c0.767,6.8,1.384,10.3,1.851,10.5c0.699,0.3,1.366-6.983,2-21.85l0.449,0.4
		c0.667,18.267,0.934,29.167,0.801,32.7c-0.067,1.534-0.884,5.483-2.45,11.851c-1.533,6.133-2.3,10.767-2.3,13.899
		c0,4.367,0.716,11.566,2.149,21.601c-2.366,1.633-4.816,3-7.35,4.1c1.066-16.467,1.717-27.283,1.95-32.45
		c0.066-1.333,0.666-4.399,1.8-9.2c1.066-4.366,1.55-8.3,1.45-11.8C91.733,48.6,90.233,36.4,87.4,17.7z"/>
	<path style="fill-rule:evenodd;clip-rule:evenodd;fill:#AF7642;" d="M43.45,15.2c2.7-0.967,5.583-1.733,8.65-2.3
		c0.467,12.567,0.316,21.533-0.45,26.9c-2.667,18.233-4,30.983-4,38.25c0,5.467,1.117,16.367,3.35,32.7
		c-2.9-0.6-5.467-1.283-7.7-2.05c-0.367-21.7-0.667-36.834-0.9-45.4C42.267,59.4,42.617,43.367,43.45,15.2z"/>
	<path style="fill-rule:evenodd;clip-rule:evenodd;fill:#AF7642;" d="M20.3,32.85c3.534-4.967,7.717-9.05,12.55-12.25
		C28.383,36.433,25.9,46,25.4,49.3c-0.367,2.267,0.15,8.034,1.55,17.3c1.667,10.9,2.566,17.467,2.7,19.7
		c0.233,4.9,0.65,10.283,1.25,16.15c-4-2.767-7.4-6.033-10.2-9.8c0.1-19.267,0.25-31.884,0.45-37.851
		C21.283,50.6,21,43.283,20.3,32.85z"/>
	<path style="fill-rule:evenodd;clip-rule:evenodd;fill:#AF7642;" d="M69.65,12.25c2.199,0.233,4.433,0.617,6.699,1.15
		c-0.3,33.7-0.366,53.25-0.199,58.65c0.1,4.2,1.199,16.934,3.3,38.2c-3.233,0.833-6.767,1.384-10.601,1.65
		C70.15,87.2,70.667,72.25,70.4,67.05C70.066,60.683,69.816,42.417,69.65,12.25z"/>
	<path style="fill-rule:evenodd;clip-rule:evenodd;fill:#B18961;" d="M64.9,27.55c-0.034,0.4-0.517,7.284-1.45,20.65
		c-0.7,10.066-1.05,17.934-1.05,23.6c0,8.4,0.666,21.8,2,40.2l-0.75,0.05c-2.3-0.066-4.351-0.184-6.15-0.35
		c0.267-9,0.483-15.217,0.65-18.65c0.167-3.934-0.217-11.717-1.15-23.35c-0.967-12.067-1.417-20.117-1.35-24.15
		c0.033-2.333,0.317-13.433,0.85-33.3l2.15-0.2c2.1-0.2,4.183-0.25,6.25-0.15C65.1,17.467,65.1,22.683,64.9,27.55z"/>
	<path style="fill-rule:evenodd;clip-rule:evenodd;fill:#B18961;" d="M101.65,29.7c1.399,1.767,2.616,3.5,3.649,5.2
		c-0.166,15.867,0.033,26.333,0.601,31.4c0.466,4.667,1.066,11.934,1.8,21.8c-1.566,3.067-3.517,5.934-5.851,8.601
		c-0.833-10.367-1.066-18.5-0.699-24.4C101.483,65.833,101.65,51.633,101.65,29.7z"/>
	<path style="fill-rule:evenodd;clip-rule:evenodd;fill:#AF7642;" d="M81.05,14.85l2.101,0.8c-0.667,11.767-1,19.733-1,23.9
		c0,1.934,0.5,4.184,1.5,6.75c1,2.6,1.5,4.6,1.5,6c0,0.733-0.434,3.617-1.301,8.65C83.017,65.684,82.7,70.134,82.9,74.3
		c0.267,5.967,0.5,17.517,0.699,34.65l-1.75,0.6c-0.199-15.899-0.517-28.566-0.949-38C80.467,62.85,80.517,43.95,81.05,14.85z"/>
	<path style="fill-rule:evenodd;clip-rule:evenodd;fill:#B18961;" d="M37.85,17.6l2.3-1.05c-1.4,21.9-2.316,35.15-2.75,39.75
		c-0.433,4.6,0.25,21.566,2.05,50.9c-1.333-0.601-2.067-0.95-2.2-1.05L36.4,76.8c-0.066-1.5-0.467-5.083-1.2-10.75
		c-0.633-4.933-0.9-8.767-0.8-11.5C34.533,50.117,35.683,37.8,37.85,17.6z"/>
	<path style="fill-rule:evenodd;clip-rule:evenodd;fill:#AF7642;" d="M12.95,48.4c1.2-4.333,2.966-8.467,5.3-12.4
		c-1.6,16.8-2.3,26.9-2.1,30.3c0.1,1.967,0.233,8.601,0.4,19.9c-1.233-2.3-2.333-4.95-3.3-7.95L12.95,48.4z"/>
</g>
<path style="fill-rule:evenodd;clip-rule:evenodd;fill:#62452B;" d="M24.7,59.95l5,3.1c3.267,2.533,4.683,5,4.25,7.4
	c-0.534,2.967-2.8,4.483-6.8,4.55c-4.066,0.033-6.467-1.65-7.2-5.05c-0.633-2.9-0.034-5.434,1.8-7.6L24.7,59.95z"/>
<path style="fill-rule:evenodd;clip-rule:evenodd;fill:#724F30;" d="M27.65,59.35c2.167-0.233,3.917,0.383,5.25,1.85
	c1.167,1.267,1.8,2.934,1.9,5c0.067,2-0.417,3.75-1.45,5.25c-1.133,1.666-2.684,2.583-4.65,2.75c-2.4,0.066-4.317-0.65-5.75-2.15
	C21.683,70.717,21.033,69.033,21,67c-0.067-2,0.467-3.717,1.6-5.15C23.833,60.283,25.517,59.45,27.65,59.35z"/>
<path style="fill-rule:evenodd;clip-rule:evenodd;fill:#583F29;" d="M24.45,61.7c0.867-0.567,1.383-0.75,1.55-0.55
	c0.133,0.133,0.083,0.6-0.15,1.4c-0.733,2.5-0.95,4.217-0.65,5.15c0.367,1.166,1.233,2.316,2.6,3.45c0.967,0.8,1.267,1.316,0.9,1.55
	c-0.833,0.5-1.833,0.55-3,0.149c-1.434-0.533-2.434-1.75-3-3.649c-0.534-1.767-0.4-3.55,0.4-5.351L24.45,61.7z"/>
<path style="fill-rule:evenodd;clip-rule:evenodd;fill:#9A693C;" d="M29.7,61.45c1.2-0.367,2.183,0.566,2.95,2.8
	c0.767,2.267,0.617,3.333-0.45,3.2c-1.034-0.134-1.95-1.084-2.75-2.851C28.617,62.8,28.7,61.75,29.7,61.45z"/>
</svg>
