<?xml version="1.0" encoding="iso-8859-1"?>
<!-- Generator: Adobe Illustrator 15.1.0, SVG Export Plug-In . SVG Version: 6.00 Build 0)  -->
<!DOCTYPE svg PUBLIC "-//W3C//DTD SVG 1.1//EN" "http://www.w3.org/Graphics/SVG/1.1/DTD/svg11.dtd">
<svg version="1.1" id="Layer_3" xmlns="http://www.w3.org/2000/svg" xmlns:xlink="http://www.w3.org/1999/xlink" x="0px" y="0px"
	 width="120.65px" height="182.35px" viewBox="0 0 120.65 182.35" style="enable-background:new 0 0 120.65 182.35;"
	 xml:space="preserve">
<symbol  id="FlashAICB_x2F_Layer_3_x2F__x3C_Path_x3E_" viewBox="0 -12.35 2.7 12.35">
	<g id="Layer_1_20_">
		<polygon style="fill-rule:evenodd;clip-rule:evenodd;fill:#CAC888;" points="0.7,-0.05 2.7,0 2,-11.65 0,-12.35 		"/>
	</g>
</symbol>
<symbol  id="FlashAICB_x2F_Layer_3_x2F__x3C_Path_x3E__x5F_1" viewBox="0 -25.4 3.75 25.4">
	<g id="Layer_1_19_">
		<polygon style="fill-rule:evenodd;clip-rule:evenodd;fill:#CAC888;" points="2.4,0 3.75,-0.3 2,-25.4 0,-24.4 		"/>
	</g>
</symbol>
<symbol  id="FlashAICB_x2F_Layer_3_x2F__x3C_Path_x3E__x5F_10" viewBox="0 -159.6 8 159.6">
	<g id="Layer_1_10_">
		<polygon style="fill-rule:evenodd;clip-rule:evenodd;fill:#CAC888;" points="6.65,0 8,-0.55 1.65,-159.6 0,-159.6 		"/>
	</g>
</symbol>
<symbol  id="FlashAICB_x2F_Layer_3_x2F__x3C_Path_x3E__x5F_11" viewBox="-0.008 -16.754 11.718 16.769">
	<g id="Layer_1_9_">
		<path style="fill-rule:evenodd;clip-rule:evenodd;fill:#CAC888;" d="M4.25,0c2.767-0.267,4.783-1.317,6.05-3.15
			c1.133-1.6,1.583-3.533,1.35-5.8c-0.2-2.1-0.9-3.933-2.1-5.5c-1.267-1.6-2.716-2.367-4.35-2.3c-1.567,0.067-2.833,1-3.8,2.8
			c-0.833,1.633-1.3,3.6-1.4,5.9c-0.067,2.267,0.267,4.167,1,5.7C1.767-0.65,2.85,0.133,4.25,0z"/>
	</g>
</symbol>
<symbol  id="FlashAICB_x2F_Layer_3_x2F__x3C_Path_x3E__x5F_12" viewBox="-0.002 -13.801 11.053 13.801">
	<g id="Layer_1_8_">
		<path style="fill-rule:evenodd;clip-rule:evenodd;fill:#CAC888;" d="M5.35,0C7.183-0.033,8.633-0.75,9.7-2.15
			c0.933-1.3,1.383-2.867,1.35-4.7c-0.033-1.833-0.533-3.4-1.5-4.7c-1.066-1.434-2.483-2.184-4.25-2.25
			c-1.733-0.034-3.083,0.667-4.05,2.1C0.383-10.433-0.033-8.85,0-6.95c0.033,1.867,0.517,3.467,1.45,4.8C2.45-0.717,3.75,0,5.35,0z"
			/>
	</g>
</symbol>
<symbol  id="FlashAICB_x2F_Layer_3_x2F__x3C_Path_x3E__x5F_13" viewBox="-0.04 -16.201 12.161 16.235">
	<g id="Layer_1_7_">
		<path style="fill-rule:evenodd;clip-rule:evenodd;fill:#CAC888;" d="M10.55-1.5c1.167-1.333,1.684-3.2,1.55-5.6
			c-0.133-2.333-0.8-4.383-2-6.15c-1.333-1.967-2.967-2.95-4.9-2.95C1.4-16.233-0.333-13.783,0-8.85
			c0.133,1.967,0.65,3.767,1.55,5.4C2.483-1.717,3.6-0.667,4.9-0.3C7.367,0.4,9.25,0,10.55-1.5z"/>
	</g>
</symbol>
<symbol  id="FlashAICB_x2F_Layer_3_x2F__x3C_Path_x3E__x5F_14" viewBox="-0.002 -18.151 12.535 18.161">
	<g id="Layer_1_6_">
		<path style="fill-rule:evenodd;clip-rule:evenodd;fill:#CAC888;" d="M11.15-2.15c1.067-1.567,1.517-3.65,1.35-6.25
			c-0.167-2.533-0.85-4.733-2.05-6.6c-1.3-2.067-2.883-3.117-4.75-3.15c-1.833-0.033-3.284,0.816-4.35,2.55
			C0.417-14-0.033-12.017,0-9.65C0.033-7.317,0.533-5.267,1.5-3.5c1.067,1.967,2.483,3.1,4.25,3.4C8.15,0.3,9.95-0.383,11.15-2.15z"
			/>
	</g>
</symbol>
<symbol  id="FlashAICB_x2F_Layer_3_x2F__x3C_Path_x3E__x5F_15" viewBox="0.026 -17.151 12.244 17.159">
	<g id="Layer_1_5_">
		<path style="fill-rule:evenodd;clip-rule:evenodd;fill:#CAC888;" d="M10-2.5c1.233-1.6,1.967-3.567,2.2-5.9
			c0.233-2.367-0.117-4.367-1.05-6c-1.066-1.833-2.717-2.75-4.95-2.75c-2.2-0.033-3.833,0.833-4.9,2.6
			c-0.966,1.5-1.383,3.433-1.25,5.8c0.1,2.233,0.633,4.2,1.6,5.9c1,1.8,2.2,2.75,3.6,2.85C7.117,0.1,8.7-0.733,10-2.5z"/>
	</g>
</symbol>
<symbol  id="FlashAICB_x2F_Layer_3_x2F__x3C_Path_x3E__x5F_16" viewBox="-0.007 -17.963 10.957 17.967">
	<g id="Layer_1_4_">
		<path style="fill-rule:evenodd;clip-rule:evenodd;fill:#CAC888;" d="M10.15-2.75c0.8-1.633,1-3.733,0.6-6.3
			c-0.367-2.4-1.117-4.483-2.25-6.25c-1.233-1.9-2.517-2.784-3.85-2.65c-1.333,0.133-2.433,1.133-3.3,3
			C0.517-13.217,0.067-11.2,0-8.9c-0.067,2.433,0.317,4.45,1.15,6.05C2.117-1.017,3.517-0.067,5.35,0
			C7.65,0.067,9.25-0.85,10.15-2.75z"/>
	</g>
</symbol>
<symbol  id="FlashAICB_x2F_Layer_3_x2F__x3C_Path_x3E__x5F_17" viewBox="0.024 -19.357 13.021 19.37">
	<g id="Layer_1_3_">
		<path style="fill-rule:evenodd;clip-rule:evenodd;fill:#CAC888;" d="M11.6-2.75c1.133-1.733,1.6-3.917,1.4-6.55
			c-0.167-2.6-0.9-4.867-2.2-6.8c-1.367-2.066-3.066-3.15-5.1-3.25c-1.967-0.1-3.467,0.833-4.5,2.8C0.3-14.817-0.083-12.633,0.05-10
			c0.1,2.6,0.684,4.85,1.75,6.75C2.933-1.183,4.35-0.1,6.05,0C8.517,0.133,10.367-0.783,11.6-2.75z"/>
	</g>
</symbol>
<symbol  id="FlashAICB_x2F_Layer_3_x2F__x3C_Path_x3E__x5F_18" viewBox="-0.022 -18.751 13.75 18.773">
	<g id="Layer_1_2_">
		<path style="fill-rule:evenodd;clip-rule:evenodd;fill:#CAC888;" d="M11.95-2.25c1.333-1.633,1.917-3.8,1.75-6.5
			c-0.167-2.633-0.967-4.917-2.4-6.85c-1.533-2.133-3.433-3.183-5.7-3.15C1.3-18.717-0.533-15.7,0.1-9.7
			c0.233,2.333,0.85,4.45,1.85,6.35C2.983-1.383,4.1-0.3,5.3-0.1C8.2,0.333,10.417-0.383,11.95-2.25z"/>
	</g>
</symbol>
<symbol  id="FlashAICB_x2F_Layer_3_x2F__x3C_Path_x3E__x5F_2" viewBox="0 -21.75 2.75 21.75">
	<g id="Layer_1_18_">
		<polygon style="fill-rule:evenodd;clip-rule:evenodd;fill:#CAC888;" points="1.4,-0.4 2.75,0 2,-21.75 0,-21.45 		"/>
	</g>
</symbol>
<symbol  id="FlashAICB_x2F_Layer_3_x2F__x3C_Path_x3E__x5F_3" viewBox="0 -15.6 2.45 15.6">
	<g id="Layer_1_17_">
		<polygon style="fill-rule:evenodd;clip-rule:evenodd;fill:#CAC888;" points="1.1,0 2.45,-0.25 2.05,-15.5 0,-15.6 		"/>
	</g>
</symbol>
<symbol  id="FlashAICB_x2F_Layer_3_x2F__x3C_Path_x3E__x5F_4" viewBox="0 -11.35 1.7 11.35">
	<g id="Layer_1_16_">
		<polygon style="fill-rule:evenodd;clip-rule:evenodd;fill:#CAC888;" points="0,0 1.7,-0.2 1.65,-11.35 0.3,-10.75 		"/>
	</g>
</symbol>
<symbol  id="FlashAICB_x2F_Layer_3_x2F__x3C_Path_x3E__x5F_5" viewBox="0 -12.75 2.3 12.75">
	<g id="Layer_1_15_">
		<polygon style="fill-rule:evenodd;clip-rule:evenodd;fill:#CAC888;" points="1,0 2.3,-0.35 1.65,-12.1 0,-12.75 		"/>
	</g>
</symbol>
<symbol  id="FlashAICB_x2F_Layer_3_x2F__x3C_Path_x3E__x5F_6" viewBox="0 -20.25 2.3 20.25">
	<g id="Layer_1_14_">
		<polygon style="fill-rule:evenodd;clip-rule:evenodd;fill:#CAC888;" points="1,-0.05 2.3,0 1.6,-19.55 0,-20.25 		"/>
	</g>
</symbol>
<symbol  id="FlashAICB_x2F_Layer_3_x2F__x3C_Path_x3E__x5F_7" viewBox="0 -17.35 2.95 17.35">
	<g id="Layer_1_13_">
		<polygon style="fill-rule:evenodd;clip-rule:evenodd;fill:#CAC888;" points="0.65,-0.1 2.95,0 2.6,-17.25 0,-17.35 		"/>
	</g>
</symbol>
<symbol  id="FlashAICB_x2F_Layer_3_x2F__x3C_Path_x3E__x5F_8" viewBox="0 -11.95 2.3 11.95">
	<g id="Layer_1_12_">
		<polygon style="fill-rule:evenodd;clip-rule:evenodd;fill:#CAC888;" points="0.35,-0.4 1.65,0 2.3,-11.85 0,-11.95 		"/>
	</g>
</symbol>
<symbol  id="FlashAICB_x2F_Layer_3_x2F__x3C_Path_x3E__x5F_9" viewBox="0 -8.7 2.6 8.7">
	<g id="Layer_1_11_">
		<polygon style="fill-rule:evenodd;clip-rule:evenodd;fill:#CAC888;" points="0.35,0 2.6,-0.85 2.25,-8.7 0,-8.5 		"/>
	</g>
</symbol>
<g>
	<polygon style="fill-rule:evenodd;clip-rule:evenodd;fill:#7F4C53;" points="3.8,182 0,6 114.6,3.55 91.1,182.35 	"/>
	<polygon style="fill-rule:evenodd;clip-rule:evenodd;fill:#482E32;" points="12.7,182 9.9,18.65 102.25,16.2 82.55,182.35 	"/>
	<polygon style="fill-rule:evenodd;clip-rule:evenodd;fill:#B4B357;" points="80.85,182.35 14.25,182 12.15,20.15 100.45,17.75 	"/>
	<g>
		
			<use xlink:href="#FlashAICB_x2F_Layer_3_x2F__x3C_Path_x3E__x5F_18"  width="13.75" height="18.773" x="-0.022" y="-18.751" transform="matrix(1 0 0 -1 23.2998 32)" style="overflow:visible;opacity:0.25;enable-background:new    ;"/>
		
			<use xlink:href="#FlashAICB_x2F_Layer_3_x2F__x3C_Path_x3E__x5F_17"  width="13.021" height="19.37" x="0.024" y="-19.357" transform="matrix(1 0 0 -1 25.1001 66.8999)" style="overflow:visible;opacity:0.25;enable-background:new    ;"/>
		
			<use xlink:href="#FlashAICB_x2F_Layer_3_x2F__x3C_Path_x3E__x5F_16"  width="10.957" height="17.967" x="-0.007" y="-17.963" transform="matrix(1 0 0 -1 24.7998 106.9004)" style="overflow:visible;opacity:0.25;enable-background:new    ;"/>
		
			<use xlink:href="#FlashAICB_x2F_Layer_3_x2F__x3C_Path_x3E__x5F_15"  width="12.244" height="17.159" x="0.026" y="-17.151" transform="matrix(1 0 0 -1 23.8501 149.4004)" style="overflow:visible;opacity:0.25;enable-background:new    ;"/>
		
			<use xlink:href="#FlashAICB_x2F_Layer_3_x2F__x3C_Path_x3E__x5F_14"  width="12.535" height="18.161" x="-0.002" y="-18.151" transform="matrix(1 0 0 -1 67.7998 31.8501)" style="overflow:visible;opacity:0.25;enable-background:new    ;"/>
		
			<use xlink:href="#FlashAICB_x2F_Layer_3_x2F__x3C_Path_x3E__x5F_13"  width="12.161" height="16.235" x="-0.04" y="-16.201" transform="matrix(1 0 0 -1 65.7998 67.8501)" style="overflow:visible;opacity:0.25;enable-background:new    ;"/>
		
			<use xlink:href="#FlashAICB_x2F_Layer_3_x2F__x3C_Path_x3E__x5F_12"  width="11.053" height="13.801" x="-0.002" y="-13.801" transform="matrix(1 0 0 -1 64.25 108.5498)" style="overflow:visible;opacity:0.25;enable-background:new    ;"/>
		
			<use xlink:href="#FlashAICB_x2F_Layer_3_x2F__x3C_Path_x3E__x5F_11"  width="11.718" height="16.769" x="-0.008" y="-16.754" transform="matrix(1 0 0 -1 60.8496 150.2002)" style="overflow:visible;opacity:0.25;enable-background:new    ;"/>
		
			<use xlink:href="#FlashAICB_x2F_Layer_3_x2F__x3C_Path_x3E__x5F_10"  width="8" height="159.6" y="-159.6" transform="matrix(1 0 0 -1 46.7002 20.3501)" style="overflow:visible;opacity:0.25;enable-background:new    ;"/>
		
			<use xlink:href="#FlashAICB_x2F_Layer_3_x2F__x3C_Path_x3E__x5F_9"  width="2.6" height="8.7" y="-8.7" transform="matrix(1 0 0 -1 28.9502 21.2002)" style="overflow:visible;opacity:0.25;enable-background:new    ;"/>
		
			<use xlink:href="#FlashAICB_x2F_Layer_3_x2F__x3C_Path_x3E__x5F_8"  width="2.3" height="11.95" y="-11.95" transform="matrix(1 0 0 -1 29.8501 52.6499)" style="overflow:visible;opacity:0.25;enable-background:new    ;"/>
		
			<use xlink:href="#FlashAICB_x2F_Layer_3_x2F__x3C_Path_x3E__x5F_7"  width="2.95" height="17.35" y="-17.35" transform="matrix(1 0 0 -1 30.1499 88.2002)" style="overflow:visible;opacity:0.25;enable-background:new    ;"/>
		
			<use xlink:href="#FlashAICB_x2F_Layer_3_x2F__x3C_Path_x3E__x5F_6"  width="2.3" height="20.25" y="-20.25" transform="matrix(1 0 0 -1 28.1499 127.5)" style="overflow:visible;opacity:0.25;enable-background:new    ;"/>
		
			<use xlink:href="#FlashAICB_x2F_Layer_3_x2F__x3C_Path_x3E__x5F_5"  width="2.3" height="12.75" y="-12.75" transform="matrix(1 0 0 -1 28.3999 167.9004)" style="overflow:visible;opacity:0.25;enable-background:new    ;"/>
		
			<use xlink:href="#FlashAICB_x2F_Layer_3_x2F__x3C_Path_x3E__x5F_4"  width="1.7" height="11.35" y="-11.35" transform="matrix(1 0 0 -1 73.25 19.8501)" style="overflow:visible;opacity:0.25;enable-background:new    ;"/>
		
			<use xlink:href="#FlashAICB_x2F_Layer_3_x2F__x3C_Path_x3E__x5F_3"  width="2.45" height="15.6" y="-15.6" transform="matrix(1 0 0 -1 71.0498 51.1499)" style="overflow:visible;opacity:0.25;enable-background:new    ;"/>
		
			<use xlink:href="#FlashAICB_x2F_Layer_3_x2F__x3C_Path_x3E__x5F_2"  width="2.75" height="21.75" y="-21.75" transform="matrix(1 0 0 -1 69.25 85.3999)" style="overflow:visible;opacity:0.25;enable-background:new    ;"/>
		
			<use xlink:href="#FlashAICB_x2F_Layer_3_x2F__x3C_Path_x3E__x5F_1"  width="3.75" height="25.4" y="-25.4" transform="matrix(1 0 0 -1 66.4502 123.75)" style="overflow:visible;opacity:0.25;enable-background:new    ;"/>
		
			<use xlink:href="#FlashAICB_x2F_Layer_3_x2F__x3C_Path_x3E_"  width="2.7" height="12.35" y="-12.35" transform="matrix(1 0 0 -1 65 168.2998)" style="overflow:visible;opacity:0.25;enable-background:new    ;"/>
	</g>
	<g>
		<path style="fill-rule:evenodd;clip-rule:evenodd;fill:#57363A;" d="M22.5,95.65c2.4-0.634,4.317-0.301,5.75,1
			c1.233,1.1,1.9,2.716,2,4.85c0.133,2.033-0.283,3.866-1.25,5.5c-1,1.733-2.35,2.667-4.05,2.8c-2.534,0.167-4.534-0.366-6-1.6
			c-1.267-1.134-1.95-2.617-2.05-4.45c-0.1-1.767,0.35-3.417,1.35-4.95C19.317,97.167,20.733,96.116,22.5,95.65z"/>
		<path style="fill-rule:evenodd;clip-rule:evenodd;fill:#482E32;" d="M23.35,94.65c2.4-0.634,4.316-0.301,5.75,1
			c1.233,1.133,1.917,2.767,2.05,4.899c0.1,2.033-0.316,3.851-1.25,5.45c-1.033,1.767-2.383,2.7-4.05,2.8
			c-2.567,0.167-4.583-0.366-6.05-1.6c-1.267-1.134-1.95-2.617-2.05-4.45c-0.1-1.767,0.35-3.417,1.35-4.95
			C20.167,96.167,21.583,95.116,23.35,94.65z"/>
		<path style="fill-rule:evenodd;clip-rule:evenodd;fill:#A48B63;" d="M24.75,95.85c2.133-0.3,3.683,0.534,4.65,2.5
			c0.833,1.667,1,3.051,0.5,4.15c-0.3,0.634-0.717,0.884-1.25,0.75l-0.7-0.45c0.333-1.166,0.367-2.45,0.1-3.85
			c-0.167-0.9-0.767-1.684-1.8-2.351L24.75,95.85z"/>
		<path style="fill-rule:evenodd;clip-rule:evenodd;fill:#382427;" d="M22.5,100.95c1.367,2.633,2.35,4.033,2.95,4.2
			c1.433,0.333,2.017,0.816,1.75,1.449c-0.233,0.7-1.6,0.983-4.1,0.851c-2.233-0.134-3.55-1.533-3.95-4.2l0.1-3.95
			C20.283,98.267,21.367,98.816,22.5,100.95z"/>
	</g>
	<polygon style="fill-rule:evenodd;clip-rule:evenodd;fill:#9A6D71;" points="114.6,3.55 0,6 10.7,4.25 120.65,0 	"/>
	<polygon style="fill-rule:evenodd;clip-rule:evenodd;fill:#B89798;" points="120.65,0 95.6,180.1 91.1,182.35 114.6,3.55 	"/>
</g>
</svg>
