<?xml version="1.0" encoding="iso-8859-1"?>
<!-- Generator: Adobe Illustrator 15.1.0, SVG Export Plug-In . SVG Version: 6.00 Build 0)  -->
<!DOCTYPE svg PUBLIC "-//W3C//DTD SVG 1.1//EN" "http://www.w3.org/Graphics/SVG/1.1/DTD/svg11.dtd">
<svg version="1.1" id="Layer_3" xmlns="http://www.w3.org/2000/svg" xmlns:xlink="http://www.w3.org/1999/xlink" x="0px" y="0px"
	 width="517.75px" height="322.35px" viewBox="0 0 517.75 322.35" style="enable-background:new 0 0 517.75 322.35;"
	 xml:space="preserve">
<g>
	<g>
		<path style="fill-rule:evenodd;clip-rule:evenodd;fill:#6E4249;" d="M391.2,28.65h11l14.8,291.5
			c-0.134,0.166-0.634,0.383-1.5,0.649c-1.733,0.5-4.45,0.95-8.15,1.351c-3.699,0.433-6.3,0.233-7.8-0.601l-1.2-1.399L391.2,28.65z"
			/>
		<path style="fill-rule:evenodd;clip-rule:evenodd;fill:#442C2F;" d="M402.7,46.15l-6.5-1l10.3,276.5
			c-1.767,0.199-3.267,0.199-4.5,0c-0.733-0.134-1.533-0.4-2.4-0.801l-1.1-0.55l-6.8-284.15l10.649,1.65L402.7,46.15z"/>
	</g>
	<g>
		<path style="fill-rule:evenodd;clip-rule:evenodd;fill:#6E4249;" d="M82.2,28.65h11l14.85,291.5
			c-0.133,0.166-0.65,0.383-1.55,0.649c-1.733,0.5-4.45,0.95-8.15,1.351c-3.667,0.433-6.267,0.233-7.8-0.601l-1.2-1.399L82.2,28.65z
			"/>
		<path style="fill-rule:evenodd;clip-rule:evenodd;fill:#442C2F;" d="M93.7,46.15l-6.5-1l10.35,276.5c-1.8,0.199-3.3,0.199-4.5,0
			c-0.767-0.134-1.583-0.4-2.45-0.801l-1.05-0.55L82.7,36.15l10.65,1.65L93.7,46.15z"/>
	</g>
	<g>
		<polygon style="fill-rule:evenodd;clip-rule:evenodd;fill:#975961;" points="493.95,39.9 478,22.15 517.75,0 515,15.15 		"/>
		<path style="fill-rule:evenodd;clip-rule:evenodd;fill:#9A6D71;" d="M493,22.4c-28.5,1.8-59.866,3.6-94.1,5.4
			c-68.5,3.567-117.134,5.35-145.9,5.35c-27.333,0-78-2.283-152-6.85C33.767,22.133,0.1,20.083,0,20.15l17-19L517.75,0L493,22.4z"/>
		<path style="fill-rule:evenodd;clip-rule:evenodd;fill:#6E4249;" d="M493,22.4l0.95,17.5c-131.3-0.5-205.617-0.75-222.95-0.75
			c-17.333,0-107.667-0.667-271-2v-17c32.833,1,68.583,1.967,107.25,2.9c77.333,1.833,130.583,2.534,159.75,2.1
			C313.667,24.483,389,23.567,493,22.4z"/>
		<g>
			<path style="fill-rule:evenodd;clip-rule:evenodd;fill:#442C2F;" d="M492.95,39.25c-49,0-76.917-0.033-83.75-0.1
				c-4.767-0.066-19.617-0.167-44.55-0.3c-24-0.133-38.867-0.2-44.601-0.2L221.8,38.4c-70.733-0.667-109.433-1-116.1-1
				c-6.667,0-41.717-0.25-105.15-0.75l-0.1-0.75c46.9,0.567,74.017,0.817,81.35,0.75c3.934-0.066,21.95,0.05,54.05,0.35
				c32.267,0.3,49.717,0.433,52.35,0.4c5.833-0.1,31.5,0.017,77,0.35c3.2,0,19.233,0.017,48.1,0.05
				c28.267,0.034,44.684,0.017,49.25-0.05c3.767-0.033,20.7,0.083,50.8,0.35c29.967,0.233,46.584,0.333,49.851,0.3
				c6.566-0.1,16.399-0.1,29.5,0L492.95,39.25z"/>
			<path style="fill-rule:evenodd;clip-rule:evenodd;fill:#643C42;" d="M58.85,26.15c-8.434,0.434-15.6,0.434-21.5,0
				c-5.9-0.467-14.117-0.7-24.65-0.7c-2.567,0-5.85-0.434-9.85-1.3l4.2-0.5c2.967-0.333,5.284-0.4,6.95-0.2
				c5.2,0.633,8.25,0.983,9.15,1.05c4.833,0.467,9.733,0.733,14.7,0.8c7.767,0.1,16.1-0.35,25-1.35L58.85,26.15z"/>
			<path style="fill-rule:evenodd;clip-rule:evenodd;fill:#643C42;" d="M25,27.45c5.033-0.233,7.983,0.417,8.85,1.95
				s-1.184,2.217-6.15,2.05c-4.534-0.133-6.85-0.8-6.95-2C20.617,28.25,22.033,27.583,25,27.45z M28.35,30.45
				c1,0.1,1.467-0.15,1.4-0.75c-0.033-0.567-0.717-0.817-2.05-0.75c-1.133,0.066-1.55,0.316-1.25,0.75
				C26.717,30.133,27.35,30.383,28.35,30.45z"/>
			<path style="fill-rule:evenodd;clip-rule:evenodd;fill:#643C42;" d="M108,35.3c-13.7,0-27.75-0.033-42.15-0.1
				c-28.8-0.1-44.967-0.284-48.5-0.55c-3.208-0.272-6.075-0.364-8.6-0.275l9.6-0.725l-13.65-4c3.367,0.733,7.45,1.417,12.25,2.05
				c9.6,1.333,18.017,1.867,25.25,1.6c7.2-0.267,20.333-0.017,39.4,0.75C91.133,34.45,99.933,34.867,108,35.3z"/>
			<path style="fill-rule:evenodd;clip-rule:evenodd;fill:#643C42;" d="M94.85,30.15c-2.3-0.133-9.184-0.15-20.65-0.05l-16.5,0.2
				l-11-1.15l70.15-1.5C105.85,29.517,98.517,30.35,94.85,30.15z"/>
			<polygon style="fill-rule:evenodd;clip-rule:evenodd;fill:#643C42;" points="73,25.45 93,25.15 77.5,26.95 			"/>
			<path style="fill-rule:evenodd;clip-rule:evenodd;fill:#643C42;" d="M125.4,34.25c-2.267-0.333-4.333-0.533-6.2-0.6
				c-1.8-0.066-4.483-0.4-8.05-1l-4.8-0.85l13.75-0.1c9.633-0.067,15.6-0.15,17.9-0.25c3.667-0.1,15.783-0.267,36.35-0.5
				c-8.333,1.133-16.45,1.75-24.35,1.85l-18.8,0.35l31,1.65c-5.5,0.034-11.017,0.05-16.55,0.05c-11.1,0.033-16.75,0.017-16.95-0.05
				C128.267,34.667,127.167,34.483,125.4,34.25z"/>
			<path style="fill-rule:evenodd;clip-rule:evenodd;fill:#643C42;" d="M135.7,25.8c7.733-0.5,13.45-0.05,17.15,1.35
				c1.433,0.5,1.566,0.934,0.4,1.3c-1.3,0.4-3.983,0.566-8.05,0.5c-7.767-0.133-12.233-0.65-13.4-1.55
				C130.733,26.567,132.033,26.033,135.7,25.8z"/>
			<path style="fill-rule:evenodd;clip-rule:evenodd;fill:#643C42;" d="M164.6,26.8l-5.25-1L176.3,26
				c12.133,0.167,20.317,0.317,24.55,0.45c6.767,0.233,17.6,0.35,32.5,0.35c-20.233,1.1-32.95,1.767-38.15,2
				c-3.2,0.133-7.233,0.067-12.1-0.2c-4.934-0.367-8.184-0.583-9.75-0.65C171.417,27.883,168.5,27.5,164.6,26.8z"/>
			<path style="fill-rule:evenodd;clip-rule:evenodd;fill:#643C42;" d="M239.2,35.45c-32.467,0.333-51.2,0.333-56.2,0
				c-3.133-0.2-6.367-0.6-9.7-1.2l-4.1-0.8l80.3-1.5l-36,2.35L239.2,35.45z"/>
			<path style="fill-rule:evenodd;clip-rule:evenodd;fill:#643C42;" d="M335.2,26.8c-5.867,0.233-11.434,0.567-16.7,1
				c-10.5,0.867-14.217,1.817-11.15,2.85c3.067,1.033,8.567,1.934,16.5,2.7c2.976,0.275,5.784,0.5,8.426,0.675
				c-3.096-0.142-6.371-0.317-9.825-0.525c-8.867-0.533-14.783-1.05-17.75-1.55c-8.967-1.434-16.533-2.15-22.7-2.15
				c-2.967,0-10.634-0.25-23-0.75l-17.65-0.75l62-2.15c7.034-0.3,14.45-0.283,22.25,0.05C329.5,26.367,332.7,26.567,335.2,26.8z"/>
			<path style="fill-rule:evenodd;clip-rule:evenodd;fill:#643C42;" d="M325.2,28.15c7.366,0.133,11.166,0.934,11.399,2.4
				c0.2,1.467-2.333,2.1-7.6,1.9c-4.667-0.133-7.533-0.917-8.6-2.35C319.333,28.7,320.934,28.05,325.2,28.15z"/>
			<path style="fill-rule:evenodd;clip-rule:evenodd;fill:#643C42;" d="M299.35,34.3c-9,1-15.449,1.45-19.35,1.35l-33.5-1.35
				c0.2-0.033,4.7-0.15,13.5-0.35c9.667-0.2,15.783-0.367,18.35-0.5c2.967-0.133,7.367-0.034,13.2,0.3
				C294.45,33.917,297.05,34.1,299.35,34.3z"/>
			<path style="fill-rule:evenodd;clip-rule:evenodd;fill:#643C42;" d="M375,35.3l-50.15,0.5l22.4-0.95
				c15.733-0.633,25.55-0.983,29.45-1.05c6.2-0.1,15.416,0.017,27.649,0.35L375,35.3z"/>
			<path style="fill-rule:evenodd;clip-rule:evenodd;fill:#643C42;" d="M430.85,25.3c-2.366,0.233-4.767,0.45-7.199,0.65
				c-3.421,0.307-5.721,0.481-6.9,0.525c1.864,0.079,6.598,0.338,14.2,0.775c5.233,0.3,10.483,0.6,15.75,0.9l-61-0.2
				c-4.167,0-12.25-0.083-24.25-0.25l-16.75-0.25L430.85,25.3z"/>
			<path style="fill-rule:evenodd;clip-rule:evenodd;fill:#643C42;" d="M371.2,30.4c1.166,0.5,1.517,0.967,1.05,1.4
				c-0.533,0.5-2.05,0.784-4.55,0.85c-5.5,0.167-9-0.033-10.5-0.6c-1.533-0.566-0.316-1.316,3.649-2.25
				C364.75,28.9,368.2,29.1,371.2,30.4z"/>
			<path style="fill-rule:evenodd;clip-rule:evenodd;fill:#643C42;" d="M462.8,30.9c-1.434,1.3-0.533,1.983,2.7,2.05
				c3.434,0.1,5.55-0.534,6.35-1.9c0.834-1.4-0.333-2.1-3.5-2.1C466.083,28.95,464.233,29.6,462.8,30.9z M457.9,32.2
				c-0.4-0.833,0.05-1.733,1.35-2.7c3.1-2.3,7.184-3.25,12.25-2.85c2.934,0.233,4.717,0.867,5.35,1.9c0.567,0.9,0.15,1.9-1.25,3
				c-3.466,2.767-7.883,3.684-13.25,2.75C459.85,33.867,458.366,33.167,457.9,32.2z"/>
			<path style="fill-rule:evenodd;clip-rule:evenodd;fill:#643C42;" d="M456,26.45c1.667-0.667,4.45-1.5,8.35-2.5
				c-2.533,1.267-4.866,2.55-7,3.85c-4.3,2.633-5.517,4.133-3.649,4.5c2.2,0.434,4.5,1.333,6.899,2.7c1.2,0.7,2.167,1.35,2.9,1.95
				c-1.134-0.567-2.684-1.15-4.65-1.75c-3.933-1.2-7.983-1.833-12.149-1.9c-4.167-0.066-12.617,0.383-25.351,1.35l-17.85,1.5
				l16.2-2.5l-17.5-3.35l9.1,0.7c6.667,0.5,11.566,0.817,14.7,0.95s7.967,0.017,14.5-0.35c3.267-0.2,6.217-0.417,8.85-0.65l2.4-1.85
				C453.55,27.767,454.967,26.883,456,26.45z"/>
			<path style="fill-rule:evenodd;clip-rule:evenodd;fill:#643C42;" d="M488,26.8l-2.3,1.35l-9.5-2.7h14.975
				C490.666,25.464,489.607,25.914,488,26.8z"/>
			<polygon style="fill-rule:evenodd;clip-rule:evenodd;fill:#643C42;" points="492.35,36.3 474.2,35.65 488,34.15 			"/>
		</g>
	</g>
</g>
</svg>
