<?xml version="1.0" encoding="iso-8859-1"?>
<!-- Generator: Adobe Illustrator 15.1.0, SVG Export Plug-In . SVG Version: 6.00 Build 0)  -->
<!DOCTYPE svg PUBLIC "-//W3C//DTD SVG 1.1//EN" "http://www.w3.org/Graphics/SVG/1.1/DTD/svg11.dtd">
<svg version="1.1" id="Layer_3" xmlns="http://www.w3.org/2000/svg" xmlns:xlink="http://www.w3.org/1999/xlink" x="0px" y="0px"
	 width="498px" height="76.5px" viewBox="0 0 498 76.5" style="enable-background:new 0 0 498 76.5;" xml:space="preserve">
<g>
	<g>
		<g>
			<path style="fill-rule:evenodd;clip-rule:evenodd;fill:#6E4249;" d="M470.3,22.65l1.351-0.7c-0.301-0.333-0.601-0.75-0.9-1.25
				c-0.566-1-0.8-1.95-0.7-2.85c0.134-0.9,0.434-1.7,0.9-2.4c0.267-0.367,0.5-0.633,0.7-0.8l-2.65-0.8v-8.3l7.5-0.5l-0.3,8
				l-1.851,0.8l0.7,0.45c0.533,0.534,0.917,1.35,1.15,2.45c0.233,1.133,0.083,2.283-0.45,3.45c-0.267,0.566-0.566,1.033-0.9,1.4
				l1.351,0.5v29.35l-1.851,1.35l0.95,0.4c0.601,0.434,0.9,1.1,0.9,2c0,1.434-0.617,2.684-1.851,3.75l1.301,0.25l-0.25,13.05
				l-5.851,0.3l0.8-13.1l2.101-0.25c-1.601-0.9-2.4-1.884-2.4-2.95c0-0.667,0.267-1.35,0.8-2.05c0.267-0.367,0.534-0.667,0.801-0.9
				L469.55,52L470.3,22.65z"/>
			<polygon style="fill-rule:evenodd;clip-rule:evenodd;fill:#93565F;" points="474.8,6.1 475.8,5.55 475.8,12.4 474,12.85 			"/>
			<polygon style="fill-rule:evenodd;clip-rule:evenodd;fill:#93565F;" points="474,23.2 475.7,22.75 475.45,50.9 474.1,51.55 			
				"/>
			<path style="fill-rule:evenodd;clip-rule:evenodd;fill:#93565F;" d="M474.45,54.05c0.6-0.566,0.983-0.3,1.149,0.8
				c0.134,1.067-0.216,1.851-1.05,2.351c-0.833,0.467-1.2,0.184-1.1-0.851C473.55,55.316,473.884,54.55,474.45,54.05z"/>
			<path style="fill-rule:evenodd;clip-rule:evenodd;fill:#93565F;" d="M474.45,15.55c0.633-0.233,1.033,0.4,1.2,1.9
				c0.166,1.5-0.051,2.333-0.65,2.5c-0.566,0.167-0.934-0.467-1.1-1.9C473.7,16.583,473.884,15.75,474.45,15.55z"/>
			<polygon style="fill-rule:evenodd;clip-rule:evenodd;fill:#93565F;" points="473.9,60.35 475.1,60 474.55,68.9 473.3,69.2 			"/>
			<polygon style="fill-rule:evenodd;clip-rule:evenodd;fill:#442C2F;" points="469.5,6.2 470.15,6.35 470.75,13.75 469.6,12.75 			
				"/>
			<path style="fill-rule:evenodd;clip-rule:evenodd;fill:#442C2F;" d="M471.65,15.65l1.199-0.9c-0.166,0.167-0.35,0.433-0.55,0.8
				c-0.399,0.7-0.616,1.483-0.649,2.35c-0.067,1.434,0.267,2.717,1,3.85c-1.134-0.9-1.801-1.883-2-2.95
				c-0.134-0.633-0.017-1.35,0.35-2.15L471.65,15.65z"/>
			<polygon style="fill-rule:evenodd;clip-rule:evenodd;fill:#442C2F;" points="470.85,23.2 471.85,23.45 471.2,52.35 470.5,50.65 
							"/>
			<path style="fill-rule:evenodd;clip-rule:evenodd;fill:#442C2F;" d="M472,53.8l-0.25,0.8c-0.167,0.667-0.25,1.233-0.25,1.7
				c0,0.733,0.3,1.517,0.9,2.351c-1.167-0.601-1.75-1.351-1.75-2.25c0-0.567,0.233-1.167,0.699-1.801
				C471.55,54.267,471.767,54,472,53.8z"/>
			<polygon style="fill-rule:evenodd;clip-rule:evenodd;fill:#442C2F;" points="470.85,60.45 471.4,60.35 471.4,69.1 470.4,68.65 
							"/>
		</g>
		<g>
			<path style="fill-rule:evenodd;clip-rule:evenodd;fill:#6E4249;" d="M427.65,7.15L435.1,6.6l-0.25,8L433,15.4l0.7,0.45
				c0.533,0.533,0.916,1.367,1.149,2.5c0.233,1.1,0.084,2.233-0.449,3.4c-0.267,0.567-0.567,1.033-0.9,1.4l1.35,0.55v29.35
				l-1.85,1.3l0.95,0.4c0.6,0.467,0.899,1.134,0.899,2c0,1.434-0.616,2.684-1.85,3.75l1.3,0.25l-0.25,13.1l-5.85,0.25l0.8-13.05
				l2.1-0.3c-1.6-0.866-2.399-1.833-2.399-2.9c0-0.666,0.267-1.35,0.8-2.05c0.267-0.366,0.533-0.666,0.8-0.899l-2.1-1.351
				l0.75-29.35l1.35-0.65c-0.3-0.333-0.6-0.75-0.899-1.25c-0.567-1.033-0.801-2-0.7-2.9c0.133-0.9,0.434-1.7,0.899-2.4
				c0.267-0.367,0.5-0.633,0.7-0.8l-2.649-0.8V7.15z"/>
			<polygon style="fill-rule:evenodd;clip-rule:evenodd;fill:#93565F;" points="433.45,7.65 434.45,7.1 434.45,13.95 432.65,14.4 
							"/>
			<polygon style="fill-rule:evenodd;clip-rule:evenodd;fill:#93565F;" points="432.65,24.75 434.35,24.3 434.1,52.45 432.75,53.1 
							"/>
			<path style="fill-rule:evenodd;clip-rule:evenodd;fill:#93565F;" d="M433.1,55.6c0.601-0.533,0.983-0.25,1.15,0.851
				c0.134,1.066-0.217,1.833-1.05,2.3c-0.834,0.467-1.2,0.184-1.101-0.85C432.167,56.866,432.5,56.1,433.1,55.6z"/>
			<path style="fill-rule:evenodd;clip-rule:evenodd;fill:#93565F;" d="M433.1,17.1c0.634-0.233,1.034,0.4,1.2,1.9
				c0.167,1.5-0.05,2.333-0.649,2.5c-0.567,0.167-0.934-0.467-1.101-1.9C432.35,18.167,432.533,17.333,433.1,17.1z"/>
			<path style="fill-rule:evenodd;clip-rule:evenodd;fill:#93565F;" d="M432.55,61.9l1.2-0.351l-0.55,8.9l-1.25,0.35
				c0.133-1.434,0.25-2.866,0.35-4.3C432.5,63.566,432.583,62.033,432.55,61.9z"/>
			<polygon style="fill-rule:evenodd;clip-rule:evenodd;fill:#442C2F;" points="428.15,7.8 428.8,7.9 429.4,15.3 428.25,14.3 			"/>
			<path style="fill-rule:evenodd;clip-rule:evenodd;fill:#442C2F;" d="M430.3,17.25l1.2-0.9c-0.167,0.167-0.35,0.417-0.55,0.75
				c-0.4,0.7-0.617,1.5-0.65,2.4c-0.1,1.4,0.233,2.667,1,3.8c-1.133-0.9-1.816-1.867-2.05-2.9c-0.134-0.667,0-1.383,0.4-2.15
				L430.3,17.25z"/>
			<polygon style="fill-rule:evenodd;clip-rule:evenodd;fill:#442C2F;" points="429.5,24.75 430.5,25 429.85,53.9 429.15,52.2 			
				"/>
			<path style="fill-rule:evenodd;clip-rule:evenodd;fill:#442C2F;" d="M430.6,55.35L430.4,56.15
				c-0.167,0.666-0.25,1.233-0.25,1.699c0,0.733,0.3,1.517,0.899,2.351c-1.2-0.601-1.8-1.351-1.8-2.25c0-0.566,0.233-1.167,0.7-1.8
				C430.15,55.816,430.366,55.55,430.6,55.35z"/>
			<polygon style="fill-rule:evenodd;clip-rule:evenodd;fill:#442C2F;" points="429.5,62 430.05,61.9 430.05,70.65 429.05,70.2 			
				"/>
		</g>
		<g>
			<path style="fill-rule:evenodd;clip-rule:evenodd;fill:#6E4249;" d="M386.3,8.7l7.45-0.55l-0.25,8l-1.9,0.8l0.75,0.5
				c0.534,0.533,0.917,1.35,1.15,2.45c0.2,1.133,0.033,2.267-0.5,3.4c-0.267,0.6-0.55,1.067-0.85,1.4l1.35,0.55V54.6l-1.9,1.351
				l0.95,0.399c0.634,0.434,0.95,1.101,0.95,2c0,1.4-0.634,2.634-1.9,3.7l1.351,0.3L392.7,75.4l-5.9,0.25l0.8-13.051l2.15-0.25
				c-1.6-0.899-2.4-1.883-2.4-2.949c0-0.667,0.267-1.351,0.801-2.051c0.267-0.366,0.533-0.666,0.8-0.899l-2.15-1.3l0.75-29.351
				l1.351-0.7c-0.301-0.333-0.584-0.75-0.851-1.25c-0.566-1.033-0.8-1.983-0.7-2.85c0.101-0.9,0.4-1.7,0.9-2.4
				c0.233-0.367,0.467-0.633,0.7-0.8l-2.65-0.85V8.7z"/>
			<polygon style="fill-rule:evenodd;clip-rule:evenodd;fill:#93565F;" points="392.05,9.25 393.1,8.7 393.1,15.55 391.3,16 			"/>
			<polygon style="fill-rule:evenodd;clip-rule:evenodd;fill:#93565F;" points="391.3,26.35 392.95,25.9 392.75,54 391.4,54.7 			
				"/>
			<path style="fill-rule:evenodd;clip-rule:evenodd;fill:#93565F;" d="M391.75,57.15c0.6-0.534,0.983-0.25,1.15,0.85
				c0.133,1.066-0.217,1.833-1.051,2.3c-0.833,0.5-1.199,0.233-1.1-0.8C390.816,58.467,391.15,57.684,391.75,57.15z"/>
			<path style="fill-rule:evenodd;clip-rule:evenodd;fill:#93565F;" d="M391.75,18.7c0.6-0.233,0.983,0.4,1.15,1.9
				c0.166,1.5-0.034,2.333-0.601,2.5c-0.566,0.167-0.95-0.483-1.149-1.95C390.983,19.717,391.184,18.9,391.75,18.7z"/>
			<path style="fill-rule:evenodd;clip-rule:evenodd;fill:#93565F;" d="M391.15,63.45l1.25-0.3L391.85,72l-1.25,0.35
				c0.134-1.433,0.25-2.866,0.351-4.3C391.15,65.116,391.217,63.583,391.15,63.45z"/>
			<polygon style="fill-rule:evenodd;clip-rule:evenodd;fill:#442C2F;" points="386.8,9.35 387.45,9.45 388,16.9 386.9,15.9 			"/>
			<path style="fill-rule:evenodd;clip-rule:evenodd;fill:#442C2F;" d="M388.9,18.8l1.25-0.9c-0.167,0.167-0.351,0.417-0.551,0.75
				c-0.399,0.7-0.633,1.5-0.699,2.4c-0.067,1.434,0.283,2.717,1.05,3.85c-1.134-0.9-1.816-1.883-2.05-2.95
				c-0.134-0.633-0.017-1.35,0.35-2.15L388.9,18.8z"/>
			<polygon style="fill-rule:evenodd;clip-rule:evenodd;fill:#442C2F;" points="388.15,26.35 389.15,26.55 388.45,55.5 387.8,53.8 
							"/>
			<path style="fill-rule:evenodd;clip-rule:evenodd;fill:#442C2F;" d="M389.25,56.95l-0.2,0.8c-0.166,0.634-0.25,1.184-0.25,1.65
				c0,0.767,0.3,1.566,0.9,2.399c-1.2-0.6-1.8-1.35-1.8-2.25c0-0.566,0.233-1.166,0.699-1.8
				C388.8,57.417,389.017,57.15,389.25,56.95z"/>
			<polygon style="fill-rule:evenodd;clip-rule:evenodd;fill:#442C2F;" points="388.15,63.6 388.7,63.45 388.7,72.25 387.7,71.8 			
				"/>
		</g>
		<g>
			<path style="fill-rule:evenodd;clip-rule:evenodd;fill:#6E4249;" d="M344.9,9.45l7.5-0.5l-0.301,8l-1.85,0.8L351,18.2
				c0.533,0.533,0.9,1.35,1.1,2.45c0.233,1.133,0.084,2.267-0.449,3.4c-0.267,0.6-0.551,1.067-0.851,1.4l1.3,0.55v29.35l-1.85,1.351
				l0.95,0.399c0.6,0.434,0.899,1.101,0.899,2c0,1.4-0.616,2.634-1.85,3.7l1.35,0.3l-0.3,13.051l-5.85,0.3l0.8-13.101l2.15-0.25
				C346.8,62.2,346,61.217,346,60.15c0-0.667,0.267-1.351,0.8-2.051c0.267-0.366,0.533-0.666,0.8-0.899l-2.149-1.3l0.75-29.351
				l1.35-0.7c-0.3-0.333-0.6-0.75-0.899-1.25c-0.567-1.033-0.784-1.983-0.65-2.85c0.1-0.9,0.4-1.7,0.9-2.4
				c0.233-0.367,0.466-0.633,0.699-0.8l-2.699-0.8V9.45z"/>
			<polygon style="fill-rule:evenodd;clip-rule:evenodd;fill:#93565F;" points="350.7,10 351.7,9.45 351.7,16.3 349.9,16.75 			"/>
			<polygon style="fill-rule:evenodd;clip-rule:evenodd;fill:#93565F;" points="349.9,27.1 351.6,26.65 351.35,54.75 350,55.45 			
				"/>
			<path style="fill-rule:evenodd;clip-rule:evenodd;fill:#93565F;" d="M350.35,57.9c0.634-0.534,1.017-0.25,1.15,0.85
				c0.167,1.066-0.184,1.833-1.05,2.3c-0.834,0.5-1.2,0.233-1.101-0.8C349.45,59.217,349.783,58.434,350.35,57.9z"/>
			<path style="fill-rule:evenodd;clip-rule:evenodd;fill:#93565F;" d="M350.35,19.45c0.634-0.233,1.034,0.4,1.2,1.9
				c0.167,1.5-0.05,2.333-0.649,2.5c-0.567,0.167-0.934-0.483-1.101-1.95C349.6,20.467,349.783,19.65,350.35,19.45z"/>
			<path style="fill-rule:evenodd;clip-rule:evenodd;fill:#93565F;" d="M349.8,64.2l1.25-0.3l-0.6,8.85l-1.2,0.35
				c0.1-1.433,0.2-2.866,0.3-4.3C349.75,65.866,349.833,64.333,349.8,64.2z"/>
			<polygon style="fill-rule:evenodd;clip-rule:evenodd;fill:#442C2F;" points="345.4,10.1 346.1,10.2 346.65,17.65 345.5,16.65 			
				"/>
			<path style="fill-rule:evenodd;clip-rule:evenodd;fill:#442C2F;" d="M347.55,19.55l1.25-0.9c-0.2,0.167-0.399,0.417-0.6,0.75
				c-0.4,0.7-0.617,1.5-0.65,2.4c-0.066,1.434,0.267,2.717,1,3.85c-1.133-0.9-1.8-1.883-2-2.95c-0.133-0.633-0.017-1.35,0.351-2.15
				L347.55,19.55z"/>
			<polygon style="fill-rule:evenodd;clip-rule:evenodd;fill:#442C2F;" points="346.75,27.1 347.75,27.3 347.1,56.25 346.4,54.55 
							"/>
			<path style="fill-rule:evenodd;clip-rule:evenodd;fill:#442C2F;" d="M347.9,57.7l-0.2,0.8c-0.167,0.634-0.25,1.184-0.25,1.65
				c0,0.767,0.3,1.566,0.899,2.399c-1.199-0.6-1.8-1.35-1.8-2.25c0-0.566,0.233-1.166,0.7-1.8
				C347.45,58.167,347.667,57.9,347.9,57.7z"/>
			<polygon style="fill-rule:evenodd;clip-rule:evenodd;fill:#442C2F;" points="346.75,64.35 347.3,64.2 347.3,73 346.3,72.55 			
				"/>
		</g>
		<g>
			<path style="fill-rule:evenodd;clip-rule:evenodd;fill:#6E4249;" d="M305.25,24.65c-0.566-1.033-0.783-1.983-0.65-2.85
				c0.101-0.9,0.4-1.7,0.9-2.4c0.233-0.367,0.467-0.633,0.7-0.8l-2.7-0.8V9.5l7.5-0.55L310.75,17l-1.9,0.8l0.75,0.45
				c0.534,0.533,0.917,1.35,1.15,2.45c0.2,1.133,0.033,2.267-0.5,3.4c-0.267,0.6-0.55,1.066-0.85,1.4l1.35,0.55V55.4l-1.9,1.35
				l0.95,0.4c0.634,0.433,0.95,1.1,0.95,2c0,1.399-0.634,2.633-1.9,3.699l1.351,0.301l-0.3,13.05l-5.851,0.25l0.8-13.05l2.15-0.25
				c-1.6-0.9-2.4-1.884-2.4-2.95c0-0.667,0.267-1.351,0.801-2.05c0.267-0.367,0.533-0.667,0.8-0.9l-2.15-1.3l0.75-29.35l1.351-0.7
				C305.85,25.567,305.55,25.15,305.25,24.65z"/>
			<polygon style="fill-rule:evenodd;clip-rule:evenodd;fill:#93565F;" points="309.3,10.05 310.3,9.5 310.3,16.35 308.5,16.8 			
				"/>
			<polygon style="fill-rule:evenodd;clip-rule:evenodd;fill:#93565F;" points="308.5,27.15 310.2,26.7 310,54.8 308.65,55.5 			"/>
			<path style="fill-rule:evenodd;clip-rule:evenodd;fill:#93565F;" d="M308.95,57.95c0.633-0.533,1.033-0.25,1.2,0.85
				c0.166,1.066-0.184,1.834-1.051,2.3c-0.833,0.5-1.199,0.233-1.1-0.8C308.066,59.267,308.384,58.483,308.95,57.95z"/>
			<path style="fill-rule:evenodd;clip-rule:evenodd;fill:#93565F;" d="M308.95,19.5c0.6-0.233,1,0.4,1.2,1.9
				c0.166,1.5-0.034,2.333-0.601,2.5c-0.566,0.167-0.95-0.483-1.149-1.95C308.2,20.517,308.384,19.7,308.95,19.5z"/>
			<path style="fill-rule:evenodd;clip-rule:evenodd;fill:#93565F;" d="M308.4,64.25l1.25-0.3L309.1,72.8l-1.25,0.351
				c0.101-1.434,0.2-2.867,0.301-4.301C308.35,65.917,308.434,64.384,308.4,64.25z"/>
			<polygon style="fill-rule:evenodd;clip-rule:evenodd;fill:#442C2F;" points="304,10.15 304.7,10.25 305.25,17.7 304.15,16.7 			
				"/>
			<path style="fill-rule:evenodd;clip-rule:evenodd;fill:#442C2F;" d="M306.15,19.6l1.25-0.9c-0.2,0.167-0.4,0.417-0.601,0.75
				c-0.399,0.7-0.616,1.5-0.649,2.4c-0.067,1.433,0.267,2.717,1,3.85c-1.101-0.9-1.767-1.883-2-2.95
				c-0.134-0.633-0.017-1.35,0.35-2.15L306.15,19.6z"/>
			<polygon style="fill-rule:evenodd;clip-rule:evenodd;fill:#442C2F;" points="305.35,27.15 306.4,27.35 305.7,56.3 305.05,54.6 
							"/>
			<path style="fill-rule:evenodd;clip-rule:evenodd;fill:#442C2F;" d="M306.5,57.75l-0.2,0.8c-0.166,0.634-0.25,1.184-0.25,1.65
				c0,0.767,0.3,1.566,0.9,2.399c-1.2-0.6-1.8-1.35-1.8-2.25c0-0.566,0.233-1.166,0.699-1.8
				C306.05,58.217,306.267,57.95,306.5,57.75z"/>
			<polygon style="fill-rule:evenodd;clip-rule:evenodd;fill:#442C2F;" points="305.35,64.4 305.95,64.25 305.95,73.05 304.9,72.6 
							"/>
		</g>
		<g>
			<path style="fill-rule:evenodd;clip-rule:evenodd;fill:#6E4249;" d="M264.1,19.45c0.233-0.367,0.467-0.633,0.7-0.8l-2.649-0.85
				V9.55L269.6,9l-0.25,8l-1.899,0.8l0.75,0.5c0.533,0.534,0.916,1.35,1.149,2.45c0.2,1.133,0.034,2.267-0.5,3.4
				c-0.267,0.6-0.55,1.067-0.85,1.4l1.35,0.55v29.35l-1.899,1.35l0.95,0.4c0.633,0.434,0.949,1.1,0.949,2
				c0,1.399-0.633,2.633-1.899,3.7l1.35,0.3l-0.25,13.05l-5.899,0.25l0.8-13.05l2.149-0.25c-1.6-0.9-2.399-1.884-2.399-2.95
				c0-0.667,0.267-1.35,0.8-2.05c0.267-0.367,0.533-0.667,0.8-0.9L262.65,56l0.75-29.35l1.35-0.7c-0.3-0.333-0.583-0.75-0.85-1.25
				c-0.567-1.034-0.801-1.983-0.7-2.85C263.3,20.95,263.6,20.15,264.1,19.45z"/>
			<polygon style="fill-rule:evenodd;clip-rule:evenodd;fill:#93565F;" points="267.9,10.1 268.95,9.55 268.95,16.4 267.15,16.85 
							"/>
			<polygon style="fill-rule:evenodd;clip-rule:evenodd;fill:#93565F;" points="267.15,27.2 268.8,26.75 268.6,54.85 267.25,55.55 
							"/>
			<path style="fill-rule:evenodd;clip-rule:evenodd;fill:#93565F;" d="M267.6,58c0.601-0.533,0.983-0.25,1.15,0.85
				c0.134,1.067-0.217,1.834-1.05,2.301c-0.834,0.5-1.2,0.233-1.101-0.801C266.667,59.316,267,58.533,267.6,58z"/>
			<path style="fill-rule:evenodd;clip-rule:evenodd;fill:#93565F;" d="M267.6,19.55c0.601-0.233,0.983,0.4,1.15,1.9
				s-0.033,2.333-0.6,2.5c-0.567,0.167-0.95-0.483-1.15-1.95C266.833,20.567,267.033,19.75,267.6,19.55z"/>
			<path style="fill-rule:evenodd;clip-rule:evenodd;fill:#93565F;" d="M267,64.3l1.25-0.3l-0.55,8.85l-1.25,0.351
				c0.133-1.434,0.25-2.867,0.35-4.3C267,65.967,267.066,64.434,267,64.3z"/>
			<polygon style="fill-rule:evenodd;clip-rule:evenodd;fill:#442C2F;" points="262.65,10.2 263.3,10.3 263.85,17.75 262.75,16.75 
							"/>
			<path style="fill-rule:evenodd;clip-rule:evenodd;fill:#442C2F;" d="M264.75,19.65l1.25-0.9c-0.167,0.167-0.35,0.417-0.55,0.75
				c-0.4,0.7-0.634,1.5-0.7,2.4c-0.066,1.434,0.283,2.717,1.05,3.85c-1.133-0.9-1.816-1.883-2.05-2.95
				c-0.134-0.633-0.017-1.35,0.35-2.15L264.75,19.65z"/>
			<polygon style="fill-rule:evenodd;clip-rule:evenodd;fill:#442C2F;" points="264,27.2 265,27.4 264.3,56.35 263.65,54.65 			"/>
			<path style="fill-rule:evenodd;clip-rule:evenodd;fill:#442C2F;" d="M265.1,57.8l-0.199,0.8c-0.167,0.634-0.25,1.184-0.25,1.65
				c0,0.767,0.3,1.566,0.899,2.4c-1.2-0.601-1.8-1.351-1.8-2.25c0-0.567,0.233-1.167,0.7-1.801C264.65,58.267,264.866,58,265.1,57.8
				z"/>
			<polygon style="fill-rule:evenodd;clip-rule:evenodd;fill:#442C2F;" points="264,64.45 264.55,64.3 264.55,73.1 263.55,72.65 			
				"/>
		</g>
		<g>
			<path style="fill-rule:evenodd;clip-rule:evenodd;fill:#6E4249;" d="M227.95,20.5c0.233,1.133,0.083,2.267-0.45,3.4
				c-0.267,0.6-0.567,1.067-0.9,1.4l1.35,0.55V55.2l-1.85,1.35l0.95,0.4c0.6,0.434,0.9,1.1,0.9,2c0,1.399-0.617,2.633-1.85,3.7
				l1.3,0.3L227.15,76l-5.85,0.25l0.8-13.05l2.1-0.25c-1.6-0.9-2.4-1.884-2.4-2.95c0-0.667,0.267-1.35,0.8-2.05
				c0.267-0.367,0.533-0.667,0.8-0.9l-2.1-1.3l0.75-29.35l1.35-0.7c-1.233-1.333-1.767-2.7-1.6-4.1c0.133-0.9,0.434-1.7,0.9-2.4
				c0.267-0.367,0.5-0.633,0.7-0.8l-2.65-0.8V9.3l7.45-0.55l-0.25,8.05l-1.85,0.8l0.7,0.45C227.333,18.583,227.717,19.4,227.95,20.5
				z"/>
			<polygon style="fill-rule:evenodd;clip-rule:evenodd;fill:#93565F;" points="226.55,9.85 227.55,9.3 227.55,16.15 225.75,16.6 
							"/>
			<polygon style="fill-rule:evenodd;clip-rule:evenodd;fill:#93565F;" points="225.75,26.95 227.45,26.5 227.2,54.6 225.85,55.3 
							"/>
			<path style="fill-rule:evenodd;clip-rule:evenodd;fill:#93565F;" d="M226.2,57.75c0.6-0.533,0.983-0.25,1.15,0.85
				c0.133,1.067-0.217,1.834-1.05,2.301c-0.833,0.5-1.2,0.233-1.1-0.801C225.267,59.066,225.6,58.283,226.2,57.75z"/>
			<path style="fill-rule:evenodd;clip-rule:evenodd;fill:#93565F;" d="M226.2,19.3c0.633-0.233,1.033,0.4,1.2,1.9
				c0.167,1.5-0.05,2.333-0.65,2.5c-0.567,0.167-0.933-0.483-1.1-1.95C225.45,20.317,225.633,19.5,226.2,19.3z"/>
			<path style="fill-rule:evenodd;clip-rule:evenodd;fill:#93565F;" d="M225.65,64.05l1.2-0.3l-0.55,8.85l-1.25,0.351
				c0.133-1.434,0.25-2.867,0.35-4.3C225.6,65.717,225.683,64.184,225.65,64.05z"/>
			<polygon style="fill-rule:evenodd;clip-rule:evenodd;fill:#442C2F;" points="221.25,9.95 221.9,10.05 222.5,17.5 221.35,16.5 			
				"/>
			<path style="fill-rule:evenodd;clip-rule:evenodd;fill:#442C2F;" d="M223.4,19.4l1.2-0.9c-0.167,0.167-0.35,0.417-0.55,0.75
				c-0.4,0.7-0.617,1.5-0.65,2.4c-0.1,1.434,0.233,2.717,1,3.85c-1.133-0.9-1.816-1.883-2.05-2.95c-0.133-0.633,0-1.35,0.4-2.15
				L223.4,19.4z"/>
			<polygon style="fill-rule:evenodd;clip-rule:evenodd;fill:#442C2F;" points="222.6,26.95 223.6,27.15 222.95,56.1 222.25,54.4 
							"/>
			<path style="fill-rule:evenodd;clip-rule:evenodd;fill:#442C2F;" d="M223.7,57.55l-0.2,0.8c-0.167,0.634-0.25,1.184-0.25,1.65
				c0,0.767,0.3,1.566,0.9,2.4c-1.2-0.601-1.8-1.351-1.8-2.25c0-0.567,0.233-1.167,0.7-1.801
				C223.25,58.017,223.467,57.75,223.7,57.55z"/>
			<polygon style="fill-rule:evenodd;clip-rule:evenodd;fill:#442C2F;" points="222.6,64.2 223.15,64.05 223.15,72.85 222.15,72.4 
							"/>
		</g>
		<g>
			<path style="fill-rule:evenodd;clip-rule:evenodd;fill:#6E4249;" d="M186.55,20.15c0.233,1.1,0.083,2.233-0.45,3.4
				c-0.267,0.567-0.55,1.034-0.85,1.4l1.3,0.55v29.35l-1.85,1.301l0.95,0.399c0.6,0.467,0.9,1.134,0.9,2
				c0,1.434-0.617,2.684-1.85,3.75l1.35,0.25l-0.3,13.101l-5.85,0.25l0.8-13.051l2.1-0.3c-1.6-0.866-2.4-1.833-2.4-2.899
				c0-0.667,0.267-1.351,0.8-2.051c0.267-0.366,0.533-0.666,0.8-0.899l-2.1-1.351L180.65,26l1.35-0.65c-0.3-0.333-0.6-0.75-0.9-1.25
				c-0.567-1.033-0.8-2-0.7-2.9c0.133-0.867,0.434-1.667,0.9-2.4c0.267-0.333,0.5-0.6,0.7-0.8l-2.65-0.8V8.95l7.5-0.55l-0.3,8
				l-1.85,0.8l0.75,0.5C185.983,18.233,186.35,19.05,186.55,20.15z"/>
			<polygon style="fill-rule:evenodd;clip-rule:evenodd;fill:#93565F;" points="185.15,9.45 186.15,8.9 186.15,15.75 184.35,16.2 
							"/>
			<polygon style="fill-rule:evenodd;clip-rule:evenodd;fill:#93565F;" points="184.35,26.6 186.05,26.1 185.8,54.25 184.45,54.9 
							"/>
			<path style="fill-rule:evenodd;clip-rule:evenodd;fill:#93565F;" d="M184.8,57.4c0.633-0.534,1.017-0.25,1.15,0.85
				c0.167,1.066-0.184,1.833-1.05,2.3c-0.833,0.467-1.2,0.184-1.1-0.85C183.9,58.667,184.233,57.9,184.8,57.4z"/>
			<path style="fill-rule:evenodd;clip-rule:evenodd;fill:#93565F;" d="M184.8,18.9c0.633-0.233,1.034,0.4,1.2,1.9
				s-0.05,2.333-0.65,2.5c-0.567,0.167-0.934-0.466-1.1-1.9C184.05,19.967,184.233,19.133,184.8,18.9z"/>
			<path style="fill-rule:evenodd;clip-rule:evenodd;fill:#93565F;" d="M184.25,63.7l1.25-0.351l-0.6,8.9l-1.2,0.35
				c0.1-1.433,0.2-2.866,0.3-4.3C184.2,65.366,184.283,63.833,184.25,63.7z"/>
			<polygon style="fill-rule:evenodd;clip-rule:evenodd;fill:#442C2F;" points="179.85,9.6 180.55,9.7 181.1,17.1 179.95,16.1 			
				"/>
			<path style="fill-rule:evenodd;clip-rule:evenodd;fill:#442C2F;" d="M182,19.05l1.25-0.9c-0.2,0.167-0.4,0.417-0.6,0.75
				c-0.4,0.7-0.617,1.5-0.65,2.4c-0.067,1.4,0.267,2.667,1,3.8c-1.133-0.9-1.8-1.867-2-2.9c-0.133-0.667-0.017-1.383,0.35-2.15
				L182,19.05z"/>
			<polygon style="fill-rule:evenodd;clip-rule:evenodd;fill:#442C2F;" points="181.2,26.6 182.2,26.8 181.55,55.7 180.85,54 			"/>
			<path style="fill-rule:evenodd;clip-rule:evenodd;fill:#442C2F;" d="M182.35,57.15L182.1,58c-0.167,0.634-0.25,1.184-0.25,1.65
				c0,0.733,0.316,1.517,0.95,2.35c-1.2-0.6-1.8-1.35-1.8-2.25c0-0.566,0.233-1.167,0.7-1.8
				C181.9,57.616,182.117,57.35,182.35,57.15z"/>
			<polygon style="fill-rule:evenodd;clip-rule:evenodd;fill:#442C2F;" points="181.2,63.8 181.75,63.7 181.75,72.45 180.75,72.05 
							"/>
		</g>
		<g>
			<path style="fill-rule:evenodd;clip-rule:evenodd;fill:#6E4249;" d="M144.7,23.2c-0.267,0.566-0.55,1.033-0.85,1.4l1.3,0.5v29.35
				l-1.85,1.35l0.95,0.4c0.6,0.434,0.9,1.1,0.9,2c0,1.434-0.617,2.684-1.85,3.75l1.35,0.25l-0.3,13.05l-5.85,0.3l0.8-13.1l2.15-0.25
				c-1.6-0.9-2.4-1.884-2.4-2.95c0-0.667,0.267-1.35,0.8-2.05c0.267-0.334,0.533-0.617,0.8-0.851L138.5,55l0.75-29.35l1.35-0.7
				c-0.3-0.333-0.6-0.75-0.9-1.25c-0.567-1-0.784-1.95-0.65-2.85c0.1-0.9,0.4-1.7,0.9-2.4c0.233-0.367,0.466-0.633,0.7-0.8l-2.7-0.8
				v-8.3l7.5-0.5l-0.3,8l-1.85,0.8l0.75,0.45c0.534,0.534,0.9,1.367,1.1,2.5C145.383,20.9,145.233,22.033,144.7,23.2z"/>
			<polygon style="fill-rule:evenodd;clip-rule:evenodd;fill:#93565F;" points="143.75,9.1 144.75,8.55 144.75,15.4 142.95,15.85 
							"/>
			<polygon style="fill-rule:evenodd;clip-rule:evenodd;fill:#93565F;" points="142.95,26.2 144.65,25.75 144.45,53.9 143.1,54.55 
							"/>
			<path style="fill-rule:evenodd;clip-rule:evenodd;fill:#93565F;" d="M143.4,57.05c0.633-0.566,1.033-0.3,1.2,0.8
				c0.167,1.067-0.184,1.851-1.05,2.351c-0.867,0.467-1.25,0.184-1.15-0.851C142.5,58.35,142.833,57.583,143.4,57.05z"/>
			<path style="fill-rule:evenodd;clip-rule:evenodd;fill:#93565F;" d="M143.4,18.55c0.6-0.233,1,0.4,1.2,1.9
				c0.167,1.5-0.033,2.333-0.6,2.5c-0.567,0.167-0.95-0.467-1.15-1.9C142.65,19.583,142.833,18.75,143.4,18.55z"/>
			<polygon style="fill-rule:evenodd;clip-rule:evenodd;fill:#93565F;" points="142.85,63.35 144.1,63 143.55,71.9 142.3,72.2 			
				"/>
			<polygon style="fill-rule:evenodd;clip-rule:evenodd;fill:#442C2F;" points="138.45,9.2 139.15,9.35 139.7,16.75 138.6,15.75 			
				"/>
			<path style="fill-rule:evenodd;clip-rule:evenodd;fill:#442C2F;" d="M140.6,18.65l1.25-0.9c-0.2,0.167-0.4,0.433-0.6,0.8
				c-0.4,0.7-0.617,1.483-0.65,2.35c-0.067,1.434,0.267,2.717,1,3.85c-1.1-0.9-1.767-1.883-2-2.95
				c-0.133-0.633-0.017-1.35,0.35-2.15L140.6,18.65z"/>
			<polygon style="fill-rule:evenodd;clip-rule:evenodd;fill:#442C2F;" points="139.8,26.2 140.85,26.45 140.15,55.35 139.5,53.65 
							"/>
			<path style="fill-rule:evenodd;clip-rule:evenodd;fill:#442C2F;" d="M140.95,56.8l-0.2,0.8c-0.167,0.667-0.25,1.233-0.25,1.7
				c0,0.733,0.3,1.517,0.9,2.351c-1.2-0.601-1.8-1.351-1.8-2.25c0-0.567,0.233-1.167,0.7-1.801C140.5,57.267,140.717,57,140.95,56.8
				z"/>
			<polygon style="fill-rule:evenodd;clip-rule:evenodd;fill:#442C2F;" points="139.8,63.45 140.4,63.35 140.4,72.1 139.35,71.65 
							"/>
		</g>
		<g>
			<path style="fill-rule:evenodd;clip-rule:evenodd;fill:#6E4249;" d="M102.45,23.7l1.35,0.55V53.6l-1.9,1.301l0.95,0.399
				c0.633,0.467,0.95,1.15,0.95,2.05c0,1.4-0.633,2.634-1.9,3.7l1.35,0.3L103,74.4l-5.9,0.25L97.9,61.6l2.15-0.25
				c-1.6-0.899-2.4-1.883-2.4-2.949c0-0.667,0.267-1.351,0.8-2.051c0.267-0.366,0.533-0.666,0.8-0.899L97.1,54.1l0.75-29.35
				l1.35-0.65c-0.3-0.333-0.583-0.75-0.85-1.25c-0.567-1.033-0.8-2-0.7-2.9c0.1-0.867,0.4-1.667,0.9-2.4
				c0.233-0.333,0.467-0.6,0.7-0.8l-2.65-0.8V7.7l7.45-0.55l-0.25,8l-1.9,0.8l0.75,0.5c0.533,0.533,0.917,1.35,1.15,2.45
				c0.233,1.133,0.083,2.267-0.45,3.4C103.083,22.9,102.783,23.367,102.45,23.7z"/>
			<polygon style="fill-rule:evenodd;clip-rule:evenodd;fill:#93565F;" points="102.35,8.25 103.4,7.7 103.4,14.55 101.6,15 			"/>
			<polygon style="fill-rule:evenodd;clip-rule:evenodd;fill:#93565F;" points="101.6,25.35 103.25,24.9 103.05,53 101.7,53.7 			
				"/>
			<path style="fill-rule:evenodd;clip-rule:evenodd;fill:#93565F;" d="M102.05,56.15c0.6-0.534,0.983-0.25,1.15,0.85
				c0.133,1.066-0.217,1.833-1.05,2.3c-0.833,0.5-1.2,0.233-1.1-0.8C101.117,57.467,101.45,56.684,102.05,56.15z"/>
			<path style="fill-rule:evenodd;clip-rule:evenodd;fill:#93565F;" d="M102.05,17.7c0.6-0.233,0.983,0.4,1.15,1.9
				c0.167,1.467-0.034,2.283-0.6,2.45c-0.567,0.167-0.95-0.466-1.15-1.9C101.283,18.717,101.483,17.9,102.05,17.7z"/>
			<path style="fill-rule:evenodd;clip-rule:evenodd;fill:#93565F;" d="M101.45,62.45l1.25-0.351l-0.55,8.9l-1.25,0.35
				c0.133-1.433,0.25-2.866,0.35-4.3C101.45,64.116,101.517,62.583,101.45,62.45z"/>
			<polygon style="fill-rule:evenodd;clip-rule:evenodd;fill:#442C2F;" points="97.1,8.35 97.75,8.45 98.3,15.9 97.2,14.85 			"/>
			<path style="fill-rule:evenodd;clip-rule:evenodd;fill:#442C2F;" d="M99.2,17.8l1.25-0.9c-0.167,0.167-0.35,0.417-0.55,0.75
				c-0.4,0.7-0.633,1.5-0.7,2.4c-0.067,1.434,0.283,2.7,1.05,3.8c-1.133-0.867-1.817-1.833-2.05-2.9
				c-0.133-0.667-0.017-1.383,0.35-2.15L99.2,17.8z"/>
			<polygon style="fill-rule:evenodd;clip-rule:evenodd;fill:#442C2F;" points="98.45,25.35 99.45,25.55 98.75,54.45 98.1,52.8 			
				"/>
			<path style="fill-rule:evenodd;clip-rule:evenodd;fill:#442C2F;" d="M99.55,55.95l-0.2,0.8c-0.167,0.634-0.25,1.184-0.25,1.65
				c0,0.767,0.3,1.566,0.9,2.399c-1.2-0.633-1.8-1.399-1.8-2.3c0-0.566,0.233-1.167,0.7-1.8C99.1,56.4,99.317,56.15,99.55,55.95z"/>
			<polygon style="fill-rule:evenodd;clip-rule:evenodd;fill:#442C2F;" points="98.45,62.55 99,62.45 99,71.25 98,70.8 			"/>
		</g>
		<g>
			<path style="fill-rule:evenodd;clip-rule:evenodd;fill:#6E4249;" d="M61.1,22.65l1.3,0.55v29.3l-1.85,1.35l0.95,0.4
				c0.6,0.434,0.9,1.1,0.9,2c0,1.434-0.617,2.684-1.85,3.75l1.35,0.25l-0.3,13.1l-5.85,0.25l0.8-13.05l2.15-0.3
				c-1.6-0.866-2.4-1.833-2.4-2.9c0-0.699,0.267-1.399,0.8-2.1c0.267-0.333,0.533-0.616,0.8-0.85l-2.15-1.351L56.5,23.7l1.35-0.65
				c-0.3-0.333-0.6-0.75-0.9-1.25c-0.567-1.033-0.784-2-0.65-2.9c0.1-0.9,0.4-1.7,0.9-2.4c0.233-0.367,0.466-0.633,0.7-0.8l-2.7-0.8
				V6.65l7.5-0.55l-0.3,8l-1.85,0.8l0.75,0.45c0.534,0.533,0.9,1.367,1.1,2.5c0.233,1.1,0.083,2.233-0.45,3.4
				C61.683,21.817,61.4,22.283,61.1,22.65z"/>
			<polygon style="fill-rule:evenodd;clip-rule:evenodd;fill:#93565F;" points="61,7.15 62,6.6 62,13.45 60.2,13.9 			"/>
			<polygon style="fill-rule:evenodd;clip-rule:evenodd;fill:#93565F;" points="60.2,24.25 61.9,23.8 61.65,51.95 60.3,52.6 			"/>
			<path style="fill-rule:evenodd;clip-rule:evenodd;fill:#93565F;" d="M60.65,55.1c0.633-0.533,1.017-0.25,1.15,0.851
				c0.167,1.066-0.183,1.833-1.05,2.3c-0.833,0.467-1.2,0.184-1.1-0.85C59.75,56.366,60.083,55.6,60.65,55.1z"/>
			<path style="fill-rule:evenodd;clip-rule:evenodd;fill:#93565F;" d="M60.65,16.6c0.633-0.233,1.033,0.4,1.2,1.9
				c0.167,1.5-0.05,2.333-0.65,2.5c-0.567,0.167-0.934-0.467-1.1-1.9C59.9,17.667,60.083,16.833,60.65,16.6z"/>
			<path style="fill-rule:evenodd;clip-rule:evenodd;fill:#93565F;" d="M60.1,61.4l1.25-0.351l-0.6,8.9l-1.2,0.35
				c0.1-1.434,0.2-2.866,0.3-4.3C60.05,63.066,60.133,61.533,60.1,61.4z"/>
			<polygon style="fill-rule:evenodd;clip-rule:evenodd;fill:#442C2F;" points="55.7,7.3 56.4,7.4 56.95,14.8 55.8,13.8 			"/>
			<path style="fill-rule:evenodd;clip-rule:evenodd;fill:#442C2F;" d="M57.85,16.75l1.25-0.9c-0.2,0.167-0.4,0.417-0.6,0.75
				c-0.4,0.7-0.617,1.5-0.65,2.4c-0.067,1.4,0.267,2.667,1,3.8c-1.133-0.9-1.8-1.867-2-2.9c-0.133-0.667-0.017-1.383,0.35-2.15
				L57.85,16.75z"/>
			<polygon style="fill-rule:evenodd;clip-rule:evenodd;fill:#442C2F;" points="57.05,24.25 58.05,24.5 57.4,53.4 56.7,51.7 			"/>
			<path style="fill-rule:evenodd;clip-rule:evenodd;fill:#442C2F;" d="M58.2,54.85L58,55.65c-0.167,0.666-0.25,1.233-0.25,1.699
				c0,0.733,0.3,1.517,0.9,2.351c-1.2-0.601-1.8-1.351-1.8-2.25c0-0.566,0.233-1.167,0.7-1.8C57.75,55.316,57.967,55.05,58.2,54.85z
				"/>
			<polygon style="fill-rule:evenodd;clip-rule:evenodd;fill:#442C2F;" points="57.05,61.5 57.6,61.4 57.6,70.15 56.6,69.7 			"/>
		</g>
		<g>
			<path style="fill-rule:evenodd;clip-rule:evenodd;fill:#6E4249;" d="M21.05,16.75c0.2,1.133,0.034,2.283-0.5,3.45
				c-0.267,0.566-0.55,1.033-0.85,1.4l1.35,0.5v29.35l-1.9,1.35l0.95,0.4c0.633,0.434,0.95,1.1,0.95,2c0,1.434-0.633,2.684-1.9,3.75
				l1.35,0.25l-0.25,13.05l-5.9,0.3l0.8-13.1l2.15-0.25c-1.6-0.9-2.4-1.884-2.4-2.95c0-0.667,0.267-1.35,0.8-2.05l0.8-0.9L14.35,52
				l0.75-29.35l1.35-0.7c-0.3-0.333-0.583-0.75-0.85-1.25c-0.567-1-0.8-1.95-0.7-2.85s0.4-1.7,0.9-2.4
				c0.233-0.367,0.467-0.633,0.7-0.8l-2.65-0.8v-8.3l7.45-0.5l-0.25,8l-1.9,0.8l0.75,0.45C20.433,14.833,20.817,15.65,21.05,16.75z"
				/>
			<polygon style="fill-rule:evenodd;clip-rule:evenodd;fill:#93565F;" points="19.6,6.1 20.65,5.55 20.65,12.4 18.85,12.85 			"/>
			<polygon style="fill-rule:evenodd;clip-rule:evenodd;fill:#93565F;" points="18.85,23.2 20.5,22.75 20.3,50.9 18.95,51.55 			"/>
			<path style="fill-rule:evenodd;clip-rule:evenodd;fill:#93565F;" d="M19.3,54.05c0.6-0.566,0.983-0.3,1.15,0.8
				c0.133,1.067-0.217,1.851-1.05,2.351c-0.833,0.467-1.2,0.184-1.1-0.851C18.367,55.316,18.7,54.55,19.3,54.05z"/>
			<path style="fill-rule:evenodd;clip-rule:evenodd;fill:#93565F;" d="M19.3,15.55c0.6-0.233,0.983,0.4,1.15,1.9
				c0.167,1.5-0.034,2.333-0.6,2.5c-0.567,0.167-0.95-0.467-1.15-1.9C18.533,16.583,18.733,15.75,19.3,15.55z"/>
			<path style="fill-rule:evenodd;clip-rule:evenodd;fill:#93565F;" d="M18.7,60.35L19.95,60l-0.55,8.9l-1.25,0.3
				c0.133-1.434,0.25-2.867,0.35-4.3C18.7,62,18.767,60.483,18.7,60.35z"/>
			<polygon style="fill-rule:evenodd;clip-rule:evenodd;fill:#442C2F;" points="14.35,6.2 15,6.35 15.55,13.75 14.45,12.75 			"/>
			<path style="fill-rule:evenodd;clip-rule:evenodd;fill:#442C2F;" d="M16.45,15.65l1.25-0.9c-0.167,0.167-0.35,0.433-0.55,0.8
				c-0.4,0.7-0.633,1.483-0.7,2.35c-0.067,1.434,0.283,2.717,1.05,3.85c-1.133-0.9-1.817-1.883-2.05-2.95
				c-0.133-0.633-0.017-1.35,0.35-2.15L16.45,15.65z"/>
			<polygon style="fill-rule:evenodd;clip-rule:evenodd;fill:#442C2F;" points="15.7,23.2 16.7,23.45 16,52.35 15.35,50.65 			"/>
			<path style="fill-rule:evenodd;clip-rule:evenodd;fill:#442C2F;" d="M16.8,53.8l-0.2,0.8c-0.167,0.667-0.25,1.233-0.25,1.7
				c0,0.733,0.3,1.517,0.9,2.351c-1.2-0.601-1.8-1.351-1.8-2.25c0-0.567,0.233-1.167,0.7-1.801L16.8,53.8z"/>
			<polygon style="fill-rule:evenodd;clip-rule:evenodd;fill:#442C2F;" points="15.7,60.45 16.25,60.35 16.25,69.1 15.25,68.65 			
				"/>
		</g>
	</g>
	<path style="fill-rule:evenodd;clip-rule:evenodd;fill:#6E4249;" d="M497.75,5.65C462.816,6.483,426.934,7.367,390.1,8.3
		c-73.633,1.9-115.166,3.133-124.6,3.7c-9.467,0.567-56.55-0.35-141.25-2.75C81.883,8.05,40.467,6.8,0,5.5L0.8,0
		c134.233,4.433,216.684,6.65,247.35,6.65S362.1,5.133,498,2.1L497.75,5.65z"/>
	<path style="fill-rule:evenodd;clip-rule:evenodd;fill:#442C2F;" d="M497.65,5l0.1,0.65c-19.634,0.667-33.283,1.067-40.95,1.2
		c-5.1,0.066-17.25,0.4-36.45,1C403.517,8.383,391.95,8.767,385.65,9c-3.134,0.1-12.517,0.217-28.15,0.35
		c-16.333,0.1-26.5,0.2-30.5,0.3c-34.667,1.333-57.167,2-67.5,2c-4.767,0-12.367-0.066-22.8-0.2c-8.367-0.133-13.667-0.167-15.9-0.1
		c-2.2,0.066-11.283-0.15-27.25-0.65c-17.667-0.534-28.683-0.817-33.05-0.85c-5.233-0.067-21.867-0.567-49.9-1.5
		c-29.133-0.934-45.167-1.434-48.1-1.5L0.65,5.35l0.15-1.2c55.9,1.667,88.133,2.667,96.7,3C106.033,7.483,125.867,8.1,157,9
		c2.667,0.1,12.267,0.3,28.8,0.6c16.333,0.333,26.733,0.583,31.2,0.75c4.467,0.167,11.267,0.25,20.4,0.25
		c10.1-0.067,16.9-0.05,20.4,0.05c5,0.133,9.917,0.15,14.75,0.05c2.733-0.067,7.05-0.184,12.95-0.35
		c1.2-0.033,10.583-0.333,28.15-0.9c15.3-0.534,25.8-0.8,31.5-0.8c9.5,0,26.833-0.267,52-0.8c19-0.467,40.333-1.083,64-1.85
		C468.384,5.767,480.55,5.433,497.65,5z"/>
</g>
</svg>
