<?xml version="1.0" encoding="iso-8859-1"?>
<!-- Generator: Adobe Illustrator 15.1.0, SVG Export Plug-In . SVG Version: 6.00 Build 0)  -->
<!DOCTYPE svg PUBLIC "-//W3C//DTD SVG 1.1//EN" "http://www.w3.org/Graphics/SVG/1.1/DTD/svg11.dtd">
<svg version="1.1" id="Layer_3" xmlns="http://www.w3.org/2000/svg" xmlns:xlink="http://www.w3.org/1999/xlink" x="0px" y="0px"
	 width="72.45px" height="96.6px" viewBox="0 0 72.45 96.6" style="enable-background:new 0 0 72.45 96.6;" xml:space="preserve">
<g>
	<path style="fill-rule:evenodd;clip-rule:evenodd;fill:#7F4C53;" d="M33.4,0.1c20-1.467,32.333,14.183,37,46.95
		c2.333,16.367,2.666,32.884,1,49.55l-68-5c-3-14.666-4-29.483-3-44.45C2.4,17.25,13.4,1.567,33.4,0.1z"/>
	
		<linearGradient id="SVGID_1_" gradientUnits="userSpaceOnUse" x1="-58.1621" y1="-32.7246" x2="101.1593" y2="-32.7246" gradientTransform="matrix(0.0659 0.9978 -0.9978 0.0659 1.551509e-004 6.803870e-005)">
		<stop  offset="0" style="stop-color:#E2C47C"/>
		<stop  offset="1" style="stop-color:#E0EDE0"/>
	</linearGradient>
	<path style="fill-rule:evenodd;clip-rule:evenodd;fill:url(#SVGID_1_);" d="M29.9,9.6c15.433-2.9,25.9,8.983,31.4,35.65
		C64.033,58.583,65.233,72.2,64.9,86.1l-53.5-1.5c-1.3-11.666-1.517-23.55-0.65-35.649C12.55,24.783,18.933,11.667,29.9,9.6z"/>
	<polygon style="fill-rule:evenodd;clip-rule:evenodd;fill:#9A6D71;" points="12.55,82.1 62.9,83.1 64.9,86.1 11.4,84.6 	"/>
	<path style="fill-rule:evenodd;clip-rule:evenodd;fill:#B89798;" d="M10.65,47.85c0.7-7.8,1.95-14.6,3.75-20.4
		c0.9-2.9,1.733-5.017,2.5-6.35c-0.566,2.033-1.217,4.633-1.95,7.8c-1.4,6.333-2.417,12.317-3.05,17.95s-0.717,13.2-0.25,22.7
		c0.233,4.733,0.533,8.917,0.9,12.55l-1.15,2.5c-0.367-3.3-0.683-7.3-0.95-12C9.95,63.2,10.017,54.95,10.65,47.85z"/>
	<path style="fill-rule:evenodd;clip-rule:evenodd;fill:#57363A;" d="M60.65,41.85c1.8,7.766,3.083,16.933,3.85,27.5
		c0.3,3.801,0.434,9.384,0.4,16.75l-2-3c0.333-8.1,0.166-15.983-0.5-23.649C61.6,50.583,59.884,41.767,57.25,33L53.5,22.45
		l2.45,4.85C57.85,31.633,59.417,36.483,60.65,41.85z"/>
</g>
</svg>
