<?xml version="1.0" encoding="iso-8859-1"?>
<!-- Generator: Adobe Illustrator 15.1.0, SVG Export Plug-In . SVG Version: 6.00 Build 0)  -->
<!DOCTYPE svg PUBLIC "-//W3C//DTD SVG 1.1//EN" "http://www.w3.org/Graphics/SVG/1.1/DTD/svg11.dtd">
<svg version="1.1" id="Layer_3" xmlns="http://www.w3.org/2000/svg" xmlns:xlink="http://www.w3.org/1999/xlink" x="0px" y="0px"
	 width="260.55px" height="119.05px" viewBox="0 0 260.55 119.05" style="enable-background:new 0 0 260.55 119.05;"
	 xml:space="preserve">
<symbol  id="FlashAICB_x2F_Layer_3_x2F__x3C_Path_x3E__x5F_24" viewBox="0.475 -36.95 31.281 36.996">
	<g id="Layer_1_3_">
		<path style="fill-rule:evenodd;clip-rule:evenodd;fill:#8CA7AB;" d="M25.75-0.1c6.2-0.9,7.6-2.883,4.2-5.95
			c-2.434-2.2-7.4-4.983-14.9-8.35c-4.8-2.133-8.75-6.9-11.85-14.3c-1.195-2.884-2.104-5.634-2.725-8.25
			C2.311-28.405,4.136-21.488,5.95-16.2c1.667,4.833,4.133,8.767,7.4,11.8C17.15-0.9,21.283,0.533,25.75-0.1z"/>
	</g>
</symbol>
<symbol  id="FlashAICB_x2F_Layer_3_x2F__x3C_Path_x3E__x5F_27" viewBox="0 -8.85 252.7 8.85">
	<g id="Layer_1_2_">
		<polygon style="fill-rule:evenodd;clip-rule:evenodd;fill:#615A42;" points="247.35,0 252.7,-7.25 0,-8.85 4.75,-3.15 		"/>
	</g>
</symbol>
<g>
	
		<use xlink:href="#FlashAICB_x2F_Layer_3_x2F__x3C_Path_x3E__x5F_27"  width="252.7" height="8.85" y="-8.85" transform="matrix(1 0 0 -1 3.2002 110.2002)" style="overflow:visible;opacity:0.5;enable-background:new    ;"/>
	<polygon style="fill-rule:evenodd;clip-rule:evenodd;fill:#C1AF7A;" points="208.45,6.45 260.55,115.3 0,117.25 40.5,3.5 	"/>
	<path style="fill-rule:evenodd;clip-rule:evenodd;fill:#32494B;" d="M186.85,14.9c5.134,0.4,8.65,1.05,10.551,1.95
		c2.1,1,4.533,3.267,7.3,6.8c2.2,2.8,8.083,13.983,17.649,33.55c9.834,20.133,15,30.583,15.5,31.35c1.9,2.967,2.801,6.217,2.7,9.75
		c-0.166,4.367-2.316,6.851-6.45,7.45c-3.966,0.566-34.683,0.816-92.149,0.75c-40.534-0.033-73.934-0.15-100.2-0.35
		c-8.867-0.101-14.533-1.983-17-5.65c-1.6-2.333-1.867-5.767-0.8-10.3c1.033-4.5,3.633-13.417,7.8-26.75
		c4.667-15.133,7.967-24.583,9.9-28.35c2.333-6.333,4.567-10.934,6.7-13.8c3.7-4.966,9.667-7.716,17.9-8.25
		C139.95,13.717,180.15,14.333,186.85,14.9z"/>
	
		<use xlink:href="#FlashAICB_x2F_Layer_3_x2F__x3C_Path_x3E__x5F_24"  width="31.281" height="36.996" x="0.475" y="-36.95" transform="matrix(1 0 0 -1 44.5498 18.9502)" style="overflow:visible;opacity:0.5;enable-background:new    ;"/>
	<polygon style="fill-rule:evenodd;clip-rule:evenodd;fill:#8CA7AB;" points="42.2,72.95 40.4,71.1 42.45,72.65 43.1,70.55 
		42.75,72.85 45.3,72.9 42.8,73.15 43.15,75.5 42.35,73.3 41.05,74.3 	"/>
	<polygon style="fill-rule:evenodd;clip-rule:evenodd;fill:#8CA7AB;" points="64.95,88.9 65.35,86.6 65.55,89.2 67.55,89.4 
		65.5,89.75 65.1,91.75 65.05,89.6 62.4,88.75 	"/>
	<polygon style="fill-rule:evenodd;clip-rule:evenodd;fill:#8CA7AB;" points="65.7,58.2 62.7,56.85 66.1,57.3 65.85,54.3 
		66.55,56.55 69.45,54.65 67.15,57.2 71.3,58.8 67.15,57.95 66.8,61.45 66.4,58.3 63.05,60.75 	"/>
	<polygon style="fill-rule:evenodd;clip-rule:evenodd;fill:#8CA7AB;" points="161.4,25.2 162.05,23.05 161.7,25.4 164.2,25.45 
		161.75,25.65 162.05,28.05 161.3,25.8 160,26.85 161.15,25.45 159.35,23.65 	"/>
	<polygon style="fill-rule:evenodd;clip-rule:evenodd;fill:#8CA7AB;" points="185.15,52.3 185.6,50 185.8,52.6 187.8,52.8 
		185.75,53.15 185.3,55.1 185.3,53 182.65,52.15 	"/>
	<polygon style="fill-rule:evenodd;clip-rule:evenodd;fill:#8CA7AB;" points="185.95,23.65 185.65,20.6 186.4,22.9 189.3,20.95 
		187,23.5 191.15,25.1 187,24.25 186.65,27.8 186.25,24.6 182.9,27.05 185.55,24.55 182.55,23.15 	"/>
	<polygon style="fill-rule:evenodd;clip-rule:evenodd;fill:#8CA7AB;" points="103.55,38.3 103.15,40.6 105.7,40.7 103.2,40.9 
		103.55,43.3 102.75,41.05 101.5,42.1 102.65,40.7 100.8,38.85 102.9,40.4 	"/>
	<polygon style="fill-rule:evenodd;clip-rule:evenodd;fill:#8CA7AB;" points="125.35,48.95 125.8,46.65 126,49.25 128,49.45 
		125.9,49.85 125.5,51.8 125.45,49.65 122.85,48.8 	"/>
	<polygon style="fill-rule:evenodd;clip-rule:evenodd;fill:#8CA7AB;" points="118.8,17.75 118.55,14.75 119.3,17 122.15,15.1 
		119.9,17.6 124,19.25 119.85,18.4 119.55,21.9 119.1,18.75 115.75,21.2 118.45,18.65 115.45,17.3 	"/>
	<polygon style="fill-rule:evenodd;clip-rule:evenodd;fill:#8CA7AB;" points="140.85,73.75 141.5,71.65 141.15,73.95 143.65,74.05 
		141.2,74.25 141.5,76.65 140.75,74.4 139.45,75.45 140.6,74.05 138.8,72.2 	"/>
	<polygon style="fill-rule:evenodd;clip-rule:evenodd;fill:#8CA7AB;" points="159.35,85.6 159.75,83.3 159.95,85.9 161.95,86.05 
		159.9,86.45 159.45,88.4 159.45,86.3 156.8,85.45 	"/>
	<polygon style="fill-rule:evenodd;clip-rule:evenodd;fill:#8CA7AB;" points="156.95,63.9 156.7,60.85 157.4,63.15 160.3,61.2 
		158,63.75 162.15,65.35 158,64.5 157.65,68.05 157.25,64.85 153.9,67.35 156.55,64.8 153.55,63.4 	"/>
	<polygon style="fill-rule:evenodd;clip-rule:evenodd;fill:#8CA7AB;" points="91.45,93.1 90.2,94.1 91.3,92.75 89.5,90.9 
		91.55,92.45 92.25,90.3 91.85,92.65 94.4,92.7 91.9,92.95 92.25,95.3 	"/>
	<polygon style="fill-rule:evenodd;clip-rule:evenodd;fill:#8CA7AB;" points="113.9,100.6 114.35,98.3 114.55,100.9 116.55,101.1 
		114.5,101.45 114.05,103.4 114.05,101.3 111.4,100.45 	"/>
	<polygon style="fill-rule:evenodd;clip-rule:evenodd;fill:#8CA7AB;" points="107.7,82.55 107.4,79.55 108.15,81.8 111,79.85 
		108.75,82.4 112.85,84.05 108.75,83.15 108.4,86.7 107.95,83.55 104.65,86 107.3,83.45 104.3,82.05 	"/>
	<polygon style="fill-rule:evenodd;clip-rule:evenodd;fill:#8CA7AB;" points="59.05,24 59.7,21.9 59.35,24.2 61.85,24.3 59.35,24.5 
		59.7,26.9 58.95,24.65 57.65,25.7 58.8,24.3 56.95,22.45 	"/>
	<polygon style="fill-rule:evenodd;clip-rule:evenodd;fill:#8CA7AB;" points="77.5,35.85 77.95,33.55 78.15,36.1 80.15,36.3 
		78.05,36.7 77.65,38.65 77.6,36.5 74.95,35.7 	"/>
	<polygon style="fill-rule:evenodd;clip-rule:evenodd;fill:#8CA7AB;" points="76.2,14 80.35,15.6 76.2,14.75 75.85,18.3 75.45,15.1 
		72.1,17.55 74.75,15.05 71.75,13.65 75.15,14.15 75.05,13.2 75.6,13.4 76.95,13.45 	"/>
	<polygon style="fill-rule:evenodd;clip-rule:evenodd;fill:#8CA7AB;" points="203.6,88.7 202.35,89.75 203.5,88.35 201.65,86.55 
		203.75,88.1 204.4,85.95 204,88.3 206.55,88.35 204.05,88.55 204.4,90.95 	"/>
	<polygon style="fill-rule:evenodd;clip-rule:evenodd;fill:#8CA7AB;" points="219.9,96.55 220.3,94.25 220.55,96.85 222.55,97.05 
		220.45,97.4 220.05,99.35 220,97.25 217.35,96.4 	"/>
	<polygon style="fill-rule:evenodd;clip-rule:evenodd;fill:#8CA7AB;" points="218.65,74.25 219.4,76.5 222.3,74.55 220,77.1 
		224.15,78.75 220,77.85 219.65,81.4 219.25,78.25 215.9,80.7 218.55,78.15 215.55,76.75 218.95,77.25 	"/>
	<path style="fill-rule:evenodd;clip-rule:evenodd;fill:#212829;" d="M174.15,13.8c13.166,0.133,21.767,1.967,25.8,5.5
		c1.233,1.1,4.116,6.267,8.649,15.5c5.301,10.833,8.534,17.2,9.7,19.1c3.834,6.3,7.533,13.484,11.101,21.55
		C234.3,86.517,236.2,93.9,235.1,97.6c-1.066,3.7-7.216,5.767-18.449,6.2c-4.067,0.134-10.084,0.117-18.051-0.05
		c-12.3-0.267-19.6-0.417-21.899-0.45c-4.066-0.033-27.267-0.05-69.6-0.05c-32.367,0-51.267-0.2-56.7-0.6
		c-5.8-0.467-9.05-1.334-9.75-2.601c-0.233-0.399-0.2-0.816,0.1-1.25l0.55-0.55c8.3,0.7,16.6,1.25,24.9,1.65
		c7.4,0.366,29.917,0.583,67.55,0.649c39.967,0.033,65.934-0.217,77.9-0.75c6.233-0.267,10.35-1.717,12.35-4.35
		c1.733-2.267,2.033-5.634,0.9-10.101c-0.801-3.033-2.684-7.75-5.65-14.149c-3.634-7.767-6.033-13.233-7.2-16.4
		c-4.733-12.733-9-21.7-12.8-26.9c-4.866-6.7-10.85-10.417-17.95-11.15c-5.767-0.6-23.166-1.3-52.2-2.1
		c-25.067-0.7-45.35-1.15-60.85-1.35c-1.9-0.033-3.883,0.1-5.95,0.4l-2.55,0.4c1.933-0.733,5.183-1.117,9.75-1.15
		c3,0,9.417,0.1,19.25,0.3C100.217,13.383,128.683,13.567,174.15,13.8z"/>
	
		<linearGradient id="SVGID_1_" gradientUnits="userSpaceOnUse" x1="42.1831" y1="97.625" x2="203.3009" y2="97.625" gradientTransform="matrix(0.9623 -0.2719 0.2719 0.9623 -3.749132e-004 -1.061559e-004)">
		<stop  offset="0.5216" style="stop-color:#E0DEBC"/>
		<stop  offset="0.6706" style="stop-color:#DFDDBA"/>
		<stop  offset="0.7216" style="stop-color:#DAD9B3"/>
		<stop  offset="0.7608" style="stop-color:#D3D2A7"/>
		<stop  offset="0.7922" style="stop-color:#C9C897"/>
		<stop  offset="0.8157" style="stop-color:#BCBB84"/>
		<stop  offset="0.8275" style="stop-color:#B6B67C"/>
	</linearGradient>
	<path style="fill-rule:evenodd;clip-rule:evenodd;fill:url(#SVGID_1_);" d="M196.35,18.4c-1.899-1.633-5.066-2.8-9.5-3.5
		c5.134,0.4,8.65,1.05,10.551,1.95c2.1,1,4.533,3.267,7.3,6.8c2.2,2.8,8.083,13.983,17.649,33.55c9.834,20.133,15,30.583,15.5,31.35
		c1.9,2.967,2.801,6.217,2.7,9.75c-0.166,4.367-2.316,6.851-6.45,7.45c-3.966,0.566-34.683,0.816-92.149,0.75
		c-40.534-0.033-73.934-0.15-100.2-0.35c-8.867-0.101-14.533-1.983-17-5.65c-1.6-2.333-1.867-5.767-0.8-10.3
		c1.033-4.5,3.633-13.417,7.8-26.75c4.667-15.133,7.967-24.583,9.9-28.35c2.133-5.533,4.017-9.617,5.65-12.25
		c2.9-4.6,7.233-7.583,13-8.95c-2.767,1.3-5,2.7-6.7,4.2c-3.133,2.767-5.667,6.533-7.6,11.3c-4.267,10.667-7.817,23.283-10.65,37.85
		C32.183,83.684,32.067,93.4,35,96.4c2.7,2.767,11.3,4.366,25.8,4.8c8.133,0.267,20.333,0.283,36.6,0.05
		c13.867,0.134,44.966,0.3,93.3,0.5c14.333,0.134,23.717-0.25,28.149-1.15c9.634-2,12.851-6.649,9.65-13.949
		c-0.7-1.634-4.866-12.101-12.5-31.4c-5.4-13.6-9.417-22.467-12.05-26.6C200.35,23.083,197.816,19.667,196.35,18.4z"/>
	<polygon style="fill-rule:evenodd;clip-rule:evenodd;fill:#E0DEBC;" points="208.45,6.45 40.5,3.5 52.05,0 194.15,1.3 	"/>
</g>
</svg>
