<?xml version="1.0" encoding="iso-8859-1"?>
<!-- Generator: Adobe Illustrator 15.1.0, SVG Export Plug-In . SVG Version: 6.00 Build 0)  -->
<!DOCTYPE svg PUBLIC "-//W3C//DTD SVG 1.1//EN" "http://www.w3.org/Graphics/SVG/1.1/DTD/svg11.dtd">
<svg version="1.1" id="Layer_3" xmlns="http://www.w3.org/2000/svg" xmlns:xlink="http://www.w3.org/1999/xlink" x="0px" y="0px"
	 width="82.25px" height="80.25px" viewBox="0 0 82.25 80.25" style="enable-background:new 0 0 82.25 80.25;" xml:space="preserve"
	>
<g>
	<path style="fill-rule:evenodd;clip-rule:evenodd;fill:#7F4C53;" d="M47.9,0.25C59.5,1.183,68.434,5.867,74.7,14.3
		c5.633,7.6,8.116,16.633,7.45,27.101c-0.667,10.433-4.301,19.267-10.9,26.5c-7.3,8-16.75,12.116-28.35,12.35
		c-13.9,0.3-24.833-3.934-32.8-12.7C2.933,59.684-0.417,50.1,0.05,38.8C0.517,27.433,4.733,18.083,12.7,10.75
		C21.6,2.55,33.333-0.95,47.9,0.25z"/>
	
		<linearGradient id="SVGID_1_" gradientUnits="userSpaceOnUse" x1="-43.2227" y1="-40.0298" x2="81.7732" y2="-40.0298" gradientTransform="matrix(0.0658 0.9978 -0.9978 0.0658 4.885346e-005 4.108474e-004)">
		<stop  offset="0" style="stop-color:#E2C47C"/>
		<stop  offset="1" style="stop-color:#E0EDE0"/>
	</linearGradient>
	<path style="fill-rule:evenodd;clip-rule:evenodd;fill:url(#SVGID_1_);" d="M62.3,14.4c6.134,5.233,9.55,12.517,10.25,21.85
		c0.733,9.267-1.434,17.184-6.5,23.75c-5.666,7.333-13.616,10.75-23.85,10.25s-17.9-3.634-23-9.4
		c-4.467-5.033-6.517-11.416-6.15-19.149c0.333-7.2,2.617-13.867,6.85-20c4.367-6.367,9.684-10.367,15.95-12
		C46.583,6.9,55.4,8.467,62.3,14.4z"/>
	<path style="fill-rule:evenodd;clip-rule:evenodd;fill:#9A6D71;" d="M72.55,33.65c1.267,7.767,0.167,14.85-3.3,21.25
		c-3.634,6.699-8.5,11.233-14.6,13.6c-3.567,1.366-8.25,2.05-14.05,2.05c-5.434,0-10.667-1.5-15.7-4.5
		c-6.8-4.033-10.8-9.866-12-17.5c-1.1-7.233-0.033-14.267,3.2-21.1c1.6-3.434,3.316-6.067,5.15-7.9
		c-1.167,1.9-2.283,4.284-3.35,7.15c-2.167,5.7-3.05,10.983-2.65,15.85c0.6,6.934,3.483,12.566,8.65,16.9
		c4.9,4.133,10.8,6.283,17.7,6.45c6.801,0.166,13.017-1.767,18.65-5.801c5.8-4.166,9.35-9.449,10.65-15.85
		c1.133-5.4,1.25-10.417,0.35-15.05l-1.65-5.3l1.101,2.7C71.533,28.867,72.15,31.217,72.55,33.65z"/>
</g>
</svg>
