<?xml version="1.0" encoding="iso-8859-1"?>
<!-- Generator: Adobe Illustrator 15.1.0, SVG Export Plug-In . SVG Version: 6.00 Build 0)  -->
<!DOCTYPE svg PUBLIC "-//W3C//DTD SVG 1.1//EN" "http://www.w3.org/Graphics/SVG/1.1/DTD/svg11.dtd">
<svg version="1.1" id="Layer_3" xmlns="http://www.w3.org/2000/svg" xmlns:xlink="http://www.w3.org/1999/xlink" x="0px" y="0px"
	 width="70.15px" height="104.35px" viewBox="0 0 70.15 104.35" style="enable-background:new 0 0 70.15 104.35;"
	 xml:space="preserve">
<g>
	<path style="fill-rule:evenodd;clip-rule:evenodd;fill:#7F4C53;" d="M0.3,0l66.95,3c2.667,15.667,3.5,31.633,2.5,47.9
		c-2,32.5-12.167,50.2-30.5,53.1C20.95,106.934,8.967,90.483,3.3,54.65C0.467,36.717-0.533,18.5,0.3,0z"/>
	
		<linearGradient id="SVGID_1_" gradientUnits="userSpaceOnUse" x1="-58.9302" y1="-34.688" x2="105.4017" y2="-34.688" gradientTransform="matrix(0.0659 0.9978 -0.9978 0.0659 1.084059e-004 -3.254861e-004)">
		<stop  offset="0" style="stop-color:#E2C47C"/>
		<stop  offset="1" style="stop-color:#E0EDE0"/>
	</linearGradient>
	<path style="fill-rule:evenodd;clip-rule:evenodd;fill:url(#SVGID_1_);" d="M34.25,92c-10.433,0.3-17.233-12.934-20.4-39.7
		c-1.567-13.4-2.1-26.833-1.6-40.3h48c1,13.167,0.667,26.383-1,39.65C55.917,78.15,47.583,91.6,34.25,92z"/>
	<path style="fill-rule:evenodd;clip-rule:evenodd;fill:#9A6D71;" d="M60.55,41c-0.2,5.133-0.866,11.85-2,20.15
		c-1.333,10.1-4.267,17.966-8.8,23.6c-4.2,5.233-9.1,7.816-14.7,7.75c-5.367-0.1-9.883-3.017-13.55-8.75
		c-3.733-5.866-6.217-14.116-7.45-24.75c-1.033-8.967-1.65-19.483-1.85-31.55c-0.067-6.034-0.05-11.184,0.05-15.45h0.65
		c0.067,5.267,0.283,11.35,0.65,18.25c0.767,13.8,1.934,24.816,3.5,33.05c1.767,9.101,4.3,15.95,7.6,20.55
		c2.7,3.767,5.567,5.65,8.6,5.65c3.267,0,6.566-1.1,9.9-3.3c4.199-2.8,7.283-6.816,9.25-12.05c2.033-5.434,3.733-11.967,5.1-19.601
		c1.2-6.767,1.833-12.517,1.9-17.25c0.1-5.667,0.149-14.05,0.149-25.15l0.7-0.15C60.85,21.3,60.95,30.967,60.55,41z"/>
</g>
</svg>
