<?xml version="1.0" encoding="iso-8859-1"?>
<!-- Generator: Adobe Illustrator 15.1.0, SVG Export Plug-In . SVG Version: 6.00 Build 0)  -->
<!DOCTYPE svg PUBLIC "-//W3C//DTD SVG 1.1//EN" "http://www.w3.org/Graphics/SVG/1.1/DTD/svg11.dtd">
<svg version="1.1" id="buildings" xmlns="http://www.w3.org/2000/svg" xmlns:xlink="http://www.w3.org/1999/xlink" x="0px" y="0px"
	 width="31.65px" height="50px" viewBox="0 0 31.65 50" style="enable-background:new 0 0 31.65 50;" xml:space="preserve">
<symbol  id="FlashAICB_x2F_Illustrator_Symbols_x2F_ladder" viewBox="0 -50.023 31.65 50.023">
	<g id="Layer_1_2_">
		<g>
			<linearGradient id="SVGID_1_" gradientUnits="userSpaceOnUse" x1="-0.0376" y1="-4.21" x2="31.6123" y2="-4.21">
				<stop  offset="0" style="stop-color:#DAB26B"/>
				<stop  offset="1" style="stop-color:#F5E6C6"/>
			</linearGradient>
			<path style="fill-rule:evenodd;clip-rule:evenodd;fill:url(#SVGID_1_);" d="M26.95-1.4c1.8,0.467,3.367,0.933,4.7,1.4
				c-2.767-2.733-4.6-4.35-5.5-4.85c-2.066-1.2-3.733-2.033-5-2.5c-3.267-1.133-6.35-1.367-9.25-0.7c-2.867,0.667-5.7,2.2-8.5,4.6
				C1.967-2.217,0.833-1.067,0,0c2.033-0.467,4.3-0.933,6.8-1.4c5-0.934,8.7-1.4,11.1-1.4S23.317-2.333,26.95-1.4z"/>
			<linearGradient id="SVGID_2_" gradientUnits="userSpaceOnUse" x1="-0.0376" y1="-4.21" x2="31.6123" y2="-4.21">
				<stop  offset="0" style="stop-color:#DAB26B"/>
				<stop  offset="1" style="stop-color:#F5E6C6"/>
			</linearGradient>
			<path style="fill-rule:evenodd;clip-rule:evenodd;fill:url(#SVGID_2_);" d="M26.95-1.4c1.8,0.467,3.367,0.933,4.7,1.4
				c-2.767-2.733-4.6-4.35-5.5-4.85c-2.066-1.2-3.733-2.033-5-2.5c-3.267-1.133-6.35-1.367-9.25-0.7c-2.867,0.667-5.7,2.2-8.5,4.6
				C1.967-2.217,0.833-1.067,0,0c2.033-0.467,4.3-0.933,6.8-1.4c5-0.934,8.7-1.4,11.1-1.4S23.317-2.333,26.95-1.4z"/>
			<g>
				<path style="fill-rule:evenodd;clip-rule:evenodd;fill:#CCA666;" d="M26.15-4.85C25.417-5.317,24.7-5.717,24-6.05
					c-1.333-0.7-2.65-1.25-3.95-1.65c-2.5-0.267-5.15-0.4-7.95-0.4l-0.2,0.05c-2.867,0.667-5.7,2.2-8.5,4.6
					C1.967-2.217,0.833-1.067,0,0c1.8-0.433,3.85-0.867,6.15-1.3C6.383-1.967,6.767-2.6,7.3-3.2c0.9-1.033,2.067-1.683,3.5-1.95
					c1.6-0.3,3.017-0.483,4.25-0.55c1.633-0.066,4.3-0.017,8,0.15C24.25-5.483,25.633-5,27.2-4.1C26.9-4.367,26.55-4.617,26.15-4.85
					z"/>
			</g>
			<linearGradient id="SVGID_3_" gradientUnits="userSpaceOnUse" x1="6.6748" y1="-11.0498" x2="25.0249" y2="-11.0498">
				<stop  offset="0" style="stop-color:#D98460"/>
				<stop  offset="1" style="stop-color:#E8BA9C"/>
			</linearGradient>
			<path style="fill-rule:evenodd;clip-rule:evenodd;fill:url(#SVGID_3_);" d="M6.65-5.75c1.833-0.333,4.9-0.567,9.2-0.7
				C20.117-6.617,23-6.4,24.5-5.8l0.5-8.9c-3.5-1.1-6.783-1.65-9.85-1.65c-3.066,0-5.75,0.55-8.05,1.65L6.65-5.75z"/>
			<g>
				<path style="fill-rule:evenodd;clip-rule:evenodd;fill:#C87D58;" d="M13.95-15.2c-0.1-0.433-0.483-0.767-1.15-1
					c-2.267,0.267-4.167,0.767-5.7,1.5L6.65-5.75c1.267-0.233,3.333-0.417,6.2-0.55c-0.467-3.067-0.6-4.85-0.4-5.35L13.95-15.2z"/>
			</g>
			<linearGradient id="SVGID_4_" gradientUnits="userSpaceOnUse" x1="0.1001" y1="-16.2285" x2="30.5" y2="-16.2285">
				<stop  offset="0" style="stop-color:#DAB26B"/>
				<stop  offset="1" style="stop-color:#F5E6C6"/>
			</linearGradient>
			<path style="fill-rule:evenodd;clip-rule:evenodd;fill:url(#SVGID_4_);" d="M0.1-13c6.733-1.3,11.933-1.867,15.6-1.7
				c3.667,0.133,8.6,0.7,14.8,1.7c-1-1.1-2.367-2.2-4.1-3.3c-3.433-2.2-6.917-3.25-10.45-3.15c-3.534,0.1-7.233,1.2-11.1,3.3
				C2.917-15.083,1.333-14.033,0.1-13z"/>
			<path style="fill-rule:evenodd;clip-rule:evenodd;fill:#CCA666;" d="M11.2-16.9c1.867-0.333,4.05-0.517,6.55-0.55
				c2.367-0.033,4.233,0.083,5.6,0.35l2.8,0.65c-3.4-2.1-6.8-3.1-10.2-3c-3.534,0.1-7.233,1.2-11.1,3.3
				C2.917-15.083,1.333-14.033,0.1-13c1.9-0.367,4.033-0.717,6.4-1.05C7.333-15.55,8.9-16.5,11.2-16.9z"/>
			<linearGradient id="SVGID_5_" gradientUnits="userSpaceOnUse" x1="7.1001" y1="-22.1543" x2="25.9251" y2="-22.1543">
				<stop  offset="0" style="stop-color:#D98460"/>
				<stop  offset="1" style="stop-color:#E8BA9C"/>
			</linearGradient>
			<path style="fill-rule:evenodd;clip-rule:evenodd;fill:url(#SVGID_5_);" d="M16.1-18.35c3.8,0,6.733,0.383,8.8,1.15l1.05-8.55
				c-3.233-0.833-6.383-1.283-9.45-1.35c-1.9-0.066-4.033,0.25-6.4,0.95l-3,1.1l0.65,7.5C9.483-18.083,12.267-18.35,16.1-18.35z"/>
			<g>
				<path style="fill-rule:evenodd;clip-rule:evenodd;fill:#C87D58;" d="M13.15-18.3c0-2.767,0.05-4.65,0.15-5.65l0.35-3
					c-2.367,0.367-4.55,1-6.55,1.9l0.65,7.5C8.883-17.917,10.683-18.167,13.15-18.3z"/>
			</g>
			<linearGradient id="SVGID_6_" gradientUnits="userSpaceOnUse" x1="2.4502" y1="-26.7119" x2="29.8999" y2="-26.7119">
				<stop  offset="0" style="stop-color:#DAB26B"/>
				<stop  offset="1" style="stop-color:#F5E6C6"/>
			</linearGradient>
			<path style="fill-rule:evenodd;clip-rule:evenodd;fill:url(#SVGID_6_);" d="M2.45-22.85c1.267-0.7,2.8-1.367,4.6-2
				c3.633-1.3,6.817-1.883,9.55-1.75s5.767,0.633,9.1,1.5c1.667,0.434,3.066,0.85,4.2,1.25c-0.8-1.2-1.983-2.367-3.55-3.5
				c-3.133-2.333-6.633-3.4-10.5-3.2c-3.9,0.167-7.3,1.5-10.2,4L2.45-22.85z"/>
			<path style="fill-rule:evenodd;clip-rule:evenodd;fill:#CCA666;" d="M11.25-28.05c1.033-0.3,2.767-0.517,5.2-0.65
				c2.466-0.1,4.35-0.05,5.65,0.15c1.5,0.2,2.767,0.5,3.8,0.9c-2.933-2.1-6.283-3.067-10.05-2.9c-3.9,0.167-7.3,1.5-10.2,4l-3.2,3.7
				c1.6-0.867,3.483-1.65,5.65-2.35C8.867-26.733,9.917-27.683,11.25-28.05z"/>
			<linearGradient id="SVGID_7_" gradientUnits="userSpaceOnUse" x1="8.3501" y1="-33.75" x2="25.4251" y2="-33.75">
				<stop  offset="0" style="stop-color:#D98460"/>
				<stop  offset="1" style="stop-color:#E8BA9C"/>
			</linearGradient>
			<path style="fill-rule:evenodd;clip-rule:evenodd;fill:url(#SVGID_7_);" d="M16.75-29.55c2.7,0.066,5.483,0.5,8.35,1.3l0.3-9.55
				c-3.633-0.967-6.566-1.45-8.8-1.45c-2.267,0-5.017,0.683-8.25,2.05l0.05,8.75c0.233-0.233,1.167-0.483,2.8-0.75
				C13.067-29.5,14.917-29.617,16.75-29.55z"/>
			<g>
				<path style="fill-rule:evenodd;clip-rule:evenodd;fill:#C87D58;" d="M13.6-29.5c-0.2-0.5-0.4-1.167-0.6-2
					c-0.3-1.133-0.417-1.983-0.35-2.55c0.033-0.4,0.283-2,0.75-4.8c-1.066,0.233-2.233,0.583-3.5,1.05l-1.55,0.6l0.05,8.75
					c0.167-0.167,0.733-0.35,1.7-0.55C11.133-29.2,12.3-29.367,13.6-29.5z"/>
			</g>
			<linearGradient id="SVGID_8_" gradientUnits="userSpaceOnUse" x1="3.0498" y1="-38.707" x2="30.2002" y2="-38.707">
				<stop  offset="0" style="stop-color:#DAB26B"/>
				<stop  offset="1" style="stop-color:#F5E6C6"/>
			</linearGradient>
			<path style="fill-rule:evenodd;clip-rule:evenodd;fill:url(#SVGID_8_);" d="M3.05-35.9c5.434-1.5,9.8-2.2,13.1-2.1
				c3.333,0.133,8.017,0.65,14.05,1.55c-0.3-0.9-1.133-1.783-2.5-2.65c-2.667-1.733-6.567-2.533-11.7-2.4c-4.5,0.133-8,1.1-10.5,2.9
				L3.05-35.9z"/>
			<g>
				<path style="fill-rule:evenodd;clip-rule:evenodd;fill:#CCA666;" d="M8.95-37.25c0.7-0.8,1.65-1.35,2.85-1.65
					c1.367-0.4,3.217-0.717,5.55-0.95c2.133-0.233,3.933-0.316,5.4-0.25c1.8,0.033,3.267,0.267,4.4,0.7v-0.05
					c-2.6-1.5-6.316-2.183-11.15-2.05c-4.5,0.133-8,1.1-10.5,2.9l-2.45,2.7C4.85-36.4,6.817-36.85,8.95-37.25z"/>
			</g>
			<linearGradient id="SVGID_9_" gradientUnits="userSpaceOnUse" x1="8.1001" y1="-45.1362" x2="26.5251" y2="-45.1362">
				<stop  offset="0" style="stop-color:#D98460"/>
				<stop  offset="1" style="stop-color:#E8BA9C"/>
			</linearGradient>
			<path style="fill-rule:evenodd;clip-rule:evenodd;fill:url(#SVGID_9_);" d="M8.65-40.25c3.267-0.467,6.017-0.667,8.25-0.6
				c2.267,0.067,5.167,0.267,8.7,0.6L26.5-49c-3.067-0.567-6.067-0.9-9-1c-1.8-0.1-3.917,0.133-6.35,0.7L8.1-48.4L8.65-40.25z"/>
			<g>
				<path style="fill-rule:evenodd;clip-rule:evenodd;fill:#C87D58;" d="M13.4-40.75c-0.5-1.433-0.75-2.85-0.75-4.25
					c0-1.367,0.133-2.917,0.4-4.65c-1.133,0.2-2.3,0.467-3.5,0.8L8.1-48.4l0.55,8.15L13.4-40.75z"/>
			</g>
			<polygon style="fill-rule:evenodd;clip-rule:evenodd;fill:#EDC9B1;" points="22.2,-7.65 23.55,-7.45 22.9,-12.85 			"/>
			<polygon style="fill-rule:evenodd;clip-rule:evenodd;fill:#EDC9B1;" points="23.25,-19.25 23.9,-21.1 24.4,-18.05 24.6,-23.6 
				23.4,-23.95 			"/>
			<polygon style="fill-rule:evenodd;clip-rule:evenodd;fill:#EDC9B1;" points="22.75,-30.35 24.05,-29.85 23.55,-36.25 			"/>
			<polygon style="fill-rule:evenodd;clip-rule:evenodd;fill:#EDC9B1;" points="24.4,-41.8 25.6,-48.2 23.55,-48.35 			"/>
			<polygon style="fill-rule:evenodd;clip-rule:evenodd;fill:#E5B190;" points="17.15,-7.95 20.2,-7.65 20.35,-13.35 16.85,-13.35 
							"/>
			<path style="fill-rule:evenodd;clip-rule:evenodd;fill:#E5B190;" d="M17.85-19.75c0.433-0.1,1.617,0.067,3.55,0.5l0.65-5.2
				c-0.9-0.466-1.733-0.816-2.5-1.05c-0.5-0.133-0.983-0.2-1.45-0.2l-0.6,0.05L17.85-19.75z"/>
			<path style="fill-rule:evenodd;clip-rule:evenodd;fill:#E5B190;" d="M18-30.85c0.9-0.133,1.85-0.133,2.85,0l1.2-5.55
				c-0.566,0-1.183-0.117-1.85-0.35c-0.667-0.233-1.45-0.117-2.35,0.35L18-30.85z"/>
			<path style="fill-rule:evenodd;clip-rule:evenodd;fill:#E5B190;" d="M18.35-42.3l0.5-0.35C19.217-42.883,19.5-43,19.7-43
				c0.333,0,1.066,0.35,2.2,1.05l-0.35-6.9H17.5L18.35-42.3z"/>
		</g>
	</g>
</symbol>
<use xlink:href="#FlashAICB_x2F_Illustrator_Symbols_x2F_ladder"  width="31.65" height="50.023" id="ladder" y="-50.023" transform="matrix(1 0 0 -1 0 0)" style="overflow:visible;"/>
</svg>
