<?xml version="1.0" encoding="iso-8859-1"?>
<!-- Generator: Adobe Illustrator 15.1.0, SVG Export Plug-In . SVG Version: 6.00 Build 0)  -->
<!DOCTYPE svg PUBLIC "-//W3C//DTD SVG 1.1//EN" "http://www.w3.org/Graphics/SVG/1.1/DTD/svg11.dtd">
<svg version="1.1" id="Layer_3" xmlns="http://www.w3.org/2000/svg" xmlns:xlink="http://www.w3.org/1999/xlink" x="0px" y="0px"
	 width="45.85px" height="50px" viewBox="0 0 45.85 50" style="enable-background:new 0 0 45.85 50;" xml:space="preserve">
<g>
	<polygon style="fill-rule:evenodd;clip-rule:evenodd;fill:#A97340;" points="1.1,28.6 0,0 5.8,0 5.3,29 9.05,50 0.05,50 	"/>
	<polygon style="fill-rule:evenodd;clip-rule:evenodd;fill:#A97340;" points="45.4,0 43.75,16 44.3,33.1 45.85,50 37.8,50 
		39.35,21.1 38.8,0 	"/>
	<polygon style="fill-rule:evenodd;clip-rule:evenodd;fill:#A97340;" points="41.3,38.35 16.3,38.85 2.3,36.3 3.3,32.15 21.8,35.25 
		41.8,33.7 	"/>
	<polygon style="fill-rule:evenodd;clip-rule:evenodd;fill:#A97340;" points="42.3,16.6 25.3,12.95 3.3,15.55 2.8,10.35 23.3,9.85 
		42.8,10.85 	"/>
	<polygon style="fill-rule:evenodd;clip-rule:evenodd;fill:#895E37;" points="2.3,6.65 1.35,9.9 2.95,22.8 2.05,31.2 2.8,47.45 
		5.85,49.25 9.05,50 0.05,50 1.05,28.5 0,0 1.55,0 	"/>
	<polygon style="fill-rule:evenodd;clip-rule:evenodd;fill:#895E37;" points="40.85,28 40.05,30.15 41.1,32.9 39.85,48.2 
		42.8,49.35 45.85,50 37.8,50 38.35,38.6 40.05,35.9 38.6,33.85 39.3,16.05 40.05,13.45 39.1,10.65 38.8,0 41.95,0 40.45,8.3 
		40.95,13.2 	"/>
	<path style="fill-rule:evenodd;clip-rule:evenodd;fill:#895E37;" d="M39.45,15.95l-14.15-3L5.45,15.3
		c-0.5-0.367-0.883-0.783-1.15-1.25c-0.2-0.267-0.3-0.6-0.3-1l0.05-0.55l8.9,0.7l1.75-0.95l1.85,0.8l8.8-1.3l8.601,1.9l6.399-0.35
		L40.2,14.5C40.066,14.9,39.816,15.383,39.45,15.95z"/>
	<path style="fill-rule:evenodd;clip-rule:evenodd;fill:#895E37;" d="M4.1,34.3l8,1.45l1.95,1.2l4.5-0.4l6.15,1.101L36.1,36.7l4.2-1
		c0,0.633-0.066,1.116-0.2,1.45c-0.1,0.333-0.649,0.8-1.649,1.399l-22.15,0.3l-9.85-1.8C5.683,36.717,5.133,36.366,4.8,36
		c-0.2-0.2-0.383-0.55-0.55-1.05L4.1,34.3z"/>
	<polygon style="fill-rule:evenodd;clip-rule:evenodd;fill:#B18961;" points="38.3,11 35.8,12.1 39.3,12.65 32.35,12.75 31.6,11.9 
		23.85,10.35 32.6,11.35 	"/>
	<polygon style="fill-rule:evenodd;clip-rule:evenodd;fill:#B18961;" points="22.2,11 17.7,11.9 16.35,11.5 	"/>
	<polygon style="fill-rule:evenodd;clip-rule:evenodd;fill:#B18961;" points="13.05,10.65 12.2,11.6 6.2,10.9 	"/>
	<path style="fill-rule:evenodd;clip-rule:evenodd;fill:#B18961;" d="M7.05,33.35L19.7,35.5l-4.35,0.1
		c-1.4-0.333-2.8-0.683-4.2-1.05C8.35,33.816,6.983,33.417,7.05,33.35z"/>
	<polygon style="fill-rule:evenodd;clip-rule:evenodd;fill:#B18961;" points="38.05,34.9 34.1,35.85 24.85,36 	"/>
	<polygon style="fill-rule:evenodd;clip-rule:evenodd;fill:#B18961;" points="2.8,1.6 3.8,2.65 4.2,5.6 2.35,9.75 3.3,5.75 	"/>
	<polygon style="fill-rule:evenodd;clip-rule:evenodd;fill:#B18961;" points="4.8,6.6 4.85,7.85 3.6,9.6 	"/>
	<polygon style="fill-rule:evenodd;clip-rule:evenodd;fill:#B18961;" points="3.2,15.1 3.85,15.75 4.7,22.5 3.55,28.65 4.05,23 	"/>
	<polygon style="fill-rule:evenodd;clip-rule:evenodd;fill:#B18961;" points="3.8,36.85 4.45,41.9 5.85,37.9 6.35,44.4 5.45,40.4 
		4.6,45.85 5.95,48.15 4.2,46.35 	"/>
	<polygon style="fill-rule:evenodd;clip-rule:evenodd;fill:#B18961;" points="42.6,1.15 42.35,7.1 44.3,1.6 42.35,9.5 42.05,17.25 
		41.55,7.85 	"/>
	<polygon style="fill-rule:evenodd;clip-rule:evenodd;fill:#B18961;" points="41.85,23.15 42.8,31.15 42.45,37.15 43.05,35 
		43.55,41.75 42.8,38.85 41.2,46.85 42.3,34.6 	"/>
</g>
</svg>
