<?xml version="1.0" encoding="iso-8859-1"?>
<!-- Generator: Adobe Illustrator 15.1.0, SVG Export Plug-In . SVG Version: 6.00 Build 0)  -->
<!DOCTYPE svg PUBLIC "-//W3C//DTD SVG 1.1//EN" "http://www.w3.org/Graphics/SVG/1.1/DTD/svg11.dtd">
<svg version="1.1" id="Layer_3" xmlns="http://www.w3.org/2000/svg" xmlns:xlink="http://www.w3.org/1999/xlink" x="0px" y="0px"
	 width="50px" height="50px" viewBox="0 0 50 50" style="enable-background:new 0 0 50 50;" xml:space="preserve">
<g>
	<polygon style="fill-rule:evenodd;clip-rule:evenodd;fill:#A97340;" points="4.3,0 9.7,0 7.2,28.05 11.5,50 0,50 	"/>
	<polygon style="fill-rule:evenodd;clip-rule:evenodd;fill:#A97340;" points="41.3,0 46.3,0 47.8,16.2 50,50 38.7,50 43.3,21.7 	"/>
	<path style="fill-rule:evenodd;clip-rule:evenodd;fill:#A97340;" d="M47.15,38.6c-9.367-1.033-15.934-1.899-19.7-2.6
		c-2.334-0.434-6.617-0.566-12.85-0.4C11.467,35.7,8.567,35.833,5.9,36l-0.5-6.25c10,0.667,17.35,1.35,22.05,2.05
		c2.934,0.434,7.017,0.3,12.25-0.399c2.633-0.334,4.967-0.717,7-1.15L47.15,38.6z"/>
	<polygon style="fill-rule:evenodd;clip-rule:evenodd;fill:#A97340;" points="47.2,14.35 26.5,14.75 5.9,11.6 5.9,8.5 27.45,12.15 
		46.2,9.5 	"/>
	<polygon style="fill-rule:evenodd;clip-rule:evenodd;fill:#895E37;" points="6.8,0 4.8,11.85 5.9,19.35 3.85,42.1 5.1,47.7 
		8.45,49.25 11.5,50 0,50 4.3,0 	"/>
	<path style="fill-rule:evenodd;clip-rule:evenodd;fill:#895E37;" d="M43.55,11.95l-0.3,2.6l-16.75,0.2
		c-3-0.433-6.05-0.883-9.15-1.35c-6.2-0.967-9.5-1.566-9.9-1.8c-0.4-0.2-0.633-0.583-0.7-1.15L6.8,9.7l19.4,3.8L43.55,11.95z"/>
	<path style="fill-rule:evenodd;clip-rule:evenodd;fill:#895E37;" d="M42.95,35.45l-0.15,2.8l-18.3-2.6L8.05,36.35l-0.9-1.25
		c-0.4-0.5-0.633-1.133-0.7-1.899l0.05-1.05L42.95,35.45z"/>
	<polygon style="fill-rule:evenodd;clip-rule:evenodd;fill:#895E37;" points="42.2,10.1 41.3,0 42.95,0 44.35,19.5 46.25,21.95 
		43.55,27.85 44.05,32.4 42.45,49.95 38.7,50 40.8,38 42.65,35.4 41.8,31.1 43.25,21.25 42.7,14.6 43.55,12.1 	"/>
	<polygon style="fill-rule:evenodd;clip-rule:evenodd;fill:#B18961;" points="7.7,1.15 8.3,0.85 6.9,7.85 6.2,8.35 	"/>
	<polygon style="fill-rule:evenodd;clip-rule:evenodd;fill:#B18961;" points="8.7,2.65 8.9,5.1 7.95,8 	"/>
	<polygon style="fill-rule:evenodd;clip-rule:evenodd;fill:#B18961;" points="6.3,13.1 6.8,12.9 7.2,18.15 5.15,30.35 6.55,18.5 	
		"/>
	<polygon style="fill-rule:evenodd;clip-rule:evenodd;fill:#B18961;" points="5.7,37.15 5.95,41.85 8.15,36.9 10.05,46.4 9.3,45.9 
		7.9,39.6 6.15,44 7.2,48.1 6.45,47.6 5.2,44.15 	"/>
	<polygon style="fill-rule:evenodd;clip-rule:evenodd;fill:#B18961;" points="16.9,31.35 33.3,33.1 40.45,32.1 36.7,33.15 
		41.55,33.85 34.2,33.9 	"/>
	<path style="fill-rule:evenodd;clip-rule:evenodd;fill:#B18961;" d="M9.4,30.9c4.934,0.646,8.051,1.046,9.35,1.199L8.8,31.25
		L9.4,30.9z"/>
	<polygon style="fill-rule:evenodd;clip-rule:evenodd;fill:#B18961;" points="40.95,11.1 42.4,11.4 27.9,12.5 	"/>
	<polygon style="fill-rule:evenodd;clip-rule:evenodd;fill:#B18961;" points="9.45,9.4 26.15,12.35 11.3,10.25 	"/>
	<polygon style="fill-rule:evenodd;clip-rule:evenodd;fill:#B18961;" points="44.45,48.75 45.4,32 44.9,28.85 46.2,31.65 
		46.15,48.85 45.45,40.65 	"/>
	<polygon style="fill-rule:evenodd;clip-rule:evenodd;fill:#B18961;" points="47.3,38 47.95,34.25 47.8,47.25 	"/>
	<polygon style="fill-rule:evenodd;clip-rule:evenodd;fill:#B18961;" points="44.15,1.75 45.3,6.15 45.65,18.15 	"/>
	<polygon style="fill-rule:evenodd;clip-rule:evenodd;fill:#B18961;" points="46.95,13.5 47.55,21.85 46.8,24.25 	"/>
</g>
</svg>
