<?xml version="1.0" encoding="iso-8859-1"?>
<!-- Generator: Adobe Illustrator 15.1.0, SVG Export Plug-In . SVG Version: 6.00 Build 0)  -->
<!DOCTYPE svg PUBLIC "-//W3C//DTD SVG 1.1//EN" "http://www.w3.org/Graphics/SVG/1.1/DTD/svg11.dtd">
<svg version="1.1" id="Layer_3" xmlns="http://www.w3.org/2000/svg" xmlns:xlink="http://www.w3.org/1999/xlink" x="0px" y="0px"
	 width="64.25px" height="107.7px" viewBox="0 0 64.25 107.7" style="enable-background:new 0 0 64.25 107.7;" xml:space="preserve"
	>
<symbol  id="FlashAICB_x2F_Layer_3_x2F__x3C_Path_x3E__x5F_21" viewBox="-0.027 -6.678 20.183 6.683">
	<g id="Layer_1_2_">
		<path style="fill-rule:evenodd;clip-rule:evenodd;fill:#4F5351;" d="M0-2.6C0.233-0.933,3.233-0.067,9,0
			c5.633,0.067,9.083-0.533,10.35-1.8c1.167-1.133,1.066-2.184-0.3-3.15c-1.333-0.933-3.517-1.483-6.55-1.65
			C9.033-6.8,6.133-6.617,3.8-6.05C1.033-5.35-0.233-4.2,0-2.6z"/>
	</g>
</symbol>
<g>
	
		<use xlink:href="#FlashAICB_x2F_Layer_3_x2F__x3C_Path_x3E__x5F_21"  width="20.183" height="6.683" x="-0.027" y="-6.678" transform="matrix(1 0 0 -1 19.7998 101)" style="overflow:visible;opacity:0.3281;enable-background:new    ;"/>
	<polygon style="fill-rule:evenodd;clip-rule:evenodd;fill:#4D7B84;" points="17.5,59.8 36,61.8 31,106.8 25,104.8 	"/>
	<polygon style="fill-rule:evenodd;clip-rule:evenodd;fill:#7B99A2;" points="46.5,57.8 35.5,103.3 31,106.8 36,61.8 	"/>
	<polygon style="fill-rule:evenodd;clip-rule:evenodd;fill:#A6B8BF;" points="17.5,59.8 31,57.8 46.5,57.8 36,61.8 	"/>
	<path style="fill-rule:evenodd;clip-rule:evenodd;fill:#97999B;" d="M31.65,59.1L31.3,53.45l1.5-0.15v6.15
		c0,0.133-0.05,0.233-0.149,0.3C32.45,59.816,32.116,59.6,31.65,59.1z"/>
	<path style="fill-rule:evenodd;clip-rule:evenodd;fill:#97999B;" d="M29.3,48.1H35l-0.15,3.5c-0.433,2.3-1.449,3.417-3.05,3.35
		c-1.566-0.066-2.45-1.233-2.65-3.5L29.3,48.1z"/>
	<path style="fill-rule:evenodd;clip-rule:evenodd;fill:#737477;" d="M30.8,46.45v2.75c0.133,1.9,0.467,3.1,1,3.6
		c0.9,0.767,1.55,1.133,1.95,1.1c-0.434,0.6-0.967,0.883-1.6,0.85c-0.234,0.8-0.267,2.333-0.101,4.6l-0.3-0.25l-0.15-4.3
		c-0.267-0.033-0.55-0.149-0.85-0.35c-0.633-0.434-1.05-1.05-1.25-1.85c-0.2-0.7-0.3-2.05-0.3-4.05l0.1-2.75L30.8,46.45z"/>
	<path style="fill-rule:evenodd;clip-rule:evenodd;fill:#D3D4D6;" d="M32.05,47.1c1.733,0,2.717,0.333,2.95,1
		c0.233,0.667-0.65,0.933-2.65,0.8c-2.033-0.133-3.05-0.4-3.05-0.8C29.3,47.433,30.217,47.1,32.05,47.1z"/>
	<path style="fill-rule:evenodd;clip-rule:evenodd;fill:#D3D4D6;" d="M45,2.05c0.3,2.2,0.733,4.684,1.3,7.45
		c1.134,5.533,2.316,9.75,3.55,12.65c2,4.667,6.801,13.05,14.4,25.15l-4.5,0.75l1.5,3l-8.5-1l0.25,2l-6-1.5l-1.5,1.75l-3.75-2.5
		l-3.7,2.75l-6.3-3.5L29,51.55l-3.75-4.5L19,49.8l-4-5l-3,1.5l-4.25-3.25l-3.25,1L3.75,41.8L0,39.55L23.75,5.3L45,2.05z"/>
	
		<linearGradient id="SVGID_1_" gradientUnits="userSpaceOnUse" x1="5.2656" y1="-33.7231" x2="10.1248" y2="-33.7231" gradientTransform="matrix(0.1183 0.993 -0.993 0.1183 -2.609491e-004 4.679263e-004)">
		<stop  offset="0" style="stop-color:#D3D4D6"/>
		<stop  offset="1" style="stop-color:#97999B"/>
	</linearGradient>
	<path style="fill-rule:evenodd;clip-rule:evenodd;fill:url(#SVGID_1_);" d="M34.7,6c-7.467,0.967-11.1,0.733-10.9-0.7
		c0.167-1.167,1.267-2.2,3.3-3.1c1.767-0.8,3.95-1.383,6.55-1.75c2.399-0.367,4.55-0.5,6.449-0.4c2.867,0.167,4.5,0.833,4.9,2
		C45.566,3.75,42.134,5.067,34.7,6z"/>
	<polygon style="fill-rule:evenodd;clip-rule:evenodd;fill:#BEC0C2;" points="3.85,40.05 24.6,7.15 4.5,41.9 	"/>
	<path style="fill-rule:evenodd;clip-rule:evenodd;fill:#BEC0C2;" d="M6.75,42.9L26.1,7.65c-11.333,23.667-17,35.633-17,35.9
		c0,0.1-0.333-0.2-1-0.9L6.75,42.9z"/>
	<polygon style="fill-rule:evenodd;clip-rule:evenodd;fill:#BEC0C2;" points="14,45.05 27.5,8.3 16.5,45.65 15.35,44.3 	"/>
	<polygon style="fill-rule:evenodd;clip-rule:evenodd;fill:#BEC0C2;" points="23.75,47.4 29.85,8.05 26.5,47.9 25.25,46.55 	"/>
	<polygon style="fill-rule:evenodd;clip-rule:evenodd;fill:#BEC0C2;" points="30.35,49.4 32.1,7.65 33.35,49.55 31.85,48.4 	"/>
	<polygon style="fill-rule:evenodd;clip-rule:evenodd;fill:#BEC0C2;" points="40.25,50.3 36,7.8 43.5,49.8 42,49.05 	"/>
	<polygon style="fill-rule:evenodd;clip-rule:evenodd;fill:#BEC0C2;" points="46.1,50.9 38.6,7.65 49.35,50.4 47,49.9 	"/>
	<polygon style="fill-rule:evenodd;clip-rule:evenodd;fill:#BEC0C2;" points="41.5,8.55 54,49.8 52.6,49.3 52.25,51.3 	"/>
	<path style="fill-rule:evenodd;clip-rule:evenodd;fill:#BEC0C2;" d="M59.6,47.8l0.65,1.85c-1.366-2.4-2.9-5.217-4.6-8.45
		c-3.334-6.467-5.767-11.817-7.301-16.05c-0.733-2.066-1.75-5.733-3.05-11c-0.633-2.6-1.2-5.017-1.7-7.25
		c0.567,2.267,1.233,4.783,2,7.55c1.567,5.5,2.867,9.45,3.9,11.85c1.366,3.167,5.483,10.167,12.35,21L59.6,47.8z"/>
	<path style="fill-rule:evenodd;clip-rule:evenodd;fill:#A6B8BF;" d="M40.25,78.3c-0.866,5.367-1.9,10.75-3.1,16.15
		c0.133-1.5,0.267-3.017,0.399-4.55c0.2-3.101,0.233-4.75,0.101-4.95c-0.134-0.2-0.851,2.483-2.15,8.05
		c-0.634,2.8-1.25,5.616-1.85,8.45c0.833-6.367,1.75-12.767,2.75-19.2c2-12.833,3.366-19.316,4.1-19.45
		C42.1,62.434,42.017,67.6,40.25,78.3z"/>
	<path style="fill-rule:evenodd;clip-rule:evenodd;fill:#426971;" d="M19.5,63.2L23.3,77.1V63.45l0.65,12.85
		c0.533,9.3,1.05,15.684,1.55,19.15c0.467,3.467,1.367,6.2,2.7,8.2c0.633,1,1.233,1.649,1.8,1.949l-4.5-1.5
		c-0.933-6.899-1.9-13.816-2.9-20.75C20.969,72.041,19.936,65.324,19.5,63.2z"/>
	<path style="fill-rule:evenodd;clip-rule:evenodd;fill:#CAD5DA;" d="M30.1,58.15c-0.6,0.133-1.217,0.283-1.85,0.449
		C26.95,59,26.2,59.35,26,59.65c-0.2,0.3,1.25,0.649,4.35,1.05c0.226,0.023,0.451,0.049,0.675,0.075L20.6,59.8L30.1,58.15z"/>
</g>
</svg>
