<?xml version="1.0" encoding="iso-8859-1"?>
<!-- Generator: Adobe Illustrator 15.1.0, SVG Export Plug-In . SVG Version: 6.00 Build 0)  -->
<!DOCTYPE svg PUBLIC "-//W3C//DTD SVG 1.1//EN" "http://www.w3.org/Graphics/SVG/1.1/DTD/svg11.dtd">
<svg version="1.1" id="vine_x5F_01.ai" xmlns="http://www.w3.org/2000/svg" xmlns:xlink="http://www.w3.org/1999/xlink" x="0px"
	 y="0px" width="134px" height="112.65px" viewBox="0 0 134 112.65" style="enable-background:new 0 0 134 112.65;"
	 xml:space="preserve">
<symbol  id="vine_x5F_01.ai_Assets_x2F_Layer_1_x2F__x3C_Path_x3E__x5F_3" viewBox="-0.003 -74 98.643 74">
	<g id="Layer_1_2_">
		<path style="fill-rule:evenodd;clip-rule:evenodd;fill:#89AA8B;" d="M97.15-62c1.533-2.033,1.883-4.683,1.05-7.95
			c-0.6-0.767-1.184-1.667-1.75-2.7L95.8-74c0,0.4-0.117,0.85-0.35,1.35c-0.434,1-1.2,1.783-2.3,2.35c-1.5,0.733-4.2-0.267-8.1-3
			c1.833,1.566,2.317,3.233,1.45,5c-0.633,1.2-3.15,0.983-7.55-0.65c-5.8-2.133-9.733-3.25-11.8-3.35
			c-4.433-0.2-8.95-0.184-13.55,0.05c-6.5,0.367-12.05,1.15-16.65,2.35c-5.667,2.066-10.934,5.333-15.8,9.8
			c-3.833,3.5-7.617,7.983-11.35,13.45c-2.9,4.233-5.216,9.333-6.95,15.3C1.783-27.617,0.883-23.167,0.15-18
			c-0.4,2.9-0.017,6.767,1.15,11.6C1.867-3.967,2.483-1.833,3.15,0c-1.1-4.2-1.767-7.633-2-10.3C0.917-13.033,1.233-16.6,2.1-21
			c1.133-5.8,3.033-11.35,5.7-16.65c2.934-5.833,7.633-11.4,14.1-16.7c6.233-5.133,11.767-8.117,16.6-8.95
			c4.667-0.867,10.283-1.067,16.85-0.6c6.633,0.433,12.017,1.4,16.15,2.9c4.733,1.7,9.55,2.583,14.45,2.65
			C91.583-58.317,95.317-59.533,97.15-62z"/>
	</g>
</symbol>
<g>
	<g>
		<path style="fill-rule:evenodd;clip-rule:evenodd;fill:#A2BDA2;" d="M92.25,81.55c6-1.566,11.25-1.649,15.75-0.25
			c6.467,2,11.017,4.467,13.65,7.4c0.966,1.1,2.183,3.416,3.649,6.95c0.7,1.666,2.367,3.333,5,5c1.3,0.833,2.533,1.5,3.7,2
			c-1.333,0.199-3.45,0.3-6.35,0.3c-1.801,0-2.067,0.95-0.801,2.85c0.634,0.967,1.45,1.917,2.45,2.851
			c-5.1-1.567-8.866-2.467-11.3-2.7c-1.533-0.134-3.116,0.95-4.75,3.25c-0.8,1.133-1.45,2.283-1.95,3.45
			c0-0.4-0.116-0.851-0.35-1.351c-0.434-1-1.2-1.783-2.3-2.35c-1.5-0.733-4.2,0.267-8.101,3c1.834-1.566,2.316-3.233,1.45-5
			c-0.634-1.2-3.15-0.983-7.55,0.649c-5.8,2.134-9.733,3.25-11.8,3.351c-5.434,0.267-10.851,0.184-16.25-0.25
			c-7.833-0.601-14.083-1.851-18.75-3.75c-5.767-2.334-11.117-5.851-16.05-10.55C26.033,91.134,21.833,85.1,19,78.3
			c-2.267-5.366-3.683-11.35-4.25-17.95c-0.9-4.033-1.817-6.6-2.75-7.7c-0.833-0.967-1.8-0.316-2.9,1.95
			c-0.567,1.133-1.05,2.367-1.45,3.7c0-1,0.1-2.083,0.3-3.25c0.4-2.333,1.083-3.917,2.05-4.75c1.133-0.966,2.633-0.216,4.5,2.25
			c0.233-8.267,1.733-14.466,4.5-18.6c3.167-4.733,5.183-10.067,6.05-16c0.9-6.233-0.017-10.233-2.75-12
			c-2.1-1.367-4.816-1.117-8.15,0.75C10.217,8.833,7.5,9.817,6,9.65C4.467,9.45,3,8.167,1.6,5.8C0.933,4.633,0.4,3.467,0,2.3
			c0.767,2,1.933,3.534,3.5,4.6C6.667,9,10.267,7.683,14.3,2.95c3.1-3.6,6.467-3.883,10.1-0.85c3.733,3.066,5.6,8.017,5.6,14.85
			c0,3.167-1.183,8.083-3.55,14.75c-2.4,6.767-3.667,13.417-3.8,19.95c-0.133,6,2.75,12.633,8.65,19.9c-1.333-5.033-1-8.233,1-9.6
			c1.667-1.101,3.45-0.867,5.35,0.7C38.617,63.417,39.4,64.3,40,65.3c-0.833-0.767-1.75-1.383-2.75-1.85
			c-1.933-0.967-3.25-0.684-3.95,0.85c-0.833,1.934,0.317,6.3,3.45,13.101c4.6,4.433,9.367,7.949,14.3,10.55
			c5.1,2.666,9.3,3.783,12.6,3.35c2.167-0.267,4.817-0.967,7.95-2.1c-2.833-1.367-4.483-3.117-4.95-5.25
			c-0.4-1.934,0.2-4.066,1.8-6.4c0.8-1.166,1.649-2.133,2.55-2.899L69.05,77.8c-1,2.434-0.8,4.483,0.601,6.15
			c1.466,1.833,3.8,2.934,7,3.3C84.283,84.184,89.483,82.283,92.25,81.55z"/>
	</g>
	<g>
		<path style="fill-rule:evenodd;clip-rule:evenodd;fill:#89AA8B;" d="M86,93.65c7.934-3.601,15.066-4.65,21.4-3.15
			c4.966,1.2,8.6,3.583,10.899,7.15c1.2,1.8,3.384,4.183,6.55,7.149c1.601,1.467,3.084,2.75,4.45,3.851
			c-5.1-1.567-8.866-2.467-11.3-2.7c-1.434-0.101-2.866,0.783-4.3,2.649c0.833-3.267,0.483-5.916-1.05-7.949
			c-1.834-2.467-5.567-3.684-11.2-3.65c-4.9,0.066-9.717,0.95-14.45,2.65c-4.134,1.5-9.517,2.466-16.15,2.899
			c-6.566,0.467-12.183,0.267-16.85-0.6c-4.833-0.834-10.367-3.816-16.6-8.95c-6.467-5.3-11.167-10.866-14.1-16.7
			c-2.667-5.3-4.566-10.85-5.7-16.649c-0.867-4.4-1.184-7.967-0.95-10.7c0.133-1.667,0.517-3.883,1.15-6.65l0.85-3.65l-1.85,6.4
			c-1.167,4.833-1.55,8.7-1.15,11.6c0.733,5.167,1.633,9.617,2.7,13.35c1.733,5.967,4.05,11.066,6.95,15.3
			c3.733,5.467,7.517,9.95,11.35,13.45c4.867,4.467,10.133,7.733,15.8,9.8c-1.9-0.5-3.5-1.033-4.8-1.6
			c-5.767-2.334-11.117-5.851-16.05-10.55C26.033,91.134,21.833,85.1,19,78.3c-2.267-5.366-3.683-11.35-4.25-17.95
			c-0.9-4.033-1.817-6.6-2.75-7.7c-0.833-0.967-1.8-0.316-2.9,1.95c-0.567,1.133-1.05,2.367-1.45,3.7c0-1,0.1-2.083,0.3-3.25
			c0.4-2.333,1.083-3.917,2.05-4.75c1.133-0.966,2.633-0.216,4.5,2.25c0.233-8.267,1.733-14.466,4.5-18.6
			c3.167-4.733,5.183-10.067,6.05-16c0.9-6.233-0.017-10.233-2.75-12c-2.1-1.367-4.816-1.117-8.15,0.75
			C10.217,8.833,7.5,9.817,6,9.65C4.3,9.45,2.767,8.033,1.4,5.4C2.1,6.467,3,7.217,4.1,7.65C4.767,7.917,5.833,8.133,7.3,8.3
			c0.967,0.1,2.367-0.5,4.2-1.8c2.333-1.667,4.717-2.85,7.15-3.55c3.233-0.934,5.583,0.566,7.05,4.5
			c1.233,3.367,1.667,7.867,1.3,13.5c-0.133,2.033-0.8,4.55-2,7.55c-0.7,1.733-1.85,4.5-3.45,8.3
			c-2.833,7.6-3.466,15.217-1.9,22.851c1.067,5.166,3.617,10.8,7.65,16.899C31,82.184,35.233,87.217,40,91.65
			c4.233,3.933,11.583,5.966,22.05,6.1C71.75,97.85,79.733,96.483,86,93.65z"/>
		
			<use xlink:href="#vine_x5F_01.ai_Assets_x2F_Layer_1_x2F__x3C_Path_x3E__x5F_3"  width="98.643" height="74" x="-0.003" y="-74" transform="matrix(1 0 0 -1 15.5 38.6499)" style="overflow:visible;enable-background:new    ;"/>
		<path style="fill-rule:evenodd;clip-rule:evenodd;fill:#648168;" d="M16.8,45.05l1.85-6.4L17.8,42.3
			c-0.633,2.767-1.017,4.983-1.15,6.65c-0.233,2.733,0.083,6.3,0.95,10.7c1.133,5.8,3.033,11.35,5.7,16.649
			c2.934,5.834,7.633,11.4,14.1,16.7c6.233,5.134,11.767,8.116,16.6,8.95c4.667,0.866,10.283,1.066,16.85,0.6
			c6.634-0.434,12.017-1.399,16.15-2.899c4.733-1.7,9.55-2.584,14.45-2.65c5.633-0.033,9.366,1.184,11.2,3.65
			c1.533,2.033,1.883,4.683,1.05,7.949c-0.967,1.233-1.767,2.584-2.4,4.051c0-0.4-0.116-0.851-0.35-1.351
			c-0.434-1-1.2-1.783-2.3-2.35c-1.5-0.733-4.2,0.267-8.101,3c1.834-1.566,2.316-3.233,1.45-5c-0.634-1.2-3.15-0.983-7.55,0.649
			c-5.8,2.134-9.733,3.25-11.8,3.351c-4.434,0.2-8.95,0.184-13.551-0.05c-6.5-0.367-12.05-1.15-16.649-2.351
			c-5.667-2.066-10.934-5.333-15.8-9.8c-3.833-3.5-7.617-7.983-11.35-13.45c-2.9-4.233-5.216-9.333-6.95-15.3
			c-1.067-3.733-1.967-8.184-2.7-13.35C15.25,53.75,15.633,49.883,16.8,45.05z"/>
		<path style="fill-rule:evenodd;clip-rule:evenodd;fill:#89AA8B;" d="M74.6,88.6l-3,0.601c-2.833-1.367-4.483-3.117-4.95-5.25
			c-0.4-1.934,0.2-4.066,1.8-6.4c0.8-1.166,1.649-2.133,2.55-2.899l-1.1,1.3c-0.767,1.1-1.351,2.184-1.75,3.25
			c-1.234,3.366-0.184,5.95,3.149,7.75L74.6,88.6z"/>
		<path style="fill-rule:evenodd;clip-rule:evenodd;fill:#89AA8B;" d="M31.65,65.65c-0.233,2,0.383,4.883,1.85,8.649l-2.2-2.75
			l-0.65-3.35c-0.367-3.167,0.184-5.25,1.65-6.25c1.2-0.767,2.434-0.867,3.7-0.3c-1.733,0-2.883,0.3-3.45,0.899
			C32.15,62.983,31.85,64.017,31.65,65.65z"/>
	</g>
	<path style="fill-rule:evenodd;clip-rule:evenodd;fill:#475A4B;" d="M79.8,110.95c-2.7,0.166-6.434,0.133-11.2-0.101
		c-4.167-0.199-8.1-0.649-11.8-1.35l-4.35-0.95L76,109.1c3.833,0.101,8.934-0.966,15.3-3.199c6.167-2.134,9.816-3.15,10.95-3.051
		c1.866,0.134,3.5,1.2,4.9,3.2c0.699,0.967,1.199,1.934,1.5,2.9c-1.267-0.533-2.917-0.2-4.95,1c-1.033,0.566-1.934,1.2-2.7,1.899
		l1.6-1.899c0.5-0.566,0.551-1.384,0.15-2.45c-0.5-1.2-1.467-1.8-2.9-1.8c-1.267,0-3.483,0.6-6.649,1.8
		c-3.967,1.467-6.25,2.283-6.851,2.45C84.35,110.483,82.167,110.816,79.8,110.95z"/>
</g>
</svg>
