<?xml version="1.0" encoding="iso-8859-1"?>
<!-- Generator: Adobe Illustrator 15.1.0, SVG Export Plug-In . SVG Version: 6.00 Build 0)  -->
<!DOCTYPE svg PUBLIC "-//W3C//DTD SVG 1.1//EN" "http://www.w3.org/Graphics/SVG/1.1/DTD/svg11.dtd">
<svg version="1.1" id="buildings_1" xmlns="http://www.w3.org/2000/svg" xmlns:xlink="http://www.w3.org/1999/xlink" x="0px"
	 y="0px" width="90.35px" height="180.65px" viewBox="0 0 90.35 180.65" style="enable-background:new 0 0 90.35 180.65;"
	 xml:space="preserve">
<g>
	<path style="fill-rule:evenodd;clip-rule:evenodd;fill:#B27753;" d="M66,30.5c4.467,21.567,6.8,37.683,7,48.35
		c0.134,6.533,0.017,12.317-0.35,17.35c-0.2,2.533-0.417,4.416-0.65,5.649l18.35,73L88.7,180.65L53.35,99.2L35.85,0l5.2,0.3
		c3.9,0.567,6.884,1.75,8.95,3.55c3.934,3.4,7.233,7.217,9.9,11.45C62.866,20.067,64.9,25.133,66,30.5z"/>
	<path style="fill-rule:evenodd;clip-rule:evenodd;fill:#A1603C;" d="M66,45.2c2.366,13.033,3.417,26.617,3.15,40.75
		c-0.134,7.066-0.517,12.816-1.15,17.25l20.7,77.45H0L14,94.85c-0.6-2.433-1.267-5.483-2-9.149c-1.433-7.333-2.433-14.067-3-20.2
		c-0.4-4.367-0.35-9.683,0.15-15.95c0.567-7.6,1.7-14.617,3.4-21.05c4.6-17.567,12.2-27,22.8-28.3
		C41.917-0.633,47.9,2.75,53.3,10.35C59.033,18.35,63.267,29.967,66,45.2z"/>
	<path style="fill-rule:evenodd;clip-rule:evenodd;fill:#DFBC71;" d="M36.75,8.7c10.833-1.9,18.767,7.816,23.8,29.15
		c3.066,13.1,4.634,26.883,4.7,41.35c0,7.833-0.5,16.166-1.5,25l20,76.45H6.25l7-50.95l6.5-36c-0.967-2.101-1.967-4.767-3-8
		c-2.067-6.467-3.233-12.467-3.5-18c-0.667-14.2-0.033-25.5,1.9-33.9C18.55,19,25.75,10.633,36.75,8.7z"/>
	<g>
		<path style="fill-rule:evenodd;clip-rule:evenodd;fill:#E7CD93;" d="M15.15,36.8l-0.65,0.3l0.3-1.55l0.35,0.3V33.9
			c0.3-1.433,0.733-3.05,1.3-4.85L16.6,46.4c0.267-0.867,0.733-1.583,1.4-2.15c0.8-0.7,1.65-1.067,2.55-1.1
			c0.434,0,0.8,0.05,1.1,0.15l-0.2,1.2c-0.267,0.933-0.733,1.683-1.4,2.25c-0.966,0.833-2.1,1.467-3.4,1.9l0.05,5.4
			c0.167-0.333,0.383-0.65,0.65-0.95c0.467-0.367,0.95-0.55,1.45-0.55c0.233,0,0.434,0.034,0.6,0.1l-0.15,0.65
			c-0.133,0.5-0.383,0.9-0.75,1.2c-0.5,0.433-1.1,0.733-1.8,0.9l0.15,13.15c0.167-0.7,0.483-1.3,0.95-1.8
			c0.534-0.6,1.15-0.967,1.85-1.1c0.367-0.066,0.667-0.066,0.9,0v0.95c-0.066,0.767-0.367,1.433-0.9,2
			c-0.566,0.667-1.5,1.217-2.8,1.65l0.2,16.3c-0.6-1.8-1.117-3.5-1.55-5.1l-0.15-18.5c-0.667,0.3-1.417,0.3-2.25,0l-0.05-2.15
			c0.267,0.067,0.517,0.167,0.75,0.3c0.534,0.2,1.05,0.583,1.55,1.15L15.15,36.8z"/>
		<path style="fill-rule:evenodd;clip-rule:evenodd;fill:#E7CD93;" d="M22.9,88.55l-0.1,1.5c-0.233,1.134-0.75,2.101-1.55,2.9
			c-0.333,0.333-0.867,0.733-1.6,1.2l0.1-0.45c-0.4-0.867-0.867-2.033-1.4-3.5L18.5,90c0.933-0.9,1.95-1.417,3.05-1.55
			C22.083,88.417,22.533,88.45,22.9,88.55z"/>
		<path style="fill-rule:evenodd;clip-rule:evenodd;fill:#E7CD93;" d="M20.45,120.55l-0.15,0.7c-0.167,0.533-0.466,0.95-0.9,1.25
			c-0.467,0.4-1.133,0.7-2,0.9l0.1,10.1c0.267-0.9,0.75-1.634,1.45-2.2c0.7-0.467,1.4-0.7,2.1-0.7c0.367,0.034,0.667,0.101,0.9,0.2
			l-0.2,0.95c-0.267,0.733-0.7,1.3-1.3,1.7c-0.633,0.533-1.617,0.95-2.95,1.25l0.3,29.149c0.267-0.533,0.517-0.916,0.75-1.149
			c0.633-0.566,1.3-0.884,2-0.95c0.333-0.033,0.617-0.017,0.85,0.05l-0.1,0.95c-0.167,0.733-0.5,1.316-1,1.75
			c-0.533,0.667-1.35,1.2-2.45,1.6l0.1,7.95c0.267-0.767,0.7-1.399,1.3-1.899c0.6-0.467,1.25-0.684,1.95-0.65
			c0.333,0,0.617,0.05,0.85,0.15l-0.15,0.899c-0.233,0.667-0.65,1.217-1.25,1.65c-0.7,0.6-1.6,0.95-2.7,1.05l0.05,5.4h-1.7v-0.101
			l-0.4,0.101h-1.6c-0.5-0.101-0.933-0.301-1.3-0.601c-0.7-0.533-1.117-1.149-1.25-1.85c0-0.601-0.017-0.9-0.05-0.9
			c0-0.1,0.333-0.116,1-0.05c0.767,0.066,1.417,0.316,1.95,0.75c0.667,0.566,1.2,1.134,1.6,1.7l-0.15-20.8
			c-1.1,0.5-2.2,0.466-3.3-0.101c-1.033-0.633-1.433-1.383-1.2-2.25c0.433-0.666,0.633-0.916,0.6-0.75
			c0.066,0.233,0.7,0.55,1.9,0.95c0.667,0.366,1.333,0.967,2,1.8l-0.05-8.649c-1.3,0.466-2.5,0.449-3.6-0.051
			c-0.934-0.433-1.5-1.033-1.7-1.8l0.15-1.1c1.067-0.101,2.017,0.033,2.85,0.399c0.733,0.334,1.5,0.934,2.3,1.801L15.8,115.7
			l1.45-8.15l0.15,14.55c0.167-0.433,0.45-0.8,0.85-1.1c0.533-0.4,1.067-0.6,1.6-0.6C20.117,120.4,20.317,120.45,20.45,120.55z"/>
		<path style="fill-rule:evenodd;clip-rule:evenodd;fill:#E7CD93;" d="M23.7,20.3l-0.25,1.55c-0.367,1.2-1.034,2.167-2,2.9
			c-1.067,0.833-2.4,1.317-4,1.45c0.8-2.034,1.7-3.9,2.7-5.6C21.483,19.967,22.667,19.867,23.7,20.3z"/>
		<path style="fill-rule:evenodd;clip-rule:evenodd;fill:#E7CD93;" d="M41.7,20.3l-0.25,1.55c-0.367,1.2-1.034,2.167-2,2.9
			c-1.333,1.133-3.017,1.617-5.05,1.45l0.2,20.2c0.267-0.867,0.733-1.583,1.4-2.15c0.8-0.7,1.65-1.067,2.55-1.1
			c0.434,0,0.8,0.05,1.1,0.15c0,1.4-0.533,2.55-1.6,3.45c-0.966,0.833-2.1,1.467-3.4,1.9l0.05,5.4c0.167-0.333,0.383-0.65,0.65-0.95
			c0.467-0.367,0.95-0.55,1.45-0.55c0.233,0,0.434,0.034,0.6,0.1l-0.15,0.65c-0.133,0.5-0.383,0.9-0.75,1.2
			c-0.5,0.433-1.1,0.733-1.8,0.9l0.15,13.15c0.167-0.7,0.483-1.3,0.95-1.8c0.534-0.6,1.15-0.967,1.85-1.1
			c0.367-0.066,0.667-0.066,0.9,0v0.95c-0.066,0.767-0.367,1.433-0.9,2c-0.566,0.667-1.5,1.217-2.8,1.65l0.25,22
			c0.367-0.934,0.833-1.683,1.4-2.25c0.933-0.9,1.95-1.417,3.05-1.55c0.534-0.034,0.983,0,1.35,0.1l-0.1,1.5
			c-0.233,1.134-0.75,2.101-1.55,2.9c-1.1,1.1-2.483,1.833-4.15,2.2l0.3,26.949c0.167-0.433,0.45-0.8,0.85-1.1
			c0.533-0.4,1.067-0.6,1.6-0.6c0.267,0,0.467,0.05,0.6,0.149l-0.15,0.7c-0.167,0.533-0.466,0.95-0.9,1.25
			c-0.467,0.4-1.133,0.7-2,0.9l0.1,10.1c0.267-0.9,0.75-1.634,1.45-2.2c0.7-0.467,1.4-0.7,2.1-0.7c0.367,0.034,0.667,0.101,0.9,0.2
			l-0.2,0.95c-0.267,0.733-0.7,1.3-1.3,1.7c-0.633,0.533-1.617,0.95-2.95,1.25l0.3,29.149c0.267-0.533,0.517-0.916,0.75-1.149
			c0.633-0.566,1.3-0.884,2-0.95c0.333-0.033,0.617-0.017,0.85,0.05l-0.1,0.95c-0.167,0.733-0.5,1.316-1,1.75
			c-0.533,0.667-1.35,1.2-2.45,1.6l0.1,7.95c0.267-0.767,0.7-1.399,1.3-1.899c0.6-0.467,1.25-0.684,1.95-0.65
			c0.333,0,0.617,0.05,0.85,0.15l-0.15,0.899c-0.233,0.667-0.65,1.217-1.25,1.65c-0.7,0.6-1.6,0.95-2.7,1.05l0.05,5.4h-1.7v-0.101
			l-0.4,0.101h-1.6c-0.5-0.101-0.933-0.301-1.3-0.601c-0.7-0.533-1.117-1.149-1.25-1.85c0-0.601-0.017-0.9-0.05-0.9
			c0-0.1,0.333-0.116,1-0.05c0.767,0.066,1.417,0.316,1.95,0.75c0.667,0.566,1.2,1.134,1.6,1.7l-0.15-20.8
			c-1.1,0.5-2.2,0.466-3.3-0.101c-1.033-0.633-1.433-1.383-1.2-2.25c0.433-0.666,0.633-0.916,0.6-0.75
			c0.066,0.233,0.7,0.55,1.9,0.95c0.667,0.366,1.333,0.967,2,1.8l-0.05-8.649c-1.3,0.466-2.5,0.449-3.6-0.051
			c-0.934-0.466-1.517-1.1-1.75-1.899l-0.05-1c0.033,0,0.383-0.017,1.05-0.05c0.733,0,1.417,0.149,2.05,0.449
			c0.733,0.334,1.5,0.934,2.3,1.801l-0.3-33.851c-1.1,0.566-2.1,0.467-3-0.3c-0.467-0.4-0.8-0.816-1-1.25
			c-0.167-0.4-0.267-0.634-0.3-0.7c-0.067,0,0.2-0.1,0.8-0.3c0.767-0.1,1.417,0.083,1.95,0.55c0.633,0.601,1.15,1.134,1.55,1.601
			L33.7,107.3c-1.6,0.101-2.917-0.083-3.95-0.55c-0.967-0.434-1.65-1.083-2.05-1.95l-0.25-1.1c0.066,0.033,0.466-0.05,1.2-0.25
			c0.9-0.101,1.767,0.033,2.6,0.399c1,0.467,1.817,1.25,2.45,2.351l-0.15-22.25c-1.033,0.7-2.1,0.767-3.2,0.2
			c-0.767-0.467-1.233-1.033-1.4-1.7c0-0.534-0.017-0.8-0.05-0.8c0-0.066,0.3-0.083,0.9-0.05c0.667,0.033,1.25,0.183,1.75,0.45
			c0.5,0.233,1.167,0.684,2,1.35l-0.2-20.45c-0.833,0.333-1.667,0.316-2.5-0.05c-0.6-0.333-1.017-0.75-1.25-1.25l-0.15-0.7
			l0.75-0.15c0.6-0.066,1.133,0.034,1.6,0.3c0.534,0.2,1.05,0.583,1.55,1.15l-0.2-25.45c-1.467,0.8-2.917,0.867-4.35,0.2
			c-1.033-0.467-1.767-1.1-2.2-1.9c-0.233-0.733-0.367-1.117-0.4-1.15l1.25-0.4c1.033-0.2,1.983-0.1,2.85,0.3
			c0.934,0.433,1.883,1.1,2.85,2L33,13.05c-1.533,0.333-2.917,0.167-4.15-0.5l-0.75-0.5c1.033-0.667,2.167-1.267,3.4-1.8
			c0.6,0.467,1.083,1,1.45,1.6V9.7l1.3-0.45L34.4,24.9c0.767-1.633,1.65-2.833,2.65-3.6c1.034-0.8,2.117-1.2,3.25-1.2
			C40.867,20.1,41.333,20.167,41.7,20.3z"/>
		<path style="fill-rule:evenodd;clip-rule:evenodd;fill:#E7CD93;" d="M41.45,9.65c-0.1,0,0.066-0.083,0.5-0.25
			c0.433-0.167,0.883-0.267,1.35-0.3c1.567,0.5,3.05,1.316,4.45,2.45l0.2,0.3v-0.1l1.35,1.2L49.4,24.9
			c0.767-1.633,1.649-2.833,2.649-3.6c0.733-0.566,1.517-0.933,2.351-1.1c0.6,1.133,1.083,2.133,1.449,3
			c-0.3,0.533-0.767,1.05-1.399,1.55c-1.334,1.133-3.017,1.617-5.05,1.45L49.6,46.4c0.267-0.867,0.733-1.583,1.4-2.15
			c0.8-0.7,1.65-1.067,2.55-1.1c0.434,0,0.8,0.05,1.101,0.15c0,1.4-0.534,2.55-1.601,3.45c-0.967,0.833-2.1,1.467-3.399,1.9
			l0.05,5.4c0.166-0.333,0.383-0.65,0.649-0.95c0.733-0.6,1.417-0.75,2.051-0.45c-0.034,0.733-0.334,1.35-0.9,1.85
			c-0.5,0.433-1.1,0.733-1.8,0.9l0.149,13.15c0.167-0.7,0.483-1.3,0.95-1.8c0.533-0.6,1.15-0.967,1.851-1.1
			c0.366-0.066,0.666-0.066,0.899,0c0.233,1.067-0.066,2.05-0.899,2.95c-0.567,0.667-1.5,1.217-2.801,1.65l0.25,22
			c0.367-0.934,0.834-1.683,1.4-2.25c0.934-0.9,1.95-1.417,3.05-1.55c0.533-0.034,0.983,0,1.351,0.1l-0.101,1.5
			c-0.233,1.134-0.75,2.101-1.55,2.9c-1.1,1.1-2.483,1.833-4.15,2.2L50.4,122.1c0.166-0.433,0.449-0.8,0.85-1.1
			c0.533-0.4,1.066-0.6,1.6-0.6c0.267,0,0.467,0.05,0.601,0.149l-0.15,0.7c-0.166,0.533-0.467,0.95-0.899,1.25
			c-0.467,0.4-1.134,0.7-2,0.9l0.1,10.1c0.267-0.9,0.75-1.634,1.45-2.2c0.7-0.467,1.399-0.7,2.1-0.7
			c0.367,0.034,0.667,0.101,0.9,0.2l-0.2,0.95c-0.267,0.733-0.7,1.3-1.3,1.7c-0.634,0.533-1.617,0.95-2.95,1.25l0.3,29.149
			c0.267-0.533,0.517-0.916,0.75-1.149c0.634-0.566,1.3-0.884,2-0.95c0.334-0.033,0.617-0.017,0.851,0.05l-0.101,0.95
			c-0.166,0.733-0.5,1.316-1,1.75c-0.533,0.667-1.35,1.2-2.45,1.6l0.101,7.95c0.267-0.767,0.7-1.399,1.3-1.899
			c0.6-0.467,1.25-0.684,1.95-0.65c0.333,0,0.616,0.05,0.85,0.15L54.9,172.55c-0.233,0.667-0.65,1.217-1.25,1.65
			c-0.7,0.6-1.601,0.95-2.7,1.05l0.05,5.4h-1.7v-0.101L48.9,180.65H47.3c-0.5-0.101-0.934-0.301-1.3-0.601
			c-0.7-0.533-1.117-1.149-1.25-1.85c0-0.601-0.017-0.9-0.05-0.9c0-0.1,0.333-0.116,1-0.05c0.767,0.066,1.416,0.316,1.95,0.75
			c0.666,0.566,1.199,1.134,1.6,1.7l-0.15-20.8c-1.1,0.5-2.199,0.466-3.3-0.101c-1.033-0.633-1.433-1.383-1.2-2.25
			c0.433-0.666,0.633-0.916,0.6-0.75c0.066,0.233,0.7,0.55,1.899,0.95c0.667,0.366,1.334,0.967,2,1.8l-0.05-8.649
			c-1.3,0.466-2.5,0.449-3.6-0.051c-0.934-0.466-1.517-1.1-1.75-1.899l-0.05-1c0.033,0,0.383-0.017,1.05-0.05
			c0.733,0,1.416,0.149,2.05,0.449c0.733,0.334,1.5,0.934,2.3,1.801l-0.3-33.851c-1.1,0.566-2.1,0.467-3-0.3
			c-0.467-0.4-0.8-0.816-1-1.25c-0.167-0.4-0.267-0.634-0.3-0.7c-0.067,0,0.2-0.1,0.8-0.3c0.767-0.1,1.417,0.083,1.95,0.55
			c0.633,0.601,1.149,1.134,1.55,1.601L48.7,107.3c-1.601,0.101-2.917-0.083-3.95-0.55c-0.967-0.434-1.65-1.083-2.05-1.95l-0.25-1.1
			c0.066,0.033,0.466-0.05,1.2-0.25c0.9-0.101,1.767,0.033,2.6,0.399c1,0.467,1.816,1.25,2.45,2.351l-0.15-22.25
			c-1.033,0.7-2.1,0.767-3.2,0.2c-0.766-0.467-1.233-1.033-1.399-1.7c0-0.534-0.017-0.8-0.05-0.8c0-0.066,0.3-0.083,0.9-0.05
			c0.667,0.033,1.25,0.183,1.75,0.45c0.5,0.233,1.167,0.684,2,1.35l-0.2-20.45c-0.833,0.333-1.666,0.316-2.5-0.05
			c-0.6-0.333-1.016-0.75-1.25-1.25l-0.15-0.7l0.75-0.15c0.6-0.066,1.133,0.034,1.6,0.3c0.533,0.2,1.05,0.583,1.55,1.15L48.15,36.8
			c-1.467,0.8-2.917,0.867-4.351,0.2c-1.033-0.467-1.767-1.1-2.2-1.9c-0.233-0.733-0.367-1.117-0.4-1.15l1.25-0.4
			c1.033-0.2,1.983-0.1,2.85,0.3c0.934,0.433,1.884,1.1,2.851,2L48,13.05c-1.533,0.333-2.917,0.167-4.15-0.5
			c-0.867-0.466-1.517-1.083-1.95-1.85C41.633,10.033,41.483,9.683,41.45,9.65z"/>
		<path style="fill-rule:evenodd;clip-rule:evenodd;fill:#E7CD93;" d="M56.2,33.95l0.95-0.3c0.8-0.2,1.566-0.217,2.3-0.05l1,3.8
			c-0.566,0-1.117-0.133-1.65-0.4c-1.033-0.467-1.767-1.1-2.2-1.9C56.366,34.367,56.233,33.983,56.2,33.95z"/>
		<path style="fill-rule:evenodd;clip-rule:evenodd;fill:#E7CD93;" d="M61.85,61.1c0.5,0.2,1,0.583,1.5,1.15l-0.05-9.2
			c0.733,5.467,1.283,11.2,1.65,17.2H64.9L65.05,87.4c-0.267,5.966-0.7,11.567-1.3,16.8l1.55,5.85L65.4,122.1
			c0.233-0.5,0.517-0.866,0.85-1.1c0.533-0.4,1.116-0.6,1.75-0.6l0.25,1c-0.167,0.466-0.434,0.833-0.8,1.1
			c-0.5,0.434-1.184,0.733-2.05,0.9l0.1,10.1c0.267-0.9,0.75-1.634,1.45-2.2c0.7-0.467,1.416-0.7,2.149-0.7
			c0.367,0.034,0.65,0.101,0.851,0.2l-0.2,0.95c-0.267,0.733-0.7,1.3-1.3,1.7c-0.566,0.5-1.533,0.916-2.9,1.25l0.3,29.149
			c0.167-0.466,0.4-0.85,0.7-1.149c0.634-0.566,1.3-0.884,2-0.95c0.334-0.033,0.617-0.017,0.851,0.05l-0.101,0.95
			c-0.166,0.733-0.5,1.316-1,1.75c-0.533,0.667-1.35,1.2-2.45,1.6l0.101,7.95c0.233-0.733,0.666-1.366,1.3-1.899
			c0.634-0.467,1.283-0.684,1.95-0.65c0.366,0,0.649,0.05,0.85,0.15L69.9,172.55c-0.2,0.667-0.601,1.217-1.2,1.65
			c-0.733,0.6-1.65,0.95-2.75,1.05l0.05,5.4h-1.7v-0.101L63.9,180.65H62.3c-0.533-0.134-0.967-0.334-1.3-0.601
			c-0.7-0.533-1.116-1.149-1.25-1.85c0-0.601-0.017-0.9-0.05-0.9c0-0.1,0.333-0.116,1-0.05c0.767,0.066,1.416,0.316,1.95,0.75
			c0.533,0.4,1.083,0.967,1.649,1.7l-0.2-20.8c-1.1,0.5-2.199,0.466-3.3-0.101c-1.033-0.633-1.434-1.383-1.2-2.25
			c0.434-0.666,0.634-0.916,0.601-0.75c0.066,0.2,0.7,0.517,1.899,0.95c0.667,0.333,1.334,0.934,2,1.8l-0.05-8.649
			c-1.267,0.5-2.467,0.483-3.6-0.051c-0.934-0.466-1.517-1.1-1.75-1.899l-0.05-1c0.033,0,0.383-0.017,1.05-0.05
			c0.733,0,1.416,0.149,2.05,0.449c0.733,0.334,1.5,0.934,2.3,1.801L63.8,115.3c-1.133,0.566-2.133,0.467-3-0.3
			c-0.467-0.4-0.816-0.816-1.05-1.25c-0.134-0.4-0.233-0.634-0.3-0.7c-0.066,0,0.2-0.1,0.8-0.3c0.767-0.1,1.417,0.083,1.95,0.55
			l1.6,1.601l-0.1-7.601c-1.601,0.101-2.917-0.083-3.95-0.55c-0.967-0.434-1.65-1.083-2.05-1.95l-0.25-1.1
			c0.066,0.033,0.467-0.05,1.2-0.25c0.899-0.101,1.767,0.033,2.6,0.399c1,0.434,1.816,1.217,2.45,2.351l-0.15-22.25
			c-1,0.733-2.066,0.8-3.2,0.2c-0.767-0.467-1.233-1.033-1.399-1.7c0-0.534-0.017-0.8-0.05-0.8c0-0.066,0.3-0.083,0.899-0.05
			c0.7,0.033,1.3,0.183,1.8,0.45c0.467,0.233,1.117,0.684,1.95,1.35L63.4,62.95c-0.867,0.333-1.7,0.316-2.5-0.05
			c-0.601-0.333-1.017-0.75-1.25-1.25l-0.2-0.7c0.033,0,0.3-0.05,0.8-0.15C60.85,60.733,61.384,60.833,61.85,61.1z"/>
	</g>
	<path style="fill-rule:evenodd;clip-rule:evenodd;fill:#B76B41;" d="M52.9,96.1c0.533-1.733,1.399-2.616,2.6-2.649
		c2.934-0.134,4.566,2.116,4.9,6.75c0.3,4.6-0.834,7.35-3.4,8.25c-1.167,0.399-2.184-0.134-3.05-1.601
		c-0.767-1.3-1.25-3.017-1.45-5.149C52.267,99.533,52.4,97.667,52.9,96.1z"/>
	<path style="fill-rule:evenodd;clip-rule:evenodd;fill:#D49650;" d="M52,48.7l2.35,1.5c1.367,1.5,1.584,3.5,0.65,6
		s-1.967,3.667-3.1,3.5l-1.4-1l-0.3,3.35c-0.5,2.467-1.483,4.267-2.95,5.4s-2.7,1.35-3.7,0.65l-1.05-1.4l-1.65,2.15
		c-1.467,1.367-3.083,1.9-4.85,1.6c-1.767-0.3-2.917-1.184-3.45-2.65l-0.3-2.1c-0.567,0.2-1.267,0.267-2.1,0.2
		c-1.667-0.1-3.133-0.833-4.4-2.2c-1.233-1.367-1.6-3.067-1.1-5.1l1.1-2.65c-0.7-0.2-1.4-0.567-2.1-1.1c-1.367-1.1-2-2.483-1.9-4.15
		c0.1-1.667,0.75-2.7,1.95-3.1c0.633-0.233,1.233-0.283,1.8-0.15c-0.533-0.867-1.033-1.85-1.5-2.95c-0.9-2.233-1.15-3.917-0.75-5.05
		c0.433-1.133,1.433-2.067,3-2.8c0.8-0.333,1.55-0.566,2.25-0.7c-0.033-1.167,0.183-2.367,0.65-3.6c0.9-2.467,2.6-3.85,5.1-4.15
		c1.8-0.233,3.383,0.367,4.75,1.8c0.667,0.7,1.167,1.433,1.5,2.2l1.8-1.05c1.434-0.5,2.667-0.233,3.7,0.8
		c1.033,1.033,1.6,2.383,1.7,4.05c0.033,0.833-0.033,1.567-0.2,2.2l3.15,0.85c2.133,1,3.25,2.483,3.35,4.45s-0.2,3.433-0.9,4.4
		C52.733,48.367,52.366,48.633,52,48.7z"/>
	<path style="fill-rule:evenodd;clip-rule:evenodd;fill:#E1B883;" d="M43.9,35.35c2.8,2.6,4.65,6.383,5.55,11.35
		c0.833,4.466,0.45,8.533-1.15,12.2c-1.833,4.133-4.8,6.383-8.9,6.75c-3.667,0.333-6.566-0.767-8.7-3.3
		c-2.2-2.633-3.467-6.7-3.8-12.2c-0.267-4.667,0.55-8.75,2.45-12.25c1.667-3.033,3.517-4.767,5.55-5.2
		C38.2,31.967,41.2,32.85,43.9,35.35z"/>
	<path style="fill-rule:evenodd;clip-rule:evenodd;fill:#65422C;" d="M45.8,38.4c2.066,3.067,3.233,6.717,3.5,10.95
		c0.267,4.3-0.467,7.917-2.2,10.85c-1.966,3.267-4.833,4.933-8.6,5c-3.733,0.066-6.617-1.617-8.65-5.05
		c-1.733-3-2.55-6.767-2.45-11.3c0.1-4.367,1.017-8.1,2.75-11.2c1.9-3.333,4.267-4.9,7.1-4.7C40.683,33.183,43.533,35,45.8,38.4z"/>
	<path style="fill-rule:evenodd;clip-rule:evenodd;fill:#B27753;" d="M44,49.2c0.1-0.3,0.117-0.8,0.05-1.5c-0.1-1.4-0.5-3.067-1.2-5
		c-0.7-1.967-2.067-3.8-4.1-5.5l-2.9-2c4.933,0.533,8.183,3.083,9.75,7.65c0.801,2.267,1.101,4.483,0.9,6.65L44,49.2z"/>
	<path style="fill-rule:evenodd;clip-rule:evenodd;fill:#3F2C22;" d="M30.65,56.95c1.3,2.433,3.434,4.35,6.4,5.75
		c2.5,1.167,4.983,0.4,7.45-2.3c1.2-1.333,2.167-2.8,2.9-4.4c-0.334,1.9-1,3.467-2,4.7c-1.367,1.667-2.833,2.783-4.4,3.35
		c-2.633,0.934-5.283,0.25-7.95-2.05c-2.566-2.2-4.117-5.383-4.65-9.55v-5.6C28.667,51.25,29.417,54.617,30.65,56.95z"/>
	<path style="fill-rule:evenodd;clip-rule:evenodd;fill:#9E5F3B;" d="M53.95,98c-0.033,2.2,0.149,4.184,0.55,5.95
		c0.434,1.8,1.184,2.633,2.25,2.5c0.6-0.101,1.184-0.434,1.75-1l1.4-1.9L59.15,106c-0.733,1.6-1.617,2.333-2.65,2.2
		c-1.4-0.233-2.45-1.783-3.15-4.65c-0.733-3.066-0.466-5.85,0.801-8.35L53.95,98z"/>
	<path style="fill-rule:evenodd;clip-rule:evenodd;fill:#D98E5F;" d="M57.5,95.95c0.634-0.134,1.167,0.483,1.6,1.85
		c0.434,1.367,0.233,2.167-0.6,2.4s-1.4-0.367-1.7-1.8C56.533,96.934,56.767,96.116,57.5,95.95z"/>
</g>
</svg>
