<?xml version="1.0" encoding="iso-8859-1"?>
<!-- Generator: Adobe Illustrator 15.1.0, SVG Export Plug-In . SVG Version: 6.00 Build 0)  -->
<!DOCTYPE svg PUBLIC "-//W3C//DTD SVG 1.1//EN" "http://www.w3.org/Graphics/SVG/1.1/DTD/svg11.dtd">
<svg version="1.1" id="buildings_1" xmlns="http://www.w3.org/2000/svg" xmlns:xlink="http://www.w3.org/1999/xlink" x="0px"
	 y="0px" width="98px" height="182.15px" viewBox="0 0 98 182.15" style="enable-background:new 0 0 98 182.15;"
	 xml:space="preserve">
<g>
	<path style="fill-rule:evenodd;clip-rule:evenodd;fill:#B27753;" d="M96,82.15l-7.05,16c-4.601,12-6.584,21.333-5.95,28
		c0.634,6.666,3.316,16.866,8.05,30.6c2.4,6.833,4.717,13.017,6.95,18.55l-6,6.351L32.5,78.15c-1.067-10.333-1.467-21.333-1.2-33
		c0.6-23.333,4.333-38.333,11.2-45C60-0.483,74.167,13,85,40.6C90.434,54.4,94.1,68.25,96,82.15z"/>
	<path style="fill-rule:evenodd;clip-rule:evenodd;fill:#A1603C;" d="M84.5,94.35c-4.333,8.9-6.5,17-6.5,24.301
		c0,7.3,2.333,20.066,7,38.3c2.333,9.133,4.667,17.533,7,25.2H0c4-43,6-68.5,6-76.5c0-5-0.833-10.334-2.5-16l-2.5-7
		c0.833-13,3.1-26.183,6.8-39.55C15.233,16.333,26.133,2.017,40.5,0.15c14.366-1.867,27.1,11.4,38.2,39.8
		c5.533,14.233,9.633,28.633,12.3,43.2c-0.533,0.767-1.217,1.8-2.05,3.1C87.35,88.85,85.866,91.55,84.5,94.35z"/>
	<path style="fill-rule:evenodd;clip-rule:evenodd;fill:#DFBC71;" d="M39,13.9c13.134-0.833,24.233,9.8,33.3,31.9
		c4.566,11.034,7.8,22.15,9.7,33.35L75.4,92.3c-4.334,10-6.301,18.117-5.9,24.351c0.434,6.267,3.066,19.066,7.9,38.399
		c2.399,9.667,4.767,18.7,7.1,27.101H9c1.767-10.167,3.417-21.117,4.95-32.851c3.066-23.5,4.083-39.217,3.05-47.149
		c-1.033-7.9-2.683-14.434-4.95-19.601L9,77.15c1.233-10.3,3.4-20.667,6.5-31.1C21.733,25.217,29.567,14.5,39,13.9z"/>
	<g>
		<path style="fill-rule:evenodd;clip-rule:evenodd;fill:#E7CD93;" d="M45.15,23.3c0.367-0.267,1-0.466,1.9-0.6
			c0.7-0.133,1.284-0.184,1.75-0.15c0.233,0.467,0.167,1.233-0.2,2.3c-0.333,1.033-0.684,1.667-1.05,1.9
			c-0.733,0.6-1.617,1.017-2.65,1.25c-0.867,0.233-1.667,0.3-2.4,0.2l0.2,20.25c0.233-0.833,0.683-1.567,1.35-2.2
			c0.833-0.7,1.7-1.067,2.6-1.1c0.434,0,0.783,0.067,1.05,0.2c0.033,1.367-0.483,2.5-1.55,3.4c-1,0.833-2.133,1.483-3.4,1.95
			l0.05,5.35c0.2-0.4,0.417-0.7,0.65-0.9c0.466-0.4,0.95-0.6,1.45-0.6c0.233,0,0.417,0.034,0.55,0.1
			c0.066,0.067,0.033,0.283-0.1,0.65c-0.133,0.467-0.383,0.867-0.75,1.2c-0.3,0.233-0.9,0.55-1.8,0.95l0.15,13.1
			c0.2-0.733,0.5-1.316,0.9-1.75c0.533-0.6,1.167-0.966,1.9-1.1c0.367-0.067,0.667-0.083,0.9-0.05v0.95c-0.1,0.767-0.4,1.433-0.9,2
			c-0.733,0.833-1.667,1.383-2.8,1.65l0.25,22c0.3-0.833,0.767-1.583,1.4-2.25c0.933-0.867,1.933-1.367,3-1.5
			c0.533-0.033,0.983,0,1.35,0.1l-0.05,1.45c-0.233,1.134-0.75,2.101-1.55,2.9c-1.133,1.133-2.517,1.883-4.15,2.25l0.3,26.95
			c0.167-0.467,0.45-0.851,0.85-1.15c0.533-0.4,1.066-0.583,1.6-0.55c0.267,0,0.466,0.05,0.6,0.149l-0.15,0.7
			c-0.167,0.533-0.467,0.95-0.9,1.25c-0.633,0.5-1.3,0.783-2,0.851l0.1,10.149c0.267-0.934,0.75-1.684,1.45-2.25
			c0.7-0.467,1.4-0.684,2.1-0.649c0.367,0.033,0.667,0.1,0.9,0.199l-0.2,0.95c-0.267,0.733-0.7,1.3-1.3,1.7
			c-0.833,0.667-1.816,1.066-2.95,1.2l0.3,29.2c0.167-0.4,0.417-0.801,0.75-1.2c0.633-0.566,1.3-0.884,2-0.95
			c0.333-0.033,0.6,0,0.8,0.1l-0.05,0.95c-0.167,0.7-0.5,1.283-1,1.75c-0.6,0.733-1.417,1.25-2.45,1.55l0.05,8
			c0.367-0.866,0.817-1.5,1.35-1.899c0.6-0.467,1.25-0.7,1.95-0.7c0.333,0,0.617,0.05,0.85,0.15L48,174.55
			c-0.233,0.7-0.65,1.267-1.25,1.7c-0.567,0.467-1.467,0.816-2.7,1.05l0.05,4.851h-4.95L39.1,182.1
			c-0.7-0.566-1.117-1.199-1.25-1.899c0-0.566-0.017-0.851-0.05-0.851c0-0.1,0.333-0.116,1-0.05c0.767,0.066,1.417,0.316,1.95,0.75
			c0.633,0.533,1.167,1.084,1.6,1.65l-0.15-20.75c-1.1,0.5-2.2,0.467-3.3-0.101c-1.033-0.633-1.433-1.399-1.2-2.3
			c0.433-0.633,0.633-0.866,0.6-0.7c0.067,0.167,0.684,0.483,1.85,0.95c0.8,0.4,1.483,1,2.05,1.8l-0.05-8.649
			c-1.333,0.467-2.533,0.45-3.6-0.05c-0.933-0.467-1.517-1.101-1.75-1.9l-0.1-1c0.066,0,0.417-0.017,1.05-0.05
			c0.767,0,1.467,0.133,2.1,0.399c0.8,0.367,1.566,0.983,2.3,1.851l-0.3-33.9c-0.367,0.233-0.783,0.351-1.25,0.351
			c-0.633,0.033-1.217-0.167-1.75-0.601c-0.467-0.399-0.8-0.833-1-1.3c-0.167-0.366-0.267-0.583-0.3-0.65c-0.066,0,0.2-0.1,0.8-0.3
			c0.767-0.1,1.417,0.084,1.95,0.55c0.467,0.434,0.983,0.967,1.55,1.601l-0.05-7.65c-1.466,0.2-2.783,0.033-3.95-0.5
			c-1-0.434-1.684-1.083-2.05-1.95c-0.5-1.066-0.583-1.433-0.25-1.1c0.034,0,0.434-0.083,1.2-0.25c0.9-0.134,1.767-0.017,2.6,0.35
			c0.967,0.434,1.783,1.217,2.45,2.351L41.65,86c-1,0.667-2.066,0.717-3.2,0.15c-0.767-0.433-1.233-0.983-1.4-1.65
			c-0.033-0.567-0.066-0.85-0.1-0.85c0.066-0.066,0.367-0.083,0.9-0.05c0.7,0.033,1.3,0.183,1.8,0.45
			c0.867,0.534,1.517,0.983,1.95,1.35L41.45,65c-0.9,0.267-1.733,0.233-2.5-0.1c-0.6-0.3-1.017-0.717-1.25-1.25L37.55,63l0.75-0.15
			c0.6-0.067,1.133,0.017,1.6,0.25c0.533,0.233,1.05,0.633,1.55,1.2l-0.2-25.45c-1.433,0.767-2.883,0.833-4.35,0.2
			c-1.033-0.466-1.767-1.117-2.2-1.95c-0.233-0.733-0.367-1.1-0.4-1.1l1.25-0.4c1.034-0.2,1.983-0.1,2.85,0.3
			c1,0.434,1.95,1.1,2.85,2L41.1,15.1c-1.533,0.333-2.917,0.167-4.15-0.5l-0.45-0.3c0.867-0.233,1.7-0.367,2.5-0.4l3.4,0.05l0.1,13
			C43.333,25.217,44.217,24,45.15,23.3z"/>
		<path style="fill-rule:evenodd;clip-rule:evenodd;fill:#E7CD93;" d="M26.8,21.5c0.434-0.6,0.867-1.117,1.3-1.55l0.05,7
			c0.533-1,0.85-1.583,0.95-1.75c0.5-0.767,1.066-1.4,1.7-1.9c0.5-0.333,1.2-0.533,2.1-0.6c1-0.067,1.733,0.1,2.2,0.5
			c0.1,0.367-0.117,1-0.65,1.9c-0.467,0.867-0.883,1.417-1.25,1.65c-0.7,0.6-1.583,1.017-2.65,1.25c-0.867,0.233-1.65,0.3-2.35,0.2
			l0.2,20.25c0.167-0.833,0.617-1.567,1.35-2.2c0.8-0.7,1.65-1.067,2.55-1.1c0.434,0,0.8,0.067,1.1,0.2l-0.2,1.2
			c-0.267,0.9-0.733,1.633-1.4,2.2c-0.966,0.833-2.1,1.483-3.4,1.95l0.05,5.35c0.2-0.4,0.433-0.7,0.7-0.9c0.434-0.4,0.9-0.6,1.4-0.6
			c0.233,0,0.434,0.034,0.6,0.1c0,0.033-0.05,0.25-0.15,0.65c-0.133,0.5-0.383,0.9-0.75,1.2c-0.333,0.267-0.917,0.583-1.75,0.95
			l0.1,13.1c0.2-0.667,0.517-1.25,0.95-1.75c0.534-0.6,1.15-0.966,1.85-1.1c0.367-0.067,0.667-0.083,0.9-0.05l0.05,0.95
			c-0.1,0.767-0.4,1.433-0.9,2c-0.733,0.833-1.667,1.383-2.8,1.65l0.2,22c0.367-0.9,0.85-1.65,1.45-2.25c0.9-0.867,1.9-1.367,3-1.5
			c0.534-0.033,0.983,0,1.35,0.1l-0.1,1.45c-0.233,1.134-0.75,2.101-1.55,2.9c-1.133,1.133-2.5,1.883-4.1,2.25l0.25,26.95
			c0.233-0.467,0.517-0.851,0.85-1.15c0.533-0.4,1.067-0.583,1.6-0.55c0.267,0,0.467,0.05,0.6,0.149l-0.15,0.7
			c-0.167,0.533-0.45,0.95-0.85,1.25c-0.633,0.5-1.317,0.783-2.05,0.851l0.1,10.149c0.267-0.934,0.75-1.684,1.45-2.25
			c0.7-0.467,1.417-0.684,2.15-0.649c0.367,0.033,0.65,0.1,0.85,0.199l-0.2,0.95c-0.267,0.733-0.7,1.3-1.3,1.7
			c-0.8,0.667-1.767,1.066-2.9,1.2l0.3,29.2c0.167-0.467,0.4-0.867,0.7-1.2c0.633-0.566,1.3-0.884,2-0.95
			c0.333-0.033,0.617,0,0.85,0.1l-0.1,0.95c-0.167,0.7-0.5,1.283-1,1.75c-0.633,0.767-1.45,1.283-2.45,1.55l0.1,8
			c0.267-0.8,0.7-1.433,1.3-1.899c0.633-0.467,1.283-0.7,1.95-0.7c0.367,0,0.65,0.05,0.85,0.15l-0.15,0.899
			c-0.2,0.7-0.6,1.267-1.2,1.7c-0.6,0.467-1.517,0.816-2.75,1.05l0.05,4.851H24.8l-0.05-0.051c-0.7-0.566-1.117-1.199-1.25-1.899
			c0-0.566-0.017-0.851-0.05-0.851c0-0.1,0.333-0.116,1-0.05c0.767,0.066,1.417,0.316,1.95,0.75c0.4,0.334,0.95,0.884,1.65,1.65
			l-0.2-20.75c-1.1,0.5-2.2,0.467-3.3-0.101c-1.033-0.633-1.433-1.399-1.2-2.3c0.433-0.633,0.633-0.866,0.6-0.7
			c0.066,0.167,0.7,0.483,1.9,0.95c0.767,0.367,1.433,0.967,2,1.8l-0.05-8.649c-1.267,0.5-2.466,0.483-3.6-0.05
			c-0.934-0.467-1.517-1.101-1.75-1.9l-0.05-1c0.033,0,0.383-0.017,1.05-0.05c0.733,0,1.417,0.133,2.05,0.399
			c0.8,0.367,1.567,0.983,2.3,1.851l-0.25-33.9c-0.367,0.233-0.783,0.351-1.25,0.351c-0.667,0.033-1.25-0.167-1.75-0.601
			c-0.466-0.399-0.816-0.833-1.05-1.3c-0.133-0.366-0.233-0.583-0.3-0.65c-0.067,0,0.2-0.1,0.8-0.3c0.767-0.1,1.417,0.084,1.95,0.55
			l1.6,1.601l-0.1-7.65c-1.467,0.2-2.784,0.033-3.95-0.5c-0.967-0.434-1.65-1.083-2.05-1.95l-0.25-1.1c0.066,0,0.466-0.083,1.2-0.25
			c0.9-0.134,1.767-0.017,2.6,0.35c0.933,0.4,1.75,1.184,2.45,2.351L27.3,86c-0.966,0.7-2.033,0.75-3.2,0.15
			c-0.767-0.433-1.233-0.983-1.4-1.65c0-0.567-0.017-0.85-0.05-0.85c0-0.066,0.3-0.083,0.9-0.05c0.7,0.033,1.3,0.183,1.8,0.45
			c0.633,0.367,1.283,0.817,1.95,1.35L27.15,65c-0.933,0.267-1.767,0.233-2.5-0.1c-0.633-0.3-1.066-0.717-1.3-1.25L23.2,63
			c0.033,0,0.3-0.05,0.8-0.15c0.6-0.067,1.133,0.017,1.6,0.25c0.6,0.3,1.1,0.7,1.5,1.2l-0.15-25.45
			c-1.467,0.767-2.934,0.833-4.4,0.2c-1-0.466-1.733-1.117-2.2-1.95c-0.233-0.733-0.367-1.1-0.4-1.1l1.25-0.4
			c1.033-0.2,1.983-0.1,2.85,0.3c1,0.434,1.95,1.1,2.85,2L26.8,21.5z"/>
		<path style="fill-rule:evenodd;clip-rule:evenodd;fill:#E7CD93;" d="M20.3,90.6l-0.1,1.45c-0.233,1.134-0.75,2.101-1.55,2.9
			c-0.633,0.7-1.467,1.267-2.5,1.7l-0.85-3.9L15.95,92c0.933-0.867,1.933-1.367,3-1.5C19.483,90.467,19.933,90.5,20.3,90.6z"/>
		<path style="fill-rule:evenodd;clip-rule:evenodd;fill:#E7CD93;" d="M13.55,160.6l-0.1-7.949l1.55-11.9l0.25,25.15
			c0.133-0.367,0.367-0.767,0.7-1.2c0.633-0.566,1.3-0.884,2-0.95c0.367-0.033,0.65,0,0.85,0.1l-0.1,0.95
			c-0.167,0.7-0.483,1.283-0.95,1.75c-0.667,0.767-1.5,1.283-2.5,1.55l0.1,8c0.267-0.8,0.717-1.433,1.35-1.899
			c0.6-0.467,1.233-0.7,1.9-0.7c0.367,0,0.65,0.05,0.85,0.15l-0.15,0.899c-0.2,0.7-0.6,1.267-1.2,1.7
			c-0.6,0.467-1.517,0.816-2.75,1.05l0.05,4.851h-4.95V182.1c-0.6-0.5-1-1.017-1.2-1.55l0.2-1.25c1.033-0.1,1.9,0.15,2.6,0.75
			c0.4,0.334,0.95,0.884,1.65,1.65l-0.15-20.75c-0.4,0.166-0.833,0.267-1.3,0.3l0.25-1.75C12.833,159.8,13.183,160.167,13.55,160.6z
			"/>
		<path style="fill-rule:evenodd;clip-rule:evenodd;fill:#E7CD93;" d="M17.9,122.6l-0.2,0.7c-0.167,0.533-0.45,0.95-0.85,1.25
			l-0.2,0.15l0.15-2.2C17.233,122.4,17.6,122.434,17.9,122.6z"/>
		<path style="fill-rule:evenodd;clip-rule:evenodd;fill:#E7CD93;" d="M19.05,45.35c0.167-0.167,0.117,0.233-0.15,1.2
			c-0.267,0.9-0.733,1.633-1.4,2.2c-0.733,0.6-1.833,1.233-3.3,1.9l1.25-4.4c0.8-0.7,1.633-1.05,2.5-1.05
			C18.383,45.167,18.75,45.217,19.05,45.35z"/>
		<path style="fill-rule:evenodd;clip-rule:evenodd;fill:#E7CD93;" d="M19.4,132.85l-0.2,0.95c-0.267,0.733-0.717,1.3-1.35,1.7
			c-0.567,0.5-1.367,0.866-2.4,1.1l0.3-2.649l0.6-0.65c0.7-0.467,1.417-0.684,2.15-0.649C18.867,132.684,19.167,132.75,19.4,132.85z
			"/>
		<path style="fill-rule:evenodd;clip-rule:evenodd;fill:#E7CD93;" d="M12.75,56.55l1.35-5.45l0.05,4.95
			c0.133-0.367,0.35-0.667,0.65-0.9c0.467-0.4,0.934-0.6,1.4-0.6c0.267,0,0.466,0.034,0.6,0.1c0,0.033-0.033,0.25-0.1,0.65
			c-0.167,0.5-0.434,0.9-0.8,1.2c-0.333,0.267-0.917,0.583-1.75,0.95l0.15,13.1c0.1-0.633,0.4-1.216,0.9-1.75
			c0.533-0.6,1.15-0.966,1.85-1.1c0.367-0.067,0.667-0.083,0.9-0.05L18,68.6c-0.1,0.767-0.4,1.433-0.9,2
			c-0.767,0.867-1.7,1.417-2.8,1.65l0.15,17.15c-0.534-1.9-1.034-3.467-1.5-4.7L12.8,65c-0.6,0.233-1.233,0.267-1.9,0.1l0.4-1.95
			c0.567,0.267,1.067,0.65,1.5,1.15L12.75,56.55z"/>
		<path style="fill-rule:evenodd;clip-rule:evenodd;fill:#E7CD93;" d="M55.45,19.8L56.8,21l0.05,5.95
			c0.834-1.633,1.634-2.784,2.4-3.45c1.2,1.4,2.083,2.483,2.65,3.25c-0.733,0.6-1.617,1.017-2.65,1.25c-0.9,0.233-1.7,0.3-2.4,0.2
			l0.2,20.25c0.233-0.833,0.684-1.567,1.351-2.2c0.833-0.7,1.699-1.067,2.6-1.1c0.434,0,0.783,0.067,1.05,0.2
			c0,1.367-0.517,2.5-1.55,3.4c-1,0.833-2.134,1.483-3.4,1.95l0.051,5.35c0.133-0.367,0.35-0.667,0.649-0.9
			c0.733-0.633,1.4-0.8,2-0.5c0,0.733-0.3,1.35-0.899,1.85c-0.334,0.267-0.917,0.583-1.75,0.95l0.149,13.1
			c0.2-0.733,0.5-1.316,0.9-1.75c0.866-0.966,1.783-1.35,2.75-1.15c0.233,1.067-0.05,2.05-0.851,2.95
			c-0.733,0.833-1.666,1.383-2.8,1.65l0.2,22c0.366-0.9,0.85-1.65,1.45-2.25c0.934-0.867,1.934-1.367,3-1.5
			c0.533-0.033,0.983,0,1.35,0.1l-0.1,1.45c-0.233,1.134-0.75,2.101-1.55,2.9c-1.067,1.1-2.434,1.85-4.101,2.25l0.3,26.95
			c0.167-0.434,0.434-0.817,0.801-1.15c0.533-0.4,1.066-0.583,1.6-0.55c0.267,0,0.483,0.05,0.65,0.149l-0.15,0.7
			c-0.2,0.533-0.5,0.95-0.9,1.25c-0.633,0.5-1.3,0.783-2,0.851l0.101,10.149c0.2-0.899,0.684-1.649,1.45-2.25
			c0.699-0.467,1.399-0.684,2.1-0.649c0.366,0.033,0.667,0.1,0.9,0.199l-0.2,0.95c-0.267,0.733-0.717,1.3-1.351,1.7
			c-0.8,0.667-1.767,1.066-2.899,1.2l0.3,29.2c0.134-0.367,0.366-0.767,0.7-1.2c0.633-0.566,1.3-0.884,2-0.95
			c0.366-0.033,0.649,0,0.85,0.1l-0.1,0.95c-0.167,0.7-0.483,1.283-0.95,1.75c-0.667,0.767-1.5,1.283-2.5,1.55l0.1,8
			c0.267-0.8,0.717-1.433,1.351-1.899c0.6-0.467,1.233-0.7,1.899-0.7c0.367,0,0.65,0.05,0.851,0.15c0.1,0,0.05,0.3-0.15,0.899
			c-0.2,0.7-0.6,1.267-1.2,1.7c-0.633,0.5-1.55,0.85-2.75,1.05l0.051,4.851h-4.95V182.1c-0.7-0.566-1.117-1.199-1.25-1.899
			c0-0.566-0.017-0.851-0.05-0.851c-0.101-0.1,0.216-0.116,0.949-0.05c0.767,0.066,1.417,0.316,1.95,0.75
			c0.4,0.334,0.95,0.884,1.65,1.65l-0.15-20.75c-1.166,0.467-2.267,0.434-3.3-0.101c-1.033-0.633-1.434-1.399-1.2-2.3
			c0.533-2.066,0.733-2.3,0.601-0.7c0.033,0.167,0.649,0.483,1.85,0.95c0.8,0.4,1.483,1,2.05,1.8l-0.1-8.649
			c-1.267,0.5-2.467,0.483-3.601-0.05c-0.899-0.467-1.466-1.101-1.699-1.9l-0.101-1c0.066,0,0.417-0.017,1.05-0.05
			c0.767,0,1.467,0.133,2.101,0.399c0.866,0.4,1.616,1.017,2.25,1.851l-0.25-33.9c-0.367,0.233-0.783,0.351-1.25,0.351
			c-0.634,0.033-1.217-0.167-1.75-0.601c-0.467-0.399-0.8-0.833-1-1.3c-0.167-0.366-0.267-0.583-0.3-0.65
			c-0.067,0,0.199-0.1,0.8-0.3c0.733-0.1,1.366,0.084,1.899,0.55l1.601,1.601l-0.05-7.65c-1.467,0.2-2.801,0.033-4-0.5
			c-0.967-0.434-1.634-1.083-2-1.95c-0.467-1.033-0.551-1.399-0.25-1.1c0.033,0,0.416-0.083,1.149-0.25
			c0.9-0.134,1.767-0.017,2.601,0.35c1,0.434,1.833,1.217,2.5,2.351L55.95,86c-0.967,0.7-2.017,0.75-3.15,0.15
			c-0.8-0.433-1.283-0.983-1.45-1.65c0-0.567-0.017-0.85-0.05-0.85c0-0.066,0.3-0.083,0.9-0.05c0.7,0.033,1.3,0.183,1.8,0.45
			c0.634,0.367,1.283,0.817,1.95,1.35L55.8,65c-0.899,0.267-1.733,0.233-2.5-0.1c-0.6-0.3-1.017-0.717-1.25-1.25L51.9,63l0.75-0.15
			c0.6-0.067,1.133,0.017,1.6,0.25c0.566,0.267,1.083,0.667,1.55,1.2l-0.2-25.45c-1.466,0.767-2.916,0.833-4.35,0.2
			c-1.033-0.466-1.767-1.117-2.2-1.95c-0.233-0.733-0.367-1.1-0.4-1.1l1.25-0.4c1-0.2,1.933-0.1,2.8,0.3
			c1.066,0.467,2.033,1.133,2.899,2L55.45,19.8z"/>
		<path style="fill-rule:evenodd;clip-rule:evenodd;fill:#E7CD93;" d="M69.45,115.8l0.1,1.851c-0.8,0.066-1.467-0.134-2-0.601
			c-0.467-0.399-0.816-0.833-1.05-1.3c-0.134-0.366-0.233-0.583-0.3-0.65c-0.066,0,0.2-0.1,0.8-0.3c0.767-0.1,1.417,0.084,1.95,0.55
			L69.45,115.8z"/>
		<path style="fill-rule:evenodd;clip-rule:evenodd;fill:#E7CD93;" d="M70.6,124.75c0.5,2.833,1.051,5.634,1.65,8.4l0.05,2.399
			c0.066-0.3,0.167-0.566,0.3-0.8l0.4,1.8l-0.7,0.15l0.3,29.2c0.167-0.467,0.4-0.867,0.7-1.2c0.634-0.566,1.3-0.884,2-0.95
			c0.334-0.033,0.617,0,0.851,0.1l-0.101,0.95c-0.166,0.7-0.483,1.283-0.95,1.75c-0.666,0.767-1.5,1.283-2.5,1.55l0.101,8
			c0.267-0.8,0.7-1.433,1.3-1.899c0.634-0.467,1.283-0.7,1.95-0.7c0.366,0,0.649,0.05,0.85,0.15l-0.149,0.899
			c-0.2,0.7-0.601,1.267-1.2,1.7c-0.601,0.467-1.517,0.816-2.75,1.05l0.05,4.851H67.8l-0.05-0.051
			c-0.7-0.566-1.116-1.199-1.25-1.899c0-0.566-0.017-0.851-0.05-0.851c0-0.1,0.333-0.116,1-0.05c0.767,0.066,1.416,0.316,1.95,0.75
			c0.399,0.334,0.949,0.884,1.649,1.65l-0.2-20.75c-1.1,0.5-2.199,0.467-3.3-0.101c-1.033-0.633-1.434-1.399-1.2-2.3
			c0.434-0.633,0.634-0.866,0.601-0.7c0.033,0.134,0.666,0.45,1.899,0.95c0.767,0.367,1.434,0.967,2,1.8l-0.05-8.649
			c-1.267,0.5-2.467,0.483-3.6-0.05c-0.934-0.467-1.517-1.101-1.75-1.9l-0.05-1c0.033,0,0.383-0.017,1.05-0.05
			c0.733,0,1.416,0.133,2.05,0.399c0.934,0.4,1.7,1.017,2.3,1.851L70.6,124.75z"/>
		<path style="fill-rule:evenodd;clip-rule:evenodd;fill:#E7CD93;" d="M62.95,36l1.25-0.4c1.033-0.2,1.983-0.1,2.85,0.3l0.9,0.45
			l1.399,2.75c-1.333,0.5-2.6,0.483-3.8-0.05c-1-0.466-1.733-1.117-2.2-1.95C63.116,36.367,62.983,36,62.95,36z"/>
		<path style="fill-rule:evenodd;clip-rule:evenodd;fill:#E7CD93;" d="M68,105.85c0.833,0.4,1.583,1.067,2.25,2l-0.3,1.5
			c-1.267,0.067-2.417-0.116-3.45-0.55c-0.967-0.434-1.65-1.083-2.05-1.95l-0.25-1.1c0.066,0,0.467-0.083,1.2-0.25
			C66.3,105.366,67.167,105.483,68,105.85z"/>
		<path style="fill-rule:evenodd;clip-rule:evenodd;fill:#E7CD93;" d="M69.95,40.4l1.399,3.05l0.051,5
			c0.166-0.8,0.566-1.467,1.199-2l1.2,3.05c-0.5,0.3-1.033,0.583-1.6,0.85c-0.5,0.233-0.767,0.35-0.8,0.35l0.05,5.35
			c0.2-0.4,0.434-0.7,0.7-0.9c0.699-0.633,1.366-0.8,2-0.5c-0.034,0.733-0.334,1.35-0.9,1.85c-0.333,0.267-0.917,0.583-1.75,0.95
			l0.1,13.1c0.2-0.667,0.517-1.25,0.95-1.75c0.867-0.966,1.783-1.35,2.75-1.15c0.233,1.067-0.05,2.05-0.85,2.95
			c-0.733,0.833-1.667,1.383-2.8,1.65l0.199,22c0.367-0.9,0.851-1.65,1.45-2.25c0.834-0.833,1.783-1.317,2.851-1.45
			c-0.834,1.733-1.684,3.75-2.551,6.05L71.9,97.2l0.05,4.149c-0.601,1.834-1.101,3.65-1.5,5.45L70.3,86
			c-0.967,0.7-2.033,0.75-3.2,0.15c-0.767-0.433-1.233-0.983-1.399-1.65c0-0.567-0.017-0.85-0.05-0.85c0-0.066,0.3-0.083,0.899-0.05
			c0.7,0.033,1.3,0.183,1.8,0.45c0.634,0.367,1.284,0.817,1.95,1.35L70.15,65c-0.934,0.267-1.767,0.233-2.5-0.1
			c-0.601-0.3-1.017-0.717-1.25-1.25L66.2,63c0.033,0,0.3-0.05,0.8-0.15c0.6-0.067,1.134,0.017,1.6,0.25
			c0.567,0.267,1.084,0.667,1.551,1.2L69.95,40.4z"/>
	</g>
	<g>
		<path style="fill-rule:evenodd;clip-rule:evenodd;fill:#D49650;" d="M59.5,49.15c0.434,1.867-0.1,3.517-1.6,4.95
			c-0.767,0.7-1.567,1.217-2.4,1.55l3.45,1.7c2.267,1.566,3.283,3.5,3.05,5.8c-0.134,1.3-0.8,2.367-2,3.2
			c-0.566,0.4-1.134,0.667-1.7,0.8l0.45,2.8c-0.267,1.933-1.75,3.1-4.45,3.5c-2.7,0.433-4.983,0.267-6.85-0.5l-1.95-1.3l-2.6,2.55
			c-2.167,1.6-4.3,2.083-6.4,1.45c-2.067-0.633-3.267-1.566-3.6-2.8l0.1-1.7c-1.267,0.934-2.667,1.633-4.2,2.1
			c-3.033,0.967-5.133,0.367-6.3-1.8c-0.967-1.733-0.833-3.633,0.4-5.7l2.1-2.6c-0.633-0.433-1.25-1.083-1.85-1.95
			c-1.2-1.733-1.7-3.65-1.5-5.75c0.2-2.067,0.983-3.65,2.35-4.75l2-1.05c-0.667-0.9-1.25-2.017-1.75-3.35
			c-1-2.667-1.083-5.05-0.25-7.15c0.833-2.066,2-3.433,3.5-4.1c0.767-0.333,1.433-0.466,2-0.4c0.267-1.333,0.833-2.667,1.7-4
			c1.733-2.667,4.167-4,7.3-4c2.3,0,4.15,0.917,5.55,2.75c0.733,0.934,1.217,1.85,1.45,2.75l2.8-0.55
			c2.101-0.1,3.667,0.583,4.7,2.05s1.434,3.15,1.2,5.05c-0.134,0.966-0.367,1.783-0.7,2.45l2.65,2.3
			C57.983,45.383,59.1,47.283,59.5,49.15z"/>
		<path style="fill-rule:evenodd;clip-rule:evenodd;fill:#E1B883;" d="M47.2,35.8c1,1.3,2.533,4.3,4.6,9
			c1.2,2.633,2.367,7.317,3.5,14.05c0.566,3.367,1.017,6.467,1.351,9.3L27.8,69.3c-0.333-3.667-0.5-6.783-0.5-9.35
			c0-5.667,0.617-11.383,1.85-17.15c0.7-3.233,2.1-5.8,4.2-7.7c1.767-1.567,3.75-2.5,5.95-2.8C42.467,31.867,45.1,33.033,47.2,35.8z
			"/>
		<path style="fill-rule:evenodd;clip-rule:evenodd;fill:#65422C;" d="M28.25,52.05c1-11.333,4.417-17.633,10.25-18.9
			c5.833-1.233,10.5,4.15,14,16.15c1.767,6,2.934,12.117,3.5,18.35l-27.5,1C27.833,63.25,27.75,57.717,28.25,52.05z"/>
		<path style="fill-rule:evenodd;clip-rule:evenodd;fill:#B27753;" d="M47.3,45.3c-0.7-3.4-2.4-6.15-5.1-8.25l-3.9-2.1
			c4.3-1.3,7.9,1.75,10.8,9.15c1.467,3.733,2.483,7.583,3.051,11.55L49,55.95C49,54.283,48.433,50.733,47.3,45.3z"/>
		<path style="fill-rule:evenodd;clip-rule:evenodd;fill:#3F2C22;" d="M29.5,52.95l0.15,4.25c0.3,3.066,0.967,5.216,2,6.45
			c1.033,1.267,5.117,2.15,12.25,2.65c3.567,0.233,7.034,0.35,10.4,0.35l-25,0.5c-0.1-0.467-0.2-1.467-0.3-3
			c-0.067-0.967,0-3.133,0.2-6.5L29.5,52.95z"/>
	</g>
	<path style="fill-rule:evenodd;clip-rule:evenodd;fill:#B76B41;" d="M27.7,105.2c0.3,4.6-0.833,7.35-3.4,8.25
		c-1.167,0.399-2.183-0.134-3.05-1.601c-0.767-1.3-1.25-3.017-1.45-5.149c-0.233-2.167-0.1-4.033,0.4-5.601
		c0.533-1.733,1.4-2.616,2.6-2.649C25.733,98.316,27.367,100.566,27.7,105.2z"/>
	<path style="fill-rule:evenodd;clip-rule:evenodd;fill:#D98E5F;" d="M24.8,100.95c0.6-0.134,1.117,0.483,1.55,1.85
		c0.467,1.367,0.283,2.167-0.55,2.4c-0.833,0.233-1.4-0.367-1.7-1.8C23.8,101.934,24.033,101.116,24.8,100.95z"/>
	<path style="fill-rule:evenodd;clip-rule:evenodd;fill:#9E5F3B;" d="M21.8,108.95c0.434,1.8,1.184,2.633,2.25,2.5
		c0.567-0.066,1.15-0.4,1.75-1l1.35-1.851l-0.75,2.45c-0.7,1.601-1.566,2.316-2.6,2.15c-1.4-0.2-2.45-1.733-3.15-4.601
		c-0.767-3.1-0.517-5.899,0.75-8.399l-0.15,2.8C21.217,105.2,21.4,107.184,21.8,108.95z"/>
</g>
</svg>
