<?xml version="1.0" encoding="iso-8859-1"?>
<!-- Generator: Adobe Illustrator 15.1.0, SVG Export Plug-In . SVG Version: 6.00 Build 0)  -->
<!DOCTYPE svg PUBLIC "-//W3C//DTD SVG 1.1//EN" "http://www.w3.org/Graphics/SVG/1.1/DTD/svg11.dtd">
<svg version="1.1" id="bridge_x5F_right.ai" xmlns="http://www.w3.org/2000/svg" xmlns:xlink="http://www.w3.org/1999/xlink"
	 x="0px" y="0px" width="237.1px" height="110.5px" viewBox="0 0 237.1 110.5" style="enable-background:new 0 0 237.1 110.5;"
	 xml:space="preserve">
<g>
	<path style="fill-rule:evenodd;clip-rule:evenodd;fill:#49828D;" d="M80.45,44c4.867,2.933,8.9,14.9,12.1,35.9
		c1.633,10.5,2.767,20.699,3.4,30.6H80.7c0.066-2.967,0.017-6.65-0.15-11.05c-0.333-8.767-1.117-16.717-2.35-23.851
		c-1.233-7.233-4.083-13.716-8.55-19.449c-4.7-6.067-10.1-9.767-16.2-11.101c-1.7-0.367-1.8-0.95-0.3-1.75
		c1.467-0.8,3.767-1.45,6.9-1.95C68.55,40.05,75.35,40.933,80.45,44z"/>
	<path style="fill-rule:evenodd;clip-rule:evenodd;fill:#49828D;" d="M174.25,72.7c-2.033-10.167-7.1-17.733-15.2-22.7
		c-4-2.467-9.616-4.483-16.85-6.05c-1.7-0.367-1.334-0.934,1.1-1.7s5.767-1.35,10-1.75c11.533-1.1,19.851-0.117,24.95,2.95
		c4.833,2.933,8.184,14.983,10.05,36.149c0.9,10.601,1.334,20.9,1.3,30.9h-15.25c0.567-3.467,0.983-7.634,1.25-12.5
		C176.134,88.233,175.684,79.8,174.25,72.7z"/>
	<g>
		<path style="fill-rule:evenodd;clip-rule:evenodd;fill:#6397A3;" d="M227.55,110.5H188.6c-1.699-16.366-4.133-28.983-7.3-37.85
			c-6.533-18.234-16.633-27.3-30.3-27.2c-16.033,0.1-28.083,9.033-36.15,26.8c-5.3,11.667-8.2,24.417-8.7,38.25H89.6
			c0.267-18.3-1.55-32.35-5.45-42.15C78.35,53.85,67.8,46.883,52.5,47.45C36.867,48.017,26.417,56.6,21.15,73.2
			c-1.833,5.767-3.05,12.616-3.65,20.55c-0.233,2.733-0.433,8.316-0.6,16.75H0V21.3l237.1,2.2L227.55,110.5z"/>
		<path style="fill-rule:evenodd;clip-rule:evenodd;fill:#A2BEC6;" d="M237.1,23.5c-73,3-118.833,4.5-137.5,4.5H0V2.1L31.6,2
			c2.367,0,13.083-0.333,32.15-1C82.783,0.333,96.4,0,104.6,0c14.433,0,32.516,0.583,54.25,1.75c10.867,0.6,20.284,1.183,28.25,1.75
			l6.15,4.95c5.167,3.566,10.45,6.083,15.85,7.55L237.1,23.5z"/>
		<g>
			<path style="fill-rule:evenodd;clip-rule:evenodd;fill:#448CA0;" d="M236.7,27.35l-1.25,11.15
				C122.417,41.467,60,42.95,48.2,42.95H0V34.3h12.9c35.1,0.434,59.983,0.65,74.65,0.65c8.167,0,31.95-1.067,71.351-3.2
				C184.634,30.383,210.566,28.917,236.7,27.35z"/>
			<path style="fill-rule:evenodd;clip-rule:evenodd;fill:#448CA0;" d="M89.15,92.45c-0.233-2.667-0.5-5.066-0.8-7.2l21.7,0.5
				c-0.733,2.566-1.316,5.017-1.75,7.35C98.967,92.7,92.583,92.483,89.15,92.45z"/>
			<path style="fill-rule:evenodd;clip-rule:evenodd;fill:#448CA0;" d="M17.55,93.05L0,93.1V84.45h18.55
				C18.083,87.517,17.75,90.384,17.55,93.05z"/>
			<path style="fill-rule:evenodd;clip-rule:evenodd;fill:#448CA0;" d="M187.05,97.2c-0.6-4.033-1.149-7.233-1.649-9.601l44.55,1.15
				l-1.2,10.85C219.384,99,205.483,98.2,187.05,97.2z"/>
			<path style="fill-rule:evenodd;clip-rule:evenodd;fill:#78A8C3;" d="M85.55,47.6c4.567-0.233,22.967-0.467,55.2-0.7
				c-6.167,1.8-11.55,5.217-16.15,10.25c-5.3,0.133-20.766,0.399-46.399,0.8c-3.9-4.7-8.75-7.817-14.55-9.35
				C75.317,48.1,82.617,47.767,85.55,47.6z"/>
			<path style="fill-rule:evenodd;clip-rule:evenodd;fill:#78A8C3;" d="M28.95,58.3H0v-8h15.55c3.367,0,12.017-0.267,25.95-0.8
				C36.567,51.3,32.383,54.233,28.95,58.3z"/>
			<path style="fill-rule:evenodd;clip-rule:evenodd;fill:#78A8C3;" d="M233.35,57.6c-26.466-1.7-47.033-2.533-61.699-2.5
				c-3.5-4.033-7.534-6.817-12.101-8.35l75.05-0.45L233.35,57.6z"/>
			<path style="fill-rule:evenodd;clip-rule:evenodd;fill:#448CA0;" d="M0,76.3v-8.7h23.25c-1.1,2.434-2.083,5.25-2.95,8.45
				c-3.566,0.033-6.7,0.117-9.4,0.25H0z"/>
			<path style="fill-rule:evenodd;clip-rule:evenodd;fill:#448CA0;" d="M183.15,78.5c-1.334-4.7-2.834-8.8-4.5-12.3l53.699,0.6
				l-1.399,12.55L183.15,78.5z"/>
			<path style="fill-rule:evenodd;clip-rule:evenodd;fill:#448CA0;" d="M82.65,65c6.1-0.167,11.067-0.184,14.9-0.05l20.9,0.45
				c-2.2,3.6-4.133,7.666-5.8,12.199L86.9,77.4C85.867,72.866,84.45,68.733,82.65,65z"/>
		</g>
		<g>
			<polygon style="fill-rule:evenodd;clip-rule:evenodd;fill:#6397A3;" points="112.3,51.2 112.3,55.4 98.75,55.65 98.55,51.05 			
				"/>
			<polygon style="fill-rule:evenodd;clip-rule:evenodd;fill:#A2BEC6;" points="112.3,51.2 98.55,51.1 96.65,50.55 108.55,50.3 			
				"/>
			<polygon style="fill-rule:evenodd;clip-rule:evenodd;fill:#49828D;" points="96.65,50.5 98.55,51.15 98.75,55.65 96.9,54.2 			
				"/>
			<path style="fill-rule:evenodd;clip-rule:evenodd;fill:#2E4D5D;" d="M112.3,55.4l-13.55,0.25l7.8-0.7
				C107.717,54.883,109.633,55.033,112.3,55.4z"/>
		</g>
		<g>
			<polygon style="fill-rule:evenodd;clip-rule:evenodd;fill:#6397A3;" points="15.35,86.35 15.35,89.2 6.05,89.4 5.9,86.2 			"/>
			<polygon style="fill-rule:evenodd;clip-rule:evenodd;fill:#A2BEC6;" points="15.35,86.35 5.9,86.25 4.6,85.85 12.8,85.7 			"/>
			<polygon style="fill-rule:evenodd;clip-rule:evenodd;fill:#49828D;" points="4.6,85.85 5.9,86.3 6.05,89.4 4.75,88.4 			"/>
			<path style="fill-rule:evenodd;clip-rule:evenodd;fill:#2E4D5D;" d="M15.35,89.2l-9.3,0.2l5.35-0.5
				C12.2,88.866,13.517,88.967,15.35,89.2z"/>
		</g>
		<g>
			<polygon style="fill-rule:evenodd;clip-rule:evenodd;fill:#6397A3;" points="217.2,82.9 217.2,87.05 203.65,87.3 203.45,82.7 			
				"/>
			<polygon style="fill-rule:evenodd;clip-rule:evenodd;fill:#A2BEC6;" points="217.2,82.9 203.45,82.8 201.55,82.2 213.45,81.95 
							"/>
			<polygon style="fill-rule:evenodd;clip-rule:evenodd;fill:#49828D;" points="201.8,85.85 201.55,82.2 203.45,82.8 203.65,87.3 
							"/>
			<path style="fill-rule:evenodd;clip-rule:evenodd;fill:#2E4D5D;" d="M217.2,87.05l-13.55,0.25l7.8-0.7
				C212.616,86.566,214.533,86.717,217.2,87.05z"/>
		</g>
		<g>
			<polygon style="fill-rule:evenodd;clip-rule:evenodd;fill:#6397A3;" points="228.05,72.35 228.05,75.7 217.2,75.9 217.05,72.2 
							"/>
			<polygon style="fill-rule:evenodd;clip-rule:evenodd;fill:#A2BEC6;" points="228.05,72.35 217.05,72.3 215.5,71.8 225.05,71.6 
							"/>
			<polygon style="fill-rule:evenodd;clip-rule:evenodd;fill:#49828D;" points="215.5,71.8 217.05,72.3 217.2,75.9 215.75,74.75 			
				"/>
			<path style="fill-rule:evenodd;clip-rule:evenodd;fill:#2E4D5D;" d="M228.05,75.7l-10.85,0.2l6.25-0.551
				C224.384,75.283,225.917,75.4,228.05,75.7z"/>
		</g>
	</g>
</g>
</svg>
