<?xml version="1.0" encoding="iso-8859-1"?>
<!-- Generator: Adobe Illustrator 15.1.0, SVG Export Plug-In . SVG Version: 6.00 Build 0)  -->
<!DOCTYPE svg PUBLIC "-//W3C//DTD SVG 1.1//EN" "http://www.w3.org/Graphics/SVG/1.1/DTD/svg11.dtd">
<svg version="1.1" id="Layer_1" xmlns="http://www.w3.org/2000/svg" xmlns:xlink="http://www.w3.org/1999/xlink" x="0px" y="0px"
	 width="237.15px" height="110.5px" viewBox="0 0 237.15 110.5" style="enable-background:new 0 0 237.15 110.5;"
	 xml:space="preserve">
<symbol  id="bridge_x5F_left.ai" viewBox="0 -110.5 237.15 110.5">
	<g id="bridge_x5F_left.ai_1_">
		<g>
			<path style="fill-rule:evenodd;clip-rule:evenodd;fill:#88B0BA;" d="M82.1-41.35c3.133-0.467,5.433-1.1,6.9-1.9
				c1.467-0.833,1.35-1.433-0.35-1.8c-3.767-0.833-7.867-3.917-12.3-9.25c-4.934-5.934-8.533-12.784-10.8-20.55
				c-2.033-6.933-3.333-14.95-3.9-24.05c-0.3-4.567-0.383-8.434-0.25-11.6H46.15c0.667,9.9,1.8,20.1,3.4,30.6
				c3.233,21,7.267,32.967,12.1,35.9C66.783-40.9,73.6-40.017,82.1-41.35z"/>
			<path style="fill-rule:evenodd;clip-rule:evenodd;fill:#88B0BA;" d="M171.45-40c3.533-0.3,6.233-0.767,8.1-1.4
				c1.867-0.667,1.95-1.184,0.25-1.55c-14.333-3.1-23.167-13.017-26.5-29.75c-1.4-7.1-1.85-15.533-1.35-25.3
				c0.267-4.867,0.667-9.033,1.2-12.5H137.9c-0.033,10,0.417,20.3,1.35,30.9c1.833,21.167,5.183,33.217,10.05,36.15
				C154.4-40.383,161.783-39.233,171.45-40z"/>
			<g>
				<path style="fill-rule:evenodd;clip-rule:evenodd;fill:#6397A3;" d="M179-47c-15.3,0.567-25.283-6.683-29.95-21.75
					c-3.333-10.733-3.833-24.65-1.5-41.75H131c-0.533,15.1-2.833,27.85-6.9,38.25c-7,17.767-18.467,26.7-34.4,26.8
					c-13.733,0.1-24.417-8.966-32.05-27.2c-4.566-10.8-7.617-23.417-9.15-37.85H9.6L0-23.5l237.15,2.2v-89.2h-16.9
					c-0.333,14.567-2.7,27.083-7.1,37.55C206.15-56.25,194.767-47.6,179-47z"/>
				<path style="fill-rule:evenodd;clip-rule:evenodd;fill:#A2BEC6;" d="M205.55-2l31.6-0.1V-28h-99.6c-18.667,0-64.5,1.5-137.5,4.5
					l28,7.5c5.434,1.467,10.733,3.983,15.9,7.55c2.566,1.8,4.6,3.45,6.1,4.95c7.967,0.567,17.383,1.15,28.25,1.75
					C100.033-0.583,118.117,0,132.55,0c8.2,0,21.817-0.333,40.85-1C192.467-1.667,203.183-2,205.55-2z"/>
				<g>
					<path style="fill-rule:evenodd;clip-rule:evenodd;fill:#448CA0;" d="M237.15-34.3v-8.65h-16.6c-40-0.433-64.9-0.216-74.7,0.65
						c-8.167,0.767-56.133,1.216-143.9,1.35l-1.3,11.7c88.133-3.367,137.867-5.05,149.2-5.05H237.15z"/>
					<path style="fill-rule:evenodd;clip-rule:evenodd;fill:#448CA0;" d="M216.9-84.4l20.25-0.05v-8.65H218.7
						C218.233-90.167,217.633-87.267,216.9-84.4z"/>
					<path style="fill-rule:evenodd;clip-rule:evenodd;fill:#448CA0;" d="M8.2-97.85l-1.25,11.4L53-86.35
						c-0.767-2.8-1.55-6.1-2.35-9.9L8.2-97.85z"/>
					<path style="fill-rule:evenodd;clip-rule:evenodd;fill:#448CA0;" d="M128.05-85.7c9.434,0.167,15.367,0.367,17.8,0.6h0.45
						c-0.133-2.667-0.183-5.35-0.15-8.05l-16.65-0.4C129-90.383,128.517-87.767,128.05-85.7z"/>
					<path style="fill-rule:evenodd;clip-rule:evenodd;fill:#78A8C3;" d="M32.55-58.3c-9.5,0-19.033-0.317-28.6-0.95L2.65-47.5
						c40.767,0.333,66.7,0.517,77.8,0.55c-5.6-1.933-10.6-5.816-15-11.65C47.45-58.4,36.483-58.3,32.55-58.3z"/>
					<path style="fill-rule:evenodd;clip-rule:evenodd;fill:#78A8C3;" d="M237.15-58.3h-33.1c-3.2,3.433-6.833,6.117-10.9,8.05
						l44-0.05V-58.3z"/>
					<path style="fill-rule:evenodd;clip-rule:evenodd;fill:#78A8C3;" d="M153.8-58.6c-6.066-0.033-11.816-0.15-17.25-0.35
						c-3.833-0.133-10.383-0.2-19.65-0.2c-4.367,5.8-9.717,9.783-16.05,11.95c12.733-0.3,34.066-1.017,64-2.15
						C160.383-51.25,156.7-54.333,153.8-58.6z"/>
					<path style="fill-rule:evenodd;clip-rule:evenodd;fill:#448CA0;" d="M6.3-80.7L4.75-66.35c16.367,1.3,32.067,1.767,47.1,1.4
						c3.033-0.066,6.15-0.167,9.35-0.3c-2.367-4.233-4.417-8.983-6.15-14.25L6.3-80.7z"/>
					<path style="fill-rule:evenodd;clip-rule:evenodd;fill:#448CA0;" d="M122.2-67.9c7-0.267,13.117-0.4,18.35-0.4l8.65,0.05
						c-1.034-3.233-1.817-6.883-2.35-10.95c-4.4-0.033-8.5,0.05-12.3,0.25c-1.433,0.1-4.183,0.184-8.25,0.25
						C125.167-74.9,123.8-71.3,122.2-67.9z"/>
					<path style="fill-rule:evenodd;clip-rule:evenodd;fill:#448CA0;" d="M210.65-67.75l26.5,0.15v-8.7h-22.7
						C213.317-73.133,212.05-70.283,210.65-67.75z"/>
				</g>
				<g>
					<polygon style="fill-rule:evenodd;clip-rule:evenodd;fill:#6397A3;" points="126.2,-52.05 139.95,-51.85 139.8,-56.45 
						126.2,-56.2 					"/>
					<polygon style="fill-rule:evenodd;clip-rule:evenodd;fill:#A2BEC6;" points="126.2,-52.05 129.95,-51.1 141.85,-51.35 
						139.95,-51.95 					"/>
					<polygon style="fill-rule:evenodd;clip-rule:evenodd;fill:#88B0BA;" points="141.85,-51.35 141.6,-55.05 139.8,-56.45 
						139.95,-52 					"/>
					<path style="fill-rule:evenodd;clip-rule:evenodd;fill:#2E4D5D;" d="M126.2-56.2l2.2,0.25c1.633,0.133,2.817,0.184,3.55,0.15
						c1.167-0.034,3.783-0.25,7.85-0.65L126.2-56.2z"/>
				</g>
				<g>
					<polygon style="fill-rule:evenodd;clip-rule:evenodd;fill:#6397A3;" points="212.6,-45.1 224.6,-44.95 224.45,-48.95 
						212.6,-48.75 					"/>
					<polygon style="fill-rule:evenodd;clip-rule:evenodd;fill:#A2BEC6;" points="212.6,-45.1 215.85,-44.3 226.3,-44.5 224.6,-45 
											"/>
					<polygon style="fill-rule:evenodd;clip-rule:evenodd;fill:#88B0BA;" points="226.3,-44.5 226.05,-47.7 224.45,-48.95 
						224.6,-45.05 					"/>
					<path style="fill-rule:evenodd;clip-rule:evenodd;fill:#2E4D5D;" d="M212.6-48.75l1.95,0.2c1.4,0.167,2.417,0.233,3.05,0.2
						l6.85-0.6L212.6-48.75z"/>
				</g>
				<g>
					<polygon style="fill-rule:evenodd;clip-rule:evenodd;fill:#6397A3;" points="18.25,-72.4 31.95,-72.2 31.8,-76.8 18.25,-76.55 
											"/>
					<polygon style="fill-rule:evenodd;clip-rule:evenodd;fill:#A2BEC6;" points="18.25,-72.4 21.95,-71.45 33.9,-71.7 31.95,-72.3 
											"/>
					<polygon style="fill-rule:evenodd;clip-rule:evenodd;fill:#88B0BA;" points="33.85,-71.7 33.6,-75.35 31.8,-76.8 31.95,-72.3 
											"/>
					<path style="fill-rule:evenodd;clip-rule:evenodd;fill:#2E4D5D;" d="M18.25-76.55l2.2,0.25c1.6,0.167,2.767,0.233,3.5,0.2
						c1.167-0.066,3.783-0.3,7.85-0.7L18.25-76.55z"/>
				</g>
				<g>
					<polygon style="fill-rule:evenodd;clip-rule:evenodd;fill:#6397A3;" points="8.55,-61.25 19.55,-61.1 19.4,-64.8 8.55,-64.6 
											"/>
					<polygon style="fill-rule:evenodd;clip-rule:evenodd;fill:#A2BEC6;" points="8.55,-61.25 11.55,-60.5 21.1,-60.7 19.55,-61.2 
											"/>
					<polygon style="fill-rule:evenodd;clip-rule:evenodd;fill:#88B0BA;" points="21.05,-60.7 20.85,-63.65 19.4,-64.8 19.55,-61.2 
											"/>
					<path style="fill-rule:evenodd;clip-rule:evenodd;fill:#2E4D5D;" d="M8.55-64.6l1.8,0.2c1.3,0.133,2.233,0.183,2.8,0.15
						c0.934-0.033,3.017-0.217,6.25-0.55L8.55-64.6z"/>
				</g>
			</g>
		</g>
	</g>
</symbol>
<use xlink:href="#bridge_x5F_left.ai"  width="237.15" height="110.5" y="-110.5" transform="matrix(1 0 0 -1 0 0)" style="overflow:visible;"/>
</svg>
