<?xml version="1.0" encoding="iso-8859-1"?>
<!-- Generator: Adobe Illustrator 15.1.0, SVG Export Plug-In . SVG Version: 6.00 Build 0)  -->
<!DOCTYPE svg PUBLIC "-//W3C//DTD SVG 1.1//EN" "http://www.w3.org/Graphics/SVG/1.1/DTD/svg11.dtd">
<svg version="1.1" id="buildings_1" xmlns="http://www.w3.org/2000/svg" xmlns:xlink="http://www.w3.org/1999/xlink" x="0px"
	 y="0px" width="115px" height="216px" viewBox="0 0 115 216" style="enable-background:new 0 0 115 216;" xml:space="preserve">
<g>
	<g>
		<polygon style="fill-rule:evenodd;clip-rule:evenodd;fill:#C5C9CA;" points="86.35,23.7 78,37.35 81.35,84 77.35,87.7 
			82.35,95.35 89.65,141.7 87,144.35 93.35,162.35 88.65,165.35 95.35,172.7 115,207.7 88,216 35.65,165.35 70,7.35 81,5.7 		"/>
		
			<linearGradient id="SVGID_1_" gradientUnits="userSpaceOnUse" x1="-41.3765" y1="-113.5117" x2="108.3091" y2="-113.5117" gradientTransform="matrix(-0.6185 0.7858 -0.7858 -0.6185 -3.076792e-004 1.828074e-004)">
			<stop  offset="0" style="stop-color:#C8CDCE"/>
			<stop  offset="1" style="stop-color:#9DA6A9"/>
		</linearGradient>
		<polygon style="fill-rule:evenodd;clip-rule:evenodd;fill:url(#SVGID_1_);" points="70,7.35 75.35,26.7 69.5,35.65 68.65,89.7 
			66.65,97.35 69.65,99.7 75,166.35 73,171 79,175.35 88,216 0,204.35 3.35,166 15.35,154.35 11.05,143.95 16,117 23.65,111.35 
			20.65,107 28.35,55.35 23.65,38.7 30.35,0.7 		"/>
		<path style="fill-rule:evenodd;clip-rule:evenodd;fill:#54585B;" d="M35.35,183.45l-3.6,1.05l1.3-1.15
			c1.567-0.767,4.184-1.133,7.85-1.1c4.1,0.033,8.283,1.467,12.55,4.3c3.533,2.367,6.967,5.584,10.3,9.65
			c2.467,2.967,4.917,6.666,7.35,11.1c1.2,2.2,2.167,4.101,2.9,5.7l-1.85-0.3C62.65,199.467,56.8,191.934,54.6,190.1
			c-5.1-4.199-9.217-6.566-12.35-7.1C40.45,182.7,38.15,182.85,35.35,183.45z"/>
		<path style="fill-rule:evenodd;clip-rule:evenodd;fill:#54585B;" d="M38.35,189.7c0.167-0.167,0.4-0.351,0.7-0.55
			c0.567-0.334,1.133-0.483,1.7-0.45c0.8,0.033,1.383,0.083,1.75,0.149c0.567,0.134,1.35,0.417,2.35,0.851
			c2.4,1,5.25,3.767,8.55,8.3c2.333,3.233,5.067,7.566,8.2,13l-3.699-0.3c-0.7-1.967-1.7-4.467-3-7.5c-0.833-2-2.6-4.566-5.3-7.7
			c-2.367-2.7-3.9-4.25-4.6-4.65c-0.367-0.199-1.583-0.449-3.65-0.75L38.35,189.7z"/>
		<path style="fill-rule:evenodd;clip-rule:evenodd;fill:#54585B;" d="M40.65,195.45l2,0.75c1.5,0.7,2.617,1.616,3.35,2.75
			c1.167,1.767,2.717,5.267,4.65,10.5l-3.4-0.7c-0.933-5.434-1.8-8.783-2.6-10.05c-0.467-0.8-1.316-1.417-2.55-1.851l-1.7-0.399
			L40.65,195.45z"/>
		<path style="fill-rule:evenodd;clip-rule:evenodd;fill:#54585B;" d="M15.35,197.35c0.566-0.866,2.066-2.3,4.5-4.3
			c3.2-2.7,5.167-4.399,5.9-5.1c1.433-1.367,3.933-2.55,7.5-3.55c1.767-0.534,3.4-0.917,4.9-1.15c-0.2,0.167-1.417,0.65-3.65,1.45
			c-1.6,0.533-3.55,1.583-5.85,3.149c-2.133,1.467-3.967,2.917-5.5,4.351c-1.867,1.767-5.083,5.866-9.65,12.3l-2.15-0.15
			C13.017,201.184,14.35,198.85,15.35,197.35z"/>
		<path style="fill-rule:evenodd;clip-rule:evenodd;fill:#54585B;" d="M31.15,193.6c1.367-1.199,3.367-2.233,6-3.1
			c1.333-0.4,2.533-0.7,3.6-0.9c-0.667,0.434-1.533,0.817-2.6,1.15c-0.9,0.3-2.3,1.25-4.2,2.85c-2.133,1.834-3.784,3.584-4.95,5.25
			c-1.667,2.434-3.033,4.934-4.1,7.5L22.65,206c0.867-1.566,1.883-3.267,3.05-5.1C27.967,197.233,29.783,194.8,31.15,193.6z"/>
		<path style="fill-rule:evenodd;clip-rule:evenodd;fill:#54585B;" d="M39.9,196.55c0.8-0.133,1.467-0.149,2-0.05
			c0,0.333-0.55,0.566-1.65,0.7c-0.767,0.066-1.383,0.434-1.85,1.1c-0.333,0.467-0.85,1.533-1.55,3.2c-0.833,2-1.4,4.033-1.7,6.1
			l-2.5-0.6c0.067-0.9,0.25-1.934,0.55-3.1c0.633-2.301,1.517-4.034,2.65-5.2C36.983,197.5,38.333,196.783,39.9,196.55z"/>
		<path style="fill-rule:evenodd;clip-rule:evenodd;fill:#54585B;" d="M41.6,11.4c-0.467,0.4-0.983,0.55-1.55,0.45
			c-0.4-0.033-0.533-0.617-0.4-1.75L40,8.45l1.1,0.15c0.733,0.233,1.117,0.633,1.15,1.2C42.317,10.467,42.1,11,41.6,11.4z"/>
		<path style="fill-rule:evenodd;clip-rule:evenodd;fill:#54585B;" d="M45.75,9.2l1.2,0.2c0.767,0.267,1.1,0.717,1,1.35
			c-0.1,0.733-0.4,1.3-0.9,1.7c-0.5,0.367-1.017,0.45-1.55,0.25c-0.433-0.2-0.517-0.833-0.25-1.9L45.75,9.2z"/>
		<path style="fill-rule:evenodd;clip-rule:evenodd;fill:#54585B;" d="M53.25,10.2l1.2,0.35c0.767,0.367,1.1,0.917,1,1.65
			c-0.133,1.233-0.95,1.733-2.45,1.5c-0.233-0.067-0.267-0.667-0.1-1.8L53.25,10.2z"/>
		<polygon style="fill-rule:evenodd;clip-rule:evenodd;fill:#CDD1D2;" points="30.35,0.7 54.35,0 81,5.7 70,7.35 		"/>
		<polygon style="fill-rule:evenodd;clip-rule:evenodd;fill:#A0A9AB;" points="78,37.35 69.5,35.65 74.25,24.2 86.35,23.7 		"/>
		<polygon style="fill-rule:evenodd;clip-rule:evenodd;fill:#A0A9AB;" points="66.65,97.35 68.65,89.7 81.35,84 		"/>
		<polygon style="fill-rule:evenodd;clip-rule:evenodd;fill:#A0A9AB;" points="89.65,141.7 87,144.35 75,144.7 		"/>
		<polygon style="fill-rule:evenodd;clip-rule:evenodd;fill:#A0A9AB;" points="73,171 75,166.35 93.35,162.35 88.65,165.35 		"/>
		<polygon style="fill-rule:evenodd;clip-rule:evenodd;fill:#CDD1D2;" points="77.35,87.7 82.35,95.35 69.65,99.7 66.65,97.35 		"/>
		<polygon style="fill-rule:evenodd;clip-rule:evenodd;fill:#CDD1D2;" points="73,171 88.65,165.35 95.35,172.7 79,175.35 		"/>
		<polygon style="fill-rule:evenodd;clip-rule:evenodd;fill:#B8BFC1;" points="16,117 23.65,111.35 56.75,117.7 		"/>
		<polygon style="fill-rule:evenodd;clip-rule:evenodd;fill:#A0A9AB;" points="20.65,107 56.75,117.7 23.65,111.35 		"/>
		<polygon style="fill-rule:evenodd;clip-rule:evenodd;fill:#B8BFC1;" points="15.35,154.35 63.25,162.45 3.35,166 		"/>
		<polygon style="fill-rule:evenodd;clip-rule:evenodd;fill:#99A0A3;" points="11.05,143.95 63.25,162.45 15.35,154.35 		"/>
		<polygon style="fill-rule:evenodd;clip-rule:evenodd;fill:#AAB2B5;" points="23.65,38.7 57.75,50.2 28.35,55.35 		"/>
		<polygon style="fill-rule:evenodd;clip-rule:evenodd;fill:#CDD1D2;" points="37.5,36.95 34.5,35.7 38,15.45 41,15.2 		"/>
		<polygon style="fill-rule:evenodd;clip-rule:evenodd;fill:#CDD1D2;" points="44,15.95 47.5,16.45 45,38.45 41.75,37.2 		"/>
		<polygon style="fill-rule:evenodd;clip-rule:evenodd;fill:#CDD1D2;" points="51.75,17.95 55.25,18.2 53,40.45 50.25,39.95 		"/>
		<path style="fill-rule:evenodd;clip-rule:evenodd;fill:#CDD1D2;" d="M39.75,11.95c-1.033,0-1.517-0.65-1.45-1.95
			c0.034-1.267,0.6-1.783,1.7-1.55c1.2,0.233,1.717,0.883,1.55,1.95C41.383,11.433,40.783,11.95,39.75,11.95z"/>
		<path style="fill-rule:evenodd;clip-rule:evenodd;fill:#CDD1D2;" d="M45.75,9.2c1.2,0.233,1.717,0.883,1.55,1.95
			c-0.167,1.033-0.767,1.55-1.8,1.55s-1.517-0.65-1.45-1.95C44.083,9.483,44.65,8.967,45.75,9.2z"/>
		<path style="fill-rule:evenodd;clip-rule:evenodd;fill:#CDD1D2;" d="M53.25,10.2c1.2,0.233,1.717,0.883,1.55,1.95
			c-0.167,1.033-0.767,1.55-1.8,1.55s-1.517-0.65-1.45-1.95C51.583,10.483,52.15,9.967,53.25,10.2z"/>
		<path style="fill-rule:evenodd;clip-rule:evenodd;fill:#54585B;" d="M44.25,71.2l1.95-0.1l2.65,6.25
			c1.733,4.566,2.467,7.8,2.2,9.7c-0.267,2.267-1.066,4.034-2.4,5.3c-1.267,1.2-2.767,1.7-4.5,1.5
			c-1.433-0.133-1.85-3.95-1.25-11.45L44.25,71.2z"/>
		<path style="fill-rule:evenodd;clip-rule:evenodd;fill:#CDD1D2;" d="M44.25,71.2l1.6,3.75c1.167,2.966,2.017,5.667,2.55,8.1
			c1.7,7.8-0.1,11.434-5.4,10.9c-4.467-0.434-5.6-4.35-3.4-11.75c0.7-2.333,1.683-4.867,2.95-7.6L44.25,71.2z"/>
		<path style="fill-rule:evenodd;clip-rule:evenodd;fill:#54585B;" d="M58.65,134.95l2.1-2.5l1.15,0.25l0.25,1.149
			c0.267,0.867,0.683,1.5,1.25,1.9c0.866,0.634,1.533,0.95,2,0.95l0.85-0.25h1.3l-0.55,1.3l-1.75,0.7L61.3,135
			c-1.833,1.4-3.184,2.25-4.05,2.55c-1.067,0.367-2.067,0.434-3,0.2c-0.233-0.1-1.183-0.9-2.85-2.4c-1.5,0.5-2.9,0.784-4.2,0.851
			c-2.233,0.066-3.667-0.05-4.3-0.351c-0.367-0.133-0.717-0.517-1.05-1.149l-0.35-0.851c-1.133,0.467-2.2,0.801-3.2,1
			c-0.633,0.134-1.367,0.2-2.2,0.2l-1.1-0.1l-2.85-1.7c-1.433,0.833-2.583,1.316-3.45,1.45c-0.534,0.066-1.667,0.033-3.4-0.101
			l-2.4-0.25l7.9-2l-0.05-1.899l2.75,0.899l0.65,0.65c0.533,0.5,1.117,0.85,1.75,1.05c1,0.334,2.383,0.101,4.15-0.7l0.45-1.399
			l2,0.35l0.75,1.15c0.6,0.8,1.15,1.3,1.65,1.5c0.767,0.267,2.033,0.3,3.8,0.1l2.3-2.35l1.9,0.55l0.35,1.15
			c0.4,0.8,0.917,1.35,1.55,1.649C55.867,135.517,57.15,135.483,58.65,134.95z"/>
		<path style="fill-rule:evenodd;clip-rule:evenodd;fill:#CDD1D2;" d="M59.05,133.85l1.7-1.399l0.3,1.55
			c0.267,1.1,0.667,1.75,1.2,1.95c0.833,0.333,2.167,0.5,4,0.5l-1,2c-2.167,0-3.5-0.25-4-0.75c-0.3-0.3-0.6-0.767-0.9-1.4L60,135.45
			c-1.833,1.333-3.583,2.083-5.25,2.25c-1.033,0.1-2.133-0.367-3.3-1.4L50,134.7c-2.167,0.833-4.25,1.25-6.25,1.25
			c-1.233,0-2.233-0.45-3-1.351L40,133.2c-2.167,1.333-3.833,1.916-5,1.75c-0.733-0.101-1.7-0.467-2.9-1.101l-1.6-0.899
			c-1,0.833-2.333,1.333-4,1.5c-1.033,0.1-2.217,0.083-3.55-0.05l-1.7-0.2l0.5-1.5c3,0.333,5,0.333,6,0c1-0.334,2-1.084,3-2.25
			l1.35,1.45c1.133,0.966,2.267,1.399,3.4,1.3c1.833-0.167,3.5-0.917,5-2.25l1.15,1.95c0.967,1.3,1.917,1.899,2.85,1.8
			c1.5-0.167,3.667-1.167,6.5-3l0.55,1.95c0.667,1.3,1.733,1.899,3.2,1.8C56.217,135.35,57.65,134.816,59.05,133.85z"/>
		<path style="fill-rule:evenodd;clip-rule:evenodd;fill:#54585B;" d="M40.9,144.55l-3.25-1.95c-0.833,0.567-1.816,0.967-2.95,1.2
			c-0.7,0.167-1.567,0.233-2.6,0.2l-1.35-0.15l-1.6-1.75c-0.967,0.267-2.033,0.483-3.2,0.65c-0.733,0.1-1.767,0.134-3.1,0.1
			l-1.8-0.1l0.95-0.9l6.25-1.05L28,138.95l2,0.5l0.45,0.8c0.433,0.566,0.933,1,1.5,1.3c0.9,0.467,2.05,0.601,3.45,0.4l1.6-1.5
			l2.9,0.649l0.8,1.101c0.633,0.733,1.233,1.149,1.8,1.25c0.933,0.166,2.35-0.066,4.25-0.7l1-1.55l1.9,0.55l0.55,0.8
			c0.5,0.566,1.017,0.95,1.55,1.15c0.867,0.333,2.2,0.45,4,0.35l2-1.6l2.5,0.55l0.55,0.9c0.5,0.666,1.066,1.1,1.7,1.3
			c1.033,0.333,1.783,0.383,2.25,0.149l0.5-0.399l1.65,0.149l0.399,0.75L66,146.45c-3.033,0.2-4.816,0.149-5.35-0.15L59,145.5
			c-2.3,0.366-4.033,0.55-5.2,0.55l-3.4-0.1l-0.7-2c-2.8,0.7-4.633,1.033-5.5,1L40.9,144.55z"/>
		<path style="fill-rule:evenodd;clip-rule:evenodd;fill:#CDD1D2;" d="M42,144.7c-1.033,0-2.267-0.367-3.7-1.101l-1.8-1.149
			c-1.667,1-3.333,1.5-5,1.5c-1.033,0-1.967-0.367-2.8-1.101l-0.95-1.149c-0.8,0.3-1.717,0.55-2.75,0.75
			c-2.067,0.434-3.733,0.434-5,0l0.5-1.75l0.95,0.2c0.9,0.133,1.917,0.149,3.05,0.05c1.133-0.101,2.067-0.467,2.8-1.101l0.7-0.899
			l1.05,1.75c0.867,1.166,1.767,1.75,2.7,1.75c1.5,0,3.25-0.667,5.25-2l1.65,1.6c1.333,1.033,2.617,1.5,3.85,1.4
			c2-0.167,3.75-0.917,5.25-2.25l0.9,1.45c0.733,1,1.517,1.6,2.35,1.8c1.333,0.333,3.583-0.334,6.75-2l1.1,1.3
			c0.867,0.866,1.667,1.35,2.4,1.45c1.167,0.166,2.5,0.083,4-0.25l0.75,1.5c-2.333,0.666-4.167,0.833-5.5,0.5
			c-0.833-0.2-1.533-0.634-2.1-1.3l-0.65-0.95c-3.167,1-5.5,1.416-7,1.25c-0.933-0.101-1.717-0.55-2.35-1.351l-0.65-1.149
			C45.583,144.283,43.667,144.7,42,144.7z"/>
		<path style="fill-rule:evenodd;clip-rule:evenodd;fill:#CDD1D2;" d="M19.85,194.05c-3.467,3.434-6.3,6.867-8.5,10.3l-2.5-0.149
			c2.2-3.733,5.133-7.467,8.8-11.2c7.333-7.4,14.7-11,22.1-10.8s15.017,5.35,22.85,15.45c3.934,5.033,7.117,10.05,9.551,15.05
			L69.35,212c-2.3-4.634-5.25-9.283-8.85-13.95c-7.2-9.3-14.033-14-20.5-14.1C33.533,183.85,26.817,187.217,19.85,194.05z"/>
		<path style="fill-rule:evenodd;clip-rule:evenodd;fill:#CDD1D2;" d="M40.75,188.7c3.867,0.2,8.15,3.95,12.85,11.25
			c2.367,3.666,4.333,7.3,5.9,10.899l-3.15-0.35c-1.167-3.167-2.717-6.366-4.65-9.6c-3.867-6.5-7.684-9.9-11.45-10.2
			c-3.733-0.3-7.783,2.149-12.15,7.35c-2.2,2.634-4.017,5.283-5.45,7.95L20,205.5c1.933-2.866,4.233-5.733,6.9-8.6
			C32.267,191.233,36.883,188.5,40.75,188.7z"/>
		<path style="fill-rule:evenodd;clip-rule:evenodd;fill:#CDD1D2;" d="M44.65,202.95c-1.133-3.733-2.6-5.65-4.4-5.75
			c-1.567-0.101-3.3,1.5-5.2,4.8c-0.966,1.667-1.767,3.333-2.4,5L30,206.35c0.867-1.8,1.95-3.616,3.25-5.449
			c2.6-3.634,4.933-5.45,7-5.45c2.1,0,4.167,2.267,6.2,6.8c1,2.233,1.8,4.483,2.4,6.75l-3-0.5
			C45.65,206.667,45.25,204.816,44.65,202.95z"/>
		<polygon style="fill-rule:evenodd;clip-rule:evenodd;fill:#939A9D;" points="31.85,170.5 29.5,168.7 11.5,171.35 10.65,188 
			6.65,188.5 5.15,204 1.15,203.5 4.65,167.5 71.15,164 37,168.7 64.5,169.35 		"/>
		<polygon style="fill-rule:evenodd;clip-rule:evenodd;fill:#939A9D;" points="41.5,123.5 28.35,123.5 26,121.85 20.35,121.7 
			15.85,144.85 12.5,142.85 17.35,118.7 56.65,119.5 66.65,119.35 56.85,120.7 		"/>
		<polygon style="fill-rule:evenodd;clip-rule:evenodd;fill:#939A9D;" points="76.5,179.7 70.15,173.85 61.65,173.35 69.85,172.5 
			77.5,178 85.35,214.35 80,213.7 78.35,202.2 75.85,199.85 		"/>
		<path style="fill-rule:evenodd;clip-rule:evenodd;fill:#A9AEB0;" d="M25.35,95.85l-1-3l5.5-35.65L67,51.5l-31,7.2l-1.5,20.8
			l-4.65-0.3c-0.567,7.1-0.9,10.816-1,11.15c-0.133,0.333,0.467,0.833,1.8,1.5L29,107.2l-7-1.85l1-5.35L25.35,95.85z"/>
		<polygon style="fill-rule:evenodd;clip-rule:evenodd;fill:#A9AEB0;" points="60.35,69.7 56.65,69.85 57,61.5 47.35,63.7 40,62 
			66,58 65,78.5 61,79.85 59.65,91.5 57.85,91.2 57.35,95.2 55.65,96.35 55.5,77.35 59.65,75.35 		"/>
		<polygon style="fill-rule:evenodd;clip-rule:evenodd;fill:#A9AEB0;" points="30,38.95 24.75,36.95 31.5,1.95 69.25,9.95 35.5,4.2 
			32.25,20.7 30.5,23.2 		"/>
		<path style="fill-rule:evenodd;clip-rule:evenodd;fill:#939A9D;" d="M40.7,104.1c1.566,1.3,3.083,2,4.55,2.1
			c1.467,0.1,3.067-0.167,4.8-0.8c0.9-0.3,1.633-0.617,2.2-0.95l-1.75,4l-10.25-1.25l-1.5-5L40.7,104.1z"/>
		<path style="fill-rule:evenodd;clip-rule:evenodd;fill:#939A9D;" d="M54.75,178.95l2.3,1.149c1.867,0.801,3.684,1.25,5.45,1.351
			c1.767,0.1,3.384-0.283,4.85-1.15l1.65-1.35l-1,4l-10.75-0.75L54.75,178.95z"/>
		<polygon style="fill-rule:evenodd;clip-rule:evenodd;fill:#939A9D;" points="16.5,178.45 18,180.2 23,179.95 25,178.7 
			25.75,180.95 16,181.2 		"/>
		<polygon style="fill-rule:evenodd;clip-rule:evenodd;fill:#939A9D;" points="60.75,19.2 61.75,22.45 67,24.95 70.25,23.45 
			68.5,26.45 60.5,23.45 		"/>
		<polygon style="fill-rule:evenodd;clip-rule:evenodd;fill:#AAB2B5;" points="81.25,10.95 82.75,21.2 76.75,20.95 74.5,10.7 
			79,18.7 		"/>
		<polygon style="fill-rule:evenodd;clip-rule:evenodd;fill:#AAB2B5;" points="77.5,39.95 74.5,40.7 73,59.2 76.25,64.7 
			77.25,82.45 74.5,83.95 73.5,65.2 71.5,61.2 72.25,37.95 		"/>
		<path style="fill-rule:evenodd;clip-rule:evenodd;fill:#AAB2B5;" d="M72.75,104.45l8-4.25l1.75,20l-2,3.25l1.5,9.25l3.75,1l2,6.75
			L75,143.7l9.75-4L84,135.45c-2.833-0.834-4.333-1.5-4.5-2s-0.583-4.5-1.25-12l3-3.75L79,103.2L72.75,104.45z"/>
		<polygon style="fill-rule:evenodd;clip-rule:evenodd;fill:#AAB2B5;" points="94.25,174.45 113.25,206.7 90,213.7 105.5,204.95 
			102.75,193.95 97.75,193.45 94.5,177.7 81.75,177.2 		"/>
		<polygon style="fill-rule:evenodd;clip-rule:evenodd;fill:#AAB2B5;" points="91.5,202.7 96.25,203.7 90,205.7 88,193.7 		"/>
		<polygon style="fill-rule:evenodd;clip-rule:evenodd;fill:#54585B;" points="42.15,15.3 39.45,36.3 37.5,36.95 41,15.2 		"/>
		<polygon style="fill-rule:evenodd;clip-rule:evenodd;fill:#54585B;" points="47.5,16.45 48.65,16.6 46.65,37.85 45,38.45 		"/>
		<polygon style="fill-rule:evenodd;clip-rule:evenodd;fill:#54585B;" points="55.25,18.2 56.45,18.25 54.55,40.35 53,40.45 		"/>
	</g>
	<g>
		<g>
			<path style="fill-rule:evenodd;clip-rule:evenodd;fill:#7E8386;" d="M75.85,57.45c1.4-1.8,1.983-1.633,1.75,0.5
				c0,0.267-0.333,0.433-1,0.5C75.967,58.483,75.717,58.15,75.85,57.45z"/>
		</g>
	</g>
	<g>
		<g>
			<path style="fill-rule:evenodd;clip-rule:evenodd;fill:#7E8386;" d="M77.45,99.3c0.2,0.7-0.017,1.083-0.65,1.15
				c-0.5,0.167-0.916,0.017-1.25-0.45c-0.333-0.467-0.25-0.85,0.25-1.15C76.733,98.483,77.283,98.633,77.45,99.3z"/>
		</g>
	</g>
	<g>
		<g>
			<path style="fill-rule:evenodd;clip-rule:evenodd;fill:#7E8386;" d="M76.2,113.85c-0.233,0.733-0.684,1.017-1.351,0.851
				c-0.666-0.167-0.816-0.584-0.449-1.25c0.3-0.533,0.716-0.717,1.25-0.55C76.184,113.066,76.366,113.384,76.2,113.85z"/>
		</g>
	</g>
	<g>
		<g>
			<path style="fill-rule:evenodd;clip-rule:evenodd;fill:#7E8386;" d="M73.9,110.1c-0.733,0.267-1.334,0-1.801-0.8
				c-0.466-0.8-0.166-1.35,0.9-1.65c1.2,0.033,1.783,0.417,1.75,1.15C74.717,109.5,74.434,109.934,73.9,110.1z"/>
		</g>
	</g>
	<g>
		<g>
			<path style="fill-rule:evenodd;clip-rule:evenodd;fill:#7E8386;" d="M80.9,155.85c-0.567,1.4-1.551,1.867-2.95,1.4
				c-1.367-0.467-1.634-1.384-0.8-2.75c1.033-1.3,2.017-1.6,2.949-0.9C81.033,154.233,81.3,154.983,80.9,155.85z"/>
		</g>
	</g>
	<g>
		<g>
			<path style="fill-rule:evenodd;clip-rule:evenodd;fill:#7E8386;" d="M89.5,158.6c0.267-0.033,0.434,0.067,0.5,0.301
				c0.033,0.233-0.083,0.35-0.35,0.35c-0.233,0-0.367-0.1-0.4-0.3S89.3,158.634,89.5,158.6z"/>
		</g>
	</g>
	<g>
		<g>
			<path style="fill-rule:evenodd;clip-rule:evenodd;fill:#7E8386;" d="M85.25,150.1c0.267-0.033,0.434,0.067,0.5,0.301
				c0.033,0.233-0.083,0.35-0.35,0.35c-0.233,0-0.367-0.1-0.4-0.3S85.05,150.134,85.25,150.1z"/>
		</g>
	</g>
	<g>
		<g>
			<path style="fill-rule:evenodd;clip-rule:evenodd;fill:#7E8386;" d="M82.05,162.05c-0.133,0.233-0.3,0.283-0.5,0.15
				c-0.2-0.134-0.217-0.283-0.05-0.45s0.333-0.184,0.5-0.05C82.134,161.8,82.15,161.917,82.05,162.05z"/>
		</g>
	</g>
	<g>
		<g>
			<path style="fill-rule:evenodd;clip-rule:evenodd;fill:#7E8386;" d="M74.15,122.55c-0.634-0.399-0.784-0.75-0.45-1.05
				c0.366-0.366,0.633-0.384,0.8-0.05C74.934,122.316,74.816,122.684,74.15,122.55z"/>
		</g>
	</g>
	<g>
		<g>
			<path style="fill-rule:evenodd;clip-rule:evenodd;fill:#7E8386;" d="M77.5,135c-0.733,0.467-1.3,0.384-1.7-0.25
				c-0.366-0.6-0.2-1.033,0.5-1.3c0.601-0.233,1.066-0.101,1.4,0.399C78.033,134.316,77.967,134.7,77.5,135z"/>
		</g>
	</g>
	<g>
		<g>
			<path style="fill-rule:evenodd;clip-rule:evenodd;fill:#7E8386;" d="M83.35,126.4c0.334-0.334,0.7-0.351,1.101-0.051
				c0.399,0.301,0.35,0.634-0.15,1c-0.434,0.233-0.767,0.184-1-0.149C83.066,126.9,83.083,126.634,83.35,126.4z"/>
		</g>
	</g>
	<g>
		<g>
			<path style="fill-rule:evenodd;clip-rule:evenodd;fill:#7E8386;" d="M83.35,114c0.134-0.333,0.334-0.45,0.601-0.35
				c0.267,0.133,0.333,0.316,0.2,0.55c-0.2,0.3-0.4,0.383-0.601,0.25C83.35,114.316,83.283,114.167,83.35,114z"/>
		</g>
	</g>
	<g>
		<g>
			<path style="fill-rule:evenodd;clip-rule:evenodd;fill:#7E8386;" d="M88.1,182.45c0.567,0.166,0.801,0.616,0.7,1.35
				c-0.133,0.733-0.616,0.917-1.45,0.55c-0.699-0.666-0.833-1.199-0.399-1.6C87.35,182.35,87.733,182.25,88.1,182.45z"/>
		</g>
	</g>
	<g>
		<g>
			<path style="fill-rule:evenodd;clip-rule:evenodd;fill:#7E8386;" d="M95.1,192.55c0.367,0.066,0.584,0.334,0.65,0.8
				c0.066,0.467-0.2,0.617-0.8,0.45c-0.4-0.2-0.55-0.483-0.45-0.85C94.6,192.616,94.8,192.483,95.1,192.55z"/>
		</g>
	</g>
	<g>
		<g>
			<path style="fill-rule:evenodd;clip-rule:evenodd;fill:#7E8386;" d="M100.75,200c0.5,0.2,0.684,0.65,0.55,1.35
				c-0.133,0.634-0.583,0.717-1.35,0.25c-0.5-0.466-0.584-0.916-0.25-1.35C100,199.816,100.35,199.733,100.75,200z"/>
		</g>
	</g>
	<g>
		<g>
			<path style="fill-rule:evenodd;clip-rule:evenodd;fill:#7E8386;" d="M109.35,201.25c0.634,0.167,0.851,0.45,0.65,0.85
				c-0.167,0.4-0.4,0.534-0.7,0.4c-0.467-0.167-0.649-0.417-0.55-0.75S109.05,201.25,109.35,201.25z"/>
		</g>
	</g>
	<g>
		<g>
			<path style="fill-rule:evenodd;clip-rule:evenodd;fill:#7E8386;" d="M100.7,188.4c0.6,0.033,0.866,0.267,0.8,0.699
				c-0.066,0.434-0.283,0.584-0.65,0.45c-0.366-0.033-0.566-0.217-0.6-0.55S100.366,188.467,100.7,188.4z"/>
		</g>
	</g>
	<g>
		<g>
			<path style="fill-rule:evenodd;clip-rule:evenodd;fill:#7E8386;" d="M79.6,101.7c0.334-0.367,0.7-0.4,1.101-0.1
				c0.399,0.3,0.35,0.65-0.15,1.05c-0.434,0.233-0.767,0.184-1-0.15S79.333,101.9,79.6,101.7z"/>
		</g>
	</g>
	<g>
		<g>
			<path style="fill-rule:evenodd;clip-rule:evenodd;fill:#7E8386;" d="M79.35,125.3c0.667-0.033,1.051,0.316,1.15,1.05
				c0.1,0.7-0.283,0.983-1.15,0.851c-0.666-0.233-0.949-0.634-0.85-1.2S78.884,125.2,79.35,125.3z"/>
		</g>
	</g>
	<g>
		<g>
			<path style="fill-rule:evenodd;clip-rule:evenodd;fill:#7E8386;" d="M78.55,139.25c0.4-0.066,0.634,0.05,0.7,0.35
				c0.066,0.334-0.083,0.5-0.45,0.5c-0.333,0-0.517-0.133-0.55-0.399C78.217,139.467,78.316,139.316,78.55,139.25z"/>
		</g>
	</g>
	<g>
		<g>
			<path style="fill-rule:evenodd;clip-rule:evenodd;fill:#7E8386;" d="M79.25,148.85c0.033,0.367-0.167,0.483-0.6,0.351
				c-0.233-0.033-0.367-0.184-0.4-0.45c-0.033-0.3,0.1-0.45,0.4-0.45C79.05,148.3,79.25,148.483,79.25,148.85z"/>
		</g>
	</g>
	<g>
		<g>
			<path style="fill-rule:evenodd;clip-rule:evenodd;fill:#7E8386;" d="M83.95,187.25c0.333,0.167,0.434,0.384,0.3,0.65
				c-0.134,0.233-0.3,0.283-0.5,0.149c-0.3-0.2-0.384-0.399-0.25-0.6C83.6,187.283,83.75,187.217,83.95,187.25z"/>
		</g>
	</g>
	<g>
		<g>
			<path style="fill-rule:evenodd;clip-rule:evenodd;fill:#7E8386;" d="M91.15,209.7c0.199-0.033,0.316,0.033,0.35,0.2
				c0.033,0.166-0.033,0.25-0.2,0.25c-0.166,0-0.267-0.067-0.3-0.2C91,209.816,91.05,209.733,91.15,209.7z"/>
		</g>
	</g>
	<g>
		<g>
			<path style="fill-rule:evenodd;clip-rule:evenodd;fill:#7E8386;" d="M92.05,185c0.4-0.066,0.634,0.05,0.7,0.35
				c0.066,0.334-0.083,0.5-0.45,0.5c-0.333,0-0.517-0.133-0.55-0.399C91.717,185.217,91.816,185.066,92.05,185z"/>
		</g>
	</g>
	<g>
		<g>
			<path style="fill-rule:evenodd;clip-rule:evenodd;fill:#7E8386;" d="M88.15,168.95c0.199-0.033,0.316,0.033,0.35,0.2
				c0.033,0.166-0.033,0.25-0.2,0.25c-0.166,0-0.267-0.067-0.3-0.2C88,169.066,88.05,168.983,88.15,168.95z"/>
		</g>
	</g>
	<g>
		<g>
			<path style="fill-rule:evenodd;clip-rule:evenodd;fill:#7E8386;" d="M81.65,170c0.733-0.033,1.183,0.4,1.35,1.3
				c0.134,0.867-0.35,1.233-1.45,1.101c-1-0.434-1.366-0.967-1.1-1.601C80.717,170.167,81.116,169.9,81.65,170z"/>
		</g>
	</g>
	<g>
		<g>
			<path style="fill-rule:evenodd;clip-rule:evenodd;fill:#7E8386;" d="M76.95,31.15c1.1-0.433,1.767-0.217,2,0.65
				s-0.05,1.333-0.851,1.4c-0.733,0.167-1.25-0.05-1.55-0.65C76.25,31.917,76.384,31.45,76.95,31.15z"/>
		</g>
	</g>
	<g>
		<g>
			<path style="fill-rule:evenodd;clip-rule:evenodd;fill:#7E8386;" d="M80.8,29c-0.399,0.167-0.733,0.083-1-0.25
				c-0.267-0.367-0.233-0.667,0.101-0.9c0.733-0.333,1.166-0.25,1.3,0.25C81.366,28.633,81.233,28.933,80.8,29z"/>
		</g>
	</g>
	<g>
		<g>
			<path style="fill-rule:evenodd;clip-rule:evenodd;fill:#7E8386;" d="M75.45,27c0.333-0.233,0.684-0.183,1.05,0.15
				c0.333,0.3,0.217,0.583-0.35,0.85c-0.367,0.133-0.65,0.05-0.851-0.25C75.066,27.417,75.116,27.167,75.45,27z"/>
		</g>
	</g>
	<g>
		<g>
			<path style="fill-rule:evenodd;clip-rule:evenodd;fill:#7E8386;" d="M70.45,40.3c0.6-0.133,0.95,0.05,1.05,0.55
				s-0.116,0.75-0.65,0.75c-0.5,0-0.783-0.2-0.85-0.6S70.083,40.367,70.45,40.3z"/>
		</g>
	</g>
	<g>
		<g>
			<path style="fill-rule:evenodd;clip-rule:evenodd;fill:#7E8386;" d="M76.15,47.2c0.633-0.2,1.149,0.083,1.55,0.85
				c0.399,0.767,0.066,1.233-1,1.4c-1.066-0.1-1.55-0.5-1.45-1.2C75.316,47.617,75.616,47.267,76.15,47.2z"/>
		</g>
	</g>
	<g>
		<g>
			<path style="fill-rule:evenodd;clip-rule:evenodd;fill:#7E8386;" d="M71.25,76.2c-0.033,0.033,0.283,0.1,0.95,0.2
				c0.533,0.2,0.467,0.617-0.2,1.25c-0.9,0.033-1.316-0.183-1.25-0.65C70.783,76.633,70.95,76.367,71.25,76.2z"/>
		</g>
	</g>
	<g>
		<g>
			<path style="fill-rule:evenodd;clip-rule:evenodd;fill:#7E8386;" d="M71.75,83.7c0.233-0.1,0.483-0.05,0.75,0.15
				c0.267,0.233,0.167,0.483-0.3,0.75c-0.4,0.033-0.634-0.1-0.7-0.4C71.467,83.933,71.55,83.767,71.75,83.7z"/>
		</g>
	</g>
	<g>
		<g>
			<path style="fill-rule:evenodd;clip-rule:evenodd;fill:#7E8386;" d="M78.1,74.15c0.334-0.333,0.7-0.35,1.101-0.05
				c0.399,0.3,0.35,0.633-0.15,1c-0.434,0.233-0.767,0.183-1-0.15C77.816,74.65,77.833,74.383,78.1,74.15z"/>
		</g>
	</g>
	<g>
		<g>
			<path style="fill-rule:evenodd;clip-rule:evenodd;fill:#7E8386;" d="M79.85,79.65c0.467-0.033,0.767,0.2,0.9,0.7
				c0.1,0.5-0.15,0.75-0.75,0.75c-0.6-0.167-0.85-0.45-0.75-0.85C79.35,79.883,79.55,79.683,79.85,79.65z"/>
		</g>
	</g>
	<g>
		<g>
			<path style="fill-rule:evenodd;clip-rule:evenodd;fill:#7E8386;" d="M76,66.8c0.7-0.267,0.866-0.133,0.5,0.4
				c-0.167,0.133-0.316,0.133-0.45,0C75.884,67.067,75.866,66.933,76,66.8z"/>
		</g>
	</g>
	<g>
		<g>
			<path style="fill-rule:evenodd;clip-rule:evenodd;fill:#7E8386;" d="M71.8,68.7c0.667-0.133,1.066,0.083,1.2,0.65
				c0.134,0.566-0.116,0.85-0.75,0.85c-0.6,0-0.934-0.233-1-0.7S71.366,68.767,71.8,68.7z"/>
		</g>
	</g>
	<g>
		<g>
			<path style="fill-rule:evenodd;clip-rule:evenodd;fill:#7E8386;" d="M71.6,52.25c0.2,0,0.334,0.133,0.4,0.4
				c0.033,0.267-0.116,0.383-0.45,0.35c-0.333-0.167-0.45-0.35-0.35-0.55C71.333,52.283,71.467,52.217,71.6,52.25z"/>
		</g>
	</g>
	<g>
		<g>
			<path style="fill-rule:evenodd;clip-rule:evenodd;fill:#7E8386;" d="M77.95,10.85c0.6-0.867,1.1-1.033,1.5-0.5
				c0.434,0.6,0.416,0.933-0.05,1C78.3,11.95,77.816,11.783,77.95,10.85z"/>
		</g>
	</g>
	<g>
		<g>
			<path style="fill-rule:evenodd;clip-rule:evenodd;fill:#7E8386;" d="M82.25,19c0.4,0,0.65,0.2,0.75,0.6
				c0.1,0.433-0.116,0.633-0.65,0.6c-0.5-0.167-0.699-0.417-0.6-0.75C81.85,19.15,82.017,19,82.25,19z"/>
		</g>
	</g>
	<g>
		<g>
			<path style="fill-rule:evenodd;clip-rule:evenodd;fill:#7E8386;" d="M72.45,13.65c0.6,0.033,0.866,0.267,0.8,0.7
				c-0.066,0.433-0.283,0.583-0.65,0.45c-0.366-0.033-0.566-0.216-0.6-0.55S72.116,13.717,72.45,13.65z"/>
		</g>
	</g>
	<g>
		<g>
			<path style="fill-rule:evenodd;clip-rule:evenodd;fill:#54585B;" d="M30,32.85c0.967-0.2,1.533,0.117,1.7,0.95
				c0.2,0.833-0.15,1.25-1.05,1.25c-0.833,0-1.3-0.333-1.4-1C29.15,33.383,29.4,32.983,30,32.85z"/>
		</g>
	</g>
	<g>
		<g>
			<path style="fill-rule:evenodd;clip-rule:evenodd;fill:#54585B;" d="M30.1,14.1c0.733-0.1,1.2,0.217,1.4,0.95
				c0.167,0.767-0.183,1.133-1.05,1.1c-0.9-0.167-1.3-0.55-1.2-1.15C29.317,14.433,29.6,14.133,30.1,14.1z"/>
		</g>
	</g>
	<g>
		<g>
			<path style="fill-rule:evenodd;clip-rule:evenodd;fill:#54585B;" d="M62.65,37c0.6,0.267,0.816,0.867,0.649,1.8
				c-0.166,0.9-0.767,1.034-1.8,0.4c-0.733-0.8-0.833-1.45-0.3-1.95C61.667,36.75,62.15,36.667,62.65,37z"/>
		</g>
	</g>
	<g>
		<g>
			<path style="fill-rule:evenodd;clip-rule:evenodd;fill:#54585B;" d="M61.9,29.2c0.199-0.034,0.316,0.033,0.35,0.2
				c0.033,0.167-0.033,0.25-0.2,0.25c-0.166,0-0.267-0.066-0.3-0.2C61.75,29.317,61.8,29.233,61.9,29.2z"/>
		</g>
	</g>
	<g>
		<g>
			<path style="fill-rule:evenodd;clip-rule:evenodd;fill:#54585B;" d="M66.5,18.15c0.467-0.2,0.866-0.05,1.2,0.45
				c0.366,0.5,0.166,0.85-0.601,1.05c-0.666,0.033-1.033-0.183-1.1-0.65S66.1,18.25,66.5,18.15z"/>
		</g>
	</g>
	<g>
		<g>
			<path style="fill-rule:evenodd;clip-rule:evenodd;fill:#54585B;" d="M58.2,12.25c0.7-0.433,1.267-0.333,1.7,0.3
				c0.433,0.667,0.283,1.167-0.45,1.5c-1,0.267-1.55,0.1-1.65-0.5C57.667,12.983,57.8,12.55,58.2,12.25z"/>
		</g>
	</g>
	<g>
		<g>
			<path style="fill-rule:evenodd;clip-rule:evenodd;fill:#54585B;" d="M33.9,4.8c0.5-0.4,0.934-0.383,1.3,0.05
				c0.367,0.433,0.283,0.783-0.25,1.05c-0.5,0.267-0.883,0.217-1.15-0.15C33.533,5.35,33.567,5.033,33.9,4.8z"/>
		</g>
	</g>
	<g>
		<g>
			<path style="fill-rule:evenodd;clip-rule:evenodd;fill:#54585B;" d="M27.85,27.2c0.6-0.3,0.967-0.25,1.1,0.15
				c0.133,0.433,0.033,0.7-0.3,0.8c-0.367,0.2-0.667,0.15-0.9-0.15C27.55,27.667,27.583,27.4,27.85,27.2z"/>
		</g>
	</g>
	<g>
		<g>
			<path style="fill-rule:evenodd;clip-rule:evenodd;fill:#54585B;" d="M47.75,43.15c0.4-0.133,0.8,0.1,1.2,0.7
				c0.4,0.566,0.133,0.95-0.8,1.15c-0.833-0.1-1.217-0.433-1.15-1C47.067,43.5,47.317,43.217,47.75,43.15z"/>
		</g>
	</g>
	<g>
		<g>
			<path style="fill-rule:evenodd;clip-rule:evenodd;fill:#54585B;" d="M58.6,47.8c0.367,0.067,0.584,0.333,0.65,0.8
				s-0.2,0.617-0.8,0.45c-0.4-0.2-0.55-0.483-0.45-0.85C58.1,47.867,58.3,47.733,58.6,47.8z"/>
		</g>
	</g>
	<g>
		<g>
			<path style="fill-rule:evenodd;clip-rule:evenodd;fill:#54585B;" d="M30.7,47.15c0.233-0.867,0.716-1.2,1.45-1
				c0.733,0.167,0.917,0.617,0.55,1.35c-0.333,0.667-0.784,0.9-1.35,0.7C30.783,48.033,30.567,47.683,30.7,47.15z"/>
		</g>
	</g>
	<g>
		<g>
			<path style="fill-rule:evenodd;clip-rule:evenodd;fill:#54585B;" d="M39.45,48.65c0.9-0.4,1.566-0.183,2,0.65
				c0.4,0.833,0.117,1.383-0.85,1.65c-1.067,0.133-1.684-0.167-1.85-0.9C38.617,49.35,38.85,48.883,39.45,48.65z"/>
		</g>
	</g>
	<g>
		<g>
			<path style="fill-rule:evenodd;clip-rule:evenodd;fill:#54585B;" d="M37.85,64.55c0.433-0.5,0.95-0.566,1.55-0.2
				c0.6,0.4,0.6,0.883,0,1.45c-0.8,0.5-1.333,0.483-1.6-0.05C37.533,65.283,37.55,64.883,37.85,64.55z"/>
		</g>
	</g>
	<g>
		<g>
			<path style="fill-rule:evenodd;clip-rule:evenodd;fill:#54585B;" d="M30.2,58.35c0.3,0.033,0.483,0.217,0.55,0.55
				c0.067,0.333-0.117,0.483-0.55,0.45c-0.367-0.167-0.517-0.383-0.45-0.65C29.817,58.467,29.967,58.35,30.2,58.35z"/>
		</g>
	</g>
	<g>
		<g>
			<path style="fill-rule:evenodd;clip-rule:evenodd;fill:#54585B;" d="M61.6,54.4c0.5-0.333,1.034-0.183,1.601,0.45
				c0.533,0.566,0.316,1.05-0.65,1.45c-0.934,0.1-1.45-0.167-1.55-0.8C60.9,54.9,61.1,54.533,61.6,54.4z"/>
		</g>
	</g>
	<g>
		<g>
			<path style="fill-rule:evenodd;clip-rule:evenodd;fill:#54585B;" d="M64.25,67.5c0.366-0.267,0.684-0.217,0.95,0.15
				c0.3,0.333,0.233,0.617-0.2,0.85c-0.6,0.167-0.934,0.083-1-0.25S64.017,67.667,64.25,67.5z"/>
		</g>
	</g>
	<g>
		<g>
			<path style="fill-rule:evenodd;clip-rule:evenodd;fill:#54585B;" d="M52.65,58.65c0.233-0.367,0.5-0.45,0.8-0.25
				c0.3,0.2,0.316,0.434,0.05,0.7c-0.233,0.233-0.467,0.267-0.7,0.1C52.567,59.033,52.517,58.85,52.65,58.65z"/>
		</g>
	</g>
	<g>
		<g>
			<path style="fill-rule:evenodd;clip-rule:evenodd;fill:#54585B;" d="M54,65.75c0.767-0.5,1.483-0.4,2.15,0.3
				c0.7,0.733,0.5,1.367-0.6,1.9c-1,0.3-1.667,0.083-2-0.65C53.25,66.6,53.4,66.083,54,65.75z"/>
		</g>
	</g>
	<g>
		<g>
			<path style="fill-rule:evenodd;clip-rule:evenodd;fill:#54585B;" d="M63.9,84.1c0.933,0.033,1.383,0.433,1.35,1.2
				c-0.033,0.767-0.417,1.067-1.15,0.9C63.267,86.033,62.9,85.633,63,85C63.066,84.433,63.366,84.133,63.9,84.1z"/>
		</g>
	</g>
	<g>
		<g>
			<path style="fill-rule:evenodd;clip-rule:evenodd;fill:#54585B;" d="M61.65,97.6C62.05,98,62.1,98.35,61.8,98.65
				c-0.333,0.267-0.6,0.233-0.8-0.1c-0.233-0.267-0.25-0.55-0.05-0.85C61.15,97.433,61.384,97.4,61.65,97.6z"/>
		</g>
	</g>
	<g>
		<g>
			<path style="fill-rule:evenodd;clip-rule:evenodd;fill:#54585B;" d="M30.75,86.45c0.833-0.7,1.467-0.733,1.9-0.1
				c0.467,0.633,0.383,1.117-0.25,1.45c-0.633,0.434-1.167,0.417-1.6-0.05C30.4,87.283,30.383,86.85,30.75,86.45z"/>
		</g>
	</g>
	<g>
		<g>
			<path style="fill-rule:evenodd;clip-rule:evenodd;fill:#54585B;" d="M29.25,101.4c0.233-0.233,0.633-0.15,1.2,0.25
				c0.5,0.367,0.383,0.8-0.35,1.3c-0.967,0.066-1.417-0.167-1.35-0.7C28.783,101.817,28.95,101.533,29.25,101.4z"/>
		</g>
	</g>
	<g>
		<g>
			<path style="fill-rule:evenodd;clip-rule:evenodd;fill:#54585B;" d="M38.4,95.55c0.467-0.267,0.9-0.167,1.3,0.3
				c0.367,0.467,0.233,0.85-0.4,1.15c-0.767,0.167-1.183,0-1.25-0.5C37.95,96.033,38.067,95.717,38.4,95.55z"/>
		</g>
	</g>
	<g>
		<g>
			<path style="fill-rule:evenodd;clip-rule:evenodd;fill:#54585B;" d="M25.55,91.5c0.4-0.067,0.633,0.05,0.7,0.35
				c0.067,0.333-0.083,0.5-0.45,0.5c-0.333,0-0.517-0.133-0.55-0.4C25.217,91.717,25.317,91.567,25.55,91.5z"/>
		</g>
	</g>
	<g>
		<g>
			<path style="fill-rule:evenodd;clip-rule:evenodd;fill:#54585B;" d="M29.3,73.65c0.267-0.133,0.567,0.017,0.9,0.45
				c0.333,0.433,0.15,0.75-0.55,0.95c-0.7-0.133-1-0.4-0.9-0.8S29.033,73.65,29.3,73.65z"/>
		</g>
	</g>
	<g>
		<g>
			<path style="fill-rule:evenodd;clip-rule:evenodd;fill:#54585B;" d="M39,71.75c1.233,0.4,1.3,0.8,0.2,1.2
				c-0.567-0.133-0.8-0.367-0.7-0.7C38.567,71.917,38.733,71.75,39,71.75z"/>
		</g>
	</g>
	<g>
		<g>
			<path style="fill-rule:evenodd;clip-rule:evenodd;fill:#54585B;" d="M62.55,113.1c0.667-0.433,1.217-0.366,1.65,0.2
				c0.434,0.601,0.267,1.066-0.5,1.4c-0.667,0.233-1.134,0.083-1.4-0.45C62.033,113.75,62.116,113.366,62.55,113.1z"/>
		</g>
	</g>
	<g>
		<g>
			<path style="fill-rule:evenodd;clip-rule:evenodd;fill:#54585B;" d="M65.15,105.1c0.5-0.567,0.933-0.633,1.3-0.2
				c0.366,0.4,0.333,0.717-0.101,0.95c-0.333,0.333-0.683,0.367-1.05,0.1C64.967,105.683,64.917,105.4,65.15,105.1z"/>
		</g>
	</g>
	<g>
		<g>
			<path style="fill-rule:evenodd;clip-rule:evenodd;fill:#54585B;" d="M50.05,100.4c0.467-0.367,0.85-0.367,1.15,0
				c0.333,0.367,0.283,0.667-0.15,0.9c-0.433,0.267-0.767,0.25-1-0.05C49.817,100.917,49.817,100.633,50.05,100.4z"/>
		</g>
	</g>
	<g>
		<g>
			<path style="fill-rule:evenodd;clip-rule:evenodd;fill:#54585B;" d="M53.25,113.55c0.5-0.2,0.817-0.1,0.95,0.3
				c0.133,0.4,0.017,0.65-0.35,0.75c-0.5,0.101-0.783-0.017-0.85-0.35S53.017,113.684,53.25,113.55z"/>
		</g>
	</g>
	<g>
		<g>
			<path style="fill-rule:evenodd;clip-rule:evenodd;fill:#54585B;" d="M25.55,109.9c0.9-0.534,1.45-0.483,1.65,0.149
				c0.2,0.7,0.05,1.066-0.45,1.101c-0.367,0.233-0.767,0.183-1.2-0.15C25.117,110.634,25.117,110.267,25.55,109.9z"/>
		</g>
	</g>
	<g>
		<g>
			<path style="fill-rule:evenodd;clip-rule:evenodd;fill:#54585B;" d="M24.55,114.25c0.4-0.066,0.633,0.05,0.7,0.35
				c0.067,0.334-0.083,0.5-0.45,0.5c-0.333,0-0.517-0.133-0.55-0.399C24.217,114.467,24.317,114.316,24.55,114.25z"/>
		</g>
	</g>
	<g>
		<g>
			<path style="fill-rule:evenodd;clip-rule:evenodd;fill:#54585B;" d="M34.5,115c0.4,0,0.65,0.2,0.75,0.6
				c0.1,0.434-0.117,0.634-0.65,0.601c-0.5-0.167-0.7-0.417-0.6-0.75C34.1,115.15,34.267,115,34.5,115z"/>
		</g>
	</g>
	<g>
		<g>
			<path style="fill-rule:evenodd;clip-rule:evenodd;fill:#54585B;" d="M65.35,125.65c0.334-0.334,0.7-0.351,1.101-0.051
				c0.399,0.301,0.35,0.634-0.15,1c-0.434,0.233-0.767,0.184-1-0.149C65.066,126.15,65.083,125.884,65.35,125.65z"/>
		</g>
	</g>
	<g>
		<g>
			<path style="fill-rule:evenodd;clip-rule:evenodd;fill:#54585B;" d="M53.15,125.85c0.967-0.466,1.65-0.316,2.05,0.45
				c0.4,0.8,0.167,1.316-0.7,1.55c-0.8,0.233-1.367,0.034-1.7-0.6C52.467,126.65,52.583,126.184,53.15,125.85z"/>
		</g>
	</g>
	<g>
		<g>
			<path style="fill-rule:evenodd;clip-rule:evenodd;fill:#54585B;" d="M67.65,154.75c0.366,0.066,0.566,0.434,0.6,1.1
				c0.066,0.634-0.35,0.784-1.25,0.45c-0.5-0.467-0.6-0.899-0.3-1.3C67,154.566,67.316,154.483,67.65,154.75z"/>
		</g>
	</g>
	<g>
		<g>
			<path style="fill-rule:evenodd;clip-rule:evenodd;fill:#54585B;" d="M70.3,149.75c0.367-0.2,0.601-0.15,0.7,0.15
				c0.1,0.3,0.017,0.433-0.25,0.399c-0.134,0.101-0.283,0.066-0.45-0.1C70.1,150.066,70.1,149.917,70.3,149.75z"/>
		</g>
	</g>
	<g>
		<g>
			<path style="fill-rule:evenodd;clip-rule:evenodd;fill:#54585B;" d="M25.7,126c0.4-0.4,0.733-0.434,1-0.1
				c0.267,0.3,0.233,0.55-0.1,0.75c-0.267,0.233-0.533,0.25-0.8,0.05C25.533,126.5,25.5,126.267,25.7,126z"/>
		</g>
	</g>
	<g>
		<g>
			<path style="fill-rule:evenodd;clip-rule:evenodd;fill:#54585B;" d="M37.45,121.15c0.9-0.4,1.566-0.184,2,0.649
				c0.433,0.867,0.133,1.417-0.9,1.65c-1.066,0.133-1.667-0.167-1.8-0.9C36.65,121.816,36.883,121.35,37.45,121.15z"/>
		</g>
	</g>
	<g>
		<g>
			<path style="fill-rule:evenodd;clip-rule:evenodd;fill:#54585B;" d="M17,128.6c0.7-0.566,1.267-0.583,1.7-0.05
				c0.433,0.566,0.316,1-0.35,1.3c-0.434,0.267-0.867,0.233-1.3-0.1C16.617,129.384,16.6,129,17,128.6z"/>
		</g>
	</g>
	<g>
		<g>
			<path style="fill-rule:evenodd;clip-rule:evenodd;fill:#54585B;" d="M18,120.4c0.467-0.434,0.867-0.45,1.2-0.051
				c0.333,0.4,0.25,0.7-0.25,0.9c-0.3,0.233-0.6,0.217-0.9-0.05C17.717,120.967,17.7,120.7,18,120.4z"/>
		</g>
	</g>
	<g>
		<g>
			<path style="fill-rule:evenodd;clip-rule:evenodd;fill:#54585B;" d="M15.45,135.95c1.3-0.667,2.2-0.483,2.7,0.55
				c0.533,1.066,0.217,1.733-0.95,2c-0.9,0.3-1.617,0.066-2.15-0.7C14.55,137.033,14.683,136.417,15.45,135.95z"/>
		</g>
	</g>
	<g>
		<g>
			<path style="fill-rule:evenodd;clip-rule:evenodd;fill:#54585B;" d="M39.15,136.95c0.2-0.033,0.317,0.033,0.35,0.2
				c0.033,0.166-0.033,0.25-0.2,0.25c-0.167,0-0.267-0.067-0.3-0.2C39,137.066,39.05,136.983,39.15,136.95z"/>
		</g>
	</g>
	<g>
		<g>
			<path style="fill-rule:evenodd;clip-rule:evenodd;fill:#54585B;" d="M33.55,137.5c0.4-0.066,0.633,0.05,0.7,0.35
				c0.067,0.334-0.083,0.5-0.45,0.5c-0.333,0-0.517-0.133-0.55-0.399C33.217,137.717,33.317,137.566,33.55,137.5z"/>
		</g>
	</g>
	<g>
		<g>
			<path style="fill-rule:evenodd;clip-rule:evenodd;fill:#54585B;" d="M59.3,139.15c0.533,0,0.851,0.316,0.95,0.949
				c0.1,0.601-0.233,0.834-1,0.7c-0.667-0.233-0.917-0.583-0.75-1.05C58.634,139.283,58.9,139.083,59.3,139.15z"/>
		</g>
	</g>
	<g>
		<g>
			<path style="fill-rule:evenodd;clip-rule:evenodd;fill:#54585B;" d="M57.6,153.9c1.2-0.134,1.917,0.399,2.15,1.6
				c0.233,1.167-0.35,1.7-1.75,1.6c-1.267-0.233-1.85-0.833-1.75-1.8C56.317,154.366,56.767,153.9,57.6,153.9z"/>
		</g>
	</g>
	<g>
		<g>
			<path style="fill-rule:evenodd;clip-rule:evenodd;fill:#54585B;" d="M47.05,151.85c0.567-0.033,0.883,0.217,0.95,0.75
				c0.067,0.534-0.2,0.75-0.8,0.65c-0.4-0.066-0.633-0.316-0.7-0.75S46.617,151.85,47.05,151.85z"/>
		</g>
	</g>
	<g>
		<g>
			<path style="fill-rule:evenodd;clip-rule:evenodd;fill:#54585B;" d="M33.5,148.6c0.267-0.033,0.433,0.067,0.5,0.301
				c0.033,0.233-0.083,0.35-0.35,0.35c-0.233,0-0.367-0.1-0.4-0.3S33.3,148.634,33.5,148.6z"/>
		</g>
	</g>
	<g>
		<g>
			<path style="fill-rule:evenodd;clip-rule:evenodd;fill:#54585B;" d="M18.85,151.9c0.5-0.2,0.8-0.117,0.9,0.25
				c0.1,0.366-0.033,0.533-0.4,0.5c-0.133,0.066-0.317,0-0.55-0.2C18.533,152.25,18.55,152.066,18.85,151.9z"/>
		</g>
	</g>
	<g>
		<g>
			<path style="fill-rule:evenodd;clip-rule:evenodd;fill:#54585B;" d="M27.6,153.25c0.667-0.033,1.05,0.25,1.15,0.85
				c0.1,0.601-0.217,0.834-0.95,0.7c-0.466-0.033-0.733-0.3-0.8-0.8C26.933,153.533,27.133,153.283,27.6,153.25z"/>
		</g>
	</g>
	<g>
		<g>
			<path style="fill-rule:evenodd;clip-rule:evenodd;fill:#54585B;" d="M22.7,149.45c0.4-0.334,0.65-0.351,0.75-0.05
				c0.133,0.3,0.1,0.466-0.1,0.5c-0.167,0.166-0.35,0.183-0.55,0.05C22.567,149.783,22.533,149.616,22.7,149.45z"/>
		</g>
	</g>
	<g>
		<g>
			<path style="fill-rule:evenodd;clip-rule:evenodd;fill:#54585B;" d="M12,162.65c0.233-0.167,0.4-0.167,0.5,0
				c0.067,0.199,0.017,0.316-0.15,0.35c-0.1,0.066-0.217,0.05-0.35-0.05C11.9,162.85,11.9,162.75,12,162.65z"/>
		</g>
	</g>
	<g>
		<g>
			<path style="fill-rule:evenodd;clip-rule:evenodd;fill:#54585B;" d="M17,157.15c0-0.2,0.233-0.2,0.7,0
				c0.4,0.133,0.367,0.399-0.1,0.8c-0.5,0.166-0.783,0.1-0.85-0.2C16.683,157.417,16.767,157.217,17,157.15z"/>
		</g>
	</g>
	<g>
		<g>
			<path style="fill-rule:evenodd;clip-rule:evenodd;fill:#54585B;" d="M30.3,159.45c1.1-0.267,1.733,0.017,1.9,0.85
				c0.2,0.834-0.133,1.25-1,1.25c-0.633,0.101-1.1-0.166-1.4-0.8C29.5,160.116,29.667,159.684,30.3,159.45z"/>
		</g>
	</g>
	<g>
		<g>
			<path style="fill-rule:evenodd;clip-rule:evenodd;fill:#54585B;" d="M56.55,174.1c1.4-0.5,2.351-0.116,2.851,1.15
				c0.533,1.233,0.066,1.983-1.4,2.25c-1.467,0.134-2.283-0.333-2.45-1.4C55.35,175.033,55.683,174.366,56.55,174.1z"/>
		</g>
	</g>
	<g>
		<g>
			<path style="fill-rule:evenodd;clip-rule:evenodd;fill:#54585B;" d="M68.95,167.3c0.733,0.134,0.85,0.351,0.35,0.65
				c-0.333,0.066-0.517-0.017-0.55-0.25C68.717,167.5,68.783,167.366,68.95,167.3z"/>
		</g>
	</g>
	<g>
		<g>
			<path style="fill-rule:evenodd;clip-rule:evenodd;fill:#54585B;" d="M71.95,186.1c1.233,0.034,1.833,0.584,1.8,1.65
				c0,1.066-0.55,1.467-1.65,1.2c-1-0.267-1.449-0.816-1.35-1.65C70.816,186.467,71.217,186.066,71.95,186.1z"/>
		</g>
	</g>
	<g>
		<g>
			<path style="fill-rule:evenodd;clip-rule:evenodd;fill:#54585B;" d="M75.8,204.75c0.4,0,0.634,0.2,0.7,0.6
				c0.1,0.434-0.116,0.634-0.65,0.601c-0.5-0.167-0.699-0.417-0.6-0.75C75.316,204.9,75.5,204.75,75.8,204.75z"/>
		</g>
	</g>
	<g>
		<g>
			<path style="fill-rule:evenodd;clip-rule:evenodd;fill:#54585B;" d="M61.8,186.45c0.667-0.134,1.066,0.083,1.2,0.649
				c0.134,0.567-0.116,0.851-0.75,0.851c-0.6,0-0.934-0.233-1-0.7S61.366,186.517,61.8,186.45z"/>
		</g>
	</g>
	<g>
		<g>
			<path style="fill-rule:evenodd;clip-rule:evenodd;fill:#54585B;" d="M35.45,174.3c0.566-0.233,0.917-0.133,1.05,0.3
				c0.1,0.434-0.05,0.667-0.45,0.7c-0.3,0.066-0.55-0.05-0.75-0.35C35.1,174.65,35.15,174.434,35.45,174.3z"/>
		</g>
	</g>
	<g>
		<g>
			<path style="fill-rule:evenodd;clip-rule:evenodd;fill:#54585B;" d="M43.55,177.55c0.567-0.166,1.034,0.084,1.4,0.75
				c0.367,0.7,0.066,1.134-0.9,1.3c-0.966-0.1-1.4-0.466-1.3-1.1C42.817,177.934,43.083,177.616,43.55,177.55z"/>
		</g>
	</g>
	<g>
		<g>
			<path style="fill-rule:evenodd;clip-rule:evenodd;fill:#54585B;" d="M24.35,169.6c0.3-0.166,0.583-0.083,0.85,0.25
				c0.267,0.334,0.15,0.601-0.35,0.801c-0.5,0.066-0.783-0.067-0.85-0.4C23.967,169.917,24.083,169.7,24.35,169.6z"/>
		</g>
	</g>
	<g>
		<g>
			<path style="fill-rule:evenodd;clip-rule:evenodd;fill:#54585B;" d="M8,191.75c0.8-0.5,1.517-0.316,2.15,0.55
				c0.633,0.834,0.367,1.483-0.8,1.95c-1.233,0.2-1.917-0.116-2.05-0.95C7.167,192.5,7.4,191.983,8,191.75z"/>
		</g>
	</g>
	<g>
		<g>
			<path style="fill-rule:evenodd;clip-rule:evenodd;fill:#54585B;" d="M6.7,178.55c0.733,0.134,0.85,0.351,0.35,0.65
				c-0.333,0.066-0.517-0.017-0.55-0.25C6.467,178.75,6.533,178.616,6.7,178.55z"/>
		</g>
	</g>
	<g>
		<g>
			<path style="fill-rule:evenodd;clip-rule:evenodd;fill:#54585B;" d="M4.1,184.35c0.267-0.233,0.55-0.216,0.85,0.051
				c0.3,0.233,0.233,0.483-0.2,0.75c-0.3,0.133-0.55,0.066-0.75-0.2C3.833,184.717,3.867,184.517,4.1,184.35z"/>
		</g>
	</g>
	<g>
		<g>
			<path style="fill-rule:evenodd;clip-rule:evenodd;fill:#54585B;" d="M9.15,168.55c1-0.8,1.833-0.8,2.5,0
				c0.667,0.834,0.517,1.5-0.45,2c-0.833,0.467-1.534,0.384-2.1-0.25C8.533,169.667,8.55,169.083,9.15,168.55z"/>
		</g>
	</g>
	<g>
		<g>
			<path style="fill-rule:evenodd;clip-rule:evenodd;fill:#54585B;" d="M13.8,184.65c0.267-0.134,0.567,0.017,0.9,0.449
				c0.333,0.434,0.15,0.75-0.55,0.95c-0.7-0.133-1-0.399-0.9-0.8S13.533,184.65,13.8,184.65z"/>
		</g>
	</g>
	<g>
		<g>
			<path style="fill-rule:evenodd;clip-rule:evenodd;fill:#54585B;" d="M16.1,174.85c0.267-0.233,0.55-0.216,0.85,0.051
				c0.3,0.233,0.233,0.483-0.2,0.75c-0.3,0.133-0.55,0.066-0.75-0.2C15.833,175.217,15.867,175.017,16.1,174.85z"/>
		</g>
	</g>
	<g>
		<g>
			<path style="fill-rule:evenodd;clip-rule:evenodd;fill:#54585B;" d="M29.15,180.15c0.467-0.101,0.75,0.066,0.85,0.5
				c0.1,0.399-0.083,0.6-0.55,0.6c-0.4,0-0.617-0.167-0.65-0.5C28.733,180.417,28.85,180.217,29.15,180.15z"/>
		</g>
	</g>
	<g>
		<g>
			<path style="fill-rule:evenodd;clip-rule:evenodd;fill:#54585B;" d="M59.2,201.3c0.6-0.133,0.95,0.05,1.05,0.55
				s-0.116,0.75-0.65,0.75c-0.5,0-0.783-0.199-0.85-0.6S58.833,201.366,59.2,201.3z"/>
		</g>
	</g>
	<g>
		<g>
			<path style="fill-rule:evenodd;clip-rule:evenodd;fill:#54585B;" d="M64.25,209.65c0.233-0.167,0.4-0.167,0.5,0
				c0.066,0.199,0.017,0.316-0.15,0.35c-0.1,0.066-0.216,0.05-0.35-0.05C64.15,209.85,64.15,209.75,64.25,209.65z"/>
		</g>
	</g>
	<g>
		<g>
			<path style="fill-rule:evenodd;clip-rule:evenodd;fill:#54585B;" d="M51.2,203.2c0.5,0,0.767,0.217,0.8,0.649
				c0.067,0.467-0.167,0.634-0.7,0.5c-0.3-0.066-0.483-0.267-0.55-0.6C50.717,203.384,50.867,203.2,51.2,203.2z"/>
		</g>
	</g>
	<g>
		<g>
			<path style="fill-rule:evenodd;clip-rule:evenodd;fill:#54585B;" d="M39.4,202.65c0.467-0.101,0.75,0.066,0.85,0.5
				c0.1,0.399-0.083,0.6-0.55,0.6c-0.4,0-0.617-0.167-0.65-0.5C38.983,202.917,39.1,202.717,39.4,202.65z"/>
		</g>
	</g>
	<g>
		<g>
			<path style="fill-rule:evenodd;clip-rule:evenodd;fill:#54585B;" d="M23.45,194.5c0.833-0.134,1.333,0.217,1.5,1.05
				c0.2,0.834-0.167,1.233-1.1,1.2c-1-0.134-1.45-0.533-1.35-1.2C22.6,194.884,22.917,194.533,23.45,194.5z"/>
		</g>
	</g>
	<g>
		<g>
			<path style="fill-rule:evenodd;clip-rule:evenodd;fill:#54585B;" d="M17.75,200.6c0.267-0.033,0.433,0.067,0.5,0.301
				c0.033,0.233-0.083,0.35-0.35,0.35c-0.233,0-0.367-0.1-0.4-0.3S17.55,200.634,17.75,200.6z"/>
		</g>
	</g>
	<g>
		<g>
			<path style="fill-rule:evenodd;clip-rule:evenodd;fill:#54585B;" d="M37.75,185.25c0.633,0.167,0.883,0.533,0.75,1.1
				c-0.133,0.567-0.467,0.7-1,0.4c-0.5-0.233-0.683-0.566-0.55-1C37.117,185.316,37.383,185.15,37.75,185.25z"/>
		</g>
	</g>
	<g>
		<g>
			<path style="fill-rule:evenodd;clip-rule:evenodd;fill:#54585B;" d="M49.5,189.25c0.4,0,0.65,0.2,0.75,0.6
				c0.1,0.434-0.117,0.634-0.65,0.601c-0.5-0.167-0.7-0.417-0.6-0.75C49.1,189.4,49.267,189.25,49.5,189.25z"/>
		</g>
	</g>
	<g>
		<g>
			<path style="fill-rule:evenodd;clip-rule:evenodd;fill:#54585B;" d="M42.25,192.3c0.867-0.1,1.367,0.233,1.5,1
				s-0.25,1.101-1.15,1c-0.633-0.066-1-0.416-1.1-1.05C41.4,192.65,41.65,192.333,42.25,192.3z"/>
		</g>
	</g>
	<g>
		<g>
			<path style="fill-rule:evenodd;clip-rule:evenodd;fill:#54585B;" d="M32.5,197.6c0.267-0.033,0.433,0.067,0.5,0.301
				c0.033,0.233-0.083,0.35-0.35,0.35c-0.233,0-0.367-0.1-0.4-0.3S32.3,197.634,32.5,197.6z"/>
		</g>
	</g>
	<g>
		<g>
			<path style="fill-rule:evenodd;clip-rule:evenodd;fill:#54585B;" d="M50.45,171.95c0.4-0.334,0.65-0.351,0.75-0.05
				c0.133,0.3,0.1,0.466-0.1,0.5c-0.167,0.166-0.35,0.183-0.55,0.05C50.317,172.283,50.283,172.116,50.45,171.95z"/>
		</g>
	</g>
</g>
</svg>
