<?xml version="1.0" encoding="iso-8859-1"?>
<!-- Generator: Adobe Illustrator 15.1.0, SVG Export Plug-In . SVG Version: 6.00 Build 0)  -->
<!DOCTYPE svg PUBLIC "-//W3C//DTD SVG 1.1//EN" "http://www.w3.org/Graphics/SVG/1.1/DTD/svg11.dtd">
<svg version="1.1" id="buildings_1" xmlns="http://www.w3.org/2000/svg" xmlns:xlink="http://www.w3.org/1999/xlink" x="0px"
	 y="0px" width="99.5px" height="215px" viewBox="0 0 99.5 215" style="enable-background:new 0 0 99.5 215;" xml:space="preserve">
<g>
	<g>
		<polygon style="fill-rule:evenodd;clip-rule:evenodd;fill:#878F92;" points="46,30 42,26 49.5,4 60,7.5 54.5,168 15.5,215 0,208 
			21.5,152.5 33,145.5 29.5,142 31.5,123.5 35.5,116.5 34,113 42,87 34.5,60 		"/>
		
			<linearGradient id="SVGID_1_" gradientUnits="userSpaceOnUse" x1="-17.6997" y1="-116.2505" x2="119.3638" y2="-116.2505" gradientTransform="matrix(-0.4182 0.9083 -0.9083 -0.4182 5.970895e-004 -1.214743e-004)">
			<stop  offset="0" style="stop-color:#C8CDCE"/>
			<stop  offset="1" style="stop-color:#9DA6A9"/>
		</linearGradient>
		<polygon style="fill-rule:evenodd;clip-rule:evenodd;fill:url(#SVGID_1_);" points="80.5,57.5 76.9,65.35 76.5,114.5 82,116.5 
			99.5,202 15.5,215 34.5,156 44,152 41,145 50.5,86 48,54 60,7.5 83,1 		"/>
		<polygon style="fill-rule:evenodd;clip-rule:evenodd;fill:#CDD1D2;" points="49.5,4 70,0 83,1 60,7.5 		"/>
		<polygon style="fill-rule:evenodd;clip-rule:evenodd;fill:#696F71;" points="42,26 53,27.5 46,30 		"/>
		<polygon style="fill-rule:evenodd;clip-rule:evenodd;fill:#696F71;" points="34,113 42.5,115.25 35.5,116.5 		"/>
		<polygon style="fill-rule:evenodd;clip-rule:evenodd;fill:#696F71;" points="29.5,142 41,145 44,152 33,145.5 		"/>
		<polygon style="fill-rule:evenodd;clip-rule:evenodd;fill:#939A9D;" points="80.5,57.5 76.9,65.35 71.75,61.5 65.75,62.5 
			54.25,68.75 66.25,60.25 		"/>
		<polygon style="fill-rule:evenodd;clip-rule:evenodd;fill:#CDD1D2;" points="76.5,114.5 82,116.5 63.5,120.25 52.5,124.25 
			61.25,118.5 		"/>
		<polygon style="fill-rule:evenodd;clip-rule:evenodd;fill:#939A9D;" points="21.5,152.5 33,145.5 44,152 34.5,156 		"/>
		<polygon style="fill-rule:evenodd;clip-rule:evenodd;fill:#939A9D;" points="31.5,123.5 35.5,116.5 42.5,115.25 		"/>
		<polygon style="fill-rule:evenodd;clip-rule:evenodd;fill:#696F71;" points="34.5,60 47,54.5 35.75,64.25 		"/>
		<polygon style="fill-rule:evenodd;clip-rule:evenodd;fill:#696F71;" points="22,153.75 33,156.75 14.5,212.75 23,179.75 
			19.75,178.75 27.25,164.75 24,158 18,163.75 		"/>
		<polygon style="fill-rule:evenodd;clip-rule:evenodd;fill:#696F71;" points="14.75,192.25 10.25,211.25 3.5,208.25 12,190.5 		"/>
		<polygon style="fill-rule:evenodd;clip-rule:evenodd;fill:#696F71;" points="31.75,140 34.5,123.75 42.75,118.5 36.75,125 		"/>
		<polygon style="fill-rule:evenodd;clip-rule:evenodd;fill:#696F71;" points="46.5,60 48,69.75 46,64 41.75,66.25 46.25,87.5 
			39,105 44.5,87 38.75,66 		"/>
		<polygon style="fill-rule:evenodd;clip-rule:evenodd;fill:#696F71;" points="53,22.25 53,10.5 50.5,7 55.5,9 		"/>
		<polygon style="fill-rule:evenodd;clip-rule:evenodd;fill:#696F71;" points="48.75,35.75 47.25,34 50.75,33.5 46.25,49.75 		"/>
		<polygon style="fill-rule:evenodd;clip-rule:evenodd;fill:#939A9D;" points="33,196.5 25.5,211.5 19,212.75 35.75,157 47,152.75 
			85,153.25 47.5,155 38.75,158.75 41,180.5 35.5,179.75 35.5,171.75 29.5,194.25 		"/>
		<path style="fill-rule:evenodd;clip-rule:evenodd;fill:#939A9D;" d="M71,177.75l3.3,1.2c2.434,0.733,4.334,1,5.7,0.8
			s2.684-0.967,3.95-2.3l1.55-1.95l-1,5L72.25,182L71,177.75z"/>
		<polygon style="fill-rule:evenodd;clip-rule:evenodd;fill:#939A9D;" points="61,91.75 59.5,99.75 56.75,99 53.5,114.5 54.75,80 
			62.75,73.5 70.25,72.25 63.5,75 57.25,81.5 		"/>
		<path style="fill-rule:evenodd;clip-rule:evenodd;fill:#939A9D;" d="M63.25,17.25l0.55,1.4c0.7,0.833,1.934,1.033,3.7,0.6
			c1.767-0.4,3.167-1.15,4.2-2.25c0.479-0.48,0.805-0.93,0.975-1.35L71.25,19.5L62.5,21L63.25,17.25z"/>
		<path style="fill-rule:evenodd;clip-rule:evenodd;fill:#939A9D;" d="M67.75,105.75l1.05,0.8c0.934,0.5,1.917,0.65,2.95,0.45
			s2.134-1.467,3.3-3.8l1.45-3.45l-2,8l-6.25,1L67.75,105.75z"/>
		<path style="fill-rule:evenodd;clip-rule:evenodd;fill:#939A9D;" d="M49.5,144.5l1.9,1.35c1.566,0.867,3.183,1.25,4.85,1.15
			s3.3-0.5,4.9-1.2c0.767-0.366,1.383-0.717,1.85-1.05L61.75,148l-12.25-0.25V144.5z"/>
		<polygon style="fill-rule:evenodd;clip-rule:evenodd;fill:#CDD1D2;" points="65,7.75 81.5,2 80,36.75 78,50 79.5,19.5 76.5,20.75 
			77.5,11.25 78.5,9.25 78.75,6 		"/>
		<polygon style="fill-rule:evenodd;clip-rule:evenodd;fill:#CDD1D2;" points="71,64.75 76.25,67.75 74,99.25 74,69.75 		"/>
		<polygon style="fill-rule:evenodd;clip-rule:evenodd;fill:#CDD1D2;" points="78.75,122.75 68.5,121.5 79.75,119.75 88.5,158 		"/>
		<polygon style="fill-rule:evenodd;clip-rule:evenodd;fill:#696F71;" points="57.15,48.25 55.9,48.55 63.65,42.05 57.7,40.9 
			58.65,40.75 63.8,40.6 57.65,34 58.4,33.85 64.25,37.8 65.4,28.1 66.4,28 65.7,36.65 72.45,33.55 74,33.5 66.55,38.25 67.8,40.75 
			73,47.5 71.75,47.1 67.7,43.25 66.9,54.25 66,53.9 64.65,43.3 		"/>
		<polygon style="fill-rule:evenodd;clip-rule:evenodd;fill:#CDD1D2;" points="66.4,28 66.75,37.35 74,33.5 68.15,38.75 75.9,39.85 
			68.75,40.35 73,47.5 68.15,42.35 66.9,54.25 65.75,43.1 57.15,48.25 64.75,41.85 58.65,40.75 64.65,40.25 58.4,33.85 65.15,37.6 
					"/>
		<path style="fill-rule:evenodd;clip-rule:evenodd;fill:#696F71;" d="M63.7,133.25l0.7,3.25c0.333,2.167,0.116,3.283-0.65,3.35
			c-0.9,0.101-1.816-0.066-2.75-0.5c-0.934-0.433-1.483-0.966-1.65-1.6c-0.199-0.667-0.25-1.25-0.149-1.75
			c0.133-0.566,0.483-1.15,1.05-1.75c0.533-0.533,1.267-0.866,2.2-1C62.917,133.217,63.333,133.217,63.7,133.25z"/>
		<path style="fill-rule:evenodd;clip-rule:evenodd;fill:#696F71;" d="M51.45,140.85L73,142.1c-0.2,0.134-0.35,0.2-0.45,0.2
			l-24.2,0.65L51.45,140.85z"/>
		<polygon style="fill-rule:evenodd;clip-rule:evenodd;fill:#CDD1D2;" points="54,140.85 70.9,141 73,142.1 50.9,142.6 		"/>
		<polygon style="fill-rule:evenodd;clip-rule:evenodd;fill:#696F71;" points="46.7,171 48.2,171 42.7,204.15 40.7,204.5 		"/>
		<polygon style="fill-rule:evenodd;clip-rule:evenodd;fill:#696F71;" points="47.1,190.8 48,190.65 51.7,207 50.25,206.5 		"/>
		<polygon style="fill-rule:evenodd;clip-rule:evenodd;fill:#696F71;" points="57.25,162.65 59.35,162.5 51.95,199.55 50.35,198.8 
					"/>
		<polygon style="fill-rule:evenodd;clip-rule:evenodd;fill:#696F71;" points="58.6,174 59.85,173.65 68.7,203.15 66.6,202.65 		"/>
		<polygon style="fill-rule:evenodd;clip-rule:evenodd;fill:#696F71;" points="67.2,197.65 70.95,186.25 72.5,186.15 68.95,199.3 		
			"/>
		<polygon style="fill-rule:evenodd;clip-rule:evenodd;fill:#696F71;" points="72.35,194.4 73.5,194 78.2,203.65 76.6,203.15 		"/>
		<path style="fill-rule:evenodd;clip-rule:evenodd;fill:#696F71;" d="M83.95,185.55L86,185.3c-5.1,8.733-7.733,13.101-7.9,13.101
			c-0.166,0-0.466-0.534-0.899-1.601L83.95,185.55z"/>
		<polygon style="fill-rule:evenodd;clip-rule:evenodd;fill:#696F71;" points="83.75,193.15 85.2,192 91.85,200.65 89.95,200 		"/>
		<polygon style="fill-rule:evenodd;clip-rule:evenodd;fill:#CDD1D2;" points="78.5,197.3 86,185.3 91.85,200.65 85.2,192 
			78.2,203.65 73.5,194 68.7,203.15 59.85,173.65 51.7,207 48,190.65 42.7,204.15 48.2,171 51.5,198.5 59.35,162.5 68.5,198 
			72.5,186.15 		"/>
		<path style="fill-rule:evenodd;clip-rule:evenodd;fill:#696F71;" d="M76.9,162.85l1.55,5.551c0.833,3.733,0.833,5.699,0,5.899
			c-1.2,0.267-2.533,0.184-4-0.25c-1.733-0.5-2.867-1.316-3.4-2.45c-0.566-1.333-0.649-2.833-0.25-4.5
			c0.367-1.666,1.033-2.75,2-3.25c0.8-0.399,1.733-0.683,2.8-0.85C76.1,162.9,76.533,162.85,76.9,162.85z"/>
		<path style="fill-rule:evenodd;clip-rule:evenodd;fill:#CDD1D2;" d="M77.75,174.35c-3.9,0-5.783-1.899-5.65-5.699
			c0.067-1.5,0.534-2.817,1.4-3.95c0.9-1.2,2.033-1.816,3.4-1.851c1.666-0.033,3.05,0.551,4.149,1.75
			c0.967,1.067,1.5,2.384,1.601,3.95c0.133,1.566-0.2,2.9-1,4C80.75,173.75,79.45,174.35,77.75,174.35z"/>
		<polygon style="fill-rule:evenodd;clip-rule:evenodd;fill:#696F71;" points="72.25,126.1 66.9,134.1 65.95,133.9 64.45,132.5 
			71.25,126 		"/>
		<polygon style="fill-rule:evenodd;clip-rule:evenodd;fill:#696F71;" points="67.4,136.1 67.4,137.85 66.4,137.65 66.55,136.05 		
			"/>
		<polygon style="fill-rule:evenodd;clip-rule:evenodd;fill:#CDD1D2;" points="65.65,132.5 72.25,126.1 66.9,134.1 		"/>
		<polygon style="fill-rule:evenodd;clip-rule:evenodd;fill:#696F71;" points="48.9,128.75 58.15,135.1 56.2,134.85 47.7,128.8 		
			"/>
		<polygon style="fill-rule:evenodd;clip-rule:evenodd;fill:#696F71;" points="61.15,123.35 61.65,132.25 60.5,132 60.45,123.45 		
			"/>
		<polygon style="fill-rule:evenodd;clip-rule:evenodd;fill:#696F71;" points="49.65,136.6 58.4,138.1 56.15,138.1 48.85,136.65 		
			"/>
		<polygon style="fill-rule:evenodd;clip-rule:evenodd;fill:#CDD1D2;" points="58.15,135.1 48.9,128.75 59.25,133.75 		"/>
		<polygon style="fill-rule:evenodd;clip-rule:evenodd;fill:#CDD1D2;" points="61.65,132.25 61.15,123.35 63.75,132 		"/>
		<polygon style="fill-rule:evenodd;clip-rule:evenodd;fill:#CDD1D2;" points="67.4,136.1 76.9,135.75 67.4,137.85 		"/>
		<polygon style="fill-rule:evenodd;clip-rule:evenodd;fill:#CDD1D2;" points="57.75,136.85 58.4,138.1 49.65,136.6 		"/>
		<path style="fill-rule:evenodd;clip-rule:evenodd;fill:#CDD1D2;" d="M63.25,133.25c2.233-0.2,3.384,0.85,3.45,3.15
			c0.066,2.267-0.75,3.416-2.45,3.449c-2.767,0.067-4.083-0.983-3.95-3.149C60.4,134.533,61.384,133.384,63.25,133.25z"/>
	</g>
	<g>
		<g>
			<path style="fill-rule:evenodd;clip-rule:evenodd;fill:#54585B;" d="M68.9,95.95c0.6-0.534,1.116-0.55,1.55-0.05
				s0.366,0.917-0.2,1.25c-0.6,0.333-1.05,0.3-1.35-0.1C68.566,96.65,68.566,96.283,68.9,95.95z"/>
		</g>
	</g>
	<g>
		<g>
			<path style="fill-rule:evenodd;clip-rule:evenodd;fill:#54585B;" d="M63.8,81.95c1-1.034,1.75-1.184,2.25-0.45
				c0.566,0.8,0.517,1.35-0.149,1.65c-0.4,0.367-0.934,0.434-1.601,0.2C63.6,83.117,63.434,82.65,63.8,81.95z"/>
		</g>
	</g>
	<g>
		<g>
			<path style="fill-rule:evenodd;clip-rule:evenodd;fill:#54585B;" d="M53.65,100.6c-0.601,0.5-1.167,0.533-1.7,0.1
				c-0.566-0.434-0.65-0.917-0.25-1.45c0.666-0.767,1.35-0.883,2.05-0.35S54.417,100,53.65,100.6z"/>
		</g>
	</g>
	<g>
		<g>
			<path style="fill-rule:evenodd;clip-rule:evenodd;fill:#54585B;" d="M53,116.05c1.4-1.066,2.533-1.033,3.4,0.101
				c0.899,1.133,0.666,2-0.7,2.6c-1.033,0.566-1.95,0.467-2.75-0.3C52.184,117.65,52.2,116.85,53,116.05z"/>
		</g>
	</g>
	<g>
		<g>
			<path style="fill-rule:evenodd;clip-rule:evenodd;fill:#54585B;" d="M59.85,68.7c0.301-0.3,0.617-0.333,0.95-0.1
				c0.334,0.233,0.283,0.5-0.149,0.8c-0.267,0.167-0.517,0.15-0.75-0.05C59.634,69.15,59.616,68.933,59.85,68.7z"/>
		</g>
	</g>
	<g>
		<g>
			<path style="fill-rule:evenodd;clip-rule:evenodd;fill:#54585B;" d="M54.85,57.25l-0.5-0.2c0-0.267,0.117-0.5,0.351-0.7
				c1-0.667,1.684-0.617,2.05,0.15c0.333,0.833,0.184,1.35-0.45,1.55c-0.467,0.167-0.8,0.233-1,0.2c-0.3-0.067-0.583-0.3-0.85-0.7
				l0.3,0.3c0.066,0.033,0.116,0.033,0.15,0C55,57.85,54.983,57.65,54.85,57.25z"/>
		</g>
	</g>
	<g>
		<g>
			<path style="fill-rule:evenodd;clip-rule:evenodd;fill:#54585B;" d="M73.45,52c1.133-1,2.116-1.067,2.95-0.2
				c0.866,0.9,0.716,1.684-0.45,2.35c-0.8,0.533-1.584,0.5-2.351-0.1C72.833,53.45,72.783,52.767,73.45,52z"/>
		</g>
	</g>
	<g>
		<g>
			<path style="fill-rule:evenodd;clip-rule:evenodd;fill:#54585B;" d="M74.85,10.2c1.167-1.733,1.7-1.633,1.601,0.3
				C75.35,11.167,74.816,11.067,74.85,10.2z"/>
		</g>
	</g>
	<g>
		<g>
			<path style="fill-rule:evenodd;clip-rule:evenodd;fill:#54585B;" d="M75.6,25.85c0.601-0.4,1-0.383,1.2,0.05
				c0.167,0.467,0.101,0.767-0.2,0.9c-0.466,0.267-0.816,0.233-1.05-0.1C75.316,26.4,75.333,26.117,75.6,25.85z"/>
		</g>
	</g>
	<g>
		<g>
			<path style="fill-rule:evenodd;clip-rule:evenodd;fill:#54585B;" d="M60.15,26.8c0.933-0.367,1.166-0.183,0.699,0.55
				c-0.233,0.167-0.449,0.167-0.649,0C60,27.183,59.983,27,60.15,26.8z"/>
		</g>
	</g>
	<g>
		<g>
			<path style="fill-rule:evenodd;clip-rule:evenodd;fill:#54585B;" d="M64.5,13.15c0.934-0.367,1.167-0.183,0.7,0.55
				c-0.233,0.133-0.45,0.117-0.65-0.05C64.35,13.483,64.333,13.317,64.5,13.15z"/>
		</g>
	</g>
	<g>
		<g>
			<path style="fill-rule:evenodd;clip-rule:evenodd;fill:#54585B;" d="M75.9,130.45c0.333-0.434,0.733-0.5,1.199-0.2
				c0.467,0.3,0.467,0.684,0,1.15c-0.533,0.333-0.933,0.316-1.199-0.051C75.634,130.983,75.634,130.684,75.9,130.45z"/>
		</g>
	</g>
	<g>
		<g>
			<path style="fill-rule:evenodd;clip-rule:evenodd;fill:#54585B;" d="M46.65,162.05c0.2-0.3,0.467-0.333,0.8-0.1
				c0.367,0.2,0.367,0.467,0,0.8C46.617,163.184,46.35,162.95,46.65,162.05z"/>
		</g>
	</g>
	<g>
		<g>
			<path style="fill-rule:evenodd;clip-rule:evenodd;fill:#54585B;" d="M36.25,173.2c0.3-0.434,0.8-0.517,1.5-0.25
				c0.7,0.233,0.717,0.733,0.05,1.5c-0.7,0.467-1.233,0.45-1.6-0.05C35.867,173.934,35.883,173.533,36.25,173.2z"/>
		</g>
	</g>
	<g>
		<g>
			<path style="fill-rule:evenodd;clip-rule:evenodd;fill:#54585B;" d="M25.8,205.1c0.733-0.966,1.383-1.149,1.95-0.55
				c0.567,0.634,0.567,1.134,0,1.5c-0.367,0.4-0.85,0.5-1.45,0.3C25.667,206.116,25.5,205.7,25.8,205.1z"/>
		</g>
	</g>
	<g>
		<g>
			<path style="fill-rule:evenodd;clip-rule:evenodd;fill:#54585B;" d="M44.7,206.6c0.333-0.466,0.7-0.566,1.1-0.3
				c0.4,0.233,0.417,0.533,0.05,0.9c-0.333,0.333-0.65,0.383-0.95,0.149C44.567,207.116,44.5,206.866,44.7,206.6z"/>
		</g>
	</g>
	<g>
		<g>
			<path style="fill-rule:evenodd;clip-rule:evenodd;fill:#54585B;" d="M58.75,190.15c0.167-0.167,0.4-0.134,0.7,0.1
				s0.233,0.483-0.2,0.75c-0.434,0.1-0.684,0-0.75-0.3C58.467,190.4,58.55,190.217,58.75,190.15z"/>
		</g>
	</g>
	<g>
		<g>
			<path style="fill-rule:evenodd;clip-rule:evenodd;fill:#54585B;" d="M72.95,202.9c0.434-0.233,0.833-0.117,1.2,0.35
				c0.333,0.434,0.166,0.783-0.5,1.05c-0.667,0.066-1.051-0.133-1.15-0.6C72.434,203.267,72.583,203,72.95,202.9z"/>
		</g>
	</g>
	<g>
		<g>
			<path style="fill-rule:evenodd;clip-rule:evenodd;fill:#54585B;" d="M86.3,199.85c0.134-0.033,0.2,0,0.2,0.101
				c0.033,0.1-0.017,0.149-0.15,0.149C86.217,200.1,86.2,200.017,86.3,199.85z"/>
		</g>
	</g>
	<g>
		<g>
			<path style="fill-rule:evenodd;clip-rule:evenodd;fill:#54585B;" d="M85.35,163.35c0.267-0.733,0.617-0.983,1.051-0.75
				c0.466,0.267,0.566,0.567,0.3,0.9c-0.134,0.267-0.4,0.417-0.8,0.45C85.5,164.017,85.316,163.816,85.35,163.35z"/>
		</g>
	</g>
	<g>
		<g>
			<path style="fill-rule:evenodd;clip-rule:evenodd;fill:#54585B;" d="M92.8,182.55c0.4-0.066,0.634,0.05,0.7,0.351
				c0.066,0.333-0.083,0.5-0.45,0.5c-0.3,0-0.467-0.134-0.5-0.4C92.483,182.767,92.566,182.616,92.8,182.55z"/>
		</g>
	</g>
	<g>
		<g>
			<path style="fill-rule:evenodd;clip-rule:evenodd;fill:#54585B;" d="M66.1,159.1c0.767-0.133,1.233,0.117,1.4,0.75
				c0.167,0.667-0.116,1-0.85,1c-0.667,0-1.034-0.267-1.101-0.8C65.45,159.517,65.634,159.2,66.1,159.1z"/>
		</g>
	</g>
	<g>
		<g>
			<path style="fill-rule:evenodd;clip-rule:evenodd;fill:#54585B;" d="M75.9,143.7c0.333,0.066,0.533,0.366,0.6,0.899
				c0.066,0.5-0.233,0.65-0.9,0.45c-0.533-0.366-0.683-0.717-0.449-1.05C75.384,143.7,75.634,143.6,75.9,143.7z"/>
		</g>
	</g>
	<g>
		<g>
			<path style="fill-rule:evenodd;clip-rule:evenodd;fill:#54585B;" d="M56.25,128.4c0.5-0.101,0.8,0.066,0.9,0.5
				c0.1,0.433-0.084,0.649-0.551,0.649c-0.433,0-0.683-0.184-0.75-0.55C55.783,128.667,55.917,128.467,56.25,128.4z"/>
		</g>
	</g>
	<g>
		<g>
			<path style="fill-rule:evenodd;clip-rule:evenodd;fill:#54585B;" d="M52.35,174.9c0.334-0.301,0.7-0.301,1.101,0
				c0.399,0.333,0.316,0.683-0.25,1.05c-0.434,0.166-0.767,0.083-1-0.25C52,175.366,52.05,175.1,52.35,174.9z"/>
		</g>
	</g>
	<g>
		<g>
			<path style="fill-rule:evenodd;clip-rule:evenodd;fill:#54585B;" d="M37.25,160.4c0.5-0.101,0.8,0.066,0.9,0.5
				c0.1,0.433-0.083,0.649-0.55,0.649c-0.434,0-0.684-0.184-0.75-0.55C36.783,160.667,36.917,160.467,37.25,160.4z"/>
		</g>
	</g>
	<g>
		<g>
			<path style="fill-rule:evenodd;clip-rule:evenodd;fill:#54585B;" d="M31.7,187c0.333-0.267,0.8-0.184,1.4,0.25
				s0.467,0.917-0.4,1.45c-0.934,0.2-1.45,0-1.55-0.601C31.083,187.467,31.267,187.1,31.7,187z"/>
		</g>
	</g>
	<g>
		<g>
			<path style="fill-rule:evenodd;clip-rule:evenodd;fill:#54585B;" d="M14.6,184.3c0.566-0.533,1.066-0.55,1.5-0.05
				c0.433,0.5,0.367,0.917-0.2,1.25c-0.6,0.333-1.05,0.3-1.35-0.1C14.25,185,14.267,184.634,14.6,184.3z"/>
		</g>
	</g>
	<g>
		<g>
			<path style="fill-rule:evenodd;clip-rule:evenodd;fill:#54585B;" d="M15.2,201c0.267-0.134,0.583-0.05,0.95,0.25
				s0.233,0.616-0.4,0.95c-0.533,0.033-0.833-0.134-0.9-0.5C14.783,201.333,14.9,201.1,15.2,201z"/>
		</g>
	</g>
	<g>
		<g>
			<path style="fill-rule:evenodd;clip-rule:evenodd;fill:#54585B;" d="M9.3,187.3c1.167,0.033,1.684,0.434,1.55,1.2
				c-0.133,0.833-0.517,1.15-1.15,0.95c-0.7-0.033-1.083-0.384-1.15-1.05C8.45,187.767,8.7,187.4,9.3,187.3z"/>
		</g>
	</g>
	<g>
		<g>
			<path style="fill-rule:evenodd;clip-rule:evenodd;fill:#54585B;" d="M20.75,165.75c0.533-0.4,1-0.35,1.4,0.15
				c0.367,0.5,0.217,0.866-0.45,1.1c-0.5,0.233-0.883,0.134-1.15-0.3C20.283,166.3,20.35,165.983,20.75,165.75z"/>
		</g>
	</g>
	<g>
		<g>
			<path style="fill-rule:evenodd;clip-rule:evenodd;fill:#54585B;" d="M32.6,149.75c0.5-0.134,0.8,0.033,0.9,0.5
				c0.1,0.434-0.083,0.65-0.55,0.65c-0.434,0-0.684-0.184-0.75-0.551C32.133,150.017,32.267,149.816,32.6,149.75z"/>
		</g>
	</g>
	<g>
		<g>
			<path style="fill-rule:evenodd;clip-rule:evenodd;fill:#54585B;" d="M38.85,136.7c0.267-0.167,0.583-0.084,0.95,0.25
				c0.367,0.3,0.233,0.616-0.4,0.95c-0.533,0.033-0.816-0.134-0.85-0.5C38.483,137.033,38.583,136.8,38.85,136.7z"/>
		</g>
	</g>
	<g>
		<g>
			<path style="fill-rule:evenodd;clip-rule:evenodd;fill:#54585B;" d="M39.45,127.15c0.2-0.301,0.433-0.367,0.7-0.2
				c0.267,0.166,0.283,0.366,0.05,0.6c-0.233,0.233-0.45,0.267-0.65,0.101C39.35,127.517,39.317,127.35,39.45,127.15z"/>
		</g>
	</g>
	<g>
		<g>
			<path style="fill-rule:evenodd;clip-rule:evenodd;fill:#54585B;" d="M42.45,106.65c0.833-0.433,1.5-0.25,2,0.55
				c0.466,0.767,0.216,1.316-0.75,1.649c-1.067,0.233-1.667-0.017-1.8-0.75C41.733,107.4,41.917,106.917,42.45,106.65z"/>
		</g>
	</g>
	<g>
		<g>
			<path style="fill-rule:evenodd;clip-rule:evenodd;fill:#54585B;" d="M36.4,108.8c0.633-0.366,1.2-0.233,1.7,0.4
				c0.5,0.666,0.3,1.184-0.6,1.55c-0.967,0.2-1.517-0.017-1.65-0.65C35.75,109.467,35.933,109.033,36.4,108.8z"/>
		</g>
	</g>
	<g>
		<g>
			<path style="fill-rule:evenodd;clip-rule:evenodd;fill:#54585B;" d="M46.55,96.75c-0.133-0.067-0.05-0.1,0.25-0.1
				c0.2-0.033,0.233,0.083,0.1,0.35C46.567,97.233,46.45,97.15,46.55,96.75z"/>
		</g>
	</g>
	<g>
		<g>
			<path style="fill-rule:evenodd;clip-rule:evenodd;fill:#54585B;" d="M44.475,69.075c0.038-0.167,0.038-0.292,0-0.375
				c0.265,0.121,0.473,0.288,0.625,0.5c0.233,0.267,0.3,0.55,0.2,0.85c-0.133,0.367-0.5,0.6-1.1,0.7c-0.3,0-0.534-0.017-0.7-0.05
				c-0.533-0.233-0.833-0.567-0.9-1c-0.067-0.367,0.017-0.617,0.25-0.75c0.433-0.333,0.683-0.483,0.75-0.45
				c0.066,0.033,0.167,0.067,0.3,0.1C44.189,68.687,44.381,68.845,44.475,69.075z"/>
		</g>
	</g>
	<g>
		<g>
			<path style="fill-rule:evenodd;clip-rule:evenodd;fill:#54585B;" d="M46.9,79.4c0.5-0.233,0.8-0.167,0.9,0.2
				c0.133,0.4,0.034,0.583-0.3,0.55c-0.167,0.1-0.367,0.05-0.6-0.15S46.667,79.6,46.9,79.4z"/>
		</g>
	</g>
	<g>
		<g>
			<path style="fill-rule:evenodd;clip-rule:evenodd;fill:#54585B;" d="M42.65,46.55c0.3-0.167,0.684-0.05,1.15,0.35
				c0.434,0.4,0.25,0.767-0.55,1.1c-0.633,0.033-0.983-0.167-1.05-0.6C42.133,46.967,42.283,46.683,42.65,46.55z"/>
		</g>
	</g>
	<g>
		<g>
			<path style="fill-rule:evenodd;clip-rule:evenodd;fill:#54585B;" d="M50.65,30.95c0.666-0.3,1.066-0.2,1.199,0.3
				c0.134,0.5-0.033,0.733-0.5,0.7c-0.233,0.066-0.5-0.017-0.8-0.25C50.25,31.433,50.283,31.183,50.65,30.95z"/>
		</g>
	</g>
	<g>
		<g>
			<path style="fill-rule:evenodd;clip-rule:evenodd;fill:#54585B;" d="M47.8,20.8c0.767-0.3,1.217-0.167,1.351,0.4
				c0.133,0.6-0.067,0.9-0.601,0.9c-0.4,0.133-0.733,0-1-0.4C47.283,21.333,47.367,21.033,47.8,20.8z"/>
		</g>
	</g>
	<g>
		<g>
			<path style="fill-rule:evenodd;clip-rule:evenodd;fill:#54585B;" d="M48.55,12.45c0.867-0.434,1.5-0.3,1.9,0.4
				c0.434,0.733,0.2,1.217-0.7,1.45c-0.667,0.167-1.183-0.017-1.55-0.55C47.833,13.183,47.95,12.75,48.55,12.45z"/>
		</g>
	</g>
</g>
</svg>
