<?xml version="1.0" encoding="iso-8859-1"?>
<!-- Generator: Adobe Illustrator 15.1.0, SVG Export Plug-In . SVG Version: 6.00 Build 0)  -->
<!DOCTYPE svg PUBLIC "-//W3C//DTD SVG 1.1//EN" "http://www.w3.org/Graphics/SVG/1.1/DTD/svg11.dtd">
<svg version="1.1" id="buildings_1" xmlns="http://www.w3.org/2000/svg" xmlns:xlink="http://www.w3.org/1999/xlink" x="0px"
	 y="0px" width="107.5px" height="189px" viewBox="0 0 107.5 189" style="enable-background:new 0 0 107.5 189;"
	 xml:space="preserve">
<g>
	<g>
		<path style="fill-rule:evenodd;clip-rule:evenodd;fill:#C5C9CA;" d="M75.5,29.5l1,22.5l4.5,3l-1,30.5l-5,5l5.5,10l1,14.5l8.5,10
			l-4.5,8l4,26l-3.5,9l21.5,14L79,189l-37.5-33.25L55,106.5c0.333-1.333,6.333-35,18-101l8.5-1l-2,23L75.5,29.5z"/>
		
			<linearGradient id="SVGID_1_" gradientUnits="userSpaceOnUse" x1="-44.374" y1="-103.6157" x2="93.0632" y2="-103.6157" gradientTransform="matrix(-0.6185 0.7858 -0.7858 -0.6185 1.777411e-004 3.403425e-005)">
			<stop  offset="0" style="stop-color:#C8CDCE"/>
			<stop  offset="1" style="stop-color:#9DA6A9"/>
		</linearGradient>
		<polygon style="fill-rule:evenodd;clip-rule:evenodd;fill:url(#SVGID_1_);" points="34,98.5 40.5,43.5 34,2.5 73,5.5 69,59.5 
			72.5,61 67,116.5 76.15,131.65 70,145.75 77.3,154.95 78.2,172.95 71.5,178.75 79,189 0,179.5 27,97.5 		"/>
		<path style="fill-rule:evenodd;clip-rule:evenodd;fill:#54585B;" d="M50.2,134.55l2.899,1c2.067,0.8,3.483,1.55,4.25,2.25
			c1.067,0.967,1.983,2.566,2.75,4.8c0.9,2.5,1.284,5.084,1.15,7.75c-0.134,3.134-0.583,6.15-1.35,9.051
			c-0.867,3.233-1.917,5.316-3.15,6.25c-1.233,0.933-3,1.683-5.3,2.25c-2.1,0.533-3.633,0.683-4.6,0.449
			c-0.733-0.133-1.317-0.449-1.75-0.949l-0.4-0.65l4.4-0.25c3.2-0.6,5.417-2.017,6.65-4.25c1.533-2.8,2.434-4.9,2.7-6.3
			c0.333-1.601,0.25-4.033-0.25-7.3c-0.4-2.767-1.483-5.534-3.25-8.301c-1.601-2.133-2.383-3.216-2.35-3.25
			C52.733,137.066,51.933,136.217,50.2,134.55z"/>
		<path style="fill-rule:evenodd;clip-rule:evenodd;fill:#54585B;" d="M47.75,138.8l1.95,0.3c1.433,0.301,2.45,0.65,3.05,1.051
			c0.767,0.533,1.566,1.916,2.4,4.149c0.899,2.334,1.333,4.351,1.3,6.05c-0.134,4.867-0.8,8.217-2,10.051
			c-0.566,0.833-1.817,1.55-3.75,2.149l-2.75,0.601c0.5-0.233,1.066-0.634,1.7-1.2c1.267-1.101,2.2-2.384,2.8-3.851
			c0.6-1.533,0.934-3.5,1-5.899c0.033-1.134-0.017-2.867-0.15-5.2c-0.033-1.1-1-2.816-2.9-5.15
			C48.533,139.75,47.65,138.733,47.75,138.8z"/>
		<path style="fill-rule:evenodd;clip-rule:evenodd;fill:#54585B;" d="M48.05,148.25c0.934,0.3,1.517,0.684,1.75,1.15
			c0.333,0.699,0.5,1.5,0.5,2.399c0.034,1.066-0.2,1.816-0.7,2.25c-0.7,0.634-1.567,0.95-2.6,0.95l-0.25-7L48.05,148.25z"/>
		<path style="fill-rule:evenodd;clip-rule:evenodd;fill:#54585B;" d="M47.3,136.9l-3.7,2.05c-2.633,1.8-4.317,3.816-5.05,6.05
			c-0.9,2.634-1.3,5.267-1.2,7.9c0.1,2.6,0.667,4.949,1.7,7.05c0.9,1.767,2.167,3.2,3.8,4.3c0.767,0.533,1.833,1.083,3.2,1.65
			c0.8,0.3,0.817,0.616,0.05,0.949c-0.767,0.334-1.85,0.301-3.25-0.1c-1.667-0.434-3.533-2-5.6-4.7c-2.233-2.899-3.4-5.6-3.5-8.1
			c-0.1-2.533,0.333-5.101,1.3-7.7c0.833-2.333,1.917-4.3,3.25-5.9c1.133-1.366,2.667-2.383,4.6-3.05
			C44.667,136.733,46.133,136.6,47.3,136.9z"/>
		<path style="fill-rule:evenodd;clip-rule:evenodd;fill:#54585B;" d="M47.55,144.2l-1.45,0.7c-1.067,0.733-1.75,1.8-2.05,3.199
			c-0.4,1.9-0.6,3.301-0.6,4.2c0,1.167,0.283,2.3,0.85,3.4c0.467,0.967,1.184,1.75,2.15,2.35c0.5,0.3,0.933,0.5,1.3,0.601
			c-0.567,0.366-1.2,0.616-1.9,0.75c-1.4,0.333-2.417,0.017-3.05-0.95c-0.767-1.134-1.283-3.134-1.55-6
			c-0.233-2.834-0.1-4.934,0.4-6.3c0.5-1.334,1.45-2.233,2.85-2.7S46.917,143.233,47.55,144.2z"/>
		<polygon style="fill-rule:evenodd;clip-rule:evenodd;fill:#54585B;" points="41.9,133.8 40,133.4 38.75,122.5 40.3,123.3 
			43.9,132.8 		"/>
		<path style="fill-rule:evenodd;clip-rule:evenodd;fill:#54585B;" d="M47.75,127.75l1.1,0.05c0.8,0.134,1.267,0.45,1.4,0.95
			c0.2,0.833,0.2,1.583,0,2.25c-0.333,0.9-1,1.233-2,1c-0.967-0.2-1.35-0.967-1.15-2.3L47.75,127.75z"/>
		<path style="fill-rule:evenodd;clip-rule:evenodd;fill:#54585B;" d="M63.75,128l1.15-0.05c0.767,0.133,1.233,0.566,1.399,1.3
			c0.2,0.833,0.033,1.55-0.5,2.15c-0.533,0.566-1.133,0.767-1.8,0.6c-0.533-0.134-0.733-0.85-0.6-2.15L63.75,128z"/>
		<polygon style="fill-rule:evenodd;clip-rule:evenodd;fill:#54585B;" points="69.5,134 70.65,134.05 63.65,142.3 61.75,142.5 		"/>
		<path style="fill-rule:evenodd;clip-rule:evenodd;fill:#54585B;" d="M62.15,149.25l1.05-0.15c0.8-0.033,1.399,0.067,1.8,0.301
			c0.467,0.267,0.733,0.767,0.8,1.5c0.033,0.633-0.066,1.083-0.3,1.35c-0.267,0.233-0.684,0.434-1.25,0.6
			c-0.634,0.233-1.083,0.284-1.35,0.15c-0.233-0.1-0.434-0.75-0.601-1.95L62.15,149.25z"/>
		<path style="fill-rule:evenodd;clip-rule:evenodd;fill:#54585B;" d="M64,169.25l1.3,0.1c0.934,0.134,1.517,0.4,1.75,0.801
			c0.334,0.566,0.267,1.316-0.2,2.25c-0.5,0.966-1.183,1.35-2.05,1.149c-0.733-0.166-1.083-0.934-1.05-2.3L64,169.25z"/>
		<polygon style="fill-rule:evenodd;clip-rule:evenodd;fill:#54585B;" points="55.5,167.5 57.05,167.8 59.5,180.15 58.25,180.25 		
			"/>
		<path style="fill-rule:evenodd;clip-rule:evenodd;fill:#54585B;" d="M44.5,172.5l0.6-0.15c0.5-0.033,0.983,0.101,1.45,0.4
			c0.534,0.3,0.883,0.833,1.05,1.6c0.1,0.667,0.033,1.134-0.2,1.4c-0.267,0.267-0.816,0.434-1.65,0.5L44.5,172.5z"/>
		<path style="fill-rule:evenodd;clip-rule:evenodd;fill:#54585B;" d="M32.5,163l0.7-0.15c0.5-0.033,0.867,0.067,1.1,0.301
			c0.333,0.333,0.534,0.767,0.6,1.3c0.1,0.566-0.017,0.916-0.35,1.05c-0.267,0.1-0.633,0.167-1.1,0.2l-0.65,0.05L32.5,163z"/>
		<polygon style="fill-rule:evenodd;clip-rule:evenodd;fill:#54585B;" points="29,158 30.4,158.55 31,160.3 20.65,163.75 
			19.5,163.75 		"/>
		<path style="fill-rule:evenodd;clip-rule:evenodd;fill:#54585B;" d="M27.25,149l0.95,0.05c0.667,0.066,1.1,0.233,1.3,0.5
			c0.267,0.4,0.4,0.983,0.4,1.75c0,0.834-0.217,1.483-0.65,1.95c-0.633,0.667-1.583,1-2.85,1L27.25,149z"/>
		<path style="fill-rule:evenodd;clip-rule:evenodd;fill:#54585B;" d="M32.9,130.55l0.9-0.1c0.667,0.066,1.167,0.383,1.5,0.95
			c0.733,1.199,0.767,2.066,0.1,2.6c-0.367,0.267-0.85,0.483-1.45,0.65c-0.633,0.199-1.067,0.199-1.3,0
			c-0.2-0.167-0.217-0.9-0.05-2.2L32.9,130.55z"/>
		<polygon style="fill-rule:evenodd;clip-rule:evenodd;fill:#CDD1D2;" points="34,2.5 49,0 81.5,4.5 73,5.5 		"/>
		<polygon style="fill-rule:evenodd;clip-rule:evenodd;fill:#CDD1D2;" points="72.5,61 69,59.5 76.5,52 81,55 		"/>
		<polygon style="fill-rule:evenodd;clip-rule:evenodd;fill:#CDD1D2;" points="70.25,97 75,90.5 80.5,100.5 		"/>
		<polygon style="fill-rule:evenodd;clip-rule:evenodd;fill:#CDD1D2;" points="76.15,131.65 67,116.5 81.5,115 90,125 		"/>
		<polygon style="fill-rule:evenodd;clip-rule:evenodd;fill:#A0A9AB;" points="79.5,27.5 75.5,29.5 72.25,28.5 		"/>
		<polygon style="fill-rule:evenodd;clip-rule:evenodd;fill:#A0A9AB;" points="80,85.5 70.25,97 73.75,90.75 		"/>
		<polygon style="fill-rule:evenodd;clip-rule:evenodd;fill:#A0A9AB;" points="89.5,159 86,168 80,168.25 		"/>
		<polygon style="fill-rule:evenodd;clip-rule:evenodd;fill:#959C9F;" points="78.2,172.95 86.75,173.25 71.5,178.75 		"/>
		<polygon style="fill-rule:evenodd;clip-rule:evenodd;fill:#A0A9AB;" points="70,145.75 76.15,131.65 90,125 85.5,133 		"/>
		<polygon style="fill-rule:evenodd;clip-rule:evenodd;fill:#B8BFC1;" points="27,97.5 34,98.5 58.75,112.25 		"/>
		<polygon style="fill-rule:evenodd;clip-rule:evenodd;fill:#939A9D;" points="59.8,118.65 67.15,124.65 47.8,117 42.15,121 
			30.5,113 23.8,145.3 19.8,144 13.8,171 28.8,175.3 28.15,180.65 4.8,176.3 12.15,152 22.15,125.65 28.15,102.65 		"/>
		<polygon style="fill-rule:evenodd;clip-rule:evenodd;fill:#A9AEB0;" points="67.5,7.65 50.15,9.3 47.15,12 40.15,12 40.8,38.3 
			35.8,5.3 		"/>
		<polygon style="fill-rule:evenodd;clip-rule:evenodd;fill:#AAB2B5;" points="78.8,17 76.8,10.3 72.5,26 74.8,7.3 80.15,6.3 		"/>
		<polygon style="fill-rule:evenodd;clip-rule:evenodd;fill:#AAB2B5;" points="79.8,59.65 75.8,67 75.15,83.65 78.15,73 77.8,85 
			72.15,88.65 75.15,65 		"/>
		<polygon style="fill-rule:evenodd;clip-rule:evenodd;fill:#AAB2B5;" points="79.8,162.65 79.15,152.65 73.8,145.3 80.8,151 
			82.15,157 84.8,155 86.8,147 87.15,156.3 		"/>
		<polygon style="fill-rule:evenodd;clip-rule:evenodd;fill:#AAB2B5;" points="98.5,181 91.8,177.65 76.8,180 91.5,175 103.8,181.3 
			80.8,187.3 		"/>
		<path style="fill-rule:evenodd;clip-rule:evenodd;fill:#54585B;" d="M49.25,22l2.3,0.55l5.101,5.55
			c3.366,4.066,5,7.117,4.899,9.15c-0.066,2-2.133,4.983-6.2,8.95c-2.033,1.966-4.066,3.733-6.1,5.3l-2,0.75
			c1.833-1.933,3.65-4.067,5.45-6.4c3.6-4.633,5.383-7.867,5.35-9.7c-0.033-1.833-1.5-4.733-4.399-8.7L49.25,22z"/>
		<path style="fill-rule:evenodd;clip-rule:evenodd;fill:#CDD1D2;" d="M49.25,22l5.65,6.4C58.6,33.033,60.3,36.233,60,38
			s-2.517,4.667-6.65,8.7c-2.066,2.033-4.1,3.883-6.1,5.55c1.333-1.7,2.683-3.567,4.05-5.6c2.767-4.1,4.25-6.983,4.45-8.65
			s-0.816-4.833-3.05-9.5L49.25,22z"/>
		<g>
			<path style="fill-rule:evenodd;clip-rule:evenodd;fill:#CDD1D2;" d="M49.05,151.5c0.034,2.333-0.65,3.5-2.05,3.5
				c-1.467,0-2.35-1.167-2.65-3.5c-0.3-2.333,0.5-3.5,2.4-3.5C48.217,148,48.983,149.167,49.05,151.5z"/>
			<path style="fill-rule:evenodd;clip-rule:evenodd;fill:#CDD1D2;" d="M47.25,138.75c2.267-0.134,4.15,1.267,5.65,4.2
				c1.367,2.7,1.984,5.717,1.85,9.05c-0.134,3.366-0.833,6.05-2.1,8.05c-1.433,2.267-3.4,3.334-5.9,3.2
				c-2.533-0.134-4.517-1.566-5.95-4.3c-1.367-2.601-1.867-5.601-1.5-9c0.3-2.634,1.067-5,2.3-7.101
				C43.1,140.217,44.983,138.85,47.25,138.75z M50.4,146.35c-1-1.633-2.383-2.416-4.15-2.35c-1.033,0.033-1.967,0.733-2.8,2.1
				c-0.767,1.301-1.25,2.851-1.45,4.65c-0.433,4.467,0.983,7.05,4.25,7.75c1.667,0.366,3-0.184,4-1.65
				c0.933-1.333,1.417-3.05,1.45-5.149C51.733,149.6,51.3,147.816,50.4,146.35z"/>
			<path style="fill-rule:evenodd;clip-rule:evenodd;fill:#CDD1D2;" d="M35,152.75c-0.233,3.5,0.883,6.5,3.35,9
				s5.517,3.75,9.15,3.75c3.3,0,5.934-1.783,7.9-5.35c1.699-3.034,2.399-6,2.1-8.9c-1.066-10.033-4.733-14.783-11-14.25
				c-3.367,0.267-6.133,2.1-8.3,5.5C36.333,145.4,35.267,148.816,35,152.75z M47.75,134.25c4.233,0.134,7.434,2.083,9.6,5.85
				c1.934,3.367,2.7,7.434,2.301,12.2c-0.4,4.733-1.801,8.634-4.2,11.7c-2.667,3.4-5.983,4.816-9.95,4.25
				c-5-0.7-8.65-2.917-10.95-6.65c-2.033-3.3-2.733-7.183-2.1-11.649c0.633-4.334,2.3-8,5-11
				C40.383,135.684,43.817,134.116,47.75,134.25z"/>
		</g>
		<path style="fill-rule:evenodd;clip-rule:evenodd;fill:#CDD1D2;" d="M47.75,127.75c1.433,0.134,2.15,0.85,2.15,2.15
			c0,1.267-0.55,1.966-1.65,2.1c-1,0.134-1.617-0.566-1.85-2.1C46.2,128.366,46.65,127.65,47.75,127.75z"/>
		<path style="fill-rule:evenodd;clip-rule:evenodd;fill:#CDD1D2;" d="M44.5,172.5c0.9-0.134,1.617,0.434,2.15,1.7
			c0.5,1.233,0.2,1.916-0.9,2.05c-1.067,0.134-1.733-0.434-2-1.7C43.45,173.283,43.7,172.6,44.5,172.5z"/>
		<path style="fill-rule:evenodd;clip-rule:evenodd;fill:#CDD1D2;" d="M63.25,149.25c1,0.434,1.566,1.066,1.7,1.9
			c0.133,0.899-0.434,1.517-1.7,1.85c-1.366,0.366-2.017-0.3-1.95-2C61.333,149.267,61.983,148.684,63.25,149.25z"/>
		<path style="fill-rule:evenodd;clip-rule:evenodd;fill:#CDD1D2;" d="M27.25,149c0.967-0.267,1.45,0.517,1.45,2.35
			c0,1.834-0.65,2.801-1.95,2.9c-1.367,0.134-1.983-0.616-1.85-2.25C25.067,150.4,25.85,149.4,27.25,149z"/>
		<path style="fill-rule:evenodd;clip-rule:evenodd;fill:#CDD1D2;" d="M32,130.75c1.267-0.634,2.133-0.134,2.6,1.5
			c0.5,1.667,0.05,2.5-1.35,2.5c-1.333,0-2.133-0.533-2.4-1.6C30.583,132.083,30.967,131.283,32,130.75z"/>
		<path style="fill-rule:evenodd;clip-rule:evenodd;fill:#CDD1D2;" d="M63.25,169.5c1.2-0.733,2.134-0.35,2.8,1.15
			c0.634,1.5,0.367,2.449-0.8,2.85c-1.267,0.434-2.3,0.116-3.1-0.95C61.316,171.45,61.684,170.434,63.25,169.5z"/>
		<path style="fill-rule:evenodd;clip-rule:evenodd;fill:#CDD1D2;" d="M63.75,128c1.233-0.233,1.866,0.333,1.9,1.7
			c0.033,1.399-0.517,2.166-1.65,2.3c-1.167,0.134-1.8-0.434-1.9-1.7C61.967,129,62.517,128.233,63.75,128z"/>
		<path style="fill-rule:evenodd;clip-rule:evenodd;fill:#CDD1D2;" d="M32.5,163c0.767-0.233,1.267,0.1,1.5,1
			c0.267,0.934,0.017,1.517-0.75,1.75c-0.733,0.233-1.2-0.116-1.4-1.05C31.65,163.767,31.867,163.2,32.5,163z"/>
		<polygon style="fill-rule:evenodd;clip-rule:evenodd;fill:#CDD1D2;" points="29,158 30,160 19.25,163.75 		"/>
		<polygon style="fill-rule:evenodd;clip-rule:evenodd;fill:#CDD1D2;" points="38.75,122.5 42.25,132.5 40,133.5 		"/>
		<polygon style="fill-rule:evenodd;clip-rule:evenodd;fill:#CDD1D2;" points="53.5,169.75 55.5,167.5 58.25,180.25 		"/>
		<path style="fill-rule:evenodd;clip-rule:evenodd;fill:#CDD1D2;" d="M60.75,140l8.75-6c-4.5,5.333-7.083,8.167-7.75,8.5
			S60.75,142,60.75,140z"/>
		<polygon style="fill-rule:evenodd;clip-rule:evenodd;fill:#54585B;" points="63.1,74.15 56.2,77.1 63.8,81.4 62.5,81.25 56.2,80 
			60.75,89.4 59.75,89.5 55.3,83.1 52.2,94.75 51.5,95.25 53.2,82.25 44.85,86.3 42.75,86.75 52.2,81.05 43,72.5 44.6,72.55 
			52.35,75.1 52.5,65.5 53.7,65.75 54.6,76.05 62.25,74 		"/>
		<polygon style="fill-rule:evenodd;clip-rule:evenodd;fill:#CDD1D2;" points="50.5,80 43,72.5 51.25,75.5 52.5,65.5 53.5,76 
			62.25,74 54.75,77 62.5,81.25 55.25,79.75 59.75,89.5 54.25,82.5 51.5,95.25 52.25,82 42.75,86.75 		"/>
		<polygon style="fill-rule:evenodd;clip-rule:evenodd;fill:#A9AEB0;" points="61.75,15 67.5,15.25 67.25,49 66.25,37.75 
			64.25,37.75 65.5,20.75 58,15.75 		"/>
		<path style="fill-rule:evenodd;clip-rule:evenodd;fill:#939A9D;" d="M57.25,101l0.15,1.9c0.399,1.3,1.433,2,3.1,2.1
			s3.05-0.283,4.15-1.15l1.1-1.35L64,107.25L57,104L57.25,101z"/>
		<path style="fill-rule:evenodd;clip-rule:evenodd;fill:#939A9D;" d="M44,58l0.55,1.65c0.6,1.133,1.417,1.75,2.45,1.85
			s2.1-0.167,3.2-0.8c0.533-0.3,0.966-0.617,1.3-0.95l-1,3l-6-0.75L44,58z"/>
	</g>
	<g>
		<g>
			<path style="fill-rule:evenodd;clip-rule:evenodd;fill:#54585B;" d="M20.2,167.55c0.667-0.5,1.233-0.467,1.7,0.101
				c0.5,0.566,0.4,1.05-0.3,1.449c-0.767,0.334-1.3,0.233-1.6-0.3C19.733,168.3,19.8,167.884,20.2,167.55z"/>
		</g>
	</g>
	<g>
		<g>
			<path style="fill-rule:evenodd;clip-rule:evenodd;fill:#54585B;" d="M18.25,156.2c0.533-0.8,1.15-0.983,1.85-0.55
				c0.733,0.433,0.783,0.966,0.15,1.6c-0.567,0.6-1.117,0.7-1.65,0.3C18.033,157.15,17.917,156.7,18.25,156.2z"/>
		</g>
	</g>
	<g>
		<g>
			<path style="fill-rule:evenodd;clip-rule:evenodd;fill:#54585B;" d="M19.45,134.7c0.367-0.634,0.767-0.8,1.2-0.5
				c0.5,0.267,0.55,0.6,0.15,1c-0.267,0.366-0.6,0.467-1,0.3C19.367,135.366,19.25,135.1,19.45,134.7z"/>
		</g>
	</g>
	<g>
		<g>
			<path style="fill-rule:evenodd;clip-rule:evenodd;fill:#54585B;" d="M8.3,162.7c0.434-0.367,0.8-0.367,1.1,0
				c0.333,0.366,0.3,0.666-0.1,0.899c-0.466,0.267-0.8,0.25-1-0.05C8.067,163.217,8.067,162.934,8.3,162.7z"/>
		</g>
	</g>
	<g>
		<g>
			<path style="fill-rule:evenodd;clip-rule:evenodd;fill:#54585B;" d="M5.75,174.55c1-0.5,1.717-0.316,2.15,0.55
				c0.467,0.834,0.217,1.4-0.75,1.7c-0.933,0.233-1.55,0-1.85-0.7C5,175.4,5.15,174.884,5.75,174.55z"/>
		</g>
	</g>
	<g>
		<g>
			<path style="fill-rule:evenodd;clip-rule:evenodd;fill:#54585B;" d="M39.15,180.3c0.434-0.3,0.783-0.267,1.05,0.101
				c0.267,0.366,0.167,0.649-0.3,0.85c-0.367,0.134-0.667,0.05-0.9-0.25C38.8,180.7,38.85,180.467,39.15,180.3z"/>
		</g>
	</g>
	<g>
		<g>
			<path style="fill-rule:evenodd;clip-rule:evenodd;fill:#54585B;" d="M24.7,117.45c0.933-1,1.816-1.117,2.65-0.351
				c0.833,0.801,0.767,1.534-0.2,2.2c-0.867,0.667-1.633,0.684-2.3,0.05C24.183,118.717,24.133,118.083,24.7,117.45z"/>
		</g>
	</g>
	<g>
		<g>
			<path style="fill-rule:evenodd;clip-rule:evenodd;fill:#54585B;" d="M31.55,122.25c0.667-0.634,1.284-0.667,1.85-0.1
				c0.567,0.533,0.483,1.033-0.25,1.5c-0.633,0.399-1.167,0.366-1.6-0.101C31.117,123.083,31.117,122.65,31.55,122.25z"/>
		</g>
	</g>
	<g>
		<g>
			<path style="fill-rule:evenodd;clip-rule:evenodd;fill:#54585B;" d="M31.65,104.7c0.667-0.5,1.1-0.517,1.3-0.05
				c0.2,0.566,0.133,0.833-0.2,0.8c-0.3,0.3-0.617,0.333-0.95,0.1C31.433,105.283,31.383,105,31.65,104.7z"/>
		</g>
	</g>
	<g>
		<g>
			<path style="fill-rule:evenodd;clip-rule:evenodd;fill:#54585B;" d="M64.8,122.85c0.334-0.366,0.55-0.416,0.65-0.149
				c0.133,0.333,0.116,0.467-0.05,0.399C64.866,123.366,64.667,123.283,64.8,122.85z"/>
		</g>
	</g>
	<g>
		<g>
			<path style="fill-rule:evenodd;clip-rule:evenodd;fill:#54585B;" d="M56.1,125.1c0.301-0.166,0.5-0.133,0.601,0.101
				c0.1,0.233,0.05,0.383-0.15,0.45c-0.333,0.1-0.517,0.05-0.55-0.15C55.934,125.3,55.967,125.167,56.1,125.1z"/>
		</g>
	</g>
	<g>
		<g>
			<path style="fill-rule:evenodd;clip-rule:evenodd;fill:#54585B;" d="M42.75,120.7c0.533-0.8,1.15-0.983,1.85-0.55
				c0.733,0.433,0.783,0.966,0.15,1.6c-0.567,0.6-1.117,0.7-1.65,0.3C42.533,121.65,42.417,121.2,42.75,120.7z"/>
		</g>
	</g>
	<g>
		<g>
			<path style="fill-rule:evenodd;clip-rule:evenodd;fill:#54585B;" d="M45.05,109.45c1.167-0.934,2.1-0.884,2.8,0.149
				c0.667,1.034,0.483,1.767-0.55,2.2c-1.2,0.601-2.017,0.467-2.45-0.399C44.417,110.533,44.483,109.884,45.05,109.45z"/>
		</g>
	</g>
	<g>
		<g>
			<path style="fill-rule:evenodd;clip-rule:evenodd;fill:#54585B;" d="M27.75,140.25c0.2-0.233,0.433-0.25,0.7-0.05
				c0.233,0.2,0.2,0.399-0.1,0.6c-0.167,0.134-0.367,0.117-0.6-0.05C27.55,140.583,27.55,140.417,27.75,140.25z"/>
		</g>
	</g>
	<g>
		<g>
			<path style="fill-rule:evenodd;clip-rule:evenodd;fill:#54585B;" d="M70.6,159.65c0.5-0.167,0.801-0.084,0.9,0.25
				c0.1,0.399-0.033,0.583-0.4,0.55c-0.199,0.033-0.399-0.033-0.6-0.2S70.333,159.884,70.6,159.65z"/>
		</g>
	</g>
	<g>
		<g>
			<path style="fill-rule:evenodd;clip-rule:evenodd;fill:#54585B;" d="M72.75,169.2c0.467-0.2,0.866-0.05,1.2,0.45
				c0.333,0.5,0.133,0.85-0.601,1.05c-0.633,0.033-1-0.184-1.1-0.65C72.184,169.583,72.35,169.3,72.75,169.2z"/>
		</g>
	</g>
	<g>
		<g>
			<path style="fill-rule:evenodd;clip-rule:evenodd;fill:#54585B;" d="M67.4,183.3c0.399-0.2,0.75-0.083,1.05,0.351
				c0.3,0.433,0.133,0.75-0.5,0.949c-0.566,0.034-0.884-0.149-0.95-0.55C66.934,183.65,67.066,183.4,67.4,183.3z"/>
		</g>
	</g>
	<g>
		<g>
			<path style="fill-rule:evenodd;clip-rule:evenodd;fill:#54585B;" d="M64,161.5c0.1-0.233,0.4-0.25,0.9-0.05
				c0.5,0.166,0.5,0.517,0,1.05c-0.7,0.267-1.084,0.2-1.15-0.2C63.684,161.9,63.767,161.634,64,161.5z"/>
		</g>
	</g>
	<g>
		<g>
			<path style="fill-rule:evenodd;clip-rule:evenodd;fill:#54585B;" d="M63.1,94.9c0.434-0.433,0.717-0.5,0.851-0.2
				C64.083,95,64.1,95.2,64,95.3c-0.267,0.3-0.517,0.367-0.75,0.2C63.05,95.333,63,95.134,63.1,94.9z"/>
		</g>
	</g>
	<g>
		<g>
			<path style="fill-rule:evenodd;clip-rule:evenodd;fill:#54585B;" d="M41.4,92.9c0.4-0.467,0.833-0.55,1.3-0.25
				c0.433,0.333,0.4,0.7-0.1,1.1c-0.333,0.267-0.684,0.267-1.05,0S41.133,93.2,41.4,92.9z"/>
		</g>
	</g>
	<g>
		<g>
			<path style="fill-rule:evenodd;clip-rule:evenodd;fill:#54585B;" d="M46.65,98.15c0.2-0.167,0.467-0.15,0.8,0.05
				c0.3,0.233,0.267,0.5-0.1,0.8c-0.5,0.167-0.783,0.083-0.85-0.25C46.433,98.517,46.483,98.316,46.65,98.15z"/>
		</g>
	</g>
	<g>
		<g>
			<path style="fill-rule:evenodd;clip-rule:evenodd;fill:#54585B;" d="M62.95,66.35c0.767-0.934,1.5-1.083,2.2-0.45
				c0.666,0.633,0.633,1.2-0.101,1.7c-0.467,0.433-1.033,0.5-1.7,0.2C62.684,67.467,62.55,66.983,62.95,66.35z"/>
		</g>
	</g>
	<g>
		<g>
			<path style="fill-rule:evenodd;clip-rule:evenodd;fill:#54585B;" d="M66.75,74.8c0.267-0.3,0.583-0.333,0.95-0.1
				c0.333,0.233,0.333,0.517,0,0.85c-0.4,0.233-0.7,0.217-0.9-0.05S66.583,75,66.75,74.8z"/>
		</g>
	</g>
	<g>
		<g>
			<path style="fill-rule:evenodd;clip-rule:evenodd;fill:#54585B;" d="M41.95,66.95c0.333-0.434,0.816-0.517,1.45-0.25
				c0.633,0.233,0.617,0.683-0.05,1.35c-0.434,0.333-0.867,0.333-1.3,0C41.617,67.683,41.583,67.317,41.95,66.95z"/>
		</g>
	</g>
	<g>
		<g>
			<path style="fill-rule:evenodd;clip-rule:evenodd;fill:#54585B;" d="M47.9,68.7c0.233-0.367,0.5-0.45,0.8-0.25
				c0.3,0.2,0.316,0.433,0.05,0.7c-0.267,0.233-0.5,0.267-0.7,0.1C47.817,69.083,47.767,68.9,47.9,68.7z"/>
		</g>
	</g>
	<g>
		<g>
			<path style="fill-rule:evenodd;clip-rule:evenodd;fill:#54585B;" d="M39.3,79.55c-0.3-0.4-0.267-0.75,0.1-1.05
				c0.7-0.433,1.217-0.383,1.55,0.15c0.333,0.567,0.2,0.95-0.4,1.15C40.017,80.033,39.6,79.95,39.3,79.55z"/>
		</g>
	</g>
	<g>
		<g>
			<path style="fill-rule:evenodd;clip-rule:evenodd;fill:#54585B;" d="M43.9,80.4c0.2-0.167,0.467-0.15,0.8,0.05
				c0.3,0.233,0.267,0.5-0.1,0.8c-0.5,0.167-0.783,0.083-0.85-0.25C43.683,80.767,43.733,80.567,43.9,80.4z"/>
		</g>
	</g>
	<g>
		<g>
			<path style="fill-rule:evenodd;clip-rule:evenodd;fill:#54585B;" d="M37.1,95c0.333-0.467,0.7-0.567,1.1-0.3
				c0.4,0.233,0.417,0.533,0.05,0.899c-0.333,0.334-0.65,0.384-0.95,0.15C36.967,95.517,36.9,95.267,37.1,95z"/>
		</g>
	</g>
	<g>
		<g>
			<path style="fill-rule:evenodd;clip-rule:evenodd;fill:#54585B;" d="M60.6,49.2c0.334-0.333,0.7-0.35,1.101-0.05
				c0.399,0.3,0.35,0.633-0.15,1c-0.434,0.233-0.767,0.184-1-0.15C60.316,49.7,60.333,49.433,60.6,49.2z"/>
		</g>
	</g>
	<g>
		<g>
			<path style="fill-rule:evenodd;clip-rule:evenodd;fill:#54585B;" d="M62.85,55.6c0.434-0.5,0.95-0.567,1.551-0.2
				c0.6,0.4,0.6,0.883,0,1.45c-0.801,0.5-1.334,0.483-1.601-0.05C62.533,56.333,62.55,55.933,62.85,55.6z"/>
		</g>
	</g>
	<g>
		<g>
			<path style="fill-rule:evenodd;clip-rule:evenodd;fill:#54585B;" d="M69.45,63.5c0.166-0.333,0.483-0.433,0.95-0.3
				c0.466,0.133,0.533,0.466,0.199,1c-0.466,0.367-0.833,0.4-1.1,0.1C69.3,64,69.283,63.733,69.45,63.5z"/>
		</g>
	</g>
	<g>
		<g>
			<path style="fill-rule:evenodd;clip-rule:evenodd;fill:#54585B;" d="M44.95,41.15c0.566-0.4,0.983-0.4,1.25,0
				c0.267,0.434,0.183,0.717-0.25,0.85c-0.034-0.1-0.267-0.083-0.7,0.05C44.883,42.117,44.783,41.817,44.95,41.15z"/>
		</g>
	</g>
	<g>
		<g>
			<path style="fill-rule:evenodd;clip-rule:evenodd;fill:#54585B;" d="M42.9,50.1c0.167-0.233,0.35-0.283,0.55-0.15
				c0.2,0.133,0.216,0.283,0.05,0.45c-0.167,0.167-0.333,0.2-0.5,0.1C42.867,50.4,42.833,50.267,42.9,50.1z"/>
		</g>
	</g>
	<g>
		<g>
			<path style="fill-rule:evenodd;clip-rule:evenodd;fill:#54585B;" d="M48.25,55.6c0.5-0.434,1.05-0.417,1.65,0.05
				c0.633,0.434,0.533,0.934-0.3,1.5c-0.767,0.333-1.283,0.217-1.55-0.35C47.75,56.267,47.817,55.867,48.25,55.6z"/>
		</g>
	</g>
	<g>
		<g>
			<path style="fill-rule:evenodd;clip-rule:evenodd;fill:#54585B;" d="M54.55,12.45c0.634-0.733,1.167-0.833,1.601-0.3
				c0.466,0.533,0.416,0.934-0.15,1.2c-0.3,0.333-0.684,0.383-1.15,0.15C54.35,13.267,54.25,12.917,54.55,12.45z"/>
		</g>
	</g>
	<g>
		<g>
			<path style="fill-rule:evenodd;clip-rule:evenodd;fill:#54585B;" d="M64.85,10c0.134-0.2,0.334-0.217,0.601-0.05
				c0.267,0.167,0.267,0.367,0,0.6c-0.4,0.2-0.634,0.184-0.7-0.05C64.717,10.333,64.75,10.167,64.85,10z"/>
		</g>
	</g>
	<g>
		<g>
			<path style="fill-rule:evenodd;clip-rule:evenodd;fill:#54585B;" d="M59.95,22.85c0.733,0.133,0.85,0.35,0.35,0.65
				c-0.333,0.067-0.517-0.017-0.55-0.25C59.717,23.05,59.783,22.917,59.95,22.85z"/>
		</g>
	</g>
	<g>
		<g>
			<path style="fill-rule:evenodd;clip-rule:evenodd;fill:#54585B;" d="M42.75,16.05c0.533-0.533,1-0.583,1.4-0.15
				c0.434,0.434,0.4,0.817-0.1,1.15c-0.533,0.367-0.95,0.367-1.25,0C42.5,16.683,42.483,16.35,42.75,16.05z"/>
		</g>
	</g>
	<g>
		<g>
			<path style="fill-rule:evenodd;clip-rule:evenodd;fill:#54585B;" d="M44.05,26.7c0.434-0.267,0.817-0.184,1.15,0.25
				c0.333,0.4,0.216,0.733-0.35,1c-0.667,0.167-1.033,0.033-1.1-0.4C43.683,27.15,43.783,26.867,44.05,26.7z"/>
		</g>
	</g>
	<g>
		<g>
			<path style="fill-rule:evenodd;clip-rule:evenodd;fill:#54585B;" d="M38.1,6.6c0.533-0.4,0.983-0.383,1.35,0.05
				c0.333,0.434,0.233,0.783-0.3,1.05c-0.5,0.267-0.867,0.216-1.1-0.15C37.783,7.183,37.8,6.867,38.1,6.6z"/>
		</g>
	</g>
	<g>
		<g>
			<path style="fill-rule:evenodd;clip-rule:evenodd;fill:#54585B;" d="M65.1,16.35c0.534-0.4,0.983-0.383,1.351,0.05
				c0.333,0.434,0.233,0.783-0.3,1.05c-0.5,0.267-0.867,0.216-1.101-0.15C64.783,16.933,64.8,16.617,65.1,16.35z"/>
		</g>
	</g>
	<g>
		<g>
			<path style="fill-rule:evenodd;clip-rule:evenodd;fill:#54585B;" d="M64.45,44.65c0.3-0.033,0.483,0.067,0.55,0.3
				c0.033,0.233-0.083,0.35-0.35,0.35c-0.233,0-0.367-0.1-0.4-0.3S64.283,44.683,64.45,44.65z"/>
		</g>
	</g>
	<g>
		<g>
			<path style="fill-rule:evenodd;clip-rule:evenodd;fill:#7E8386;" d="M77.2,20.5c0.399-0.7,0.883-0.883,1.45-0.55
				c0.566,0.3,0.649,0.7,0.25,1.2c-0.467,0.533-0.917,0.65-1.351,0.35C77.15,21.233,77.033,20.9,77.2,20.5z"/>
		</g>
	</g>
	<g>
		<g>
			<path style="fill-rule:evenodd;clip-rule:evenodd;fill:#7E8386;" d="M73.4,43.6c0.366-0.567,0.699-0.7,1-0.4
				c0.366,0.333,0.416,0.566,0.149,0.7c-0.166,0.333-0.416,0.45-0.75,0.35C73.467,44.15,73.333,43.933,73.4,43.6z"/>
		</g>
	</g>
	<g>
		<g>
			<path style="fill-rule:evenodd;clip-rule:evenodd;fill:#7E8386;" d="M78.4,66c0.199-0.367,0.55-0.467,1.05-0.3
				c0.467,0.133,0.5,0.45,0.1,0.95c-0.366,0.333-0.7,0.383-1,0.15C78.217,66.533,78.167,66.267,78.4,66z"/>
		</g>
	</g>
	<g>
		<g>
			<path style="fill-rule:evenodd;clip-rule:evenodd;fill:#7E8386;" d="M76.95,103.35c0.3-0.366,0.633-0.416,1-0.149
				c0.366,0.233,0.333,0.5-0.101,0.8c-0.267,0.233-0.533,0.233-0.8,0C76.75,103.8,76.717,103.583,76.95,103.35z"/>
		</g>
	</g>
	<g>
		<g>
			<path style="fill-rule:evenodd;clip-rule:evenodd;fill:#7E8386;" d="M71.15,110.15c0.5-0.567,0.933-0.634,1.3-0.2
				c0.366,0.399,0.333,0.717-0.101,0.95c-0.366,0.333-0.716,0.366-1.05,0.1C70.934,110.733,70.884,110.45,71.15,110.15z"/>
		</g>
	</g>
	<g>
		<g>
			<path style="fill-rule:evenodd;clip-rule:evenodd;fill:#7E8386;" d="M71.25,104c0.2-0.233,0.434-0.25,0.7-0.05
				c0.233,0.2,0.2,0.399-0.101,0.6c-0.166,0.134-0.366,0.117-0.6-0.05C71.05,104.333,71.05,104.167,71.25,104z"/>
		</g>
	</g>
	<g>
		<g>
			<path style="fill-rule:evenodd;clip-rule:evenodd;fill:#7E8386;" d="M77.2,111.4c0.3-0.034,0.483,0.066,0.55,0.3
				c0.033,0.233-0.083,0.35-0.35,0.35c-0.233,0-0.367-0.1-0.4-0.3S77.033,111.434,77.2,111.4z"/>
		</g>
	</g>
	<g>
		<g>
			<path style="fill-rule:evenodd;clip-rule:evenodd;fill:#7E8386;" d="M76.9,124.95c0.566-0.5,1.066-0.517,1.5-0.05
				c0.433,0.5,0.383,0.933-0.15,1.3c-0.7,0.366-1.184,0.316-1.45-0.15C76.533,125.616,76.566,125.25,76.9,124.95z"/>
		</g>
	</g>
	<g>
		<g>
			<path style="fill-rule:evenodd;clip-rule:evenodd;fill:#7E8386;" d="M76.6,120.1c0.301-0.166,0.5-0.133,0.601,0.101
				c0.1,0.233,0.05,0.383-0.15,0.45c-0.333,0.1-0.517,0.05-0.55-0.15C76.434,120.3,76.467,120.167,76.6,120.1z"/>
		</g>
	</g>
	<g>
		<g>
			<path style="fill-rule:evenodd;clip-rule:evenodd;fill:#7E8386;" d="M83.8,122.45c0.434-0.367,0.8-0.367,1.101,0
				c0.333,0.366,0.3,0.666-0.101,0.899c-0.467,0.267-0.8,0.25-1-0.05C83.566,122.967,83.566,122.684,83.8,122.45z"/>
		</g>
	</g>
	<g>
		<g>
			<path style="fill-rule:evenodd;clip-rule:evenodd;fill:#7E8386;" d="M82.9,144c0.033-0.167,0.216-0.25,0.55-0.25
				c0.3-0.033,0.366,0.167,0.2,0.6c-0.233,0.267-0.45,0.317-0.65,0.15S82.767,144.167,82.9,144z"/>
		</g>
	</g>
	<g>
		<g>
			<path style="fill-rule:evenodd;clip-rule:evenodd;fill:#7E8386;" d="M83.65,139.8c0.433-0.399,0.783-0.434,1.05-0.1
				c0.267,0.3,0.233,0.55-0.101,0.75c-0.267,0.233-0.533,0.25-0.8,0.05S83.483,140.066,83.65,139.8z"/>
		</g>
	</g>
	<g>
		<g>
			<path style="fill-rule:evenodd;clip-rule:evenodd;fill:#7E8386;" d="M82.1,163c0.134-0.2,0.334-0.217,0.601-0.05
				c0.267,0.166,0.267,0.366,0,0.6c-0.4,0.2-0.634,0.184-0.7-0.05C81.967,163.333,82,163.167,82.1,163z"/>
		</g>
	</g>
	<g>
		<g>
			<path style="fill-rule:evenodd;clip-rule:evenodd;fill:#7E8386;" d="M86.2,169.65c0.3-0.034,0.483,0.066,0.55,0.3
				c0.033,0.233-0.083,0.35-0.35,0.35c-0.233,0-0.367-0.1-0.4-0.3S86.033,169.684,86.2,169.65z"/>
		</g>
	</g>
	<g>
		<g>
			<path style="fill-rule:evenodd;clip-rule:evenodd;fill:#7E8386;" d="M85,181.35c0.434-0.333,0.983-0.233,1.65,0.301
				c0.666,0.5,0.517,1.033-0.45,1.6c-1,0.2-1.566-0.017-1.7-0.65C84.4,181.967,84.566,181.55,85,181.35z"/>
		</g>
	</g>
	<g>
		<g>
			<path style="fill-rule:evenodd;clip-rule:evenodd;fill:#7E8386;" d="M71.7,51.1c0.7-0.267,0.883-0.133,0.55,0.4
				c-0.167,0.133-0.333,0.133-0.5,0C71.583,51.4,71.566,51.267,71.7,51.1z"/>
		</g>
	</g>
	<g>
		<g>
			<path style="fill-rule:evenodd;clip-rule:evenodd;fill:#7E8386;" d="M72.65,34.65c0.5-0.566,0.933-0.633,1.3-0.2
				c0.366,0.4,0.333,0.716-0.101,0.95c-0.366,0.333-0.716,0.367-1.05,0.1C72.434,35.233,72.384,34.95,72.65,34.65z"/>
		</g>
	</g>
	<g>
		<g>
			<path style="fill-rule:evenodd;clip-rule:evenodd;fill:#7E8386;" d="M73.85,8.6C74.717,8.033,75.4,8.117,75.9,8.85
				c0.466,0.767,0.3,1.333-0.5,1.7c-0.934,0.333-1.551,0.167-1.851-0.5C73.25,9.417,73.35,8.933,73.85,8.6z"/>
		</g>
	</g>
</g>
</svg>
