<?xml version="1.0" encoding="iso-8859-1"?>
<!-- Generator: Adobe Illustrator 15.1.0, SVG Export Plug-In . SVG Version: 6.00 Build 0)  -->
<!DOCTYPE svg PUBLIC "-//W3C//DTD SVG 1.1//EN" "http://www.w3.org/Graphics/SVG/1.1/DTD/svg11.dtd">
<svg version="1.1" id="buildings_1" xmlns="http://www.w3.org/2000/svg" xmlns:xlink="http://www.w3.org/1999/xlink" x="0px"
	 y="0px" width="117.5px" height="198.2px" viewBox="0 0 117.5 198.2" style="enable-background:new 0 0 117.5 198.2;"
	 xml:space="preserve">
<g>
	<g>
		<g>
			<path style="fill-rule:evenodd;clip-rule:evenodd;fill:#DC8D68;" d="M45.65,38.55c-1.333,17.867,0.5,28.05,5.5,30.55
				c2.167,1.1,5.217,2.1,9.15,3c4.167,0.967,7,1.783,8.5,2.45c5.9,2.567,9.117,8.534,9.65,17.9c0.767,13,1.3,31.684,1.6,56.05
				c0.334,26.134,0.033,39.667-0.899,40.6c-1.301,1.301-4.051,1.867-8.25,1.7c-4.7-0.233-7.95-1.684-9.75-4.35
				c-0.467-40.434-0.917-67.983-1.351-82.65c-0.133-4.933-1.833-8.8-5.1-11.6c-2.233-1.934-5.833-3.7-10.8-5.3
				c-5.933-1.967-9.667-3.367-11.2-4.2c-3.567-2-5.65-4.75-6.25-8.25c-1.1-6.667-1.65-19-1.65-37c0-9,0.117-17.333,0.35-25h24
				C47.483,20.883,46.317,29.583,45.65,38.55z"/>
			<g>
				<path style="fill-rule:evenodd;clip-rule:evenodd;fill:#C46544;" d="M61.65,102.95L61.5,123.35
					c-0.1,14.167-0.116,22.7-0.05,25.601l1,28.649l2.7,1.851c0.533,0.333,1.199,0.383,2,0.149c-2-18.1-3.117-28.433-3.351-31
					L61.65,102.95z M30.65,79.15c1.267,1.267,2.85,2.4,4.75,3.4c1.733,0.934,4.667,2.1,8.8,3.5c2.2,0.733,5.1,1.7,8.7,2.9
					c1.7,0.633,3.3,2.05,4.8,4.25c0.733,1.1,1.3,2.133,1.7,3.1c-0.301-0.966-0.551-1.867-0.75-2.7c-0.367-1.667-0.2-2.133,0.5-1.4
					c1.066,1.167,1.933,2.783,2.6,4.85c-0.233-1.667-0.483-2.917-0.75-3.75c-0.167-0.667-0.717-1.583-1.65-2.75
					c-0.966-1.233-1.866-2.15-2.7-2.75c-1.333-0.933-5.883-2.433-13.65-4.5c-2.6-0.667-5.167-1.733-7.7-3.2l-3.05-2.05
					c-0.7-0.7-1.5-1.283-2.4-1.75c-0.967-0.5-1.333-0.45-1.1,0.15C29.083,77.25,29.717,78.15,30.65,79.15z M29.25,46.45L29,20.8
					c-1.067-0.5-1.683-0.917-1.85-1.25c-0.433,21.934-0.65,34.067-0.65,36.4c0,2.333,0.333,6.7,1,13.1
					c0.1,0.934,0.267,1.983,0.5,3.15c-0.033-0.7-0.033-1.4,0-2.1c0.067-1.434,0.317-2.15,0.75-2.15s0.9,0.75,1.4,2.25
					C29.65,59.7,29.35,51.783,29.25,46.45z M48.45,16.1l-0.5,3.2c-1.867,1.4-4.434,2.233-7.7,2.5c-2.333,0.2-4.65,0.167-6.95-0.1
					l-2.8-0.5c0.1,6.3,0.25,12.966,0.45,20c0.4,14.1,0.833,23.017,1.3,26.75c0.533,4.1,2.15,7.216,4.85,9.35
					c1.9,1.5,5.083,2.934,9.55,4.3c6.5,2,10.5,3.45,12,4.35c4.433,2.667,6.933,6.833,7.5,12.5c0.8,7.833,1.666,35.333,2.6,82.5
					c-0.767,0.133-1.667,0.2-2.7,0.2c-2.066,0-3.733-0.317-5-0.95c-0.333-34.533-0.75-60-1.25-76.4c-0.133-4.933-1.833-8.8-5.1-11.6
					c-2.233-1.934-5.833-3.7-10.8-5.3c-5.933-1.967-9.667-3.367-11.2-4.2c-3.567-2-5.65-4.75-6.25-8.25
					c-0.967-5.8-1.517-15.983-1.65-30.55c-0.066-8.967,0.017-18.417,0.25-28.35l13.35,0.9L48.45,16.1z"/>
				<path style="fill-rule:evenodd;clip-rule:evenodd;fill:#C46544;" d="M27.15,19.55c0.167,0.333,0.783,0.75,1.85,1.25l0.25,25.65
					c0.1,5.333,0.4,13.25,0.9,23.75c-0.5-1.5-0.967-2.25-1.4-2.25S28.067,68.667,28,70.1c-0.033,0.7-0.033,1.4,0,2.1
					c-0.233-1.167-0.4-2.217-0.5-3.15c-0.667-6.4-1-10.767-1-13.1C26.5,53.617,26.717,41.483,27.15,19.55z"/>
				<path style="fill-rule:evenodd;clip-rule:evenodd;fill:#A3573C;" d="M27.15,19.55c0.167,0.333,0.783,0.75,1.85,1.25l0.25,25.65
					c0.1,5.333,0.4,13.25,0.9,23.75c-0.5-1.5-0.967-2.25-1.4-2.25S28.067,68.667,28,70.1c-0.033,0.7-0.033,1.4,0,2.1
					c-0.233-1.167-0.4-2.217-0.5-3.15c-0.667-6.4-1-10.767-1-13.1C26.5,53.617,26.717,41.483,27.15,19.55z"/>
				<path style="fill-rule:evenodd;clip-rule:evenodd;fill:#C46544;" d="M35.4,82.55c-1.9-1-3.483-2.133-4.75-3.4
					c-0.933-1-1.566-1.9-1.9-2.7c-0.233-0.6,0.133-0.65,1.1-0.15c0.9,0.467,1.7,1.05,2.4,1.75l3.05,2.05
					c2.534,1.467,5.1,2.533,7.7,3.2c7.767,2.067,12.317,3.567,13.65,4.5c0.833,0.6,1.734,1.517,2.7,2.75
					c0.934,1.167,1.483,2.083,1.65,2.75c0.267,0.833,0.517,2.083,0.75,3.75c-0.667-2.066-1.533-3.683-2.6-4.85
					c-0.7-0.733-0.867-0.267-0.5,1.4c0.199,0.833,0.449,1.733,0.75,2.7c-0.4-0.966-0.967-2-1.7-3.1c-1.5-2.2-3.1-3.617-4.8-4.25
					c-3.6-1.2-6.5-2.167-8.7-2.9C40.067,84.65,37.133,83.483,35.4,82.55z"/>
				<path style="fill-rule:evenodd;clip-rule:evenodd;fill:#A3573C;" d="M35.4,82.55c-1.9-1-3.483-2.133-4.75-3.4
					c-0.933-1-1.566-1.9-1.9-2.7c-0.233-0.6,0.133-0.65,1.1-0.15c0.9,0.467,1.7,1.05,2.4,1.75l3.05,2.05
					c2.534,1.467,5.1,2.533,7.7,3.2c7.767,2.067,12.317,3.567,13.65,4.5c0.833,0.6,1.734,1.517,2.7,2.75
					c0.934,1.167,1.483,2.083,1.65,2.75c0.267,0.833,0.517,2.083,0.75,3.75c-0.667-2.066-1.533-3.683-2.6-4.85
					c-0.7-0.733-0.867-0.267-0.5,1.4c0.199,0.833,0.449,1.733,0.75,2.7c-0.4-0.966-0.967-2-1.7-3.1c-1.5-2.2-3.1-3.617-4.8-4.25
					c-3.6-1.2-6.5-2.167-8.7-2.9C40.067,84.65,37.133,83.483,35.4,82.55z"/>
				<path style="fill-rule:evenodd;clip-rule:evenodd;fill:#C46544;" d="M61.5,123.35l0.15-20.399L63.8,148.6
					c0.233,2.567,1.351,12.9,3.351,31c-0.801,0.233-1.467,0.184-2-0.149l-2.7-1.851l-1-28.649
					C61.384,146.05,61.4,137.517,61.5,123.35z"/>
				<path style="fill-rule:evenodd;clip-rule:evenodd;fill:#A3573C;" d="M61.5,123.35l0.15-20.399L63.8,148.6
					c0.233,2.567,1.351,12.9,3.351,31c-0.801,0.233-1.467,0.184-2-0.149l-2.7-1.851l-1-28.649
					C61.384,146.05,61.4,137.517,61.5,123.35z"/>
				<path style="fill-rule:evenodd;clip-rule:evenodd;fill:#E9BB99;" d="M45.15,23.3c-0.433,3.6-0.85,7.583-1.25,11.95
					c-0.8,8.733-1.117,15.083-0.95,19.05c0.2,4.7,0.983,8.8,2.35,12.3c0.7,1.767,1.367,3.05,2,3.85
					c-1.333-0.733-2.683-1.95-4.05-3.65c-2.733-3.4-4.167-7.466-4.3-12.2c-0.2-7.533-0.534-17.583-1-30.15
					c1.966,0.633,3.75,0.633,5.35,0C44.133,24.117,44.75,23.733,45.15,23.3z"/>
				<path style="fill-rule:evenodd;clip-rule:evenodd;fill:#E9BB99;" d="M75.45,95.8c-0.467-0.3-1.117-0.117-1.95,0.55
					c-0.4,0.333-0.75,0.7-1.05,1.1c-0.9-6.367-1.733-11.2-2.5-14.5c-0.467-2.133-2.25-4.367-5.351-6.7l-4.449-2.8
					c2.5,0.333,4.949,1.05,7.35,2.15c3.767,1.733,6.25,4.066,7.45,7c1.133,2.667,1.833,6.117,2.1,10.35
					c0.167,2.1,0.2,3.933,0.101,5.5C76.816,97.117,76.25,96.233,75.45,95.8z"/>
				<path style="fill-rule:evenodd;clip-rule:evenodd;fill:#E9BB99;" d="M75.15,110.2c1.666-1.134,2.8,9.816,3.399,32.85
					c0.267,11.533,0.384,23.167,0.351,34.9l-2.5,1c-0.667,0.333-1.5,0.5-2.5,0.5c0.333-9.667,0.5-17,0.5-22L75.15,110.2z"/>
			</g>
		</g>
		<path style="fill-rule:evenodd;clip-rule:evenodd;fill:#CD6C49;" d="M42.3,2.55c3.733,0.6,5.95,1.017,6.65,1.25
			c2.233,0.833,3.383,2.25,3.45,4.25c0.033,1.167-0.217,2.9-0.75,5.2c-0.566,2.533-1.15,3.983-1.75,4.35
			c-2.033,1.3-4.6,2.217-7.7,2.75c-4.9,0.867-9.75,0.316-14.55-1.65c-0.6-0.233-1.066-0.45-1.4-0.65
			c-0.367-0.267-0.717-0.5-1.05-0.7c-1.4-0.833-2.333-2.684-2.8-5.55c-0.4-2.633-0.316-5.033,0.25-7.2
			c0.233-0.833,2.567-1.517,7-2.05C34.35,1.95,38.567,1.95,42.3,2.55z"/>
		<path style="fill-rule:evenodd;clip-rule:evenodd;fill:#CD6C49;" d="M55.65,190.7c0.333-3.334,0.667-5.75,1-7.25
			c0.2-0.934,1-2,2.4-3.2l2-1.55l2.601,1.2c2.133,0.8,4.3,1.149,6.5,1.05c3.5-0.167,6.816-0.867,9.949-2.101L81.45,180
			c1,1,1.649,2.066,1.95,3.2c0.5,1.833,0.75,4.416,0.75,7.75c-0.967,0.5-2.267,0.983-3.9,1.45c-3.3,0.966-6.667,1.399-10.1,1.3
			c-3.867-0.134-7.434-0.667-10.7-1.601L55.65,190.7z"/>
		<g>
			<path style="fill-rule:evenodd;clip-rule:evenodd;fill:#AD5E40;" d="M59.45,192.1l-3.8-1.399c0.333-3.334,0.667-5.75,1-7.25
				c0.2-0.934,1-2,2.4-3.2l2-1.55l2.15,1.05c1.833,0.733,3.684,1.134,5.55,1.2l-2.15,1.55c-1.5,1.267-2.316,2.417-2.449,3.45
				c-0.267,1.666-0.483,3.616-0.65,5.85l3.1,0.7c2.367,0.434,4.334,0.616,5.9,0.55c2.333-0.066,6.217-0.916,11.65-2.55v0.45
				c-0.967,0.5-2.267,0.983-3.9,1.45c-3.3,0.966-6.667,1.399-10.1,1.3C66.283,193.566,62.717,193.033,59.45,192.1z M59.5,182.8
				c-0.833,1-1.333,2.884-1.5,5.65l3.9,1.35c0-1.666,0.199-3.2,0.6-4.6c0.267-0.9,0.767-1.717,1.5-2.45l1-0.8
				c-0.634,0.133-1.366,0.066-2.2-0.2l-1.05-0.45c-0.167,0-0.384,0.066-0.65,0.2C60.566,181.733,60.033,182.167,59.5,182.8z"/>
			<path style="fill-rule:evenodd;clip-rule:evenodd;fill:#D98560;" d="M79.15,189.1c0.233-0.699,0.183-1.833-0.15-3.399
				c-0.2-1-0.55-1.95-1.05-2.851l-0.7-1.05c1.2-0.366,2.083-0.434,2.65-0.2c0.533,0.167,1.116,0.733,1.75,1.7
				c0.833,1.267,1.166,2.816,1,4.65L79.15,189.1z"/>
			<path style="fill-rule:evenodd;clip-rule:evenodd;fill:#7F4A34;" d="M58,188.45c0.167-2.767,0.667-4.65,1.5-5.65
				c0.533-0.633,1.066-1.066,1.6-1.3c0.267-0.134,0.483-0.2,0.65-0.2l1.05,0.45c0.834,0.267,1.566,0.333,2.2,0.2l-1,0.8
				c-0.733,0.733-1.233,1.55-1.5,2.45c-0.4,1.399-0.6,2.934-0.6,4.6L58,188.45z"/>
		</g>
		<path style="fill-rule:evenodd;clip-rule:evenodd;fill:#D98560;" d="M47.95,12.7c0.9-0.1,1.933-0.55,3.1-1.35
			c-0.433,2.967-0.883,4.75-1.35,5.35c-0.434,0.6-1.434,1.133-3,1.6c0.466-0.633,0.8-1.367,1-2.2c0.133-0.533,0.216-1.25,0.25-2.15
			V12.7z"/>
		<g>
			<path style="fill-rule:evenodd;clip-rule:evenodd;fill:#AD5E40;" d="M42.95,20.1l0.25,0.05c-5.267,1.133-10.45,0.65-15.55-1.45
				c-0.6-0.233-1.066-0.45-1.4-0.65c-0.367-0.267-0.717-0.5-1.05-0.7c-1.4-0.833-2.333-2.684-2.8-5.55
				c-0.4-2.633-0.316-5.033,0.25-7.2c0-0.067,0.067-0.167,0.2-0.3l5.05,4.5c-0.233,0.034-0.483,0.167-0.75,0.4
				c-0.467,0.4-0.717,1.017-0.75,1.85l-0.15,1.3c0,1.066,0.317,2.133,0.95,3.2c0.667,1.133,1.917,2.1,3.75,2.9
				c1.4,0.6,2.9,1.017,4.5,1.25C38.483,20.1,40.983,20.233,42.95,20.1z"/>
		</g>
		<path style="fill-rule:evenodd;clip-rule:evenodd;fill:#E9BB99;" d="M44.65,0.7c2.7,0.6,4.75,1.667,6.15,3.2
			c1.167,1.267,1.7,2.617,1.6,4.05c-0.233,3.033-5.683,4.483-16.35,4.35c-5.667-0.1-9.633-1.267-11.9-3.5
			c-1.7-1.7-2.183-3.183-1.45-4.45c1.333-2.233,4.75-3.6,10.25-4.1C37.417-0.183,41.317-0.033,44.65,0.7z"/>
		<path style="fill-rule:evenodd;clip-rule:evenodd;fill:#652A33;" d="M47.75,3.8c1.033,0.9,1.55,1.833,1.55,2.8
			c0,2.3-2.95,3.7-8.85,4.2c-3.8,0.333-7.317-0.133-10.55-1.4c-2.667-1.033-4.167-2.05-4.5-3.05c-0.2-0.633-0.117-1.25,0.25-1.85
			c0.2-0.3,0.417-0.533,0.65-0.7c1.333-1.1,3-1.8,5-2.1c1.8-0.3,4.767-0.383,8.9-0.25C43.633,1.55,46.15,2.333,47.75,3.8z"/>
	</g>
	<path style="fill-rule:evenodd;clip-rule:evenodd;fill:#A2BDA2;" d="M19.75,48.35l5.05-6.6l0.05,6.2c-0.033,1,0.05,4.267,0.25,9.8
		l-1.65,4.5c-1.267,3.667-2.233,7.117-2.9,10.35c-2.167,10.333-1.066,16.533,3.3,18.6c4.367,2.1,9.717,2.316,16.05,0.65
		c3.167-0.833,5.9-1.883,8.2-3.15c4.6,1.566,7.85,4.033,9.75,7.4c0.966,1.7,1.466,3.233,1.5,4.6c-3.3,1.366-7.316,2.55-12.05,3.55
		c-9.5,1.934-17.9,1.917-25.2-0.05c-4.967-1.367-8.55-4.434-10.75-9.2c-1.833-3.967-2.667-8.883-2.5-14.75
		c-0.067-3.433-0.133-6.05-0.2-7.85c-0.167-3.233-0.433-5.55-0.8-6.95c-0.467-1.767-1.917-3.317-4.35-4.65L0,59.3
		c0.9-0.033,1.95,0.167,3.15,0.6c2.434,0.833,4.467,2.434,6.1,4.8c0.567,0.8,1.033,1.7,1.4,2.7c0.267-1.233,0.667-2.633,1.2-4.2
		C13.417,58.633,16.05,53.683,19.75,48.35z"/>
	<path style="fill-rule:evenodd;clip-rule:evenodd;fill:#A2BDA2;" d="M78.45,91.1c-0.066-1.3-0.316-2.917-0.75-4.85l-0.601-2.5
		l3.7,1.45c2.967,1.3,5.717,2.85,8.25,4.65c8.033,5.733,12.3,12.766,12.8,21.1c0.233,3.8-0.55,7.333-2.35,10.6
		c1.134-0.133,1.967-0.166,2.5-0.1c1.2,0.1,1.717,1.566,1.55,4.399c-0.267,3.7-0.2,6.017,0.2,6.95c0.7,1.733,1.65,2.816,2.85,3.25
		c1.067,0.4,2.067,0.2,3-0.6c0.367-0.3,0.95-1.101,1.75-2.4c0.567-0.899,1.284-1.399,2.15-1.5c0.934-0.1,1.884,0.601,2.85,2.101
		c0.467,0.767,0.851,1.533,1.15,2.3c-0.434-0.566-0.934-1.134-1.5-1.7c-1.134-1.066-2.017-1.5-2.65-1.3
		c-0.133,0.033-0.85,0.967-2.149,2.8c-1.101,1.566-2.467,2.25-4.101,2.05c-2.066-0.267-3.75-1.116-5.05-2.55
		c-1.333-1.434-1.934-3.116-1.8-5.05c0.1-1.733-0.833-2.467-2.8-2.2c-1.4,0.167-3.467,0.9-6.2,2.2c-0.5,0.233-0.866,0.316-1.1,0.25
		c-4.367,2.366-9.634,3.866-15.801,4.5c-7.966,0.767-13.1,2.633-15.399,5.6c-1.967,2.5-1.917,5.884,0.149,10.15
		c1.267,2.6,4.034,9.833,8.301,21.7c4.3,11.066,7.699,17.5,10.199,19.3c4.167,3,7.75,5.166,10.75,6.5
		c-2.833-1.066-5.783-2.101-8.85-3.101c-6.134-1.966-9.767-2.683-10.9-2.149c-1.133,0.533-3.066,1.517-5.8,2.95
		c-1.333,0.733-2.566,1.416-3.7,2.05c-0.166-0.566-0.583-1.134-1.25-1.7c-1.333-1.134-3.25-1.65-5.75-1.55
		c-2.5,0.1-4.917,0.666-7.25,1.7l-2.75,1.55c-0.067-0.533-0.3-1.084-0.7-1.65c-0.8-1.133-1.983-1.75-3.55-1.85
		c-1.567-0.101-4.583,0.283-9.05,1.149l-6.2,1.351c2.333-1.7,4.85-3.917,7.55-6.65c5.367-5.467,8.934-10.75,10.7-15.85
		c0.566-1.566,0.583-3.533,0.05-5.9c-0.433-1.866-1.267-4.267-2.5-7.2c-1.867-2.733-3.8-5.3-5.8-7.699
		c-2.667-3.134-4.533-4.75-5.6-4.851c-1-0.1-1.983,1.117-2.95,3.65c-1.033,2.733-1.883,4.233-2.55,4.5
		c-0.933,0.366-1.967-0.033-3.1-1.2l-1.4-1.8l1.05,0.899c0.9,0.567,1.8,0.851,2.7,0.851c0.467,0,1.083-1.717,1.85-5.15
		c0.8-3.467,2.183-5.3,4.15-5.5c1.767-0.166,3.7,0.517,5.8,2.05c-1.466-4.366-1.95-8.083-1.45-11.149
		c0.833-5.233,7.8-9.517,20.9-12.851c3.4-0.866,8.6-1.966,15.6-3.3c6-1.133,9.917-2,11.75-2.6c3.767-1.233,4.834-4.101,3.2-8.601
		c-0.533-1.399-1.283-2.883-2.25-4.449l-1.35-1.9L78.45,91.1z"/>
	<g>
		<path style="fill-rule:evenodd;clip-rule:evenodd;fill:#A2BDA2;" d="M45.85,35.45l3.95-1.7c2.733-1.333,4.417-2.517,5.05-3.55
			c0.7-1.167,0.167-2.15-1.6-2.95c-1.633-0.7-3.683-1.05-6.15-1.05c-9.567,0-14.717-0.017-15.45-0.05
			c-8.167-0.433-12.6-1.667-13.3-3.7c-0.467-1.4,0.267-2.967,2.2-4.7c0.967-0.867,1.983-1.583,3.05-2.15l0.35,0.55
			c0.3,0.434,0.65,0.817,1.05,1.15v1.65c-0.6,0.267-1.067,0.583-1.4,0.95c-0.7,0.8-0.367,1.567,1,2.3c1.3,0.7,4.767,0.966,10.4,0.8
			c3.167-0.1,7.95-0.283,14.35-0.55c4.367,0,7.783,1.05,10.25,3.15c2.567,2.167,3.233,4.783,2,7.85c-1.033,2.6-4.05,5.633-9.05,9.1
			c-2.5,1.733-4.9,3.2-7.2,4.4c-0.167-2.167-0.167-4.083,0-5.75L45.85,35.45z"/>
		<g>
			<path style="fill-rule:evenodd;clip-rule:evenodd;fill:#89AA8B;" d="M53.25,27.25c-1.633-0.7-3.683-1.05-6.15-1.05
				c-9.567,0-14.717-0.017-15.45-0.05c-8.167-0.433-12.6-1.667-13.3-3.7c-0.467-1.4,0.267-2.967,2.2-4.7
				c0.967-0.867,1.983-1.583,3.05-2.15l0.65,0.95l-0.3,0.2c-2.8,2.267-3.583,4.267-2.35,6c0.733,1.033,3.867,1.65,9.4,1.85
				c2.8,0.133,7.733,0.133,14.8,0c4.333-0.1,7.583,0.467,9.75,1.7c2.1,1.2,2.9,2.85,2.4,4.95c-0.333,1.433-2.083,3.25-5.25,5.45
				c-2.067,1.433-4.517,2.917-7.35,4.45l0.5-5.7l3.95-1.7c2.733-1.333,4.417-2.517,5.05-3.55C55.55,29.033,55.017,28.05,53.25,27.25
				z"/>
		</g>
	</g>
	<g>
		<path style="fill-rule:evenodd;clip-rule:evenodd;fill:#A2BDA2;" d="M51.6,13.75l9.05,1.9c6.3,1.867,10.183,4.4,11.649,7.6
			c1.733,3.8,1.684,8.3-0.149,13.5c-1.801,5.133-4.817,9.467-9.051,13c-3.366,2.833-7.566,5.65-12.6,8.45
			c-5,2.6-8.25,4.367-9.75,5.3c-3.367,2.133-6.383,4.783-9.05,7.95c-3.6,4.3-4.733,7.8-3.4,10.5c0.8,1.633,2.317,2.5,4.55,2.6
			c1.1,0.067,2.133-0.033,3.1-0.3l3,1.2c-1.5,0.566-3.133,0.95-4.9,1.15c-3.6,0.4-6.133-0.3-7.6-2.1
			c-2.2-2.667-2.617-5.617-1.25-8.85c1-2.433,3.25-5.4,6.75-8.9c1.9-1.9,7.083-5.383,15.55-10.45
			c8.267-4.933,13.25-8.333,14.95-10.2c2.533-2.8,4.45-6.533,5.75-11.2c1.3-4.733,1.333-8.333,0.1-10.8
			c-1.033-2.067-4.316-3.883-9.85-5.45l-8-1.7C50.883,16.483,51.267,15.417,51.6,13.75z"/>
		<g>
			<path style="fill-rule:evenodd;clip-rule:evenodd;fill:#89AA8B;" d="M60.8,17.7c4.2,1.4,6.917,2.816,8.15,4.25
				c1.666,1.966,2.316,4.9,1.95,8.8c-0.334,3.267-1.267,6.433-2.801,9.5c-2.366,4.8-6.25,9.033-11.649,12.7
				c-0.967,0.633-4.65,2.7-11.05,6.2c-5.367,2.934-9.017,5.3-10.95,7.1c-2.733,2.567-4.75,4.8-6.05,6.7
				c-1.533,2.233-2.3,4.283-2.3,6.15c0,3.2,1.783,5.367,5.35,6.5c1.033,0.3,2.133,0.367,3.3,0.2c0.767-0.133,1.75-0.417,2.95-0.85
				l1.25,0.5c-1.5,0.566-3.133,0.95-4.9,1.15c-3.6,0.4-6.133-0.3-7.6-2.1c-2.2-2.667-2.617-5.617-1.25-8.85
				c1-2.433,3.25-5.4,6.75-8.9c1.9-1.9,7.083-5.383,15.55-10.45c8.267-4.933,13.25-8.333,14.95-10.2c2.533-2.8,4.45-6.533,5.75-11.2
				c1.3-4.733,1.333-8.333,0.1-10.8c-1.033-2.067-4.316-3.883-9.85-5.45l-8-1.7c0.233-0.267,0.483-0.833,0.75-1.7
				C54.733,15.95,57.933,16.767,60.8,17.7z"/>
		</g>
	</g>
	<g>
		<path style="fill-rule:evenodd;clip-rule:evenodd;fill:#89AA8B;" d="M19.75,48.35l5.05-6.6l0.1,8.95
			c-1.267,1.6-2.367,3.35-3.3,5.25c-6.1,12.367-8.65,22.25-7.65,29.65c0.633,4.667,2.783,8.333,6.45,11
			c3.167,2.3,6.9,3.516,11.2,3.65c4.233,0.134,8.933-0.6,14.1-2.2c3.566-1.133,7.066-2.566,10.5-4.3c0.633,0.733,1.183,1.5,1.65,2.3
			c-3.833,1.567-7.583,2.883-11.25,3.95c-5.867,1.634-10.617,2.283-14.25,1.95c-5.633-0.533-10.117-1.967-13.45-4.3
			c-3.9-2.667-6.083-6.4-6.55-11.2c-0.434-4.5-0.184-8.967,0.75-13.4c0.533-2.533,1.533-5.816,3-9.85
			c0.833-2.3,2.333-5.317,4.5-9.05l3-4.95l-4.2,5.15c-3.066,4.233-5.333,8.433-6.8,12.6c-1.767,5.033-2.7,9.633-2.8,13.8
			c-0.066,4.233,0.7,8.217,2.3,11.95c1.733,3.966,4.25,6.85,7.55,8.649c3.733,1.967,8.883,2.834,15.45,2.601
			c7.8-0.3,15.783-1.983,23.95-5.05c0.2,0.733,0.3,1.333,0.3,1.8c-3.3,1.366-7.316,2.55-12.05,3.55c-9.5,1.934-17.9,1.917-25.2-0.05
			c-4.967-1.367-8.55-4.434-10.75-9.2c-1.833-3.967-2.667-8.883-2.5-14.75c-0.067-3.433-0.133-6.05-0.2-7.85
			c-0.167-3.233-0.433-5.55-0.8-6.95c-0.467-1.767-1.917-3.317-4.35-4.65L0,59.3c0.9-0.033,1.95,0.167,3.15,0.6
			c2.434,0.833,4.467,2.434,6.1,4.8c0.567,0.8,1.033,1.7,1.4,2.7c0.267-1.233,0.667-2.633,1.2-4.2
			C13.417,58.633,16.05,53.683,19.75,48.35z"/>
		<path style="fill-rule:evenodd;clip-rule:evenodd;fill:#6B8B6F;" d="M12.1,92.7c-1.6-3.733-2.367-7.717-2.3-11.95
			c0.1-4.167,1.034-8.767,2.8-13.8c1.467-4.167,3.733-8.367,6.8-12.6l4.2-5.15l-3,4.95c-2.167,3.733-3.667,6.75-4.5,9.05
			c-1.467,4.033-2.467,7.316-3,9.85c-0.934,4.434-1.184,8.9-0.75,13.4c0.467,4.8,2.65,8.533,6.55,11.2
			c3.333,2.333,7.817,3.767,13.45,4.3c3.633,0.333,8.383-0.316,14.25-1.95c3.667-1.067,7.417-2.383,11.25-3.95
			c0.5,0.9,0.9,1.85,1.2,2.85c-8.167,3.067-16.15,4.75-23.95,5.05c-6.567,0.233-11.717-0.634-15.45-2.601
			C16.35,99.55,13.833,96.667,12.1,92.7z"/>
		<path style="fill-rule:evenodd;clip-rule:evenodd;fill:#C2D6C1;" d="M21.95,92.1c1.5,2.1,4.183,3.267,8.05,3.5
			c-0.667,0.133-1.183,0.417-1.55,0.85c-0.467,0.533,0.966,0.883,4.3,1.05c1.7,0.1,3.433,0.133,5.2,0.1
			c-0.934,0.2-2.05,0.367-3.35,0.5c-2.6,0.233-4.767,0.183-6.5-0.15c-3.2-0.667-5.383-1.417-6.55-2.25
			c-2.367-1.7-3.85-4.733-4.45-9.1c-0.567-4.167-0.15-9.517,1.25-16.05l2.25-8.6L18.75,73.6c-0.433,3.167-0.367,6.483,0.2,9.95
			C19.517,87.25,20.517,90.1,21.95,92.1z"/>
	</g>
	<g>
		<path style="fill-rule:evenodd;clip-rule:evenodd;fill:#89AA8B;" d="M52,123.1c3.4-0.866,8.6-1.966,15.6-3.3
			c6-1.133,9.917-2,11.75-2.6c3.767-1.233,4.834-4.101,3.2-8.601c-0.533-1.399-1.283-2.883-2.25-4.449l-1.35-1.9l-0.05-1.4
			c3.767,4.233,5.916,7.267,6.449,9.101c0.567,1.899,0.634,3.5,0.2,4.8c-0.566,1.7-2.05,3.35-4.45,4.95
			c-2.133,1.434-6.983,2.899-14.55,4.399c-8.133,1.4-13.283,2.351-15.45,2.851c-4.434,1.033-7.867,2.1-10.3,3.2
			c-3.633,1.699-5.617,3.716-5.95,6.05c-0.267,2,0.467,4.717,2.2,8.149c2.567,5.101,4.167,8.634,4.8,10.601
			c1.7,5.267,2.8,9.75,3.3,13.45c0.7,5.133,0.434,9.566-0.8,13.3c-1.4,4.166-5.15,8.55-11.25,13.149
			c-3.133,0.467-6.633,1.167-10.5,2.101c2.333-1.7,4.85-3.917,7.55-6.65c5.367-5.467,8.934-10.75,10.7-15.85
			c0.566-1.566,0.583-3.533,0.05-5.9c-0.433-1.866-1.267-4.267-2.5-7.2c-1.867-2.733-3.8-5.3-5.8-7.699
			c-2.667-3.134-4.533-4.75-5.6-4.851c-1-0.1-1.983,1.117-2.95,3.65c-1.033,2.733-1.883,4.233-2.55,4.5
			c-0.933,0.366-1.967-0.033-3.1-1.2l-1.4-1.8l0.65,0.55c1.733,1.434,3.017,1.917,3.85,1.45c0.333-0.167,0.817-0.9,1.45-2.2
			c0.3-1.366,0.55-2.467,0.75-3.3c0.367-1.467,1.216-2.467,2.55-3c1.4-0.566,3.733,0.45,7,3.05c1.633,1.333,3.133,2.7,4.5,4.1
			c-1.333-2.233-3.067-4.733-5.2-7.5c-1.466-4.366-1.95-8.083-1.45-11.149C31.933,130.717,38.9,126.434,52,123.1z"/>
		<path style="fill-rule:evenodd;clip-rule:evenodd;fill:#89AA8B;" d="M78.8,98.55l-0.2-4.35c4.167,2.533,7.617,5.95,10.351,10.25
			c1.733,2.666,2.5,5.467,2.3,8.399c-0.2,3.5-1.8,6.75-4.8,9.75c-2.434,2.434-9.434,5.101-21,8c-12.067,2.967-18.733,4.917-20,5.851
			c-2.267,1.6-2.383,6.267-0.35,14c1.367,5.133,3.6,11.399,6.7,18.8c1.733,4.167,3.467,10.2,5.2,18.1
			c0.867,3.967,1.566,7.5,2.1,10.601c-0.166-0.566-0.583-1.134-1.25-1.7c-1.333-1.134-3.25-1.65-5.75-1.55
			c-0.8,0-1.617,0.083-2.45,0.25c0.7-15.467,0.517-25.05-0.55-28.75c-0.767-2.834-2.783-8-6.05-15.5c-3.6-8.233-5.5-12.65-5.7-13.25
			c-1.133-3.167,3.283-5.75,13.25-7.75c2.1-0.4,7.25-1.334,15.45-2.8c7.733-1.5,13-2.817,15.8-3.95c3.067-1.267,5.067-3.45,6-6.55
			c0.733-2.467,0.733-5.2,0-8.2C87.184,105.5,84.167,102.283,78.8,98.55z"/>
		<path style="fill-rule:evenodd;clip-rule:evenodd;fill:#89AA8B;" d="M100.25,130.2c0.1-1.733-0.833-2.467-2.8-2.2
			c-1.4,0.167-3.467,0.9-6.2,2.2c-0.5,0.233-0.866,0.316-1.1,0.25c-3.034,1.666-6.7,2.934-11,3.8c1.199-0.434,3.75-1.583,7.649-3.45
			c3.9-1.866,6.834-3.149,8.8-3.85c2.7-0.967,4.483-0.851,5.351,0.35c0.434,0.634,0.7,2.117,0.8,4.45
			c0.1,1.634,0.866,2.983,2.3,4.05c1.4,1.033,2.867,1.417,4.4,1.15c1.1-0.167,2.083-0.967,2.95-2.4c0.899-1.434,1.633-2.2,2.199-2.3
			c1.034-0.167,2.284,0.934,3.75,3.3l0.15,0.4c-0.434-0.566-0.934-1.134-1.5-1.7c-1.134-1.066-2.017-1.5-2.65-1.3
			c-0.133,0.033-0.85,0.967-2.149,2.8c-1.101,1.566-2.467,2.25-4.101,2.05c-2.066-0.267-3.75-1.116-5.05-2.55
			C100.717,133.816,100.116,132.134,100.25,130.2z"/>
		<path style="fill-rule:evenodd;clip-rule:evenodd;fill:#89AA8B;" d="M49.2,141.85c0.3-1.6,1.05-2.899,2.25-3.899
			c0.9-0.767,2.883-1.584,5.95-2.45c1.534-0.434,2.984-0.783,4.35-1.05l-5.35,2.2c-3.433,2.1-4.917,4.633-4.45,7.6
			c0.533,3.366,2.667,9.583,6.399,18.65c3.4,8.333,6.317,14.733,8.75,19.199c1.9,3.5,4.634,7.4,8.2,11.7
			c-3.666-0.934-5.899-1.217-6.7-0.85c-1.066,0.434-2.699,1.267-4.899,2.5c-0.7-7.066-1.851-13.184-3.45-18.351
			c-1.066-3.533-2.883-8.533-5.45-15c-2.533-6.433-4.1-10.649-4.7-12.649C49.167,146.35,48.867,143.816,49.2,141.85z"/>
		<path style="fill-rule:evenodd;clip-rule:evenodd;fill:#89AA8B;" d="M93.75,117.45c0.6-0.7,1.017-1.783,1.25-3.25
			c0.5-2.934-0.083-6.3-1.75-10.101c-1.667-3.8-4.267-7.033-7.8-9.7L80.6,91.6l5.351,2.5c3.866,2.2,6.633,4.7,8.3,7.5
			c1.833,3.067,3.017,6.017,3.55,8.851c0.467,2.333,0.45,4.333-0.05,6c-0.533,1.866-1.7,3.866-3.5,6c0.634-1.233,1.1-2.384,1.4-3.45
			C96.184,116.934,95.55,116.417,93.75,117.45z"/>
		<path style="fill-rule:evenodd;clip-rule:evenodd;fill:#6B8B6F;" d="M40.8,130.15c2.434-1.101,5.867-2.167,10.3-3.2
			c2.167-0.5,7.317-1.45,15.45-2.851c7.566-1.5,12.417-2.966,14.55-4.399c2.4-1.601,3.884-3.25,4.45-4.95
			c0.434-1.3,0.367-2.9-0.2-4.8c-0.533-1.834-2.683-4.867-6.449-9.101l-0.101-2.3c5.367,3.733,8.384,6.95,9.05,9.65
			c0.733,3,0.733,5.733,0,8.2c-0.933,3.1-2.933,5.283-6,6.55c-2.8,1.133-8.066,2.45-15.8,3.95c-8.2,1.466-13.35,2.399-15.45,2.8
			c-9.967,2-14.383,4.583-13.25,7.75c0.2,0.6,2.1,5.017,5.7,13.25c3.267,7.5,5.284,12.666,6.05,15.5
			c1.066,3.7,1.25,13.283,0.55,28.75c-1.9,0.333-3.733,0.934-5.5,1.8l-2.05,1.2c-0.067-0.533-0.3-1.084-0.7-1.65
			c-0.8-1.133-1.983-1.75-3.55-1.85c-0.9-0.066-2.483,0.066-4.75,0.399c6.1-4.6,9.85-8.983,11.25-13.149
			c1.233-3.733,1.5-8.167,0.8-13.3c-0.5-3.7-1.6-8.184-3.3-13.45c-0.633-1.967-2.233-5.5-4.8-10.601
			c-1.733-3.433-2.466-6.149-2.2-8.149C35.183,133.866,37.167,131.85,40.8,130.15z"/>
		<path style="fill-rule:evenodd;clip-rule:evenodd;fill:#C2D6C1;" d="M88.3,93.5l-6.7-4.05c3.601,0.4,7.134,1.983,10.601,4.75
			c3.366,2.667,5.616,5.583,6.75,8.75c0.6,1.7,0.866,3.7,0.8,6c-0.032,1.133-0.124,2.108-0.275,2.925
			c0.076-0.498,0.034-1.24-0.125-2.225c-0.3-2.101-1.05-4.5-2.25-7.2C95.9,99.75,92.967,96.767,88.3,93.5z"/>
	</g>
	<g>
		<path style="fill-rule:evenodd;clip-rule:evenodd;fill:#A2BDA2;" d="M62.3,61.6c-1.833-0.133-3.333,1.367-4.5,4.5
			c-0.566,1.433-1.25,3.05-2.05,4.85L53.6,70.2c0.333-1.267,0.883-2.633,1.65-4.1c1.5-2.934,3.283-4.883,5.35-5.85
			c1.934-0.9,3.9-0.183,5.9,2.15c2.3,2.667,3.733,4.017,4.3,4.05c1.167,0.066,2.4-0.383,3.7-1.35c0.667-0.5,1.2-1,1.6-1.5
			c-0.366,0.833-0.866,1.617-1.5,2.35c-1.3,1.466-2.683,1.966-4.149,1.5c-1.2-0.4-2.733-1.5-4.601-3.3
			C64.184,62.483,63,61.633,62.3,61.6z"/>
		<g>
			<path style="fill-rule:evenodd;clip-rule:evenodd;fill:#89AA8B;" d="M70.45,67.45c-1.2-0.4-2.733-1.5-4.601-3.3
				c-1.666-1.667-2.85-2.517-3.55-2.55c-1.833-0.133-3.333,1.367-4.5,4.5c-0.566,1.433-1.25,3.05-2.05,4.85L54.9,70.6
				c2.367-5.367,4-8.367,4.9-9c0.9-0.667,1.7-0.967,2.4-0.9c0.7,0.066,1.399,0.483,2.1,1.25c0.767,0.9,1.95,1.933,3.55,3.1
				c1.834,1.333,3.2,2.067,4.101,2.2c0.833,0.133,1.783-0.433,2.85-1.7c0.5-0.633,0.934-1.283,1.3-1.95
				c-0.366,0.833-0.866,1.617-1.5,2.35C73.3,67.417,71.917,67.917,70.45,67.45z"/>
		</g>
	</g>
</g>
</svg>
