<?xml version="1.0" encoding="iso-8859-1"?>
<!-- Generator: Adobe Illustrator 15.1.0, SVG Export Plug-In . SVG Version: 6.00 Build 0)  -->
<!DOCTYPE svg PUBLIC "-//W3C//DTD SVG 1.1//EN" "http://www.w3.org/Graphics/SVG/1.1/DTD/svg11.dtd">
<svg version="1.1" id="buildings_1" xmlns="http://www.w3.org/2000/svg" xmlns:xlink="http://www.w3.org/1999/xlink" x="0px"
	 y="0px" width="191.8px" height="171.75px" viewBox="0 0 191.8 171.75" style="enable-background:new 0 0 191.8 171.75;"
	 xml:space="preserve">
<g>
	<g>
		<path style="fill-rule:evenodd;clip-rule:evenodd;fill:#89AA8B;" d="M154,126.2c0.866,2.1,1.55,4.217,2.05,6.35
			c0.533,2.167,0.783,3.983,0.75,5.45l-0.6,28.8l-0.9,0.55c-1.7-1.833-3.383-3.216-5.05-4.149c2.366-13.9,3.684-21.767,3.95-23.601
			c0.7-4.533,0.566-9.066-0.4-13.6L154,126.2z"/>
		<path style="fill-rule:evenodd;clip-rule:evenodd;fill:#89AA8B;" d="M150.2,125.85L144.85,140.9
			c-3.966,10.366-6.933,16.433-8.899,18.199l-5,4.45l-11.65,3.101c3.267-2.601,6.717-5.7,10.351-9.301
			c7.3-7.133,11.85-13.133,13.649-18c1.8-4.866,3.233-9.699,4.3-14.5l1.101-5.75l4.1,5.551L150.2,125.85z"/>
		<path style="fill-rule:evenodd;clip-rule:evenodd;fill:#6B8B6F;" d="M153.8,126c0.967,4.533,1.101,9.066,0.4,13.6
			c-0.267,1.834-1.584,9.7-3.95,23.601c-0.934-0.533-1.7-0.816-2.3-0.851c-1.233-0.133-3.384,0.601-6.45,2.2
			c-1.533,0.8-2.934,1.617-4.2,2.45c-0.233-0.733-0.55-1.45-0.95-2.15c-0.866-1.366-1.783-1.983-2.75-1.85l-2.649,0.55l5-4.45
			c1.967-1.767,4.934-7.833,8.899-18.199l5.351-15.051l2.6-1.199L153.8,126z"/>
	</g>
	<g>
		<path style="fill-rule:evenodd;clip-rule:evenodd;fill:#DC8D68;" d="M179.55,167.45c-0.066,0.233-0.434,0.517-1.1,0.85
			c-1.334,0.634-3.434,1.134-6.3,1.5c-2.867,0.4-6.301-0.033-10.301-1.3l-5.199-2c-3.233-18.434-5.75-31.65-7.551-39.65
			c-1.333-5.966-4.883-11.85-10.649-17.649c-5.733-5.767-11.733-9.55-18-11.351c-2.7-0.767-6.767-0.199-12.2,1.7
			c-2.267,0.767-7.667,3.033-16.2,6.8c-7.333,3.2-13.2,5.4-17.6,6.601c-6.434,1.733-11.85,2.1-16.25,1.1
			c-8.6-1.967-18.55-10.45-29.85-25.45c-4.233-5.6-8.067-11.366-11.5-17.3c-3.1-5.367-5.067-9.367-5.9-12
			c-1.434-4.633,0.483-8.4,5.75-11.3c5.1-2.8,10.083-3.233,14.95-1.3c2.033,0.8,4.267,2.983,6.7,6.55c1,1.467,3.316,5.367,6.95,11.7
			c6.833,11.833,13.3,19.7,19.4,23.6c3.533,2.267,9.033,2.25,16.5-0.05c4.4-1.366,11.767-3.967,22.1-7.8
			c9.566-2.934,17.867-3.8,24.9-2.6c9.3,1.6,17.55,6.783,24.75,15.55c13.166,16.066,21.55,33.183,25.149,51.35
			C179.9,154.1,180.384,161.583,179.55,167.45z"/>
		<g>
			<path style="fill-rule:evenodd;clip-rule:evenodd;fill:#C46544;" d="M94,97.15c7.434-3.034,11.566-4.7,12.4-5
				c4.333-1.567,8.033-2.384,11.1-2.45c6.9-0.167,14.017,2.517,21.35,8.05c7.101,5.333,11.834,11.267,14.2,17.8
				c3.101,8.434,7.517,23.8,13.25,46.101l-10.45,0.399c-3.066-17.033-5.316-28.767-6.75-35.2
				c-1.333-5.966-4.883-11.85-10.649-17.649c-5.733-5.767-11.733-9.55-18-11.351c-2.7-0.767-6.767-0.199-12.2,1.7
				c-2.267,0.767-7.667,3.033-16.2,6.8c-7.333,3.2-13.2,5.4-17.6,6.601c-6.434,1.733-11.85,2.1-16.25,1.1
				c-8.6-1.967-18.55-10.45-29.85-25.45c-4.233-5.6-8.067-11.366-11.5-17.3c-3.1-5.367-5.067-9.367-5.9-12
				c-0.833-2.667-0.434-5.15,1.2-7.45c1.5-2.067,3.75-3.684,6.75-4.85c4.467,11.167,9.7,21.583,15.7,31.25
				c10.533,17,20.283,25.583,29.25,25.75C72.383,104.134,82.433,101.85,94,97.15z"/>
		</g>
		<path style="fill-rule:evenodd;clip-rule:evenodd;fill:#CD6C49;" d="M170.35,171.7c-6.066-0.3-10.767-1.434-14.1-3.4
			c-1.033-0.633-1.866-1.3-2.5-2l-0.65-0.899c-0.466-1.301-0.75-2.733-0.85-4.301c-0.233-3.166,0.5-5.399,2.2-6.699l3.05,1.85
			c2.667,1.267,5.65,2,8.95,2.2c2.533,0.133,5.45-0.834,8.75-2.9c1.666-1.033,3.066-2.083,4.2-3.149l4.449,7.949
			c0.767,1.434,1.117,3.084,1.051,4.95c-0.034,0.934-0.15,1.717-0.351,2.351c-1.3,0.733-2.866,1.449-4.7,2.149
			C176.217,171.2,173.05,171.833,170.35,171.7z"/>
		<path style="fill-rule:evenodd;clip-rule:evenodd;fill:#A3573C;" d="M15.9,53l10,18.65c7.6,13.5,13.767,22.867,18.5,28.1
			c2.2,2.434,4.883,4.8,8.05,7.1c1.6,1.134,2.966,2.034,4.1,2.7c-1.1,0.134-2.5-0.05-4.2-0.55c-3.367-0.967-6.517-2.967-9.45-6
			c-3.233-3.333-7.066-7.733-11.5-13.2c-5.433-6.7-9.217-11.966-11.35-15.8c-3-5.4-4.816-8.733-5.45-10
			c-1.233-2.467-1.817-4.167-1.75-5.1c0.133-1.566,0.683-3.017,1.65-4.35L15.9,53z"/>
		<path style="fill-rule:evenodd;clip-rule:evenodd;fill:#A3573C;" d="M109.4,93.75c4.1-1.366,7.933-1.667,11.5-0.9
			c1.833,0.4,5.283,1.733,10.35,4c3.9,1.767,7.95,4.95,12.15,9.551c4.233,4.666,7.116,9.166,8.649,13.5
			c2.101,5.866,5.017,17.233,8.75,34.1c-1.233,0.167-2.45-0.1-3.649-0.8l-1.4-1.15c-0.533-5.1-1.4-10.934-2.6-17.5
			c-1.233-6.866-3.217-12.816-5.95-17.85c-2.5-4.634-5.717-8.65-9.65-12.05c-4.833-4.167-9.233-7.034-13.2-8.601
			c-4.133-1.6-8.033-1.883-11.699-0.85c-2.867,0.8-9.233,3.416-19.101,7.85c-10.966,4.934-17.1,7.65-18.4,8.15c-2.7,1-5.3,1-7.8,0
			l-3-1.851l4.9-0.8c3.767-0.733,6.983-1.517,9.65-2.35c2.033-0.634,6.767-2.584,14.2-5.851
			C100.767,97.017,106.2,94.816,109.4,93.75z"/>
		<path style="fill-rule:evenodd;clip-rule:evenodd;fill:#E9BB99;" d="M26.85,50.35l3.7,0.45c2.7,0.733,4.684,2.117,5.95,4.15
			c1,1.633,2.283,4.05,3.85,7.25c2.033,3.9,5.066,8.867,9.1,14.9c4.2,6.267,8.783,11.016,13.75,14.25
			c2.5,1.601,4.583,2.584,6.25,2.95c-1.333,0.066-3.133-0.267-5.4-1c-4.566-1.467-9.183-4.166-13.85-8.1
			c-4.667-3.967-9.95-10.967-15.85-21L26.85,50.35z"/>
		<path style="fill-rule:evenodd;clip-rule:evenodd;fill:#E9BB99;" d="M175.8,144.4c0.5,2.267,0.851,4.133,1.05,5.6
			c-0.533,0.767-1.133,1.517-1.8,2.25c-1.366,1.467-2.383,2.066-3.05,1.8c-0.1-4.399-1-9.883-2.7-16.45
			c-3.333-13.1-8.883-25.033-16.649-35.8c-2.167-3-4.834-6.383-8-10.149l-4.101-4.801l6.3,5.101c4.667,4.166,8.15,8.066,10.45,11.7
			c3.434,5.366,6.184,9.899,8.25,13.6c2.867,5.2,5.066,9.983,6.601,14.35C173.583,135.634,174.8,139.9,175.8,144.4z"/>
		<path style="fill-rule:evenodd;clip-rule:evenodd;fill:#E9BB99;" d="M91.7,89.65l-11.85,4.6c-0.633,0.033-1.1-0.066-1.4-0.3
			c-0.6-0.467,0-1.3,1.8-2.5c0.833-0.566,4.967-2.25,12.4-5.05c8.333-3.167,14.216-5.05,17.65-5.65c3.3-0.567,7.233-0.817,11.8-0.75
			c2.301,0.033,4.25,0.117,5.851,0.25c-1.634,0-3.617,0.1-5.95,0.3c-4.667,0.467-8.733,1.267-12.2,2.4S100.3,86.316,91.7,89.65z"/>
		<g>
			<path style="fill-rule:evenodd;clip-rule:evenodd;fill:#AD5E40;" d="M166.4,167.7c1,1.2,3.116,2.05,6.35,2.55
				c1.6,0.233,3.1,0.35,4.5,0.35l-0.3,0.2c-2.533,0.733-4.733,1.033-6.601,0.9c-6.066-0.3-10.767-1.434-14.1-3.4
				c-1.033-0.633-1.866-1.3-2.5-2l-0.65-0.899c-0.466-1.301-0.75-2.733-0.85-4.301c-0.233-3.166,0.5-5.399,2.2-6.699l2.75,1.699
				c2.434,1.233,5.149,2,8.149,2.301l0.051,0.199l-0.4,3.5C164.967,164.634,165.434,166.5,166.4,167.7z"/>
		</g>
		<path style="fill-rule:evenodd;clip-rule:evenodd;fill:#D98560;" d="M177.9,162c-0.233-0.934-0.784-1.866-1.65-2.8l-1.2-1.15
			l1.3-1.149c1-0.733,1.784-0.983,2.351-0.75c0.733,0.333,1.467,1.066,2.2,2.199c0.8,1.301,1.449,2.934,1.949,4.9
			c0.434,1.767-0.05,2.833-1.449,3.2h-2.25L177.9,162z"/>
		<path style="fill-rule:evenodd;clip-rule:evenodd;fill:#7F4A34;" d="M155.05,157.1c0.233,0.867,1.233,1.684,3,2.45
			c0.9,0.367,1.767,0.65,2.601,0.851l-0.301,0.75c-0.166,0.633-0.267,1.383-0.3,2.25c-0.066,1.333,0.316,2.716,1.15,4.149
			c-0.367,0.4-1.25,0.233-2.65-0.5c-2.366-1.2-3.6-2.967-3.7-5.3c-0.033-0.934-0.017-1.983,0.051-3.15L155.05,157.1z"/>
	</g>
	<path style="fill-rule:evenodd;clip-rule:evenodd;fill:#A2BDA2;" d="M83.3,65c2.034-0.667,4.15,0.283,6.35,2.85
		c2.233,2.6,3.783,3.767,4.65,3.5c1.3-0.4,2.45-1.467,3.45-3.2c0.467-0.867,0.816-1.7,1.05-2.5L98,69.3
		c-0.866,2.434-2.1,3.617-3.7,3.55c-1.233-0.067-3.167-0.85-5.8-2.35c-2.233-1.233-3.633-1.617-4.2-1.15
		c-0.667,0.5-0.716,2.083-0.15,4.75c0.467,2.133,1.1,4.1,1.9,5.9l3.55,5.65c-2.867,1.333-6.633,2.45-11.3,3.35
		c-2.233-5.1-4.233-9.55-6-13.35c-1.367-2.833-3.183-4.517-5.45-5.05c-2.267-0.5-3.9,0.417-4.9,2.75c-0.167,0.4-1.167,7.217-3,20.45
		c-1.633,11.733-3.633,18.467-6,20.2c-1.7,1.233-4.383,1.934-8.05,2.1c-4,0.167-8.133-0.399-12.4-1.699l0.1,0.1
		c-3.233-1.066-6.6-2.083-10.1-3.05c-6.967-1.934-11.033-2.584-12.2-1.95c-1.1,0.566-1.55,1.934-1.35,4.1
		c0.233,2.601,0.283,4.067,0.15,4.4c-0.333,0.767-1.35,1.267-3.05,1.5c-0.833,0.134-1.65,0.184-2.45,0.15
		c0.433-0.034,0.917-0.134,1.45-0.301c1.067-0.366,1.917-0.933,2.55-1.699c0.3-0.367,0.15-2.017-0.45-4.95
		c-0.533-2.7,0.067-4.601,1.8-5.7c1.7-1.066,4.7-1.15,9-0.25c-3.2-2.6-5.983-5.634-8.35-9.1C4,89.384,0.85,79.217,0.15,67.15
		C-0.483,56.417,0.8,47.983,4,41.85c2.367-5.3,4.683-8.75,6.95-10.35c2.933-1.9,5.033-3.333,6.3-4.3
		c2.1-1.633,3.617-3.417,4.55-5.35c0.9-1.867,1.284-4.184,1.15-6.95l-0.5-3.55l1.2,4.25c0.5,3.2,0.1,5.783-1.2,7.75
		c-1.167,1.733-3.184,3.816-6.05,6.25c-2.933,2.566-4.7,4.25-5.3,5.05l-0.55,0.85c2.934-1.667,8.817-3.95,17.65-6.85
		c7.566-2.5,12.15-4.6,13.75-6.3c2.233-2.367,2.8-6.8,1.7-13.3C43.083,5.783,42.3,2.767,41.3,0c1.233,2.033,2.317,4.467,3.25,7.3
		c1.867,5.633,2.117,10.417,0.75,14.35c-1.1,3.167-5.083,6.117-11.95,8.85c-8.6,2.9-14.85,5.183-18.75,6.85
		c-5.7,2.433-8.833,9.083-9.4,19.95C4.633,67.9,6.667,76.8,11.3,84c4.5,6.967,10.6,12.6,18.3,16.9c7.7,4.3,13.15,5.116,16.35,2.449
		c2.167-1.833,4.1-8.816,5.8-20.95c1.767-12.7,3.617-20.283,5.55-22.75c2.8-3.566,6.483-4.2,11.05-1.9
		c4.1,2.067,7.633,5.6,10.6,10.6l0.45,0.75C79.933,67.033,81.233,65.667,83.3,65z"/>
	<path style="fill-rule:evenodd;clip-rule:evenodd;fill:#A2BDA2;" d="M172.3,96.3c0.767-1.6,1.65-2.7,2.65-3.3
		c1.533-0.9,3.184-0.6,4.95,0.9c2.166,1.8,3.566,2.716,4.199,2.75c1.267,0.1,2.934-0.534,5-1.9c1.034-0.7,1.934-1.4,2.7-2.1
		c-0.899,1.133-1.916,2.216-3.05,3.25c-2.267,2.1-4.033,2.966-5.3,2.6c-1.867-0.533-3.316-0.616-4.351-0.25
		c-1.5,0.533-2.55,2-3.149,4.4c-0.8,3.3-1.467,7.783-2,13.449c0.166,5.2,0.2,9.867,0.1,14c-3.2-8.633-7.733-17.433-13.6-26.399
		l-7.9-10.851c0.3-0.833,0.45-1.85,0.45-3.05c0.033-2.434-0.616-4.633-1.95-6.6c-1.566-2.3-3.05-1.684-4.45,1.85
		c-0.1,0.267-1.433,4.8-4,13.601c-1.899,6.533-5.017,11.833-9.35,15.899c-5.6,5.267-12.366,7.3-20.3,6.101
		c-7.367-1.101-13.4-3.65-18.1-7.65c-1.5-1.233-2.767-2.55-3.8-3.95l-1.1-1.7L102.3,102l5.5,2.4c4.434,1.333,8.601,1.316,12.5-0.051
		c2.033-0.733,4.05-3.333,6.05-7.8c0.767-1.7,2.483-6.333,5.15-13.9c2.134-6.133,4.033-10.55,5.7-13.25
		c2.399-3.9,4.983-5.816,7.75-5.75c5.866,0.167,11.483,3.383,16.85,9.65c4.934,5.767,8.2,12.217,9.8,19.351L172.3,96.3z"/>
	<path style="fill-rule:evenodd;clip-rule:evenodd;fill:#C2D6C1;" d="M141.1,69l1.4-2.05c1.2-1.367,2.566-2.017,4.1-1.95
		c1.534,0.067,3.667,0.75,6.4,2.05c1.366,0.667,2.566,1.317,3.6,1.95c-1.366-0.6-2.85-1.167-4.449-1.7
		c-3.167-1.1-5.351-1.483-6.551-1.15c-1.166,0.367-2.267,0.95-3.3,1.75L141.1,69z"/>
	<g>
		<path style="fill-rule:evenodd;clip-rule:evenodd;fill:#89AA8B;" d="M85.1,87.3l-1.75,0.5c-3.033-5.433-5.583-9.75-7.65-12.95
			c-2.5-3.867-4.833-5.95-7-6.25c-0.733-0.1-1.417,0-2.05,0.3l-0.7,0.45l3.4,1.05c2.533,1.267,4.483,3.25,5.85,5.95
			c1.966,3.9,3.816,7.933,5.55,12.1L78.3,89c-2.233-5.1-4.233-9.55-6-13.35c-1.267-2.7-2.983-4.35-5.15-4.95
			c-2.133-0.633-3.75,0.033-4.85,2c0.333-2.167,1.067-3.767,2.2-4.8c1.367-1.267,3.183-1.517,5.45-0.75
			c1.9,0.633,4.6,3.517,8.1,8.65C80.283,79.033,82.633,82.867,85.1,87.3z"/>
		<path style="fill-rule:evenodd;clip-rule:evenodd;fill:#89AA8B;" d="M88.65,70.6c-2.2-1.233-3.6-1.684-4.2-1.35
			c0.2-0.6,0.683-0.983,1.45-1.15c0.8-0.133,1.533,0.05,2.2,0.55c1.6,1.2,2.767,2.017,3.5,2.45c1.467,0.867,2.633,1.217,3.5,1.05
			c0.834-0.133,1.7-1.25,2.601-3.35l1.1-3.15L98,69.3c-0.866,2.434-2.1,3.617-3.7,3.55C93.067,72.783,91.183,72.033,88.65,70.6z"/>
		<path style="fill-rule:evenodd;clip-rule:evenodd;fill:#89AA8B;" d="M83.3,65c0.4-0.133,0.7-0.2,0.9-0.2l0.1,0.05
			c-0.433,0.333-0.883,0.767-1.35,1.3c-0.934,1.033-1.434,2.033-1.5,3c-0.1,1.567,0.017,2.9,0.35,4c-0.333-0.2-0.7-0.517-1.1-0.95
			c-0.733-0.9-1.167-1.934-1.3-3.1C79.933,67.033,81.233,65.667,83.3,65z"/>
		<path style="fill-rule:evenodd;clip-rule:evenodd;fill:#89AA8B;" d="M51.75,82.4c1.767-12.7,3.617-20.283,5.55-22.75
			c1.133-1.433,2.417-2.383,3.85-2.85c-0.933,0.434-1.783,1.4-2.55,2.9c-1.2,2.367-1.967,5.75-2.3,10.15
			c-0.6,7.5-1.367,14.233-2.3,20.2c-1.133,7.233-2.267,11.5-3.4,12.8c-1.167,1.301-2.717,2.117-4.65,2.45
			c-1.667,0.267-3.333,0.117-5-0.45L40.8,104.7c2.233,0.1,3.95-0.351,5.15-1.351C48.117,101.517,50.05,94.533,51.75,82.4z"/>
		<path style="fill-rule:evenodd;clip-rule:evenodd;fill:#89AA8B;" d="M41.95,22.35c1.966-2.067,2.633-5.767,2-11.1
			C43.55,7.983,42.767,4.567,41.6,1c1.467,2.767,2.483,6,3.05,9.7c0.533,3.433,0.583,6.533,0.15,9.3
			c-0.633,3.867-4.7,6.817-12.2,8.85c-2.934,0.8-6.867,2.167-11.8,4.1c-6.267,2.433-10.05,4.333-11.35,5.7
			c-1.867,1.967-3.383,4.617-4.55,7.95c-1.533,4.433-2.3,9.683-2.3,15.75c0,6.433,0.983,12.8,2.95,19.1
			c1.767,5.666,4.117,10.684,7.05,15.05c2.4,3.566,6.217,6.816,11.45,9.75c2.567,1.434,7.083,3.517,13.55,6.25
			c3.167,1.333,6.667,1.783,10.5,1.35c2.2-0.233,4.267-0.699,6.2-1.399c-0.5,0.733-0.95,1.25-1.35,1.55
			c-1.7,1.233-4.383,1.934-8.05,2.1c-4,0.167-8.133-0.399-12.4-1.699l0.1,0.1c-3.233-1.066-6.6-2.083-10.1-3.05
			c-6.967-1.934-11.033-2.584-12.2-1.95c-1.1,0.566-1.55,1.934-1.35,4.1c0.233,2.601,0.283,4.067,0.15,4.4
			c-0.333,0.767-1.35,1.267-3.05,1.5c-0.833,0.134-1.65,0.184-2.45,0.15c1.233,0,2.316-0.25,3.25-0.75c0.9-0.5,1.483-1.134,1.75-1.9
			c0.1-0.267,0.066-1.483-0.1-3.65c-0.167-2.033,0.033-3.6,0.6-4.699c0.633-1.167,2.683-1.534,6.15-1.101
			c1.767,0.2,3.45,0.517,5.05,0.95c-0.566-0.667-1.35-1.25-2.35-1.75c-3.2-2.6-5.983-5.634-8.35-9.1
			C4,89.384,0.85,79.217,0.15,67.15C-0.483,56.417,0.8,47.983,4,41.85c2.367-5.3,4.683-8.75,6.95-10.35
			c2.933-1.9,5.033-3.333,6.3-4.3c2.1-1.633,3.617-3.417,4.55-5.35c0.9-1.867,1.284-4.184,1.15-6.95l-0.5-3.55
			c1.333,4.667,1.05,8.767-0.85,12.3c-0.567,1.1-2.2,2.667-4.9,4.7c-3.167,2.4-4.967,3.833-5.4,4.3C9.833,34.217,8.667,36,7.8,38
			c0.867-0.9,1.784-1.733,2.75-2.5c2.934-1.667,8.817-3.95,17.65-6.85C35.767,26.15,40.35,24.05,41.95,22.35z"/>
		<path style="fill-rule:evenodd;clip-rule:evenodd;fill:#6B8B6F;" d="M68.7,68.6c2.167,0.3,4.5,2.383,7,6.25
			c2.066,3.2,4.617,7.517,7.65,12.95c-1.434,0.367-2.3,0.584-2.6,0.65c-1.733-4.167-3.583-8.2-5.55-12.1
			c-1.367-2.7-3.317-4.684-5.85-5.95l-3.4-1.05l0.7-0.45C67.283,68.6,67.967,68.5,68.7,68.6z"/>
		<path style="fill-rule:evenodd;clip-rule:evenodd;fill:#C2D6C1;" d="M10.8,88.5c-1.566-3.133-2.95-6.55-4.15-10.25
			c1.267,3.333,3.25,7.067,5.95,11.2c2.4,3.7,4.4,6.267,6,7.7c1.4,1.267,4.8,3.116,10.2,5.55c2.7,1.233,5.25,2.333,7.65,3.3
			c-1.333-0.233-2.45-0.184-3.35,0.15c-0.533,0.199,0.083,0.966,1.85,2.3c0.9,0.666,1.85,1.3,2.85,1.899
			c-1.8-0.566-3.966-1.449-6.5-2.649c-5.066-2.467-9.4-5.367-13-8.7C15.6,96.5,13.1,93,10.8,88.5z"/>
		<path style="fill-rule:evenodd;clip-rule:evenodd;fill:#C2D6C1;" d="M64.95,58.35l3.1,0.95c2.367,1,4.383,2.4,6.05,4.2
			c1.667,1.8,3.15,3.817,4.45,6.05c0.633,1.133,1.1,2.067,1.4,2.8c-3.9-4.9-6.617-8.017-8.15-9.35c-0.966-0.833-2.4-1.85-4.3-3.05
			L64.95,58.35z"/>
	</g>
	<g>
		<path style="fill-rule:evenodd;clip-rule:evenodd;fill:#89AA8B;" d="M162.15,93.95c1,5.1,1.899,10.733,2.699,16.899
			c-1.6-2.8-3.3-5.517-5.1-8.149c-0.434-4.8-0.95-9.584-1.55-14.351c-0.4-3.333-1.267-5.866-2.601-7.6L153.7,79.1l1.05,5.45
			c0.667,4.233,0.9,7.75,0.7,10.55L155.35,96.4l-2.8-3.551c0.3-0.833,0.45-1.85,0.45-3.05c0.033-2.434-0.616-4.633-1.95-6.6
			c-1.313-1.971-2.563-1.871-3.75,0.3c0.834-2.967,1.967-5.183,3.4-6.65c2.3-2.333,4.666-1.5,7.1,2.5
			C159.233,81.717,160.684,86.583,162.15,93.95z"/>
		<path style="fill-rule:evenodd;clip-rule:evenodd;fill:#89AA8B;" d="M128.3,91.6c4.467-12.033,6.934-18.516,7.4-19.45
			c-1.033,2.967-1.767,5.583-2.2,7.85c-0.667,3.567-0.35,5.45,0.95,5.65c0.833,0.133,2.583-2.066,5.25-6.6
			c1.333-2.3,2.583-4.6,3.75-6.9l-3.9,13.5c-3.066,9.3-5.717,14.75-7.95,16.35c-2.466,1.8-5.633,3.033-9.5,3.7
			c-3.533,0.6-6.083,0.533-7.649-0.2l-0.15-0.15c2,0,4-0.333,6-1C122.833,103.45,125.5,99.2,128.3,91.6z"/>
		<path style="fill-rule:evenodd;clip-rule:evenodd;fill:#89AA8B;" d="M107.45,115.35c3.566,1.601,7.967,2.517,13.2,2.75
			c2.866,0.134,5.6,0.051,8.199-0.25c-4.666,2.733-9.966,3.667-15.899,2.801c-7.367-1.101-13.4-3.65-18.1-7.65
			c-1.5-1.233-2.767-2.55-3.8-3.95l-1.1-1.7l1.95-0.85c4.067,4.5,7.167,7.533,9.3,9.1c2.866,2.067,5.934,3.351,9.2,3.851
			c2.433,0.366,5.616,0.333,9.55-0.101c-1.733-0.066-3.684-0.267-5.851-0.6c-4.333-0.667-7.55-1.634-9.649-2.9
			c-2.2-1.3-4.233-2.899-6.101-4.8c-0.866-0.866-2.333-2.517-4.399-4.95l-0.3-0.399l2.15-0.9
			C99.167,109.833,103.05,113.35,107.45,115.35z"/>
		<path style="fill-rule:evenodd;clip-rule:evenodd;fill:#89AA8B;" d="M172.3,96.3c0.767-1.6,1.65-2.7,2.65-3.3
			c1.166-0.7,2.333-0.733,3.5-0.1c0.434,0.199,1.399,0.949,2.899,2.25h-0.05c-1.033-0.434-1.8-0.733-2.3-0.9
			c-0.866-0.233-1.717-0.15-2.55,0.25c-0.834,0.434-1.634,2.533-2.4,6.3c-0.399,1.9-0.717,3.75-0.95,5.55
			C172.1,101.884,171.833,98.533,172.3,96.3z"/>
		<path style="fill-rule:evenodd;clip-rule:evenodd;fill:#89AA8B;" d="M169.8,117.15l-2-9.801l-1,5.15c0.101-3.033,0-6.55-0.3-10.55
			c-0.566-8.033-1.75-14.517-3.55-19.45c-1.8-4.933-4.101-8.767-6.9-11.5l-3.6-2.65L153.8,69c1.134,0.567,2.184,1.233,3.15,2
			c1.566,1.233,3.133,3.067,4.7,5.5c2.066,3.2,3.55,6.65,4.449,10.35C167.434,92.384,168.667,102.483,169.8,117.15z"/>
		<path style="fill-rule:evenodd;clip-rule:evenodd;fill:#89AA8B;" d="M124.95,111.35c-0.2,0.2,0.35,0.534,1.649,1
			c0.634,0.233,1.301,0.45,2,0.65c-0.933,0.1-2.216,0.1-3.85,0c-3.233-0.134-6.55-0.583-9.95-1.35c-3.399-0.767-6.666-2.267-9.8-4.5
			l-3.7-3.15l4.25,2.65c3.4,1.866,6.533,3.149,9.4,3.85c2.866,0.7,5.717,0.8,8.55,0.3c1.434-0.233,2.583-0.55,3.45-0.95
			C125.95,110.517,125.283,111.017,124.95,111.35z"/>
		<path style="fill-rule:evenodd;clip-rule:evenodd;fill:#6B8B6F;" d="M153.7,79.1l1.899,1.65c1.334,1.733,2.2,4.267,2.601,7.6
			c0.6,4.767,1.116,9.551,1.55,14.351c-1.366-2.101-2.833-4.2-4.4-6.3l0.101-1.301c0.2-2.8-0.033-6.316-0.7-10.55L153.7,79.1z"/>
		<path style="fill-rule:evenodd;clip-rule:evenodd;fill:#6B8B6F;" d="M114.1,118.75c2.167,0.333,4.117,0.533,5.851,0.6
			c-3.934,0.434-7.117,0.467-9.55,0.101c-3.267-0.5-6.334-1.783-9.2-3.851c-2.134-1.566-5.233-4.6-9.3-9.1l1.75-0.8l0.3,0.399
			c2.066,2.434,3.533,4.084,4.399,4.95c1.867,1.9,3.9,3.5,6.101,4.8C106.55,117.116,109.767,118.083,114.1,118.75z"/>
	</g>
</g>
</svg>
