<?xml version="1.0" encoding="iso-8859-1"?>
<!-- Generator: Adobe Illustrator 15.1.0, SVG Export Plug-In . SVG Version: 6.00 Build 0)  -->
<!DOCTYPE svg PUBLIC "-//W3C//DTD SVG 1.1//EN" "http://www.w3.org/Graphics/SVG/1.1/DTD/svg11.dtd">
<svg version="1.1" id="buildings_1" xmlns="http://www.w3.org/2000/svg" xmlns:xlink="http://www.w3.org/1999/xlink" x="0px"
	 y="0px" width="138.45px" height="231.8px" viewBox="0 0 138.45 231.8" style="enable-background:new 0 0 138.45 231.8;"
	 xml:space="preserve">
<g>
	<g>
		<path style="fill-rule:evenodd;clip-rule:evenodd;fill:#DC8D68;" d="M111.8,17.75l21.55,2.45c-1.233,11.9-2.916,24.133-5.05,36.7
			c-4.3,25.167-8.7,39.483-13.2,42.95c-2.166,1.667-6.916,4.117-14.25,7.35c-9.1,3.933-15.983,6.983-20.649,9.149
			C62.467,124.65,53.933,131.6,54.6,137.2c0.6,5.166,5.217,19.333,13.85,42.5C76.884,202.267,81.1,214.35,81.1,215.95
			c0,2.666-3.017,4.316-9.05,4.95c-5.367,0.566-9.95,0.267-13.75-0.9c-3.933-11.167-7.983-22.967-12.15-35.4
			c-8.267-24.833-12.917-40.366-13.95-46.6c-1.1-6.6,1.566-13.083,8-19.45c4.566-4.566,10.283-8.483,17.15-11.75
			c2.2-1.033,6.167-2.816,11.9-5.35c5.533-2.5,10.1-4.75,13.7-6.75c10.8-5.967,17-11.784,18.6-17.45
			c1.467-5.333,3.617-16.85,6.45-34.55C109.434,33.867,110.7,25.55,111.8,17.75z"/>
		<g>
			<path style="fill-rule:evenodd;clip-rule:evenodd;fill:#C46544;" d="M37.95,147.1c-1.1-3.366-1.9-6.816-2.4-10.35l-0.4-4.3
				l-0.85,2.05c-0.5,1.6-0.683,2.934-0.55,4c0.167,1.434,0.967,4.6,2.4,9.5c1.533,5.267,3.117,10.15,4.75,14.65
				c2.267,6.3,7.233,20.699,14.9,43.199c1.767,0.733,3.167,1.051,4.2,0.95C47.067,172.366,39.717,152.467,37.95,147.1z M44.3,122.95
				l-1.6,2.3c-1.1,1.9-1.75,3.783-1.95,5.65c-0.233,2.033,0,4.633,0.7,7.8c0.367,1.666,1.417,5.7,3.15,12.1
				c1.867,6.834,8.45,26.334,19.75,58.5c0,3.334-2.833,4.55-8.5,3.65c-5.067-14.533-9.533-27.733-13.4-39.601
				c-6-18.366-9.417-30.149-10.25-35.35c-0.833-4.866,0.433-9.7,3.8-14.5c-0.467,1.3-0.817,2.55-1.05,3.75
				c-0.4,1.967-0.233,2.917,0.5,2.85C36.683,130,39.633,127.616,44.3,122.95z"/>
			<path style="fill-rule:evenodd;clip-rule:evenodd;fill:#C46544;" d="M108,42.7c1.434-8.833,2.7-17.15,3.8-24.95l9.5,1.1
				c-4.066,30.066-7.083,48.133-9.05,54.2c-1.3,4.034-3.5,7.85-6.6,11.45c-1.534,1.833-2.95,3.25-4.25,4.25
				c0.833-1.367,1.6-2.8,2.3-4.3c1.366-3.034,1.733-4.867,1.1-5.5c-0.833-0.833-2.583,0-5.25,2.5c0.967-1.434,1.634-2.833,2-4.2
				C103.017,71.917,105.167,60.4,108,42.7z M117.55,21.55l-2.95-0.75l-4.8,29.55c-0.633,3.733-2.149,11.967-4.55,24.7
				c2.7-5.9,4.684-11.433,5.95-16.6C112.434,53.25,114.55,40.95,117.55,21.55z"/>
			<path style="fill-rule:evenodd;clip-rule:evenodd;fill:#C46544;" d="M111.2,97.8c2.333-1,4.45-2.4,6.35-4.2
				c1.267-1.233,2.283-2.45,3.05-3.65c-1.8,5.167-3.633,8.466-5.5,9.9c-2.166,1.667-6.916,4.117-14.25,7.35
				c-9.1,3.933-15.983,6.983-20.649,9.149C62.467,124.65,53.933,131.6,54.6,137.2l0.1,0.899c-1.333-3.666-1.733-6.899-1.2-9.699
				c0.467-2.767,4.267-6.351,11.4-10.75c5.867-3.601,11.234-6.284,16.1-8.05c3.566-1.3,8.684-3.25,15.35-5.85
				C102.816,101.217,107.767,99.233,111.2,97.8z"/>
			<path style="fill-rule:evenodd;clip-rule:evenodd;fill:#A3573C;" d="M36.15,148c-1.433-4.9-2.233-8.066-2.4-9.5
				c-0.133-1.066,0.05-2.4,0.55-4l0.85-2.05l0.4,4.3c0.5,3.533,1.3,6.983,2.4,10.35c1.767,5.367,9.117,25.267,22.05,59.7
				c-1.033,0.101-2.433-0.217-4.2-0.95c-7.667-22.5-12.633-36.899-14.9-43.199C39.267,158.15,37.683,153.267,36.15,148z"/>
			<path style="fill-rule:evenodd;clip-rule:evenodd;fill:#A3573C;" d="M114.6,20.8l2.95,0.75c-3,19.4-5.116,31.7-6.35,36.9
				c-1.267,5.167-3.25,10.7-5.95,16.6c2.4-12.733,3.917-20.966,4.55-24.7L114.6,20.8z"/>
			<path style="fill-rule:evenodd;clip-rule:evenodd;fill:#E9BB99;" d="M124.1,46.9l2.15-24.85h4.55l-2.5,25.35
				c-0.733,7.233-2.55,17.333-5.45,30.3c0-2.267-0.05-3.817-0.149-4.65c-0.066-0.533-0.9,1.067-2.5,4.8
				c-0.767,1.867-1.55,3.783-2.351,5.75c0.834-3.833,1.667-7.35,2.5-10.55c0.567-2.167,1.267-6.3,2.101-12.4
				C123.15,55.517,123.7,50.933,124.1,46.9z"/>
			<path style="fill-rule:evenodd;clip-rule:evenodd;fill:#E9BB99;" d="M49.45,137.9c0.367,1.767,1.5,5.149,3.4,10.149
				c1.7,4.467,3.417,8.65,5.15,12.55c2.067,4.667,7.817,18.4,17.25,41.2c-0.934-0.6-1.767-1.017-2.5-1.25
				c-0.434-0.133-0.9,0.4-1.4,1.601c-0.233,0.6-0.433,1.216-0.6,1.85c-5.2-14.833-8.783-24.733-10.75-29.7
				c-1.233-3.1-4.017-10.75-8.35-22.95L45.55,134c1.233,0.866,2.133-0.083,2.7-2.85c0.3-1.567,0.483-3.567,0.55-6
				C48.8,131.55,49.017,135.8,49.45,137.9z"/>
			<path style="fill-rule:evenodd;clip-rule:evenodd;fill:#A3573C;" d="M89.2,93.4c1.566-1.033,3.616-2.45,6.149-4.25
				c1.834-1.3,2.967-1.95,3.4-1.95c1.333,0,1.533,0.583,0.6,1.75c-0.5,0.633-1.533,1.6-3.1,2.9c-0.9,0.733-3.583,2.35-8.05,4.85
				c-4.334,2.433-7.566,4.133-9.7,5.1c-8.366,3.967-12.85,6.1-13.45,6.4c-7.466,3.667-12.517,6.417-15.15,8.25
				c-2.833,2-5.133,3.25-6.9,3.75c-1.667,0.434-1.95,0.116-0.85-0.95c0.867-0.9,2.567-2.25,5.1-4.05c2.367-1.7,4.4-3.05,6.1-4.05
				c1.133-0.667,4.4-2.2,9.8-4.6c6.167-2.767,10.05-4.55,11.65-5.35C78.533,99.333,83.333,96.733,89.2,93.4z"/>
		</g>
		<path style="fill-rule:evenodd;clip-rule:evenodd;fill:#CD6C49;" d="M84.1,207.55c0.934,1.434,1.717,4.033,2.351,7.8
			c0.333,1.867,0.566,3.601,0.7,5.2c-0.5,0.8-1.634,1.601-3.4,2.4c-3.5,1.633-8.35,2.517-14.55,2.649
			c-6.233,0.134-11.417-0.6-15.55-2.199l-4.35-2.45c0.2-2.9,0.5-5.384,0.9-7.45c0.267-1.3,0.917-2.833,1.95-4.6l1.5-2.25l4.85,0.899
			c3.733,0.533,6.883,0.533,9.45,0c2.6-0.5,4.934-1.416,7-2.75l2.35-1.899l2.601,1.05C81.8,204.95,83.2,206.15,84.1,207.55z"/>
		<path style="fill-rule:evenodd;clip-rule:evenodd;fill:#CD6C49;" d="M138.4,17.8c-0.534,5.833-1.267,9.483-2.2,10.95
			c-0.634,0.967-1.334,1.683-2.101,2.15c-0.5,0.3-1.199,0.567-2.1,0.8c-2.2,0.466-3.75,0.75-4.65,0.85
			c-2.933,0.3-5.783,0.117-8.55-0.55c-2.2-0.533-4.233-1.5-6.1-2.9l-2.15-1.95c-0.133,0.033-0.3-0.05-0.5-0.25
			c-0.434-0.433-0.883-1.283-1.35-2.55c-0.467-1.233-0.25-3.75,0.649-7.55c0.467-1.9,0.967-3.683,1.5-5.35L138.4,17.8z"/>
		<path style="fill-rule:evenodd;clip-rule:evenodd;fill:#AD5E40;" d="M125.95,32.65c-2.8,0.267-5.184,0.05-7.15-0.65
			c-2.833-1-5.017-2.033-6.55-3.1c-2-1.433-3.233-3.1-3.7-5c-0.399-1.733-0.149-4.217,0.75-7.45c0.467-1.633,0.967-3.083,1.5-4.35
			l5.45,6.85l-0.85,3.95c-0.467,2.767-0.417,4.583,0.149,5.45c0.566,0.9,2.184,1.783,4.851,2.65c2.199,0.7,4.033,1.117,5.5,1.25
			c1.433,0.1,2.649,0.033,3.649-0.2C128.55,32.317,127.35,32.517,125.95,32.65z"/>
		<path style="fill-rule:evenodd;clip-rule:evenodd;fill:#E9BB99;" d="M126.9,9.6c2.966,0.767,5.716,2.05,8.25,3.85
			c2.733,1.9,3.767,3.517,3.1,4.85c-0.967,1.934-2.4,3.233-4.3,3.9c-2.867,1.033-6.884,0.816-12.05-0.65
			c-4.834-1.333-8.15-3.2-9.95-5.6c-1.2-1.633-1.566-3.133-1.101-4.5c0.634-1.7,2.801-2.65,6.5-2.85
			C120.483,8.433,123.667,8.767,126.9,9.6z"/>
		<path style="fill-rule:evenodd;clip-rule:evenodd;fill:#3E2126;" d="M126.4,11.15c2.5,0.7,4.8,1.8,6.899,3.3
			c2.066,1.466,2.834,2.55,2.3,3.25c-0.633,0.8-2.083,1.3-4.35,1.5c-2.634,0.267-5.533-0.034-8.7-0.9c-3-0.8-5.2-2.083-6.6-3.85
			c-1.134-1.434-1.434-2.483-0.9-3.15c0.467-0.533,1.816-0.85,4.05-0.95C121.6,10.217,124.033,10.483,126.4,11.15z"/>
		<path style="fill-rule:evenodd;clip-rule:evenodd;fill:#D98560;" d="M131.3,24c1.566,0.067,2.983-0.233,4.25-0.9
			c0.634-0.333,1.117-0.684,1.45-1.05c-0.167,2.434-0.634,4.45-1.4,6.05c-0.466,1-1.449,1.7-2.949,2.1l-2.101,0.25
			c0.367-0.333,0.65-1.117,0.851-2.35c0.133-0.767,0.149-1.684,0.05-2.75L131.3,24z"/>
		<path style="fill-rule:evenodd;clip-rule:evenodd;fill:#D98560;" d="M82.8,208.7c1.101,1.033,1.95,3.149,2.55,6.35
			c0.301,1.601,0.483,3.084,0.551,4.45l-5.801,1.85c0.101-0.699,0.134-1.533,0.101-2.5c-0.033-1.966-0.351-3.683-0.95-5.149
			s-1.5-2.601-2.7-3.4l-1.649-0.75c0.8-1.166,1.966-1.883,3.5-2.149C80.066,207.134,81.533,207.566,82.8,208.7z"/>
		<g>
			<path style="fill-rule:evenodd;clip-rule:evenodd;fill:#AD5E40;" d="M84,222l3.15-1.45c-0.5,0.8-1.634,1.601-3.4,2.4
				c-3.5,1.633-8.35,2.517-14.55,2.649c-6.233,0.134-11.417-0.6-15.55-2.199l-4.35-2.45c0.2-2.9,0.5-5.384,0.9-7.45
				c0.267-1.3,0.917-2.833,1.95-4.6l1.5-2.25l3.1,0.649c2.5,0.434,4.817,0.65,6.95,0.65v0.35l-1.4,0.8c-1,0.9-1.633,2.217-1.9,3.95
				c-0.433,2.767-0.517,6.367-0.25,10.8l4.9,0.7c3.7,0.4,6.634,0.517,8.8,0.351c2.233-0.2,4.301-0.617,6.2-1.25
				C80.717,223.417,82.033,222.866,84,222z"/>
		</g>
		<path style="fill-rule:evenodd;clip-rule:evenodd;fill:#7F4A34;" d="M58.95,211l-0.45,1.35c-0.367,1.134-0.633,2.267-0.8,3.4
			c-0.3,1.8-0.517,4.083-0.65,6.85l-2.5-0.6c-0.7-0.2-1.35-0.533-1.95-1l-0.7-0.65c0-1.267,0.2-3,0.6-5.199
			c0.267-1.4,0.8-2.65,1.6-3.75l1.1-1.25L58.95,211z"/>
	</g>
	<path style="fill-rule:evenodd;clip-rule:evenodd;fill:#A2BDA2;" d="M128.95,1.8c2.333-0.033,4.45-0.167,6.35-0.4
		c-1.399,0.434-3.1,0.8-5.1,1.1c-4,0.533-7.55,0.383-10.65-0.45c-3.533-0.966-7.133,0.25-10.8,3.65c-3.533,3.3-5.134,6.617-4.8,9.95
		c0.133,1.5,1.899,5.267,5.3,11.3c2.9,5.233,3.884,9.216,2.95,11.95c-0.9,2.567-3.75,5.9-8.55,10c-5.067,4.3-8.101,7.434-9.101,9.4
		c-1.366,2.7-0.934,7.367,1.3,14c1.101,3.333,2.334,6.383,3.7,9.15c-1.566,2.133-2.649,3.533-3.25,4.2c-0.566,0.667-2.233,2-5,4
		c-1.333-2.333-2.55-5.417-3.649-9.25c-1.667-5.767-2.367-11.467-2.101-17.1c0.267-5.133,3.816-10.9,10.65-17.3
		c1.733-1.633,4.133-3.767,7.2-6.4c2.199-2.033,3.383-3.517,3.55-4.45c0.233-1.367-0.834-4.45-3.2-9.25
		c-2.533-5.1-3.8-9.133-3.8-12.1c0-3.966,2.467-7.5,7.399-10.6c4.733-3,8.517-3.883,11.351-2.65C120.9,1.483,124.316,1.9,128.95,1.8
		z"/>
	<path style="fill-rule:evenodd;clip-rule:evenodd;fill:#A2BDA2;" d="M74.95,126.3c-6.034-4.6-12.15-7.35-18.35-8.25
		c-6.567-0.967-10.667,0.667-12.3,4.9c-1.8,4.733-2.417,11.416-1.85,20.05c0.566,9.333,2.4,17.684,5.5,25.05
		c4.133,9.9,6.833,16.117,8.1,18.65c2.667,5.399,6.3,11.35,10.9,17.85c4.267,6.033,8.916,11.634,13.95,16.8
		c2.533,2.601,4.633,4.584,6.3,5.95c-1.733-0.467-3.717-0.866-5.95-1.2c-4.467-0.666-7.9-0.683-10.3-0.05
		c-2.4,0.634-4.917,1.617-7.55,2.95l-3.2,1.8c-0.833-0.566-1.9-1.133-3.2-1.7c-2.567-1.066-5-1.5-7.3-1.3
		c-2.3,0.2-4.867,0.934-7.7,2.2l-3.55,1.8c-0.7-0.833-1.6-1.684-2.7-2.55c-2.233-1.7-4.333-2.6-6.3-2.7
		c-1.967-0.1-4.4,0.584-7.3,2.05l-3.7,2.2c0.2-1.3-0.117-2.533-0.95-3.7c-1.667-2.333-5.1-3.183-10.3-2.55
		c3.767-1.7,7.667-4.05,11.7-7.05c8.067-6,12.833-12.233,14.3-18.7c0.633-2.866,0-7.666-1.9-14.399c-0.9-3.2-2.867-9.167-5.9-17.9
		c-3.566-7.134-6.533-12.733-8.9-16.8c-4.333-7.4-7.85-12.033-10.55-13.9c-2.5-1.733-4.233-4.166-5.2-7.3
		c-1.1-3.467-0.95-7.033,0.45-10.7c1.267-3.233,3.9-6.283,7.9-9.15l5.6-3.35l-4.3,2.8c-3.1,2.5-5.333,5.316-6.7,8.45
		c-1.767,4.066-2.233,7.467-1.4,10.2c1,3.233,3.883,6.167,8.65,8.8c3.2,1.767,6.316,4.634,9.35,8.601
		c-0.433-7.834,0.483-14.817,2.75-20.95c2.9-7.867,7.867-13.75,14.9-17.65c9.2-5.1,19.933-4.65,32.2,1.35
		c3.8,1.833,8.05,4.4,12.75,7.7c4.899,3.4,7.583,5.216,8.05,5.45c3.166,1.634,5.649,1.983,7.45,1.05
		c1.633-0.866,2.316-2.466,2.05-4.8c-0.2-1.767-0.767-3.5-1.7-5.2l-1.3-2.05l11.25-5.25l1.149,2.4c0.834,1.966,1.45,3.966,1.851,6
		c1.333,6.399,0.333,11.684-3,15.85c-1.167,1.367-2.334,2.45-3.5,3.25c3.399,0.733,6.1,2.066,8.1,4
		c2.767,2.634,1.834,6.267-2.8,10.9c-2.333,2.3-4.934,4.333-7.8,6.1c2.267-1.934,4.233-4.017,5.899-6.25
		c3.334-4.467,3.483-7.434,0.45-8.899c-3.033-1.467-6.017-2.384-8.95-2.75l-3.55-0.101v-0.05c-3.366,0.233-6.967-0.384-10.8-1.85
		C82.083,131,78.483,128.967,74.95,126.3z"/>
	<g>
		<path style="fill-rule:evenodd;clip-rule:evenodd;fill:#89AA8B;" d="M101.75,12.3c-0.434,2,0.45,5.25,2.65,9.75
			c2.767,5.667,4.333,9.3,4.699,10.9c0.7,2.933,0.567,5.083-0.399,6.45c-1.667,1.434-3.084,2.733-4.25,3.9
			c-3.4,2.867-6.084,5.3-8.05,7.3c-3.667,3.7-5.601,7.033-5.801,10C90.3,64.833,91.9,73.45,95.4,86.45
			c-1,0.867-2.367,1.933-4.101,3.2c-1.333-2.333-2.55-5.417-3.649-9.25c-1.667-5.767-2.367-11.467-2.101-17.1
			c0.267-5.133,3.816-10.9,10.65-17.3c1.733-1.633,4.133-3.767,7.2-6.4c2.199-2.033,3.383-3.517,3.55-4.45
			c0.233-1.367-0.834-4.45-3.2-9.25c-2.533-5.1-3.8-9.133-3.8-12.1c0-3.533,2.05-6.783,6.149-9.75c3.801-2.8,7.367-4.117,10.7-3.95
			l-1.85,0.5c-2.467,0.566-5.084,1.967-7.851,4.2C104.1,7.3,102.316,9.8,101.75,12.3z"/>
	</g>
	<g>
		<path style="fill-rule:evenodd;clip-rule:evenodd;fill:#89AA8B;" d="M41.2,104c-0.067,0.567-0.05,1,0.05,1.3
			c0.367,1.034,3.65,1.367,9.85,1c-1.8,0.2-3.3,0.467-4.5,0.8c-6.267,1.867-10.817,6.483-13.65,13.85
			c-1.833,4.733-1.9,12.916-0.2,24.55c1.433,9.934,3.6,19.417,6.5,28.45c1.8,5.533,5.8,16.416,12,32.649
			c5.7,14.867,8.683,22.934,8.95,24.2c-0.833-0.566-1.9-1.133-3.2-1.7c-2.567-1.066-5-1.5-7.3-1.3c-1,0.033-2.034,0.217-3.1,0.55
			c0.333-8.966-0.05-15.983-1.15-21.05c-0.667-2.899-3.434-12.934-8.3-30.1c-4.566-16-7.467-27.217-8.7-33.65
			c-1.367-7.066-0.684-14.649,2.05-22.75c0.833-2.533,1.833-4.95,3-7.25l1.45-2.75l-4.5,6.15c-3.067,5.066-4.817,10.1-5.25,15.1
			c-0.434,5.334,0.05,11.184,1.45,17.55c0.867,3.801,2.55,9.45,5.05,16.95c5.5,16.467,7.167,29.717,5,39.75
			c-1,4.566-3.833,9.533-8.5,14.9c-2.867,3.267-6.117,6.366-9.75,9.3c0.133-1.533-0.333-2.85-1.4-3.95
			c-1.833-1.899-5.117-2.566-9.85-2c3.767-1.7,7.667-4.05,11.7-7.05c8.067-6,12.833-12.233,14.3-18.7
			c0.633-2.866,0-7.666-1.9-14.399c-0.9-3.2-2.867-9.167-5.9-17.9c-3.566-7.134-6.533-12.733-8.9-16.8
			c-4.333-7.4-7.85-12.033-10.55-13.9c-2.5-1.733-4.233-4.166-5.2-7.3c-1.1-3.467-0.95-7.033,0.45-10.7
			c1.267-3.233,3.9-6.283,7.9-9.15l0.4-0.25c1.072-0.783,2.238-1.5,3.5-2.15l1.7-0.95l-5.2,3.1c-3.518,2.605-5.968,5.955-7.35,10.05
			c-1.3,3.833-1.533,7.116-0.7,9.85c0.367,1.233,2.283,3.351,5.75,6.351c4.2,3.633,6.667,5.899,7.4,6.8
			c2.1,2.533,6.217,8.25,12.35,17.149c-3-6.433-5.217-11.25-6.65-14.449c-0.433-7.834,0.483-14.817,2.75-20.95
			c2.9-7.867,7.867-13.75,14.9-17.65C38.65,105.117,39.733,104.6,41.2,104z"/>
		<path style="fill-rule:evenodd;clip-rule:evenodd;fill:#89AA8B;" d="M42.3,115.05l3.65-2.25l-3.85,3.25
			c-2.6,2.634-4.05,5.15-4.35,7.55c-0.5,4.601-0.433,10.25,0.2,16.95c0.933,9.601,2.983,18.45,6.15,26.55
			c3.6,9.233,9.6,20.7,18,34.4c4.9,8,10.183,16.066,15.85,24.2c-3-0.233-5.334-0.117-7,0.35c-2.067,0.5-4.3,1.334-6.7,2.5
			l-10.5-29.45c-3.967-10.066-7.117-18.25-9.45-24.55c-4.3-11.633-6.867-20.616-7.7-26.95c-0.934-7.133-1.3-12.933-1.1-17.399
			c0.167-3.667,0.75-6.8,1.75-9.4C38.017,118.833,39.7,116.917,42.3,115.05z"/>
		<path style="fill-rule:evenodd;clip-rule:evenodd;fill:#89AA8B;" d="M74.95,126.3c-3.634-2.767-7.5-4.916-11.6-6.45
			c-4.133-1.566-7.817-2.233-11.05-2l0.65-0.25c3.933-1,9.017,0.017,15.25,3.051c3.467,1.666,7.649,4.216,12.55,7.649
			c2.333,1.601,5.866,2.667,10.6,3.2c2.567,0.3,5.767,0.5,9.601,0.6c2.934,0.233,5.583,1.051,7.95,2.45
			c3.1,1.8,4.283,4.101,3.55,6.9c-0.767,2.833-2.8,5.583-6.101,8.25c-1.366,1.066-2.583,1.934-3.649,2.6
			c2.267-1.934,4.233-4.017,5.899-6.25c3.334-4.467,3.483-7.434,0.45-8.899c-3.033-1.467-6.017-2.384-8.95-2.75l-3.55-0.101v-0.05
			c-3.366,0.233-6.967-0.384-10.8-1.85C82.083,131,78.483,128.967,74.95,126.3z"/>
		<path style="fill-rule:evenodd;clip-rule:evenodd;fill:#89AA8B;" d="M67.25,110.45L73,112.3c3.967,1.1,6.217,1.267,6.75,0.5
			l0.15-0.3c1.3,0.867,3.5,2.4,6.6,4.6c2.167,1.534,3.65,2.517,4.45,2.95c3.166,1.634,5.649,1.983,7.45,1.05
			c1.633-0.866,2.316-2.466,2.05-4.8c-0.2-1.767-0.767-3.5-1.7-5.2l-1.3-2.05l6.55-3.1c1.366,3.933,2.134,7.383,2.3,10.35
			c0.233,4.267-0.883,7.033-3.35,8.3c-3.334,1.7-7.834,1.233-13.5-1.399c-1.834-0.867-5.667-3.167-11.5-6.9
			c-2.167-1.4-4.601-2.8-7.3-4.2L67.25,110.45z"/>
		<path style="fill-rule:evenodd;clip-rule:evenodd;fill:#6B8B6F;" d="M25.2,132.05c0.433-5,2.183-10.033,5.25-15.1l4.5-6.15
			l-1.45,2.75c-1.167,2.3-2.167,4.717-3,7.25c-2.733,8.101-3.417,15.684-2.05,22.75c1.233,6.434,4.133,17.65,8.7,33.65
			c4.867,17.166,7.633,27.2,8.3,30.1c1.1,5.066,1.483,12.084,1.15,21.05c-1.833,0.467-3.733,1.184-5.7,2.15l-2.45,1.3
			c-0.7-0.833-1.6-1.684-2.7-2.55c-2.233-1.7-4.333-2.6-6.3-2.7c-1.967-0.1-4.4,0.584-7.3,2.05l-3.7,2.2v-0.3
			c3.633-2.934,6.883-6.033,9.75-9.3c4.667-5.367,7.5-10.334,8.5-14.9c2.167-10.033,0.5-23.283-5-39.75
			c-2.5-7.5-4.184-13.149-5.05-16.95C25.25,143.233,24.767,137.384,25.2,132.05z"/>
		<path style="fill-rule:evenodd;clip-rule:evenodd;fill:#C2D6C1;" d="M56.6,103.8c3,0.534,8.383,2.467,16.15,5.8
			c-7.1-2.533-12.2-4.083-15.3-4.65c-1.967-0.367-4.083-0.617-6.35-0.75l-2.85-0.1l2.5-0.45
			C52.783,103.383,54.733,103.433,56.6,103.8z"/>
		<path style="fill-rule:evenodd;clip-rule:evenodd;fill:#C2D6C1;" d="M110.95,119.45c-0.4,2.5-1.517,4.533-3.351,6.1
			c-0.933,0.767-1.816,1.283-2.649,1.55c0.333-0.267,0.717-0.783,1.149-1.55c0.9-1.467,1.617-3.383,2.15-5.75
			c0.566-2.366,0.717-5.333,0.45-8.9l-0.601-4.6l1.7,5C110.866,115,111.25,117.717,110.95,119.45z"/>
	</g>
</g>
</svg>
