<?xml version="1.0" encoding="iso-8859-1"?>
<!-- Generator: Adobe Illustrator 15.1.0, SVG Export Plug-In . SVG Version: 6.00 Build 0)  -->
<!DOCTYPE svg PUBLIC "-//W3C//DTD SVG 1.1//EN" "http://www.w3.org/Graphics/SVG/1.1/DTD/svg11.dtd">
<svg version="1.1" id="Layer_3" xmlns="http://www.w3.org/2000/svg" xmlns:xlink="http://www.w3.org/1999/xlink" x="0px" y="0px"
	 width="29.95px" height="77.15px" viewBox="0 0 29.95 77.15" style="enable-background:new 0 0 29.95 77.15;" xml:space="preserve"
	>
<symbol  id="FlashAICB_x2F_Layer_3_x2F__x3C_Path_x3E__x5F_6" viewBox="-0.001 -6.083 28.202 6.054">
	<g id="Layer_1_2_">
		<path style="fill-rule:evenodd;clip-rule:evenodd;fill:#4F5351;" d="M16.2-6.05c-4.467-0.133-8.25,0.133-11.35,0.8
			C2.083-4.683,0.5-3.95,0.1-3.05c-0.434,0.9,0.533,1.633,2.9,2.2c2.667,0.633,6.567,0.9,11.7,0.8C24.8-0.283,29.233-1.317,28-3.15
			C26.833-4.917,22.9-5.883,16.2-6.05z"/>
	</g>
</symbol>
<g>
	<g>
		
			<use xlink:href="#FlashAICB_x2F_Layer_3_x2F__x3C_Path_x3E__x5F_6"  width="28.202" height="6.054" x="-0.001" y="-6.083" transform="matrix(1 0 0 -1 1.75 71.0498)" style="overflow:visible;opacity:0.3281;enable-background:new    ;"/>
		<path style="fill-rule:evenodd;clip-rule:evenodd;fill:#4E7B69;" d="M4,44.2h23.5l1.15,5c0.767,4,1.116,7.684,1.05,11.05
			c-0.2,10.7-4.517,16.1-12.95,16.2C8.317,76.55,3.667,71.2,2.8,60.4c-0.3-3.367-0.183-7.084,0.35-11.15L4,44.2z"/>
		<path style="fill-rule:evenodd;clip-rule:evenodd;fill:#779588;" d="M4.7,43.7c2.133-1.066,6.533-1.483,13.2-1.25
			c6.533,0.233,9.733,0.816,9.6,1.75c-0.167,1.133-1.15,2.184-2.95,3.149c-2.3,1.233-5.233,1.851-8.8,1.851
			c-3.767,0-6.967-0.733-9.6-2.2C3.65,45.566,3.167,44.467,4.7,43.7z"/>
		<path style="fill-rule:evenodd;clip-rule:evenodd;fill:#63472F;" d="M15,43.45c2,0,4.066,0.083,6.2,0.25
			c2.8,0.233,4.233,0.533,4.3,0.899c0.1,0.434-0.866,0.934-2.9,1.5c-2.1,0.534-4.3,0.867-6.6,1c-2.1,0.101-4.217-0.133-6.35-0.699
			c-1.8-0.5-2.933-1.017-3.4-1.551c-0.333-0.433,0.5-0.783,2.5-1.05C10.517,43.566,12.6,43.45,15,43.45z"/>
		<path style="fill-rule:evenodd;clip-rule:evenodd;fill:#668A7B;" d="M23.7,49.25c1.1-0.333,2.184-0.884,3.25-1.65l0.8,3.45
			c0.533,2.733,0.816,5.217,0.85,7.45c0.034,2.467-0.316,4.917-1.05,7.35c-0.633,2.101-1.233,3.351-1.8,3.75
			C25.184,70,24.8,69.934,24.6,69.4c-0.267-0.667-0.149-1.934,0.351-3.801c0.434-1.699,0.35-4.933-0.25-9.699L23.7,49.25z"/>
		<path style="fill-rule:evenodd;clip-rule:evenodd;fill:#3E6153;" d="M4,46.6L4.45,47c0.4,0.366,0.917,0.7,1.55,1
			c1,0.5,1.983,0.866,2.95,1.1L8.3,60.15c-0.1,7.633,0.633,12.066,2.2,13.3c1.6,1.2,3.866,1.883,6.8,2.05
			c1.467,0.066,2.767,0.017,3.9-0.15c-2.9,0.667-5.566,0.801-8,0.4c-2.2-0.333-4.083-1.333-5.65-3c-1.966-2.134-3.233-5.134-3.8-9
			C3.217,60.217,3.1,56.3,3.4,52L4,46.6z"/>
		<path style="fill-rule:evenodd;clip-rule:evenodd;fill:#2F473E;" d="M7.2,50.45L6.75,54.35c-0.3,2.934-0.4,5.184-0.3,6.75
			C6.617,63.6,7.133,66.983,8,71.25c-1.5-2.5-2.467-5.217-2.9-8.15c-0.267-1.833-0.434-4.649-0.5-8.449v-5.2L7.2,50.45z"/>
	</g>
	<g>
		<path style="fill-rule:evenodd;clip-rule:evenodd;fill:#A17082;" d="M25.95,8.25c-0.233,7.2-2.467,10.9-6.7,11.1
			c-2.1,0.1-3.5,0.1-4.2,0l0.75,16l0.9,0.5c0.7,0.2,1.333,0.066,1.899-0.4c0.601-0.5,0.9-1.317,0.9-2.45l-0.15-1.55l0.7,0.5
			c0.467,0.466,0.717,1.05,0.75,1.75c0.066,1.6-0.316,2.667-1.149,3.2c-0.434,0.3-1.134,0.45-2.101,0.45
			c-0.5,0-0.899-0.083-1.2-0.25l-0.3-0.25l0.9,9.6c-0.4,0.166-0.867,0.267-1.4,0.3c-1.033,0.066-1.867-0.184-2.5-0.75l0.25-12.55
			c-1.3,0.5-2.716,0.833-4.25,1c-3.033,0.3-5.1-0.45-6.2-2.25c-1.1-1.8-1.567-4.633-1.4-8.5l0.6-5.25c0.667-0.1,1.35-0.133,2.05-0.1
			c1.4,0.133,2.133,0.633,2.2,1.5c0.067,0.7-0.1,2.667-0.5,5.9c-0.2,2.967,0.15,4.617,1.05,4.95c0.933,0.333,2.217,0.367,3.85,0.1
			c0.8-0.167,1.517-0.35,2.15-0.55c-0.934-4.567-1.684-9.217-2.25-13.95C9.433,6.867,9.717,1.8,11.45,1.1
			c1.733-0.7,2.767,1.5,3.1,6.6c0.167,2.533,0.167,5.2,0,8c3.101,1.5,5.351,1,6.75-1.5c0.834-1.534,0.934-3.833,0.3-6.9
			c-0.3-1.5-0.649-2.85-1.05-4.05c0.101,0,1.05,0.267,2.851,0.8C25.167,4.95,26.017,6.35,25.95,8.25z"/>
		<g>
			<g>
				<g>
					<path style="fill-rule:evenodd;clip-rule:evenodd;fill:#E3D8DA;" d="M13.15,3.35c0.367-0.467,1.15-1.2,2.35-2.2
						c-0.866,1.233-1.4,2.1-1.6,2.6L13.15,3.35z"/>
				</g>
			</g>
		</g>
		<g>
			<g>
				<g>
					<path style="fill-rule:evenodd;clip-rule:evenodd;fill:#E3D8DA;" d="M24.9,6.2c0.899-0.567,2.383-1.017,4.449-1.35
						c-1.866,0.9-3.083,1.667-3.649,2.3L24.9,6.2z"/>
				</g>
			</g>
		</g>
		<g>
			<g>
				<g>
					<path style="fill-rule:evenodd;clip-rule:evenodd;fill:#E3D8DA;" d="M9.9,11.55c-0.467-0.733-1.083-1.316-1.85-1.75
						c0.8,0.233,1.583,0.65,2.35,1.25L9.9,11.55z"/>
				</g>
			</g>
		</g>
		<g>
			<g>
				<g>
					<path style="fill-rule:evenodd;clip-rule:evenodd;fill:#E3D8DA;" d="M4.7,19.55c0.667-0.966,1.683-1.716,3.05-2.25
						C6.617,18.2,5.9,19.1,5.6,20L4.7,19.55z"/>
				</g>
			</g>
		</g>
		<g>
			<g>
				<g>
					<path style="fill-rule:evenodd;clip-rule:evenodd;fill:#E3D8DA;" d="M2.45,26.05l-1.35-0.5c-0.567-0.267-0.934-0.533-1.1-0.8
						c0.3,0.233,0.7,0.383,1.2,0.45l1.4,0.1L2.45,26.05z"/>
				</g>
			</g>
		</g>
		<g>
			<g>
				<g>
					<path style="fill-rule:evenodd;clip-rule:evenodd;fill:#E3D8DA;" d="M5.5,34.1c-1.133,0.833-1.9,1.333-2.3,1.5
						c0.1-0.1,0.7-0.783,1.8-2.05L5.5,34.1z"/>
				</g>
			</g>
		</g>
		<g>
			<g>
				<g>
					<path style="fill-rule:evenodd;clip-rule:evenodd;fill:#E3D8DA;" d="M15.05,28.8c0.767,0.4,1.733,0.483,2.9,0.25
						c-1.066,0.5-2.117,0.684-3.15,0.55L15.05,28.8z"/>
				</g>
			</g>
		</g>
		<g>
			<g>
				<g>
					<path style="fill-rule:evenodd;clip-rule:evenodd;fill:#E3D8DA;" d="M20.7,35.3c0.1,0.067,0.434,0.184,1,0.35l1.2,0.25L21.7,36
						c-0.601,0-1.05-0.067-1.351-0.2L20.7,35.3z"/>
				</g>
			</g>
		</g>
		<g>
			<g>
				<g>
					<path style="fill-rule:evenodd;clip-rule:evenodd;fill:#E3D8DA;" d="M20.05,32.35c0.733-0.733,1.3-1.267,1.7-1.6l-1.25,2
						L20.05,32.35z"/>
				</g>
			</g>
		</g>
		<g>
			<g>
				<g>
					<path style="fill-rule:evenodd;clip-rule:evenodd;fill:#E3D8DA;" d="M25.05,12.15c0.533,0.067,1.184,0.267,1.95,0.6
						c-0.866-0.067-1.533-0.083-2-0.05L25.05,12.15z"/>
				</g>
			</g>
		</g>
		<g>
			<g>
				<g>
					<path style="fill-rule:evenodd;clip-rule:evenodd;fill:#E3D8DA;" d="M19.3,16.1c-0.366-0.867-0.684-1.483-0.95-1.85
						c0.134,0.1,0.601,0.6,1.4,1.5L19.3,16.1z"/>
				</g>
			</g>
		</g>
		<g>
			<g>
				<g>
					<path style="fill-rule:evenodd;clip-rule:evenodd;fill:#E3D8DA;" d="M13.65,40.2c-1.3-0.066-2.267-0.15-2.9-0.25
						c0.3-0.033,1.25-0.217,2.85-0.55L13.65,40.2z"/>
				</g>
			</g>
		</g>
		<g>
			<g>
				<g>
					<path style="fill-rule:evenodd;clip-rule:evenodd;fill:#E3D8DA;" d="M21.25,3.75c0.167-0.9,0.733-2.15,1.7-3.75
						c-0.5,1.6-0.717,2.867-0.65,3.8L21.25,3.75z"/>
				</g>
			</g>
		</g>
		<path style="fill-rule:evenodd;clip-rule:evenodd;fill:#88606F;" d="M12,1.2c-0.5,1.333-0.7,3.033-0.6,5.1
			c0.067,2.1,0.917,9.85,2.55,23.25c0.1,0.633-0.133,0.817-0.7,0.55c-1.533-8.233-2.4-13.4-2.6-15.5
			C9.817,5.833,10.267,1.367,12,1.2z"/>
		<path style="fill-rule:evenodd;clip-rule:evenodd;fill:#88606F;" d="M3.6,18.7l-0.45,5.35c-0.133,3.767,0.117,6.184,0.75,7.25
			c0.633,1.1,2.5,1.55,5.6,1.35c1.567-0.066,3.05-0.267,4.45-0.6L14.9,46.5c-0.801-0.267-1.284-0.45-1.45-0.55
			c-0.167-0.134-0.167-4.434,0-12.9c-2.2,0.934-4.284,1.284-6.25,1.05c-1.567-0.167-2.667-0.517-3.3-1.05
			c-0.767-0.667-1.367-1.933-1.8-3.8c-0.4-1.633-0.517-3.883-0.35-6.75l0.4-3.75L3.6,18.7z"/>
		<path style="fill-rule:evenodd;clip-rule:evenodd;fill:#88606F;" d="M21.15,4.1C22.95,4.433,23.6,7.067,23.1,12
			c-0.166,1.467-0.866,2.65-2.1,3.55c-0.634,0.467-1.25,0.767-1.85,0.9c0.399-0.133,0.816-0.434,1.25-0.9
			c0.899-0.933,1.466-2.183,1.699-3.75C22.333,10.133,22.017,7.567,21.15,4.1z"/>
		<path style="fill-rule:evenodd;clip-rule:evenodd;fill:#88606F;" d="M14.9,18.5c3.233,0.133,5.35,0,6.35-0.4
			c1-0.367,1.733-0.833,2.2-1.4c-0.066,0.3-0.217,0.617-0.45,0.95c-0.467,0.667-1.15,1.067-2.05,1.2
			c-0.867,0.167-2.101,0.25-3.7,0.25l-2.1-0.05L14.9,18.5z"/>
		<path style="fill-rule:evenodd;clip-rule:evenodd;fill:#88606F;" d="M19.45,34.6c0.1-0.333,0.133-0.883,0.1-1.65l-0.05-1.1
			l0.35,0.65c0.2,0.533,0.25,1.033,0.15,1.5c-0.066,0.5-0.233,0.883-0.5,1.15c-0.19,0.191-0.574,0.407-1.15,0.65
			C18.925,35.54,19.291,35.14,19.45,34.6z"/>
		<path style="fill-rule:evenodd;clip-rule:evenodd;fill:#88606F;" d="M16.2,36.35l0.7,0.35c0.533,0.2,0.983,0.25,1.35,0.15
			c0.634-0.1,1.167-0.317,1.6-0.65l-0.25,0.55c-0.3,0.367-0.8,0.533-1.5,0.5c-0.699-0.033-1.233-0.183-1.6-0.45L16.2,36.35z"/>
		<path style="fill-rule:evenodd;clip-rule:evenodd;fill:#B18796;" d="M13.15,4.3c0.833,0.267,1.034,3.583,0.6,9.95
			c-0.2-1.7-0.367-3.383-0.5-5.05C12.95,5.867,12.917,4.233,13.15,4.3z"/>
		<path style="fill-rule:evenodd;clip-rule:evenodd;fill:#B18796;" d="M24.1,6.85c0.534-0.067,0.884,0.017,1.051,0.25
			c0.233,0.3,0.316,1,0.25,2.1c-0.167,2.2-0.567,4.033-1.2,5.5c-0.334,0.733-0.65,1.25-0.95,1.55c0.6-1.767,0.983-3.15,1.15-4.15
			c0.1-0.533,0.05-1.583-0.15-3.15C24.116,7.55,24.066,6.85,24.1,6.85z"/>
		<path style="fill-rule:evenodd;clip-rule:evenodd;fill:#B18796;" d="M5.15,20.55c0.5-0.033,0.717,0.417,0.65,1.35
			c-0.066,0.633-0.267,2.033-0.6,4.2c-0.133,1.533-0.034,2.8,0.3,3.8c0.2,0.5,0.4,0.85,0.6,1.05c-0.633,0-1.1-0.617-1.4-1.85
			c-0.233-1-0.317-2.633-0.25-4.9C4.517,21.8,4.75,20.583,5.15,20.55z"/>
		<polygon style="fill-rule:evenodd;clip-rule:evenodd;fill:#B18796;" points="14.35,19.75 14.75,27.35 13.85,19.7 		"/>
		<path style="fill-rule:evenodd;clip-rule:evenodd;fill:#B18796;" d="M20.4,33.25c0.133,1.1,0.05,1.883-0.25,2.35
			C19.983,35.833,19.8,35.967,19.6,36l0.4-0.75L20.4,33.25z"/>
		<polygon style="fill-rule:evenodd;clip-rule:evenodd;fill:#B18796;" points="14.9,32.6 15.2,32.2 16.75,46.05 15.95,44.25 
			15.75,46.05 		"/>
	</g>
</g>
</svg>
