<?xml version="1.0" encoding="iso-8859-1"?>
<!-- Generator: Adobe Illustrator 15.1.0, SVG Export Plug-In . SVG Version: 6.00 Build 0)  -->
<!DOCTYPE svg PUBLIC "-//W3C//DTD SVG 1.1//EN" "http://www.w3.org/Graphics/SVG/1.1/DTD/svg11.dtd">
<svg version="1.1" id="mountains" xmlns="http://www.w3.org/2000/svg" xmlns:xlink="http://www.w3.org/1999/xlink" x="0px" y="0px"
	 width="260.05px" height="755.95px" viewBox="0 0 260.05 755.95" style="enable-background:new 0 0 260.05 755.95;"
	 xml:space="preserve">
<g>
	<path style="fill-rule:evenodd;clip-rule:evenodd;fill:#8FB0A4;" d="M97.2,236.55c-0.534-6.2-1.684-11.466-3.45-15.8
		c-2-4.767-4.617-8.067-7.85-9.9c-4.433-2.533-8.65-1.8-12.65,2.2c-2.867,2.867-5.317,6.983-7.35,12.35
		c-4,10.633-5.75,22.333-5.25,35.1c0.267,6.867,1.283,12.9,3.05,18.1c1.966,5.967,4.767,10.417,8.4,13.35
		c0.061,0.05,0.119,0.1,0.175,0.15l0.2,0.175c2.678,2.068,5.32,2.61,7.925,1.625c2.633-1,5.033-3.283,7.2-6.85
		c2.267-3.633,4.233-8.316,5.9-14.05c1.6-5.533,2.75-11.517,3.45-17.95C97.583,248.55,97.667,242.383,97.2,236.55z M206.55,46.75
		c10.334-7.6,22.217-17.533,35.65-29.8c6.6-6,12.55-11.65,17.85-16.95l-81.2,103c-0.5,0.633-1.1,1.733-1.8,3.3
		c-2.2,5.267-3.934,10.7-5.2,16.3c-1.966,8.7-2.3,16.15-1,22.35c0.9,3.966,2.351,7.267,4.351,9.9c0.633,0.867,1.616,1.95,2.95,3.25
		c1.5,1.467,2.517,2.517,3.05,3.15c3.2,3.9,6.45,9.317,9.75,16.25c5.399,11.067,10.783,25.233,16.149,42.5
		c2.9,9.167,5.217,17.15,6.95,23.95c-2.8-4.233-4.916-7.417-6.35-9.55c-2.467-3.667-4.65-6.8-6.55-9.4
		c-6.2-8.4-11.7-15.033-16.5-19.9c-5.2-5.4-9.784-9.1-13.75-11.1c-2.2-1.1-4.301-1.65-6.301-1.65c-2.399,0-4.3,0.867-5.699,2.6
		c-2.934,3.367-4.884,8.883-5.851,16.55c-0.8,6.1-0.934,13.45-0.399,22.05c0.399,6.867,1.233,14.4,2.5,22.6
		c1.466,9.7,3.1,18.3,4.899,25.8c-3.6-6.1-6.133-10.217-7.6-12.35c-2-2.934-3.717-5.283-5.15-7.05c-2.033-2.5-4.066-4.583-6.1-6.25
		c-2.566-2.133-4.834-3.167-6.8-3.1c-2.134,0.133-3.867,1.767-5.2,4.9c-1.067,2.633-1.8,6.417-2.2,11.35
		c-0.3,3.267-0.367,7.033-0.2,11.3c0.4,8.467,1.7,16.8,3.9,25c2.233,8.4,5.316,16.217,9.25,23.45
		c4.166,7.733,8.899,13.883,14.2,18.45c2.8,2.434,5.733,4.367,8.8,5.8c4.733,2.267,9.899,2.917,15.5,1.95
		c5.267-0.833,10.767-2.833,16.5-6c4.366-2.4,9.233-5.7,14.6-9.9c4.167-3.267,8.717-7.267,13.65-12c2.133-2.067,4.2-4.183,6.2-6.35
		c2.033-2.333,3.583-4.05,4.649-5.15L194.1,453.95c-0.033,0.1,0.601,0.483,1.9,1.149l32.05,18.851
		c-22.033,50.6-33.217,76.283-33.55,77.05c-0.3,0.6-0.434,0.934-0.4,1c22.567,56.6,33.9,85.316,34,86.15l1.25,9.949
		c2.034,16.934,3.467,31.884,4.301,44.851c0.6,8.566,0.816,15.8,0.649,21.7c-0.3,9.8-1.6,17.916-3.899,24.35
		c-0.834,2.3-1.75,4.184-2.75,5.65l-1.75,2.05c-2.534,2.934-5.65,4.55-9.351,4.85c-3.533,0.233-7.267-0.566-11.2-2.399
		c-3.566-1.567-6.666-3.601-9.3-6.101c-1.133-1.033-2.083-2.116-2.85-3.25c-0.367-0.633-0.634-1.1-0.8-1.399
		c-0.334-0.534-0.684-0.95-1.051-1.25c-1.466-1.167-3.666-1.284-6.6-0.351c-1.267,0.367-4.5,2.134-9.7,5.3
		c-4.6,2.801-7.267,4.483-8,5.051c-0.434,0.399-0.684,0.583-0.75,0.55c-2.767-0.967-5.083-1.783-6.95-2.45
		c-3.566-1.233-5.416-1.816-5.55-1.75l-33.75,12.2c-0.3,0.133-6.2-2.316-17.7-7.351c-12.033-5.233-18.783-8.05-20.25-8.449
		c-2.767-0.733-5.65-1-8.65-0.801c-2.767,0.167-6.017,0.7-9.75,1.601c-4.3,1.133-7.517,1.95-9.65,2.45
		c-10.533,2.466-20.466,3.75-29.8,3.85c-4.533,0.066-8.25-0.2-11.15-0.8c-4.233-0.867-7.483-2.517-9.75-4.95
		c-3-3.267-3.8-8-2.4-14.2c0.566-2.399,1.533-5.217,2.9-8.45c1.767-4.066,3.4-7.116,4.9-9.149c7.667-10.4,14.2-19.634,19.6-27.7
		c6.767-10.134,12.683-19.767,17.75-28.9c5.3-9.533,9.083-17.783,11.35-24.75c2.6-8.233,3.15-15.449,1.65-21.649
		c-1.233-5.134-3.917-9.684-8.05-13.65c-3.633-3.5-8.167-6.333-13.6-8.5c-5.767-2.366-11.55-3.816-17.35-4.35
		c4.3-2.467,9.35-5.566,15.15-9.3C49.383,561.55,61.3,552.967,71,544.9c6.4-5.301,11.7-10.317,15.9-15.051
		c4.7-5.333,7.817-10.116,9.35-14.35c1.433-3.967,2.367-9.333,2.8-16.1c0.4-5.634,0.417-12.7,0.05-21.2
		c-0.633-13-2.15-27.95-4.55-44.851c-1.466-9.899-2.9-18.733-4.3-26.5c-0.1-0.267-0.15-0.449-0.15-0.55
		c-0.033-0.2,0.033-0.35,0.2-0.45L116.05,394c0.1-0.033,0.083-0.583-0.05-1.65l-3.9-66.2c-0.033-0.1-0.184-0.183-0.45-0.25
		c-4.667-0.7-9.85-1.867-15.55-3.5c-10.333-2.9-19.667-6.5-28-10.8c-11.4-5.9-20.417-12.867-27.05-20.9
		c-3.966-4.8-7.033-10.067-9.2-15.8c-2.167-5.767-3.333-11.733-3.5-17.9c-0.233-7.067,0.9-14.95,3.4-23.65
		c2.467-8.733,5.833-16.55,10.1-23.45c3.433-5.566,7.55-10.517,12.35-14.85c4.867-4.367,10.216-7.933,16.05-10.7
		c8.5-3.934,17.667-6.167,27.5-6.7c4.833-0.3,8.95-0.2,12.35,0.3l-4-97.45c-0.033-0.233-0.033-0.383,0-0.45
		c0-0.066,0.1-0.117,0.3-0.15l23.05-5.05c11.1-2.533,19.583-4.517,25.45-5.95c9.303-2.317,17.653-4.618,25.05-6.9
		c0.05-0.018,0.1-0.035,0.149-0.05c3.434-1.034,7.517-2.95,12.25-5.75C196.417,53.833,201.15,50.683,206.55,46.75z"/>
	<g>
		<path style="fill-rule:evenodd;clip-rule:evenodd;fill:#74A090;" d="M107.85,230.6c-0.8-7.467-2.083-13.55-3.85-18.25
			c-1.967-5.133-4.267-7.934-6.9-8.4c-4.567-0.833-8.934-0.25-13.1,1.75l-4.9,3.25l-0.15,0.55v0.05l-0.5,0.1l-1.5,0.55L76,210.7
			c-1.2,0.733-2.317,1.667-3.35,2.8l-1.55,1.9l-1.95,3.05c-0.267,0.4-0.633,1.066-1.1,2l-2.65,6.3l-0.8,2.55l-0.2,0.5l-1.05,4.05
			c-0.4,1.5-0.75,3.083-1.05,4.75v0.1l-0.55,3.1c-1.5,9.434-1.617,18.434-0.35,27l0.45,2.55c0.566,3.1,1.3,5.867,2.2,8.3
			c1.967,5.434,4.65,9.533,8.05,12.3c1.733,2.466,4.117,3.966,7.15,4.5c2.967,0.5,6.083-0.034,9.35-1.6c7.7-3.7,13.2-11,16.5-21.9
			C108.7,261.183,109.617,247.067,107.85,230.6z M260.05,0l-10,12.7c-8.866,10.833-17.633,20.533-26.3,29.1
			c-12.134,12.034-23.017,20.75-32.65,26.15c-13.333,7.5-26.666,13.583-40,18.25l-16,4.75c-1,12.333-1.866,25.917-2.6,40.75
			c-1.5,29.667-1.634,50.75-0.4,63.25c1.2,12.2,3.334,22.583,6.4,31.15c1.533,4.367,3.05,7.65,4.55,9.85
			c-4.333-4.267-8.616-7.717-12.85-10.35c-8.434-5.233-13.467-4.783-15.1,1.35c-1,3.8-1.483,10.816-1.45,21.05
			c0.033,10.433,0.6,21.8,1.7,34.1c2.767,30.6,7.35,53.217,13.75,67.85c5.833,13.333,19.083,20,39.75,20
			c10.334,0,20.084-1.333,29.25-4l-53,97l23,1l-8.05,15.149c-6.267,12.233-11.75,23.767-16.45,34.601
			c-15,34.666-19.167,55.75-12.5,63.25c6.5,7.366,15.9,3.767,28.2-10.8c3.934-4.634,7.95-10.184,12.05-16.65
			c2.2-3.4,4.084-6.533,5.65-9.4c-0.3,0.767-3.634,8.934-10,24.5c-7.333,18.134-13.866,34.884-19.6,50.25
			c-18.167,48.5-25.601,75.2-22.3,80.101c3.333,5,12.5-2.167,27.5-21.5c4.7-6.033,9.684-12.934,14.95-20.7l6.55-9.8l-5,54l34-44
			l25.15,89.8c-0.667,1.5-1.467,2.816-2.4,3.95l-20.75-32.75l-22,18l-32-22l-34,22l-14-24l-16,4l45-108l-5.5,7.75
			c-4.467,6.2-8.75,11.833-12.85,16.899c-13.167,16.167-22.05,23.617-26.65,22.351c-4.567-1.233-3.1-12.101,4.4-32.601
			c2.333-6.433,5.133-13.433,8.4-21l4.2-9.399c-2.333,1.666-4.45,2.25-6.35,1.75c-3.833-1-4.717-6.917-2.65-17.75
			c2.066-10.733,11.417-30.134,28.05-58.2c5.267-8.833,10.95-18.033,17.05-27.6c5.133-7.9,7.75-11.95,7.85-12.15l-38.95,18.95
			c0.833-6.167,1.717-13.45,2.65-21.851c1.833-16.833,2.95-30.883,3.35-42.149c0.433-11.233,9.4-22.767,26.9-34.601
			c5.467-3.699,11.45-7.216,17.95-10.55l8.149-3.85l-40,5l-17-74c-1,0.333-2.867,0.417-5.6,0.25c-5.5-0.333-12.633-1.75-21.4-4.25
			c-20.567-5.867-33.9-22.534-40-50c-2.867-12.934-0.4-25.467,7.4-37.6c7.167-11.267,17.367-20.067,30.6-26.4
			c10.433-5,20.4-6.5,29.9-4.5c4.733,1,8.433,2.5,11.1,4.5v-101l-17-12l27.25-6c20.334-4.667,35.917-8.667,46.75-12
			c10.667-3.267,26.983-14.367,48.95-33.3C240.116,19.117,250.45,9.567,260.05,0z"/>
		<path style="fill-rule:evenodd;clip-rule:evenodd;fill:#74A090;" d="M164.5,181.9c4.866-3.767,10.733-2.417,17.6,4.05
			c7.5,7.1,15.084,18.9,22.75,35.4c3.834,8.233,6.917,15.767,9.25,22.6c-7-11.333-14.583-21.833-22.75-31.5
			c-16.333-19.333-27.416-24.833-33.25-16.5l-0.25,0.4C158.35,189.75,160.566,184.933,164.5,181.9z"/>
		<path style="fill-rule:evenodd;clip-rule:evenodd;fill:#74A090;" d="M151.35,262.7c3.334,6.333,6.25,12.75,8.75,19.25
			c-3.966-7.333-8.25-13.8-12.85-19.4c-9.167-11.2-15.267-12.433-18.3-3.7c0.433-8.533,2.483-13.167,6.149-13.9
			C139.267,244.117,144.684,250.033,151.35,262.7z"/>
		<path style="fill-rule:evenodd;clip-rule:evenodd;fill:#74A090;" d="M212.2,337.4c8.467-6.967,15.767-14.117,21.899-21.45
			l-2.05,4.8c-1.833,3.9-3.899,7.6-6.2,11.1c-7.333,11.167-15.583,18.2-24.75,21.1c-7,2.233-12.916,3.6-17.75,4.1
			c-5.466,0.534-10.083,0.034-13.85-1.5C181.033,357.35,195.267,351.3,212.2,337.4z"/>
		<path style="fill-rule:evenodd;clip-rule:evenodd;fill:#74A090;" d="M97.1,203.95c2.633,0.466,4.933,3.267,6.9,8.4
			c1.767,4.7,3.05,10.783,3.85,18.25c1.767,16.467,0.85,30.583-2.75,42.35c-3.3,10.9-8.8,18.2-16.5,21.9
			c-3.267,1.566-6.383,2.1-9.35,1.6c-3.033-0.534-5.417-2.034-7.15-4.5c5.2,4.233,10.133,2.966,14.8-3.8
			c4.233-6.133,7.3-15.033,9.2-26.7c1.933-11.8,2-22.45,0.2-31.95c-2.033-10.7-6.1-17.217-12.2-19.55
			c-1.733-0.633-3.45-0.767-5.15-0.4l0.15-0.6l4.9-3.25C88.167,203.7,92.533,203.117,97.1,203.95z"/>
		<path style="fill-rule:evenodd;clip-rule:evenodd;fill:#668D7F;" d="M97.1,203.95c2.633,0.466,4.933,3.267,6.9,8.4
			c1.767,4.7,3.05,10.783,3.85,18.25c1.767,16.467,0.85,30.583-2.75,42.35c-3.3,10.9-8.8,18.2-16.5,21.9
			c-3.267,1.566-6.383,2.1-9.35,1.6c-3.033-0.534-5.417-2.034-7.15-4.5c5.2,4.233,10.133,2.966,14.8-3.8
			c4.233-6.133,7.3-15.033,9.2-26.7c1.933-11.8,2-22.45,0.2-31.95c-2.033-10.7-6.1-17.217-12.2-19.55
			c-1.733-0.633-3.45-0.767-5.15-0.4l0.15-0.6l4.9-3.25C88.167,203.7,92.533,203.117,97.1,203.95z"/>
		<path style="fill-rule:evenodd;clip-rule:evenodd;fill:#74A090;" d="M123.1,91.95v101c-2.667-2-6.367-3.5-11.1-4.5
			c-9.5-2-19.467-0.5-29.9,4.5c-13.233,6.333-23.434,15.133-30.6,26.4c-7.8,12.133-10.267,24.667-7.4,37.6
			c6.1,27.466,19.433,44.133,40,50c8.767,2.5,15.9,3.917,21.4,4.25c2.733,0.167,4.6,0.083,5.6-0.25l17,74l40-5l-8.149,3.85
			c-6.5,3.334-12.483,6.851-17.95,10.55c-17.5,11.834-26.467,23.367-26.9,34.601c-0.4,11.267-1.517,25.316-3.35,42.149
			c-0.933,8.4-1.817,15.684-2.65,21.851L148.05,474c-0.1,0.2-2.717,4.25-7.85,12.15c-6.101,9.566-11.784,18.767-17.05,27.6
			c-16.633,28.066-25.983,47.467-28.05,58.2c-2.067,10.833-1.184,16.75,2.65,17.75c1.9,0.5,4.017-0.084,6.35-1.75l-4.2,9.399
			c-3.267,7.567-6.066,14.567-8.4,21c-7.5,20.5-8.967,31.367-4.4,32.601c4.6,1.267,13.483-6.184,26.65-22.351
			c4.1-5.066,8.383-10.699,12.85-16.899l5.5-7.75l-45,108l16-4l14,24l34-22l32,22l22-18l20.75,32.75
			c-4.267,5.366-10.6,6.416-19,3.149c-3.233-1.3-6.25-3.05-9.05-5.25c-2.633-2.1-4.366-4.066-5.2-5.899
			c-1.767-3.733-6.666-3.351-14.699,1.149c-4.034,2.233-7.884,4.851-11.551,7.851l-12.5-4.25l-34.5,12.5
			c-9.5-3.667-20.083-8.334-31.75-14c-4.033-1.967-8.1-2.95-12.2-2.95c-3.1,0-7.233,0.634-12.4,1.9
			c-8.667,2.1-13.867,3.316-15.6,3.649c-7.133,1.4-14.4,2.2-21.8,2.4c-15.133,0.434-23.483-3.334-25.05-11.3
			c-1.1-5.434,1.167-13.551,6.8-24.351c12.333-16.666,22.6-31.633,30.8-44.899c10.4-16.867,17.05-30.351,19.95-40.45
			c5-17.5,0.167-30.417-14.5-38.75c-4.567-2.601-9.85-4.584-15.85-5.95l-7.65-1.3c11-6.334,22.417-13.75,34.25-22.25
			c23.667-17,37.583-30.917,41.75-41.75c4.167-10.834,4.417-32.417,0.75-64.75c-1.133-10.101-2.6-20.667-4.4-31.7l-2.35-13.55l26-12
			l-4-68c-4.067-0.567-9.083-1.667-15.05-3.3c-11.933-3.267-22.583-7.5-31.95-12.7c-30-16.667-41.667-40-35-70
			c6.667-30,22-49.333,46-58c7.5-2.7,15.417-4.184,23.75-4.45c4.167-0.1,7.583,0.05,10.25,0.45l-4-98L123.1,91.95z"/>
		<path style="fill-rule:evenodd;clip-rule:evenodd;fill:#668D7F;" d="M123.1,91.95v101c-2.667-2-6.367-3.5-11.1-4.5
			c-9.5-2-19.467-0.5-29.9,4.5c-13.233,6.333-23.434,15.133-30.6,26.4c-7.8,12.133-10.267,24.667-7.4,37.6
			c6.1,27.466,19.433,44.133,40,50c8.767,2.5,15.9,3.917,21.4,4.25c2.733,0.167,4.6,0.083,5.6-0.25l17,74l40-5l-8.149,3.85
			c-6.5,3.334-12.483,6.851-17.95,10.55c-17.5,11.834-26.467,23.367-26.9,34.601c-0.4,11.267-1.517,25.316-3.35,42.149
			c-0.933,8.4-1.817,15.684-2.65,21.851L148.05,474c-0.1,0.2-2.717,4.25-7.85,12.15c-6.101,9.566-11.784,18.767-17.05,27.6
			c-16.633,28.066-25.983,47.467-28.05,58.2c-2.067,10.833-1.184,16.75,2.65,17.75c1.9,0.5,4.017-0.084,6.35-1.75l-4.2,9.399
			c-3.267,7.567-6.066,14.567-8.4,21c-7.5,20.5-8.967,31.367-4.4,32.601c4.6,1.267,13.483-6.184,26.65-22.351
			c4.1-5.066,8.383-10.699,12.85-16.899l5.5-7.75l-45,108l16-4l14,24l34-22l32,22l22-18l20.75,32.75
			c-4.267,5.366-10.6,6.416-19,3.149c-3.233-1.3-6.25-3.05-9.05-5.25c-2.633-2.1-4.366-4.066-5.2-5.899
			c-1.767-3.733-6.666-3.351-14.699,1.149c-4.034,2.233-7.884,4.851-11.551,7.851l-12.5-4.25l-34.5,12.5
			c-9.5-3.667-20.083-8.334-31.75-14c-4.033-1.967-8.1-2.95-12.2-2.95c-3.1,0-7.233,0.634-12.4,1.9
			c-8.667,2.1-13.867,3.316-15.6,3.649c-7.133,1.4-14.4,2.2-21.8,2.4c-15.167,0.434-23.6-3.467-25.3-11.7
			c-1.233-6.033,1.117-14.017,7.05-23.95c10.5-15.633,19.316-29,26.45-40.1c13.6-21.101,21.7-36.184,24.3-45.25
			c5-17.5,0.167-30.417-14.5-38.75c-4.567-2.601-9.85-4.584-15.85-5.95l-7.65-1.3c11-6.334,22.417-13.75,34.25-22.25
			c23.667-17,37.583-30.917,41.75-41.75c4.167-10.834,4.417-32.417,0.75-64.75c-1.133-10.101-2.6-20.667-4.4-31.7l-2.35-13.55l26-12
			l-4-68c-4.067-0.567-9.083-1.667-15.05-3.3c-11.933-3.267-22.583-7.5-31.95-12.7c-30-16.667-41.667-40-35-70
			c6.667-30,22-49.333,46-58c7.5-2.7,15.417-4.184,23.75-4.45c4.167-0.1,7.583,0.05,10.25,0.45l-4-98L123.1,91.95z"/>
	</g>
	<path style="fill-rule:evenodd;clip-rule:evenodd;fill:#74A090;" d="M182.1,471.95l-3.55,15.3
		c-2.967,12.134-5.983,23.083-9.05,32.85c-9.833,31.167-18.3,44.45-25.4,39.851c-7.066-4.566-2.85-20.601,12.65-48.101
		c4.833-8.6,10.5-17.833,17-27.699L182.1,471.95z"/>
	<path style="fill-rule:evenodd;clip-rule:evenodd;fill:#74A090;" d="M155.85,149.35c-3.333,31.167-7.916,47.367-13.75,48.6
		c-5.833,1.267-6.416-15.35-1.75-49.85c2.334-17.267,5.25-34.65,8.75-52.15l30-11l-20,18
		C158.6,118.283,157.517,133.75,155.85,149.35z"/>
	<path style="fill-rule:evenodd;clip-rule:evenodd;fill:#74A090;" d="M207.1,362.95l0.5,9.4c0,7.5-0.833,14.367-2.5,20.6
		c-1.666,6.267-8.333,18.316-20,36.149c-5.833,8.9-11.5,17.184-17,24.851L207.1,362.95z"/>
	<path style="fill-rule:evenodd;clip-rule:evenodd;fill:#74A090;" d="M174.1,575.95L171.7,588.35c-2.033,10-4.15,19.25-6.351,27.75
		c-7,27.167-13.416,41.784-19.25,43.851c-5.833,2.1-2.916-11.267,8.75-40.101c3.634-9.033,7.934-19.05,12.9-30.05L174.1,575.95z"/>
	<path style="fill-rule:evenodd;clip-rule:evenodd;fill:#74A090;" d="M191.25,615.6c-1.167,20.834-4.884,35.617-11.15,44.351
		c-0.767,1.1,0.834-10.733,4.801-35.5l6.199-37.5l0.4,8.45C191.667,602.333,191.583,609.066,191.25,615.6z"/>
	<polygon style="fill-rule:evenodd;clip-rule:evenodd;fill:#A1C6BA;" points="193.1,459.95 223.1,475.95 184.1,547.95 211.1,477.95 
			"/>
	<path style="fill-rule:evenodd;clip-rule:evenodd;fill:#A1C6BA;" d="M191.1,574.95l4.301,7.149
		c3.433,5.9,6.666,11.767,9.699,17.601c9.667,18.666,15.334,33.416,17,44.25c1.667,10.833,2,23.083,1,36.75
		c-0.5,6.833-1.166,12.583-2,17.25c-0.333-6.334-1-13.834-2-22.5c-2-17.334-4.666-31.834-8-43.5c-3.333-11.667-7.666-24.667-13-39
		L191.1,574.95z"/>
	<path style="fill-rule:evenodd;clip-rule:evenodd;fill:#A1C6BA;" d="M165.1,158.95c5.834-0.4,12.25,4.816,19.25,15.65
		c3.5,5.4,6.417,10.85,8.75,16.35c-6-6.667-11-12.333-15-17c-0.899-1.067-4.966-4.35-12.199-9.85c-2.067-1.567-3.233-2.733-3.5-3.5
		C162.066,159.667,162.967,159.117,165.1,158.95z"/>
</g>
</svg>
