<?xml version="1.0" encoding="iso-8859-1"?>
<!-- Generator: Adobe Illustrator 15.1.0, SVG Export Plug-In . SVG Version: 6.00 Build 0)  -->
<!DOCTYPE svg PUBLIC "-//W3C//DTD SVG 1.1//EN" "http://www.w3.org/Graphics/SVG/1.1/DTD/svg11.dtd">
<svg version="1.1" id="Isolation_Mode" xmlns="http://www.w3.org/2000/svg" xmlns:xlink="http://www.w3.org/1999/xlink" x="0px"
	 y="0px" width="334.65px" height="54.55px" viewBox="0 0 334.65 54.55" style="enable-background:new 0 0 334.65 54.55;"
	 xml:space="preserve">
<symbol  id="FlashAICB_x2F_Isolation_Mode_x2F__x3C_Path_x3E__x5F_17" viewBox="0 -37.25 333.75 37.25">
	<g id="Layer_1_2_">
		<polygon style="fill-rule:evenodd;clip-rule:evenodd;" points="331.6,-12.25 333.75,-15.6 243.25,-13.85 216.35,-26.35 211,-26.6 
			212,-34.75 175,-37.25 128.75,-34.75 129.6,-29.75 123,-30.35 109.75,-22.25 0,-18 13.6,-12.85 22.1,-2.6 87.5,0 242.1,-4.75 		
			"/>
	</g>
</symbol>
<g>
	
		<use xlink:href="#FlashAICB_x2F_Isolation_Mode_x2F__x3C_Path_x3E__x5F_17"  width="333.75" height="37.25" y="-37.25" transform="matrix(1 0 0 -1 0 17.2998)" style="overflow:visible;opacity:0.4102;"/>
	<polygon style="fill-rule:evenodd;clip-rule:evenodd;fill:#E66879;" points="334.65,16 330,23.35 332.65,31.35 242.65,30 
		216.65,42.65 123.3,46 110,38 5.3,34.65 12,27.35 6,15.35 210.65,12.65 	"/>
	<path style="fill-rule:evenodd;clip-rule:evenodd;fill:#EC9699;" d="M236,18.65l-22.7,8.7l-88-1.35c-7.533-4-11.966-6-13.3-6
		S75.333,18.45,6,15.35l77.3-12.7l45.35,2l66,2l98-6.65l42,16L236,18.65z"/>
	<path style="fill-rule:evenodd;clip-rule:evenodd;fill:#E66879;" d="M196.1,7.3c10.934,0.067,18.65-0.066,23.15-0.4l27-1.75
		c-3.8,0.6-8.75,1.2-14.85,1.8c-12.267,1.267-24.233,2-35.9,2.2c-11.667,0.2-33.5-0.2-65.5-1.2c-16-0.5-30.833-1.017-44.5-1.55
		l-69,8.5l67.75-11l32.7,1.4c23.566,0.967,39.667,1.5,48.3,1.6C172.184,7,182.467,7.133,196.1,7.3z"/>
	<polygon style="fill-rule:evenodd;clip-rule:evenodd;fill:#EA868D;" points="242.65,30 216.65,42.65 213.3,27.35 237,18.35 	"/>
	<polygon style="fill-rule:evenodd;clip-rule:evenodd;fill:#EA868D;" points="330,23.35 331.3,27.35 291.3,26.35 	"/>
	<polygon style="fill-rule:evenodd;clip-rule:evenodd;fill:#D04062;" points="334.65,16 331.65,20.35 320,18.65 278.65,19.65 
		254,21.65 237,18.35 	"/>
	<polygon style="fill-rule:evenodd;clip-rule:evenodd;fill:#D04062;" points="113.3,20.65 98.65,21.65 47,20.35 19,21.35 
		10.25,23.9 6,15.35 	"/>
	<polygon style="fill-rule:evenodd;clip-rule:evenodd;fill:#EA868D;" points="12,27.35 33.65,29.65 51.3,29.35 31.3,31.65 9,30.65 	
		"/>
	<polygon style="fill-rule:evenodd;clip-rule:evenodd;fill:#EC9699;" points="204.65,35.35 212,42.65 130.65,41.35 137.3,36 	"/>
	<path style="fill-rule:evenodd;clip-rule:evenodd;fill:#E66879;" d="M212,42.65v8c-20,1.8-34,2.466-42,2l-39.35-2V41.35L212,42.65z
		"/>
	<polygon style="fill-rule:evenodd;clip-rule:evenodd;fill:#D4586C;" points="125.3,26 123.3,46 110,38 113.3,20.65 	"/>
	<polygon style="fill-rule:evenodd;clip-rule:evenodd;fill:#F4C6C3;" points="314.3,11.65 291,1 325.3,14 273.3,15.35 	"/>
	<polygon style="fill-rule:evenodd;clip-rule:evenodd;fill:#F4C6C3;" points="182.75,24.15 211.75,26.15 126,24.4 116.75,19.9 
		127.5,22.65 	"/>
	<polygon style="fill-rule:evenodd;clip-rule:evenodd;fill:#F4C6C3;" points="213.75,25.55 236.25,17.15 213.6,26.55 	"/>
	<polygon style="fill-rule:evenodd;clip-rule:evenodd;fill:#F4C6C3;" points="137.5,36.4 136.5,39.15 210.6,42.15 132.5,40.65 	"/>
	<path style="fill-rule:evenodd;clip-rule:evenodd;fill:#D04062;" d="M183.4,43.625c-2.992,0.05-5.992,0.075-9,0.075
		c-24.034,0-36.833,0.316-38.4,0.95c-1.567,0.633-2.617,1.649-3.15,3.05c-0.238,0.654-0.355,1.246-0.35,1.774l-0.25-6.574
		L183.4,43.625z"/>
	<path style="fill-rule:evenodd;clip-rule:evenodd;fill:#D04062;" d="M124.5,44.4l2-16.75l85.75,1c-32,1.333-51.167,2-57.5,2
		c-7.167-0.301-12.45-0.45-15.85-0.45c-6.066,0-9.617,0.733-10.65,2.2c-1.033,1.466-1.967,3.899-2.8,7.3
		C125.017,41.434,124.7,43,124.5,44.4z"/>
</g>
</svg>
