<?xml version="1.0" encoding="iso-8859-1"?>
<!-- Generator: Adobe Illustrator 15.1.0, SVG Export Plug-In . SVG Version: 6.00 Build 0)  -->
<!DOCTYPE svg PUBLIC "-//W3C//DTD SVG 1.1//EN" "http://www.w3.org/Graphics/SVG/1.1/DTD/svg11.dtd">
<svg version="1.1" id="buildings" xmlns="http://www.w3.org/2000/svg" xmlns:xlink="http://www.w3.org/1999/xlink" x="0px" y="0px"
	 width="111.8px" height="163.35px" viewBox="0 0 111.8 163.35" style="enable-background:new 0 0 111.8 163.35;"
	 xml:space="preserve">
<symbol  id="FlashAICB_x2F_buildings_x2F__x3C_Path_x3E__x5F_9" viewBox="-0.015 -8.736 21.232 8.759">
	<g id="Layer_1_2_">
		<path style="fill-rule:evenodd;clip-rule:evenodd;" d="M0-3.9c0.133,1.1,1.367,2.017,3.7,2.75C5.9-0.45,8.483-0.067,11.45,0
			c3.267,0.067,5.583-0.017,6.95-0.25c1.767-0.333,2.7-0.967,2.8-1.9C21.333-3.417,20.65-4.7,19.15-6
			c-1.767-1.533-4.066-2.417-6.9-2.65C9.083-8.917,6.217-8.567,3.65-7.6C1.05-6.6-0.167-5.367,0-3.9z"/>
	</g>
</symbol>
<g>
	<g>
		<path style="fill-rule:evenodd;clip-rule:evenodd;fill:#408771;" d="M48.5,73.85c-10.767,3.333-18.217,8.966-22.35,16.9
			s-6.6,21.283-7.4,40.05c-0.4,9.367-0.383,17.95,0.05,25.75c-1.033,1.101-2.417,1.95-4.15,2.55c-3.5,1.233-7.017,0.684-10.55-1.649
			c-0.233-10.134,0.183-20.983,1.25-32.55c2.133-23.2,6.517-38.45,13.15-45.75c6.6-7.3,14.267-13.65,23-19.05
			c4.367-2.7,8.067-4.667,11.1-5.9l0.85,5.95c0.767,4.133,1.684,6.633,2.75,7.5c1.733,1.4,4.149,2.583,7.25,3.55
			C58.884,71.3,53.9,72.183,48.5,73.85z"/>
		<g>
			<path style="fill-rule:evenodd;clip-rule:evenodd;fill:#287660;" d="M18.5,79.15c1-1.1,2.517-2.667,4.55-4.7l0.25-0.05
				l-3.55,4.55c-2.733,4.233-5,9.316-6.8,15.25c-2.067,6.866-3.167,18.899-3.3,36.1c-0.066,8.601,0.083,16.517,0.45,23.75
				c-2.033-0.066-4.05,0.25-6.05,0.95C3.983,142.066,4.633,129.934,6,118.6C8.367,98.9,12.533,85.75,18.5,79.15z"/>
			<path style="fill-rule:evenodd;clip-rule:evenodd;fill:#287660;" d="M24.4,92.15c2.367-6.801,5.9-12.101,10.6-15.9
				s9.283-6.6,13.75-8.4c2.233-0.867,4-1.367,5.3-1.5l2.25,1.4c1.733,1.333,4.117,2.483,7.15,3.45c-4.566,0.1-9.55,0.983-14.95,2.65
				c-10.767,3.333-18.217,8.966-22.35,16.9c-1.4,2.634-2.65,6.1-3.75,10.4h-0.15C22.483,98.517,23.2,95.517,24.4,92.15z"/>
		</g>
		
			<use xlink:href="#FlashAICB_x2F_buildings_x2F__x3C_Path_x3E__x5F_9"  width="21.232" height="8.759" x="-0.015" y="-8.736" transform="matrix(1 0 0 -1 0 154.5996)" style="overflow:visible;opacity:0.4102;"/>
		<path style="fill-rule:evenodd;clip-rule:evenodd;fill:#2C584A;" d="M18.65,151.35l1,1.9c0.7,1.4,1.083,2.517,1.15,3.35
			c0.067,1-0.9,2.167-2.9,3.5c-2,1.301-3.933,2.051-5.8,2.25c-1.7,0.2-3.633,0-5.8-0.6c-1.867-0.533-3.167-1.1-3.9-1.7
			c-0.533-0.467-0.816-1.149-0.85-2.05c0-0.634,0.167-1.533,0.5-2.7c0.267-0.833,0.684-1.7,1.25-2.6l0.75-1.101l1.6,1.15
			c1.4,0.8,2.883,1.233,4.45,1.3c1.566,0.033,3.467-0.399,5.7-1.3C16.9,152.283,17.85,151.816,18.65,151.35z"/>
		<path style="fill-rule:evenodd;clip-rule:evenodd;fill:#6B9E8C;" d="M52.6,54.2c2.3-1.467,4.8-1.6,7.5-0.4
			c2.4,1.067,4.417,2.883,6.051,5.45c1.633,2.533,2.283,4.917,1.949,7.15c-0.333,2.5-1.883,4.1-4.649,4.8
			c-5.434,1.367-9.367-0.684-11.8-6.15c-0.933-2.133-1.316-4.267-1.15-6.4C50.633,56.483,51.333,55,52.6,54.2z"/>
		
			<linearGradient id="SVGID_1_" gradientUnits="userSpaceOnUse" x1="56.1533" y1="60.2891" x2="68.1092" y2="60.2891" gradientTransform="matrix(0.9995 0.0314 -0.0314 0.9995 -1.718253e-004 -6.886199e-005)">
			<stop  offset="0" style="stop-color:#973C4D"/>
			<stop  offset="1" style="stop-color:#352021"/>
		</linearGradient>
		<path style="fill-rule:evenodd;clip-rule:evenodd;fill:url(#SVGID_1_);" d="M56.15,55.4c1.399-0.367,2.966,0.017,4.699,1.15
			c1.601,1.067,2.917,2.483,3.95,4.25c1.101,1.833,1.517,3.467,1.25,4.9c-0.3,1.633-1.483,2.683-3.55,3.15
			c-3.967,0.9-6.55-0.967-7.75-5.6c-0.467-1.767-0.567-3.45-0.3-5.05C54.75,56.567,55.316,55.633,56.15,55.4z"/>
		<path style="fill-rule:evenodd;clip-rule:evenodd;fill:#316454;" d="M10.65,96.75l2-5.4l-0.8,2.851
			c-0.6,2.267-1.083,4.25-1.45,5.95c-0.5,2.366-0.983,5.616-1.45,9.75c-0.567,4.866-0.917,9.6-1.05,14.199
			c-0.2,6.634-0.167,16.217,0.1,28.75c-1.167-0.033-2.183-0.533-3.05-1.5c0.733-18.3,1.6-31.6,2.6-39.899
			C8.183,106.25,9.217,101.35,10.65,96.75z"/>
		<path style="fill-rule:evenodd;clip-rule:evenodd;fill:#316454;" d="M37.55,77.75c-1.7,1.033-3.216,1.983-4.55,2.85
			c1.633-1.967,3.983-4.033,7.05-6.2c1.934-1.333,4.567-2.683,7.9-4.05c1.667-0.7,3.133-1.267,4.4-1.7
			c0.267,0.8,0.917,1.517,1.95,2.15c0.534,0.3,1.033,0.534,1.5,0.7c-1.033,0.067-2.233,0.2-3.6,0.4c-2.767,0.4-5.05,0.967-6.85,1.7
			C43.55,74.3,40.95,75.683,37.55,77.75z"/>
		<path style="fill-rule:evenodd;clip-rule:evenodd;fill:#6B9E8C;" d="M24.9,74.8c2.867-3.066,5.75-5.767,8.65-8.1
			c2.9-2.333,7.917-5.6,15.05-9.8c-0.567,0.533-0.9,1.533-1,3c-0.067,0.767-0.067,1.467,0,2.1c-0.367-0.1-0.917-0.083-1.65,0.05
			c-1.467,0.3-3.15,1.017-5.05,2.15C37.833,66,32.5,69.533,24.9,74.8z"/>
		<path style="fill-rule:evenodd;clip-rule:evenodd;fill:#6B9E8C;" d="M19.75,92.7l-1.3,5.75c-0.967,4.934-1.633,10.1-2,15.5
			c-0.367,5.434-0.367,13.233,0,23.399c0.167,5.101,0.383,9.65,0.65,13.65l-1.8,0.55c-0.466,0.134-0.917,0.217-1.35,0.25l-0.5-0.05
			c-0.067-14.667,0.017-25.667,0.25-33c0.133-4.566,1.183-10.283,3.15-17.15L19.75,92.7z"/>
		<path style="fill-rule:evenodd;clip-rule:evenodd;fill:#244037;" d="M16.35,154.35c0.6,0.067,1.217-0.267,1.85-1l0.85,1
			c0.567,0.767,0.85,1.434,0.85,2c0.033,0.9-0.933,1.784-2.9,2.65c0.1-0.2,0.233-0.816,0.4-1.85c0.1-0.634-0.05-1.301-0.45-2
			L16.35,154.35z"/>
		<g>
			<path style="fill-rule:evenodd;clip-rule:evenodd;fill:#2A5346;" d="M17.55,160.25l-0.2,0.2c-1.9,1.133-3.65,1.767-5.25,1.899
				c-1.7,0.2-3.633,0-5.8-0.6c-1.867-0.533-3.167-1.1-3.9-1.7c-0.533-0.467-0.816-1.149-0.85-2.05c0-0.634,0.167-1.533,0.5-2.7
				c0.267-0.833,0.684-1.7,1.25-2.6l0.75-1.101l1.6,1.15c1.4,0.8,2.883,1.233,4.45,1.3l-0.4,1.4c-0.233,1.1-0.317,2.1-0.25,3
				c0.133,1.033,0.6,1.8,1.4,2.3c0.7,0.434,1.55,0.616,2.55,0.55C14.6,161.233,15.983,160.884,17.55,160.25z"/>
		</g>
		<path style="fill-rule:evenodd;clip-rule:evenodd;fill:#4D796A;" d="M5.3,153.75c0.267,0.434,0.867,0.85,1.8,1.25l-0.7,2
			c-0.1,0.366-0.217,0.934-0.35,1.7c-0.1,0.6-0.267,0.866-0.5,0.8c-0.267-0.066-0.55-0.333-0.85-0.8
			c-0.3-0.533-0.434-1.017-0.4-1.45c0.034-0.4,0.217-1.1,0.55-2.1L5.3,153.75z"/>
	</g>
	<path style="fill-rule:evenodd;clip-rule:evenodd;fill:#B2B86C;" d="M19.3,37c5.333,2.433,9.767,5.217,13.3,8.35
		c4.533,3.967,6.85,7.933,6.95,11.9c0.1,3.633-0.95,6.733-3.15,9.3c-1.1,1.267-2.217,2.167-3.35,2.7c0.3-1.5,0.517-3.267,0.65-5.3
		c0.233-4.034-0.067-7.35-0.9-9.95c-0.833-2.6-3.333-6.217-7.5-10.85L19.3,37z"/>
	<path style="fill-rule:evenodd;clip-rule:evenodd;fill:#ABB25E;" d="M25.3,76.5c2-2,6.1-3.9,12.3-5.7c7.167-2.1,13.4-2.7,18.7-1.8
		c4.9,0.833,8.617,5.75,11.15,14.75c1.267,4.5,2.05,8.917,2.35,13.25c-1.733-2.533-3.934-5.25-6.6-8.15
		c-5.334-5.8-10.3-9.583-14.9-11.35c-4.566-1.767-9.767-2.467-15.6-2.1L25.3,76.5z"/>
	<path style="fill-rule:evenodd;clip-rule:evenodd;fill:#E3E5AE;" d="M90.25,69.65c3.533,2,6.884,3.617,10.05,4.85
		c-1.899-0.4-4.233-0.633-7-0.7c-5.5-0.066-10.333,0.833-14.5,2.7c-4.166,1.867-6.916,5.85-8.25,11.95
		c-0.666,3.033-0.916,5.883-0.75,8.55c-0.5-2.333-1.366-4.95-2.6-7.85c-2.5-5.834-5.634-10.217-9.4-13.15
		c-3.733-2.9-10.267-3.683-19.6-2.35c-4.667,0.667-8.967,1.617-12.9,2.85c1.5-1.067,3.083-2.583,4.75-4.55
		c3.333-3.934,5.417-8.083,6.25-12.45c0.833-4.367-1.75-9.433-7.75-15.2c-1.867-1.767-3.966-3.517-6.3-5.25L19.3,37l2.9,1.25
		c2.333,0.9,4.583,1.533,6.75,1.9C35.783,41.317,40.233,39.6,42.3,35l3.55,2.95c3.1,2.233,6.417,4.083,9.95,5.55
		s7.101,0.733,10.7-2.2c1.8-1.433,3.233-3.033,4.3-4.8l1.3,7.4c1.267,5.667,2.834,10.367,4.7,14.1
		C78.667,61.767,83.15,65.65,90.25,69.65z"/>
	
		<linearGradient id="SVGID_2_" gradientUnits="userSpaceOnUse" x1="-8.8789" y1="-64.7305" x2="-1.2171" y2="-64.7305" gradientTransform="matrix(-0.8321 0.5547 -0.5547 -0.8321 -3.497005e-004 3.693104e-004)">
		<stop  offset="0" style="stop-color:#973C4D"/>
		<stop  offset="1" style="stop-color:#352021"/>
	</linearGradient>
	<path style="fill-rule:evenodd;clip-rule:evenodd;fill:url(#SVGID_2_);" d="M36.55,44.4c0.8-0.367,1.934,0,3.4,1.1
		c1.433,1.067,2.716,2.433,3.85,4.1c2.967,4.267,3,6.867,0.1,7.8c-3,0.967-5.55-0.7-7.65-5c-0.867-1.733-1.3-3.35-1.3-4.85
		C34.95,45.917,35.483,44.867,36.55,44.4z"/>
	
		<linearGradient id="SVGID_3_" gradientUnits="userSpaceOnUse" x1="-30.8237" y1="-78.2515" x2="-23.3634" y2="-78.2515" gradientTransform="matrix(-0.8545 0.5194 -0.5194 -0.8545 9.104013e-004 -4.671216e-004)">
		<stop  offset="0" style="stop-color:#973C4D"/>
		<stop  offset="1" style="stop-color:#352021"/>
	</linearGradient>
	<path style="fill-rule:evenodd;clip-rule:evenodd;fill:url(#SVGID_3_);" d="M67.45,50.9c1.033,1.367,1.583,2.684,1.649,3.95
		c0.067,1.367-0.5,2.333-1.699,2.9c-2.434,1.133-4.684,0.017-6.75-3.35c-0.834-1.333-1.301-2.633-1.4-3.9
		c-0.134-1.333,0.217-2.25,1.05-2.75C62.566,46.45,64.95,47.5,67.45,50.9z"/>
	
		<linearGradient id="SVGID_4_" gradientUnits="userSpaceOnUse" x1="-16.5791" y1="-97.9619" x2="-8.664" y2="-97.9619" gradientTransform="matrix(-0.8023 0.597 -0.597 -0.8023 -4.032254e-004 -1.030564e-004)">
		<stop  offset="0" style="stop-color:#973C4D"/>
		<stop  offset="1" style="stop-color:#352021"/>
	</linearGradient>
	<path style="fill-rule:evenodd;clip-rule:evenodd;fill:url(#SVGID_4_);" d="M65.55,65.5c0.9-0.333,2.017-0.067,3.351,0.8
		c1.233,0.833,2.3,1.934,3.199,3.3c2.334,3.533,2.15,5.883-0.55,7.05c-2.767,1.2-5.066-0.133-6.899-4
		c-0.733-1.533-1.051-2.967-0.95-4.3C63.833,66.883,64.45,65.933,65.55,65.5z"/>
	<path style="fill-rule:evenodd;clip-rule:evenodd;fill:#E09D78;" d="M54.3,39.5c-1.966,5.933-4.25,10.617-6.85,14.05
		c-1.3,1.7-2.4,2.817-3.3,3.35c-1.566,0.233-3.066-0.15-4.5-1.15c-1.467-1-2.617-2.65-3.45-4.95c-0.9-2.566-0.75-4.533,0.45-5.9
		c1.367-0.133,2.934-0.767,4.7-1.9c3.533-2.267,6.267-5.933,8.2-11c2.133-5.633,2.983-12.65,2.55-21.05C51.9,6.75,51.467,3.1,50.8,0
		c1.367,4.2,2.55,9,3.55,14.4C56.283,25.2,56.267,33.567,54.3,39.5z"/>
	<path style="fill-rule:evenodd;clip-rule:evenodd;fill:#408771;" d="M105.9,47.6C101.1,55.3,96.566,60.767,92.3,64
		s-9.133,6.267-14.6,9.1c-2.733,1.433-5.033,2.533-6.9,3.3c-0.434,0-0.95-0.083-1.55-0.25c-1.134-0.3-2-0.8-2.6-1.5
		c-1-1.2-1.684-2.6-2.051-4.2c-0.5-2.1,0.017-3.617,1.551-4.55l12.25-2.85C87.3,60.45,93.684,57.433,97.55,54
		c3.867-3.433,7.4-7.3,10.601-11.6c1.6-2.133,2.816-3.933,3.649-5.4C110.267,40.2,108.3,43.733,105.9,47.6z"/>
	<path style="fill-rule:evenodd;clip-rule:evenodd;fill:#D66779;" d="M81.55,31.8c-2.566,8.7-4.899,14.35-7,16.95
		c-3.333,4.167-5.967,7-7.899,8.5c-0.267,0.1-0.617,0.117-1.051,0.05c-0.866-0.066-1.683-0.417-2.449-1.05
		c-1.167-0.967-2.034-2.183-2.601-3.65c-0.633-1.7-0.55-3.184,0.25-4.45l3.65-0.9c2.899-1.267,5.6-3.517,8.1-6.75s5.3-7.7,8.4-13.4
		c1.533-2.867,2.816-5.4,3.85-7.6C83.934,23.333,82.85,27.433,81.55,31.8z"/>
	<g>
		<path style="fill-rule:evenodd;clip-rule:evenodd;fill:#D87F57;" d="M41.35,43c3.533-2.267,6.267-5.933,8.2-11
			c2.133-5.633,2.983-12.65,2.55-21.05C51.9,6.75,51.467,3.1,50.8,0c0.934,3.367,1.684,7.35,2.25,11.95
			c1.167,9.233,0.867,16.966-0.9,23.2c-2.2,7.833-6.65,14.467-13.35,19.9c-1.3-1.333-2.233-2.983-2.8-4.95
			c-0.633-2.233-0.417-3.967,0.65-5.2C38.017,44.767,39.583,44.133,41.35,43z"/>
	</g>
	<g>
		<path style="fill-rule:evenodd;clip-rule:evenodd;fill:#287660;" d="M111.8,37c-1.533,2.967-3.566,6.217-6.1,9.75
			c-5,7.067-9.934,12.033-14.8,14.9c-6.367,3.8-14.817,7.55-25.351,11.25c-0.7-1.333-1.066-2.566-1.1-3.7
			c-0.033-1.467,0.533-2.567,1.7-3.3l12.25-2.85C87.3,60.45,93.684,57.433,97.55,54c3.867-3.433,7.4-7.3,10.601-11.6
			C109.75,40.267,110.967,38.467,111.8,37z"/>
	</g>
	<g>
		<path style="fill-rule:evenodd;clip-rule:evenodd;fill:#D04062;" d="M84.8,19.5c-0.8,2.6-1.8,5.5-3,8.7
			C79.4,34.633,77.267,39.45,75.4,42.65c-2.101,3.6-6.65,7.633-13.65,12.1c-0.767-1.067-1.267-2.15-1.5-3.25
			c-0.233-1.267-0.05-2.383,0.55-3.35l3.65-0.9c2.899-1.267,5.6-3.517,8.1-6.75s5.3-7.7,8.4-13.4
			C82.483,24.233,83.767,21.7,84.8,19.5z"/>
	</g>
	<path style="fill-rule:evenodd;clip-rule:evenodd;fill:#CB7550;" d="M53.05,18.15c0,2.233-0.167,4.783-0.5,7.65
		c-0.633,5.767-1.767,10.3-3.4,13.6c-1.6,3.267-3.717,6.2-6.35,8.8c-1.333,1.333-2.5,2.316-3.5,2.95c-1.267-1.5-1.9-2.717-1.9-3.65
		c0-0.567,0.083-1.05,0.25-1.45l0.25-0.4c1.267-0.7,2.633-1.517,4.1-2.45c2.867-1.867,4.717-3.434,5.55-4.7
		c1.967-2.9,3.467-7.167,4.5-12.8C52.583,22.9,52.917,20.383,53.05,18.15z"/>
	<path style="fill-rule:evenodd;clip-rule:evenodd;fill:#AC4357;" d="M72.9,44c-1.801,2.4-5.301,5.317-10.5,8.75
		c-0.4-0.133-0.75-0.367-1.051-0.7c-0.566-0.733-0.5-1.667,0.2-2.8l4-1.9c2.9-1.5,4.9-2.9,6-4.2c1.733-2.1,4.684-6.483,8.851-13.15
		C77.566,36.5,75.066,41.167,72.9,44z"/>
	<path style="fill-rule:evenodd;clip-rule:evenodd;fill:#316454;" d="M81.4,63.4c3.333-1.233,7.233-3.183,11.699-5.85
		c2.233-1.333,4.134-2.55,5.7-3.65c-4.5,3.9-8.3,6.767-11.399,8.6c-3.067,1.833-10.067,4.717-21,8.65
		c-0.4-0.333-0.601-0.967-0.601-1.9c0-0.567,0.217-1.133,0.65-1.7c0.2-0.267,0.399-0.483,0.6-0.65l4.2-0.6
		C74.684,65.633,78.066,64.667,81.4,63.4z"/>
	<path style="fill-rule:evenodd;clip-rule:evenodd;fill:#ECC5A6;" d="M54.525,19.8c0.144,1.049,0.402,2.666,0.775,4.85
		c0.4,5.133-0.133,10.167-1.6,15.1c-0.633,2.167-1.85,4.75-3.65,7.75c-0.9,1.5-1.733,2.783-2.5,3.85c0.9-1.333,1.4-2.367,1.5-3.1
		c0.067-0.433-0.4-0.283-1.4,0.45c-0.5,0.367-1,0.783-1.5,1.25c2.5-3.7,4.633-7.617,6.4-11.75c1.5-3.534,2.267-7.9,2.3-13.1
		L54.525,19.8z"/>
	<path style="fill-rule:evenodd;clip-rule:evenodd;fill:#EC9699;" d="M80.975,32.075c-2.368,7.386-4.226,12.277-5.574,14.675
		c-0.934,1.667-2.217,3.267-3.851,4.8l-2.149,1.8l2.05-2.85c0.399-0.433-0.45-0.183-2.55,0.75c2.866-2.867,5.166-5.417,6.899-7.65
		C77.287,41.646,79.013,37.804,80.975,32.075z"/>
	<path style="fill-rule:evenodd;clip-rule:evenodd;fill:#6B9E8C;" d="M92.3,63.5c-3.166,2.333-8.75,5.583-16.75,9.75
		c4.167-2.667,5.584-3.967,4.25-3.9c-0.967,0.033-2.149,0.233-3.55,0.6c-0.475,0.113-0.874,0.213-1.2,0.3
		c8.479-3.705,14.146-6.472,17-8.3c2.934-1.9,6.267-5.05,10-9.45c-0.833,1.267-1.866,2.667-3.1,4.2
		C96.483,59.767,94.267,62.033,92.3,63.5z"/>
</g>
</svg>
