<?xml version="1.0" encoding="iso-8859-1"?>
<!-- Generator: Adobe Illustrator 15.1.0, SVG Export Plug-In . SVG Version: 6.00 Build 0)  -->
<!DOCTYPE svg PUBLIC "-//W3C//DTD SVG 1.1//EN" "http://www.w3.org/Graphics/SVG/1.1/DTD/svg11.dtd">
<svg version="1.1" id="buildings-mid" xmlns="http://www.w3.org/2000/svg" xmlns:xlink="http://www.w3.org/1999/xlink" x="0px"
	 y="0px" width="61.2px" height="90.85px" viewBox="0 0 61.2 90.85" style="enable-background:new 0 0 61.2 90.85;"
	 xml:space="preserve">
<symbol  id="FlashAICB_x2F_buildings-mid_x2F__x3C_Path_x3E__x5F_6" viewBox="-0.013 -8.382 29.724 8.366">
	<g id="Layer_1_2_">
		<path style="fill-rule:evenodd;clip-rule:evenodd;fill:#373535;" d="M0.05-2.85c0.3,1.133,2.3,1.95,6,2.45
			c3.2,0.433,6.483,0.5,9.85,0.2c9.467-0.833,14.067-2.05,13.8-3.65c-0.133-1.066-1.717-2.05-4.75-2.95
			c-2.934-0.867-6.233-1.383-9.9-1.55c-3.7-0.167-7.2,0.317-10.5,1.45C1.15-5.7-0.35-4.35,0.05-2.85z"/>
	</g>
</symbol>
<g>
	
		<use xlink:href="#FlashAICB_x2F_buildings-mid_x2F__x3C_Path_x3E__x5F_6"  width="29.724" height="8.366" x="-0.013" y="-8.382" transform="matrix(1 0 0 -1 0 82.4502)" style="overflow:visible;opacity:0.3984;enable-background:new    ;"/>
	<polygon style="fill-rule:evenodd;clip-rule:evenodd;fill:#6C837E;" points="44.4,18.1 37.2,16.6 47.9,6.3 54.9,2.6 50.05,8.3 
		55.7,8.6 51.9,12.45 56.2,12.1 	"/>
	<path style="fill-rule:evenodd;clip-rule:evenodd;fill:#919E9C;" d="M45.85,18.75c-10.666,4.567-17.116,9.2-19.35,13.9
		c-2.2,4.733-2.75,15.15-1.65,31.25c0.566,8.066,1.35,15.649,2.35,22.75c-2,0.233-4.367,0.216-7.1-0.051
		c-5.434-0.566-9.967-2.1-13.6-4.6c0-7.9,0.583-16.316,1.75-25.25C10.583,38.85,14.667,27.267,20.5,22S33.65,11.483,42.45,6.25
		C46.816,3.65,50.616,1.567,53.85,0l-8,9.35L53.2,8L41.85,15.35l19.351-2C56.3,14.683,51.184,16.483,45.85,18.75z"/>
	<g>
		<path style="fill-rule:evenodd;clip-rule:evenodd;fill:#81918E;" d="M42.45,6.25C46.816,3.65,50.616,1.567,53.85,0l-8,9.35l5.45-1
			c-5.767,2.533-11.133,5.333-16.1,8.4c-8.434,5.167-13.45,9.867-15.05,14.1c-1.767,4.7-3.033,13.9-3.8,27.6
			c-0.367,6.866-0.567,13.25-0.6,19.149l-9.2,3.15c0.133-9.566,0.9-18.884,2.3-27.95c2.4-15.667,6.283-25.933,11.65-30.8
			C26.333,16.733,33.65,11.483,42.45,6.25z"/>
	</g>
	<path style="fill-rule:evenodd;clip-rule:evenodd;fill:#6C837E;" d="M6.75,74.85c2.833,1.334,5.833,2.25,9,2.75
		c1.967,0.301,4.267,0.184,6.9-0.35c1.333-0.267,2.45-0.566,3.35-0.9l0.9,0.851c0.7,0.8,1.2,1.767,1.5,2.899
		c0.533,2.034,0.7,4.15,0.5,6.351c-0.967,0.533-2.25,1.066-3.85,1.6c-3.167,1.033-6.3,1.55-9.4,1.55c-3.633,0-6.816-0.666-9.55-2
		l-2.95-2c0.3-2.433,0.633-4.35,1-5.75c0.2-0.833,0.7-1.916,1.5-3.25L6.75,74.85z"/>
	<path style="fill-rule:evenodd;clip-rule:evenodd;fill:#6C837E;" d="M15.9,30.45c2.133-4.633,6.783-9.25,13.95-13.85
		c3.567-2.3,6.917-4.133,10.05-5.5c-2.967,1.6-6.15,3.7-9.551,6.3c-6.833,5.2-11.316,10.333-13.45,15.4c-1.833,4.3-3,12.7-3.5,25.2
		c-0.233,6.233-0.3,12.05-0.2,17.45c-2-0.4-3.367-0.834-4.1-1.3L8.55,73.6c0.3-5.199,0.833-10.916,1.6-17.149
		C11.683,44.05,13.6,35.383,15.9,30.45z"/>
	<path style="fill-rule:evenodd;clip-rule:evenodd;fill:#A1B1AF;" d="M30.55,23.3c-0.867,0.934-1.8,2.117-2.8,3.55
		c-2,2.867-3.35,5.517-4.05,7.95c-0.7,2.434-0.934,8.417-0.7,17.95c0.133,4.767,0.317,9.283,0.55,13.55l-2.85,1
		c-0.2-3.8-0.333-7.967-0.4-12.5c-0.066-9.066,0.35-15.4,1.25-19c0.9-3.633,2.667-6.8,5.3-9.5
		C28.183,24.933,29.417,23.933,30.55,23.3z"/>
	<path style="fill-rule:evenodd;clip-rule:evenodd;fill:#81918E;" d="M22.15,79.75l3.75-0.9l0.6,2.2c0.3,1.566,0.3,2.634,0,3.2
		c-0.5,0.9-1.533,1.184-3.1,0.85c-0.167-0.5-0.217-1.199-0.15-2.1c0.067-0.566-0.1-1.283-0.5-2.15L22.15,79.75z"/>
	<g>
		<path style="fill-rule:evenodd;clip-rule:evenodd;fill:#637774;" d="M15.75,77.6l-1.2,2.301c-0.767,1.833-1.066,3.449-0.9,4.85
			c0.133,1.4,1.317,2.55,3.55,3.45c1.133,0.434,2.233,0.733,3.3,0.899l-1.1,0.25c-1.333,0.167-2.583,0.25-3.75,0.25
			c-3.633,0-6.816-0.666-9.55-2l-2.95-2c0.3-2.433,0.633-4.35,1-5.75c0.2-0.833,0.7-1.916,1.5-3.25l1.1-1.75
			C9.583,76.184,12.583,77.1,15.75,77.6z"/>
	</g>
</g>
</svg>
