<?xml version="1.0" encoding="iso-8859-1"?>
<!-- Generator: Adobe Illustrator 15.1.0, SVG Export Plug-In . SVG Version: 6.00 Build 0)  -->
<!DOCTYPE svg PUBLIC "-//W3C//DTD SVG 1.1//EN" "http://www.w3.org/Graphics/SVG/1.1/DTD/svg11.dtd">
<svg version="1.1" id="buildings" xmlns="http://www.w3.org/2000/svg" xmlns:xlink="http://www.w3.org/1999/xlink" x="0px" y="0px"
	 width="57.5px" height="60px" viewBox="0 0 57.5 60" style="enable-background:new 0 0 57.5 60;" xml:space="preserve">
<symbol  id="FlashAICB_x2F_buildings_x2F__x3C_Path_x3E__x5F_5" viewBox="0 -13.75 57.5 13.75">
	<g id="Layer_1_2_">
		<polygon style="fill-rule:evenodd;clip-rule:evenodd;" points="57.5,-12.25 45.5,-13.75 0,-5.9 22.65,0 		"/>
	</g>
</symbol>
<g>
	
		<use xlink:href="#FlashAICB_x2F_buildings_x2F__x3C_Path_x3E__x5F_5"  width="57.5" height="13.75" y="-13.75" transform="matrix(1 0 0 -1 0 46.25)" style="overflow:visible;opacity:0.4102;"/>
	
		<linearGradient id="SVGID_1_" gradientUnits="userSpaceOnUse" x1="11.0869" y1="-31.6763" x2="49.4282" y2="-31.6763" gradientTransform="matrix(0.0998 0.995 -0.995 0.0998 -1.831353e-004 2.821535e-004)">
		<stop  offset="0" style="stop-color:#818E8C"/>
		<stop  offset="1" style="stop-color:#C6CCCB"/>
	</linearGradient>
	<path style="fill-rule:evenodd;clip-rule:evenodd;fill:url(#SVGID_1_);" d="M29.15,3.75l7.5-1c-1,2.6-1.851,5.667-2.551,9.2
		c-1.433,7.066-1.416,13,0.051,17.8c1.466,4.8,5.566,10.983,12.3,18.55c3.399,3.8,6.633,7.117,9.7,9.95l-11,0.5
		c-4.367-2.1-8.801-4.634-13.301-7.6C22.817,45.25,17.917,40.2,17.15,36c-1.967-10.933-0.566-19.583,4.2-25.95
		C23.75,6.85,26.35,4.75,29.15,3.75z"/>
	<g>
		<path style="fill-rule:evenodd;clip-rule:evenodd;fill:#959FA0;" d="M28.75,38.35c3.866-0.433,7.1-0.466,9.7-0.1l0.8,1.15
			l-0.85-0.15c1.033,5.066,2.716,8.384,5.05,9.95c1.3,0.899,3.033,1.434,5.2,1.6l1,1H49.55c-2.767,0-4.983-0.583-6.649-1.75
			c-2.634-1.767-4.483-5.416-5.551-10.95c-2.333-0.233-5.166-0.149-8.5,0.25L28.75,38.35z"/>
		<path style="fill-rule:evenodd;clip-rule:evenodd;fill:#959FA0;" d="M29.6,17.2c0.5-2.434,2.051-4.45,4.65-6.05l-0.3,1.4
			c-1.934,1.367-3.084,3.067-3.45,5.1c1.033,0.633,1.9,1.233,2.6,1.8l-0.05,1.2c-2.166-1.867-4.566-3.133-7.2-3.8l0.25-0.95
			C27.2,16.167,28.366,16.6,29.6,17.2z"/>
	</g>
	
		<linearGradient id="SVGID_2_" gradientUnits="userSpaceOnUse" x1="-8.0938" y1="-39.4053" x2="40.7836" y2="-39.4053" gradientTransform="matrix(-0.5115 0.8593 -0.8593 -0.5115 7.225275e-004 1.355410e-004)">
		<stop  offset="0" style="stop-color:#6F8584"/>
		<stop  offset="1" style="stop-color:#ADB6B4"/>
	</linearGradient>
	<path style="fill-rule:evenodd;clip-rule:evenodd;fill:url(#SVGID_2_);" d="M26.15,31.75c1.167,6.267,4.683,12.65,10.55,19.15
		c2.934,3.233,5.75,5.85,8.45,7.85l-38-7l4-51l18,3c-1,2-1.867,4.667-2.601,8C25.05,18.417,24.917,25.083,26.15,31.75z"/>
	<polygon style="fill-rule:evenodd;clip-rule:evenodd;fill:#BBC2C1;" points="11.15,0.75 23.15,0 36.65,2.75 29.15,3.75 	"/>
	<g>
		<path style="fill-rule:evenodd;clip-rule:evenodd;fill:#758383;" d="M21.3,16c1.333,0.233,2.833,0.133,4.5-0.3l-0.15,1.05
			c-0.9,0.233-1.9,0.35-3,0.35l-0.5-0.05c-3.6,5.167-3.85,10.4-0.75,15.7c1.733,3.066,3.684,4.833,5.85,5.3l0.9,0.15l0.449,0.95
			l-0.35,0.05c-0.367,0-0.783-0.05-1.25-0.15c-2.033-0.467-3.9-1.934-5.6-4.399c-1.3,1.566-2.683,2.883-4.15,3.949
			c1.233,0.934,2.283,2.301,3.15,4.101c0.833,1.8,1.434,3.85,1.8,6.149c1.833-0.166,4.183,0.617,7.05,2.351
			c2.767,1.7,5.017,3.666,6.75,5.899l-1.5-0.3c-1.7-1.934-3.783-3.616-6.25-5.05c-2.467-1.4-4.45-2.033-5.95-1.9
			c0.2,1.567,0.217,3.15,0.05,4.75L21.4,54.4c0.167-1.634,0.117-3.351-0.15-5.15c-0.333-2.3-0.917-4.316-1.75-6.05
			c-0.833-1.8-1.833-3.117-3-3.95l0.25-0.3c-2.633,1.7-5.5,2.55-8.6,2.55h-0.2L8,40.4c4.867,0.1,9.117-2.067,12.75-6.5l0.3,0.199
			l-0.55-0.85c-3.167-5.567-3-11,0.5-16.3c-1.6-0.267-2.683-0.833-3.25-1.7c-1.767,4.733-4.55,7.217-8.35,7.45l0.1-1
			c2.8-0.233,4.967-1.867,6.5-4.9c1.067-2.167,1.867-5.117,2.4-8.85c0.333-2.333,0.517-4.284,0.55-5.85l1,0.15
			C19.917,3.05,19.733,5,19.4,8.1c-0.4,2.433-0.783,4.3-1.15,5.6h0.05C18.267,14.967,19.267,15.733,21.3,16z"/>
	</g>
	<path style="fill-rule:evenodd;clip-rule:evenodd;fill:#677A79;" d="M24.95,15c-0.6,4.067-0.917,7-0.95,8.8
		c-0.033,4.4,0.733,8.75,2.3,13.05c1.534,4.167,4.733,8.917,9.601,14.25c2.466,2.667,4.767,4.917,6.899,6.75L7.65,51l1.15-8l3.9,4
		c3.167,2.8,6.2,4.467,9.1,5c3.767,0.733,7.101,1.066,10,1c3.101-0.066,4.05-0.616,2.851-1.65c-1.767-1.533-3.867-4.333-6.301-8.399
		c-3.033-5.066-4.766-9.55-5.2-13.45c-0.4-3.667-0.316-8.05,0.25-13.15c0.3-2.7,0.717-5.65,1.25-8.85c0.133-1.233-1.833-2.567-5.9-4
		c-2-0.733-4.033-1.333-6.1-1.8l15.5,2.65C26.483,8.583,25.417,12.133,24.95,15z"/>
	<path style="fill-rule:evenodd;clip-rule:evenodd;fill:#889493;" d="M29.8,4.35l6-1C34.9,5.783,34.1,8.6,33.4,11.8
		C32,18.2,31.75,23.267,32.65,27c1.533,6.4,6.416,14.066,14.649,23c2.334,2.566,5,5.184,8,7.85L45.8,58.2l3.2-0.4
		c2.066-0.399,3-0.883,2.8-1.45c-3.166-3.267-6.3-6.733-9.399-10.399c-6.2-7.3-9.684-13.283-10.45-17.95
		c-0.8-4.967-0.75-10.05,0.149-15.25c0.767-4.533,1.117-6.883,1.051-7.05c-0.367-0.7-1.034-1.133-2-1.3L29.8,4.35z"/>
</g>
</svg>
