<?xml version="1.0" encoding="iso-8859-1"?>
<!-- Generator: Adobe Illustrator 15.1.0, SVG Export Plug-In . SVG Version: 6.00 Build 0)  -->
<!DOCTYPE svg PUBLIC "-//W3C//DTD SVG 1.1//EN" "http://www.w3.org/Graphics/SVG/1.1/DTD/svg11.dtd">
<svg version="1.1" id="back_mountains" xmlns="http://www.w3.org/2000/svg" xmlns:xlink="http://www.w3.org/1999/xlink" x="0px"
	 y="0px" width="676.45px" height="700.35px" viewBox="0 0 676.45 700.35" style="enable-background:new 0 0 676.45 700.35;"
	 xml:space="preserve">
<g>
	<path style="fill-rule:evenodd;clip-rule:evenodd;fill:#628378;" d="M191.35,110.6c-5.367,19.933-8.434,43.45-9.2,70.55
		c-0.767,27.533,1.05,51.283,5.45,71.25c4.933,22.267,12.283,35.2,22.05,38.8c9.833,3.667,21.15,5.15,33.95,4.45
		c11.533-0.6,23.133-2.867,34.8-6.8c11.1-3.733,20.5-8.367,28.2-13.9c7.867-5.667,12.533-11.267,14-16.8
		c2.367-8.933,0.433-24.316-5.8-46.15c-6.167-21.567-14.75-43.283-25.75-65.15c-12.066-24-24.35-42.533-36.85-55.6
		c-14.4-15.067-27.4-20.8-39-17.2C204.433,76.75,197.15,88.933,191.35,110.6z M176.9,89.05c1.667-6.1,3.533-10.316,5.6-12.65
		c2.233-2.5,2.567-6.017,1-10.55c-1.367-4.033-4.017-8.283-7.95-12.75c-3.767-4.3-7.816-7.817-12.15-10.55
		c-4.6-2.9-8.467-4.2-11.6-3.9c-2.833,0.267-4.367,5.333-4.6,15.2c-0.167,8.7,0.65,19.4,2.45,32.1c1.767,12.4,3.917,22.9,6.45,31.5
		c2.767,9.4,5.267,13.816,7.5,13.25c2.133-0.534,4-3.2,5.6-8c1.066-3.133,2.35-8.483,3.85-16.05
		C174.75,98.05,176.033,92.183,176.9,89.05z M379.25,89.2c-10.366-8.1-19.283-11.184-26.75-9.25
		c-7.934,2.066-13.566,10.583-16.9,25.55c-3.033,13.567-3.7,29.733-2,48.5c1.7,18.7,5.266,34.917,10.7,48.65
		c5.967,15.1,13.017,23.767,21.15,26c8.166,2.267,16.85,2.3,26.05,0.1c8.366-1.967,16.316-5.533,23.85-10.7
		c7.2-4.966,12.934-10.617,17.2-16.95c4.367-6.5,6.4-12.65,6.101-18.45c-0.301-5.967-3.467-15.033-9.5-27.2
		c-6.101-12.333-13.467-24.367-22.101-36.1C397.45,106.217,388.184,96.167,379.25,89.2z M530.55,175.6
		c6.101-3.833,9.3-6.217,9.601-7.15c0.333-0.967-2.4-7.317-8.2-19.05c-6.3-12.667-13.101-25.25-20.4-37.75
		C490.783,76.217,477.1,60.533,470.5,64.6c-3.134,1.933-5.934,10.033-8.4,24.3c-2.267,13.233-3.75,28.517-4.449,45.85
		c-0.733,17.9-0.384,32.9,1.05,45c1.633,13.667,4.383,20.917,8.25,21.75c7.233,1.567,21.366-3.05,42.399-13.85
		C517.05,183.683,524.117,179.667,530.55,175.6z M593.15,98.95c-1.867-13.067-3-20.983-3.4-23.75c-0.667-4.467-3.767-8.05-9.3-10.75
		c-6.033-2.934-12.384-3.284-19.05-1.05c-6.367,2.133-12.267,10.167-17.7,24.1c-4.733,12.1-7.101,22.167-7.101,30.2
		c0,5.333,4.634,11.133,13.9,17.4c2.267,1.566,5.934,3.85,11,6.85c4.2,2.466,6.917,4.216,8.15,5.25
		c3.399,2.833,5.717,8.683,6.949,17.55c1.167,8.533,0.817,15.283-1.05,20.25c-1.3,3.533-10.483,6.583-27.55,9.15
		c-13.467,2.033-20.383,3.083-20.75,3.15c-7.533,1.3-13.066,2.7-16.6,4.2c-3.4,1.467-8,4.883-13.801,10.25
		c-7.267,7.033-13.149,12.567-17.649,16.6c-17.601,15.9-35.45,26.633-53.55,32.2c-6.934,2.133-17.717,5.167-32.351,9.1
		c-12.333,3.333-21.416,6-27.25,8c-17.7,6.133-29.3,14.2-34.8,24.2c-2.867,5.2-10.033,9.35-21.5,12.45
		c-5.566,1.534-17.3,3.733-35.2,6.6c-15.733,2.533-27.167,5.1-34.3,7.7c-10.667,3.9-16.933,9.15-18.8,15.75
		c-2.167,7.766-3.383,16.15-3.65,25.15c-0.3,9.767,0.583,18.934,2.65,27.5c5,20.9,15.566,34.033,31.7,39.4
		c7.9,2.633,16.167,4.033,24.8,4.199c5.333,0.134,13.1-0.333,23.3-1.399c10.667-1.101,18.867-1.65,24.6-1.65
		c9.8,0.033,19.4,1.233,28.8,3.601c17.699,4.433,36.783,15.199,57.25,32.3c10.233,8.566,18.699,16.684,25.399,24.35l30.101,2.95
		c20.433,2.366,31.633,4.533,33.6,6.5s13.384,7.083,34.25,15.35c10.434,4.134,20.667,8.067,30.7,11.801l70.8,88.5l12.8,58.5
		c0.467,3.166,0.601,5.75,0.4,7.75c-0.267,2.267-1,4-2.2,5.199c-1.934,1.934-6.616,1.851-14.05-0.25l-10.601-3.75
		c-2.433,1.434-5.75,2.817-9.949,4.15c-8.334,2.667-16.801,3.717-25.4,3.15c-7.833-0.5-17.3-3.551-28.4-9.15
		c-5.566-2.9-9.633-4.967-12.199-6.2c-4.334-2.066-7.917-3.383-10.75-3.95c-3-0.6-5.934-0.267-8.801,1
		c-2,0.9-4.616,2.667-7.85,5.301c-4.167,3.399-7.1,5.666-8.8,6.8c-3.834,2.533-7.783,4.383-11.851,5.55
		c-7.733,2.2-17.383,1.9-28.949-0.9c-13.367-4.066-23.5-6.883-30.4-8.449c-17.233-3.867-36.35-1.867-57.35,6
		c-6.667,2.5-15.101,4.033-25.301,4.6l-13.35,0.1l-84-8l-32,9.301c-3.1-1.867-7.1-3.801-12-5.801c-9.767-4-19.1-6.283-28-6.85
		c-7.467-0.467-18.8,1.667-34,6.4c-8.1,2.533-13.7,4.183-16.8,4.949c-6.034,1.467-11.1,2.134-15.2,2c-8-0.3-14.867-2.166-20.6-5.6
		c-2-1.2-4.733-3.116-8.2-5.75c-4.5-3.467-7.784-5.917-9.85-7.35c-3.633-2.534-7.333-3.917-11.1-4.15
		c-3.233-0.2-7.283,0.467-12.15,2c-13.833,5.467-26.75,9.75-38.75,12.85c-13.167,3.4-19.35-0.316-18.55-11.149
		c0.467-6.566,3.25-14.8,8.35-24.7c24.133-37.566,46-73.65,65.6-108.25c27.333-48.3,48.383-90.45,63.15-126.45
		c16.6-40.434,20.967-103.9,13.1-190.4c-5.233-57.566-15.3-120.683-30.2-189.35c-3.233-14.966-2.883-24.683,1.05-29.15
		c4.033-4.5,12.083-4,24.15,1.5c30.033,13.733,63.6,23.3,100.7,28.7c2.9,0.433,6.933,3.5,12.1,9.2
		c2.667,2.967,7.634,9.133,14.9,18.5c6.667,8.534,11.767,14.617,15.3,18.25c5.4,5.567,9.783,8.434,13.15,8.6
		c1.867,0.1,3.617-2.35,5.25-7.35c0.967-2.933,2.3-8.466,4-16.6c1.7-8.067,3.067-13.65,4.1-16.75c1.7-5.1,3.55-7.667,5.55-7.7
		c6.134-0.1,13.75,1.583,22.851,5.05c4.133,1.567,12.55,5.3,25.25,11.2c10.833,5.033,19.399,8.517,25.699,10.45
		c9.267,2.867,17.317,3.8,24.15,2.8c4.3-0.633,12.2-6.35,23.7-17.15c6.133-5.767,10.383-9.633,12.75-11.6
		c4.5-3.733,8.083-5.95,10.75-6.65c3.467-0.934,7.566,0.083,12.3,3.05c2.934,1.833,7.25,5.317,12.95,10.45
		c5.866,5.3,10.116,8.8,12.75,10.5c4.566,3,8.434,4.05,11.6,3.15c13.8-3.867,28.434-10.05,43.9-18.55
		c8.8-4.867,21.533-12.75,38.2-23.65c15.1-9.9,26.199-16.633,33.3-20.2C643.25,2.467,653-0.233,661.2,0
		c12.167,0.367,17.05,12.367,14.649,36c-0.8,7.7-2.517,17.733-5.149,30.1c-3.467,16.066-5.283,24.617-5.45,25.65
		c-2.8,16.133-4.717,28.283-5.75,36.45c-1.4,11.233-1.833,19.533-1.3,24.9c0.767,7.9,2.333,23.25,4.7,46.05L655.85,244
		c0-5.1-0.1-10.85-0.3-17.25c-0.399-12.8-1.1-22.383-2.1-28.75c-1.8-11.7-2.983-20.7-3.55-27c-1-11.533-0.983-21.433,0.05-29.7
		c1.033-8.2,1.717-17.983,2.05-29.35c0.2-6.4,0.3-14.717,0.3-24.95c0-3.1-0.883-6.6-2.649-10.5c-1.634-3.6-3.7-6.883-6.2-9.85
		c-2.533-3-4.9-4.95-7.101-5.85c-2.399-1-4.166-0.517-5.3,1.45c-1.8,3.133-0.967,10.45,2.5,21.95c0.934,3.1,2.367,7.783,4.3,14.05
		c1.5,5.267,2.384,9.4,2.65,12.4c0.5,6.333,0.35,12.133-0.45,17.4c-0.566,3.5-1.6,7.534-3.1,12.1c-0.934,2.8-1.667,8.25-2.2,16.35
		c-0.767,11.667-1.217,18.017-1.35,19.05c-0.5,4.434,0.333,12.25,2.5,23.45c1.1,5.6,2.233,10.767,3.399,15.5
		c-2.566-2.933-5.033-6.667-7.399-11.2c-4.7-9.066-6.567-17.533-5.601-25.4c1.634-12.8,2.817-24.25,3.55-34.35
		c1.034-14.066,1.034-23.466,0-28.2c-0.232-1.067-2.35-8.633-6.35-22.7c-3.167-11.233-4.983-19.4-5.45-24.5
		c-0.566-6.3-1.55-9.8-2.95-10.5c-1.267-0.633-3.433,0.9-6.5,4.6c-2.699,3.233-4.316,9.867-4.85,19.9
		c-0.5,9.233-0.05,15.583,1.35,19.05c0.801,1.966,2.867,7.083,6.2,15.35c2.934,7.733,4.4,12.85,4.4,15.35
		c0,1.767-0.2,8.55-0.601,20.35c-0.399,11.8-0.6,19.167-0.6,22.1c0,2-1.133,9.583-3.4,22.75c-2.1,12.333-2.933,20.5-2.5,24.5
		c0.801,7.066,1.2,18.467,1.2,34.2c-1.566-4.533-3-9.8-4.3-15.8c-2.533-12-3.066-21.683-1.6-29.05
		c1.767-8.767,2.899-19.633,3.399-32.6c0.5-12.833,0.15-21.633-1.05-26.4c-0.6-2.367-2.667-7.083-6.2-14.15
		c-2.933-5.933-4.399-10.667-4.399-14.2C595.65,119.633,594.816,111.417,593.15,98.95z"/>
	<path style="fill-rule:evenodd;clip-rule:evenodd;fill:#628378;" d="M559.65,187.3c-2.601,2.367-5.25,5.1-7.95,8.2
		c-5.367,6.167-8.217,11.05-8.55,14.65c-0.267,2.9-0.667,6.367-1.2,10.4c-0.2,3.4,0.2,7.267,1.2,11.6
		c0.967,4.267,1.517,9.483,1.649,15.65c0.067,3.1,0.033,5.767-0.1,8c-1.434-3.133-2.833-6.716-4.2-10.75
		c-2.767-8-3.983-14.133-3.65-18.4c0.334-4.233-0.216-11.267-1.649-21.1l-2.3-13.5L559.65,187.3z"/>
	<g>
		<path style="fill-rule:evenodd;clip-rule:evenodd;fill:#547067;" d="M187.1,46.3c-4.1-5.633-10.633-9.5-19.6-11.6
			c-3.967-0.934-7.35-1.1-10.15-0.5c-3.033,0.667-4.883,2.15-5.55,4.45c-2.833,0.267-4.367,5.333-4.6,15.2
			c-0.167,8.7,0.65,19.4,2.45,32.1c1.767,12.4,3.917,22.9,6.45,31.5c2.767,9.4,5.267,13.816,7.5,13.25
			c2.233-0.567,4.2-3.483,5.9-8.75c5.7-10.167,10.567-23.05,14.6-38.65c3-11.667,5.633-20.833,7.9-27.5
			c0.267-1.5,0.017-2.833-0.75-4C189.817,49.967,188.433,48.133,187.1,46.3z M648.55,681.4c0.467,3.033,0.601,5.517,0.4,7.449
			c-0.2,2.2-0.833,3.9-1.9,5.101c-5.7-5.066-10.433-9.733-14.2-14c-5.533-6.267-8.449-11.15-8.75-14.65
			c-0.399-4.566-0.183-9.934,0.65-16.1l1.35-7.9c-9.166,6.334-19.533,12-31.1,17c-23.167,10-40.8,11.667-52.9,5
			c-12.066-6.666-20.017-16.333-23.85-29c-1.2-3.967-1.917-7.983-2.15-12.05v-4.95l-84,49l-18-51l-51,39l4-31
			c-13.666,8.834-27.833,17.167-42.5,25c-29.333,15.667-46.5,21-51.5,16s-4-17,3-36c2.2-5.934,4.85-12.217,7.95-18.85l4.05-8.15
			l-73,4l52-22l-120,2l58-52c-7.833,2-15.75,2.384-23.75,1.15c-16-2.5-24.417-11.884-25.25-28.15
			c-0.833-16.233,4.083-39.934,14.75-71.1c3.333-9.767,7.05-19.684,11.15-29.75l5.1-12.15l-30,29c1.833-9.833,3.717-21.2,5.65-34.1
			c3.833-25.834,5.95-46.467,6.35-61.9c0.433-15.4-0.267-48.183-2.1-98.35l-2.9-70.65l-7,45c-3.333-19.667-6.783-40.617-10.35-62.85
			c-7.167-44.5-11.383-73.217-12.65-86.15c-1.333-13.733-0.533-22.6,2.4-26.6c1.133-1.6,2.717-2.617,4.75-3.05
			c1.033-0.233,2.983-0.35,5.85-0.35c3.333,0,11,1.333,23,4c6,1.333,11.667,2.667,17,4l-0.55-1.8c19.3,5.967,39.6,10.5,60.9,13.6
			c1.6,0.233,3.433,1.183,5.5,2.85c-12.2,0.167-21.75,0.633-28.65,1.4c-7.333,0.8-14.2,4.933-20.6,12.4
			c-7.467,8.633-15.1,22.5-22.9,41.6c-7,17.167-9.683,51.167-8.05,102c0.533,16.9,1.6,36.9,3.2,60
			c0.867,12.367,1.983,27.867,3.35,46.5c1.267,19.367,4.9,38.933,10.9,58.7c3,9.867,5.867,17.8,8.6,23.8l-3.15,6.4
			c-2.467,5.5-4.6,11.366-6.4,17.6c-5.767,20-7.083,40-3.95,60s15.067,30.25,35.8,30.75c10.4,0.267,20.467-1.483,30.2-5.25
			l-34.5,67.5l120-15l-15,79.5l85.5-84l3.351,9.25c2.866,7.434,5.816,14.351,8.85,20.75c9.733,20.5,18.667,32,26.8,34.5
			c8.134,2.5,25.566-2.25,52.3-14.25c13.4-6,25.967-12.25,37.7-18.75l-3.25,8.601c-2.233,6.967-3.467,13.533-3.7,19.7
			c-0.732,19.767,8.584,31.833,27.95,36.199c19.367,4.367,38.25,1.851,56.65-7.55c9.2-4.7,16.467-9.833,21.8-15.399L648.55,681.4z"
			/>
		<path style="fill-rule:evenodd;clip-rule:evenodd;fill:#547067;" d="M561.05,591.65c0.467-7.867,1.483-16.45,3.05-25.75
			l2.2-11.551l4.55,12.801c3.434,10.233,6.167,19.533,8.2,27.899c6.5,26.733,4.75,39.167-5.25,37.3
			C563.8,630.483,559.55,616.917,561.05,591.65z"/>
		<path style="fill-rule:evenodd;clip-rule:evenodd;fill:#547067;" d="M593.15,98.95c-1.867-13.067-3-20.983-3.4-23.75
			c-0.667-4.467-3.767-8.05-9.3-10.75c-6.033-2.934-12.384-3.284-19.05-1.05c11.1-9.167,20.6-7.75,28.5,4.25
			c2.933,4.467,5.366,10.05,7.3,16.75c1.633,5.767,2.6,11.067,2.899,15.9c0.367,6,2.25,14.5,5.65,25.5
			c3.634,11.767,5.75,20.267,6.35,25.5c0.768,6.4-0.149,18.65-2.75,36.75c-2.833,19.833-4.25,31.583-4.25,35.25
			c0,6.133,1.567,16.25,4.7,30.35v2.15c-1.566-4.533-3-9.8-4.3-15.8c-2.533-12-3.066-21.683-1.6-29.05
			c1.767-8.767,2.899-19.633,3.399-32.6c0.5-12.833,0.15-21.633-1.05-26.4c-0.6-2.367-2.667-7.083-6.2-14.15
			c-2.933-5.933-4.399-10.667-4.399-14.2C595.65,119.633,594.816,111.417,593.15,98.95z"/>
		<path style="fill-rule:evenodd;clip-rule:evenodd;fill:#547067;" d="M623.5,92.65c-3.167-11.233-4.983-19.4-5.45-24.5
			c-0.467-5.167-1.183-8.417-2.149-9.75c-0.934-1.3-2.334-1.117-4.2,0.55c1.399-2.667,3-4.7,4.8-6.1
			c1.733-1.333,2.934-1.517,3.6-0.55c1.2,1.8,4.284,12.467,9.25,32c5.167,20.333,7.75,33,7.75,38c0,1.867-1.25,11.367-3.75,28.5
			c-2.267,15.6-3.017,27.1-2.25,34.5c0.768,7.5,2.367,15.717,4.801,24.65c-3-4.434-5.351-8.95-7.051-13.55
			c-2.399-6.533-3.25-12.7-2.55-18.5c1.634-12.8,2.817-24.25,3.55-34.35c1.034-14.066,1.034-23.466,0-28.2
			C629.617,114.283,627.5,106.717,623.5,92.65z"/>
		<path style="fill-rule:evenodd;clip-rule:evenodd;fill:#547067;" d="M651.1,56.3c3.934,3.434,6.483,9.483,7.65,18.15
			c1.1,8.3,0.884,18.583-0.65,30.85c-1.433,11.534-2.216,26.333-2.35,44.4c-0.167,17.066,0.283,30.6,1.35,40.6
			c1.067,10.333,0.634,27.483-1.3,51.45c-0.133-19.967-0.916-34.55-2.35-43.75c-1.8-11.7-2.983-20.7-3.55-27
			c-1-11.533-0.983-21.433,0.05-29.7c1.033-8.2,1.717-17.983,2.05-29.35c0.2-6.4,0.3-14.717,0.3-24.95c0-5.567-2.366-11.6-7.1-18.1
			c-4.7-6.433-8.65-9.267-11.851-8.5c0.034-3.933,2.117-6.367,6.25-7.3C643.733,52.2,647.566,53.267,651.1,56.3z"/>
		<path style="fill-rule:evenodd;clip-rule:evenodd;fill:#547067;" d="M210.2,426.2l1.9-12.9l5.15,11.351
			c3.933,9.166,7.133,17.633,9.6,25.399c8.033,24.867,7.45,38.283-1.75,40.25c-11.667,2.5-17.333-9.583-17-36.25
			C208.2,445.717,208.9,436.434,210.2,426.2z"/>
		<path style="fill-rule:evenodd;clip-rule:evenodd;fill:#547067;" d="M538.1,187.3c1.334,0.4,2.268,1.284,2.801,2.65
			c0.433,1.2,0.616,2.917,0.55,5.15c-7.833,1.133-13.583,2.05-17.25,2.75c-5.934,1.133-10.45,2.35-13.55,3.65
			c-3.4,1.467-8,4.883-13.801,10.25c-7.267,7.033-13.149,12.567-17.649,16.6c-17.601,15.9-35.45,26.633-53.55,32.2
			c-6.934,2.133-17.717,5.167-32.351,9.1c-12.333,3.333-21.416,6-27.25,8c-17.7,6.133-29.3,14.2-34.8,24.2
			c-2.8,5.066-9.683,9.133-20.65,12.2c-5.934,1.667-17.267,3.833-34,6.5c-15.633,2.5-26.95,4.9-33.95,7.2
			c-10.867,3.567-17.65,8.333-20.35,14.3c-0.167-0.3-0.233-0.55-0.2-0.75c0.5-6.1,7.467-12.183,20.9-18.25
			c13.6-6.167,28.3-9.75,44.1-10.75c13.333-0.833,21.333-5.083,24-12.75c0.833-2.4,1.083-5,0.75-7.8l-0.75-3.45l9.15-4.1
			c7.833-3.5,16.117-7.133,24.85-10.9c8.767-3.733,14.733-8.85,17.9-15.35c1.566-3.267,2.267-6.15,2.1-8.65l5.25,1.3
			c4.434,0.933,8.983,1.667,13.65,2.2c14.833,1.667,27.866,0.833,39.1-2.5c11.767-3.5,26.184-10.95,43.25-22.35
			c11.667-7.833,22.584-16.05,32.75-24.65c6.301-5.333,13.551-9.617,21.75-12.85C528.717,187.317,534.467,186.267,538.1,187.3z"/>
		<path style="fill-rule:evenodd;clip-rule:evenodd;fill:#547067;" d="M255.1,551.3c-18.333-5-10.333-19.666,24-44
			c17.167-12.166,36.167-23.833,57-35l-6.45,14.05c-5.566,11.101-11.417,21.084-17.55,29.95
			C292.434,544.634,273.434,556.3,255.1,551.3z"/>
		<path style="fill-rule:evenodd;clip-rule:evenodd;fill:#547067;" d="M368.1,518.3l0.351,9.95c0.1,7.934-0.134,15.167-0.7,21.7
			c-1.833,20.833-6.717,30.616-14.65,29.35c-7.899-1.233-7.767-11.767,0.4-31.6c2.533-6.2,5.733-12.967,9.6-20.3L368.1,518.3z"/>
		<path style="fill-rule:evenodd;clip-rule:evenodd;fill:#547067;" d="M471.35,539.95l5.75-8.65l3.551,9.5
			c2.566,7.566,4.35,14.45,5.35,20.65c3.167,19.833-2.134,29.116-15.9,27.85c-13.733-1.233-16.683-11.267-8.85-30.1
			C463.684,553.3,467.05,546.884,471.35,539.95z"/>
		<path style="fill-rule:evenodd;clip-rule:evenodd;fill:#4B645C;" d="M352.5,79.95c-1.3,0.333-2.55,0.867-3.75,1.6l-0.65-0.25
			c6.567-6.566,16.867-7.483,30.9-2.75c12.3,4.133,25.333,11.717,39.1,22.75c6.067,4.867,11.551,11.617,16.45,20.25
			c4.634,8.167,8.316,17.217,11.05,27.15c2.7,9.8,4.134,19.267,4.301,28.4c0.166,9.533-1.101,17.6-3.801,24.2
			c-3.933,9.633-12.416,16.817-25.449,21.55c-8.067,2.933-17.017,4.717-26.851,5.35c12.3-3.4,22.967-9.7,32-18.9
			c9-9.167,13.283-18.05,12.851-26.65c-0.301-5.967-3.467-15.033-9.5-27.2c-6.101-12.333-13.467-24.367-22.101-36.1
			c-9.6-13.133-18.866-23.184-27.8-30.15C368.884,81.1,359.967,78.017,352.5,79.95z"/>
		<path style="fill-rule:evenodd;clip-rule:evenodd;fill:#4B645C;" d="M538.1,135.3c0.7,1.3,2.717,4.633,6.051,10
			c2.566,4.2,4.383,7.583,5.449,10.15c3.2,7.667,2.034,13.617-3.5,17.85c-4.666,3.6-13.283,7.784-25.85,12.55
			c-7.767,2.967-16.116,5.816-25.05,8.55c9.7-4.2,19.717-9.367,30.05-15.5c9.5-5.667,14.467-9.15,14.9-10.45
			c0.333-0.967-2.4-7.317-8.2-19.05c-6.3-12.667-13.101-25.25-20.4-37.75c-20.501-34.98-34.101-50.713-40.8-47.2
			c9.91-5.506,23.144,2.978,39.7,25.45C518.384,100.633,527.6,115.767,538.1,135.3z"/>
		<path style="fill-rule:evenodd;clip-rule:evenodd;fill:#4B645C;" d="M332.1,230.5c2.733,13.767,3.733,23.7,3,29.8
			c-1.233,10.434-12.1,18.733-32.6,24.9c-6.433,1.9-13.433,3.483-21,4.75l-9.4,1.35v-0.45c12.5-3.567,23.267-8.367,32.3-14.4
			c9.233-6.133,14.633-12.233,16.2-18.3c2.333-8.833,0.467-23.983-5.6-45.45c-5.967-21.167-14.35-42.617-25.15-64.35
			c-11.833-23.767-23.917-42.3-36.25-55.6C239.4,77.383,226.517,71,214.95,73.6c9.066-5.3,20.517-4.267,34.35,3.1
			c13.067,6.933,25.333,17.8,36.8,32.6c11.5,14.867,23.05,40.784,34.65,77.75C325.65,202.817,329.434,217.3,332.1,230.5z"/>
		<path style="fill-rule:evenodd;clip-rule:evenodd;fill:#4B645C;" d="M167.5,34.7c8.967,2.1,15.5,5.966,19.6,11.6
			c1.333,1.833,2.717,3.667,4.15,5.5c0.767,1.167,1.017,2.5,0.75,4c-2.267,6.667-4.9,15.833-7.9,27.5
			c-4.033,15.6-8.9,28.483-14.6,38.65c0.4-1.267,2.217-9.55,5.45-24.85c2.3-10.733,4.816-17.633,7.55-20.7
			c2.233-2.5,2.567-6.017,1-10.55c-1.367-4.033-4.017-8.283-7.95-12.75c-3.767-4.3-7.816-7.817-12.15-10.55
			c-4.6-2.9-8.467-4.2-11.6-3.9c0.667-2.3,2.517-3.783,5.55-4.45C160.15,33.6,163.533,33.767,167.5,34.7z"/>
		<path style="fill-rule:evenodd;clip-rule:evenodd;fill:#4B645C;" d="M186.55,29.5l0.55,1.8c-5.333-1.333-11-2.667-17-4
			c-12-2.667-19.667-4-23-4c-2.867,0-4.817,0.117-5.85,0.35c-2.033,0.434-3.617,1.45-4.75,3.05c-2.933,4-3.733,12.867-2.4,26.6
			c1.267,12.934,5.483,41.65,12.65,86.15c3.567,22.233,7.017,43.183,10.35,62.85l7-45l2.9,70.65c1.833,50.167,2.533,82.95,2.1,98.35
			c-0.4,15.434-2.517,36.066-6.35,61.9c-1.933,12.899-3.817,24.267-5.65,34.1l30-29l-5.1,12.15
			c-4.1,10.066-7.817,19.983-11.15,29.75c-10.667,31.166-15.583,54.866-14.75,71.1c0.833,16.267,9.25,25.65,25.25,28.15
			c8,1.233,15.917,0.85,23.75-1.15l-58,52l120-2l-52,22l73-4l-4.05,8.15c-3.1,6.633-5.75,12.916-7.95,18.85c-7,19-8,31-3,36
			s22.167-0.333,51.5-16c14.667-7.833,28.833-16.166,42.5-25l-4,31l51-39l18,51l84-49v4.95c0.233,4.066,0.95,8.083,2.15,12.05
			c3.833,12.667,11.783,22.334,23.85,29c12.101,6.667,29.733,5,52.9-5c11.566-5,21.934-10.666,31.1-17l-1.35,7.9
			c-0.833,6.166-1.05,11.533-0.65,16.1c0.301,3.5,3.217,8.384,8.75,14.65c3.768,4.267,8.5,8.934,14.2,14l-0.3,0.399
			c-1.934,1.934-6.616,1.851-14.05-0.25l-10.601-3.75c-2.433,1.434-5.75,2.817-9.949,4.15c-8.334,2.667-16.801,3.717-25.4,3.15
			c-7.833-0.5-17.3-3.551-28.4-9.15c-5.566-2.9-9.633-4.967-12.199-6.2c-4.334-2.066-7.917-3.383-10.75-3.95
			c-3-0.6-5.934-0.267-8.801,1c-2,0.9-4.616,2.667-7.85,5.301c-4.167,3.399-7.1,5.666-8.8,6.8c-3.834,2.533-7.783,4.383-11.851,5.55
			c-7.733,2.2-17.383,1.9-28.949-0.9c-13.367-4.066-23.5-6.883-30.4-8.449c-17.233-3.867-36.35-1.867-57.35,6
			c-6.667,2.5-15.101,4.033-25.301,4.6l-13.35,0.1l-84-8l-32,9.301c-3.1-1.867-7.1-3.801-12-5.801c-9.767-4-19.1-6.283-28-6.85
			c-7.467-0.467-18.8,1.667-34,6.4c-8.1,2.533-13.7,4.183-16.8,4.949c-6.034,1.467-11.1,2.134-15.2,2c-8-0.3-14.867-2.166-20.6-5.6
			c-2-1.2-4.733-3.116-8.2-5.75c-4.5-3.467-7.784-5.917-9.85-7.35c-3.633-2.534-7.333-3.917-11.1-4.15
			c-3.233-0.2-7.283,0.467-12.15,2c-13.833,5.467-26.75,9.75-38.75,12.85c-13.467,3.467-20.167,0.2-20.1-9.8
			c0-7.033,3.033-16.116,9.1-27.25c18.833-30.533,37.316-61.25,55.45-92.149c35.7-60.834,60.4-107.95,74.1-141.351
			c16.6-40.434,20.967-103.9,13.1-190.4c-5.233-57.566-15.3-120.683-30.2-189.35c-3.233-14.966-2.883-24.683,1.05-29.15
			c4.033-4.5,12.083-4,24.15,1.5C159.05,20.067,172.317,25.1,186.55,29.5z"/>
	</g>
	<path style="fill-rule:evenodd;clip-rule:evenodd;fill:none;stroke:#628378;" d="M559.65,187.3c-2.601,2.367-5.25,5.1-7.95,8.2
		c-5.367,6.167-8.217,11.05-8.55,14.65c-0.267,2.9-0.667,6.367-1.2,10.4c-0.2,3.4,0.2,7.267,1.2,11.6
		c0.967,4.267,1.517,9.483,1.649,15.65c0.067,3.1,0.033,5.767-0.1,8c-1.434-3.133-2.833-6.716-4.2-10.75
		c-2.767-8-3.983-14.133-3.65-18.4c0.334-4.233-0.216-11.267-1.649-21.1l-2.3-13.5L559.65,187.3z"/>
</g>
</svg>
