<?xml version="1.0" encoding="iso-8859-1"?>
<!-- Generator: Adobe Illustrator 15.1.0, SVG Export Plug-In . SVG Version: 6.00 Build 0)  -->
<!DOCTYPE svg PUBLIC "-//W3C//DTD SVG 1.1//EN" "http://www.w3.org/Graphics/SVG/1.1/DTD/svg11.dtd">
<svg version="1.1" id="back_mountains" xmlns="http://www.w3.org/2000/svg" xmlns:xlink="http://www.w3.org/1999/xlink" x="0px"
	 y="0px" width="503.45px" height="999px" viewBox="0 0 503.45 999" style="enable-background:new 0 0 503.45 999;"
	 xml:space="preserve">
<g>
	<path style="fill-rule:evenodd;clip-rule:evenodd;fill:#628378;" d="M503.45,0c-4.066,20.1-9.017,46.35-14.851,78.75
		c-11.633,64.833-21.767,128.083-30.399,189.75c-27.667,197.333-35.25,341.833-22.75,433.5c9.066,66.667,22.017,132.366,38.85,197.1
		c-0.2,0.967-0.133,2.167,0.2,3.601c0.7,3.066,2.517,10.383,5.45,21.95c2.333,9.199,4.066,16.566,5.2,22.1
		c3.466,16.9,4.35,30.434,2.649,40.6c-1.666,10-15.166,13.567-40.5,10.7c-7.934-0.934-16.55-2.434-25.85-4.5l-11.65-2.85l-50-18.7
		l-52.649,14l-58.65-22.65c-7.333,3-15.7,6.084-25.1,9.25c-18.767,6.334-33.3,9.917-43.6,10.75c-5.566,0.467-10.333-0.983-14.3-4.35
		c-2.733-2.333-5.767-6.384-9.1-12.15c-4.133-7.133-7.05-11.75-8.75-13.85c-3.833-4.833-8.217-8.05-13.15-9.65
		c-4.967-1.6-10.483-0.899-16.55,2.101c-2.267,1.133-8.367,5.1-18.3,11.899c-8.8,6-16.816,10.467-24.05,13.4
		c-10.6,4.267-21.867,6.467-33.8,6.6c-12.633,0.167-22.517-2.616-29.65-8.35c-6.333-5.066-10.2-12.15-11.6-21.25
		c-1.233-8.233-0.383-17.267,2.55-27.1c2.8-9.4,7.033-18.051,12.7-25.95l-0.45,0.25c54.167-78.134,98.2-142.45,132.1-192.95
		c37.5-55.833,108.083-189.583,211.75-401.25C411.033,194.917,459.116,94.667,503.45,0z"/>
	<g>
		<path style="fill-rule:evenodd;clip-rule:evenodd;fill:#547067;" d="M383.45,381c-3.834,3.167-8.033,5.8-12.601,7.9
			c-9.166,4.167-15.633,3.533-19.399-1.9c-3.267-4.733,4.6-34.8,23.6-90.2C386.616,263,400.566,224.733,416.9,182
			c33.533-69.667,62.383-130.333,86.55-182c-21,51.333-41.25,103.917-60.75,157.75c-39,107.667-54.75,167.75-47.25,180.25
			c6.767,11.3,15.283,11.333,25.55,0.1c5.563-6.063,11.029-14.579,16.4-25.55c-20.179,44.396-38.512,87.196-55,128.4
			c-30.434,76.233-42.084,117.916-34.95,125.05c7.5,7.5,19.416,6.75,35.75-2.25c8.166-4.5,15.583-9.75,22.25-15.75l-18.2,39.7
			c-14.233,31.899-26.667,61.5-37.3,88.8c-34,87.333-43.5,135.167-28.5,143.5s32.5,5.5,52.5-8.5c6.267-4.366,12.399-9.6,18.399-15.7
			l7.101-7.8l-4.8,17.05c-3.601,13.767-6.334,26.584-8.2,38.45c-6,38-2.334,59.5,11,64.5c13.333,5,25.333,5.167,36,0.5
			c5.333-2.333,9.333-5.167,12-8.5l8,62l24-10l11.149,19.85c0.2,5.801-0.066,10.967-0.8,15.5c-1.166,7.101-8.399,10.934-21.7,11.5
			L431.45,946l-11,22l-51-37l-24,15l-31-84l-47,64l-6-77l-56,29l60-102l-53,3l124-143l-4.25,3.15c-3.601,2.5-7.3,4.783-11.101,6.85
			c-12.166,6.667-23.05,10-32.649,10c-9.566,0-7.101-18.833,7.399-56.5c4.5-11.767,9.95-24.717,16.351-38.85l8.25-17.65l-5.15,4.1
			c-4.2,3.167-8.233,5.934-12.1,8.301c-12.334,7.5-20.584,9.366-24.75,5.6c-4.167-3.733,12.083-34.85,48.75-93.35
			C345.533,438.383,364.283,409.5,383.45,381z"/>
		<path style="fill-rule:evenodd;clip-rule:evenodd;fill:#547067;" d="M457.45,150l0.149,18.8
			c-0.133,15.034-0.767,28.85-1.899,41.45c-3.667,40.333-11.75,60.917-24.25,61.75s-11.917-19.25,1.75-60.25
			C440.033,191.25,448.116,170.667,457.45,150z"/>
		<path style="fill-rule:evenodd;clip-rule:evenodd;fill:#547067;" d="M409.6,422.2c3.801-6.5,7.084-11.883,9.851-16.15
			c0,0.333-0.3,6.9-0.9,19.7c-0.967,15.033-2.399,28.6-4.3,40.7c-6.066,38.467-15.667,55.649-28.8,51.55
			c-13.3-4.134-11.634-24.017,5-59.65C395.65,447.217,402.033,435.167,409.6,422.2z"/>
		<path style="fill-rule:evenodd;clip-rule:evenodd;fill:#547067;" d="M362.45,687.75c5.833-10.934,13.083-22.5,21.75-34.7
			L395.45,638v21.2c-0.334,16.8-1.334,31.816-3,45.05c-5.334,42.333-16.334,58.917-33,49.75
			C342.783,744.833,343.783,722.75,362.45,687.75z"/>
		<path style="fill-rule:evenodd;clip-rule:evenodd;fill:#547067;" d="M413.2,834.75c2.399-6.967,5.5-14.517,9.3-22.65l4.95-10.1
			l1.2,11.8c0.8,9.367,1.149,17.851,1.05,25.45c-0.334,24.333-5.084,35.25-14.25,32.75C406.283,869.5,405.533,857.083,413.2,834.75z
			"/>
		<path style="fill-rule:evenodd;clip-rule:evenodd;fill:#4B645C;" d="M370.85,388.9c4.567-2.1,8.767-4.733,12.601-7.9
			c-19.167,28.5-37.917,57.383-56.25,86.65c-36.667,58.5-52.917,89.617-48.75,93.35c4.166,3.767,12.416,1.9,24.75-5.6
			c3.866-2.367,7.899-5.134,12.1-8.301l5.15-4.1l-8.25,17.65c-6.4,14.133-11.851,27.083-16.351,38.85
			c-14.5,37.667-16.966,56.5-7.399,56.5c9.6,0,20.483-3.333,32.649-10c3.801-2.066,7.5-4.35,11.101-6.85l4.25-3.15l-124,143l53-3
			l-60,102l56-29l6,77l47-64l31,84l24-15l51,37l11-22l34.649,52.85c-9.633,0.467-21.916-0.75-36.85-3.649l-19.45-4.5l-50-18.7
			l-52.649,14l-58.65-22.65c-7.333,3-15.7,6.084-25.1,9.25c-18.767,6.334-33.3,9.917-43.6,10.75
			c-5.566,0.467-10.333-0.983-14.3-4.35c-2.733-2.333-5.767-6.384-9.1-12.15c-4.133-7.133-7.05-11.75-8.75-13.85
			c-3.833-4.833-8.217-8.05-13.15-9.65c-4.967-1.6-10.483-0.899-16.55,2.101c-2.267,1.133-8.367,5.1-18.3,11.899
			c-8.8,6-16.816,10.467-24.05,13.4c-10.6,4.267-21.867,6.467-33.8,6.6c-12.633,0.167-22.517-2.616-29.65-8.35
			c-6.333-5.066-10.2-12.15-11.6-21.25c-1.233-8.233-0.383-17.267,2.55-27.1c2.8-9.4,7.033-18.051,12.7-25.95l-0.45,0.25
			c54.167-78.134,98.2-142.45,132.1-192.95c25.4-37.8,66.667-112.733,123.8-224.8c41.9-82.133,90.45-180.534,145.65-295.2
			c-16.334,42.733-30.284,81-41.851,114.8c-19,55.4-26.866,85.467-23.6,90.2C355.217,392.433,361.684,393.067,370.85,388.9z"/>
	</g>
</g>
</svg>
