<?xml version="1.0" encoding="iso-8859-1"?>
<!-- Generator: Adobe Illustrator 15.1.0, SVG Export Plug-In . SVG Version: 6.00 Build 0)  -->
<!DOCTYPE svg PUBLIC "-//W3C//DTD SVG 1.1//EN" "http://www.w3.org/Graphics/SVG/1.1/DTD/svg11.dtd">
<svg version="1.1" id="Isolation_Mode" xmlns="http://www.w3.org/2000/svg" xmlns:xlink="http://www.w3.org/1999/xlink" x="0px"
	 y="0px" width="315.5px" height="243.05px" viewBox="0 0 315.5 243.05" style="enable-background:new 0 0 315.5 243.05;"
	 xml:space="preserve">
<symbol  id="FlashAICB_x2F_Isolation_Mode_x2F__x3C_Path_x3E_" viewBox="0 -7 4.4 7">
	<g id="Layer_1_8_">
		<polygon style="fill-rule:evenodd;clip-rule:evenodd;fill:#787B68;" points="4,-7 0,0 4.4,-6.4 3.9,-6.25 		"/>
	</g>
</symbol>
<symbol  id="FlashAICB_x2F_Isolation_Mode_x2F__x3C_Path_x3E__x5F_0" viewBox="0 -0.65 7.1 0.65">
	<g id="Layer_1_19_">
		<polygon style="fill-rule:evenodd;clip-rule:evenodd;fill:#787B68;" points="7,-0.2 7.1,-0.65 0,0 		"/>
	</g>
</symbol>
<symbol  id="FlashAICB_x2F_Isolation_Mode_x2F__x3C_Path_x3E__x5F_1" viewBox="0 -10.1 4.6 10.1">
	<g id="Layer_1_7_">
		<polygon style="fill-rule:evenodd;clip-rule:evenodd;fill:#787B68;" points="3.95,-9.6 0,0 4.6,-10.1 		"/>
	</g>
</symbol>
<symbol  id="FlashAICB_x2F_Isolation_Mode_x2F__x3C_Path_x3E__x5F_10" viewBox="0 -4.6 5.4 4.6">
	<g id="Layer_1_9_">
		<polygon style="fill-rule:evenodd;clip-rule:evenodd;fill:#787B68;" points="0,-4.2 5.4,0 0.55,-4.6 		"/>
	</g>
</symbol>
<symbol  id="FlashAICB_x2F_Isolation_Mode_x2F__x3C_Path_x3E__x5F_11" viewBox="0 -1.55 7.2 1.55">
	<g id="Layer_1_28_">
		<polygon style="fill-rule:evenodd;clip-rule:evenodd;fill:#787B68;" points="6.95,-1.15 7.2,-1.55 0,0 		"/>
	</g>
</symbol>
<symbol  id="FlashAICB_x2F_Isolation_Mode_x2F__x3C_Path_x3E__x5F_12" viewBox="0 -2.7 5.8 2.7">
	<g id="Layer_1_36_">
		<polygon style="fill-rule:evenodd;clip-rule:evenodd;fill:#A48476;" points="0.05,-2.3 5.8,0 0,-2.7 0.4,-2.4 		"/>
	</g>
</symbol>
<symbol  id="FlashAICB_x2F_Isolation_Mode_x2F__x3C_Path_x3E__x5F_1_x5F_0" viewBox="0 -6.45 6.05 6.45">
	<g id="Layer_1_18_">
		<polygon style="fill-rule:evenodd;clip-rule:evenodd;fill:#787B68;" points="6.05,-6.45 0,0 4.25,-3.35 		"/>
	</g>
</symbol>
<symbol  id="FlashAICB_x2F_Isolation_Mode_x2F__x3C_Path_x3E__x5F_1_x5F_1" viewBox="0 -3.75 5.65 3.75">
	<g id="Layer_1_27_">
		<polygon style="fill-rule:evenodd;clip-rule:evenodd;fill:#787B68;" points="5.65,-3.3 5.45,-3.75 0,0 		"/>
	</g>
</symbol>
<symbol  id="FlashAICB_x2F_Isolation_Mode_x2F__x3C_Path_x3E__x5F_1_x5F_2">
	<g id="Layer_1_35_">
	</g>
</symbol>
<symbol  id="FlashAICB_x2F_Isolation_Mode_x2F__x3C_Path_x3E__x5F_2" viewBox="0 -5.75 1.6 5.75">
	<g id="Layer_1_6_">
		<polygon style="fill-rule:evenodd;clip-rule:evenodd;fill:#787B68;" points="0.95,-5.75 0,0 1.6,-5.55 		"/>
	</g>
</symbol>
<symbol  id="FlashAICB_x2F_Isolation_Mode_x2F__x3C_Path_x3E__x5F_24" viewBox="-0.005 -27.602 281.455 27.602">
	<g id="Layer_1_2_">
		<path style="fill-rule:evenodd;clip-rule:evenodd;" d="M281.45-5.3l-4.25-2.4l-3.9-0.9l-2.6-2.35l4.25-3.35l-3.2-0.25l-1.55-1.35
			l-3.7,0.35l-1.5-1.5l-3.15,0.65l-2.3-1.3l-5.1-0.65l-2-3l-6.25-3.5l-6.9-0.85c-0.4-0.066-1.3-0.35-2.7-0.85
			c-1.033-0.367-1.883-0.467-2.55-0.3c-0.667,0.167-1.75,0.3-3.25,0.4c-1.833,0.133-3.167,0.25-4,0.35
			c-0.433,0.067-1.15,0.05-2.15-0.05c-0.967-0.133-1.75-0.15-2.35-0.05c-0.2,0-0.533,0.117-1,0.35c-0.5,0.233-0.983,0.383-1.45,0.45
			c-0.267,0.033-0.817-0.033-1.65-0.2c-0.767-0.2-1.267-0.267-1.5-0.2c-0.467,0.1-0.934,0.316-1.4,0.65
			c-0.433,0.333-0.7,0.5-0.8,0.5c-0.5,0.066-1.367,0.033-2.6-0.1c-1.333-0.1-2.233-0.133-2.7-0.1c-2.3,0.167-4.6,0.3-6.9,0.4
			c-0.566,0-1.633-0.533-3.2-1.6c-1.567-1.067-2.667-1.583-3.3-1.55c-6.966,0.167-23.966,0.317-51,0.45
			c-23.367,0.167-41.816,0.483-55.35,0.95c-0.133,0-0.034,0.45,0.3,1.35c0.367,0.967,0.383,1.55,0.05,1.75
			c-0.566,0.3-1.283,0.45-2.15,0.45c-0.9-0.067-1.467-0.083-1.7-0.05c-0.5,0-1.217-0.2-2.15-0.6c-0.933-0.4-1.633-0.583-2.1-0.55
			c-0.467,0-1.167,0.167-2.1,0.5c-0.934,0.3-1.617,0.467-2.05,0.5c-0.6,0-1.483-0.183-2.65-0.55c-1.133-0.4-2-0.583-2.6-0.55
			c-0.466,0-1.216,0.167-2.25,0.5c-1.066,0.3-1.816,0.467-2.25,0.5c-0.433,0-1.183-0.2-2.25-0.6c-1.066-0.4-1.816-0.583-2.25-0.55
			c-0.4,0-1.017,0.15-1.85,0.45c-0.833,0.267-1.467,0.417-1.9,0.45c-0.633,0-1.55-0.15-2.75-0.45c-1.233-0.333-2.15-0.483-2.75-0.45
			l-11,0.25c-0.933,0-2.267,0.4-4,1.2c-1.767,0.767-3.05,1.167-3.85,1.2c-0.434,0-1.017-0.1-1.75-0.3
			c-0.934-0.233-1.667-0.383-2.2-0.45c-0.167-0.033-0.567-0.017-1.2,0.05c-0.667,0.1-1.066,0.133-1.2,0.1
			c-0.367-0.1-0.817-0.35-1.35-0.75c-0.467-0.333-0.817-0.5-1.05-0.5c-0.733,0-1.4,0.183-2,0.55c-0.6,0.333-1.184,0.517-1.75,0.55
			c-0.267,0-1.034-0.133-2.3-0.4c-1.133-0.2-1.867-0.267-2.2-0.2c-0.233,0.033-0.75,0.283-1.55,0.75
			c-0.733,0.466-1.217,0.683-1.45,0.65c-2.6-0.133-5.083-0.517-7.45-1.15c-1.167-0.333-2.233-0.633-3.2-0.9
			c-3.133,0.167-4.65,1.4-4.55,3.7c0.1,1.933,1,3.65,2.7,5.15c1.733,1.533,8.017,5.917,18.85,13.15L91.7-1.4l2.25-14.3l62.75-2.75
			l53.5,0.25l0.2,17.75L269.45,0L281.45-5.3z"/>
	</g>
</symbol>
<symbol  id="FlashAICB_x2F_Isolation_Mode_x2F__x3C_Path_x3E__x5F_2_x5F_0" viewBox="0 -18.75 12.35 18.75">
	<g id="Layer_1_17_">
		<polygon style="fill-rule:evenodd;clip-rule:evenodd;fill:#787B68;" points="12.35,-18.75 0,0 12.1,-16.05 11.35,-15.8 		"/>
	</g>
</symbol>
<symbol  id="FlashAICB_x2F_Isolation_Mode_x2F__x3C_Path_x3E__x5F_2_x5F_1" viewBox="0 -6.55 7.5 6.55">
	<g id="Layer_1_26_">
		<polygon style="fill-rule:evenodd;clip-rule:evenodd;fill:#787B68;" points="7.5,-5.35 6.7,-5.5 7.35,-6.55 0,0 		"/>
	</g>
</symbol>
<symbol  id="FlashAICB_x2F_Isolation_Mode_x2F__x3C_Path_x3E__x5F_2_x5F_2" viewBox="0 -7.3 4.55 7.3">
	<g id="Layer_1_34_">
		<path style="fill-rule:evenodd;clip-rule:evenodd;fill:#A48476;" d="M0-7.25c0.467,2.033,1.067,3.567,1.8,4.6
			C2.567-1.617,3.483-0.733,4.55,0C2.75-1.7,1.667-2.967,1.3-3.8c-0.367-0.833-0.65-2-0.85-3.5L0-7.25z"/>
	</g>
</symbol>
<symbol  id="FlashAICB_x2F_Isolation_Mode_x2F__x3C_Path_x3E__x5F_3" viewBox="0 -5.75 1.4 5.75">
	<g id="Layer_1_5_">
		<polygon style="fill-rule:evenodd;clip-rule:evenodd;fill:#787B68;" points="0,-5.75 1.4,0 0.5,-5.7 		"/>
	</g>
</symbol>
<symbol  id="FlashAICB_x2F_Isolation_Mode_x2F__x3C_Path_x3E__x5F_3_x5F_0" viewBox="0 -22.4 7.15 22.4">
	<g id="Layer_1_16_">
		<polygon style="fill-rule:evenodd;clip-rule:evenodd;fill:#787B68;" points="6.55,-22.4 0,0 7.15,-21.05 6.4,-19.8 		"/>
	</g>
</symbol>
<symbol  id="FlashAICB_x2F_Isolation_Mode_x2F__x3C_Path_x3E__x5F_3_x5F_1" viewBox="0 -13.05 8.35 13.05">
	<g id="Layer_1_25_">
		<polygon style="fill-rule:evenodd;clip-rule:evenodd;fill:#787B68;" points="8.35,-13.05 6.9,-12.1 6.8,-12.75 0,0 		"/>
	</g>
</symbol>
<symbol  id="FlashAICB_x2F_Isolation_Mode_x2F__x3C_Path_x3E__x5F_3_x5F_2" viewBox="0 -7.9 1.5 7.9">
	<g id="Layer_1_33_">
		<polygon style="fill-rule:evenodd;clip-rule:evenodd;fill:#A48476;" points="0,-6.8 1.5,0 0.35,-7.9 0.35,-6.45 		"/>
	</g>
</symbol>
<symbol  id="FlashAICB_x2F_Isolation_Mode_x2F__x3C_Path_x3E__x5F_4" viewBox="0 -3.2 5.95 3.2">
	<g id="Layer_1_4_">
		<polygon style="fill-rule:evenodd;clip-rule:evenodd;fill:#787B68;" points="0,-2.8 5.95,0 0.2,-3.2 		"/>
	</g>
</symbol>
<symbol  id="FlashAICB_x2F_Isolation_Mode_x2F__x3C_Path_x3E__x5F_4_x5F_0" viewBox="0 -18.75 2.6 18.75">
	<g id="Layer_1_15_">
		<polygon style="fill-rule:evenodd;clip-rule:evenodd;fill:#787B68;" points="1.45,-17.7 0,0 2.6,-18.75 1.85,-17.4 		"/>
	</g>
</symbol>
<symbol  id="FlashAICB_x2F_Isolation_Mode_x2F__x3C_Path_x3E__x5F_4_x5F_1" viewBox="0 -14.05 6 14.05">
	<g id="Layer_1_24_">
		<polygon style="fill-rule:evenodd;clip-rule:evenodd;fill:#787B68;" points="5.35,-14.05 0,0 6,-13.85 5.55,-13.65 		"/>
	</g>
</symbol>
<symbol  id="FlashAICB_x2F_Isolation_Mode_x2F__x3C_Path_x3E__x5F_4_x5F_2" viewBox="0 -7.95 1 7.95">
	<g id="Layer_1_32_">
		<polygon style="fill-rule:evenodd;clip-rule:evenodd;fill:#A48476;" points="0,-7.45 1,0 0.5,-7.95 		"/>
	</g>
</symbol>
<symbol  id="FlashAICB_x2F_Isolation_Mode_x2F__x3C_Path_x3E__x5F_5" viewBox="0 -6.85 6.55 6.85">
	<g id="Layer_1_3_">
		<polygon style="fill-rule:evenodd;clip-rule:evenodd;fill:#787B68;" points="0,-6.65 6.55,0 0.45,-6.85 0.65,-6.35 		"/>
	</g>
</symbol>
<symbol  id="FlashAICB_x2F_Isolation_Mode_x2F__x3C_Path_x3E__x5F_5_x5F_0" viewBox="0 -14.1 1.1 14.1">
	<g id="Layer_1_14_">
		<polygon style="fill-rule:evenodd;clip-rule:evenodd;fill:#787B68;" points="0,-14.1 1.1,0 0.75,-11.65 		"/>
	</g>
</symbol>
<symbol  id="FlashAICB_x2F_Isolation_Mode_x2F__x3C_Path_x3E__x5F_5_x5F_1" viewBox="0 -8.2 0.95 8.2">
	<g id="Layer_1_23_">
		<polygon style="fill-rule:evenodd;clip-rule:evenodd;fill:#787B68;" points="0,-7.4 0.15,0 0.95,-8.2 0.45,-7.35 		"/>
	</g>
</symbol>
<symbol  id="FlashAICB_x2F_Isolation_Mode_x2F__x3C_Path_x3E__x5F_5_x5F_2" viewBox="0 -6.05 0.75 6.05">
	<g id="Layer_1_31_">
		<polygon style="fill-rule:evenodd;clip-rule:evenodd;fill:#A48476;" points="0.2,-5.2 0,0 0.75,-6.05 0.4,-5 		"/>
	</g>
</symbol>
<symbol  id="FlashAICB_x2F_Isolation_Mode_x2F__x3C_Path_x3E__x5F_6" viewBox="0 -21.2 4.85 21.2">
	<g id="Layer_1_13_">
		<polygon style="fill-rule:evenodd;clip-rule:evenodd;fill:#787B68;" points="0,-21.2 4.85,0 0.75,-20.15 		"/>
	</g>
</symbol>
<symbol  id="FlashAICB_x2F_Isolation_Mode_x2F__x3C_Path_x3E__x5F_6_x5F_0" viewBox="0 -23.75 5.85 23.75">
	<g id="Layer_1_22_">
		<polygon style="fill-rule:evenodd;clip-rule:evenodd;fill:#787B68;" points="0,-23.75 5.85,0 1.05,-23.25 		"/>
	</g>
</symbol>
<symbol  id="FlashAICB_x2F_Isolation_Mode_x2F__x3C_Path_x3E__x5F_6_x5F_1" viewBox="0 -5.45 1.9 5.45">
	<g id="Layer_1_30_">
		<polygon style="fill-rule:evenodd;clip-rule:evenodd;fill:#A48476;" points="1.45,-5 0,0 1.9,-5.45 		"/>
	</g>
</symbol>
<symbol  id="FlashAICB_x2F_Isolation_Mode_x2F__x3C_Path_x3E__x5F_7" viewBox="0 -11.05 2.8 11.05">
	<g id="Layer_1_12_">
		<polygon style="fill-rule:evenodd;clip-rule:evenodd;fill:#787B68;" points="0,-11.05 2.75,0 2.8,-8.95 2,-8.4 		"/>
	</g>
</symbol>
<symbol  id="FlashAICB_x2F_Isolation_Mode_x2F__x3C_Path_x3E__x5F_7_x5F_0" viewBox="0 -14.05 3 14.05">
	<g id="Layer_1_21_">
		<polygon style="fill-rule:evenodd;clip-rule:evenodd;fill:#787B68;" points="0,-14.05 3,0 0.8,-13.25 0.6,-12.7 		"/>
	</g>
</symbol>
<symbol  id="FlashAICB_x2F_Isolation_Mode_x2F__x3C_Path_x3E__x5F_7_x5F_1" viewBox="0 -4.85 5.6 4.85">
	<g id="Layer_1_29_">
		<path style="fill-rule:evenodd;clip-rule:evenodd;fill:#A48476;" d="M4.55-4.85c-0.933,1.3-1.6,2.167-2,2.6
			C2.15-1.817,1.3-1.067,0,0c1.7-1.233,2.85-2.183,3.45-2.85C3.883-3.383,4.6-4,5.6-4.7L4.85-4.5L4.55-4.85z"/>
	</g>
</symbol>
<symbol  id="FlashAICB_x2F_Isolation_Mode_x2F__x3C_Path_x3E__x5F_8" viewBox="0 -16.65 4.75 16.65">
	<g id="Layer_1_11_">
		<polygon style="fill-rule:evenodd;clip-rule:evenodd;fill:#787B68;" points="0,-16.65 4.75,0 1,-16.2 		"/>
	</g>
</symbol>
<symbol  id="FlashAICB_x2F_Isolation_Mode_x2F__x3C_Path_x3E__x5F_8_x5F_0" viewBox="0 -8.55 5.15 8.55">
	<g id="Layer_1_20_">
		<polygon style="fill-rule:evenodd;clip-rule:evenodd;fill:#787B68;" points="0.65,-8.55 0.7,-7.9 0,-8.4 5.15,0 		"/>
	</g>
</symbol>
<symbol  id="FlashAICB_x2F_Isolation_Mode_x2F__x3C_Path_x3E__x5F_9" viewBox="0 -9.8 5 9.8">
	<g id="Layer_1_10_">
		<polygon style="fill-rule:evenodd;clip-rule:evenodd;fill:#787B68;" points="0,-9.3 5,0 0.95,-9.8 0.8,-9.1 		"/>
	</g>
</symbol>
<g>
	<g>
		
			<use xlink:href="#FlashAICB_x2F_Isolation_Mode_x2F__x3C_Path_x3E__x5F_24"  width="281.455" height="27.602" x="-0.005" y="-27.602" transform="matrix(1 0 0 -1 21.4502 215.4502)" style="overflow:visible;opacity:0.4102;"/>
		<polygon style="fill-rule:evenodd;clip-rule:evenodd;fill:#AAB9B6;" points="104,63.95 133.6,38.05 115.15,62.5 		"/>
		<polygon style="fill-rule:evenodd;clip-rule:evenodd;fill:#AAB9B6;" points="47.95,111.75 47.8,55.65 56,101.6 		"/>
		<polygon style="fill-rule:evenodd;clip-rule:evenodd;fill:#869693;" points="60.5,112.2 63.4,85.85 66.75,109.45 		"/>
		<polygon style="fill-rule:evenodd;clip-rule:evenodd;fill:#AAB9B6;" points="66.75,109.45 91.8,145.25 83.3,157.05 60.5,112.2 		
			"/>
		<polygon style="fill-rule:evenodd;clip-rule:evenodd;fill:#B9C4C2;" points="97.8,46.75 53.65,35.15 98.2,37.25 		"/>
		<polygon style="fill-rule:evenodd;clip-rule:evenodd;fill:#B9C4C2;" points="88.8,0 114.95,38.3 104,39.3 		"/>
		<polygon style="fill-rule:evenodd;clip-rule:evenodd;fill:#869693;" points="117.05,184.05 106.15,185.45 110.5,156.1 121.2,153 
					"/>
		<polygon style="fill-rule:evenodd;clip-rule:evenodd;fill:#869693;" points="113.4,152.9 121.8,153.75 116.15,188.9 103.4,186.4 
					"/>
		<polygon style="fill-rule:evenodd;clip-rule:evenodd;fill:#AAB9B6;" points="104.2,144.65 109.4,144.25 121.8,153.75 115.8,155.8 
			100.9,153.75 		"/>
		<polygon style="fill-rule:evenodd;clip-rule:evenodd;fill:#AAB9B6;" points="129.45,195.5 108.3,183.45 131.1,184.75 		"/>
		<polygon style="fill-rule:evenodd;clip-rule:evenodd;fill:#869693;" points="131.1,184.75 141.25,229.05 114.4,230.9 122,186.85 
					"/>
		<polygon style="fill-rule:evenodd;clip-rule:evenodd;fill:#B9C4C2;" points="0,59.55 29.1,69.95 26.65,78.65 		"/>
		<polygon style="fill-rule:evenodd;clip-rule:evenodd;fill:#B9C4C2;" points="24.4,52.7 45.05,77.6 39.25,85.25 		"/>
		<polygon style="fill-rule:evenodd;clip-rule:evenodd;fill:#B9C4C2;" points="31.2,177.6 53.1,170.7 63.65,178.75 35.1,184.95 		
			"/>
		
			<linearGradient id="SVGID_1_" gradientUnits="userSpaceOnUse" x1="231.6475" y1="205.2207" x2="275.1435" y2="205.2207" gradientTransform="matrix(0.984 -0.1782 0.1782 0.984 -1.473129e-004 -9.931624e-005)">
			<stop  offset="0" style="stop-color:#C2CBC9"/>
			<stop  offset="1" style="stop-color:#D4DCDC"/>
		</linearGradient>
		<path style="fill-rule:evenodd;clip-rule:evenodd;fill:url(#SVGID_1_);" d="M315.4,120l-6.601,8.8l-5.149,33.65l8.899,2.95
			l-5.05,10.25c-3.566,7.8-5.816,14.133-6.75,19c-0.9,4.866-1.167,10.6-0.8,17.199c0.166,3.301,0.434,6.101,0.8,8.4l-3.35,1.8
			l-4,0.75l-2.551,2.601l-4.6,2.399l-4.6,1.25l-2.5,2.851l-4.75,0.75l-2.15,2.449l-6.25,3.25c-6.4-2.399-10.45-9.633-12.15-21.699
			c-1.466-10.301-1.199-23.733,0.801-40.301c1.533-12.5,3.933-27.75,7.199-45.75l4.5-23.25l9.551-7.4l18.649,14.9L292.7,77.6
			L315.4,120z"/>
		<g>
			<polygon style="fill-rule:evenodd;clip-rule:evenodd;fill:#AAB9B6;" points="299.85,210.15 289.65,214.1 289.2,226.3 
				287.3,227.25 287.75,214.85 263.5,224.25 263.2,222.4 299.8,208.2 			"/>
			<polygon style="fill-rule:evenodd;clip-rule:evenodd;fill:#AAB9B6;" points="267.7,169.7 268.35,167.55 304.4,157.7 304.1,159.7 
				292.1,162.9 290.65,191 303.85,184.3 302.9,186.85 291.1,192.8 261.5,198.8 261.6,196.8 288.75,191.4 290.2,163.4 			"/>
			<polygon style="fill-rule:evenodd;clip-rule:evenodd;fill:#AAB9B6;" points="302.1,95.2 303,96.85 293.8,99.75 293.7,97.85 			
				"/>
			<polygon style="fill-rule:evenodd;clip-rule:evenodd;fill:#AAB9B6;" points="293.3,137 293.35,136.95 290.6,111.7 292.65,113.35 
				295.15,136.6 307.95,134.2 307.7,136.15 293.45,138.85 270.65,139.75 271.3,137.9 			"/>
			<polygon style="fill-rule:evenodd;clip-rule:evenodd;fill:#AAB9B6;" points="280.8,103.85 266.85,108.25 266.35,107.3 
				268.25,105.85 279.05,102.45 			"/>
		</g>
		<polygon style="fill-rule:evenodd;clip-rule:evenodd;fill:#869693;" points="115.15,62.5 106.9,109.45 97.15,113.4 107.3,62.45 		
			"/>
		<polygon style="fill-rule:evenodd;clip-rule:evenodd;fill:#889493;" points="237.45,131.6 248.6,140.9 254.5,227.15 227.8,234.95 
			217.6,230.3 219.15,218.5 232.15,224.05 228.15,206.7 231.05,196.35 243.95,192.4 233.1,172.25 228.95,166.55 232.45,160.15 
			242.6,159.75 230.6,131.8 		"/>
		<polygon style="fill-rule:evenodd;clip-rule:evenodd;fill:#B9C4C2;" points="272,132.3 276.1,124.9 297,124.15 		"/>
		<polygon style="fill-rule:evenodd;clip-rule:evenodd;fill:#E0E4E3;" points="265.45,143.2 306,146.5 275.15,149.3 		"/>
		
			<linearGradient id="SVGID_2_" gradientUnits="userSpaceOnUse" x1="-282.2974" y1="-122.729" x2="-29.0961" y2="-122.729" gradientTransform="matrix(-0.9999 0.0144 -0.0144 -0.9999 -4.151054e-004 9.379722e-005)">
			<stop  offset="0" style="stop-color:#AAB9B6"/>
			<stop  offset="1" style="stop-color:#919E9C"/>
		</linearGradient>
		<path style="fill-rule:evenodd;clip-rule:evenodd;fill:url(#SVGID_2_);" d="M230.8,131.8l11.15,7.75l24.399-32.2l9.75,17.55
			l-6.8,18.55l5.851,5.85l-6.851,18.4c-4.566,13.833-6.85,24.6-6.85,32.3c0,7.733,0.767,16.45,2.3,26.15
			c0.733,4.833,1.483,8.899,2.25,12.199c-1.267,0.667-2.767,0.934-4.5,0.801c-0.8-0.034-2.384,0.183-4.75,0.649l-3.35,0.75
			c-2.067-0.1-4.034-0.399-5.9-0.899c-0.333-0.067-0.967,0-1.9,0.199c-0.933,0.233-1.583,0.301-1.949,0.2
			c-0.367-0.1-1.95-0.717-4.75-1.85c-1.867-0.733-3.534-1.117-5-1.15c-0.967,0-2.483,0.134-4.551,0.4
			c-2.033,0.3-3.6,0.434-4.699,0.399L111.5,236.4c-0.3,0-0.933-0.184-1.9-0.551c-0.967-0.366-1.583-0.55-1.85-0.55
			c-0.7,0-1.533,0.167-2.5,0.5c-1,0.367-1.833,0.533-2.5,0.5c-0.5,0-1.283-0.184-2.35-0.55l-1.5-0.6c-2.833,1.066-4.8,1.566-5.9,1.5
			c-0.6-0.034-1.333-0.2-2.2-0.5c-0.833-0.301-1.517-0.467-2.05-0.5c-0.367,0-0.95,0.1-1.75,0.3c-0.733,0.166-1.267,0.233-1.6,0.2
			c-0.733-0.034-1.467-0.184-2.2-0.45c-0.7-0.233-1.434-0.367-2.2-0.4c-0.567,0-1.55,0.117-2.95,0.351
			c-1.433,0.199-2.417,0.3-2.95,0.3l-9-0.15c-1.7-0.033-3.883-0.267-6.55-0.7L56,234.4c-3.1,0.8-5.217,1.133-6.35,1
			c-0.8-0.067-1.983-0.301-3.55-0.7c-1.467-0.334-2.533-0.517-3.2-0.55c-2.467-0.034-4.983,0.166-7.55,0.6
			c-2.067,0.4-3.184,0.583-3.35,0.55c-1.8-0.1-3.033-0.666-3.7-1.7l-0.45-1.55l3.35-54.45l15.6-1l1.95-41.949l-16.55-2.9L21.45,92.7
			L0,59.55l24.4,14.6V52.7L39,81.95l8.8-26.3l1.95,49.75L63.4,85.85l-2.9,26.35l25.35,37.1l-15.6-73.2l11.7-0.95l-28.3-40L90.75,41
			L88.8,0l18.5,36.1l26.3,1.95l-26.3,24.4l-4.85,44.9l15.6-10.75l-13.65,47.8l11.4,11.399l-7.5,27.65l13.7,3.399l-2.5,37.2l21.75,5
			l20.7,1.2l16.6-4.85l15.601,3.899l12.25-8.95l21.75,11.15l0.199-24.6l7.851-12l-7.25-27.95l11.399-6.8L230.8,131.8z"/>
		<polygon style="fill-rule:evenodd;clip-rule:evenodd;fill:#E0E4E3;" points="312.55,165.4 268.45,178.15 303.65,162.45 		"/>
		<polygon style="fill-rule:evenodd;clip-rule:evenodd;fill:#869693;" points="104.4,144.4 118.05,96.6 109.4,144.4 		"/>
		<polygon style="fill-rule:evenodd;clip-rule:evenodd;fill:#E0E4E3;" points="272.45,118.2 297,124.15 276.1,124.9 		"/>
		<polygon style="fill-rule:evenodd;clip-rule:evenodd;fill:#B9C4C2;" points="315.5,120.25 308.8,128.5 293.3,131.15 		"/>
		<g>
			<polygon style="fill-rule:evenodd;clip-rule:evenodd;fill:#7D8C8A;" points="230.2,166.2 233.1,164.45 247.8,165.4 248.65,139.4 
				242.15,139.3 243.55,137.45 271.3,137.95 270.6,139.75 250.55,139.4 249.65,165.6 268.25,167.65 267.65,169.65 243.35,166.75 			
				"/>
			<path style="fill-rule:evenodd;clip-rule:evenodd;fill:#7D8C8A;" d="M106.9,196.5l-68-1.1l-0.25,25l40.3-0.25l27.95,0.3V196.5z
				 M37.05,195.4l-6.95-0.051l0.15-1.85l40.95,0.4l-0.6-28.5l-23.2-0.7l0.05-1.851l36.8,1.101l22.65-2.3l0.35-14.351l1.85,1.8
				l-0.35,12.4l5.65-0.6l-0.5,1.949l-29.55,3l-11.9-0.399l0.6,28.45l48.4,0.949l-0.1,1.9l-12.6-0.2v23.95l11,0.1l-0.15,1.851
				l-47.5-0.4l-0.4,13.75h-1.85l0.4-13.75l-41.8,0.25l0.1-1.85l8.2-0.05L37.05,195.4z"/>
			<polygon style="fill-rule:evenodd;clip-rule:evenodd;fill:#7D8C8A;" points="247.15,196.6 261.6,196.85 261.5,198.75 
				247.2,198.45 247.45,223.35 263.2,222.4 263.4,224.25 243.8,225.4 228.2,225 228.2,223.15 243.75,223.55 245.6,223.45 
				245.3,198.4 234,198.25 235.2,196.4 247.15,196.55 			"/>
			<polygon style="fill-rule:evenodd;clip-rule:evenodd;fill:#7D8C8A;" points="70.7,127.1 71.85,128.85 35.65,132.35 32.2,131.75 
				31.95,130.8 32.2,130.8 			"/>
			<polygon style="fill-rule:evenodd;clip-rule:evenodd;fill:#7D8C8A;" points="61.75,100.7 61.55,102.6 50.75,103.95 52.2,101.9 
							"/>
			<polygon style="fill-rule:evenodd;clip-rule:evenodd;fill:#7D8C8A;" points="107.8,126.3 103.8,125.8 81.3,127.95 80.9,126.15 
				103.8,123.95 103.9,123.95 110.05,124.65 107.65,133.05 			"/>
			<polygon style="fill-rule:evenodd;clip-rule:evenodd;fill:#7D8C8A;" points="238.85,137.4 241.6,139.25 233.3,139.15 
				232.65,137.25 			"/>
			<polygon style="fill-rule:evenodd;clip-rule:evenodd;fill:#7D8C8A;" points="53.65,35.15 71.7,38 54.5,36.3 			"/>
			<polygon style="fill-rule:evenodd;clip-rule:evenodd;fill:#7D8C8A;" points="211.05,222.75 214.85,224.7 200.95,224.35 
				203.4,222.55 			"/>
			<polygon style="fill-rule:evenodd;clip-rule:evenodd;fill:#7D8C8A;" points="266.75,108.05 266.8,108.2 265.9,107.9 
				266.35,107.35 			"/>
			<polygon style="fill-rule:evenodd;clip-rule:evenodd;fill:#7D8C8A;" points="106.8,67.4 106.55,69.3 100.1,69.85 100.65,95.75 
				103.35,95.4 103.75,95.4 103.55,97.25 103.5,97.25 75.5,100.8 75.1,99 98.8,96 98.2,69.9 77.8,69.3 76.5,67.4 77.05,67.4 
				74.75,38.45 76.6,38.75 78.9,67.5 98.85,68.1 			"/>
			<polygon style="fill-rule:evenodd;clip-rule:evenodd;fill:#7D8C8A;" points="31.2,67.9 24.4,67.7 24.4,65.85 31.05,66.05 
				33.2,70.3 34.55,104.15 49.65,102.25 49.7,104.1 25.45,107.2 24.95,105.35 32.7,104.4 			"/>
			<polygon style="fill-rule:evenodd;clip-rule:evenodd;fill:#7D8C8A;" points="98.85,19.65 100.6,23.05 100.1,38.85 106.85,39.5 
				118.7,36.95 125.2,37.45 106.95,41.4 106.8,41.4 90.65,39.8 90.6,37.95 98.25,38.7 			"/>
			<polygon style="fill-rule:evenodd;clip-rule:evenodd;fill:#7D8C8A;" points="48.25,66.55 48.3,68.4 43.6,68.25 44.2,66.45 			"/>
			<polygon style="fill-rule:evenodd;clip-rule:evenodd;fill:#7D8C8A;" points="9.75,65.4 13.05,67.35 4.9,67.1 3.65,65.2 			"/>
		</g>
		<g>
			<path style="fill-rule:evenodd;clip-rule:evenodd;fill:#988C60;" d="M74.25,94.9c1.133,0.533,1.95,1.367,2.45,2.5
				c0.233,0.6,0.367,1.133,0.4,1.6l3.35-2.55c2.833-1.467,5.8-1.55,8.9-0.25c3.1,1.3,4.683,3.55,4.75,6.75
				c0.033,1.633-0.25,3.117-0.85,4.45l2.75,0.95c1.967,1,3.367,2.433,4.2,4.3c0.767,1.667,1.1,4.35,1,8.05
				c-0.034,1.833-0.15,3.5-0.35,5l3.05,1.05c2.167,1.066,3.617,2.467,4.35,4.2l-2.75,9.5c-1.5,1.666-3.1,3-4.8,4l1.1,2.899
				c0.333,2.334-0.4,4.434-2.2,6.301c-1.7,1.767-4.067,2.517-7.1,2.25l-4.05-0.9l-3.1,2.1c-2.567,1.4-5,2.101-7.3,2.101
				c-2.333,0-4.383-1.45-6.15-4.351l-1.95-4.35c-0.967,0.1-2.034,0.066-3.2-0.1c-2.367-0.334-4.033-1.117-5-2.351
				c-1.7-2.133-2.483-5.033-2.35-8.7l0.65-4.8c-1.367-0.3-2.716-0.899-4.05-1.8c-2.633-1.733-3.817-4.033-3.55-6.9
				c0.267-2.833,1.25-4.917,2.95-6.25l2.45-1.2c-0.9-0.566-1.667-1.417-2.3-2.55c-1.3-2.267-1.3-4.833,0-7.7
				c1.267-2.833,3.25-4.517,5.95-5.05l-1,9.1l1.15,1.75c-2.533,8.5-2.017,16.666,1.55,24.5c4.133,9.033,11.25,13.783,21.35,14.25
				c6,0.3,10.35-2.101,13.05-7.2c2.467-4.566,3.15-10.267,2.05-17.1c-1.1-6.833-3.667-12.717-7.7-17.65c-4.5-5.5-9.9-8.467-16.2-8.9
				L74.25,94.9z"/>
			<path style="fill-rule:evenodd;clip-rule:evenodd;fill:#739DA2;" d="M63.2,138.45c-3.567-7.834-4.083-16-1.55-24.5L66.5,121
				c-1.267,6.333-0.667,11.884,1.8,16.65c2.9,5.6,7.7,8.133,14.4,7.6l0.35-0.05l2.8,4.1l-0.9-4.35c4.733-0.867,7.9-3.101,9.5-6.7
				c1.433-3.2,1.483-7,0.15-11.4c-1.267-4.233-3.467-7.983-6.6-11.25c-3.3-3.467-6.85-5.533-10.65-6.2l-1.6-7.55
				c6.3,0.433,11.7,3.4,16.2,8.9c4.033,4.933,6.6,10.817,7.7,17.65c1.1,6.833,0.417,12.533-2.05,17.1c-2.7,5.1-7.05,7.5-13.05,7.2
				C74.45,152.233,67.333,147.483,63.2,138.45z"/>
			<path style="fill-rule:evenodd;clip-rule:evenodd;fill:#566160;" d="M68.3,137.65c-2.466-4.767-3.066-10.317-1.8-16.65
				l16.55,24.2l-0.35,0.05C76,145.783,71.2,143.25,68.3,137.65z"/>
			<path style="fill-rule:evenodd;clip-rule:evenodd;fill:#566160;" d="M78.4,114.45l-1.05-5.05c3.8,0.667,7.35,2.733,10.65,6.2
				c3.133,3.267,5.333,7.016,6.6,11.25c1.333,4.4,1.283,8.2-0.15,11.4c-1.6,3.6-4.767,5.833-9.5,6.7L78.4,114.5
				c0.633,0.433,1.517,1.2,2.65,2.3c1.633,1.567,2.934,3.117,3.9,4.65c1.033,1.633,1.8,3.233,2.3,4.8
				c0.233,0.8,0.367,1.417,0.4,1.85l2.7-3.149c-0.9-1.533-2.067-3.117-3.5-4.75C83.983,116.9,81.167,114.983,78.4,114.45z"/>
			<path style="fill-rule:evenodd;clip-rule:evenodd;fill:#869693;" d="M78.4,114.5v-0.05c2.767,0.533,5.583,2.45,8.45,5.75
				c1.433,1.633,2.6,3.217,3.5,4.75l-2.7,3.149c-0.033-0.433-0.167-1.05-0.4-1.85c-0.5-1.566-1.267-3.167-2.3-4.8
				c-0.967-1.534-2.267-3.083-3.9-4.65C79.917,115.7,79.033,114.933,78.4,114.5z"/>
		</g>
	</g>
	<g>
		<polygon style="fill-rule:evenodd;clip-rule:evenodd;fill:#7D665C;" points="233.85,238.15 229.75,229.45 235.45,237.7 
			231.35,225.55 237.5,238.6 236.6,230.15 238.9,237.45 241.15,230.6 240,238.35 250.1,228.75 241.4,238.8 249.4,235.5 
			242.1,239.75 240,239.75 238.2,240.3 236,239.05 234.65,239.5 		"/>
		
			<use xlink:href="#FlashAICB_x2F_Isolation_Mode_x2F__x3C_Path_x3E__x5F_5"  width="6.55" height="6.85" y="-6.85" transform="matrix(1 0 0 -1 240.3496 232.25)" style="overflow:visible;opacity:0.5;enable-background:new    ;"/>
		
			<use xlink:href="#FlashAICB_x2F_Isolation_Mode_x2F__x3C_Path_x3E__x5F_4"  width="5.95" height="3.2" y="-3.2" transform="matrix(1 0 0 -1 241.7998 236.3496)" style="overflow:visible;opacity:0.5;enable-background:new    ;"/>
		
			<use xlink:href="#FlashAICB_x2F_Isolation_Mode_x2F__x3C_Path_x3E__x5F_3"  width="1.4" height="5.75" y="-5.75" transform="matrix(1 0 0 -1 239.0996 233.2998)" style="overflow:visible;opacity:0.5;enable-background:new    ;"/>
		
			<use xlink:href="#FlashAICB_x2F_Isolation_Mode_x2F__x3C_Path_x3E__x5F_2"  width="1.6" height="5.75" y="-5.75" transform="matrix(1 0 0 -1 237.0996 232.2002)" style="overflow:visible;opacity:0.5;enable-background:new    ;"/>
		
			<use xlink:href="#FlashAICB_x2F_Isolation_Mode_x2F__x3C_Path_x3E__x5F_1"  width="4.6" height="10.1" y="-10.1" transform="matrix(1 0 0 -1 232.75 228.7002)" style="overflow:visible;opacity:0.5;enable-background:new    ;"/>
		
			<use xlink:href="#FlashAICB_x2F_Isolation_Mode_x2F__x3C_Path_x3E_"  width="4.4" height="7" y="-7" transform="matrix(1 0 0 -1 231 231.5996)" style="overflow:visible;opacity:0.5;enable-background:new    ;"/>
	</g>
	<g>
		<polygon style="fill-rule:evenodd;clip-rule:evenodd;fill:#7D665C;" points="44.15,236.4 40.05,237.5 36.85,235.1 33.7,235.85 
			35.15,233.25 25.45,230.2 34.4,230.35 29.4,224.1 35.25,228.55 23,208.6 37.1,227.15 30.45,200.5 39.85,227.4 40.4,211.95 
			42.85,230.3 46.2,210.45 45.65,226.1 50.5,208.55 46.3,230.5 50.5,219.45 50.6,228.35 56.85,209.95 52.1,231.2 58.2,222 
			53.6,234.05 58.5,231.1 52.65,237.1 50.55,235.8 47.4,237.1 		"/>
		
			<use xlink:href="#FlashAICB_x2F_Isolation_Mode_x2F__x3C_Path_x3E__x5F_10"  width="5.4" height="4.6" y="-4.6" transform="matrix(1 0 0 -1 52.1499 232)" style="overflow:visible;opacity:0.5;enable-background:new    ;"/>
		
			<use xlink:href="#FlashAICB_x2F_Isolation_Mode_x2F__x3C_Path_x3E__x5F_9"  width="5" height="9.8" y="-9.8" transform="matrix(1 0 0 -1 52 224.5)" style="overflow:visible;opacity:0.5;enable-background:new    ;"/>
		
			<use xlink:href="#FlashAICB_x2F_Isolation_Mode_x2F__x3C_Path_x3E__x5F_8"  width="4.75" height="16.65" y="-16.65" transform="matrix(1 0 0 -1 50.7002 215.0498)" style="overflow:visible;opacity:0.5;enable-background:new    ;"/>
		
			<use xlink:href="#FlashAICB_x2F_Isolation_Mode_x2F__x3C_Path_x3E__x5F_7"  width="2.8" height="11.05" y="-11.05" transform="matrix(1 0 0 -1 47.5498 220.7002)" style="overflow:visible;opacity:0.5;enable-background:new    ;"/>
		
			<use xlink:href="#FlashAICB_x2F_Isolation_Mode_x2F__x3C_Path_x3E__x5F_6"  width="4.85" height="21.2" y="-21.2" transform="matrix(1 0 0 -1 44.8501 212.0498)" style="overflow:visible;opacity:0.5;enable-background:new    ;"/>
		
			<use xlink:href="#FlashAICB_x2F_Isolation_Mode_x2F__x3C_Path_x3E__x5F_5_x5F_0"  width="1.1" height="14.1" y="-14.1" transform="matrix(1 0 0 -1 44.6499 215.7002)" style="overflow:visible;opacity:0.5;enable-background:new    ;"/>
		
			<use xlink:href="#FlashAICB_x2F_Isolation_Mode_x2F__x3C_Path_x3E__x5F_4_x5F_0"  width="2.6" height="18.75" y="-18.75" transform="matrix(1 0 0 -1 40.6001 215.4004)" style="overflow:visible;opacity:0.5;enable-background:new    ;"/>
		
			<use xlink:href="#FlashAICB_x2F_Isolation_Mode_x2F__x3C_Path_x3E__x5F_3_x5F_0"  width="7.15" height="22.4" y="-22.4" transform="matrix(1 0 0 -1 32.6001 207.4502)" style="overflow:visible;opacity:0.5;enable-background:new    ;"/>
		
			<use xlink:href="#FlashAICB_x2F_Isolation_Mode_x2F__x3C_Path_x3E__x5F_2_x5F_0"  width="12.35" height="18.75" y="-18.75" transform="matrix(1 0 0 -1 25.6499 212.4502)" style="overflow:visible;opacity:0.5;enable-background:new    ;"/>
		
			<use xlink:href="#FlashAICB_x2F_Isolation_Mode_x2F__x3C_Path_x3E__x5F_1_x5F_0"  width="6.05" height="6.45" y="-6.45" transform="matrix(1 0 0 -1 31.25 225.7998)" style="overflow:visible;opacity:0.5;enable-background:new    ;"/>
		
			<use xlink:href="#FlashAICB_x2F_Isolation_Mode_x2F__x3C_Path_x3E__x5F_0"  width="7.1" height="0.65" y="-0.65" transform="matrix(1 0 0 -1 27.3999 230.4502)" style="overflow:visible;opacity:0.5;enable-background:new    ;"/>
	</g>
	<g>
		<polygon style="fill-rule:evenodd;clip-rule:evenodd;fill:#7D665C;" points="294.75,229.4 292.8,229.45 291.35,230.55 
			287.65,230.25 285.8,231.6 282.95,231.05 280.65,232.4 271.25,228.15 279.05,229.4 274.2,224.85 281,228.85 273.35,219.05 
			281.05,224.4 275.05,210.2 285.2,225.8 279.05,207.95 287.1,225.95 287.9,216.7 288.85,226.15 296.45,199.25 291,226.05 
			296.35,210.65 293.8,227.05 299.75,217.2 		"/>
		
			<use xlink:href="#FlashAICB_x2F_Isolation_Mode_x2F__x3C_Path_x3E__x5F_8_x5F_0"  width="5.15" height="8.55" y="-8.55" transform="matrix(1 0 0 -1 293.5 219.4004)" style="overflow:visible;opacity:0.5;enable-background:new    ;"/>
		
			<use xlink:href="#FlashAICB_x2F_Isolation_Mode_x2F__x3C_Path_x3E__x5F_7_x5F_0"  width="3" height="14.05" y="-14.05" transform="matrix(1 0 0 -1 292.8496 212.7002)" style="overflow:visible;opacity:0.5;enable-background:new    ;"/>
		
			<use xlink:href="#FlashAICB_x2F_Isolation_Mode_x2F__x3C_Path_x3E__x5F_6_x5F_0"  width="5.85" height="23.75" y="-23.75" transform="matrix(1 0 0 -1 289.7002 203.0996)" style="overflow:visible;opacity:0.5;enable-background:new    ;"/>
		
			<use xlink:href="#FlashAICB_x2F_Isolation_Mode_x2F__x3C_Path_x3E__x5F_5_x5F_1"  width="0.95" height="8.2" y="-8.2" transform="matrix(1 0 0 -1 287.8496 218.9004)" style="overflow:visible;opacity:0.5;enable-background:new    ;"/>
		
			<use xlink:href="#FlashAICB_x2F_Isolation_Mode_x2F__x3C_Path_x3E__x5F_4_x5F_1"  width="6" height="14.05" y="-14.05" transform="matrix(1 0 0 -1 281.0996 212.7998)" style="overflow:visible;opacity:0.5;enable-background:new    ;"/>
		
			<use xlink:href="#FlashAICB_x2F_Isolation_Mode_x2F__x3C_Path_x3E__x5F_3_x5F_1"  width="8.35" height="13.05" y="-13.05" transform="matrix(1 0 0 -1 276.75 213.0996)" style="overflow:visible;opacity:0.5;enable-background:new    ;"/>
		
			<use xlink:href="#FlashAICB_x2F_Isolation_Mode_x2F__x3C_Path_x3E__x5F_2_x5F_1"  width="7.5" height="6.55" y="-6.55" transform="matrix(1 0 0 -1 274.25 219.7998)" style="overflow:visible;opacity:0.5;enable-background:new    ;"/>
		
			<use xlink:href="#FlashAICB_x2F_Isolation_Mode_x2F__x3C_Path_x3E__x5F_1_x5F_1"  width="5.65" height="3.75" y="-3.75" transform="matrix(1 0 0 -1 275.4502 225.7002)" style="overflow:visible;opacity:0.5;enable-background:new    ;"/>
		
			<use xlink:href="#FlashAICB_x2F_Isolation_Mode_x2F__x3C_Path_x3E__x5F_11"  width="7.2" height="1.55" y="-1.55" transform="matrix(1 0 0 -1 272.1504 228.4502)" style="overflow:visible;opacity:0.5;enable-background:new    ;"/>
	</g>
	<g>
		<path style="fill-rule:evenodd;clip-rule:evenodd;fill:#7D665C;" d="M98.85,232.75l-4.9,3.9l-1,0.55l-1.85-0.55l-2.15,0.55
			l-1.5-0.351l-2.3,0.351l-1.8-0.101c0.6-1.3,0.667-2.399,0.2-3.3c-0.3-0.566-1.033-1.434-2.2-2.6l-1.7-1.55l2.15,1.55
			c1.5,1.133,2.383,1.883,2.65,2.25c0.466,0.6,1.083,1.133,1.85,1.6l-1.25-6.649l2.4,6.75l0.35-6.051l0.65,5.15l1.85-9.05
			l-0.45,8.45l2.3-6.4l-1.05,7.35c1.233-2.433,2.3-4.233,3.2-5.399c0.567-0.7,1.4-1.417,2.5-2.15l1.5-0.899l-1.55,1.3
			c-1.167,1.066-1.983,2-2.45,2.8c-0.767,1.3-1.183,2.517-1.25,3.65l5-3.101l-4.55,4L98.85,232.75z"/>
		
			<use xlink:href="#FlashAICB_x2F_Isolation_Mode_x2F__x3C_Path_x3E__x5F_7_x5F_1"  width="5.6" height="4.85" y="-4.85" transform="matrix(1 0 0 -1 81.2002 230.9004)" style="overflow:visible;opacity:0.5;enable-background:new    ;"/>
		
			<use xlink:href="#FlashAICB_x2F_Isolation_Mode_x2F__x3C_Path_x3E__x5F_6_x5F_1"  width="1.9" height="5.45" y="-5.45" transform="matrix(1 0 0 -1 85.5498 230)" style="overflow:visible;opacity:0.5;enable-background:new    ;"/>
		
			<use xlink:href="#FlashAICB_x2F_Isolation_Mode_x2F__x3C_Path_x3E__x5F_5_x5F_2"  width="0.75" height="6.05" y="-6.05" transform="matrix(1 0 0 -1 87.8501 230.25)" style="overflow:visible;opacity:0.5;enable-background:new    ;"/>
		
			<use xlink:href="#FlashAICB_x2F_Isolation_Mode_x2F__x3C_Path_x3E__x5F_4_x5F_2"  width="1" height="7.95" y="-7.95" transform="matrix(1 0 0 -1 89.1499 226.5996)" style="overflow:visible;opacity:0.5;enable-background:new    ;"/>
		
			<use xlink:href="#FlashAICB_x2F_Isolation_Mode_x2F__x3C_Path_x3E__x5F_3_x5F_2"  width="1.5" height="7.9" y="-7.9" transform="matrix(1 0 0 -1 90.3501 228.3496)" style="overflow:visible;opacity:0.5;enable-background:new    ;"/>
		
			<use xlink:href="#FlashAICB_x2F_Isolation_Mode_x2F__x3C_Path_x3E__x5F_2_x5F_2"  width="4.55" height="7.3" y="-7.3" transform="matrix(1 0 0 -1 92.4502 227.0498)" style="overflow:visible;opacity:0.5;enable-background:new    ;"/>
		
			<use xlink:href="#FlashAICB_x2F_Isolation_Mode_x2F__x3C_Path_x3E__x5F_1_x5F_2"  width="-32766" height="-32766" x="16383" y="16383" transform="matrix(1 0 0 -1 93.25 231.4502)" style="overflow:visible;opacity:0.5;enable-background:new    ;"/>
		
			<use xlink:href="#FlashAICB_x2F_Isolation_Mode_x2F__x3C_Path_x3E__x5F_12"  width="5.8" height="2.7" y="-2.7" transform="matrix(1 0 0 -1 92.3999 233.0996)" style="overflow:visible;opacity:0.5;enable-background:new    ;"/>
	</g>
</g>
</svg>
