<?xml version="1.0" encoding="iso-8859-1"?>
<!-- Generator: Adobe Illustrator 15.1.0, SVG Export Plug-In . SVG Version: 6.00 Build 0)  -->
<!DOCTYPE svg PUBLIC "-//W3C//DTD SVG 1.1//EN" "http://www.w3.org/Graphics/SVG/1.1/DTD/svg11.dtd">
<svg version="1.1" id="Isolation_Mode" xmlns="http://www.w3.org/2000/svg" xmlns:xlink="http://www.w3.org/1999/xlink" x="0px"
	 y="0px" width="357.6px" height="473.35px" viewBox="0 0 357.6 473.35" style="enable-background:new 0 0 357.6 473.35;"
	 xml:space="preserve">
<symbol  id="FlashAICB_x2F_Isolation_Mode_x2F__x3C_Path_x3E__x5F_181" viewBox="0.016 -66.089 213.242 66.102">
	<g id="Layer_1_2_">
		<path style="fill-rule:evenodd;clip-rule:evenodd;" d="M178.35-4.6c8.333-4.367,16.566-11.833,24.7-22.4
			c8.534-11.033,11.717-19.067,9.55-24.1c-2.133-5-12.267-9.033-30.4-12.1c-17.2-2.9-32.4-3.617-45.6-2.15
			c-12.833,1.434-31.333,4.017-55.5,7.75c-24.833,3.833-40.5,6.583-47,8.25c-9.9,2.467-17.45,5.317-22.65,8.55
			C4.75-36.7,0.967-31.55,0.1-25.35c-0.9,6.434,5.417,12.067,18.95,16.9C30.917-4.183,43.1-1.983,55.6-1.85
			c7.167,0.067,28.35,0.667,63.55,1.8C152.05,0.35,171.783-1.167,178.35-4.6z"/>
	</g>
</symbol>
<g>
	
		<use xlink:href="#FlashAICB_x2F_Isolation_Mode_x2F__x3C_Path_x3E__x5F_181"  width="213.242" height="66.102" x="0.016" y="-66.089" transform="matrix(1 0 0 -1 8.7002 407.25)" style="overflow:visible;opacity:0.4102;"/>
	<g>
		<path style="fill-rule:evenodd;clip-rule:evenodd;fill:#A09F8A;" d="M170.1,38.05c-0.8,0.6-2.3,2.083-4.5,4.45l-3.05,3.4
			l-12.9,0.65l-10.2,8.3l-9.15-1.35l-26.55,3.3L89.5,43.6l16.6,3.35l13.8-15.5l18.4-9.2l12.75,9.15l10.25-3.2L170.1,38.05z"/>
		<polygon style="fill-rule:evenodd;clip-rule:evenodd;fill:#908F7C;" points="163.05,46.85 150.8,46.85 139.8,56.1 131.3,53.85 
			103.3,58.35 89.5,43.6 107.05,52.6 123.8,46.85 123.05,50.1 131.55,48.85 136.05,43.35 138.3,50.35 149.05,41.35 160.3,41.6 
			168.55,35.6 169.55,39.35 		"/>
		<polygon style="fill-rule:evenodd;clip-rule:evenodd;fill:#747466;" points="163.15,47.35 151.4,47 139.8,56.75 130.55,54.5 
			103.15,59 89.5,43.6 104.3,55.85 131.3,51.5 139.55,53.75 150.4,44.1 161.3,45.1 168.55,38.25 168.9,39.75 		"/>
		<g>
			<g>
				<path style="fill-rule:evenodd;clip-rule:evenodd;fill:#908F7C;" d="M155.4,34.05l-2.6-1.45l2.85,1
					c0.3,0.1,1.283,0.65,2.95,1.65C157.433,34.883,156.367,34.483,155.4,34.05z"/>
			</g>
		</g>
		<g>
			<g>
				<path style="fill-rule:evenodd;clip-rule:evenodd;fill:#908F7C;" d="M148,38.75c-0.5,0.067-1.567,0.267-3.2,0.6
					c-1.667,0.3-2.5,0.467-2.5,0.5c-0.033-0.033,0.767-0.383,2.4-1.05c1.7-0.667,2.767-1.017,3.2-1.05c0.6-0.2,2.817-0.333,6.65-0.4
					L148,38.75z"/>
			</g>
		</g>
		<g>
			<g>
				<path style="fill-rule:evenodd;clip-rule:evenodd;fill:#908F7C;" d="M138.25,31.3c-0.5-0.167-1.567-0.833-3.2-2
					c-1.566-1.1-2.316-1.667-2.25-1.7c-0.033,0.066,0.85,0.483,2.65,1.25c1.767,0.8,2.883,1.267,3.35,1.4
					c0.567,0.367,2.833,1.217,6.8,2.55C142.9,32.7,140.45,32.2,138.25,31.3z"/>
			</g>
		</g>
		<g>
			<g>
				<path style="fill-rule:evenodd;clip-rule:evenodd;fill:#908F7C;" d="M132.9,34.5c-0.433-0.133-1.367-0.517-2.8-1.15
					c-1.4-0.6-2.083-0.934-2.05-1c-0.033,0.066,1.684,0.483,5.15,1.25c0.4,0.133,1.45,0.467,3.15,1
					c1.45,0.464,2.266,0.714,2.45,0.75C136.655,35.28,134.688,34.997,132.9,34.5z"/>
			</g>
		</g>
		<g>
			<g>
				<path style="fill-rule:evenodd;clip-rule:evenodd;fill:#908F7C;" d="M131.55,44.25c-3.7,2.367-5.533,3.567-5.5,3.6
					c-0.033,0,1.6-1.517,4.9-4.55c0.533-0.433,2.583-1.833,6.15-4.2C135.233,41.1,133.383,42.817,131.55,44.25z"/>
			</g>
		</g>
		<g>
			<g>
				<path style="fill-rule:evenodd;clip-rule:evenodd;fill:#908F7C;" d="M124.4,35.55c0.7,0.034,3.1,0.534,7.2,1.5
					c-2.667-0.033-5.133-0.167-7.4-0.4c-4.267-0.733-6.4-1.083-6.4-1.05c-0.033-0.033,0.934-0.067,2.9-0.1
					C122.733,35.433,123.967,35.45,124.4,35.55z"/>
			</g>
		</g>
		<g>
			<g>
				<path style="fill-rule:evenodd;clip-rule:evenodd;fill:#908F7C;" d="M123,42.1c2.233-0.9,3.367-1.333,3.4-1.3
					c-2.467,1.7-4.833,3.117-7.1,4.25l-6.75,2.55c-0.033,0,2.067-1.25,6.3-3.75C119.317,43.617,120.7,43.033,123,42.1z"/>
			</g>
		</g>
		<g>
			<g>
				<path style="fill-rule:evenodd;clip-rule:evenodd;fill:#908F7C;" d="M116.15,41.4c-0.333,0.2-1.15,0.434-2.45,0.7
					c-1.267,0.3-1.9,0.383-1.9,0.25c0.034,0.1,0.65-0.117,1.85-0.65c1-0.434,1.75-0.767,2.25-1c0.3-0.1,1.133-0.45,2.5-1.05
					c1.104-0.485,1.754-0.785,1.95-0.9C118.996,39.925,117.596,40.809,116.15,41.4z"/>
			</g>
		</g>
		<g>
			<g>
				<path style="fill-rule:evenodd;clip-rule:evenodd;fill:#908F7C;" d="M103,49.25c-1-0.367-1.483-0.583-1.45-0.65
					c0,0.066,0.534,0.167,1.6,0.3c1.067,0.167,1.75,0.25,2.05,0.25c0.367,0.133,1.716,0.233,4.05,0.3
					c-1.467,0.4-2.867,0.517-4.2,0.35C104.717,49.8,104.033,49.617,103,49.25z"/>
			</g>
		</g>
	</g>
	<path style="fill-rule:evenodd;clip-rule:evenodd;fill:#D88F4D;" d="M130.9,96.1c8.9-0.5,15.55-0.317,19.95,0.55
		c3.367,0.633,6.9,4.833,10.6,12.6c3.9,8.167,5.3,15.4,4.2,21.7c-0.967,5.566-3.8,13.367-8.5,23.4c-2.333,5.033-4.566,9.5-6.7,13.4
		l6,35.55c4.6,26.4,8.483,46.3,11.65,59.7c1,4.233,2.983,8.283,5.95,12.15c2.6,3.333,6.101,6.716,10.5,10.149
		c-5.366,2.467-8.933,4.184-10.7,5.15c-5.767,3.066-8.833,5.566-9.2,7.5c-0.4,2.1,0.05,4.717,1.35,7.85
		c0.633,1.566,1.317,2.934,2.05,4.101l-4.1,6.05c-2.4,4.467-2.667,7.767-0.8,9.899c1.867,2.134,5.217,4.434,10.05,6.9
		c2.433,1.233,4.667,2.25,6.7,3.05l-0.351,7.95c0.2,5.6,1.417,9.083,3.65,10.45c2.267,1.399,5.983,2.5,11.149,3.3
		c2.601,0.4,4.967,0.65,7.101,0.75l0.5,2.6c0.5,2.067,1.116,3.983,1.85,5.75c2.334,5.634,5.417,8.584,9.25,8.851
		c3.8,0.267,8.233-0.351,13.3-1.851c2.534-0.767,4.684-1.55,6.45-2.35l2.25,2.1c1.967,1.601,4.084,2.801,6.351,3.601
		c2.1,0.733,5.017,1.05,8.75,0.95c2.199-0.101,4.25-0.301,6.149-0.601c0.3,18.367-3.333,35.2-10.899,50.5
		c-7.601,15.4-16.801,24.384-27.601,26.95c-11.866,2.833-26.166,4.684-42.9,5.55c-9.267,0.5-18.367,0.65-27.3,0.45
		c-2.434-0.033-6.55-1-12.35-2.9c-5.8-1.899-9.9-2.883-12.3-2.949c-9.4-0.2-21.233-1.434-35.5-3.7
		c-22.767-3.601-41.733-8.834-56.9-15.7c-15.133-6.866-24.383-18.917-27.75-36.15c-1.133-5.699-1.617-12.116-1.45-19.25
		c0.4-6.933,0.617-11.35,0.65-13.25c0.1-5.199,4.95-14.899,14.55-29.1c8.833-13.1,15.7-21.717,20.6-25.85
		c3.7-3.101,11.567-11.45,23.6-25.051c10.1-11.433,17.717-20.3,22.85-26.6c3.033-3.733,5.25-15.167,6.65-34.3
		c0.9-19.633,1.55-30.833,1.95-33.6c0.333-2.167-1.017-9.483-4.05-21.95c-3-12.433-4.066-21.316-3.2-26.65
		c0.966-6,5.183-14.933,12.65-26.8c3.733-5.967,7.367-11.317,10.9-16.05C112.633,98.267,120.1,96.667,130.9,96.1z"/>
	<path style="fill-rule:evenodd;clip-rule:evenodd;fill:#CA8649;" d="M147.1,215.5c0.467,13.333,1.3,25.95,2.5,37.85
		c3.933,38.167,11,62.25,21.2,72.25c6.034,5.9,11.601,13.867,16.7,23.9c4.967,9.767,8.8,20.066,11.5,30.9
		c2.8,11.233,3.967,21.449,3.5,30.649c-0.467,9.967-2.866,17.65-7.2,23.05c-7.3,9.134-11.05,13.817-11.25,14.051
		c-3.399,4.033-6.417,6.949-9.05,8.75c-5.567,3.833-13.967,5.066-25.2,3.699c-10.2-1.233-25.716-3.517-46.55-6.85l-28.2-4.65
		c7.2-7.666,14.5-17.933,21.9-30.8c14.733-25.767,22.517-51.666,23.35-77.7c1-31.233,1.5-47.916,1.5-50.05
		c0-2.133-0.5-10.45-1.5-24.95c-0.833-12.166-0.233-27.333,1.8-45.5c0.9-7.967,2.133-16.633,3.7-26c0.1-0.5-0.066,1.383-0.5,5.65
		c-0.466,5.667-0.7,10.883-0.7,15.65c0.1,16.033,2.833,24.767,8.2,26.2c5.434,1.467,9.4-5.183,11.9-19.95
		c0.767-4.6,1.35-9.733,1.75-15.4l0.35-7.15L147.1,215.5z"/>
	<path style="fill-rule:evenodd;clip-rule:evenodd;fill:#B97C44;" d="M220.8,376.1l11-7.5l24.5,8.7l1.25,4.2
		c0.667,4.2,0.584,9.733-0.25,16.6c-1.1,9.101-4.866,19.45-11.3,31.051c-7.066,12.767-14.467,21.25-22.2,25.449
		c-6.866,3.767-18.717,6.101-35.55,7c-5.3,0.301-10.75,0.434-16.35,0.4l-6.85-0.15l-23.25-2l18-3.399
		c13.967-3.066,25.967-6.517,36-10.351c13.134-5,21.233-18.166,24.3-39.5c0.967-6.666,1.367-13.75,1.2-21.25L220.8,376.1z"/>
	<path style="fill-rule:evenodd;clip-rule:evenodd;fill:#A46F3F;" d="M251.75,398.4c-0.934,6.6-1.917,12.5-2.95,17.699
		c-1.434,7.167-3.633,13.417-6.6,18.75c-3.8,6.733-9.267,12.983-16.4,18.75c-6.467,5.2-18.733,8.134-36.8,8.801
		c-5.667,0.233-11.567,0.199-17.7-0.101l-15.75-1.2l23.15-4.199c17.066-3.567,29.767-7.334,38.1-11.301
		c8.334-3.966,13.667-13.483,16-28.55c0.733-4.733,1.117-9.717,1.15-14.95l-0.15-6.5l1.7,10.551c1.566,6.933,3.5,10.083,5.8,9.449
		c2.467-0.666,5.134-5.116,8-13.35l3.5-12.15L251.75,398.4z"/>
	<path style="fill-rule:evenodd;clip-rule:evenodd;fill:#6F4D2F;" d="M132.1,99.8c5.566-1.466,10.55-0.85,14.95,1.85
		c2.2,1.367,3.833,2.867,4.9,4.5c-0.7,0.533-1.684,1-2.95,1.4c-2.6,0.767-5.4,0.8-8.4,0.1c-4.767-1.167-7.767-2.75-9-4.75
		c-0.434-0.733-0.567-1.417-0.4-2.05C131.333,100.283,131.633,99.933,132.1,99.8z"/>
	<path style="fill-rule:evenodd;clip-rule:evenodd;fill:#A97240;" d="M230.3,42.45c2.533,1.767,5.517,3.367,8.95,4.8
		c1.7,0.733,3.15,1.283,4.35,1.65l-5.3,7.1c-2.899-0.567-6.05-1.65-9.45-3.25c-6.833-3.2-11.483-7.4-13.949-12.6
		c-2.434-5.133-3.934-10.566-4.5-16.3C186.366,34.717,175.167,39.9,176.8,39.4c1.3-0.4,4,3.65,8.101,12.15
		c2.066,4.267,4,8.567,5.8,12.9l-40,41.45c-1.567,0.833-3.517,1.267-5.85,1.3c-4.633,0.066-8.85-1.867-12.65-5.8l40-39.4l-9.7-29.05
		L215.75,0l-0.35,16.6c1.633,4.033,3.517,8.117,5.649,12.25C224.783,36.217,227.866,40.75,230.3,42.45z"/>
	<g>
		<path style="fill-rule:evenodd;clip-rule:evenodd;fill:#895E37;" d="M162.5,32.95l19.95,29.5l-41.7,44.25
			c-3.067-0.8-5.917-2.567-8.55-5.3l40-39.4L162.5,32.95z"/>
		<path style="fill-rule:evenodd;clip-rule:evenodd;fill:#895E37;" d="M214.9,40.15c-2.434-5.133-3.934-10.566-4.5-16.3
			c-21.067,9.5-32.317,14.7-33.75,15.6l-5.55-3.65l40.7-17.35l2.9,9.7c2.767,7.1,6.233,12.317,10.399,15.65
			c4.167,3.333,7.983,5.55,11.45,6.65c1.7,0.566,3,0.783,3.9,0.65l-2.7,4.8c-3.634-0.833-7.167-2.15-10.6-3.95
			C221.25,48.817,217.167,44.883,214.9,40.15z"/>
	</g>
	<g>
		<path style="fill-rule:evenodd;clip-rule:evenodd;fill:#B97C44;" d="M130.25,96.15l0.25,0.35c-1.967,1.8-4.183,4.017-6.65,6.65
			c-4.934,5.3-8.583,10.067-10.95,14.3c-2.4,4.267-3.717,11.95-3.95,23.05c-0.1,5.533,0.033,10.65,0.4,15.35l7.45,6.35l-4.55,19.6
			c-3.267,14-5.517,23.434-6.75,28.3s-0.933,12.517,0.9,22.95c0.934,5.233,1.983,9.983,3.15,14.25
			c-4.433,15.5-7.133,23.934-8.1,25.3c-1.133,1.601-4.7,9.834-10.7,24.7c-6.5,16.033-9.95,25.983-10.35,29.851
			c-0.566,5.933-0.85,19.683-0.85,41.25l15.85,22.55l0.8,37.6l16.6,26.55c-10-0.8-24.15-3.149-42.45-7.05
			c-5.233-6.267-9.184-14.866-11.85-25.8c-0.833-3.4-1.483-6.833-1.95-10.3l-0.45-4.2l-9.9-20.8l1-49.5l22.2-43.55l24.85-39.351
			l4.55-54.2l-2.4-15.85l3.85-19.9c-1.533-2.9-2.983-6.217-4.35-9.95c-2.733-7.5-3.617-13.383-2.65-17.65
			c0.9-4.1,4.183-11.317,9.85-21.65c2.967-5.467,6.083-10.883,9.35-16.25C116.85,97.533,122.783,96.55,130.25,96.15z"/>
		<path style="fill-rule:evenodd;clip-rule:evenodd;fill:#A46F3F;" d="M84.95,143.75c0.966-6,5.183-14.933,12.65-26.8
			c3.733-5.967,7.367-11.317,10.9-16.05c1.067-0.667,2.383-1.267,3.95-1.8c-3.267,5.367-6.383,10.783-9.35,16.25
			c-5.667,10.333-8.95,17.55-9.85,21.65c-0.967,4.267-0.083,10.15,2.65,17.65c1.367,3.733,2.817,7.05,4.35,9.95l-3.85,19.9
			l2.4,15.85l-4.55,54.2L69.4,293.9l-22.2,43.55l-1,49.5l9.9,20.8l0.45,4.2c0.467,3.467,1.117,6.899,1.95,10.3
			c2.667,10.934,6.617,19.533,11.85,25.8c-15.434-3.366-28.7-7.55-39.8-12.55c-15.133-6.866-24.383-18.917-27.75-36.15
			c-1.133-5.699-1.617-12.116-1.45-19.25c0.4-6.933,0.617-11.35,0.65-13.25c0.1-5.199,4.95-14.899,14.55-29.1
			c8.833-13.1,15.7-21.717,20.6-25.85c3.7-3.101,11.567-11.45,23.6-25.051c10.1-11.433,17.717-20.3,22.85-26.6
			c3.033-3.733,5.25-15.167,6.65-34.3c0.9-19.633,1.55-30.833,1.95-33.6c0.333-2.167-1.017-9.483-4.05-21.95
			C85.15,157.967,84.083,149.083,84.95,143.75z"/>
	</g>
	
		<linearGradient id="SVGID_1_" gradientUnits="userSpaceOnUse" x1="330.1719" y1="-137.668" x2="354.6139" y2="-137.668" gradientTransform="matrix(0.133 0.9911 -0.9911 0.133 0 6.541610e-005)">
		<stop  offset="0" style="stop-color:#E6BA8B"/>
		<stop  offset="1" style="stop-color:#F1DABF"/>
	</linearGradient>
	<path style="fill-rule:evenodd;clip-rule:evenodd;fill:url(#SVGID_1_);" d="M186,307.05l0.45,3.05c0.7,2.4,2.149,4.483,4.35,6.25
		s4.834,3.101,7.9,4c1.566,0.434,2.899,0.7,4,0.801L179.9,335.8c-2.601-1.033-5.3-2.316-8.101-3.85
		c-5.633-3.066-8.966-5.851-10-8.351c-1.033-2.5-0.3-5.533,2.2-9.1l4.05-4.6L186,307.05z"/>
	
		<linearGradient id="SVGID_2_" gradientUnits="userSpaceOnUse" x1="285.9619" y1="-175.2422" x2="307.5869" y2="-175.2422" gradientTransform="matrix(4.624277e-005 1 -1 -0.001 -4.759045e-004 7.774716e-005)">
		<stop  offset="0" style="stop-color:#E6BA8B"/>
		<stop  offset="1" style="stop-color:#F1DABF"/>
	</linearGradient>
	<path style="fill-rule:evenodd;clip-rule:evenodd;fill:url(#SVGID_2_);" d="M184.55,285.3l-1.55,3.45c-1.1,3-1.8,6.283-2.1,9.85
		c-0.2,2.467,0.583,4.617,2.35,6.45c0.9,0.934,1.816,1.601,2.75,2l-17.95,2.851c-0.8-1.101-1.55-2.467-2.25-4.101
		c-1.333-3.233-1.633-6.133-0.9-8.7c0.733-2.533,4.233-5.267,10.5-8.199C178.533,287.467,181.583,286.267,184.55,285.3z"/>
	
		<linearGradient id="SVGID_3_" gradientUnits="userSpaceOnUse" x1="322.252" y1="-198.5654" x2="354.852" y2="-198.5654" gradientTransform="matrix(3.067485e-005 1 -1 -0.001 -2.654894e-004 7.682107e-005)">
		<stop  offset="0" style="stop-color:#E6BA8B"/>
		<stop  offset="1" style="stop-color:#F1DABF"/>
	</linearGradient>
	<path style="fill-rule:evenodd;clip-rule:evenodd;fill:url(#SVGID_3_);" d="M202.7,321.15l-0.05,5.25
		c0.399,4.1,1.666,7.683,3.8,10.75c2.133,3.033,4.75,5,7.85,5.899c1.533,0.467,2.851,0.617,3.95,0.45l-16.8,14.75
		c-2.5,0.167-5.2,0.083-8.101-0.25c-5.8-0.667-9.716-2.184-11.75-4.55c-2.033-2.367-2.916-6.017-2.649-10.95l0.95-6.7L202.7,321.15z
		"/>
	
		<linearGradient id="SVGID_4_" gradientUnits="userSpaceOnUse" x1="344.418" y1="-219.312" x2="373.943" y2="-219.312" gradientTransform="matrix(3.386960e-005 1 -1 -0.001 -5.336436e-005 7.774716e-005)">
		<stop  offset="0" style="stop-color:#E6BA8B"/>
		<stop  offset="1" style="stop-color:#F1DABF"/>
	</linearGradient>
	<path style="fill-rule:evenodd;clip-rule:evenodd;fill:url(#SVGID_4_);" d="M201.45,358.25l16.8-14.75l1.15,6.3
		c1.333,4.434,3.35,7.267,6.05,8.5c2.7,1.267,5.467,1.767,8.3,1.5c1.434-0.133,2.583-0.399,3.45-0.8l-4.4,12.25
		c-2.566,1.733-5.483,3.184-8.75,4.35c-6.5,2.334-11.416,2.067-14.75-0.8c-3.333-2.866-5.633-6.483-6.899-10.85L201.45,358.25z"/>
	
		<linearGradient id="SVGID_5_" gradientUnits="userSpaceOnUse" x1="359.4307" y1="-244.5283" x2="376.5807" y2="-244.5283" gradientTransform="matrix(5.830904e-005 1 -1 -0.001 -4.847580e-004 7.774716e-005)">
		<stop  offset="0" style="stop-color:#E6BA8B"/>
		<stop  offset="1" style="stop-color:#F1DABF"/>
	</linearGradient>
	<path style="fill-rule:evenodd;clip-rule:evenodd;fill:url(#SVGID_5_);" d="M237.2,359l1.7,4c1.533,2.967,3.333,5.184,5.399,6.65
		c3.334,2.333,7.334,4.883,12,7.649c-1.5,0.434-3.267,0.767-5.3,1c-4.033,0.467-7.333,0.184-9.9-0.85
		c-2.566-1.033-4.716-2.384-6.449-4.05l-1.851-2.15L237.2,359z"/>
	<path style="fill-rule:evenodd;clip-rule:evenodd;fill:#907F46;" d="M124.05,231.1c3.9,2.433,6.317,4.917,7.25,7.45
		c0.6,1.634,0.934,4.934,1,9.9c0.034,2.5,0.017,4.833-0.05,7l-0.9-0.8c-0.167-2.567-0.617-5.301-1.35-8.2
		c-1.5-5.8-3.683-9.567-6.55-11.3c-2.2-1.333-4.784-2.717-7.75-4.15l-3.75-1.8C115.483,227.633,119.517,228.267,124.05,231.1z"/>
	<path style="fill-rule:evenodd;clip-rule:evenodd;fill:#AD9752;" d="M132.7,203.45l-2.15,7.65c-1.633,5.467-2.966,9.083-4,10.85
		c-1.033,1.767-3.3,3.5-6.8,5.2c-1.767,0.833-3.417,1.5-4.95,2l-2.85,0.05c5.333-3.767,9.533-7.034,12.6-9.8
		c1.9-1.733,3.6-4.867,5.1-9.4l1.65-6.3L132.7,203.45z"/>
	<path style="fill-rule:evenodd;clip-rule:evenodd;fill:#C0AF7A;" d="M134.25,209.3c1.167,4.6,2.15,8.1,2.95,10.5
		c0.767,2.267,2.417,4.417,4.95,6.45c1.267,1.033,2.467,1.833,3.6,2.4l-1.35,1.3c-1.2,1.2-2.566,2.667-4.1,4.4
		c-1.533,1.767-3.333,5.817-5.4,12.15c-1.033,3.167-1.917,6.15-2.65,8.95c-0.7-6.434-1.667-11.467-2.9-15.101
		c-0.733-2.267-3.383-4.816-7.95-7.649l-6.6-3.55c0.867-0.433,1.934-1.066,3.2-1.9c2.5-1.633,4.733-3.433,6.7-5.4
		c1.933-1.934,3.85-5.633,5.75-11.1l2.3-7.65L134.25,209.3z"/>
	<path style="fill-rule:evenodd;clip-rule:evenodd;fill:#312620;" d="M132.45,218.2c1.767,0.033,3.283,1.066,4.55,3.1
		c1.133,1.8,1.733,3.767,1.8,5.9c0.034,2.466-0.333,4.633-1.1,6.5c-1,2.367-2.55,3.666-4.65,3.899
		c-2.233,0.233-3.983-0.667-5.25-2.7c-1.167-1.833-1.783-4.233-1.85-7.2c-0.034-2.667,0.633-4.95,2-6.85
		C129.25,219.05,130.75,218.167,132.45,218.2z"/>
	<path style="fill-rule:evenodd;clip-rule:evenodd;fill:#724F30;" d="M132.5,219c1.6,0.133,2.917,1.133,3.95,3
		c0.933,1.7,1.433,3.717,1.5,6.05c0.033,2.333-0.4,4.284-1.3,5.85c-1.033,1.767-2.5,2.617-4.4,2.55c-1.9-0.067-3.317-1.034-4.25-2.9
		c-0.833-1.633-1.167-3.667-1-6.1c0.167-2.333,0.733-4.317,1.7-5.95C129.733,219.733,131,218.9,132.5,219z"/>
	<g>
		<polygon style="fill-rule:evenodd;clip-rule:evenodd;fill:#A09F8A;" points="334.55,89.05 315.1,82.45 296.4,89.3 278,81.7 
			257.35,83.35 239.05,71.6 232.35,45.7 255.4,27.6 273.8,35.2 285.9,48.85 302.3,53.3 318.85,50.55 330.85,68.35 357.6,73 		"/>
		<polygon style="fill-rule:evenodd;clip-rule:evenodd;fill:#908F7C;" points="334.55,89.05 315.1,82.45 296.8,90.35 278.3,82.6 
			257.3,85.1 237.3,72.1 230.8,45.1 255.4,27.6 238.55,46.35 249.05,69.1 261.8,67.1 255.8,74.35 268.8,77.35 281.55,72.35 
			279.55,78.1 296.55,84.85 315.8,75.6 321.05,81.6 357.6,73 		"/>
		<polygon style="fill-rule:evenodd;clip-rule:evenodd;fill:#747466;" points="357.6,73 334.55,89.05 316.6,83.95 296.8,90.35 
			278.3,82.6 257.3,85.95 236.45,72.45 230.8,45.1 239.45,68.95 258.1,83.3 277.6,80.3 296.45,88.1 314.8,80.95 334.3,86.3 		"/>
		<g>
			<g>
				<path style="fill-rule:evenodd;clip-rule:evenodd;fill:#908F7C;" d="M254.45,44.45c3-1.4,5.767-2.267,8.3-2.6
					c0.9-0.3,3.05-0.25,6.45,0.15c3.267,0.433,4.883,0.733,4.85,0.9c-0.033-0.167-1.7-0.133-5,0.1c-3.366,0.233-5.434,0.5-6.2,0.8
					c-0.8-0.066-3.05,0.317-6.75,1.15c-2.571,0.59-4.221,1.006-4.949,1.25C251.707,45.91,252.807,45.326,254.45,44.45z"/>
			</g>
		</g>
		<g>
			<g>
				<path style="fill-rule:evenodd;clip-rule:evenodd;fill:#908F7C;" d="M258.55,59.6c0.267,0.7,1.3,2.083,3.101,4.15
					c1.767,2.033,2.733,3,2.899,2.9c-0.1,0.2-1.3-0.583-3.6-2.35c-2.334-1.833-3.617-3.133-3.851-3.9
					c-0.5-0.5-1.383-2.283-2.649-5.35c-1.2-3-1.733-4.5-1.601-4.5l1.801,3.05C256.116,55.967,257.417,57.967,258.55,59.6z"/>
			</g>
		</g>
		<g>
			<g>
				<path style="fill-rule:evenodd;clip-rule:evenodd;fill:#908F7C;" d="M282.5,50.25c-2.1,0.033-3.8,0.067-5.1,0.1
					c-0.801-0.1-2.65-0.15-5.551-0.15c-3.033-0.034-4.533,0-4.5,0.1c-0.166-0.1,0.917-0.367,3.25-0.8
					c2.601-0.533,4.917-0.767,6.95-0.7c0.733-0.033,2.434,0.2,5.101,0.7c2.633,0.5,3.933,0.8,3.899,0.9
					C286.517,50.3,285.167,50.25,282.5,50.25z"/>
			</g>
		</g>
		<g>
			<g>
				<path style="fill-rule:evenodd;clip-rule:evenodd;fill:#908F7C;" d="M275.55,61.65c0.566,0.7,2.233,1.883,5,3.55
					c2.7,1.6,4.117,2.333,4.25,2.2c-0.033,0.233-1.649-0.233-4.85-1.4c-3.267-1.2-5.167-2.15-5.7-2.85
					c-0.767-0.367-2.45-1.983-5.05-4.85c-2.533-2.8-3.733-4.25-3.601-4.35l3.2,2.65C271.333,58.633,273.583,60.317,275.55,61.65z"/>
			</g>
		</g>
		<g>
			<g>
				<path style="fill-rule:evenodd;clip-rule:evenodd;fill:#908F7C;" d="M291.75,54.35c1.022-0.099,3.906,0.243,8.65,1.025
					c-0.665-0.032-3.581,0.143-8.75,0.525c-5.858,0.06-9.1,0.109-9.726,0.15c0.321-0.067,1.346-0.317,3.075-0.75
					C287.566,54.767,289.816,54.45,291.75,54.35z"/>
			</g>
		</g>
		<g>
			<g>
				<path style="fill-rule:evenodd;clip-rule:evenodd;fill:#908F7C;" d="M291.6,69.65c0.367,0.667,1.684,1.767,3.95,3.3
					c2.167,1.466,3.334,2.117,3.5,1.95c-0.033,0.233-1.383-0.2-4.05-1.3c-2.7-1.167-4.233-2.117-4.6-2.85
					c-0.667-0.367-1.851-1.933-3.551-4.7c-1.666-2.733-2.416-4.133-2.25-4.2c0.034,0,0.767,0.9,2.2,2.7
					C288.533,66.683,290.134,68.383,291.6,69.65z"/>
			</g>
		</g>
		<g>
			<g>
				<path style="fill-rule:evenodd;clip-rule:evenodd;fill:#908F7C;" d="M311.3,55c-2.8,0.8-4.533,1.35-5.2,1.65
					c-0.733,0.033-2.583,0.733-5.55,2.1c-1.856,0.854-3.106,1.47-3.75,1.85c0.452-0.385,1.202-1.035,2.25-1.95
					c2.267-1.767,4.483-2.983,6.65-3.65c1.121-0.495,4.346-0.861,9.675-1.1C314.913,53.981,313.556,54.348,311.3,55z"/>
			</g>
		</g>
		<g>
			<g>
				<path style="fill-rule:evenodd;clip-rule:evenodd;fill:#908F7C;" d="M306.1,71.25c0.4,0.267,1.351,0.667,2.851,1.2
					c1.049,0.373,1.749,0.598,2.1,0.675c-3.114-0.261-4.931-0.603-5.45-1.025c-0.433-0.1-1.399-0.783-2.899-2.05
					c-1.5-1.233-2.217-1.9-2.15-2c0.033,0,0.634,0.383,1.8,1.15C303.783,70.067,305.033,70.75,306.1,71.25z"/>
			</g>
		</g>
		<g>
			<g>
				<path style="fill-rule:evenodd;clip-rule:evenodd;fill:#908F7C;" d="M316.8,59c0.7-0.233,2.783-0.683,6.25-1.35
					c-3.366,1.434-5.366,2.233-6,2.4c-4.633,1.233-6.95,1.867-6.95,1.9c0-0.067,0.717-0.434,2.15-1.1
					C313.917,60.05,315.434,59.433,316.8,59z"/>
			</g>
		</g>
		<g>
			<g>
				<path style="fill-rule:evenodd;clip-rule:evenodd;fill:#908F7C;" d="M319.15,69.8c0.433,0.2,1.517,0.5,3.25,0.9
					c1.237,0.267,2.045,0.417,2.425,0.45c-3.397,0.093-5.406-0.024-6.025-0.35c-0.467-0.033-1.649-0.55-3.55-1.55
					c-1.833-0.967-2.717-1.517-2.65-1.65c0.034,0,0.75,0.267,2.15,0.8C316.45,69.033,317.917,69.5,319.15,69.8z"/>
			</g>
		</g>
	</g>
	<path style="fill-rule:evenodd;clip-rule:evenodd;fill:#E1AC79;" d="M144.8,115.1c5.633,0.433,9.567-0.434,11.8-2.6
		c1.133-1.1,1.7-2.233,1.7-3.4l2.8,8.25c1.767,6.333,2.333,11.583,1.7,15.75c-0.633,4.167-4.316,10.667-11.05,19.5
		c-3.367,4.433-6.683,8.433-9.95,12c3.667-12.333,6.333-22.333,8-30c1.034-4.8,0.517-9.483-1.55-14.05L144.8,115.1z"/>
	<path style="fill-rule:evenodd;clip-rule:evenodd;fill:#E1AC79;" d="M153.3,213.1l3.3,17.05c2.433,12.767,4.167,22.583,5.2,29.45
		c1.034,6.867,3.684,12.767,7.95,17.7c2.133,2.467,4.15,4.233,6.05,5.3c-2,0.334-4.5,1.167-7.5,2.5
		c-1.867,0.834-4.183,2.25-6.95,4.25c-1.367,1-2.55,1.917-3.55,2.75c-2.667-22-4.167-38.333-4.5-49c-0.2-6.667-0.267-13.667-0.2-21
		L153.3,213.1z"/>
	<path style="fill-rule:evenodd;clip-rule:evenodd;fill:#815934;" d="M30.45,338.45l-2.3,5.899c-1.733,4.967-3.133,9.967-4.2,15
		c-3.467,16.134-3.017,29.717,1.35,40.75c4.367,11.034,10.6,20.184,18.7,27.45c4.033,3.634,7.633,6.15,10.8,7.55l-1.5,8.5
		c-6.9-1.399-14.083-3.85-21.55-7.35c-14.933-7-23.867-15.717-26.8-26.15C1.817,398.934,0.167,389.4,0,381.5
		c-0.1-4.767,0.5-11.066,1.8-18.9c0.867-5.267,5.333-13.517,13.4-24.75c5.966-8.333,12.167-16.083,18.6-23.25
		c3.767-4.166,9.817-9.833,18.15-17l19.35-16L57,299.65c-9.933,12.6-15.833,20.25-17.7,22.949L30.45,338.45z"/>
	<g>
		<g>
			<path style="fill-rule:evenodd;clip-rule:evenodd;fill:#B97C44;" d="M128.05,150.6c-0.3,1.333-1.2,1.967-2.7,1.9
				c-1.5-0.1-1.95-1.017-1.35-2.75c0.867-1.467,1.85-1.917,2.95-1.35C127.983,148.933,128.35,149.667,128.05,150.6z"/>
		</g>
	</g>
	<g>
		<g>
			<path style="fill-rule:evenodd;clip-rule:evenodd;fill:#B97C44;" d="M140.15,171.75c0.167,1.3-0.35,2.083-1.55,2.35
				c-1.2,0.267-1.783-0.3-1.75-1.7c0.167-1.367,0.75-2.017,1.75-1.95C139.567,170.517,140.083,170.95,140.15,171.75z"/>
		</g>
	</g>
	<g>
		<g>
			<path style="fill-rule:evenodd;clip-rule:evenodd;fill:#B97C44;" d="M135.95,122.45c0.1,1.733-0.35,1.95-1.35,0.65
				c-0.1-0.333,0.05-0.633,0.45-0.9C135.45,121.9,135.75,121.983,135.95,122.45z"/>
		</g>
	</g>
	<g>
		<g>
			<path style="fill-rule:evenodd;clip-rule:evenodd;fill:#B97C44;" d="M139.85,135.65c0.167,1.267-0.25,1.983-1.25,2.15
				c-1,0.133-1.467-0.35-1.4-1.45c0.033-0.7,0.4-1.217,1.1-1.55C139.067,134.5,139.583,134.783,139.85,135.65z"/>
		</g>
	</g>
	<g>
		<g>
			<path style="fill-rule:evenodd;clip-rule:evenodd;fill:#B97C44;" d="M119.6,131.5c-1.1-0.167-1.333-0.9-0.7-2.2
				c1-1.066,1.817-1.267,2.45-0.6c0.6,0.6,0.733,1.2,0.4,1.8C121.45,131.333,120.733,131.667,119.6,131.5z"/>
		</g>
	</g>
	<g>
		<g>
			<path style="fill-rule:evenodd;clip-rule:evenodd;fill:#B97C44;" d="M126.9,112.75c-0.066,0.233-0.316,0.367-0.75,0.4
				c-0.4,0.033-0.483-0.25-0.25-0.85c0.3-0.333,0.583-0.4,0.85-0.2C126.983,112.3,127.033,112.517,126.9,112.75z"/>
		</g>
	</g>
	<g>
		<g>
			<path style="fill-rule:evenodd;clip-rule:evenodd;fill:#B97C44;" d="M120.35,185.4c-1.434,0.3-2.133-0.367-2.1-2
				c0.133-1.467,0.8-2.217,2-2.25c1.167-0.033,1.8,0.45,1.9,1.45C122.383,184.167,121.783,185.1,120.35,185.4z"/>
		</g>
	</g>
	<g>
		<g>
			<path style="fill-rule:evenodd;clip-rule:evenodd;fill:#B97C44;" d="M150,187.2c0.333,1.267-0.233,2.216-1.7,2.85
				c-1.433,0.6-2.267-0.066-2.5-2c0.3-2.1,1.1-2.983,2.4-2.65C149.467,185.733,150.067,186.333,150,187.2z"/>
		</g>
	</g>
	<g>
		<g>
			<path style="fill-rule:evenodd;clip-rule:evenodd;fill:#B97C44;" d="M148.85,165.1c-0.133,1.333-0.667,1.9-1.6,1.7
				c-0.933-0.2-1.233-0.7-0.9-1.5c0.1-0.667,0.533-1.05,1.3-1.15C148.417,164.017,148.817,164.333,148.85,165.1z"/>
		</g>
	</g>
	<g>
		<g>
			<path style="fill-rule:evenodd;clip-rule:evenodd;fill:#B97C44;" d="M116.05,139.45c0.034,0.6-0.25,0.933-0.85,1
				c-0.567,0.1-0.784-0.217-0.65-0.95c0.067-0.433,0.35-0.667,0.85-0.7C115.867,138.767,116.083,138.983,116.05,139.45z"/>
		</g>
	</g>
	<g>
		<g>
			<path style="fill-rule:evenodd;clip-rule:evenodd;fill:#B97C44;" d="M116.1,199.2c0.1,1.6-0.7,2.566-2.4,2.9
				c-1.7,0.3-2.467-0.567-2.3-2.6c0.533-1.9,1.467-2.7,2.8-2.4C115.533,197.367,116.167,198.067,116.1,199.2z"/>
		</g>
	</g>
	<g>
		<g>
			<path style="fill-rule:evenodd;clip-rule:evenodd;fill:#B97C44;" d="M136.45,197.25c0.233-1.3,0.85-1.9,1.85-1.8
				c0.967,0.066,1.467,0.533,1.5,1.4c0.034,1.5-0.566,2.25-1.8,2.25C136.733,199.1,136.217,198.483,136.45,197.25z"/>
		</g>
	</g>
	<g>
		<g>
			<path style="fill-rule:evenodd;clip-rule:evenodd;fill:#B97C44;" d="M115.6,277.55c-0.133,1.4-0.783,2.05-1.95,1.95
				c-1.2-0.134-1.6-0.783-1.2-1.95c0.3-1.066,0.917-1.55,1.85-1.45C115.233,276.2,115.667,276.684,115.6,277.55z"/>
		</g>
	</g>
	<g>
		<g>
			<path style="fill-rule:evenodd;clip-rule:evenodd;fill:#B97C44;" d="M114.05,256.75c0.034,0.634-0.25,0.983-0.85,1.05
				c-0.567,0.101-0.784-0.217-0.65-0.95c0.067-0.433,0.35-0.666,0.85-0.699C113.867,256.083,114.083,256.283,114.05,256.75z"/>
		</g>
	</g>
	<g>
		<g>
			<path style="fill-rule:evenodd;clip-rule:evenodd;fill:#B97C44;" d="M112.65,216.7c0.2,0.6-0.167,1.167-1.1,1.7
				c-0.9,0.5-1.466,0.05-1.7-1.35c0.333-1.433,0.933-1.983,1.8-1.65C112.483,215.733,112.817,216.167,112.65,216.7z"/>
		</g>
	</g>
	<g>
		<g>
			<path style="fill-rule:evenodd;clip-rule:evenodd;fill:#B97C44;" d="M108.85,289.9c-0.367,3.133-1.917,4.55-4.65,4.25
				c-1.067-0.134-1.883-0.584-2.45-1.351c-0.6-0.866-0.7-1.916-0.3-3.149c0.933-2.667,2.483-3.75,4.65-3.25
				C108.233,286.9,109.15,288.066,108.85,289.9z"/>
		</g>
	</g>
	<g>
		<g>
			<path style="fill-rule:evenodd;clip-rule:evenodd;fill:#B97C44;" d="M113.55,357.9c-0.4,3.133-1.95,4.55-4.65,4.25
				c-1.066-0.134-1.883-0.584-2.45-1.351c-0.6-0.899-0.7-1.95-0.3-3.149c0.934-2.667,2.467-3.75,4.6-3.25
				S113.817,356.066,113.55,357.9z"/>
		</g>
	</g>
	<g>
		<g>
			<path style="fill-rule:evenodd;clip-rule:evenodd;fill:#B97C44;" d="M214.7,391.25c0.267,1.4-0.2,2.233-1.4,2.5
				c-1.233,0.267-1.85-0.25-1.85-1.55c0-1.2,0.5-1.884,1.5-2.05C213.917,390.017,214.5,390.384,214.7,391.25z"/>
		</g>
	</g>
	<g>
		<g>
			<path style="fill-rule:evenodd;clip-rule:evenodd;fill:#B97C44;" d="M212.95,412.15c0.133,1.133-0.316,1.783-1.351,1.949
				c-1.033,0.2-1.483-0.3-1.35-1.5c0.1-0.866,0.566-1.35,1.4-1.449C212.483,411.017,212.917,411.35,212.95,412.15z"/>
		</g>
	</g>
	<g>
		<g>
			<path style="fill-rule:evenodd;clip-rule:evenodd;fill:#B97C44;" d="M203.4,379.15c0.3,0.3,0.333,0.616,0.1,0.949
				c-0.233,0.334-0.5,0.284-0.8-0.149c-0.167-0.267-0.15-0.517,0.05-0.75C202.95,378.934,203.167,378.917,203.4,379.15z"/>
		</g>
	</g>
	<g>
		<g>
			<path style="fill-rule:evenodd;clip-rule:evenodd;fill:#B97C44;" d="M204.6,429.75c-0.033,1.7-0.683,2.5-1.949,2.4
				c-1.301-0.101-1.767-0.75-1.4-1.95c0.134-1,0.7-1.566,1.7-1.7C203.983,428.333,204.533,428.75,204.6,429.75z"/>
		</g>
	</g>
	<g>
		<g>
			<path style="fill-rule:evenodd;clip-rule:evenodd;fill:#B97C44;" d="M211.6,424.05c0.167,0.167,0.134,0.4-0.1,0.7
				s-0.483,0.233-0.75-0.2c-0.1-0.434,0-0.684,0.3-0.75S211.533,423.816,211.6,424.05z"/>
		</g>
	</g>
	<g>
		<g>
			<path style="fill-rule:evenodd;clip-rule:evenodd;fill:#B97C44;" d="M197.65,441.05c0.133,0.767-0.117,1.233-0.75,1.4
				c-0.667,0.166-1-0.117-1-0.851c0-0.666,0.267-1.033,0.8-1.1C197.233,440.4,197.55,440.583,197.65,441.05z"/>
		</g>
	</g>
	<g>
		<g>
			<path style="fill-rule:evenodd;clip-rule:evenodd;fill:#B97C44;" d="M154.05,205.65c0.434,0.833,0.05,1.717-1.15,2.65
				c-1.167,0.934-2.083,0.467-2.75-1.4c0.1-2.133,0.783-3.066,2.05-2.8C153.467,204.333,154.083,204.85,154.05,205.65z"/>
		</g>
	</g>
	<g>
		<g>
			<path style="fill-rule:evenodd;clip-rule:evenodd;fill:#B97C44;" d="M143.45,212.55c0.466,1.767-0.017,2.833-1.45,3.2
				c-1.467,0.333-2.2-0.25-2.2-1.75c-0.133-1.233,0.35-2.05,1.45-2.45C142.383,211.15,143.117,211.483,143.45,212.55z"/>
		</g>
	</g>
	<g>
		<g>
			<path style="fill-rule:evenodd;clip-rule:evenodd;fill:#B97C44;" d="M130.6,208.15c-0.167,1.4-0.934,2.067-2.3,2
				c-1.333-0.066-1.75-0.816-1.25-2.25c0.434-1.167,1.184-1.65,2.25-1.45C130.333,206.617,130.767,207.183,130.6,208.15z"/>
		</g>
	</g>
	<g>
		<g>
			<path style="fill-rule:evenodd;clip-rule:evenodd;fill:#B97C44;" d="M116.65,236.5c0.1,1.1-0.367,1.75-1.4,1.95
				s-1.483-0.3-1.35-1.5c0.133-0.867,0.6-1.367,1.4-1.5C116.133,235.35,116.583,235.7,116.65,236.5z"/>
		</g>
	</g>
	<g>
		<g>
			<path style="fill-rule:evenodd;clip-rule:evenodd;fill:#B97C44;" d="M110.95,225.55c0.333,1.067,0.1,1.7-0.7,1.9
				c-0.833,0.167-1.25-0.15-1.25-0.95c-0.067-0.533,0.167-0.967,0.7-1.3C110.267,224.833,110.683,224.95,110.95,225.55z"/>
		</g>
	</g>
	<g>
		<g>
			<path style="fill-rule:evenodd;clip-rule:evenodd;fill:#B97C44;" d="M142.65,146.75c0.367,0.5,0.317,0.933-0.15,1.3
				c-0.433,0.4-0.817,0.317-1.15-0.25c-0.233-0.767-0.117-1.216,0.35-1.35C142.133,146.383,142.45,146.483,142.65,146.75z"/>
		</g>
	</g>
	<g>
		<g>
			<path style="fill-rule:evenodd;clip-rule:evenodd;fill:#B97C44;" d="M155,156.6c-0.233,0.833-0.6,1.117-1.1,0.85
				c-0.566-0.233-0.75-0.55-0.55-0.95c0.233-0.633,0.583-0.883,1.05-0.75C154.833,155.883,155.033,156.167,155,156.6z"/>
		</g>
	</g>
	<g>
		<g>
			<path style="fill-rule:evenodd;clip-rule:evenodd;fill:#B97C44;" d="M120.6,117.3c0.033,0.833-0.417,1.333-1.35,1.5
				c-0.933,0.167-1.317-0.333-1.15-1.5c0.3-1.033,0.816-1.433,1.55-1.2C120.35,116.3,120.667,116.7,120.6,117.3z"/>
		</g>
	</g>
	<g>
		<g>
			<path style="fill-rule:evenodd;clip-rule:evenodd;fill:#B97C44;" d="M128.05,167.6c0.167,2.133-0.816,3.4-2.95,3.8
				c-2.133,0.434-3.117-0.617-2.95-3.15c0.5-2.3,1.617-3.35,3.35-3.15C127.2,165.3,128.05,166.133,128.05,167.6z"/>
		</g>
	</g>
	<g>
		<g>
			<path style="fill-rule:evenodd;clip-rule:evenodd;fill:#B97C44;" d="M132.9,186.9c0.233,1.033-0.1,1.65-1,1.85
				c-0.867,0.2-1.3-0.183-1.3-1.15c0-0.867,0.367-1.35,1.1-1.45C132.4,186.017,132.8,186.267,132.9,186.9z"/>
		</g>
	</g>
	<g>
		<g>
			<path style="fill-rule:evenodd;clip-rule:evenodd;fill:#B97C44;" d="M116.7,150.45c0.066,1.4-0.4,2.066-1.4,2
				c-1.066-0.067-1.5-0.55-1.3-1.45c0.067-0.9,0.5-1.417,1.3-1.55C116.1,149.35,116.567,149.683,116.7,150.45z"/>
		</g>
	</g>
	<g>
		<g>
			<path style="fill-rule:evenodd;clip-rule:evenodd;fill:#B97C44;" d="M138.35,162.3c-0.1,0.767-0.383,1.05-0.85,0.85
				c-0.5-0.233-0.633-0.467-0.4-0.7c0.033-0.367,0.233-0.583,0.6-0.65C138.1,161.767,138.317,161.933,138.35,162.3z"/>
		</g>
	</g>
	<g>
		<g>
			<path style="fill-rule:evenodd;clip-rule:evenodd;fill:#B97C44;" d="M119.6,298.1c0.267,1.634-0.383,2.617-1.95,2.95
				c-1.533,0.334-2.283-0.366-2.25-2.1c0.2-1.7,0.934-2.533,2.2-2.5C118.8,296.483,119.467,297.033,119.6,298.1z"/>
		</g>
	</g>
	<g>
		<g>
			<path style="fill-rule:evenodd;clip-rule:evenodd;fill:#B97C44;" d="M109.7,268.2c0.267,1.399-0.2,2.25-1.4,2.55
				c-1.233,0.267-1.85-0.25-1.85-1.55c0-1.2,0.5-1.884,1.5-2.05C108.917,267.017,109.5,267.366,109.7,268.2z"/>
		</g>
	</g>
	<g>
		<g>
			<path style="fill-rule:evenodd;clip-rule:evenodd;fill:#B97C44;" d="M116.7,269.8c0,0.033-0.167,0.351-0.5,0.95
				c-0.434,0.467-0.8,0.233-1.1-0.7c0.167-0.767,0.483-1.083,0.95-0.95C116.45,269.233,116.667,269.467,116.7,269.8z"/>
		</g>
	</g>
	<g>
		<g>
			<path style="fill-rule:evenodd;clip-rule:evenodd;fill:#B97C44;" d="M98.1,298.05c0.033,0.967-0.467,1.533-1.5,1.7
				c-1.033,0.2-1.467-0.333-1.3-1.6c0.3-1.067,0.867-1.534,1.7-1.4C97.8,296.884,98.167,297.316,98.1,298.05z"/>
		</g>
	</g>
	<g>
		<g>
			<path style="fill-rule:evenodd;clip-rule:evenodd;fill:#A46F3F;" d="M93.1,278.05c-0.033,2.2-1.033,3.334-3,3.4
				c-2,0.066-2.767-0.967-2.3-3.101c0.467-1.8,1.483-2.666,3.05-2.6C92.417,275.85,93.167,276.616,93.1,278.05z"/>
		</g>
	</g>
	<g>
		<g>
			<path style="fill-rule:evenodd;clip-rule:evenodd;fill:#A46F3F;" d="M81.6,295.8c0.967-0.133,1.55,0.233,1.75,1.101
				c0.3,1.399-0.15,2.233-1.35,2.5c-1.233,0.267-1.85-0.25-1.85-1.551C80.15,296.65,80.633,295.967,81.6,295.8z"/>
		</g>
	</g>
	<g>
		<g>
			<path style="fill-rule:evenodd;clip-rule:evenodd;fill:#A46F3F;" d="M72.25,310.95c0.4,1.934-0.217,3.083-1.85,3.45
				c-1.667,0.366-2.5-0.351-2.5-2.15c0-1.634,0.667-2.55,2-2.75C71.233,309.3,72.017,309.783,72.25,310.95z"/>
		</g>
	</g>
	<g>
		<g>
			<path style="fill-rule:evenodd;clip-rule:evenodd;fill:#A46F3F;" d="M102.1,259.75c-0.633,2.533-1.434,2.8-2.4,0.8
				c0.066-1.3,0.5-1.899,1.3-1.8C101.767,258.884,102.133,259.217,102.1,259.75z"/>
		</g>
	</g>
	<g>
		<g>
			<path style="fill-rule:evenodd;clip-rule:evenodd;fill:#A46F3F;" d="M64.5,331.85c0.667,1.667,0.7,3.217,0.1,4.65
				c-0.533,1.267-1.434,2.184-2.7,2.75c-1.233,0.533-2.383,0.55-3.45,0.05c-1.2-0.566-1.967-1.7-2.3-3.399
				c-0.533-3.5,0.533-5.617,3.2-6.351c1.066-0.267,2.083-0.2,3.05,0.2C63.433,330.184,64.133,330.884,64.5,331.85z"/>
		</g>
	</g>
	<g>
		<g>
			<path style="fill-rule:evenodd;clip-rule:evenodd;fill:#A46F3F;" d="M62.3,352.2c0.633,1.7,0.2,2.866-1.3,3.5
				c-1.467,0.633-2.333,0.066-2.6-1.7c-0.2-1.4,0.3-2.333,1.5-2.8C61.1,350.7,61.9,351.033,62.3,352.2z"/>
		</g>
	</g>
	<g>
		<g>
			<path style="fill-rule:evenodd;clip-rule:evenodd;fill:#A46F3F;" d="M53.25,357.25c0.233,1.033-0.1,1.65-1,1.85
				c-0.9,0.2-1.35-0.183-1.35-1.149c0-0.867,0.367-1.351,1.1-1.45C52.7,356.366,53.117,356.616,53.25,357.25z"/>
		</g>
	</g>
	<g>
		<g>
			<path style="fill-rule:evenodd;clip-rule:evenodd;fill:#A46F3F;" d="M54.25,374.95c0.533,0.7,0.517,1.283-0.05,1.75
				c-0.567,0.5-1.034,0.383-1.4-0.351c-0.333-0.666-0.25-1.166,0.25-1.5C53.517,374.517,53.917,374.55,54.25,374.95z"/>
		</g>
	</g>
	<g>
		<g>
			<path style="fill-rule:evenodd;clip-rule:evenodd;fill:#A46F3F;" d="M57,389c0.267,0.533,0.117,1-0.45,1.4
				c-0.566,0.399-0.983,0.183-1.25-0.65c-0.066-0.767,0.167-1.2,0.7-1.3C56.533,388.384,56.867,388.566,57,389z"/>
		</g>
	</g>
	<g>
		<g>
			<path style="fill-rule:evenodd;clip-rule:evenodd;fill:#A46F3F;" d="M59.4,367c0.067,0.233-0.017,0.384-0.25,0.45
				s-0.35-0.033-0.35-0.3c0-0.2,0.1-0.317,0.3-0.351C59.267,366.767,59.367,366.833,59.4,367z"/>
		</g>
	</g>
	<g>
		<g>
			<path style="fill-rule:evenodd;clip-rule:evenodd;fill:#A46F3F;" d="M79.9,288.25c0.133,1-0.3,1.616-1.3,1.85
				c-1,0.2-1.483-0.267-1.45-1.399c0.2-1.167,0.7-1.7,1.5-1.601C79.417,287.233,79.833,287.616,79.9,288.25z"/>
		</g>
	</g>
	<g>
		<g>
			<path style="fill-rule:evenodd;clip-rule:evenodd;fill:#A46F3F;" d="M90.2,288.1c0.066,0.4-0.05,0.634-0.35,0.7
				c-0.333,0.066-0.5-0.083-0.5-0.45c0-0.333,0.133-0.517,0.4-0.55C89.983,287.767,90.133,287.866,90.2,288.1z"/>
		</g>
	</g>
	<g>
		<g>
			<path style="fill-rule:evenodd;clip-rule:evenodd;fill:#A46F3F;" d="M92.8,262.55c0.367,0.566,0.267,1.066-0.3,1.5
				c-0.533,0.467-0.983,0.334-1.35-0.399c-0.233-0.867-0.05-1.367,0.55-1.5C92.2,262.05,92.567,262.184,92.8,262.55z"/>
		</g>
	</g>
	<g>
		<g>
			<path style="fill-rule:evenodd;clip-rule:evenodd;fill:#A46F3F;" d="M103.4,240.85c0.367,1.101,0,1.95-1.1,2.551
				c-1.1,0.6-1.8,0.133-2.1-1.4c-0.034-1.3,0.45-2.033,1.45-2.2C102.617,239.634,103.2,239.983,103.4,240.85z"/>
		</g>
	</g>
	<g>
		<g>
			<path style="fill-rule:evenodd;clip-rule:evenodd;fill:#A46F3F;" d="M112.4,168.9c0.533,2.333-0.133,3.717-2,4.15
				c-1.9,0.467-2.85-0.3-2.85-2.3c-0.133-1.633,0.534-2.7,2-3.2C111.017,167.017,111.967,167.467,112.4,168.9z"/>
		</g>
	</g>
	<g>
		<g>
			<path style="fill-rule:evenodd;clip-rule:evenodd;fill:#A46F3F;" d="M105.9,182.9c0.233,1.033-0.1,1.65-1,1.85
				c-0.867,0.2-1.3-0.183-1.3-1.15c0-0.867,0.367-1.35,1.1-1.45C105.4,182.017,105.8,182.267,105.9,182.9z"/>
		</g>
	</g>
	<g>
		<g>
			<path style="fill-rule:evenodd;clip-rule:evenodd;fill:#A46F3F;" d="M104.6,193.9c0.333,1.067,0.1,1.7-0.7,1.9
				c-0.8,0.167-1.2-0.15-1.2-0.95c-0.1-0.533,0.117-0.983,0.65-1.35C103.917,193.133,104.333,193.267,104.6,193.9z"/>
		</g>
	</g>
	<g>
		<g>
			<path style="fill-rule:evenodd;clip-rule:evenodd;fill:#A46F3F;" d="M104.45,220.8c0.5,1.5,0.017,2.583-1.45,3.25
				c-1.433,0.667-2.3,0.067-2.6-1.8c-0.033-1.633,0.583-2.55,1.85-2.75C103.483,219.3,104.217,219.733,104.45,220.8z"/>
		</g>
	</g>
	<g>
		<g>
			<path style="fill-rule:evenodd;clip-rule:evenodd;fill:#A46F3F;" d="M100.4,152.8c0.1,0.9-0.283,1.45-1.15,1.65
				c-0.9,0.167-1.333-0.267-1.3-1.3c0.2-1.033,0.667-1.483,1.4-1.35C100.017,151.9,100.367,152.233,100.4,152.8z"/>
		</g>
	</g>
	<g>
		<g>
			<path style="fill-rule:evenodd;clip-rule:evenodd;fill:#A46F3F;" d="M106.5,159.95c0.133,0.633-0.083,1.017-0.65,1.15
				c-0.533,0.133-0.8-0.1-0.8-0.7c0-0.533,0.217-0.833,0.65-0.9C106.167,159.433,106.433,159.583,106.5,159.95z"/>
		</g>
	</g>
	<g>
		<g>
			<path style="fill-rule:evenodd;clip-rule:evenodd;fill:#A46F3F;" d="M103.85,124.65c0.1,1.367-0.533,2.184-1.9,2.45
				c-1.333,0.267-1.934-0.417-1.8-2.05c0.3-1.4,1-2.05,2.1-1.95S103.883,123.717,103.85,124.65z"/>
		</g>
	</g>
	<g>
		<g>
			<path style="fill-rule:evenodd;clip-rule:evenodd;fill:#A46F3F;" d="M106.4,139.1c0.167,1.367-0.217,2.033-1.15,2
				c-0.967-0.033-1.35-0.434-1.15-1.2c-0.067-0.633,0.233-1.1,0.9-1.4C105.667,138.167,106.133,138.367,106.4,139.1z"/>
		</g>
	</g>
	<g>
		<g>
			<path style="fill-rule:evenodd;clip-rule:evenodd;fill:#A46F3F;" d="M118.75,102.05c0.233,1.133-0.15,1.817-1.15,2.05
				c-1,0.2-1.5-0.233-1.5-1.3c0-1,0.4-1.55,1.2-1.65C118.1,101.017,118.583,101.317,118.75,102.05z"/>
		</g>
	</g>
	<g>
		<g>
			<path style="fill-rule:evenodd;clip-rule:evenodd;fill:#A46F3F;" d="M175.55,385.65c-0.2,1.133-0.85,1.633-1.95,1.5
				c-1.1-0.134-1.45-0.784-1.05-1.95c0.6-1.101,1.3-1.467,2.1-1.101C175.45,384.434,175.75,384.95,175.55,385.65z"/>
		</g>
	</g>
	<g>
		<g>
			<path style="fill-rule:evenodd;clip-rule:evenodd;fill:#A46F3F;" d="M173.85,413.2c-0.267,1.833-1.1,2.6-2.5,2.3
				c-1.434-0.3-1.883-1.083-1.35-2.35c0.367-1.233,1.117-1.801,2.25-1.7C173.383,411.55,173.917,412.134,173.85,413.2z"/>
		</g>
	</g>
	<g>
		<g>
			<path style="fill-rule:evenodd;clip-rule:evenodd;fill:#A46F3F;" d="M185,433.6c-0.134,3-1.616,4.5-4.45,4.5
				c-1.133,0.034-2-0.333-2.6-1.1c-0.7-0.833-0.883-1.967-0.55-3.4c0.933-2.899,2.5-4.083,4.7-3.55
				C184.233,430.55,185.2,431.733,185,433.6z"/>
		</g>
	</g>
	<g>
		<g>
			<path style="fill-rule:evenodd;clip-rule:evenodd;fill:#A46F3F;" d="M189.9,395.75c0.233-2.2,1.216-3.3,2.949-3.3
				c1.667,0,2.584,0.733,2.75,2.2c0.233,2.5-0.699,3.866-2.8,4.1C190.667,398.95,189.7,397.95,189.9,395.75z"/>
		</g>
	</g>
	<g>
		<g>
			<path style="fill-rule:evenodd;clip-rule:evenodd;fill:#A46F3F;" d="M195.9,415c0.033,1.233-0.4,1.833-1.301,1.8
				c-0.933-0.066-1.3-0.517-1.1-1.35c0.066-0.767,0.45-1.2,1.15-1.3C195.384,414.017,195.8,414.3,195.9,415z"/>
		</g>
	</g>
	<g>
		<g>
			<path style="fill-rule:evenodd;clip-rule:evenodd;fill:#A46F3F;" d="M171.95,433.2c0.133,0.7-0.434,1.316-1.7,1.85
				c-1.2,0.533-1.833-0.133-1.9-2c0.767-1.767,1.633-2.333,2.6-1.7C171.883,431.983,172.217,432.6,171.95,433.2z"/>
		</g>
	</g>
	<g>
		<g>
			<path style="fill-rule:evenodd;clip-rule:evenodd;fill:#A46F3F;" d="M143.5,293.3c0.133,2.334-0.55,3.384-2.05,3.15
				c-0.567-0.066-1.05-0.316-1.45-0.75c-0.4-0.467-0.517-0.9-0.35-1.3c0-1.034,0.55-1.767,1.65-2.2
				C142.4,291.733,143.133,292.1,143.5,293.3z"/>
		</g>
	</g>
	<g>
		<g>
			<path style="fill-rule:evenodd;clip-rule:evenodd;fill:#A46F3F;" d="M147.6,325.65c0.467,2.333-0.15,3.583-1.85,3.75
				c-0.667,0.066-1.25-0.101-1.75-0.5c-0.533-0.4-0.767-0.917-0.7-1.551c-0.066-1.3,0.483-2.25,1.65-2.85
				C146.117,323.9,147,324.283,147.6,325.65z"/>
		</g>
	</g>
	<g>
		<g>
			<path style="fill-rule:evenodd;clip-rule:evenodd;fill:#A46F3F;" d="M161.15,367.2c0.3,3.066-0.8,4.7-3.3,4.899
				c-0.967,0.067-1.783-0.199-2.45-0.8c-0.7-0.7-0.967-1.616-0.8-2.75c0.133-2.2,1.2-3.45,3.2-3.75
				C159.767,364.533,160.883,365.333,161.15,367.2z"/>
		</g>
	</g>
	<g>
		<g>
			<path style="fill-rule:evenodd;clip-rule:evenodd;fill:#A46F3F;" d="M176.75,348.95c0.333,0.899,0.05,1.6-0.85,2.1
				c-0.9,0.533-1.467,0.184-1.7-1.05c-0.067-1.1,0.316-1.717,1.15-1.85C176.15,348.017,176.617,348.283,176.75,348.95z"/>
		</g>
	</g>
	<g>
		<g>
			<path style="fill-rule:evenodd;clip-rule:evenodd;fill:#A46F3F;" d="M189.25,369.4c0.467,1.066,0.25,1.85-0.65,2.35
				c-0.933,0.5-1.533,0.167-1.8-1c-0.2-0.9,0.084-1.533,0.851-1.9C188.417,368.483,188.95,368.667,189.25,369.4z"/>
		</g>
	</g>
	<g>
		<g>
			<path style="fill-rule:evenodd;clip-rule:evenodd;fill:#A46F3F;" d="M164.45,392.5c0.466,1.533-0.017,2.616-1.45,3.25
				c-1.433,0.6-2.3-0.017-2.6-1.85c-0.033-1.634,0.583-2.551,1.85-2.75C163.483,390.95,164.217,391.4,164.45,392.5z"/>
		</g>
	</g>
	<g>
		<g>
			<path style="fill-rule:evenodd;clip-rule:evenodd;fill:#A46F3F;" d="M161.5,341.75c-0.967,0.1-1.767-0.15-2.4-0.75
				c-0.733-0.7-1.017-1.616-0.85-2.75c0.133-2.2,1.2-3.45,3.2-3.75s3.117,0.483,3.35,2.35C165.1,339.917,164,341.55,161.5,341.75z"
				/>
		</g>
	</g>
	<g>
		<g>
			<path style="fill-rule:evenodd;clip-rule:evenodd;fill:#A46F3F;" d="M150.6,348.9c0.333,1.066,0.1,1.699-0.7,1.899
				c-0.8,0.167-1.2-0.149-1.2-0.95c-0.1-0.533,0.117-0.983,0.65-1.35C149.917,348.167,150.333,348.3,150.6,348.9z"/>
		</g>
	</g>
	<g>
		<g>
			<path style="fill-rule:evenodd;clip-rule:evenodd;fill:#A46F3F;" d="M148.9,276.4c0.333,2.267-0.5,3.6-2.5,4
				c-2,0.433-2.933-0.483-2.8-2.75c0.1-1.867,0.967-2.917,2.6-3.15C147.8,274.267,148.7,274.9,148.9,276.4z"/>
		</g>
	</g>
	<g>
		<g>
			<path style="fill-rule:evenodd;clip-rule:evenodd;fill:#A46F3F;" d="M154.55,309.1c0.367,1.301,0.05,2.084-0.95,2.351
				c-1.033,0.233-1.55-0.167-1.55-1.2c-0.133-0.8,0.184-1.384,0.95-1.75C153.733,308.134,154.25,308.333,154.55,309.1z"/>
		</g>
	</g>
	<g>
		<g>
			<path style="fill-rule:evenodd;clip-rule:evenodd;fill:#A46F3F;" d="M136.75,308.05c0.367,1.167,0.1,1.851-0.8,2.05
				c-0.934,0.2-1.4-0.149-1.4-1.05c-0.167-0.7,0.1-1.217,0.8-1.55C136.017,307.167,136.483,307.35,136.75,308.05z"/>
		</g>
	</g>
	<g>
		<g>
			<path style="fill-rule:evenodd;clip-rule:evenodd;fill:#A46F3F;" d="M133.85,267.4c-0.067,1.633-0.8,2.433-2.2,2.399
				s-1.917-0.767-1.55-2.2c0.333-1.3,1.066-1.899,2.2-1.8C133.4,265.866,133.917,266.4,133.85,267.4z"/>
		</g>
	</g>
	<g>
		<g>
			<path style="fill-rule:evenodd;clip-rule:evenodd;fill:#A46F3F;" d="M142.8,256.95c0.067,1.733-0.533,2.566-1.8,2.5
				c-1.3-0.033-1.8-0.65-1.5-1.851c0.133-0.833,0.633-1.416,1.5-1.75C141.9,255.45,142.5,255.816,142.8,256.95z"/>
		</g>
	</g>
	<g>
		<g>
			<path style="fill-rule:evenodd;clip-rule:evenodd;fill:#A46F3F;" d="M131.05,288.75c0.167,1.467-0.2,2.134-1.1,2
				c-1-0.134-1.383-0.517-1.15-1.15c-0.1-0.633,0.184-1.116,0.85-1.449C130.35,287.816,130.817,288.017,131.05,288.75z"/>
		</g>
	</g>
	<g>
		<g>
			<path style="fill-rule:evenodd;clip-rule:evenodd;fill:#A46F3F;" d="M137.25,278.55c0.367,1.066,0.15,1.7-0.65,1.9
				c-0.833,0.166-1.25-0.15-1.25-0.95c-0.1-0.5,0.117-0.934,0.65-1.3C136.567,277.833,136.983,277.95,137.25,278.55z"/>
		</g>
	</g>
	<g>
		<g>
			<path style="fill-rule:evenodd;clip-rule:evenodd;fill:#A46F3F;" d="M127.7,247.9c0.267,1.399-0.2,2.233-1.4,2.5
				c-1.233,0.267-1.85-0.25-1.85-1.551c0-1.199,0.5-1.883,1.5-2.05C126.917,246.667,127.5,247.033,127.7,247.9z"/>
		</g>
	</g>
	<g>
		<g>
			<path style="fill-rule:evenodd;clip-rule:evenodd;fill:#A46F3F;" d="M144.5,239.3c0.1,0.733-0.317,1.217-1.25,1.45
				c-0.9,0.233-1.333-0.233-1.3-1.4c0.4-1.166,0.966-1.6,1.7-1.3C144.35,238.384,144.633,238.8,144.5,239.3z"/>
		</g>
	</g>
	<g>
		<g>
			<path style="fill-rule:evenodd;clip-rule:evenodd;fill:#A46F3F;" d="M147.7,250.2c0.1,0.5-0.067,0.8-0.5,0.899
				c-0.467,0.101-0.7-0.083-0.7-0.55c0-0.434,0.183-0.684,0.55-0.75S147.633,249.866,147.7,250.2z"/>
		</g>
	</g>
	<g>
		<g>
			<path style="fill-rule:evenodd;clip-rule:evenodd;fill:#A46F3F;" d="M127.2,241.25c0.267,0.434,0.15,0.816-0.35,1.15
				c-0.467,0.333-0.817,0.166-1.05-0.5c-0.1-0.667,0.083-1.034,0.55-1.101S127.1,240.884,127.2,241.25z"/>
		</g>
	</g>
	<g>
		<g>
			<path style="fill-rule:evenodd;clip-rule:evenodd;fill:#A46F3F;" d="M127.5,277.6c0.133,0.667-0.083,1.067-0.65,1.2
				c-0.533,0.134-0.8-0.116-0.8-0.75c0-0.533,0.217-0.833,0.65-0.899C127.167,277.083,127.433,277.233,127.5,277.6z"/>
		</g>
	</g>
	<g>
		<g>
			<path style="fill-rule:evenodd;clip-rule:evenodd;fill:#A46F3F;" d="M146.7,266.85c0.233,0.5,0.167,0.801-0.2,0.9
				c-0.4,0.134-0.583,0.033-0.55-0.3c-0.1-0.2-0.05-0.4,0.15-0.601C146.267,266.616,146.467,266.616,146.7,266.85z"/>
		</g>
	</g>
	<g>
		<g>
			<path style="fill-rule:evenodd;clip-rule:evenodd;fill:#A46F3F;" d="M122.55,258.95c0.267,0.366,0.25,0.75-0.05,1.149
				c-0.333,0.367-0.667,0.267-1-0.3c-0.2-0.399-0.117-0.717,0.25-0.95C122.083,258.616,122.35,258.65,122.55,258.95z"/>
		</g>
	</g>
	<g>
		<g>
			<path style="fill-rule:evenodd;clip-rule:evenodd;fill:#A46F3F;" d="M197.2,382.2c0.2,1.566-0.217,2.316-1.25,2.25
				c-1.101-0.066-1.533-0.517-1.3-1.351c-0.067-0.699,0.267-1.233,1-1.6C196.417,381.134,196.934,381.366,197.2,382.2z"/>
		</g>
	</g>
	<g>
		<g>
			<path style="fill-rule:evenodd;clip-rule:evenodd;fill:#A46F3F;" d="M178.05,364.75c0.2,3.167-0.75,4.634-2.85,4.4
				c-0.8-0.101-1.467-0.434-2-1c-0.567-0.601-0.733-1.233-0.5-1.9c0.033-1.333,0.767-2.333,2.2-3
				C176.4,362.55,177.45,363.05,178.05,364.75z"/>
		</g>
	</g>
	<g>
		<g>
			<path style="fill-rule:evenodd;clip-rule:evenodd;fill:#A46F3F;" d="M184.85,404.65c0.167,1.267-0.25,1.983-1.25,2.149
				c-1,0.167-1.466-0.316-1.399-1.45c0.033-0.699,0.399-1.199,1.1-1.5C184.066,403.517,184.583,403.783,184.85,404.65z"/>
		</g>
	</g>
	<g>
		<g>
			<path style="fill-rule:evenodd;clip-rule:evenodd;fill:#A46F3F;" d="M166.1,405.05c0.133,1.434-0.25,2.134-1.15,2.101
				c-1-0.067-1.4-0.483-1.2-1.25c0-0.534,0.3-1,0.9-1.4C165.317,404.1,165.8,404.283,166.1,405.05z"/>
		</g>
	</g>
	<g>
		<g>
			<path style="fill-rule:evenodd;clip-rule:evenodd;fill:#A46F3F;" d="M174.65,441.75c0.267,0.767,0.117,1.217-0.45,1.35
				c-0.6,0.134-0.9-0.066-0.9-0.6c-0.133-0.4,0-0.733,0.4-1C174.1,441.233,174.417,441.316,174.65,441.75z"/>
		</g>
	</g>
	<g>
		<g>
			<path style="fill-rule:evenodd;clip-rule:evenodd;fill:#A46F3F;" d="M242.15,393.45c-2.567,0.166-3.567-1.2-3-4.101
				c0.866-2.666,2.3-3.767,4.3-3.3c1.967,0.467,2.866,1.55,2.7,3.25C246.083,391.9,244.75,393.283,242.15,393.45z"/>
		</g>
	</g>
	<g>
		<g>
			<path style="fill-rule:evenodd;clip-rule:evenodd;fill:#A46F3F;" d="M229.5,390.1c-0.033,1.601-0.75,2.384-2.15,2.351
				c-1.433-0.033-1.966-0.767-1.6-2.2c0.333-1.333,1.066-1.934,2.2-1.8C229.05,388.55,229.566,389.1,229.5,390.1z"/>
		</g>
	</g>
	<g>
		<g>
			<path style="fill-rule:evenodd;clip-rule:evenodd;fill:#A46F3F;" d="M228.9,419.8c0.366,1.3,0.05,2.066-0.95,2.3
				c-1.033,0.233-1.55-0.166-1.55-1.199c-0.134-0.801,0.183-1.384,0.949-1.75C228.083,418.783,228.6,419,228.9,419.8z"/>
		</g>
	</g>
	<g>
		<g>
			<path style="fill-rule:evenodd;clip-rule:evenodd;fill:#A46F3F;" d="M220.4,438.05c0,1.101-0.7,1.783-2.101,2.05
				c-1.399,0.267-1.983-0.517-1.75-2.35c0.733-1.667,1.634-2.233,2.7-1.7S220.7,437.25,220.4,438.05z"/>
		</g>
	</g>
	<g>
		<g>
			<path style="fill-rule:evenodd;clip-rule:evenodd;fill:#A46F3F;" d="M209.9,442.4c0.1,0.733-0.233,1.183-1,1.35
				c-0.801,0.167-1.184-0.2-1.15-1.1c0.233-1,0.65-1.4,1.25-1.2C209.6,441.616,209.9,441.934,209.9,442.4z"/>
		</g>
	</g>
	<g>
		<g>
			<path style="fill-rule:evenodd;clip-rule:evenodd;fill:#A46F3F;" d="M183.75,452.65c0.033,0.267-0.05,0.433-0.25,0.5
				c-0.233,0.033-0.35-0.067-0.35-0.301s0.083-0.366,0.25-0.399C183.566,452.417,183.684,452.483,183.75,452.65z"/>
		</g>
	</g>
	<g>
		<g>
			<path style="fill-rule:evenodd;clip-rule:evenodd;fill:#A46F3F;" d="M200.1,448.05c0.2,0.8,0.017,1.267-0.55,1.4
				c-0.6,0.133-0.899-0.101-0.899-0.7c-0.067-0.267-0.017-0.434,0.149-0.5c0.2-0.1,0.3-0.233,0.3-0.4
				c-0.199-0.3-0.083-0.416,0.351-0.35C199.85,447.566,200.066,447.75,200.1,448.05z"/>
		</g>
	</g>
	<g>
		<g>
			<path style="fill-rule:evenodd;clip-rule:evenodd;fill:#A46F3F;" d="M174.2,454.7c0.233,0.267,0.216,0.616-0.05,1.05
				c-0.267,0.4-0.617,0.366-1.05-0.1c-0.2-0.7-0.1-1.084,0.3-1.15C173.767,454.4,174.033,454.467,174.2,454.7z"/>
		</g>
	</g>
	<g>
		<g>
			<path style="fill-rule:evenodd;clip-rule:evenodd;fill:#A46F3F;" d="M234.2,381.85c0.1,1.567-0.417,2.317-1.55,2.25
				c-1.167-0.033-1.65-0.55-1.45-1.55c0.033-1,0.517-1.583,1.45-1.75C233.517,380.667,234.033,381.017,234.2,381.85z"/>
		</g>
	</g>
	<g>
		<g>
			<path style="fill-rule:evenodd;clip-rule:evenodd;fill:#A46F3F;" d="M227.3,403.7c0.134,0.767-0.116,1.233-0.75,1.399
				c-0.666,0.167-1-0.116-1-0.85c0-0.667,0.267-1.033,0.8-1.1C226.884,403.05,227.2,403.233,227.3,403.7z"/>
		</g>
	</g>
	<g>
		<g>
			<path style="fill-rule:evenodd;clip-rule:evenodd;fill:#A46F3F;" d="M245,400.85c0.134,0.5-0.033,0.817-0.5,0.95
				c-0.434,0.101-0.65-0.1-0.65-0.6c0-0.434,0.184-0.667,0.551-0.7C244.733,400.434,244.934,400.55,245,400.85z"/>
		</g>
	</g>
	<g>
		<g>
			<path style="fill-rule:evenodd;clip-rule:evenodd;fill:#A46F3F;" d="M256.9,386.4c0.333,1,0,1.783-1,2.35
				c-0.967,0.533-1.601,0.116-1.9-1.25c-0.033-1.2,0.4-1.884,1.3-2.05C256.2,385.316,256.733,385.634,256.9,386.4z"/>
		</g>
	</g>
	<g>
		<g>
			<path style="fill-rule:evenodd;clip-rule:evenodd;fill:#B97C44;" d="M213.25,382.9c0.366,1.066,0.15,1.683-0.65,1.85
				c-0.833,0.2-1.25-0.1-1.25-0.9c-0.1-0.533,0.117-0.983,0.65-1.35C212.566,382.167,212.983,382.3,213.25,382.9z"/>
		</g>
	</g>
	<g>
		<g>
			<path style="fill-rule:evenodd;clip-rule:evenodd;fill:#B97C44;" d="M200.15,367.55c0.166,0.4-0.034,0.8-0.601,1.2
				c-0.6,0.4-1.017,0.134-1.25-0.8c0.167-0.934,0.517-1.316,1.05-1.15C199.85,366.934,200.116,367.184,200.15,367.55z"/>
		</g>
	</g>
	<g>
		<g>
			<path style="fill-rule:evenodd;clip-rule:evenodd;fill:#B97C44;" d="M208.95,400.25c0.633,1.7,0.2,2.85-1.3,3.45
				c-1.467,0.633-2.334,0.066-2.601-1.7c-0.2-1.434,0.316-2.366,1.55-2.8C207.8,398.767,208.583,399.116,208.95,400.25z"/>
		</g>
	</g>
	<g>
		<g>
			<path style="fill-rule:evenodd;clip-rule:evenodd;fill:#815934;" d="M39.9,392.65c0.033,1.233-0.4,1.833-1.3,1.8
				c-0.934-0.033-1.3-0.467-1.1-1.3c0.033-0.767,0.417-1.217,1.15-1.351C39.383,391.7,39.8,391.983,39.9,392.65z"/>
		</g>
	</g>
	<g>
		<g>
			<path style="fill-rule:evenodd;clip-rule:evenodd;fill:#815934;" d="M51.2,413.45c0,1.6-0.633,2.383-1.9,2.35
				c-1.3-0.033-1.783-0.684-1.45-1.95c0.167-1,0.75-1.566,1.75-1.699C50.633,412.017,51.167,412.45,51.2,413.45z"/>
		</g>
	</g>
	<g>
		<g>
			<path style="fill-rule:evenodd;clip-rule:evenodd;fill:#815934;" d="M30.1,376.3c0.033,2.3-0.75,3.367-2.35,3.2
				c-0.633-0.066-1.15-0.333-1.55-0.8c-0.4-0.467-0.517-0.983-0.35-1.55c0.133-1.334,0.816-2.101,2.05-2.301
				C29.167,374.616,29.9,375.1,30.1,376.3z"/>
		</g>
	</g>
	<g>
		<g>
			<path style="fill-rule:evenodd;clip-rule:evenodd;fill:#815934;" d="M34.95,403.55c0.3,0.7,0.066,1.316-0.7,1.851
				c-0.767,0.533-1.3,0.216-1.6-0.95c-0.033-0.967,0.3-1.517,1-1.65C34.383,402.7,34.817,402.95,34.95,403.55z"/>
		</g>
	</g>
	<g>
		<g>
			<path style="fill-rule:evenodd;clip-rule:evenodd;fill:#815934;" d="M38.95,353.05c-1.233,0.167-2.284-0.116-3.15-0.85
				c-0.933-0.8-1.35-1.9-1.25-3.3c0.034-2.967,1.317-4.65,3.85-5.051c2.467-0.399,3.917,0.534,4.35,2.801
				C43.317,350.517,42.05,352.65,38.95,353.05z"/>
		</g>
	</g>
	<g>
		<g>
			<path style="fill-rule:evenodd;clip-rule:evenodd;fill:#815934;" d="M40.05,371.75c-1.833,0.066-2.583-0.816-2.25-2.65
				c0.133-1.533,0.934-2.399,2.4-2.6c1.466-0.2,2.267,0.384,2.4,1.75C42.733,370.55,41.883,371.717,40.05,371.75z"/>
		</g>
	</g>
	<g>
		<g>
			<path style="fill-rule:evenodd;clip-rule:evenodd;fill:#815934;" d="M29.85,360.55c0.1,1.533-0.417,2.267-1.55,2.2
				c-1.167-0.033-1.633-0.55-1.4-1.55c0.033-1,0.5-1.566,1.4-1.7C29.2,359.366,29.717,359.717,29.85,360.55z"/>
		</g>
	</g>
	<g>
		<g>
			<path style="fill-rule:evenodd;clip-rule:evenodd;fill:#815934;" d="M53.5,315.9c-0.167,1.3-0.9,1.933-2.2,1.899
				c-1.3-0.033-1.767-0.767-1.4-2.2c0.633-1.433,1.434-1.949,2.4-1.55C53.233,314.45,53.633,315.066,53.5,315.9z"/>
		</g>
	</g>
	<g>
		<g>
			<path style="fill-rule:evenodd;clip-rule:evenodd;fill:#815934;" d="M79.95,271.45c-0.967-0.101-1.284-0.601-0.95-1.5
				c0.133-0.667,0.583-1.05,1.35-1.15c0.733-0.1,1.117,0.233,1.15,1C81.4,271,80.883,271.55,79.95,271.45z"/>
		</g>
	</g>
	<g>
		<g>
			<path style="fill-rule:evenodd;clip-rule:evenodd;fill:#815934;" d="M75.8,277.05c-0.433,2.2-1.35,3.033-2.75,2.5
				c-0.533-0.2-0.917-0.55-1.15-1.05c-0.267-0.5-0.267-0.95,0-1.35c0.233-0.967,0.917-1.517,2.05-1.65
				C75.083,275.333,75.7,275.85,75.8,277.05z"/>
		</g>
	</g>
	<g>
		<g>
			<path style="fill-rule:evenodd;clip-rule:evenodd;fill:#815934;" d="M93.6,245c0.167,1.4-0.367,2.217-1.6,2.45
				c-1.267,0.233-1.833-0.367-1.7-1.8c0.1-1.101,0.65-1.717,1.65-1.851C92.95,243.667,93.5,244.066,93.6,245z"/>
		</g>
	</g>
	<g>
		<g>
			<path style="fill-rule:evenodd;clip-rule:evenodd;fill:#815934;" d="M95,166.8c0.833,1.934,0.3,3.434-1.6,4.5
				c-1.9,1.1-3.15,0.4-3.75-2.1c-0.267-2.4,0.467-3.75,2.2-4.05C93.517,164.85,94.567,165.4,95,166.8z"/>
		</g>
	</g>
	<g>
		<g>
			<path style="fill-rule:evenodd;clip-rule:evenodd;fill:#815934;" d="M90.6,153.55c0.333,1.067,0.1,1.7-0.7,1.9
				c-0.8,0.167-1.2-0.15-1.2-0.95c-0.1-0.533,0.117-0.967,0.65-1.3C89.917,152.833,90.333,152.95,90.6,153.55z"/>
		</g>
	</g>
	<g>
		<g>
			<path style="fill-rule:evenodd;clip-rule:evenodd;fill:#815934;" d="M96.6,211.1c0.066,1.133-0.483,1.8-1.65,2
				c-1.133,0.2-1.617-0.4-1.45-1.8c0.267-1.1,0.867-1.6,1.8-1.5C96.233,209.867,96.667,210.3,96.6,211.1z"/>
		</g>
	</g>
	<g>
		<g>
			<path style="fill-rule:evenodd;clip-rule:evenodd;fill:#815934;" d="M97.45,199.75c0.2,0.667-0.1,1.217-0.9,1.65
				c-0.767,0.434-1.283,0.083-1.55-1.05c0.133-1.133,0.567-1.65,1.3-1.55C97.033,198.867,97.417,199.183,97.45,199.75z"/>
		</g>
	</g>
	<g>
		<g>
			<path style="fill-rule:evenodd;clip-rule:evenodd;fill:#815934;" d="M94.95,226.05c0.167,0.767-0.083,1.233-0.75,1.4
				c-0.667,0.167-1-0.117-1-0.85c0-0.667,0.267-1.033,0.8-1.1C94.567,225.4,94.883,225.583,94.95,226.05z"/>
		</g>
	</g>
	<g>
		<g>
			<path style="fill-rule:evenodd;clip-rule:evenodd;fill:#815934;" d="M90.1,142.5c0.2,0.9-0.083,1.433-0.85,1.6
				c-0.8,0.2-1.2-0.133-1.2-1c0-0.767,0.317-1.2,0.95-1.3C89.633,141.7,90,141.933,90.1,142.5z"/>
		</g>
	</g>
	<g>
		<g>
			<path style="fill-rule:evenodd;clip-rule:evenodd;fill:#815934;" d="M96.8,159.8c0.267,0.6,0.067,1.133-0.6,1.6
				c-0.633,0.467-1.1,0.2-1.4-0.8c-0.033-0.867,0.267-1.35,0.9-1.45S96.7,159.267,96.8,159.8z"/>
		</g>
	</g>
	<g>
		<g>
			<path style="fill-rule:evenodd;clip-rule:evenodd;fill:#815934;" d="M95.4,178.25c-0.033,1.467-0.517,2.1-1.45,1.9
				c-1-0.2-1.333-0.667-1-1.4c0.066-0.533,0.417-0.95,1.05-1.25C94.7,177.2,95.167,177.45,95.4,178.25z"/>
		</g>
	</g>
	<path style="fill-rule:evenodd;clip-rule:evenodd;fill:#A26E3E;" d="M132.3,220.85c1.034,0,2,0.433,2.9,1.3
		c0.933,0.9,1.466,1.967,1.6,3.2c0.1,1.033-0.2,2.1-0.9,3.2c-0.367,0.534-0.733,0.967-1.1,1.3v-4c0-1.033-0.417-2.184-1.25-3.45
		L132.3,220.85z"/>
	<g>
		<g>
			<path style="fill-rule:evenodd;clip-rule:evenodd;fill:#B97C44;" d="M136.4,408.15c0.733-1.367,1.583-1.75,2.55-1.15
				c1,0.634,1.117,1.35,0.35,2.15c-0.533,0.733-1.216,0.966-2.05,0.699C136.383,409.55,136.1,408.983,136.4,408.15z"/>
		</g>
	</g>
	<g>
		<g>
			<path style="fill-rule:evenodd;clip-rule:evenodd;fill:#B97C44;" d="M131.8,433c1.534-1.767,3.217-2.017,5.05-0.75
				c1.833,1.267,1.767,2.75-0.2,4.45c-1.867,1.333-3.433,1.316-4.7-0.05C130.717,435.35,130.667,434.134,131.8,433z"/>
		</g>
	</g>
	<g>
		<g>
			<path style="fill-rule:evenodd;clip-rule:evenodd;fill:#B97C44;" d="M155.65,436.05c1.167-2.166,2.65-2.75,4.45-1.75
				c1.833,1.033,2.066,2.334,0.7,3.9c-1.367,1.666-2.733,2.017-4.1,1.05C155.333,438.316,154.983,437.25,155.65,436.05z"/>
		</g>
	</g>
	<g>
		<g>
			<path style="fill-rule:evenodd;clip-rule:evenodd;fill:#B97C44;" d="M128.55,377.9c-1.033-2.867-0.3-4.851,2.2-5.95
				c0.967-0.467,1.883-0.483,2.75-0.05c0.933,0.5,1.533,1.466,1.8,2.899c0.333,2.467-0.517,4.101-2.55,4.9
				S129.317,379.9,128.55,377.9z"/>
		</g>
	</g>
	<g>
		<g>
			<path style="fill-rule:evenodd;clip-rule:evenodd;fill:#B97C44;" d="M121.85,399.95c1.9-0.233,2.933,0.25,3.1,1.45
				c0.333,0.8,0.433,1.75,0.3,2.85c-0.1,0.866-0.267,1.467-0.5,1.8c-5.033,2.9-7.417,2.267-7.15-1.899
				C118.367,401.583,119.783,400.184,121.85,399.95z"/>
		</g>
	</g>
	<g>
		<g>
			<path style="fill-rule:evenodd;clip-rule:evenodd;fill:#B97C44;" d="M103.2,324.55c2-3.2,4.283-3.983,6.85-2.35
				c1,0.633,1.583,1.483,1.75,2.55c0.2,1.167-0.2,2.25-1.2,3.25c-1.767,2.033-3.717,2.467-5.85,1.3
				C102.65,328.167,102.133,326.583,103.2,324.55z"/>
		</g>
	</g>
	<g>
		<g>
			<path style="fill-rule:evenodd;clip-rule:evenodd;fill:#B97C44;" d="M89.1,337.6c0.167-1,1-1.6,2.5-1.8s2.017,0.733,1.55,2.8
				c-1.1,1.634-2.167,2.067-3.2,1.301C88.917,339.2,88.633,338.434,89.1,337.6z"/>
		</g>
	</g>
	<g>
		<g>
			<path style="fill-rule:evenodd;clip-rule:evenodd;fill:#B97C44;" d="M92.8,310.95c1.7-1.967,3.7-2.2,6-0.7
				c2.233,1.5,2.133,3.316-0.3,5.45c-2.6,1.633-4.55,1.55-5.85-0.25C91.35,313.65,91.4,312.15,92.8,310.95z"/>
		</g>
	</g>
	<g>
		<g>
			<path style="fill-rule:evenodd;clip-rule:evenodd;fill:#B97C44;" d="M123.65,325.75c0.434-0.533,1.1-0.533,2,0
				s0.85,1.233-0.15,2.1c-1.4,0.5-2.183,0.317-2.35-0.55C122.95,326.4,123.117,325.884,123.65,325.75z"/>
		</g>
	</g>
	<g>
		<g>
			<path style="fill-rule:evenodd;clip-rule:evenodd;fill:#B97C44;" d="M80.85,321.8l-0.1,0.5c0.133-0.2,0.25-0.35,0.35-0.45
				c0.4-0.533,0.583-0.166,0.55,1.101c-0.767,0.166-1.167,0.033-1.2-0.4C80.383,322.083,80.517,321.833,80.85,321.8z"/>
		</g>
	</g>
	<g>
		<g>
			<path style="fill-rule:evenodd;clip-rule:evenodd;fill:#B97C44;" d="M98.5,376.85c0.367,0.101,0.567,0.4,0.6,0.9
				c0.033,0.467-0.267,0.616-0.9,0.45c-0.534-0.334-0.684-0.667-0.45-1C97.983,376.866,98.233,376.75,98.5,376.85z"/>
		</g>
	</g>
	<g>
		<g>
			<path style="fill-rule:evenodd;clip-rule:evenodd;fill:#B97C44;" d="M89.25,363.45c1.333-1.101,2.783-1.05,4.35,0.149
				c1.566,1.233,1.283,2.584-0.85,4.051c-2.067,0.833-3.467,0.517-4.2-0.95C87.817,365.267,88.05,364.184,89.25,363.45z"/>
		</g>
	</g>
	<g>
		<g>
			<path style="fill-rule:evenodd;clip-rule:evenodd;fill:#B97C44;" d="M109.65,342c0.8-0.833,1.684-1.15,2.65-0.95
				c0.9,0.167,1.367,0.566,1.4,1.2c0.1,0.533,0.05,1.05-0.15,1.55c-0.167,0.467-0.433,0.783-0.8,0.95c-0.9,0.6-1.833,0.55-2.8-0.15
				C108.95,343.833,108.85,342.967,109.65,342z"/>
		</g>
	</g>
	<g>
		<g>
			<path style="fill-rule:evenodd;clip-rule:evenodd;fill:#A46F3F;" d="M130.85,356.9c0.066-1.467,0.617-2.517,1.65-3.15
				c0.933-0.566,1.717-0.6,2.35-0.1c0.6,0.433,1.017,0.949,1.25,1.55c0.267,0.6,0.283,1.166,0.05,1.7c-0.367,1.267-1.3,2-2.8,2.199
				C131.783,359.3,130.95,358.566,130.85,356.9z"/>
		</g>
	</g>
	<g>
		<g>
			<path style="fill-rule:evenodd;clip-rule:evenodd;fill:#A46F3F;" d="M130.4,338.15c0.733-1.367,1.583-1.75,2.55-1.15
				c1,0.634,1.117,1.35,0.35,2.15c-0.533,0.733-1.216,0.966-2.05,0.699C130.383,339.55,130.1,338.983,130.4,338.15z"/>
		</g>
	</g>
	<g>
		<g>
			<path style="fill-rule:evenodd;clip-rule:evenodd;fill:#A46F3F;" d="M119.9,445.25c-0.667-0.934-0.583-1.717,0.25-2.35
				c1.867-0.967,3.033-0.75,3.5,0.649c0.5,1.467,0.133,2.267-1.1,2.4C121.45,446.417,120.567,446.184,119.9,445.25z"/>
		</g>
	</g>
	<g>
		<g>
			<path style="fill-rule:evenodd;clip-rule:evenodd;fill:#A46F3F;" d="M144.25,446.55c2.3-0.467,3.667,0.283,4.1,2.25
				c0.467,2-0.383,3-2.55,3c-1.966,0-3.066-0.8-3.3-2.399C142.233,447.8,142.817,446.85,144.25,446.55z"/>
		</g>
	</g>
	<g>
		<g>
			<path style="fill-rule:evenodd;clip-rule:evenodd;fill:#A46F3F;" d="M143.75,406.35c0.5-1.899,1.317-2.55,2.45-1.949
				c1.233,0.6,1.517,1.283,0.85,2.05c-0.267,0.767-0.867,1.2-1.8,1.3C144.283,407.884,143.783,407.417,143.75,406.35z"/>
		</g>
	</g>
	<g>
		<g>
			<path style="fill-rule:evenodd;clip-rule:evenodd;fill:#A46F3F;" d="M117.8,429.15c0.633-0.567,1.267-0.601,1.9-0.101
				s0.533,1.033-0.3,1.601c-0.533,0.3-1.05,0.25-1.55-0.15S117.333,429.65,117.8,429.15z"/>
		</g>
	</g>
	<g>
		<g>
			<path style="fill-rule:evenodd;clip-rule:evenodd;fill:#B97C44;" d="M101.2,389.05c0.633-2.1,1.767-3.45,3.4-4.05
				c1.467-0.533,2.633-0.366,3.5,0.5c0.8,0.767,1.3,1.65,1.5,2.65c0.167,1.033-0.017,1.933-0.55,2.699
				c-0.966,1.767-2.617,2.534-4.95,2.301C101.733,392.884,100.767,391.517,101.2,389.05z"/>
		</g>
	</g>
	<g>
		<g>
			<path style="fill-rule:evenodd;clip-rule:evenodd;fill:#B97C44;" d="M90.05,353.45c0.767-0.5,1.3-0.417,1.6,0.25
				c0.333,0.7,0.217,1.116-0.35,1.25c-0.833,0.3-1.333,0.166-1.5-0.4C89.667,354.017,89.75,353.65,90.05,353.45z"/>
		</g>
	</g>
	<g>
		<g>
			<path style="fill-rule:evenodd;clip-rule:evenodd;fill:#A46F3F;" d="M71.55,328.1c0.367-1.933,1.25-2.716,2.65-2.35
				c1.433,0.366,1.833,1.184,1.2,2.45c-0.333,0.967-1.05,1.5-2.15,1.6C72.15,329.9,71.583,329.333,71.55,328.1z"/>
		</g>
	</g>
	<g>
		<g>
			<path style="fill-rule:evenodd;clip-rule:evenodd;fill:#A46F3F;" d="M82.75,407.55c0.833,0.533,1.35,1.283,1.55,2.25
				c0.2,1-0.1,1.884-0.9,2.65c-1.2,1.6-2.75,2.083-4.65,1.45c-1.933-0.667-2.55-1.967-1.85-3.9
				C78.6,406.934,80.55,406.116,82.75,407.55z"/>
		</g>
	</g>
	<g>
		<g>
			<path style="fill-rule:evenodd;clip-rule:evenodd;fill:#A46F3F;" d="M72.8,382.8c0.034-0.967,0.4-1.7,1.1-2.2
				c0.667-0.5,1.233-0.583,1.7-0.25c0.533,0.534,0.85,0.9,0.95,1.101c0.267,0.399,0.317,0.833,0.15,1.3
				c-0.267,1.033-0.967,1.6-2.1,1.7C73.433,384.583,72.833,384.033,72.8,382.8z"/>
		</g>
	</g>
	<g>
		<g>
			<path style="fill-rule:evenodd;clip-rule:evenodd;fill:#A46F3F;" d="M66.4,402.75c0.3-1.167,0.85-1.75,1.65-1.75
				c0.767-0.033,1.1,0.184,1,0.65c0.034,0.3,0.034,0.633,0,1c-0.066,0.3-0.133,0.483-0.2,0.55c0-0.033-0.317,0.149-0.95,0.55
				C67.133,404.184,66.633,403.85,66.4,402.75z"/>
		</g>
	</g>
	<g>
		<g>
			<path style="fill-rule:evenodd;clip-rule:evenodd;fill:#A46F3F;" d="M88.15,437.4c3.1-3.4,5.733-3.851,7.9-1.351
				c0.833,0.934,1.217,2,1.15,3.2c-0.067,1.267-0.633,2.2-1.7,2.8c-1.833,1.634-3.85,1.834-6.05,0.601
				C87.217,441.417,86.783,439.667,88.15,437.4z"/>
		</g>
	</g>
	<g>
		<g>
			<path style="fill-rule:evenodd;clip-rule:evenodd;fill:#A46F3F;" d="M74.2,432.05c1.1-1.133,2.033-1.267,2.8-0.399
				c0.767,0.899,0.683,1.6-0.25,2.1c-0.733,0.6-1.467,0.634-2.2,0.1C73.817,433.35,73.7,432.75,74.2,432.05z"/>
		</g>
	</g>
	<g>
		<g>
			<path style="fill-rule:evenodd;clip-rule:evenodd;fill:#A46F3F;" d="M67.2,358c2-2,3.883-2.15,5.65-0.45
				c0.7,0.667,1.017,1.417,0.95,2.25c-0.033,0.967-0.55,1.767-1.55,2.4c-1.967,1.333-3.6,1.267-4.9-0.2
				C66.017,360.6,65.967,359.267,67.2,358z"/>
		</g>
	</g>
</g>
</svg>
