<?xml version="1.0" encoding="iso-8859-1"?>
<!-- Generator: Adobe Illustrator 15.1.0, SVG Export Plug-In . SVG Version: 6.00 Build 0)  -->
<!DOCTYPE svg PUBLIC "-//W3C//DTD SVG 1.1//EN" "http://www.w3.org/Graphics/SVG/1.1/DTD/svg11.dtd">
<svg version="1.1" id="mountains" xmlns="http://www.w3.org/2000/svg" xmlns:xlink="http://www.w3.org/1999/xlink" x="0px" y="0px"
	 width="225.95px" height="442.15px" viewBox="0 0 225.95 442.15" style="enable-background:new 0 0 225.95 442.15;"
	 xml:space="preserve">
<g>
	<path style="fill-rule:evenodd;clip-rule:evenodd;fill:#8FB0A4;" d="M28.125-0.025C47.072,43.16,68.097,90.901,91.2,143.2
		C137.333,247.733,171.967,325.533,195.1,376.6L215.7,421.65c5.399,11.466,8.684,18.116,9.85,19.949
		c0.161,0.296,0.286,0.479,0.375,0.551l-1.175-0.7c-6.566-1.233-11.9-2.334-16-3.3c-20.566-5-35.667-8.551-45.3-10.65
		c-17.334-3.733-24.084-4.134-20.25-1.2c3.767,2.9,8.149,5.867,13.149,8.9c2.5,1.5,4.617,2.717,6.351,3.649
		c-6.834-0.1-14.3-0.449-22.4-1.05c-16.133-1.166-27.25-2.916-33.35-5.25c-3.9-1.467-11.05-5.467-21.45-12
		c-3.533-2.233-5.983-3.583-7.35-4.05c-1.867-0.634-2.717-0.15-2.55,1.45c0.133,1.399,0.8,3.55,2,6.45
		c0.667,1.633,1.65,4.033,2.95,7.199c1.967,5.301,1.017,7.25-2.85,5.851c-1.867-0.667-5.25-2.233-10.15-4.7
		c-6.867-3.434-11.267-5.616-13.2-6.55c-11.367-5.334-18.467-7.167-21.3-5.5c-1.433,0.866-3.05,2.666-4.85,5.399
		c-1.034,1.567-2.6,4.017-4.7,7.351c-4.1,5.8-8.35,7.6-12.75,5.399c-8.733-4.333-12.15-13.166-10.25-26.5
		c7.933-33.233,15-64.716,21.2-94.449c9.033-43.034,15.65-79.584,19.85-109.65c2-14.167,3.217-29.6,3.65-46.3
		c0.533-21.833-0.367-45.167-2.7-70V91.9c-0.933-9.933-2.017-19.433-3.25-28.5C36.217,40.333,32.567,19.433,28.3,0.7l-0.1-0.45
		L28.15,0.1L28.125-0.025z"/>
	<g>
		<path style="fill-rule:evenodd;clip-rule:evenodd;fill:#74A090;" d="M42.5,91.9c-0.933-9.933-2.017-19.433-3.25-28.5
			c-2.654-20.183-5.754-38.717-9.3-55.6c16.238,66.418,28.205,116.884,35.9,151.4c2.533,11.333,6.65,12.9,12.35,4.7
			c2.767-3.967,5.633-9.8,8.6-17.5c-1.333,4.533-3.017,10.667-5.05,18.4c-3.533,13.367-6.6,25.917-9.2,37.65
			c-8.133,36.733-10.367,58.983-6.7,66.75c3.633,7.733,8.283,8.267,13.95,1.6c1.8-2.133,3.633-4.916,5.5-8.35
			c0.9-1.667,1.733-3.384,2.5-5.15c-0.133,0.533-1.417,6.101-3.85,16.7c-2.633,12.233-4.65,23.434-6.05,33.6
			c-4.4,32-2.083,48.2,6.95,48.601c9.167,0.434,18.583-7.434,28.25-23.601c3.034-5.066,5.9-10.649,8.601-16.75l3.149-7.649
			l-0.05,10.5c0.167,8.434,0.767,16.184,1.8,23.25c3.334,22.666,10.417,34.416,21.25,35.25c10.834,0.833,20.75-1.584,29.75-7.25
			c2.801-1.767,5.351-3.75,7.65-5.95l2.6-2.8l27.851,60.45c5.399,11.466,8.684,18.116,9.85,19.949
			c0.161,0.296,0.286,0.479,0.375,0.551l-1.175-0.7c-6.566-1.233-11.9-2.334-16-3.3c-20.566-5-35.667-8.551-45.3-10.65
			c-17.334-3.733-24.084-4.134-20.25-1.2c3.767,2.9,8.149,5.867,13.149,8.9c2.5,1.5,4.617,2.717,6.351,3.649
			c-6.834-0.1-14.3-0.449-22.4-1.05c-16.133-1.166-27.25-2.916-33.35-5.25c-3.9-1.467-11.05-5.467-21.45-12
			c-3.533-2.233-5.983-3.583-7.35-4.05c-1.867-0.634-2.717-0.15-2.55,1.45c0.133,1.399,0.8,3.55,2,6.45
			c0.667,1.633,1.65,4.033,2.95,7.199c1.967,5.301,1.017,7.25-2.85,5.851c-1.867-0.667-5.25-2.233-10.15-4.7
			c-6.867-3.434-11.267-5.616-13.2-6.55c-11.367-5.334-18.467-7.167-21.3-5.5c-1.433,0.866-3.05,2.666-4.85,5.399
			c-1.034,1.567-2.6,4.017-4.7,7.351c-4.1,5.8-8.35,7.6-12.75,5.399c-8.733-4.333-12.15-13.166-10.25-26.5
			c7.933-33.233,15-64.716,21.2-94.449c9.033-43.034,15.65-79.584,19.85-109.65c2-14.167,3.217-29.6,3.65-46.3
			c0.533-21.833-0.367-45.167-2.7-70V91.9z"/>
	</g>
	<path style="fill-rule:evenodd;clip-rule:evenodd;fill:#74A090;" d="M93.85,169.2l-0.65,11.9c-0.667,9.566-1.483,18.367-2.45,26.4
		c-3.167,25.767-7.467,39.167-12.9,40.2c-5.4,1.033-4.35-11.733,3.15-38.3c2.333-8.3,5.167-17.5,8.5-27.6L93.85,169.2z"/>
	<path style="fill-rule:evenodd;clip-rule:evenodd;fill:#74A090;" d="M106.85,211.7l0.4,13.2c0.167,10.566,0.083,20.333-0.25,29.3
		c-1.167,28.666-4.883,43.833-11.15,45.5c-6.233,1.666-6.267-12.5-0.1-42.5c1.9-9.367,4.317-19.767,7.25-31.2L106.85,211.7z"/>
	<path style="fill-rule:evenodd;clip-rule:evenodd;fill:#74A090;" d="M138.95,296.8c2,7,3.7,13.7,5.1,20.101
		c4.4,20.399,4.834,33.833,1.3,40.3c-3.533,6.467-6.1-3.101-7.699-28.7c-0.5-7.967-0.867-17.083-1.101-27.35l-0.2-12.95
		L138.95,296.8z"/>
	<path style="fill-rule:evenodd;clip-rule:evenodd;fill:#A1C6BA;" d="M41.35,38.2c7.9,17.466,15.3,35.117,22.2,52.95
		c13.8,35.633,18.233,54.317,13.3,56.05c-3.533,1.267-10.517-16.517-20.95-53.35C50.7,75.417,45.85,56.867,41.35,38.2z"/>
	<path style="fill-rule:evenodd;clip-rule:evenodd;fill:#A1C6BA;" d="M110.85,201.7l6.2,31.7c3.9,22.733,5.334,38.166,4.3,46.3
		c-3.966,31.033-11.8,50.7-23.5,59c-6.467,4.6-10.65,3.816-12.55-2.351c-0.6-1.933-0.933-4.283-1-7.05l0.05-3.6
		c3.333-1.4,6.983-3.983,10.95-7.75c7.9-7.5,13.417-17.084,16.55-28.75c3.133-11.667,3.9-29.75,2.3-54.25
		c-0.5-7.667-1.2-15.5-2.101-23.5L110.85,201.7z"/>
	<path style="fill-rule:evenodd;clip-rule:evenodd;fill:#A1C6BA;" d="M95.55,181.5l0.3-20.3c1.4,13.3,2.133,27.1,2.2,41.4
		c0.067,18.9-1.333,31.433-4.2,37.6c-2.7,5.833-5.434,9.916-8.2,12.25c-1.367,1.166-2.467,1.75-3.3,1.75
		c1.467-3.267,3.033-7.267,4.7-12c3.3-9.434,5.4-17.767,6.3-25C94.383,208.667,95.117,196.767,95.55,181.5z"/>
	<path style="fill-rule:evenodd;clip-rule:evenodd;fill:#A1C6BA;" d="M140.55,283.5l-3.2-9.8
		c8.367,10.533,15.051,27.666,20.051,51.399c2.1,9.9,3.267,18.551,3.5,25.95c0.233,7.733-0.617,12.45-2.551,14.15
		c-3.333,2.934-6.583,3.733-9.75,2.399c-1-0.433-1.916-1.05-2.75-1.85l-1-1.05c0.934,0.5,2.017,0.316,3.25-0.55
		c2.5-1.767,4.584-6.084,6.25-12.95c1.667-6.867-0.666-21.851-7-44.95C145.384,299.05,143.116,291.467,140.55,283.5z"/>
	<path style="fill-rule:evenodd;clip-rule:evenodd;fill:#668D7F;" d="M39.8,71.75c-1.2-8.2-2.017-14.183-2.45-17.95l1.9,9.6
		c4,19.967,7.533,38.217,10.6,54.75c4.667,25.267,7.167,41.117,7.5,47.55c0.433,7.7,0.316,16.6-0.35,26.7
		c-0.333,5.033-0.717,9.3-1.15,12.8l16.5-26l-3.55,15.45c-2.8,12.467-5.233,24.117-7.3,34.95c-6.667,34.667-8.55,54.7-5.65,60.101
		c2.933,5.434,7.066,6.566,12.4,3.399c1.667-1,3.35-2.366,5.05-4.1l2.05-2.3l-10.8,47.45c-6.6,32.066-8.333,49.25-5.2,51.55
		s7.9,1.483,14.3-2.45c2.033-1.233,4.083-2.684,6.15-4.35l2.55-2.2l-1,31l17.5-9.5l12.5,25l49.5-20.5l63.9,38.75
		c-6.566-1.233-11.9-2.334-16-3.3c-20.566-5-35.667-8.551-45.3-10.65c-17.334-3.733-24.084-4.134-20.25-1.2
		c3.767,2.9,8.149,5.867,13.149,8.9c2.5,1.5,4.617,2.717,6.351,3.649c-6.834-0.1-14.3-0.449-22.4-1.05
		c-16.133-1.166-27.25-2.916-33.35-5.25c-3.9-1.467-11.05-5.467-21.45-12c-3.533-2.233-5.983-3.583-7.35-4.05
		c-1.867-0.634-2.717-0.15-2.55,1.45c0.133,1.399,0.8,3.55,2,6.45c0.667,1.633,1.65,4.033,2.95,7.199
		c1.967,5.301,1.017,7.25-2.85,5.851c-1.867-0.667-5.25-2.233-10.15-4.7c-6.867-3.434-11.267-5.616-13.2-6.55
		c-11.367-5.334-18.467-7.167-21.3-5.5c-1.433,0.866-3.05,2.666-4.85,5.399c-1.034,1.567-2.6,4.017-4.7,7.351
		c-4.1,5.8-8.35,7.6-12.75,5.399c-8.733-4.333-12.15-13.166-10.25-26.5l1.25-7.199c20.333-89.101,33.367-154.584,39.1-196.45
		c2.2-16.167,3.65-31.75,4.35-46.75c0.6-13.2,0.6-26.083,0-38.65c-0.467-10.033-1.367-20.483-2.7-31.35V91.9
		C41.9,87.067,41,80.35,39.8,71.75z"/>
</g>
</svg>
