<?xml version="1.0" encoding="iso-8859-1"?>
<!-- Generator: Adobe Illustrator 15.1.0, SVG Export Plug-In . SVG Version: 6.00 Build 0)  -->
<!DOCTYPE svg PUBLIC "-//W3C//DTD SVG 1.1//EN" "http://www.w3.org/Graphics/SVG/1.1/DTD/svg11.dtd">
<svg version="1.1" id="mountains" xmlns="http://www.w3.org/2000/svg" xmlns:xlink="http://www.w3.org/1999/xlink" x="0px" y="0px"
	 width="368.85px" height="694.3px" viewBox="0 0 368.85 694.3" style="enable-background:new 0 0 368.85 694.3;"
	 xml:space="preserve">
<g>
	<path style="fill-rule:evenodd;clip-rule:evenodd;fill:#8FB0A4;" d="M249.45,244.6c3.399-10.833,3.7-18,0.899-21.5
		c-3.233-4.033-7.3-7.017-12.199-8.95c-4.4-1.733-9.117-2.483-14.15-2.25c-0.467,0-0.816,0.017-1.05,0.05L222.3,212h-0.149l-2.7,0.4
		h-0.15l-1.25,0.25h-0.1l-1.05,0.3c-0.233,0.033-0.967,0.233-2.2,0.6l-3.15,1.2l-4,2.2V217h-0.05l-2.15,1.6
		c-2.333,2-3.166,5.566-2.5,10.7c0.467,3.7,1.9,9.05,4.301,16.05c3.333,9.8,5.199,15.433,5.6,16.9
		c1.733,5.967,2.267,10.417,1.6,13.35c-0.066,0.433-0.216,1.066-0.449,1.9l-7.5,24.8l-1.25,6.55l-0.051,0.95l-0.05,0.25V311
		c0,2.533,0.601,4.233,1.8,5.1c1.467,1.1,5.134-2.4,11-10.5c5.767-7.967,11.601-17.533,17.5-28.7
		C241.884,264.567,246.583,253.8,249.45,244.6z M119.05,89.7l-2.4,1.6c-0.767,0.6-1.467,1.217-2.1,1.85l-1.2,1.15
		c-0.333,0.333-0.567,0.6-0.7,0.8l-1.5,1.7c-3.167,3.967-3.267,9.383-0.3,16.25c1.167,2.633,6.417,11.833,15.75,27.6
		c3.267,5.533,5.417,16.583,6.45,33.15c0.5,8.3,0.684,16.05,0.55,23.25c3.033-7.267,5.983-15.883,8.85-25.85
		c5.733-19.934,8.2-36.633,7.4-50.1l-0.5-4.95l-0.6-3.25c-0.4-1.767-0.817-3.3-1.25-4.6l-0.35-1.1l-2.85-6.6l-4.2-6.1l-0.9-1
		l-3-2.65l-0.4-0.3c-0.9-0.6-1.683-1.066-2.35-1.4l-0.65-0.35l-1.5-0.55l-0.1-0.05l-1.4-0.4h-0.2l-0.75-0.15h-0.15l-0.55-0.1
		l-1.3-0.05c-0.8,0-1.533,0.067-2.2,0.2l-1,0.15l-1.5,0.45l-2.35,1L119.05,89.7z M338.05,52.3c10,3.133,17.767,10.567,23.3,22.3
		c10,21.267,0.5,38.9-28.5,52.9c-9.066,4.367-19.533,8.117-31.399,11.25l-15.101,3.35l-16.5,63l33-1.5l-19.5,75
		c-1.866,1.8-4.133,4.35-6.8,7.65c-5.3,6.567-9.899,13.517-13.8,20.85c-12.5,23.5-15.634,46.5-9.4,69
		c6.267,22.5,16.65,50.75,31.15,84.75c7.233,17,13.85,31.75,19.85,44.25l10.5,39l16.5,3l9,66l28.5,6L356,684.8l-0.05-0.05
		c-1.066,2.5-3.45,4.417-7.15,5.75c-7.467,2.667-17.866,1.083-31.2-4.75c-4.666-2.033-9.966-2.5-15.899-1.4
		c-3.233,0.601-8.566,2.267-16,5c-7,2.601-12.45,4.15-16.351,4.65c-6.1,0.8-11.683-0.066-16.75-2.6
		c-8.199-4.101-12.733-8.784-13.6-14.051c-0.467-2.767-0.884-4.483-1.25-5.149c-0.967-1.667-3.017-3.05-6.15-4.15
		c-5.966-2.066-19.3,1.483-40,10.65c-6.466,2.833-13.3,6.083-20.5,9.75c-3.567,1.833-6.5,3.366-8.8,4.6l-48.35-19l-4.05,3.5
		c-3.367,2.7-6.717,4.967-10.05,6.8c-10.667,5.834-19.184,6.184-25.55,1.051c-6.433-5.167-9.35-16.65-8.75-34.45
		c0.2-5.7,0.767-12.05,1.7-19.05c0.967-6.4,1.5-10.167,1.6-11.301l66-156c-2.5-7-4.684-14.816-6.55-23.449
		c-3.767-17.233-4.083-29.917-0.95-38.051c1.667-4.366,4.566-8.699,8.7-13c2.7-2.8,6.934-6.466,12.7-11
		c6.367-5.066,10.767-8.733,13.2-11c4.633-4.366,8.1-8.699,10.4-13c2.6-4.8,4.267-14.566,5-29.3c0.767-14.4,0.483-29.95-0.85-46.65
		c-1.467-17.933-3.833-33.183-7.1-45.75c-3.733-14.333-8.25-23.267-13.55-26.8c-9.367-6.233-16.934,7.9-22.7,42.4
		c-2.867,17.233-4.8,35.1-5.8,53.6c-0.733-25.5-2.233-51.117-4.5-76.85c-4.5-51.5-10.5-77.883-18-79.15
		c-7.233-1.2-13.083,3.583-17.55,14.35c-2.433,5.833-4.066,12-4.9,18.5c1.533-15.934,2-30.883,1.4-44.85
		c-1.167-27.6-6.65-41.1-16.45-40.5c-9.733,0.6-23.55,10.8-41.45,30.6C16.367,135.3,7.733,146.05,0,156.95
		c23.133-38.3,38.083-63.75,44.85-76.35c4.333-8.033,4.45-18.833,0.35-32.4c-2.1-6.833-4.7-13.017-7.8-18.55l24.45,9.2
		c0.7,0.267,1.767,0.667,3.2,1.2l76,26.6l24.2,7.35c3.8,1.067,6.65,1.833,8.55,2.3l10.25,2.3c1.7,0.3,2.8,0.467,3.3,0.5
		c11.667,1.6,18.4-8.367,20.2-29.9c1.101-13.4,0.283-29.8-2.45-49.2l1.801,8.7c0.733,3.133,1.449,5.867,2.149,8.2l1.05,3.6
		l0.051,0.1L214,31.3c1.2,2.833,2.45,5.517,3.75,8.05l6.45,10.3l1.149,1.45c0.467,0.6,1.217,1.45,2.25,2.55l4.7,4.35l2.95,2.05
		c1.6,0.967,3.15,1.75,4.65,2.35l1,0.4l3.649,1.05l0.101,0.05l1.199,0.2c7,1.2,16.75,0.2,29.25-3c1.801-0.467,7.184-1.967,16.15-4.5
		c6.667-1.867,12.1-3.233,16.3-4.1C319.983,49.9,330.15,49.833,338.05,52.3z M339.8,87.15c-1.533-6.566-4.983-11.8-10.35-15.7
		c-5.934-4.333-12.8-5.784-20.601-4.35c-2.1,0.4-4.05,1.05-5.85,1.95l-0.35,0.2c-0.7,0.333-1.334,0.683-1.9,1.05l-1.9,1.35l-2.199,2
		l-0.101,0.15l-0.899,0.95c-0.334,0.333-0.584,0.65-0.75,0.95L293.3,78c-0.467,0.733-0.866,1.45-1.2,2.15l-0.25,0.55l-0.05,0.05
		l-0.35,0.8l-0.55,1.5l-0.051,0.05l-1.149,4.25l-0.4,3.4l-0.05,0.15l0.05,3.9l0.25,2.25l1.25,4.55l1.4,2.95l1.149,1.8l2.351,2.8
		c0.899,0.833,1.7,1.5,2.399,2l0.551,0.4l1.399,0.8l2.8,1.35l0.2,0.05l1.95,0.65l3.65,0.75l2.949,0.25c1.967,0.1,4.051,0,6.25-0.3
		c8.801-1.067,15.15-4.483,19.051-10.25C340.366,99.717,341.333,93.817,339.8,87.15z"/>
	<path style="fill-rule:evenodd;clip-rule:evenodd;fill:#74A090;" d="M260.3,293.05l-5.85,21.15
		c-4.9,16.833-9.816,32.117-14.75,45.85c-15.834,44-28.967,64.334-39.4,61c-10.399-3.333-3.517-25.666,20.65-67
		C233.017,333.383,246.134,313.05,260.3,293.05z"/>
	<path style="fill-rule:evenodd;clip-rule:evenodd;fill:#74A090;" d="M312.3,567.05l-1.149,5.05c-0.9,4.2-1.634,8.434-2.2,12.7
		c-1.834,13.667-1.717,25.084,0.35,34.25c2.101,9.167,8.4,14.417,18.9,15.75c5.233,0.667,10.267,0.417,15.1-0.75
		c-3,3.834-7,7.05-12,9.65c-10,5.166-20,4.616-30-1.65c-10-6.233-11.166-20.6-3.5-43.1c2.4-7.033,5.533-14.467,9.4-22.3
		L312.3,567.05z"/>
	<path style="fill-rule:evenodd;clip-rule:evenodd;fill:#74A090;" d="M275.3,516.05l-5.35,15.601
		c-4.434,12.366-8.851,23.5-13.25,33.399c-14.167,31.667-25.634,45-34.4,40c-8.733-5-2.517-21.333,18.65-49
		c6.6-8.633,14.3-17.899,23.1-27.8L275.3,516.05z"/>
	<path style="fill-rule:evenodd;clip-rule:evenodd;fill:#74A090;" d="M248.3,436.05L245.65,449.4
		c-2.334,10.6-4.817,20.199-7.45,28.8c-8.5,27.5-17.134,39.783-25.9,36.85c-8.733-2.899-5.35-16.934,10.15-42.1
		c4.833-7.867,10.583-16.384,17.25-25.55L248.3,436.05z"/>
	<path style="fill-rule:evenodd;clip-rule:evenodd;fill:#74A090;" d="M227.3,81.05l-2.35,5.55c-1.834,4.633-3.5,9.333-5,14.1
		c-4.834,15.167-7.05,27.95-6.65,38.35c0.434,10.434,6.9,18.233,19.4,23.4c6.233,2.566,12.434,4.1,18.6,4.6
		c-5.666,0.667-11.95,0.75-18.85,0.25c-13.834-1-23.884-4.417-30.15-10.25c-6.233-5.833-3.934-20.25,6.9-43.25
		C214.6,102.3,220.634,91.383,227.3,81.05z"/>
	<path style="fill-rule:evenodd;clip-rule:evenodd;fill:#A1C6BA;" d="M262.3,77.05l1.15,9.8c0.666,7.767,0.833,14.833,0.5,21.2
		c-1.167,20.333-7.384,29.667-18.65,28c-11.233-1.667-11.767-12-1.6-31C248.767,95.55,254.967,86.217,262.3,77.05z"/>
	<polygon style="fill-rule:evenodd;clip-rule:evenodd;fill:#A1C6BA;" points="272.3,213.05 294.3,209.05 277.3,276.05 284.3,220.05 
			"/>
	<path style="fill-rule:evenodd;clip-rule:evenodd;fill:#A1C6BA;" d="M246.7,386.2l-0.4-7.15c2.066,12.733,8.733,32.033,20,57.9
		c6,13.733,13.667,30.767,23,51.1c3,7.334,7.084,16.667,12.25,28c3.601,8.834,5.184,16.167,4.75,22
		c-0.399,5.834-2.517,10.25-6.35,13.25c-1.934,1.5-3.816,2.417-5.65,2.75c0.667-10,1-19.333,1-28c0-5.467-3.916-16.25-11.75-32.35
		c-10.166-19.767-17.583-34.316-22.25-43.65c-5.833-11.666-10.083-27-12.75-46C247.717,398.116,247.1,392.167,246.7,386.2z"/>
	<g>
		<path style="fill-rule:evenodd;clip-rule:evenodd;fill:#74A090;" d="M207.55,49.2c1.101-13.4,0.283-29.8-2.45-49.2
			c1.301,7.233,2.983,14.1,5.051,20.6c5.5,24.3,7.55,40.45,6.149,48.45c-1.434,8.167-4.75,12.983-9.95,14.45
			c-4.733,1.333-11.066-0.117-19-4.35C199.017,80.717,205.75,70.733,207.55,49.2z"/>
		<path style="fill-rule:evenodd;clip-rule:evenodd;fill:#74A090;" d="M251,216.05l-1.25-1.45c-3.5-3.567-7.517-5.667-12.05-6.3
			c-5.101-0.667-10.5,0.583-16.2,3.75v0.05l-3.45,0.55h-0.1l-1.05,0.3c-0.233,0.033-0.967,0.233-2.2,0.6l-3.15,1.2l-4,2.2V217h-0.05
			l-2.15,1.6c-2.333,2-3.166,5.566-2.5,10.7c0.467,3.7,1.9,9.05,4.301,16.05c3.333,9.8,5.199,15.433,5.6,16.9
			c1.733,5.967,2.267,10.417,1.6,13.35c-0.066,0.433-0.216,1.066-0.449,1.9l-7.5,24.8l-1.25,6.55
			c-0.767-1.267-1.367-0.617-1.801,1.95c-0.466,2.6-0.35,5.133,0.351,7.6c0.866,2.967,2.399,4.5,4.6,4.6
			c2.834,0.1,6.5-2.217,11-6.95c9.066-9.5,17.15-21.283,24.25-35.35c5.533-10.934,10.117-22.483,13.75-34.65
			c1.533-5.2,1.617-10.7,0.25-16.5l-1.1-3.85c-0.4-1-0.65-1.617-0.75-1.85l-0.5-1.25l-1.55-2.9l-1.851-2.65
			C251.467,216.583,251.2,216.25,251,216.05z M119.05,89.7l-2.4,1.6c-0.767,0.6-1.467,1.217-2.1,1.85l-1.2,1.15
			c-0.333,0.333-0.567,0.6-0.7,0.8l-1.5,1.7c-3.167,3.967-3.267,9.383-0.3,16.25c1.167,2.633,6.417,11.833,15.75,27.6
			c3.267,5.533,5.417,16.583,6.45,33.15c0.5,8.3,0.684,16.05,0.55,23.25c4.467-5.5,8.833-12.7,13.1-21.6
			c8.566-17.833,12.433-35.3,11.6-52.4c-0.867-17.2-6.15-28.433-15.85-33.7c-3.434-1.867-7.15-2.817-11.15-2.85
			c-3.167-0.033-5.716,0.417-7.65,1.35l-1.5,0.45l-2.35,1L119.05,89.7z M164.95,118.7c0.9,9.566,0.35,18.683-1.65,27.35l22-11l-8,47
			l9.55-0.1c7.801,0.167,15.334,0.917,22.601,2.25c23.166,4.167,39.116,13.117,47.85,26.85c9.066,14.233,9.816,30.45,2.25,48.65
			c-2.733,6.533-6.85,14.083-12.35,22.65c-3.134,4.833-7.767,11.733-13.9,20.7c-4.533,6.967-9.967,16.717-16.3,29.25
			c-6.9,13.733-13.167,27.533-18.8,41.4c-14.6,35.767-20.567,60.55-17.9,74.35c2.5,12.934,12.25,12.816,29.25-0.35
			c5.3-4.134,11.017-9.316,17.15-15.55l7.6-8.101l-63,127l49-20l-36,58l32.95-13.95c-0.066,0.134-1.267,2.117-3.6,5.95
			c-2.5,4.601-4.417,9-5.75,13.2c-4.167,13.333-1.7,22.267,7.399,26.8c9.434,4.733,23.617-1.517,42.55-18.75
			c5.967-5.399,12.084-11.633,18.351-18.7c5.2-6.1,7.883-9.267,8.05-9.5c-0.1,0.2-1.6,4.101-4.5,11.7
			c-3.033,9.033-4.917,17.55-5.65,25.55c-2.3,25.367,7.101,40.934,28.2,46.7c21,5.8,38.316,1.217,51.95-13.75
			c4.3-4.733,8-10.25,11.1-16.55c2.267-5.533,3.434-8.417,3.5-8.65l-7.649,39c-6.267,3.801-13.65,7.101-22.15,9.9
			c-16.833,5.566-32.416,6.917-46.75,4.05c-14.566-2.899-24.434-10.6-29.6-23.1c-1.634-3.934-2.684-8.101-3.15-12.5l-0.25-5.4
			c-7.166,3.834-15,7.217-23.5,10.15c-17,5.833-28.833,6.45-35.5,1.85c-6.666-4.566-10.666-11.434-12-20.6
			c-0.399-2.867-0.517-5.8-0.35-8.8l0.35-3.601l-45,11l14-58l-35,11l74-102c-6,2.334-12.166,3.25-18.5,2.75
			c-12.667-1-19.833-8.583-21.5-22.75c-1.667-14.166,5-38.25,20-72.25c4.7-10.633,9.934-21.616,15.7-32.95l7.3-13.8l4-67l-20-39
			c1-2.667,1.75-5.75,2.25-9.25c1-7,0.25-12.583-2.25-16.75c-2.5-4.167-6.25-7.25-11.25-9.25l-6.75-1.75l6-32
			c-4.5,5.167-9.2,10.883-14.1,17.15c-9.833,12.5-15.8,21.45-17.9,26.85l-10,26c-0.5-10.333-1.25-21.45-2.25-33.35
			c-2-23.833-4.25-39.717-6.75-47.65c-2.5-7.9-7.417-15.767-14.75-23.6c-2.3-2.467-4.7-4.767-7.2-6.9l-3.05-2.5
			c1.5-3.667,2.383-7.867,2.65-12.6c0.5-9.5-2.383-16.967-8.65-22.4c-9.9-8.533-27.2-25-51.9-49.4l23.9,9l73.75,26.05l20,6.35
			l-95.75-24l27.4,13.9c21.167,10.167,39.033,17.533,53.6,22.1C154.9,87.65,163.117,99.533,164.95,118.7z"/>
		<path style="fill-rule:evenodd;clip-rule:evenodd;fill:#74A090;" d="M172.05,191.8c5,2,8.75,5.083,11.25,9.25
			c2.5,4.167,3.25,9.75,2.25,16.75c-0.5,3.5-1.25,6.583-2.25,9.25l20,39l-4,67l-7.3,13.8c-5.767,11.333-11,22.317-15.7,32.95
			c-15,34-21.667,58.084-20,72.25c1.667,14.167,8.833,21.75,21.5,22.75c6.334,0.5,12.5-0.416,18.5-2.75l-74,102l35-11l-14,58l45-11
			l-0.35,3.601c-0.167,3-0.05,5.933,0.35,8.8c1.334,9.166,5.334,16.033,12,20.6c6.667,4.601,18.5,3.983,35.5-1.85
			c8.5-2.934,16.334-6.316,23.5-10.15l0.25,5.4c0.467,4.399,1.517,8.566,3.15,12.5c5.166,12.5,15.033,20.2,29.6,23.1
			c14.334,2.867,29.917,1.517,46.75-4.05c8.5-2.8,15.884-6.1,22.15-9.9l-5.2,26.7l-0.05-0.05c-1.066,2.5-3.45,4.417-7.15,5.75
			c-7.467,2.667-17.866,1.083-31.2-4.75c-4.666-2.033-9.966-2.5-15.899-1.4c-3.233,0.601-8.566,2.267-16,5
			c-7,2.601-12.45,4.15-16.351,4.65c-6.1,0.8-11.683-0.066-16.75-2.6c-8.199-4.101-12.733-8.784-13.6-14.051
			c-0.467-2.767-0.884-4.483-1.25-5.149c-0.967-1.667-3.017-3.05-6.15-4.15c-5.966-2.066-19.3,1.483-40,10.65
			c-6.466,2.833-13.3,6.083-20.5,9.75c-3.567,1.833-6.5,3.366-8.8,4.6l-48.35-19l-4.05,3.5c-3.367,2.7-6.717,4.967-10.05,6.8
			c-10.667,5.834-19.184,6.184-25.55,1.051c-6.433-5.167-9.35-16.65-8.75-34.45c0.2-5.7,0.767-12.05,1.7-19.05
			c0.967-6.4,1.5-10.167,1.6-11.301l66-156c-2.5-7-4.684-14.816-6.55-23.449c-3.767-17.233-4.083-29.917-0.95-38.051
			c1.667-4.366,4.566-8.699,8.7-13c2.7-2.8,6.934-6.466,12.7-11c6.367-5.066,10.767-8.733,13.2-11c4.633-4.366,8.1-8.699,10.4-13
			c2.6-4.8,4.267-14.566,5-29.3c0.767-14.4,0.483-29.95-0.85-46.65c-1.467-17.933-3.833-33.183-7.1-45.75
			c-3.733-14.333-8.25-23.267-13.55-26.8c-9.367-6.233-16.934,7.9-22.7,42.4c-2.867,17.233-4.8,35.1-5.8,53.6
			c-0.733-25.5-2.233-51.117-4.5-76.85c-4.5-51.5-10.5-77.883-18-79.15c-7.233-1.2-13.083,3.583-17.55,14.35
			c-2.433,5.833-4.066,12-4.9,18.5c1.533-15.934,2-30.883,1.4-44.85c-1.167-27.6-6.65-41.1-16.45-40.5
			c-9.733,0.6-23.55,10.8-41.45,30.6C16.367,135.3,7.733,146.05,0,156.95c23.133-38.3,38.083-63.75,44.85-76.35
			c4.333-8.033,4.45-18.833,0.35-32.4c-2.1-6.833-4.7-13.017-7.8-18.55c24.7,24.4,42,40.867,51.9,49.4
			c6.267,5.434,9.15,12.9,8.65,22.4c-0.267,4.733-1.15,8.933-2.65,12.6l3.05,2.5c2.5,2.133,4.9,4.434,7.2,6.9
			c7.333,7.833,12.25,15.7,14.75,23.6c2.5,7.934,4.75,23.817,6.75,47.65c1,11.9,1.75,23.017,2.25,33.35l10-26
			c2.1-5.4,8.067-14.35,17.9-26.85c4.9-6.267,9.6-11.983,14.1-17.15l-6,32L172.05,191.8z"/>
		<path style="fill-rule:evenodd;clip-rule:evenodd;fill:#668D7F;" d="M172.05,191.8c5,2,8.75,5.083,11.25,9.25
			c2.5,4.167,3.25,9.75,2.25,16.75c-0.5,3.5-1.25,6.583-2.25,9.25l20,39l-4,67l-7.3,13.8c-5.767,11.333-11,22.317-15.7,32.95
			c-15,34-21.667,58.084-20,72.25c1.667,14.167,8.833,21.75,21.5,22.75c6.334,0.5,12.5-0.416,18.5-2.75l-74,102l35-11l-14,58l45-11
			l-0.35,3.601c-0.167,3-0.05,5.933,0.35,8.8c1.334,9.166,5.334,16.033,12,20.6c6.667,4.601,18.5,3.983,35.5-1.85
			c8.5-2.934,16.334-6.316,23.5-10.15l0.25,5.4c0.467,4.399,1.517,8.566,3.15,12.5c5.166,12.5,15.033,20.2,29.6,23.1
			c14.334,2.867,29.917,1.517,46.75-4.05c8.5-2.8,15.884-6.1,22.15-9.9l-5.25,28c-0.834,4.733-3.4,7.384-7.7,7.95
			c-6,0.767-16.217-2-30.65-8.3c-4.666-2.033-9.966-2.5-15.899-1.4c-3.233,0.601-8.566,2.267-16,5c-7,2.601-12.45,4.15-16.351,4.65
			c-6.1,0.8-11.683-0.066-16.75-2.6c-8.199-4.101-12.733-8.784-13.6-14.051c-0.467-2.767-0.884-4.483-1.25-5.149
			c-0.967-1.667-3.017-3.05-6.15-4.15c-5.966-2.066-19.3,1.483-40,10.65c-6.466,2.833-13.3,6.083-20.5,9.75
			c-3.567,1.833-6.5,3.366-8.8,4.6l-48.35-19l-4.05,3.5c-3.367,2.7-6.717,4.967-10.05,6.8c-10.667,5.834-19.184,6.184-25.55,1.051
			c-7-5.634-10.667-15.5-11-29.601c-0.267-11.7,1.583-23.434,5.55-35.2c2.8-8.267,14.65-36.75,35.55-85.449l30.45-70.551
			c-2.5-7-4.684-14.816-6.55-23.449c-3.767-17.233-4.083-29.917-0.95-38.051c1.667-4.366,4.566-8.699,8.7-13
			c2.7-2.8,6.934-6.466,12.7-11c6.367-5.066,10.767-8.733,13.2-11c4.633-4.366,8.1-8.699,10.4-13c2.6-4.8,4.267-14.566,5-29.3
			c0.767-14.4,0.483-29.95-0.85-46.65c-1.467-17.933-3.833-33.183-7.1-45.75c-3.733-14.333-8.25-23.267-13.55-26.8
			c-9.367-6.233-16.934,7.9-22.7,42.4c-2.867,17.233-4.8,35.1-5.8,53.6c-0.733-25.5-2.233-51.117-4.5-76.85
			c-4.5-51.5-10.5-77.883-18-79.15c-7.233-1.2-13.083,3.583-17.55,14.35c-2.433,5.833-4.066,12-4.9,18.5
			c1.533-15.934,2-30.883,1.4-44.85c-1.167-27.6-6.65-41.1-16.45-40.5c-9.733,0.6-23.55,10.8-41.45,30.6
			C16.367,135.3,7.733,146.05,0,156.95c23.133-38.3,38.083-63.75,44.85-76.35c4.333-8.033,4.45-18.833,0.35-32.4
			c-2.1-6.833-4.7-13.017-7.8-18.55c24.7,24.4,42,40.867,51.9,49.4c6.267,5.434,9.15,12.9,8.65,22.4
			c-0.267,4.733-1.15,8.933-2.65,12.6l3.05,2.5c2.5,2.133,4.9,4.434,7.2,6.9c7.333,7.833,12.25,15.7,14.75,23.6
			c2.5,7.934,4.75,23.817,6.75,47.65c1,11.9,1.75,23.017,2.25,33.35l10-26c2.1-5.4,8.067-14.35,17.9-26.85
			c4.9-6.267,9.6-11.983,14.1-17.15l-6,32L172.05,191.8z"/>
		<path style="fill-rule:evenodd;clip-rule:evenodd;fill:#74A090;" d="M123.7,87.85c1.9-0.934,4.433-1.383,7.6-1.35
			c4.034,0.033,7.75,0.983,11.15,2.85c9.7,5.267,14.983,16.5,15.85,33.7c0.833,17.1-3.033,34.567-11.6,52.4
			c-4.267,8.9-8.633,16.1-13.1,21.6c3.033-7.267,5.983-15.883,8.85-25.85c5.733-19.934,8.2-36.633,7.4-50.1
			c-0.6-10-3.434-18.367-8.5-25.1C136.083,89.067,130.2,86.35,123.7,87.85z"/>
		<path style="fill-rule:evenodd;clip-rule:evenodd;fill:#668D7F;" d="M123.7,87.85c1.9-0.934,4.433-1.383,7.6-1.35
			c4.034,0.033,7.75,0.983,11.15,2.85c9.7,5.267,14.983,16.5,15.85,33.7c0.833,17.1-3.033,34.567-11.6,52.4
			c-4.267,8.9-8.633,16.1-13.1,21.6c3.033-7.267,5.983-15.883,8.85-25.85c5.733-19.934,8.2-36.633,7.4-50.1
			c-0.6-10-3.434-18.367-8.5-25.1C136.083,89.067,130.2,86.35,123.7,87.85z"/>
		<path style="fill-rule:evenodd;clip-rule:evenodd;fill:#668D7F;" d="M339.8,87.2c-1.533-6.567-4.983-11.8-10.35-15.7
			c-5.934-4.333-12.8-5.783-20.601-4.35c-4.267,0.767-7.966,2.583-11.1,5.45l-1.45,0.45c6.533-8.4,13.75-12.883,21.65-13.45
			c6.833-0.5,13.416,1.816,19.75,6.95c5.767,4.7,10.017,10.517,12.75,17.45c2.8,7.1,3.083,13.117,0.85,18.05
			c-3.733,8.333-10.434,13.017-20.1,14.05c-3,0.333-6.134,0.267-9.4-0.2l-3.95-0.75c8.801-1.066,15.15-4.483,19.051-10.25
			C340.366,99.767,341.333,93.867,339.8,87.2z"/>
		<path style="fill-rule:evenodd;clip-rule:evenodd;fill:#74A090;" d="M249.45,244.6c3.399-10.833,3.7-18,0.899-21.5
			c-3.533-4.367-8-7.5-13.399-9.4c-4.9-1.7-10.05-2.233-15.45-1.6c6.167-3.434,11.967-4.617,17.4-3.55
			c4.8,0.967,8.949,3.583,12.449,7.85c3.2,3.967,5.351,8.7,6.45,14.2c1.101,5.5,0.934,10.65-0.5,15.45
			c-3.633,12.167-8.217,23.717-13.75,34.65c-7.1,14.066-15.184,25.85-24.25,35.35c-4.5,4.733-8.166,7.05-11,6.95
			c-2.2-0.1-3.733-1.633-4.6-4.6c-0.7-2.433-0.816-4.95-0.351-7.55c0.434-2.6,1.034-3.25,1.801-1.95c-0.367,3.7,0.199,6.1,1.699,7.2
			c1.467,1.1,5.134-2.4,11-10.5c5.767-7.967,11.601-17.533,17.5-28.7C241.884,264.567,246.583,253.8,249.45,244.6z"/>
		<path style="fill-rule:evenodd;clip-rule:evenodd;fill:#668D7F;" d="M249.45,244.6c3.399-10.833,3.7-18,0.899-21.5
			c-3.533-4.367-8-7.5-13.399-9.4c-4.9-1.7-10.05-2.233-15.45-1.6c6.167-3.434,11.967-4.617,17.4-3.55
			c4.8,0.967,8.949,3.583,12.449,7.85c3.2,3.967,5.351,8.7,6.45,14.2c1.101,5.5,0.934,10.65-0.5,15.45
			c-3.633,12.167-8.217,23.717-13.75,34.65c-7.1,14.066-15.184,25.85-24.25,35.35c-4.5,4.733-8.166,7.05-11,6.95
			c-2.2-0.1-3.733-1.633-4.6-4.6c-0.7-2.433-0.816-4.95-0.351-7.55c0.434-2.6,1.034-3.25,1.801-1.95c-0.367,3.7,0.199,6.1,1.699,7.2
			c1.467,1.1,5.134-2.4,11-10.5c5.767-7.967,11.601-17.533,17.5-28.7C241.884,264.567,246.583,253.8,249.45,244.6z"/>
	</g>
</g>
</svg>
