<?xml version="1.0" encoding="iso-8859-1"?>
<!-- Generator: Adobe Illustrator 15.1.0, SVG Export Plug-In . SVG Version: 6.00 Build 0)  -->
<!DOCTYPE svg PUBLIC "-//W3C//DTD SVG 1.1//EN" "http://www.w3.org/Graphics/SVG/1.1/DTD/svg11.dtd">
<svg version="1.1" id="buildings" xmlns="http://www.w3.org/2000/svg" xmlns:xlink="http://www.w3.org/1999/xlink" x="0px" y="0px"
	 width="66.3px" height="294.9px" viewBox="0 0 66.3 294.9" style="enable-background:new 0 0 66.3 294.9;" xml:space="preserve">
<symbol  id="FlashAICB_x2F_buildings_x2F__x3C_Path_x3E__x5F_11" viewBox="-0.032 -14.981 42.535 14.989">
	<g id="Layer_1_2_">
		<path style="fill-rule:evenodd;clip-rule:evenodd;" d="M0.05-5.2C0.483-3.3,2.667-1.9,6.6-1c3.6,0.833,8.25,1.15,13.95,0.95
			c14.067-0.534,21.367-2.2,21.9-5c0.367-2-1.184-4.017-4.65-6.05c-4-2.333-9.25-3.617-15.75-3.85
			C15.483-15.183,9.933-14.1,5.4-11.7C1.333-9.567-0.45-7.4,0.05-5.2z"/>
	</g>
</symbol>
<g>
	<path style="fill-rule:evenodd;clip-rule:evenodd;fill:#919E9C;" d="M7.25,8.65l20.15,13.5c-1.133,3.7-2.033,8.033-2.7,13
		c-1.3,9.967-0.767,18.184,1.6,24.65c1.233,3.367,3.284,6.717,6.15,10.05c0.4,0.467,3.2,3.367,8.399,8.7
		C48.45,86.35,53.3,94.733,55.4,103.7c2.366,10.033,3.966,42.417,4.8,97.149c0.434,27.367,0.616,53.733,0.55,79.101
		c-1.5,0.833-3.3,1.616-5.4,2.35c-4.166,1.434-7.716,1.851-10.649,1.25c-2.967-0.566-5.983-1.45-9.05-2.649l-3.7-1.601
		c0.933-21.7,1.7-44.95,2.3-69.75c1.167-49.533,0.866-81.983-0.9-97.35c-0.966-8.4-2.533-14.817-4.7-19.25
		c-1.6-3.267-3.967-6.15-7.1-8.65c-4.8-3.833-7.617-6.183-8.45-7.05c-3.367-3.567-6.267-8.4-8.7-14.5
		C-0.3,50.95-1.233,38.4,1.6,25.1C3,18.433,4.883,12.95,7.25,8.65z"/>
	<g>
		<path style="fill-rule:evenodd;clip-rule:evenodd;fill:#738582;" d="M0.2,34.5c0.533-6.833,2.017-13.5,4.45-20l9.5,6.7
			c-1.667,4.933-2.933,10.45-3.8,16.55c-1.733,12.167-0.567,21.133,3.5,26.9c2.733,3.9,7.867,9.117,15.4,15.65
			c6.033,5.233,9.917,10.2,11.65,14.9c2.1,5.7,3.783,21.583,5.05,47.65c1.066,21.8,1.483,39.266,1.25,52.4
			c-0.2,12.8-0.834,40.717-1.9,83.75l-13.2-3.3c1.133-27.967,1.933-53.733,2.4-77.3c0.866-43.367,0.483-72.101-1.15-86.2
			c-0.966-8.4-2.533-14.817-4.7-19.25c-1.6-3.267-3.967-6.15-7.1-8.65c-4.8-3.833-7.617-6.183-8.45-7.05
			c-3.367-3.567-6.267-8.4-8.7-14.5C0.867,53.883-0.533,44.467,0.2,34.5z"/>
	</g>
	<path style="fill-rule:evenodd;clip-rule:evenodd;fill:#546764;" d="M3,30.6l-0.5,8.85c0.033,6.933,0.9,13.017,2.6,18.25
		c1.7,5.233,3.633,9.2,5.8,11.9c1.833,2.333,4.783,4.783,8.85,7.35c3.7,2.367,6.85,4.733,9.45,7.1c2.9,2.6,4.75,4.85,5.55,6.75
		c0.7,1.667,0.45,3.167-0.75,4.5c-0.566,0.667-1.217,1.167-1.95,1.5c-0.2-1.566-0.966-3.566-2.3-6c-0.9-1.633-2.25-3.2-4.05-4.7
		c-0.967-0.8-2.917-2.217-5.85-4.25c-3.1-2.133-5.333-3.95-6.7-5.45c-2.566-2.8-4.867-6.65-6.9-11.55
		c-3.4-8.133-4.967-16.283-4.7-24.45c0.1-2.533,0.367-4.933,0.8-7.2L3,30.6z"/>
	<path style="fill-rule:evenodd;clip-rule:evenodd;fill:#546764;" d="M34.75,104.15c1.667,1.367,2.95,7.5,3.85,18.4
		c0.767,8.9,1.15,18.767,1.15,29.601V270.5c-0.934-0.2-1.934-0.533-3-1c-0.5-0.233-0.983-0.583-1.45-1.05l-0.55-0.65l1.65-142.3
		c0-3.333-0.267-7.883-0.801-13.65L34.75,104.15z"/>
	
		<use xlink:href="#FlashAICB_x2F_buildings_x2F__x3C_Path_x3E__x5F_11"  width="42.535" height="14.989" x="-0.032" y="-14.981" transform="matrix(1 0 0 -1 23.7998 279.9004)" style="overflow:visible;opacity:0.4102;"/>
	<path style="fill-rule:evenodd;clip-rule:evenodd;fill:#637773;" d="M33.85,290.65c-3.7-1.767-5.716-3.733-6.05-5.9
		c-0.267-1.566,0.434-4.6,2.1-9.1l2.6-6.25c5.733,4,12.167,5.283,19.3,3.85c3.566-0.733,6.55-1.866,8.95-3.4l5.05,15.101l-0.7,1.2
		c-0.666,0.966-1.517,1.866-2.55,2.699c-3.267,2.667-7.649,4.134-13.149,4.4C43.333,293.517,38.15,292.65,33.85,290.65z"/>
	<path style="fill-rule:evenodd;clip-rule:evenodd;fill:#637773;" d="M27.05,9.9c4.467,3.467,8.351,7.033,11.65,10.7
		c-1.467,4.2-3.134,7.45-5,9.75c-1.4,1.733-3.45,3.2-6.15,4.4L23.9,36c-0.633,0-1.617-0.2-2.95-0.6
		c-2.667-0.767-5.767-2.133-9.3-4.1c-3.533-1.966-6.117-4.25-7.75-6.85L2.5,21.2c-0.6-1.667-0.8-3.867-0.6-6.6
		c0.2-2.733,1.133-7.233,2.8-13.5C10.633,0.033,18.083,2.967,27.05,9.9z"/>
	<g>
		<path style="fill-rule:evenodd;clip-rule:evenodd;fill:#596C69;" d="M11.95,12.55C10.583,15.617,9.8,18.4,9.6,20.9
			c-0.167,2.033,0.15,4,0.95,5.9c0.9,2.067,2.217,3.617,3.95,4.65c2.667,1.633,5.333,2.833,8,3.6c1.067,0.333,1.917,0.55,2.55,0.65
			L23.9,36c-0.633,0-1.617-0.2-2.95-0.6c-2.667-0.767-5.767-2.133-9.3-4.1c-3.533-1.966-6.117-4.25-7.75-6.85L2.5,21.2
			c-0.6-1.667-0.8-3.867-0.6-6.6c0.2-2.733,1.133-7.233,2.8-13.5c0.9-0.2,1.85-0.267,2.85-0.2c1.633,1.667,2.85,3.4,3.65,5.2
			C12.167,8.333,12.417,10.483,11.95,12.55z"/>
	</g>
	<path style="fill-rule:evenodd;clip-rule:evenodd;fill:#728985;" d="M11.5,0.45c3.7,0.767,7.533,2.133,11.5,4.1
		c4.067,2.034,7.983,4.867,11.75,8.5c3.967,3.867,5.283,6.383,3.95,7.55c-1.667,1.467-4.117,2.1-7.35,1.9
		c-3.934-0.3-8.2-1.883-12.8-4.75c-4.7-2.967-8.417-6.2-11.15-9.7C4.9,4.85,4,2.533,4.7,1.1C5.333-0.133,7.6-0.35,11.5,0.45z"/>
	
		<linearGradient id="SVGID_1_" gradientUnits="userSpaceOnUse" x1="-9.8647" y1="-24.7124" x2="-0.7047" y2="-24.7124" gradientTransform="matrix(-0.5459 0.8379 -0.8379 -0.5459 -4.053116e-004 1.629591e-004)">
		<stop  offset="0" style="stop-color:#973C4D"/>
		<stop  offset="1" style="stop-color:#352021"/>
	</linearGradient>
	<path style="fill-rule:evenodd;clip-rule:evenodd;fill:url(#SVGID_1_);" d="M10.7,2.65c7.2,1.367,13.517,4.367,18.95,9
		c1.967,1.633,3.466,3.217,4.5,4.75c0.966,1.367,1.233,2.133,0.8,2.3c-1,0.4-2.15,0.466-3.45,0.2c-1.867-0.4-4.4-1.517-7.6-3.35
		c-4.633-2.667-8.417-5.617-11.35-8.85C9.85,3.733,9.233,2.383,10.7,2.65z"/>
	<path style="fill-rule:evenodd;clip-rule:evenodd;fill:#AAB9B6;" d="M46.6,96.75c-1.066-4.067-2.6-7.967-4.6-11.7l-2.65-4.35
		c3.7,2.966,6.567,6.167,8.601,9.6c1.7,2.9,3.233,6.733,4.6,11.5c1.066,3.667,1.7,9.333,1.9,17c0.1,3.833,0.1,7.3,0,10.4
		c-0.033-0.8-0.167-1.7-0.4-2.7c-0.399-2-1-3.517-1.8-4.55c-0.8-1.067-1.566-0.65-2.3,1.25c-0.367,0.933-0.65,1.983-0.851,3.15
		c0-3.3-0.1-7.017-0.3-11.15C48.366,106.967,47.634,100.817,46.6,96.75z"/>
	<path style="fill-rule:evenodd;clip-rule:evenodd;fill:#A6AFAE;" d="M17.3,36.35c0.534,0.767,1.583,1.417,3.15,1.95
		c0.8,0.267,1.533,0.45,2.2,0.55l-0.1,4.55c-0.066,3.6-0.033,6.917,0.1,9.95c0.133,3,0.767,6.1,1.9,9.3c0.534,1.6,1.067,2.9,1.6,3.9
		c-1.033-0.833-2.133-1.917-3.3-3.25c-2.333-2.6-3.767-5.083-4.3-7.45c-0.533-2.367-0.9-6.317-1.1-11.85L17.3,36.35z"/>
	<polygon style="fill-rule:evenodd;clip-rule:evenodd;fill:#A6AFAE;" points="53.8,188.65 56.65,181.4 55.1,268.6 	"/>
	<path style="fill-rule:evenodd;clip-rule:evenodd;fill:#728985;" d="M55.7,276.15c1.467-0.101,2.934-0.733,4.399-1.9l1.801,5.05
		c1.133,3.467,1.433,5.351,0.899,5.65c-0.833,0.533-2.717,1.583-5.649,3.149L55.7,276.15z"/>
	<g>
		<path style="fill-rule:evenodd;clip-rule:evenodd;fill:#596C69;" d="M33.85,290.65c-3.7-1.767-5.716-3.733-6.05-5.9
			c-0.267-1.566,0.417-4.583,2.05-9.05l2.55-6.25c3.8,2.7,8.167,4.133,13.1,4.3v0.05l-2.35,2.55c-1.567,2.167-2.417,4.467-2.551,6.9
			c-0.133,2.667,0.801,4.767,2.801,6.3c1.633,1.267,3.85,2.05,6.649,2.351c2.934,0.3,5.8,0.066,8.601-0.7
			c-2.667,1.2-5.75,1.883-9.25,2.05C43.333,293.517,38.15,292.65,33.85,290.65z"/>
	</g>
	<path style="fill-rule:evenodd;clip-rule:evenodd;fill:#51625F;" d="M34.6,275.05l0.65,0.15c0.333,0.467,0.983,0.684,1.95,0.649
		c0.5,0,0.95-0.05,1.35-0.149l-1.2,1.85c-0.866,1.434-1.466,2.601-1.8,3.5c-0.166,0.5-0.083,1.8,0.25,3.9
		c0.267,1.8,0.25,2.649-0.05,2.55c-0.4-0.134-1.2-0.7-2.4-1.7l-1.7-1.45c-0.333-2-0.233-3.683,0.3-5.05
		c0.333-0.833,0.883-1.783,1.649-2.85L34.6,275.05z"/>
	<path style="fill-rule:evenodd;clip-rule:evenodd;fill:#728985;" d="M28.8,24.55c1.034,0.467,2.5,0.517,4.4,0.15
		c0.967-0.167,1.816-0.383,2.55-0.65c-0.366,1.034-0.85,2.117-1.45,3.25c-1.233,2.333-2.433,3.817-3.6,4.45
		c-1.2,0.667-2.817,1.083-4.85,1.25h-2.7c1.133-0.5,2.283-1.383,3.45-2.65C27.767,29.083,28.5,27.15,28.8,24.55z"/>
	<path style="fill-rule:evenodd;clip-rule:evenodd;fill:#51625F;" d="M5.05,7.7c0.4,1.267,1.767,3,4.1,5.2L8.2,14.35
		c-0.633,1.2-1.05,2.283-1.25,3.25c-0.333,1.566-0.5,3.566-0.5,6c-0.4-0.567-0.833-1.283-1.3-2.15c-0.9-1.7-1.417-3.2-1.55-4.5
		C3.4,14.883,3.883,11.8,5.05,7.7z"/>
</g>
</svg>
