<?xml version="1.0" encoding="iso-8859-1"?>
<!-- Generator: Adobe Illustrator 15.1.0, SVG Export Plug-In . SVG Version: 6.00 Build 0)  -->
<!DOCTYPE svg PUBLIC "-//W3C//DTD SVG 1.1//EN" "http://www.w3.org/Graphics/SVG/1.1/DTD/svg11.dtd">
<svg version="1.1" id="buildings-mid" xmlns="http://www.w3.org/2000/svg" xmlns:xlink="http://www.w3.org/1999/xlink" x="0px"
	 y="0px" width="41.7px" height="95.35px" viewBox="0 0 41.7 95.35" style="enable-background:new 0 0 41.7 95.35;"
	 xml:space="preserve">
<symbol  id="FlashAICB_x2F_buildings-mid_x2F__x3C_Path_x3E__x5F_21" viewBox="0 -11.25 31.6 11.25">
	<g id="Layer_1_2_">
		<path style="fill-rule:evenodd;clip-rule:evenodd;fill:#373535;" d="M26.85-5.1c1.767-1.566,3.35-3.033,4.75-4.4
			c-2.333,0.933-4.383,1.7-6.15,2.3c-1.633,0.567-2.833,0.9-3.6,1C20.583-6,19.533-6.167,18.7-6.7c-1.8-1.1-3.284-2.617-4.45-4.55
			c-0.033,0.667-0.15,1.333-0.35,2c-0.333,1.333-0.8,2.017-1.4,2.05c-0.433,0.034-2.483-0.4-6.15-1.3L0-10.25L14.2,0l5.35-1.7
			C23.35-3,25.783-4.133,26.85-5.1z"/>
	</g>
</symbol>
<g>
	
		<use xlink:href="#FlashAICB_x2F_buildings-mid_x2F__x3C_Path_x3E__x5F_21"  width="31.6" height="11.25" y="-11.25" transform="matrix(1 0 0 -1 8.2002 84.0996)" style="overflow:visible;opacity:0.3984;enable-background:new    ;"/>
	<path style="fill-rule:evenodd;clip-rule:evenodd;fill:#7B7E6E;" d="M36.5,14c1.434-0.167,1.884,3.933,1.35,12.3
		c-0.566,8.367-1.466,12.817-2.699,13.35c-1.534,0.667-4.75,1.117-9.65,1.35l-0.55,8.35c-0.4,6.4-0.667,11.617-0.8,15.65
		c-0.134,4.033,2,9.684,6.399,16.95c2.2,3.633,4.4,6.866,6.601,9.7c-0.934-0.567-2.017-1.067-3.25-1.5
		c-2.434-0.9-4.351-1.067-5.75-0.5c-1.367,0.566-2.617,1.399-3.75,2.5c-0.534,0.566-0.95,1.066-1.25,1.5
		c-0.034-0.733-0.2-1.417-0.5-2.051c-0.534-1.267-1.367-1.699-2.5-1.3c-1.767,0.667-4.984,1.667-9.65,3c0.767-0.5,1.6-1.166,2.5-2
		c1.767-1.666,2.933-3.333,3.5-5c0.633-1.899,0.933-6.566,0.9-14c-0.066-7.233-0.367-11.566-0.9-13c-0.2-0.5-1-1.116-2.4-1.85
		c-2.267-1.2-3.684-1.983-4.25-2.351c-3.934-2.533-5.833-6.017-5.7-10.45c0.233-7.333,0.8-15.783,1.7-25.35L8,19.05
		c1.5,0.067,2.45,0.717,2.85,1.95c0.233,0.733,0.066,5.35-0.5,13.85C9.817,42.783,9.983,47,10.85,47.5
		c1.533,0.866,3.917,1.366,7.15,1.5c-0.133-7.433-0.133-14.983,0-22.65C18.267,11.083,19.1,2.967,20.5,2
		c1.533-1.067,2.767,0.467,3.7,4.6c0.833,3.767,1.05,7.233,0.649,10.4c-0.466,3.467-0.699,6.767-0.699,9.9
		c0,3.967,0.449,6.1,1.35,6.4c1.467,0.5,2.816,0.633,4.05,0.4c1.767-0.367,2.867-1.5,3.3-3.4c0.434-4.1,0.801-7.316,1.101-9.65
		C34.45,16.35,35.3,14.133,36.5,14z"/>
	<path style="fill-rule:evenodd;clip-rule:evenodd;fill:#6B6E60;" d="M22.35,43.15l1.25,2.9l-0.55,4.65
		c-0.366,3.5-0.6,6.316-0.7,8.45c-0.133,3-0.083,5.267,0.15,6.8c0.333,2.333,1.283,5.566,2.85,9.7
		c1.4,3.767,3.084,7.149,5.051,10.149c1,1.5,1.85,2.617,2.55,3.351c-1.5-0.334-2.867-0.45-4.101-0.351
		c-0.8,0.033-1.666,0.417-2.6,1.15c-0.467,0.366-0.85,0.733-1.15,1.1c-1.767-12.666-2.933-20.666-3.5-24
		c-0.366-2.066-0.35-6.666,0.051-13.8L22.35,43.15z"/>
	<path style="fill-rule:evenodd;clip-rule:evenodd;fill:#6B6E60;" d="M9.35,22.15c0.667,0.167,0.7,3.717,0.1,10.65
		c-0.3,3.467-0.667,6.917-1.1,10.35c-0.033-3.533-0.017-7.066,0.05-10.6C8.5,25.483,8.817,22.017,9.35,22.15z"/>
	<path style="fill-rule:evenodd;clip-rule:evenodd;fill:#6B6E60;" d="M22.6,6.15c0.667,0.1,0.851,4.817,0.551,14.15
		c-0.167,4.7-0.4,9.367-0.7,14c-0.167-4.733-0.3-9.45-0.4-14.15C21.884,10.75,22.066,6.083,22.6,6.15z"/>
	<path style="fill-rule:evenodd;clip-rule:evenodd;fill:#6B6E60;" d="M36.85,16.9c0.5,0.267-0.133,5.9-1.899,16.9
		c0.166-2.867,0.383-5.733,0.649-8.6C36.066,19.5,36.483,16.733,36.85,16.9z"/>
	<g>
		<path style="fill-rule:evenodd;clip-rule:evenodd;fill:#6B6E60;" d="M4.15,44.65c0.233-7.333,0.8-15.783,1.7-25.35l1.65-0.25
			c0.4,1.167,0.55,2.534,0.45,4.1c-0.034,0.767-0.4,4.833-1.1,12.2c-0.467,7.233-0.1,11.5,1.1,12.8c1.2,1.3,3.333,2.683,6.4,4.149
			c1.533,0.7,2.95,1.283,4.25,1.75l4.75,30.25c0.233,1.5,0.15,4.417-0.25,8.75c-0.166-0.866-0.433-1.566-0.8-2.1
			c-0.533-0.767-1.25-0.983-2.149-0.65c-1.767,0.667-4.984,1.667-9.65,3c0.767-0.5,1.6-1.166,2.5-2c1.767-1.666,2.933-3.333,3.5-5
			c0.633-1.899,0.933-6.566,0.9-14c-0.066-7.233-0.367-11.566-0.9-13c-0.2-0.5-1-1.116-2.4-1.85c-2.267-1.2-3.684-1.983-4.25-2.351
			C5.917,52.566,4.017,49.083,4.15,44.65z"/>
		<path style="fill-rule:evenodd;clip-rule:evenodd;fill:#6B6E60;" d="M18,49c-0.133-7.433-0.133-14.983,0-22.65
			C18.267,11.083,19.1,2.967,20.5,2c0.4-0.3,0.816-0.367,1.25-0.2c-0.733,0.867-1.116,1.784-1.15,2.75L20.2,50.65
			C19.6,49.85,18.867,49.3,18,49z"/>
		<path style="fill-rule:evenodd;clip-rule:evenodd;fill:#6B6E60;" d="M35.45,17.4c0,3.333-0.233,6.367-0.7,9.1
			c-0.9,5.1-2.45,7.45-4.65,7.05c1.434-0.466,2.351-1.55,2.75-3.25c0.434-4.1,0.801-7.316,1.101-9.65c0.5-4.3,1.35-6.517,2.55-6.65
			L36,15.05C35.634,15.883,35.45,16.667,35.45,17.4z"/>
		<path style="fill-rule:evenodd;clip-rule:evenodd;fill:#6B6E60;" d="M32.6,39.05c1.601-0.066,2.867-0.8,3.801-2.2
			c-0.367,1.667-0.784,2.6-1.25,2.8c-1.534,0.667-4.75,1.117-9.65,1.35v0.25c-0.134-0.333-0.233-0.75-0.3-1.25v-0.7L32.6,39.05z"/>
	</g>
	<polygon style="fill-rule:evenodd;clip-rule:evenodd;fill:#5D6152;" points="18.6,48.05 19.275,18.425 19.25,49.3 	"/>
	<path style="fill-rule:evenodd;clip-rule:evenodd;fill:#5D6152;" d="M34.75,18.75c0.566,0.433,0.116,3.95-1.35,10.55
		c0.166-1.8,0.35-3.6,0.55-5.4C34.316,20.333,34.583,18.617,34.75,18.75z"/>
	<path style="fill-rule:evenodd;clip-rule:evenodd;fill:#868977;" d="M8.925,20.05l0.575,0.1c0.433,0.167,0.733,0.45,0.9,0.85
		c0.3,0.667,0.467,1.417,0.5,2.25c-0.233-0.533-0.5-1.067-0.8-1.6C9.579,20.668,9.187,20.135,8.925,20.05z"/>
	<path style="fill-rule:evenodd;clip-rule:evenodd;fill:#868977;" d="M37.25,21.65c-0.033,4.1-0.333,7.767-0.9,11
		C35.884,35.583,35.434,37.033,35,37c-0.3-0.033-0.333-0.383-0.1-1.05c0.366-0.867,0.6-1.517,0.699-1.95
		C35.8,33.167,36.35,29.05,37.25,21.65z"/>
	<path style="fill-rule:evenodd;clip-rule:evenodd;fill:#868977;" d="M31.05,35.4c0.834-0.167,1.517-0.367,2.05-0.6
		c-0.633,1.067-1.666,1.733-3.1,2c-1.233,0.267-2.65,0.4-4.25,0.4l-2-0.05c0.9-0.267,1.566-0.517,2-0.75s-0.116-0.95-1.65-2.15
		l0.5,0.3c0.534,0.233,1.2,0.467,2,0.7C27.967,35.683,29.45,35.733,31.05,35.4z"/>
	<path style="fill-rule:evenodd;clip-rule:evenodd;fill:#868977;" d="M21.65,3.9c0.767-0.4,1.399,0.35,1.899,2.25
		c0.4,1.434,0.634,2.983,0.7,4.65c0.066,1.5-0.017,3.317-0.25,5.45l-0.35-6.5C23.55,7.583,23.184,5.967,22.55,4.9L21.65,3.9z"/>
	<path style="fill-rule:evenodd;clip-rule:evenodd;fill:#868977;" d="M9.9,48.1l-0.8-1.45l0.8,0.8c0.667,0.6,1.283,1.083,1.85,1.45
		c0.933,0.6,2.85,1.05,5.75,1.35l-0.4,0.9c-0.067,0.267,0.45,0.883,1.55,1.85c-2.767-1.066-4.867-1.967-6.3-2.7
		C11.45,49.866,10.633,49.134,9.9,48.1z"/>
	<g>
		<g>
			<path style="fill-rule:evenodd;clip-rule:evenodd;fill:#A8A99F;" d="M22.05,4.35c0.9-1.567,2.066-3.017,3.5-4.35
				c-1.166,1.4-2.133,2.95-2.899,4.65L22.05,4.35z"/>
		</g>
	</g>
	<g>
		<g>
			<path style="fill-rule:evenodd;clip-rule:evenodd;fill:#A8A99F;" d="M18.85,17.85c-1.033-1.167-1.934-2.45-2.7-3.85
				c0.967,1.267,2.017,2.417,3.15,3.45L18.85,17.85z"/>
		</g>
	</g>
	<g>
		<g>
			<polygon style="fill-rule:evenodd;clip-rule:evenodd;fill:#A8A99F;" points="23.9,14.7 30.45,11.15 24.35,15.55 			"/>
		</g>
	</g>
	<g>
		<g>
			<polygon style="fill-rule:evenodd;clip-rule:evenodd;fill:#A8A99F;" points="36.1,16.5 41.7,12.75 36.6,17.25 			"/>
		</g>
	</g>
	<g>
		<g>
			<path style="fill-rule:evenodd;clip-rule:evenodd;fill:#A8A99F;" d="M35.45,36.9c1.366,1.033,2.866,1.65,4.5,1.85
				c-1.834,0-3.483-0.45-4.95-1.35L35.45,36.9z"/>
		</g>
	</g>
	<g>
		<g>
			<path style="fill-rule:evenodd;clip-rule:evenodd;fill:#A8A99F;" d="M32.65,33c-0.634-0.467-1.801-1.483-3.5-3.05
				c1.767,1.267,3.05,2.117,3.85,2.55L32.65,33z"/>
		</g>
	</g>
	<g>
		<g>
			<path style="fill-rule:evenodd;clip-rule:evenodd;fill:#A8A99F;" d="M6.15,20.55c-0.2-2.767-0.45-5.533-0.75-8.3
				c0.833,3.433,1.45,6.167,1.85,8.2L6.15,20.55z"/>
		</g>
	</g>
	<g>
		<g>
			<polygon style="fill-rule:evenodd;clip-rule:evenodd;fill:#A8A99F;" points="9.4,34 13.4,32.35 9.6,34.55 			"/>
		</g>
	</g>
	<g>
		<g>
			<path style="fill-rule:evenodd;clip-rule:evenodd;fill:#A8A99F;" d="M4.9,42.45c-1.6-0.833-3.233-1.467-4.9-1.9
				c1.7,0.2,3.45,0.633,5.25,1.3L4.9,42.45z"/>
		</g>
	</g>
	<g>
		<path style="fill-rule:evenodd;clip-rule:evenodd;fill:#5D6152;" d="M6.25,24.35c-0.329,3.409-0.579,6.876-0.75,10.4
			c-0.4,8.133-0.067,12.817,1,14.05c1.1,1.334,3.283,2.867,6.55,4.601c1.633,0.833,3.15,1.55,4.55,2.149
			c2.033,16.967,3.2,26.167,3.5,27.601c0.134,0.633,0.4,1.883,0.801,3.75c0.333,1.767,0.483,3.133,0.449,4.1
			c-0.533-0.767-1.267-1-2.199-0.7c-1,0.4-2.833,1-5.5,1.8c0.7-0.699,1.367-1.666,2-2.899c1.133-2.233,1.75-4.75,1.85-7.55
			c0.1-2.967-0.1-7.834-0.6-14.601l-0.75-9.25c-1.433-0.633-2.967-1.416-4.6-2.35c-3.233-1.867-5.283-3.601-6.15-5.2
			s-1.367-3.7-1.5-6.3c0.033-2.6,0.033-4.233,0-4.9c-0.033-0.8,0.217-3.783,0.75-8.95C5.867,27.833,6.067,25.917,6.25,24.35z"/>
	</g>
</g>
</svg>
