<?xml version="1.0" encoding="iso-8859-1"?>
<!-- Generator: Adobe Illustrator 15.1.0, SVG Export Plug-In . SVG Version: 6.00 Build 0)  -->
<!DOCTYPE svg PUBLIC "-//W3C//DTD SVG 1.1//EN" "http://www.w3.org/Graphics/SVG/1.1/DTD/svg11.dtd">
<svg version="1.1" id="Isolation_Mode" xmlns="http://www.w3.org/2000/svg" xmlns:xlink="http://www.w3.org/1999/xlink" x="0px"
	 y="0px" width="258.75px" height="221.9px" viewBox="0 0 258.75 221.9" style="enable-background:new 0 0 258.75 221.9;"
	 xml:space="preserve">
<symbol  id="FlashAICB_x2F_Isolation_Mode_x2F__x3C_Path_x3E__x5F_7" viewBox="-0.071 -16.012 65.377 16.046">
	<g id="Layer_1_2_">
		<path style="fill-rule:evenodd;clip-rule:evenodd;" d="M52.35-2.9c7.8-1.367,11.933-2.434,12.4-3.2c0.567-0.9,0.7-1.617,0.4-2.15
			c-0.4-0.667-1.617-1.533-3.65-2.6c-2.733-1.4-6.883-2.566-12.45-3.5c-7.066-1.2-15.167-1.75-24.3-1.65
			c-8.933,0.1-15.7,1.483-20.3,4.15c-3.6,2.067-5.05,4.1-4.35,6.1C0.867-3.583,5.283-1.967,13.35-0.9
			C20.483,0.067,27.033,0.283,33-0.25C38.533-0.717,44.983-1.6,52.35-2.9z"/>
	</g>
</symbol>
<g>
	<path style="fill-rule:evenodd;clip-rule:evenodd;fill:#316454;" d="M252.75,41.8c3.267,1.6,5.2,4.35,5.8,8.25
		c0.566,3.667-0.116,7.333-2.05,11c-2.6,4.867-5.85,8.633-9.75,11.3c-4.167,2.833-8.366,3.883-12.6,3.15
		c-2.367-0.4-3.384-2.683-3.051-6.85c0.334-3.833,1.65-8.133,3.95-12.9c2.4-4.967,5.117-8.8,8.15-11.5
		C246.667,41.217,249.85,40.4,252.75,41.8z"/>
	<g>
		<path style="fill-rule:evenodd;clip-rule:evenodd;fill:#E3E5AE;" d="M256.85,54.8c-0.6,3.934-2.483,7.667-5.649,11.2
			c-2.867,3.133-6.117,5.467-9.75,7c-3.634,1.567-6.5,1.817-8.601,0.75c-0.166-0.067-5.767-3.55-16.8-10.45
			c-11.366-7.066-21.533-12.917-30.5-17.55c-29.366-15.133-49.083-19.117-59.15-11.95c-10.066,7.133-25.65,38.567-46.75,94.3
			C69.083,155.934,59.533,183.066,51,209.5c-1.367,1.033-3.4,2.033-6.1,3c-5.367,1.9-11.35,2.667-17.95,2.3
			c-6.6-0.366-11.434-1.483-14.5-3.35c-0.967-0.601-1.684-1.233-2.15-1.9l-0.45-0.85c10.267-29.3,22.566-59.7,36.9-91.2
			c28.633-63,53.117-99.95,73.45-110.85c20.333-10.9,48.616-8.35,84.85,7.65c18.101,8,34.167,17.1,48.2,27.3
			C256.35,45.8,257.55,50.2,256.85,54.8z"/>
		<g>
			<path style="fill-rule:evenodd;clip-rule:evenodd;fill:#C4C981;" d="M113.3,11.25c0.934,1.033,3.15,0.8,6.65-0.7
				c2-0.844,4.175-1.994,6.525-3.45c-2.836,1.858-5.644,3.925-8.425,6.2c-4.966,4.034-8.9,7.983-11.8,11.85
				c-7.267,9.667-15.067,22.133-23.4,37.4c-10.167,18.534-18.434,36.583-24.8,54.15c-5.833,16.066-12.25,35.05-19.25,56.95
				c-3.533,10.966-6.466,20.316-8.8,28.05c-2.333,1.033-4.817,1.967-7.45,2.8c-5.233,1.667-8.583,2.033-10.05,1.1
				c-0.367-0.199-0.7-0.716-1-1.55c11.933-32.967,24.75-64.184,38.45-93.65C74.017,58.667,95.133,25.617,113.3,11.25z"/>
			<path style="fill-rule:evenodd;clip-rule:evenodd;fill:#C4C981;" d="M240.25,73.5c-3.1,1.1-5.566,1.183-7.4,0.25
				c-0.267-0.133-5.716-3.517-16.35-10.15c-11.1-6.934-21.017-12.667-29.75-17.2c-28.733-15-48.4-19.483-59-13.45
				c4.3-4.067,11.967-5.983,23-5.75c11.667,0.267,23.85,2.933,36.55,8c17.2,6.9,37.767,17.883,61.7,32.95
				C246.233,70.65,243.316,72.433,240.25,73.5z"/>
		</g>
		
			<use xlink:href="#FlashAICB_x2F_Isolation_Mode_x2F__x3C_Path_x3E__x5F_7"  width="65.377" height="16.046" x="-0.071" y="-16.012" transform="matrix(1 0 0 -1 0.0498 205.9004)" style="overflow:visible;opacity:0.4102;"/>
		<path style="fill-rule:evenodd;clip-rule:evenodd;fill:#ABB25E;" d="M16.65,190.35c-0.4,0.4,0.633,1.051,3.1,1.95
			c3,1.101,6.867,1.75,11.6,1.95c6.066,0.233,12.316-0.434,18.75-2c3.2-0.767,5.7-1.566,7.5-2.4c2.933,0.2,4.983,4.051,6.15,11.551
			c0.6,3.767,0.9,7.517,0.9,11.25c-1,1.399-3.283,2.783-6.85,4.149c-7.167,2.733-17.15,3.967-29.95,3.7
			c-9.3-0.167-16.333-1.517-21.1-4.05c-1.5-0.8-2.667-1.684-3.5-2.65L2.4,212.65c1.133-3.567,2.583-7.167,4.35-10.801
			C10.25,194.55,13.55,190.717,16.65,190.35z"/>
		<path style="fill-rule:evenodd;clip-rule:evenodd;fill:#EFF0D4;" d="M249.7,44.15c0.3,1.967,0.083,3.95-0.65,5.95
			c-4.533-3.5-9.883-7.383-16.05-11.65c-12.333-8.534-22.616-14.717-30.85-18.55c-8.2-3.833-19.5-7.75-33.9-11.75l-19.1-4.9
			L165.1,5.4c12.2,1.967,22.217,4.317,30.051,7.05c7.866,2.733,19.199,8.45,34,17.15c7.433,4.333,14.066,8.4,19.899,12.2
			L249.7,44.15z"/>
		<path style="fill-rule:evenodd;clip-rule:evenodd;fill:#ECEDC9;" d="M118.95,33.45c-4.467,8.767-9.217,18.333-14.25,28.7
			C94.633,82.883,88.133,97.267,85.2,105.3L55.45,187.65l-5.7,1.75c1.767-6.434,3.867-13.784,6.3-22.051
			c4.867-16.566,9.034-29.5,12.5-38.8c3.467-9.3,12.917-27.95,28.35-55.95C104.6,58.633,111.95,45.583,118.95,33.45z"/>
		<path style="fill-rule:evenodd;clip-rule:evenodd;fill:#B2B86C;" d="M62.05,97.55c-11.3,26.134-18.333,43.033-21.1,50.7
			c-2.733,7.667-5.517,16.983-8.35,27.95c-1.434,5.467-2.583,10.166-3.45,14.1c-0.8,0.3-1.733,0.467-2.8,0.5
			c-2.1,0.066-3.8-0.533-5.1-1.8c7.9-23.967,13.6-40.333,17.1-49.1c2.2-5.467,9.5-20.317,21.9-44.55
			c6.2-12.1,12.183-23.667,17.95-34.7C73.1,72.183,67.717,84.483,62.05,97.55z"/>
		<path style="fill-rule:evenodd;clip-rule:evenodd;fill:#B2B86C;" d="M242.9,68.1c-0.733,2.2-2.417,3.5-5.051,3.9h-3.699
			c-0.301,0-1.067-0.333-2.301-1c-2.466-1.3-6.083-3.583-10.85-6.85c-4.733-3.3-16.6-9.617-35.6-18.95L158.35,32.15l16.9,4.75
			c12.833,4.033,23.267,8.15,31.3,12.35L242.9,68.1z"/>
		<g>
			<path style="fill-rule:evenodd;clip-rule:evenodd;fill:#9AA14F;" d="M16.65,190.3c-0.4,0.4,0.633,1.066,3.1,2
				c3,1.101,6.867,1.75,11.6,1.95h1.25c-0.967,0.967-1.8,2.05-2.5,3.25c-1.533,2.667-2.533,5.866-3,9.6
				c-0.9,7.367,0.267,11.25,3.5,11.65c6.633,0.833,12.383,0.733,17.25-0.3c4.733-1,8.3-1.65,10.7-1.95
				c-7.133,2.967-17.367,4.3-30.7,4c-9.3-0.167-16.333-1.517-21.1-4.05c-1.5-0.8-2.667-1.684-3.5-2.65L2.4,212.65
				c1.133-3.567,2.583-7.184,4.35-10.851C10.25,194.5,13.55,190.667,16.65,190.3z"/>
		</g>
		<path style="fill-rule:evenodd;clip-rule:evenodd;fill:#C9CD8C;" d="M60.4,202c0.633,1.934,0.95,3.9,0.95,5.9
			c-0.033,1.899-0.35,3.083-0.95,3.55c-1.566,1.166-4.483,2.05-8.75,2.649c0.767-1.366,1.15-3.8,1.15-7.3c0-2.2-0.233-4.6-0.7-7.2
			l-0.75-3.3C55.583,194.866,58.6,196.767,60.4,202z"/>
		<path style="fill-rule:evenodd;clip-rule:evenodd;fill:#787E41;" d="M14.15,196c2.167-1.233,3.9-1.116,5.2,0.35
			c1.533,1.733,1.583,4.967,0.15,9.7c-0.567,1.934-0.9,4.184-1,6.75c-0.067,1.267-0.067,2.351,0,3.25
			c-3.7-0.767-6.433-1.467-8.2-2.1c-1.066-0.4-2.1-1.017-3.1-1.851L6,210.95c0.367-1.867,0.883-3.55,1.55-5.05
			c1.067-2.467,2.217-4.617,3.45-6.45C12.2,197.65,13.25,196.5,14.15,196z"/>
	</g>
</g>
</svg>
