<?xml version="1.0" encoding="iso-8859-1"?>
<!-- Generator: Adobe Illustrator 15.1.0, SVG Export Plug-In . SVG Version: 6.00 Build 0)  -->
<!DOCTYPE svg PUBLIC "-//W3C//DTD SVG 1.1//EN" "http://www.w3.org/Graphics/SVG/1.1/DTD/svg11.dtd">
<svg version="1.1" id="buildings-mid" xmlns="http://www.w3.org/2000/svg" xmlns:xlink="http://www.w3.org/1999/xlink" x="0px"
	 y="0px" width="254.6px" height="267.25px" viewBox="0 0 254.6 267.25" style="enable-background:new 0 0 254.6 267.25;"
	 xml:space="preserve">
<symbol  id="FlashAICB_x2F_buildings-mid_x2F__x3C_Path_x3E__x5F_21" viewBox="-0.032 -7.455 25.982 7.427">
	<g id="Layer_1_2_">
		<path style="fill-rule:evenodd;clip-rule:evenodd;fill:#373535;" d="M0.15-2.45c0.934,1.767,5.7,2.567,14.3,2.4
			c2.633-0.067,5.167-0.35,7.6-0.85c2.6-0.533,3.9-1.1,3.9-1.7c0-0.967-0.8-1.917-2.4-2.85c-2.233-1.267-5.517-1.933-9.85-2
			c-4.567-0.066-8.2,0.5-10.9,1.7C0.433-4.683-0.45-3.583,0.15-2.45z"/>
	</g>
</symbol>
<g>
	<path style="fill-rule:evenodd;clip-rule:evenodd;fill:#C67C81;" d="M162.8,105.05c2.5,0.633,4.584,0.567,6.25-0.2
		c0.834-0.367,1.417-0.8,1.75-1.3l-2.05,16.55c-1.934,11.767-4.25,19.417-6.95,22.95c-2.633,3.434-9.8,4.684-21.5,3.75
		c-12.5-1.666-20.167-2.416-23-2.25c-3.533,0.2-5.6,4.184-6.2,11.95c-0.267,3.866-0.2,7.717,0.2,11.55
		c-0.667-0.566-1.6-1.133-2.8-1.7c-2.433-1.066-5-1.5-7.7-1.3c-2.7,0.2-5.183,1.184-7.45,2.95c-1.1,0.866-1.95,1.717-2.55,2.55
		c0.167-2.733,0.1-5.55-0.2-8.45c-0.567-5.733-2-8.916-4.3-9.55c-1.167-0.333-2.867,0.5-5.1,2.5c-1.367,1.2-3.684,3.5-6.95,6.9
		c-7.033,6.934-13.183,10.3-18.45,10.1c-5.833-0.2-12.583-5.934-20.25-17.2c-2.4-3.5-4.75-7.35-7.05-11.55l-2.7-5.25
		c-0.333-0.833-0.433-1.767-0.3-2.8c0.233-2.1,1.5-3.667,3.8-4.7c2.3-1.033,4.567-1.433,6.8-1.2c1.133,0.133,2.033,0.367,2.7,0.7
		l1.65,5.2c1.433,4.167,2.95,7.934,4.55,11.3c5.067,10.834,10,15.834,14.8,15c4.4-0.767,8.233-3.916,11.5-9.45
		c1.667-3.033,2.95-5.25,3.85-6.649c1.5-2.434,3.05-4.233,4.65-5.4c3.133-2.3,7.483-2.649,13.05-1.05c2.8,0.8,5.283,1.816,7.45,3.05
		c-0.066-0.566,0.034-1.233,0.3-2c0.6-1.5,1.833-2.666,3.7-3.5c1.3-0.566,9.15-0.6,23.55-0.1c14.434,0.5,22.917,0.2,25.45-0.9
		c2.934-1.233,4.316-7.683,4.15-19.35l-1.15-17.15l1,2.45C158.467,103.233,160.3,104.417,162.8,105.05z"/>
	<g>
		<path style="fill-rule:evenodd;clip-rule:evenodd;fill:#B57276;" d="M28.5,143.3l-2.7-5.25l-0.2-0.7l5.1-5.25l8.85,16.8
			c6.667,11.333,11.934,17.283,15.8,17.85c4.167,0.6,8.617-0.55,13.35-3.45c3.633-2.233,6.75-4.967,9.35-8.2
			c5.8-7.233,10.9-8.899,15.3-5c2.233,1.934,3.683,4.9,4.35,8.9c0.367,2.167,0.483,4.35,0.35,6.55
			c-1.966,0.601-3.767,1.617-5.4,3.05c-0.8,0.7-1.417,1.351-1.85,1.95c0.167-2.733,0.1-5.55-0.2-8.45c-0.567-5.733-2-8.916-4.3-9.55
			c-1.167-0.333-2.867,0.5-5.1,2.5c-1.367,1.2-3.684,3.5-6.95,6.9c-7.033,6.934-13.183,10.3-18.45,10.1
			c-5.833-0.2-12.583-5.934-20.25-17.2C33.15,151.35,30.8,147.5,28.5,143.3z"/>
		<path style="fill-rule:evenodd;clip-rule:evenodd;fill:#B57276;" d="M102.05,145.4c-0.133-1.101-0.466-1.983-1-2.65l-0.75-0.7
			l0.05-1c0.233-1.967,1.55-3.467,3.95-4.5c0.967-0.467,3.65-0.666,8.05-0.6c-1.767,0.267-3.867,0.75-6.3,1.45
			c-1.966,0.566-3.117,2.899-3.45,7c-0.167,2.066-0.133,4.066,0.1,6C102.467,148.866,102.25,147.2,102.05,145.4z"/>
		<path style="fill-rule:evenodd;clip-rule:evenodd;fill:#B57276;" d="M155.05,144.1c2.533-0.633,4.5-1.416,5.9-2.35
			c1.366-0.9,2.533-2.2,3.5-3.9c-0.834,2.2-1.717,3.934-2.65,5.2c-2.633,3.434-9.8,4.684-21.5,3.75
			c-12.5-1.666-20.167-2.416-23-2.25c-0.9,0.033-1.716,0.351-2.45,0.95l-0.15-0.1l1.4-1.301c1.667-0.8,4.316-1.133,7.95-1
			c2.9,0.101,8.483,0.467,16.75,1.101C148.134,144.667,152.884,144.634,155.05,144.1z"/>
		<path style="fill-rule:evenodd;clip-rule:evenodd;fill:#B57276;" d="M150.325,136.225l-0.976,0.176v-0.051
			C149.688,136.313,150.014,136.271,150.325,136.225z M156.65,102.75l5.05,2.35l-0.3,11.7c-0.4,8.167-1.084,13.15-2.051,14.95
			c-0.966,1.8-2.916,3.116-5.85,3.95l-1.95,0.325c0.719-0.138,1.303-0.296,1.75-0.476c2.4-1.033,3.75-5.7,4.05-14
			C157.55,116.283,157.316,110.017,156.65,102.75z"/>
	</g>
	<path style="fill-rule:evenodd;clip-rule:evenodd;fill:#976265;" d="M99.8,161.8c5.7-0.333,9.633,1.134,11.8,4.4
		c1.7,2.566,2.066,5.399,1.1,8.5c-0.667,2.1-3.467,3.616-8.4,4.55c-3.966,0.767-7.7,0.983-11.2,0.65
		c-2.333-0.233-3.783-1.75-4.35-4.551c-0.433-2.233-0.317-4.449,0.35-6.649C90.433,164.434,94,162.134,99.8,161.8z"/>
	<path style="fill-rule:evenodd;clip-rule:evenodd;fill:#805457;" d="M96.75,166.35c0.067,1.334,0.683,2.7,1.85,4.101l-1.65,3.149
		c-1.3,2.467-2.55,4.567-3.75,6.301h-0.1c-2.333-0.233-3.783-1.75-4.35-4.551c-0.433-2.233-0.317-4.449,0.35-6.649
		c1.233-3.834,4.2-6.084,8.9-6.75C97.067,163.217,96.65,164.684,96.75,166.35z"/>
	<path style="fill-rule:evenodd;clip-rule:evenodd;fill:#C67C81;" d="M111.6,195.95c0.933,15.666,3.167,23.7,6.7,24.1
		c2.767,0.334,8.367-0.233,16.8-1.7c8.067-1.366,13.301-1.8,15.7-1.3c2.934,0.634,6.4,8.15,10.4,22.55c2,7.233,3.7,14.384,5.1,21.45
		c-1.666,0.767-3.7,1.267-6.1,1.5c-4.834,0.5-9.134-0.5-12.9-3c0.5-4.166,0.634-8.566,0.4-13.2c-0.5-9.233-2.634-15-6.4-17.3
		c-1.967-1.2-4.517-1.684-7.649-1.45c-1.334,0.101-4.217,0.601-8.65,1.5c-3.633,0.733-6.433,1.017-8.4,0.851
		c-2.833-0.233-5.1-1.367-6.8-3.4c-3.133-3.733-7.15-13.1-12.05-28.1l-6.45-21.4c0.434-1,1.117-2.033,2.05-3.1
		c1.933-2.167,4.25-3.467,6.95-3.9c2.7-0.399,5.35-0.1,7.95,0.9c1.3,0.5,2.317,1.033,3.05,1.6L111.6,195.95z"/>
	<g>
		<path style="fill-rule:evenodd;clip-rule:evenodd;fill:#B57276;" d="M91.3,177.05c0.333-0.833,0.9-1.733,1.7-2.7
			c1.533-1.899,3.4-3.199,5.6-3.899c1.3,6.233,2.95,13.684,4.95,22.35c2.833,12.334,4.767,19.983,5.8,22.95
			c1.3,3.7,3.383,6.45,6.25,8.25c2.633,1.7,5.45,2.283,8.45,1.75c5.267-0.934,9.267-1.333,12-1.2c5.467,0.267,9.134,2.117,11,5.55
			c1.8,3.334,3.5,9.334,5.101,18c0.833,4.334,1.466,8.334,1.899,12l-6.7-1.05c0.5-5.066,0.567-9.866,0.2-14.399
			c-0.666-8.267-2.75-13.467-6.25-15.601c-1.967-1.2-4.517-1.684-7.649-1.45c-1.334,0.101-4.217,0.601-8.65,1.5
			c-3.633,0.733-6.433,1.017-8.4,0.851c-2.833-0.233-5.1-1.367-6.8-3.4c-3.133-3.733-7.15-13.1-12.05-28.1L91.3,177.05z"/>
	</g>
	<path style="fill-rule:evenodd;clip-rule:evenodd;fill:#976265;" d="M164.05,97.3c0.767,0.267,2.45,0.8,5.05,1.6
		c2.2,0.967,3.25,2.233,3.15,3.8c-0.134,1.833-1.184,3.233-3.15,4.2c-1.899,0.934-4,1.15-6.3,0.65c-3.666-0.8-6.217-2.433-7.649-4.9
		c-1.2-2.1-1.351-4.117-0.45-6.05c1.233-2.667,2.883-3.45,4.95-2.35C160.783,94.85,162.25,95.867,164.05,97.3z"/>
	<path style="fill-rule:evenodd;clip-rule:evenodd;fill:#805457;" d="M162.75,96.5c-0.167,1.467-0.267,3.267-0.3,5.4
		c-0.167,0.3-0.351,0.633-0.55,1c-0.4,0.733-0.617,1.3-0.65,1.7c-0.1,0.667,0.017,1.533,0.35,2.6h-0.05
		c-3.166-0.934-5.35-2.567-6.55-4.9c-1.033-2-1.134-3.9-0.3-5.7c1.066-2.333,2.416-3.25,4.05-2.75
		C159.35,94.017,160.684,94.9,162.75,96.5z"/>
	<g>
		<path style="fill-rule:evenodd;clip-rule:evenodd;fill:#BD6570;" d="M125,27.35l-2,5.75c-1.433-1.434-3.933-4.167-7.5-8.2
			c-2.233-2.533-2.617-6.433-1.15-11.7c0.733-2.6,1.683-4.967,2.85-7.1c-0.5,1.767-0.917,3.733-1.25,5.9
			c-0.6,4.367-0.367,7.533,0.7,9.5c1.1,1.967,2.817,3.533,5.15,4.7C122.967,26.8,124.033,27.183,125,27.35z"/>
		<path style="fill-rule:evenodd;clip-rule:evenodd;fill:#BD6570;" d="M99,0c-0.467,2.267-0.667,5.033-0.6,8.3
			c0.1,6.5,1.483,12.233,4.15,17.2c1.8,3.333,4.9,6.55,9.3,9.65c2.2,1.567,4.217,2.783,6.05,3.65c0.9,0.9,1.217,2.383,0.95,4.45
			c-0.133,1.033-0.367,1.967-0.7,2.8c-1.233-0.6-2.85-1.716-4.85-3.35c-3.966-3.233-7.8-7.367-11.5-12.4
			c-3.7-5.033-5.283-11.6-4.75-19.7C97.35,6.567,98,3.033,99,0z"/>
		<path style="fill-rule:evenodd;clip-rule:evenodd;fill:#BD6570;" d="M91.8,40.9c-0.833-1.767-1.517-3.617-2.05-5.55l-0.6-2.4
			l3.65,6.15c3.2,4.467,6.65,7.633,10.35,9.5c3.7,1.867,6.934,2.9,9.7,3.1c1.367,0.1,2.367,0.017,3-0.25l2.7,3.65
			c-0.933,0.267-2.316,0.35-4.15,0.25c-3.633-0.233-7.65-1.283-12.05-3.15S94.433,46.567,91.8,40.9z"/>
		<g>
			<path style="fill-rule:evenodd;clip-rule:evenodd;fill:#A45963;" d="M114.55,20.9c0.7,2.1,2.317,4.2,4.85,6.3
				c1.3,1.066,2.517,1.917,3.65,2.55l-2,1.3c-1.167-1.233-3.017-3.283-5.55-6.15c-2.233-2.533-2.617-6.433-1.15-11.7
				c0.733-2.6,1.683-4.967,2.85-7.1c-0.733,1.633-1.383,3.483-1.95,5.55C114.083,15.75,113.85,18.833,114.55,20.9z"/>
		</g>
		<g>
			<path style="fill-rule:evenodd;clip-rule:evenodd;fill:#A45963;" d="M98.85,20.9c1.267,3.867,4.583,8.434,9.95,13.7
				c2.667,2.633,5.217,4.883,7.65,6.75l-0.3,3.5c-4.867-3.3-9.65-8.15-14.35-14.55c-3.7-5.033-5.283-11.6-4.75-19.7
				C97.35,6.567,98,3.033,99,0c-0.533,1.933-0.933,4.267-1.2,7C97.267,12.4,97.617,17.033,98.85,20.9z"/>
		</g>
		<g>
			<path style="fill-rule:evenodd;clip-rule:evenodd;fill:#A45963;" d="M91.8,40.9c-0.833-1.767-1.517-3.617-2.05-5.55l-0.6-2.4
				l2.35,5.4c1.967,3.967,4,6.883,6.1,8.75c2.133,1.867,5.6,3.517,10.4,4.95c2.4,0.733,4.583,1.267,6.55,1.6l-1.65,1.55
				c-3.333-0.434-6.85-1.434-10.55-3C97.95,50.333,94.433,46.567,91.8,40.9z"/>
		</g>
		<g>
			<path style="fill-rule:evenodd;clip-rule:evenodd;fill:#97535C;" d="M111.85,36.45c1.933-0.9,3.7-0.333,5.3,1.7
				c1.5,1.9,2.1,3.9,1.8,6c-0.2,1.6-1.983,4.367-5.35,8.3l-4.95,5.45l-0.8-0.9c2.533-4.533,4.35-8.317,5.45-11.35
				c0.7-1.9,0.667-4-0.1-6.3L111.85,36.45z"/>
			<path style="fill-rule:evenodd;clip-rule:evenodd;fill:#B75165;" d="M122.3,22.7c0.8,3.3,0.8,6.117,0,8.45
				c-0.8,2.3-2.267,4.233-4.4,5.8l-2.95,1.65l-3.1-2.15l3.45-3.3c2.367-2.6,3.767-4.883,4.2-6.85c0.433-1.966,0.483-3.95,0.15-5.95
				L119,18l1.35-0.15l0.45,0.55L122.3,22.7z"/>
			<path style="fill-rule:evenodd;clip-rule:evenodd;fill:#B75165;" d="M134.3,18.8l-7.5,5.9l-5.3-6l2.3,0.8
				c1.733,0.5,3.083,0.767,4.05,0.8c1.101,0,2.801-0.6,5.101-1.8L134.3,18.8z"/>
			<path style="fill-rule:evenodd;clip-rule:evenodd;fill:#C57A7F;" d="M134.3,18.8l-0.3,2.75c-0.2,2.034-0.2,3.583,0,4.65
				c0.167,1.1,0.884,2.233,2.15,3.4c0.6,0.566,1.199,1.033,1.8,1.4c-1,0.967-2.033,2-3.101,3.1c-2.133,2.233-3.333,3.767-3.6,4.6
				c-0.267,0.833-0.35,2.783-0.25,5.85c0.066,1.534,0.15,2.983,0.25,4.35c-1.267,1.033-2.583,2.184-3.95,3.45
				c-2.7,2.5-4.233,4.35-4.6,5.55c-0.6,1.867-0.633,3.9-0.1,6.1c-0.567-0.9-1.25-1.833-2.05-2.8c-1.6-1.934-3.017-3.067-4.25-3.4
				c-1.066-0.267-2.667-0.333-4.8-0.2l-2.85,0.3c4.333-6.3,6.733-10.433,7.2-12.4c0.3-1.233,0.233-2.75-0.2-4.55l-0.7-2.35l2.9-2.55
				c2.066-2,3.383-3.683,3.95-5.05c0.567-1.367,0.5-3.967-0.2-7.8l-1.25-5.35l3.15,1.9c2.367,1.167,4.25,1.533,5.65,1.1
				C131.384,20.217,133.1,19.533,134.3,18.8z"/>
		</g>
	</g>
	<path style="fill-rule:evenodd;clip-rule:evenodd;fill:#C67C81;" d="M170.5,81.45c-0.366,6.566-0.434,13.1-0.2,19.6
		c-1.166,1-2.6,1.55-4.3,1.65c-3.434,0.167-6.5-2.05-9.2-6.65c1.667-6.4,2.733-12.983,3.2-19.75c0.9-13.5-1.667-21.083-7.7-22.75
		c-6.033-1.667-12.934-2.833-20.7-3.5l-9.8-0.5c-0.667-1-1.233-2.167-1.7-3.5c-0.9-2.667-0.833-4.833,0.2-6.5
		c1.034-1.667,2.6-3.083,4.7-4.25c1.033-0.566,1.967-0.983,2.8-1.25l50,15.5c8.667,2.667,23.334,6,44,10
		c-0.833,0.434-1.684,0.983-2.55,1.65c-1.767,1.333-2.75,2.617-2.95,3.85c-0.2,1.267-0.1,2.65,0.3,4.15
		c0.233,0.733,0.467,1.35,0.7,1.85c-5.566-1.833-11.467-3.617-17.7-5.35c-12.399-3.5-20.166-5.05-23.3-4.65
		C173.167,61.483,171.233,68.283,170.5,81.45z"/>
	
		<use xlink:href="#FlashAICB_x2F_buildings-mid_x2F__x3C_Path_x3E__x5F_21"  width="25.982" height="7.427" x="-0.032" y="-7.455" transform="matrix(1 0 0 -1 142.6504 259.7998)" style="overflow:visible;opacity:0.3984;enable-background:new    ;"/>
	<path style="fill-rule:evenodd;clip-rule:evenodd;fill:#976265;" d="M147.75,254.1l2.05,0.9c1.767,0.6,3.684,0.95,5.75,1.05
		c2.101,0.101,4.267-0.283,6.5-1.149c1.134-0.434,2.05-0.884,2.75-1.351l2.2,3.601c0.667,1.166,1.033,2.933,1.1,5.3l-2.449,2
		c-2.367,1.333-5.317,1.95-8.851,1.85c-3.934-0.1-6.95-0.75-9.05-1.95c-1.8-1.033-2.55-2.166-2.25-3.399
		c0.267-1.033,0.717-2.483,1.35-4.351L147.75,254.1z"/>
	<g>
		<path style="fill-rule:evenodd;clip-rule:evenodd;fill:#B57276;" d="M164.05,54.1c1.7,2.367,2.017,10.433,0.95,24.2
			c-0.533,7.1-1.384,14.967-2.55,23.6c-2.066-1.033-3.95-2.983-5.65-5.85c1.667-6.4,2.733-12.983,3.2-19.75
			c0.9-13.5-1.667-21.083-7.7-22.75c-8.366-2.3-17.783-3.617-28.25-3.95l0.3-5.2l18.2,2.6C155.083,49.233,162.25,51.6,164.05,54.1z"
			/>
		<path style="fill-rule:evenodd;clip-rule:evenodd;fill:#B57276;" d="M175.95,59.6c1.566-0.967,8.767-0.35,21.6,1.85
			c6.4,1.1,12.65,2.3,18.75,3.6l-1.35,5.25c-6.8-2.2-13.417-4.167-19.851-5.9c-9.8-2.6-16.066-3.717-18.8-3.35
			c-1.2,0.133-2.267,1.333-3.2,3.6c0.334-1.333,0.667-2.316,1-2.95C174.533,60.767,175.15,60.067,175.95,59.6z"/>
		<path style="fill-rule:evenodd;clip-rule:evenodd;fill:#A66B6F;" d="M176.05,60.5l1.25-0.4c1.134-0.233,2.351-0.317,3.65-0.25
			c2.1,0.1,10.6,1.483,25.5,4.15l-1.75,2.1c-12.566-3.233-20.2-4.983-22.9-5.25c-1.7-0.2-3.166-0.317-4.399-0.35H176.05z"/>
	</g>
	<g>
		<path style="fill-rule:evenodd;clip-rule:evenodd;fill:#B75165;" d="M0,140c2.067-0.733,4.367-1.35,6.9-1.85
			c5.133-1.034,8.967-1.034,11.5,0c2.567,1.033,3.967,3.116,4.2,6.25c0.1,1.566-0.05,3.033-0.45,4.399
			c-0.733-1.066-1.8-2.166-3.2-3.3c-2.733-2.233-5.667-3.434-8.8-3.6C7.783,141.8,4.667,141.6,0.8,141.3L0,140z"/>
		<path style="fill-rule:evenodd;clip-rule:evenodd;fill:#B75165;" d="M3.5,127.6c5.933,3.967,8.867,6.066,8.8,6.3
			c-0.1,0.267-2.1,1.267-6,3c0.667-1.233,0.833-2.434,0.5-3.601c-0.2-0.733-0.633-1.566-1.3-2.5l-0.95-1.15L3.5,127.6z"/>
		<path style="fill-rule:evenodd;clip-rule:evenodd;fill:#C57A7F;" d="M46.4,141.05l-1.9-3.899c0.033-0.834,0.167-1.7,0.4-2.601
			c0.5-1.8,1.3-2.85,2.4-3.15c1.1-0.3,3.767-0.55,8-0.75c2.133-0.1,4.15-0.167,6.05-0.2l-0.45,0.95c-1.3,0.533-2.683,1.15-4.15,1.85
			c-2.967,1.333-4.867,2.35-5.7,3.05C49.717,137.366,48.167,138.95,46.4,141.05z"/>
		<path style="fill-rule:evenodd;clip-rule:evenodd;fill:#C57A7F;" d="M57.5,120.6l-0.7,2.55l-0.7,0.8
			c-0.467,0.667-0.7,1.367-0.7,2.1c0,1.167,0.5,2.5,1.5,4l-6.6-1.9c0.6-1.133,1.35-2.3,2.25-3.5
			C54.317,122.25,55.967,120.9,57.5,120.6z"/>
		<path style="fill-rule:evenodd;clip-rule:evenodd;fill:#97535C;" d="M44.55,120.3c2.667,0.567,5.633,0.784,8.9,0.65
			c1.6-0.067,2.95-0.184,4.05-0.35l-1.8,1.8c-1.2,1.367-1.75,2.417-1.65,3.15c0.2,1.333,1.467,2.55,3.8,3.65
			c1.2,0.566,2.367,0.983,3.5,1.25c-3.434,0.433-6.667,1.3-9.7,2.6c-2.033,0.867-3.833,1.8-5.4,2.8
			c-0.767,0.534-1.35,0.967-1.75,1.301c-1.067-0.267-2.367-0.517-3.9-0.75c-3.067-0.5-5.8-0.684-8.2-0.551
			c-2.367,0.134-4.983,1.884-7.85,5.25c-1.4,1.667-2.583,3.317-3.55,4.95c-0.2-0.5-0.533-1.05-1-1.649
			c-0.867-1.233-1.85-2.15-2.95-2.75c-2.066-1.134-5.533-1.75-10.4-1.851C4.217,139.767,2,139.833,0,140
			c1.2-0.6,2.417-1.316,3.65-2.15c2.533-1.666,4-3.017,4.4-4.05c0.4-1.066-0.233-2.417-1.9-4.05L3.5,127.6
			c3.7,0.4,7.467-0.583,11.3-2.95l4.6-3.7l2.5,0.9c2.033,0.6,3.917,0.833,5.65,0.7c1.7-0.133,3.55-0.933,5.55-2.4l2.45-2.1
			C36.383,118.45,39.383,119.2,44.55,120.3z"/>
		<path style="fill-rule:evenodd;clip-rule:evenodd;fill:#BD6570;" d="M44.5,137.15l1.9,3.899c-1.8-0.533-3.767-1.017-5.9-1.45
			c-4.333-0.899-7.4-1.083-9.2-0.55c-1.833,0.533-3.9,2.316-6.2,5.351c-1.167,1.533-2.15,3-2.95,4.399L21,146.05
			c0.533-1.366,1.333-2.833,2.4-4.399c2.2-3.101,4.7-5.101,7.5-6c1.5-0.467,4.217-0.351,8.15,0.35
			C41.017,136.333,42.833,136.717,44.5,137.15z"/>
		<path style="fill-rule:evenodd;clip-rule:evenodd;fill:#BD6570;" d="M48.45,111.05c1.033-2.3,2.267-4.483,3.7-6.55l1.8-2.45
			l-2.1,4.1c-1.434,3.133-2.283,5.7-2.55,7.7c-0.267,2.033-0.117,4.717,0.45,8.05c0.267,1.7,0.567,3.184,0.9,4.45
			c-0.4,0.3-0.917,0.517-1.55,0.65c-1.233,0.2-2.333-0.183-3.3-1.15c0.034-1.533,0.167-3.317,0.4-5.35
			C46.667,116.5,47.417,113.35,48.45,111.05z"/>
		<path style="fill-rule:evenodd;clip-rule:evenodd;fill:#BD6570;" d="M28.9,95.7c-1.2,5.7-1.45,9.483-0.75,11.35
			c1.1,3,4.267,8.883,9.5,17.65l-2.25,1.7c-1.733,0.934-3.15,0.983-4.25,0.15c-0.9-2.333-1.783-4.933-2.65-7.8
			c-1.8-5.733-2.7-9.917-2.7-12.55s0.867-6.517,2.6-11.65l2.55-6.85L28.9,95.7z"/>
		<path style="fill-rule:evenodd;clip-rule:evenodd;fill:#BD6570;" d="M13.45,103.2v6.15c0.033,4.7,0.15,8.533,0.35,11.5
			c0.2,3,1.284,6.1,3.25,9.3c1,1.6,1.967,2.9,2.9,3.9c-0.833,1.667-1.967,2.467-3.4,2.4l-1.9-0.601
			c-1.333-4.667-2.233-8.716-2.7-12.149c-0.267-2.133-0.1-6.2,0.5-12.2L13.45,103.2z"/>
		<g>
			<path style="fill-rule:evenodd;clip-rule:evenodd;fill:#A45963;" d="M48.05,118.1c-0.066,2.767,0,5.75,0.2,8.95
				c-0.9-0.066-1.717-0.466-2.45-1.2c0.034-1.533,0.167-3.317,0.4-5.35c0.466-4,1.216-7.15,2.25-9.45
				c1.033-2.3,2.267-4.483,3.7-6.55l1.8-2.45l-2.9,4.95C49.117,110.967,48.117,114.667,48.05,118.1z"/>
		</g>
		<g>
			<path style="fill-rule:evenodd;clip-rule:evenodd;fill:#A45963;" d="M30.95,87.7l-2.55,7.45c-1.566,5.5-2.083,9.65-1.55,12.45
				c0.433,2.167,1.65,5.367,3.65,9.6c1.433,2.966,3.033,6.033,4.8,9.2c-1.667,0.9-3.05,0.95-4.15,0.15
				c-0.9-2.333-1.783-4.933-2.65-7.8c-1.8-5.733-2.7-9.917-2.7-12.55s0.867-6.517,2.6-11.65L30.95,87.7z"/>
		</g>
		<g>
			<path style="fill-rule:evenodd;clip-rule:evenodd;fill:#A45963;" d="M13.45,103.2l-0.65,7.85c-0.3,5.833-0.167,10.15,0.4,12.95
				c0.833,4,2.5,8.017,5,12.05c-0.733,0.434-1.55,0.533-2.45,0.3l-1.1-0.5c-1.333-4.667-2.233-8.716-2.7-12.149
				c-0.267-2.133-0.1-6.2,0.5-12.2L13.45,103.2z"/>
		</g>
	</g>
	<path style="fill-rule:evenodd;clip-rule:evenodd;fill:#976265;" d="M126.15,46.75c0.5,1.167,1.067,2.167,1.7,3l-5.8,1.4
		c-0.867,0.233-1.833-1.017-2.9-3.75c-1.133-2.9-1.383-5.4-0.75-7.5c0.934-3.133,2.5-5.35,4.7-6.65c1.6-1,3.117-1.367,4.55-1.1
		c1.333,0.267,2.666,1.35,4,3.25c-0.667,0.367-1.417,0.883-2.25,1.55c-1.667,1.333-2.867,2.733-3.601,4.2
		C125.067,42.617,125.183,44.483,126.15,46.75z"/>
	<g>
		<g>
			<path style="fill-rule:evenodd;clip-rule:evenodd;fill:#B75165;" d="M214.7,49.4h1.05c0.9-0.133,1.934-0.5,3.1-1.1
				c1.867-0.933,3.717-2.7,5.551-5.3l1,0.1L218.3,54L214.7,49.4z"/>
			<path style="fill-rule:evenodd;clip-rule:evenodd;fill:#97535C;" d="M206.85,65.4l3.051,1.45c2.233,1.333,3.8,2.867,4.699,4.6
				c0.9,1.733,0.384,5.25-1.55,10.55c-0.967,2.633-2.033,5.1-3.2,7.4l-1.25-1.9c0.334-2.233,0.617-4.55,0.851-6.95
				c0.434-4.833,0.35-7.716-0.25-8.65c-0.566-0.9-2.084-2.117-4.55-3.65l-3.551-2L206.85,65.4z"/>
			<path style="fill-rule:evenodd;clip-rule:evenodd;fill:#C57A7F;" d="M224.95,49.15c-0.267,4.267-0.316,7-0.15,8.2
				c0.167,1.233,0.934,2.783,2.3,4.65c0.7,0.933,1.367,1.75,2,2.45c-1.1,1.033-2.199,2.167-3.3,3.4c-2.133,2.5-3.133,4.316-3,5.45
				c0.233,1.767,0.7,6.85,1.4,15.25c-0.934-0.6-1.967-1.183-3.101-1.75c-2.233-1.1-3.866-1.583-4.899-1.45
				c-0.9,0.133-2.233,0.85-4,2.15l-2.351,1.9c2.067-10.867,2.851-16.95,2.351-18.25c-0.3-0.8-1.167-1.667-2.601-2.6l-2-1.2
				c1.601-2.167,3.034-4.633,4.301-7.4c2.566-5.5,3.05-9.684,1.449-12.55l1.9,2c1.5,1.2,2.816,1.5,3.95,0.9
				c1.133-0.6,2.5-1.983,4.1-4.15c0.834-1.066,1.533-2.083,2.101-3.05L224.95,49.15z"/>
			<path style="fill-rule:evenodd;clip-rule:evenodd;fill:#B75165;" d="M212.2,48l1.149-0.55l1.15,2.6c0.6,2.2,0.5,4.367-0.3,6.5
				s-2.134,4.583-4,7.35l-2.601,3.45l-6.5-1.1l2.301-1.2c1.8-1.1,3.399-2.417,4.8-3.95c2.7-2.9,4.184-5.95,4.45-9.15L212.2,48z"/>
		</g>
		<path style="fill-rule:evenodd;clip-rule:evenodd;fill:#BD6570;" d="M245.4,44c-5.233,5.233-9.15,8.317-11.75,9.25
			c-2.567,0.933-5.467,1.6-8.7,2l-4.101,0.35c-0.366-0.6-0.583-1.283-0.649-2.05c-0.101-1.533,0.649-2.716,2.25-3.55l3.2,0.95
			c2.833,0.333,6.017-0.217,9.55-1.65c3.533-1.4,7.467-3.966,11.8-7.7c2.167-1.867,3.983-3.6,5.45-5.2
			C250.35,38.833,248,41.367,245.4,44z"/>
		<path style="fill-rule:evenodd;clip-rule:evenodd;fill:#BD6570;" d="M243.05,71.25c-8.267,2.1-13.75,2.383-16.45,0.85
			c-2.699-1.533-5.3-3.05-7.8-4.55l-2.95-1.8c-0.1-0.8-0.05-1.583,0.15-2.35c0.4-1.533,1.4-2.183,3-1.95l3.45,2.85
			c2.767,2.167,5.333,3.867,7.7,5.1c2.366,1.267,7.149,1.35,14.35,0.25c3.6-0.533,6.967-1.2,10.1-2
			C251.033,69.017,247.184,70.217,243.05,71.25z"/>
		<path style="fill-rule:evenodd;clip-rule:evenodd;fill:#BD6570;" d="M218.7,79l5.45,2.1c4.166,1.367,7.517,1.933,10.05,1.7
			c2.533-0.233,4.666-0.9,6.399-2c0.867-0.566,1.467-1.1,1.801-1.6c-0.801,1.3-1.983,2.533-3.551,3.7
			c-3.199,2.333-6.8,3.184-10.8,2.55c-2.267-0.367-4.8-1-7.6-1.9l-3.55-1.3c-0.367-0.233-0.584-0.55-0.65-0.95
			C216.184,80.533,217,79.767,218.7,79z"/>
		<g>
			<path style="fill-rule:evenodd;clip-rule:evenodd;fill:#A45963;" d="M220.25,52.75c1.967,0.133,4.217,0.15,6.75,0.05
				c3.967-0.133,6.667-0.533,8.1-1.2l4.351-2.15c-2.334,1.966-4.267,3.233-5.8,3.8c-2.567,0.933-5.467,1.6-8.7,2l-4.101,0.35
				C220.283,54.7,220.083,53.75,220.25,52.75z"/>
			<path style="fill-rule:evenodd;clip-rule:evenodd;fill:#A45963;" d="M248.75,40.05c-1.783,1.75-3.25,3.1-4.4,4.05
				c-4.066,3.333-7.8,5.316-11.199,5.95l2.05-0.75C239.33,47.648,243.847,44.565,248.75,40.05z"/>
		</g>
		<g>
			<path style="fill-rule:evenodd;clip-rule:evenodd;fill:#A45963;" d="M242.3,71.45c-7.833,1.933-13.066,2.15-15.7,0.65
				c-2.699-1.533-5.3-3.05-7.8-4.55l-2.95-1.8c-0.133-1.033-0.033-1.967,0.301-2.8c2.133,1.7,4.333,3.3,6.6,4.8
				c3.767,2.433,6.616,3.8,8.55,4.1c3.233,0.467,10.967-0.917,23.2-4.15C250.566,69.167,246.5,70.417,242.3,71.45z"/>
		</g>
		<g>
			<path style="fill-rule:evenodd;clip-rule:evenodd;fill:#A45963;" d="M216.35,81.6c-0.233-0.533-0.017-1.067,0.65-1.6
				c2.634,1.233,4.684,2.133,6.15,2.7c3.199,1.2,5.716,1.75,7.55,1.65c2.434-0.133,4.7-0.65,6.8-1.55c2-0.867,3.55-1.966,4.65-3.3
				l0.25-0.3c-0.801,1.3-1.983,2.533-3.551,3.7c-3.199,2.333-6.8,3.184-10.8,2.55c-2.267-0.367-4.8-1-7.6-1.9l-3.55-1.3
				C216.667,82.083,216.483,81.867,216.35,81.6z"/>
		</g>
	</g>
	<path style="fill-rule:evenodd;clip-rule:evenodd;fill:#A66B6F;" d="M32.6,139.75l5.65,10.35c4.167,7.267,7.233,11.817,9.2,13.65
		c2.5,2.3,4.617,3.8,6.35,4.5c1.934,0.767,4.1,0.85,6.5,0.25c3.333-0.833,5.5-1.55,6.5-2.15l-2.8,2.5
		c-2.233,1.634-4.3,2.4-6.2,2.301c-6.3-0.2-12.133-3.884-17.5-11.051c-2.867-3.8-5.566-8.083-8.1-12.85l-3-6
		c0.267-0.267,0.617-0.533,1.05-0.8C31.083,139.95,31.867,139.717,32.6,139.75z"/>
	<path style="fill-rule:evenodd;clip-rule:evenodd;fill:#A66B6F;" d="M92.3,152.6c1.133,1.567,1.95,3.65,2.45,6.25
		c0.233,1.301,0.35,2.434,0.35,3.4c-0.7,0.033-1.55,0.4-2.55,1.1c-0.533,0.334-0.983,0.667-1.35,1
		c-0.267-4.666-0.767-8.116-1.5-10.35c-0.467-1.4-1.333-2.384-2.6-2.95l-1.75-0.45l2.45-0.399
		C89.667,150.233,91.167,151.033,92.3,152.6z"/>
	<path style="fill-rule:evenodd;clip-rule:evenodd;fill:#A66B6F;" d="M92.35,176.5c0.3-0.733,0.883-1.533,1.75-2.4l1.2-1.1
		l8.05,30.4c1.467,5.399,3.15,10.216,5.05,14.449c2.333,5.167,4.55,8.301,6.65,9.4c1.867,0.967,4.75,1.134,8.65,0.5
		c2.167-0.333,5.2-0.884,9.1-1.65c2.834-0.267,5-0.233,6.5,0.101c1.934,0.399,3.733,1.416,5.4,3.05c1.5,1.467,3.083,6.167,4.75,14.1
		c0.8,4,1.467,7.834,2,11.5l-3-0.85c0.1-3,0.066-5.366-0.101-7.1c-0.199-2.233-0.566-4.65-1.1-7.25
		c-0.733-3.767-1.533-6.351-2.4-7.75c-1.966-3.2-5.1-4.884-9.399-5.051c-0.967-0.033-4.033,0.483-9.2,1.551
		c-4.8,1-8.4,1.283-10.8,0.85c-2.667-0.467-5-2.417-7-5.85c-1.767-3.9-2.934-6.417-3.5-7.551c-1.633-3.366-4.233-10.933-7.8-22.699
		L92.35,176.5z"/>
	<path style="fill-rule:evenodd;clip-rule:evenodd;fill:#A66B6F;" d="M101.05,141.45l-0.35-0.351c0-0.5,0.333-1.233,1-2.199
		c0.433-0.567,1.15-1.117,2.15-1.65l1.35-0.65l-0.9,0.601c-0.667,0.566-1.167,1.217-1.5,1.95c-0.566,1.233-0.767,2.733-0.6,4.5
		c-0.333-0.667-0.55-1.167-0.65-1.5C101.483,141.95,101.317,141.717,101.05,141.45z"/>
	<path style="fill-rule:evenodd;clip-rule:evenodd;fill:#A66B6F;" d="M139.85,145.25c4.334,0.167,7.334,0.233,9,0.2
		c2.534-0.033,4.483-0.217,5.851-0.55c2-0.5,4.133-1.301,6.399-2.4c-0.399,0.566-1.066,1.15-2,1.75c-1.899,1.2-4.233,1.9-7,2.1
		c-5.233,0.334-11.533,0.017-18.899-0.949l-9.5-1.551l5.399,0.601C133.3,144.884,136.884,145.15,139.85,145.25z"/>
	<path style="fill-rule:evenodd;clip-rule:evenodd;fill:#A66B6F;" d="M158.2,122c0.133-1.767,0.217-4.767,0.25-9v-5.85
		c0.434,0.467,0.85,0.717,1.25,0.75l-0.25,7.9c-0.233,5.633-0.483,9.317-0.75,11.05s-0.783,3.25-1.55,4.55l-1.101,1.45
		c0.267-0.5,0.533-1.317,0.8-2.45C157.483,128.1,157.934,125.3,158.2,122z"/>
	<path style="fill-rule:evenodd;clip-rule:evenodd;fill:#A66B6F;" d="M138.45,47.8c8.6,1.567,14.3,3,17.1,4.3
		c2.934,1.333,4.9,3.633,5.9,6.9c0.434,1.367,0.816,4.117,1.149,8.25c0.301,3.267-0.916,13.483-3.649,30.65l-1-1.5
		c0.767-3.133,1.467-6.75,2.1-10.85c1.267-8.167,1.566-14.6,0.9-19.3c-0.733-5.067-2-8.633-3.8-10.7
		c-1.2-1.4-3.067-2.383-5.601-2.95c-1.7-0.4-6.05-1.1-13.05-2.1l-9.95-1.35c-0.899-1.033-1.399-1.717-1.5-2.05l-0.6-1.25
		L138.45,47.8z"/>
	<path style="fill-rule:evenodd;clip-rule:evenodd;fill:#CD8E90;" d="M104.2,172.6c0.633-0.199,1.483-0.066,2.55,0.4
		c0.567,0.233,1.05,0.483,1.45,0.75l0.4,7.9c0.4,6.3,0.883,12.05,1.45,17.25c0.534,5.199,1.633,10.633,3.3,16.3
		c0.833,2.833,1.617,5.133,2.35,6.899c-0.833-1.133-1.767-2.733-2.8-4.8c-2.066-4.066-3.583-8.366-4.55-12.899
		c-0.967-4.5-1.95-11.15-2.95-19.95L104.2,172.6z"/>
	<path style="fill-rule:evenodd;clip-rule:evenodd;fill:#CD8E90;" d="M131.7,220.6l6.399-1.05c4.7-0.7,8.117-1.017,10.25-0.95
		c2.167,0.067,4.351,2.5,6.551,7.301c1.1,2.399,1.983,4.8,2.649,7.199c-0.3-0.533-0.649-1.05-1.05-1.55
		c-0.733-0.967-1.283-1.35-1.65-1.149c-0.333,0.199-0.616,0.899-0.85,2.1c-0.134,0.6-0.233,1.184-0.3,1.75
		c-0.233-2.1-0.617-4.25-1.15-6.45c-1.033-4.434-2.316-6.899-3.85-7.399c-1.533-0.467-4.816-0.584-9.851-0.351L131.7,220.6z"/>
	<path style="fill-rule:evenodd;clip-rule:evenodd;fill:#CD8E90;" d="M83.9,140.5l-3.05,0.25l2.75-1c2.3-0.566,4.55-0.566,6.75,0
		c2.233,0.566,4.483,1.8,6.75,3.7c1.133,0.934,2.05,1.816,2.75,2.649c-0.5-0.3-1.033-0.6-1.6-0.899c-1.1-0.634-1.783-0.95-2.05-0.95
		c-0.267,0-0.184,0.667,0.25,2c0.233,0.667,0.483,1.333,0.75,2c-0.5-1-1.167-2.05-2-3.15c-1.7-2.199-3.417-3.533-5.15-4
		C88.317,140.6,86.267,140.4,83.9,140.5z"/>
	<path style="fill-rule:evenodd;clip-rule:evenodd;fill:#CD8E90;" d="M41.05,142.1l1.05,2.45c0.967,2.101,2.217,4.334,3.75,6.7
		c2.467,3.767,5.033,7.217,7.7,10.35c-1.667-0.8-3.617-2.416-5.85-4.85c-1.4-1.533-3.483-4.467-6.25-8.8l-3.75-6.05
		c-0.067-0.4,0.466-0.483,1.6-0.25C39.9,141.75,40.483,141.9,41.05,142.1z"/>
	<path style="fill-rule:evenodd;clip-rule:evenodd;fill:#CD8E90;" d="M125.7,138.1c-3.4-0.066-7.2,0.017-11.4,0.25l-5.25,0.4
		l2.1-0.65c1.9-0.466,4.133-0.8,6.7-1c4.133-0.333,14.917-0.233,32.35,0.301c-1.3,0-2.634,0.017-4,0.05
		c-2.733,0.1-4.233,0.25-4.5,0.45c-0.267,0.199,0.717,0.517,2.95,0.949c1.1,0.2,2.233,0.384,3.399,0.551
		C138.583,138.634,131.134,138.2,125.7,138.1z"/>
	<path style="fill-rule:evenodd;clip-rule:evenodd;fill:#CD8E90;" d="M165.85,109.4c0.567,0,1.684-0.383,3.351-1.15l-0.65,5.2
		c-0.566,4.167-1.133,7.983-1.7,11.45c-0.466,2.967-1.149,5.583-2.05,7.85c-0.467,1.133-0.883,1.967-1.25,2.5
		c1.3-5.5,2.134-9.95,2.5-13.35c0.267-2.633,0.316-5.5,0.15-8.6L165.85,109.4z"/>
	<path style="fill-rule:evenodd;clip-rule:evenodd;fill:#CD8E90;" d="M169.05,97.75c-1.133,0.9-1.967,1.35-2.5,1.35
		c0.867-13.667,1.367-21.95,1.5-24.85l1-15.5v13.5l4.3-14.15l-2.1,11.15c-1.4,7.967-2.134,13.3-2.2,16
		C168.917,89.583,168.917,93.75,169.05,97.75z"/>
	<path style="fill-rule:evenodd;clip-rule:evenodd;fill:#CD8E90;" d="M181.2,52.25c3.066,1.267,8.6,2.65,16.6,4.15
		c4,0.733,7.684,1.35,11.05,1.85l-1.149,2c-20.233-5.567-33.283-9.283-39.15-11.15c-3.7-1.2-11.5-2.967-23.399-5.3l-16.801-3.2
		c0.034-0.233,0.101-0.517,0.2-0.85c0.2-0.6,0.467-1.05,0.8-1.35c0.567-0.433,1.733-0.933,3.5-1.5l21.4,6.55
		C169.15,48.083,178.134,51.017,181.2,52.25z"/>
	<g>
		<path style="fill-rule:evenodd;clip-rule:evenodd;fill:#805457;" d="M121.95,43.65c0.733,0.633,1.917,0.95,3.55,0.95
			c0.333,1.8,1.117,3.517,2.35,5.15l-5.8,1.4c-0.867,0.233-1.833-1.017-2.9-3.75c-1.133-2.9-1.383-5.4-0.75-7.5
			c0.333-1,0.7-1.9,1.1-2.7l0.1-0.1l0.65,2.85C120.817,41.95,121.383,43.183,121.95,43.65z"/>
	</g>
	<path style="fill-rule:evenodd;clip-rule:evenodd;fill:#B57276;" d="M123.325,34.575L124.7,33.6c1.1-0.633,2.1-0.867,3-0.7
		c0.866,0.133,1.633,0.55,2.3,1.25c0.333,0.367,0.566,0.7,0.7,1c-0.634,0.167-1.05,0.333-1.25,0.5l-1.101,0.95
		c0.101-0.434,0.15-0.883,0.15-1.35c-0.066-0.9-0.417-1.367-1.05-1.4c-0.7-0.067-1.567,0.017-2.6,0.25
		C124.04,34.287,123.531,34.445,123.325,34.575z"/>
	<path style="fill-rule:evenodd;clip-rule:evenodd;fill:#B57276;" d="M169.6,102.45c0.7-0.467,1.184-0.467,1.45,0
		c0.267,0.4,0.283,0.95,0.05,1.65c-0.233,0.833-1.433,1.617-3.6,2.35l1.6-2C169.7,103.883,169.866,103.217,169.6,102.45z"/>
	<path style="fill-rule:evenodd;clip-rule:evenodd;fill:#B57276;" d="M107,164.35c1.567,0,2.933,0.983,4.1,2.95
		c1.066,1.8,1.4,2.934,1,3.4c-0.333,0.434-1.2,0.1-2.6-1c0.5-0.4,0.7-1.017,0.6-1.851c-0.033-0.533-0.567-1.267-1.6-2.199
		L107,164.35z"/>
	<g>
		<path style="fill-rule:evenodd;clip-rule:evenodd;fill:#805457;" d="M153.55,255.85l-0.05,0.101l-0.65,1.55
			c-0.433,1.267-0.6,2.467-0.5,3.6c0.101,1.034,1.284,2.117,3.551,3.25c1.333,0.667,2.8,1.25,4.399,1.75
			c-0.934,0.134-2.1,0.2-3.5,0.2c-3.934-0.1-6.95-0.75-9.05-1.95c-1.8-1.033-2.55-2.166-2.25-3.399
			c0.267-1.033,0.717-2.483,1.35-4.351l0.9-2.5l1.5,0.7C150.55,255.3,151.983,255.65,153.55,255.85z"/>
	</g>
	<path style="fill-rule:evenodd;clip-rule:evenodd;fill:#B57276;" d="M162.1,256.6c1.2-0.633,2.267-0.55,3.2,0.25
		c0.733,0.7,1.25,1.733,1.55,3.101c0.2,1-0.199,1.883-1.199,2.649c-0.5,0.4-1.017,0.684-1.551,0.851
		c-0.566-0.233-0.767-0.983-0.6-2.25c0.1-0.767-0.1-1.767-0.6-3L162.1,256.6z"/>
</g>
</svg>
