<?xml version="1.0" encoding="iso-8859-1"?>
<!-- Generator: Adobe Illustrator 15.1.0, SVG Export Plug-In . SVG Version: 6.00 Build 0)  -->
<!DOCTYPE svg PUBLIC "-//W3C//DTD SVG 1.1//EN" "http://www.w3.org/Graphics/SVG/1.1/DTD/svg11.dtd">
<svg version="1.1" id="buildings-back" xmlns="http://www.w3.org/2000/svg" xmlns:xlink="http://www.w3.org/1999/xlink" x="0px"
	 y="0px" width="85.4px" height="180.2px" viewBox="0 0 85.4 180.2" style="enable-background:new 0 0 85.4 180.2;"
	 xml:space="preserve">
<symbol  id="FlashAICB_x5F_0_x2F_buildings-back_x2F__x3C_Path_x3E__x5F_7" viewBox="0.027 -18.35 71.461 18.318">
	<g id="Layer_1_2_">
		<path style="fill-rule:evenodd;clip-rule:evenodd;fill:#373535;" d="M54.3-0.25C60.933-0.683,65.767-1.933,68.8-4
			c2.267-1.567,3.1-3.067,2.5-4.5c-0.367-0.833-2.066-1.683-5.1-2.55l-4.4-1.05l1.25-3.9L15.3-18.35l-2.4,3.6
			c-2.233,0.167-4.45,0.6-6.65,1.3c-4.4,1.367-6.467,3.317-6.2,5.85c0.167,1.567,2.45,2.9,6.85,4c3.3,0.833,6.717,1.333,10.25,1.5
			c1.633,0.067,6.55,0.533,14.75,1.4C40.6,0,48.067,0.15,54.3-0.25z"/>
	</g>
</symbol>
<g>
	<g>
		
			<use xlink:href="#FlashAICB_x5F_0_x2F_buildings-back_x2F__x3C_Path_x3E__x5F_7"  width="71.461" height="18.318" x="0.027" y="-18.35" transform="matrix(1 0 0 -1 6.0498 161.8496)" style="overflow:visible;opacity:0.3984;enable-background:new    ;"/>
		<path style="fill-rule:evenodd;clip-rule:evenodd;fill:#B08961;" d="M26.3,91.5c2.833-5.567,3.983-10.183,3.45-13.85
			C28.05,66.35,27.8,56.6,29,48.4c1.667-11.3,6-16.8,13-16.5c7.967,0.333,12.15,9.184,12.55,26.55
			c0.101,3.833-0.066,10.517-0.5,20.05c-0.3,7.3-0.233,11.917,0.2,13.85c0.533,2.301,1.983,4.75,4.35,7.351
			c0.767,0.833,3.301,3.25,7.601,7.25c7.633,7.066,12.649,14.184,15.05,21.35c4.366,13.134,5.517,22.9,3.45,29.3
			c-3.233,10.067-13.917,16.367-32.05,18.9c-18.634,2.634-32.567-0.316-41.8-8.85c-7.5-6.934-11-16.233-10.5-27.9
			c0.167-4.333,1.933-9.55,5.3-15.65c1.867-3.5,5.4-9.033,10.6-16.6C21.15,100.333,24.5,95,26.3,91.5z"/>
		<path style="fill-rule:evenodd;clip-rule:evenodd;fill:#8F7050;" d="M42.5,35.65c-1.067-0.133-1.783-0.717-2.15-1.75l2.9-9.8
			L37.1,13.5L48.55,0L60,7.35L57.55,9.8l-9-5.7l-6.95,9.4l4.5,11.45l-2.05,10.6C43.583,35.683,43.066,35.717,42.5,35.65z"/>
		<g>
			<path style="fill-rule:evenodd;clip-rule:evenodd;fill:#977655;" d="M42,31.9c1.967,0.033,3.7,0.6,5.2,1.7
				c-1.8,0.667-3.5,1.983-5.101,3.95c-2.167,2.567-3.75,5.85-4.75,9.85c-1.033,4.1-0.7,7.684,1,10.75
				c0.867,1.533,1.816,2.667,2.85,3.4l-0.95,16.3c-0.733,11.566-1.333,19.034-1.8,22.4c-0.333,2.333-1.617,5.134-3.85,8.4
				c-1.3,1.866-3.467,4.949-6.5,9.25c-5.533,8.767-7.167,18.316-4.9,28.649c1.2,5.467,3.933,10.2,8.2,14.2
				c3.934,3.667,8.8,6.384,14.6,8.15c5.6,1.699,11.333,2.283,17.2,1.75c6.066-0.567,11.434-2.25,16.1-5.051l1.15-0.649
				c-5.267,5.866-14.533,9.717-27.8,11.55c-18.634,2.634-32.567-0.316-41.8-8.85c-7.5-6.934-11-16.233-10.5-27.9
				c0.167-4.333,1.933-9.55,5.3-15.65c1.867-3.5,5.4-9.033,10.6-16.6c4.9-7.167,8.25-12.5,10.05-16
				c2.833-5.567,3.983-10.183,3.45-13.85C28.05,66.35,27.8,56.6,29,48.4C30.667,37.1,35,31.6,42,31.9z"/>
		</g>
		<path style="fill-rule:evenodd;clip-rule:evenodd;fill:#C6986B;" d="M45.7,41.25c1.3-1.067,2.366-1.183,3.2-0.35
			c0.966,0.967,1.933,3.4,2.899,7.3c0.867,3.433,1.117,7.6,0.75,12.5c-0.166,2.433-0.416,4.533-0.75,6.3l-3.649-1.2
			c0.267-4.367,0.399-8.867,0.399-13.5c0-2.9-0.467-5.617-1.399-8.15L45.7,41.25z"/>
		<path style="fill-rule:evenodd;clip-rule:evenodd;fill:#C6986B;" d="M51.4,104.2c5.466,0.333,11.149,3.684,17.05,10.05
			c4.899,5.3,7.517,9.167,7.85,11.6c0.2,1.2-1.1,2.034-3.899,2.5l-4.25,0.351c0.133-0.267,0.166-0.851,0.1-1.75
			c-0.134-1.767-0.717-4.184-1.75-7.25s-3.85-6.566-8.45-10.5L51.4,104.2z"/>
		<path style="fill-rule:evenodd;clip-rule:evenodd;fill:#AD9E6F;" d="M63.05,134.65c0.8,5.699,2.3,19.716,4.5,42.05L23,178.75
			c0.1-10.366,0.95-20.9,2.55-31.6c3.2-21.4,8.55-32.867,16.05-34.4c6.034-1.233,11.15,1,15.35,6.7
			C60.184,123.816,62.217,128.884,63.05,134.65z"/>
		<path style="fill-rule:evenodd;clip-rule:evenodd;fill:#AF7F51;" d="M62,146.05c2.066,10.167,3.233,20.45,3.5,30.851l-39.65,1.649
			c0.467-9.833,1.517-19.767,3.15-29.8c3.233-20,7.767-30.434,13.6-31.3C51.467,116.184,57.934,125.717,62,146.05z"/>
		<path style="fill-rule:evenodd;clip-rule:evenodd;fill:#886B4D;" d="M60.85,148.8c-0.133,1.967-1.1,3.033-2.899,3.2
			c-2.334,0.2-3.351-0.767-3.05-2.9c0.3-2.166,1.383-3.25,3.25-3.25C60.05,145.85,60.95,146.833,60.85,148.8z"/>
	</g>
	<path style="fill-rule:evenodd;clip-rule:evenodd;fill:#AD9E6F;" d="M40.55,96.85c-0.167-2.666-0.7-4.783-1.6-6.35
		c-0.6-1.033-1.7-2.183-3.3-3.45L33.4,85.4l2.7-0.45c1.9-0.5,3.183-1.3,3.85-2.4c0.7-1.1,1.483-2.8,2.35-5.1l1.15-3.1l0.6,3.2
		c0.467,2.367,0.867,4.1,1.2,5.2c0.366,1.1,1.566,2.217,3.6,3.35c1.034,0.566,2.017,1.017,2.95,1.35
		c-0.833,0.2-1.767,0.483-2.8,0.85c-2,0.7-3.384,1.434-4.15,2.2C43.517,91.866,42.083,93.983,40.55,96.85z"/>
	<path style="fill-rule:evenodd;clip-rule:evenodd;fill:#7B6147;" d="M42.8,82.35c1.967,0.6,2.8,2.2,2.5,4.8
		c-0.333,2.567-1.566,3.75-3.7,3.55c-2.033-0.2-2.733-1.767-2.1-4.7C40.167,83.067,41.267,81.85,42.8,82.35z"/>
</g>
</svg>
