<?xml version="1.0" encoding="iso-8859-1"?>
<!-- Generator: Adobe Illustrator 15.1.0, SVG Export Plug-In . SVG Version: 6.00 Build 0)  -->
<!DOCTYPE svg PUBLIC "-//W3C//DTD SVG 1.1//EN" "http://www.w3.org/Graphics/SVG/1.1/DTD/svg11.dtd">
<svg version="1.1" id="back_mountains" xmlns="http://www.w3.org/2000/svg" xmlns:xlink="http://www.w3.org/1999/xlink" x="0px"
	 y="0px" width="673.95px" height="685.75px" viewBox="0 0 673.95 685.75" style="enable-background:new 0 0 673.95 685.75;"
	 xml:space="preserve">
<g>
	<path style="fill-rule:evenodd;clip-rule:evenodd;fill:#628378;" d="M667.55,656.45c6.967,14.5,8.101,23.55,3.4,27.149
		c-4.733,3.601-15.483,1.351-32.25-6.75c-5.267-2.566-10.8-5.533-16.601-8.899l-7.149-4.351c-2,3.233-5.617,6.5-10.851,9.801
		c-10.433,6.666-23.699,10.283-39.8,10.85c-16.666,0.566-38.283-1.283-64.85-5.55c-11.566-1.867-30.851-5.566-57.851-11.101
		c-12.199-2.5-31.533-0.25-58,6.75c-8.267,2.2-16.75,4.733-25.449,7.601L347.6,685.6l-28-17.35c-7.434,2.566-16.35,5.217-26.75,7.95
		c-20.767,5.434-38.517,8.566-53.25,9.399c-16.1,0.9-28.817-2.433-38.15-10c-3.833-3.133-6.733-6.733-8.7-10.8
		c-1.8-3.767-2.617-7.5-2.45-11.2c0.3-6.3-8.95-6.383-27.75-0.25c-13.1,4.267-34.517,13.017-64.25,26.25
		c-20.767,9.2-38.966,3.967-54.6-15.699c-5.633-7.067-10.6-15.65-14.9-25.75c-3.3-7.767-5.7-15.067-7.2-21.9l-0.3,1.45l-0.3-1.25
		l33-42l3-42l25.5-25.5l90-84c8.267-4,16.583-8.684,24.95-14.05c16.733-10.767,25.417-19.584,26.05-26.45
		c0.633-7.066,4.267-21.684,10.9-43.85c4.2-14.1,8.567-27.983,13.1-41.65c1.067-3.233,0.783-10.184-0.85-20.85
		c-1.5-9.8-3.833-20.967-7-33.5c-3.2-12.567-6.483-23.567-9.85-33c-3.7-10.267-6.8-16.65-9.3-19.15
		c-4.367-4.367-9.683-19.684-15.95-45.95l-8.05-38.05c-7-3.733-14.933-7.85-23.8-12.35c-17.767-9-31.333-15.383-40.7-19.15
		c-9.367-3.733-21.183,0.15-35.45,11.65c-7.1,5.733-13.283,11.85-18.55,18.35l-24,6l-33,58.5H0l31.5-82.5l3-22.5L72,26.95L138,0
		l66,22.45l66,13.5l31.45,64.5l49.5,37.5l45,43.5l76.5,55.5l19.5,73.5l40.5,99l75,129l11.25,22.2
		c9.066,17.833,17.517,34.35,25.35,49.55c0.334,1.2,0.851,2.55,1.55,4.05c2.367,5.1,6.101,12.333,11.2,21.7
		C662.134,645.783,665.717,652.616,667.55,656.45z"/>
	<g>
		<path style="fill-rule:evenodd;clip-rule:evenodd;fill:#547067;" d="M138,0l-11.7,11.9l-11,19l-23-5l-41,40l-1.25,9.65
			c-1.333,7.167-3.25,12.617-5.75,16.35c-2.5,3.767-7.417,14.733-14.75,32.9c-3.667,9.067-7.083,17.767-10.25,26.1l1.7,18.55H0
			l31.5-82.5l3-22.5L72,26.95L138,0z"/>
		<path style="fill-rule:evenodd;clip-rule:evenodd;fill:#547067;" d="M673.85,674.75c0.267,2.467,0.017,4.5-0.75,6.1L609.3,638.9
			l-32,23l-36-32l-32,29l-40-52l-54,39l-23-92l-4.649,9.449c-4.101,7.634-8.667,14.733-13.7,21.301
			c-16.167,21-34.05,32.75-53.65,35.25c-19.566,2.5-29.6-8.417-30.1-32.75c-0.167-7.601,0.633-16.084,2.4-25.45l2.7-11.8l-54,71
			l1-72l-5.75,4.699c-4.833,3.667-9.75,6.851-14.75,9.551c-16,8.666-29.833,10.916-41.5,6.75c-11.667-4.167,8.333-29.917,60-77.25
			c25.833-23.667,52.833-46.917,81-69.75l-72,29l57-60c-4.5,2.833-9.917,4.8-16.25,5.899c-12.667,2.167-23.583-1.133-32.75-9.899
			c-9.167-8.733-2.75-27.184,19.25-55.351c11-14.1,22.917-27.316,35.75-39.65l-44-4c-6.5-19-13.333-38.75-20.5-59.25
			c-14.333-41-23.167-65.25-26.5-72.75c-3.333-7.5-5.167-18.917-5.5-34.25l0.5-20.75L132,74.95c-1.033-0.4-2.083-0.7-3.15-0.9
			c5.233-2.667,11.617-4.35,19.15-5.05c12.367-1.133,25.8,0.833,40.3,5.9c16.667,5.833,39.333,21.75,68,47.75
			c14.333,13,27,25.417,38,37.25c-9.5-6.333-19-11.45-28.5-15.35c-19-7.833-28.5-5.716-28.5,6.35c0,12.1,10.167,37.4,30.5,75.9
			c10.167,19.233,20.333,37.267,30.5,54.1l52-12c-2.2,2.533-4.833,5.9-7.899,10.1c-6.101,8.4-11.25,16.75-15.45,25.05
			c-13.5,26.5-15.05,47.45-4.65,62.851c10.434,15.433,28.9,18.399,55.4,8.899c13.233-4.767,25.434-11.066,36.6-18.899
			c-27,23.666-52.25,48.583-75.75,74.75c-47,52.333-61.75,84.75-44.25,97.25s48.75,12.583,93.75,0.25
			c22.5-6.167,43.25-13.584,62.25-22.25l-6.2,12.8c-4.8,10.333-8.816,19.983-12.05,28.95c-10.333,28.666-10.916,45.083-1.75,49.25
			c9.167,4.166,22.917-0.084,41.25-12.75c9.167-6.334,17.417-13.084,24.75-20.25l16,47l31-32l29,59l6-75L673.85,674.75z"/>
		<path style="fill-rule:evenodd;clip-rule:evenodd;fill:#547067;" d="M400.3,456.9c-32.333,44.333-56,59-71,44s-0.333-38.667,44-71
			c22.167-16.167,45.834-30.834,71-44C431.134,411.066,416.467,434.733,400.3,456.9z"/>
		<path style="fill-rule:evenodd;clip-rule:evenodd;fill:#547067;" d="M504.3,450.9L500.4,470.8c-3.334,15.834-6.9,30.2-10.7,43.101
			c-12.167,41.333-24.3,60.333-36.4,57c-12.066-3.334-7.184-24.334,14.65-63C478.85,488.566,490.967,469.566,504.3,450.9z"/>
		<path style="fill-rule:evenodd;clip-rule:evenodd;fill:#547067;" d="M552.3,538.05c0.3-9.967,1.066-20.983,2.3-33.05l1.7-15.1
			l3.9,14.25c2.967,11.433,5.333,21.983,7.1,31.649c5.667,30.834,4.334,46.867-4,48.101C554.967,585.167,551.3,569.884,552.3,538.05
			z"/>
		<path style="fill-rule:evenodd;clip-rule:evenodd;fill:#547067;" d="M393.45,238.75l-1.15-4.85l2.8,3.95
			c2.233,3.433,4.267,7.167,6.101,11.2c5.833,12.833,8.533,26.117,8.1,39.85c-0.267,8.4-1.899,17.633-4.899,27.7
			c-3.134,10.4-7.117,19.583-11.95,27.55c-5.367,8.8-11.05,14.85-17.05,18.149c-6.801,3.733-13.5,3.601-20.101-0.399
			c-6.533-3.967-9.75-8.601-9.649-13.9c0.066-4.366,2.5-9.767,7.3-16.2c1.267-1.733,6.5-7.966,15.7-18.7
			c7.1-8.267,12.316-15.333,15.649-21.2c7.101-12.5,10.566-25.917,10.4-40.25C394.634,247.183,394.217,242.883,393.45,238.75z"/>
		<polygon style="fill-rule:evenodd;clip-rule:evenodd;fill:#547067;" points="376.3,207.9 359.3,249.9 319.3,256.9 267.3,170.9 
			340.3,234.9 364.3,185.9 418.3,237.9 		"/>
		<polygon style="fill-rule:evenodd;clip-rule:evenodd;fill:#547067;" points="467.3,393.9 452.3,270.9 475.3,370.9 496.3,416.9 		
			"/>
		<polygon style="fill-rule:evenodd;clip-rule:evenodd;fill:#547067;" points="259.3,53.9 254.3,77.9 293.3,137.9 228.3,77.9 		"/>
		<path style="fill-rule:evenodd;clip-rule:evenodd;fill:#4B645C;" d="M673.1,680.85c-0.533,1.134-1.25,2.051-2.149,2.75
			c-4.733,3.601-15.483,1.351-32.25-6.75c-5.267-2.566-10.8-5.533-16.601-8.899l-7.149-4.351c-2,3.233-5.617,6.5-10.851,9.801
			c-10.433,6.666-23.699,10.283-39.8,10.85c-16.666,0.566-38.283-1.283-64.85-5.55c-11.566-1.867-30.851-5.566-57.851-11.101
			c-12.199-2.5-31.533-0.25-58,6.75c-8.267,2.2-16.75,4.733-25.449,7.601L347.6,685.6l-28-17.35
			c-7.434,2.566-16.35,5.217-26.75,7.95c-20.767,5.434-38.517,8.566-53.25,9.399c-16.1,0.9-28.817-2.433-38.15-10
			c-3.833-3.133-6.733-6.733-8.7-10.8c-1.8-3.767-2.617-7.5-2.45-11.2c0.3-6.3-8.95-6.383-27.75-0.25
			c-13.1,4.267-34.517,13.017-64.25,26.25c-11.233,5-22.933,5.834-35.1,2.5c-10.534-2.866-20.417-8.483-29.65-16.85
			c-8.4-7.6-14.667-15.884-18.8-24.85c-4.133-9-4.95-16.167-2.45-21.5c5.6-11.934,14.233-22.917,25.9-32.95
			c3.633-3.167,7.35-6.033,11.15-8.601L54,574.45l3-42l25.5-25.5l90-84c8.267-4,16.583-8.684,24.95-14.05
			c16.733-10.767,25.417-19.584,26.05-26.45c0.633-7.066,4.267-21.684,10.9-43.85c4.2-14.1,8.567-27.983,13.1-41.65
			c1.067-3.233,0.783-10.184-0.85-20.85c-1.5-9.8-3.833-20.967-7-33.5c-3.2-12.567-6.483-23.567-9.85-33
			c-3.7-10.267-6.8-16.65-9.3-19.15c-4.367-4.367-9.683-19.684-15.95-45.95l-8.05-38.05c-7-3.733-14.933-7.85-23.8-12.35
			c-17.767-9-31.333-15.383-40.7-19.15l84.3,26.95l-0.5,20.75c0.333,15.333,2.167,26.75,5.5,34.25
			c3.333,7.5,12.167,31.75,26.5,72.75c7.167,20.5,14,40.25,20.5,59.25l44,4c-12.833,12.333-24.75,25.55-35.75,39.65
			c-22,28.167-28.417,46.617-19.25,55.351c9.167,8.767,20.083,12.066,32.75,9.899c6.333-1.1,11.75-3.066,16.25-5.899l-57,60l72-29
			c-28.167,22.833-55.167,46.083-81,69.75c-51.667,47.333-71.667,73.083-60,77.25c11.667,4.166,25.5,1.916,41.5-6.75
			c5-2.7,9.917-5.884,14.75-9.551l5.75-4.699l-1,72l54-71l-2.7,11.8c-1.767,9.366-2.567,17.85-2.4,25.45
			c0.5,24.333,10.533,35.25,30.1,32.75c19.601-2.5,37.483-14.25,53.65-35.25c5.033-6.567,9.6-13.667,13.7-21.301l4.649-9.449l23,92
			l54-39l40,52l32-29l36,32l32-23L673.1,680.85z"/>
	</g>
</g>
</svg>
