<?xml version="1.0" encoding="iso-8859-1"?>
<!-- Generator: Adobe Illustrator 15.1.0, SVG Export Plug-In . SVG Version: 6.00 Build 0)  -->
<!DOCTYPE svg PUBLIC "-//W3C//DTD SVG 1.1//EN" "http://www.w3.org/Graphics/SVG/1.1/DTD/svg11.dtd">
<svg version="1.1" id="buildings-mid" xmlns="http://www.w3.org/2000/svg" xmlns:xlink="http://www.w3.org/1999/xlink" x="0px"
	 y="0px" width="63.05px" height="119.2px" viewBox="0 0 63.05 119.2" style="enable-background:new 0 0 63.05 119.2;"
	 xml:space="preserve">
<symbol  id="FlashAICB_x2F_buildings-mid_x2F__x3C_Path_x3E__x5F_23" viewBox="0 -7.1 31.55 7.1">
	<g id="Layer_1_2_">
		<path style="fill-rule:evenodd;clip-rule:evenodd;fill:#373535;" d="M24.25-1.35l7.3-2.85C25.383-3.733,21.333-3.817,19.4-4.45
			c-1.967-0.6-3.5-1.483-4.6-2.65c-0.367,0.9-0.783,1.533-1.25,1.9c-0.5,0.467-0.933,0.784-1.3,0.95c-0.7,0.3-1.567,0.383-2.6,0.25
			C8.017-4.233,4.8-5.133,0-6.7l5.9,3.75L14.05,0l4-0.25C20.95-0.517,23.017-0.883,24.25-1.35z"/>
	</g>
</symbol>
<g>
	
		<use xlink:href="#FlashAICB_x2F_buildings-mid_x2F__x3C_Path_x3E__x5F_23"  width="31.55" height="7.1" y="-7.1" transform="matrix(1 0 0 -1 12 112.0996)" style="overflow:visible;opacity:0.3984;enable-background:new    ;"/>
	<path style="fill-rule:evenodd;clip-rule:evenodd;fill:#7B7E6E;" d="M48.8,38.4c0.667,2,1.217,9.117,1.65,21.35l2.6,0.5
		c1.967,0,3.434-0.833,4.4-2.5c0.8-1.4,1.033-3.783,0.7-7.15c-0.301-2.8-0.084-4.2,0.649-4.2c1.367,0,2.066,2.133,2.101,6.4
		c0.066,4.367-0.967,7.233-3.101,8.601c-1.967,1.267-3.616,1.983-4.95,2.149L51.45,63.4L52.1,75.35
		c-0.3,8.067-2.183,12.301-5.649,12.7c-5.566,0.667-9.45,1.233-11.65,1.7l-1.6,6.75c-0.834,5-0.634,8.75,0.6,11.25
		c1.267,2.5,2.816,4.533,4.65,6.1c0.899,0.767,1.684,1.284,2.35,1.551c-3.133-0.667-5.7-0.784-7.7-0.351
		c-1.233,0.3-2.55,0.783-3.95,1.45l-1.7,0.9c-0.167-0.4-0.45-0.784-0.85-1.15c-0.833-0.8-1.883-1.2-3.15-1.2
		c-1.233,0-3.1,0.45-5.6,1.351l-3.4,1.35c1.066-0.733,2.216-1.767,3.45-3.1c2.5-2.667,4.233-5.534,5.2-8.601
		c1.033-3.2,1.767-10.033,2.2-20.5c0.367-9.1,0.417-14.934,0.15-17.5c-0.133-1.2-3.034-2.616-8.7-4.25
		c-6.367-1.833-10.017-3.184-10.95-4.05c-1.4-1.233-2.05-11.267-1.95-30.1c0.066-9.433,0.267-18.733,0.6-27.9
		c0.767-0.267,1.566-0.4,2.4-0.4C8.517,1.417,9.5,2.217,9.8,3.75c0.167,0.9,0.3,8.583,0.4,23.05c0.1,13.934,0.4,21.467,0.9,22.6
		c0.566,1.267,3.4,3.033,8.5,5.3c2.566,1.133,5.066,2.15,7.5,3.05l0.35-36.7l2.75-0.4c2,0,3.416,0.7,4.25,2.1
		c0.5,0.833,0.2,11.05-0.9,30.65c-1.033,18.867-0.733,28.417,0.9,28.65c3.8,0.601,6.1,0.9,6.899,0.9
		c2.434-0.066,3.584-1.033,3.45-2.9c-0.133-1.8-0.35-9.5-0.649-23.1c-0.134-6.8-0.25-13.434-0.351-19.9l2.15-0.45
		C47.45,36.567,48.4,37.167,48.8,38.4z"/>
	<g>
		<path style="fill-rule:evenodd;clip-rule:evenodd;fill:#6B6E60;" d="M3.85,29.65c0.066-9.433,0.267-18.733,0.6-27.9
			c1.133-0.433,2.2-0.533,3.2-0.3c-0.733,0.733-1.183,1.6-1.35,2.6C6.1,5.183,6.333,13.917,7,30.25
			c0.367,8.167,0.733,16.217,1.1,24.15l9.2,4.05c6.3,2.833,9.9,4.483,10.8,4.95c0.933,0.5,1.4,2,1.4,4.5c0,1.566-0.133,4.566-0.4,9
			c-0.1,4.767-0.65,18.267-1.65,40.5c-0.167-0.4-0.45-0.784-0.85-1.15c-0.833-0.8-1.883-1.2-3.15-1.2c-1.233,0-3.1,0.45-5.6,1.351
			l-3.4,1.35c1.066-0.733,2.216-1.767,3.45-3.1c2.5-2.667,4.233-5.534,5.2-8.601c1.033-3.2,1.767-10.033,2.2-20.5
			c0.367-9.1,0.417-14.934,0.15-17.5c-0.133-1.2-3.034-2.616-8.7-4.25c-6.367-1.833-10.017-3.184-10.95-4.05
			C4.4,58.517,3.75,48.483,3.85,29.65z"/>
		<path style="fill-rule:evenodd;clip-rule:evenodd;fill:#6B6E60;" d="M27.45,21.05L29,20.7c1.2-0.133,2.25-0.05,3.15,0.25
			c-1.2,0.9-1.817,2.216-1.851,3.95c-0.133,2.567-0.533,13.9-1.2,34l-2-1.15L27.45,21.05z"/>
		<path style="fill-rule:evenodd;clip-rule:evenodd;fill:#6B6E60;" d="M43.8,37.05l1.55-0.4C47.05,38.317,48,45.9,48.2,59.4
			c0.166,12.633-0.134,20.083-0.9,22.35c-0.666,1.866-2.717,2.267-6.149,1.2c2.566,0,3.783-0.967,3.649-2.9
			c-0.133-1.8-0.35-9.5-0.649-23.1C44.017,50.15,43.9,43.517,43.8,37.05z"/>
		<path style="fill-rule:evenodd;clip-rule:evenodd;fill:#6B6E60;" d="M34.8,89.75c-0.3-1.134-0.366-2-0.2-2.6l0.351-0.601h7.85
			c3.033,0,5.684-0.95,7.95-2.85c-0.934,2.666-2.366,4.116-4.3,4.35C40.884,88.717,37,89.283,34.8,89.75z"/>
		<path style="fill-rule:evenodd;clip-rule:evenodd;fill:#6B6E60;" d="M59.1,56.55c-0.8,1.934-2.05,3-3.75,3.2
			c0.867-0.433,1.567-1.1,2.101-2c0.8-1.367,1.033-3.617,0.7-6.75c-0.267-2.767-0.167-4.267,0.3-4.5
			C59.75,51.2,59.967,54.55,59.1,56.55z"/>
		<path style="fill-rule:evenodd;clip-rule:evenodd;fill:#6B6E60;" d="M56.1,61.4c1.334-0.434,2.801-1.984,4.4-4.65
			c-0.5,2.267-1.4,3.816-2.7,4.65c-1.967,1.267-3.616,1.983-4.95,2.149L51.45,63.4L51.1,62.55l1.7-0.35
			C54.1,61.934,55.2,61.667,56.1,61.4z"/>
	</g>
	<path style="fill-rule:evenodd;clip-rule:evenodd;fill:#5D6152;" d="M5,31.65c0.067-7.833,0.183-15.533,0.35-23.1L7,57.05
		l18.85,7.5l-0.1,0.75c-3.067-0.767-6.217-1.666-9.45-2.7c-6.4-2.1-9.917-3.866-10.55-5.3C5.117,55.9,4.867,47.35,5,31.65z"/>
	<polygon style="fill-rule:evenodd;clip-rule:evenodd;fill:#5D6152;" points="28.5,23.55 29.75,22.7 27.85,56.8 	"/>
	<path style="fill-rule:evenodd;clip-rule:evenodd;fill:#5D6152;" d="M46.25,50.4c0.667,6.8,1,12.067,1,15.8c0,4.5-0.667,9.7-2,15.6
		l0.35-8.85c0.101-2.434-0.267-13.35-1.1-32.75C44.967,39.867,45.55,43.267,46.25,50.4z"/>
	<g>
		<path style="fill-rule:evenodd;clip-rule:evenodd;fill:#5D6152;" d="M28.1,67.3L28,75.45c-0.133,5.866-0.3,9.899-0.5,12.1
			c-0.333,3.3-0.883,12.684-1.65,28.15c-0.733-0.434-1.533-0.65-2.4-0.65c-1.534,0-3.917,0.634-7.15,1.9h-0.05
			c3-2.334,5.333-4.55,7-6.65c1.033-1.3,1.867-8.783,2.5-22.45l0.6-20.149L28.1,67.3z"/>
	</g>
	<path style="fill-rule:evenodd;clip-rule:evenodd;fill:#6B6E60;" d="M33.25,27.55c0,0.967-0.25,12.067-0.75,33.3
		c-0.5,22.334-0.833,35.317-1,38.95c-0.167,3.533,0.417,6.867,1.75,10c0.634,1.566,1.3,2.783,2,3.65c-0.5-0.2-1.017-0.384-1.55-0.55
		c-1.101-0.334-1.75-0.4-1.95-0.2c-0.333,0.333-1,1.25-2,2.75c-0.133,0-0.017-4.4,0.35-13.2c0.4-9.967,0.566-16.233,0.5-18.8
		c-0.033-3.134,0.167-13.483,0.6-31.05c0.2-8.8,0.416-17.283,0.649-25.45l0.7-0.05C33.017,26.933,33.25,27.15,33.25,27.55z"/>
	<path style="fill-rule:evenodd;clip-rule:evenodd;fill:#6B6E60;" d="M8.25,4.95C8.917,4.883,9.2,12.033,9.1,26.4
		c-0.033,7.167-0.15,14.35-0.35,21.55C8.283,40.817,7.9,33.683,7.6,26.55C7.033,12.25,7.25,5.05,8.25,4.95z"/>
	<path style="fill-rule:evenodd;clip-rule:evenodd;fill:#6B6E60;" d="M50.1,65.2l0.351,1.35c0.233,1.334,0.366,3.167,0.399,5.5
		c0.067,2.367-0.199,4.467-0.8,6.3c-0.3,0.934-0.616,1.634-0.95,2.101c0.101-2.566,0.2-5.134,0.301-7.7
		C49.667,67.65,49.9,65.134,50.1,65.2z"/>
	<path style="fill-rule:evenodd;clip-rule:evenodd;fill:#868977;" d="M10.5,52.55c11.4,4.6,17.317,7.017,17.75,7.25
		c0.433,0.3,0.533,0.517,0.3,0.65c-0.267,0.166-1.033,0-2.3-0.5C21.417,58.017,16.167,55.55,10.5,52.55z"/>
	<path style="fill-rule:evenodd;clip-rule:evenodd;fill:#868977;" d="M48.3,48.8c-0.566-7.167-0.717-10.667-0.45-10.5
		c0.733,0.467,1.184,4.15,1.351,11.05c0.1,3.467,0.116,6.867,0.05,10.2C48.917,55.95,48.6,52.367,48.3,48.8z"/>
	<path style="fill-rule:evenodd;clip-rule:evenodd;fill:#868977;" d="M38.7,84.3c-2.934-0.333-4.25-0.666-3.95-1
		c0.267-0.3,2.017-0.166,5.25,0.4c1.6,0.3,3.184,0.633,4.75,1C43.25,84.7,41.233,84.566,38.7,84.3z"/>
	<g>
		<g>
			<path style="fill-rule:evenodd;clip-rule:evenodd;fill:#A8A99F;" d="M8.05,3.8c0.233-0.133,1.383-0.7,3.45-1.7
				c1.333-0.633,2.367-1.333,3.1-2.1c-0.633,0.867-1.6,1.717-2.9,2.55c-2,1.333-3.05,2.034-3.15,2.1L8.05,3.8z"/>
		</g>
	</g>
	<g>
		<g>
			<path style="fill-rule:evenodd;clip-rule:evenodd;fill:#A8A99F;" d="M4.95,16.5c-1.6-1.6-3.067-3-4.4-4.2
				c2.133,1.467,3.8,2.684,5,3.65L4.95,16.5z"/>
		</g>
	</g>
	<g>
		<g>
			<path style="fill-rule:evenodd;clip-rule:evenodd;fill:#A8A99F;" d="M33.2,23.7c0.399-0.233,1.434-0.75,3.1-1.55
				c1.233-0.566,2.15-1.183,2.75-1.85c-0.533,0.767-1.399,1.517-2.6,2.25c-1.533,0.967-2.45,1.583-2.75,1.85L33.2,23.7z"/>
		</g>
	</g>
	<g>
		<g>
			<path style="fill-rule:evenodd;clip-rule:evenodd;fill:#A8A99F;" d="M44.3,38.2c-0.166-0.4-0.733-1.034-1.7-1.9
				c-0.833-0.767-1.3-1.466-1.399-2.1c0.2,0.6,0.75,1.216,1.649,1.85c1.034,0.767,1.717,1.383,2.051,1.85L44.3,38.2z"/>
		</g>
	</g>
	<g>
		<g>
			<path style="fill-rule:evenodd;clip-rule:evenodd;fill:#A8A99F;" d="M58.75,47.65c1.2-1.633,2.634-3.25,4.3-4.85
				c-1.434,1.8-2.616,3.567-3.55,5.3L58.75,47.65z"/>
		</g>
	</g>
	<g>
		<g>
			<path style="fill-rule:evenodd;clip-rule:evenodd;fill:#A8A99F;" d="M58.85,60.1c0.367,0.267,1.051,0.867,2.051,1.801
				c0.833,0.733,1.55,1.267,2.149,1.6c-0.633-0.267-1.416-0.717-2.35-1.35c-1.134-0.767-1.884-1.25-2.25-1.45L58.85,60.1z"/>
		</g>
	</g>
	<g>
		<g>
			<path style="fill-rule:evenodd;clip-rule:evenodd;fill:#A8A99F;" d="M48.55,49.6c1.7-1.434,3.15-2.7,4.351-3.8
				c-1.101,1.333-2.384,2.784-3.851,4.35L48.55,49.6z"/>
		</g>
	</g>
	<g>
		<g>
			<path style="fill-rule:evenodd;clip-rule:evenodd;fill:#A8A99F;" d="M50.35,82.85c0.4,0.667,1.067,1.5,2,2.5
				c1.101,1.233,1.817,2.067,2.15,2.5c-0.4-0.433-1.217-1.166-2.45-2.199c-1.1-0.867-1.916-1.65-2.45-2.351L50.35,82.85z"/>
		</g>
	</g>
	<g>
		<g>
			<path style="fill-rule:evenodd;clip-rule:evenodd;fill:#A8A99F;" d="M27.75,44.7c-0.533-1.867-1.983-4.017-4.35-6.45
				c2.7,2.133,4.483,4.183,5.35,6.15L27.75,44.7z"/>
		</g>
	</g>
	<g>
		<g>
			<path style="fill-rule:evenodd;clip-rule:evenodd;fill:#A8A99F;" d="M32.8,38.65c0.767-0.6,1.967-1.267,3.601-2
				c1.6-0.767,2.767-1.417,3.5-1.95c-0.667,0.667-1.767,1.483-3.301,2.45c-1.5,0.934-2.55,1.7-3.149,2.3L32.8,38.65z"/>
		</g>
	</g>
	<g>
		<g>
			<path style="fill-rule:evenodd;clip-rule:evenodd;fill:#A8A99F;" d="M8.6,34.1c1.467-1.833,3.333-3.35,5.6-4.55
				c-2.1,1.5-3.717,3.2-4.85,5.1L8.6,34.1z"/>
		</g>
	</g>
	<g>
		<g>
			<polygon style="fill-rule:evenodd;clip-rule:evenodd;fill:#A8A99F;" points="5.8,56.75 0,52.45 6.35,56 			"/>
		</g>
	</g>
	<g>
		<g>
			<path style="fill-rule:evenodd;clip-rule:evenodd;fill:#A8A99F;" d="M15.75,62.65c-0.7-0.034-1.633,0.133-2.8,0.5
				c-1.434,0.466-2.383,0.733-2.85,0.8c0.433-0.134,1.333-0.517,2.7-1.15c1.133-0.533,2.117-0.85,2.95-0.95V62.65z"/>
		</g>
	</g>
</g>
</svg>
