<?xml version="1.0" encoding="iso-8859-1"?>
<!-- Generator: Adobe Illustrator 15.1.0, SVG Export Plug-In . SVG Version: 6.00 Build 0)  -->
<!DOCTYPE svg PUBLIC "-//W3C//DTD SVG 1.1//EN" "http://www.w3.org/Graphics/SVG/1.1/DTD/svg11.dtd">
<svg version="1.1" id="buildings-mid" xmlns="http://www.w3.org/2000/svg" xmlns:xlink="http://www.w3.org/1999/xlink" x="0px"
	 y="0px" width="176.35px" height="224.55px" viewBox="0 0 176.35 224.55" style="enable-background:new 0 0 176.35 224.55;"
	 xml:space="preserve">
<symbol  id="FlashAICB_x2F_buildings-mid_x2F__x3C_Path_x3E__x5F_16" viewBox="0 -17.5 87.4 17.5">
	<g id="Layer_1_2_">
		<path style="fill-rule:evenodd;clip-rule:evenodd;fill:#373535;" d="M53.9,0l11.4-2.9c8-2.133,12.983-3.717,14.95-4.75
			c3.1-1.667,5.483-3,7.15-4L73-8.1c-2.167,0.533-4.383,0.783-6.65,0.75c-2.633-0.066-4.917-0.533-6.85-1.4
			c-1.733-0.767-3.567-1.967-5.5-3.6l-2.35-2.25c-3.233,2.133-5.95,3.633-8.15,4.5c-1.667,0.667-3.017,0.967-4.05,0.9
			c-1-0.1-2.35-0.617-4.05-1.55c-1.3-0.733-2.75-1.617-4.35-2.65c-2.2-1.434-4.367-2.8-6.5-4.1c1,2.267,1.333,4.05,1,5.35
			c-0.433,1.667-3.033,2.017-7.8,1.05c-2.8-0.566-8.717-1.9-17.75-4l7,5.5l23.05,9.2L53.9,0z"/>
	</g>
</symbol>
<g>
	
		<use xlink:href="#FlashAICB_x2F_buildings-mid_x2F__x3C_Path_x3E__x5F_16"  width="87.4" height="17.5" y="-17.5" transform="matrix(1 0 0 -1 67.8501 207.0498)" style="overflow:visible;opacity:0.3984;enable-background:new    ;"/>
	<path style="fill-rule:evenodd;clip-rule:evenodd;fill:#807967;" d="M164,158.65c-0.9-1.334-1.95-2.767-3.15-4.301
		c-2.366-3.033-4.316-5.033-5.85-6c-1.533-0.966-4.1-1.816-7.7-2.55l-4.95-0.8c-2.433,0.167-5.1,0.467-8,0.9
		c-5.8,0.899-9.8,2.05-12,3.449c-2.233,1.367-5.017,4.45-8.35,9.25c-1.667,2.4-3.116,4.65-4.35,6.75L117,176.65l-2.75,3.75
		c-1.667,3.133-2.083,6.216-1.25,9.25c0.833,3.066,5.2,6.767,13.1,11.1c3.934,2.167,7.784,4.033,11.551,5.6l14.699,11
		c-2-0.899-4.35-1.716-7.05-2.449c-5.399-1.534-9.833-1.95-13.3-1.25c-3.467,0.699-6.566,1.866-9.3,3.5
		c-1.367,0.8-2.384,1.533-3.05,2.199c-1.267-1-2.784-1.916-4.551-2.75c-3.466-1.666-6.383-2.083-8.75-1.25
		c-2.366,0.834-4.966,2.2-7.8,4.101c-1.434,0.934-2.616,1.783-3.55,2.55c0.4-0.934,0.55-1.866,0.45-2.8
		c-0.233-1.834-1.601-2.684-4.101-2.55c-2.5,0.133-6.466,0.733-11.899,1.8L72,220c3.4-3.9,6.783-8.65,10.15-14.25
		c6.7-11.233,9.984-21.15,9.85-29.75s-2.616-14.233-7.45-16.9c-1.5-0.833-3.15-1.333-4.95-1.5l-2.25,0.051L87,133.35
		c-0.667-3.833-1.933-7.8-3.8-11.899c-3.733-8.233-8.583-13.05-14.55-14.45s-12.467-0.933-19.5,1.4c-2.2,0.733-4.333,1.617-6.4,2.65
		l-2.4,1.3l-20.7-21L0,97l19-8.65l-12.65-10l3-27.35L9,78l6.4,3.95c4.7,3.066,8.233,5.633,10.6,7.7
		c3.767,3.333,8.883,8.9,15.35,16.7l3.65-1.6c2.9-1.1,5.45-1.8,7.65-2.1c3.567-0.433,9.233-0.533,17-0.3l-6.3-35l-10.7-4.7l3.7-46.3
		l8.3-1.85c5.934-1.433,9.934-2.717,12-3.85C79.983,8.883,84.433,5.333,90,0L78.65,12.65l9.35-0.3L76,16l5.35,8.65
		c-1.267-1.2-2.767-2.417-4.5-3.65c-3.467-2.433-6.3-3.65-8.5-3.65c-2.6,0-4.483,0.55-5.65,1.65c-1.1,1-2,2.883-2.7,5.65
		c-0.9,3.567-1.9,14.9-3,34l4.35,0.75c3.1,0.733,5.2,1.717,6.3,2.95c1.133,1.267,2.75,8.583,4.85,21.95
		c1.067,6.7,2.017,13.267,2.85,19.7l4.7,3.95c3.5,3.1,6.15,5.899,7.95,8.399s3.733,6.917,5.8,13.25
		c1.033,3.167,1.884,6.084,2.55,8.75L87.65,151l2.9,0.55c2.233,0.5,4.167,1.117,5.8,1.851c2.567,1.166,5.233,2.633,8,4.399
		l4.65-5.149l21.65-18l-7-27.3l3.8-0.85c2.833-1,5.017-2.617,6.55-4.85c2.434-3.533,4.217-7.083,5.35-10.65L158,111.65l18.35,2.35
		L157,114.35l-7-3.35l-1.65,11.35c-0.666-9.8-1.566-16.25-2.699-19.35c-0.7-1.933-1.684-3.617-2.95-5.05l-1.7-1.6
		c-2.434,5.1-4.434,8.2-6,9.3l-5.65,4l5.65,25.7l-6.35,8l20.699-1l13.301,7.301L176.35,150l-13.699,1.35l9,3.301L163.35,153
		L164,158.65z"/>
	<path style="fill-rule:evenodd;clip-rule:evenodd;fill:#484439;" d="M106.35,169.65l7,6.35L105,192c-1.1-5.1-1.767-9.316-2-12.65
		c-0.134-2.066,0.384-4.3,1.55-6.699L106.35,169.65z"/>
	<g>
		<path style="fill-rule:evenodd;clip-rule:evenodd;fill:#726C5C;" d="M19.65,91.35L0,97l22-7.35L42,109l6.85-2.6
			c5.433-1.667,10.367-2.35,14.8-2.05c9.434,0.566,16.767,4.783,22,12.65c1.967,2.934,3.716,7.083,5.25,12.45
			c0.8,2.7,1.383,5.1,1.75,7.2l-10.3,17l2.05,0.05c1.934,0.399,4.35,1.5,7.25,3.3c4.666,2.9,9.566,6.017,14.699,9.35l-1.949,2.2
			c-1.4,1.934-2.317,4.084-2.75,6.45c-0.434,2.5-0.184,6.184,0.75,11.05c0.533,2.7,1.616,7.134,3.25,13.3
			c1.3,4.733,5.216,10.884,11.75,18.45c-4.5-2.666-8.184-3.483-11.051-2.45c-2.366,0.834-4.966,2.2-7.8,4.101
			c-1.434,0.934-2.616,1.783-3.55,2.55c0.4-0.934,0.55-1.866,0.45-2.8c-0.233-1.834-1.601-2.684-4.101-2.55
			c-2.5,0.133-6.466,0.733-11.899,1.8L72,220c3.4-3.9,6.783-8.65,10.15-14.25c6.7-11.233,9.984-21.15,9.85-29.75
			s-2.616-14.233-7.45-16.9c-1.5-0.833-3.15-1.333-4.95-1.5l-2.25,0.051L87,133.35c-0.667-3.833-1.933-7.8-3.8-11.899
			c-3.733-8.233-8.583-13.05-14.55-14.45s-12.467-0.933-19.5,1.4c-2.2,0.733-4.333,1.617-6.4,2.65l-2.4,1.3L19.65,91.35z"/>
		<polygon style="fill-rule:evenodd;clip-rule:evenodd;fill:#726C5C;" points="7.6,78.15 21.1,88.15 19,88.35 6.35,78.35 9.35,51 		
			"/>
		<path style="fill-rule:evenodd;clip-rule:evenodd;fill:#726C5C;" d="M56.35,16.35L57,17.6c0.4,1.066,0.6,2.167,0.6,3.3
			s-0.417,8.017-1.25,20.65c-0.4,6.333-0.817,12.534-1.25,18.6l4.8,1.25c3.267,1.1,5.167,2.267,5.7,3.5
			c0.533,1.267,1.767,7.983,3.7,20.15c1,6.067,1.934,12.017,2.8,17.85l-2.45-0.55l-6.3-35l-10.7-4.7L56.35,16.35z"/>
		<path style="fill-rule:evenodd;clip-rule:evenodd;fill:#726C5C;" d="M71.85,16.15c1.667,0.733,3.75,2.367,6.25,4.9
			c1.267,1.267,2.35,2.467,3.25,3.6c-1.267-1.2-2.767-2.417-4.5-3.65c-3.467-2.433-6.3-3.65-8.5-3.65c-2.5,0-4.3,0.483-5.4,1.45
			c0.4-0.966,1.5-1.8,3.3-2.5C68.317,15.467,70.183,15.417,71.85,16.15z"/>
		<path style="fill-rule:evenodd;clip-rule:evenodd;fill:#726C5C;" d="M80.1,9.4c-1.067,0.934-2.9,1.85-5.5,2.75
			c-2.533,0.867-4.733,1.367-6.6,1.5c4.2-1.167,7.083-2.167,8.65-3c2.434-1.267,5.75-3.783,9.95-7.55
			C83.233,6.467,81.067,8.567,80.1,9.4z"/>
		<polygon style="fill-rule:evenodd;clip-rule:evenodd;fill:#726C5C;" points="76,16 74.1,14.9 88,12.35 		"/>
		<path style="fill-rule:evenodd;clip-rule:evenodd;fill:#726C5C;" d="M139.35,91c0,2.633-0.283,4.75-0.85,6.35
			c-0.667,1.733-1.967,3.75-3.9,6.05c-1.666,1.967-3.449,3.434-5.35,4.4l-2.4,0.85l6,25.75c-2.5,2.666-5.333,5.583-8.5,8.75
			c-3.166,3.166-9.166,9-18,17.5l2.65-8l21.65-18l-7-27.3l3.8-0.85c2.833-1,5.017-2.617,6.55-4.85
			C136.434,98.117,138.217,94.567,139.35,91z"/>
		<polygon style="fill-rule:evenodd;clip-rule:evenodd;fill:#726C5C;" points="148.6,106.15 157.35,112.9 176.35,114 157,114.35 
			150,111 		"/>
		<path style="fill-rule:evenodd;clip-rule:evenodd;fill:#726C5C;" d="M141,96.35l3,1.75c2.1,1.566,3.3,3.333,3.6,5.3
			c0.5,3.167,0.75,9.483,0.75,18.95c-0.666-9.8-1.566-16.25-2.699-19.35c-0.7-1.933-1.684-3.617-2.95-5.05L141,96.35z"/>
		<path style="fill-rule:evenodd;clip-rule:evenodd;fill:#726C5C;" d="M162.45,154.65c0.666,1.466,1.184,2.8,1.55,4
			c-0.9-1.334-1.95-2.767-3.15-4.301c-2.366-3.033-4.316-5.033-5.85-6c-1.533-0.966-4.1-1.816-7.7-2.55l-4.95-0.8
			c-2.433,0.167-5.1,0.467-8,0.9c-5.8,0.899-9.8,2.05-12,3.449c1.167-1.399,4.733-2.716,10.7-3.949c3-0.601,5.867-1.067,8.601-1.4
			l6.6,1.05c4.733,0.967,7.934,2.066,9.6,3.3C159.517,149.616,161.05,151.717,162.45,154.65z"/>
	</g>
	<polygon style="fill-rule:evenodd;clip-rule:evenodd;fill:#615D4F;" points="41.35,110.15 40.7,111.4 21.2,91.15 	"/>
	<path style="fill-rule:evenodd;clip-rule:evenodd;fill:#615D4F;" d="M63.7,66.8l-10.5-4.4l3.65-41.85l-2.4,40.85l4.1,1.1
		c2.9,0.967,4.784,1.983,5.65,3.05c0.633,0.767,2.033,7.167,4.2,19.2c1.067,6,2.083,11.933,3.05,17.8l-1.5-0.65L63.7,66.8z"/>
	<g>
		<polygon style="fill-rule:evenodd;clip-rule:evenodd;fill:#615D4F;" points="104.45,189.3 111.1,176.55 105.65,170.65 
			106.35,169.65 113.35,176 105,192 		"/>
	</g>
	<polygon style="fill-rule:evenodd;clip-rule:evenodd;fill:#615D4F;" points="131.45,132.8 124.35,107.8 125.95,108.65 	"/>
	<g>
		<path style="fill-rule:evenodd;clip-rule:evenodd;fill:#736D5D;" d="M107.85,191.4c0.267-1.467,1.45-4.4,3.551-8.801l3.05-6.199
			l-6.75-8.5l0.25-3l7.899,11.5l-2.399,3.55c-1.634,2.866-2.55,5.6-2.75,8.2c-0.233,2.733,1.166,5.583,4.2,8.55
			c1.6,1.533,4.533,3.767,8.8,6.7c2.3,1.566,4.783,2.666,7.45,3.3c1.366,0.333,2.85,0.649,4.449,0.95c0.667,0.3,3.551,1.966,8.65,5
			c2.566,1.5,5.05,2.966,7.45,4.399h-0.05c-2.7-1.1-5.4-1.967-8.101-2.6c-4.633-1.134-8.483-1.4-11.55-0.8
			c-3.467,0.699-6.566,1.866-9.3,3.5c-1.367,0.8-2.384,1.533-3.05,2.199c-0.2-1.466-0.517-3.116-0.95-4.949
			c-0.867-3.634-1.816-6.334-2.851-8.101c-2.267-3.3-4-5.883-5.199-7.75C108.517,195.217,107.583,192.833,107.85,191.4z"/>
	</g>
	<path style="fill-rule:evenodd;clip-rule:evenodd;fill:#736D5D;" d="M106.35,160.65l-0.75,1.75L98.45,155.8
		c-0.967-0.934-3.066-2.017-6.3-3.25l-4.5-1.55c3.367,0.1,7.05,1.05,11.05,2.85c2,0.9,3.666,1.801,5,2.7
		c0.767-0.434,1.533-0.983,2.3-1.649c0.467-0.4,1.1-0.9,1.9-1.5l1.1-0.75L106.35,160.65z"/>
	<polygon style="fill-rule:evenodd;clip-rule:evenodd;fill:#615D4F;" points="103.65,158.35 130.2,136.05 105.25,160.15 	"/>
	<path style="fill-rule:evenodd;clip-rule:evenodd;fill:#9A917A;" d="M66.6,64.65c-0.4-1.133-1.317-2.117-2.75-2.95l-2-0.9l2.65,0.6
		c1.833,0.7,2.983,1.7,3.45,3c1.153,3.296,2.228,9.087,3.225,17.375c-0.21-1.39-0.519-2.131-0.925-2.225
		c-0.2-0.066-0.283,0.583-0.25,1.95c0,0.667,0.033,1.35,0.1,2.05C68.433,72.783,67.267,66.483,66.6,64.65z"/>
	<path style="fill-rule:evenodd;clip-rule:evenodd;fill:#9A917A;" d="M157.6,112.6c-3.3-3.133-5.383-5.283-6.25-6.45
		c-0.566-0.733-1.267-1.75-2.1-3.05l-1.1-1.75l9.699,10.75l6.4,0.75L157.6,112.6z"/>
	<polygon style="fill-rule:evenodd;clip-rule:evenodd;fill:#9A917A;" points="140.35,93.1 144.6,97.6 140.6,95 	"/>
	<polygon style="fill-rule:evenodd;clip-rule:evenodd;fill:#9A917A;" points="127.75,109.5 129,109.9 132.6,129.5 	"/>
	<g>
		<polygon style="fill-rule:evenodd;clip-rule:evenodd;fill:#726C5C;" points="162.65,151.35 162,150.65 173.25,149.9 176.35,150 		
			"/>
		<polygon style="fill-rule:evenodd;clip-rule:evenodd;fill:#726C5C;" points="163.35,153.05 162.5,152.35 170.6,154.25 
			171.65,154.65 163.35,153 		"/>
	</g>
	<polygon style="fill-rule:evenodd;clip-rule:evenodd;fill:#9A917A;" points="148.95,142.9 154.95,145.9 146.35,143.4 	"/>
	<path style="fill-rule:evenodd;clip-rule:evenodd;fill:#9A917A;" d="M20.1,86.3c2.6,1.4,6.183,4.55,10.75,9.45
		c2.3,2.433,4.333,4.733,6.1,6.9L20.1,86.3z"/>
	<path style="fill-rule:evenodd;clip-rule:evenodd;fill:#9A917A;" d="M74.85,105.15l4.3,2.75c3.333,2.6,6.15,5.767,8.45,9.5
		c1.8,2.966,3.583,7.149,5.35,12.55c0.899,2.7,1.616,5.1,2.149,7.2l-2-1.25c-0.267-1.5-0.716-3.334-1.35-5.5
		c-1.233-4.301-2.667-8.084-4.3-11.351c-1.667-3.3-4.267-6.6-7.8-9.9L74.85,105.15z"/>
	<polygon style="fill-rule:evenodd;clip-rule:evenodd;fill:#9A917A;" points="107.95,168.9 111.95,174.3 107.2,169.65 	"/>
	<path style="fill-rule:evenodd;clip-rule:evenodd;fill:#9A917A;" d="M64.75,16.2l-3.4,1.85l0.5-2.4l3.35-0.9
		c2.5-0.5,4.5-0.567,6-0.2c1.533,0.367,3.133,1.45,4.8,3.25c0.867,0.9,1.567,1.767,2.1,2.6c-0.567-0.667-1.283-1.4-2.15-2.2
		c-1.767-1.567-3.434-2.583-5-3.05C69.383,14.683,67.317,15.033,64.75,16.2z"/>
	<g>
		<path style="fill-rule:evenodd;clip-rule:evenodd;fill:#615D4F;" d="M80.85,114.5c-1.6-2.433-4.133-4.6-7.6-6.5l-4.75-2.15
			l1.55,0.3c1.233,0.333,2.434,0.783,3.6,1.35c1.667,0.8,3.417,1.967,5.25,3.5c2.2,1.867,4.184,4.033,5.95,6.5
			c1.6,2.233,3.083,5.983,4.45,11.25c0.667,2.634,1.184,5.05,1.55,7.25l-10,18.65l4.4,1.35c3.333,1.134,6.033,2.3,8.1,3.5
			c2.101,1.2,3.917,2.866,5.45,5c0.767,1.066,1.334,2.017,1.7,2.85l-0.5,1c-0.434,0.967-0.934,2.233-1.5,3.801
			c-0.9,2.566-1.517,9.633-1.85,21.199l2,10.301c0.5,2.433,0.083,6.083-1.25,10.949c-0.801,3.034-1.601,5.483-2.4,7.351
			c0.434-1.101,0.55-2.101,0.35-3c-0.3-1.667-1.633-2.434-4-2.3c-2.5,0.133-6.466,0.733-11.899,1.8L72,220
			c4.567-3.667,8.35-6.884,11.35-9.65c1.933-1.8,3.917-5.55,5.95-11.25c0.867-2.466,2.05-6.383,3.55-11.75
			c0.801-3.033,1.217-6.416,1.25-10.149c0.034-4.667-0.666-8.617-2.1-11.851c-1.3-3-3.884-5.449-7.75-7.35l-5.4-2l8.8-20.35
			c-0.1-1.534-0.316-3.467-0.65-5.801c-0.3-2.033-0.917-4.3-1.85-6.8C84.017,120.05,82.583,117.2,80.85,114.5z"/>
	</g>
</g>
</svg>
