<?xml version="1.0" encoding="iso-8859-1"?>
<!-- Generator: Adobe Illustrator 15.1.0, SVG Export Plug-In . SVG Version: 6.00 Build 0)  -->
<!DOCTYPE svg PUBLIC "-//W3C//DTD SVG 1.1//EN" "http://www.w3.org/Graphics/SVG/1.1/DTD/svg11.dtd">
<svg version="1.1" id="back_mountains" xmlns="http://www.w3.org/2000/svg" xmlns:xlink="http://www.w3.org/1999/xlink" x="0px"
	 y="0px" width="678.6px" height="1027.3px" viewBox="0 0 678.6 1027.3" style="enable-background:new 0 0 678.6 1027.3;"
	 xml:space="preserve">
<g>
	<path style="fill-rule:evenodd;clip-rule:evenodd;fill:#628378;" d="M50,197.5C32.667,123.833,16,58,0,0
		c54,106,112.167,217.333,174.5,334C299.167,567.333,382.333,710.667,424,764c25.2,32.233,58.533,67.35,100,105.35
		c32.033,29.334,67.917,59.517,107.65,90.551c1.066,0.933,1.899,1.616,2.5,2.05c12.466,9.899,21.716,17.684,27.75,23.35
		c7.699,7.167,12.699,13.101,15,17.8c2.566,5.167,2.199,9.4-1.101,12.7c-3.467,3.467-10.35,6.184-20.649,8.15
		c-17.5,3.333-37.084,2-58.75-4c-6.767-1.867-13.334-4.101-19.7-6.7l-7.55-3.3l-30,12l-76-9l-35,8l-22-13
		c-7.667,3.166-17.25,6.25-28.75,9.25c-23,6-44.083,8.583-63.25,7.75c-17.833-0.767-32.283-4.967-43.35-12.601
		c-5.5-4.199-9.667-7.267-12.5-9.199c-4.867-3.334-9.917-5.733-15.15-7.2c-5.533-1.533-10.733-1.134-15.6,1.2
		c-2.3,1.1-6.966,4.366-14,9.8c-6.867,5.267-13.367,9.283-19.5,12.05c-9.233,4.2-19.867,6.85-31.9,7.95
		c-22.566,2.1-38.283-5.517-47.15-22.851c-5.667-11.066-8.617-27.033-8.85-47.899c4.9-71.334,8.15-138.434,9.75-201.3
		c2.267-88.967,0.967-161.934-3.9-218.9C105.333,457.667,84.667,344.833,50,197.5z"/>
	<g>
		<path style="fill-rule:evenodd;clip-rule:evenodd;fill:#547067;" d="M147.65,442.45c0.2-1.3,0.317-2.6,0.35-3.9V437L147.65,442.45
			z M35.3,136.5c-6.375-25.958-12.7-51.342-18.975-76.15C34.005,123.216,50.897,180.583,67,232.45
			c33.467,107.8,55.8,164.316,67,169.55c12.5,5.833,20.583-0.75,24.25-19.75c1.133-5.933,1.767-12.75,1.9-20.45L160,352l4.95,46.55
			c4.233,37.2,8.75,71.267,13.55,102.2c15.333,99,30.5,148.083,45.5,147.25s26.833-11.75,35.5-32.75
			c2.7-6.566,4.933-13.75,6.7-21.55l1.8-9.7l-2.8,43.75c-1.6,35-1.667,67.083-0.2,96.25c2.033,40.833,6.967,72.917,14.8,96.25
			C289.6,849.417,303.667,864,322,864c24.4,0,44.116-3.833,59.15-11.5c10.533-5.4,18.233-12.35,23.1-20.85L350,970l112-44l7.75,65.6
			L447,977l-12,27l-23-24l-89,29l3-82l-50,57l6-82l-2.85,3.95c-2.433,3.166-4.9,6.1-7.4,8.8c-8,8.667-14.917,13.417-20.75,14.25
			s-8.917-18.75-9.25-58.75c-0.1-12.5,0.083-26.283,0.55-41.35L243,810l-3.55,5.2c-2.934,4.133-5.917,7.816-8.95,11.05
			c-9.667,10.333-17.833,14.25-24.5,11.75s-4-27.583,8-75.25c3.767-14.9,8.233-31.167,13.4-48.8L234,692
			c-4,3.167-9.033,6.217-15.1,9.15c-12.167,5.833-23.467,8.116-33.9,6.85c-10.4-1.233-14.517-20.6-12.35-58.1
			c0.667-11.733,1.917-24.567,3.75-38.5L179,594l-1.25,3.25c-1.133,2.6-2.5,4.934-4.1,7c-5.167,6.667-11.717,9.583-19.65,8.75
			c-7.2-0.767-10.633-25.733-10.3-74.9c0.233-28.2,1.55-60.083,3.95-95.649c-0.7,4.6-2.217,8.133-4.55,10.6
			c-3.3,3.467-8,4.45-14.1,2.95c-5.667-1.433-13.917-17.433-24.75-48c-7.9-22.3-16.867-51.417-26.9-87.35
			C65.683,264.283,51.667,202.9,35.3,136.5z"/>
		<path style="fill-rule:evenodd;clip-rule:evenodd;fill:#547067;" d="M558,992l-55,21l-30.8-19.85L544,966l134.25,45.7
			c-1.5,5.566-9.2,9.649-23.1,12.25c-0.9,0.2-2.25,0.433-4.051,0.7L558,992z"/>
		<path style="fill-rule:evenodd;clip-rule:evenodd;fill:#547067;" d="M109.9,271.7L108,254l8.1,16.05
			c6.3,12.867,11.683,24.767,16.15,35.7c14.333,35,16.917,53.75,7.75,56.25s-17.25-14.75-24.25-51.75
			C113.55,298.683,111.6,285.833,109.9,271.7z"/>
		<path style="fill-rule:evenodd;clip-rule:evenodd;fill:#547067;" d="M205.3,481.75L208,460l10.2,19.5
			c7.8,15.667,14.15,30.167,19.05,43.5c15.667,42.667,13.917,65.667-5.25,69s-28.917-17.667-29.25-63
			C202.65,514.833,203.5,499.083,205.3,481.75z"/>
		<path style="fill-rule:evenodd;clip-rule:evenodd;fill:#547067;" d="M304.85,684.45L306,658l11.8,24.8
			c9.034,19.867,16.517,38.184,22.45,54.95c19,53.667,18.917,81.75-0.25,84.25c-19.167,2.5-30.583-24.083-34.25-79.75
			C304.617,724.85,304.317,705.583,304.85,684.45z"/>
		<path style="fill-rule:evenodd;clip-rule:evenodd;fill:#547067;" d="M419.75,872.75c3.634-6.566,8.1-13.667,13.4-21.3L440,842
			l-0.65,11.15c-0.699,8.866-1.733,16.899-3.1,24.1c-4.333,23-11.083,33.25-20.25,30.75S408.083,893.75,419.75,872.75z"/>
		<path style="fill-rule:evenodd;clip-rule:evenodd;fill:#547067;" d="M493.5,926.5c0.634-6.233,1.9-13.184,3.8-20.85L500,896
			l5.2,8.5c3.899,6.833,7,13.167,9.3,19c7.333,18.667,5.167,28.833-6.5,30.5S491.5,946.5,493.5,926.5z"/>
		<path style="fill-rule:evenodd;clip-rule:evenodd;fill:#4B645C;" d="M148,437v1.55c-0.033,1.3-0.15,2.6-0.35,3.9L148,437z"/>
		<path style="fill-rule:evenodd;clip-rule:evenodd;fill:#4B645C;" d="M129,456c6.1,1.5,10.8,0.517,14.1-2.95
			c2.333-2.466,3.85-6,4.55-10.6c-2.4,35.566-3.717,67.45-3.95,95.649c-0.333,49.167,3.1,74.134,10.3,74.9
			c7.933,0.833,14.483-2.083,19.65-8.75c1.6-2.066,2.967-4.4,4.1-7L179,594l-2.6,17.4c-1.833,13.933-3.083,26.767-3.75,38.5
			c-2.167,37.5,1.95,56.866,12.35,58.1c10.433,1.267,21.733-1.017,33.9-6.85c6.067-2.934,11.1-5.983,15.1-9.15l-6.6,21.95
			c-5.167,17.633-9.633,33.899-13.4,48.8c-12,47.667-14.667,72.75-8,75.25s14.833-1.417,24.5-11.75
			c3.033-3.233,6.017-6.917,8.95-11.05L243,810l-0.7,18.9c-0.466,15.066-0.65,28.85-0.55,41.35c0.333,40,3.417,59.583,9.25,58.75
			s12.75-5.583,20.75-14.25c2.5-2.7,4.967-5.634,7.4-8.8L282,902l-6,82l50-57l-3,82l89-29l23,24l12-27l56,36l55-21l93.1,32.65
			c-16.966,2.467-35.716,0.767-56.25-5.101c-6.399-1.866-12.616-4.017-18.649-6.45l-7.05-3.149l-30,12l-76-9l-35,8l-22-13
			c-7.667,3.166-17.25,6.25-28.75,9.25c-23,6-44.083,8.583-63.25,7.75c-17.833-0.767-32.283-4.967-43.35-12.601
			c-5.5-4.199-9.667-7.267-12.5-9.199c-4.867-3.334-9.917-5.733-15.15-7.2c-5.533-1.533-10.733-1.134-15.6,1.2
			c-2.3,1.1-6.966,4.366-14,9.8c-6.867,5.267-13.367,9.283-19.5,12.05c-9.233,4.2-19.867,6.85-31.9,7.95
			c-22.566,2.1-38.283-5.517-47.15-22.851c-5.667-11.066-8.617-27.033-8.85-47.899c4.9-71.334,8.15-138.434,9.75-201.3
			c2.267-88.967,0.967-161.934-3.9-218.9c-4.6-54.133-16.15-125.917-34.65-215.35c10.033,35.934,19,65.05,26.9,87.35
			C115.083,438.567,123.333,454.567,129,456z"/>
	</g>
</g>
</svg>
