<?xml version="1.0" encoding="iso-8859-1"?>
<!-- Generator: Adobe Illustrator 15.1.0, SVG Export Plug-In . SVG Version: 6.00 Build 0)  -->
<!DOCTYPE svg PUBLIC "-//W3C//DTD SVG 1.1//EN" "http://www.w3.org/Graphics/SVG/1.1/DTD/svg11.dtd">
<svg version="1.1" id="buildings-mid" xmlns="http://www.w3.org/2000/svg" xmlns:xlink="http://www.w3.org/1999/xlink" x="0px"
	 y="0px" width="140.75px" height="228.85px" viewBox="0 0 140.75 228.85" style="enable-background:new 0 0 140.75 228.85;"
	 xml:space="preserve">
<symbol  id="FlashAICB_x2F_buildings-mid_x2F__x3C_Path_x3E__x5F_18" viewBox="0 -16.95 77.25 16.95">
	<g id="Layer_1_2_">
		<path style="fill-rule:evenodd;clip-rule:evenodd;fill:#373535;" d="M48.25,0l17.3-6.4c3.233-1.2,7.133-2.8,11.7-4.8l-9.1,0.9
			l-18.9-5.4c-5.3,4.8-8.533,7.567-9.7,8.3c-0.9,0.6-2,0.767-3.3,0.5c-1.333-0.3-2.4-0.967-3.2-2c-1.066-1.4-2.533-4.083-4.4-8.05
			l-0.6,5.65c-0.133,0.933-0.7,1.667-1.7,2.2c-1.033,0.567-2.184,0.75-3.45,0.55c-1.066-0.167-2.75-0.617-5.05-1.35
			c-2.567-0.8-4.367-1.35-5.4-1.65C10.35-12.183,6.2-13.633,0-15.9c2.333,1.566,3.983,2.6,4.95,3.1C5.917-12.3,9.6-10.133,16-6.3
			L48.25,0z"/>
	</g>
</symbol>
<g>
	
		<use xlink:href="#FlashAICB_x2F_buildings-mid_x2F__x3C_Path_x3E__x5F_18"  width="77.25" height="16.95" y="-16.95" transform="matrix(1 0 0 -1 23.7002 211.9004)" style="overflow:visible;opacity:0.3984;enable-background:new    ;"/>
	<path style="fill-rule:evenodd;clip-rule:evenodd;fill:#807967;" d="M123.1,42.85l8,27.7c5.467,18.434,8.634,27.534,9.5,27.3
		c1.834-0.5-13.25,4.583-45.25,15.25l22,8.25l-23-5.25l-23.5,49.75l14.75-1.5l-4.5,1.75l5.5,1.25l-3.25,1l1.75,1.75l-3.5,0.25
		l2.75,2.75c-0.699-0.166-1.517-0.166-2.449,0c-1.9,0.334-3.417,1.334-4.551,3c-1.699,2.434-2.716,6.217-3.05,11.351
		c-0.333,4.866,0.017,9.5,1.05,13.899c1.101,4.7,5.101,9.551,12,14.551c3.434,2.5,6.767,4.533,10,6.1
		c-2.899-0.667-5.933-1.25-9.1-1.75c-6.333-1-10.184-1.083-11.55-0.25c-1.4,0.833-2.384,2.083-2.95,3.75
		c-0.267,0.833-0.4,1.583-0.4,2.25c-1.333-1.667-2.866-3.283-4.6-4.85c-3.433-3.101-6.117-4.367-8.05-3.801
		c-1.967,0.534-3.784,2.134-5.45,4.801c-0.833,1.333-1.467,2.616-1.9,3.85c0.1-1.233-0.017-2.434-0.35-3.6
		c-0.667-2.334-2.1-3.351-4.3-3.051c-2.233,0.267-6.35,1.45-12.35,3.551c-3,1.066-5.783,2.1-8.35,3.1c4-2.066,8.133-4.85,12.4-8.35
		c8.567-6.934,13.55-13.867,14.95-20.801c1.4-6.966-0.517-16.633-5.75-29c-1.633-3.866-3.5-7.783-5.6-11.75l-2.65-4.75l-36-10
		c2.8-2.466,5.6-5.5,8.4-9.1c5.567-7.267,8.35-13.816,8.35-19.65s-3.684-15.35-11.05-28.55L0,66l14.1,16.85l-7.4-23.5l7.9,16.5
		L16.35,40l0.25,49.85l10,15.75l18.75-24.95l-14,23.35L14.6,139.35l29.5,6.25L58,166l-0.15-59.9L76.1,71.35l-10.75-32.7L84,0
		l-2.65,12l6-2.65l-10.5,10.5c-1.5,2.566-2.966,5.4-4.399,8.5c-2.8,6.2-3.917,10.7-3.35,13.5c0.566,2.767,2.95,8.517,7.15,17.25
		c2.1,4.367,4.134,8.45,6.1,12.25c-6.899,15.1-11.899,26.867-15,35.3c-1.934,5.3-2.517,14.45-1.75,27.45
		c0.4,6.5,0.983,12.467,1.75,17.9l26-42L134.7,96L119.35,39.35L130.7,24L123.1,38.85l10.25-3.5L123.1,42.85z"/>
	<g>
		<path style="fill-rule:evenodd;clip-rule:evenodd;fill:#726C5C;" d="M11.05,84.05L0,66l4.65,6.55c3.333,4.7,5.517,7.85,6.55,9.45
			c5.8,8.933,9.633,16.317,11.5,22.15c1.133,3.6,1.4,7.133,0.8,10.6c-0.467,2.5-1.633,5.866-3.5,10.1c-2.1,4.767-5.1,9.867-9,15.301
			l31.7,8l5.9,10.5c4.2,7.433,6.95,12.216,8.25,14.35c1.3,2.134,3.3,3.134,6,3c1.367-0.066,2.583-0.35,3.65-0.85l-0.85,8.949
			c-0.4,6.934-0.217,12.9,0.55,17.9c0.767,5,2.183,10.5,4.25,16.5c1.033,3,2,5.5,2.899,7.5c-1.333-1.667-2.866-3.283-4.6-4.85
			c-3.433-3.101-6.117-4.367-8.05-3.801c-1.967,0.534-3.784,2.134-5.45,4.801c-0.833,1.333-1.467,2.616-1.9,3.85
			c0.1-1.233-0.017-2.434-0.35-3.6c-0.667-2.334-2.1-3.351-4.3-3.051c-2.233,0.267-6.35,1.45-12.35,3.551
			c-3,1.066-5.783,2.1-8.35,3.1c4-2.066,8.133-4.85,12.4-8.35c8.567-6.934,13.55-13.867,14.95-20.801
			c1.4-6.966-0.517-16.633-5.75-29c-1.633-3.866-3.5-7.783-5.6-11.75l-2.65-4.75l-36-10c2.8-2.466,5.6-5.5,8.4-9.1
			c5.567-7.267,8.35-13.816,8.35-19.65S18.417,97.25,11.05,84.05z"/>
		<polygon style="fill-rule:evenodd;clip-rule:evenodd;fill:#726C5C;" points="6.7,59.35 15.75,85 14.1,82.85 		"/>
		<polygon style="fill-rule:evenodd;clip-rule:evenodd;fill:#726C5C;" points="15.6,78.75 14.6,75.85 16.35,40 		"/>
		<polygon style="fill-rule:evenodd;clip-rule:evenodd;fill:#726C5C;" points="26.45,108.5 26.6,105.6 45.35,80.65 		"/>
		<path style="fill-rule:evenodd;clip-rule:evenodd;fill:#726C5C;" d="M78.75,72.1c-2.733,5.133-5.5,10.45-8.3,15.95
			c-5.633,11-8.667,17.383-9.1,19.15c-0.4,1.767-0.333,12.95,0.2,33.55c0.267,10.3,0.583,20.417,0.95,30.35
			c-2.3-1.866-3.8-3.566-4.5-5.1l-0.15-59.9L76.1,71.35l-10.75-32.7L84,0L66.85,38.45L78.75,72.1z"/>
		<polygon style="fill-rule:evenodd;clip-rule:evenodd;fill:#726C5C;" points="81.35,12 87.35,9.35 80.25,14.35 		"/>
		<path style="fill-rule:evenodd;clip-rule:evenodd;fill:#726C5C;" d="M134.7,96L119.35,39.35L130.7,24l-9.45,15.45L136.5,96.6
			l-42.15,14.5l-22.6,38c-1.167,2-2.633,6.034-4.4,12.101V152l26-42L134.7,96z"/>
		<polygon style="fill-rule:evenodd;clip-rule:evenodd;fill:#726C5C;" points="94.35,116.1 94.35,114.85 117.05,121.25 		"/>
		<path style="fill-rule:evenodd;clip-rule:evenodd;fill:#726C5C;" d="M77.35,176.1c-1.1,1.601-1.916,3.834-2.449,6.7
			c-0.534,2.667-0.767,5.617-0.7,8.851c-0.267-2.567-0.75-3.917-1.45-4.051c-0.533-0.1-1.134,0.784-1.8,2.65
			c-0.334,0.934-0.617,1.884-0.851,2.85l0.65-5.649c0.267-2.934,0.8-5.934,1.6-9c1.134-4.267,2.467-6.967,4-8.101
			c1.467-1.1,3.367-1.466,5.7-1.1c1.167,0.167,2.184,0.45,3.05,0.85l-3.5,0.25l2.75,2.75c-0.699-0.166-1.517-0.166-2.449,0
			C80,173.434,78.483,174.434,77.35,176.1z"/>
	</g>
	<g>
		<path style="fill-rule:evenodd;clip-rule:evenodd;fill:#615D4F;" d="M6.5,140.85c1.833-1.666,3.2-3.05,4.1-4.149
			c0.6-0.667,2.066-2.55,4.4-5.65l3.35-4.45L9.75,140.7l32.6,8.899l6.6,12.65c4.667,8.833,7.683,14.316,9.05,16.45
			c0.533,0.833,1.517,1.316,2.95,1.45c0.733,0.066,1.417,0.05,2.05-0.051l-0.7,8.9c-0.4,6.767-0.5,12.217-0.3,16.35
			c0.2,4.101,1.033,7.667,2.5,10.7c0.733,1.5,1.433,2.601,2.1,3.3v0.051c-2.467-1.801-4.434-2.483-5.9-2.051
			c-1.967,0.534-3.784,2.134-5.45,4.801c-0.833,1.333-1.467,2.616-1.9,3.85c0.1-1.233-0.017-2.434-0.35-3.6
			c-0.667-2.334-2.1-3.351-4.3-3.051c-2.233,0.267-6.35,1.45-12.35,3.551c-3,1.066-5.783,2.1-8.35,3.1l0.85-0.45
			c4.5-1.833,9.367-5.116,14.6-9.85c4.133-3.7,7.183-6.95,9.15-9.75c2-2.8,3.233-6.384,3.7-10.75c0.4-3.8,0.167-7.667-0.7-11.601
			c-1.367-6.199-4.117-13.583-8.25-22.149l-5.85-11L6.5,140.85z"/>
	</g>
	<path style="fill-rule:evenodd;clip-rule:evenodd;fill:#615D4F;" d="M15.6,91.9l-4.75-9.45l4.9,8.65
		c3.467,6.367,5.667,10.95,6.6,13.75c0.933,2.8,1.25,5.483,0.95,8.05c-0.133,1.267-0.367,2.25-0.7,2.95
		c0.2-1.266,0.133-3.149-0.2-5.649c-0.333-2.3-0.767-4.383-1.3-6.25C20.7,102.483,18.867,98.467,15.6,91.9z"/>
	<path style="fill-rule:evenodd;clip-rule:evenodd;fill:#615D4F;" d="M66,39.7l11.75,31.75c-11.667,22.6-17.583,34.433-17.75,35.5
		c-0.1,0.7,0.083,11.283,0.55,31.75c0.233,10.233,0.467,20.399,0.7,30.5l-2.5-2.75l-0.25-60.5L76.6,71.2L66,39.7z"/>
	<path style="fill-rule:evenodd;clip-rule:evenodd;fill:#615D4F;" d="M68,157.2V152.1L79.6,132.7l14.15-22.1l-13.4,22.5
		c-6.399,10.733-9.733,16.4-10,17C69.35,152.434,68.567,154.8,68,157.2z"/>
	<polygon style="fill-rule:evenodd;clip-rule:evenodd;fill:#615D4F;" points="119.75,39.7 120.6,39.85 135.6,95.95 135.1,96.1 	"/>
	<path style="fill-rule:evenodd;clip-rule:evenodd;fill:#736D5D;" d="M68.35,181.95c0.433-4.8,1.433-8.384,3-10.75l2.25-2.101
		l-1.35,1.551c-0.967,1.666-1.717,4.066-2.25,7.199c-0.533,3.2-0.767,7.284-0.7,12.25c0.034,1.9,0.184,5.267,0.45,10.101
		c0.167,3.1,0.866,5.733,2.1,7.899c-0.233-0.933-0.216-3.783,0.051-8.55l0.449-6.85v4.25c0.233,3.6,0.867,7.267,1.9,11
		c1.033,3.767,4.45,7.083,10.25,9.95c2.9,1.433,5.684,2.5,8.35,3.199l-19.5,4.9c-1-5.434-1.75-9.283-2.25-11.55
		c-0.699-3.167-1.383-7.566-2.05-13.2C68.15,193.316,67.917,186.884,68.35,181.95z"/>
	<path style="fill-rule:evenodd;clip-rule:evenodd;fill:#736D5D;" d="M60.1,171.45c-0.3,0.133-0.684,0.133-1.15,0
		c-0.934-0.2-1.833-0.9-2.7-2.101c-0.9-1.199-3.25-5.233-7.05-12.1l-5.45-9.9L60.1,171.45z"/>
	<path style="fill-rule:evenodd;clip-rule:evenodd;fill:#736D5D;" d="M63.3,140.3c-0.267-19.6-0.25-30.333,0.05-32.2
		c0.3-1.867,3.333-8.434,9.1-19.7C75.35,82.8,78.2,77.367,81,72.1l-7.7,16.65c-5.233,11.9-8.167,19.8-8.8,23.7
		c-0.633,3.934-0.633,14.033,0,30.3c0.3,8.134,0.667,15.866,1.1,23.2l-0.75-1.25l-1,4.399C63.65,159.7,63.467,150.1,63.3,140.3z"/>
	<path style="fill-rule:evenodd;clip-rule:evenodd;fill:#736D5D;" d="M69,164.2l1.25-7l22.6-41.851c-1.5,3.233-2.5,5.9-3,8L69,164.2
		z"/>
	<polygon style="fill-rule:evenodd;clip-rule:evenodd;fill:#736D5D;" points="139,97.2 95.6,112.2 97,111.1 137.35,97.1 	"/>
	<polygon style="fill-rule:evenodd;clip-rule:evenodd;fill:#9A917A;" points="9.5,66.1 15.7,80.65 15.35,82.25 	"/>
	<path style="fill-rule:evenodd;clip-rule:evenodd;fill:#9A917A;" d="M24.5,105.7c0.6,1.733,1.083,3.333,1.45,4.8l5.4-8l-9.4,19.35
		c1.867-5.833,2.75-10.2,2.65-13.1c-0.067-1.8-0.684-4.033-1.85-6.7L21,98.65C22.133,99.883,23.3,102.233,24.5,105.7z"/>
	<polygon style="fill-rule:evenodd;clip-rule:evenodd;fill:#9A917A;" points="42.25,146.35 41.75,146.9 14.25,140.15 	"/>
	<path style="fill-rule:evenodd;clip-rule:evenodd;fill:#9A917A;" d="M79,68.65c-0.2-0.267-0.267,0.15-0.2,1.25
		c0.066,0.567,0.134,1.15,0.2,1.75L72.85,53.5L81,70.35C80,69.683,79.333,69.117,79,68.65z"/>
	<polygon style="fill-rule:evenodd;clip-rule:evenodd;fill:#9A917A;" points="78.7,16.15 76.7,18.5 81.2,7.85 	"/>
	<polygon style="fill-rule:evenodd;clip-rule:evenodd;fill:#9A917A;" points="131.2,36.35 123.5,41.5 123.7,39.65 	"/>
	<polygon style="fill-rule:evenodd;clip-rule:evenodd;fill:#9A917A;" points="131.7,75.65 138.5,96.35 137,96 	"/>
	<polygon style="fill-rule:evenodd;clip-rule:evenodd;fill:#9A917A;" points="69.7,168.65 73.2,167.15 70.5,166.5 81.35,165.15 
		79.2,166.5 82,167.15 	"/>
</g>
</svg>
