<?xml version="1.0" encoding="iso-8859-1"?>
<!-- Generator: Adobe Illustrator 15.1.0, SVG Export Plug-In . SVG Version: 6.00 Build 0)  -->
<!DOCTYPE svg PUBLIC "-//W3C//DTD SVG 1.1//EN" "http://www.w3.org/Graphics/SVG/1.1/DTD/svg11.dtd">
<svg version="1.1" id="back_mountains" xmlns="http://www.w3.org/2000/svg" xmlns:xlink="http://www.w3.org/1999/xlink" x="0px"
	 y="0px" width="220.1px" height="544.9px" viewBox="0 0 220.1 544.9" style="enable-background:new 0 0 220.1 544.9;"
	 xml:space="preserve">
<g>
	<path style="fill-rule:evenodd;clip-rule:evenodd;fill:#628378;" d="M194.6,91.5c-3.5,1.267-7.116,2.833-10.85,4.7
		c-7.5,3.733-11.884,7.167-13.15,10.3c-1.233,3.133-1.6,9.067-1.1,17.8c0.233,4.4,0.6,8.467,1.1,12.2
		c-1.233-5.233-2.983-10.35-5.25-15.35c-4.5-10-9.25-14.383-14.25-13.15c-6.399,1.6-13.083,7.483-20.05,17.65
		c-7.333,10.667-10.649,20.283-9.95,28.85c0.634,7.467,0.317,17.7-0.949,30.7c-0.601,6.5-1.284,12.25-2.051,17.25
		c-1-10.233-2.616-20.667-4.85-31.3c-4.5-21.233-9.883-32.783-16.15-34.65c-6.233-1.867-14.1,2.567-23.6,13.3
		c-4.733,5.4-8.85,10.967-12.35,16.7l11.8,17.4c8.233,11.733,13.283,17.917,15.15,18.55s2.933,7.316,3.2,20.05
		c0.133,6.4,0.067,12.717-0.2,18.95l-11.95,25.5l26.95,9l-19.5,55.5l-25.45,13.5l-4.5,54l29.95,13.5l13.5,40.5l49.5,12l1.5,48l42,3
		l2.4,11.95c0.934,4.633,0.884,8.199-0.15,10.699c-1.666,3.967-5.783,5.9-12.35,5.801c-0.1,0-2.816-0.717-8.15-2.15
		c-5.3-1.434-9.416-2.134-12.35-2.1c-3.733,0.066-7.184,0.883-10.35,2.449l-3.65,2.301l-26-7.5c-1.167,1.366-2.884,2.25-5.15,2.649
		c-4.533,0.8-9.566-1.25-15.1-6.149c-1.9-1.7-4.7-2.284-8.4-1.75c-2.5,0.333-6.317,1.433-11.45,3.3c-6.233,2.2-10.566,3.616-13,4.25
		c-5,1.3-9.3,1.7-12.9,1.2c-6.1-0.834-9.767-2.15-11-3.95c-0.9-1.334-1.45-2.084-1.65-2.25c-0.967-0.9-2.583-1.667-4.85-2.3
		c-3.7-1.067-8.867-0.167-15.5,2.699c-7.1,3.101-12.267,4.45-15.5,4.051c-4.133-0.467-6.667-3.2-7.6-8.2
		c-0.767-4.066-0.417-8.783,1.05-14.15c8.033-20.166,14.617-38.25,19.75-54.25c7.2-22.333,11.017-39.033,11.45-50.1
		c0.633-15.634-1.683-30.066-6.95-43.3c-1.633-4.167-3.467-7.95-5.5-11.351l-2.55-3.85l18-40.5l16.5-1.5
		c1.767-6.5,3.267-14.117,4.5-22.851c2.5-17.5,2.5-31.883,0-43.149c-1.3-5.9-4.367-12.367-9.2-19.4
		c-2.367-3.4-6.983-9.25-13.85-17.55c-5.667-6.833-9.45-12.017-11.35-15.55c-2.767-5.267-3.3-9.767-1.6-13.5
		c3.133-6.867,12.067-17.167,26.8-30.9c7.4-6.867,14.466-13.05,21.2-18.55l-13.5-72L116.6,0l6,16.5
		c-6.233,4.5-12.783,9.383-19.649,14.65c-13.733,10.5-22.167,17.617-25.3,21.35c-1.8,2.167-3.283,6.267-4.45,12.3
		c-1.067,5.667-1.65,11.883-1.75,18.65c-0.1,6.933,0.35,12.867,1.35,17.8c1.1,5.433,2.717,8.683,4.85,9.75c2,1,4.333,0.733,7-0.8
		c1.5-0.867,4.333-3.1,8.5-6.7c9.8-8.4,19.117-13.9,27.95-16.5c10.634-3.133,21.817-5.067,33.551-5.8
		c5.899-0.367,10.716-0.434,14.449-0.2l51-27l-18,69L194.6,91.5z"/>
	<g>
		<path style="fill-rule:evenodd;clip-rule:evenodd;fill:#547067;" d="M116.6,0l2.9,7.85L66,59.4l10,69c-7,6.5-13.7,13.8-20.1,21.9
			c-12.833,16.167-17.8,28.2-14.9,36.1c2.933,7.934,9.483,13.483,19.65,16.65c5.067,1.567,9.85,2.35,14.35,2.35l-4.6,13.75
			c-2.5,9.333-2.3,14.417,0.6,15.25l7,2l-2.8,6.4c-2.167,5.233-3.983,10.233-5.45,15c-4.667,15.167-4.917,25.033-0.75,29.601
			c4.167,4.6,8.417,6.316,12.75,5.149c2.167-0.6,3.917-1.649,5.25-3.149l-40,53l-1,79h25l-4.25,10.3
			c-3.233,8.333-5.85,16.149-7.85,23.45c-6.5,23.333-5.8,37.083,2.1,41.25c7.933,4.166,15.817,3.583,23.65-1.75
			c2.434-1.667,4.717-3.7,6.85-6.101L94,485.4l-1,29l29-18l9,32l58.75,15.149c-1.8,0.634-4.05,0.917-6.75,0.851
			c-0.1,0-2.816-0.717-8.15-2.15c-5.3-1.434-9.416-2.134-12.35-2.1c-3.4,0.1-6.566,0.783-9.5,2.05c-17.167-3.167-28.5-5.75-34-7.75
			c-6.134-2.233-9.3-6.017-9.5-11.351c-0.067-1.666,0.167-3.399,0.7-5.199l0.8-2.15l-10.5,6.75c-8,4.8-14.5,7.884-19.5,9.25
			c-5,1.4-7.717-1.517-8.15-8.75c-0.167-2.233-0.083-4.783,0.25-7.65l0.55-3.6l-5.5,4.1c-4.9,2.767-10.4,4.301-16.5,4.601
			c-6.133,0.267-8.533-7.101-7.2-22.101c0.433-4.699,1.2-9.866,2.3-15.5l1.55-7.1l-1.15,1.6c-1.033,1.233-2.117,2.284-3.25,3.15
			c-3.667,2.8-7.3,3.217-10.9,1.25c-3.633-1.934-1.283-11.184,7.05-27.75c2.6-5.167,5.65-10.767,9.15-16.8l4.45-7.45L36.3,437.1
			l2-94.649l34.7-46c-1.767-0.566-3.6-1.601-5.5-3.101c-3.8-3-5.967-6.866-6.5-11.6c-0.567-4.7,0.7-13.117,3.8-25.25l4.85-16.75
			c-0.9-0.1-2.033-0.533-3.4-1.3c-2.8-1.567-5.45-4.017-7.95-7.35c-2.5-3.333-2.8-7.883-0.9-13.65c0.6-1.833,1.383-3.667,2.35-5.5
			l1.25-2.2c-3.667-0.767-7.617-2.15-11.85-4.15c-8.433-4-14.05-9.05-16.85-15.15c-2.566-5.7-2.2-12.833,1.1-21.4
			c1.8-4.566,4.217-9.083,7.25-13.55c8.9-8.733,18.233-17.067,28-25L61,59.75L116.6,0z"/>
		<path style="fill-rule:evenodd;clip-rule:evenodd;fill:#547067;" d="M97.1,136.5c-3.033-0.933-6.517-0.3-10.45,1.9
			c3.434-5.333,7.633-8.6,12.6-9.8c5.567-1.333,9.817,0.933,12.75,6.8c2.467,4.967,4.2,15.65,5.2,32.05
			c0.633,10.566,0.899,21.9,0.8,34c-1.3-12.133-3.15-23.434-5.55-33.9C108.083,148.617,102.967,138.267,97.1,136.5z"/>
		<path style="fill-rule:evenodd;clip-rule:evenodd;fill:#547067;" d="M164.9,108.05c1.699,5.3,3.333,12.083,4.899,20.35
			c0.233,3.067,0.5,5.767,0.8,8.1c-1.233-5.233-2.983-10.35-5.25-15.35c-4.5-10-9.25-14.383-14.25-13.15
			c-3.233,0.767-6.983,3.15-11.25,7.15c3.233-5.867,6.034-10.233,8.4-13.1c3.667-4.466,6.917-6.35,9.75-5.65
			C160.267,96.967,162.566,100.85,164.9,108.05z"/>
		<path style="fill-rule:evenodd;clip-rule:evenodd;fill:#547067;" d="M194.6,91.5c-2.199,0.8-4.683,1.817-7.449,3.05
			c-5.534,2.5-9.75,4.934-12.65,7.3l-0.5-0.45l26-18l2.6,37.7l-0.5,1.9L194.6,91.5z"/>
		<path style="fill-rule:evenodd;clip-rule:evenodd;fill:#547067;" d="M83,438.4l0.7,6.899c0.4,5.5,0.5,10.533,0.3,15.101
			c-0.667,14.666-4.333,22-11,22s-7-7.334-1-22c1.867-4.567,4.267-9.601,7.2-15.101L83,438.4z"/>
		<path style="fill-rule:evenodd;clip-rule:evenodd;fill:#547067;" d="M121,122.4c-3.333,0.434-4.167-3.933-2.5-13.1l3.5-13.9
			l2.5,13.15C125.5,117.383,124.333,122,121,122.4z"/>
		<polygon style="fill-rule:evenodd;clip-rule:evenodd;fill:#4B645C;" points="116.6,0 61,59.75 68.65,130.5 55.15,58.5 		"/>
		<path style="fill-rule:evenodd;clip-rule:evenodd;fill:#4B645C;" d="M22.25,193.45c-2.767-5.267-3.3-9.767-1.6-13.5
			c2.533-5.633,9.2-13.784,20-24.45c-3.033,4.467-5.45,8.983-7.25,13.55c-3.3,8.567-3.667,15.7-1.1,21.4
			c2.8,6.1,8.417,11.15,16.85,15.15c4.233,2,8.184,3.383,11.85,4.15l-1.25,2.2c-0.967,1.833-1.75,3.667-2.35,5.5
			c-1.9,5.767-1.6,10.316,0.9,13.65c2.5,3.333,5.15,5.783,7.95,7.35c1.367,0.767,2.5,1.2,3.4,1.3L64.8,256.5
			c-3.1,12.133-4.367,20.55-3.8,25.25c0.533,4.733,2.7,8.6,6.5,11.6c1.9,1.5,3.733,2.534,5.5,3.101l-34.7,46l-2,94.649l17.35-7.35
			l-4.45,7.45c-3.5,6.033-6.55,11.633-9.15,16.8c-8.333,16.566-10.683,25.816-7.05,27.75c3.6,1.967,7.233,1.55,10.9-1.25
			c1.133-0.866,2.217-1.917,3.25-3.15l1.15-1.6l-1.55,7.1c-1.1,5.634-1.867,10.801-2.3,15.5c-1.333,15,1.066,22.367,7.2,22.101
			c6.1-0.3,11.6-1.834,16.5-4.601l5.5-4.1l-0.55,3.6c-0.333,2.867-0.417,5.417-0.25,7.65c0.433,7.233,3.15,10.15,8.15,8.75
			c5-1.366,11.5-4.45,19.5-9.25l10.5-6.75l-0.8,2.15c-0.534,1.8-0.767,3.533-0.7,5.199c0.2,5.334,3.366,9.117,9.5,11.351
			c5.5,2,16.833,4.583,34,7.75c-1.233,0.533-2.35,1.149-3.35,1.85c-0.5,0.334-0.884,0.617-1.15,0.851l-26-7.5
			c-1.167,1.366-2.884,2.25-5.15,2.649c-4.533,0.8-9.566-1.25-15.1-6.149c-1.9-1.7-4.7-2.284-8.4-1.75
			c-2.5,0.333-6.317,1.433-11.45,3.3c-6.233,2.2-10.566,3.616-13,4.25c-5,1.3-9.3,1.7-12.9,1.2c-6.1-0.834-9.767-2.15-11-3.95
			c-0.9-1.334-1.45-2.084-1.65-2.25c-0.967-0.9-2.583-1.667-4.85-2.3c-3.7-1.067-8.867-0.167-15.5,2.699
			c-7.1,3.101-12.267,4.45-15.5,4.051c-4.133-0.467-6.667-3.2-7.6-8.2c-0.767-4.066-0.417-8.783,1.05-14.15
			c8.033-20.166,14.617-38.25,19.75-54.25c7.2-22.333,11.017-39.033,11.45-50.1c0.633-15.634-1.683-30.066-6.95-43.3
			c-1.633-4.167-3.467-7.95-5.5-11.351l-2.55-3.85l18-40.5l16.5-1.5c1.767-6.5,3.267-14.117,4.5-22.851
			c2.5-17.5,2.5-31.883,0-43.149c-1.3-5.9-4.367-12.367-9.2-19.4c-2.367-3.4-6.983-9.25-13.85-17.55
			C27.933,202.167,24.15,196.983,22.25,193.45z"/>
		<path style="fill-rule:evenodd;clip-rule:evenodd;fill:#547067;" d="M107,492.45c-3.633-0.834-1.833-4.967,5.4-12.4L124.3,469.1
			l-1.5,3.95c-1.267,3.134-2.566,5.967-3.899,8.5C114.566,489.65,110.6,493.283,107,492.45z"/>
		<polygon style="fill-rule:evenodd;clip-rule:evenodd;fill:#547067;" points="182.3,523.75 183,532.45 137.65,520.45 
			137.65,475.75 143.65,516.45 		"/>
	</g>
</g>
</svg>
