<?xml version="1.0" encoding="iso-8859-1"?>
<!-- Generator: Adobe Illustrator 15.1.0, SVG Export Plug-In . SVG Version: 6.00 Build 0)  -->
<!DOCTYPE svg PUBLIC "-//W3C//DTD SVG 1.1//EN" "http://www.w3.org/Graphics/SVG/1.1/DTD/svg11.dtd">
<svg version="1.1" id="buildings-back" xmlns="http://www.w3.org/2000/svg" xmlns:xlink="http://www.w3.org/1999/xlink" x="0px"
	 y="0px" width="112.85px" height="117.4px" viewBox="0 0 112.85 117.4" style="enable-background:new 0 0 112.85 117.4;"
	 xml:space="preserve">
<symbol  id="FlashAICB_x2F_buildings-back_x2F__x3C_Path_x3E__x5F_6" viewBox="-0.024 -6.396 20.281 6.437">
	<g id="Layer_1_2_">
		<path style="fill-rule:evenodd;clip-rule:evenodd;fill:#373535;" d="M0-1.75c0.1,0.667,1.6,1.167,4.5,1.5
			C6.867,0.017,9.217,0.1,11.55,0c1.934-0.1,3.867-0.417,5.8-0.95c2.033-0.533,3-1.033,2.9-1.5C20.117-3.117,19.3-3.833,17.8-4.6
			c-1.867-0.967-4.133-1.55-6.8-1.75C8.1-6.55,5.467-6.1,3.1-5C0.833-3.967-0.2-2.883,0-1.75z"/>
	</g>
</symbol>
<g>
	<path style="fill-rule:evenodd;clip-rule:evenodd;fill:#904F58;" d="M0.3,45.8c0.333-1.2,1-2.45,2-3.75
		c1.2-1.6,2.317-2.316,3.35-2.15c1.4,0.2,2.684,0.883,3.85,2.05c0.567,0.6,1,1.167,1.3,1.7l-3,8.75c-0.4,0.3-0.917,0.55-1.55,0.75
		c-1.233,0.434-2.383,0.483-3.45,0.15c-1.3-0.4-2.15-1.55-2.55-3.45C-0.083,48.317-0.067,46.967,0.3,45.8z"/>
	<path style="fill-rule:evenodd;clip-rule:evenodd;fill:#904F58;" d="M60.85,9c-0.767,0.333-1.483,0.25-2.149-0.25
		c-0.934-0.733-1.283-1.767-1.05-3.1c0.233-1.2,0.866-2.433,1.899-3.7c0.834-1.034,1.967-1.667,3.4-1.9
		C64.417-0.183,65.467,0.133,66.1,1c0.434,0.6,0.65,1.017,0.65,1.25c0,0.133-0.1,0.35-0.3,0.65C66.283,3.3,64.417,5.333,60.85,9z"/>
	
		<use xlink:href="#FlashAICB_x2F_buildings-back_x2F__x3C_Path_x3E__x5F_6"  width="20.281" height="6.437" x="-0.024" y="-6.396" transform="matrix(1 0 0 -1 18.8999 111)" style="overflow:visible;opacity:0.3984;enable-background:new    ;"/>
	<path style="fill-rule:evenodd;clip-rule:evenodd;fill:#904F58;" d="M37.25,106.9l0.45,0.199c0.333,0.2,0.566,0.483,0.7,0.851
		c0.267,0.6,0.3,2.416,0.1,5.45c-0.6,0.533-1.45,1.066-2.55,1.6c-2.167,1.033-4.434,1.533-6.8,1.5
		c-2.033-0.033-3.983-0.667-5.85-1.9l-2.2-1.85c0.4-1.767,0.7-2.95,0.9-3.55c0.133-0.467,0.467-1,1-1.601l0.7-0.699H37.25z"/>
	<path style="fill-rule:evenodd;clip-rule:evenodd;fill:#A45963;" d="M70.15,46.85c-4.403,4.536-8.953,9.453-13.65,14.75
		C47.067,72.2,41.6,79.434,40.1,83.3c-1.467,3.867-2.383,8.967-2.75,15.3c-0.167,3.167-0.2,5.934-0.1,8.301l-2.05,1.449
		c-1.667,0.934-3.25,1.4-4.75,1.4c-1.467,0-3.034-0.467-4.7-1.4L23.7,106.9c1.433-3.467,2.867-7.467,4.3-12
		c2.933-9.034,4.467-16.233,4.6-21.601c0.133-5.366-4.283-10.366-13.25-15c-4.5-2.3-9.017-4.083-13.55-5.35
		c-0.1-0.167-0.15-0.517-0.15-1.05c0-1.033,0.3-2.367,0.9-4c0.6-1.633,1.483-2.833,2.65-3.6l1.6-0.65l11.55,5.9
		c7.967,4.534,12.7,8.284,14.2,11.25c1.467,2.967,2.15,6.3,2.05,10c-0.033,1.867-0.233,3.417-0.6,4.65L63.35,43.3l0.351,1.05
		c0.467,0.833,1.3,1.55,2.5,2.15s2.217,0.833,3.05,0.7C69.677,47.134,69.977,47.018,70.15,46.85z"/>
	<path style="fill-rule:evenodd;clip-rule:evenodd;fill:#904F58;" d="M64.2,39.8c0.566-0.5,1.2-0.6,1.899-0.3
		c0.434,0.2,1.217,0.667,2.351,1.4c3.2,1.767,4.434,3.4,3.7,4.9c-0.733,1.434-1.584,2.434-2.551,3c-1.5,0.867-3.183,0.617-5.05-0.75
		c-1.866-1.333-2.633-2.933-2.3-4.8C62.483,41.917,63.134,40.767,64.2,39.8z"/>
	<path style="fill-rule:evenodd;clip-rule:evenodd;fill:#A45963;" d="M88.7,26.5c-4.033-1.2-8.033,1.367-12,7.7
		c-2,3.133-3.601,6.4-4.8,9.8c-0.834,0.733-1.733,1.117-2.7,1.15c-1.967,0.133-3.316-1.45-4.05-4.75
		c1.8-2.566,3.517-5.367,5.149-8.4c3.267-6.067,4.517-10.283,3.75-12.65C73.316,16.95,70.9,14.5,66.8,12l-5.95-3
		c0-0.467,0.051-1,0.15-1.6c0.167-1.2,0.467-2.1,0.9-2.7c0.733-0.967,2.283-1.684,4.649-2.15L72.3,9.2
		c4.467,4.833,8.267,8.216,11.4,10.15c3.133,1.933,8.366,3.767,15.7,5.5c3.666,0.867,7.017,1.533,10.05,2
		c-1.2,1.2-2.033,2.15-2.5,2.85c-0.3,0.433-0.584,1.333-0.851,2.7c-0.1,0.7-0.183,1.35-0.25,1.95
		C98.417,30.283,92.7,27.667,88.7,26.5z"/>
	<path style="fill-rule:evenodd;clip-rule:evenodd;fill:#904F58;" d="M105.25,30.05c0.5-1.267,0.983-2.183,1.45-2.75
		c0.833-1.066,1.866-1.583,3.1-1.55c2.533,0.133,3.483,2.2,2.851,6.2c-0.267,1.6-0.817,2.85-1.65,3.75c-0.9,0.933-1.9,1.283-3,1.05
		c-1.233-0.267-2.134-1.083-2.7-2.45C104.733,32.967,104.717,31.55,105.25,30.05z"/>
	<path style="fill-rule:evenodd;clip-rule:evenodd;fill:#744148;" d="M110.85,27.1c1.5,0.5,1.851,2.25,1.051,5.25
		c-0.801,3-1.817,4.183-3.051,3.55c-1.166-0.6-1.399-2.316-0.699-5.15C108.884,27.917,109.783,26.7,110.85,27.1z"/>
</g>
</svg>
