<?xml version="1.0" encoding="iso-8859-1"?>
<!-- Generator: Adobe Illustrator 15.1.0, SVG Export Plug-In . SVG Version: 6.00 Build 0)  -->
<!DOCTYPE svg PUBLIC "-//W3C//DTD SVG 1.1//EN" "http://www.w3.org/Graphics/SVG/1.1/DTD/svg11.dtd">
<svg version="1.1" id="mountains" xmlns="http://www.w3.org/2000/svg" xmlns:xlink="http://www.w3.org/1999/xlink" x="0px" y="0px"
	 width="691.95px" height="577.75px" viewBox="0 0 691.95 577.75" style="enable-background:new 0 0 691.95 577.75;"
	 xml:space="preserve">
<g>
	<path style="fill-rule:evenodd;clip-rule:evenodd;fill:#8FB0A4;" d="M349.65,93.55c-1.4-12.9-3.301-24.767-5.7-35.6l-62,48
		c6.867,7.2,14.55,13.767,23.05,19.7c7.5,5.167,14.317,8.717,20.45,10.65c9.233,2.867,15.55,2.35,18.95-1.55
		c2.133-2.233,3.683-5.433,4.65-9.6c0.601-2.667,1.017-6.267,1.25-10.8C350.6,108.317,350.384,101.383,349.65,93.55z M457.15,97.85
		c-5.534-3.533-11.284-4.65-17.25-3.35c-5.934,1.3-10.75,4.667-14.45,10.1c-3.5,5.133-6.017,11.633-7.55,19.5
		c-1.601,8.033-1.851,15.783-0.75,23.25c1.233,8.2,3.916,14.767,8.05,19.7c4.733,5.6,10.983,8.567,18.75,8.9l0.925,0.05
		c10.895,0.243,18.919-5.424,24.075-17c4.434-9.967,5.8-20.783,4.1-32.45c-0.899-6.033-2.55-11.4-4.95-16.1
		C465.3,104.917,461.65,100.717,457.15,97.85z M691.95,105.95l-0.2,0.1c-7.967,2.233-18.35,4.917-31.15,8.05
		c-8.666,2.167-19.733,4.767-33.199,7.8c-6.9,1.567-11.801,2.783-14.7,3.65c-5.367,1.6-10.033,3.534-14,5.8
		c-9.634,5.5-18.15,13.283-25.55,23.35c-7.267,9.8-12.334,20.216-15.2,31.25c0.133-1.967,0.166-4.367,0.1-7.2
		c-0.333-13.833-2.583-25.467-6.75-34.9c-5.633-12.633-14.25-19.817-25.85-21.55c-10.4-1.533-19,1.167-25.8,8.1
		c-4.4,4.533-9.25,12.767-14.551,24.7c-5.833,13.2-10.399,22-13.699,26.4c-6.267,8.3-14.034,12.683-23.301,13.15
		c-7.767,0.4-15.6-1.283-23.5-5.05c-6.899-3.3-13.483-7.983-19.75-14.05c-2.866-2.733-5.166-5.25-6.899-7.55
		c-0.167-0.233-1.15-0.267-2.95-0.1c-1.866,0.2-2.917,0.3-3.15,0.3c-15,0.966-27.466,3.433-37.399,7.4
		c-14.333,5.767-22.617,14.383-24.85,25.85c-1.267,6.6-0.717,14.05,1.65,22.35c1.7,5.867,4.567,12.85,8.6,20.95
		c5.867,11.667,13.433,23.75,22.7,36.25c2.667,3.5,4.45,5.8,5.351,6.9c0.233,0.3,0.166,1.317-0.2,3.05
		c-0.2,0.899-0.45,1.95-0.75,3.149l-8.45,52.5c-0.3,1.801-0.434,2.717-0.4,2.75c0.067,0.534,0.634,1.117,1.7,1.75l15.7,9.65
		c0.333,0.2,1.866,1.05,4.6,2.55c2.601,1.467,3.884,2.434,3.851,2.9l-7.75,61.85c-0.134,1.134-0.05,1.834,0.25,2.101
		c0.066,0.066,0.833,0.383,2.3,0.949l33.9,13.9c0.3,0.134,1.6,0.566,3.899,1.3c2.2,0.767,3.334,1.351,3.4,1.75l21.2,90.45
		c0.133,0.5,0.267,1.25,0.399,2.25c0.233,0.8,0.65,1.316,1.25,1.55c7.267,2.934,13.75,5.816,19.45,8.65
		c4.866,2.399,8.7,4.583,11.5,6.55c4.033,2.8,7.167,5.833,9.4,9.1c2.899,4.101,4.017,6.584,3.35,7.45
		c-0.733,0.934-2.134,1.584-4.2,1.95c-0.2,0.066-1.816,0.267-4.85,0.6c-7.834,0.867-17.117,1.25-27.851,1.15
		c-12.433-0.366-21.716-0.634-27.85-0.8c-16.2-0.4-26.65-0.783-31.35-1.15c-11.667-1-21.9-3.05-30.7-6.149
		c-3.601-1.467-6.334-2.551-8.2-3.25c-3.366-1.301-6.217-2-8.55-2.101c-2.6-0.133-5.717,0.084-9.35,0.65
		c-4.133,0.733-7.217,1.267-9.25,1.6c-14.7,2.467-25.917,4.2-33.65,5.2c-12.5,1.566-23.817,2.434-33.95,2.6
		c-11.533,0.2-21.617-0.399-30.25-1.8c-10.8-1.767-20.333-4.899-28.6-9.399c-1.6-0.867-6.15-3.9-13.65-9.101
		c-5.533-3.866-10.333-6.383-14.4-7.55c-5.533-1.533-12.283-0.833-20.25,2.1c-2.533,0.934-8.85,3.917-18.95,8.95
		c-9.367,4.867-16.45,8.434-21.25,10.7c-3.867,1.833-6.233,2.917-7.1,3.25c-2.9,1.134-5.417,1.65-7.55,1.55
		c-3.633-0.166-5.933-2.166-6.9-6c-0.4-2.233-0.717-3.916-0.95-5.05c-0.4-2.033-0.967-3.616-1.7-4.75
		c-1.633-2.533-3.767-3.917-6.4-4.15c-1.933-0.166-4.517,0.334-7.75,1.5c-9.9,4.2-17.316,7.334-22.25,9.4
		c-8.9,3.767-16.617,5.917-23.15,6.45c-6.133,0.533-11.316-0.233-15.55-2.3c-5.367-2.634-7.017-6.801-4.95-12.5
		c1.5-4.2,4.267-8.867,8.3-14c4.8-5.667,8.267-9.9,10.4-12.7c3.133-4.066,5.15-7.15,6.05-9.25c1.8-4.4,0.7-7.101-3.3-8.101
		l88.9-81.199c0.4-0.367,0.65-0.95,0.75-1.75c0.033-0.934,0.067-1.601,0.1-2l7.6-60.7c4.066,2.3,8.566,4.1,13.5,5.399
		c4.7,1.233,9.483,1.934,14.35,2.101c10.534,0.399,20.517-2.15,29.95-7.65c8.667-5.066,16.2-12.217,22.6-21.45
		c6.433-9.233,11.783-20.933,16.05-35.1c2.467-8.233,5.4-20.85,8.8-37.85c5.167-25.933,9.55-57.133,13.15-93.6
		c2.267-23.1,3.983-45.5,5.15-67.2c-0.067-1.767-0.1-3.283-0.1-4.55c0-2.367,0.25-3.783,0.75-4.25l105.8-95.85
		c0.6,2.267,1.416,4.716,2.45,7.35c2.399,6.167,5.416,11.733,9.05,16.7c3.899,5.4,8.35,9.85,13.35,13.35
		c7.5,5.267,16.217,8.083,26.15,8.45c7.566,0.233,16.8-1.017,27.7-3.75c10.633-2.533,22.366-6.117,35.199-10.75
		c8.267-3,19.7-7.483,34.301-13.45C524.316,14.783,542.217,6.833,555.85,0c-0.166,0.4-0.833,0.883-2,1.45
		c-1.199,0.566-1.933,0.933-2.199,1.1l-9.851,5.9c-7.934,4.833-14.816,9.1-20.649,12.8c-16.101,10.433-25.134,16.333-27.101,17.7
		c-10.2,7.033-18.6,13.8-25.2,20.3c-6.733,6.733-8.166,10.75-4.3,12.05c1.834,0.733,4.233,1.067,7.2,1
		c0.733-0.033,3.184-0.233,7.35-0.6c2.334-0.133,6.367-0.6,12.101-1.4c16.233-2.433,36.649-6.75,61.25-12.95
		c7.866-1.967,17.316-4.434,28.35-7.4l17.95-5.25c1.366-0.467,2.417-0.7,3.15-0.7c-0.867,0.2-1.917,0.65-3.15,1.35
		c-1.4,0.8-2.417,1.35-3.05,1.65c-2.634,1.3-6.584,3.317-11.851,6.05c-12.566,6.567-22.983,12.517-31.25,17.85
		c-6.1,3.934-10.1,6.633-12,8.1c-4.533,3.433-7.85,6.883-9.949,10.35c-1.934,3.167-1.667,5.717,0.8,7.65
		c1.866,1.467,4.7,2.45,8.5,2.95c13.366,1.833,28.767,3.15,46.2,3.95c7.633,0.333,23.066,0.767,46.3,1.3
		C652.316,105.7,672.15,105.95,691.95,105.95z"/>
	<path style="fill-rule:evenodd;clip-rule:evenodd;fill:#74A090;" d="M335.95,334.95c-6.167,14-13.333,27.333-21.5,40
		c-16.333,25.333-29.5,34.666-39.5,28c-10-6.667-2.833-20,21.5-40C308.617,352.95,321.783,343.616,335.95,334.95z"/>
	<path style="fill-rule:evenodd;clip-rule:evenodd;fill:#74A090;" d="M354.95,396.95l-4.65,14.7c-3.899,11.6-7.8,21.916-11.7,30.949
		c-12.5,28.834-22.717,39.284-30.65,31.351c-7.9-7.9-2.434-23.101,16.4-45.601C333.75,417.083,343.95,406.616,354.95,396.95z"/>
	<path style="fill-rule:evenodd;clip-rule:evenodd;fill:#74A090;" d="M400.95,474.95c-2.533,5.3-4.65,11.8-6.351,19.5
		c-1.6,7.5-2.517,13.684-2.75,18.55c-0.333,7.167,0.567,13.283,2.7,18.35c2.533,6.067,6.733,11.717,12.601,16.95
		c5.133,4.634,11.066,8.517,17.8,11.65c-9.367-1.9-18.95-5.65-28.75-11.25c-7.5-4.3-12.851-8.134-16.05-11.5
		c-5.067-5.267-7.2-11.101-6.4-17.5c0.967-7.601,4.316-15.7,10.05-24.3C388.033,489.1,393.75,482.283,400.95,474.95z"/>
	<path style="fill-rule:evenodd;clip-rule:evenodd;fill:#74A090;" d="M318.15,283.6c-6.2-6.833-10.7-15.167-13.5-25
		c-3.433-12.2-4-24.8-1.7-37.8c2.333-13.333,7.333-24.95,15-34.85c-1.967,11.367-2.733,22.933-2.3,34.7
		c0.467,11.934,2.15,23.367,5.05,34.3c5.333,19.966,12.75,33.633,22.25,41C333.683,295.684,325.417,291.566,318.15,283.6z"/>
	<g>
		<path style="fill-rule:evenodd;clip-rule:evenodd;fill:#74A090;" d="M546.475,4.475c-20.861,10.035-41.136,20.06-60.824,30.075
			c-18.434,9.367-31.334,16.034-38.7,20c-14.4,7.7-26.967,15.017-37.7,21.95c-5.1,3.3-8.316,5.483-9.65,6.55
			c-3.5,2.867-5.833,5.9-7,9.1c-2.666,7.333-3.199,16.6-1.6,27.8c0.066,0.533,0.483,2.367,1.25,5.5c0.6,2.966,0.616,4.55,0.05,4.75
			c-19.5,6.466-36.1,13.683-49.8,21.65c-16.9,9.833-30.65,21.417-41.25,34.75c-10.3,12.933-17,25.95-20.1,39.05
			c-3.133,13.267-1.816,27.7,3.95,43.3c3.167,8.5,7.217,16.466,12.15,23.899c5.267,7.867,11.167,14.567,17.7,20.101
			c-11.9,11.566-24.067,24.2-36.5,37.899c-11.2,12.434-20.2,23.233-27,32.4c-4.267,5.667-7.4,10.1-9.4,13.3
			c-3.267,5.233-5.6,10.117-7,14.65c-2.167,7,0.2,12.55,7.1,16.649c4.767,2.834,11.367,4.851,19.8,6.051
			c13.066,1.866,27.4,1.883,43,0.05c-10.167,9.633-17.583,19.5-22.25,29.6c-6.3,13.667-5.883,25.134,1.25,34.4
			c6.033,7.899,17.05,10.217,33.05,6.95c6.333-1.301,13-3.301,20-6c5.733-2.233,12.1-5.101,19.1-8.601
			c6.467-3.267,12.084-6.383,16.851-9.35c-8.8,10.899-14.584,22.05-17.351,33.45c-3.533,14.699-0.366,25.833,9.5,33.399
			c5.233,4.033,12.084,7.467,20.551,10.3c4.6,1.567,12.033,3.551,22.3,5.95c15.2,3.566,33.866,6.8,56,9.7
			c4.86,0.603,9.035,1.119,12.524,1.55l5.575,0.601c-0.182,0.037-0.365,0.07-0.55,0.1l-1.125,0.2c-2.67,0.475-5.678,0.808-9.025,1
			c-1.966,0.1-5.55,0.184-10.75,0.25c-6.699,0.1-16.75,0.017-30.149-0.25c-16.334-0.4-26.134-0.634-29.4-0.7
			c-6.434-0.134-11.8-0.483-16.1-1.05c-6-0.8-11.2-2.134-15.601-4c-6.233-2.601-12.666-6.816-19.3-12.65
			c-4.3-3.8-9.733-9.3-16.3-16.5l-3.45-3.899c-0.267-0.301-0.583-0.384-0.95-0.25c-0.5,0.3-0.883,0.517-1.15,0.649L306,548.95
			c-0.133,0.066-0.833-0.617-2.1-2.05l-37.95-37.95l-22,30l-9-69l-35,28l20-57.95c-11.867,4.866-22.034,6.816-30.5,5.85
			c-3.434-0.399-6.383-1.399-8.85-3c-2.833-1.8-4.75-4.199-5.75-7.199c-0.867-2.5-0.317-5.767,1.65-9.801
			c2.267-4.566,5.617-9.333,10.05-14.3c2.633-2.934,6.767-7.066,12.4-12.399c8.533-8.101,19.167-17.134,31.9-27.101
			c8.467-6.633,16.5-12.666,24.1-18.1l-22,5l58-50c-11.167-3.334-20.317-10.384-27.45-21.15c-6.6-9.933-10.283-21.017-11.05-33.25
			c-0.8-13.4-0.233-28.7,1.7-45.9c1.1-9.566,3.367-24.733,6.8-45.5c2.267-13.667,4.6-26.4,7-38.2c1.667,6.767,3.1,12.867,4.3,18.3
			c1.1,4.9,2.05,9.6,2.85,14.1c0.367,1.9,0.667,3.8,0.9,5.7c0.033,0.5-0.017,1.383-0.15,2.65c-0.156,1.094-0.198,1.877-0.125,2.35
			c-0.084-0.677,0.224-1.843,0.925-3.5c0.9-1.833,1.45-3.017,1.65-3.55c0.5-1.3,1.85-4.733,4.05-10.3l5.6-13.75
			c14.3,6.733,27.183,10.466,38.65,11.2c16.3,1.067,26.933-4.517,31.9-16.75c8.066-19.767,3.217-44.233-14.55-73.4
			c17.899,7,34.8,9.317,50.7,6.95c12.5-1.833,25.883-4.817,40.149-8.95c-7.866,1.733-16.2,2.833-25,3.3
			c-7.6,0.367-14.017,0.2-19.25-0.5c-7.233-1-13.233-3.083-18-6.25c-6.5-4.333-11.35-11.283-14.55-20.85
			c-2.6-7.7-3.95-16.284-4.05-25.75c2.899,11.5,8.333,21.433,16.3,29.8c8.533,8.967,18.366,14.283,29.5,15.95
			c4.634,0.7,9.866,0.667,15.7-0.1c4-0.533,9.166-1.567,15.5-3.1c10.2-2.5,21.75-6.033,34.649-10.6
			c19.434-6.833,41.634-15.816,66.601-26.95L546.475,4.475z"/>
		<path style="fill-rule:evenodd;clip-rule:evenodd;fill:#74A090;" d="M513.8,76.15c-7.366,2.3-11.95,3.684-13.75,4.15
			c-5.3,1.434-10,2.317-14.1,2.65c-5.334,0.466-9.566,0.566-12.7,0.3c-5.1-0.433-9.033-1.783-11.8-4.05
			c-1.9-1.567-2.667-3.617-2.3-6.15c0.333-2.433,1.55-4.35,3.649-5.75c-0.866,2.667,0.767,4.25,4.9,4.75
			c1.467,0.167,4.483,0.117,9.05-0.15c5.767-0.4,12.134-1.183,19.1-2.35c12.233-1.966,27.7-5.2,46.4-9.7
			c20.066-4.8,39.967-10.1,59.7-15.9c-14.767,5.966-31.101,12.216-49,18.75C537.65,68.3,524.6,72.783,513.8,76.15z"/>
		<path style="fill-rule:evenodd;clip-rule:evenodd;fill:#74A090;" d="M547.425,118.1c10.605,3.609,15.531,16.042,14.775,37.3
			c-0.367,10.3-1.783,20.483-4.25,30.55c0.7-12.567-0.7-24.4-4.2-35.5c-3.167-10-7.85-17.383-14.05-22.15
			c-4.367-3.4-9.45-5.45-15.25-6.15c-5.9-0.733-11.316,0.067-16.25,2.4c5.166-4.433,11.316-7.183,18.45-8.25
			c6.666-1,13.433-0.45,20.3,1.65L547.425,118.1z"/>
		<path style="fill-rule:evenodd;clip-rule:evenodd;fill:#74A090;" d="M403.4,174.1c-2.2-2.267-3.884-4.15-5.051-5.65
			c-0.333-0.4-0.399-0.983-0.199-1.75c0.333-0.867,0.55-1.5,0.649-1.9l5.15-19.85c1.066,5.6,3.816,11.566,8.25,17.9
			c2.822,4.059,6.806,8.809,11.95,14.25l0.8,0.85c5.2,5.466,11.35,9.167,18.45,11.1c7.166,1.967,14.316,1.85,21.449-0.35
			c-4.833,4.033-10.966,6.083-18.399,6.15c-6.367,0.033-12.816-1.333-19.351-4.1C418.733,187.217,410.833,181.667,403.4,174.1z"/>
		<path style="fill-rule:evenodd;clip-rule:evenodd;fill:#668D7F;" d="M434.8,56c-13.333,3.833-26.033,6.717-38.1,8.65
			c-4.7,0.733-8.566,1.2-11.601,1.4c-4.3,0.3-8.199,0.2-11.699-0.3c-9.367-1.3-18.867-3.767-28.5-7.4
			c-0.257-0.098-0.524-0.14-0.8-0.125c7.652,12.123,12.918,23.831,15.8,35.125c3.633,14.233,3.166,26.917-1.4,38.05
			c-4.967,12.233-15.6,17.817-31.9,16.75c-11.467-0.733-24.35-4.467-38.65-11.2c-1.333,3.267-3.367,8.183-6.1,14.75
			c-2.333,5.733-4.217,10.683-5.65,14.85c0.1-3.267-0.333-7.183-1.3-11.75c-1.2-5.2-2.083-9.05-2.65-11.55
			c-1.2-5.433-2.633-11.533-4.3-18.3c-4.034,19.733-7.5,39.833-10.4,60.3c-2.667,18.333-4.333,34.333-5,48
			c-0.433,8.267-0.5,15-0.2,20.2c0.467,7.433,1.7,14.033,3.7,19.8c2.867,8.267,7.317,15.583,13.35,21.95
			c6.4,6.8,13.583,11.383,21.55,13.75l-58,50l22-5c-15.833,11.233-30.934,23.066-45.3,35.5c-6.1,5.333-10.967,9.783-14.6,13.35
			c-5.2,5.101-9.6,10-13.2,14.7c-3.434,4.566-5.617,8.333-6.55,11.3c-1.4,4.601-0.533,8.566,2.6,11.9
			c4.4,4.7,11.233,6.517,20.5,5.45c6.3-0.767,13.483-2.817,21.55-6.15l-20,57.95l35-28l9,69l22-30l39.95,40
			c0.4,0.366,4.167-1.351,11.3-5.15l8.45-3.85c0.833-0.467,1.533-0.867,2.1-1.2c1.133-0.6,1.867-0.866,2.2-0.8
			c0.233,0.066,0.583,0.416,1.05,1.05c0.267,0.333,0.567,0.75,0.9,1.25c1.9,2.167,3.85,4.267,5.85,6.3
			c6.267,6.533,12.217,12,17.85,16.4c3.367,2.6,6.25,4.6,8.65,6c3.172,1.866,6.197,3.149,9.075,3.85l-0.351-0.075l0.851,0.2h0.024
			c0.033,0.01,0.066,0.018,0.101,0.025l12.7,2.75c-9.9-1.033-19.75-3.367-29.551-7c-3.333-1.367-5.883-2.351-7.649-2.95
			c-3.033-1.033-5.684-1.517-7.95-1.45c-2.867,0.066-6.267,0.4-10.2,1c-4.5,0.8-7.867,1.384-10.1,1.75
			c-13.167,2.267-23.667,3.884-31.5,4.851c-14.1,1.733-26.167,2.633-36.2,2.699c-13.367,0.067-25.367-1.233-36-3.899
			c-6.167-1.533-12.467-4.05-18.9-7.55c-4.1-2.233-9.85-5.834-17.25-10.801c-4.867-3.3-9.283-5.383-13.25-6.25
			c-2.667-0.566-5.7-0.517-9.1,0.15c-2.233,0.434-5.167,1.3-8.8,2.6c-5.733,2.067-12.967,5.334-21.7,9.801
			c-11.233,5.733-18.333,9.267-21.3,10.6c-3.5,1.6-5.817,2.583-6.95,2.95c-2.867,0.899-5.317,1.066-7.35,0.5
			c-1.7-0.467-3-1.3-3.9-2.5c-0.767-1.101-1.267-2.584-1.5-4.45c-0.3-2.6-0.7-4.583-1.2-5.95c-0.7-2.033-1.8-3.717-3.3-5.05
			c-1.733-1.533-4.05-2.083-6.95-1.65c-1.5,0.233-3.883,0.983-7.15,2.25c-2.566,1-6.183,2.551-10.85,4.65
			c-4.9,2.233-8.483,3.8-10.75,4.7c-8.9,3.533-16.716,5.533-23.45,6c-9.967,0.7-17.033-2.017-21.2-8.15
			c-5.9-8.6-1.933-21.483,11.9-38.649c2.133-2.601,4.733-5.367,7.8-8.301c1.367-1.333,4.15-3.899,8.35-7.699l77.65-70.95
			c2.066-1.601,3.617-2.867,4.65-3.8c1.9-1.7,2.95-3.301,3.15-4.801l7.8-62.399c9.033,5.1,18.917,7.616,29.65,7.55
			c10.867-0.066,20.65-2.783,29.35-8.15c11.3-6.966,20.5-17.55,27.6-31.75c4.934-9.866,9.534-23.316,13.8-40.35
			c6.3-25.267,11.333-53.583,15.1-84.95c2.733-22.9,5.2-51.583,7.4-86.05l1.05-18.6c0.033-1.167,0.517-2.2,1.45-3.1
			c0.533-0.533,1.5-1.35,2.9-2.45l101.7-92.15c0.1,9.3,1.399,17.733,3.899,25.3c3.067,9.4,7.717,16.333,13.95,20.8
			c4.601,3.3,10.517,5.5,17.75,6.6c5.2,0.767,11.584,1,19.15,0.7C417.967,58.917,426.667,57.8,434.8,56z M345.45,65.2
			c-0.066-0.367-0.367-1.567-0.9-3.6c-0.363-1.393-0.563-2.509-0.6-3.35c-0.427,0.059-0.877,0.259-1.35,0.6
			c-0.9,0.833-1.583,1.417-2.05,1.75l-58.6,45.35c5.167,5.4,10.983,10.6,17.45,15.6c6.4,4.9,12,8.6,16.8,11.1
			c6.8,3.5,13.183,5.3,19.15,5.4c7.066,0.167,11.667-4.183,13.8-13.05c1.166-4.867,1.55-12.083,1.149-21.65
			c-0.3-7.5-1.233-16.367-2.8-26.6c-0.333-2.567-0.6-4.517-0.8-5.85C346.366,68.567,345.95,66.667,345.45,65.2z"/>
		<path style="fill-rule:evenodd;clip-rule:evenodd;fill:#668D7F;" d="M442.375,93.7c0.1-0.041,0.199-0.083,0.3-0.125
			c6.271-2.519,12.779-2.527,19.525-0.025c6.666,2.467,12.1,6.767,16.3,12.9c4.1,6,6.3,13.333,6.6,22
			c0.233,7.167-0.833,14.883-3.199,23.15c-1.934,6.867-4.967,12.833-9.101,17.9c-4.566,5.533-10,9.35-16.3,11.45
			c-4.9,1.6-9.816,1.45-14.75-0.45c-4.733-1.867-8.616-4.967-11.65-9.3c5.167,3.8,10.983,5.35,17.45,4.65
			c6.434-0.7,11.75-3.434,15.95-8.2c3.267-3.733,5.783-8.316,7.55-13.75c1.533-4.8,2.4-10,2.601-15.6
			c0.466-11.3-1.817-21.283-6.851-29.95c-5.967-10.233-14.333-15.017-25.1-14.35L442.375,93.7z"/>
	</g>
	<path style="fill-rule:evenodd;clip-rule:evenodd;fill:#A1C6BA;" d="M624.75,111.3c-3.267,0.167-5.733,0.3-7.4,0.4
		c-2.866,0.233-5.283,0.633-7.25,1.2c-3.166,1-6.583,2.533-10.25,4.6c-9.833,5.433-20.466,13.25-31.899,23.45
		c-0.3-5,0.366-10.233,2-15.7c0.967-3.167,1.833-5.5,2.6-7c1.334-2.467,3-4.217,5-5.25c3.334-1.7,7.55-2.9,12.65-3.6
		c2.533-0.367,6.934-0.717,13.2-1.05c13.899-0.767,29.416-0.567,46.55,0.6C642.95,109.717,634.55,110.5,624.75,111.3z"/>
	<path style="fill-rule:evenodd;clip-rule:evenodd;fill:#A1C6BA;" d="M517.3,88.35c-3.333,2.9-5.033,4.367-5.1,4.4
		c-1.9,1.733-3.467,3.317-4.7,4.75c-1.333,1.533-1.65,3.017-0.95,4.45c1.3,2.533,4.351,4.5,9.15,5.9c2.2,0.6,5.95,1.3,11.25,2.1
		c-8.101,0.767-15.45,0.633-22.05-0.4c-4.101-0.7-7.434-1.883-10-3.55c-3.667-2.4-4.267-5.2-1.801-8.4
		c2.2-2.867,5.534-5.583,10-8.15c1.9-1.1,5.784-3.017,11.65-5.75c5.3-2.434,10.7-4.684,16.2-6.75
		C526.316,80.65,521.767,84.45,517.3,88.35z"/>
	<path style="fill-rule:evenodd;clip-rule:evenodd;fill:#A1C6BA;" d="M439,69.3c-8.267,6.767-12.733,10.45-13.4,11.05
		c-5.033,4.467-8.8,8.8-11.3,13c-3.066,5.167-5.399,11.066-7,17.7c-1.5,6.067-2.283,12.367-2.35,18.9
		c-2.533-4.667-4.25-9.784-5.15-15.35c-0.967-5.767-0.883-11.133,0.25-16.1c0.767-3.333,2.884-6.75,6.351-10.25
		c1.899-1.933,5.033-4.567,9.399-7.9c10.5-7.967,23.55-15.767,39.15-23.4C449.45,60.983,444.134,65.1,439,69.3z"/>
	<polygon style="fill-rule:evenodd;clip-rule:evenodd;fill:#A1C6BA;" points="350.95,285.95 363.95,288.95 341.95,353.95 	"/>
	<path style="fill-rule:evenodd;clip-rule:evenodd;fill:#A1C6BA;" d="M371.1,369.5c1.634,0.267,2.551,0.6,2.75,1
		c0.067,0.134,0.101,1.15,0.101,3.05c-0.134,6.467-0.267,11.316-0.4,14.55c-0.7,17.434-2,32.434-3.899,45
		c-1.301,8.867-2.65,15.567-4.051,20.101c-2.233,7.366-5.449,13.283-9.649,17.75c-4.167,4.434-9.184,7.899-15.05,10.399
		c-5.933,2.534-11.917,3.733-17.95,3.601c8.966-6,16.566-13.45,22.8-22.351c6.333-9.133,10.616-18.85,12.85-29.149
		c3.867-18.3,4.983-40.134,3.351-65.5L371.1,369.5z"/>
	<path style="fill-rule:evenodd;clip-rule:evenodd;fill:#A1C6BA;" d="M406.35,450.55c0.4,0.101,1.367,0.267,2.9,0.5
		c1.434,0.267,2.333,0.566,2.7,0.9c0.5,0.533,0.85,2.2,1.05,5l16.8,80.2c0.167,0.8,0.767,1.616,1.8,2.449
		c0.567,0.467,1.4,1.101,2.5,1.9l23.851,20.45l-36.7-19.8c-0.366-0.2-0.65-0.817-0.85-1.851c-0.134-1.166-0.233-1.899-0.301-2.2
		L399.95,448.95L406.35,450.55z"/>
</g>
</svg>
