<?xml version="1.0" encoding="iso-8859-1"?>
<!-- Generator: Adobe Illustrator 15.1.0, SVG Export Plug-In . SVG Version: 6.00 Build 0)  -->
<!DOCTYPE svg PUBLIC "-//W3C//DTD SVG 1.1//EN" "http://www.w3.org/Graphics/SVG/1.1/DTD/svg11.dtd">
<svg version="1.1" id="buildings-mid" xmlns="http://www.w3.org/2000/svg" xmlns:xlink="http://www.w3.org/1999/xlink" x="0px"
	 y="0px" width="284.75px" height="256.15px" viewBox="0 0 284.75 256.15" style="enable-background:new 0 0 284.75 256.15;"
	 xml:space="preserve">
<symbol  id="FlashAICB_x2F_buildings-mid_x2F__x3C_Path_x3E__x5F_6" viewBox="0.046 -20.592 129.472 20.665">
	<g id="Layer_1_2_">
		<path style="fill-rule:evenodd;clip-rule:evenodd;fill:#373535;" d="M117.3-4.35c9.233-2.066,13.233-4.517,12-7.35
			c-1.1-2.533-7.9-4.483-20.4-5.85c-5.933-0.633-18.967-1.517-39.1-2.65c-16.433-0.933-32.417-0.2-47.95,2.2
			c-14.333,2.2-21.6,4.55-21.8,7.05c-0.233,2.967,9.067,5.7,27.9,8.2C46.583-0.283,63.867,0.567,79.8-0.2
			C95.9-0.967,108.4-2.35,117.3-4.35z"/>
	</g>
</symbol>
<g>
	<g>
		
			<use xlink:href="#FlashAICB_x2F_buildings-mid_x2F__x3C_Path_x3E__x5F_6"  width="129.472" height="20.665" x="0.046" y="-20.592" transform="matrix(1 0 0 -1 46.5498 235.5498)" style="overflow:visible;opacity:0.3984;enable-background:new    ;"/>
		<path style="fill-rule:evenodd;clip-rule:evenodd;fill:#AAB9B6;" d="M255,60.25l1.05,5.05c0.733,4.5,1.267,9.567,1.601,15.2
			c1,18-0.384,38.25-4.15,60.75c-2.066,12.5-7.833,25.184-17.3,38.05c-7.634,10.334-18.167,21.4-31.601,33.2
			c-13.666,12-26.3,21-37.899,27c-15.033,7.8-30.6,12.05-46.7,12.75c-4.467,0.2-9.833-0.583-16.1-2.35
			c-7.467-2.067-12.233-3.2-14.3-3.4c-19.533-2-36.317-5.884-50.35-11.65c-4.4-1.833-8.267-3.733-11.6-5.699l-3.65-2.4l-24-10.5
			l10.5-9c9.2,1.833,20.533,3.083,34,3.75c26.933,1.3,51.017-1.033,72.25-7c8.033-2.267,16.733-6.434,26.1-12.5
			c4.5-2.9,12.384-8.65,23.65-17.25c14.634-11.2,24.884-19.384,30.75-24.55c10.7-9.434,18.75-18.334,24.15-26.7
			c8.699-13.467,15.366-28.4,20-44.8c2.333-8.167,3.783-15,4.35-20.5c2.233-5.567,8.816-24.217,19.75-55.95l18,15h-12L255,60.25z"/>
		<g>
			<path style="fill-rule:evenodd;clip-rule:evenodd;fill:#919E9C;" d="M252.65,83c-0.267-10.2-0.9-18.867-1.9-26l5.35,0.25l-1.1,3
				l1.05,5.05c0.733,4.5,1.267,9.567,1.601,15.2c1,18-0.384,38.25-4.15,60.75c-1.733,10.3-5.033,20.5-9.9,30.6
				c-4.866,10.067-11.066,19.567-18.6,28.5c-1.866,2.2-4.733,4.733-8.6,7.601c-5.134,3.8-8.233,6.149-9.301,7.05
				c-1.166,1-3.449,3.366-6.85,7.1c-2.733,3-5.184,5.2-7.35,6.601c-10.634,6.967-21.95,12.434-33.95,16.399
				c-12.634,4.167-25.617,6.551-38.95,7.15c-5.6,0.233-11.65-0.083-18.15-0.95c-7.067-1.1-12.317-1.866-15.75-2.3
				c-8.8-1-15.15-1.8-19.05-2.4c-6.633-0.966-11.8-2.149-15.5-3.55c-8.133-3.066-15.167-6.7-21.1-10.899l-6.45-5.4l-12.75-5.6
				l-0.5-2.801l9.85-2.85l2.2,2c1.967,1.634,4.267,3.233,6.9,4.8c8.333,4.967,18.25,8.601,29.75,10.9c1,0.2,4.917,1.399,11.75,3.6
				c5.367,1.733,9.833,2.634,13.4,2.7c3.033,0.066,7.25-0.616,12.65-2.05c6.567-1.7,11.283-2.733,14.15-3.101
				c15.267-1.866,29.9-5.199,43.9-10c13.334-4.566,25.667-10.316,37-17.25c1.134-0.699,2.717-2.199,4.75-4.5
				c2.101-2.399,3.617-3.933,4.55-4.6c1.233-0.866,3.2-1.85,5.9-2.95c2.434-0.967,4.283-2.017,5.55-3.149
				c10.367-9.067,18.55-18.784,24.55-29.15c0.567-1,1.801-2.616,3.7-4.85c1.667-2,2.767-3.634,3.3-4.9
				c0.767-1.934,1.4-4.634,1.9-8.1c0.6-4.4,1.05-7.217,1.35-8.45C251.583,121.217,253.184,103.4,252.65,83z"/>
			<path style="fill-rule:evenodd;clip-rule:evenodd;fill:#C1CAC8;" d="M245.75,57.7l1.8-4.8l2.55,0.8L248.4,62
				c-1.801,7.467-4.284,16.05-7.45,25.75c-0.334,1.033-0.733,3.517-1.2,7.45c-0.434,3.867-0.884,6.466-1.35,7.8
				c-0.967,2.8-2.717,6.05-5.25,9.75c-3.434,4.967-5.801,8.667-7.101,11.1c-8.934,16.7-20.05,31.733-33.35,45.1
				c-0.733,0.733-1.533,2.033-2.4,3.899c-0.833,1.767-1.684,3.051-2.55,3.851c-0.733,0.666-2.217,1.5-4.45,2.5
				c-2.333,1.033-3.866,1.85-4.6,2.45c-12,9.8-24.867,17.816-38.6,24.05c-14.5,6.533-30.4,10.666-47.7,12.399
				c-2.467,0.267-5.633,0.067-9.5-0.6c-4.367-0.767-7.417-1.15-9.15-1.15c-2.2,0-6,0.367-11.4,1.101
				c-4.767,0.633-8.317,0.833-10.65,0.6c-8.167-0.767-16.55-2-25.15-3.7c-6.933-1.333-10.417-2-10.45-2l5.45-4.35
				c22.534,1,44.15-0.083,64.85-3.25c1.367-0.2,5.95-0.7,13.75-1.5c5.8-0.566,10.45-1.316,13.95-2.25
				c2.733-0.733,6.117-2.1,10.15-4.1c5.133-2.567,8.467-4.15,10-4.75c12.2-4.9,22.95-10.867,32.25-17.9
				c13.6-10.434,26.1-23.083,37.5-37.95c1.134-1.5,3.434-3.767,6.9-6.8c3.233-2.867,5.399-5.133,6.5-6.8
				c1.466-2.2,2.833-5.333,4.1-9.4c1.434-4.466,2.6-7.517,3.5-9.15c6.033-10.767,11.3-21.733,15.8-32.9
				C243.066,65.65,244.717,61.133,245.75,57.7z"/>
		</g>
		<polygon style="fill-rule:evenodd;clip-rule:evenodd;fill:#51625F;" points="255,60.25 253.75,62.7 252.75,59.7 250.75,63 
			249.75,59.7 246.4,64.7 245.75,57.7 266.1,0 284.75,18 271.5,16.75 		"/>
		<polygon style="fill-rule:evenodd;clip-rule:evenodd;fill:#51625F;" points="29.6,221.5 20.6,222 24,226.75 0,216.25 10.5,207.25 
			25.1,208 19.6,210.5 25.6,213.5 20.6,215.5 		"/>
		<g>
			<path style="fill-rule:evenodd;clip-rule:evenodd;fill:#414F4D;" d="M24,226.75l-24-10.5l10.5-9L9,209.6
				c-0.9,1.834-1.2,3.351-0.9,4.551c0.3,1.199,3.983,2.783,11.05,4.75c3.5,1,6.983,1.866,10.45,2.6l-9,0.5L24,226.75z"/>
		</g>
		<g>
			<path style="fill-rule:evenodd;clip-rule:evenodd;fill:#414F4D;" d="M260.45,34.75c3.033-8.433,6.017-16.683,8.95-24.75l15.35,8
				l-13.25-1.25L255,60.25l-1.25,2.45l-1-3l-2,3.3C251.184,61.067,254.417,51.65,260.45,34.75z"/>
		</g>
		<path style="fill-rule:evenodd;clip-rule:evenodd;fill:#D4DAD9;" d="M241.75,75l-2.45,11.7c-2.033,8.667-4.1,15.216-6.2,19.65
			c-2.066,4.433-4.8,8.867-8.199,13.3l-4.5,5.35c0.899-2.767,1.916-5.75,3.05-8.95c2.3-6.367,4.066-10.6,5.3-12.7
			C230.75,100.017,235.083,90.567,241.75,75z"/>
		<path style="fill-rule:evenodd;clip-rule:evenodd;fill:#D4DAD9;" d="M184.1,163.7c-0.6,2.434-1.783,5.133-3.55,8.1
			c-3.5,5.967-8.1,10.267-13.8,12.9c-5.7,2.633-13.967,5.633-24.8,9L127.4,198c10.667-4.2,20.45-8.634,29.35-13.3
			c5.533-2.9,11.75-7.267,18.65-13.101C178.866,168.667,181.767,166.033,184.1,163.7z"/>
		<path style="fill-rule:evenodd;clip-rule:evenodd;fill:#7B8987;" d="M235.1,176c3.334-5,6-9.5,8-13.5
			c-2.233,4.934-4.767,10.116-7.6,15.55c-5.667,10.934-9.967,17.75-12.9,20.45c-1.6,1.5-5.166,4.6-10.699,9.3
			c-4.167,3.566-7.101,6.3-8.801,8.2c-9.399,10.467-20.899,18.134-34.5,23c-9.1,3.267-19.35,6.116-30.75,8.55
			c-10.434,2.233-17.184,3.217-20.25,2.95c-2.133-0.2-6.9-0.8-14.3-1.8c-9.233-1.267-14.633-2-16.2-2.2
			c-6.667-0.833-13.133-1.767-19.4-2.8c-9.5-1.533-16.034-2.934-19.6-4.2c-4.167-1.467-8.75-3.65-13.75-6.55L28.1,229l-3-6l7.5,2.5
			l14.65,6.95c11,4.733,19.617,7.416,25.85,8.05c7.5,0.767,14.217,1.15,20.15,1.15c5.9,0,10.35-0.384,13.35-1.15
			c2-0.5,13.917-3.417,35.75-8.75c21.167-5.2,32.584-8.116,34.25-8.75c3.034-1.134,13.7-7.8,32-20
			c4.267-2.833,9.184-7.15,14.75-12.95C228.483,184.717,232.4,180.033,235.1,176z"/>
	</g>
	<path style="fill-rule:evenodd;clip-rule:evenodd;fill:#7B8987;" d="M227.65,144c1.833,0.366,2.517,2.25,2.05,5.65
		c-0.5,3.433-2.066,5-4.7,4.699c-1.333-0.166-2.3-0.85-2.9-2.05c-0.533-1.133-0.666-2.416-0.399-3.85
		C222.434,144.85,224.417,143.366,227.65,144z"/>
	<path style="fill-rule:evenodd;clip-rule:evenodd;fill:#7B8987;" d="M178.65,190.7c1.833,0.366,2.566,1.916,2.199,4.649
		c-0.366,2.767-1.866,3.983-4.5,3.65c-1.333-0.167-2.333-0.75-3-1.75c-0.566-0.934-0.733-1.983-0.5-3.15
		C173.483,191.167,175.417,190.033,178.65,190.7z"/>
	<path style="fill-rule:evenodd;clip-rule:evenodd;fill:#7B8987;" d="M64,220c1.833,0.366,2.667,1.866,2.5,4.5
		c-0.133,2.667-1.517,3.833-4.15,3.5c-1.333-0.167-2.367-0.733-3.1-1.7c-0.633-0.899-0.867-1.916-0.7-3.05
		C58.95,220.45,60.767,219.366,64,220z"/>
	<path style="fill-rule:evenodd;clip-rule:evenodd;fill:#7B8987;" d="M133,215.95c1.3,0.166,1.9,0.866,1.8,2.1
		c-0.066,1.267-0.767,1.816-2.1,1.65c-1.267-0.134-1.8-0.834-1.6-2.101C131.3,216.333,131.933,215.783,133,215.95z"/>
	<path style="fill-rule:evenodd;clip-rule:evenodd;fill:#7B8987;" d="M215.65,172.6c1.3,0.167,1.899,0.884,1.8,2.15
		c-0.066,1.267-0.767,1.816-2.101,1.65c-1.233-0.134-1.75-0.834-1.55-2.101C214,173,214.616,172.434,215.65,172.6z"/>
	<path style="fill-rule:evenodd;clip-rule:evenodd;fill:#7B8987;" d="M249,90.25c1.3,0.2,1.9,0.917,1.8,2.15
		c-0.066,1.267-0.767,1.817-2.1,1.65c-1.267-0.133-1.8-0.833-1.601-2.1C247.3,90.683,247.934,90.117,249,90.25z"/>
	<path style="fill-rule:evenodd;clip-rule:evenodd;fill:#7B8987;" d="M88,232.6c1.3,0.167,1.9,0.884,1.8,2.15
		c-0.066,1.267-0.767,1.816-2.1,1.65c-1.267-0.134-1.8-0.834-1.6-2.101C86.3,233,86.933,232.434,88,232.6z"/>
	<path style="fill-rule:evenodd;clip-rule:evenodd;fill:#7B8987;" d="M156.55,214.3c0.767,0.134,1.101,0.7,1,1.7
		c-0.066,1.033-0.633,1.483-1.7,1.35c-1.066-0.1-1.399-0.649-1-1.649C155.217,214.667,155.783,214.2,156.55,214.3z"/>
	<path style="fill-rule:evenodd;clip-rule:evenodd;fill:#7B8987;" d="M37.9,218.65c0.733,0.133,1.067,0.699,1,1.699
		c-0.066,1.034-0.633,1.483-1.7,1.351c-1.067-0.101-1.4-0.667-1-1.7C36.567,218.967,37.133,218.517,37.9,218.65z"/>
	<path style="fill-rule:evenodd;clip-rule:evenodd;fill:#7B8987;" d="M101.9,218c0.767,0.1,1.1,0.667,1,1.7
		c-0.066,1-0.633,1.45-1.7,1.35c-1.067-0.1-1.4-0.666-1-1.7C100.567,218.316,101.133,217.866,101.9,218z"/>
	<path style="fill-rule:evenodd;clip-rule:evenodd;fill:#7B8987;" d="M116.9,226.3c0.733,0.134,1.067,0.7,1,1.7
		c-0.066,1.033-0.633,1.483-1.7,1.35c-1.067-0.1-1.4-0.649-1-1.649C115.567,226.667,116.133,226.2,116.9,226.3z"/>
	<path style="fill-rule:evenodd;clip-rule:evenodd;fill:#7B8987;" d="M162.2,199c0.366-1.033,0.934-1.483,1.7-1.35
		c0.733,0.133,1.066,0.699,1,1.699c-0.067,1.034-0.634,1.483-1.7,1.351C162.134,200.6,161.8,200.033,162.2,199z"/>
	<path style="fill-rule:evenodd;clip-rule:evenodd;fill:#7B8987;" d="M183.35,204.65c0.767,0.1,1.101,0.666,1,1.699
		c-0.066,1-0.633,1.45-1.699,1.351c-1.067-0.101-1.4-0.667-1-1.7C182.017,204.967,182.583,204.517,183.35,204.65z"/>
	<path style="fill-rule:evenodd;clip-rule:evenodd;fill:#7B8987;" d="M188.7,183.3c0.767,0.101,1.1,0.667,1,1.7
		c-0.066,1-0.634,1.45-1.7,1.35c-1.066-0.133-1.417-0.699-1.05-1.699C187.316,183.616,187.9,183.167,188.7,183.3z"/>
	<path style="fill-rule:evenodd;clip-rule:evenodd;fill:#7B8987;" d="M248,114.65c0.767,0.1,1.116,0.667,1.05,1.7
		c-0.066,1-0.633,1.45-1.7,1.35c-1.066-0.1-1.416-0.667-1.05-1.7C246.667,114.967,247.233,114.517,248,114.65z"/>
	<path style="fill-rule:evenodd;clip-rule:evenodd;fill:#7B8987;" d="M239,145.7c0.767,0.1,1.116,0.666,1.05,1.7
		c-0.066,1-0.633,1.449-1.7,1.35c-1.066-0.1-1.416-0.667-1.05-1.7C237.667,146.017,238.233,145.566,239,145.7z"/>
	<path style="fill-rule:evenodd;clip-rule:evenodd;fill:#7B8987;" d="M231.35,127.35c0.767,0.1,1.101,0.667,1,1.7
		c-0.066,1-0.633,1.45-1.699,1.351c-1.067-0.101-1.4-0.667-1-1.7C230.017,127.667,230.583,127.217,231.35,127.35z"/>
	<path style="fill-rule:evenodd;clip-rule:evenodd;fill:#7B8987;" d="M208,156.7c0.767,0.1,1.116,0.666,1.05,1.7
		c-0.066,1-0.633,1.449-1.7,1.35c-1.066-0.1-1.416-0.667-1.05-1.7C206.667,157.017,207.233,156.566,208,156.7z"/>
	<path style="fill-rule:evenodd;clip-rule:evenodd;fill:#7B8987;" d="M249.35,73.35c0.767,0.1,1.101,0.667,1,1.7
		c-0.066,1-0.633,1.45-1.699,1.35c-1.067-0.1-1.4-0.667-1-1.7C248.017,73.667,248.583,73.217,249.35,73.35z"/>
	<path style="fill-rule:evenodd;clip-rule:evenodd;fill:#7B8987;" d="M241.65,110.7c0.767,0.1,1.116,0.667,1.05,1.7
		c-0.066,1-0.634,1.45-1.7,1.35s-1.417-0.667-1.05-1.7C240.316,111.017,240.884,110.567,241.65,110.7z"/>
	<path style="fill-rule:evenodd;clip-rule:evenodd;fill:#AAB9B6;" d="M193.35,153.7c2.067,0.133,2.851,1.1,2.351,2.899
		c-0.5,1.801-1.617,2.601-3.351,2.4c-1.8-0.167-2.633-1.134-2.5-2.9C189.95,154.333,191.116,153.533,193.35,153.7z"/>
	<path style="fill-rule:evenodd;clip-rule:evenodd;fill:#AAB9B6;" d="M210,134.7c1.1-0.434,1.65,0.6,1.65,3.1
		c0,2.4-0.767,3.367-2.301,2.9c-1.5-0.434-2.017-1.483-1.55-3.15C208.233,136.05,208.967,135.1,210,134.7z"/>
	<path style="fill-rule:evenodd;clip-rule:evenodd;fill:#AAB9B6;" d="M52,210.35c0.8,0.634,0.967,1.517,0.5,2.65
		c-0.5,1.2-1.45,1.65-2.85,1.35c-1.433-0.3-1.617-1.216-0.55-2.75C50.167,210.066,51.133,209.65,52,210.35z"/>
	<path style="fill-rule:evenodd;clip-rule:evenodd;fill:#AAB9B6;" d="M29.65,209.35c0.8,0,1.4,0.65,1.8,1.95
		c0.367,1.3,0,1.867-1.1,1.7c-1.167-0.134-1.867-0.783-2.1-1.95C28.05,209.917,28.517,209.35,29.65,209.35z"/>
	<path style="fill-rule:evenodd;clip-rule:evenodd;fill:#AAB9B6;" d="M97,210.35c1.433,0,1.833,0.784,1.2,2.351
		c-0.633,1.533-1.367,2.3-2.2,2.3c-0.8,0-1.183-0.767-1.15-2.3C94.917,211.134,95.633,210.35,97,210.35z"/>
	<path style="fill-rule:evenodd;clip-rule:evenodd;fill:#AAB9B6;" d="M126.65,202c1.667-0.333,2.617,0.25,2.85,1.75
		s-0.483,2.25-2.15,2.25c-1.667,0-2.617-0.583-2.85-1.75C124.3,203.083,125.017,202.333,126.65,202z"/>
	<path style="fill-rule:evenodd;clip-rule:evenodd;fill:#AAB9B6;" d="M70,208.7c1.567-0.2,2.283,0.2,2.15,1.2
		c-0.1,1.033-1.033,1.633-2.8,1.8c-1.767,0.133-2.45-0.283-2.05-1.25C67.7,209.45,68.6,208.866,70,208.7z"/>
	<path style="fill-rule:evenodd;clip-rule:evenodd;fill:#AAB9B6;" d="M111.65,204.35c0.7-0.166,1.233,0.367,1.6,1.601
		s-0.05,1.916-1.25,2.05c-1.433,0.2-2.317-0.233-2.65-1.3C109.017,205.6,109.783,204.816,111.65,204.35z"/>
	<path style="fill-rule:evenodd;clip-rule:evenodd;fill:#AAB9B6;" d="M186,169c0.934,0,1.566,0.733,1.9,2.2
		c0.366,1.5-0.15,2.333-1.551,2.5c-1.399,0.133-2.033-0.617-1.899-2.25C184.55,169.816,185.066,169,186,169z"/>
	<path style="fill-rule:evenodd;clip-rule:evenodd;fill:#AAB9B6;" d="M219.35,128.7l0.95,2.2c0.4,1.5-0.033,2.316-1.3,2.449
		c-1.467,0.167-2.116-0.649-1.95-2.449C217.217,129.066,217.983,128.333,219.35,128.7z"/>
	<path style="fill-rule:evenodd;clip-rule:evenodd;fill:#AAB9B6;" d="M140.65,198.7c0.833,0.133,1.167,0.717,1,1.75
		c-0.167,1.033-0.933,1.55-2.3,1.55c-1.434,0-1.833-0.6-1.2-1.8C138.75,199,139.583,198.5,140.65,198.7z"/>
	<path style="fill-rule:evenodd;clip-rule:evenodd;fill:#51625F;" d="M220.8,129.25l2.7,7.15c2.233,4.833,4.5,7.449,6.8,7.85
		c3.667,0.667,7.334,0.667,11,0c-1.866,0.533-3.833,1.316-5.899,2.35c-4.134,2.034-6.667,4.25-7.601,6.65
		c-0.533,1.366-0.783,3.934-0.75,7.7c0.033,1.899,0.117,3.666,0.25,5.3c-0.566-2.167-1.383-4.4-2.45-6.7
		c-2.066-4.566-4.25-7.166-6.55-7.8s-4.733-1.066-7.3-1.3l-3.2-0.2l5.2-2.3c3.566-1.934,5.667-3.834,6.3-5.7
		c0.634-1.866,1.066-4.6,1.3-8.2L220.8,129.25z"/>
	<path style="fill-rule:evenodd;clip-rule:evenodd;fill:#2C3332;" d="M222.9,142.5c1.6-0.366,2.916-0.05,3.949,0.95
		c0.934,0.866,1.5,2.033,1.7,3.5c0.167,1.5-0.1,2.8-0.8,3.899c-0.767,1.2-1.884,1.834-3.35,1.9c-3.067,0.134-4.801-1.384-5.2-4.55
		C218.833,145.033,220.066,143.134,222.9,142.5z"/>
	<path style="fill-rule:evenodd;clip-rule:evenodd;fill:#7B8987;" d="M223.4,143.5c-0.434,0.233-0.867,0.517-1.301,0.85
		c-0.866,0.667-1.3,1.267-1.3,1.801c0,0.833,0.117,1.866,0.351,3.1c-0.834-0.566-1.284-1.4-1.351-2.5
		c-0.066-0.767,0.351-1.5,1.25-2.2C221.884,143.85,222.667,143.5,223.4,143.5z"/>
</g>
</svg>
