<?xml version="1.0" encoding="iso-8859-1"?>
<!-- Generator: Adobe Illustrator 15.1.0, SVG Export Plug-In . SVG Version: 6.00 Build 0)  -->
<!DOCTYPE svg PUBLIC "-//W3C//DTD SVG 1.1//EN" "http://www.w3.org/Graphics/SVG/1.1/DTD/svg11.dtd">
<svg version="1.1" id="buildings-back" xmlns="http://www.w3.org/2000/svg" xmlns:xlink="http://www.w3.org/1999/xlink" x="0px"
	 y="0px" width="149.45px" height="54.2px" viewBox="0 0 149.45 54.2" style="enable-background:new 0 0 149.45 54.2;"
	 xml:space="preserve">
<symbol  id="FlashAICB_x5F_1_x2F_buildings-back_x2F__x3C_Path_x3E_" viewBox="0 -4.4 9.5 4.4">
	<g id="Layer_1_10_">
		<polygon style="fill-rule:evenodd;clip-rule:evenodd;fill:#A48476;" points="0.05,-3.7 9.5,0 0,-4.4 0.7,-3.9 		"/>
	</g>
</symbol>
<symbol  id="FlashAICB_x5F_1_x2F_buildings-back_x2F__x3C_Path_x3E__x5F_0" viewBox="0 -1.65 5.05 1.65">
	<g id="Layer_1_19_">
		<polygon style="fill-rule:evenodd;clip-rule:evenodd;fill:#787B68;" points="4.9,-1.35 5.05,-1.65 0,0 		"/>
	</g>
</symbol>
<symbol  id="FlashAICB_x5F_1_x2F_buildings-back_x2F__x3C_Path_x3E__x5F_1" viewBox="0 -4.15 6.5 4.15">
	<g id="Layer_1_9_">
		<polygon style="fill-rule:evenodd;clip-rule:evenodd;fill:#A48476;" points="0.4,-4.15 0,-3.95 6.5,0 		"/>
	</g>
</symbol>
<symbol  id="FlashAICB_x5F_1_x2F_buildings-back_x2F__x3C_Path_x3E__x5F_1_x5F_0" viewBox="0 -3.05 3.75 3.05">
	<g id="Layer_1_18_">
		<polygon style="fill-rule:evenodd;clip-rule:evenodd;fill:#787B68;" points="3.75,-2.75 3.6,-3.05 0,0 		"/>
	</g>
</symbol>
<symbol  id="FlashAICB_x5F_1_x2F_buildings-back_x2F__x3C_Path_x3E__x5F_2" viewBox="0 -11.95 7.5 11.95">
	<g id="Layer_1_8_">
		<path style="fill-rule:evenodd;clip-rule:evenodd;fill:#A48476;" d="M0-11.85C0.8-8.517,1.8-6,3-4.3C4.233-2.633,5.733-1.2,7.5,0
			C4.567-2.8,2.8-4.867,2.2-6.2c-0.633-1.367-1.1-3.283-1.4-5.75L0-11.85z"/>
	</g>
</symbol>
<symbol  id="FlashAICB_x5F_1_x2F_buildings-back_x2F__x3C_Path_x3E__x5F_2_x5F_0" viewBox="0 -5.25 4.95 5.25">
	<g id="Layer_1_17_">
		<polygon style="fill-rule:evenodd;clip-rule:evenodd;fill:#787B68;" points="4.95,-4.45 4.4,-4.45 4.75,-5.25 0,0 		"/>
	</g>
</symbol>
<symbol  id="FlashAICB_x5F_1_x2F_buildings-back_x2F__x3C_Path_x3E__x5F_3" viewBox="0 -12.85 2.45 12.85">
	<g id="Layer_1_7_">
		<polygon style="fill-rule:evenodd;clip-rule:evenodd;fill:#A48476;" points="0,-11.05 2.45,0 0.6,-12.85 0.6,-10.5 		"/>
	</g>
</symbol>
<symbol  id="FlashAICB_x5F_1_x2F_buildings-back_x2F__x3C_Path_x3E__x5F_3_x5F_0" viewBox="0 -9.95 4.95 9.95">
	<g id="Layer_1_16_">
		<polygon style="fill-rule:evenodd;clip-rule:evenodd;fill:#787B68;" points="4.95,-9.95 4,-9.15 3.9,-9.6 0,0 		"/>
	</g>
</symbol>
<symbol  id="FlashAICB_x5F_1_x2F_buildings-back_x2F__x3C_Path_x3E__x5F_4" viewBox="0.007 -16.57 142.8 16.57">
	<g id="Layer_1_2_">
		<path style="fill-rule:evenodd;clip-rule:evenodd;fill:#373535;" d="M130.25-14.55c-1.867-0.333-3.3-0.5-4.3-0.5
			c-0.434-0.034-1.1,0.1-2,0.4c-0.867,0.267-1.534,0.4-2,0.4c-0.333,0-0.867-0.083-1.6-0.25c-0.833-0.167-1.383-0.25-1.65-0.25
			c-0.267,0-0.817,0.083-1.65,0.25c-0.8,0.167-1.367,0.25-1.7,0.25c-0.3,0-0.817-0.117-1.55-0.35c-0.7-0.2-1.216-0.3-1.55-0.3
			c-0.4-0.033-0.95,0.05-1.65,0.25c-0.767,0.167-1.3,0.25-1.6,0.25s-0.767-0.117-1.4-0.35c-0.633-0.2-1.083-0.3-1.35-0.3
			c-0.233,0.1-0.5,0.216-0.8,0.35c-0.6,0.267-1.217,0.4-1.85,0.4c-1.3,0.167-2.383,0.25-3.25,0.25c-0.4,0-1.167-0.133-2.3-0.4
			c-1.1-0.233-2-0.35-2.7-0.35c-1.934-0.067-5.833-0.05-11.7,0.05c-6.467,0.133-11.933,0.167-16.4,0.1
			c-0.367,0-0.967-0.083-1.8-0.25c-0.833-0.167-1.45-0.25-1.85-0.25c-0.4-0.033-1.067,0.066-2,0.3c-0.967,0.2-1.633,0.3-2,0.3
			c-0.267-0.034-0.684-0.15-1.25-0.35c-0.533-0.233-0.95-0.35-1.25-0.35c-0.267,0-0.684,0.083-1.25,0.25
			c-0.533,0.167-0.95,0.25-1.25,0.25c-0.333,0-0.833-0.117-1.5-0.35c-0.667-0.267-1.167-0.4-1.5-0.4c-0.3,0-0.8,0.133-1.5,0.4
			c-0.667,0.233-1.167,0.35-1.5,0.35c-0.267,0-0.867-0.25-1.8-0.75c-1-0.5-1.617-0.75-1.85-0.75c-0.434-0.033-1,0.083-1.7,0.35
			c-0.7,0.233-1.25,0.35-1.65,0.35c-0.167-0.034-0.434-0.15-0.8-0.35c-0.466-0.233-0.75-0.367-0.85-0.4
			c-0.233-0.1-0.633-0.05-1.2,0.15c-0.667,0.233-1.05,0.35-1.15,0.35c-0.033,0-0.333-0.15-0.9-0.45c-0.5-0.267-0.867-0.367-1.1-0.3
			c-0.3,0.066-0.75,0.3-1.35,0.7c-0.567,0.367-0.917,0.55-1.05,0.55c-0.467-0.034-0.917-0.167-1.35-0.4
			c-0.434-0.267-0.883-0.417-1.35-0.45c-0.3-0.033-0.717,0.117-1.25,0.45c-0.567,0.3-1,0.45-1.3,0.45c-0.367,0-1.067-0.167-2.1-0.5
			c-1.033-0.367-1.733-0.55-2.1-0.55c-0.433-0.034-1.067,0.167-1.9,0.6c-0.9,0.467-1.533,0.7-1.9,0.7
			c-0.7,0.033-2.184-0.15-4.45-0.55c-2.433-0.467-4.067-0.7-4.9-0.7L9.45-12.4L6.5-10L3.2-6.5l0.4,1.75
			C1.833-3.617,0.667-2.467,0.1-1.3c-0.367,0.7,0.35,1.117,2.15,1.25c0.9,0.066,1.833,0.066,2.8,0l125.9-7.75l6.6-2.85
			c4.2-1.967,5.883-3.133,5.05-3.5c-0.633-0.633-1.467-1-2.5-1.1c-0.267-0.033-0.733,0.033-1.4,0.2c-0.867,0.167-1.4,0.267-1.6,0.3
			c-0.333,0.067-0.783,0.017-1.35-0.15c-0.667-0.167-1.133-0.25-1.4-0.25c-0.6-0.033-1.35,0.066-2.25,0.3
			C131.133-14.65,130.517-14.55,130.25-14.55z"/>
	</g>
</symbol>
<symbol  id="FlashAICB_x5F_1_x2F_buildings-back_x2F__x3C_Path_x3E__x5F_4_x5F_0" viewBox="0 -12.9 1.6 12.9">
	<g id="Layer_1_6_">
		<polygon style="fill-rule:evenodd;clip-rule:evenodd;fill:#A48476;" points="0,-12.15 1.6,0 0.8,-12.9 		"/>
	</g>
</symbol>
<symbol  id="FlashAICB_x5F_1_x2F_buildings-back_x2F__x3C_Path_x3E__x5F_4_x5F_1" viewBox="0 -10.45 3.2 10.45">
	<g id="Layer_1_15_">
		<polygon style="fill-rule:evenodd;clip-rule:evenodd;fill:#787B68;" points="2.7,-10.45 0,0 3.2,-10.35 2.9,-10.2 		"/>
	</g>
</symbol>
<symbol  id="FlashAICB_x5F_1_x2F_buildings-back_x2F__x3C_Path_x3E__x5F_5" viewBox="0 -9.8 1.25 9.8">
	<g id="Layer_1_5_">
		<polygon style="fill-rule:evenodd;clip-rule:evenodd;fill:#A48476;" points="0.35,-8.5 0,0 1.25,-9.8 0.7,-8.15 		"/>
	</g>
</symbol>
<symbol  id="FlashAICB_x5F_1_x2F_buildings-back_x2F__x3C_Path_x3E__x5F_5_x5F_0" viewBox="0 -5.9 0.7 5.9">
	<g id="Layer_1_14_">
		<polygon style="fill-rule:evenodd;clip-rule:evenodd;fill:#787B68;" points="0,-5.3 0.7,0 0.65,-5.9 0.35,-5.25 		"/>
	</g>
</symbol>
<symbol  id="FlashAICB_x5F_1_x2F_buildings-back_x2F__x3C_Path_x3E__x5F_6" viewBox="0 -8.95 3.1 8.95">
	<g id="Layer_1_4_">
		<polygon style="fill-rule:evenodd;clip-rule:evenodd;fill:#A48476;" points="2.35,-8.15 0,0 3.1,-8.95 		"/>
	</g>
</symbol>
<symbol  id="FlashAICB_x5F_1_x2F_buildings-back_x2F__x3C_Path_x3E__x5F_6_x5F_0" viewBox="0 -16.55 6 16.55">
	<g id="Layer_1_13_">
		<polygon style="fill-rule:evenodd;clip-rule:evenodd;fill:#787B68;" points="0,-16.55 6,0 0.8,-16.25 		"/>
	</g>
</symbol>
<symbol  id="FlashAICB_x5F_1_x2F_buildings-back_x2F__x3C_Path_x3E__x5F_7" viewBox="0 -7.85 9.15 7.85">
	<g id="Layer_1_3_">
		<path style="fill-rule:evenodd;clip-rule:evenodd;fill:#A48476;" d="M7.4-7.85c-1.5,2.1-2.583,3.5-3.25,4.2
			C3.517-2.983,2.133-1.767,0,0c2.767-2,4.617-3.55,5.55-4.65c0.733-0.867,1.934-1.867,3.6-3L7.85-7.3L7.4-7.85z"/>
	</g>
</symbol>
<symbol  id="FlashAICB_x5F_1_x2F_buildings-back_x2F__x3C_Path_x3E__x5F_7_x5F_0" viewBox="0 -9.85 3.25 9.85">
	<g id="Layer_1_12_">
		<polygon style="fill-rule:evenodd;clip-rule:evenodd;fill:#787B68;" points="0,-9.85 3.25,0 0.65,-9.3 0.55,-8.9 		"/>
	</g>
</symbol>
<symbol  id="FlashAICB_x5F_1_x2F_buildings-back_x2F__x3C_Path_x3E__x5F_8" viewBox="0 -5.8 4.3 5.8">
	<g id="Layer_1_11_">
		<polygon style="fill-rule:evenodd;clip-rule:evenodd;fill:#787B68;" points="0.45,-5.8 0.55,-5.35 0,-5.65 4.3,0 		"/>
	</g>
</symbol>
<g>
	
		<use xlink:href="#FlashAICB_x5F_1_x2F_buildings-back_x2F__x3C_Path_x3E__x5F_4"  width="142.8" height="16.57" x="0.007" y="-16.57" transform="matrix(1 0 0 -1 0 37.6504)" style="overflow:visible;opacity:0.3984;enable-background:new    ;"/>
	<path style="fill-rule:evenodd;clip-rule:evenodd;fill:#C3ABAA;" d="M125.15,31.15l8.3-9.25l4.45,27.65
		c-0.301,0.667-0.95,1.017-1.95,1.05h-2.2c-1.1-0.366-2.4-0.517-3.9-0.449c-0.433,0.033-1.149,0.166-2.149,0.399
		c-0.967,0.233-1.667,0.351-2.101,0.351c-0.699-0.034-1.433-0.134-2.199-0.301c-0.767-0.199-1.167-0.3-1.2-0.3
		c-0.467,0-1.184,0.15-2.15,0.45l-1.35,0.4l-2.5-0.551h-2.351l-1.75,0.551L109.2,50.55l-3,0.601l-1.7-0.7l-2.4,0.149L99.95,50.2
		L98.2,50.6H65.7c-1.133,0.233-2.034,0.351-2.7,0.351c-0.4,0-1.067-0.084-2-0.25l-1.3-0.25l-2.7,0.6l-1.65-0.45H53
		c-0.567,0.233-1.283,0.351-2.15,0.351c-0.233,0-0.667-0.05-1.3-0.15c-0.6-0.1-1.05-0.133-1.35-0.1
		c-0.3,0.033-0.883,0.184-1.75,0.45c-0.733,0.199-1.3,0.3-1.7,0.3c-1,0.033-1.95-0.084-2.85-0.351
		c-0.733-0.267-1.167-0.399-1.3-0.399c-0.4,0-1,0.133-1.8,0.399l-1.1,0.351L34.45,50.6h-2.7c-0.633,0.267-1.35,0.384-2.15,0.351
		c-0.2,0-0.517-0.084-0.95-0.25c-0.4-0.167-0.717-0.25-0.95-0.25c-0.5,0.066-1.2,0.217-2.1,0.45c-0.767,0.199-1.267,0.283-1.5,0.25
		c-0.7-0.067-1.367-0.267-2-0.601l-0.75-0.5l-4.4,0.55h-3.7l5.1-31.45L65,30.25l5.55-8.35L101.1,33l9.25-10.15L125.15,31.15z"/>
	<path style="fill-rule:evenodd;clip-rule:evenodd;fill:#B29E9C;" d="M18.35,19.15l-5.1,31.45L11.6,47.9l-1.5-0.7l-1.6-1.75
		c-0.9-0.634-1.5-1.134-1.8-1.5C6.6,43.85,6.533,43.6,6.5,43.2c-0.067-0.434-0.15-0.7-0.25-0.8c-0.4-0.467-0.967-0.967-1.7-1.5
		C3.917,40.366,3.567,40.066,3.5,40c-0.4-0.566-0.65-1.116-0.75-1.65v-0.6l2.4-24.85l3.95,9.95L18.35,19.15z"/>
	<g>
		<path style="fill-rule:evenodd;clip-rule:evenodd;fill:#AEA09F;" d="M48,35.95l-5.6-0.75l0.8,8.5l22.35,0.25l-0.95-9.2h-0.7
			L48,35.95z M42.3,43.65L41.45,35.1l-9.9-1.3l-12.4-0.95l-0.55,10L42.3,43.65z M85.65,35.9l0.149,7.8l18.851-0.2l-0.15-6.9
			l-2.9,0.101L85.65,35.9z M84.9,43.7l-0.15-7.851L65.5,34.8l1,9.101L84.9,43.7z M125.35,35.45l-1.449,0.2
			c-0.4,0.1-6.567,0.399-18.5,0.899l0.149,6.9l19.9,0.45L125.35,35.45z M132.2,24.5H131.1l0.851-0.9l1.75-0.05l0.149,0.9h-0.699
			L133.3,33.6l2-0.25l0.15,0.9l-9.2,1.1l0.15,8.601l10.649,0.25l0.15,0.899l-2.351-0.05l0.351,5.55h-0.95l-0.35-5.55l-18.95-0.45
			l0.25,6h-0.9l-0.3-6.05L97.3,44.5v6.1H96.4v-6.1L76.3,44.75l-0.1,5.85h-0.9l0.101-5.85L54.85,45l-0.35,5.6h-0.9l0.35-5.6
			l-20.5-0.7l-0.1,6.3h-0.9l0.05-6.35L14.45,43.6v-0.5L14.5,42.7l3.15,0.1l0.6-10.05l-2.1-0.15L16.3,31.7L32.55,33l0.55-8.55
			l-11,0.15l-4.5-1l0.15-0.9l4.45,1l14.35-0.25l3.55,0.85l-6.05,0.1l-0.6,8.75l14.6,1.899l5.9-0.45l-0.1-7l0.95,0.2l0.05,6.7
			l9.05-0.7l9.95,0.55V25.1l-5.25-0.2l0.6-0.9l7.899,0.3l2.801,1L74.8,25.1v9.3l19.7,1.05l-0.3-4.95l0.95,0.35l0.3,4.65l6.149,0.3
			l11.301-0.5l-0.25-10.15l-4.65,0.3l0.85-1l3.95-0.2l1.5,0.8l-0.75,0.05l0.25,10.15l9.9-0.5c0.267-0.1,3.149-0.45,8.649-1.05
			L132.2,24.5z"/>
	</g>
	<g>
		<polygon style="fill-rule:evenodd;clip-rule:evenodd;fill:#A39595;" points="17.7,22.65 17.3,23.5 12.65,21.4 13.85,20.95 		"/>
		<polygon style="fill-rule:evenodd;clip-rule:evenodd;fill:#A39595;" points="7.15,17.9 7.6,19.15 4.65,17.8 4.75,16.85 		"/>
		<polygon style="fill-rule:evenodd;clip-rule:evenodd;fill:#A39595;" points="16.25,31.9 15.9,32.5 3.95,25.5 4,24.5 16.3,31.7 		
			"/>
		<polygon style="fill-rule:evenodd;clip-rule:evenodd;fill:#A39595;" points="14.45,43.15 14.15,43.5 3.1,34.25 3.2,33.1 
			14.55,42.6 		"/>
	</g>
	<path style="fill-rule:evenodd;clip-rule:evenodd;fill:#867660;" d="M87.8,0.7l6.75,50.1l-28.6-0.35
		c-0.8-7.934-1.4-15.983-1.8-24.15C63.317,9.933,63.917,1.167,65.95,0c0.3-0.2,0.966,3.5,2,11.1c0.533,3.8,1.017,7.617,1.45,11.45
		l1.75-12.3l3.8,8.3l1.05-13l4.35,10.6l2.4-8.85l3.85,12.3L87.8,0.7z"/>
	<path style="fill-rule:evenodd;clip-rule:evenodd;fill:#5E5445;" d="M87.1,26.35c1.334,0.1,2.117,0.867,2.351,2.3
		c0.267,1.399-0.45,2.017-2.15,1.85c-1.7-0.134-2.483-0.884-2.35-2.25C85.116,26.917,85.833,26.283,87.1,26.35z"/>
</g>
<g>
	<path style="fill-rule:evenodd;clip-rule:evenodd;fill:#735E55;" d="M131.4,38.2l1.1,8.399l3-14.699l-0.75,13.75l3.75-10.4
		l-1.7,11.9l1.8-3.301c1.367-2.466,2.5-4.283,3.4-5.449c1.5-1.867,3.684-3.534,6.55-5c-0.767,0.6-1.616,1.316-2.55,2.149
		c-1.866,1.7-3.2,3.217-4,4.55c-0.767,1.301-1.333,2.684-1.7,4.15c-0.2,0.733-0.316,1.333-0.35,1.8l8.2-5.05l-7.45,6.5l8.75-3.35
		l-8,6.35l-1.65,0.95l-3-0.95l-3.55,0.95l-2.4-0.601l-3.699,0.601l-3-0.2c0.267-0.533,0.466-1.15,0.6-1.85
		c0.3-1.434,0.217-2.617-0.25-3.551c-0.467-0.933-1.65-2.333-3.55-4.199l-2.75-2.5l3.5,2.5c2.399,1.8,3.833,3.017,4.3,3.649
		c0.767,1,1.767,1.867,3,2.601L126.95,37.1l3.899,11L131.4,38.2z"/>
	
		<use xlink:href="#FlashAICB_x5F_1_x2F_buildings-back_x2F__x3C_Path_x3E__x5F_7"  width="9.15" height="7.85" y="-7.85" transform="matrix(1 0 0 -1 120.7002 41.1504)" style="overflow:visible;opacity:0.5;enable-background:new    ;"/>
	
		<use xlink:href="#FlashAICB_x5F_1_x2F_buildings-back_x2F__x3C_Path_x3E__x5F_6"  width="3.1" height="8.95" y="-8.95" transform="matrix(1 0 0 -1 127.75 39.6504)" style="overflow:visible;opacity:0.5;enable-background:new    ;"/>
	
		<use xlink:href="#FlashAICB_x5F_1_x2F_buildings-back_x2F__x3C_Path_x3E__x5F_5"  width="1.25" height="9.8" y="-9.8" transform="matrix(1 0 0 -1 131.5 40.0996)" style="overflow:visible;opacity:0.5;enable-background:new    ;"/>
	
		<use xlink:href="#FlashAICB_x5F_1_x2F_buildings-back_x2F__x3C_Path_x3E__x5F_4_x5F_0"  width="1.6" height="12.9" y="-12.9" transform="matrix(1 0 0 -1 133.6504 34.1504)" style="overflow:visible;opacity:0.5;enable-background:new    ;"/>
	
		<use xlink:href="#FlashAICB_x5F_1_x2F_buildings-back_x2F__x3C_Path_x3E__x5F_3"  width="2.45" height="12.85" y="-12.85" transform="matrix(1 0 0 -1 135.5996 37)" style="overflow:visible;opacity:0.5;enable-background:new    ;"/>
	
		<use xlink:href="#FlashAICB_x5F_1_x2F_buildings-back_x2F__x3C_Path_x3E__x5F_2"  width="7.5" height="11.95" y="-11.95" transform="matrix(1 0 0 -1 138.9502 34.8496)" style="overflow:visible;opacity:0.5;enable-background:new    ;"/>
	
		<use xlink:href="#FlashAICB_x5F_1_x2F_buildings-back_x2F__x3C_Path_x3E__x5F_1"  width="6.5" height="4.15" y="-4.15" transform="matrix(1 0 0 -1 140.2998 42.0498)" style="overflow:visible;opacity:0.5;enable-background:new    ;"/>
	
		<use xlink:href="#FlashAICB_x5F_1_x2F_buildings-back_x2F__x3C_Path_x3E_"  width="9.5" height="4.4" y="-4.4" transform="matrix(1 0 0 -1 138.9004 44.75)" style="overflow:visible;opacity:0.5;enable-background:new    ;"/>
</g>
<g>
	<polygon style="fill-rule:evenodd;clip-rule:evenodd;fill:#735E55;" points="40.6,48.95 41.9,42.35 41.85,49.2 49.35,30.55 
		43.4,49.3 48.4,38.7 45.3,50.25 50.35,43.65 45.8,51.95 44.4,51.85 43.3,52.55 40.7,52.05 39.25,52.85 37.25,52.25 35.5,53 
		29.15,49.25 34.6,50.75 31.45,47.1 36,50.5 31.35,42.95 36.4,47.35 33.2,36.7 39.25,48.65 36.25,35.4 	"/>
	
		<use xlink:href="#FlashAICB_x5F_1_x2F_buildings-back_x2F__x3C_Path_x3E__x5F_8"  width="4.3" height="5.8" y="-5.8" transform="matrix(1 0 0 -1 45.0498 45.0996)" style="overflow:visible;opacity:0.5;enable-background:new    ;"/>
	
		<use xlink:href="#FlashAICB_x5F_1_x2F_buildings-back_x2F__x3C_Path_x3E__x5F_7_x5F_0"  width="3.25" height="9.85" y="-9.85" transform="matrix(1 0 0 -1 44.6499 40.0996)" style="overflow:visible;opacity:0.5;enable-background:new    ;"/>
	
		<use xlink:href="#FlashAICB_x5F_1_x2F_buildings-back_x2F__x3C_Path_x3E__x5F_6_x5F_0"  width="6" height="16.55" y="-16.55" transform="matrix(1 0 0 -1 42.3999 33.2002)" style="overflow:visible;opacity:0.5;enable-background:new    ;"/>
	
		<use xlink:href="#FlashAICB_x5F_1_x2F_buildings-back_x2F__x3C_Path_x3E__x5F_5_x5F_0"  width="0.7" height="5.9" y="-5.9" transform="matrix(1 0 0 -1 41.1001 43.9502)" style="overflow:visible;opacity:0.5;enable-background:new    ;"/>
	
		<use xlink:href="#FlashAICB_x5F_1_x2F_buildings-back_x2F__x3C_Path_x3E__x5F_4_x5F_1"  width="3.2" height="10.45" y="-10.45" transform="matrix(1 0 0 -1 37.3501 39.0498)" style="overflow:visible;opacity:0.5;enable-background:new    ;"/>
	
		<use xlink:href="#FlashAICB_x5F_1_x2F_buildings-back_x2F__x3C_Path_x3E__x5F_3_x5F_0"  width="4.95" height="9.95" y="-9.95" transform="matrix(1 0 0 -1 34.2002 38.9502)" style="overflow:visible;opacity:0.5;enable-background:new    ;"/>
	
		<use xlink:href="#FlashAICB_x5F_1_x2F_buildings-back_x2F__x3C_Path_x3E__x5F_2_x5F_0"  width="4.95" height="5.25" y="-5.25" transform="matrix(1 0 0 -1 31.8999 43.5)" style="overflow:visible;opacity:0.5;enable-background:new    ;"/>
	
		<use xlink:href="#FlashAICB_x5F_1_x2F_buildings-back_x2F__x3C_Path_x3E__x5F_1_x5F_0"  width="3.75" height="3.05" y="-3.05" transform="matrix(1 0 0 -1 32.2998 47.8496)" style="overflow:visible;opacity:0.5;enable-background:new    ;"/>
	
		<use xlink:href="#FlashAICB_x5F_1_x2F_buildings-back_x2F__x3C_Path_x3E__x5F_0"  width="5.05" height="1.65" y="-1.65" transform="matrix(1 0 0 -1 29.7002 49.5498)" style="overflow:visible;opacity:0.5;enable-background:new    ;"/>
</g>
</svg>
