<?xml version="1.0" encoding="iso-8859-1"?>
<!-- Generator: Adobe Illustrator 15.1.0, SVG Export Plug-In . SVG Version: 6.00 Build 0)  -->
<!DOCTYPE svg PUBLIC "-//W3C//DTD SVG 1.1//EN" "http://www.w3.org/Graphics/SVG/1.1/DTD/svg11.dtd">
<svg version="1.1" id="Isolation_Mode" xmlns="http://www.w3.org/2000/svg" xmlns:xlink="http://www.w3.org/1999/xlink" x="0px"
	 y="0px" width="95px" height="31.4px" viewBox="0 0 95 31.4" style="enable-background:new 0 0 95 31.4;" xml:space="preserve">
<symbol  id="FlashAICB_x5F_0_x2F_Isolation_Mode_x2F__x3C_Path_x3E_" viewBox="0 -4.4 9.5 4.4">
	<g id="Layer_1_10_">
		<polygon style="fill-rule:evenodd;clip-rule:evenodd;fill:#A48476;" points="0.05,-3.7 9.5,0 0,-4.4 0.7,-3.9 		"/>
	</g>
</symbol>
<symbol  id="FlashAICB_x5F_0_x2F_Isolation_Mode_x2F__x3C_Path_x3E__x5F_1" viewBox="0 -4.2 6.5 4.2">
	<g id="Layer_1_9_">
		<polygon style="fill-rule:evenodd;clip-rule:evenodd;fill:#A48476;" points="0.4,-4.2 0,-4 6.5,0 		"/>
	</g>
</symbol>
<symbol  id="FlashAICB_x5F_0_x2F_Isolation_Mode_x2F__x3C_Path_x3E__x5F_2" viewBox="0 -11.9 7.5 11.9">
	<g id="Layer_1_8_">
		<path style="fill-rule:evenodd;clip-rule:evenodd;fill:#A48476;" d="M0-11.85C0.8-8.483,1.8-5.967,3-4.3
			C4.233-2.633,5.733-1.2,7.5,0C4.567-2.767,2.8-4.833,2.2-6.2c-0.633-1.333-1.1-3.233-1.4-5.7L0-11.85z"/>
	</g>
</symbol>
<symbol  id="FlashAICB_x5F_0_x2F_Isolation_Mode_x2F__x3C_Path_x3E__x5F_3" viewBox="0 -12.85 2.45 12.85">
	<g id="Layer_1_7_">
		<polygon style="fill-rule:evenodd;clip-rule:evenodd;fill:#A48476;" points="0,-11 2.45,0 0.55,-12.85 0.55,-10.45 		"/>
	</g>
</symbol>
<symbol  id="FlashAICB_x5F_0_x2F_Isolation_Mode_x2F__x3C_Path_x3E__x5F_4" viewBox="0 -12.9 1.6 12.9">
	<g id="Layer_1_6_">
		<polygon style="fill-rule:evenodd;clip-rule:evenodd;fill:#A48476;" points="0,-12.15 1.6,0 0.8,-12.9 		"/>
	</g>
</symbol>
<symbol  id="FlashAICB_x5F_0_x2F_Isolation_Mode_x2F__x3C_Path_x3E__x5F_5" viewBox="0 -13.9 95 13.9">
	<g id="Layer_1_2_">
		<path style="fill-rule:evenodd;clip-rule:evenodd;" d="M95-0.3c-1.1-1.3-1.883-2.133-2.35-2.5c-0.267-0.267-0.767-0.534-1.5-0.8
			L90.1-3.95c-0.8-1.633-1.317-2.583-1.55-2.85L86.4-9.05c-0.6-0.3-1.683-0.7-3.25-1.2c-0.167-0.067-0.9-0.533-2.2-1.4
			c-1.2-0.8-2.083-1.217-2.65-1.25c-0.167-0.033-0.733,0.066-1.7,0.3c-1,0.2-1.6,0.3-1.8,0.3c-0.267,0-0.833-0.1-1.7-0.3
			c-0.833-0.2-1.434-0.3-1.8-0.3c-0.2,0-0.583,0.133-1.15,0.4c-0.533,0.3-0.917,0.45-1.15,0.45c-3.2-0.3-5.617-0.45-7.25-0.45
			c-0.133,0-0.3,0.133-0.5,0.4c-0.2,0.3-0.35,0.45-0.45,0.45c-0.367,0-0.95-0.117-1.75-0.35c-0.733-0.233-1.316-0.333-1.75-0.3
			c-0.4,0-1.45,0.233-3.15,0.7c-1.667,0.467-2.717,0.7-3.15,0.7c-0.5,0-1.133-0.05-1.9-0.15c-0.8-0.133-1.417-0.2-1.85-0.2
			c-0.733-0.033-1.867-0.233-3.4-0.6c-1.5-0.367-2.617-0.55-3.35-0.55c-0.767-0.033-1.6,0.066-2.5,0.3
			c-0.933,0.233-1.75,0.35-2.45,0.35c-0.667-0.033-1.85-0.267-3.55-0.7c-1.733-0.466-2.883-0.7-3.45-0.7
			c-0.433-0.033-1.483,0.133-3.15,0.5c-1.7,0.333-2.733,0.5-3.1,0.5c-1.867-0.067-4.066-0.383-6.6-0.95
			c-2.5-0.533-3.767-0.8-3.8-0.8c-0.6,0-1.633,0.117-3.1,0.35c-1.466,0.267-2.55,0.4-3.25,0.4c-2.1,0-3.95-0.217-5.55-0.65
			l10.65,5.5L93,0L95-0.3z"/>
	</g>
</symbol>
<symbol  id="FlashAICB_x5F_0_x2F_Isolation_Mode_x2F__x3C_Path_x3E__x5F_5_x5F_0" viewBox="0 -9.85 1.25 9.85">
	<g id="Layer_1_5_">
		<polygon style="fill-rule:evenodd;clip-rule:evenodd;fill:#A48476;" points="0.35,-8.55 0,0 1.25,-9.85 0.7,-8.2 		"/>
	</g>
</symbol>
<symbol  id="FlashAICB_x5F_0_x2F_Isolation_Mode_x2F__x3C_Path_x3E__x5F_6" viewBox="0 -8.95 3.1 8.95">
	<g id="Layer_1_4_">
		<polygon style="fill-rule:evenodd;clip-rule:evenodd;fill:#A48476;" points="2.35,-8.15 0,0 3.1,-8.95 		"/>
	</g>
</symbol>
<symbol  id="FlashAICB_x5F_0_x2F_Isolation_Mode_x2F__x3C_Path_x3E__x5F_7" viewBox="0 -7.9 9.1 7.9">
	<g id="Layer_1_3_">
		<path style="fill-rule:evenodd;clip-rule:evenodd;fill:#A48476;" d="M7.4-7.9C5.9-5.8,4.817-4.4,4.15-3.7C3.517-3,2.133-1.767,0,0
			c2.767-2,4.617-3.567,5.55-4.7c0.733-0.867,1.917-1.867,3.55-3L7.85-7.35L7.4-7.9z"/>
	</g>
</symbol>
<g>
	
		<use xlink:href="#FlashAICB_x5F_0_x2F_Isolation_Mode_x2F__x3C_Path_x3E__x5F_5"  width="95" height="13.9" y="-13.9" transform="matrix(1 0 0 -1 0 17.5)" style="overflow:visible;opacity:0.4102;"/>
	
		<linearGradient id="SVGID_1_" gradientUnits="userSpaceOnUse" x1="-83.3374" y1="-18.5874" x2="226.4376" y2="-18.5874" gradientTransform="matrix(-1 0 0 -1 0 0)">
		<stop  offset="0" style="stop-color:#AAB9B6"/>
		<stop  offset="1" style="stop-color:#919E9C"/>
	</linearGradient>
	<path style="fill-rule:evenodd;clip-rule:evenodd;fill:url(#SVGID_1_);" d="M85.65,25.5c-4.233,1.9-7.567,2.85-10,2.85
		c-1.534,0-3.634-0.25-6.301-0.75l-3.55-0.75l-8.3,1.5l-6.55-1.199l-4.6,0.199c-2.067,0.867-3.85,1.367-5.35,1.5
		c-0.567,0.034-1.433-0.1-2.6-0.399c-1.1-0.3-2.183-0.4-3.25-0.3c-0.5,0.066-1.433,0.25-2.8,0.55c-1.2,0.267-2.15,0.416-2.85,0.45
		c-0.733,0.066-1.9-0.067-3.5-0.4c-1.533-0.333-2.65-0.467-3.35-0.4c-1.566,0.134-3.467,0.467-5.7,1
		c-2.233,0.534-3.45,0.801-3.65,0.801c-3,0.233-5.466-0.084-7.4-0.95L7.25,6.95l32.95,0.5l1.4,9.7l44.5-0.45L85.65,25.5z"/>
	<polygon style="fill-rule:evenodd;clip-rule:evenodd;fill:#B9C4C2;" points="7.25,6.95 21.2,0.95 50.85,0 40.2,7.45 	"/>
	<polygon style="fill-rule:evenodd;clip-rule:evenodd;fill:#B9C4C2;" points="86.1,16.7 41.6,17.15 55.05,9.75 94.45,9.3 	"/>
	<polygon style="fill-rule:evenodd;clip-rule:evenodd;fill:#AAB9B6;" points="41.6,17.15 40.2,7.45 50.85,0 55.05,9.75 	"/>
	<g>
		<polygon style="fill-rule:evenodd;clip-rule:evenodd;fill:#7D8C8A;" points="86.05,17.35 86,18.75 48.95,20.75 49.05,27.2 
			47.65,27.3 47.55,20.8 39.3,21.25 6.5,19.5 6.55,18.1 27.75,19.25 27.55,7.25 28.95,7.25 29.15,19.3 39.3,19.85 75.35,17.95 
			75.4,16.8 76.8,16.8 76.75,17.85 		"/>
	</g>
	<path style="fill-rule:evenodd;clip-rule:evenodd;fill:#CBD3D1;" d="M94.45,9.3L94.3,17.65c-0.566,0.666-1.2,1.25-1.899,1.75
		c-1.5,0.767-2.434,1.3-2.801,1.6c-0.399,0.366-0.783,0.866-1.149,1.5c-0.4,0.667-0.684,1.083-0.851,1.25L85.65,25.5L85,16.7
		L94.45,9.3z"/>
</g>
<g>
	<path style="fill-rule:evenodd;clip-rule:evenodd;fill:#735E55;" d="M78.25,23.95l8.2-5L79,25.45l8.75-3.351l-8,6.351L78.1,29.35
		l-3-0.899l-3.55,0.899L69.15,28.8l-3.75,0.55L62.45,29.2c0.267-0.533,0.467-1.15,0.6-1.851c0.3-1.433,0.217-2.616-0.25-3.55
		s-1.649-2.333-3.55-4.2l-2.75-2.5l3.5,2.5c2.4,1.801,3.833,3,4.3,3.601c0.733,1,1.733,1.883,3,2.649l-2.05-10.8L69.15,26l0.55-9.85
		l1.1,8.399l3-14.75l-0.75,13.8l3.7-10.45L75.1,25.1l1.801-3.3c1.366-2.467,2.5-4.283,3.399-5.45c1.5-1.866,3.667-3.55,6.5-5.05
		c-3.1,2.367-5.267,4.6-6.5,6.7c-0.767,1.333-1.333,2.733-1.7,4.2C78.4,22.9,78.283,23.483,78.25,23.95z"/>
	
		<use xlink:href="#FlashAICB_x5F_0_x2F_Isolation_Mode_x2F__x3C_Path_x3E__x5F_7"  width="9.1" height="7.9" y="-7.9" transform="matrix(1 0 0 -1 59 19.0498)" style="overflow:visible;opacity:0.5;enable-background:new    ;"/>
	
		<use xlink:href="#FlashAICB_x5F_0_x2F_Isolation_Mode_x2F__x3C_Path_x3E__x5F_6"  width="3.1" height="8.95" y="-8.95" transform="matrix(1 0 0 -1 66.0498 17.5996)" style="overflow:visible;opacity:0.5;enable-background:new    ;"/>
	
		<use xlink:href="#FlashAICB_x5F_0_x2F_Isolation_Mode_x2F__x3C_Path_x3E__x5F_5_x5F_0"  width="1.25" height="9.85" y="-9.85" transform="matrix(1 0 0 -1 69.7998 18)" style="overflow:visible;opacity:0.5;enable-background:new    ;"/>
	
		<use xlink:href="#FlashAICB_x5F_0_x2F_Isolation_Mode_x2F__x3C_Path_x3E__x5F_4"  width="1.6" height="12.9" y="-12.9" transform="matrix(1 0 0 -1 71.9502 12.1001)" style="overflow:visible;opacity:0.5;enable-background:new    ;"/>
	
		<use xlink:href="#FlashAICB_x5F_0_x2F_Isolation_Mode_x2F__x3C_Path_x3E__x5F_3"  width="2.45" height="12.85" y="-12.85" transform="matrix(1 0 0 -1 73.9004 14.9502)" style="overflow:visible;opacity:0.5;enable-background:new    ;"/>
	
		<use xlink:href="#FlashAICB_x5F_0_x2F_Isolation_Mode_x2F__x3C_Path_x3E__x5F_2"  width="7.5" height="11.9" y="-11.9" transform="matrix(1 0 0 -1 77.25 12.7998)" style="overflow:visible;opacity:0.5;enable-background:new    ;"/>
	
		<use xlink:href="#FlashAICB_x5F_0_x2F_Isolation_Mode_x2F__x3C_Path_x3E__x5F_1"  width="6.5" height="4.2" y="-4.2" transform="matrix(1 0 0 -1 78.5996 19.9502)" style="overflow:visible;opacity:0.5;enable-background:new    ;"/>
	
		<use xlink:href="#FlashAICB_x5F_0_x2F_Isolation_Mode_x2F__x3C_Path_x3E_"  width="9.5" height="4.4" y="-4.4" transform="matrix(1 0 0 -1 77.2002 22.7002)" style="overflow:visible;opacity:0.5;enable-background:new    ;"/>
</g>
</svg>
