<?xml version="1.0" encoding="iso-8859-1"?>
<!-- Generator: Adobe Illustrator 15.1.0, SVG Export Plug-In . SVG Version: 6.00 Build 0)  -->
<!DOCTYPE svg PUBLIC "-//W3C//DTD SVG 1.1//EN" "http://www.w3.org/Graphics/SVG/1.1/DTD/svg11.dtd">
<svg version="1.1" id="back_mountains" xmlns="http://www.w3.org/2000/svg" xmlns:xlink="http://www.w3.org/1999/xlink" x="0px"
	 y="0px" width="657.55px" height="770.6px" viewBox="0 0 657.55 770.6" style="enable-background:new 0 0 657.55 770.6;"
	 xml:space="preserve">
<g>
	<path style="fill-rule:evenodd;clip-rule:evenodd;fill:#628378;" d="M16.05,72.25C5.217,24.45-0.117,0.367,0.05,0
		c0.233-0.467,9.833,16.55,28.8,51.05c25.7,46.733,49.433,88.3,71.2,124.7c77.267,129.333,142.6,217.417,196,264.25
		c66.533,58.333,172.283,147.55,317.25,267.65c0.167,0.6,0.8,1.366,1.9,2.3c15.767,13.533,26.233,23.2,31.399,29
		c9.9,11.2,13.101,19.866,9.601,26c-3.5,6.1-24.584,7.267-63.25,3.5c-14.233-1.4-29.25-3.316-45.05-5.75
		c-13.767-2.134-24.334-4.05-31.7-5.75c-8.8-2.033-13.867-3.184-15.2-3.45c-3.866-0.767-6.8-1.033-8.8-0.8
		c-2.101,0.233-4.033,1.083-5.8,2.55c-1.334,1.1-3.4,3.333-6.2,6.7c-4.167,5-18.917,4.667-44.25-1c-7.9-1.767-16.4-3.967-25.5-6.601
		l-11.25-3.399l-49,10l-21-19c-10.167,2.667-22.083,5.333-35.75,8c-27.333,5.333-49.75,8-67.25,8c-17.133,0-30.3-3.367-39.5-10.101
		c-1.667-1.232-5.367-4.482-11.1-9.75c-4.733-4.267-9.2-7.649-13.4-10.149c-5.034-2.967-11.15-3.783-18.35-2.45
		c-5.367,0.967-12.45,3.45-21.25,7.45c-10.133,4.833-17.8,8.316-23,10.45c-8.967,3.733-16.767,5.916-23.4,6.55
		c-13.534,1.3-20.067-5.617-19.6-20.75c0.267-9.167,3.467-22.583,9.6-40.25L66.1,689c9.2-26.1,16.517-58.434,21.95-97
		c9.067-64.3-3.1-181.967-36.5-353C41.883,189.5,30.05,133.917,16.05,72.25z"/>
	<g>
		<path style="fill-rule:evenodd;clip-rule:evenodd;fill:#547067;" d="M657.5,758.4c0.2,2.5-0.233,4.683-1.3,6.55
			c-3,5.233-18.983,6.833-47.95,4.8L555.05,719l-2.7,3.4c-2.399,2.767-5.166,5.433-8.3,8c-10,8.166-21.666,13.699-35,16.6
			c-13.333,2.934-29-5.017-47-23.85c-5.633-5.9-11.149-12.533-16.55-19.9l-6.45-9.25l-2.649,5.7
			c-2.367,4.566-5.067,8.833-8.101,12.8c-9.666,12.667-20.75,19.833-33.25,21.5s-25.583-5-39.25-20
			c-4.267-4.7-8.333-9.934-12.2-15.7l-4.55-7.3l-6.649,6.4c-5.634,5.1-11.417,9.767-17.351,14c-19,13.5-36,20.033-51,19.6
			c-15-0.4-21.167-17.85-18.5-52.35c0.833-10.801,2.5-22.65,5-35.551l3.5-16.1l-4.6,7.95c-3.9,6.366-7.9,12.184-12,17.45
			c-13.167,16.833-24.967,25.033-35.4,24.6c-10.4-0.4-14.35-30.517-11.85-90.35c0.767-18.7,2.133-39.25,4.1-61.65l2.75-28l-1.35,4.8
			c-1.233,3.934-2.65,7.667-4.25,11.2c-5.167,11.333-11.3,18.667-18.4,22c-7.066,3.333-11.35-4.833-12.85-24.5
			c-0.5-6.134-0.667-13.066-0.5-20.8l0.35-9.7l-2.7,5.3c-2.4,4.134-5,7.75-7.8,10.851c-9,9.833-18.5,12.449-28.5,7.85
			c-10-4.566-15.333-37.6-16-99.1c-0.2-19.234,0.067-40.15,0.8-62.75l1.2-28.15l-1.05,4.85c-0.967,3.767-2.15,7.033-3.55,9.8
			c-4.5,8.833-10.3,10.95-17.4,6.35c-7.066-4.566-17.683-36.433-31.85-95.6c-7.1-29.6-13.483-58.733-19.15-87.4l-0.15,1.1
			C27.433,122.867,19.567,87.5,10.3,47C3.533,17.5,0.1,1.95,0,0.35L0.05,0c9.667,38.167,20.5,78.25,32.5,120.25
			c24,84,41.833,135.583,53.5,154.75c11.667,19.167,20.167,21.417,25.5,6.75c1.667-4.566,2.917-10.566,3.75-18l0.75-9.75l2.05,32.65
			c1.967,26.1,4.5,50.017,7.6,71.75c9.833,69.466,23.283,104,40.35,103.6c17.1-0.4,29.9-7.517,38.4-21.35
			c2.633-4.334,4.7-9.084,6.2-14.25l1.4-6.4l-0.9,24.9c-0.367,19.833,0.017,37.916,1.15,54.25
			c3.667,52.166,14.25,76.783,31.75,73.85c17.5-2.9,32.75-10.934,45.75-24.1c4.067-4.134,7.667-8.517,10.8-13.15l3.45-5.75l-2.75,80
			c-1.667,53-2.083,78.667-1.25,77c0.833-1.667,14.083-14.833,39.75-39.5l38.25-36.5l14,78l68-45l14,59l60-39l7,7.2
			c5.967,6,12.267,12.017,18.9,18.05c21.166,19.333,41.533,35.25,61.1,47.75C633.917,745.2,646.066,752.333,657.5,758.4z"/>
		<path style="fill-rule:evenodd;clip-rule:evenodd;fill:#547067;" d="M157.85,341.2l3.2-18.2l6.65,17.1c5,13.7,9,26.333,12,37.9
			c9.5,37,6.95,56.333-7.65,58c-14.566,1.667-20.767-16.667-18.6-55C154.117,369.033,155.583,355.767,157.85,341.2z"/>
		<path style="fill-rule:evenodd;clip-rule:evenodd;fill:#547067;" d="M247.75,466.7c3.233-9.167,5.333-14.066,6.3-14.7l3.15,15.85
			c2.267,12.601,3.85,24.034,4.75,34.301c2.833,32.833-1.8,47.783-13.9,44.85c-12.3-2.967-15.3-19.417-9-49.35
			C241.183,487.517,244.083,477.2,247.75,466.7z"/>
		<path style="fill-rule:evenodd;clip-rule:evenodd;fill:#547067;" d="M344.15,542.65L352.05,527l-1.45,16.5
			c-1.366,13.2-3,25.25-4.899,36.15c-6.167,34.833-14.05,51.616-23.65,50.35c-9.566-1.233-7.433-18.767,6.4-52.6
			C332.75,566.8,337.983,555.217,344.15,542.65z"/>
		<path style="fill-rule:evenodd;clip-rule:evenodd;fill:#547067;" d="M406.8,618.9c2.8-7.467,6.517-15.517,11.15-24.15l6.1-10.75
			l2.351,12.7c1.633,10.1,2.6,19.25,2.899,27.45c1,26.166-4.75,37.783-17.25,34.85C399.55,656.1,397.8,642.733,406.8,618.9z"/>
		<path style="fill-rule:evenodd;clip-rule:evenodd;fill:#4B645C;" d="M33.9,153.1l0.15-1.1c5.667,28.667,12.05,57.8,19.15,87.4
			c14.167,59.167,24.783,91.034,31.85,95.6c7.1,4.6,12.9,2.483,17.4-6.35c1.4-2.767,2.583-6.033,3.55-9.8l1.05-4.85l-1.2,28.15
			c-0.733,22.6-1,43.517-0.8,62.75c0.667,61.5,6,94.533,16,99.1c10,4.6,19.5,1.983,28.5-7.85c2.8-3.101,5.4-6.717,7.8-10.851
			l2.7-5.3l-0.35,9.7c-0.167,7.733,0,14.666,0.5,20.8c1.5,19.667,5.783,27.833,12.85,24.5c7.1-3.333,13.233-10.667,18.4-22
			c1.6-3.533,3.017-7.267,4.25-11.2l1.35-4.8l-2.75,28c-1.966,22.4-3.333,42.95-4.1,61.65c-2.5,59.833,1.45,89.949,11.85,90.35
			c10.434,0.434,22.233-7.767,35.4-24.6c4.1-5.267,8.1-11.084,12-17.45l4.6-7.95l-3.5,16.1c-2.5,12.9-4.167,24.75-5,35.551
			c-2.667,34.5,3.5,51.949,18.5,52.35c15,0.434,32-6.1,51-19.6c5.934-4.233,11.717-8.9,17.351-14l6.649-6.4l4.55,7.3
			c3.867,5.767,7.934,11,12.2,15.7c13.667,15,26.75,21.667,39.25,20s23.584-8.833,33.25-21.5c3.033-3.967,5.733-8.233,8.101-12.8
			l2.649-5.7l6.45,9.25c5.4,7.367,10.917,14,16.55,19.9c18,18.833,33.667,26.783,47,23.85c13.334-2.9,25-8.434,35-16.6
			c3.134-2.567,5.9-5.233,8.3-8l2.7-3.4l53.2,50.75c-15.7-1.066-33.434-3.05-53.2-5.95c-17-2.5-29.95-4.783-38.85-6.85
			c-8.8-2.033-13.867-3.184-15.2-3.45c-3.866-0.767-6.8-1.033-8.8-0.8c-2.101,0.233-4.033,1.083-5.8,2.55
			c-1.334,1.1-3.4,3.333-6.2,6.7c-4.167,5-18.917,4.667-44.25-1c-7.9-1.767-16.4-3.967-25.5-6.601l-11.25-3.399l-49,10l-21-19
			c-10.167,2.667-22.083,5.333-35.75,8c-27.333,5.333-49.75,8-67.25,8c-17.133,0-30.3-3.367-39.5-10.101
			c-1.667-1.232-5.367-4.482-11.1-9.75c-4.733-4.267-9.2-7.649-13.4-10.149c-5.034-2.967-11.15-3.783-18.35-2.45
			c-5.367,0.967-12.45,3.45-21.25,7.45c-10.133,4.833-17.8,8.316-23,10.45c-8.967,3.733-16.767,5.916-23.4,6.55
			c-13.534,1.3-20.067-5.617-19.6-20.75c0.267-9.167,3.467-22.583,9.6-40.25L66.1,689c9.2-26.1,16.517-58.434,21.95-97
			c6.067-43.066,2.517-110.616-10.65-202.65C67.867,322.684,53.367,243.933,33.9,153.1z"/>
	</g>
</g>
</svg>
