<?xml version="1.0" encoding="iso-8859-1"?>
<!-- Generator: Adobe Illustrator 15.1.0, SVG Export Plug-In . SVG Version: 6.00 Build 0)  -->
<!DOCTYPE svg PUBLIC "-//W3C//DTD SVG 1.1//EN" "http://www.w3.org/Graphics/SVG/1.1/DTD/svg11.dtd">
<svg version="1.1" id="buildings-back" xmlns="http://www.w3.org/2000/svg" xmlns:xlink="http://www.w3.org/1999/xlink" x="0px"
	 y="0px" width="220.4px" height="191.7px" viewBox="0 0 220.4 191.7" style="enable-background:new 0 0 220.4 191.7;"
	 xml:space="preserve">
<symbol  id="FlashAICB_x5F_1_x2F_buildings-back_x2F__x3C_Path_x3E_" viewBox="0 -19.95 21.05 19.95">
	<g id="Layer_1_5_">
		<path style="fill-rule:evenodd;clip-rule:evenodd;fill:#8BA8A2;" d="M10.3-3.7c1.1-2.566,2.15-4,3.15-4.3
			c1.6-0.5,3-0.717,4.2-0.65c-0.333-0.2-0.683-0.467-1.05-0.8c-0.7-0.7-1.067-1.45-1.1-2.25c-0.067-0.8,0.15-1.417,0.65-1.85
			c0.233-0.233,0.483-0.383,0.75-0.45v-2l1.9-1.45c1.3-1.1,2.05-1.933,2.25-2.5l-4.55,0.9l-4.95-0.75l-1.5,1.5
			c-1.867,0.333-3.316,0.633-4.35,0.9c-1,0.267-2.9,0.35-5.7,0.25c3.233,2.633,5.133,4.417,5.7,5.35C6.3-10.867,6.733-9.35,7-7.25
			L9.4-6L8.9,0C9.267-1.2,9.733-2.433,10.3-3.7z"/>
	</g>
</symbol>
<symbol  id="FlashAICB_x5F_1_x2F_buildings-back_x2F__x3C_Path_x3E__x5F_0" viewBox="0 -12.55 12.95 12.55">
	<g id="Layer_1_6_">
		<path style="fill-rule:evenodd;clip-rule:evenodd;fill:#8BA8A2;" d="M11.3-6.6c0.434-1.1,0.983-2.033,1.65-2.8l-1.4-3.15l-1.5,1.5
			c-1.867,0.333-3.316,0.633-4.35,0.9C4.7-9.883,2.8-9.8,0-9.9c3.233,2.633,5.133,4.417,5.7,5.35C6.3-3.617,6.733-2.1,7,0l4.95-2.8
			c-0.2-0.367-0.383-0.8-0.55-1.3C11.067-5.067,11.033-5.9,11.3-6.6z"/>
	</g>
</symbol>
<symbol  id="FlashAICB_x5F_1_x2F_buildings-back_x2F__x3C_Path_x3E__x5F_1" viewBox="0 -9.737 14.15 9.737">
	<g id="Layer_1_9_">
		<path style="fill-rule:evenodd;clip-rule:evenodd;fill:#A1C0B7;" d="M10.15-3.45l0.5-2.65c0.467-1.8,1.017-2.783,1.65-2.95
			c0.633-0.167,1.25-0.133,1.85,0.1c-1.4-0.7-2.517-0.933-3.35-0.7C10.1-9.517,9.55-9.3,9.15-9l-0.4,0.35
			C7.55-8.717,6.15-8.5,4.55-8c-1,0.3-2.05,1.733-3.15,4.3C0.833-2.433,0.367-1.2,0,0c1.867-2.3,3.183-3.45,3.95-3.45
			c0.733,0,1.233,0.467,1.5,1.4L5.8-3.1c0.333-0.733,0.85-1.15,1.55-1.25C8.45-4.517,9.383-4.217,10.15-3.45z"/>
	</g>
</symbol>
<symbol  id="FlashAICB_x5F_1_x2F_buildings-back_x2F__x3C_Path_x3E__x5F_10" viewBox="0 -4.6 3.9 4.6">
	<g id="Layer_1_35_">
		<polygon style="fill-rule:evenodd;clip-rule:evenodd;fill:#787B68;" points="3.7,-4.6 0,0 3.9,-4.15 3.55,-4.05 		"/>
	</g>
</symbol>
<symbol  id="FlashAICB_x5F_1_x2F_buildings-back_x2F__x3C_Path_x3E__x5F_10_x5F_0" viewBox="0 -5.55 5.35 5.55">
	<g id="Layer_1_42_">
		<path style="fill-rule:evenodd;clip-rule:evenodd;fill:#8BA8A2;" d="M5.35-5.55L0-4.45c0.833,1.267,1.6,2.5,2.3,3.7l1.25-0.4
			l0.7,1L5.3,0L5.35-5.55z"/>
	</g>
</symbol>
<symbol  id="FlashAICB_x5F_1_x2F_buildings-back_x2F__x3C_Path_x3E__x5F_11" viewBox="0 -6.95 6.2 6.95">
	<g id="Layer_1_41_">
		<path style="fill-rule:evenodd;clip-rule:evenodd;fill:#8BA8A2;" d="M6.2,0L6.15-6.8l-0.8-0.15L0-5.85
			c1.133,1.733,2.083,3.267,2.85,4.6l0.45-0.3l1.3,1.3L6.2,0z"/>
	</g>
</symbol>
<symbol  id="FlashAICB_x5F_1_x2F_buildings-back_x2F__x3C_Path_x3E__x5F_12" viewBox="0 -5.45 7.05 5.45">
	<g id="Layer_1_40_">
		<polygon style="fill-rule:evenodd;clip-rule:evenodd;fill:#8BA8A2;" points="7.05,-5.45 0,0 6.05,-2.6 		"/>
	</g>
</symbol>
<symbol  id="FlashAICB_x5F_1_x2F_buildings-back_x2F__x3C_Path_x3E__x5F_13" viewBox="0 -1.707 6.15 1.707">
	<g id="Layer_1_39_">
		<path style="fill-rule:evenodd;clip-rule:evenodd;fill:#8BA8A2;" d="M6.15-1.65c-2.433-0.133-4.033-0.033-4.8,0.3
			C0.617-1.017,0.167-0.567,0,0h3.5c0.067-0.267,0.133-0.433,0.2-0.5c0.367-0.667,1.033-1.033,2-1.1L6.15-1.65z"/>
	</g>
</symbol>
<symbol  id="FlashAICB_x5F_1_x2F_buildings-back_x2F__x3C_Path_x3E__x5F_14" viewBox="0 -1.65 11.4 1.65">
	<g id="Layer_1_38_">
		<path style="fill-rule:evenodd;clip-rule:evenodd;fill:#8BA8A2;" d="M11.4-1.15C8.133-1.217,5.833-1.2,4.5-1.1
			C3.2-1,2-1.183,0.9-1.65C1.2-0.817,0.9-0.267,0,0l10.15-0.4L11.4-1.15z"/>
	</g>
</symbol>
<symbol  id="FlashAICB_x5F_1_x2F_buildings-back_x2F__x3C_Path_x3E__x5F_15" viewBox="0 -7.9 6.2 7.9">
	<g id="Layer_1_37_">
		<polygon style="fill-rule:evenodd;clip-rule:evenodd;fill:#8BA8A2;" points="6.2,-7.9 0.55,-5.95 0,0 1.6,-1.5 2.35,-1.15 
			4.65,-1.3 		"/>
	</g>
</symbol>
<symbol  id="FlashAICB_x5F_1_x2F_buildings-back_x2F__x3C_Path_x3E__x5F_16" viewBox="0 -26.8 15.25 26.8">
	<g id="Layer_1_36_">
		
			<linearGradient id="SVGID_1_" gradientUnits="userSpaceOnUse" x1="11096.6729" y1="-19111.6191" x2="11118.2705" y2="-19111.6191" gradientTransform="matrix(-0.8693 -0.4943 0.4943 -0.8693 19109.3535 -11139.2568)">
			<stop  offset="0" style="stop-color:#C4D5D0"/>
			<stop  offset="1" style="stop-color:#71A697"/>
		</linearGradient>
		<path style="fill-rule:evenodd;clip-rule:evenodd;fill:url(#SVGID_1_);" d="M14.95-10.45l-1.7-6.15l1.25-0.75l-0.8-2.85l1.55-6.6
			L9.6-24.85l-4.25-0.8L0-24.55c2.5,3.867,3.833,6.1,4,6.7c0.2,0.533,0.1,0.967-0.3,1.3L3.1-16.2l1.15,3.05L8.3-13.7l0.85,9.15
			L5.1-4.1L6.35,0l6.05-2.6l1-2.85L12.85-6.5c-0.333-0.8-0.517-1.467-0.55-2c0-0.367,0.067-0.633,0.2-0.8
			c0.367-0.667,1.033-1.034,2-1.1L14.95-10.45z"/>
	</g>
</symbol>
<symbol  id="FlashAICB_x5F_1_x2F_buildings-back_x2F__x3C_Path_x3E__x5F_17" viewBox="0 -5.5 3.95 5.5">
	<g id="Layer_1_52_">
		<polygon style="fill-rule:evenodd;clip-rule:evenodd;fill:#A1C0B7;" points="3.95,0 2.65,-5 0.1,-5.5 0,-4.4 1.95,-4.15 
			2.85,-0.2 		"/>
	</g>
</symbol>
<symbol  id="FlashAICB_x5F_1_x2F_buildings-back_x2F__x3C_Path_x3E__x5F_1_x5F_0" viewBox="0 -8.7 3.5 8.7">
	<g id="Layer_1_19_">
		<polygon style="fill-rule:evenodd;clip-rule:evenodd;fill:#787B68;" points="2.6,-8.1 0,0 3.5,-8.7 2.8,-7.7 		"/>
	</g>
</symbol>
<symbol  id="FlashAICB_x5F_1_x2F_buildings-back_x2F__x3C_Path_x3E__x5F_1_x5F_1" viewBox="0 -2.25 3.2 2.25">
	<g id="Layer_1_28_">
		<polygon style="fill-rule:evenodd;clip-rule:evenodd;fill:#787B68;" points="3.2,-2 3.1,-2.25 0,0 		"/>
	</g>
</symbol>
<symbol  id="FlashAICB_x5F_1_x2F_buildings-back_x2F__x3C_Path_x3E__x5F_1_x5F_2" viewBox="0 -6.7 4.45 6.7">
	<g id="Layer_1_34_">
		<polygon style="fill-rule:evenodd;clip-rule:evenodd;fill:#787B68;" points="3.95,-6.4 0,0 4.45,-6.7 		"/>
	</g>
</symbol>
<symbol  id="FlashAICB_x5F_1_x2F_buildings-back_x2F__x3C_Path_x3E__x5F_1_x5F_3" viewBox="0 -3.65 4.85 3.65">
	<g id="Layer_1_51_">
		<polygon style="fill-rule:evenodd;clip-rule:evenodd;fill:#A1C0B7;" points="0.15,-1.55 4.85,0 1.2,-1.75 1.1,-2.95 0,-3.65 		"/>
	</g>
</symbol>
<symbol  id="FlashAICB_x5F_1_x2F_buildings-back_x2F__x3C_Path_x3E__x5F_2" viewBox="0 -2 3.2 2">
	<g id="Layer_1_8_">
		<polygon style="fill-rule:evenodd;clip-rule:evenodd;fill:#A1C0B7;" points="0,0 3.2,-0.4 0,-2 		"/>
	</g>
</symbol>
<symbol  id="FlashAICB_x5F_1_x2F_buildings-back_x2F__x3C_Path_x3E__x5F_2_x5F_0" viewBox="0 -17.35 1.95 17.35">
	<g id="Layer_1_18_">
		<polygon style="fill-rule:evenodd;clip-rule:evenodd;fill:#787B68;" points="1.35,-17.35 0,0 1.95,-16.15 1.65,-16.1 		"/>
	</g>
</symbol>
<symbol  id="FlashAICB_x5F_1_x2F_buildings-back_x2F__x3C_Path_x3E__x5F_2_x5F_1" viewBox="0 -3.95 4.3 3.95">
	<g id="Layer_1_27_">
		<polygon style="fill-rule:evenodd;clip-rule:evenodd;fill:#787B68;" points="4.3,-3.25 3.8,-3.3 4.15,-3.95 0,0 		"/>
	</g>
</symbol>
<symbol  id="FlashAICB_x5F_1_x2F_buildings-back_x2F__x3C_Path_x3E__x5F_2_x5F_2" viewBox="0 -4 1.8 4">
	<g id="Layer_1_33_">
		<polygon style="fill-rule:evenodd;clip-rule:evenodd;fill:#787B68;" points="1.35,-4 0,0 1.8,-3.85 		"/>
	</g>
</symbol>
<symbol  id="FlashAICB_x5F_1_x2F_buildings-back_x2F__x3C_Path_x3E__x5F_2_x5F_3" viewBox="0 -0.9 3.25 0.9">
	<g id="Layer_1_50_">
		<polygon style="fill-rule:evenodd;clip-rule:evenodd;fill:#A1C0B7;" points="1.55,-0.9 0,0 3.25,-0.25 		"/>
	</g>
</symbol>
<symbol  id="FlashAICB_x5F_1_x2F_buildings-back_x2F__x3C_Path_x3E__x5F_3" viewBox="-0.01 -4.15 8.11 4.15">
	<g id="Layer_1_7_">
		<path style="fill-rule:evenodd;clip-rule:evenodd;fill:#A1C0B7;" d="M7.55-0.3L8.1,0C6.467-1.5,5.417-2.85,4.95-4.05
			c-1.633,0.6-2.567,0.9-2.8,0.9c-0.4,0-1.066-0.333-2-1C0.017-3.75-0.033-3.383,0-3.05C0.033-2.25,0.4-1.5,1.1-0.8
			C1.467-0.467,1.817-0.2,2.15,0C2.417-0.433,3.1-0.767,4.2-1C5.033-1.233,6.15-1,7.55-0.3z"/>
	</g>
</symbol>
<symbol  id="FlashAICB_x5F_1_x2F_buildings-back_x2F__x3C_Path_x3E__x5F_3_x5F_0" viewBox="0 -12.55 0.65 12.55">
	<g id="Layer_1_17_">
		<polygon style="fill-rule:evenodd;clip-rule:evenodd;fill:#787B68;" points="0,-12.55 0.25,0 0.65,-11.65 0.4,-11.25 		"/>
	</g>
</symbol>
<symbol  id="FlashAICB_x5F_1_x2F_buildings-back_x2F__x3C_Path_x3E__x5F_3_x5F_1" viewBox="0 -7.75 4.65 7.75">
	<g id="Layer_1_26_">
		<polygon style="fill-rule:evenodd;clip-rule:evenodd;fill:#787B68;" points="4.65,-7.75 3.85,-7.15 3.75,-7.55 0,0 		"/>
	</g>
</symbol>
<symbol  id="FlashAICB_x5F_1_x2F_buildings-back_x2F__x3C_Path_x3E__x5F_3_x5F_2" viewBox="0 -4.3 0.35 4.3">
	<g id="Layer_1_32_">
		<polygon style="fill-rule:evenodd;clip-rule:evenodd;fill:#787B68;" points="0,-4.3 0.35,0 0.35,-4.2 		"/>
	</g>
</symbol>
<symbol  id="FlashAICB_x5F_1_x2F_buildings-back_x2F__x3C_Path_x3E__x5F_3_x5F_3" viewBox="0 -4.35 2.4 4.35">
	<g id="Layer_1_49_">
		<polygon style="fill-rule:evenodd;clip-rule:evenodd;fill:#8BA8A2;" points="0.85,0 2.4,-0.9 0.4,-4.35 0,-3.5 		"/>
	</g>
</symbol>
<symbol  id="FlashAICB_x5F_1_x2F_buildings-back_x2F__x3C_Path_x3E__x5F_4" viewBox="0 -7.55 7.85 7.55">
	<g id="Layer_1_10_">
		<path style="fill-rule:evenodd;clip-rule:evenodd;fill:#8BA8A2;" d="M6.4-2.85L7.85-4.2v-3.35C5.983-7.217,4.533-6.917,3.5-6.65
			C2.867-6.483,1.7-6.4,0-6.4c1.133,0.433,1.883,0.85,2.25,1.25C2.983-4.317,3.817-2.933,4.75-1L4.9-3.3L6.7,0L6.4-2.85z"/>
	</g>
</symbol>
<symbol  id="FlashAICB_x5F_1_x2F_buildings-back_x2F__x3C_Path_x3E__x5F_42" viewBox="0 -22.1 124.8 22.1">
	<g id="Layer_1_2_">
		<polygon style="fill-rule:evenodd;clip-rule:evenodd;fill:#373535;" points="124.8,-9.6 122.45,-12.1 120.05,-11.95 118.35,-12.9 
			115.8,-12.35 90.1,-14.9 87.7,-17.5 85.55,-17.85 84.5,-18.65 82.5,-17.95 81.45,-18.35 79.8,-17.15 78.1,-17.25 77.2,-17.85 
			74.85,-17.65 73.35,-18.45 72.3,-18.15 70.15,-19 64.05,-17.55 59.1,-18 52.7,-22.1 48.3,-21 42.8,-21.95 40.5,-20.2 
			36.25,-19.35 28.35,-19.15 35.85,-13.55 26.2,-10.2 16.3,-14.7 10.3,-12.25 6.35,-13.2 0,-11.7 7.7,-5.7 16.3,0 118.45,-5.25 		
			"/>
	</g>
</symbol>
<symbol  id="FlashAICB_x5F_1_x2F_buildings-back_x2F__x3C_Path_x3E__x5F_4_x5F_0" viewBox="0 -16.15 3.15 16.15">
	<g id="Layer_1_16_">
		<polygon style="fill-rule:evenodd;clip-rule:evenodd;fill:#787B68;" points="0,-16.15 3.15,0 0.5,-15.55 		"/>
	</g>
</symbol>
<symbol  id="FlashAICB_x5F_1_x2F_buildings-back_x2F__x3C_Path_x3E__x5F_4_x5F_1" viewBox="0 -8.25 3.25 8.25">
	<g id="Layer_1_25_">
		<polygon style="fill-rule:evenodd;clip-rule:evenodd;fill:#787B68;" points="2.9,-8.25 0,0 3.25,-8.15 3,-8.05 		"/>
	</g>
</symbol>
<symbol  id="FlashAICB_x5F_1_x2F_buildings-back_x2F__x3C_Path_x3E__x5F_4_x5F_2" viewBox="0 -2.95 3.95 2.95">
	<g id="Layer_1_31_">
		<polygon style="fill-rule:evenodd;clip-rule:evenodd;fill:#787B68;" points="0,-2.65 3.95,0 0.15,-2.95 		"/>
	</g>
</symbol>
<symbol  id="FlashAICB_x5F_1_x2F_buildings-back_x2F__x3C_Path_x3E__x5F_4_x5F_3" viewBox="0 -5.75 9.45 5.75">
	<g id="Layer_1_48_">
		<path style="fill-rule:evenodd;clip-rule:evenodd;fill:#A1C0B7;" d="M0-0.95L2.6,0l3.1-2.3L7-4.5L9.45-3L8.9-5.5
			c0-0.167-1.033-0.25-3.1-0.25L4.85-3L0-0.95z"/>
	</g>
</symbol>
<symbol  id="FlashAICB_x5F_1_x2F_buildings-back_x2F__x3C_Path_x3E__x5F_5" viewBox="0 -11.55 8.95 11.55">
	<g id="Layer_1_11_">
		<path style="fill-rule:evenodd;clip-rule:evenodd;fill:#A1C0B7;" d="M4.05-5.6c0.1,1.7-0.066,2.7-0.5,3L0,0l4.55-2.4
			C4.483-3.3,4.467-4.167,4.5-5c0.033-0.867,0.45-2.1,1.25-3.7l3.2-2.65L5.65-9.7L4.3-11.55L5.15-9.4
			c-0.167,0.633-0.367,1.133-0.6,1.5C4.417-7.667,4.3-7.217,4.2-6.55L4.05-5.6z"/>
	</g>
</symbol>
<symbol  id="FlashAICB_x5F_1_x2F_buildings-back_x2F__x3C_Path_x3E__x5F_5_x5F_0" viewBox="0 -4.75 2.45 4.75">
	<g id="Layer_1_15_">
		<polygon style="fill-rule:evenodd;clip-rule:evenodd;fill:#787B68;" points="0,-4.75 2.45,0 0.55,-4.5 0.45,-4.25 		"/>
	</g>
</symbol>
<symbol  id="FlashAICB_x5F_1_x2F_buildings-back_x2F__x3C_Path_x3E__x5F_5_x5F_1" viewBox="0 -4.8 0.55 4.8">
	<g id="Layer_1_24_">
		<polygon style="fill-rule:evenodd;clip-rule:evenodd;fill:#787B68;" points="0,-4.35 0.2,0 0.55,-4.8 0.25,-4.3 		"/>
	</g>
</symbol>
<symbol  id="FlashAICB_x5F_1_x2F_buildings-back_x2F__x3C_Path_x3E__x5F_5_x5F_2" viewBox="0 -5.65 4 5.65">
	<g id="Layer_1_30_">
		<polygon style="fill-rule:evenodd;clip-rule:evenodd;fill:#787B68;" points="0,-5.55 4,0 0.4,-5.65 0.45,-5.3 		"/>
	</g>
</symbol>
<symbol  id="FlashAICB_x5F_1_x2F_buildings-back_x2F__x3C_Path_x3E__x5F_5_x5F_3" viewBox="0 -2.45 8.7 2.45">
	<g id="Layer_1_47_">
		
			<linearGradient id="SVGID_2_" gradientUnits="userSpaceOnUse" x1="11088.7021" y1="-19128.7031" x2="11096.3271" y2="-19128.7031" gradientTransform="matrix(-0.8688 -0.4951 0.4951 -0.8688 19112.1895 -11128.9609)">
			<stop  offset="0" style="stop-color:#C4D5D0"/>
			<stop  offset="1" style="stop-color:#71A697"/>
		</linearGradient>
		<path style="fill-rule:evenodd;clip-rule:evenodd;fill:url(#SVGID_2_);" d="M8.7-0.8L2.65-2.45L2.2-2.4
			c-0.967,0.066-1.633,0.433-2,1.1C0.133-1.233,0.067-1.067,0-0.8v0.3c1.7,0,2.7,0.017,3,0.05C3.633-0.417,4.367-0.267,5.2,0
			C5.833-0.933,7-1.2,8.7-0.8z"/>
	</g>
</symbol>
<symbol  id="FlashAICB_x5F_1_x2F_buildings-back_x2F__x3C_Path_x3E__x5F_6" viewBox="-0.014 -7.238 19.764 7.282">
	<g id="Layer_1_3_">
		<path style="fill-rule:evenodd;clip-rule:evenodd;fill:#373535;" d="M0-4.2c0.167,0.867,1.65,1.75,4.45,2.65
			C6.583-0.85,8.6-0.367,10.5-0.1c1.567,0.233,3.417,0.184,5.55-0.15c2.467-0.4,3.7-1.05,3.7-1.95c0-1-0.717-1.933-2.15-2.8
			c-1.434-0.867-3.333-1.517-5.7-1.95c-2.4-0.466-5.017-0.367-7.85,0.3C1.183-6.017-0.167-5.2,0-4.2z"/>
	</g>
</symbol>
<symbol  id="FlashAICB_x5F_1_x2F_buildings-back_x2F__x3C_Path_x3E__x5F_6_x5F_0" viewBox="0.018 -5.65 20.047 5.662">
	<g id="Layer_1_4_">
		<path style="fill-rule:evenodd;clip-rule:evenodd;fill:#373535;" d="M0.05-3c0.233,0.733,1.5,1.417,3.8,2.05
			C5.85-0.417,7.833-0.1,9.8,0c1.967,0.067,4.133-0.15,6.5-0.65c2.667-0.533,3.917-1.15,3.75-1.85c-0.2-0.767-1.3-1.483-3.3-2.15
			c-2.067-0.667-4.267-1-6.6-1c-2.6,0-4.933,0.233-7,0.7C0.85-4.417-0.183-3.767,0.05-3z"/>
	</g>
</symbol>
<symbol  id="FlashAICB_x5F_1_x2F_buildings-back_x2F__x3C_Path_x3E__x5F_6_x5F_1" viewBox="0 -3 2.75 3">
	<g id="Layer_1_14_">
		<polygon style="fill-rule:evenodd;clip-rule:evenodd;fill:#787B68;" points="0,-2.75 2.75,0 0.3,-3 		"/>
	</g>
</symbol>
<symbol  id="FlashAICB_x5F_1_x2F_buildings-back_x2F__x3C_Path_x3E__x5F_6_x5F_2" viewBox="0 -13.75 3.75 13.75">
	<g id="Layer_1_23_">
		<polygon style="fill-rule:evenodd;clip-rule:evenodd;fill:#787B68;" points="0,-13.75 3.75,0 0.6,-13.45 		"/>
	</g>
</symbol>
<symbol  id="FlashAICB_x5F_1_x2F_buildings-back_x2F__x3C_Path_x3E__x5F_6_x5F_3" viewBox="0 -2.9 6.25 2.9">
	<g id="Layer_1_46_">
		<polygon style="fill-rule:evenodd;clip-rule:evenodd;fill:#A1C0B7;" points="6.25,0 0,-2.9 4,-0.6 		"/>
	</g>
</symbol>
<symbol  id="FlashAICB_x5F_1_x2F_buildings-back_x2F__x3C_Path_x3E__x5F_7" viewBox="0 -3.4 5.4 3.4">
	<g id="Layer_1_12_">
		<path style="fill-rule:evenodd;clip-rule:evenodd;fill:#A1C0B7;" d="M2,0c0.967-0.367,2.083-0.683,3.35-0.95H5.4L2.15-3.4
			c-0.333,0.767-0.566,1.25-0.7,1.45C1.05-1.45,0.567-0.983,0-0.55c1.5-0.633,2.383-0.934,2.65-0.9C2.883-1.417,2.667-0.933,2,0z"/>
	</g>
</symbol>
<symbol  id="FlashAICB_x5F_1_x2F_buildings-back_x2F__x3C_Path_x3E__x5F_7_x5F_0" viewBox="0 -2.45 5.05 2.45">
	<g id="Layer_1_13_">
		<polygon style="fill-rule:evenodd;clip-rule:evenodd;fill:#787B68;" points="0,-2.45 1.85,-0.95 5.05,0 		"/>
	</g>
</symbol>
<symbol  id="FlashAICB_x5F_1_x2F_buildings-back_x2F__x3C_Path_x3E__x5F_7_x5F_1" viewBox="0 -8.15 2 8.15">
	<g id="Layer_1_22_">
		<polygon style="fill-rule:evenodd;clip-rule:evenodd;fill:#787B68;" points="0,-8.15 2,0 0.5,-7.65 0.35,-7.35 		"/>
	</g>
</symbol>
<symbol  id="FlashAICB_x5F_1_x2F_buildings-back_x2F__x3C_Path_x3E__x5F_7_x5F_2" viewBox="0 -4.8 8.55 4.8">
	<g id="Layer_1_45_">
		<polygon style="fill-rule:evenodd;clip-rule:evenodd;fill:#8BA8A2;" points="8.55,-0.1 6.85,-4.8 0,-4.25 4.85,-4.2 5.8,-2.7 
			5.35,-0.3 5.35,0 6.35,-2.15 6.4,-3.95 		"/>
	</g>
</symbol>
<symbol  id="FlashAICB_x5F_1_x2F_buildings-back_x2F__x3C_Path_x3E__x5F_8" viewBox="0 -1.7 3.9 1.7">
	<g id="Layer_1_20_">
		<polygon style="fill-rule:evenodd;clip-rule:evenodd;fill:#787B68;" points="3.9,-1.35 3.85,-1.7 0,0 		"/>
	</g>
</symbol>
<symbol  id="FlashAICB_x5F_1_x2F_buildings-back_x2F__x3C_Path_x3E__x5F_8_x5F_0" viewBox="0 -4.9 3.15 4.9">
	<g id="Layer_1_21_">
		<polygon style="fill-rule:evenodd;clip-rule:evenodd;fill:#787B68;" points="0.4,-4.9 0.45,-4.5 0,-4.8 3.15,0 		"/>
	</g>
</symbol>
<symbol  id="FlashAICB_x5F_1_x2F_buildings-back_x2F__x3C_Path_x3E__x5F_8_x5F_1" viewBox="0 -5.4 1.95 5.4">
	<g id="Layer_1_44_">
		<polygon style="fill-rule:evenodd;clip-rule:evenodd;fill:#8BA8A2;" points="0.2,-0.5 0.85,0 0.6,-4.05 1.35,-4 1.4,-2.75 
			1.95,-2.1 1.95,-4.8 0,-5.4 		"/>
	</g>
</symbol>
<symbol  id="FlashAICB_x5F_1_x2F_buildings-back_x2F__x3C_Path_x3E__x5F_9" viewBox="0 -1.05 4.15 1.05">
	<g id="Layer_1_29_">
		<polygon style="fill-rule:evenodd;clip-rule:evenodd;fill:#787B68;" points="4,-0.8 4.15,-1.05 0,0 		"/>
	</g>
</symbol>
<symbol  id="FlashAICB_x5F_1_x2F_buildings-back_x2F__x3C_Path_x3E__x5F_9_x5F_0" viewBox="0 -2.95 5.55 2.95">
	<g id="Layer_1_43_">
		<polygon style="fill-rule:evenodd;clip-rule:evenodd;fill:#8BA8A2;" points="0.4,0 5.55,-2.95 2.45,-1.6 1.7,-1.75 0,-1.1 		"/>
	</g>
</symbol>
<g>
	
		<use xlink:href="#FlashAICB_x5F_1_x2F_buildings-back_x2F__x3C_Path_x3E__x5F_42"  width="124.8" height="22.1" y="-22.1" transform="matrix(1 0 0 -1 31.3501 169.5996)" style="overflow:visible;opacity:0.3984;enable-background:new    ;"/>
	<g>
		<path style="fill-rule:evenodd;clip-rule:evenodd;fill:#D69A78;" d="M203.7,147.1c3.133,3.801,6.133,7.9,9,12.301
			c2.267,3.466,3.517,5.566,3.75,6.3c0.267,0.833-0.967,1.517-3.7,2.05c-2.733,0.566-4.967,0.583-6.7,0.05
			c-0.733-0.233-2.267-2.017-4.6-5.35c-3.066-4.566-5.483-8.117-7.25-10.65c-6.934-10.1-11.7-15.066-14.3-14.899
			c-2.801,0.166-9.167,1.017-19.101,2.55l-14.05,2.2c0.467-0.733,0.634-1.534,0.5-2.4c-0.233-1.733-1.783-2.95-4.65-3.65
			l12.101-2.55c9.399-1.733,17.517-2.7,24.35-2.899C185.983,129.95,194.2,135.6,203.7,147.1z"/>
		<g>
			<path style="fill-rule:evenodd;clip-rule:evenodd;fill:#C69071;" d="M163.1,136.95c10.034-1.467,16.2-2.134,18.5-2
				c2.334,0.1,6.384,3.833,12.15,11.2c2.5,3.166,5.85,7.8,10.05,13.899c1.867,2.733,3.417,4.934,4.65,6.601
				c-0.767,0.566-1.667,0.899-2.7,1c-0.833-0.5-2.434-2.467-4.8-5.9c-3.033-4.566-5.417-8.083-7.15-10.55
				c-6.7-9.7-11.333-14.467-13.899-14.3c-4.367,0.233-14.75,1.716-31.15,4.449v-2.199L163.1,136.95z"/>
		</g>
		
			<use xlink:href="#FlashAICB_x5F_1_x2F_buildings-back_x2F__x3C_Path_x3E__x5F_6"  width="19.764" height="7.282" x="-0.014" y="-7.238" transform="matrix(1 0 0 -1 200.6504 167.6504)" style="overflow:visible;opacity:0.3984;enable-background:new    ;"/>
		<path style="fill-rule:evenodd;clip-rule:evenodd;fill:#D18E6B;" d="M204.95,172.9l-1.851-1.25l1.7-4.851
			c2.101,0.2,4.434-0.383,7-1.75c1.267-0.666,2.334-1.366,3.2-2.1l2,2c1.4,1.5,2.283,2.684,2.65,3.55c0.466,1.1-0.084,2.2-1.65,3.3
			c-1.667,1.167-3.917,1.851-6.75,2.05C208.783,174.017,206.684,173.7,204.95,172.9z"/>
		<path style="fill-rule:evenodd;clip-rule:evenodd;fill:#B9876A;" d="M185.75,138.95l3.6,3.85c2.7,2.967,4.784,5.384,6.25,7.25
			c2.334,2.967,6.017,8.134,11.051,15.5c-0.934,0.601-1.601,0.667-2,0.2c-2.2-3.5-4.267-6.566-6.2-9.2L185.75,138.95z"/>
		<path style="fill-rule:evenodd;clip-rule:evenodd;fill:#B9876A;" d="M178.95,135.85c1.434,0,2.25,0.134,2.45,0.4
			c-2.4,0.1-4.551,0.316-6.45,0.65l-24.65,3.649l0.45-1.05L178.95,135.85z"/>
		<path style="fill-rule:evenodd;clip-rule:evenodd;fill:#DDAD8E;" d="M197.3,141.2c4.167,3.934,7.517,7.816,10.05,11.649
			c3.434,5.167,5.75,8.4,6.95,9.7c-0.267,0.267-0.616,0.517-1.05,0.75c-0.333,0.2-0.684,0.334-1.05,0.4
			c-5.367-9.634-9.15-15.684-11.351-18.15c-1.533-1.733-3.5-3.783-5.899-6.149l-3.15-3L197.3,141.2z"/>
		<path style="fill-rule:evenodd;clip-rule:evenodd;fill:#DDAD8E;" d="M179.15,130.65c1.752,0.031,3.785,0.589,6.1,1.675
			c-0.654-0.233-1.938-0.559-3.85-0.976c-1.634-0.366-7.267,0.2-16.9,1.7l-13.95,2.351l0.851-1.101l11.899-1.85
			C171.667,131.217,176.95,130.616,179.15,130.65z"/>
		<g>
			<path style="fill-rule:evenodd;clip-rule:evenodd;fill:#BA8061;" d="M204.95,172.9l-1.851-1.25l1.7-4.851
				c1.066,0.101,2.2-0.017,3.4-0.35l0.149,0.05l-0.3,3.15c-0.1,2.1,0.2,3.25,0.9,3.449c0.733,0.2,2.133,0.15,4.2-0.149
				c1.933-0.267,3.25-0.566,3.949-0.9c0.834-0.399,1.351-0.684,1.551-0.85l-0.101,0.149c-1.6,1.434-4.033,2.267-7.3,2.5
				C208.783,174.017,206.684,173.7,204.95,172.9z"/>
		</g>
		<path style="fill-rule:evenodd;clip-rule:evenodd;fill:#D69A78;" d="M214.65,164.35c0.5,0.134,1.3,0.801,2.399,2
			c1.033,1.167,1.517,1.9,1.45,2.2c-0.066,0.267-0.45,0.584-1.15,0.95c-0.666,0.366-1.183,0.566-1.55,0.6
			c-0.333,0.034-0.7-0.949-1.1-2.949C214.3,165.184,214.283,164.25,214.65,164.35z"/>
	</g>
	<g>
		<path style="fill-rule:evenodd;clip-rule:evenodd;fill:#316454;" d="M71.85,120.7c0.9,0.434,1.433,1.2,1.6,2.3
			c0.167,1-0.034,2.017-0.6,3.05c-0.7,1.367-1.6,2.417-2.7,3.15c-1.167,0.833-2.333,1.133-3.5,0.899
			c-1.467-0.267-1.383-2.1,0.25-5.5C68.533,121.2,70.183,119.9,71.85,120.7z"/>
		<g>
			<path style="fill-rule:evenodd;clip-rule:evenodd;fill:#CFD7AC;" d="M36.65,118.45c-2.8,2-7.15,10.767-13.05,26.3
				c-2.934,7.733-5.583,15.283-7.95,22.65c-0.367,0.3-0.933,0.583-1.7,0.85c-1.5,0.533-3.167,0.75-5,0.65
				c-1.867-0.101-3.217-0.417-4.05-0.95l-0.75-0.75c2.867-8.167,6.3-16.634,10.3-25.4c7.966-17.566,14.783-27.866,20.45-30.899
				c5.667-3.034,13.55-2.317,23.65,2.149c5.034,2.233,9.5,4.767,13.4,7.601c1.7,2.267,1.517,4.533-0.55,6.8
				c-1.933,2.166-3.633,2.883-5.1,2.149c-4.6-3.033-8.983-5.633-13.15-7.8C44.95,117.6,39.45,116.483,36.65,118.45z"/>
			<g>
				<path style="fill-rule:evenodd;clip-rule:evenodd;fill:#BBC39D;" d="M15.35,139.8c6.7-14.399,12.583-23.6,17.65-27.6
					c0.4,0.434,1.667,0.017,3.8-1.25c-2.533,1.633-4.466,3.333-5.8,5.1c-2,2.7-4.167,6.184-6.5,10.45
					c-2.833,5.167-5.133,10.184-6.9,15.05c-2.6,7.167-5.2,15.066-7.8,23.7c-2.6,1.134-4.233,1.5-4.9,1.1
					c-0.133-0.066-0.217-0.216-0.25-0.449C7.917,156.833,11.483,148.134,15.35,139.8z"/>
				<path style="fill-rule:evenodd;clip-rule:evenodd;fill:#BBC39D;" d="M43.4,116.65c3.233,0.066,6.633,0.8,10.2,2.199
					c4.5,1.834,10.233,4.9,17.2,9.2c-0.8,0.7-1.617,1.2-2.45,1.5c-0.867,0.3-1.55,0.316-2.05,0.05
					c-4.466-2.933-8.75-5.466-12.85-7.6c-8-4.2-13.483-5.45-16.45-3.75C38.2,117.116,40.333,116.583,43.4,116.65z"/>
			</g>
			
				<use xlink:href="#FlashAICB_x5F_1_x2F_buildings-back_x2F__x3C_Path_x3E__x5F_6_x5F_0"  width="20.047" height="5.662" x="0.018" y="-5.65" transform="matrix(1 0 0 -1 0 165.8496)" style="overflow:visible;opacity:0.3984;enable-background:new    ;"/>
			<path style="fill-rule:evenodd;clip-rule:evenodd;fill:#B9C688;" d="M6.05,162.1c-0.1,0.101,0.184,0.284,0.85,0.551
				c0.867,0.3,1.95,0.466,3.25,0.5c2.7,0.133,5.133-0.267,7.3-1.2c0.833,0.033,1.417,1.1,1.75,3.2
				c0.167,1.066,0.25,2.116,0.25,3.149c-0.267,0.4-0.9,0.783-1.9,1.15c-2,0.767-4.8,1.116-8.4,1.05
				c-2.566-0.066-4.517-0.45-5.85-1.15l-1.2-1.05c0.333-1,0.733-2,1.2-3C4.267,163.267,5.183,162.2,6.05,162.1z"/>
			<path style="fill-rule:evenodd;clip-rule:evenodd;fill:#DEE3C4;" d="M70.8,123c-5.033-3.9-9.383-6.7-13.05-8.4
				c-2.3-1.066-5.45-2.166-9.45-3.3l-5.3-1.35l4.45,0.6c3.367,0.566,6.15,1.233,8.35,2c3.5,1.2,8.5,3.917,15,8.15l0.2,0.649
				C71.067,121.917,71,122.467,70.8,123z"/>
			<path style="fill-rule:evenodd;clip-rule:evenodd;fill:#DEE3C4;" d="M34.55,118.4l-3.95,8c-2.833,5.767-4.65,9.767-5.45,12
				l-8.3,22.949l-1.55,0.5c1.934-7.166,3.667-12.833,5.2-17c0.967-2.566,3.6-7.75,7.9-15.55L34.55,118.4z"/>
			<path style="fill-rule:evenodd;clip-rule:evenodd;fill:#AAB190;" d="M18.7,136.25c-3.133,7.267-5.083,11.967-5.85,14.1
				c-1.233,3.434-2.333,7.334-3.3,11.7c-0.233,0.101-0.5,0.15-0.8,0.15c-0.567,0.033-1.033-0.134-1.4-0.5
				c2.2-6.667,3.783-11.217,4.75-13.65c0.6-1.533,2.633-5.666,6.1-12.399l5-9.7L18.7,136.25z"/>
			<path style="fill-rule:evenodd;clip-rule:evenodd;fill:#AAB190;" d="M69.1,128c-0.2,0.634-0.667,1-1.4,1.1h-1.05
				c-0.333,0-1.55-0.716-3.65-2.149c-1.333-0.9-4.633-2.667-9.9-5.3L45.55,118l4.7,1.35c3.567,1.101,6.467,2.233,8.7,3.4
				C62.55,124.65,65.933,126.4,69.1,128z"/>
			<g>
				<path style="fill-rule:evenodd;clip-rule:evenodd;fill:#A5B17B;" d="M9.15,170.5c-2.566-0.066-4.517-0.45-5.85-1.15l-1.2-1.05
					c0.333-1,0.733-2.017,1.2-3.05c0.967-2.033,1.883-3.1,2.75-3.2c-0.1,0.134,0.184,0.316,0.85,0.55
					c0.867,0.334,1.95,0.517,3.25,0.551l0.35,0.05c-0.267,0.267-0.5,0.566-0.7,0.899c-0.433,0.733-0.716,1.617-0.85,2.65
					c-0.233,2.033,0.1,3.116,1,3.25c1.733,0.267,3.333,0.233,4.8-0.1l3-0.551C15.717,170.184,12.85,170.566,9.15,170.5z"/>
			</g>
			<path style="fill-rule:evenodd;clip-rule:evenodd;fill:#929E6E;" d="M5.35,163.65c0.6-0.334,1.083-0.301,1.45,0.1
				c0.434,0.5,0.45,1.4,0.05,2.7c-0.267,0.866-0.367,1.8-0.3,2.8c-1-0.2-1.75-0.4-2.25-0.6c-0.3-0.101-0.6-0.267-0.9-0.5l-0.3-0.301
				c0.1-0.533,0.233-1.017,0.4-1.449C4.2,164.9,4.817,163.983,5.35,163.65z"/>
		</g>
	</g>
	<path style="fill-rule:evenodd;clip-rule:evenodd;fill:#CFBDBB;" d="M119.55,7.8c3.134-2.7,5.617-5.3,7.45-7.8l17.2,4.75
		l1.149,4.05c0.801,3.267,1.233,6.35,1.301,9.25c0.166,9.333-3.334,15.133-10.5,17.4c-7.167,2.3-19.733,3.783-37.7,4.45L73.6,40.25
		l-20.1-28.9L71,15.1c13,2.333,22.767,3.033,29.3,2.1C106.867,16.3,113.283,13.167,119.55,7.8z"/>
	
		<linearGradient id="SVGID_3_" gradientUnits="userSpaceOnUse" x1="-181.436" y1="119.0732" x2="-130.9491" y2="119.0732" gradientTransform="matrix(0.0218 -0.9998 0.9998 0.0218 -1.206808e-004 1.169443e-004)">
		<stop  offset="0" style="stop-color:#C3ABAA"/>
		<stop  offset="1" style="stop-color:#B49695"/>
	</linearGradient>
	<path style="fill-rule:evenodd;clip-rule:evenodd;fill:url(#SVGID_3_);" d="M112.35,33.1c11.733-1.467,19.417-3.117,23.051-4.95
		c3.666-1.833,6.233-6.283,7.699-13.35L144.2,4.75l33.649,35.1C171.65,41.917,165.5,44.633,159.4,48c-12.2,6.7-18,13.25-17.4,19.65
		c0.6,6.434,3.833,15.317,9.7,26.65c2.934,5.667,5.8,10.684,8.6,15.05l-21.95,4.4l19.75,42.45l-3.449,5.95l-0.2,17.449l-68.8,7.301
		l-14.6-59.25L58.6,40.6l37.3-5.85L112.35,33.1z"/>
	<g>
		<path style="fill-rule:evenodd;clip-rule:evenodd;fill:#AA9493;" d="M122.95,159.85L122.8,159c-0.434-3.767-0.666-6.5-0.7-8.2
			L119.4,151c-3.467,0-6.334-0.917-8.601-2.75c-4.066,0.9-7.483,2.816-10.25,5.75c-2.733,2.934-4.5,6.533-5.3,10.8
			c-0.2,1.066-0.333,2.367-0.4,3.9c2.5,1.1,4.533,3.366,6.1,6.8v0.05c0.867-0.2,2.066-0.383,3.6-0.55c1.9-0.267,3.2-0.467,3.9-0.6
			c1.433-0.301,2.583-0.717,3.45-1.25c0.899-0.5,1.683-1.284,2.35-2.351c0.4-0.6,0.934-1.649,1.6-3.149
			c1-2.267,1.917-3.851,2.75-4.75C119.667,161.767,121.116,160.75,122.95,159.85z M110.35,147.85
			c-1.266-1.166-2.216-2.583-2.85-4.25c-0.4-1.066-0.7-2.566-0.9-4.5l0.55-0.05c0.2,1.9,0.483,3.351,0.85,4.351
			c0.967,2.633,2.7,4.55,5.2,5.75c2.467,1.199,5.434,1.566,8.899,1.1c0-6.4,2.134-10.9,6.4-13.5c1.3-0.8,3.15-1.634,5.55-2.5
			l0.4,0.45c-2.566,0.934-4.467,1.783-5.7,2.55c-3.366,2.066-5.333,5.267-5.9,9.6c-0.366,2.5-0.199,6.534,0.5,12.101l0.101,0.649
			l4.05-1.699l0.2,0.5l-2.5,1c1.666,2.333,3.283,4.116,4.85,5.35c2.033,1.634,4.3,2.616,6.8,2.95c1.167,0.133,2.884,0.2,5.15,0.2
			c1.667,0.033,2.717,0.066,3.15,0.1c1.166,0.066,2.199,0.184,3.1,0.35c-0.634-2.833-0.934-5.517-0.9-8.05
			c0.101-3.733,0.934-6.816,2.5-9.25c-5.466-3.533-8.933-8.066-10.399-13.6c-0.267-1.033-0.55-2.434-0.851-4.2l0.5-0.1
			c0.5,2.5,0.784,3.883,0.851,4.149c0.633,2.3,1.517,4.3,2.649,6c0.867-1.066,2.551-2.649,5.051-4.75l1.6-1.35l0.25,0.5l-1.5,1.25
			c-2.533,2.1-4.233,3.7-5.1,4.8c1.733,2.566,4.149,4.85,7.25,6.85c0.966-1.233,2-2.216,3.1-2.949l0.7-0.4l0.25,0.5l-0.65,0.35
			c-3.233,2.101-5.083,5.534-5.55,10.301c-0.3,3.033-0.033,6.399,0.8,10.1c1.267,0.267,2.4,0.667,3.4,1.2
			c0.934,0.467,1.717,0.934,2.35,1.399v0.65c-0.967-0.7-1.833-1.233-2.6-1.6c-1.434-0.7-3.066-1.184-4.9-1.45
			c-1.133-0.134-2.833-0.217-5.1-0.25c-2.267,0-3.983-0.084-5.15-0.25c-2.6-0.334-4.967-1.334-7.1-3
			c-1.601-1.267-3.267-3.117-5-5.55c-2.467,1.066-4.367,2.283-5.7,3.649c-0.767,0.834-1.65,2.351-2.65,4.55
			c-0.699,1.534-1.25,2.617-1.649,3.25c-0.7,1.134-1.533,1.983-2.5,2.551c-0.967,0.533-2.167,0.949-3.6,1.25
			c-0.833,0.199-2.167,0.416-4,0.649l-3.4,0.5c1,2.066,2.183,3.7,3.55,4.9s3.15,2.166,5.35,2.899l1.15,0.351l-1.4,0.149
			c-2.333-0.8-4.233-1.866-5.7-3.199c-1.433-1.334-2.667-3.15-3.7-5.45c-1.167-2.5-2.55-4.334-4.15-5.5l0.2,0.25
			c-2.4,2.033-3.883,4.25-4.45,6.649c-0.466,2-0.383,4.75,0.25,8.25l0.15,0.851l-0.55,0.05l-0.15-0.8
			c-0.633-3.533-0.7-6.367-0.2-8.5c0.567-2.5,2.083-4.8,4.55-6.9c-1.333-0.934-2.934-1.517-4.8-1.75c-1.6-0.233-3.667-0.233-6.2,0
			l-0.05-0.55c4.1-0.333,7.184-0.083,9.25,0.75c0.133-1.733,0.267-3,0.4-3.8c0.833-4.334,2.617-7.983,5.35-10.95
			C102.817,150.783,106.25,148.816,110.35,147.85z"/>
	</g>
	<path style="fill-rule:evenodd;clip-rule:evenodd;fill:#B49695;" d="M21.3,74.25l32.2-62.9l42.4,23.4l-10.4,19.4
		c-6.6,13.633-8.983,22.283-7.15,25.95c1.833,3.667,6.533,6.483,14.1,8.45c3.8,0.967,7.4,1.567,10.8,1.8l-20.5,38.05l11.7,11.699
		l-8.8,46.801l-43.9-13.15c3.3-3.6,6.717-7.983,10.25-13.15c7.1-10.366,11.25-19.517,12.45-27.449
		c1.233-7.934-5.583-20.134-20.45-36.601c-4.667-5.133-9.85-10.4-15.55-15.8L21.3,74.25z"/>
	<g>
		<path style="fill-rule:evenodd;clip-rule:evenodd;fill:#9A8786;" d="M81.65,39.45c1.733-2.534,2.617-5.017,2.65-7.45h0.55
			c-0.067,2.567-1,5.167-2.8,7.8c-1.5,2.233-3.4,4.233-5.7,6c0.367,0.934,1.267,3.417,2.7,7.45l1.15,3.45
			c0.233,0.6,0.767,1.733,1.6,3.4l0.3,0.5l-0.5,0.25l-0.25-0.5c-0.8-1.533-1.35-2.7-1.65-3.5l-1.2-3.45
			c-1.2-3.533-2.15-6.133-2.85-7.8c-1.133-2.767-2.383-5.067-3.75-6.9c-4.167,3.733-6.2,8.667-6.1,14.8
			c0.1,5.567,1.833,10.867,5.2,15.9c1,1.5,2.417,3,4.25,4.5L75,74.45c-1.867-1.534-3.35-3.117-4.45-4.75
			c-3.233-4.833-4.983-10-5.25-15.5c-3.833-1.034-7.483-1.333-10.95-0.9c-3.467,0.434-6.434,1.567-8.9,3.4
			c-0.6,0.466-1.034,0.833-1.3,1.1l-0.1,0.25L43.9,58c-2.967,2.933-4.633,6.8-5,11.6c4.3-0.033,8.083,1.316,11.35,4.05
			c3.3,2.767,5.267,6.25,5.9,10.45l-0.55,0.05c-0.6-4.066-2.483-7.417-5.65-10.05c-3.2-2.667-6.9-3.983-11.1-3.95L38.8,70.6
			c-0.1,2.367,0.367,5.816,1.4,10.35l-0.5,0.15c-1.067-4.5-1.55-8-1.45-10.5l0.05-1h0.05c0.367-4.934,2.033-8.867,5-11.8
			c-1.567-0.6-3.317-1.15-5.25-1.65L37.55,56c-1.3,2.433-2.883,4.233-4.75,5.4c-1.6,1-3.566,1.617-5.9,1.85l0.35-0.6
			c2.233-0.3,4.083-0.933,5.55-1.9c1.6-1.1,3-2.733,4.2-4.9c-2.3-0.633-4.083-1.25-5.35-1.85l0.25-0.5
			c1.3,0.667,3.417,1.383,6.35,2.15c2.133,0.5,3.983,1.067,5.55,1.7l1.3-1.1c1.933-1.367,4.083-2.35,6.45-2.95
			c0.067-2.066-1.066-4.733-3.4-8c-1.3-1.8-3.333-4.2-6.1-7.2l-1.45-1.55L40.85,36l1.6,1.75c2.767,3.033,4.8,5.45,6.1,7.25
			c2.4,3.333,3.583,6.067,3.55,8.2c4.133-0.934,8.517-0.784,13.15,0.45c-0.1-6.433,2-11.566,6.3-15.4
			c-2.333-3.067-5.367-5.35-9.1-6.85c-1.333,0.967-2.567,1.667-3.7,2.1c-1.5,0.633-2.95,0.95-4.35,0.95
			c-1.133,0-2.183-0.217-3.15-0.65c-2.233-0.966-4.233-3.1-6-6.4l0.3-0.6c1.733,3.4,3.717,5.567,5.95,6.5
			c2.033,0.9,4.383,0.8,7.05-0.3c2.434-1,4.517-2.483,6.25-4.45c1.934-2.233,2.95-4.617,3.05-7.15h0.55
			c-0.133,3.6-1.95,6.8-5.45,9.6c3.267,1.367,6.017,3.35,8.25,5.95c1.833,2.133,3.466,4.9,4.9,8.3
			C78.333,43.55,80.183,41.617,81.65,39.45z"/>
	</g>
	
		<linearGradient id="SVGID_4_" gradientUnits="userSpaceOnUse" x1="87.9473" y1="-56.1475" x2="143.4933" y2="-56.1475" gradientTransform="matrix(0.0725 0.9974 -0.9974 0.0725 -2.142489e-004 2.000332e-004)">
		<stop  offset="0" style="stop-color:#947D7C"/>
		<stop  offset="1" style="stop-color:#B49695"/>
	</linearGradient>
	<path style="fill-rule:evenodd;clip-rule:evenodd;fill:url(#SVGID_4_);" d="M80.55,78.9c2.167,4.467,5.034,7.3,8.6,8.5
		c3.6,1.233,7.033,2.1,10.3,2.6c1.633,0.233,2.9,0.35,3.8,0.35l-20.5,38.05L72.7,140.65l-17.4-13c0.8-0.867,1.367-2.2,1.7-4
		c0.667-3.601-0.133-7.684-2.4-12.25c-2.3-4.567-8.533-12.134-18.7-22.7L21.3,74.25l12.4,5.35c9.4,3.5,16.917,5.133,22.55,4.9
		s11-2.283,16.1-6.15c1.6-1.2,3.083-2.517,4.45-3.95l1.55-1.8L80.55,78.9z"/>
	<g>
		<path style="fill-rule:evenodd;clip-rule:evenodd;fill:#92807F;" d="M67.1,99.2c-2.767-1.167-5.233-1.467-7.4-0.9
			c-1.434,0.334-2.75,1.316-3.95,2.95c3.033,3.134,4.617,6.283,4.75,9.45c1.967-0.3,3.95,0.05,5.95,1.05c1.8,0.9,3.3,2.167,4.5,3.8
			c1.933-2.233,3.15-4.133,3.65-5.7c0.733-2.267,0.3-4.35-1.3-6.25C71.767,101.767,69.7,100.3,67.1,99.2z M51.85,85.55l0.55,0.1
			c-0.5,2.4,0.05,4.867,1.65,7.4c1.133,1.767,2.684,3.45,4.65,5.05l0.85-0.35c2.5-0.634,5.317-0.2,8.45,1.3
			c0.867-1.267,1.467-2.85,1.8-4.75c0.333-1.933,0.317-3.767-0.05-5.5c-0.533-2.433-1.583-4.15-3.15-5.15l-0.1,0.2l-0.4-0.4
			c0.033-0.333,0.183-0.467,0.45-0.4c1.934,1.1,3.184,2.983,3.75,5.65c0.2,1.066,0.284,2.133,0.25,3.2
			c2.633-0.967,4.7-1.917,6.2-2.85c2.1-1.3,3.55-2.767,4.35-4.4c0.333-0.767,0.55-1.467,0.65-2.1l0.55,0.05
			c-0.167,0.933-0.4,1.683-0.7,2.25c-0.833,1.8-2.434,3.417-4.8,4.85c2.333,2.767,5,4.833,8,6.2s6.467,2.083,10.4,2.15l3.55-0.1
			v0.55l-3.55,0.1c-2.467-0.033-4.833-0.366-7.1-1l-0.3,0.851c-3.233,8.066-4.117,12.934-2.65,14.6c0.533,0.634,1.483,0.8,2.85,0.5
			c0.767-0.2,1.883-0.7,3.35-1.5l0.25-0.149l-0.45,0.899c-1.233,0.667-2.233,1.084-3,1.25c-0.433,0.134-0.883,0.2-1.35,0.2
			c-0.9,0-1.583-0.283-2.05-0.85c-1.633-1.834-0.8-6.884,2.5-15.15l0.3-0.75c-4.325-1.265-8.066-3.772-11.225-7.525
			c-1.609,0.871-3.484,1.696-5.625,2.475l-0.15-0.35c-0.1,2.967-0.783,5.35-2.05,7.15c2.167,1.134,3.917,2.467,5.25,4
			c1.667,2.033,2.15,4.217,1.45,6.55c-0.534,1.733-1.85,3.8-3.95,6.2l0.2,0.25c0.466,0.767,0.716,1.533,0.75,2.3
			c0.033,0.434-0.034,1.117-0.2,2.05c-0.167,1.101-0.25,1.801-0.25,2.101h-0.5c-0.033-0.367,0.033-1.101,0.2-2.2
			c0.167-0.833,0.233-1.467,0.2-1.9c-0.033-0.699-0.25-1.383-0.65-2.05c-1.067-1.733-2.533-3.116-4.4-4.149
			c-2.067-1.134-4.1-1.517-6.1-1.15l-0.05,1.1c-0.233,1.967-1.45,3.717-3.65,5.25l-0.1-0.6c1.933-1.4,3-2.967,3.2-4.7
			c0.4-2.899-0.667-5.967-3.2-9.2c-2.067-2.6-4.467-4.666-7.2-6.199c-0.933-0.5-1.85-0.934-2.75-1.3
			c-1.267-0.567-2.167-1.017-2.7-1.35c-0.966-0.567-1.767-1.2-2.4-1.9L40.85,94l-0.35-0.45c0.533-1.066,0.883-1.9,1.05-2.5
			c0.267-0.9,0.35-1.783,0.25-2.65c-0.1-0.566-0.316-1.35-0.65-2.35c-0.333-1-0.55-1.783-0.65-2.35l0.55-0.1
			c0.034,0.267,0.233,1.017,0.6,2.25c0.367,1.066,0.583,1.9,0.65,2.5c0.133,0.933,0.05,1.883-0.25,2.85l-0.2,0.55
			c0.633,0.767,1.433,1.433,2.4,2c0.533,0.333,1.45,0.783,2.75,1.35c1.367,0.6,2.283,1.034,2.75,1.3
			c2.067,1.166,3.95,2.633,5.65,4.399c0.9-1.166,1.8-2,2.7-2.5c-2-1.666-3.567-3.4-4.7-5.2C51.833,90.533,51.317,88.017,51.85,85.55
			z"/>
		<path style="fill-rule:evenodd;clip-rule:evenodd;fill:#92807F;" d="M79.55,124.25L79,124.1c0.5-1.833,1.733-4.333,3.7-7.5
			l1.8-3.149l0.5,0.25c-0.367,0.7-0.983,1.75-1.85,3.149C81.183,120.116,79.983,122.583,79.55,124.25z"/>
	</g>
	
		<linearGradient id="SVGID_5_" gradientUnits="userSpaceOnUse" x1="127.7441" y1="-66.3838" x2="162.1212" y2="-66.3838" gradientTransform="matrix(0.0109 0.9999 -0.9999 0.0109 5.702861e-005 -9.864569e-006)">
		<stop  offset="0" style="stop-color:#947D7C"/>
		<stop  offset="1" style="stop-color:#B49695"/>
	</linearGradient>
	<path style="fill-rule:evenodd;clip-rule:evenodd;fill:url(#SVGID_5_);" d="M59.7,143c0.933-2.566,0.483-5.9-1.35-10l-3.05-5.35
		l4.85,0.75c3.434,0.466,5.6,0.699,6.5,0.699c0.934,0,2-0.899,3.2-2.699l1.55-2.75l11.35,4.75l11.7,11.699l-8.8,46.801l-43.9-13.15
		c2.633-4.066,5.35-8.417,8.15-13.05C55.533,151.5,58.8,145.6,59.7,143z"/>
	<g>
		<path style="fill-rule:evenodd;clip-rule:evenodd;fill:#92807F;" d="M69.05,140.9c-0.033-3.801-1.216-7.601-3.55-11.4l0.45-0.3
			c1.933,3.066,3.1,6.283,3.5,9.649c3.6,0.601,6.95,0.4,10.05-0.6c3.533-1.134,5.9-3.134,7.1-6l0.4,0.4
			c-1.067,2.399-2.917,4.216-5.55,5.449c-2.333,1.101-5.034,1.65-8.1,1.65c-1.067,0-2.333-0.116-3.8-0.35
			c0.233,2.833-0.133,5.366-1.1,7.6c2.767,1.267,4.95,2.816,6.55,4.65c1.6,1.833,2.867,4.216,3.8,7.149l0.4,1.351
			c0.667-4.4,2.267-7.567,4.8-9.5c2.233-1.733,5.183-2.417,8.85-2.051l-0.1,0.551c-3.5-0.367-6.317,0.283-8.45,1.949
			c-2.633,2-4.2,5.417-4.7,10.25c0.467,1.434,1.017,2.517,1.65,3.25c0.767,0.967,1.85,1.65,3.25,2.051l4.8,0.949l-0.1,0.551
			l-1.85-0.351c-1.667-0.333-2.667-0.55-3-0.649c-1.767-0.5-3.083-1.434-3.95-2.801c-0.566-0.833-1.183-2.316-1.85-4.449L78.3,159
			c-0.933-2.9-2.167-5.233-3.7-7s-3.667-3.267-6.4-4.5c-0.934,2-2.217,3.7-3.85,5.1c-1.367,1.233-2.9,2.167-4.6,2.801
			c1.967,1.6,1.833,4.983-0.4,10.149c3.733-0.666,6.8-0.8,9.2-0.399c3.2,0.5,5.85,1.949,7.95,4.35
			c1.267-0.267,2.283-0.583,3.05-0.95c1.034-0.5,1.934-1.233,2.7-2.2l0.45,0.351c-0.934,1.1-2.05,1.934-3.35,2.5
			c-0.767,0.333-1.967,0.666-3.6,1l-1.3,0.25c1.867,1.767,2.966,3.934,3.3,6.5c0.267,2.267-0.083,4.7-1.05,7.3l-0.5-0.15
			c0.933-2.533,1.267-4.916,1-7.149c-0.333-2.5-1.434-4.584-3.3-6.25l0.15-0.101c-1.433,0.334-2.683,0.917-3.75,1.75
			c-0.867,0.7-1.533,1.667-2,2.9c-0.267,0.733-0.55,1.917-0.85,3.55l-0.55,2.5l-0.55-0.149c0.167-0.467,0.35-1.284,0.55-2.45
			c0.3-1.634,0.6-2.867,0.9-3.7c0.5-1.3,1.217-2.333,2.15-3.1c0.8-0.634,1.733-1.134,2.8-1.5c0.633-0.233,1.6-0.483,2.9-0.75
			l0.25-0.051c-2.033-2.199-4.617-3.517-7.75-3.949c-2.333-0.334-5.316-0.184-8.95,0.449l-0.05-0.149l-0.7,1.6
			c-1.767,3.934-3.817,7.05-6.15,9.351l-0.65-0.2c1.1-1.033,2.067-2.134,2.9-3.3c-0.633-1-1.917-1.934-3.85-2.801
			c-1.833-0.8-3.8-1.35-5.9-1.649l0.35-0.55c2.067,0.3,4,0.866,5.8,1.699c1.867,0.867,3.167,1.801,3.9,2.801
			c1.133-1.667,2.167-3.517,3.1-5.551l0.2-0.449c1.133-2.534,1.867-4.534,2.2-6c0.566-2.634,0.15-4.4-1.25-5.301
			c-0.934,0.301-2.4,0.65-4.4,1.051L52,157.3l0.4-0.7l2.2-0.449c2.2-0.467,3.816-0.884,4.85-1.25c1.733-0.634,3.25-1.534,4.55-2.7
			C67.433,149.167,69.117,145.4,69.05,140.9z"/>
	</g>
	<path style="fill-rule:evenodd;clip-rule:evenodd;fill:#8E6B6B;" d="M71.35,121l13.15,4.2l-1.65,3.35l-10.25-3.2l-0.8,2.5
		c-0.933,1.667-2.4,2.434-4.4,2.301c-2-0.101-4.983-0.45-8.95-1.051l-5.35-0.85l3.3-3.85l3.75,1.149c2.7,0.733,4.65,1.033,5.85,0.9
		c1.2-0.101,2.45-1.033,3.75-2.8L71.35,121z"/>
	<path style="fill-rule:evenodd;clip-rule:evenodd;fill:#8E6B6B;" d="M47.2,80.7c6.733,1.667,12.45,1.566,17.15-0.3
		c4.6-1.833,8.566-4.517,11.9-8.05l3.6-4.75l-1.5,5l-0.25,1.25c-0.3,1.033-0.85,2.083-1.65,3.15c-2.534,3.367-6.967,6.233-13.3,8.6
		c-6.367,2.333-15.816,1.316-28.35-3.05c-3.933-1.367-7.933-2.983-12-4.85l-4.95-2.4l5.75-5.75l3.25,2.25
		c2.6,1.667,5.05,3.017,7.35,4.05C39.433,78.217,43.767,79.833,47.2,80.7z"/>
	
		<linearGradient id="SVGID_6_" gradientUnits="userSpaceOnUse" x1="-114.4434" y1="125.4922" x2="-75.4846" y2="125.4922" gradientTransform="matrix(0.0212 -0.9998 0.9998 0.0212 7.556751e-005 3.663301e-004)">
		<stop  offset="0" style="stop-color:#C3ABAA"/>
		<stop  offset="1" style="stop-color:#B49695"/>
	</linearGradient>
	<path style="fill-rule:evenodd;clip-rule:evenodd;fill:url(#SVGID_6_);" d="M144.2,72.95l1.8,6.2c1.634,5.067,3.6,9.95,5.9,14.65
		c2.267,4.7,4.816,8.717,7.649,12.05c1.434,1.667,2.634,2.867,3.601,3.601c-8.233,1.666-15.284,3.133-21.15,4.399
		c-3.634,0.801-14.583,3.483-32.85,8.051c-9.133,2.3-17.9,4.517-26.3,6.649l20.4-38.2L144.2,72.95z"/>
	<g>
		<path style="fill-rule:evenodd;clip-rule:evenodd;fill:#AA9493;" d="M128.9,94.25c-1.534,1.7-3.884,3.1-7.051,4.2
			c1.434,4.566,3.5,7.7,6.2,9.399c2.667,1.733,6.367,2.284,11.101,1.65c1.767-0.233,3.517-0.533,5.25-0.9
			c-2.9-3.166-5.2-7.333-6.9-12.5c-0.733,0.067-1.267,0.101-1.6,0.101C133.1,96.2,130.767,95.55,128.9,94.25z M130.55,82.4
			l-0.05-0.35l0.55-0.05l0.05,0.35c0.4,2.633,0.534,4.633,0.4,6c-0.2,2.133-0.95,3.95-2.25,5.45c2.6,1.867,6.2,2.316,10.8,1.35
			c4.2-0.867,7.45-2.433,9.75-4.7l0.351-0.4l0.25,0.55c-0.067,0.033-0.134,0.117-0.2,0.25c-1.3,1.267-3.05,2.383-5.25,3.35
			c-2.233,1-4.533,1.633-6.9,1.899c1.4,4,3.066,7.317,5,9.95c4.233-3.467,8.05-5.916,11.45-7.35l0.3,0.5
			c-3.267,1.333-7.083,3.767-11.45,7.3c1.867,2.366,3.967,4.267,6.301,5.7l-0.7,0.149c-1.667-1.1-3.033-2.199-4.101-3.3
			c-2.966,0.566-4.85,0.9-5.649,1c-1.4,0.167-2.601,0.25-3.601,0.25c-3.566,0-6.5-0.899-8.8-2.7l-0.05,0.351
			c-2.833-0.2-5.267,0.684-7.3,2.649c-0.101,0.101-0.367,0.4-0.8,0.9c4.166,0.866,7.483,2.717,9.949,5.55l-0.6,0.15
			c-2.5-2.7-5.733-4.434-9.7-5.2c-1.633,2.267-2.483,5.017-2.55,8.25l-0.55,0.15c0-2,0.35-3.9,1.05-5.7c0.667-1.8,1.6-3.3,2.8-4.5
			c2.033-1.967,4.533-2.9,7.5-2.8c-2.267-1.867-4-4.784-5.2-8.75c-2.566,0.8-6.05,1.517-10.449,2.149l-2.5,0.4
			c0.133,5.5-1.917,9.434-6.15,11.8c2.433,1.333,4.317,3.7,5.65,7.1l0.7,1.95l-0.55,0.15l-0.7-1.9c-0.7-1.934-1.633-3.533-2.8-4.8
			c-3.267-0.066-6.3,0.733-9.1,2.4c-3.067,1.833-5.017,4.316-5.85,7.449c-0.1,0.367-0.184,0.9-0.25,1.601l-0.55,0.1
			c0.067-0.8,0.15-1.416,0.25-1.85c0.867-3.167,2.817-5.7,5.85-7.601c2.733-1.699,5.783-2.583,9.15-2.649
			c-1.466-1.4-3.3-2.267-5.5-2.601c-1.933-0.3-4.35-0.183-7.25,0.351l0.35-0.65c4.167-0.7,7.5-0.483,10,0.65
			c3.133-1.634,5.083-4.217,5.85-7.75c0.633-3,0.4-6.25-0.7-9.75c-0.5-1.434-1.1-2.767-1.8-4l0.5-0.25c0.8,1.4,1.4,2.75,1.8,4.05
			c0.6,1.8,0.95,3.684,1.05,5.65l2.5-0.4c5.9-0.866,10.167-1.884,12.801-3.05c4.5-1.967,6.933-4.934,7.3-8.9
			C131.083,86.967,130.95,85,130.55,82.4z"/>
	</g>
	<path style="fill-rule:evenodd;clip-rule:evenodd;fill:#CFBDBB;" d="M142.3,76.35l1.75,5.35c1.3,3.933,2.3,6.783,3,8.55
		c1.167,3.033,3.55,6.8,7.15,11.3c1.767,2.233,3.434,4.167,5,5.8c-2.9,0.5-5.95,0.617-9.15,0.351c-6.366-0.5-10.267-2.601-11.7-6.3
		c-1.399-3.7-1.166-8.984,0.7-15.851L142.3,76.35z"/>
	
		<linearGradient id="SVGID_7_" gradientUnits="userSpaceOnUse" x1="-80.6157" y1="128.2207" x2="-32.3407" y2="128.2207" gradientTransform="matrix(2.071466e-005 -1 1 -0.001 -6.461261e-005 -2.972595e-004)">
		<stop  offset="0" style="stop-color:#C3ABAA"/>
		<stop  offset="1" style="stop-color:#B49695"/>
	</linearGradient>
	<path style="fill-rule:evenodd;clip-rule:evenodd;fill:url(#SVGID_7_);" d="M177.85,39.85c-4.066,2.066-8.433,4.483-13.1,7.25
		c-9.333,5.467-15.45,9.883-18.35,13.25c-2.9,3.367-3.467,6.5-1.7,9.4c0.899,1.467,2.083,2.6,3.55,3.4l-45,17.2
		c-1,0-4.667-0.617-11-1.85c-4.533-0.867-8.1-3.217-10.7-7.05c-2.433-3.6-3.367-7.333-2.8-11.2c0.433-3.067,3.417-9.9,8.95-20.5
		c2.8-5.3,5.533-10.3,8.2-15L111,33.6c11-1.4,18.783-3.7,23.35-6.9c4.567-3.2,7.584-7.817,9.051-13.85
		c0.433-1.9,0.699-3.817,0.8-5.75V4.75L177.85,39.85z"/>
	<g>
		<path style="fill-rule:evenodd;clip-rule:evenodd;fill:#AA9493;" d="M124.25,53.15l-2,1.75c-3.566,2.7-8.116,4.05-13.65,4.05
			c-1.667,0-3.633-0.117-5.9-0.35c-0.6,1-1.25,1.867-1.95,2.6c-1.4,1.5-3.05,2.716-4.95,3.65c0.333,4.167,1.633,7.933,3.9,11.3
			c2.233,3.333,5.167,5.934,8.8,7.8c0.9-3.6,2.267-6.467,4.1-8.6c1.834-2.1,4.233-3.583,7.2-4.45c1.334-0.367,2.8-0.633,4.4-0.8
			c-0.5-1.633-0.8-3.317-0.9-5.05l-0.1-0.15h0.05C123.017,61.1,123.35,57.183,124.25,53.15z M163.15,24.55L163.6,25
			c-5.566,1.1-10.033,3.433-13.399,7c1,3.533,1.467,7.35,1.399,11.45c6.067-3.833,12.584-4.983,19.551-3.45
			c1.333,0.3,2.75,0.683,4.25,1.15l-0.7,0.35l-3.65-1c-4.899-1.033-9.5-0.783-13.8,0.75c-4.3,1.567-8.533,4.517-12.7,8.85
			c1.667,1.433,3.033,3.35,4.101,5.75l0.649,1.7l-0.45,0.4l-0.699-1.9c-1.634-3.733-4.101-6.316-7.4-7.75
			c-2.733-1.2-6.616-1.8-11.65-1.8c-1.033,2.1-2.399,4.067-4.1,5.9c-1.066,4.333-1.45,8.383-1.15,12.15
			c2.967-1.8,6.301-2.867,10-3.2c3.7-0.333,7.134,0.133,10.301,1.4l0.449,0.2l-0.199,0.5l-0.45-0.2
			c-2.434-0.967-5.017-1.45-7.75-1.45c0.633,2.7,1.5,4.583,2.6,5.65c1.233,1.233,3.05,1.733,5.45,1.5l0.3,0.55L143,69.6
			c-2.134,0-3.783-0.7-4.95-2.1c-1-1.167-1.8-3.067-2.399-5.7c-4.467,0.1-8.384,1.217-11.75,3.35
			c0.566,6.434,2.983,10.75,7.25,12.95c0.699,0.333,1.5,0.55,2.399,0.65l-1,0.4c-0.666-0.167-1.217-0.367-1.649-0.6
			c-3.167-1.6-5.351-4.283-6.551-8.05v0.15c-1.899,0.2-3.366,0.467-4.399,0.8c-2.867,0.8-5.184,2.233-6.95,4.3
			c-1.8,2.067-3.133,4.867-4,8.4c1.066,0.533,1.884,0.9,2.45,1.1c0.899,0.3,1.899,0.567,3,0.8l-0.9,0.35l-2.25-0.65
			c-4.167-1.467-7.6-3.783-10.3-6.95l-0.05,0.2c-6.967-0.533-13.133,0.7-18.5,3.7l-0.3-0.45c5.3-3.033,11.483-4.3,18.55-3.8
			c-3.2-3.867-5.017-8.317-5.45-13.35c-1.833,0.867-3.617,1.3-5.35,1.3c-1.8,0-3.4-0.467-4.8-1.4c-1.2-0.767-2.233-2-3.1-3.7
			l0.3-0.65c0.9,1.833,1.934,3.133,3.1,3.9c2.133,1.367,4.733,1.617,7.8,0.75c2.8-0.8,5.183-2.283,7.15-4.45
			c2.533-2.767,4-6.417,4.4-10.95c0.267-2.633,0.117-6.683-0.45-12.15l0.55-0.05c0.467,4.6,0.667,8.083,0.6,10.45
			c-0.167,3.934-0.983,7.233-2.45,9.9c4.133,0.434,7.55,0.45,10.25,0.05c3.267-0.533,6.15-1.75,8.65-3.65
			c2.566-1.934,4.649-4.333,6.25-7.2c1.566-2.833,2.399-5.65,2.5-8.45c0.033-1.9-0.434-4.15-1.4-6.75l0.55-0.2
			c0.967,2.633,1.434,4.95,1.4,6.95c-0.101,2.3-0.7,4.684-1.8,7.15c3.366,0.033,6.133,0.3,8.3,0.8c2.6,0.6,4.75,1.6,6.45,3
			c2.3-2.433,4.649-4.433,7.05-6h-0.15c0.066-4.1-0.366-7.883-1.3-11.35l-0.4-0.35l0.25-0.25c-1-3.466-2.466-6.483-4.399-9.05
			c-0.834-1.1-1.783-2.133-2.851-3.1l0.4-0.4c1.1,1,2.066,2.05,2.9,3.15c1.833,2.467,3.3,5.45,4.399,8.95
			C153.384,27.917,157.75,25.65,163.15,24.55z"/>
	</g>
	<polygon style="fill-rule:evenodd;clip-rule:evenodd;fill:#CFBDBB;" points="82.85,128.55 138.85,114.65 145.85,129.5 94.45,140.1 
			"/>
	<path style="fill-rule:evenodd;clip-rule:evenodd;fill:#CFBDBB;" d="M109.2,52.3c1.399,2.867,2.233,6.483,2.5,10.85
		c0.233,4.233-0.15,7.934-1.15,11.1c-1.066,3.467-2.65,5.35-4.75,5.65c-4.167,0.6-7.367-0.65-9.6-3.75
		c-2-2.833-2.883-6.583-2.65-11.25c0.567-11.367,3.733-17.15,9.5-17.35C105.55,47.483,107.6,49.067,109.2,52.3z"/>
	<path style="fill-rule:evenodd;clip-rule:evenodd;fill:#7D5F5F;" d="M102.85,50.1c2-0.267,3.65,1.133,4.95,4.2
		c1.167,2.767,1.784,6.117,1.85,10.05c0.033,4.066-0.55,7.35-1.75,9.85c-1.367,2.833-3.283,3.95-5.75,3.35
		c-2.467-0.6-4.233-2.35-5.3-5.25c-0.9-2.533-1.167-5.566-0.8-9.1c0.367-3.333,1.167-6.267,2.4-8.8
		C99.783,51.733,101.25,50.3,102.85,50.1z"/>
	<path style="fill-rule:evenodd;clip-rule:evenodd;fill:#7D5F5F;" d="M142,79.35l1.35,5c1.167,3.867,2.434,7.083,3.801,9.65
		c1.366,2.6,3.233,5.45,5.6,8.55c1.2,1.566,2.25,2.867,3.15,3.9c-2.5,0.066-5.067-0.167-7.7-0.7c-5.233-1.033-8.15-3-8.75-5.9
		C138.85,96.95,139.1,92.667,140.2,87L142,79.35z"/>
	<path style="fill-rule:evenodd;clip-rule:evenodd;fill:#CFBDBB;" d="M137.45,32.2c3.267-4.633,5.517-8.117,6.75-10.45
		c1.233-2.3,2.767-5.833,4.6-10.6l26.15,28.1c-13.3-2.267-21.533-3.883-24.7-4.85c-1.967-0.633-4.7-1.183-8.2-1.65L137.45,32.2z"/>
	<path style="fill-rule:evenodd;clip-rule:evenodd;fill:#7D5F5F;" d="M142.55,29.8c1.066-1.233,2.434-3.517,4.101-6.85
		c1.8-3.767,3-6.3,3.6-7.6L168.6,35.8C153.934,32.3,145.25,30.3,142.55,29.8z"/>
	<path style="fill-rule:evenodd;clip-rule:evenodd;fill:#CFBDBB;" d="M96.1,143l2.85-0.8c2.466-0.101,5.05,0.934,7.75,3.1
		c1.867,1.5,3.533,4.667,5,9.5c0.733,2.434,1.267,4.7,1.6,6.8l-21.2,2.351L96.1,143z"/>
	<path style="fill-rule:evenodd;clip-rule:evenodd;fill:#7D5F5F;" d="M108.3,151.3c1.333,2.967,2.233,6.033,2.7,9.2l-16.45,1.1
		l3-17.85C102.017,142.85,105.6,145.366,108.3,151.3z"/>
	<path style="fill-rule:evenodd;clip-rule:evenodd;fill:#8E6B6B;" d="M140.65,143.75l1.899,37.2l-21,2.149
		c-1.7-6.133-2.967-12.433-3.8-18.899c-1.7-12.9-0.384-20.084,3.95-21.55c4.366-1.467,8.833-1.733,13.399-0.801
		C137.4,142.35,139.25,142.983,140.65,143.75z"/>
	<path style="fill-rule:evenodd;clip-rule:evenodd;fill:#AB8F8E;" d="M138.7,145.1l2.35,36.051L123.4,182.85
		c-1.067-5.199-1.95-10.583-2.65-16.149c-1.4-11.2-1.217-17.8,0.55-19.8s5.2-2.9,10.3-2.7C134.134,144.3,136.5,144.6,138.7,145.1z"
		/>
	<path style="fill-rule:evenodd;clip-rule:evenodd;fill:#7D5F5F;" d="M122.8,162.75c0.934-0.066,1.533,0.417,1.8,1.45
		c0.301,1.066-0.05,1.684-1.05,1.85c-0.967,0.2-1.517-0.283-1.649-1.45C121.733,163.434,122.033,162.816,122.8,162.75z"/>
	<path style="fill-rule:evenodd;clip-rule:evenodd;fill:#C1A9A8;" d="M58.35,55.7c2.566-0.067,4.617,1.066,6.15,3.4
		c1.333,2.1,2.017,4.7,2.05,7.8c0.067,3.1-0.533,5.75-1.8,7.95c-1.4,2.467-3.267,3.767-5.6,3.9c-2.3,0.133-4.05-0.983-5.25-3.35
		c-1.066-2.066-1.55-4.7-1.45-7.9c0.066-3.1,0.633-5.783,1.7-8.05C55.283,56.983,56.683,55.733,58.35,55.7z"/>
	<path style="fill-rule:evenodd;clip-rule:evenodd;fill:#745859;" d="M58.9,60.35c1.233,0.2,2.233,1.066,3,2.6
		c0.7,1.433,1.067,3.066,1.1,4.9c0.033,1.833-0.283,3.3-0.95,4.4c-0.733,1.233-1.783,1.65-3.15,1.25c-2.7-0.767-3.867-3.233-3.5-7.4
		c0.133-1.633,0.533-3.017,1.2-4.15C57.267,60.75,58.033,60.217,58.9,60.35z"/>
	<path style="fill-rule:evenodd;clip-rule:evenodd;fill:#C1A9A8;" d="M66.55,141h6.8c4.566,0.366,6.967,1.467,7.2,3.3
		c0.367,2.934-0.367,8.783-2.2,17.55l-17.8-4.949L66.55,141z"/>
	<path style="fill-rule:evenodd;clip-rule:evenodd;fill:#745859;" d="M67.4,144.05l4.2-0.2c2.967-0.033,4.85,0.301,5.65,1
		c0.8,0.7,1,3.417,0.6,8.15c-0.2,2.4-0.483,4.717-0.85,6.95l-14.3-4.15L67.4,144.05z"/>
	<path style="fill-rule:evenodd;clip-rule:evenodd;fill:#8E6B6B;" d="M100.3,141.15c-1.7,0.3-3.316,0.85-4.85,1.649
		c-0.733,0.4-1.317,0.767-1.75,1.101l0.75-3.801L146.1,128.95l1.65,4.25L100.3,141.15z"/>
	<polygon style="fill-rule:evenodd;clip-rule:evenodd;fill:#8E6B6B;" points="148.3,76.1 101.4,93.25 103.25,90.35 148.25,73.15 	
		"/>
	<path style="fill-rule:evenodd;clip-rule:evenodd;fill:#8E6B6B;" d="M95.9,34.75l14.7-1.6c10.367-1.433,17-2.983,19.9-4.65
		c3.333-1.867,6.1-4.233,8.3-7.1c2-2.6,3.25-5.217,3.75-7.85l1.65-8.8l4,2.35l-1.601,6.35c-1.633,4.867-3.85,8.833-6.649,11.9
		c-3.233,3.6-6.134,6.1-8.7,7.5c-2.3,1.233-5.8,2.3-10.5,3.2c-3.767,0.767-9.5,1.567-17.2,2.4l-10.4,1.05L95.9,34.75z"/>
	<polygon style="fill-rule:evenodd;clip-rule:evenodd;fill:#8E6B6B;" points="93.15,39.5 51.75,14.55 53.4,10.85 95.9,34.75 	"/>
	<path style="fill-rule:evenodd;clip-rule:evenodd;fill:#C1A9A8;" d="M80.85,116.85L80,89.15c1.133,3.767,4.267,5.9,9.4,6.4
		c2.567,0.267,5.017,0.15,7.35-0.35L80.85,116.85z"/>
	<path style="fill-rule:evenodd;clip-rule:evenodd;fill:#745859;" d="M81.95,96c1.367,1.967,3.133,3.017,5.3,3.15
		c1.1,0.066,2.067-0.067,2.9-0.4l-7.4,11.55L81.95,96z"/>
	<polygon style="fill-rule:evenodd;clip-rule:evenodd;fill:#CFBDBB;" points="139.95,146.3 142.1,145.9 142.95,151.7 140.65,151.8 	
		"/>
	<polygon style="fill-rule:evenodd;clip-rule:evenodd;fill:#CFBDBB;" points="141.45,170.85 143.6,171 144.05,177.2 141.75,177.2 	
		"/>
	<path style="fill-rule:evenodd;clip-rule:evenodd;fill:#8E6B6B;" d="M98.5,145.4c1.733-0.934,3.467-0.584,5.2,1.05
		c1.333,1.267,2.4,2.967,3.2,5.1c0.533,1.434,0.533,2.667,0,3.7c-0.267,0.5-0.583,0.866-0.95,1.1c-0.2-0.899-0.75-2.816-1.65-5.75
		c-0.566-1.833-1.7-3.25-3.4-4.25L98.5,145.4z"/>
	<path style="fill-rule:evenodd;clip-rule:evenodd;fill:#8E6B6B;" d="M71.1,144.85l2.55,0.051c1.767,0.133,2.783,0.433,3.05,0.899
		c0.461,0.725,0.336,3.283-0.375,7.675c0.112-0.814,0.137-1.706,0.075-2.675c-0.1-2-0.583-3.35-1.45-4.05s-1.767-1.217-2.7-1.55
		L71.1,144.85z"/>
	<path style="fill-rule:evenodd;clip-rule:evenodd;fill:#8E6B6B;" d="M141.85,82.45l3.051,9.2l-2.051-2.9
		c-0.3-0.4-0.683,0.65-1.149,3.15c-0.233,1.233-0.45,2.517-0.65,3.85c-0.467-0.733-0.6-2.25-0.399-4.55
		c0.1-1.4,0.333-3.284,0.699-5.65L141.85,82.45z"/>
	<path style="fill-rule:evenodd;clip-rule:evenodd;fill:#8E6B6B;" d="M84.1,99.6l0.6,0.4c0.5,0.3,0.95,0.483,1.35,0.55
		c0.633,0.101,1.5-0.083,2.6-0.55l-4,5.75c0.833-2.2,1.167-3.517,1-3.95c-0.133-0.3-0.433-0.75-0.9-1.35L84.1,99.6z"/>
	<path style="fill-rule:evenodd;clip-rule:evenodd;fill:#8E6B6B;" d="M102.35,51c0.767-0.733,1.733-0.45,2.9,0.85
		c1.233,1.367,2.15,3.383,2.75,6.05c0.5,2.333,0.35,4.583-0.45,6.75c-0.4,1.1-0.85,1.95-1.35,2.55c0.267-3.1,0.183-6.383-0.25-9.85
		c-0.3-2.2-0.983-3.917-2.05-5.15L102.35,51z"/>
	<path style="fill-rule:evenodd;clip-rule:evenodd;fill:#8E6B6B;" d="M58.6,62.8c1.033,0.233,1.767,1.317,2.2,3.25
		c0.233,0.967,0.367,1.9,0.4,2.8c-0.233,0.066-0.45,0.083-0.65,0.05c-0.4-0.1-0.55-0.433-0.45-1c0.133-0.566-0.083-1.583-0.65-3.05
		L58.6,62.8z"/>
	<path style="fill-rule:evenodd;clip-rule:evenodd;fill:#8E6B6B;" d="M147.75,22.1l2.5-5.25l13.15,14.4
		c-6.4-5.733-10.15-9.067-11.25-10c-0.7-0.567-1.634-0.6-2.801-0.1L147.75,22.1z"/>
	<path style="fill-rule:evenodd;clip-rule:evenodd;fill:#574343;" d="M93.7,21.55c3-0.167,5.283,1.034,6.85,3.6
		c0.6,1.033,0.7,1.934,0.3,2.7c-0.434,0.867-1.467,1.333-3.1,1.4c-3.433,0.167-5.75-1.017-6.95-3.55c-0.5-1.034-0.533-1.95-0.1-2.75
		C91.233,22.117,92.233,21.65,93.7,21.55z"/>
	<path style="fill-rule:evenodd;clip-rule:evenodd;fill:#574343;" d="M126.65,6.95c3.5-1.567,5.85-1,7.05,1.7
		c0.467,1.067,0.517,2.2,0.149,3.4c-0.399,1.267-1.216,2.25-2.449,2.95c-2.267,1.3-3.9,0.417-4.9-2.65
		c-0.366-1.133-0.533-2.267-0.5-3.4S126.25,7.15,126.65,6.95z"/>
</g>
<g>
	
		<linearGradient id="SVGID_8_" gradientUnits="userSpaceOnUse" x1="16.0986" y1="-195.7017" x2="31.8511" y2="-195.7017" gradientTransform="matrix(-0.8697 0.4936 -0.4936 -0.8697 -7.926226e-004 3.163815e-004)">
		<stop  offset="0" style="stop-color:#C4D5D0"/>
		<stop  offset="1" style="stop-color:#71A697"/>
	</linearGradient>
	<path style="fill-rule:evenodd;clip-rule:evenodd;fill:url(#SVGID_8_);" d="M83.95,190.8L79.4,189.9l-4.95,0.75l-1.5-1.5
		c-1.867-0.334-3.317-0.634-4.35-0.9c-0.633-0.167-1.767-0.25-3.4-0.25h-2.3c3.233-2.634,5.133-4.417,5.7-5.35
		c0.367-0.567,0.7-1.5,1-2.801l0.3-1.75l2.4-1.25l-0.5-6l1.55,1.75c1.133,1.134,1.933,1.7,2.4,1.7c0.733,0,1.233-0.467,1.5-1.399
		l0.35,1.05c0.333,0.733,0.85,1.149,1.55,1.25c1.1,0.166,2.033-0.134,2.8-0.9l0.5,2.65c0.466,1.8,1.017,2.783,1.65,2.95
		c1,0.233,1.8,0.1,2.4-0.4l-2.25,2.5c-1.3,1.767-1.483,2.917-0.55,3.45c1.533,0.866,3.316,1.383,5.35,1.55L83.95,190.8z"/>
	<g>
		
			<use xlink:href="#FlashAICB_x5F_1_x2F_buildings-back_x2F__x3C_Path_x3E_"  width="21.05" height="19.95" y="-19.95" transform="matrix(1 0 0 -1 62.8999 170.8496)" style="overflow:visible;enable-background:new    ;"/>
	</g>
	<g>
		
			<use xlink:href="#FlashAICB_x5F_1_x2F_buildings-back_x2F__x3C_Path_x3E__x5F_0"  width="12.95" height="12.55" y="-12.55" transform="matrix(1 0 0 -1 62.8999 178.0996)" style="overflow:visible;enable-background:new    ;"/>
	</g>
	
		<use xlink:href="#FlashAICB_x5F_1_x2F_buildings-back_x2F__x3C_Path_x3E__x5F_3"  width="8.11" height="4.15" x="-0.01" y="-4.15" transform="matrix(1 0 0 -1 78.3999 179.5)" style="overflow:visible;enable-background:new    ;"/>
	
		<use xlink:href="#FlashAICB_x5F_1_x2F_buildings-back_x2F__x3C_Path_x3E__x5F_2"  width="3.2" height="2" y="-2" transform="matrix(1 0 0 -1 79.7998 184.8496)" style="overflow:visible;opacity:0.5;enable-background:new    ;"/>
	
		<use xlink:href="#FlashAICB_x5F_1_x2F_buildings-back_x2F__x3C_Path_x3E__x5F_1"  width="14.15" height="9.737" y="-9.737" transform="matrix(1 0 0 -1 71.7998 170.8496)" style="overflow:visible;opacity:0.75;enable-background:new    ;"/>
	<g>
		
			<use xlink:href="#FlashAICB_x5F_1_x2F_buildings-back_x2F__x3C_Path_x3E__x5F_4"  width="7.85" height="7.55" y="-7.55" transform="matrix(1 0 0 -1 65.1001 181.5996)" style="overflow:visible;enable-background:new    ;"/>
	</g>
	
		<use xlink:href="#FlashAICB_x5F_1_x2F_buildings-back_x2F__x3C_Path_x3E__x5F_5"  width="8.95" height="11.55" y="-11.55" transform="matrix(1 0 0 -1 72.0498 177.9004)" style="overflow:visible;enable-background:new    ;"/>
	<g>
		
			<use xlink:href="#FlashAICB_x5F_1_x2F_buildings-back_x2F__x3C_Path_x3E__x5F_7"  width="5.4" height="3.4" y="-3.4" transform="matrix(1 0 0 -1 82.6001 186.7998)" style="overflow:visible;opacity:0.5;enable-background:new    ;"/>
	</g>
</g>
<g>
	<polygon style="fill-rule:evenodd;clip-rule:evenodd;fill:#787B68;" points="157.45,175.3 154.55,178.95 158.5,177.9 152.65,181.1 
		151.05,180.7 149.7,181.75 143.35,177.65 147.9,179.25 145.75,169.15 149.15,177.7 148.15,156.95 150.45,175.15 151.25,160.8 
		151.9,174.4 155.85,156.6 152.3,177.55 155.3,172.5 152.95,178.35 	"/>
	
		<use xlink:href="#FlashAICB_x5F_1_x2F_buildings-back_x2F__x3C_Path_x3E__x5F_7_x5F_0"  width="5.05" height="2.45" y="-2.45" transform="matrix(1 0 0 -1 152.7002 178.1504)" style="overflow:visible;opacity:0.5;enable-background:new    ;"/>
	
		<use xlink:href="#FlashAICB_x5F_1_x2F_buildings-back_x2F__x3C_Path_x3E__x5F_6_x5F_1"  width="2.75" height="3" y="-3" transform="matrix(1 0 0 -1 154.2998 175.7002)" style="overflow:visible;opacity:0.5;enable-background:new    ;"/>
	
		<use xlink:href="#FlashAICB_x5F_1_x2F_buildings-back_x2F__x3C_Path_x3E__x5F_5_x5F_0"  width="2.45" height="4.75" y="-4.75" transform="matrix(1 0 0 -1 152.1504 174)" style="overflow:visible;opacity:0.5;enable-background:new    ;"/>
	
		<use xlink:href="#FlashAICB_x5F_1_x2F_buildings-back_x2F__x3C_Path_x3E__x5F_4_x5F_0"  width="3.15" height="16.15" y="-16.15" transform="matrix(1 0 0 -1 151.9004 160.5498)" style="overflow:visible;opacity:0.5;enable-background:new    ;"/>
	
		<use xlink:href="#FlashAICB_x5F_1_x2F_buildings-back_x2F__x3C_Path_x3E__x5F_3_x5F_0"  width="0.65" height="12.55" y="-12.55" transform="matrix(1 0 0 -1 151.0498 163.2002)" style="overflow:visible;opacity:0.5;enable-background:new    ;"/>
	
		<use xlink:href="#FlashAICB_x5F_1_x2F_buildings-back_x2F__x3C_Path_x3E__x5F_2_x5F_0"  width="1.95" height="17.35" y="-17.35" transform="matrix(1 0 0 -1 148.5996 161.1504)" style="overflow:visible;opacity:0.5;enable-background:new    ;"/>
	
		<use xlink:href="#FlashAICB_x5F_1_x2F_buildings-back_x2F__x3C_Path_x3E__x5F_1_x5F_0"  width="3.5" height="8.7" y="-8.7" transform="matrix(1 0 0 -1 146.2002 170.6504)" style="overflow:visible;opacity:0.5;enable-background:new    ;"/>
	
		<use xlink:href="#FlashAICB_x5F_1_x2F_buildings-back_x2F__x3C_Path_x3E__x5F_8"  width="3.9" height="1.7" y="-1.7" transform="matrix(1 0 0 -1 144.25 178)" style="overflow:visible;opacity:0.5;enable-background:new    ;"/>
</g>
<g>
	<polygon style="fill-rule:evenodd;clip-rule:evenodd;fill:#787B68;" points="96.5,185.15 100.95,186 98.25,183.3 102.1,185.75 
		97.85,179.9 102.25,183.15 99,174.8 104.6,184.05 101.35,173.55 105.75,184.15 106.35,178.8 106.75,184.3 111.6,168.8 108,184.3 
		111.35,175.4 109.6,184.9 113.25,179.3 110.1,186.3 109,186.3 108.1,186.9 106,186.65 104.85,187.4 103.25,187.05 101.85,187.8 	
		"/>
	
		<use xlink:href="#FlashAICB_x5F_1_x2F_buildings-back_x2F__x3C_Path_x3E__x5F_8_x5F_0"  width="3.15" height="4.9" y="-4.9" transform="matrix(1 0 0 -1 109.3999 180.5498)" style="overflow:visible;opacity:0.5;enable-background:new    ;"/>
	
		<use xlink:href="#FlashAICB_x5F_1_x2F_buildings-back_x2F__x3C_Path_x3E__x5F_7_x5F_1"  width="2" height="8.15" y="-8.15" transform="matrix(1 0 0 -1 109.0498 176.5996)" style="overflow:visible;opacity:0.5;enable-background:new    ;"/>
	
		<use xlink:href="#FlashAICB_x5F_1_x2F_buildings-back_x2F__x3C_Path_x3E__x5F_6_x5F_2"  width="3.75" height="13.75" y="-13.75" transform="matrix(1 0 0 -1 107.25 171)" style="overflow:visible;opacity:0.5;enable-background:new    ;"/>
	
		<use xlink:href="#FlashAICB_x5F_1_x2F_buildings-back_x2F__x3C_Path_x3E__x5F_5_x5F_1"  width="0.55" height="4.8" y="-4.8" transform="matrix(1 0 0 -1 106.1499 180.0498)" style="overflow:visible;opacity:0.5;enable-background:new    ;"/>
	
		<use xlink:href="#FlashAICB_x5F_1_x2F_buildings-back_x2F__x3C_Path_x3E__x5F_4_x5F_1"  width="3.25" height="8.25" y="-8.25" transform="matrix(1 0 0 -1 102.4502 176.4004)" style="overflow:visible;opacity:0.5;enable-background:new    ;"/>
	
		<use xlink:href="#FlashAICB_x5F_1_x2F_buildings-back_x2F__x3C_Path_x3E__x5F_3_x5F_1"  width="4.65" height="7.75" y="-7.75" transform="matrix(1 0 0 -1 99.8999 176.5)" style="overflow:visible;opacity:0.5;enable-background:new    ;"/>
	
		<use xlink:href="#FlashAICB_x5F_1_x2F_buildings-back_x2F__x3C_Path_x3E__x5F_2_x5F_1"  width="4.3" height="3.95" y="-3.95" transform="matrix(1 0 0 -1 98.3501 180.3496)" style="overflow:visible;opacity:0.5;enable-background:new    ;"/>
	
		<use xlink:href="#FlashAICB_x5F_1_x2F_buildings-back_x2F__x3C_Path_x3E__x5F_1_x5F_1"  width="3.2" height="2.25" y="-2.25" transform="matrix(1 0 0 -1 98.9502 183.7998)" style="overflow:visible;opacity:0.5;enable-background:new    ;"/>
	
		<use xlink:href="#FlashAICB_x5F_1_x2F_buildings-back_x2F__x3C_Path_x3E__x5F_9"  width="4.15" height="1.05" y="-1.05" transform="matrix(1 0 0 -1 97 185.3496)" style="overflow:visible;opacity:0.5;enable-background:new    ;"/>
</g>
<g>
	<polygon style="fill-rule:evenodd;clip-rule:evenodd;fill:#A48476;" points="116.55,186.1 122.7,178.05 117.6,186.3 123,183 
		118.2,186.85 116.75,187.1 115.5,187.7 113.75,187.05 112.85,187.55 112.1,186.65 108.15,180.85 113.2,186.15 108.85,177.9 
		114.8,186.55 113.15,180.6 115.65,185.6 116.5,180.4 	"/>
	
		<use xlink:href="#FlashAICB_x5F_1_x2F_buildings-back_x2F__x3C_Path_x3E__x5F_5_x5F_2"  width="4" height="5.65" y="-5.65" transform="matrix(1 0 0 -1 116.8496 180.9004)" style="overflow:visible;opacity:0.5;enable-background:new    ;"/>
	
		<use xlink:href="#FlashAICB_x5F_1_x2F_buildings-back_x2F__x3C_Path_x3E__x5F_4_x5F_2"  width="3.95" height="2.95" y="-2.95" transform="matrix(1 0 0 -1 117.9502 183.7998)" style="overflow:visible;opacity:0.5;enable-background:new    ;"/>
	
		<use xlink:href="#FlashAICB_x5F_1_x2F_buildings-back_x2F__x3C_Path_x3E__x5F_3_x5F_2"  width="0.35" height="4.3" y="-4.3" transform="matrix(1 0 0 -1 116 182.4004)" style="overflow:visible;opacity:0.5;enable-background:new    ;"/>
	
		<use xlink:href="#FlashAICB_x5F_1_x2F_buildings-back_x2F__x3C_Path_x3E__x5F_2_x5F_2"  width="1.8" height="4" y="-4" transform="matrix(1 0 0 -1 113.75 182)" style="overflow:visible;opacity:0.5;enable-background:new    ;"/>
	
		<use xlink:href="#FlashAICB_x5F_1_x2F_buildings-back_x2F__x3C_Path_x3E__x5F_1_x5F_2"  width="4.45" height="6.7" y="-6.7" transform="matrix(1 0 0 -1 110.25 180)" style="overflow:visible;opacity:0.5;enable-background:new    ;"/>
	
		<use xlink:href="#FlashAICB_x5F_1_x2F_buildings-back_x2F__x3C_Path_x3E__x5F_10"  width="3.9" height="4.6" y="-4.6" transform="matrix(1 0 0 -1 109.2998 182.25)" style="overflow:visible;opacity:0.5;enable-background:new    ;"/>
</g>
<g>
	
		<linearGradient id="SVGID_9_" gradientUnits="userSpaceOnUse" x1="33.0811" y1="-169.4365" x2="52.7747" y2="-169.4365" gradientTransform="matrix(-0.8696 0.4938 -0.4938 -0.8696 -2.921820e-004 3.826618e-004)">
		<stop  offset="0" style="stop-color:#C4D5D0"/>
		<stop  offset="1" style="stop-color:#71A697"/>
	</linearGradient>
	<path style="fill-rule:evenodd;clip-rule:evenodd;fill:url(#SVGID_9_);" d="M51.25,157.4c-1.033,3.066-1.4,5.1-1.1,6.1l0.3,0.65
		c0.633,0.933,1.8,1.199,3.5,0.8l0.1-0.05h0.05l-2.4,7.5l-2.25,0.949l2.25,2l2.25-0.6l1.85,4.8l-7.6,3.4L42.55,181l-4.25,0.8
		l-5.35-1.1c0.833-1.267,1.6-2.5,2.3-3.7l0.55-0.9c0.667-1.133,1.05-1.833,1.15-2.1c0.2-0.533,0.1-0.967-0.3-1.3l-0.6-0.351
		l1.15-3.05l4.05,0.55l0.85-9.149l-4.05-0.45l1.25-4.1l4.5-1.4l2,2l2.95-0.45l0.85-3.5l3.25,0.25L51.25,157.4z"/>
	
		<use xlink:href="#FlashAICB_x5F_1_x2F_buildings-back_x2F__x3C_Path_x3E__x5F_16"  width="15.25" height="26.8" y="-26.8" transform="matrix(1 0 0 -1 32.9502 156.1504)" style="overflow:visible;enable-background:new    ;"/>
	
		<use xlink:href="#FlashAICB_x5F_1_x2F_buildings-back_x2F__x3C_Path_x3E__x5F_15"  width="6.2" height="7.9" y="-7.9" transform="matrix(1 0 0 -1 42 175.0498)" style="overflow:visible;enable-background:new    ;"/>
	
		<use xlink:href="#FlashAICB_x5F_1_x2F_buildings-back_x2F__x3C_Path_x3E__x5F_14"  width="11.4" height="1.65" y="-1.65" transform="matrix(1 0 0 -1 36.0498 172.3496)" style="overflow:visible;enable-background:new    ;"/>
	
		<use xlink:href="#FlashAICB_x5F_1_x2F_buildings-back_x2F__x3C_Path_x3E__x5F_13"  width="6.15" height="1.707" y="-1.707" transform="matrix(1 0 0 -1 41.75 164.9502)" style="overflow:visible;enable-background:new    ;"/>
	
		<use xlink:href="#FlashAICB_x5F_1_x2F_buildings-back_x2F__x3C_Path_x3E__x5F_12"  width="7.05" height="5.45" y="-5.45" transform="matrix(1 0 0 -1 39.2998 156.1504)" style="overflow:visible;enable-background:new    ;"/>
	
		<use xlink:href="#FlashAICB_x5F_1_x2F_buildings-back_x2F__x3C_Path_x3E__x5F_11"  width="6.2" height="6.95" y="-6.95" transform="matrix(1 0 0 -1 32.9502 174.8496)" style="overflow:visible;enable-background:new    ;"/>
	
		<use xlink:href="#FlashAICB_x5F_1_x2F_buildings-back_x2F__x3C_Path_x3E__x5F_10_x5F_0"  width="5.35" height="5.55" y="-5.55" transform="matrix(1 0 0 -1 32.9502 176.25)" style="overflow:visible;enable-background:new    ;"/>
	
		<use xlink:href="#FlashAICB_x5F_1_x2F_buildings-back_x2F__x3C_Path_x3E__x5F_9_x5F_0"  width="5.55" height="2.95" y="-2.95" transform="matrix(1 0 0 -1 38.9502 158.1504)" style="overflow:visible;enable-background:new    ;"/>
	
		<use xlink:href="#FlashAICB_x5F_1_x2F_buildings-back_x2F__x3C_Path_x3E__x5F_8_x5F_1"  width="1.95" height="5.4" y="-5.4" transform="matrix(1 0 0 -1 39.4502 174.6504)" style="overflow:visible;enable-background:new    ;"/>
	
		<use xlink:href="#FlashAICB_x5F_1_x2F_buildings-back_x2F__x3C_Path_x3E__x5F_7_x5F_2"  width="8.55" height="4.8" y="-4.8" transform="matrix(1 0 0 -1 37.75 167.3496)" style="overflow:visible;enable-background:new    ;"/>
	
		<use xlink:href="#FlashAICB_x5F_1_x2F_buildings-back_x2F__x3C_Path_x3E__x5F_6_x5F_3"  width="6.25" height="2.9" y="-2.9" transform="matrix(1 0 0 -1 47.7002 174.75)" style="overflow:visible;opacity:0.5;enable-background:new    ;"/>
	
		<use xlink:href="#FlashAICB_x5F_1_x2F_buildings-back_x2F__x3C_Path_x3E__x5F_5_x5F_3"  width="8.7" height="2.45" y="-2.45" transform="matrix(1 0 0 -1 45.25 164.1504)" style="overflow:visible;opacity:0.5;enable-background:new    ;"/>
	
		<use xlink:href="#FlashAICB_x5F_1_x2F_buildings-back_x2F__x3C_Path_x3E__x5F_4_x5F_3"  width="9.45" height="5.75" y="-5.75" transform="matrix(1 0 0 -1 41.0498 155.2002)" style="overflow:visible;opacity:0.5;enable-background:new    ;"/>
	
		<use xlink:href="#FlashAICB_x5F_1_x2F_buildings-back_x2F__x3C_Path_x3E__x5F_3_x5F_3"  width="2.4" height="4.35" y="-4.35" transform="matrix(1 0 0 -1 48.75 152.7998)" style="overflow:visible;enable-background:new    ;"/>
	
		<use xlink:href="#FlashAICB_x5F_1_x2F_buildings-back_x2F__x3C_Path_x3E__x5F_2_x5F_3"  width="3.25" height="0.9" y="-0.9" transform="matrix(1 0 0 -1 49.6001 152.7998)" style="overflow:visible;opacity:0.5;enable-background:new    ;"/>
	
		<use xlink:href="#FlashAICB_x5F_1_x2F_buildings-back_x2F__x3C_Path_x3E__x5F_1_x5F_3"  width="4.85" height="3.65" y="-3.65" transform="matrix(1 0 0 -1 48.75 177.0498)" style="overflow:visible;enable-background:new    ;"/>
	
		<use xlink:href="#FlashAICB_x5F_1_x2F_buildings-back_x2F__x3C_Path_x3E__x5F_17"  width="3.95" height="5.5" y="-5.5" transform="matrix(1 0 0 -1 48.2002 166.9004)" style="overflow:visible;enable-background:new    ;"/>
</g>
</svg>
