<?xml version="1.0" encoding="iso-8859-1"?>
<!-- Generator: Adobe Illustrator 15.1.0, SVG Export Plug-In . SVG Version: 6.00 Build 0)  -->
<!DOCTYPE svg PUBLIC "-//W3C//DTD SVG 1.1//EN" "http://www.w3.org/Graphics/SVG/1.1/DTD/svg11.dtd">
<svg version="1.1" id="buildings" xmlns="http://www.w3.org/2000/svg" xmlns:xlink="http://www.w3.org/1999/xlink" x="0px" y="0px"
	 width="84.5px" height="233.8px" viewBox="0 0 84.5 233.8" style="enable-background:new 0 0 84.5 233.8;" xml:space="preserve">
<symbol  id="FlashAICB_x2F_buildings_x2F__x3C_Path_x3E__x5F_9" viewBox="0 -13.2 34.7 13.2">
	<g id="Layer_1_2_">
		<polygon style="fill-rule:evenodd;clip-rule:evenodd;" points="0,-7.5 16,0 34.7,-8 22.7,-13.2 		"/>
	</g>
</symbol>
<g>
	
		<use xlink:href="#FlashAICB_x2F_buildings_x2F__x3C_Path_x3E__x5F_9"  width="34.7" height="13.2" y="-13.2" transform="matrix(1 0 0 -1 19.0498 220.5996)" style="overflow:visible;opacity:0.4102;"/>
	
		<linearGradient id="SVGID_1_" gradientUnits="userSpaceOnUse" x1="68.7979" y1="-33.0469" x2="106.8038" y2="-33.0469" gradientTransform="matrix(0.0178 0.9998 -0.9998 0.0178 3.515966e-004 -4.488192e-004)">
		<stop  offset="0" style="stop-color:#818E8C"/>
		<stop  offset="1" style="stop-color:#C6CCCB"/>
	</linearGradient>
	<path style="fill-rule:evenodd;clip-rule:evenodd;fill:url(#SVGID_1_);" d="M31.7,60c5.433-2.667,10.6-4.217,15.5-4.65l5,8.3
		c-2.733,1.3-5.483,3.133-8.25,5.5c-5.567,4.8-8.483,9.967-8.75,15.5c-0.3,5.567,3.617,10.8,11.75,15.7
		c4.066,2.433,8.149,4.316,12.25,5.65l-15.7,3.05c-6.5,0.4-12.717-0.333-18.65-2.2c-11.9-3.667-16.45-11.067-13.65-22.2
		C13.967,73.55,20.8,65.333,31.7,60z"/>
	<g>
		<path style="fill-rule:evenodd;clip-rule:evenodd;fill:#959FA0;" d="M38.6,75l-0.9,1.5c-1.967,0.8-4,1.45-6.1,1.95
			c-0.833,1.933-1.25,3.917-1.25,5.95c0.033,2.033,0.5,3.95,1.4,5.75c1.8,3.633,4.817,5.917,9.05,6.85c0.367,0.1,0.934,0.2,1.7,0.3
			l1.45,1.05c-1.066,0-2.1-0.1-3.1-0.3c0.5,1.367,0.467,2.534-0.1,3.5l-0.6,0.75c3.933,3.267,8.317,3.717,13.15,1.35l1.2,0.55
			c-2.434,1.267-4.767,1.9-7,1.9c-2.967,0-5.7-1.067-8.2-3.2c-1.233,0.633-3.483,1.067-6.75,1.3l-1.3,0.05l-0.05-0.95l1.3-0.1
			c1.967-0.133,3.4-0.3,4.3-0.5c1.6-0.367,2.633-0.934,3.1-1.7c0.467-0.8,0.383-1.883-0.25-3.25c-4.1-1.2-7.033-3.6-8.8-7.2
			c-0.9-1.767-1.4-3.7-1.5-5.8c-0.067-2.033,0.283-4.05,1.05-6.05c-2.267,0.466-4.467,0.7-6.6,0.7h-0.2v-1h0.2
			C28.733,78.4,33.667,77.267,38.6,75z"/>
	</g>
	
		<linearGradient id="SVGID_2_" gradientUnits="userSpaceOnUse" x1="-15.2095" y1="-71.561" x2="41.0716" y2="-71.561" gradientTransform="matrix(-0.3198 0.9475 -0.9475 -0.3198 6.031990e-005 -1.791716e-004)">
		<stop  offset="0" style="stop-color:#818E8C"/>
		<stop  offset="1" style="stop-color:#C6CCCB"/>
	</linearGradient>
	<polygon style="fill-rule:evenodd;clip-rule:evenodd;fill:url(#SVGID_2_);" points="42,67.05 62.25,6 84.25,7.5 59.2,61.35 	"/>
	<g>
		<path style="fill-rule:evenodd;clip-rule:evenodd;fill:#959FA0;" d="M76.15,14.9c0.166-1.333,0.283-3.9,0.35-7.7V6.95l1,0.1V7.2
			c-0.066,3.8-0.2,6.417-0.4,7.85c-0.633,4.9-2.85,8.5-6.649,10.8c0.7,1.467,1.816,2.816,3.35,4.05L73.4,30.8
			c-0.334-0.233-0.801-0.617-1.4-1.15l-0.8,0.6c-3.3,2.433-5.617,4.433-6.95,6c-2.333,2.7-3.3,5.417-2.9,8.15
			c0.233,1.967,1.25,3.867,3.051,5.7l-0.45,1c-1.033-1.033-1.834-2.05-2.4-3.05c-5.533,5.7-7.967,10.034-7.3,13
			c0.167,0.6,0.417,1.15,0.75,1.65l-0.95,0.35c-0.366-0.5-0.633-1.083-0.8-1.75c-0.434-2.033,0.233-4.433,2-7.2
			c1.233-1.967,3.184-4.3,5.85-7c-0.399-0.867-0.649-1.733-0.75-2.6c-0.166-1.2-0.1-2.433,0.2-3.7c-3.8,2.567-7.25,4.184-10.35,4.85
			l-0.2-1c1.967-0.433,3.967-1.183,6-2.25c1.267-0.667,2.983-1.717,5.15-3.15c0.8-1.8,2.183-3.633,4.149-5.5
			c1.2-1.133,2.967-2.567,5.3-4.3l0.7-0.5c-0.767-0.934-1.35-1.8-1.75-2.6c-2.566,1.367-6.434,2.467-11.6,3.3l-0.2-1
			c5.467-0.833,9.467-2,12-3.5C73.384,22.983,75.517,19.567,76.15,14.9z"/>
	</g>
	
		<linearGradient id="SVGID_3_" gradientUnits="userSpaceOnUse" x1="42.5879" y1="66.1895" x2="100.6985" y2="66.1895" gradientTransform="matrix(0.8028 0.5963 -0.5963 0.8028 -2.432466e-004 -4.923940e-004)">
		<stop  offset="0" style="stop-color:#6F8584"/>
		<stop  offset="1" style="stop-color:#ADB6B4"/>
	</linearGradient>
	<path style="fill-rule:evenodd;clip-rule:evenodd;fill:url(#SVGID_3_);" d="M24,1.05L67.75,5.5L42,67.05
		c-3.867,0.967-7.65,2.7-11.35,5.2c-7.4,4.967-10.617,11.233-9.65,18.8c0.633,5,4.567,9.5,11.8,13.5c3.633,2,7.2,3.5,10.7,4.5
		l-1.5,123l-18-4.5c1.267-8.733,2.333-18.55,3.2-29.45c1.733-21.733,1.667-37.916-0.2-48.55c-1.867-10.633-6.933-24.066-15.2-40.3
		L0,88.05c3.5-5.733,7.25-12.167,11.25-19.3c8-14.267,13.25-24.833,15.75-31.7s2.75-14.933,0.75-24.2C26.75,8.25,25.5,4.317,24,1.05
		z"/>
	
		<linearGradient id="SVGID_4_" gradientUnits="userSpaceOnUse" x1="106.584" y1="-55.6133" x2="223.3276" y2="-55.6133" gradientTransform="matrix(-0.04 0.9992 -0.9992 -0.04 7.713363e-004 -4.622340e-005)">
		<stop  offset="0" style="stop-color:#818E8C"/>
		<stop  offset="1" style="stop-color:#C6CCCB"/>
	</linearGradient>
	<path style="fill-rule:evenodd;clip-rule:evenodd;fill:url(#SVGID_4_);" d="M59.2,106L55.1,139.55c-2.767,23.3-4.3,37.233-4.6,41.8
		c-0.434,7.334-0.1,23.101,1,47.301L42,232.05l1.5-123L59.2,106z"/>
	<polygon style="fill-rule:evenodd;clip-rule:evenodd;fill:#BBC2C1;" points="24,1.05 48.25,0 84.5,7.5 65.75,9.25 	"/>
	<g>
		<path style="fill-rule:evenodd;clip-rule:evenodd;fill:#758383;" d="M49.3,24c-1.5-2.133-2.666-4.9-3.5-8.3
			c-0.467-1.9-0.883-4.517-1.25-7.85l1-0.15c0.634,5.633,1.584,9.9,2.851,12.8c1.899,4.233,4.8,6.85,8.699,7.85l1,0.2l-0.399,0.9
			L56.85,29.3c-2.8-0.7-5.1-2.2-6.899-4.5c-0.934,1.133-2.134,2.017-3.601,2.65c-2.066,0.9-4.399,1.433-7,1.6
			c0.5,3.133-0.15,5.684-1.95,7.65c-0.6,0.667-1.433,1.316-2.5,1.95c1,1.533,2.383,2.85,4.15,3.95c1.767,1.1,3.7,1.816,5.8,2.15
			c2.367,0.433,4.584,0.283,6.65-0.45L51,45.55c-1.1,0.3-2.283,0.45-3.55,0.45c-0.767,0-1.684-0.083-2.75-0.25
			c-1.601-0.3-3.184-0.817-4.75-1.55L39,47.25c-1.6,5-2.567,8.75-2.9,11.25c-0.6,4.233-0.083,7.567,1.55,10l-0.9,0.4
			c-2.033-3.2-2.383-7.816-1.05-13.85c-4.1-0.867-8.083-1.216-11.95-1.05v0.95c0,3.966-0.183,6.917-0.55,8.85
			c-0.6,3.367-1.883,5.967-3.85,7.8l-0.75,0.65c0.1,1.567,0.65,2.817,1.65,3.75c0.933,0.933,2.25,1.7,3.95,2.3l-0.6,0.85
			c-1.8-0.7-3.15-1.517-4.05-2.45c-1.066-1.067-1.7-2.317-1.9-3.75c-1.533,0.966-3.283,1.65-5.25,2.05
			c3.833,6.133,5.1,13.583,3.8,22.35c-0.4,2.633-1.083,5.083-2.05,7.35h0.05c0.4,2.3,1.533,4.433,3.4,6.4c1.833,2,4.267,3.667,7.3,5
			c0.033-2.2,0.667-4.467,1.9-6.8c1.133-2.133,2.6-4.033,4.4-5.7l0.85,0.5c-1.833,1.633-3.316,3.583-4.45,5.85
			c-1.167,2.3-1.733,4.5-1.7,6.6l0.95,0.4c5.467,2.066,10.967,2.8,16.5,2.2v1c-1.133,0.1-2.3,0.149-3.5,0.149
			c-2.133,0-4.2-0.166-6.2-0.5c-0.667,3.566-0.65,7.267,0.05,11.101c0.8,4.267,2.316,7.683,4.55,10.25
			c1.367,1.633,2.967,2.8,4.8,3.5v1.1c-1.566-0.6-2.9-1.4-4-2.4c-0.733,2.034-2.883,4.551-6.45,7.551l0.1,0.05
			c-0.767,2.533,0.216,5.033,2.95,7.5c2.033,1.866,4.434,3.166,7.2,3.899l-0.05,1c-1.3-0.3-2.55-0.767-3.75-1.399
			c-0.066,2.233-0.566,4.517-1.5,6.85c-0.9,2.3-2.133,4.4-3.7,6.3h0.2c0.067,1.301,0.583,2.567,1.55,3.801s2.233,2.233,3.8,3
			c0.967,0.5,2.033,0.866,3.2,1.1l-0.05,1c-0.867-0.134-1.8-0.417-2.8-0.85c-1.733,4.5-4.3,8-7.7,10.5
			c0.333,13.066,3.65,20.316,9.95,21.75l0.2,0.05l-0.05,1l-0.4-0.101c-2.167-0.466-4.033-1.616-5.6-3.449L36.1,213.1
			c-1.467-0.399-3,0.034-4.6,1.301c-1.3,1.1-2.483,2.616-3.55,4.55c-1.567,3.066-2.4,6.05-2.5,8.95l-1-0.25
			c0.167-3.101,1.05-6.15,2.65-9.15c1.167-2.2,2.483-3.866,3.95-5c1.434-1.134,2.883-1.65,4.35-1.55
			c-2.667-3.733-4.1-9.617-4.3-17.65c-1.067,0.667-2.317,1.25-3.75,1.75L27.4,195c5.133-1.733,8.95-5.816,11.45-12.25
			c-1.567-0.8-2.85-1.8-3.85-3c-0.967-1.2-1.583-2.483-1.85-3.85c-0.767,0.899-1.45,1.583-2.05,2.05
			c-0.833,0.767-1.783,1.434-2.85,2l0.05-1.2c0.767-0.467,1.483-0.983,2.15-1.55c2.267-1.967,4.1-4.384,5.5-7.25
			c1.4-2.9,2.1-5.75,2.1-8.55c-1.133-0.634-2.15-1.367-3.05-2.2c-2.633-2.4-3.8-4.867-3.5-7.4c-0.933,0.733-2.2,1.65-3.8,2.75
			l-0.15-1.1c2.633-1.733,4.983-3.65,7.05-5.75c2.167-2.167,3.367-3.867,3.6-5.101l-0.75-0.8c-1.833-2.133-3.217-4.916-4.15-8.35
			l-0.15,0.1c-1.467-2.3-5.3-3.1-11.5-2.399l-0.4-0.95c5.6-0.634,9.483-0.084,11.65,1.649c-0.9-4.166-0.983-8.25-0.25-12.25
			c-2.233-0.433-4.283-1-6.15-1.699c-3.467-1.333-6.333-3.017-8.6-5.05c-2.233-2.067-3.7-4.35-4.4-6.85
			c-0.433,0.833-1.05,1.8-1.85,2.9l-0.5-0.95c2.033-2.833,3.383-6.417,4.05-10.75c1.3-8.633,0.017-15.967-3.85-22
			c-1.333,0.267-2.684,0.417-4.05,0.45l0.6-1c4.934-0.367,8.517-1.633,10.75-3.8c1.833-1.7,3.033-4.167,3.6-7.4
			c0.333-1.833,0.5-4.667,0.5-8.5v-0.9c-1.4,0.1-2.683,0.267-3.85,0.5l0.6-1.1c5-0.8,10.483-0.6,16.45,0.6
			c0.367-1.433,1.066-3.8,2.1-7.1l1-3.25c-2.2-1.2-3.883-2.717-5.05-4.55c-2.4,1.067-5.267,1.7-8.6,1.9L25.8,40
			c5.167-0.367,8.784-1.683,10.85-3.95c1.633-1.733,2.2-4.05,1.7-6.95H37.9c-2.967,0-5.95-0.5-8.95-1.5L29,26.55
			c2.833,1,5.733,1.517,8.7,1.55c3.1,0.033,5.85-0.483,8.25-1.55C47.316,25.95,48.434,25.1,49.3,24z"/>
	</g>
	<g>
		<path style="fill-rule:evenodd;clip-rule:evenodd;fill:#959FA0;" d="M50.7,206.65l0.05,2.6c-0.9,1.8-2.316,3.35-4.25,4.65
			c0.3,3.366,1.85,5.517,4.65,6.449l0.05,1.051c-3.3-0.967-5.184-3.267-5.65-6.9c-0.7,0.467-1.816,1.066-3.35,1.8v-1.1
			c2.366-1.167,4.184-2.334,5.45-3.5C49.184,210.267,50.2,208.583,50.7,206.65z"/>
		<path style="fill-rule:evenodd;clip-rule:evenodd;fill:#959FA0;" d="M52.6,107.25c0.467,1,0.767,1.917,0.9,2.75
			c0.4,2.6-0.184,4.817-1.75,6.65l-0.95,0.9l0.25,1.8c0.134,1.334,0.316,2.334,0.55,3c0.634,1.9,2.301,3.5,5,4.801l-0.1,1
			c-0.866-0.434-1.35-0.684-1.45-0.75L54.8,129.3c-0.434,3.7-0.934,6.5-1.5,8.4c-0.934,3.133-2.35,5.35-4.25,6.649
			c-1.066,2.801-1.533,5.867-1.399,9.2c0.133,3.4,0.85,6.367,2.149,8.9c0.667,1.233,1.434,2.283,2.3,3.149l-0.149,1.25
			c-0.7-0.6-1.384-1.366-2.05-2.3c-3.134,3.533-4.517,6.767-4.15,9.7c0.267,2.2,1.583,4.066,3.95,5.6L50.6,180.4l-0.1,0.949v0.101
			l-0.75-0.4c-0.333,1.101-0.967,1.95-1.9,2.55c-0.699,0.434-1.616,0.684-2.75,0.75c1.834,2.7,3.184,4.983,4.051,6.851l1.25,3
			l0.05,3.55c-0.434-1.833-1.167-3.866-2.2-6.1c-0.8-1.7-2.2-4.067-4.2-7.101l0.3-0.2l-1.8-0.25l0.05-1
			c2,0.467,3.584,0.351,4.75-0.35c0.733-0.5,1.25-1.25,1.551-2.25c-2.467-1.667-3.851-3.7-4.15-6.1c-0.4-3.334,1.134-6.9,4.6-10.7
			H49.4l-0.5-0.8l-0.65-1.5c-1.033,1.333-2.733,2-5.1,2H42.8l0.05-1c1.267,0.033,2.267-0.084,3-0.351
			c0.867-0.333,1.517-0.916,1.95-1.75c-0.767-2.333-1.166-4.85-1.2-7.55c0-2.733,0.384-5.283,1.15-7.65l-1.25,0.4
			c-0.733,0.2-1.684,0.3-2.85,0.3H43.05v-1c1.467,0,2.533-0.083,3.2-0.25c0.8-0.2,1.467-0.483,2-0.85l0.25-0.65l0.4,0.2
			c1.6-1.267,2.8-3.366,3.6-6.3c0.467-1.733,0.9-4.316,1.3-7.75l0.3-2.25l0.25,0.05c-1.899-1.233-3.133-2.684-3.699-4.35
			c-0.167-0.467-0.367-1.534-0.601-3.2L49.9,118.2c-1.867,1.2-4.051,1.8-6.551,1.8v-1c3.367-0.066,5.917-1.083,7.65-3.05
			c1.4-1.567,1.9-3.5,1.5-5.8c-0.134-0.8-0.434-1.7-0.9-2.7L52.6,107.25z"/>
	</g>
	<path style="fill-rule:evenodd;clip-rule:evenodd;fill:#677A79;" d="M41.55,7.05C36.083,5.183,30.6,3.5,25.1,2l39.4,8.15
		l-23.15,55.6c-1.6,0.667-3.35,1.45-5.25,2.35c-3.833,1.833-6.533,3.433-8.1,4.8c-2.5,2.167-4.55,4.583-6.15,7.25
		c0.433-1.033,1.017-2.2,1.75-3.5c1.5-2.633,3.083-4.6,4.75-5.9c2.667-2.067,6.417-4.4,11.25-7
		c11.833-29.5,17.883-45.667,18.15-48.5C57.884,13.483,52.483,10.75,41.55,7.05z"/>
	<path style="fill-rule:evenodd;clip-rule:evenodd;fill:#677A79;" d="M42.25,109.4l0.75,0.25L41.35,231.5l-16.75-4.1l4.1,0.35
		c3.066,0.134,5.45-0.116,7.15-0.75c1.8-0.634,2.983-4.283,3.55-10.95c0.133-1.5,0.367-7.55,0.7-18.149
		c0.167-4.634,0.583-20.784,1.25-48.45L42.25,109.4z"/>
	<path style="fill-rule:evenodd;clip-rule:evenodd;fill:#889493;" d="M77.9,11.6c0-1.033-1.801-1.65-5.4-1.85L67.05,9.8l16-1.35
		l-24.5,52.5C71.45,29.717,77.9,13.267,77.9,11.6z"/>
	<path style="fill-rule:evenodd;clip-rule:evenodd;fill:#889493;" d="M52.25,108.1l6.3-1.3L54.4,138.75
		c-2.801,22.434-4.351,36.533-4.65,42.3c-0.3,5.8-0.167,15.351,0.4,28.65c0.1,2.5,0.191,4.916,0.274,7.25
		c-1.044-17.481-1.553-29.631-1.524-36.45c0-4.667,1.233-17.733,3.699-39.2c2.367-20.666,3.517-31.233,3.45-31.7
		c-0.133-0.9-0.8-1.417-2-1.55L52.25,108.1z"/>
</g>
</svg>
