<?xml version="1.0" encoding="iso-8859-1"?>
<!-- Generator: Adobe Illustrator 15.1.0, SVG Export Plug-In . SVG Version: 6.00 Build 0)  -->
<!DOCTYPE svg PUBLIC "-//W3C//DTD SVG 1.1//EN" "http://www.w3.org/Graphics/SVG/1.1/DTD/svg11.dtd">
<svg version="1.1" id="buildings-back" xmlns="http://www.w3.org/2000/svg" xmlns:xlink="http://www.w3.org/1999/xlink" x="0px"
	 y="0px" width="144.8px" height="107px" viewBox="0 0 144.8 107" style="enable-background:new 0 0 144.8 107;"
	 xml:space="preserve">
<symbol  id="FlashAICB_x5F_1_x2F_buildings-back_x2F__x3C_Path_x3E_" viewBox="0 -4.35 4.2 4.35">
	<g id="Layer_1_8_">
		<polygon style="fill-rule:evenodd;clip-rule:evenodd;fill:#787B68;" points="4,-4.35 0,0 4.2,-3.85 3.8,-3.8 		"/>
	</g>
</symbol>
<symbol  id="FlashAICB_x5F_1_x2F_buildings-back_x2F__x3C_Path_x3E__x5F_0" viewBox="0 -0.75 4.2 0.75">
	<g id="Layer_1_19_">
		<polygon style="fill-rule:evenodd;clip-rule:evenodd;fill:#787B68;" points="4.2,-0.5 4.2,-0.75 0,0 		"/>
	</g>
</symbol>
<symbol  id="FlashAICB_x5F_1_x2F_buildings-back_x2F__x3C_Path_x3E__x5F_1" viewBox="0 -6.4 4.9 6.4">
	<g id="Layer_1_7_">
		<polygon style="fill-rule:evenodd;clip-rule:evenodd;fill:#787B68;" points="4.35,-6.15 0,0 4.9,-6.4 		"/>
	</g>
</symbol>
<symbol  id="FlashAICB_x5F_1_x2F_buildings-back_x2F__x3C_Path_x3E__x5F_10" viewBox="0 -2.45 3.45 2.45">
	<g id="Layer_1_9_">
		<polygon style="fill-rule:evenodd;clip-rule:evenodd;fill:#787B68;" points="0,-2.2 3.45,0 0.3,-2.45 		"/>
	</g>
</symbol>
<symbol  id="FlashAICB_x5F_1_x2F_buildings-back_x2F__x3C_Path_x3E__x5F_11" viewBox="0 -1.1 3.1 1.1">
	<g id="Layer_1_27_">
		<polygon style="fill-rule:evenodd;clip-rule:evenodd;fill:#787B68;" points="3.1,-0.85 3.05,-1.1 0,0 		"/>
	</g>
</symbol>
<symbol  id="FlashAICB_x5F_1_x2F_buildings-back_x2F__x3C_Path_x3E__x5F_12">
	<g id="Layer_1_36_">
	</g>
</symbol>
<symbol  id="FlashAICB_x5F_1_x2F_buildings-back_x2F__x3C_Path_x3E__x5F_1_x5F_0" viewBox="0 -4.2 3.25 4.2">
	<g id="Layer_1_18_">
		<polygon style="fill-rule:evenodd;clip-rule:evenodd;fill:#787B68;" points="3.25,-4.2 0,0 2.3,-2.25 		"/>
	</g>
</symbol>
<symbol  id="FlashAICB_x5F_1_x2F_buildings-back_x2F__x3C_Path_x3E__x5F_1_x5F_1" viewBox="0 -6.55 3.2 6.55">
	<g id="Layer_1_26_">
		<polygon style="fill-rule:evenodd;clip-rule:evenodd;fill:#787B68;" points="2.45,-6.15 0,0 3.2,-6.55 2.6,-5.8 		"/>
	</g>
</symbol>
<symbol  id="FlashAICB_x5F_1_x2F_buildings-back_x2F__x3C_Path_x3E__x5F_1_x5F_2">
	<g id="Layer_1_35_">
	</g>
</symbol>
<symbol  id="FlashAICB_x5F_1_x2F_buildings-back_x2F__x3C_Path_x3E__x5F_2" viewBox="0 -3.9 2.05 3.9">
	<g id="Layer_1_6_">
		<polygon style="fill-rule:evenodd;clip-rule:evenodd;fill:#787B68;" points="1.6,-3.9 0,0 2.05,-3.7 		"/>
	</g>
</symbol>
<symbol  id="FlashAICB_x5F_1_x2F_buildings-back_x2F__x3C_Path_x3E__x5F_23" viewBox="0 -27.8 144 27.8">
	<g id="Layer_1_2_">
		<path style="fill-rule:evenodd;clip-rule:evenodd;fill:#373535;" d="M133-3.5l11-6.15l-4.05-0.5l-1.65-0.75l-3.9,1.8L130-8.85
			c-2.267-1.233-4.567-2.5-6.9-3.8c-4.667-2.633-7.133-4.2-7.4-4.7c-0.167-0.267-0.25-1.95-0.25-5.05
			c-0.067-0.667,0.267-1.184,1-1.55c0.8-0.367,1.216-0.683,1.25-0.95c0.033-0.333-0.517-0.717-1.65-1.15l-3.75-0.35l-2.85,0.85
			L95.2-24.8l2.1-3l-9.5,2.75l-4-1.85l-1.6,2.35l-8.65-1.5l2,2.6l-1.7,0.1l-6.05,2.8l-2.75,0.25l-2.75-0.25l-1.6,0.25h-1.5l-1.75,1
			l-1.75-0.75l-2.15,1.15l-3-0.65l-1.75,1.4c-1.3-0.233-2.3-0.317-3-0.25c-0.167,0,0.017,0.367,0.55,1.1
			c0.267,0.4,0.55,0.783,0.85,1.15c-2.1,1.133-3.684,1.833-4.75,2.1c-1.367,0.333-3.917,0.583-7.65,0.75
			c-4.667-0.833-9.033-1.417-13.1-1.75c-0.333-0.034-1.067,0.117-2.2,0.45c-1.1,0.3-1.783,0.45-2.05,0.45
			c-1.934-0.167-3.934-0.417-6-0.75C5.117-14.8,1.3-14.667,0-14.5l15.7,7.15L49.35,0L133-3.5z"/>
	</g>
</symbol>
<symbol  id="FlashAICB_x5F_1_x2F_buildings-back_x2F__x3C_Path_x3E__x5F_2_x5F_0" viewBox="0 -11.9 6.4 11.9">
	<g id="Layer_1_17_">
		<polygon style="fill-rule:evenodd;clip-rule:evenodd;fill:#787B68;" points="6.4,-11.9 0,0 6.4,-10.3 5.95,-10.1 		"/>
	</g>
</symbol>
<symbol  id="FlashAICB_x5F_1_x2F_buildings-back_x2F__x3C_Path_x3E__x5F_2_x5F_1" viewBox="0 -13.35 2.45 13.35">
	<g id="Layer_1_25_">
		<polygon style="fill-rule:evenodd;clip-rule:evenodd;fill:#787B68;" points="2.05,-13.35 0,0 2.45,-12.45 2.2,-12.4 		"/>
	</g>
</symbol>
<symbol  id="FlashAICB_x5F_1_x2F_buildings-back_x2F__x3C_Path_x3E__x5F_2_x5F_2" viewBox="0 -3.3 2.5 3.3">
	<g id="Layer_1_34_">
		<polygon style="fill-rule:evenodd;clip-rule:evenodd;fill:#787B68;" points="2.5,-2.85 2.15,-2.8 2.3,-3.3 0,0 		"/>
	</g>
</symbol>
<symbol  id="FlashAICB_x5F_1_x2F_buildings-back_x2F__x3C_Path_x3E__x5F_3" viewBox="0 -4.35 0.3 4.35">
	<g id="Layer_1_5_">
		<polygon style="fill-rule:evenodd;clip-rule:evenodd;fill:#787B68;" points="0,-4.35 0.05,0 0.3,-4.2 		"/>
	</g>
</symbol>
<symbol  id="FlashAICB_x5F_1_x2F_buildings-back_x2F__x3C_Path_x3E__x5F_3_x5F_0" viewBox="0 -13.8 3.1 13.8">
	<g id="Layer_1_16_">
		<polygon style="fill-rule:evenodd;clip-rule:evenodd;fill:#787B68;" points="2.65,-13.8 0,0 3.1,-13 2.75,-12.2 		"/>
	</g>
</symbol>
<symbol  id="FlashAICB_x5F_1_x2F_buildings-back_x2F__x3C_Path_x3E__x5F_3_x5F_1" viewBox="0 -9.75 1 9.75">
	<g id="Layer_1_24_">
		<polygon style="fill-rule:evenodd;clip-rule:evenodd;fill:#787B68;" points="0.55,-9.75 0,0 1,-9.05 0.8,-8.75 		"/>
	</g>
</symbol>
<symbol  id="FlashAICB_x5F_1_x2F_buildings-back_x2F__x3C_Path_x3E__x5F_3_x5F_2" viewBox="0 -6 2.05 6">
	<g id="Layer_1_33_">
		<polygon style="fill-rule:evenodd;clip-rule:evenodd;fill:#787B68;" points="2.05,-6 1.6,-5.5 1.5,-5.75 0,0 		"/>
	</g>
</symbol>
<symbol  id="FlashAICB_x5F_1_x2F_buildings-back_x2F__x3C_Path_x3E__x5F_4" viewBox="0 -3.2 3.75 3.2">
	<g id="Layer_1_4_">
		<polygon style="fill-rule:evenodd;clip-rule:evenodd;fill:#787B68;" points="0,-2.95 3.75,0 0.15,-3.2 		"/>
	</g>
</symbol>
<symbol  id="FlashAICB_x5F_1_x2F_buildings-back_x2F__x3C_Path_x3E__x5F_4_x5F_0" viewBox="0 -11.35 0.6 11.35">
	<g id="Layer_1_15_">
		<polygon style="fill-rule:evenodd;clip-rule:evenodd;fill:#787B68;" points="0,-10.7 0.1,0 0.6,-11.35 0.25,-10.5 		"/>
	</g>
</symbol>
<symbol  id="FlashAICB_x5F_1_x2F_buildings-back_x2F__x3C_Path_x3E__x5F_4_x5F_1" viewBox="0 -12.7 1.55 12.7">
	<g id="Layer_1_23_">
		<polygon style="fill-rule:evenodd;clip-rule:evenodd;fill:#787B68;" points="0,-12.7 1.55,0 0.35,-12.2 		"/>
	</g>
</symbol>
<symbol  id="FlashAICB_x5F_1_x2F_buildings-back_x2F__x3C_Path_x3E__x5F_4_x5F_2" viewBox="0 -6.1 1.05 6.1">
	<g id="Layer_1_32_">
		<polygon style="fill-rule:evenodd;clip-rule:evenodd;fill:#787B68;" points="0.8,-6.1 0,0 1.05,-6.1 0.9,-5.95 		"/>
	</g>
</symbol>
<symbol  id="FlashAICB_x5F_1_x2F_buildings-back_x2F__x3C_Path_x3E__x5F_5" viewBox="0 -5.9 3.55 5.9">
	<g id="Layer_1_3_">
		<polygon style="fill-rule:evenodd;clip-rule:evenodd;fill:#787B68;" points="0,-5.85 3.55,0 0.35,-5.9 0.4,-5.5 		"/>
	</g>
</symbol>
<symbol  id="FlashAICB_x5F_1_x2F_buildings-back_x2F__x3C_Path_x3E__x5F_5_x5F_0" viewBox="0 -8.4 1.45 8.4">
	<g id="Layer_1_14_">
		<polygon style="fill-rule:evenodd;clip-rule:evenodd;fill:#787B68;" points="0,-8.4 1.45,0 0.6,-7 		"/>
	</g>
</symbol>
<symbol  id="FlashAICB_x5F_1_x2F_buildings-back_x2F__x3C_Path_x3E__x5F_5_x5F_1" viewBox="0 -3.75 1.6 3.75">
	<g id="Layer_1_22_">
		<polygon style="fill-rule:evenodd;clip-rule:evenodd;fill:#787B68;" points="0,-3.75 1.6,0 0.35,-3.6 0.3,-3.35 		"/>
	</g>
</symbol>
<symbol  id="FlashAICB_x5F_1_x2F_buildings-back_x2F__x3C_Path_x3E__x5F_5_x5F_2" viewBox="0 -3.35 0.75 3.35">
	<g id="Layer_1_31_">
		<polygon style="fill-rule:evenodd;clip-rule:evenodd;fill:#787B68;" points="0,-2.9 0.75,0 0.3,-3.35 0.2,-2.95 		"/>
	</g>
</symbol>
<symbol  id="FlashAICB_x5F_1_x2F_buildings-back_x2F__x3C_Path_x3E__x5F_6" viewBox="0 -12.4 4.1 12.4">
	<g id="Layer_1_13_">
		<polygon style="fill-rule:evenodd;clip-rule:evenodd;fill:#787B68;" points="0,-12.4 4.1,0 0.5,-11.8 		"/>
	</g>
</symbol>
<symbol  id="FlashAICB_x5F_1_x2F_buildings-back_x2F__x3C_Path_x3E__x5F_6_x5F_0" viewBox="0 -2.45 2 2.45">
	<g id="Layer_1_21_">
		<polygon style="fill-rule:evenodd;clip-rule:evenodd;fill:#787B68;" points="0,-2.3 2,0 0.25,-2.45 		"/>
	</g>
</symbol>
<symbol  id="FlashAICB_x5F_1_x2F_buildings-back_x2F__x3C_Path_x3E__x5F_6_x5F_1" viewBox="0 -8.85 4.55 8.85">
	<g id="Layer_1_30_">
		<polygon style="fill-rule:evenodd;clip-rule:evenodd;fill:#787B68;" points="0,-8.85 4.55,0 0.45,-8.75 		"/>
	</g>
</symbol>
<symbol  id="FlashAICB_x5F_1_x2F_buildings-back_x2F__x3C_Path_x3E__x5F_7" viewBox="0 -6.45 2.25 6.45">
	<g id="Layer_1_12_">
		<polygon style="fill-rule:evenodd;clip-rule:evenodd;fill:#787B68;" points="0,-6.45 2.25,0 1.8,-5.35 1.35,-5 		"/>
	</g>
</symbol>
<symbol  id="FlashAICB_x5F_1_x2F_buildings-back_x2F__x3C_Path_x3E__x5F_7_x5F_0" viewBox="0 -2.2 3.8 2.2">
	<g id="Layer_1_20_">
		<polygon style="fill-rule:evenodd;clip-rule:evenodd;fill:#787B68;" points="0,-2.2 1.35,-0.95 3.8,0 		"/>
	</g>
</symbol>
<symbol  id="FlashAICB_x5F_1_x2F_buildings-back_x2F__x3C_Path_x3E__x5F_7_x5F_1" viewBox="0 -5.3 2.5 5.3">
	<g id="Layer_1_29_">
		<polygon style="fill-rule:evenodd;clip-rule:evenodd;fill:#787B68;" points="0,-5.3 2.5,0 0.4,-5.05 0.35,-4.8 		"/>
	</g>
</symbol>
<symbol  id="FlashAICB_x5F_1_x2F_buildings-back_x2F__x3C_Path_x3E__x5F_8" viewBox="0 -9.7 3.75 9.7">
	<g id="Layer_1_11_">
		<polygon style="fill-rule:evenodd;clip-rule:evenodd;fill:#787B68;" points="0,-9.7 3.75,0 0.65,-9.5 		"/>
	</g>
</symbol>
<symbol  id="FlashAICB_x5F_1_x2F_buildings-back_x2F__x3C_Path_x3E__x5F_8_x5F_0">
	<g id="Layer_1_28_">
	</g>
</symbol>
<symbol  id="FlashAICB_x5F_1_x2F_buildings-back_x2F__x3C_Path_x3E__x5F_9" viewBox="0 -5.65 3.5 5.65">
	<g id="Layer_1_10_">
		<polygon style="fill-rule:evenodd;clip-rule:evenodd;fill:#787B68;" points="0,-5.3 3.5,0 0.55,-5.65 0.5,-5.25 		"/>
	</g>
</symbol>
<g>
	<g>
		
			<use xlink:href="#FlashAICB_x5F_1_x2F_buildings-back_x2F__x3C_Path_x3E__x5F_23"  width="144" height="27.8" y="-27.8" transform="matrix(1 0 0 -1 0 79.5)" style="overflow:visible;opacity:0.3984;enable-background:new    ;"/>
		<linearGradient id="SVGID_1_" gradientUnits="userSpaceOnUse" x1="66.8813" y1="67.8496" x2="141.7002" y2="67.8496">
			<stop  offset="0" style="stop-color:#E1B79A"/>
			<stop  offset="1" style="stop-color:#D69A78"/>
		</linearGradient>
		<path style="fill-rule:evenodd;clip-rule:evenodd;fill:url(#SVGID_1_);" d="M134.45,47.75c-3.566,6.667-5.351,12.434-5.351,17.3
			c0,4.867,2.101,10.217,6.301,16.05c2.1,2.934,4.199,5.367,6.3,7.301c-2.634-0.367-5.533-0.617-8.7-0.75
			c-6.3-0.233-10.717,0.333-13.25,1.699c-2.533,1.367-4.15,4.184-4.85,8.45c-0.367,2.134-0.467,4.134-0.301,6
			c-5.833-1.7-12.066-4.267-18.699-7.7C82.6,89.267,73.9,81.566,69.8,73c-4.066-8.566-3.883-17.983,0.55-28.25
			c1.367-3.233,3.083-6.333,5.15-9.3c1.033-1.5,1.934-2.684,2.7-3.55l61.6,7.25C138.033,41.517,136.25,44.383,134.45,47.75z"/>
		<g>
			<path style="fill-rule:evenodd;clip-rule:evenodd;fill:#C38D6F;" d="M123.3,63.25l0.05-0.2c-1.233-0.6-2.183-1.149-2.85-1.649
				l-6.25,3.5c-2.5,1.3-4.35,2.399-5.55,3.3c-1.934,1.399-3.283,2.916-4.05,4.55c-0.967,2-0.851,4.184,0.35,6.55
				c0.733,1.434,2.184,3.351,4.35,5.75l0.15,0.15c1.2-1.834,3.283-3.316,6.25-4.45c1.8-0.667,4.4-1.316,7.8-1.95l1.95-0.399
				c-1.6-1.5-2.5-3.767-2.7-6.801C122.7,69.767,122.866,66.983,123.3,63.25z M111.25,48.8h-0.2c-2-0.033-3.45-0.167-4.35-0.4
				c-1.566-0.367-2.851-1.15-3.851-2.35c-0.833-0.966-1.35-2.233-1.55-3.8l0.7-0.1c0.167,1.4,0.616,2.55,1.35,3.45
				c0.934,1.1,2.117,1.816,3.551,2.15c0.833,0.2,2.216,0.317,4.149,0.35c2.9,0,5.017,0.367,6.351,1.1
				c0.333-0.4,0.816-0.867,1.449-1.4c2.067-1.466,4.534-1.933,7.4-1.4c2.033,0.4,4.5,1.367,7.4,2.9l-0.301,0.6
				c-2.8-1.467-5.166-2.383-7.1-2.75c-2.733-0.533-5.05-0.117-6.95,1.25c-1.899,1.3-2.85,3-2.85,5.1c0,1.3,0.399,2.616,1.2,3.95
				c0.767,1.3,1.816,2.416,3.149,3.35c1.934,1.334,4.7,2.584,8.3,3.75v0.7c-2-0.634-3.699-1.267-5.1-1.9
				c-0.566,4.834-0.616,8.284-0.15,10.351c0.801,3.6,3.084,5.7,6.851,6.3c1.1,0.167,2.45,0.25,4.05,0.25l0.5,0.7h-0.3
				c-1.767,0-3.233-0.101-4.4-0.3c-2-0.267-3.633-0.983-4.899-2.15l0.1,0.55l-2.1,0.45c-3.534,0.667-6.15,1.316-7.851,1.95
				c-2.866,1.1-4.85,2.566-5.95,4.399c-1.699,2.934-0.866,6.584,2.5,10.95c0.5,0.634,1.284,1.517,2.351,2.65l-0.101,0.95
				c-1.066-1.134-2-2.184-2.8-3.15c-3.434-4.434-4.333-8.233-2.7-11.4l-0.3-0.35c-2.233-2.533-3.7-4.5-4.399-5.9
				c-1.301-2.566-1.417-4.949-0.351-7.149c0.8-1.7,2.2-3.283,4.2-4.75c1.134-0.867,3.017-2.017,5.65-3.45l5.949-3.3
				c-1.233-1-2.216-2.15-2.949-3.45c-0.767-1.366-1.15-2.7-1.15-4s0.4-2.533,1.2-3.7c-1.066-0.6-2.733-0.933-5-1
				c0.166,2.5-0.017,4.55-0.55,6.15c-0.733,2.133-2.167,3.733-4.301,4.8c-0.833,0.434-1.949,0.833-3.35,1.2l-0.2-0.65
				c1.8-0.6,2.867-0.983,3.2-1.149c2-1,3.333-2.483,4-4.45C111.25,53.2,111.417,51.233,111.25,48.8z"/>
		</g>
		<path style="fill-rule:evenodd;clip-rule:evenodd;fill:#BE8B6E;" d="M111.1,36.1l28.7,3.05l-1.95,4.55
			c-2.033-0.467-4.383-0.934-7.05-1.4c-5.3-0.9-9.5-1.25-12.6-1.05c-5.601,0.167-9.851,0.4-12.75,0.7
			c-5.134,0.6-8.533,1.816-10.2,3.65c-1.667,1.8-3.083,1.617-4.25-0.55c-0.833-2.633-1.3-4.05-1.4-4.25
			c-0.066-0.233,3.5-1.083,10.7-2.55C103.9,37.517,107.5,36.8,111.1,36.1z"/>
		<path style="fill-rule:evenodd;clip-rule:evenodd;fill:#D18E6B;" d="M36,15.75c9.433,11.6,19.3,19.633,29.6,24.1
			s20.083,8.3,29.35,11.5c4.633,1.6,8.233,2.75,10.8,3.45L102.8,62.9c-1.866,6.3-2.6,11.683-2.2,16.149
			c0.4,4.467,2.851,9.934,7.351,16.4c2.267,3.233,4.483,6.017,6.649,8.35L74.9,100.85c-3.034-1.366-6.65-2.783-10.851-4.25
			c-8.4-2.933-15.517-4.616-21.35-5.05c-5.833-0.434-13.65-0.383-23.45,0.15c-4.9,0.267-9.217,0.566-12.95,0.899
			c1.4-1,2.917-2.216,4.55-3.649c3.267-2.834,5.483-5.267,6.65-7.3c1.167-2.067,2.483-5.284,3.95-9.65c1.367-4,1.983-6,1.85-6
			l15.2-16.55c-1.1-1.133-2.3-2.633-3.6-4.5c-2.6-3.733-4.433-7.45-5.5-11.15c-1.066-3.7-2.133-10.5-3.2-20.4L24.95-0.3l2.85,4.75
			C30.333,8.35,33.067,12.117,36,15.75z"/>
		<g>
			<path style="fill-rule:evenodd;clip-rule:evenodd;fill:#B58468;" d="M101.1,85c-0.966-1.934-2.633-3.417-5-4.45
				c-2.399-1.033-4.716-1.267-6.949-0.7c-1.733,0.434-3.817,1.684-6.25,3.75c0.466,0.733,0.85,1.4,1.149,2
				c0.9,1.934,1.517,3.95,1.851,6.051c1.966-0.767,3.783-0.95,5.449-0.551c1.667,0.434,3.034,1.4,4.101,2.9
				c2.333-1.366,3.95-2.55,4.85-3.55C101.767,88.75,102.033,86.934,101.1,85z M88.1,66.05L88.2,66.3c1.166-0.6,2.5-0.767,4-0.5
				c1.066,0.167,2.366,0.584,3.899,1.25c-0.066-0.366-0.149-0.633-0.25-0.8c-0.8-1.667-2.133-2.9-4-3.7
				c-1.833-0.767-3.649-0.916-5.449-0.45C87.3,64.1,87.866,65.417,88.1,66.05z M70.85,79.6l-0.4-0.35
				c-0.5-0.5-0.983-0.884-1.45-1.15c-0.333-0.233-0.95-0.533-1.85-0.899c-0.4,1.533-0.7,3.1-0.9,4.7
				C68.15,81.167,69.683,80.4,70.85,79.6z M78.9,54.85c-1.534-0.233-3.284,0.25-5.25,1.45c-1.334,0.834-3.05,2.217-5.15,4.15
				c1.9,1.833,3.25,3.25,4.05,4.25c1.334,1.7,2.25,3.434,2.75,5.2c0.867,3.033,0.351,5.716-1.55,8.05
				c3.566,0.3,6.467,1.983,8.7,5.05c1.833-1.533,3.333-2.566,4.5-3.1c-1.233-1.367-2.05-2.601-2.45-3.7
				c-0.533-1.601-0.55-3.283-0.05-5.05c0.5-1.733,1.399-3.117,2.7-4.15l0.449-0.3l-0.1-0.351c-1.366-3.267-2.4-5.5-3.1-6.699
				C82.767,56.75,80.934,55.15,78.9,54.85z M86,51.65h0.7c-0.033,2.734-1.167,4.45-3.4,5.15c0.733,0.934,1.3,1.767,1.7,2.5l1.1,2.2
				c1.934-0.6,3.917-0.467,5.95,0.4c2.033,0.866,3.517,2.216,4.45,4.05c0.333,0.666,0.434,1.833,0.3,3.5
				c-0.133,1.899,0.117,3.116,0.75,3.649c0.7,0.601,1.617,0.617,2.75,0.051l0.351,0.649c-0.634,0.3-1.233,0.45-1.801,0.45
				c-0.699,0-1.283-0.2-1.75-0.6c-0.533-0.434-0.866-1.067-1-1.9c-0.066-0.5-0.066-1.283,0-2.35L96.2,67.85
				c-1.8-0.8-3.25-1.267-4.351-1.399c-1.666-0.2-3.1,0.166-4.3,1.1c-1.166,0.934-1.983,2.2-2.45,3.8
				c-0.466,1.634-0.433,3.167,0.101,4.601c0.333,1.033,1.149,2.267,2.45,3.7l1.3-0.5c2.399-0.601,4.883-0.351,7.45,0.75
				c2.533,1.133,4.316,2.733,5.35,4.8c1.066,2.166,0.783,4.2-0.85,6.1c-0.934,1.101-2.617,2.367-5.051,3.8l0.101,0.2
				c0.566,0.967,1,2.15,1.3,3.55c0.333,1.434,0.467,2.834,0.4,4.2l-0.7-0.05c0.166-2.7-0.367-5.15-1.601-7.35
				c-0.933-1.733-2.216-2.834-3.85-3.301c-1.634-0.5-3.483-0.333-5.55,0.5c0.434,3.134,0.316,6.233-0.351,9.301L84.9,101.6
				c0.899-4.033,0.833-8.033-0.2-12l-0.05,0.051c-1.733-1.167-3.467-1-5.2,0.5c-1.2,1-2.3,2.5-3.3,4.5
				c-0.9,1.8-1.601,3.75-2.101,5.85l-0.6-0.3c0.5-2.167,1.217-4.167,2.149-6c1.034-2.033,2.167-3.566,3.4-4.601
				c1.8-1.5,3.634-1.767,5.5-0.8c-0.333-1.166-0.7-2.133-1.1-2.899c-2.2-4.634-5.534-7.067-10-7.301v-0.3
				c-1.601,1.733-4.017,3.2-7.25,4.4c-0.233,2.366-0.033,4.366,0.6,6c0.3,0.666,0.817,1.583,1.55,2.75c0.733,1.133,1.233,2,1.5,2.6
				c0.4,1.033,0.55,2.05,0.45,3.05c-0.033,0.567-0.183,1.117-0.45,1.65l-0.65-0.25c0.233-0.566,0.367-1.066,0.4-1.5
				c0.1-0.866-0.033-1.767-0.4-2.7c-0.267-0.566-0.75-1.383-1.45-2.45c-0.867-1.433-1.4-2.399-1.6-2.899L66,88.5
				c-1.033-0.1-2.117,0.434-3.25,1.6c-1.1,1.134-2.167,2.801-3.2,5L58.9,94.9c1.033-2.267,2.15-4.034,3.35-5.301
				c1.167-1.199,2.333-1.8,3.5-1.8c-0.633-2.6-0.383-6.217,0.75-10.85c-2.433-0.7-5.117-0.351-8.05,1.05
				c-1.733,0.8-4.233,2.4-7.5,4.8L49.3,84c2.167,1.767,3.517,3.717,4.05,5.85c0.3,1.067,0.3,2.25,0,3.551l-0.65-0.15
				c0.233-1.167,0.216-2.233-0.05-3.2c-0.5-1.866-1.667-3.6-3.5-5.2c-1.533-1.399-3.45-2.6-5.75-3.6c0.1,1.733-0.283,4.267-1.15,7.6
				L41.6,91.5l-0.7-0.05l0.65-2.75c0.934-3.5,1.317-6.084,1.15-7.75c-1.6-0.667-3.15-1.167-4.65-1.5c-3-0.601-5.75-0.4-8.25,0.6
				c-2.5,0.967-4.966,2.816-7.4,5.55l-0.05-0.05c0.066,1.934-0.233,3.95-0.9,6.05H20.7c1.167-3.6,1.25-7.066,0.25-10.399
				c-0.434-1.5-0.95-2.733-1.55-3.7l0.35-0.75c0.767,1.066,1.383,2.483,1.85,4.25c0.367,1.066,0.6,2.3,0.7,3.7
				c2.267-2.434,4.55-4.15,6.85-5.15c2.333-1,4.85-1.333,7.55-1c-0.3-2.066-0.75-3.717-1.35-4.95c-0.8-1.699-2-3.033-3.6-4
				c-0.7-0.366-1.65-0.8-2.85-1.3l0.3-0.649c1.3,0.533,2.267,0.983,2.9,1.35c1.767,1.033,3.083,2.483,3.95,4.35
				c0.6,1.301,1.067,3.084,1.4,5.351l0.75,0.1c1.6,0.334,3.283,0.867,5.05,1.601c2.1,0.866,3.933,1.899,5.5,3.1l1.75-1.25
				c3.833-2.8,6.817-4.6,8.95-5.4c3.667-1.399,6.983-1.183,9.95,0.65c0.5,0.3,1.017,0.717,1.55,1.25l0.5,0.45
				c3.133-2.367,4.2-5.4,3.2-9.101c-0.5-1.699-1.417-3.383-2.75-5.05c-0.767-0.967-2.083-2.35-3.95-4.149
				c-1.534-1.467-2.667-2.617-3.4-3.45c-1.167-1.367-2.066-2.7-2.7-4c-0.333-0.733-0.6-1.55-0.8-2.45v0.05
				c-1.8-0.533-3.6-0.8-5.4-0.8c-2.167,0-3.983,0.433-5.45,1.3c-1.733,1-2.833,2.533-3.3,4.601L46.2,56
				c0.5-2.233,1.716-3.917,3.65-5.05l0.6-0.25c0.6-1.967,0.233-3.75-1.1-5.35c-0.9-1.033-2.117-1.95-3.65-2.75h-0.1v-0.05
				c-1.934-1-4.1-1.75-6.5-2.25c-2.3-0.466-4.217-0.583-5.75-0.35L32,40.2l-0.3-0.65c0.966-0.2,1.483-0.3,1.55-0.3
				c0.967-0.167,2.117-0.167,3.45,0c0.433-3.5-0.284-6.85-2.15-10.05c-1.767-2.967-4.2-5.35-7.3-7.15l-0.1-0.85
				c3.333,1.8,5.95,4.267,7.85,7.4c2.067,3.433,2.867,7,2.4,10.7c2.934,0.4,5.684,1.233,8.25,2.5c0.033-1.333,0.617-2.783,1.75-4.35
				c0.9-1.3,1.95-2.417,3.15-3.35l0.4,0.55c-1.133,0.867-2.15,1.95-3.05,3.25c-1.1,1.567-1.633,2.983-1.6,4.25
				c1.5,0.767,2.7,1.684,3.6,2.75c1.333,1.633,1.767,3.434,1.3,5.4c2.8-1.033,6.05-1.033,9.75,0c-0.3-1.833-0.2-4.367,0.3-7.6
				l0.7,0.15c-0.333,2.233-0.5,4-0.5,5.3c0.033,1.9,0.383,3.567,1.05,5c0.9,1.9,2.733,4.167,5.5,6.8c2.1-1.967,3.9-3.4,5.4-4.3
				c2.066-1.233,3.933-1.734,5.6-1.5c1.3,0.199,2.55,0.916,3.75,2.149c1.134-0.3,1.95-0.816,2.45-1.55S85.967,52.983,86,51.65z"/>
		</g>
		<path style="fill-rule:evenodd;clip-rule:evenodd;fill:#E2BBA0;" d="M99.1,49.45c2,1.966,4.217,3.75,6.65,5.35
			c-6.6-1.566-13.884-3.65-21.85-6.25c-15.867-5.2-27.117-10.433-33.75-15.7c-6.6-5.233-12.783-12.333-18.55-21.3L24.95-0.3
			l3.35,2.85C31.233,4.883,34.467,7.2,38,9.5c11.233,7.3,23.233,12.9,36,16.8c9.533,2.934,23.35,5.95,41.45,9.05
			c9.066,1.566,17.184,2.833,24.35,3.8c-6.066-0.5-12.416-0.8-19.05-0.9c-13.3-0.133-21.417,0.867-24.35,3
			C94.2,42.85,95.1,45.583,99.1,49.45z"/>
		<path style="fill-rule:evenodd;clip-rule:evenodd;fill:#D69B7A;" d="M72.8,69.75c-1.867,0.533-4.383,0.983-7.55,1.35
			c-6.333,0.733-12.767,0.667-19.3-0.199c-6.5-0.867-12.217-1.95-17.15-3.25L23.3,66l15.2-16.55L72.8,69.75z"/>
		<path style="fill-rule:evenodd;clip-rule:evenodd;fill:#D9A484;" d="M101.05,56.2L98.6,62c-1.666,4.2-2.55,7.167-2.649,8.9
			c-0.167,2.8-0.167,5.366,0,7.699c-2.601-1.267-5.384-2.816-8.351-4.649C81.7,70.35,77.866,67.233,76.1,64.6
			c-1.733-2.633,1.9-4.816,10.9-6.55C91.5,57.184,96.184,56.566,101.05,56.2z"/>
		<path style="fill-rule:evenodd;clip-rule:evenodd;fill:#D9A484;" d="M36.4,41.95c-2.033-2.633-3.867-7.767-5.5-15.4
			c-1.767-8.133-2.117-11.083-1.05-8.85c1.767,3.7,6.383,8.966,13.85,15.8c3.733,3.433,7.283,6.483,10.65,9.15
			c-2.2,0.9-4.617,1.55-7.25,1.95C41.9,45.367,38.333,44.483,36.4,41.95z"/>
		<path style="fill-rule:evenodd;clip-rule:evenodd;fill:#8A614B;" d="M39.2,42.4c-2.233-1.066-4.067-4.417-5.5-10.05l-1.5-8.15
			l18.9,18c-1.1,0.466-2.417,0.833-3.95,1.1C44.083,43.8,41.433,43.5,39.2,42.4z"/>
		<path style="fill-rule:evenodd;clip-rule:evenodd;fill:#8A614B;" d="M98.05,58.05l-1.45,2.5c-1.066,2-1.833,3.816-2.3,5.45
			s-0.616,3.767-0.45,6.4c0.101,1.3,0.25,2.433,0.45,3.399c-2.767-1.566-5.5-3.25-8.2-5.05c-5.433-3.6-8-6.033-7.699-7.3
			c0.3-1.267,3.666-2.55,10.1-3.851C91.7,58.967,94.884,58.45,98.05,58.05z"/>
		<path style="fill-rule:evenodd;clip-rule:evenodd;fill:#E2BBA0;" d="M116.65,51.75c0.199-2.1,0.833-3.867,1.899-5.3
			c1.134-1.6,2.533-2.4,4.2-2.4c1.833,0,3.217,0.867,4.15,2.6c0.866,1.533,1.216,3.4,1.05,5.6c-0.134,2.2-0.75,4.033-1.851,5.5
			c-1.166,1.634-2.666,2.366-4.5,2.2c-1.8-0.167-3.149-1.101-4.05-2.8C116.75,55.65,116.45,53.85,116.65,51.75z"/>
		<path style="fill-rule:evenodd;clip-rule:evenodd;fill:#8A614B;" d="M123.45,45.95c1.366,0.1,2.333,0.85,2.899,2.25
			c0.5,1.233,0.584,2.7,0.25,4.4c-0.333,1.7-0.966,3.083-1.899,4.15c-1.033,1.167-2.217,1.6-3.55,1.3
			c-2.167-0.434-2.934-2.6-2.301-6.5C119.483,47.617,121.017,45.75,123.45,45.95z"/>
		<path style="fill-rule:evenodd;clip-rule:evenodd;fill:#D9A484;" d="M31.75,73.95c1.933,0.434,3.5,1.434,4.7,3
			c1.1,1.467,1.667,3.066,1.7,4.8c0.033,1.767-0.517,3.184-1.65,4.25c-1.233,1.2-2.983,1.7-5.25,1.5
			c-4.367-0.434-6.05-2.934-5.05-7.5c0.4-1.767,1.133-3.267,2.2-4.5C29.533,74.2,30.65,73.684,31.75,73.95z"/>
		<path style="fill-rule:evenodd;clip-rule:evenodd;fill:#8A614B;" d="M32.2,76.05c0.867,0.167,1.716,0.75,2.55,1.75
			c0.867,1.033,1.433,2.15,1.7,3.351c0.7,3.133-0.8,4.85-4.5,5.149c-3.733,0.334-5.2-1.366-4.4-5.1c0.3-1.434,0.9-2.684,1.8-3.75
			C30.317,76.35,31.267,75.884,32.2,76.05z"/>
		<path style="fill-rule:evenodd;clip-rule:evenodd;fill:#6C4D3C;" d="M48.3,20.95c2.534-1.467,5.034-0.55,7.5,2.75
			c0.934,1.267,1.5,2.5,1.7,3.7c0.233,1.233-0.067,2-0.9,2.3c-2.434,0.867-4.733,0.083-6.9-2.35c-1-1.1-1.65-2.333-1.95-3.7
			C47.417,22.25,47.6,21.35,48.3,20.95z"/>
		<path style="fill-rule:evenodd;clip-rule:evenodd;fill:#E2BBA0;" d="M123.5,70.25c3.066,5.566,5.783,11.35,8.15,17.35L129.3,87.7
			l-13.75,7.95l-0.6,2c-1.934-4.134-3.75-8.284-5.45-12.45c-2.2-5.367-3.616-10.233-4.25-14.601c-1-7,0.283-11.6,3.85-13.8
			C112.566,54.667,117.366,59.15,123.5,70.25z"/>
		<path style="fill-rule:evenodd;clip-rule:evenodd;fill:#BE8B6E;" d="M129.55,87.7l-14,7.95c-2.333-6.034-4.3-12.117-5.899-18.25
			c-3.233-12.301-3.067-18.75,0.5-19.351c3.6-0.566,7.916,4.2,12.949,14.3C125.6,77.417,127.75,82.533,129.55,87.7z"/>
		<path style="fill-rule:evenodd;clip-rule:evenodd;fill:#8A614B;" d="M122,74.95c0.4,1.233,0.267,1.899-0.4,2
			c-0.699,0.133-1.267-0.417-1.699-1.65c-0.4-1.233-0.217-1.916,0.55-2.05C121.05,73.116,121.566,73.684,122,74.95z"/>
		<path style="fill-rule:evenodd;clip-rule:evenodd;fill:#AD8065;" d="M123.15,47.2c0.533-0.1,1.149,0.183,1.85,0.85
			c0.733,0.733,1.116,1.55,1.15,2.45c0.066,0.767-0.184,1.517-0.75,2.25l-0.9,0.9c-0.2-0.1-0.35-0.283-0.45-0.55
			c-0.166-0.567-0.017-1.317,0.45-2.25c0.5-0.934,0.434-1.817-0.2-2.65L123.15,47.2z"/>
		<path style="fill-rule:evenodd;clip-rule:evenodd;fill:#AD8065;" d="M96.05,59.1c-0.866,0.801-1.649,2.2-2.35,4.2
			c-0.367,1.033-0.634,1.967-0.8,2.8c-0.067-2.566-0.15-4.116-0.25-4.649c-0.034-0.334-0.7-0.584-2-0.75l-1.95-0.2l3.149-0.55
			C93.184,59.717,94.583,59.434,96.05,59.1z"/>
		<path style="fill-rule:evenodd;clip-rule:evenodd;fill:#AD8065;" d="M42.1,34.85l8.05,7.1c-3.267,0.767-5.25,1.15-5.95,1.15
			c-0.434,0-0.817-0.05-1.15-0.15l-0.35-0.2l2.4-0.3c1.6-0.333,2.35-0.85,2.25-1.55c-0.067-0.7-0.967-1.917-2.7-3.65L42.1,34.85z"/>
		<path style="fill-rule:evenodd;clip-rule:evenodd;fill:#AD8065;" d="M31.6,76.95c0.767-0.066,1.583,0.25,2.45,0.95
			c0.934,0.733,1.483,1.6,1.65,2.6c0.133,0.866-0.034,1.55-0.5,2.05c-0.267,0.267-0.534,0.434-0.8,0.5c0.167-1.1,0.133-2.2-0.1-3.3
			c-0.133-0.667-0.633-1.333-1.5-2L31.6,76.95z"/>
		<path style="fill-rule:evenodd;clip-rule:evenodd;fill:#BE8B6E;" d="M27.1,3.7c1.933,3.333,4.1,6.633,6.5,9.9
			C41.3,24.033,49.933,32.167,59.5,38c6.467,3.933,16.116,7.917,28.95,11.95c6.434,2,12.2,3.617,17.3,4.85l-1.05,3.05L94.3,55.6
			c-5.3-1.1-11.883-3.167-19.75-6.2c-10.533-4.066-19.133-8.45-25.8-13.15c-6.3-4.467-12.533-11.3-18.7-20.5L22.75,3.3l2.2-3.6
			L27.1,3.7z"/>
		<polygon style="fill-rule:evenodd;clip-rule:evenodd;fill:#BE8B6E;" points="34.75,52.7 37.7,48.35 73.4,69.4 72.95,71 		"/>
	</g>
	<g>
		<polygon style="fill-rule:evenodd;clip-rule:evenodd;fill:#787B68;" points="110.45,104.35 106.1,98.85 111.5,103.75 106.6,95.85 
			113.15,104.05 111.1,98.2 113.9,103.05 114.4,97.8 114.9,103.5 120.45,95 115.95,103.6 121.05,99.9 116.55,104.15 115.1,104.45 
			113.9,105.15 112.15,104.65 111.25,105.2 		"/>
		
			<use xlink:href="#FlashAICB_x5F_1_x2F_buildings-back_x2F__x3C_Path_x3E__x5F_5"  width="3.55" height="5.9" y="-5.9" transform="matrix(1 0 0 -1 115.2002 98)" style="overflow:visible;opacity:0.5;enable-background:new    ;"/>
		
			<use xlink:href="#FlashAICB_x5F_1_x2F_buildings-back_x2F__x3C_Path_x3E__x5F_4"  width="3.75" height="3.2" y="-3.2" transform="matrix(1 0 0 -1 116.2998 100.7998)" style="overflow:visible;opacity:0.5;enable-background:new    ;"/>
		
			<use xlink:href="#FlashAICB_x5F_1_x2F_buildings-back_x2F__x3C_Path_x3E__x5F_3"  width="0.3" height="4.35" y="-4.35" transform="matrix(1 0 0 -1 114.3496 99.7998)" style="overflow:visible;opacity:0.5;enable-background:new    ;"/>
		
			<use xlink:href="#FlashAICB_x5F_1_x2F_buildings-back_x2F__x3C_Path_x3E__x5F_2"  width="2.05" height="3.9" y="-3.9" transform="matrix(1 0 0 -1 111.7998 99.5996)" style="overflow:visible;opacity:0.5;enable-background:new    ;"/>
		
			<use xlink:href="#FlashAICB_x5F_1_x2F_buildings-back_x2F__x3C_Path_x3E__x5F_1"  width="4.9" height="6.4" y="-6.4" transform="matrix(1 0 0 -1 108.1504 97.8496)" style="overflow:visible;opacity:0.5;enable-background:new    ;"/>
		
			<use xlink:href="#FlashAICB_x5F_1_x2F_buildings-back_x2F__x3C_Path_x3E_"  width="4.2" height="4.35" y="-4.35" transform="matrix(1 0 0 -1 107.3496 100.1504)" style="overflow:visible;opacity:0.5;enable-background:new    ;"/>
	</g>
	<g>
		<polygon style="fill-rule:evenodd;clip-rule:evenodd;fill:#787B68;" points="48.2,93.6 45.55,89.6 48.8,92.6 42.55,79.95 
			50,91.85 47.45,75.5 51.65,92.15 52.8,82.9 53.25,94.05 56.4,82.35 55.2,91.7 59.05,81.45 55.35,94.35 58.45,87.95 58,93.3 
			62.75,82.65 58.75,95.1 62.9,89.9 59.5,96.9 62.6,95.4 58.75,98.65 57.55,97.75 55.65,98.35 53.7,97.75 51.2,98.2 49.4,96.6 
			47.45,96.9 48.5,95.4 42.85,93 		"/>
		
			<use xlink:href="#FlashAICB_x5F_1_x2F_buildings-back_x2F__x3C_Path_x3E__x5F_10"  width="3.45" height="2.45" y="-2.45" transform="matrix(1 0 0 -1 58.5498 95.9004)" style="overflow:visible;opacity:0.5;enable-background:new    ;"/>
		
			<use xlink:href="#FlashAICB_x5F_1_x2F_buildings-back_x2F__x3C_Path_x3E__x5F_9"  width="3.5" height="5.65" y="-5.65" transform="matrix(1 0 0 -1 58.5498 91.3496)" style="overflow:visible;opacity:0.5;enable-background:new    ;"/>
		
			<use xlink:href="#FlashAICB_x5F_1_x2F_buildings-back_x2F__x3C_Path_x3E__x5F_8"  width="3.75" height="9.7" y="-9.7" transform="matrix(1 0 0 -1 57.8999 85.5996)" style="overflow:visible;opacity:0.5;enable-background:new    ;"/>
		
			<use xlink:href="#FlashAICB_x5F_1_x2F_buildings-back_x2F__x3C_Path_x3E__x5F_7"  width="2.25" height="6.45" y="-6.45" transform="matrix(1 0 0 -1 56 88.7002)" style="overflow:visible;opacity:0.5;enable-background:new    ;"/>
		
			<use xlink:href="#FlashAICB_x5F_1_x2F_buildings-back_x2F__x3C_Path_x3E__x5F_6"  width="4.1" height="12.4" y="-12.4" transform="matrix(1 0 0 -1 54.2998 83.5)" style="overflow:visible;opacity:0.5;enable-background:new    ;"/>
		
			<use xlink:href="#FlashAICB_x5F_1_x2F_buildings-back_x2F__x3C_Path_x3E__x5F_5_x5F_0"  width="1.45" height="8.4" y="-8.4" transform="matrix(1 0 0 -1 54.3501 85.4502)" style="overflow:visible;opacity:0.5;enable-background:new    ;"/>
		
			<use xlink:href="#FlashAICB_x5F_1_x2F_buildings-back_x2F__x3C_Path_x3E__x5F_4_x5F_0"  width="0.6" height="11.35" y="-11.35" transform="matrix(1 0 0 -1 52.6499 85)" style="overflow:visible;opacity:0.5;enable-background:new    ;"/>
		
			<use xlink:href="#FlashAICB_x5F_1_x2F_buildings-back_x2F__x3C_Path_x3E__x5F_3_x5F_0"  width="3.1" height="13.8" y="-13.8" transform="matrix(1 0 0 -1 48.3999 79.7998)" style="overflow:visible;opacity:0.5;enable-background:new    ;"/>
		
			<use xlink:href="#FlashAICB_x5F_1_x2F_buildings-back_x2F__x3C_Path_x3E__x5F_2_x5F_0"  width="6.4" height="11.9" y="-11.9" transform="matrix(1 0 0 -1 43.9502 82.4004)" style="overflow:visible;opacity:0.5;enable-background:new    ;"/>
		
			<use xlink:href="#FlashAICB_x5F_1_x2F_buildings-back_x2F__x3C_Path_x3E__x5F_1_x5F_0"  width="3.25" height="4.2" y="-4.2" transform="matrix(1 0 0 -1 46.6001 90.7002)" style="overflow:visible;opacity:0.5;enable-background:new    ;"/>
		
			<use xlink:href="#FlashAICB_x5F_1_x2F_buildings-back_x2F__x3C_Path_x3E__x5F_0"  width="4.2" height="0.75" y="-0.75" transform="matrix(1 0 0 -1 44 93.2998)" style="overflow:visible;opacity:0.5;enable-background:new    ;"/>
	</g>
	<g>
		<polygon style="fill-rule:evenodd;clip-rule:evenodd;fill:#787B68;" points="133.05,86.75 136.65,87.7 134.4,80 137.5,86.45 
			135.6,70.4 138.4,84.4 138.2,73.2 139.45,83.7 141.5,69.7 139.95,86.15 142,82.05 140.5,86.75 143.85,84.1 141.8,87.1 
			144.8,86.05 140.45,88.85 139.15,88.7 138.2,89.55 		"/>
		
			<use xlink:href="#FlashAICB_x5F_1_x2F_buildings-back_x2F__x3C_Path_x3E__x5F_7_x5F_0"  width="3.8" height="2.2" y="-2.2" transform="matrix(1 0 0 -1 140.4502 86.2998)" style="overflow:visible;opacity:0.5;enable-background:new    ;"/>
		
			<use xlink:href="#FlashAICB_x5F_1_x2F_buildings-back_x2F__x3C_Path_x3E__x5F_6_x5F_0"  width="2" height="2.45" y="-2.45" transform="matrix(1 0 0 -1 141.5498 84.4502)" style="overflow:visible;opacity:0.5;enable-background:new    ;"/>
		
			<use xlink:href="#FlashAICB_x5F_1_x2F_buildings-back_x2F__x3C_Path_x3E__x5F_5_x5F_1"  width="1.6" height="3.75" y="-3.75" transform="matrix(1 0 0 -1 139.9502 83.2998)" style="overflow:visible;opacity:0.5;enable-background:new    ;"/>
		
			<use xlink:href="#FlashAICB_x5F_1_x2F_buildings-back_x2F__x3C_Path_x3E__x5F_4_x5F_1"  width="1.55" height="12.7" y="-12.7" transform="matrix(1 0 0 -1 139.5996 72.7998)" style="overflow:visible;opacity:0.5;enable-background:new    ;"/>
		
			<use xlink:href="#FlashAICB_x5F_1_x2F_buildings-back_x2F__x3C_Path_x3E__x5F_3_x5F_1"  width="1" height="9.75" y="-9.75" transform="matrix(1 0 0 -1 138.3496 75.0498)" style="overflow:visible;opacity:0.5;enable-background:new    ;"/>
		
			<use xlink:href="#FlashAICB_x5F_1_x2F_buildings-back_x2F__x3C_Path_x3E__x5F_2_x5F_1"  width="2.45" height="13.35" y="-13.35" transform="matrix(1 0 0 -1 136.1504 73.6504)" style="overflow:visible;opacity:0.5;enable-background:new    ;"/>
		
			<use xlink:href="#FlashAICB_x5F_1_x2F_buildings-back_x2F__x3C_Path_x3E__x5F_1_x5F_1"  width="3.2" height="6.55" y="-6.55" transform="matrix(1 0 0 -1 134.8496 81.1504)" style="overflow:visible;opacity:0.5;enable-background:new    ;"/>
		
			<use xlink:href="#FlashAICB_x5F_1_x2F_buildings-back_x2F__x3C_Path_x3E__x5F_11"  width="3.1" height="1.1" y="-1.1" transform="matrix(1 0 0 -1 133.75 86.9502)" style="overflow:visible;opacity:0.5;enable-background:new    ;"/>
	</g>
	<g>
		<polygon style="fill-rule:evenodd;clip-rule:evenodd;fill:#787B68;" points="59.5,98.95 56.2,96.4 59.15,97.6 57.65,95.35 
			60,97.55 57.9,92.95 60.4,95.85 59.4,89.6 61.95,96.75 61.2,89.1 62.7,97 63.9,93.4 63.35,97.25 68.95,87.3 64.2,97.4 67.8,91.8 
			65.25,98.1 68.55,94.75 65.4,99.1 64.6,98.95 63.9,99.25 62.5,98.75 61.6,99.1 60.55,98.65 		"/>
		
			<use xlink:href="#FlashAICB_x5F_1_x2F_buildings-back_x2F__x3C_Path_x3E__x5F_8_x5F_0"  width="-32766" height="-32766" x="16383" y="16383" transform="matrix(1 0 0 -1 65.0498 95.5)" style="overflow:visible;opacity:0.5;enable-background:new    ;"/>
		
			<use xlink:href="#FlashAICB_x5F_1_x2F_buildings-back_x2F__x3C_Path_x3E__x5F_7_x5F_1"  width="2.5" height="5.3" y="-5.3" transform="matrix(1 0 0 -1 64.8999 92.5996)" style="overflow:visible;opacity:0.5;enable-background:new    ;"/>
		
			<use xlink:href="#FlashAICB_x5F_1_x2F_buildings-back_x2F__x3C_Path_x3E__x5F_6_x5F_1"  width="4.55" height="8.85" y="-8.85" transform="matrix(1 0 0 -1 63.6499 88.75)" style="overflow:visible;opacity:0.5;enable-background:new    ;"/>
		
			<use xlink:href="#FlashAICB_x5F_1_x2F_buildings-back_x2F__x3C_Path_x3E__x5F_5_x5F_2"  width="0.75" height="3.35" y="-3.35" transform="matrix(1 0 0 -1 62.9502 94.2998)" style="overflow:visible;opacity:0.5;enable-background:new    ;"/>
		
			<use xlink:href="#FlashAICB_x5F_1_x2F_buildings-back_x2F__x3C_Path_x3E__x5F_4_x5F_2"  width="1.05" height="6.1" y="-6.1" transform="matrix(1 0 0 -1 61.5498 91.2002)" style="overflow:visible;opacity:0.5;enable-background:new    ;"/>
		
			<use xlink:href="#FlashAICB_x5F_1_x2F_buildings-back_x2F__x3C_Path_x3E__x5F_3_x5F_2"  width="2.05" height="6" y="-6" transform="matrix(1 0 0 -1 59.7998 90.9004)" style="overflow:visible;opacity:0.5;enable-background:new    ;"/>
		
			<use xlink:href="#FlashAICB_x5F_1_x2F_buildings-back_x2F__x3C_Path_x3E__x5F_2_x5F_2"  width="2.5" height="3.3" y="-3.3" transform="matrix(1 0 0 -1 58.1499 93.3496)" style="overflow:visible;opacity:0.5;enable-background:new    ;"/>
		
			<use xlink:href="#FlashAICB_x5F_1_x2F_buildings-back_x2F__x3C_Path_x3E__x5F_1_x5F_2"  width="-32766" height="-32766" x="16383" y="16383" transform="matrix(1 0 0 -1 58.0498 95.7998)" style="overflow:visible;opacity:0.5;enable-background:new    ;"/>
		
			<use xlink:href="#FlashAICB_x5F_1_x2F_buildings-back_x2F__x3C_Path_x3E__x5F_12"  width="-32766" height="-32766" x="16383" y="16383" transform="matrix(1 0 0 -1 56.5 96.5996)" style="overflow:visible;opacity:0.5;enable-background:new    ;"/>
	</g>
	<g>
		<path style="fill-rule:evenodd;clip-rule:evenodd;fill:#A1C0B7;" d="M75.8,104.6c5.233-3.733,8.517-6.25,9.851-7.55
			c0.8-0.833,2.116-2.767,3.949-5.8l2.5-4.35l-0.649,6.8c-0.334,4.733-0.217,7.616,0.35,8.649c0.828,1.509,1.879,2.567,3.15,3.176
			c-2.363-0.994-4.247-1.569-5.65-1.726c-0.934-0.133-1.967,0.066-3.1,0.601l-1.4,0.8c-0.033-0.334-0.133-0.684-0.3-1.05
			c-0.366-0.7-0.934-1.034-1.7-1c-0.8,0.033-2.2,0.283-4.2,0.75L75.8,104.6z"/>
		<path style="fill-rule:evenodd;clip-rule:evenodd;fill:#8BA8A2;" d="M90.85,91.35c-0.333,2.7-0.883,4.034-1.649,4
			c-0.467-0.033-0.334-0.699,0.399-2L90.85,91.35z"/>
		<path style="fill-rule:evenodd;clip-rule:evenodd;fill:#8BA8A2;" d="M90.55,96.6c-0.467,1.934-0.934,2.801-1.399,2.601
			C88.85,99.1,89,98.634,89.6,97.8L90.55,96.6z"/>
		<path style="fill-rule:evenodd;clip-rule:evenodd;fill:#8BA8A2;" d="M90.7,100.85c0.233-0.1,0.383,0.233,0.45,1
			c0.066,0.767,0.033,1.15-0.101,1.15c-0.166,0-0.333-0.333-0.5-1C90.384,101.333,90.434,100.95,90.7,100.85z"/>
		<g>
			<path style="fill-rule:evenodd;clip-rule:evenodd;fill:#8BA8A2;" d="M78.6,103.9l-2.8,0.699c5.233-3.733,8.517-6.25,9.851-7.55
				c0.8-0.833,2.116-2.767,3.949-5.8l2.5-4.35L89.85,91.6c-1.466,3.2-2.05,4.983-1.75,5.351c0.367,0.533,0.9,0.267,1.601-0.8
				c-1.601,2.933-2.05,4.383-1.351,4.35c0.767-0.066,1.4-0.45,1.9-1.15l-0.65,1.301c-0.333,0.933-0.267,1.666,0.2,2.199
				c0.634,0.767,1.384,1.301,2.25,1.601c-1.133-0.334-2.05-0.55-2.75-0.65c-0.934-0.133-1.967,0.066-3.1,0.601l-1.4,0.8
				c-0.033-0.334-0.133-0.684-0.3-1.05c-0.366-0.7-0.934-1.034-1.7-1C82,103.184,80.6,103.434,78.6,103.9z"/>
		</g>
		<g>
			<path style="fill-rule:evenodd;clip-rule:evenodd;fill:#708984;" d="M78.6,103.9l-2.8,0.699c5.233-3.733,8.517-6.25,9.851-7.55
				l1.3-1.7c-1.066,2.267-1.467,3.483-1.2,3.65c0.4,0.2,0.8,0.1,1.2-0.3L86,99.9c-0.533,0.833-0.566,1.35-0.1,1.55
				c0.699,0.366,1.199,0.383,1.5,0.05l-0.7,0.85c-0.4,0.601-0.5,0.917-0.3,0.95c0.333,0.066,0.783-0.033,1.35-0.3l0.35,0.3
				c0.334,0.2,0.684,0.351,1.051,0.45c-0.888-0.058-1.87,0.159-2.95,0.65l-1.4,0.8c-0.033-0.334-0.133-0.684-0.3-1.05
				c-0.366-0.7-0.934-1.034-1.7-1C82,103.184,80.6,103.434,78.6,103.9z"/>
		</g>
		<g>
			<path style="fill-rule:evenodd;clip-rule:evenodd;fill:#5D6F6C;" d="M78.6,103.9l-2.8,0.699c4.3-3.066,7.334-5.366,9.101-6.899
				l0.05-0.05l-1.2,1.449c-0.866,1-1.467,1.634-1.8,1.9c-0.533,0.434-1.75,1.25-3.65,2.45l2.2-0.5c1.533-0.334,2.5-0.45,2.9-0.351
				c0.6,0.134,1.183,0.75,1.75,1.851l1.6-0.55c1.167-0.367,2.066-0.517,2.7-0.45c0.866,0.1,2.767,0.816,5.7,2.149l0.199,0.101
				c-0.566-0.267-1.399-0.584-2.5-0.95c-1.5-0.533-2.683-0.85-3.55-0.95c-0.934-0.133-1.967,0.066-3.1,0.601l-1.4,0.8
				c-0.033-0.334-0.133-0.684-0.3-1.05c-0.366-0.7-0.934-1.034-1.7-1C82,103.184,80.6,103.434,78.6,103.9z"/>
		</g>
	</g>
	<g>
		<path style="fill-rule:evenodd;clip-rule:evenodd;fill:#A1C0B7;" d="M2.9,93.3c0.7-0.166,1.5-0.434,2.4-0.8
			c1.767-0.733,3.083-1.566,3.95-2.5s1.433-3.434,1.7-7.5l0.15-5.8l1.5,2.899c1.233,1.967,2.383,3.067,3.45,3.301
			c1.767,0.333,3.434,0.199,5-0.4l0.5,3.3c0.5,2.334,1.217,3.767,2.15,4.3c1.5,0.9,4,1.65,7.5,2.25l-9.6,1.2l-2.5-2.1
			c-1.833,0.166-3.717,0.517-5.65,1.05C11.517,93.033,8,93.3,2.9,93.3z"/>
		<g>
			<path style="fill-rule:evenodd;clip-rule:evenodd;fill:#8BA8A2;" d="M17.75,87.05c-0.233,0.934-0.133,1.483,0.3,1.65
				c0.7,0.233,1.583,0.267,2.65,0.1l5.2,4.2l-4.3,0.55l-2.5-2.1c-1.833,0.166-3.717,0.517-5.65,1.05C11.517,93.033,8,93.3,2.9,93.3
				c0.7-0.166,1.5-0.434,2.4-0.8c1.767-0.733,3.083-1.566,3.95-2.5s1.433-3.434,1.7-7.5l0.15-5.8l1.3,3.55
				c1,2.5,1.867,4.134,2.6,4.9c0.767,0.767,1.533,1.083,2.3,0.949c0.367-0.066,0.667-0.216,0.9-0.449L17.75,87.05z"/>
		</g>
		<g>
			<path style="fill-rule:evenodd;clip-rule:evenodd;fill:#708984;" d="M10.95,88.7c0.6-1,1-2,1.2-3l0.1-1.25l0.4,1.95
				c0.4,1.3,0.934,1.966,1.6,2c1.033,0.1,1.867-0.384,2.5-1.45l0.2,1.3c0.267,0.9,0.683,1.434,1.25,1.6
				c0.867,0.267,1.867,0.351,3,0.25l1.6,1.75l-1.2,1.7l-2.5-2.1c-1.833,0.166-3.717,0.517-5.65,1.05C11.517,93.033,8,93.3,2.9,93.3
				c2.434-0.633,4.383-1.583,5.85-2.85C9.85,89.85,10.583,89.267,10.95,88.7z"/>
		</g>
		<path style="fill-rule:evenodd;clip-rule:evenodd;fill:#5D6F6C;" d="M12.9,89.2c0.2,1.5,0.6,2.116,1.2,1.85s1.167-0.833,1.7-1.7
			l0.3,0.9c0.267,0.6,0.65,0.9,1.15,0.9c0.8,0,1.633,0.1,2.5,0.3l1.85,2.1l-2.75-1.05c-6.333,0.967-10.233,1.184-11.7,0.65
			c2.633-1.134,4.2-1.917,4.7-2.351c0.333-0.3,0.617-0.649,0.85-1.05L12.9,89.2z"/>
	</g>
</g>
</svg>
