<?xml version="1.0" encoding="iso-8859-1"?>
<!-- Generator: Adobe Illustrator 15.1.0, SVG Export Plug-In . SVG Version: 6.00 Build 0)  -->
<!DOCTYPE svg PUBLIC "-//W3C//DTD SVG 1.1//EN" "http://www.w3.org/Graphics/SVG/1.1/DTD/svg11.dtd">
<svg version="1.1" id="buildings" xmlns="http://www.w3.org/2000/svg" xmlns:xlink="http://www.w3.org/1999/xlink" x="0px" y="0px"
	 width="220.1px" height="210.45px" viewBox="0 0 220.1 210.45" style="enable-background:new 0 0 220.1 210.45;"
	 xml:space="preserve">
<symbol  id="FlashAICB_x2F_buildings_x2F__x3C_Path_x3E__x5F_10" viewBox="0 -44.75 220.102 44.757">
	<g id="Layer_1_2_">
		<path style="fill-rule:evenodd;clip-rule:evenodd;" d="M212.65-37.05c3.9-1.8,6.267-3.133,7.1-4c0.433-0.4,0.467-0.633,0.1-0.7
			c-5,0.667-9.617,1.617-13.85,2.85c-4.367,1.267-10,2.583-16.9,3.95c-8.333,1.667-13.317,2.233-14.95,1.7
			c-1.533-0.467-3.017-1.7-4.45-3.7l-1.7-2.8c-15.567,3.667-27.117,6.733-34.65,9.2c-4.833,1.533-9.817,2.3-14.95,2.3
			c-5.867-0.333-10.383-0.55-13.55-0.65c-10.867-0.4-17.184-0.65-18.95-0.75c-8.267-0.533-13.517-1.333-15.75-2.4
			c-2.133-1.034-6.467-3.467-13-7.3c-3.267-1.9-6.316-3.7-9.15-5.4c0.333,5.333,0.117,9.167-0.65,11.5
			c-0.567,1.633-1.967,2.567-4.2,2.8c-1.633,0.133-5.566-0.066-11.8-0.6c-7.567-0.667-18.017-1.733-31.35-3.2l6.85,1.85
			c2.1,0.566,8.2,3.35,18.3,8.35L51.5-15.4c12.233,2.733,24.483,5.433,36.75,8.1c24.533,5.3,36.9,7.716,37.1,7.25
			c0.2-0.5,7.167-3.25,20.9-8.25c11.1-4.067,18.3-6.65,21.6-7.75C168.85-16.383,183.783-23.383,212.65-37.05z"/>
	</g>
</symbol>
<g>
	
		<use xlink:href="#FlashAICB_x2F_buildings_x2F__x3C_Path_x3E__x5F_10"  width="220.102" height="44.757" y="-44.75" transform="matrix(1 0 0 -1 0 165.7002)" style="overflow:visible;opacity:0.4102;"/>
	<path style="fill-rule:evenodd;clip-rule:evenodd;fill:#484439;" d="M146.3,47.95c4.134,15.867,7.066,25.433,8.8,28.7
		c2.733,5.233,5.467,10.033,8.2,14.4c-16.533,4.133-33.733,6.733-51.6,7.8C76,100.983,54.883,94.4,48.35,79.1
		c-0.133-0.333,1.2-4.667,4-13c3.167-9.533,5-17.417,5.5-23.65c0.5-6.7,0.383-13.934-0.35-21.7c-0.4-3.867-0.833-7.067-1.3-9.6
		c1.733,5.7,3.683,11.133,5.85,16.3c4.4,10.3,7.8,14.066,10.2,11.3c2.433-2.733,4.6-10.017,6.5-21.85C79.717,11,80.433,5.367,80.9,0
		c2.967,10.433,6.434,20.833,10.4,31.2c8,20.767,14.567,30.966,19.7,30.6c5.134-0.333,7.017-10.667,5.65-31
		c-0.667-10.167-1.867-20.3-3.601-30.4c2.066,9.067,4.5,18.1,7.3,27.1c5.634,18,10.351,26.833,14.15,26.5
		c3.767-0.367,5.917-5.283,6.45-14.75c0.3-4.733,0.2-9.433-0.3-14.1L146.3,47.95z"/>
	<path style="fill-rule:evenodd;clip-rule:evenodd;fill:#6C6552;" d="M170.35,138.85c1.767,9.034,5.417,18.834,10.95,29.4
		c6.066,11.667,12.3,19.866,18.7,24.6c7.4,5.5,13.85,10.034,19.35,13.601c-5.8-2.467-12.033-4.75-18.699-6.851
		c-13.367-4.166-22.233-5.316-26.601-3.449c-2.399,1.033-4.434,2.433-6.1,4.199c-0.834,0.9-1.417,1.7-1.75,2.4
		c-3.5-3.267-7.483-6.517-11.95-9.75c-8.934-6.5-15.8-9.667-20.6-9.5c-4.801,0.167-9.817-0.35-15.051-1.55l-6.35-1.9
		c-3.5,1.867-7.517,3.851-12.05,5.95c-9.1,4.2-16.217,6.9-21.35,8.1c-5.133,1.2-11.483,3.95-19.05,8.25
		c-3.767,2.167-7.033,4.217-9.8,6.15c0.833-2.4,1.317-4.783,1.45-7.15c0.267-4.733-1.317-7.017-4.75-6.85
		c-5.5,0.267-17.717,1.5-36.65,3.7c5.1-2.601,10.25-5.767,15.45-9.5c10.433-7.5,16-14.084,16.7-19.75
		c0.667-5.5,2.716-13.783,6.15-24.851c3.3-9.933,4.95-15.116,4.95-15.55c0-0.8-7-13.566-21-38.3l21.4-57.3
		c-0.9,4.6-1.633,9.433-2.2,14.5c-1.167,10.1-0.983,16.267,0.55,18.5c1.534,2.233,5.083-0.333,10.65-7.7
		c2.8-3.667,5.433-7.567,7.9-11.7L78.45,61l14.8-44.1l7.05,26.8l8.2-17.75l5.1,13.85c4.2,9.4,8.267,14.534,12.2,15.4
		c3.967,0.867,6.867-2.917,8.7-11.35c0.934-4.233,1.467-8.55,1.6-12.95l25.15,35.85l4.95-18.55l9.899,56.9l-3.35,14.55
		C170.616,129.884,169.816,136.283,170.35,138.85z"/>
	<g>
		<path style="fill-rule:evenodd;clip-rule:evenodd;fill:#5C5647;" d="M93.25,16.9l-11.1,69.2c-0.533,3.267-1.717,7.066-3.55,11.4
			c-0.934,2.167-1.817,4-2.65,5.5c3.3,13.733,5.083,21.3,5.35,22.7c0.833,3.733,1.517,7.8,2.05,12.2c1,8.199,1.15,15.25,0.45,21.149
			c-1.1,9.334-2.75,21.017-4.95,35.05c-5.133,1.2-11.483,3.95-19.05,8.25c-3.767,2.167-7.033,4.217-9.8,6.15
			c0.833-2.4,1.317-4.783,1.45-7.15c0.267-4.733-1.317-7.017-4.75-6.85c-5.5,0.267-17.717,1.5-36.65,3.7
			c5.1-2.601,10.25-5.767,15.45-9.5c10.433-7.5,16-14.084,16.7-19.75c0.667-5.5,2.716-13.783,6.15-24.851
			c3.3-9.933,4.95-15.116,4.95-15.55c0-0.8-7-13.566-21-38.3l21.4-57.3c-0.9,4.6-1.633,9.433-2.2,14.5
			c-1.167,10.1-0.983,16.267,0.55,18.5c1.534,2.233,5.083-0.333,10.65-7.7c2.8-3.667,5.433-7.567,7.9-11.7L78.45,61L93.25,16.9z"/>
	</g>
	<path style="fill-rule:evenodd;clip-rule:evenodd;fill:#484439;" d="M59.05,88.6l9.9,32.95l0.85,22.7
		c0.267,16.167-0.283,26.733-1.65,31.7s-4.8,11.883-10.3,20.75c-2.767,4.434-5.383,8.366-7.85,11.8c1.033-2.4,1.55-4.8,1.55-7.2
		c0-4.8-2.566-7.2-7.7-7.2c-5.167,0-12.35,0.684-21.55,2.051c-4.6,0.699-8.683,1.383-12.25,2.05c5.233-1.5,10.717-3.417,16.45-5.75
		c11.467-4.667,18.483-9.066,21.05-13.2c2.567-4.134,5.333-14.167,8.3-30.1l3.65-22.65L36.4,89.85L47.55,51.9l0.2,11.1
		c0.833,7.2,2.967,10.367,6.4,9.5c3.434-0.867,7.35-4.55,11.75-11.05c2.2-3.267,4.05-6.45,5.55-9.55L59.05,88.6z"/>
	<path style="fill-rule:evenodd;clip-rule:evenodd;fill:#66604E;" d="M166.2,117.9c-4.101,9.966-5.467,17.1-4.101,21.399
		c2.634,8.2,6.184,16.783,10.65,25.75c6.3,12.566,12.217,20.733,17.75,24.5c5.333,3.601,11.75,7.5,19.25,11.7
		c3.733,2.1,6.934,3.833,9.6,5.2c-5.433-1.767-11.149-3.533-17.149-5.3c-12-3.5-19.467-5.167-22.4-5
		c-2.899,0.166-5.55,0.767-7.95,1.8l-2.75,1.5c-1.1-6.334-2.883-15.533-5.35-27.601c-1.566-7.566-5.066-15.399-10.5-23.5
		l-7.65-9.899c0.7-1.434,1.301-3.7,1.801-6.8c1.033-6.167,1.116-13.384,0.25-21.65c-0.867-8.233-7.5-21.2-19.9-38.9
		c-3.9-5.533-8.134-11.217-12.7-17.05l-5.7-7.05l8.85,7.7c6.467,4.8,11.066,6.35,13.8,4.65c2.767-1.733,4.9-4.867,6.4-9.4
		l1.449-6.25L160,80.35l4.55-9.45l8.25,33.35L166.2,117.9z"/>
	<path style="fill-rule:evenodd;clip-rule:evenodd;fill:#5C5647;" d="M165.3,93.75c0.967,5.367,1.267,8.733,0.9,10.1
		c-0.101,0.367-0.75,1.883-1.95,4.55c-1.333,2.933-2.384,5.583-3.15,7.949c-2.6,8.101-2.966,15.467-1.1,22.101
		c2.5,8.767,5.7,17.934,9.6,27.5c4.301,10.467,7.7,16.967,10.2,19.5c2.233,2.233,6.267,5.434,12.101,9.6
		c2.933,2.101,5.633,3.967,8.1,5.601c-3.3-1.367-6.833-2.534-10.6-3.5c-7.567-1.9-12.551-1.817-14.95,0.25
		c0.267-0.467,0.3-1.684,0.1-3.65c-0.399-3.934-1.8-9.6-4.2-17c-2.399-7.366-5.933-15.9-10.6-25.6l-6.3-12.301
		c0.633-3.966,1.033-8.566,1.2-13.8c0.333-10.434-0.617-18.733-2.851-24.9c-2.233-6.2-6.75-13.9-13.55-23.1L128.7,65.1l10.75,10.55
		c7.633,7.767,12.566,13.45,14.8,17.05c2.233,3.6,3.866,7.083,4.9,10.45c0.5,1.7,0.783,3.034,0.85,4l3.75-21.05L165.3,93.75z"/>
	<path style="fill-rule:evenodd;clip-rule:evenodd;fill:#8B8168;" d="M158.4,68l-4.15,15.65c0-1.033-0.116-2.35-0.35-3.95
		c-0.5-3.233-1.351-6.317-2.551-9.25l-13.6-33.35L158.4,68z"/>
	<polygon style="fill-rule:evenodd;clip-rule:evenodd;fill:#8B8168;" points="164.55,81.6 165.4,58.95 172.8,104.25 	"/>
	<path style="fill-rule:evenodd;clip-rule:evenodd;fill:#8B8168;" d="M107.3,32.55l1.9,4.95c1.434,3.867,2.583,7.167,3.45,9.9
		c0.866,2.767,3.116,7.033,6.75,12.8c1.833,2.867,3.566,5.466,5.199,7.8c-7.966-9.067-12.783-15.117-14.449-18.15
		c-1.034-1.867-1.817-5.317-2.351-10.35L107.3,32.55z"/>
	<polygon style="fill-rule:evenodd;clip-rule:evenodd;fill:#8B8168;" points="122.1,81.2 136.55,97.65 139,115.8 	"/>
	<path style="fill-rule:evenodd;clip-rule:evenodd;fill:#66604E;" d="M92.05,56.85L92.9,71.4c0.533,10.434,0.8,17.533,0.8,21.3
		c0,3.667-1.367,7.483-4.1,11.45c-1.272,1.818-2.531,3.592-3.775,5.325c0.615-1.636,1.99-6.261,4.125-13.875l-10.3,6.2
		c1.934-3.3,3.867-6.183,5.8-8.65c1.2-1.566,2.667-8.083,4.4-19.55L92.05,56.85z"/>
	<g>
		<path style="fill-rule:evenodd;clip-rule:evenodd;fill:#5C5647;" d="M101.6,94c0.2-4.9,0.133-11.75-0.2-20.55l-0.55-11.7
			l5.5,28.75L107.6,70l2.2,9.95c1.733,7.566,3.167,13.583,4.3,18.05c1.134,4.433,3.617,9.75,7.45,15.95
			c2.033,3.233,4.467,6.916,7.3,11.05c1,1.767,1.684,2.717,2.051,2.85c-1.834,3.2-3.233,6.801-4.2,10.801
			c-1.733,7.1-1.434,13.55,0.899,19.35c3.334,8.434,7.95,17.55,13.851,27.35c-3.134-1.333-5.733-1.949-7.8-1.85l-1.101,0.05
			c-9.6-16.066-14.833-26.416-15.7-31.05c-0.733-3.733-0.699-10.566,0.101-20.5l1.399-13.75l-5.5,4l-8.5-22l-3.75,20l1.95,16.8
			c1.333,12.434,2.1,21.834,2.3,28.2c0.2,7-0.833,13.667-3.1,20c-3,1.434-5.8,2.684-8.4,3.75c0.633-6.967,1.217-14.167,1.75-21.6
			c1.1-14.867,1.433-23.5,1-25.9c-0.4-2.4-0.9-6.667-1.5-12.8l-0.75-8.45c1.2-2.4,2.433-5.3,3.7-8.7
			C100.05,104.75,101.4,98.9,101.6,94z"/>
		<path style="fill-rule:evenodd;clip-rule:evenodd;fill:#66604E;" d="M118.35,118.25L116.95,132
			c-0.8,9.934-0.834,16.767-0.101,20.5c0.867,4.634,6.101,14.983,15.7,31.05c-4.6,0.066-9.366-0.5-14.3-1.7l-6-1.8
			c-3,1.601-6.5,3.334-10.5,5.2c2.267-6.333,3.3-13,3.1-20c-0.2-6.366-0.967-15.767-2.3-28.2l-1.95-16.8l3.75-20l8.5,22
			L118.35,118.25z"/>
	</g>
</g>
</svg>
