<?xml version="1.0" encoding="iso-8859-1"?>
<!-- Generator: Adobe Illustrator 15.1.0, SVG Export Plug-In . SVG Version: 6.00 Build 0)  -->
<!DOCTYPE svg PUBLIC "-//W3C//DTD SVG 1.1//EN" "http://www.w3.org/Graphics/SVG/1.1/DTD/svg11.dtd">
<svg version="1.1" id="buildings" xmlns="http://www.w3.org/2000/svg" xmlns:xlink="http://www.w3.org/1999/xlink" x="0px" y="0px"
	 width="280px" height="324.5px" viewBox="0 0 280 324.5" style="enable-background:new 0 0 280 324.5;" xml:space="preserve">
<symbol  id="FlashAICB_x2F_buildings_x2F__x3C_Path_x3E__x5F_27" viewBox="0 -24.1 146.2 24.138">
	<g id="Layer_1_2_">
		<path style="fill-rule:evenodd;clip-rule:evenodd;" d="M146.2-14.5c-18.3,2.867-29.367,4.383-33.2,4.55
			c-2.767,0.133-4.6-0.316-5.5-1.35c-0.867-0.9-0.967-2.333-0.3-4.3c0.833-2.5,2-5.333,3.5-8.5c-7.8,3.767-14.367,6.817-19.7,9.15
			c-4.167,1.967-6.817,3.15-7.95,3.55c-1.466,0.533-2.917,0.467-4.35-0.2c-1.367-0.633-4.75-2.683-10.15-6.15l-7.7-5
			c-0.067,1.6-0.217,3.25-0.45,4.95c-0.433,3.367-1,5.267-1.7,5.7c-1.733,1.033-8.184,0.7-19.35-1C29.25-14.667,16.133-16.5,0-18.6
			L40.2-4.95l27.5,3.2C91.033-1.083,102.783-0.5,102.95,0c0.1,0.3,5.3-1.183,15.6-4.45c5.133-1.667,10.267-3.35,15.4-5.05
			L146.2-14.5z"/>
	</g>
</symbol>
<g>
	<g>
		<g>
			<g>
				<path style="fill-rule:evenodd;clip-rule:evenodd;fill:#8C9091;" d="M9.5,221.9c1.067,0,1.783,0.25,2.15,0.75
					c0.3,0.433,0.35,1.683,0.15,3.75c-0.167,2.133-0.466,3.3-0.9,3.5c-0.433,0.199-1.066-0.084-1.9-0.851
					c-0.867-0.733-1.1-1.133-0.7-1.2c0.367-0.033,0.667-0.3,0.9-0.8c0.2-0.5,0.25-1.1,0.15-1.8c-0.067-0.566-0.367-1.05-0.9-1.45
					L7.7,223.4C7.733,222.434,8.333,221.934,9.5,221.9z"/>
				<polygon style="fill-rule:evenodd;clip-rule:evenodd;fill:#8C9091;" points="1.55,230.35 5.55,230.85 5.25,233.05 3.75,232.35 
									"/>
				<path style="fill-rule:evenodd;clip-rule:evenodd;fill:#A6AAAB;" d="M3.45,229.7c-0.3-0.3-0.534-0.65-0.7-1.05
					c-0.133-0.233-0.217-0.684-0.25-1.351L2.45,226.4l3.15-0.15l0.2,4.9L3.45,229.7z"/>
				<polygon style="fill-rule:evenodd;clip-rule:evenodd;fill:#A6AAAB;" points="1.5,223.7 2.1,225.65 1.75,228.15 0,227.9 
					0.05,223.8 				"/>
				<path style="fill-rule:evenodd;clip-rule:evenodd;fill:#BBBFBF;" d="M2.95,221.65l2.2-0.45l-0.45,3.95l-2.5-0.25
					c-0.1-0.801-0.034-1.551,0.2-2.25L2.95,221.65z"/>
				<path style="fill-rule:evenodd;clip-rule:evenodd;fill:#C0C4C4;" d="M6.25,218.65l1.25-0.5l0.25,0.75l-1.65,2.8l-1.9-1.351
					c0.167-0.333,0.45-0.699,0.85-1.1c0.267-0.233,0.55-0.4,0.85-0.5C6.033,218.684,6.15,218.65,6.25,218.65z"/>
				<path style="fill-rule:evenodd;clip-rule:evenodd;fill:#A6AAAB;" d="M6.85,216.65c0.467,0.399,0.566,1.066,0.3,2h-0.9l-0.35-2
					H6.85z"/>
				<path style="fill-rule:evenodd;clip-rule:evenodd;fill:#848889;" d="M2.3,220.6h0.65c0.466,0.034,0.767,0.084,0.9,0.15
					c0.2,0.1,0.3,0.434,0.3,1l-1.2-0.1l-1.85-0.9L2.3,220.6z"/>
				<polygon style="fill-rule:evenodd;clip-rule:evenodd;fill:#BBBFBF;" points="1.55,230.35 3.3,229.5 4.45,229.75 4.75,231.2 				
					"/>
				<polygon style="fill-rule:evenodd;clip-rule:evenodd;fill:#A6AAAB;" points="7.65,234.5 6.3,233.9 7.05,231.85 8.65,232.15 				
					"/>
				<polygon style="fill-rule:evenodd;clip-rule:evenodd;fill:#C8CDCC;" points="12.7,218.4 11.25,220.9 9,219.6 10.6,218.25 				
					"/>
				<polygon style="fill-rule:evenodd;clip-rule:evenodd;fill:#EFF0EF;" points="15.15,223.35 12.5,224.25 11.1,222.95 13.3,222.95 
									"/>
				<polygon style="fill-rule:evenodd;clip-rule:evenodd;fill:#8C9091;" points="12.85,232.15 10.95,231.5 11.65,230.15 				"/>
				<path style="fill-rule:evenodd;clip-rule:evenodd;fill:#DBE0DE;" d="M7.55,225.45c-0.066,1.7,0.434,2.55,1.5,2.55
					c1.133,0,1.65-0.816,1.55-2.45c-0.133-1.633-0.733-2.5-1.8-2.6C8,222.884,7.583,223.717,7.55,225.45z M4.15,221.75L2.3,220.6
					l1.85-2.5l1.35,1.551c0.467-0.5,1.017-0.834,1.65-1l-0.3-2h3.1l-0.15,2.1c0.567,0.2,1.1,0.517,1.6,0.95l1.3-1.3l1.55,2.85
					l-1.3,0.65c0.167,0.3,0.35,0.816,0.55,1.55l1.65-0.101v2.801l-1.4,0.199c0,0.733-0.117,1.534-0.35,2.4l1.1,0.7l-1.65,2.7
					l-0.95-0.65c-0.333,0.366-0.733,0.684-1.2,0.95l0.3,1.899l-3.35,0.15l0.45-1.75c-0.667-0.167-1.25-0.417-1.75-0.75l-1.1,1.05
					l-2.4-2.3l1.6-1c-0.267-0.566-0.483-1.233-0.65-2l-2.05,0.4L1.5,223.7l2.15,0.2C3.783,223.033,3.95,222.316,4.15,221.75z"/>
				<polygon style="fill-rule:evenodd;clip-rule:evenodd;fill:#BBBFBF;" points="4.15,218.1 2.3,220.6 1.1,220.75 2.7,218.25 				
					"/>
			</g>
			<path style="fill-rule:evenodd;clip-rule:evenodd;fill:#BBBFBF;" d="M6.65,219.65L7,219.8L6.7,220
				c-0.267,0.167-0.534,0.434-0.8,0.8c-0.667,0.867-1.017,2.4-1.05,4.601c-0.033,1.5,0.217,2.816,0.75,3.949
				c0.566,1.267,1.367,2.034,2.4,2.301c0.9,0.267,1.833,0.216,2.8-0.15c0.5-0.167,0.9-0.366,1.2-0.6c-0.267,0.3-0.667,0.566-1.2,0.8
				c-0.566,0.3-1.267,0.434-2.1,0.399c-1.034,0-1.833-0.333-2.4-1c-0.633-0.733-1.1-1.85-1.4-3.35c-0.333-1.5-0.417-2.934-0.25-4.3
				c0.133-1.134,0.5-2.101,1.1-2.9L6.65,219.65z"/>
			<path style="fill-rule:evenodd;clip-rule:evenodd;fill:#EFF0EF;" d="M9.2,219.55l0.8,0.15c0.6,0.166,1.1,0.467,1.5,0.899
				c0.667,0.7,1.167,2.134,1.5,4.301h-0.3c-0.4-2.134-0.883-3.517-1.45-4.15c-0.267-0.3-0.683-0.6-1.25-0.9L9.2,219.55z"/>
			<path style="fill-rule:evenodd;clip-rule:evenodd;fill:#BBBFBF;" d="M7.5,223.45c-0.333,0.633-0.45,1.366-0.35,2.2
				c0.233,2.033,0.95,2.949,2.15,2.75c0.633-0.067,1.083-0.417,1.35-1.051c0.233-0.566,0.283-1.233,0.15-2
				c-0.333-1.866-1.033-2.8-2.1-2.8C8.233,222.55,7.833,222.85,7.5,223.45z M6.95,226.45c-0.2-1.066-0.117-2.033,0.25-2.9
				c0.333-0.866,0.8-1.3,1.4-1.3c1.3,0,2.1,1,2.4,3c0.167,0.967,0.067,1.783-0.3,2.45c-0.333,0.566-0.733,0.883-1.2,0.95
				C8.033,228.75,7.183,228.017,6.95,226.45z"/>
		</g>
		
			<line style="fill-rule:evenodd;clip-rule:evenodd;fill:none;stroke:#515354;stroke-width:0.5;" x1="8.8" y1="197.8" x2="8.65" y2="223.65"/>
	</g>
	<g>
		<g>
			<g>
				<path style="fill-rule:evenodd;clip-rule:evenodd;fill:#8C9091;" d="M200.05,51.1c0.033-1,0.634-1.517,1.8-1.55
					c1.034-0.033,1.733,0.217,2.101,0.75c0.3,0.434,0.366,1.7,0.2,3.8c-0.167,2.1-0.467,3.25-0.9,3.45
					c-0.434,0.2-1.083-0.083-1.95-0.85c-0.866-0.733-1.083-1.117-0.649-1.15c0.366-0.033,0.649-0.316,0.85-0.85
					c0.2-0.5,0.267-1.1,0.2-1.8c-0.066-0.566-0.367-1.033-0.9-1.4L200.05,51.1z"/>
				<polygon style="fill-rule:evenodd;clip-rule:evenodd;fill:#8C9091;" points="193.85,58 197.85,58.5 197.55,60.7 196.1,60 				
					"/>
				<path style="fill-rule:evenodd;clip-rule:evenodd;fill:#A6AAAB;" d="M195.8,57.35c-0.3-0.3-0.55-0.633-0.75-1
					c-0.1-0.233-0.184-0.684-0.25-1.35l-0.05-0.95l3.2-0.15l0.2,4.9L195.8,57.35z"/>
				<polygon style="fill-rule:evenodd;clip-rule:evenodd;fill:#A6AAAB;" points="193.8,51.35 194.4,53.3 194.05,55.85 192.35,55.55 
					192.4,51.45 				"/>
				<path style="fill-rule:evenodd;clip-rule:evenodd;fill:#BBBFBF;" d="M195.3,49.3l2.15-0.45l-0.4,4l-2.55-0.25
					c-0.1-0.833-0.017-1.6,0.25-2.3L195.3,49.3z"/>
				<path style="fill-rule:evenodd;clip-rule:evenodd;fill:#C0C4C4;" d="M198.6,46.3l1.25-0.5l0.25,0.8l-1.699,2.8L196.55,48
					l0.2-0.3c0.167-0.267,0.384-0.534,0.65-0.8C197.8,46.5,198.2,46.3,198.6,46.3z"/>
				<path style="fill-rule:evenodd;clip-rule:evenodd;fill:#A6AAAB;" d="M199.2,44.3c0.434,0.4,0.533,1.067,0.3,2h-0.9l-0.35-2
					H199.2z"/>
				<path style="fill-rule:evenodd;clip-rule:evenodd;fill:#848889;" d="M194.65,48.25h0.649c0.467,0.033,0.767,0.083,0.9,0.15
					c0.2,0.133,0.3,0.467,0.3,1l-1.2-0.1l-1.899-0.9L194.65,48.25z"/>
				<polygon style="fill-rule:evenodd;clip-rule:evenodd;fill:#BBBFBF;" points="195.2,58.45 193.85,58 195.6,57.15 196.8,57.45 
					197.1,58.85 				"/>
				<polygon style="fill-rule:evenodd;clip-rule:evenodd;fill:#A6AAAB;" points="200,62.2 198.65,61.55 199.4,59.5 201,59.8 				"/>
				<polygon style="fill-rule:evenodd;clip-rule:evenodd;fill:#C8CDCC;" points="205.05,46.1 203.6,48.55 201.35,47.25 202.95,45.9 
									"/>
				<polygon style="fill-rule:evenodd;clip-rule:evenodd;fill:#EFF0EF;" points="207.5,51.05 204.85,51.9 203.45,50.6 205.6,50.6 
									"/>
				<polygon style="fill-rule:evenodd;clip-rule:evenodd;fill:#8C9091;" points="205.2,59.8 203.3,59.15 204,57.8 				"/>
				<path style="fill-rule:evenodd;clip-rule:evenodd;fill:#DBE0DE;" d="M199.85,53.1c-0.033,1.7,0.483,2.55,1.551,2.55
					c1.1,0,1.6-0.816,1.5-2.45c-0.101-1.633-0.684-2.483-1.75-2.55C200.35,50.583,199.917,51.4,199.85,53.1z M203.75,47.35l1.3-1.25
					l1.55,2.85l-1.3,0.6c0.267,0.667,0.434,1.184,0.5,1.55l1.7-0.05v2.75l-1.4,0.2c-0.066,0.967-0.199,1.783-0.399,2.45l1.149,0.7
					L205.2,59.8l-0.95-0.6c-0.434,0.433-0.833,0.733-1.2,0.9l0.3,1.9L200,62.2l0.4-1.8c-0.601-0.1-1.167-0.333-1.7-0.7l-1.15,1
					l-2.35-2.25l1.6-1c-0.333-0.733-0.566-1.4-0.7-2l-2.05,0.4l-0.25-4.5l2.15,0.2c0.1-0.633,0.283-1.35,0.55-2.15l-1.85-1.15
					l1.85-2.5l1.35,1.55c0.467-0.466,1.017-0.8,1.65-1l-0.3-2h3.1l-0.2,2.1C202.7,46.6,203.25,46.917,203.75,47.35z"/>
				<polygon style="fill-rule:evenodd;clip-rule:evenodd;fill:#BBBFBF;" points="196.5,45.75 194.65,48.25 193.4,48.4 195.05,45.95 
									"/>
			</g>
			<path style="fill-rule:evenodd;clip-rule:evenodd;fill:#BBBFBF;" d="M198.95,47.35l0.399,0.1c-0.333,0.133-0.716,0.466-1.149,1
				c-0.667,0.933-1,2.483-1,4.65c-0.033,1.467,0.217,2.767,0.75,3.9c0.566,1.3,1.35,2.083,2.35,2.35
				c0.934,0.233,1.884,0.167,2.851-0.2c0.466-0.167,0.85-0.367,1.149-0.6c-0.233,0.3-0.616,0.583-1.149,0.85
				c-0.601,0.267-1.301,0.383-2.101,0.35c-1.066,0-1.866-0.333-2.399-1c-0.601-0.733-1.067-1.85-1.4-3.35
				c-0.333-1.467-0.434-2.883-0.3-4.25c0.133-1.133,0.5-2.117,1.1-2.95C198.384,47.8,198.684,47.517,198.95,47.35z"/>
			<path style="fill-rule:evenodd;clip-rule:evenodd;fill:#EFF0EF;" d="M201.5,47.2l0.8,0.15c0.601,0.167,1.101,0.467,1.5,0.9
				c0.667,0.7,1.184,2.15,1.55,4.35H205c-0.366-2.167-0.833-3.567-1.4-4.2c-0.267-0.3-0.699-0.6-1.3-0.9L201.5,47.2z"/>
			<path style="fill-rule:evenodd;clip-rule:evenodd;fill:#BBBFBF;" d="M201,50.2c-0.434,0-0.816,0.3-1.15,0.9
				c-0.366,0.667-0.5,1.417-0.399,2.25c0.267,1.967,1,2.883,2.2,2.75c0.633-0.1,1.083-0.467,1.35-1.1
				c0.233-0.567,0.283-1.233,0.15-2C202.816,51.133,202.1,50.2,201,50.2z M201.85,56.3c-1.433,0.167-2.3-0.55-2.6-2.15
				c-0.167-1.066-0.066-2.05,0.3-2.95c0.367-0.867,0.834-1.3,1.4-1.3c1.267,0,2.066,1,2.399,3c0.167,0.967,0.067,1.783-0.3,2.45
				C202.717,55.917,202.316,56.233,201.85,56.3z"/>
		</g>
		
			<line style="fill-rule:evenodd;clip-rule:evenodd;fill:none;stroke:#515354;stroke-width:0.5;" x1="201.15" y1="25.45" x2="200.95" y2="51.3"/>
	</g>
	<g>
		<g>
			<g>
				<path style="fill-rule:evenodd;clip-rule:evenodd;fill:#8C9091;" d="M247.05,131.1c0.033-1,0.634-1.517,1.8-1.55
					c1.034-0.033,1.733,0.217,2.101,0.75c0.3,0.434,0.366,1.7,0.2,3.8c-0.167,2.1-0.467,3.25-0.9,3.45
					c-0.434,0.2-1.083-0.083-1.95-0.85c-0.866-0.733-1.083-1.117-0.649-1.15c0.366-0.033,0.649-0.316,0.85-0.85
					c0.2-0.5,0.267-1.1,0.2-1.8c-0.066-0.566-0.367-1.033-0.9-1.4L247.05,131.1z"/>
				<polygon style="fill-rule:evenodd;clip-rule:evenodd;fill:#8C9091;" points="244.85,138.5 244.55,140.7 243.1,140 240.85,138 
									"/>
				<path style="fill-rule:evenodd;clip-rule:evenodd;fill:#A6AAAB;" d="M241.75,134.05l3.2-0.15l0.2,4.9l-2.351-1.45
					c-0.3-0.3-0.55-0.633-0.75-1c-0.1-0.233-0.184-0.684-0.25-1.35L241.75,134.05z"/>
				<polygon style="fill-rule:evenodd;clip-rule:evenodd;fill:#A6AAAB;" points="240.8,131.35 241.4,133.3 241.05,135.85 
					239.35,135.55 239.4,131.45 				"/>
				<path style="fill-rule:evenodd;clip-rule:evenodd;fill:#BBBFBF;" d="M241.5,132.6c-0.1-0.833-0.017-1.6,0.25-2.3l0.55-1
					l2.15-0.45l-0.4,4L241.5,132.6z"/>
				<path style="fill-rule:evenodd;clip-rule:evenodd;fill:#C0C4C4;" d="M245.6,126.3l1.25-0.5l0.25,0.8l-1.699,2.8l-1.851-1.4
					l0.2-0.3c0.167-0.267,0.384-0.534,0.65-0.8C244.8,126.5,245.2,126.3,245.6,126.3z"/>
				<path style="fill-rule:evenodd;clip-rule:evenodd;fill:#A6AAAB;" d="M246.2,124.3c0.434,0.4,0.533,1.067,0.3,2h-0.9l-0.35-2
					H246.2z"/>
				<path style="fill-rule:evenodd;clip-rule:evenodd;fill:#848889;" d="M241.65,128.25h0.649c0.467,0.033,0.767,0.083,0.9,0.15
					c0.2,0.133,0.3,0.467,0.3,1l-1.2-0.1l-1.899-0.9L241.65,128.25z"/>
				<polygon style="fill-rule:evenodd;clip-rule:evenodd;fill:#BBBFBF;" points="242.6,137.15 243.8,137.45 244.1,138.85 
					242.2,138.45 240.85,138 				"/>
				<polygon style="fill-rule:evenodd;clip-rule:evenodd;fill:#A6AAAB;" points="247,142.2 245.65,141.55 246.4,139.5 248,139.8 
									"/>
				<polygon style="fill-rule:evenodd;clip-rule:evenodd;fill:#C8CDCC;" points="252.05,126.1 250.6,128.55 248.35,127.25 
					249.95,125.9 				"/>
				<polygon style="fill-rule:evenodd;clip-rule:evenodd;fill:#EFF0EF;" points="254.5,131.05 251.85,131.9 250.45,130.6 
					252.6,130.6 				"/>
				<polygon style="fill-rule:evenodd;clip-rule:evenodd;fill:#8C9091;" points="252.2,139.8 250.3,139.15 251,137.8 				"/>
				<path style="fill-rule:evenodd;clip-rule:evenodd;fill:#DBE0DE;" d="M249.9,133.2c-0.101-1.633-0.684-2.483-1.75-2.55
					c-0.801-0.066-1.233,0.75-1.301,2.45c-0.033,1.7,0.483,2.55,1.551,2.55C249.5,135.65,250,134.833,249.9,133.2z M241.05,135.85
					l-0.25-4.5l2.15,0.2c0.1-0.633,0.283-1.35,0.55-2.15l-1.85-1.15l1.85-2.5l1.35,1.55c0.467-0.466,1.017-0.8,1.65-1l-0.3-2h3.1
					l-0.2,2.1c0.601,0.2,1.15,0.517,1.65,0.95l1.3-1.25l1.55,2.85l-1.3,0.6c0.267,0.667,0.434,1.184,0.5,1.55l1.7-0.05v2.75
					l-1.4,0.2c-0.066,0.967-0.199,1.783-0.399,2.45l1.149,0.7l-1.649,2.65l-0.95-0.6c-0.434,0.433-0.833,0.733-1.2,0.9l0.3,1.9
					l-3.35,0.2l0.4-1.8c-0.601-0.1-1.167-0.333-1.7-0.7l-1.15,1l-2.35-2.25l1.6-1c-0.333-0.733-0.566-1.4-0.7-2L241.05,135.85z"/>
				<polygon style="fill-rule:evenodd;clip-rule:evenodd;fill:#BBBFBF;" points="241.65,128.25 240.4,128.4 242.05,125.95 
					243.5,125.75 				"/>
			</g>
			<path style="fill-rule:evenodd;clip-rule:evenodd;fill:#BBBFBF;" d="M245.95,127.35l0.399,0.1c-0.333,0.133-0.716,0.466-1.149,1
				c-0.667,0.933-1,2.483-1,4.65c-0.033,1.467,0.217,2.767,0.75,3.9c0.566,1.3,1.35,2.083,2.35,2.35
				c0.934,0.233,1.884,0.167,2.851-0.2c0.466-0.167,0.85-0.367,1.149-0.6c-0.233,0.3-0.616,0.583-1.149,0.85
				c-0.601,0.267-1.301,0.383-2.101,0.35c-1.066,0-1.866-0.333-2.399-1c-0.601-0.733-1.067-1.85-1.4-3.35
				c-0.333-1.467-0.434-2.883-0.3-4.25c0.133-1.133,0.5-2.117,1.1-2.95C245.384,127.8,245.684,127.517,245.95,127.35z"/>
			<path style="fill-rule:evenodd;clip-rule:evenodd;fill:#EFF0EF;" d="M248.5,127.2l0.8,0.15c0.601,0.167,1.101,0.467,1.5,0.9
				c0.667,0.7,1.184,2.15,1.55,4.35H252c-0.366-2.167-0.833-3.567-1.4-4.2c-0.267-0.3-0.699-0.6-1.3-0.9L248.5,127.2z"/>
			<path style="fill-rule:evenodd;clip-rule:evenodd;fill:#BBBFBF;" d="M246.25,134.15c-0.167-1.066-0.066-2.05,0.3-2.95
				c0.367-0.867,0.834-1.3,1.4-1.3c1.267,0,2.066,1,2.399,3c0.167,0.967,0.067,1.783-0.3,2.45c-0.333,0.566-0.733,0.883-1.2,0.95
				C247.417,136.467,246.55,135.75,246.25,134.15z M248,130.2c-0.434,0-0.816,0.3-1.15,0.9c-0.366,0.667-0.5,1.417-0.399,2.25
				c0.267,1.967,1,2.883,2.2,2.75c0.633-0.1,1.083-0.467,1.35-1.1c0.233-0.567,0.283-1.233,0.15-2
				C249.816,131.133,249.1,130.2,248,130.2z"/>
		</g>
		
			<line style="fill-rule:evenodd;clip-rule:evenodd;fill:none;stroke:#515354;stroke-width:0.5;" x1="248.15" y1="105.45" x2="247.95" y2="131.3"/>
	</g>
	
		<use xlink:href="#FlashAICB_x2F_buildings_x2F__x3C_Path_x3E__x5F_27"  width="146.2" height="24.138" y="-24.1" transform="matrix(1 0 0 -1 133.7998 300.4004)" style="overflow:visible;opacity:0.4102;"/>
	<path style="fill-rule:evenodd;clip-rule:evenodd;fill:#6C6552;" d="M259.15,74L247.8,108c-3.566,1.667-7.366,4.05-11.399,7.15
		c-8.134,6.233-13.45,12.967-15.95,20.2c-2.5,7.2-2.917,17.033-1.25,29.5c0.833,6.233,1.916,11.733,3.25,16.5l22,0.65l14-34
		l-6,26.65l18-6l-19.3,12.699l-4,12c-3.9,0.101-7.851,0.434-11.851,1c-8,1.101-12.283,2.767-12.85,5
		c-0.934,3.867-1.45,10.95-1.55,21.25c-0.101,11.767,0.866,18.684,2.899,20.75C226.9,244.45,235.35,254,249.15,270l-2.7,20.65
		L277.8,314c-6.233-1.667-12.517-3.116-18.85-4.35c-12.667-2.434-19.267-2.534-19.8-0.301c-0.567,2.2-0.184,4.867,1.149,8
		c0.667,1.567,1.384,2.9,2.15,4c-4.2-2.333-8.617-4.583-13.25-6.75c-9.2-4.333-14.783-6.083-16.75-5.25
		c-1.934,0.834-5.066,2.75-9.4,5.75c-2.166,1.5-4.133,2.917-5.899,4.25c0.433-2,0.566-3.949,0.399-5.85
		c-0.333-3.767-2.033-5.384-5.1-4.85c-3.033,0.566-12.95,2.183-29.75,4.85l-24.25,3.85l17.35-5.85
		c12-4.233,19.117-7.184,21.351-8.85c2.199-1.667,3.633-7.167,4.3-16.5l0.35-13.5l18.65-16c1.666-3.867,3.2-8.301,4.6-13.301
		c2.767-10,3.467-17.783,2.101-23.35c-1.4-5.566-6.601-10.233-15.601-14c-2.833-1.2-5.866-2.217-9.1-3.05l-4-0.95l-16.65-38
		c-5.767-0.333-12.033-0.333-18.8,0c-13.567,0.667-22.85,2.667-27.85,6s-11.717,9.116-20.15,17.35
		c-4.233,4.101-7.967,7.867-11.2,11.301l-46.65-8L6.45,205.35l10-8.699l-12,2c3.466-1.867,7.25-3.834,11.35-5.9
		c8.233-4.1,14.017-6.566,17.35-7.4c3.333-0.833,7.55-0.966,12.65-0.399c2.567,0.267,4.784,0.616,6.65,1.05L39.8,172l11.95,7.75
		c8.767,5.434,15.233,8.85,19.4,10.25c4.067,1.366,9.617-0.733,16.65-6.3c7.333-6.667,12.217-10.783,14.65-12.351
		c3.066-1.966,8.65-4.333,16.75-7.1c4.066-1.4,7.816-2.6,11.25-3.6l-28.65-5.3l17.7-0.2c12.433,0,20.317,0.283,23.65,0.85
		c3.333,0.567,8.449,0.633,15.35,0.2c3.434-0.233,6.533-0.517,9.3-0.85l7.351,17.85c5.533,12.2,9.966,19.133,13.3,20.8
		c3.333,1.667,7.783,1.733,13.35,0.2c2.8-0.8,5.25-1.75,7.351-2.851l-17.351-66l-56.65-10.7l-28,19.35l-44,2L43.8,146.65l18-14.65
		l9.6-0.9c7.2-0.567,12.883-0.717,17.05-0.45c4.167,0.3,4.2-1.283,0.1-4.75l-7.4-5.25l9.55,3.5c7,2.233,12.033,3.067,15.1,2.5
		c3.067-0.533,7.983-3.583,14.75-9.15c3.4-2.767,6.483-5.483,9.25-8.15l-25.35-26c12-14.233,18-22.017,18-23.35
		c0-0.833-4.883-5.083-14.65-12.75L93.15,36l-22,9.35l8.65-5.2c6.233-4,10.45-7.383,12.65-10.15c2.233-2.767,4.683-8.6,7.35-17.5
		c1.333-4.433,2.45-8.6,3.35-12.5c-0.9,4.433-1.7,9.017-2.4,13.75C99.283,23.183,98.967,28.6,99.8,30
		c0.833,1.4,3.417,2.05,7.75,1.95c2.167-0.067,4.25-0.267,6.25-0.6c-2.1,0.9-4.066,1.867-5.9,2.9c-3.667,2.1-4.816,3.567-3.45,4.4
		c2.233,1.333,10.9,6.233,26,14.7L153.15,34l-12,16.65L149.8,48l-10.65,8l8,1.35c-2.567,0.433-5.434,1.15-8.601,2.15
		c-6.333,2-11.033,4.383-14.1,7.15c-3.6,3.3-6.184,6.733-7.75,10.3c-1.5,3.466-1.583,6.033-0.25,7.7
		c2.333,2.867,6.733,6.817,13.2,11.85c8.434,6.533,15.817,10.817,22.15,12.85c6.101,1.933,16.267,4.066,30.5,6.4
		c7.101,1.167,13.601,2.133,19.5,2.9L209.15,150l14-45.35l6-47.3l-32-36L214,36.9c11.533,11,18.134,18.033,19.8,21.1
		c1.667,3.067,1.617,12.883-0.149,29.45c-0.9,8.267-1.967,16.233-3.2,23.9l16-8.7l4-23.3l0.7,11.3L259.15,74z"/>
	<g>
		<path style="fill-rule:evenodd;clip-rule:evenodd;fill:#5C5647;" d="M59,187.9c-2.533-0.534-4.717-1.167-6.55-1.9L39.8,172
			L59,187.9z"/>
		<polygon style="fill-rule:evenodd;clip-rule:evenodd;fill:#5C5647;" points="259.15,74 250.8,95.2 251.15,90.65 		"/>
		<path style="fill-rule:evenodd;clip-rule:evenodd;fill:#5C5647;" d="M21.15,192.1c4.167-1.5,8.117-2.899,11.85-4.199l-6.4,3.8
			c-4.667,2.666-8.05,4.316-10.15,4.95l-12,2l0.95-0.45C7.567,197.134,12.817,195.1,21.15,192.1z"/>
		<path style="fill-rule:evenodd;clip-rule:evenodd;fill:#5C5647;" d="M101.8,155.35l14.3,1.7c9.8,1.133,15.433,1.75,16.9,1.85
			c2.333,0.167,5.417,0.083,9.25-0.25l-11.8,2L101.8,155.35z"/>
		<path style="fill-rule:evenodd;clip-rule:evenodd;fill:#5C5647;" d="M228.3,192c2.867-0.634,6.867-0.6,12,0.1
			c2.566,0.367,4.851,0.784,6.851,1.25c-3.9,0.101-7.851,0.434-11.851,1c-8,1.101-12.283,2.767-12.85,5l-0.15,0.851
			c0.066-1.733,0.45-3.267,1.15-4.601C224.483,193.7,226.1,192.5,228.3,192z"/>
		<path style="fill-rule:evenodd;clip-rule:evenodd;fill:#5C5647;" d="M246.5,185.2c-0.233-1.233-0.917-2.3-2.05-3.2l14-34
			L246.5,185.2z"/>
		<polygon style="fill-rule:evenodd;clip-rule:evenodd;fill:#5C5647;" points="270.45,168.65 252.15,178.5 252.45,174.65 		"/>
		<polygon style="fill-rule:evenodd;clip-rule:evenodd;fill:#5C5647;" points="201.55,118.65 201.8,118.65 204.5,130.425 		"/>
		<path style="fill-rule:evenodd;clip-rule:evenodd;fill:#5C5647;" d="M23.6,195.25l13.9-7.6l44.65,6
			c2.567-2.334,5.783-5.084,9.65-8.25c7.7-6.334,14.817-11.584,21.35-15.75c6.533-4.167,17.317-6.917,32.35-8.25
			c7.533-0.667,14.417-0.917,20.65-0.75l16,37.35l11.1,2.25c8,2,13.517,4.25,16.55,6.75c3.033,2.467,4.717,7.267,5.05,14.4
			c0.2,4.133,0.301,10.783,0.301,19.949c0.433,5.534,2.666,11.584,6.699,18.15c2.034,3.267,4.017,5.983,5.95,8.15l-0.85,15.449
			c-0.066,11.101,1.217,18.733,3.85,22.9c2.634,4.167,5.367,7.983,8.2,11.45c1.434,1.7,2.583,3,3.45,3.899
			c-4.2-2.333-8.617-4.583-13.25-6.75c-9.2-4.333-14.783-6.083-16.75-5.25c-1.934,0.834-5.066,2.75-9.4,5.75
			c-2.166,1.5-4.133,2.917-5.899,4.25c0.433-2,0.566-3.949,0.399-5.85c-0.333-3.767-2.033-5.384-5.1-4.85
			c-3.033,0.566-12.95,2.183-29.75,4.85l-24.25,3.85l17.35-5.85c12-4.233,19.117-7.184,21.351-8.85
			c2.199-1.667,3.633-7.167,4.3-16.5l0.35-13.5l18.65-16c1.666-3.867,3.2-8.301,4.6-13.301c2.767-10,3.467-17.783,2.101-23.35
			c-1.4-5.566-6.601-10.233-15.601-14c-2.833-1.2-5.866-2.217-9.1-3.05l-4-0.95l-16.65-38c-5.767-0.333-12.033-0.333-18.8,0
			c-13.567,0.667-22.85,2.667-27.85,6s-11.717,9.116-20.15,17.35c-4.233,4.101-7.967,7.867-11.2,11.301l-46.65-8L6.45,205.35
			C8.25,203.95,13.967,200.583,23.6,195.25z"/>
		<path style="fill-rule:evenodd;clip-rule:evenodd;fill:#5C5647;" d="M211,181.65c0.2,1.866,0.017,4.183-0.55,6.949
			c-0.3,1.367-0.617,2.551-0.95,3.551l-0.4-0.801h0.051l-17.351-66l-56.65-10.7l-28,19.35l-44,2L43.8,146.65l19.95-13.25l41.75-2
			l28.75-20.5L197,122.4C206,158.9,210.667,178.65,211,181.65z"/>
		<polygon style="fill-rule:evenodd;clip-rule:evenodd;fill:#5C5647;" points="229.3,115.85 230.45,111.35 246.45,102.65 
			250.45,79.35 247.5,104.35 		"/>
		<path style="fill-rule:evenodd;clip-rule:evenodd;fill:#5C5647;" d="M103.8,33c-2.633-0.1-3.95-1.083-3.95-2.95
			c0.867,1.367,3.45,1.983,7.75,1.85c2.167-0.033,4.233-0.217,6.2-0.55C109.267,32.583,105.933,33.133,103.8,33z"/>
		<polygon style="fill-rule:evenodd;clip-rule:evenodd;fill:#5C5647;" points="131.8,55.7 130.45,53.35 153.15,34 		"/>
		<polygon style="fill-rule:evenodd;clip-rule:evenodd;fill:#5C5647;" points="229.15,57.35 202.65,27.5 231.8,57.5 226.5,106 
			210.5,157 209.15,150 223.15,104.65 		"/>
		<path style="fill-rule:evenodd;clip-rule:evenodd;fill:#5C5647;" d="M102.45,2.975C99.522,16.219,97.639,24.394,96.8,27.5
			c-0.566,2.133-4.466,5.467-11.7,10c-4.4,2.733-9.05,5.35-13.95,7.85l8.65-5.2c6.233-4,10.45-7.383,12.65-10.15
			c2.233-2.767,4.683-8.6,7.35-17.5C100.8,9.175,101.683,6,102.45,2.975z"/>
		<polygon style="fill-rule:evenodd;clip-rule:evenodd;fill:#5C5647;" points="139.8,53.5 141.15,50.65 149.8,48 		"/>
		<path style="fill-rule:evenodd;clip-rule:evenodd;fill:#5C5647;" d="M98,129.4c0.633,0.333,0.167,0.6-1.4,0.8
			c-1.567,0.167-3.3,0.15-5.2-0.05c1-1.267-2.133-4.25-9.4-8.95C91.867,126.3,97.2,129.033,98,129.4z"/>
		<path style="fill-rule:evenodd;clip-rule:evenodd;fill:#5C5647;" d="M107.8,47.25L93.15,36l35.1,23.4L110.5,82.65l24.5,26.5
			l-5.2,0.2l-25.35-26c12-14.233,18-22.017,18-23.35C122.45,59.167,117.567,54.917,107.8,47.25z"/>
	</g>
	<polygon style="fill-rule:evenodd;clip-rule:evenodd;fill:#484439;" points="66,133.65 106.5,132.9 66.75,135.4 	"/>
	<polygon style="fill-rule:evenodd;clip-rule:evenodd;fill:#484439;" points="196,123.15 210,186.15 192.75,124.4 135.75,113.65 
		108.25,131.15 134.75,111.9 	"/>
	<polygon style="fill-rule:evenodd;clip-rule:evenodd;fill:#484439;" points="106,83.65 126,60.4 108.5,83.4 133,108.65 
		130.75,108.9 	"/>
	<path style="fill-rule:evenodd;clip-rule:evenodd;fill:#484439;" d="M238.75,193.15L225,195.9l0.9-1.101
		c0.8-0.833,1.666-1.467,2.6-1.899C230,192.233,233.417,192.316,238.75,193.15z"/>
	<polygon style="fill-rule:evenodd;clip-rule:evenodd;fill:#484439;" points="210.5,152.9 210.75,149.65 224.5,103.65 229.5,61.4 
		226,104.4 	"/>
	<path style="fill-rule:evenodd;clip-rule:evenodd;fill:#66604E;" d="M216.25,172.35c0.6,4.567,1.35,8.084,2.25,10.551l24,1.25
		l0.75,4c-3.033-0.4-6.283-0.767-9.75-1.101c-6.9-0.666-11.4-0.8-13.5-0.399c-2.066,0.433-3.85,1.433-5.35,3L213,191.9
		c-0.366-4.067-0.7-8.351-1-12.851c-0.566-9-0.65-14.55-0.25-16.65c0.434-2.066,1.434-5.983,3-11.75l2.25-8
		C215.333,153.283,215.083,163.184,216.25,172.35z"/>
	<path style="fill-rule:evenodd;clip-rule:evenodd;fill:#66604E;" d="M233,63.4c0.3,4.7-0.35,14.267-1.95,28.7
		c-0.833,7.233-1.684,14-2.55,20.3l-7,13.25l6.25-21L233,63.4z"/>
	<path style="fill-rule:evenodd;clip-rule:evenodd;fill:#66604E;" d="M136.5,103.35c4.434,2.867,8.6,5.383,12.5,7.55l-11.5-1.75
		l-14.675-15.9C125.896,96.082,130.454,99.449,136.5,103.35z"/>
	<polygon style="fill-rule:evenodd;clip-rule:evenodd;fill:#66604E;" points="128,53.65 128.25,57.65 95.75,35.4 	"/>
	<g>
		<path style="fill-rule:evenodd;clip-rule:evenodd;fill:#484439;" d="M207.3,243.4c2.367-11.2,2.65-19.784,0.851-25.75
			c-1.034-3.367-6.117-7.15-15.25-11.351l-13.4-5.3l-14.7-36.35l17.351,35.699l12.199,3.101c8.434,2.633,13.483,5.267,15.15,7.899
			c1.634,2.601,2.483,7.9,2.55,15.9c0.033,4.467-0.05,11.167-0.25,20.1c0.134,5,0.9,9.717,2.3,14.15
			c0.7,2.233,1.384,3.95,2.051,5.15l-1.95,5.6c-1.033,4.566-0.934,8.934,0.3,13.1c2,6.667,5.767,15.884,11.3,27.65v0.05
			c-7.166-3.2-11.616-4.434-13.35-3.7c-1.934,0.834-5.066,2.75-9.4,5.75c-2.166,1.5-4.133,2.917-5.899,4.25
			c0.433-2,0.566-3.949,0.399-5.85c-0.333-3.767-2.033-5.384-5.1-4.85c-2.733,0.533-12.634,2.149-29.7,4.85
			c6-2.267,11.15-4.717,15.45-7.35c6.733-4.101,10.5-8.15,11.3-12.15c0.4-2.066-0.033-6.017-1.3-11.85l-2.05-8.15l17-15.65
			C204.717,253.95,206.1,248.967,207.3,243.4z"/>
		<path style="fill-rule:evenodd;clip-rule:evenodd;fill:#66604E;" d="M245.05,281.3c-0.033,3.566-0.217,7.017-0.55,10.351
			L277.8,314c-1.934-0.566-4.3-1.15-7.1-1.75c-7.834-1.866-14.334-3.15-19.5-3.85c-7.601-1.067-11.617-0.75-12.05,0.949
			c-0.467,1.867-0.25,4.084,0.649,6.65c-1.166-2.667-2.316-5.533-3.45-8.6c-1.866-4.934-2.983-8.601-3.35-11
			c-0.4-2.601-0.184-7.467,0.65-14.601L235,271.9c-2.634-3.667-5.25-7.5-7.85-11.5c-5.2-8-7.75-12.834-7.65-14.5
			c0.1-1.567,3.533,1.35,10.3,8.75c8.267,9.066,12.584,13.733,12.95,14C244.316,269.917,245.083,274.134,245.05,281.3z"/>
	</g>
	<path style="fill-rule:evenodd;clip-rule:evenodd;fill:#2B2925;" d="M195.4,293.45c-1.567-3.066-2.217-6.617-1.95-10.65
		c0.3-3.967,1.399-7.483,3.3-10.55c2.033-3.333,4.616-5.45,7.75-6.35c1.5-0.434,2.983,1.283,4.45,5.149
		c1.434,3.7,2.35,7.934,2.75,12.7c0.434,5.233,0.05,9.333-1.15,12.3c-1.467,3.5-3.899,4.783-7.3,3.851
		C199.75,298.967,197.134,296.816,195.4,293.45z"/>
	<path style="fill-rule:evenodd;clip-rule:evenodd;fill:#2B2925;" d="M241,290.55c-1.333,1.834-2.667,2.7-4,2.601
		c-1.566-0.134-2.85-1.351-3.85-3.65c-0.967-2.167-1.45-4.634-1.45-7.4c0.033-2.899,0.616-5.183,1.75-6.85
		c1.3-1.934,3.149-2.634,5.55-2.1c4.6,1.033,6.2,4.699,4.8,11C243.233,286.616,242.3,288.75,241,290.55z"/>
	<path style="fill-rule:evenodd;clip-rule:evenodd;fill:#8B8168;" d="M221,244.8l1.4-0.55c1-0.366,1.566-0.517,1.699-0.45
		l22.9,27.25c-3.667-3.767-6.583-6.899-8.75-9.399c-1.366-1.567-4.65-4.851-9.85-9.851L221,244.8z"/>
	<path style="fill-rule:evenodd;clip-rule:evenodd;fill:#8B8168;" d="M224.55,191.3c1.167-1.233,2.233-2.033,3.2-2.399
		c-1.5,1.1-2.8,2.433-3.9,4c-0.933,1.399-1.899,4-2.899,7.8c-1.167,4.3-1.783,8.283-1.851,11.95
		c-0.066,5.333-0.433,13.416-1.1,24.25c-0.833-10-1.217-17.167-1.15-21.5c0.067-2.7-0.183-5.967-0.75-9.801l-0.85-4.949l2.75,13
		c0.2-2.934,0.816-7.017,1.85-12.25C220.684,197.134,222.25,193.767,224.55,191.3z"/>
	<polygon style="fill-rule:evenodd;clip-rule:evenodd;fill:#8B8168;" points="255.1,159.9 248.1,187.8 247.75,185.05 	"/>
	<path style="fill-rule:evenodd;clip-rule:evenodd;fill:#8B8168;" d="M167.6,159.15l15.25,30.9l-2.1-3
		c-0.366-0.533-0.467,0.084-0.3,1.851c0.1,0.866,0.233,1.783,0.399,2.75L167.6,159.15z"/>
	<path style="fill-rule:evenodd;clip-rule:evenodd;fill:#8B8168;" d="M139.85,156.8c-1.167,0.833-2.583,1.284-4.25,1.35
		c-1.033,0.067-4.55-0.283-10.55-1.05c-5.833-0.8-8.816-1.2-8.95-1.2L139.85,156.8z"/>
	<path style="fill-rule:evenodd;clip-rule:evenodd;fill:#8B8168;" d="M161.75,157.15l-15.9,2.9l19-0.75l-36.6,3.6
		c0.167-0.133,0.45-0.3,0.85-0.5c0.767-0.433,1.683-0.8,2.75-1.1c1.1-0.3,6.417-1.083,15.95-2.35
		C152.566,158.317,157.217,157.717,161.75,157.15z"/>
	<polygon style="fill-rule:evenodd;clip-rule:evenodd;fill:#8B8168;" points="52.25,180.65 66.85,189.3 61.85,188.3 	"/>
	<polygon style="fill-rule:evenodd;clip-rule:evenodd;fill:#8B8168;" points="90.1,125.05 103.35,128.15 100,129.15 	"/>
	<polygon style="fill-rule:evenodd;clip-rule:evenodd;fill:#8B8168;" points="199,122.4 200.5,120.8 207.35,155.4 	"/>
	<path style="fill-rule:evenodd;clip-rule:evenodd;fill:#8B8168;" d="M196.85,119.3c0.667,0.4-0.5,0.9-3.5,1.5l-44-8.5l17,2.25
		l-15.1-3.9C180.983,115.983,196.184,118.867,196.85,119.3z"/>
	<path style="fill-rule:evenodd;clip-rule:evenodd;fill:#8B8168;" d="M135,57.05l7.5,0.85c-3.933,0.267-6.65,0.6-8.15,1
		c-0.934,0.267-2.1,0.7-3.5,1.3L129,61.05l15-16.5L135,57.05z"/>
	<path style="fill-rule:evenodd;clip-rule:evenodd;fill:#8B8168;" d="M99.25,34.4c1,0.667,3.2,0.467,6.6-0.6
		c-0.567,0.467-1.233,0.9-2,1.3c-1.533,0.833-2.817,1.066-3.85,0.7l-5.75-2.4c1.5-1.066,2.5-2.267,3-3.6
		c0.3-0.833,0.65-2.1,1.05-3.8l0.45-2.35l-0.3,5C98.35,32.083,98.617,34,99.25,34.4z"/>
	<path style="fill-rule:evenodd;clip-rule:evenodd;fill:#8B8168;" d="M207.5,31.65c3.9,3.3,9.3,8.583,16.2,15.85
		c3.434,3.633,6.483,6.933,9.149,9.9l-1.25-0.5L207.5,31.65z"/>
	<path style="fill-rule:evenodd;clip-rule:evenodd;fill:#8B8168;" d="M233.5,62.55l0.35,4.15c0.2,3.5,0.2,7.15,0,10.95
		c-0.333,6.1-1.616,16.483-3.85,31.15c0.5-6.933,1.033-12.517,1.6-16.75c0.367-2.667,0.801-8.383,1.301-17.15L233.5,62.55z"/>
	<polygon style="fill-rule:evenodd;clip-rule:evenodd;fill:#8B8168;" points="249.85,99.4 248.1,103.3 250.25,85.9 	"/>
	<g>
		<path style="fill-rule:evenodd;clip-rule:evenodd;fill:#484439;" d="M241.6,280.4c0.167-2.5-0.416-4.45-1.75-5.851l-2.1-1.399
			l0.1-0.101l1.15,0.101c4.6,1.033,6.2,4.699,4.8,11c-0.566,2.466-1.5,4.6-2.8,6.399c-1.333,1.834-2.667,2.7-4,2.601
			c-0.467,0-1-0.184-1.6-0.551l1.85-0.449c1.033-0.233,1.983-1.5,2.85-3.801C240.934,286.083,241.434,283.434,241.6,280.4z"/>
	</g>
	<g>
		<path style="fill-rule:evenodd;clip-rule:evenodd;fill:#66604E;" d="M195.4,293.45c-1.567-3.066-2.217-6.617-1.95-10.65
			c0.3-3.967,1.399-7.483,3.3-10.55c2.033-3.333,4.616-5.45,7.75-6.35c0.167-0.067,0.333-0.067,0.5,0l0.1,0.149l-2.8,1.9
			c-2,1.967-3.399,4.666-4.2,8.1c-0.933,4.2-1.116,8.15-0.55,11.851c0.566,3.8,1.834,6.466,3.8,8c2.934,2.3,5.733,2.833,8.4,1.6
			c-1.467,2.4-3.634,3.2-6.5,2.4C199.75,298.967,197.134,296.816,195.4,293.45z"/>
	</g>
	<g>
		<g>
			<polygon style="fill-rule:evenodd;clip-rule:evenodd;fill:#A6AAAB;" points="76.65,55 77.6,58.6 76.4,58.6 75.85,55.1 			"/>
			<path style="fill-rule:evenodd;clip-rule:evenodd;fill:#C0C4C4;" d="M74.1,58.4l1.05-0.65c0.3-0.167,0.633-0.3,1-0.4l0.8,0.25
				l-1.4,2.35L74.1,58.4z"/>
			<path style="fill-rule:evenodd;clip-rule:evenodd;fill:#A6AAAB;" d="M72.2,68.05c-0.267-0.133-0.467-0.417-0.6-0.85l-0.5-1.7
				l2.1-0.65l0.5,3.25l-0.75,1.5L72.2,68.05z"/>
			<polygon style="fill-rule:evenodd;clip-rule:evenodd;fill:#BBBFBF;" points="72.05,60.5 73.7,59.55 74.1,64.3 71.35,64.35 
				71.35,62.65 71.55,61.55 			"/>
			<polygon style="fill-rule:evenodd;clip-rule:evenodd;fill:#C8CDCC;" points="67.9,62.45 71.35,62.65 72.05,62.9 69.85,63.35 			
				"/>
			<path style="fill-rule:evenodd;clip-rule:evenodd;fill:#8C9091;" d="M82.8,62.45c0.567,0.933,0.617,2.117,0.15,3.55
				c-0.5,1.467-1.284,2.35-2.35,2.65c-1,0.3-1.85,0.067-2.55-0.7c-0.733-0.767-0.633-1.184,0.3-1.25c1.5-0.1,2.217-1.017,2.15-2.75
				c-0.033-0.7-0.45-1.267-1.25-1.7l-1.2-0.45c0.267-0.767,0.983-1.066,2.15-0.9C81.4,61.067,82.267,61.583,82.8,62.45z"/>
			<polygon style="fill-rule:evenodd;clip-rule:evenodd;fill:#C8CDCC;" points="84.3,56.4 82.45,60.25 80.75,58.5 83.35,56.15 			
				"/>
			<polygon style="fill-rule:evenodd;clip-rule:evenodd;fill:#848889;" points="70.35,58.65 72.05,58.95 72.9,60.5 72.05,60.5 
				69.65,58.6 			"/>
			<polygon style="fill-rule:evenodd;clip-rule:evenodd;fill:#BBBFBF;" points="70.85,69.65 69.8,69.25 72.2,68.05 73.4,68.45 
				72.4,69.8 			"/>
			<polygon style="fill-rule:evenodd;clip-rule:evenodd;fill:#A6AAAB;" points="77.15,73.9 76.05,73.5 76.7,70.35 78.25,70.8 			"/>
			<polygon style="fill-rule:evenodd;clip-rule:evenodd;fill:#8C9091;" points="84.3,72.25 82.9,71.65 81.7,70.15 82.8,69.55 			"/>
			<polygon style="fill-rule:evenodd;clip-rule:evenodd;fill:#EFF0EF;" points="88.7,62.45 84.3,63.45 82.85,62.15 87.95,62.1 			
				"/>
			<path style="fill-rule:evenodd;clip-rule:evenodd;fill:#DBE0DE;" d="M76.4,64.3c-0.1,1.567,0.717,2.367,2.45,2.4
				c1.767,0.066,2.566-0.767,2.4-2.5c-0.167-1.7-1.1-2.483-2.8-2.35C77.15,61.95,76.467,62.767,76.4,64.3z M82.3,58.45l2-2.05
				l2.1,2.3l-1.8,1.9c0.4,0.6,0.717,1.316,0.95,2.15l3.15-0.3L88.65,66l-3-0.3c-0.1,0.8-0.35,1.55-0.75,2.25l2.25,1.2l-2.85,3.1
				l-1.75-1.85c-0.633,0.367-1.283,0.617-1.95,0.75l0.3,2.7l-3.75,0.05l0.25-2.7c-0.9-0.133-1.683-0.417-2.35-0.85l-1.6,2.25
				l-2.6-2.95L73,68.3c-0.367-0.5-0.667-1.216-0.9-2.15l-3.35,0.2l0.1-3.65l3.2,0.2c0.133-0.8,0.417-1.6,0.85-2.4l-2.55-1.85
				l2.4-2.65l2,2.5c0.767-0.467,1.5-0.767,2.2-0.9l-0.3-2.6l3.9,0.2l-0.1,2.55C81.317,58.017,81.933,58.25,82.3,58.45z"/>
			<polygon style="fill-rule:evenodd;clip-rule:evenodd;fill:#A6AAAB;" points="68.85,62.7 68.75,66.35 67.85,65.9 67.9,62.45 			
				"/>
			<polygon style="fill-rule:evenodd;clip-rule:evenodd;fill:#8C9091;" points="69.8,69.25 70.85,69.65 73.45,72.6 72.1,71.85 			
				"/>
			<path style="fill-rule:evenodd;clip-rule:evenodd;fill:#BBBFBF;" d="M77.1,58.25v0.35c-0.5,0.233-1.033,0.517-1.6,0.85
				c-1.1,0.733-1.75,1.466-1.95,2.2c-0.833,2.9-0.417,5.133,1.25,6.7c0.967,0.9,2.167,1.483,3.6,1.75
				c0.733,0.133,1.35,0.183,1.85,0.15l-0.05,0.5c-0.5,0.033-1.117-0.017-1.85-0.15c-1.4-0.233-2.583-0.75-3.55-1.55
				c-1.066-0.9-1.716-2.117-1.95-3.65c-0.233-1.4-0.083-2.75,0.45-4.05c0.4-1.033,1.15-1.85,2.25-2.45
				C76.117,58.567,76.633,58.35,77.1,58.25z"/>
			<path style="fill-rule:evenodd;clip-rule:evenodd;fill:#BBBFBF;" d="M76.8,62.15c-0.533,0.5-0.8,1.2-0.8,2.1s0.3,1.617,0.9,2.15
				c0.567,0.467,1.267,0.684,2.1,0.65c1.5-0.033,2.333-0.867,2.5-2.5c0.067-0.8-0.167-1.517-0.7-2.15
				c-0.566-0.667-1.3-0.983-2.2-0.95C77.867,61.483,77.267,61.717,76.8,62.15z M81.75,64.2c0.033,0.767-0.117,1.433-0.45,2
				c-0.433,0.733-1.117,1.117-2.05,1.15c-2.3,0.066-3.517-0.9-3.65-2.9c-0.033-1.034,0.233-1.833,0.8-2.4
				c0.533-0.566,1.25-0.883,2.15-0.95c1-0.067,1.8,0.283,2.4,1.05C81.45,62.75,81.717,63.433,81.75,64.2z"/>
			<path style="fill-rule:evenodd;clip-rule:evenodd;fill:#EFF0EF;" d="M84.45,62.4c-0.6-1.967-2-3.25-4.2-3.85l1,0.15
				c0.767,0.233,1.433,0.65,2,1.25c1.067,1.167,1.667,2.35,1.8,3.55c0.034,0.533-0.017,1.233-0.15,2.1l-0.45-0.15
				C84.717,64.417,84.717,63.4,84.45,62.4z"/>
		</g>
		
			<line style="fill-rule:evenodd;clip-rule:evenodd;fill:none;stroke:#515354;stroke-width:0.5;" x1="78.65" y1="61.85" x2="79" y2="42.05"/>
	</g>
	<g>
		<g>
			<polygon style="fill-rule:evenodd;clip-rule:evenodd;fill:#A6AAAB;" points="262.15,185.35 263.05,188.9 261.85,188.9 
				261.3,185.4 			"/>
			<polygon style="fill-rule:evenodd;clip-rule:evenodd;fill:#C0C4C4;" points="259.6,188.7 260.6,188.05 261.65,187.65 
				262.45,187.95 261.05,190.3 			"/>
			<path style="fill-rule:evenodd;clip-rule:evenodd;fill:#A6AAAB;" d="M258.65,195.15l0.55,3.3l-0.75,1.45l-0.75-1.551
				c-0.267-0.133-0.467-0.416-0.601-0.85l-0.5-1.7L258.65,195.15z"/>
			<path style="fill-rule:evenodd;clip-rule:evenodd;fill:#BBBFBF;" d="M257.5,190.8l1.7-0.95l0.399,4.75l-2.8,0.101v-1.75
				c0.066-0.467,0.15-0.834,0.25-1.101L257.5,190.8z"/>
			<polygon style="fill-rule:evenodd;clip-rule:evenodd;fill:#C8CDCC;" points="253.4,192.8 256.8,192.95 257.55,193.2 
				255.35,193.65 			"/>
			<path style="fill-rule:evenodd;clip-rule:evenodd;fill:#8C9091;" d="M263.55,192.1c0.267-0.767,0.983-1.066,2.15-0.899
				c1.2,0.166,2.066,0.7,2.6,1.6c0.533,0.9,0.566,2.066,0.101,3.5c-0.467,1.467-1.233,2.351-2.301,2.65
				c-1,0.267-1.85,0.033-2.55-0.7c-0.733-0.767-0.649-1.184,0.25-1.25c1.533-0.1,2.267-1.017,2.2-2.75
				c-0.033-0.7-0.45-1.267-1.25-1.7L263.55,192.1z"/>
			<polygon style="fill-rule:evenodd;clip-rule:evenodd;fill:#C8CDCC;" points="269.8,186.7 267.95,190.55 266.2,188.8 
				268.8,186.45 			"/>
			<polygon style="fill-rule:evenodd;clip-rule:evenodd;fill:#848889;" points="255.85,188.95 257.5,189.25 258.4,190.85 
				257.5,190.8 255.15,188.9 			"/>
			<polygon style="fill-rule:evenodd;clip-rule:evenodd;fill:#BBBFBF;" points="256.3,199.95 255.3,199.55 257.7,198.35 
				258.9,198.75 257.9,200.1 			"/>
			<polygon style="fill-rule:evenodd;clip-rule:evenodd;fill:#A6AAAB;" points="262.65,204.2 261.55,203.8 262.2,200.65 
				263.7,201.1 			"/>
			<polygon style="fill-rule:evenodd;clip-rule:evenodd;fill:#8C9091;" points="269.8,202.55 268.4,201.95 267.2,200.45 
				268.3,199.85 			"/>
			<polygon style="fill-rule:evenodd;clip-rule:evenodd;fill:#EFF0EF;" points="274.2,192.8 269.8,193.75 268.35,192.45 
				273.45,192.4 			"/>
			<path style="fill-rule:evenodd;clip-rule:evenodd;fill:#DBE0DE;" d="M264.3,197c1.8,0.066,2.617-0.75,2.45-2.45
				c-0.167-1.733-1.1-2.517-2.8-2.35c-1.3,0.066-2,0.866-2.101,2.399C261.75,196.167,262.566,196.967,264.3,197z M260.25,188.8
				c0.7-0.434,1.434-0.717,2.2-0.85l-0.3-2.601l3.899,0.15l-0.149,2.55c0.8,0.233,1.416,0.467,1.85,0.7l2.05-2.05l2.05,2.35
				l-1.75,1.851c0.467,0.767,0.767,1.483,0.9,2.149l3.2-0.25l-0.05,3.5l-3-0.3c-0.101,0.8-0.351,1.55-0.75,2.25l2.25,1.2l-2.851,3.1
				l-1.8-1.85c-0.533,0.333-1.167,0.583-1.9,0.75l0.301,2.7l-3.75,0.05l0.199-2.7c-0.833-0.134-1.6-0.417-2.3-0.85l-1.6,2.25
				l-2.65-2.95l2.15-1.351c-0.4-0.666-0.684-1.383-0.851-2.149l-3.35,0.2l0.05-3.65l3.25,0.2c0.134-0.834,0.417-1.617,0.851-2.351
				l-2.551-1.899l2.351-2.65L260.25,188.8z"/>
			<polygon style="fill-rule:evenodd;clip-rule:evenodd;fill:#A6AAAB;" points="254.3,193 254.25,196.65 253.35,196.2 253.4,192.8 
							"/>
			<polygon style="fill-rule:evenodd;clip-rule:evenodd;fill:#8C9091;" points="255.3,199.55 256.3,199.95 258.95,202.9 
				257.55,202.2 			"/>
			<path style="fill-rule:evenodd;clip-rule:evenodd;fill:#BBBFBF;" d="M262.55,188.55v0.351c-0.5,0.233-1.017,0.517-1.55,0.85
				c-1.1,0.733-1.75,1.467-1.95,2.2c-0.833,2.899-0.416,5.133,1.25,6.7c0.967,0.899,2.167,1.483,3.601,1.75
				c0.699,0.133,1.3,0.183,1.8,0.149l-0.05,0.5c-0.5,0.033-1.117-0.017-1.851-0.149c-1.399-0.233-2.566-0.75-3.5-1.551
				c-1.1-0.899-1.767-2.116-2-3.649c-0.2-1.367-0.05-2.717,0.45-4.05c0.434-1.034,1.2-1.851,2.3-2.45
				C261.583,188.866,262.083,188.65,262.55,188.55z"/>
			<path style="fill-rule:evenodd;clip-rule:evenodd;fill:#BBBFBF;" d="M262.3,192.45c-0.533,0.5-0.8,1.2-0.8,2.1
				c0,0.9,0.3,1.617,0.9,2.15c0.566,0.467,1.267,0.684,2.1,0.649c1.434-0.033,2.267-0.866,2.5-2.5c0.066-0.8-0.167-1.517-0.7-2.149
				c-0.566-0.667-1.3-0.983-2.2-0.95C263.366,191.783,262.767,192.017,262.3,192.45z M261.1,194.75
				c-0.033-1.033,0.233-1.833,0.801-2.4c0.533-0.566,1.25-0.883,2.149-0.949c0.967-0.067,1.767,0.283,2.4,1.05
				c0.5,0.633,0.767,1.316,0.8,2.05c0.033,0.767-0.116,1.434-0.45,2c-0.434,0.733-1.116,1.116-2.05,1.15
				C262.417,197.717,261.2,196.75,261.1,194.75z"/>
			<path style="fill-rule:evenodd;clip-rule:evenodd;fill:#EFF0EF;" d="M265.7,188.85l1,0.15c0.767,0.233,1.434,0.667,2,1.3
				c1.133,1.2,1.733,2.367,1.8,3.5c0.033,0.533,0,1.25-0.1,2.15l-0.5-0.2c0.3-1.033,0.3-2.05,0-3.05
				c-0.233-0.8-0.667-1.533-1.301-2.2C267.833,189.733,266.866,189.184,265.7,188.85z"/>
		</g>
		
			<line style="fill-rule:evenodd;clip-rule:evenodd;fill:none;stroke:#515354;stroke-width:0.5;" x1="264.15" y1="192.15" x2="264.5" y2="172.35"/>
	</g>
	<g>
		<g>
			<polygon style="fill-rule:evenodd;clip-rule:evenodd;fill:#A6AAAB;" points="145.45,129 146.4,132.6 145.2,132.6 144.65,129.05 
							"/>
			<polygon style="fill-rule:evenodd;clip-rule:evenodd;fill:#C0C4C4;" points="142.9,132.35 143.95,131.7 145,131.35 145.75,131.6 
				144.4,133.95 			"/>
			<path style="fill-rule:evenodd;clip-rule:evenodd;fill:#A6AAAB;" d="M141,142.05c-0.233-0.167-0.434-0.466-0.6-0.9l-0.45-1.65
				l2.05-0.65l0.55,3.25l-0.8,1.45L141,142.05z"/>
			<polygon style="fill-rule:evenodd;clip-rule:evenodd;fill:#BBBFBF;" points="140.85,134.5 142.55,133.5 142.9,138.3 
				140.15,138.35 140.15,136.6 140.35,135.5 			"/>
			<polygon style="fill-rule:evenodd;clip-rule:evenodd;fill:#C8CDCC;" points="136.7,136.45 140.15,136.6 140.9,136.85 
				138.7,137.3 			"/>
			<path style="fill-rule:evenodd;clip-rule:evenodd;fill:#8C9091;" d="M146.9,135.8c0.267-0.767,0.983-1.083,2.149-0.95
				c1.167,0.167,2.017,0.7,2.55,1.6c0.567,0.933,0.617,2.117,0.15,3.55c-0.467,1.467-1.233,2.35-2.3,2.65
				c-1.033,0.3-1.9,0.067-2.601-0.7c-0.733-0.767-0.633-1.184,0.301-1.25c1.533-0.133,2.267-1.067,2.199-2.8
				c-0.033-0.7-0.449-1.267-1.25-1.7L146.9,135.8z"/>
			<polygon style="fill-rule:evenodd;clip-rule:evenodd;fill:#C8CDCC;" points="153.15,130.35 151.3,134.2 149.55,132.45 
				152.15,130.15 			"/>
			<polygon style="fill-rule:evenodd;clip-rule:evenodd;fill:#848889;" points="138.45,132.6 140.85,132.9 141.75,134.5 
				140.85,134.5 			"/>
			<polygon style="fill-rule:evenodd;clip-rule:evenodd;fill:#BBBFBF;" points="139.65,143.6 138.6,143.25 141,142.05 142.2,142.4 
				141.25,143.8 			"/>
			<polygon style="fill-rule:evenodd;clip-rule:evenodd;fill:#A6AAAB;" points="145.95,147.85 144.85,147.5 145.5,144.3 
				147.05,144.75 			"/>
			<polygon style="fill-rule:evenodd;clip-rule:evenodd;fill:#8C9091;" points="153.15,146.25 151.7,145.65 150.55,144.1 
				151.6,143.5 			"/>
			<polygon style="fill-rule:evenodd;clip-rule:evenodd;fill:#EFF0EF;" points="157.55,136.45 153.15,137.4 151.65,136.1 
				156.8,136.05 			"/>
			<path style="fill-rule:evenodd;clip-rule:evenodd;fill:#DBE0DE;" d="M147.65,140.7c1.8,0.066,2.616-0.767,2.449-2.5
				c-0.166-1.733-1.116-2.517-2.85-2.35c-1.3,0.1-1.983,0.917-2.05,2.45C145.1,139.833,145.917,140.633,147.65,140.7z M140.95,140.1
				l-3.35,0.2l0.05-3.65l3.25,0.2c0.166-0.934,0.449-1.717,0.85-2.35l-2.6-1.85l2.4-2.7l2.05,2.55c0.601-0.433,1.317-0.733,2.15-0.9
				l-0.3-2.6l3.95,0.15l-0.15,2.6c0.634,0.133,1.25,0.367,1.85,0.7l2.051-2.1l2.05,2.35l-1.8,1.85c0.399,0.6,0.716,1.317,0.949,2.15
				l3.2-0.25l-0.05,3.5l-3-0.3c-0.134,0.8-0.384,1.55-0.75,2.25l2.2,1.25l-2.8,3.1l-1.801-1.85c-0.6,0.333-1.233,0.567-1.899,0.7
				l0.25,2.7l-3.75,0.05l0.25-2.7c-0.8-0.133-1.584-0.417-2.351-0.85l-1.6,2.25l-2.6-2.95l2.15-1.35
				C141.366,141.55,141.083,140.833,140.95,140.1z"/>
			<polygon style="fill-rule:evenodd;clip-rule:evenodd;fill:#A6AAAB;" points="137.65,136.65 137.6,140.3 136.65,139.85 
				136.7,136.45 			"/>
			<polygon style="fill-rule:evenodd;clip-rule:evenodd;fill:#8C9091;" points="138.6,143.25 139.65,143.6 142.25,146.55 
				140.9,145.85 			"/>
			<path style="fill-rule:evenodd;clip-rule:evenodd;fill:#BBBFBF;" d="M145.9,132.2v0.4c-0.5,0.233-1.034,0.517-1.601,0.85
				c-1.1,0.733-1.75,1.466-1.95,2.2c-0.767,2.934-0.35,5.15,1.25,6.65c0.967,0.934,2.167,1.534,3.601,1.8
				c0.733,0.133,1.35,0.167,1.85,0.1l-0.05,0.5c-0.5,0.033-1.116-0.017-1.85-0.15c-1.4-0.233-2.584-0.75-3.551-1.55
				c-1.066-0.9-1.716-2.117-1.949-3.65c-0.233-1.4-0.084-2.75,0.449-4.05c0.434-1.033,1.2-1.85,2.301-2.45
				C144.934,132.517,145.434,132.3,145.9,132.2z"/>
			<path style="fill-rule:evenodd;clip-rule:evenodd;fill:#BBBFBF;" d="M147.8,141c1.5-0.033,2.334-0.867,2.5-2.5
				c0.066-0.767-0.149-1.467-0.649-2.1c-0.567-0.7-1.301-1.033-2.2-1c-0.733,0.033-1.351,0.283-1.851,0.75
				c-0.533,0.5-0.8,1.2-0.8,2.1s0.3,1.6,0.9,2.1C146.267,140.817,146.967,141.033,147.8,141z M145.25,136
				c0.5-0.533,1.2-0.833,2.1-0.9c1-0.1,1.817,0.25,2.45,1.05c0.5,0.6,0.767,1.283,0.8,2.05c0.034,0.767-0.116,1.433-0.449,2
				c-0.434,0.733-1.117,1.117-2.051,1.15c-2.333,0.066-3.55-0.917-3.649-2.95C144.417,137.4,144.684,136.6,145.25,136z"/>
			<path style="fill-rule:evenodd;clip-rule:evenodd;fill:#EFF0EF;" d="M149.05,132.55l1,0.15c0.767,0.2,1.434,0.617,2,1.25
				c1.134,1.233,1.733,2.417,1.8,3.55c0.034,0.533,0,1.233-0.1,2.1l-0.5-0.15c0.3-1.067,0.3-2.083,0-3.05
				C152.684,134.467,151.283,133.183,149.05,132.55z"/>
		</g>
		
			<line style="fill-rule:evenodd;clip-rule:evenodd;fill:none;stroke:#515354;stroke-width:0.5;" x1="147.5" y1="135.85" x2="147.8" y2="116"/>
	</g>
</g>
</svg>
