<?xml version="1.0" encoding="iso-8859-1"?>
<!-- Generator: Adobe Illustrator 15.1.0, SVG Export Plug-In . SVG Version: 6.00 Build 0)  -->
<!DOCTYPE svg PUBLIC "-//W3C//DTD SVG 1.1//EN" "http://www.w3.org/Graphics/SVG/1.1/DTD/svg11.dtd">
<svg version="1.1" id="rock_x5F_01.ai" xmlns="http://www.w3.org/2000/svg" xmlns:xlink="http://www.w3.org/1999/xlink" x="0px"
	 y="0px" width="43.75px" height="21.3px" viewBox="0 0 43.75 21.3" style="enable-background:new 0 0 43.75 21.3;"
	 xml:space="preserve">
<g>
	<path style="fill-rule:evenodd;clip-rule:evenodd;fill:#99A5A8;" d="M23.7,4.25c0.633,0.733,1.166,1.133,1.6,1.2
		c1.733,0.367,3.717,0.983,5.95,1.85c2.967,1.133,4.934,2.284,5.9,3.45c1.466,1.767,3.666,3.816,6.6,6.15L27.95,21.3L17.4,17.35H0.7
		c-0.367-0.366-0.583-0.866-0.65-1.5c-0.167-1.233,0.483-2.5,1.95-3.8c0.967-1.767,2.217-3.583,3.75-5.45
		c3.067-3.733,6.067-5.867,9-6.4c2.8-0.534,5.167,0.117,7.1,1.95C21.95,2.283,22.566,2.983,23.7,4.25z"/>
	<path style="fill-rule:evenodd;clip-rule:evenodd;fill:#839295;" d="M28.05,20.9L17.9,16.55c-2.333,0.2-4.733,0.351-7.2,0.45
		c-4.9,0.233-7.617,0.167-8.15-0.2C1.983,16.4,1.733,15.667,1.8,14.6c0.067-0.866,0.317-1.716,0.75-2.55
		c0.333-0.633,1.4-1.833,3.2-3.6c1.567-1.567,2.633-2.567,3.2-3l5.95-4.1c-0.066,0.633-0.133,1.316-0.2,2.05
		c-0.067,1.467,0,2.4,0.2,2.8c0.333,0.667,1.267,0.833,2.8,0.5l-0.15,1.75l2.5,0.2l2.851,1.8l3.649,3.7L28.9,15l0.199,4.3
		L28.05,20.9z"/>
	<g>
		<path style="fill-rule:evenodd;clip-rule:evenodd;fill:#6C7D80;" d="M12.6,1.85l2.3-0.5c-0.867,1-1.583,2.15-2.15,3.45
			c-0.333,0.833-0.183,1.7,0.45,2.6c0.333,0.434,0.683,0.783,1.05,1.05l-0.5,5.899l-0.65-3.8h-2.15L7,16.2l1.8-5.95
			c-0.2-0.267-0.483-0.5-0.85-0.7c-0.7-0.333-1.4-0.267-2.1,0.2c-0.9,0.633-1.733,1.566-2.5,2.8c-0.833,1.367-1.1,2.351-0.8,2.95
			L1.75,16c-0.5,0.434-0.717,0.884-0.65,1.35H0.7c-0.367-0.366-0.583-0.866-0.65-1.5c-0.167-1.233,0.483-2.5,1.95-3.8
			c1.3-2.4,2.967-4.7,5-6.9C8.133,4.883,8.9,4.6,9.3,4.3L12.6,1.85z"/>
		<path style="fill-rule:evenodd;clip-rule:evenodd;fill:#6C7D80;" d="M10.15,15l1.3-2.8c0.867,1.767,1.033,2.866,0.5,3.3
			C11.383,15.967,10.783,15.8,10.15,15z"/>
		<path style="fill-rule:evenodd;clip-rule:evenodd;fill:#6C7D80;" d="M19.2,9.6c-1,0.867-2.05,2.516-3.15,4.95l1.5-6.1L22.5,6.3
			C21.3,7.6,20.2,8.7,19.2,9.6z"/>
		<path style="fill-rule:evenodd;clip-rule:evenodd;fill:#B8C2C4;" d="M32.7,12.7l-0.3-2.3L28.6,8.25c1.7,0.1,3.5,0.567,5.4,1.4
			c0.967,0.434,1.75,0.85,2.35,1.25l-2-0.65c-0.333-0.133-0.699,0.233-1.1,1.1C33.017,11.783,32.833,12.233,32.7,12.7z"/>
		<path style="fill-rule:evenodd;clip-rule:evenodd;fill:#B8C2C4;" d="M23.15,5.65c-1.867-0.9-3.067-1.617-3.601-2.15
			c-0.367-0.367-0.7-0.833-1-1.4L18.2,1.35c1.533-0.133,2.816,0.533,3.85,2C22.583,4.117,22.95,4.883,23.15,5.65z"/>
		<polygon style="fill-rule:evenodd;clip-rule:evenodd;fill:#839295;" points="6.2,11.9 6.35,15.5 4.7,14.35 		"/>
		<path style="fill-rule:evenodd;clip-rule:evenodd;fill:#6C7D80;" d="M43.25,16.45l0.5,0.45L27.95,21.3L17.4,17.35H1.1
			C1.033,16.884,1.25,16.434,1.75,16l0.8-0.5l0.25,0.35c0.534,0.334,1.333,0.601,2.4,0.801c1.767,0.333,6.1,0.116,13-0.65l10.05,4.3
			L43.25,16.45z"/>
		<path style="fill-rule:evenodd;clip-rule:evenodd;fill:#839295;" d="M29.1,19.3l-2-2.8l-2.449,0.35l-4.95-2.3
			c0.466-0.934,1.017-1.85,1.649-2.75c1.267-1.833,2.301-2.683,3.101-2.55c0.833,0.133,1.416,0.833,1.75,2.1
			c0.166,0.634,0.25,1.25,0.25,1.851L28.9,15L29.1,19.3z"/>
		<path style="fill-rule:evenodd;clip-rule:evenodd;fill:#839295;" d="M34.85,16.5c0.034-0.2,0.101-0.434,0.2-0.7
			c0.233-0.5,0.55-0.816,0.95-0.95c0.366-0.1,0.8,0.034,1.3,0.4c0.601,0.467,1,0.717,1.2,0.75c0.533,0.134,1.3,0.2,2.3,0.2
			l-6.25,1.95L34.85,16.5z"/>
	</g>
</g>
</svg>
