<?xml version="1.0" encoding="iso-8859-1"?>
<!-- Generator: Adobe Illustrator 15.1.0, SVG Export Plug-In . SVG Version: 6.00 Build 0)  -->
<!DOCTYPE svg PUBLIC "-//W3C//DTD SVG 1.1//EN" "http://www.w3.org/Graphics/SVG/1.1/DTD/svg11.dtd">
<svg version="1.1" id="rock_x5F_02.ai" xmlns="http://www.w3.org/2000/svg" xmlns:xlink="http://www.w3.org/1999/xlink" x="0px"
	 y="0px" width="24.5px" height="21.65px" viewBox="0 0 24.5 21.65" style="enable-background:new 0 0 24.5 21.65;"
	 xml:space="preserve">
<g>
	<path style="fill-rule:evenodd;clip-rule:evenodd;fill:#99A5A8;" d="M24.5,18.9c-7.233,1.833-11.167,2.75-11.8,2.75
		c-0.434,0-1.317-0.434-2.65-1.301C8.717,19.45,7.917,19,7.65,19C7.083,19,4.533,18.483,0,17.45c1.7-2.634,2.75-4.334,3.15-5.101
		l1.9-2.75L7.1,9.45L8.65,0l6.2,1.95C15.384,2.183,15.7,2.9,15.8,4.1l3.351,1.05l0.449,3.5c0.334,2.333,0.617,3.6,0.851,3.8
		c1.533,1.166,2.533,2.233,3,3.2C23.917,16.616,24.267,17.7,24.5,18.9z"/>
	<path style="fill-rule:evenodd;clip-rule:evenodd;fill:#839295;" d="M24.5,18.9l-11.8,2.75L8.35,18.7L2,16.6l3.05-7L7.2,9.45
		l2.35-4.9l2,0.55l0.65,1.35c0.066,0.1,0.267,0.216,0.6,0.35c0.233,0.1,0.334,0.2,0.3,0.3c-0.033,0.2-0.316,1.7-0.85,4.5
		c-0.134,0.467,0.1,1.5,0.7,3.101c0.033,0.399,0.45,0.6,1.25,0.6l2.35,1.8l1.05,1.7c3.967-0.533,5.983-0.783,6.051-0.75L24.5,18.9z"
		/>
	<g>
		<path style="fill-rule:evenodd;clip-rule:evenodd;fill:#6C7D80;" d="M3.15,12.35l1.9-2.75L2.7,16.25c1.9,0.767,3,1.167,3.3,1.2
			c0.133,0,0.45-0.184,0.95-0.55c0.5-0.334,0.867-0.467,1.1-0.4c0.233,0.066,0.534,0.467,0.9,1.2c0.2,0.366,0.45,0.85,0.75,1.45
			c0.2,0.3,0.75,0.733,1.65,1.3c0.933,0.6,1.55,0.899,1.85,0.899c0.267,0,2.233-0.399,5.899-1.199c1.834-0.434,3.634-0.851,5.4-1.25
			c-7.233,1.833-11.167,2.75-11.8,2.75c-0.434,0-1.317-0.434-2.65-1.301C8.717,19.45,7.917,19,7.65,19
			C7.083,19,4.533,18.483,0,17.45C1.7,14.816,2.75,13.116,3.15,12.35z"/>
		<path style="fill-rule:evenodd;clip-rule:evenodd;fill:#6C7D80;" d="M8.65,0L8.8,2.75c0.067,0.3,0.1,0.783,0.1,1.45l0.65,0.35
			L9,7.2C8.967,7.5,9.1,7.75,9.4,7.95c0.233,0.2,0.317,0.367,0.25,0.5c-0.133,0.3-0.233,1.267-0.3,2.899L7.1,9.45L8.65,0z"/>
		<path style="fill-rule:evenodd;clip-rule:evenodd;fill:#CBD1D3;" d="M13.1,3.1V2.25L11.2,1.35c0.1-0.033,0.667,0.083,1.7,0.35
			c0.533,0.133,1.05,0.267,1.55,0.4l0.5,1.1L13.1,3.1z"/>
		<path style="fill-rule:evenodd;clip-rule:evenodd;fill:#CBD1D3;" d="M18.6,5.9l-4.55,0.2l3.5-0.85L16.9,4.9
			C18.167,5.133,18.733,5.467,18.6,5.9z"/>
		<path style="fill-rule:evenodd;clip-rule:evenodd;fill:#B5BCBF;" d="M21.8,14.5c0.367,0.733,0.384,1.134,0.05,1.2l-4.05,1.25
			l2.05-1.5L18,15.6c-0.233,0-0.167-0.166,0.2-0.5c0.166-0.166,0.366-0.333,0.6-0.5L15.35,15l4.75-1.35l0.25,1.1L21.8,14.5z"/>
		<path style="fill-rule:evenodd;clip-rule:evenodd;fill:#839295;" d="M11.1,4.2c-0.167-0.067-0.267-0.367-0.3-0.9V2.55
			c0.233-0.167,0.4-0.05,0.5,0.35c0.167,0.533,0.333,0.833,0.5,0.9c0.367,0.167,1.117,0.4,2.25,0.7C12.316,4.4,11.333,4.3,11.1,4.2z
			"/>
		<polygon style="fill-rule:evenodd;clip-rule:evenodd;fill:#839295;" points="9.9,1.55 10.15,4 9.6,3.65 9.4,0.5 		"/>
		<path style="fill-rule:evenodd;clip-rule:evenodd;fill:#6C7D80;" d="M6.8,14c-0.2-0.066-0.633,0.25-1.3,0.95
			c-0.333,0.366-0.65,0.733-0.95,1.1c0-1.066,0.133-1.85,0.4-2.35l1.5-2.3l3.6,1.949l-2-0.3l0.7,2.65
			C7.817,14.667,7.167,14.1,6.8,14z"/>
		<path style="fill-rule:evenodd;clip-rule:evenodd;fill:#839295;" d="M13.7,10.7c0.267-1.267,0.483-2,0.649-2.2
			c0.2-0.2,0.7-0.35,1.5-0.45C16.283,8.017,16.684,8,17.05,8c0.566-0.1,0.483,0.2-0.25,0.9l1.65-0.2c0.467-0.1,0.5,0.517,0.1,1.85
			c-0.733-0.3-1.2-0.4-1.399-0.3c-0.2,0.067-0.101,0.4,0.3,1c0.399,0.6,0.767,0.9,1.1,0.9c0.467,0,1.101,0.1,1.9,0.3
			c-2.2,0.5-3.5,0.684-3.9,0.55c-0.166-0.066-0.35-0.45-0.55-1.15c-0.2-0.666-0.417-0.983-0.65-0.95
			c-0.267,0.033-0.716,0.383-1.35,1.05c-0.5,0.566-0.75,0.833-0.75,0.8S13.4,12.033,13.7,10.7z"/>
		<path style="fill-rule:evenodd;clip-rule:evenodd;fill:#839295;" d="M23.65,18.05c-1.034,0.467-2.084,0.767-3.15,0.9
			c-0.667,0.066-1.483,0.1-2.45,0.1c-0.899-0.066-1.467-0.1-1.7-0.1c-0.267,0-0.566,0.233-0.899,0.7
			c-0.167,0.233-0.316,0.466-0.45,0.699c-1.1-0.233-1.717-0.566-1.85-1c-0.067-0.267,0.399-0.75,1.399-1.449c0.5-0.367,1-0.7,1.5-1
			L13.9,15.4l3.949-0.45c-0.166,0.1-0.35,0.233-0.55,0.399c-0.366,0.301-0.566,0.567-0.6,0.801c-0.066,0.233,0.083,0.35,0.45,0.35
			h0.399c-0.166,0.066-0.25,0.4-0.25,1c-0.033,0.634,0.15,0.9,0.55,0.8L22,17.5l-0.75,0.6L23.65,18.05z"/>
		<path style="fill-rule:evenodd;clip-rule:evenodd;fill:#839295;" d="M11.55,9.1l-0.8,0.9L10.3,7.35
			c0.067-0.233,0.167-0.483,0.3-0.75c0.267-0.467,0.517-0.667,0.75-0.6c0.367,0.067,0.667,1.517,0.9,4.35l-0.6,1.05L11.55,9.1z"/>
		<path style="fill-rule:evenodd;clip-rule:evenodd;fill:#839295;" d="M10.9,16.7c-0.1-0.2-0.033-0.65,0.2-1.351l0.35-1l0.2,3.301
			C11.317,17.316,11.067,17,10.9,16.7z"/>
	</g>
</g>
</svg>
