<?xml version="1.0" encoding="iso-8859-1"?>
<!-- Generator: Adobe Illustrator 15.1.0, SVG Export Plug-In . SVG Version: 6.00 Build 0)  -->
<!DOCTYPE svg PUBLIC "-//W3C//DTD SVG 1.1//EN" "http://www.w3.org/Graphics/SVG/1.1/DTD/svg11.dtd">
<svg version="1.1" id="buildings_1" xmlns="http://www.w3.org/2000/svg" xmlns:xlink="http://www.w3.org/1999/xlink" x="0px"
	 y="0px" width="750px" height="340px" viewBox="0 0 750 340" style="enable-background:new 0 0 750 340;" xml:space="preserve">
<g>
	<path style="fill-rule:evenodd;clip-rule:evenodd;fill:#A2BDA2;" d="M290.15,43.25c4.2,8,6.983,15.85,8.35,23.55
		c1.367,7.7,2.1,16.684,2.2,26.95c0.066,5.133,0,9.483-0.2,13.05h-38.75c2.333-5.2,4.717-10.966,7.15-17.3
		c4.833-12.667,7.45-21.817,7.85-27.45c0.433-5.633,0.183-12.2-0.75-19.7l-1.5-9.55l9.75,0.75L290.15,43.25z"/>
	<g>
		<path style="fill-rule:evenodd;clip-rule:evenodd;fill:#89AA8B;" d="M276,42.35l-1.5-9.55l4.95,0.35c5,17.067,7.6,30.7,7.8,40.9
			c0.167,8.6-1.017,19.517-3.55,32.75h-21.95c2.333-5.2,4.717-10.966,7.15-17.3c4.833-12.667,7.45-21.817,7.85-27.45
			C277.183,56.417,276.933,49.85,276,42.35z"/>
		<g>
			<path style="fill-rule:evenodd;clip-rule:evenodd;fill:#6B8B6F;" d="M278.1,45.85c-0.3-2.4-1.1-6.733-2.4-13l1.7,0.15
				c3.1,15,4.75,25.933,4.95,32.8c0.2,6.6-0.833,20.267-3.1,41h-11.5c7.2-20.7,10.95-34.15,11.25-40.35
				c0.267-4.833,0.267-9.133,0-12.9C278.867,51.783,278.567,49.217,278.1,45.85z"/>
		</g>
		<path style="fill-rule:evenodd;clip-rule:evenodd;fill:#89AA8B;" d="M294.45,86.35c-0.067-5-0.333-9.883-0.8-14.65l-0.7-5.65
			l2.45,11.7c1.667,8.9,2.567,16.167,2.7,21.8c0.066,3.5,0.083,5.917,0.05,7.25h-5.7C293.817,98.6,294.483,91.783,294.45,86.35z"/>
	</g>
	<path style="fill-rule:evenodd;clip-rule:evenodd;fill:#A2BDA2;" d="M441.75,43.45c1.566,9.233,5.167,16.35,10.8,21.35
		c5.634,5,10.816,13.5,15.55,25.5c2.4,6,4.217,11.5,5.45,16.5H431.3c1.334-2.733,2.4-6.267,3.2-10.6c1.566-8.667,1-16.967-1.7-24.9
		c-2.7-7.9-3.883-16.816-3.55-26.75c0.167-4.966,0.6-9.133,1.3-12.5l10.5-1l-0.1,3.6C440.983,37.617,441.25,40.55,441.75,43.45z"/>
	<g>
		<path style="fill-rule:evenodd;clip-rule:evenodd;fill:#89AA8B;" d="M429.25,44.55c0.167-4.966,0.6-9.133,1.3-12.5l4.95-0.5
			c-0.3,3.767-0.4,7.617-0.3,11.55c0.133,6.066,0.717,11.15,1.75,15.25c1.033,4.033,2.916,8.6,5.649,13.7
			c2.867,5.434,4.867,10.034,6,13.8c1.567,5.333,2.184,12.316,1.851,20.95H431.3c1.334-2.733,2.4-6.267,3.2-10.6
			c1.566-8.667,1-16.967-1.7-24.9C430.1,63.4,428.917,54.483,429.25,44.55z"/>
		<g>
			<path style="fill-rule:evenodd;clip-rule:evenodd;fill:#6B8B6F;" d="M431.65,42l0.949-7.65L432.35,40
				c-0.133,4.267-0.1,7.717,0.101,10.35c0.2,2.667,0.649,5.1,1.35,7.3c0.434,1.367,1.267,3.717,2.5,7.05
				c0.233,0.7,1.566,3.833,4,9.4c1.834,4.233,3.101,8.15,3.8,11.75c0.867,4.267,0.834,11.25-0.1,20.95h-7.8
				c1.934-12.3,2.733-20.783,2.399-25.45c-0.233-3.5-1.267-7.7-3.1-12.6c-2.033-5.5-3.267-9.567-3.7-12.2
				C431.167,52.717,431.116,47.867,431.65,42z"/>
		</g>
		<path style="fill-rule:evenodd;clip-rule:evenodd;fill:#89AA8B;" d="M448.1,70.85l5.4,5.55c3.934,4.6,6.7,9.083,8.3,13.45
			c1.4,3.8,3.217,9.45,5.45,16.95h-6c-0.566-6.966-1.55-12.783-2.95-17.45c-1.233-4.067-3.3-8.367-6.2-12.9L448.1,70.85z"/>
	</g>
	<g>
		<polygon style="fill-rule:evenodd;clip-rule:evenodd;fill:#3B7079;" points="466.5,76.35 468.3,79.6 380.5,78.95 364.85,76.35 		
			"/>
		<polygon style="fill-rule:evenodd;clip-rule:evenodd;fill:#3B7079;" points="361.9,66.9 352.5,76.05 259.95,75.05 237.8,73.1 		
			"/>
		<path style="fill-rule:evenodd;clip-rule:evenodd;fill:#8FB3BC;" d="M462.2,43.5l2.35,14.6l-8.149,2.6l8.449,1.95l3.45,16.95
			l-5.7-0.65l-38.149-15.3l9.45-40.4L462.6,12.5l3.9,1l-3.6,10.4c-1.934,0.167-3.867,0.65-5.801,1.45
			c-3.899,1.6-5.883,4.05-5.949,7.35c-0.067,4.7,1.75,7.917,5.449,9.65C458.467,43.217,460.333,43.6,462.2,43.5z"/>
		<path style="fill-rule:evenodd;clip-rule:evenodd;fill:#6397A3;" d="M462.6,12.5l-3.949,9.8c-1.934,0.1-3.851,0.65-5.75,1.65
			c-3.801,1.933-5.567,5.066-5.301,9.4c0.267,4.367,2.184,7.417,5.75,9.15c1.801,0.867,3.567,1.3,5.301,1.3l0.649,13.65l-12.35,3.25
			l13,2.6l2.649,15.65l-97.75-2.6l-9.75-6.5l-6.55,3.9L237.8,73.1l3.95-17.6l4-3.25c2.7-2.8,4.183-5.833,4.45-9.1
			c0.267-3.267-0.85-5.883-3.35-7.85l-3.8-1.95L242.4,8.6l51.85,5.6c36.6,3.8,59.917,5.833,69.95,6.1
			c10.033,0.3,29.45-0.917,58.25-3.65C436.85,15.317,450.233,13.933,462.6,12.5z"/>
		<polygon style="fill-rule:evenodd;clip-rule:evenodd;fill:#448793;" points="457.95,73.1 451.7,75.1 444.45,75.1 453.95,72.6 		
			"/>
		<path style="fill-rule:evenodd;clip-rule:evenodd;fill:#448793;" d="M415.65,53.65c-4.434,0.267-6.634,1.684-6.601,4.25
			c0.066,2.533,2.267,3.8,6.601,3.8c2.033,0,3.6-0.434,4.699-1.3c0.967-0.8,1.417-1.75,1.351-2.85c-0.101-1.133-0.667-2.066-1.7-2.8
			C418.866,53.917,417.417,53.55,415.65,53.65z M426.35,52.3c2.601,1.934,3.5,4.2,2.7,6.8c-0.8,2.566-3.017,4.6-6.649,6.1
			c-4.067,1.7-8.983,2.267-14.75,1.7c-5.7-0.566-9.434-1.883-11.2-3.95c-1.533-1.767-1.483-3.85,0.149-6.25
			c1.467-2.233,3.817-4.15,7.051-5.75c3.3-1.667,6.433-2.434,9.399-2.3C419.017,48.917,423.45,50.133,426.35,52.3z"/>
		<path style="fill-rule:evenodd;clip-rule:evenodd;fill:#448793;" d="M292.3,33.7c-0.533,0-0.867,0.5-1,1.5
			c-0.167,1,0.25,1.5,1.25,1.5c1.133,0,1.717-0.5,1.75-1.5C294.333,34.2,293.667,33.7,292.3,33.7z M297,31.5
			c1.133,0.933,1.7,2.083,1.7,3.45s-0.567,2.517-1.7,3.45c-1.2,1-2.833,1.45-4.9,1.35c-4.2-0.2-6.184-1.867-5.95-5
			c0.067-1.233,0.617-2.317,1.65-3.25c1.067-0.967,2.434-1.467,4.1-1.5C294.033,29.933,295.733,30.433,297,31.5z"/>
		<path style="fill-rule:evenodd;clip-rule:evenodd;fill:#448793;" d="M341.4,61.25c1.533,0.167,2.75,0.683,3.65,1.55
			c0.8,0.833,1.15,1.767,1.05,2.8c-0.2,2.566-2.2,3.8-6,3.7c-1.833-0.033-3.233-0.517-4.2-1.45c-0.833-0.833-1.167-1.817-1-2.95
			c0.167-1.133,0.8-2.05,1.9-2.75C338.033,61.383,339.567,61.083,341.4,61.25z"/>
		<path style="fill-rule:evenodd;clip-rule:evenodd;fill:#448793;" d="M338.7,24.05c-8.3-0.867-14.934-1.85-19.9-2.95
			c-4.966-1.067-17.966-2.617-39-4.65l-30.05-2.75l-2.6-2.6l68.65,7.6c9.233,1,18.883,1.816,28.95,2.45
			c5.033,0.3,9.133,0.5,12.3,0.6l-7.4,3.25C346.517,24.8,342.867,24.483,338.7,24.05z"/>
		<path style="fill-rule:evenodd;clip-rule:evenodd;fill:#448793;" d="M459.1,14.8l-1.949,2.8
			c-26.634,2.167-42.917,3.467-48.851,3.9c-3.7,0.267-8.434,1.15-14.2,2.65l-7.55,2.15l-4.3-3.7l8.9-1.1
			c7-0.767,13.066-1.2,18.199-1.3c5.167-0.067,15.017-0.983,29.551-2.75C446.134,16.55,452.866,15.667,459.1,14.8z"/>
		<path style="fill-rule:evenodd;clip-rule:evenodd;fill:#448793;" d="M417.4,43.45l6.25,0.85c4.633,0.833,8.133,1.934,10.5,3.3
			c2.333,1.367,6.983,2.2,13.949,2.5c3.467,0.167,6.7,0.2,9.7,0.1v4.1c-2.533,0.2-5.2,0.567-8,1.1c-5.6,1.133-9.083,2.65-10.45,4.55
			c-1.866,2.633-4.05,4.966-6.55,7c-3.066,2.433-6.25,4.15-9.55,5.15c-2.967,0.933-9.934,1.25-20.9,0.95l-15.55-0.7l-1.75-5.45
			l3.2,1.9c2.7,1.267,5.55,1.934,8.55,2c7.7,0.267,13.033,0.367,16,0.3c7.467-0.233,12.267-1.133,14.4-2.7
			c2.033-1.5,4.083-3.767,6.149-6.8c1.101-1.6,2.301-3.45,3.601-5.55c0.633-0.8,1.767-1.55,3.399-2.25
			c0.801-0.333,1.551-0.6,2.25-0.8c-2.767-0.867-7.25-2.45-13.449-4.75c-3.9-1.467-8.334-2.483-13.301-3.05l-6.25-0.45L417.4,43.45z
			"/>
		<path style="fill-rule:evenodd;clip-rule:evenodd;fill:#448793;" d="M243.25,66.45l103.35,4.6
			c-29.967,0.267-46.684,0.184-50.15-0.25c-2.167-0.267-11.567-0.517-28.2-0.75l-24.35-0.3L243.25,66.45z"/>
		<path style="fill-rule:evenodd;clip-rule:evenodd;fill:#448793;" d="M394.8,48.05c2.334-0.833,4.584-1.566,6.75-2.2l6.5,1.5
			c-1.533,0.1-3.25,0.267-5.149,0.5c-3.767,0.5-6.467,1.066-8.101,1.7c-0.3,0.133-2.066,1.467-5.3,4
			c-2.566,2.034-5.783,3.3-9.65,3.8c-3.5,0.467-13.149,0-28.95-1.4c-16.9-1.5-27.167-2.184-30.8-2.05
			c-5.067,0.167-9.333,0.434-12.8,0.8l-3.7,0.5l-2.8-5l29.45,1.8c20.3,1.267,32.117,2.033,35.45,2.3c4.7,0.367,9,0.417,12.899,0.15
			c4.667-0.333,7.4-1.1,8.2-2.3C387.5,51.083,390.167,49.717,394.8,48.05z"/>
		<polygon style="fill-rule:evenodd;clip-rule:evenodd;fill:#448793;" points="378.3,61.9 378.75,65.4 348.55,58.85 		"/>
		<path style="fill-rule:evenodd;clip-rule:evenodd;fill:#448793;" d="M443.05,71.7c-2.8,3.066-12.583,4.8-29.35,5.2
			c-8.033,0.2-14.9,0.033-20.601-0.5l-6.1-0.8l18.4-0.3c12.899-0.267,20.883-0.533,23.949-0.8c2.834-0.233,5.45-1.183,7.851-2.85
			c3.033-2.1,5.05-3.316,6.05-3.65c2.1-0.733,5.083-1.167,8.95-1.3c1.934-0.067,3.649-0.067,5.149,0l0.45,2.8
			c-1.833-0.333-3.833-0.483-6-0.45C447.5,69.083,444.583,69.967,443.05,71.7z"/>
		<polygon style="fill-rule:evenodd;clip-rule:evenodd;fill:#448793;" points="364.65,73 362.7,70.6 383.3,71.45 383.1,73.65 		"/>
		<path style="fill-rule:evenodd;clip-rule:evenodd;fill:#448793;" d="M337.125,58.225c-1.09,0.225-2.932,1.25-5.525,3.075
			c-2.967,2.1-4.7,3.25-5.2,3.45c-1.433,0.567-23.717,0.2-66.85-1.1l-5.65-2.6l34.9,1.6c23.6,0.833,36.217,0.667,37.85-0.5
			c1.633-1.2,3.883-2.217,6.75-3.05C334.809,58.716,336.051,58.424,337.125,58.225z"/>
		<path style="fill-rule:evenodd;clip-rule:evenodd;fill:#448793;" d="M288.65,20.65c14.934,1.2,20.717,2.133,17.35,2.8
			c-2.9,0.6-22.95-0.55-60.15-3.45l0.65-2.8L288.65,20.65z"/>
		<path style="fill-rule:evenodd;clip-rule:evenodd;fill:#448793;" d="M453.45,20.2l-4.75,2.6l-60.4,8.25
			c-4.733,0.667-10.883,1-18.45,1c-3.533,0-8.45-0.1-14.75-0.3c-2.533-0.1-7.967-1.067-16.3-2.9l-11.75-2.75l11.2,1.25
			c7.867,0.833,12.833,1.2,14.9,1.1c1.567-0.067,3.75-0.784,6.55-2.15c3-1.433,5.733-2.3,8.2-2.6c2.767-0.333,5.617,0.4,8.55,2.2
			c3.3,2.067,5.233,3.133,5.8,3.2c1.366,0.167,4.167-0.167,8.4-1c7.366-1.467,11.583-2.283,12.649-2.45
			C409.366,24.617,426.083,22.8,453.45,20.2z"/>
		<path style="fill-rule:evenodd;clip-rule:evenodd;fill:#448793;" d="M422.3,33.65c7.8-0.8,14.851-1.583,21.15-2.35l2.399,5.4
			c-1.866-1.567-3.017-2.35-3.449-2.35L391.35,37.6c-7.533,0.467-16.95,0.35-28.25-0.35l-14.75-1.2l12.9,0.3
			c10.1,0.133,18.9,0.117,26.4-0.05C395.184,36.1,406.733,35.217,422.3,33.65z"/>
		<path style="fill-rule:evenodd;clip-rule:evenodd;fill:#448793;" d="M438.9,39.75c2.666,0,3.983,0.917,3.949,2.75
			c-0.033,1.8-1.283,2.7-3.75,2.7c-2.3,0-3.416-0.9-3.35-2.7C435.816,40.667,436.866,39.75,438.9,39.75z"/>
		<polygon style="fill-rule:evenodd;clip-rule:evenodd;fill:#448793;" points="424.15,38.9 426.1,41.3 376.8,40.4 		"/>
		<path style="fill-rule:evenodd;clip-rule:evenodd;fill:#448793;" d="M284.3,30.4c-1.066,1.367-2.033,2.983-2.9,4.85
			c-0.433,0.933-0.767,1.717-1,2.35c-0.066-1.1-0.233-2.283-0.5-3.55c-0.5-2.6-1.217-4.383-2.15-5.35c-0.9-1-4.533-2.1-10.9-3.3
			l-9.25-1.5l55.55,3.5c-4.367-0.033-8.85,0.067-13.45,0.3C290.533,28.133,285.4,29.033,284.3,30.4z"/>
		<polygon style="fill-rule:evenodd;clip-rule:evenodd;fill:#448793;" points="247.35,27.6 275.8,30.4 278.2,34.35 		"/>
		<polygon style="fill-rule:evenodd;clip-rule:evenodd;fill:#448793;" points="253.65,54.55 294.3,57.8 247.8,58.85 		"/>
		<path style="fill-rule:evenodd;clip-rule:evenodd;fill:#448793;" d="M337.5,48.25l-34.95-3.5c-2.767-0.3-18.417-0.017-46.95,0.85
			l2.85-6.05l119.2,8.7C356.683,48.817,343.3,48.817,337.5,48.25z"/>
		<polygon style="fill-rule:evenodd;clip-rule:evenodd;fill:#448793;" points="276.05,49.55 293.4,49.75 274.75,50.85 		"/>
		<polygon style="fill-rule:evenodd;clip-rule:evenodd;fill:#448793;" points="310.8,36.3 380.9,43 323.6,40 		"/>
		<path style="fill-rule:evenodd;clip-rule:evenodd;fill:#448793;" d="M325.55,32.8l-16.5-2.8l8.85,0.1
			c6.3,0.133,10.45,0.383,12.45,0.75c3.167,0.6,7.783,1.333,13.85,2.2C335.533,33.483,329.317,33.4,325.55,32.8z"/>
		<path style="fill-rule:evenodd;clip-rule:evenodd;fill:#D27948;" d="M294.55,23.6L288.8,34c-0.867-1.867-1.983-3.733-3.35-5.6
			c-2.733-3.7-5.367-5.483-7.9-5.35c-2.867,0.133-4.15,1.7-3.85,4.7c0.267,2.767,1.65,5.617,4.15,8.55
			c0.733,0.867,2.566,2.4,5.5,4.6c3.133,2.367,5.433,4.317,6.9,5.85c5.2,5.433,5.967,11.083,2.3,16.95
			c-4.566,7.3-12.133,8.333-22.7,3.1c-3.3-1.633-6.717-3.8-10.25-6.5l-4.25-3.55l8.4-8.65l2.75,2.85c2.233,2.2,4.35,4.066,6.35,5.6
			c6.467,4.9,10.633,5.55,12.5,1.95c1.2-2.333,0.05-4.883-3.45-7.65c-6.433-5.1-10.467-8.6-12.1-10.5
			c-2.933-3.434-4.05-8.117-3.35-14.05c0.767-6.466,3.8-10.233,9.1-11.3c4.8-0.967,9.4,0.167,13.8,3.4
			C291.583,20.033,293.317,21.767,294.55,23.6z"/>
		<path style="fill-rule:evenodd;clip-rule:evenodd;fill:#D27948;" d="M326.85,59.2c0.267,3.367,0.25,6.533-0.05,9.5l-6.3-0.65
			c-0.3-2.867-0.85-5.7-1.65-8.5c-1.633-5.6-3.684-8.2-6.15-7.8c-2.5,0.4-3.567,3.3-3.2,8.7c0.2,2.7,0.633,5.35,1.3,7.95l-10.35,0.3
			c1.033-7.733,1.667-13.583,1.9-17.55c0.133-2.5,0.017-8.05-0.35-16.65c-0.2-4.333-0.4-8.4-0.6-12.2l6.55-1.25L306.7,48l4.95-2.4
			c3.867-1.267,7.233-0.983,10.1,0.85C324.617,48.25,326.317,52.5,326.85,59.2z"/>
		<path style="fill-rule:evenodd;clip-rule:evenodd;fill:#D27948;" d="M339.95,29.35c3.267-0.7,6.383,0.683,9.35,4.15
			c2.767,3.2,4.684,7.25,5.75,12.15c1.1,5.1,0.883,9.467-0.65,13.1c-1.767,4.167-5.033,6.483-9.8,6.95
			c-4.767,0.466-8.483-1-11.15-4.4c-2.367-3-3.633-6.966-3.8-11.9c-0.133-4.733,0.717-9.017,2.55-12.85
			C334.167,32.45,336.75,30.05,339.95,29.35z M341.95,48.7c2.367-0.167,3.35-2.067,2.95-5.7s-1.833-5.283-4.3-4.95
			c-2.233,0.267-3.133,2.15-2.7,5.65C338.3,47.2,339.65,48.867,341.95,48.7z"/>
		<path style="fill-rule:evenodd;clip-rule:evenodd;fill:#D27948;" d="M368.1,29.05c6.2-0.8,10.034,0.083,11.5,2.65
			c4.034,6.933,3.367,12.95-2,18.05c-1.699,1.6-3.75,3.017-6.149,4.25l-3.15,1.35l-0.35,15.7l-5.65-1.7
			c0.633-8.867,0.85-15.633,0.65-20.3c-0.133-2.9-0.784-6.767-1.95-11.6l-1.7-6.4L368.1,29.05z M373.6,42
			c2.733-0.133,3.766-1.7,3.1-4.7c-0.667-2.966-2.133-4.283-4.4-3.95c-2,0.333-2.95,1.9-2.85,4.7
			C369.55,40.85,370.933,42.167,373.6,42z"/>
		<path style="fill-rule:evenodd;clip-rule:evenodd;fill:#D27948;" d="M387.95,44.05c0.2-4.667-0.467-11.233-2-19.7l3.1-0.4
			c2.467-0.233,4.816-0.267,7.05-0.1c7.034,0.566,11.317,3.066,12.851,7.5c1.533,4.467-0.634,9.25-6.5,14.35
			c-1.8,1.6-3.884,3.133-6.25,4.6l-2.95,1.75v19.3h-7.3C387.05,57.817,387.717,48.717,387.95,44.05z M399.6,37.7
			c2.134-0.2,3.233-1.567,3.301-4.1c0.066-2.533-1.25-3.717-3.95-3.55c-1.9,0.1-2.767,1.45-2.601,4.05
			C396.55,36.667,397.634,37.867,399.6,37.7z"/>
		<path style="fill-rule:evenodd;clip-rule:evenodd;fill:#D27948;" d="M437.25,24.4c0.866-0.833,1.434-1.617,1.7-2.35l-0.65,14
			l-17.55,1.55l0.2,7.45l11.649-0.7l0.7,7l-12.7,1.7l1.25,11.7l17.45-3.05l1,9.65l-29.35-0.65c2-12,2.883-19.784,2.649-23.35
			l-1.3-19.3l6.25,0.45c4.733,0.2,8.601,0,11.601-0.6C433.15,27.267,435.517,26.1,437.25,24.4z"/>
		<g>
			<path style="fill-rule:evenodd;clip-rule:evenodd;fill:#3B7079;" d="M294.4,14.25c-0.066,1.3-0.217,2.5-0.45,3.6
				c-0.133,0.7-0.65,2.717-1.55,6.05c-0.566,3.3-0.333,5.65,0.7,7.05c1.511,2.102,3.019,3.052,4.525,2.85
				c-1.403,0.224-2.728,0.041-3.975-0.55c-1-0.467-1.833-1.567-2.5-3.3c-0.633-1.6-1.033-3.434-1.2-5.5
				c-0.167-2.1,0.133-5.633,0.9-10.6L294.4,14.25z"/>
			<path style="fill-rule:evenodd;clip-rule:evenodd;fill:#3B7079;" d="M422.4,23.05c-0.167-1.3,0.483-3.5,1.949-6.6l3.7-0.35
				c-1.3,2.167-1.916,4.4-1.85,6.7c0.033,1.733,0.633,3.767,1.8,6.1c0.6,1.233,1.417,2.75,2.45,4.55c0.467,1.1,0.55,3.517,0.25,7.25
				c-0.066-2.434-0.8-4.517-2.2-6.25C424.866,30.017,422.833,26.217,422.4,23.05z"/>
		</g>
	</g>
	<path style="fill-rule:evenodd;clip-rule:evenodd;fill:#A2BDA2;" d="M435.25,15.35c-0.3-0.5-0.717-0.983-1.25-1.45
		c-1.1-0.867-2.3-1.1-3.6-0.7c-1.601,0.5-2.95,1.55-4.051,3.15c-1.399,2.1-1.85,4.633-1.35,7.6c0.434,2.6,1.333,5.033,2.7,7.3
		c1.6,2.667,2.5,4.317,2.7,4.95c0.466,1.466,0.6,3.216,0.399,5.25c-0.066,1-0.2,1.85-0.399,2.55c0.1-1.967-0.334-4.25-1.301-6.85
		c-0.267-0.733-1.933-2.65-5-5.75c-2.666-2.7-4.1-5.4-4.3-8.1c-0.333-4.833,0.334-8.883,2-12.15c1.9-3.667,4.983-6.066,9.25-7.2
		c3.733-1.034,7.351,0.4,10.851,4.3c1.733,1.933,3.1,3.967,4.1,6.1L435.25,15.35z"/>
	<path style="fill-rule:evenodd;clip-rule:evenodd;fill:#A2BDA2;" d="M288.9,6.55c-2.4-1.533-4.233-1.933-5.5-1.2
		c-0.967,0.6-1.583,2.033-1.85,4.3c-0.133,1.133-0.167,2.2-0.1,3.2l-9.85-1.1l1.55-4.95c1.733-3.5,4.317-5.65,7.75-6.45
		c3.833-0.9,7.483,0.066,10.95,2.9c3.167,2.567,4.8,5.283,4.9,8.15c0.067,1.1-0.567,4.533-1.9,10.3
		c-1.067,4.733-1.083,7.716-0.05,8.95c1.133,1.367,2.434,2.1,3.9,2.2c0.733,0.066,1.35-0.017,1.85-0.25
		c-0.566,0.5-1.283,0.833-2.15,1c-1.733,0.367-3.316-0.3-4.75-2c-1.433-1.633-2-4.9-1.7-9.8c0.6-5.233,0.867-8.55,0.8-9.95
		C292.65,9.883,291.367,8.117,288.9,6.55z"/>
	<g>
		<path style="fill-rule:evenodd;clip-rule:evenodd;fill:#89AA8B;" d="M279.2,3.4c-1.633,1.733-2.633,4.684-3,8.85l-4.6-0.5
			l1.55-4.95c1.733-3.5,4.317-5.65,7.75-6.45c1.567-0.367,3.167-0.4,4.8-0.1C283.133,0.45,280.967,1.5,279.2,3.4z"/>
		<path style="fill-rule:evenodd;clip-rule:evenodd;fill:#89AA8B;" d="M294.35,15.4c-0.267,1.467-0.733,4.117-1.4,7.95
			c-0.333,2.7-0.117,4.833,0.65,6.4c0.233,0.433,0.967,1.35,2.2,2.75c0.667,0.733,1.934,0.967,3.8,0.7
			c-2.167,1.033-4.15,0.5-5.95-1.6c-1.433-1.633-2-4.9-1.7-9.8c0.6-5.233,0.867-8.55,0.8-9.95c-0.1-1.833-1.25-3.517-3.45-5.05
			c-2.1-1.466-3.883-2.017-5.35-1.65c1.1-1.367,2.833-1.566,5.2-0.6c2.434,1,4.117,2.75,5.05,5.25
			C294.7,11.1,294.75,12.967,294.35,15.4z"/>
	</g>
	<g>
		<path style="fill-rule:evenodd;clip-rule:evenodd;fill:#89AA8B;" d="M430.85,13.1c1.233-1.133,2.9-1.267,5-0.4
			c1.2,0.5,2.384,1.25,3.551,2.25l-4.15,0.4c-0.267-0.467-0.65-0.917-1.15-1.35C433.1,13.167,432.017,12.867,430.85,13.1z"/>
		<path style="fill-rule:evenodd;clip-rule:evenodd;fill:#89AA8B;" d="M425.85,9.8c0.767-0.566,1.467-1.183,2.101-1.85
			c-0.9,1-1.834,2.183-2.8,3.55c-1.867,2.767-2.9,5.133-3.101,7.1c-0.2,2.333,0.05,4.7,0.75,7.1c0.733,2.433,1.717,4.267,2.95,5.5
			c1.2,1.2,2.25,2.633,3.15,4.3c0.833,1.5,1.35,2.817,1.55,3.95c0.13,1.011,0.113,2.436-0.05,4.275
			c0.056-1.902-0.378-4.093-1.301-6.575c-0.267-0.733-1.933-2.65-5-5.75c-2.666-2.7-4.1-5.4-4.3-8.1
			c-0.366-4.9,0.367-9.05,2.2-12.45l0.5,0.35C423.2,11.467,424.316,11,425.85,9.8z"/>
	</g>
</g>
<g>
	
		<linearGradient id="SVGID_1_" gradientUnits="userSpaceOnUse" x1="-727.9351" y1="-142.0654" x2="-661.8804" y2="-142.0654" gradientTransform="matrix(-0.9939 -0.1105 0.1105 -0.9939 -3.812760e-004 8.938462e-005)">
		<stop  offset="0" style="stop-color:#FDEAC8"/>
		<stop  offset="1" style="stop-color:#FBDDA6"/>
	</linearGradient>
	<polygon style="fill-rule:evenodd;clip-rule:evenodd;fill:url(#SVGID_1_);" points="669,136 670.5,160 683.75,163.8 672,209.5 
		691.5,209.5 706.5,254.5 696,260.5 750,314.5 705,340 570,266.5 616.5,112 681,100 678,133 	"/>
	<g>
		<polygon style="fill-rule:evenodd;clip-rule:evenodd;fill:#E7C47D;" points="680.85,101.45 678.9,122.75 617.35,132.5 
			614.05,120.2 615.6,114.95 		"/>
	</g>
	
		<linearGradient id="SVGID_2_" gradientUnits="userSpaceOnUse" x1="-546.7178" y1="-269.1045" x2="-104.0612" y2="-269.1045" gradientTransform="matrix(-0.9897 0.1431 -0.1431 -0.9897 -1.285672e-004 -3.464222e-004)">
		<stop  offset="0" style="stop-color:#FAD898"/>
		<stop  offset="1" style="stop-color:#F7C568"/>
	</linearGradient>
	<path style="fill-rule:evenodd;clip-rule:evenodd;fill:url(#SVGID_2_);" d="M675,289l30,51L0,326.5L30,271l-13.5-3l24-45
		c5.767-1,11.833-3.5,18.2-7.5c12.733-8,20.667-19.5,23.8-34.5s1.817-27.75-3.95-38.25c-1.8-3.267-3.933-6.133-6.4-8.6L69,131.5
		l16.5-42c13,2.5,29.183,5.433,48.55,8.8c38.767,6.767,74.083,12.333,105.95,16.7s104.183,5.183,216.95,2.45
		c56.366-1.367,109.55-3.184,159.55-5.45l3,73.5l-15.35,9.4L633,256l19.5,1.5l7.5,27L675,289z"/>
	<g>
		<path style="fill-rule:evenodd;clip-rule:evenodd;fill:#CEB071;" d="M182.05,280.95l52.15-1.101l0.95-35.1l-52.8-1.5
			L182.05,280.95z M229.25,281.3l-23.55,0.55v28.7l54.5-0.7l0.3-28.25L229.25,281.3z M291.9,280.45l0.6-34.15l-55.85-1.5
			l-0.95,35.05L291.9,280.45z M312.8,282.2l-19.45-0.2v0.05l-1.5-0.05v-0.05l-29.85-0.3l-0.3,28.199l48.9,1.15L312.8,282.2z
			 M261.85,244.1v-25.35l-55.15,0.05l-1,23.5L261.85,244.1z M310.5,245.2l-0.95-23.851l-38.8-2.6h-7.4v25.4L310.5,245.2z M152,281.4
			l-0.6,29.699l52.8-0.55V281.9l-34.4,0.899L152,281.4z M124,242.85l-0.95,34.851l46.8,3.6l10.7-0.3l0.3-37.8L124,242.85z
			 M110.8,276.8l10.75,0.8l0.95-34.8l-53.25-1l-8.9-0.6l0.35,34.149L110.8,276.8z M110.7,278.25l-23.35-0.65l-0.65,33.7l63.2-0.2
			l0.6-29.8L110.7,278.25z M152.35,216.1l-0.3,25.4l36.25,0.3l15.9,0.5l0.95-23.5h-13.9L152.35,216.1z M150.55,241.5l0.3-25.5
			l-32.15-2.25l-30.75-3.45l-1.9,30.351l30.25,0.649L150.55,241.5z M135.25,181.25L127,180.6l-0.3,32.2l57.45,4l-1.25-33.6
			L135.25,181.25z M135.35,179.8l16.15,0.65l-0.6-27.9l-61.95-4.8l-0.9,28.05L135.35,179.8z M289.25,190.95l-52.9-4.4v30.75h34.4
			l20.4,1.351L289.25,190.95z M281.75,165.3l-20.7-2.15L262,187.2l46.25,3.85l0.9-25.15L281.75,165.3z M237.35,133.8l-0.95,25.3
			l45.45,4.7l7.05,0.15l0.9-29.35l-46.05-0.3L237.35,133.8z M235.85,133.7l-52.15-3.75l0.3,23.75l50.9,5.25L235.85,133.7z
			 M182.5,153.55l-0.3-23.7l-29-2.1l-27.5-4.25l-0.35,25.55L182.5,153.55z M234.85,186.45l-26.15-2.2l-24.3-0.95l1.25,33.601
			l5.7,0.399h43.5V186.45z M202,157.05l-0.3,25.45l58.8,4.55L259.55,163L202,157.05z M200.2,182.4l0.3-25.5l-20.8-2.15l-27.3-2.1
			l0.6,27.85L200.2,182.4z M344.1,222.15l-1.55-26.75l-51.8-4.301l1.9,27.65L344.1,222.15z M536.2,289.5l-4.45-0.25l-39.05,1.45
			L492.35,313.6l18.9-0.3l53.95,3.95V291.1l-27.5-1.5v0.051l-1.5,0.05V289.5z M522.2,224.75l-32.05,0.65l2.75,17.399
			c1.1,0.066,19.583,2.233,55.449,6.5l12.801,2l-1.25-22.8L522.2,224.75z M623.55,290.8l-45.75,1l-11.1-0.649V317.1l43.55-4.85
			l13.6,1.15L623.55,290.8z M614.35,259.8h5.15v-25.45l-58.05-5.699l1.2,22.899L614.35,259.8z M577.8,290.3l16-0.35l-1.6-32.2
			l-44.05-7L536.1,249.3l1.551,38.8L577.8,290.3z M593.7,258l1.6,31.9l29.95-0.601l23.55,2.4l-1.6-30.45h-33.05L593.7,258z
			 M434.4,313.9L451.3,314.3l39.55-0.7l0.351-22.85l-0.95,0.05l-0.05-0.05l-54.55-6.05L434.4,313.9z M344.9,281.05l1.25-33.55
			L294,246.35l-0.6,34.15L344.9,281.05z M346.35,282.6v0.101l-1.5-0.05v-0.101l-30.55-0.35l-2.2,28.85l61.75,1.4l-1-29.601
			L346.35,282.6z M368.2,246.5l-0.35-21.25l-56.8-3.8l0.95,23.8L368.2,246.5z M468.35,246.05l-0.949,40.7l22.899,2.5l41.45-1.45
			l4.35,0.2l-1.55-38.85c-26.934-3.233-40.866-4.851-41.8-4.851L468.35,246.05z M407.5,281.65l-0.95-32.801l-58.9-1.3l-1.25,33.55
			L407.5,281.65z M425.85,249.25l-17.8-0.35l0.95,32.75l13.8,0.149l43.101,4.75l0.949-40.399L425.85,249.25z M434.15,284.55
			l-11.45-1.3l-48.35-0.4l1,29.65l57.551,1.35L434.15,284.55z M430.5,247.4l-0.6-20.75L398.3,227.3l-28.95-1.95l0.35,21.2l56.1,1.25
			L430.5,247.4z M431.4,226.6l0.6,20.7c32.967-2.533,52.767-4.017,59.4-4.45l-2.75-17.399L431.4,226.6z M464.55,191.4l-57.2,3.399
			v30.8l58.5-1.199L464.55,191.4z M463.9,136.9l-57.851,1l0.3,28l58.801-1.8L463.9,136.9z M475.25,190.8l-9.2,0.5l1.3,33.101
			l54.9-1.101l12.15,1.15l-4.15-31.8L475.25,190.8z M428.7,166.75v25.3l46.55-2.75l10.6,0.351l-0.3-24l-9.3-0.4L428.7,166.75z
			 M343.2,165.15l0.65-29.05l-24.1-1.35l-28.45-0.15l-0.9,29.35L343.2,165.15z M365.25,197.3l-0.05-0.05l-21.15-1.75l1.6,26.75
			l52.65,3.55l7.55-0.2V194.9L365.25,197.3z M394.8,167.8l-23.95-0.55l-3.75,28.4l60.1-3.551v-25.3L394.8,167.8z M365.55,195.75
			l3.8-28.55l-58.7-1.3l-0.95,25.25l55.6,4.6H365.55z M404.55,137.9l-21.25,0.4l-37.95-2.1l-0.65,28.95l50.1,1.15l10.05-0.35
			L404.55,137.9z M560.25,132.3l-34.5,2.3L528,166l61.6,3.1l2.25-32.35L560.25,132.3z M563.7,193.75l-31.9-1.05l4.15,31.899
			l54.25,5.351V199.5L563.7,193.75z M487.05,165.75l0.3,23.95L557.9,192.1l0.6-23.149L487.05,165.75z M524.25,134.7l-23.4,1.55
			L465.4,136.9l1.25,27.15l9.6-0.25l50.25,2.15L524.25,134.7z M678.45,317.8l-2.25-21.7l-51-5.35l-0.15,0.05l0.3,22.7L678.45,317.8z
			 M653.1,259.8l0.4,1.5l-4.8-0.05l1.6,30.6l28.05,2.95l0.9,1.5l-1.55-0.1l2.3,21.75l12.65,1.05l0.899,1.5l-42.149-3.4l1.35,21.9
			l-1.5-0.05L649.9,317l-39.601-3.2l-12.6,1.4l-0.25,22.75l-1.5-0.05l0.25-22.551l-30.9,3.45l-0.1-0.05l-27.851-2.05l-0.699,20.1
			l-1.5-0.05l0.699-20.15l-24.649-1.85l-46.101,0.8l2.15,19.9l-1.5-0.05l-2.15-19.851l-12.3,0.25l-41.899-1l0.5,19.55l-1.5-0.05
			l-0.5-19.55l-58.851-1.35l0.85,19.8l-1.5-0.05l-0.85-19.801L293,312.1l-1.25,20l-1.5-0.05l1.25-20l-33.75-0.75l-23.85,0.3
			l-2.55,19.351l-1.5-0.05l2.55-19.25l-51.75,0.699l-0.45,17.601l-1.5-0.05l0.45-17.551l-57.8,0.45v16.05l-1.5-0.05v-16h-34.1
			l-24.05-2.75l-0.25,17.65l-1.5-0.05l0.25-17.801l-14-1.6L9.9,308.3l0.8-1.5h35.55l38.95,4.4l0.65-33.65l-28.1-0.75l-30.1-1.45
			l0.8-1.449L59.2,275.3l-0.35-34.2L31.8,239.4l0.75-1.45l36.75,2.35l15.25,0.3l1.9-30.449L68.1,208.05l1.35-1.35l49.4,5.6l6.35,0.4
			l0.3-32.25l-42.25-3.55l0.2-1.45l3.1,0.25l0.9-28.1l-6.8-0.5l-0.7-1.55l7.55,0.55l0.05-0.1l1.45,0.05v0.2l34.85,2.7l0.35-25.7
			l-48.95-7.55l0.55-1.45L87.2,116V98.05h1.5v18.2l62.8,9.75l-0.3-17.95l1.5-0.05l0.3,18.2l0.4,0.1l45.5,3.25l0.65-18.2l1.45,0.05
			l-0.6,18.25l43.45,3.15l15.05,0.1l0.3-7.55l1.5,0.05l-0.3,7.5l59.4,0.4l50.7,2.75l-0.3-16.7h1.5l0.3,16.8l11.3,0.65l42.601-0.75
			l0.3-10.05l1.5,0.05l-0.3,10L486.85,135l-0.35-15.3h1.5l0.35,15.3l12.4-0.2l58.75-3.95l-0.3-9.45l1.5-0.05l0.3,9.5l56.6,8.05v1.45
			L593.35,137l-2.25,32.15l27.7,1.5l0.101,1.449L560,169l-0.6,23.15l4.55,0.149l43.399,9.351L608,203.3l-16.3-3.5v30.3l30.5,3
			l0.649,1.5l-1.85-0.1v25.3H653.1z"/>
	</g>
	<path style="fill-rule:evenodd;clip-rule:evenodd;fill:#BC9D61;" d="M356.95,180.7c-3.467,0.133-6.184-0.816-8.15-2.851
		l-1.85-3.149c-0.9,0.833-2.1,1.7-3.6,2.6c-3,1.767-6.033,2.783-9.1,3.05c-3.033,0.301-5.783-0.449-8.25-2.25l-2.75-2.75
		c-1.6,1-3.5,1.95-5.7,2.851c-4.367,1.767-8.017,2.383-10.95,1.85c-2.9-0.566-5.55-2.017-7.95-4.35l-2.7-3.351
		c-1,0.9-2.25,1.817-3.75,2.75c-3,1.9-5.75,2.983-8.25,3.25c-2.5,0.301-5.2-0.666-8.1-2.899l-3.6-3.4
		c-0.167,0.233-0.617,0.533-1.35,0.9c-1.5,0.767-3.717,1.566-6.65,2.399c-2.9,0.834-6.1,0.15-9.6-2.05l-4.4-3.6
		c-1.367,0.934-3.067,1.899-5.1,2.899c-4.066,2-7.7,3.15-10.9,3.45c-3.2,0.267-5.317-0.816-6.35-3.25l-0.65-3.75
		c-1.2,0.667-2.783,1.316-4.75,1.95c-3.933,1.267-7.783,1.833-11.55,1.7c-3.833-0.134-5.534-1.45-5.1-3.95
		c0.267-1.6,1.066-3.067,2.4-4.4l29.35-14.3l184.65,4.65l22.7,14l-0.601,4.149c-0.767,2.834-2.133,4.45-4.1,4.851
		c-1.934,0.434-3.85,0-5.75-1.3l-2.25-2.051c-0.1,0.5-0.533,1-1.3,1.5c-1.467,1-3.8,1.5-7,1.5s-5.95-1-8.25-3l-2.45-3
		c-0.434,1-1.116,2.067-2.05,3.2c-1.8,2.3-3.884,3.8-6.25,4.5c-2.367,0.7-5.033,0.184-8-1.55l-3.7-2.8
		c-0.6,1.166-1.55,2.3-2.85,3.399c-2.634,2.167-5.684,3.034-9.15,2.601c-3.467-0.4-6.167-1.634-8.1-3.7l-1.9-2.95
		c-1,1.066-2.35,2.134-4.05,3.2C363.833,179.417,360.417,180.566,356.95,180.7z"/>
	<g>
		<path style="fill-rule:evenodd;clip-rule:evenodd;fill:#CEB071;" d="M563.9,131.5c-35.601-0.4-57.733-0.05-66.4,1.05
			c-8.8,1.1-29.4,3.517-61.8,7.25l-45.95,5.25c-0.066-0.667-0.434-1.667-1.1-3c-1.334-2.667-3.467-5.667-6.4-9
			c-3.4-3.9-8.667-6.333-15.8-7.3c-6.867-0.967-12.934-0.283-18.2,2.05c-4.233,1.867-8.217,4.8-11.95,8.8l-4.3,5.45l-123.5-6.75
			l-5.25-15l-43-5.75l-9,14.25L74.6,117.35L85.5,89.5c13,2.5,29.183,5.433,48.55,8.8c38.767,6.767,74.083,12.333,105.95,16.7
			c26.567,3.667,81.95,4.833,166.15,3.5c53.166-0.867,112.883-2.6,179.149-5.2l31.4,3.2l0.649,16
			C599.65,132.067,581.833,131.733,563.9,131.5z"/>
	</g>
	<path style="fill-rule:evenodd;clip-rule:evenodd;fill:#448793;" d="M621.95,128.35c-12.334-0.767-26.634-1.367-42.9-1.8
		c-32.566-0.9-58.717-0.517-78.45,1.15c-19.733,1.667-42.767,3.733-69.1,6.2l-33.55,3.15c-1.334-2.433-3.8-4.833-7.4-7.2
		c-7.233-4.667-16.55-6.717-27.95-6.15c-11.367,0.566-19.883,2.85-25.55,6.85c-1.767,1.233-3.15,2.567-4.15,4l-0.95,1.8l-118-8
		l-5.35-10l-50-6.65l-8.65,10.65l-89.7-16.3l27-49c32.167,7.767,69.667,15.35,112.5,22.75c85.667,14.767,155.167,21.184,208.5,19.25
		c53.333-1.966,104.833-10,154.5-24.1c24.833-7.067,44.333-13.934,58.5-20.6L621.95,128.35z"/>
	<polygon style="fill-rule:evenodd;clip-rule:evenodd;fill:#6C9EA9;" points="682.75,116.55 621.95,128.35 621.25,54.35 
		685.25,88.05 	"/>
	<polygon style="fill-rule:evenodd;clip-rule:evenodd;fill:#E7C47D;" points="678,133 669,136 635.95,132.7 	"/>
	<polygon style="fill-rule:evenodd;clip-rule:evenodd;fill:#E7C47D;" points="619.5,185.5 667,197.3 604.15,194.9 	"/>
	<polygon style="fill-rule:evenodd;clip-rule:evenodd;fill:#E7C47D;" points="706.5,254.5 696,260.5 656.75,261.55 	"/>
	<polygon style="fill-rule:evenodd;clip-rule:evenodd;fill:#FEF5E5;" points="683.75,163.8 626.5,168.05 670.5,160 	"/>
	<polygon style="fill-rule:evenodd;clip-rule:evenodd;fill:#FEF5E5;" points="672,209.5 691.5,209.5 628,223.8 	"/>
	<polygon style="fill-rule:evenodd;clip-rule:evenodd;fill:#FEF5E5;" points="652.5,257.5 633,256 697.75,247.8 	"/>
	<polygon style="fill-rule:evenodd;clip-rule:evenodd;fill:#FEF5E5;" points="660,284.5 710.9,279.05 675,289 	"/>
	<path style="fill-rule:evenodd;clip-rule:evenodd;fill:#448793;" d="M358.75,175.7c-4.167,0.833-7.967-0.134-11.4-2.9
		c-1.067-0.899-2.033-1.899-2.9-3l-1-1.45c0,1-0.333,2.083-1,3.25c-1.333,2.334-3.667,3.917-7,4.75
		c-3.333,0.834-6.667-0.017-10-2.55l-4-4.1c-0.434,0.899-1.267,1.85-2.5,2.85c-2.467,2-5.633,3.267-9.5,3.8
		c-3.9,0.567-7.633-0.816-11.2-4.149l-4.15-5.15c-0.434,0.767-1.2,1.633-2.3,2.6c-2.233,1.867-5.017,3.216-8.35,4.05
		c-3.333,0.833-6.217-0.017-8.65-2.55l-2.7-4.101c-0.233,0.667-0.817,1.383-1.75,2.15c-1.9,1.566-4.65,2.616-8.25,3.149
		c-3.6,0.567-6.45-0.483-8.55-3.149l-2.1-4.15c-1.1,1-2.583,2.034-4.45,3.1c-3.667,2.1-7.3,3.284-10.9,3.55s-5.783-0.983-6.55-3.75
		c-0.267-0.867-0.367-1.833-0.3-2.9l0.2-1.35c-2.233,1.233-4.934,2.383-8.1,3.45c-6.333,2.1-11.867,2.733-16.6,1.9
		c-4.7-0.833-2.333-5.533,7.1-14.1c4.733-4.267,9.933-8.467,15.6-12.6l39.65,3.5c29.767,2.467,52.983,3.967,69.65,4.5
		c16.667,0.566,34.783,0.517,54.35-0.15c9.801-0.333,17.917-0.717,24.351-1.15l2.95,3.65c2.3,2.933,4.233,5.633,5.8,8.1
		c5,7.867,5.416,11.95,1.25,12.25c-4.167,0.267-7.967-0.983-11.4-3.75l-3.95-4.25c-0.433,1.1-1.149,2.3-2.149,3.6
		c-2,2.534-4.4,4.216-7.2,5.05c-2.767,0.833-5.15,0.2-7.15-1.9l-2.149-3.45c-0.566,1.233-1.4,2.483-2.5,3.75
		c-2.233,2.567-4.733,3.983-7.5,4.25c-2.8,0.301-5.75-0.833-8.85-3.399l-3.85-3.9c0,0.767-0.417,1.634-1.25,2.601
		C365.833,173.517,362.917,174.866,358.75,175.7z"/>
	<path style="fill-rule:evenodd;clip-rule:evenodd;fill:#6C9EA9;" d="M415.45,149.05l19.5,4.95l10.7,9.05
		c6.733,6.167,9.05,9.601,6.949,10.3c-2.066,0.7-4.8,0.351-8.199-1.05l-4.45-2.3l0.649,2.25c0,1.4-1.116,1.884-3.35,1.45
		c-2.2-0.4-6.5-4.633-12.9-12.7L415.45,149.05z"/>
	<path style="fill-rule:evenodd;clip-rule:evenodd;fill:#AB8441;" d="M487.95,182.2c1.2,1.033,1.767,2.767,1.7,5.2
		c0,1.199-0.134,2.3-0.4,3.3l3.1-0.75c2.2-0.2,3.667,0.5,4.4,2.1c0.767,1.601,0.833,3.417,0.2,5.45c-0.334,1-0.733,1.85-1.2,2.55
		l2-0.7c1.5-0.166,2.667,0.45,3.5,1.851c0.833,1.399,1,3.316,0.5,5.75c-0.233,1.233-0.566,2.316-1,3.25l2.15-0.65
		c1.6-0.166,2.783,0.434,3.55,1.8c0.767,1.4,0.434,3.317-1,5.75l-2.351,3.25l2.5-0.6c1.767-0.066,2.934,0.7,3.5,2.3
		c0.567,1.601,0.4,3.417-0.5,5.45c-0.433,1-0.933,1.85-1.5,2.55l2.101,0.75c1.434,0.8,2.283,1.983,2.55,3.55
		c0.3,1.601,0.116,3.2-0.55,4.801c-0.334,0.8-0.7,1.433-1.101,1.899l2.75,1.3c1.9,1.2,2.983,2.601,3.25,4.2
		c0.267,1.601-0.3,3.334-1.699,5.2l-2.15,2.3l3.4,2c2.199,1.7,3.233,3.417,3.1,5.15s-0.95,3.066-2.45,4l-2.2,0.85l3.5,3.4
		c2.067,2.533,2.4,4.45,1,5.75c-1.399,1.3-3.233,1.416-5.5,0.35l-3-2l-0.35,2c-0.533,1.3-1.533,1.9-3,1.8
		c-1.467-0.066-2.95-0.75-4.45-2.05l-1.85-1.95c-0.3,0.5-0.783,1.017-1.45,1.551c-1.366,1.033-2.95,1.583-4.75,1.649
		s-3.333-0.383-4.6-1.35l-1.4-1.5c-0.233,0.833-0.65,1.684-1.25,2.55c-1.167,1.733-2.583,2.667-4.25,2.8
		c-1.667,0.134-3.1-0.75-4.3-2.649l-1.351-2.851c-0.066,0.533-0.366,1.084-0.899,1.65c-1.066,1.166-2.816,1.883-5.25,2.149
		s-4.467-0.35-6.101-1.85l-1.75-2.3c-0.267,0.866-0.699,1.733-1.3,2.6c-1.233,1.767-2.684,2.684-4.35,2.75
		c-1.667,0.066-2.867-0.883-3.601-2.85l-0.6-3c-0.634,0.934-1.467,1.733-2.5,2.399c-2.033,1.334-4.033,1.367-6,0.101
		c-1.934-1.233-2.483-2.967-1.65-5.2l1.851-2.95c-0.767,0.101-1.55,0.05-2.351-0.149c-1.6-0.434-2.433-1.45-2.5-3.051
		c-0.066-1.6,0.667-3.133,2.2-4.6c0.767-0.733,1.533-1.3,2.3-1.7c-0.899-0.233-1.783-0.616-2.649-1.149
		c-1.733-1.034-2.566-2.317-2.5-3.851s0.833-2.833,2.3-3.899c0.733-0.5,1.467-0.867,2.2-1.101c-0.733-0.5-1.467-1.166-2.2-2
		c-1.467-1.7-2.134-3.434-2-5.2c0.134-1.733,0.816-3.25,2.05-4.55c0.634-0.666,1.233-1.149,1.8-1.45
		c-0.6,0.034-1.216-0.133-1.85-0.5c-1.233-0.767-1.9-2.199-2-4.3c-0.066-2.066,0.717-3.916,2.35-5.55c0.834-0.8,1.667-1.4,2.5-1.8
		c-0.699-0.066-1.35-0.367-1.949-0.9c-1.2-1.033-1.601-2.616-1.2-4.75c0.434-2.166,1.283-3.866,2.55-5.1
		c0.634-0.634,1.217-1.05,1.75-1.25c-0.533-0.733-1.017-1.601-1.45-2.601c-0.866-2.033-0.983-3.783-0.35-5.25
		c0.633-1.466,1.783-2.6,3.45-3.399c0.866-0.4,1.649-0.65,2.35-0.75c-0.533-0.733-1-1.584-1.4-2.55c-0.8-1.9-0.833-3.334-0.1-4.301
		c0.767-0.966,1.95-1.449,3.55-1.449c0.8,0,1.517,0.1,2.15,0.3c-0.233-1.066-0.351-2.217-0.351-3.45c0.034-2.4,0.7-3.917,2-4.55
		c1.301-0.634,3.117-0.733,5.45-0.3c1.134,0.199,2.15,0.466,3.05,0.8l1.601-2.55c1.333-1.767,2.75-2.801,4.25-3.101
		c2.934-0.633,5.816,0.101,8.649,2.2c1.4,1.033,2.517,2.134,3.351,3.3l1.95-1.1C485.4,180.917,486.75,181.167,487.95,182.2z"/>
	<path style="fill-rule:evenodd;clip-rule:evenodd;fill:#448793;" d="M445,229.3c1.333-28.333,9.083-43.75,23.25-46.25
		s25.917,11.584,35.25,42.25c4.667,15.334,7.917,30.917,9.75,46.75l-66-1C445.083,257.384,444.333,243.467,445,229.3z"/>
	<path style="fill-rule:evenodd;clip-rule:evenodd;fill:#AB8441;" d="M541.75,192.6c0.267-2.033,1.05-3.216,2.35-3.55
		c1.334-0.366,2.817-0.283,4.45,0.25c0.834,0.267,1.517,0.566,2.05,0.9l1.4-2c1.2-1.434,2.4-2.316,3.6-2.65
		c3.2-0.899,5.9-0.366,8.101,1.601c1.133,0.966,1.934,2.033,2.399,3.199l1.75-1.399c1.467-0.767,3-0.733,4.601,0.1
		c1.6,0.834,2.5,2.5,2.7,5c0.1,1.267,0.033,2.434-0.2,3.5l2.6-0.25c1.9,0.134,3.3,0.934,4.2,2.4c0.934,1.467,1.167,3.3,0.7,5.5
		c-0.233,1.1-0.566,2.05-1,2.85l2.649,0.55c1.867,0.601,3.034,1.417,3.5,2.45c0.5,1.033,0.483,2.601-0.05,4.7
		c-0.267,1.033-0.583,1.967-0.95,2.8l3.301,0.7c2.233,0.767,3.416,1.8,3.55,3.1c0.133,1.301-0.134,2.5-0.8,3.601l-1.051,1.25
		l2.551,0.6c1.833,0.601,2.983,1.45,3.449,2.55c0.5,1.101,0.434,2.884-0.199,5.351c-0.334,1.233-0.717,2.35-1.15,3.35l2.65,0.7
		c1.933,0.733,3.283,1.833,4.05,3.3s0.717,3.601-0.15,6.4c-0.434,1.399-0.95,2.649-1.55,3.75l2.45,0.05
		c1.733,0.4,2.916,1.6,3.55,3.6c0.634,2.034,0.384,3.967-0.75,5.801l-1.9,2.199l3,0.801c1.967,0.866,2.851,2.166,2.65,3.899
		s-1.533,2.617-4,2.65l-3.65-0.5c0.067,0.566-0.05,1.166-0.35,1.8c-0.667,1.267-2,2.05-4,2.35c-1.8,0.301-3.283-0.25-4.45-1.649
		l-1.2-2.15l0.101,2.2c-0.367,1.566-1.617,2.55-3.75,2.95c-2.167,0.434-4.351-0.334-6.55-2.3l-2.65-3.051
		c-0.1,0.667-0.366,1.351-0.8,2.051c-0.867,1.366-2.101,2.083-3.7,2.149c-1.566,0.066-2.783-0.633-3.65-2.1l-0.85-2.25
		c-0.366,0.6-0.9,1.233-1.6,1.899c-1.4,1.334-2.967,2.15-4.7,2.45c-1.733,0.267-3.367-0.399-4.9-2l-1.8-2.5
		c-0.233,0.7-0.667,1.4-1.3,2.101c-1.2,1.399-2.7,2.133-4.5,2.199c-1.8,0.101-3.351-0.733-4.65-2.5l-1.35-2.649
		c-0.7,0.866-1.55,1.616-2.55,2.25c-2,1.3-3.767,1.434-5.301,0.399c-1.533-1.033-2.149-2.449-1.85-4.25l0.85-2.399
		c-0.6,0.066-1.233-0.033-1.899-0.3c-1.3-0.534-2.05-1.601-2.25-3.2c-0.2-1.601,0.149-3.3,1.05-5.101l1.45-2.25
		c-0.601-0.133-1.25-0.399-1.95-0.8c-1.333-0.833-2.134-1.95-2.4-3.35c-0.267-1.4,0.233-2.934,1.5-4.601
		c0.634-0.8,1.301-1.483,2-2.05c-0.633-0.267-1.3-0.684-2-1.25c-1.399-1.1-2.233-2.3-2.5-3.6c-0.267-1.334,0.317-2.9,1.75-4.7
		c0.733-0.9,1.483-1.667,2.25-2.3c-0.733-0.101-1.483-0.367-2.25-0.8c-1.5-0.9-2.25-2.184-2.25-3.851c0-1.666,0.817-3,2.45-4
		c0.8-0.5,1.601-0.833,2.4-1c-0.834-0.233-1.634-0.6-2.4-1.1c-1.566-1-2.217-2.2-1.95-3.601c0.301-1.366,1.367-2.633,3.2-3.8
		c0.9-0.6,1.783-1.05,2.65-1.35c-1-0.4-1.95-0.95-2.851-1.65c-1.8-1.366-2.466-2.816-2-4.35c0.5-1.533,1.717-2.634,3.65-3.3
		c0.934-0.334,1.833-0.517,2.7-0.551c-0.533-0.666-0.983-1.449-1.351-2.35c-0.733-1.8-0.683-3.283,0.15-4.45
		c0.833-1.2,2-1.8,3.5-1.8c0.767-0.033,1.434,0.066,2,0.3C541.616,194.616,541.616,193.634,541.75,192.6z"/>
	<path style="fill-rule:evenodd;clip-rule:evenodd;fill:#448793;" d="M604.25,271.05l-65-2c-2.333-12.666-3.45-25.416-3.35-38.25
		c0.166-25.666,6.283-38.916,18.35-39.75c12.1-0.833,24.066,12.25,35.9,39.25C596.05,243.8,600.75,257.384,604.25,271.05z"/>
	<path style="fill-rule:evenodd;clip-rule:evenodd;fill:#AB8441;" d="M98.3,196.85c-0.8-2.666-0.367-4.833,1.3-6.5
		c1.667-1.666,3.617-2.6,5.85-2.8c1.1-0.133,2.033-0.083,2.8,0.15c0.233-1.4,0.6-2.917,1.1-4.55c1-3.267,2.2-5.417,3.6-6.45
		c2.2-1.667,4.7-2.217,7.5-1.65c1.4,0.267,2.566,0.7,3.5,1.3c0.267-1.433,0.783-2.866,1.55-4.3c1.533-2.9,3.567-4.35,6.1-4.35
		c4.6,0,7.816,1.5,9.65,4.5c0.9,1.5,1.35,3,1.35,4.5l2.4,0.1c1.9,0.434,3.55,1.617,4.95,3.55c1.367,1.934,1.883,4.233,1.55,6.9
		c-0.167,1.366-0.467,2.517-0.9,3.45l1.8,0.2c1.4,0.433,2.583,1.483,3.55,3.149c0.966,1.667,0.867,3.667-0.3,6
		c-0.6,1.167-1.283,2.167-2.05,3l2.85,0.7c1.966,0.934,3.017,2.583,3.15,4.95c0.133,2.366-0.383,4.8-1.55,7.3
		c-0.566,1.267-1.167,2.283-1.8,3.05l2.5,1.2c1.733,1.267,2.8,3.083,3.2,5.45c0.433,2.366-0.217,5.066-1.95,8.1
		c-0.867,1.533-1.783,2.834-2.75,3.9l2.55,1.6c1.733,1.533,2.667,3.55,2.8,6.05s-0.817,4.584-2.85,6.25
		c-1.033,0.834-2.083,1.417-3.15,1.75l3.35,3.351c1.867,2.666,1.966,5.116,0.3,7.35c-1.133,1.533-3.15,1.601-6.05,0.2l-3.95-2.55
		l-0.65,2.7c-0.9,1.833-2.45,2.816-4.65,2.949c-2.233,0.134-4.184-0.649-5.85-2.35l-1.85-2.65l-1.5,2.95
		c-1.433,1.967-3.267,2.884-5.5,2.75c-2.2-0.133-4.083-1.3-5.65-3.5l-1.65-3.2l-2.05,3.101c-1.833,2-3.933,2.866-6.3,2.6
		c-2.367-0.3-3.9-1.283-4.6-2.95l-0.4-2.399l-1.25,3.149c-1.233,2.034-2.817,2.983-4.75,2.851c-1.934-0.134-3.783-1.184-5.55-3.15
		l-2.1-2.85l-2.1,3.399c-1.833,2.167-3.8,3.034-5.9,2.601c-2.067-0.4-3.75-1.584-5.05-3.55l-1.3-2.801
		c-1.733,1.134-3.583,2.017-5.55,2.65c-3.933,1.267-6.533,0.717-7.8-1.65c-1.233-2.366-0.817-4.616,1.25-6.75l3.45-2.55
		c-0.6-0.267-1.1-0.8-1.5-1.6c-0.8-1.566-0.633-3.601,0.5-6.101c1.1-2.5,2.483-4.183,4.15-5.05l2.15-0.6
		c-0.6-0.934-1.1-2.033-1.5-3.3c-0.767-2.567-0.6-4.684,0.5-6.351c1.133-1.666,2.917-2.783,5.35-3.35
		c1.233-0.267,2.35-0.384,3.35-0.351c-0.9-0.533-1.684-1.283-2.35-2.25c-1.333-1.933-1.45-3.949-0.35-6.05
		c1.133-2.066,2.75-3.583,4.85-4.55c1.066-0.467,2.017-0.733,2.85-0.8c-0.6-0.601-1.067-1.417-1.4-2.45
		c-0.6-2.033-0.133-4.1,1.4-6.2c1.533-2.066,3.483-3.3,5.85-3.7c1.2-0.199,2.25-0.199,3.15,0
		C99.217,199.35,98.667,198.184,98.3,196.85z"/>
	<path style="fill-rule:evenodd;clip-rule:evenodd;fill:#448793;" d="M154.25,260.05l-80-1c4.667-13.166,10.5-26.45,17.5-39.85
		c14-26.834,26.833-40.884,38.5-42.15c11.667-1.233,19.167,12.233,22.5,40.4C154.417,231.517,154.917,245.717,154.25,260.05z"/>
	<path style="fill-rule:evenodd;clip-rule:evenodd;fill:#AB8441;" d="M186.75,196.05c0.8-0.033,1.467,0.066,2,0.3
		c-0.333-0.666-0.517-1.466-0.55-2.399c-0.133-1.8,0.466-3.267,1.8-4.4c1.367-1.133,2.983-1.399,4.85-0.8
		c0.933,0.333,1.733,0.767,2.4,1.3c-0.267-0.767-0.3-1.566-0.1-2.399c0.4-1.667,1.767-2.601,4.1-2.801
		c1.533-0.133,2.75,0.617,3.65,2.25c0.434,0.801,0.717,1.617,0.85,2.45l1.65-2c1.333-1.2,2.617-1.45,3.85-0.75
		c1.267,0.7,1.767,1.983,1.5,3.851c-0.133,0.966-0.383,1.85-0.75,2.649l1.65-1.35c1.333-0.733,2.483-0.65,3.45,0.25
		c0.967,0.899,1.367,2.5,1.2,4.8c-0.066,1.167-0.25,2.233-0.55,3.2l1.35-0.8c1.1-0.233,2.217,0.416,3.35,1.949
		c1.1,1.534,1.316,3.384,0.65,5.551c-0.333,1.1-0.783,2.033-1.35,2.8l1.75-0.15c1.3,0.3,2.217,1.351,2.75,3.15
		c0.567,1.8,0.35,3.7-0.65,5.7c-0.5,1-1.05,1.816-1.65,2.449l1.65,0.051c1.233,0.3,2.117,1.183,2.65,2.649
		c0.567,1.467,0.55,3.233-0.05,5.3c-0.3,1.067-0.667,1.967-1.1,2.7l2.05,1c1.367,0.967,2.017,2.233,1.95,3.8
		c-0.067,1.601-0.7,2.917-1.9,3.95c-0.567,0.5-1.15,0.851-1.75,1.05l2.25,0.45c1.566,0.601,2.533,1.733,2.9,3.4
		c0.367,1.666-0.117,3.233-1.45,4.7c-0.633,0.699-1.316,1.25-2.05,1.649l1.8,1.15c1.167,1.066,1.684,2.283,1.55,3.649
		c-0.133,1.4-0.8,2.267-2,2.601l-1.7,0.1l0.9,2.65c0.267,1.866-0.467,3.033-2.2,3.5c-1.733,0.467-3.45,0.133-5.15-1l-2.05-1.851
		l-1.15,1.75c-1.133,1.167-2.583,1.75-4.35,1.75c-1.733,0-3.25-0.466-4.55-1.399l-1.45-1.4l-1.15,1.5
		c-1.133,1.033-2.633,1.584-4.5,1.65s-3.267-0.467-4.2-1.601l-0.8-1.75l-1.25,1.851c-1.2,1.233-2.667,1.85-4.4,1.85
		c-1.733,0-3-0.616-3.8-1.85l-0.7-1.851l-1.8,2.351c-1.5,1.6-2.9,2.434-4.2,2.5c-1.333,0.066-2.617-0.667-3.85-2.2l-1.5-2.3
		l-2.5,2.75c-2.067,1.633-4.067,2-6,1.1c-1.934-0.899-2.233-2.783-0.9-5.649l2.55-4.051c-0.567,0.034-1.133-0.116-1.7-0.449
		c-1.1-0.667-1.583-1.9-1.45-3.7s0.85-3.316,2.15-4.55l1.85-1.301c-0.633-0.333-1.217-0.833-1.75-1.5c-1.1-1.333-1.4-2.833-0.9-4.5
		c0.466-1.666,1.45-2.767,2.95-3.3c0.733-0.3,1.417-0.416,2.05-0.35c-0.733-0.367-1.434-0.9-2.1-1.601
		c-1.333-1.466-1.8-3.1-1.4-4.899c0.433-1.8,1.533-3.233,3.3-4.3l2.5-1.051c-0.567-0.166-1.1-0.533-1.6-1.1
		c-0.967-1.1-1.2-2.616-0.7-4.55c0.466-1.967,1.466-3.367,3-4.2l2.15-0.65c-0.567-0.566-1.083-1.267-1.55-2.1
		c-0.933-1.667-1.083-3.134-0.45-4.4c0.633-1.233,1.767-2.149,3.4-2.75c0.8-0.3,1.55-0.483,2.25-0.55
		c-0.533-0.6-0.917-1.366-1.15-2.3c-0.467-1.8,0.033-3.434,1.5-4.9C183.567,196.884,185.117,196.116,186.75,196.05z"/>
	<path style="fill-rule:evenodd;clip-rule:evenodd;fill:#448793;" d="M171.25,261.05c0.667-10.833,2.383-21.833,5.15-33
		c5.5-22.333,13.45-34.333,23.85-36c10.433-1.666,18.067,9.334,22.9,33c2.4,11.834,3.767,23.834,4.1,36H171.25z"/>
	<path style="fill-rule:evenodd;clip-rule:evenodd;fill:#293F4D;" d="M140.35,188.15c2.933,4.1,5.233,10.233,6.9,18.399
		c1.267,6.134,2.017,15.983,2.25,29.55c0.133,6.767,0.133,12.917,0,18.45L83,253.8c2.1-5.566,4.617-11.833,7.55-18.8
		c5.867-13.934,10.934-24.333,15.2-31.2c4.667-7.533,9.5-13.116,14.5-16.75c4.033-2.899,7.817-4.35,11.35-4.35
		C134.833,182.7,137.75,184.517,140.35,188.15z"/>
	<path style="fill-rule:evenodd;clip-rule:evenodd;fill:#293F4D;" d="M217.95,220.05c1.533,7.767,2.867,20.033,4,36.8l-43.85-0.3
		c0.1-3.633,0.433-7.916,1-12.85c1.1-9.834,2.767-17.95,5-24.351c2.566-7.3,5.55-12.833,8.95-16.6c3.067-3.434,6.2-5.116,9.4-5.05
		c3,0.066,6.033,2.35,9.1,6.85C214.65,209.017,216.783,214.184,217.95,220.05z"/>
	<path style="fill-rule:evenodd;clip-rule:evenodd;fill:#293F4D;" d="M481.65,195.1c4.399,3.367,8.183,8.351,11.35,14.95
		c2.7,5.634,5.934,17.033,9.7,34.2c1.866,8.566,3.467,16.583,4.8,24.05l-55.75-1.25c-0.667-5.033-1.233-10.767-1.7-17.2
		c-0.899-12.833-0.833-22.683,0.2-29.55c1.267-8.3,3.6-15.184,7-20.649c3.434-5.534,7.267-8.483,11.5-8.851
		C473.116,190.4,477.417,191.833,481.65,195.1z"/>
	<path style="fill-rule:evenodd;clip-rule:evenodd;fill:#293F4D;" d="M583.25,228.05c2.8,5.733,6.1,13.917,9.9,24.55
		c1.899,5.301,3.517,10.034,4.85,14.2l-54-1.25c-0.7-5.5-1.35-11.517-1.95-18.05c-1.166-13.1-1.434-22.25-0.8-27.45
		c0.8-6.533,2.417-11.717,4.85-15.55c2.634-4.1,5.934-6.083,9.9-5.95c3.9,0.134,8.634,3.367,14.2,9.7
		C575.233,213.983,579.583,220.583,583.25,228.05z"/>
	<g>
		<path style="fill-rule:evenodd;clip-rule:evenodd;fill:#325F73;" d="M594.75,125.05c10.467,1.1,19.533,2.2,27.2,3.3
			c-12.334-0.767-26.634-1.367-42.9-1.8c-32.566-0.9-58.717-0.517-78.45,1.15c-19.733,1.667-42.767,3.733-69.1,6.2l-33.55,3.15
			c-0.9-1.633-2.483-3.383-4.75-5.25c3.8,0.1,7.149,0.067,10.05-0.1c6.233-0.367,29.566-2.284,70-5.75
			c32.967-2.833,55.967-4.25,69-4.25C556.283,121.7,573.783,122.817,594.75,125.05z"/>
		<path style="fill-rule:evenodd;clip-rule:evenodd;fill:#325F73;" d="M340.55,128.45c-3.066,1.5-5.417,3.267-7.05,5.3l-1.55,2.6
			l-118-8l-5.35-10l-50-6.65l-8.65,10.65l-89.7-16.3l8.6-15.6c64.467,11.667,104.383,18.633,119.75,20.9
			c12.167,1.8,32.8,4.383,61.9,7.75C284.633,123.067,314.65,126.183,340.55,128.45z"/>
	</g>
	<path style="fill-rule:evenodd;clip-rule:evenodd;fill:#8FB3BC;" d="M130.6,185.85c2.3-0.166,4.683,1.184,7.15,4.051
		c2.633,3.1,4.583,7.149,5.85,12.149c0.967,3.767,1.617,8,1.95,12.7c0.167,2.366,0.233,4.35,0.2,5.95
		c-0.133-0.667-0.35-1.367-0.65-2.101c-0.6-1.433-1.267-2.233-2-2.399c-0.9-0.2-1.783,0.649-2.65,2.55c-0.4,0.967-0.733,1.95-1,2.95
		c0.3-1.4,0.55-3.167,0.75-5.3c0.466-4.267,0.55-8.167,0.25-11.7c-0.5-5.9-2.284-10.816-5.35-14.75c-0.967-1.2-2.017-2.25-3.15-3.15
		L130.6,185.85z"/>
	<path style="fill-rule:evenodd;clip-rule:evenodd;fill:#8FB3BC;" d="M204.65,202.45l-3.05-1.9l2.95,0.8
		c2.3,1.134,4.317,3.2,6.05,6.2c1.733,2.967,3.283,7.717,4.65,14.25c0.667,3.267,1.167,6.233,1.5,8.9
		c-0.533,0.233-1.117,0.399-1.75,0.5c-1.2,0.233-1.95,0.066-2.25-0.5c-0.1-0.2-0.367-3.283-0.8-9.25c-0.4-6-1.017-9.917-1.85-11.75
		C208.8,206.733,206.983,204.316,204.65,202.45z"/>
	<path style="fill-rule:evenodd;clip-rule:evenodd;fill:#8FB3BC;" d="M471.75,195.35l1.4,0.301c1.166,0.333,2.383,0.866,3.649,1.6
		c4.066,2.267,7.834,5.967,11.3,11.1c2.434,3.567,4.334,8.884,5.7,15.95c0.667,3.533,1.101,6.717,1.3,9.55l-7,0.351
		c0.134-1.367,0.117-3.25-0.05-5.65c-0.366-4.767-1.3-9.717-2.8-14.85c-1.866-6.467-4.684-11.467-8.45-15
		c-1.166-1.101-2.35-1.983-3.55-2.65L471.75,195.35z"/>
	<path style="fill-rule:evenodd;clip-rule:evenodd;fill:#8FB3BC;" d="M569.95,212.35c2.2,2.634,4.399,6.15,6.6,10.551
		c1.134,2.199,2.033,4.133,2.7,5.8l-5.8,1.149c0.1-0.566-0.033-1.517-0.4-2.85c-0.666-2.667-2.1-5.934-4.3-9.8
		c-2.9-5.2-6.184-9.283-9.85-12.25l-4.65-2.9l4.6,1.3C562.616,205.05,566.316,208.05,569.95,212.35z"/>
	<g>
		<polygon style="fill-rule:evenodd;clip-rule:evenodd;fill:#E0CCA6;" points="669.15,138.8 669.25,140.3 617.6,140.35 
			617.6,138.95 		"/>
		<polygon style="fill-rule:evenodd;clip-rule:evenodd;fill:#E0CCA6;" points="681.45,172.75 681.05,174.25 618.85,172.1 
			618.8,170.65 		"/>
		<polygon style="fill-rule:evenodd;clip-rule:evenodd;fill:#E0CCA6;" points="674.7,199.05 674.3,200.55 608,203.2 607.35,201.75 
					"/>
		<polygon style="fill-rule:evenodd;clip-rule:evenodd;fill:#E0CCA6;" points="653.5,261.3 653.15,259.8 705.2,250.65 705.7,252.1 
					"/>
		<polygon style="fill-rule:evenodd;clip-rule:evenodd;fill:#E0CCA6;" points="696.85,225.65 697.35,227.1 622.85,234.6 
			622.2,233.15 		"/>
		<polygon style="fill-rule:evenodd;clip-rule:evenodd;fill:#E0CCA6;" points="693.55,320.55 692.65,319.05 736,300.55 
			737.15,301.7 		"/>
		<polygon style="fill-rule:evenodd;clip-rule:evenodd;fill:#E0CCA6;" points="679.25,296.3 678.35,294.85 715.5,280 716.7,281.2 		
			"/>
	</g>
	<g>
		<g>
			<path style="fill-rule:evenodd;clip-rule:evenodd;fill:#325F73;" d="M112.2,76.7l-0.85,2.05c-0.367,1.533-0.017,2.733,1.05,3.6
				c0.934,0.8,2.184,0.566,3.75-0.7c0.767-0.667,1.467-1.4,2.1-2.2c0.367,0.367-0.017,1.283-1.15,2.75c-1.2,1.633-2.75,2-4.65,1.1
				c-2.167-0.8-2.867-2.15-2.1-4.05C111.55,77.55,112.167,76.7,112.2,76.7z"/>
		</g>
	</g>
	<g>
		<g>
			<path style="fill-rule:evenodd;clip-rule:evenodd;fill:#325F73;" d="M149.25,89.75c0.033,0-0.317,1.167-1.05,3.5
				c-0.333,2.533,0.566,4.35,2.7,5.45c4.133,1.7,6.167-0.9,6.1-7.8l0.6,1.4c0.5,1.2,0.85,2.267,1.05,3.2
				c0.4,1.3-0.05,2.483-1.35,3.55c-1.466,1.2-3.433,1.583-5.9,1.15c-4.167-0.833-5.75-2.817-4.75-5.95
				c0.3-0.967,0.85-2.017,1.65-3.15C148.667,90.567,148.983,90.117,149.25,89.75z"/>
		</g>
	</g>
	<g>
		<g>
			<path style="fill-rule:evenodd;clip-rule:evenodd;fill:#325F73;" d="M91.4,63.35c-0.1,1.367,0.434,2.3,1.6,2.8
				c1.2,0.467,2.167-0.083,2.9-1.65c0.367-0.767,0.617-1.583,0.75-2.45l0.25,2.55c-0.233,1.667-1.433,2.433-3.6,2.3
				c-2.233-0.3-3.117-1.283-2.65-2.95c0.757-1.426,1.157-2.226,1.2-2.4C91.834,61.697,91.685,62.297,91.4,63.35z"/>
		</g>
	</g>
	<g>
		<g>
			<path style="fill-rule:evenodd;clip-rule:evenodd;fill:#325F73;" d="M89.9,89.55c-0.233,1.034-1.117,1.267-2.65,0.7
				c-1.2-0.633-1.517-1.383-0.95-2.25c0.599-0.551,0.974-0.91,1.125-1.075L86.85,87.8c-0.333,0.767-0.217,1.417,0.35,1.95
				c1.125,0.927,2,0.327,2.625-1.8C89.821,88.101,89.846,88.634,89.9,89.55z"/>
		</g>
	</g>
	<g>
		<g>
			<path style="fill-rule:evenodd;clip-rule:evenodd;fill:#325F73;" d="M107.25,65.05c0.033,0.034-0.15,0.217-0.55,0.55
				c-0.333,0.433-0.3,0.867,0.1,1.3c0.822,0.658,1.389,0.291,1.7-1.1c-0.006,0.132,0.027,0.466,0.1,1
				c-0.133,0.7-0.733,0.867-1.8,0.5c-0.867-0.6-1.033-1.15-0.5-1.65C106.567,65.417,106.883,65.217,107.25,65.05z"/>
		</g>
	</g>
	<g>
		<g>
			<path style="fill-rule:evenodd;clip-rule:evenodd;fill:#325F73;" d="M98.3,76c-0.239-0.553-0.338-0.819-0.3-0.8
				C98.291,75.034,98.391,75.3,98.3,76z M97.9,77.75c0.201-0.74,0.334-1.323,0.4-1.75c0.16,0.403,0.394,0.953,0.7,1.65
				c0.233,1.7-0.95,2.617-3.55,2.75c-2.1-0.133-3.034-1.066-2.8-2.8l0.95-2.5L93.3,77c0.067,1.333,0.667,2.217,1.8,2.65
				C96.5,80.05,97.433,79.417,97.9,77.75z"/>
		</g>
	</g>
	<g>
		<g>
			<path style="fill-rule:evenodd;clip-rule:evenodd;fill:#325F73;" d="M120.25,91.05l-0.6,2.45c-0.1,1.767,0.55,3.017,1.95,3.75
				c1.433,0.7,2.75,0.083,3.95-1.85c0.6-0.967,1.05-2,1.35-3.1l-0.05,3.35c-0.567,2.167-2.217,3.033-4.95,2.6
				c-2.7-0.467-3.783-1.8-3.25-4L120.25,91.05z"/>
		</g>
	</g>
	<g>
		<g>
			<path style="fill-rule:evenodd;clip-rule:evenodd;fill:#325F73;" d="M129,78.85c0.233-1.1,0.683-2.267,1.35-3.5
				c0.533-1.033,0.867-1.55,1-1.55c-0.033,0-0.317,1.284-0.85,3.85c-0.067,2.767,0.983,4.7,3.15,5.8c2.133,1.1,4.184,0.167,6.15-2.8
				c0.967-1.467,1.717-3.05,2.25-4.75c0.067,0,0.117,0.567,0.15,1.7c0.033,1.333-0.1,2.517-0.4,3.55c-1.033,3.367-3.6,4.667-7.7,3.9
				C130.033,84.417,128.333,82.35,129,78.85z"/>
		</g>
	</g>
	<g>
		<g>
			<path style="fill-rule:evenodd;clip-rule:evenodd;fill:#325F73;" d="M172.9,87.25c0.167,1.3,0.9,2.05,2.2,2.25
				c1.3,0.1,2.05-0.683,2.25-2.35l-0.05-2.475c0.034,0.124,0.384,0.882,1.05,2.275c0.3,1.6-0.617,2.667-2.75,3.2
				c-2.367,0.233-3.483-0.5-3.35-2.2c0.464-1.342,0.706-2.159,0.725-2.45C173,85.737,172.976,86.321,172.9,87.25z"/>
		</g>
	</g>
	<g>
		<g>
			<path style="fill-rule:evenodd;clip-rule:evenodd;fill:#325F73;" d="M223.6,109.975c-0.238-0.536-0.338-0.794-0.3-0.775
				C223.566,109.016,223.666,109.274,223.6,109.975z M223.25,111.8c0.18-0.786,0.297-1.394,0.35-1.825
				c0.168,0.396,0.418,0.955,0.75,1.675c0.267,1.7-0.9,2.667-3.5,2.9c-2.367-0.233-3.333-1.216-2.9-2.95
				c0.704-1.278,1.104-2.053,1.2-2.325c-0.041,0.229-0.174,0.821-0.4,1.775c-0.1,1.367,0.467,2.284,1.7,2.75
				C221.917,114.167,222.85,113.5,223.25,111.8z"/>
		</g>
	</g>
	<g>
		<g>
			<path style="fill-rule:evenodd;clip-rule:evenodd;fill:#325F73;" d="M206.05,90.85l-0.25,2.3c0.1,1.6,0.833,2.65,2.2,3.15
				c1.367,0.467,2.483-0.233,3.35-2.1c0.433-0.934,0.733-1.917,0.9-2.95l0.3,3.05c-0.3,2.034-1.683,3-4.15,2.9
				c-2.5-0.1-3.633-1.184-3.4-3.25L206.05,90.85z"/>
		</g>
	</g>
	<g>
		<g>
			<path style="fill-rule:evenodd;clip-rule:evenodd;fill:#325F73;" d="M188.975,101.475c0.119,0.366,0.46,1.208,1.025,2.525
				c0.233,1.9-1.1,2.933-4,3.1c-2.767-0.5-3.783-1.65-3.05-3.45c0.873-1.226,1.397-2.018,1.575-2.375
				c-0.094,0.295-0.319,0.887-0.675,1.775c-0.233,1.5,0.35,2.567,1.75,3.2c1.667,0.467,2.733-0.25,3.2-2.15
				C188.918,102.725,188.977,101.85,188.975,101.475z"/>
		</g>
	</g>
	<g>
		<g>
			<path style="fill-rule:evenodd;clip-rule:evenodd;fill:#325F73;" d="M271.8,98.25c0.039-0.536,0.047-0.911,0.025-1.125
				L272.3,98.2c0.4,1.066,0.617,2.05,0.65,2.95c0.066,2.867-1.9,4.317-5.9,4.35c-3.466-0.2-5.033-1.733-4.7-4.6l1.55-4.3l-0.4,3.2
				c0.1,2.267,1.1,3.75,3,4.45c2.2,0.7,3.767-0.333,4.7-3.1C271.5,100.25,271.7,99.283,271.8,98.25z"/>
		</g>
	</g>
	<g>
		<g>
			<path style="fill-rule:evenodd;clip-rule:evenodd;fill:#325F73;" d="M284,115.7c0.967,0.333,1.617-0.034,1.95-1.1
				c0.094-0.799,0.144-1.307,0.15-1.525c0.063,0.213,0.247,0.705,0.55,1.475c0.1,1.1-0.717,1.65-2.45,1.65
				c-1.667-0.5-2.2-1.233-1.6-2.2c0.603-0.58,0.978-0.972,1.125-1.175c-0.087,0.171-0.262,0.479-0.525,0.925
				C282.933,114.583,283.2,115.233,284,115.7z"/>
		</g>
	</g>
	<g>
		<g>
			<path style="fill-rule:evenodd;clip-rule:evenodd;fill:#325F73;" d="M291.15,99.8c0.367,1.3,1.083,2.083,2.15,2.35
				c2.028,0.499,2.928-1.043,2.7-4.625c0.04,0.167,0.357,0.992,0.95,2.475c0.233,1.7-0.85,2.667-3.25,2.9
				c-1.767,0.167-2.784-0.6-3.05-2.3c-0.267-1.667-0.15-2.567,0.35-2.7C290.8,98,290.85,98.633,291.15,99.8z"/>
		</g>
	</g>
	<g>
		<g>
			<path style="fill-rule:evenodd;clip-rule:evenodd;fill:#325F73;" d="M382.3,107.8c-1.467-0.033-2.133-0.65-2-1.85
				c0.4-1.167,0.584-1.75,0.55-1.75c0.034,0,0,0.433-0.1,1.3c0.066,0.933,0.5,1.517,1.3,1.75c0.9,0.2,1.517-0.25,1.851-1.35
				c0.147-1.032,0.214-1.606,0.199-1.725l0.551,1.675C384.684,107.017,383.9,107.667,382.3,107.8z"/>
		</g>
	</g>
	<g>
		<g>
			<path style="fill-rule:evenodd;clip-rule:evenodd;fill:#325F73;" d="M365.55,110.55l-0.25,1.8c0.067,1.267,0.633,2.1,1.7,2.5
				c2.084,0.628,2.984-0.747,2.7-4.125c0.075,0.233,0.391,0.975,0.95,2.225c0.233,1.633-0.883,2.517-3.35,2.65
				c-1.966-0.133-2.85-1.017-2.65-2.65L365.55,110.55z"/>
		</g>
	</g>
	<g>
		<g>
			<path style="fill-rule:evenodd;clip-rule:evenodd;fill:#325F73;" d="M353,106.15c0.167,1-0.433,1.633-1.8,1.9
				c-1.367,0.1-2-0.367-1.9-1.4c0.287-0.807,0.445-1.298,0.475-1.475c-0.009,0.141-0.051,0.482-0.125,1.025
				c0.1,0.8,0.517,1.267,1.25,1.4c0.833,0.1,1.333-0.333,1.5-1.3c0-0.871-0.017-1.363-0.05-1.475L353,106.15z"/>
		</g>
	</g>
	<g>
		<g>
			<path style="fill-rule:evenodd;clip-rule:evenodd;fill:#325F73;" d="M348.1,117l-0.1,1c0.033,0.7,0.35,1.15,0.95,1.35
				c0.6,0.2,1.083-0.1,1.45-0.9c0.2-0.4,0.333-0.833,0.4-1.3l0.15,1.35c-0.133,0.867-0.75,1.283-1.85,1.25
				c-1.067-0.067-1.55-0.55-1.45-1.45L348.1,117z"/>
		</g>
	</g>
	<g>
		<g>
			<path style="fill-rule:evenodd;clip-rule:evenodd;fill:#325F73;" d="M233.175,96.6c0.01,0.316-0.031,1-0.125,2.05
				c0.167,1.567,1.017,2.467,2.55,2.7c1.9,0.033,2.783-0.967,2.65-3c-0.033-0.667-0.167-1.35-0.4-2.05
				c-0.051-0.162-0.101-0.303-0.15-0.425c0.32,0.379,0.903,1.021,1.75,1.925c0.9,1.833-0.167,3.284-3.2,4.35
				c-2.867,0.233-4.2-0.667-4-2.7C232.81,97.941,233.118,96.991,233.175,96.6z"/>
		</g>
	</g>
	<g>
		<g>
			<path style="fill-rule:evenodd;clip-rule:evenodd;fill:#325F73;" d="M327.9,113.15c0.727-1.289,1.21-2.689,1.45-4.2
				c0.006,0.123,0.089,0.573,0.25,1.35c0.2,1.233,0.233,2.284,0.1,3.15c-0.5,3-2.85,4.117-7.05,3.35c-3.7-1.1-4.967-3.066-3.8-5.9
				c1.73-2.409,2.63-3.701,2.7-3.875c-0.038,0.154-0.455,1.179-1.25,3.075c-0.5,2.333,0.184,4.1,2.05,5.3
				C324.517,116.567,326.367,115.817,327.9,113.15z"/>
		</g>
	</g>
	<g>
		<g>
			<path style="fill-rule:evenodd;clip-rule:evenodd;fill:#325F73;" d="M432.65,118.9c0.1-1.333,0-2.7-0.301-4.1
				c-0.103-0.561-0.203-0.986-0.3-1.275c0.198,0.251,0.481,0.61,0.851,1.075c0.899,1.233,1.583,2.383,2.05,3.45
				c0.7,1.567,0.566,3.067-0.4,4.5c-1.2,1.8-3.45,2.883-6.75,3.25c-1.767,0.133-3.333-0.066-4.7-0.6c-1.267-0.5-2.183-1.2-2.75-2.1
				c-0.733-1.233-0.55-2.633,0.551-4.2c1.366-1.6,2.416-3.3,3.149-5.1c0.267,0-0.2,1.417-1.399,4.25
				c-0.601,3.067,0.75,5.117,4.05,6.15C430.366,124.633,432.35,122.867,432.65,118.9z"/>
		</g>
	</g>
	<g>
		<g>
			<path style="fill-rule:evenodd;clip-rule:evenodd;fill:#325F73;" d="M400.35,117.85l-0.149,1.2
				c0.066,0.867,0.45,1.417,1.149,1.65c0.733,0.267,1.334-0.1,1.801-1.1c0.233-0.5,0.383-1.017,0.449-1.55l0.15,1.6
				c-0.167,1.067-0.9,1.583-2.2,1.55c-1.3-0.067-1.883-0.65-1.75-1.75L400.35,117.85z"/>
		</g>
	</g>
	<g>
		<g>
			<path style="fill-rule:evenodd;clip-rule:evenodd;fill:#325F73;" d="M416.15,104.3c1,0.167,1.633-0.35,1.899-1.55
				c0.106-0.521,0.173-0.929,0.2-1.225c0.129,0.278,0.313,0.67,0.55,1.175c0.2,1.2-0.583,1.917-2.35,2.15
				c-1.566-0.033-2.283-0.667-2.15-1.9c0.348-0.99,0.548-1.582,0.601-1.775l-0.15,1.325
				C414.816,103.467,415.283,104.067,416.15,104.3z"/>
		</g>
	</g>
	<g>
		<g>
			<path style="fill-rule:evenodd;clip-rule:evenodd;fill:#325F73;" d="M467.3,112.35c0.134,1.1,0.767,1.733,1.9,1.9
				c1.267-0.067,1.866-0.817,1.8-2.25c-0.189-0.969-0.322-1.585-0.4-1.85c0.157,0.236,0.574,0.753,1.25,1.55
				c0.567,1.3-0.166,2.333-2.199,3.1c-2.067,0.233-3.034-0.383-2.9-1.85c0.398-1.096,0.606-1.779,0.625-2.05
				C467.396,111.117,467.37,111.6,467.3,112.35z"/>
		</g>
	</g>
	<g>
		<g>
			<path style="fill-rule:evenodd;clip-rule:evenodd;fill:#325F73;" d="M457.55,104.6c0.267-0.533,0.434-1.117,0.5-1.75l0.2,1.85
				c-0.167,1.2-1.066,1.733-2.7,1.6c-1.7-0.4-2.283-1.183-1.75-2.35c0.555-0.688,0.904-1.154,1.05-1.4
				c-0.08,0.202-0.23,0.552-0.449,1.05c-0.2,0.933,0.116,1.633,0.949,2.1C456.25,106.067,456.983,105.7,457.55,104.6z"/>
		</g>
	</g>
	<g>
		<g>
			<path style="fill-rule:evenodd;clip-rule:evenodd;fill:#325F73;" d="M511.7,114.2c0.366,1.2,0.55,2.3,0.55,3.3
				c-0.066,3.233-2.116,4.967-6.15,5.2c-4.199,0.033-6.133-1.583-5.8-4.85c0.101-0.967,0.417-2.083,0.95-3.35
				c0.467-1.033,0.684-1.55,0.65-1.55c0.033,0-0.067,1.2-0.301,3.6c0.2,2.534,1.434,4.117,3.7,4.75c2.334,0.6,4.017-0.65,5.05-3.75
				c0.567-3.2,0.834-4.8,0.801-4.8L511.7,114.2z"/>
		</g>
	</g>
	<g>
		<g>
			<path style="fill-rule:evenodd;clip-rule:evenodd;fill:#325F73;" d="M507.1,96.45c0.301,0.833,0.817,1.283,1.551,1.35
				c0.8,0.1,1.3-0.4,1.5-1.5c0.029-0.965,0.029-1.506,0-1.625l0.649,1.475c0.167,1.1-0.467,1.8-1.899,2.1
				c-1.2,0.233-1.917-0.183-2.15-1.25c-0.2-1.033-0.167-1.617,0.1-1.75L507.1,96.45z"/>
		</g>
	</g>
	<g>
		<g>
			<path style="fill-rule:evenodd;clip-rule:evenodd;fill:#325F73;" d="M487.6,101.3c0.193,0.245,0.46,0.562,0.801,0.95
				c0.5,1.167-0.317,2-2.45,2.5c-2-0.3-2.733-1.05-2.2-2.25c0.582-0.733,0.94-1.233,1.075-1.5c-0.063,0.224-0.204,0.607-0.425,1.15
				c-0.2,0.967,0.199,1.65,1.199,2.05c1.334,0.167,2-0.4,2-1.7C487.608,102.014,487.608,101.614,487.6,101.3
				c-0.351-0.433-0.484-0.65-0.399-0.65C487.422,100.182,487.556,100.398,487.6,101.3z"/>
		</g>
	</g>
	<g>
		<g>
			<path style="fill-rule:evenodd;clip-rule:evenodd;fill:#325F73;" d="M457,119.7c-0.167,0.167,0,0.667,0.5,1.5
				c0.566,0.933,1.267,1.433,2.1,1.5c1.434,0.2,2.101-1.133,2-4l0.7,2.05c0.101,1.4-0.684,2.233-2.35,2.5
				c-1.167,0.367-2.05-0.067-2.65-1.3C456.733,120.75,456.634,120,457,119.7z"/>
		</g>
	</g>
	<g>
		<g>
			<path style="fill-rule:evenodd;clip-rule:evenodd;fill:#325F73;" d="M541.4,84.7l0.3,4.7c0.767,3.233,2.6,5.117,5.5,5.65
				c3.2,0.5,5.233-1.35,6.1-5.55c0.204-3.699,0.279-5.765,0.226-6.2c0.099,0.201,0.406,0.768,0.925,1.7
				c0.767,1.5,1.233,2.883,1.399,4.15c0.534,4.2-1.983,6.75-7.55,7.65c-5,0.6-7.666-1.233-8-5.5c-0.1-1.367,0.033-2.867,0.4-4.5
				C541.033,85.433,541.267,84.733,541.4,84.7z"/>
		</g>
	</g>
	<g>
		<g>
			<path style="fill-rule:evenodd;clip-rule:evenodd;fill:#325F73;" d="M568.5,109.6c-0.065,0.36-0.182,0.91-0.35,1.65
				c-0.067,1.567,0.716,2.517,2.35,2.85c1.767,0.033,2.684-0.934,2.75-2.9l-0.425-2.8c0.114,0.263,0.639,1.063,1.575,2.4
				c0.633,1.867-0.45,3.217-3.25,4.05c-3.134,0.033-4.434-0.934-3.9-2.9C567.896,110.849,568.313,110.065,568.5,109.6z"/>
		</g>
	</g>
	<g>
		<g>
			<path style="fill-rule:evenodd;clip-rule:evenodd;fill:#325F73;" d="M538.55,109.2c0.014,0.135-0.036,0.685-0.149,1.65
				c0.066,1.2,0.649,1.95,1.75,2.25c2.239,0.296,2.864-1.087,1.875-4.15c0.149,0.244,0.608,0.86,1.375,1.85
				c0.566,1.434-0.384,2.417-2.851,2.95c-2.033,0.033-2.967-0.733-2.8-2.3C538.273,110.112,538.54,109.362,538.55,109.2z"/>
		</g>
	</g>
	<g>
		<g>
			<path style="fill-rule:evenodd;clip-rule:evenodd;fill:#325F73;" d="M603.9,69.65c0,0.033,0.283,0.533,0.85,1.5
				c0.6,1.167,0.983,2.283,1.15,3.35c0.533,3.367-1.317,5.667-5.551,6.9c-3.1,0.567-5.283,0.15-6.55-1.25
				c-1.033-1.167-1.184-2.433-0.45-3.8l1.95-4.95c0.2-0.066,0.017,1.217-0.55,3.85c-0.033,2.8,1.45,4.417,4.45,4.85
				c2.767,0.033,4.333-1.7,4.7-5.2C603.767,71.433,603.767,69.683,603.9,69.65z"/>
		</g>
	</g>
	<g>
		<g>
			<path style="fill-rule:evenodd;clip-rule:evenodd;fill:#325F73;" d="M613.325,113.4c0.119,0.197,0.478,0.631,1.075,1.3
				c0.466,1.066-0.25,1.85-2.15,2.35c-1.8-0.3-2.467-0.983-2-2.05c0.518-0.622,0.843-1.046,0.975-1.275
				c-0.061,0.182-0.186,0.49-0.375,0.925c-0.199,0.9,0.15,1.533,1.051,1.9c1.233,0.133,1.833-0.4,1.8-1.6L613.325,113.4z"/>
		</g>
	</g>
	<g>
		<g>
			<path style="fill-rule:evenodd;clip-rule:evenodd;fill:#325F73;" d="M608.8,94.9l0.25,1.1c0.267,0.7,0.75,1.05,1.45,1.05
				c0.566,0.067,0.983-0.367,1.25-1.3c0.167-0.967,0.267-1.467,0.3-1.5c0.533,1.833,0.117,2.883-1.25,3.15
				c-1.133,0.367-1.816,0.05-2.05-0.95L608.8,94.9z"/>
		</g>
	</g>
	<g>
		<g>
			<path style="fill-rule:evenodd;clip-rule:evenodd;fill:#325F73;" d="M575.5,93l-0.3,2.55c0.1,1.8,0.916,2.967,2.45,3.5
				c1.533,0.534,2.767-0.233,3.699-2.3c0.5-1.033,0.834-2.133,1-3.3l0.351,3.4c-0.3,2.267-1.834,3.333-4.601,3.2
				s-4.033-1.35-3.8-3.65L575.5,93z"/>
		</g>
	</g>
	<g>
		<g>
			<path style="fill-rule:evenodd;clip-rule:evenodd;fill:#448793;" d="M633.5,80.85c-3.066-0.3-4.45-1.783-4.15-4.45
				c0.934-2.633,1.417-3.95,1.45-3.95L630.4,75.4c0.1,2.133,1,3.55,2.699,4.25c1.801,0.733,3.301-0.1,4.5-2.5
				c0.667-1.298,1.1-2.265,1.301-2.9l0.3,3.15C638.8,80.033,636.9,81.183,633.5,80.85z"/>
		</g>
	</g>
	<g>
		<g>
			<path style="fill-rule:evenodd;clip-rule:evenodd;fill:#448793;" d="M634.95,93.7l-0.3,2.4c0.1,1.667,0.866,2.767,2.3,3.3
				c1.434,0.5,2.6-0.233,3.5-2.2c0.467-0.967,0.783-2,0.95-3.1l0.3,3.2c-0.3,2.133-1.75,3.15-4.351,3.05
				c-2.6-0.133-3.783-1.283-3.55-3.45L634.95,93.7z"/>
		</g>
	</g>
	<g>
		<g>
			<path style="fill-rule:evenodd;clip-rule:evenodd;fill:#448793;" d="M673.05,97.2L673,97.8c0,0.4,0.184,0.667,0.55,0.8
				c0.601,0.2,0.983-0.233,1.15-1.3l0.1,0.8c-0.1,0.533-0.483,0.783-1.149,0.75c-0.634-0.033-0.934-0.317-0.9-0.85L673.05,97.2z"/>
		</g>
	</g>
	<g>
		<g>
			<path style="fill-rule:evenodd;clip-rule:evenodd;fill:#448793;" d="M672.975,107.7c-0.073,0.289-0.215,0.739-0.425,1.35
				c-0.166,1.3,0.351,2.184,1.55,2.65c2.083,0.595,3.017-0.797,2.801-4.175c0.069,0.245,0.369,1.003,0.899,2.275
				c0.2,1.667-0.916,2.534-3.35,2.6c-2.434-0.367-3.334-1.333-2.7-2.9C672.383,108.656,672.791,108.056,672.975,107.7z"/>
		</g>
	</g>
	<g>
		<g>
			<path style="fill-rule:evenodd;clip-rule:evenodd;fill:#448793;" d="M660.05,80.925c-0.081,0.282-0.248,0.791-0.5,1.525
				c-0.166,1.267,0.334,2.15,1.5,2.65c1.367,0.367,2.283-0.233,2.75-1.8c0.126-1.237,0.193-1.996,0.2-2.275
				c0.07,0.275,0.337,1.017,0.8,2.225c0.134,1.6-1,2.467-3.399,2.6c-2.301-0.367-3.167-1.333-2.601-2.9
				C659.472,81.942,659.889,81.268,660.05,80.925z"/>
		</g>
	</g>
	<g>
		<g>
			<path style="fill-rule:evenodd;clip-rule:evenodd;fill:#448793;" d="M662.1,101.35l-0.05-1.85l0.75,1.7
				c0.2,1.233-0.483,2.033-2.05,2.4c-1.767,0.2-2.583-0.35-2.45-1.65c0.3-0.899,0.475-1.491,0.525-1.775
				c-0.008,0.223-0.033,0.631-0.075,1.225c0.1,1,0.634,1.567,1.6,1.7C661.316,103.2,661.9,102.617,662.1,101.35z"/>
		</g>
	</g>
	<g>
		<g>
			<path style="fill-rule:evenodd;clip-rule:evenodd;fill:#448793;" d="M646.3,112.5c0.667,0.433,1.217,0.85,1.65,1.25
				c0.866,0.4,0.967,1.2,0.3,2.4c-0.733,1.3-2.066,1.967-4,2c-2.566-0.133-3.717-1.2-3.45-3.2c0.8-2,1.184-3,1.15-3
				c0.033,0-0.084,0.733-0.351,2.2c0.067,1.6,0.801,2.633,2.2,3.1c0.9,0.3,1.7,0.117,2.4-0.55c0.666-0.667,0.916-1.417,0.75-2.25
				c-0.066-0.633-0.316-1.25-0.75-1.85l-0.65-0.65L646.3,112.5z"/>
		</g>
	</g>
	<g>
		<g>
			<path style="fill-rule:evenodd;clip-rule:evenodd;fill:#448793;" d="M630.25,114.5c-0.058,0.224-0.174,0.59-0.35,1.1
				c-0.134,1.033,0.35,1.667,1.449,1.9c1.267,0,1.867-0.65,1.801-1.95l-0.476-1.8c0.129,0.205,0.537,0.688,1.226,1.45
				c0.533,1.2-0.167,2.15-2.101,2.85c-2.2-0.1-3.05-0.783-2.55-2.05C629.775,115.28,630.108,114.78,630.25,114.5z"/>
		</g>
	</g>
	<g>
		<g>
			<path style="fill-rule:evenodd;clip-rule:evenodd;fill:#325F73;" d="M224.4,153.35c0.033,0-0.15,0.316-0.55,0.95
				c-0.267,0.733-0.117,1.333,0.45,1.8c1.124,0.694,1.907,0.061,2.35-1.9c-0.015,0.153,0.019,0.637,0.1,1.45
				c-0.167,0.967-0.967,1.267-2.4,0.9c-1.233-0.533-1.583-1.216-1.05-2.05C224.067,153.767,224.433,153.383,224.4,153.35z"/>
		</g>
	</g>
	<g>
		<g>
			<path style="fill-rule:evenodd;clip-rule:evenodd;fill:#325F73;" d="M213.4,160.35c0.033,0-0.066,0.183-0.3,0.55
				c-0.133,0.4-0.033,0.733,0.3,1c0.633,0.434,1.067,0.05,1.3-1.15l0.05,0.85c-0.1,0.566-0.55,0.767-1.35,0.6
				c-0.733-0.3-0.933-0.7-0.6-1.2C213.233,160.6,213.433,160.383,213.4,160.35z"/>
		</g>
	</g>
	<g>
		<g>
			<path style="fill-rule:evenodd;clip-rule:evenodd;fill:#325F73;" d="M243.65,153.5c1.833,0.633,2.983-0.017,3.45-1.95
				c0.167-0.633,0.233-1.316,0.2-2.05c-0.004-0.082-0.012-0.157-0.025-0.225c0.216,0.448,0.574,1.14,1.075,2.075
				c0.4,1.933-1.067,2.967-4.4,3.1c-2.833-0.934-3.733-2.267-2.7-4c1.058-1.014,1.716-1.697,1.975-2.05
				c-0.147,0.304-0.455,0.854-0.925,1.65C241.8,151.517,242.25,152.667,243.65,153.5z"/>
		</g>
	</g>
	<g>
		<g>
			<path style="fill-rule:evenodd;clip-rule:evenodd;fill:#325F73;" d="M238.45,160.65c-0.267,0.133-0.284,0.783-0.05,1.95
				c0.2,1.333,0.817,2.217,1.85,2.65c1.133,0.467,2.117-0.067,2.95-1.6c0.432-0.83,0.715-1.455,0.85-1.875l0.15,1.975
				c-0.3,1.733-1.517,2.5-3.65,2.3c-1.633-0.066-2.55-0.966-2.75-2.7C237.633,161.717,237.85,160.817,238.45,160.65z"/>
		</g>
	</g>
	<g>
		<g>
			<path style="fill-rule:evenodd;clip-rule:evenodd;fill:#325F73;" d="M268.7,151.25c-0.233,1.733-1.35,2.583-3.35,2.55
				c-1.8,0.167-2.817-0.617-3.05-2.35c-0.193-1.68-0.077-2.58,0.35-2.7c-0.178,0.085-0.111,0.735,0.2,1.95
				c0.367,1.333,1.083,2.133,2.15,2.4c1.1,0.333,2-0.3,2.7-1.9c0.5-1.667,0.75-2.517,0.75-2.55
				C268.483,148.65,268.567,149.517,268.7,151.25z"/>
		</g>
	</g>
	<g>
		<g>
			<path style="fill-rule:evenodd;clip-rule:evenodd;fill:#325F73;" d="M264.575,161.725c0.038,0.356,0.096,0.864,0.175,1.525
				c-0.2,1.333-1.283,1.817-3.25,1.45c-1.7-0.567-2.267-1.483-1.7-2.75c0.761-0.924,1.186-1.482,1.275-1.675
				c-0.051,0.167-0.242,0.608-0.575,1.325c-0.233,1.066,0.067,1.883,0.9,2.45c1,0.534,1.833,0.2,2.5-1
				C264.221,162.489,264.446,162.047,264.575,161.725z"/>
		</g>
	</g>
	<g>
		<g>
			<path style="fill-rule:evenodd;clip-rule:evenodd;fill:#325F73;" d="M284.275,162.15c-0.042,0.146-0.184,0.496-0.425,1.05
				c-0.2,0.833,0.066,1.45,0.8,1.85c0.8,0.367,1.45,0.05,1.95-0.95c0.233-0.5,0.4-1.017,0.5-1.55l0.15,1.6
				c-0.133,1.067-0.933,1.533-2.4,1.4c-1.467-0.367-1.983-1.05-1.55-2.05C283.871,162.773,284.196,162.323,284.275,162.15z"/>
		</g>
	</g>
	<g>
		<g>
			<path style="fill-rule:evenodd;clip-rule:evenodd;fill:#325F73;" d="M282.25,152.7c-0.167,1.2-1.067,1.733-2.7,1.6
				c-1.7-0.4-2.283-1.183-1.75-2.35c0.554-0.688,0.904-1.154,1.05-1.4c-0.081,0.202-0.231,0.552-0.45,1.05
				c-0.2,0.933,0.117,1.633,0.95,2.1c0.9,0.367,1.633,0,2.2-1.1c0.267-0.533,0.434-1.117,0.5-1.75L282.25,152.7z"/>
		</g>
	</g>
	<g>
		<g>
			<path style="fill-rule:evenodd;clip-rule:evenodd;fill:#325F73;" d="M315.25,158.1c0.367-1.033,0.6-2.15,0.7-3.35
				c0.026-0.401,0.034-0.718,0.025-0.95c0.101,0.222,0.242,0.522,0.425,0.9c0.533,1.233,0.833,2.35,0.9,3.35
				c0.2,3.267-2.2,4.817-7.2,4.65c-3.967-0.7-5.567-2.65-4.8-5.85c0.267-1,0.75-2.05,1.45-3.15c0.333-0.567,0.65-1.034,0.95-1.4
				l-0.9,3.5c-0.2,2.567,0.733,4.367,2.8,5.4C312.267,162.233,314.15,161.2,315.25,158.1z"/>
		</g>
	</g>
	<g>
		<g>
			<path style="fill-rule:evenodd;clip-rule:evenodd;fill:#325F73;" d="M308.6,170.35c-1.267-0.333-1.7-0.95-1.3-1.85
				c0.518-0.681,0.801-1.098,0.85-1.25c-0.021,0.13-0.138,0.447-0.35,0.95c-0.167,0.733,0.05,1.283,0.65,1.65
				c0.7,0.367,1.283,0.117,1.75-0.75c0.2-0.434,0.333-0.883,0.4-1.35l0.15,1.45C310.617,170.134,309.9,170.517,308.6,170.35z"/>
		</g>
	</g>
	<g>
		<g>
			<path style="fill-rule:evenodd;clip-rule:evenodd;fill:#325F73;" d="M337,163.4l-0.05,0.45c0.033,0.333,0.167,0.533,0.4,0.6
				c0.433,0.167,0.717-0.15,0.85-0.95c0.267,0.8,0.017,1.183-0.75,1.15c-0.5-0.033-0.717-0.25-0.65-0.65L337,163.4z"/>
		</g>
	</g>
	<g>
		<g>
			<path style="fill-rule:evenodd;clip-rule:evenodd;fill:#325F73;" d="M329.9,155.8l0.25,1.5c0.367,1.034,1.017,1.583,1.95,1.65
				c0.8,0.167,1.433-0.4,1.9-1.7c0.3-1.333,0.467-2.017,0.5-2.05c0.333,0,0.417,0.667,0.25,2c-0.2,1.4-0.967,2.167-2.3,2.3
				c-1.5,0.333-2.383-0.183-2.65-1.55C329.5,156.65,329.533,155.933,329.9,155.8z"/>
		</g>
	</g>
	<g>
		<g>
			<path style="fill-rule:evenodd;clip-rule:evenodd;fill:#325F73;" d="M329.75,170.5c0.067,0.967,0.533,1.566,1.4,1.8
				c1,0.167,1.633-0.35,1.9-1.55c0.106-0.521,0.173-0.929,0.2-1.225c0.129,0.278,0.313,0.67,0.55,1.175
				c0.2,1.2-0.583,1.916-2.35,2.149c-1.567-0.033-2.284-0.666-2.15-1.899c0.348-0.99,0.548-1.582,0.6-1.775L329.75,170.5z"/>
		</g>
	</g>
	<g>
		<g>
			<path style="fill-rule:evenodd;clip-rule:evenodd;fill:#325F73;" d="M354.25,167.7c-0.1,0.066-0.017,0.367,0.25,0.9
				c0.267,0.566,0.633,0.883,1.1,0.95c0.733,0.2,1.233-0.517,1.5-2.15c0.5,1.633,0.066,2.467-1.3,2.5
				c-0.733,0.167-1.233-0.133-1.5-0.9C354.033,168.233,354.017,167.8,354.25,167.7z"/>
		</g>
	</g>
	<g>
		<g>
			<path style="fill-rule:evenodd;clip-rule:evenodd;fill:#325F73;" d="M349,153.9c-0.142,0.081-0.075,0.564,0.2,1.45
				c0.3,1.033,0.85,1.65,1.65,1.85c0.6,0.3,1.3-0.1,2.1-1.2c0.4-0.533,0.767-1.117,1.1-1.75c-0.2,2.667-1.183,3.85-2.95,3.55
				c-1.267,0.1-2.033-0.517-2.3-1.85C348.576,154.7,348.643,154.017,349,153.9z"/>
		</g>
	</g>
	<g>
		<g>
			<path style="fill-rule:evenodd;clip-rule:evenodd;fill:#325F73;" d="M384.25,157.2c-0.167,1.2-1.066,1.733-2.7,1.6
				c-1.7-0.4-2.283-1.183-1.75-2.35c0.555-0.688,0.904-1.154,1.05-1.4c-0.08,0.202-0.23,0.552-0.449,1.05
				c-0.2,0.933,0.116,1.633,0.949,2.1c0.9,0.367,1.634,0,2.2-1.1c0.267-0.533,0.434-1.117,0.5-1.75L384.25,157.2z"/>
		</g>
	</g>
	<g>
		<g>
			<path style="fill-rule:evenodd;clip-rule:evenodd;fill:#325F73;" d="M382.5,166.95l-0.2,1.5c0.066,1.066,0.55,1.75,1.45,2.05
				s1.634-0.15,2.2-1.35c0.3-0.633,0.5-1.283,0.6-1.95l0.2,2c-0.2,1.333-1.116,1.967-2.75,1.899c-1.634-0.066-2.366-0.783-2.2-2.149
				L382.5,166.95z"/>
		</g>
	</g>
	<g>
		<g>
			<path style="fill-rule:evenodd;clip-rule:evenodd;fill:#325F73;" d="M401.45,154.4c0.033,0,0,0.5-0.101,1.5
				c0.067,1.067,0.567,1.75,1.5,2.05c1.101,0.2,1.801-0.35,2.101-1.65c0.145-0.634,0.228-1.118,0.25-1.45
				c0.137,0.312,0.337,0.762,0.6,1.35c0.233,1.333-0.649,2.117-2.649,2.35c-1.733-0.033-2.517-0.733-2.351-2.1
				C401.267,155.083,401.483,154.4,401.45,154.4z"/>
		</g>
	</g>
	<g>
		<g>
			<path style="fill-rule:evenodd;clip-rule:evenodd;fill:#325F73;" d="M417.625,160.1c-0.067,0.141-0.192,0.375-0.375,0.7
				c-0.233,0.6-0.066,1.083,0.5,1.45c0.634,0.3,1.134,0.067,1.5-0.7c0.2-0.367,0.333-0.75,0.4-1.15l0.1,1.25
				c-0.1,0.8-0.717,1.133-1.85,1c-1.2-0.4-1.567-0.95-1.101-1.65C417.232,160.568,417.507,160.268,417.625,160.1z"/>
		</g>
	</g>
	<g>
		<g>
			<path style="fill-rule:evenodd;clip-rule:evenodd;fill:#448793;" d="M429.25,158.45c0.309-0.879,0.476-1.446,0.5-1.7
				c0.011,0.203-0.006,0.603-0.05,1.2c0.133,0.9,0.684,1.4,1.649,1.5c1.101-0.133,1.551-0.784,1.351-1.95
				c-0.073-0.447-0.14-0.814-0.2-1.1c-0.34-0.28-0.49-0.43-0.45-0.45c0.121-0.436,0.271-0.286,0.45,0.45
				c0.216,0.195,0.516,0.445,0.9,0.75c0.666,0.934,0.116,1.85-1.65,2.75C429.983,160.133,429.15,159.65,429.25,158.45z"/>
		</g>
	</g>
	<g>
		<g>
			<path style="fill-rule:evenodd;clip-rule:evenodd;fill:#448793;" d="M437.75,163.55c0.033,0,0,0.35-0.1,1.05
				c0.066,0.733,0.433,1.2,1.1,1.4c1.355,0.166,1.789-0.685,1.3-2.55c0.068,0.125,0.318,0.525,0.75,1.2c0.3,0.9-0.3,1.5-1.8,1.8
				c-1.233-0.034-1.8-0.517-1.7-1.45C437.634,164.033,437.783,163.55,437.75,163.55z"/>
		</g>
	</g>
</g>
<polygon style="fill-rule:evenodd;clip-rule:evenodd;fill:#C1CDA5;" points="428.5,75.3 430,94.3 376.75,94.8 377.75,74.55 "/>
<g>
	<path style="fill-rule:evenodd;clip-rule:evenodd;fill:#5A9360;" d="M386.85,83.15c0.233,1.267,0.934,1.817,2.101,1.65
		c1.666-0.2,2.366-0.917,2.1-2.15c-0.3-1.2-1.066-1.75-2.3-1.65C387.283,81.167,386.65,81.883,386.85,83.15z M382.5,86.05
		c-0.134-1.7,0.167-3.267,0.9-4.7c0.733-1.533,1.699-2.467,2.899-2.8c2.033-0.566,3.834-0.2,5.4,1.1
		c1.399,1.167,2.316,2.767,2.75,4.8c0.399,2.033,0.184,3.8-0.65,5.3c-0.934,1.7-2.467,2.567-4.6,2.6
		C385,92.45,382.767,90.35,382.5,86.05z"/>
	<path style="fill-rule:evenodd;clip-rule:evenodd;fill:#5A9360;" d="M399.45,78.8c2.967,0.5,4.217,2.2,3.75,5.1
		c-0.2,1.167-1.033,1.85-2.5,2.05l-2.15-0.05l-0.1,5.35l-2.8-0.35c0.533-2.367,0.75-4.283,0.649-5.75
		c-0.033-0.933-0.283-2.25-0.75-3.95l-0.7-2.3L399.45,78.8z M400.75,84.15c0.6,0.067,0.917-0.517,0.95-1.75
		c0.033-1.2-0.316-1.767-1.05-1.7c-0.767,0.066-1.167,0.617-1.2,1.65C399.417,83.417,399.85,84.017,400.75,84.15z"/>
	<path style="fill-rule:evenodd;clip-rule:evenodd;fill:#5A9360;" d="M405.35,81.4c0.9-1.167,2.084-1.816,3.551-1.95
		c1.8-0.133,3.166,0.816,4.1,2.85c0.434,1,0.7,2.017,0.8,3.05l-6.899,0.8l-0.15,1.35c0.033,0.967,0.384,1.583,1.05,1.85
		c0.767,0.333,2.434-0.117,5-1.35l1.75,2.6c-0.3,0.367-0.8,0.7-1.5,1c-1.333,0.633-2.899,0.816-4.7,0.55
		c-1.933-0.3-3.216-1.15-3.85-2.55c-0.4-0.867-0.566-2.167-0.5-3.9C404.066,83.967,404.517,82.533,405.35,81.4z M409.45,81.55
		c-0.9,0.133-1.4,0.6-1.5,1.4c-0.066,0.833,0.434,1.183,1.5,1.05c1.066-0.1,1.566-0.55,1.5-1.35
		C410.85,81.817,410.35,81.45,409.45,81.55z"/>
	<path style="fill-rule:evenodd;clip-rule:evenodd;fill:#5A9360;" d="M422.9,79.5c1.267-0.133,2.133,1.783,2.6,5.75
		c0.233,2,0.333,4,0.3,6l-3.1-0.3c0.133-1.267,0.184-2.517,0.149-3.75c-0.1-2.467-0.616-3.583-1.55-3.35
		c-0.899,0.233-1.7,1.467-2.399,3.7c-0.367,1.1-0.634,2.184-0.801,3.25l-2.399,0.25l-1.15-12l3.8,0.35l0.351,4.1l1-1.85
		C420.6,80.35,421.667,79.633,422.9,79.5z"/>
</g>
</svg>
