<?xml version="1.0" encoding="iso-8859-1"?>
<!-- Generator: Adobe Illustrator 15.1.0, SVG Export Plug-In . SVG Version: 6.00 Build 0)  -->
<!DOCTYPE svg PUBLIC "-//W3C//DTD SVG 1.1//EN" "http://www.w3.org/Graphics/SVG/1.1/DTD/svg11.dtd">
<svg version="1.1" id="shrub_x5F_orange_x5F_01.ai" xmlns="http://www.w3.org/2000/svg" xmlns:xlink="http://www.w3.org/1999/xlink"
	 x="0px" y="0px" width="48px" height="74.2px" viewBox="0 0 48 74.2" style="enable-background:new 0 0 48 74.2;"
	 xml:space="preserve">
<g>
	<g>
		<path style="fill-rule:evenodd;clip-rule:evenodd;fill:#8F7D5C;" d="M30.55,55.8l0.351,3.45c0.333,2.533,0.649,4.467,0.949,5.8
			c0.301,1.367,1.384,2.434,3.25,3.2c0.9,0.4,1.784,0.667,2.65,0.8c-1.967,0.101-3.583,0.15-4.85,0.15
			c-0.801,0-0.017,0.633,2.35,1.899c1.2,0.634,2.467,1.267,3.8,1.9c-5.399-1.366-8.783-2.15-10.149-2.35
			c-0.867-0.134-1.851,0.416-2.95,1.649c-0.566,0.634-1.05,1.267-1.45,1.9c0.167-0.467,0.25-0.95,0.25-1.45
			c0-1.033-0.434-1.684-1.3-1.95c-0.867-0.233-2.534,0.134-5,1.101l-2.6,1.149c0.229-0.124,0.479-0.274,0.75-0.45
			c1.333-0.833,2.55-1.916,3.65-3.25c1.1-1.366,1.817-3.733,2.15-7.1l0.2-4.7L30.55,55.8z"/>
		<g>
			<path style="fill-rule:evenodd;clip-rule:evenodd;fill:#806E4D;" d="M30.55,55.8L31.15,61c-0.4,0.2-0.9,0.35-1.5,0.45L27.8,61.8
				c0,0.101,0,1.134,0,3.101c0.3,2.1,1.184,3.566,2.65,4.399c2,1.134,4.399,2.25,7.2,3.351c-4.801-1.2-7.717-1.867-8.75-2
				c-0.634-0.4-1.15-1.851-1.551-4.351L27,62.7c-0.2,1.899-0.783,3-1.75,3.3c-0.8,0.3-0.983-0.866-0.55-3.5
				c-0.533,2.3-1.333,4.2-2.4,5.7c-1.133,1.566-3.066,3.05-5.8,4.45c1.3-0.767,2.55-1.867,3.75-3.301
				c0.567-0.699,1.05-1.733,1.45-3.1c0.9-0.9,1.417-1.667,1.55-2.3c0.133-0.834,0.217-1.7,0.25-2.601l0.05-1.149l-1-0.05l0.05-2.601
				L30.55,55.8z"/>
			<path style="fill-rule:evenodd;clip-rule:evenodd;fill:#6C5E3F;" d="M27,62.7l0.35,3.6c0.4,2.5,0.917,3.95,1.551,4.351
				c-0.867-0.134-1.851,0.416-2.95,1.649c-0.566,0.634-1.05,1.267-1.45,1.9c0.167-0.467,0.25-0.95,0.25-1.45
				c0-1.033-0.434-1.684-1.3-1.95c-1.167-0.333-3.633,0.367-7.4,2.101l0.45-0.25c2.733-1.4,4.667-2.884,5.8-4.45
				c1.067-1.5,1.867-3.4,2.4-5.7c-0.434,2.634-0.25,3.8,0.55,3.5C26.217,65.7,26.8,64.6,27,62.7z"/>
		</g>
		
			<linearGradient id="SVGID_1_" gradientUnits="userSpaceOnUse" x1="11.5444" y1="29.8276" x2="40.8715" y2="29.8276" gradientTransform="matrix(0.9999 0.0119 -0.0119 0.9999 1.491793e-004 -4.749745e-005)">
			<stop  offset="0" style="stop-color:#BD7B5C"/>
			<stop  offset="1" style="stop-color:#CB9A7A"/>
		</linearGradient>
		<path style="fill-rule:evenodd;clip-rule:evenodd;fill:url(#SVGID_1_);" d="M48,7.4c-3.134,2.633-5.4,4.733-6.8,6.3
			c-0.867,0.966-1.7,3.05-2.5,6.25c-0.367,1.6-0.667,3.1-0.9,4.5l3.9-2.1l-2.851,11.8l7.051-5L39.6,44.4l7.101-4.45l-3.2,8.95
			c-2.767,6.033-5.75,9.166-8.95,9.399c-0.366,0.033-0.95,0-1.75-0.1L31.7,58L31,59.1c-0.833,0.733-2.066,1.101-3.7,1.101
			c-1.633,0-2.85-0.367-3.65-1.101L22.9,58c-1.133,0.533-2.333,0.8-3.6,0.8c-0.966,0-1.966-0.434-3-1.3c-1.733-1.4-3.917-4.4-6.55-9
			L6.3,42h5.8l-5-9.4l5.25,1.3l-5-11.55l3.4,2.1L7.9,17.1c-1.2-1.633-2.883-3.3-5.05-5C1.783,11.267,0.833,10.583,0,10.05l14.9,1.6
			l-4.55-7.4L19.3,7.9L18.05,0l7.7,7.4l5.65-6.9L30.3,9.45L37.5,4l-1.7,7.8L48,7.4z"/>
		<g>
			<path style="fill-rule:evenodd;clip-rule:evenodd;fill:#A7674A;" d="M20.6,11.95c0.2-1.534,0.333-2.717,0.4-3.55
				c0.167-1.667-0.817-4.467-2.95-8.4c2.367,3.167,4.1,5.733,5.2,7.7c1.066,1.9,2.217,4.367,3.45,7.4c-0.434-0.5-0.9-0.95-1.4-1.35
				c-1.033-0.767-1.767-0.867-2.2-0.3c-0.567,0.8-0.667,2.2-0.3,4.2c0.2,1.033,0.45,1.967,0.75,2.8c-0.667-0.4-1.367-0.717-2.1-0.95
				c-1.467-0.467-2.333-0.3-2.6,0.5c-0.434,1.233,0.183,4.533,1.85,9.9l-2.35-0.5L18,33c-0.1,2.467,0.283,3.933,1.15,4.4
				s1.833,0.417,2.9-0.15c0.534-0.267,0.983-0.583,1.35-0.95l-1.85,2.9c-1.2,2.1-1.733,3.55-1.6,4.35s0.767,1.217,1.9,1.25
				c0.6,0.033,1.167-0.017,1.7-0.149l-1.2,3.699c-0.6,2.601-0.417,4.301,0.55,5.101s2.017,1.017,3.15,0.649
				c0.566-0.199,1.033-0.466,1.4-0.8l-0.5,2.15c-0.2,1.366,0.133,1.95,1,1.75c1.366-0.3,2.783-1.351,4.25-3.15l1.3,1.75
				c1.167,1.134,2.533,1.584,4.1,1.351c-1.066,0.733-2.083,1.116-3.05,1.149c-0.366,0.033-0.95,0-1.75-0.1L31.7,58
				c-0.134,0.667-0.65,1.217-1.55,1.65c-1.4,0-2.551-0.2-3.45-0.601c-0.934-0.366-2.05-1.116-3.35-2.25
				c-1.067-0.899-1.833-1.95-2.3-3.149l-0.4-1.551l-0.45,1.45c-0.534,0.9-1.284,1.2-2.25,0.9c-1-0.3-1.733-1.467-2.2-3.5L15.35,48
				h2.8l-3.5-7.9h2.8c-0.434-0.366-0.867-0.833-1.3-1.399c-0.867-1.133-1.3-2.167-1.3-3.1c0-0.934,0.217-2.067,0.65-3.4l0.65-1.75
				l-0.5,0.6c-0.433,0.3-0.85,0.1-1.25-0.6c-0.4-0.7-0.283-1.617,0.35-2.75l1.05-1.5c-1.4-1.567-2.033-2.833-1.9-3.8
				c0.1-0.566,0.55-0.75,1.35-0.55c0.4,0.1,0.783,0.25,1.15,0.45c-0.3-0.767-0.533-1.65-0.7-2.65c-0.333-1.933-0.184-3.367,0.45-4.3
				c0.633-0.934,1.717-0.833,3.25,0.3c0.733,0.567,1.417,1.217,2.05,1.95c-0.467-1.1-0.784-2.083-0.95-2.95
				C20.433,14.117,20.467,13.217,20.6,11.95z"/>
			<path style="fill-rule:evenodd;clip-rule:evenodd;fill:#9E5B3F;" d="M21,8.4c-0.067,0.833-0.2,2.017-0.4,3.55
				c-0.133,1.267-0.167,2.167-0.1,2.7c0.167,0.867,0.483,1.85,0.95,2.95c-0.633-0.733-1.317-1.383-2.05-1.95
				c-1.533-1.133-2.617-1.233-3.25-0.3c-0.633,0.933-0.783,2.367-0.45,4.3c0.167,1,0.4,1.883,0.7,2.65
				c-0.367-0.2-0.75-0.35-1.15-0.45c-0.8-0.2-1.25-0.017-1.35,0.55c-0.133,0.967,0.5,2.233,1.9,3.8l-1.05,1.5
				c-0.633,1.133-0.75,2.05-0.35,2.75c0.4,0.7,0.817,0.9,1.25,0.6l0.5-0.6L15.5,32.2c-0.433,1.333-0.65,2.466-0.65,3.4
				c0,0.933,0.433,1.967,1.3,3.1c0.434,0.566,0.867,1.033,1.3,1.399h-2.8l3.5,7.9h-2.8l0.4,2.95c0.467,2.033,1.2,3.2,2.2,3.5
				c0.966,0.3,1.716,0,2.25-0.9l0.45-1.45l0.4,1.551c0.467,1.199,1.233,2.25,2.3,3.149c1.3,1.134,2.417,1.884,3.35,2.25
				c0.899,0.4,2.05,0.601,3.45,0.601C29.35,60.017,28.4,60.2,27.3,60.2c-1.633,0-2.85-0.367-3.65-1.101L22.9,58
				c-0.5,0.167-1.15,0.167-1.95,0c-1.633-0.267-3.267-1.167-4.9-2.7s-2.933-3.783-3.9-6.75l-0.95-4l3.65-0.35
				c-0.633-1.434-1.267-2.867-1.9-4.3c-1.333-2.867-2.067-4.3-2.2-4.3l2.95-0.1l-2.95-9.1l2.1,0.5l-2.1-8.75l1.85,0.6
				c-0.1-0.5-0.317-1.067-0.65-1.7c-0.633-1.233-1.55-2.2-2.75-2.9c-1.333-0.767-4.117-1.95-8.35-3.55L0,10.05l14.9,1.6l-4.55-7.4
				L19.3,7.9L18.05,0C20.183,3.933,21.167,6.733,21,8.4z"/>
			<path style="fill-rule:evenodd;clip-rule:evenodd;fill:#8A4E35;" d="M7.35,22.35l3.4,2.1L7.9,17.1
				c-1.566-2.1-3.917-4.267-7.05-6.5c4.233,1.6,7.017,2.783,8.35,3.55c1.2,0.7,2.117,1.667,2.75,2.9c0.333,0.633,0.55,1.2,0.65,1.7
				l-1.85-0.6l2.1,8.75l-2.1-0.5l2.95,9.1l-2.95,0.1c0.133,0,0.867,1.433,2.2,4.3c0.633,1.433,1.267,2.866,1.9,4.3l-3.65,0.35
				l0.95,4c0.967,2.967,2.267,5.217,3.9,6.75s3.267,2.434,4.9,2.7c0.8,0.167,1.45,0.167,1.95,0c-1.133,0.533-2.333,0.8-3.6,0.8
				c-0.966,0-1.966-0.434-3-1.3c-1.733-1.4-3.917-4.4-6.55-9L6.3,42h5.8l-5-9.4l5.25,1.3L7.35,22.35z"/>
		</g>
		<path style="fill-rule:evenodd;clip-rule:evenodd;fill:#B56C4C;" d="M26.05,10.5c-0.233-1.167,0.3-2.65,1.601-4.45
			c0.666-0.933,1.35-1.733,2.05-2.4c-1.667,2.767-1.95,6.033-0.851,9.8c0.567,1.9,1.284,3.517,2.15,4.85l-4.6,0.1l0.949,1.55
			c0.534,1.267,0.567,2.433,0.101,3.5c-0.434,1.1-1.033,1.9-1.8,2.4c-0.367,0.267-0.7,0.417-1,0.45l4.449,5.4
			c-0.933,1.1-1.816,2.267-2.649,3.5c-1.7,2.466-2.3,4.1-1.8,4.899c0.466,0.767,1.267,1.167,2.399,1.2
			c0.533,0.033,1.033-0.017,1.5-0.149c-0.666,0.466-1.399,0.85-2.2,1.149c-1.633,0.634-2.783,0.517-3.45-0.35
			c-0.7-0.834-0.367-2.55,1-5.15l2.25-3.65c-0.834,0.934-1.851,1.633-3.05,2.1c-0.733,0.3-1.483-0.017-2.25-0.95l-0.9-1.5l1,0.1
			c0.8-0.133,1.566-0.717,2.3-1.75s0.717-2.683-0.05-4.95l-1.4-3.1l1.1,0.7c0.833,0.3,1.567,0.067,2.2-0.7
			c0.567-0.667,0.567-1.717,0-3.15c-0.733-1.867-1.083-3.133-1.05-3.8c0.033-1.066,0.634-1.35,1.8-0.85
			c0.601,0.267,1.184,0.633,1.75,1.1C26.967,14.367,26.45,12.4,26.05,10.5z"/>
		<path style="fill-rule:evenodd;clip-rule:evenodd;fill:#B56C4C;" d="M28.3,44.35l-1.1,1.801c-0.601,1.3-0.584,2.183,0.05,2.649
			c0.634,0.5,1.533,0.434,2.7-0.2l1.55-1.1l-0.6,1.6c-0.367,1.101-0.483,1.834-0.351,2.2c0.233,0.533,1.483-0.649,3.75-3.55
			l-0.1,1.7c0.033,1.3,0.35,2.267,0.95,2.899c0.6,0.634,1.949,0.167,4.05-1.399c1.066-0.8,2.066-1.667,3-2.601
			c-0.667,1.034-1.434,2.067-2.3,3.101c-1.7,2.033-3.017,3-3.95,2.899c-0.934-0.1-1.717-0.616-2.351-1.55L32.9,51.4
			c-1.5,1.733-2.717,2.683-3.65,2.85c-0.6,0.1-0.8-0.417-0.6-1.55l0.449-1.75C28.7,51.217,28.233,51.4,27.7,51.5
			c-1.134,0.2-2.117-0.066-2.95-0.8c-0.833-0.733-0.483-2.017,1.05-3.851L28.3,44.35z"/>
		<path style="fill-rule:evenodd;clip-rule:evenodd;fill:#B56C4C;" d="M37.35,38.3c1.233-0.5,2.267-1.167,3.101-2
			c1-1,2.45-2.95,4.35-5.85l-6,14.35l-3.2,3.75l3.4-8.7c-0.934,0.634-2.033,0.917-3.3,0.851c-0.767-0.066-1.634-0.267-2.601-0.601
			l-1.25-0.5c0.767-0.466,1.867-1.399,3.301-2.8c1.399-1.433,3.283-5.883,5.649-13.35L37.35,38.3z"/>
		<path style="fill-rule:evenodd;clip-rule:evenodd;fill:#A7674A;" d="M44.45,42.8c-0.434,0.934-1.017,1.917-1.75,2.95
			c-1.434,2.066-2.816,3.366-4.15,3.9c-0.8,0.3-1.35,0.3-1.649,0l-0.25-0.601c0.966-0.399,2.066-0.95,3.3-1.649
			C41.217,46.7,42.717,45.167,44.45,42.8z"/>
	</g>
	<path style="fill-rule:evenodd;clip-rule:evenodd;fill:#D8B59B;" d="M31.25,11.45c0.434-1.067,1.267-2.034,2.5-2.9
		c0.634-0.433,1.217-0.767,1.75-1c-0.6,0.934-0.8,2.833-0.6,5.7c0.1,1.433,0.25,2.767,0.449,4C34.483,15.117,33.7,13.967,33,13.8
		c-0.434-0.1-0.634,0.733-0.6,2.5c0,0.9,0.05,1.8,0.149,2.7c-0.399-0.833-0.75-1.767-1.05-2.8C30.9,14.133,30.816,12.55,31.25,11.45
		z"/>
	<polygon style="fill-rule:evenodd;clip-rule:evenodd;fill:#D8B59B;" points="36.65,12.65 43.95,9.7 37,14.5 	"/>
	<path style="fill-rule:evenodd;clip-rule:evenodd;fill:#D8B59B;" d="M32.95,23.65L33.6,21.8c0.167,1.434-0.466,3.4-1.899,5.9
		l0.85,0.7c0.233,0.233,0.351,0.8,0.351,1.7c0,0.667,0.199,0.9,0.6,0.7c0.7-0.4,2.033-1.783,4-4.15
		c-0.967,2.367-2.116,4.05-3.45,5.05c-1.333,1.033-2.55,1.517-3.649,1.45c0.633-1.1,0.75-2.167,0.35-3.2
		c-0.233-0.633-0.767-1.367-1.6-2.2l-1.2-1l0.75-0.1c0.666-0.1,1.399-0.3,2.2-0.6C31.667,25.75,32.35,24.95,32.95,23.65z"/>
</g>
</svg>
