<?xml version="1.0" encoding="iso-8859-1"?>
<!-- Generator: Adobe Illustrator 15.1.0, SVG Export Plug-In . SVG Version: 6.00 Build 0)  -->
<!DOCTYPE svg PUBLIC "-//W3C//DTD SVG 1.1//EN" "http://www.w3.org/Graphics/SVG/1.1/DTD/svg11.dtd">
<svg version="1.1" id="shrub_x5F_green_x5F_01.ai" xmlns="http://www.w3.org/2000/svg" xmlns:xlink="http://www.w3.org/1999/xlink"
	 x="0px" y="0px" width="48.4px" height="76.6px" viewBox="0 0 48.4 76.6" style="enable-background:new 0 0 48.4 76.6;"
	 xml:space="preserve">
<g>
	<path style="fill-rule:evenodd;clip-rule:evenodd;fill:#A99269;" d="M24.25,66.2c1.3,0.166,2.4,0.45,3.3,0.85
		c0.9,0.4,1.2,0.75,0.9,1.05C27.684,68.866,27,69.733,26.4,70.7c-0.733,1.133-1.034,1.983-0.9,2.55c0.134,0.5,0.583,0.816,1.35,0.95
		c0.467,0.1,1.351,0.233,2.65,0.399c1.4,0.367,3.283,1.034,5.65,2c-2.233,0.067-4.301-0.183-6.2-0.75
		c-1.066-0.333-2.367-0.449-3.9-0.35s-2.4,0.116-2.6,0.05c-0.2-0.066-0.733-0.416-1.6-1.05c-0.767-0.6-1.5-0.917-2.2-0.95
		c-0.5-0.033-1.467,0.15-2.9,0.55c-1.4,0.4-2.567,0.567-3.5,0.5c-1.667-0.133-4.083,0.184-7.25,0.95
		c1.767-0.633,3.167-1.233,4.2-1.8c0.367-0.2,1.316-0.217,2.85-0.05c1.367,0.133,2.55-0.2,3.55-1c1.1-0.867,1.8-1.867,2.1-3
		l0.15-1.4C18.583,66.467,20.717,65.767,24.25,66.2z"/>
	<g>
		<path style="fill-rule:evenodd;clip-rule:evenodd;fill:#847457;" d="M26.7,66.7c1.566,0.467,2.149,0.934,1.75,1.399
			c-1.533,1.534-2.483,2.917-2.851,4.15C25.033,72.517,24.4,72.7,23.7,72.8c-0.567,0.101-1.05,0.15-1.45,0.15L21.8,72.9l0.8,0.75
			c0.7,0.533,1.417,0.883,2.15,1.05c0.566,0.133,1.45,0.25,2.65,0.35c1.133,0.066,2.033,0.2,2.699,0.4
			c1.267,0.333,2.95,0.717,5.051,1.149c-2.233,0.067-4.301-0.183-6.2-0.75c-1.066-0.333-2.367-0.449-3.9-0.35s-2.4,0.116-2.6,0.05
			c-0.2-0.066-0.733-0.416-1.6-1.05c-0.767-0.6-1.5-0.917-2.2-0.95c-0.5-0.033-1.467,0.15-2.9,0.55c-1.4,0.4-2.567,0.567-3.5,0.5
			c-1.667-0.133-4.083,0.184-7.25,0.95l1.2-0.45c2.1-0.6,3.383-0.899,3.85-0.899c1.5,0,2.35,0,2.55,0
			c1.333-0.101,2.367-0.351,3.1-0.75c1.2-0.634,1.867-1.334,2-2.101l-0.55-0.3c0.367-0.633,0.6-1.283,0.7-1.95v-0.8
			c0.233-0.633,0.7-1.133,1.4-1.5L26.7,66.7z"/>
	</g>
	<path style="fill-rule:evenodd;clip-rule:evenodd;fill:#A5BA7E;" d="M42.45,39.55c1.1,0.467,1.8,1.8,2.1,4
		c0.167,1.101,0.217,2.15,0.15,3.15l1.899,1.1c1.2,1.033,1.684,2.25,1.45,3.65c-0.233,1.399-0.916,2.633-2.05,3.7
		c-0.533,0.533-1.066,0.933-1.6,1.199l0.55,2c0.3,1.5,0.217,2.75-0.25,3.75s-1.517,1.634-3.15,1.9l-2.3,0.05l0.4,1.351
		c0.133,1.066-0.101,2.066-0.7,3c-0.566,0.933-1.467,1.633-2.7,2.1l-1.65,0.45c-1.899,0.1-3.583-0.15-5.05-0.75L27.9,69.25
		c-0.733,0.533-1.601,1.033-2.601,1.5c-1.966,0.967-3.533,1.35-4.7,1.15c-1.167-0.167-1.95-0.75-2.35-1.75l-0.3-1.45
		c-1.2,0.566-2.517,1.083-3.95,1.55c-2.833,0.967-4.75,1.233-5.75,0.8C7.283,70.65,6.833,69.684,6.9,68.15L7.3,66
		c-0.733,0.066-1.533,0.017-2.4-0.15c-1.733-0.267-2.9-0.866-3.5-1.8c-0.566-0.934-0.483-1.934,0.25-3l1.3-1.35
		c-0.6-0.566-1.167-1.25-1.7-2.05c-1.1-1.634-1.467-3.101-1.1-4.4c0.367-1.267,1.1-2.134,2.2-2.6
		c0.566-0.233,1.083-0.334,1.55-0.301c-0.167-1-0.233-2.083-0.2-3.25c0.066-2.366,0.65-3.949,1.75-4.75c1.1-0.8,2.6-1.05,4.5-0.75
		c0.933,0.167,1.767,0.417,2.5,0.75c0.1-0.533,0.35-1.133,0.75-1.8c0.833-1.3,2.033-2.25,3.6-2.85c1.6-0.567,3.534-0.417,5.8,0.45
		c1.133,0.434,2.1,0.933,2.9,1.5c0.4-0.634,0.917-1.284,1.55-1.95c1.233-1.267,2.4-1.867,3.5-1.8c1.101,0.067,2.267,0.85,3.5,2.35
		c0.634,0.767,1.15,1.517,1.55,2.25l2.5-0.9C39.967,39.1,41.417,39.083,42.45,39.55z"/>
	<g>
		<path style="fill-rule:evenodd;clip-rule:evenodd;fill:#95A973;" d="M3.7,47.1c0.066-2.366,0.65-3.949,1.75-4.75
			c1.1-0.8,2.6-1.05,4.5-0.75c0.933,0.167,1.767,0.417,2.5,0.75l1.85-0.25c1.4,0,2.467,0.317,3.2,0.95c0.767,0.634,1.117,1.3,1.05,2
			c-0.033,0.334-0.15,0.601-0.35,0.8L19.75,46c1.1,0.3,1.8,0.85,2.1,1.65c0.3,0.8,0.25,1.733-0.15,2.8c-0.2,0.5-0.434,0.934-0.7,1.3
			l1.3,0.8c0.833,0.7,1.1,1.45,0.8,2.25c-0.467,1.3-1.2,2.384-2.2,3.25l1.75,0.351c1.2,0.433,1.817,1.05,1.85,1.85
			c0.1,1.333-0.267,2.417-1.1,3.25l1.2-0.35c0.967-0.167,1.917-0.051,2.851,0.35c0.934,0.434,1.517,0.983,1.75,1.65
			c0.133,0.333,0.166,0.616,0.1,0.85c0.233-0.3,0.55-0.616,0.95-0.95c0.8-0.633,1.6-1.017,2.4-1.149
			c0.8-0.101,1.416,0.133,1.85,0.699c0.233,0.267,0.366,0.551,0.4,0.851c0.199-0.267,0.466-0.533,0.8-0.8
			c0.666-0.534,1.283-0.817,1.85-0.851c0.834-0.1,1.45-0.017,1.851,0.25h-0.15l0.4,1.351c0.133,1.066-0.101,2.066-0.7,3l-0.05,0.1
			c-0.634-0.767-1.267-1.134-1.9-1.1c-0.634,0.066-1.15,0.35-1.55,0.85c-0.2,0.233-0.334,0.467-0.4,0.7
			c-0.3-0.467-0.967-0.75-2-0.851c-0.633-0.033-1.233,0.101-1.8,0.4l-0.7,0.45c-1.767-1.033-3.267-1.55-4.5-1.55
			c-0.733,0-1.566,0.35-2.5,1.05c-0.466,0.366-0.85,0.717-1.15,1.05c0.2-0.634,0.017-1.333-0.55-2.1c-0.367-0.467-1-0.817-1.9-1.051
			l-1.3-0.199c0.533-0.634,0.85-1.567,0.95-2.801c0.066-0.733-0.35-1.283-1.25-1.649l-1.4-0.3c0.367-1.867,0.316-3.417-0.15-4.65
			c-0.3-0.733-0.833-1.316-1.6-1.75l-1.05-0.45c0.3-0.267,0.567-0.6,0.8-1c0.466-0.8,0.533-1.55,0.2-2.25
			c-0.367-0.7-1.15-1.149-2.35-1.35l-1.75-0.05c0.1-0.634,0.067-1.267-0.1-1.9c-0.3-1.3-1.1-1.967-2.4-2
			c-1.3-0.066-2.466,0.634-3.5,2.1c-0.5,0.767-0.883,1.517-1.15,2.25C3.733,49.35,3.667,48.267,3.7,47.1z"/>
		<path style="fill-rule:evenodd;clip-rule:evenodd;fill:#819467;" d="M5.05,48.1c1.034-1.466,2.2-2.166,3.5-2.1
			c1.3,0.033,2.1,0.7,2.4,2c0.167,0.634,0.2,1.267,0.1,1.9l1.75,0.05c1.2,0.2,1.983,0.649,2.35,1.35c0.333,0.7,0.267,1.45-0.2,2.25
			c-0.233,0.4-0.5,0.733-0.8,1L15.2,55c0.767,0.434,1.3,1.017,1.6,1.75c0.467,1.233,0.517,2.783,0.15,4.65l1.4,0.3
			c0.9,0.366,1.316,0.916,1.25,1.649c-0.1,1.233-0.417,2.167-0.95,2.801l1.3,0.199c0.9,0.233,1.533,0.584,1.9,1.051
			c0.566,0.767,0.75,1.466,0.55,2.1c0.3-0.333,0.684-0.684,1.15-1.05c0.934-0.7,1.767-1.05,2.5-1.05c1.233,0,2.733,0.517,4.5,1.55
			l0.7-0.45c0.566-0.3,1.167-0.434,1.8-0.4c1.033,0.101,1.7,0.384,2,0.851c0.066-0.233,0.2-0.467,0.4-0.7
			c0.399-0.5,0.916-0.783,1.55-0.85c0.634-0.034,1.267,0.333,1.9,1.1c-0.601,0.9-1.5,1.583-2.7,2.05l-1.601,0.4
			c-1.899,0.1-3.583-0.15-5.05-0.75L27.9,69.25c-0.733,0.533-1.601,1.033-2.601,1.5c-1.966,0.967-3.533,1.35-4.7,1.15
			c-1.167-0.167-1.95-0.75-2.35-1.75l-0.3-1.45c-1.2,0.566-2.517,1.083-3.95,1.55c-2.833,0.967-4.75,1.233-5.75,0.8
			C7.283,70.65,6.833,69.684,6.9,68.15L7.3,66c-0.733,0.066-1.533,0.017-2.4-0.15c-1.733-0.267-2.9-0.866-3.5-1.8
			c-0.566-0.934-0.483-1.934,0.25-3l1.3-1.35c-0.6-0.566-1.167-1.25-1.7-2.05c-1.1-1.634-1.467-3.101-1.1-4.4
			c0.367-1.267,1.1-2.134,2.2-2.6c0.566-0.233,1.083-0.334,1.55-0.301C4.167,49.616,4.55,48.866,5.05,48.1z"/>
	</g>
	<g>
		<g>
			<path style="fill-rule:evenodd;clip-rule:evenodd;fill:#87A659;" d="M36.2,48.9c-0.101-1.233-0.533-1.934-1.3-2.101
				c-0.467-0.1-0.767,0.267-0.9,1.101c-0.066,0.433-0.083,0.866-0.05,1.3c-0.2-0.4-0.316-0.816-0.351-1.25
				c-0.033-0.867,0.334-1.367,1.101-1.5c0.767-0.101,1.25,0.267,1.45,1.1C36.35,48.316,36.366,48.767,36.2,48.9z"/>
		</g>
	</g>
	<g>
		<g>
			<path style="fill-rule:evenodd;clip-rule:evenodd;fill:#87A659;" d="M33.9,58.75c-0.134-1.866-0.733-2.934-1.801-3.2
				c-0.699-0.2-1.199,0.334-1.5,1.601c-0.133,0.633-0.216,1.283-0.25,1.949C30.116,58.467,30,57.816,30,57.15
				c0-1.334,0.6-2.051,1.8-2.15C33.533,54.7,34.233,55.95,33.9,58.75z"/>
		</g>
	</g>
	<g>
		<g>
			<path style="fill-rule:evenodd;clip-rule:evenodd;fill:#87A659;" d="M26.4,47.15c0.3-0.434,0.517-0.934,0.649-1.5
				c0.334-1.134,0.101-1.983-0.7-2.551c-0.899-0.5-1.633-0.083-2.199,1.25c-0.267,0.667-0.45,1.367-0.55,2.101
				c-0.2-0.767-0.267-1.517-0.2-2.25c0.2-1.467,1.133-2.084,2.8-1.851c1.7,0.534,2.217,1.483,1.55,2.851
				C27.417,45.9,26.967,46.55,26.4,47.15z"/>
		</g>
	</g>
	<g>
		<g>
			<path style="fill-rule:evenodd;clip-rule:evenodd;fill:#87A659;" d="M38.6,61.35c-0.033-0.333-0.116-0.699-0.25-1.1
				c-0.267-0.733-0.699-1.116-1.3-1.15c-0.633,0-0.934,0.483-0.899,1.45c0.033,0.5,0.133,0.983,0.3,1.45
				c-0.334-0.4-0.584-0.833-0.75-1.3c-0.334-0.934,0-1.584,1-1.95c1-0.333,1.616,0,1.85,1C38.65,60.283,38.667,60.816,38.6,61.35z"
				/>
		</g>
	</g>
	<g>
		<g>
			<path style="fill-rule:evenodd;clip-rule:evenodd;fill:#87A659;" d="M25.25,56.35c0.3-1.267,0.083-2.066-0.65-2.399
				c-0.466-0.2-0.866,0.1-1.2,0.899c-0.133,0.434-0.233,0.867-0.3,1.301c-0.133-0.434-0.167-0.884-0.1-1.351
				c0.1-0.866,0.583-1.283,1.45-1.25c0.866,0.066,1.267,0.55,1.2,1.45C25.616,55.467,25.483,55.917,25.25,56.35z"/>
		</g>
	</g>
	<g>
		<g>
			<path style="fill-rule:evenodd;clip-rule:evenodd;fill:#87A659;" d="M45.9,51.95c-0.101-1.3-0.584-2.033-1.45-2.2
				C43.917,49.684,43.634,50.1,43.6,51c-0.033,0.434-0.017,0.884,0.051,1.35c-0.267-0.399-0.434-0.833-0.5-1.3
				c-0.167-0.899,0.183-1.45,1.05-1.649c0.866-0.167,1.399,0.199,1.6,1.1C45.934,50.967,45.967,51.45,45.9,51.95z"/>
		</g>
	</g>
	<g>
		<g>
			<path style="fill-rule:evenodd;clip-rule:evenodd;fill:#87A659;" d="M40,42.2c-0.267-0.101-0.467,0.116-0.6,0.649
				C39.3,43.116,39.233,43.4,39.2,43.7C39.1,43.6,39.066,43.3,39.1,42.8c0.067-0.566,0.334-0.85,0.801-0.85
				c0.566-0.101,0.883,0.416,0.949,1.55C40.684,42.733,40.4,42.3,40,42.2z"/>
		</g>
	</g>
	<g>
		<g>
			<path style="fill-rule:evenodd;clip-rule:evenodd;fill:#647A46;" d="M8.8,61.25c0.133-0.467,0.184-0.967,0.15-1.5
				c-0.067-1.066-0.467-1.767-1.2-2.1C7.05,57.316,6.467,57.783,6,59.05C5.767,59.65,5.6,60.3,5.5,61
				c-0.167-0.7-0.217-1.384-0.15-2.05c0.167-1.334,0.9-1.967,2.2-1.9c1.333,0.066,1.95,0.783,1.85,2.15
				C9.333,59.9,9.133,60.583,8.8,61.25z"/>
		</g>
	</g>
	<g>
		<g>
			<path style="fill-rule:evenodd;clip-rule:evenodd;fill:#647A46;" d="M12.95,67.8c0.2-1.6-0.133-2.583-1-2.95
				c-0.4-0.3-0.883,0.034-1.45,1c-0.3,0.5-0.567,1.017-0.8,1.551C9.533,67.3,9.633,66.75,10,65.75c0.433-1.066,1.033-1.533,1.8-1.4
				C13.3,64.35,13.683,65.5,12.95,67.8z"/>
		</g>
	</g>
	<g>
		<g>
			<path style="fill-rule:evenodd;clip-rule:evenodd;fill:#647A46;" d="M15.45,49.1c0.3-0.8,0.216-1.399-0.25-1.8
				c-0.467-0.399-1.017-0.2-1.65,0.601c-0.3,0.399-0.566,0.833-0.8,1.3c0.033-0.533,0.15-1.05,0.35-1.55
				c0.4-0.934,1.1-1.2,2.1-0.801c1,0.4,1.25,1.067,0.75,2c-0.233,0.467-0.567,0.9-1,1.301C15.15,49.85,15.317,49.5,15.45,49.1z"/>
		</g>
	</g>
	<g>
		<g>
			<path style="fill-rule:evenodd;clip-rule:evenodd;fill:#647A46;" d="M22.4,64.9c-0.4-0.967-0.933-1.417-1.6-1.351
				c-0.4,0.033-0.55,0.4-0.45,1.101c0.033,0.366,0.117,0.733,0.25,1.1c-0.133,0.134-0.333-0.184-0.6-0.95
				c-0.267-0.7-0.083-1.2,0.55-1.5c0.567-0.3,1.05-0.133,1.45,0.5C22.367,64.434,22.5,64.8,22.4,64.9z"/>
		</g>
	</g>
	<g>
		<g>
			<path style="fill-rule:evenodd;clip-rule:evenodd;fill:#647A46;" d="M27.65,68.5c0.066-0.967-0.217-1.517-0.851-1.65
				c-0.366-0.066-0.6,0.217-0.7,0.851c-0.066,0.333-0.083,0.666-0.05,1c-0.166-0.3-0.267-0.617-0.3-0.95
				c-0.033-0.667,0.267-1.05,0.9-1.15c0.633-0.1,1,0.184,1.1,0.851C27.783,67.783,27.75,68.134,27.65,68.5z"/>
		</g>
	</g>
	<g>
		<g>
			<path style="fill-rule:evenodd;clip-rule:evenodd;fill:#647A46;" d="M16.45,58c0.1-0.267,0.167-0.566,0.2-0.9
				c0.033-0.633-0.15-1.05-0.55-1.25c-0.467-0.233-0.85,0.017-1.15,0.75c-0.133,0.367-0.233,0.75-0.3,1.15
				c-0.1-0.4-0.117-0.8-0.05-1.2c0.1-0.8,0.566-1.149,1.4-1.05s1.15,0.533,0.95,1.3C16.85,57.2,16.683,57.6,16.45,58z"/>
		</g>
	</g>
	<g>
		<g>
			<path style="fill-rule:evenodd;clip-rule:evenodd;fill:#647A46;" d="M8.85,48C8.617,47.8,8.333,47.967,8,48.5
				c-0.167,0.267-0.3,0.55-0.4,0.85c-0.133,0-0.083-0.3,0.15-0.899C7.95,47.85,8.3,47.6,8.8,47.7c0.833,0.2,0.967,0.866,0.4,2
				C9.433,48.866,9.317,48.3,8.85,48z"/>
		</g>
	</g>
	<path style="fill-rule:evenodd;clip-rule:evenodd;fill:#C1CDA5;" d="M28,40.45c0.566-0.5,1.167-0.95,1.8-1.351
		c1.3-0.8,2.217-0.917,2.75-0.35c0.533,0.6,0.7,1.85,0.5,3.75c-0.066,0.934-0.2,1.816-0.399,2.65c0.133-3.334-0.15-5.084-0.851-5.25
		c-0.7-0.134-1.533-0.084-2.5,0.149L28,40.45z"/>
	<path style="fill-rule:evenodd;clip-rule:evenodd;fill:#C1CDA5;" d="M42.75,48.75c-0.767-1.333-1.583-1.9-2.45-1.7
		c-0.533,0.134-1.05,0.65-1.55,1.55c-0.267,0.467-0.483,0.9-0.65,1.301c0.167-0.7,0.4-1.417,0.7-2.15
		c0.634-1.434,1.351-2.15,2.15-2.15s1.333,0.534,1.6,1.601C42.717,47.7,42.783,48.217,42.75,48.75z"/>
	<path style="fill-rule:evenodd;clip-rule:evenodd;fill:#C1CDA5;" d="M28.95,53.6c0.233-0.533,0.566-1.033,1-1.5
		c0.833-0.933,1.7-1.283,2.6-1.05c0.934,0.267,1.617,1.117,2.05,2.55c0.2,0.733,0.317,1.434,0.351,2.101
		c-0.9-2.033-1.733-3.167-2.5-3.4c-0.467-0.133-1.2,0.05-2.2,0.55L28.95,53.6z"/>
	<g>
		<g>
			<path style="fill-rule:evenodd;clip-rule:evenodd;fill:#C1CDA5;" d="M41.05,58.3C40.616,57.934,40.4,57.4,40.4,56.7
				c0.033-0.4,0.149-0.733,0.35-1l0.3-0.25c0,0.033,0.084,0.166,0.25,0.399c0.134,0.301,0.184,0.617,0.15,0.95
				C41.45,57.333,41.316,57.833,41.05,58.3z"/>
		</g>
	</g>
	<g>
		<g>
			<path style="fill-rule:evenodd;clip-rule:evenodd;fill:#C1CDA5;" d="M30.9,61.05c0-0.166,0.066-0.333,0.199-0.5l0.4-0.25
				l-0.15,0.5C31.217,60.934,31.066,61.017,30.9,61.05z"/>
		</g>
	</g>
	<g>
		<g>
			<path style="fill-rule:evenodd;clip-rule:evenodd;fill:#C1CDA5;" d="M25.8,61.2c-0.2-0.533-0.166-1.084,0.101-1.65
				c0.133-0.333,0.333-0.583,0.6-0.75l0.35-0.149l0.101,0.399c0.033,0.334-0.017,0.65-0.15,0.95C26.566,60.5,26.233,60.9,25.8,61.2z
				"/>
		</g>
	</g>
	<g>
		<g>
			<path style="fill-rule:evenodd;clip-rule:evenodd;fill:#C1CDA5;" d="M29.45,48.65c-0.167-0.367-0.167-0.784,0-1.25
				c0.1-0.301,0.233-0.517,0.399-0.65l0.25-0.1l0.101,0.3c0.066,0.267,0.05,0.517-0.05,0.75C30.017,48.1,29.783,48.417,29.45,48.65z
				"/>
		</g>
	</g>
	<g>
		<g>
			<path style="fill-rule:evenodd;clip-rule:evenodd;fill:#C1CDA5;" d="M21.4,41.35c-0.633-0.199-1.15-0.517-1.55-0.949
				c-0.3-0.2-0.517-0.45-0.65-0.75l-0.1-0.45l0.45-0.05c0.4,0.033,0.784,0.183,1.15,0.449C21.167,40.134,21.4,40.717,21.4,41.35z"/>
		</g>
	</g>
	<g>
		<g>
			<path style="fill-rule:evenodd;clip-rule:evenodd;fill:#C1CDA5;" d="M36.05,39.2c-0.1-0.267-0.066-0.55,0.101-0.85
				c0.133-0.167,0.267-0.267,0.399-0.3c0.101,0,0.167,0,0.2,0c0.033,0.233-0.033,0.434-0.2,0.6
				C36.45,38.85,36.283,39.033,36.05,39.2z"/>
		</g>
	</g>
	<g>
		<g>
			<path style="fill-rule:evenodd;clip-rule:evenodd;fill:#C1CDA5;" d="M25.6,38c-0.466-0.067-0.85-0.317-1.149-0.75
				c-0.2-0.267-0.316-0.533-0.351-0.8l0.051-0.3l0.35,0.1c0.267,0.1,0.483,0.267,0.65,0.5C25.417,37.117,25.566,37.533,25.6,38z"/>
		</g>
	</g>
	<g>
		<g>
			<path style="fill-rule:evenodd;clip-rule:evenodd;fill:#C1CDA5;" d="M45.6,46.2c0.034-0.101,0.101-0.233,0.2-0.4
				c0.233-0.3,0.5-0.517,0.8-0.649c0.5-0.233,0.9-0.267,1.2-0.101c-0.133,0.4-0.416,0.7-0.85,0.9C46.55,46.15,46.1,46.233,45.6,46.2
				z"/>
		</g>
	</g>
	<g>
		<g>
			<path style="fill-rule:evenodd;clip-rule:evenodd;fill:#C1CDA5;" d="M45.85,56.6l0.5-0.149c0.367-0.066,0.717-0.066,1.051,0
				c0.566,0.166,0.899,0.434,1,0.8c-0.367,0.233-0.801,0.283-1.301,0.15c-0.3-0.101-0.6-0.267-0.899-0.5L45.85,56.6z"/>
		</g>
	</g>
	<g>
		<g>
			<path style="fill-rule:evenodd;clip-rule:evenodd;fill:#C1CDA5;" d="M11.9,40.8c-0.5-0.066-0.883-0.383-1.15-0.95
				c-0.1-0.366-0.1-0.666,0-0.899l0.15-0.3l0.3,0.25c0.2,0.234,0.333,0.466,0.4,0.7C11.767,39.934,11.867,40.333,11.9,40.8z"/>
		</g>
	</g>
	<g>
		<path style="fill-rule:evenodd;clip-rule:evenodd;fill:#C24458;" d="M12.25,50.5c1.1-0.3,1.717,0.033,1.85,1
			s-0.283,1.533-1.25,1.7c-0.9,0.166-1.417-0.184-1.55-1.05C11.133,51.25,11.45,50.7,12.25,50.5z"/>
		<path style="fill-rule:evenodd;clip-rule:evenodd;fill:#CD6A70;" d="M13.1,50.9c0.133-0.034,0.25,0.066,0.35,0.3
			c0.1,0.233,0.1,0.35,0,0.35c-0.133,0-0.267-0.1-0.4-0.3C12.95,51.05,12.967,50.934,13.1,50.9z"/>
		<g>
			<path style="fill-rule:evenodd;clip-rule:evenodd;fill:#9D3A4B;" d="M12.85,53.2c-0.9,0.166-1.417-0.184-1.55-1.05
				c-0.167-0.9,0.15-1.45,0.95-1.65l-0.2,0.7c-0.1,0.5,0,0.85,0.3,1.05c0.233,0.167,0.55,0.233,0.95,0.2
				c0.267-0.066,0.5-0.15,0.7-0.25C13.833,52.733,13.45,53.066,12.85,53.2z"/>
		</g>
	</g>
	<g>
		<path style="fill-rule:evenodd;clip-rule:evenodd;fill:#C24458;" d="M41.65,61.65c1-0.267,1.566,0.033,1.699,0.899
			c0.101,0.867-0.3,1.384-1.199,1.55c-0.834,0.167-1.317-0.149-1.45-0.949C40.566,62.316,40.884,61.816,41.65,61.65z"/>
		<path style="fill-rule:evenodd;clip-rule:evenodd;fill:#CD6A70;" d="M42.4,62.05c0.133-0.033,0.233,0.05,0.3,0.25
			c0.1,0.2,0.1,0.3,0,0.3c-0.101,0-0.217-0.083-0.351-0.25C42.25,62.184,42.267,62.083,42.4,62.05z"/>
		<g>
			<path style="fill-rule:evenodd;clip-rule:evenodd;fill:#9D3A4B;" d="M42.15,64.1c-0.834,0.167-1.317-0.149-1.45-0.949
				c-0.134-0.834,0.184-1.334,0.95-1.5l-0.2,0.649c-0.101,0.467-0.017,0.783,0.25,0.95c0.233,0.167,0.517,0.217,0.85,0.15
				c0.3-0.034,0.533-0.101,0.7-0.2C43.083,63.7,42.717,64,42.15,64.1z"/>
		</g>
	</g>
	<g>
		<path style="fill-rule:evenodd;clip-rule:evenodd;fill:#C24458;" d="M36.35,41.75c1.067-0.267,1.667,0.066,1.801,1
			c0.166,0.967-0.233,1.533-1.2,1.7c-0.934,0.166-1.467-0.184-1.601-1.05C35.184,42.533,35.517,41.983,36.35,41.75z"/>
		<path style="fill-rule:evenodd;clip-rule:evenodd;fill:#CD6A70;" d="M37.15,42.2c0.133-0.033,0.267,0.066,0.399,0.3
			c0.101,0.233,0.084,0.35-0.05,0.35s-0.267-0.1-0.4-0.3C37,42.35,37.017,42.233,37.15,42.2z"/>
		<g>
			<path style="fill-rule:evenodd;clip-rule:evenodd;fill:#9D3A4B;" d="M36.95,44.45c-0.934,0.166-1.467-0.184-1.601-1.05
				c-0.166-0.867,0.167-1.417,1-1.65l-0.25,0.7c-0.1,0.533,0,0.899,0.301,1.1c0.366,0.233,0.933,0.217,1.699-0.05
				C37.934,44.033,37.55,44.35,36.95,44.45z"/>
		</g>
	</g>
	<g>
		<path style="fill-rule:evenodd;clip-rule:evenodd;fill:#C24458;" d="M15.65,36.7c1.067-0.267,1.667,0.066,1.8,1
			c0.133,0.966-0.284,1.533-1.25,1.7c-0.9,0.166-1.417-0.184-1.55-1.05C14.483,37.483,14.817,36.933,15.65,36.7z"/>
		<path style="fill-rule:evenodd;clip-rule:evenodd;fill:#CD6A70;" d="M16.45,37.15c0.133-0.033,0.267,0.067,0.4,0.3
			c0.1,0.233,0.083,0.35-0.05,0.35s-0.267-0.1-0.4-0.3C16.3,37.3,16.317,37.183,16.45,37.15z"/>
		<g>
			<path style="fill-rule:evenodd;clip-rule:evenodd;fill:#9D3A4B;" d="M16.2,39.4c-0.9,0.166-1.417-0.184-1.55-1.05
				c-0.167-0.867,0.167-1.417,1-1.65l-0.25,0.75c-0.1,0.5,0,0.85,0.3,1.05c0.333,0.233,0.9,0.217,1.7-0.05
				C17.167,38.983,16.767,39.3,16.2,39.4z"/>
		</g>
	</g>
	<g>
		<path style="fill-rule:evenodd;clip-rule:evenodd;fill:#C24458;" d="M26.6,50.2c0.101,0.8-0.25,1.283-1.05,1.45
			c-0.8,0.133-1.25-0.167-1.35-0.9c-0.134-0.767,0.149-1.233,0.85-1.4C25.95,49.116,26.467,49.4,26.6,50.2z"/>
		<path style="fill-rule:evenodd;clip-rule:evenodd;fill:#CD6A70;" d="M25.7,49.7c0.133-0.033,0.233,0.05,0.3,0.25
			c0.1,0.2,0.1,0.3,0,0.3s-0.2-0.083-0.3-0.25C25.566,49.833,25.566,49.733,25.7,49.7z"/>
		<g>
			<path style="fill-rule:evenodd;clip-rule:evenodd;fill:#9D3A4B;" d="M25.55,51.65c-0.8,0.133-1.25-0.167-1.35-0.9
				c-0.134-0.767,0.149-1.233,0.85-1.4l-0.2,0.601c-0.066,0.434,0.017,0.733,0.25,0.899c0.301,0.233,0.767,0.217,1.4-0.05
				C26.4,51.267,26.083,51.55,25.55,51.65z"/>
		</g>
	</g>
	<g>
		<path style="fill-rule:evenodd;clip-rule:evenodd;fill:#C24458;" d="M15.05,62.55c0.867-0.233,1.367,0.033,1.5,0.8
			c0.1,0.767-0.25,1.233-1.05,1.4c-0.733,0.134-1.167-0.15-1.3-0.85C14.067,63.167,14.35,62.717,15.05,62.55z"/>
		<path style="fill-rule:evenodd;clip-rule:evenodd;fill:#CD6A70;" d="M15.7,62.9c0.133-0.034,0.233,0.05,0.3,0.25
			c0.1,0.199,0.1,0.3,0,0.3s-0.2-0.084-0.3-0.25C15.567,63.033,15.567,62.934,15.7,62.9z"/>
		<g>
			<path style="fill-rule:evenodd;clip-rule:evenodd;fill:#9D3A4B;" d="M15.5,64.75c-0.733,0.134-1.167-0.15-1.3-0.85
				c-0.133-0.733,0.15-1.184,0.85-1.351l-0.2,0.601c-0.1,0.399-0.033,0.683,0.2,0.85c0.333,0.2,0.8,0.184,1.4-0.05
				C16.25,64.384,15.933,64.65,15.5,64.75z"/>
		</g>
	</g>
	<path style="fill-rule:evenodd;clip-rule:evenodd;fill:#A99269;" d="M31.45,4.1c-4.5,11.467-7,18.7-7.5,21.7
		c-0.633,4-0.667,9.067-0.1,15.2c-0.133,0.233-0.333,0.333-0.6,0.3c-0.2-0.033-0.333-0.083-0.4-0.149L22.75,41
		c-0.1-1.4-0.15-3.117-0.15-5.15c0-4,0.25-7.483,0.75-10.45c0.533-2.967,2.034-7.4,4.5-13.3C29.116,9.133,30.316,6.467,31.45,4.1z"
		/>
	<path style="fill-rule:evenodd;clip-rule:evenodd;fill:#A5BA7E;" d="M36,2.1c0.6,0.267,0.667,0.983,0.2,2.15
		c-0.233,0.567-0.533,1.117-0.9,1.65l0.8,1c0.5,0.767,0.567,1.5,0.2,2.2c-0.366,0.7-0.866,1.033-1.5,1L33.9,9.8
		c-0.101,0.534-0.267,1.05-0.5,1.55c-0.467,1-1.084,1.467-1.851,1.4c-0.767-0.033-1.35-0.4-1.75-1.1l-0.399-1
		c-1.467,0.567-2.634,0.533-3.5-0.1C25.366,10.15,25.267,9.633,25.6,9L26.2,8.15c-0.267-0.333-0.5-0.733-0.7-1.2
		c-0.4-0.9-0.45-1.617-0.15-2.15c0.467-0.867,1.5-1.2,3.101-1c-0.066-0.433-0.066-0.883,0-1.35c0.166-0.9,0.633-1.383,1.399-1.45
		C30.65,0.933,31.366,1.15,32,1.65c0.3,0.233,0.517,0.483,0.65,0.75L33.8,2.05C34.7,1.85,35.434,1.867,36,2.1z"/>
	<path style="fill-rule:evenodd;clip-rule:evenodd;fill:#A5BA7E;" d="M21.85,21.45L22.6,21c0.667-0.333,1.4-0.5,2.2-0.5
		s1.351,0.367,1.65,1.1c0.133,0.367,0.184,0.733,0.149,1.1l0.9-0.55c0.8-0.3,1.634-0.3,2.5,0c0.866,0.3,1.217,0.833,1.05,1.6
		c-0.066,0.367-0.233,0.717-0.5,1.05c1.601,1.133,2.2,2.034,1.8,2.7c-0.366,0.633-1.85,0.533-4.449-0.3
		c-0.767,1.033-1.801,1.55-3.101,1.55c-0.8,0-1.533-0.317-2.2-0.95l-0.75-1c-0.833,0.934-1.767,1.2-2.8,0.8
		c-0.633-0.233-1.066-0.667-1.3-1.3l-0.1-0.9c-1.967-0.767-2.85-1.617-2.65-2.55c0.1-0.567,0.567-0.85,1.4-0.85
		c0.434,0,0.85,0.05,1.25,0.15c-0.033-0.267,0-0.566,0.1-0.9c0.233-0.6,0.667-1,1.3-1.2C19.983,19.783,20.917,20.25,21.85,21.45z"/>
	<g>
		<g>
			<path style="fill-rule:evenodd;clip-rule:evenodd;fill:#C1CDA5;" d="M37.025,5.65c0.025-0.02,0.084-0.086,0.175-0.2
				c0.166-0.167,0.383-0.284,0.649-0.35c0.434-0.1,0.7-0.067,0.801,0.1C38.483,5.467,38.267,5.633,38,5.7
				c-0.2,0.033-0.417,0.033-0.65,0C37.18,5.671,37.071,5.655,37.025,5.65z"/>
		</g>
	</g>
	<g>
		<g>
			<path style="fill-rule:evenodd;clip-rule:evenodd;fill:#C1CDA5;" d="M33.4,1.45c0-0.1,0-0.217,0-0.35
				c0.033-0.233,0.116-0.45,0.25-0.65C33.85,0.15,34.083,0,34.35,0c0.034,0.3-0.05,0.583-0.25,0.85
				c-0.133,0.2-0.283,0.35-0.449,0.45L33.4,1.45z"/>
		</g>
	</g>
	<g>
		<g>
			<path style="fill-rule:evenodd;clip-rule:evenodd;fill:#C1CDA5;" d="M31.95,24.9l0.35-0.25c0.267-0.167,0.55-0.267,0.851-0.3
				c0.466-0.033,0.816,0.083,1.05,0.35c-0.2,0.267-0.533,0.417-1,0.45c-0.3,0.033-0.601,0-0.9-0.1L31.95,24.9z"/>
		</g>
	</g>
	<g>
		<g>
			<path style="fill-rule:evenodd;clip-rule:evenodd;fill:#C1CDA5;" d="M27.25,21.5c0-0.1,0-0.233,0-0.4
				c0.066-0.3,0.2-0.567,0.4-0.8c0.3-0.367,0.616-0.533,0.949-0.5c0.034,0.333-0.083,0.667-0.35,1
				C27.983,21.133,27.65,21.367,27.25,21.5z"/>
		</g>
	</g>
	<g>
		<g>
			<path style="fill-rule:evenodd;clip-rule:evenodd;fill:#C1CDA5;" d="M28.4,28.25h0.35c0.3,0.033,0.55,0.15,0.75,0.35
				c0.366,0.267,0.533,0.55,0.5,0.85c-0.333,0.066-0.65-0.034-0.95-0.3c-0.2-0.133-0.366-0.333-0.5-0.6L28.4,28.25z"/>
		</g>
	</g>
	<g>
		<path style="fill-rule:evenodd;clip-rule:evenodd;fill:#819467;" d="M31.2,11.8c0.467,0.2,1.083,0.25,1.85,0.15
			c-0.467,0.566-0.967,0.833-1.5,0.8c-0.767-0.033-1.35-0.4-1.75-1.1l-0.399-1c-1.467,0.567-2.634,0.533-3.5-0.1
			C25.366,10.15,25.267,9.633,25.6,9L26.2,8.15c-0.267-0.333-0.5-0.733-0.7-1.2c-0.4-0.9-0.45-1.617-0.15-2.15
			c0.467-0.867,1.5-1.2,3.101-1c-0.066-0.433-0.066-0.883,0-1.35c0.166-0.9,0.633-1.383,1.399-1.45C30.65,0.933,31.366,1.15,32,1.65
			c0.3,0.233,0.517,0.483,0.65,0.75c-1.2-0.267-1.934-0.15-2.2,0.35c-0.134,0.3-0.084,0.7,0.149,1.2
			c0.134,0.233,0.284,0.433,0.45,0.6c-0.3,0.034-0.633,0.1-1,0.2c-0.666,0.167-1.066,0.433-1.2,0.8c-0.166,0.567,0,1.217,0.5,1.95
			c-0.133,0.1-0.283,0.217-0.449,0.35c-0.267,0.3-0.367,0.633-0.301,1c0.067,0.566,0.567,0.8,1.5,0.7l0.2,0.95
			C30.5,11.167,30.8,11.6,31.2,11.8z"/>
	</g>
	<g>
		<path style="fill-rule:evenodd;clip-rule:evenodd;fill:#819467;" d="M21.85,21.45c-0.267-0.067-0.55-0.117-0.85-0.15
			c-0.6-0.033-1,0.067-1.2,0.3c-0.267,0.367-0.117,0.833,0.45,1.4l-0.4,0.15c-0.3,0.2-0.45,0.5-0.45,0.9c0,0.667,0.733,1,2.2,1
			l0.4,0.9c0.333,0.6,0.7,0.917,1.1,0.95c0.667,0.1,1.233,0.083,1.7-0.05l0.2,0.6c0.167,0.367,0.434,0.533,0.8,0.5
			c0.533-0.034,1.233-0.284,2.101-0.75c-0.767,1.033-1.801,1.55-3.101,1.55c-0.8,0-1.533-0.317-2.2-0.95l-0.75-1
			c-0.833,0.934-1.767,1.2-2.8,0.8c-0.633-0.233-1.066-0.667-1.3-1.3l-0.1-0.9c-1.967-0.767-2.85-1.617-2.65-2.55
			c0.1-0.567,0.567-0.85,1.4-0.85c0.434,0,0.85,0.05,1.25,0.15c-0.033-0.267,0-0.566,0.1-0.9c0.233-0.6,0.667-1,1.3-1.2
			C19.983,19.783,20.917,20.25,21.85,21.45z"/>
	</g>
	<g>
		<g>
			<path style="fill-rule:evenodd;clip-rule:evenodd;fill:#647A46;" d="M18,24.2c0.1-0.467,0.033-0.767-0.2-0.9
				c-0.133-0.1-0.283-0.017-0.45,0.25c-0.1,0.133-0.184,0.284-0.25,0.45c0-0.167,0.033-0.333,0.1-0.5c0.1-0.3,0.283-0.433,0.55-0.4
				C18.217,23.2,18.3,23.567,18,24.2z"/>
		</g>
	</g>
	<g>
		<g>
			<path style="fill-rule:evenodd;clip-rule:evenodd;fill:#647A46;" d="M19.85,27.3c0.133-0.533,0.05-0.867-0.25-1
				c-0.2-0.066-0.367,0.067-0.5,0.4c-0.067,0.167-0.117,0.333-0.15,0.5c-0.034-0.167-0.05-0.35-0.05-0.55
				c0.067-0.367,0.283-0.533,0.65-0.5C20.117,26.183,20.217,26.567,19.85,27.3z"/>
		</g>
	</g>
	<g>
		<g>
			<path style="fill-rule:evenodd;clip-rule:evenodd;fill:#647A46;" d="M27.75,7.5c0.1-0.233,0.167-0.483,0.2-0.75
				c0.066-0.567-0.084-0.967-0.45-1.2c-0.366-0.2-0.717,0-1.05,0.6l-0.351,1c-0.033-0.367-0.017-0.717,0.051-1.05
				c0.166-0.7,0.6-1,1.3-0.9c0.767,0.167,1.033,0.6,0.8,1.3C28.116,6.833,27.95,7.167,27.75,7.5z"/>
		</g>
	</g>
	<g>
		<g>
			<path style="fill-rule:evenodd;clip-rule:evenodd;fill:#647A46;" d="M27.65,10c0.133-0.533,0.033-0.867-0.301-1
				C27.15,8.933,27,9.083,26.9,9.45C26.833,9.617,26.783,9.8,26.75,10c-0.033-0.2-0.05-0.383-0.05-0.55c0.033-0.4,0.233-0.6,0.6-0.6
				C27.9,8.85,28.017,9.233,27.65,10z"/>
		</g>
	</g>
	<g>
		<g>
			<path style="fill-rule:evenodd;clip-rule:evenodd;fill:#87A659;" d="M24.3,23.85c0.2-0.767,0.101-1.283-0.3-1.55
				c-0.233-0.167-0.5,0-0.8,0.5c-0.133,0.233-0.267,0.483-0.4,0.75c-0.133,0-0.083-0.267,0.15-0.8c0.2-0.533,0.533-0.767,1-0.7
				C24.717,22.183,24.833,22.783,24.3,23.85z"/>
		</g>
	</g>
	<g>
		<g>
			<path style="fill-rule:evenodd;clip-rule:evenodd;fill:#87A659;" d="M25.6,26.1c0.167-0.633,0.034-1.033-0.399-1.2
				c-0.267-0.066-0.45,0.1-0.55,0.5c-0.034,0.2-0.051,0.417-0.051,0.65c-0.066-0.2-0.116-0.417-0.149-0.65
				c0-0.433,0.233-0.667,0.7-0.7c0.466,0,0.666,0.233,0.6,0.7C25.75,25.633,25.7,25.867,25.6,26.1z"/>
		</g>
	</g>
	<g>
		<g>
			<path style="fill-rule:evenodd;clip-rule:evenodd;fill:#87A659;" d="M29,26.45c0.1-0.467,0.017-0.75-0.25-0.85
				c-0.167-0.067-0.3,0.05-0.4,0.35c-0.066,0.133-0.116,0.283-0.149,0.45c-0.033-0.167-0.05-0.333-0.05-0.5
				c0.066-0.333,0.25-0.483,0.55-0.45C29.2,25.45,29.3,25.783,29,26.45z"/>
		</g>
	</g>
	<g>
		<g>
			<path style="fill-rule:evenodd;clip-rule:evenodd;fill:#87A659;" d="M33.05,4c0.101-0.367,0.367-0.467,0.8-0.3
				c0.4,0.167,0.483,0.417,0.25,0.75L33.7,4.85c0.387-0.411,0.437-0.727,0.149-0.95C33.616,3.733,33.4,3.8,33.2,4.1L33,4.525
				C33.015,4.423,33.031,4.248,33.05,4z"/>
		</g>
	</g>
	<g>
		<g>
			<path style="fill-rule:evenodd;clip-rule:evenodd;fill:#87A659;" d="M32.05,9.2c0.2-0.4,0.2-0.7,0-0.9
				c-0.133-0.1-0.3-0.033-0.5,0.2l-0.3,0.4c-0.066,0-0.017-0.15,0.15-0.45c0.166-0.267,0.383-0.35,0.649-0.25
				C32.45,8.333,32.45,8.667,32.05,9.2z"/>
		</g>
	</g>
	<g>
		<g>
			<path style="fill-rule:evenodd;clip-rule:evenodd;fill:#87A659;" d="M35.25,8.25c0.3-0.267,0.35-0.517,0.15-0.75
				c-0.134-0.133-0.284-0.1-0.45,0.1L34.8,7.85c0.019-0.065,0.035-0.165,0.05-0.3C34.95,7.283,35.15,7.233,35.45,7.4
				C35.884,7.633,35.816,7.917,35.25,8.25z"/>
		</g>
	</g>
	<g>
		<g>
			<path style="fill-rule:evenodd;clip-rule:evenodd;fill:#C1CDA5;" d="M21.9,23.8c-0.233-0.066-0.4-0.267-0.5-0.6
				c-0.066-0.2-0.083-0.367-0.05-0.5c0.066-0.167,0.1-0.2,0.1-0.1l0.4,0.5C21.917,23.3,21.933,23.533,21.9,23.8z"/>
		</g>
	</g>
	<g>
		<g>
			<path style="fill-rule:evenodd;clip-rule:evenodd;fill:#C1CDA5;" d="M26.55,24.5c0-0.4,0.2-0.75,0.601-1.05
				c0.366-0.3,0.683-0.383,0.949-0.25c-0.066,0.367-0.25,0.667-0.55,0.9C27.283,24.333,26.95,24.467,26.55,24.5z"/>
		</g>
	</g>
	<g>
		<g>
			<path style="fill-rule:evenodd;clip-rule:evenodd;fill:#C1CDA5;" d="M31.85,5.6l0.301-0.15c0.267-0.133,0.517-0.184,0.75-0.15
				c0.366,0.034,0.616,0.167,0.75,0.4c-0.2,0.2-0.483,0.283-0.851,0.25c-0.233-0.034-0.467-0.1-0.7-0.2L31.85,5.6z"/>
		</g>
	</g>
	<g>
		<g>
			<path style="fill-rule:evenodd;clip-rule:evenodd;fill:#C1CDA5;" d="M33.45,8.6l0.2-0.5c0.133-0.133,0.267-0.184,0.399-0.15
				c0,0.133-0.066,0.267-0.2,0.4L33.45,8.6z"/>
		</g>
	</g>
	<g>
		<g>
			<path style="fill-rule:evenodd;clip-rule:evenodd;fill:#C1CDA5;" d="M32.05,10.9c-0.267,0.033-0.5-0.033-0.7-0.2l-0.25-0.5
				c0-0.034,0.067-0.034,0.2,0c0.134,0,0.25,0.05,0.351,0.15C31.85,10.517,31.983,10.7,32.05,10.9z"/>
		</g>
	</g>
	<g>
		<path style="fill-rule:evenodd;clip-rule:evenodd;fill:#C24458;" d="M21.3,20.35c1.067-0.3,1.667,0.017,1.8,0.95
			c0.133,0.967-0.283,1.534-1.25,1.7c-0.9,0.167-1.417-0.183-1.55-1.05C20.133,21.083,20.467,20.55,21.3,20.35z"/>
		<path style="fill-rule:evenodd;clip-rule:evenodd;fill:#CD6A70;" d="M22.1,20.75c0.133-0.033,0.25,0.067,0.35,0.3
			c0.1,0.233,0.1,0.35,0,0.35c-0.133,0-0.267-0.1-0.4-0.3C21.95,20.9,21.967,20.783,22.1,20.75z"/>
		<g>
			<path style="fill-rule:evenodd;clip-rule:evenodd;fill:#9D3A4B;" d="M21.85,23c-0.9,0.167-1.417-0.183-1.55-1.05
				c-0.167-0.867,0.167-1.4,1-1.6l-0.25,0.7c-0.1,0.5,0,0.85,0.3,1.05c0.333,0.233,0.9,0.217,1.7-0.05
				C22.817,22.583,22.417,22.9,21.85,23z"/>
		</g>
	</g>
	<g>
		<path style="fill-rule:evenodd;clip-rule:evenodd;fill:#C24458;" d="M30.2,3.95c1.066-0.3,1.666,0.017,1.8,0.95
			c0.134,0.967-0.283,1.533-1.25,1.7c-0.9,0.167-1.417-0.184-1.55-1.05C29.033,4.683,29.366,4.15,30.2,3.95z"/>
		<path style="fill-rule:evenodd;clip-rule:evenodd;fill:#CD6A70;" d="M31,4.35c0.134-0.033,0.25,0.066,0.35,0.3
			C31.45,4.883,31.45,5,31.35,5c-0.133,0-0.267-0.1-0.399-0.3C30.85,4.5,30.866,4.383,31,4.35z"/>
		<g>
			<path style="fill-rule:evenodd;clip-rule:evenodd;fill:#9D3A4B;" d="M30.75,6.6c-0.9,0.167-1.417-0.184-1.55-1.05
				c-0.167-0.867,0.166-1.4,1-1.6l-0.25,0.7c-0.101,0.5,0,0.85,0.3,1.05c0.366,0.267,0.917,0.25,1.65-0.05
				C31.733,6.183,31.35,6.5,30.75,6.6z"/>
		</g>
	</g>
</g>
</svg>
