<?xml version="1.0" encoding="iso-8859-1"?>
<!-- Generator: Adobe Illustrator 15.1.0, SVG Export Plug-In . SVG Version: 6.00 Build 0)  -->
<!DOCTYPE svg PUBLIC "-//W3C//DTD SVG 1.1//EN" "http://www.w3.org/Graphics/SVG/1.1/DTD/svg11.dtd">
<svg version="1.1" id="buildings" xmlns="http://www.w3.org/2000/svg" xmlns:xlink="http://www.w3.org/1999/xlink" x="0px" y="0px"
	 width="79.3px" height="199.15px" viewBox="0 0 79.3 199.15" style="enable-background:new 0 0 79.3 199.15;" xml:space="preserve"
	>
<g>
	<path style="fill-rule:evenodd;clip-rule:evenodd;fill:#DEDFA2;" d="M15.55,82.05c-3.966,7.934-5.216,16.2-3.75,24.8
		c0.267,1.733,1.133,5.601,2.6,11.601c1.233,5.166,2.067,9.6,2.5,13.3c0.967,8.6,1.15,20.116,0.55,34.55
		c-0.3,7.233-0.7,13.601-1.2,19.101c-0.833,0.433-1.883,0.75-3.15,0.949c-2.567,0.4-4.967-0.033-7.2-1.3
		c1.367-6.633,2.4-14.2,3.1-22.7c1.367-17.033,0.333-30.233-3.1-39.6c-3.967-10.9-5.917-20.616-5.85-29.15
		c0.1-6.8,1.5-13.083,4.2-18.85c1.933-4.167,7.067-11.583,15.4-22.25c4.167-5.333,8.133-10.25,11.9-14.75l15,14
		c-3.333,1.4-7.116,3.7-11.35,6.9C26.7,65.083,20.15,72.883,15.55,82.05z"/>
	<g>
		<path style="fill-rule:evenodd;clip-rule:evenodd;fill:#BDBF71;" d="M31.55,37.75l8.2,7.6L35,48.95c-0.033-0.233-1.6,1-4.7,3.7
			c-3.6,3.167-7,6.567-10.2,10.2C10.2,74.017,5.25,83.867,5.25,92.4c0,6.867,1.3,14.817,3.9,23.85c2.733,9.434,4.2,17.717,4.4,24.85
			c0.367,12.134-0.55,27.267-2.75,45.4c-1.833-0.134-3.466-0.616-4.9-1.45c1.367-6.633,2.4-14.2,3.1-22.7
			c1.367-17.033,0.333-30.233-3.1-39.6c-3.967-10.9-5.917-20.616-5.85-29.15c0.1-6.8,1.5-13.083,4.2-18.85
			c1.933-4.167,7.067-11.583,15.4-22.25C23.817,47.167,27.783,42.25,31.55,37.75z"/>
	</g>
	<g>
		<path style="fill-rule:evenodd;clip-rule:evenodd;fill:#A9AC5D;" d="M31.55,37.75l2.95,2.75l-0.95,3.25
			c-2,1.833-4.283,4.05-6.85,6.65c-5.167,5.167-9.217,9.617-12.15,13.35c-4.4,5.667-7.316,10.183-8.75,13.55
			c-2.367,5.467-3.55,12.4-3.55,20.8c0,4.567,1.083,10.034,3.25,16.4c2.733,7.967,4.317,13.167,4.75,15.6
			c0.9,5,1.4,10.184,1.5,15.551c0.067,3.8-0.1,8.716-0.5,14.75c-0.167,2.466-0.667,6.816-1.5,13.05
			c-0.833,6.333-1.333,10.533-1.5,12.6c-0.733-0.2-1.517-0.533-2.35-1c1.367-6.633,2.4-14.2,3.1-22.7
			c1.367-17.033,0.333-30.233-3.1-39.6c-3.967-10.9-5.917-20.616-5.85-29.15c0.1-6.8,1.5-13.083,4.2-18.85
			c1.933-4.167,7.067-11.583,15.4-22.25C23.817,47.167,27.783,42.25,31.55,37.75z"/>
	</g>
	<path style="fill-rule:evenodd;clip-rule:evenodd;fill:#A2A550;" d="M5.9,185.05c0.934,0.634,2.567,0.95,4.9,0.95
		c2.333,0,4.15-0.2,5.45-0.6l1.15,0.399c0.867,0.434,1.567,1.017,2.1,1.75c0.833,1.167,1.417,3.584,1.75,7.25l-2.1,2.101
		c-2.133,1.399-5.017,2.149-8.65,2.25c-3.333,0.1-6.083-0.467-8.25-1.7L0,195.55c0.5-3.166,1.167-5.416,2-6.75
		c0.533-0.833,1.333-1.7,2.4-2.6L5.9,185.05z"/>
	<path style="fill-rule:evenodd;clip-rule:evenodd;fill:#ECECCB;" d="M43.1,41.2c1.567,1.5,2.801,3.433,3.7,5.8
		c0.934,2.567,0.851,4.15-0.25,4.75c-1.233,0.7-3.05,0.8-5.45,0.3c-2.6-0.533-4.633-1.566-6.1-3.1
		c-1.633-1.667-2.833-3.684-3.6-6.05c-0.767-2.4-0.717-4.117,0.15-5.15c1.1-1.3,2.983-1.417,5.65-0.35
		C39.4,38.267,41.366,39.533,43.1,41.2z"/>
	<linearGradient id="SVGID_1_" gradientUnits="userSpaceOnUse" x1="33.4751" y1="44.1377" x2="45.6251" y2="44.1377">
		<stop  offset="0" style="stop-color:#893342"/>
		<stop  offset="1" style="stop-color:#2D1D1E"/>
	</linearGradient>
	<path style="fill-rule:evenodd;clip-rule:evenodd;fill:url(#SVGID_1_);" d="M37.05,47.55c-1.233-0.933-2.267-2.8-3.1-5.6
		c-0.867-2.833-0.717-4.133,0.45-3.9c3.533,0.767,6.534,2.833,9,6.2c2.267,3.067,2.933,4.95,2,5.65
		c-0.667,0.5-1.934,0.467-3.801-0.1C39.8,49.267,38.283,48.517,37.05,47.55z"/>
	<path style="fill-rule:evenodd;clip-rule:evenodd;fill:#ECECCB;" d="M24.9,63.75l-7.55,11.5c-5.067,8.533-7.6,14.917-7.6,19.15
		c0,3.333,0.367,7.333,1.1,12c0.318,2.229,0.652,4.153,1,5.774c-0.554-2.294-1.154-3.602-1.8-3.925c-0.4-0.2-0.483,0.767-0.25,2.9
		c0.1,1.066,0.25,2.149,0.45,3.25c-0.5-1.167-0.983-2.867-1.45-5.101c-0.9-4.467-1.25-9.367-1.05-14.7
		c0.2-5.367,3.117-12.117,8.75-20.25L24.9,63.75z"/>
	<path style="fill-rule:evenodd;clip-rule:evenodd;fill:#ECECCB;" d="M14.2,126.8l1.1,3.45c1.1,4.2,1.75,8.7,1.95,13.5
		c0.333,7.667,0.167,15.05-0.5,22.15c-0.133-2.334-0.417-3.717-0.85-4.15c-0.267-0.3-0.7,1.033-1.3,4
		c-0.3,1.467-0.583,2.967-0.85,4.5c0.867-9.767,1.367-17.483,1.5-23.15c0.067-4.166-0.083-8.866-0.45-14.1
		C14.593,130.103,14.393,128.035,14.2,126.8z"/>
	<g>
		<path style="fill-rule:evenodd;clip-rule:evenodd;fill:#8E9344;" d="M8.15,193.85c0.1,1.233,1.05,2.351,2.85,3.351
			c1.067,0.566,2.333,1.05,3.8,1.45c-1.4,0.3-2.833,0.466-4.3,0.5c-3.333,0.1-6.083-0.467-8.25-1.7L0,195.55
			c0.5-3.166,1.167-5.416,2-6.75c0.533-0.833,1.333-1.7,2.4-2.6l1.5-1.15c0.934,0.634,2.567,0.95,4.9,0.95l-1.4,2.65
			C8.467,190.684,8.05,192.417,8.15,193.85z"/>
	</g>
	<g>
		<path style="fill-rule:evenodd;clip-rule:evenodd;fill:#696D37;" d="M1.65,197.05L0,195.55c0.5-3.166,1.167-5.416,2-6.75
			c0.533-0.833,1.333-1.7,2.4-2.6l1.5-1.15l0.5,0.25c0.467,0.2,1.017,0.351,1.65,0.45c-0.733,0.667-1.4,1.483-2,2.45
			c-1.033,1.633-1.583,3.316-1.65,5.05c-0.066,2.3,0.967,4.233,3.1,5.8C5.133,198.783,3.183,198.116,1.65,197.05z"/>
	</g>
	<path style="fill-rule:evenodd;clip-rule:evenodd;fill:#C2C47C;" d="M14.15,187.5c1.4-1,2.783-0.717,4.15,0.85
		c1.233,1.434,1.767,2.767,1.6,4c-0.1,0.801-0.65,1.5-1.65,2.101c-0.5,0.333-1,0.566-1.5,0.7c0.033-0.534-0.117-1.7-0.45-3.5
		c-0.2-1.101-0.617-2.117-1.25-3.051L14.15,187.5z"/>
	<g>
		<g>
			<polygon style="fill-rule:evenodd;clip-rule:evenodd;fill:#8E9344;" points="38.65,29.65 38.6,31.45 35.7,31.1 35.65,30.65 			
				"/>
			<path style="fill-rule:evenodd;clip-rule:evenodd;fill:#8E9344;" d="M37.35,34.1c0.4,0,0.8-0.15,1.2-0.45l-0.25,14.7
				c-0.267-0.133-0.517-0.3-0.75-0.5L36.9,34.1H37.35z"/>
			<path style="fill-rule:evenodd;clip-rule:evenodd;fill:#696D37;" d="M37.35,34.1H36.9l0.85,13.95l-0.45-0.4L35.7,31.1l2.9,0.35
				l-0.05,2.2C38.15,33.95,37.75,34.1,37.35,34.1z"/>
		</g>
		<g>
			<polygon style="fill-rule:evenodd;clip-rule:evenodd;fill:#8E9344;" points="46.65,29.65 46.05,31.8 43.15,30.5 43.3,29.35 			
				"/>
			<polygon style="fill-rule:evenodd;clip-rule:evenodd;fill:#8E9344;" points="43.75,33.7 44.7,33.7 45.55,33.5 40.85,49.5 
				40.3,49.3 			"/>
			<polygon style="fill-rule:evenodd;clip-rule:evenodd;fill:#696D37;" points="44.7,33.7 43.75,33.7 40.3,49.3 39.8,49.05 
				43.15,30.5 46.05,31.8 45.55,33.5 			"/>
		</g>
		<g>
			<polygon style="fill-rule:evenodd;clip-rule:evenodd;fill:#893342;" points="64.3,0.3 68.3,22.35 60.65,44 54,41 60.3,14.65 
				58,0.35 			"/>
			<polygon style="fill-rule:evenodd;clip-rule:evenodd;fill:#CA3654;" points="63,32.35 20.3,33.3 36.3,19 26.3,1.3 65.65,13.35 
				64.3,0.3 79.3,26 60.65,44 			"/>
			<polygon style="fill-rule:evenodd;clip-rule:evenodd;fill:#8F3F49;" points="65.55,5.1 68.05,14.85 66.55,14.1 			"/>
			<polygon style="fill-rule:evenodd;clip-rule:evenodd;fill:#8F3F49;" points="64.55,29.35 66.05,31.1 62.3,41.35 			"/>
			<path style="fill-rule:evenodd;clip-rule:evenodd;fill:#EA878B;" d="M68.05,8.1l9.75,17.5l-13,13.25l9.75-11.5l-3.5,1.75
				l1.75-1.65c1.167-1.3,1.75-2.5,1.75-3.6c0-1.667-1.083-4.783-3.25-9.35L68.05,8.1z"/>
			<polygon style="fill-rule:evenodd;clip-rule:evenodd;fill:#EA878B;" points="53.3,12.1 29.55,3.85 64.05,14.1 47.55,12.1 			"/>
			<path style="fill-rule:evenodd;clip-rule:evenodd;fill:#8F3F49;" d="M45.1,31.5c5.7,0.067,11.384,0.067,17.051,0L23,32.65
				l7.8-6.5c-0.533,0.533-1.066,1.117-1.6,1.75c-1.067,1.3-1.534,2.217-1.4,2.75C27.933,31.117,33.7,31.4,45.1,31.5z"/>
			<polygon style="fill-rule:evenodd;clip-rule:evenodd;fill:#893342;" points="26.3,1.3 36.3,19 20.3,33.3 13.3,31.65 30,17.65 
				19.65,0 			"/>
			<path style="fill-rule:evenodd;clip-rule:evenodd;fill:#652A33;" d="M30.8,17.35l-9.5-16l4.5,1c-0.4,0.033-0.783,0.15-1.15,0.35
				c-0.7,0.367-0.9,0.917-0.6,1.65C24.55,5.517,26.8,9.85,30.8,17.35z"/>
			<path style="fill-rule:evenodd;clip-rule:evenodd;fill:#652A33;" d="M30.55,18.35c-7,6.333-11.167,10.167-12.5,11.5
				c-0.633,0.633-0.483,1.233,0.45,1.8c0.467,0.3,0.983,0.533,1.55,0.7l-5.25-1L30.55,18.35z"/>
		</g>
	</g>
</g>
</svg>
