<?xml version="1.0" encoding="iso-8859-1"?>
<!-- Generator: Adobe Illustrator 15.1.0, SVG Export Plug-In . SVG Version: 6.00 Build 0)  -->
<!DOCTYPE svg PUBLIC "-//W3C//DTD SVG 1.1//EN" "http://www.w3.org/Graphics/SVG/1.1/DTD/svg11.dtd">
<svg version="1.1" id="flash0.ai" xmlns="http://www.w3.org/2000/svg" xmlns:xlink="http://www.w3.org/1999/xlink" x="0px" y="0px"
	 width="94.2px" height="84.95px" viewBox="0 0 94.2 84.95" style="enable-background:new 0 0 94.2 84.95;" xml:space="preserve">
<g>
	<path style="fill-rule:evenodd;clip-rule:evenodd;fill:#E09D7C;" d="M4.55,38.5c-1.1,0.333-1.783,0.7-2.05,1.1
		c-0.9-0.733-1.583-1.633-2.05-2.7c-0.967-2.167-0.367-4.117,1.8-5.85c1.267-0.367,2.95-0.733,5.05-1.1
		c4.267-0.733,8.583-1.034,12.95-0.9c4.367,0.1,8.533,3.017,12.5,8.75c1,1.467,2.483,3.633,4.45,6.5
		c1.733,2.2,3.417,3.617,5.05,4.25c2.7,1.066,4.683,1.467,5.95,1.2c0.376-0.079,0.65-0.196,0.825-0.35L48.1,50.9
		c-0.699,1.699-0.883,3.8-0.55,6.3c0.134,1.033,0.717,1.983,1.75,2.85c0.5,0.434,0.983,0.767,1.45,1c-2.233,0.033-4.7-0.25-7.4-0.85
		c-5.434-1.2-9.367-3.367-11.8-6.5c-3.8-5.9-6.4-9.717-7.8-11.45c-2.133-2.633-5.417-4.1-9.85-4.4
		C9.833,37.617,6.717,37.833,4.55,38.5z"/>
	<path style="fill-rule:evenodd;clip-rule:evenodd;fill:#C87D58;" d="M23.75,42.25c-2.133-2.633-5.417-4.1-9.85-4.4
		c-4.066-0.233-7.183-0.017-9.35,0.65c-1.1,0.333-1.783,0.7-2.05,1.1c-0.733-0.633-1.35-1.417-1.85-2.35
		c-1-1.867-0.867-3.567,0.4-5.1C0.817,33.683,1.067,34.8,1.8,35.5c0.9,0.867,2.483,1.05,4.75,0.55c4.667-1,8.267-1.333,10.8-1
		c4.4,0.567,7.8,2.784,10.2,6.65c3.934,6.333,6.65,10.217,8.15,11.649c3.3,3.134,7.15,3.967,11.55,2.5l0.15-0.05l0.149,1.4
		c0.134,1.033,0.717,1.983,1.75,2.85c0.5,0.434,0.983,0.767,1.45,1c-2.233,0.033-4.7-0.25-7.4-0.85c-5.434-1.2-9.367-3.367-11.8-6.5
		C27.75,47.8,25.15,43.983,23.75,42.25z"/>
	<path style="fill-rule:evenodd;clip-rule:evenodd;fill:#E5B190;" d="M20.4,30.55l2.1,0.25c3.433,1.1,6.283,3.284,8.55,6.55
		c0.667,0.967,1.75,2.8,3.25,5.5c0.867,1.567,2.017,3.016,3.45,4.35c1.533,1.467,3.367,2.517,5.5,3.149
		c1.1,0.301,2.033,0.467,2.8,0.5c-1.033,0.4-2.3,0.5-3.8,0.301c-3-0.434-5.617-2.134-7.85-5.101c-2.967-4.8-5.117-8.15-6.45-10.05
		C25.75,32.767,23.233,30.95,20.4,30.55z"/>
</g>
<g>
	<path style="fill-rule:evenodd;clip-rule:evenodd;fill:#8F4932;" d="M56.85,47.95c1.7,1.2,2.7,3.1,3,5.7
		c0.367,3.166-0.199,5.699-1.699,7.6c-1.534,1.9-3.184,2.134-4.95,0.7c-1.5-1.167-2.45-3.4-2.851-6.7L50.2,50.6
		c0.566-1.066,1.434-2,2.6-2.8c0.601-0.366,1.134-0.649,1.601-0.85L56.85,47.95z"/>
	<path style="fill-rule:evenodd;clip-rule:evenodd;fill:#C96746;" d="M54.4,46.95c-0.467,0.366-0.95,0.967-1.45,1.8
		c-0.967,1.7-1.467,3.75-1.5,6.15c-0.066,2.466,0.483,4.517,1.649,6.149c0.601,0.834,1.2,1.417,1.801,1.75
		c-0.834-0.066-1.733-0.184-2.7-0.35l-2.95-0.75c-0.533-0.434-1.05-1.033-1.55-1.8c-0.967-1.567-1.383-3.233-1.25-5
		s0.6-3.367,1.399-4.801c0.4-0.733,0.784-1.283,1.15-1.649l2.5-1C52.467,47.184,53.434,47.017,54.4,46.95z"/>
	<path style="fill-rule:evenodd;clip-rule:evenodd;fill:#AB583C;" d="M54.75,62.8l-5.5-1.1c-0.934-0.733-1.684-1.783-2.25-3.15
		c-0.267-1.3-0.367-2.2-0.3-2.7c0.066-0.866,0.517-1.383,1.35-1.55c1-0.233,1.733,0.05,2.2,0.851c0.233,0.399,0.667,1.616,1.3,3.649
		C52.15,60.634,53.217,61.967,54.75,62.8z"/>
	
		<linearGradient id="SVGID_1_" gradientUnits="userSpaceOnUse" x1="57.0664" y1="-38.7983" x2="71.9666" y2="-38.7983" gradientTransform="matrix(0.2752 0.9614 -0.9877 0.1833 -4.463494e-004 3.487766e-004)">
		<stop  offset="0" style="stop-color:#592E20"/>
		<stop  offset="1" style="stop-color:#A35339"/>
	</linearGradient>
	<path style="fill-rule:evenodd;clip-rule:evenodd;fill:url(#SVGID_1_);" d="M58.4,51.85c0.5,1.5,0.699,2.95,0.6,4.351
		c-0.167,3.6-1.217,5.05-3.15,4.35c-1.666-0.6-2.517-2.583-2.55-5.95c0-3.333,0.851-5.116,2.55-5.35
		C56.95,49.116,57.8,49.983,58.4,51.85z"/>
	<path style="fill-rule:evenodd;clip-rule:evenodd;fill:#E09D7C;" d="M49.1,48.95c0.9-0.467,2.134-0.816,3.7-1.05L50.1,49.1
		c-0.466,0.2-0.933,0.584-1.399,1.15c-0.233,0.3-0.417,0.566-0.55,0.8l0.1-0.5c0.033-0.2,0.184-0.533,0.45-1
		C48.833,49.35,48.967,49.15,49.1,48.95z"/>
</g>
<g>
	<polygon style="fill-rule:evenodd;clip-rule:evenodd;fill:#9BD4BC;" points="85.5,17.6 89.75,20.85 77.45,26.9 92.8,74.65 
		85,75.55 83.15,73.9 72.15,69.65 61.5,82.25 51.95,84.95 57.25,60.65 60.4,31.6 51.7,33.8 42.75,31.65 51.85,21.5 	"/>
	<polygon style="fill-rule:evenodd;clip-rule:evenodd;fill:#70AD98;" points="82.6,73.7 68.65,38.7 69.75,24.15 77.65,26.8 
		77.45,26.9 94.2,76.25 85,75.55 83.15,73.9 	"/>
	<path style="fill-rule:evenodd;clip-rule:evenodd;fill:#5A9E85;" d="M85,75.55l-20-7.6l-13.05,17l1.5-56l-10.7,2.7L54.8,9.45
		c2.667-4.867,4.517-8.017,5.55-9.45l7.601,5.45c5.434,3.8,8.967,6.2,10.6,7.2c2.601,1.633,4.917,3.283,6.95,4.95l-15.1,7.05
		L76,44.8c3.833,13.834,6.05,21.65,6.65,23.45C83.616,71.116,84.4,73.55,85,75.55z"/>
	<path style="fill-rule:evenodd;clip-rule:evenodd;fill:#4C8772;" d="M53,27.2l-7.7,1.85l7.8-13.95
		c-0.767,1.667-1.55,3.367-2.35,5.1c-1.533,3.5-2.283,5.483-2.25,5.95C48.566,26.883,50.066,27.233,53,27.2z"/>
	<path style="fill-rule:evenodd;clip-rule:evenodd;fill:#4C8772;" d="M54.05,69.35l1.4,5.7c0.133,0.634,1.333-0.116,3.6-2.25
		L58.3,73.9c-0.5,0.767-2.166,3.1-5,7L54.05,69.35z"/>
	<path style="fill-rule:evenodd;clip-rule:evenodd;fill:#70AD98;" d="M81.25,69.7l1.3,3.5c-1.5-0.8-3.116-1.533-4.85-2.2
		c-1.101-0.4-3-1.184-5.7-2.35L68.3,67c2.8,0.967,5.8,1.717,9,2.25C78.9,69.483,80.217,69.634,81.25,69.7z"/>
	<path style="fill-rule:evenodd;clip-rule:evenodd;fill:#70AD98;" d="M77.8,19.15c0.3-0.3,0.483-0.7,0.55-1.2
		c0.2-1-0.183-1.95-1.149-2.85s-2.384-2.017-4.25-3.35L70.4,10c1.533,0.5,5.333,2.767,11.399,6.8L77.8,19.15z"/>
</g>
</svg>
