<?xml version="1.0" encoding="iso-8859-1"?>
<!-- Generator: Adobe Illustrator 15.1.0, SVG Export Plug-In . SVG Version: 6.00 Build 0)  -->
<!DOCTYPE svg PUBLIC "-//W3C//DTD SVG 1.1//EN" "http://www.w3.org/Graphics/SVG/1.1/DTD/svg11.dtd">
<svg version="1.1" id="buildings" xmlns="http://www.w3.org/2000/svg" xmlns:xlink="http://www.w3.org/1999/xlink" x="0px" y="0px"
	 width="65.85px" height="149.7px" viewBox="0 0 65.85 149.7" style="enable-background:new 0 0 65.85 149.7;" xml:space="preserve"
	>
<g>
	<path style="fill-rule:evenodd;clip-rule:evenodd;fill:#343F3E;" d="M12.95,16.9C19.25,5.8,26.133,0.167,33.6,0
		C43.134-0.233,50.9,5.283,56.9,16.55c5.399,10.167,8.366,22.8,8.899,37.9c0.5,15.133-1.6,28.316-6.3,39.55
		c-5.233,12.434-12.667,19.533-22.3,21.3l-4.351,26.9l0.2-0.05c3.101-0.434,5.717,0.316,7.851,2.25
		c1.066,0.966,1.816,1.983,2.25,3.05c-3.2,1.066-6.733,1.783-10.601,2.149c-2.2,0.2-4.45,0.084-6.75-0.35l-2.8-0.7
		c0.333-0.666,0.9-1.416,1.7-2.25c1.566-1.633,3.483-2.816,5.75-3.55c0.2-8.1-0.167-14.667-1.1-19.7
		c-0.633-3.399-1.667-6.083-3.1-8.05c-10.767-2.3-18.3-9.634-22.6-22c-3.767-10.833-4.633-23.8-2.6-38.9
		C3.017,39.733,6.983,27.333,12.95,16.9z"/>
	<path style="fill-rule:evenodd;clip-rule:evenodd;fill:#CCCFCD;" d="M16.15,20.55c5.5-9.767,11.5-14.333,18-13.7
		c5.966,0.6,11.033,6.566,15.199,17.9c3.934,10.667,6.034,22.833,6.301,36.5c0.267,14.434-1.717,25.967-5.95,34.6
		c-4.867,9.967-12,14.084-21.4,12.351c-9.433-1.733-16.066-8.184-19.9-19.351c-3.367-9.733-4.183-21.433-2.45-35.1
		C7.583,40.717,10.983,29.65,16.15,20.55z"/>
	<path style="fill-rule:evenodd;clip-rule:evenodd;fill:#586A69;" d="M20.15,28.6c4.5-7.333,8.983-10.684,13.45-10.05
		c3.634,0.5,6.917,4.917,9.851,13.25c2.899,8.1,4.517,17.034,4.85,26.8c0.367,10.733-1,19.266-4.1,25.6
		c-3.667,7.467-9.316,10.7-16.95,9.7c-7.667-1-12.833-5.65-15.5-13.95c-2.3-7.167-2.5-15.934-0.6-26.3
		C12.917,43.917,15.917,35.567,20.15,28.6z"/>
	<path style="fill-rule:evenodd;clip-rule:evenodd;fill:#81908E;" d="M29.9,35c1.934,0.133,3.75,2.733,5.45,7.8
		c1.601,4.867,2.617,10.383,3.051,16.55c0.433,6.633-0.017,11.967-1.351,16c-1.533,4.733-4.1,6.851-7.7,6.351
		c-3.633-0.5-6.4-3.283-8.3-8.35c-1.667-4.467-2.4-9.85-2.2-16.15c0.233-6.167,1.3-11.367,3.2-15.6C24.117,37,26.733,34.8,29.9,35z"
		/>
	<path style="fill-rule:evenodd;clip-rule:evenodd;fill:#3D4949;" d="M27.75,46.15c1.133-0.367,2.267,0.6,3.4,2.9
		c1.034,2.167,1.784,4.85,2.25,8.05c0.466,3.333,0.449,6.167-0.051,8.5c-0.566,2.7-1.716,4.167-3.45,4.4s-3.15-0.783-4.25-3.05
		c-0.933-1.967-1.483-4.567-1.65-7.8c-0.133-3.1,0.117-5.883,0.75-8.35C25.45,48.133,26.45,46.583,27.75,46.15z"/>
	<path style="fill-rule:evenodd;clip-rule:evenodd;fill:#D5DAD8;" d="M29.35,55.7c0.9,0,1.433,1.333,1.6,4
		c0.167,2.633-0.367,3.95-1.6,3.95c-1.4,0-2.2-1.316-2.4-3.95C26.783,57.033,27.583,55.7,29.35,55.7z"/>
</g>
</svg>
