<?xml version="1.0" encoding="iso-8859-1"?>
<!-- Generator: Adobe Illustrator 15.1.0, SVG Export Plug-In . SVG Version: 6.00 Build 0)  -->
<!DOCTYPE svg PUBLIC "-//W3C//DTD SVG 1.1//EN" "http://www.w3.org/Graphics/SVG/1.1/DTD/svg11.dtd">
<svg version="1.1" id="flash0.ai" xmlns="http://www.w3.org/2000/svg" xmlns:xlink="http://www.w3.org/1999/xlink" x="0px" y="0px"
	 width="84.4px" height="105.1px" viewBox="0 0 84.4 105.1" style="enable-background:new 0 0 84.4 105.1;" xml:space="preserve">
<g>
	<path style="fill-rule:evenodd;clip-rule:evenodd;fill:#E09D7C;" d="M81.4,72.7c2.533,0.7,3.449,2.1,2.75,4.2
		c-0.733,2.133-2.983,3.283-6.75,3.449c-8.267,0.367-16.667,5.717-25.2,16.051c-5,6.066-11.25,8.966-18.75,8.699
		c-3-0.1-5.75-0.733-8.25-1.899c-2.4-1.134-4.067-2.517-5-4.15c-2.9-5-4.667-9.383-5.3-13.149l-0.05-4.15
		c0.167-0.434,0.566-0.917,1.2-1.45c1.3-1.066,3.133-1.816,5.5-2.25c2.367-0.399,4.684-0.017,6.95,1.15
		c1.133,0.566,2.033,1.184,2.7,1.85l-0.35,4.601c0,3.233,0.667,5.366,2,6.399c2.033,1.566,4,2.217,5.9,1.95
		c1.6-0.267,3.45-1.233,5.55-2.9c2.667-2.333,4.8-4.183,6.4-5.55c2.967-2.566,5.8-4.616,8.5-6.149c5.566-3.2,10.934-5.267,16.1-6.2
		C77.9,72.7,79.934,72.533,81.4,72.7z"/>
	<path style="fill-rule:evenodd;clip-rule:evenodd;fill:#C87D58;" d="M83.55,76.7c0.533-0.533,0.634-1.3,0.3-2.3
		c0.801,1.267,0.65,2.517-0.449,3.75c-1.2,1.366-3.2,2.1-6,2.199c-8.267,0.367-16.667,5.717-25.2,16.051
		c-5,6.066-11.25,8.966-18.75,8.699c-3-0.1-5.75-0.733-8.25-1.899c-2.4-1.134-4.067-2.517-5-4.15c-2.9-5-4.667-9.383-5.3-13.149
		l-0.05-4.15c0.267-0.667,0.9-1.316,1.9-1.95c3.767-0.033,8.05-0.017,12.85,0.05c0.7,0.434,1.233,0.834,1.6,1.2l-0.25,2.2
		c-0.667,0.7-1.684,1.733-3.05,3.1c-1.2,1.233-2.133,2.5-2.8,3.801c-1.133,2.267-0.067,4.767,3.2,7.5
		c3.267,2.733,6.7,3.983,10.3,3.75c2.767-0.2,5.7-1.884,8.8-5.051c4.866-4.966,8.35-8.199,10.449-9.699
		c6.634-4.7,14.233-7.667,22.801-8.9C82.083,77.55,83.05,77.2,83.55,76.7z"/>
	<path style="fill-rule:evenodd;clip-rule:evenodd;fill:#E5B190;" d="M28.85,88.9c0.367-0.667,0.75-0.551,1.15,0.35
		c0.767,1.934,1.383,3.233,1.85,3.9c0.833,1.267,1.833,2.316,3,3.149c0.6,0.4,1.1,0.684,1.5,0.851l-3.5-1.25
		c-1.633-0.567-2.85-1.7-3.65-3.4C28.5,90.967,28.383,89.767,28.85,88.9z"/>
	<path style="fill-rule:evenodd;clip-rule:evenodd;fill:#E5B190;" d="M71.1,75.05c4.667-1.2,6.45-1.35,5.351-0.45
		c-1.134,0.934-3.283,1.75-6.45,2.45c-2.4,0.533-6.566,2.667-12.5,6.4c-2.934,1.866-5.65,3.684-8.15,5.45l3.5-3.25
		c1.967-1.834,4.733-3.817,8.301-5.95C65.116,77.3,68.434,75.75,71.1,75.05z"/>
</g>
<g>
	<path style="fill-rule:evenodd;clip-rule:evenodd;fill:#8F4932;" d="M30.55,81.05c-2.2,0.267-4.65,0.4-7.35,0.4
		C17.833,81.384,14,80.6,11.7,79.1c-2.733-1.767-2.817-3.583-0.25-5.449c2.533-1.9,6.333-2.834,11.4-2.801
		c4.233,0,7.55,0.867,9.95,2.601c1.2,0.833,1.967,1.684,2.3,2.55l-0.9,1.85C33.3,79.25,32.083,80.316,30.55,81.05z"/>
	<path style="fill-rule:evenodd;clip-rule:evenodd;fill:#C96746;" d="M13.15,79.05c2.967,1.134,6.383,1.517,10.25,1.15
		c3.767-0.367,6.85-1.167,9.25-2.4c1.2-0.633,2.017-1.233,2.45-1.8l0.1,1c0.066,0.833,0.05,1.566-0.05,2.2
		C34.983,80.134,34.7,81.1,34.3,82.1c-0.466,0.434-1.216,0.9-2.25,1.4c-2.033,1.033-4.433,1.75-7.2,2.15
		c-2.733,0.366-5.483,0.1-8.25-0.801l-3.35-1.5c-0.8-1.066-1.467-2.1-2-3.1L9.9,77.3L13.15,79.05z"/>
	<path style="fill-rule:evenodd;clip-rule:evenodd;fill:#AB583C;" d="M13.25,83.35c-0.8-1.066-1.467-2.1-2-3.1
		c-0.733-1.566-1.167-2.483-1.3-2.75c1.733,1.566,4.15,2.566,7.25,3c3.433,0.5,5.466,0.85,6.1,1.05
		c1.434,0.434,2.117,1.184,2.05,2.25c-0.033,0.934-0.717,1.5-2.05,1.7c-0.733,0.1-2.183,0.083-4.35-0.05
		c-1.434-0.3-2.817-0.733-4.15-1.3L13.25,83.35z"/>
	
		<linearGradient id="SVGID_1_" gradientUnits="userSpaceOnUse" x1="-38.6978" y1="73.7852" x2="-18.0776" y2="73.7852" gradientTransform="matrix(0.8026 -0.5965 0.6187 0.7861 2.474785e-004 1.657009e-005)">
		<stop  offset="0" style="stop-color:#592E20"/>
		<stop  offset="1" style="stop-color:#A35339"/>
	</linearGradient>
	<path style="fill-rule:evenodd;clip-rule:evenodd;fill:url(#SVGID_1_);" d="M32.05,74.7c0.133,1.899-2.45,3.033-7.75,3.399
		c-5.3,0.367-8.683-0.316-10.15-2.05c-1.633-2,0.367-3.333,6-4c2.267-0.233,4.633-0.184,7.1,0.15
		C30.35,72.667,31.95,73.5,32.05,74.7z"/>
	<path style="fill-rule:evenodd;clip-rule:evenodd;fill:#E09D7C;" d="M33.45,82.05c-1,0.634-1.75,1-2.25,1.101L30.5,83.3
		c1.367-0.7,2.183-1.483,2.45-2.35l1.15-3.101v1.5C34,80.483,33.783,81.384,33.45,82.05z"/>
</g>
<g>
	<path style="fill-rule:evenodd;clip-rule:evenodd;fill:#524137;" d="M20.65,46.35l0.2,9.15c0.1,6.6,0.1,11.05,0,13.35
		c-0.133,3.934-0.3,6.967-0.5,9.101c-1.067,0.233-1.667,0.017-1.8-0.65c0.133-1.866,0.167-4.133,0.1-6.8
		c-0.1-5.3-0.633-9.884-1.6-13.75c-0.966-3.867-2.2-7.183-3.7-9.95l-1.95-3L20.65,46.35z"/>
</g>
<g>
	<polygon style="fill-rule:evenodd;clip-rule:evenodd;fill:#4C8772;" points="30.2,16 39.05,22.9 32.3,25.85 25.05,25.3 
		32.25,48.15 40.35,66.9 32.35,66.05 21.9,57.5 13.85,62.45 12.65,64 6.3,64.35 10.75,23.95 0,20.8 2.85,17.6 	"/>
	<polygon style="fill-rule:evenodd;clip-rule:evenodd;fill:#427563;" points="10.75,23.95 10.6,23.9 16.4,20.65 19.65,32.2 
		14.25,62.2 13.85,62.45 12.65,64 5.45,65.85 	"/>
	<path style="fill-rule:evenodd;clip-rule:evenodd;fill:#5A9E85;" d="M16,21.15c-1.533-0.467-3.133-0.917-4.8-1.35l-8.35-2.2
		c1.333-1.633,2.917-3.267,4.75-4.9C9.4,11.033,13.517,6.8,19.95,0C21.017,1,23,3.267,25.9,6.8l13.15,16.1l-8.95-0.65L40.35,66.9
		l-13.1-11.75L12.65,64l0.7-6.2C13.65,55.366,14.533,43.15,16,21.15z"/>
	<path style="fill-rule:evenodd;clip-rule:evenodd;fill:#70AD98;" d="M28.2,11.1l8.4,10.05l-5.7-0.4h-0.7
		c2.333-0.367,3.466-0.85,3.4-1.45C33.533,18.7,31.733,15.967,28.2,11.1z"/>
	<path style="fill-rule:evenodd;clip-rule:evenodd;fill:#70AD98;" d="M32.75,58.15c2.167,1.399,3.25,1.833,3.25,1.3l0.2-4.75
		l2.45,9.149L32.75,58.15z"/>
	<path style="fill-rule:evenodd;clip-rule:evenodd;fill:#4C8772;" d="M24.5,54.8l-2.65,1.851c-1.967,1.333-3.35,2.233-4.15,2.699
		c-1.267,0.767-2.434,1.567-3.5,2.4l0.5-2.95C17.9,58.033,21.167,56.7,24.5,54.8z"/>
	<path style="fill-rule:evenodd;clip-rule:evenodd;fill:#4C8772;" d="M13.6,9.4c-2.033,2-3.55,3.684-4.55,5.05
		c-0.633,0.867-0.783,1.683-0.45,2.45c0.167,0.4,0.383,0.7,0.65,0.9l-3.6-1.35C9.817,12.383,12.467,10.033,13.6,9.4z"/>
</g>
<path style="fill-rule:evenodd;clip-rule:evenodd;fill:#40705F;" d="M26.8,59.05l0.55-0.75l0.7,0.65c0.467,0.533,0.717,1,0.75,1.399
	c0.034,0.534-0.216,0.784-0.75,0.75c-0.6-0.066-1.3-0.55-2.1-1.449c-0.7-0.801-0.767-1.15-0.2-1.051
	C26.017,58.667,26.367,58.816,26.8,59.05z"/>
<path style="fill-rule:evenodd;clip-rule:evenodd;fill:#524137;" d="M27.35,58.3c-0.467,6.934-0.467,13.334,0,19.2
	c-1.2,0.533-1.934,0.634-2.2,0.3c-0.4-6.5-0.717-13.166-0.95-20c0.633-0.366,1.233-0.483,1.8-0.35
	C26.567,57.55,27.017,57.833,27.35,58.3z"/>
</svg>
