<?xml version="1.0" encoding="iso-8859-1"?>
<!-- Generator: Adobe Illustrator 15.1.0, SVG Export Plug-In . SVG Version: 6.00 Build 0)  -->
<!DOCTYPE svg PUBLIC "-//W3C//DTD SVG 1.1//EN" "http://www.w3.org/Graphics/SVG/1.1/DTD/svg11.dtd">
<svg version="1.1" id="signpost_x5F_asset_x5F_warp.ai"
	 xmlns="http://www.w3.org/2000/svg" xmlns:xlink="http://www.w3.org/1999/xlink" x="0px" y="0px" width="62.4px" height="141.85px"
	 viewBox="0 0 62.4 141.85" style="enable-background:new 0 0 62.4 141.85;" xml:space="preserve">
<g>
	<path style="fill-rule:evenodd;clip-rule:evenodd;fill:#FAD58F;" d="M12.25,16.05C18.217,5.517,24.733,0.167,31.8,0
		C40.833-0.233,48.2,4.983,53.9,15.65C59,25.317,61.8,37.3,62.3,51.6c0.5,14.333-1.483,26.817-5.95,37.45
		c-4.966,11.8-12.017,18.533-21.149,20.2l-4.05,25.5l0.149-0.05c2.934-0.4,5.4,0.316,7.4,2.149c1.033,0.9,1.75,1.851,2.149,2.851
		c-3,1-6.35,1.684-10.05,2.05c-2.066,0.2-4.2,0.083-6.4-0.35l-2.65-0.7c0.333-0.634,0.867-1.334,1.6-2.101
		c1.533-1.533,3.367-2.649,5.5-3.35c0.2-7.667-0.15-13.884-1.05-18.65c-0.633-3.3-1.617-5.833-2.95-7.6
		c-10.2-2.167-17.333-9.116-21.4-20.85C-0.117,77.884-0.933,65.6,1,51.3C2.833,37.7,6.583,25.95,12.25,16.05z"/>
	<path style="fill-rule:evenodd;clip-rule:evenodd;fill:#FDEAC8;" d="M17.7,19.5c5.233-9.233,10.917-13.55,17.05-12.95
		c5.667,0.567,10.483,6.217,14.45,16.95c3.733,10.1,5.717,21.617,5.95,34.55c0.267,13.667-1.601,24.601-5.601,32.8
		c-4.633,9.434-11.399,13.334-20.3,11.7c-8.933-1.633-15.217-7.75-18.85-18.35c-3.167-9.233-3.933-20.317-2.3-33.25
		C9.633,38.617,12.833,28.133,17.7,19.5z"/>
	<path style="fill-rule:evenodd;clip-rule:evenodd;fill:#D27948;" d="M22.75,27.15c4.233-6.967,8.467-10.15,12.7-9.55
		c3.434,0.5,6.55,4.683,9.35,12.55c2.733,7.667,4.267,16.133,4.601,25.4c0.333,10.167-0.967,18.25-3.9,24.25
		c-3.467,7.033-8.816,10.084-16.05,9.15c-7.267-0.934-12.15-5.334-14.65-13.2c-2.2-6.767-2.4-15.067-0.6-24.9
		C15.867,41.65,18.717,33.75,22.75,27.15z"/>
	<path style="fill-rule:evenodd;clip-rule:evenodd;fill:#FBE1B0;" d="M32.35,33.2c1.834,0.133,3.551,2.6,5.15,7.4
		c1.533,4.6,2.5,9.816,2.9,15.65c0.399,6.267-0.017,11.317-1.25,15.15c-1.467,4.466-3.9,6.466-7.301,6
		c-3.433-0.467-6.05-3.084-7.85-7.851c-1.6-4.267-2.3-9.367-2.1-15.3c0.2-5.867,1.2-10.8,3-14.8C26.867,35.083,29.35,33,32.35,33.2z
		"/>
	<path style="fill-rule:evenodd;clip-rule:evenodd;fill:#B36940;" d="M30.15,43.75c1.067-0.367,2.133,0.55,3.2,2.75
		c1,2.067,1.717,4.6,2.15,7.6c1.1,7.7-0.017,11.783-3.35,12.25c-1.667,0.233-3-0.717-4-2.85c-0.9-1.9-1.417-4.383-1.55-7.45
		c-0.167-2.933,0.066-5.566,0.7-7.9C27.967,45.617,28.917,44.15,30.15,43.75z"/>
	<path style="fill-rule:evenodd;clip-rule:evenodd;fill:#D27948;" d="M31.55,52.8c0.834,0,1.334,1.25,1.5,3.75
		c0.167,2.5-0.333,3.75-1.5,3.75c-1.333,0-2.083-1.25-2.25-3.75C29.133,54.05,29.883,52.8,31.55,52.8z"/>
</g>
</svg>
