<?xml version="1.0" encoding="iso-8859-1"?>
<!-- Generator: Adobe Illustrator 15.1.0, SVG Export Plug-In . SVG Version: 6.00 Build 0)  -->
<!DOCTYPE svg PUBLIC "-//W3C//DTD SVG 1.1//EN" "http://www.w3.org/Graphics/SVG/1.1/DTD/svg11.dtd">
<svg version="1.1" id="signpost_x5F_asset_x5F_twoArrows.ai"
	 xmlns="http://www.w3.org/2000/svg" xmlns:xlink="http://www.w3.org/1999/xlink" x="0px" y="0px" width="114.7px"
	 height="246.05px" viewBox="0 0 114.7 246.05" style="enable-background:new 0 0 114.7 246.05;" xml:space="preserve">
<symbol  id="signpost_x5F_asset_x5F_twoArrows.ai_Assets_x2F_Layer_1_x2F__x3C_Path_x3E__x5F_1" viewBox="0 -98.25 24.265 98.25">
	<g id="Layer_1_2_">
		<path style="fill-rule:evenodd;clip-rule:evenodd;fill:#89AA8B;" d="M23.1-29c0.633,7.367,0.167,12.95-1.4,16.75
			C20.533-9.417,18.367-5.333,15.2,0c1.4-1.6,2.833-3.683,4.3-6.25c2.9-5.167,4.467-10.2,4.7-15.1
			c0.267-4.767-0.284-14.217-1.65-28.35c-0.7-7.4-1.566-16.2-2.6-26.4c-0.233-3.533,0.117-7.1,1.05-10.7
			c0.567-2.2,1.2-3.95,1.9-5.25c-1.767,0.5-3.117,0.65-4.05,0.45c-1.967-0.433-4.283-1.667-6.95-3.7
			c-1.333-1.034-2.467-2.017-3.4-2.95c0.567,1.167,0.883,2.317,0.95,3.45c0.1,2.267-1.1,3.333-3.6,3.2c-1.7-0.1-3.65-0.433-5.85-1
			c1.267,0.833,2.65,2,4.15,3.5c3,2.967,5.267,6.25,6.8,9.85c1.733,4,4.167,12.733,7.3,26.2C21.183-40.417,22.8-32.4,23.1-29z"/>
	</g>
</symbol>
<g>
	<path style="fill-rule:evenodd;clip-rule:evenodd;fill:#89AA8B;" d="M53.3,138.05c0.601-3.666,0.9-7.633,0.9-11.899
		c0-8.601-1.467-14.5-4.4-17.7c-3.733-4.066-6.934-6.6-9.6-7.6c-3-1.134-5.934-0.567-8.8,1.699c-2.467,1.934-4.667,4.5-6.601,7.7
		c-1,1.533-1.733,2.9-2.2,4.101c0.801-3.334,2.101-6.7,3.9-10.101c3.667-6.8,8.066-10.333,13.2-10.6c5.467-0.2,9.967,1.566,13.5,5.3
		c2.399,2.6,4.2,5.967,5.399,10.1c1.2,3.934,2,12.4,2.4,25.4L53.3,138.05z"/>
	<g>
		<g>
			<path style="fill-rule:evenodd;clip-rule:evenodd;fill:#B89169;" d="M33.9,97.15c-0.867-0.667-0.601-2.167,0.8-4.5
				c1.333-2.334,2.166-3.334,2.5-3l4.5,5.899L33.9,97.15z"/>
			<path style="fill-rule:evenodd;clip-rule:evenodd;fill:#C9A071;" d="M67.8,70.75l0.9,2.7c0.934,1.934,2.366,3.4,4.3,4.4
				c1.934,1.066,0.1,1.899-5.5,2.5l-8.9,0.6l-1.6-11.1L67.8,70.75z"/>
			<path style="fill-rule:evenodd;clip-rule:evenodd;fill:#DFBC71;" d="M102,82.25l-20.8,7.601l12.1,19.8L42.9,99.05
				c0.066-0.666-0.034-1.366-0.301-2.1c-0.6-1.467-1.733-2.4-3.399-2.8c-1.667-0.4-3.033,0-4.101,1.2c-0.6,0.533-1,1.133-1.199,1.8
				l-19.101-4l-8.1-20.8L20.3,59.75l40.5,11.101l1.4,2.6c1.267,1.866,2.934,3.033,5,3.5c1.8,0.4,3.533,0.134,5.2-0.8
				c0.866-0.467,1.533-0.967,2-1.5L102,82.25z"/>
			<polygon style="fill-rule:evenodd;clip-rule:evenodd;fill:#C9A071;" points="112.3,81.851 88.7,89.351 81.2,89.851 100.6,82.15 
							"/>
			<g>
				<path style="fill-rule:evenodd;clip-rule:evenodd;fill:#E6CB90;" d="M29.5,90.55c-1-0.399-1.566-1.066-1.7-2
					c-0.066-0.933,0.533-1.199,1.8-0.8c1.4,0.4,2,1.066,1.801,2C31.2,90.684,30.566,90.95,29.5,90.55z"/>
				<path style="fill-rule:evenodd;clip-rule:evenodd;fill:#E6CB90;" d="M27.2,82.75c1.2-0.666,1.899-0.967,2.1-0.899l12.7,4.6
					c1.2,0.4,4.1,0.767,8.7,1.1l1.8,1.601c-4.4-0.4-7.9-0.867-10.5-1.4c-1.667-0.333-3.233-0.8-4.7-1.399
					c-1.533-0.667-2.733-1.2-3.6-1.601c-1.066-0.399-2.767-0.7-5.101-0.899l-3.199-0.2C26,83.316,26.6,83.017,27.2,82.75z"/>
				<path style="fill-rule:evenodd;clip-rule:evenodd;fill:#E6CB90;" d="M15.9,87.25c5.199,0,8.767-0.333,10.699-1l-0.8,1.4
					c-0.399,1.066-0.333,1.833,0.2,2.3c0.8,0.733,1.333,1.467,1.6,2.2c-2-1.533-4.199-2.733-6.6-3.601
					c-1.467-0.533-2.767-0.899-3.9-1.1L15.9,87.25z"/>
				<path style="fill-rule:evenodd;clip-rule:evenodd;fill:#E6CB90;" d="M71,95.45c-1.6-0.267-2.467,0.134-2.6,1.2
					c-0.067,1.066,0.666,1.7,2.199,1.899c1.467,0.267,2.233-0.133,2.301-1.199C72.9,96.351,72.267,95.717,71,95.45z M64.3,94.95
					c0.134-2.8,1.934-3.866,5.4-3.2c2.934,0.601,4.6,2.5,5,5.7c0.467,3.134-1.167,4.2-4.9,3.2C66,99.65,64.167,97.75,64.3,94.95z"/>
				<polygon style="fill-rule:evenodd;clip-rule:evenodd;fill:#E6CB90;" points="51.4,96.95 49.6,94.45 64.4,99.55 				"/>
				<polygon style="fill-rule:evenodd;clip-rule:evenodd;fill:#E6CB90;" points="74.4,89.15 78.3,92.05 61.8,85.55 76.8,88.15 				
					"/>
				<path style="fill-rule:evenodd;clip-rule:evenodd;fill:#E6CB90;" d="M84.7,85.65l-2.8,0.7C68.5,82.483,60.1,80.117,56.7,79.25
					l-17.3-2.8l0.699-1.8l23,4.899c0.934,0.2,2.534,0.301,4.801,0.301c2.333-0.067,4.133,0,5.399,0.199c1.334,0.2,2.4,0.867,3.2,2
					c0.866,1.134,1.634,1.801,2.3,2L84.7,85.65z"/>
				<path style="fill-rule:evenodd;clip-rule:evenodd;fill:#E6CB90;" d="M62.8,95.851L52.2,93.05c-2.467-0.666-6.101-1.366-10.9-2.1
					l-6.399-0.9l0.6-1.6l17.7,3.7c1.8,0.399,5.166,0.967,10.1,1.7L62.8,95.851z"/>
				<path style="fill-rule:evenodd;clip-rule:evenodd;fill:#E6CB90;" d="M43.8,98.65l-0.5-1.8l-0.1-2l3.5,1.8
					c2.533,1.267,4.267,2.033,5.2,2.3c2,0.533,6.933,1.4,14.8,2.6c1.6,0.267,3.566,0.367,5.899,0.301c1.2-0.067,2.534-0.134,4-0.2
					c0.467,0,1.233,0.533,2.301,1.6c1.066,1.134,2,1.834,2.8,2.101c1.533,0.466,4.3,0.866,8.3,1.199l1.6,2
					c-13.933-3.267-22.666-5.233-26.199-5.899L43.8,98.65z"/>
				<path style="fill-rule:evenodd;clip-rule:evenodd;fill:#E6CB90;" d="M20,72.25l-6.5-2.8l3.7,0.5
					c2.666,0.467,4.633,1.233,5.899,2.3c1,0.8,2.301,1.934,3.9,3.4c1.4,1.133,2.967,1.899,4.7,2.3c1.6,0.4,6.967,1.434,16.1,3.1
					l8.101,1.4l-2,2.8c0.066-0.333,0.033-0.666-0.101-1c-0.267-0.666-0.967-1.1-2.1-1.3h-3.4c-2,0.267-3.467,0.434-4.399,0.5
					c-1.667,0.2-2.867,0.267-3.601,0.2c-0.8-0.134-1.434-0.667-1.899-1.601c-0.534-0.866-1.267-1.366-2.2-1.5
					c-2.467-0.333-4.267-0.533-5.4-0.6c-2.533-0.066-4.7,0.3-6.5,1.1c-1.8,0.867-3.566,1.301-5.3,1.301c-0.934,0-2.4-0.167-4.4-0.5
					c-2-0.267-3.199-0.867-3.6-1.801c0.934,0.733,2.7,1.167,5.3,1.301c2.134,0.066,4.066-0.167,5.8-0.7
					c1.867-0.601,2.801-1.4,2.801-2.4c0-1.133-0.467-2.267-1.4-3.399C22.566,73.717,21.4,72.851,20,72.25z"/>
				<path style="fill-rule:evenodd;clip-rule:evenodd;fill:#E6CB90;" d="M14.7,90.45l4.3,1.4c3.2,0.933,5.434,1.533,6.7,1.8
					c2.066,0.399,5.033,0.767,8.899,1.1l-1.199,1.4l-18-3.8L14.7,90.45z"/>
				<polygon style="fill-rule:evenodd;clip-rule:evenodd;fill:#E6CB90;" points="81.2,89.851 88.7,89.351 99.7,107.95 93.3,109.65 
									"/>
				<polygon style="fill-rule:evenodd;clip-rule:evenodd;fill:#E6CB90;" points="86.8,75.05 112.3,81.851 102,82.25 74.4,74.65 				
					"/>
				<path style="fill-rule:evenodd;clip-rule:evenodd;fill:#E6CB90;" d="M31.5,64.851c1.4,0.399,4.033,1.399,7.9,3
					c1.133,0.466,7.866,1.733,20.199,3.8l0.301,1.6c-4.2-0.666-7.233-1.267-9.101-1.8c-0.333-0.134-1.066-0.033-2.2,0.3
					c-0.933,0.334-1.633,0.601-2.1,0.8c-1.2,0.267-2.2,0.301-3,0.101c-1.333-0.334-3.066-1.367-5.2-3.101
					c-2.133-1.733-3.7-2.733-4.7-3l-15.6-4l2.3-1.699L31.5,64.851z"/>
				<polygon style="fill-rule:evenodd;clip-rule:evenodd;fill:#E6CB90;" points="71.7,77.25 74.5,75.75 97.2,81.851 				"/>
				<polygon style="fill-rule:evenodd;clip-rule:evenodd;fill:#E6CB90;" points="35.5,59.75 67.8,70.75 60.8,70.851 20.3,59.75 				
					"/>
				<path style="fill-rule:evenodd;clip-rule:evenodd;fill:#E6CB90;" d="M16.6,73.351c-1.666-0.534-2.6-0.2-2.8,1
					c-0.267,1.199,0.467,2.3,2.2,3.3c2,1.066,3.333,0.833,4-0.7C20.667,75.483,19.533,74.283,16.6,73.351z M17.4,79.65
					c-3-0.867-4.634-2.434-4.9-4.7c-0.267-2.2,0.767-3.233,3.1-3.1c3.267,0.267,5.2,1.866,5.801,4.8
					C22,79.584,20.667,80.584,17.4,79.65z"/>
				<path style="fill-rule:evenodd;clip-rule:evenodd;fill:#E6CB90;" d="M31.7,73.75c-2.867-0.733-4-2-3.4-3.8
					c0.601-1.8,1.733-2.566,3.4-2.3c2.2,0.2,3.5,1.467,3.899,3.8C36.066,73.717,34.767,74.483,31.7,73.75z"/>
				<polygon style="fill-rule:evenodd;clip-rule:evenodd;fill:#E6CB90;" points="26.6,67.351 26.2,68.75 17.4,65.75 				"/>
			</g>
		</g>
	</g>
	<path style="fill-rule:evenodd;clip-rule:evenodd;fill:#A2BDA2;" d="M70.3,89.05c0.867,6.4,1.5,14.834,1.9,25.301
		c0.533,15.333,0.899,24.8,1.1,28.399c0.8,11.533,3.434,26.4,7.9,44.601c4.8,19.6,9.066,30.933,12.8,34
		c5.333,4.466,12.233,8.933,20.699,13.399c-4.866-1.8-10.032-3.333-15.499-4.6c-10.934-2.533-17.767-2.566-20.5-0.101
		c-2.8,2.534-3.101,5.834-0.9,9.9c1.134,2.066,2.533,3.866,4.2,5.4c-3.333-2.4-7.066-4.733-11.2-7c-8.2-4.534-14.233-6.4-18.1-5.601
		c-3.934,0.867-8.566,3.334-13.9,7.4c-2.666,2.066-4.934,4.033-6.8,5.899c1.134-2.333,1.767-4.633,1.9-6.899
		c0.199-4.533-2.2-6.667-7.2-6.4s-10.934,1.566-17.8,3.9c-3.467,1.133-6.434,2.267-8.9,3.399c4.533-3.333,9.5-7.899,14.9-13.699
		c10.8-11.667,18.267-23.767,22.399-36.301c5.533-16.6,10.267-33,14.2-49.199c4.533-18.534,7.134-33.567,7.8-45.101
		c0.867-13.066-4.434-28.166-15.899-45.3c-5.733-8.533-11.534-15.767-17.4-21.7h9.7c5.133,5.2,10.399,11.601,15.8,19.2
		C62.366,63.15,68.634,76.851,70.3,89.05z"/>
	<g>
		<path style="fill-rule:evenodd;clip-rule:evenodd;fill:#89AA8B;" d="M28.6,31.45l6.101-2.7l12.2,18
			c4.333,6.533,7.666,12.066,10,16.601c4.6,8.866,7.433,16.933,8.5,24.199c1.133,7.534,1.666,16.134,1.6,25.801
			c-0.066,5.933-0.434,14.5-1.1,25.699c-0.601,9.801-0.5,24.233,0.3,43.301c0.866,21.199,2.2,35.1,4,41.699
			c1.666,6.067,4.133,11.434,7.399,16.101c1.667,2.333,3.134,4.066,4.4,5.2c-7.733-5.667-14.8-9.567-21.2-11.7
			c-1.399-2.601-2.666-6.101-3.8-10.5c-1.866-7.2-2.566-14.334-2.1-21.4c2.066-20.399,3.8-38,5.199-52.8
			c2.733-28.267,3.834-47.167,3.301-56.7c-0.467-9.8-3.601-19.866-9.4-30.2l-8.6-12.5L50.6,58.65
			c3.733,6.733,6.334,11.866,7.801,15.399c3.133,7.601,4.066,18.767,2.8,33.5c-0.601,6.801-3.834,22.834-9.7,48.101
			c-6.267,26.934-11.134,44.399-14.6,52.399c-3.067,7.2-7.601,13.767-13.601,19.7c-3,3-5.767,5.334-8.3,7
			c-5.467,1.467-10.467,3.233-15,5.3c4.533-3.333,9.5-7.899,14.9-13.699c10.8-11.667,18.267-23.767,22.399-36.301
			c5.533-16.6,10.267-33,14.2-49.199c4.533-18.534,7.134-33.567,7.8-45.101c0.733-11.267-3.166-24.133-11.7-38.6
			C42.4,48.351,36.066,39.783,28.6,31.45z"/>
		
			<use xlink:href="#signpost_x5F_asset_x5F_twoArrows.ai_Assets_x2F_Layer_1_x2F__x3C_Path_x3E__x5F_1"  width="24.265" height="98.25" y="-98.25" transform="matrix(2 0 0 -2 15 49.5498)" style="overflow:visible;enable-background:new    ;"/>
		<path style="fill-rule:evenodd;clip-rule:evenodd;fill:#6B8B6F;" d="M58.4,74.05c-1.467-3.533-4.067-8.666-7.801-15.399
			L45.4,49.55l8.6,12.5c5.8,10.334,8.934,20.4,9.4,30.2c0.533,9.533-0.567,28.434-3.301,56.7c-1.399,14.8-3.133,32.4-5.199,52.8
			c-0.467,7.066,0.233,14.2,2.1,21.4c1.134,4.399,2.4,7.899,3.8,10.5c-3.533-1-6.233-1.3-8.1-0.9c-3.934,0.867-8.566,3.334-13.9,7.4
			c-2.666,2.066-4.934,4.033-6.8,5.899c1.134-2.333,1.767-4.633,1.9-6.899c0.199-4.533-2.2-6.667-7.2-6.4c-3.4,0.2-7.3,0.867-11.7,2
			c2.533-1.666,5.3-4,8.3-7c6-5.934,10.533-12.5,13.601-19.7c3.466-8,8.333-25.466,14.6-52.399c5.866-25.267,9.1-41.3,9.7-48.101
			C62.467,92.816,61.533,81.65,58.4,74.05z"/>
	</g>
	<g>
		<polygon style="fill-rule:evenodd;clip-rule:evenodd;fill:#B89169;" points="45.3,44.55 35.6,43.45 39.6,37.351 49.2,40.75 		"/>
		<path style="fill-rule:evenodd;clip-rule:evenodd;fill:#C9A071;" d="M41.2,9.15l13.7-0.2c0.533,1.8,0.699,3.634,0.5,5.5
			c-0.467,3.733-2.534,5.8-6.2,6.2c-3.733,0.399-7.4-0.7-11-3.3l-4.3-4.101l2.1,0.2c1.533,0.066,2.733-0.134,3.6-0.6
			C41,12.117,41.533,10.884,41.2,9.15z"/>
		<path style="fill-rule:evenodd;clip-rule:evenodd;fill:#DFBC71;" d="M53,10.75l16.2-5.1L87.6,21.55l-12.8,19.9l-29.5,3.1
			c-1.133-1.933-2.7-2.8-4.7-2.6c-1.199,0.2-2.3,0.866-3.3,2c-0.533,0.533-0.934,1.066-1.2,1.6l-23.6,2.5l7-13.899l-10.9-9.3
			L43.7,13.75l1.8,1.5c1.4,0.867,2.7,1.167,3.9,0.9C51.333,15.617,52.533,13.816,53,10.75z"/>
		<polygon style="fill-rule:evenodd;clip-rule:evenodd;fill:#E6CB90;" points="33.4,12.25 43.7,13.75 8.6,24.851 3.1,24.05 		"/>
		<polygon style="fill-rule:evenodd;clip-rule:evenodd;fill:#E6CB90;" points="53,10.851 41.2,9.15 50.6,5.55 69.2,5.65 		"/>
		<polygon style="fill-rule:evenodd;clip-rule:evenodd;fill:#C9A071;" points="12.5,48.05 8.2,46.75 15,33.851 19.5,34.15 		"/>
		<polygon style="fill-rule:evenodd;clip-rule:evenodd;fill:#B89169;" points="3.1,24.05 8.6,24.851 19.5,34.15 15,33.851 		"/>
		<path style="fill-rule:evenodd;clip-rule:evenodd;fill:#E6CB90;" d="M45.3,16.45l-8.8,2.6l-0.4,2.101
			c-0.533,1.533-1.433,2.533-2.699,3c-1.267,0.399-2.767,0.233-4.5-0.5l-2.2-1.3l-12.101,4.5l-2.5-1.801l31.4-9.6L45.3,16.45z"/>
		<path style="fill-rule:evenodd;clip-rule:evenodd;fill:#E6CB90;" d="M66.5,37.55c1.667-0.199,2.566-1.066,2.7-2.6
			c0.133-1.533-0.7-1.967-2.5-1.3c-1.667,0.6-2.533,1.467-2.601,2.6C64.033,37.316,64.833,37.75,66.5,37.55z M64.7,31.75
			c4.2-0.8,6.5,0.4,6.899,3.601c0.467,3.199-1.5,5-5.899,5.399c-4.2,0.4-6.267-0.833-6.2-3.7
			C59.634,34.184,61.366,32.417,64.7,31.75z"/>
		<path style="fill-rule:evenodd;clip-rule:evenodd;fill:#E6CB90;" d="M64.2,15.15c2.866-0.601,4-0.066,3.399,1.6
			c-0.533,1.667-2.033,2.667-4.5,3c-2.199,0.267-3.033-0.333-2.5-1.8C61.134,16.483,62.333,15.55,64.2,15.15z"/>
		<path style="fill-rule:evenodd;clip-rule:evenodd;fill:#E6CB90;" d="M38.6,35.25c3.134-0.399,4.334-1.566,3.601-3.5
			c-0.667-2-2.267-2.8-4.8-2.399c-2.4,0.466-3.601,1.666-3.601,3.6C33.866,34.884,35.467,35.65,38.6,35.25z M35.7,28.15
			c4.733-1.334,7.866-0.334,9.399,3c1.534,3.333-0.3,5.399-5.5,6.2c-4.8,0.666-7.366-0.5-7.699-3.5
			C31.634,30.851,32.9,28.95,35.7,28.15z"/>
		<path style="fill-rule:evenodd;clip-rule:evenodd;fill:#E6CB90;" d="M17.5,42.851c0.667,1.133,6.267,1.767,16.8,1.899L14.9,46.351
			L17.5,42.851z"/>
		<polygon style="fill-rule:evenodd;clip-rule:evenodd;fill:#E6CB90;" points="19.2,28.05 28.4,24.95 32.4,26.95 		"/>
		<path style="fill-rule:evenodd;clip-rule:evenodd;fill:#E6CB90;" d="M82,23.95c-1.066-0.2-2.8-0.033-5.2,0.5
			c-10.2,2.333-16.666,3.434-19.399,3.3c-2.067-0.066-3.934,0.334-5.601,1.2c-1.666,0.8-2.666,1.8-3,3c-0.2,0.8-0.399,2-0.6,3.6
			c-0.4,1.4-1.2,2.301-2.4,2.7c-1.133,0.4-2.633,0.8-4.5,1.2l-2.399,0.5l3.399-0.9c2.334-1,3.7-2.433,4.101-4.3l1.6-7.399
			c-0.934-0.534-2.1-1-3.5-1.4c-2.8-0.866-5.3-1.066-7.5-0.6l3.4-0.801c2.6-0.399,4.866-0.366,6.8,0.101
			c4.8,1.133,9.1,1.533,12.899,1.2c3-0.334,11.334-1.834,25-4.5l-2.199,3.1C82.833,24.25,82.533,24.084,82,23.95z"/>
		<polygon style="fill-rule:evenodd;clip-rule:evenodd;fill:#E6CB90;" points="68.7,8.65 54,15.55 55.1,12.15 		"/>
		<path style="fill-rule:evenodd;clip-rule:evenodd;fill:#E6CB90;" d="M81.6,19.05l1.101,1.5l-24.2,4l-3.3-1.8l2.3,0.101
			c1.866,0.066,3.5-0.034,4.9-0.301L81.6,19.05z"/>
		<path style="fill-rule:evenodd;clip-rule:evenodd;fill:#E6CB90;" d="M80,26.45c-5.4,2.2-9.634,3.5-12.7,3.9
			c-1.934,0.267-4.833,0.8-8.7,1.6l-5.199,1.1l1.3-2.399L80,26.45z"/>
		<path style="fill-rule:evenodd;clip-rule:evenodd;fill:#E6CB90;" d="M42.4,40.15L55.8,39.05c0.601-0.133,1.167,0.167,1.7,0.9
			c0.6,0.8,1.6,1.2,3,1.2c6.733,0,10.634-0.634,11.7-1.9c1.066-1.133,1.733-2.3,2-3.5h2.7l-3.101,5l-27.5,3
			C44.767,41.483,43.467,40.283,42.4,40.15z"/>
		<path style="fill-rule:evenodd;clip-rule:evenodd;fill:#E6CB90;" d="M41.1,20.45l6-1.8c4.267-1.267,7.034-2.167,8.301-2.7
			l14.699-6l2.301,0.7c-7.334,2.6-11.601,4.3-12.801,5.1c-1.333,0.867-4.566,2.033-9.699,3.5L38.6,22.351L41.1,20.45z"/>
		<polygon style="fill-rule:evenodd;clip-rule:evenodd;fill:#E6CB90;" points="48,22.25 59.2,19.351 60.1,21.05 		"/>
		<path style="fill-rule:evenodd;clip-rule:evenodd;fill:#E6CB90;" d="M73.9,14.65c1.267-0.4,2-0.134,2.199,0.8
			c0.2,0.866-0.5,1.5-2.1,1.9c-1.467,0.399-2.033,0.1-1.7-0.9C72.566,15.517,73.1,14.917,73.9,14.65z"/>
		<polygon style="fill-rule:evenodd;clip-rule:evenodd;fill:#E6CB90;" points="21.9,36.55 29.1,35.15 31.7,36.45 19.6,38.351 		"/>
	</g>
	<path style="fill-rule:evenodd;clip-rule:evenodd;fill:#A2BDA2;" d="M54.9,4.65c1.933-1.066,3.533-2.167,4.8-3.3
		c-3.601,4-6.834,6.566-9.7,7.699c-1.934,0.733-5.4,0.867-10.4,0.4c-4.133-0.467-7.333-1.033-9.6-1.7
		c-4.6-1.399-6.366-0.7-5.3,2.101c0.533,1.399,1.533,2.933,3,4.6l-4.7,1.8c-1.6-1.399-3.033-3.066-4.3-5
		c-2.601-3.8-3.066-6.967-1.4-9.5c1.601-2.399,5.767-2.3,12.5,0.3c8.934,3.534,13.566,5.301,13.9,5.301
		C47.233,7.75,50.967,6.851,54.9,4.65z"/>
	<g>
		<path style="fill-rule:evenodd;clip-rule:evenodd;fill:#89AA8B;" d="M59.7,1.351c-3.601,4-6.834,6.566-9.7,7.699
			c-1.934,0.733-5.4,0.867-10.4,0.4c-4.133-0.467-7.333-1.033-9.6-1.7c-2.467-0.8-4.1-0.934-4.9-0.399L25,7.25
			c-0.333-0.6,1.2-0.7,4.6-0.3c1.801,0.2,4.5,0.6,8.101,1.2c3,0.467,4.866,0.7,5.6,0.7C45.366,8.917,47.6,8.55,50,7.75
			C52.733,6.95,55.967,4.816,59.7,1.351z"/>
		<path style="fill-rule:evenodd;clip-rule:evenodd;fill:#89AA8B;" d="M19.5,0.15c-1.533,1.533-1.267,4.366,0.8,8.5
			c0.867,1.8,2.5,4.066,4.9,6.8l-2.2,0.8c-1.6-1.399-3.033-3.066-4.3-5c-2.601-3.8-3.066-6.967-1.4-9.5
			C17.9,0.95,18.634,0.417,19.5,0.15z"/>
	</g>
</g>
</svg>
