<?xml version="1.0" encoding="iso-8859-1"?>
<!-- Generator: Adobe Illustrator 15.1.0, SVG Export Plug-In . SVG Version: 6.00 Build 0)  -->
<!DOCTYPE svg PUBLIC "-//W3C//DTD SVG 1.1//EN" "http://www.w3.org/Graphics/SVG/1.1/DTD/svg11.dtd">
<svg version="1.1" id="crack" xmlns="http://www.w3.org/2000/svg" xmlns:xlink="http://www.w3.org/1999/xlink" x="0px" y="0px"
	 width="120.65px" height="337.35px" viewBox="0 0 120.65 337.35" style="enable-background:new 0 0 120.65 337.35;"
	 xml:space="preserve">
<g>
	
		<linearGradient id="SVGID_1_" gradientUnits="userSpaceOnUse" x1="48.3022" y1="-60.3242" x2="298.2773" y2="-60.3242" gradientTransform="matrix(4.000400e-006 1 -1 -0.001 2.845416e-004 -4.665204e-005)">
		<stop  offset="0" style="stop-color:#223A3B"/>
		<stop  offset="1" style="stop-color:#2F5D60"/>
	</linearGradient>
	<polygon style="fill-rule:evenodd;clip-rule:evenodd;fill:url(#SVGID_1_);" points="72.65,46.7 68.65,17.35 49.3,0 73.3,15.35 
		78,48.7 94.65,54 74,52 51.3,62 56.65,94.7 94,105.35 78,127.35 92,154 68.65,165.35 70.65,201.35 48,212 44,226 54.65,236.7 
		72,232.7 92,243.35 120.65,246 90.65,247.35 68.65,238 58,242 57.3,257.35 68,262.7 74.65,278.7 88.65,286.7 82.65,308 
		84.65,288.7 69.3,282.7 64,267.35 52,262.7 52.65,244.7 42,238 30.65,255.35 34.65,294 14.65,316.7 8,337.35 10.65,314 29.3,290.7 
		21.3,254.7 34,232.7 33.3,214.7 11.3,201.35 16,162.7 0,145.35 5.3,114.7 45.3,92 45.3,58.7 	"/>
	<g>
		<polygon style="fill-rule:evenodd;clip-rule:evenodd;fill:#FFFFFF;" points="26.35,192.25 37.8,197.3 40.05,184.5 42.8,196.85 
			55.65,192.7 45.1,199.15 53.35,206.45 41.9,201.9 34.55,220.65 38.7,203.25 20.6,206.95 20.25,206.75 34.1,201.9 		"/>
		<polygon style="fill-rule:evenodd;clip-rule:evenodd;fill:#FFFFFF;" points="70.35,268.35 73.8,276.65 67.65,277.9 67.1,276.3 
			71.1,274.9 63.35,265.25 		"/>
		<polygon style="fill-rule:evenodd;clip-rule:evenodd;fill:#FFFFFF;" points="75.05,278.9 76.9,279.95 75,284.9 73.75,284.4 		"/>
		<polygon style="fill-rule:evenodd;clip-rule:evenodd;fill:#FFFFFF;" points="58.65,147.45 46.75,146.75 59.4,145.05 60.1,135.75 
			60.8,144.35 67,139.8 63.2,145.3 68.2,149.6 61.55,147.45 59.15,159.1 		"/>
		<polygon style="fill-rule:evenodd;clip-rule:evenodd;fill:#FFFFFF;" points="2.5,130.8 12.75,129.85 13.9,116.35 17.45,128.65 
			29.8,131.6 19.2,133.4 12.15,145.15 12.15,133.95 2.4,131.5 		"/>
		<polygon style="fill-rule:evenodd;clip-rule:evenodd;fill:#FFFFFF;" points="50.75,84.1 50.75,72.95 45.3,71.55 45.3,69.4 
			51.35,68.8 51.7,64.5 54.05,78.65 		"/>
		<polygon style="fill-rule:evenodd;clip-rule:evenodd;fill:#FFFFFF;" points="54.1,60.8 51.95,61.7 52.5,55.5 52.6,55.5 		"/>
		<polygon style="fill-rule:evenodd;clip-rule:evenodd;fill:#FFFFFF;" points="67.5,97.8 70.95,98.75 73.35,102.3 77.6,100.65 
			80.2,101.4 75.05,106 78.9,119.35 70.3,106.85 54.3,110.85 68.9,103.65 		"/>
	</g>
</g>
</svg>
