<?xml version="1.0" encoding="iso-8859-1"?>
<!-- Generator: Adobe Illustrator 15.1.0, SVG Export Plug-In . SVG Version: 6.00 Build 0)  -->
<!DOCTYPE svg PUBLIC "-//W3C//DTD SVG 1.1//EN" "http://www.w3.org/Graphics/SVG/1.1/DTD/svg11.dtd">
<svg version="1.1" id="signpost_x5F_asset_x5F_oneArrow.ai"
	 xmlns="http://www.w3.org/2000/svg" xmlns:xlink="http://www.w3.org/1999/xlink" x="0px" y="0px" width="112.8px" height="218px"
	 viewBox="0 0 112.8 218" style="enable-background:new 0 0 112.8 218;" xml:space="preserve">
<g>
	<g>
		<path style="fill-rule:evenodd;clip-rule:evenodd;fill:#A2BDA2;" d="M50.7,48.1c5.133-7.866,7.633-16.399,7.5-25.6
			c-0.066-9.533-3.066-14.667-9-15.4C44.134,6.5,41.6,9.6,41.6,16.4c0,3.466,0.5,6.966,1.5,10.5C41.9,24.3,41,21.366,40.4,18.1
			c-1.334-6.533-0.667-11.466,2-14.8c1.866-2.333,4.966-3.233,9.3-2.7c5,0.534,9.233,3.2,12.7,8
			c4.066,5.733,5.966,12.767,5.699,21.101c-0.333,9.333-3.5,19.5-9.5,30.5c-4.733,8.733-7.5,17.366-8.3,25.899
			c-0.733,7.067-0.133,14.667,1.8,22.801c0.467-5.467,2.167-9,5.101-10.601c2.333-1.333,4.3-0.399,5.899,2.8
			c1.801,3.534,3,5.267,3.601,5.2c2.066-0.2,3.967-1.066,5.7-2.6l-2.301,2.8c-1.733,1.733-3.1,2.333-4.1,1.8
			c-0.667-0.333-1.833-1.733-3.5-4.2c-1.4-1.933-2.5-2.699-3.3-2.3c-1.066,0.533-1.8,3.634-2.2,9.3c-0.4,6-0.1,11.5,0.9,16.5
			L63.6,138.4C69.2,155,73.566,167.167,76.7,174.9c5.133,12.399,9.866,20.966,14.2,25.699c5.199,5.601,12.5,10.4,21.9,14.4
			c-7.134-2.733-13.801-4.9-20.001-6.5c-9.267-2.267-15.434-2.634-18.5-1.1c-3.8,1.933-4.833,4.267-3.1,7
			c0.866,1.399,2.133,2.6,3.8,3.6c-2.8-1.6-5.833-3.2-9.1-4.8c-6.601-3.134-11.167-4.566-13.7-4.3c-2.467,0.333-5.733,1.699-9.8,4.1
			c-2,1.2-3.767,2.366-5.301,3.5c1.267-1.733,2.101-3.5,2.5-5.3c0.733-3.533-1.133-5.3-5.6-5.3c-4.4,0-10.4,0.899-18,2.699
			c-3.733,0.867-7.066,1.733-10,2.601c3.934-1.733,8.134-4.066,12.6-7c9-5.8,14.9-11.566,17.7-17.3c3.467-6.867,5-18.334,4.601-34.4
			c-0.467-16.267-2.767-30.6-6.9-43c-3.6-10.866-3.066-22.333,1.6-34.4C37.866,69.233,42.9,60.233,50.7,48.1z"/>
		<g>
			<path style="fill-rule:evenodd;clip-rule:evenodd;fill:#89AA8B;" d="M49.2,7.1C44.134,6.5,41.6,9.6,41.6,16.4
				c0,3.466,0.5,6.966,1.5,10.5c-1.8-4.267-2.533-8.4-2.199-12.4c0.199-3.2,0.966-5.767,2.3-7.7C44.6,4.866,47.033,4.267,50.5,5
				c4.066,0.866,7.7,3.7,10.9,8.5c3.133,4.8,2.933,13.667-0.601,26.6C57.934,50.7,54.233,59.967,49.7,67.9
				C46.366,73.7,44.467,81.066,44,90c-0.467,8,0.3,15.566,2.3,22.7c1.533,5.467,4.033,19.6,7.5,42.399c1.8,12,3.9,26.233,6.3,42.7
				c0.801,5,3.101,9.566,6.9,13.7c2.063,2.313,4.362,4.279,6.9,5.9c-2.501-1.509-5.434-3.042-8.801-4.601
				c-5.199-2.399-9.066-3.7-11.6-3.899c-0.934-2-1.8-4.667-2.6-8c-1.2-5-1.801-10.034-1.801-15.101c0-8.6-0.566-20.267-1.699-35
				c-1.4-17.399-3-29.467-4.801-36.2C38.467,99,38.267,85.9,42,75.3c1.4-4.066,4.167-10,8.3-17.8c4.2-8.134,6.867-13.667,8-16.6
				c1.533-4.134,2.334-8.967,2.4-14.5l-0.3-7c-0.134,3-0.5,6.3-1.101,9.899c-1.066,7.267-2.633,12.367-4.7,15.3
				c-3.666,5.2-7.366,11.834-11.1,19.9c-5.066,10.733-7.8,19.434-8.2,26.1c-0.399,5.934,0.566,14.134,2.9,24.601
				c2.733,12.2,4.2,19.467,4.399,21.8c0.667,8.733,0.801,18.5,0.4,29.3c-0.467,14.134-1.934,22.867-4.4,26.2
				c-2.333,3.267-7.767,7.033-16.3,11.3c-4.354,2.177-9.537,4.544-15.55,7.101c3.713-1.717,7.662-3.95,11.85-6.7
				c9-5.8,14.9-11.566,17.7-17.3c3.467-6.867,5-18.334,4.601-34.4c-0.467-16.267-2.767-30.6-6.9-43
				c-3.6-10.866-3.066-22.333,1.6-34.4c2.267-5.866,7.301-14.866,15.101-27c5.133-7.866,7.633-16.399,7.5-25.6
				C58.134,12.967,55.134,7.833,49.2,7.1z"/>
			<path style="fill-rule:evenodd;clip-rule:evenodd;fill:#6B8B6F;" d="M35.3,90.6c0.4-6.666,3.134-15.366,8.2-26.1
				c3.733-8.066,7.434-14.7,11.1-19.9c2.067-2.933,3.634-8.033,4.7-15.3C59.9,25.7,60.267,22.4,60.4,19.4l0.3,7
				c-0.066,5.533-0.867,10.366-2.4,14.5c-1.133,2.933-3.8,8.466-8,16.6C46.167,65.3,43.4,71.233,42,75.3
				C38.267,85.9,38.467,99,42.6,114.6C44.4,121.333,46,133.4,47.4,150.8c1.133,14.733,1.699,26.4,1.699,35
				c0,5.066,0.601,10.101,1.801,15.101c0.8,3.333,1.666,6,2.6,8h-1.3c-2.467,0.333-5.733,1.699-9.8,4.1
				c-2,1.2-3.767,2.366-5.301,3.5c1.267-1.733,2.101-3.5,2.5-5.3c0.733-3.533-1.133-5.3-5.6-5.3c-4.4,0-10.4,0.899-18,2.699
				c-3.733,0.867-7.066,1.733-10,2.601c6.333-2.667,11.767-5.134,16.3-7.4c8.533-4.267,13.967-8.033,16.3-11.3
				c2.467-3.333,3.934-12.066,4.4-26.2c0.4-10.8,0.267-20.566-0.4-29.3c-0.199-2.333-1.666-9.6-4.399-21.8
				C35.866,104.733,34.9,96.533,35.3,90.6z"/>
		</g>
		<g>
			<path style="fill-rule:evenodd;clip-rule:evenodd;fill:#89AA8B;" d="M59.2,98.3c0.733-0.399,1.5-0.6,2.3-0.6l-0.2,0.2
				c-0.934,0.533-1.533,0.899-1.8,1.1c-0.866,0.8-1.667,1.967-2.4,3.5c-1.199,2.467-2.1,5.833-2.699,10.1L54.1,108.9
				C54.566,103.434,56.267,99.9,59.2,98.3z"/>
			<path style="fill-rule:evenodd;clip-rule:evenodd;fill:#89AA8B;" d="M72.8,105.65l-0.7,0.85c-1.733,1.733-3.1,2.333-4.1,1.8
				c-0.667-0.333-1.833-1.733-3.5-4.2c-1.4-1.933-2.5-2.699-3.3-2.3L61.1,101.9c0.467-1.067,1.2-1.267,2.2-0.601
				c0.267,0.134,1.134,1.267,2.601,3.4c1.333,1.866,2.5,2.767,3.5,2.7C70.537,107.354,71.671,106.771,72.8,105.65z"/>
		</g>
	</g>
	<g>
		<path style="fill-rule:evenodd;clip-rule:evenodd;fill:#C9A071;" d="M27.3,37.5c-0.934-0.733-0.7-2.267,0.7-4.6
			c1.333-2.334,2.2-3.301,2.6-2.9l4.4,5.8L27.3,37.5z"/>
		<path style="fill-rule:evenodd;clip-rule:evenodd;fill:#C9A071;" d="M61.1,11.1L62,13.7c0.934,1.934,2.366,3.399,4.3,4.399
			c1.934,1.067,0.134,1.9-5.399,2.5l-9,0.601l-1.5-11L61.1,11.1z"/>
		<path style="fill-rule:evenodd;clip-rule:evenodd;fill:#DFBC71;" d="M65.7,16.4c0.866-0.467,1.533-0.967,2-1.5l27.7,7.6l-20.9,7.7
			l12.1,19.7L36.2,39.4c0.066-0.667-0.033-1.4-0.3-2.2c-0.534-1.467-1.634-2.4-3.301-2.8c-1.666-0.4-3.033,0-4.1,1.199
			c-0.6,0.601-1,1.233-1.2,1.9l-19.1-4L0,12.6L13.7,0l26.7,7.4c-1,3.466-0.834,7.767,0.5,12.899c0.666,2.533,1.433,4.733,2.3,6.601
			c-0.667-2.334-1.134-4.867-1.4-7.601C41.333,13.9,42.134,10.267,44.2,8.4l9.899,2.8l1.4,2.6c1.333,1.867,3,3,5,3.4
			C62.3,17.6,64.033,17.333,65.7,16.4z"/>
		<polygon style="fill-rule:evenodd;clip-rule:evenodd;fill:#C9A071;" points="105.6,22.1 82,29.7 74.5,30.2 94,22.4 		"/>
		<g>
			<path style="fill-rule:evenodd;clip-rule:evenodd;fill:#E6CB90;" d="M22.9,30.8c-1.067-0.399-1.634-1.066-1.7-2
				s0.533-1.2,1.8-0.8c1.4,0.467,2,1.134,1.8,2C24.6,30.934,23.967,31.2,22.9,30.8z"/>
			<path style="fill-rule:evenodd;clip-rule:evenodd;fill:#E6CB90;" d="M44.2,11.7c-0.733-0.2-1.4-0.2-2,0
				c0.467-1,0.767-1.634,0.899-1.9L52.9,11.9l0.399,1.6C49.033,12.833,46,12.233,44.2,11.7z"/>
			<path style="fill-rule:evenodd;clip-rule:evenodd;fill:#E6CB90;" d="M44,27.8l1.9,1.601c-4.467-0.334-8-0.801-10.601-1.4
				c-1.6-0.333-3.166-0.8-4.7-1.4c-1.533-0.666-2.733-1.166-3.6-1.5c-1.066-0.466-2.767-0.8-5.1-1L18.7,23.9l3.899-1.7l12.7,4.6
				C36.5,27.2,39.4,27.533,44,27.8z"/>
			<path style="fill-rule:evenodd;clip-rule:evenodd;fill:#E6CB90;" d="M9.3,27.6c5.134,0,8.7-0.366,10.7-1.1l-0.8,1.4
				c-0.467,1.066-0.434,1.833,0.1,2.3c0.867,0.8,1.4,1.533,1.601,2.2c-2-1.534-4.2-2.7-6.601-3.5c-1.467-0.534-2.733-0.9-3.8-1.101
				L9.3,27.6z"/>
			<polygon style="fill-rule:evenodd;clip-rule:evenodd;fill:#E6CB90;" points="32.8,16.8 33.5,14.9 40.1,16.4 40.4,17.8 			"/>
			<path style="fill-rule:evenodd;clip-rule:evenodd;fill:#E6CB90;" d="M64.3,35.8c-1.6-0.267-2.434,0.101-2.5,1.101
				c-0.066,1.066,0.667,1.733,2.2,2c1.467,0.199,2.2-0.2,2.2-1.2C66.2,36.634,65.566,36,64.3,35.8z M63.2,40.9
				c-3.867-1-5.733-2.867-5.601-5.601c0.134-2.8,1.934-3.866,5.4-3.2c2.934,0.534,4.634,2.4,5.1,5.601
				C68.566,40.833,66.934,41.9,63.2,40.9z"/>
			<path style="fill-rule:evenodd;clip-rule:evenodd;fill:#E6CB90;" d="M49.2,22.8l-1.9,2.7c0.267-1.2-0.467-1.967-2.2-2.3
				c-0.733-0.134-1.666-0.134-2.8,0l-0.2-1.7L49.2,22.8z"/>
			<polygon style="fill-rule:evenodd;clip-rule:evenodd;fill:#E6CB90;" points="44.7,37.3 42.9,34.7 57.7,39.8 			"/>
			<polygon style="fill-rule:evenodd;clip-rule:evenodd;fill:#E6CB90;" points="67.8,29.4 71.7,32.3 55.1,25.9 70.2,28.4 			"/>
			<path style="fill-rule:evenodd;clip-rule:evenodd;fill:#E6CB90;" d="M61.3,20.1c2.267,0,4.033,0.067,5.3,0.2
				c1.334,0.2,2.4,0.867,3.2,2c0.867,1.2,1.634,1.9,2.3,2.101L78,26l-2.8,0.7c-13.4-3.934-21.8-6.334-25.2-7.2
				c-1.2-0.333-3.967-0.833-8.3-1.5v-1.3l14.8,3.2C57.434,20.1,59.033,20.167,61.3,20.1z"/>
			<path style="fill-rule:evenodd;clip-rule:evenodd;fill:#E6CB90;" d="M54.1,11.2L44.2,8.4c1.2-1.067,2.866-1.467,5-1.2L50,7.3
				l11.1,3.8L54.1,11.2z"/>
			<path style="fill-rule:evenodd;clip-rule:evenodd;fill:#E6CB90;" d="M56.1,36.1c-3.066-0.733-6.6-1.666-10.6-2.8
				c-2.467-0.666-6.066-1.333-10.8-2L28.3,30.4l0.5-1.7l17.8,3.7c1.733,0.399,5.067,0.966,10,1.699L56.1,36.1z"/>
			<path style="fill-rule:evenodd;clip-rule:evenodd;fill:#E6CB90;" d="M83.3,46.8L84.9,48.9c-13.867-3.334-22.567-5.334-26.101-6
				L37.1,39L36.7,37.1L36.6,35.2L40,37c2.533,1.2,4.267,1.934,5.2,2.2c2.666,0.666,7.6,1.566,14.8,2.7
				c1.667,0.199,3.634,0.267,5.9,0.199c1.267,0,2.633-0.033,4.1-0.1c0.467,0,1.2,0.533,2.2,1.6c1.066,1.134,2,1.834,2.8,2.101
				C76.533,46.167,79.3,46.533,83.3,46.8z"/>
			<path style="fill-rule:evenodd;clip-rule:evenodd;fill:#E6CB90;" d="M41.2,21.3l0.6,1.9c-5,0.533-7.7,0.767-8.1,0.7
				c-0.867-0.067-1.533-0.567-2-1.5c-0.533-0.934-1.267-1.467-2.2-1.601c-5.333-0.8-9.267-0.6-11.8,0.601
				c-1.867,0.8-3.634,1.199-5.3,1.199c-0.801,0-2.301-0.133-4.5-0.399c-2-0.334-3.2-0.967-3.601-1.9c0.934,0.8,2.7,1.233,5.3,1.3
				c2.2,0.067,4.134-0.166,5.801-0.699c1.933-0.601,2.899-1.4,2.899-2.4c0-1.066-0.467-2.167-1.399-3.3
				c-0.934-1.134-2.134-2.033-3.601-2.7L6.9,9.7c4.333,0.267,7.5,1.2,9.5,2.8c1,0.8,2.3,1.934,3.899,3.4
				c1.4,1.133,2.967,1.933,4.7,2.399C27.667,18.967,33.066,19.967,41.2,21.3z"/>
			<path style="fill-rule:evenodd;clip-rule:evenodd;fill:#E6CB90;" d="M8,30.7l4.4,1.399c3.133,0.934,5.366,1.534,6.699,1.801
				c2.067,0.399,5,0.8,8.801,1.199L26.8,36.5L8.7,32.7L8,30.7z"/>
			<polygon style="fill-rule:evenodd;clip-rule:evenodd;fill:#E6CB90;" points="82,29.7 93.1,48.2 86.6,49.9 74.5,30.2 			"/>
			<polygon style="fill-rule:evenodd;clip-rule:evenodd;fill:#E6CB90;" points="105.6,22.1 95.4,22.5 67.7,14.9 80.2,15.4 			"/>
			<path style="fill-rule:evenodd;clip-rule:evenodd;fill:#E6CB90;" d="M36.8,13c-1.333-0.333-3.066-1.366-5.2-3.1
				c-2.133-1.733-3.699-2.733-4.699-3L11.3,2.8l2.3-1.7l4.5,1.7c3.2,1.2,5.434,1.967,6.7,2.3c1,0.267,3.667,1.267,8,3
				c1.533,0.667,3.934,1,7.2,1c-0.134,0.867-0.2,2.101-0.2,3.7C38.8,13.2,37.8,13.267,36.8,13z"/>
			<path style="fill-rule:evenodd;clip-rule:evenodd;fill:#E6CB90;" d="M65,17.6l2.9-1.5c13.862,3.793,21.379,5.81,22.55,6.051
				L65,17.6z"/>
			<path style="fill-rule:evenodd;clip-rule:evenodd;fill:#E6CB90;" d="M41.7,4.4c-0.733,1.399-1.167,2.399-1.3,3L13.7,0h15.2
				L41.7,4.4z"/>
			<path style="fill-rule:evenodd;clip-rule:evenodd;fill:#E6CB90;" d="M10,13.7c-1.667-0.533-2.634-0.2-2.9,1s0.5,2.267,2.301,3.2
				c2,1.066,3.333,0.866,4-0.601C14.066,15.767,12.934,14.566,10,13.7z M10.8,20c-3-0.866-4.633-2.434-4.899-4.7
				c-0.267-2.2,0.733-3.233,3-3.1c3.267,0.2,5.199,1.767,5.8,4.7C15.3,19.9,14,20.934,10.8,20z"/>
			<path style="fill-rule:evenodd;clip-rule:evenodd;fill:#E6CB90;" d="M25,14c-2.866-0.733-4-2-3.4-3.8
				C22.2,8.467,23.333,7.7,25,7.9c2.267,0.267,3.6,1.533,4,3.8S28.066,14.733,25,14z"/>
			<polygon style="fill-rule:evenodd;clip-rule:evenodd;fill:#E6CB90;" points="20,7.7 19.5,9 10.8,6.1 			"/>
		</g>
		<path style="fill-rule:evenodd;clip-rule:evenodd;fill:#CAAB68;" d="M51.2,7.7l-6,0.899c-0.334-0.066-0.634,0.067-0.9,0.4
			c-1.533,1.866-2.3,4.3-2.3,7.3c0.066,2.533,0.533,6.533,1.4,12L42.2,25.9c-0.667-1.134-1.233-2.2-1.7-3.2
			c-0.866-2-1.366-4.066-1.5-6.2c-0.2-3.4-0.033-5.934,0.5-7.6c0.267-0.867,0.566-1.367,0.9-1.5C40.134,8.4,39.934,9.6,39.8,11
			c-0.066,1,0.033,2.634,0.3,4.9c0.267,2.066,0.534,3.666,0.801,4.8l2,5.6c-0.801-3.934-1.2-7.133-1.2-9.6
			c-0.066-3.066,0.399-5.367,1.399-6.9C43.9,8.533,44.833,7.7,45.9,7.3c0.933-0.267,2.3-0.267,4.1,0L51.2,7.7z"/>
	</g>
	<path style="fill-rule:evenodd;clip-rule:evenodd;fill:#89AA8B;" d="M72.4,182.1c2.267,5.733,6.199,11.867,11.8,18.4
		c2.733,3.267,5.267,5.934,7.6,8c-1.666-0.533-3.5-1-5.5-1.4c-4-0.8-6.899-0.933-8.7-0.399c-2.133,0.6-3.833,1.233-5.1,1.899
		c-0.667,0.334-1.1,0.601-1.3,0.801c-0.2-2.467-1.134-8.7-2.8-18.7c-1-6.267-3.233-17.033-6.7-32.3l-5-21.101l5.8,17.2
		C66.833,167.167,70.134,176.366,72.4,182.1z"/>
</g>
</svg>
