<?xml version="1.0" encoding="iso-8859-1"?>
<!-- Generator: Adobe Illustrator 15.1.0, SVG Export Plug-In . SVG Version: 6.00 Build 0)  -->
<!DOCTYPE svg PUBLIC "-//W3C//DTD SVG 1.1//EN" "http://www.w3.org/Graphics/SVG/1.1/DTD/svg11.dtd">
<svg version="1.1" id="buildings" xmlns="http://www.w3.org/2000/svg" xmlns:xlink="http://www.w3.org/1999/xlink" x="0px" y="0px"
	 width="136px" height="209.35px" viewBox="0 0 136 209.35" style="enable-background:new 0 0 136 209.35;" xml:space="preserve">
<g>
	<path style="fill-rule:evenodd;clip-rule:evenodd;fill:#8E9344;" d="M32.85,72.7c-3.133-3.167-5.233-5.8-6.3-7.9
		c-0.7-1.3-1.183-2.816-1.45-4.55l-0.2-2.2l2.95-0.2l-0.5,1.8c-0.2,1.5,0.033,3,0.7,4.5c1.1,2.367,2.95,5.033,5.55,8L32.85,72.7z"/>
	<g>
		<path style="fill-rule:evenodd;clip-rule:evenodd;fill:#696D37;" d="M25,59.3l2.35,0.5c-0.167,1.2,0.017,2.517,0.55,3.95L27.3,64
			l-0.25,0.05l1.15,2.25c0.333,0.434,0.867,0.917,1.6,1.45l-0.55,0.95c-1.267-1.534-2.167-2.833-2.7-3.9
			C25.783,63.3,25.267,61.467,25,59.3z"/>
	</g>
	<polygon style="fill-rule:evenodd;clip-rule:evenodd;fill:#CA3654;" points="19,34.35 18.5,52.85 24.75,69.35 19.25,71.35 
		7.75,51.6 13.5,34.6 	"/>
	<polygon style="fill-rule:evenodd;clip-rule:evenodd;fill:#CA3654;" points="43.25,64.85 34.25,51.6 38.75,33.85 43.5,34.35 
		41,50.1 47.25,62.2 	"/>
	<path style="fill-rule:evenodd;clip-rule:evenodd;fill:#DEDFA2;" d="M104.15,45.35c-3.934,4.767-8.034,10.667-12.301,17.7
		c-8.566,14.067-13.683,26.833-15.35,38.3c-1.634,11.167-3.333,25.817-5.1,43.95c-1.967,19.867-3.101,35.05-3.4,45.55
		c-0.067,3.301,0.417,6.217,1.45,8.75c0.5,1.233,1.017,2.15,1.55,2.75L67.5,205c-2.833,1.667-5.5,2.283-8,1.85
		c-2.5-0.399-4.667-1.433-6.5-3.1l-2-2.4c0.767-0.8,1.533-1.866,2.3-3.199c1.6-2.634,2.5-5.233,2.7-7.801
		c0.567-7.233,0.45-17.583-0.35-31.05c-0.667-11.467-1.717-23.283-3.15-35.45c-1.267-10.866-5.483-21.516-12.65-31.95
		c-3.5-5.133-8.267-10.717-14.3-16.75c-0.667-0.667-0.566-2.066,0.3-4.2c0.933-2.333,2.4-4.133,4.4-5.4
		c2.067-1.3,4.117-2.083,6.15-2.35c1.934-0.3,3.2-0.083,3.8,0.65c2.9,3.533,5.966,8.217,9.2,14.05
		c4.567,8.2,7.934,16.184,10.1,23.95c2.5,8.966,4.167,17.233,5,24.8c0.406,3.563,0.581,6.337,0.525,8.324
		c0.26-5.308,0.602-11.216,1.025-17.725c0.934-13.333,1.917-23.133,2.95-29.4c1.033-6.233,4.467-16.317,10.3-30.25
		c2.934-6.967,5.75-13.317,8.45-19.05l1.15,3.15c1.233,2.267,3.1,3.816,5.6,4.65c2.5,0.833,4.866,0.917,7.1,0.25
		C102.7,46.267,103.55,45.85,104.15,45.35z"/>
	<g>
		<path style="fill-rule:evenodd;clip-rule:evenodd;fill:#BDBF71;" d="M39.85,91.9c-3.5-5.133-8.267-10.717-14.3-16.75
			c-0.667-0.667-0.566-2.066,0.3-4.2c0.933-2.333,2.4-4.133,4.4-5.4l1.25-0.7c4.533,4.967,8.783,10.933,12.75,17.9
			c6.733,11.9,11.15,24.483,13.25,37.75c2.233,14.066,3.683,27.85,4.35,41.35c0.333,6.733,0.45,12.067,0.35,16l1,26l-9.95,0.051
			c-0.633-0.567-1.2-1.167-1.7-1.801L51,201.35c0.767-0.8,1.533-1.866,2.3-3.199c1.6-2.634,2.5-5.233,2.7-7.801
			c0.567-7.233,0.45-17.583-0.35-31.05c-0.667-11.467-1.717-23.283-3.15-35.45C51.233,112.983,47.017,102.333,39.85,91.9z"/>
		<path style="fill-rule:evenodd;clip-rule:evenodd;fill:#A9AC5D;" d="M39.85,91.9c-3.5-5.133-8.267-10.717-14.3-16.75
			c-0.433-0.433-0.5-1.316-0.2-2.65c0.3-1.4,0.933-2.75,1.9-4.05c3.833,4.133,7.5,8.55,11,13.25c6.133,8.233,10.283,15.5,12.45,21.8
			c2.5,7.333,4.633,19.3,6.4,35.9c1.4,13.399,2.15,24.716,2.25,33.949c0.1,9.2-0.067,19.084-0.5,29.65l-7.75-1.8
			c0.867-0.934,1.717-2.117,2.55-3.55c1.367-2.467,2.15-4.9,2.35-7.301c0.567-7.233,0.45-17.583-0.35-31.05
			c-0.667-11.467-1.717-23.283-3.15-35.45C51.233,112.983,47.017,102.333,39.85,91.9z"/>
		<path style="fill-rule:evenodd;clip-rule:evenodd;fill:#BDBF71;" d="M87.75,38.55l0.75,2.35c0.8,1.767,1.967,3.167,3.5,4.2
			c-5.066,8.667-7.9,13.566-8.5,14.7c-4.033,7.467-6.95,14.233-8.75,20.3c-2.5,8.433-4.833,19.883-7,34.35
			c-1.067,7.233-1.9,13.616-2.5,19.149l-0.1-1.55c1.233-21.434,2.517-36.167,3.85-44.2c1.033-6.233,4.467-16.317,10.3-30.25
			C82.233,50.633,85.05,44.283,87.75,38.55z"/>
		<path style="fill-rule:evenodd;clip-rule:evenodd;fill:#A9AC5D;" d="M87.75,38.55l0.4,1.55c0.466,1.233,1.1,2.333,1.899,3.3
			c-4.3,6.533-8.033,13.617-11.2,21.25c-5.5,13.2-8.883,25.15-10.149,35.85c-0.9,7.333-2.083,17.85-3.55,31.55
			c1.233-21.434,2.517-36.167,3.85-44.2c1.033-6.233,4.467-16.317,10.3-30.25C82.233,50.633,85.05,44.283,87.75,38.55z"/>
	</g>
	<path style="fill-rule:evenodd;clip-rule:evenodd;fill:#ECECCB;" d="M89.4,36.95c3.833-1.167,7.75-0.784,11.75,1.15
		c3.8,1.833,5.25,3.617,4.35,5.35c-1,1.966-2.6,3.316-4.8,4.05c-2.233,0.7-4.75,0.683-7.55-0.05c-3.101-0.8-4.967-2.65-5.601-5.55
		C86.917,39.167,87.533,37.517,89.4,36.95z"/>
	<linearGradient id="SVGID_1_" gradientUnits="userSpaceOnUse" x1="89.4873" y1="41.6807" x2="103.7236" y2="41.6807">
		<stop  offset="0" style="stop-color:#893342"/>
		<stop  offset="1" style="stop-color:#2D1D1E"/>
	</linearGradient>
	<path style="fill-rule:evenodd;clip-rule:evenodd;fill:url(#SVGID_1_);" d="M96.9,37.95c1.666,0.333,3.25,0.983,4.75,1.95
		c1.866,1.167,2.483,2.267,1.85,3.3c-1.233,2.066-3.717,2.883-7.45,2.45c-3.7-0.433-5.833-1.783-6.399-4.05
		c-0.434-1.733,0.1-2.917,1.6-3.55C92.583,37.483,94.467,37.45,96.9,37.95z"/>
	<g>
		<polygon style="fill-rule:evenodd;clip-rule:evenodd;fill:#8E9344;" points="95.35,29.65 95.3,31.45 92.4,31.1 92.35,30.65 		"/>
		<path style="fill-rule:evenodd;clip-rule:evenodd;fill:#8E9344;" d="M94.05,34.1c0.4,0,0.8-0.15,1.2-0.45L95,45.1
			c-0.033,0.066-0.233,0.05-0.6-0.05L93.6,34.1H94.05z"/>
		<path style="fill-rule:evenodd;clip-rule:evenodd;fill:#696D37;" d="M94.05,34.1H93.6L94.4,45.05l-0.5-0.15l-1.5-13.8l2.899,0.35
			l-0.05,2.2C94.85,33.95,94.45,34.1,94.05,34.1z"/>
	</g>
	<g>
		<polygon style="fill-rule:evenodd;clip-rule:evenodd;fill:#8E9344;" points="103.35,29.65 102.75,31.8 99.85,30.5 100,29.35 		"/>
		<path style="fill-rule:evenodd;clip-rule:evenodd;fill:#8E9344;" d="M102.25,33.5L99,45.35c0.066,0.133-0.116,0.2-0.55,0.2
			l2-11.85h0.95L102.25,33.5z"/>
		<polygon style="fill-rule:evenodd;clip-rule:evenodd;fill:#696D37;" points="101.4,33.7 100.45,33.7 98.45,45.55 97.95,45.5 
			99.85,30.5 102.75,31.8 102.25,33.5 		"/>
	</g>
	<g>
		<polygon style="fill-rule:evenodd;clip-rule:evenodd;fill:#893342;" points="117.35,44 110.7,41 117,14.65 114.7,0.35 121,0.3 
			125,22.35 		"/>
		<polygon style="fill-rule:evenodd;clip-rule:evenodd;fill:#CA3654;" points="83,1.3 122.35,13.35 121,0.3 136,26 117.35,44 
			119.7,32.35 77,33.3 93,19 		"/>
		<polygon style="fill-rule:evenodd;clip-rule:evenodd;fill:#8F3F49;" points="122.25,5.1 124.75,14.85 123.25,14.1 		"/>
		<polygon style="fill-rule:evenodd;clip-rule:evenodd;fill:#8F3F49;" points="119,41.35 121.25,29.35 122.75,31.1 		"/>
		<path style="fill-rule:evenodd;clip-rule:evenodd;fill:#EA878B;" d="M124.75,8.1l9.75,17.5l-13,13.25l9.75-11.5l-3.5,1.75
			l1.75-1.65c1.167-1.3,1.75-2.5,1.75-3.6c0-1.667-1.083-4.783-3.25-9.35L124.75,8.1z"/>
		<polygon style="fill-rule:evenodd;clip-rule:evenodd;fill:#EA878B;" points="86.25,3.85 120.75,14.1 104.25,12.1 110,12.1 		"/>
		<path style="fill-rule:evenodd;clip-rule:evenodd;fill:#8F3F49;" d="M87.5,26.15c-0.533,0.533-1.066,1.117-1.6,1.75
			c-1.067,1.3-1.534,2.217-1.4,2.75c0.134,0.467,5.9,0.75,17.3,0.85c5.7,0.067,11.384,0.067,17.05,0L79.7,32.65L87.5,26.15z"/>
		<polygon style="fill-rule:evenodd;clip-rule:evenodd;fill:#893342;" points="83,1.3 93,19 77,33.3 70,31.65 86.7,17.65 76.35,0 		
			"/>
		<path style="fill-rule:evenodd;clip-rule:evenodd;fill:#652A33;" d="M81.35,2.7c-0.699,0.367-0.899,0.917-0.6,1.65
			c0.5,1.167,2.75,5.5,6.75,13l-9.5-16l4.5,1C82.1,2.383,81.717,2.5,81.35,2.7z"/>
		<path style="fill-rule:evenodd;clip-rule:evenodd;fill:#652A33;" d="M74.75,29.85c-0.634,0.633-0.483,1.233,0.45,1.8
			c0.467,0.3,0.983,0.533,1.55,0.7l-5.25-1l15.75-13C80.25,24.683,76.083,28.517,74.75,29.85z"/>
	</g>
	<polygon style="fill-rule:evenodd;clip-rule:evenodd;fill:#893342;" points="13.5,34.6 13.25,45.1 38.75,33.85 34.25,51.6 
		43.25,64.85 16,61.1 19.25,71.35 0,54.85 	"/>
	<path style="fill-rule:evenodd;clip-rule:evenodd;fill:#652A33;" d="M12.5,37.35l-3.55,6.3C6.517,48.117,5.2,50.967,5,52.2
		c-0.2,1.233,0.05,2.5,0.75,3.8c0.4,0.733,0.983,1.717,1.75,2.95c0.525,1.108,3.242,4.058,8.15,8.85L1.25,54.45L12.5,37.35z"/>
	<path style="fill-rule:evenodd;clip-rule:evenodd;fill:#E67179;" d="M39.4,34.6l3.5,0.35L40.25,50.1c1.1-8.5,1.35-13.133,0.75-13.9
		c-0.367-0.467-0.733-0.867-1.1-1.2L39.4,34.6z"/>
	<path style="fill-rule:evenodd;clip-rule:evenodd;fill:#EA878B;" d="M35.55,51.45l5.25-0.95l6.1,11.65
		c-3.233-5.9-5.417-9.233-6.55-10c-0.7-0.5-1.717-0.767-3.05-0.8L35.55,51.45z"/>
	<path style="fill-rule:evenodd;clip-rule:evenodd;fill:#652A33;" d="M27.35,61.75c7.6,0.767,11.45,0.883,11.55,0.35
		c0.167-0.833-1.333-3.883-4.5-9.15l7.35,10.9l-20.1-2.675C23.55,61.375,25.45,61.567,27.35,61.75z"/>
	<path style="fill-rule:evenodd;clip-rule:evenodd;fill:#652A33;" d="M14.25,45.35l23.5-10.15l-4.1,14.4
		c1.167-6.833,1.45-10.467,0.85-10.9c-0.367-0.233-3.85,0.8-10.45,3.1C20.75,42.967,17.483,44.15,14.25,45.35z"/>
	<path style="fill-rule:evenodd;clip-rule:evenodd;fill:#E67179;" d="M14.15,35.1l4.1-0.15v7.15c-0.233-3.333-0.65-5.3-1.25-5.9
		c-0.367-0.367-0.95-0.65-1.75-0.85L14.15,35.1z"/>
	<path style="fill-rule:evenodd;clip-rule:evenodd;fill:#A2A550;" d="M55,194.85l1.4,1.551c1.333,1,2.983,1.483,4.95,1.449
		c2.5-0.066,4.4-0.649,5.7-1.75l1.15-1.6l1.85,1.95c1.267,1.399,2.033,2.416,2.3,3.05c0.434,1,0.65,2.717,0.65,5.15l-2.55,2.199
		c-2.5,1.534-5.7,2.367-9.6,2.5c-3.333,0.101-6.25-0.449-8.75-1.649l-2.75-1.851c-0.1-1.333,0.066-2.783,0.5-4.35
		c0.267-0.967,1.2-2.366,2.8-4.2L55,194.85z"/>
	<path style="fill-rule:evenodd;clip-rule:evenodd;fill:#ECECCB;" d="M36.7,67.35l2.6,2.75c1.833,1.867,3.067,2.95,3.7,3.25
		c1,0.433,0.233-1.967-2.3-7.2l6.3,10.4c4.6,7.934,7.933,14.467,10,19.6c2.1,5.133,3.867,12.6,5.3,22.4
		c0.733,4.867,1.25,9.233,1.55,13.101c-0.434-1-0.934-1.667-1.5-2c-0.367-0.2-0.617,0.733-0.75,2.8c-0.067,1.066-0.1,2.133-0.1,3.2
		c-1.767-14-3.817-25.601-6.15-34.8c-1.467-5.767-5.017-13.083-10.65-21.95L36.7,67.35z"/>
	<path style="fill-rule:evenodd;clip-rule:evenodd;fill:#ECECCB;" d="M93.35,48.85c1.2,0.533,2.617,0.75,4.25,0.65
		c0.834-0.067,1.534-0.183,2.101-0.35c-2.8,4.133-5.717,8.617-8.75,13.45c-6.033,9.633-9.566,16.15-10.601,19.55
		c-1.666,5.467-3.383,12.367-5.149,20.7c0.333-1.8,0.383-3.25,0.149-4.35c-0.133-0.7-0.616,0.45-1.449,3.45
		c-0.4,1.5-0.801,3.066-1.2,4.7c0.2-2.367,0.55-5.217,1.05-8.55c1.033-6.733,2.35-12.6,3.95-17.6c1.6-5,4.684-11.767,9.25-20.3
		C89.25,55.9,91.384,52.117,93.35,48.85z"/>
	<path style="fill-rule:evenodd;clip-rule:evenodd;fill:#ECECCB;" d="M66.95,192.55c-0.1,0.434-0.25,0.75-0.45,0.95
		c-0.333,0.333-1,0.616-2,0.85V143.65c0.8,19.566,1.417,29.517,1.85,29.85c0.433,0.333,2.6-17,6.5-52L66.95,192.55z"/>
	<g>
		<path style="fill-rule:evenodd;clip-rule:evenodd;fill:#8E9344;" d="M52.65,197.3l2.35-2.45l1.4,1.551
			c1.333,1,2.983,1.483,4.95,1.449l1.4-0.149l0.1,0.149l-1.1,1.301c-0.8,1.166-1.267,2.449-1.4,3.85c-0.167,1.5,0.167,2.733,1,3.7
			c0.633,0.767,1.417,1.25,2.35,1.45c0.667,0.166,2.216,0.083,4.649-0.25c-2.2,0.833-4.7,1.316-7.5,1.449
			c-3.333,0.101-6.25-0.449-8.75-1.649l-2.75-1.851c-0.1-1.333,0.066-2.783,0.5-4.35C50.117,200.533,51.05,199.134,52.65,197.3z"/>
	</g>
	<path style="fill-rule:evenodd;clip-rule:evenodd;fill:#C2C47C;" d="M68.95,197.95l0.25-0.601l1.149,1.4
		c0.767,1.167,1.15,2.3,1.15,3.4c0,1.133-0.717,2.116-2.15,2.949c-0.699,0.4-1.417,0.7-2.149,0.9c0.333-0.434,0.433-1.434,0.3-3
		c-0.067-0.967-0.2-1.9-0.4-2.8l-0.25-1.05C67.883,198.816,68.583,198.417,68.95,197.95z"/>
	<g>
		<path style="fill-rule:evenodd;clip-rule:evenodd;fill:#696D37;" d="M52.65,197.3l2.35-2.45l0.8,1
			c0.767,0.733,1.684,1.267,2.75,1.601c-2.333,2.566-3.45,4.916-3.35,7.05c0.033,1.366,0.367,2.866,1,4.5
			c-1.967-0.366-3.7-1-5.2-1.9l-1.65-1.25c-0.1-1.333,0.066-2.783,0.5-4.35C50.117,200.533,51.05,199.134,52.65,197.3z"/>
	</g>
</g>
</svg>
