<?xml version="1.0" encoding="iso-8859-1"?>
<!-- Generator: Adobe Illustrator 15.1.0, SVG Export Plug-In . SVG Version: 6.00 Build 0)  -->
<!DOCTYPE svg PUBLIC "-//W3C//DTD SVG 1.1//EN" "http://www.w3.org/Graphics/SVG/1.1/DTD/svg11.dtd">
<svg version="1.1" xmlns="http://www.w3.org/2000/svg" xmlns:xlink="http://www.w3.org/1999/xlink" x="0px" y="0px"
	 width="1045.3px" height="639.25px" viewBox="0 0 1045.3 639.25" style="enable-background:new 0 0 1045.3 639.25;"
	 xml:space="preserve">
<symbol  id="FlashAICB_x2F_crack_x2F__x3C_Clip_Group_0_x3E_" viewBox="-0.128 -672.85 1056.728 672.849">
	<g id="Layer_1_4_">
	</g>
	<g>
		<defs>
			<path id="SVGID_1_" d="M1005.55-91.75l-74.4,2.05l-28.5,33.85l42.6,38.5l-846.3-2c10.733-9.4,21.783-19.617,33.15-30.65
				c22.767-22.133,35.833-37.383,39.2-45.75c3.267-8.1,4.3-20.05,3.1-35.85l-31.25-48.6L94.9-190.25L44.65-224.4l-44.2-10.05l44.2,2
				l54.3,34.2l54.25,8l18.1,36.2l14.1-30.15l-14.1-34.15l-2-46.25l14.05,48.25l20.1,38.2l-15.6,29.25l41.75,12.95l38.2-92.45l56.3,4
				l48.2-142.75l-14.05-54.25l18.1-54.3l-28.15-42.2L306-533.95l-42.25-38.2l-40.2-4.05l-42.2-46.2l50.25,34.15l36.2-2L324.1-542
				l38.15,14.05v-40.2l-28.1-32.15v-56.3l10.05,52.25l30.15,38.2l4,70.35l22.1,28.15L386.4-405.3l30.15,54.25l12.05,64.35l70.35,4
				l54.3,52.25l42.2-2l46.25-14.05l16.05-38.2l88.45-18.1l60.35-44.25l12.05-34.15l-6.05,46.25l-58.3,46.2l32.2,22.15l70.35,36.15
				l-82.45-32.15l-48.25-26.15l-60.3,16.1l-16.05,42.2l-29.65,19.8l61.8,54.6l58.3,24.1l54.25,54.3l88.45,4l36.2-24.1l82.4-8.05
				l44.25-48.25L1005.55-91.75z"/>
		</defs>
		<clipPath id="SVGID_2_">
			<use xlink:href="#SVGID_1_"  style="overflow:visible;"/>
		</clipPath>
		<g id="Layer_3_1_" style="clip-path:url(#SVGID_2_);">
			
				<linearGradient id="SVGID_3_" gradientUnits="userSpaceOnUse" x1="-180.8779" y1="-15018.8838" x2="279.1721" y2="-15018.8838" gradientTransform="matrix(2.173677e-006 -1 1 -0.001 15541.9834 -209.8721)">
				<stop  offset="0" style="stop-color:#223A3B"/>
				<stop  offset="1" style="stop-color:#2F5D60"/>
			</linearGradient>
			<path style="fill-rule:evenodd;clip-rule:evenodd;fill:url(#SVGID_3_);" d="M1045.75-154.05l-44.25,48.25l-82.4,8.05l-36.2,24.1
				l-88.45-4l-54.25-54.3l-58.3-24.1l-61.8-54.6l29.65-19.8l16.05-42.2l60.3-16.1l48.25,26.15l82.45,32.15l-70.35-36.15l-32.2-22.15
				l58.3-46.2l6.05-46.25l-12.05,34.15L746.2-302.8l-88.45,18.1l-16.05,38.2l-46.25,14.05l-42.2,2l-54.3-52.25l-70.35-4
				l-12.05-64.35L386.4-405.3l14.05-62.35l-22.1-28.15l-4-70.35l-30.15-38.2l-10.05-52.25v56.3l28.1,32.15v40.2L324.1-542
				l-56.3-48.25l-36.2,2l-50.25-34.15l42.2,46.2l40.2,4.05l42.25,38.2l42.2,16.05l28.15,42.2l-18.1,54.3l14.05,54.25L324.1-224.4
				l-56.3-4l-38.2,92.45l-41.75-12.95l15.6-29.25l-20.1-38.2L169.3-264.6l2,46.25l14.1,34.15l-14.1,30.15l-18.1-36.2l-54.25-8
				l-54.3-34.2l-44.2-2l44.2,10.05l50.25,34.15l48.25,10.05l31.25,48.6c1.2,15.8,0.167,27.75-3.1,35.85
				c-3.367,8.367-16.433,23.617-39.2,45.75c-11.367,11.033-22.417,21.25-33.15,30.65l846.3,2l-42.6-38.5l28.5-33.85l74.4-2.05
				L1045.75-154.05z"/>
			<polygon style="fill-rule:evenodd;clip-rule:evenodd;fill:#FFFFFF;" points="246.8,-156.95 237.15,-155.6 245.1,-153.5 
				244.4,-142.45 247.85,-152.15 255.45,-148.35 250.95,-153.85 256.8,-156.95 250.6,-156.25 248.2,-165.9 			"/>
			<polygon style="fill-rule:evenodd;clip-rule:evenodd;fill:#FFFFFF;" points="411.4,-81.9 404.1,-100.65 408.2,-83.25 
				388.05,-87.4 403.6,-81.9 395.85,-72.3 407.3,-77.3 409.55,-64.5 412.3,-76.85 425.15,-72.75 414.6,-79.15 422.85,-86.5 			"/>
			<polygon style="fill-rule:evenodd;clip-rule:evenodd;fill:#FFFFFF;" points="430.75,-283 433,-270.2 435.75,-282.55 
				448.6,-278.45 438.05,-284.85 446.3,-292.15 434.85,-287.6 427.55,-306.35 431.65,-288.95 411.5,-293.1 427.05,-287.6 
				419.3,-277.95 			"/>
			<polygon style="fill-rule:evenodd;clip-rule:evenodd;fill:#FFFFFF;" points="584.5,-229.3 576.75,-219.7 588.2,-224.7 
				590.45,-211.9 593.2,-224.25 606.05,-220.15 595.5,-226.55 603.75,-233.9 592.3,-229.3 585,-248.05 589.1,-230.65 568.95,-234.8 
							"/>
			<polygon style="fill-rule:evenodd;clip-rule:evenodd;fill:#FFFFFF;" points="494.7,-195.4 501.9,-201.55 492.3,-198.5 
				488.85,-215.35 488.15,-198.5 470.95,-197.45 489.2,-195.05 490.25,-181.6 491.25,-194 500.2,-187.45 			"/>
			<polygon style="fill-rule:evenodd;clip-rule:evenodd;fill:#FFFFFF;" points="873.15,-64.2 875.45,-34.35 877.75,-61.9 
				897.65,-47.35 885.4,-64.95 901.45,-78.75 880,-71.85 872.35,-109.35 870.85,-71.85 832.55,-69.55 			"/>
			<polygon style="fill-rule:evenodd;clip-rule:evenodd;fill:#FFFFFF;" points="685.25,-90.05 693.95,-87.6 687.2,-92.95 
				689.15,-104.05 682.85,-97.75 663.5,-101.15 681.9,-91.95 682.35,-76.5 			"/>
			<polygon style="fill-rule:evenodd;clip-rule:evenodd;fill:#FFFFFF;" points="202.8,-36.35 207.25,-41.3 217.7,-40.8 
				206.75,-43.8 211.75,-50.75 205.75,-47.3 201.8,-53.75 202.8,-45.8 195.8,-42.3 201.8,-42.8 			"/>
			<polygon style="fill-rule:evenodd;clip-rule:evenodd;fill:#FFFFFF;" points="368.65,-288.3 357.2,-289.55 366.85,-284.1 
				356.6,-275.05 369.25,-280.5 375.9,-271.45 372.3,-282.9 380.7,-285.9 372.9,-285.9 372.3,-296.75 			"/>
			<polygon style="fill-rule:evenodd;clip-rule:evenodd;fill:#FFFFFF;" points="502.6,-34.6 509.25,-25.55 505.6,-37 514.05,-40 
				506.2,-40 505.6,-50.9 502,-42.45 490.55,-43.65 500.2,-38.2 489.95,-29.15 			"/>
			<path style="fill-rule:evenodd;clip-rule:evenodd;fill:#1C2228;" d="M176.9-134.85c-2.233-5.333-11.383-21.183-27.45-47.55
				l-51.6-12.75L43.6-229.3l-43.15-5.15c-1.167,38.7-0.567,77.5,1.8,116.4C7.017-40.283,18.333-0.983,36.2-0.15
				c17.867,0.833,31.167-1.833,39.9-8c4.367-3.067,6.933-6.217,7.7-9.45c9.367-9.433,19.517-19.283,30.45-29.55
				c21.833-20.6,36.683-33.083,44.55-37.45c8.067-4.467,13.767-13.1,17.1-25.9c1.267-4.933,1.983-9.767,2.15-14.5
				C178.183-129.433,177.8-132.717,176.9-134.85z"/>
			<path style="fill-rule:evenodd;clip-rule:evenodd;fill:#1C2228;" d="M146.75-252.1c1.333,1.367,14.217,24,38.65,67.9l-1.8-19.65
				l-7.35-16.05l-7.4-42.25c-4,1.333-7.934,2.75-11.8,4.25C149.35-254.867,145.917-252.933,146.75-252.1z"/>
			<polygon style="fill-rule:evenodd;clip-rule:evenodd;fill:#1C2228;" points="253.95,-167 275.4,-234 257.3,-234.65 
				229.6,-135.95 			"/>
			<path style="fill-rule:evenodd;clip-rule:evenodd;fill:#1C2228;" d="M344.4-246.05l36.2-120.6l-14.75-54.95l16.75-54.25
				l-28.8-47.6l-42.9-19.4l-43.55-38.85l-38.85-2.7c-0.8,0-8.433-5.983-22.9-17.95c-16.1-13.333-24.184-20.017-24.25-20.05
				c-1.267-0.967-1.267,20.466,0,64.3c1.267,44.567,1.35,67.067,0.25,67.5c-1.4,0.567,21.933,45.1,70,133.6
				c24.033,44.267,48.2,88.467,72.5,132.6L344.4-246.05z"/>
			<path style="fill-rule:evenodd;clip-rule:evenodd;fill:#1C2228;" d="M367.85-574.35l-22.1-98.5c-6.467,2.667-13,5.434-19.6,8.3
				c-13.167,5.7-20.033,8.966-20.6,9.8c-0.566,0.833,8.717,22.217,27.85,64.15l28.85,62.65l8.95-23.6L367.85-574.35z"/>
			
				<use xlink:href="#FlashAICB_x2F_crack_x2F__x3C_Path_x3E__x5F_21"  width="183.75" height="187.15" y="-187.15" transform="matrix(1 0 0 1 641.7002 -246.5)" style="overflow:visible;enable-background:new    ;"/>
			<path style="fill-rule:evenodd;clip-rule:evenodd;fill:#1C2228;" d="M726.1-288.75l57.75,42.1c38.7,28.1,58.6,42.15,59.7,42.15
				c1.134,0,7.167-3.917,18.1-11.75c5.5-3.9,10.867-7.8,16.1-11.7l-71.7-34.2L726.1-288.75z"/>
			<path style="fill-rule:evenodd;clip-rule:evenodd;fill:#1C2228;" d="M1031.85-191.8c-15.967,6.966-33.467,15.283-52.5,24.95
				c-37.867,19.3-65.934,36.233-84.2,50.8c-9.633,7.7-14.566,17.066-14.8,28.1c-0.067,3.467,0.333,6.883,1.2,10.25l1.35,4.05
				l41.05-14.95l91.8-13.4l40.85-52.95c-3.8-6.267-7.667-12.483-11.6-18.65C1037.066-186,1032.684-192.067,1031.85-191.8z"/>
			<polygon style="fill-rule:evenodd;clip-rule:evenodd;fill:#FFFFFF;" points="342.55,-141.5 342.85,-130.8 346.4,-141.2 
				352.95,-133.75 349.95,-142.05 361.85,-141.75 350.25,-144.15 352.65,-154.5 346.7,-145.05 340.5,-157.8 343.45,-146.5 
				331,-146.8 340.5,-143.55 333.95,-135.85 			"/>
			<polygon style="fill-rule:evenodd;clip-rule:evenodd;fill:#FFFFFF;" points="537.7,-106.3 550.05,-109.25 539.45,-111 
				532.4,-122.75 532.4,-111.6 520.65,-108.65 533,-107.5 534.2,-93.95 			"/>
			<polygon style="fill-rule:evenodd;clip-rule:evenodd;fill:#FFFFFF;" points="580.05,-151.5 588.75,-153.55 581.3,-154.8 
				576.3,-163.1 576.3,-155.25 568,-153.15 576.75,-152.3 577.55,-142.8 			"/>
			<polygon style="fill-rule:evenodd;clip-rule:evenodd;fill:#FFFFFF;" points="375.25,-428.6 377.75,-437.3 386.45,-439.4 
				379,-440.65 374,-448.9 374,-441.05 365.7,-438.95 374.4,-438.15 			"/>
			<polygon style="fill-rule:evenodd;clip-rule:evenodd;fill:#FFFFFF;" points="747.9,-279.25 750.4,-287.95 759.1,-290.05 
				751.65,-291.3 746.7,-299.6 746.7,-291.7 738.4,-289.65 747.1,-288.8 			"/>
			<polygon style="fill-rule:evenodd;clip-rule:evenodd;fill:#FFFFFF;" points="371.25,-511.1 373.7,-519.8 382.45,-521.9 
				374.95,-523.15 370,-531.4 370,-523.55 361.7,-521.45 370.4,-520.65 			"/>
			<polygon style="fill-rule:evenodd;clip-rule:evenodd;fill:#FFFFFF;" points="279.9,-88.45 282.4,-97.15 291.1,-99.2 
				283.65,-100.45 278.65,-108.75 278.65,-100.9 270.35,-98.8 279.05,-97.95 			"/>
			<polygon style="fill-rule:evenodd;clip-rule:evenodd;fill:#FFFFFF;" points="293.45,-206.25 302.2,-208.3 294.7,-209.55 
				289.75,-217.85 289.75,-209.95 281.45,-207.9 290.15,-207.05 291,-197.55 			"/>
			<polygon style="fill-rule:evenodd;clip-rule:evenodd;fill:#FFFFFF;" points="391.25,-181.1 393.7,-189.8 402.45,-191.9 
				394.95,-193.15 390,-201.4 390,-193.55 381.7,-191.45 390.4,-190.65 			"/>
			<polygon style="fill-rule:evenodd;clip-rule:evenodd;fill:#FFFFFF;" points="624.55,-79.1 627.05,-87.8 635.75,-89.9 
				628.3,-91.15 623.35,-99.4 623.35,-91.55 615.05,-89.45 623.75,-88.65 			"/>
			<polygon style="fill-rule:evenodd;clip-rule:evenodd;fill:#FFFFFF;" points="725.45,-135.6 725.45,-127.7 717.15,-125.65 
				725.85,-124.8 726.7,-115.3 729.15,-124 737.85,-126.05 730.4,-127.3 			"/>
			<polygon style="fill-rule:evenodd;clip-rule:evenodd;fill:#FFFFFF;" points="737.2,-53.4 729.75,-54.65 724.75,-62.95 
				724.75,-55.05 716.45,-53 725.2,-52.15 726,-42.6 728.5,-51.35 			"/>
			<polygon style="fill-rule:evenodd;clip-rule:evenodd;fill:#FFFFFF;" points="614.55,-189.85 612.15,-199.5 610.8,-190.55 
				601.1,-189.15 609.05,-187.1 608.35,-176.05 611.8,-185.7 619.4,-181.9 614.9,-187.45 620.8,-190.55 			"/>
			<polygon style="fill-rule:evenodd;clip-rule:evenodd;fill:#FFFFFF;" points="425.35,-159.2 424.65,-148.15 428.1,-157.8 
				435.7,-154 431.2,-159.55 437.05,-162.65 430.85,-161.95 428.45,-171.6 427.05,-162.65 417.4,-161.25 			"/>
			<polygon style="fill-rule:evenodd;clip-rule:evenodd;fill:#FFFFFF;" points="199.4,-94.15 194.95,-99.65 200.8,-102.75 
				194.6,-102.05 192.2,-111.7 190.8,-102.75 181.15,-101.4 189.05,-99.3 188.4,-88.25 191.85,-97.95 			"/>
			<polygon style="fill-rule:evenodd;clip-rule:evenodd;fill:#FFFFFF;" points="329.95,-39.15 320.3,-37.8 328.25,-35.7 
				327.55,-24.65 331,-34.35 338.6,-30.55 334.1,-36.05 339.95,-39.15 333.75,-38.45 331.35,-48.1 			"/>
			<polygon style="fill-rule:evenodd;clip-rule:evenodd;fill:#FFFFFF;" points="397.25,-372.05 396.55,-361 400,-370.65 
				407.6,-366.85 403.1,-372.4 409,-375.5 402.8,-374.8 400.35,-384.45 399,-375.5 389.35,-374.1 			"/>
			<polygon style="fill-rule:evenodd;clip-rule:evenodd;fill:#FFFFFF;" points="801.15,-47.3 811.45,-43.35 802.8,-51.05 
				806.7,-64.35 798.1,-51.85 782.05,-55.85 796.65,-48.7 793.8,-36.6 			"/>
			<polygon style="fill-rule:evenodd;clip-rule:evenodd;fill:#FFFFFF;" points="595.85,-34.35 593,-22.25 600.35,-33 610.65,-29 
				602,-36.7 605.9,-50.05 597.3,-37.55 581.25,-41.5 			"/>
		</g>
	</g>
	<g id="Layer_4_1_">
	</g>
</symbol>
<symbol  id="FlashAICB_x2F_crack_x2F__x3C_Path_x3E__x5F_21" viewBox="0 -187.15 183.75 187.15">
	<g id="Layer_1_2_">
		<path style="fill-rule:evenodd;clip-rule:evenodd;fill:#1A2128;" d="M180.4-187.15c-30.033,19.2-59.983,38.3-89.85,57.3
			C34.438-94.185,5.046-75.769,2.375-74.6c0.631,0.932,0.456,13.032-0.525,36.3C1.317-25.633,0.7-12.867,0,0l24.1-26.15l89.3-26.35
			l70.35-52.9L180.4-187.15z"/>
	</g>
</symbol>
<symbol  id="topmask_1_" viewBox="-522.65 0 1045.3 639.25">
	<g id="Layer_1_3_">
		
			<linearGradient id="SVGID_4_" gradientUnits="userSpaceOnUse" x1="-836.9551" y1="-15541.9824" x2="-376.9051" y2="-15541.9824" gradientTransform="matrix(2.173677e-006 -1 1 -0.001 15541.9834 -209.8721)">
			<stop  offset="0.2549" style="stop-color:#FFFFFF"/>
			<stop  offset="1" style="stop-color:#FFFFFF;stop-opacity:0"/>
		</linearGradient>
		<path style="fill-rule:evenodd;clip-rule:evenodd;fill:url(#SVGID_4_);" d="M422.15,639.25l-42.6-38.5l28.5-33.85l74.4-2.051
			l40.2-62.3L478.4,550.8l-82.4,8.05l-36.2,24.101l-88.45-4l-54.25-54.3l-58.3-24.101L97,445.95l29.65-19.8l16.05-42.2L203,367.85
			L251.25,394l82.45,32.15L263.35,390l-32.2-22.15l58.3-46.199l6.05-46.25l-12.05,34.15L223.1,353.8L134.65,371.9L118.6,410.1
			L72.35,424.15l-42.2,2l-54.3-52.25l-70.35-4l-12.05-64.351l-30.15-54.25l14.05-62.35l-22.1-28.15l-4-70.35l-30.15-38.2L-188.95,0
			v56.3l28.1,32.15v40.2L-199,114.6l-56.3-48.25l-36.2,2l-50.25-34.15l42.2,46.2l40.2,4.05l42.25,38.2l42.2,16.05l28.15,42.2
			l-18.1,54.3l14.05,54.25L-199,432.2l-56.3-4l-38.2,92.45l-41.75-12.95l15.6-29.25l-20.1-38.2L-353.8,392l2,46.25l14.1,34.15
			l-14.1,30.149l-18.1-36.2l-54.25-8l-54.3-34.199l-44.2-2l44.2,10.05l50.25,34.149l48.25,10.051l31.25,48.6
			c1.2,15.8,0.167,27.75-3.1,35.85c-3.367,8.367-16.434,23.617-39.2,45.75c-11.367,11.034-22.417,21.25-33.15,30.65L422.15,639.25z"
			/>
	</g>
</symbol>
<g id="crack">
	
		<use xlink:href="#FlashAICB_x2F_crack_x2F__x3C_Clip_Group_0_x3E_"  width="1056.728" height="672.849" id="masked" x="-0.128" y="-672.85" transform="matrix(1 0 0 -1 -0.4502 -17.3501)" style="overflow:visible;"/>
</g>
<g id="crack-mask">
	
		<use xlink:href="#topmask_1_"  width="1045.3" height="639.25" id="topmask" x="-522.65" transform="matrix(1 0 0 -1 522.6504 639.25)" style="overflow:visible;"/>
</g>
</svg>
