<?xml version="1.0" encoding="iso-8859-1"?>
<!-- Generator: Adobe Illustrator 15.1.0, SVG Export Plug-In . SVG Version: 6.00 Build 0)  -->
<!DOCTYPE svg PUBLIC "-//W3C//DTD SVG 1.1//EN" "http://www.w3.org/Graphics/SVG/1.1/DTD/svg11.dtd">
<svg version="1.1" id="stairs_x5F_blue_x5F_01.ai" xmlns="http://www.w3.org/2000/svg" xmlns:xlink="http://www.w3.org/1999/xlink"
	 x="0px" y="0px" width="900.6px" height="351.6px" viewBox="0 0 900.6 351.6" style="enable-background:new 0 0 900.6 351.6;"
	 xml:space="preserve">
<g>
	<path style="fill-rule:evenodd;clip-rule:evenodd;fill:#A2BEC6;" d="M217.3,13.15c8.633,2.633,14.567,5,17.8,7.1l-49.55,7.6
		c-6.333-1.4-14.233-2.783-23.7-4.15c-18.934-2.8-36.25-4.2-51.95-4.2c-9.933,0-26.35,1.467-49.25,4.4
		c-25.767,3.3-45.983,5.3-60.65,6V8.45c31.867-3.5,54.85-5.733,68.95-6.7c32.2-2.233,59.466-2.317,81.8-0.25
		C177.817,4.033,200,7.917,217.3,13.15z"/>
	<polygon style="fill-rule:evenodd;clip-rule:evenodd;fill:#88B0BA;" points="245.6,90.2 253.45,90.25 304.05,76.15 305.1,85.45 
		253.55,101.2 253.4,101.2 252.7,90.65 	"/>
	<polygon style="fill-rule:evenodd;clip-rule:evenodd;fill:#88B0BA;" points="279.95,56.55 280.25,64.7 229,79 238.35,79.1 
		228.9,79.1 228.4,68.7 229.05,68.75 	"/>
	<polygon style="fill-rule:evenodd;clip-rule:evenodd;fill:#88B0BA;" points="290.45,66.25 293.75,74.55 304.05,76.15 292.65,75.1 
		241.7,90 241.65,90 241,79.1 	"/>
	<path style="fill-rule:evenodd;clip-rule:evenodd;fill:#88B0BA;" d="M325.3,96.9l1.65,8.9c-5.867,1.067-11.7,2.267-17.5,3.6
		l-7,1.65L276.6,123.4v-10.9L325.3,96.9z"/>
	<polygon style="fill-rule:evenodd;clip-rule:evenodd;fill:#88B0BA;" points="316.5,86.3 315.25,95.8 264.95,111.85 264.75,101.55 
		260.2,101.4 266.05,101.4 	"/>
	<polygon style="fill-rule:evenodd;clip-rule:evenodd;fill:#88B0BA;" points="257.1,37.45 256.9,44.75 207.2,57.2 206.5,57.15 
		206.8,47.5 	"/>
	<polygon style="fill-rule:evenodd;clip-rule:evenodd;fill:#88B0BA;" points="268.25,46.4 268.55,55.1 218.95,68.25 218.2,68.2 
		217.85,57.8 211.85,57.45 217.2,57.6 	"/>
	<polygon style="fill-rule:evenodd;clip-rule:evenodd;fill:#88B0BA;" points="247.2,28.3 245.7,35.65 195.85,47.4 196.25,47.4 
		195.75,47.45 195.75,37.55 	"/>
	<polygon style="fill-rule:evenodd;clip-rule:evenodd;fill:#88B0BA;" points="235.1,20.25 235.8,26.3 186.4,37.2 185.55,27.85 	"/>
	<polygon style="fill-rule:evenodd;clip-rule:evenodd;fill:#A2BEC6;" points="195.75,37.55 186.4,37.2 235.8,26.3 247.2,28.3 	"/>
	<polygon style="fill-rule:evenodd;clip-rule:evenodd;fill:#A2BEC6;" points="245.7,35.65 257.1,37.45 206.8,47.5 206.8,47.1 
		195.85,47.4 	"/>
	<polygon style="fill-rule:evenodd;clip-rule:evenodd;fill:#A2BEC6;" points="256.9,44.75 268.25,46.4 217.2,57.6 207.2,57.2 	"/>
	<polygon style="fill-rule:evenodd;clip-rule:evenodd;fill:#A2BEC6;" points="268.55,55.1 279.95,56.55 229.05,68.75 218.95,68.25 	
		"/>
	<polygon style="fill-rule:evenodd;clip-rule:evenodd;fill:#A2BEC6;" points="280.25,64.7 291.65,65.95 241,79.1 229,79 	"/>
	<polygon style="fill-rule:evenodd;clip-rule:evenodd;fill:#A2BEC6;" points="292.65,75.1 304.05,76.15 253.45,90.25 241.7,90 	"/>
	<polygon style="fill-rule:evenodd;clip-rule:evenodd;fill:#A2BEC6;" points="305.1,85.45 316.5,86.3 266.05,101.4 253.55,101.2 	
		"/>
	<polygon style="fill-rule:evenodd;clip-rule:evenodd;fill:#A2BEC6;" points="264.95,112.1 264.95,111.85 315.25,95.8 326.65,96.45 
		276.6,112.5 276.6,112.4 	"/>
	<path style="fill-rule:evenodd;clip-rule:evenodd;fill:#88B0BA;" d="M340.8,151c-3.966,4.8-7.933,11.017-11.9,18.65
		c-4.9,9.534-7.9,22.5-9,38.9c-0.9,13.101-0.566,28.05,1,44.851c1.1,12.033,6,30.383,14.7,55.05
		c4.367,12.333,8.617,23.467,12.75,33.399l-32.15,9.7c-1-4.5-2.133-10.467-3.4-17.899l-0.55-3.101v-0.2l-1.1-6.8l-0.05-0.2
		l-0.55-3.75c-0.667-4.566-1.367-9.733-2.1-15.5h0.05c-0.567-4.5-1.133-9.8-1.7-15.899c-0.667-6.867-1.133-13.334-1.4-19.4
		c-0.233-4.033-0.4-8.649-0.5-13.85c-0.133-7.2-0.033-14.334,0.3-21.4l1.5-18c1.2-9.8,3-18.6,5.4-26.399
		c1.767-5.767,3.917-11.034,6.45-15.8C324.25,162.617,331.667,155.167,340.8,151z"/>
	<path style="fill-rule:evenodd;clip-rule:evenodd;fill:#88B0BA;" d="M191.15,190.2l-0.15-0.05l-19.9-8.601
		c-11.5-5-21.95-9.683-31.35-14.05c-2.833-1.333-4.967-2.333-6.4-3l-0.5-0.25c-2.267-1.067-4.233-2.017-5.9-2.85L114,154.85
		c-14.3-7.467-25.717-14.434-34.25-20.9l-2.95-2.3l-0.05-0.05l-2.6-2.15l-4.9-4.7l-4.05-4.9l-2.45-4.05
		c-0.4-0.833-0.767-1.783-1.1-2.85c-1.5-4.967-1.483-10.184,0.05-15.65l2-5.5l3.75-6.75l2.6-3.55c5.8-7.5,13.417-13.95,22.85-19.35
		c1.867-1.1,3.767-2.1,5.7-3l9.1-3.7c0.733-0.3,1.517-0.55,2.35-0.75l3.45-0.75C101.2,60.517,91.65,67.4,84.85,74.6
		C74.383,85.733,72.233,96.2,78.4,106c8,12.767,31.783,30.45,71.35,53.05c15.033,8.6,30.433,16.767,46.2,24.5
		c14.333,7.066,25.383,12.05,33.15,14.95c10.667,3.967,20.933,9.134,30.8,15.5c8.833,5.667,15.8,11.25,20.9,16.75l-0.2,3.7
		c-0.167,2.833-0.45,6.1-0.85,9.8c-1.633-4.667-4.467-9.033-8.5-13.1l-0.1-0.051c-1.433-1.466-3.083-2.933-4.95-4.399h-0.05
		c-1.566-1.233-3.5-2.601-5.8-4.101h-0.05c-5.233-3.333-12.65-7.183-22.25-11.55c-11.667-5.133-20.716-9.184-27.15-12.149h-0.05
		L191.15,190.2z"/>
	<path style="fill-rule:evenodd;clip-rule:evenodd;fill:#A2BEC6;" d="M529.9,117.4c-5.667,1.233-12.95,2.467-21.851,3.7
		c-17.833,2.5-34.883,3.733-51.149,3.7c-17.601-0.033-39.684-1.3-66.25-3.8c-25.5-2.4-38.933-3.583-40.3-3.55
		c-12.567,0.267-28.633,1.333-48.2,3.2l-25.55,2.75l25.85-12.35l7-1.65c5.8-1.333,11.633-2.533,17.5-3.6
		c15.7-2.833,29.083-4.316,40.15-4.45c14.2-0.167,31.683,0.267,52.45,1.3c20.667,1.033,39.15,2.383,55.45,4.05
		c13.533,1.4,33.283,2.133,59.25,2.2c12.967,0.033,24.583-0.083,34.85-0.35L529.9,117.4z"/>
	<polygon style="fill-rule:evenodd;clip-rule:evenodd;fill:#88B0BA;" points="541.05,137.55 541.05,127.3 580.35,117.3 
		580.95,126.95 541.1,137.55 	"/>
	<polygon style="fill-rule:evenodd;clip-rule:evenodd;fill:#88B0BA;" points="554.1,149.1 553.85,138.35 591.15,128.05 
		591.25,137.55 	"/>
	<polygon style="fill-rule:evenodd;clip-rule:evenodd;fill:#88B0BA;" points="537.35,127.15 529.75,127 529.75,126.8 	"/>
	<polygon style="fill-rule:evenodd;clip-rule:evenodd;fill:#88B0BA;" points="591.3,182.5 591.3,171.7 621.05,160.95 623.75,169.65 
			"/>
	<polygon style="fill-rule:evenodd;clip-rule:evenodd;fill:#88B0BA;" points="566.2,161.15 566.2,161.1 578.7,161.1 610.7,150.6 
		613.35,160.6 579,171.45 579,161.15 	"/>
	<polygon style="fill-rule:evenodd;clip-rule:evenodd;fill:#88B0BA;" points="566.2,160.95 566.45,148.6 600.6,138.4 602.15,150.05 
			"/>
	<polygon style="fill-rule:evenodd;clip-rule:evenodd;fill:#88B0BA;" points="529.75,126.7 529.9,117.4 569.1,108.55 570.15,115.75 
			"/>
	<polygon style="fill-rule:evenodd;clip-rule:evenodd;fill:#A2BEC6;" points="579,171.7 579,171.45 613.35,160.6 621.05,160.95 
		591.3,171.7 	"/>
	<polygon style="fill-rule:evenodd;clip-rule:evenodd;fill:#A2BEC6;" points="566.2,161.1 566.2,160.95 602.15,150.05 610.7,150.6 
		578.7,161.1 	"/>
	<polygon style="fill-rule:evenodd;clip-rule:evenodd;fill:#A2BEC6;" points="554.1,149.35 554.1,149.1 591.25,137.55 600.6,138.4 
		566.45,148.6 	"/>
	<polygon style="fill-rule:evenodd;clip-rule:evenodd;fill:#A2BEC6;" points="553.85,138.3 541.1,137.55 580.95,126.95 
		591.15,128.05 553.85,138.35 	"/>
	<polygon style="fill-rule:evenodd;clip-rule:evenodd;fill:#A2BEC6;" points="541.05,127.25 529.75,126.8 529.75,126.7 
		570.15,115.75 581.2,117.05 541.05,127.3 	"/>
	<polygon style="fill-rule:evenodd;clip-rule:evenodd;fill:#88B0BA;" points="831.4,292.65 831.35,292.65 857.85,275.1 
		860.9,285.55 867.825,285.825 861.55,285.7 831.5,303.6 843.45,304.85 869.9,285.9 872.65,296.75 843.15,315.7 843.5,304.9 
		831.4,303.7 	"/>
	<polygon style="fill-rule:evenodd;clip-rule:evenodd;fill:#88B0BA;" points="713.65,192.8 711.3,185.25 746.5,172 746.15,179.4 	
		"/>
	<polygon style="fill-rule:evenodd;clip-rule:evenodd;fill:#88B0BA;" points="855.6,315.2 880.85,297 883.2,306.35 883.5,306.35 
		855.55,324.9 855.85,315.45 843.15,315.75 	"/>
	<polygon style="fill-rule:evenodd;clip-rule:evenodd;fill:#88B0BA;" points="756.4,179.4 757,189.15 724.05,203.5 723.45,193.2 	
		"/>
	<polygon style="fill-rule:evenodd;clip-rule:evenodd;fill:#88B0BA;" points="736.3,214.45 735.6,204 766.65,189.05 767.7,200.35 
		736.4,214.45 	"/>
	<polygon style="fill-rule:evenodd;clip-rule:evenodd;fill:#88B0BA;" points="787.7,263.6 787.85,254.3 780.05,254.7 788.15,254.1 
		817.35,237.85 817.1,246.4 	"/>
	<polygon style="fill-rule:evenodd;clip-rule:evenodd;fill:#88B0BA;" points="777.6,200.4 778.9,209.9 747.35,224.9 746.85,214.95 
		744.7,214.85 746.7,214.9 	"/>
	<polygon style="fill-rule:evenodd;clip-rule:evenodd;fill:#88B0BA;" points="787.7,263.65 797.6,263.1 826.15,246.55 
		827.55,255.45 798.35,272.7 798.25,272.7 797.6,263.15 787.7,263.7 	"/>
	<polygon style="fill-rule:evenodd;clip-rule:evenodd;fill:#88B0BA;" points="801.15,272.7 808.55,272.5 836.4,255.6 838.5,265.15 
		808.8,282.6 808.45,272.7 	"/>
	<polygon style="fill-rule:evenodd;clip-rule:evenodd;fill:#88B0BA;" points="820.7,292.4 825.35,292.55 820.7,292.5 820.05,282.75 
		847.2,265.3 849.35,274.9 	"/>
	<polygon style="fill-rule:evenodd;clip-rule:evenodd;fill:#88B0BA;" points="877,340.55 876.5,333.6 900.4,315 900.6,324.25 	"/>
	<polygon style="fill-rule:evenodd;clip-rule:evenodd;fill:#88B0BA;" points="788.65,209.95 789.4,220.2 757.65,235.7 757.4,225.25 
		747.35,225 747.35,224.95 757.45,225.2 	"/>
	<polygon style="fill-rule:evenodd;clip-rule:evenodd;fill:#88B0BA;" points="867.25,332.9 867.25,325.15 855.55,325 855.55,324.95 
		867.2,325 891.75,306.45 892.55,314.7 	"/>
	<polygon style="fill-rule:evenodd;clip-rule:evenodd;fill:#88B0BA;" points="798.9,220.25 798.85,228.85 767.95,244.85 
		768.45,236.05 757.65,235.8 757.65,235.75 768.4,235.85 	"/>
	<polygon style="fill-rule:evenodd;clip-rule:evenodd;fill:#88B0BA;" points="778.35,244.85 808.2,228.95 808.15,237.75 
		778.1,254.8 778,254.8 778.5,245.1 767.95,245.1 767.95,244.9 	"/>
	<polygon style="fill-rule:evenodd;clip-rule:evenodd;fill:#A2BEC6;" points="723.45,193.2 713.65,192.8 746.15,179.4 756.4,179.4 	
		"/>
	<polygon style="fill-rule:evenodd;clip-rule:evenodd;fill:#A2BEC6;" points="757,189.15 766.65,189.05 735.6,204 724.05,203.5 	"/>
	<polygon style="fill-rule:evenodd;clip-rule:evenodd;fill:#A2BEC6;" points="746.7,214.9 736.4,214.45 767.7,200.35 777.6,200.4 	
		"/>
	<polygon style="fill-rule:evenodd;clip-rule:evenodd;fill:#A2BEC6;" points="778.9,209.9 788.65,209.95 757.45,225.2 
		747.35,224.95 747.35,224.9 	"/>
	<polygon style="fill-rule:evenodd;clip-rule:evenodd;fill:#A2BEC6;" points="789.4,220.2 798.9,220.25 768.4,235.85 757.65,235.75 
		757.65,235.7 	"/>
	<polygon style="fill-rule:evenodd;clip-rule:evenodd;fill:#A2BEC6;" points="798.85,228.85 808.2,228.95 778.35,244.85 
		767.95,244.9 767.95,244.85 	"/>
	<polygon style="fill-rule:evenodd;clip-rule:evenodd;fill:#A2BEC6;" points="788.15,254.1 778.1,254.8 808.15,237.75 
		817.35,237.85 	"/>
	<polygon style="fill-rule:evenodd;clip-rule:evenodd;fill:#A2BEC6;" points="787.7,263.65 787.7,263.6 817.1,246.4 826.15,246.55 
		797.6,263.1 	"/>
	<polygon style="fill-rule:evenodd;clip-rule:evenodd;fill:#A2BEC6;" points="808.55,272.5 798.35,272.7 827.55,255.45 836.4,255.6 
			"/>
	<polygon style="fill-rule:evenodd;clip-rule:evenodd;fill:#A2BEC6;" points="838.5,265.15 847.2,265.3 820.05,282.75 808.8,282.6 	
		"/>
	<polygon style="fill-rule:evenodd;clip-rule:evenodd;fill:#A2BEC6;" points="831.35,292.65 820.7,292.4 849.35,274.9 857.85,275.1 
			"/>
	<polygon style="fill-rule:evenodd;clip-rule:evenodd;fill:#A2BEC6;" points="861.55,285.7 869.9,285.9 843.45,304.85 831.5,303.6 	
		"/>
	<polygon style="fill-rule:evenodd;clip-rule:evenodd;fill:#A2BEC6;" points="880.85,297 855.6,315.2 843.15,315.75 843.15,315.7 
		872.65,296.75 	"/>
	<polygon style="fill-rule:evenodd;clip-rule:evenodd;fill:#A2BEC6;" points="855.55,324.9 883.75,306.2 891.75,306.45 867.2,325 
		855.55,324.95 	"/>
	<polygon style="fill-rule:evenodd;clip-rule:evenodd;fill:#A2BEC6;" points="867.25,333.35 867.25,332.9 892.55,314.7 900.4,315 
		876.5,333.6 	"/>
	<path style="fill-rule:evenodd;clip-rule:evenodd;fill:#A2BEC6;" d="M670.6,172.7c7.834,0,33.134-0.233,75.9-0.7l-35.2,13.25
		c-24.7,0.533-46.866,0.884-66.5,1.05c-11.767,0.101-24.217-0.316-37.35-1.25l-16.15-1.399v-1.15l32.45-12.85l19.05,1.55
		C656.467,172.2,665.733,172.7,670.6,172.7z"/>
	<path style="fill-rule:evenodd;clip-rule:evenodd;fill:#88B0BA;" d="M438.8,169.1c-2.267,4.9-3.933,10.45-5,16.65
		c-1.233,7.1-1.55,16.983-0.95,29.65c0.566,12.133,1.883,25.033,3.95,38.699c1.667,11.101,9.767,28.051,24.3,50.851
		c7.233,11.399,14.317,21.7,21.25,30.899l-29.5,9.7c-2.033-6-4.417-13.7-7.149-23.1l-1.9-6.65c-1.8-6.399-3.3-12.05-4.5-16.95
		l-4.7-19.899c-1.5-6.934-2.767-13.384-3.8-19.351l-1.3-7.949l-0.05-0.101l-1.15-8c-0.867-6.467-1.483-12.416-1.85-17.85
		c-0.2-2.767-0.35-5.483-0.45-8.15l-0.15-7.899c0.066-8.733,0.75-16.334,2.05-22.801c1-4.933,2.4-9.366,4.2-13.3
		c3.4-7.433,8.217-12.583,14.45-15.45C443.617,160.7,441.033,164.367,438.8,169.1z"/>
	<path style="fill-rule:evenodd;clip-rule:evenodd;fill:#88B0BA;" d="M515.35,185.15l0.351-1.601l0.05-0.05
		c0.533-2.167,1.184-4.134,1.95-5.9c0.7-1.466,1.399-2.7,2.1-3.7c2.134-3.1,4.851-5.283,8.15-6.55l-0.2,0.3
		c-5.667,7.5-8.1,18.984-7.3,34.45c0.566,10.733,3.166,26.717,7.8,47.95c3.134,14.467,13.283,33.05,30.45,55.75
		c8.6,11.334,16.866,21.233,24.8,29.7l-30.15,9.05c-1.666-4.033-3.767-9.333-6.3-15.899l-4.649-12.4v-0.05l-1.65-4.601
		c-2.033-5.633-4.366-12.383-7-20.25l-2.25-7.1l-0.05-0.1l-1.15-3.551v-0.05l-1.1-3.649c-2.834-9.334-5.217-17.867-7.15-25.601
		c-1.233-4.934-2.25-9.333-3.05-13.2c-1.3-6.233-2.316-11.783-3.05-16.649c-0.667-4.601-1.15-8.834-1.45-12.7l-0.25-4.05
		C513.884,197.033,514.25,190.517,515.35,185.15z"/>
	<path style="fill-rule:evenodd;clip-rule:evenodd;fill:#88B0BA;" d="M737.95,258.65l0.2-0.051c-2.733,4.334-3.801,9.551-3.2,15.65
		c0.533,5.2,2.533,12.767,6,22.7c2.8,7.967,9.184,16.149,19.149,24.55c4.967,4.233,9.667,7.65,14.101,10.25l-15.8,6.6
		c-2.867-3.533-6.067-7.933-9.601-13.199c-2.733-4.101-5.05-7.767-6.95-11c-3.733-6.334-6.716-12.284-8.949-17.851l-1.351-3.45
		v-0.05l-0.6-1.7v-0.05l-0.55-1.7v-0.05l-0.5-1.649V287.6c-0.5-1.933-0.884-3.6-1.15-5c-1.134-6.733-0.6-12.216,1.6-16.449
		l1.551-2.5l2.05-2.2l1.3-1.05L737.95,258.65z"/>
	<path style="fill-rule:evenodd;clip-rule:evenodd;fill:#6397A3;" d="M274.4,234.7c2.398,3.028,4.182,6.212,5.35,9.55
		c0.4-3.7,0.683-6.967,0.85-9.8l24.6-0.9c-0.333,7.066-0.434,14.2-0.3,21.4l-53.3-2.05c-3.3-4.101-7.333-8.534-12.1-13.301
		c-1.2-1.199-2.517-2.35-3.95-3.449L274.4,234.7z"/>
	<path style="fill-rule:evenodd;clip-rule:evenodd;fill:#6397A3;" d="M210.9,198.9c6.434,2.966,15.483,7.017,27.15,12.149
		c5.289,2.405,9.914,4.655,13.875,6.75L206.3,219.65c-9.97-4.596-25.287-11.063-45.95-19.4L210.9,198.9z"/>
	<path style="fill-rule:evenodd;clip-rule:evenodd;fill:#6397A3;" d="M266,290.05c0.533-7.399-0.917-14.633-4.35-21.7l6.6,0.051
		v1.399l21.25,0.4l1.95-1.55l13.95,0.149c0.266,6.053,0.733,12.502,1.4,19.351L266,290.05z"/>
	<path style="fill-rule:evenodd;clip-rule:evenodd;fill:#6397A3;" d="M831.4,303.7l12.1,1.2l-0.2,5.35l-28.45,1.1
		c-0.233-1.267-0.633-2.583-1.199-3.949c-1.761-4.419-4.086-8.985-6.976-13.7l24.726-0.9V303.7z"/>
	<path style="fill-rule:evenodd;clip-rule:evenodd;fill:#6397A3;" d="M114.95,181.55c-9.514-4.086-18.164-7.994-25.95-11.725
		l1.7,0.775l49.05-3.1c9.085,4.221,19.152,8.737,30.2,13.55l-23.5,0.2l2.25-1.75l0.4-5.75l-18.65-0.35l-5.85,1.4v6.55l4.05,0.101
		L114.95,181.55z"/>
	<path style="fill-rule:evenodd;clip-rule:evenodd;fill:#6397A3;" d="M343.95,149.7c-1.4,0.533-2.45,0.966-3.15,1.3
		c-9.133,4.167-16.55,11.617-22.25,22.35l-16.45-0.2c-2.5-2.8-5.25-4.133-8.25-4c-3.934,0.233-6.833,1.5-8.7,3.8l-16.25-0.2
		c-3.933-6.9-8.883-14.317-14.85-22.25l28.05-0.35c-0.033,2.567,0.5,4.783,1.6,6.65c1.133,1.9,2.683,3.15,4.65,3.75
		c2.7,0.8,5.333,0.917,7.9,0.35c2.867-0.633,4.967-2,6.3-4.1c1.233-1.966,1.767-4.25,1.6-6.85L343.95,149.7z"/>
	<path style="fill-rule:evenodd;clip-rule:evenodd;fill:#6397A3;" d="M798.25,272.7h10.2l0.325,9.325l-0.025-0.426l-10.9,0.101
		c-4.784-5.58-9.984-10.43-15.6-14.55l15.65,0.3L798.25,272.7z"/>
	<path style="fill-rule:evenodd;clip-rule:evenodd;fill:#6397A3;" d="M218,62.15l0.2,6.05l10.2,0.5l0.5,10.4H241l0.2,3.4l-0.05-0.65
		l-60.5-3.5c-9.267-6.733-17.767-12.133-25.5-16.2H218z"/>
	<path style="fill-rule:evenodd;clip-rule:evenodd;fill:#6397A3;" d="M21.7,78.9c0.168-2.692,0.368-5.392,0.6-8.1l0.5-4.65
		c-6.633,1-14.233,1.967-22.8,2.9v-7.5c25.667,0.4,41.633,0.6,47.9,0.6h45C83.467,67.55,75.85,74,70.05,81.5L21.7,78.9z"/>
	<path style="fill-rule:evenodd;clip-rule:evenodd;fill:#6397A3;" d="M510.45,165.45l0.399-5.75v-0.05l-0.05,0.05l-18.6-0.4
		l-5.851,1.45v6.55l21.25,0.4L510.45,165.45z M711.3,185.25l2.351,7.55l9.8,0.4l0.3,5.2l-18.65-0.351
		c-1.399-0.633-2.816-0.934-4.25-0.899c-1.5,0.066-2.916,0.316-4.25,0.75l-71.55-1.25l0.2-2.15v-0.05l-0.1,0.05l-22.9-0.5l-7.15,1.8
		v0.3l-12.699-0.25l1.1,1.301c-10.566-11.934-19.767-20.267-27.6-25c-7.601-4.633-15.15-6.617-22.65-5.95
		c-1.9,0.133-3.667,0.517-5.3,1.15c-3.3,1.267-6.017,3.45-8.15,6.55l-35.524-2c-6.733-11.898-16.092-17.315-28.075-16.25
		c-3.5,0.3-6.717,1.117-9.65,2.45c-6.233,2.867-11.05,8.017-14.45,15.45v-0.05l-47-5.45c-3.233-9.033-8.083-15.15-14.55-18.35h0.05
		c19.633,0.1,31.65,0.383,36.05,0.85c10.6,1.2,63.85,0.983,159.75-0.65l-0.2,11.25H579v10.55h12.3v11.95l16.15,1.399
		c13.133,0.934,25.583,1.351,37.35,1.25C664.434,186.134,686.6,185.783,711.3,185.25z"/>
	<path style="fill-rule:evenodd;clip-rule:evenodd;fill:#6397A3;" d="M633.75,210c-3.634,2.7-7.066,5.95-10.3,9.75l-3.75,4.85
		l-14.75-2l-11.7-14.149L633.75,210z"/>
	<path style="fill-rule:evenodd;clip-rule:evenodd;fill:#6397A3;" d="M494.875,289.05l9.575,0.55v1.301l21.2,0.399l0.55-0.399
		l7.55,0.449c2.61,7.798,4.927,14.498,6.95,20.101l-48.55,4.25C493.178,307.213,494.086,298.33,494.875,289.05z"/>
	<path style="fill-rule:evenodd;clip-rule:evenodd;fill:#6397A3;" d="M519,238.1l-22.25-0.75c-0.101-6.229-0.367-12.028-0.8-17.399
		l20,1.55v-0.05C516.684,226.316,517.7,231.866,519,238.1z"/>
	<path style="fill-rule:evenodd;clip-rule:evenodd;fill:#6397A3;" d="M489.6,184.3l25.75,0.851
		c-1.095,5.343-1.461,11.826-1.1,19.449l-19.9,0.801C493.146,197.387,491.563,190.354,489.6,184.3z"/>
	<path style="fill-rule:evenodd;clip-rule:evenodd;fill:#6397A3;" d="M495.8,276.35c0.6-9.234,0.949-18.685,1.05-28.35l25.2,3.35
		v-0.05c1.93,7.72,4.305,16.236,7.125,25.55L495.8,276.35z"/>
	<path style="fill-rule:evenodd;clip-rule:evenodd;fill:#6397A3;" d="M710.45,310.5v4.9L692.35,316.1
		c1.334-6.399,2.417-12.566,3.25-18.5l37.301-1.3c2.233,5.566,5.216,11.517,8.949,17.851l-7.25,0.3l0.351-5v-0.05l-0.05,0.05
		l-18.601-0.4L710.45,310.5z"/>
	<path style="fill-rule:evenodd;clip-rule:evenodd;fill:#6397A3;" d="M736.3,214.45l10.55,0.5l0.45,9h-17.45
		c-1.566-0.9-3.233-1.334-5-1.3c-2.267,0.133-4.116,0.566-5.55,1.3h-31.2c-2.655-4.758-5.831-8.824-9.524-12.2l11.575,0.45
		c0.399,1.7,1.1,3.133,2.1,4.3c1.033,1.233,2.3,2.066,3.8,2.5c2.667,0.8,5.283,0.917,7.851,0.35c2.866-0.633,4.966-2,6.3-4.1
		c0.467-0.7,0.816-1.45,1.05-2.25l25,0.95L736.3,214.45z"/>
	<path style="fill-rule:evenodd;clip-rule:evenodd;fill:#6397A3;" d="M371.05,316.3l-0.1,0.3c1.733-6.6,3.4-13.216,5-19.85l27,0.9
		v4.3l21.2,0.399l2.9-2.25l0.1-1.649l12.15,0.399c1.185,4.837,2.66,10.403,4.425,16.7L371.05,316.3z"/>
	<path style="fill-rule:evenodd;clip-rule:evenodd;fill:#6397A3;" d="M388.85,185.25l39.05,1.6c-1.3,6.467-1.983,14.067-2.05,22.801
		l-11.55-0.15l2.4-1.9l0.5-7.05v-0.05l-22.95-0.45l-4.55,1.101C389.7,195.717,389.417,190.417,388.85,185.25z"/>
	<path style="fill-rule:evenodd;clip-rule:evenodd;fill:#6397A3;" d="M541.05,127.25v7.4c-17.733,1.4-33.666,2.383-47.8,2.95
		c-19.233,0.8-33.366,0.767-42.4-0.1c-13.833-1.333-37.733-2-71.7-2c-28.566,0-50.217,0.333-64.95,1
		c-10.833,0.5-36.233-1.317-76.2-5.45c-11.2-12.633-23.15-24.466-35.85-35.5l51,1.9l0.25,3.75l11.35,0.35l0.2,10.55l11.65,0.3v11
		l25.55-2.75c19.567-1.867,35.633-2.933,48.2-3.2c1.367-0.034,14.8,1.15,40.3,3.55c26.567,2.5,48.65,3.767,66.25,3.8
		c16.267,0.034,33.316-1.2,51.149-3.7c8.9-1.233,16.184-2.467,21.851-3.7l-0.15,9.6L541.05,127.25z"/>
	<path style="fill-rule:evenodd;clip-rule:evenodd;fill:#6397A3;" d="M68,40.8l0.5-7.1v-0.05l-0.05,0.05l-22.9-0.5l-7.2,1.8v8.05
		l26.15,0.5L68,40.8z M185.55,27.85l0.85,9.35l9.35,0.35v4.5C98.483,45.183,33.233,47.133,0,47.9v-18c14.667-0.7,34.883-2.7,60.65-6
		c22.9-2.933,39.317-4.4,49.25-4.4c15.7,0,33.017,1.4,51.95,4.2C171.317,25.067,179.217,26.45,185.55,27.85z"/>
	<path style="fill-rule:evenodd;clip-rule:evenodd;fill:#6397A3;" d="M279,197.85c-0.6-3.399-1.717-7.149-3.35-11.25l0.05,0.051
		l8.65,0.6c1.167,1.934,2.733,3.184,4.7,3.75c2.333,0.7,4.684,0.866,7.05,0.5c2.566-0.434,4.6-1.434,6.1-3l9.875,0.7
		c-2.382,7.773-4.174,16.54-5.375,26.3l-25.8,1.1C280.633,209.934,280,203.684,279,197.85z"/>
	<path style="fill-rule:evenodd;clip-rule:evenodd;fill:#6397A3;" d="M308.45,304.1c0.733,5.767,1.433,10.934,2.1,15.5L258.9,320.2
		c1.533-4.8,2.883-9.417,4.05-13.851L308.45,304.1z"/>
	<path style="fill-rule:evenodd;clip-rule:evenodd;fill:#6397A3;" d="M254.15,334.3l58.65-0.649c1.267,7.433,2.4,13.399,3.4,17.899
		l-68.35,0.05C249.787,346.479,251.887,340.713,254.15,334.3z"/>
	<path style="fill-rule:evenodd;clip-rule:evenodd;fill:#6397A3;" d="M79.75,134v-0.05c8.533,6.466,19.95,13.433,34.25,20.9
		l-52.2,0.55c-11.633-6.967-20.633-13.75-27-20.35L79.75,134z"/>
	<path style="fill-rule:evenodd;clip-rule:evenodd;fill:#6397A3;" d="M21.275,93.3c0.011,0.411,0.019,0.794,0.025,1.15l40.4,2.85
		c-1.534,5.467-1.55,10.684-0.05,15.65c0.327,1.045,0.685,1.979,1.075,2.8l-39.225,0.5C22.016,110.368,21.274,102.718,21.275,93.3z"
		/>
	<polygon style="fill-rule:evenodd;clip-rule:evenodd;fill:#6397A3;" points="784.8,254.45 787.85,254.3 787.85,254.65 	"/>
	<path style="fill-rule:evenodd;clip-rule:evenodd;fill:#6397A3;" d="M798.6,339.55l5.15-3.649c3.866-3.134,6.783-6.5,8.75-10.101
		l54.75,0.55v7l9.25,0.25l0.5,6.95L798.6,339.55z"/>
	<path style="fill-rule:evenodd;clip-rule:evenodd;fill:#6397A3;" d="M367.15,330.4L379,330.3v4.2l26.15,0.5l3.5-2.75l0.15-2.25
		l39-0.4l-0.15-0.55c1.933,6.476,3.667,11.976,5.2,16.5l-91.45,4C363,344.684,364.917,338.3,367.15,330.4z"/>
	<path style="fill-rule:evenodd;clip-rule:evenodd;fill:#6397A3;" d="M430.8,259.6c1.031,5.953,2.298,12.387,3.8,19.301l-55.6,4.5
		c1.896-8.549,3.563-16.865,5-24.95l46.8,1.2V259.6z"/>
	<path style="fill-rule:evenodd;clip-rule:evenodd;fill:#6397A3;" d="M426.45,225.7c0.367,5.434,0.983,11.383,1.85,17.85
		l-42.45,3.55c1.23-8.212,2.13-15.528,2.7-21.949L426.45,225.7z"/>
	<path style="fill-rule:evenodd;clip-rule:evenodd;fill:#6397A3;" d="M547.05,328.65c2.533,6.566,4.634,11.866,6.3,15.899l-65.649,2
		c0.767-4.366,1.649-10.116,2.649-17.25L547.05,328.65z"/>
	<path style="fill-rule:evenodd;clip-rule:evenodd;fill:#6397A3;" d="M728.75,282.6l-31.6,0.4c0.433-6.3,0.583-12.134,0.449-17.5
		l32.75,0.65C728.15,270.384,727.616,275.866,728.75,282.6z"/>
	<path style="fill-rule:evenodd;clip-rule:evenodd;fill:#6397A3;" d="M686.7,338.5c1.133-3.566,2.383-8.217,3.75-13.95l58.35,0.601
		c3.533,5.267,6.733,9.666,9.601,13.199L686.7,338.5z"/>
	<path style="fill-rule:evenodd;clip-rule:evenodd;fill:#6397A3;" d="M768.25,239.3l-0.3,5.8h10.55l-0.45,8.9l-81.899-5.4
		c-0.7-4.066-1.534-7.783-2.5-11.149l20.55,0.5c0.434,1.633,1.149,3.017,2.149,4.149c1,1.167,2.233,1.967,3.7,2.4
		c2.667,0.8,5.283,0.917,7.851,0.35c2.866-0.633,4.966-2,6.3-4.1c0.399-0.634,0.75-1.384,1.05-2.25L768.25,239.3z"/>
	<path style="fill-rule:evenodd;clip-rule:evenodd;fill:#448CA0;" d="M36.75,58.95l0.35-5.2V53.7l-0.05,0.05L20.3,53.4l-5.25,1.3
		v5.9l19.1,0.35L36.75,58.95z M195.75,42.05v5.4l0.5-0.05l10.55-0.3l-0.3,10.05l11.35,0.65l0.15,4.35h-62.85l-2.55-1.3l-0.15-0.1
		l-4.95-2.3l-0.45-0.25l-4.7-1.9L142,56.2c-2-0.767-4.183-1.483-6.55-2.15l-4.1-0.95l-5.65-0.7c-0.434,0-0.767-0.017-1-0.05h-1.2
		c-0.2,0.033-0.5,0.05-0.9,0.05l-3.95,0.45l-8.6,1.85c-0.833,0.2-1.617,0.45-2.35,0.75l-9.1,3.7c-1.934,0.9-3.833,1.9-5.7,3h-45
		c-6.267,0-22.233-0.2-47.9-0.6V47.9C33.233,47.133,98.483,45.183,195.75,42.05z"/>
	<path style="fill-rule:evenodd;clip-rule:evenodd;fill:#448CA0;" d="M21.35,86.35l0.35-7.45l48.35,2.6l-2.6,3.55l-4.3,8.05
		l-1.45,4.2l-40.4-2.85C21.267,92.55,21.283,89.85,21.35,86.35z"/>
	<path style="fill-rule:evenodd;clip-rule:evenodd;fill:#78A8C3;" d="M62.75,115.75v0.05l1.8,3.1l4.1,5.2l5.5,5.35l2.6,2.15
		l0.05,0.05l2.95,2.3V134l-45,1.05l-2-2.2c-0.933-1.133-1.483-1.8-1.65-2l-0.2-0.2l-4.3-6.4L25.5,122l-0.15-0.25l-0.8-2.05
		l-0.1-0.15l-0.95-3.3L62.75,115.75z"/>
	<path style="fill-rule:evenodd;clip-rule:evenodd;fill:#448CA0;" d="M79.3,165c-1.167-0.6-3.583-1.867-7.25-3.8l-3.4-1.9l-0.2-0.05
		l-3.2-1.85L65,157.3l-3.15-1.9l52.15-0.55l12.95,6.55c1.667,0.833,3.633,1.783,5.9,2.85l0.5,0.25c1.433,0.667,3.566,1.667,6.4,3
		l-49.05,3.1L79.3,165z"/>
	<path style="fill-rule:evenodd;clip-rule:evenodd;fill:#448CA0;" d="M214.8,84.95l-5.85,1.45v6.5l21.25,0.45l2.85-2.25l0.4-5.75
		l0.05-0.05L214.8,84.95z M252.7,90.65l0.45,6.8l-51-1.9l-10.65-8.9l-0.3-0.2c-3.2-2.633-6.717-5.333-10.55-8.1l60.5,3.5l0.5,8.15
		h0.05L252.7,90.65z"/>
	<polygon style="fill-rule:evenodd;clip-rule:evenodd;fill:#448CA0;" points="230.35,88.95 230.45,86.25 230.5,86.25 232.35,85.7 
		230.5,86.3 	"/>
	<path style="fill-rule:evenodd;clip-rule:evenodd;fill:#448CA0;" d="M541.05,134.65v2.9h0.05l12.75,0.75l0.25,11.05l12.351-0.75
		l-0.05,1.3c-95.9,1.633-149.15,1.85-159.75,0.65c-4.4-0.466-16.417-0.75-36.05-0.85h-0.05c-0.2-0.1-0.767-0.35-1.7-0.75l-0.3-0.15
		l-1.85-0.6h-0.05l-1.85-0.5l-2.4-0.4h-0.1l-2.5-0.2c-0.7-0.033-1.433-0.033-2.2,0h-0.05c-0.466,0-1.2,0.033-2.2,0.1l-0.6,0.05
		l-7.05,1.3l-1.9,0.55c-0.1,0.033-0.716,0.233-1.85,0.6l-39.8,0.25c-0.1-2.633-0.783-4.8-2.05-6.5c-2.6-3.3-5.583-4.883-8.95-4.75
		c-5.867,0.233-9.383,2.867-10.55,7.9c-0.267,1.133-0.434,2.316-0.5,3.55l-28.05,0.35l-7.65-9.7l-0.1-0.1l-8.3-9.65
		c39.967,4.133,65.367,5.95,76.2,5.45c14.733-0.667,36.383-1,64.95-1c33.967,0,57.867,0.667,71.7,2c9.034,0.867,23.167,0.9,42.4,0.1
		C507.384,137.033,523.316,136.05,541.05,134.65z M527.25,147.3l0.5-7.05v-0.05l-22.95-0.45l-7.2,1.8v8l26.101,0.5L527.25,147.3z"/>
	<path style="fill-rule:evenodd;clip-rule:evenodd;fill:#448CA0;" d="M191,190.15l0.15,0.05l19.7,8.7l-50.5,1.35l-16.7-6.75
		l-0.3-0.15l-5.6-2.25c-7.6-3.1-15.15-6.25-22.65-9.449l-0.15-0.101l30.9,0.2l0.6-0.5l23.5-0.2L191,190.15z"/>
	<path style="fill-rule:evenodd;clip-rule:evenodd;fill:#78A8C3;" d="M270.9,176.4l-2-3.65l16.25,0.2
		c-0.833,1.1-1.467,2.466-1.9,4.1c-0.933,3.967-0.567,7.367,1.1,10.2l-8.65-0.6l-0.05-0.051
		C274.417,183.5,272.833,180.1,270.9,176.4z"/>
	<path style="fill-rule:evenodd;clip-rule:evenodd;fill:#78A8C3;" d="M303.2,187.25c1.333-2.033,1.867-4.483,1.6-7.35
		c-0.2-2.534-0.883-4.534-2.05-6l-0.65-0.75l16.45,0.2c-2.533,4.766-4.683,10.034-6.45,15.8v0.05l-9.9-0.7
		C302.533,188.167,302.867,187.75,303.2,187.25z"/>
	<path style="fill-rule:evenodd;clip-rule:evenodd;fill:#448CA0;" d="M306.7,215.55l-1.5,18l-24.6,0.9l0.35-8.95
		c0.066-3.333,0.05-6.3-0.05-8.9l25.8-1.1V215.55z"/>
	<path style="fill-rule:evenodd;clip-rule:evenodd;fill:#448CA0;" d="M251.95,217.8c3.033,1.601,5.816,3.2,8.35,4.8h0.05
		c2.3,1.5,4.233,2.867,5.8,4.101h0.05c1.867,1.467,3.517,2.934,4.95,4.399l0.1,0.051c1.267,1.267,2.317,2.449,3.15,3.55l-38.85,1.45
		c-1.066-0.867-2.433-1.851-4.1-2.95l-0.05-0.05c-1.5-1-3.1-2-4.8-3l-0.05-0.051l-5.35-3.05l-0.15-0.05l-1.9-1
		c-1.733-0.934-3.05-1.616-3.95-2.05l-6.6-3.2l-0.15-0.05l-2.15-1.05L251.95,217.8z"/>
	<path style="fill-rule:evenodd;clip-rule:evenodd;fill:#448CA0;" d="M268.25,263.25v5.15l-6.6-0.051
		c-1.367-2.866-3.133-5.883-5.3-9.05l-0.25-0.399l-4.5-6l53.3,2.05c0.1,5.2,0.267,9.816,0.5,13.85l-13.95-0.149l0.9-0.7l0.4-5.75
		l-18.65-0.4L268.25,263.25z"/>
	<path style="fill-rule:evenodd;clip-rule:evenodd;fill:#78A8C3;" d="M265.8,292.35V292l0.2-1.95l40.8-1.899v0.05
		c0.567,6.1,1.133,11.399,1.7,15.899h-0.05l-45.5,2.25v-0.1l0.6-2.45L265.8,292.35z"/>
	<polygon style="fill-rule:evenodd;clip-rule:evenodd;fill:#448CA0;" points="311.15,323.55 312.25,330.35 312.25,330.55 
		312.8,333.65 254.15,334.3 258.9,320.2 310.55,319.6 311.1,323.35 	"/>
	<path style="fill-rule:evenodd;clip-rule:evenodd;fill:#448CA0;" d="M388.85,185.25l-1.1-7c-0.633-3.567-1.517-6.967-2.65-10.2
		l47,5.45v0.05c-1.8,3.934-3.2,8.367-4.2,13.3L388.85,185.25z"/>
	<path style="fill-rule:evenodd;clip-rule:evenodd;fill:#78A8C3;" d="M425.85,209.65l0.15,7.899c0.1,2.667,0.25,5.384,0.45,8.15
		l-37.9-0.55V225.1l0.35-3.85l0.05-0.3l0.25-3.9c0.2-3.2,0.316-5.583,0.35-7.149l23.6,0.449l1.15-0.85L425.85,209.65z"/>
	<polygon style="fill-rule:evenodd;clip-rule:evenodd;fill:#448CA0;" points="429.45,251.55 429.5,251.65 430.8,259.6 430.8,259.65 
		383.95,258.45 384,258.4 385.85,247.1 428.3,243.55 	"/>
	<path style="fill-rule:evenodd;clip-rule:evenodd;fill:#448CA0;" d="M434.6,278.9v0.05l4.7,19.899l-12.15-0.399l0.3-4.101
		l-18.65-0.399l-5.85,1.5v2.2l-27-0.9c0.767-3.167,1.783-7.616,3.05-13.35L434.6,278.9z"/>
	<polygon style="fill-rule:evenodd;clip-rule:evenodd;fill:#448CA0;" points="379,326.45 379,330.3 367.15,330.4 371.05,316.3 
		443.75,315.55 443.8,315.8 447.8,329.6 408.8,330 409.15,325.15 409.15,325.1 409.1,325.15 386.2,324.65 	"/>
	<path style="fill-rule:evenodd;clip-rule:evenodd;fill:#448CA0;" d="M488.4,180.95c-0.467-1.3-0.884-2.351-1.25-3.15v-0.05
		l-2.851-5.8l-0.05-0.05l35.55,2c-0.7,1-1.399,2.234-2.1,3.7c-0.767,1.767-1.417,3.733-1.95,5.9l-0.05,0.05l-0.351,1.601
		L489.6,184.3c-0.6-1.767-1-2.866-1.199-3.3V180.95z"/>
	<path style="fill-rule:evenodd;clip-rule:evenodd;fill:#448CA0;" d="M514.25,204.6l0.25,4.15c0.3,3.866,0.783,8.1,1.45,12.7v0.05
		l-20-1.55v-0.05l-1.15-10.95v-0.101l-0.45-3.399l-0.05-0.05L514.25,204.6z"/>
	<path style="fill-rule:evenodd;clip-rule:evenodd;fill:#448CA0;" d="M496.75,237.35L519,238.1c0.8,3.867,1.816,8.267,3.05,13.2
		v0.05l-25.2-3.35L496.75,237.35z"/>
	<polygon style="fill-rule:evenodd;clip-rule:evenodd;fill:#78A8C3;" points="504.45,289.6 494.85,289.05 494.9,288.9 
		495.35,282.85 495.35,282.7 495.8,276.4 495.8,276.35 529.2,276.85 529.2,276.9 530.3,280.55 530.3,280.6 531.45,284.15 
		531.5,284.25 533.75,291.35 526.2,290.9 528.55,289.05 528.95,283.3 510.3,282.9 504.45,284.35 	"/>
	<polygon style="fill-rule:evenodd;clip-rule:evenodd;fill:#448CA0;" points="542.4,316.25 547.05,328.65 490.35,329.3 
		490.75,326.3 490.8,326.15 491.2,323 491.25,322.8 492.15,315.7 540.7,311.45 542.4,316.2 	"/>
	<path style="fill-rule:evenodd;clip-rule:evenodd;fill:#448CA0;" d="M690.25,205.05c-0.6,2.5-0.634,4.884-0.1,7.15l-11.601-0.45
		c-0.333-0.333-0.866-0.8-1.6-1.4l-2.45-1.899l-4.65-2.9l-5.5-2.3l-3.25-0.85l-2.6-0.4l-3.3-0.15l-5.05,0.5l-0.351,0.101l-1.1,0.2
		l-0.101,0.05l-2.55,0.7l-2.05,0.75l-0.3,0.149l-0.8,0.3l-2.15,1l-0.3,0.2l-0.75,0.351l-0.3,0.199l-1,0.551l-0.7,0.449l-0.3,0.15
		l-3.65,2.5l-40.5-1.55l-2.55-3l-0.101-0.101L589.45,204l-0.101-0.15l-3.6-4.149l-0.15-0.2l-3.199-3.65l12.699,0.25v7.75l26.101,0.5
		l3.55-2.75l0.3-4.949l71.55,1.25C693.267,199,691.15,201.384,690.25,205.05z"/>
	<path style="fill-rule:evenodd;clip-rule:evenodd;fill:#448CA0;" d="M735.6,204l0.65,9.95l-25-0.95c0.667-1.934,0.8-4.017,0.4-6.25
		c-0.334-2.033-0.967-3.65-1.9-4.85c-1.333-1.733-2.884-3.017-4.65-3.851l18.65,0.351l0.3,5.1L735.6,204z"/>
	<path style="fill-rule:evenodd;clip-rule:evenodd;fill:#78A8C3;" d="M714.25,230.55c-0.6,2.667-0.616,5.134-0.05,7.4l-20.55-0.5
		l-1.051-3.3l-0.199-0.5c-0.667-2-1.534-4.134-2.601-6.4L689.65,227l-1.551-3.05h31.2C716.7,225.184,715.017,227.384,714.25,230.55z
		"/>
	<path style="fill-rule:evenodd;clip-rule:evenodd;fill:#78A8C3;" d="M747.3,223.95l0.05,1.05l10.051,0.25l0.25,10.55l10.8,0.25
		l-0.2,3.25l-33-0.8c0.634-1.934,0.767-4.017,0.4-6.25c-0.334-2.033-0.967-3.65-1.9-4.85c-1.1-1.434-2.4-2.584-3.9-3.45H747.3z"/>
	<path style="fill-rule:evenodd;clip-rule:evenodd;fill:#448CA0;" d="M765.9,258.1l-5.551-1.699l-4.949-0.851l-6.051-0.1
		c-0.033,0-0.5,0.05-1.399,0.149l-0.9,0.101l-4,0.899l-1.899,0.65l-0.2,0.05l-1.5,0.601l-3,1.649l-2.5,1.9L733,262.4l-1.5,1.8
		l-1.15,1.95l-32.75-0.65c-0.033-2.866-0.183-5.7-0.449-8.5v-0.05c-0.301-2.667-0.45-4.05-0.45-4.15v-0.1l-0.55-4.101l81.899,5.4
		l-0.05,0.8l6.7-0.35l3.149,0.2l-0.149,9.05l9.899-0.55l0.301,4.3l-15.65-0.3c-0.4-0.334-1.167-0.884-2.3-1.65l-2.3-1.5l-0.051-0.05
		l-2.25-1.351l-0.199-0.1c-0.334-0.2-1.051-0.6-2.15-1.2l-0.25-0.149L765.9,258.1z"/>
	<path style="fill-rule:evenodd;clip-rule:evenodd;fill:#78A8C3;" d="M808.75,281.6l0.05,1l11.25,0.15l0.65,9.75l10.7,0.15v0.149
		l-24.75,0.9v-0.05c-0.467-0.767-1.117-1.75-1.95-2.95l-6.8-8.95l-0.051-0.05L808.75,281.6z"/>
	<path style="fill-rule:evenodd;clip-rule:evenodd;fill:#78A8C3;" d="M730.4,289.3v0.05l0.55,1.7v0.05l0.6,1.7v0.05l1.351,3.45
		l-37.301,1.3l0.45-3.5V293.9l0.4-3.4v-0.15c0.2-1.633,0.434-4.083,0.7-7.35l31.6-0.4c0.267,1.4,0.65,3.067,1.15,5v0.051
		L730.4,289.3z"/>
	<path style="fill-rule:evenodd;clip-rule:evenodd;fill:#448CA0;" d="M690.45,324.55c0.399-1.566,1.033-4.383,1.899-8.45
		l18.101-0.699v1.649l21.25,0.4l2.85-2.25l0.05-0.75l7.25-0.3c1.9,3.233,4.217,6.899,6.95,11L690.45,324.55z"/>
	<path style="fill-rule:evenodd;clip-rule:evenodd;fill:#448CA0;" d="M855.85,315.45l-0.3,9.55l11.7,0.15v1.199l-54.75-0.55
		l0.75-1.5l0.05-0.149c0.267-0.534,0.467-1.017,0.601-1.45l0.1-0.15c0.833-2.3,1.25-4.666,1.25-7.1v-0.2
		c0-0.767-0.033-1.35-0.1-1.75v-0.2c-0.034-0.633-0.134-1.283-0.301-1.95l28.45-1.1l-0.149,5.5L855.85,315.45z"/>
	<path style="fill-rule:evenodd;clip-rule:evenodd;fill:#41748E;" d="M64.8,34.85l-0.3,8.7c-7.8-0.8-12.833-1.25-15.1-1.35
		c-1.4-0.067-3.667,0.05-6.8,0.35l-4.25,0.5V35L64.8,34.85z"/>
	<polygon style="fill-rule:evenodd;clip-rule:evenodd;fill:#A2BEC6;" points="68.45,33.7 64.8,34.85 38.35,35 45.55,33.2 	"/>
	<polygon style="fill-rule:evenodd;clip-rule:evenodd;fill:#88B0BA;" points="64.85,34.9 68.45,33.7 68.5,33.65 68.5,33.7 68,40.8 
		64.5,43.55 	"/>
	<path style="fill-rule:evenodd;clip-rule:evenodd;fill:#2E4D5D;" d="M42.6,42.55c3.133-0.3,5.4-0.417,6.8-0.35
		c2.267,0.1,7.3,0.55,15.1,1.35l-26.15-0.5L42.6,42.55z"/>
	<path style="fill-rule:evenodd;clip-rule:evenodd;fill:#41748E;" d="M497.6,141.55l26.45-0.2l-0.35,8.7
		c-7.8-0.767-12.816-1.2-15.05-1.3c-1.4-0.067-3.667,0.05-6.801,0.35l-4.25,0.45V141.55z"/>
	<polygon style="fill-rule:evenodd;clip-rule:evenodd;fill:#A2BEC6;" points="524.05,141.35 497.6,141.55 504.8,139.75 
		527.65,140.2 	"/>
	<polygon style="fill-rule:evenodd;clip-rule:evenodd;fill:#88B0BA;" points="527.65,140.2 527.75,140.2 527.75,140.25 
		527.25,147.3 523.7,150.05 524.05,141.4 	"/>
	<path style="fill-rule:evenodd;clip-rule:evenodd;fill:#2E4D5D;" d="M508.65,148.75c2.233,0.1,7.25,0.533,15.05,1.3l-26.101-0.5
		l4.25-0.45C504.983,148.8,507.25,148.683,508.65,148.75z"/>
	<path style="fill-rule:evenodd;clip-rule:evenodd;fill:#41748E;" d="M595.1,195.8l26.45-0.149l-0.35,8.699
		c-7.8-0.8-12.816-1.25-15.05-1.35c-1.4-0.066-3.667,0.05-6.801,0.35l-4.25,0.5V195.8z"/>
	<polygon style="fill-rule:evenodd;clip-rule:evenodd;fill:#A2BEC6;" points="595.1,195.8 602.25,194 625.15,194.5 621.55,195.65 	
		"/>
	<polygon style="fill-rule:evenodd;clip-rule:evenodd;fill:#88B0BA;" points="621.55,195.7 625.15,194.5 625.25,194.45 
		625.25,194.5 624.75,201.6 621.2,204.35 	"/>
	<path style="fill-rule:evenodd;clip-rule:evenodd;fill:#2E4D5D;" d="M595.1,203.85l4.25-0.5c3.134-0.3,5.4-0.416,6.801-0.35
		c2.233,0.1,7.25,0.55,15.05,1.35L595.1,203.85z"/>
	<path style="fill-rule:evenodd;clip-rule:evenodd;fill:#41748E;" d="M413.5,201.65l-0.35,8.699c-7.8-0.767-12.816-1.199-15.05-1.3
		c-1.4-0.066-3.667,0.05-6.8,0.351l-4.25,0.449v-8L413.5,201.65z"/>
	<polygon style="fill-rule:evenodd;clip-rule:evenodd;fill:#A2BEC6;" points="417.1,200.5 413.5,201.65 387.05,201.85 
		394.25,200.05 	"/>
	<polygon style="fill-rule:evenodd;clip-rule:evenodd;fill:#88B0BA;" points="417.2,200.55 416.7,207.6 413.15,210.35 413.5,201.7 
		417.1,200.5 417.2,200.5 	"/>
	<path style="fill-rule:evenodd;clip-rule:evenodd;fill:#2E4D5D;" d="M387.05,209.85l4.25-0.449c3.133-0.301,5.4-0.417,6.8-0.351
		c2.233,0.101,7.25,0.533,15.05,1.3L387.05,209.85z"/>
	<path style="fill-rule:evenodd;clip-rule:evenodd;fill:#41748E;" d="M379,334.5v-8.05l26.45-0.15l-0.3,8.7
		c-7.833-0.8-12.867-1.25-15.1-1.35c-1.4-0.067-3.667,0.05-6.8,0.35L379,334.5z"/>
	<polygon style="fill-rule:evenodd;clip-rule:evenodd;fill:#A2BEC6;" points="379,326.45 386.2,324.65 409.1,325.15 405.45,326.3 	
		"/>
	<polygon style="fill-rule:evenodd;clip-rule:evenodd;fill:#88B0BA;" points="409.15,325.15 408.65,332.25 405.15,335 
		405.45,326.35 409.1,325.15 409.15,325.1 	"/>
	<path style="fill-rule:evenodd;clip-rule:evenodd;fill:#2E4D5D;" d="M379,334.5l4.25-0.5c3.133-0.3,5.4-0.417,6.8-0.35
		c2.233,0.1,7.267,0.55,15.1,1.35L379,334.5z"/>
	<path style="fill-rule:evenodd;clip-rule:evenodd;fill:#41748E;" d="M15.05,54.7l19.35-0.1l-0.25,6.35c-5.7-0.567-9.367-0.9-11-1
		c-1.033-0.034-2.683,0.066-4.95,0.3l-3.15,0.35V54.7z"/>
	<polygon style="fill-rule:evenodd;clip-rule:evenodd;fill:#A2BEC6;" points="37.05,53.75 34.4,54.6 15.05,54.7 20.3,53.4 	"/>
	<polygon style="fill-rule:evenodd;clip-rule:evenodd;fill:#88B0BA;" points="34.4,54.6 37.05,53.75 37.1,53.7 37.1,53.75 
		36.75,58.95 34.15,60.95 	"/>
	<path style="fill-rule:evenodd;clip-rule:evenodd;fill:#2E4D5D;" d="M15.05,60.6l3.15-0.35c2.267-0.233,3.917-0.333,4.95-0.3
		c1.633,0.1,5.3,0.433,11,1L15.05,60.6z"/>
	<path style="fill-rule:evenodd;clip-rule:evenodd;fill:#41748E;" d="M146.1,174.7l-0.25,7.05c-6.367-0.634-10.45-0.983-12.25-1.05
		c-1.133-0.066-2.983,0.017-5.55,0.25l-3.45,0.399v-6.55L146.1,174.7z"/>
	<polygon style="fill-rule:evenodd;clip-rule:evenodd;fill:#A2BEC6;" points="149.05,173.75 146.1,174.7 124.6,174.8 130.45,173.4 	
		"/>
	<polygon style="fill-rule:evenodd;clip-rule:evenodd;fill:#88B0BA;" points="146.1,174.75 149.05,173.75 149.1,173.75 148.7,179.5 
		145.85,181.75 	"/>
	<path style="fill-rule:evenodd;clip-rule:evenodd;fill:#2E4D5D;" d="M145.85,181.75l-21.25-0.4l3.45-0.399
		c2.567-0.233,4.417-0.316,5.55-0.25C135.4,180.767,139.483,181.116,145.85,181.75z"/>
	<path style="fill-rule:evenodd;clip-rule:evenodd;fill:#41748E;" d="M424.15,302.35c-6.333-0.633-10.417-0.983-12.25-1.05
		c-1.133-0.066-2.967,0.017-5.5,0.25l-3.45,0.4v-6.5l21.5-0.15L424.15,302.35z"/>
	<polygon style="fill-rule:evenodd;clip-rule:evenodd;fill:#A2BEC6;" points="427.4,294.35 424.45,295.3 402.95,295.45 
		408.8,293.95 	"/>
	<polygon style="fill-rule:evenodd;clip-rule:evenodd;fill:#88B0BA;" points="424.45,295.35 427.4,294.35 427.45,294.35 
		427.05,300.1 424.15,302.35 	"/>
	<path style="fill-rule:evenodd;clip-rule:evenodd;fill:#2E4D5D;" d="M411.9,301.3c1.833,0.066,5.917,0.417,12.25,1.05l-21.2-0.399
		l3.45-0.4C408.933,301.316,410.767,301.233,411.9,301.3z"/>
	<path style="fill-rule:evenodd;clip-rule:evenodd;fill:#41748E;" d="M208.95,86.4l21.5-0.15l-0.25,7.1
		c-6.333-0.633-10.417-1-12.25-1.1c-1.133-0.067-2.967,0.017-5.5,0.25l-3.5,0.4V86.4z"/>
	<polygon style="fill-rule:evenodd;clip-rule:evenodd;fill:#A2BEC6;" points="230.5,86.25 208.95,86.4 214.8,84.95 233.4,85.3 	"/>
	<polygon style="fill-rule:evenodd;clip-rule:evenodd;fill:#88B0BA;" points="230.5,86.3 233.4,85.3 233.45,85.3 233.45,85.35 
		233.05,91.1 230.2,93.35 	"/>
	<path style="fill-rule:evenodd;clip-rule:evenodd;fill:#2E4D5D;" d="M217.95,92.25c1.833,0.1,5.917,0.467,12.25,1.1l-21.25-0.45
		l3.5-0.4C214.983,92.267,216.817,92.183,217.95,92.25z"/>
	<path style="fill-rule:evenodd;clip-rule:evenodd;fill:#41748E;" d="M268.25,269.8v-6.55l21.5-0.1l-0.25,7.05
		c-6.333-0.634-10.417-1-12.25-1.101c-1.133-0.033-2.967,0.067-5.5,0.301L268.25,269.8z"/>
	<polygon style="fill-rule:evenodd;clip-rule:evenodd;fill:#A2BEC6;" points="268.25,263.25 274.1,261.8 292.7,262.2 289.75,263.15 
			"/>
	<polygon style="fill-rule:evenodd;clip-rule:evenodd;fill:#88B0BA;" points="289.75,263.15 292.7,262.2 292.75,262.2 
		292.35,267.95 289.5,270.2 	"/>
	<path style="fill-rule:evenodd;clip-rule:evenodd;fill:#2E4D5D;" d="M268.25,269.8l3.5-0.399c2.533-0.233,4.367-0.334,5.5-0.301
		c1.833,0.101,5.917,0.467,12.25,1.101L268.25,269.8z"/>
	<path style="fill-rule:evenodd;clip-rule:evenodd;fill:#41748E;" d="M486.35,160.75l21.5-0.15l-0.25,7.1
		c-6.366-0.633-10.449-1-12.25-1.1c-1.133-0.067-2.983,0.033-5.55,0.3l-3.45,0.4V160.75z"/>
	<polygon style="fill-rule:evenodd;clip-rule:evenodd;fill:#A2BEC6;" points="510.8,159.7 507.85,160.6 486.35,160.75 492.2,159.3 	
		"/>
	<polygon style="fill-rule:evenodd;clip-rule:evenodd;fill:#88B0BA;" points="507.85,160.65 510.8,159.7 510.85,159.65 
		510.85,159.7 510.45,165.45 507.6,167.7 	"/>
	<path style="fill-rule:evenodd;clip-rule:evenodd;fill:#2E4D5D;" d="M486.35,167.3l3.45-0.4c2.566-0.267,4.417-0.367,5.55-0.3
		c1.801,0.1,5.884,0.467,12.25,1.1L486.35,167.3z"/>
	<path style="fill-rule:evenodd;clip-rule:evenodd;fill:#41748E;" d="M710.45,317.05v-6.55l21.5-0.15l-0.25,7.101
		c-6.334-0.634-10.417-1-12.25-1.101c-1.134-0.066-2.967,0.034-5.5,0.301L710.45,317.05z"/>
	<polygon style="fill-rule:evenodd;clip-rule:evenodd;fill:#A2BEC6;" points="710.45,310.5 716.3,309.05 734.9,309.45 
		731.95,310.35 	"/>
	<polygon style="fill-rule:evenodd;clip-rule:evenodd;fill:#88B0BA;" points="734.95,309.45 734.55,315.2 731.7,317.45 
		731.95,310.4 734.9,309.45 734.95,309.4 	"/>
	<path style="fill-rule:evenodd;clip-rule:evenodd;fill:#2E4D5D;" d="M710.45,317.05l3.5-0.399c2.533-0.267,4.366-0.367,5.5-0.301
		c1.833,0.101,5.916,0.467,12.25,1.101L710.45,317.05z"/>
	<path style="fill-rule:evenodd;clip-rule:evenodd;fill:#41748E;" d="M504.45,290.9v-6.551l21.5-0.1l-0.25,6.6l-0.05,0.45
		c-6.334-0.633-10.417-1-12.25-1.1c-1.134-0.033-2.967,0.066-5.5,0.3L504.45,290.9z"/>
	<polygon style="fill-rule:evenodd;clip-rule:evenodd;fill:#A2BEC6;" points="525.95,284.25 504.45,284.35 510.3,282.9 528.9,283.3 
			"/>
	<polygon style="fill-rule:evenodd;clip-rule:evenodd;fill:#88B0BA;" points="525.65,291.3 525.7,290.85 525.95,284.3 528.9,283.3 
		528.95,283.3 528.55,289.05 	"/>
	<path style="fill-rule:evenodd;clip-rule:evenodd;fill:#2E4D5D;" d="M504.45,290.9l3.45-0.4c2.533-0.233,4.366-0.333,5.5-0.3
		c1.833,0.1,5.916,0.467,12.25,1.1L504.45,290.9z"/>
	<path style="fill-rule:evenodd;clip-rule:evenodd;fill:#4D5D5C;" d="M293.15,138.7c3.367-0.133,6.35,1.45,8.95,4.75
		c1.267,1.7,1.95,3.867,2.05,6.5c0.167,2.6-0.367,4.883-1.6,6.85c-1.333,2.1-3.433,3.467-6.3,4.1c-2.567,0.567-5.2,0.45-7.9-0.35
		c-1.967-0.6-3.517-1.85-4.65-3.75c-1.1-1.867-1.633-4.083-1.6-6.65c0.066-1.233,0.233-2.417,0.5-3.55
		C283.767,141.567,287.283,138.933,293.15,138.7z M293.35,139.6c-2.867-0.167-5.233,0.5-7.1,2c-1.9,1.533-3.033,3.733-3.4,6.6
		c-0.434,3.333,0.1,6.133,1.6,8.4c1.733,2.733,4.55,4.083,8.45,4.05c3.833-0.033,6.75-1.4,8.75-4.1c1.667-2.233,2.3-4.583,1.9-7.05
		c-0.433-2.733-1.216-4.833-2.35-6.3C299.5,141,296.883,139.8,293.35,139.6z"/>
	<path style="fill-rule:evenodd;clip-rule:evenodd;fill:#738E8D;" d="M286.25,141.6c1.867-1.5,4.233-2.167,7.1-2
		c3.533,0.2,6.15,1.4,7.85,3.6c1.133,1.466,1.917,3.566,2.35,6.3c0.4,2.467-0.233,4.817-1.9,7.05c-2,2.7-4.917,4.067-8.75,4.1
		c-3.9,0.033-6.717-1.316-8.45-4.05c-1.5-2.267-2.034-5.067-1.6-8.4C283.217,145.333,284.35,143.133,286.25,141.6z M292.5,141.05
		c-2.5,0.1-4.483,1.117-5.95,3.05c-1.333,1.767-1.966,3.883-1.9,6.35c0.033,2.466,0.783,4.517,2.25,6.15
		c1.6,1.867,3.783,2.783,6.55,2.75c2.767-0.033,4.917-1.033,6.45-3c1.367-1.767,1.983-3.9,1.85-6.4s-0.967-4.6-2.5-6.3
		C297.517,141.783,295.267,140.917,292.5,141.05z"/>
	<path style="fill-rule:evenodd;clip-rule:evenodd;fill:#2E4D5D;" d="M286.55,144.1c1.467-1.934,3.45-2.95,5.95-3.05
		c2.767-0.133,5.017,0.733,6.75,2.6c1.533,1.7,2.367,3.8,2.5,6.3s-0.483,4.633-1.85,6.4c-1.533,1.967-3.683,2.967-6.45,3
		c-2.767,0.033-4.95-0.883-6.55-2.75c-1.467-1.633-2.217-3.684-2.25-6.15C284.583,147.983,285.217,145.867,286.55,144.1z
		 M299.6,145.9c-0.233-0.733-0.867-1.5-1.9-2.3c-1.1-0.833-2.05-1.233-2.85-1.2l1.2,0.8c0.867,0.633,1.5,1.25,1.9,1.85
		c0.267,0.434,0.466,1.284,0.6,2.55c0.1,0.967,0.333,1.467,0.7,1.5c0.467,0.033,0.717-0.317,0.75-1.05
		C300,147.45,299.867,146.733,299.6,145.9z"/>
	<path style="fill-rule:evenodd;clip-rule:evenodd;fill:#C3D3D8;" d="M297.95,145.05c-0.4-0.6-1.034-1.216-1.9-1.85l-1.2-0.8
		c0.8-0.033,1.75,0.367,2.85,1.2c1.033,0.8,1.667,1.566,1.9,2.3c0.267,0.833,0.4,1.55,0.4,2.15c-0.033,0.733-0.283,1.083-0.75,1.05
		c-0.367-0.033-0.6-0.533-0.7-1.5C298.417,146.333,298.217,145.483,297.95,145.05z"/>
	<path style="fill-rule:evenodd;clip-rule:evenodd;fill:#4D5D5C;" d="M293.85,169.15c3-0.133,5.75,1.2,8.25,4l0.65,0.75
		c1.167,1.467,1.85,3.466,2.05,6c0.267,2.866-0.267,5.316-1.6,7.35c-0.333,0.5-0.667,0.917-1,1.25c-1.5,1.566-3.534,2.566-6.1,3
		c-2.367,0.366-4.717,0.2-7.05-0.5c-1.966-0.566-3.533-1.816-4.7-3.75c-1.667-2.833-2.033-6.233-1.1-10.2
		c0.433-1.633,1.067-3,1.9-4.1C287.017,170.65,289.917,169.383,293.85,169.15z M294.05,170.05c-2.867-0.167-5.233,0.5-7.1,2
		c-1.9,1.534-3.05,3.733-3.45,6.601c-0.433,3.333,0.1,6.133,1.6,8.399c1.767,2.733,4.6,4.084,8.5,4.05
		c3.833-0.033,6.733-1.399,8.7-4.1c1.667-2.233,2.317-4.583,1.95-7.05c-0.433-2.7-1.217-4.8-2.35-6.3
		C300.2,171.45,297.583,170.25,294.05,170.05z"/>
	<path style="fill-rule:evenodd;clip-rule:evenodd;fill:#738E8D;" d="M302.45,180.4c-0.167-2.5-1.017-4.601-2.55-6.3
		c-1.733-1.867-3.983-2.733-6.75-2.6c-2.5,0.1-4.483,1.117-5.95,3.05c-1.333,1.767-1.967,3.867-1.9,6.3
		c0.067,2.467,0.817,4.534,2.25,6.2c1.633,1.834,3.833,2.733,6.6,2.7s4.917-1.033,6.45-3
		C301.967,185.017,302.583,182.9,302.45,180.4z M286.95,172.05c1.867-1.5,4.233-2.167,7.1-2c3.534,0.2,6.15,1.4,7.85,3.6
		c1.133,1.5,1.917,3.6,2.35,6.3c0.367,2.467-0.283,4.816-1.95,7.05c-1.966,2.7-4.867,4.066-8.7,4.1c-3.9,0.034-6.733-1.316-8.5-4.05
		c-1.5-2.267-2.033-5.066-1.6-8.399C283.9,175.783,285.05,173.583,286.95,172.05z"/>
	<path style="fill-rule:evenodd;clip-rule:evenodd;fill:#2E4D5D;" d="M296.7,173.65c0.9,0.633,1.55,1.25,1.95,1.85
		c0.267,0.433,0.467,1.283,0.6,2.55c0.1,0.967,0.333,1.467,0.7,1.5c0.466,0.033,0.716-0.316,0.75-1.05c0-0.6-0.133-1.316-0.4-2.15
		c-0.267-0.766-0.917-1.533-1.95-2.3c-1.067-0.833-2.017-1.233-2.85-1.2L296.7,173.65z M299.9,174.1c1.533,1.7,2.383,3.8,2.55,6.3
		c0.133,2.5-0.483,4.616-1.85,6.35c-1.533,1.967-3.684,2.967-6.45,3s-4.967-0.866-6.6-2.7c-1.433-1.666-2.183-3.733-2.25-6.2
		c-0.066-2.433,0.567-4.533,1.9-6.3c1.466-1.933,3.45-2.95,5.95-3.05C295.917,171.367,298.167,172.233,299.9,174.1z"/>
	<path style="fill-rule:evenodd;clip-rule:evenodd;fill:#C3D3D8;" d="M298.65,175.5c-0.4-0.6-1.05-1.217-1.95-1.85l-1.2-0.8
		c0.833-0.033,1.783,0.367,2.85,1.2c1.033,0.767,1.683,1.534,1.95,2.3c0.267,0.834,0.4,1.551,0.4,2.15
		c-0.034,0.733-0.284,1.083-0.75,1.05c-0.367-0.033-0.6-0.533-0.7-1.5C299.117,176.783,298.917,175.933,298.65,175.5z"/>
	<path style="fill-rule:evenodd;clip-rule:evenodd;fill:#4D5D5C;" d="M711.25,207.95c-0.434-2.7-1.217-4.8-2.35-6.3
		c-1.7-2.2-4.317-3.4-7.851-3.601c-2.866-0.166-5.233,0.5-7.1,2c-1.9,1.533-3.05,3.733-3.45,6.601c-0.434,3.333,0.1,6.133,1.6,8.399
		c1.767,2.733,4.601,4.084,8.5,4.05c3.834-0.033,6.733-1.399,8.7-4.1C710.967,212.767,711.616,210.417,711.25,207.95z M696.6,197.9
		c1.334-0.434,2.75-0.684,4.25-0.75c1.434-0.034,2.851,0.267,4.25,0.899c1.767,0.834,3.317,2.117,4.65,3.851
		c0.934,1.199,1.566,2.816,1.9,4.85c0.399,2.233,0.267,4.316-0.4,6.25c-0.233,0.8-0.583,1.55-1.05,2.25
		c-1.334,2.1-3.434,3.467-6.3,4.1c-2.567,0.567-5.184,0.45-7.851-0.35c-1.5-0.434-2.767-1.267-3.8-2.5c-1-1.167-1.7-2.6-2.1-4.3
		c-0.534-2.267-0.5-4.65,0.1-7.15C691.15,201.384,693.267,199,696.6,197.9z"/>
	<path style="fill-rule:evenodd;clip-rule:evenodd;fill:#738E8D;" d="M706.9,202.1c-1.733-1.866-3.983-2.75-6.75-2.649
		c-2.5,0.1-4.483,1.133-5.95,3.1c-1.334,1.767-1.967,3.867-1.9,6.3c0.066,2.467,0.816,4.534,2.25,6.2
		c1.634,1.834,3.834,2.733,6.601,2.7s4.916-1.033,6.449-3c1.367-1.733,1.983-3.85,1.851-6.35
		C709.283,205.866,708.434,203.767,706.9,202.1z M708.9,201.65c1.133,1.5,1.916,3.6,2.35,6.3c0.366,2.467-0.283,4.816-1.95,7.05
		c-1.967,2.7-4.866,4.066-8.7,4.1c-3.899,0.034-6.733-1.316-8.5-4.05c-1.5-2.267-2.033-5.066-1.6-8.399
		c0.4-2.867,1.55-5.067,3.45-6.601c1.866-1.5,4.233-2.166,7.1-2C704.583,198.25,707.2,199.45,708.9,201.65z"/>
	<path style="fill-rule:evenodd;clip-rule:evenodd;fill:#2E4D5D;" d="M700.15,199.45c2.767-0.101,5.017,0.783,6.75,2.649
		c1.533,1.667,2.383,3.767,2.55,6.301c0.133,2.5-0.483,4.616-1.851,6.35c-1.533,1.967-3.683,2.967-6.449,3s-4.967-0.866-6.601-2.7
		c-1.434-1.666-2.184-3.733-2.25-6.2c-0.066-2.433,0.566-4.533,1.9-6.3C695.667,200.583,697.65,199.55,700.15,199.45z M703.7,201.65
		c0.899,0.633,1.55,1.25,1.95,1.85c0.267,0.434,0.466,1.283,0.6,2.55c0.1,0.967,0.333,1.467,0.7,1.5
		c0.467,0.033,0.717-0.316,0.75-1.05c0-0.6-0.134-1.316-0.4-2.15c-0.267-0.767-0.916-1.533-1.95-2.3
		c-1.066-0.833-2.017-1.233-2.85-1.2L703.7,201.65z"/>
	<path style="fill-rule:evenodd;clip-rule:evenodd;fill:#C3D3D8;" d="M705.65,203.5c-0.4-0.6-1.051-1.217-1.95-1.85l-1.2-0.801
		c0.833-0.033,1.783,0.367,2.85,1.2c1.034,0.767,1.684,1.533,1.95,2.3c0.267,0.834,0.4,1.551,0.4,2.15
		c-0.033,0.733-0.283,1.083-0.75,1.05c-0.367-0.033-0.601-0.533-0.7-1.5C706.116,204.783,705.917,203.934,705.65,203.5z"/>
	<path style="fill-rule:evenodd;clip-rule:evenodd;fill:#4D5D5C;" d="M733.75,227.4c0.934,1.199,1.566,2.816,1.9,4.85
		c0.366,2.233,0.233,4.316-0.4,6.25c-0.3,0.866-0.65,1.616-1.05,2.25c-1.334,2.1-3.434,3.467-6.3,4.1
		c-2.567,0.567-5.184,0.45-7.851-0.35c-1.467-0.434-2.7-1.233-3.7-2.4c-1-1.133-1.716-2.517-2.149-4.149
		c-0.566-2.267-0.55-4.733,0.05-7.4c0.767-3.166,2.45-5.366,5.05-6.6c1.434-0.733,3.283-1.167,5.55-1.3
		c1.767-0.034,3.434,0.399,5,1.3C731.35,224.816,732.65,225.967,733.75,227.4z M733.3,240.5c1.667-2.233,2.316-4.583,1.95-7.05
		c-0.434-2.7-1.217-4.8-2.35-6.3c-1.7-2.2-4.317-3.4-7.851-3.601c-2.866-0.166-5.233,0.5-7.1,2c-1.9,1.533-3.05,3.733-3.45,6.601
		c-0.434,3.333,0.1,6.133,1.6,8.399c1.767,2.733,4.601,4.084,8.5,4.05C728.434,244.566,731.333,243.2,733.3,240.5z"/>
	<path style="fill-rule:evenodd;clip-rule:evenodd;fill:#738E8D;" d="M735.25,233.45c0.366,2.467-0.283,4.816-1.95,7.05
		c-1.967,2.7-4.866,4.066-8.7,4.1c-3.899,0.034-6.733-1.316-8.5-4.05c-1.5-2.267-2.033-5.066-1.6-8.399
		c0.4-2.867,1.55-5.067,3.45-6.601c1.866-1.5,4.233-2.166,7.1-2c3.533,0.2,6.15,1.4,7.851,3.601
		C734.033,228.65,734.816,230.75,735.25,233.45z M731.6,240.25c1.367-1.733,1.983-3.85,1.851-6.35
		c-0.167-2.534-1.017-4.634-2.55-6.301c-1.733-1.866-3.983-2.75-6.75-2.649c-2.5,0.1-4.483,1.133-5.95,3.1
		c-1.334,1.767-1.967,3.867-1.9,6.3c0.066,2.467,0.816,4.534,2.25,6.2c1.634,1.834,3.834,2.733,6.601,2.7
		S730.066,242.217,731.6,240.25z"/>
	<path style="fill-rule:evenodd;clip-rule:evenodd;fill:#2E4D5D;" d="M730.9,227.6c1.533,1.667,2.383,3.767,2.55,6.301
		c0.133,2.5-0.483,4.616-1.851,6.35c-1.533,1.967-3.683,2.967-6.449,3s-4.967-0.866-6.601-2.7c-1.434-1.666-2.184-3.733-2.25-6.2
		c-0.066-2.433,0.566-4.533,1.9-6.3c1.467-1.967,3.45-3,5.95-3.1C726.917,224.85,729.167,225.733,730.9,227.6z M731.3,229.85
		c-0.267-0.767-0.916-1.533-1.95-2.3c-1.066-0.833-2.017-1.233-2.85-1.2l1.2,0.801c0.899,0.633,1.55,1.25,1.95,1.85
		c0.267,0.434,0.466,1.283,0.6,2.55c0.1,0.967,0.333,1.467,0.7,1.5c0.467,0.033,0.717-0.316,0.75-1.05
		C731.7,231.4,731.566,230.684,731.3,229.85z"/>
	<path style="fill-rule:evenodd;clip-rule:evenodd;fill:#C3D3D8;" d="M729.35,227.55c1.034,0.767,1.684,1.533,1.95,2.3
		c0.267,0.834,0.4,1.551,0.4,2.15c-0.033,0.733-0.283,1.083-0.75,1.05c-0.367-0.033-0.601-0.533-0.7-1.5
		c-0.134-1.267-0.333-2.116-0.6-2.55c-0.4-0.6-1.051-1.217-1.95-1.85l-1.2-0.801C727.333,226.316,728.283,226.717,729.35,227.55z"/>
</g>
</svg>
