<?xml version="1.0" encoding="iso-8859-1"?>
<!-- Generator: Adobe Illustrator 15.1.0, SVG Export Plug-In . SVG Version: 6.00 Build 0)  -->
<!DOCTYPE svg PUBLIC "-//W3C//DTD SVG 1.1//EN" "http://www.w3.org/Graphics/SVG/1.1/DTD/svg11.dtd">
<svg version="1.1" id="stairs_x5F_blue_x5F_railing.ai"
	 xmlns="http://www.w3.org/2000/svg" xmlns:xlink="http://www.w3.org/1999/xlink" x="0px" y="0px" width="117.85px" height="73.5px"
	 viewBox="0 0 117.85 73.5" style="enable-background:new 0 0 117.85 73.5;" xml:space="preserve">
<g>
	<polygon style="fill-rule:evenodd;clip-rule:evenodd;fill:#2E4D5D;" points="50.4,26.1 45.65,26.7 26.85,20.4 27.9,17.85 	"/>
	<polygon style="fill-rule:evenodd;clip-rule:evenodd;fill:#2E4D5D;" points="80.55,34.15 80.55,34.2 60.3,30.4 61.15,28.35 
		86.6,33.05 	"/>
	<polygon style="fill-rule:evenodd;clip-rule:evenodd;fill:#2E4D5D;" points="97.1,37.5 98.05,35.2 108.2,37.05 102.2,38.65 	"/>
	<polygon style="fill-rule:evenodd;clip-rule:evenodd;fill:#49828D;" points="45.55,26.7 45.65,26.7 50.4,26.1 50.05,39.7 
		42.45,57.95 35.85,56.35 47.75,38.6 	"/>
	<polygon style="fill-rule:evenodd;clip-rule:evenodd;fill:#49828D;" points="86.6,33.05 86.2,48.4 77.65,68.9 71.95,66.8 
		83.2,47.45 80.55,34.2 80.55,34.15 	"/>
	<polygon style="fill-rule:evenodd;clip-rule:evenodd;fill:#2E4D5D;" points="3.35,8.8 16.3,14 12.85,15 0,10.3 	"/>
	<polygon style="fill-rule:evenodd;clip-rule:evenodd;fill:#49828D;" points="13.9,30.95 12.85,15 16.3,14 15.85,31.5 7.65,51.2 
		3.6,50.65 	"/>
	<polygon style="fill-rule:evenodd;clip-rule:evenodd;fill:#49828D;" points="5.45,0 3.35,8.8 0,10.3 0.55,1.95 	"/>
	<path style="fill-rule:evenodd;clip-rule:evenodd;fill:#6397A3;" d="M117.85,26.95l-9.649,10.1L98.05,35.2L91.65,50.6l-2.9,22.9
		c-3.134-1.4-6.517-2.8-10.15-4.2h-0.05L77.65,68.9l8.55-20.5L86.6,33.05l-25.449-4.7l-5.65,13.6L53.1,60.8
		c-3.5-1-7.05-1.95-10.65-2.85l7.6-18.25l0.35-13.6l-22.5-8.25l-6.65,15.9l-2.4,19.2c-4.033-0.7-7.767-1.283-11.2-1.75l8.2-19.7
		L16.3,14L3.35,8.8L5.45,0L53.4,15.65L117.85,26.95z"/>
</g>
</svg>
