<?xml version="1.0" encoding="iso-8859-1"?>
<!-- Generator: Adobe Illustrator 15.1.0, SVG Export Plug-In . SVG Version: 6.00 Build 0)  -->
<!DOCTYPE svg PUBLIC "-//W3C//DTD SVG 1.1//EN" "http://www.w3.org/Graphics/SVG/1.1/DTD/svg11.dtd">
<svg version="1.1" id="stairs_x5F_blue_x5F_03.ai" xmlns="http://www.w3.org/2000/svg" xmlns:xlink="http://www.w3.org/1999/xlink"
	 x="0px" y="0px" width="417.8px" height="154.65px" viewBox="0 0 417.8 154.65" style="enable-background:new 0 0 417.8 154.65;"
	 xml:space="preserve">
<g>
	<path style="fill-rule:evenodd;clip-rule:evenodd;fill:#A2BEC6;" d="M391.85,0l25.95,10.4l-42.2,9.05L311.95,16.1L261.2,4.05
		L304.35,2.2c29.867-1.233,47.584-1.85,53.15-1.85C366.434,0.35,377.884,0.233,391.85,0z"/>
	<path style="fill-rule:evenodd;clip-rule:evenodd;fill:#2E4D5D;" d="M207.9,140.2c1.433,1.767,1.734,3.2,0.9,4.3
		c-0.666,0.866-2.383,1.783-5.15,2.75c-2.066,0.733-4.816,1.283-8.25,1.65l-4.55,0.35c-0.467,0.5-1.117,1.033-1.95,1.6
		c-1.7,1.134-3.483,1.867-5.35,2.2c-1.867,0.3-4.017-0.066-6.45-1.1l-3.1-1.7c-0.7,0.434-1.567,0.85-2.6,1.25
		c-2.033,0.833-3.85,1.25-5.45,1.25c-1.567,0-3.717-0.7-6.45-2.1l-3.6-2.15c-0.733,0.6-1.65,1.2-2.75,1.8
		c-2.167,1.267-4.1,2-5.8,2.2c-1.667,0.233-3.417-0.2-5.25-1.3l-2.25-1.7c-0.434,0.434-1.05,0.866-1.85,1.3
		c-1.6,0.934-3.333,1.5-5.2,1.7c-1.867,0.233-4.15-0.233-6.85-1.4l-3.45-1.85l-3.45,2.4c-2.767,1.6-5.3,2.399-7.6,2.399
		c-2.3,0-4.333-0.583-6.1-1.75l-1.95-1.8c-2.167,1.7-3.667,2.55-4.5,2.55c-0.533,0-2.083-0.217-4.65-0.649l-3.65-0.65
		c-1.667,1.366-3.517,2.3-5.55,2.8c-1.233,0.3-3.367-0.033-6.4-1L74.5,152c-1.833,0.5-3.75,1.1-5.75,1.8
		c-2.033,0.667-7.817,0.917-17.35,0.75l-50.5-19.1v-1.75c34,0.467,68.133,1.083,102.4,1.85
		C171.767,137.083,206.633,138.634,207.9,140.2z"/>
	<path style="fill-rule:evenodd;clip-rule:evenodd;fill:#49828D;" d="M321.75,31.4c0.366,0.233-11.05,8.333-34.25,24.3
		c-23.2,15.933-38.833,26.434-46.9,31.5c-6.699,4.2-23.85,13.283-51.45,27.25c-13.763,6.965-26.763,13.465-39,19.5
		c0.734-0.391-11.566,0.693-36.9,3.25c-25.3,2.533-39.217,4.55-41.75,6.05c-4.033,2.333-10.467,5.583-19.3,9.75L0.9,133.7L0,123.75
		l22.75,3.65l-2.5-11.65l20.35,2.85L39,104.8l22.2,3.25L59.25,94.8l24.3,4.2l-1-12.3l18.1,2L99.7,75.9l20.8,3.5l3.25-12.05
		l19.85,3.5l-1.9-13.7l19.5,2.65l3.25-11.2l18.6,2.65l-1.5-13.55l21.6,3.5l-0.7-11.75l21.3,3.75l-1.55-12.75L243.1,24.9L242.95,9.4
		l18,2.4l0.25-7.75l50.75,12.05C317.983,25.967,321.25,31.067,321.75,31.4z"/>
	<path style="fill-rule:evenodd;clip-rule:evenodd;fill:#6397A3;" d="M417.8,45.55c-10.833-1.233-23.083-1.95-36.75-2.15
		c-27.366-0.467-48.166,1.817-62.399,6.85c-8.5,3-19.15,8.117-31.95,15.35c-12.667,7.167-24.717,14.867-36.15,23.1
		c-12.3,8.866-21.55,16.684-27.75,23.45c-6.967,7.699-9.184,13.199-6.649,16.5c3.366,4.433,2.449,8.55-2.75,12.35
		c-3.601,2.6-8.101,4.517-13.5,5.75c-2.467,0.566-4.967,0.733-7.5,0.5l-3.05-0.5c-0.567,0.967-1.317,1.884-2.25,2.75
		c-1.9,1.733-3.833,2.316-5.8,1.75c-1.966-0.533-3.733-1.366-5.3-2.5l-1.75-1.5c-1.033,0.767-2.2,1.483-3.5,2.15
		c-2.633,1.333-4.65,1.783-6.05,1.35c-1.4-0.4-3.417-1.517-6.05-3.35l-3.5-2.65c-0.967,1.4-2.1,2.7-3.4,3.9
		c-2.567,2.366-4.617,3.066-6.15,2.1s-2.9-2.434-4.1-4.4l-1.4-2.6c-0.833,1.533-1.883,2.95-3.15,4.25c-2.5,2.634-4.8,3.384-6.9,2.25
		l-8.55-4.5l-3.65,4c-2.833,2.533-5.3,3.366-7.4,2.5c-2.1-0.833-3.9-2.25-5.4-4.25l-1.65-2.75l-1.5,3.25
		c-1.433,2.066-3.283,2.816-5.55,2.25c-2.233-0.566-3.983-1.65-5.25-3.25l-1.25-2.25l-2.25,4.15c-1.967,2.6-4.067,3.55-6.3,2.85
		c-2.233-0.7-4.083-1.65-5.55-2.85l-1.5-1.65l-3.65,2.8c-2.867,1.867-5.383,2.75-7.55,2.65L52.2,153l1.45-11.8l11.55,0.5l0.9-10.7
		l25.15,2.5l1.45-11l20.9-0.4l0.35-9.649l21.7,0.7l0.9-9l20.1,0.55l-0.8-11.2l22.8-1.25l-0.35-7.5l19.85-1.45l-0.45-8.25l17.45-1.35
		l0.05-9.95l22.1-1.45l1.3-7l15.95-1l-0.05-9.4l18.6-0.35l3.351-8.45l16.899-0.6l2.2-9.7l16.4,0.35V16.1l105.85-6.05V45.55z"/>
	<polygon style="fill-rule:evenodd;clip-rule:evenodd;fill:#A2BEC6;" points="53.65,141.2 0,123.75 22.75,127.4 65.2,141.7 	"/>
	<polygon style="fill-rule:evenodd;clip-rule:evenodd;fill:#A2BEC6;" points="40.6,117.85 91.7,133.95 66.2,131.05 20.25,115.75 	
		"/>
	<polygon style="fill-rule:evenodd;clip-rule:evenodd;fill:#A2BEC6;" points="60.95,107.05 113.7,122 93.35,122.3 39,104.8 	"/>
	<polygon style="fill-rule:evenodd;clip-rule:evenodd;fill:#A2BEC6;" points="113.95,112.3 59.25,94.8 83.55,97.5 135.65,113.15 	
		"/>
	<polygon style="fill-rule:evenodd;clip-rule:evenodd;fill:#A2BEC6;" points="100.65,87.95 156.15,104.85 136.55,104.05 81.5,86.45 
			"/>
	<polygon style="fill-rule:evenodd;clip-rule:evenodd;fill:#A2BEC6;" points="120.75,77.9 177.6,93.15 155.15,93.5 99.7,75.9 	"/>
	<polygon style="fill-rule:evenodd;clip-rule:evenodd;fill:#A2BEC6;" points="178.25,84.8 122.5,67.2 143.1,69.35 198.05,83.75 	"/>
	<polygon style="fill-rule:evenodd;clip-rule:evenodd;fill:#A2BEC6;" points="197.85,74.8 141.7,57.15 161.7,58.05 215.85,73.75 	
		"/>
	<polygon style="fill-rule:evenodd;clip-rule:evenodd;fill:#A2BEC6;" points="215.45,64 164.45,48.6 182.8,50 237.55,62.3 	"/>
	<polygon style="fill-rule:evenodd;clip-rule:evenodd;fill:#A2BEC6;" points="202.9,37.7 254.65,54.3 238.6,55.3 180.7,37.55 	"/>
	<polygon style="fill-rule:evenodd;clip-rule:evenodd;fill:#A2BEC6;" points="255,44.9 202.45,29.45 223.25,31.15 273.1,44.55 	"/>
	<polygon style="fill-rule:evenodd;clip-rule:evenodd;fill:#A2BEC6;" points="276.45,35.85 222.2,20.45 242.85,22.9 293.85,35.5 	
		"/>
	<polygon style="fill-rule:evenodd;clip-rule:evenodd;fill:#A2BEC6;" points="311.95,26.15 295.55,25.8 242.95,9.4 260.95,11.3 	"/>
	<g>
		<polygon style="fill-rule:evenodd;clip-rule:evenodd;fill:#448CA0;" points="65.95,132.85 66.1,131 88.35,133.2 		"/>
		<path style="fill-rule:evenodd;clip-rule:evenodd;fill:#448CA0;" d="M218.65,117.25c-3.601,5.1-4.434,8.9-2.5,11.4
			c1.699,2.267,2.283,4.466,1.75,6.6l-126.601-2l1.4-10.75l20.9-0.4l0.05-1.25L218.65,117.25z"/>
		<path style="fill-rule:evenodd;clip-rule:evenodd;fill:#448CA0;" d="M239.75,96.85c-4.634,3.667-8.55,7.034-11.75,10.101
			l-91.95,2.35l0.5-5.149l20.1,0.55l-0.55-7.851H239.75z"/>
		<path style="fill-rule:evenodd;clip-rule:evenodd;fill:#78A8C3;" d="M288.7,64.5c-7.8,4.367-15.884,9.267-24.25,14.7L198,81.05
			l-0.3-6l17.45-1.35l0.05-9.95L288.7,64.5z"/>
		<path style="fill-rule:evenodd;clip-rule:evenodd;fill:#448CA0;" d="M417.8,24.15v17.4l-39.6,1.8c-12.967-0.1-24.4,0.433-34.3,1.6
			L254.5,49v-4.1l18.6-0.35l3.351-8.45l16.899-0.6l1.45-6.55L417.8,24.15z"/>
	</g>
	<g>
		<polygon style="fill-rule:evenodd;clip-rule:evenodd;fill:#6397A3;" points="140.6,139.35 114.5,139.9 114.15,131 140.6,131.35 		
			"/>
		<polygon style="fill-rule:evenodd;clip-rule:evenodd;fill:#A2BEC6;" points="133.4,129.55 140.6,131.35 114.15,131.15 110.45,130 
					"/>
		<polygon style="fill-rule:evenodd;clip-rule:evenodd;fill:#49828D;" points="110.45,130 114.15,131.2 114.5,139.9 110.95,137.1 		
			"/>
		<path style="fill-rule:evenodd;clip-rule:evenodd;fill:#2E4D5D;" d="M129.55,138.55c2.233-0.133,5.917,0.134,11.05,0.8
			l-26.1,0.551l6.25-0.601C125.217,138.866,128.15,138.616,129.55,138.55z"/>
	</g>
	<g>
		<polygon style="fill-rule:evenodd;clip-rule:evenodd;fill:#6397A3;" points="406.6,27.5 380.45,28 380.15,19.1 406.6,19.45 		"/>
		<polygon style="fill-rule:evenodd;clip-rule:evenodd;fill:#A2BEC6;" points="380.15,19.3 376.45,18.15 399.4,17.65 406.6,19.45 		
			"/>
		<polygon style="fill-rule:evenodd;clip-rule:evenodd;fill:#49828D;" points="376.45,18.1 380.15,19.35 380.45,28 376.95,25.2 		
			"/>
		<path style="fill-rule:evenodd;clip-rule:evenodd;fill:#2E4D5D;" d="M380.45,28l6.3-0.6c4.467-0.433,7.4-0.683,8.8-0.75
			c2.233-0.1,5.917,0.184,11.05,0.85L380.45,28z"/>
	</g>
	<g>
		<polygon style="fill-rule:evenodd;clip-rule:evenodd;fill:#6397A3;" points="371.75,36.3 352.6,36.65 352.35,30.15 371.75,30.4 		
			"/>
		<polygon style="fill-rule:evenodd;clip-rule:evenodd;fill:#A2BEC6;" points="366.5,29.1 371.75,30.4 352.35,30.25 349.65,29.45 		
			"/>
		<polygon style="fill-rule:evenodd;clip-rule:evenodd;fill:#49828D;" points="349.65,29.4 352.35,30.3 352.6,36.65 350,34.65 		"/>
		<path style="fill-rule:evenodd;clip-rule:evenodd;fill:#2E4D5D;" d="M352.6,36.65l11.051-0.95c1.633-0.1,4.333,0.1,8.1,0.6
			L352.6,36.65z"/>
	</g>
</g>
</svg>
