<?xml version="1.0" encoding="iso-8859-1"?>
<!-- Generator: Adobe Illustrator 15.1.0, SVG Export Plug-In . SVG Version: 6.00 Build 0)  -->
<!DOCTYPE svg PUBLIC "-//W3C//DTD SVG 1.1//EN" "http://www.w3.org/Graphics/SVG/1.1/DTD/svg11.dtd">
<svg version="1.1" id="stairs_x5F_blue_x5F_06.ai" xmlns="http://www.w3.org/2000/svg" xmlns:xlink="http://www.w3.org/1999/xlink"
	 x="0px" y="0px" width="409.5px" height="135.95px" viewBox="0 0 409.5 135.95" style="enable-background:new 0 0 409.5 135.95;"
	 xml:space="preserve">
<g>
	<path style="fill-rule:evenodd;clip-rule:evenodd;fill:#88B0BA;" d="M346.6,93.55l22.15,0.05l0.1,9l20.301,0.101l-1.4,9.25
		l21.75-0.15l-0.55,9.351L358.35,135.55L283.1,115.2l-114.95-56c-5.533-2.367-11.083-4.75-16.65-7.15
		c-11.1-4.833-16.717-7.4-16.85-7.7c-0.2-0.434-1.717-7.4-4.55-20.9l75.85-3.9l0.1,10.25l19.4,0.35l0.8,9L246.5,39l0.15,8.8
		l20.25,0.3l-0.851,9.05l21.2,0.05l-1.3,9.15l21.7-0.05l-0.851,9.55L328,75.4l-2.95,9.6l23.351-0.5L346.6,93.55z"/>
	<path style="fill-rule:evenodd;clip-rule:evenodd;fill:#A2BEC6;" d="M123.9,29.95c-13-1.034-25.783-2.534-38.35-4.5
		c-19-2.967-47.35-8.1-85.05-15.4L31.3,0l174.65,19.55l-66.3,11.35C135.65,30.767,130.4,30.45,123.9,29.95z"/>
	<g>
		<polygon style="fill-rule:evenodd;clip-rule:evenodd;fill:#A2BEC6;" points="225.45,30.15 163,42 140.9,43 206.05,29.8 		"/>
		<polygon style="fill-rule:evenodd;clip-rule:evenodd;fill:#A2BEC6;" points="183.75,51.55 160.6,52.65 226.25,39.15 246.5,39 		
			"/>
		<polygon style="fill-rule:evenodd;clip-rule:evenodd;fill:#A2BEC6;" points="266.9,48.1 206.65,60.1 182.5,60.9 246.65,47.8 		"/>
		<polygon style="fill-rule:evenodd;clip-rule:evenodd;fill:#A2BEC6;" points="287.25,57.2 228.05,69.85 206.1,70.3 266.35,57.35 		
			"/>
		<polygon style="fill-rule:evenodd;clip-rule:evenodd;fill:#A2BEC6;" points="307.65,66.3 252.8,79.65 227.8,79.45 292.25,65.35 		
			"/>
		<polygon style="fill-rule:evenodd;clip-rule:evenodd;fill:#A2BEC6;" points="249.5,89.95 307,76.05 328,75.4 272.65,89.5 		"/>
		<polygon style="fill-rule:evenodd;clip-rule:evenodd;fill:#A2BEC6;" points="348.4,84.5 292.9,98.35 271.1,98.5 325.55,85 		"/>
		<polygon style="fill-rule:evenodd;clip-rule:evenodd;fill:#A2BEC6;" points="368.75,93.6 313.45,107.85 292,108.35 346.8,93.4 		
			"/>
		<polygon style="fill-rule:evenodd;clip-rule:evenodd;fill:#A2BEC6;" points="389.15,102.7 333.65,118.4 313.85,117.9 
			368.85,102.6 		"/>
		<polygon style="fill-rule:evenodd;clip-rule:evenodd;fill:#A2BEC6;" points="336.5,125 388.05,111.8 409.5,111.8 358.1,125.5 		
			"/>
	</g>
	<path style="fill-rule:evenodd;clip-rule:evenodd;fill:#6397A3;" d="M336.65,117.95L336.5,125l21.6,0.5l0.25,10.05
		c-7.366,0.634-20.949,0.55-40.75-0.25l-27.55-1.35c-5.767-3.967-13.033-8.717-21.8-14.25c-17.5-11.066-33.7-20.55-48.6-28.45
		c-25.833-13.7-49.7-24.167-71.601-31.4C112.517,48.15,87,46.833,71.5,55.9c-5.3,3.1-18.817-0.267-40.55-10.1
		C20.117,40.9,9.8,35.683,0,30.15l0.5-20.1L106.4,28.7l33.25,2.2L140.9,43l22.1-1l0.25,10.55l20.65-1l-0.7,9l23.649-0.95l0.25,10.6
		l23.65-1L231,79.3h22.1L252.9,89.35l20.6-0.5l0.3,9.551L294.4,97.85l0.8,9.601l20.6-0.05l0.25,9.55L336.65,117.95z"/>
	<g>
		<polygon style="fill-rule:evenodd;clip-rule:evenodd;fill:#448CA0;" points="173.85,52.05 173.95,52.45 171.25,52.15 		"/>
		<path style="fill-rule:evenodd;clip-rule:evenodd;fill:#448CA0;" d="M163,42l0.25,9.3c-40.7-4.4-69.75-7.133-87.15-8.2
			c-16.567-1.033-40.517-4.583-71.85-10.65L0,30.15l0.25-11.1c78.133,12,123.517,18,136.15,18h3.9l0.6,5.95L163,42z"/>
		<path style="fill-rule:evenodd;clip-rule:evenodd;fill:#448CA0;" d="M183.7,54.45l-0.5,6.1l23.649-0.95l0.15,7.75l-37.15,0.55
			c-13.133-5.3-25.467-9.483-37-12.55L183.7,54.45z"/>
		<path style="fill-rule:evenodd;clip-rule:evenodd;fill:#448CA0;" d="M70.2,56.5c-1.967,0.633-4.667,0.683-8.1,0.15L70.2,56.5z"/>
		<path style="fill-rule:evenodd;clip-rule:evenodd;fill:#78A8C3;" d="M253.1,79.3l-0.1,4.75l-46.1,0.65
			c-9.134-4.533-17.25-8.351-24.351-11.45l48.25-1.3l0.2,7.35H253.1z"/>
		<path style="fill-rule:evenodd;clip-rule:evenodd;fill:#448CA0;" d="M273.55,89.95l0.25,8.45L294.4,97.85l0.3,3.801l-53.5,1.6
			c-7.233-4.2-14.417-8.2-21.55-12l-0.301-0.15L273.55,89.95z"/>
		<polygon style="fill-rule:evenodd;clip-rule:evenodd;fill:#78A8C3;" points="315.8,107.55 316.05,116.95 330.85,117.65 
			266.45,118.55 251.35,109.25 		"/>
		<path style="fill-rule:evenodd;clip-rule:evenodd;fill:#448CA0;" d="M358.1,125.5l0.25,10.05c-7.366,0.634-20.949,0.55-40.75-0.25
			l-27.55-1.35c-3.233-2.2-7.483-5.017-12.75-8.45H358.1z"/>
		<g>
			<polygon style="fill-rule:evenodd;clip-rule:evenodd;fill:#41748E;" points="52.8,25.65 52.5,34.55 26.35,34.05 26.35,26 			"/>
			<polygon style="fill-rule:evenodd;clip-rule:evenodd;fill:#A2BEC6;" points="52.8,25.85 26.35,26 33.55,24.2 56.55,24.7 			"/>
			<polygon style="fill-rule:evenodd;clip-rule:evenodd;fill:#88B0BA;" points="56.5,24.65 56,31.8 52.5,34.55 52.8,25.9 			"/>
			<path style="fill-rule:evenodd;clip-rule:evenodd;fill:#2E4D5D;" d="M37.4,33.2c2.267,0.133,7.3,0.583,15.1,1.35l-26.15-0.5
				l4.25-0.5C33.733,33.25,36,33.133,37.4,33.2z"/>
		</g>
		<g>
			<polygon style="fill-rule:evenodd;clip-rule:evenodd;fill:#41748E;" points="47.95,42.05 66.7,41.85 66.45,48.1 47.95,47.75 			
				"/>
			<polygon style="fill-rule:evenodd;clip-rule:evenodd;fill:#A2BEC6;" points="47.95,42.05 53.05,40.8 69.35,41.15 66.7,41.95 			
				"/>
			<polygon style="fill-rule:evenodd;clip-rule:evenodd;fill:#88B0BA;" points="69.3,41.1 68.95,46.15 66.45,48.1 66.7,42 			"/>
			<path style="fill-rule:evenodd;clip-rule:evenodd;fill:#2E4D5D;" d="M47.95,47.75L51,47.4c2.2-0.2,3.8-0.283,4.8-0.25
				c1.567,0.1,5.117,0.417,10.65,0.95L47.95,47.75z"/>
		</g>
		<g>
			<polygon style="fill-rule:evenodd;clip-rule:evenodd;fill:#41748E;" points="297.55,122.65 318.85,122.35 318.6,129.5 
				297.55,129.1 			"/>
			<polygon style="fill-rule:evenodd;clip-rule:evenodd;fill:#A2BEC6;" points="297.55,122.65 303.35,121.2 321.85,121.6 
				318.85,122.5 			"/>
			<polygon style="fill-rule:evenodd;clip-rule:evenodd;fill:#88B0BA;" points="321.85,121.55 321.45,127.3 318.6,129.5 
				318.85,122.55 			"/>
			<path style="fill-rule:evenodd;clip-rule:evenodd;fill:#2E4D5D;" d="M297.55,129.1L301,128.7c2.5-0.233,4.316-0.316,5.45-0.25
				c1.8,0.1,5.85,0.45,12.149,1.05L297.55,129.1z"/>
		</g>
	</g>
</g>
</svg>
