<?xml version="1.0" encoding="iso-8859-1"?>
<!-- Generator: Adobe Illustrator 15.1.0, SVG Export Plug-In . SVG Version: 6.00 Build 0)  -->
<!DOCTYPE svg PUBLIC "-//W3C//DTD SVG 1.1//EN" "http://www.w3.org/Graphics/SVG/1.1/DTD/svg11.dtd">
<svg version="1.1" id="stairs_x5F_blue_x5F_05_x5F_a.ai"
	 xmlns="http://www.w3.org/2000/svg" xmlns:xlink="http://www.w3.org/1999/xlink" x="0px" y="0px" width="557.95px" height="92.6px"
	 viewBox="0 0 557.95 92.6" style="enable-background:new 0 0 557.95 92.6;" xml:space="preserve">
<g>
	<path style="fill-rule:evenodd;clip-rule:evenodd;fill:#A2BEC6;" d="M557.95,30.55v0.15c-11.767-3.767-53.05-5.617-123.851-5.55
		c-64.5,0.067-114.933,1.317-151.3,3.75c-26.133,1.733-73.216,1.317-141.25-1.25c-34.033-1.267-65.45-2.717-94.25-4.35L0,4.15
		c118.6,1.333,191.967,2.333,220.1,3c16.066,0.367,40.566-0.55,73.5-2.75c38.801-2.6,62.534-4.017,71.2-4.25
		c15.367-0.4,34.667,0.15,57.9,1.65c24.934,1.567,38.467,2.35,40.6,2.35c7.9,0,23.75,3.333,47.55,10
		C534.55,20.75,550.25,26.217,557.95,30.55z"/>
	<path style="fill-rule:evenodd;clip-rule:evenodd;fill:#49828D;" d="M548,75.55l9.95,4.3V92.6c-8.3-5.333-17.634-10.066-28-14.199
		c-7.9-3.167-18.733-6.817-32.5-10.95c-9.033-2.7-18.884-5.5-29.55-8.4c0.166,0.033,0.433,0.05,0.8,0.05l13.5,1.4
		c21.866,2.566,40.916,6.533,57.149,11.9L548,75.55z"/>
	<path style="fill-rule:evenodd;clip-rule:evenodd;fill:#49828D;" d="M90.75,67.55l1,0.2c1.2,0.3,2.45,0.55,3.75,0.75h-0.35
		C81.083,67.267,66.8,63.55,52.3,57.35C40.467,52.283,31.317,46.967,24.85,41.4c-6-5.133-11.934-12.883-17.8-23.25
		C4.083,12.983,1.733,8.317,0,4.15L47.3,23.3l0.1,1.65c0.1,1.433,0.317,2.933,0.65,4.5l1.05,4.05l3.3,7.85
		c2.233,4.167,5.05,7.883,8.45,11.15l6.45,5.3l3.05,1.9c0.933,0.6,1.783,1.083,2.55,1.45L80,64.35L90.75,67.55z"/>
	<path style="fill-rule:evenodd;clip-rule:evenodd;fill:#6397A3;" d="M136.95,70.15c-19.167,0.333-32.917-0.2-41.25-1.601
		c12.167,0.3,47.05-0.083,104.65-1.149C173.483,68.967,152.35,69.884,136.95,70.15z"/>
	<path style="fill-rule:evenodd;clip-rule:evenodd;fill:#6397A3;" d="M557.95,30.7V34c-42.066-2.933-67.367-4.4-75.9-4.4
		c-7.866,0-39.267,0.833-94.2,2.5c-60.933,1.933-99.216,3.117-114.85,3.55c-24.633,0.7-84.917-0.8-180.85-4.5l-2.45-0.6l-8.75,0.2
		l-32.9-1.3c-0.333-1.567-0.55-3.067-0.65-4.5l-0.1-1.65c28.8,1.633,60.217,3.083,94.25,4.35
		c68.034,2.567,115.117,2.983,141.25,1.25c36.367-2.433,86.8-3.683,151.3-3.75C504.9,25.083,546.184,26.933,557.95,30.7z"/>
	<path style="fill-rule:evenodd;clip-rule:evenodd;fill:#6397A3;" d="M551.75,44.35v-0.8l6.2,0.45v6.4l-20.25-0.95V49.2l-6.2-1.55
		l-19.7,0.399L511.7,48v0.05l0.05,0.2c-44.167-1.933-71.033-2.783-80.6-2.55c-5.034,0.133-29.434,0.95-73.2,2.45
		c-45.634,1.533-80.567,2.633-104.8,3.3l-6-1.45l-20.7,0.4l0.1,1.699L210.7,52.4c-30.4,0.399-80.367,0.416-149.9,0.05
		c-3.377-3.254-6.178-6.955-8.4-11.1c36.333,2.5,61.85,3.95,76.55,4.35c18.133,0.433,41.816,0.65,71.05,0.65
		c35.433,0.033,59.1-0.4,71-1.3c12.533-0.966,45.45-2.233,98.75-3.8C420.783,39.75,453.533,39,468,39c9.533,0,29.8,1.017,60.8,3.05
		l0.05,0.55l2.7,2.15L551.75,44.35z"/>
	<path style="fill-rule:evenodd;clip-rule:evenodd;fill:#6397A3;" d="M557.95,63.1v9.25l-19.65-0.3
		c-14.875-4.821-32.075-8.488-51.6-11L557.95,63.1z"/>
	<path style="fill-rule:evenodd;clip-rule:evenodd;fill:#448CA0;" d="M557.95,34v10l-6.2-0.45v-5.4l-5.55-1.4l-17.65,0.4l-0.1-0.05
		v0.05l0.35,4.9C497.8,40.017,477.533,39,468,39c-14.467,0-47.217,0.75-98.25,2.25c-53.3,1.567-86.217,2.833-98.75,3.8
		c-11.9,0.9-35.567,1.333-71,1.3c-29.233,0-52.917-0.217-71.05-0.65c-14.7-0.4-40.217-1.85-76.55-4.35l-3.3-7.85l-1.05-4.05
		l32.9,1.3L69.05,31L69,30.95V31l0.45,6.4l3.15,2.5l23.6-0.45v-7.3l-4.05-1c95.934,3.7,156.217,5.2,180.85,4.5
		c15.634-0.433,53.917-1.617,114.85-3.55c54.934-1.667,86.334-2.5,94.2-2.5C490.583,29.6,515.884,31.067,557.95,34z"/>
	<path style="fill-rule:evenodd;clip-rule:evenodd;fill:#78A8C3;" d="M512.15,54.15l3.05,2.399l22.5-0.45V49.45l20.25,0.95V63.1
		L486.6,61.05L468.7,59.1c-0.367,0-0.634-0.017-0.8-0.05l-8.2-0.649c-2.867-0.2-5.117-0.334-6.75-0.4l-32.75-0.95L383,57.5
		l-60.55,2.55c-1.167,0.033-2.8,0.117-4.9,0.25l-2.899,0.15c-2.667,0.133-4.667,0.25-6,0.35l-24.15,1.4
		c-1.767,0.133-3.134,0.217-4.1,0.25l-1.95,0.149c-35.767,2.267-61.784,3.867-78.05,4.801h-0.05
		c-57.6,1.066-92.483,1.449-104.65,1.149l-0.2-0.05c-1.3-0.2-2.55-0.45-3.75-0.75l-4.3-1L80,64.35l-7.1-3.199
		c-0.767-0.367-1.617-0.851-2.55-1.45l-3.05-1.9l-6.5-5.35c69.534,0.366,119.5,0.35,149.9-0.05l15.85-0.301l0.35,4.7l3.15,2.5
		l23.6-0.45V51.6l-0.5-0.149c24.233-0.667,59.167-1.767,104.8-3.3c43.767-1.5,68.166-2.317,73.2-2.45
		c9.566-0.233,36.433,0.617,80.6,2.55L512.15,54.15z"/>
	<polygon style="fill-rule:evenodd;clip-rule:evenodd;fill:#448CA0;" points="557.95,79.8 551.4,76.9 538.15,72.05 557.95,72.35 	
		"/>
	<path style="fill-rule:evenodd;clip-rule:evenodd;fill:#6397A3;" d="M537.7,56.1c-4.434-0.566-7.617-0.8-9.55-0.699L515.2,56.55
		l-0.3-7.5l22.8,0.15V56.1z"/>
	<polygon style="fill-rule:evenodd;clip-rule:evenodd;fill:#A2BEC6;" points="531.5,47.65 537.7,49.2 514.9,49.05 511.8,48.05 	"/>
	<polygon style="fill-rule:evenodd;clip-rule:evenodd;fill:#49828D;" points="511.8,48.05 514.9,49.1 515.2,56.55 512.15,54.15 
		511.75,48.25 511.7,48.05 511.7,48 	"/>
	<path style="fill-rule:evenodd;clip-rule:evenodd;fill:#2E4D5D;" d="M528.15,55.4c1.933-0.101,5.116,0.133,9.55,0.699l-22.5,0.45
		L528.15,55.4z"/>
	<path style="fill-rule:evenodd;clip-rule:evenodd;fill:#6397A3;" d="M531.55,44.75L531.3,38l20.45,0.15v6.2
		c-3.967-0.5-6.816-0.717-8.55-0.65L531.55,44.75z"/>
	<polygon style="fill-rule:evenodd;clip-rule:evenodd;fill:#A2BEC6;" points="531.3,38 528.55,37.15 546.2,36.75 551.75,38.15 	"/>
	<polygon style="fill-rule:evenodd;clip-rule:evenodd;fill:#49828D;" points="528.85,42.6 528.45,37.15 528.45,37.1 528.55,37.15 
		531.3,38.05 531.55,44.75 	"/>
	<path style="fill-rule:evenodd;clip-rule:evenodd;fill:#2E4D5D;" d="M543.2,43.7c1.733-0.067,4.583,0.15,8.55,0.65l-20.2,0.4
		L543.2,43.7z"/>
	<path style="fill-rule:evenodd;clip-rule:evenodd;fill:#6397A3;" d="M96.2,32.15v7.3c-4.633-0.633-7.95-0.9-9.95-0.8L72.6,39.9
		L72.3,32L96.2,32.15z"/>
	<polygon style="fill-rule:evenodd;clip-rule:evenodd;fill:#A2BEC6;" points="89.7,30.55 96.2,32.15 72.3,32 69.05,31 	"/>
	<polygon style="fill-rule:evenodd;clip-rule:evenodd;fill:#49828D;" points="69.05,31 72.3,32.05 72.6,39.9 69.45,37.4 69,31 
		69,30.95 	"/>
	<path style="fill-rule:evenodd;clip-rule:evenodd;fill:#2E4D5D;" d="M86.25,38.65c2-0.1,5.317,0.167,9.95,0.8L72.6,39.9
		L86.25,38.65z"/>
	<path style="fill-rule:evenodd;clip-rule:evenodd;fill:#6397A3;" d="M253.65,51.6v7.25c-4.633-0.6-7.95-0.85-9.95-0.75l-13.65,1.2
		l-0.3-7.85L253.65,51.6z"/>
	<polygon style="fill-rule:evenodd;clip-rule:evenodd;fill:#A2BEC6;" points="247.15,50 253.65,51.6 229.75,51.45 226.5,50.4 	"/>
	<polygon style="fill-rule:evenodd;clip-rule:evenodd;fill:#49828D;" points="229.75,51.5 230.05,59.3 226.9,56.8 226.45,50.4 
		226.5,50.4 	"/>
	<path style="fill-rule:evenodd;clip-rule:evenodd;fill:#2E4D5D;" d="M243.7,58.1c2-0.1,5.316,0.15,9.95,0.75l-23.6,0.45L243.7,58.1
		z"/>
</g>
</svg>
