<?xml version="1.0" encoding="iso-8859-1"?>
<!-- Generator: Adobe Illustrator 15.1.0, SVG Export Plug-In . SVG Version: 6.00 Build 0)  -->
<!DOCTYPE svg PUBLIC "-//W3C//DTD SVG 1.1//EN" "http://www.w3.org/Graphics/SVG/1.1/DTD/svg11.dtd">
<svg version="1.1" id="stairs_x5F_window_x5F_02.ai"
	 xmlns="http://www.w3.org/2000/svg" xmlns:xlink="http://www.w3.org/1999/xlink" x="0px" y="0px" width="68.95px" height="98.2px"
	 viewBox="0 0 68.95 98.2" style="enable-background:new 0 0 68.95 98.2;" xml:space="preserve">
<g>
	<g>
		<path style="fill-rule:evenodd;clip-rule:evenodd;fill:#2E4D5D;" d="M51.1,60l-36.95-0.55c-0.933-10.5-0.8-20.833,0.4-31
			c2.434-20.4,9.067-29.833,19.9-28.3c10.866,1.5,16.899,11.934,18.1,31.3C53.15,41.117,52.667,50.634,51.1,60z"/>
		<path style="fill-rule:evenodd;clip-rule:evenodd;fill:#263B46;" d="M52.55,46.3c-0.333,5.334-0.816,9.9-1.45,13.7l-9.35-0.7
			c0.467-3.6,0.9-7.733,1.3-12.4c0.8-9.4,1.066-16.833,0.8-22.3c-0.433-8.233-2.133-14.783-5.1-19.65
			c-1.467-2.434-2.9-4.034-4.3-4.8l2.05,0.4c1.7,0.5,3.316,1.267,4.85,2.3c4.934,3.267,8.184,8.667,9.75,16.2
			C52.7,26.583,53.184,35.667,52.55,46.3z"/>
	</g>
	<g>
		<path style="fill-rule:evenodd;clip-rule:evenodd;fill:#49828D;" d="M7.9,74.15L2.35,69.05L0,57.05
			c5.2,0.2,12.083,4.033,20.65,11.5c4.3,3.733,8.067,7.45,11.3,11.15l-7.4,18.5l-8.35-6.45l-0.9-4.2l-7.4-6V74.15z"/>
		<polygon style="fill-rule:evenodd;clip-rule:evenodd;fill:#41748E;" points="6.95,62.6 68.95,60.75 67.1,72.3 56.45,74.6 
			56.9,85.7 49.05,86.2 48.6,97.75 24.55,98.2 24.05,88 15.3,87.55 15.3,75.05 7.9,74.15 		"/>
		<polygon style="fill-rule:evenodd;clip-rule:evenodd;fill:#A2BEC6;" points="6.95,62.6 0,57.05 53.65,58.45 68.95,60.75 		"/>
		<path style="fill-rule:evenodd;clip-rule:evenodd;fill:#2E4D5D;" d="M36.1,73.9L15.3,75.05L7.9,74.15
			c12.934-1.4,22.367-2.134,28.3-2.2S52.434,72,67.1,72.3L56.45,74.6L36.1,73.9z"/>
		<path style="fill-rule:evenodd;clip-rule:evenodd;fill:#2E4D5D;" d="M24.05,88l-8.75-0.45c2.767-0.366,5.65-0.733,8.65-1.1
			c6.066-0.767,9.8-1.167,11.2-1.2c2.233-0.066,9.483,0.083,21.75,0.45L24.05,88z"/>
		<path style="fill-rule:evenodd;clip-rule:evenodd;fill:#2E4D5D;" d="M24.55,98.2l5.15-0.65c3.733-0.434,6.333-0.684,7.8-0.75
			c2.3-0.066,6,0.25,11.1,0.95L24.55,98.2z"/>
	</g>
</g>
</svg>
