<?xml version="1.0" encoding="iso-8859-1"?>
<!-- Generator: Adobe Illustrator 15.1.0, SVG Export Plug-In . SVG Version: 6.00 Build 0)  -->
<!DOCTYPE svg PUBLIC "-//W3C//DTD SVG 1.1//EN" "http://www.w3.org/Graphics/SVG/1.1/DTD/svg11.dtd">
<svg version="1.1" id="stairs_x5F_blue_x5F_08.ai" xmlns="http://www.w3.org/2000/svg" xmlns:xlink="http://www.w3.org/1999/xlink"
	 x="0px" y="0px" width="559.8px" height="65.85px" viewBox="0 0 559.8 65.85" style="enable-background:new 0 0 559.8 65.85;"
	 xml:space="preserve">
<g>
	<polygon style="fill-rule:evenodd;clip-rule:evenodd;fill:#49828D;" points="26.1,32.25 0,19.2 1,4.45 35.5,10.85 	"/>
	<path style="fill-rule:evenodd;clip-rule:evenodd;fill:#A2BEC6;" d="M559.8,14.2c-80.866,3.333-128.666,5-143.399,5
		c-4.4,0-18.034,0.783-40.9,2.35c-46.1,3.133-69.566,4.717-70.4,4.75c-65.733,4.3-103.667,5.517-113.8,3.65
		c-10.633-1.967-41.35-5.184-92.15-9.65c-25.4-2.233-49.75-4.267-73.05-6.1L1,4.45C72.9,3.117,115.117,2.233,127.65,1.8
		c16.967-0.633,33.517-1.117,49.65-1.45c25.434-0.5,43.5-0.467,54.2,0.1c12.6,0.7,32.467,1.283,59.6,1.75
		c27.5,0.5,45.367,0.583,53.601,0.25c5.566-0.2,18.916-0.417,40.05-0.65c21.733-0.233,36.083-0.466,43.05-0.7
		c8.634-0.267,30.55,0,65.75,0.8c17.566,0.4,34.283,0.817,50.15,1.25L559.8,14.2z"/>
	<path style="fill-rule:evenodd;clip-rule:evenodd;fill:#6397A3;" d="M559.8,14.2V45.35c-15.733-3.166-33.833-6.267-54.3-9.3
		c-40.866-6.033-73.017-8.633-96.45-7.8c-12.333,0.433-28.967,2.883-49.899,7.35c-9.5,2.034-28.967,6.667-58.4,13.9
		c-24.7,6.033-43.533,10.217-56.5,12.55c-19.1,3.4-33.85,4.533-44.25,3.4c-10.267-1.134-22.167-3.934-35.7-8.4
		c-8.367-2.8-20.3-7.333-35.8-13.6S102.017,32.967,95.55,30.8c-11.2-3.7-20.267-5.55-27.2-5.55c-13,0-23.934,1.167-32.8,3.5
		c-4.466,1.167-7.617,2.333-9.45,3.5V14.2l57.3-0.4c6.767-0.033,17.75,0.367,32.95,1.2c15.2,0.833,26.667,1.233,34.4,1.2
		c11.033-0.067,25.033-0.583,42-1.55c16.667-0.967,27.117-1.45,31.35-1.45c9.667,0,21.383,0.383,35.15,1.15
		c7.867,0.467,19.733,1.217,35.6,2.25c29.134,1.667,52.45,1.533,69.95-0.4c18.733-2.1,40.934-3.067,66.601-2.9
		c13.899,0.1,31.566,0.4,53,0.9H559.8z"/>
	<g>
		<path style="fill-rule:evenodd;clip-rule:evenodd;fill:#448CA0;" d="M559.8,19.8v12.8l-80.7-0.1c-29-3.467-52.35-4.883-70.05-4.25
			c-8.833,0.3-20.017,1.667-33.55,4.1l-276.35-0.3c-13.033-4.533-23.3-6.8-30.8-6.8c-11.6,0-21.617,0.95-30.05,2.85
			c-5.033,1.1-8.9,2.383-11.6,3.85h-0.6V18.6c14.2,0.233,42.633,0.733,85.3,1.5c48.733,0.9,78.267,1.5,88.6,1.8
			c13.033,0.333,43.15,0.25,90.35-0.25c47.733-0.533,77.017-1.117,87.851-1.75c8-0.5,35.649-0.7,82.95-0.6
			C492.384,19.367,525.267,19.533,559.8,19.8z"/>
		<path style="fill-rule:evenodd;clip-rule:evenodd;fill:#78A8C3;" d="M137.9,47.25l-21.25-8.6L344.05,39
			c-8.666,2-22.8,5.417-42.399,10.25L137.9,47.25z"/>
		<path style="fill-rule:evenodd;clip-rule:evenodd;fill:#78A8C3;" d="M559.8,39.3v6.05c-9.2-1.866-20.5-3.899-33.899-6.1
			L559.8,39.3z"/>
		<path style="fill-rule:evenodd;clip-rule:evenodd;fill:#448CA0;" d="M238.35,63.05l-48.8,0.8c-9.566-1.866-20.617-5.05-33.15-9.55
			l133.35-2.149C268.583,57.283,251.45,60.917,238.35,63.05z"/>
	</g>
	<g>
		<polygon style="fill-rule:evenodd;clip-rule:evenodd;fill:#6397A3;" points="546.95,30.7 519.75,31.2 519.4,21.95 546.95,22.3 		
			"/>
		<polygon style="fill-rule:evenodd;clip-rule:evenodd;fill:#A2BEC6;" points="539.45,20.45 546.95,22.3 519.4,22.15 515.55,20.95 
					"/>
		<polygon style="fill-rule:evenodd;clip-rule:evenodd;fill:#49828D;" points="515.6,20.9 519.4,22.2 519.75,31.2 516.1,28.35 		"/>
		<path style="fill-rule:evenodd;clip-rule:evenodd;fill:#2E4D5D;" d="M535.45,29.8c2.333-0.1,6.166,0.2,11.5,0.9l-27.2,0.5
			L535.45,29.8z"/>
	</g>
	<g>
		<polygon style="fill-rule:evenodd;clip-rule:evenodd;fill:#6397A3;" points="162.35,38.7 135.2,39.25 134.85,30 162.35,30.35 		
			"/>
		<polygon style="fill-rule:evenodd;clip-rule:evenodd;fill:#A2BEC6;" points="134.85,30.2 131,29 154.9,28.5 162.35,30.35 		"/>
		<polygon style="fill-rule:evenodd;clip-rule:evenodd;fill:#49828D;" points="131,28.95 134.85,30.25 135.2,39.25 131.55,36.35 		
			"/>
		<path style="fill-rule:evenodd;clip-rule:evenodd;fill:#2E4D5D;" d="M135.2,39.25l15.65-1.4c2.333-0.1,6.167,0.184,11.5,0.851
			L135.2,39.25z"/>
	</g>
	<g>
		<path style="fill-rule:evenodd;clip-rule:evenodd;fill:#4D5D5C;" d="M222.95,28.15c3.367-0.133,6.35,1.45,8.95,4.75
			c1.133,1.466,1.8,3.466,2,6c0.267,2.833-0.267,5.283-1.6,7.35c-1.333,2.066-3.433,3.417-6.3,4.05
			c-2.567,0.566-5.183,0.45-7.85-0.35c-2.467-0.733-4.25-2.417-5.35-5.05c-1.066-2.634-1.2-5.584-0.4-8.851
			C213.567,31.017,217.083,28.383,222.95,28.15z"/>
		<path style="fill-rule:evenodd;clip-rule:evenodd;fill:#738E8D;" d="M223.15,29c3.533,0.233,6.15,1.45,7.85,3.65
			c1.133,1.5,1.917,3.6,2.35,6.3c0.367,2.467-0.267,4.816-1.9,7.05c-2,2.667-4.917,4.017-8.75,4.05c-3.934,0.033-6.767-1.3-8.5-4
			c-1.5-2.267-2.017-5.066-1.55-8.399c0.367-2.867,1.5-5.083,3.4-6.65C217.917,29.5,220.283,28.833,223.15,29z"/>
		<path style="fill-rule:evenodd;clip-rule:evenodd;fill:#2E4D5D;" d="M222.25,30.45c2.767-0.133,5.017,0.75,6.75,2.649
			c1.533,1.667,2.383,3.75,2.55,6.25c0.133,2.5-0.483,4.634-1.85,6.4c-1.534,1.967-3.684,2.967-6.45,3s-4.967-0.884-6.6-2.75
			c-1.433-1.634-2.183-3.684-2.25-6.15c-0.066-2.466,0.567-4.583,1.9-6.35C217.767,31.567,219.75,30.55,222.25,30.45z"/>
		<path style="fill-rule:evenodd;clip-rule:evenodd;fill:#C3D3D8;" d="M224.65,31.85c0.8-0.067,1.75,0.316,2.85,1.15
			c1.033,0.8,1.667,1.583,1.9,2.35c0.267,0.834,0.4,1.551,0.4,2.15c-0.033,0.733-0.283,1.083-0.75,1.05
			c-0.367-0.033-0.6-0.533-0.7-1.5c-0.133-1.267-0.333-2.116-0.6-2.55c-0.4-0.634-1.033-1.267-1.9-1.9L224.65,31.85z"/>
	</g>
</g>
</svg>
