<?xml version="1.0" encoding="iso-8859-1"?>
<!-- Generator: Adobe Illustrator 15.1.0, SVG Export Plug-In . SVG Version: 6.00 Build 0)  -->
<!DOCTYPE svg PUBLIC "-//W3C//DTD SVG 1.1//EN" "http://www.w3.org/Graphics/SVG/1.1/DTD/svg11.dtd">
<svg version="1.1" id="stairs_x5F_blue_x5F_07.ai" xmlns="http://www.w3.org/2000/svg" xmlns:xlink="http://www.w3.org/1999/xlink"
	 x="0px" y="0px" width="497.45px" height="271.35px" viewBox="0 0 497.45 271.35"
	 style="enable-background:new 0 0 497.45 271.35;" xml:space="preserve">
<g>
	<g>
		<polygon style="fill-rule:evenodd;clip-rule:evenodd;fill:#49828D;" points="15.55,32.15 13.55,17.05 63.8,27.1 52.75,54.25 		"/>
		<polygon style="fill-rule:evenodd;clip-rule:evenodd;fill:#A2BEC6;" points="276.85,18.05 54.75,32.15 13.55,17.05 244.7,0 		"/>
	</g>
	<g>
		<path style="fill-rule:evenodd;clip-rule:evenodd;fill:#A2BEC6;" d="M448.7,32.15l48.75,15.5c-14.3,5.167-30.684,9.95-49.15,14.35
			c-36.899,8.8-65.684,11.25-86.35,7.35c-21.066-4-63.367-6.934-126.9-8.8c-21.667-0.633-42.85-1.066-63.55-1.3
			c-18.067-0.2-27.617-0.183-28.65,0.05c-1.4,0.267-20.1-1.833-56.1-6.3c-18-2.233-35.867-4.5-53.6-6.8L0,34.15
			c39.8-2.733,81.317-5.5,124.55-8.3c86.467-5.567,138.351-8.5,155.65-8.8c14.467-0.233,34.85,2.617,61.149,8.55
			c13.7,3.1,23.25,5.117,28.65,6.05c10.233,1.8,19.05,2.633,26.45,2.5c13.967-0.267,26.866-0.683,38.7-1.25
			C441.05,32.633,445.566,32.383,448.7,32.15z"/>
		<path style="fill-rule:evenodd;clip-rule:evenodd;fill:#49828D;" d="M106,90.75c-0.833-8.933-9-17.083-24.5-24.45
			c-4.867-2.3-10.167-4.383-15.9-6.25l-7.15-2.1C65.717,55.617,74.1,54,83.6,53.1c18.967-1.8,34.033,0.933,45.2,8.2
			c11.267,7.333,16.684,20.983,16.25,40.95c-0.167,6.533-0.933,13.2-2.3,20c-1.1,5.333-1.95,8.467-2.55,9.4
			c-0.567,0.833-0.4,21.75,0.5,62.75c0.433,20.466,0.933,40.866,1.5,61.199L122.3,270.9l-30.15-4.551l-5.55-114.6
			c3.566-6.6,7.05-14.083,10.45-22.45C103.85,112.533,106.833,99.683,106,90.75z"/>
		<polygon style="fill-rule:evenodd;clip-rule:evenodd;fill:#49828D;" points="0,34.15 31.65,45.35 32.4,65.35 5.5,53.75 		"/>
		<path style="fill-rule:evenodd;clip-rule:evenodd;fill:#6397A3;" d="M334.35,43c12.801,4.067,21.567,6.75,26.301,8.05
			c9.533,2.567,17.517,4,23.949,4.3c12.134,0.566,34.584-0.55,67.351-3.35c16.399-1.4,31.566-2.85,45.5-4.35
			c-13.667,9.033-29.816,17.833-48.45,26.4c-37.3,17.133-68.4,24.55-93.3,22.25c-12.9-1.2-25.3-3.3-37.2-6.3
			c-3.6-0.9-12.733-3.583-27.4-8.05c-9.966-3.034-18.466-5.017-25.5-5.95c-9.767-1.3-20.35-1.317-31.75-0.05
			c-23.8,2.633-43.033,11.483-57.7,26.55c-13.3,13.633-21.2,30.4-23.7,50.3c-3.633,28.934,3.617,57.2,21.75,84.8
			c9.066,13.801,18.5,24.7,28.3,32.7l-79.4,1.05L108,160.8c5.4-6.6,10.167-14.649,14.3-24.149c8.233-19.034,9.167-35.784,2.8-50.25
			s-23.717-22.316-52.05-23.55c-14.2-0.6-27.75,0.233-40.65,2.5l-0.75-20c14.633-1,30.55-2,47.75-3c34.4-2,57.967-3,70.7-3
			c12.5,0,35.35-0.934,68.55-2.8c17.633-1,39.784-2.283,66.45-3.85c6.233-0.3,13.95,0.617,23.15,2.75
			C314.384,36.883,323.083,39.4,334.35,43z"/>
		<g>
			<path style="fill-rule:evenodd;clip-rule:evenodd;fill:#78A8C3;" d="M122.3,265.3l-1.95-14.25l66.05,2.851
				c3.533,4.199,7.067,8,10.6,11.399H122.3z"/>
			<path style="fill-rule:evenodd;clip-rule:evenodd;fill:#448CA0;" d="M119.4,244.05l-1.15-8.149l55.15,0.449
				c1.667,2.567,3.65,5.45,5.95,8.65L119.4,244.05z"/>
			<path style="fill-rule:evenodd;clip-rule:evenodd;fill:#448CA0;" d="M116.7,224.5l-1.15-8.7l46.95,0.5
				c1.433,3.2,2.85,6.101,4.25,8.7L116.7,224.5z"/>
			<path style="fill-rule:evenodd;clip-rule:evenodd;fill:#448CA0;" d="M156.15,198.95c1.1,3.7,2.133,6.833,3.1,9.399H114.5
				l-0.95-7.1L156.15,198.95z"/>
			<path style="fill-rule:evenodd;clip-rule:evenodd;fill:#78A8C3;" d="M112.3,192.25l-1.2-8.9l41.5-1.5
				c0.467,3.767,1.083,7.233,1.85,10.4H112.3z"/>
			<path style="fill-rule:evenodd;clip-rule:evenodd;fill:#448CA0;" d="M109.8,173.8l-1.55-11.399l43.35,1.949
				c-0.067,3.867,0.017,7.301,0.25,10.301L109.8,173.8z"/>
			<path style="fill-rule:evenodd;clip-rule:evenodd;fill:#448CA0;" d="M114,152.2c2.333-3.733,4.317-7.267,5.95-10.601l34.4,0.851
				c-0.833,3.5-1.467,6.883-1.9,10.149L114,152.2z"/>
			<path style="fill-rule:evenodd;clip-rule:evenodd;fill:#448CA0;" d="M123,135c1.367-3.333,2.467-6.467,3.3-9.4l33.4,1.2
				c-1.367,2.967-2.567,6.083-3.6,9.351L123,135z"/>
			<path style="fill-rule:evenodd;clip-rule:evenodd;fill:#78A8C3;" d="M179.2,99.55c-4.267,3.867-8.15,8.317-11.65,13.35l-38.8,0.8
				c0.367-2.7,0.517-5.45,0.45-8.25L179.2,99.55z"/>
			<path style="fill-rule:evenodd;clip-rule:evenodd;fill:#448CA0;" d="M387.65,94.5l-50.95-0.65
				c-7.467-1.267-15.033-2.95-22.7-5.05c-3.733-1-9.934-2.85-18.6-5.55L424.3,84.3C411.3,89.067,399.083,92.467,387.65,94.5z"/>
			<path style="fill-rule:evenodd;clip-rule:evenodd;fill:#448CA0;" d="M206.55,82.55c-6.267,2.467-12.183,5.567-17.75,9.3
				l-61.95-0.8c-0.567-1.8-1.15-3.35-1.75-4.65c-0.633-1.467-1.467-2.983-2.5-4.55L206.55,82.55z"/>
			<path style="fill-rule:evenodd;clip-rule:evenodd;fill:#78A8C3;" d="M463.65,66.95c-7.267,3.733-14.334,7.083-21.2,10.05
				L270.35,76.75c-11.233-2-23.399-2.267-36.5-0.8c-1.067,0.133-2.867,0.367-5.4,0.7l-110.6-0.15
				c-4.833-4.367-11.483-7.733-19.95-10.1L463.65,66.95z"/>
			<path style="fill-rule:evenodd;clip-rule:evenodd;fill:#448CA0;" d="M476.55,60.1l-7.5,4.05
				c-61.833-0.6-99.883-1.667-114.149-3.2C341,59.45,246.55,60.067,71.55,62.8c-5.7-0.2-11.9-0.1-18.6,0.3l-20.6,0.3l-0.5-12.75
				c170.633-3.867,262.683-5.8,276.15-5.8c8.366,0,18.783,1.85,31.25,5.55c13.667,4.067,22.233,6.25,25.7,6.55
				C373.35,57.683,410.55,58.733,476.55,60.1z"/>
		</g>
		<g>
			<polygon style="fill-rule:evenodd;clip-rule:evenodd;fill:#6397A3;" points="121,50.25 121,57.5 97.4,58 97.1,49.95 			"/>
			<polygon style="fill-rule:evenodd;clip-rule:evenodd;fill:#A2BEC6;" points="93.75,49.1 114.5,48.65 121,50.25 97.1,50.1 			"/>
			<polygon style="fill-rule:evenodd;clip-rule:evenodd;fill:#49828D;" points="97.1,50.15 97.4,58 94.2,55.5 93.75,49.05 			"/>
			<path style="fill-rule:evenodd;clip-rule:evenodd;fill:#2E4D5D;" d="M121,57.5L97.4,58l13.6-1.25
				C113.033,56.65,116.367,56.9,121,57.5z"/>
		</g>
		<g>
			<polygon style="fill-rule:evenodd;clip-rule:evenodd;fill:#6397A3;" points="363.55,60.35 363.55,68.75 336.35,69.25 336,60 			
				"/>
			<polygon style="fill-rule:evenodd;clip-rule:evenodd;fill:#A2BEC6;" points="363.55,60.35 336,60.2 332.15,59 356.05,58.5 			"/>
			<polygon style="fill-rule:evenodd;clip-rule:evenodd;fill:#49828D;" points="332.15,59 336,60.25 336.35,69.25 332.7,66.4 			"/>
			<path style="fill-rule:evenodd;clip-rule:evenodd;fill:#2E4D5D;" d="M363.55,68.75l-27.2,0.5l15.7-1.4
				C354.35,67.75,358.184,68.05,363.55,68.75z"/>
		</g>
		<g>
			<polygon style="fill-rule:evenodd;clip-rule:evenodd;fill:#6397A3;" points="401.05,75.7 401.05,83 377.45,83.45 377.15,75.4 			
				"/>
			<polygon style="fill-rule:evenodd;clip-rule:evenodd;fill:#A2BEC6;" points="401.05,75.7 377.15,75.55 373.8,74.55 394.55,74.1 
							"/>
			<polygon style="fill-rule:evenodd;clip-rule:evenodd;fill:#49828D;" points="373.85,74.5 377.15,75.6 377.45,83.45 374.3,80.95 
							"/>
			<path style="fill-rule:evenodd;clip-rule:evenodd;fill:#2E4D5D;" d="M401.05,83l-23.6,0.45l13.6-1.25
				C393.083,82.1,396.417,82.367,401.05,83z"/>
		</g>
		<g>
			<polygon style="fill-rule:evenodd;clip-rule:evenodd;fill:#6397A3;" points="133.55,246.8 165.2,247.2 165.2,256.8 133.95,257.4 
							"/>
			<polygon style="fill-rule:evenodd;clip-rule:evenodd;fill:#A2BEC6;" points="133.55,247 129.15,245.6 156.6,245.05 165.2,247.2 
							"/>
			<polygon style="fill-rule:evenodd;clip-rule:evenodd;fill:#49828D;" points="129.15,245.6 133.55,247.05 133.95,257.4 
				129.75,254.1 			"/>
			<path style="fill-rule:evenodd;clip-rule:evenodd;fill:#2E4D5D;" d="M133.95,257.4l7.5-0.7c5.333-0.5,8.85-0.8,10.55-0.9
				c2.667-0.133,7.067,0.2,13.2,1L133.95,257.4z"/>
		</g>
		<g>
			<path style="fill-rule:evenodd;clip-rule:evenodd;fill:#4D5D5C;" d="M167.3,50.35c2.534,1.5,4.833,3.566,6.9,6.2
				c2.066,2.633,3.3,6.233,3.7,10.8c0.467,5.167-0.5,9.617-2.9,13.35c-2.467,3.767-6.283,6.216-11.45,7.35
				c-4.667,1.034-9.433,0.833-14.3-0.6c-4.467-1.333-7.683-4.383-9.65-9.15c-1.967-4.767-2.217-10.133-0.75-16.1
				c2.167-9.034,8.55-13.8,19.15-14.3C161.2,47.767,164.3,48.583,167.3,50.35z"/>
			<path style="fill-rule:evenodd;clip-rule:evenodd;fill:#738E8D;" d="M172.55,56.1c2.067,2.667,3.483,6.467,4.25,11.4
				c0.7,4.433-0.45,8.683-3.45,12.75c-3.6,4.9-8.867,7.367-15.8,7.4c-7.1,0.033-12.233-2.4-15.4-7.3c-2.7-4.133-3.65-9.2-2.85-15.2
				c0.667-5.2,2.717-9.2,6.15-12c3.4-2.767,7.7-3.983,12.9-3.65C164.75,49.867,169.483,52.067,172.55,56.1z"/>
			<path style="fill-rule:evenodd;clip-rule:evenodd;fill:#2E4D5D;" d="M168.95,56.85c2.833,3.033,4.367,6.833,4.6,11.4
				c0.233,4.533-0.883,8.383-3.35,11.55c-2.767,3.567-6.65,5.383-11.65,5.45s-8.983-1.583-11.95-4.95c-2.633-3-4-6.733-4.1-11.2
				c-0.1-4.434,1.067-8.25,3.5-11.45c2.633-3.5,6.217-5.35,10.75-5.55C161.75,51.9,165.817,53.483,168.95,56.85z"/>
			<path style="fill-rule:evenodd;clip-rule:evenodd;fill:#C3D3D8;" d="M166.2,56.75c1.833,1.433,2.983,2.833,3.45,4.2
				c0.5,1.533,0.75,2.833,0.75,3.9c0,1.3-0.45,1.933-1.35,1.9c-0.667-0.033-1.083-0.933-1.25-2.7c-0.233-2.3-0.617-3.85-1.15-4.65
				c-0.7-1.1-1.833-2.233-3.4-3.4l-2.2-1.4C162.517,54.5,164.233,55.217,166.2,56.75z"/>
		</g>
	</g>
</g>
</svg>
