<?xml version="1.0" encoding="iso-8859-1"?>
<!-- Generator: Adobe Illustrator 15.1.0, SVG Export Plug-In . SVG Version: 6.00 Build 0)  -->
<!DOCTYPE svg PUBLIC "-//W3C//DTD SVG 1.1//EN" "http://www.w3.org/Graphics/SVG/1.1/DTD/svg11.dtd">
<svg version="1.1" id="buildings" xmlns="http://www.w3.org/2000/svg" xmlns:xlink="http://www.w3.org/1999/xlink" x="0px" y="0px"
	 width="200.5px" height="169px" viewBox="0 0 200.5 169" style="enable-background:new 0 0 200.5 169;" xml:space="preserve">
<g>
	<g>
		
			<linearGradient id="SVGID_1_" gradientUnits="userSpaceOnUse" x1="-152.373" y1="-86.9097" x2="-35.8012" y2="-86.9097" gradientTransform="matrix(-0.9992 0.0407 -0.0407 -0.9992 -7.263757e-004 4.154444e-005)">
			<stop  offset="0" style="stop-color:#A6B6B9"/>
			<stop  offset="0.4667" style="stop-color:#C1CAC8"/>
			<stop  offset="1" style="stop-color:#A6B6B9"/>
		</linearGradient>
		<path style="fill-rule:evenodd;clip-rule:evenodd;fill:url(#SVGID_1_);" d="M200.5,0v63.5l-33,9l-89.5,62l-53.5,31L0,160V96.5
			l11.75-0.05c1.933-0.101,4.067-0.45,6.4-1.05c2.067-0.5,4.05-1.101,5.95-1.801c2.1-0.8,4.15-1.699,6.15-2.699L54.1,76.85
			l96.15-63.6c4.733-3,7.767-4.9,9.1-5.7L163,5.5c4.634-2.5,9.35-4.15,14.15-4.95C179.316,0.183,181.6,0,184,0H200.5z"/>
		<polygon style="fill-rule:evenodd;clip-rule:evenodd;fill:#EBEDED;" points="11.75,96.45 21.95,164 18.95,164.25 8.75,161.95 
			4.75,96.5 		"/>
		<path style="fill-rule:evenodd;clip-rule:evenodd;fill:#B4C4C9;" d="M24.1,93.6l22.6,59l-8.3,4.801l-4.95,1.6l-15.3-63.6
			C20.217,94.9,22.2,94.3,24.1,93.6z"/>
		<polygon style="fill-rule:evenodd;clip-rule:evenodd;fill:#B7CDD7;" points="36.8,87.25 67.95,139.5 54.95,145.5 30.25,90.9 		"/>
		<polygon style="fill-rule:evenodd;clip-rule:evenodd;fill:#EBEDED;" points="54.1,76.85 90.45,125 78,134.5 43.95,83.05 		"/>
		<polygon style="fill-rule:evenodd;clip-rule:evenodd;fill:#D6DAD9;" points="68.6,67.7 110.95,110.5 97.45,116.5 59.5,73.5 		"/>
		<polygon style="fill-rule:evenodd;clip-rule:evenodd;fill:#B7CDD7;" points="114.95,103 77.8,61.7 85.2,56.85 125.95,99 		"/>
		<polygon style="fill-rule:evenodd;clip-rule:evenodd;fill:#B4C4C9;" points="132.45,91 91.65,52.55 102.05,45.65 141.45,85.5 		
			"/>
		<path style="fill-rule:evenodd;clip-rule:evenodd;fill:#EBEDED;" d="M185.95,0l10.899,64.45L185.7,67.5h-0.25l-8.3-66.95
			C179.316,0.183,181.6,0,184,0H185.95z"/>
		<path style="fill-rule:evenodd;clip-rule:evenodd;fill:#B4C4C9;" d="M171.45,71.5l-0.05-0.1l-21.15-58.15
			c4.733-3,7.767-4.9,9.1-5.7L179.95,66.5L171.45,71.5z"/>
		<polygon style="fill-rule:evenodd;clip-rule:evenodd;fill:#D6DAD9;" points="134.65,23.6 166.95,72 158.45,77 128.45,27.8 		"/>
		<polygon style="fill-rule:evenodd;clip-rule:evenodd;fill:#EBEDED;" points="117.25,35.35 153.45,78.5 144.95,83.5 110.5,39.9 		
			"/>
		<path style="fill-rule:evenodd;clip-rule:evenodd;fill:#919E9C;" d="M184,72.5c-7.1,0-18.417,4.617-33.95,13.85
			c-9.8,5.767-24.983,15.817-45.55,30.15c-5.967,4.134-14.967,10.733-27,19.8c-10.267,7.733-18.05,13.316-23.35,16.75
			C37.817,163.684,22.767,169,9,169H0v-9h13.5c9.433,0,22.4-5.033,38.9-15.1c9.867-5.967,25.667-17.017,47.4-33.15
			c21.667-16.033,37.5-27.083,47.5-33.15c16.566-10.067,29.634-15.1,39.2-15.1h14v9H184z"/>
	</g>
	<path style="fill-rule:evenodd;clip-rule:evenodd;fill:#677A79;" d="M3.2,166c9.066-0.866,17.55-2.95,25.45-6.25
		c4.333-1.8,10.767-5.134,19.3-10c5.333-3.066,14-8.967,26-17.7c9.233-6.733,16.65-12.333,22.25-16.8
		c3.033-2.4,7.649-5.366,13.85-8.9c3.101-1.767,5.9-3.3,8.4-4.6c-3.667,2.167-7.417,4.667-11.25,7.5
		c-14.333,10.6-23.367,17.25-27.1,19.95c-16.867,12.233-29.667,21.083-38.4,26.55c-8.633,5.434-17.65,8.767-27.05,10
		C9.983,166.384,6.167,166.467,3.2,166z"/>
	<path style="fill-rule:evenodd;clip-rule:evenodd;fill:#677A79;" d="M198.45,70.25c-2.533,0.033-5.5,0.183-8.9,0.45
		c-6.8,0.5-12.333,1.267-16.6,2.3s-13,5.467-26.2,13.3L128.2,97.75l13.35-9.3c10.3-6.833,18.934-11.817,25.9-14.95
		s14.233-4.617,21.8-4.45C193.017,69.15,196.083,69.55,198.45,70.25z"/>
	<path style="fill-rule:evenodd;clip-rule:evenodd;fill:#C2C8C7;" d="M183.2,67.95c-9.736,1.741-19.411,4.949-29.025,9.625L161,74
		c7.767-3.833,13.417-6.167,16.95-7s7.684-1.117,12.45-0.85c2.366,0.1,4.383,0.3,6.05,0.6C193.116,66.583,188.7,66.983,183.2,67.95z
		"/>
</g>
</svg>
