<?xml version="1.0" encoding="iso-8859-1"?>
<!-- Generator: Adobe Illustrator 15.1.0, SVG Export Plug-In . SVG Version: 6.00 Build 0)  -->
<!DOCTYPE svg PUBLIC "-//W3C//DTD SVG 1.1//EN" "http://www.w3.org/Graphics/SVG/1.1/DTD/svg11.dtd">
<svg version="1.1" id="stonePillar_x5F_02.ai" xmlns="http://www.w3.org/2000/svg" xmlns:xlink="http://www.w3.org/1999/xlink"
	 x="0px" y="0px" width="31.95px" height="107.35px" viewBox="0 0 31.95 107.35" style="enable-background:new 0 0 31.95 107.35;"
	 xml:space="preserve">
<g>
	<g>
		<polygon style="fill-rule:evenodd;clip-rule:evenodd;fill:#AAB2B5;" points="17.25,6.8 26.55,10.55 19.1,31.1 20.8,68.15 
			17.4,75.6 31.95,103.15 17.8,107.35 4.4,85.05 10,26.25 		"/>
		<polygon style="fill-rule:evenodd;clip-rule:evenodd;fill:#939A9D;" points="12.8,45.7 8,54.45 12.05,63.35 17.8,107.35 0.8,99.4 
			0.7,87 5,77.8 0.55,66.6 0.3,33.2 3.35,24.6 0.15,17.3 0,0 17.25,6.8 		"/>
		<polygon style="fill-rule:evenodd;clip-rule:evenodd;fill:#CDD1D2;" points="0,0 15,2.5 26.55,10.55 		"/>
	</g>
	<polygon style="fill-rule:evenodd;clip-rule:evenodd;fill:#696F71;" points="0.15,17.3 7.05,22.45 11.55,20.7 8.8,23.7 6.55,27.95 
		0.3,33.2 3.35,24.6 	"/>
	<polygon style="fill-rule:evenodd;clip-rule:evenodd;fill:#696F71;" points="6.8,82.7 9.95,104.25 0.8,99.4 0.8,86.25 5,77.8 
		9.8,80.45 12.8,77.45 11.05,82.45 	"/>
	<path style="fill-rule:evenodd;clip-rule:evenodd;fill:#696F71;" d="M5.3,8.25l5.5,2L8.3,18.9c-0.066-0.9-0.15-1.816-0.25-2.75
		c-0.2-1.867-0.4-2.833-0.6-2.9L5.6,12.9L5.3,8.25z"/>
	<path style="fill-rule:evenodd;clip-rule:evenodd;fill:#696F71;" d="M4.45,52.55c-0.067,0.2,0.3,0.85,1.1,1.95
		c0.434,0.533,0.85,1.05,1.25,1.55l-0.85,13.5l-1.5-11l-3,2.851l2-14.65C4.217,50.283,4.55,52.217,4.45,52.55z"/>
	<polygon style="fill-rule:evenodd;clip-rule:evenodd;fill:#CDD1D2;" points="18.8,32.4 19.45,36.05 14.8,34.05 	"/>
	<polygon style="fill-rule:evenodd;clip-rule:evenodd;fill:#CDD1D2;" points="20.45,81.7 14.8,75.4 17.4,75.6 	"/>
	<g>
		<g>
			<path style="fill-rule:evenodd;clip-rule:evenodd;fill:#54585B;" d="M6.55,5.45C6.417,5.683,6.167,5.733,5.8,5.6
				c-0.333-0.133-0.333-0.383,0-0.75c0.333-0.233,0.583-0.233,0.75,0C6.75,5.083,6.75,5.283,6.55,5.45z"/>
		</g>
	</g>
	<g>
		<g>
			<path style="fill-rule:evenodd;clip-rule:evenodd;fill:#54585B;" d="M13.8,18.15c0.5,0.2,0.667,0.533,0.5,1
				c-0.133,0.5-0.45,0.583-0.95,0.25c-0.367-0.267-0.467-0.583-0.3-0.95C13.217,18.083,13.467,17.983,13.8,18.15z"/>
		</g>
	</g>
	<g>
		<g>
			<path style="fill-rule:evenodd;clip-rule:evenodd;fill:#54585B;" d="M8.05,38.7c-0.3,0.5-0.75,0.633-1.35,0.4
				c-0.567-0.233-0.617-0.65-0.15-1.25c0.534-0.5,0.983-0.567,1.35-0.2C8.233,38.017,8.283,38.367,8.05,38.7z"/>
		</g>
	</g>
	<g>
		<g>
			<path style="fill-rule:evenodd;clip-rule:evenodd;fill:#54585B;" d="M9.9,33.4c-0.433,0.434-0.85,0.45-1.25,0.05
				c-0.367-0.367-0.3-0.7,0.2-1c0.4-0.3,0.75-0.284,1.05,0.05C10.2,32.833,10.2,33.133,9.9,33.4z"/>
		</g>
	</g>
	<g>
		<g>
			<path style="fill-rule:evenodd;clip-rule:evenodd;fill:#54585B;" d="M8,45.7c-0.433,0.767-0.867,0.966-1.3,0.6
				c-0.467-0.4-0.517-0.75-0.15-1.05c0.233-0.333,0.567-0.45,1-0.35C7.983,45,8.133,45.267,8,45.7z"/>
		</g>
	</g>
	<g>
		<g>
			<path style="fill-rule:evenodd;clip-rule:evenodd;fill:#54585B;" d="M2.5,41.7c-0.233,0.6-0.55,0.783-0.95,0.55
				c-0.433-0.233-0.517-0.5-0.25-0.8c0.167-0.333,0.417-0.467,0.75-0.4C2.417,41.117,2.567,41.333,2.5,41.7z"/>
		</g>
	</g>
	<g>
		<g>
			<path style="fill-rule:evenodd;clip-rule:evenodd;fill:#54585B;" d="M8.4,75.2c1.1,0.566,1.417,1.399,0.95,2.5
				C8.883,78.833,8.1,78.967,7,78.1c-0.9-0.833-1.067-1.633-0.5-2.399C7.067,74.9,7.7,74.733,8.4,75.2z"/>
		</g>
	</g>
	<g>
		<g>
			<path style="fill-rule:evenodd;clip-rule:evenodd;fill:#54585B;" d="M12,94.25c0.8,0.066,1.183,0.467,1.15,1.2
				c-0.066,0.733-0.483,0.967-1.25,0.7c-0.6-0.2-0.867-0.584-0.8-1.15C11.167,94.434,11.467,94.184,12,94.25z"/>
		</g>
	</g>
	<g>
		<g>
			<path style="fill-rule:evenodd;clip-rule:evenodd;fill:#54585B;" d="M15.1,101.65c0.4,0.1,0.584,0.383,0.551,0.85
				c-0.067,0.434-0.351,0.55-0.851,0.35c-0.466-0.3-0.6-0.6-0.4-0.899C14.6,101.65,14.833,101.55,15.1,101.65z"/>
		</g>
	</g>
	<g>
		<g>
			<path style="fill-rule:evenodd;clip-rule:evenodd;fill:#54585B;" d="M23.2,96.75c0.666,0.167,0.983,0.634,0.95,1.4
				c-0.067,0.733-0.534,0.949-1.4,0.649c-0.733-0.467-0.967-0.967-0.7-1.5S22.7,96.583,23.2,96.75z"/>
		</g>
	</g>
	<g>
		<g>
			<path style="fill-rule:evenodd;clip-rule:evenodd;fill:#54585B;" d="M20.65,89c0.066-0.4,0.199-0.55,0.399-0.45
				c0.267,0.101,0.351,0.217,0.25,0.351c-0.033,0.166-0.133,0.267-0.3,0.3C20.8,89.233,20.684,89.167,20.65,89z"/>
		</g>
	</g>
	<g>
		<g>
			<path style="fill-rule:evenodd;clip-rule:evenodd;fill:#54585B;" d="M21.5,102.2c0.566,0.033,0.833,0.3,0.8,0.8
				c-0.066,0.467-0.333,0.634-0.8,0.5c-0.4-0.134-0.6-0.4-0.6-0.8C20.934,102.333,21.134,102.167,21.5,102.2z"/>
		</g>
	</g>
	<g>
		<g>
			<path style="fill-rule:evenodd;clip-rule:evenodd;fill:#54585B;" d="M16,53.15c0.3-0.467,0.65-0.566,1.05-0.3
				c0.4,0.267,0.417,0.583,0.05,0.95c-0.333,0.3-0.649,0.351-0.949,0.15C15.85,53.717,15.8,53.45,16,53.15z"/>
		</g>
	</g>
	<g>
		<g>
			<path style="fill-rule:evenodd;clip-rule:evenodd;fill:#54585B;" d="M15.95,59.2c-0.233-0.134-0.3-0.233-0.2-0.3l0.2-0.051
				c0.1,0,0.149,0.067,0.149,0.2C16.134,59.15,16.083,59.2,15.95,59.2z"/>
		</g>
	</g>
	<g>
		<g>
			<path style="fill-rule:evenodd;clip-rule:evenodd;fill:#54585B;" d="M18.65,19.05c0.3-0.6,0.666-0.783,1.1-0.55
				c0.4,0.267,0.45,0.583,0.15,0.95c-0.233,0.333-0.534,0.433-0.9,0.3C18.634,19.65,18.517,19.417,18.65,19.05z"/>
		</g>
	</g>
	<g>
		<g>
			<path style="fill-rule:evenodd;clip-rule:evenodd;fill:#54585B;" d="M19.8,12.25c0.2-0.467,0.4-0.6,0.601-0.4
				c0.267,0.267,0.3,0.417,0.1,0.45c-0.033,0.133-0.15,0.217-0.35,0.25C19.917,12.583,19.8,12.483,19.8,12.25z"/>
		</g>
	</g>
	<g>
		<g>
			<path style="fill-rule:evenodd;clip-rule:evenodd;fill:#54585B;" d="M18.85,25.8c0.134,0.067,0.167,0.25,0.101,0.55
				c-0.066,0.3-0.267,0.333-0.601,0.1c-0.199-0.434-0.183-0.667,0.051-0.7C18.6,25.683,18.75,25.7,18.85,25.8z"/>
		</g>
	</g>
	<g>
		<g>
			<path style="fill-rule:evenodd;clip-rule:evenodd;fill:#54585B;" d="M17.3,44.45c-0.5,0.667-1.083,0.783-1.75,0.35
				c-0.667-0.433-0.667-0.95,0-1.55c0.667-0.533,1.217-0.567,1.65-0.1S17.667,44.05,17.3,44.45z"/>
		</g>
	</g>
</g>
</svg>
