<?xml version="1.0" encoding="iso-8859-1"?>
<!-- Generator: Adobe Illustrator 15.1.0, SVG Export Plug-In . SVG Version: 6.00 Build 0)  -->
<!DOCTYPE svg PUBLIC "-//W3C//DTD SVG 1.1//EN" "http://www.w3.org/Graphics/SVG/1.1/DTD/svg11.dtd">
<svg version="1.1" id="buildings" xmlns="http://www.w3.org/2000/svg" xmlns:xlink="http://www.w3.org/1999/xlink" x="0px" y="0px"
	 width="53.8px" height="106px" viewBox="0 0 53.8 106" style="enable-background:new 0 0 53.8 106;" xml:space="preserve">
<symbol  id="FlashAICB_x2F_buildings_x2F__x3C_Path_x3E_" viewBox="0 -5.926 6.125 5.935">
	<g id="Layer_1_6_">
		<path style="fill-rule:evenodd;clip-rule:evenodd;fill:#404646;" d="M2.8-5.4c1.034,0.8,1.333,1.65,0.9,2.55
			c-0.4,0.9-1.133,1.267-2.2,1.1C0.967-1.85,0.467-2.033,0-2.3c0.333,0.6,0.767,1.117,1.3,1.55c1.133,0.9,2.267,1,3.4,0.3
			C6.067-1.317,6.45-2.6,5.85-4.3C5.25-6,4.233-6.367,2.8-5.4z"/>
	</g>
</symbol>
<symbol  id="FlashAICB_x2F_buildings_x2F__x3C_Path_x3E__x5F_0" viewBox="0 -48.5 16.25 48.5">
	<g id="Layer_1_7_">
		<path style="fill-rule:evenodd;clip-rule:evenodd;fill:#C9D0D0;" d="M8.5,0l1-15.5l6.75,12.75l-7-45.75l3.5,35.75
			c-2.333-5.167-4-9.583-5-13.25S4.167-36.583,0-46.75c0.833,2.167,1.717,4.667,2.65,7.5C4.483-33.583,5.6-29.083,6-25.75
			C6.667-20.417,7.5-11.833,8.5,0z"/>
	</g>
</symbol>
<symbol  id="FlashAICB_x2F_buildings_x2F__x3C_Path_x3E__x5F_1" viewBox="0 -75.8 25.6 75.8">
	<g id="Layer_1_2_">
		<path style="fill-rule:evenodd;clip-rule:evenodd;fill:#C9D0D0;" d="M25.6,0L9.5-73.75L7.1-75.8L0-75.35l15.5,57.6
			c1,4.767,2.15,8.417,3.45,10.95C20.583-3.567,22.8-1.3,25.6,0z"/>
	</g>
</symbol>
<symbol  id="FlashAICB_x2F_buildings_x2F__x3C_Path_x3E__x5F_1_x5F_0" viewBox="0 -25 20.55 25.02">
	<g id="Layer_1_5_">
		<path style="fill-rule:evenodd;clip-rule:evenodd;fill:#697372;" d="M18.2-10.3c1.3-2.333,2.066-4.684,2.3-7.05
			c0.133-1.767,0-3.566-0.4-5.4c-0.233-0.933-0.467-1.683-0.7-2.25c-0.1,1.333-0.316,2.917-0.65,4.75
			c-0.667,3.667-1.567,6.717-2.7,9.15c-1.267,2.7-3.683,5.167-7.25,7.4C5.7-1.767,2.767-0.533,0,0c1,0.067,2.25-0.033,3.75-0.3
			c3.033-0.567,5.9-1.75,8.6-3.55C14.75-5.45,16.7-7.6,18.2-10.3z"/>
	</g>
</symbol>
<symbol  id="FlashAICB_x2F_buildings_x2F__x3C_Path_x3E__x5F_2" viewBox="0.027 -30.355 37.623 30.355">
	<g id="Layer_1_4_">
		<path style="fill-rule:evenodd;clip-rule:evenodd;fill:#697372;" d="M2.05-20.55c-2.066,3.566-2.55,8.066-1.45,13.5
			C1.133-4.35,1.883-2,2.85,0C1.783-7.533,2.833-13.867,6-19c2.7-4.4,6.317-7.167,10.85-8.3c4.333-1.1,9.1-0.934,14.3,0.5
			c2.6,0.733,4.767,1.566,6.5,2.5c-1-1.133-2.467-2.217-4.4-3.25c-3.867-2.133-8.1-3.05-12.7-2.75
			C11.717-29.867,5.55-26.617,2.05-20.55z"/>
	</g>
</symbol>
<symbol  id="FlashAICB_x2F_buildings_x2F__x3C_Path_x3E__x5F_3" viewBox="-0.043 -27.85 28.626 27.877">
	<g id="Layer_1_3_">
		<path style="fill-rule:evenodd;clip-rule:evenodd;fill:none;stroke:#697372;stroke-miterlimit:10;" d="M14.45-0.5
			C11.383-0.3,8.467-1.217,5.7-3.25C2.533-5.617,0.8-8.8,0.5-12.8c-0.3-4.233,0.967-7.75,3.8-10.55c2.7-2.667,6.083-4,10.15-4
			c3.466,0,6.633,1.4,9.5,4.2c3,3,4.367,6.45,4.1,10.35c-0.267,3.733-1.883,6.75-4.85,9.05C20.667-1.817,17.75-0.733,14.45-0.5z"/>
	</g>
</symbol>
<g>
	
		<linearGradient id="SVGID_1_" gradientUnits="userSpaceOnUse" x1="-50.8091" y1="-36.0435" x2="-19.637" y2="-36.0435" gradientTransform="matrix(-0.9937 -0.1123 0.1123 -0.9937 -5.066395e-006 -4.010648e-004)">
		<stop  offset="0" style="stop-color:#C9D0D0"/>
		<stop  offset="1" style="stop-color:#98A9A8"/>
	</linearGradient>
	<path style="fill-rule:evenodd;clip-rule:evenodd;fill:url(#SVGID_1_);" d="M53.8,12.7l-8.5,67L1.8,76.85l15.5-57.6
		c1-4.767,2.15-8.417,3.45-10.95c1.633-3.233,3.85-5.5,6.65-6.8c2.1-1,4.55-1.5,7.35-1.5c5.033,0,9.3,1.3,12.8,3.9
		C50.55,6.167,52.634,9.1,53.8,12.7z"/>
	
		<use xlink:href="#FlashAICB_x2F_buildings_x2F__x3C_Path_x3E__x5F_1"  width="25.6" height="75.8" y="-75.8" transform="matrix(1 0 0 -1 1.7998 1.5)" style="overflow:visible;enable-background:new    ;"/>
	<g>
		<path style="fill-rule:evenodd;clip-rule:evenodd;fill:#697372;" d="M21.5,63c8,0,14.217,2.233,18.65,6.7
			c3.933,4,5.833,8.934,5.699,14.8c-0.166,5.767-2.233,10.7-6.199,14.8C35.283,103.767,29.6,106,22.6,106
			c-7.434,0-13.217-2.233-17.35-6.7c-3.667-4-5.417-8.934-5.25-14.8c0.133-5.767,2.05-10.7,5.75-14.8
			C9.783,65.233,15.033,63,21.5,63z"/>
		
			<use xlink:href="#FlashAICB_x2F_buildings_x2F__x3C_Path_x3E__x5F_3"  width="28.626" height="27.877" x="-0.043" y="-27.85" transform="matrix(1 0 0 -1 7.9502 71.5)" style="overflow:visible;opacity:0.25;enable-background:new    ;"/>
		
			<use xlink:href="#FlashAICB_x2F_buildings_x2F__x3C_Path_x3E__x5F_2"  width="37.623" height="30.355" x="0.027" y="-30.355" transform="matrix(1 0 0 -1 1.25 74.7002)" style="overflow:visible;opacity:0.3008;enable-background:new    ;"/>
		
			<use xlink:href="#FlashAICB_x2F_buildings_x2F__x3C_Path_x3E__x5F_1_x5F_0"  width="20.55" height="25.02" y="-25" transform="matrix(1 0 0 -1 24.0498 64.8496)" style="overflow:visible;opacity:0.3008;enable-background:new    ;"/>
		
			<use xlink:href="#FlashAICB_x2F_buildings_x2F__x3C_Path_x3E_"  width="6.125" height="5.935" y="-5.926" transform="matrix(1 0 0 -1 19.7998 81.8496)" style="overflow:visible;enable-background:new    ;"/>
		<path style="fill-rule:evenodd;clip-rule:evenodd;fill:#404646;" d="M24.45,85.15c0.167-1.434-0.55-2.184-2.15-2.25
			c-1.333-0.067-2.066,0.6-2.2,2c-0.133,1.366,0.633,2.116,2.3,2.25C23.633,87.217,24.317,86.55,24.45,85.15z M17.65,78.8
			c0.6-0.434,1.25-0.783,1.95-1.05l0.2-4.1l5.25,0.25l0.3,3.8c0.6,0.2,1.034,0.383,1.3,0.55l2.5-2.25l2.649,3l-2.45,2.05
			C29.65,81.65,29.9,82.3,30.1,83l3.551-0.1l0.649,4.85H29.9c-0.101,0.434-0.25,0.816-0.45,1.15l3.2,2.1l-2.5,3.65l-3.25-2.7
			c-0.834,0.533-1.634,0.883-2.4,1.05l-0.1,4h-4l-0.3-4c-0.733-0.134-1.4-0.384-2-0.75l-2.45,3.4l-3.25-2.9l3.25-2.85
			c-0.3-0.467-0.533-0.917-0.7-1.351L9.9,88.65l0.15-5l4.6-0.351l0.55-1.5l-3.3-2.149l2.4-3.5L17.65,78.8z"/>
	</g>
	
		<use xlink:href="#FlashAICB_x2F_buildings_x2F__x3C_Path_x3E__x5F_0"  width="16.25" height="48.5" y="-48.5" transform="matrix(1 0 0 -1 34.5498 11.75)" style="overflow:visible;opacity:0.5;enable-background:new    ;"/>
</g>
</svg>
