<?xml version="1.0" encoding="iso-8859-1"?>
<!-- Generator: Adobe Illustrator 15.1.0, SVG Export Plug-In . SVG Version: 6.00 Build 0)  -->
<!DOCTYPE svg PUBLIC "-//W3C//DTD SVG 1.1//EN" "http://www.w3.org/Graphics/SVG/1.1/DTD/svg11.dtd">
<svg version="1.1" id="buildings" xmlns="http://www.w3.org/2000/svg" xmlns:xlink="http://www.w3.org/1999/xlink" x="0px" y="0px"
	 width="242.5px" height="107.9px" viewBox="0 0 242.5 107.9" style="enable-background:new 0 0 242.5 107.9;" xml:space="preserve"
	>
<g>
	<g>
		
			<linearGradient id="SVGID_1_" gradientUnits="userSpaceOnUse" x1="38.187" y1="77.9082" x2="196.5693" y2="77.9082" gradientTransform="matrix(0.9708 -0.2401 0.2401 0.9708 -3.590882e-004 8.994341e-005)">
			<stop  offset="0" style="stop-color:#A6B6B9"/>
			<stop  offset="0.4667" style="stop-color:#C1CAC8"/>
			<stop  offset="1" style="stop-color:#A6B6B9"/>
		</linearGradient>
		<path style="fill-rule:evenodd;clip-rule:evenodd;fill:url(#SVGID_1_);" d="M242.5,35.4v63.5c-0.5,0.699-1.483,1.366-2.95,2
			c-1.434,0.6-3.083,0.983-4.95,1.149c-0.899,0.101-1.883,0.15-2.949,0.15c-0.4,0-1.617-0.233-3.65-0.7l-54.55-15.35h-0.05L171,85.4
			c-3.934-1.267-8.717-2.584-14.35-3.95c-3.267-0.834-7.784-1.867-13.551-3.101l-31.1-5.8h-0.05l-38.65-5.7L51,64.15L0,0.2
			C2.1,0.1,4.967,0.033,8.6,0h6.95c6.1,0.067,11.55,0.217,16.35,0.45c4.567,0.2,7.917,0.383,10.05,0.55
			c3.5,0.233,7.617,0.567,12.35,1l11.85,1.35c6.934,0.867,13.817,1.967,20.65,3.3l19,4.25c5.167,1.233,9.967,2.434,14.4,3.6
			l48.85,12.75c3.334,0.867,7.584,1.917,12.75,3.15h0.05c6.2,1.434,10.584,2.267,13.15,2.5l28.05,2.1c3.3,0.2,5.783,0.333,7.45,0.4
			H242.5z"/>
		<polygon style="fill-rule:evenodd;clip-rule:evenodd;fill:#B7CDD7;" points="15.55,0 73.3,66.85 58.5,65 8.6,0 		"/>
		<path style="fill-rule:evenodd;clip-rule:evenodd;fill:#EBEDED;" d="M84.75,68.4L31.9,0.45c4.567,0.2,7.917,0.383,10.05,0.55
			l58.4,69.7L84.75,68.4z"/>
		<polygon style="fill-rule:evenodd;clip-rule:evenodd;fill:#B4C4C9;" points="111.95,72.55 54.3,2 66.15,3.35 124.25,74.65 
			112,72.55 		"/>
		<polygon style="fill-rule:evenodd;clip-rule:evenodd;fill:#B7CDD7;" points="95.7,8.5 143.1,78.35 130.6,75.85 86.8,6.65 		"/>
		<path style="fill-rule:evenodd;clip-rule:evenodd;fill:#EBEDED;" d="M171,85.4c-3.934-1.267-8.717-2.584-14.35-3.95L105.8,10.9
			c5.167,1.233,9.967,2.434,14.4,3.6l53.2,71.65L171,85.4z"/>
		<polygon style="fill-rule:evenodd;clip-rule:evenodd;fill:#B4C4C9;" points="180.75,88.35 137,18.85 149.25,22.1 194.65,92.4 		
			"/>
		<path style="fill-rule:evenodd;clip-rule:evenodd;fill:#EBEDED;" d="M181.85,30.4l31.301,67.2l-11.7-3.25l-32.4-67.1
			c3.334,0.867,7.584,1.917,12.75,3.15H181.85z"/>
		<polygon style="fill-rule:evenodd;clip-rule:evenodd;fill:#EBEDED;" points="209.35,34.05 228,101.5 220.9,99.65 199.5,33.25 		
			"/>
		<path style="fill-rule:evenodd;clip-rule:evenodd;fill:#B7CDD7;" d="M232.2,35.4l7.35,65.5c-1.434,0.6-3.083,0.983-4.95,1.149
			L223.05,35c3.3,0.2,5.783,0.333,7.45,0.4H232.2z"/>
		<path style="fill-rule:evenodd;clip-rule:evenodd;fill:#919E9C;" d="M242.5,98.9v9h-8c-6.333,0-18.066-2.367-35.2-7.101
			c-9.366-2.566-23.616-6.833-42.75-12.8c-12.066-3.733-32-7.483-59.8-11.25c-13.9-1.9-26.6-3.417-38.1-4.55L51,64.15L70,65.6
			c15.267,1.334,29.367,2.983,42.3,4.95c9.3,1.4,20.117,3.634,32.45,6.7c6.733,1.667,15.316,3.884,25.75,6.65
			c3.333,0.833,15.8,4.333,37.4,10.5c10.5,3,18.699,4.5,24.6,4.5H242.5z"/>
	</g>
	<path style="fill-rule:evenodd;clip-rule:evenodd;fill:#677A79;" d="M174.7,91.15c4.666,1.333,10.3,2.683,16.899,4.05
		c6.4,1.3,11.767,2.2,16.101,2.7c3.533,0.433,8.883,1.933,16.05,4.5c3.6,1.3,6.833,2.55,9.7,3.75c-2.834,0.166-7.25-0.334-13.25-1.5
		c-9.9-1.934-22.566-5.101-38-9.5c-10.867-3.334-19.517-5.95-25.95-7.851c-11.833-3.533-21.184-5.916-28.05-7.149
		c-6.967-1.233-20.233-3.101-39.8-5.601L61.2,71.15l21.9,1.8c15.967,1.434,27.333,2.666,34.1,3.7
		C127.733,78.283,146.9,83.116,174.7,91.15z"/>
	<path style="fill-rule:evenodd;clip-rule:evenodd;fill:#C2C8C7;" d="M127.7,75.65c-11.167-1.167-21.417-2.334-30.75-3.5
		c-5.833-0.733-12.5-1.5-20-2.301l-9.5-0.949l13.3,0.5c10.267,0.5,19,1.166,26.2,2c7.2,0.833,12.816,1.8,16.85,2.899
		C125.833,74.833,127.134,75.283,127.7,75.65z"/>
</g>
</svg>
