<?xml version="1.0" encoding="iso-8859-1"?>
<!-- Generator: Adobe Illustrator 15.1.0, SVG Export Plug-In . SVG Version: 6.00 Build 0)  -->
<!DOCTYPE svg PUBLIC "-//W3C//DTD SVG 1.1//EN" "http://www.w3.org/Graphics/SVG/1.1/DTD/svg11.dtd">
<svg version="1.1" id="stonePillar_x5F_04.ai" xmlns="http://www.w3.org/2000/svg" xmlns:xlink="http://www.w3.org/1999/xlink"
	 x="0px" y="0px" width="20.7px" height="76.7px" viewBox="0 0 20.7 76.7" style="enable-background:new 0 0 20.7 76.7;"
	 xml:space="preserve">
<g>
	<g>
		<polygon style="fill-rule:evenodd;clip-rule:evenodd;fill:#AAB2B5;" points="13.3,3.35 20.7,3.35 18.95,12.8 15.85,15.35 
			17.65,17.4 15.35,31.2 18.65,38.6 14.85,47.3 16.65,56 16.1,61.85 19.45,67.5 19.5,75.15 12.55,76.7 7.15,59.3 6.4,33.75 		"/>
		<polygon style="fill-rule:evenodd;clip-rule:evenodd;fill:#939A9D;" points="3.35,3.1 13.3,3.35 10,18.65 8.2,25.05 11.75,37.6 
			9.5,48.8 10.5,51.65 12.55,76.7 0,74.65 3.6,64.15 1.3,55.2 5.4,41.4 1.3,35.05 3.35,24.3 5.65,19.7 1.8,18.15 		"/>
		<polygon style="fill-rule:evenodd;clip-rule:evenodd;fill:#CDD1D2;" points="3.35,3.1 11.5,0 20.7,3.35 12.55,7.15 		"/>
	</g>
	<polygon style="fill-rule:evenodd;clip-rule:evenodd;fill:#696F71;" points="5.4,41.4 7.75,40.05 4,47.3 	"/>
	<polygon style="fill-rule:evenodd;clip-rule:evenodd;fill:#696F71;" points="2,69.55 3.6,64.15 9.25,65.8 5,65.8 	"/>
	<polygon style="fill-rule:evenodd;clip-rule:evenodd;fill:#696F71;" points="5.65,19.7 8.75,18.05 5.5,23.3 3.35,24.3 	"/>
	<polygon style="fill-rule:evenodd;clip-rule:evenodd;fill:#696F71;" points="6.1,29.55 7.25,33.3 7.35,38.3 5.25,33.05 	"/>
	<polygon style="fill-rule:evenodd;clip-rule:evenodd;fill:#CDD1D2;" points="18.65,38.6 13,33.8 17,34.8 	"/>
	<polygon style="fill-rule:evenodd;clip-rule:evenodd;fill:#CDD1D2;" points="17.65,17.4 13.25,19.3 15.85,15.35 	"/>
	<polygon style="fill-rule:evenodd;clip-rule:evenodd;fill:#CDD1D2;" points="19.45,67.5 14,65.05 17.25,64.05 	"/>
	<g>
		<g>
			<path style="fill-rule:evenodd;clip-rule:evenodd;fill:#54585B;" d="M7.3,9.1c0.367,0.133,0.483,0.316,0.35,0.55
				S7.367,9.917,7.2,9.75C7.067,9.683,7,9.55,7,9.35C6.967,9.15,7.067,9.067,7.3,9.1z"/>
		</g>
	</g>
	<g>
		<g>
			<path style="fill-rule:evenodd;clip-rule:evenodd;fill:#54585B;" d="M6.95,26.7C6.583,27.1,6.267,27.15,6,26.85
				c-0.267-0.3-0.233-0.517,0.1-0.65c0.133-0.133,0.35-0.15,0.65-0.05S7.117,26.433,6.95,26.7z"/>
		</g>
	</g>
	<g>
		<g>
			<path style="fill-rule:evenodd;clip-rule:evenodd;fill:#54585B;" d="M6.7,50.6c0.433,0.167,0.583,0.45,0.45,0.851
				c-0.1,0.399-0.35,0.467-0.75,0.2C6.1,51.45,6,51.2,6.1,50.9C6.233,50.566,6.433,50.467,6.7,50.6z"/>
		</g>
	</g>
	<g>
		<g>
			<path style="fill-rule:evenodd;clip-rule:evenodd;fill:#54585B;" d="M6.15,55.6c0.7,0.134,1.033,0.667,1,1.601
				c0,0.899-0.566,1.184-1.7,0.85c-0.967-0.733-1.2-1.383-0.7-1.95C5.183,55.566,5.65,55.4,6.15,55.6z"/>
		</g>
	</g>
	<g>
		<g>
			<path style="fill-rule:evenodd;clip-rule:evenodd;fill:#54585B;" d="M7.15,68.25c0.934-0.033,1.417,0.333,1.45,1.1
				C8.667,70.15,8.3,70.5,7.5,70.4c-0.8-0.101-1.2-0.483-1.2-1.15C6.333,68.65,6.617,68.316,7.15,68.25z"/>
		</g>
	</g>
	<g>
		<g>
			<path style="fill-rule:evenodd;clip-rule:evenodd;fill:#54585B;" d="M3.5,72.65C3.933,72.55,4.2,72.7,4.3,73.1
				C4.367,73.5,4.2,73.7,3.8,73.7c-0.367,0-0.583-0.167-0.65-0.5C3.117,72.9,3.233,72.717,3.5,72.65z"/>
		</g>
	</g>
	<g>
		<g>
			<path style="fill-rule:evenodd;clip-rule:evenodd;fill:#54585B;" d="M10,73.05c0.4-0.166,0.717-0.05,0.95,0.351
				c0.233,0.399,0.083,0.666-0.45,0.8c-0.5,0.033-0.783-0.134-0.85-0.5C9.583,73.366,9.7,73.15,10,73.05z"/>
		</g>
	</g>
	<g>
		<g>
			<path style="fill-rule:evenodd;clip-rule:evenodd;fill:#54585B;" d="M15.7,72c0.033-0.1,0.116-0.15,0.25-0.15
				c0.133,0,0.166,0.084,0.1,0.25c-0.033,0.034-0.1,0.051-0.2,0.051C15.717,72.15,15.667,72.1,15.7,72z"/>
		</g>
	</g>
	<g>
		<g>
			<path style="fill-rule:evenodd;clip-rule:evenodd;fill:#54585B;" d="M11.85,50.55c0.334-0.633,0.801-0.833,1.4-0.6
				c0.6,0.267,0.667,0.684,0.2,1.25c-0.367,0.467-0.783,0.583-1.25,0.35S11.616,50.983,11.85,50.55z"/>
		</g>
	</g>
	<g>
		<g>
			<path style="fill-rule:evenodd;clip-rule:evenodd;fill:#54585B;" d="M14.4,57.5c0.666-0.5,1.166-0.483,1.5,0.05
				c0.366,0.566,0.267,0.967-0.301,1.2c-0.5,0.233-0.916,0.167-1.25-0.2C14.017,58.15,14.033,57.8,14.4,57.5z"/>
		</g>
	</g>
	<g>
		<g>
			<path style="fill-rule:evenodd;clip-rule:evenodd;fill:#54585B;" d="M15.7,37.95c0.566-0.333,1.083-0.184,1.55,0.45
				c0.434,0.6,0.233,1.067-0.6,1.4c-0.867,0.134-1.367-0.1-1.5-0.7C15.05,38.533,15.233,38.15,15.7,37.95z"/>
		</g>
	</g>
	<g>
		<g>
			<path style="fill-rule:evenodd;clip-rule:evenodd;fill:#54585B;" d="M11.9,25.75c0.333-0.333,0.616-0.367,0.85-0.1
				c0.267,0.267,0.25,0.483-0.05,0.65c-0.233,0.2-0.467,0.217-0.7,0.05C11.767,26.183,11.733,25.983,11.9,25.75z"/>
		</g>
	</g>
	<g>
		<g>
			<path style="fill-rule:evenodd;clip-rule:evenodd;fill:#54585B;" d="M15.5,21.4c0.167-0.3,0.366-0.383,0.6-0.25
				c0.233,0.1,0.284,0.267,0.15,0.5c-0.2,0.267-0.4,0.333-0.6,0.2C15.483,21.75,15.434,21.6,15.5,21.4z"/>
		</g>
	</g>
	<g>
		<g>
			<path style="fill-rule:evenodd;clip-rule:evenodd;fill:#54585B;" d="M15.95,10c0.6-1.167,1.184-1.467,1.75-0.9
				c0.633,0.633,0.684,1.066,0.149,1.3c-0.1,0.333-0.466,0.533-1.1,0.6S15.85,10.733,15.95,10z"/>
		</g>
	</g>
</g>
</svg>
