<?xml version="1.0" encoding="iso-8859-1"?>
<!-- Generator: Adobe Illustrator 15.1.0, SVG Export Plug-In . SVG Version: 6.00 Build 0)  -->
<!DOCTYPE svg PUBLIC "-//W3C//DTD SVG 1.1//EN" "http://www.w3.org/Graphics/SVG/1.1/DTD/svg11.dtd">
<svg version="1.1" id="buildings" xmlns="http://www.w3.org/2000/svg" xmlns:xlink="http://www.w3.org/1999/xlink" x="0px" y="0px"
	 width="79.65px" height="80.2px" viewBox="0 0 79.65 80.2" style="enable-background:new 0 0 79.65 80.2;" xml:space="preserve">
<g>
	<g>
		<path style="fill-rule:evenodd;clip-rule:evenodd;fill:#A6B6B9;" d="M16.9,3.65c2.167-0.033,4.083-0.133,5.75-0.3
			c1.9-0.133,3.55-0.367,4.95-0.7c2.1-0.467,3.633-1.05,4.6-1.75C32.667,0.567,32.933,0.267,33,0l46.65,57l-6,15.7L0,67.2V3.7
			L16.9,3.65z"/>
		<polygon style="fill-rule:evenodd;clip-rule:evenodd;fill:#B7CDD7;" points="5.75,3.7 32.7,69.6 6.75,67.7 1.55,3.7 		"/>
		<polygon style="fill-rule:evenodd;clip-rule:evenodd;fill:#B4C4C9;" points="16.9,3.65 54.95,71.2 37.95,69.7 11.05,3.7 		"/>
		<path style="fill-rule:evenodd;clip-rule:evenodd;fill:#EBEDED;" d="M27.6,2.65L74.45,66.7l-11,3.5L22.65,3.35
			C24.55,3.217,26.2,2.983,27.6,2.65z"/>
		<path style="fill-rule:evenodd;clip-rule:evenodd;fill:#919E9C;" d="M0,67.2c40-1.167,62.55-2.167,67.65-3
			c4.633-0.767,8.033-2.2,10.199-4.3c1.003-0.972,1.595-1.88,1.775-2.726L75.5,80.2c-25.467-2.667-42.8-4-52-4H0V67.2z"/>
	</g>
	<path style="fill-rule:evenodd;clip-rule:evenodd;fill:#677A79;" d="M4.1,73.075c3.423-0.483,7.473-0.908,12.15-1.275
		c10.267-0.767,18.417-0.633,24.45,0.4c4.833,0.833,10.8,1.983,17.899,3.45c5.167,0.866,8.95,0.716,11.351-0.45
		c2.399-1.134,2.95-2.733,1.649-4.8l-2.649-2.7l2.8,1.7c1.767,1.399,2.333,2.833,1.7,4.3c-0.8,1.833-2.717,3.017-5.75,3.55
		c-3.3,0.533-7.717,0.267-13.25-0.8c-5.934-1.167-14.917-2.15-26.95-2.95C16.09,72.758,8.291,72.616,4.1,73.075z"/>
	<path style="fill-rule:evenodd;clip-rule:evenodd;fill:#C2C8C7;" d="M41.7,69.95c-4.667-0.167-14.583-0.417-29.75-0.75
		c22.5-0.667,36.416-0.917,41.75-0.75c3.967,0.133,7.434,0.934,10.399,2.399c1.233,0.601,1.834,1.117,1.801,1.551
		c-0.034,0.466-0.851,0.733-2.45,0.8c-2.4,0.1-6-0.384-10.8-1.45C47.483,70.616,43.833,70.017,41.7,69.95z"/>
</g>
</svg>
