<?xml version="1.0" encoding="iso-8859-1"?>
<!-- Generator: Adobe Illustrator 15.1.0, SVG Export Plug-In . SVG Version: 6.00 Build 0)  -->
<!DOCTYPE svg PUBLIC "-//W3C//DTD SVG 1.1//EN" "http://www.w3.org/Graphics/SVG/1.1/DTD/svg11.dtd">
<svg version="1.1" id="stoneStatue.ai" xmlns="http://www.w3.org/2000/svg" xmlns:xlink="http://www.w3.org/1999/xlink" x="0px"
	 y="0px" width="152.7px" height="383.45px" viewBox="0 0 152.7 383.45" style="enable-background:new 0 0 152.7 383.45;"
	 xml:space="preserve">
<g>
	<g>
		<g>
			
				<linearGradient id="SVGID_1_" gradientUnits="userSpaceOnUse" x1="-63.5923" y1="-161.752" x2="204.9171" y2="-161.752" gradientTransform="matrix(-0.5734 0.8192 -0.8192 -0.5734 7.772446e-004 1.516342e-004)">
				<stop  offset="0" style="stop-color:#C8CDCE"/>
				<stop  offset="1" style="stop-color:#9DA6A9"/>
			</linearGradient>
			<path style="fill-rule:evenodd;clip-rule:evenodd;fill:url(#SVGID_1_);" d="M143.15,48.65L144.1,74.4l8.601,18.15l-5.75,50.55
				l-14.3,8.6l-8.601,33.95l-8.1,13.85l6.7,14.3l-11,23.4l-3.351,31.95l-3.3,4.75l4.75,4.8l-2.4,38.149L104,320.2v10.5l4.8,0.45
				l9.55,21.949l4.851,14.95c-3.967,0.8-9.584,3.384-16.851,7.75c-3.633,2.167-6.866,4.25-9.699,6.25l-19.601,1.4L63,379.8
				l-31.5-11.45L40.1,335l-6.3-52.85l5.35-6.25l-0.7-33.051L30.7,239.7l-3.15-61.35L40.6,166.7l-17.45-13.2l-5-12.3L0,87.75
				L2.9,56.3l8.55-18.15L8.95,7.3L45.8,0L56,13.35L64.9,0L98,2.2l6,11.8l6.05-7l30.25,2.85l7,29.25L143.15,48.65z"/>
			<polygon style="fill-rule:evenodd;clip-rule:evenodd;fill:#939A9D;" points="82.8,38.45 65.4,32.65 56,13.35 64.9,0 83.25,1.4 
				77.8,12.4 81.6,27.4 			"/>
			<polygon style="fill-rule:evenodd;clip-rule:evenodd;fill:#939A9D;" points="27.7,4.05 31.05,23.6 47.95,43.9 32.95,48.15 
				21,41.75 16.25,35.3 8.95,7.3 			"/>
			<polygon style="fill-rule:evenodd;clip-rule:evenodd;fill:#939A9D;" points="122.65,42.1 109.5,35.75 104,14 110.05,7 130,9.05 
				123.6,19.05 127.9,41.75 			"/>
			<polygon style="fill-rule:evenodd;clip-rule:evenodd;fill:#777E81;" points="83.1,33.05 94.25,34.65 99,30.85 99.95,13.35 
				101.55,33.05 95.85,36.55 82.8,38.45 71.05,34.65 68.5,9.2 75.15,30.55 			"/>
			<polygon style="fill-rule:evenodd;clip-rule:evenodd;fill:#777E81;" points="124.1,38.3 132.9,39.15 141.1,33.9 139.05,14.8 
				143.45,34.75 133.8,40.9 122.65,42.1 113.55,37.4 113.25,16 117.95,33 			"/>
			<polygon style="fill-rule:evenodd;clip-rule:evenodd;fill:#777E81;" points="50.6,10.7 58.95,35.3 47.95,43.9 32.95,48.15 
				21,41.75 17.2,11.05 29.85,39.6 37.45,42.45 47.5,41.25 56.8,35.55 			"/>
			<polygon style="fill-rule:evenodd;clip-rule:evenodd;fill:#939A9D;" points="92.35,66.8 83.65,47.7 98.8,63.9 103.8,80.85 
				110.7,86.8 113.55,94.2 120.7,98.75 128.2,101.15 119.3,102.8 106.65,93.95 95.9,90.4 			"/>
			<polygon style="fill-rule:evenodd;clip-rule:evenodd;fill:#777E81;" points="94.5,66.8 99.9,84.6 108.8,89.7 111,97.65 
				102.75,96.65 87.5,97.65 83.65,88.1 90.05,84.6 89.7,67.1 83.65,47.7 			"/>
			<polygon style="fill-rule:evenodd;clip-rule:evenodd;fill:#777E81;" points="102.75,96.65 104,96.05 108.8,93.2 118.95,100.15 
				128.2,101.15 128.2,95.4 116.75,83.65 102.75,48.95 112.3,66.8 118,81.4 129.15,94.15 132.65,104.6 118.35,105.6 111.35,100.15 
							"/>
			<path style="fill-rule:evenodd;clip-rule:evenodd;fill:#777E81;" d="M125.5,111.6c-6.033,0.667-10.967,1.633-14.8,2.9
				c-2.367,0.8-6.267,0.633-11.7-0.5l-7.4-1.9l-13.8,10l13.8-12.4l7.15,0.9c5.267,0.566,9.1,0.75,11.5,0.55
				c3.8-0.333,9.2-1.283,16.2-2.85l12.399,10.95L125.5,111.6z"/>
			<polygon style="fill-rule:evenodd;clip-rule:evenodd;fill:#777E81;" points="97.35,127.35 104,118.8 116.9,117.35 118.8,130.7 
				114.05,120.2 106.4,121.15 			"/>
			<polygon style="fill-rule:evenodd;clip-rule:evenodd;fill:#878F92;" points="8.95,7.3 16.25,35.3 16.7,56.3 31.05,74.4 
				54.4,106.85 62.05,128.8 66.35,154.1 99.25,159.8 146.95,143.1 132.65,151.7 97.35,166.95 77.3,167.9 63.95,345.95 65.4,373.15 
				72.55,382.7 55.7,378.25 31.5,368.35 34.55,332.3 33.95,282.2 38.9,275.85 38.5,242.75 30.45,239.6 27.45,178.35 40.6,166.6 
				23,153.55 18.15,141.2 0,87.75 2.9,56.3 11.45,38.15 			"/>
			<polygon style="fill-rule:evenodd;clip-rule:evenodd;fill:#696F71;" points="38.85,287 48.15,277.2 57.95,240.35 55.15,284.65 
				53.3,324.25 59.8,378.8 59.25,378.9 31.5,368.35 35.1,323.35 			"/>
			<polygon style="fill-rule:evenodd;clip-rule:evenodd;fill:#939A9D;" points="35.8,68.2 60.15,63.45 71.1,106.4 55.85,71.05 			
				"/>
			<polygon style="fill-rule:evenodd;clip-rule:evenodd;fill:#939A9D;" points="141.25,63.9 134.55,67.25 137.65,99.2 129.8,62.95 
							"/>
			<polygon style="fill-rule:evenodd;clip-rule:evenodd;fill:#939A9D;" points="116.2,163.25 118.35,168.85 90.2,179.95 
				70.05,314.25 81.25,173.7 			"/>
		</g>
		<polygon style="fill-rule:evenodd;clip-rule:evenodd;fill:#696F71;" points="45.35,188.15 52.8,187.7 67.25,165.8 61.65,214.75 
			49.55,216.6 45.35,237.1 35.55,229.65 34.15,179.3 		"/>
		<polygon style="fill-rule:evenodd;clip-rule:evenodd;fill:#696F71;" points="10.4,54.4 16,81.9 42.1,109.4 58.9,155.1 91.5,163 
			132.65,151.7 97.35,166.95 77.3,167.9 57,161.6 40.6,166.6 21.4,152.55 0,87.75 5.75,56.75 		"/>
		<polygon style="fill-rule:evenodd;clip-rule:evenodd;fill:#696F71;" points="97.7,188.75 97.35,194 100.1,195.75 93.85,195.75 		
			"/>
		<polygon style="fill-rule:evenodd;clip-rule:evenodd;fill:#696F71;" points="105.35,186.65 106.75,191.2 110.6,194 103.95,194.35 
					"/>
		<path style="fill-rule:evenodd;clip-rule:evenodd;fill:#696F71;" d="M103.95,218.45c1.399,0.399,2.684,0.517,3.85,0.35
			c-0.633,0.367-1.483,0.55-2.55,0.55c-2.167,0.067-4.333-0.699-6.5-2.3c-1.733-1.267-2.95-4.083-3.65-8.45l-0.55-6.199h1.75
			L96.15,205c0.1,2.333,0.733,4.95,1.899,7.85C99.184,215.783,101.15,217.65,103.95,218.45z"/>
		<polygon style="fill-rule:evenodd;clip-rule:evenodd;fill:#696F71;" points="105,201.15 106.25,203.95 108.35,205 105.2,205.35 		
			"/>
		<polygon style="fill-rule:evenodd;clip-rule:evenodd;fill:#696F71;" points="105.35,210.95 106.4,214.1 109.4,215.65 105.2,215.5 
					"/>
		<polygon style="fill-rule:evenodd;clip-rule:evenodd;fill:#696F71;" points="87.2,226.45 87.8,228.75 90.1,228.85 91.85,226 
			92,229 97.8,229 99.1,226.15 99.7,228.9 105.75,228.4 106.75,225.8 107.35,228.55 111.55,228.35 111.4,230 86.05,231.65 		"/>
		<path style="fill-rule:evenodd;clip-rule:evenodd;fill:#54585B;" d="M95.5,316.05l1.2-2.45l1.7-0.399l-7,22l-1.7-1.45l-7.15-20.5
			l1.851-0.05l4.8,7.7c0.467,0.333,1.533-0.051,3.2-1.15C93.434,319.05,94.467,317.816,95.5,316.05z"/>
		<path style="fill-rule:evenodd;clip-rule:evenodd;fill:#CDD1D2;" d="M84.4,313.2l2.6,3.85c1.9,2.566,3.366,3.851,4.4,3.851
			c1.966,0,3.733-1.284,5.3-3.851l1.7-3.85l-7,22L84.4,313.2z"/>
		<polygon style="fill-rule:evenodd;clip-rule:evenodd;fill:#54585B;" points="18.15,116.3 25.4,112.55 33.4,119.55 22.9,117.8 
			22.15,125.8 26.15,133.05 20.4,129.05 		"/>
		<polygon style="fill-rule:evenodd;clip-rule:evenodd;fill:#54585B;" points="83.9,88.3 90.9,94.55 104.4,94.05 111,97.65 
			118.35,105.6 109.15,99.05 102.75,96.65 87.5,97.65 		"/>
		<path style="fill-rule:evenodd;clip-rule:evenodd;fill:#54585B;" d="M126.45,108.3l12.399,10.95L125.9,109.8
			c-9.167,2.167-15.334,3.25-18.5,3.25c-1.967,0-5.017-0.367-9.15-1.1l-5.6-1.15L77.8,122.1l13.8-12.4l7.7,0.7
			c5.5,0.467,9.15,0.717,10.95,0.75C113.15,111.183,118.55,110.233,126.45,108.3z"/>
		<polygon style="fill-rule:evenodd;clip-rule:evenodd;fill:#54585B;" points="40.6,166.6 39.4,165.55 58.15,158.8 77.65,166.55 
			97.9,165.55 131.9,151.8 97.35,166.95 77.3,167.9 57.9,161.8 		"/>
		<path style="fill-rule:evenodd;clip-rule:evenodd;fill:#54585B;" d="M58.9,191.05l-2.7,9.7c-0.6-0.566-1.333-1.1-2.2-1.6
			c-1.7-1-3.183-1.367-4.45-1.101c-1.233,0.3-2.667,1-4.3,2.101c-0.8,0.566-1.483,1.1-2.05,1.6l-1.3,12h-1.7l-0.3-16.7L58.9,191.05z
			"/>
		<polygon style="fill-rule:evenodd;clip-rule:evenodd;fill:#54585B;" points="45.35,237.1 42.2,238.75 35.55,229.65 		"/>
		<polygon style="fill-rule:evenodd;clip-rule:evenodd;fill:#54585B;" points="61.65,214.75 59.2,220.05 49.55,216.6 60.55,215.05 
					"/>
		<polygon style="fill-rule:evenodd;clip-rule:evenodd;fill:#54585B;" points="67.25,165.8 52.8,187.7 49.2,188.05 		"/>
		<polygon style="fill-rule:evenodd;clip-rule:evenodd;fill:#54585B;" points="57.95,240.35 49.65,277.8 39.9,287.05 31.5,368.35 
			36.9,285.8 46.4,276.8 		"/>
		<polygon style="fill-rule:evenodd;clip-rule:evenodd;fill:#54585B;" points="45.4,293.05 52.4,296.8 47.4,295.3 43.15,312.8 
			40.4,328.55 40.15,313.8 		"/>
		<polygon style="fill-rule:evenodd;clip-rule:evenodd;fill:#54585B;" points="41.65,342.55 49.15,346.3 44.4,346.8 42.9,362.55 		
			"/>
		<path style="fill-rule:evenodd;clip-rule:evenodd;fill:#54585B;" d="M92.9,237.55l2.949,4.65c2.034,3.566,3.15,6.416,3.351,8.55
			s-1.017,5.4-3.65,9.8c-1.333,2.167-2.684,4.134-4.05,5.9l-1.3-0.351c4.133-8.899,6.2-14.3,6.2-16.199
			c0-1.167-0.801-3.534-2.4-7.101l-2.45-5.05L92.9,237.55z"/>
		<path style="fill-rule:evenodd;clip-rule:evenodd;fill:#CDD1D2;" d="M92.9,237.55c2.333,2.033,4.416,4.25,6.25,6.65
			c2.399,3.133,3.5,5.583,3.3,7.35c-0.2,1.634-2.084,4.617-5.65,8.95c-1.767,2.134-3.533,4.116-5.3,5.95
			c4.033-7.434,6.217-12.316,6.55-14.65c0.2-1.467-0.6-4.283-2.399-8.45L92.9,237.55z"/>
		<polygon style="fill-rule:evenodd;clip-rule:evenodd;fill:#54585B;" points="91.95,275.3 92.55,282.75 98.15,280.65 100.6,280.2 
			93.2,284.1 95.05,286.9 101.75,291.65 101.05,292.4 94.65,290.25 98.25,300.95 97.05,300.6 92.05,293.75 88,301.9 86.8,301.5 
			90.2,288.9 81.7,290.45 80.2,290.6 87.8,285.9 83.8,280.5 84.5,280.7 88.65,283.65 91.15,275.6 		"/>
		<polygon style="fill-rule:evenodd;clip-rule:evenodd;fill:#CDD1D2;" points="90.1,283.7 91.95,275.3 92.9,283 100.6,280.2 
			95,285.8 101.75,291.65 95,289.3 98.25,300.95 92.65,292.55 88,301.9 91.25,289.05 81.7,290.45 89.15,286.5 84.5,280.7 		"/>
		<path style="fill-rule:evenodd;clip-rule:evenodd;fill:#54585B;" d="M89.05,343.9l2,0.75L93.9,349.8
			c1.933,3.7,2.933,6.233,3,7.601c0.1,2.233-1.267,7.183-4.101,14.85l-2.6,0.15c2.133-8.667,3.2-13.934,3.2-15.801
			c0-1.199-0.717-3.666-2.15-7.399L89.05,343.9z"/>
		<path style="fill-rule:evenodd;clip-rule:evenodd;fill:#CDD1D2;" d="M93,349.55l-1.95-4.899l4.2,5.25
			c2.767,3.866,4.15,6.666,4.15,8.399c0,1.767-1.101,4.617-3.301,8.55c-1.1,1.967-2.199,3.767-3.3,5.4
			c1.4-6.967,2.101-11.85,2.101-14.65C94.9,355.866,94.267,353.184,93,349.55z"/>
		<polygon style="fill-rule:evenodd;clip-rule:evenodd;fill:#54585B;" points="45.65,241.55 38.5,242.75 30.45,239.6 44.65,239.55 
			66.65,230.8 		"/>
		<polygon style="fill-rule:evenodd;clip-rule:evenodd;fill:#54585B;" points="38.5,242.75 39.65,242.05 42.65,277.05 33.95,282.2 
			38.4,275.3 		"/>
		<polygon style="fill-rule:evenodd;clip-rule:evenodd;fill:#CDD1D2;" points="108.8,331.15 105.15,333.05 104,330.7 		"/>
		<polygon style="fill-rule:evenodd;clip-rule:evenodd;fill:#CDD1D2;" points="110.4,276.8 107.35,316.85 107.9,280.55 105,273.9 		
			"/>
		<polygon style="fill-rule:evenodd;clip-rule:evenodd;fill:#CDD1D2;" points="104.65,272.05 110.4,236.8 107.15,268.8 		"/>
		<polygon style="fill-rule:evenodd;clip-rule:evenodd;fill:#CDD1D2;" points="107.15,335.05 108.9,334.05 116.9,351.8 		"/>
		<polygon style="fill-rule:evenodd;clip-rule:evenodd;fill:#CDD1D2;" points="124.9,208.8 122.65,213.8 115.4,209.55 117.9,207.05 
			115.95,199.5 		"/>
		<polygon style="fill-rule:evenodd;clip-rule:evenodd;fill:#CDD1D2;" points="122.65,184.55 125.65,166.55 128.15,166.55 		"/>
		<polygon style="fill-rule:evenodd;clip-rule:evenodd;fill:#CDD1D2;" points="99.9,52.8 102.9,51.3 107.15,62.05 107.4,70.55 
			104.9,62.05 		"/>
		<polygon style="fill-rule:evenodd;clip-rule:evenodd;fill:#CDD1D2;" points="45.65,1.8 48.4,5.55 46.15,13.05 45.65,5.8 
			40.15,3.05 		"/>
		<polygon style="fill-rule:evenodd;clip-rule:evenodd;fill:#CDD1D2;" points="92.65,4.55 97.15,4.3 100.65,12.05 		"/>
		<polygon style="fill-rule:evenodd;clip-rule:evenodd;fill:#CDD1D2;" points="133.9,11.3 139.4,10.55 140.9,19.8 138.15,11.8 		"/>
		<polygon style="fill-rule:evenodd;clip-rule:evenodd;fill:#939A9D;" points="71.2,136.5 73.9,138.05 75.95,138.4 79.2,135.75 
			77.3,138.8 73.3,139.75 		"/>
		<polygon style="fill-rule:evenodd;clip-rule:evenodd;fill:#939A9D;" points="71.8,344.15 74.45,345.7 76.55,346.1 79.8,343.4 
			77.9,346.45 73.9,347.4 		"/>
		<polygon style="fill-rule:evenodd;clip-rule:evenodd;fill:#939A9D;" points="93.9,273.2 96.55,274.75 98.65,275.1 101.9,272.45 
			99.95,275.5 95.95,276.45 		"/>
		<polygon style="fill-rule:evenodd;clip-rule:evenodd;fill:#939A9D;" points="107.8,357.5 110.45,359.05 112.55,359.4 
			115.8,356.75 113.9,359.8 109.9,360.75 		"/>
		<polygon style="fill-rule:evenodd;clip-rule:evenodd;fill:#939A9D;" points="83.1,250.15 85.8,251.7 87.9,252.1 91.1,249.4 
			89.2,252.45 85.2,253.4 		"/>
		<polygon style="fill-rule:evenodd;clip-rule:evenodd;fill:#939A9D;" points="132.1,129.85 134.8,131.35 136.9,131.75 
			140.1,129.05 138.2,132.1 134.2,133.05 		"/>
		<polygon style="fill-rule:evenodd;clip-rule:evenodd;fill:#939A9D;" points="124.45,52.15 127.1,53.7 129.2,54.1 132.45,51.4 
			130.55,54.45 126.55,55.4 		"/>
		<polygon style="fill-rule:evenodd;clip-rule:evenodd;fill:#939A9D;" points="71.45,66.5 74.1,68.05 76.2,68.4 79.45,65.75 
			77.55,68.8 73.55,69.75 		"/>
		<polygon style="fill-rule:evenodd;clip-rule:evenodd;fill:#939A9D;" points="27.45,52.15 30.1,53.7 32.2,54.1 35.45,51.4 
			33.55,54.45 29.55,55.4 		"/>
	</g>
	<g>
		<g>
			<path style="fill-rule:evenodd;clip-rule:evenodd;fill:#54585B;" d="M80.75,376.3c-0.033-0.233,0.017-0.399,0.15-0.5
				c0.166-0.133,0.366-0.1,0.6,0.101c0.267,0.166,0.217,0.366-0.15,0.6C80.983,376.6,80.783,376.533,80.75,376.3z"/>
		</g>
	</g>
	<g>
		<g>
			<path style="fill-rule:evenodd;clip-rule:evenodd;fill:#54585B;" d="M110.45,367.35c0.233-0.5,0.517-0.649,0.85-0.449
				c0.367,0.199,0.434,0.449,0.2,0.75c-0.2,0.3-0.45,0.399-0.75,0.3C110.45,367.85,110.35,367.65,110.45,367.35z"/>
		</g>
	</g>
	<g>
		<g>
			<path style="fill-rule:evenodd;clip-rule:evenodd;fill:#54585B;" d="M106.85,353.85c0-0.267,0.167-0.416,0.5-0.449
				c0.301-0.034,0.4,0.149,0.301,0.55c-0.134,0.267-0.317,0.366-0.551,0.3S106.783,354.05,106.85,353.85z"/>
		</g>
	</g>
	<g>
		<g>
			<path style="fill-rule:evenodd;clip-rule:evenodd;fill:#54585B;" d="M104.35,360.2c-0.133-0.233-0.083-0.434,0.15-0.601
				c0.233-0.166,0.417-0.083,0.55,0.25c0.033,0.334-0.066,0.517-0.3,0.551C104.517,360.467,104.384,360.4,104.35,360.2z"/>
		</g>
	</g>
	<g>
		<g>
			<path style="fill-rule:evenodd;clip-rule:evenodd;fill:#54585B;" d="M102.5,349.05c-0.033-0.033,0.033-0.066,0.2-0.1
				c0.133-0.033,0.184,0.033,0.149,0.2c-0.166,0.166-0.267,0.199-0.3,0.1L102.5,349.05z"/>
		</g>
	</g>
	<g>
		<g>
			<path style="fill-rule:evenodd;clip-rule:evenodd;fill:#54585B;" d="M111.25,350.2c-0.2-0.7-0.017-1.117,0.55-1.25
				c0.566-0.134,0.851,0.083,0.851,0.649c0.066,0.434-0.117,0.75-0.551,0.95C111.667,350.75,111.384,350.634,111.25,350.2z"/>
		</g>
	</g>
	<g>
		<g>
			<path style="fill-rule:evenodd;clip-rule:evenodd;fill:#54585B;" d="M79.9,356.3c0.5,0.533,0.517,1.05,0.05,1.55
				c-0.467,0.467-0.884,0.384-1.25-0.25c-0.3-0.533-0.267-0.966,0.1-1.3C79.2,355.934,79.566,355.934,79.9,356.3z"/>
		</g>
	</g>
	<g>
		<g>
			<path style="fill-rule:evenodd;clip-rule:evenodd;fill:#54585B;" d="M72.25,362.35c-0.133-0.1-0.15-0.233-0.05-0.399
				c0.1-0.2,0.233-0.2,0.4,0C72.8,362.35,72.683,362.483,72.25,362.35z"/>
		</g>
	</g>
	<g>
		<g>
			<path style="fill-rule:evenodd;clip-rule:evenodd;fill:#54585B;" d="M80.95,364.45c-0.434-0.2-0.55-0.483-0.351-0.851
				c0.267-0.6,0.667-0.783,1.2-0.55c0.5,0.2,0.566,0.55,0.2,1.05C81.7,364.533,81.35,364.65,80.95,364.45z"/>
		</g>
	</g>
	<g>
		<g>
			<path style="fill-rule:evenodd;clip-rule:evenodd;fill:#54585B;" d="M72.8,334.2c-0.1-0.533,0.067-0.851,0.5-0.95
				c0.434-0.1,0.65,0.1,0.65,0.6c0,0.434-0.184,0.667-0.55,0.7C73.067,334.616,72.867,334.5,72.8,334.2z"/>
		</g>
	</g>
	<g>
		<g>
			<path style="fill-rule:evenodd;clip-rule:evenodd;fill:#54585B;" d="M69.55,367.15c-0.367-0.134-0.483-0.317-0.35-0.551
				s0.283-0.283,0.45-0.149c0.133,0.1,0.2,0.25,0.2,0.45C69.883,367.1,69.783,367.184,69.55,367.15z"/>
		</g>
	</g>
	<g>
		<g>
			<path style="fill-rule:evenodd;clip-rule:evenodd;fill:#54585B;" d="M65.9,355.35c-0.267-0.333-0.233-0.633,0.1-0.899
				c0.3-0.267,0.567-0.2,0.8,0.2C67.1,355.483,66.8,355.717,65.9,355.35z"/>
		</g>
	</g>
	<g>
		<g>
			<path style="fill-rule:evenodd;clip-rule:evenodd;fill:#54585B;" d="M72.5,320.25c0.133-0.6,0.45-0.833,0.95-0.7
				c0.533,0.134,0.65,0.434,0.35,0.9c-0.167,0.399-0.45,0.566-0.85,0.5C72.55,320.85,72.4,320.616,72.5,320.25z"/>
		</g>
	</g>
	<g>
		<g>
			<path style="fill-rule:evenodd;clip-rule:evenodd;fill:#54585B;" d="M102.5,305.2c0.267-0.3,0.55-0.351,0.85-0.15
				c0.301,0.2,0.284,0.434-0.05,0.7c-0.233,0.2-0.467,0.217-0.7,0.05C102.366,305.6,102.333,305.4,102.5,305.2z"/>
		</g>
	</g>
	<g>
		<g>
			<path style="fill-rule:evenodd;clip-rule:evenodd;fill:#54585B;" d="M96.75,309c0.033-0.4,0.167-0.55,0.4-0.45
				c0.267,0.134,0.333,0.25,0.199,0.351c0,0.199-0.1,0.316-0.3,0.35C96.884,309.25,96.783,309.167,96.75,309z"/>
		</g>
	</g>
	<g>
		<g>
			<path style="fill-rule:evenodd;clip-rule:evenodd;fill:#54585B;" d="M76.55,300.7c-0.5-0.5-0.483-1.117,0.05-1.851
				c0.534-0.733,1.134-0.633,1.801,0.301c0.399,1,0.267,1.633-0.4,1.899S76.85,301.2,76.55,300.7z"/>
		</g>
	</g>
	<g>
		<g>
			<path style="fill-rule:evenodd;clip-rule:evenodd;fill:#54585B;" d="M81.95,277.5c0.1-0.167,0.3-0.25,0.6-0.25
				c0.267,0,0.3,0.184,0.101,0.55c-0.2,0.233-0.4,0.283-0.601,0.15C81.884,277.816,81.85,277.667,81.95,277.5z"/>
		</g>
	</g>
	<g>
		<g>
			<path style="fill-rule:evenodd;clip-rule:evenodd;fill:#54585B;" d="M98.2,269.15c0.166-0.667,0.434-0.917,0.8-0.75
				c0.366,0.166,0.483,0.383,0.35,0.649c-0.066,0.3-0.25,0.467-0.55,0.5C98.434,269.616,98.233,269.483,98.2,269.15z"/>
		</g>
	</g>
	<g>
		<g>
			<path style="fill-rule:evenodd;clip-rule:evenodd;fill:#54585B;" d="M102.75,284.3c0.533-0.733,1.15-0.883,1.85-0.45
				c0.7,0.434,0.733,0.967,0.101,1.601c-0.667,0.6-1.25,0.666-1.75,0.2C102.45,285.184,102.384,284.733,102.75,284.3z"/>
		</g>
	</g>
	<g>
		<g>
			<path style="fill-rule:evenodd;clip-rule:evenodd;fill:#54585B;" d="M81.85,267.65c-0.633-0.7-0.649-1.301-0.05-1.801
				c0.566-0.533,1.05-0.449,1.45,0.25c0.4,0.7,0.35,1.233-0.15,1.601C82.634,268.033,82.217,268.017,81.85,267.65z"/>
		</g>
	</g>
	<g>
		<g>
			<path style="fill-rule:evenodd;clip-rule:evenodd;fill:#54585B;" d="M105.7,248.75c0.233-1.033,0.483-1.35,0.75-0.95
				c0.133,0.2,0.184,0.417,0.149,0.65c0-0.101-0.066-0.017-0.199,0.25C106.233,249.033,106,249.05,105.7,248.75z"/>
		</g>
	</g>
	<g>
		<g>
			<path style="fill-rule:evenodd;clip-rule:evenodd;fill:#54585B;" d="M103.4,241c-0.134-0.066-0.15-0.2-0.051-0.4
				c0.101-0.166,0.233-0.166,0.4,0c0.134,0.267,0.134,0.417,0,0.45C103.65,241.083,103.533,241.066,103.4,241z"/>
		</g>
	</g>
	<g>
		<g>
			<path style="fill-rule:evenodd;clip-rule:evenodd;fill:#54585B;" d="M87.55,241.85c-0.133-0.399-0.033-0.649,0.3-0.75
				c0.301-0.1,0.483,0,0.551,0.301c0.066,0.366-0.034,0.583-0.301,0.649S87.65,242.05,87.55,241.85z"/>
		</g>
	</g>
	<g>
		<g>
			<path style="fill-rule:evenodd;clip-rule:evenodd;fill:#54585B;" d="M84.3,258.75c-0.267-0.2-0.316-0.417-0.149-0.65
				c0.166-0.233,0.366-0.216,0.6,0.051c0.134,0.199,0.134,0.383,0,0.55C84.616,258.9,84.467,258.917,84.3,258.75z"/>
		</g>
	</g>
	<g>
		<g>
			<path style="fill-rule:evenodd;clip-rule:evenodd;fill:#54585B;" d="M73.45,239.35c-0.2-0.5-0.034-0.899,0.5-1.199
				c0.533-0.334,0.9-0.134,1.1,0.6c0,0.8-0.25,1.2-0.75,1.2C73.833,239.917,73.55,239.717,73.45,239.35z"/>
		</g>
	</g>
	<g>
		<g>
			<path style="fill-rule:evenodd;clip-rule:evenodd;fill:#54585B;" d="M72.95,250.35c-0.167-0.533-0.05-0.85,0.35-0.949
				c0.4-0.067,0.6,0.1,0.6,0.5c0.067,0.267-0.033,0.483-0.3,0.649C73.3,250.717,73.083,250.65,72.95,250.35z"/>
		</g>
	</g>
	<g>
		<g>
			<path style="fill-rule:evenodd;clip-rule:evenodd;fill:#54585B;" d="M88.85,233.9c0.267-0.2,0.434-0.217,0.5-0.051
				c0.101,0.233,0.084,0.367-0.05,0.4c-0.133,0.1-0.267,0.1-0.399,0C88.767,234.15,88.75,234.033,88.85,233.9z"/>
		</g>
	</g>
	<g>
		<g>
			<path style="fill-rule:evenodd;clip-rule:evenodd;fill:#54585B;" d="M78.65,233.55c0.066-0.7,0.383-1.033,0.949-1
				c0.601,0.066,0.817,0.384,0.65,0.95c-0.2,0.566-0.517,0.816-0.95,0.75C78.833,234.184,78.616,233.95,78.65,233.55z"/>
		</g>
	</g>
	<g>
		<g>
			<path style="fill-rule:evenodd;clip-rule:evenodd;fill:#54585B;" d="M114.8,216.55c0-0.1,0.084-0.149,0.25-0.149
				c0.134,0,0.15,0.083,0.05,0.25C114.833,216.783,114.733,216.75,114.8,216.55z"/>
		</g>
	</g>
	<g>
		<g>
			<path style="fill-rule:evenodd;clip-rule:evenodd;fill:#54585B;" d="M95.8,218.85c-0.366-0.3-0.416-0.649-0.149-1.05
				c0.267-0.399,0.583-0.383,0.949,0.05c0.301,0.467,0.301,0.817,0,1.051C96.267,219.1,96,219.083,95.8,218.85z"/>
		</g>
	</g>
	<g>
		<g>
			<path style="fill-rule:evenodd;clip-rule:evenodd;fill:#54585B;" d="M100.15,202.45c0.333-0.566,0.716-0.717,1.149-0.45
				c0.434,0.3,0.467,0.634,0.101,1c-0.267,0.366-0.584,0.45-0.95,0.25C100.083,203.083,99.983,202.816,100.15,202.45z"/>
		</g>
	</g>
	<g>
		<g>
			<path style="fill-rule:evenodd;clip-rule:evenodd;fill:#54585B;" d="M89.4,206.6c-0.233-0.399-0.15-0.716,0.25-0.949
				c0.399-0.267,0.683-0.15,0.85,0.35c0.1,0.533-0.033,0.833-0.4,0.9C89.767,206.967,89.533,206.866,89.4,206.6z"/>
		</g>
	</g>
	<g>
		<g>
			<path style="fill-rule:evenodd;clip-rule:evenodd;fill:#54585B;" d="M101.75,184.35c0.033-0.4,0.167-0.55,0.4-0.45
				c0.267,0.133,0.333,0.25,0.199,0.35c0,0.2-0.1,0.317-0.3,0.35C101.884,184.6,101.783,184.517,101.75,184.35z"/>
		</g>
	</g>
	<g>
		<g>
			<path style="fill-rule:evenodd;clip-rule:evenodd;fill:#54585B;" d="M115.5,180.7c0.134-0.233,0.3-0.284,0.5-0.15
				s0.217,0.284,0.05,0.45c-0.166,0.167-0.333,0.2-0.5,0.1C115.417,180.967,115.4,180.833,115.5,180.7z"/>
		</g>
	</g>
	<g>
		<g>
			<path style="fill-rule:evenodd;clip-rule:evenodd;fill:#54585B;" d="M117.25,188.65c0.6-0.467,1.066-0.45,1.4,0.05
				c0.3,0.466,0.216,0.816-0.25,1.05c-0.467,0.267-0.851,0.233-1.15-0.1C116.95,189.283,116.95,188.95,117.25,188.65z"/>
		</g>
	</g>
	<g>
		<g>
			<path style="fill-rule:evenodd;clip-rule:evenodd;fill:#54585B;" d="M93.3,183.7c-0.566-0.633-0.566-1.25,0-1.85
				c0.566-0.633,1.101-0.533,1.601,0.3c0.366,0.733,0.283,1.3-0.25,1.7C94.083,184.25,93.634,184.2,93.3,183.7z"/>
		</g>
	</g>
	<g>
		<g>
			<path style="fill-rule:evenodd;clip-rule:evenodd;fill:#54585B;" d="M87.35,180c-0.066-0.067-0.066-0.15,0-0.25
				c0.101-0.1,0.2-0.083,0.301,0.05C87.717,180.033,87.616,180.1,87.35,180z"/>
		</g>
	</g>
	<g>
		<g>
			<path style="fill-rule:evenodd;clip-rule:evenodd;fill:#54585B;" d="M122.65,163.85c0.166-0.434,0.5-0.583,1-0.45
				c0.466,0.1,0.55,0.4,0.25,0.9c-0.334,0.434-0.667,0.534-1,0.3C122.6,164.4,122.517,164.15,122.65,163.85z"/>
		</g>
	</g>
	<g>
		<g>
			<path style="fill-rule:evenodd;clip-rule:evenodd;fill:#54585B;" d="M116.85,173.15c0-0.066,0-0.15,0-0.25
				c0-0.133,0.117-0.117,0.351,0.05c0.033,0.167-0.017,0.267-0.15,0.3C116.95,173.25,116.884,173.217,116.85,173.15z"/>
		</g>
	</g>
	<g>
		<g>
			<path style="fill-rule:evenodd;clip-rule:evenodd;fill:#54585B;" d="M112.45,167.75c-0.267-0.333-0.25-0.7,0.05-1.1
				c0.3-0.433,0.634-0.367,1,0.2c0.2,0.5,0.116,0.85-0.25,1.05C112.884,168.067,112.616,168.017,112.45,167.75z"/>
		</g>
	</g>
	<g>
		<g>
			<path style="fill-rule:evenodd;clip-rule:evenodd;fill:#54585B;" d="M109.25,177.4c-0.833-0.033-1.233-0.433-1.2-1.2
				c0-0.767,0.4-1.05,1.2-0.85c0.833,0.267,1.167,0.7,1,1.3C110.083,177.217,109.75,177.467,109.25,177.4z"/>
		</g>
	</g>
	<g>
		<g>
			<path style="fill-rule:evenodd;clip-rule:evenodd;fill:#54585B;" d="M92.65,173.25c-0.134-0.467,0.083-0.85,0.649-1.15
				c0.566-0.267,0.9-0.017,1,0.75c-0.066,0.733-0.35,1.083-0.85,1.05C92.983,173.867,92.717,173.65,92.65,173.25z"/>
		</g>
	</g>
	<g>
		<g>
			<path style="fill-rule:evenodd;clip-rule:evenodd;fill:#54585B;" d="M76.25,189.7c-0.233-0.4-0.2-0.65,0.1-0.75
				c0.301-0.1,0.467-0.034,0.5,0.2c0.134,0.233,0.101,0.434-0.1,0.6C76.55,189.883,76.384,189.867,76.25,189.7z"/>
		</g>
	</g>
	<g>
		<g>
			<path style="fill-rule:evenodd;clip-rule:evenodd;fill:#54585B;" d="M64.05,247.05c0.2-0.3,0.467-0.35,0.8-0.149
				c0.3,0.166,0.3,0.399,0,0.699c-0.333,0.233-0.583,0.25-0.75,0.051C63.9,247.417,63.883,247.217,64.05,247.05z"/>
		</g>
	</g>
	<g>
		<g>
			<path style="fill-rule:evenodd;clip-rule:evenodd;fill:#54585B;" d="M63.3,270c0.167-0.434,0.45-0.583,0.85-0.45
				c0.4,0.101,0.467,0.367,0.2,0.8c-0.2,0.267-0.45,0.351-0.75,0.25C63.267,270.467,63.167,270.267,63.3,270z"/>
		</g>
	</g>
	<g>
		<g>
			<path style="fill-rule:evenodd;clip-rule:evenodd;fill:#54585B;" d="M57.55,283.1c-0.4-0.033-0.633-0.3-0.7-0.8
				c-0.067-0.467,0.217-0.649,0.85-0.55c0.533,0.267,0.716,0.583,0.55,0.95C58.117,283.033,57.883,283.167,57.55,283.1z"/>
		</g>
	</g>
	<g>
		<g>
			<path style="fill-rule:evenodd;clip-rule:evenodd;fill:#54585B;" d="M31.6,207.25c-0.233-0.233-0.167-0.6,0.2-1.1
				s0.784-0.4,1.25,0.3C33.217,207.816,32.733,208.083,31.6,207.25z"/>
		</g>
	</g>
	<g>
		<g>
			<path style="fill-rule:evenodd;clip-rule:evenodd;fill:#54585B;" d="M46.15,175.4c0.1-0.667,0.483-1,1.15-1
				c0.633,0.033,0.85,0.4,0.65,1.1c-0.267,0.667-0.65,0.933-1.15,0.8C46.3,176.133,46.083,175.833,46.15,175.4z"/>
		</g>
	</g>
	<g>
		<g>
			<path style="fill-rule:evenodd;clip-rule:evenodd;fill:#54585B;" d="M41.6,180.6c-0.5-0.9-0.283-1.7,0.65-2.4
				c0.9-0.733,1.617-0.45,2.15,0.85c0.233,1.4-0.117,2.184-1.05,2.35C42.483,181.567,41.9,181.3,41.6,180.6z"/>
		</g>
	</g>
	<g>
		<g>
			<path style="fill-rule:evenodd;clip-rule:evenodd;fill:#54585B;" d="M38.2,174.2c-0.4-0.133-0.567-0.367-0.5-0.7
				c0.066-0.367,0.283-0.467,0.65-0.3c0.333,0.167,0.45,0.383,0.35,0.65C38.633,174.15,38.467,174.267,38.2,174.2z"/>
		</g>
	</g>
	<g>
		<g>
			<path style="fill-rule:evenodd;clip-rule:evenodd;fill:#54585B;" d="M69.35,210.55c0.2-0.033,0.316,0.017,0.35,0.15
				c0.033,0.166-0.034,0.25-0.2,0.25s-0.267-0.066-0.3-0.2C69.2,210.616,69.25,210.55,69.35,210.55z"/>
		</g>
	</g>
	<g>
		<g>
			<path style="fill-rule:evenodd;clip-rule:evenodd;fill:#54585B;" d="M63.3,223.75c0.133-0.033,0.217,0.017,0.25,0.15
				c0.034,0.1-0.017,0.149-0.15,0.149c-0.1,0-0.167-0.05-0.2-0.149C63.2,223.833,63.233,223.783,63.3,223.75z"/>
		</g>
	</g>
	<g>
		<g>
			<path style="fill-rule:evenodd;clip-rule:evenodd;fill:#54585B;" d="M61.75,253.9c0.667,0.199,1,0.816,1,1.85
				c-0.033,1.033-0.7,1.3-2,0.8c-0.967-0.833-1.183-1.566-0.65-2.2C60.633,253.75,61.183,253.6,61.75,253.9z"/>
		</g>
	</g>
	<g>
		<g>
			<path style="fill-rule:evenodd;clip-rule:evenodd;fill:#54585B;" d="M48.15,247.95c0.667,0.366,0.867,0.883,0.6,1.55
				c-0.267,0.634-0.733,0.733-1.4,0.3c-0.567-0.5-0.684-0.983-0.35-1.45C47.333,247.884,47.717,247.75,48.15,247.95z"/>
		</g>
	</g>
	<g>
		<g>
			<path style="fill-rule:evenodd;clip-rule:evenodd;fill:#54585B;" d="M60.4,301.4c0.267,0.199,0.317,0.517,0.15,0.949
				c-0.133,0.4-0.433,0.4-0.9,0c-0.267-0.366-0.267-0.666,0-0.899S60.167,301.2,60.4,301.4z"/>
		</g>
	</g>
	<g>
		<g>
			<path style="fill-rule:evenodd;clip-rule:evenodd;fill:#54585B;" d="M62.15,328.5c0.567,0.566,0.617,1.116,0.15,1.65
				c-0.5,0.566-0.983,0.517-1.45-0.15c-0.4-0.667-0.367-1.184,0.1-1.55C61.417,328.116,61.817,328.134,62.15,328.5z"/>
		</g>
	</g>
	<g>
		<g>
			<path style="fill-rule:evenodd;clip-rule:evenodd;fill:#54585B;" d="M45.95,333.55c-0.3,0.5-0.75,0.634-1.35,0.4
				c-0.567-0.233-0.617-0.65-0.15-1.25c0.566-0.5,1.017-0.566,1.35-0.2C46.167,332.866,46.217,333.217,45.95,333.55z"/>
		</g>
	</g>
	<g>
		<g>
			<path style="fill-rule:evenodd;clip-rule:evenodd;fill:#54585B;" d="M49.4,356.7c0.3-0.601,0.65-0.767,1.05-0.5
				c0.433,0.267,0.483,0.566,0.15,0.899c-0.167,0.301-0.434,0.417-0.8,0.351C49.4,357.35,49.267,357.1,49.4,356.7z"/>
		</g>
	</g>
	<g>
		<g>
			<path style="fill-rule:evenodd;clip-rule:evenodd;fill:#54585B;" d="M91.45,142.95c1.566,0.6,2.066,1.417,1.5,2.45
				c-0.601,1.067-1.3,1.283-2.101,0.65c-0.833-0.4-1.166-1.066-1-2C90.017,143.117,90.55,142.75,91.45,142.95z"/>
		</g>
	</g>
	<g>
		<g>
			<path style="fill-rule:evenodd;clip-rule:evenodd;fill:#54585B;" d="M89.85,128.7c0.134-0.534,0.4-0.75,0.801-0.65
				c0.433,0.1,0.55,0.35,0.35,0.75c-0.134,0.367-0.366,0.517-0.7,0.45C89.934,129.183,89.783,129,89.85,128.7z"/>
		</g>
	</g>
	<g>
		<g>
			<path style="fill-rule:evenodd;clip-rule:evenodd;fill:#54585B;" d="M78.25,111.25c-1.1-0.667-1.366-1.35-0.8-2.05
				c0.566-0.733,1.116-0.784,1.649-0.15c0.5,0.367,0.667,0.9,0.5,1.6C79.4,111.35,78.95,111.55,78.25,111.25z"/>
		</g>
	</g>
	<g>
		<g>
			<path style="fill-rule:evenodd;clip-rule:evenodd;fill:#54585B;" d="M65.65,116.9c-0.767-1.167-0.633-2.117,0.4-2.85
				c1.034-0.767,1.817-0.517,2.35,0.75c0.434,1.267,0.2,2.117-0.7,2.55C66.8,117.783,66.117,117.633,65.65,116.9z"/>
		</g>
	</g>
	<g>
		<g>
			<path style="fill-rule:evenodd;clip-rule:evenodd;fill:#54585B;" d="M118,141.35c0.5,0.3,0.634,0.633,0.4,1
				c-0.233,0.4-0.517,0.433-0.851,0.1c-0.267-0.2-0.333-0.467-0.2-0.8C117.483,141.317,117.7,141.217,118,141.35z"/>
		</g>
	</g>
	<g>
		<g>
			<path style="fill-rule:evenodd;clip-rule:evenodd;fill:#54585B;" d="M109.15,148.85l-0.25-0.25c-0.2-0.167-0.084-0.317,0.35-0.45
				C109.85,148.55,109.816,148.783,109.15,148.85z"/>
		</g>
	</g>
	<g>
		<g>
			<path style="fill-rule:evenodd;clip-rule:evenodd;fill:#54585B;" d="M127.9,124.8c-0.601-0.133-0.9-0.716-0.9-1.75
				c0.033-1,0.684-1.25,1.95-0.75c0.934,0.934,1.116,1.667,0.55,2.2C128.934,125,128.4,125.1,127.9,124.8z"/>
		</g>
	</g>
	<g>
		<g>
			<path style="fill-rule:evenodd;clip-rule:evenodd;fill:#54585B;" d="M128.55,84.5c-0.033-0.233,0.017-0.317,0.15-0.25
				c0.133,0.067,0.166,0.117,0.1,0.15C128.7,84.667,128.616,84.7,128.55,84.5z"/>
		</g>
	</g>
	<g>
		<g>
			<path style="fill-rule:evenodd;clip-rule:evenodd;fill:#54585B;" d="M123.5,66.9c-0.333-0.167-0.434-0.417-0.3-0.75
				c0.1-0.367,0.333-0.417,0.7-0.15c0.199,0.167,0.25,0.4,0.149,0.7C123.95,66.967,123.767,67.033,123.5,66.9z"/>
		</g>
	</g>
	<g>
		<g>
			<path style="fill-rule:evenodd;clip-rule:evenodd;fill:#54585B;" d="M134.9,55.7c0.166-1.1,0.767-1.6,1.8-1.5
				c1.033,0.133,1.366,0.733,1,1.8c-0.434,1-1.05,1.383-1.851,1.15C135.05,56.883,134.733,56.4,134.9,55.7z"/>
		</g>
	</g>
	<g>
		<g>
			<path style="fill-rule:evenodd;clip-rule:evenodd;fill:#54585B;" d="M127.1,45.35c-0.366-0.7-0.3-1.117,0.2-1.25s0.767,0,0.8,0.4
				c0.134,0.267,0.067,0.55-0.199,0.85C127.667,45.683,127.4,45.683,127.1,45.35z"/>
		</g>
	</g>
	<g>
		<g>
			<path style="fill-rule:evenodd;clip-rule:evenodd;fill:#54585B;" d="M116.45,49.2c0.5-0.733,1.083-0.733,1.75,0
				c0.566,0.7,0.6,1.3,0.1,1.8s-0.983,0.55-1.45,0.15C116.083,50.583,115.95,49.933,116.45,49.2z"/>
		</g>
	</g>
	<g>
		<g>
			<path style="fill-rule:evenodd;clip-rule:evenodd;fill:#54585B;" d="M81,75.45c0.2-0.3,0.434-0.3,0.7,0
				c0.233,0.333,0.25,0.583,0.05,0.75c-0.2,0.167-0.4,0.183-0.6,0.05C80.884,76.017,80.833,75.75,81,75.45z"/>
		</g>
	</g>
	<g>
		<g>
			<path style="fill-rule:evenodd;clip-rule:evenodd;fill:#54585B;" d="M54.75,84.8c-1.4-0.667-1.833-1.833-1.3-3.5
				c0.533-1.633,1.65-1.867,3.35-0.7c1.434,1.4,1.684,2.617,0.75,3.65C56.617,85.217,55.683,85.4,54.75,84.8z"/>
		</g>
	</g>
	<g>
		<g>
			<path style="fill-rule:evenodd;clip-rule:evenodd;fill:#54585B;" d="M55.5,92.75c-0.167-0.033-0.267-0.133-0.3-0.3
				c0-0.2,0.1-0.267,0.3-0.2c0.1,0.067,0.167,0.167,0.2,0.3C55.733,92.717,55.667,92.783,55.5,92.75z"/>
		</g>
	</g>
	<g>
		<g>
			<path style="fill-rule:evenodd;clip-rule:evenodd;fill:#54585B;" d="M64.9,54.75c-0.566-0.467-0.6-1.15-0.1-2.05
				c0.5-0.9,1.184-0.867,2.05,0.1c0.533,1.2,0.417,1.95-0.35,2.25C65.767,55.317,65.233,55.217,64.9,54.75z"/>
		</g>
	</g>
	<g>
		<g>
			<path style="fill-rule:evenodd;clip-rule:evenodd;fill:#54585B;" d="M45,59.35c-0.433-0.3-0.483-0.7-0.15-1.2
				c0.3-0.467,0.667-0.467,1.1,0c0.4,0.6,0.4,1,0,1.2C45.583,59.583,45.267,59.583,45,59.35z"/>
		</g>
	</g>
	<g>
		<g>
			<path style="fill-rule:evenodd;clip-rule:evenodd;fill:#54585B;" d="M32.35,65.15c-0.7-0.4-0.867-0.9-0.5-1.5
				c0.333-0.566,0.75-0.617,1.25-0.15c0.533,0.467,0.633,0.917,0.3,1.35C33.1,65.283,32.75,65.383,32.35,65.15z"/>
		</g>
	</g>
	<g>
		<g>
			<path style="fill-rule:evenodd;clip-rule:evenodd;fill:#54585B;" d="M26.65,87c-0.7-1.167-0.566-2.05,0.4-2.65
				c1-0.6,1.684-0.333,2.05,0.8c0.4,0.967,0.2,1.7-0.6,2.2C27.733,87.817,27.117,87.7,26.65,87z"/>
		</g>
	</g>
	<g>
		<g>
			<path style="fill-rule:evenodd;clip-rule:evenodd;fill:#54585B;" d="M15.5,90.8c-1.2-0.9-1.45-1.65-0.75-2.25
				c0.8-0.667,1.367-0.683,1.7-0.05c0.5,0.367,0.65,0.917,0.45,1.65C16.7,90.883,16.233,91.1,15.5,90.8z"/>
		</g>
	</g>
	<g>
		<g>
			<path style="fill-rule:evenodd;clip-rule:evenodd;fill:#54585B;" d="M39.65,141c-0.267-0.333-0.267-0.617,0-0.85
				c0.3-0.267,0.533-0.217,0.7,0.15c0.167,0.333,0.133,0.583-0.1,0.75C40.017,141.25,39.817,141.233,39.65,141z"/>
		</g>
	</g>
	<g>
		<g>
			<path style="fill-rule:evenodd;clip-rule:evenodd;fill:#54585B;" d="M44.45,127.85c-0.1-0.5,0.083-0.8,0.55-0.9
				c0.433-0.133,0.65,0.05,0.65,0.55c0,0.433-0.183,0.667-0.55,0.7C44.733,128.267,44.517,128.15,44.45,127.85z"/>
		</g>
	</g>
	<g>
		<g>
			<path style="fill-rule:evenodd;clip-rule:evenodd;fill:#54585B;" d="M30.35,136.9c-0.2,0-0.3-0.1-0.3-0.3
				c-0.033-0.167,0.067-0.217,0.3-0.15c0.1,0.033,0.167,0.117,0.2,0.25C30.55,136.867,30.483,136.933,30.35,136.9z"/>
		</g>
	</g>
	<g>
		<g>
			<path style="fill-rule:evenodd;clip-rule:evenodd;fill:#54585B;" d="M34.3,153.45c0.3,0.133,0.383,0.333,0.25,0.6
				c-0.133,0.233-0.3,0.267-0.5,0.1c-0.233-0.167-0.3-0.35-0.2-0.55C33.983,153.433,34.133,153.383,34.3,153.45z"/>
		</g>
	</g>
	<g>
		<g>
			<path style="fill-rule:evenodd;clip-rule:evenodd;fill:#54585B;" d="M14.85,105.45c-1.167-0.5-1.517-1.083-1.05-1.75
				c0.5-0.7,0.967-0.817,1.4-0.35c0.5,0.233,0.716,0.667,0.65,1.3C15.817,105.317,15.483,105.583,14.85,105.45z"/>
		</g>
	</g>
	<g>
		<g>
			<path style="fill-rule:evenodd;clip-rule:evenodd;fill:#54585B;" d="M15.9,20.8c-0.033-0.133,0.017-0.2,0.15-0.2
				c0.1-0.033,0.15,0,0.15,0.1c0,0.133-0.05,0.2-0.15,0.2C15.983,20.9,15.933,20.867,15.9,20.8z"/>
		</g>
	</g>
	<g>
		<g>
			<path style="fill-rule:evenodd;clip-rule:evenodd;fill:#54585B;" d="M22.6,10.6c0.233-1.067,0.717-1.467,1.45-1.2
				c0.767,0.233,0.983,0.667,0.65,1.3c-0.167,0.633-0.567,0.933-1.2,0.9S22.567,11.233,22.6,10.6z"/>
		</g>
	</g>
	<g>
		<g>
			<path style="fill-rule:evenodd;clip-rule:evenodd;fill:#54585B;" d="M32.05,30.45c0.3-0.2,0.617-0.167,0.95,0.1
				c0.333,0.233,0.25,0.517-0.25,0.85c-0.4,0.133-0.683,0.05-0.85-0.25C31.733,30.817,31.783,30.583,32.05,30.45z"/>
		</g>
	</g>
	<g>
		<g>
			<path style="fill-rule:evenodd;clip-rule:evenodd;fill:#54585B;" d="M37.3,39.2c0.434,0.7,0.317,0.95-0.35,0.75
				c-0.267-0.3-0.3-0.517-0.1-0.65C37.017,39.133,37.167,39.1,37.3,39.2z"/>
		</g>
	</g>
	<g>
		<g>
			<path style="fill-rule:evenodd;clip-rule:evenodd;fill:#54585B;" d="M43.15,17.65c0.333-0.267,0.617-0.25,0.85,0.05
				c0.233,0.3,0.183,0.533-0.15,0.7c-0.333,0.167-0.583,0.117-0.75-0.15C42.9,18.017,42.917,17.817,43.15,17.65z"/>
		</g>
	</g>
	<g>
		<g>
			<path style="fill-rule:evenodd;clip-rule:evenodd;fill:#54585B;" d="M48.85,32.6c0.267-0.1,0.433-0.067,0.5,0.1
				c0.066,0.2,0.017,0.333-0.15,0.4c-0.267,0.066-0.417,0.017-0.45-0.15C48.717,32.783,48.75,32.667,48.85,32.6z"/>
		</g>
	</g>
	<g>
		<g>
			<path style="fill-rule:evenodd;clip-rule:evenodd;fill:#54585B;" d="M67.05,5.25c0.267-0.1,0.534,0.05,0.8,0.45
				c0.267,0.367,0.083,0.617-0.55,0.75c-0.566-0.067-0.816-0.284-0.75-0.65C66.583,5.467,66.75,5.283,67.05,5.25z"/>
		</g>
	</g>
	<g>
		<g>
			<path style="fill-rule:evenodd;clip-rule:evenodd;fill:#54585B;" d="M64.4,19.05c0.333,0.1,0.45,0.267,0.35,0.5
				c-0.1,0.2-0.25,0.267-0.45,0.2c-0.267-0.167-0.35-0.333-0.25-0.5C64.117,19.117,64.233,19.05,64.4,19.05z"/>
		</g>
	</g>
	<g>
		<g>
			<path style="fill-rule:evenodd;clip-rule:evenodd;fill:#54585B;" d="M77.35,23.75c0.5,0.167,0.684,0.467,0.551,0.9
				c-0.101,0.467-0.384,0.567-0.851,0.3c-0.366-0.2-0.483-0.467-0.35-0.8C76.833,23.783,77.05,23.65,77.35,23.75z"/>
		</g>
	</g>
	<g>
		<g>
			<path style="fill-rule:evenodd;clip-rule:evenodd;fill:#54585B;" d="M76.55,9.1c0.434-0.267,0.601-0.3,0.5-0.1
				c-0.166,0.367-0.25,0.433-0.25,0.2l0.05-0.125C76.765,9.235,76.665,9.243,76.55,9.1z"/>
		</g>
	</g>
	<g>
		<g>
			<path style="fill-rule:evenodd;clip-rule:evenodd;fill:#54585B;" d="M87.65,17.95c1.899-0.067,2.1,0.417,0.6,1.45
				c-0.333-0.1-0.6-0.233-0.8-0.4C87.05,18.633,87.116,18.283,87.65,17.95z"/>
		</g>
	</g>
	<g>
		<g>
			<path style="fill-rule:evenodd;clip-rule:evenodd;fill:#54585B;" d="M89.15,28.3c0.566-0.066,0.916,0.167,1.05,0.7
				c0.1,0.533-0.167,0.8-0.8,0.8c-0.634-0.1-0.917-0.367-0.851-0.8C88.583,28.567,88.783,28.333,89.15,28.3z"/>
		</g>
	</g>
	<g>
		<g>
			<path style="fill-rule:evenodd;clip-rule:evenodd;fill:#54585B;" d="M89.15,9.7c0.767-0.133,1.216,0.117,1.35,0.75
				c0.167,0.667-0.116,1-0.85,1c-0.667,0-1.034-0.267-1.101-0.8C88.45,10.117,88.65,9.8,89.15,9.7z"/>
		</g>
	</g>
	<g>
		<g>
			<path style="fill-rule:evenodd;clip-rule:evenodd;fill:#54585B;" d="M116.65,12.25c1.199-0.033,1.683,0.25,1.449,0.85
				c-0.399,0.867-0.683,1.066-0.85,0.6c-0.1,0.1-0.366-0.034-0.8-0.4C116.05,12.933,116.116,12.583,116.65,12.25z"/>
		</g>
	</g>
	<g>
		<g>
			<path style="fill-rule:evenodd;clip-rule:evenodd;fill:#54585B;" d="M109.3,14.65l-0.25,0.4c-0.133,0.333-0.366,0.233-0.7-0.3
				C108.65,14.05,108.967,14.017,109.3,14.65z"/>
		</g>
	</g>
	<g>
		<g>
			<path style="fill-rule:evenodd;clip-rule:evenodd;fill:#54585B;" d="M112,27.7c0.366,0.167,0.5,0.45,0.4,0.85
				c-0.101,0.367-0.351,0.434-0.75,0.2c-0.367-0.267-0.467-0.533-0.301-0.8C111.55,27.683,111.767,27.6,112,27.7z"/>
		</g>
	</g>
	<g>
		<g>
			<path style="fill-rule:evenodd;clip-rule:evenodd;fill:#54585B;" d="M123.9,27.85c0.366,0.2,0.483,0.583,0.35,1.15
				c-0.134,0.533-0.517,0.583-1.15,0.15c-0.399-0.467-0.433-0.867-0.1-1.2C123.333,27.65,123.634,27.617,123.9,27.85z"/>
		</g>
	</g>
	<g>
		<g>
			<path style="fill-rule:evenodd;clip-rule:evenodd;fill:#54585B;" d="M134.4,23.35c0.5,0.033,0.716,0.25,0.649,0.65
				s-0.283,0.55-0.649,0.45c-0.467-0.133-0.65-0.35-0.551-0.65C133.95,23.5,134.134,23.35,134.4,23.35z"/>
		</g>
	</g>
	<g>
		<g>
			<path style="fill-rule:evenodd;clip-rule:evenodd;fill:#54585B;" d="M132.75,16.6c0.233-0.033,0.384,0.05,0.45,0.25
				c0.066,0.233-0.033,0.35-0.3,0.35c-0.2,0-0.317-0.083-0.351-0.25C132.517,16.783,132.583,16.667,132.75,16.6z"/>
		</g>
	</g>
	<g>
		<g>
			<path style="fill-rule:evenodd;clip-rule:evenodd;fill:#54585B;" d="M133.9,34.35c1.267-0.133,1.916,0.283,1.949,1.25
				c0.067,1-0.383,1.4-1.35,1.2c-0.733,0-1.2-0.367-1.4-1.1C132.866,34.933,133.134,34.483,133.9,34.35z"/>
		</g>
	</g>
	<g>
		<g>
			<path style="fill-rule:evenodd;clip-rule:evenodd;fill:#54585B;" d="M99.2,43.7c0.666-0.2,1.05-0.034,1.149,0.5
				c0.134,0.5-0.066,0.75-0.6,0.75c-0.4,0.066-0.684-0.083-0.85-0.45C98.7,44.1,98.8,43.833,99.2,43.7z"/>
		</g>
	</g>
	<g>
		<g>
			<path style="fill-rule:evenodd;clip-rule:evenodd;fill:#54585B;" d="M81.1,43.65c0.634,0.567,0.75,1.15,0.351,1.75
				c-0.767,1.033-1.566,1.233-2.4,0.6c-0.866-0.633-0.916-1.317-0.149-2.05C79.733,43.183,80.467,43.083,81.1,43.65z"/>
		</g>
	</g>
	<g>
		<g>
			<path style="fill-rule:evenodd;clip-rule:evenodd;fill:#54585B;" d="M67.25,42.55c-0.733,0.934-1.583,1.083-2.55,0.45
				c-0.967-0.633-0.967-1.4,0-2.3c0.966-0.733,1.767-0.75,2.4-0.05C67.733,41.317,67.783,41.95,67.25,42.55z"/>
		</g>
	</g>
</g>
</svg>
