<?xml version="1.0" encoding="iso-8859-1"?>
<!-- Generator: Adobe Illustrator 15.1.0, SVG Export Plug-In . SVG Version: 6.00 Build 0)  -->
<!DOCTYPE svg PUBLIC "-//W3C//DTD SVG 1.1//EN" "http://www.w3.org/Graphics/SVG/1.1/DTD/svg11.dtd">
<svg version="1.1" id="buildings" xmlns="http://www.w3.org/2000/svg" xmlns:xlink="http://www.w3.org/1999/xlink" x="0px" y="0px"
	 width="53.95px" height="106px" viewBox="0 0 53.95 106" style="enable-background:new 0 0 53.95 106;" xml:space="preserve">
<symbol  id="FlashAICB_x2F_buildings_x2F__x3C_Path_x3E_" viewBox="0 -6.17 5.107 6.125">
	<g id="Layer_1_6_">
		<path style="fill-rule:evenodd;clip-rule:evenodd;fill:#404646;" d="M0.4-4.65c0.333,0,0.667,0.066,1,0.2
			C2.1-4.183,2.517-3.733,2.65-3.1c0.2,0.967-0.183,1.684-1.15,2.15C1.033-0.717,0.533-0.567,0-0.5c0.633,0.267,1.3,0.417,2,0.45
			C3.433,0.017,4.383-0.567,4.85-1.8C5.45-3.333,5-4.6,3.5-5.6S0.967-6.283,0.4-4.65z"/>
	</g>
</symbol>
<symbol  id="FlashAICB_x2F_buildings_x2F__x3C_Path_x3E__x5F_0" viewBox="0 -53.5 19.25 53.5">
	<g id="Layer_1_7_">
		<path style="fill-rule:evenodd;clip-rule:evenodd;fill:#C9D0D0;" d="M4,0c4.333-14.5,7.75-25.583,10.25-33.25
			s4.167-14.417,5-20.25l-9,25.5L11-35.5L5-21.75l2-23.5L0-8l8.5-17.75L4,0z"/>
	</g>
</symbol>
<symbol  id="FlashAICB_x2F_buildings_x2F__x3C_Path_x3E__x5F_1" viewBox="0 -79.3 19.75 79.3">
	<g id="Layer_1_2_">
		<path style="fill-rule:evenodd;clip-rule:evenodd;fill:#C9D0D0;" d="M4.9,0l14.85-75.75l-2.8-3.55l-8.7,0.05L0-7.35
			C0.9-4.417,2.533-1.967,4.9,0z"/>
	</g>
</symbol>
<symbol  id="FlashAICB_x2F_buildings_x2F__x3C_Path_x3E__x5F_1_x5F_0" viewBox="0 -25 20.569 25.02">
	<g id="Layer_1_5_">
		<path style="fill-rule:evenodd;clip-rule:evenodd;fill:#697372;" d="M18.25-10.3c1.3-2.367,2.05-4.717,2.25-7.05
			c0.167-1.767,0.033-3.566-0.4-5.4c-0.2-0.933-0.434-1.683-0.7-2.25c-0.1,1.333-0.3,2.917-0.6,4.75
			c-0.667,3.667-1.566,6.717-2.7,9.15c-1.267,2.7-3.7,5.167-7.3,7.4C5.733-1.767,2.8-0.533,0,0c1,0.067,2.25-0.033,3.75-0.3
			C6.817-0.867,9.7-2.05,12.4-3.85C14.8-5.483,16.75-7.633,18.25-10.3z"/>
	</g>
</symbol>
<symbol  id="FlashAICB_x2F_buildings_x2F__x3C_Path_x3E__x5F_2" viewBox="-0.023 -30.355 37.673 30.355">
	<g id="Layer_1_4_">
		<path style="fill-rule:evenodd;clip-rule:evenodd;fill:#697372;" d="M2.85,0c-1.1-7.533-0.067-13.867,3.1-19
			c2.7-4.4,6.333-7.167,10.9-8.3c4.3-1.1,9.066-0.934,14.3,0.5c2.6,0.733,4.767,1.566,6.5,2.5c-1.033-1.133-2.517-2.217-4.45-3.25
			c-3.867-2.133-8.1-3.05-12.7-2.75c-8.833,0.433-15,3.683-18.5,9.75c-2.067,3.566-2.55,8.066-1.45,13.5C1.117-4.35,1.883-2,2.85,0z
			"/>
	</g>
</symbol>
<symbol  id="FlashAICB_x2F_buildings_x2F__x3C_Path_x3E__x5F_3" viewBox="0.006 -27.85 28.576 27.877">
	<g id="Layer_1_3_">
		<path style="fill-rule:evenodd;clip-rule:evenodd;fill:none;stroke:#697372;stroke-miterlimit:10;" d="M14.5-0.5
			c-3.067,0.2-5.983-0.717-8.75-2.75c-3.2-2.367-4.933-5.55-5.2-9.55c-0.3-4.233,0.95-7.75,3.75-10.55c2.733-2.667,6.133-4,10.2-4
			c3.467,0,6.617,1.4,9.45,4.2c3,3,4.367,6.45,4.1,10.35c-0.233,3.733-1.833,6.75-4.8,9.05C20.717-1.817,17.8-0.733,14.5-0.5z"/>
	</g>
</symbol>
<g>
	
		<linearGradient id="SVGID_1_" gradientUnits="userSpaceOnUse" x1="-37.5864" y1="-44.8496" x2="-4.7461" y2="-44.8496" gradientTransform="matrix(-0.9965 0.0837 -0.0837 -0.9965 3.879964e-004 -3.210902e-004)">
		<stop  offset="0" style="stop-color:#C9D0D0"/>
		<stop  offset="1" style="stop-color:#98A9A8"/>
	</linearGradient>
	<path style="fill-rule:evenodd;clip-rule:evenodd;fill:url(#SVGID_1_);" d="M36.45,19.25L53.95,84l-45.7-0.25L0,11.85
		C0.9,8.917,2.533,6.467,4.9,4.5C8.433,1.5,13.133,0,19,0c5.467,0,9.45,1.617,11.95,4.85C32.816,7.283,34.65,12.083,36.45,19.25z"/>
	
		<use xlink:href="#FlashAICB_x2F_buildings_x2F__x3C_Path_x3E__x5F_1"  width="19.75" height="79.3" y="-79.3" transform="matrix(1 0 0 -1 0 4.5)" style="overflow:visible;enable-background:new    ;"/>
	<g>
		<path style="fill-rule:evenodd;clip-rule:evenodd;fill:#697372;" d="M8.1,84.5c0.167-5.767,2.083-10.7,5.75-14.8
			c4.066-4.467,9.316-6.7,15.75-6.7c8,0,14.217,2.233,18.65,6.7c3.967,4,5.866,8.934,5.7,14.8c-0.134,5.767-2.2,10.7-6.2,14.8
			c-4.333,4.467-10,6.7-17,6.7c-7.467,0-13.25-2.233-17.35-6.7C9.733,95.3,7.967,90.366,8.1,84.5z"/>
		
			<use xlink:href="#FlashAICB_x2F_buildings_x2F__x3C_Path_x3E__x5F_3"  width="28.576" height="27.877" x="0.006" y="-27.85" transform="matrix(1 0 0 -1 16.0498 71.5)" style="overflow:visible;opacity:0.25;enable-background:new    ;"/>
		
			<use xlink:href="#FlashAICB_x2F_buildings_x2F__x3C_Path_x3E__x5F_2"  width="37.673" height="30.355" x="-0.023" y="-30.355" transform="matrix(1 0 0 -1 9.3999 74.7002)" style="overflow:visible;opacity:0.3008;enable-background:new    ;"/>
		
			<use xlink:href="#FlashAICB_x2F_buildings_x2F__x3C_Path_x3E__x5F_1_x5F_0"  width="20.569" height="25.02" y="-25" transform="matrix(1 0 0 -1 32.1504 64.8496)" style="overflow:visible;opacity:0.3008;enable-background:new    ;"/>
		
			<use xlink:href="#FlashAICB_x2F_buildings_x2F__x3C_Path_x3E_"  width="5.107" height="6.125" y="-6.17" transform="matrix(1 0 0 -1 28.6504 82.2998)" style="overflow:visible;enable-background:new    ;"/>
		<path style="fill-rule:evenodd;clip-rule:evenodd;fill:#404646;" d="M32,85.8c0.6-1.066,0.283-1.967-0.95-2.7
			c-1.233-0.699-2.217-0.35-2.95,1.051c-0.633,1.166-0.35,2.1,0.851,2.8C30.184,87.65,31.2,87.267,32,85.8z M35.75,79.3l0.85,0.851
			l3.25-1.95l2.2,3.8l-3.8,1.8c0.1,0.934,0.066,1.8-0.1,2.601l3.649,1.8l-1.7,3.6L36.3,90.4c-0.467,0.633-0.967,1.116-1.5,1.449
			l2,3.7l-3.95,1.7L31.65,93.1c-0.667,0.067-1.184,0.084-1.551,0.051L28.05,97.8l-4.5-2.25l1.7-4.35
			c-0.433-0.334-0.817-0.717-1.15-1.15l-3.35,2.101L18.6,88.5l3.8-1.95c-0.133-0.533-0.167-1.25-0.1-2.149l-3.65-1.9l2.45-4.65
			l3.55,1.301c0.467-0.467,0.833-0.784,1.1-0.95l-1-3.2l3.85-1.1l0.801,3.05c0.699-0.033,1.383,0.017,2.05,0.149l1.45-3.25
			l4.699,1.5L35.75,79.3z"/>
	</g>
	
		<use xlink:href="#FlashAICB_x2F_buildings_x2F__x3C_Path_x3E__x5F_0"  width="19.25" height="53.5" y="-53.5" transform="matrix(1 0 0 -1 25.75 9)" style="overflow:visible;opacity:0.5;enable-background:new    ;"/>
</g>
</svg>
