<?xml version="1.0" encoding="iso-8859-1"?>
<!-- Generator: Adobe Illustrator 15.1.0, SVG Export Plug-In . SVG Version: 6.00 Build 0)  -->
<!DOCTYPE svg PUBLIC "-//W3C//DTD SVG 1.1//EN" "http://www.w3.org/Graphics/SVG/1.1/DTD/svg11.dtd">
<svg version="1.1" id="buildings" xmlns="http://www.w3.org/2000/svg" xmlns:xlink="http://www.w3.org/1999/xlink" x="0px" y="0px"
	 width="128px" height="72.5px" viewBox="0 0 128 72.5" style="enable-background:new 0 0 128 72.5;" xml:space="preserve">
<g>
	<g>
		
			<linearGradient id="SVGID_1_" gradientUnits="userSpaceOnUse" x1="8.2432" y1="46.1895" x2="105.5912" y2="46.1895" gradientTransform="matrix(0.9707 -0.2401 0.2401 0.9707 0 2.004504e-004)">
			<stop  offset="0" style="stop-color:#DCE0DF"/>
			<stop  offset="1" style="stop-color:#A6B6B9"/>
		</linearGradient>
		<rect style="fill-rule:evenodd;clip-rule:evenodd;fill:url(#SVGID_1_);" width="128" height="63.5"/>
		<rect y="63.5" style="fill-rule:evenodd;clip-rule:evenodd;fill:#919E9C;" width="128" height="9"/>
		<polygon style="fill-rule:evenodd;clip-rule:evenodd;fill:#677A79;" points="3.45,66 123.95,66.2 3.45,68 		"/>
		<path style="fill-rule:evenodd;clip-rule:evenodd;fill:#677A79;" d="M33.6,69.2l65.35-0.7c-21.101,1.566-35.317,2.35-42.65,2.35
			C48.967,70.85,41.4,70.3,33.6,69.2z"/>
		<polygon style="fill-rule:evenodd;clip-rule:evenodd;fill:#EBEDED;" points="21.45,0 26.9,63.5 10.05,63.5 10.85,0 		"/>
		<polygon style="fill-rule:evenodd;clip-rule:evenodd;fill:#B7CDD7;" points="46.5,63.5 35.65,63.5 37.25,0 41.95,0 		"/>
		<polygon style="fill-rule:evenodd;clip-rule:evenodd;fill:#B4C4C9;" points="67.45,0 75.95,63.5 62.8,63.5 62.05,0 		"/>
		<polygon style="fill-rule:evenodd;clip-rule:evenodd;fill:#D6DAD9;" points="93.85,0 102.2,63.5 88.65,63.5 87.1,0 		"/>
		<polygon style="fill-rule:evenodd;clip-rule:evenodd;fill:#B4C4C9;" points="120.2,0 122.05,63.5 111.5,63.5 111.9,0 		"/>
	</g>
	<path style="fill-rule:evenodd;clip-rule:evenodd;fill:#C2C8C7;" d="M98.8,70.25c0.3-0.1,4.601-0.5,12.9-1.2
		c4.166-0.366,8.283-0.717,12.35-1.05c-6.166,1.333-10.583,2-13.25,2L98.8,70.25z"/>
</g>
</svg>
