<?xml version="1.0" encoding="iso-8859-1"?>
<!-- Generator: Adobe Illustrator 15.1.0, SVG Export Plug-In . SVG Version: 6.00 Build 0)  -->
<!DOCTYPE svg PUBLIC "-//W3C//DTD SVG 1.1//EN" "http://www.w3.org/Graphics/SVG/1.1/DTD/svg11.dtd">
<svg version="1.1" id="buildings" xmlns="http://www.w3.org/2000/svg" xmlns:xlink="http://www.w3.org/1999/xlink" x="0px" y="0px"
	 width="331.45px" height="79.7px" viewBox="0 0 331.45 79.7" style="enable-background:new 0 0 331.45 79.7;" xml:space="preserve"
	>
<symbol  id="FlashAICB_x2F_buildings_x2F__x3C_Compound_Path_x3E_" viewBox="0.009 -9.097 9.074 9.124">
	<g id="Layer_1_4_">
		<path style="fill-rule:evenodd;clip-rule:evenodd;fill:#404646;" d="M5.45,0C8.417-0.233,9.567-1.933,8.9-5.1
			C8.633-6.367,8.083-7.383,7.25-8.15C6.317-8.983,5.283-9.267,4.15-9c-3.033,0.667-4.4,2.383-4.1,5.15
			C0.383-1.05,2.183,0.233,5.45,0z M4.4-7c1.533-0.367,2.417,0.367,2.65,2.2C7.317-2.967,6.6-2.117,4.9-2.25
			c-1.4-0.133-2.2-0.867-2.4-2.2C2.3-5.783,2.933-6.633,4.4-7z"/>
	</g>
</symbol>
<symbol  id="FlashAICB_x2F_buildings_x2F__x3C_Path_x3E__x5F_13" viewBox="0 -56 43.25 56">
	<g id="Layer_1_3_">
		<polygon style="fill-rule:evenodd;clip-rule:evenodd;fill:#C9D0D0;" points="0,0 13.975,-12.775 43.25,-56 		"/>
	</g>
</symbol>
<symbol  id="FlashAICB_x2F_buildings_x2F__x3C_Path_x3E__x5F_14" viewBox="0 -69.9 52.45 69.9">
	<g id="Layer_1_2_">
		<path style="fill-rule:evenodd;clip-rule:evenodd;fill:#C9D0D0;" d="M3.3,0l49.15-65.1l-6-4.8C42.117-64.867,33.3-52.867,20-33.9
			C6.8-15,0.133-4.933,0-3.7C0.933-2.167,2.033-0.933,3.3,0z"/>
	</g>
</symbol>
<g>
	
		<linearGradient id="SVGID_1_" gradientUnits="userSpaceOnUse" x1="49.7129" y1="75.0264" x2="258.7792" y2="75.0264" gradientTransform="matrix(0.9707 -0.2401 0.2401 0.9707 3.731251e-005 -1.938492e-004)">
		<stop  offset="0" style="stop-color:#DCE0DF"/>
		<stop  offset="1" style="stop-color:#A6B6B9"/>
	</linearGradient>
	<polygon style="fill-rule:evenodd;clip-rule:evenodd;fill:url(#SVGID_1_);" points="0.5,5.3 276.35,5.3 324.85,68.8 41.35,72.3 	
		"/>
	<polygon style="fill-rule:evenodd;clip-rule:evenodd;fill:#919E9C;" points="325.85,77.8 41.25,79.3 41.35,72.3 324.85,68.8 	"/>
	<polygon style="fill-rule:evenodd;clip-rule:evenodd;fill:#778B8A;" points="0,12.3 0.5,5.3 41.35,72.3 41.25,79.3 	"/>
	
		<linearGradient id="SVGID_2_" gradientUnits="userSpaceOnUse" x1="-212.0503" y1="-220.728" x2="-199.3869" y2="-220.728" gradientTransform="matrix(-0.762 0.6475 -0.6475 -0.762 6.846189e-004 -2.896190e-004)">
		<stop  offset="0" style="stop-color:#C9D0D0"/>
		<stop  offset="1" style="stop-color:#98A9A8"/>
	</linearGradient>
	<path style="fill-rule:evenodd;clip-rule:evenodd;fill:url(#SVGID_2_);" d="M309.1,36.35c6.7,9.9,13.284,19.667,19.75,29.3l-10,8
		l-1.899-2.15c-4.334-5.033-13.15-17.033-26.45-36c-13.2-18.9-19.866-28.967-20-30.2c0.934-1.533,2.033-2.767,3.3-3.7
		c1.101-0.8,2.367-1.317,3.8-1.55c1.301-0.2,2.851,0.167,4.65,1.1c1.667,0.867,3.283,2.083,4.85,3.65
		C288.366,6.067,295.7,16.583,309.1,36.35z"/>
	
		<use xlink:href="#FlashAICB_x2F_buildings_x2F__x3C_Path_x3E__x5F_14"  width="52.45" height="69.9" y="-69.9" transform="matrix(1 0 0 -1 270.5 1.6001)" style="overflow:visible;enable-background:new    ;"/>
	
		<use xlink:href="#FlashAICB_x2F_buildings_x2F__x3C_Path_x3E__x5F_13"  width="43.25" height="56" y="-56" transform="matrix(1 0 0 -1 279.7002 5.2002)" style="overflow:visible;opacity:0.5;enable-background:new    ;"/>
	<path style="fill-rule:evenodd;clip-rule:evenodd;fill:#697372;" d="M329.8,66.55c1.3,1.566,1.834,3.45,1.601,5.65
		c-0.233,2.166-1.117,3.967-2.65,5.399c-1.667,1.567-3.7,2.25-6.1,2.051c-2.7-0.233-4.733-1.233-6.101-3
		c-1.233-1.567-1.733-3.417-1.5-5.551c0.2-2.1,1-3.866,2.4-5.3c1.533-1.566,3.434-2.283,5.7-2.149
		C326.083,63.816,328.3,64.783,329.8,66.55z"/>
	
		<use xlink:href="#FlashAICB_x2F_buildings_x2F__x3C_Compound_Path_x3E_"  width="9.074" height="9.124" x="0.009" y="-9.097" transform="matrix(1 0 0 -1 319.0498 67.9502)" style="overflow:visible;enable-background:new    ;"/>
	<polygon style="fill-rule:evenodd;clip-rule:evenodd;fill:#EBEDED;" points="21.15,5.3 66.65,72 51.6,72.2 9.7,5.3 	"/>
	<polygon style="fill-rule:evenodd;clip-rule:evenodd;fill:#D6DAD9;" points="49.9,5.3 91.9,71.7 78.1,71.85 42.5,5.3 	"/>
	<polygon style="fill-rule:evenodd;clip-rule:evenodd;fill:#B7CDD7;" points="105.2,71.5 63.8,5.3 72.45,5.3 127.2,71.25 	"/>
	<polygon style="fill-rule:evenodd;clip-rule:evenodd;fill:#B4C4C9;" points="97.85,5.3 147.65,71 140,71.1 87.5,5.3 	"/>
	<polygon style="fill-rule:evenodd;clip-rule:evenodd;fill:#B7CDD7;" points="256.5,5.3 302.4,69.1 288.2,69.25 247.2,5.3 	"/>
	<polygon style="fill-rule:evenodd;clip-rule:evenodd;fill:#B4C4C9;" points="246.45,69.75 219.2,5.3 238.5,5.3 272.1,69.45 	"/>
	<polygon style="fill-rule:evenodd;clip-rule:evenodd;fill:#EBEDED;" points="222.4,70.05 189.5,5.3 202.85,5.3 234.05,69.95 	"/>
	<polygon style="fill-rule:evenodd;clip-rule:evenodd;fill:#D6DAD9;" points="216.85,70.15 194.95,70.4 147.85,5.3 174.85,5.3 	"/>
	<polygon style="fill-rule:evenodd;clip-rule:evenodd;fill:#B7CDD7;" points="173.35,70.7 120.85,5.3 129.2,5.3 185.9,70.5 	"/>
	<polygon style="fill-rule:evenodd;clip-rule:evenodd;fill:#D6DAD9;" points="114.2,5.3 168.35,70.75 156.25,70.9 105.2,5.3 	"/>
	<path style="fill-rule:evenodd;clip-rule:evenodd;fill:#677A79;" d="M290.85,74.3c10-0.267,16.784-1.017,20.351-2.25
		c1.354-0.46,2.121-0.91,2.3-1.35v5.6l-269.3,1l-0.35-3.35c11.566,0.899,21.683,1.566,30.35,2c6.033,0.333,40.767,0.233,104.2-0.3
		C239.733,75.116,277.217,74.667,290.85,74.3z"/>
	<path style="fill-rule:evenodd;clip-rule:evenodd;fill:#C2C8C7;" d="M249.45,73.15C208.75,74.384,170,74.434,133.2,73.3l166.3-2.35
		C286.5,71.783,269.816,72.517,249.45,73.15z"/>
</g>
</svg>
