<?xml version="1.0" encoding="iso-8859-1"?>
<!-- Generator: Adobe Illustrator 15.1.0, SVG Export Plug-In . SVG Version: 6.00 Build 0)  -->
<!DOCTYPE svg PUBLIC "-//W3C//DTD SVG 1.1//EN" "http://www.w3.org/Graphics/SVG/1.1/DTD/svg11.dtd">
<svg version="1.1" id="buildings" xmlns="http://www.w3.org/2000/svg" xmlns:xlink="http://www.w3.org/1999/xlink" x="0px" y="0px"
	 width="250px" height="108.55px" viewBox="0 0 250 108.55" style="enable-background:new 0 0 250 108.55;" xml:space="preserve">
<g>
	<path style="fill-rule:evenodd;clip-rule:evenodd;fill:#415D58;" d="M188.1,90.2c-13,8.833-26.383,14.083-40.149,15.75
		c-13.733,1.666-34.267-2-61.6-11c-13.667-4.5-25.967-9.167-36.9-14l37-3l2.6,1.399c2.267,1.101,4.733,2.117,7.4,3.051
		c8.5,2.899,17.333,4.25,26.5,4.05c9.166-0.2,17.333-1.934,24.5-5.2c3.6-1.6,6.267-3.2,8-4.8l48,1
		C199.717,81.55,194.6,85.8,188.1,90.2z"/>
	<g>
		
			<linearGradient id="SVGID_1_" gradientUnits="userSpaceOnUse" x1="26.7793" y1="66.6152" x2="206.7716" y2="66.6152" gradientTransform="matrix(0.9707 -0.2401 0.2401 0.9707 3.434122e-004 -1.375824e-004)">
			<stop  offset="0" style="stop-color:#A6B6B9"/>
			<stop  offset="0.4667" style="stop-color:#C1CAC8"/>
			<stop  offset="1" style="stop-color:#A6B6B9"/>
		</linearGradient>
		<path style="fill-rule:evenodd;clip-rule:evenodd;fill:url(#SVGID_1_);" d="M250,69.45H0V5.95L23.3,5.8
			c1.967-0.033,4.217-0.133,6.75-0.3l7.3-0.4c3.667-0.233,6.233-0.4,7.7-0.5l88.5-4.6c6.5,0.267,12.8,0.583,18.9,0.95L221.2,5.6
			c4.566,0.233,7.5,0.35,8.8,0.35h20V69.45z"/>
		<polygon style="fill-rule:evenodd;clip-rule:evenodd;fill:#EBEDED;" points="10.55,5.95 12.75,69.45 4.05,69.45 5.35,5.95 		"/>
		<path style="fill-rule:evenodd;clip-rule:evenodd;fill:#B4C4C9;" d="M30.05,5.5l9.8,63.95h-18.7L23.3,5.8
			C25.267,5.767,27.517,5.667,30.05,5.5z"/>
		<path style="fill-rule:evenodd;clip-rule:evenodd;fill:#B4C4C9;" d="M46.3,69.45L37.35,5.1c3.667-0.233,6.233-0.4,7.7-0.5
			l19.9,64.85H46.3z"/>
		<polygon style="fill-rule:evenodd;clip-rule:evenodd;fill:#EBEDED;" points="72.95,2.8 87.1,69.45 75.1,69.45 59.6,3.65 		"/>
		<polygon style="fill-rule:evenodd;clip-rule:evenodd;fill:#EBEDED;" points="224.65,69.45 238,5.95 243.75,5.95 236,69.45 		"/>
		<path style="fill-rule:evenodd;clip-rule:evenodd;fill:#D6DAD9;" d="M230.55,5.95l-14.35,63.5h-16.4L221.2,5.6
			c4.566,0.233,7.5,0.35,8.8,0.35H230.55z"/>
		<polygon style="fill-rule:evenodd;clip-rule:evenodd;fill:#EBEDED;" points="180.15,69.45 198.15,4.05 209,4.8 193.4,69.45 		"/>
		<polygon style="fill-rule:evenodd;clip-rule:evenodd;fill:#B4C4C9;" points="190.5,3.5 174.9,69.45 166.45,69.45 183.05,3 		"/>
		<polygon style="fill-rule:evenodd;clip-rule:evenodd;fill:#B7CDD7;" points="174,2.35 162.45,69.45 154.8,69.45 163.25,1.65 		"/>
		<polygon style="fill-rule:evenodd;clip-rule:evenodd;fill:#B7CDD7;" points="92.75,69.45 79.6,2.35 86.4,1.9 108.45,69.45 		"/>
		<polygon style="fill-rule:evenodd;clip-rule:evenodd;fill:#D6DAD9;" points="104.05,0.85 136.8,69.45 118,69.45 96.8,1.3 		"/>
		<polygon style="fill-rule:evenodd;clip-rule:evenodd;fill:#B4C4C9;" points="120.25,0.1 146.05,69.45 141.9,69.45 115.05,0.3 		
			"/>
		<path style="fill-rule:evenodd;clip-rule:evenodd;fill:#EBEDED;" d="M152.45,0.95l0.5,68.5h-2.75L133.55,0
			C140.05,0.267,146.35,0.583,152.45,0.95z"/>
		<path style="fill-rule:evenodd;clip-rule:evenodd;fill:#919E9C;" d="M171.45,89c8.934-3.033,16.6-6.05,23-9.05l-135,1.5l6.15,2.75
			c5.2,2.166,10.483,4.149,15.85,5.95c17.167,5.733,32,8.5,44.5,8.3S153.616,95.1,171.45,89z M250,69.45v9h-19
			c-2.866,0-7.75,1.566-14.65,4.7C207.15,87.55,199.667,91,193.9,93.5c-23.167,10.033-44.801,15.05-64.9,15.05
			c-20.4,0-44.183-5.017-71.35-15.05c-3.667-1.333-12.367-4.783-26.1-10.35c-7.767-3.134-12.617-4.7-14.55-4.7H0v-9h16.65
			c3.167,0,21.533-0.533,55.1-1.601c33.533-1.066,53.384-1.6,59.55-1.6c6.101,0,23.267,0.533,51.5,1.6
			c28.233,1.067,44.066,1.601,47.5,1.601H250z"/>
	</g>
	<path style="fill-rule:evenodd;clip-rule:evenodd;fill:#677A79;" d="M175.05,98.35c-13.133,5.134-26.416,7.75-39.85,7.851
		c-23.167,0.166-47.083-4.084-71.75-12.75c-10.7-4.2-18.967-7.417-24.8-9.65c-10.6-4.1-17.667-6.217-21.2-6.35
		c-4.667-0.167-9.417-0.5-14.25-1c1.6-0.233,3.5-0.434,5.7-0.601c4.4-0.3,8.167-0.183,11.3,0.351c1.267,0.2,9.933,3.149,26,8.85
		c17.1,6.033,31.767,10.417,44,13.15c14.633,3.267,27.933,4.899,39.899,4.899c9.801,0,19.334-1.133,28.601-3.399
		c11-2.667,21.666-5.667,32-9C186.833,93.233,181.616,95.783,175.05,98.35z"/>
	<path style="fill-rule:evenodd;clip-rule:evenodd;fill:#C2C8C7;" d="M195.45,88.45L201,84.7c4.667-2.834,9.4-5.084,14.2-6.75
		c4.8-1.667,11.233-3,19.3-4c4.066-0.5,7.634-0.834,10.7-1c-10.334,1.833-18.334,3.5-24,5c-3.533,0.934-8.884,2.967-16.05,6.1
		L195.45,88.45z"/>
	<path style="fill-rule:evenodd;clip-rule:evenodd;fill:#C2C8C7;" d="M210.45,72.7c-42.5-0.967-73.667-1.3-93.5-1
		c-15.75,0.25-34.55,0.533-56.4,0.85c29.02-1.165,49.82-1.948,62.4-2.35c9.8-0.3,27.316,0.017,52.55,0.95
		C188.134,71.65,199.783,72.167,210.45,72.7z"/>
</g>
</svg>
