<?xml version="1.0" encoding="iso-8859-1"?>
<!-- Generator: Adobe Illustrator 15.1.0, SVG Export Plug-In . SVG Version: 6.00 Build 0)  -->
<!DOCTYPE svg PUBLIC "-//W3C//DTD SVG 1.1//EN" "http://www.w3.org/Graphics/SVG/1.1/DTD/svg11.dtd">
<svg version="1.1" id="buildings" xmlns="http://www.w3.org/2000/svg" xmlns:xlink="http://www.w3.org/1999/xlink" x="0px" y="0px"
	 width="386.3px" height="181.7px" viewBox="0 0 386.3 181.7" style="enable-background:new 0 0 386.3 181.7;" xml:space="preserve"
	>
<symbol  id="FlashAICB_x2F_buildings_x2F__x3C_Compound_Path_x3E_" viewBox="0.025 -11.851 11.331 11.857">
	<g id="Layer_1_3_">
		<path style="fill-rule:evenodd;clip-rule:evenodd;fill:#404646;" d="M6.1-10.85c2.9,0.167,4.083,1.767,3.55,4.8
			C9.117-2.983,7.6-1.583,5.1-1.85c-2.233-0.233-3.333-1.833-3.3-4.8C1.833-9.617,3.267-11.017,6.1-10.85z M11.3-5.85
			c0.2-1.667-0.133-3.05-1-4.15c-1-1.267-2.517-1.883-4.55-1.85C1.683-11.783-0.217-9.833,0.05-6c0.1,1.533,0.617,2.883,1.55,4.05
			C2.567-0.717,3.733-0.067,5.1,0c1.667,0.067,3.083-0.517,4.25-1.75C10.45-2.883,11.1-4.25,11.3-5.85z"/>
	</g>
</symbol>
<symbol  id="FlashAICB_x2F_buildings_x2F__x3C_Path_x3E_" viewBox="0 -58.35 29.65 58.35">
	<g id="Layer_1_4_">
		<path style="fill-rule:evenodd;clip-rule:evenodd;fill:#C2C8C7;" d="M15.925-33.975L27.35-58.35L14-31.35L15.925-33.975z M0,0
			l29.65-52.7L15.925-33.975L0,0z"/>
	</g>
</symbol>
<symbol  id="FlashAICB_x2F_buildings_x2F__x3C_Path_x3E__x5F_4" viewBox="-0.007 -73.05 37.306 73.05">
	<g id="Layer_1_2_">
		<path style="fill-rule:evenodd;clip-rule:evenodd;fill:#C2C8C7;" d="M31.95-73.05L2.4-9.8C-0.133-5.833-0.667-2.567,0.8,0
			l36.5-69.35L37-71.1L31.95-73.05z"/>
	</g>
</symbol>
<g>
	
		<linearGradient id="SVGID_1_" gradientUnits="userSpaceOnUse" x1="36.4146" y1="153.1191" x2="293.8184" y2="153.1191" gradientTransform="matrix(0.9708 -0.2401 0.2401 0.9708 3.186762e-004 -2.880991e-004)">
		<stop  offset="0" style="stop-color:#DCE0DF"/>
		<stop  offset="1" style="stop-color:#A6B6B9"/>
	</linearGradient>
	<path style="fill-rule:evenodd;clip-rule:evenodd;fill:url(#SVGID_1_);" d="M341,10.05l31.95,68.85c-1.066,1.1-2.617,2.6-4.65,4.5
		c-2.733,2.567-6.316,5.8-10.75,9.7L338.5,108.7c-5.8,4.434-11.583,8.633-17.35,12.6l-2.65,1.851c-5.4,3.633-9.967,6.583-13.7,8.85
		l-6.05,3.65c-2.134,1.267-4.733,2.733-7.8,4.399l-17.4,8.851c-4.8,2.233-8.95,4.033-12.45,5.399c-0.433,0.2-2.866,1.15-7.3,2.851
		c-6,2.133-11.583,3.883-16.75,5.25c-3.533,0.966-7.133,1.816-10.8,2.55c-4.8,1-9.616,1.75-14.45,2.25l-51.95,4.649l-27.35,1.75
		c-6.3,0.367-12.35,0.667-18.15,0.9l-63.55,1.7l-4-6L0,107.2c2.667,0.166,6.317,0.366,10.95,0.6l60.45,1.65
		c11.167,0,19.617-0.05,25.35-0.15c9.1-0.166,17.5-0.434,25.2-0.8c2.133-0.033,4.216-0.134,6.25-0.3c3.867-0.2,6.75-0.367,8.65-0.5
		l8.15-0.65c7.267-0.6,14.117-1.35,20.55-2.25l14.5-2.5c3.4-0.7,6.8-1.55,10.2-2.55c3.1-0.833,6.2-1.783,9.3-2.85
		c4.267-1.434,8.884-3.167,13.851-5.2c4.8-1.934,9.6-4.034,14.399-6.3l12.2-6.1c2.6-1.333,5.783-3.05,9.55-5.15l12.55-7.25
		c4.067-2.4,7.934-4.783,11.601-7.15l15.05-9.95c1.8-1.2,3.983-2.716,6.55-4.55c3.8-2.6,7.983-5.6,12.55-9
		c5.534-4.033,11.117-8.283,16.75-12.75l5.301-4.25C334.6,15.483,338.3,12.417,341,10.05z"/>
	<polygon style="fill-rule:evenodd;clip-rule:evenodd;fill:#778B8A;" points="2,118.2 0,107.2 46.8,170.2 46.8,181.2 	"/>
	<polygon style="fill-rule:evenodd;clip-rule:evenodd;fill:#D6DAD9;" points="18.15,108.15 77.9,175.8 59.7,176.15 10.95,107.8 	"/>
	<path style="fill-rule:evenodd;clip-rule:evenodd;fill:#B4C4C9;" d="M329.9,19.25L368.3,83.4c-2.733,2.567-6.316,5.8-10.75,9.7
		L324.6,23.5L329.9,19.25z"/>
	<path style="fill-rule:evenodd;clip-rule:evenodd;fill:#D6DAD9;" d="M342.4,105.65L295.3,45.25c3.8-2.6,7.983-5.6,12.55-9
		l44.45,61.3L342.4,105.65z"/>
	<path style="fill-rule:evenodd;clip-rule:evenodd;fill:#EBEDED;" d="M288.75,49.8l49.75,58.9c-5.8,4.434-11.583,8.633-17.35,12.6
		L280.7,55.2L288.75,49.8z"/>
	<path style="fill-rule:evenodd;clip-rule:evenodd;fill:#B7CDD7;" d="M273.7,59.75c3.267,3.833,10.717,14.333,22.35,31.5
		c11.9,17.5,19.384,28.134,22.45,31.9c-5.4,3.633-9.967,6.583-13.7,8.85l-42.7-65.1C266.167,64.5,270.033,62.117,273.7,59.75z"/>
	<path style="fill-rule:evenodd;clip-rule:evenodd;fill:#B4C4C9;" d="M254.8,71.2l43.95,64.45c-2.134,1.267-4.733,2.733-7.8,4.399
		l-41.4-65.9L254.8,71.2z"/>
	<path style="fill-rule:evenodd;clip-rule:evenodd;fill:#EBEDED;" d="M65.15,175.55L31.3,108.65l9.3,0.25l51.2,67.3
		c-6.7,0.3-13.033,0.533-19,0.7L65.15,175.55z"/>
	<path style="fill-rule:evenodd;clip-rule:evenodd;fill:#B4C4C9;" d="M71.4,109.45l55.4,65.75c-2.233,0.133-7.133,0.1-14.7-0.101
		c-7.8-0.199-12.567-0.267-14.3-0.199l-41.1-65.65L71.4,109.45z"/>
	<path style="fill-rule:evenodd;clip-rule:evenodd;fill:#D6DAD9;" d="M148.6,172.65L96.75,109.3c9.1-0.166,17.5-0.434,25.2-0.8
		l37.9,63.35L148.6,172.65z"/>
	<path style="fill-rule:evenodd;clip-rule:evenodd;fill:#B7CDD7;" d="M168.5,171.2l-40.3-63c3.867-0.2,6.75-0.367,8.65-0.5
		l39.2,62.899L168.5,171.2z"/>
	<path style="fill-rule:evenodd;clip-rule:evenodd;fill:#EBEDED;" d="M183.3,170L145,107.05c7.267-0.6,14.117-1.35,20.55-2.25
		l28.2,64.25L183.3,170z"/>
	<path style="fill-rule:evenodd;clip-rule:evenodd;fill:#B4C4C9;" d="M180.05,102.3l46.2,62.65c-4.8,1-9.616,1.75-14.45,2.25
		l-6.95,0.75L171.9,103.85L180.05,102.3z"/>
	<path style="fill-rule:evenodd;clip-rule:evenodd;fill:#EBEDED;" d="M190.25,99.75c3.1-0.833,6.2-1.783,9.3-2.85
		c3.667,3.366,12.3,13,25.9,28.899c13.833,16.101,23.283,26.55,28.35,31.351c-6,2.133-11.583,3.883-16.75,5.25L190.25,99.75z"/>
	<path style="fill-rule:evenodd;clip-rule:evenodd;fill:#B4C4C9;" d="M227.8,85.4l45.75,63.5c-4.8,2.233-8.95,4.033-12.45,5.399
		L213.4,91.7C218.2,89.767,223,87.667,227.8,85.4z"/>
	<polygon style="fill-rule:evenodd;clip-rule:evenodd;fill:#B7CDD7;" points="240,79.3 285.85,142.8 279.3,146.15 235,81.85 	"/>
	<path style="fill-rule:evenodd;clip-rule:evenodd;fill:#919E9C;" d="M372.95,78.9h7.85c-7.533,8.133-18.616,17.583-33.25,28.35
		c-29.2,21.5-61.45,38.816-96.75,51.95c-30.467,11.366-73.6,18.434-129.4,21.2c-27.9,1.399-52.767,1.666-74.6,0.8v-11
		c20.833,1,44.633,1.133,71.4,0.399c53.5-1.5,95.033-6.633,124.6-15.399c23.767-7.033,52.584-21.851,86.45-44.45
		C346.217,99.417,360.783,88.8,372.95,78.9z"/>
	<polygon style="fill-rule:evenodd;clip-rule:evenodd;fill:#C9D0D0;" points="344,9.7 380.8,79.2 372.5,80.2 338,10.05 	"/>
	
		<linearGradient id="SVGID_2_" gradientUnits="userSpaceOnUse" x1="-291.8633" y1="-217.5518" x2="-282.478" y2="-217.5518" gradientTransform="matrix(-0.8577 0.5141 -0.5141 -0.8577 2.172589e-004 1.213551e-004)">
		<stop  offset="0" style="stop-color:#C9D0D0"/>
		<stop  offset="1" style="stop-color:#98A9A8"/>
	</linearGradient>
	<path style="fill-rule:evenodd;clip-rule:evenodd;fill:url(#SVGID_2_);" d="M350.15,4.1L385.8,70.55L369.15,76.9L339.6,13.65
		c-2.533-3.967-3.066-7.233-1.6-9.8c0.934-1.633,2.684-2.85,5.25-3.65c1.9-0.534,3.616-0.05,5.15,1.45
		C349.167,2.417,349.75,3.233,350.15,4.1z"/>
	
		<use xlink:href="#FlashAICB_x2F_buildings_x2F__x3C_Path_x3E__x5F_4"  width="37.306" height="73.05" x="-0.007" y="-73.05" transform="matrix(1 0 0 -1 337.2002 3.8501)" style="overflow:visible;enable-background:new    ;"/>
	<path style="fill-rule:evenodd;clip-rule:evenodd;fill:#697372;" d="M376.8,64.55c2.7-0.1,4.95,0.784,6.75,2.65
		c1.667,1.7,2.584,3.75,2.75,6.15c0.167,2.467-0.533,4.467-2.1,6c-1.767,1.733-4.334,2.467-7.7,2.2
		c-2.833-0.233-4.934-1.25-6.3-3.05c-1.233-1.567-1.75-3.467-1.55-5.7c0.233-2.167,1.066-4.033,2.5-5.6
		C372.684,65.533,374.566,64.65,376.8,64.55z"/>
	
		<use xlink:href="#FlashAICB_x2F_buildings_x2F__x3C_Compound_Path_x3E_"  width="11.331" height="11.857" x="0.025" y="-11.851" transform="matrix(1 0 0 -1 371.9004 67.7002)" style="overflow:visible;enable-background:new    ;"/>
	<path style="fill-rule:evenodd;clip-rule:evenodd;fill:#677A79;" d="M344.2,106.75c12.133-8.467,21.783-15.867,28.95-22.2
		c-6.167,6.267-14.983,13.667-26.45,22.2c-22.934,17.066-47.667,31.217-74.2,42.45c-27.333,11.6-54.15,19.566-80.45,23.899
		c-9.233,1.5-19.117,2.667-29.65,3.5c-11,0.733-18.75,1.267-23.25,1.601c-11.233,0.833-29.6,1.316-55.1,1.45
		c-12.767,0.033-24.4,0-34.9-0.101l0.65-6c9.333,0.7,21,1.267,35,1.7c28.034,0.9,53.7,0.667,77-0.7
		c20.4-1.166,41.767-4.8,64.101-10.899c16.133-4.434,31-9.584,44.6-15.45C295.366,137.5,319.934,123.684,344.2,106.75z"/>
	<path style="fill-rule:evenodd;clip-rule:evenodd;fill:#C2C8C7;" d="M206.8,166.15c-13.399,2.866-24.066,4.783-32,5.75
		c-7.9,0.966-22.483,1.416-43.75,1.35l-29.55-0.35l31.15-0.851c22.167-0.767,36.783-1.717,43.85-2.85c9.233-1.434,25.233-3.767,48-7
		C219.4,163.434,213.5,164.75,206.8,166.15z"/>
	
		<use xlink:href="#FlashAICB_x2F_buildings_x2F__x3C_Path_x3E_"  width="29.65" height="58.35" y="-58.35" transform="matrix(1 0 0 -1 345.1504 4.2002)" style="overflow:visible;opacity:0.5;enable-background:new    ;"/>
</g>
</svg>
