<?xml version="1.0" encoding="iso-8859-1"?>
<!-- Generator: Adobe Illustrator 15.1.0, SVG Export Plug-In . SVG Version: 6.00 Build 0)  -->
<!DOCTYPE svg PUBLIC "-//W3C//DTD SVG 1.1//EN" "http://www.w3.org/Graphics/SVG/1.1/DTD/svg11.dtd">
<svg version="1.1" id="stonePillar_x5F_01.ai" xmlns="http://www.w3.org/2000/svg" xmlns:xlink="http://www.w3.org/1999/xlink"
	 x="0px" y="0px" width="27.1px" height="91px" viewBox="0 0 27.1 91" style="enable-background:new 0 0 27.1 91;"
	 xml:space="preserve">
<g>
	<g>
		<polygon style="fill-rule:evenodd;clip-rule:evenodd;fill:#AAB2B5;" points="14.6,5.75 22.5,8.95 16.2,26.4 17.65,57.75 
			14.75,64.1 27.1,87.45 15.1,91 3.7,72.1 8.45,22.25 		"/>
		<polygon style="fill-rule:evenodd;clip-rule:evenodd;fill:#939A9D;" points="6.75,46.15 10.2,53.7 15.1,91 0.7,84.3 0.6,73.75 
			4.25,66 0.45,56.5 0.25,28.15 2.85,20.85 0.15,14.7 0,0 14.6,5.75 10.85,38.75 		"/>
		<polygon style="fill-rule:evenodd;clip-rule:evenodd;fill:#CDD1D2;" points="0,0 12.7,2.15 22.5,8.95 		"/>
	</g>
	<polygon style="fill-rule:evenodd;clip-rule:evenodd;fill:#696F71;" points="0.25,28.15 2.85,20.85 8.3,23.45 	"/>
	<polygon style="fill-rule:evenodd;clip-rule:evenodd;fill:#696F71;" points="0.6,73.75 4.3,64.8 9.95,68.8 6.65,68.8 	"/>
	<polygon style="fill-rule:evenodd;clip-rule:evenodd;fill:#696F71;" points="3.65,48.6 1.3,49.1 2.95,46.1 5.95,50.3 5.95,59.1 
		4.65,56.3 2.65,58.45 4.15,54.95 	"/>
	<path style="fill-rule:evenodd;clip-rule:evenodd;fill:#696F71;" d="M7.45,14.3l-0.8-2.85l-1.5,0.65c1-2.2,1.333-3.75,1-4.65
		C5.817,6.55,5.2,5.5,4.3,4.3l4.65,2.8L7.45,14.3z"/>
	<polygon style="fill-rule:evenodd;clip-rule:evenodd;fill:#CDD1D2;" points="16.3,30.75 12.95,26.75 16.2,26.4 	"/>
	<polygon style="fill-rule:evenodd;clip-rule:evenodd;fill:#CDD1D2;" points="17.95,69.75 13.3,66.1 14.95,64.75 	"/>
	<g>
		<g>
			<path style="fill-rule:evenodd;clip-rule:evenodd;fill:#54585B;" d="M6,32.65c0.267-0.4,0.567-0.483,0.9-0.25
				c0.333,0.233,0.333,0.5,0,0.8c-0.2,0.2-0.45,0.233-0.75,0.1C5.85,33.167,5.8,32.95,6,32.65z"/>
		</g>
	</g>
	<g>
		<g>
			<path style="fill-rule:evenodd;clip-rule:evenodd;fill:#54585B;" d="M2.15,39.25c0.3-0.6,0.667-0.767,1.1-0.5
				s0.467,0.567,0.1,0.9c-0.167,0.3-0.434,0.4-0.8,0.3C2.15,39.85,2.017,39.617,2.15,39.25z"/>
		</g>
	</g>
	<g>
		<g>
			<path style="fill-rule:evenodd;clip-rule:evenodd;fill:#54585B;" d="M9.9,14.55c0.467-1.2,1.1-1.583,1.9-1.15
				c0.833,0.434,1,0.967,0.5,1.6c-0.333,0.7-0.85,0.967-1.55,0.8C10.017,15.633,9.733,15.217,9.9,14.55z"/>
		</g>
	</g>
	<g>
		<g>
			<path style="fill-rule:evenodd;clip-rule:evenodd;fill:#54585B;" d="M2.05,6.15C1.983,6.083,2,5.967,2.1,5.8
				c0.133-0.167,0.25-0.133,0.35,0.1C2.517,6.233,2.383,6.317,2.05,6.15z"/>
		</g>
	</g>
	<g>
		<g>
			<path style="fill-rule:evenodd;clip-rule:evenodd;fill:#54585B;" d="M18.2,12.8c0.133-0.4,0.316-0.533,0.55-0.4
				c0.233,0.167,0.267,0.333,0.1,0.5c-0.033,0.133-0.149,0.2-0.35,0.2C18.267,13.133,18.167,13.033,18.2,12.8z"/>
		</g>
	</g>
	<g>
		<g>
			<path style="fill-rule:evenodd;clip-rule:evenodd;fill:#54585B;" d="M15.6,38.7c0.267,0,0.434,0.167,0.5,0.5
				c0.101,0.367-0.083,0.533-0.55,0.5c-0.467-0.233-0.616-0.467-0.45-0.7C15.267,38.767,15.434,38.667,15.6,38.7z"/>
		</g>
	</g>
	<g>
		<g>
			<path style="fill-rule:evenodd;clip-rule:evenodd;fill:#54585B;" d="M15.25,52.8c0.566,0.733,0.55,1.316-0.05,1.75
				c-0.566,0.434-1,0.3-1.3-0.399c-0.233-0.434-0.184-0.867,0.149-1.301C14.417,52.384,14.816,52.366,15.25,52.8z"/>
		</g>
	</g>
	<g>
		<g>
			<path style="fill-rule:evenodd;clip-rule:evenodd;fill:#54585B;" d="M20.9,82c0.133,0.467-0.101,0.816-0.7,1.05
				c-0.566,0.267-0.9,0-1-0.8c0.166-0.8,0.5-1.134,1-1C20.667,81.384,20.9,81.634,20.9,82z"/>
		</g>
	</g>
	<g>
		<g>
			<path style="fill-rule:evenodd;clip-rule:evenodd;fill:#54585B;" d="M7.15,80.7C6.183,82,5.067,82.233,3.8,81.4
				c-1.233-0.801-1.233-1.767,0-2.9c1.1-0.9,2.117-0.95,3.05-0.15C7.717,79.116,7.817,79.9,7.15,80.7z"/>
		</g>
	</g>
	<g>
		<g>
			<path style="fill-rule:evenodd;clip-rule:evenodd;fill:#54585B;" d="M9.15,74.3c0.133-0.166,0.283-0.184,0.45-0.05
				c0.2,0.134,0.183,0.267-0.05,0.4c-0.133,0.066-0.267,0.066-0.4,0C9.017,74.55,9.017,74.434,9.15,74.3z"/>
		</g>
	</g>
	<g>
		<g>
			<path style="fill-rule:evenodd;clip-rule:evenodd;fill:#54585B;" d="M8.6,59.2c0.367-0.233,0.6-0.217,0.7,0.05
				c0.067,0.267,0,0.4-0.2,0.4c-0.133,0.1-0.283,0.1-0.45,0C8.483,59.517,8.467,59.366,8.6,59.2z"/>
		</g>
	</g>
</g>
</svg>
