<?xml version="1.0" encoding="iso-8859-1"?>
<!-- Generator: Adobe Illustrator 15.1.0, SVG Export Plug-In . SVG Version: 6.00 Build 0)  -->
<!DOCTYPE svg PUBLIC "-//W3C//DTD SVG 1.1//EN" "http://www.w3.org/Graphics/SVG/1.1/DTD/svg11.dtd">
<svg version="1.1" id="stonePillar_x5F_05.ai" xmlns="http://www.w3.org/2000/svg" xmlns:xlink="http://www.w3.org/1999/xlink"
	 x="0px" y="0px" width="22.25px" height="95px" viewBox="0 0 22.25 95" style="enable-background:new 0 0 22.25 95;"
	 xml:space="preserve">
<g>
	<g>
		<polygon style="fill-rule:evenodd;clip-rule:evenodd;fill:#AAB2B5;" points="14.15,4.55 22.25,1 20.75,16.65 17.2,23.25 
			20.75,30.3 19.2,51.55 19.7,63.65 15.65,69.75 22.25,87.95 15.65,95 5.05,85.4 8.6,53.55 7.1,29.3 		"/>
		<polygon style="fill-rule:evenodd;clip-rule:evenodd;fill:#939A9D;" points="2.05,0 14.15,4.55 12.15,35.85 15.65,58.1 8.6,67.7 
			11.1,75.3 15.65,95 0.5,89.45 0,65.2 3.55,52.05 0,43.95 3.05,26.75 7.1,17.65 1.5,15.65 		"/>
		<polygon style="fill-rule:evenodd;clip-rule:evenodd;fill:#CDD1D2;" points="2.05,0 13.15,0 22.25,1 14.15,4.55 		"/>
	</g>
	<polygon style="fill-rule:evenodd;clip-rule:evenodd;fill:#696F71;" points="3.05,26.75 7.1,17.65 11.65,19.3 9.4,19.8 7.15,23.05 
			"/>
	<polygon style="fill-rule:evenodd;clip-rule:evenodd;fill:#696F71;" points="1.65,59.55 3.55,52.05 7.4,49.8 10.15,51.05 
		12.15,52.3 8.65,52.05 	"/>
	<polygon style="fill-rule:evenodd;clip-rule:evenodd;fill:#696F71;" points="8.8,40 6.8,32.3 4.15,30.65 10.45,28.65 	"/>
	<polygon style="fill-rule:evenodd;clip-rule:evenodd;fill:#696F71;" points="0.15,74.65 3.8,87 10.8,94 0.5,89.45 	"/>
	<polygon style="fill-rule:evenodd;clip-rule:evenodd;fill:#CDD1D2;" points="20.15,27.05 20.4,33.05 17.15,24.05 	"/>
	<polygon style="fill-rule:evenodd;clip-rule:evenodd;fill:#CDD1D2;" points="18.15,75.55 8.6,67.7 15.65,69.75 	"/>
	<g>
		<g>
			<path style="fill-rule:evenodd;clip-rule:evenodd;fill:#54585B;" d="M17.3,6.4c0.967-1.267,1.934-1.5,2.9-0.7
				c1,0.8,1.017,1.6,0.05,2.4c-0.866,0.8-1.7,0.9-2.5,0.3C16.95,7.833,16.8,7.167,17.3,6.4z"/>
		</g>
	</g>
	<g>
		<g>
			<path style="fill-rule:evenodd;clip-rule:evenodd;fill:#54585B;" d="M17.2,15.55c0.1-0.1,0.233-0.1,0.399,0
				c0.167,0.1,0.15,0.233-0.05,0.4c-0.233,0.1-0.366,0.066-0.399-0.1C17.083,15.683,17.1,15.583,17.2,15.55z"/>
		</g>
	</g>
	<g>
		<g>
			<path style="fill-rule:evenodd;clip-rule:evenodd;fill:#54585B;" d="M16.95,33.4c0.434-0.1,0.733,0.184,0.899,0.85
				c0.134,0.6-0.166,0.883-0.899,0.85c-0.934-0.467-1.233-0.867-0.9-1.2C16.65,33.633,16.95,33.467,16.95,33.4z"/>
		</g>
	</g>
	<g>
		<g>
			<path style="fill-rule:evenodd;clip-rule:evenodd;fill:#54585B;" d="M17.8,52.9c0.3,0.033,0.417,0.383,0.351,1.05
				c-0.101,0.633-0.517,0.783-1.25,0.45c-0.567-0.9-0.601-1.417-0.101-1.551C17.066,52.783,17.4,52.8,17.8,52.9z"/>
		</g>
	</g>
	<g>
		<g>
			<path style="fill-rule:evenodd;clip-rule:evenodd;fill:#54585B;" d="M13.9,64.2c0.5-0.167,0.816-0.066,0.949,0.3
				c0.101,0.4-0.017,0.65-0.35,0.75c-0.5,0.1-0.783-0.017-0.85-0.35C13.583,64.566,13.667,64.333,13.9,64.2z"/>
		</g>
	</g>
	<g>
		<g>
			<path style="fill-rule:evenodd;clip-rule:evenodd;fill:#54585B;" d="M15,80.9c0.366,0.166,0.5,0.449,0.4,0.85
				C15.267,82.184,15,82.267,14.6,82c-0.366-0.3-0.449-0.583-0.25-0.85C14.55,80.85,14.767,80.767,15,80.9z"/>
		</g>
	</g>
	<g>
		<g>
			<path style="fill-rule:evenodd;clip-rule:evenodd;fill:#54585B;" d="M19.85,87.7c0.801,0.1,1.15,0.45,1.051,1.05
				c-0.134,0.6-0.45,0.8-0.95,0.6c-0.634-0.166-0.917-0.483-0.851-0.949C19.167,87.934,19.417,87.7,19.85,87.7z"/>
		</g>
	</g>
	<g>
		<g>
			<path style="fill-rule:evenodd;clip-rule:evenodd;fill:#54585B;" d="M7.3,77.6c1.2,0.101,1.817,0.784,1.85,2.051
				c0,1.233-0.7,1.683-2.1,1.35c-1.333-0.6-1.833-1.366-1.5-2.3C5.917,77.8,6.5,77.434,7.3,77.6z"/>
		</g>
	</g>
	<g>
		<g>
			<path style="fill-rule:evenodd;clip-rule:evenodd;fill:#54585B;" d="M11.65,86.5c0.333-0.066,0.566,0.184,0.699,0.75
				c0.134,0.533-0.133,0.783-0.8,0.75c-0.8-0.467-1.033-0.833-0.7-1.1C11.35,86.7,11.616,86.566,11.65,86.5z"/>
		</g>
	</g>
	<g>
		<g>
			<path style="fill-rule:evenodd;clip-rule:evenodd;fill:#54585B;" d="M6.55,58.05c0.767-0.066,1.2,0.233,1.3,0.9
				c0.133,0.7-0.2,1-1,0.899C6.283,59.783,5.967,59.467,5.9,58.9C5.8,58.366,6.017,58.083,6.55,58.05z"/>
		</g>
	</g>
	<g>
		<g>
			<path style="fill-rule:evenodd;clip-rule:evenodd;fill:#54585B;" d="M10.4,45.3c0.333,0.1,0.5,0.35,0.5,0.75
				c0,0.367-0.25,0.45-0.75,0.25c-0.3-0.167-0.4-0.4-0.3-0.7C9.95,45.333,10.133,45.233,10.4,45.3z"/>
		</g>
	</g>
	<g>
		<g>
			<path style="fill-rule:evenodd;clip-rule:evenodd;fill:#54585B;" d="M3,43.15c0.2,0,0.317,0.133,0.35,0.4
				c0.066,0.267-0.067,0.383-0.4,0.35c-0.333-0.167-0.45-0.35-0.35-0.55C2.7,43.183,2.833,43.117,3,43.15z"/>
		</g>
	</g>
	<g>
		<g>
			<path style="fill-rule:evenodd;clip-rule:evenodd;fill:#54585B;" d="M10.15,23.05c0.067,1.133-0.2,1.35-0.8,0.65
				c-0.167-0.5-0.1-0.784,0.2-0.85C9.883,22.783,10.083,22.85,10.15,23.05z"/>
		</g>
	</g>
	<g>
		<g>
			<path style="fill-rule:evenodd;clip-rule:evenodd;fill:#54585B;" d="M11.05,10.6c0.4,0.2,0.517,0.433,0.351,0.7
				c-0.167,0.267-0.351,0.284-0.55,0.05c-0.133-0.067-0.2-0.233-0.2-0.5C10.617,10.583,10.75,10.5,11.05,10.6z"/>
		</g>
	</g>
	<g>
		<g>
			<path style="fill-rule:evenodd;clip-rule:evenodd;fill:#54585B;" d="M6.4,5.4c0.333,0.333,0.35,0.717,0.05,1.15
				c-0.3,0.4-0.633,0.35-1-0.15C5.217,5.933,5.267,5.583,5.6,5.35C5.9,5.117,6.167,5.133,6.4,5.4z"/>
		</g>
	</g>
	<g>
		<g>
			<path style="fill-rule:evenodd;clip-rule:evenodd;fill:#54585B;" d="M6.25,13.55c0.267,0.7,0.133,0.883-0.4,0.55
				c-0.133-0.167-0.133-0.333,0-0.5C5.95,13.433,6.083,13.417,6.25,13.55z"/>
		</g>
	</g>
</g>
</svg>
