<?xml version="1.0" encoding="iso-8859-1"?>
<!-- Generator: Adobe Illustrator 15.1.0, SVG Export Plug-In . SVG Version: 6.00 Build 0)  -->
<!DOCTYPE svg PUBLIC "-//W3C//DTD SVG 1.1//EN" "http://www.w3.org/Graphics/SVG/1.1/DTD/svg11.dtd">
<svg version="1.1" id="wall_items" xmlns="http://www.w3.org/2000/svg" xmlns:xlink="http://www.w3.org/1999/xlink" x="0px" y="0px"
	 width="83.2px" height="129.4px" viewBox="0 0 83.2 129.4" style="enable-background:new 0 0 83.2 129.4;" xml:space="preserve">
<path style="fill-rule:evenodd;clip-rule:evenodd;fill:#6A614C;" d="M76.5,46.25c3.6,16.233,5.833,32.616,6.7,49.15L0,129.4
	c2.1-20.867,5.567-41.917,10.4-63.15C20.067,23.817,31.717,1.767,45.35,0.1C58.95-1.567,69.333,13.817,76.5,46.25z"/>
<linearGradient id="SVGID_1_" gradientUnits="userSpaceOnUse" x1="-107.3125" y1="-46.1572" x2="248.3159" y2="-46.1572" gradientTransform="matrix(0.0044 1 -1 0.0044 -1.674937e-005 -1.024716e-004)">
	<stop  offset="0" style="stop-color:#DEB96B"/>
	<stop  offset="1" style="stop-color:#D8E8D9"/>
</linearGradient>
<path style="fill-rule:evenodd;clip-rule:evenodd;fill:url(#SVGID_1_);" d="M77.2,89.4l-61.2,24c1.9-15.867,4.65-31.884,8.25-48.051
	C31.483,33.017,39.4,16.15,48,14.75c8.6-1.4,16.05,10.617,22.35,36.05C73.483,63.533,75.767,76.4,77.2,89.4z"/>
</svg>
