<?xml version="1.0" encoding="iso-8859-1"?>
<!-- Generator: Adobe Illustrator 15.1.0, SVG Export Plug-In . SVG Version: 6.00 Build 0)  -->
<!DOCTYPE svg PUBLIC "-//W3C//DTD SVG 1.1//EN" "http://www.w3.org/Graphics/SVG/1.1/DTD/svg11.dtd">
<svg version="1.1" id="objects" xmlns="http://www.w3.org/2000/svg" xmlns:xlink="http://www.w3.org/1999/xlink" x="0px" y="0px"
	 width="88.05px" height="47.75px" viewBox="0 0 88.05 47.75" style="enable-background:new 0 0 88.05 47.75;" xml:space="preserve"
	>
<g>
	<path style="fill-rule:evenodd;clip-rule:evenodd;fill:#25383B;" d="M50.1,23.65l33.726,7.75c-0.557-0.044-9.998,4.622-28.325,14
		l-47.65-12L50.1,23.65z"/>
	<polygon style="fill-rule:evenodd;clip-rule:evenodd;fill:#355B61;" points="82,33.55 47.85,33.75 48.45,0 86.85,1.25 	"/>
	<polygon style="fill-rule:evenodd;clip-rule:evenodd;fill:#457D87;" points="46.35,42.55 7.85,33.4 6.85,1.75 48.45,0 	"/>
	<g>
		<polygon style="fill-rule:evenodd;clip-rule:evenodd;fill:#3B676E;" points="56.5,44.6 54.85,46 52.45,43 53.95,42.9 		"/>
		<polygon style="fill-rule:evenodd;clip-rule:evenodd;fill:#3B676E;" points="0.25,29.8 1.55,29.45 3.15,30.5 		"/>
		<polygon style="fill-rule:evenodd;clip-rule:evenodd;fill:#6397A3;" points="55.9,47.75 0.1,32.3 0.25,29.8 1.9,30.2 0.7,28.9 
			0.3,26.5 55.45,39.65 55.65,43.15 53,43.4 55.5,45.4 		"/>
		<polygon style="fill-rule:evenodd;clip-rule:evenodd;fill:#4A8995;" points="55.45,39.65 56.5,39.1 56.5,41.95 55.65,43.1 		"/>
		<polygon style="fill-rule:evenodd;clip-rule:evenodd;fill:#4A8995;" points="55.5,45.4 56.5,44.6 56.65,46.9 55.9,47.75 		"/>
		<polygon style="fill-rule:evenodd;clip-rule:evenodd;fill:#3B676E;" points="56.5,39.1 55.45,39.65 0.3,26.5 2.5,26.3 		"/>
	</g>
	<g>
		<polygon style="fill-rule:evenodd;clip-rule:evenodd;fill:#3B676E;" points="56.7,13.85 53.45,14.6 51.15,11.65 53.95,11.25 		"/>
		<polygon style="fill-rule:evenodd;clip-rule:evenodd;fill:#6397A3;" points="54.7,18.3 2.2,10.4 1.7,7.9 3.85,6.4 2.1,1.4 
			55.05,8.1 55,12 52.45,11.8 54.6,13.8 		"/>
		<polygon style="fill-rule:evenodd;clip-rule:evenodd;fill:#4A8995;" points="55.05,8.1 57.05,8.15 57.1,11.9 55,12 		"/>
		<polygon style="fill-rule:evenodd;clip-rule:evenodd;fill:#4A8995;" points="54.6,13.8 56.7,13.85 56.4,18 54.7,18.3 		"/>
	</g>
	<g>
		<polygon style="fill-rule:evenodd;clip-rule:evenodd;fill:#3B676E;" points="53.7,27.6 1.05,19.1 3.7,18.9 54.8,27.3 		"/>
		<polygon style="fill-rule:evenodd;clip-rule:evenodd;fill:#3B676E;" points="54.9,30.15 52.85,31.15 50.9,29.45 52.7,29.1 		"/>
		<polygon style="fill-rule:evenodd;clip-rule:evenodd;fill:#3B676E;" points="54.8,34.35 52.9,35.6 49,34.05 50.95,32.8 		"/>
		<polygon style="fill-rule:evenodd;clip-rule:evenodd;fill:#6397A3;" points="53.7,27.6 53.65,29.2 52.05,29.55 53.6,30.6 
			53.6,33.25 50.75,33.9 53.6,35.1 53.65,38.6 1.15,26.25 1.05,19.1 		"/>
		<polygon style="fill-rule:evenodd;clip-rule:evenodd;fill:#4A8995;" points="53.7,27.6 54.8,27.3 54.7,28.8 53.65,29.2 		"/>
		<polygon style="fill-rule:evenodd;clip-rule:evenodd;fill:#4A8995;" points="53.6,30.6 54.9,30.15 54.75,32.55 53.6,33.25 		"/>
		<polygon style="fill-rule:evenodd;clip-rule:evenodd;fill:#4A8995;" points="53.6,35.1 54.8,34.35 54.7,37.55 53.65,38.6 		"/>
	</g>
	<g>
		<path style="fill-rule:evenodd;clip-rule:evenodd;fill:#3B676E;" d="M56.05,24.05L54.2,25.7c-0.4-0.2-0.8-0.467-1.2-0.8
			c-0.767-0.7-1.167-1.417-1.2-2.15c0-0.733,0.483-1.267,1.45-1.6c0.5-0.167,0.983-0.267,1.45-0.3l-0.3,0.8
			c-0.134,0.6-0.051,1.1,0.25,1.5C55.083,23.817,55.55,24.116,56.05,24.05z"/>
		<path style="fill-rule:evenodd;clip-rule:evenodd;fill:#6397A3;" d="M55.35,18.75l-0.5,2.4c-0.199,0.067-0.399,0.167-0.6,0.3
			c-0.434,0.3-0.667,0.716-0.7,1.25c-0.066,0.767,0.15,1.233,0.65,1.399c0.267,0.101,0.533,0.117,0.8,0.051l0.3,3.1L0,18.55l0.1-7.9
			L55.35,18.75z"/>
		<polygon style="fill-rule:evenodd;clip-rule:evenodd;fill:#4A8995;" points="55.35,18.75 56.4,18.7 56.05,20.95 54.85,21.15 		"/>
		<polygon style="fill-rule:evenodd;clip-rule:evenodd;fill:#4A8995;" points="55,24.15 56.05,24.05 56.2,26.75 55.3,27.25 		"/>
		<polygon style="fill-rule:evenodd;clip-rule:evenodd;fill:#3B676E;" points="56.4,18.7 55.35,18.75 0.1,10.65 1.85,10.45 		"/>
	</g>
	<g>
		<path style="fill-rule:evenodd;clip-rule:evenodd;fill:#3B676E;" d="M56.65,44.05c0.966-0.3,1.449-0.7,1.449-1.2
			c0-0.3-0.05-0.616-0.149-0.949l-0.15-0.4l1.851,0.65l-1.45,2.8L56.65,44.05z"/>
		<path style="fill-rule:evenodd;clip-rule:evenodd;fill:#4A8995;" d="M87.75,27.35l-0.8,5.15L57.2,46.65l0.35-2.301
			c0.767-0.5,1.066-1.066,0.9-1.699c-0.066-0.4-0.316-0.667-0.75-0.801L57.1,41.8l-0.25-2.75L87.75,27.35z"/>
		<polygon style="fill-rule:evenodd;clip-rule:evenodd;fill:#3B676E;" points="87.75,27.35 56.85,39.05 55.95,38.7 86.4,27.25 		"/>
		<polygon style="fill-rule:evenodd;clip-rule:evenodd;fill:#6397A3;" points="55.95,38.7 56.85,39.05 57.1,41.8 56.45,41.45 		"/>
		<polygon style="fill-rule:evenodd;clip-rule:evenodd;fill:#6397A3;" points="57.55,44.35 57.2,46.65 56.35,46.4 56.65,44.05 		"/>
	</g>
	<g>
		<polygon style="fill-rule:evenodd;clip-rule:evenodd;fill:#3B676E;" points="55,33.4 56.55,32.15 57.4,32.25 55.85,33.8 		"/>
		<polygon style="fill-rule:evenodd;clip-rule:evenodd;fill:#4A8995;" points="86.15,20.3 86.05,27.45 55.6,38.35 55.85,33.8 
			57.1,32.35 55.6,32.2 55.4,29.6 		"/>
		<polygon style="fill-rule:evenodd;clip-rule:evenodd;fill:#3B676E;" points="86.15,20.3 55.4,29.6 54.65,29.25 84.55,20.2 		"/>
		<polygon style="fill-rule:evenodd;clip-rule:evenodd;fill:#6397A3;" points="54.65,29.25 55.4,29.6 55.6,32.2 55.1,31.75 		"/>
		<polygon style="fill-rule:evenodd;clip-rule:evenodd;fill:#6397A3;" points="55.85,33.8 55.6,38.35 55,37.55 55,33.4 		"/>
	</g>
	<g>
		<polygon style="fill-rule:evenodd;clip-rule:evenodd;fill:#4A8995;" points="86.95,14.7 86.95,19.25 56.65,28.25 56.7,22.85 		"/>
		<polygon style="fill-rule:evenodd;clip-rule:evenodd;fill:#6397A3;" points="56.65,28.25 55.9,28.05 55.85,22.6 56.7,22.85 		"/>
		<polygon style="fill-rule:evenodd;clip-rule:evenodd;fill:#3B676E;" points="86.95,14.7 56.7,22.85 55.85,22.6 85.5,14.5 		"/>
	</g>
	<g>
		<path style="fill-rule:evenodd;clip-rule:evenodd;fill:#4A8995;" d="M87.85,13.9L56.8,21.95l0.351-3.25
			c0.133,0.033,5.333-1.45,15.6-4.45c5.1-1.5,10.2-3.017,15.3-4.55L87.85,13.9z"/>
		<polygon style="fill-rule:evenodd;clip-rule:evenodd;fill:#6397A3;" points="56.8,21.95 56.2,21.6 56.6,18.4 57.15,18.7 		"/>
		<polygon style="fill-rule:evenodd;clip-rule:evenodd;fill:#3B676E;" points="88.05,9.7 74.65,14.1 57.2,18.8 56.6,18.4 87.1,9.55 
					"/>
	</g>
	<g>
		<polygon style="fill-rule:evenodd;clip-rule:evenodd;fill:#3B676E;" points="56.95,15.2 60.8,14.15 61.5,15.05 57.15,16.2 		"/>
		<polygon style="fill-rule:evenodd;clip-rule:evenodd;fill:#4A8995;" points="87.65,9.05 57.3,18.05 57.55,15.3 60.3,14.75 
			57.65,13.75 57.45,8.9 87.65,1.3 87.5,5 85,6.2 87.7,6.7 		"/>
		<polygon style="fill-rule:evenodd;clip-rule:evenodd;fill:#6397A3;" points="57.3,18.05 56.75,17.9 56.95,15.2 57.55,15.3 		"/>
		<polygon style="fill-rule:evenodd;clip-rule:evenodd;fill:#6397A3;" points="57.65,13.75 57.15,13.55 56.8,8.95 57.45,8.9 		"/>
		<polygon style="fill-rule:evenodd;clip-rule:evenodd;fill:#7DA8B2;" points="87.65,1.3 57.35,9.1 56.8,8.95 86.65,1.2 		"/>
	</g>
	<path style="fill-rule:evenodd;clip-rule:evenodd;fill:#4A8995;" d="M11,5.65c2.567,0.167,3.8,1.017,3.7,2.55
		c-0.067,1.533-1.133,2.233-3.2,2.1c-2.433-0.133-3.683-0.983-3.75-2.55S8.767,5.483,11,5.65z"/>
	<path style="fill-rule:evenodd;clip-rule:evenodd;fill:#4A8995;" d="M30.85,17.8c3.133,0.2,5.25,1.083,6.35,2.65
		c1.066,1.533-0.333,2.05-4.2,1.55c-3.733-0.5-5.7-1.367-5.9-2.6C26.933,18.2,28.183,17.667,30.85,17.8z"/>
	<path style="fill-rule:evenodd;clip-rule:evenodd;fill:#4A8995;" d="M41.9,38.3c1.867,0.634,2.7,1.467,2.5,2.5
		c-0.167,1.033-0.917,1.434-2.25,1.2c-1.267-0.233-2.066-1.066-2.4-2.5C39.417,38.1,40.133,37.7,41.9,38.3z"/>
	<path style="fill-rule:evenodd;clip-rule:evenodd;fill:#4A8995;" d="M77.25,19.1c1.333-0.233,1.95,0.017,1.85,0.75
		c-0.133,0.7-1.183,1.2-3.149,1.5c-2,0.3-2.717,0.083-2.15-0.65C74.333,19.933,75.483,19.4,77.25,19.1z"/>
	<path style="fill-rule:evenodd;clip-rule:evenodd;fill:#457D87;" d="M76.2,25.55c1.934-0.533,2.833-0.184,2.7,1.05
		c-0.134,1.2-1.067,2.051-2.801,2.551c-1.666,0.466-2.5,0.1-2.5-1.101C73.634,26.85,74.5,26.017,76.2,25.55z"/>
	<path style="fill-rule:evenodd;clip-rule:evenodd;fill:#457D87;" d="M67.15,37.2c1.033-0.3,1.666,0.116,1.899,1.25
		c0.267,1.133-0.399,1.883-2,2.25c-1.566,0.399-2.233,0-2-1.2C65.25,38.267,65.95,37.5,67.15,37.2z"/>
	<polygon style="fill-rule:evenodd;clip-rule:evenodd;fill:#4A8995;" points="52.35,10.4 7.6,3.65 53.1,9 	"/>
	<polygon style="fill-rule:evenodd;clip-rule:evenodd;fill:#4A8995;" points="51.95,17 15.35,10.9 15.7,10.25 52.1,15.4 	"/>
	<path style="fill-rule:evenodd;clip-rule:evenodd;fill:#4A8995;" d="M22.6,7.9c1.333-0.1,3.45,0.567,6.35,2l-12-1.65L22.6,7.9z"/>
	<polygon style="fill-rule:evenodd;clip-rule:evenodd;fill:#4A8995;" points="48.35,11.25 48.45,12.65 33.1,9 	"/>
	<path style="fill-rule:evenodd;clip-rule:evenodd;fill:#4A8995;" d="M35.7,10.75c0.966-0.133,1.767,0.067,2.4,0.6
		s0.467,0.833-0.5,0.9s-1.767-0.133-2.4-0.6S34.733,10.883,35.7,10.75z"/>
	<polygon style="fill-rule:evenodd;clip-rule:evenodd;fill:#4A8995;" points="3.2,8.25 8.2,10.15 3.6,9.9 	"/>
	<polygon style="fill-rule:evenodd;clip-rule:evenodd;fill:#4A8995;" points="3.6,3.25 9.35,4.4 3.95,4.4 	"/>
	<path style="fill-rule:evenodd;clip-rule:evenodd;fill:#4A8995;" d="M52.95,20.5l-13-1.6c-4.5-1.6-7.7-2.35-9.6-2.25
		c-1.2,0.033-2.434,0.333-3.7,0.9L25.1,18.4c-0.133-0.333-0.4-0.683-0.8-1.05c-0.767-0.767-1.716-1.25-2.85-1.45
		c-1.833-0.333-8.5-1.25-20-2.75L1.2,12c16.667,2.433,25.75,3.733,27.25,3.9l25.399,3.5L52.95,20.5z"/>
	<polygon style="fill-rule:evenodd;clip-rule:evenodd;fill:#4A8995;" points="2.7,15 23.35,18.15 2.95,16.65 	"/>
	<polygon style="fill-rule:evenodd;clip-rule:evenodd;fill:#4A8995;" points="51.45,21.9 51.1,23.4 39.7,21 	"/>
	<polygon style="fill-rule:evenodd;clip-rule:evenodd;fill:#4A8995;" points="23.1,20.4 23.45,21.25 9.85,18.75 	"/>
	<path style="fill-rule:evenodd;clip-rule:evenodd;fill:#4A8995;" d="M40.85,22.75l7.75,2c-4.1-0.333-6.683-0.616-7.75-0.85
		c-0.867-0.2-1.333-0.467-1.4-0.8C39.35,22.733,39.817,22.617,40.85,22.75z"/>
	<polygon style="fill-rule:evenodd;clip-rule:evenodd;fill:#4A8995;" points="5.2,22.65 9.2,22.25 3.2,20.5 50.1,28.15 	"/>
	<path style="fill-rule:evenodd;clip-rule:evenodd;fill:#4A8995;" d="M36.25,28.85c-10.067-1.3-14.583-2.166-13.55-2.6
		c0.933-0.366,6.05,0.267,15.35,1.9c4.633,0.8,9.184,1.633,13.65,2.5C46.467,30.083,41.317,29.483,36.25,28.85z"/>
	<path style="fill-rule:evenodd;clip-rule:evenodd;fill:#4A8995;" d="M3.2,24.5l11.65,1.9c1.566,0.233,4.233,1.149,8,2.75
		c-5-0.834-8-1.417-9-1.75L3.2,24.5z"/>
	<polygon style="fill-rule:evenodd;clip-rule:evenodd;fill:#4A8995;" points="51.85,36.15 26.7,29 51.1,32 47.1,33.25 	"/>
	<path style="fill-rule:evenodd;clip-rule:evenodd;fill:#4A8995;" d="M3.95,28.65l32.25,7.5L35.6,37
		c-10.434-2.5-16.65-4.033-18.65-4.6c-1.233-0.367-3.85-0.983-7.85-1.851c-2-0.399-3.883-0.783-5.65-1.149L3.95,28.65z"/>
	<polygon style="fill-rule:evenodd;clip-rule:evenodd;fill:#4A8995;" points="26.45,37.65 41.1,42.75 2.35,31.65 35.35,38.65 	"/>
	<path style="fill-rule:evenodd;clip-rule:evenodd;fill:#4A8995;" d="M50.45,40.25c-2.233-0.267-3.267-0.35-3.101-0.25
		c0.233,0.167,0.067,1-0.5,2.5L51.7,45l-7.75-2.25c1-0.233,1.833-0.684,2.5-1.35c0.434-0.4,0.233-1.051-0.601-1.95l-1.399-1.2
		l9.399,2.4C52.717,40.517,51.583,40.384,50.45,40.25z"/>
	<polygon style="fill-rule:evenodd;clip-rule:evenodd;fill:#457D87;" points="58.9,16.05 86.75,8.45 59,16.85 	"/>
	<path style="fill-rule:evenodd;clip-rule:evenodd;fill:#457D87;" d="M85.6,7.6C82.7,7.533,80.45,7.767,78.85,8.3
		c-1,0.3-4.233,1.167-9.699,2.6l-7.95,2.05l-2.9-0.45l1.9-0.25c1.566-0.267,3.083-0.6,4.55-1c1.366-0.367,3.583-1.117,6.65-2.25
		c2.899-1.067,4.5-1.633,4.8-1.7c0.333-0.066,1.166-0.083,2.5-0.05C79.8,7.283,80.533,7.2,80.9,7l5.6-2.9l-3.25,2.75L85.6,7.6z"/>
	<path style="fill-rule:evenodd;clip-rule:evenodd;fill:#457D87;" d="M63.2,8.85l8.3-1.9c-5.167,2.167-8.684,3.283-10.55,3.35
		c-1.233,0.034-1.533-0.1-0.9-0.4C60.483,9.7,61.533,9.35,63.2,8.85z"/>
	<path style="fill-rule:evenodd;clip-rule:evenodd;fill:#457D87;" d="M86.7,2.25l-5.55,2.9c-0.334,0.167-1.617,0.3-3.851,0.4
		c-2.233,0.133-3.366,0.2-3.399,0.2L86.7,2.25z"/>
	<path style="fill-rule:evenodd;clip-rule:evenodd;fill:#457D87;" d="M86.95,10.8c-0.434,0.633-1.384,1.167-2.851,1.6L57.15,20.05
		l0.25-0.7L86.95,10.8z"/>
	<polygon style="fill-rule:evenodd;clip-rule:evenodd;fill:#457D87;" points="86.25,13 86.35,13.75 67.25,18.35 	"/>
	<polygon style="fill-rule:evenodd;clip-rule:evenodd;fill:#457D87;" points="86.05,15.75 85.85,16.35 62.65,23.25 62.35,22.4 	"/>
	<polygon style="fill-rule:evenodd;clip-rule:evenodd;fill:#457D87;" points="58.3,26.5 59.05,25.05 85.65,18.65 	"/>
	<polygon style="fill-rule:evenodd;clip-rule:evenodd;fill:#457D87;" points="83.85,22.05 84.1,22.4 57.9,31.05 57.75,29.7 	"/>
	<path style="fill-rule:evenodd;clip-rule:evenodd;fill:#457D87;" d="M83.9,26.4l0.35,0.3c-8.467,2.6-13.333,4.05-14.6,4.35
		c-0.767,0.2-3.067,1.117-6.9,2.75l-5.55,2.4l1-1.45l4.45-1.9c3.333-1.333,5.983-2.183,7.949-2.55
		C73.833,29.733,78.267,28.434,83.9,26.4z"/>
	<path style="fill-rule:evenodd;clip-rule:evenodd;fill:#457D87;" d="M69.65,27.75L69.6,28.1c0,0.267,0.067,0.45,0.2,0.551
		c0.2,0.133,1.25,0.3,3.15,0.5l-13.9,2.8L69.65,27.75z"/>
	<path style="fill-rule:evenodd;clip-rule:evenodd;fill:#457D87;" d="M76.25,30l-0.3,0.55L67,33.45C72.967,31.15,76.05,30,76.25,30z
		"/>
	<polygon style="fill-rule:evenodd;clip-rule:evenodd;fill:#457D87;" points="84.45,23.5 84.8,24.65 81.6,25 	"/>
	<path style="fill-rule:evenodd;clip-rule:evenodd;fill:#457D87;" d="M86.1,29.55c-9.833,3.733-15.6,5.867-17.3,6.4
		c-1.033,0.3-2.333,1-3.899,2.1l-2,1.5l-4.5-0.3L87,28.3L86.1,29.55z"/>
	<path style="fill-rule:evenodd;clip-rule:evenodd;fill:#457D87;" d="M69.45,36.75l16.8-5.95l-10.5,4.351
		c-0.566,0.267-1.783,0.616-3.65,1.05L69.45,36.75z"/>
	<path style="fill-rule:evenodd;clip-rule:evenodd;fill:#457D87;" d="M69.95,38.6l16.8-6.8l-11.5,5.55
		C74.917,37.55,73.15,37.967,69.95,38.6z"/>
	<path style="fill-rule:evenodd;clip-rule:evenodd;fill:#457D87;" d="M66.35,41.5l-7.899,3.7c3.366-2.066,5.133-3.367,5.3-3.9
		c0.167-0.566-1.066-0.8-3.7-0.7l1.7-0.3c1.167-0.2,1.833-0.283,2-0.25C64.017,40.083,64.884,40.566,66.35,41.5z"/>
	<polygon style="fill-rule:evenodd;clip-rule:evenodd;fill:#7DA8B2;" points="55.05,8.1 2.1,1.4 3.9,1.3 57.05,8.15 	"/>
	<polygon style="fill-rule:evenodd;clip-rule:evenodd;fill:#7DA8B2;" points="85.85,1.15 84.65,1.55 45.9,0.3 48.45,0 	"/>
	<polygon style="fill-rule:evenodd;clip-rule:evenodd;fill:#7DA8B2;" points="48.45,0 49.25,0.4 10.75,1.8 7.65,1.5 	"/>
</g>
</svg>
