<?xml version="1.0" encoding="iso-8859-1"?>
<!-- Generator: Adobe Illustrator 15.1.0, SVG Export Plug-In . SVG Version: 6.00 Build 0)  -->
<!DOCTYPE svg PUBLIC "-//W3C//DTD SVG 1.1//EN" "http://www.w3.org/Graphics/SVG/1.1/DTD/svg11.dtd">
<svg version="1.1" id="objects" xmlns="http://www.w3.org/2000/svg" xmlns:xlink="http://www.w3.org/1999/xlink" x="0px" y="0px"
	 width="87.75px" height="37.5px" viewBox="0 0 87.75 37.5" style="enable-background:new 0 0 87.75 37.5;" xml:space="preserve">
<g>
	<polygon style="fill-rule:evenodd;clip-rule:evenodd;fill:#413B31;" points="3.55,1.4 2.95,37.4 0.3,35.75 0,1.75 	"/>
	<polygon style="fill-rule:evenodd;clip-rule:evenodd;fill:#554D3D;" points="87,0 87.75,37.5 2.95,37.4 3.55,1.4 	"/>
	<path style="fill-rule:evenodd;clip-rule:evenodd;fill:#DD2736;" d="M14.95,15.15c0.167,1.533,1.267,1.95,3.3,1.25
		c1.967-0.633,2.883-1.6,2.75-2.9c-0.133-1.267-1.15-1.7-3.05-1.3C15.783,12.667,14.783,13.65,14.95,15.15z M24.75,12.6
		c1.867,2.167,3.4,4.5,4.6,7H14l-1,3.5c-0.433,2.567-0.1,4.4,1,5.5c1.1,1.101,3.467,0.634,7.1-1.399c1.8-1,3.5-2.117,5.1-3.351
		l2.6,3.7c-0.566,1.033-1.6,2-3.1,2.9c-3,1.866-6.817,2.566-11.45,2.1C11.617,32.316,9.667,31.134,8.4,29
		c-1.167-1.9-1.667-4.283-1.5-7.15C7.033,19.083,7.733,16.5,9,14.1c1.333-2.533,3-4.317,5-5.35
		C17.433,6.983,21.017,8.267,24.75,12.6z"/>
	<polygon style="fill-rule:evenodd;clip-rule:evenodd;fill:#DD2736;" points="44.25,8.3 50.75,7.55 43,20.05 51.5,32.05 47,31.8 
		40.75,22.8 36.25,31.55 29.25,31.55 38,20.05 27.75,9.3 33,9.05 40,18.05 	"/>
	<path style="fill-rule:evenodd;clip-rule:evenodd;fill:#DD2736;" d="M55,12.3l4-0.5l-0.85,3.65c-0.534,2.733-0.75,4.934-0.65,6.6
		c0.167,2.667,0.833,6.084,2,10.25L55,31.8V12.3z"/>
	<path style="fill-rule:evenodd;clip-rule:evenodd;fill:#DD2736;" d="M56,5c1.833,0.167,2.9,1.033,3.2,2.6
		c0.3,1.533-0.517,2.217-2.45,2.05c-1.8-0.167-2.65-1.017-2.55-2.55C54.333,5.567,54.934,4.867,56,5z"/>
	<path style="fill-rule:evenodd;clip-rule:evenodd;fill:#DD2736;" d="M82.75,4.55L83,9.9l-8.8,2.3l-0.45,2.35
		c-0.267,1.8-0.35,3.317-0.25,4.55l0.95,12.45l-3.5-0.2l0.5-19.149l-9.7,1.15l0.45-4.4l2.7,0.45c2.166,0.167,4.116,0.017,5.85-0.45
		C73.517,8.183,77.517,6.717,82.75,4.55z"/>
</g>
</svg>
