<?xml version="1.0" encoding="iso-8859-1"?>
<!-- Generator: Adobe Illustrator 15.1.0, SVG Export Plug-In . SVG Version: 6.00 Build 0)  -->
<!DOCTYPE svg PUBLIC "-//W3C//DTD SVG 1.1//EN" "http://www.w3.org/Graphics/SVG/1.1/DTD/svg11.dtd">
<svg version="1.1" id="objects" xmlns="http://www.w3.org/2000/svg" xmlns:xlink="http://www.w3.org/1999/xlink" x="0px" y="0px"
	 width="221.3px" height="414.75px" viewBox="0 0 221.3 414.75" style="enable-background:new 0 0 221.3 414.75;"
	 xml:space="preserve">
<g>
	<g>
		<g>
			<path style="fill-rule:evenodd;clip-rule:evenodd;fill:#FFFBB1;" d="M204.2,412c-4,0.167-67.334,1.083-190,2.75
				c-1.967,0-3.117-1.483-3.45-4.45l0.1-4.45l197.1-2.85l0.399,4.4C208.083,410.366,206.7,411.9,204.2,412z"/>
			<path style="fill-rule:evenodd;clip-rule:evenodd;fill:#7FB28F;" d="M18.55,382.4c10.934,1.399,22.583,2.833,34.95,4.3
				c24.867,3,43.767,4.55,56.7,4.649c12.233,0.101,29.149-1.866,50.75-5.899c5.366-1,12.583-2.384,21.649-4.15
				c6.834-1.2,11.517-1.767,14.051-1.7l11.35,3.75c7.7,3.101,11.833,6.084,12.4,8.95c0.6,2.9,0.899,5.934,0.899,9.101
				c0,1.6-0.066,2.899-0.2,3.899L0,409.45l3.15-16.2c2.067-1.767,4.267-3.55,6.6-5.35C14.383,384.3,17.317,382.467,18.55,382.4z"/>
			<path style="fill-rule:evenodd;clip-rule:evenodd;fill:#7FB28F;" d="M197.1,387.6c0.334-3.366,0.4-6.666,0.2-9.899
				c-0.366-6.5-1.783-9.467-4.25-8.9c-2.467,0.533-4.383,3.601-5.75,9.2c-0.666,2.8-1.1,5.533-1.3,8.2l-5.8,3.3
				c0.833-5.866,2.184-11.533,4.05-17c3.733-10.866,8.167-15.184,13.3-12.95c5.134,2.2,6.601,7.533,4.4,16
				C200.85,379.783,199.233,383.8,197.1,387.6z"/>
			<path style="fill-rule:evenodd;clip-rule:evenodd;fill:#7FB28F;" d="M15.95,389.55c-1.1-5.1-1.583-10.25-1.45-15.45
				c0.267-10.366,3.517-15.716,9.75-16.05c6.233-0.366,10.55,4.733,12.95,15.3c1.2,5.267,1.783,10.567,1.75,15.9
				c-1.2-3.767-2.7-7.483-4.5-11.15c-3.567-7.3-6.784-10.666-9.65-10.1c-2.9,0.6-4.417,4.15-4.55,10.65
				c-0.067,3.267,0.15,6.466,0.65,9.6L15.95,389.55z"/>
		</g>
		<path style="fill-rule:evenodd;clip-rule:evenodd;fill:#A0C3AA;" d="M202.95,382.75l6.5,2.55c4.6,2.101,7.517,4.084,8.75,5.95
			c1.267,1.866,1.983,4.184,2.149,6.95c0.067,1.366,0.017,2.55-0.149,3.55l-7-0.75c0.333-2,0.166-4.5-0.5-7.5
			c-0.4-1.866-2.15-4.217-5.25-7.05L202.95,382.75z"/>
		<path style="fill-rule:evenodd;clip-rule:evenodd;fill:#A0C3AA;" d="M196.2,360.75l2.8,1.55c1.934,1.367,3,2.934,3.2,4.7
			s-0.066,4.217-0.8,7.35c-0.367,1.567-0.767,2.95-1.2,4.15l-1.5-0.25c1.166-5.333,1.666-9.083,1.5-11.25
			c-0.101-1.366-0.8-2.816-2.101-4.35L196.2,360.75z"/>
		<path style="fill-rule:evenodd;clip-rule:evenodd;fill:#A0C3AA;" d="M29.45,360.5l2.2,2.15c1.567,1.733,2.667,3.433,3.3,5.1
			c1,2.667,2,7.167,3,13.5c-1.667-6.833-3.167-11.25-4.5-13.25c-0.833-1.233-2-2.35-3.5-3.35l-2-1.15l3.75,0.5L29.45,360.5z"/>
		<path style="fill-rule:evenodd;clip-rule:evenodd;fill:#A0C3AA;" d="M26.2,387.25c4.367,0.1,7.933-0.116,10.7-0.65
			c1.367-0.267,2.3-0.55,2.8-0.85l35.75,4.75c6.667,0.833,17.917,1.583,33.75,2.25c-2.367,0.167-5.617,0.283-9.75,0.35
			c-8.233,0.134-16.733-0.066-25.5-0.6c-8.733-0.533-19.317-1.566-31.75-3.1C36,388.634,30.667,387.917,26.2,387.25z"/>
		<path style="fill-rule:evenodd;clip-rule:evenodd;fill:#519B6D;" d="M22.2,358.85l-2.65,3.101c-1.8,2.8-2.7,5.934-2.7,9.399
			c0,5.567,0.233,9.95,0.7,13.15l-1.85,0.35c-0.667-6.433-0.833-11.216-0.5-14.35c0.267-2.366,1.117-4.783,2.55-7.25
			C19.25,360.75,20.733,359.283,22.2,358.85z"/>
		<path style="fill-rule:evenodd;clip-rule:evenodd;fill:#519B6D;" d="M14.7,385.7l-2.2,2.8c-1.6,2.434-2.65,5-3.15,7.7
			c-0.467,2.7-0.367,5.434,0.3,8.2c0.367,1.366,0.767,2.466,1.2,3.3L1.7,408.35c0.767-5.899,1.65-10.399,2.65-13.5
			c0.633-1.933,2.55-4.033,5.75-6.3L14.7,385.7z"/>
		<path style="fill-rule:evenodd;clip-rule:evenodd;fill:#519B6D;" d="M184.05,380.7l-1.5,0.649c1.101-4.433,2.101-7.933,3-10.5
			c0.533-1.6,1.584-3.583,3.15-5.949l2.149-3.051l-0.3,2l-1.149,1.95c-0.867,1.601-1.65,3.233-2.351,4.9
			C185.917,373.366,184.917,376.7,184.05,380.7z"/>
		<path style="fill-rule:evenodd;clip-rule:evenodd;fill:#519B6D;" d="M159.05,387l34.65-6.5l-1.2,1.25
			c-0.667,0.934-0.767,1.75-0.3,2.45s1.583,1.283,3.35,1.75c0.9,0.267,1.733,0.45,2.5,0.55l-46.5,4.35
			c-6.133,0.567-12.916,1.051-20.35,1.45l-9.351,0.4l16.551-2.45C149.866,388.517,156.75,387.434,159.05,387z"/>
		<path style="fill-rule:evenodd;clip-rule:evenodd;fill:#498862;" d="M218.55,404.5l-205.7,3.7l-1.8-1.5L97.7,406
			c5.533,0,19.467-0.233,41.8-0.7c22.4-0.467,34.967-0.783,37.7-0.95c3.666-0.233,18.05-0.733,43.149-1.5L218.55,404.5z"/>
		<polygon style="fill-rule:evenodd;clip-rule:evenodd;fill:#6EA982;" points="169.85,394.5 201.35,392.35 174.05,396.85 
			176.85,401.2 148.35,399.2 147.35,402.35 106.35,399.85 143.05,399.5 145.55,396 169.85,398.5 		"/>
		<path style="fill-rule:evenodd;clip-rule:evenodd;fill:#6EA982;" d="M25.05,391.7l-0.35,2.8l24.65,0.2l-5,3.149l34,1.65
			c-1.267-0.366-2.567-0.733-3.9-1.1c-2.633-0.801-4.05-1.267-4.25-1.4c-0.2-0.134,5.483-0.134,17.05,0
			c5.8,0.066,11.617,0.134,17.45,0.2l-22.65,2.149l9.8,2.351l-52.5-1.851c0.367-0.566,0.717-1.149,1.05-1.75
			c0.633-1.133,0.85-1.666,0.65-1.6c-0.333,0.134-7.733,0.083-22.2-0.15L25.05,391.7z"/>
	</g>
	<polygon style="fill-rule:evenodd;clip-rule:evenodd;fill:#BCD2C1;" points="20.35,0 26.2,372.2 24.2,372.2 16.85,0 	"/>
	<polygon style="fill-rule:evenodd;clip-rule:evenodd;fill:#BCD2C1;" points="204.2,0 194.2,373.5 191.5,373.5 200.7,0 	"/>
</g>
</svg>
