<?xml version="1.0" encoding="iso-8859-1"?>
<!-- Generator: Adobe Illustrator 15.1.0, SVG Export Plug-In . SVG Version: 6.00 Build 0)  -->
<!DOCTYPE svg PUBLIC "-//W3C//DTD SVG 1.1//EN" "http://www.w3.org/Graphics/SVG/1.1/DTD/svg11.dtd">
<svg version="1.1" id="wall_items" xmlns="http://www.w3.org/2000/svg" xmlns:xlink="http://www.w3.org/1999/xlink" x="0px" y="0px"
	 width="81.55px" height="93.75px" viewBox="0 0 81.55 93.75" style="enable-background:new 0 0 81.55 93.75;" xml:space="preserve"
	>
<g>
	<path style="fill-rule:evenodd;clip-rule:evenodd;fill:#554D3D;" d="M31.55,0.25c15.634-2.3,28.65,11.933,39.05,42.7
		c5.233,15.366,8.884,30.967,10.95,46.8l-81,4C-0.517,79.083-0.033,64.184,2,49.05C6.067,18.817,15.917,2.55,31.55,0.25z"/>
	
		<linearGradient id="SVGID_1_" gradientUnits="userSpaceOnUse" x1="-83.9927" y1="-41.7969" x2="189.86" y2="-41.7969" gradientTransform="matrix(0.0044 1 -1 0.0044 -1.998954e-004 2.373378e-004)">
		<stop  offset="0" style="stop-color:#DEB96B"/>
		<stop  offset="1" style="stop-color:#D8E8D9"/>
	</linearGradient>
	<path style="fill-rule:evenodd;clip-rule:evenodd;fill:url(#SVGID_1_);" d="M34.35,9.95c13.067-0.833,23.1,11.15,30.1,35.95
		c3.5,12.367,5.7,24.833,6.6,37.4L15.7,85.95c-2.1-12.334-2.9-24.75-2.4-37.25C14.3,23.7,21.317,10.783,34.35,9.95z"/>
</g>
</svg>
