<?xml version="1.0" encoding="iso-8859-1"?>
<!-- Generator: Adobe Illustrator 15.1.0, SVG Export Plug-In . SVG Version: 6.00 Build 0)  -->
<!DOCTYPE svg PUBLIC "-//W3C//DTD SVG 1.1//EN" "http://www.w3.org/Graphics/SVG/1.1/DTD/svg11.dtd">
<svg version="1.1" id="wall_items" xmlns="http://www.w3.org/2000/svg" xmlns:xlink="http://www.w3.org/1999/xlink" x="0px" y="0px"
	 width="91.35px" height="146.65px" viewBox="0 0 91.35 146.65" style="enable-background:new 0 0 91.35 146.65;"
	 xml:space="preserve">
<path style="fill-rule:evenodd;clip-rule:evenodd;fill:#3E382E;" d="M80.1,73.55c5.067,24.4,8.817,48.767,11.25,73.101L0,108
	c2.333-18.1,5.967-36.183,10.9-54.25C20.8,17.617,32.283-0.3,45.35,0C58.384,0.267,69.967,24.783,80.1,73.55z"/>
<linearGradient id="SVGID_1_" gradientUnits="userSpaceOnUse" x1="-118.4248" y1="-43.1377" x2="281.204" y2="-43.1377" gradientTransform="matrix(0.0044 1 -1 0.0044 3.433619e-004 -1.852307e-005)">
	<stop  offset="0" style="stop-color:#DEB96B"/>
	<stop  offset="1" style="stop-color:#D8E8D9"/>
</linearGradient>
<path style="fill-rule:evenodd;clip-rule:evenodd;fill:url(#SVGID_1_);" d="M66.4,73.5c4.166,18.566,7.583,37.184,10.25,55.85
	l-66-25.35c2.333-14,5.417-28.05,9.25-42.15c7.667-28.233,15.25-42.633,22.75-43.2C50.15,18.117,58.066,36.4,66.4,73.5z"/>
</svg>
