<?xml version="1.0" encoding="iso-8859-1"?>
<!-- Generator: Adobe Illustrator 15.1.0, SVG Export Plug-In . SVG Version: 6.00 Build 0)  -->
<!DOCTYPE svg PUBLIC "-//W3C//DTD SVG 1.1//EN" "http://www.w3.org/Graphics/SVG/1.1/DTD/svg11.dtd">
<svg version="1.1" id="objects" xmlns="http://www.w3.org/2000/svg" xmlns:xlink="http://www.w3.org/1999/xlink" x="0px" y="0px"
	 width="456.5px" height="105.4px" viewBox="0 0 456.5 105.4" style="enable-background:new 0 0 456.5 105.4;" xml:space="preserve"
	>
<g>
	<g>
		<path style="fill-rule:evenodd;clip-rule:evenodd;fill:#6E333C;" d="M52.9,40.6l-6.7-5.9l42.7-1.05L64.75,75.6L72.4,76.7l6.55,12
			c-1,0.733-2.434,1.434-4.3,2.1c-3.733,1.367-7.75,1.934-12.05,1.7c-4.333-0.2-8.9-1.083-13.7-2.65l-5.95-2.25l7.1-11.449h9.25
			c0.367-1.9,0.684-4.233,0.95-7c0.567-5.567,0.617-10.517,0.15-14.851C59.933,50,57.433,45.433,52.9,40.6z"/>
		<path style="fill-rule:evenodd;clip-rule:evenodd;fill:#6E333C;" d="M390.25,40.6c-4.533,4.833-7.033,9.4-7.5,13.7
			c-0.467,4.334-0.417,9.283,0.15,14.851c0.267,2.767,0.583,5.1,0.949,7h9.25L400.2,87.6c-1.533,0.733-3.5,1.483-5.9,2.25
			c-4.833,1.567-9.416,2.45-13.75,2.65c-4.3,0.233-8.316-0.333-12.05-1.7l-4.3-2.1l6.55-12l7.65-1.101L354.3,33.65l42.65,1.05
			C394.783,36.233,392.55,38.2,390.25,40.6z"/>
		
			<linearGradient id="SVGID_1_" gradientUnits="userSpaceOnUse" x1="15.9419" y1="42.0908" x2="446.1254" y2="42.0908" gradientTransform="matrix(0.9933 -0.1156 0.1156 0.9933 -9.420514e-005 1.751482e-004)">
			<stop  offset="0" style="stop-color:#C7B48D"/>
			<stop  offset="0.1922" style="stop-color:#D3C29F"/>
			<stop  offset="0.498" style="stop-color:#EFE3CA"/>
			<stop  offset="0.5804" style="stop-color:#E6D8BD"/>
			<stop  offset="0.8392" style="stop-color:#CFBE9A"/>
			<stop  offset="1" style="stop-color:#C7B48D"/>
		</linearGradient>
		<path style="fill-rule:evenodd;clip-rule:evenodd;fill:url(#SVGID_1_);" d="M456.5,26.75c-21.267,0.267-45.767,0.45-73.5,0.55
			c-55.533,0.267-99.55,0.083-132.05-0.55c-32.467-0.633-84.034-0.567-154.7,0.2c-35.333,0.367-67.417,0.8-96.25,1.3L41.9,0
			l398,0.65L456.5,26.75z"/>
		<path style="fill-rule:evenodd;clip-rule:evenodd;fill:#AC4654;" d="M400.9,79.35l-5.95-10.6L50.7,71.95l-5.15,8.7L400.9,79.35z
			 M426.55,34.7c-2.666,1.9-5.383,4.316-8.149,7.25c-5.567,5.867-8.634,11.45-9.2,16.75c-0.533,5.267-0.467,11.283,0.2,18.05
			c0.333,3.4,0.716,6.267,1.149,8.6l10.5,3.351l8,12c-1.633,0.666-3.8,1.366-6.5,2.1c-5.399,1.434-10.733,2.283-16,2.55
			s-10.184-0.433-14.75-2.1l-5.25-2.55l7.3-13.45L48.15,85.4l4.4,0.6l8,14.7c-1.233,0.899-2.983,1.75-5.25,2.55
			c-4.566,1.667-9.483,2.366-14.75,2.1c-8.433-0.433-15.6-1.316-21.5-2.649l9.3-15.351l8.2-2c0.434-2.333,0.817-5.199,1.15-8.6
			c0.667-6.767,0.733-12.783,0.2-18.05c-0.566-5.3-3.633-10.883-9.2-16.75c-1.733-1.833-3.617-3.6-5.65-5.3l-2.5-1.95l26.75,1.75
			l0.6-3.8l354.65-4l-0.1,6.05H426.55z"/>
		<path style="fill-rule:evenodd;clip-rule:evenodd;fill:#813943;" d="M428.55,32.8l-6,5.2l-81.899,2.65l-2.5-5l-68.25-1.5
			l-1.25,4.25L118.9,44.9c-2.833-1.667-5.917-3.267-9.25-4.8c-6.667-3.1-11.25-4.333-13.75-3.7s-5.617,2.317-9.35,5.05l-4.9,3.95
			L31.35,45L21.5,33.65l236.65-4.25L428.55,32.8z"/>
		<path style="fill-rule:evenodd;clip-rule:evenodd;fill:#9C8E71;" d="M456.5,26.75L454.2,36l-113,3.35L340.55,34l-76-1.3
			l-1.35,4.65L119.2,42c-2.1-1.333-4.6-2.633-7.5-3.9c-5.767-2.567-10.6-3.7-14.5-3.4c-3.867,0.267-8.367,1.566-13.5,3.9L77.2,42
			l-59.3-0.65L0,28.25c12.667-0.7,26.017-1.35,40.05-1.95c28.067-1.2,45.567-1.517,52.5-0.95c1.967,0.167,15.167,0.15,39.6-0.05
			c32.467-0.267,59.65-0.367,81.55-0.3C280.967,25.233,361.9,25.817,456.5,26.75z"/>
		<polygon style="fill-rule:evenodd;clip-rule:evenodd;fill:#877B64;" points="3.9,28.9 19.9,37.9 76.65,41.15 18.4,40.15 		"/>
		<polygon style="fill-rule:evenodd;clip-rule:evenodd;fill:#877B64;" points="262.9,34.9 262.4,36.15 119.65,40.9 117.4,39.9 		"/>
		<polygon style="fill-rule:evenodd;clip-rule:evenodd;fill:#877B64;" points="453.65,33.65 453.4,34.9 341.9,38.4 341.9,34.15 
			344.15,36.65 		"/>
		<path style="fill-rule:evenodd;clip-rule:evenodd;fill:#813943;" d="M44.4,85.5l7.8,0.85l7.5,14.15
			c-1.367,0.667-3.067,1.35-5.1,2.05c-4.067,1.434-7.8,2.25-11.2,2.45s-8.333-0.217-14.8-1.25l-8.7-1.6
			c7.2,0.666,13.133,1.116,17.8,1.35c3.566,0.167,7-0.134,10.3-0.9c3.333-0.8,5.3-1.816,5.9-3.05c0.467-1.033,0.133-3.416-1-7.149
			L51,87.15L44.4,85.5z"/>
		<path style="fill-rule:evenodd;clip-rule:evenodd;fill:#9C8E71;" d="M400.9,79.35c-35.4,0.2-71.233,0.384-107.5,0.551
			c-72.534,0.366-110.934,0.517-115.2,0.449c-6.767-0.133-51.034,0.084-132.8,0.65l1.25-2.15l352.4-2.35L400.9,79.35z"/>
		<path style="fill-rule:evenodd;clip-rule:evenodd;fill:#C34D5C;" d="M400.8,79.35c-35.399,0.2-71.233,0.384-107.5,0.551
			c-72.533,0.366-110.917,0.517-115.15,0.449C171.383,80.217,127.1,80.434,45.3,81l1.25-2.15L399,76.5L400.8,79.35z"/>
		<path style="fill-rule:evenodd;clip-rule:evenodd;fill:#C78383;" d="M37.9,85.9l-3.55,3.6c-2.533,2.733-4.184,4.95-4.95,6.65
			c-1.1,2.399-2.066,4.316-2.9,5.75l-5.25-0.5c1.167-1.934,2.383-3.917,3.65-5.95c2.533-4.101,4.117-6.45,4.75-7.05
			c0.633-0.567,2.2-1.15,4.7-1.75C35.583,86.35,36.767,86.1,37.9,85.9z"/>
		<path style="fill-rule:evenodd;clip-rule:evenodd;fill:#A5354A;" d="M37.5,91.9c0.267-1.233,1.083-2.517,2.45-3.851L41.9,86.4
			l1.9,0.55c1.333,0.434,2.2,0.916,2.6,1.45c0.667,0.833,1.867,5.083,3.6,12.75l-4.1,1c-1.633,0.433-3.667,0.683-6.1,0.75h-3.15
			C36.817,97.566,37.1,93.9,37.5,91.9z"/>
		<path style="fill-rule:evenodd;clip-rule:evenodd;fill:#813943;" d="M401.15,86.65c-30-0.5-47.584-0.75-52.75-0.75
			c-5.101,0-16.101,0.033-33,0.1c-18.467,0.066-29.184,0.116-32.15,0.15c-2.2,0.066-13.783,0.017-34.75-0.15
			c-20.933-0.167-32.433-0.233-34.5-0.2c-2.467,0.033-18.317-0.017-47.55-0.149c-31.3-0.167-47.2-0.25-47.7-0.25
			c-4.233,0-28.85-0.2-73.85-0.601l0.35-0.75l94.65,0.5L401.15,84.9V86.65z"/>
		<path style="fill-rule:evenodd;clip-rule:evenodd;fill:#C78383;" d="M403.2,88.15c-3.467,0.166-5.851,0.733-7.15,1.699
			c-0.899,0.7-1.733,2.134-2.5,4.301c-0.566,1.6-0.649,3.533-0.25,5.8c0.2,1.133,0.45,2.1,0.75,2.899l-3.5-1.35
			c-0.566-0.2-1.184-0.483-1.85-0.85l-0.8-0.5l2.949-5.5c2.167-3.767,3.733-5.867,4.7-6.301
			C397.116,87.684,399.667,87.616,403.2,88.15z"/>
		<path style="fill-rule:evenodd;clip-rule:evenodd;fill:#813943;" d="M409.7,86.85L414.6,88c3.434,0.9,5.534,1.733,6.301,2.5
			c1.199,1.233,3.466,4.4,6.8,9.5c-3.334,1.233-6.934,2.283-10.8,3.15c-2.233,0.533-5.134,0.933-8.7,1.199l-4.65,0.301l3.4-0.7
			c2.5-0.533,4.366-1.017,5.6-1.45c1.601-0.533,3.017-1.583,4.25-3.15c1.3-1.666,1.717-3.166,1.25-4.5
			c-0.399-1.199-1.916-2.883-4.55-5.05L409.7,86.85z"/>
		<path style="fill-rule:evenodd;clip-rule:evenodd;fill:#A5354A;" d="M398.9,95.35c0.466-1.566,1.399-2.983,2.8-4.25
			c1.2-1.066,2.267-1.699,3.2-1.899l2.149,6.25c1.3,4.233,1.634,6.533,1,6.899c-0.633,0.334-2.399,0.584-5.3,0.75l-4.2,0.101
			C398.116,100.3,398.233,97.684,398.9,95.35z"/>
		<path style="fill-rule:evenodd;clip-rule:evenodd;fill:#C78383;" d="M40.15,82.9l-2,0.25c1-10.667,1.333-18.334,1-23
			c-0.2-2.9-1.1-6.067-2.7-9.5l-2.3-4.25l2.55,3.65c1.767,2.967,2.917,5.75,3.45,8.351c0.533,2.6,0.684,7.466,0.45,14.6
			C40.5,76.566,40.35,79.866,40.15,82.9z"/>
		<path style="fill-rule:evenodd;clip-rule:evenodd;fill:#813943;" d="M420.15,38.9c-1.967,1.7-3.95,3.883-5.95,6.55
			c-4.066,5.267-6.25,10.25-6.55,14.95c-0.2,3.033,0.066,8.116,0.8,15.25c0.399,3.566,0.8,6.816,1.2,9.75l-1.75-0.25
			c-1.467-10.134-2.134-18.301-2-24.5c0.1-5.834,2.5-11.2,7.199-16.101C415.467,42.083,417.816,40.2,420.15,38.9z"/>
		<path style="fill-rule:evenodd;clip-rule:evenodd;fill:#813943;" d="M390.55,65c-0.233-0.9-0.233-1.9,0-3l2.351-9.35L392.6,55.4
			c-0.166,2.133-0.183,3.883-0.05,5.25c0.233,2.233,0.684,4.466,1.351,6.699C361.8,67.616,328.934,67.9,295.3,68.2
			C228.066,68.733,190.7,69,183.2,69s-31.85,0.233-73.05,0.7c-20.633,0.2-40.5,0.416-59.6,0.649l4-10.35l-0.65,9l151-3
			C218,65.767,279.884,65.434,390.55,65z"/>
		<path style="fill-rule:evenodd;clip-rule:evenodd;fill:#C78383;" d="M59.55,63.7L69.2,67h-13c0.466-1.533,0.917-3.75,1.35-6.65
			c0.267-1.8,0.233-4.517-0.1-8.149l-0.55-4.85L59.55,63.7z"/>
		<path style="fill-rule:evenodd;clip-rule:evenodd;fill:#C78383;" d="M193.2,62c-6.2,0-43.967,0.45-113.3,1.35
			c16.567-0.666,33.733-1.333,51.5-2c35.533-1.333,56.367-2,62.5-2c9.767,0,37.867,1,84.3,3L193.2,62z"/>
		<polygon style="fill-rule:evenodd;clip-rule:evenodd;fill:#813943;" points="390.9,42.65 388.55,63.65 304.2,64 385.9,61 		"/>
		<path style="fill-rule:evenodd;clip-rule:evenodd;fill:#C78383;" d="M361.95,58.05c10.666-0.733,17.866-0.967,21.6-0.7
			c0.434,0,0.55,0.767,0.351,2.301l-99,2.699l24-1.35c17-0.967,28-1.517,33-1.65C342.233,59.35,348.917,58.917,361.95,58.05z"/>
		<path style="fill-rule:evenodd;clip-rule:evenodd;fill:#C2B6A0;" d="M106.2,28.3c-14.7-0.2-23.467-0.333-26.3-0.4
			c-3.867-0.1-16.85,0-38.95,0.3C29.883,28.333,19.2,28.483,8.9,28.65c38.167-1.667,61.417-2.5,69.75-2.5
			c6.7,0,15.684,0.05,26.95,0.15c11.933,0.1,20.033,0.217,24.3,0.35c6,0.167,21.083-0.083,45.25-0.75
			c-26.667,2-41.833,2.917-45.5,2.75C127.717,28.55,119.9,28.433,106.2,28.3z"/>
		<path style="fill-rule:evenodd;clip-rule:evenodd;fill:#C2B6A0;" d="M178.65,26.15l181.5,0.5c-50.167,0.333-79.167,0.583-87,0.75
			c-4.9,0.1-22.95,0.167-54.15,0.2l-45.35,0.05L178.65,26.15z"/>
		<polygon style="fill-rule:evenodd;clip-rule:evenodd;fill:#C2B6A0;" points="364.9,27.15 455.4,27.9 364.9,28.4 		"/>
		<path style="fill-rule:evenodd;clip-rule:evenodd;fill:#DECCA8;" d="M30.6,10.8c-8.167,6.967-12.184,10.934-12.05,11.9
			c0.133,0.966,6.9,1.367,20.3,1.2c3.35-0.05,6.7-0.1,10.05-0.15l-41,1.95l35-25C38.8,3.967,34.7,7.333,30.6,10.8z"/>
		<path style="fill-rule:evenodd;clip-rule:evenodd;fill:#DECCA8;" d="M433.15,22.15c7.5-0.733,10.883-4.2,10.149-10.4
			c-0.399-3.1-1.533-6.133-3.399-9.1l14.3,21.7L363.9,24l31.55-0.6C417.15,22.9,429.717,22.483,433.15,22.15z"/>
	</g>
	<path style="fill-rule:evenodd;clip-rule:evenodd;fill:#9A3347;" d="M98.55,44c2.034-0.167,3.733,0.4,5.1,1.7
		c1.2,1.2,1.883,2.7,2.05,4.5c0.2,1.8-0.184,3.366-1.15,4.7c-1.066,1.466-2.617,2.283-4.65,2.449c-2.833,0.2-5.083-0.333-6.75-1.6
		c-1.533-1.134-2.333-2.6-2.4-4.4c-0.1-1.8,0.517-3.4,1.85-4.8C94.033,45.05,96.017,44.2,98.55,44z"/>
	<path style="fill-rule:evenodd;clip-rule:evenodd;fill:#9A3347;" d="M286,43.25c1.533,1.333,2.434,2.983,2.7,4.95
		c0.3,2-0.2,3.716-1.5,5.149c-1.467,1.601-3.684,2.483-6.65,2.65s-5.149-0.467-6.55-1.9c-1.267-1.266-1.783-2.917-1.55-4.95
		c0.233-1.933,1.033-3.667,2.399-5.2c1.434-1.6,3.117-2.467,5.051-2.6C282.267,41.183,284.3,41.817,286,43.25z"/>
	<path style="fill-rule:evenodd;clip-rule:evenodd;fill:#9A3347;" d="M371.2,45.35c3.233-0.3,4.733,1.066,4.5,4.1
		c-0.101,1.2-0.533,2.233-1.3,3.1c-0.867,0.967-1.934,1.45-3.2,1.45c-1.3,0-2.434-0.417-3.4-1.25c-0.899-0.767-1.434-1.683-1.6-2.75
		C365.733,47.267,367.4,45.717,371.2,45.35z"/>
	<path style="fill-rule:evenodd;clip-rule:evenodd;fill:#9A3347;" d="M79.5,53.35c-0.333,2.667-1.767,4-4.3,4
		c-1.133,0-2.233-0.416-3.3-1.25c-1-0.8-1.65-1.716-1.95-2.75c-0.767-2.667,0.983-4,5.25-4C78.4,49.35,79.833,50.683,79.5,53.35z"/>
	<path style="fill-rule:evenodd;clip-rule:evenodd;fill:#9A3347;" d="M170.8,51.05c0.1,2.533-1.533,3.967-4.9,4.3
		c-1.566,0.167-2.9-0.233-4-1.199c-0.933-0.834-1.483-1.884-1.65-3.15c-0.133-1.267,0.2-2.317,1-3.15
		c0.9-0.934,2.217-1.317,3.95-1.15C168.833,47.033,170.7,48.483,170.8,51.05z"/>
	<path style="fill-rule:evenodd;clip-rule:evenodd;fill:#9A3347;" d="M324.8,46.35c1-0.733,2.25-0.85,3.75-0.35
		c2.334,0.8,3.75,2.3,4.25,4.5c0.533,2.333-0.883,3.5-4.25,3.5c-1.7,0-3.033-0.517-4-1.55c-0.833-0.9-1.217-1.983-1.149-3.25
		C323.434,47.967,323.9,47.017,324.8,46.35z"/>
	<path style="fill-rule:evenodd;clip-rule:evenodd;fill:#9A3347;" d="M124.65,49.2c0.867-0.934,1.95-1.333,3.25-1.2
		c3.2,0.367,5.167,1.817,5.9,4.35c0.733,2.567-0.8,4.016-4.6,4.35c-3.8,0.3-5.7-1.15-5.7-4.35
		C123.5,51.117,123.883,50.067,124.65,49.2z"/>
	<path style="fill-rule:evenodd;clip-rule:evenodd;fill:#9A3347;" d="M314.1,49.65c-0.267,2-1.449,3-3.55,3c-1.934,0-2.8-1-2.6-3
		c0.233-2,1.217-3,2.95-3C313.333,46.65,314.4,47.65,314.1,49.65z"/>
	<path style="fill-rule:evenodd;clip-rule:evenodd;fill:#9A3347;" d="M354.2,46.35c1.2,0,2,0.883,2.399,2.65
		c0.367,1.733-0.433,2.517-2.399,2.35c-1.967-0.167-2.75-1.05-2.351-2.65C352.217,47.133,353,46.35,354.2,46.35z"/>
	<path style="fill-rule:evenodd;clip-rule:evenodd;fill:#9A3347;" d="M344.45,49.9c-0.101,2.033-1.066,2.967-2.9,2.8
		c-1.666-0.167-2.566-1.05-2.7-2.65c-0.166-1.633,0.517-2.533,2.051-2.7C343.4,47.017,344.583,47.867,344.45,49.9z"/>
	<path style="fill-rule:evenodd;clip-rule:evenodd;fill:#9A3347;" d="M150.2,50.95c0.233,2.267-0.534,3.399-2.3,3.399
		c-1.833,0-2.767-0.966-2.8-2.899c-0.067-1.934,0.75-3.083,2.45-3.45C149.083,47.667,149.967,48.65,150.2,50.95z"/>
	<path style="fill-rule:evenodd;clip-rule:evenodd;fill:#9A3347;" d="M187.55,47.35c1.8-0.233,3.15,0.066,4.05,0.9
		c0.767,0.7,1.1,1.65,1,2.85c-0.133,1.167-0.617,2.167-1.45,3c-0.9,0.934-1.983,1.351-3.25,1.25c-2.566-0.166-3.8-1.483-3.7-3.95
		C184.3,48.967,185.417,47.617,187.55,47.35z"/>
	<path style="fill-rule:evenodd;clip-rule:evenodd;fill:#9A3347;" d="M229.9,44.65c1.433-0.167,2.8,0.3,4.1,1.4
		c1.2,1.034,2,2.284,2.4,3.75c0.433,1.567,0.233,2.867-0.601,3.9c-0.934,1.233-2.566,1.883-4.899,1.95
		c-2.367,0.1-4.234-0.384-5.601-1.45c-1.233-0.9-1.867-2.083-1.9-3.55c-0.066-1.433,0.467-2.7,1.6-3.8
		C226.2,45.617,227.833,44.883,229.9,44.65z"/>
	<path style="fill-rule:evenodd;clip-rule:evenodd;fill:#9A3347;" d="M261.55,46.7c2.3-0.333,3.601,0.517,3.9,2.55
		c0.267,2.067-0.7,3.1-2.9,3.1c-2.233,0-3.566-0.85-4-2.55C258.15,48.067,259.15,47.033,261.55,46.7z"/>
	<path style="fill-rule:evenodd;clip-rule:evenodd;fill:#9A3347;" d="M201.55,53.7c-2.2,0.166-3.283-0.817-3.25-2.95
		c0.034-2.133,1.233-3.267,3.6-3.4c1.267-0.1,1.783,0.917,1.55,3.05C203.25,52.5,202.617,53.6,201.55,53.7z"/>
	<path style="fill-rule:evenodd;clip-rule:evenodd;fill:#9A3347;" d="M248.6,49.55c0.167,1.867-0.85,2.8-3.05,2.8
		c-2.133,0-3.25-0.867-3.35-2.6c-0.101-1.7,0.8-2.617,2.7-2.75C247.2,46.867,248.434,47.717,248.6,49.55z"/>
	<path style="fill-rule:evenodd;clip-rule:evenodd;fill:#9A3347;" d="M217.3,50.05c0,2.2-1.133,3.3-3.4,3.3
		c-2.3,0-3.367-1.016-3.2-3.05c0.133-2.033,1.3-3.133,3.5-3.3C216.267,46.833,217.3,47.85,217.3,50.05z"/>
	<path style="fill-rule:evenodd;clip-rule:evenodd;fill:#9A3347;" d="M302.7,49.5c-0.066,2.5-1.334,3.667-3.8,3.5
		c-2.434-0.133-3.551-1.3-3.351-3.5c0.2-2.167,1.417-3.333,3.65-3.5C301.566,45.833,302.733,47,302.7,49.5z"/>
</g>
</svg>
