<?xml version="1.0" encoding="iso-8859-1"?>
<!-- Generator: Adobe Illustrator 15.1.0, SVG Export Plug-In . SVG Version: 6.00 Build 0)  -->
<!DOCTYPE svg PUBLIC "-//W3C//DTD SVG 1.1//EN" "http://www.w3.org/Graphics/SVG/1.1/DTD/svg11.dtd">
<svg version="1.1" id="objects" xmlns="http://www.w3.org/2000/svg" xmlns:xlink="http://www.w3.org/1999/xlink" x="0px" y="0px"
	 width="170.85px" height="95.6px" viewBox="0 0 170.85 95.6" style="enable-background:new 0 0 170.85 95.6;" xml:space="preserve"
	>
<g>
	<g>
		<path style="fill-rule:evenodd;clip-rule:evenodd;fill:#AC4654;" d="M100.6,48.5c-1-2.6-2.683-4.85-5.05-6.75
			c-2.434-1.933-5-3.017-7.7-3.25c-2.3-0.2-5.633,0.2-10,1.2c-5.367,1.4-9.533,2.433-12.5,3.1c-11.4,2.667-20.4,2.733-27,0.2
			C31.283,40.3,27.5,35.4,27,28.3c-0.167-2.2,0-4.5,0.5-6.9l0.85-2.9l6-1v2.85c0.133,2.3,0.45,4.433,0.95,6.4
			c1.567,6.333,4.75,9.917,9.55,10.75c4.8,0.833,8.733-1.917,11.8-8.25c1.567-3.167,2.633-6.417,3.2-9.75l5.5-2l0.1,2.8
			c0.167,2.2,0.517,4.184,1.05,5.95c1.667,5.667,4.783,8.083,9.35,7.25c4.6-0.833,8.316-3.667,11.15-8.5c1.4-2.4,2.35-4.733,2.85-7
			l5.5-0.5l2,8.75c2,5.833,4.667,8.75,8,8.75c3.334,0,6.75-2.917,10.25-8.75c1.767-2.9,3.184-5.817,4.25-8.75l8,2.5
			c-2.666,3.667-5.517,8.017-8.55,13.05c-6.1,10.1-10.083,18.584-11.95,25.45c-1.833,6.667-6.583,10.483-14.25,11.45
			c-0.899,0.1-4.3,0.283-10.2,0.55c-4.267,0.233-7.617,0.733-10.05,1.5c-4.033,1.333-6.083,3.15-6.15,5.45
			c2.3,0.267,4.017,0.783,5.15,1.55c2.1,1.467,4.316,4.45,6.65,8.95c1.167,2.233,2.133,4.333,2.9,6.3l-7.25,1.25l-6.6-1.25
			l-0.3-5.05l-5.9,0.3l1,4.7l-4,0.899l-3.25-0.75l-0.25-3.85l-7.5,0.5v3.5l-5,1.1l-4.15-1.1c-0.133-0.833-0.133-1.934,0-3.3
			c0.3-2.767,1.183-5.5,2.65-8.2c1.833-3.4,4.566-5.1,8.2-5.1c0.733-2.267,1.833-4.4,3.3-6.4c1-1.333,3.083-2.283,6.25-2.85
			c1.9-0.367,5.417-0.7,10.55-1c11.4-0.733,19.633-2.284,24.7-4.65c3.534-1.634,5.851-3.85,6.95-6.65
			C101.767,53.917,101.7,51.3,100.6,48.5z"/>
		<g>
			<polygon style="fill-rule:evenodd;clip-rule:evenodd;fill:#813943;" points="60.4,94.6 60.55,89.6 61.35,89.5 62.35,94.2 			"/>
			<polygon style="fill-rule:evenodd;clip-rule:evenodd;fill:#813943;" points="45.75,94.85 46.4,91.05 47.35,91 47.35,94.5 			"/>
			<path style="fill-rule:evenodd;clip-rule:evenodd;fill:#813943;" d="M71.85,79c2.1,1.467,4.35,4.45,6.75,8.95
				c1.2,2.233,2.2,4.333,3,6.3L76.75,95c-1-6.366-1.8-10.25-2.4-11.65c-1.3-2.899-3.283-4.783-5.95-5.649
				C69.9,78.033,71.05,78.467,71.85,79z"/>
			<path style="fill-rule:evenodd;clip-rule:evenodd;fill:#813943;" d="M32.1,23.5c-0.667,0-1.333,0.167-2,0.5l-3.15,1.55
				c0.066-1.867,0.383-3.8,0.95-5.8l6.4-1.35c0,3.633,0.467,6.917,1.4,9.85c1.566,5,4.3,8.017,8.2,9.05
				c-2.667-0.233-4.767-0.833-6.3-1.8c-1.567-0.933-2.95-3.217-4.15-6.85L32.1,23.5z"/>
			<path style="fill-rule:evenodd;clip-rule:evenodd;fill:#813943;" d="M109.6,44.75c1.301-3.4,3.884-9.05,7.75-16.95l-1.8-1.5
				c0.767-1.3,1.55-2.767,2.351-4.4l8.899-0.45c-3.467,5-6.684,10.066-9.649,15.2c-4.9,8.567-8.167,15.85-9.801,21.85
				c-1.833,6.667-6.583,10.483-14.25,11.45c-0.899,0.1-4.3,0.283-10.2,0.55c-4.267,0.233-7.617,0.733-10.05,1.5
				c-4.033,1.333-6.083,3.15-6.15,5.45l0.85,0.1c-0.733,0.4-1.216,0.634-1.45,0.7c-1.367,0.434-3.317,0.7-5.85,0.8l-3.4,0.05
				c2-0.199,3.583-0.55,4.75-1.05c0.433-0.166,0.783-0.75,1.05-1.75C63.017,75,64,73.65,65.6,72.25
				c1.733-1.533,6.467-2.733,14.2-3.6c4.133-0.467,9.483-1.017,16.05-1.65c4.301-0.733,7.467-3.6,9.5-8.6
				C107.116,52.134,108.533,47.583,109.6,44.75z"/>
			<path style="fill-rule:evenodd;clip-rule:evenodd;fill:#813943;" d="M88.25,22.5c0.667-1.5,1.167-2.9,1.5-4.2l5.6-0.8l2,8.75
				c2,5.833,4.667,8.75,8,8.75c-0.633,0.033-1.366,0-2.199-0.1c-1.667-0.2-3.017-0.667-4.051-1.4c-1.033-0.733-2.3-2.783-3.8-6.15
				l-1.95-4.85H88.25z"/>
			<path style="fill-rule:evenodd;clip-rule:evenodd;fill:#813943;" d="M62.15,18.7l3.2-0.2c0.066,3.667,0.633,6.85,1.7,9.55
				c1.8,4.4,4.733,6.217,8.8,5.45c-0.867,0.3-1.883,0.467-3.05,0.5c-2.267,0.1-4.083-0.483-5.45-1.75
				c-1.367-1.233-2.517-3.267-3.45-6.1l-1.05-3.9L59.25,22l0.6-2.5L62.15,18.7z"/>
		</g>
		<linearGradient id="SVGID_1_" gradientUnits="userSpaceOnUse" x1="0" y1="6.5" x2="170.8496" y2="6.5">
			<stop  offset="0" style="stop-color:#C7B48D"/>
			<stop  offset="0.1922" style="stop-color:#D3C29F"/>
			<stop  offset="0.498" style="stop-color:#EFE3CA"/>
			<stop  offset="0.5804" style="stop-color:#E6D8BD"/>
			<stop  offset="0.8392" style="stop-color:#CFBE9A"/>
			<stop  offset="1" style="stop-color:#C7B48D"/>
		</linearGradient>
		<polygon style="fill-rule:evenodd;clip-rule:evenodd;fill:url(#SVGID_1_);" points="0,13 28.35,0 170.85,1.5 151.65,13 		"/>
		<path style="fill-rule:evenodd;clip-rule:evenodd;fill:#DECCA8;" d="M24.45,2.8c-0.979,0.479-1.962,0.979-2.95,1.5
			c-4.8,2.534-7.3,4.383-7.5,5.55c-0.2,1.2,5.15,1.95,16.05,2.25c0.569,0.017,1.136,0.034,1.7,0.05L4.5,12.05L24.45,2.8z"/>
		<path style="fill-rule:evenodd;clip-rule:evenodd;fill:#DECCA8;" d="M151.35,9.7c2.667-0.9,8.167-3.45,16.5-7.65l-16,9.65
			l-32,0.65l14.25-0.8C143.934,10.883,149.684,10.267,151.35,9.7z"/>
		<path style="fill-rule:evenodd;clip-rule:evenodd;fill:#9C8E71;" d="M151.65,13l-9.801,13l-21,2c-1.233-1.5-2.833-2.95-4.8-4.35
			c-3.934-2.833-7.666-4.05-11.2-3.65c-3.166,0.367-13.983,0.517-32.45,0.45c-19.8-0.1-30.983-0.083-33.55,0.05
			c-4.167,0.2-7.75,0.933-10.75,2.2l-3.25,1.8l-16,0.5L0,13H151.65z"/>
		<polygon style="fill-rule:evenodd;clip-rule:evenodd;fill:#B3A27F;" points="151.65,13 170.85,1.5 156.85,17 141.85,26 		"/>
	</g>
	<path style="fill-rule:evenodd;clip-rule:evenodd;fill:#C78383;" d="M40.4,86.75c-0.167-0.066-0.55,0.833-1.15,2.7
		c-0.3,0.934-0.583,1.866-0.85,2.8c0.133-1.6,0.367-2.85,0.7-3.75c0.467-1.5,0.95-2.833,1.45-4c0.967-2.167,2.083-3.684,3.35-4.55
		c1.267-0.867,2.434-1.351,3.5-1.45c0.533-0.066,0.934-0.033,1.2,0.1c-0.833,0.067-1.717,0.284-2.65,0.65
		c-1.833,0.733-3.017,1.884-3.55,3.45c-0.7,2.066-1.25,4.983-1.65,8.75c0.033-0.733,0.033-1.483,0-2.25
		C40.717,87.667,40.6,86.85,40.4,86.75z"/>
	<path style="fill-rule:evenodd;clip-rule:evenodd;fill:#C78383;" d="M66.45,68.2c2.566-0.2,4.917-0.316,7.05-0.351
		c-6.5,1.067-11,1.983-13.5,2.75c-1.567,0.467-2.883,1.867-3.95,4.2c-0.533,1.134-0.917,2.233-1.15,3.3
		c-0.867,0.267-1.85,0.2-2.95-0.199l-1.45-0.7c0.1-0.767,0.4-1.65,0.9-2.65c1-1.934,2.483-3.366,4.45-4.3S61.35,68.634,66.45,68.2z"
		/>
	<path style="fill-rule:evenodd;clip-rule:evenodd;fill:#C78383;" d="M51.9,36.85c2.3-1.833,3.95-3.617,4.95-5.35
		c1-1.7,1.883-4.033,2.65-7h1.25c-1.067,3.467-2.15,6-3.25,7.6S54.533,35.283,51.9,36.85z"/>
	<path style="fill-rule:evenodd;clip-rule:evenodd;fill:#C78383;" d="M81.9,32.35L80.15,33l2.35-1.6
		c1.667-1.167,2.75-2.05,3.25-2.65c0.767-0.933,1.467-1.867,2.1-2.8L89.1,26c-1.233,2.067-2.55,3.6-3.949,4.6
		C84.283,31.233,83.2,31.817,81.9,32.35z"/>
	<path style="fill-rule:evenodd;clip-rule:evenodd;fill:#C78383;" d="M29.1,28.1l0.75,3.05c0.6,2.233,1.183,3.85,1.75,4.85
		c0.867,1.633,1.667,2.95,2.4,3.95c-2.1-1.8-3.467-3.217-4.1-4.25c-0.533-0.867-1.066-2.233-1.6-4.1l-0.65-2.5L29.1,28.1z"/>
	<polygon style="fill-rule:evenodd;clip-rule:evenodd;fill:#C78383;" points="57.65,94.45 55.4,93.7 56,84.2 	"/>
	<polygon style="fill-rule:evenodd;clip-rule:evenodd;fill:#C78383;" points="68.25,84.2 71.15,94.6 68.35,93.6 	"/>
	<path style="fill-rule:evenodd;clip-rule:evenodd;fill:#A5354A;" d="M44.15,83.6c-0.033,1.267-0.033,4.9,0,10.9L41.9,95
		c-0.2-0.7-0.117-2.05,0.25-4.05c0.267-1.233,0.684-2.834,1.25-4.8L44.15,83.6z"/>
	<polygon style="fill-rule:evenodd;clip-rule:evenodd;fill:#A5354A;" points="57.35,82.7 59.4,94 58.5,94.25 	"/>
	<path style="fill-rule:evenodd;clip-rule:evenodd;fill:#A5354A;" d="M70.5,83.35c0.367,0.367,1.333,2.334,2.9,5.9
		c0.767,1.8,1.5,3.55,2.2,5.25l-1.5,0.35l-1.7-0.75L70.5,83.35z"/>
	<path style="fill-rule:evenodd;clip-rule:evenodd;fill:#A5354A;" d="M96.85,38.05l2.4,0.85c1.8,0.533,3.217,0.8,4.25,0.8
		s2.184-0.467,3.45-1.4c0.633-0.5,1.149-0.983,1.55-1.45c-1,6.133-2.217,11.25-3.65,15.35c-0.899,2.566-2.399,5-4.5,7.3l-2.85,2.7
		l2.3-3.2c1.601-2.5,2.5-4.65,2.7-6.45s-0.684-4.767-2.65-8.9L96.85,38.05z"/>
	<path style="fill-rule:evenodd;clip-rule:evenodd;fill:#A5354A;" d="M79,37.7c-2.6,0.9-5.667,1.833-9.2,2.8
		c-7,1.967-12.767,3.15-17.3,3.55c-4.533,0.434-8.417,0-11.65-1.3l-3.5-2.05l6.15,1.15l-1-2L46.95,41
		c3.5,0.667,6.683,0.783,9.55,0.35C61.033,40.683,68.533,39.467,79,37.7z"/>
	<polygon style="fill-rule:evenodd;clip-rule:evenodd;fill:#877B64;" points="1.6,13.5 10.6,22.75 24.1,23.75 10.1,24.25 	"/>
	<path style="fill-rule:evenodd;clip-rule:evenodd;fill:#877B64;" d="M122.85,24.75l16-1.5l9.75-9.75L140.1,25l-18.5,2
		c-1.833-1.833-3.75-3.417-5.75-4.75c-1.233-0.833-2.767-1.583-4.6-2.25l-2.4-0.75c2.301,0.1,5.317,1.05,9.051,2.85
		C119.8,23,121.45,23.883,122.85,24.75z"/>
	<polygon style="fill-rule:evenodd;clip-rule:evenodd;fill:#877B64;" points="102.6,19.5 37.35,19.5 37.35,18.25 105.35,18 	"/>
	<polygon style="fill-rule:evenodd;clip-rule:evenodd;fill:#C2B6A0;" points="142.85,14.75 6.35,15.5 7.1,14 146.1,13.5 	"/>
	<path style="fill-rule:evenodd;clip-rule:evenodd;fill:#9C8E71;" d="M152.65,13.5c-1.534,2.333-2.7,4.283-3.5,5.85
		c-0.367,0.767,0.716,0.517,3.25-0.75c1.3-0.633,2.616-1.333,3.949-2.1l-11.5,7.2L152.65,13.5z"/>
</g>
</svg>
