<?xml version="1.0" encoding="iso-8859-1"?>
<!-- Generator: Adobe Illustrator 15.1.0, SVG Export Plug-In . SVG Version: 6.00 Build 0)  -->
<!DOCTYPE svg PUBLIC "-//W3C//DTD SVG 1.1//EN" "http://www.w3.org/Graphics/SVG/1.1/DTD/svg11.dtd">
<svg version="1.1" xmlns="http://www.w3.org/2000/svg" xmlns:xlink="http://www.w3.org/1999/xlink" x="0px" y="0px"
	 width="239.65px" height="180.7px" viewBox="0 0 239.65 180.7" style="enable-background:new 0 0 239.65 180.7;"
	 xml:space="preserve">
<g id="character">
	<path style="fill-rule:evenodd;clip-rule:evenodd;fill:#413B31;" d="M193.2,117.55l-3,11.75c-2.767,9-6.101,16.417-10,22.25
		c-9.967,14.934-28.3,24.167-55,27.7c-14.767,1.934-27.167,1.917-37.2-0.05c-11-2.167-18.817-6.601-23.45-13.3
		c-2.167-3.134-7.5-4.267-16-3.4c-5.9,0.566-9.433,0.884-10.6,0.95c-3.967,0.133-7.217-0.267-9.75-1.2c-5.333-2-8.8-6.833-10.4-14.5
		c-1.3-6.267-1.283-13.767,0.05-22.5c1.633-10.4,2.1-19.15,1.4-26.25c-0.967-9.6-4.1-12.85-9.4-9.75
		c-5,2.934-7.217,9.417-6.65,19.45c0.3,5.033,1.083,9.767,2.35,14.2c-1.566-3.167-2.883-6.967-3.95-11.4
		c-2.2-8.9-2.117-16.55,0.25-22.95c0.9-2.433,2.75-4.333,5.55-5.7c2.7-1.333,5.6-1.867,8.7-1.6c3.333,0.267,6.117,1.4,8.35,3.4
		c2.533,2.267,4,5.35,4.4,9.25c0.333,3.366,0.316,7.883-0.05,13.55c-0.2,3.166-0.517,7.816-0.95,13.95
		c-0.467,10.466,1.433,16.633,5.7,18.5c2.367,1.033,4.95,1.399,7.75,1.1c1.534-0.134,4.117-0.7,7.75-1.7
		c7.034-1.899,12.867-1.916,17.5-0.05c2.2,0.866,4.2,2.233,6,4.1c1,1.034,2.434,2.684,4.3,4.95c3.8,4,9.367,6.2,16.7,6.601
		c8.2,0.433,13.25-0.95,15.15-4.15c0.7-1.134,1.083-2.7,1.15-4.7c-0.033-2.333-0.033-4.05,0-5.149
		c0.133-2.767-1.117-6.084-3.75-9.95l-4-4.95L193.2,117.55z"/>
	<path style="fill-rule:evenodd;clip-rule:evenodd;fill:#AA9A79;" d="M192.55,68.55c4.066,5.967,6.566,13.684,7.5,23.15
		c1.233,12.2-1.633,21.7-8.6,28.5c-7.334,7.133-22.834,11.033-46.5,11.7c-9.601,0.267-18.434-0.134-26.5-1.2
		c-8.2-1.134-13.65-2.7-16.35-4.7c-5.533-4.134-9.65-10.583-12.35-19.35c-3.433-11.034-2.467-21.583,2.9-31.65
		c4.767-8.9,11.517-15.117,20.25-18.65c6.867-2.767,16.2-4.2,28-4.3C167.634,51.783,184.85,57.283,192.55,68.55z"/>
	<path style="fill-rule:evenodd;clip-rule:evenodd;fill:#413B31;" d="M155.5,33.35c2.7,6.833,4.684,13.783,5.95,20.85
		c-0.934,0.566-2.3,1.183-4.101,1.85c-3.666,1.367-7.733,2.317-12.199,2.85c-4.167,0.5-9.483,0.083-15.95-1.25l-8.45-2.15
		c-0.066-6.3,0.55-12.717,1.85-19.25c2.667-13.067,7.483-20.233,14.45-21.5C144.017,13.517,150.167,19.717,155.5,33.35z"/>
	<path style="fill-rule:evenodd;clip-rule:evenodd;fill:#CD7834;" d="M130.3,24l1.601-1.8c1.533-1.267,3.449-2.167,5.75-2.7
		c2.333-0.533,4.649-0.15,6.949,1.15c1.134,0.667,2.034,1.383,2.7,2.15c-0.233,1.2-0.7,2.434-1.399,3.7
		c-1.4,2.5-3.284,3.867-5.65,4.1c-2.7,0.267-5.167-0.75-7.4-3.05L130.3,24z"/>
	<path style="fill-rule:evenodd;clip-rule:evenodd;fill:#413B31;" d="M139.55,23.5c1.601-0.1,2.483,0.7,2.65,2.4
		c0.166,1.7-0.717,2.6-2.65,2.7c-2,0.133-2.967-0.667-2.899-2.4C136.717,24.5,137.684,23.6,139.55,23.5z"/>
	<path style="fill-rule:evenodd;clip-rule:evenodd;fill:#AA9A79;" d="M163,35.2c1.033,0.9,2.384,2.183,4.05,3.85
		c1.334,1.233,2.334,1.917,3,2.05c1.334,0.267,3.167-0.5,5.5-2.3c1.134-0.9,2.15-1.833,3.05-2.8c-0.3,1.433-0.833,2.9-1.6,4.4
		c-1.533,2.967-3.434,4.567-5.7,4.8c-2.7,0.3-5.684-0.417-8.95-2.15c-3.5-1.867-6.433-2.8-8.8-2.8c-3.133,0-6.066,0.683-8.8,2.05
		l-3.2,2.05c-0.633-0.333-1.399-0.633-2.3-0.9c-1.8-0.6-3.333-0.8-4.6-0.6c-1.634,0.233-4.45,1.367-8.45,3.4
		c-3.7,1.867-7.517,2.867-11.45,3c-3.233,0.133-5.883-1.317-7.95-4.35l-2.15-4.65l3,1.95c2.3,1.333,4.167,2.05,5.6,2.15
		c0.967,0.066,2.583-1.417,4.85-4.45c2.567-3.433,5.3-5.667,8.2-6.7c3.3-1.167,6.55-0.983,9.75,0.55
		c1.566,0.767,2.816,1.65,3.75,2.65l2.7-2.7c2.566-1.833,5.667-2.934,9.3-3.3C155.267,30.067,159,31.667,163,35.2z"/>
	<path style="fill-rule:evenodd;clip-rule:evenodd;fill:#AA9A79;" d="M128.1,22.1c0.2,1.433-0.05,2.783-0.75,4.05l-1.1,1.45
		c-1.333-0.167-2.783-0.6-4.35-1.3c-3.134-1.367-5.234-3.35-6.3-5.95c-1.067-2.6-0.917-6.417,0.45-11.45
		c0.667-2.533,1.45-4.8,2.35-6.8c-0.7,1.667-1.233,3.55-1.6,5.65c-0.733,4.233-0.2,7.5,1.6,9.8c1.767,2.3,3.917,3.75,6.45,4.35
		C126.116,22.2,127.2,22.267,128.1,22.1z"/>
	<path style="fill-rule:evenodd;clip-rule:evenodd;fill:#AA9A79;" d="M148.95,21.05l3.7-0.25c2.733-0.433,4.816-1.367,6.25-2.8
		c1.433-1.433,1.183-4.867-0.75-10.3C157.184,5,156.066,2.433,154.8,0l5.3,8.1c3.301,5.733,4.317,9.45,3.051,11.15
		c-1.233,1.7-3.5,3.433-6.801,5.2l-4.55,2.15c-0.6-0.333-1.184-0.817-1.75-1.45C148.95,23.883,148.583,22.517,148.95,21.05z"/>
</g>
<g id="arms">
	<path style="fill-rule:evenodd;clip-rule:evenodd;fill:#413B31;" d="M106.05,60l1,0.55c0.8,0.567,1.483,1.267,2.05,2.1
		c1.833,2.7,2.233,6.4,1.2,11.1c-0.533,2.333-1.983,5.417-4.35,9.25c-1.167,1.9-2.3,3.567-3.4,5c-7.4,0.967-14.767,2.183-22.1,3.65
		C65.817,94.616,58.767,97.4,59.3,100c0.233,1.2,2.383,2.116,6.45,2.75c2.433,0.366,6.883,0.884,13.35,1.55
		c13,1.634,20.066,4.867,21.2,9.7c0.633,2.767-2.833,4.85-10.4,6.25l-11.6,1.25l10.55-2.95c6.1-2.399,6.75-4.583,1.95-6.55
		c-2.4-1-6.316-1.6-11.75-1.8c-6.566-0.066-11.45-0.134-14.65-0.2c-5.633-0.167-9.783-0.684-12.45-1.55
		c-3.467-1.134-5.184-3.033-5.15-5.7c0.034-3.667,2.5-7.467,7.4-11.4c4.033-3.233,11.9-8.149,23.6-14.75
		C86.733,71.567,96.15,66.033,106.05,60z"/>
	<g>
		<path style="fill-rule:evenodd;clip-rule:evenodd;fill:#413B31;" d="M197.8,79.55c-0.467-1.566-1.116-3.333-1.95-5.3
			c-1.666-3.933-3.466-6.833-5.399-8.7c-2.967-2.9-6.117-5.2-9.45-6.9c-2.4-1.233-5.217-2.3-8.45-3.2
			c10.5,2.6,15.917,3.95,16.25,4.05c7.934,2.3,14.867,5.15,20.8,8.55c8.334,4.767,15.983,11.934,22.95,21.5
			c7.134,9.867,8.884,16.184,5.25,18.95c-3.133,2.4-7.616,3.45-13.45,3.15l-7.85-1.15c-4.5-0.833-7.566-2.833-9.2-6
			c-1.166-2.267-1.083-4.85,0.25-7.75c2.033-4.4,3.117-6.983,3.25-7.75c0.434-2.4,0.101-3.867-1-4.4l-1.75-0.1l2.2-0.45
			c1.467,0.233,2.15,1.717,2.05,4.45c0,0.167-0.366,2.367-1.1,6.6c-0.5,2.801-0.384,4.684,0.35,5.65
			c1.667,2.233,4.816,3.434,9.45,3.6c4.134,0.167,6.816-0.283,8.05-1.35c1.267-1.1,0.384-3.884-2.649-8.35
			c-3.233-4.767-7.051-8.317-11.45-10.65c-3.9-2.067-7.934-3.433-12.101-4.1L197.8,79.55z"/>
	</g>
</g>
</svg>
