<?xml version="1.0" encoding="iso-8859-1"?>
<!-- Generator: Adobe Illustrator 15.1.0, SVG Export Plug-In . SVG Version: 6.00 Build 0)  -->
<!DOCTYPE svg PUBLIC "-//W3C//DTD SVG 1.1//EN" "http://www.w3.org/Graphics/SVG/1.1/DTD/svg11.dtd">
<svg version="1.1" id="objects" xmlns="http://www.w3.org/2000/svg" xmlns:xlink="http://www.w3.org/1999/xlink" x="0px" y="0px"
	 width="62.25px" height="71.65px" viewBox="0 0 62.25 71.65" style="enable-background:new 0 0 62.25 71.65;" xml:space="preserve"
	>
<g>
	<g>
		<path style="fill-rule:evenodd;clip-rule:evenodd;fill:#B2C2B6;" d="M62.25,60.8c-0.033,1.334-0.25,2.617-0.65,3.851
			C61,66.35,60.25,67.8,59.35,69c-1.333,1.733-2.833,2.616-4.5,2.65c-1.566,0-2.267-0.567-2.1-1.7l0.75-1.7L52,54.4l4.65-0.351
			c0.933,0,1.899,0.267,2.899,0.8c1.167,0.634,1.917,1.417,2.25,2.351C62.167,58.2,62.316,59.4,62.25,60.8z"/>
		<path style="fill-rule:evenodd;clip-rule:evenodd;fill:#A2B2A7;" d="M51.95,54.45c3.434-0.334,5.899,0.35,7.399,2.05
			c1.267,1.4,1.75,3.35,1.45,5.85c-0.267,2.233-1.033,4.317-2.3,6.25c-1.3,1.934-2.6,2.934-3.9,3C53.1,71.7,51.616,70.9,50.15,69.2
			c-1.367-1.566-2.351-3.45-2.95-5.65c-0.634-2.333-0.601-4.316,0.1-5.95C48.066,55.733,49.616,54.684,51.95,54.45z"/>
		<path style="fill-rule:evenodd;clip-rule:evenodd;fill:#677F6F;" d="M52.95,64.2c-1.634,0.233-2.7-0.2-3.2-1.3
			c-0.333-0.801-0.167-1.634,0.5-2.5c0.7-0.9,1.7-1.483,3-1.75c0.733-0.167,1.384-0.134,1.95,0.1c0.666,0.233,1.05,0.75,1.149,1.55
			c0.101,0.967-0.133,1.8-0.699,2.5C55.017,63.6,54.116,64.066,52.95,64.2z"/>
		<path style="fill-rule:evenodd;clip-rule:evenodd;fill:#B2C2B6;" d="M38.45,43.8c-2.834-3.934-5.95-10.133-9.35-18.6
			c-1.733-4.233-3.167-8.083-4.3-11.55l5.25-2.9c0.7,2.967,1.566,6.283,2.601,9.95C34.717,28.067,36.6,33.533,38.3,37.1
			c1.7,3.534,5.05,8.184,10.05,13.95c2.5,2.9,4.983,5.65,7.45,8.25c0.334,0.533,0.367,1.233,0.101,2.101
			c-0.267,0.899-0.7,1.55-1.301,1.949C54.033,63.783,53.3,64,52.4,64c-0.9,0.033-1.517-0.167-1.851-0.6
			c-1.133-1.967-2.399-4.15-3.8-6.551C43.917,51.917,41.15,47.566,38.45,43.8z"/>
		<g>
			<path style="fill-rule:evenodd;clip-rule:evenodd;fill:#90A897;" d="M30.45,21.6l2.95,8c2.3,5.933,4.333,10.383,6.1,13.35
				c2.7,4.533,7.75,11.333,15.15,20.399H54.6C54.033,63.783,53.3,64,52.4,64c-0.9,0.033-1.517-0.167-1.851-0.6
				c-1.133-1.967-2.399-4.15-3.8-6.551c-2.833-4.933-5.6-9.283-8.3-13.05c-3.4-4.733-7.101-12.4-11.1-23L30.45,21.6z"/>
		</g>
		<path style="fill-rule:evenodd;clip-rule:evenodd;fill:#CCD6CE;" d="M32.2,25.1l1.25-0.25l0.899,3.05
			c0.733,2.367,1.45,4.45,2.15,6.25c1.1,2.9,2.333,5.817,3.7,8.75c-1.267-1.867-2.2-3.517-2.8-4.95L32.2,25.1z"/>
		<path style="fill-rule:evenodd;clip-rule:evenodd;fill:#CCD6CE;" d="M48.8,53.25c1.967,2.066,3.884,4.083,5.75,6.05l0.351,0.5
			c0.199,0.4,0.283,0.75,0.25,1.05c-0.034,0.5-0.2,0.884-0.5,1.15L43.05,46.875C43.968,47.982,45.884,50.107,48.8,53.25z"/>
		<path style="fill-rule:evenodd;clip-rule:evenodd;fill:#90A897;" d="M47.5,61.65l2.3,3.199c1.7,2.134,3.066,3.184,4.101,3.15
			c1.033-0.066,2.199-0.667,3.5-1.8c0.666-0.566,1.216-1.134,1.649-1.7c-0.434,1.134-1.033,2.217-1.8,3.25
			c-1.467,2.033-2.967,2.816-4.5,2.35c-1.5-0.466-2.816-2.017-3.95-4.649L47.5,61.65z"/>
		<path style="fill-rule:evenodd;clip-rule:evenodd;fill:#B2C2B6;" d="M55.55,56.3l-0.899-0.2c1.166-0.166,2.05,0.15,2.649,0.95
			c0.3,0.367,0.483,0.767,0.55,1.2l1.051-1.2l0.25,1.25c0.166,1,0.216,1.884,0.149,2.65c-0.1,1.267-0.717,2.3-1.85,3.1l0.899-2.35
			L57,61.3l1.05-1.95l-1.1-0.1c0.366-0.733,0.35-1.417-0.05-2.05C56.634,56.833,56.184,56.533,55.55,56.3z"/>
		<path style="fill-rule:evenodd;clip-rule:evenodd;fill:#CCD6CE;" d="M58.25,54.8c2.434,0.601,3.65,2.566,3.65,5.9
			c0.033,1.399-0.417,2.883-1.351,4.45c0.267-0.634,0.483-1.617,0.65-2.95c0.166-1.5-0.017-3.134-0.55-4.9
			c-0.2-0.733-0.667-1.366-1.4-1.899L58.25,54.8z"/>
	</g>
	<g>
		<path style="fill-rule:evenodd;clip-rule:evenodd;fill:#7FB28F;" d="M37.05,13.05c0.533,0.9,0.851,1.767,0.95,2.6
			c0.2,1.3-0.017,2.867-0.65,4.7l-17.25,7.9c-0.5,2.2-1.184,3.617-2.05,4.25c-0.9,0.633-3.2,1.583-6.9,2.85
			c0.333-4.867,0.434-9.983,0.3-15.35C11.183,9.233,9.867,2.617,7.5,0.15c1.733,0.3,3.333,0.633,4.8,1
			c0.934,0.233,1.983,0.983,3.15,2.25c0.566,0.633,1.05,1.233,1.45,1.8l19.4,6.75L37.05,13.05z"/>
		<path style="fill-rule:evenodd;clip-rule:evenodd;fill:#3C6C50;" d="M15.3,28.95c1.633-0.167,2.833-0.75,3.6-1.75
			c0.733-1.034,1.45-3.784,2.15-8.25C20.883,24.317,20.533,27.7,20,29.1c-0.433,1.2-0.75,1.983-0.95,2.35
			c-0.367,0.533-0.9,1-1.6,1.4c-1,0.566-3.1,1.4-6.3,2.5L15.3,28.95z"/>
		<linearGradient id="SVGID_1_" gradientUnits="userSpaceOnUse" x1="0.0127" y1="17.9058" x2="15.8877" y2="17.9058">
			<stop  offset="0" style="stop-color:#498862"/>
			<stop  offset="1" style="stop-color:#23382D"/>
		</linearGradient>
		<path style="fill-rule:evenodd;clip-rule:evenodd;fill:url(#SVGID_1_);" d="M11.8,5.05c1.667,3.4,2.85,7.434,3.55,12.1
			c0.767,4.967,0.717,9.117-0.15,12.45c-1,3.867-2.95,5.933-5.85,6.2c-2.934,0.267-5.25-1.383-6.95-4.95
			C0.933,27.717,0.133,23.667,0,18.7c-0.1-4.733,0.417-8.9,1.55-12.5C2.783,2.3,4.433,0.233,6.5,0C8.267-0.2,10.033,1.483,11.8,5.05
			z"/>
		<path style="fill-rule:evenodd;clip-rule:evenodd;fill:#498862;" d="M8.55,13.3c1.8,0.967,2.617,2.7,2.45,5.2
			c-0.067,1.267-0.317,2.433-0.75,3.5c-0.867-0.033-1.75-0.233-2.65-0.6c-1.767-0.733-2.667-1.867-2.7-3.4
			c-0.066-1.533,0.517-2.783,1.75-3.75C7.283,13.783,7.917,13.467,8.55,13.3z"/>
		<path style="fill-rule:evenodd;clip-rule:evenodd;fill:#7FB28F;" d="M7.55,14.4l-1.2,2.1C5.95,17.4,6,18.417,6.5,19.55
			c-0.8-0.733-1.133-1.583-1-2.55c0.1-0.567,0.467-1.167,1.1-1.8L7.55,14.4z"/>
		<path style="fill-rule:evenodd;clip-rule:evenodd;fill:#3A684E;" d="M8.55,13.75l0.9,0.6c0.633,0.633,1.05,1.517,1.25,2.65
			c0.167,1,0,2.533-0.5,4.6l-2.85-0.85l0.5,0.1c0.4,0.066,0.75,0.083,1.05,0.05c0.4-0.033,0.75-0.5,1.05-1.4
			c0.3-0.933,0.383-1.833,0.25-2.7c-0.133-0.733-0.45-1.466-0.95-2.2L8.55,13.75z"/>
		<path style="fill-rule:evenodd;clip-rule:evenodd;fill:#498862;" d="M1.55,6.2C2.783,2.3,4.433,0.233,6.5,0
			c1.767-0.2,3.533,1.483,5.3,5.05c1.667,3.4,2.85,7.434,3.55,12.1c0.767,4.967,0.717,9.117-0.15,12.45
			c-1,3.867-2.95,5.933-5.85,6.2c-2.934,0.267-5.25-1.383-6.95-4.95C0.933,27.717,0.133,23.667,0,18.7
			C-0.1,13.967,0.417,9.8,1.55,6.2z M2.2,7.5c-1.1,3.567-1.534,7.3-1.3,11.2c0.233,4.2,1.017,7.833,2.35,10.9
			c1.467,3.367,3.233,4.967,5.3,4.8c2-0.167,3.45-2.117,4.35-5.85c0.767-3.2,0.95-6.367,0.55-9.5
			c-0.434-3.333-1.367-6.983-2.8-10.95c-1.7-4.567-3.2-6.717-4.5-6.45C4.617,1.983,3.3,3.933,2.2,7.5z"/>
		<path style="fill-rule:evenodd;clip-rule:evenodd;fill:#519B6D;" d="M20.85,13.15c0.267,1,0.467,2.783,0.6,5.35
			c0.066,1.833,0.35,2.867,0.85,3.1c0.867,0.433,5.417-0.3,13.65-2.2c-1.467,0.733-2.934,1.483-4.4,2.25
			c-2.571,1.271-4.063,1.988-4.475,2.15l10.274-3.45l-17.05,7.8c0.233-1,0.417-2.25,0.55-3.75c0.3-3,0.25-5.733-0.15-8.2
			c-0.434-2.7-1.2-5.333-2.3-7.9l-1.5-3.1l0.85,0.4C19.217,8.2,20.25,10.717,20.85,13.15z"/>
		<polygon style="fill-rule:evenodd;clip-rule:evenodd;fill:#A0C3AA;" points="20.6,8.15 35.45,12.6 26.1,11.55 28.15,11.2 		"/>
		<path style="fill-rule:evenodd;clip-rule:evenodd;fill:#A0C3AA;" d="M10.65,1.6c2.033,0.7,3.583,1.683,4.65,2.95
			c1.067,1.267,2.133,3.7,3.2,7.3L16.7,8.7l0.3,4.85c-0.7-1.566-1.267-3.267-1.7-5.1C15.033,7.317,14.183,5.833,12.75,4L10.65,1.6z"
			/>
		<path style="fill-rule:evenodd;clip-rule:evenodd;fill:#3C6C50;" d="M37.25,17.3c0.066-1.3,0.017-2.3-0.15-3
			c-0.066-0.466-0.216-1-0.449-1.6L36.3,11.95l0.851,0.9c0.6,0.8,0.949,1.783,1.05,2.95c0.133,1.534-0.134,3.083-0.8,4.65
			L20.3,28.15l0.05-0.6c10.367-4.5,15.8-7,16.3-7.5C37.017,19.717,37.217,18.8,37.25,17.3z"/>
	</g>
</g>
</svg>
