<?xml version="1.0" encoding="iso-8859-1"?>
<!-- Generator: Adobe Illustrator 15.1.0, SVG Export Plug-In . SVG Version: 6.00 Build 0)  -->
<!DOCTYPE svg PUBLIC "-//W3C//DTD SVG 1.1//EN" "http://www.w3.org/Graphics/SVG/1.1/DTD/svg11.dtd">
<svg version="1.1" id="objects" xmlns="http://www.w3.org/2000/svg" xmlns:xlink="http://www.w3.org/1999/xlink" x="0px" y="0px"
	 width="221.4px" height="330.2px" viewBox="0 0 221.4 330.2" style="enable-background:new 0 0 221.4 330.2;" xml:space="preserve"
	>
<g>
	<g>
		<g>
			<path style="fill-rule:evenodd;clip-rule:evenodd;fill:#FFFBB1;" d="M14.4,330.2c-2.066,0-2.85-1.283-2.35-3.851l1.35-3.85l197-8
				l1.149,3.95c0.334,2.666-0.616,4.133-2.85,4.399c-2.4,0.301-34.816,1.601-97.25,3.9C49.85,329.05,17.5,330.2,14.4,330.2z"/>
			<path style="fill-rule:evenodd;clip-rule:evenodd;fill:#7FB28F;" d="M23.4,298.5c2.567-0.2,7.283,0.116,14.15,0.95
				c4.167,0.5,11.45,1.483,21.85,2.95c21.767,2.833,38.767,3.866,51,3.1c12.933-0.8,31.733-3.384,56.399-7.75
				c12.233-2.167,23.767-4.25,34.601-6.25c1.267,0,4.316,1.667,9.149,5c2.4,1.667,4.684,3.333,6.851,5l4,16l-221,8
				c-0.167-1-0.283-2.283-0.35-3.85c-0.167-3.167-0.05-6.217,0.35-9.15c0.434-2.9,4.4-6.1,11.9-9.6
				C16.033,301.134,19.733,299.667,23.4,298.5z"/>
			<path style="fill-rule:evenodd;clip-rule:evenodd;fill:#7FB28F;" d="M22.65,296.65c0,3.233,0.25,6.517,0.75,9.85
				c-2.333-3.667-4.167-7.583-5.5-11.75c-2.667-8.333-1.5-13.75,3.5-16.25s9.667,1.583,14,12.25c2.167,5.333,3.833,10.917,5,16.75
				l-6-3c-0.333-2.667-0.917-5.366-1.75-8.1c-1.667-5.5-3.75-8.467-6.25-8.9C23.9,287.1,22.65,290.15,22.65,296.65z"/>
			<path style="fill-rule:evenodd;clip-rule:evenodd;fill:#7FB28F;" d="M185.3,288.15c-1.6,3.733-2.899,7.517-3.899,11.35
				c-0.334-5.333-0.034-10.667,0.899-16c1.834-10.667,5.867-16,12.101-16c6.267,0,9.816,5.167,10.649,15.5
				c0.4,5.167,0.184,10.333-0.649,15.5l-5-1c0.333-3.167,0.383-6.366,0.149-9.6c-0.5-6.5-2.217-9.967-5.149-10.4
				C191.5,277.1,188.467,280.65,185.3,288.15z"/>
		</g>
		<path style="fill-rule:evenodd;clip-rule:evenodd;fill:#519B6D;" d="M9.9,320.5c0.533,1.434,1.133,2.55,1.8,3.35l-10.05,0.9
			c-0.333-1.533-0.517-3.3-0.55-5.3c-0.1-3.934,0.583-7,2.05-9.2s5.033-4.517,10.7-6.95c2.833-1.233,5.517-2.25,8.05-3.05l-5.6,2.8
			c-3.867,2.5-6.167,5.316-6.9,8.45S8.833,317.634,9.9,320.5z"/>
		<path style="fill-rule:evenodd;clip-rule:evenodd;fill:#519B6D;" d="M130.35,304.75c9.367-1.333,16.483-2.417,21.351-3.25
			c7.8-1.333,22.8-4.217,45-8.65c-0.967,1.4-0.367,2.983,1.8,4.75c1.1,0.9,2.283,1.65,3.55,2.25c-2.566-0.066-5.633-0.066-9.2,0
			c-7.166,0.101-13.316,0.434-18.449,1c-5.134,0.567-16.134,1.684-33,3.351l-23.7,2.3L130.35,304.75z"/>
		<path style="fill-rule:evenodd;clip-rule:evenodd;fill:#A0C3AA;" d="M215.65,302.75c1.166,1.667,2.5,5.5,4,11.5l-9.25,0.25
			c0.333-0.667,0.6-1.566,0.8-2.7c0.366-2.267,0.2-4.583-0.5-6.95c-0.7-2.366-2.4-4.8-5.101-7.3l-3.899-3.05
			c2.399,0.333,5.149,1.483,8.25,3.45C212.75,299.75,214.65,301.35,215.65,302.75z"/>
		<path style="fill-rule:evenodd;clip-rule:evenodd;fill:#498862;" d="M12.15,321.75c53.7-1.434,89.117-2.6,106.25-3.5
			c10.033-0.5,22.816-0.884,38.35-1.15c24.8-0.433,46.1-0.883,63.9-1.35c-1,0.667-1.75,1-2.25,1
			c-10.867,0.267-30.967,0.95-60.301,2.05c-26.733,0.967-40.633,1.45-41.699,1.45c-2.434,0-17.25,0.517-44.45,1.55
			c-29.2,1.101-48.633,1.75-58.3,1.95L12.15,321.75z"/>
		<path style="fill-rule:evenodd;clip-rule:evenodd;fill:#A0C3AA;" d="M40.9,300.5l11.7,2.05c8.733,1.5,15.5,2.566,20.3,3.2
			c7.667,1,18.75,1.583,33.25,1.75c-12.633,1.333-21.633,1.75-27,1.25c-4.467-0.4-14.35-1.6-29.65-3.6
			c-7.633-1-14.833-1.967-21.6-2.9c4.167-0.1,7.583-0.417,10.25-0.95C39.483,301.033,40.4,300.767,40.9,300.5z"/>
		<polygon style="fill-rule:evenodd;clip-rule:evenodd;fill:#6EA982;" points="48.15,308.75 46.15,312.5 58.65,312.5 41.4,314.75 
			42.15,310.75 26.65,314.75 28.15,311 17.65,313.5 22.65,309.5 24.65,310 30.4,307.75 30.65,310.25 		"/>
		<polygon style="fill-rule:evenodd;clip-rule:evenodd;fill:#6EA982;" points="143.65,311.5 152.15,314 119.65,316 133.9,313 
			123.9,312 169.4,307.75 160.4,306.25 199.9,303.75 202.4,306.25 175.65,306.5 180.9,308.75 		"/>
		<path style="fill-rule:evenodd;clip-rule:evenodd;fill:#519B6D;" d="M20.55,279.5l-1.6,3c-0.967,2.434-1.1,4.833-0.4,7.2l2.85,9.5
			l-0.85,0.5c-0.6-0.967-1.2-2.184-1.8-3.65c-1.2-2.866-1.767-5.483-1.7-7.85c0.067-2.367,0.667-4.533,1.8-6.5L20.55,279.5z"/>
		<path style="fill-rule:evenodd;clip-rule:evenodd;fill:#A0C3AA;" d="M26.55,279.85l1.85,1.75c1.434,1.467,2.7,2.934,3.8,4.4
			c1.133,1.467,2.216,4.066,3.25,7.8c0.533,1.9,0.95,3.634,1.25,5.2l-2,0.35c-0.333-4.233-1.05-7.566-2.15-10
			c-0.7-1.533-1.9-3.566-3.6-6.1L26.55,279.85z"/>
		<path style="fill-rule:evenodd;clip-rule:evenodd;fill:#519B6D;" d="M189.05,270.85c-2.899,4.867-4.8,10.051-5.7,15.551
			c-0.433,2.767-0.583,5.033-0.449,6.8l-1,1.649c-0.067-0.899-0.051-2.133,0.05-3.699c0.133-3.067,0.55-6.167,1.25-9.301
			c0.7-3.133,1.883-5.899,3.55-8.3L189.05,270.85z"/>
		<path style="fill-rule:evenodd;clip-rule:evenodd;fill:#A0C3AA;" d="M199.2,270.2l1.55,1.8c1.167,1.667,2.1,3.684,2.8,6.05
			c0.7,2.367,0.967,5.367,0.8,9c-0.066,1.834-0.216,3.434-0.449,4.8h-1.5l-0.2-9.3c-0.066-3.133-0.584-6.133-1.55-9L199.2,270.2z"/>
	</g>
	<polygon style="fill-rule:evenodd;clip-rule:evenodd;fill:#BCD2C1;" points="21.9,0 25.9,289.5 24.4,289 18.4,0 	"/>
	<polygon style="fill-rule:evenodd;clip-rule:evenodd;fill:#BCD2C1;" points="194.7,0 194.9,280 192.4,281 191.2,0 	"/>
</g>
</svg>
