<?xml version="1.0" encoding="iso-8859-1"?>
<!-- Generator: Adobe Illustrator 15.1.0, SVG Export Plug-In . SVG Version: 6.00 Build 0)  -->
<!DOCTYPE svg PUBLIC "-//W3C//DTD SVG 1.1//EN" "http://www.w3.org/Graphics/SVG/1.1/DTD/svg11.dtd">
<svg version="1.1" id="objects" xmlns="http://www.w3.org/2000/svg" xmlns:xlink="http://www.w3.org/1999/xlink" x="0px" y="0px"
	 width="221.4px" height="332.65px" viewBox="0 0 221.4 332.65" style="enable-background:new 0 0 221.4 332.65;"
	 xml:space="preserve">
<g>
	<g>
		<g>
			<path style="fill-rule:evenodd;clip-rule:evenodd;fill:#FFFBB1;" d="M11,313.5l196.9,10.45l0.1,4.399
				c-0.467,2.934-1.95,4.367-4.45,4.301c-4-0.101-67.267-3.434-189.8-10c-1.967-0.134-3.017-1.7-3.15-4.7L11,313.5z"/>
			<path style="fill-rule:evenodd;clip-rule:evenodd;fill:#7FB28F;" d="M20.3,290.6c10.8,2.134,22.317,4.367,34.55,6.7
				c24.566,4.667,43.333,7.483,56.3,8.45c12.199,0.934,29.199,0.1,51-2.5c5.433-0.634,12.733-1.517,21.899-2.65
				c6.9-0.767,11.617-1.033,14.15-0.8l11.05,4.55c7.467,3.601,11.4,6.851,11.8,9.75c0.367,2.934,0.45,5.983,0.25,9.15
				c-0.1,1.566-0.25,2.85-0.45,3.85L0,316.35L4.2,300.4c2.2-1.634,4.517-3.267,6.95-4.9C16.017,292.2,19.067,290.566,20.3,290.6z"/>
			<path style="fill-rule:evenodd;clip-rule:evenodd;fill:#7FB28F;" d="M186.3,291.9c4.467-10.601,9.184-14.617,14.15-12.051
				c4.967,2.567,6.066,8,3.3,16.301c-1.366,4.133-3.25,8.017-5.65,11.649c0.534-3.333,0.834-6.616,0.9-9.85
				c0.066-6.5-1.15-9.55-3.65-9.15c-2.5,0.367-4.616,3.3-6.35,8.8c-0.866,2.733-1.483,5.434-1.85,8.101L181.1,308.6
				C182.333,302.8,184.066,297.233,186.3,291.9z"/>
			<path style="fill-rule:evenodd;clip-rule:evenodd;fill:#7FB28F;" d="M36.5,287.45c-3.067-7.533-6.067-11.117-9-10.75
				c-2.933,0.366-4.683,3.8-5.25,10.3c-0.3,3.267-0.3,6.483,0,9.65l-5.05,0.899c-0.767-5.166-0.9-10.333-0.4-15.5
				c0.967-10.3,4.567-15.416,10.8-15.35c6.267,0.1,10.25,5.483,11.95,16.149c0.833,5.334,1.05,10.667,0.65,16
				C39.267,295.017,38.033,291.217,36.5,287.45z"/>
		</g>
		<path style="fill-rule:evenodd;clip-rule:evenodd;fill:#A0C3AA;" d="M204.25,303.4l6.3,3c4.434,2.366,7.217,4.533,8.351,6.5
			c1.133,1.966,1.683,4.316,1.649,7.05c0,1.399-0.116,2.583-0.35,3.55l-6.95-1.2c0.467-1.967,0.467-4.467,0-7.5
			c-0.3-1.899-1.884-4.366-4.75-7.399L204.25,303.4z"/>
		<path style="fill-rule:evenodd;clip-rule:evenodd;fill:#A0C3AA;" d="M199,281l2.7,1.7c1.833,1.5,2.783,3.149,2.85,4.95
			c0.101,1.767-0.333,4.183-1.3,7.25c-0.467,1.533-0.95,2.883-1.45,4.05l-1.5-0.351c1.533-5.233,2.283-8.933,2.25-11.1
			c0-1.366-0.583-2.85-1.75-4.45L199,281z"/>
		<path style="fill-rule:evenodd;clip-rule:evenodd;fill:#A0C3AA;" d="M32.65,269.55l2.05,2.25c1.433,1.867,2.417,3.65,2.95,5.351
			c0.8,2.733,1.483,7.283,2.05,13.649c-1.2-6.934-2.4-11.434-3.6-13.5c-0.733-1.3-1.817-2.5-3.25-3.6l-1.9-1.25l3.7,0.75
			L32.65,269.55z"/>
		<path style="fill-rule:evenodd;clip-rule:evenodd;fill:#A0C3AA;" d="M27.6,296c4.367,0.4,7.933,0.417,10.7,0.05
			c1.4-0.166,2.35-0.383,2.85-0.649l35.35,7.149c6.6,1.3,17.783,2.816,33.55,4.55c-2.367,0-5.617-0.116-9.75-0.35
			c-8.233-0.434-16.7-1.2-25.4-2.3C60.967,302.684,45.2,299.866,27.6,296z"/>
		<path style="fill-rule:evenodd;clip-rule:evenodd;fill:#519B6D;" d="M25.5,267.4l-2.85,2.949c-1.967,2.634-3.066,5.684-3.3,9.15
			c-0.367,5.533-0.434,9.934-0.2,13.2l-1.85,0.2c-0.233-6.467-0.083-11.25,0.45-14.351c0.4-2.333,1.417-4.684,3.05-7.05
			C22.433,269.066,24,267.7,25.5,267.4z"/>
		<path style="fill-rule:evenodd;clip-rule:evenodd;fill:#519B6D;" d="M16.25,293.65l-2.4,2.649c-1.767,2.3-2.983,4.783-3.65,7.45
			c-0.667,2.7-0.733,5.434-0.2,8.2c0.233,1.399,0.55,2.533,0.95,3.399l-9.2,0.051c1.167-5.834,2.35-10.267,3.55-13.301
			c0.767-1.899,2.817-3.883,6.15-5.949L16.25,293.65z"/>
		<path style="fill-rule:evenodd;clip-rule:evenodd;fill:#519B6D;" d="M187.65,290.35c0.666-1.566,1.866-3.483,3.6-5.75l2.35-2.899
			l-0.449,2l-1.25,1.85c-1,1.533-1.9,3.101-2.7,4.7c-1.3,2.6-2.533,5.866-3.7,9.8l-1.55,0.55
			C185.384,296.233,186.616,292.816,187.65,290.35z"/>
		<path style="fill-rule:evenodd;clip-rule:evenodd;fill:#519B6D;" d="M160.15,304.7l35-4.15l-1.25,1.101
			c-0.733,0.899-0.884,1.716-0.45,2.449s1.5,1.4,3.2,2c0.866,0.301,1.683,0.534,2.449,0.7L152.4,308
			c-6.134,0.134-12.917,0.15-20.351,0.05l-9.35-0.2l16.649-1.35C150.917,305.566,157.85,304.967,160.15,304.7z"/>
		<path style="fill-rule:evenodd;clip-rule:evenodd;fill:#498862;" d="M11.15,314.35l86.5,5.15c5.367,0.366,19.3,1.066,41.8,2.1
			c22.267,1.034,34.816,1.567,37.649,1.601c3.667,0.033,18.051,0.5,43.15,1.399l-1.9,1.551L12.9,316L11.15,314.35z"/>
		<polygon style="fill-rule:evenodd;clip-rule:evenodd;fill:#6EA982;" points="148.7,316.1 147.45,319.2 106.75,313.95 
			143.35,316.1 146.05,312.75 170.2,316.9 170.45,312.9 202,312.85 174.45,315.5 177,320 		"/>
		<path style="fill-rule:evenodd;clip-rule:evenodd;fill:#6EA982;" d="M50.2,304.95L45,307.8l33.8,3.95
			c-1.233-0.434-2.5-0.9-3.8-1.4c-2.567-0.966-3.95-1.517-4.15-1.649c-0.2-0.134,5.467,0.233,17,1.1c5.8,0.467,11.6,0.934,17.4,1.4
			l-22.75,0.6l9.65,3l-52.25-5.35c0.4-0.566,0.783-1.117,1.15-1.65c0.7-1.1,0.934-1.616,0.7-1.55c-0.333,0.066-7.7-0.483-22.1-1.65
			l6.5-4.25l-0.55,2.801L50.2,304.95z"/>
	</g>
	<polygon style="fill-rule:evenodd;clip-rule:evenodd;fill:#BCD2C1;" points="25.65,0 29.15,280.5 27.65,280 22.15,0 	"/>
	<polygon style="fill-rule:evenodd;clip-rule:evenodd;fill:#BCD2C1;" points="198.5,0 196.85,291.5 194.5,291.85 195,0 	"/>
</g>
</svg>
