<?xml version="1.0" encoding="iso-8859-1"?>
<!-- Generator: Adobe Illustrator 15.1.0, SVG Export Plug-In . SVG Version: 6.00 Build 0)  -->
<!DOCTYPE svg PUBLIC "-//W3C//DTD SVG 1.1//EN" "http://www.w3.org/Graphics/SVG/1.1/DTD/svg11.dtd">
<svg version="1.1" id="objects" xmlns="http://www.w3.org/2000/svg" xmlns:xlink="http://www.w3.org/1999/xlink" x="0px" y="0px"
	 width="479.65px" height="345.35px" viewBox="0 0 479.65 345.35" style="enable-background:new 0 0 479.65 345.35;"
	 xml:space="preserve">
<g>
	<path style="fill-rule:evenodd;clip-rule:evenodd;fill:#413B31;" d="M448.35,16.7H28.65V344l-12,0.5c-0.2-26.3-0.5-54.467-0.9-84.5
		c-0.767-60.033-1.567-99.367-2.4-118c-0.833-18.6-3.3-47.733-7.4-87.4C3.883,34.767,1.9,16.8,0,0.7
		c21.167,0.9,44.533,1.783,70.1,2.65C121.2,5.117,157.717,6,179.65,6C214.783,6,310.566,4,467,0c-4.9,70.667-8.017,112.667-9.35,126
		c-0.834,8.333-1.084,47.4-0.75,117.2c0.166,34.866,0.416,68.916,0.75,102.149l-8.75-0.1c0.5-77.7,0.533-139.884,0.1-186.55
		C448.566,112.033,448.35,64.7,448.35,16.7z"/>
	<path style="fill-rule:evenodd;clip-rule:evenodd;fill:#413B31;" d="M452.7,282c-28.167-0.566-57.816-1.083-88.95-1.55
		C301.517,279.517,263,279.366,248.2,280c-23.667,1-97.917,2.833-222.75,5.5l0.25-12l426.5-2L452.7,282z"/>
	<path style="fill-rule:evenodd;clip-rule:evenodd;fill:#4A4336;" d="M467,0l12.65,2.5c-2,11.167-4.167,24.717-6.5,40.65
		c-4.667,31.833-7.834,59.617-9.5,83.35c-1.667,23.767-2.584,64.316-2.75,121.65c-0.067,28.666,0.017,54.949,0.25,78.85l-3.5,18.35
		c-2.334-93.899-3.5-155.017-3.5-183.35c0-17.7,2.149-50.017,6.449-96.95C462.733,41.617,464.866,19.933,467,0z"/>
	<path style="fill-rule:evenodd;clip-rule:evenodd;fill:#4A4336;" d="M28.65,16.7l16.2-0.2c-1.033,14.367-2.1,30.983-3.2,49.85
		c-2.167,37.733-3.383,67.85-3.65,90.35s0.433,57.033,2.1,103.6c0.833,23.267,1.683,44.283,2.55,63.05l-14,20.65V16.7z"/>
</g>
</svg>
