<?xml version="1.0" encoding="iso-8859-1"?>
<!-- Generator: Adobe Illustrator 15.1.0, SVG Export Plug-In . SVG Version: 6.00 Build 0)  -->
<!DOCTYPE svg PUBLIC "-//W3C//DTD SVG 1.1//EN" "http://www.w3.org/Graphics/SVG/1.1/DTD/svg11.dtd">
<svg version="1.1" id="tower_x5F_red_x5F_mid_x5F_06.ai"
	 xmlns="http://www.w3.org/2000/svg" xmlns:xlink="http://www.w3.org/1999/xlink" x="0px" y="0px" width="122.2px" height="111.4px"
	 viewBox="0 0 122.2 111.4" style="enable-background:new 0 0 122.2 111.4;" xml:space="preserve">
<g>
	
		<linearGradient id="SVGID_1_" gradientUnits="userSpaceOnUse" x1="54.3486" y1="56.8574" x2="90.6514" y2="56.8574" gradientTransform="matrix(0.9999 -0.0124 0.0124 0.9999 -2.828985e-004 -5.391240e-005)">
		<stop  offset="0" style="stop-color:#C5988D"/>
		<stop  offset="1" style="stop-color:#D2B3AA"/>
	</linearGradient>
	<polygon style="fill-rule:evenodd;clip-rule:evenodd;fill:url(#SVGID_1_);" points="43.75,0.5 65.25,0 122.2,111.4 87.3,103.55 	
		"/>
	<polygon style="fill-rule:evenodd;clip-rule:evenodd;fill:#BD877C;" points="52.25,14.75 51.35,13.75 70.3,10.2 70.85,11.2 	"/>
	<polygon style="fill-rule:evenodd;clip-rule:evenodd;fill:#BD877C;" points="84.65,38.1 85.2,39.2 67.6,40.9 67.5,39.8 	"/>
	<polygon style="fill-rule:evenodd;clip-rule:evenodd;fill:#BD877C;" points="58.8,26.15 58.85,25.05 78.35,25.8 78.9,26.95 	"/>
	<polygon style="fill-rule:evenodd;clip-rule:evenodd;fill:#BD877C;" points="87.1,74.15 87,73.05 101.7,71.4 102.25,72.5 	"/>
	<polygon style="fill-rule:evenodd;clip-rule:evenodd;fill:#BD877C;" points="94.15,56.7 94.75,57.9 75,55.15 75.15,54.05 	"/>
	<polygon style="fill-rule:evenodd;clip-rule:evenodd;fill:#BD877C;" points="92.65,85.4 92.45,84.3 106.8,81.4 107.35,82.45 	"/>
	<polygon style="fill-rule:evenodd;clip-rule:evenodd;fill:#BD877C;" points="99.45,96.15 99.15,95.05 111.95,91.4 112.45,92.45 	
		"/>
	<polygon style="fill-rule:evenodd;clip-rule:evenodd;fill:#BD877C;" points="106.2,108.15 106.4,107.05 121.15,109.4 121.8,110.6 	
		"/>
	<linearGradient id="SVGID_2_" gradientUnits="userSpaceOnUse" x1="0" y1="54.7998" x2="106.2998" y2="54.7998">
		<stop  offset="0" style="stop-color:#A8655C"/>
		<stop  offset="1" style="stop-color:#C08E82"/>
	</linearGradient>
	<polygon style="fill-rule:evenodd;clip-rule:evenodd;fill:url(#SVGID_2_);" points="0,4 43.75,0.5 106.3,107.6 77.8,109.1 	"/>
	<polygon style="fill-rule:evenodd;clip-rule:evenodd;fill:#9E5E56;" points="99,95.05 99.3,95.6 99.35,96.15 89.1,96.9 89.1,108 
		106,107.05 106.3,107.6 105.55,108.2 77,109.8 77.8,109.1 77.45,108.65 88,108.05 88,96.95 69.8,98.25 69,97.15 	"/>
	<polygon style="fill-rule:evenodd;clip-rule:evenodd;fill:#9E5E56;" points="51.35,13.65 52.1,14.9 5.85,11.75 4.95,10.55 	"/>
	<polygon style="fill-rule:evenodd;clip-rule:evenodd;fill:#9E5E56;" points="86.2,73.05 86.85,74.15 52.25,74.5 51.4,73.4 
		52.95,73.4 52.25,56.05 38.95,56.55 38.15,55.45 75.05,54.05 75.1,55.15 53.4,56 54.1,73.35 	"/>
	<polygon style="fill-rule:evenodd;clip-rule:evenodd;fill:#9E5E56;" points="66.8,39.75 67.45,40.9 26,39 25.15,37.85 49.5,38.95 
		49.25,26.45 17.4,27.4 16.6,26.3 58.25,25.05 58.8,26.05 58.8,26.15 50.4,26.4 50.6,39 	"/>
	<polygon style="fill-rule:evenodd;clip-rule:evenodd;fill:#9E5E56;" points="92.55,84.3 92.55,85.4 60.9,86.2 60.1,85.1 87,84.45 
		87.2,74.8 88.3,76.65 88.15,84.4 	"/>
</g>
</svg>
