<?xml version="1.0" encoding="iso-8859-1"?>
<!-- Generator: Adobe Illustrator 15.1.0, SVG Export Plug-In . SVG Version: 6.00 Build 0)  -->
<!DOCTYPE svg PUBLIC "-//W3C//DTD SVG 1.1//EN" "http://www.w3.org/Graphics/SVG/1.1/DTD/svg11.dtd">
<svg version="1.1" id="tower_x5F_red_x5F_head_x5F_mid_x5F_01.ai"
	 xmlns="http://www.w3.org/2000/svg" xmlns:xlink="http://www.w3.org/1999/xlink" x="0px" y="0px" width="204.4px"
	 height="208.65px" viewBox="0 0 204.4 208.65" style="enable-background:new 0 0 204.4 208.65;" xml:space="preserve">
<g>
	<path style="fill-rule:evenodd;clip-rule:evenodd;fill:#BD877C;" d="M147.95,181.35l10.85,7.15l1.5,2.8l-2.6-0.55
		c-0.634-0.167-1.733-0.65-3.3-1.45l-2.15-1.2l-0.2,2.4c-0.233,2.1-0.666,4.434-1.3,7s-1.4,4.467-2.3,5.7
		c-0.467,0.633-0.867,1-1.2,1.1l-2.25-4.5L147.95,181.35z"/>
	<linearGradient id="SVGID_1_" gradientUnits="userSpaceOnUse" x1="29.2036" y1="118.7852" x2="182.5771" y2="118.7852">
		<stop  offset="0" style="stop-color:#A8655C"/>
		<stop  offset="1" style="stop-color:#C08E82"/>
	</linearGradient>
	<path style="fill-rule:evenodd;clip-rule:evenodd;fill:url(#SVGID_1_);" d="M163.05,172.95L59,171.7
		c-6.333-1.267-12.25-4.7-17.75-10.3c-11-11.167-14.467-27.517-10.4-49.051c2.3-12.2,9.383-22.417,21.25-30.649
		c10.533-7.3,23.65-12.317,39.35-15.05c14.733-2.566,28.95-2.7,42.649-0.4c14.067,2.367,24.5,6.833,31.301,13.4
		c16.566,16,21.149,36.35,13.75,61.05C175.45,153.066,170.083,163.816,163.05,172.95z"/>
	<g>
		<path style="fill-rule:evenodd;clip-rule:evenodd;fill:#A3625A;" d="M44.7,87.75c6.733-6.467,15.45-11.683,26.15-15.65
			c0.933,0.633,1.7,1.233,2.3,1.8c-4.433,3.434-8.433,8.283-12,14.55c-7.133,12.5-8.517,25.783-4.15,39.85s14.5,25.467,30.4,34.2
			c7.934,4.366,15.433,7.333,22.5,8.9L108.1,172.3L59,171.7c-6.333-1.267-12.25-4.7-17.75-10.3
			c-11-11.167-14.467-27.517-10.4-49.051C32.617,103.05,37.233,94.85,44.7,87.75z"/>
		<g>
			<path style="fill-rule:evenodd;clip-rule:evenodd;fill:#955C54;" d="M41.05,109.45c-0.9,11.934,1.167,22.083,6.2,30.45
				c9.033,15.033,24,25.767,44.9,32.199L59,171.7c-6.333-1.267-12.25-4.7-17.75-10.3c-11-11.167-14.467-27.517-10.4-49.051
				c1.867-9.966,6.95-18.616,15.25-25.95C43.3,94.1,41.617,101.783,41.05,109.45z"/>
			<g>
				<path style="fill-rule:evenodd;clip-rule:evenodd;fill:#9E5E56;" d="M100.9,145.75l-16.7,0.35V160.2l9.95,0.55l35.2-2.65
					l6.95-1.1l-0.149-14.05L100.9,145.75z M149.85,140.5l10.101-4.25l-1.8-14.95l-9.15,4.15L112.2,133l-2.851-0.1l0.15,11.1
					L149.85,140.5z M135,111.5l-9.35,2.75l-25.5,1.5l-17.1-0.05l-0.35,15.25l29.399,0.899l25.75-5.25L135,111.5z M63.95,131.25
					l0.35,14.1l36.55-0.75l7.5-0.55l-0.149-11.2L63.95,131.25z M64.1,146.5l-23.05-4.8l-0.5,12.1l20.3,5.05l22.2,1.25v-14
					L64.1,146.5z M56.7,110.95l8.15,3.55l35.3,0.1l5.75-0.35l-0.65-12.05l-34.15-0.35l-10.15-5.5L56.7,110.95z M153,89.05l-13,7.55
					l-31.2,5.65l-2.45-0.05l0.65,12l18.55-1.101l30.55-8.95L153,89.05z M114.05,83.1l-29.5,1.3l-0.7,16.45l24.85,0.25l21.899-3.95
					l-2.55-16.95L114.05,83.1z M177.25,111.65l-4.1-15.3l-16.601,8.85l-20.45,6l2.851,15.2l9.75-2L177.25,111.65z M177.25,128.25
					l-4.9,3.95L150.15,141.6l-12.9,1.25l0.2,14l25.1-3.949l15.2-10L177.25,128.25z M165.95,80.2l0.8,0.8L154,88.45l3.15,15.15
					L176.1,93.5l0.5,1l-2.449,1.3l4.149,15.4l3.4-1.4l0.149,1.15L159.2,120.8l1.8,15l10.85-4.6l5.351-4.351v-0.05h0.05l5.15-4.149
					l-0.101,1.5l-3.95,3.199l0.5,14.301l-0.8,2.399l-15.1,9.9L162.85,154l-2.1,0.3l1.05,14.25l-1.1,0.101L159.6,154.5l-30.149,4.75
					l-19.5,1.45l1.2,11.6H110l-1.15-11.55l-14.7,1.1L60.6,159.95L56.75,159l-0.65,11.85l-1.15-0.449l0.7-11.65l-20.3-5.1L34.6,152.3
					l4.8,1.2l0.5-12.1l-10.1-4.551l-0.2-1.3l11.1,4.95l22.5,4.65l-0.35-13.95L47.1,130.35L29.65,120.2l0.15-1.25l17.6,10.3l34.2,1.7
					l0.3-15.3L64.65,115.6L34,102.45l0.45-1l21.2,9.05l4.25-14.7l-15.05-8.2l0.85-0.85l14.95,8.15l0.65,0.2l-0.05,0.1l10.15,5.55
					l11.3,0.1l0.7-16.4l-3.25,0.15L80,84.55L63.05,75.4l1.3-0.6l16.05,8.7l23.5-1.05v-10.8h1.1V82.4l8.95-0.4l32.45-6.75l5.6-4
					l1.2,0.5l-6.351,4.6L129.15,80l2.55,16.95l8-1.45L165.95,80.2z"/>
			</g>
		</g>
	</g>
	<path style="fill-rule:evenodd;clip-rule:evenodd;fill:#CB9878;" d="M77,103.8c4.5,0,12,0.25,22.5,0.75l1.2,2.2
		c0.733,1.667,1,3.017,0.8,4.05s-0.8,1.934-1.8,2.7c-0.5,0.366-0.983,0.634-1.45,0.8l2.95,3.2c1.899,2.4,2.75,4.167,2.55,5.3
		c-0.2,1.134-0.967,1.934-2.3,2.4l-1.95,0.35l2.75,4.9c1.6,3.533,1.767,5.983,0.5,7.35c-1.233,1.367-2.733,2.017-4.5,1.95L96,139.3
		l1.7,3.45c0.8,2.566,0.316,4.417-1.45,5.55c-1.767,1.134-3.55,1.9-5.35,2.3l-2.15,0.2l-0.3,3.15c-0.5,2.066-1.483,3.1-2.95,3.1
		s-2.95-0.583-4.45-1.75l-1.8-1.75c-0.733,0.667-1.6,1.25-2.6,1.75c-2,1-3.633,1.084-4.9,0.25c-1.233-0.833-2.233-2.25-3-4.25
		L68,148.55c-0.733-0.033-1.567-0.149-2.5-0.35c-1.833-0.434-3.167-1.066-4-1.9c-0.833-0.833-0.95-2.25-0.35-4.25l1.1-2.75
		c-1,0.033-2.017-0.05-3.05-0.25c-2.1-0.399-3.25-1.233-3.45-2.5c-0.2-1.233,0.283-2.816,1.45-4.75l1.8-2.5
		c-1.167,0.334-2.35,0.5-3.55,0.5c-2.434,0-3.75-0.833-3.95-2.5c-0.2-1.666,0.283-3.283,1.45-4.85l1.8-1.9
		c-0.833-0.533-1.65-1.217-2.45-2.05c-1.633-1.6-2.4-3.083-2.3-4.45c0.1-1.366,0.967-2.35,2.6-2.95c0.8-0.333,1.6-0.517,2.4-0.55
		c-0.967-0.366-1.9-0.85-2.8-1.45c-1.833-1.233-2.65-2.416-2.45-3.55c0.2-1.133,0.767-2.017,1.7-2.65l1.3-0.6l9.6,0.75
		C69.317,103.55,74.2,103.8,77,103.8z"/>
	<path style="fill-rule:evenodd;clip-rule:evenodd;fill:#CB9878;" d="M154.8,97.7c1.367,2.3,1.684,3.917,0.95,4.85
		c-0.733,0.934-1.616,1.883-2.65,2.851l-1.35,1.149l3.55,0.45c2.334,0.566,3.4,1.583,3.2,3.05s-1.267,2.733-3.2,3.8l-2.8,1.2
		l2.95,1.3c1.899,1.101,2.583,2.167,2.05,3.2s-1.483,2.017-2.85,2.95l-1.9,1.05l2.75,1c1.667,0.934,2.083,2.017,1.25,3.25
		c-0.833,1.267-1.95,2.233-3.35,2.9l-1.9,0.6l1.05,2.55c0.601,1.767,0.584,2.917-0.05,3.45c-1,0.834-2.25,1.584-3.75,2.25l1.4,2.9
		c0.733,2.033,0.683,3.316-0.15,3.85c-1.333,0.834-2.917,1.25-4.75,1.25l-0.35,2.851c-0.601,1.933-1.817,3.066-3.65,3.399
		c-1.833,0.334-3.333,0.017-4.5-0.95l-1.25-1.55l-1.5,2.15c-1.167,1.366-2.167,1.899-3,1.6s-1.616-1.149-2.35-2.55l-0.9-1.95
		l-1.8,1.65c-1.367,0.899-2.517,0.934-3.45,0.1c-0.934-0.833-1.467-2.033-1.6-3.6l0.1-2.15c-0.9,0.3-1.884,0.483-2.95,0.55
		c-2.066,0.101-3.416-0.416-4.05-1.55c-0.634-1.133-0.316-2.517,0.95-4.149L117,139.3c-0.967-0.133-1.9-0.416-2.8-0.85
		c-1.767-0.867-2.5-2.084-2.2-3.65s0.934-2.916,1.9-4.05l1.35-1.2c-0.9-0.233-1.8-0.6-2.7-1.1c-1.8-1-2.649-2.134-2.55-3.4
		c0.1-1.233,0.717-2.267,1.85-3.1c0.567-0.434,1.117-0.733,1.65-0.9c-0.833-0.366-1.634-0.866-2.4-1.5
		c-1.533-1.233-2.149-2.483-1.85-3.75c0.3-1.233,0.983-2.1,2.05-2.6c0.5-0.267,0.983-0.4,1.45-0.4c-1.167-0.333-2.15-0.934-2.95-1.8
		c-1.633-1.767-1.566-4,0.2-6.7l8.1-0.8c6.134-0.667,11.017-1.317,14.65-1.95s8.017-1.983,13.15-4.05
		c2.566-1.033,4.767-2.017,6.6-2.95L154.8,97.7z"/>
	<path style="fill-rule:evenodd;clip-rule:evenodd;fill:#93554E;" d="M180.25,103.4c0.1,1.367,0.134,2.583,0.1,3.65l-18.55,4.2
		l-7.75-26.35l-10.8,2.6l-18.2-13.35l-52.35,7l-2.55,15.6l-25.4,3.55l-9.65,19.9l-4.6-0.2c0.267-2.866,0.633-6.017,1.1-9.45
		c0.933-6.933,1.933-11.9,3-14.9c1.066-2.933,7-7.566,17.8-13.9c5.5-3.2,11.367-6.5,17.6-9.9c1.1-0.833,10.367-2.533,27.8-5.1
		c17-2.533,26.617-3.75,28.851-3.65c1.833,0.066,10.783,5.417,26.85,16.05c15.967,10.567,24.4,16.65,25.3,18.25
		C179.566,98.7,180.05,100.7,180.25,103.4z"/>
	<path style="fill-rule:evenodd;clip-rule:evenodd;fill:#93554E;" d="M98.75,197.3L108,181.4l37,18.399l2.25,4.5
		c-3,1.533-6.434,2.717-10.3,3.55c-7.767,1.667-13.834,0.733-18.2-2.8c-1.533-1.233-3.267-2.85-5.2-4.85l-2.399-2.601l-6.4,6.45
		L98.75,197.3z"/>
	<path style="fill-rule:evenodd;clip-rule:evenodd;fill:#A35855;" d="M166.2,165.15c3.267,1.267,5.95,2.683,8.05,4.25
		c6.767,4.933,6.434,10.333-1,16.199c-4.6,3.634-9.8,4.567-15.6,2.801c-1.801-0.534-3.567-1.317-5.301-2.351l-2-1.399l0.051,2.949
		c-0.134,2.334-0.601,4.534-1.4,6.601c-2.566,6.533-8.017,10.25-16.35,11.149c-7.233,0.801-12.884-1.399-16.95-6.6
		c-1.267-1.634-2.3-3.467-3.101-5.5l-0.8-2.55l-6.35,8.05c-5.1,5.533-9.867,8.7-14.3,9.5c-5.767,1.033-9.983-0.283-12.65-3.95
		c-0.833-1.166-1.45-2.483-1.85-3.95l-0.4-1.899c-2.1,1.434-4.833,2.783-8.2,4.05c-6.733,2.533-13.267,3.35-19.6,2.45
		c-6.367-0.9-6.517-6.717-0.45-17.45c1.9-3.333,4.3-6.967,7.2-10.9L59,171.7l16.95-4.601l2.6,4.5l7.9-0.199L87,168.8l12-0.95
		l5.05,3.2l11.851-0.2l1.649-2.8l13.351-0.95l2.05,2.65l11.6-0.2l5.851-4.7l11.5-1.149L166.2,165.15z"/>
	<path style="fill-rule:evenodd;clip-rule:evenodd;fill:#A35855;" d="M204.4,99.6l-40.15,7.55L156.1,82.3l-12.35,2.55L124.4,71.8
		l-56.95,6.85l-0.7,16.8L42.2,96l-11.7,24L0,117.2c8.3-11.9,18.55-24.167,30.75-36.8c24.433-25.267,46.433-39.733,66-43.4l1.3-10.65
		c-2.566-0.4-4.667-1.833-6.3-4.3c-1.567-2.333-2.383-5.017-2.45-8.05c-0.066-3.167,0.717-5.95,2.35-8.35
		c1.867-2.733,4.567-4.5,8.1-5.3c3.8-0.867,6.7-0.217,8.7,1.95c1.767,1.9,2.633,4.633,2.6,8.2c-0.066,3.367-0.899,6.533-2.5,9.5
		c-1.733,3.167-3.899,5.183-6.5,6.05l4.4,10.5c16.833,1.4,38.217,12.333,64.149,32.8C183.533,79.583,194.8,89.667,204.4,99.6z"/>
	<path style="fill-rule:evenodd;clip-rule:evenodd;fill:#A35855;" d="M64.5,137.55c-2.3-4.366-4.2-10.8-5.7-19.3l-1.55-11.45
		l38.5,4.25l1,7.2c0.433,5.9,0.017,11.5-1.25,16.8c-1.367,5.767-3.767,10.184-7.2,13.25c-2.767,2.5-5.533,3.667-8.3,3.5
		C74.467,151.5,69.3,146.75,64.5,137.55z"/>
	<path style="fill-rule:evenodd;clip-rule:evenodd;fill:#A35855;" d="M149.55,124.65c-1.733,15.466-6.583,23.767-14.55,24.899
		c-9.7,1.367-15.934-4.816-18.7-18.55c-0.899-4.267-1.383-9.033-1.45-14.3l0.15-6.65l34.75-8.25l0.4,7.101
		C150.283,114.6,150.083,119.85,149.55,124.65z"/>
	<path style="fill-rule:evenodd;clip-rule:evenodd;fill:#60383E;" d="M77.25,146.55c-5.533-0.3-9.267-5.649-11.2-16.05
		c-0.633-3.233-1.033-6.783-1.2-10.65l-0.1-4.8l28.5,2.25L92.6,122c-0.6,3.733-1.4,7.134-2.4,10.2
		C87.1,142.066,82.783,146.85,77.25,146.55z"/>
	<path style="fill-rule:evenodd;clip-rule:evenodd;fill:#60383E;" d="M145.5,110.8l-0.7,4.9c-0.666,3.934-1.517,7.55-2.55,10.85
		c-3.233,10.5-7.566,15.75-13,15.75c-5.4,0-8.517-4.616-9.35-13.85c-0.267-2.9-0.284-6.084-0.051-9.55l0.4-4.351L145.5,110.8z"/>
	<g>
		<path style="fill-rule:evenodd;clip-rule:evenodd;fill:#924B4B;" d="M48,187.5c1.9-3.333,4.3-6.967,7.2-10.9L59,171.7l-4.5,9.899
			c-2.833,7.101-3.817,11.9-2.95,14.4c0.8,2.333,4.117,3.85,9.95,4.55c3.167,0.4,6.617,0.517,10.35,0.351
			c-8,3.8-15.8,5.149-23.4,4.05C42.083,204.05,41.933,198.233,48,187.5z"/>
		<path style="fill-rule:evenodd;clip-rule:evenodd;fill:#924B4B;" d="M162,185.5c2.533,0.634,5.366,0.566,8.5-0.2
			c1.9-0.467,3.634-1.1,5.2-1.899c-0.634,0.666-1.45,1.399-2.45,2.199c-4.467,3.534-9.5,4.517-15.1,2.95
			c-3.067-0.833-5.65-2.116-7.75-3.85c-0.834-1.167-1.551-2.316-2.15-3.45l-0.7-1.4l4.7,2.2C155.95,183.65,159.2,184.8,162,185.5z"
			/>
		<path style="fill-rule:evenodd;clip-rule:evenodd;fill:#924B4B;" d="M112.6,193.25l-0.8-2.55l-0.2,0.35
			c0.167-2.666,0.567-5.017,1.2-7.05l0.851-2.25l2.649,4.85c2.134,3.834,4.184,7.15,6.15,9.95s4.649,5.017,8.05,6.65
			c1.7,0.833,3.2,1.366,4.5,1.6l-0.1,0.2c-1,0.2-1.75,0.316-2.25,0.35c-7.233,0.801-12.884-1.399-16.95-6.6
			C114.434,197.116,113.4,195.283,112.6,193.25z"/>
		<path style="fill-rule:evenodd;clip-rule:evenodd;fill:#924B4B;" d="M78.95,187.45l1.5-4.601l2.25,8.051
			c1.9,5.699,3.833,9.333,5.8,10.899c1.867,1.467,4.433,2.101,7.7,1.9c1.8-0.101,3.517-0.417,5.15-0.95c-3.6,3.1-7,4.934-10.2,5.5
			c-5.767,1.033-9.983-0.283-12.65-3.95c-0.833-1.166-1.45-2.483-1.85-3.95l-0.4-1.899C76.95,194.884,77.85,191.217,78.95,187.45z"
			/>
	</g>
	<path style="fill-rule:evenodd;clip-rule:evenodd;fill:#B87F74;" d="M82.15,118.3l9.65,0.3l-2.9,13.75
		c0.1-1.6,0.15-3.283,0.15-5.05c0-3.5-0.267-5.649-0.8-6.45c-0.533-0.8-1.717-1.466-3.55-2L82.15,118.3z"/>
	<path style="fill-rule:evenodd;clip-rule:evenodd;fill:#B87F74;" d="M133.25,114.3l10.75-1.8l-3.4,14.45
		c0.2-1.601,0.284-3.267,0.25-5c-0.033-3.434-0.6-5.45-1.699-6.05c-1.067-0.601-2.367-1.051-3.9-1.351L133.25,114.3z"/>
	<g>
		<path style="fill-rule:evenodd;clip-rule:evenodd;fill:#924B4B;" d="M91.75,22.05c-1.567-2.333-2.383-5.017-2.45-8.05
			c-0.066-3.167,0.717-5.95,2.35-8.35c1.867-2.733,4.567-4.5,8.1-5.3l1-0.15c-3.667,2.466-5.5,6.033-5.5,10.7
			c0,3.934,0.7,6.8,2.1,8.6c0.667,0.9,1.35,1.417,2.05,1.55l1.7,8.55c0.867,6.1,0.667,10.25-0.6,12.45
			c-0.6,1.034-2.717,2.317-6.35,3.85c-7.833,3.333-12.033,5.133-12.6,5.4c-13.367,6.233-24.3,14.65-32.8,25.25
			c-5.2,6.467-10.45,14.6-15.75,24.4c-2.633,4.866-4.75,9.1-6.35,12.7l6.55,0.85l-2.7,5.5L0,117.2c8.3-11.9,18.55-24.167,30.75-36.8
			c24.433-25.267,46.433-39.733,66-43.4l1.3-10.65C95.483,25.95,93.383,24.517,91.75,22.05z"/>
	</g>
	<path style="fill-rule:evenodd;clip-rule:evenodd;fill:#B87F74;" d="M103.9,2.3c4.533,0.934,6.017,3.967,4.449,9.1
		c-0.767,2.567-2,5.033-3.699,7.4c0.5-2,0.75-4.25,0.75-6.75c0-0.8-0.817-3.017-2.45-6.65C101.85,2.967,102.167,1.933,103.9,2.3z"/>
	<path style="fill-rule:evenodd;clip-rule:evenodd;fill:#B87F74;" d="M181.35,80.95c4.367,4.133,7.801,7.667,10.301,10.6
		c-2.733-2.566-5.617-5.083-8.65-7.55c-6.066-4.933-9.816-7.167-11.25-6.7c-1.4,0.467-1.384,1.85,0.05,4.15
		c0.733,1.167,1.601,2.283,2.601,3.35c-10.5-8.5-20.884-16.25-31.15-23.25c-6.4-4.367-14.316-8.5-23.75-12.4l-12.25-4.5l7.5-4.1
		l11.25,4.2c9.4,4,18.783,8.967,28.15,14.9C163.517,65.583,172.583,72.683,181.35,80.95z"/>
	<polygon style="fill-rule:evenodd;clip-rule:evenodd;fill:#924B4B;" points="46.9,89.65 66.75,95.45 42.2,96 	"/>
	<polygon style="fill-rule:evenodd;clip-rule:evenodd;fill:#924B4B;" points="67.45,78.65 68.65,71.65 124.4,71.8 	"/>
</g>
</svg>
