<?xml version="1.0" encoding="iso-8859-1"?>
<!-- Generator: Adobe Illustrator 15.1.0, SVG Export Plug-In . SVG Version: 6.00 Build 0)  -->
<!DOCTYPE svg PUBLIC "-//W3C//DTD SVG 1.1//EN" "http://www.w3.org/Graphics/SVG/1.1/DTD/svg11.dtd">
<svg version="1.1" id="tower_x5F_red_x5F_mid_x5F_04.ai"
	 xmlns="http://www.w3.org/2000/svg" xmlns:xlink="http://www.w3.org/1999/xlink" x="0px" y="0px" width="148.5px"
	 height="110.55px" viewBox="0 0 148.5 110.55" style="enable-background:new 0 0 148.5 110.55;" xml:space="preserve">
<g>
	<path style="fill-rule:evenodd;clip-rule:evenodd;fill:#B07A6F;" d="M145.45,7.2L35.6,110.55l-9.1-0.149
		c16.9-17.534,33.85-35,50.85-52.4c33.934-34.8,51.084-51.883,51.45-51.25L145.45,7.2z"/>
	<linearGradient id="SVGID_1_" gradientUnits="userSpaceOnUse" x1="0" y1="57.1504" x2="128.7998" y2="57.1504">
		<stop  offset="0" style="stop-color:#A8655C"/>
		<stop  offset="1" style="stop-color:#C08E82"/>
	</linearGradient>
	<polygon style="fill-rule:evenodd;clip-rule:evenodd;fill:url(#SVGID_1_);" points="94.3,3.75 128.8,6.75 26.6,110.55 0,101.15 	
		"/>
	<polygon style="fill-rule:evenodd;clip-rule:evenodd;fill:#8E574F;" points="134.6,17.4 133.5,18.4 119,17.05 119.1,15.95 	"/>
	<polygon style="fill-rule:evenodd;clip-rule:evenodd;fill:#8E574F;" points="94.8,41.25 95.35,40.25 104.6,45.6 103.75,46.4 	"/>
	<polygon style="fill-rule:evenodd;clip-rule:evenodd;fill:#8E574F;" points="106.1,30.75 106.55,29.75 116.75,34.15 115.9,35 	"/>
	<polygon style="fill-rule:evenodd;clip-rule:evenodd;fill:#8E574F;" points="88.1,61.1 87.2,62 77.6,58.55 78,57.45 	"/>
	<polygon style="fill-rule:evenodd;clip-rule:evenodd;fill:#8E574F;" points="64.85,71.75 65.25,70.75 74.15,74.25 73.25,75.1 	"/>
	<polygon style="fill-rule:evenodd;clip-rule:evenodd;fill:#8E574F;" points="47.3,89.75 47.8,88.75 54.9,92.35 54,93.2 	"/>
	<polygon style="fill-rule:evenodd;clip-rule:evenodd;fill:#8E574F;" points="54.8,82 55.3,81 63.05,84.65 62.15,85.5 	"/>
	<polygon style="fill-rule:evenodd;clip-rule:evenodd;fill:#8E574F;" points="44.95,101.7 44,102.6 36.9,100.8 37.2,99.7 	"/>
	<polygon style="fill-rule:evenodd;clip-rule:evenodd;fill:#9E5E56;" points="124.85,1.85 125.8,3.05 100.8,1.65 99.2,16.65 
		119.05,15.95 119.05,16.65 118.6,17.1 80.05,18.45 81.2,17.3 98.1,16.7 99.7,1.6 92.85,1.25 92.2,0.05 	"/>
	<polygon style="fill-rule:evenodd;clip-rule:evenodd;fill:#9E5E56;" points="92.8,40.2 93.7,31 67.5,31.4 68.6,30.25 106.2,29.7 
		105.05,30.85 94.8,31 93.95,40.2 95.05,40.2 95.05,40.95 94.7,41.3 61.85,41.85 60.9,55.55 77.85,57.45 77.75,58.55 77.7,58.55 
		44.7,54.85 45.7,53.85 59.75,55.4 60.7,41.9 57.25,41.95 58.35,40.8 	"/>
	<polygon style="fill-rule:evenodd;clip-rule:evenodd;fill:#9E5E56;" points="11.4,89.2 12.45,88.1 28.75,88.4 28.95,80.35 
		20.5,79.8 21.55,78.75 54.35,80.9 55.9,70.35 33.2,66.75 34.15,65.75 65.15,70.7 65.05,71.45 64.7,71.75 57,70.55 55.45,81.15 
		54.55,82.05 30.1,80.45 29.9,88.4 47.55,88.7 47.55,89.15 46.9,89.8 	"/>
	<polygon style="fill-rule:evenodd;clip-rule:evenodd;fill:#9E5E56;" points="29.8,100.7 29.1,107.85 27.85,109.15 28.7,100.65 
		0.75,100.2 1.8,99.1 37.05,99.7 37.05,99.8 36.05,100.8 	"/>
	<polygon style="fill-rule:evenodd;clip-rule:evenodd;fill:#A35855;" points="131.5,0.85 127.5,12.35 88.5,5 90.5,0 	"/>
	<polygon style="fill-rule:evenodd;clip-rule:evenodd;fill:#AD6862;" points="131.5,0.85 148.5,1.35 146.5,9.35 127.5,12.35 	"/>
</g>
</svg>
