<?xml version="1.0" encoding="iso-8859-1"?>
<!-- Generator: Adobe Illustrator 15.1.0, SVG Export Plug-In . SVG Version: 6.00 Build 0)  -->
<!DOCTYPE svg PUBLIC "-//W3C//DTD SVG 1.1//EN" "http://www.w3.org/Graphics/SVG/1.1/DTD/svg11.dtd">
<svg version="1.1" id="tower_x5F_orange_x5F_front_x5F_03.ai"
	 xmlns="http://www.w3.org/2000/svg" xmlns:xlink="http://www.w3.org/1999/xlink" x="0px" y="0px" width="71.6px" height="208px"
	 viewBox="0 0 71.6 208" style="enable-background:new 0 0 71.6 208;" xml:space="preserve">
<g>
	
		<linearGradient id="SVGID_1_" gradientUnits="userSpaceOnUse" x1="9.6689" y1="106.8672" x2="20.5621" y2="106.8672" gradientTransform="matrix(0.9892 -0.1469 0.1469 0.9892 4.312992e-004 1.566857e-004)">
		<stop  offset="0" style="stop-color:#8F5837"/>
		<stop  offset="1" style="stop-color:#CF703E"/>
	</linearGradient>
	<polygon style="fill-rule:evenodd;clip-rule:evenodd;fill:url(#SVGID_1_);" points="21.6,1.6 54.4,208 40.8,192.8 0,0 	"/>
	<g>
		<polygon style="fill-rule:evenodd;clip-rule:evenodd;fill:#895E42;" points="35.25,166.4 34.9,164.75 46.8,166.25 46.6,167.85 		
			"/>
		<polygon style="fill-rule:evenodd;clip-rule:evenodd;fill:#895E42;" points="40.1,189.5 39.75,187.7 51.75,191.9 51.2,193.4 		"/>
		<polygon style="fill-rule:evenodd;clip-rule:evenodd;fill:#895E42;" points="40.2,135.85 39.85,137.45 28.55,134.9 28.2,133.15 		
			"/>
		<polygon style="fill-rule:evenodd;clip-rule:evenodd;fill:#895E42;" points="32.25,152.4 31.9,150.75 43.55,151.85 43.4,153.45 		
			"/>
		<polygon style="fill-rule:evenodd;clip-rule:evenodd;fill:#895E42;" points="20.7,97.7 20.3,95.95 33.25,99.1 32.9,100.65 		"/>
		<polygon style="fill-rule:evenodd;clip-rule:evenodd;fill:#895E42;" points="37.55,119.35 37.15,120.9 25,118.05 24.65,116.3 		
			"/>
		<polygon style="fill-rule:evenodd;clip-rule:evenodd;fill:#895E42;" points="28.95,78 28.7,79.6 16.45,77.7 16.1,76 		"/>
		<polygon style="fill-rule:evenodd;clip-rule:evenodd;fill:#895E42;" points="25.55,59.1 25.15,60.65 12.2,57.5 11.8,55.75 		"/>
		<polygon style="fill-rule:evenodd;clip-rule:evenodd;fill:#895E42;" points="22.05,40.95 21.7,42.5 8.45,39.75 8.05,38.05 		"/>
		<polygon style="fill-rule:evenodd;clip-rule:evenodd;fill:#895E42;" points="18.3,20.4 18,22 4.15,19.5 3.8,17.85 		"/>
	</g>
	<polygon style="fill-rule:evenodd;clip-rule:evenodd;fill:#764B31;" points="15.3,10.4 1.8,7.8 1,4.4 14.25,5.25 	"/>
	
		<linearGradient id="SVGID_2_" gradientUnits="userSpaceOnUse" x1="-50.3188" y1="-107.04" x2="-6.1203" y2="-107.04" gradientTransform="matrix(-0.9978 0.0667 -0.0667 -0.9978 7.718801e-005 4.643574e-004)">
		<stop  offset="0" style="stop-color:#E4B48B"/>
		<stop  offset="1" style="stop-color:#D27948"/>
	</linearGradient>
	<path style="fill-rule:evenodd;clip-rule:evenodd;fill:url(#SVGID_2_);" d="M51,46.65C48.233,66.717,47.533,81.833,48.9,92
		c1.699,12.9,6,36.05,12.899,69.45c3.434,16.7,6.7,32.1,9.8,46.2L54.4,208L13.75,1.2c29.8,1.167,44.8,1.8,45,1.9
		C55.417,18.733,52.833,33.25,51,46.65z"/>
	<g>
		<polygon style="fill-rule:evenodd;clip-rule:evenodd;fill:#BD7B54;" points="67.8,190.1 62.2,191.25 63.65,207.8 62,207.85 
			60.65,191.55 51.65,193.45 51.3,191.85 67.45,188.5 		"/>
		<polygon style="fill-rule:evenodd;clip-rule:evenodd;fill:#BD7B54;" points="62.3,163.85 62.6,165.45 46.8,167.85 46.55,166.25 
			54.1,165.1 53.15,152.1 43.7,153.45 43.4,151.85 59.35,149.6 59.7,151.2 54.7,151.9 55.65,164.9 		"/>
		<polygon style="fill-rule:evenodd;clip-rule:evenodd;fill:#BD7B54;" points="56.3,134.2 56.6,135.75 40.55,137.4 40.25,135.85 
			48.75,134.95 47.1,118.65 37.55,120.9 37.15,119.35 52.8,115.65 53.05,117.2 48.65,118.25 50.35,134.8 		"/>
		<polygon style="fill-rule:evenodd;clip-rule:evenodd;fill:#BD7B54;" points="29.15,79.55 28.85,78 48.3,76.05 48.25,77.65 
			44.85,78 45.35,96.4 49.4,95.55 49.6,97.15 33.3,100.6 33,99.05 43.75,96.75 43.25,78.15 		"/>
		<polygon style="fill-rule:evenodd;clip-rule:evenodd;fill:#BD7B54;" points="51.95,39.9 51.7,41.55 40.1,41.9 41,56.5 49.9,55.1 
			49.75,56.75 25.45,60.65 25.2,59.05 39.45,56.75 38.5,41.95 21.9,42.5 21.85,40.9 		"/>
		<polygon style="fill-rule:evenodd;clip-rule:evenodd;fill:#BD7B54;" points="55.6,18.85 55.3,20.45 18.2,22 18.1,20.4 36.8,19.6 
			36.3,3.6 37.9,3.55 38.4,19.55 		"/>
	</g>
	<polygon style="fill-rule:evenodd;clip-rule:evenodd;fill:#B36940;" points="57.65,7.8 57.15,12.45 15.3,10.4 14.25,5.25 	"/>
</g>
</svg>
