<?xml version="1.0" encoding="iso-8859-1"?>
<!-- Generator: Adobe Illustrator 15.1.0, SVG Export Plug-In . SVG Version: 6.00 Build 0)  -->
<!DOCTYPE svg PUBLIC "-//W3C//DTD SVG 1.1//EN" "http://www.w3.org/Graphics/SVG/1.1/DTD/svg11.dtd">
<svg version="1.1" id="tower_x5F_orange_x5F_top_x5F_front_x5F_02.ai"
	 xmlns="http://www.w3.org/2000/svg" xmlns:xlink="http://www.w3.org/1999/xlink" x="0px" y="0px" width="222.95px"
	 height="192.1px" viewBox="0 0 222.95 192.1" style="enable-background:new 0 0 222.95 192.1;" xml:space="preserve">
<g>
	
		<linearGradient id="SVGID_1_" gradientUnits="userSpaceOnUse" x1="-40.5171" y1="-115.0215" x2="-21.878" y2="-115.0215" gradientTransform="matrix(-0.9992 -0.0389 0.0389 -0.9992 -2.594329e-004 6.926320e-004)">
		<stop  offset="0" style="stop-color:#CF703E"/>
		<stop  offset="1" style="stop-color:#8F5837"/>
	</linearGradient>
	<polygon style="fill-rule:evenodd;clip-rule:evenodd;fill:url(#SVGID_1_);" points="51.2,59.7 40.8,174.1 19.2,166.1 20.8,63.7 	
		"/>
	<g>
		<polygon style="fill-rule:evenodd;clip-rule:evenodd;fill:#895E42;" points="40.2,140.1 39.8,141.65 19.65,136.45 19.7,134.8 		
			"/>
		<polygon style="fill-rule:evenodd;clip-rule:evenodd;fill:#895E42;" points="39.85,159.35 39.35,160.85 19.35,154.45 19.4,152.75 
					"/>
		<polygon style="fill-rule:evenodd;clip-rule:evenodd;fill:#895E42;" points="41.35,103.7 41.05,105.25 20.2,100.9 20.25,99.3 		
			"/>
		<polygon style="fill-rule:evenodd;clip-rule:evenodd;fill:#895E42;" points="40.95,119.3 40.6,120.85 19.95,116.05 20,114.45 		
			"/>
		<polygon style="fill-rule:evenodd;clip-rule:evenodd;fill:#895E42;" points="20.55,80.3 20.55,78.65 41.4,83.7 41,85.25 		"/>
	</g>
	
		<linearGradient id="SVGID_2_" gradientUnits="userSpaceOnUse" x1="-195.9873" y1="-124.9502" x2="-39.2123" y2="-124.9502" gradientTransform="matrix(-1 0 0 -1 0 0)">
		<stop  offset="0" style="stop-color:#E4B48B"/>
		<stop  offset="1" style="stop-color:#D27948"/>
	</linearGradient>
	<polygon style="fill-rule:evenodd;clip-rule:evenodd;fill:url(#SVGID_2_);" points="40.1,169.35 41.15,68.15 203.3,68.15 
		159.95,181.75 	"/>
	<g>
		<path style="fill-rule:evenodd;clip-rule:evenodd;fill:#BD7B54;" d="M157.55,148.4L141.9,145.3l-20.4-0.899l-2.45,22.199
			l8.25,1.101l28.7,1.1L157.55,148.4z M140.45,143.65l1.05-17.15l-41.35-3.45l-0.9,18.65L140.45,143.65z M80.55,142.35L80,160.1
			l17.35,3.601l20.1,2.7l2.45-22.051L80.55,142.35z M57,140.3l19,0.2l21.65,1.15l0.9-18.7l-20.2-1.25l-21.15-0.45L57,140.3z
			 M79.85,103.45l0.5,16.75l42.45,3.1l0.351-18.1L100,104.9L79.85,103.45z M143.1,90.9l-18.75,0.4l-21-2.9l-0.9,14.9l26.85,0.4
			l12.75,2.1L143.1,90.9z M101.75,88.2l-6.65-0.9l-37.35-1.4l-0.15,16.5l14.8-1.101l27.65,2h0.8L101.75,88.2z M162.1,127l1.95-17.8
			l-11,0.1l-23.95-4l-4.35-0.05l-0.35,18.2L162.1,127z M166.8,73.25l1.601,0.05l-0.4,16l26.2,2.65L193.6,93.5l-9.949-1l-1.15,14.95
			l5.85-0.05L187.7,109l-22.05,0.2l-2,18l16.399,1.899l-0.6,1.551l-36.351-4l-1.05,17.05h0.101l30,6l-0.551,1.55l-12.449-2.5
			L157.6,168.9l7.15,0.25l-0.6,1.6l-23.601-0.95l-0.55,9.75l-1.6-0.1l0.55-9.7l-11.8-0.45l-28.4-3.8l-0.55,9.25l-1.6-0.1l0.55-9.351
			H97.1l-25.2-5.2l-15.6,0.4l-0.7,10.25l-1.6-0.1l0.7-10.15l-14.5,0.35v-1.6l31.95-0.75l6.25,1.3l0.55-17.55L40.4,141.7V140.1
			l15,0.15l0.2-19.05l-14.85-0.3l0.05-1.601l37.95,0.8l-0.55-16.8l-5.8-0.399L41.25,105.3l-0.1-1.6L56,102.55l0.15-16.7l-15-0.55
			l0.05-1.6l37.6,1.4L79,70.9h1.6l-0.2,14.25l14.8,0.55l25.75,3.5l1.649-17.6l1.601,0.15l-1.7,17.65l1.95,0.3l39.6-0.8l2.351,0.25
			L166.8,73.25z M182.05,92.35l-18.1-1.85l-19.25,0.4l-1.101,15.2l9.65,1.601l27.65-0.25L182.05,92.35z"/>
	</g>
	<polygon style="fill-rule:evenodd;clip-rule:evenodd;fill:#B36940;" points="200.6,75.3 197.4,83.1 41.15,75.9 41.2,68.1 	"/>
	<polygon style="fill-rule:evenodd;clip-rule:evenodd;fill:#955B39;" points="20.55,69.3 41.3,70.35 41.15,75.9 20.8,73.3 	"/>
	<polygon style="fill-rule:evenodd;clip-rule:evenodd;fill:#7F474F;" points="31.85,162.15 24.65,184.85 9.85,170.35 16.25,158.1 	
		"/>
	<polygon style="fill-rule:evenodd;clip-rule:evenodd;fill:#9B535C;" points="164.05,178.65 165.1,192.1 24.65,184.85 31.85,162.15 
			"/>
	<path style="fill-rule:evenodd;clip-rule:evenodd;fill:#9B535C;" d="M222.95,79.5L0,68.5c3.067-9.333,9.067-19.15,18-29.45
		C35.867,18.45,59.417,5.767,88.65,1c29.267-4.733,60.433,6.933,93.5,35c10.333,8.767,20.233,18.65,29.699,29.65
		C216.583,71.15,220.283,75.767,222.95,79.5z"/>
	<g>
		<path style="fill-rule:evenodd;clip-rule:evenodd;fill:#C1787D;" d="M193.6,78.1c0.667-0.8,0.367-2.883-0.899-6.25
			c-2.533-6.767-8.634-16.6-18.3-29.5c-8.567-11.434-19.45-21.2-32.65-29.3c-7.833-4.8-15.55-8.517-23.15-11.15
			c23.967,4.967,48.551,19.383,73.75,43.25C204.95,57.117,215.15,68.567,222.95,79.5L193.6,78.1z"/>
	</g>
	<g>
		<path style="fill-rule:evenodd;clip-rule:evenodd;fill:#F8CC77;" d="M84,98.15c1.8,0.633,3.017,1.966,3.65,4
			c0.633,2,0.6,3.833-0.1,5.5c-0.333,0.8-0.733,1.416-1.2,1.85l2.15,1.15c1.4,1.166,2.05,2.649,1.95,4.449
			c-0.1,1.801-0.6,3.101-1.5,3.9c-0.434,0.4-0.867,0.616-1.3,0.65l2.1,2.5c1.333,2.033,1.733,4,1.2,5.899
			c-0.534,1.9-1.117,3.066-1.75,3.5c-0.333,0.2-0.6,0.217-0.8,0.05l0.6,2.65c0.3,2.1,0.183,4-0.35,5.7s-1.066,2.717-1.6,3.05
			c-0.3,0.167-0.533,0.167-0.7,0l0.25,3.85c-0.033,2.834-0.533,4.934-1.5,6.301c-0.967,1.366-2.017,2.116-3.15,2.25l-1.4-0.2
			l-0.95,2.7c-1.133,1.833-2.85,2.8-5.15,2.899c-2.333,0.101-3.717-0.3-4.15-1.2l0.05-1.35l-2.1,2.2c-1.8,1.2-3.717,1.233-5.75,0.1
			c-2-1.166-3.183-2.616-3.55-4.35v-2.25c-0.9-0.2-1.85-0.55-2.85-1.05c-1.967-1-3.217-2.184-3.75-3.551
			c-0.533-1.366-0.383-2.616,0.45-3.75l1.35-1.3c-0.8-0.6-1.6-1.35-2.4-2.25c-1.633-1.833-2.45-3.55-2.45-5.149
			c0-1.567,0.434-2.667,1.3-3.301l1.25-0.5c-0.6-0.866-1.167-1.933-1.7-3.199c-1.033-2.5-1.4-4.65-1.1-6.45
			c0.3-1.8,1.034-3.134,2.2-4l1.6-0.8c-0.6-0.667-1.15-1.517-1.65-2.551c-1-2.033-1.3-3.899-0.9-5.6c0.434-1.7,1.45-3,3.05-3.9
			l2.3-0.899c-0.533-0.7-1.017-1.55-1.45-2.55c-0.867-2-0.983-3.684-0.35-5.051c0.633-1.366,2.233-2.383,4.8-3.05
			c1.267-0.3,2.467-0.483,3.6-0.55c0.1-1,0.4-2.05,0.9-3.15c1-2.2,2.567-3.517,4.7-3.95c1.566-0.3,2.9,0,4,0.9
			c0.566,0.467,0.967,0.967,1.2,1.5l2.25-0.4c1.733,0.033,3.217,0.9,4.45,2.6c0.867,1.133,1.417,2.45,1.65,3.95
			c0.133,0.733,0.184,1.35,0.15,1.85L84,98.15z"/>
		<path style="fill-rule:evenodd;clip-rule:evenodd;fill:#9B535C;" d="M56.45,144.7c-2.467-6.2-3.3-13.7-2.5-22.5
			c0.8-8.634,2.867-15.8,6.2-21.5c3.667-6.3,7.95-9.034,12.85-8.2c3.567,0.6,6.65,4.333,9.25,11.2
			c2.5,6.533,3.883,13.916,4.15,22.149c0.267,8.767-0.867,15.867-3.4,21.301c-2.967,6.3-7.433,9.216-13.4,8.75
			C63.6,155.434,59.217,151.7,56.45,144.7z"/>
		<path style="fill-rule:evenodd;clip-rule:evenodd;fill:#60383E;" d="M80.95,126.35c-0.5,7.634-1.75,13.817-3.75,18.551
			c-2.267,5.399-5.133,7.75-8.6,7.05c-3.533-0.7-6.333-4.101-8.4-10.2c-1.9-5.7-2.7-12.15-2.4-19.35
			c0.3-7.534,1.784-13.601,4.45-18.2c3.033-5.267,7.117-7.534,12.25-6.8c2.467,0.333,4.3,3.517,5.5,9.55
			C81.133,112.55,81.45,119.017,80.95,126.35z"/>
	</g>
	<g>
		<path style="fill-rule:evenodd;clip-rule:evenodd;fill:#F8CC77;" d="M111.45,95.15c1.467-0.4,2.684,0.067,3.649,1.4
			c0.467,0.667,0.801,1.367,1,2.101l0.851-1.051c0.733-0.633,1.533-0.75,2.399-0.35c0.867,0.4,1.25,1.333,1.15,2.8
			c-0.066,0.733-0.217,1.434-0.45,2.101l1.5,0.5c1.167,0.633,2.15,1.633,2.95,3c0.767,1.366,1,2.666,0.7,3.899
			c-0.167,0.634-0.4,1.117-0.7,1.45l1.05,0.1c0.834,0.334,1.483,1.233,1.95,2.7c0.5,1.467,0.417,2.684-0.25,3.65
			c-0.333,0.467-0.717,0.8-1.15,1l1,1.25c0.667,1.166,1.034,2.533,1.101,4.1c0.1,1.566-0.25,3.283-1.05,5.15
			c-0.4,0.934-0.817,1.7-1.25,2.3l0.399,1.65c0.267,1.399,0.434,2.866,0.5,4.399c0.101,1.566-0.483,2.934-1.75,4.101
			c-0.633,0.566-1.283,0.983-1.95,1.25l0.301,1.699c0.066,1.367-0.2,2.667-0.801,3.9c-0.566,1.267-1.466,2-2.699,2.2l-1.7-0.101
			l-0.55,2c-0.634,1.467-1.534,2.434-2.7,2.9c-1.167,0.467-2.283,0.533-3.351,0.2l-1.3-0.65l-1.25,1.45
			c-1.133,0.967-2.433,1.483-3.9,1.55c-1.467,0.101-2.367-0.717-2.7-2.45l-0.1-2.649c-0.333,0.267-0.767,0.434-1.3,0.5
			c-1.066,0.1-2.033-0.384-2.9-1.45s-1.25-2.667-1.15-4.8l0.45-2.9c-0.534-0.133-1.067-0.434-1.6-0.899
			c-1.033-0.867-1.5-2.034-1.4-3.5c0.1-1.467,0.55-2.95,1.35-4.45l1.2-1.851c-0.4-0.466-0.783-1.05-1.15-1.75
			c-0.8-1.433-1.2-2.733-1.2-3.899c0-1.9,0.55-3.584,1.65-5.05l1.65-1.65c-0.267-0.4-0.5-0.934-0.7-1.6
			c-0.433-1.301-0.5-2.534-0.2-3.7c0.3-1.167,1-2.15,2.1-2.95l1.55-0.85c-0.6-1.067-0.667-2.301-0.2-3.7c0.3-0.867,1-1.601,2.1-2.2
			c0.566-0.267,1.1-0.467,1.6-0.6c-0.367-0.667-0.667-1.4-0.9-2.2c-0.4-1.634-0.167-2.851,0.7-3.65
			c0.867-0.767,1.783-1.116,2.75-1.05c0.5,0.033,0.9,0.15,1.2,0.35l0.8-1.6C109.517,96.117,110.417,95.417,111.45,95.15z"/>
		<path style="fill-rule:evenodd;clip-rule:evenodd;fill:#9B535C;" d="M121.5,109.05c2.134,5.367,3,11.816,2.6,19.351
			c-0.399,7.6-1.966,13.767-4.699,18.5c-3.101,5.333-7.034,7.466-11.8,6.399c-4.7-1.033-7.75-4.434-9.15-10.2
			c-1.167-4.899-1.067-10.933,0.3-18.1c1.2-6.4,3.067-12.134,5.6-17.2c2.533-5.133,4.816-7.7,6.85-7.7
			C115.667,100.1,119.1,103.083,121.5,109.05z"/>
		<path style="fill-rule:evenodd;clip-rule:evenodd;fill:#60383E;" d="M113.45,104.6c2.566,0.334,4.45,3.051,5.649,8.15
			c1.101,4.634,1.417,10.083,0.95,16.35c-0.434,6.4-1.55,11.617-3.35,15.65c-2,4.533-4.434,6.483-7.3,5.85
			c-2.9-0.633-5.033-3.483-6.4-8.55c-1.233-4.633-1.617-10-1.15-16.1c0.467-6.167,1.667-11.25,3.6-15.25
			C107.617,106.233,110.283,104.2,113.45,104.6z"/>
	</g>
	<g>
		<path style="fill-rule:evenodd;clip-rule:evenodd;fill:#F8CC77;" d="M165.8,100.05c-0.033,1-0.2,1.967-0.5,2.9l1.2-0.601
			c0.934-0.133,1.75,0.4,2.45,1.601s0.75,2.816,0.149,4.85c-0.3,1-0.666,1.884-1.1,2.65h1.25c0.9,0.233,1.45,0.95,1.65,2.149
			c0.199,1.2-0.067,2.45-0.801,3.75l-1.149,1.601l1.899,1.7c1.334,1.433,2.15,2.966,2.45,4.6c0.3,1.6-0.25,2.967-1.649,4.1l-2.2,1.2
			l0.8,1.7c0.533,1.467,0.9,3,1.1,4.6c0.2,1.601-0.5,3.617-2.1,6.051l-2.5,3.149l1,0.95c0.6,0.967,0.75,2.267,0.45,3.9
			c-0.3,1.6-1.316,2.649-3.05,3.149l-2.5,0.25l0.149,2c-0.033,1.566-0.399,2.917-1.1,4.05c-0.7,1.101-2.25,1.784-4.65,2.051
			l-3.35,0.1L153.1,164c-0.666,1.066-1.6,1.866-2.8,2.4c-1.2,0.5-2.899,0.133-5.1-1.101l-2.9-2.05l-1.45,1.6
			c-1.267,1-2.55,1.351-3.85,1.051c-1.3-0.301-2.066-1.567-2.3-3.801l0.1-3.199c-0.434,0.066-0.899-0.067-1.399-0.4
			c-1-0.7-1.65-2.1-1.95-4.2c-0.3-2.133-0.233-4.383,0.2-6.75l0.75-2.95c-0.334-0.399-0.634-0.966-0.9-1.699
			c-0.566-1.434-0.75-2.967-0.55-4.601c0.2-1.6,0.899-3.283,2.1-5.05c0.601-0.9,1.184-1.634,1.75-2.2
			c-0.3-0.467-0.583-1.083-0.85-1.85c-0.467-1.533-0.5-3.017-0.101-4.45c0.4-1.4,1.2-2.75,2.4-4.05c0.6-0.634,1.167-1.134,1.7-1.5
			c-0.3-0.4-0.533-0.95-0.7-1.65c-0.267-1.366,0.05-2.767,0.95-4.2c1.467-2.233,2.6-3.6,3.399-4.1c-0.433-0.4-0.8-0.9-1.1-1.5
			c-0.6-1.2-0.55-2.316,0.15-3.35c0.699-1,2.033-1.65,4-1.95c1-0.167,1.916-0.233,2.75-0.2c-0.434-0.634-0.801-1.384-1.101-2.25
			c-0.533-1.7-0.399-3.05,0.4-4.05s1.883-1.217,3.25-0.65c0.666,0.3,1.267,0.684,1.8,1.15l1.25-1.4c1.033-1,1.983-1.583,2.85-1.75
			c1.034-0.2,1.7,0.534,2,2.2c0.167,0.867,0.233,1.733,0.2,2.6L160,96.7c1.533-0.833,2.9-1,4.1-0.5
			C165.3,96.7,165.866,97.983,165.8,100.05z"/>
		<path style="fill-rule:evenodd;clip-rule:evenodd;fill:#9B535C;" d="M165.15,109.5c1.933,6.8,2.433,14.583,1.5,23.35
			c-0.967,9.167-3.233,16.434-6.801,21.801c-4.033,6.133-9.066,8.433-15.1,6.899c-5.967-1.5-9.434-5.783-10.4-12.85
			c-0.8-5.9,0.184-13.167,2.95-21.8c2.4-7.534,5.517-14.334,9.351-20.4c3.767-6,6.716-8.884,8.85-8.65
			C159.866,98.283,163.083,102.167,165.15,109.5z"/>
		<path style="fill-rule:evenodd;clip-rule:evenodd;fill:#60383E;" d="M162.9,113.85c1.133,5.4,1.083,11.7-0.15,18.9
			c-1.267,7.267-3.35,13.217-6.25,17.85c-3.233,5.167-6.85,7.417-10.85,6.75c-3.934-0.666-6.25-3.933-6.95-9.8
			c-0.566-5.066,0.083-11.283,1.95-18.649c1.733-6.9,4.017-12.834,6.85-17.801c3-5.233,5.667-7.633,8-7.199
			C159.167,104.566,161.634,107.884,162.9,113.85z"/>
	</g>
	<g>
		<path style="fill-rule:evenodd;clip-rule:evenodd;fill:#7F474F;" d="M90.2,72.9c-1.6,0-3.117-0.066-4.55-0.2L0,68.5
			c2.967-9.033,8.75-18.6,17.35-28.7C34.517,19.6,57.133,6.867,85.2,1.6c-6.434,3.933-12.3,8.167-17.6,12.7
			c-10.333,8.867-16.333,18.133-18,27.8c-1.1,6.333,5.333,13.367,19.3,21.1C75.9,67.067,83,70.3,90.2,72.9z"/>
	</g>
	<path style="fill-rule:evenodd;clip-rule:evenodd;fill:#C1787D;" d="M157.6,109.3c1.867,1.601,3.134,4.233,3.801,7.9
		c0.6,3.166,0.666,6.483,0.199,9.95c-0.366,2.866-0.949,5.1-1.75,6.699c-0.733,1.467-1.316,1.9-1.75,1.301
		c-0.267-0.334-0.1-1.733,0.5-4.2c0.834-3.566,1.384-6.7,1.65-9.4c0.333-3.333,0-6.366-1-9.1L157.6,109.3z"/>
	<path style="fill-rule:evenodd;clip-rule:evenodd;fill:#C1787D;" d="M116,109.8c1.467,3.167,2.3,7.783,2.5,13.851
		c0.2,5.733-0.1,8.683-0.9,8.85c-0.666,0.134-1.066-0.233-1.199-1.1c-0.134-0.867,0-2.367,0.399-4.5
		c0.334-1.801,0.3-5.184-0.1-10.15L116,109.8z"/>
	<path style="fill-rule:evenodd;clip-rule:evenodd;fill:#C1787D;" d="M75.7,102.1l1.9,5c1.3,3.733,2,6.601,2.1,8.601
		c0.167,2.733,0.05,5.45-0.35,8.149c-0.5,3.034-1.184,4.483-2.05,4.351c-0.7-0.101-0.883-1.084-0.55-2.95
		c0.567-3.233,0.85-5.616,0.85-7.15c0-2.466-0.317-5.866-0.95-10.199L75.7,102.1z"/>
	<g>
		<g>
			<path style="fill-rule:evenodd;clip-rule:evenodd;fill:#7F474F;" d="M91.15,51.85c0.062,0.422,0.345,1.556,0.85,3.4
				c0.067,2.467-1.433,3.683-4.5,3.65c-3.033-0.667-4.067-2.167-3.1-4.5c1.006-1.443,1.631-2.418,1.875-2.925
				c-0.131,0.413-0.406,1.138-0.825,2.175c-0.4,1.934,0.167,3.3,1.7,4.1c1.7,0.667,2.9-0.167,3.6-2.5
				C90.978,53.406,91.111,52.272,91.15,51.85z"/>
		</g>
	</g>
	<g>
		<g>
			<path style="fill-rule:evenodd;clip-rule:evenodd;fill:#7F474F;" d="M93.2,27.65c0.033,0-0.034,0.684-0.2,2.05
				c0.067,1.433,0.667,2.35,1.8,2.75c2.201,0.459,2.851-1.132,1.95-4.775c0.14,0.305,0.573,1.063,1.3,2.275
				c0.567,1.767-0.383,2.85-2.85,3.25c-2.034-0.034-2.967-0.967-2.8-2.8C92.967,28.567,93.233,27.65,93.2,27.65z"/>
		</g>
	</g>
	<g>
		<g>
			<path style="fill-rule:evenodd;clip-rule:evenodd;fill:#7F474F;" d="M71.1,39.55c0.988,0.593,1.655-0.032,2-1.875
				c-0.012,0.157,0.021,0.616,0.1,1.375c-0.133,0.9-0.817,1.217-2.05,0.95c-1-0.467-1.25-1.117-0.75-1.95
				c0.491-0.491,0.791-0.815,0.9-0.975c-0.066,0.135-0.217,0.393-0.45,0.775C70.583,38.55,70.667,39.117,71.1,39.55z"/>
		</g>
	</g>
	<g>
		<g>
			<path style="fill-rule:evenodd;clip-rule:evenodd;fill:#7F474F;" d="M86.7,12.85c0.033,0-0.083,0.217-0.35,0.65
				c-0.2,0.5-0.133,0.9,0.2,1.2c0.267,0.3,0.633,0.2,1.1-0.3c0.233-0.233,0.45-0.5,0.65-0.8c-0.3,1.4-0.883,1.883-1.75,1.45
				c-0.733-0.333-0.917-0.8-0.55-1.4C86.5,13.117,86.733,12.85,86.7,12.85z"/>
		</g>
	</g>
	<g>
		<g>
			<path style="fill-rule:evenodd;clip-rule:evenodd;fill:#7F474F;" d="M116.075,41.3c-0.162,0.244-0.453,0.645-0.875,1.2
				c-0.533,1.133-0.367,2.083,0.5,2.85c1.066,0.6,1.95,0.2,2.649-1.2c0.305-0.639,0.514-1.323,0.625-2.05
				c-0.001,0.336,0.058,1.069,0.176,2.2c-0.2,1.567-1.301,2.184-3.301,1.85c-1.966-0.933-2.449-2.05-1.449-3.35
				C115.259,42.088,115.817,41.588,116.075,41.3z"/>
		</g>
	</g>
	<g>
		<g>
			<path style="fill-rule:evenodd;clip-rule:evenodd;fill:#7F474F;" d="M132.45,64.35c1.066,0.5,1.934-0.067,2.6-1.7l0.7-2.575
				c-0.017,0.16,0.05,1.051,0.2,2.675c-0.2,1.767-1.283,2.567-3.25,2.4c-2.033-0.367-2.8-1.417-2.3-3.15
				c0.784-1.482,1.201-2.315,1.25-2.5c-0.021,0.158-0.188,0.791-0.5,1.9C130.983,62.8,131.417,63.783,132.45,64.35z"/>
		</g>
	</g>
	<g>
		<g>
			<path style="fill-rule:evenodd;clip-rule:evenodd;fill:#7F474F;" d="M131.75,29.35c0.033,0-0.283,0.517-0.95,1.55
				c-0.5,1.2-0.383,2.167,0.351,2.9c1.545,1.25,2.703,0.241,3.475-3.025c-0.015,0.309,0.027,1.101,0.125,2.375
				c-0.267,1.633-1.467,2.117-3.6,1.45c-1.634-0.833-2-1.95-1.101-3.35C131.217,29.983,131.783,29.35,131.75,29.35z"/>
		</g>
	</g>
	<g>
		<g>
			<path style="fill-rule:evenodd;clip-rule:evenodd;fill:#7F474F;" d="M163.225,60.7c-0.076,0.408-0.268,1.308-0.574,2.7
				c-0.134,2.133,0.6,3.567,2.199,4.3c1.767,0.633,3.034-0.317,3.801-2.85c0.28-2.038,0.43-3.288,0.449-3.75
				c0.084,0.462,0.385,1.712,0.9,3.75c0.033,2.667-1.533,4.017-4.7,4.05c-3.066-0.333-4.3-1.85-3.7-4.55
				C162.521,62.41,163.062,61.193,163.225,60.7z"/>
		</g>
	</g>
	<g>
		<g>
			<path style="fill-rule:evenodd;clip-rule:evenodd;fill:#7F474F;" d="M162.95,46.75c0.154-1.573,0.238-2.531,0.25-2.875
				c0.067,0.347,0.351,1.321,0.85,2.925c0.101,2.034-1.116,3.067-3.649,3.1c-2.367-0.3-3.301-1.467-2.801-3.5
				c0.727-1.477,1.151-2.41,1.275-2.8c-0.061,0.319-0.219,1.002-0.475,2.05c-0.134,1.633,0.416,2.75,1.649,3.35
				C161.483,49.467,162.45,48.717,162.95,46.75z"/>
		</g>
	</g>
	<g>
		<g>
			<path style="fill-rule:evenodd;clip-rule:evenodd;fill:#7F474F;" d="M127.95,14.975c-0.121,0.285-0.371,0.776-0.75,1.475
				c-0.434,1.267-0.134,2.233,0.899,2.9c1.134,0.533,2,0.033,2.601-1.5l0.649-2.425c-0.012,0.168,0.055,1.01,0.2,2.525
				c-0.166,1.667-1.25,2.4-3.25,2.2c-2.166-0.7-2.8-1.8-1.899-3.3C127.227,15.936,127.743,15.311,127.95,14.975z"/>
		</g>
	</g>
	<g>
		<g>
			<path style="fill-rule:evenodd;clip-rule:evenodd;fill:#7F474F;" d="M103.95,8.1l0.5,2.45c0.6,1.667,1.533,2.6,2.8,2.8
				c1.233,0.267,2.05-0.684,2.45-2.85c0.2-1.067,0.283-2.183,0.25-3.35c0.033,0,0.316,1.083,0.85,3.25c0.1,2.233-0.9,3.5-3,3.8
				c-2.033,0.433-3.3-0.45-3.8-2.65C103.5,9.417,103.483,8.267,103.95,8.1z"/>
		</g>
	</g>
	<g>
		<g>
			<path style="fill-rule:evenodd;clip-rule:evenodd;fill:#7F474F;" d="M75.45,16.3l-0.15,1.6c0.034,1.1,0.45,1.817,1.25,2.15
				c0.8,0.333,1.45-0.15,1.95-1.45l0.5-2.05l0.15,2.15c-0.167,1.4-0.967,2.05-2.4,1.95c-1.433-0.066-2.083-0.816-1.95-2.25
				L75.45,16.3z"/>
		</g>
	</g>
	<g>
		<g>
			<path style="fill-rule:evenodd;clip-rule:evenodd;fill:#7F474F;" d="M60.8,32.7c-0.367,0.333-0.683,0.716-0.95,1.15
				c-0.5,0.9-0.517,1.683-0.05,2.35c1,1.133,2.133,0.5,3.4-1.9c-0.034,0.733-0.2,1.383-0.5,1.95c-0.567,1.2-1.567,1.4-3,0.6
				c-1.133-0.833-1.284-1.767-0.45-2.8C59.65,33.517,60.167,33.067,60.8,32.7z"/>
		</g>
	</g>
	<g>
		<g>
			<path style="fill-rule:evenodd;clip-rule:evenodd;fill:#7F474F;" d="M105.9,60.25c-0.376,0.456-0.993,1.155-1.85,2.1
				c-1.367,2.167-1.25,4.083,0.35,5.75c2.167,1.566,3.983,0.95,5.45-1.85c0.756-1.382,1.223-2.865,1.4-4.45
				c0.006,0.168,0.072,0.635,0.2,1.4c0.2,1.333,0.233,2.466,0.1,3.4c-0.467,3.167-2.816,4.183-7.05,3.05
				c-3.667-2.2-4.367-4.5-2.1-6.9C104.136,61.606,105.302,60.773,105.9,60.25z"/>
		</g>
	</g>
	<g>
		<g>
			<path style="fill-rule:evenodd;clip-rule:evenodd;fill:#7F474F;" d="M72.6,56.55c0.406-1.318,0.647-2.135,0.725-2.45
				c-0.004,0.331,0.071,1.214,0.225,2.65c-0.233,1.8-1.483,2.517-3.75,2.15c-2.167-0.833-2.767-2.066-1.8-3.7
				c0.934-0.978,1.517-1.645,1.75-2c-0.137,0.297-0.42,0.813-0.85,1.55c-0.5,1.367-0.25,2.45,0.75,3.25
				C70.85,58.667,71.833,58.183,72.6,56.55z"/>
		</g>
	</g>
	<g>
		<g>
			<path style="fill-rule:evenodd;clip-rule:evenodd;fill:#7F474F;" d="M147.75,39.225l0.2,2.275c-0.167,1.533-1.101,2.217-2.8,2.05
				c-1.801-0.333-2.45-1.25-1.95-2.75c0.601-0.97,0.967-1.612,1.1-1.925c-0.068,0.255-0.218,0.73-0.45,1.425
				c-0.199,1.2,0.15,2.05,1.051,2.55c0.933,0.433,1.699-0.05,2.3-1.45C147.553,40.105,147.736,39.38,147.75,39.225z"/>
		</g>
	</g>
	<g>
		<g>
			<path style="fill-rule:evenodd;clip-rule:evenodd;fill:#7F474F;" d="M179.4,70.4c-0.061,0.21-0.21,0.61-0.45,1.2
				c-0.2,1,0.116,1.717,0.95,2.15c1,0.3,1.616-0.167,1.85-1.4c0.089-0.521,0.146-0.937,0.175-1.25
				c0.123,0.286,0.299,0.67,0.525,1.15c0.2,1.267-0.584,1.967-2.351,2.1c-1.666-0.333-2.233-1.117-1.699-2.35
				C178.956,71.189,179.289,70.656,179.4,70.4z"/>
		</g>
	</g>
	<g>
		<g>
			<path style="fill-rule:evenodd;clip-rule:evenodd;fill:#7F474F;" d="M145.325,60.875c-0.254,0.623-0.778,1.731-1.575,3.325
				c-0.9,2.9-0.267,5.083,1.9,6.55c2.433,1.3,4.416,0.233,5.949-3.2c0.886-3.143,1.378-4.926,1.476-5.35
				c0.018,0.215,0.126,0.782,0.325,1.7c0.233,1.5,0.283,2.817,0.149,3.95c-0.5,3.767-3,5.333-7.5,4.7
				c-4.533-1.5-5.883-3.966-4.05-7.4C143.777,63.04,144.886,61.615,145.325,60.875z"/>
		</g>
	</g>
	<g>
		<g>
			<path style="fill-rule:evenodd;clip-rule:evenodd;fill:#7F474F;" d="M129.25,48.85c0.7,0.367,1.283,0.017,1.75-1.05l0.45-1.65
				c-0.019,0.142,0.015,0.708,0.1,1.7c-0.133,1.167-0.85,1.683-2.149,1.55c-1.4-0.333-1.867-1.05-1.4-2.15
				c0.453-0.638,0.745-1.088,0.875-1.35c-0.068,0.212-0.193,0.545-0.375,1C128.333,47.8,128.583,48.45,129.25,48.85z"/>
		</g>
	</g>
	<g>
		<g>
			<path style="fill-rule:evenodd;clip-rule:evenodd;fill:#7F474F;" d="M114.95,23.725c0.131,0.219,0.314,0.527,0.55,0.925
				c0.733,1.167,1.217,2.217,1.45,3.15c0.8,3.2-1,5.083-5.4,5.65c-4.133-0.467-5.716-2.3-4.75-5.5c1.109-1.983,1.8-3.333,2.075-4.05
				c-0.125,0.576-0.383,1.56-0.775,2.95c-0.3,2.6,0.617,4.333,2.75,5.2c2.6,0.6,4.067-0.716,4.4-3.95
				c0.1-1.067,0.066-2.184-0.1-3.35C115.08,24.305,115.014,23.964,114.95,23.725z"/>
		</g>
	</g>
	<g>
		<g>
			<path style="fill-rule:evenodd;clip-rule:evenodd;fill:#7F474F;" d="M94.35,10.35c-1-0.467-1.25-1.1-0.75-1.9
				c0.556-0.583,0.873-0.941,0.95-1.075c-0.048,0.117-0.215,0.409-0.5,0.875c-0.267,0.7-0.167,1.25,0.3,1.65
				c0.923,0.626,1.573,0.01,1.95-1.85c-0.012,0.16,0.021,0.61,0.1,1.35C96.267,10.333,95.583,10.65,94.35,10.35z"/>
		</g>
	</g>
	<g>
		<g>
			<path style="fill-rule:evenodd;clip-rule:evenodd;fill:#7F474F;" d="M174.3,54.7l-0.05,0.7c0,0.533,0.184,0.867,0.55,1
				c0.566,0.233,0.934-0.3,1.101-1.6l0.1,0.95c-0.1,0.633-0.467,0.933-1.1,0.9c-0.667-0.033-0.967-0.367-0.9-1L174.3,54.7z"/>
		</g>
	</g>
	<g>
		<g>
			<path style="fill-rule:evenodd;clip-rule:evenodd;fill:#7F474F;" d="M144.05,23.575c-0.134,0.193-0.317,0.435-0.55,0.725
				c-0.533,0.934-0.366,1.7,0.5,2.3c0.9,0.4,1.6,0,2.1-1.2l0.5-1.875c-0.013,0.145,0.054,0.803,0.2,1.975
				c-0.166,1.3-1.033,1.867-2.6,1.7c-1.934-0.833-2.4-1.75-1.4-2.75C143.369,24.095,143.785,23.803,144.05,23.575z"/>
		</g>
	</g>
	<g>
		<g>
			<path style="fill-rule:evenodd;clip-rule:evenodd;fill:#60383E;" d="M20.05,57.65c0.166-1.361,0.45-2.044,0.85-2.05
				c-0.2,0.008-0.317,0.508-0.35,1.5c-0.033,1.1,0.2,1.883,0.7,2.35c0.3,0.433,1.017,0.267,2.15-0.5c1.1-0.833,1.667-1.233,1.7-1.2
				c-1.5,2.233-2.8,3.017-3.9,2.35C20.267,59.833,19.883,59.017,20.05,57.65z"/>
		</g>
	</g>
	<g>
		<g>
			<path style="fill-rule:evenodd;clip-rule:evenodd;fill:#60383E;" d="M39.075,39.125c0.1,1.167-0.025,2.275-0.375,3.325
				c-0.7,2.2-2.534,2.617-5.5,1.25c-2.4-2.4-2.534-4.167-0.4-5.3c0.5-0.267,1.317-0.566,2.45-0.9l0.05-0.025
				c-0.418,0.294-0.835,0.619-1.25,0.975c-1.4,1.267-1.633,2.65-0.7,4.15c1.4,1.433,2.8,1.233,4.2-0.6
				c0.434-0.567,0.833-1.25,1.2-2.05C38.919,39.556,39.027,39.281,39.075,39.125z"/>
		</g>
	</g>
	<g>
		<g>
			<path style="fill-rule:evenodd;clip-rule:evenodd;fill:#60383E;" d="M46.15,59.1c-0.067,0.506-0.15,1.206-0.25,2.1
				c-0.7,1.9-2.25,2.283-4.65,1.15c-1.933-1.333-2.2-2.783-0.8-4.35c1.282-0.937,2.065-1.537,2.35-1.8
				c-0.199,0.238-0.648,0.755-1.35,1.55c-0.833,1.367-0.85,2.583-0.05,3.65c1.067,1.1,2.233,0.883,3.5-0.65
				C45.457,60.069,45.874,59.519,46.15,59.1c0.081-0.672,0.131-0.988,0.15-0.95C46.656,58.087,46.606,58.404,46.15,59.1z"/>
		</g>
	</g>
	<g>
		<g>
			<path style="fill-rule:evenodd;clip-rule:evenodd;fill:#60383E;" d="M49.9,19.35c-0.5,0.967-0.417,1.783,0.25,2.45
				c0.7,0.633,1.483,0.434,2.35-0.6c0.433-0.534,0.8-1.117,1.1-1.75c-0.033,0.733-0.2,1.4-0.5,2c-0.6,1.267-1.583,1.617-2.95,1.05
				c-1.5-0.8-1.816-1.75-0.95-2.85c0.758-0.628,1.25-1.07,1.475-1.325C50.531,18.537,50.273,18.879,49.9,19.35z"/>
		</g>
	</g>
	<g>
		<g>
			<path style="fill-rule:evenodd;clip-rule:evenodd;fill:#60383E;" d="M20.075,46.35c-0.153,0.063-0.412,0.146-0.775,0.25
				c-0.667,0.333-0.9,0.85-0.7,1.55c0.433,0.7,1,0.767,1.7,0.2c0.447-0.469,0.738-0.777,0.875-0.925
				c-0.086,0.183-0.228,0.591-0.425,1.225c-0.533,0.8-1.3,0.783-2.3-0.05c-0.7-1.167-0.583-1.883,0.35-2.15
				C19.431,46.43,19.856,46.397,20.075,46.35z"/>
		</g>
	</g>
	<g>
		<g>
			<path style="fill-rule:evenodd;clip-rule:evenodd;fill:#60383E;" d="M10.55,59.625c-0.113,0.182-0.363,0.524-0.75,1.025
				c-0.433,0.833-0.35,1.55,0.25,2.15c1.258,0.927,2.125,0.144,2.6-2.35c-0.008,0.174,0.042,0.774,0.15,1.8
				c-0.2,1.2-1.117,1.6-2.75,1.2c-1.333-0.733-1.617-1.6-0.85-2.6C9.93,60.238,10.38,59.83,10.55,59.625z"/>
		</g>
	</g>
	<g>
		<g>
			<path style="fill-rule:evenodd;clip-rule:evenodd;fill:#60383E;" d="M41.4,25.15c-0.3,0.233-0.583,0.5-0.85,0.8
				c-0.5,0.667-0.55,1.3-0.15,1.9c0.833,0.9,1.733,0.383,2.7-1.55c0,0.567-0.117,1.083-0.35,1.55c-0.467,0.9-1.267,1.066-2.4,0.5
				c-1.033-0.833-1.15-1.6-0.35-2.3C40.4,25.683,40.867,25.383,41.4,25.15z"/>
		</g>
	</g>
	<g>
		<g>
			<path style="fill-rule:evenodd;clip-rule:evenodd;fill:#60383E;" d="M60.9,10.05c-0.133,0-0.066,0.467,0.2,1.4
				c0.3,1,0.75,1.6,1.35,1.8c0.433,0.3,1-0.083,1.7-1.15c0.333-0.533,0.65-1.117,0.95-1.75c-0.333,2.566-1.15,3.717-2.45,3.45
				c-0.933,0.067-1.55-0.533-1.85-1.8C60.533,10.733,60.567,10.083,60.9,10.05z"/>
		</g>
	</g>
	<g>
		<g>
			<path style="fill-rule:evenodd;clip-rule:evenodd;fill:#9B535C;" d="M202.05,67.25c-0.072,0.338-0.223,0.905-0.45,1.7
				c-0.199,1.566,0.334,2.617,1.601,3.15c1.533,0.367,2.416-0.417,2.649-2.35c0.088-0.77,0.139-1.386,0.15-1.85
				c-0.328-0.687-0.461-1.021-0.4-1c0.291-0.29,0.424,0.043,0.4,1c0.206,0.425,0.489,0.992,0.85,1.7
				c0.467,1.9-0.616,3.017-3.25,3.35c-2.5-0.3-3.433-1.417-2.8-3.35C201.464,68.458,201.881,67.675,202.05,67.25z"/>
		</g>
	</g>
	<g>
		<g>
			<path style="fill-rule:evenodd;clip-rule:evenodd;fill:#9B535C;" d="M189.9,53.9l-0.051,0.7c0,0.533,0.184,0.867,0.551,1
				c0.566,0.233,0.933-0.3,1.1-1.6l0.1,0.95c-0.1,0.667-0.466,0.983-1.1,0.95c-0.667-0.033-0.967-0.383-0.9-1.05L189.9,53.9z"/>
		</g>
	</g>
	<g>
		<g>
			<path style="fill-rule:evenodd;clip-rule:evenodd;fill:#9B535C;" d="M184.875,43.9c-0.068,0.212-0.193,0.545-0.375,1
				c-0.167,0.9,0.083,1.55,0.75,1.95c0.7,0.367,1.283,0.017,1.75-1.05l0.45-1.65c-0.019,0.142,0.015,0.708,0.1,1.7
				c-0.133,1.167-0.85,1.683-2.149,1.55c-1.4-0.333-1.867-1.05-1.4-2.15C184.453,44.612,184.745,44.162,184.875,43.9z"/>
		</g>
	</g>
	<g>
		<g>
			<path style="fill-rule:evenodd;clip-rule:evenodd;fill:#9B535C;" d="M197.1,57.5l-0.05,0.7c0,0.533,0.184,0.867,0.55,1
				c0.567,0.233,0.934-0.3,1.101-1.6l0.1,0.95c-0.1,0.633-0.467,0.934-1.1,0.9c-0.667-0.034-0.967-0.367-0.9-1L197.1,57.5z"/>
		</g>
	</g>
	<polygon style="fill-rule:evenodd;clip-rule:evenodd;fill:#8A4C54;" points="165.1,192.1 24.65,184.85 27.2,175.7 164.8,188.1 	"/>
	<g>
		<g>
			<path style="fill-rule:evenodd;clip-rule:evenodd;fill:#7F474F;" d="M34.95,172.25c-1.567-1.833-1.633-2.967-0.2-3.4
				c0.752-0.058,1.319-0.124,1.7-0.199c-0.231,0.095-0.531,0.211-0.9,0.35c-1,0.634-1.183,1.467-0.55,2.5
				c1.067,0.866,1.95,0.684,2.65-0.55c0.279-0.838,0.462-1.412,0.55-1.726c0.01,0.337,0.076,0.979,0.2,1.926
				C38.167,172.55,37.017,172.917,34.95,172.25z"/>
		</g>
	</g>
	<g>
		<g>
			<path style="fill-rule:evenodd;clip-rule:evenodd;fill:#7F474F;" d="M56.85,175.2c-0.967-0.334-1.25-0.851-0.85-1.55
				c0.37-0.391,0.603-0.666,0.7-0.825c-0.047,0.131-0.147,0.339-0.3,0.625c-0.2,0.566-0.083,1.017,0.35,1.35
				c0.782,0.424,1.29-0.143,1.525-1.7c0.003,0.175,0.028,0.541,0.075,1.101C58.25,174.967,57.75,175.3,56.85,175.2z"/>
		</g>
	</g>
	<g>
		<g>
			<path style="fill-rule:evenodd;clip-rule:evenodd;fill:#7F474F;" d="M49.9,169.5c-0.566,1.5-1.7,1.967-3.4,1.4
				c-1.7-0.767-2.133-1.867-1.3-3.301c1.045-1.103,1.612-1.736,1.7-1.899c-0.056,0.146-0.356,0.662-0.9,1.55
				c-0.5,1.167-0.35,2.116,0.45,2.85c0.867,0.7,1.767,0.4,2.7-0.899l1.15-2.101L49.9,169.5z"/>
		</g>
	</g>
	<g>
		<g>
			<path style="fill-rule:evenodd;clip-rule:evenodd;fill:#7F474F;" d="M77.5,177.55c0.013,0.276,0.046,0.644,0.1,1.101
				c-0.167,1.1-1.017,1.449-2.55,1.05c-1.3-0.867-1.517-1.684-0.65-2.45c0.595-0.324,1.012-0.574,1.25-0.75
				c-0.147,0.145-0.364,0.345-0.65,0.6c-0.533,0.7-0.517,1.384,0.05,2.051c0.767,0.533,1.417,0.316,1.95-0.65
				C77.214,178.114,77.381,177.798,77.5,177.55z"/>
		</g>
	</g>
	<g>
		<g>
			<path style="fill-rule:evenodd;clip-rule:evenodd;fill:#7F474F;" d="M131.775,176.8c0.039,0.453,0.098,1.103,0.175,1.95
				c-0.233,1.767-1.417,2.5-3.55,2.2c-1.934-0.5-2.601-1.617-2-3.351c0.865-1.414,1.332-2.23,1.399-2.449
				c-0.036,0.189-0.253,0.823-0.649,1.899c-0.233,1.4,0.133,2.417,1.1,3.05c1.1,0.601,2.033,0.101,2.8-1.5
				C131.407,177.825,131.649,177.226,131.775,176.8z"/>
		</g>
	</g>
	<g>
		<g>
			<path style="fill-rule:evenodd;clip-rule:evenodd;fill:#7F474F;" d="M104.45,179.6c0.1-1.428,0.316-2.144,0.65-2.149
				c-0.167,0.008-0.233,0.541-0.2,1.6c0.067,1.167,0.45,1.934,1.15,2.3c0.434,0.334,1.117-0.017,2.05-1.05l1.5-1.6
				c-1.067,2.533-2.2,3.633-3.4,3.3C104.9,181.866,104.317,181.066,104.45,179.6z"/>
		</g>
	</g>
	<g>
		<g>
			<path style="fill-rule:evenodd;clip-rule:evenodd;fill:#7F474F;" d="M155.85,182.2c0.222-0.762,0.354-1.245,0.4-1.45
				c0.004,0.21,0.055,0.71,0.15,1.5c-0.134,1.066-0.884,1.483-2.25,1.25c-1.301-0.6-1.617-1.35-0.95-2.25
				c0.459-0.377,0.792-0.669,1-0.875c-0.123,0.169-0.29,0.395-0.5,0.675c-0.367,0.767-0.25,1.4,0.35,1.9
				C154.816,183.384,155.417,183.134,155.85,182.2z"/>
		</g>
	</g>
	<g>
		<g>
			<path style="fill-rule:evenodd;clip-rule:evenodd;fill:#7F474F;" d="M91.125,171.425c-0.195,0.154-0.454,0.346-0.775,0.575
				c-0.8,0.866-0.817,1.733-0.05,2.6c1.034,0.733,1.883,0.467,2.55-0.8c0.31-1,0.501-1.633,0.575-1.899
				c-0.001,0.281,0.057,0.965,0.175,2.05c-0.2,1.434-1.283,1.899-3.25,1.399c-1.8-1.399-2.05-2.5-0.75-3.3
				C90.282,171.804,90.79,171.595,91.125,171.425z"/>
		</g>
	</g>
	<g>
		<g>
			<path style="fill-rule:evenodd;clip-rule:evenodd;fill:#60383E;" d="M14.15,171.65c-1.333-1.434-1.383-2.517-0.15-3.25
				c0.896-0.253,1.503-0.453,1.825-0.601c-0.211,0.146-0.553,0.363-1.025,0.65c-0.833,0.733-1,1.566-0.5,2.5
				c1.177,1.34,2.352,0.724,3.525-1.851c-0.064,0.283-0.156,0.949-0.275,2C17.017,172.366,15.883,172.55,14.15,171.65z"/>
		</g>
	</g>
	<g>
		<g>
			<path style="fill-rule:evenodd;clip-rule:evenodd;fill:#60383E;" d="M23.5,164.75c-0.161,0.119-0.461,0.302-0.9,0.55
				c-0.667,0.601-0.817,1.267-0.45,2c0.6,0.733,1.283,0.7,2.05-0.1c0.471-0.66,0.771-1.085,0.9-1.275
				c-0.074,0.218-0.19,0.726-0.35,1.525c-0.5,1.033-1.417,1.149-2.75,0.35c-1-1.133-1-1.983,0-2.55
				C22.77,165.036,23.27,164.869,23.5,164.75z"/>
		</g>
	</g>
</g>
</svg>
