<?xml version="1.0" encoding="iso-8859-1"?>
<!-- Generator: Adobe Illustrator 15.1.0, SVG Export Plug-In . SVG Version: 6.00 Build 0)  -->
<!DOCTYPE svg PUBLIC "-//W3C//DTD SVG 1.1//EN" "http://www.w3.org/Graphics/SVG/1.1/DTD/svg11.dtd">
<svg version="1.1" id="tower_x5F_red_x5F_mid_x5F_02.ai"
	 xmlns="http://www.w3.org/2000/svg" xmlns:xlink="http://www.w3.org/1999/xlink" x="0px" y="0px" width="71.8px" height="84.45px"
	 viewBox="0 0 71.8 84.45" style="enable-background:new 0 0 71.8 84.45;" xml:space="preserve">
<g>
	
		<linearGradient id="SVGID_1_" gradientUnits="userSpaceOnUse" x1="50.9063" y1="42.2217" x2="67.9842" y2="42.2217" gradientTransform="matrix(0.9881 0.1537 -0.1537 0.9881 -1.925975e-004 -4.657954e-004)">
		<stop  offset="0" style="stop-color:#C5988D"/>
		<stop  offset="1" style="stop-color:#D2B3AA"/>
	</linearGradient>
	<polygon style="fill-rule:evenodd;clip-rule:evenodd;fill:url(#SVGID_1_);" points="58.9,17.3 66.45,20.75 59.3,55.1 51.85,58.8 
		52.8,84.45 41.65,83.8 38.8,44.15 	"/>
	<g>
		<polygon style="fill-rule:evenodd;clip-rule:evenodd;fill:#BD877C;" points="42.3,69.4 42.45,68.3 52.2,69.6 52.25,70.7 		"/>
		<polygon style="fill-rule:evenodd;clip-rule:evenodd;fill:#BD877C;" points="53.55,45.65 53.9,44.55 61,46.85 60.8,47.95 		"/>
		<polygon style="fill-rule:evenodd;clip-rule:evenodd;fill:#BD877C;" points="42.55,56.75 42.9,55.7 51.85,58.9 51.9,60.1 		"/>
		<polygon style="fill-rule:evenodd;clip-rule:evenodd;fill:#BD877C;" points="56.95,28.4 57,27.3 64.95,27.85 64.75,29 		"/>
		<polygon style="fill-rule:evenodd;clip-rule:evenodd;fill:#BD877C;" points="55.4,36.05 55.55,34.95 63.2,36.25 63,37.35 		"/>
	</g>
	<polygon style="fill-rule:evenodd;clip-rule:evenodd;fill:#BD877C;" points="58.4,20.55 58.8,18.5 63.5,16.35 66.45,20.75 66,22.4 
			"/>
	
		<linearGradient id="SVGID_2_" gradientUnits="userSpaceOnUse" x1="10.2778" y1="44.0713" x2="55.8075" y2="44.0713" gradientTransform="matrix(0.9966 0.0824 -0.0824 0.9966 -1.429096e-004 -1.789778e-004)">
		<stop  offset="0" style="stop-color:#A8655C"/>
		<stop  offset="1" style="stop-color:#C08E82"/>
	</linearGradient>
	<path style="fill-rule:evenodd;clip-rule:evenodd;fill:url(#SVGID_2_);" d="M35,12.45c5.233-0.034,13.55,0.183,24.95,0.65
		l-7.4,37.2l-9.45,2.05L41.85,83.8L4.6,80.35L9.65,8.9C22.283,11.3,30.733,12.483,35,12.45z"/>
	<g>
		<path style="fill-rule:evenodd;clip-rule:evenodd;fill:#9E5E56;" d="M42.7,44.55l0.399-9.4l-27.45-1.7l-1.25,9.3l17.75,1.8H42.7z
			 M44.15,15.9L45.3,16L44.4,25.7l12.649,1.6L56.9,28.35v0.05L33.05,25.45l-0.8,7.9L55.5,34.9l-0.1,1.15l-11.2-0.8l-0.4,9.3h9.9
			l-0.2,1.101L31.25,45.6l-1.3,8.351L42.8,55.7l-0.149,1.1L18.8,53.55l-4.8-0.2l-1,11.5l6.5-0.3l22.95,3.75l-0.2,1.101L26.2,66.8
			l-1.15,15.4L23.9,82.1l1.2-15.5l-5.65-0.949L5.4,66.35l0.1-1.1l6.35-0.35L12.9,53.35L6.4,53.1L6.45,52l12.4,0.4l10,1.399
			l1.25-8.35l-23-2.3L7.2,42l6.1,0.65l1.2-9.3l-6.65-0.4l0.1-1.1L31.1,33.3l0.8-7.95L8.55,23.5l0.1-1.15l8.45,0.7l0.65-9.65
			l1.1,0.05L18.2,23.1l16.2,1.3l8.9,1.15L44.15,15.9z"/>
	</g>
	<polygon style="fill-rule:evenodd;clip-rule:evenodd;fill:#93554E;" points="58.8,18.5 58.4,20.55 9.1,17 9.3,14 27.85,12.3 	"/>
	<path style="fill-rule:evenodd;clip-rule:evenodd;fill:#CB9878;" d="M23.75,19.85l0.65-0.7c0.633-0.467,1.5-0.65,2.6-0.55
		c0.8,0.1,1.417,0.517,1.85,1.25l1.1-0.45c0.833-0.3,1.517-0.4,2.05-0.3c0.833,0.167,1.117,0.917,0.85,2.25l0.45,0.4
		c0.333,0.367,0.517,0.817,0.55,1.35c0.1,0.833-0.567,1.75-2,2.75l0.6,0.95c0.333,0.8,0.35,1.617,0.05,2.45s-0.6,1.317-0.9,1.45
		l-0.35-0.1L32,31.9c0.433,0.967,0.467,1.783,0.1,2.45c-0.567,1.1-1.067,1.517-1.5,1.25l0.65,1.05c0.367,0.833,0.45,1.533,0.25,2.1
		c-0.333,0.9-0.717,1.267-1.15,1.1C29.783,41.95,29.033,43,28.1,43c-0.567,0-1.117-0.117-1.65-0.35l-0.6-0.4l-0.8,0.8
		c-0.667,0.5-1.4,0.733-2.2,0.7c-0.767-0.066-1.383-0.25-1.85-0.55l-0.5-0.45l-0.6,0.95c-0.5,0.633-1.1,0.899-1.8,0.8
		c-0.667-0.1-1.15-0.316-1.45-0.65l-0.3-0.5c-0.333,0.067-0.7,0.067-1.1,0C14.517,43.217,14.1,42.8,14,42.1
		c-0.1-0.667,0.167-1.233,0.8-1.7l0.95-0.55c-0.5-1.333-0.5-2.5,0-3.5c0.3-0.633,0.7-0.95,1.2-0.95c0.267,0,0.483,0.067,0.65,0.2
		c-0.833-1.167-1.083-2.25-0.75-3.25c0.2-0.633,0.433-1.133,0.7-1.5l0.3-0.35c-0.233-0.1-0.45-0.267-0.65-0.5
		c-0.367-0.5-0.483-1.083-0.35-1.75c0.167-0.7,0.583-1.2,1.25-1.5L19,26.5c-0.833-1.667-1-2.8-0.5-3.4c0.5-0.567,1.167-0.85,2-0.85
		c-0.2-0.367-0.333-0.733-0.4-1.1c-0.133-0.8,0.083-1.267,0.65-1.4C21.65,19.483,22.65,19.517,23.75,19.85z"/>
	<path style="fill-rule:evenodd;clip-rule:evenodd;fill:#CB9878;" d="M36.6,53.9c0.801-0.101,1.384-0.034,1.75,0.199
		c0.601,0.434,0.851,1.267,0.75,2.5h0.45c0.3,0.134,0.45,0.434,0.45,0.9c0,0.733-0.634,1.434-1.9,2.1l0.5,0.351
		c0.301,0.399,0.434,1.033,0.4,1.899c-0.066,0.9-0.417,1.584-1.05,2.051c-0.334,0.233-0.65,0.383-0.95,0.449l0.65,0.351
		c0.399,0.333,0.6,0.767,0.6,1.3c0,0.833-0.55,1.45-1.65,1.85L37.2,68.2c0.366,0.399,0.416,1,0.149,1.8
		c-0.399,1.233-0.899,1.816-1.5,1.75l0.5,0.6c0.267,0.5,0.267,1.084,0,1.75c-0.233,0.7-0.6,1.067-1.1,1.101L34.6,75.1
		c-0.4,1.101-1.067,1.9-2,2.4c-0.567,0.3-1.283,0.1-2.15-0.6l-1.1-1.15c-0.733,0.667-1.6,1.083-2.6,1.25
		c-0.633,0.1-1.15-0.167-1.55-0.8l-0.45-0.95c-0.767,0.733-1.567,1.1-2.4,1.1c-0.533,0-0.867-0.383-1-1.149l-0.1-1.2
		c-0.333-1-0.333-2,0-3c0.2-0.634,0.517-1.184,0.95-1.65l0.55-0.5c-0.667-0.333-0.967-0.916-0.9-1.75c0.066-0.533,0.4-1.199,1-2
		l0.9-1.1c-0.767-0.767-1.067-1.483-0.9-2.15c0.1-0.399,0.45-0.816,1.05-1.25l0.85-0.5c-1.1-0.833-1.517-1.616-1.25-2.35
		c0.133-0.467,0.6-0.816,1.4-1.05c0.367-0.101,0.733-0.167,1.1-0.2c-0.267-0.833-0.183-1.634,0.25-2.4
		c0.267-0.466,0.767-0.666,1.5-0.6c0.367,0.033,0.7,0.116,1,0.25c0-0.233,0.083-0.467,0.25-0.7c0.3-0.467,0.883-0.649,1.75-0.55
		c0.733,0.066,1.267,0.483,1.6,1.25c0.1-0.333,0.233-0.634,0.4-0.9c0.367-0.533,0.817-0.649,1.35-0.35c0.833,0.5,1.3,1.033,1.4,1.6
		L36.6,53.9z"/>
	<polygon style="fill-rule:evenodd;clip-rule:evenodd;fill:#A35855;" points="21.5,21.1 31.6,20.75 29.35,40.6 15.85,42.5 	"/>
	<polygon style="fill-rule:evenodd;clip-rule:evenodd;fill:#A35855;" points="27.5,54.5 37.6,56.15 33.65,75.1 21.85,74.15 	"/>
	<polygon style="fill-rule:evenodd;clip-rule:evenodd;fill:#A35855;" points="61.8,7.55 60.9,18.85 0,13.1 5.4,0 	"/>
	<polygon style="fill-rule:evenodd;clip-rule:evenodd;fill:#714240;" points="23.45,22.9 29.95,22 27.85,38.95 18.45,40.3 	"/>
	<polygon style="fill-rule:evenodd;clip-rule:evenodd;fill:#714240;" points="29.25,56.2 35.65,56.7 32.1,73.55 24.3,72.9 	"/>
	<polygon style="fill-rule:evenodd;clip-rule:evenodd;fill:#AD6862;" points="61.8,7.55 71.8,16.2 70.55,22.55 60.9,18.85 	"/>
	<polygon style="fill-rule:evenodd;clip-rule:evenodd;fill:#B07A6F;" points="59.3,55.1 51.85,58.8 43.1,52.35 52.55,50.3 	"/>
	<path style="fill-rule:evenodd;clip-rule:evenodd;fill:#B87F74;" d="M34.075,60c0.268-1.112,0.159-1.862-0.325-2.25
		c-0.2-0.134-0.5-0.283-0.9-0.45l-0.6-0.2l2.55,0.2L34.075,60z"/>
	<path style="fill-rule:evenodd;clip-rule:evenodd;fill:#B87F74;" d="M26.8,23.1l2.25-0.5l-0.65,4.05c0-1.633-0.117-2.633-0.35-3
		c-0.167-0.233-0.417-0.4-0.75-0.5L26.8,23.1z"/>
</g>
</svg>
