<?xml version="1.0" encoding="iso-8859-1"?>
<!-- Generator: Adobe Illustrator 15.1.0, SVG Export Plug-In . SVG Version: 6.00 Build 0)  -->
<!DOCTYPE svg PUBLIC "-//W3C//DTD SVG 1.1//EN" "http://www.w3.org/Graphics/SVG/1.1/DTD/svg11.dtd">
<svg version="1.1" id="tower_x5F_orange_x5F_head_x5F_front_x5F_01.ai"
	 xmlns="http://www.w3.org/2000/svg" xmlns:xlink="http://www.w3.org/1999/xlink" x="0px" y="0px" width="205.45px" height="190px"
	 viewBox="0 0 205.45 190" style="enable-background:new 0 0 205.45 190;" xml:space="preserve">
<g>
	
		<linearGradient id="SVGID_1_" gradientUnits="userSpaceOnUse" x1="141.0801" y1="96.8184" x2="176.4852" y2="96.8184" gradientTransform="matrix(0.9999 -0.0169 0.0169 0.9999 -4.799869e-004 -5.001202e-005)">
		<stop  offset="0" style="stop-color:#EBC8AA"/>
		<stop  offset="1" style="stop-color:#F2DDC9"/>
	</linearGradient>
	<polygon style="fill-rule:evenodd;clip-rule:evenodd;fill:url(#SVGID_1_);" points="167.25,41.55 197.4,41.55 123.05,146.75 
		110.95,147.4 	"/>
	<g>
		<polygon style="fill-rule:evenodd;clip-rule:evenodd;fill:#CB9A74;" points="127.45,121.5 127.5,120.15 141.45,120.7 140.55,122 
					"/>
		<polygon style="fill-rule:evenodd;clip-rule:evenodd;fill:#CB9A74;" points="133.1,132.55 132.15,133.85 120.75,133.1 
			120.85,131.8 		"/>
		<polygon style="fill-rule:evenodd;clip-rule:evenodd;fill:#CB9A74;" points="176.7,41.55 178.05,41.55 175.45,55.65 188.1,54.7 
			187.1,56.15 160.15,58.1 160.05,56.75 174.05,55.75 		"/>
		<polygon style="fill-rule:evenodd;clip-rule:evenodd;fill:#CB9A74;" points="180.05,66.15 179,67.55 167.45,68.6 162.9,87.1 
			165.25,87.05 164.3,88.4 162.6,88.45 162.55,88.6 161.9,88.45 144.5,88.9 144.45,87.55 161.55,87.15 166.05,68.7 154.8,69.7 
			154.7,68.35 		"/>
		<polygon style="fill-rule:evenodd;clip-rule:evenodd;fill:#CB9A74;" points="135.55,105.9 135.55,104.55 152.85,104.55 
			151.95,105.9 		"/>
	</g>
	
		<linearGradient id="SVGID_2_" gradientUnits="userSpaceOnUse" x1="-158.3013" y1="-85.3105" x2="-59.1421" y2="-85.3105" gradientTransform="matrix(-0.9999 -0.0136 0.0136 -0.9999 -1.324164e-004 -4.751906e-004)">
		<stop  offset="0" style="stop-color:#E4B48B"/>
		<stop  offset="1" style="stop-color:#D27948"/>
	</linearGradient>
	<polygon style="fill-rule:evenodd;clip-rule:evenodd;fill:url(#SVGID_2_);" points="61.65,129.45 62.75,29.3 170.65,38.1 
		114.5,143.75 	"/>
	<g>
		<path style="fill-rule:evenodd;clip-rule:evenodd;fill:#BD7B54;" d="M70.6,79.3l-2.1,15.25l56.4,8.4l3.35-16.15L70.6,79.3z
			 M144.4,87.55l-0.7,1.25l-14.15-1.85l-3.35,16.2l9.149,1.35l-0.649,1.25l-72.65-10.8V93.6l5.15,0.75l2.1-15.2l-7.05-0.95v-1.35
			L144.4,87.55z"/>
		<path style="fill-rule:evenodd;clip-rule:evenodd;fill:#BD7B54;" d="M61.75,122.2v-1.351l5.05,0.95l0.9-10.649l-5.8-1v-1.4
			l65.2,11.35l-0.649,1.25l-3.65-0.649l-2.6,10.95l0.7,0.149l-0.7,1.25L89.75,127.4l-1.15,9.35l-1.3-0.35l1.1-9.25L61.75,122.2z
			 M69.05,111.35l-0.9,10.7l50.75,9.351l2.55-10.95L69.05,111.35z"/>
		<path style="fill-rule:evenodd;clip-rule:evenodd;fill:#BD7B54;" d="M121.25,57.2L88.5,53.6l-17.15-3.65L70.2,63.2l63.8,5.35
			l0.9-0.05l1.449-10.95L121.25,57.2z M100.6,34.45l1.35,0.15l-1.7,18.95l21.05,2.3l38.8,0.9v1.2l-0.05,0.15l-22.35-0.55
			l-1.45,10.95l18.3-0.15l-0.7,1.35l-19.899,0.15l-71.55-6V62.5l6.45,0.55L70,49.65l-7.45-1.6l0.05-1.35l26.15,5.6l10.2,1.1
			L100.6,34.45z"/>
	</g>
	<polygon style="fill-rule:evenodd;clip-rule:evenodd;fill:#B36940;" points="71.3,175.7 73.8,161.1 91.95,155.9 102.7,177.9 
		99.6,181.25 91.1,166.9 	"/>
	<path style="fill-rule:evenodd;clip-rule:evenodd;fill:#9B535C;" d="M173.8,174.2c8,1,15.384,1.5,22.15,1.5
		c-2.733,2.033-6.084,3.916-10.05,5.649c-7.867,3.467-14.784,4.517-20.75,3.15c-5.967-1.366-13.267-3.434-21.9-6.2l-11.15-3.7
		l7.75,14.301l-29.75-15.4L107.9,190l-16.5-25.3L69.35,174.6L76,162.5l-27.55,8.8l9.9-13.2H0c17.733-5.566,28.75-9.25,33.05-11.05
		c7.8-3.2,14.9-7.1,21.3-11.7l7.3-5.899l55.8,9.25l6.35,7.899c5.467,6.301,11.184,11.967,17.15,17
		C146.917,168.634,157.866,172.167,173.8,174.2z"/>
	<path style="fill-rule:evenodd;clip-rule:evenodd;fill:#F8CC77;" d="M82.65,58.15l0.35-0.7c1.2-3.567,5.917-5.383,14.15-5.45
		c4.133-0.033,8.133,0.283,12,0.95l12.199,6.95c8.167,4.867,12.351,7.967,12.551,9.3c0.199,1.3-0.184,2.617-1.15,3.95l-1.5,1.55
		l1.5,1.9c0.9,1.467,1.066,2.8,0.5,4c-0.566,1.2-1.566,2-3,2.4l-2,0.25l0.95,2.05c0.6,1.567,0.717,2.95,0.35,4.15
		c-0.333,1.2-1.467,2.5-3.399,3.9l-2.801,1.8l-0.1,2.55c-0.233,1.866-0.7,3.25-1.4,4.149c-0.699,0.934-1.767,1.634-3.199,2.101
		l-2,0.399l0.149,1.851c-0.133,1.434-0.783,2.666-1.95,3.7c-1.199,1.033-3.017,1.649-5.449,1.85H106.1
		c-0.633,0.833-1.416,1.667-2.35,2.5c-1.867,1.667-3.533,2.5-5,2.5s-2.883-0.417-4.25-1.25l-1.6-1.25l-1.7,1.6
		c-1.367,1-2.65,1.367-3.85,1.101c-1.2-0.3-2.05-1.316-2.55-3.05l-0.45-2.5c-0.8,0.267-1.684,0.383-2.65,0.35
		c-1.9-0.033-3.2-0.7-3.9-2c-0.7-1.333-0.966-3.15-0.8-5.45l0.45-3.1c-0.733-0.2-1.483-0.517-2.25-0.95
		c-1.534-0.9-2.333-1.983-2.4-3.25c-0.066-1.233,0.333-2.5,1.2-3.8l1.3-1.55c-1.566-2.033-2.4-3.816-2.5-5.35
		c-0.066-0.966,0.417-2.583,1.45-4.85l1.55-3.05c-0.4-0.533-0.783-1.183-1.15-1.95c-0.767-1.567-1.117-2.983-1.05-4.25
		c0.1-1.233,0.667-2.217,1.7-2.95c0.5-0.367,1-0.617,1.5-0.75c-0.333-0.5-0.65-1.117-0.95-1.85c-0.567-1.467-0.75-2.8-0.55-4
		c0.2-1.2,1.483-2.3,3.85-3.3C80.35,58.817,81.517,58.417,82.65,58.15z"/>
	<polygon style="fill-rule:evenodd;clip-rule:evenodd;fill:#B36940;" points="87.25,49.95 115.05,53.25 139.85,71.1 139.3,73.05 
		107.9,70.85 106.8,59 98,57.35 91.1,66.7 71.85,61.75 72.7,60.1 	"/>
	<path style="fill-rule:evenodd;clip-rule:evenodd;fill:#60383E;" d="M133.2,54.6c-0.733,9.9-2.884,19.767-6.45,29.6
		c-7.167,19.633-17.85,29.217-32.05,28.75c-14.233-0.467-20.333-11.25-18.3-32.35c1-10.533,3.434-21.033,7.3-31.5L133.2,54.6z"/>
	<path style="fill-rule:evenodd;clip-rule:evenodd;fill:#C1787D;" d="M116.9,64.45l-5.25-2.8l17.75,4.7l-7.351,22.1
		c0.434-6.7,0.533-12.167,0.3-16.4C122.217,69.383,120.4,66.85,116.9,64.45z"/>
	<polygon style="fill-rule:evenodd;clip-rule:evenodd;fill:#9B535C;" points="109,68.9 109,57.9 96.9,54.6 91.4,63.4 72.7,60.1 
		78.2,43.6 142.05,51.3 139.85,71.1 	"/>
	<polygon style="fill-rule:evenodd;clip-rule:evenodd;fill:#B36940;" points="167.65,43.85 165.4,48.25 63.05,39.2 62.5,36.15 	"/>
	<polygon style="fill-rule:evenodd;clip-rule:evenodd;fill:#E0A578;" points="165.4,48.25 167.65,43.85 195.5,44.1 193.5,47.05 	"/>
	<polygon style="fill-rule:evenodd;clip-rule:evenodd;fill:#C1787D;" points="180.65,0 205.45,10.05 197.4,44.25 177.3,44.9 	"/>
	<path style="fill-rule:evenodd;clip-rule:evenodd;fill:#9B535C;" d="M180.65,0L177.3,44.9L45.15,34.8l7.7-25.35l22.85,2.6
		c17.267,1.667,30.934,2.267,41,1.8c10.1-0.467,23.783-2.917,41.05-7.35C166.417,4.3,174.05,2.133,180.65,0z"/>
	<g>
		<path style="fill-rule:evenodd;clip-rule:evenodd;fill:#7F474F;" d="M171.7,179.35c8.033,0,15.883-1.216,23.55-3.649h0.7
			c-2.733,2.033-6.084,3.916-10.05,5.649c-7.867,3.467-14.784,4.517-20.75,3.15c-5.967-1.366-13.267-3.434-21.9-6.2l-11.15-3.7
			l7.75,14.301l-29.75-15.4L107.9,190l-16.5-25.3L69.35,174.6L76,162.5l-27.55,8.8l9.9-13.2H0c17.733-5.566,28.75-9.25,33.05-11.05
			c7.8-3.2,14.9-7.1,21.3-11.7l7.3-5.899l-1.9,3.899c-1.967,3.167-4.717,6.15-8.25,8.95s-7.45,5.384-11.75,7.75
			c-2.133,1.167-3.917,2.066-5.35,2.7l33.7,0.7l-3.6,8.05l18.35-3.15l-3.6,8.051l17.45-6.25l9.35,20.1l2.25-12.5l21.9,10.7
			l-4.5-13.4l17.649,7.15C156.316,176.967,165.767,179.35,171.7,179.35z"/>
	</g>
	<g>
		<polygon style="fill-rule:evenodd;clip-rule:evenodd;fill:#7F474F;" points="72.55,28.15 75.45,30.85 177.3,44.9 45.15,34.8 
			47.6,26.8 		"/>
	</g>
	<polygon style="fill-rule:evenodd;clip-rule:evenodd;fill:#7F474F;" points="73.95,56.3 91.4,63.4 72.7,60.1 	"/>
	<polygon style="fill-rule:evenodd;clip-rule:evenodd;fill:#7F474F;" points="109.1,63.45 139.85,71.1 109,68.9 	"/>
	<g>
		<g>
			<path style="fill-rule:evenodd;clip-rule:evenodd;fill:#7F474F;" d="M62.225,140.2c-0.075-0.017-0.217,0.184-0.425,0.6
				c-0.233,0.5-0.216,0.934,0.05,1.3c0.533,0.634,1.233,0.384,2.1-0.75l-0.4,1c-0.4,0.567-0.983,0.601-1.75,0.101
				c-0.633-0.434-0.75-0.95-0.35-1.55C61.799,140.36,62.058,140.127,62.225,140.2z"/>
		</g>
	</g>
	<g>
		<g>
			<path style="fill-rule:evenodd;clip-rule:evenodd;fill:#7F474F;" d="M75.55,145.8l-1.5,2.55c-0.733,2-0.433,3.634,0.9,4.9
				c1.133,1.267,2.8,1.134,5-0.4c2.033-1.8,3.066-2.699,3.1-2.699c0.067,0.033-0.533,1.216-1.8,3.55
				c-1.767,2.066-3.883,2.35-6.35,0.85c-2.833-1.434-3.583-3.316-2.25-5.649C74.55,146.833,75.517,145.8,75.55,145.8z"/>
		</g>
	</g>
	<g>
		<g>
			<path style="fill-rule:evenodd;clip-rule:evenodd;fill:#7F474F;" d="M108.75,161.85c-0.052,0.223-0.151,0.556-0.3,1
				c-0.134,0.967,0.3,1.601,1.3,1.9c1.033,0.134,1.65-0.4,1.85-1.6v-1.825c0.03,0.117,0.28,0.676,0.75,1.675
				c0.233,1.2-0.517,1.95-2.25,2.25c-1.966-0.167-2.716-0.833-2.25-2C108.313,162.602,108.613,162.136,108.75,161.85z"/>
		</g>
	</g>
	<g>
		<g>
			<path style="fill-rule:evenodd;clip-rule:evenodd;fill:#7F474F;" d="M103.7,144.1l-0.2,1.601c0.066,1.1,0.583,1.833,1.55,2.2
				c0.967,0.333,1.75-0.15,2.351-1.45l0.649-2.101l0.2,2.15c-0.2,1.434-1.167,2.1-2.9,2c-1.733-0.066-2.533-0.816-2.399-2.25
				L103.7,144.1z"/>
		</g>
	</g>
	<g>
		<g>
			<path style="fill-rule:evenodd;clip-rule:evenodd;fill:#7F474F;" d="M124.35,157.15c0.167-0.834,0.267-1.25,0.301-1.25
				l0.149,1.25c-0.066,0.833-0.616,1.283-1.649,1.35c-1.434-0.233-1.917-0.733-1.45-1.5c0.309-0.34,0.525-0.606,0.649-0.8
				c-0.055,0.144-0.138,0.327-0.25,0.55c-0.133,0.7,0.15,1.167,0.851,1.4C123.583,158.283,124.05,157.95,124.35,157.15z"/>
		</g>
	</g>
	<g>
		<g>
			<path style="fill-rule:evenodd;clip-rule:evenodd;fill:#7F474F;" d="M92.85,149.4c-0.133,1.033,0.25,1.783,1.15,2.25
				c0.933,0.399,1.7,0,2.3-1.2l0.6-1.95l0.2,2c-0.2,1.3-1.167,1.884-2.9,1.75c-1.767-0.333-2.417-1.15-1.95-2.45
				c0.571-0.856,0.913-1.414,1.025-1.675C93.218,148.342,93.076,148.768,92.85,149.4z"/>
		</g>
	</g>
	<g>
		<g>
			<path style="fill-rule:evenodd;clip-rule:evenodd;fill:#7F474F;" d="M76.15,136.95c0.033,0.866,0.367,1.467,1,1.8
				c0.733,0.333,1.367,0.033,1.9-0.9c0.281-0.79,0.447-1.282,0.5-1.475c-0.003,0.2,0.047,0.726,0.15,1.575
				c-0.167,1.066-0.983,1.483-2.45,1.25c-1.133-0.2-1.633-0.834-1.5-1.9c0.1-1.029,0.3-1.546,0.6-1.55
				C76.217,135.756,76.15,136.156,76.15,136.95z"/>
		</g>
	</g>
	<g>
		<g>
			<path style="fill-rule:evenodd;clip-rule:evenodd;fill:#7F474F;" d="M52.925,145.65c-0.01,0.103-0.152,0.386-0.425,0.85
				c-0.233,0.634-0.05,1.116,0.55,1.45c0.633,0.3,1.15,0.066,1.55-0.7l0.4-1.2l0.15,1.25c-0.133,0.867-0.783,1.233-1.95,1.101
				c-1.233-0.367-1.633-0.934-1.2-1.7C52.583,146.116,52.892,145.767,52.925,145.65z"/>
		</g>
	</g>
	<g>
		<g>
			<path style="fill-rule:evenodd;clip-rule:evenodd;fill:#7F474F;" d="M84.85,49.85c-0.2,1.066,0.083,1.867,0.85,2.4
				c0.8,0.533,1.65,0.283,2.55-0.75c0.433-0.533,0.783-1.117,1.05-1.75L89,51.8c-0.5,1.267-1.567,1.633-3.2,1.1
				c-1.533-0.5-2.066-1.4-1.6-2.7l1.2-1.8L84.85,49.85z"/>
		</g>
	</g>
	<g>
		<g>
			<path style="fill-rule:evenodd;clip-rule:evenodd;fill:#7F474F;" d="M117.25,59.15c0.066-0.564,0.2-0.848,0.4-0.85
				c-0.101,0.004-0.15,0.237-0.15,0.7c0,0.5,0.15,0.85,0.45,1.05c0.655,0.361,1.13-0.04,1.425-1.2c0,0.127,0.025,0.427,0.075,0.9
				c-0.101,0.567-0.601,0.75-1.5,0.55C117.417,60.167,117.184,59.783,117.25,59.15z"/>
		</g>
	</g>
	<g>
		<g>
			<path style="fill-rule:evenodd;clip-rule:evenodd;fill:#7F474F;" d="M128.9,55.55l-0.2,2c0.066,1.4,0.7,2.317,1.899,2.75
				c1.2,0.434,2.184-0.183,2.95-1.85c0.4-0.833,0.667-1.7,0.8-2.6l0.25,2.7c-0.233,1.767-1.449,2.6-3.649,2.5
				c-2.2-0.066-3.2-1-3-2.8L128.9,55.55z"/>
		</g>
	</g>
	<g>
		<g>
			<path style="fill-rule:evenodd;clip-rule:evenodd;fill:#7F474F;" d="M112.9,52.6c0.267-0.567,0.449-1.15,0.55-1.75l0.2,1.85
				c-0.2,1.167-1.084,1.667-2.65,1.5c-1.6-0.3-2.2-1.034-1.8-2.2c0.605-0.909,0.939-1.442,1-1.6c-0.032,0.136-0.182,0.553-0.45,1.25
				c-0.134,0.934,0.217,1.6,1.05,2C111.667,54.05,112.366,53.7,112.9,52.6z"/>
		</g>
	</g>
	<g>
		<g>
			<path style="fill-rule:evenodd;clip-rule:evenodd;fill:#7F474F;" d="M89,56.05c-0.039,0.112-0.172,0.346-0.4,0.7
				c-0.167,0.533,0,0.967,0.5,1.3c0.533,0.267,0.967,0.067,1.3-0.6c0.167-0.333,0.283-0.684,0.35-1.05l0.1,1.1
				c-0.1,0.733-0.65,1.033-1.65,0.9c-1.067-0.333-1.4-0.833-1-1.5C88.667,56.459,88.934,56.176,89,56.05z"/>
		</g>
	</g>
	<g>
		<g>
			<path style="fill-rule:evenodd;clip-rule:evenodd;fill:#7F474F;" d="M56.325,14.175c-0.07,0.242-0.312,0.8-0.725,1.675
				c-0.367,1.3,0.033,2.283,1.2,2.95c1.3,0.6,2.333,0.117,3.1-1.45c0.36-0.753,0.61-1.554,0.75-2.4
				c-0.003,0.194,0.08,1.027,0.25,2.5c-0.233,1.7-1.517,2.417-3.85,2.15c-2.367-0.667-3.15-1.783-2.35-3.35
				C55.652,15.144,56.193,14.452,56.325,14.175z"/>
		</g>
	</g>
	<g>
		<g>
			<path style="fill-rule:evenodd;clip-rule:evenodd;fill:#7F474F;" d="M96.875,21.075c-0.124,0.373-0.399,1.082-0.825,2.125
				c-0.333,1.8,0.3,3.1,1.9,3.9c1.667,0.7,3,0,4-2.1c0.495-1.024,0.846-2.116,1.05-3.275c-0.004,0.206,0.112,1.347,0.35,3.425
				c-0.333,2.267-2.016,3.267-5.05,3c-3.2-0.733-4.333-2.183-3.4-4.35C95.977,22.425,96.635,21.517,96.875,21.075z"/>
		</g>
	</g>
	<g>
		<g>
			<path style="fill-rule:evenodd;clip-rule:evenodd;fill:#7F474F;" d="M75.2,19.65l-0.1,0.8c0.033,0.566,0.283,0.95,0.75,1.15
				c0.767,0.267,1.267-0.333,1.5-1.8l0.1,1.1c-0.1,0.7-0.583,1.033-1.45,1s-1.267-0.417-1.2-1.15L75.2,19.65z"/>
		</g>
	</g>
	<g>
		<g>
			<path style="fill-rule:evenodd;clip-rule:evenodd;fill:#7F474F;" d="M152.65,32.5c2.3,1.2,4.05,0.533,5.25-2
				c0.593-2.238,0.909-3.546,0.949-3.925c0.049,0.171,0.165,0.546,0.351,1.125c0.333,1.133,0.483,2.1,0.45,2.9
				c-0.134,2.8-2.367,3.883-6.7,3.25c-3.834-1.767-4.867-3.767-3.101-6c1.583-1.203,2.6-2.044,3.051-2.525
				c-0.274,0.423-0.791,1.131-1.551,2.125C150.417,29.45,150.85,31.133,152.65,32.5z"/>
		</g>
	</g>
	<g>
		<g>
			<path style="fill-rule:evenodd;clip-rule:evenodd;fill:#7F474F;" d="M167.95,14.5c0,0.533-0.101,1.033-0.3,1.5
				c-0.434,0.933-1.25,1.217-2.45,0.85c-1.533-0.833-1.884-1.617-1.05-2.35c0.474-0.252,0.824-0.46,1.05-0.625
				c-0.125,0.141-0.291,0.316-0.5,0.525c-0.434,0.733-0.3,1.383,0.399,1.95c0.667,0.433,1.334,0.25,2-0.55
				C167.434,15.4,167.717,14.967,167.95,14.5z"/>
		</g>
	</g>
	<g>
		<g>
			<path style="fill-rule:evenodd;clip-rule:evenodd;fill:#7F474F;" d="M171.2,33.8c0.188-0.345,0.321-0.72,0.399-1.125
				c-0.009,0.155,0.025,0.547,0.101,1.175c-0.134,0.867-0.767,1.233-1.9,1.1c-1.267-0.367-1.666-0.934-1.2-1.7
				c0.451-0.451,0.734-0.759,0.851-0.925c-0.064,0.139-0.197,0.38-0.4,0.725c-0.2,0.633,0,1.117,0.601,1.45
				C170.283,34.8,170.8,34.567,171.2,33.8z"/>
		</g>
	</g>
	<g>
		<g>
			<path style="fill-rule:evenodd;clip-rule:evenodd;fill:#7F474F;" d="M132.8,17.9c-0.166,0.167-0.033,0.7,0.4,1.6
				c0.5,1.033,1.184,1.617,2.05,1.75c0.8,0.233,1.483-0.317,2.05-1.65c0.434-1.4,0.65-2.117,0.65-2.15
				c0.333,0.1,0.399,0.833,0.2,2.2c-0.233,1.434-1.101,2.167-2.601,2.2c-1.3,0.3-2.184-0.233-2.649-1.6
				C132.434,18.917,132.4,18.133,132.8,17.9z"/>
		</g>
	</g>
	<g>
		<g>
			<path style="fill-rule:evenodd;clip-rule:evenodd;fill:#7F474F;" d="M127.75,29.4c-0.025,0.133-0.192,0.55-0.5,1.25
				c-0.2,0.934,0.1,1.633,0.9,2.1c0.666,0.4,1.399,0.117,2.199-0.85c0.367-0.467,0.7-0.983,1-1.55c0.334,0,0.217,0.583-0.35,1.75
				c-0.533,1.1-1.434,1.5-2.7,1.2c-1.633-0.4-2.2-1.167-1.7-2.3C127.313,30.087,127.696,29.554,127.75,29.4z"/>
		</g>
	</g>
	<g>
		<g>
			<path style="fill-rule:evenodd;clip-rule:evenodd;fill:#7F474F;" d="M114.05,23.25l-0.1,0.8c0.033,0.567,0.283,0.934,0.75,1.1
				c0.767,0.267,1.267-0.316,1.5-1.75l0.1,1.05c-0.1,0.7-0.583,1.033-1.45,1c-0.866-0.034-1.267-0.4-1.199-1.1L114.05,23.25z"/>
		</g>
	</g>
	<g>
		<g>
			<path style="fill-rule:evenodd;clip-rule:evenodd;fill:#7F474F;" d="M83.95,25.425c-0.045,0.101-0.162,0.293-0.35,0.575
				c-0.133,0.433,0,0.783,0.4,1.05c0.733,0.434,1.2,0,1.4-1.3l0.1,0.95c-0.1,0.6-0.583,0.816-1.45,0.65
				c-0.833-0.3-1.083-0.717-0.75-1.25C83.662,25.762,83.879,25.537,83.95,25.425z"/>
		</g>
	</g>
	<g>
		<g>
			<path style="fill-rule:evenodd;clip-rule:evenodd;fill:#9B535C;" d="M184.7,9.15c0.1-0.963,0.283-1.446,0.55-1.45
				c-0.133,0.005-0.183,0.372-0.15,1.1c0.034,0.733,0.351,1.233,0.95,1.5c0.467,0.3,1,0.067,1.601-0.7c0.3-0.4,0.566-0.833,0.8-1.3
				c-0.066,1.967-0.834,2.767-2.3,2.4C185.05,10.633,184.566,10.117,184.7,9.15z"/>
		</g>
	</g>
	<g>
		<g>
			<path style="fill-rule:evenodd;clip-rule:evenodd;fill:#9B535C;" d="M190.9,27.05c0.033,0-0.267,0.483-0.9,1.45
				c-0.467,1.133-0.283,2.083,0.55,2.85c1.727,1.261,2.977,0.328,3.75-2.8c-0.011,0.178,0.039,0.945,0.15,2.3
				c-0.3,1.533-1.584,1.95-3.851,1.25c-1.767-0.9-2.233-2.017-1.399-3.35C190.366,27.65,190.934,27.083,190.9,27.05z"/>
		</g>
	</g>
	<g>
		<g>
			<path style="fill-rule:evenodd;clip-rule:evenodd;fill:#9B535C;" d="M197.55,13.4l-0.1,0.8c0.066,0.566,0.333,0.933,0.8,1.1
				c0.767,0.3,1.267-0.283,1.5-1.75l0.1,1.1c-0.1,0.7-0.583,1.033-1.449,1c-0.867-0.033-1.267-0.417-1.2-1.15L197.55,13.4z"/>
		</g>
	</g>
	<g>
		<g>
			<path style="fill-rule:evenodd;clip-rule:evenodd;fill:#9B535C;" d="M185.6,18.55c0.374-0.353,0.624-0.603,0.75-0.75L186,18.35
				c-0.2,0.566-0.1,1.05,0.3,1.45c0.857,0.594,1.475,0.144,1.851-1.35c-0.013,0.125,0.021,0.491,0.1,1.1
				c-0.134,0.733-0.783,0.95-1.95,0.65C185.4,19.733,185.167,19.183,185.6,18.55z"/>
		</g>
	</g>
</g>
</svg>
