<?xml version="1.0" encoding="iso-8859-1"?>
<!-- Generator: Adobe Illustrator 15.1.0, SVG Export Plug-In . SVG Version: 6.00 Build 0)  -->
<!DOCTYPE svg PUBLIC "-//W3C//DTD SVG 1.1//EN" "http://www.w3.org/Graphics/SVG/1.1/DTD/svg11.dtd">
<svg version="1.1" id="tower_x5F_blue_x5F_background_x5F_01.ai"
	 xmlns="http://www.w3.org/2000/svg" xmlns:xlink="http://www.w3.org/1999/xlink" x="0px" y="0px" width="100px" height="200.6px"
	 viewBox="0 0 100 200.6" style="enable-background:new 0 0 100 200.6;" xml:space="preserve">
<g>
	<g>
		<linearGradient id="SVGID_1_" gradientUnits="userSpaceOnUse" x1="6.5908" y1="100.2998" x2="100" y2="100.2998">
			<stop  offset="0" style="stop-color:#D5DBDC"/>
			<stop  offset="1" style="stop-color:#DFE4E5"/>
		</linearGradient>
		<path style="fill-rule:evenodd;clip-rule:evenodd;fill:url(#SVGID_1_);" d="M66.4,42.75c0.267,1.067,1.8,12.95,4.6,35.65
			c2.5,20.633,5.233,34.517,8.2,41.65c1.533,3.733,3.467,7.733,5.8,12c1.3,2.367,3.134,5.634,5.5,9.8
			c3.833,7.134,5.75,13.733,5.75,19.801c0,6.466,0.634,13.733,1.9,21.8c0.6,4.066,1.216,7.467,1.85,10.2L88.8,200.6L71.2,185.65
			c-2.134-30.2-4.634-57.934-7.5-83.2c-0.8-7.133-1.434-14.85-1.9-23.15c-0.467-8-0.8-12.917-1-14.75
			c-0.5-4.033-1.383-7.267-2.649-9.7c-1.334-2.633-3.567-5.25-6.7-7.85c-2.7-2.267-6.517-4.817-11.45-7.65
			c-5.867-3.233-10.233-5.65-13.1-7.25C16.467,26.2,10.433,21.217,8.8,17.15C7,12.683,6.3,8.483,6.7,4.55
			C6.9,2.583,7.283,1.067,7.85,0L29.6,1.15c-0.7,2.133-1,4.617-0.9,7.45c0.267,5.7,2.517,10.316,6.75,13.85
			c2.167,1.833,5.083,3.617,8.75,5.35c2.1,1,5.267,2.4,9.5,4.2C61.134,35.333,65.366,38.917,66.4,42.75z"/>
		<g>
			<polygon style="fill-rule:evenodd;clip-rule:evenodd;fill:#C6CFD1;" points="88.85,192.5 88.6,191.75 98.85,187.7 98.95,188.5 
							"/>
			<polygon style="fill-rule:evenodd;clip-rule:evenodd;fill:#C6CFD1;" points="88,172.1 87.85,171.35 96.55,169.45 96.6,170.3 			
				"/>
			<polygon style="fill-rule:evenodd;clip-rule:evenodd;fill:#C6CFD1;" points="88.75,184.5 88.5,183.75 97.7,180.6 97.8,181.4 			
				"/>
			<polygon style="fill-rule:evenodd;clip-rule:evenodd;fill:#C6CFD1;" points="85.8,154.6 85.45,153.85 94.25,150.05 94.5,150.8 
							"/>
			<polygon style="fill-rule:evenodd;clip-rule:evenodd;fill:#C6CFD1;" points="96.25,160.9 96.25,161.75 87,163.9 86.85,163.15 			
				"/>
			<polygon style="fill-rule:evenodd;clip-rule:evenodd;fill:#C6CFD1;" points="87.05,135.7 87.5,136.45 81,137.9 80.85,137.15 			
				"/>
			<polygon style="fill-rule:evenodd;clip-rule:evenodd;fill:#C6CFD1;" points="84,147 83.65,146.25 91.1,142.95 91.45,143.65 			
				"/>
			<polygon style="fill-rule:evenodd;clip-rule:evenodd;fill:#C6CFD1;" points="76.95,128 76.7,127.25 81.75,125.8 82.1,126.5 			
				"/>
			<polygon style="fill-rule:evenodd;clip-rule:evenodd;fill:#C6CFD1;" points="74.2,119 74.05,118.25 78.15,117.3 78.45,118.05 			
				"/>
			<polygon style="fill-rule:evenodd;clip-rule:evenodd;fill:#C6CFD1;" points="71.6,109 71.45,108.25 75.55,107.35 75.7,108.15 			
				"/>
			<polygon style="fill-rule:evenodd;clip-rule:evenodd;fill:#C6CFD1;" points="69.9,100.1 69.75,99.35 73.85,98.4 73.95,99.2 			
				"/>
			<polygon style="fill-rule:evenodd;clip-rule:evenodd;fill:#C6CFD1;" points="68.45,90.7 68.2,89.95 72.35,88.65 72.45,89.45 			
				"/>
			<polygon style="fill-rule:evenodd;clip-rule:evenodd;fill:#C6CFD1;" points="67.25,81.7 67,80.95 71.15,79.6 71.25,80.4 			"/>
			<polygon style="fill-rule:evenodd;clip-rule:evenodd;fill:#C6CFD1;" points="66.05,73.8 65.8,73.05 70.2,71.55 70.25,72.35 			
				"/>
			<polygon style="fill-rule:evenodd;clip-rule:evenodd;fill:#C6CFD1;" points="65,64.9 64.65,64.15 69.1,61.85 69.15,62.7 			"/>
			<polygon style="fill-rule:evenodd;clip-rule:evenodd;fill:#C6CFD1;" points="57,42.55 56.45,41.9 62.3,36.85 62.9,37.35 			"/>
			<polygon style="fill-rule:evenodd;clip-rule:evenodd;fill:#C6CFD1;" points="67.4,48.35 67.55,49.3 63.2,53.1 62.65,52.5 			"/>
			<polygon style="fill-rule:evenodd;clip-rule:evenodd;fill:#C6CFD1;" points="41.2,26.3 42.1,26.75 36.8,29.5 36.45,28.75 			"/>
			<polygon style="fill-rule:evenodd;clip-rule:evenodd;fill:#C6CFD1;" points="47.25,35.55 46.8,34.9 51.75,31.15 52.6,31.5 			"/>
			<polygon style="fill-rule:evenodd;clip-rule:evenodd;fill:#C6CFD1;" points="21.15,12.7 20.9,11.95 28.8,9.85 28.9,10.65 			"/>
			<polygon style="fill-rule:evenodd;clip-rule:evenodd;fill:#C6CFD1;" points="26,21.7 25.85,20.95 32.5,19.35 33.05,20.05 			"/>
		</g>
		<linearGradient id="SVGID_2_" gradientUnits="userSpaceOnUse" x1="0" y1="102.7998" x2="88.9141" y2="102.7998">
			<stop  offset="0" style="stop-color:#A1B1B3"/>
			<stop  offset="1" style="stop-color:#C6CFD1"/>
		</linearGradient>
		<path style="fill-rule:evenodd;clip-rule:evenodd;fill:url(#SVGID_2_);" d="M0,5.4L20.5,5c-0.333,0.867-0.417,2.133-0.25,3.8
			c0.367,3.333,1.883,7,4.55,11c1.367,2.067,4.034,4.367,8,6.9c2.367,1.5,6.267,3.8,11.7,6.9C54.934,39.767,60.9,45.567,62.4,51
			c0.8,2.9,1.716,8.1,2.75,15.6c0.6,4.333,1.583,11.667,2.949,22c2.967,20.367,6.667,35.3,11.101,44.8c4.666,10,7.666,24.199,9,42.6
			c0.666,9.2,0.866,17.4,0.6,24.6L37.6,199c0.533-5.333,0.8-10.134,0.8-14.4c0-3.033,1.833-7.933,5.5-14.699
			c3.3-6.101,7.333-12.4,12.1-18.9c4.167-5.7,5.733-17.934,4.7-36.7c-0.967-17.433-3.601-33.466-7.9-48.1
			c-1.833-6.267-4.05-10.883-6.65-13.85c-2-2.267-4.683-3.95-8.05-5.05c-4.1-1-7.333-1.933-9.7-2.8c-4.2-1.533-8.066-3.9-11.6-7.1
			c-7-6.333-11.9-13.566-14.7-21.7C0.7,11.633,0,8.2,0,5.4z"/>
		<g>
			<polygon style="fill-rule:evenodd;clip-rule:evenodd;fill:#9CAFB3;" points="56.3,41.9 56.75,42.3 56.8,42.6 51.1,43.4 
				52.3,53.4 62.8,52.45 62.95,53.2 47.9,54.65 47.4,53.9 51.5,53.5 50.3,43.55 33.15,45.95 31.2,45.4 			"/>
			<path style="fill-rule:evenodd;clip-rule:evenodd;fill:#9CAFB3;" d="M50.25,182.4l0.15,7.55l33.85,1.55v-7.2L50.25,182.4z
				 M38.25,190.15l0.05-0.801l11.3,0.551l-0.15-7.551l-10.6-0.6l0.2-0.8l21.5,1.2l0.25-9.4l-18.55,0.4l0.4-0.801l1.2-0.05V170
				l0.8-1.45v3.75l43.2-1l0.051,0.8L61.6,172.7l-0.25,9.5l27.301,1.5l-0.051,0.8l-3.55-0.2v7.25l3.7,0.15l-0.05,0.8L62,191.3
				l0.25,8.45h-0.8l-0.25-8.5L38.25,190.15z"/>
			<polygon style="fill-rule:evenodd;clip-rule:evenodd;fill:#9CAFB3;" points="74.1,119 62.95,118.35 63.2,127.75 76.7,127.25 
				76.8,127.55 76.85,128 60.9,128.65 60.95,127.85 62.4,127.8 62.15,118.3 60.9,118.2 60.85,117.4 73.9,118.2 			"/>
			<polygon style="fill-rule:evenodd;clip-rule:evenodd;fill:#9CAFB3;" points="47,35.1 47.05,35.6 17.95,38.4 17.1,37.65 
				29.6,36.5 29.35,29.95 10.7,30.95 10.1,30.2 13.2,30.05 12.95,22.45 5.3,22.9 4.9,22.15 25.7,20.95 25.9,21.2 25.95,21.7 
				13.75,22.4 14,30 36.15,28.75 36.6,29 36.65,29.5 30.15,29.9 30.4,36.4 46.6,34.85 			"/>
			<polygon style="fill-rule:evenodd;clip-rule:evenodd;fill:#9CAFB3;" points="71.5,108.25 71.55,109 60.45,110.35 60.4,109.55 
				62,109.35 61.35,99.75 59.4,99.65 59.3,98.85 69.8,99.3 69.85,99.45 69.8,100.1 62.15,99.8 62.8,109.25 			"/>
			<polygon style="fill-rule:evenodd;clip-rule:evenodd;fill:#9CAFB3;" points="65.9,73.05 65.95,73.8 55.05,74.8 54.9,74 
				55.45,73.95 54.4,64.25 52.15,64.1 51.9,63.3 64.8,64.1 64.85,64.3 64.8,64.9 55.25,64.3 56.25,73.9 			"/>
			<polygon style="fill-rule:evenodd;clip-rule:evenodd;fill:#9CAFB3;" points="58.6,145.5 58.8,144.7 63.6,145 63.45,135.55 
				60.5,135.15 60.6,134.35 80.8,137.1 80.95,137.5 80.85,137.9 64.25,135.65 64.4,145.05 83.7,146.2 83.8,146.7 83.8,147 
				82.75,146.95 83.45,153.8 85.4,153.8 85.55,154.6 62.6,154.5 62.15,163.3 86.9,163.1 86.9,163.2 86.95,163.9 83.2,163.95 
				83.2,171.4 82.4,171.4 82.4,163.95 47.2,164.2 47.7,163.4 61.35,163.3 61.8,154.5 53.55,154.45 54.1,153.65 82.65,153.8 
				81.9,146.9 			"/>
			<polygon style="fill-rule:evenodd;clip-rule:evenodd;fill:#9CAFB3;" points="58.3,91.55 58.2,90.75 59.85,90.6 59.25,82.65 
				56.8,82.95 56.65,82.15 67.05,80.95 67.15,81.7 60,82.55 60.65,90.55 68.3,89.95 68.35,90.7 			"/>
			<polygon style="fill-rule:evenodd;clip-rule:evenodd;fill:#9CAFB3;" points="21,11.9 21.05,12.7 1.5,13.8 1.3,13 11.05,12.5 
				10.8,5.65 11.6,5.65 11.85,12.45 			"/>
		</g>
	</g>
	<polygon style="fill-rule:evenodd;clip-rule:evenodd;fill:#ECF0F1;" points="0,5.4 7.85,0 29.6,1.15 20.5,5 	"/>
</g>
</svg>
