<?xml version="1.0" encoding="iso-8859-1"?>
<!-- Generator: Adobe Illustrator 15.1.0, SVG Export Plug-In . SVG Version: 6.00 Build 0)  -->
<!DOCTYPE svg PUBLIC "-//W3C//DTD SVG 1.1//EN" "http://www.w3.org/Graphics/SVG/1.1/DTD/svg11.dtd">
<svg version="1.1" id="tower_x5F_orange_x5F_front_x5F_01.ai"
	 xmlns="http://www.w3.org/2000/svg" xmlns:xlink="http://www.w3.org/1999/xlink" x="0px" y="0px" width="58px" height="85.45px"
	 viewBox="0 0 58 85.45" style="enable-background:new 0 0 58 85.45;" xml:space="preserve">
<g>
	
		<linearGradient id="SVGID_1_" gradientUnits="userSpaceOnUse" x1="27.8008" y1="43.5234" x2="46.2786" y2="43.5234" gradientTransform="matrix(0.9998 -0.0176 0.0176 0.9998 -2.091192e-004 -2.592430e-005)">
		<stop  offset="0" style="stop-color:#EBC8AA"/>
		<stop  offset="1" style="stop-color:#F2DDC9"/>
	</linearGradient>
	<path style="fill-rule:evenodd;clip-rule:evenodd;fill:url(#SVGID_1_);" d="M25.55,38.5c-4.4-3.4-9.133-6-14.2-7.8l25.1-30.5
		l12.8,2.4l-20.1,21.5l3.25,1.6c2.633,1.4,5.166,2.933,7.6,4.6c7.767,5.3,12.967,10.85,15.6,16.65c3.101,6.866,3.167,18.7,0.2,35.5
		c-0.066-0.033-4.1,0.967-12.1,3c-2.967-1-5.617-2.783-7.95-5.351c-4.7-5.133-5.366-11.649-2-19.55
		C37.116,52.65,34.384,45.3,25.55,38.5z"/>
	<g>
		<polygon style="fill-rule:evenodd;clip-rule:evenodd;fill:#CB9A74;" points="44.3,72 44.25,70.65 57.45,70.1 57.35,71.4 		"/>
		<polygon style="fill-rule:evenodd;clip-rule:evenodd;fill:#CB9A74;" points="48.75,37.45 49.95,38.7 39.85,39.4 39.75,38.05 		"/>
		<polygon style="fill-rule:evenodd;clip-rule:evenodd;fill:#CB9A74;" points="44.1,54.15 44,52.8 57.15,52.2 57.35,53.5 		"/>
		<polygon style="fill-rule:evenodd;clip-rule:evenodd;fill:#CB9A74;" points="29.75,11 30.2,9.75 39.7,12.8 38.7,13.9 		"/>
		<polygon style="fill-rule:evenodd;clip-rule:evenodd;fill:#CB9A74;" points="22.95,21.55 23.15,20.2 31.6,21.45 30.5,22.65 		"/>
	</g>
	
		<linearGradient id="SVGID_2_" gradientUnits="userSpaceOnUse" x1="-45.9624" y1="-42.7251" x2="-1.5374" y2="-42.7251" gradientTransform="matrix(-1 0 0 -1 0 0)">
		<stop  offset="0" style="stop-color:#E4B48B"/>
		<stop  offset="1" style="stop-color:#D27948"/>
	</linearGradient>
	<path style="fill-rule:evenodd;clip-rule:evenodd;fill:url(#SVGID_2_);" d="M29.6,28.45c6.301,3.7,10.551,8.8,12.75,15.3
		c2.467,7.267,2.967,21.167,1.5,41.7C43.75,85.417,31,84.733,5.6,83.4c6.333-6.167,10.483-12.217,12.45-18.15
		c2.534-7.5,3.467-13.816,2.8-18.95c-0.2-1.633-0.533-3.033-1-4.2l-0.7-1.3L0,37.05L10.4,0l26.2,0.15L20.75,24.8l2.65,0.75
		C25.567,26.317,27.633,27.283,29.6,28.45z"/>
	<g>
		<polygon style="fill-rule:evenodd;clip-rule:evenodd;fill:#BD7B54;" points="20,35.95 19.45,41.25 19.15,40.8 18.15,40.6 
			18.7,35.7 1.25,32.65 1.6,31.35 32.05,36.7 32.65,30.45 33.9,31.45 33.4,36.95 39.65,38.05 39.85,38.35 39.7,39.4 		"/>
		<polygon style="fill-rule:evenodd;clip-rule:evenodd;fill:#BD7B54;" points="23.05,21.2 22.85,21.55 4.5,21.05 4.9,19.7 15.75,20 
			17,8.2 8.6,6.35 8.95,5.1 30.1,9.7 29.95,10.45 29.65,11 18.3,8.5 17.1,20.05 23.1,20.2 		"/>
		<polygon style="fill-rule:evenodd;clip-rule:evenodd;fill:#BD7B54;" points="39.15,53.7 38.7,70.4 44.3,70.65 44.25,72 
			20.55,70.75 19.45,84.2 18.05,84.05 19.2,70.7 15.75,70.5 16.45,69.2 37.35,70.3 37.8,53.6 20.95,52.15 21,50.85 44.1,52.8 
			44.1,52.85 44,54.15 		"/>
	</g>
</g>
</svg>
