<?xml version="1.0" encoding="iso-8859-1"?>
<!-- Generator: Adobe Illustrator 15.1.0, SVG Export Plug-In . SVG Version: 6.00 Build 0)  -->
<!DOCTYPE svg PUBLIC "-//W3C//DTD SVG 1.1//EN" "http://www.w3.org/Graphics/SVG/1.1/DTD/svg11.dtd">
<svg version="1.1" id="tower_x5F_red_x5F_mid_x5F_03.ai"
	 xmlns="http://www.w3.org/2000/svg" xmlns:xlink="http://www.w3.org/1999/xlink" x="0px" y="0px" width="123.4px"
	 height="282.95px" viewBox="0 0 123.4 282.95" style="enable-background:new 0 0 123.4 282.95;" xml:space="preserve">
<g>
	<g>
		<path style="fill-rule:evenodd;clip-rule:evenodd;fill:#924B4B;" d="M120.55,274.25l1.25,0.85l-21.75,4.5
			c-14.5,1.667-27.916,2.75-40.25,3.25c-7.7,0.301-18.55,0.017-32.55-0.85c-7-0.434-13.233-0.9-18.7-1.4l2.9-1.85L120.55,274.25z"/>
		
			<linearGradient id="SVGID_1_" gradientUnits="userSpaceOnUse" x1="44.231" y1="147.459" x2="85.8593" y2="147.459" gradientTransform="matrix(0.9999 -0.0126 0.0126 0.9999 -1.829155e-004 1.572920e-004)">
			<stop  offset="0" style="stop-color:#C5988D"/>
			<stop  offset="1" style="stop-color:#D2B3AA"/>
		</linearGradient>
		<path style="fill-rule:evenodd;clip-rule:evenodd;fill:url(#SVGID_1_);" d="M55.2,82.55C47.333,57.717,39.7,35.233,32.3,15.1
			l9.5-0.7C48,25.1,55.317,38.45,63.75,54.45c16.9,32.066,30.967,61.466,42.2,88.2c11.267,26.699,17.083,56.649,17.45,89.85
			c0.166,16.6-0.784,30.517-2.851,41.75l-20.25,4.5c-2.066-5.066-4.366-12.467-6.899-22.2c-5.034-19.5-8.733-40.967-11.101-64.399
			C79.967,168.717,70.934,132.183,55.2,82.55z"/>
		<polygon style="fill-rule:evenodd;clip-rule:evenodd;fill:#8E574F;" points="42.45,13.8 41.8,14.4 32.3,14.95 32.25,14.55 		"/>
		<linearGradient id="SVGID_2_" gradientUnits="userSpaceOnUse" x1="6.7998" y1="143.1592" x2="104.9639" y2="143.1592">
			<stop  offset="0" style="stop-color:#A8655C"/>
			<stop  offset="1" style="stop-color:#C08E82"/>
		</linearGradient>
		<path style="fill-rule:evenodd;clip-rule:evenodd;fill:url(#SVGID_2_);" d="M6.8,4.6l25.5,10.5c10.767,21.5,21.767,45.133,33,70.9
			c22.5,51.5,35,87.866,37.5,109.1c2.5,21.267,2.834,41.584,1,60.95c-0.899,9.7-2.066,17.267-3.5,22.7
			c-8.3,1.1-18.233,1.934-29.8,2.5c-23.1,1.1-42.783,0.267-59.05-2.5c7.667-3.5,14.083-8.134,19.25-13.9
			c2.533-2.866,8.566-11.116,18.1-24.75c17.5-25,15.75-71.75-5.25-140.25c-6.566-21.4-14.667-43.7-24.3-66.9
			C14.45,21.35,10.3,11.9,6.8,4.6z"/>
		<g>
			<polygon style="fill-rule:evenodd;clip-rule:evenodd;fill:#8E574F;" points="41.8,14.4 42.15,14.95 32.5,15.65 32.3,15.1 			"/>
			<polygon style="fill-rule:evenodd;clip-rule:evenodd;fill:#BD877C;" points="44.65,41.4 44.45,40.3 55,38.1 55.55,39.15 			"/>
			<polygon style="fill-rule:evenodd;clip-rule:evenodd;fill:#BD877C;" points="49.75,28.45 50.35,29.55 39.1,30.15 39.05,29.05 			
				"/>
			<polygon style="fill-rule:evenodd;clip-rule:evenodd;fill:#BD877C;" points="51.15,53.9 51,52.8 62.1,51.3 62.65,52.4 			"/>
			<polygon style="fill-rule:evenodd;clip-rule:evenodd;fill:#BD877C;" points="57,67.1 56.6,66.05 67.65,61.9 68.15,62.9 			"/>
			<polygon style="fill-rule:evenodd;clip-rule:evenodd;fill:#BD877C;" points="82.9,92.2 83.4,93.25 69.95,97.15 69.65,96.05 			
				"/>
			<polygon style="fill-rule:evenodd;clip-rule:evenodd;fill:#BD877C;" points="64,83.15 63.6,82.05 75.8,77.85 76.3,78.85 			"/>
			<polygon style="fill-rule:evenodd;clip-rule:evenodd;fill:#BD877C;" points="77,113.65 76.65,112.55 90.45,108 90.95,109.05 			
				"/>
			<polygon style="fill-rule:evenodd;clip-rule:evenodd;fill:#BD877C;" points="81.95,125.65 81.65,124.55 96.25,120.5 96.7,121.55 
							"/>
			<polygon style="fill-rule:evenodd;clip-rule:evenodd;fill:#BD877C;" points="87.45,139.4 87.15,138.3 102.2,133.95 102.65,135 
							"/>
			<polygon style="fill-rule:evenodd;clip-rule:evenodd;fill:#BD877C;" points="107.35,146.1 107.75,147.1 91.75,153.15 
				91.35,152.05 			"/>
			<polygon style="fill-rule:evenodd;clip-rule:evenodd;fill:#BD877C;" points="101.95,190.15 101.65,189.05 118.5,184.3 
				118.75,185.45 			"/>
			<polygon style="fill-rule:evenodd;clip-rule:evenodd;fill:#BD877C;" points="98.2,172.9 97.9,171.8 114.55,167.5 114.85,168.6 
							"/>
			<polygon style="fill-rule:evenodd;clip-rule:evenodd;fill:#BD877C;" points="123.05,221.35 123.1,222.5 104.95,227.4 
				104.65,226.3 			"/>
			<polygon style="fill-rule:evenodd;clip-rule:evenodd;fill:#BD877C;" points="121.65,204.35 121.75,205.5 104.75,211.4 
				104.35,210.3 			"/>
			<polygon style="fill-rule:evenodd;clip-rule:evenodd;fill:#BD877C;" points="103.7,263.9 103.4,262.8 122.6,256.85 122.5,258.05 
							"/>
			<polygon style="fill-rule:evenodd;clip-rule:evenodd;fill:#BD877C;" points="123.3,242.4 123.3,243.55 104.2,247.9 103.95,246.8 
							"/>
			<polygon style="fill-rule:evenodd;clip-rule:evenodd;fill:#9E5E56;" points="53.85,138.7 53.6,137.55 71.45,137.95 71.05,125.75 
				50.85,125.85 50.55,124.75 81.4,124.55 81.8,125.65 72.15,125.7 72.6,137.95 86.65,138.25 87.05,139.4 			"/>
			<polygon style="fill-rule:evenodd;clip-rule:evenodd;fill:#9E5E56;" points="59.05,168.7 58.9,167.55 73.5,169.15 73.5,153.05 
				56.7,152.95 56.5,151.8 91.55,152.05 91.55,153.15 74.6,153.05 74.6,169.25 97.8,171.75 98.05,172.6 98,172.9 			"/>
			<polygon style="fill-rule:evenodd;clip-rule:evenodd;fill:#9E5E56;" points="74.4,188.3 60.5,187.35 60.45,186.2 101.85,189.05 
				101.75,190.15 75.55,188.35 74.15,206.05 104.2,210.25 104.3,211.4 60,205.25 60.1,204.1 73.05,205.9 			"/>
			<polygon style="fill-rule:evenodd;clip-rule:evenodd;fill:#9E5E56;" points="104.8,226.3 104.8,227.4 72.6,227.4 71.15,246.55 
				104.05,246.8 104.05,247.9 43.65,247.5 44.45,246.4 70.05,246.55 71.5,227.4 55.3,227.4 55.7,226.3 			"/>
			<polygon style="fill-rule:evenodd;clip-rule:evenodd;fill:#9E5E56;" points="103.05,262.8 102.95,263.95 66.85,264.6 
				65.85,281.45 64.7,281.45 65.7,264.65 30.25,265.3 31.25,264.15 			"/>
			<polygon style="fill-rule:evenodd;clip-rule:evenodd;fill:#9E5E56;" points="44.55,40.45 44.55,41.4 22.4,40.6 21.95,39.45 
				34.75,39.95 35.45,29.9 17.45,28.6 16.95,27.45 39.1,29.05 39,30.15 36.55,30 35.9,39.95 44.5,40.3 			"/>
			<polygon style="fill-rule:evenodd;clip-rule:evenodd;fill:#9E5E56;" points="68.35,97.1 42.2,95.5 41.85,94.35 69.65,96 
				69.8,96.4 69.75,97.15 69.5,97.15 71.55,112.15 76.55,112.5 76.8,113.15 76.75,113.65 46.95,111.4 46.65,110.25 70.4,112.05 			
				"/>
			<polygon style="fill-rule:evenodd;clip-rule:evenodd;fill:#9E5E56;" points="32.05,65.75 31.65,64.6 36.75,64.9 36.5,53.15 
				27.15,52.7 26.75,51.55 50.35,52.75 50.85,53.9 37.65,53.2 37.85,64.95 56.4,66 56.8,66.85 56.75,67.15 			"/>
			<polygon style="fill-rule:evenodd;clip-rule:evenodd;fill:#9E5E56;" points="39.35,86.7 39.25,80.15 37.05,79.85 36.65,78.7 
				63.55,82 63.8,82.55 63.75,83.15 40.4,80.3 40.55,90.3 			"/>
			<polygon style="fill-rule:evenodd;clip-rule:evenodd;fill:#9E5E56;" points="32.35,14.55 32.25,15.65 11.15,14.1 10.65,12.9 			
				"/>
		</g>
	</g>
	<polygon style="fill-rule:evenodd;clip-rule:evenodd;fill:#A35855;" points="2,0 38.5,12.5 37.5,20.5 0,13 	"/>
	<polygon style="fill-rule:evenodd;clip-rule:evenodd;fill:#AD6862;" points="50.5,17 37.5,20.5 38.5,12.5 51.5,12 	"/>
	<polygon style="fill-rule:evenodd;clip-rule:evenodd;fill:#C28E86;" points="2,0 21.5,2.5 51.5,12 38.5,12.5 	"/>
</g>
</svg>
