<?xml version="1.0" encoding="iso-8859-1"?>
<!-- Generator: Adobe Illustrator 15.1.0, SVG Export Plug-In . SVG Version: 6.00 Build 0)  -->
<!DOCTYPE svg PUBLIC "-//W3C//DTD SVG 1.1//EN" "http://www.w3.org/Graphics/SVG/1.1/DTD/svg11.dtd">
<svg version="1.1" id="tower_x5F_yellow_x5F_front_x5F_01.ai"
	 xmlns="http://www.w3.org/2000/svg" xmlns:xlink="http://www.w3.org/1999/xlink" x="0px" y="0px" width="108.55px"
	 height="270.65px" viewBox="0 0 108.55 270.65" style="enable-background:new 0 0 108.55 270.65;" xml:space="preserve">
<g>
	<path style="fill-rule:evenodd;clip-rule:evenodd;fill:#FCE5BC;" d="M72.4,193.85c2.233,10.801,3.267,25.95,3.1,45.45
		c-0.066,9.733-0.366,18.4-0.9,26l-17.149,1.45c-6.434-50.7-10.383-81.1-11.85-91.2c-0.934-6.333-2.7-14.633-5.3-24.899L36.65,137.1
		c9.233-2.066,14.15-3.399,14.75-4l8.5,20.65C66,169.684,70.167,183.05,72.4,193.85z"/>
	<path style="fill-rule:evenodd;clip-rule:evenodd;fill:#FCE5BC;" d="M108.55,8.95c-3.566,5.6-7.283,12.033-11.149,19.3
		c-7.767,14.6-12.384,26.167-13.851,34.7c-1.5,8.566-2.916,21.566-4.25,39c-0.666,8.7-1.184,16.55-1.55,23.55l-6.7,1.8
		c-1.033-7.6-1.816-16.233-2.35-25.9c-1.033-19.367-0.25-34.267,2.35-44.7c2.601-10.4,8.5-22.95,17.7-37.65
		c4.6-7.367,8.934-13.683,13-18.95L108.55,8.95z"/>
	
		<linearGradient id="SVGID_1_" gradientUnits="userSpaceOnUse" x1="31.2725" y1="131.9404" x2="74.1809" y2="131.9404" gradientTransform="matrix(0.9981 0.0623 -0.0623 0.9981 2.050102e-004 1.713634e-005)">
		<stop  offset="0" style="stop-color:#FAD898"/>
		<stop  offset="1" style="stop-color:#F7C568"/>
	</linearGradient>
	<path style="fill-rule:evenodd;clip-rule:evenodd;fill:url(#SVGID_1_);" d="M89.9,23.5C81.7,40.9,76.75,54.05,75.05,62.95
		c-1.666,8.933-2.833,22.333-3.5,40.2c-0.333,8.967-0.5,17.017-0.5,24.15L42.9,140.7l8.2,20.6c5.6,15.867,8.667,29.101,9.2,39.7
		c0.566,10.6,0.267,24.733-0.899,42.4c-0.601,8.866-1.25,16.649-1.95,23.35L0,270.65c3.8-1.101,8-3.884,12.6-8.351
		c9.167-8.934,15.7-21.783,19.6-38.55c3.9-16.733,3.95-30.9,0.15-42.5c-1.167-3.634-2.667-6.783-4.5-9.45l-2.35-2.95l-4.05-50.95
		l24.15-5.35L76.4,0l25.35,0.1C97.983,7,94.033,14.8,89.9,23.5z"/>
	<g>
		<polygon style="fill-rule:evenodd;clip-rule:evenodd;fill:#CEB071;" points="59.65,239.65 59.65,240.95 40.35,241.1 38.05,268.05 
			36.3,268.05 39,241.1 26.55,241.2 27.1,239.85 		"/>
		<polygon style="fill-rule:evenodd;clip-rule:evenodd;fill:#CEB071;" points="59.55,196.1 59.75,197.4 47.8,198.95 48.35,220.55 
			60.25,219.75 60.35,221.1 32.35,222.95 32.65,221.55 47,220.65 46.5,199.1 35.1,200.6 35.1,199.25 		"/>
		<polygon style="fill-rule:evenodd;clip-rule:evenodd;fill:#CEB071;" points="31.85,179.8 31.35,178.55 41.75,177.25 38.8,158.55 
			24.9,161.25 24.75,159.95 48.8,155.25 49.05,156.55 40.1,158.3 43.1,177.1 55.55,175.55 55.7,176.85 		"/>
		<polygon style="fill-rule:evenodd;clip-rule:evenodd;fill:#CEB071;" points="43.6,130.8 70.95,126.65 71.05,127.3 69,128.25 
			49.25,131.1 22.9,136 22.8,134.7 42.25,131.05 42.8,113.15 44.15,112.85 		"/>
		<polygon style="fill-rule:evenodd;clip-rule:evenodd;fill:#CEB071;" points="71.45,101.6 71.5,102.95 48,103.65 48.4,102.3 		"/>
		<polygon style="fill-rule:evenodd;clip-rule:evenodd;fill:#CEB071;" points="77.55,53.45 68.15,55.45 66.2,77.85 72.7,76.85 
			72.95,78.15 54.2,81 54.6,79.6 64.85,78.05 66.8,55.75 60.8,57 61.2,55.55 77.8,52.05 77.9,52.45 		"/>
		<polygon style="fill-rule:evenodd;clip-rule:evenodd;fill:#CEB071;" points="85.75,32.65 85.25,33.8 66.55,36 66.9,34.6 
			78.4,33.25 85.8,0.15 87.45,0.15 79.8,33.1 85.7,32.4 		"/>
	</g>
	<g>
		<polygon style="fill-rule:evenodd;clip-rule:evenodd;fill:#E0CCA6;" points="59.5,197.4 59.8,196.1 73.4,199.65 73.6,201.1 		"/>
		<polygon style="fill-rule:evenodd;clip-rule:evenodd;fill:#E0CCA6;" points="81.45,78.4 81.3,79.75 72.7,78.15 72.95,76.85 		"/>
		<polygon style="fill-rule:evenodd;clip-rule:evenodd;fill:#E0CCA6;" points="55.55,176.85 55.7,175.55 67.85,176.7 68.3,178.1 		
			"/>
		<polygon style="fill-rule:evenodd;clip-rule:evenodd;fill:#E0CCA6;" points="48.8,156.55 49.05,155.2 61.2,157.25 61.75,158.7 		
			"/>
		<polygon style="fill-rule:evenodd;clip-rule:evenodd;fill:#E0CCA6;" points="60.25,221.1 60.4,219.75 75.25,221.75 75.3,223.1 		
			"/>
		<polygon style="fill-rule:evenodd;clip-rule:evenodd;fill:#E0CCA6;" points="59.6,240.95 59.65,239.65 75.5,240.15 75.5,241.5 		
			"/>
		<polygon style="fill-rule:evenodd;clip-rule:evenodd;fill:#E0CCA6;" points="85.95,53.8 85.55,55.1 77.8,53.35 78.1,52.05 		"/>
		<polygon style="fill-rule:evenodd;clip-rule:evenodd;fill:#E0CCA6;" points="85.75,33.7 85.8,32.4 94.95,32.95 94.3,34.25 		"/>
		<polygon style="fill-rule:evenodd;clip-rule:evenodd;fill:#E0CCA6;" points="71.4,102.95 71.6,101.6 79.25,102.7 79.15,104.05 		
			"/>
	</g>
</g>
</svg>
