<?xml version="1.0" encoding="iso-8859-1"?>
<!-- Generator: Adobe Illustrator 15.1.0, SVG Export Plug-In . SVG Version: 6.00 Build 0)  -->
<!DOCTYPE svg PUBLIC "-//W3C//DTD SVG 1.1//EN" "http://www.w3.org/Graphics/SVG/1.1/DTD/svg11.dtd">
<svg version="1.1" id="tower_x5F_yellow_x5F_top_x5F_front_x5F_01.ai"
	 xmlns="http://www.w3.org/2000/svg" xmlns:xlink="http://www.w3.org/1999/xlink" x="0px" y="0px" width="189.35px"
	 height="178.3px" viewBox="0 0 189.35 178.3" style="enable-background:new 0 0 189.35 178.3;" xml:space="preserve">
<symbol  id="tower_x5F_yellow_x5F_top_x5F_front_x5F_01.ai_Assets_x2F_Layer_1_x2F__x3C_Path_x3E__x5F_56" viewBox="0 -56.5 132.65 56.543">
	<g id="Layer_1_2_">
		<path style="fill-rule:evenodd;clip-rule:evenodd;fill:#6C9EA9;" d="M87.75-19.1c17.367-8.7,32.333-18.017,44.9-27.95L79.2-56.5
			c-3.167,6.567-6.75,12.567-10.75,18C62.483-30.433,56.2-24.583,49.6-20.95C41.233-16.35,30.85-12,18.45-7.9
			C11.483-5.567,5.333-3.75,0-2.45C23.8,3.817,53.05-1.733,87.75-19.1z"/>
	</g>
</symbol>
<g>
	<polygon style="fill-rule:evenodd;clip-rule:evenodd;fill:#FCE5BC;" points="180.65,47.85 167.25,140.3 148.7,145.45 159.5,48.3 	
		"/>
	<g>
		<polygon style="fill-rule:evenodd;clip-rule:evenodd;fill:#E0CCA6;" points="169.95,49.45 171.25,49.55 170.3,62.4 178.85,60.4 
			178.6,61.8 157.45,66.9 157.6,65.45 168.95,62.75 		"/>
		<polygon style="fill-rule:evenodd;clip-rule:evenodd;fill:#E0CCA6;" points="167.6,97.35 167.9,79.55 155.85,82.3 155.75,82 
			155.9,80.95 176.55,76.25 176.35,77.65 169.25,79.25 168.95,97.05 173.7,95.9 173.45,97.35 153.65,102.1 153.6,101.7 153.7,100.7 
					"/>
		<polygon style="fill-rule:evenodd;clip-rule:evenodd;fill:#E0CCA6;" points="170.85,115.3 170.65,116.8 165.2,118.7 162.9,139.35 
			161.55,139.2 163.8,119.15 151.4,123.5 151.2,123 151.3,122.1 		"/>
	</g>
	
		<linearGradient id="SVGID_1_" gradientUnits="userSpaceOnUse" x1="28.5596" y1="100.9082" x2="151.842" y2="100.9082" gradientTransform="matrix(0.9999 -0.011 0.011 0.9999 2.613291e-005 1.214258e-004)">
		<stop  offset="0" style="stop-color:#FAD898"/>
		<stop  offset="1" style="stop-color:#F7C568"/>
	</linearGradient>
	<polygon style="fill-rule:evenodd;clip-rule:evenodd;fill:url(#SVGID_1_);" points="42.9,161.55 21.2,74.25 160.65,38.05 
		148.7,145.45 	"/>
	<g>
		<path style="fill-rule:evenodd;clip-rule:evenodd;fill:#CEB071;" d="M144.05,123.15l0.4-19.25l-32,6.25l-8.15,1.1l1.45,18.2
			l8.15-2.2L144.05,123.15z M67.85,100.1L47.5,102.95l2.85,17.3l9.25-0.4l23.45-7l0.35-0.05l-1.4-17L67.85,100.1z M103.5,89.1
			l-2.2-14L98,75.95l-28.5,3.7l-7.65,1.7l3.75,17.7l2-0.3l25.5-7.7L103.5,89.1z M93.35,92.35L83.3,95.4l1.45,17.199l27.45-3.8
			l7.7-1.5l-0.65-20.15l-6.45,1.55L93.35,92.35z M119,70.5v0.05l-16.4,4.25l2.2,14.05l7.7-1.45l22.55-5.4l9.4-0.45l-0.2-13.8
			l-19.1,1.2L119,70.5z M118.1,57.4l0.801,11.75l6.1-1.55l32.15-2l0.1,1.35l-11.65,0.7l0.2,13.85l9.851-0.5l0.05,1.35l-20.5,1
			l-14.601,3.5l0.601,20.2l32.2-6.25l0.149,0.95v0.35l-7.75,1.5l-0.45,19.4l5.75-0.8l0.101,0.899l-0.05,0.45l-25.851,3.5l2.4,19.65
			l-1.3,0.149l-2.4-19.6l-9.9,1.3L88,135.65l1.95,17.1l-1.3,0.15l-1.95-16.95l-27.6,3l-5.4,1l2.1,16.1l-1.35,0.2l-2.1-16.05
			L38.2,142.6l-0.35-1.3c6.066-0.967,13.083-2.184,21.05-3.649l27.8-3.051l17.75-4.8L103,111.45l-19.7,2.7l-23.5,7.05l-26.65,1.05
			l-0.35-1.3L49,120.3l-2.85-17.149L29,105.55l-0.35-1.3l35.65-5l-3.75-17.6L25,89.6l-0.3-1.3l18.6-4.15l-0.45-12.4l1.35-0.05
			l0.4,12.15l24.7-5.5l6.35-0.85l-1.3-11.95l1.35-0.15L77,77.35l20.75-2.7l19.85-5.15l-0.85-12L118.1,57.4z"/>
	</g>
	<polygon style="fill-rule:evenodd;clip-rule:evenodd;fill:#448793;" points="33.05,178.3 34.2,157.15 151.55,141.85 152.85,154.7 	
		"/>
	<g>
		<path style="fill-rule:evenodd;clip-rule:evenodd;fill:#AB8441;" d="M38.6,98.55l1.5-0.45c-0.434-0.233-0.85-0.566-1.25-1
			c-0.767-0.833-1.017-1.683-0.75-2.55c0.267-0.833,1.017-1.467,2.25-1.899c0.6-0.233,1.183-0.384,1.75-0.45
			c-0.1-0.434-0.15-0.95-0.15-1.55c0.033-1.167,0.367-2.101,1-2.8c0.633-0.7,1.6-1.233,2.9-1.6c0.667-0.2,1.267-0.333,1.8-0.4
			c-0.2-0.533-0.25-1.1-0.15-1.7c0.167-1.233,0.95-2.066,2.35-2.5c1.6-0.467,3.017,0.117,4.25,1.75c0.633,0.833,1.1,1.717,1.4,2.65
			l1.15-0.95c0.934-0.5,1.85-0.467,2.75,0.1c0.9,0.566,1.5,1.433,1.8,2.6c0.167,0.6,0.233,1.133,0.2,1.6l1.55-0.55
			c1.167-0.233,2.1,0,2.8,0.7c0.7,0.7,0.85,1.884,0.45,3.55C66,93.934,65.733,94.7,65.4,95.4l1.55-0.2c1.167,0.1,2.1,0.666,2.8,1.7
			c0.7,1.066,0.883,2.483,0.55,4.25c-0.167,0.866-0.4,1.633-0.7,2.3h1.2c0.967,0.267,1.8,1.1,2.5,2.5
			c0.7,1.399,0.934,3.184,0.7,5.35c-0.1,1.101-0.283,2.05-0.55,2.851l0.75-0.051c0.566,0.167,1.1,0.801,1.6,1.9
			c0.467,1.134,0.583,2.95,0.35,5.45c-0.133,1.267-0.316,2.416-0.55,3.45l0.8,0.75c0.567,0.699,0.917,1.616,1.05,2.75
			c0.133,1.133-0.1,2.366-0.7,3.699c-0.3,0.667-0.617,1.217-0.95,1.65l0.7,0.5c0.433,0.634,0.583,1.65,0.45,3.05
			c-0.133,1.4-0.75,2.351-1.85,2.851c-0.567,0.233-1.117,0.333-1.65,0.3l0.4,1.1c0.167,0.9,0.033,1.767-0.4,2.601
			c-0.4,0.833-1.333,1.199-2.8,1.1l-2.05-0.45c-0.667,1.9-1.617,3.134-2.85,3.7c-0.767,0.366-1.867,0.134-3.3-0.7l-1.9-1.3
			l-0.75,1.25c-0.7,0.866-1.566,1.333-2.6,1.4c-1.034,0.1-2.017-0.7-2.95-2.4l-1.05-2.6c-0.367,0.333-0.85,0.583-1.45,0.75
			c-1.167,0.366-2.317,0.166-3.45-0.601c-1.1-0.767-1.6-2.083-1.5-3.95l0.5-2.55c-0.3,0.066-0.683,0.033-1.15-0.1
			c-0.9-0.233-1.733-0.767-2.5-1.601c-0.767-0.833-0.967-2.25-0.6-4.25l0.75-2.8c-0.667,0.101-1.383,0.084-2.15-0.05
			c-1.5-0.233-2.467-0.884-2.9-1.95c-0.4-1.033-0.3-2.267,0.3-3.7l1.05-1.8c-0.333-0.1-0.684-0.316-1.05-0.649
			c-0.767-0.634-1.25-1.434-1.45-2.4c-0.2-0.967,0.066-2.233,0.8-3.8l1.2-2.05c-0.533,0.033-1.05-0.084-1.55-0.351
			c-1.033-0.533-1.517-1.533-1.45-3c0.066-1.467,0.566-2.399,1.5-2.8l1.35-0.2c-0.633-0.399-1.233-0.916-1.8-1.55
			c-1.167-1.233-1.566-2.45-1.2-3.65C36.783,99.9,37.5,99.05,38.6,98.55z"/>
		<path style="fill-rule:evenodd;clip-rule:evenodd;fill:#448793;" d="M52.3,86.8c3.333-0.3,7,2.367,11,8
			c3.767,5.3,6.733,11.65,8.9,19.05c2.3,7.834,2.933,14.517,1.9,20.051c-1.2,6.366-4.55,10.033-10.05,11
			c-5.533,1-10.367-1.351-14.5-7.051c-3.667-5.033-6.167-11.616-7.5-19.75c-1.3-7.966-1.117-14.933,0.55-20.899
			C44.467,90.667,47.7,87.2,52.3,86.8z"/>
		<path style="fill-rule:evenodd;clip-rule:evenodd;fill:#293F4D;" d="M54.8,90.9c2.3-0.267,4.7,2.183,7.2,7.35
			c2.333,4.8,4.133,10.566,5.4,17.3c1.333,7,1.65,12.884,0.95,17.65c-0.8,5.399-2.833,8.2-6.1,8.399
			c-3.367,0.2-6.683-2.216-9.95-7.25c-3.066-4.699-5.316-10.35-6.75-16.949c-1.466-6.9-1.55-12.733-0.25-17.5
			C46.8,94.434,49.967,91.434,54.8,90.9z"/>
	</g>
	<g>
		<path style="fill-rule:evenodd;clip-rule:evenodd;fill:#AB8441;" d="M98,84.65c0.7,0.667,1.033,1.684,1,3.05
			c0,0.667-0.066,1.267-0.2,1.8l1.851-0.5c1.366-0.067,2.416,0.55,3.149,1.85c0.7,1.301,0.8,2.517,0.3,3.65
			c-0.267,0.566-0.6,1-1,1.3l1.65,0.15c1.134,0.366,1.783,1.267,1.95,2.7c0.2,1.433,0.05,2.466-0.45,3.1
			c-0.233,0.333-0.483,0.517-0.75,0.55l1.2,0.8c0.8,0.801,1.149,1.884,1.05,3.25c-0.066,1.367-0.333,2.101-0.8,2.2l-0.65-0.2
			l1.9,2.15c1.2,1.733,1.583,3.45,1.149,5.15c-0.399,1.699-0.816,2.883-1.25,3.55c-0.233,0.333-0.416,0.5-0.55,0.5l1.3,2.05
			c0.767,1.6,0.934,3.083,0.5,4.45c-0.399,1.366-1.033,2.149-1.899,2.35l-1.15-0.1l0.2,2.55c-0.033,1.934-0.566,3.45-1.6,4.55
			c-1.034,1.101-1.983,1.4-2.851,0.9l-1-1.101l-1.75,2.15c-1.399,1.4-2.783,1.967-4.149,1.7c-1.333-0.233-2.333-0.851-3-1.851
			l-0.65-1.399c-0.433,0.233-0.967,0.399-1.6,0.5c-1.267,0.166-2.417-0.134-3.45-0.9c-1.034-0.767-1.534-1.916-1.5-3.45l0.3-2.05
			c-0.333,0.101-0.717,0.084-1.15-0.05c-0.9-0.267-1.6-0.983-2.1-2.15c-0.533-1.199-0.55-2.233-0.05-3.1l0.85-0.95
			c-0.533-0.033-1.083-0.217-1.65-0.55c-1.167-0.634-1.833-1.667-2-3.1c-0.167-1.434,0.05-2.367,0.65-2.801l0.95-0.25
			c-0.6-0.699-1.183-1.55-1.75-2.55c-1.167-2-1.65-3.717-1.45-5.149c0.167-1.434,0.583-2.233,1.25-2.4
			c0.333-0.1,0.65-0.05,0.95,0.15c-0.333-0.434-0.65-1-0.95-1.7c-0.6-1.367-0.816-2.684-0.65-3.95c0.167-1.267,0.7-2.184,1.6-2.75
			l1.25-0.5c-0.433-0.767-0.833-1.634-1.2-2.6c-0.7-1.9-0.85-3.267-0.45-4.101c0.433-0.866,1.033-1.467,1.8-1.8
			c0.4-0.167,0.75-0.25,1.05-0.25c-0.034-0.9,0.1-1.883,0.4-2.95c0.566-2.066,1.65-3.45,3.25-4.15c1.467-0.6,2.816-0.367,4.05,0.7
			c0.6,0.533,1.067,1.117,1.4,1.75l2.75-0.7C96.017,83.817,97.333,83.983,98,84.65z"/>
		<path style="fill-rule:evenodd;clip-rule:evenodd;fill:#448793;" d="M86.95,86.35c4-1.033,7.75,0.833,11.25,5.6
			c3.2,4.333,5.483,9.899,6.85,16.7c1.4,6.899,1.417,12.783,0.05,17.649c-1.533,5.5-4.55,8.334-9.05,8.5
			c-4.433,0.167-7.933-2.184-10.5-7.05c-2.2-4.1-3.517-9.5-3.95-16.2c-0.4-6.033-0.067-11.616,1-16.75
			C83.7,89.633,85.15,86.817,86.95,86.35z"/>
		<path style="fill-rule:evenodd;clip-rule:evenodd;fill:#293F4D;" d="M90,89.9c2.367-0.3,4.684,1.683,6.95,5.95
			c2.033,3.9,3.583,8.717,4.649,14.45c1.067,5.8,1.267,10.717,0.601,14.75c-0.733,4.5-2.45,6.8-5.15,6.9
			c-2.733,0.1-5.3-1.967-7.7-6.2c-2.167-3.8-3.767-8.483-4.8-14.05c-1-5.634-1.1-10.467-0.3-14.5C85.15,92.7,87.067,90.267,90,89.9z
			"/>
	</g>
	<g>
		<path style="fill-rule:evenodd;clip-rule:evenodd;fill:#AB8441;" d="M120,69.95l0.75-1.9c0.733-1.333,1.684-2.183,2.85-2.55
			c0.867-0.3,1.717-0.05,2.551,0.75c0.433,0.4,0.767,0.817,1,1.25l0.8-1c0.7-0.633,1.483-0.783,2.35-0.45c0.834,0.3,1.434,1,1.8,2.1
			c0.2,0.567,0.301,1.083,0.301,1.55l0.75-0.5c0.666-0.2,1.35,0.05,2.05,0.75c0.7,0.7,1,1.7,0.899,3
			c-0.033,0.667-0.149,1.267-0.35,1.8l1.3-0.25c1.033-0.067,1.867,0.2,2.5,0.8c0.634,0.6,0.8,1.784,0.5,3.55
			c-0.166,0.9-0.399,1.733-0.7,2.5l1.351,0.05c1,0.2,1.7,0.7,2.1,1.5c0.434,0.8,0.434,2,0,3.6c-0.233,0.833-0.5,1.567-0.8,2.2
			l1.5,0.2c1.1,0.434,1.833,1.3,2.2,2.6c0.366,1.3,0.149,2.634-0.65,4l-1.35,1.7l1.75,1c1.267,0.866,2.05,1.767,2.35,2.7
			c0.334,0.933-0.066,2.066-1.2,3.399l-1.8,1.7l1.4,0.65c0.967,0.6,1.55,1.35,1.75,2.25c0.2,0.933-0.283,1.933-1.45,3l-1.8,1.35
			l0.8,0.65c0.533,0.666,0.816,1.683,0.85,3.05c0.067,1.366-0.466,2.95-1.6,4.75L143,124l0.9,0.45c0.5,0.633,0.466,1.717-0.101,3.25
			s-1.633,2.517-3.2,2.95l-2.149,0.25l0.25,1.199c0,1.034-0.467,2.134-1.4,3.301c-0.899,1.133-2.083,1.416-3.55,0.85l-1.9-1.2
			l-0.05,1.601c-0.333,1.1-1.25,1.75-2.75,1.949c-1.467,0.2-2.633-0.483-3.5-2.05l-0.85-2.399l-0.75,1.55
			c-0.733,1-1.634,1.45-2.7,1.35c-1.066-0.066-1.884-1.184-2.45-3.35l-0.55-3.25c-0.134,0.3-0.384,0.45-0.75,0.45
			c-0.7,0.033-1.566-0.634-2.6-2c-1.034-1.367-1.483-2.9-1.351-4.601l0.55-2.2c-0.267,0.167-0.583,0.2-0.949,0.101
			c-0.733-0.134-1.284-0.767-1.65-1.9c-0.366-1.1-0.3-2.566,0.2-4.399l0.85-2.4c-0.267-0.1-0.533-0.35-0.8-0.75
			c-0.566-0.767-0.9-1.85-1-3.25s0.1-2.733,0.6-4l0.75-1.5c-0.233-0.066-0.449-0.25-0.649-0.55c-0.4-0.634-0.566-1.601-0.5-2.9
			c0.1-1.3,0.416-2.483,0.95-3.55l0.75-1.15c-0.334-0.166-0.65-0.483-0.95-0.949c-0.601-0.867-0.8-1.934-0.601-3.2
			c0.167-1.233,0.584-2.167,1.25-2.8c0.334-0.3,0.65-0.483,0.95-0.55c-0.967-0.934-1.45-2.05-1.45-3.35c0-0.9,0.434-1.65,1.301-2.25
			c0.433-0.3,0.866-0.517,1.3-0.65c-0.967-1.4-1.267-2.733-0.9-4c0.233-0.8,0.884-1.467,1.95-2c0.533-0.267,1.033-0.45,1.5-0.55
			c-0.233-0.3-0.417-0.7-0.55-1.2c-0.267-1-0.117-2.017,0.45-3.05c0.566-1.033,1.25-1.566,2.05-1.6
			C119.35,69.7,119.7,69.783,120,69.95z"/>
		<path style="fill-rule:evenodd;clip-rule:evenodd;fill:#448793;" d="M123.45,70c4.233-0.667,8.233,2.217,12,8.65
			c3.5,5.967,5.883,13.234,7.149,21.8c1.334,8.899,0.983,16.333-1.05,22.3c-2.333,6.833-6.55,10.267-12.649,10.3
			c-6.034,0.033-10.367-3.184-13-9.649c-2.2-5.4-3.051-12.517-2.551-21.351c0.434-7.767,1.717-14.983,3.851-21.65
			C119.3,73.767,121.384,70.3,123.45,70z"/>
		<path style="fill-rule:evenodd;clip-rule:evenodd;fill:#293F4D;" d="M124.95,75.75c3.633-0.267,6.767,2.267,9.399,7.6
			c2.4,4.833,3.9,10.817,4.5,17.95c0.634,7.2,0.134,13.351-1.5,18.45c-1.8,5.7-4.666,8.717-8.6,9.05c-3.9,0.367-6.9-2.149-9-7.55
			c-1.8-4.667-2.717-10.717-2.75-18.15c-0.033-6.966,0.684-13.149,2.15-18.55C120.717,78.85,122.65,75.917,124.95,75.75z"/>
	</g>
	<polygon style="fill-rule:evenodd;clip-rule:evenodd;fill:#CEB071;" points="159.2,50.75 158.55,59.9 22.9,80.9 21.65,74.65 	"/>
	<polygon style="fill-rule:evenodd;clip-rule:evenodd;fill:#E7C47D;" points="180.65,47.85 179.65,55.55 158.55,59.9 159.2,51.2 	
		"/>
	<path style="fill-rule:evenodd;clip-rule:evenodd;fill:#448793;" d="M0.05,72.4c-0.267-6.667,0.5-13.233,2.3-19.7
		c5.7-20.6,20.6-36.2,44.7-46.8C71.183-4.7,102.134-1,139.9,17c18.899,9,35.383,19.05,49.449,30.15L1,80.45
		C0.5,78.417,0.183,75.733,0.05,72.4z"/>
	<path style="fill-rule:evenodd;clip-rule:evenodd;fill:#3E7782;" d="M47.05,5.9c3-1.333,6.217-2.45,9.65-3.35
		c0.233,0.1-1.25,1.317-4.45,3.65c-4.7,3.5-8.5,6.45-11.4,8.85c-11.6,9.633-18.15,18-19.65,25.1c-1.534,7.267-1.833,15.467-0.9,24.6
		c0.5,4.567,1.133,8.417,1.9,11.55L20.35,77L1,80.45c-0.5-2.034-0.817-4.717-0.95-8.05c-0.267-6.667,0.5-13.233,2.3-19.7
		C8.05,32.1,22.95,16.5,47.05,5.9z"/>
	
		<use xlink:href="#tower_x5F_yellow_x5F_top_x5F_front_x5F_01.ai_Assets_x2F_Layer_1_x2F__x3C_Path_x3E__x5F_56"  width="132.65" height="56.543" y="-56.5" transform="matrix(1 0 0 -1 56.7002 0.1001)" style="overflow:visible;opacity:0.5;enable-background:new    ;"/>
	<polygon style="fill-rule:evenodd;clip-rule:evenodd;fill:#6C9EA9;" points="169.95,144.65 152.85,154.7 151.55,141.85 
		170.25,135.25 	"/>
	<g>
		<g>
			<path style="fill-rule:evenodd;clip-rule:evenodd;fill:#325F73;" d="M47.95,162.975c-0.028,0.157-0.145,0.582-0.35,1.275
				c-0.1,1,0.267,1.7,1.1,2.1c0.9,0.367,1.633-0.017,2.2-1.149l0.55-1.851l0.2,1.9c-0.167,1.267-1.066,1.833-2.7,1.7
				c-1.667-0.267-2.317-1.017-1.95-2.25C47.576,163.74,47.893,163.165,47.95,162.975z"/>
		</g>
	</g>
	<g>
		<g>
			<path style="fill-rule:evenodd;clip-rule:evenodd;fill:#325F73;" d="M68.8,156.15c0.034,0,0.067,0.583,0.1,1.75
				c0.3,1.199,1.033,1.85,2.2,1.949c1.066,0.134,1.767-0.583,2.1-2.149l0.25-2.351c0.033,0,0.25,0.75,0.65,2.25
				c0.066,1.601-0.767,2.551-2.5,2.851c-2,0.399-3.067-0.2-3.2-1.8C68.7,156.983,68.833,156.15,68.8,156.15z"/>
		</g>
	</g>
	<g>
		<g>
			<path style="fill-rule:evenodd;clip-rule:evenodd;fill:#325F73;" d="M60.475,166.85c0.069,0.154,0.211,0.388,0.425,0.7
				c0.434,0.634,0.95,0.934,1.55,0.9c0.6,0,0.95-0.483,1.05-1.45c0-0.934,0-1.417,0-1.45l0.6,1.351
				c0.167,0.966-0.283,1.6-1.35,1.899C61.375,169.344,60.617,168.693,60.475,166.85z"/>
		</g>
	</g>
	<g>
		<g>
			<path style="fill-rule:evenodd;clip-rule:evenodd;fill:#325F73;" d="M40.95,171.5l-0.05,0.7c0.033,0.5,0.25,0.816,0.65,0.95
				c0.667,0.233,1.1-0.284,1.3-1.551l0.1,0.95c-0.1,0.634-0.534,0.934-1.3,0.9c-0.733-0.033-1.066-0.367-1-1L40.95,171.5z"/>
		</g>
	</g>
	<g>
		<g>
			<path style="fill-rule:evenodd;clip-rule:evenodd;fill:#325F73;" d="M58.05,156.6c0.034,0,0.017,0.267-0.05,0.801
				c0.067,0.566,0.35,0.933,0.85,1.1c0.933,0.134,1.3-0.55,1.1-2.05l0.45,1.05c0.1,0.7-0.367,1.134-1.4,1.3
				c-0.933,0-1.367-0.366-1.3-1.1C57.967,156.967,58.083,156.6,58.05,156.6z"/>
		</g>
	</g>
	<g>
		<g>
			<path style="fill-rule:evenodd;clip-rule:evenodd;fill:#325F73;" d="M94.15,159.45c0.015,0.14-0.019,0.59-0.101,1.35
				c0.066,1,0.584,1.601,1.55,1.8c0.967,0.167,1.601-0.366,1.9-1.6l0.2-1.9l0.55,1.801c0.066,1.267-0.7,2.017-2.3,2.25
				c-1.733,0.1-2.534-0.5-2.4-1.801C93.943,160.255,94.144,159.621,94.15,159.45z"/>
		</g>
	</g>
	<g>
		<g>
			<path style="fill-rule:evenodd;clip-rule:evenodd;fill:#325F73;" d="M84.9,154.2c0.033,0,0,0.283-0.1,0.85
				c0.034,0.601,0.333,0.967,0.9,1.101c1.209,0.065,1.459-0.627,0.75-2.075c0.103,0.131,0.369,0.39,0.8,0.774
				c0.433,0.667,0,1.2-1.3,1.601c-1.067,0.033-1.55-0.334-1.45-1.101C84.8,154.583,84.933,154.2,84.9,154.2z"/>
		</g>
	</g>
	<g>
		<g>
			<path style="fill-rule:evenodd;clip-rule:evenodd;fill:#325F73;" d="M120.85,150.675c0.011,0.139-0.022,0.53-0.1,1.175
				c0.1,0.834,0.566,1.351,1.4,1.551c0.833,0.1,1.366-0.384,1.6-1.45c0.059-0.961,0.075-1.503,0.05-1.625l0.601,1.524
				c0.1,1.101-0.551,1.767-1.95,2c-1.5,0.101-2.2-0.416-2.101-1.55C120.672,151.387,120.839,150.845,120.85,150.675z"/>
		</g>
	</g>
	<g>
		<g>
			<path style="fill-rule:evenodd;clip-rule:evenodd;fill:#325F73;" d="M112.575,159.2c-0.027,0.046,0.048,0.246,0.225,0.6
				c0.2,0.4,0.45,0.617,0.75,0.65c0.5,0.1,0.834-0.384,1-1.45c0.334,1.066,0.033,1.616-0.899,1.65c-0.5,0.1-0.834-0.101-1-0.601
				C112.457,159.568,112.433,159.285,112.575,159.2z"/>
		</g>
	</g>
	<g>
		<g>
			<path style="fill-rule:evenodd;clip-rule:evenodd;fill:#325F73;" d="M106.3,150.7l-0.1,0.7c0.033,0.5,0.25,0.833,0.649,1
				c0.7,0.233,1.134-0.284,1.301-1.551l0.1,0.95c-0.066,0.601-0.483,0.884-1.25,0.851c-0.767-0.034-1.116-0.367-1.05-1L106.3,150.7z
				"/>
		</g>
	</g>
	<g>
		<g>
			<path style="fill-rule:evenodd;clip-rule:evenodd;fill:#325F73;" d="M142,147.2c0,0.033,0.083,0.283,0.25,0.75
				c0.267,0.467,0.634,0.684,1.1,0.649c0.733-0.033,0.967-0.733,0.7-2.1c0.033,0,0.184,0.316,0.45,0.95
				c0.1,0.633-0.2,1.083-0.9,1.35c-0.767,0.3-1.267,0.134-1.5-0.5C141.9,147.7,141.866,147.333,142,147.2z"/>
		</g>
	</g>
	<g>
		<g>
			<path style="fill-rule:evenodd;clip-rule:evenodd;fill:#325F73;" d="M138.85,152.625c-0.064,0.162-0.164,0.404-0.3,0.725
				c-0.133,0.733,0.15,1.25,0.851,1.551c0.767,0.199,1.267-0.15,1.5-1.051c0.073-0.664,0.115-1.081,0.125-1.25
				c0.038,0.164,0.18,0.564,0.425,1.2c0.1,0.9-0.517,1.417-1.851,1.55c-1.366-0.267-1.866-0.833-1.5-1.699
				C138.476,153.176,138.726,152.834,138.85,152.625z"/>
		</g>
	</g>
	<g>
		<g>
			<path style="fill-rule:evenodd;clip-rule:evenodd;fill:#448793;" d="M155.75,143.05l0.2,0.601
				c0.233,0.399,0.533,0.583,0.899,0.55c0.301,0.033,0.534-0.217,0.7-0.75c0.101-0.566,0.167-0.867,0.2-0.9
				c0.267,1.101,0.033,1.717-0.7,1.851c-0.6,0.267-1,0.116-1.2-0.45C155.616,143.35,155.583,143.05,155.75,143.05z"/>
		</g>
	</g>
	<g>
		<g>
			<path style="fill-rule:evenodd;clip-rule:evenodd;fill:#448793;" d="M156.425,149.15c0.004,0.097-0.004,0.279-0.024,0.55
				c0.066,0.467,0.333,0.717,0.8,0.75c0.733-0.033,0.916-0.617,0.55-1.75l0.5,0.75c0.167,0.533-0.116,0.934-0.85,1.2
				c-0.867,0.133-1.267-0.084-1.2-0.65C156.338,149.564,156.413,149.28,156.425,149.15z"/>
		</g>
	</g>
	<g>
		<g>
			<path style="fill-rule:evenodd;clip-rule:evenodd;fill:#448793;" d="M164.6,138.3l0.4,0.851c0.4,0.533,0.884,0.75,1.45,0.649
				c1.061-0.265,1.136-1.123,0.225-2.575c0.063,0.081,0.388,0.355,0.976,0.825c0.466,0.667,0.166,1.334-0.9,2
				c-0.866,0.434-1.483,0.267-1.85-0.5L164.6,138.3z"/>
		</g>
	</g>
	<g>
		<g>
			<path style="fill-rule:evenodd;clip-rule:evenodd;fill:#448793;" d="M162.45,143.775c-0.009,0.082,0.074,0.273,0.25,0.574
				c0.2,0.4,0.483,0.617,0.85,0.65c0.667,0,0.867-0.566,0.601-1.7c0,0.033,0.149,0.283,0.449,0.75
				c0.167,0.533-0.133,0.917-0.899,1.15c-0.566,0.133-0.95-0.05-1.15-0.55C162.404,144.185,162.371,143.893,162.45,143.775z"/>
		</g>
	</g>
	<g>
		<g>
			<path style="fill-rule:evenodd;clip-rule:evenodd;fill:#325F73;" d="M12.45,62.6L13.1,64c0.633,0.9,1.417,1.267,2.35,1.1
				c0.8,0,1.267-0.7,1.4-2.1c0-1.4,0.017-2.117,0.05-2.15c0.333-0.1,0.583,0.55,0.75,1.95c0.167,1.4-0.417,2.317-1.75,2.75
				c-1.333,0.7-2.333,0.434-3-0.8C12.233,63.45,12.083,62.733,12.45,62.6z"/>
		</g>
	</g>
	<g>
		<g>
			<path style="fill-rule:evenodd;clip-rule:evenodd;fill:#325F73;" d="M8.675,73.925C8.679,74.01,8.671,74.168,8.65,74.4
				c0.033,0.367,0.25,0.583,0.65,0.65c0.6,0.034,0.817-0.45,0.65-1.45l0.3,0.7c0.1,0.467-0.167,0.784-0.8,0.95
				c-0.7,0.067-1.034-0.15-1-0.65C8.587,74.258,8.662,74.033,8.675,73.925z"/>
		</g>
	</g>
	<g>
		<g>
			<path style="fill-rule:evenodd;clip-rule:evenodd;fill:#325F73;" d="M40.65,37.45c0.3,0.733,0.8,1.1,1.5,1.1
				c0.633,0.034,1.05-0.45,1.25-1.45l0.1-1.5c0.033,0,0.183,0.483,0.45,1.45c0.066,1-0.434,1.617-1.5,1.85
				c-1.1,0.367-1.784,0.05-2.05-0.95c-0.033-1.034-0.05-1.567-0.05-1.6C40.35,36.383,40.45,36.75,40.65,37.45z"/>
		</g>
	</g>
	<g>
		<g>
			<path style="fill-rule:evenodd;clip-rule:evenodd;fill:#325F73;" d="M48.35,60.05l0.1,0.8c0.167,0.566,0.483,0.883,0.95,0.95
				c0.434,0.1,0.783-0.2,1.05-0.9c0.2-0.7,0.3-1.066,0.3-1.1c0.433,1.434,0.05,2.184-1.15,2.25c-0.833,0.167-1.3-0.117-1.4-0.85
				L48.35,60.05z"/>
		</g>
	</g>
	<g>
		<g>
			<path style="fill-rule:evenodd;clip-rule:evenodd;fill:#325F73;" d="M70.8,40.45l0.15,0.75c0.2,0.5,0.533,0.767,1,0.8
				c0.733,0.067,1.05-0.583,0.95-1.95L73.25,41c0.067,0.667-0.3,1.1-1.1,1.3c-0.767,0.167-1.233-0.083-1.4-0.75
				C70.617,40.983,70.633,40.617,70.8,40.45z"/>
		</g>
	</g>
	<g>
		<g>
			<path style="fill-rule:evenodd;clip-rule:evenodd;fill:#325F73;" d="M75.25,60.05c-0.223-1.052-0.19-1.635,0.1-1.75
				c-0.108,0.081-0.041,0.497,0.2,1.25c0.3,0.867,0.8,1.367,1.5,1.5c0.7,0.2,1.267-0.216,1.7-1.25c0.333-1.1,0.5-1.667,0.5-1.7
				c0.033,0.033,0.1,0.617,0.2,1.75c-0.167,1.133-0.883,1.7-2.15,1.7C76.167,61.683,75.483,61.183,75.25,60.05z"/>
		</g>
	</g>
	<g>
		<g>
			<path style="fill-rule:evenodd;clip-rule:evenodd;fill:#325F73;" d="M63.45,22.35c0.167,1.1-0.617,1.733-2.35,1.9
				c-1.567-0.133-2.217-0.783-1.95-1.95c0.492-0.902,0.759-1.435,0.8-1.6c-0.015,0.139-0.115,0.539-0.3,1.2
				c-0.033,0.9,0.367,1.517,1.2,1.85c0.967,0.2,1.583-0.25,1.85-1.35c0.119-0.512,0.194-0.912,0.225-1.2
				C63.049,21.47,63.224,21.853,63.45,22.35z"/>
		</g>
	</g>
	<g>
		<g>
			<path style="fill-rule:evenodd;clip-rule:evenodd;fill:#325F73;" d="M59.6,49.9c-0.067,0.767,0.25,1.3,0.95,1.6
				c1.233,0.333,1.817-0.5,1.75-2.5l0.45,1.4c0.033,0.967-0.65,1.467-2.05,1.5c-1.333-0.167-1.85-0.717-1.55-1.65
				c0.43-0.683,0.68-1.116,0.75-1.3C59.861,49.1,59.761,49.416,59.6,49.9z"/>
		</g>
	</g>
	<g>
		<g>
			<path style="fill-rule:evenodd;clip-rule:evenodd;fill:#325F73;" d="M22,33.2l0.2,1.45c0.333,0.967,0.95,1.483,1.85,1.55
				c0.833,0.1,1.417-0.483,1.75-1.75c0.167-1.267,0.25-1.917,0.25-1.95c0.034,0,0.2,0.633,0.5,1.9c0,1.3-0.7,2.067-2.1,2.3
				c-1.5,0.333-2.367-0.15-2.6-1.45C21.95,33.917,22,33.233,22,33.2z"/>
		</g>
	</g>
	<g>
		<g>
			<path style="fill-rule:evenodd;clip-rule:evenodd;fill:#325F73;" d="M28.45,55.1l0.1,0.85c0.167,0.566,0.517,0.867,1.05,0.9
				c0.833,0.066,1.183-0.65,1.05-2.15l0.4,1.05c0.067,0.733-0.35,1.2-1.25,1.4c-0.867,0.167-1.35-0.117-1.45-0.85L28.45,55.1z"/>
		</g>
	</g>
	<g>
		<g>
			<path style="fill-rule:evenodd;clip-rule:evenodd;fill:#325F73;" d="M34.05,66.875V67.1c0.034,0.233,0.167,0.367,0.4,0.4
				c0.3,0.067,0.466-0.217,0.5-0.85c0.2,0.567,0.066,0.883-0.4,0.95c-0.433,0.066-0.633-0.05-0.6-0.35
				C34,67.083,34.033,66.958,34.05,66.875z"/>
		</g>
	</g>
	<g>
		<g>
			<path style="fill-rule:evenodd;clip-rule:evenodd;fill:#325F73;" d="M92.05,30l0.1,1.2c0.2,0.833,0.667,1.316,1.4,1.45
				c0.767,0.133,1.3-0.316,1.601-1.35l0.199-1.65l0.45,1.6c0,1.1-0.649,1.717-1.95,1.85c-1.333,0.167-2.033-0.3-2.1-1.4L92.05,30z"
				/>
		</g>
	</g>
	<g>
		<g>
			<path style="fill-rule:evenodd;clip-rule:evenodd;fill:#325F73;" d="M108.575,48.125c-0.013,0.196-0.087,0.604-0.226,1.225
				c0,0.967,0.483,1.566,1.45,1.8c1,0.1,1.601-0.45,1.8-1.65l0.051-1.825c0.024,0.115,0.258,0.673,0.699,1.675
				c0.2,1.233-0.517,2-2.149,2.3c-1.834,0-2.617-0.617-2.351-1.85C108.276,48.923,108.519,48.365,108.575,48.125z"/>
		</g>
	</g>
	<g>
		<g>
			<path style="fill-rule:evenodd;clip-rule:evenodd;fill:#325F73;" d="M97.45,57.25l0.1,0.9c0.2,0.6,0.584,0.934,1.15,1
				c0.866,0.1,1.267-0.667,1.2-2.3l0.35,1.15c0.033,0.8-0.417,1.283-1.35,1.45c-0.934,0.2-1.45-0.117-1.551-0.95L97.45,57.25z"/>
		</g>
	</g>
	<g>
		<g>
			<path style="fill-rule:evenodd;clip-rule:evenodd;fill:#325F73;" d="M81.7,23.65c-0.232-0.896-0.232-1.346,0-1.35
				c-0.131,0.005-0.065,0.322,0.2,0.95c0.267,0.6,0.7,0.917,1.3,0.95c0.566,0.066,0.95-0.333,1.15-1.2l0.1-1.3
				c0.033,0,0.167,0.417,0.4,1.25c0.066,0.867-0.4,1.4-1.4,1.6C82.517,24.817,81.933,24.517,81.7,23.65z"/>
		</g>
	</g>
	<g>
		<g>
			<path style="fill-rule:evenodd;clip-rule:evenodd;fill:#325F73;" d="M88.05,45.875L88,46.45c0.033,0.466,0.25,0.767,0.65,0.9
				c0.786,0.131,1.119-0.377,1-1.525C89.69,45.931,89.807,46.19,90,46.6c0.1,0.566-0.3,0.9-1.2,1c-0.767,0-1.117-0.3-1.05-0.9
				C87.913,46.281,88.013,46.006,88.05,45.875z"/>
		</g>
	</g>
	<g>
		<g>
			<path style="fill-rule:evenodd;clip-rule:evenodd;fill:#325F73;" d="M53.4,32.45l0.05,3.1C53.85,37.717,55,39,56.9,39.4
				c1.833,0.467,3.233-0.617,4.2-3.25c0.566-2.7,0.85-4.066,0.85-4.1c0.033,0,0.283,1.367,0.75,4.1c-0.2,2.767-1.917,4.233-5.15,4.4
				c-3.3,0.267-4.983-1-5.05-3.8L53.4,32.45z"/>
		</g>
	</g>
	<g>
		<g>
			<path style="fill-rule:evenodd;clip-rule:evenodd;fill:#325F73;" d="M37.15,49.85c0.013,0.145-0.021,0.561-0.1,1.25
				c0.1,0.9,0.567,1.45,1.4,1.65c0.933,0.133,1.5-0.383,1.7-1.55c0.026-0.892,0.035-1.434,0.025-1.625
				c0.06,0.184,0.285,0.692,0.675,1.525c0.2,1.133-0.5,1.85-2.1,2.15c-1.533,0.067-2.25-0.483-2.15-1.65
				C36.958,50.609,37.141,50.026,37.15,49.85z"/>
		</g>
	</g>
	<g>
		<g>
			<path style="fill-rule:evenodd;clip-rule:evenodd;fill:#325F73;" d="M14.1,48.25c0.033,0,0.083,0.267,0.15,0.8
				c0.2,0.5,0.55,0.767,1.05,0.8c0.867-0.067,1.083-0.783,0.65-2.15l0.55,0.9c0.233,0.667-0.1,1.167-1,1.5
				c-0.9,0.233-1.383,0-1.45-0.7C14.117,48.633,14.133,48.25,14.1,48.25z"/>
		</g>
	</g>
	<g>
		<g>
			<path style="fill-rule:evenodd;clip-rule:evenodd;fill:#325F73;" d="M25.875,70.225c-0.029,0.097-0.087,0.255-0.175,0.475
				c-0.1,0.333,0.017,0.6,0.35,0.8c0.567,0.267,0.934-0.1,1.1-1.1l0.05,0.75c-0.067,0.467-0.417,0.667-1.05,0.6
				c-0.667-0.167-0.9-0.483-0.7-0.95C25.678,70.526,25.82,70.334,25.875,70.225z"/>
		</g>
	</g>
	<g>
		<g>
			<path style="fill-rule:evenodd;clip-rule:evenodd;fill:#325F73;" d="M42.4,17.95c0.369-1.534,0.569-2.417,0.6-2.65
				c0.026,0.233,0.209,1.117,0.55,2.65c-0.1,1.833-1.417,2.7-3.95,2.6c-2.6-0.533-3.517-1.667-2.75-3.4
				c0.838-1.118,1.347-1.843,1.525-2.175c-0.097,0.279-0.322,0.837-0.675,1.675c-0.267,1.434,0.25,2.45,1.55,3.05
				C40.683,20.233,41.733,19.65,42.4,17.95z"/>
		</g>
	</g>
	<g>
		<g>
			<path style="fill-rule:evenodd;clip-rule:evenodd;fill:#325F73;" d="M107.8,33.1l0.15,2c0.366,1.333,1.166,2.1,2.399,2.3
				c1.267,0.167,2.101-0.617,2.5-2.35l0.2-2.7c0,0.033,0.283,0.9,0.851,2.6c0.1,1.733-0.917,2.783-3.051,3.15
				c-2.133,0.333-3.283-0.4-3.449-2.2L107.8,33.1z"/>
		</g>
	</g>
	<g>
		<g>
			<path style="fill-rule:evenodd;clip-rule:evenodd;fill:#448793;" d="M141.5,43.75l0.25,1.55c0.366,1.067,1.05,1.633,2.05,1.7
				c0.967,0.1,1.584-0.55,1.851-1.95l0.1-2.15l0.75,2c0.134,1.4-0.634,2.283-2.3,2.65c-1.667,0.367-2.617-0.15-2.851-1.55
				L141.5,43.75z"/>
		</g>
	</g>
	<g>
		<g>
			<path style="fill-rule:evenodd;clip-rule:evenodd;fill:#448793;" d="M137.05,29.45c0.033,0,0.084,0.367,0.15,1.1
				c0.2,0.767,0.684,1.167,1.45,1.2s1.183-0.467,1.25-1.5l-0.101-1.5l0.7,1.35c0.2,0.967-0.316,1.65-1.55,2.05
				c-1.267,0.3-1.95-0.066-2.05-1.1C137.033,29.983,137.083,29.45,137.05,29.45z"/>
		</g>
	</g>
	<g>
		<g>
			<path style="fill-rule:evenodd;clip-rule:evenodd;fill:#448793;" d="M163.6,43.5c0.934,0.033,1.467-0.567,1.601-1.8
				c0-1.135-0.017-1.76-0.05-1.875l0.8,1.675c0.233,1.233-0.417,2.05-1.95,2.45c-1.5,0.367-2.35-0.067-2.55-1.3l0.1-2l0.25,1.4
				C162.134,42.983,162.733,43.467,163.6,43.5z"/>
		</g>
	</g>
	<g>
		<g>
			<path style="fill-rule:evenodd;clip-rule:evenodd;fill:#448793;" d="M149.6,30.5c0.034,0,0.034,0.183,0,0.55
				c0.034,0.4,0.233,0.633,0.601,0.7c0.7,0.033,0.899-0.45,0.6-1.45l0.4,0.65c0.133,0.466-0.15,0.8-0.851,1
				c-0.699,0.066-1.017-0.15-0.949-0.65C149.566,30.767,149.634,30.5,149.6,30.5z"/>
		</g>
	</g>
	<g>
		<g>
			<path style="fill-rule:evenodd;clip-rule:evenodd;fill:#448793;" d="M153.15,46.9c0.654-1.334,1.013-2.143,1.074-2.425
				c-0.016,0.232-0.124,0.823-0.324,1.775c0,1.367,0.649,2.233,1.949,2.6c1.534,0.233,2.4-0.517,2.601-2.25
				c0.086-0.736,0.137-1.319,0.149-1.75c-0.326-0.554-0.46-0.82-0.399-0.8c0.293-0.382,0.426-0.116,0.399,0.8
				c0.216,0.356,0.516,0.839,0.9,1.45c0.5,1.667-0.566,2.75-3.2,3.25C153.866,49.483,152.816,48.6,153.15,46.9z"/>
		</g>
	</g>
	<g>
		<g>
			<path style="fill-rule:evenodd;clip-rule:evenodd;fill:#448793;" d="M121.725,28.625l0.325,0.875c0.367,0.6,0.867,0.85,1.5,0.75
				c0.634-0.133,0.9-0.633,0.8-1.5l-0.3-1.3l0.8,1.1c0.334,0.8,0,1.45-1,1.95c-1,0.467-1.649,0.267-1.949-0.6
				C121.825,29.226,121.767,28.801,121.725,28.625z"/>
		</g>
	</g>
	<g>
		<g>
			<path style="fill-rule:evenodd;clip-rule:evenodd;fill:#448793;" d="M131.25,39.1l-0.1,0.8c0.066,0.6,0.383,0.983,0.949,1.15
				c1.091,0.132,1.44-0.584,1.051-2.15c0.061,0.107,0.276,0.441,0.649,1c0.233,0.767-0.267,1.267-1.5,1.5
				c-1.066,0-1.55-0.4-1.45-1.2C131.068,39.617,131.202,39.25,131.25,39.1z"/>
		</g>
	</g>
	<g>
		<g>
			<path style="fill-rule:evenodd;clip-rule:evenodd;fill:#448793;" d="M101.775,8.125c0.121,0.302,0.296,0.727,0.524,1.275
				c0.134,1.233-0.7,1.95-2.5,2.15c-1.6-0.033-2.333-0.683-2.2-1.95c0.434-1.3,0.634-1.95,0.601-1.95c0.033,0,0,0.467-0.101,1.4
				c0.067,1,0.534,1.65,1.4,1.95c1.033,0.2,1.7-0.317,2-1.55C101.649,8.88,101.741,8.438,101.775,8.125z"/>
		</g>
	</g>
	<g>
		<g>
			<path style="fill-rule:evenodd;clip-rule:evenodd;fill:#448793;" d="M81.75,5.05c0.096-0.545,0.096-1.087,0-1.625
				c0.061,0.159,0.278,0.651,0.65,1.475c0.2,1.067-0.417,1.783-1.85,2.15c-1.566,0.133-2.3-0.367-2.2-1.5
				c0.3-0.784,0.475-1.3,0.525-1.55c-0.007,0.2-0.032,0.566-0.075,1.1c0.1,0.867,0.583,1.367,1.45,1.5
				C81.117,6.667,81.617,6.15,81.75,5.05z"/>
		</g>
	</g>
	<g>
		<g>
			<path style="fill-rule:evenodd;clip-rule:evenodd;fill:#448793;" d="M173.925,42.7c0,0.123-0.024,0.423-0.075,0.9
				c0.067,0.7,0.434,1.117,1.101,1.25c1.1,0.066,1.467-0.783,1.1-2.55c0,0.034,0.2,0.434,0.601,1.2c0.199,0.833-0.284,1.4-1.45,1.7
				c-1.2,0.1-1.767-0.3-1.7-1.2C173.765,43.287,173.906,42.853,173.925,42.7z"/>
		</g>
	</g>
	<g>
		<g>
			<path style="fill-rule:evenodd;clip-rule:evenodd;fill:#448793;" d="M145.3,23.45c0.033,0.033-0.033,0.167-0.2,0.4
				c-0.066,0.267,0.017,0.483,0.25,0.65c0.434,0.2,0.717-0.083,0.851-0.85l0.05,0.55c-0.066,0.367-0.35,0.517-0.85,0.45
				c-0.534-0.167-0.7-0.417-0.5-0.75C145.2,23.633,145.333,23.483,145.3,23.45z"/>
		</g>
	</g>
	<g>
		<g>
			<path style="fill-rule:evenodd;clip-rule:evenodd;fill:#448793;" d="M70.1,3.45c0,0.033,0.05,0.233,0.15,0.6
				c0.133,0.333,0.367,0.517,0.7,0.55c0.3,0.033,0.517-0.184,0.65-0.65c0.1-0.5,0.167-0.75,0.2-0.75
				c0.267,0.933,0.034,1.45-0.7,1.55c-0.567,0.133-0.9-0.033-1-0.5C70.1,3.75,70.1,3.483,70.1,3.45z"/>
		</g>
	</g>
	<g>
		<g>
			<path style="fill-rule:evenodd;clip-rule:evenodd;fill:#325F73;" d="M59.35,9.6l0.1,0.95c0.167,0.667,0.55,1.034,1.15,1.1
				c0.6,0.1,0.983-0.283,1.15-1.15l0.1-1.3l0.45,1.25c0.067,0.833-0.417,1.35-1.45,1.55c-1.033,0.167-1.6-0.183-1.7-1.05L59.35,9.6z
				"/>
		</g>
	</g>
	<path style="fill-rule:evenodd;clip-rule:evenodd;fill:#A2BEC6;" d="M127.4,83.7c0.366-1.2,1.149-1.333,2.35-0.4
		c1.267,0.967,2.583,2.767,3.95,5.4c1.166,2.233,1.666,5.733,1.5,10.5c-0.101,2.399-0.316,4.566-0.65,6.5
		c-0.166-5.967-0.616-10.816-1.35-14.55c-0.467-2.333-1.566-4.267-3.3-5.8L127.4,83.7z"/>
	<path style="fill-rule:evenodd;clip-rule:evenodd;fill:#A2BEC6;" d="M93.8,95.65c-0.767-0.867-1.033-1.25-0.8-1.15
		c2.2,0.833,3.934,3.8,5.2,8.9c0.633,2.566,1.05,5.033,1.25,7.399c-1.4-5.2-2.467-8.916-3.2-11.149
		C95.816,98.384,95,97.05,93.8,95.65z"/>
	<path style="fill-rule:evenodd;clip-rule:evenodd;fill:#A2BEC6;" d="M55.9,94.85c0.4-0.566,1.25-0.133,2.55,1.301
		c1.1,1.267,2.083,2.699,2.95,4.3c0.967,1.767,2.117,7.083,3.45,15.95c-2.1-7-3.667-11.983-4.7-14.95
		c-0.566-1.634-1.566-3.15-3-4.55C56.083,95.9,55.667,95.217,55.9,94.85z"/>
	<g>
		<path style="fill-rule:evenodd;clip-rule:evenodd;fill:#325F73;" d="M1,80.45c-0.533-2.233-0.85-5.167-0.95-8.8L135.9,56.6
			L1,80.45z"/>
	</g>
	<g>
		<polygon style="fill-rule:evenodd;clip-rule:evenodd;fill:#325F73;" points="33.05,178.3 33.5,170.1 152.85,154.7 		"/>
	</g>
</g>
</svg>
