<?xml version="1.0" encoding="iso-8859-1"?>
<!-- Generator: Adobe Illustrator 15.1.0, SVG Export Plug-In . SVG Version: 6.00 Build 0)  -->
<!DOCTYPE svg PUBLIC "-//W3C//DTD SVG 1.1//EN" "http://www.w3.org/Graphics/SVG/1.1/DTD/svg11.dtd">
<svg version="1.1" id="tree_x5F_front_x5F_02.ai" xmlns="http://www.w3.org/2000/svg" xmlns:xlink="http://www.w3.org/1999/xlink"
	 x="0px" y="0px" width="214.7px" height="460.25px" viewBox="0 0 214.7 460.25" style="enable-background:new 0 0 214.7 460.25;"
	 xml:space="preserve">
<g>
	<path style="fill-rule:evenodd;clip-rule:evenodd;fill:#C48A6A;" d="M167.1,19.15c5.967-1,10.867,0.033,14.7,3.1
		c3.834,3.067,7.767,7.217,11.8,12.45c2.034,2.6,3.667,4.9,4.9,6.9l2.15-0.25c1.733-0.1,3.35,0.1,4.85,0.6
		c4.9,1.533,7.866,5.633,8.9,12.3c1.033,6.667-0.75,12.9-5.351,18.7c-1.434,1.8-3.066,3.45-4.899,4.95l-2.301,1.7l1.301,1.05
		c1.033,1,2,2.167,2.899,3.5c2.767,4.333,4.15,9.7,4.15,16.1s-2.634,11.983-7.9,16.75c-1.666,1.5-3.483,2.817-5.45,3.95l-2.5,1.3
		l1.7,1.3c1.334,1.133,2.533,2.45,3.601,3.95c3.5,4.767,5.066,10.35,4.699,16.75c-0.333,6.4-4.05,11.65-11.149,15.75
		c-2.2,1.3-4.617,2.4-7.25,3.3l-3.3,0.95l1,3.25c0.666,2.667,1.05,5.3,1.149,7.9c0.233,8.267-2.55,14.55-8.35,18.85
		c-6.4,4.733-13.884,6.383-22.45,4.95c-2.667-0.467-5.283-1.2-7.85-2.2l-3.051-1.4c-2.133,1.433-4.783,2.933-7.949,4.5
		c-6.367,3.1-12.15,4.933-17.351,5.5c-5.233,0.533-10.333-2.533-15.3-9.2c-1.567-2.066-3.017-4.383-4.35-6.95l-1.55-3.2
		c-0.967,0.767-2.4,1.517-4.3,2.25c-3.733,1.433-7.867,2.017-12.4,1.75s-9.233-5.117-14.1-14.55c-1.533-2.967-2.983-6.2-4.35-9.7
		l-1.6-4.4c-1.667,0.433-3.817,0.717-6.45,0.85c-5.3,0.2-10.383-0.534-15.25-2.2s-7.033-7.933-6.5-18.8c0.167-3.4,0.6-7.067,1.3-11
		l1-4.85c-4.867-0.434-9.9-1.434-15.1-3c-10.434-3.133-16.533-7.467-18.3-13c-1.733-5.567,0.534-12.017,6.8-19.35
		c1.967-2.3,4.2-4.55,6.7-6.75l3.2-2.6c-3.067-3-5.783-6.5-8.15-10.5c-4.7-8-5.317-14.5-1.85-19.5s9.25-8.383,17.35-10.15
		c4.033-0.867,7.717-1.25,11.05-1.15c-0.967-2.434-1.417-5.217-1.35-8.35c0.133-6.233,2.8-11.017,8-14.35
		c5.233-3.333,12.934-4.217,23.1-2.65c5.067,0.8,9.617,1.917,13.65,3.35c-0.1-0.567-0.1-1.3,0-2.2c0.2-1.8,0.75-3.5,1.65-5.1
		c2.867-5.167,8.733-8.517,17.6-10.05c4.867-0.833,10.084,0.367,15.65,3.6c2.8,1.6,5.1,3.283,6.899,5.05l1.4-1.4
		c1.2-1.1,2.533-2.05,4-2.85c4.733-2.533,9.884-3.117,15.45-1.75c5.6,1.4,10.2,4.934,13.8,10.6c1.8,2.833,3.05,5.533,3.75,8.1
		l2.25-0.95C163.333,19.983,165.2,19.483,167.1,19.15z"/>
	<g>
		<path style="fill-rule:evenodd;clip-rule:evenodd;fill:#C0815F;" d="M191.65,135.05c0.966-2.867,1.699-5.85,2.199-8.95l0.5-3.85
			l1.551,1.5c1.333,1.3,2.699,2.7,4.1,4.2c3.233,4.667,4.684,10.1,4.35,16.3c-0.333,6.4-4.05,11.65-11.149,15.75
			c-2.2,1.3-4.617,2.4-7.25,3.3l-3.3,0.95l1,3.25c0.666,2.667,1.05,5.3,1.149,7.9c0.233,8.267-2.55,14.55-8.35,18.85
			c-6.4,4.733-13.884,6.383-22.45,4.95c-2.667-0.467-5.283-1.2-7.85-2.2l-3.051-1.4c-2.133,1.433-4.783,2.933-7.949,4.5
			c-6.367,3.1-12.15,4.933-17.351,5.5c-5.233,0.533-10.333-2.533-15.3-9.2c-1.567-2.066-3.017-4.383-4.35-6.95l-1.55-3.2
			c-0.967,0.767-2.4,1.517-4.3,2.25c-3.733,1.433-7.867,2.017-12.4,1.75s-9.233-5.117-14.1-14.55c-1.533-2.967-2.983-6.2-4.35-9.7
			l-1.6-4.4c-1.667,0.433-3.817,0.717-6.45,0.85c-5.3,0.2-10.383-0.534-15.25-2.2s-7.033-7.933-6.5-18.8c0.167-3.4,0.6-7.067,1.3-11
			l1-4.85c-4.867-0.434-9.9-1.434-15.1-3c-10.434-3.133-16.533-7.467-18.3-13c-1.733-5.567,0.534-12.017,6.8-19.35
			c1.967-2.3,4.2-4.55,6.7-6.75l3.2-2.6c-3.067-3-5.783-6.5-8.15-10.5c-4.7-8-5.317-14.5-1.85-19.5s9.25-8.383,17.35-10.15
			c4.033-0.867,7.717-1.25,11.05-1.15c-0.967-2.434-1.417-5.217-1.35-8.35c0.133-6.233,2.8-11.017,8-14.35
			c5.233-3.333,12.934-4.217,23.1-2.65c5.067,0.8,9.617,1.917,13.65,3.35c-0.1-0.567-0.1-1.3,0-2.2c0.2-1.8,0.75-3.5,1.65-5.1
			c2.867-5.167,8.733-8.517,17.6-10.05c4.867-0.833,10.084,0.367,15.65,3.6c2.8,1.6,5.1,3.283,6.899,5.05
			c-3.666-0.967-7.5-1.467-11.5-1.5c-8.033-0.033-12.883,2.35-14.55,7.15c-1.667,4.8-1.417,8.983,0.75,12.55
			c1.1,1.8,2.35,3.117,3.75,3.95c-4.5-1.733-9.367-2.767-14.6-3.1c-10.5-0.667-17.633,2.533-21.4,9.6
			c-3.733,7.1-1.767,13.817,5.9,20.15c3.833,3.167,8.033,5.617,12.6,7.35l-4.45,12.4c-2.567,9-2.917,15.367-1.05,19.1
			c1.867,3.767,4.684,6.15,8.45,7.15c1.867,0.5,3.55,0.617,5.05,0.35l-1.25,4.15c-0.867,3.4-1.466,6.617-1.8,9.65
			c-1.1,9.767,0.75,16,5.55,18.7c4.8,2.7,9.4,3.35,13.8,1.95c2.233-0.7,3.966-1.683,5.2-2.95l0.3,4.15
			c0.334,3.367,0.884,6.466,1.65,9.3c2.4,9.067,6.417,13.917,12.05,14.55c5.634,0.633,11.233-1.183,16.8-5.45
			c2.801-2.1,5.034-4.283,6.7-6.55l2.25,1.2c1.967,0.933,4.033,1.667,6.2,2.2c6.9,1.667,13.583,1.033,20.05-1.9
			C183.767,150.15,188.55,144.15,191.65,135.05z"/>
	</g>
	<path style="fill-rule:evenodd;clip-rule:evenodd;fill:#B56C4C;" d="M69.3,154.55l3.55,9.5c2.933,6.833,5.75,11.5,8.45,14
		c2.7,2.5,6.017,3.5,9.95,3c1.967-0.233,3.65-0.733,5.05-1.5l-4.35,3.75c-3.667,2.333-7.383,3.083-11.15,2.25
		c-3.733-0.833-6.767-6.25-9.1-16.25L69.3,154.55z"/>
	<path style="fill-rule:evenodd;clip-rule:evenodd;fill:#B56C4C;" d="M16.85,48.3c2.3-1.5,4.617-2.583,6.95-3.25
		c-4.133,3.633-6.367,7.767-6.7,12.4c-0.3,4.333,1.1,8.7,4.2,13.1c2.5,3.534,5.917,6.6,10.25,9.2c2.167,1.3,4.083,2.233,5.75,2.8
		c-1.5,0.333-3.233,0.517-5.2,0.55c-3.9,0.1-7-0.583-9.3-2.05c-3.066-1.966-5.767-4.816-8.1-8.55c-2.7-4.3-4.167-8.783-4.4-13.45
		C10.1,54.883,12.283,51.3,16.85,48.3z"/>
	<path style="fill-rule:evenodd;clip-rule:evenodd;fill:#B56C4C;" d="M7.3,102.05c1.667,4.367,6.833,9.017,15.5,13.95
		c4.333,2.467,8.5,4.483,12.5,6.05c-2.5-0.333-5.283-0.833-8.35-1.5c-6.167-1.333-10.717-2.833-13.65-4.5
		c-2.9-1.667-4.767-4.5-5.6-8.5L7.3,102.05z"/>
	<path style="fill-rule:evenodd;clip-rule:evenodd;fill:#B56C4C;" d="M38.8,138.05l1,3.65c1.167,3,3,5.95,5.5,8.85
		c2.5,2.934,5.583,5.15,9.25,6.65c1.833,0.733,3.417,1.183,4.75,1.35c-1.5,0.333-3.316,0.517-5.45,0.55
		c-4.233,0.1-7.917-0.583-11.05-2.05c-3.133-1.466-4.733-5.066-4.8-10.8L38.8,138.05z"/>
	<path style="fill-rule:evenodd;clip-rule:evenodd;fill:#B56C4C;" d="M170.8,137.05c3.334,0,7.5-1.5,12.5-4.5
		c2.5-1.5,4.667-3,6.5-4.5c-2,2.667-4.366,5.333-7.1,8c-5.5,5.333-10.134,8-13.9,8c-3.733,0-7.1-1.667-10.1-5l-3.4-5l4.75,1.5
		C163.884,136.55,167.467,137.05,170.8,137.05z"/>
	<path style="fill-rule:evenodd;clip-rule:evenodd;fill:#B56C4C;" d="M104.3,84.55c0,1,0.65,3.167,1.95,6.5
		c1.667,4.333,3.684,8,6.05,11c2.3,2.934,5.4,5.733,9.3,8.4c1.967,1.333,3.7,2.367,5.2,3.1c-1.399,0-3.166-0.233-5.3-0.7
		c-4.267-0.9-8.167-2.5-11.7-4.8c-3.533-2.3-5.517-6.9-5.95-13.8c-0.133-2.167-0.1-4.433,0.1-6.8L104.3,84.55z"/>
	<path style="fill-rule:evenodd;clip-rule:evenodd;fill:#CD9E7E;" d="M133.3,11.05c1.834-3.167,4.8-4.15,8.9-2.95
		c4.233,1.267,7.434,4.417,9.6,9.45c1.867,4.367,2.017,9.1,0.45,14.2c-0.8,2.533-1.783,4.633-2.95,6.3c0-1.667-0.116-3.6-0.35-5.8
		c-0.5-4.433-1.384-8-2.65-10.7c-1.233-2.7-3.767-5.267-7.6-7.7L133.3,11.05z"/>
	<path style="fill-rule:evenodd;clip-rule:evenodd;fill:#CD9E7E;" d="M178.8,52.55c3.2,0,6.267,1.167,9.2,3.5
		c3.333,2.667,4.767,5.833,4.3,9.5c-0.399,3.333-2.767,6.667-7.1,10l-6.4,4l1.55-3.35c1.434-2.833,3.084-5.717,4.95-8.65
		c1.867-2.9,1.351-6.267-1.55-10.1L178.8,52.55z"/>
	<path style="fill-rule:evenodd;clip-rule:evenodd;fill:#B56C4C;" d="M120.05,62.1l1.25-6.55c-0.399,3.333,1.15,8.5,4.65,15.5
		c1.733,3.5,3.517,6.667,5.35,9.5c-0.899-0.066-1.983-0.417-3.25-1.05c-2.5-1.267-4.583-3.25-6.25-5.95
		C120.134,70.85,119.55,67.033,120.05,62.1z"/>
	<g>
		<g>
			<path style="fill-rule:evenodd;clip-rule:evenodd;fill:#9B5E3A;" d="M122.4,41.15c-0.634-0.667-1.217-1.6-1.75-2.8
				c-1.067-2.434-1.334-4.833-0.801-7.2c0.534-2.367,1.601-4.183,3.2-5.45c0.8-0.6,1.55-0.983,2.25-1.15
				c0,0.034,0.417,0.85,1.25,2.45c0.733,1.967,0.884,3.933,0.45,5.9s-1.316,3.917-2.65,5.85
				C123.083,40.35,122.434,41.15,122.4,41.15z"/>
		</g>
	</g>
	<g>
		<g>
			<path style="fill-rule:evenodd;clip-rule:evenodd;fill:#9B5E3A;" d="M74.3,35.65c-0.966-0.033-2.083-0.267-3.35-0.7
				c-2.5-0.867-4.483-2.284-5.95-4.25c-1.4-2.1-2.017-4.167-1.85-6.2l0.65-2.45c0,0.034,0.9,0.284,2.7,0.75
				c2.033,0.8,3.617,2.034,4.75,3.7c1.2,1.633,2.067,3.65,2.6,6.05C74.117,33.75,74.267,34.783,74.3,35.65z"/>
		</g>
	</g>
	<g>
		<g>
			<path style="fill-rule:evenodd;clip-rule:evenodd;fill:#9B5E3A;" d="M81.4,71.1c-0.533,0.833-1.05,1.517-1.55,2.05
				c-0.567-0.566-1.083-1.367-1.55-2.4c-0.966-2.067-1.183-4.167-0.65-6.3c0.567-2.133,1.6-3.667,3.1-4.6
				c0.767-0.467,1.45-0.733,2.05-0.8c0.034,0.034,0.317,0.767,0.85,2.2c0.434,1.7,0.45,3.35,0.05,4.95
				C83.3,67.767,82.533,69.4,81.4,71.1z"/>
		</g>
	</g>
	<g>
		<g>
			<path style="fill-rule:evenodd;clip-rule:evenodd;fill:#9B5E3A;" d="M36.8,103.7l-1.6,1.2c-1.333,0.767-2.733,1.083-4.2,0.95
				c-1.433-0.2-2.567-0.717-3.4-1.55l-0.8-1.25c0,0.034,0.45-0.267,1.35-0.9c1.133-0.6,2.3-0.816,3.5-0.65
				C33.483,101.667,35.2,102.4,36.8,103.7z"/>
		</g>
	</g>
	<g>
		<g>
			<path style="fill-rule:evenodd;clip-rule:evenodd;fill:#9B5E3A;" d="M62.5,132.5c-0.8,0.433-1.85,0.733-3.15,0.9
				c-2.667,0.333-5.083-0.2-7.25-1.6c-2.133-1.466-3.4-3.216-3.8-5.25c0.034-1.7,0.034-2.533,0-2.5c0.034,0,0.917,0,2.65,0
				c2.033,0.233,3.816,0.833,5.35,1.8C58.767,127.45,60.833,129.667,62.5,132.5z"/>
		</g>
	</g>
	<g>
		<g>
			<path style="fill-rule:evenodd;clip-rule:evenodd;fill:#9B5E3A;" d="M88.95,170.3c-0.467,0.167-1.05,0.233-1.75,0.2
				c-1.434-0.033-2.667-0.517-3.7-1.45c-1-0.966-1.5-2.017-1.5-3.15c0.233-0.933,0.333-1.383,0.3-1.35
				c0.034,0.034,0.5,0.15,1.4,0.35c1,0.3,1.85,0.767,2.55,1.4C87.383,167.333,88.283,168.667,88.95,170.3z"/>
		</g>
	</g>
	<g>
		<g>
			<path style="fill-rule:evenodd;clip-rule:evenodd;fill:#9B5E3A;" d="M166.35,178.85c-2.066,1.1-4.466,1.75-7.199,1.95
				c-2.334-0.033-3.5-0.066-3.5-0.1c0.233-1.034,0.683-2.2,1.35-3.5c1.4-2.633,3.283-4.583,5.65-5.85c2.399-1.233,4.733-1.65,7-1.25
				c1.133,0.2,2.017,0.517,2.649,0.95c-0.166,0.9-0.55,1.883-1.149,2.95C170.017,176.167,168.417,177.783,166.35,178.85z"/>
		</g>
	</g>
	<g>
		<g>
			<path style="fill-rule:evenodd;clip-rule:evenodd;fill:#9B5E3A;" d="M143.55,165.75c-0.1-0.433-0.116-0.95-0.05-1.55
				c0.167-1.267,0.65-2.35,1.45-3.25c0.8-0.8,1.684-1.284,2.649-1.45c0.467-0.067,0.867-0.05,1.2,0.05
				c0,0.034-0.017,0.483-0.05,1.35c-0.167,1.033-0.6,1.9-1.3,2.6C146.417,164.6,145.116,165.35,143.55,165.75z"/>
		</g>
	</g>
	<g>
		<g>
			<path style="fill-rule:evenodd;clip-rule:evenodd;fill:#9B5E3A;" d="M185.3,94.5c-0.8,3.033-2.434,5.5-4.899,7.4
				c-2.4,1.833-5.301,3.117-8.7,3.85l-4.351,0.55c0.067-1.333,0.417-2.883,1.051-4.65c1.233-3.533,3.166-6.3,5.8-8.3
				c2.533-1.967,5.217-3.033,8.05-3.2c1.4-0.066,2.583,0.067,3.55,0.4L185.3,94.5z"/>
		</g>
	</g>
	<g>
		<g>
			<path style="fill-rule:evenodd;clip-rule:evenodd;fill:#9B5E3A;" d="M163.45,56.95c-0.9,1.533-2.2,2.883-3.9,4.05
				c-1.5,0.9-2.267,1.35-2.3,1.35c-0.267-0.767-0.434-1.717-0.5-2.85c-0.134-2.233,0.316-4.233,1.35-6
				c1.101-1.733,2.467-2.917,4.101-3.55c0.8-0.3,1.5-0.434,2.1-0.4c0,0.034,0.134,0.817,0.4,2.35
				C164.8,53.767,164.384,55.45,163.45,56.95z"/>
		</g>
	</g>
	<g>
		<g>
			<path style="fill-rule:evenodd;clip-rule:evenodd;fill:#9B5E3A;" d="M52.45,72.05c-0.7,0.434-1.65,0.7-2.85,0.8
				c-2.434,0.2-4.6-0.617-6.5-2.45c-1.7-1.933-2.4-3.85-2.1-5.75c0.6-1.467,0.867-2.167,0.8-2.1c0.3,0,1.05,0.284,2.25,0.85
				c1.534,0.767,2.817,1.633,3.85,2.6C49.433,67.633,50.95,69.65,52.45,72.05z"/>
		</g>
	</g>
	<g>
		<g>
			<path style="fill-rule:evenodd;clip-rule:evenodd;fill:#9B5E3A;" d="M66.85,103.25c-0.333,0.3-0.833,0.55-1.5,0.75
				c-1.267,0.4-2.517,0.25-3.75-0.45c-1.167-0.767-1.817-1.683-1.95-2.75c0.133-0.867,0.184-1.283,0.15-1.25
				c0.034,0.034,0.467,0.083,1.3,0.15c0.967,0.167,1.783,0.45,2.45,0.85C64.65,101.183,65.75,102.083,66.85,103.25z"/>
		</g>
	</g>
	<g>
		<g>
			<path style="fill-rule:evenodd;clip-rule:evenodd;fill:#9B5E3A;" d="M120.65,128c1.233,2.3,2.083,5.017,2.55,8.15
				c-0.9,0.1-1.967-0.033-3.2-0.4c-2.467-0.767-4.35-2.317-5.65-4.65c-1.199-2.467-1.383-4.65-0.55-6.55l1.5-2
				c0.033,0.067,0.7,0.583,2,1.55C118.767,125.333,119.884,126.633,120.65,128z"/>
		</g>
	</g>
	<g>
		<g>
			<path style="fill-rule:evenodd;clip-rule:evenodd;fill:#9B5E3A;" d="M131.6,91.95c-0.5-0.167-1.066-0.434-1.699-0.8
				c-1.267-0.7-2.233-1.617-2.9-2.75c-0.667-1.2-0.9-2.367-0.7-3.5l0.5-1.35c0,0.034,0.483,0.217,1.45,0.55
				c1.066,0.566,1.9,1.35,2.5,2.35C131.717,88.117,132,89.95,131.6,91.95z"/>
		</g>
	</g>
	<g>
		<g>
			<path style="fill-rule:evenodd;clip-rule:evenodd;fill:#9B5E3A;" d="M106.3,64c-0.6-0.433-1.233-1.083-1.9-1.95
				c-1.3-1.7-2-3.566-2.1-5.6c-0.033-1.967,0.467-3.633,1.5-5c0.5-0.667,1-1.133,1.5-1.4c0,0.034,0.517,0.6,1.55,1.7
				c1,1.467,1.516,3.033,1.55,4.7c0.066,1.667-0.267,3.433-1,5.3C107.033,62.65,106.667,63.4,106.3,64z"/>
		</g>
	</g>
	<g>
		<g>
			<path style="fill-rule:evenodd;clip-rule:evenodd;fill:#9B5E3A;" d="M170.25,41.3c-0.333-0.7-0.5-1.6-0.5-2.7
				c-0.066-2.267,0.65-4.217,2.15-5.85c1.5-1.567,3.116-2.383,4.85-2.45c0.866-0.066,1.55,0.017,2.05,0.25
				c0,0.067-0.116,0.817-0.35,2.25c-0.434,1.633-1.167,3.017-2.2,4.15c-1,1.066-2.3,2.1-3.9,3.1
				C170.983,40.85,170.283,41.267,170.25,41.3z"/>
		</g>
	</g>
	<g>
		<g>
			<path style="fill-rule:evenodd;clip-rule:evenodd;fill:#9B5E3A;" d="M195.2,63.35c-0.2-0.7-0.25-1.567-0.15-2.6
				c0.167-2.067,0.983-3.833,2.45-5.3c1.566-1.434,3.2-2.083,4.9-1.95c0.833,0.067,1.466,0.25,1.899,0.55
				c-0.399,2.267-1.383,4.167-2.95,5.7c-1,1-2.316,1.9-3.949,2.7C196.033,63.15,195.3,63.45,195.2,63.35z"/>
		</g>
	</g>
	<g>
		<g>
			<path style="fill-rule:evenodd;clip-rule:evenodd;fill:#9B5E3A;" d="M164.4,92.9c-1.567,1.6-3.567,2.85-6,3.75l-3.15,0.9
				c-0.066-1,0.033-2.183,0.3-3.55c0.533-2.733,1.65-4.983,3.351-6.75c1.699-1.767,3.6-2.833,5.699-3.2
				c1.067-0.167,1.967-0.167,2.7,0L167.25,87C166.917,89.3,165.967,91.267,164.4,92.9z"/>
		</g>
	</g>
	<g>
		<g>
			<path style="fill-rule:evenodd;clip-rule:evenodd;fill:#9B5E3A;" d="M146,127c0.134-0.7,0.366-1.483,0.7-2.35
				c0.733-1.733,1.767-3.05,3.1-3.95c1.367-1.034,2.783-1.534,4.25-1.5c0.733,0.033,1.316,0.15,1.75,0.35c0,0.034-0.149,0.7-0.45,2
				c-0.5,1.467-1.35,2.633-2.55,3.5c-1.3,0.9-2.833,1.5-4.6,1.8L146,127z"/>
		</g>
	</g>
	<g>
		<g>
			<path style="fill-rule:evenodd;clip-rule:evenodd;fill:#9B5E3A;" d="M52.55,46.25c2.1,1.6,3.917,3.683,5.45,6.25
				c-0.767,0.433-1.75,0.717-2.95,0.85c-2.466,0.267-4.716-0.35-6.75-1.85c-1.9-1.5-2.966-3.217-3.2-5.15
				c0.167-1.567,0.233-2.333,0.2-2.3c0.267-0.133,1.1-0.066,2.5,0.2C49.633,44.583,51.217,45.25,52.55,46.25z"/>
		</g>
	</g>
	<g>
		<g>
			<path style="fill-rule:evenodd;clip-rule:evenodd;fill:#9B5E3A;" d="M110.25,24.3c-0.733-0.133-1.583-0.433-2.55-0.9
				c-1.934-1-3.367-2.417-4.3-4.25c-0.8-1.933-0.983-3.683-0.55-5.25l0.95-1.85c0,0.034,0.684,0.383,2.05,1.05
				c1.466,0.933,2.5,2.133,3.1,3.6c0.733,1.433,1.166,3.117,1.3,5.05C110.316,22.75,110.316,23.6,110.25,24.3z"/>
		</g>
	</g>
	<g>
		<g>
			<path style="fill-rule:evenodd;clip-rule:evenodd;fill:#9B5E3A;" d="M79.9,136.3c-0.433,0.233-0.95,0.45-1.55,0.65
				c-1.2,0.367-2.317,0.4-3.35,0.1c-1.1-0.2-1.967-0.667-2.6-1.4c-0.4-0.7-0.6-1.066-0.6-1.1l1.15-0.65c0.966-0.4,1.95-0.5,2.95-0.3
				c1.067,0.267,2.05,0.8,2.95,1.6C79.317,135.6,79.667,135.967,79.9,136.3z"/>
		</g>
	</g>
	<path style="fill-rule:evenodd;clip-rule:evenodd;fill:#806E4D;" d="M85.9,116.15c14.8,31.767,24.1,48.917,27.9,51.45
		c3.767,2.5,10.066-13.533,18.9-48.1c4.399-17.267,8.434-34.8,12.1-52.6c-2.767,21.4-5.6,44.05-8.5,67.95
		c-5.767,47.833-8.967,78.033-9.6,90.6c-0.033,0.367-0.184,1.966-0.45,4.8c-0.267,2.6-0.417,4.366-0.45,5.3l22-12.5L126.4,238.9
		c-0.167,15.833,0.133,41.883,0.899,78.149l12-12l-11.95,17.5c0.467,22.967,1,42.434,1.601,58.4
		c0.633,16.366,6.233,33.616,16.8,51.75c5.3,9.066,10.533,16.483,15.7,22.25c-3.467-2.434-7.15-4.667-11.05-6.7
		c-7.767-4.066-12.65-5.1-14.65-3.1c-1.233,1.267-0.85,4.033,1.15,8.3c1,2.133,2.133,4.149,3.399,6.05
		c-2.267-1.9-4.883-3.733-7.85-5.5c-5.9-3.533-10.584-4.983-14.05-4.35c-3.034,0.566-6.834,2.5-11.4,5.8
		c-2.3,1.666-4.283,3.267-5.95,4.8c1.1-1.533,1.883-3.15,2.35-4.85c0.934-3.4-0.117-5.567-3.15-6.5
		c-3.133-0.934-8.717,0.05-16.75,2.949l-11.15,4.601c5.3-7.3,10.767-16.267,16.4-26.9c11.333-21.233,17.95-40.2,19.85-56.899
		c1.101-9.601,1.801-22.384,2.101-38.351c0.333-16.3,0.2-33.434-0.4-51.399l-23-29.351l23,22.5c-0.899-19.967-2.333-38.666-4.3-56.1
		c-2.233-19.567-4.9-35.1-8-46.6c-4.367-16.267-11.217-38.5-20.55-66.7C72.817,92.55,68.6,80.067,64.8,69.2
		C71.467,84.6,78.5,100.25,85.9,116.15z"/>
	<g>
		<path style="fill-rule:evenodd;clip-rule:evenodd;fill:#6C5E3F;" d="M105.8,167.55c1.767,3.534,3.917,4.7,6.45,3.5
			c2.066-1,4.033-3.267,5.9-6.8c4.3-7.467,10.033-25.933,17.199-55.4c2.676-11.05,5.134-21.675,7.375-31.875L123.3,175.05
			c-1.7,8.167-3.366,40.833-5,98c-0.267,9.167,0.25,33.184,1.55,72.05c1.334,39.634,2.483,63.784,3.45,72.45
			c0.967,8.566,3.184,16.917,6.65,25.05c3.166,7.467,6.616,13.101,10.35,16.9c-1.533-1.3-3.416-2.667-5.649-4.1
			c-4.434-2.9-8.301-4.733-11.601-5.5l-0.25-0.351c-2.166-1.934-3.7-11.633-4.6-29.1c-0.601-11-0.9-23.467-0.9-37.4
			c0-5.166-0.25-32.916-0.75-83.25c-0.5-50.333-0.75-78.083-0.75-83.25c0-6.466,1.25-17.733,3.75-33.8l3.75-22.2l-4.85,8.65
			c-3.667,5.833-6.55,8.95-8.65,9.35c-2.066,0.434-4.6-2.6-7.6-9.1l-3.9-9.9l2,7.9c1.5,6,2.667,10.867,3.5,14.6
			c1,4.5,2.467,14.6,4.4,30.3c1.899,15.7,3.1,27.433,3.6,35.2c0.367,5.7,0.867,18.667,1.5,38.9c0.733,23.267,1.233,37.967,1.5,44.1
			c0.467,10.634-0.666,26.167-3.399,46.601c-2.601,19.366-5.034,32.133-7.3,38.3c-2.167,6-9.167,18.184-21,36.55
			c-2.467,0.866-5,1.866-7.6,3l-3.15,1.45c5.3-7.3,10.767-16.267,16.4-26.9c11.333-21.233,17.95-40.2,19.85-56.899
			c1.101-9.601,1.801-22.384,2.101-38.351c0.333-16.3,0.2-33.434-0.4-51.399l-23-29.351l23,22.5
			c-0.899-19.967-2.333-38.666-4.3-56.1c-2.233-19.567-4.9-35.1-8-46.6c-4.367-16.267-11.217-38.5-20.55-66.7
			C72.817,92.55,68.6,80.067,64.8,69.2c6,14.733,12.217,29.883,18.65,45.45C96.283,145.75,103.733,163.383,105.8,167.55z"/>
		<path style="fill-rule:evenodd;clip-rule:evenodd;fill:#5B5037;" d="M103.8,182.05c-0.833-3.733-2-8.6-3.5-14.6l-2-7.9l3.9,9.9
			c3,6.5,5.533,9.533,7.6,9.1c2.101-0.4,4.983-3.517,8.65-9.35l4.85-8.65l-3.75,22.2c-2.5,16.067-3.75,27.333-3.75,33.8
			c0,5.167,0.25,32.917,0.75,83.25c0.5,50.334,0.75,78.084,0.75,83.25c0,13.934,0.3,26.4,0.9,37.4
			c0.899,17.467,2.434,27.166,4.6,29.1l0.25,0.351c-1.833-0.4-3.383-0.483-4.649-0.25c-3.034,0.566-6.834,2.5-11.4,5.8
			c-2.3,1.666-4.283,3.267-5.95,4.8c1.1-1.533,1.883-3.15,2.35-4.85c0.934-3.4-0.117-5.567-3.15-6.5
			c-3.233-0.967-8.95,0.066-17.15,3.1c11.833-18.366,18.833-30.55,21-36.55c2.267-6.167,4.7-18.934,7.3-38.3
			c2.733-20.434,3.866-35.967,3.399-46.601c-0.267-6.133-0.767-20.833-1.5-44.1c-0.633-20.233-1.133-33.2-1.5-38.9
			c-0.5-7.767-1.7-19.5-3.6-35.2C106.267,196.65,104.8,186.55,103.8,182.05z"/>
	</g>
	<path style="fill-rule:evenodd;clip-rule:evenodd;fill:#5B5037;" d="M123.6,287.25c0.601,12.5,1.184,30.917,1.75,55.25
		c0.601,25.733,0.917,38.983,0.95,39.75c0.434,11.1,3.566,23.767,9.4,38c2.899,7.1,5.767,13.1,8.6,18
		c-1.166-1.9-2.45-3.75-3.85-5.55c-2.834-3.601-4.884-5.2-6.15-4.8c-1.233,0.433-1.883,2.733-1.95,6.899
		c-0.033,2.066,0.051,4.101,0.25,6.101c-1.433-5.067-2.883-10.967-4.35-17.7c-2.967-13.5-4.517-24.483-4.65-32.95
		c-0.1-6.533-0.633-29.667-1.6-69.4l-1.4-57.6l1.25,6.7C122.717,275.583,123.3,281.35,123.6,287.25z"/>
	<g>
		<path style="fill-rule:evenodd;clip-rule:evenodd;fill:#4F4631;" d="M114,406.45c0.066,18.733,0.717,30.666,1.95,35.8
			c0.533,2.167,1.083,4.7,1.649,7.6c-3,0.767-6.649,2.733-10.95,5.9c-2.167,1.566-4.033,3.066-5.6,4.5
			c1.1-1.533,1.883-3.15,2.35-4.85c0.934-3.4-0.117-5.567-3.15-6.5c-2-0.601-5.233-0.351-9.7,0.75
			c7.567-9.667,12.817-18.351,15.75-26.051c2.2-5.833,4.2-14.866,6-27.1l2-16.6L114,406.45z"/>
	</g>
	<g>
		<g>
			<path style="fill-rule:evenodd;clip-rule:evenodd;fill:#9B5E3A;" d="M92.75,243.8c1.433,1.267,2.267,2.834,2.5,4.7
				c0.267,1.866,0.017,3.783-0.75,5.75c-0.367,0.967-0.767,1.733-1.2,2.3c-0.6-0.5-1.216-1.184-1.85-2.05
				c-1.3-1.733-2.083-3.483-2.35-5.25s-0.083-3.4,0.55-4.9c0.733-1.166,1.117-1.767,1.15-1.8
				C90.767,242.55,91.417,242.967,92.75,243.8z"/>
		</g>
	</g>
	<g>
		<g>
			<path style="fill-rule:evenodd;clip-rule:evenodd;fill:#9B5E3A;" d="M90.3,259.15l-1.75,1.5c-1.466,0.966-3,1.449-4.6,1.449
				c-1.6,0-2.934-0.416-4-1.25l-1.15-1.3c0.333-0.399,0.8-0.816,1.4-1.25c1.2-0.833,2.5-1.25,3.9-1.25s2.85,0.351,4.35,1.05
				C89.217,258.467,89.833,258.816,90.3,259.15z"/>
		</g>
	</g>
	<g>
		<g>
			<path style="fill-rule:evenodd;clip-rule:evenodd;fill:#9B5E3A;" d="M86.9,252.3c-0.4,0.2-0.9,0.351-1.5,0.45
				c-1.2,0.2-2.3,0-3.3-0.6c-1.033-0.7-1.633-1.517-1.8-2.45v-1.15c0.034,0,0.45,0.017,1.25,0.05c0.9,0.101,1.7,0.351,2.4,0.75
				C85.083,250.017,86.067,251,86.9,252.3z"/>
		</g>
	</g>
	<g>
		<g>
			<path style="fill-rule:evenodd;clip-rule:evenodd;fill:#9B5E3A;" d="M135.8,234.95c0.334-0.367,0.834-0.75,1.5-1.15
				c1.3-0.733,2.684-1.017,4.15-0.85c1.399,0.366,2.467,1,3.2,1.899c0.366,0.434,0.583,0.834,0.649,1.2
				c-0.366,0.267-0.85,0.517-1.45,0.75c-1.133,0.467-2.216,0.566-3.25,0.3c-1.066-0.133-2.183-0.533-3.35-1.199L135.8,234.95z"/>
		</g>
	</g>
	<g>
		<g>
			<path style="fill-rule:evenodd;clip-rule:evenodd;fill:#9B5E3A;" d="M139.1,226.75c-0.166-0.467-0.25-1.067-0.25-1.8
				c0.034-1.434,0.45-2.7,1.25-3.8c0.801-1.033,1.75-1.7,2.851-2c0.533-0.133,0.983-0.167,1.35-0.1c0,0.034,0.033,0.55,0.101,1.55
				c-0.067,1.167-0.45,2.2-1.15,3.1C142.25,225.1,140.866,226.117,139.1,226.75z"/>
		</g>
	</g>
	<g>
		<g>
			<path style="fill-rule:evenodd;clip-rule:evenodd;fill:#9B5E3A;" d="M137.45,310.85c0.066-0.466,0.267-0.983,0.6-1.55
				c0.667-1.2,1.601-2.066,2.8-2.6c1.2-0.467,2.301-0.55,3.301-0.25c0.5,0.166,0.883,0.366,1.149,0.6c0,0.033-0.233,0.467-0.7,1.3
				c-0.6,0.9-1.383,1.534-2.35,1.9C140.783,310.917,139.184,311.116,137.45,310.85z"/>
		</g>
	</g>
	<g>
		<g>
			<path style="fill-rule:evenodd;clip-rule:evenodd;fill:#9B5E3A;" d="M134.5,308.55c-0.967-0.899-1.267-2.05-0.9-3.45
				c0.233-0.833,0.684-1.433,1.351-1.8l0.85-0.25c0,0.066,0.084,0.367,0.25,0.9c0.101,0.666,0.084,1.3-0.05,1.899
				C135.733,306.85,135.233,307.75,134.5,308.55z"/>
		</g>
	</g>
	<g>
		<g>
			<path style="fill-rule:evenodd;clip-rule:evenodd;fill:#9B5E3A;" d="M140.05,303.8c-0.1-0.5-0.1-1.1,0-1.8
				c0.2-1.434,0.783-2.634,1.75-3.6c1-0.9,2.05-1.4,3.15-1.5c0.566-0.034,1.017,0.017,1.35,0.149c0,0.033-0.066,0.55-0.2,1.55
				c-0.267,1.134-0.8,2.051-1.6,2.75C143.333,302.583,141.85,303.4,140.05,303.8z"/>
		</g>
	</g>
</g>
</svg>
