<?xml version="1.0" encoding="iso-8859-1"?>
<!-- Generator: Adobe Illustrator 15.1.0, SVG Export Plug-In . SVG Version: 6.00 Build 0)  -->
<!DOCTYPE svg PUBLIC "-//W3C//DTD SVG 1.1//EN" "http://www.w3.org/Graphics/SVG/1.1/DTD/svg11.dtd">
<svg version="1.1" id="treeTrunk_x5F_01.ai" xmlns="http://www.w3.org/2000/svg" xmlns:xlink="http://www.w3.org/1999/xlink"
	 x="0px" y="0px" width="111.75px" height="116.5px" viewBox="0 0 111.75 116.5" style="enable-background:new 0 0 111.75 116.5;"
	 xml:space="preserve">
<g>
	
		<linearGradient id="SVGID_1_" gradientUnits="userSpaceOnUse" x1="47.1587" y1="-53.7456" x2="61.8337" y2="-53.7456" gradientTransform="matrix(6.814310e-005 1 -1 -0.001 -2.000235e-004 -1.888331e-004)">
		<stop  offset="0" style="stop-color:#605439"/>
		<stop  offset="1" style="stop-color:#373226"/>
	</linearGradient>
	<polygon style="fill-rule:evenodd;clip-rule:evenodd;fill:url(#SVGID_1_);" points="32.6,61.75 32.85,42.3 41.05,57 47.3,50.8 
		51.05,55.75 54.75,47.3 61.25,56.5 69.95,44.3 74.9,56.25 70.95,78.15 33.6,73.2 	"/>
	<path style="fill-rule:evenodd;clip-rule:evenodd;fill:#E9C3BD;" d="M21.2,7.05l0.4,0.8c0.233,0.633,0.3,1.133,0.2,1.5
		c-0.167,0.566-0.5,0.783-1,0.65l-0.35,2c-0.167,0.667-0.684,0.8-1.55,0.4l-0.05,0.65c-0.067,0.5-0.15,0.9-0.25,1.2
		c-0.167,0.5-0.6,0.517-1.3,0.05c-0.133,0.867-0.367,1.5-0.7,1.9c-0.333,0.367-1.033,0.233-2.1-0.4c-0.133,1.233-0.4,2.017-0.8,2.35
		c-0.434,0.333-0.75,0.133-0.95-0.6l-1,1.85c-0.867,1.233-1.783,1.75-2.75,1.55c-0.967-0.167-0.817-0.867,0.45-2.1
		c0.633-0.6,1.367-1.2,2.2-1.8c-0.333,0.167-0.667,0.267-1,0.3c-0.7,0.1-1.033-0.15-1-0.75c0.033-0.567,0.533-1,1.5-1.3
		c0.5-0.167,1-0.267,1.5-0.3c-0.433-0.6-0.566-1.2-0.4-1.8c0.1-0.4,0.4-0.75,0.9-1.05c0.267-0.167,0.517-0.283,0.75-0.35
		c-0.3-0.933-0.167-1.667,0.4-2.2c0.6-0.567,1.4-0.633,2.4-0.2c-0.034-0.233-0.034-0.483,0-0.75c0.066-0.566,0.267-0.983,0.6-1.25
		c0.534-0.4,1.15-0.25,1.85,0.45c0.033-0.133,0.083-0.3,0.15-0.5c0.133-0.367,0.3-0.633,0.5-0.8C20.133,6.25,20.6,6.417,21.2,7.05z"
		/>
	<path style="fill-rule:evenodd;clip-rule:evenodd;fill:#E9C3BD;" d="M32.75,21.1c0.233-0.333,0.75-0.434,1.55-0.3
		c0.4,0.067,0.784,0.167,1.15,0.3c-0.067-0.133-0.117-0.3-0.15-0.5c-0.033-0.4,0.067-0.75,0.3-1.05c0.233-0.3,0.617-0.333,1.15-0.1
		c0.267,0.133,0.517,0.283,0.75,0.45c1,0.5,1.367,1.05,1.1,1.65c-0.133,0.3-0.367,0.55-0.7,0.75l0.1,0.5
		c0.067,0.4,0.05,0.8-0.05,1.2c-0.167,0.667-0.534,0.783-1.1,0.35v0.7c-0.067,0.6-0.167,1.167-0.3,1.7
		c-0.167,0.533-0.533,0.7-1.1,0.5l-0.8-0.5c0.1,1.167-0.083,2.233-0.55,3.2c-0.3,0.6-0.65,0.7-1.05,0.3l-0.5-0.75
		c-0.267,1.767-0.566,2.817-0.9,3.15c-0.333,0.333-0.633,0.15-0.9-0.55c-0.367,0.7-0.8,1.367-1.3,2c-0.934,1.3-1.667,1.8-2.2,1.5
		c-0.533-0.3-0.333-0.983,0.6-2.05c0.433-0.533,0.933-1.05,1.5-1.55c-0.867,0.067-1.233-0.3-1.1-1.1
		c0.1-0.467,0.283-0.917,0.55-1.35c0.133-0.2,0.267-0.367,0.4-0.5c-0.167-0.133-0.317-0.333-0.45-0.6
		c-0.233-0.534-0.217-1.184,0.05-1.95c0.3-0.733,0.65-1.15,1.05-1.25c0.2-0.067,0.367-0.05,0.5,0.05
		c-0.333-1.133-0.267-2.017,0.2-2.65c0.467-0.633,1-0.566,1.6,0.2c0-0.167,0.033-0.35,0.1-0.55
		C32.35,21.833,32.517,21.433,32.75,21.1z"/>
	<path style="fill-rule:evenodd;clip-rule:evenodd;fill:#E9C3BD;" d="M63.5,11.6c0.267-0.1,0.533-0.133,0.8-0.1l0.101-0.4
		c0.133-0.267,0.399-0.434,0.8-0.5c0.666-0.133,1.083,0.383,1.25,1.55l0.25-0.3c0.267-0.167,0.6-0.15,1,0.05
		c0.633,0.267,0.816,0.983,0.55,2.15l0.55-0.2c0.434-0.1,0.767-0.033,1,0.2c0.4,0.367,0.434,1.017,0.101,1.95
		c1.199,1.667,1.533,2.633,1,2.9c-0.367,0.2-0.784-0.05-1.25-0.75l-0.601-1.1c-0.2,0.467-0.649,0.65-1.35,0.55
		c-0.434-0.033-0.783-0.417-1.05-1.15l-0.25-1.1c-0.5,0.333-0.934,0.4-1.301,0.2c-0.233-0.133-0.399-0.483-0.5-1.05l-0.05-0.85
		c-1.066,0.3-1.633,0.083-1.7-0.65C62.783,12.3,63,11.833,63.5,11.6z"/>
	<path style="fill-rule:evenodd;clip-rule:evenodd;fill:#A94950;" d="M52.6,23.9c-1.167-5.833-2.967-10.683-5.4-14.55
		c-3-4.7-6.684-7.434-11.05-8.2c-3.933-0.7-8.2,0.95-12.8,4.95c-2.3,2-4.217,4.066-5.75,6.2c2.2-3.667,5.033-6.716,8.5-9.15
		c6.9-4.833,13.467-4.066,19.7,2.3c6.233,6.367,9.684,18.816,10.351,37.35c0.333,9.267,0.033,17.9-0.9,25.9l-3.15,1
		c0.5-5.533,0.9-11.583,1.2-18.15C53.867,38.383,53.633,29.167,52.6,23.9z"/>
	<path style="fill-rule:evenodd;clip-rule:evenodd;fill:#A94950;" d="M50.65,46.35c-0.3-15.434-1.8-24.25-4.5-26.45
		c-2.7-2.2-5.566-1.733-8.6,1.4c-1.5,1.6-2.733,3.4-3.7,5.4c0.867-2.434,2.066-4.567,3.6-6.4c3.1-3.667,6.383-4.017,9.85-1.05
		c3.467,2.967,5.467,11.75,6,26.35c0.3,7.267,0.233,14.25-0.2,20.95l-2.8,2.3C50.7,61.583,50.817,54.083,50.65,46.35z"/>
	<path style="fill-rule:evenodd;clip-rule:evenodd;fill:#A94950;" d="M56.35,33.9c-0.166,5.733-0.25,11.25-0.25,16.55l-1-18.1
		c-0.233-2.833-0.283-5.817-0.149-8.95c0.233-6.267,1.217-10.083,2.95-11.45s3.583-1.583,5.55-0.65c1,0.467,1.816,1.067,2.45,1.8
		c-1.034-0.733-2.134-1.267-3.301-1.6c-2.366-0.667-3.933,0.033-4.699,2.1C57.167,15.7,56.65,22.467,56.35,33.9z"/>
	
		<linearGradient id="SVGID_2_" gradientUnits="userSpaceOnUse" x1="30.7563" y1="80.1563" x2="71.253" y2="80.1563" gradientTransform="matrix(0.9995 -0.0327 0.0327 0.9995 5.022846e-004 -4.912913e-005)">
		<stop  offset="0" style="stop-color:#987D4E"/>
		<stop  offset="1" style="stop-color:#B59F75"/>
	</linearGradient>
	<path style="fill-rule:evenodd;clip-rule:evenodd;fill:url(#SVGID_2_);" d="M40.3,50.05l10,10.7L61,49.3l5.7,7.45L77.4,41.1
		c-0.301,6.433-0.367,13.35-0.2,20.75c0.333,14.801,1.649,24.634,3.95,29.5c2.267,4.867,8.05,9.9,17.35,15.101
		c4.634,2.6,9.05,4.7,13.25,6.3c-6.066-1.767-12.1-3.366-18.1-4.8c-11.967-2.867-17.801-3.417-17.5-1.65
		c0.3,1.767,2.683,3.617,7.149,5.55c2.2,0.967,4.384,1.767,6.55,2.4c-4.433-0.934-9.267-1.9-14.5-2.9
		c-10.466-1.933-17.666-2.949-21.6-3.05c-3.933-0.1-8.683,1.233-14.25,4c-2.767,1.4-5.15,2.8-7.15,4.2
		c1.267-1.733,2.033-3.45,2.3-5.15c0.6-3.333-1.483-4.85-6.25-4.55c-7.633,0.5-17.1,1.65-28.4,3.45c2.167-0.5,4.617-1.15,7.35-1.95
		c5.467-1.6,9.65-3.184,12.55-4.75c3.4-1.833,6.184-5.717,8.35-11.649c2.067-5.667,3.1-11.9,3.1-18.7c0-3.434-1.2-9.65-3.6-18.65
		l-3.6-12.5L37.6,61.5L40.3,50.05z"/>
	<g>
		<path style="fill-rule:evenodd;clip-rule:evenodd;fill:#83704C;" d="M36.6,72.95c-0.633-2.2-1.483-4.717-2.55-7.55l-1.45-3.65
			l2.5,11.2c0.933,3.3,1.167,7.333,0.7,12.1c-0.7,7.5-3.333,13.417-7.9,17.75c-1.867,1.733-4.117,3.267-6.75,4.601
			c-6.7,0.733-13.233,1.616-19.6,2.649c2.034-0.7,4.4-1.283,7.1-1.75c1.867-0.166,3.967-0.633,6.3-1.399
			c4.733-1.534,8.383-3.784,10.95-6.75c2.767-3.2,4.783-8,6.05-14.4c1-5.233,1.3-9.833,0.9-13.8c-0.267-2.634-1.5-7.717-3.7-15.25
			L25.9,46.2l4.6,8.55c3.167,5.967,5.05,9.6,5.65,10.9c1,2.1,1.667,3.983,2,5.649c0.233-5.333,0.467-8.934,0.7-10.8
			c0.133-1.2,0.5-3,1.1-5.4l0.85-3.25l1.3,6.45c0.967,4.8,1.75,8.4,2.35,10.8c0.5,1.967,1.233,6.317,2.2,13.051
			c1.267,6.433,3.083,11.1,5.45,14c2.8,3.466,8.117,7.033,15.95,10.699c7.467,3.534,14.533,5.95,21.2,7.25h0.15l0.449,0.15
			c-4.433-0.934-9.267-1.9-14.5-2.9c-10.466-1.933-17.666-2.949-21.6-3.05c-2.967-5.2-5.367-10.1-7.2-14.7
			c-1.966-4.966-3.433-11.649-4.4-20.05L41.3,62.5l-2.7,19.15C38.267,79.316,37.6,76.417,36.6,72.95z"/>
		<path style="fill-rule:evenodd;clip-rule:evenodd;fill:#65583D;" d="M35.8,85.05c0.467-4.767,0.233-8.8-0.7-12.1l-2.5-11.2
			l1.45,3.65c1.067,2.833,1.917,5.35,2.55,7.55c1,3.467,1.667,6.366,2,8.7l2.7-19.15l0.85,11.05c0.967,8.4,2.434,15.084,4.4,20.05
			c1.833,4.601,4.233,9.5,7.2,14.7c-3.933-0.1-8.683,1.233-14.25,4c-2.767,1.4-5.15,2.8-7.15,4.2c1.267-1.733,2.033-3.45,2.3-5.15
			c0.6-3.333-1.483-4.85-6.25-4.55l-7.25,0.601c2.633-1.334,4.883-2.867,6.75-4.601C32.467,98.467,35.1,92.55,35.8,85.05z"/>
		<path style="fill-rule:evenodd;clip-rule:evenodd;fill:#83704C;" d="M70.85,73.1L73.2,54.75l0.6,14.15
			c0.767,10.267,1.967,17.416,3.601,21.449c1.833,4.434,6.283,8.767,13.35,13c5.634,3.334,12.634,6.467,21,9.4
			c-6.066-1.767-12.1-3.366-18.1-4.8c-11.967-2.867-17.801-3.417-17.5-1.65c0.333,1.834,2.983,3.8,7.949,5.9l-3.449-0.45
			c-1.367-0.333-2.834-1.1-4.4-2.3c-3.1-2.4-5.116-5.783-6.05-10.15C69.267,94.934,69.483,86.2,70.85,73.1z"/>
		<path style="fill-rule:evenodd;clip-rule:evenodd;fill:#83704C;" d="M60.75,73.95l4.45-15.7l-0.95,6.4
			c-0.667,4.767-1.1,8.433-1.3,11c-0.334,4.166,0.25,11.966,1.75,23.399c-1.033-2.8-2.084-5.899-3.15-9.3
			C59.384,82.95,58.2,78.1,58,75.2c-0.2-2.9-0.184-6.8,0.05-11.7L58.5,57L60.75,73.95z"/>
		<path style="fill-rule:evenodd;clip-rule:evenodd;fill:#83704C;" d="M53.25,61l-0.2,2.55c-0.233,2.134-0.5,4.351-0.8,6.65
			c-0.3,2.267,0.317,7.55,1.85,15.85c0.767,4.167,1.567,8.101,2.4,11.8c-2-3.666-3.667-7.316-5-10.949
			c-0.8-2.301-1.417-5.267-1.85-8.9l-0.35-4.8c0-1.566,0.667-4.066,2-7.5L53.25,61z"/>
	</g>
</g>
</svg>
