<?xml version="1.0" encoding="iso-8859-1"?>
<!-- Generator: Adobe Illustrator 15.1.0, SVG Export Plug-In . SVG Version: 6.00 Build 0)  -->
<!DOCTYPE svg PUBLIC "-//W3C//DTD SVG 1.1//EN" "http://www.w3.org/Graphics/SVG/1.1/DTD/svg11.dtd">
<svg version="1.1" id="tree_x5F_front_x5F_05.ai" xmlns="http://www.w3.org/2000/svg" xmlns:xlink="http://www.w3.org/1999/xlink"
	 x="0px" y="0px" width="243.15px" height="350px" viewBox="0 0 243.15 350" style="enable-background:new 0 0 243.15 350;"
	 xml:space="preserve">
<g>
	<path style="fill-rule:evenodd;clip-rule:evenodd;fill:#6B6B4B;" d="M108.9,242.5c-0.8,0.333-0.867,1.017-0.2,2.05
		c0.667,1,1.483,1.316,2.45,0.95c1-0.366,1.1-1.05,0.3-2.05C110.65,242.45,109.8,242.134,108.9,242.5z M13.25,76.55
		c1.567,2.133,2.867,2.95,3.9,2.45c1.033-0.533,0.767-1.967-0.8-4.3c-1.533-2.367-2.85-3.184-3.95-2.45
		C11.367,72.95,11.65,74.383,13.25,76.55z M165.65,130.5c-0.534,0.1-0.551,0.817-0.051,2.15c0.5,1.3,1.101,1.833,1.801,1.6
		c0.733-0.233,0.783-0.95,0.149-2.15C166.95,130.9,166.316,130.367,165.65,130.5z M212.3,61.15c-1.033-1.8-2.166-2.517-3.399-2.15
		c-0.934,0.267-0.967,1.267-0.101,3c0.867,1.733,1.9,2.483,3.101,2.25C213.167,63.983,213.3,62.95,212.3,61.15z M209.65,19.25
		c1.466-5.1,3.767-9.483,6.899-13.15c3.367-3.9,6.816-5.934,10.351-6.1c5.767-0.267,10.3,3.5,13.6,11.3
		c3.233,7.7,3.483,14.867,0.75,21.5c-2.333,1.7-4.75,2.95-7.25,3.75c-3.634,1.133-7.167,1.2-10.6,0.2
		c-4.567-1.367-7.351-4.15-8.351-8.35c-0.333-1.3-0.45-2.683-0.35-4.15l0.2-1.75c-4.667,4.167-9.834,8.083-15.5,11.75
		c-3.534,2.3-13.017,7.483-28.45,15.55L148.9,61.25l19.5-6.15c8.267-0.767,14.6-0.55,19,0.65c4.5,1.2,8.85,2.833,13.05,4.9
		c1.666-2.233,4.3-3.35,7.899-3.35c1.9,0,3.534,0.967,4.9,2.9c1.3,1.833,1.866,3.816,1.7,5.95l-0.05-0.4
		c-0.567,0.7-1.334,1.367-2.301,2c-1.933,1.267-3.833,1.683-5.699,1.25c-1.367-0.3-3-1.317-4.9-3.05
		c-1.267-1.167-2.217-1.317-2.85-0.45l-0.101,0.15c-0.1-1.2,0.05-2.3,0.45-3.3l1.4-0.85c-2.4-0.8-5.134-1.6-8.2-2.4
		c-6.134-1.633-10.816-2.5-14.05-2.6c-3.367-0.1-8.351,0.45-14.95,1.65c-5.2,0.967-9.05,1.833-11.55,2.6
		c-10.834,3.333-17.75,5.583-20.75,6.75c-1.867,0.733-3.584,1.483-5.15,2.25l-1.75,0.95c2.5,11.7,4.967,23.966,7.4,36.8
		c4.1,21.9,7.267,41.35,9.5,58.35l0.25,7c2.333-11.167,4.166-18.283,5.5-21.35c1.533-3.567,2.883-6.267,4.05-8.1
		c2.6-2.633,5.149-4.683,7.649-6.15c-0.666-1.667-0.683-3.25-0.05-4.75c0.733-1.7,2.184-2.867,4.351-3.5
		c2.699-0.8,4.783-0.067,6.25,2.2c1.399,2.1,1.583,4.267,0.55,6.5c-0.867,1-2.25,1.433-4.15,1.3c-1.7-0.1-3.066-1.15-4.1-3.15
		c-0.834-1.6-1.351-2.267-1.55-2c-0.9,1.167-1.184,2.6-0.851,4.3l-0.05-0.1c-3.233,2.6-6.1,6.25-8.6,10.95
		c-3.767,6.933-6.184,18.383-7.25,34.35c0.767,7.434,1.25,14.2,1.449,20.301c0.801,24.3,3.317,51.983,7.551,83.05
		c4.267,31.399,7.933,48.633,11,51.7c2.6,2.566,5.316,4.883,8.149,6.949c1.434,1.034,2.601,1.801,3.5,2.301
		c-3.366-1.067-6.916-2.101-10.649-3.101c-7.467-2-12.067-2.8-13.801-2.399c-1.566-4.9-2.916-9.117-4.05-12.65
		c-2.133-6.767-3.267-11.65-3.399-14.65c-0.4-8.833-1.233-18.583-2.5-29.25c-1.4-11.833-3.684-21.25-6.851-28.25
		c-1.733-3.733-4.133-6.733-7.2-9c-2.233-1.633-4.383-2.633-6.45-3c-1.2-0.199-2.5-0.233-3.9-0.1l-1.8,0.3
		c1,2.101,1.033,3.834,0.1,5.2c-1.367,0.167-2.833,0.083-4.4-0.25c-2.066-0.467-3.6-1.3-4.6-2.5c-0.933-1.134-1.3-2.267-1.1-3.4
		l0.6-1.35H105c1.033-0.934,2.25-1.517,3.65-1.75c0.967-0.2,1.967,0.033,3,0.7c0.9,0.566,1.684,1.383,2.35,2.45
		c5.133-1.267,10.184,0.35,15.15,4.85c4.199,3.833,7.583,9.15,10.149,15.95l0.05-0.5l0.051,0.55l3.25,9.35
		c0-25.566-0.2-43.017-0.601-52.35c-0.399-8.833-0.899-17.55-1.5-26.15c-0.767-11-1.517-18.916-2.25-23.75
		c-0.833-5.533-2.866-15.517-6.1-29.95c-3.267-14.767-5.816-25.283-7.65-31.55L113.4,72.35c-4,1.6-7.5,2.85-10.5,3.75
		c-3.533,1.1-8.667,2.367-15.4,3.8c-9.4,2.033-18.8,3.65-28.2,4.85c-9.033,1.133-18.267,1.933-27.7,2.4
		c-4.7,0.233-8.517,0.35-11.45,0.35c-0.533,0.5-1.35,0.933-2.45,1.3c-2.167,0.767-4.6,0.833-7.3,0.2
		c-2.7-0.633-4.517-3.15-5.45-7.55L4.4,75c-1.367,0.667-2.55,1.733-3.55,3.2c1.033-2.967,2.667-5.2,4.9-6.7
		c2.5-1.7,5.233-2.05,8.2-1.05c2.167,0.733,3.983,2.066,5.45,4c1.333,1.8,2.2,3.867,2.6,6.2c13.933,0,27.583-0.633,40.95-1.9h0.2
		c1.867,0.067,4.85-0.067,8.95-0.4c-2.567,0-6.333-1-11.3-3c-3.3-1.333-6.466-3.9-9.5-7.7c-1.9-2.4-3.566-5.017-5-7.85l0.2-0.2
		c4.233,5.3,8.367,9.183,12.4,11.65c4.7,2.9,12.184,4.633,22.45,5.2c11.7-1.8,21.767-4.05,30.2-6.75
		c17.967-5.767,36.851-14.05,56.65-24.85C182.2,37.217,196.017,28.683,209.65,19.25z M238.9,13.25c-0.733-2.433-1.733-4.433-3-6
		c-1.4-1.733-2.817-2.483-4.25-2.25c-1.167,0.2-1.851,1.3-2.051,3.3c-0.166,1.833,0.084,3.967,0.75,6.4
		c1.634,6.033,3.9,8.8,6.801,8.3c1.433-0.233,2.267-1.35,2.5-3.35C239.884,17.817,239.634,15.683,238.9,13.25z"/>
	<path style="fill-rule:evenodd;clip-rule:evenodd;fill:#6B6B4B;" d="M34.5,48.8c1.1-2.633,3.033-4.45,5.8-5.45
		c3.534-1.267,6.35-0.583,8.45,2.05c1.933,2.434,2.467,5.184,1.6,8.25c-1.5,0.833-3.033,1.483-4.6,1.95
		c-2.667,0.8-4.7,0.767-6.1-0.1c-1.566-0.933-2.333-2.633-2.3-5.1L37.9,47c-1.566,1-2.633,2.333-3.2,4
		c-0.5,1.467-0.55,3.033-0.15,4.7C33.417,53.633,33.4,51.333,34.5,48.8z M43.9,44.75c-1.3,0.367-1.15,1.383,0.45,3.05
		c1.566,1.667,2.75,2.233,3.55,1.7c0.733-0.5,0.467-1.483-0.8-2.95C45.867,45.083,44.8,44.483,43.9,44.75z"/>
	<path style="fill-rule:evenodd;clip-rule:evenodd;fill:#B9B584;" d="M237.15,23c-2.9,0.5-5.167-2.267-6.801-8.3
		c-0.666-2.434-0.916-4.567-0.75-6.4c0.2-2,0.884-3.1,2.051-3.3c1.433-0.233,2.85,0.517,4.25,2.25c1.267,1.567,2.267,3.567,3,6
		s0.983,4.567,0.75,6.4C239.417,21.65,238.583,22.767,237.15,23z"/>
	<path style="fill-rule:evenodd;clip-rule:evenodd;fill:#B9B584;" d="M211.9,64.25c-1.2,0.233-2.233-0.517-3.101-2.25
		c-0.866-1.733-0.833-2.733,0.101-3c1.233-0.367,2.366,0.35,3.399,2.15C213.3,62.95,213.167,63.983,211.9,64.25z"/>
	<path style="fill-rule:evenodd;clip-rule:evenodd;fill:#B9B584;" d="M167.4,134.25c-0.7,0.233-1.301-0.3-1.801-1.6
		c-0.5-1.333-0.483-2.05,0.051-2.15c0.666-0.133,1.3,0.4,1.899,1.6C168.184,133.3,168.134,134.017,167.4,134.25z"/>
	<path style="fill-rule:evenodd;clip-rule:evenodd;fill:#B9B584;" d="M108.9,242.5c0.9-0.366,1.75-0.05,2.55,0.95
		c0.8,1,0.7,1.684-0.3,2.05c-0.967,0.366-1.783,0.05-2.45-0.95C108.033,243.517,108.1,242.833,108.9,242.5z"/>
	<path style="fill-rule:evenodd;clip-rule:evenodd;fill:#B9B584;" d="M44.35,47.8c-1.6-1.667-1.75-2.683-0.45-3.05
		c0.9-0.267,1.967,0.333,3.2,1.8c1.267,1.467,1.533,2.45,0.8,2.95C47.1,50.033,45.917,49.467,44.35,47.8z"/>
	<path style="fill-rule:evenodd;clip-rule:evenodd;fill:#B9B584;" d="M12.4,72.25c1.1-0.733,2.417,0.083,3.95,2.45
		c1.566,2.333,1.833,3.767,0.8,4.3c-1.033,0.5-2.333-0.317-3.9-2.45C11.65,74.383,11.367,72.95,12.4,72.25z"/>
	<path style="fill-rule:evenodd;clip-rule:evenodd;fill:#50503A;" d="M10.4,89c2.7,0.633,5.133,0.567,7.3-0.2
		c1.1-0.367,1.917-0.8,2.45-1.3l-0.8,3.25c-2.3,2.567-5.65,3.55-10.05,2.95c-4.066-0.6-6.833-2.55-8.3-5.85
		c-1.3-2.934-1.35-6.15-0.15-9.65c1-1.467,2.183-2.534,3.55-3.2l0.55,6.45C5.883,85.85,7.7,88.367,10.4,89z"/>
	<polygon style="fill-rule:evenodd;clip-rule:evenodd;fill:#50503A;" points="46.5,59.6 46.3,59.8 45.75,58.6 	"/>
	<path style="fill-rule:evenodd;clip-rule:evenodd;fill:#50503A;" d="M38,58.7c-1.533-0.6-2.683-1.6-3.45-3
		c-0.4-1.667-0.35-3.233,0.15-4.7c0.566-1.667,1.633-3,3.2-4l-0.55,3.4c-0.033,2.467,0.733,4.167,2.3,5.1
		c1.4,0.867,3.434,0.9,6.1,0.1c1.567-0.467,3.1-1.117,4.6-1.95c-0.7,2.533-2.233,4.184-4.6,4.95c-0.267,0.033-0.733,0.183-1.4,0.45
		l-0.05-0.1C41.833,59.417,39.733,59.333,38,58.7z"/>
	<path style="fill-rule:evenodd;clip-rule:evenodd;fill:#50503A;" d="M223.4,36.75c3.433,1,6.966,0.933,10.6-0.2
		c2.5-0.8,4.917-2.05,7.25-3.75c-1.3,3.133-3.267,5.6-5.9,7.4c-2.899,1.966-6.483,3.017-10.75,3.15c-7.3,0.2-12.183-2.3-14.649-7.5
		c-14.9,6.933-29.967,13.483-45.2,19.65l3.65-0.4l-19.5,6.15l22.05-11.45c15.434-8.066,24.916-13.25,28.45-15.55
		c5.666-3.667,10.833-7.583,15.5-11.75l-0.2,1.75c-0.101,1.467,0.017,2.85,0.35,4.15C216.05,32.6,218.833,35.383,223.4,36.75z"/>
	<path style="fill-rule:evenodd;clip-rule:evenodd;fill:#50503A;" d="M201.5,70.05c-1.434-1.167-2.25-2.633-2.45-4.4l0.101-0.15
		c0.633-0.867,1.583-0.717,2.85,0.45c1.9,1.733,3.533,2.75,4.9,3.05c1.866,0.433,3.767,0.017,5.699-1.25
		c0.967-0.633,1.733-1.3,2.301-2l0.05,0.4c-0.134,1.7-0.767,3.067-1.9,4.1c-1.3,1.167-3.133,1.75-5.5,1.75
		C205.05,72,203.033,71.35,201.5,70.05z"/>
	<path style="fill-rule:evenodd;clip-rule:evenodd;fill:#50503A;" d="M178.65,56.5c3.233,0.1,7.916,0.967,14.05,2.6
		c3.066,0.8,5.8,1.6,8.2,2.4l-1.4,0.85l0.2-0.55c-10.434-3.233-18.65-4.483-24.65-3.75c-6.333,0.8-18.233,3.233-35.7,7.3
		c-5.533,2.066-10.483,3.85-14.85,5.35l1.75-0.95c1.566-0.767,3.283-1.517,5.15-2.25c3-1.167,9.916-3.417,20.75-6.75
		c2.5-0.767,6.35-1.633,11.55-2.6C170.3,56.95,175.283,56.4,178.65,56.5z"/>
	<path style="fill-rule:evenodd;clip-rule:evenodd;fill:#50503A;" d="M46.3,59.8c1.434,2.833,3.1,5.45,5,7.85
		c3.034,3.8,6.2,6.367,9.5,7.7c4.967,2,8.733,3,11.3,3c-4.1,0.333-7.083,0.467-8.95,0.4h-0.2l0.7-0.1L62,78.2
		c-3.5-1.1-6.967-3.733-10.4-7.9c-2.533-3.033-4.95-6.783-7.25-11.25c0.667-0.267,1.133-0.417,1.4-0.45L46.3,59.8z"/>
	<path style="fill-rule:evenodd;clip-rule:evenodd;fill:#50503A;" d="M87.5,79.9c6.733-1.433,11.867-2.7,15.4-3.8
		c3-0.9,6.5-2.15,10.5-3.75l11.15,38.75c1.834,6.267,4.384,16.783,7.65,31.55c3.233,14.434,5.267,24.417,6.1,29.95
		c0.733,4.833,1.483,12.75,2.25,23.75c0.601,8.601,1.101,17.317,1.5,26.15c0.4,9.333,0.601,26.783,0.601,52.35l-3.25-9.35
		l-0.051-0.55c0.867-21.101,0.884-40.25,0.051-57.45c-0.867-18.767-5.483-44.3-13.851-76.6c-4.833-18.533-10.216-36.917-16.15-55.15
		c-16.8,5.3-34.267,9-52.4,11.1c-12.433,1.433-24.5,2.066-36.2,1.9c-0.433,0.8-0.917,1.467-1.45,2l0.8-3.25
		c2.934,0,6.75-0.117,11.45-0.35c9.433-0.467,18.667-1.267,27.7-2.4C68.7,83.55,78.1,81.933,87.5,79.9z"/>
	<path style="fill-rule:evenodd;clip-rule:evenodd;fill:#50503A;" d="M165.8,139c1.9,0.133,3.283-0.3,4.15-1.3
		c-1.066,2.333-3.167,3.433-6.3,3.3c-1.9-0.1-3.351-1.05-4.351-2.85c-0.333-1.7-0.05-3.133,0.851-4.3c0.199-0.267,0.716,0.4,1.55,2
		C162.733,137.85,164.1,138.9,165.8,139z"/>
	<path style="fill-rule:evenodd;clip-rule:evenodd;fill:#50503A;" d="M150.65,144l0.55-0.6c-1.167,1.833-2.517,4.533-4.05,8.1
		c-1.334,3.067-3.167,10.183-5.5,21.35l-0.25-7C143.866,155.183,146.95,147.9,150.65,144z"/>
	<path style="fill-rule:evenodd;clip-rule:evenodd;fill:#50503A;" d="M105,243.25h0.05l-0.6,1.35c-0.2,1.134,0.167,2.267,1.1,3.4
		c1,1.2,2.534,2.033,4.6,2.5c1.567,0.333,3.033,0.417,4.4,0.25c-0.867,1.267-2.5,1.85-4.9,1.75c-3.633-0.2-5.816-1.4-6.55-3.6
		C102.467,246.866,103.1,244.983,105,243.25z"/>
	<path style="fill-rule:evenodd;clip-rule:evenodd;fill:#50503A;" d="M114.45,245.55l1.8-0.3c1.4-0.134,2.7-0.1,3.9,0.1
		c2.067,0.367,4.216,1.367,6.45,3c3.067,2.267,5.467,5.267,7.2,9c3.167,7,5.45,16.417,6.851,28.25
		c1.267,10.667,2.1,20.417,2.5,29.25c0.133,3,1.267,7.884,3.399,14.65c1.134,3.533,2.483,7.75,4.05,12.65l-0.35,0.1
		c-2.066,1.033-6.2,2.316-12.4,3.85c-0.133-0.899-0.483-1.699-1.05-2.399c-1.166-1.434-2.883-1.667-5.149-0.7
		c-2.233,0.967-5.867,2.434-10.9,4.4l-6.9,2.6c1.433-0.9,3.15-2.1,5.15-3.6c4-2.967,7.45-5.9,10.35-8.801
		c1.9-1.899,3.667-7.966,5.301-18.199c1.533-9.601,2.767-21.617,3.699-36.051c-1.866-19.066-6.267-30.85-13.199-35.35
		C121.816,245.866,118.25,245.05,114.45,245.55z"/>
</g>
</svg>
