<?xml version="1.0" encoding="iso-8859-1"?>
<!-- Generator: Adobe Illustrator 15.1.0, SVG Export Plug-In . SVG Version: 6.00 Build 0)  -->
<!DOCTYPE svg PUBLIC "-//W3C//DTD SVG 1.1//EN" "http://www.w3.org/Graphics/SVG/1.1/DTD/svg11.dtd">
<svg version="1.1" id="tree_x5F_front_x5F_04.ai" xmlns="http://www.w3.org/2000/svg" xmlns:xlink="http://www.w3.org/1999/xlink"
	 x="0px" y="0px" width="32.95px" height="67.95px" viewBox="0 0 32.95 67.95" style="enable-background:new 0 0 32.95 67.95;"
	 xml:space="preserve">
<g>
	<g>
		<path style="fill-rule:evenodd;clip-rule:evenodd;fill:#6B6B4B;" d="M28.1,13.4c-3.466,2.467-5.616,4.967-6.449,7.5
			c-0.9,2.733-1.483,9.017-1.75,18.85c1.033,6.366,1.949,11.217,2.75,14.55c1.033,4.5,2.05,7.384,3.05,8.65
			c1.767,2.233,3.833,3.816,6.2,4.75c-5.233-1.667-8.384-2.367-9.45-2.101c-0.8,0.233-1.283,0.7-1.45,1.4
			c-0.066,0.333-0.066,0.65,0,0.95c-0.4-0.566-0.884-1.134-1.45-1.7c-1.1-1.066-2.033-1.483-2.8-1.25
			c-0.733,0.233-1.583,0.75-2.55,1.55c-0.5,0.4-0.917,0.783-1.25,1.15c0.167-0.334,0.233-0.667,0.2-1
			c-0.066-0.667-0.65-0.967-1.75-0.9c-1.767,0.134-3.617,0.601-5.55,1.4c1.367-0.9,2.833-1.983,4.4-3.25
			c3.167-2.5,5.233-4.634,6.2-6.4c1.166-2.1,1.649-7.316,1.45-15.649c-0.2-8.3-0.967-15.284-2.3-20.95
			c-1.267-5.5-4.25-9.45-8.95-11.85L6.1,9.3c-3.233,1-5.184,0.1-5.85-2.7c-0.7-2.767,0.233-4.817,2.8-6.15
			C4.683-0.417,6.25,0,7.75,1.7c1.5,1.667,1.933,3.367,1.3,5.1c4.233,4.3,6.95,9.85,8.15,16.65l1.35,8c0.2-4.733,0.95-8.5,2.25-11.3
			c1.4-3.033,3.767-5.4,7.101-7.1c-0.4-0.867-0.467-1.667-0.2-2.4c0.3-0.867,0.967-1.333,2-1.4c2.066-0.167,3.149,0.633,3.25,2.4
			c0.1,1.767-0.65,2.817-2.25,3.15C29.634,15.033,28.767,14.567,28.1,13.4z"/>
		<path style="fill-rule:evenodd;clip-rule:evenodd;fill:#6B6B4B;" d="M28.1,13.4c-3.466,2.467-5.616,4.967-6.449,7.5
			c-0.9,2.733-1.483,9.017-1.75,18.85c1.033,6.366,1.949,11.217,2.75,14.55c1.033,4.5,2.05,7.384,3.05,8.65
			c1.767,2.233,3.833,3.816,6.2,4.75c-5.233-1.667-8.384-2.367-9.45-2.101c-0.8,0.233-1.283,0.7-1.45,1.4
			c-0.066,0.333-0.066,0.65,0,0.95c-0.4-0.566-0.884-1.134-1.45-1.7c-1.1-1.066-2.033-1.483-2.8-1.25
			c-0.733,0.233-1.583,0.75-2.55,1.55c-0.5,0.4-0.917,0.783-1.25,1.15c0.167-0.334,0.233-0.667,0.2-1
			c-0.066-0.667-0.65-0.967-1.75-0.9c-1.767,0.134-3.617,0.601-5.55,1.4c1.367-0.9,2.833-1.983,4.4-3.25
			c3.167-2.5,5.233-4.634,6.2-6.4c1.166-2.1,1.649-7.316,1.45-15.649c-0.2-8.3-0.967-15.284-2.3-20.95
			c-1.267-5.5-4.25-9.45-8.95-11.85L6.1,9.3c-3.233,1-5.184,0.1-5.85-2.7c-0.7-2.767,0.233-4.817,2.8-6.15
			C4.683-0.417,6.25,0,7.75,1.7c1.5,1.667,1.933,3.367,1.3,5.1c4.233,4.3,6.95,9.85,8.15,16.65l1.35,8c0.2-4.733,0.95-8.5,2.25-11.3
			c1.4-3.033,3.767-5.4,7.101-7.1c-0.4-0.867-0.467-1.667-0.2-2.4c0.3-0.867,0.967-1.333,2-1.4c2.066-0.167,3.149,0.633,3.25,2.4
			c0.1,1.767-0.65,2.817-2.25,3.15C29.634,15.033,28.767,14.567,28.1,13.4z"/>
	</g>
	<g>
		<path style="fill-rule:evenodd;clip-rule:evenodd;fill:#50503A;" d="M6.65,9.1L6.1,9.3c-3.233,1-5.184,0.1-5.85-2.7
			c-0.7-2.767,0.233-4.817,2.8-6.15l0.7-0.25C3.117,0.767,2.667,1.533,2.4,2.5C2.1,3.667,2.2,4.8,2.7,5.9
			C3.133,6.867,4,7.35,5.3,7.35c0.667,0,1.367-0.017,2.1-0.05c0.4,0.4,1.55,1.75,3.45,4.05c2.167,2.667,3.533,4.467,4.1,5.4
			c0.566,0.933,1.217,3.6,1.95,8c0.466,2.933,0.85,5.7,1.149,8.3c0.2,1.733,0.517,5.634,0.95,11.7c0.467,6.767,0.7,11.233,0.7,13.4
			c0,3.033,0.416,6.116,1.25,9.25L21,67.95c-0.4-0.566-0.884-1.134-1.45-1.7c-1.1-1.066-2.033-1.483-2.8-1.25
			c-0.733,0.233-1.583,0.75-2.55,1.55c-0.5,0.4-0.917,0.783-1.25,1.15c0.167-0.334,0.233-0.667,0.2-1
			c-0.066-0.667-0.65-0.967-1.75-0.9c-1.767,0.134-3.617,0.601-5.55,1.4c1.367-0.9,2.833-1.983,4.4-3.25
			c3.167-2.5,5.233-4.634,6.2-6.4c1.166-2.1,1.649-7.316,1.45-15.649c-0.2-8.3-0.967-15.284-2.3-20.95
			C14.333,15.45,11.35,11.5,6.65,9.1z"/>
		<path style="fill-rule:evenodd;clip-rule:evenodd;fill:#50503A;" d="M27.65,11.05c0.1-0.733,0.449-1.25,1.05-1.55
			c-0.467,0.867-0.184,1.867,0.85,3c0.5,0.6,1.15,0.917,1.95,0.95c0.4,0.033,0.75,0,1.05-0.1l-0.7,0.9
			c-0.399,0.3-0.783,0.483-1.149,0.55c-1.066,0.233-1.934-0.233-2.601-1.4l-0.149-0.25c-2.834,2.067-4.717,3.767-5.65,5.1
			c-0.633,0.9-1.233,2.517-1.8,4.85c-0.467,2-0.733,3.6-0.8,4.8c-0.434,5.367-0.684,7.817-0.75,7.35l-0.4-3.8
			c0.2-4.733,0.95-8.5,2.25-11.3c1.4-3.033,3.767-5.4,7.101-7.1C27.6,12.35,27.517,11.683,27.65,11.05z"/>
	</g>
	<path style="fill-rule:evenodd;clip-rule:evenodd;fill:#B9B584;" d="M5.8,1.45C6.067,1.317,6.467,1.633,7,2.4
		c0.533,0.8,0.583,1.267,0.15,1.4c-0.467,0.133-0.9-0.183-1.3-0.95C5.45,2.117,5.433,1.65,5.8,1.45z"/>
	<path style="fill-rule:evenodd;clip-rule:evenodd;fill:#B9B584;" d="M31.2,9.95c0.3-0.167,0.517,0.1,0.649,0.8
		c0.167,0.7,0.084,1.083-0.25,1.15c-0.333,0.067-0.55-0.2-0.649-0.8C30.85,10.5,30.934,10.117,31.2,9.95z"/>
</g>
</svg>
