<?xml version="1.0" encoding="iso-8859-1"?>
<!-- Generator: Adobe Illustrator 15.1.0, SVG Export Plug-In . SVG Version: 6.00 Build 0)  -->
<!DOCTYPE svg PUBLIC "-//W3C//DTD SVG 1.1//EN" "http://www.w3.org/Graphics/SVG/1.1/DTD/svg11.dtd">
<svg version="1.1" id="treeHouse_x5F_01.ai" xmlns="http://www.w3.org/2000/svg" xmlns:xlink="http://www.w3.org/1999/xlink"
	 x="0px" y="0px" width="911.05px" height="651.9px" viewBox="0 0 911.05 651.9" style="enable-background:new 0 0 911.05 651.9;"
	 xml:space="preserve">
<g>
	<path style="fill-rule:evenodd;clip-rule:evenodd;fill:#9F8457;" d="M824.25,178.8c-4.272-0.855-9.355-2.071-15.25-3.65
		c-12.5-3.3-20.733-6.783-24.7-10.45c-7.166-6.667-12.75-11.067-16.75-13.2c-7.033-3.767-13.166-3.85-18.399-0.25
		c-4.967,3.433-14.567,16.433-28.801,39l-19.8,32.8l33.65-3.75l41.149-23.2L738.7,224.5l44.85,33.7L809,289.6l-28.8-29.55
		l-54.25-31.8c-3.967-0.867-8.233-0.767-12.8,0.3c-9.101,2.133-15.051,8.017-17.851,17.65c-0.666,2.3-3.267,7.767-7.8,16.4
		c-3.634,6.9-5.333,12.167-5.1,15.8c0.333,5.467,3.216,10.367,8.649,14.7c4.634,3.7,10.033,6.267,16.2,7.7
		c8.1,1.867,19.75,2.55,34.95,2.05c7.633-0.233,14.434-0.667,20.399-1.3c-5.6,1.067-11.899,2-18.899,2.8
		c-13.934,1.633-24.334,1.816-31.2,0.55c-6.866-1.233-15.4-4.283-25.6-9.15l-13.301-6.9c-9.333,7.1-18.833,14.483-28.5,22.15
		c-19.3,15.333-29.733,24.4-31.3,27.2c-1.399,2.5-0.684,7.2,2.15,14.1c4.399,10.834,7.217,18.851,8.45,24.05
		c1.733,7.534,11.783,5.534,30.149-6c4.134-2.6,11.65-7.683,22.55-15.25c8.834-6.133,14.967-10.083,18.4-11.85
		c7.8-4.066,23.967-8.65,48.5-13.75c12.3-2.566,23.8-4.717,34.5-6.45l24.7,28.4L771,330.5l-70.3,21.7
		c-9.101,6.1-18.517,12.7-28.25,19.8c-19.434,14.233-30.7,23.833-33.8,28.8c-4.233,6.767-7.551,14.7-9.95,23.8
		c-2.867,10.7-3.95,21.434-3.25,32.2c0.899,13.934,2.083,24.684,3.55,32.25c2.033,10.467,5.1,18.417,9.2,23.851
		c8.066,10.767,13.05,17.833,14.95,21.199c5.466,9.767,8.199,19.65,8.199,29.65c0,9.667,3.4,26.45,10.2,50.35
		c3.367,11.967,6.75,22.95,10.15,32.95c-4.434,1.134-9.834,2.134-16.2,3c-12.767,1.667-24.033,1.767-33.8,0.3
		c-12.566-1.866-22.45-3.116-29.65-3.75c-9.399-0.8-17.649-0.883-24.75-0.25c-5.967,0.533-22.017,0.834-48.149,0.9h-37.4
		c5.967-12.8,11.866-26.533,17.7-41.2c11.666-29.3,17.184-48.633,16.55-58c-0.967-14.233-1.066-27.233-0.3-39
		c1-15.2,3.35-24.633,7.05-28.3c3.434-3.434,8.45-9.333,15.05-17.7c3.3-4.166,6.25-8,8.851-11.5c3.3-7.934,5.816-19.233,7.55-33.899
		c3.467-29.367,1.3-60.867-6.5-94.5c-7.8-33.667-20.733-58.45-38.8-74.35c-5.634-5-11.45-8.8-17.45-11.4l-7.3-2.4l-99.5,23.2
		l-52.35-67.35c-10.966,11.467-24.083,22.95-39.35,34.45c-30.534,22.934-56.55,34.4-78.05,34.4s-37.417-7.733-47.75-23.2
		c-3.233-4.833-5.717-10.15-7.45-15.95l-1.6-7.25l2.35,5.75c2.167,4.6,4.716,8.85,7.65,12.75c9.333,12.467,20.7,19.017,34.1,19.65
		c13.4,0.633,27.267-2.55,41.6-9.55c7.167-3.467,12.983-7.017,17.45-10.65l-68.05-83l-65.75-28.45l14.2-1.45L212.2,146l19.4-80.75
		l4.5,9.7L221.9,152l7.05,10.25c5.767,8.233,11.3,15.75,16.6,22.55c17.1,21.8,28.917,32.55,35.45,32.25
		c4.033-0.2,8.917-1.417,14.65-3.65c5.967-2.367,11.517-5.333,16.65-8.9c12.9-8.9,18.667-17.933,17.3-27.1
		c-1.233-8.4-8.083-22.267-20.55-41.6c-3.9-6.033-8.133-12.25-12.7-18.65l-5.65-7.8l26.95-50.85L358,48.8l-32.15-31.45l23.75,14.9
		C365.067,42.583,371.867,48.833,370,51c-1.867,2.2-10.283,5.1-25.25,8.7l-21.9,4.8l-23.15,45.6l64.3,77.8
		c11.767,14.233,24.667,26.1,38.7,35.6c12.533,8.5,21.316,12.333,26.35,11.5c3.767-0.633,2.4-16.4-4.1-47.3
		c-2.034-9.7-4.45-20.3-7.25-31.8l-3.6-14.4l37.4-71.05l-4.5-18.7l15.7,14.95l-22.4,49.4l59.05-9.75
		c-10.966,2.867-22.033,5.983-33.199,9.35c-22.3,6.733-33.917,11.35-34.851,13.85c-0.566,1.5-0.333,6.817,0.7,15.95
		c1.033,9.067,2.517,18.967,4.45,29.7c5,27.7,9.517,42.9,13.55,45.6c2.2,1.467,6.316,1.983,12.35,1.55
		c5.867-0.467,12.4-1.733,19.601-3.8c17.333-5.033,29.866-11.767,37.6-20.2c6.867-7.5,11.533-32.9,14-76.2
		c1.267-21.733,1.834-43.2,1.7-64.4c0-0.933,14.217-7.95,42.65-21.05c14.199-6.534,28.399-12.983,42.6-19.35L579.4,45.8l41.85,13.45
		L557.7,52.5c-2.101,2.633-4.316,6.6-6.65,11.9c-4.6,10.6-7.366,22.6-8.3,36s11.5,25.517,37.3,36.35
		c12.9,5.433,25.884,9.517,38.95,12.25l14.25,38.9L609.3,152c-6.967-3.1-14.633-5.867-23-8.3c-16.7-4.867-28.483-5.6-35.35-2.2
		c-7.334,3.7-12.384,13.367-15.15,29c-1.866,10.633-2.8,25.9-2.8,45.8c0,14.034,7.033,33.017,21.1,56.95
		c5.634,9.633,11.517,18.383,17.65,26.25c5.967,7.7,10.85,12.883,14.65,15.55c3.5,2.467,9.483,2.583,17.949,0.35
		c7.367-1.967,15.834-5.45,25.4-10.45c8.8-4.634,16.75-9.617,23.85-14.95c7.2-5.4,11.634-9.767,13.301-13.1
		c16.933-34.133,29.399-58.3,37.399-72.5c23.533-41.867,40.483-63.583,50.851-65.15c10.267-1.533,30.3-1.367,60.1,0.5
		c13.357,0.837,25.883,1.803,37.575,2.9c-9.421-0.65-19.046-1.033-28.875-1.15c-22.434-0.233-34.9,1.517-37.4,5.25
		c-2.566,3.833,2.767,10.317,16,19.45c4.533,3.133,9.334,6.117,14.4,8.95C820.758,177.265,823.19,178.482,824.25,178.8z"/>
	<path style="fill-rule:evenodd;clip-rule:evenodd;fill:#83704C;" d="M555.9,492.7c-4.434,5.7-7.65,10.033-9.65,13
		c-3.434,5.2-5.2,10.333-5.3,15.399c-0.101,5.733-0.816,15.884-2.15,30.45c-1.267,13.867-2.3,23.417-3.1,28.65
		c-0.601,4.033-5.05,16.383-13.351,37.05c-4.166,10.333-8.267,20.267-12.3,29.8h-13.6c4.3-8.633,8.75-17.866,13.35-27.7
		c9.233-19.666,14.634-32.467,16.2-38.399c1.467-5.533,2.366-14.233,2.7-26.101c0.467-14.8,0.816-23.3,1.05-25.5
		c1.2-10.733,2.483-19.149,3.85-25.25c2.334-10.5,5.284-17.05,8.851-19.649c7-5.033,12.483-11.5,16.45-19.4
		c1.267-2.5,2.517-6.233,3.75-11.2l1.5-6.75l-1.851,19.45C560.533,480.25,558.4,488.967,555.9,492.7z"/>
	<path style="fill-rule:evenodd;clip-rule:evenodd;fill:#C38767;" d="M89.4,192.7c14.1-0.067,28.083,0.35,41.95,1.25
		c14.167,0.9,24.983,2.117,32.45,3.65c12.6,2.566,18.9,9.417,18.9,20.55c0,5.567-1.267,10.867-3.8,15.9
		c-0.367,0.3-1.183,0.517-2.45,0.65c-2.5,0.267-5.967,0.05-10.4-0.65c-4.433-0.7-8.85-3.433-13.25-8.2l-5.25-6.95l-4.15,3.8
		c-3.467,2.433-6.95,3.417-10.45,2.95s-6.133-2.667-7.9-6.6l-1.65-5.75l-4.2,3.7c-3.534,2.333-7.184,3.15-10.95,2.45
		c-3.733-0.7-5.967-3.233-6.7-7.6c-0.233-1.4-0.3-2.883-0.2-4.45l0.2-1.95l-3.85,3.7c-3.1,2.533-5.934,3.917-8.5,4.15
		c-2.567,0.233-5.017-1.283-7.35-4.55l-2.75-5l-1.75,2.8c-1.467,2.233-2.967,4.25-4.5,6.05c-4.967,5.8-9.434,8.467-13.4,8
		c-3.967-0.467-6.733-2.483-8.3-6.05c-0.5-1.1-0.85-2.3-1.05-3.6l-0.15-1.6c-2.534,0.3-4.983,0.133-7.35-0.5
		c-4.767-1.2-6.8-4.017-6.1-8.45c0.4-2.5,5.85-4.433,16.35-5.8C62.117,193.4,74.3,192.767,89.4,192.7z"/>
	<path style="fill-rule:evenodd;clip-rule:evenodd;fill:#C38767;" d="M70.3,132.55c-5.133,0.934-9.1-0.85-11.9-5.35
		c-0.867-1.4-1.566-2.983-2.1-4.75l-0.55-2.25l-4.85,4.9c-3.833,3.167-7.267,4.517-10.3,4.05s-4.783-2.933-5.25-7.4l0.2-6.6
		c-1.133,1.033-2.65,1.983-4.55,2.85c-3.833,1.8-7.733,2.35-11.7,1.65c-3.966-0.7-6-2.883-6.1-6.55
		c-0.034-1.133,0.133-2.35,0.5-3.65l0.55-1.6c-2.7,0.833-5.317,1.283-7.85,1.35c-5.066,0.066-7.133-1.883-6.2-5.85
		c1.033-4.333,22.117-6.55,63.25-6.65c16.3-0.034,32.233,0.316,47.8,1.05c15.633,0.767,26.667,1.7,33.1,2.8
		c10.767,1.867,16.433,7.2,17,16c0.267,4.4-0.533,8.6-2.4,12.6l0.2,1.5c0.033,1.2-0.133,2.317-0.5,3.35c-1.1,3.267-4,5.017-8.7,5.25
		c-4.667,0.267-8.483-2.083-11.45-7.05c-0.933-1.534-1.733-3.25-2.4-5.15l-0.7-2.35c-0.833,1.867-2.1,3.733-3.8,5.6
		c-3.367,3.733-7.15,5.6-11.35,5.6s-6.967-1.767-8.3-5.3c-0.4-1.133-0.633-2.367-0.7-3.7v-1.65c-0.733,1.7-1.833,3.367-3.3,5
		c-2.867,3.267-6.067,4.783-9.6,4.55c-3.5-0.233-6.783-3.2-9.85-8.9l-3.6-8.5l-0.55,2.05c-0.533,1.667-1.233,3.233-2.1,4.7
		C79.417,128.817,75.433,131.617,70.3,132.55z"/>
	<path style="fill-rule:evenodd;clip-rule:evenodd;fill:#C38767;" d="M164.85,49.15c8.233-0.5,17.867-0.517,28.9-0.05
		c11.667,0.533,21.467,1.483,29.4,2.85c9.133,1.566,14.15,3.466,15.05,5.7c2,4.9,1.983,10.3-0.05,16.2
		c-2.066,6-5.017,8.75-8.85,8.25c-3.533-0.434-5.716-1.617-6.55-3.55l-0.15-2.8c-0.4,0.467-1.083,0.95-2.05,1.45
		c-1.9,0.933-4.183,1.4-6.85,1.4c-2.633,0-4.434-1.483-5.4-4.45l-0.6-4.45c-0.3,0.466-0.9,0.95-1.8,1.45
		c-1.767,0.934-4.117,1.4-7.05,1.4c-2.967,0-5.45-1.417-7.45-4.25l-2.15-4.25c-0.467,0.767-1.2,1.55-2.2,2.35
		c-2.033,1.6-4.367,2.467-7,2.6c-2.667,0.133-4.883-1.467-6.65-4.8l-1.85-5.1c-0.466,0.9-1.133,1.783-2,2.65
		c-1.767,1.767-3.683,2.65-5.75,2.65c-2.066,0-3.1-1.417-3.1-4.25l0.6-4.25c-1.833,0.3-3.617,0.35-5.35,0.15
		c-3.5-0.333-5.034-1.683-4.6-4.05C151.617,50.633,156.117,49.683,164.85,49.15z"/>
	<path style="fill-rule:evenodd;clip-rule:evenodd;fill:#C38767;" d="M325.1,5.4c7.3,1.033,12.717,3.167,16.25,6.4
		c3,2.7,4.467,5.983,4.4,9.85c-0.033,3.333-1.133,6.533-3.3,9.6c-2.034,2.933-4.317,4.783-6.85,5.55
		c-4.067,1.267-7.917,0.9-11.55-1.1c-1.133-0.633-2.167-1.383-3.1-2.25l-1.1-1.15c-0.733,0.767-1.85,1.55-3.35,2.35
		c-2.967,1.633-6.333,2.6-10.1,2.9c-3.733,0.3-6.967-2.216-9.7-7.55c-0.867-1.7-1.617-3.567-2.25-5.6l-0.75-2.55
		c-0.733,1.133-1.95,2.267-3.65,3.4c-3.367,2.233-7.383,3.35-12.05,3.35c-4.7,0-8.1-2.25-10.2-6.75c-0.667-1.4-1.167-2.95-1.5-4.65
		l-0.3-2.1c-0.367,0.633-1.2,1.283-2.5,1.95c-2.6,1.4-6.25,2.25-10.95,2.55c-4.667,0.3-8.183-1.35-10.55-4.95
		c-0.733-1.133-1.317-2.383-1.75-3.75l-0.4-1.75c-0.633,0.5-1.667,1.067-3.1,1.7c-2.867,1.233-6.317,2.15-10.35,2.75
		c-5.2,0.8-9.55-0.067-13.05-2.6c-3.6-2.6-3.25-5.217,1.05-7.85c4.5-2.767,20.25-3.7,47.25-2.8
		C286.083,1.15,307.233,2.833,325.1,5.4z"/>
	<path style="fill-rule:evenodd;clip-rule:evenodd;fill:#C38767;" d="M434.4,64.25l-1.95-3.35c-0.633,0.8-1.483,1.583-2.55,2.35
		c-2.1,1.533-4.15,2.2-6.15,2c-2-0.167-3.833-1.583-5.5-4.25l-1.9-4c-0.434,0.6-1.05,1.217-1.85,1.85c-1.6,1.3-3.3,2.133-5.1,2.5
		c-1.8,0.367-3.517-0.9-5.15-3.8l-1.85-4.45c-0.2,0.5-0.6,1.017-1.2,1.55c-1.167,1-2.65,1.5-4.45,1.5s-3-1.017-3.6-3.05l-0.3-3.05
		c-1.867,0.367-3.7,0.517-5.5,0.45c-3.533-0.167-5.033-1.333-4.5-3.5c0.6-2.433,10.483-3.467,29.65-3.1
		c18.233,0.333,30.833,1.367,37.8,3.1c5.533,1.4,8.117,4.767,7.75,10.1c-0.133,2.1-0.75,3.95-1.85,5.55
		c-1.101,1.633-2.35,2.5-3.75,2.6c-2.367,0.2-4.15-0.533-5.35-2.2l-1.15-2.55c-0.567,0.8-1.3,1.65-2.2,2.55
		c-1.733,1.8-3.317,2.967-4.75,3.5C437.533,67.117,436,66.35,434.4,64.25z"/>
	<path style="fill-rule:evenodd;clip-rule:evenodd;fill:#C38767;" d="M678.15,48.8c0.199,0.733-0.351,1.4-1.65,2
		c-3.066,1.467-6.267,1.784-9.6,0.95c-2.5-0.633-5.367-1.2-8.601-1.7l-4.149-0.55c-0.367,0.867-0.884,1.717-1.551,2.55
		c-1.366,1.6-2.833,2.25-4.399,1.95s-3.533-1.017-5.9-2.15l-3.1-1.6c0,0.867-0.25,1.75-0.75,2.65c-1,1.733-2.733,2.6-5.2,2.6
		c-2.5,0-4.75-0.5-6.75-1.5l-2.25-1.5l-0.1,2.2c-0.167,1.767-0.534,3.367-1.101,4.8c-1.866,4.6-5.45,6.75-10.75,6.45
		c-4.3-0.267-7.184-2.75-8.649-7.45c-1.434-4.767-0.301-8.267,3.399-10.5c3.566-2.133,14.517-3.3,32.851-3.5
		c17.8-0.233,29.283,0.45,34.449,2.05C676.616,47.25,677.884,48,678.15,48.8z"/>
	<path style="fill-rule:evenodd;clip-rule:evenodd;fill:#C38767;" d="M695.3,3.15c12.267,0,19.834,2,22.7,6
		c1.066,1.467,1.1,2.833,0.1,4.1c-1,1.233-2.616,1.85-4.85,1.85c-3.733,0-7.717-0.617-11.95-1.85l-5.25-1.85
		c0,1.367-0.35,2.733-1.05,4.1c-1.366,2.733-3.767,4.1-7.2,4.1c-3.399,0-6.533-0.25-9.399-0.75L675.1,18.1
		c-0.133,1.5-0.633,3.066-1.5,4.7c-1.733,3.233-4.466,5.167-8.199,5.8c-3.733,0.6-7.217,0.033-10.45-1.7l-3.75-2.8
		c-0.5,1-1.217,2-2.15,3c-1.866,2-3.899,3-6.1,3s-4.601-0.367-7.2-1.1l-3.25-1.15c-1.233,1.367-2.8,2.583-4.7,3.65
		c-3.733,2.1-7.166,2.367-10.3,0.8c-3.5-1.733-3.667-6.017-0.5-12.85c3-6.567,6.667-11,11-13.3c4.667-2.5,13.833-3.75,27.5-3.75
		C663.467,2.4,676.733,2.65,695.3,3.15z"/>
	<path style="fill-rule:evenodd;clip-rule:evenodd;fill:#C38767;" d="M540.5,99.65c12.134,0.667,19.917,2.317,23.35,4.95
		c1.367,1.033,1.784,2.083,1.25,3.15c-0.5,1-1.716,1.783-3.649,2.35c-3.134,0.933-7.184,0.967-12.15,0.1l-6.55-1.6
		c-0.134,0.867-0.667,1.8-1.6,2.8c-1.867,2-4.834,3.317-8.9,3.95c-4.033,0.633-8.616,0.566-13.75-0.2l-6.45-1.3
		c0,1.133-0.399,2.35-1.2,3.65c-1.633,2.6-4.466,4.367-8.5,5.3c-4.033,0.934-7.233,0.833-9.6-0.3l-2.35-1.95
		c-0.367,1.9-1.15,3.75-2.351,5.55c-2.399,3.633-5.616,5.283-9.649,4.95c-4.167-0.333-6.551-2.15-7.15-5.45
		c-0.467-2.333-0.066-7.5,1.2-15.5c1-6.2,9.25-9.9,24.75-11.1C506,98.333,520.434,98.55,540.5,99.65z"/>
	<path style="fill-rule:evenodd;clip-rule:evenodd;fill:#C38767;" d="M677.35,164.7l0.551,2.55c-0.233,1.867-1.917,3.25-5.051,4.15
		c-3.1,0.934-6.267,1.1-9.5,0.5l-3.949-1.2l0.199,3.75c-0.5,2.733-2.316,4.716-5.449,5.95c-3.101,1.267-6.65,1.9-10.65,1.9
		l-5.05-0.4l-0.101,2.4c-0.166,1.833-0.5,3.383-1,4.65c-1.666,4.033-4.783,4.417-9.35,1.15c-5.134-3.633-6.167-8.267-3.1-13.9
		c3-5.467,8.517-9.55,16.55-12.25c8.666-2.9,20.267-4.617,34.8-5.15c15.333-0.566,23.184,0.9,23.55,4.4
		c0.3,3.133-3.35,4.316-10.95,3.55L677.35,164.7z"/>
	<path style="fill-rule:evenodd;clip-rule:evenodd;fill:#C38767;" d="M856.1,134.5c14.067,0.367,22.534,2.45,25.4,6.25
		c2.8,3.767,0.533,5.517-6.8,5.25c-2.334-0.067-5.017-0.333-8.05-0.8l-3.851-0.7c-0.233,0.867-0.7,1.717-1.399,2.55
		c-1.334,1.6-3.101,2.25-5.301,1.95c-2.199-0.3-4.233-0.65-6.1-1.05l-2.15-0.45c-0.5,0.5-1.25,0.967-2.25,1.4
		c-2,0.867-4.233,1.15-6.699,0.85c-2.5-0.3-4.367-0.767-5.601-1.4l-1.149-0.85c-0.634,1.367-1.5,2.617-2.601,3.75
		c-2.267,2.233-4.633,2.733-7.1,1.5c-1.467-0.733-2.483-2.017-3.05-3.85c-0.567-1.767-0.601-3.633-0.101-5.6
		c1.167-4.8,4.2-7.4,9.101-7.8C840.033,134.667,849.267,134.333,856.1,134.5z"/>
	<path style="fill-rule:evenodd;clip-rule:evenodd;fill:#C38767;" d="M816.1,184.5c-0.166,2-0.716,3.8-1.649,5.4
		c-1.867,3.2-4.684,3.767-8.45,1.7c-3.7-2-4.884-5.717-3.55-11.15c1.033-4.233,3.217-8.617,6.55-13.15
		c2.434-3.3,17.767-4.15,46-2.55c11.366,0.633,22.033,1.567,32,2.8c10.333,1.3,17.233,2.583,20.7,3.85
		c5.934,2.2,3.967,3.55-5.9,4.05l-16.55,0.1l-5.95,2.25c-2.5,0.934-6,0.833-10.5-0.3l-6-1.95c0.334,0.267,0.351,0.567,0.05,0.9
		c-0.533,0.667-2.283,1.233-5.25,1.7c-2.966,0.467-6.166-0.017-9.6-1.45l-4.25-2.3c0.134,0.5,0.033,1.05-0.3,1.65
		c-0.601,1.2-2,2.034-4.2,2.5c-2.167,0.467-4.616,0.534-7.35,0.2l-3.5-0.6l-0.551,2.7c-0.733,1.9-2.033,3-3.899,3.3
		c-1.867,0.3-3.733,0.45-5.601,0.45L816.1,184.5z"/>
	<path style="fill-rule:evenodd;clip-rule:evenodd;fill:#C38767;" d="M769.35,197.25c1.101-2,8.134-2.683,21.101-2.05
		c12.733,0.633,21.149,1.933,25.25,3.9c3.267,1.566,2.066,2.467-3.601,2.7l-9.5-0.1c-0.066,0.5-0.35,1.05-0.85,1.65
		c-0.967,1.2-2.55,2.033-4.75,2.5s-4.467,0.417-6.8-0.15l-2.9-1l0.15,1.45c-0.334,1.067-1.517,1.833-3.55,2.3
		c-2.034,0.466-3.884,0.483-5.551,0.05l-1.899-0.8c-0.167,1.1-0.55,2.117-1.15,3.05c-1.233,1.9-2.967,2.5-5.2,1.8
		c-2.199-0.667-3.216-2.883-3.05-6.65C767.217,202.667,767.983,199.783,769.35,197.25z"/>
	<path style="fill-rule:evenodd;clip-rule:evenodd;fill:#C38767;" d="M794.9,291.85c-0.134-9.133,1.816-14.5,5.85-16.1
		c1.8-0.733,7.5-0.483,17.1,0.75c11.934,1.5,21.567,2.117,28.9,1.85c9.667-0.333,19.65,0.95,29.95,3.85c4.033,1.1,7.033,2.2,9,3.3
		c2,1.1,2.35,1.833,1.05,2.2c-2.2,0.633-4.967,0.95-8.3,0.95l-4.4-0.2c0,0.333-0.184,0.7-0.55,1.1c-0.767,0.8-2.083,1.434-3.95,1.9
		c-1.866,0.466-3.916,0.183-6.149-0.85l-2.801-1.75c-0.133,0.767-0.5,1.533-1.1,2.3c-1.167,1.567-2.934,2.417-5.3,2.55
		c-2.334,0.133-5.45,0.183-9.351,0.15l-5.199-0.15c-0.733,0.566-1.667,1.116-2.801,1.65c-2.267,1.033-4.333,1.483-6.199,1.35
		c-1.867-0.167-3.917-0.833-6.15-2l-2.8-1.75l-0.45,3.9c-0.767,2.667-2.233,4.233-4.4,4.7c-2.199,0.467-4.35,0.35-6.449-0.35
		l-2.551-1.15c-0.633,1-1.466,1.983-2.5,2.95c-2.033,1.933-4.066,2.816-6.1,2.65c-1.167-0.1-2.184-1.55-3.05-4.35
		C795.4,298.633,794.967,295.483,794.9,291.85z"/>
	<path style="fill-rule:evenodd;clip-rule:evenodd;fill:#C38767;" d="M783.5,297.4c6.866,0.9,9.75,2.283,8.65,4.15
		c-0.934,1.567-4.15,2.1-9.65,1.6l-7.95-1.2l0.101,2.15c-0.367,1.5-1.634,2.4-3.801,2.7c-2.199,0.3-4.233,0.2-6.1-0.3l-2.15-0.85
		c0.067,0.567-0.1,1.167-0.5,1.8c-0.8,1.267-2.383,2.05-4.75,2.35c-2.333,0.3-4.017,0.4-5.05,0.3l-0.899-0.3
		c-0.034,1.333-0.384,2.517-1.051,3.55c-1.333,2-3.6,2.183-6.8,0.55c-5.133-2.633-5.2-5.85-0.2-9.65c4.7-3.533,11-5.8,18.9-6.8
		C769.583,296.483,776.667,296.467,783.5,297.4z"/>
	<path style="fill-rule:evenodd;clip-rule:evenodd;fill:#C38767;" d="M787.6,341.85c1.067-2.666,2.65-4.199,4.75-4.6l19.551-0.55
		c14.3-0.4,24.6-0.601,30.899-0.601c7.934,0,14.483,0.784,19.65,2.351c5.434,1.633,7.483,3.666,6.149,6.1
		c-1.166,2.101-3.933,2.917-8.3,2.45l-6.25-1.35l-0.2,2.3c-0.5,1.6-1.566,2.517-3.199,2.75c-1.634,0.233-3.517,0.017-5.65-0.65
		l-2.75-1.05c0.2,0.566,0.05,1.15-0.45,1.75c-0.934,1.233-3.033,1.967-6.3,2.2s-5.65-0.634-7.15-2.601l-1.25-3
		c0.101,0.467-0.066,0.983-0.5,1.551c-0.833,1.1-2.533,1.883-5.1,2.35s-5.017-0.033-7.35-1.5l-2.75-2.4l0.199,3.801
		c-0.267,2.6-1.449,4.133-3.55,4.6c-2.1,0.467-4.233,0.8-6.399,1l-2.601,0.15c-0.166,1.6-0.6,3.083-1.3,4.449
		c-1.4,2.801-3.4,3.733-6,2.801c-1.5-0.534-2.75-2.167-3.75-4.9c-0.967-2.6-1.517-5.517-1.65-8.75
		C786.25,347.1,786.667,344.217,787.6,341.85z"/>
	<path style="fill-rule:evenodd;clip-rule:evenodd;fill:#83704C;" d="M649.6,651.8c-4.8,0.2-10.483-0.149-17.05-1.05l-8.35-1.45
		c1.2-6.899,2.066-15.267,2.6-25.1c1.033-19.7-0.166-36.867-3.6-51.5c-2.867-12.267-7.867-29.467-15-51.601
		c-6.5-20-10.217-32.699-11.15-38.1c-1-5.733-0.184-20.384,2.45-43.95c2.866-25.833,4.05-43.85,3.55-54.05
		c-0.6-12.233-1.8-20.15-3.6-23.75c-1.134-1.8-2.033-3.25-2.7-4.35c-1.2-2.034-2.25-4.567-3.15-7.601
		c-1.866-6.233-3.083-12.366-3.649-18.399l-0.25-7.2l17.149-4.55c12.7-3.9,22.233-8.017,28.601-12.35
		c10.967-7.5,23.684-15.983,38.149-25.45c-9.833,8-19.949,16.267-30.35,24.8c-20.833,17.067-32.65,27-35.45,29.8
		c-2.833,2.833-3.566,6.033-2.2,9.6c0.9,2.267,3.167,6.767,6.801,13.5c1.1,2.5,2.183,6.184,3.25,11.05
		c0.6,2.767,1.449,6.95,2.55,12.551c2.066,9.5,4.399,13.816,7,12.949c2.8-0.933,9.25-4.833,19.35-11.699
		c5.033-3.434,9.8-6.767,14.3-10c-3.6,2.866-7.466,6.083-11.6,9.649c-8.233,7.101-13.6,12.351-16.1,15.75
		c-2.534,3.5-4.351,8.134-5.45,13.9c-0.7,3.666-1.783,10.717-3.25,21.149c-1.7,10.267-2.25,22.417-1.65,36.45
		c0.667,15.867,2.717,26.9,6.15,33.101c6.2,11.133,10.35,18.833,12.45,23.1c4.699,9.5,7.533,17.017,8.5,22.55
		c0.767,4.233,2.733,16.851,5.899,37.851c3.2,19.8,5.717,31.85,7.55,36.149c3,7,6.534,15.517,10.601,25.55
		C664.717,650.566,657.267,651.467,649.6,651.8z"/>
	<path style="fill-rule:evenodd;clip-rule:evenodd;fill:#65583D;" d="M655.2,651.4c-3.4,0.399-6.851,0.566-10.351,0.5
		c-3.1-0.034-6-0.217-8.699-0.551c-2.634-0.3-3.634-0.55-3-0.75c1.133-0.366,2.116-4.649,2.949-12.85c0.9-8.9,1.351-20.1,1.351-33.6
		c0-11.534-3.617-30.367-10.851-56.5c-8.233-27.667-13.35-45.733-15.35-54.2c-2.967-12.566-4.684-24.5-5.15-35.8
		c-0.433-11,0.284-22,2.15-33c1.566-9.034,3.783-19.851,6.65-32.45l3.85-16.15L615.1,420.9c-2.133,31.166-2.416,49.866-0.85,56.1
		c1.3,5.134,5.783,18.184,13.45,39.15c7.767,21.166,12.25,34.033,13.45,38.6c1.566,5.934,4.383,23.816,8.449,53.65
		C651.634,623.333,653.5,637.667,655.2,651.4z"/>
	<path style="fill-rule:evenodd;clip-rule:evenodd;fill:#65583D;" d="M436,197.65c5.033,20.3,9.883,30.567,14.55,30.8
		c4.7,0.233,16.584-2.4,35.65-7.9c9.533-2.767,18.6-5.55,27.2-8.35l22.149,36.05c15.5,25.433,25.117,41.683,28.851,48.75
		c4.8,9.1,8.333,16.483,10.6,22.15c2.9,7.2,5.134,14.716,6.7,22.55c2.033,10.233,3.316,15.833,3.85,16.8
		c0.767,1.366,1.8,1.983,3.101,1.85c1.333-0.1,3.25-0.983,5.75-2.649c3.666-2.434,7.017-2.184,10.05,0.75
		c2.899,2.866,4.35,6.916,4.35,12.149c0,6.733-0.55,13.467-1.649,20.2c-1.034-3.533-2.367-7.066-4-10.6
		c-3.267-7-6.417-10.384-9.45-10.15s-5.066,2.167-6.101,5.8c-0.533,1.834-0.75,3.634-0.649,5.4c-1.367-2.267-2.95-4.434-4.75-6.5
		c-3.566-4.1-6.4-5.566-8.5-4.4c-2.101,1.167-3.733,3.967-4.9,8.4c-0.566,2.233-0.934,4.333-1.1,6.3
		c-1.566-4.366-2.334-8.717-2.3-13.05c0.066-8.634,4.066-12.833,12-12.6c1.033-0.634,1.716-2.267,2.05-4.9
		c0.733-5.233-0.533-12.75-3.8-22.55c-3.467-10.434-11.551-25.6-24.25-45.5c-11.067-17.333-18.733-28.15-23-32.45
		c-2.567-2.567-8.267-7.967-17.101-16.2l-12.5-11.6l-99.3,23.55l-67.85-90.3l35.3,39.2c24.2,26.267,38.05,39.75,41.55,40.45
		c4.733,0.967,9.917,1.033,15.55,0.2c6.267-0.9,10.05-2.65,11.35-5.25c1.167-2.333,0.583-14.15-1.75-35.45l-3.85-31.3l1.65,9.5
		C432.883,184.4,434.4,191.35,436,197.65z"/>
	<g>
		<g>
			<path style="fill-rule:evenodd;clip-rule:evenodd;fill:#AD5C37;" d="M166.45,210.35c0.033,0.033,0.333,0.667,0.9,1.9
				c0.566,1.567,0.883,3.15,0.95,4.75c0.133,2.5-0.233,4.317-1.1,5.45c-0.333-0.267-0.717-0.7-1.15-1.3
				c-0.8-1.2-1.233-2.583-1.3-4.15s0.2-3.15,0.8-4.75C166.183,210.983,166.483,210.35,166.45,210.35z"/>
		</g>
	</g>
	<g>
		<g>
			<path style="fill-rule:evenodd;clip-rule:evenodd;fill:#AD5C37;" d="M96.4,196.25c0,0.267-0.316,1.017-0.95,2.25
				c-0.9,1.733-2,3.267-3.3,4.6c-1.333,1.367-2.7,2.333-4.1,2.9c-1.133,0.3-1.7,0.433-1.7,0.4c0-0.533,0.117-1.2,0.35-2
				c0.466-1.6,1.333-3.05,2.6-4.35c1.3-1.333,2.883-2.367,4.75-3.1C94.983,196.583,95.767,196.35,96.4,196.25z"/>
		</g>
	</g>
	<g>
		<g>
			<path style="fill-rule:evenodd;clip-rule:evenodd;fill:#AD5C37;" d="M65.1,200.8c0,0.034-0.1,0.767-0.3,2.2
				c-0.4,1.7-1.083,3.233-2.05,4.6c-0.9,1.433-1.933,2.483-3.1,3.15c-0.566,0.333-1.05,0.517-1.45,0.55
				c-0.067-0.466-0.05-1.05,0.05-1.75c0.2-1.466,0.717-2.85,1.55-4.15c0.934-1.3,2.1-2.45,3.5-3.45
				C64.533,201.183,65.133,200.8,65.1,200.8z"/>
		</g>
	</g>
	<g>
		<g>
			<path style="fill-rule:evenodd;clip-rule:evenodd;fill:#AD5C37;" d="M134.65,204.25l1.95,2.05c1.4,1.767,2.367,3.733,2.9,5.9
				c0.567,2.133,0.667,4.05,0.3,5.75c-0.2,0.833-0.45,1.45-0.75,1.85c-0.5-0.333-1.033-0.867-1.6-1.6
				c-1.2-1.434-2.05-3.117-2.55-5.05c-0.5-1.9-0.683-3.95-0.55-6.15L134.65,204.25z"/>
		</g>
	</g>
	<g>
		<g>
			<path style="fill-rule:evenodd;clip-rule:evenodd;fill:#AD5C37;" d="M115.65,204.1l0.35,1.25c0.167,1.033,0.05,2.05-0.35,3.05
				s-0.95,1.717-1.65,2.15c-0.333,0.2-0.617,0.3-0.85,0.3c-0.1-1,0.1-2.117,0.6-3.35c0.3-0.767,0.7-1.567,1.2-2.4L115.65,204.1z"/>
		</g>
	</g>
	<g>
		<g>
			<path style="fill-rule:evenodd;clip-rule:evenodd;fill:#AD5C37;" d="M153.2,199.4l1.4,0.55c1.066,0.533,1.967,1.267,2.7,2.2
				c0.733,0.934,1.184,1.85,1.35,2.75c0.1,0.434,0.117,0.783,0.05,1.05c-1.233-0.233-2.383-1-3.45-2.3
				c-0.633-0.833-1.167-1.783-1.6-2.85L153.2,199.4z"/>
		</g>
	</g>
	<g>
		<g>
			<path style="fill-rule:evenodd;clip-rule:evenodd;fill:#AD5C37;" d="M157.65,217.15l0.9,0.95c0.633,0.833,1.083,1.717,1.35,2.65
				c0.567,1.533,0.617,2.7,0.15,3.5c-0.966-0.5-1.716-1.467-2.25-2.9c-0.267-0.934-0.367-1.917-0.3-2.95L157.65,217.15z"/>
		</g>
	</g>
	<g>
		<g>
			<path style="fill-rule:evenodd;clip-rule:evenodd;fill:#AD5C37;" d="M145.45,111.9l2.15,1.2c1.667,1.2,2.917,2.767,3.75,4.7
				c0.767,1.934,1.033,3.65,0.8,5.15c-0.133,0.767-0.333,1.333-0.6,1.7c-1.733-1.133-3.1-2.933-4.1-5.4
				c-0.633-1.5-1.167-3.167-1.6-5C145.583,112.717,145.45,111.933,145.45,111.9z"/>
		</g>
	</g>
	<g>
		<g>
			<path style="fill-rule:evenodd;clip-rule:evenodd;fill:#AD5C37;" d="M146.05,129.6c0.1,0,0.333,0.233,0.7,0.7
				c0.5,0.6,0.867,1.267,1.1,2c0.433,1.1,0.483,1.967,0.15,2.6c-0.733-0.333-1.317-1.05-1.75-2.15c-0.2-0.667-0.283-1.4-0.25-2.2
				C146.067,129.917,146.083,129.6,146.05,129.6z"/>
		</g>
	</g>
	<g>
		<g>
			<path style="fill-rule:evenodd;clip-rule:evenodd;fill:#AD5C37;" d="M119.9,108.55l1.1,2.55c0.667,2.167,0.85,4.4,0.55,6.7
				c-0.367,2.267-1.05,4.083-2.05,5.45c-0.533,0.7-1.017,1.167-1.45,1.4c-0.3-0.5-0.583-1.2-0.85-2.1c-0.5-1.8-0.6-3.683-0.3-5.65
				c0.267-1.933,0.833-3.9,1.7-5.9C119.333,109.367,119.767,108.55,119.9,108.55z"/>
		</g>
	</g>
	<g>
		<g>
			<path style="fill-rule:evenodd;clip-rule:evenodd;fill:#AD5C37;" d="M99,108l0.2,2.35c-0.034,1.967-0.534,3.833-1.5,5.6
				c-0.967,1.733-2.117,2.966-3.45,3.7c-0.667,0.333-1.217,0.517-1.65,0.55c-0.133-2,0.417-4.133,1.65-6.4
				c0.8-1.466,1.817-2.867,3.05-4.2C98.367,108.467,98.933,107.933,99,108z"/>
		</g>
	</g>
	<g>
		<g>
			<path style="fill-rule:evenodd;clip-rule:evenodd;fill:#AD5C37;" d="M105.5,123.7l-0.05,0.65c-0.1,0.566-0.3,1.066-0.6,1.5
				c-0.567,0.733-1.083,1.083-1.55,1.05c0-0.6,0.217-1.167,0.65-1.7c0.267-0.4,0.6-0.767,1-1.1L105.5,123.7z"/>
		</g>
	</g>
	<g>
		<g>
			<path style="fill-rule:evenodd;clip-rule:evenodd;fill:#AD5C37;" d="M72.15,103.85l-0.4,2.8c-0.6,2.233-1.65,4.25-3.15,6.05
				c-1.567,1.767-3.167,2.95-4.8,3.55l-2,0.35c0.034-0.6,0.184-1.367,0.45-2.3c0.567-1.8,1.517-3.433,2.85-4.9
				c1.267-1.533,2.816-2.917,4.65-4.15L72.15,103.85z"/>
		</g>
	</g>
	<g>
		<g>
			<path style="fill-rule:evenodd;clip-rule:evenodd;fill:#AD5C37;" d="M76.75,117.85l0.1,1.55c-0.067,1.267-0.367,2.45-0.9,3.55
				c-0.567,1.133-1.233,1.983-2,2.55c-0.4,0.267-0.733,0.433-1,0.5c-0.067-0.333-0.1-0.75-0.1-1.25c0.033-1.067,0.3-2.083,0.8-3.05
				c0.467-1,1.133-1.934,2-2.8L76.75,117.85z"/>
		</g>
	</g>
	<g>
		<g>
			<path style="fill-rule:evenodd;clip-rule:evenodd;fill:#AD5C37;" d="M44.1,101.7c0.167,0,0.083,0.667-0.25,2
				c-0.367,1.6-1.05,3.066-2.05,4.4c-0.966,1.267-2.033,2.167-3.2,2.7c-0.567,0.3-1.033,0.45-1.4,0.45
				c-0.034-0.433,0.017-0.983,0.15-1.65c0.3-1.333,0.9-2.583,1.8-3.75c0.867-1.133,1.95-2.167,3.25-3.1L44.1,101.7z"/>
		</g>
	</g>
	<g>
		<g>
			<path style="fill-rule:evenodd;clip-rule:evenodd;fill:#AD5C37;" d="M52.3,115.55c0.034,0.034-0.133,0.4-0.5,1.1
				c-0.5,0.833-1.033,1.583-1.6,2.25c-1.267,1.5-2.017,2.217-2.25,2.15c-0.1-0.2-0.167-0.533-0.2-1c-0.067-0.9,0.233-1.75,0.9-2.55
				c0.667-0.733,1.483-1.283,2.45-1.65C51.567,115.683,51.967,115.583,52.3,115.55z"/>
		</g>
	</g>
	<g>
		<g>
			<path style="fill-rule:evenodd;clip-rule:evenodd;fill:#AD5C37;" d="M26.8,102.15l-0.35,1.3c-0.367,1-0.934,1.867-1.7,2.6
				c-1.167,1.2-2.217,1.733-3.15,1.6c0.066-1.1,0.633-2.183,1.7-3.25c0.633-0.633,1.417-1.2,2.35-1.7L26.8,102.15z"/>
		</g>
	</g>
	<g>
		<g>
			<path style="fill-rule:evenodd;clip-rule:evenodd;fill:#AD5C37;" d="M110.3,100.5l0.4,1.25c0.267,1.033,0.367,2.033,0.3,3
				c-0.033,1-0.2,1.85-0.5,2.55c-0.233,0.534-0.4,0.8-0.5,0.8c-0.2-0.167-0.417-0.45-0.65-0.85c-0.434-0.8-0.617-1.7-0.55-2.7
				c0.067-1,0.333-1.966,0.8-2.9L110.3,100.5z"/>
		</g>
	</g>
	<g>
		<g>
			<path style="fill-rule:evenodd;clip-rule:evenodd;fill:#AD5C37;" d="M88.5,101.4l0.35,0.6c0.233,0.533,0.367,1.067,0.4,1.6
				c0.167,0.8,0.1,1.417-0.2,1.85c-0.466-0.333-0.783-0.934-0.95-1.8c-0.033-0.533,0.017-1.066,0.15-1.6L88.5,101.4z"/>
		</g>
	</g>
	<g>
		<g>
			<path style="fill-rule:evenodd;clip-rule:evenodd;fill:#AD5C37;" d="M220.8,58.05c0.233,0.233,0.65,1.034,1.25,2.4
				c0.867,1.9,1.467,3.816,1.8,5.75c0.6,3.1,0.467,5.466-0.4,7.1c-0.5-0.3-1.05-0.783-1.65-1.45c-1.267-1.367-2.083-3.067-2.45-5.1
				c-0.333-2.033-0.184-4.1,0.45-6.2C220.5,58.883,220.833,58.05,220.8,58.05z"/>
		</g>
	</g>
	<g>
		<g>
			<path style="fill-rule:evenodd;clip-rule:evenodd;fill:#AD5C37;" d="M195.6,59.9l0.4,0.9c0.267,0.833,0.3,1.684,0.1,2.55
				c-0.2,0.867-0.55,1.517-1.05,1.95l-0.65,0.4c-0.066-0.067-0.1-0.35-0.1-0.85c-0.033-0.667,0.017-1.333,0.15-2
				c0.167-0.7,0.4-1.383,0.7-2.05C195.417,60.2,195.567,59.9,195.6,59.9z"/>
		</g>
	</g>
	<g>
		<g>
			<path style="fill-rule:evenodd;clip-rule:evenodd;fill:#AD5C37;" d="M234,59.9l0.55,0.65c0.4,0.6,0.667,1.25,0.8,1.95
				c0.2,1,0.1,1.767-0.3,2.3c-0.566-0.4-0.95-1.117-1.15-2.15c-0.1-0.566-0.1-1.2,0-1.9C234,60.183,234.033,59.9,234,59.9z"/>
		</g>
	</g>
	<g>
		<g>
			<path style="fill-rule:evenodd;clip-rule:evenodd;fill:#AD5C37;" d="M181.6,50.35c0,0.033,0.1,0.783,0.3,2.25
				c0.067,1.8-0.217,3.517-0.85,5.15c-0.566,1.667-1.35,2.967-2.35,3.9l-1.3,0.9c-0.167-0.433-0.283-1.017-0.35-1.75
				c-0.167-1.466,0.017-2.966,0.55-4.5c0.566-1.5,1.4-2.933,2.5-4.3C180.667,51.3,181.167,50.75,181.6,50.35z"/>
		</g>
	</g>
	<g>
		<g>
			<path style="fill-rule:evenodd;clip-rule:evenodd;fill:#AD5C37;" d="M167.45,53.05v1.6c-0.1,1.3-0.467,2.517-1.1,3.65
				c-0.6,1.1-1.3,1.917-2.1,2.45l-1.05,0.45c-0.133,0.133-0.167-0.284-0.1-1.25c0.066-1.067,0.4-2.1,1-3.1
				c0.533-0.967,1.25-1.883,2.15-2.75C166.683,53.667,167.083,53.317,167.45,53.05z"/>
		</g>
	</g>
	<g>
		<g>
			<path style="fill-rule:evenodd;clip-rule:evenodd;fill:#AD5C37;" d="M204.55,54.1l0.55,0.55c0.433,0.5,0.717,1.083,0.85,1.75
				c0.133,1.067,0,1.783-0.4,2.15c-0.5-0.5-0.8-1.15-0.9-1.95c-0.133-0.533-0.183-1.1-0.15-1.7L204.55,54.1z"/>
		</g>
	</g>
	<g>
		<g>
			<path style="fill-rule:evenodd;clip-rule:evenodd;fill:#AD5C37;" d="M212.55,70.6l0.5,0.85c0.3,0.733,0.383,1.5,0.25,2.3
				s-0.433,1.417-0.9,1.85l-0.6,0.35c-0.033-0.034-0.066-0.284-0.1-0.75c-0.067-0.567-0.05-1.167,0.05-1.8
				c0.1-0.6,0.267-1.25,0.5-1.95L212.55,70.6z"/>
		</g>
	</g>
	<g>
		<g>
			<path style="fill-rule:evenodd;clip-rule:evenodd;fill:#AD5C37;" d="M231.45,4.6c-1.6,1.533-3.483,2.85-5.65,3.95
				c-1.433,0.733-2.767,1.184-4,1.35c-0.933,0.1-1.433,0.083-1.5-0.05c0.034,0.033,0.267-0.5,0.7-1.6c0.733-1.267,1.85-2.267,3.35-3
				s3.15-1.05,4.95-0.95C230.2,4.333,230.917,4.433,231.45,4.6z"/>
		</g>
	</g>
	<g>
		<g>
			<path style="fill-rule:evenodd;clip-rule:evenodd;fill:#AD5C37;" d="M325.85,13.5l1.4,1.55c0.933,1.367,1.433,2.934,1.5,4.7
				c0.033,1.767-0.333,3.183-1.1,4.25c-0.733,0.7-1.083,1.05-1.05,1.05c-0.733-1.466-1.15-3.25-1.25-5.35
				c-0.033-1.3,0.033-2.717,0.2-4.25C325.75,14.183,325.85,13.533,325.85,13.5z"/>
		</g>
	</g>
	<g>
		<g>
			<path style="fill-rule:evenodd;clip-rule:evenodd;fill:#AD5C37;" d="M336.25,23.7l0.65,1.1c0.4,0.9,0.6,1.85,0.6,2.85
				c0,1.567-0.35,2.633-1.05,3.2c-0.7-0.8-1.05-1.9-1.05-3.3c0-0.867,0.15-1.767,0.45-2.7L336.25,23.7z"/>
		</g>
	</g>
	<g>
		<g>
			<path style="fill-rule:evenodd;clip-rule:evenodd;fill:#AD5C37;" d="M309.75,9.15c0,0.767-0.083,1.7-0.25,2.8
				c-0.367,2.2-1.033,4.25-2,6.15c-0.967,1.933-2.067,3.45-3.3,4.55c-0.833,0.7-1.4,1.05-1.7,1.05c-0.2-0.567-0.333-1.317-0.4-2.25
				c-0.1-1.934,0.316-3.833,1.25-5.7c0.967-1.867,2.333-3.533,4.1-5C308.317,10.017,309.083,9.483,309.75,9.15z"/>
		</g>
	</g>
	<g>
		<g>
			<path style="fill-rule:evenodd;clip-rule:evenodd;fill:#AD5C37;" d="M314,24.9c-0.133,1.167-0.7,2.25-1.7,3.25
				c-0.633,0.633-1.267,1.05-1.9,1.25l-0.75,0.1c0.033-0.233,0.1-0.517,0.2-0.85c0.267-0.7,0.667-1.316,1.2-1.85
				C311.917,25.933,312.9,25.3,314,24.9z"/>
		</g>
	</g>
	<g>
		<g>
			<path style="fill-rule:evenodd;clip-rule:evenodd;fill:#AD5C37;" d="M277.1,5.4l1.15,2.2c0.767,1.867,1.083,3.8,0.95,5.8
				s-0.617,3.65-1.45,4.95l-1.15,1.35c-0.3-0.434-0.6-1.034-0.9-1.8c-0.567-1.566-0.8-3.217-0.7-4.95
				C275.2,10.15,275.9,7.633,277.1,5.4z"/>
		</g>
	</g>
	<g>
		<g>
			<path style="fill-rule:evenodd;clip-rule:evenodd;fill:#AD5C37;" d="M287.2,16.9c0.1,1.033-0.1,2.05-0.6,3.05
				c-0.367,1.066-0.883,1.716-1.55,1.95c-0.3-0.7-0.25-1.583,0.15-2.65c0.3-0.633,0.733-1.217,1.3-1.75
				C286.767,17.233,287,17.033,287.2,16.9z"/>
		</g>
	</g>
	<g>
		<g>
			<path style="fill-rule:evenodd;clip-rule:evenodd;fill:#AD5C37;" d="M253.5,3c0.167,0.633,0.233,1.433,0.2,2.4
				c-0.034,1.967-0.534,3.817-1.5,5.55c-1,1.733-2.167,2.966-3.5,3.7l-1.6,0.55c-0.1-0.1-0.067-0.733,0.1-1.9
				c0.267-1.533,0.783-3.017,1.55-4.45C249.983,6.55,251.567,4.6,253.5,3z"/>
		</g>
	</g>
	<g>
		<g>
			<path style="fill-rule:evenodd;clip-rule:evenodd;fill:#AD5C37;" d="M263.6,11.6c0.066,0.467,0,0.917-0.2,1.35
				c-0.167,0.533-0.383,0.833-0.65,0.9c-0.133-0.333-0.133-0.717,0-1.15c0.133-0.3,0.317-0.583,0.55-0.85
				C263.5,11.617,263.6,11.533,263.6,11.6z"/>
		</g>
	</g>
	<g>
		<g>
			<path style="fill-rule:evenodd;clip-rule:evenodd;fill:#AD5C37;" d="M422.35,47.4l1.05,1.55c0.7,1.4,0.983,2.883,0.85,4.45
				c-0.133,1.533-0.517,2.783-1.15,3.75l-0.9,0.95c-0.867-1.333-1.217-3.017-1.05-5.05c0.1-1.233,0.333-2.55,0.7-3.95
				C422.183,48,422.35,47.433,422.35,47.4z"/>
		</g>
	</g>
	<g>
		<g>
			<path style="fill-rule:evenodd;clip-rule:evenodd;fill:#AD5C37;" d="M411.85,51.8c0,0.034,0.033,0.217,0.1,0.55
				c0.066,0.467,0.033,0.9-0.1,1.3c-0.2,0.733-0.467,1.167-0.8,1.3c-0.233-0.434-0.267-0.95-0.1-1.55c0.1-0.4,0.283-0.783,0.55-1.15
				C411.633,52.05,411.75,51.9,411.85,51.8z"/>
		</g>
	</g>
	<g>
		<g>
			<path style="fill-rule:evenodd;clip-rule:evenodd;fill:#AD5C37;" d="M401.55,46c0.067,0.633-0.1,1.3-0.5,2
				c-0.333,0.633-0.733,1.017-1.2,1.15c-0.033-0.1-0.05-0.267-0.05-0.5c0.034-0.4,0.15-0.816,0.35-1.25
				C400.517,46.8,400.983,46.333,401.55,46z"/>
		</g>
	</g>
	<g>
		<g>
			<path style="fill-rule:evenodd;clip-rule:evenodd;fill:#AD5C37;" d="M441.35,51.6l-0.25-2.3c0.033,0.034,0.667,0.467,1.9,1.3
				c1.467,1.1,2.683,2.367,3.65,3.8c1.033,1.5,1.667,2.934,1.9,4.3c0.167,0.933,0.167,1.483,0,1.65c-0.466-0.1-1.05-0.333-1.75-0.7
				c-1.333-0.733-2.483-1.8-3.45-3.2C442.383,55.05,441.717,53.433,441.35,51.6z"/>
		</g>
	</g>
	<g>
		<g>
			<path style="fill-rule:evenodd;clip-rule:evenodd;fill:#AD5C37;" d="M435,54.05l0.3,1c0.167,0.833,0.117,1.667-0.15,2.5
				c-0.5,1.367-1.1,2.15-1.8,2.35c-0.3-0.9-0.267-1.867,0.1-2.9c0.2-0.7,0.517-1.4,0.95-2.1C434.633,54.533,434.833,54.25,435,54.05
				z"/>
		</g>
	</g>
	<g>
		<g>
			<path style="fill-rule:evenodd;clip-rule:evenodd;fill:#AD5C37;" d="M485.2,110.6l0.25,3.05c-0.066,2.434-0.617,4.733-1.65,6.9
				c-1.1,2.2-2.399,3.85-3.899,4.95l-1.851,0.95c-0.166-0.633-0.233-1.467-0.2-2.5c0.034-2,0.517-3.934,1.45-5.8
				c0.934-1.933,2.2-3.767,3.8-5.5C483.9,111.783,484.6,111.1,485.2,110.6z"/>
		</g>
	</g>
	<g>
		<g>
			<path style="fill-rule:evenodd;clip-rule:evenodd;fill:#AD5C37;" d="M497.95,109.1l0.899,0.8c0.634,0.767,0.983,1.667,1.051,2.7
				c0.1,0.967-0.017,1.783-0.351,2.45c-0.166,0.3-0.35,0.517-0.55,0.65c-0.634-0.767-0.983-1.784-1.05-3.05
				c-0.066-0.733-0.084-1.55-0.05-2.45L497.95,109.1z"/>
		</g>
	</g>
	<g>
		<g>
			<path style="fill-rule:evenodd;clip-rule:evenodd;fill:#AD5C37;" d="M513.6,102.5c-0.033,0.033,0.534,0.133,1.7,0.3
				c1.4,0.467,2.517,1.383,3.351,2.75c0.733,1.333,1.017,2.55,0.85,3.65c-0.066,0.533-0.2,0.917-0.4,1.15
				c-0.066,0.033-0.399-0.267-1-0.9c-0.699-0.767-1.35-1.617-1.949-2.55L513.6,102.5z"/>
		</g>
	</g>
	<g>
		<g>
			<path style="fill-rule:evenodd;clip-rule:evenodd;fill:#AD5C37;" d="M532.85,104.15l0.801,0.6c0.6,0.567,1.05,1.233,1.35,2
				c0.467,1.133,0.533,2.033,0.2,2.7c-0.767-0.333-1.367-1.05-1.8-2.15c-0.267-0.633-0.434-1.35-0.5-2.15
				C532.866,104.517,532.85,104.183,532.85,104.15z"/>
		</g>
	</g>
	<g>
		<g>
			<path style="fill-rule:evenodd;clip-rule:evenodd;fill:#AD5C37;" d="M550.3,104.6l0.45,0.3c0.366,0.333,0.616,0.733,0.75,1.2
				c0.134,0.8,0.066,1.316-0.2,1.55c-0.399-0.333-0.633-0.783-0.7-1.35L550.3,104.6z"/>
		</g>
	</g>
	<g>
		<g>
			<path style="fill-rule:evenodd;clip-rule:evenodd;fill:#AD5C37;" d="M617.25,52.65c0.1,1.267-0.134,2.517-0.7,3.75
				c-0.434,1.367-1.05,2.233-1.85,2.6c-0.434-0.9-0.434-2.033,0-3.4c0.399-0.833,0.95-1.583,1.649-2.25
				C616.717,53.017,617.017,52.783,617.25,52.65z"/>
		</g>
	</g>
	<g>
		<g>
			<path style="fill-rule:evenodd;clip-rule:evenodd;fill:#AD5C37;" d="M631.6,48.7l0.2,0.45c0.101,0.367,0.101,0.75,0,1.15
				c-0.066,0.534-0.25,0.9-0.55,1.1c-0.233-0.3-0.3-0.75-0.2-1.35c0.033-0.3,0.134-0.617,0.3-0.95
				C631.517,48.867,631.6,48.733,631.6,48.7z"/>
		</g>
	</g>
	<g>
		<g>
			<path style="fill-rule:evenodd;clip-rule:evenodd;fill:#AD5C37;" d="M649.1,51.4c-0.6-0.467-1.05-1.133-1.35-2
				c-0.634-1.533-0.95-2.316-0.95-2.35l0.851,0.2c0.699,0.333,1.199,0.9,1.5,1.7c0.233,0.7,0.3,1.316,0.199,1.85
				C649.283,51.067,649.2,51.267,649.1,51.4z"/>
		</g>
	</g>
	<g>
		<g>
			<path style="fill-rule:evenodd;clip-rule:evenodd;fill:#AD5C37;" d="M666.45,47l0.55,0.25c0.467,0.233,0.816,0.6,1.05,1.1
				c0.167,0.867,0.101,1.433-0.2,1.7c-0.399-0.367-0.649-0.833-0.75-1.4c-0.199-0.3-0.366-0.667-0.5-1.1L666.45,47z"/>
		</g>
	</g>
	<g>
		<g>
			<path style="fill-rule:evenodd;clip-rule:evenodd;fill:#AD5C37;" d="M610,50.85c0.634-0.967,1.417-1.7,2.35-2.2
				c0.067,1.067-0.25,2.133-0.949,3.2c-0.4,0.667-0.867,1.167-1.4,1.5l-0.65,0.3c-0.033-0.2-0.033-0.467,0-0.8
				C609.417,52.15,609.634,51.483,610,50.85z"/>
		</g>
	</g>
	<g>
		<g>
			<path style="fill-rule:evenodd;clip-rule:evenodd;fill:#AD5C37;" d="M634,9.1c-0.033,0.867-0.2,1.9-0.5,3.1
				c-0.6,2.4-1.517,4.617-2.75,6.65c-1.267,2.066-2.667,3.65-4.2,4.75c-1.166,0.833-1.833,1.167-2,1
				c-0.166-0.633-0.233-1.483-0.2-2.55c0.101-2.133,0.767-4.183,2-6.15c1.233-2,2.884-3.733,4.95-5.2
				C632.366,9.967,633.267,9.433,634,9.1z"/>
		</g>
	</g>
	<g>
		<g>
			<path style="fill-rule:evenodd;clip-rule:evenodd;fill:#AD5C37;" d="M643.15,16.05c0,0.034,0.133,0.383,0.399,1.05
				c0.233,0.867,0.3,1.717,0.2,2.55c-0.233,1.467-0.684,2.367-1.35,2.7c-0.5-0.833-0.667-1.817-0.5-2.95
				c0.133-0.8,0.383-1.6,0.75-2.4L643.15,16.05z"/>
		</g>
	</g>
	<g>
		<g>
			<path style="fill-rule:evenodd;clip-rule:evenodd;fill:#AD5C37;" d="M650,3.65c0.233,0.167,0.85,0.9,1.85,2.2
				c1.301,1.733,2.417,3.5,3.351,5.3c0.967,1.867,1.6,3.6,1.899,5.2c0.2,1.167,0.217,1.833,0.051,2
				c-0.567-0.067-1.301-0.333-2.2-0.8c-1.767-0.966-3.15-2.45-4.15-4.45c-1-2.033-1.416-4.233-1.25-6.6
				C649.616,5.3,649.767,4.35,650,3.65z"/>
		</g>
	</g>
	<g>
		<g>
			<path style="fill-rule:evenodd;clip-rule:evenodd;fill:#AD5C37;" d="M664.2,17.95c-0.033,0,0.2,0.167,0.7,0.5
				c0.533,0.533,0.866,1.183,1,1.95c0.199,1.133,0.116,1.934-0.25,2.4c-0.634-0.466-1.034-1.183-1.2-2.15
				C664.283,19.483,664.2,18.583,664.2,17.95z"/>
		</g>
	</g>
	<g>
		<g>
			<path style="fill-rule:evenodd;clip-rule:evenodd;fill:#AD5C37;" d="M677,4.25l2,0.7c1.566,0.767,2.917,1.8,4.05,3.1
				c1.101,1.3,1.8,2.583,2.101,3.85c0.166,0.667,0.216,1.184,0.149,1.55c-0.467-0.067-1.017-0.25-1.649-0.55
				c-1.334-0.6-2.483-1.483-3.45-2.65c-0.967-1.133-1.8-2.483-2.5-4.05L677,4.25z"/>
		</g>
	</g>
	<g>
		<g>
			<path style="fill-rule:evenodd;clip-rule:evenodd;fill:#AD5C37;" d="M708.4,9.05l0.85,0.3c0.634,0.3,1.184,0.733,1.65,1.3
				c0.666,0.967,0.916,1.75,0.75,2.35c-0.733-0.2-1.384-0.7-1.95-1.5c-0.4-0.467-0.733-1.017-1-1.65L708.4,9.05z"/>
		</g>
	</g>
	<g>
		<g>
			<path style="fill-rule:evenodd;clip-rule:evenodd;fill:#AD5C37;" d="M632.05,177.35c-0.366,0-0.267,0.683,0.3,2.05
				c0.801,2,1.101,3.817,0.9,5.45c-0.134,1.9-0.583,3.467-1.35,4.7c-0.733,0.833-1.101,1.233-1.101,1.2
				c-0.267-0.4-0.533-0.967-0.8-1.7c-0.533-1.433-0.767-2.966-0.7-4.6C629.967,179.683,630.884,177.317,632.05,177.35z"/>
		</g>
	</g>
	<g>
		<g>
			<path style="fill-rule:evenodd;clip-rule:evenodd;fill:#AD5C37;" d="M645.75,164.85l0.65,1.25c0.433,1.066,0.6,2.15,0.5,3.25
				c-0.101,1.1-0.351,2.017-0.75,2.75l-0.601,0.8c-0.8-0.933-1.133-2.2-1-3.8c0.101-1,0.334-2,0.7-3L645.75,164.85z"/>
		</g>
	</g>
	<g>
		<g>
			<path style="fill-rule:evenodd;clip-rule:evenodd;fill:#AD5C37;" d="M666.8,162.75c0.066-0.067,0.467,0.083,1.2,0.45
				c0.866,0.466,1.634,1.066,2.3,1.8c1.033,1.133,1.566,2.117,1.601,2.95c-0.267,0.033-0.617-0.017-1.051-0.15
				c-0.833-0.267-1.566-0.75-2.199-1.45c-0.634-0.667-1.134-1.483-1.5-2.45L666.8,162.75z"/>
		</g>
	</g>
	<g>
		<g>
			<path style="fill-rule:evenodd;clip-rule:evenodd;fill:#AD5C37;" d="M653.85,171.55c0.067,0,0.233,0.284,0.5,0.85
				c0.334,0.667,0.551,1.35,0.65,2.05c0.1,0.667,0.116,1.267,0.05,1.8c-0.033,0.367-0.083,0.583-0.149,0.65
				c-0.167-0.066-0.367-0.217-0.601-0.45c-0.5-0.5-0.8-1.117-0.899-1.85c-0.101-0.733-0.051-1.467,0.149-2.2
				C653.783,171.833,653.884,171.55,653.85,171.55z"/>
		</g>
	</g>
	<g>
		<g>
			<path style="fill-rule:evenodd;clip-rule:evenodd;fill:#AD5C37;" d="M690.1,162.25c0.034,0,0.284,0.05,0.75,0.15
				c0.534,0.167,1.017,0.434,1.45,0.8c0.733,0.6,1.066,1.15,1,1.65c-0.6,0-1.2-0.267-1.8-0.8c-0.4-0.333-0.75-0.733-1.05-1.2
				L690.1,162.25z"/>
		</g>
	</g>
	<g>
		<g>
			<path style="fill-rule:evenodd;clip-rule:evenodd;fill:#AD5C37;" d="M831.9,137.85c0.399,2.533-0.034,5.133-1.301,7.8
				c-0.8,1.7-1.716,3.017-2.75,3.95c-0.899,0.633-1.366,0.95-1.399,0.95c-0.2-0.466-0.334-1.1-0.4-1.9
				c-0.1-1.633,0.217-3.25,0.95-4.85c0.733-1.566,1.783-3.033,3.15-4.4C830.816,138.733,831.4,138.217,831.9,137.85z"/>
		</g>
	</g>
	<g>
		<g>
			<path style="fill-rule:evenodd;clip-rule:evenodd;fill:#AD5C37;" d="M842.85,139.75c0,0.033,0.017,0.35,0.051,0.95
				c0,0.733-0.134,1.4-0.4,2c-0.3,1.1-0.75,1.783-1.35,2.05c-0.334-0.7-0.351-1.55-0.051-2.55c0.233-0.667,0.601-1.267,1.101-1.8
				C842.467,140.1,842.684,139.883,842.85,139.75z"/>
		</g>
	</g>
	<g>
		<g>
			<path style="fill-rule:evenodd;clip-rule:evenodd;fill:#AD5C37;" d="M852.1,138.55c0.067-0.066,0.4,0.317,1,1.15
				c0.667,1.033,1.134,2.117,1.4,3.25c0.3,1.133,0.417,2.133,0.35,3c-0.066,0.566-0.166,0.917-0.3,1.05
				c-0.267-0.133-0.6-0.383-1-0.75c-0.767-0.767-1.283-1.7-1.55-2.8c-0.267-1.1-0.316-2.25-0.15-3.45
				C852.05,139.033,852.134,138.55,852.1,138.55z"/>
		</g>
	</g>
	<g>
		<g>
			<path style="fill-rule:evenodd;clip-rule:evenodd;fill:#AD5C37;" d="M868.3,137.2l0.601,0.65c0.433,0.533,0.75,1.133,0.949,1.8
				c0.301,1.1,0.267,1.9-0.1,2.4c-0.634-0.4-1.083-1.083-1.35-2.05c-0.167-0.6-0.233-1.25-0.2-1.95L868.3,137.2z"/>
		</g>
	</g>
	<g>
		<g>
			<path style="fill-rule:evenodd;clip-rule:evenodd;fill:#AD5C37;" d="M813.6,171.9l0.5,2.3c0.2,1.867,0.051,3.667-0.449,5.4
				c-0.4,1.767-1.067,3.183-2,4.25l-1.301,1.1c-0.233-0.434-0.433-1.034-0.6-1.8c-0.3-1.533-0.25-3.117,0.15-4.75
				c0.466-1.633,1.233-3.2,2.3-4.7C812.7,172.933,813.167,172.333,813.6,171.9z"/>
		</g>
	</g>
	<g>
		<g>
			<path style="fill-rule:evenodd;clip-rule:evenodd;fill:#AD5C37;" d="M824.5,169.8c0-0.167,0.2,0.067,0.6,0.7
				c0.4,0.633,0.634,1.35,0.7,2.15c0.033,1.233-0.2,2.05-0.7,2.45c-0.533-0.567-0.816-1.367-0.85-2.4c-0.066-0.633-0.05-1.3,0.05-2
				L824.5,169.8z"/>
		</g>
	</g>
	<g>
		<g>
			<path style="fill-rule:evenodd;clip-rule:evenodd;fill:#AD5C37;" d="M837,168.9l0.65,0.85c0.433,0.8,0.683,1.667,0.75,2.6
				c-0.167,1.5-0.584,2.417-1.25,2.75c-0.534-0.8-0.733-1.75-0.601-2.85c-0.066-0.733-0.017-1.517,0.15-2.35L837,168.9z"/>
		</g>
	</g>
	<g>
		<g>
			<path style="fill-rule:evenodd;clip-rule:evenodd;fill:#AD5C37;" d="M850.7,168.5c0.033,0.033,0.5,0.467,1.399,1.3
				c1.067,1.067,2,2.15,2.801,3.25c1.267,1.733,2.05,3.167,2.35,4.3c-0.4,0.133-0.95,0.117-1.65-0.05
				c-1.366-0.333-2.517-1.167-3.449-2.5c-0.9-1.267-1.417-2.716-1.551-4.35L850.7,168.5z"/>
		</g>
	</g>
	<g>
		<g>
			<path style="fill-rule:evenodd;clip-rule:evenodd;fill:#AD5C37;" d="M869.65,169c-0.034,0.033,0.366,0.083,1.199,0.15
				c1,0.233,1.834,0.8,2.5,1.7c0.634,0.933,0.884,1.783,0.75,2.55c-0.066,0.4-0.183,0.684-0.35,0.85c-0.066,0-0.3-0.217-0.7-0.65
				c-0.5-0.533-0.95-1.1-1.35-1.7C870.333,170.133,869.65,169.167,869.65,169z"/>
		</g>
	</g>
	<g>
		<g>
			<path style="fill-rule:evenodd;clip-rule:evenodd;fill:#AD5C37;" d="M890.7,171.15l0.649,0.15c0.5,0.2,0.95,0.45,1.351,0.75
				c0.633,0.333,1.017,0.767,1.149,1.3c-0.5,0.133-1.133,0-1.899-0.4c-0.4-0.3-0.733-0.7-1-1.2L890.7,171.15z"/>
		</g>
	</g>
	<g>
		<g>
			<path style="fill-rule:evenodd;clip-rule:evenodd;fill:#AD5C37;" d="M774.85,198.7c0.367,1.767,0.117,3.617-0.75,5.55
				c-0.533,1.267-1.199,2.233-2,2.9l-1.05,0.6c-0.1-0.333-0.166-0.8-0.2-1.4c0-1.133,0.233-2.25,0.7-3.35
				c0.5-1.1,1.2-2.15,2.101-3.15C774.45,198.95,774.85,198.567,774.85,198.7z"/>
		</g>
	</g>
	<g>
		<g>
			<path style="fill-rule:evenodd;clip-rule:evenodd;fill:#AD5C37;" d="M784.8,200.1c0.167,0.667-0.017,1.417-0.55,2.25
				c-0.366,0.433-0.75,0.717-1.15,0.85l-0.449,0.05c0-0.133,0.033-0.3,0.1-0.5c0.134-0.433,0.35-0.817,0.65-1.15
				c0.233-0.367,0.533-0.717,0.899-1.05C784.6,200.25,784.767,200.1,784.8,200.1z"/>
		</g>
	</g>
	<g>
		<g>
			<path style="fill-rule:evenodd;clip-rule:evenodd;fill:#AD5C37;" d="M792.85,198.95l1.101,0.05c0.934,0.167,1.75,0.6,2.45,1.3
				c0.666,0.733,1.033,1.45,1.1,2.15c0.033,0.367,0,0.633-0.1,0.8c-0.101,0-0.367-0.133-0.801-0.4c-0.566-0.367-1.1-0.817-1.6-1.35
				c-0.5-0.5-1-1.067-1.5-1.7C793.066,199.267,792.85,198.983,792.85,198.95z"/>
		</g>
	</g>
	<g>
		<g>
			<path style="fill-rule:evenodd;clip-rule:evenodd;fill:#AD5C37;" d="M747.15,305.5l0.399,1.3c0.233,1.067,0.217,2.133-0.05,3.2
				c-0.4,1.667-1.033,2.717-1.9,3.15c-0.566-1-0.649-2.267-0.25-3.8c0.2-0.9,0.567-1.817,1.101-2.75
				C746.717,306.167,746.95,305.8,747.15,305.5z"/>
		</g>
	</g>
	<g>
		<g>
			<path style="fill-rule:evenodd;clip-rule:evenodd;fill:#AD5C37;" d="M754.85,301.95l0.4,0.75c0.3,0.6,0.533,1.167,0.7,1.7
				c0.333,1.167,0.45,1.85,0.35,2.05c-0.166-0.034-0.383-0.117-0.649-0.25c-0.534-0.333-0.9-0.833-1.101-1.5
				c-0.166-0.634-0.166-1.284,0-1.95L754.85,301.95z"/>
		</g>
	</g>
	<g>
		<g>
			<path style="fill-rule:evenodd;clip-rule:evenodd;fill:#AD5C37;" d="M769.65,303.05c-0.334-0.533-0.617-1.133-0.851-1.8
				c-0.2-0.633-0.366-1.367-0.5-2.2c-0.066-0.667-0.1-1.017-0.1-1.05c0,0.033,0.3,0.25,0.899,0.65c0.667,0.567,1.15,1.283,1.45,2.15
				c0.267,0.9,0.267,1.667,0,2.3c-0.133,0.333-0.267,0.55-0.399,0.65C770.083,303.75,769.917,303.517,769.65,303.05z"/>
		</g>
	</g>
	<g>
		<g>
			<path style="fill-rule:evenodd;clip-rule:evenodd;fill:#AD5C37;" d="M806.45,282.65c0,0.033,0.184,0.783,0.55,2.25
				c0.267,1.8,0.233,3.567-0.1,5.3c-0.334,1.767-0.9,3.216-1.7,4.35c-0.7,0.767-1.066,1.15-1.101,1.15
				c-0.267-0.367-0.517-0.934-0.75-1.7c-0.466-1.467-0.55-3.033-0.25-4.7c0.334-1.667,1-3.267,2-4.8
				C805.6,283.7,806.05,283.083,806.45,282.65z"/>
		</g>
	</g>
	<g>
		<g>
			<path style="fill-rule:evenodd;clip-rule:evenodd;fill:#AD5C37;" d="M815.15,290.35l0.3,0.75c0.2,0.6,0.233,1.233,0.1,1.9
				c-0.267,1.033-0.666,1.65-1.2,1.85c-0.267-0.633-0.3-1.367-0.1-2.2c0.1-0.533,0.283-1.066,0.55-1.6L815.15,290.35z"/>
		</g>
	</g>
	<g>
		<g>
			<path style="fill-rule:evenodd;clip-rule:evenodd;fill:#AD5C37;" d="M824.8,282c0,0.033,0.601,0.417,1.8,1.15
				c1.367,1.033,2.45,2.283,3.25,3.75c0.801,1.533,1.217,2.934,1.25,4.2c0.034,0.667-0.033,1.167-0.199,1.5
				c-0.434-0.167-0.934-0.467-1.5-0.9c-1.134-0.833-2.051-1.9-2.75-3.2c-0.7-1.333-1.217-2.817-1.551-4.45L824.8,282z"/>
		</g>
	</g>
	<g>
		<g>
			<path style="fill-rule:evenodd;clip-rule:evenodd;fill:#AD5C37;" d="M847.25,285.45l0.55,0.95c0.4,0.767,0.617,1.583,0.65,2.45
				c0.166,1.3-0.033,2.25-0.601,2.85c-0.666-0.6-1.083-1.534-1.25-2.8c-0.033-0.8,0.067-1.617,0.301-2.45L847.25,285.45z"/>
		</g>
	</g>
	<g>
		<g>
			<path style="fill-rule:evenodd;clip-rule:evenodd;fill:#AD5C37;" d="M862.85,282.45c0.134,0,0.667,0.233,1.601,0.7
				c1.2,0.567,2.283,1.233,3.25,2c1.033,0.767,1.833,1.55,2.399,2.35c0.434,0.6,0.617,0.95,0.551,1.05
				c-0.334,0.133-0.801,0.184-1.4,0.15c-1.233-0.067-2.384-0.517-3.45-1.35c-1.066-0.867-1.883-1.95-2.45-3.25L862.85,282.45z"/>
		</g>
	</g>
	<g>
		<g>
			<path style="fill-rule:evenodd;clip-rule:evenodd;fill:#AD5C37;" d="M839.3,283.6c-0.1,0.7-0.383,1.367-0.85,2
				c-0.367,0.667-0.8,1.066-1.3,1.2c-0.034-0.133-0.051-0.316-0.051-0.55c0.034-0.434,0.184-0.883,0.45-1.35
				C838.05,284.267,838.634,283.833,839.3,283.6z"/>
		</g>
	</g>
	<g>
		<g>
			<path style="fill-rule:evenodd;clip-rule:evenodd;fill:#AD5C37;" d="M794.05,343.4c0-0.034,0.434,0.566,1.3,1.8
				c0.801,1.6,1.117,3.35,0.95,5.25c-0.166,1.833-0.7,3.3-1.6,4.399l-1.25,1c-0.167-0.433-0.334-0.983-0.5-1.649
				c-0.3-1.367-0.4-2.783-0.3-4.25c0.133-1.434,0.416-2.95,0.85-4.55C793.9,344.1,794.083,343.434,794.05,343.4z"/>
		</g>
	</g>
	<g>
		<g>
			<path style="fill-rule:evenodd;clip-rule:evenodd;fill:#AD5C37;" d="M804.95,344.2l0.3,0.8c0.233,0.667,0.283,1.366,0.15,2.1
				c-0.267,1.101-0.667,1.784-1.2,2.051c-0.367-0.667-0.434-1.467-0.2-2.4c0.1-0.566,0.283-1.15,0.55-1.75
				C804.816,344.5,804.95,344.233,804.95,344.2z"/>
		</g>
	</g>
	<g>
		<g>
			<path style="fill-rule:evenodd;clip-rule:evenodd;fill:#AD5C37;" d="M818.25,339.4l1.25,1c0.967,0.933,1.667,2.05,2.1,3.35
				c0.301,1.366,0.317,2.517,0.051,3.45c-0.134,0.5-0.301,0.85-0.5,1.05c-1.134-0.866-1.884-2.15-2.25-3.85
				c-0.334-1.034-0.534-2.167-0.601-3.4C818.267,339.967,818.25,339.434,818.25,339.4z"/>
		</g>
	</g>
	<g>
		<g>
			<path style="fill-rule:evenodd;clip-rule:evenodd;fill:#AD5C37;" d="M834.9,344.2l0.35,0.6c0.267,0.533,0.417,1.066,0.45,1.601
				c0.166,0.8,0.083,1.416-0.25,1.85c-0.467-0.333-0.783-0.934-0.95-1.8c-0.033-0.533,0.017-1.066,0.15-1.601L834.9,344.2z"/>
		</g>
	</g>
	<g>
		<g>
			<path style="fill-rule:evenodd;clip-rule:evenodd;fill:#AD5C37;" d="M845.45,339.8c0.133,0,0.517,0.45,1.149,1.351
				c0.834,1.166,1.4,2.399,1.7,3.699c0.467,1.267,0.617,2.434,0.45,3.5c-0.066,0.534-0.184,0.95-0.35,1.25
				c-0.334-0.166-0.7-0.466-1.101-0.899c-0.833-0.834-1.467-1.884-1.899-3.15c-0.301-1.267-0.367-2.616-0.2-4.05
				C845.4,340.366,845.483,339.8,845.45,339.8z"/>
		</g>
	</g>
	<g>
		<g>
			<path style="fill-rule:evenodd;clip-rule:evenodd;fill:#AD5C37;" d="M860.8,340.25l0.7,0.55c0.5,0.5,0.866,1.033,1.1,1.601
				c0.567,0.933,0.75,1.683,0.551,2.25c-0.7-0.2-1.317-0.733-1.851-1.601c-0.267-0.6-0.434-1.25-0.5-1.95V340.25z"/>
		</g>
	</g>
	<g>
		<path style="fill-rule:evenodd;clip-rule:evenodd;fill:#564933;" d="M573.45,392.25l1.7-6.5c3.033-0.7,4.517,6.934,4.449,22.9
			c-0.033,8-0.383,16.066-1.05,24.199l-8.75,3.051l0.601-0.351c-0.2-2.833-0.334-6.133-0.4-9.899
			c-0.167-7.567,0.066-13.717,0.7-18.45C571.3,402.5,572.217,397.517,573.45,392.25z"/>
		<path style="fill-rule:evenodd;clip-rule:evenodd;fill:#41392A;" d="M575.15,385.75l-1.7,6.5c-1.233,5.267-2.15,10.25-2.75,14.95
			c-0.634,4.733-0.867,10.883-0.7,18.45c0.066,3.767,0.2,7.066,0.4,9.899L569.8,435.9l-4.149,1.449
			c0.133-8.267,0.616-16.616,1.449-25.05C568.833,395.434,571.517,386.583,575.15,385.75z"/>
	</g>
	<g>
		<path style="fill-rule:evenodd;clip-rule:evenodd;fill:#564933;" d="M594.25,386.35L596,379.2l-0.3-0.15
			c0.366-0.1,0.816-0.116,1.35-0.05c3,0.634,4.033,10.884,3.101,30.75c-0.5,9.967-1.284,19.85-2.351,29.65l-7.1-3.25h0.25
			c0-15.9,0.3-27.434,0.899-34.601C592.217,397.083,593.017,392.017,594.25,386.35z"/>
		<path style="fill-rule:evenodd;clip-rule:evenodd;fill:#41392A;" d="M595.7,379.05l0.3,0.15l-1.75,7.149
			c-1.233,5.667-2.033,10.733-2.4,15.2c-0.6,7.167-0.899,18.7-0.899,34.601h-0.25l-4.5-2.101c0-8.7,0.399-17.533,1.2-26.5
			C588.967,389.684,591.733,380.184,595.7,379.05z"/>
	</g>
	<path style="fill-rule:evenodd;clip-rule:evenodd;fill:#83704C;" d="M570.2,446.4l2.7-0.65l-1.15,10.45
		c-0.833,7.366-1.467,12.033-1.9,14c-0.366,1.733-0.316,3.733,0.15,6c0.566,2.934,0.85,5.184,0.85,6.75c0,2.267-0.6,3.767-1.8,4.5
		c-2.233,1.333-3.416,2.066-3.55,2.2c-0.967,1.1-2.55,3.05-4.75,5.85l-2.95,3.85c1-1.5,2.101-3.517,3.3-6.05
		c2.434-5.1,4.134-10.233,5.101-15.399c0.967-5.167,1.916-11.967,2.85-20.4L570.2,446.4z"/>
	<polygon style="fill-rule:evenodd;clip-rule:evenodd;fill:#83704C;" points="578.9,440.05 564.15,441.05 580.25,434.35 	"/>
	<polygon style="fill-rule:evenodd;clip-rule:evenodd;fill:#83704C;" points="586.3,436.35 597,442.75 585.25,440.4 	"/>
	<path style="fill-rule:evenodd;clip-rule:evenodd;fill:#83704C;" d="M585.6,446.4l4.051,10.75l-0.95,11.8
		c-0.566,8.833-0.7,15.616-0.4,20.35c0.267,4.767,1.566,10.334,3.9,16.7c1.2,3.167,2.35,5.866,3.45,8.1
		c-1.167-2.066-2.45-4.466-3.851-7.199c-2.8-5.467-4.75-9.884-5.85-13.25c-1.167-3.467-1.816-8.167-1.95-14.101
		c-0.1-2.934-0.017-7.383,0.25-13.35L585.6,446.4z"/>
	<polygon style="fill-rule:evenodd;clip-rule:evenodd;fill:#65583D;" points="702.35,346.9 771.6,329.05 705,349.15 	"/>
	<polygon style="fill-rule:evenodd;clip-rule:evenodd;fill:#65583D;" points="772.9,329.95 776.05,327.7 786.3,339.75 	"/>
	<polygon style="fill-rule:evenodd;clip-rule:evenodd;fill:#65583D;" points="693.75,226.95 697.35,225.6 668.3,278.3 	"/>
</g>
</svg>
