<?xml version="1.0" encoding="iso-8859-1"?>
<!-- Generator: Adobe Illustrator 15.1.0, SVG Export Plug-In . SVG Version: 6.00 Build 0)  -->
<!DOCTYPE svg PUBLIC "-//W3C//DTD SVG 1.1//EN" "http://www.w3.org/Graphics/SVG/1.1/DTD/svg11.dtd">
<svg version="1.1" id="tree_x5F_background_x5F_01.ai"
	 xmlns="http://www.w3.org/2000/svg" xmlns:xlink="http://www.w3.org/1999/xlink" x="0px" y="0px" width="52.55px"
	 height="126.75px" viewBox="0 0 52.55 126.75" style="enable-background:new 0 0 52.55 126.75;" xml:space="preserve">
<g>
	<path style="fill-rule:evenodd;clip-rule:evenodd;fill:#D8B69C;" d="M44.7,3.55c1.333,0.8,2.083,2.55,2.25,5.25
		c0.1,1.367,0.05,2.65-0.15,3.85l2.4,1.9c1.7,1.633,2.767,3.4,3.2,5.3c0.466,1.867-0.067,3.45-1.601,4.75L48.4,25.95l1.1,1.85
		c0.6,1.567,0.5,3.184-0.3,4.85c-0.767,1.667-2.15,2.567-4.15,2.7l-2.75-0.3c-0.366,0.567-0.899,1.217-1.6,1.95
		c-1.434,1.4-3.033,2.433-4.8,3.1c-1.801,0.667-3.267,0.6-4.4-0.2l-1.2-1.4c-0.399,0.933-0.983,1.833-1.75,2.7
		c-1.5,1.733-3.15,2.433-4.95,2.1c-1.767-0.333-2.783-1-3.05-2l0.15-1.45c-0.4,0.5-1.034,0.95-1.9,1.35
		c-1.733,0.833-3.767,1.083-6.1,0.75c-2.333-0.333-3.434-1.667-3.3-4l0.9-3.45c-0.566,0.367-1.367,0.6-2.4,0.7
		c-2,0.167-4.05-0.417-6.15-1.75c-2.1-1.333-2.283-2.934-0.55-4.8l3.2-2.4c-0.566-0.167-1.167-0.567-1.8-1.2
		c-1.3-1.267-2.117-3-2.45-5.2c-0.333-2.233,0.467-3.833,2.4-4.8c0.934-0.5,1.917-0.767,2.95-0.8c-0.233-0.667-0.283-1.5-0.15-2.5
		c0.267-2,1.283-3.833,3.05-5.5c1.8-1.667,3.767-2.217,5.9-1.65c1.067,0.3,1.95,0.75,2.65,1.35c0.466-1.133,1.117-2.217,1.95-3.25
		c1.633-2.1,3.383-2.967,5.25-2.6c1.1,0.233,1.917,0.883,2.45,1.95c0.301,0.534,0.467,1.034,0.5,1.5l1.351-1.3
		c1.133-0.9,2.366-1.35,3.7-1.35c1.333,0,2.366,0.767,3.1,2.3c0.333,0.733,0.55,1.483,0.65,2.25L39.1,3.8
		C41.5,2.867,43.366,2.783,44.7,3.55z"/>
	<path style="fill-rule:evenodd;clip-rule:evenodd;fill:#A79777;" d="M36.5,39.5c-2.4,13.967-3.5,24.383-3.3,31.25
		c0.2,5.533,0.366,15.45,0.5,29.75c0.533,11.967,2.149,18.95,4.85,20.95l6.4,4.8c-1.7-0.533-3.5-1.017-5.4-1.45
		c-3.833-0.899-6.3-1.133-7.399-0.7l-5.851,2.65c0.101-0.667-0.166-1.267-0.8-1.8c-1.2-1.066-3.517-1.267-6.95-0.601
		c1.733-1.633,3.483-3.916,5.25-6.85c3.566-5.866,5.467-12.017,5.7-18.45c0.434-12.8-2.017-29.166-7.35-49.1
		c-2.667-9.967-5.383-18.667-8.15-26.1l13.35,32l12.801-35.2C38.917,26.25,37.7,32.533,36.5,39.5z"/>
</g>
</svg>
