<?xml version="1.0" encoding="iso-8859-1"?>
<!-- Generator: Adobe Illustrator 15.1.0, SVG Export Plug-In . SVG Version: 6.00 Build 0)  -->
<!DOCTYPE svg PUBLIC "-//W3C//DTD SVG 1.1//EN" "http://www.w3.org/Graphics/SVG/1.1/DTD/svg11.dtd">
<svg version="1.1" id="tree_x5F_front_x5F_03.ai" xmlns="http://www.w3.org/2000/svg" xmlns:xlink="http://www.w3.org/1999/xlink"
	 x="0px" y="0px" width="134.45px" height="160.25px" viewBox="0 0 134.45 160.25"
	 style="enable-background:new 0 0 134.45 160.25;" xml:space="preserve">
<g>
	<path style="fill-rule:evenodd;clip-rule:evenodd;fill:#6B6B4B;" d="M122.55,19.1c3.134-0.633,5.834,0.083,8.101,2.15
		c2,1.833,3.216,4.25,3.649,7.25s-0.1,5.5-1.6,7.5c-1.733,2.3-4.351,3.333-7.851,3.1c-4.5-0.267-7.449-2.017-8.85-5.25
		c-19.533,0.2-36.583-0.533-51.15-2.2c2.867,15.434,4.784,27.583,5.75,36.45c1.233-3.1,2.65-5.55,4.25-7.35
		c1.2-1.233,2.367-2.167,3.5-2.8c-0.233-1.233,0.084-2.417,0.95-3.55c0.9-1.2,1.983-1.633,3.25-1.3c2,0.533,3,1.833,3,3.9
		s-1.333,3.1-4,3.1c-1.399,0-2.35-0.45-2.85-1.35c-1.8,1.333-3.184,2.783-4.15,4.35c-1.566,2.5-2.833,7.217-3.8,14.15
		C70.517,81.917,69.934,88.333,69,96.5c-0.3,2.8-1.167,9.983-2.6,21.55c0.8-1.633,1.617-3.066,2.45-4.3
		c1.667-2.267,3.634-3.917,5.9-4.95c-0.3-0.899-0.267-1.7,0.1-2.399c0.4-0.767,1.067-1.084,2-0.95
		c1.367,0.166,2.084,1.184,2.15,3.05c0.033,1.866-0.684,2.634-2.15,2.3c-0.833-0.2-1.449-0.7-1.85-1.5
		c-4.467,3.834-7.517,8.55-9.15,14.15l-0.2,0.649c-1.233,10.667-1.717,17.051-1.45,19.15c0.433,3.533,3.066,7.267,7.899,11.2
		c2.4,1.967,4.767,3.566,7.101,4.8c-1.733-0.667-3.667-1.333-5.8-2c-4.267-1.333-7.333-2-9.2-2s-3.434,0.833-4.7,2.5
		c-0.6,0.833-1.033,1.667-1.3,2.5c0.1-0.4,0.066-0.85-0.1-1.35c-0.333-1-1.133-1.717-2.4-2.15c-1.233-0.4-4.184-0.267-8.85,0.4
		l-6.65,1.1l4.95-1.55c3.567-1.267,6.083-2.417,7.55-3.45c1.333-0.934,3.483-8.15,6.45-21.65c3.033-13.699,5.367-26.933,7-39.699
		c-0.433-4.9-0.967-8.5-1.6-10.801c-0.7-2.333-2.333-4.3-4.9-5.899c-0.467,0.7-1.167,1.117-2.1,1.25c-2.133,0.333-3.133-0.567-3-2.7
		c0.167-2.133,1.267-3.35,3.3-3.65c0.867-0.133,1.55,0.4,2.05,1.6c0.5,1.167,0.483,2.25-0.05,3.25c1.367,0.7,2.867,1.917,4.5,3.65
		c1.267,1.367,2.15,3.417,2.65,6.15c0.667-6.6,0.9-11.767,0.7-15.5c-0.367-7.867-2.133-16.1-5.3-24.7
		c-1.933-5.167-4.117-9.883-6.55-14.15c-4.233-0.7-7.883-1.467-10.95-2.3c-1.433,0.167-3.55,0.5-6.35,1
		c-3.333,0.667-6.4,2.633-9.2,5.9c1.233,1.033,1.533,2.55,0.9,4.55c-0.633,2.067-1.983,3.034-4.05,2.9
		c-2.7-0.167-3.867-1.483-3.5-3.95c0.333-2.467,1.95-3.817,4.85-4.05c0.3-0.034,0.684,0.017,1.15,0.15c1-1.767,2.117-3.2,3.35-4.3
		c1.967-1.867,4.917-3.017,8.85-3.45c-10.467-3.5-19.767-7.367-27.9-11.6c-1.4,1.8-3,2.867-4.8,3.2c-2.133,0.4-3.95-0.184-5.45-1.75
		c-1.4-1.4-2.25-3.284-2.55-5.65C-0.133,8.683,0.183,6.533,1.15,4.6C2.217,2.467,3.9,1.083,6.2,0.45
		c3.767-1.034,6.466-0.333,8.1,2.1c1.4,2.133,1.667,4.85,0.8,8.15c4.9,3.833,10.5,7.1,16.8,9.8c8.833,3.8,18.434,6.217,28.8,7.25
		c6.5,0.7,15.833,0.5,28-0.6c2.633-0.633,5.25-1.583,7.85-2.85c3.334-1.7,7.316-4.483,11.95-8.35c-1.033-0.534-1.35-1.467-0.95-2.8
		c0.4-1.367,1.283-2.05,2.65-2.05c2,0,3,0.75,3,2.25s-1,2.417-3,2.75c-0.5,0.1-0.983,0.083-1.45-0.05
		c-4.533,4.867-9.1,8.367-13.7,10.5c6.9-0.767,14.25-1.716,22.05-2.85C118.6,21.067,120.417,19.533,122.55,19.1z"/>
	<g>
		<path style="fill-rule:evenodd;clip-rule:evenodd;fill:#50503A;" d="M128.35,34.75c2.534-0.033,4.5-0.783,5.9-2.25
			c-0.434,2.1-1.4,3.733-2.9,4.9c-1.666,1.333-3.833,1.9-6.5,1.7c-4.5-0.267-7.449-2.017-8.85-5.25
			c-19.533,0.2-36.583-0.533-51.15-2.2l-1.5-1.2c4.8,0.466,20.7,0.233,47.7-0.7c2.367-0.067,4.117-0.667,5.25-1.8
			c0.601-0.567,0.95-1.133,1.05-1.7l3.25,4.35C123.267,33.467,125.85,34.85,128.35,34.75z"/>
		<path style="fill-rule:evenodd;clip-rule:evenodd;fill:#50503A;" d="M62.4,44.55c-1.933-5.167-4.117-9.883-6.55-14.15
			c-4.233-0.7-7.883-1.467-10.95-2.3c-1.433,0.167-3.55,0.5-6.35,1c-3.333,0.667-6.4,2.633-9.2,5.9c0.3-0.6,0.75-1.267,1.35-2
			c1.2-1.5,2.533-2.633,4-3.4c2.333-1.233,5.117-1.9,8.35-2l-2.15-0.75c-10.467-3.5-19.767-7.367-27.9-11.6
			c-1.4,1.8-3,2.867-4.8,3.2c-3.767,0.7-6.3-1.167-7.6-5.6C-0.7,8.45,0.067,4.933,2.9,2.3c-1.367,3.3-1.05,6.133,0.95,8.5
			c1.667,1.934,3.617,3.017,5.85,3.25c1.133,0.1,2.083,0.017,2.85-0.25c12.434,5.867,21.1,9.633,26,11.3
			c3.934,1.333,7.317,2.35,10.15,3.05c3.3,0.8,6.85,1.4,10.65,1.8l2.8,8.25c2,5.833,3.233,9.583,3.7,11.25
			c0.633,2.133,1.317,5.617,2.05,10.45c0.767,5.067,1.149,8.917,1.149,11.55c0,3.667-0.399,9.267-1.2,16.8l-1-3.5l-0.1-1.15
			L67,84.75c0.667-6.6,0.9-11.767,0.7-15.5C67.333,61.383,65.567,53.15,62.4,44.55z"/>
		<path style="fill-rule:evenodd;clip-rule:evenodd;fill:#50503A;" d="M25.7,38.75c1.1,1.7,2.483,2.283,4.15,1.75
			c-0.8,1.4-2.017,2.05-3.65,1.95c-2.4-0.133-3.583-1.284-3.55-3.45c0.033-2.133,1.184-3.55,3.45-4.25c-0.3,0.467-0.533,1-0.7,1.6
			C25.167,37.283,25.267,38.083,25.7,38.75z"/>
		<path style="fill-rule:evenodd;clip-rule:evenodd;fill:#50503A;" d="M108.5,15.95c-1.033-0.534-1.35-1.467-0.95-2.8
			c0.4-1.367,1.283-2.05,2.65-2.05l-0.601,0.8c-0.333,0.667-0.35,1.35-0.05,2.05c0.267,0.7,0.851,1.066,1.75,1.1
			c0.434,0.034,0.851,0,1.25-0.1c-0.566,0.633-1.35,1.017-2.35,1.15c-0.5,0.1-0.983,0.083-1.45-0.05
			c-2.934,2.6-5.45,4.617-7.55,6.05c-1.3,0.9-3.434,2.033-6.4,3.4l-4,1.75c-0.533,0.033-0.95,0.067-1.25,0.1
			c-0.5,0-0.733-0.083-0.7-0.25c2.601-0.6,5.167-1.533,7.7-2.8C99.884,22.6,103.866,19.817,108.5,15.95z"/>
		<path style="fill-rule:evenodd;clip-rule:evenodd;fill:#50503A;" d="M54.55,73.75c0.167-2.133,1.267-3.35,3.3-3.65l-1,1.35
			c-0.6,1.033-0.7,1.867-0.3,2.5c0.434,0.633,0.95,0.9,1.55,0.8c0.3-0.033,0.55-0.133,0.75-0.3l1.1,0.55
			c2.5,1.467,4.25,3.667,5.25,6.6c0.867,2.534,1.433,4.733,1.7,6.601c0.2,1.399,0.25,2.916,0.15,4.55
			c-0.1,1.267-0.85,7.25-2.25,17.95c-1.3,9.7-2.216,16.333-2.75,19.899c-0.4,2.7-0.65,7.051-0.75,13.051
			c-0.066,5.933,0.067,9.25,0.4,9.949c0.233,0.434,0.617,0.801,1.15,1.101c0.188,0.094,0.614,0.277,1.275,0.55
			c-1.833,0.021-3.375,0.854-4.625,2.5c-0.6,0.833-1.033,1.667-1.3,2.5c0.1-0.4,0.066-0.85-0.1-1.35c-0.333-1-1.133-1.717-2.4-2.15
			c-1.233-0.4-4.184-0.267-8.85,0.4l-6.65,1.1l4.95-1.55c3.567-1.267,6.083-2.417,7.55-3.45c1.333-0.934,3.483-8.15,6.45-21.65
			c3.033-13.699,5.367-26.933,7-39.699c-0.433-4.9-0.967-8.5-1.6-10.801c-0.7-2.333-2.333-4.3-4.9-5.899
			c-0.467,0.7-1.167,1.117-2.1,1.25C55.417,76.783,54.417,75.883,54.55,73.75z"/>
		<path style="fill-rule:evenodd;clip-rule:evenodd;fill:#50503A;" d="M85.3,58.15c-0.533,1.3-1.783,1.95-3.75,1.95
			c-1.399,0-2.35-0.45-2.85-1.35c-1.9,1-3.351,2.233-4.351,3.7c-1,1.433-2.333,4.983-4,10.65l0.25-5c1.233-3.1,2.65-5.55,4.25-7.35
			c1.2-1.233,2.367-2.167,3.5-2.8c-0.166-0.9-0.017-1.833,0.45-2.8c0.5-0.967,1.167-1.617,2-1.95l0.05,0.05l-0.399,1.2
			c-0.167,0.966,0.033,1.8,0.6,2.5C82.05,58.25,83.467,58.65,85.3,58.15z"/>
		<path style="fill-rule:evenodd;clip-rule:evenodd;fill:#50503A;" d="M74.75,108.8c-0.3-0.899-0.267-1.7,0.1-2.399
			c0.4-0.767,1.067-1.084,2-0.95l-0.5,0.7c-0.3,0.6-0.35,1.133-0.149,1.6c0.267,0.7,0.517,1.15,0.75,1.35
			c0.434,0.367,1.083,0.467,1.95,0.301c-0.301,1.166-0.983,1.633-2.051,1.399c-0.833-0.2-1.449-0.7-1.85-1.5l-1.5,0.95
			c-1.134,0.8-2.017,1.583-2.65,2.35c-1,1.233-2.6,3.684-4.8,7.351l0.35-1.9c0.8-1.633,1.617-3.066,2.45-4.3
			C70.517,111.483,72.483,109.833,74.75,108.8z"/>
	</g>
	<path style="fill-rule:evenodd;clip-rule:evenodd;fill:#B9B584;" d="M127.05,22c0.867-0.367,1.8,0.433,2.8,2.4
		s1.034,3.133,0.101,3.5s-1.851-0.433-2.75-2.4C126.3,23.533,126.25,22.367,127.05,22z"/>
	<path style="fill-rule:evenodd;clip-rule:evenodd;fill:#B9B584;" d="M10.3,1.75c1.567-0.333,2.483,0.417,2.75,2.25
		c0.3,1.867-0.033,2.917-1,3.15c-0.8,0.167-1.5-0.633-2.1-2.4C9.35,2.95,9.467,1.95,10.3,1.75z"/>
	<path style="fill-rule:evenodd;clip-rule:evenodd;fill:#B9B584;" d="M27.55,35.75c0.5-0.267,0.833-0.017,1,0.75
		c0.167,0.833,0.083,1.133-0.25,0.9C27.333,36.633,27.083,36.083,27.55,35.75z"/>
	<path style="fill-rule:evenodd;clip-rule:evenodd;fill:#B9B584;" d="M82.95,54.5c0.366-0.233,0.717,0,1.05,0.7
		c0.366,0.733,0.35,1.133-0.05,1.2c-0.367,0.067-0.7-0.183-1-0.75C82.684,55.083,82.684,54.7,82.95,54.5z"/>
	<path style="fill-rule:evenodd;clip-rule:evenodd;fill:#B9B584;" d="M111.3,11.9c0.533-0.1,0.867,0.167,1,0.8
		c0.134,0.633,0.05,0.95-0.25,0.95c-0.267,0-0.533-0.267-0.8-0.8C110.95,12.283,110.967,11.967,111.3,11.9z"/>
	<path style="fill-rule:evenodd;clip-rule:evenodd;fill:#B9B584;" d="M58.7,71.5c0.466-0.1,0.7,0.117,0.7,0.65
		c0,0.567-0.15,0.85-0.45,0.85c-0.233,0-0.383-0.233-0.45-0.7C58.433,71.833,58.5,71.567,58.7,71.5z"/>
	<path style="fill-rule:evenodd;clip-rule:evenodd;fill:#B9B584;" d="M77.55,106.4c0.3-0.301,0.517-0.15,0.65,0.449
		c0.133,0.634,0.083,1.017-0.15,1.15c-0.2,0.134-0.383-0.033-0.55-0.5C77.3,107,77.316,106.634,77.55,106.4z"/>
</g>
</svg>
