<?xml version="1.0" encoding="iso-8859-1"?>
<!-- Generator: Adobe Illustrator 15.1.0, SVG Export Plug-In . SVG Version: 6.00 Build 0)  -->
<!DOCTYPE svg PUBLIC "-//W3C//DTD SVG 1.1//EN" "http://www.w3.org/Graphics/SVG/1.1/DTD/svg11.dtd">
<svg version="1.1" id="tree_x5F_mid_x5F_03.ai" xmlns="http://www.w3.org/2000/svg" xmlns:xlink="http://www.w3.org/1999/xlink"
	 x="0px" y="0px" width="165.55px" height="353.7px" viewBox="0 0 165.55 353.7" style="enable-background:new 0 0 165.55 353.7;"
	 xml:space="preserve">
<g>
	<path style="fill-rule:evenodd;clip-rule:evenodd;fill:#CB9878;" d="M132.75,21.4c3.967,1.833,6.15,6.967,6.55,15.4
		c0.167,4.233-0.05,8.267-0.649,12.1h2.05c1.733,0.133,3.434,0.45,5.1,0.95c5.334,1.667,9.4,5.066,12.2,10.2
		c2.833,5.133,3.35,11.917,1.55,20.35c-0.934,4.2-2.133,7.883-3.6,11.05l1.649,2.4c1.334,2.033,2.517,4.183,3.551,6.45
		c3.366,7.267,4.8,14.267,4.3,21c-0.5,6.733-5.283,9.9-14.351,9.5c-2.866-0.133-5.966-0.6-9.3-1.4l-4.2-1.2l0.301,2.65
		c0.133,2.167,0.066,4.25-0.2,6.25c-0.9,6.3-3.783,10.45-8.65,12.45c-4.833,2-9.316,2.833-13.45,2.5l-4.75-1.1
		c-3.866,1.6-8.433,3.1-13.699,4.5c-10.567,2.767-19.351,3.633-26.351,2.6c-7-1.066-11.033-4.833-12.1-11.3
		c-0.333-2-0.35-4.167-0.05-6.5l0.55-2.85c-8.567-3-17.233-5.65-26-7.95c-5.5-1.467-9.4-6.017-11.7-13.65
		c-0.733-2.367-1.267-4.917-1.6-7.65l-0.25-3.35c-2.7,1-5.533,1.284-8.5,0.85c-5.933-0.867-9.55-4.867-10.85-12
		C-1,86.75,1.733,81.533,8.5,78c3.4-1.767,6.917-2.85,10.55-3.25c-2.1-2.467-3.917-5.733-5.45-9.8c-3.1-8.1-3.283-16.05-0.55-23.85
		c2.733-7.8,6.917-12.733,12.55-14.8c2.833-1.033,5.383-1.283,7.65-0.75c0.533-2,1.45-4.267,2.75-6.8
		c2.567-5.133,5.733-9.1,9.5-11.9C51.167,2.617,57.75,1.333,65.25,3c3.767,0.833,6.95,2.083,9.55,3.75l1.1-1.3
		c1-1.034,2.1-1.934,3.3-2.7c3.767-2.5,7.833-3.3,12.2-2.4c6.466,1.333,11,5.417,13.6,12.25c1.3,3.4,1.95,6.667,1.95,9.8l9.35-2.15
		C123.3,19.183,128.783,19.567,132.75,21.4z"/>
	<g>
		<path style="fill-rule:evenodd;clip-rule:evenodd;fill:#C48A6A;" d="M153.1,96.95c1.634-2.034,2.584-3.867,2.851-5.5l1.649,2.4
			c1.334,2.033,2.517,4.183,3.551,6.45c3.366,7.267,4.8,14.267,4.3,21c-0.5,6.733-5.283,9.9-14.351,9.5
			c-2.866-0.133-5.966-0.6-9.3-1.4l-4.2-1.2l0.301,2.65c0.133,2.167,0.066,4.25-0.2,6.25c-0.9,6.3-3.783,10.45-8.65,12.45
			c-4.833,2-9.316,2.833-13.45,2.5l-4.75-1.1c-3.866,1.6-8.433,3.1-13.699,4.5c-10.567,2.767-19.351,3.633-26.351,2.6
			c-7-1.066-11.033-4.833-12.1-11.3c-0.333-2-0.35-4.167-0.05-6.5l0.55-2.85c-8.567-3-17.233-5.65-26-7.95
			c-5.5-1.467-9.4-6.017-11.7-13.65c-0.733-2.367-1.267-4.917-1.6-7.65l-0.25-3.35c-2.7,1-5.533,1.284-8.5,0.85
			c-5.933-0.867-9.55-4.867-10.85-12C-1,86.75,1.733,81.533,8.5,78c3.4-1.767,6.917-2.85,10.55-3.25
			c-2.1-2.467-3.917-5.733-5.45-9.8c-3.1-8.1-3.283-16.05-0.55-23.85c2.733-7.8,6.917-12.733,12.55-14.8
			c2.833-1.033,5.383-1.283,7.65-0.75c0.533-2,1.45-4.267,2.75-6.8c2.567-5.133,5.733-9.1,9.5-11.9
			C51.167,2.617,57.75,1.333,65.25,3c3.767,0.833,6.95,2.083,9.55,3.75c-3.5-0.167-7.183,0.117-11.05,0.85
			c-7.767,1.467-12.633,4.467-14.6,9s-0.733,8.35,3.7,11.45c2.2,1.567,4.6,2.667,7.2,3.3c-2.2,0.066-4.45,0.533-6.75,1.4
			c-4.566,1.733-7.066,4.633-7.5,8.7c-0.4,4.1,2.367,8.8,8.3,14.1c3,2.633,6.017,4.867,9.05,6.7c-2.5,1.6-5.017,4-7.55,7.2
			c-5.1,6.4-7.75,13.566-7.95,21.5c-0.2,7.933,4.833,11.917,15.1,11.95c5.133,0.033,10.283-0.733,15.45-2.3l0.95,2.55
			c0.9,2.033,1.934,3.833,3.1,5.4c3.7,5.034,8.134,6.9,13.3,5.6c5.2-1.3,9.267-4.467,12.2-9.5c1.467-2.5,2.417-4.883,2.85-7.15
			l2.351,1.8c2,1.434,4.066,2.684,6.2,3.75c6.866,3.4,13.183,4.3,18.949,2.7C144.833,103.883,149.833,100.95,153.1,96.95z"/>
		<path style="fill-rule:evenodd;clip-rule:evenodd;fill:#BD7B5C;" d="M48.8,128.75c3.567,1.267,6.967,2.15,10.2,2.65
			c-3.033,0.133-6.483-0.066-10.35-0.6c-7.7-1.033-13.566-3.167-17.6-6.4c-3.367-2.7-4.867-7.75-4.5-15.15
			c0.133-2.333,0.434-4.75,0.9-7.25l0.65-3.05l2.05,6.75c1.733,5.267,3.483,9.8,5.25,13.6C37.167,123.1,41.633,126.25,48.8,128.75z"
			/>
		<path style="fill-rule:evenodd;clip-rule:evenodd;fill:#BD7B5C;" d="M10.95,83.2v3.9c0.133,3.133,0.5,5.983,1.1,8.55
			c0.6,2.6,2.434,4.417,5.5,5.45c1.534,0.533,3,0.8,4.4,0.8c-1.667,0.3-3.483,0.4-5.45,0.3c-3.9-0.2-6.617-1.267-8.15-3.2
			c-1.5-1.933-1.517-5.15-0.05-9.65L10.95,83.2z"/>
		<path style="fill-rule:evenodd;clip-rule:evenodd;fill:#BD7B5C;" d="M19,45.2c-0.367,5.5,0.483,10.316,2.55,14.45
			c2.1,4.1,5.45,7.25,10.05,9.45c2.3,1.133,4.383,1.833,6.25,2.1c-1.434,0.966-3.117,1.75-5.05,2.35
			c-3.867,1.167-7.083,0.85-9.65-0.95c-3.767-2.667-6.316-7.5-7.65-14.5c-1.567-8.1,0-14.75,4.7-19.95L19,45.2z"/>
		<path style="fill-rule:evenodd;clip-rule:evenodd;fill:#BD7B5C;" d="M62.9,137.05l1.05,5c1.233,3.667,3.167,6.35,5.8,8.05
			c2.667,1.7,7.2,2.783,13.6,3.25c3.167,0.233,6.084,0.283,8.75,0.15c-3,0.8-6.35,1.417-10.05,1.85
			c-7.333,0.867-12.65,0.4-15.95-1.4c-3.267-1.8-4.783-5.15-4.55-10.05L62.9,137.05z"/>
		<path style="fill-rule:evenodd;clip-rule:evenodd;fill:#C48A6A;" d="M82.55,68.5l2.4,3.95c2.233,3.1,4.883,5.85,7.95,8.25
			c3.1,2.433,6.883,3.716,11.35,3.85c2.233,0.067,4.15-0.117,5.75-0.55c-1.167,1.133-2.85,2.05-5.05,2.75
			c-4.4,1.4-9.117,1.067-14.15-1c-5.066-2.033-7.967-5.517-8.7-10.45c-0.2-1.566-0.183-3.167,0.051-4.8L82.55,68.5z"/>
		<path style="fill-rule:evenodd;clip-rule:evenodd;fill:#C48A6A;" d="M145.4,88.3c-0.467,2.9-1.367,5.7-2.7,8.4
			c-2.634,5.433-6.101,7.75-10.4,6.95c-4.3-0.8-6.883-4.183-7.75-10.15c-0.267-1.833-0.366-3.833-0.3-6l0.25-2.65l1.15,5.65
			c1.399,3.967,3.733,6.433,7,7.4s6.366-0.35,9.3-3.95C143.417,92.183,144.566,90.3,145.4,88.3z"/>
	</g>
	<path style="fill-rule:evenodd;clip-rule:evenodd;fill:#8F7D5C;" d="M108.75,61.7l-8.35,66.45
		c-0.967,7.767-2.551,31.684-4.75,71.75c-2.667,49.333-4.15,76.216-4.45,80.649c-0.9,13.2,1.366,27.884,6.8,44.05
		c2.7,8.067,5.5,14.817,8.4,20.25c-0.934-0.433-2.117-0.833-3.551-1.199c-2.8-0.733-5.35-0.884-7.649-0.45s-4.483,2-6.55,4.7
		c-1.034,1.366-1.834,2.683-2.4,3.949c0.134-1.066-0.083-2.033-0.65-2.899c-1.1-1.733-3.35-2.117-6.75-1.15s-7.6,2.233-12.6,3.8
		L59.8,353.7c2.367-1.867,4.934-4.9,7.7-9.101c5.5-8.399,9.2-18.416,11.1-30.05c2.767-16.7,4.583-45.05,5.45-85.05
		c0.934-43.566-0.483-69.667-4.25-78.3c-3.333-7.6-9.566-26.083-18.7-55.45C56.533,81.083,52.3,67.167,48.4,54l11.7,25.5
		c8.233,18.167,13.417,30.15,15.55,35.95c1.567,4.3,3.7,8.55,6.4,12.75c2.8,4.367,4.767,6.35,5.9,5.95
		c1.767-0.633,5.767-12.9,12-36.8C103.05,85.417,105.983,73.533,108.75,61.7z"/>
	<polygon style="fill-rule:evenodd;clip-rule:evenodd;fill:#8F7D5C;" points="92,235.85 120.5,230.3 92.4,241.15 	"/>
	<polygon style="fill-rule:evenodd;clip-rule:evenodd;fill:#8F7D5C;" points="87.35,214.3 89.05,217.85 60.15,205.6 	"/>
	<g>
		<path style="fill-rule:evenodd;clip-rule:evenodd;fill:#806E4D;" d="M61.1,95.75C56.533,81.083,52.3,67.167,48.4,54
			c3.833,10.8,8.083,22.283,12.75,34.45c9.333,24.3,16.067,39.833,20.2,46.6c1.8,2.867,3.9,2.583,6.3-0.85l0.3-0.05
			c0.767-0.3,1.934-2.733,3.5-7.3c4.2-10.004,8.758-25.904,13.675-47.7c-4.495,22.028-7.954,39.211-10.375,51.55
			c-1.134,5.867-2.134,17.55-3,35.05c-0.6,12.267-0.983,23.45-1.15,33.55c-0.066,3.834-0.8,21.066-2.199,51.7
			c-1.301,30.167-1.784,48.15-1.45,53.95c0.366,5.733,1.399,13.566,3.1,23.5c0.967,5.733,1.934,10.916,2.9,15.55
			c-1.733,0.934-3.367,2.517-4.9,4.75c-0.767,1.134-1.366,2.167-1.8,3.1c0.134-1.066-0.083-2.033-0.65-2.899
			c-1.1-1.733-3.35-2.117-6.75-1.15s-7.6,2.233-12.6,3.8L59.8,353.7c2.367-1.867,4.934-4.9,7.7-9.101
			c5.5-8.399,9.2-18.416,11.1-30.05c2.767-16.7,4.583-45.05,5.45-85.05c0.934-43.566-0.483-69.667-4.25-78.3
			C76.467,143.6,70.233,125.117,61.1,95.75z"/>
		<g>
			<path style="fill-rule:evenodd;clip-rule:evenodd;fill:#6C5E3F;" d="M86.3,242.95L85.4,274.85
				c-0.567,22.2-0.784,35.584-0.65,40.15c0.167,6.5,0.65,18.35,1.45,35.55c-0.2-1.2-0.75-2.083-1.65-2.649
				c-1.267-0.767-3.167-0.801-5.7-0.101c-3.4,0.967-7.6,2.233-12.6,3.8L59.8,353.7c7-3.267,12.317-9.384,15.95-18.351
				c2.5-6.199,4.15-13.616,4.95-22.25c0.466-5.199,1.55-18.449,3.25-39.75L86.3,242.95z"/>
		</g>
	</g>
	<g>
		<g>
			<path style="fill-rule:evenodd;clip-rule:evenodd;fill:#B36940;" d="M64.35,47c-0.767,3.167-2.067,6.05-3.9,8.65
				c-0.467-0.7-0.9-1.65-1.3-2.85c-0.767-2.433-0.867-4.9-0.3-7.4c0.633-2.5,1.7-4.383,3.2-5.65c0.767-0.633,1.417-1.017,1.95-1.15
				c0.033,0.033,0.25,0.85,0.65,2.45C64.917,43.017,64.817,45,64.35,47z"/>
		</g>
	</g>
	<g>
		<g>
			<path style="fill-rule:evenodd;clip-rule:evenodd;fill:#B36940;" d="M40.4,62.75c1.667,0.333,3.133,1.133,4.4,2.4
				c1.267,1.3,2.233,2.867,2.9,4.7c0.367,0.933,0.583,1.717,0.65,2.35c-0.667-0.133-1.434-0.417-2.3-0.85
				c-1.8-0.8-3.333-1.833-4.6-3.1c-1.3-1.267-2.2-2.583-2.7-3.95c-0.333-0.933-0.45-1.517-0.35-1.75
				C38.367,62.583,39.033,62.65,40.4,62.75z"/>
		</g>
	</g>
	<g>
		<g>
			<path style="fill-rule:evenodd;clip-rule:evenodd;fill:#B36940;" d="M113.65,76.5c0.033-0.533,0.183-1.2,0.449-2
				c0.567-1.633,1.483-3.017,2.75-4.15c1.334-1.067,2.634-1.684,3.9-1.85c0.6-0.1,1.083-0.083,1.45,0.05l-0.5,1.65
				c-0.566,1.233-1.384,2.283-2.45,3.15c-1.033,0.933-2.267,1.733-3.7,2.4C114.316,76.25,113.684,76.5,113.65,76.5z"/>
		</g>
	</g>
	<g>
		<g>
			<path style="fill-rule:evenodd;clip-rule:evenodd;fill:#B36940;" d="M101.45,68.25c-0.434-0.2-0.917-0.55-1.45-1.05
				c-1.066-1.034-1.816-2.25-2.25-3.65c-0.4-1.4-0.434-2.633-0.1-3.7c0.466-0.767,0.683-1.15,0.649-1.15c0.134,0,0.483,0.333,1.05,1
				c0.7,0.9,1.233,1.917,1.601,3.05C101.483,64.55,101.65,66.383,101.45,68.25z"/>
		</g>
	</g>
	<g>
		<g>
			<path style="fill-rule:evenodd;clip-rule:evenodd;fill:#B36940;" d="M127.15,98.05c-0.134,0.7-0.467,1.5-1,2.4
				c-1.034,1.867-2.483,3.417-4.351,4.65c-1.866,1.2-4.017,2.083-6.45,2.65l-3.05,0.5c0.267-0.833,0.733-1.8,1.4-2.9
				c1.333-2.2,3.033-3.967,5.1-5.3c2.066-1.367,4.084-2.117,6.05-2.25C125.816,97.767,126.583,97.85,127.15,98.05z"/>
		</g>
	</g>
	<g>
		<g>
			<path style="fill-rule:evenodd;clip-rule:evenodd;fill:#B36940;" d="M50.65,96.85c2.567,1.233,4.583,3.15,6.05,5.75
				c0.7,1.3,1.15,2.417,1.35,3.35c-0.966-0.2-2.117-0.483-3.45-0.85c-2.633-0.7-5-1.533-7.1-2.5c-2.167-1.033-3.983-2.25-5.45-3.65
				c-1.066-1-1.6-1.65-1.6-1.95c-0.034,0.067,0.883-0.3,2.75-1.1C45.633,95.3,48.117,95.617,50.65,96.85z"/>
		</g>
	</g>
	<g>
		<g>
			<path style="fill-rule:evenodd;clip-rule:evenodd;fill:#B36940;" d="M70.15,85.55c-0.167-0.733-0.25-1.65-0.25-2.75
				c0.033-2.167,0.517-4.183,1.45-6.05c0.9-1.9,2.033-3.317,3.4-4.25c0.667-0.467,1.25-0.75,1.75-0.85c0.033,0,0.167,0.733,0.4,2.2
				c0.067,1.8-0.316,3.55-1.15,5.25c-0.867,1.7-2.05,3.283-3.55,4.75C71.433,84.583,70.75,85.15,70.15,85.55z"/>
		</g>
	</g>
	<g>
		<g>
			<path style="fill-rule:evenodd;clip-rule:evenodd;fill:#B36940;" d="M108,130.7c0.1-0.6,0.316-1.3,0.65-2.1
				c0.699-1.6,1.699-2.95,3-4.05c1.399-1.1,2.767-1.733,4.1-1.9c0.667-0.1,1.184-0.083,1.55,0.05l-0.55,1.7
				c-0.634,1.333-1.517,2.45-2.65,3.35C112.267,129.283,110.233,130.267,108,130.7z"/>
		</g>
	</g>
	<g>
		<g>
			<path style="fill-rule:evenodd;clip-rule:evenodd;fill:#B36940;" d="M87.6,33.55C87.167,32.883,86.767,32,86.4,30.9
				c-0.767-2.233-0.967-4.5-0.601-6.8c0.367-2.233,1.134-4.05,2.3-5.45c0.567-0.7,1.101-1.167,1.601-1.4l1,2.15
				c0.566,1.867,0.684,3.783,0.35,5.75c-0.3,1.967-0.967,3.95-2,5.95C88.55,32.1,88.066,32.917,87.6,33.55z"/>
		</g>
	</g>
	<g>
		<g>
			<path style="fill-rule:evenodd;clip-rule:evenodd;fill:#B36940;" d="M60.8,22.45c-0.4-0.167-0.833-0.467-1.3-0.9
				c-0.967-0.9-1.6-2-1.9-3.3c-0.3-1.3-0.233-2.4,0.2-3.3c0.467-0.633,0.684-0.95,0.65-0.95c0.133,0,0.4,0.333,0.8,1
				c0.533,0.833,0.933,1.733,1.2,2.7C60.817,19.267,60.933,20.85,60.8,22.45z"/>
		</g>
	</g>
	<g>
		<g>
			<path style="fill-rule:evenodd;clip-rule:evenodd;fill:#B36940;" d="M35.7,48.1c-0.7-0.133-1.534-0.417-2.5-0.85
				c-1.9-0.9-3.483-2.167-4.75-3.8c-1.233-1.7-1.934-3.35-2.1-4.95l0.1-1.9c0,0.033,0.683,0.283,2.05,0.75
				c1.567,0.8,2.867,1.9,3.9,3.3C34.167,42.917,35.267,45.4,35.7,48.1z"/>
		</g>
	</g>
	<g>
		<g>
			<path style="fill-rule:evenodd;clip-rule:evenodd;fill:#B36940;" d="M27.2,88.9c-1.567,0.633-3.233,0.684-5,0.15
				c-1.167-0.3-2.083-0.783-2.75-1.45l-0.65-0.9l1.2-0.4c1-0.233,2.017-0.216,3.05,0.05C24.717,86.85,26.1,87.7,27.2,88.9z"/>
		</g>
	</g>
	<g>
		<g>
			<path style="fill-rule:evenodd;clip-rule:evenodd;fill:#B36940;" d="M55.05,120.55c-0.667,0.467-1.55,0.917-2.65,1.35
				c-2.2,0.9-4.4,1.283-6.6,1.15c-2.233,0-4.133-0.45-5.7-1.35l-1.65-1.4l2-1.3c1.733-0.9,3.65-1.35,5.75-1.35
				c2.1,0.133,4.2,0.65,6.3,1.55C53.567,119.667,54.417,120.117,55.05,120.55z"/>
		</g>
	</g>
	<g>
		<g>
			<path style="fill-rule:evenodd;clip-rule:evenodd;fill:#B36940;" d="M71.85,142.85c-0.4,0.066-0.9,0.017-1.5-0.15
				c-1.233-0.333-2.233-1.067-3-2.2c-0.667-1.067-0.983-2.067-0.95-3c0.2-0.7,0.283-1.05,0.25-1.05
				c0.067-0.067,0.417,0.133,1.05,0.6c0.767,0.534,1.433,1.2,2,2C70.5,140.283,71.217,141.55,71.85,142.85z"/>
		</g>
	</g>
	<g>
		<g>
			<path style="fill-rule:evenodd;clip-rule:evenodd;fill:#B36940;" d="M93.65,98.5c0.267,2.367,0.483,4.817,0.649,7.35
				c-0.666-0.167-1.416-0.6-2.25-1.3c-1.7-1.4-2.717-3.267-3.05-5.6c-0.233-2.333,0.184-4.167,1.25-5.5
				c0.5-0.667,0.983-1.067,1.45-1.2c0.133,0.133,0.399,0.75,0.8,1.85C93.033,95.567,93.417,97.033,93.65,98.5z"/>
		</g>
	</g>
	<g>
		<g>
			<path style="fill-rule:evenodd;clip-rule:evenodd;fill:#B36940;" d="M142.1,118.5l0.65-1.65c0.667-1.267,1.566-2.317,2.7-3.15
				c1.1-0.8,2.2-1.25,3.3-1.35c0.533-0.067,0.967-0.05,1.3,0.05c-0.066,0.4-0.233,0.85-0.5,1.35c-0.533,1.067-1.3,1.967-2.3,2.7
				c-1,0.7-2.15,1.25-3.45,1.65L142.1,118.5z"/>
		</g>
	</g>
	<g>
		<g>
			<path style="fill-rule:evenodd;clip-rule:evenodd;fill:#B36940;" d="M143.75,79.85c0.033-0.6,0.167-1.333,0.4-2.2
				c0.466-1.667,1.25-3.133,2.35-4.4c1.1-1.3,2.267-2.167,3.5-2.6c0.6-0.233,1.1-0.333,1.5-0.3l-0.15,1.8
				c-0.333,1.4-0.983,2.684-1.949,3.85c-1,1.133-2.233,2.117-3.7,2.95L143.75,79.85z"/>
		</g>
	</g>
	<g>
		<g>
			<path style="fill-rule:evenodd;clip-rule:evenodd;fill:#B36940;" d="M123.1,34.55c-0.199,1.333-0.75,2.583-1.649,3.75
				c-0.9,1.167-2.084,2.133-3.55,2.9l-1.801,0.75c0.067-0.567,0.217-1.233,0.45-2c0.434-1.534,1.117-2.9,2.05-4.1
				c0.934-1.2,1.967-2.067,3.101-2.6c0.566-0.233,1.033-0.367,1.399-0.4V34.55z"/>
		</g>
	</g>
	<path style="fill-rule:evenodd;clip-rule:evenodd;fill:#D6B095;" d="M91.6,4.45l1.15,0.1c0.934,0.167,1.884,0.5,2.85,1
		c3.101,1.6,5.684,4.55,7.75,8.85c2.101,4.3,1.551,8.25-1.649,11.85c-0.967,1.133-2.167,2.15-3.601,3.05l-1.8,1.05
		c0.733-1.3,1.3-2.934,1.7-4.9c0.866-3.967,0.566-7.6-0.9-10.9c-1.433-3.3-5.133-5.033-11.1-5.2l-8.5,0.75l4.9-3.15
		C86.134,4.917,89.2,4.083,91.6,4.45z"/>
	<path style="fill-rule:evenodd;clip-rule:evenodd;fill:#D6B095;" d="M149.45,63.65c-2.867-2.3-6.101-4.383-9.7-6.25l-4.5-2.1
		l2.45-0.2c1.967-0.1,3.833-0.017,5.6,0.25c5.7,0.833,9.334,3.316,10.9,7.45s2.066,8.284,1.5,12.45c-0.267,2.1-0.7,3.783-1.3,5.05
		c0.333-1.833,0.366-3.9,0.1-6.2C154,69.467,152.316,65.983,149.45,63.65z"/>
	<g>
		<g>
			<path style="fill-rule:evenodd;clip-rule:evenodd;fill:#B36940;" d="M122,225.35c-1.6,1.7-3.55,3.117-5.85,4.25
				c-1.134,0.567-2.117,0.967-2.95,1.2c0.033-0.899,0.267-1.983,0.7-3.25c0.833-2.533,2.133-4.717,3.899-6.55
				c1.733-1.8,3.533-3.033,5.4-3.7c0.967-0.3,1.75-0.434,2.35-0.399l-0.3,2.699C124.717,221.733,123.634,223.65,122,225.35z"/>
		</g>
	</g>
	<g>
		<g>
			<path style="fill-rule:evenodd;clip-rule:evenodd;fill:#B36940;" d="M125.7,236.5c-1.601-0.5-3.117-1.316-4.55-2.45l-1.7-1.5
				c-0.167-0.166,0.6-0.366,2.3-0.6c1.866-0.233,3.667-0.084,5.4,0.45c2.699,0.833,4.416,2,5.149,3.5
				c-0.434,0.3-1.033,0.55-1.8,0.75C128.934,237.083,127.333,237.033,125.7,236.5z"/>
		</g>
	</g>
	<g>
		<g>
			<path style="fill-rule:evenodd;clip-rule:evenodd;fill:#B36940;" d="M68.75,207.35c-0.3-0.166-0.633-0.416-1-0.75
				c-0.767-0.699-1.333-1.517-1.7-2.449c-0.367-0.967-0.433-1.867-0.2-2.7l0.45-0.8c0.034,0.066,0.284,0.316,0.75,0.75
				c0.5,0.566,0.9,1.233,1.2,2C68.783,204.7,68.95,206.017,68.75,207.35z"/>
		</g>
	</g>
	<g>
		<g>
			<path style="fill-rule:evenodd;clip-rule:evenodd;fill:#B36940;" d="M65.3,209.75c-0.8,0.667-1.7,1.167-2.7,1.5
				c-0.667,0.267-1.283,0.366-1.85,0.3c-0.467-0.033-0.7-0.083-0.7-0.149c0.067-0.2,0.2-0.434,0.4-0.7
				c0.4-0.533,0.95-0.917,1.65-1.15C63.267,209.15,64.333,209.217,65.3,209.75z"/>
		</g>
	</g>
	<g>
		<g>
			<path style="fill-rule:evenodd;clip-rule:evenodd;fill:#B36940;" d="M59.05,205.2c-0.267,0.233-0.65,0.467-1.15,0.7
				c-0.967,0.466-2.017,0.649-3.15,0.55c-1.1-0.134-1.967-0.483-2.6-1.05l-0.6-0.75c0.1-0.101,0.45-0.233,1.05-0.4
				c0.8-0.233,1.633-0.316,2.5-0.25C56.5,204.134,57.817,204.533,59.05,205.2z"/>
		</g>
	</g>
</g>
</svg>
