<?xml version="1.0" encoding="iso-8859-1"?>
<!-- Generator: Adobe Illustrator 15.1.0, SVG Export Plug-In . SVG Version: 6.00 Build 0)  -->
<!DOCTYPE svg PUBLIC "-//W3C//DTD SVG 1.1//EN" "http://www.w3.org/Graphics/SVG/1.1/DTD/svg11.dtd">
<svg version="1.1" id="tree_x5F_background_x5F_02.ai"
	 xmlns="http://www.w3.org/2000/svg" xmlns:xlink="http://www.w3.org/1999/xlink" x="0px" y="0px" width="86.7px" height="97.15px"
	 viewBox="0 0 86.7 97.15" style="enable-background:new 0 0 86.7 97.15;" xml:space="preserve">
<g>
	<path style="fill-rule:evenodd;clip-rule:evenodd;fill:#A79777;" d="M53.1,46.75l4-3.6l4.351,5.3c3.267,4.133,5.816,7.7,7.649,10.7
		c1.767,2.866,2.617,6.649,2.551,11.35c-0.034,2.566-0.084,6.25-0.15,11.05c0.333,2.834,1.9,5.816,4.7,8.95
		c1.399,1.566,2.767,2.85,4.1,3.85c-2.133-0.533-4.533-0.933-7.2-1.199C71.434,92.983,70.467,93.6,70.2,95
		c-0.134,0.7-0.101,1.417,0.1,2.15c-0.267-0.4-0.633-0.817-1.1-1.25c-0.934-0.867-1.9-1.384-2.9-1.551
		c-1-0.166-2.767-0.083-5.3,0.25l-3.5,0.551c1.333-0.534,2.667-1.467,4-2.801c1-1,2.35-5.133,4.05-12.399
		c1.7-7.3,2.351-11.834,1.95-13.601c-0.333-1.5-2.833-5.216-7.5-11.149L53.1,46.75z"/>
	<path style="fill-rule:evenodd;clip-rule:evenodd;fill:#BA764E;" d="M48.7,9.85c2.366,2.033,4.267,4.15,5.7,6.35
		c1.833,2.7,4.767,5.117,8.8,7.25c2.033,1.066,3.866,1.867,5.5,2.4l-10,0.95l3.05,1.5c2.634,1.3,5.35,2.717,8.15,4.25
		c2.899,1.6,6.566,2.833,11,3.7c2.233,0.433,4.166,0.717,5.8,0.85c-5.601,4.433-10.45,7.917-14.55,10.45
		c-2.567,1.601-5.134,2.634-7.7,3.101L61.35,50.9c-1.466,1.866-3.666,4.083-6.6,6.649C52.95,59.15,49.033,60.934,43,62.9
		l-8.45,2.449c1.034-1.233,2.2-2.899,3.5-5c2.6-4.166,4.55-8.399,5.851-12.7c1.267-4.3,1.366-9.283,0.3-14.95l-2-7.25l-5.5,7
		c0.633-2,1.117-4.284,1.45-6.85c0.733-5.167,0.45-9.2-0.85-12.1c-1.966-4.4-8.767-7.95-20.4-10.65C11.067,1.517,5.433,0.617,0,0.15
		C4.967-0.117,10.5-0.067,16.6,0.3C28.767,1,37.667,2.883,43.3,5.95C45,6.883,46.8,8.183,48.7,9.85z"/>
</g>
</svg>
