<?xml version="1.0" encoding="iso-8859-1"?>
<!-- Generator: Adobe Illustrator 15.1.0, SVG Export Plug-In . SVG Version: 6.00 Build 0)  -->
<!DOCTYPE svg PUBLIC "-//W3C//DTD SVG 1.1//EN" "http://www.w3.org/Graphics/SVG/1.1/DTD/svg11.dtd">
<svg version="1.1" id="tree_x5F_mid_x5F_02.ai" xmlns="http://www.w3.org/2000/svg" xmlns:xlink="http://www.w3.org/1999/xlink"
	 x="0px" y="0px" width="122.6px" height="193.6px" viewBox="0 0 122.6 193.6" style="enable-background:new 0 0 122.6 193.6;"
	 xml:space="preserve">
<g>
	<path style="fill-rule:evenodd;clip-rule:evenodd;fill:#8F7D5C;" d="M75,139.8c6.533,6.834,10.033,12.351,10.5,16.55
		c0.366,3.367-1.934,9.317-6.9,17.851c-2.267,3.899-3.716,6.649-4.35,8.25c-1,2.6-1,4.399,0,5.399l4.5,4.5
		c-5.267-0.767-9.4-1.149-12.4-1.149c-1.866,0-3.949,0.399-6.25,1.2l-2.85,1.199c0.433-0.899,0.45-1.816,0.05-2.75
		c-0.8-1.833-3.316-2.75-7.55-2.75c1.667-0.6,3.483-1.399,5.45-2.399c3.933-2,6.616-4.033,8.05-6.101
		c1.467-2.066,4.316-6.517,8.55-13.35l5.95-9.65l-18.5-25l6.1-0.75L75,139.8z"/>
	<g>
		<path style="fill-rule:evenodd;clip-rule:evenodd;fill:#806E4D;" d="M59.25,131.6l3.95-0.5c1.6,1.834,5.467,6.217,11.6,13.15
			c5.334,6.267,7.95,10.05,7.851,11.35c-0.067,1.167-2.384,5.95-6.95,14.351c-4.601,8.5-7.033,13.717-7.3,15.649
			c-0.267,2.134,0.233,3.75,1.5,4.851c0.699,0.633,1.517,1.017,2.449,1.149c-2.8-0.267-4.8-0.399-6-0.399
			c-1.866,0-3.949,0.399-6.25,1.2l-2.85,1.199c0.433-0.899,0.45-1.816,0.05-2.75c-0.8-1.833-3.316-2.75-7.55-2.75
			c1.667-0.6,3.483-1.399,5.45-2.399c3.933-2,6.616-4.033,8.05-6.101c1.467-2.066,4.316-6.517,8.55-13.35l5.95-9.65L59.25,131.6z"/>
	</g>
	<g>
		<path style="fill-rule:evenodd;clip-rule:evenodd;fill:#6C5E3F;" d="M80.9,155.35l-6.65,13.7c-4.533,9.566-7.066,15.334-7.6,17.3
			c-0.5,1.967-0.65,3.601-0.45,4.9c-1.867,0.033-3.917,0.434-6.15,1.2l-2.8,1.149c0.433-0.899,0.45-1.816,0.05-2.75
			c-0.8-1.833-3.316-2.75-7.55-2.75l3.65-0.899c2.967-0.967,5.8-2.334,8.5-4.101c2.699-1.767,6.383-6.916,11.05-15.449l6.2-12.301
			l-16.25-22.5L80.9,155.35z"/>
	</g>
	<path style="fill-rule:evenodd;clip-rule:evenodd;fill:#B36940;" d="M79.85,6.45c-10.133,6-16.133,13.216-18,21.65
		c-1.866,8.433-0.55,19.217,3.95,32.35c2.233,6.566,4.667,12.283,7.3,17.15L54,70.85l8.7,11.25c6.399,8.267,11,14.267,13.8,18
		c2.8,3.767,11.333,8.084,25.6,12.95c7.101,2.434,13.934,4.5,20.5,6.2c-0.933,1.7-2.75,3.533-5.449,5.5
		c-5.434,3.934-12.617,6.6-21.551,8c-8.899,1.4-16.883,1.816-23.949,1.25l-7.9-1.3l-0.95,1.55c-0.866,1.333-1.983,2.7-3.35,4.1
		c-4.4,4.534-10.35,8.667-17.85,12.4c-7.5,3.767-16.684,7.15-27.55,10.15c-5.433,1.5-10.117,2.616-14.05,3.35
		c3-3.2,6.233-7.1,9.7-11.7c6.933-9.166,11.566-17.267,13.9-24.3c2.367-7.033,4.2-15.717,5.5-26.05l1.25-13.35l-13.5,7.9l13.5-25.9
		L22.5,73.1c5.233-10.5,12.35-24.367,21.35-41.6c5.633-10.8,15.767-19.283,30.4-25.45C81.55,2.95,88.3,0.933,94.5,0
		C89.8,1.3,84.917,3.45,79.85,6.45z"/>
	<g>
		<path style="fill-rule:evenodd;clip-rule:evenodd;fill:#9B5E3A;" d="M43.85,31.5c4.867-9.367,13.183-17.017,24.95-22.95l0.601-0.2
			c-2.733,1.333-5.851,3.483-9.351,6.45c-6.966,5.9-12.267,12.917-15.9,21.05c-4.633,10.333-8.383,19.5-11.25,27.5l9.25-3.75
			L30.4,80.85l8.75-3L36.6,103.5c-1.934,17.7-3.583,28.066-4.95,31.1c-1.367,3.034-3.066,5.851-5.1,8.45
			c-1,1.334-1.883,2.351-2.65,3.05c1.767-0.833,3.667-1.816,5.7-2.949c4.066-2.301,6.833-4.233,8.3-5.801
			c1.467-1.566,2.783-3.583,3.95-6.05l1.3-3.2l-0.75,9.25l5.35-1.35c3.967-1.167,6.933-2.384,8.9-3.65
			c1.967-1.233,3.934-3.149,5.9-5.75l2.351-3.5l1.649,3.7c1.634,2.5,3.75,3.851,6.351,4.05c4.166,0.334,12.583-0.083,25.25-1.25
			l-2-2l5.399-0.399c4-0.367,7.033-0.816,9.101-1.351c2.1-0.533,4.716-1.783,7.85-3.75c1.566-1,2.934-1.949,4.1-2.85
			c-0.933,1.7-2.75,3.533-5.449,5.5c-5.434,3.934-12.617,6.6-21.551,8c-8.899,1.4-16.883,1.816-23.949,1.25l-7.9-1.3l-0.95,1.55
			c-0.866,1.333-1.983,2.7-3.35,4.1c-4.4,4.534-10.35,8.667-17.85,12.4c-7.5,3.767-16.684,7.15-27.55,10.15
			c-5.433,1.5-10.117,2.616-14.05,3.35c3-3.2,6.233-7.1,9.7-11.7c6.933-9.166,11.566-17.267,13.9-24.3
			c2.367-7.033,4.2-15.717,5.5-26.05l1.25-13.35l-13.5,7.9l13.5-25.9L22.5,73.1C27.733,62.6,34.85,48.733,43.85,31.5z"/>
	</g>
	<g>
		<g>
			<path style="fill-rule:evenodd;clip-rule:evenodd;fill:#9B5E3A;" d="M50.15,102.05c-1.733,3.2-2.867,7.134-3.4,11.8
				c-1.167-4.8-1.55-9.116-1.15-12.949c0.066,3.366,0.45,6.25,1.15,8.649C47.383,107.184,48.517,104.684,50.15,102.05z"/>
		</g>
	</g>
	<g>
		<g>
			<path style="fill-rule:evenodd;clip-rule:evenodd;fill:#9B5E3A;" d="M74.95,105.85c1.3,5.434,2.399,9.834,3.3,13.2
				c-2.467-3.3-5.05-6.95-7.75-10.95c1.3,1.5,3.25,3.767,5.85,6.801C76.217,114.134,75.75,111.116,74.95,105.85z"/>
		</g>
	</g>
	<g>
		<g>
			<polygon style="fill-rule:evenodd;clip-rule:evenodd;fill:#9B5E3A;" points="54.65,82.9 56.5,94.3 50.75,84.55 55.25,90.65 			
				"/>
		</g>
	</g>
	<g>
		<g>
			<path style="fill-rule:evenodd;clip-rule:evenodd;fill:#9B5E3A;" d="M56.35,52.05c-2.167,2.833-3.617,6.267-4.35,10.3
				c-0.8-4.133-0.667-8.117,0.4-11.95c-0.5,3.033-0.517,5.717-0.05,8.05C53.117,56.45,54.45,54.317,56.35,52.05z"/>
		</g>
	</g>
	<g>
		<g>
			<path style="fill-rule:evenodd;clip-rule:evenodd;fill:#9B5E3A;" d="M58.4,26.2c-2.3,3.6-4.267,6.917-5.9,9.95
				c0.567-4.233,1.2-8.033,1.9-11.4c-0.367,3.933-0.566,6.5-0.6,7.7C54.733,30.983,56.267,28.9,58.4,26.2z"/>
		</g>
	</g>
	<g>
		<g>
			<path style="fill-rule:evenodd;clip-rule:evenodd;fill:#9B5E3A;" d="M39.75,123.7c1.567-2.434,2.417-3.733,2.55-3.9
				c-2,4.066-4.35,8.017-7.05,11.851c1.067-4.167,1.8-8.5,2.2-13c-0.034,0.966-0.05,2.433-0.05,4.399
				c-0.033,1.767-0.15,3.233-0.35,4.4C37.85,126.517,38.75,125.267,39.75,123.7z"/>
		</g>
	</g>
	<g>
		<g>
			<path style="fill-rule:evenodd;clip-rule:evenodd;fill:#9B5E3A;" d="M92.95,112.55c2.166,2.467,4.666,5.05,7.5,7.75
				c-3.101-1.267-6.384-2.767-9.851-4.5c4.233,1.533,6.517,2.351,6.851,2.45c-0.667-0.733-1.434-1.684-2.3-2.85
				C94.184,114.134,93.45,113.184,92.95,112.55z"/>
		</g>
	</g>
	<g>
		<g>
			<path style="fill-rule:evenodd;clip-rule:evenodd;fill:#9B5E3A;" d="M47,44.05c-1.667,2.467-3.167,5.15-4.5,8.05
				c0.2-3.267,0.633-6.367,1.3-9.3c-0.033,0.733-0.133,1.8-0.3,3.2c-0.1,1.233-0.133,2.267-0.1,3.1c0.4-0.7,0.983-1.567,1.75-2.6
				C46.25,45.067,46.867,44.25,47,44.05z"/>
		</g>
	</g>
	<g>
		<g>
			<path style="fill-rule:evenodd;clip-rule:evenodd;fill:#9B5E3A;" d="M45,67.05c-1.933,2.767-3.267,5.534-4,8.3
				c-0.333-2.9-0.083-6.083,0.75-9.55c-0.3,2.733-0.383,4.867-0.25,6.4C42.133,70.967,43.3,69.25,45,67.05z"/>
		</g>
	</g>
	<g>
		<g>
			<path style="fill-rule:evenodd;clip-rule:evenodd;fill:#9B5E3A;" d="M63.6,62.7c0.367,2.367,0.4,4.667,0.101,6.9
				c-0.434-1.867-1.233-3.867-2.4-6l1.2,1.8c0.467,0.767,0.8,1.417,1,1.95c0.134-0.6,0.184-1.367,0.15-2.3
				C63.616,63.65,63.6,62.867,63.6,62.7z"/>
		</g>
	</g>
	<path style="fill-rule:evenodd;clip-rule:evenodd;fill:#C58B64;" d="M59.25,33.4C58.95,36,59.2,39.933,60,45.2
		c0.4,2.633,0.833,5.017,1.3,7.15l-3.2-6.4l-4.5,5.45c0.267-1,0.9-2.566,1.9-4.7C56.5,44.6,57.75,40.167,59.25,33.4z"/>
	<path style="fill-rule:evenodd;clip-rule:evenodd;fill:#C58B64;" d="M60.15,81.6l12.6,16.1l-3.2-2.05l3.95,10.7
		c-1.134-2.267-2.517-4.767-4.15-7.5c-1.033-1.733-2.866-5.133-5.5-10.2L60.15,81.6z"/>
</g>
</svg>
