<?xml version="1.0" encoding="iso-8859-1"?>
<!-- Generator: Adobe Illustrator 15.1.0, SVG Export Plug-In . SVG Version: 6.00 Build 0)  -->
<!DOCTYPE svg PUBLIC "-//W3C//DTD SVG 1.1//EN" "http://www.w3.org/Graphics/SVG/1.1/DTD/svg11.dtd">
<svg version="1.1" id="tree_x5F_background_x5F_03.ai"
	 xmlns="http://www.w3.org/2000/svg" xmlns:xlink="http://www.w3.org/1999/xlink" x="0px" y="0px" width="49.25px" height="74.15px"
	 viewBox="0 0 49.25 74.15" style="enable-background:new 0 0 49.25 74.15;" xml:space="preserve">
<g>
	<path style="fill-rule:evenodd;clip-rule:evenodd;fill:#A79777;" d="M16,48.25l1.5,7.1c1.2,5.067,2.35,8.483,3.45,10.25
		c1.133,1.767,2.45,3.267,3.95,4.5c0.767,0.634,1.416,1.084,1.949,1.351c-1.166-0.267-2.383-0.517-3.649-0.75
		c-2.6-0.434-4.233-0.533-4.9-0.3c-0.667,0.233-1.75,0.933-3.25,2.1c-0.767,0.566-1.466,1.116-2.1,1.65
		c0.2-0.801,0.117-1.534-0.25-2.2c-0.7-1.334-2.383-1.667-5.05-1c0.633-0.533,1.3-1.2,2-2c1.4-1.601,2.333-3.066,2.8-4.4
		c0.267-0.833,0.133-3.816-0.4-8.95c-0.533-4.899-0.4-8.149,0.4-9.75c0.867-1.767,2.816-3.633,5.85-5.6
		c1.5-0.967,2.917-1.767,4.25-2.4l5.05,4L16,48.25z"/>
	<path style="fill-rule:evenodd;clip-rule:evenodd;fill:#BA764E;" d="M43.6,19.05c0,2.133-0.133,5.067-0.399,8.8l-2.4-2.4
		L40.4,36.65l-2.4-5.6l-1.65,5c-1.133,3.733-1.783,6.601-1.949,8.601c-0.267,3.199-0.934,7.733-2,13.6
		c-0.733-0.733-1.551-1.684-2.45-2.85c-1.8-2.334-3.117-4.584-3.95-6.75l-3.2-8.801c-3,0.067-6.2-0.3-9.6-1.1
		C6.4,37.15,2,34.183,0,29.85c2.133,0.133,4.533,0.167,7.2,0.1c5.333-0.133,9.333-0.7,12-1.7c2.667-1,5.066-2.3,7.2-3.9
		c1.066-0.8,1.866-1.5,2.399-2.1l-4.8-2.8l5.1-0.4c4-0.8,7.5-2.533,10.5-5.2c3-2.667,5.567-5.934,7.7-9.8
		c0.842-1.525,1.492-2.884,1.95-4.075C45.483,10.618,43.6,16.976,43.6,19.05z"/>
</g>
</svg>
