<?xml version="1.0" encoding="iso-8859-1"?>
<!-- Generator: Adobe Illustrator 15.1.0, SVG Export Plug-In . SVG Version: 6.00 Build 0)  -->
<!DOCTYPE svg PUBLIC "-//W3C//DTD SVG 1.1//EN" "http://www.w3.org/Graphics/SVG/1.1/DTD/svg11.dtd">
<svg version="1.1" id="tree_x5F_mid_x5F_01.ai" xmlns="http://www.w3.org/2000/svg" xmlns:xlink="http://www.w3.org/1999/xlink"
	 x="0px" y="0px" width="107.05px" height="171.2px" viewBox="0 0 107.05 171.2" style="enable-background:new 0 0 107.05 171.2;"
	 xml:space="preserve">
<g>
	<path style="fill-rule:evenodd;clip-rule:evenodd;fill:#8F7D5C;" d="M44.7,122l11.35,1.95l-7.3,6.649
		c-5.2,4.9-8.633,8.534-10.3,10.9c-1.867,2.634-3.017,5.917-3.45,9.85c-0.367,3.567-0.083,6.233,0.85,8
		c0.733,1.301,3.1,3.051,7.1,5.25c2,1.101,3.917,2.067,5.75,2.9c-3.7,0-6.684-0.267-8.95-0.8c-1.433-0.334-1.933,0.316-1.5,1.95
		c0.233,0.833,0.6,1.683,1.1,2.55c-5.133-2.8-8.517-4.45-10.15-4.95c-1-0.3-2.65-0.2-4.95,0.3L21.1,167.4L26,163
		c0.7-5.033,1.317-10.55,1.85-16.55c0.333-3.733,3.25-8.934,8.75-15.601L44.7,122z"/>
	<g>
		<path style="fill-rule:evenodd;clip-rule:evenodd;fill:#806E4D;" d="M43.3,123.4c3.034,1.5,5.967,2.866,8.8,4.1l-3.4,3.15
			l-2.25-1.601l-9.35,8.45c-2,1.833-3.417,5.3-4.25,10.4c-0.667,3.966-0.883,7.866-0.65,11.699c0.167,2.434,1.417,5.101,3.75,8
			c1.133,1.434,2.267,2.634,3.4,3.601c-5.133-2.8-8.517-4.45-10.15-4.95c-1-0.3-2.65-0.2-4.95,0.3L21.1,167.4L26,163
			c0.7-5.033,1.317-10.55,1.85-16.55c0.267-3.167,2.433-7.417,6.5-12.75C36.95,130.267,39.933,126.833,43.3,123.4z"/>
	</g>
	<g>
		<path style="fill-rule:evenodd;clip-rule:evenodd;fill:#6C5E3F;" d="M35.4,137.85c-1.7,1.867-3.017,4.95-3.95,9.25
			c-0.733,3.467-1.1,6.884-1.1,10.25c0,3,1.167,6.65,3.5,10.95c-2.333-1.133-3.883-1.816-4.65-2.05c-1-0.3-2.65-0.2-4.95,0.3
			L21.1,167.4c1.533-0.7,2.8-1.367,3.8-2c1.767-1.067,2.833-3.434,3.2-7.101c0.367-4.2,0.733-7.267,1.1-9.2
			c0.8-4.533,2-7.966,3.6-10.3c1.567-2.267,3.667-4.45,6.3-6.55l3.45-2.45L35.4,137.85z"/>
	</g>
	<path style="fill-rule:evenodd;clip-rule:evenodd;fill:#B36940;" d="M97.5,80.6l-9.7-17.8l-0.1,14.25
		c0.133,11.134,0.783,20.75,1.95,28.851c1.166,8.1,4.416,16.05,9.75,23.85c2.666,3.934,5.216,7.033,7.649,9.3
		c-2.633,2.2-5.916,4.217-9.85,6.05c-7.834,3.601-14.967,4.417-21.4,2.45c-6.399-1.967-12.916-5.983-19.55-12.05l-8-8.45
		c-3-0.267-6.35-0.7-10.05-1.3c-7.434-1.2-12.95-2.667-16.55-4.4S13.367,115.2,7.6,108.1L0,97.95c2.6,0.6,5.8,1.116,9.6,1.55
		c7.633,0.866,14.55,0.866,20.75,0c6.2-0.866,11.333-4.217,15.4-10.05c1.3-1.8,2.4-3.767,3.3-5.9l1-2.6l-20.25-0.7l31.65-13
		l-15.6-2.5l1.9-0.3c1.567-0.333,3.133-0.85,4.7-1.55c5.1-2.3,9.3-6.017,12.6-11.15c5.467-8.467,7.483-19.633,6.05-33.5
		C70.4,11.317,69.15,5.233,67.35,0C74.884,5.367,82.167,20.417,89.2,45.15C92.733,57.517,95.5,69.333,97.5,80.6z"/>
	<g>
		<path style="fill-rule:evenodd;clip-rule:evenodd;fill:#9B5E3A;" d="M71.1,18.25C70.4,11.317,69.15,5.233,67.35,0
			c1.634,2.267,3.2,5.35,4.7,9.25c2.967,7.833,4.084,15.867,3.351,24.1s-3.284,15.667-7.65,22.3c-2.2,3.3-4.316,5.783-6.35,7.45
			l10.75-0.5L61.4,70.85h4.75l-16.25,6h12.25l-3.851,4.6c-2.533,3.633-3.75,6.85-3.649,9.649c0.1,2.801,0.55,5.851,1.35,9.15
			c0.4,1.667,0.783,3.033,1.15,4.1l-6.5-5.25l-4.9,3.65c-3.867,2.5-7.317,3.95-10.35,4.35c-4.833,0.667-8.833,0.917-12,0.75
			l5.05,3.801c4.1,2.6,7.917,4.166,11.45,4.699c3.533,0.534,7.017,0.483,10.45-0.149c1.7-0.3,3.05-0.667,4.05-1.101l-3.75,6
			l2.75,1.301c2.433,0.933,5.1,1.5,8,1.699c2.933,0.2,5.566,0.134,7.899-0.199c1.167-0.167,2.033-0.351,2.601-0.551l-5.5,7.5
			l2.55,2.95c2.366,2.3,5.267,4.233,8.7,5.8c3.433,1.567,7,2.367,10.699,2.4c1.867,0.033,3.384-0.1,4.551-0.4l-6.25-3l6.149,0.75
			c4.967,0.4,9.717,0.301,14.25-0.3c-2.633,2.2-5.916,4.217-9.85,6.05c-7.834,3.601-14.967,4.417-21.4,2.45
			c-6.399-1.967-12.916-5.983-19.55-12.05l-8-8.45c-3-0.267-6.35-0.7-10.05-1.3c-7.434-1.2-12.95-2.667-16.55-4.4
			S13.367,115.2,7.6,108.1L0,97.95c2.6,0.6,5.8,1.116,9.6,1.55c7.633,0.866,14.55,0.866,20.75,0c6.2-0.866,11.333-4.217,15.4-10.05
			c1.3-1.8,2.4-3.767,3.3-5.9l1-2.6l-20.25-0.7l31.65-13l-15.6-2.5l1.9-0.3c1.567-0.333,3.133-0.85,4.7-1.55
			c5.1-2.3,9.3-6.017,12.6-11.15C70.517,43.283,72.533,32.117,71.1,18.25z"/>
	</g>
	<g>
		<g>
			<path style="fill-rule:evenodd;clip-rule:evenodd;fill:#9B5E3A;" d="M82.25,36.95c-0.566,4.2-1.4,8.5-2.5,12.9
				c-0.6-4.7-1.333-8.817-2.2-12.35c0.267,0.867,0.7,2.183,1.3,3.95c0.5,1.566,0.867,2.917,1.101,4.05
				c0.399-1.133,0.816-2.533,1.25-4.2C81.667,39.4,82.017,37.95,82.25,36.95z"/>
		</g>
	</g>
	<g>
		<g>
			<path style="fill-rule:evenodd;clip-rule:evenodd;fill:#9B5E3A;" d="M79.65,73.5c-1.667,3.933-2.884,6.967-3.65,9.1
				c-0.1-3.033-0.066-6.267,0.1-9.7c0.267,3.6,0.434,5.75,0.5,6.45C77.967,76.75,78.983,74.8,79.65,73.5z"/>
		</g>
	</g>
	<g>
		<g>
			<path style="fill-rule:evenodd;clip-rule:evenodd;fill:#9B5E3A;" d="M86.8,53.95c0.066,1.367,0.2,2.583,0.4,3.65
				c-0.733-1.2-1.3-2.3-1.7-3.3c0.767,1.3,1.2,2,1.3,2.1V53.95z"/>
		</g>
	</g>
	<g>
		<g>
			<path style="fill-rule:evenodd;clip-rule:evenodd;fill:#9B5E3A;" d="M76.05,53.45c-1.2,1.333-2.149,2.966-2.85,4.9
				c-0.066-2.133,0.267-4.133,1-6c-0.066,0.5-0.217,1.183-0.45,2.05c-0.134,0.767-0.167,1.434-0.1,2
				C74.017,55.6,74.816,54.617,76.05,53.45z"/>
		</g>
	</g>
	<g>
		<g>
			<path style="fill-rule:evenodd;clip-rule:evenodd;fill:#9B5E3A;" d="M70.9,83.6c-1.034,5.466-2.167,10.383-3.4,14.75
				c-0.5-4.866-1.2-9.683-2.1-14.45c0.3,1.033,0.75,2.6,1.35,4.7c0.5,1.834,0.884,3.417,1.15,4.75c0.5-1.3,1.033-2.916,1.6-4.85
				C70.1,86.333,70.566,84.7,70.9,83.6z"/>
		</g>
	</g>
	<g>
		<g>
			<polygon style="fill-rule:evenodd;clip-rule:evenodd;fill:#9B5E3A;" points="51.05,107.6 47.7,110.6 49.7,106.65 48.6,109.45 			
				"/>
		</g>
	</g>
	<g>
		<g>
			<path style="fill-rule:evenodd;clip-rule:evenodd;fill:#9B5E3A;" d="M69.1,106.75c-0.767,2.833-1.483,5.866-2.149,9.1
				c-0.533-3.233-0.967-6.3-1.3-9.199c0.333,1.366,0.816,3.383,1.449,6.05C68,110.033,68.667,108.05,69.1,106.75z"/>
		</g>
	</g>
	<g>
		<g>
			<path style="fill-rule:evenodd;clip-rule:evenodd;fill:#9B5E3A;" d="M80.8,105.5c0.2-1.134,0.384-2.6,0.55-4.4
				c0.2-2.366,0.334-3.833,0.4-4.399c0.066,4.566-0.1,8.95-0.5,13.149c-1.2-4.199-2.583-8.216-4.15-12.05
				c0.4,0.834,1.034,2.101,1.9,3.8C79.767,103.134,80.366,104.434,80.8,105.5z"/>
		</g>
	</g>
	<g>
		<g>
			<path style="fill-rule:evenodd;clip-rule:evenodd;fill:#9B5E3A;" d="M79.9,125.5c0.466,1.333,0.916,2.434,1.35,3.3
				c0.1-0.934,0.3-2.116,0.6-3.55c0.434-1.967,0.684-3.1,0.75-3.4c-0.5,3.467-0.783,6.967-0.85,10.5
				c-1.333-3.633-2.35-7.05-3.05-10.25C79,122.866,79.4,124,79.9,125.5z"/>
		</g>
	</g>
	<path style="fill-rule:evenodd;clip-rule:evenodd;fill:#C58B64;" d="M81.9,30.35l-2.25,5.5c0.333-1.667,0.333-3.917,0-6.75l-1-8.5
		l5.5,13L81.9,30.35z"/>
	<path style="fill-rule:evenodd;clip-rule:evenodd;fill:#C58B64;" d="M83.65,82.6l-4,11c0.833-4.833,1.416-8.917,1.75-12.25l2.25-18
		l1.5,24.25L83.65,82.6z"/>
	<path style="fill-rule:evenodd;clip-rule:evenodd;fill:#C58B64;" d="M89.4,116.6l9.25,16l-2.75-2.5l4.25,7.5
		c-2-1.166-3.834-2.916-5.5-5.25c-1.034-1.466-2.217-4.533-3.551-9.199L89.4,116.6z"/>
</g>
</svg>
