<?xml version="1.0" encoding="iso-8859-1"?>
<!-- Generator: Adobe Illustrator 15.1.0, SVG Export Plug-In . SVG Version: 6.00 Build 0)  -->
<!DOCTYPE svg PUBLIC "-//W3C//DTD SVG 1.1//EN" "http://www.w3.org/Graphics/SVG/1.1/DTD/svg11.dtd">
<svg version="1.1" id="buildings_1" xmlns="http://www.w3.org/2000/svg" xmlns:xlink="http://www.w3.org/1999/xlink" x="0px"
	 y="0px" width="67.35px" height="138px" viewBox="0 0 67.35 138" style="enable-background:new 0 0 67.35 138;"
	 xml:space="preserve">
<g>
	<path style="fill-rule:evenodd;clip-rule:evenodd;fill:#66926C;" d="M23.95,8.15c-1.2,1.267-2.383,2.8-3.55,4.6
		c-2.333,3.533-3.433,6.55-3.3,9.05c0.167,2.833,0.867,4.967,2.1,6.4c0.8,0.9,3.716,3.267,8.75,7.1c3.8,2.934,7.633,6.733,11.5,11.4
		c1.934,2.333,3.483,4.367,4.649,6.1l-4.5,3.35c-0.066-1.4-0.399-3.066-1-5c-1.199-3.833-3.149-7-5.85-9.5
		c-4.9-3.933-8.467-6.917-10.7-8.95c-3.9-3.534-5.883-6.717-5.95-9.55c-0.067-3.566,1.217-7.133,3.85-10.7
		C21.283,10.65,22.617,9.217,23.95,8.15z"/>
	<g>
		<path style="fill-rule:evenodd;clip-rule:evenodd;fill:#A2BDA2;" d="M49.15,16.7c4.366-0.567,8.433-0.583,12.199-0.05
			c-4.5,0.067-9.017,0.633-13.55,1.7C38.733,20.517,34.134,24.167,34,29.3c-0.066,2.7,0.917,5.284,2.95,7.75
			c0.8,0.967,2.934,3.017,6.399,6.15c2.733,2.433,4.534,4.566,5.4,6.4c1.233,2.633,1.217,5.533-0.05,8.7
			c-1.634,4.067-2.767,7.217-3.4,9.45c1.733-1.8,3.533-2.7,5.4-2.7c2.666,0,4.267,1.184,4.8,3.55c0.467,2,0.2,3.817-0.8,5.45
			c-0.634,1.033-1.783,1.934-3.45,2.7l-2.3,0.8c0.8-0.366,1.616-0.883,2.45-1.55c1.666-1.267,2.6-2.583,2.8-3.95
			c0.267-1.733-0.55-2.916-2.45-3.55c-1.9-0.633-3.333,0.05-4.3,2.05c-0.834,1.767-1.584,4.917-2.25,9.45
			c-0.334,2.3-0.584,4.4-0.75,6.3l-0.05-0.1c0.5,3.1,1.267,6.8,2.3,11.1c1.934,8.066,5.95,16.434,12.05,25.101
			c3.066,4.333,5.934,7.866,8.6,10.6l-14-2c-1.8-0.3-3.683,0.783-5.649,3.25c-0.967,1.233-1.75,2.483-2.351,3.75
			c-0.733-0.9-1.633-1.816-2.699-2.75c-2.167-1.9-4.15-2.983-5.95-3.25c-1.8-0.3-4.017,0.45-6.65,2.25
			c-1.3,0.9-2.417,1.816-3.35,2.75c0-0.434-0.2-0.917-0.6-1.45c-0.767-1-2.133-1.633-4.1-1.899c-1.933-0.267-4.95,0.267-9.05,1.6
			c-2.067,0.667-3.934,1.35-5.6,2.05c3.4-1.934,6.95-4.283,10.65-7.05c7.367-5.467,11.817-10.217,13.35-14.25
			c1.5-4,2.3-9.816,2.4-17.45c-0.134-8.6-0.15-14.684-0.05-18.25c0.1-3.2,0.85-8.517,2.25-15.95c0.967-4.967,0.883-8.2-0.25-9.7
			c-2-2.667-4.6-5.117-7.8-7.35c-4.1-2.867-7.833-4.2-11.2-4c-4.567,0.3-8.717,3.667-12.45,10.1C2.383,56.633,0.967,59.833,0,63
			c0.533-3.433,1.633-7.05,3.3-10.85C6.6,44.617,11.067,40,16.7,38.3c4.167-1.233,9.2-0.267,15.1,2.9
			c2.741,1.464,5.116,3.047,7.125,4.75c-1.828-1.642-3.486-3.625-4.975-5.95c-3.233-5-3.883-9.45-1.95-13.35
			C34.767,21.117,40.483,17.8,49.15,16.7z"/>
		<g>
			<path style="fill-rule:evenodd;clip-rule:evenodd;fill:#89AA8B;" d="M30.45,47.25l-4.4-2.3l1.7,1c1.3,0.833,2.45,1.617,3.45,2.35
				c1.3,0.967,2.633,2.333,4,4.1c1.5,1.934,2.366,3.533,2.6,4.8c0.2,1.066-0.033,3.55-0.7,7.45c-0.933,5.667-1.449,8.85-1.55,9.55
				c-0.366,3.333-0.467,9.483-0.3,18.45c-0.4-0.867-0.917-1.767-1.55-2.7c-0.066-4.5-0.066-7.717,0-9.65
				c0.1-3.2,0.85-8.517,2.25-15.95c0.967-4.967,0.883-8.2-0.25-9.7c-2-2.667-4.6-5.117-7.8-7.35c-4.1-2.867-7.833-4.2-11.2-4
				c-4.567,0.3-8.717,3.667-12.45,10.1C2.383,56.633,0.967,59.833,0,63c0.8-4.367,2.567-8.55,5.3-12.55
				c2.5-3.667,5.184-6.3,8.05-7.9c2.5-1.4,5.816-1.483,9.95-0.25c3.567,1.067,7.317,2.95,11.25,5.65c3.233,2.2,5.167,5.417,5.8,9.65
				c0.434,3.2,0.15,7.6-0.85,13.2c-0.767,4.367-1.134,11.267-1.1,20.7c0.033,3.8,0.183,10.1,0.449,18.9
				c0.134,4.433,2.317,13.6,6.551,27.5L45.35,138c-1.8-2.233-3.783-3.917-5.949-5.05l-0.95-9.9c-0.601-6.1-1.101-16.133-1.5-30.1
				c-0.101-3.834,0.116-8.967,0.649-15.4c0.4-4.934,0.884-9.466,1.45-13.6c0.434-3.067,0.467-5.534,0.101-7.4
				c-0.367-1.767-1.184-3.383-2.45-4.85C35.667,50.5,33.583,49.017,30.45,47.25z"/>
			<path style="fill-rule:evenodd;clip-rule:evenodd;fill:#89AA8B;" d="M31.05,121.7c-2.033,4.066-6.15,8.083-12.35,12.05
				c-3.3,0.533-7.083,1.717-11.35,3.55c3.4-1.934,6.95-4.283,10.65-7.05c7.367-5.467,11.817-10.217,13.35-14.25
				c0.967-2.5,1.633-5.616,2-9.35c0.301-2.834,0.45-6.384,0.45-10.65c0.3,0.8,0.816,2.3,1.55,4.5
				C35.217,109.3,33.783,116.366,31.05,121.7z"/>
			<path style="fill-rule:evenodd;clip-rule:evenodd;fill:#A2BDA2;" d="M33.85,92.5L33.7,89.95c0.633,0.934,1.149,1.833,1.55,2.7
				l0.1,7.85c-0.733-2.2-1.25-3.7-1.55-4.5l-0.05-3.75L33.85,92.5z"/>
			<path style="fill-rule:evenodd;clip-rule:evenodd;fill:#89AA8B;" d="M33.85,92.5L33.7,89.95c0.633,0.934,1.149,1.833,1.55,2.7
				l0.1,7.85c-0.733-2.2-1.25-3.7-1.55-4.5l-0.05-3.75L33.85,92.5z"/>
			<path style="fill-rule:evenodd;clip-rule:evenodd;fill:#89AA8B;" d="M49.15,16.7c4.366-0.567,8.433-0.583,12.199-0.05
				c-1.833-0.167-3.983-0.183-6.449-0.05c-4.967,0.2-9.034,0.983-12.2,2.35c-6.3,2.667-9.634,6.283-10,10.85
				c-0.2,2.1,0.5,4.5,2.1,7.2c1.334,2.367,3.084,4.55,5.25,6.55c1.367,1.267,2.467,2.534,3.3,3.8c0.733,1.1,1.134,1.967,1.2,2.6
				c0.101,0.733,0.101,1.733,0,3c-1-2.6-2.033-4.35-3.1-5.25l-3-2.25l-0.101-0.1c-2.433-2.4-4.316-4.9-5.649-7.5
				c-2.1-4.167-2.333-7.9-0.7-11.2C34.767,21.117,40.483,17.8,49.15,16.7z"/>
			<path style="fill-rule:evenodd;clip-rule:evenodd;fill:#89AA8B;" d="M53.35,68.7c1.134,0.934,1.534,2.217,1.2,3.85
				c-0.3,1.533-1.333,2.816-3.1,3.851c-0.867,0.533-1.7,0.916-2.5,1.149c0.8-0.366,1.616-0.883,2.45-1.55
				c1.666-1.267,2.6-2.583,2.8-3.95c0.267-1.733-0.55-2.916-2.45-3.55c-1.9-0.633-3.333,0.05-4.3,2.05l-0.3,0.7
				c0.267-0.934,0.716-1.733,1.35-2.4c0.566-0.667,1.15-1.033,1.75-1.1C51.35,67.583,52.384,67.9,53.35,68.7z"/>
			<path style="fill-rule:evenodd;clip-rule:evenodd;fill:#89AA8B;" d="M46.45,67.55c-1.101,1.434-1.851,3.601-2.25,6.5
				c0-2.333,0.366-4.434,1.1-6.3c1.4-1.467,2.851-2.333,4.351-2.6c-0.367,0.267-0.934,0.617-1.7,1.05
				C47.316,66.6,46.816,67.05,46.45,67.55z"/>
			<path style="fill-rule:evenodd;clip-rule:evenodd;fill:#89AA8B;" d="M46.05,104.9c1.367,5.233,2.5,9.1,3.4,11.6
				c1.233,3.434,5.017,8.616,11.35,15.55L53.35,131c-1.033-0.167-2.166,0.184-3.399,1.05c-2-5.5-3.283-10.25-3.851-14.25
				c-0.566-3.967-1.05-8.483-1.449-13.55l-0.4-6.45L46.05,104.9z"/>
			<path style="fill-rule:evenodd;clip-rule:evenodd;fill:#6B8B6F;" d="M31.2,48.3c-1-0.733-2.15-1.517-3.45-2.35l-1.7-1l4.4,2.3
				c3.133,1.767,5.217,3.25,6.25,4.45c1.267,1.466,2.083,3.083,2.45,4.85c0.366,1.867,0.333,4.333-0.101,7.4
				c-0.566,4.133-1.05,8.666-1.45,13.6c-0.533,6.434-0.75,11.566-0.649,15.4c0.399,13.967,0.899,24,1.5,30.1l0.95,9.9
				c-0.967-0.533-1.867-0.851-2.7-0.95c-1.8-0.3-4.017,0.45-6.65,2.25c-1.3,0.9-2.417,1.816-3.35,2.75c0-0.434-0.2-0.917-0.6-1.45
				c-0.767-1-2.133-1.633-4.1-1.899c-0.7-0.101-1.8-0.067-3.3,0.1c6.2-3.967,10.316-7.983,12.35-12.05
				c2.733-5.334,4.167-12.4,4.3-21.2l-0.1-7.85c-0.167-8.967-0.066-15.117,0.3-18.45c0.101-0.7,0.617-3.884,1.55-9.55
				c0.667-3.9,0.9-6.383,0.7-7.45c-0.233-1.267-1.1-2.867-2.6-4.8C33.833,50.633,32.5,49.267,31.2,48.3z"/>
		</g>
		<path style="fill-rule:evenodd;clip-rule:evenodd;fill:#C2D6C1;" d="M50.1,65.65H51.2c0.866,0.1,1.583,0.3,2.149,0.6
			c1.233,0.667,1.9,1.8,2,3.4c0.067,0.933,0.017,1.649-0.149,2.149c0.066-0.5,0.066-1.066,0-1.7c-0.167-1.3-0.617-2.283-1.351-2.95
			c-0.733-0.667-1.666-0.95-2.8-0.85l-1.45,0.35l0.9-0.6L50.1,65.65z"/>
		<path style="fill-rule:evenodd;clip-rule:evenodd;fill:#C2D6C1;" d="M25.6,40.05l4.65,1.85c3.366,1.467,5.816,2.767,7.35,3.9
			c2.434,1.833,4.301,3.9,5.601,6.2l-2.351-1.25l0.15,2.9c-0.1-0.533-0.35-1.217-0.75-2.05c-0.767-1.6-1.866-3.083-3.3-4.45
			S33.2,44.2,30,42.4L25.6,40.05z"/>
		<path style="fill-rule:evenodd;clip-rule:evenodd;fill:#C2D6C1;" d="M45.75,46.3c1.634,1.733,2.533,3.133,2.7,4.2
			c0.2,1.533-0.167,3.3-1.101,5.3c0.2-1.2,0.284-2.283,0.25-3.25c-0.066-1.966-0.616-2.433-1.649-1.4
			c0.133-0.3,0.149-0.717,0.05-1.25c-0.134-1.066-0.717-2.233-1.75-3.5c-0.934-1.167-2.05-2.367-3.35-3.6
			c-1.567-1.433-2.467-2.283-2.7-2.55c-0.634-0.7-1.217-1.483-1.75-2.35l-0.601-1.1l1.75,2.1c1.4,1.533,2.65,2.7,3.75,3.5
			C42.917,43.533,44.384,44.833,45.75,46.3z"/>
		<path style="fill-rule:evenodd;clip-rule:evenodd;fill:#89AA8B;" d="M42.2,67.05l0.35,4.9L44.7,61.2l-1.9,19
			c-0.233,2.833-0.483,6.866-0.75,12.1c-0.166-2.566-0.333-6.066-0.5-10.5c-0.1-2.733-0.017-5.967,0.25-9.7
			C42.066,68.867,42.2,67.183,42.2,67.05z"/>
	</g>
	<path style="fill-rule:evenodd;clip-rule:evenodd;fill:#CCC869;" d="M20.25,12.65c3.233-1.433,6.183-3.383,8.85-5.85
		c1.667-1.533,4.083-2.1,7.25-1.7c1.601,0.2,3.017,0.55,4.25,1.05C40,7.417,39.134,8.733,38,10.1c-2.233,2.767-4.65,4.5-7.25,5.2
		c-2.567,0.7-5.083,0.467-7.55-0.7L20.25,12.65z"/>
	<path style="fill-rule:evenodd;clip-rule:evenodd;fill:#CCC869;" d="M17.95,15.8c-1.1-0.033-2.25-0.233-3.45-0.6
		c-2.367-0.733-3.717-1.867-4.05-3.4c-0.367-1.533-0.083-3.95,0.85-7.25c0.434-1.667,0.917-3.183,1.45-4.55l2.2,1.7
		c1.533,1.4,2.367,2.716,2.5,3.95c0.033,0.434-0.017,2.333-0.15,5.7C17.2,13.817,17.417,15.3,17.95,15.8z"/>
	<g>
		<g>
			<g>
				<path style="fill-rule:evenodd;clip-rule:evenodd;fill:#A5BA7E;" d="M21.35,12.85l3.4-0.85c2.6-0.7,4.617-1.35,6.05-1.95
					c1.133-0.533,3.066-1.483,5.8-2.85c2.167-1,3.301-1.284,3.4-0.85c-0.167-0.4-1.35,0.05-3.55,1.35
					c-3.134,1.833-4.883,2.833-5.25,3c-1.067,0.566-3.017,1.1-5.85,1.6C22.683,12.767,21.35,12.95,21.35,12.85z"/>
			</g>
		</g>
	</g>
	<g>
		<g>
			<g>
				<path style="fill-rule:evenodd;clip-rule:evenodd;fill:#A5BA7E;" d="M28.95,11.15c-0.2-0.967-0.2-1.783,0-2.45
					c0.133-0.4,0.35-0.883,0.65-1.45c0.138-0.248,0.263-0.464,0.375-0.65c-0.064,0.142-0.173,0.409-0.325,0.8
					c-0.267,0.6-0.433,1.05-0.5,1.35C28.983,9.183,28.917,9.983,28.95,11.15z"/>
			</g>
		</g>
	</g>
	<g>
		<g>
			<g>
				<path style="fill-rule:evenodd;clip-rule:evenodd;fill:#A5BA7E;" d="M30.25,10.85c0.033,0,0.95,0.233,2.75,0.7
					c0.7,0.167,1.634,0.15,2.8-0.05c-1.366,0.333-2.3,0.433-2.8,0.3c-0.333-0.033-0.883-0.2-1.65-0.5
					C30.617,11.033,30.25,10.883,30.25,10.85z"/>
			</g>
		</g>
	</g>
	<g>
		<g>
			<g>
				<path style="fill-rule:evenodd;clip-rule:evenodd;fill:#A5BA7E;" d="M32.95,9.65c0,0.033,0.283,0.1,0.85,0.2
					c0.601,0.1,1.117,0.167,1.55,0.2c0.434,0.034,0.95,0.034,1.551,0c0.321-0.019,0.554-0.035,0.699-0.05
					c-1.06,0.229-1.81,0.313-2.25,0.25c-0.3,0.033-0.783-0.05-1.449-0.25C33.267,9.833,32.95,9.717,32.95,9.65z"/>
			</g>
		</g>
	</g>
	<g>
		<g>
			<g>
				<path style="fill-rule:evenodd;clip-rule:evenodd;fill:#A5BA7E;" d="M15,8.25c-0.167,1.9,0,3.433,0.5,4.6
					c0.233,0.633,0.65,1.2,1.25,1.7c0.3,0.233,0.533,0.417,0.7,0.55l-0.65-0.4c-0.6-0.367-1.066-0.817-1.4-1.35
					c-0.833-1.1-1.183-2.783-1.05-5.05c0.367-1.433,0.333-3.133-0.1-5.1c-0.433-1.867-0.817-2.733-1.15-2.6
					c0.4-0.233,0.9,0.717,1.5,2.85S15.333,7.183,15,8.25z"/>
			</g>
		</g>
	</g>
	<g>
		<g>
			<g>
				<path style="fill-rule:evenodd;clip-rule:evenodd;fill:#A5BA7E;" d="M14.95,7.9l1.2-1.25c0.267-0.333,0.517-0.85,0.75-1.55
					c-0.2,0.833-0.417,1.367-0.65,1.6c-0.1,0.2-0.333,0.45-0.7,0.75C15.183,7.75,14.983,7.9,14.95,7.9z"/>
			</g>
		</g>
	</g>
	<g>
		<g>
			<g>
				<path style="fill-rule:evenodd;clip-rule:evenodd;fill:#A5BA7E;" d="M14.6,11.3c-0.8-0.033-1.467-0.1-2-0.2
					c-1.3-0.7-1.883-1.05-1.75-1.05l1.75,0.9L14.6,11.3z"/>
			</g>
		</g>
	</g>
	<g>
		<g>
			<g>
				<path style="fill-rule:evenodd;clip-rule:evenodd;fill:#A5BA7E;" d="M12,8.8c0.367,0.333,0.667,0.534,0.9,0.6
					c0.2,0.1,0.55,0.233,1.05,0.4c0.245,0.07,0.429,0.121,0.55,0.15c-0.667-0.05-1.217-0.184-1.65-0.4
					c-0.3-0.133-0.617-0.4-0.95-0.8l-0.125-0.175C11.833,8.642,11.908,8.717,12,8.8z"/>
			</g>
		</g>
	</g>
	<g>
		<g>
			<path style="fill-rule:evenodd;clip-rule:evenodd;fill:#CCC869;" d="M17.45,23.6c-0.034-0.8,0.233-1.45,0.8-1.95
				c0.533-0.533,1.067-0.7,1.6-0.5c0.066,0.633-0.15,1.184-0.65,1.65C18.7,23.233,18.117,23.5,17.45,23.6z"/>
		</g>
	</g>
	<g>
		<g>
			<path style="fill-rule:evenodd;clip-rule:evenodd;fill:#CCC869;" d="M18.75,29.55c-0.867,0.667-1.817,0.917-2.85,0.75
				c-0.667-0.1-1.2-0.367-1.6-0.8c-0.367-0.4-0.483-0.6-0.35-0.6l0.65-0.4c0.566-0.267,1.133-0.35,1.7-0.25
				C17.267,28.383,18.083,28.817,18.75,29.55z"/>
		</g>
	</g>
	<g>
		<g>
			<path style="fill-rule:evenodd;clip-rule:evenodd;fill:#CCC869;" d="M22.35,30.8c-0.1-0.767,0.083-1.45,0.55-2.05
				c0.3-0.4,0.667-0.65,1.1-0.75c0.2-0.033,0.367-0.033,0.5,0c0.167,0.633,0.033,1.217-0.4,1.75
				C23.633,30.283,23.05,30.633,22.35,30.8z"/>
		</g>
	</g>
	<g>
		<g>
			<path style="fill-rule:evenodd;clip-rule:evenodd;fill:#CCC869;" d="M23.95,34.35c-0.6,0.633-1.3,0.933-2.1,0.9
				c-0.533-0.033-0.967-0.183-1.3-0.45l-0.35-0.4c0.1-0.133,0.25-0.267,0.45-0.4c0.4-0.267,0.833-0.4,1.3-0.4
				C22.683,33.633,23.35,33.883,23.95,34.35z"/>
		</g>
	</g>
	<g>
		<g>
			<path style="fill-rule:evenodd;clip-rule:evenodd;fill:#CCC869;" d="M28.55,35.6c-0.066-0.367,0.034-0.7,0.3-1
				c0.133-0.2,0.3-0.317,0.5-0.35c0.1-0.033,0.183-0.033,0.25,0v0.3c0,0.2-0.067,0.383-0.2,0.55
				C29.167,35.367,28.883,35.533,28.55,35.6z"/>
		</g>
	</g>
	<g>
		<g>
			<path style="fill-rule:evenodd;clip-rule:evenodd;fill:#CCC869;" d="M16.1,23.55c-0.434,0.333-0.934,0.4-1.5,0.2
				c-0.333-0.133-0.567-0.333-0.7-0.6l-0.15-0.35l0.4-0.1c0.3-0.067,0.583-0.05,0.85,0.05C15.433,22.883,15.8,23.15,16.1,23.55z"/>
		</g>
	</g>
</g>
</svg>
