<?xml version="1.0" encoding="iso-8859-1"?>
<!-- Generator: Adobe Illustrator 15.1.0, SVG Export Plug-In . SVG Version: 6.00 Build 0)  -->
<!DOCTYPE svg PUBLIC "-//W3C//DTD SVG 1.1//EN" "http://www.w3.org/Graphics/SVG/1.1/DTD/svg11.dtd">
<svg version="1.1" id="buildings_1" xmlns="http://www.w3.org/2000/svg" xmlns:xlink="http://www.w3.org/1999/xlink" x="0px"
	 y="0px" width="55.5px" height="95.45px" viewBox="0 0 55.5 95.45" style="enable-background:new 0 0 55.5 95.45;"
	 xml:space="preserve">
<g>
	<path style="fill-rule:evenodd;clip-rule:evenodd;fill:#A2BDA2;" d="M31.5,24.6c3.033-2.6,5.134-4.75,6.3-6.45
		c1.7-2.4,2.434-4.967,2.2-7.7c-0.4-5-4.517-8.083-12.35-9.25C23.717,0.633,19.833,0.55,16,0.95c4.667-1.034,9.333-1.233,14-0.6
		c9.333,1.2,14,5.9,14,14.1c0,2.867-2.05,6.383-6.15,10.55c-5.866,5.933-9.416,9.85-10.649,11.75c2.033-1.567,4.017-2.5,5.95-2.8
		c1.866-0.267,3.017,0.233,3.449,1.5c0.2,0.633,0.217,1.3,0.051,2c0.033-0.4-0.034-0.817-0.2-1.25
		c-0.367-0.867-1.066-1.333-2.101-1.4c-1.533-0.1-3.383,0.7-5.55,2.4c-2.533,2.033-4.2,4.533-5,7.5c-0.533,2.8-0.466,5.717,0.2,8.75
		c1.867,8.533,7.684,17.934,17.45,28.2c4.866,5.133,9.55,9.399,14.05,12.8c-4.8-2.5-8.9-3.334-12.3-2.5
		c-1.066,0.267-2,0.684-2.8,1.25c-0.4,0.267-0.7,0.517-0.9,0.75c-0.167-0.5-0.483-1-0.95-1.5c-0.899-1-2.083-1.5-3.55-1.5
		s-3.066,0.75-4.8,2.25c-0.867,0.767-1.601,1.517-2.2,2.25c-0.5-0.5-1.167-1.066-2-1.7c-1.667-1.233-3.333-2.167-5-2.8
		c-1.667-0.634-4.5-0.15-8.5,1.45c-2,0.8-3.833,1.649-5.5,2.55c2.1-2.233,4.067-4.834,5.9-7.8c3.667-5.934,4.867-10.667,3.6-14.2
		c-1.1-3.101-1.833-5.316-2.2-6.65c-0.733-2.6-1.167-5.05-1.3-7.35c-1.433-5.134-3.317-8.134-5.65-9
		c-2.033-0.767-3.867-0.667-5.5,0.3c-0.8,0.5-1.417,1.066-1.85,1.7C0.267,51.25,0.767,50.6,1.5,50c1.433-1.267,3.267-1.733,5.5-1.4
		c2.433,0.4,4.467,2.25,6.1,5.551c0.433-4.134,1.733-8.534,3.9-13.2c1.533-3.267,3.767-6.4,6.7-9.4
		C24.933,30.25,27.533,27.933,31.5,24.6z"/>
	<g>
		<path style="fill-rule:evenodd;clip-rule:evenodd;fill:#89AA8B;" d="M37.4,20.2l-2.9,2.85c-0.033,0.034-1.717,1.467-5.05,4.3
			c-2.967,2.5-4.917,4.316-5.85,5.45c-3.3,3.934-5.533,7.45-6.7,10.55c-0.867,2.3-1.433,4.433-1.7,6.4
			c-0.367,2.533-0.383,5.35-0.05,8.45c0.3,2.8,0.833,5.983,1.6,9.55c0.433,2.066,1.15,5.333,2.15,9.8
			c0.467,2.134,0.233,4.65-0.7,7.55c-0.667,2.067-1.633,4.167-2.9,6.301c-2.7,0.8-5.466,1.983-8.3,3.55
			c2.1-2.233,4.067-4.834,5.9-7.8c3.667-5.934,4.867-10.667,3.6-14.2c-1.1-3.101-1.833-5.316-2.2-6.65
			c-0.733-2.6-1.167-5.05-1.3-7.35c-1.433-5.134-3.317-8.134-5.65-9c-2.1-0.8-4.033-0.634-5.8,0.5c2.7-2.134,5.35-1.983,7.95,0.45
			c1.333,1.233,2.383,2.666,3.15,4.3l0.45-1.05c0.433-4.134,1.733-8.534,3.9-13.2c1.533-3.267,3.767-6.4,6.7-9.4
			c1.233-1.3,3.833-3.617,7.8-6.95c3.033-2.6,5.134-4.75,6.3-6.45c1.7-2.4,2.434-4.967,2.2-7.7c-0.3-3.434-2.366-5.967-6.2-7.6
			c-2.833-1.2-6.467-1.883-10.9-2.05c7.466,0.034,12.633,1.45,15.5,4.25c1.833,1.767,2.833,4.45,3,8.05
			c0.133,2.867-1.434,6.083-4.7,9.65c-4.634,4.467-8.316,8.15-11.05,11.05c-3.7,3.934-5.816,8.383-6.35,13.35
			c-0.4,3.5,0.05,8.433,1.35,14.8c1.033,5,2.934,9.717,5.7,14.149c2.367,3.834,5.2,7.233,8.5,10.2c3.101,2.733,4.733,5.2,4.9,7.4
			l-0.25,0.25c-0.167-0.5-0.483-1-0.95-1.5c-0.899-1-2.083-1.5-3.55-1.5s-3.066,0.75-4.8,2.25c-0.867,0.767-1.601,1.517-2.2,2.25
			c0-2.4-0.316-5.167-0.95-8.3c-0.733-3.7-1.75-7.017-3.05-9.95c-1.567-3.5-2.933-7.25-4.1-11.25c-1.333-4.566-2.133-8.65-2.4-12.25
			c-0.267-3.533-0.017-6.717,0.75-9.55c0.633-2.267,1.683-4.533,3.15-6.8c1.2-1.8,3.017-3.967,5.45-6.5
			c2.1-2.2,4.016-4.033,5.75-5.5C34.533,23.683,36.134,21.967,37.4,20.2z"/>
		<path style="fill-rule:evenodd;clip-rule:evenodd;fill:#89AA8B;" d="M39.75,85.85c-0.634,0-0.717,0.65-0.25,1.95
			c0.233,0.634,0.533,1.267,0.9,1.9c-4-4.334-7.75-9.117-11.25-14.351c-2.3-3.466-4.134-7.399-5.5-11.8
			c-0.967-3.066-1.6-5.934-1.9-8.6c-0.251-2.17-0.068-5.245,0.55-9.225c-0.208,1.717-0.225,3.508-0.05,5.375
			c0.2,2.134,0.6,4.067,1.2,5.801c0.6,1.733,2,5,4.2,9.8c1.8,4.033,5.116,8.649,9.949,13.85c2.4,2.634,4.617,4.851,6.65,6.65
			C42.25,86.3,40.75,85.85,39.75,85.85z"/>
		<path style="fill-rule:evenodd;clip-rule:evenodd;fill:#6B8B6F;" d="M16.9,43.35c1.167-3.1,3.4-6.617,6.7-10.55
			c0.933-1.133,2.883-2.95,5.85-5.45c3.333-2.833,5.017-4.267,5.05-4.3l2.9-2.85c-1.267,1.767-2.867,3.483-4.801,5.15
			c-1.733,1.467-3.649,3.3-5.75,5.5c-2.434,2.533-4.25,4.7-5.45,6.5c-1.467,2.267-2.517,4.533-3.15,6.8
			c-0.767,2.833-1.017,6.017-0.75,9.55c0.267,3.6,1.067,7.684,2.4,12.25c1.167,4,2.533,7.75,4.1,11.25
			c1.3,2.934,2.317,6.25,3.05,9.95c0.634,3.133,0.95,5.899,0.95,8.3c-0.5-0.5-1.167-1.066-2-1.7c-1.667-1.233-3.333-2.167-5-2.8
			c-1.267-0.434-3.167-0.283-5.7,0.45c1.267-2.134,2.233-4.233,2.9-6.301c0.933-2.899,1.167-5.416,0.7-7.55
			c-1-4.467-1.717-7.733-2.15-9.8c-0.767-3.566-1.3-6.75-1.6-9.55c-0.333-3.101-0.316-5.917,0.05-8.45
			C15.467,47.783,16.033,45.65,16.9,43.35z"/>
		<path style="fill-rule:evenodd;clip-rule:evenodd;fill:#89AA8B;" d="M33.35,34.55c1.467-0.367,2.467,0.017,3,1.15
			c0.193,0.441,0.294,0.917,0.301,1.425c-0.012-0.298-0.078-0.607-0.2-0.925c-0.367-0.867-1.066-1.333-2.101-1.4
			c-1.533-0.1-3.383,0.7-5.55,2.4c-2.533,2.033-4.2,4.533-5,7.5l-0.15,0.9v-0.25c0.2-2.467,1.417-4.833,3.65-7.1
			C29.333,36.217,31.35,34.983,33.35,34.55z"/>
		<path style="fill-rule:evenodd;clip-rule:evenodd;fill:#C2D6C1;" d="M43.25,15.7c-0.233,1.167-1.033,2.25-2.4,3.25l1-2.1
			c0.301-0.733,0.45-1.617,0.45-2.65c0-0.934-0.149-2.4-0.45-4.4C41.616,8.2,41,6.767,40,5.5l-1.4-1.4
			c2.167,1.2,3.617,3.267,4.351,6.2C43.45,12.367,43.55,14.167,43.25,15.7z"/>
	</g>
</g>
</svg>
