<?xml version="1.0" encoding="iso-8859-1"?>
<!-- Generator: Adobe Illustrator 15.1.0, SVG Export Plug-In . SVG Version: 6.00 Build 0)  -->
<!DOCTYPE svg PUBLIC "-//W3C//DTD SVG 1.1//EN" "http://www.w3.org/Graphics/SVG/1.1/DTD/svg11.dtd">
<svg version="1.1" id="buildings_1" xmlns="http://www.w3.org/2000/svg" xmlns:xlink="http://www.w3.org/1999/xlink" x="0px"
	 y="0px" width="65.75px" height="76.25px" viewBox="0 0 65.75 76.25" style="enable-background:new 0 0 65.75 76.25;"
	 xml:space="preserve">
<g>
	<g>
		<path style="fill-rule:evenodd;clip-rule:evenodd;fill:#A2BDA2;" d="M60.1,21.1c-0.866-1.833-1.983-2.934-3.35-3.3
			c2.366,0.534,3.816,1.633,4.35,3.3c0.267,0.833,0.45,2.1,0.551,3.8c0.399-1.267,0.683-2.483,0.85-3.65
			c0.934-6.033-0.45-11.383-4.15-16.05c-1.166-1.467-2.483-2.767-3.949-3.9L52.5,0l2.15,1.05c1.699,1,3.25,2.167,4.649,3.5
			c4.5,4.333,6.65,9.733,6.45,16.2c-0.167,5.833-1.5,10.767-4,14.8c-1.866,3-4.667,5.851-8.4,8.55c2.7-1,4.617-1.616,5.75-1.85
			c1.367-0.267,2.367,0.517,3,2.35c0.287,0.892,0.453,1.8,0.5,2.726c-0.054-0.658-0.237-1.3-0.55-1.925
			c-0.633-1.367-1.684-2.017-3.149-1.95c-1.134,0.033-3.617,1.149-7.45,3.35c-1.834,1-4.783,2.75-8.851,5.25
			c-5.166,4.7-7.366,8.767-6.6,12.2c0.533,2.4,1.65,4.616,3.35,6.65c0.867,1.033,1.667,1.816,2.4,2.35
			c-1.134-0.5-2.366-0.95-3.7-1.35c-2.733-0.801-4.666-0.934-5.8-0.4c-1.133,0.533-2.15,1.233-3.05,2.1
			c-0.434,0.434-0.75,0.817-0.95,1.15c-0.533-0.467-1.167-0.917-1.9-1.35c-1.467-0.867-2.667-1.25-3.6-1.15s-1.967,0.667-3.1,1.7
			c-0.566,0.533-1.033,1.05-1.4,1.55c-0.4-0.667-0.933-1.316-1.6-1.95c-1.3-1.3-2.517-1.899-3.65-1.8s-2.517,0.884-4.15,2.35
			c-0.8,0.733-1.5,1.45-2.1,2.15c-0.033-1.333-0.35-2.566-0.95-3.7c-1.167-2.3-3.1-2.983-5.8-2.05c2.5-2.9,5.65-6.066,9.45-9.5
			c7.633-6.833,14.733-11.5,21.3-14c7.866-2.967,13.467-5.35,16.8-7.15c5.434-2.933,9.351-6.266,11.75-10
			C60.634,25.817,60.9,22.9,60.1,21.1z"/>
	</g>
	<g>
		<path style="fill-rule:evenodd;clip-rule:evenodd;fill:#89AA8B;" d="M60.1,21.1c-0.866-1.833-1.983-2.934-3.35-3.3
			c2.366,0.534,3.816,1.633,4.35,3.3c0.267,0.833,0.45,2.1,0.551,3.8c0.399-1.267,0.683-2.483,0.85-3.65
			C63.6,14.217,61.55,8.133,56.35,3c4.733,4.233,7.367,9.033,7.9,14.4c0.434,4.167-0.4,8.517-2.5,13.05
			C59.15,36.083,49.934,42.8,34.1,50.6c-3.266,1.601-5.516,3.667-6.75,6.2c-1.067,2.233-1.434,5-1.1,8.3
			c0.3,2.7,0.917,5.884,1.85,9.551c-2.3-1.733-4.083-2.534-5.35-2.4c-0.933,0.1-1.967,0.667-3.1,1.7
			c-0.566,0.533-1.033,1.05-1.4,1.55c0.3-2.267,0.717-4.733,1.25-7.4c1.067-5.366,2.217-9.066,3.45-11.1
			c1.233-2,4.7-4.517,10.399-7.55c2.967-1.566,6.467-3.3,10.5-5.2c1.601-0.9,3.551-2.134,5.851-3.7c2.399-1.6,4.149-2.867,5.25-3.8
			c1.5-1.233,2.383-2.267,2.649-3.1c-0.966,0.967-2.149,2.017-3.55,3.15c-2.8,2.334-5.25,3.983-7.35,4.95
			c-5.467,2.233-10.084,4.184-13.851,5.85C25.683,50.733,21.1,53.333,19.1,55.4c-2.6,2.633-5.2,6.116-7.8,10.449
			c-2.767,4.534-4.283,8-4.55,10.4c-0.033-1.333-0.35-2.566-0.95-3.7c-1.167-2.3-3.1-2.983-5.8-2.05c2.5-2.9,5.65-6.066,9.45-9.5
			c7.633-6.833,14.733-11.5,21.3-14c7.866-2.967,13.467-5.35,16.8-7.15c5.434-2.933,9.351-6.266,11.75-10
			C60.634,25.817,60.9,22.9,60.1,21.1z"/>
		<path style="fill-rule:evenodd;clip-rule:evenodd;fill:#89AA8B;" d="M43.25,47.95c4.566-2.233,9.184-5.066,13.85-8.5
			c-3.233,3.1-5.85,5.267-7.85,6.5c-4.066,2.434-6.583,3.983-7.55,4.649c-3.733,2.534-6.167,4.75-7.3,6.65
			c-1.101,1.866-1.434,4.434-1,7.7c0.233,1.633,0.566,3.066,1,4.3c-0.867-1.2-1.75-1.8-2.65-1.8c-0.567,0-1.217,0.783-1.95,2.35
			c-0.333,0.767-0.633,1.533-0.9,2.3c-0.1-0.666-0.15-1.616-0.15-2.85c0-2.5,0.283-5.217,0.85-8.15
			c0.6-3.166,2.183-5.816,4.75-7.949C36.05,51.717,39.017,49.983,43.25,47.95z"/>
		<path style="fill-rule:evenodd;clip-rule:evenodd;fill:#6B8B6F;" d="M46.7,41.75c2.1-0.967,4.55-2.616,7.35-4.95
			c1.4-1.133,2.584-2.183,3.55-3.15c-0.267,0.833-1.149,1.867-2.649,3.1c-1.101,0.933-2.851,2.2-5.25,3.8
			c-2.3,1.566-4.25,2.8-5.851,3.7c-4.033,1.9-7.533,3.634-10.5,5.2C27.65,52.483,24.183,55,22.95,57
			c-1.233,2.033-2.383,5.733-3.45,11.1c-0.533,2.667-0.95,5.134-1.25,7.4c-0.4-0.667-0.933-1.316-1.6-1.95
			c-1.3-1.3-2.517-1.899-3.65-1.8s-2.517,0.884-4.15,2.35c-0.8,0.733-1.5,1.45-2.1,2.15c0.267-2.4,1.783-5.866,4.55-10.4
			c2.6-4.333,5.2-7.816,7.8-10.449c2-2.067,6.583-4.667,13.75-7.801C36.616,45.934,41.233,43.983,46.7,41.75z"/>
		<path style="fill-rule:evenodd;clip-rule:evenodd;fill:#C2D6C1;" d="M64.1,13.45c-0.399-1.633-1.449-3.633-3.149-6l-2.45-3
			c1.6,1.367,2.983,3,4.15,4.9c1.1,1.7,1.833,3.316,2.199,4.85c0.334,1.5,0.534,3.3,0.601,5.4c0.066,2.3-0.084,4.217-0.45,5.75
			c-0.5,2.167-1.533,4.3-3.1,6.4c1-1.833,1.816-4.017,2.449-6.55C65.184,21.667,65.1,17.75,64.1,13.45z"/>
	</g>
</g>
</svg>
