<?xml version="1.0" encoding="iso-8859-1"?>
<!-- Generator: Adobe Illustrator 15.1.0, SVG Export Plug-In . SVG Version: 6.00 Build 0)  -->
<!DOCTYPE svg PUBLIC "-//W3C//DTD SVG 1.1//EN" "http://www.w3.org/Graphics/SVG/1.1/DTD/svg11.dtd">
<svg version="1.1" id="buildings_1" xmlns="http://www.w3.org/2000/svg" xmlns:xlink="http://www.w3.org/1999/xlink" x="0px"
	 y="0px" width="46.35px" height="71.3px" viewBox="0 0 46.35 71.3" style="enable-background:new 0 0 46.35 71.3;"
	 xml:space="preserve">
<g>
	<path style="fill-rule:evenodd;clip-rule:evenodd;fill:#A2BDA2;" d="M24,17.65c-0.5-1.933-1.517-3.133-3.05-3.6
		c-0.9-0.267-2.5-0.316-4.8-0.15c-2.3,0.167-4.017,0.083-5.15-0.25c-1.767-0.6-3.1-1.933-4-4C5.933,7.083,6.617,4.7,9.05,2.5
		C10.25,1.433,11.567,0.6,13,0c-1.267,0.9-2.367,1.933-3.3,3.1C7.8,5.5,7.683,7.467,9.35,9c0.867,0.8,1.95,1.217,3.25,1.25
		c0.4,0.033,1.683-0.067,3.85-0.3c3.7-0.4,6.883,0.5,9.55,2.7c3.934,3.233,5.95,9.983,6.05,20.25c0.033,2.733,0,6.683-0.1,11.85
		c0,4.233,0.35,7.316,1.05,9.25c1.4,3.866,4.05,7.467,7.95,10.8c1.934,1.667,3.733,2.95,5.399,3.851
		c-1.066-0.4-2.216-0.784-3.449-1.15c-2.467-0.733-4.101-1.017-4.9-0.85c-1.366,0.267-2.333,0.899-2.9,1.899
		C34.833,69.083,34.7,69.566,34.7,70c-0.434-0.566-1.033-1.116-1.8-1.65c-1.5-1.133-3.017-1.699-4.551-1.699
		c-1.533,0-3.383,0.783-5.55,2.35c-1.066,0.767-2,1.533-2.8,2.3c-0.167-0.6-0.467-1.267-0.9-2c-0.9-1.434-2.033-2.434-3.4-3
		c-1.4-0.533-4.434-0.366-9.1,0.5c-2.333,0.467-4.533,0.967-6.6,1.5c2.167-1,4.517-2.217,7.05-3.649c5.067-2.9,8.5-5.45,10.3-7.65
		c1.3-1.6,2.583-4.767,3.85-9.5c1.233-4.566,2.166-9.4,2.8-14.5c-1.6-6-3.233-9-4.9-9c-1.3,0-2.367,0.5-3.2,1.5
		c-0.4,0.5-0.667,1-0.8,1.5c-0.067-0.7,0.066-1.4,0.4-2.1c0.633-1.4,1.883-2.1,3.75-2.1c1.967,0,3.75,0.833,5.35,2.5
		C24.7,22.1,24.5,19.55,24,17.65z"/>
	<path style="fill-rule:evenodd;clip-rule:evenodd;fill:#89AA8B;" d="M30.05,30.05c0.167,7.5,0.084,13.834-0.25,19
		c-0.2,3.233,0.4,6.417,1.8,9.55c0.733,1.567,1.467,2.801,2.2,3.7c-0.366-0.233-0.8-0.649-1.3-1.25c-1-1.166-1.816-2.583-2.45-4.25
		c-1.066-2.866-1.399-7.95-1-15.25c0.101-1.866,0.3-4.35,0.601-7.45L30.05,30.05z"/>
	<g>
		<path style="fill-rule:evenodd;clip-rule:evenodd;fill:#89AA8B;" d="M26.7,22.05c-0.2-2.367-0.75-4.333-1.65-5.9
			c-0.899-1.533-2.017-2.533-3.35-3c-1.1-0.367-2.784-0.417-5.05-0.15l-3.05,0.5l3.2-0.15c2.267-0.033,3.733,0.066,4.4,0.3
			c1,0.367,1.75,0.867,2.25,1.5c0.733,0.9,1.267,2.283,1.6,4.15c0.5,2.8,0.684,6.717,0.55,11.75L22.7,27.3l1.3,2.75
			c0.866,1.934,1.316,3.217,1.35,3.85c0.067,0.833-0.399,3.683-1.399,8.55c-1.067,5.233-2.15,9.8-3.25,13.7
			c-1.067,3.666-4.417,7.017-10.05,10.05C7.483,66.533,3.933,67.233,0,68.3c2.167-1,4.517-2.217,7.05-3.649
			c5.067-2.9,8.5-5.45,10.3-7.65c1.3-1.6,2.583-4.767,3.85-9.5c1.233-4.566,2.166-9.4,2.8-14.5c-1.6-6-3.233-9-4.9-9
			c-1.3,0-2.367,0.5-3.2,1.5c-0.4,0.5-0.667,1-0.8,1.5c0.133-0.867,0.467-1.6,1-2.2c0.667-0.733,1.583-1.167,2.75-1.3
			c1.1-0.133,2.383,0.55,3.85,2.05c0.733,0.767,1.35,1.55,1.85,2.35l0.05-2.6c0.101-3.2-0.1-5.75-0.6-7.65
			c-0.5-1.933-1.517-3.133-3.05-3.6c-0.9-0.267-2.5-0.316-4.8-0.15c-2.3,0.167-4.017,0.083-5.15-0.25c-1.767-0.6-3.1-1.933-4-4
			C5.933,7.083,6.617,4.7,9.05,2.5C10.25,1.433,11.567,0.6,13,0C9.4,2.367,7.55,4.6,7.45,6.7c-0.067,1.233,0.633,2.683,2.1,4.35
			c0.833,0.934,2.167,1.383,4,1.35c1.133-0.033,3.217-0.15,6.25-0.35c4.733,0,7.483,4.833,8.25,14.5
			c0.167,2.1-0.017,7.717-0.55,16.851c-0.4,7.433-0.134,12.483,0.8,15.149c1.467,4.167,3.55,7.934,6.25,11.3
			c-1.8-1.966-3.717-3.033-5.75-3.199c-1.7-3.867-2.684-7.9-2.95-12.101c-0.066-1.434,0.101-6.833,0.5-16.2
			C26.717,29.217,26.833,23.783,26.7,22.05z"/>
		<path style="fill-rule:evenodd;clip-rule:evenodd;fill:#6B8B6F;" d="M25.05,16.15c0.9,1.567,1.45,3.533,1.65,5.9
			c0.133,1.733,0.017,7.167-0.351,16.3c-0.399,9.367-0.566,14.767-0.5,16.2c0.267,4.2,1.25,8.233,2.95,12.101h-0.45
			c-1.533,0-3.383,0.783-5.55,2.35c-1.066,0.767-2,1.533-2.8,2.3c-0.167-0.6-0.467-1.267-0.9-2c-0.9-1.434-2.033-2.434-3.4-3
			c-0.934-0.366-2.617-0.399-5.05-0.1c5.633-3.033,8.983-6.384,10.05-10.05c1.1-3.9,2.183-8.467,3.25-13.7
			c1-4.867,1.467-7.717,1.399-8.55c-0.033-0.633-0.483-1.917-1.35-3.85l-1.3-2.75l2.899,3.75c0.134-5.033-0.05-8.95-0.55-11.75
			c-0.333-1.867-0.866-3.25-1.6-4.15c-0.5-0.633-1.25-1.133-2.25-1.5c-0.667-0.233-2.133-0.333-4.4-0.3l-3.2,0.15l3.05-0.5
			c2.267-0.267,3.95-0.217,5.05,0.15C23.033,13.617,24.15,14.617,25.05,16.15z"/>
	</g>
	<path style="fill-rule:evenodd;clip-rule:evenodd;fill:#C2D6C1;" d="M25.1,12.45c2.2,1.633,3.684,3.7,4.45,6.2l1,3.1
		c-0.267-0.367-0.55-0.717-0.85-1.05c-0.566-0.667-0.867-0.85-0.9-0.55c-0.1,0.434-0.184,1.05-0.25,1.85
		c0-2.833-0.45-5.067-1.35-6.7c-0.634-1.2-1.717-2.216-3.25-3.05c-1.534-0.8-3.333-1.333-5.4-1.6l2.15,0.05
		C22.4,10.933,23.866,11.517,25.1,12.45z"/>
</g>
</svg>
