<?xml version="1.0" encoding="iso-8859-1"?>
<!-- Generator: Adobe Illustrator 15.1.0, SVG Export Plug-In . SVG Version: 6.00 Build 0)  -->
<!DOCTYPE svg PUBLIC "-//W3C//DTD SVG 1.1//EN" "http://www.w3.org/Graphics/SVG/1.1/DTD/svg11.dtd">
<svg version="1.1" id="buildings_1" xmlns="http://www.w3.org/2000/svg" xmlns:xlink="http://www.w3.org/1999/xlink" x="0px"
	 y="0px" width="109px" height="183.75px" viewBox="0 0 109 183.75" style="enable-background:new 0 0 109 183.75;"
	 xml:space="preserve">
<g>
	<path style="fill-rule:evenodd;clip-rule:evenodd;fill:#66926C;" d="M46.4,12c2.367-0.233,4.4-0.267,6.1-0.1
		c-2.033,0.033-4.267,0.217-6.7,0.55c-4.833,0.7-8.216,1.85-10.15,3.45c-2.467,2.1-4.45,5.017-5.95,8.75
		c-1.667,4.167-2.517,8.967-2.55,14.4c-0.033,4.8,1.067,9.367,3.3,13.7c1.1,2.133,2.216,3.8,3.35,5l-5.3-0.7
		c-0.5-1.367-1.033-3.117-1.6-5.25c-1.1-4.233-1.733-8.2-1.9-11.9c-0.233-4.5,0.3-8.85,1.6-13.05c1.667-5.367,4.3-9.133,7.9-11.3
		C37.7,13.617,41.667,12.433,46.4,12z"/>
	<g>
		<path style="fill-rule:evenodd;clip-rule:evenodd;fill:#CCC869;" d="M51.6,12.3l3.3,0.2c2.633,0.067,5.066-0.117,7.3-0.55
			c2.2-0.434,4.55,0.35,7.05,2.35c1.267,1,2.3,2.034,3.1,3.1c-1.166,0.733-2.6,1.4-4.3,2c-3.366,1.2-6.333,1.417-8.899,0.65
			c-2.534-0.733-4.551-2.25-6.05-4.55L51.6,12.3z"/>
		<g>
			<g>
				<g>
					<path style="fill-rule:evenodd;clip-rule:evenodd;fill:#A5BA7E;" d="M52.45,13l3.35,1.1c2.566,0.767,4.634,1.267,6.2,1.5
						c4.167,0.4,6.3,0.6,6.4,0.6c2.366,0.3,3.466,0.65,3.3,1.05c0.066-0.433-1.184-0.667-3.75-0.7c-3.566-0.066-5.566-0.133-6-0.2
						c-1.2-0.067-3.15-0.633-5.851-1.7C53.6,13.617,52.383,13.067,52.45,13z"/>
				</g>
			</g>
		</g>
		<g>
			<g>
				<g>
					<path style="fill-rule:evenodd;clip-rule:evenodd;fill:#A5BA7E;" d="M54.4,14l1.3,2.5c0.366,0.667,1.066,1.283,2.1,1.85
						c-1.267-0.6-2.017-1.167-2.25-1.7L54.4,14z"/>
				</g>
			</g>
		</g>
		<g>
			<g>
				<g>
					<path style="fill-rule:evenodd;clip-rule:evenodd;fill:#A5BA7E;" d="M58.1,15.1l0.301,0.75c0.267,0.533,0.5,0.95,0.699,1.25
						c0.334,0.5,0.917,0.983,1.75,1.45c-1-0.5-1.616-0.933-1.85-1.3c-0.2-0.2-0.417-0.617-0.65-1.25
						C58.15,15.4,58.066,15.1,58.1,15.1z"/>
				</g>
			</g>
		</g>
		<g>
			<g>
				<g>
					<path style="fill-rule:evenodd;clip-rule:evenodd;fill:#A5BA7E;" d="M61.1,16l1.9,2c0.533,0.533,1.35,1.017,2.45,1.45
						c-1.334-0.434-2.184-0.85-2.55-1.25c-0.267-0.233-0.65-0.667-1.15-1.3C61.283,16.3,61.066,16,61.1,16z"/>
				</g>
			</g>
		</g>
		<g>
			<g>
				<g>
					<path style="fill-rule:evenodd;clip-rule:evenodd;fill:#A5BA7E;" d="M64,16.4c-0.033,0,0.167,0.2,0.6,0.6
						c0.467,0.433,0.867,0.75,1.2,0.95c0.5,0.4,1.217,0.8,2.15,1.2c-1.134-0.367-1.867-0.7-2.2-1c-0.3-0.167-0.684-0.5-1.15-1
						C64.167,16.683,63.967,16.433,64,16.4z"/>
				</g>
			</g>
		</g>
	</g>
	<g>
		<path style="fill-rule:evenodd;clip-rule:evenodd;fill:#CCC869;" d="M40.65,10.45c-2,1.4-3.066,2.466-3.2,3.2
			c-0.633-0.933-1.15-1.983-1.55-3.15c-0.867-2.3-0.783-4.05,0.25-5.25s3.15-2.433,6.35-3.7C44.1,0.917,45.6,0.4,47,0
			c0.1,0.833,0.1,1.767,0,2.8c-0.2,2.034-0.767,3.483-1.7,4.35C44.967,7.483,43.417,8.583,40.65,10.45z"/>
		<g>
			<g>
				<g>
					<path style="fill-rule:evenodd;clip-rule:evenodd;fill:#A5BA7E;" d="M41.75,6.7c-1.667,1.1-2.8,2.167-3.4,3.2
						c-0.367,0.6-0.567,1.283-0.6,2.05c0,0.367,0,0.667,0,0.9L37.7,12.1c-0.1-0.7-0.034-1.367,0.2-2
						c0.367-1.3,1.517-2.583,3.45-3.85c1.333-0.567,2.667-1.617,4-3.15c1.2-1.434,1.65-2.25,1.35-2.45
						c0.433,0.2-0.017,1.167-1.35,2.9C43.983,5.283,42.783,6.333,41.75,6.7z"/>
				</g>
			</g>
		</g>
		<g>
			<g>
				<g>
					<path style="fill-rule:evenodd;clip-rule:evenodd;fill:#A5BA7E;" d="M42,6.5l1.7,0.2c0.466,0.033,1.033-0.083,1.7-0.35
						c-0.767,0.367-1.333,0.533-1.7,0.5c-0.2,0-0.534-0.05-1-0.15C42.233,6.6,42,6.533,42,6.5z"/>
				</g>
			</g>
		</g>
		<g>
			<g>
				<g>
					<path style="fill-rule:evenodd;clip-rule:evenodd;fill:#A5BA7E;" d="M38.1,9.75c-0.667-0.2-1.184-0.467-1.55-0.8
						c-0.233-0.2-0.45-0.5-0.65-0.9c-0.019-0.041-0.035-0.083-0.05-0.125c0.028,0.057,0.062,0.115,0.1,0.175
						c0.267,0.4,0.5,0.65,0.7,0.75C36.883,9.083,37.367,9.383,38.1,9.75z"/>
				</g>
			</g>
		</g>
		<g>
			<g>
				<g>
					<path style="fill-rule:evenodd;clip-rule:evenodd;fill:#A5BA7E;" d="M40.15,7.5c-0.4-0.633-0.65-1.2-0.75-1.7
						c-0.066-0.3-0.05-0.7,0.05-1.2l0.15-0.5c-0.016,0.117-0.032,0.3-0.05,0.55c-0.066,0.5-0.066,0.867,0,1.1
						C39.617,6.083,39.817,6.667,40.15,7.5z"/>
				</g>
			</g>
		</g>
	</g>
	<g>
		<g>
			<path style="fill-rule:evenodd;clip-rule:evenodd;fill:#CCC869;" d="M34.55,17.25l0.6-0.35c0.467-0.2,0.934-0.267,1.4-0.2
				c0.767,0.133,1.233,0.466,1.4,1c-0.467,0.433-1.034,0.583-1.7,0.45c-0.4-0.066-0.8-0.233-1.2-0.5L34.55,17.25z"/>
		</g>
	</g>
	<g>
		<g>
			<path style="fill-rule:evenodd;clip-rule:evenodd;fill:#CCC869;" d="M29.2,21.05c-1.034-0.3-1.8-0.917-2.3-1.85
				c-0.3-0.567-0.4-1.133-0.3-1.7l0.25-0.7l0.75,0.3c0.533,0.267,0.933,0.667,1.2,1.2C29.267,19.133,29.4,20.05,29.2,21.05z"/>
		</g>
	</g>
	<g>
		<g>
			<path style="fill-rule:evenodd;clip-rule:evenodd;fill:#CCC869;" d="M29.8,24.8l0.55-0.45c0.5-0.3,0.983-0.434,1.45-0.4
				c0.8,0.033,1.317,0.316,1.55,0.85c-0.4,0.5-0.967,0.733-1.7,0.7c-0.433-0.033-0.867-0.15-1.3-0.35L29.8,24.8z"/>
		</g>
	</g>
	<g>
		<g>
			<path style="fill-rule:evenodd;clip-rule:evenodd;fill:#CCC869;" d="M31.55,21.1l0.25-0.2c0.233-0.133,0.467-0.2,0.7-0.2
				c0.4,0.033,0.65,0.167,0.75,0.4c-0.233,0.267-0.5,0.383-0.8,0.35c-0.2,0-0.417-0.05-0.65-0.15L31.55,21.1z"/>
		</g>
	</g>
	<g>
		<g>
			<path style="fill-rule:evenodd;clip-rule:evenodd;fill:#CCC869;" d="M31.85,17.6c-0.533-0.167-0.883-0.533-1.05-1.1
				c-0.1-0.367-0.083-0.683,0.05-0.95l0.2-0.3l0.35,0.25c0.233,0.2,0.383,0.45,0.45,0.75C31.983,16.65,31.983,17.1,31.85,17.6z"/>
		</g>
	</g>
	<g>
		<path style="fill-rule:evenodd;clip-rule:evenodd;fill:#A2BDA2;" d="M92.05,85.2c3.9,2.2,7.55,4.933,10.95,8.2
			c-3.333-2.167-6.8-4.034-10.4-5.601c-7.233-3.167-11.55-3.3-12.949-0.4c-1.267,2.667-1.75,8.683-1.45,18.05
			c1.1,4.5,2,9.833,2.7,16c0.399,3.467,0.916,8.399,1.55,14.8c1.333,10.733,4.184,18.233,8.55,22.5c2.7,2.634,6.517,5.75,11.45,9.35
			c2.467,1.834,4.649,3.384,6.55,4.65c-2.267-0.9-4.767-1.566-7.5-2c-5.467-0.9-9.3-0.233-11.5,2c-1.833,1.833-2.316,4-1.45,6.5
			c0.469,1.344,1.186,2.568,2.15,3.675c-1.499-1.618-3.349-3.193-5.55-4.725c-3.934-2.767-7.483-4.084-10.65-3.95
			c-3.333,0.134-7.167,1.75-11.5,4.85c-2.167,1.567-4,3.117-5.5,4.65c1.1-1.233,1.833-2.6,2.2-4.1c0.767-2.967-0.634-5.101-4.2-6.4
			c-3.067-1.134-7.567-0.967-13.5,0.5l-8,2.5c2.4-1.4,5.217-3.566,8.45-6.5c6.5-5.833,11.899-12.5,16.2-20
			c1.6-2.767,2.983-6.066,4.149-9.9c-1.2-7.733-2.649-14.216-4.35-19.449c-2.733-8.4-5.784-12.4-9.15-12
			c-2.633,0.3-4.483,1.233-5.55,2.8c-0.767,1.1-1.267,2.883-1.5,5.35c-0.333,3.467-0.6,5.601-0.8,6.4c-0.6,2.5-1.75,4.517-3.45,6.05
			c-2.6,2.333-5.283,3.45-8.05,3.35c-1.967-0.066-3.867-0.733-5.7-2c2.433,1.367,5.567,1.267,9.4-0.3c1.833-0.733,3-2.267,3.5-4.6
			c0.133-0.7,0.317-3.15,0.55-7.351c0.4-7.066,3.167-11.633,8.3-13.699c4.567-1.834,8.767-1.034,12.6,2.399
			c2.567,2.334,4.801,5.634,6.7,9.9c-0.434-6.9-1.85-13.25-4.25-19.05c-2.6-6.333-6.184-11.534-10.75-15.601
			C37.467,70.617,28.867,61.767,24.5,55.5c-7.4-10.633-8.683-20-3.85-28.1c4.6-7.633,2.533-13.433-6.2-17.4
			C10.083,8.033,5.267,6.833,0,6.4c3.667-0.066,7.467,0.317,11.4,1.15c7.9,1.667,12.533,4.733,13.9,9.2
			c1.233,3.9,1.217,7.983-0.05,12.25c-1.433,4.733-1.967,8.317-1.6,10.75c0.567,3.6,1.8,6.733,3.7,9.4
			c0.933,1.333,1.816,2.3,2.65,2.9c-1.333-2.367-2.15-5.3-2.45-8.8c-0.633-7,1.617-13.283,6.75-18.85
			c5.133-5.566,11.883-6.217,20.25-1.95c4.167,2.167,7.816,4.867,10.95,8.1c-3.4-2.733-7.134-4.983-11.2-6.75
			c-8.133-3.5-13.8-2.75-17,2.25c-3.7,5.8-5.267,11.45-4.7,16.95c0.533,5.033,2.883,10.167,7.05,15.4
			c1.434,1.8,3.783,4.05,7.05,6.75c1.9,1.6,5.017,4.167,9.35,7.7c8.434,7.133,14.417,14.133,17.95,21c0.566-2.733,1.333-5.1,2.3-7.1
			C78.934,81.35,84.184,80.833,92.05,85.2z"/>
	</g>
	<g>
		<path style="fill-rule:evenodd;clip-rule:evenodd;fill:#89AA8B;" d="M40,68c-2.9-2.7-6.567-6.267-11-10.7l-5.75-5.8l5.55,7.2
			c4.2,5.233,7.6,9,10.2,11.3c7.067,6.233,10.8,9.55,11.2,9.95c5,4.9,8.517,9.417,10.55,13.55c1.333,2.767,2.783,7.467,4.35,14.1
			c0.767,3.334,1.4,6.384,1.9,9.15c-0.167-2.967-0.483-6.267-0.95-9.9c-0.967-7.3-2.233-12.666-3.8-16.1
			c-1.566-3.433-4.866-7.45-9.9-12.05C46.45,73.733,42.333,70.167,40,68z M20.65,27.4c3.267-5.433,3.1-9.983-0.5-13.65
			c-2.6-2.6-6.767-4.6-12.5-6c7.434,1.633,12.3,3.8,14.6,6.5c2.333,2.733,3.183,5.45,2.55,8.15c-0.367,1.533-1.216,3.567-2.55,6.1
			c-1.233,3.7-1.9,6.6-2,8.7c-0.233,4.633,1.1,8.983,4,13.05c1.767,2.467,8.25,8.45,19.45,17.95C54.2,77.133,60.8,84.067,63.5,89
			c3.033,5.533,4.733,13.733,5.1,24.6c0.2,5.434,0.084,10.317-0.35,14.65c-0.4-2.233-1.384-6.083-2.95-11.55
			c-0.434-6.9-1.85-13.25-4.25-19.05c-2.6-6.333-6.184-11.534-10.75-15.601C37.467,70.617,28.867,61.767,24.5,55.5
			C17.1,44.867,15.817,35.5,20.65,27.4z"/>
		<path style="fill-rule:evenodd;clip-rule:evenodd;fill:#89AA8B;" d="M58.45,120.4c-2.733-8.4-5.784-12.4-9.15-12
			c-2.633,0.3-4.483,1.233-5.55,2.8c-0.767,1.1-1.267,2.883-1.5,5.35c-0.333,3.467-0.6,5.601-0.8,6.4c-0.6,2.5-1.75,4.517-3.45,6.05
			c-2.6,2.333-5.283,3.45-8.05,3.35c-1.967-0.066-3.867-0.733-5.7-2c0.233,0.134,0.7,0.334,1.4,0.601
			c1.667,0.8,3.783,1.066,6.35,0.8c2-0.233,3.883-1.634,5.65-4.2c1.633-2.366,2.583-4.717,2.85-7.05
			c0.067-2.5,0.283-4.517,0.65-6.05c0.633-2.767,2-4.834,4.1-6.2c2.467-1.6,5.05-1.816,7.75-0.65c2.634,1.134,4.967,3.351,7,6.65
			c1.566,2.566,3.45,8.467,5.65,17.7c2.233,9.399,3.433,14.25,3.6,14.55c0.533,0.934,1.517-1.667,2.95-7.8l2.05-9.45l0.55,14.85
			c0.767,10.7,2.084,18.084,3.95,22.15c2.6,5.667,6.25,10.9,10.95,15.7c-3.834-3.634-7.517-6-11.05-7.101
			c-2.067-3.6-3.667-9.566-4.801-17.899l-1.1-11.45l-2,14.25c-0.667-5.333-1.5-9.5-2.5-12.5L60,121l2.05,8.15
			c1.367,5.733,2.101,9.433,2.2,11.1c0.134,2.167-0.05,4.134-0.55,5.9c-0.634,2.1-1.95,4.8-3.95,8.1
			c-2.033,3.366-7.567,9.767-16.6,19.2c-2.066,0.467-4.217,1.066-6.45,1.8l-2.7,1c2.4-1.4,5.217-3.566,8.45-6.5
			c6.5-5.833,11.899-12.5,16.2-20c1.6-2.767,2.983-6.066,4.149-9.9C61.6,132.116,60.15,125.634,58.45,120.4z"/>
		<path style="fill-rule:evenodd;clip-rule:evenodd;fill:#89AA8B;" d="M83.25,84c3.866-0.167,9.65,2.483,17.35,7.95
			c-4.333-2.567-8.166-4.417-11.5-5.55c-5.166-1.733-8.316-1.4-9.449,1c-1.267,2.667-1.75,8.683-1.45,18.05
			c-1.033-4.7-1.316-9.101-0.851-13.2C77.983,86.85,79.95,84.1,83.25,84z"/>
		<path style="fill-rule:evenodd;clip-rule:evenodd;fill:#89AA8B;" d="M78.55,128.65l-0.8-14.4l1.25,14.1
			c1.1,10.367,2.267,18,3.5,22.9c1.267,4.9,3.233,8.95,5.9,12.15c1.333,1.6,2.533,2.716,3.6,3.35c-2.2-0.4-3.684,0.233-4.45,1.9
			c-0.399,0.833-0.583,1.699-0.55,2.6c-0.833-1.5-1.733-3.45-2.7-5.85c-1.899-4.834-3.166-9.551-3.8-14.15
			C79.866,146.684,79.217,139.15,78.55,128.65z"/>
		<path style="fill-rule:evenodd;clip-rule:evenodd;fill:#89AA8B;" d="M48.45,20.2l0.05,0.05c-1.467-0.2-3.117-0.117-4.95,0.25
			c-3.733,0.767-6.583,2.6-8.55,5.5c-5.033,7.433-6.7,14.183-5,20.25c0.733,2.6,1.667,4.917,2.8,6.95c0.567,1.033,1.05,1.8,1.45,2.3
			c-1.5-0.733-2.917-1.883-4.25-3.45c-1.333-2.367-2.15-5.3-2.45-8.8c-0.633-7,1.617-13.283,6.75-18.85
			C38.133,20.3,42.85,18.9,48.45,20.2z"/>
		<path style="fill-rule:evenodd;clip-rule:evenodd;fill:#6B8B6F;" d="M63.7,146.15c0.5-1.767,0.684-3.733,0.55-5.9
			c-0.1-1.667-0.833-5.366-2.2-11.1L60,121l8.25,26.25c1,3,1.833,7.167,2.5,12.5l2-14.25l1.1,11.45
			c1.134,8.333,2.733,14.3,4.801,17.899c-1.367-0.466-2.75-0.666-4.15-0.6c-3.333,0.134-7.167,1.75-11.5,4.85
			c-2.167,1.567-4,3.117-5.5,4.65c1.1-1.233,1.833-2.6,2.2-4.1c0.767-2.967-0.634-5.101-4.2-6.4c-2.8-1.033-6.917-0.967-12.35,0.2
			c9.033-9.434,14.567-15.834,16.6-19.2C61.75,150.95,63.066,148.25,63.7,146.15z"/>
		<path style="fill-rule:evenodd;clip-rule:evenodd;fill:#6B8B6F;" d="M39,70c-2.6-2.3-6-6.067-10.2-11.3l-5.55-7.2L29,57.3
			c4.433,4.434,8.1,8,11,10.7c2.333,2.167,6.45,5.733,12.35,10.7c5.034,4.6,8.333,8.617,9.9,12.05c1.566,3.434,2.833,8.8,3.8,16.1
			c0.467,3.634,0.783,6.934,0.95,9.9c-0.5-2.767-1.134-5.816-1.9-9.15c-1.566-6.633-3.017-11.333-4.35-14.1
			c-2.033-4.133-5.55-8.65-10.55-13.55C49.8,79.55,46.067,76.233,39,70z"/>
		<path style="fill-rule:evenodd;clip-rule:evenodd;fill:#C2D6C1;" d="M52.75,105.5c5,1.267,8.384,4.233,10.15,8.9
			c0.866,2.333,1.233,4.533,1.1,6.6c-1.333-4-2.5-7-3.5-9c-0.634-1.233-2.116-2.684-4.45-4.35L52.75,105.5z"/>
		<path style="fill-rule:evenodd;clip-rule:evenodd;fill:#C2D6C1;" d="M51,71.5l9.7,8.5c6.733,6.6,10.666,12.184,11.8,16.75
			c1.134,4.6,1.9,8.434,2.3,11.5c0.167,1.533,0.233,2.616,0.2,3.25l-1-0.1c-0.733,0.533-1.316,2.316-1.75,5.35
			c-0.134-2.866-0.417-6.1-0.85-9.7c-0.934-7.166-2.233-12.517-3.9-16.05s-4.917-7.85-9.75-12.95L51,71.5z"/>
	</g>
</g>
</svg>
