<?xml version="1.0" encoding="iso-8859-1"?>
<!-- Generator: Adobe Illustrator 15.1.0, SVG Export Plug-In . SVG Version: 6.00 Build 0)  -->
<!DOCTYPE svg PUBLIC "-//W3C//DTD SVG 1.1//EN" "http://www.w3.org/Graphics/SVG/1.1/DTD/svg11.dtd">
<svg version="1.1" id="buildings_1" xmlns="http://www.w3.org/2000/svg" xmlns:xlink="http://www.w3.org/1999/xlink" x="0px"
	 y="0px" width="179.1px" height="63.5px" viewBox="0 0 179.1 63.5" style="enable-background:new 0 0 179.1 63.5;"
	 xml:space="preserve">
<g>
	<path style="fill-rule:evenodd;clip-rule:evenodd;fill:#A2BDA2;" d="M166.3,20.95c1.101-0.7,2.684-1.95,4.75-3.75
		c1.834-1.3,3.467-1.717,4.9-1.25c1.467,0.466,2.434,1.75,2.899,3.85c0.233,1.067,0.317,2.067,0.25,3
		c-0.133-1.033-0.416-2.05-0.85-3.05c-0.833-2-1.934-2.933-3.3-2.8c-1.334,0.133-2.7,0.917-4.101,2.35
		c-2.066,2.1-3.25,3.267-3.55,3.5c-1,0.667-2.483,1.284-4.45,1.85c6.301,3.333,10.784,7.184,13.45,11.55
		c3.134,5.133,3.134,10.133,0,15c-5.833,9.133-14.217,13.184-25.149,12.149c-3.5-0.333-7.934-1.3-13.301-2.899
		c-6.566-1.934-10.433-3.017-11.6-3.25c-5.634-1.134-11.033-0.517-16.2,1.85c-1.128,0.518-2.195,1.101-3.2,1.75L111,57.65
		c5.767-3.434,11.35-5,16.75-4.7c2.033,0.133,8.15,1.233,18.35,3.3c6.9,1.434,12.551,1.417,16.95-0.05c4.5-1.5,7.434-4.601,8.8-9.3
		c1.434-4.9,0.167-8.801-3.8-11.7c-4.666-3.4-9.767-5.75-15.3-7.05c-6.333-1.5-11.233-0.983-14.7,1.55
		c-4.399,4.1-7.85,7.149-10.35,9.149c-4.434,3.567-9.667,5.851-15.7,6.851c-8.833,1.434-17.217,0.566-25.15-2.601
		C82.05,41.2,76.1,37.65,69,32.45c-4.833-3.534-9.45-5.15-13.85-4.85c-4.033,0.233-6.667,1.85-7.9,4.85
		c-0.933,2.3,1.783,5.149,8.15,8.55c3.2,1.733,6.483,3.217,9.85,4.45c-2.3-0.4-4.75-0.75-7.35-1.05
		c-5.2-0.601-8.583-0.584-10.15,0.05c-1.567,0.633-2.867,1.45-3.9,2.45c-0.533,0.5-0.9,0.933-1.1,1.3
		c-0.533-0.8-1.267-1.617-2.2-2.45c-1.833-1.667-3.683-2.6-5.55-2.8s-4.55,0.399-8.05,1.8l-4.7,2.2c0.167-0.834,0.1-1.684-0.2-2.55
		c-0.566-1.767-2-2.75-4.3-2.95C14.083,41.116,8.167,41.7,0,43.2c2.667-1.134,5.483-2.467,8.45-4c5.9-3.066,9.583-5.65,11.05-7.75
		c2.833-5.7,5.7-10.633,8.6-14.8C33.6,8.717,40.15,3.4,47.75,0.7c4.133-1.467,8.8-0.667,14,2.4c3.767,2.233,8.45,6.15,14.05,11.75
		c3.5,2.267,6.767,3.35,9.8,3.25c3.4-0.067,4.583-1.367,3.55-3.9l-2.55-3.75l2.25,2c1.466,1.6,2.167,3.05,2.1,4.35
		c-0.066,1.633-0.934,2.967-2.6,4c-1.633,1-3.467,1.417-5.5,1.25c3.967,4,7.117,6.917,9.45,8.75c3.267,2.533,6.084,3.917,8.45,4.15
		c5.333,0.566,11.967-1.45,19.9-6.05c2.133-1.233,5.316-3.083,9.55-5.55c3.666-1.967,6.95-3.267,9.85-3.9
		c2.033-0.434,4.5-0.45,7.4-0.05c2.866,0.4,5.85,1.184,8.95,2.35C161.2,22.383,164.5,22.117,166.3,20.95z"/>
	<g>
		<path style="fill-rule:evenodd;clip-rule:evenodd;fill:#89AA8B;" d="M47.1,8.15c1.9-0.467,3.733-1.033,5.5-1.7
			c-1.567,0.733-3.267,1.667-5.1,2.8c-3.667,2.233-6.183,4.35-7.55,6.35c-1.733,2.533-2.917,5.433-3.55,8.7
			c-0.633,3.467-0.517,6.85,0.35,10.15c1.067,3.8,2.817,8.066,5.25,12.8c-2.233-2.6-4.567-4.033-7-4.3
			c-0.633-0.066-1.533-0.017-2.7,0.149c-1-4.1-1.733-7.816-2.2-11.149c-0.467-3.6,0.2-7.867,2-12.8c0.9-2.467,1.85-4.583,2.85-6.35
			c-0.4,0.3-0.917,0.784-1.55,1.45c-1.267,1.367-2.417,2.983-3.45,4.85c-0.5,0.933-1.7,3.45-3.6,7.55
			c-1.6,3.467-3.133,6.35-4.6,8.65c-1.2,1.9-3.133,3.934-5.8,6.101c-4,0-9.317,0.6-15.95,1.8c2.667-1.134,5.483-2.467,8.45-4
			c5.9-3.066,9.583-5.65,11.05-7.75c2.333-4.467,4.55-8.4,6.65-11.8c4-6.467,8.533-11.417,13.6-14.85c0,1.3,0.233,2.35,0.7,3.15
			C41.083,8.983,43.3,9.05,47.1,8.15z"/>
		<path style="fill-rule:evenodd;clip-rule:evenodd;fill:#89AA8B;" d="M169.6,33.45c1.5,1.8,2.5,3.85,3,6.149
			c0.434,2.067,0.384,3.733-0.149,5l-0.2,0.301c0.233-1.867,0.017-3.601-0.65-5.2c-0.699-1.767-1.883-3.267-3.55-4.5
			c-4.666-3.4-9.767-5.75-15.3-7.05c-6.333-1.5-11.233-0.983-14.7,1.55c-4.399,4.1-7.85,7.149-10.35,9.149
			c-4.434,3.567-9.667,5.851-15.7,6.851c-8.833,1.434-17.217,0.566-25.15-2.601C82.05,41.2,76.1,37.65,69,32.45
			c-3.433-2.5-6.85-4.05-10.25-4.65c-3.033-0.533-5.65-0.233-7.85,0.9c2.434-2.567,5.95-3.934,10.55-4.1
			c4.233-0.133,8.533,1.05,12.9,3.55c2.6,1.5,6.8,4.216,12.6,8.15c4.7,2.834,9.45,4.634,14.25,5.4c4.566,0.7,8.866,0.45,12.899-0.75
			c3.767-1.134,8.65-4.05,14.65-8.75c5.533-4.367,10.05-6.833,13.55-7.4c5.7-0.966,11.45-0.283,17.25,2.05
			C164.184,28.717,167.533,30.917,169.6,33.45z M163.35,30.8c2.101,1,3.967,1.934,5.601,2.8c-1.667-1.1-3.601-2.25-5.8-3.45
			c-4.4-2.433-7.917-3.883-10.551-4.35c-2.966-0.566-5.949-0.6-8.949-0.1c-2.634,0.4-4.867,1.15-6.7,2.25
			c-0.967,0.566-3.533,2.483-7.7,5.75c-4.3,3.333-7.566,5.7-9.8,7.1c-2.9,1.767-6.45,2.816-10.65,3.15
			c-3.6,0.267-7.383-0.017-11.35-0.851c-3.233-0.666-6.917-2.149-11.05-4.449c-2.767-1.567-6.316-3.851-10.65-6.851
			c-2.767-1.966-6.183-3.383-10.25-4.25l-5.25-0.75c3.733,1,8.067,3,13,6c1.833,1.134,5.4,3.566,10.7,7.3
			c2.5,1.767,6.066,3.101,10.7,4c2.933,0.567,7.199,1.067,12.8,1.5c3.666,0.301,7.233-0.333,10.7-1.899
			c1.899-0.867,4.05-2.233,6.449-4.101c0.967-0.699,3.584-2.783,7.851-6.25c4.133-3.2,6.916-5.116,8.35-5.75
			c1.767-0.733,3.65-1.15,5.65-1.25c2.033-0.067,4.416,0.183,7.149,0.75C155.9,27.6,159.15,28.833,163.35,30.8z"/>
		<path style="fill-rule:evenodd;clip-rule:evenodd;fill:#89AA8B;" d="M162.3,61.45c2.634-0.767,5.084-2.084,7.351-3.95
			c1.166-0.934,2.05-1.783,2.649-2.55c-4.133,2.899-7.467,4.733-10,5.5c-2.333,0.7-4.217,1.149-5.649,1.35
			c-2.067,0.3-4.184,0.3-6.351,0c-1.666-0.233-5.267-1.25-10.8-3.05c-5.667-1.833-9.3-2.884-10.9-3.15
			c-2.066-0.333-4.383-0.316-6.949,0.051l-2,0.399c1.122-0.164,2.389-0.197,3.8-0.1c1.3,0.133,3.066,0.416,5.3,0.85
			c1.2,0.233,4.583,1.134,10.15,2.7c5.833,1.634,9.517,2.616,11.05,2.95c2.3,0.5,4.149,0.684,5.55,0.55
			C156.833,62.9,159.1,62.384,162.3,61.45z M176.5,48.65c0.6-0.9,1.3-2.717,2.1-5.45c0.101,2.733-0.666,5.399-2.3,8
			c-5.833,9.133-14.217,13.184-25.149,12.149c-3.5-0.333-7.934-1.3-13.301-2.899c-6.566-1.934-10.433-3.017-11.6-3.25
			c-3.9-0.8-7.733-0.733-11.5,0.2c-2.7,0.666-5.25,1.75-7.65,3.25c5.601-3.767,11.101-5.784,16.5-6.051
			c3.7-0.166,9.101,0.867,16.2,3.101c7.066,2.233,12,3.267,14.8,3.1c4.434-0.267,8.067-0.983,10.9-2.149
			c2.866-1.2,5.3-3.051,7.3-5.551C174.134,51.467,175.366,49.983,176.5,48.65z"/>
		<path style="fill-rule:evenodd;clip-rule:evenodd;fill:#6B8B6F;" d="M34.95,12.8c-1,1.767-1.95,3.883-2.85,6.35
			c-1.8,4.934-2.467,9.2-2,12.8c0.467,3.333,1.2,7.05,2.2,11.149c-1.867,0.334-4.1,1.084-6.7,2.25l-3.35,1.601
			c0.167-0.834,0.1-1.684-0.2-2.55c-0.566-1.767-2-2.75-4.3-2.95l-1.8-0.05c2.667-2.167,4.6-4.2,5.8-6.101
			c1.467-2.3,3-5.183,4.6-8.65c1.9-4.1,3.1-6.617,3.6-7.55c1.033-1.867,2.183-3.483,3.45-4.85C34.033,13.583,34.55,13.1,34.95,12.8z
			"/>
		<path style="fill-rule:evenodd;clip-rule:evenodd;fill:#6B8B6F;" d="M163.15,30.15c2.199,1.2,4.133,2.35,5.8,3.45
			c-1.634-0.866-3.5-1.8-5.601-2.8c-4.199-1.966-7.449-3.2-9.75-3.7c-2.733-0.567-5.116-0.817-7.149-0.75
			c-2,0.1-3.884,0.517-5.65,1.25c-1.434,0.633-4.217,2.55-8.35,5.75c-4.267,3.467-6.884,5.551-7.851,6.25
			c-2.399,1.867-4.55,3.233-6.449,4.101c-3.467,1.566-7.034,2.2-10.7,1.899c-5.601-0.433-9.867-0.933-12.8-1.5
			c-4.634-0.899-8.2-2.233-10.7-4c-5.3-3.733-8.867-6.166-10.7-7.3c-4.933-3-9.267-5-13-6l5.25,0.75
			c4.067,0.867,7.483,2.284,10.25,4.25c4.333,3,7.883,5.283,10.65,6.851c4.133,2.3,7.817,3.783,11.05,4.449
			c3.967,0.834,7.75,1.117,11.35,0.851c4.2-0.334,7.75-1.384,10.65-3.15c2.233-1.399,5.5-3.767,9.8-7.1
			c4.167-3.267,6.733-5.184,7.7-5.75c1.833-1.1,4.066-1.85,6.7-2.25c3-0.5,5.983-0.467,8.949,0.1
			C155.233,26.267,158.75,27.717,163.15,30.15z"/>
		<path style="fill-rule:evenodd;clip-rule:evenodd;fill:#89AA8B;" d="M172.45,48.8c1.3-2.166,1.883-4.566,1.75-7.2l-0.601-3.3
			l1.301,2.55c0.833,1.967,1.066,3.717,0.699,5.25c-0.433,1.9-1.216,3.601-2.35,5.101c-1.2,1.6-3.134,3.399-5.8,5.399
			c-2.3,1.767-5.733,2.684-10.3,2.75l-6.2-0.399h3.35c2.634-0.101,4.967-0.316,7-0.65c2.267-0.399,4.316-1.434,6.15-3.1
			C169.017,53.8,170.684,51.667,172.45,48.8z"/>
		<path style="fill-rule:evenodd;clip-rule:evenodd;fill:#89AA8B;" d="M138.8,22.3c2.2-0.633,4.167-0.9,5.9-0.8
			c0.866,0.033,1.5,0.133,1.899,0.3c-0.699-0.066-1.649-0.033-2.85,0.1c-2.333,0.233-4.65,0.8-6.95,1.7
			c-1.467,0.566-4.967,2.783-10.5,6.65c-5.434,3.767-9.883,6.283-13.35,7.55c-3.267,1.167-6.167,1.9-8.7,2.2l-2.8,0.1l5.649-2
			c-3.333,0.334-6.216,0.067-8.649-0.8c-1.167-0.399-3.134-1.666-5.9-3.8l-3.8-3.05l2.65,1.95c2,1.433,3.616,2.5,4.85,3.199
			c1.434,0.801,2.983,1.284,4.65,1.45c1.399,0.101,3.583,0.017,6.55-0.25c4-0.366,8.934-2.434,14.8-6.2
			C129.417,26.167,134.934,23.4,138.8,22.3z"/>
		<path style="fill-rule:evenodd;clip-rule:evenodd;fill:#6B8B6F;" d="M162.3,60.45c2.533-0.767,5.867-2.601,10-5.5
			c-0.6,0.767-1.483,1.616-2.649,2.55c-2.267,1.866-4.717,3.184-7.351,3.95c-3.2,0.934-5.467,1.45-6.8,1.55
			c-1.4,0.134-3.25-0.05-5.55-0.55c-1.533-0.334-5.217-1.316-11.05-2.95c-5.567-1.566-8.95-2.467-10.15-2.7
			c-2.233-0.434-4-0.717-5.3-0.85c-1.411-0.098-2.678-0.064-3.8,0.1l2-0.399c2.566-0.367,4.883-0.384,6.949-0.051
			c1.601,0.267,5.233,1.317,10.9,3.15c5.533,1.8,9.134,2.816,10.8,3.05c2.167,0.3,4.283,0.3,6.351,0
			C158.083,61.6,159.967,61.15,162.3,60.45z"/>
		<path style="fill-rule:evenodd;clip-rule:evenodd;fill:#89AA8B;" d="M85.6,18.1c3.4-0.067,4.583-1.367,3.55-3.9l-2.55-3.75
			l2.05,2.1c1.267,1.6,1.716,2.95,1.35,4.05c-0.833,2.533-2.75,3.533-5.75,3c-2.7-0.467-5.45-1.383-8.25-2.75
			c-0.733-0.367-1.45-0.8-2.15-1.3L73,14.95l1.8,0.85c1.333,0.467,2.233,0.483,2.7,0.05C80.4,17.383,83.1,18.133,85.6,18.1z"/>
		<path style="fill-rule:evenodd;clip-rule:evenodd;fill:#89AA8B;" d="M166.3,20.95c1.033-0.667,2.517-1.833,4.45-3.5
			c1.7-1.3,3.2-1.85,4.5-1.65l-0.2,0.05c-2,0.233-3.8,1.433-5.399,3.6c-1.367,1.833-3.9,2.966-7.601,3.4
			c-1.399,0.133-2.767,0-4.1-0.4l-1.55-0.7C161.2,22.383,164.5,22.117,166.3,20.95z"/>
		<path style="fill-rule:evenodd;clip-rule:evenodd;fill:#C2D6C1;" d="M66.25,11.95c-1.367-1.7-3.017-3.383-4.95-5.05
			c-3.833-3.333-7.1-4.9-9.8-4.7L52.9,2c1.5,0.1,3.7,0.667,6.6,1.7c2.933,1.033,5.567,2.716,7.9,5.05
			c1.167,1.167,2.033,2.233,2.6,3.2c-0.567-0.7-1.2-1.383-1.9-2.05c-1.367-1.267-2.35-1.7-2.95-1.3c-0.3,0.2-0.217,0.816,0.25,1.85
			C65.667,10.983,65.95,11.483,66.25,11.95z"/>
		<path style="fill-rule:evenodd;clip-rule:evenodd;fill:#C2D6C1;" d="M174.05,34.1c1,1.301,1.733,2.817,2.2,4.551
			c0.233,0.866,0.366,1.6,0.4,2.199c-1-2.166-2.45-4.55-4.351-7.149c-1.2-1.601-3.434-3.367-6.7-5.3l-4.55-2.45l4.55,1.55
			C169.033,29.1,171.85,31.3,174.05,34.1z"/>
	</g>
</g>
</svg>
