<?xml version="1.0" encoding="iso-8859-1"?>
<!-- Generator: Adobe Illustrator 15.1.0, SVG Export Plug-In . SVG Version: 6.00 Build 0)  -->
<!DOCTYPE svg PUBLIC "-//W3C//DTD SVG 1.1//EN" "http://www.w3.org/Graphics/SVG/1.1/DTD/svg11.dtd">
<svg version="1.1" id="vine_x5F_radio.ai" xmlns="http://www.w3.org/2000/svg" xmlns:xlink="http://www.w3.org/1999/xlink" x="0px"
	 y="0px" width="80.45px" height="104.25px" viewBox="0 0 80.45 104.25" style="enable-background:new 0 0 80.45 104.25;"
	 xml:space="preserve">
<g>
	<g>
		<path style="fill-rule:evenodd;clip-rule:evenodd;fill:#A2BDA2;" d="M33.95,11.9c-0.034-0.3-0.684-0.9-1.95-1.8
			c-1.3-0.967-2.117-2.133-2.45-3.5C29.183,5.133,29.667,3.6,31,2c0.667-0.8,1.367-1.467,2.1-2c-0.667,0.667-1.233,1.467-1.7,2.4
			c-0.967,1.934-1,3.633-0.1,5.1c0.7,1.1,1.8,2.133,3.3,3.1c0.967,0.6,1.3,1.25,1,1.95c-0.267,0.6-0.917,1.25-1.95,1.95
			c-0.833,0.567-1.2,1.167-1.1,1.8c0.067,0.6,0.85,1.267,2.35,2c1.5,0.733,2.283,1.383,2.35,1.95c0.1,0.733-0.217,1.733-0.95,3
			c-0.4,0.7-1.1,1.833-2.1,3.4c-0.967,1.767-1.7,3.867-2.2,6.3c-0.733,3.5-0.817,7.133-0.25,10.9c0.967,6.2,1.717,10.284,2.25,12.25
			c1.1,4.167,2.7,7.434,4.8,9.801C40.333,67.634,44.2,70.6,50.4,74.8c6.066,4.101,10.583,7.884,13.55,11.351
			c2.934,3.433,6.566,6.383,10.899,8.85c2.167,1.233,4.034,2.116,5.601,2.65c-8.233-0.9-13.733-1.567-16.5-2
			c-1.733-0.267-3.316,0.433-4.75,2.1c-0.733,0.833-1.283,1.684-1.65,2.55c-0.1-0.434-0.399-0.95-0.899-1.55
			c-0.934-1.167-2.334-2.134-4.2-2.9c-1.834-0.733-4.184-0.55-7.05,0.551L41.65,98.3c0.733-0.833,1.383-1.983,1.949-3.45
			c1.134-2.899,1.233-5.866,0.301-8.899c-0.634-2.101-2.817-5.217-6.55-9.351c-3.934-4.333-6.733-8.699-8.4-13.1l-0.15-0.25
			c-0.4-0.733-1.3-3.333-2.7-7.8c-1.233-4-2.184-6.317-2.85-6.95c-0.733-0.7-1.717-0.817-2.95-0.35l-1.65,0.9l1.6-1.2
			c1.267-0.667,2.417-0.684,3.45-0.05c0.867,0.534,1.667,1.5,2.4,2.9c-0.3-3.7-0.233-7.383,0.2-11.05
			c0.367-2.933,0.867-5.283,1.5-7.05c0.6-1.567,2.017-3.75,4.25-6.55c2.233-2.8,3.417-4.4,3.55-4.8c0.2-0.5-0.6-1.183-2.4-2.05
			c-1.934-0.9-2.85-1.934-2.75-3.1c0.033-0.633,0.667-1.4,1.9-2.3C33.483,12.967,34.017,12.333,33.95,11.9z"/>
		<g>
			<path style="fill-rule:evenodd;clip-rule:evenodd;fill:#89AA8B;" d="M33.95,11.9c-0.034-0.3-0.684-0.9-1.95-1.8
				c-1.3-0.967-2.117-2.133-2.45-3.5c-0.367-1.467,0.1-2.983,1.4-4.55l2-1.95L33.1,0c-0.934,0.933-1.517,1.567-1.75,1.9
				c-0.833,1.133-1.267,2.333-1.3,3.6c-0.066,1.267,0.434,2.433,1.5,3.5c0.434,0.433,1.267,1.05,2.5,1.85
				c1.067,0.733,1.267,1.483,0.6,2.25c-0.667,0.5-1.2,0.917-1.6,1.25c-0.733,0.667-1.066,1.383-1,2.15
				c0.034,0.667,0.717,1.4,2.05,2.2c1.5,0.867,2.35,1.5,2.55,1.9c0.267,0.533-0.467,1.867-2.2,4c-2.1,2.6-3.367,4.517-3.8,5.75
				c-2.167,6.2-1.917,14.533,0.75,25c1.5,5.934,3.8,10.851,6.9,14.75c1.367,1.7,3.733,3.95,7.101,6.75
				c0.533,0.467,3.166,2.551,7.899,6.25c3.566,2.834,5.684,4.634,6.351,5.4c0.833,0.967,4.816,3.684,11.949,8.15l-7.649-1
				c-1.733-0.267-3.316,0.433-4.75,2.1c-0.733,0.833-1.283,1.684-1.65,2.55c0.066-1.066,0-2.333-0.2-3.8
				c-0.399-2.9-1.25-5.283-2.55-7.15c-0.899-1.3-4.184-4.683-9.85-10.149c-5.3-5.134-8.35-8.5-9.15-10.101
				c-1.566-3.033-2.933-6.083-4.1-9.149c-1.667-4.334-2.633-7.983-2.9-10.95c-0.267-2.8-0.367-6.133-0.3-10l0.15-4.9l-0.7,4.5
				c-0.4,3.633-0.5,6.933-0.3,9.9c0.434,6.2,2.184,12.65,5.25,19.35c0.867,1.9,3.083,4.967,6.65,9.2
				c3.233,3.834,5.066,6.601,5.5,8.3c0.634,2.467,0.65,4.834,0.05,7.101c-0.6,2.3-1.75,4.25-3.449,5.85
				c0.733-0.833,1.383-1.983,1.949-3.45c1.134-2.899,1.233-5.866,0.301-8.899c-0.634-2.101-2.817-5.217-6.55-9.351
				c-3.934-4.333-6.733-8.699-8.4-13.1l-0.15-0.25c-0.4-0.733-1.3-3.333-2.7-7.8c-1.233-4-2.184-6.317-2.85-6.95
				c-0.733-0.7-1.717-0.817-2.95-0.35l-1.65,0.9c2.167-1.767,4.017-1.8,5.55-0.1c0.733,0.833,1.267,1.85,1.6,3.05l0.3-1.3
				c-0.3-3.7-0.233-7.383,0.2-11.05c0.367-2.933,0.867-5.283,1.5-7.05c0.6-1.567,2.017-3.75,4.25-6.55c2.233-2.8,3.417-4.4,3.55-4.8
				c0.2-0.5-0.6-1.183-2.4-2.05c-1.934-0.9-2.85-1.934-2.75-3.1c0.033-0.633,0.667-1.4,1.9-2.3
				C33.483,12.967,34.017,12.333,33.95,11.9z"/>
			<path style="fill-rule:evenodd;clip-rule:evenodd;fill:#6B8B6F;" d="M27.65,48.5c-0.2-2.967-0.1-6.267,0.3-9.9l0.7-4.5L28.5,39
				c-0.067,3.867,0.033,7.2,0.3,10c0.267,2.967,1.233,6.616,2.9,10.95c1.167,3.066,2.533,6.116,4.1,9.149
				c0.8,1.601,3.85,4.967,9.15,10.101c5.666,5.467,8.95,8.85,9.85,10.149c1.3,1.867,2.15,4.25,2.55,7.15
				c0.2,1.467,0.267,2.733,0.2,3.8c-0.1-0.434-0.399-0.95-0.899-1.55c-0.934-1.167-2.334-2.134-4.2-2.9
				c-1.834-0.733-4.184-0.55-7.05,0.551L41.65,98.3c1.699-1.6,2.85-3.55,3.449-5.85c0.601-2.267,0.584-4.634-0.05-7.101
				c-0.434-1.699-2.267-4.466-5.5-8.3c-3.566-4.233-5.783-7.3-6.65-9.2C29.833,61.15,28.083,54.7,27.65,48.5z"/>
			<polygon style="fill-rule:evenodd;clip-rule:evenodd;fill:#546A58;" points="34.1,55.6 36.25,61.85 35.35,62.1 31.5,61.35 
				30,54.75 31,54.1 31.1,51.25 29.5,50.25 27.85,33.1 			"/>
			<path style="fill-rule:evenodd;clip-rule:evenodd;fill:#546A58;" d="M38.6,65.25l1.05,1.1c1.034,0.967,2.35,2.134,3.95,3.5
				c2.534,2.134,4.334,3.467,5.4,4l-1.15,2c-0.866,1.567-1.533,2.95-2,4.15c-0.733,1.9-1.233,4.483-1.5,7.75
				c-0.333-1.167-0.666-2.134-1-2.9c-0.267-0.566-1-1.699-2.199-3.399c-1.234-1.767-2.284-3.134-3.15-4.101l-3.9-4.6
				c0.267-1.1,0.833-2.316,1.7-3.65L38.6,65.25z"/>
		</g>
	</g>
	<g>
		<polygon style="fill-rule:evenodd;clip-rule:evenodd;fill:#5B3231;" points="33.85,14.4 36.15,17.5 34.45,23.85 33.25,23.85 
			35.2,17.8 33.3,14.75 		"/>
		<polygon style="fill-rule:evenodd;clip-rule:evenodd;fill:#5B3231;" points="32.6,13.6 32.1,12.85 33.8,5 34.35,5.2 32.75,12.95 
			33,13.3 		"/>
		<path style="fill-rule:evenodd;clip-rule:evenodd;fill:#A5393E;" d="M33.7,3.85C34.5,3.817,34.933,4.1,35,4.7
			c0.1,0.633-0.167,0.983-0.8,1.05c-0.633,0.1-1.017-0.183-1.15-0.85C32.883,4.267,33.1,3.917,33.7,3.85z"/>
		
			<linearGradient id="SVGID_1_" gradientUnits="userSpaceOnUse" x1="18.6387" y1="48.4961" x2="22.2647" y2="48.4961" gradientTransform="matrix(0.9721 -0.2344 0.2344 0.9721 4.432350e-004 1.356006e-004)">
			<stop  offset="0" style="stop-color:#6D403C"/>
			<stop  offset="1" style="stop-color:#874643"/>
		</linearGradient>
		<polygon style="fill-rule:evenodd;clip-rule:evenodd;fill:url(#SVGID_1_);" points="27.3,29.3 28.15,29.05 27.75,27.5 26.6,27.6 
			25.65,25.75 30,23.15 44.4,48.25 35.2,60.9 32.2,60.15 31.15,54.75 31.9,54.5 31.65,50.15 30.5,50.25 		"/>
		
			<linearGradient id="SVGID_2_" gradientUnits="userSpaceOnUse" x1="30.5781" y1="43.6592" x2="54.2099" y2="43.6592" gradientTransform="matrix(0.9987 -0.0518 0.0518 0.9987 8.177012e-005 -1.639128e-004)">
			<stop  offset="0" style="stop-color:#95524C"/>
			<stop  offset="1" style="stop-color:#B58075"/>
		</linearGradient>
		<polygon style="fill-rule:evenodd;clip-rule:evenodd;fill:url(#SVGID_2_);" points="34.45,49.3 33.6,49.4 30.75,28.5 31.45,28.55 
			31.15,26.1 30.45,26.2 30,23.15 56.75,23 57.2,56.25 35.2,60.9 34.3,54.95 35.4,54.95 		"/>
		<g>
			<path style="fill-rule:evenodd;clip-rule:evenodd;fill:#5B3231;" d="M44.3,24.95c3.334,0,5.867,1,7.601,3
				c1.267,1.4,2.05,3.2,2.35,5.4c0.333,2.2,0.017,4.316-0.95,6.35c-1.3,2.7-3.517,4.25-6.649,4.65
				c-3.601,0.433-6.417-0.25-8.45-2.05c-2.034-1.8-2.983-4.45-2.85-7.95c0.133-3,1.183-5.383,3.15-7.15
				C40.2,25.7,42.134,24.95,44.3,24.95z"/>
			<path style="fill-rule:evenodd;clip-rule:evenodd;fill:#6D3A39;" d="M44.1,26.1c3-0.133,5.351,0.733,7.051,2.6
				c1.5,1.667,2.216,3.733,2.149,6.2c-0.033,2.467-0.816,4.517-2.35,6.15c-1.7,1.8-3.9,2.583-6.601,2.35
				c-2.699-0.233-4.716-1.25-6.05-3.05c-1.167-1.6-1.667-3.533-1.5-5.8c0.2-2.2,0.95-4.1,2.25-5.7
				C40.417,27.117,42.1,26.2,44.1,26.1z"/>
			<polygon style="fill-rule:evenodd;clip-rule:evenodd;fill:#4B2C2B;" points="51.95,30.35 52.45,38.4 51,28.65 			"/>
			<polygon style="fill-rule:evenodd;clip-rule:evenodd;fill:#4B2C2B;" points="38.1,30.45 39.05,40.5 37.5,32.45 			"/>
			<polygon style="fill-rule:evenodd;clip-rule:evenodd;fill:#4B2C2B;" points="39.2,29.2 39.7,28.3 41.05,42.25 			"/>
			<polygon style="fill-rule:evenodd;clip-rule:evenodd;fill:#4B2C2B;" points="48.95,27.3 50,27.95 51.05,40.25 			"/>
			<polygon style="fill-rule:evenodd;clip-rule:evenodd;fill:#4B2C2B;" points="40.95,27.35 41.85,27 42.85,42.8 			"/>
			<polygon style="fill-rule:evenodd;clip-rule:evenodd;fill:#4B2C2B;" points="46.95,26.65 47.7,26.85 49.15,41.7 			"/>
			<polygon style="fill-rule:evenodd;clip-rule:evenodd;fill:#4B2C2B;" points="45.05,26.5 46.05,26.6 47.75,42.7 			"/>
			<polygon style="fill-rule:evenodd;clip-rule:evenodd;fill:#4B2C2B;" points="42.9,26.8 44,26.5 45,43.05 			"/>
		</g>
		<polygon style="fill-rule:evenodd;clip-rule:evenodd;fill:#5B3231;" points="26.6,27.6 30.45,26.2 31.15,26.1 27.75,27.5 		"/>
		<polygon style="fill-rule:evenodd;clip-rule:evenodd;fill:#5B3231;" points="34.45,49.3 31.65,50.15 30.5,50.25 33.6,49.4 		"/>
		<polygon style="fill-rule:evenodd;clip-rule:evenodd;fill:#BC8174;" points="35.4,54.95 31.15,54.75 31.9,54.5 		"/>
		<path style="fill-rule:evenodd;clip-rule:evenodd;fill:#4B2C2B;" d="M47.65,50.25l0.55,0.4c0.399,0.333,0.583,0.617,0.55,0.85
			c-0.033,0.433-0.384,0.683-1.05,0.75c-0.3,0.033-0.55-0.067-0.75-0.3c-0.2-0.267-0.25-0.55-0.15-0.85
			c0.101-0.233,0.267-0.45,0.5-0.65L47.65,50.25z"/>
		<path style="fill-rule:evenodd;clip-rule:evenodd;fill:#4B2C2B;" d="M50.55,49.9L51,50.25c0.333,0.233,0.483,0.45,0.45,0.65
			c-0.033,0.4-0.351,0.633-0.95,0.7c-0.233,0.033-0.417-0.05-0.55-0.25c-0.167-0.233-0.2-0.483-0.101-0.75
			c0.067-0.2,0.2-0.383,0.4-0.55C50.35,49.983,50.45,49.933,50.55,49.9z"/>
		<path style="fill-rule:evenodd;clip-rule:evenodd;fill:#4B2C2B;" d="M53.05,49.5l0.45,0.35c0.3,0.233,0.434,0.45,0.4,0.65
			c-0.034,0.333-0.317,0.533-0.851,0.6c-0.2,0.033-0.399-0.05-0.6-0.25c-0.167-0.2-0.217-0.434-0.15-0.7
			c0.101-0.2,0.25-0.367,0.45-0.5C52.85,49.583,52.95,49.533,53.05,49.5z"/>
		<g>
			<polygon style="fill-rule:evenodd;clip-rule:evenodd;fill:#5B3231;" points="54.1,43.95 54.65,47.4 37.35,49.8 37.2,46.05 			"/>
			<polygon style="fill-rule:evenodd;clip-rule:evenodd;fill:#372323;" points="53.9,44.35 54.25,47.25 37.75,49.45 37.75,46.45 			
				"/>
			<polygon style="fill-rule:evenodd;clip-rule:evenodd;fill:#A5393E;" points="47.15,46.5 47.4,46.4 47.45,48.05 47.2,48.1 			"/>
			<polygon style="fill-rule:evenodd;clip-rule:evenodd;fill:#FFFFFF;" points="47.1,46.35 47.2,45.6 47.35,46.35 47.85,45.95 
				47.5,46.5 48.15,46.45 47.45,46.65 47.7,47.1 47.2,46.75 46.85,47.15 47.05,46.6 46.55,46.25 			"/>
			<polygon style="fill-rule:evenodd;clip-rule:evenodd;fill:#D09C90;" points="38.35,46.45 38.55,46.4 38.5,47.5 38.35,47.5 			"/>
			<polygon style="fill-rule:evenodd;clip-rule:evenodd;fill:#D09C90;" points="48.35,45.2 48.55,45.15 48.5,46.2 48.35,46.2 			"/>
			<polygon style="fill-rule:evenodd;clip-rule:evenodd;fill:#D09C90;" points="53.2,44.45 53.45,44.4 53.5,45.65 53.35,45.65 			
				"/>
			<polygon style="fill-rule:evenodd;clip-rule:evenodd;fill:#D09C90;" points="43.55,45.75 43.75,45.7 43.85,46.95 43.7,46.95 			
				"/>
			<polygon style="fill-rule:evenodd;clip-rule:evenodd;fill:#D09C90;" points="40.85,46.15 40.95,46.1 41.1,47.1 40.95,47.1 			"/>
			<polygon style="fill-rule:evenodd;clip-rule:evenodd;fill:#D09C90;" points="50.7,44.9 50.8,44.85 50.95,45.85 50.75,45.85 			
				"/>
			<polygon style="fill-rule:evenodd;clip-rule:evenodd;fill:#D09C90;" points="46.15,45.45 46.25,45.4 46.4,46.4 46.25,46.4 			"/>
		</g>
		<path style="fill-rule:evenodd;clip-rule:evenodd;fill:#5B3231;" d="M47.65,50.25c0.633-0.133,1.033,0.1,1.199,0.7
			c0.167,0.6-0.1,0.95-0.8,1.05c-0.666,0.1-1-0.133-1-0.7C47.05,50.7,47.25,50.35,47.65,50.25z"/>
		<path style="fill-rule:evenodd;clip-rule:evenodd;fill:#5B3231;" d="M50.65,49.9c0.666-0.066,0.983,0.167,0.949,0.7
			c0,0.5-0.283,0.783-0.85,0.85c-0.467,0.033-0.7-0.217-0.7-0.75C50.05,50.2,50.25,49.933,50.65,49.9z"/>
		<path style="fill-rule:evenodd;clip-rule:evenodd;fill:#5B3231;" d="M54.05,50.2c-0.033,0.5-0.3,0.75-0.8,0.75
			S52.5,50.7,52.5,50.2c0-0.534,0.283-0.784,0.85-0.75C53.884,49.45,54.116,49.7,54.05,50.2z"/>
		<path style="fill-rule:evenodd;clip-rule:evenodd;fill:#4B2C2B;" d="M40.1,55.9c-0.833-0.601-1.1-1.584-0.8-2.95
			c0.167-0.767,0.633-1.333,1.4-1.7l1.1-0.3c0.634-0.067,1.267,0.667,1.9,2.2c0.633,1.566,0.434,2.55-0.601,2.949
			C41.866,56.566,40.866,56.5,40.1,55.9z"/>
		<path style="fill-rule:evenodd;clip-rule:evenodd;fill:#5B3231;" d="M41.8,50.95c2.167-0.4,3.316,0.35,3.45,2.25
			c0.134,1.866-0.783,2.833-2.75,2.899c-1.833,0.034-2.75-0.75-2.75-2.35C39.717,52.117,40.4,51.183,41.8,50.95z"/>
	</g>
	<g>
		<path style="fill-rule:evenodd;clip-rule:evenodd;fill:#A2BDA2;" d="M47.4,22.7c-1.301-0.367-1.867-2.2-1.7-5.5l0.6-4.85
			l-0.1,4.25c0.2,2.833,0.899,4.35,2.1,4.55c1.033,0.167,2.717-0.483,5.05-1.95c2.534-1.567,4.233-2.383,5.101-2.45
			c1.5-0.133,2.684,0.6,3.55,2.2c0.9,1.733,1.033,3.867,0.4,6.4c-1.034,4.066-0.851,8.667,0.55,13.8c0.133-1.6,0.616-2.9,1.45-3.9
			c0.933-1.1,2.166-1.117,3.699-0.05c0.767,0.533,1.434,1.183,2,1.95c-0.5-0.533-1.066-0.983-1.699-1.35
			c-1.233-0.7-2.2-0.617-2.9,0.25S64.533,38.9,64.7,42c0.066,1.633,0.233,3.583,0.5,5.85c0.133,4.7-0.283,8.067-1.25,10.1
			c1.133-0.533,2.3-0.783,3.5-0.75c1.233,0.033,2.184,0.5,2.85,1.399c0.733,1,1.334,1.551,1.8,1.65
			c1.233,0.3,2.517,0.083,3.851-0.65c-0.367,0.434-0.834,0.834-1.4,1.2c-1.133,0.733-2.133,0.884-3,0.45c-0.1-0.066-1-0.75-2.7-2.05
			c-0.966-0.733-1.866-0.884-2.699-0.45c-0.534,0.267-1.75,1.033-3.65,2.3c-1.733,1.167-3.033,1.917-3.9,2.25
			c-3.433,1.934-5.199,2.95-5.3,3.05c-1.934,1.467-3.684,3.733-5.25,6.801c-5.333,10.767-6.434,17.533-3.3,20.3
			c1.566,1.366,4.134,2.583,7.7,3.649c1.767,0.534,3.383,0.934,4.85,1.2c-1.5-0.033-3.149-0.017-4.95,0.05
			c-3.633,0.2-6.233,0.617-7.8,1.25c-1.566,0.634-3.283,1.601-5.15,2.9c-0.933,0.667-1.717,1.25-2.35,1.75
			c0.267-0.634,0.267-1.316,0-2.05c-0.5-1.467-2.05-2.467-4.65-3c-2.566-0.566-5.283-0.117-8.15,1.35l-3.5,2.351
			c0.633-0.834,1.1-1.65,1.4-2.45c0.567-1.566,0.017-2.217-1.65-1.95c-2.633,0.467-9.467,1.35-20.5,2.65
			c5.3-1.467,9.5-2.867,12.6-4.2c2.7-1.134,6.167-3.783,10.4-7.95c4.9-4.767,8.767-9.684,11.6-14.75
			c3.066-5.434,5.667-9.384,7.8-11.85c2.066-2.4,4.1-3.884,6.1-4.45c1.333-0.367,3.134-0.851,5.4-1.45c1.8-0.9,3.166-2.767,4.1-5.6
			c0.866-2.633,1.017-5.883,0.45-9.75c-0.9-6-1.351-9.133-1.351-9.4c-0.066-1.933,0.334-4.317,1.2-7.15
			c0.566-1.9,0.467-3.117-0.3-3.65c-0.767-0.534-2.417-0.317-4.95,0.65C50.283,22.633,48.4,23,47.4,22.7z"/>
		<path style="fill-rule:evenodd;clip-rule:evenodd;fill:#C2D6C1;" d="M61.75,21.5c-0.2-0.133-0.384,0.167-0.55,0.9
			c-0.101,0.4-0.167,0.8-0.2,1.2c0.033-1.233-0.116-2.567-0.45-4c-0.2-0.9-0.866-1.417-2-1.55L56.9,18.1
			c1.233-0.733,2.399-0.783,3.5-0.15c0.933,0.5,1.517,1.233,1.75,2.2c0.267,1.067,0.3,2.35,0.1,3.85
			C62.25,22.533,62.083,21.7,61.75,21.5z"/>
		<g>
			<path style="fill-rule:evenodd;clip-rule:evenodd;fill:#89AA8B;" d="M45.9,14.7c-0.2,3.066,0.1,5.083,0.899,6.05
				c0.834,1,2.25,1.183,4.25,0.55c1.101-0.367,2.517-1,4.25-1.9c1.066-0.433,2.101-0.5,3.101-0.2c1.1,0.367,1.683,1.05,1.75,2.05
				c0,0.167-0.184,2.15-0.551,5.95c-0.366,3.4-0.35,6.083,0.051,8.05C62.017,47.083,62.066,54.3,59.8,56.9
				c-1.066,1.267-2.684,2.216-4.85,2.85c-2.467,0.767-4.45,1.767-5.95,3c-2.3,1.866-5.033,5.55-8.2,11.05
				c-3.1,5.334-5.033,9.601-5.8,12.8c-0.5,2.067-0.067,5.101,1.3,9.101c1.267,3.8,1.6,6.434,1,7.899l-0.15,0.25
				c0.167-0.666,0.083-1.316-0.25-1.949c-0.467-0.967-1.433-1.717-2.9-2.25c-1.233-3.334-1.733-6.25-1.5-8.75
				c0.233-2.7,1.2-5.983,2.9-9.851c1.5-3.533,3.417-7.133,5.75-10.8c2.066-3.267,4.066-5.75,6-7.45
				c1.666-1.467,3.616-2.6,5.85-3.399c3.733-1.334,5.95-3.101,6.65-5.301c1.066-3.233,1.283-6.899,0.649-11
				c-0.233-1.633-0.649-3.934-1.25-6.9c-0.434-2-0.616-3.367-0.55-4.1l0.15-5l-0.5,2.55C57.85,31.617,57.8,33.267,58,34.6
				c0.167,1.066,0.616,3.55,1.35,7.45c0.5,3.7,0.434,6.383-0.199,8.05c-0.934,2.533-1.684,4.2-2.25,5c-0.934,1.4-2.301,2.4-4.101,3
				c-3.2,1.034-5.1,1.717-5.7,2.051c-2.066,1.133-4.05,3.116-5.949,5.949c-0.601,0.867-3.467,5.584-8.601,14.15
				c-3.966,6.533-6.6,10.417-7.9,11.65c-1.6,1.533-5.3,3.366-11.1,5.5C7.983,99.434,3.467,100.684,0,101.15
				c5.3-1.467,9.5-2.867,12.6-4.2c2.7-1.134,6.167-3.783,10.4-7.95c4.9-4.767,8.767-9.684,11.6-14.75
				c3.066-5.434,5.667-9.384,7.8-11.85c2.066-2.4,4.1-3.884,6.1-4.45c1.333-0.367,3.134-0.851,5.4-1.45c1.8-0.9,3.166-2.767,4.1-5.6
				c0.866-2.633,1.017-5.883,0.45-9.75c-0.9-6-1.351-9.133-1.351-9.4c-0.066-1.933,0.334-4.317,1.2-7.15
				c0.566-1.9,0.467-3.117-0.3-3.65c-0.767-0.534-2.417-0.317-4.95,0.65C50.283,22.633,48.4,23,47.4,22.7
				C45.8,22.233,45.3,19.567,45.9,14.7z"/>
			<path style="fill-rule:evenodd;clip-rule:evenodd;fill:#89AA8B;" d="M65.5,35.25c-0.7,0.567-1.283,1.983-1.75,4.25
				c-0.2,1.133-0.35,2.217-0.45,3.25c0-0.867-0.1-2.217-0.3-4.05c0.2-1.434,0.667-2.583,1.4-3.45c0.733-0.9,1.683-1.083,2.85-0.55
				c0.767,0.367,1.55,0.983,2.35,1.85C67.667,35.05,66.3,34.617,65.5,35.25z"/>
			<path style="fill-rule:evenodd;clip-rule:evenodd;fill:#89AA8B;" d="M75.85,59.7c-1.199,0.967-2.449,1.149-3.75,0.55
				c1.233,0.3,2.517,0.083,3.851-0.65L75.85,59.7z"/>
			<path style="fill-rule:evenodd;clip-rule:evenodd;fill:#89AA8B;" d="M66.8,57.9c-0.833,0.133-1.633,0.399-2.399,0.8l-0.9,0.55
				c0.167-0.4,0.434-0.884,0.8-1.45c1.066-0.434,2.117-0.633,3.15-0.6c1.1,0.033,1.95,0.383,2.55,1.05
				c0.333,0.366,0.767,0.9,1.3,1.6c-1.1-0.733-1.866-1.233-2.3-1.5C68.267,57.917,67.533,57.767,66.8,57.9z"/>
			<path style="fill-rule:evenodd;clip-rule:evenodd;fill:#6B8B6F;" d="M59.35,42.05c-0.733-3.9-1.183-6.383-1.35-7.45
				c-0.2-1.333-0.15-2.983,0.15-4.95l0.5-2.55l-0.15,5c-0.066,0.733,0.116,2.1,0.55,4.1c0.601,2.966,1.017,5.267,1.25,6.9
				c0.634,4.1,0.417,7.767-0.649,11c-0.7,2.2-2.917,3.967-6.65,5.301c-2.233,0.8-4.184,1.933-5.85,3.399
				c-1.934,1.7-3.934,4.184-6,7.45c-2.333,3.667-4.25,7.267-5.75,10.8c-1.7,3.867-2.667,7.15-2.9,9.851
				c-0.233,2.5,0.267,5.416,1.5,8.75c-0.433-0.2-0.967-0.351-1.6-0.45c-2.566-0.566-5.283-0.117-8.15,1.35l-3.5,2.351
				c0.633-0.834,1.1-1.65,1.4-2.45c0.567-1.566,0.017-2.217-1.65-1.95c-2.607,0.462-9.332,1.329-20.175,2.6
				c3.424-0.496,7.832-1.729,13.225-3.699c5.8-2.134,9.5-3.967,11.1-5.5c1.3-1.233,3.934-5.117,7.9-11.65
				c5.133-8.566,8-13.283,8.601-14.15c1.899-2.833,3.883-4.816,5.949-5.949c0.601-0.334,2.5-1.017,5.7-2.051
				c1.8-0.6,3.167-1.6,4.101-3c0.566-0.8,1.316-2.466,2.25-5C59.783,48.433,59.85,45.75,59.35,42.05z"/>
		</g>
		<path style="fill-rule:evenodd;clip-rule:evenodd;fill:#89AA8B;" d="M63.3,47.5l0.4,1.55c0.233,1.267,0.35,2.5,0.35,3.7
			c0,1.3-0.517,2.884-1.55,4.75c-0.9,1.6-1.8,2.8-2.7,3.6c-0.533,0.5-1.767,1.284-3.7,2.351c-2.199,1.2-3.633,2.05-4.3,2.55
			c-1.066,0.767-1.967,1.65-2.7,2.65c-0.566,0.833-1.466,2.366-2.699,4.6c-1.267,2.3-2.384,5.15-3.351,8.55
			c-1.066,3.834-1.483,6.851-1.25,9.05c0.2,1.967,1.55,3.834,4.05,5.601c1.267,0.899,2.5,1.583,3.7,2.05
			c-0.434,0-0.967,0.05-1.6,0.15c-1.3,0.166-2.434,0.483-3.4,0.949C43.316,100.2,42,100.9,40.6,101.7
			c-0.667,0.399-1.233,0.75-1.7,1.05c1.1-1.6,1.65-3.434,1.65-5.5c-0.3-1.967-0.533-3.566-0.7-4.8c-0.333-2.334-0.233-4.9,0.3-7.7
			c0.699-3.4,1.816-6.833,3.35-10.3c1.467-3.3,3.017-5.95,4.65-7.95c1.199-1.467,3.267-2.884,6.199-4.25
			c3.167-1.5,5.317-2.8,6.45-3.9c1.566-1.5,2.45-3.75,2.65-6.75L63.3,47.5z"/>
	</g>
</g>
</svg>
