<?xml version="1.0" encoding="iso-8859-1"?>
<!-- Generator: Adobe Illustrator 15.1.0, SVG Export Plug-In . SVG Version: 6.00 Build 0)  -->
<!DOCTYPE svg PUBLIC "-//W3C//DTD SVG 1.1//EN" "http://www.w3.org/Graphics/SVG/1.1/DTD/svg11.dtd">
<svg version="1.1" id="vine_x5F_02.ai" xmlns="http://www.w3.org/2000/svg" xmlns:xlink="http://www.w3.org/1999/xlink" x="0px"
	 y="0px" width="42.5px" height="95.8px" viewBox="0 0 42.5 95.8" style="enable-background:new 0 0 42.5 95.8;"
	 xml:space="preserve">
<g>
	<path style="fill-rule:evenodd;clip-rule:evenodd;fill:#A2BDA2;" d="M22,6.8c2.434-0.133,3.934,2.684,4.5,8.45
		c0.366,3.367,0.616,9.067,0.75,17.1c0.5,2.066,1.15,3.783,1.95,5.15c1.166,2.133,2.517,3.15,4.05,3.05
		c1.866-0.1,3.35-0.833,4.45-2.2c0.533-0.7,0.883-1.383,1.05-2.05c-0.033,1.034-0.3,2.05-0.8,3.05c-1,1.933-2.65,2.75-4.95,2.45
		c-1.767-0.2-3.45-1.283-5.05-3.25c0.366,1.9,0.883,3.317,1.55,4.25c1.967,3.034,4.733,4.767,8.3,5.2
		c1.767,0.233,3.334,0.167,4.7-0.2c-2.333,0.767-4.816,1.15-7.45,1.15c-5.233,0-8.583-1.883-10.05-5.65
		c-0.7-1.833-1.267-4.716-1.7-8.65c-0.366-4.566-0.666-7.883-0.899-9.95c-0.9-7.5-3.034-10.467-6.4-8.9
		c-4.167,1.967-6.917,5.017-8.25,9.15C6.45,28.917,6.7,33.2,8.5,37.8c0.833,2.1,3.65,7.15,8.45,15.15
		c4.233,7.033,6.916,12.816,8.05,17.35c1.267,5,4.066,10.167,8.4,15.5c2.166,2.667,4.199,4.834,6.1,6.5
		c-1.4-0.666-2.967-1.25-4.7-1.75c-3.399-1-5.833-1.083-7.3-0.25c-1.467,0.834-1.983,2-1.55,3.5c0.2,0.767,0.55,1.434,1.05,2
		c-1-0.899-2.184-1.767-3.55-2.6c-2.767-1.667-5.083-2.3-6.95-1.9c-3,0.667-5.667,1.5-8,2.5c0.167-0.833,0.1-1.6-0.2-2.3
		c-0.566-1.434-2-1.833-4.3-1.2c1-0.666,2.067-1.816,3.2-3.45c2.233-3.233,3.667-7.25,4.3-12.05c0.267-2.1,0.017-4.5-0.75-7.2
		C8.383,62,6.133,58.9,4,58.3c-1.567-0.399-2.45,0.65-2.65,3.15c-0.1,1.233-0.05,2.517,0.15,3.85c-0.367-1.166-0.633-2.399-0.8-3.7
		c-0.333-2.566,0.017-4.166,1.05-4.8c1.2-0.7,2.933-0.133,5.2,1.7C4.517,53.434,2.9,49.733,2.1,47.4
		C0.567,42.967-0.133,38.767,0,34.8c0.133-4.867,1.367-9.45,3.7-13.75c2.033-3.733,4.7-6.917,8-9.55c3.867-5.033,5.133-8.1,3.8-9.2
		c-1.033-0.833-2.35-1.2-3.95-1.1L9.5,1.55l3.9-1.35c2.633-0.534,4,0.083,4.1,1.85c0.067,1.733-0.367,3.917-1.3,6.55
		C18.233,7.567,20.167,6.967,22,6.8z"/>
	<g>
		<path style="fill-rule:evenodd;clip-rule:evenodd;fill:#89AA8B;" d="M24.25,7.8c-1.167-0.3-2.316-0.183-3.45,0.35
			c-0.466,0.2-1.816,1-4.05,2.4c-2.133,1.367-4.3,3.517-6.5,6.45c-2.7,3.567-4.617,7.333-5.75,11.3C3.433,32.1,3.8,36.667,5.6,42
			c0.933,2.733,2.733,6.667,5.4,11.8c1.5,2.867,3.117,7.217,4.85,13.05c1.533,5.134,2.583,9.367,3.15,12.7
			c0.333,2.033,1.433,4.8,3.3,8.3c1.2,2.301,2.533,4.601,4,6.9c0.2,0.434,0.434,0.783,0.7,1.05c-0.934-0.866-2.066-1.7-3.4-2.5
			c-2.667-1.633-4.933-2.3-6.8-2c0.667-2.866,0.817-6.033,0.45-9.5c-0.5-4.467-1.567-9.517-3.2-15.149
			c-1.7-5.801-3.466-10.417-5.3-13.851c-2-3.733-3.617-7.433-4.85-11.1c-1.4-4-2.033-7.133-1.9-9.4c0.1-2.167,0.783-4.716,2.05-7.65
			c1.1-2.566,2.167-4.433,3.2-5.6l4.25-5c-1.3,0.967-2.667,2.2-4.1,3.7c-2.933,3-4.816,5.85-5.65,8.55
			c-1,3.233-1.233,7.067-0.7,11.5c0.534,4.367,1.684,8.45,3.45,12.25c1.167,2.5,3.317,6.9,6.45,13.2
			c2.367,5.566,3.133,9.667,2.3,12.3c-0.9,2.767-2.45,5.717-4.65,8.851c1.433-2.7,2.4-5.9,2.9-9.601c0.267-2.1,0.017-4.5-0.75-7.2
			C8.383,62,6.133,58.9,4,58.3c-1.567-0.399-2.45,0.65-2.65,3.15c-0.1,1.233-0.05,2.517,0.15,3.85c-0.367-1.166-0.633-2.399-0.8-3.7
			c-0.333-2.566,0.017-4.166,1.05-4.8c1.2-0.7,2.933-0.133,5.2,1.7C4.517,53.434,2.9,49.733,2.1,47.4
			C0.567,42.967-0.133,38.767,0,34.8c0.133-4.867,1.367-9.45,3.7-13.75c2.033-3.733,4.7-6.917,8-9.55c3.867-5.033,5.133-8.1,3.8-9.2
			c-0.7-0.533-1.55-0.883-2.55-1.05c3.267-0.433,4.5,0.9,3.7,4c-0.4,1.567-1.117,3.167-2.15,4.8l1.7-1.45
			c2.033-1.033,3.966-1.633,5.8-1.8C22.9,6.767,23.65,7.1,24.25,7.8z"/>
		<path style="fill-rule:evenodd;clip-rule:evenodd;fill:#6B8B6F;" d="M1.05,37.8c-0.533-4.433-0.3-8.267,0.7-11.5
			c0.833-2.7,2.717-5.55,5.65-8.55c1.434-1.5,2.8-2.733,4.1-3.7l-4.25,5c-1.033,1.167-2.1,3.034-3.2,5.6
			C2.783,27.583,2.1,30.133,2,32.3c-0.133,2.267,0.5,5.4,1.9,9.4c1.233,3.667,2.85,7.366,4.85,11.1c1.833,3.434,3.6,8.05,5.3,13.851
			c1.633,5.633,2.7,10.683,3.2,15.149c0.367,3.467,0.217,6.634-0.45,9.5h-0.3c-3,0.667-5.667,1.5-8,2.5c0.167-0.833,0.1-1.6-0.2-2.3
			c-0.566-1.434-2-1.833-4.3-1.2c0.4-0.267,0.9-0.717,1.5-1.35c1.167-1.267,2.2-2.783,3.1-4.55c2.2-3.134,3.75-6.084,4.65-8.851
			c0.833-2.633,0.067-6.733-2.3-12.3c-3.133-6.3-5.284-10.7-6.45-13.2C2.733,46.25,1.583,42.167,1.05,37.8z"/>
		<path style="fill-rule:evenodd;clip-rule:evenodd;fill:#89AA8B;" d="M28.5,45.3c1.667,2.434,5.5,3.483,11.5,3.15
			c-3.1,0.6-5.8,0.666-8.1,0.2c-3.467-0.667-5.767-2.45-6.9-5.351c-0.7-1.833-1.267-4.716-1.7-8.65
			c-0.366-4.566-0.666-7.883-0.899-9.95c-0.9-7.5-3.034-10.467-6.4-8.9c2.633-1.833,4.7-1.283,6.2,1.65
			c1.233,2.367,2,5.983,2.3,10.85c0.267,4.434,0.667,7.833,1.2,10.2C26.3,41.267,27.233,43.533,28.5,45.3z"/>
		<path style="fill-rule:evenodd;clip-rule:evenodd;fill:#89AA8B;" d="M35,41.05c1.267-0.066,2.267-0.883,3-2.45
			c0.366-0.767,0.616-1.533,0.75-2.3c-0.033,1.034-0.3,2.05-0.8,3.05c-1,1.933-2.65,2.75-4.95,2.45c-1.767-0.2-3.45-1.283-5.05-3.25
			l2.2,1.35C31.917,40.767,33.533,41.15,35,41.05z"/>
	</g>
</g>
</svg>
