<?xml version="1.0" encoding="iso-8859-1"?>
<!-- Generator: Adobe Illustrator 15.1.0, SVG Export Plug-In . SVG Version: 6.00 Build 0)  -->
<!DOCTYPE svg PUBLIC "-//W3C//DTD SVG 1.1//EN" "http://www.w3.org/Graphics/SVG/1.1/DTD/svg11.dtd">
<svg version="1.1" id="wall" xmlns="http://www.w3.org/2000/svg" xmlns:xlink="http://www.w3.org/1999/xlink" x="0px" y="0px"
	 width="150px" height="500px" viewBox="0 0 150 500" style="enable-background:new 0 0 150 500;" xml:space="preserve">
<symbol  id="FlashAICB_x2F_wall_x2F__x3C_Group_x3E_" viewBox="0 -94 28.52 94">
	<g id="Layer_1_5_">
		<g>
			<path style="fill-rule:evenodd;clip-rule:evenodd;fill:#C3C299;" d="M22,0c1-3.1,2.017-6.733,3.05-10.9
				c2.1-8.333,3.25-15.2,3.45-20.6c0.2-5.533-1.133-9.667-4-12.4c-0.967-0.934-2.233-1.817-3.8-2.65
				c-0.867-0.467-2.05-1.067-3.55-1.8L10-52.5l3.35-34L2-94l2.35,55.35l15.15,14.5L22,0z"/>
			<path style="fill-rule:evenodd;clip-rule:evenodd;fill:#BBBA7F;" d="M22,0c1.5-6.167,2.667-12.467,3.5-18.9
				C27.167-31.733,26.333-38.767,23-40c-3.333-1.267-6.833-3.65-10.5-7.15C10.667-48.883,9.167-50.5,8-52l1-34l-7-8L0-34l14,10l2,20
				L22,0z"/>
			<path style="fill-rule:evenodd;clip-rule:evenodd;fill:#CFCEA2;" d="M21-4.65c0.933-4.3,1.717-8.8,2.35-13.5
				c1.3-9.467,1.183-15.3-0.35-17.5c-1.533-2.233-4.883-5.467-10.05-9.7c-2.567-2.1-5-3.983-7.3-5.65l1.7-34.65L3.65-89l-0.3,46
				c1.433,0.567,3.083,1.45,4.95,2.65c3.733,2.467,6.633,5.367,8.7,8.7c2.1,3.333,3.067,8.667,2.9,16c-0.1,3.667-0.4,7-0.9,10
				L21-4.65z"/>
		</g>
	</g>
</symbol>
<symbol  id="FlashAICB_x2F_wall_x2F__x3C_Group_x3E__x5F_1" viewBox="0 -165.35 37.831 165.35">
	<g id="Layer_1_4_">
		<g>
			<path style="fill-rule:evenodd;clip-rule:evenodd;fill:#C3C299;" d="M37.8-38.1c0.2-17.1-0.566-29.967-2.3-38.6
				c-1.733-8.6-4.167-13.4-7.3-14.4c-1-0.3-2-0.217-3,0.25L24-90l-0.85-1.2c-0.667-1.1-1.283-2.433-1.85-4
				c-1.867-5.033-2.867-11.466-3-19.3c-0.133-7.867,0.534-18.7,2-32.5c0.733-6.9,1.467-13.017,2.2-18.35L0-165l12.5,90.8L25.15-66
				L37-15C37.433-21.833,37.7-29.533,37.8-38.1z"/>
			<path style="fill-rule:evenodd;clip-rule:evenodd;fill:#BBBA7F;" d="M37-15c0.333-11.833,0.083-23.667-0.75-35.5
				C34.583-74.167,30.833-86,25-86s-8.75-12.667-8.75-38c0-12.667,0.583-25.333,1.75-38l-18-3L1-58l18-6l-5,23l14,1l1,40L37-15z"/>
			<path style="fill-rule:evenodd;clip-rule:evenodd;fill:#CFCEA2;" d="M25.3-43l1.35-26.7c0.934,5.434,1.8,12.034,2.6,19.8
				c1.633,15.5,2.1,29.017,1.4,40.55l5-7c0.1-6.767,0.05-14.15-0.15-22.15c-0.467-16-1.533-27.067-3.2-33.2
				c-1.667-6.1-4.167-10.267-7.5-12.5c-1.667-1.1-3.167-1.6-4.5-1.5L18.7-87c-1.167-1.7-1.967-4.7-2.4-9c-0.667-6.9-1-28.233-1-64
				L4-163l3.3,89l4-1l0.75-11.25c0.029,0.46,0.079,0.927,0.15,1.4c0.5,3.567,2.2,5.617,5.1,6.15l7,1.35l-4.3,32L25.3-43z"/>
		</g>
	</g>
</symbol>
<symbol  id="FlashAICB_x2F_wall_x2F__x3C_Group_x3E__x5F_2" viewBox="0 -169.65 41.35 169.65">
	<g id="Layer_1_3_">
		<g>
			<polygon style="fill-rule:evenodd;clip-rule:evenodd;fill:#C3C299;" points="25.35,-52.65 32.35,-15 41.35,-76.35 27.35,-75.65 
				26.35,-116.35 15,-115.65 11.65,-169.65 1,-159.35 5,-103.35 17,-97 12.35,-56.65 			"/>
			<path style="fill-rule:evenodd;clip-rule:evenodd;fill:#BBBA7F;" d="M32-14l6-60l-13,1l-1-37H12l-3-52l-9,6v62l11,2L4-48l13-1
				c-1,2.833-1.7,5.7-2.1,8.6c-0.833,5.833,0.2,8.967,3.1,9.4c2.933,0.4,5.15-0.65,6.65-3.15c0.733-1.233,1.184-2.517,1.35-3.85
				L23,0L32-14z"/>
			<polygon style="fill-rule:evenodd;clip-rule:evenodd;fill:#CFCEA2;" points="26.35,-8.65 30,-13.65 35.35,-70.35 24,-71 
				22.35,-107.65 9.35,-106.35 7,-158.35 2.65,-153 4.35,-97 15.65,-96 11,-53 14.65,-53 16,-60.65 20.35,-62.65 18.65,-46 
				23.65,-45.35 27,-59.65 30.35,-59.65 			"/>
		</g>
	</g>
</symbol>
<symbol  id="FlashAICB_x2F_wall_x2F__x3C_Group_x3E__x5F_3" viewBox="0 -144 38.65 144">
	<g id="Layer_1_2_">
		<g>
			<polygon style="fill-rule:evenodd;clip-rule:evenodd;fill:#C3C299;" points="28.3,-8.65 38.65,-86.65 17.65,-79.3 20.65,-144 
				2,-124 5,-76.3 23,-68.65 22,-42 23.3,-4 			"/>
			<polygon style="fill-rule:evenodd;clip-rule:evenodd;fill:#BBBA7F;" points="26,-5 35,-83 16,-76 18,-138 2,-122 0,-47 14,-57 
				11,-30 22,-36 19,0 			"/>
			<polygon style="fill-rule:evenodd;clip-rule:evenodd;fill:#CFCEA2;" points="25.3,-7.3 32.65,-79.3 14.3,-73.3 16,-132.65 
				3.65,-122.3 4.3,-112.3 10.3,-116.65 8.65,-88.65 12,-90 11.3,-65.3 19,-69 19,-51 23.3,-51.3 25,-71.65 27.65,-72 22.65,-5.65 
							"/>
		</g>
	</g>
</symbol>
<rect style="fill-rule:evenodd;clip-rule:evenodd;fill:#C8C786;" width="150" height="500"/>
<use xlink:href="#FlashAICB_x2F_wall_x2F__x3C_Group_x3E__x5F_3"  width="38.65" height="144" y="-144" transform="matrix(1 0 0 -1 20.2002 319.2002)" style="overflow:visible;opacity:0.5;enable-background:new    ;"/>
<use xlink:href="#FlashAICB_x2F_wall_x2F__x3C_Group_x3E__x5F_2"  width="41.35" height="169.65" y="-169.65" transform="matrix(1 0 0 -1 90 171.3501)" style="overflow:visible;opacity:0.5;enable-background:new    ;"/>
<use xlink:href="#FlashAICB_x2F_wall_x2F__x3C_Group_x3E__x5F_1"  width="37.831" height="165.35" y="-165.35" transform="matrix(1 0 0 -1 22.2002 37.5)" style="overflow:visible;opacity:0.5;enable-background:new    ;"/>
<use xlink:href="#FlashAICB_x2F_wall_x2F__x3C_Group_x3E_"  width="28.52" height="94" y="-94" transform="matrix(1 0 0 -1 106.6504 9.3501)" style="overflow:visible;opacity:0.5;enable-background:new    ;"/>
</svg>
