<?xml version="1.0" encoding="iso-8859-1"?>
<!-- Generator: Adobe Illustrator 15.1.0, SVG Export Plug-In . SVG Version: 6.00 Build 0)  -->
<!DOCTYPE svg PUBLIC "-//W3C//DTD SVG 1.1//EN" "http://www.w3.org/Graphics/SVG/1.1/DTD/svg11.dtd">
<svg version="1.1" id="back_wall" xmlns="http://www.w3.org/2000/svg" xmlns:xlink="http://www.w3.org/1999/xlink" x="0px" y="0px"
	 width="500px" height="500px" viewBox="0 0 500 500" style="enable-background:new 0 0 500 500;" xml:space="preserve">
<symbol  id="FlashAICB_x2F_back_wall_x2F__x3C_Group_x3E_" viewBox="0 -93 76.702 93">
	<g id="Layer_1_59_">
		<g>
			
				<use xlink:href="#FlashAICB_x2F_back_wall_x2F__x3C_Path_x3E__x5F_6_x5F_2"  width="63.951" height="84" y="-84" transform="matrix(1 0 0 1 7 -6)" style="overflow:visible;opacity:0.3516;enable-background:new    ;"/>
			
				<use xlink:href="#FlashAICB_x2F_back_wall_x2F__x3C_Path_x3E__x5F_5_x5F_3"  width="36" height="23.25" y="-23.25" transform="matrix(1 0 0 1 13.25 -7.75)" style="overflow:visible;opacity:0.5;enable-background:new    ;"/>
			
				<use xlink:href="#FlashAICB_x2F_back_wall_x2F__x3C_Path_x3E__x5F_4_x5F_4"  width="17" height="50.25" y="-50.25" transform="matrix(1 0 0 1 45.5 -37.75)" style="overflow:visible;opacity:0.5;enable-background:new    ;"/>
			<path style="fill-rule:evenodd;clip-rule:evenodd;fill:#B5B478;" d="M48.65-42.25c0.1-3.3-0.283-7.717-1.15-13.25
				c-0.333-4.5-2-13-5-25.5h14l2-7l6.5-2l-1.75-3l-5.75,2.5L55.75-83L38-84.75c1.867,6.133,3.567,12.683,5.1,19.65
				c3.033,13.967,3.667,23.083,1.9,27.35s-9.8,7.417-24.1,9.45C13.767-27.267,6.8-26.667,0-26.5L15.75-7.25L6.25-23
				c4.433,0.133,9.25-0.017,14.45-0.45c10.4-0.9,17.583-2.75,21.55-5.55C46.283-31.867,48.417-36.283,48.65-42.25z"/>
			
				<use xlink:href="#FlashAICB_x2F_back_wall_x2F__x3C_Path_x3E__x5F_2_x5F_4"  width="16.75" height="12.5" y="-12.5" transform="matrix(1 0 0 1 20.25 0)" style="overflow:visible;opacity:0.3516;enable-background:new    ;"/>
			
				<use xlink:href="#FlashAICB_x2F_back_wall_x2F__x3C_Path_x3E__x5F_1_x5F_1"  width="31.15" height="25.5" y="-25.5" transform="matrix(1 0 0 1 39.5 -10.75)" style="overflow:visible;opacity:0.3516;enable-background:new    ;"/>
			
				<use xlink:href="#FlashAICB_x2F_back_wall_x2F__x3C_Path_x3E__x5F_16"  width="11.702" height="37.778" y="-37.75" transform="matrix(1 0 0 1 65 -50.25)" style="overflow:visible;opacity:0.3516;enable-background:new    ;"/>
		</g>
	</g>
</symbol>
<symbol  id="FlashAICB_x2F_back_wall_x2F__x3C_Group_x3E__x5F_1" viewBox="0 -126.75 78.5 126.75">
	<g id="Layer_1_58_">
		<g>
			
				<use xlink:href="#FlashAICB_x2F_back_wall_x2F__x3C_Path_x3E__x5F_8_x5F_1"  width="67" height="118.5" y="-118.5" transform="matrix(1 0 0 1 4.5 -3.5)" style="overflow:visible;opacity:0.3516;enable-background:new    ;"/>
			<polygon style="fill-rule:evenodd;clip-rule:evenodd;fill:#B5B478;" points="17.25,-4.75 19.5,-4.5 16.5,-16.75 			"/>
			<path style="fill-rule:evenodd;clip-rule:evenodd;fill:#B5B478;" d="M6-15.5l-2.25-21l24.5-0.25l-3.75-36
				c8.3,0.033,15.55-0.3,21.75-1c3.3-0.367,5.983-1.833,8.05-4.4c1.967-2.434,3.2-5.633,3.7-9.6c0.433-3.233,0.4-10-0.1-20.3
				c-0.267-5.133-0.566-9.95-0.9-14.45l13.75,4.25l-17.5-8.5L54.5-106c0.967,14.833-0.95,23.917-5.75,27.25
				c-2.7,1.867-8.217,2.8-16.55,2.8c-4.167,0-8.067-0.183-11.7-0.55l6,37.5L0-39.75L6-15.5z"/>
			
				<use xlink:href="#FlashAICB_x2F_back_wall_x2F__x3C_Path_x3E__x5F_5_x5F_2"  width="8" height="15.75" y="-15.75" transform="matrix(1 0 0 1 18.5 -5.25)" style="overflow:visible;opacity:0.5;enable-background:new    ;"/>
			
				<use xlink:href="#FlashAICB_x2F_back_wall_x2F__x3C_Path_x3E__x5F_4_x5F_3"  width="21.5" height="16.25" y="-16.25" transform="matrix(1 0 0 1 6.5 -18)" style="overflow:visible;opacity:0.5;enable-background:new    ;"/>
			
				<use xlink:href="#FlashAICB_x2F_back_wall_x2F__x3C_Path_x3E__x5F_3_x5F_4"  width="36.85" height="87.25" y="-87.25" transform="matrix(1 0 0 1 28.25 -32.25)" style="overflow:visible;opacity:0.5;enable-background:new    ;"/>
			
				<use xlink:href="#FlashAICB_x2F_back_wall_x2F__x3C_Path_x3E__x5F_2_x5F_3"  width="18.75" height="22.25" y="-22.25" transform="matrix(1 0 0 1 20 0)" style="overflow:visible;opacity:0.3516;enable-background:new    ;"/>
			
				<use xlink:href="#FlashAICB_x2F_back_wall_x2F__x3C_Path_x3E__x5F_1_x5F_0"  width="22.5" height="32.75" y="-32.75" transform="matrix(1 0 0 1 41 -19)" style="overflow:visible;opacity:0.3516;enable-background:new    ;"/>
			
				<use xlink:href="#FlashAICB_x2F_back_wall_x2F__x3C_Path_x3E__x5F_15"  width="17.25" height="66.25" y="-66.25" transform="matrix(1 0 0 1 61.25 -48.75)" style="overflow:visible;opacity:0.3516;enable-background:new    ;"/>
		</g>
	</g>
</symbol>
<symbol  id="FlashAICB_x2F_back_wall_x2F__x3C_Group_x3E__x5F_2" viewBox="0 -211.15 102.9 211.159">
	<g id="Layer_1_57_">
		<g>
			
				<use xlink:href="#FlashAICB_x2F_back_wall_x2F__x3C_Path_x3E__x5F_14"  width="90.5" height="206.05" y="-206.05" transform="matrix(1 0 0 1 4.8999 -5.1001)" style="overflow:visible;opacity:0.3516;enable-background:new    ;"/>
			
				<use xlink:href="#FlashAICB_x2F_back_wall_x2F__x3C_Path_x3E__x5F_13"  width="79.5" height="52.709" y="-52.7" transform="matrix(1 0 0 1 11.3999 0)" style="overflow:visible;opacity:0.3516;enable-background:new    ;"/>
			
				<use xlink:href="#FlashAICB_x2F_back_wall_x2F__x3C_Path_x3E__x5F_12_x5F_0"  width="25.831" height="52.236" y="-52.2" transform="matrix(1 0 0 1 57.8999 -87.9502)" style="overflow:visible;opacity:0.3516;enable-background:new    ;"/>
			
				<use xlink:href="#FlashAICB_x2F_back_wall_x2F__x3C_Path_x3E__x5F_11_x5F_0"  width="33" height="63" y="-63" transform="matrix(1 0 0 1 69.8999 -143.1499)" style="overflow:visible;opacity:0.3516;enable-background:new    ;"/>
			
				<use xlink:href="#FlashAICB_x2F_back_wall_x2F__x3C_Path_x3E__x5F_10_x5F_0"  width="33" height="59" y="-59" transform="matrix(1 0 0 1 9.75 -8.2002)" style="overflow:visible;opacity:0.5;enable-background:new    ;"/>
			
				<use xlink:href="#FlashAICB_x2F_back_wall_x2F__x3C_Path_x3E__x5F_9_x5F_0"  width="16.107" height="34.675" x="-0.007" y="-34.675" transform="matrix(1 0 0 1 31.9502 -75.2002)" style="overflow:visible;opacity:0.5;enable-background:new    ;"/>
			
				<use xlink:href="#FlashAICB_x2F_back_wall_x2F__x3C_Path_x3E__x5F_8_x5F_0"  width="12.783" height="52.95" y="-52.95" transform="matrix(1 0 0 1 51.0498 -101.2002)" style="overflow:visible;opacity:0.5;enable-background:new    ;"/>
			
				<use xlink:href="#FlashAICB_x2F_back_wall_x2F__x3C_Path_x3E__x5F_7_x5F_1"  width="22.05" height="57.5" x="0" y="-57.5" transform="matrix(1 0 0 1 65.3501 -151.6499)" style="overflow:visible;opacity:0.5;enable-background:new    ;"/>
			<polygon style="fill-rule:evenodd;clip-rule:evenodd;fill:#B5B478;" points="8.55,-5.95 4.55,-30.05 28.5,-29.45 21.55,-69.05 
				23.9,-32.35 0,-33.95 			"/>
			<path style="fill-rule:evenodd;clip-rule:evenodd;fill:#B5B478;" d="M22.15-70.2l10.85-1l-2.9-17.25
				c-1.367-12.1-0.684-19.55,2.05-22.35c1.633-1.7,4.684-2.267,9.15-1.7c2.267,0.267,4.35,0.717,6.25,1.35c-1.6-1.967-3.6-3.5-6-4.6
				c-4.8-2.167-9.216-1.1-13.25,3.2c-4.033,4.267-5.117,12.216-3.25,23.85c0.6,3.633,1.45,7.417,2.55,11.35l1.45,4.8L22.15-70.2z"/>
			<path style="fill-rule:evenodd;clip-rule:evenodd;fill:#B5B478;" d="M57.15-158.05l2.25,0.25c2,0.133,4.25,0.133,6.75,0
				c3.467-0.2,6.067-0.767,7.8-1.7c2.367-1.233,4.466-3.583,6.3-7.05c2.033-3.9,1.9-12.367-0.4-25.4
				c-1.133-6.5-2.483-12.617-4.05-18.35c0.867,6.3,1.467,12.917,1.8,19.85c0.633,13.9-0.434,22.45-3.2,25.65
				c-2.767,3.2-7.1,4.367-13,3.5c-1.833-0.267-3.717-0.717-5.65-1.35l-2.35-0.85L48-111.55L57.15-158.05z"/>
			
				<use xlink:href="#FlashAICB_x2F_back_wall_x2F__x3C_Path_x3E__x5F_3_x5F_3"  width="22.636" height="22.892" y="-22.85" transform="matrix(1 0 0 1 26.3999 -9.3501)" style="overflow:visible;opacity:0.1484;enable-background:new    ;"/>
			
				<use xlink:href="#FlashAICB_x2F_back_wall_x2F__x3C_Path_x3E__x5F_2_x5F_2"  width="28.5" height="14.5" y="-14.5" transform="matrix(1 0 0 1 52.8999 -37.2002)" style="overflow:visible;opacity:0.1484;enable-background:new    ;"/>
			
				<use xlink:href="#FlashAICB_x2F_back_wall_x2F__x3C_Path_x3E__x5F_1"  width="10.9" height="11.821" x="-0.05" y="-11.793" transform="matrix(1 0 0 1 60.8501 -97.0498)" style="overflow:visible;opacity:0.1484;enable-background:new    ;"/>
			
				<use xlink:href="#FlashAICB_x2F_back_wall_x2F__x3C_Path_x3E__x5F_0"  width="10.5" height="16.5" y="-16.5" transform="matrix(1 0 0 1 81.3999 -149.1499)" style="overflow:visible;opacity:0.1484;enable-background:new    ;"/>
		</g>
	</g>
</symbol>
<symbol  id="FlashAICB_x2F_back_wall_x2F__x3C_Group_x3E__x5F_3" viewBox="0 -93.7 46 93.689">
	<g id="Layer_1_56_">
		<g>
			
				<use xlink:href="#FlashAICB_x2F_back_wall_x2F__x3C_Path_x3E__x5F_4_x5F_2"  width="44.556" height="92.039" x="-0.006" y="-92.05" transform="matrix(1 0 0 1 1.4502 0)" style="overflow:visible;opacity:0.3516;enable-background:new    ;"/>
			
				<use xlink:href="#FlashAICB_x2F_back_wall_x2F__x3C_Path_x3E__x5F_3_x5F_2"  width="38.827" height="88.5" x="0.023" y="-88.5" transform="matrix(1 0 0 1 3.6499 -1.5498)" style="overflow:visible;opacity:0.5;enable-background:new    ;"/>
			
				<use xlink:href="#FlashAICB_x2F_back_wall_x2F__x3C_Path_x3E__x5F_2_x5F_1"  width="11.153" height="9.548" x="-0.196" y="-9.524" transform="matrix(1 0 0 1 15.7998 -4.5498)" style="overflow:visible;opacity:0.1484;enable-background:new    ;"/>
			<path style="fill-rule:evenodd;clip-rule:evenodd;fill:#B5B478;" d="M1.1-12.55L3-23.3l15.1-1.75l-1.5-8.8
				c-0.434-6.467,0.7-11.283,3.4-14.45c1.8-2.133,5.067-2.3,9.8-0.5c2.367,0.9,4.55,2.017,6.55,3.35c-1.4-1.633-3.167-3.066-5.3-4.3
				C26.783-52.217,22.767-52.4,19-50.3c-3.733,2.066-5.767,6.65-6.1,13.75c-0.133,2.2-0.066,4.533,0.2,7l0.4,3L0-26.05L1.1-12.55z"
				/>
			<polygon style="fill-rule:evenodd;clip-rule:evenodd;fill:#B5B478;" points="36.85,-44.8 38.25,-43.7 38.25,-91.95 44.25,-92.3 
				36.25,-93.7 			"/>
		</g>
	</g>
</symbol>
<symbol  id="FlashAICB_x2F_back_wall_x2F__x3C_Group_x3E__x5F_4" viewBox="0 -170.45 112 170.45">
	<g id="Layer_1_55_">
		<g>
			
				<use xlink:href="#FlashAICB_x2F_back_wall_x2F__x3C_Path_x3E__x5F_12"  width="99" height="148.45" y="-148.45" transform="matrix(1 0 0 1 1 -12)" style="overflow:visible;opacity:0.3516;enable-background:new    ;"/>
			
				<use xlink:href="#FlashAICB_x2F_back_wall_x2F__x3C_Path_x3E__x5F_11"  width="44" height="52" y="-52" transform="matrix(1 0 0 1 5.5 0)" style="overflow:visible;opacity:0.3516;enable-background:new    ;"/>
			
				<use xlink:href="#FlashAICB_x2F_back_wall_x2F__x3C_Path_x3E__x5F_10"  width="39.679" height="54.95" x="-0.029" y="-54.95" transform="matrix(1 0 0 1 42.3501 -53.5)" style="overflow:visible;opacity:0.3516;enable-background:new    ;"/>
			
				<use xlink:href="#FlashAICB_x2F_back_wall_x2F__x3C_Path_x3E__x5F_9"  width="25.5" height="46.5" y="-46.5" transform="matrix(1 0 0 1 86.5 -111.4502)" style="overflow:visible;opacity:0.3516;enable-background:new    ;"/>
			
				<use xlink:href="#FlashAICB_x2F_back_wall_x2F__x3C_Path_x3E__x5F_8"  width="29.402" height="39.5" y="-39.5" transform="matrix(1 0 0 1 5 -16.5)" style="overflow:visible;opacity:0.5;enable-background:new    ;"/>
			
				<use xlink:href="#FlashAICB_x2F_back_wall_x2F__x3C_Path_x3E__x5F_7_x5F_0"  width="17.677" height="26" y="-26" transform="matrix(1 0 0 1 31 -76.4502)" style="overflow:visible;opacity:0.5;enable-background:new    ;"/>
			
				<use xlink:href="#FlashAICB_x2F_back_wall_x2F__x3C_Path_x3E__x5F_6_x5F_1"  width="9.5" height="43.5" y="-43.5" transform="matrix(1 0 0 1 54 -82.4502)" style="overflow:visible;opacity:0.5;enable-background:new    ;"/>
			
				<use xlink:href="#FlashAICB_x2F_back_wall_x2F__x3C_Path_x3E__x5F_5_x5F_1"  width="39" height="48.816" y="-48.816" transform="matrix(1 0 0 1 27.5 -108.4502)" style="overflow:visible;opacity:0.5;enable-background:new    ;"/>
			
				<use xlink:href="#FlashAICB_x2F_back_wall_x2F__x3C_Path_x3E__x5F_4_x5F_1"  width="23" height="24.5" y="-24.5" transform="matrix(1 0 0 1 72 -133.9502)" style="overflow:visible;opacity:0.5;enable-background:new    ;"/>
			<path style="fill-rule:evenodd;clip-rule:evenodd;fill:#B5B478;" d="M0.5-15.25l2.1-15.4c0.8,0.233,1.9,0.367,3.3,0.4
				c2.833,0.067,5.783-0.4,8.85-1.4c5.433-1.733,9.033-3.917,10.8-6.55c1.333-2,2.483-6.1,3.45-12.3c0.6-3.933,0.45-9.6-0.45-17
				c-0.466-3.733-0.983-7.05-1.55-9.95c-0.667,11.3-1,19.284-1,23.95c0,3.8-0.783,7.217-2.35,10.25c-1.8,3.4-4.35,5.817-7.65,7.25
				c-2.9,1.233-6.433,1.983-10.6,2.25c-2.1,0.133-3.9,0.133-5.4,0L0.5-15.25z"/>
			<path style="fill-rule:evenodd;clip-rule:evenodd;fill:#B5B478;" d="M27.1-79.2c2.933-0.233,6.017-2.083,9.25-5.55
				c3.167-3.4,4.75-6.383,4.75-8.95c0-2.1-0.667-3.983-2-5.65c-0.667-0.833-1.333-1.45-2-1.85c0.3,0.9,0.517,2.05,0.65,3.45
				c0.233,2.733-0.067,5.25-0.9,7.55c-0.867,2.367-2.75,4.9-5.65,7.6L27.1-79.2z"/>
			<path style="fill-rule:evenodd;clip-rule:evenodd;fill:#B5B478;" d="M68.1-139.6l-2.3-4.25c-2.4-4.1-4.9-7.733-7.5-10.9
				c-8.267-10.167-15.95-13.9-23.05-11.2c-7.067,2.7-11.067,12.85-12,30.45c-0.3,5.467-0.267,11.367,0.1,17.7l0.65,7.85l0.7-7.85
				c0.7-6.267,1.617-12.034,2.75-17.3c3.667-16.867,8.883-25.45,15.65-25.75c5.867-0.267,11.867,3.35,18,10.85
				c1.933,2.333,3.767,4.917,5.5,7.75L68.1-139.6z"/>
			<polygon style="fill-rule:evenodd;clip-rule:evenodd;fill:#B5B478;" points="84,-170.45 84.75,-144.7 69.25,-138.35 
				91.1,-141.95 91,-160.85 98,-160.7 96.5,-164.45 			"/>
		</g>
	</g>
</symbol>
<symbol  id="FlashAICB_x2F_back_wall_x2F__x3C_Group_x3E__x5F_5" viewBox="-0.012 -80.398 27.863 80.398">
	<g id="Layer_1_54_">
		<g>
			
				<use xlink:href="#FlashAICB_x2F_back_wall_x2F__x3C_Path_x3E__x5F_3_x5F_1"  width="26.712" height="71" x="-0.012" y="-71" transform="matrix(1 0 0 1 1.1499 -2.75)" style="overflow:visible;opacity:0.3516;enable-background:new    ;"/>
			
				<use xlink:href="#FlashAICB_x2F_back_wall_x2F__x3C_Path_x3E__x5F_2_x5F_0"  width="22.45" height="30.079" x="0" y="-30.079" transform="matrix(1 0 0 1 3.3999 -41.25)" style="overflow:visible;opacity:0.5;enable-background:new    ;"/>
			<path style="fill-rule:evenodd;clip-rule:evenodd;fill:#B5B478;" d="M9.1-73.25c4.867-2.267,9.4-1.867,13.6,1.2
				c1.333,0.966,2.55,2.133,3.65,3.5l1.25,1.8l-0.95-2.7c-0.867-2.1-1.883-3.95-3.05-5.55c-3.8-5.067-8.517-6.567-14.15-4.5
				S0.7-71.317,0.1-61.15c-0.2,3.2-0.133,6.6,0.2,10.2l0.55,4.45C1.517-62.1,4.267-71.017,9.1-73.25z"/>
			
				<use xlink:href="#FlashAICB_x2F_back_wall_x2F__x3C_Path_x3E_"  width="16" height="53" y="-53" transform="matrix(1 0 0 1 10.8501 0)" style="overflow:visible;opacity:0.3516;enable-background:new    ;"/>
		</g>
	</g>
</symbol>
<symbol  id="FlashAICB_x2F_back_wall_x2F__x3C_Group_x3E__x5F_6" viewBox="0 -144.1 83.3 144.097">
	<g id="Layer_1_53_">
		<g>
			
				<use xlink:href="#FlashAICB_x2F_back_wall_x2F__x3C_Path_x3E__x5F_7"  width="76" height="130.007" y="-130" transform="matrix(1 0 0 1 0 -8.8501)" style="overflow:visible;opacity:0.3516;enable-background:new    ;"/>
			
				<use xlink:href="#FlashAICB_x2F_back_wall_x2F__x3C_Path_x3E__x5F_6_x5F_0"  width="37.179" height="31.197" y="-31.2" transform="matrix(1 0 0 1 20 0)" style="overflow:visible;opacity:0.3516;enable-background:new    ;"/>
			
				<use xlink:href="#FlashAICB_x2F_back_wall_x2F__x3C_Path_x3E__x5F_5_x5F_0"  width="31.3" height="84.3" y="-84.3" transform="matrix(1 0 0 1 52 -38.2002)" style="overflow:visible;opacity:0.3516;enable-background:new    ;"/>
			
				<use xlink:href="#FlashAICB_x2F_back_wall_x2F__x3C_Path_x3E__x5F_4_x5F_0"  width="60.35" height="114.808" y="-114.8" transform="matrix(1 0 0 1 3.2998 -20.7002)" style="overflow:visible;opacity:0.5;enable-background:new    ;"/>
			
				<use xlink:href="#FlashAICB_x2F_back_wall_x2F__x3C_Path_x3E__x5F_3_x5F_0"  width="2.7" height="35.65" y="-35.65" transform="matrix(1 0 0 1 59.2998 -51.2002)" style="overflow:visible;opacity:0.5;enable-background:new    ;"/>
			<path style="fill-rule:evenodd;clip-rule:evenodd;fill:#B5B478;" d="M0.4-28.6c3.434,0.733,7.1,1.133,11,1.2
				c7.833,0.066,13-1.667,15.5-5.2c1.8-2.566,3.05-7.15,3.75-13.75c0.333-3.3,0.5-6.35,0.5-9.15l14.5-2.6L47-97.25l-6.35,32.9l-15,2
				c0.4,4.533,0.517,9.2,0.35,14c-0.3,9.633-1.8,15.167-4.5,16.6c-3.433,1.833-7.983,2.9-13.65,3.2
				C5.017-28.383,2.533-28.4,0.4-28.6z"/>
			<polygon style="fill-rule:evenodd;clip-rule:evenodd;fill:#B5B478;" points="58.25,-98.1 57.75,-139.1 63.4,-135.85 57.9,-144.1 
				53.15,-103.35 47.15,-97.35 			"/>
			<polygon style="fill-rule:evenodd;clip-rule:evenodd;fill:#B5B478;" points="70.4,-127.6 68,-114 63.9,-111 69.9,-109.85 
				70.25,-124.25 73.15,-124.6 			"/>
		</g>
	</g>
</symbol>
<symbol  id="FlashAICB_x2F_back_wall_x2F__x3C_Group_x3E__x5F_7" viewBox="0 -173.3 57 173.3">
	<g id="Layer_1_52_">
		<g>
			
				<use xlink:href="#FlashAICB_x2F_back_wall_x2F__x3C_Path_x3E__x5F_6"  width="45.3" height="169.3" y="-169.3" transform="matrix(1 0 0 1 0.3501 -4)" style="overflow:visible;opacity:0.3516;enable-background:new    ;"/>
			
				<use xlink:href="#FlashAICB_x2F_back_wall_x2F__x3C_Path_x3E__x5F_5"  width="26.65" height="46" y="-46" transform="matrix(1 0 0 1 1 0)" style="overflow:visible;opacity:0.3516;enable-background:new    ;"/>
			
				<use xlink:href="#FlashAICB_x2F_back_wall_x2F__x3C_Path_x3E__x5F_4"  width="26.65" height="91.35" y="-91.35" transform="matrix(1 0 0 1 30.3501 -47.2998)" style="overflow:visible;opacity:0.3516;enable-background:new    ;"/>
			
				<use xlink:href="#FlashAICB_x2F_back_wall_x2F__x3C_Path_x3E__x5F_3"  width="24" height="58.65" y="-58.65" transform="matrix(1 0 0 1 3.6499 -9.6499)" style="overflow:visible;opacity:0.5;enable-background:new    ;"/>
			
				<use xlink:href="#FlashAICB_x2F_back_wall_x2F__x3C_Path_x3E__x5F_2"  width="11" height="101" y="-101" transform="matrix(1 0 0 1 29.6499 -64)" style="overflow:visible;opacity:0.5;enable-background:new    ;"/>
			<polygon style="fill-rule:evenodd;clip-rule:evenodd;fill:#B5B478;" points="4.1,-69.55 26.6,-71.2 29.35,-172.3 22.5,-74.05 
				1.1,-72.8 0,-4.2 			"/>
			<polygon style="fill-rule:evenodd;clip-rule:evenodd;fill:#B5B478;" points="39.5,-150.55 30.25,-172.95 38.1,-148.8 
				45.5,-147.7 			"/>
		</g>
	</g>
</symbol>
<symbol  id="FlashAICB_x2F_back_wall_x2F__x3C_Path_x3E_" viewBox="0 -53 16 53">
	<g id="Layer_1_14_">
		<polygon style="fill-rule:evenodd;clip-rule:evenodd;fill:#ECECD9;" points="0,0 5.75,-49 16,-51.5 3,-53 		"/>
	</g>
</symbol>
<symbol  id="FlashAICB_x2F_back_wall_x2F__x3C_Path_x3E__x5F_0" viewBox="0 -16.5 10.5 16.5">
	<g id="Layer_1_38_">
		<path style="fill-rule:evenodd;clip-rule:evenodd;fill:#EEE4CB;" d="M0,0c1-0.333,4.5-1.167,10.5-2.5l-1-14L7-5.5L0,0z"/>
	</g>
</symbol>
<symbol  id="FlashAICB_x2F_back_wall_x2F__x3C_Path_x3E__x5F_1" viewBox="-0.05 -11.793 10.9 11.821">
	<g id="Layer_1_37_">
		<path style="fill-rule:evenodd;clip-rule:evenodd;fill:#EEE4CB;" d="M9.5-4.75c0.9-1.567,1.35-2.983,1.35-4.25
			c0-1.4-0.6-2.267-1.8-2.6c-2.566-0.767-5.083,0.75-7.55,4.55c-1.033,1.566-1.55,2.966-1.55,4.2c0.033,1.434,0.733,2.333,2.1,2.7
			C4.75,0.583,7.233-0.95,9.5-4.75z"/>
	</g>
</symbol>
<symbol  id="FlashAICB_x2F_back_wall_x2F__x3C_Path_x3E__x5F_10" viewBox="-0.029 -54.95 39.679 54.95">
	<g id="Layer_1_17_">
		<path style="fill-rule:evenodd;clip-rule:evenodd;fill:#ECECD9;" d="M30.15-12c-0.667-1.067-1.683-2.25-3.05-3.55
			c-2.767-2.567-5.917-4.367-9.45-5.4c-2.033-0.6-4.367-0.383-7,0.65c-2.433,0.933-4.633,2.35-6.6,4.25
			c-2.033,1.9-3.316,3.783-3.85,5.65c-0.567,2.066-0.083,3.7,1.45,4.9c-0.233-1.667,0.2-3.35,1.3-5.05c2.267-3.4,6.833-5.2,13.7-5.4
			c4.8-0.133,9.15,2.483,13.05,7.85c1.966,2.667,3.45,5.367,4.45,8.1l-2-47.45l7.5-7.5l-10,3L30.15-12z"/>
	</g>
</symbol>
<symbol  id="FlashAICB_x2F_back_wall_x2F__x3C_Path_x3E__x5F_10_x5F_0" viewBox="0 -59 33 59">
	<g id="Layer_1_31_">
		<polygon style="fill-rule:evenodd;clip-rule:evenodd;fill:#B5B478;" points="4,-0.35 7.65,0 6,-13 28.3,-11 26.3,-33.35 
			33,-32.65 26.3,-59 16.3,-58 23.3,-17.35 0,-18 		"/>
	</g>
</symbol>
<symbol  id="FlashAICB_x2F_back_wall_x2F__x3C_Path_x3E__x5F_11" viewBox="0 -52 44 52">
	<g id="Layer_1_16_">
		<polygon style="fill-rule:evenodd;clip-rule:evenodd;fill:#ECECD9;" points="0,-7.5 44,0 40,-52 37.5,-8 		"/>
	</g>
</symbol>
<symbol  id="FlashAICB_x2F_back_wall_x2F__x3C_Path_x3E__x5F_11_x5F_0" viewBox="0 -63 33 63">
	<g id="Layer_1_30_">
		<polygon style="fill-rule:evenodd;clip-rule:evenodd;fill:#ECECD9;" points="0,0 33,-1.5 27,-59.5 23,-63 28,-3.5 		"/>
	</g>
</symbol>
<symbol  id="FlashAICB_x2F_back_wall_x2F__x3C_Path_x3E__x5F_12" viewBox="0 -148.45 99 148.45">
	<g id="Layer_1_15_">
		<path style="fill-rule:evenodd;clip-rule:evenodd;fill:#BCBB76;" d="M0-3l35.5,3v-39.5l-1.15-3.05
			c-0.733-2.467-1.117-4.817-1.15-7.05c-0.1-7.167,3.5-11.783,10.8-13.85c7.3-2.1,13.567-2.316,18.8-0.65
			c2.633,0.833,4.534,1.883,5.7,3.15l-2-38l15-1l8.5-18l9-0.5l-2-30h-6.5v19l-23,3.5l-2.4-4.25c-2.033-3.367-4.15-6.35-6.35-8.95
			c-7-8.233-13.417-11-19.25-8.3c-5.833,2.7-10.25,11.85-13.25,27.45c-0.933,4.867-1.667,10.083-2.2,15.65l-0.55,6.9
			c3.433,1.333,6.683,3.083,9.75,5.25c6.167,4.333,8.417,8.583,6.75,12.75c-1.667,4.167-4.5,7.583-8.5,10.25L26-66.45
			c0.767,2.9,1.4,6.5,1.9,10.8c1,8.566,0.867,16.283-0.4,23.15c-1.233,6.867-5.85,11.35-13.85,13.45C9.65-18.017,5.767-17.667,2-18
			L0-3z"/>
	</g>
</symbol>
<symbol  id="FlashAICB_x2F_back_wall_x2F__x3C_Path_x3E__x5F_12_x5F_0" viewBox="0 -52.2 25.831 52.236">
	<g id="Layer_1_29_">
		<path style="fill-rule:evenodd;clip-rule:evenodd;fill:#ECECD9;" d="M0-1.75c2.333,0.667,4.983,1.167,7.95,1.5
			c5.9,0.667,10.417,0.167,13.55-1.5s4.567-5.167,4.3-10.5c-0.1-2.667-0.533-5.167-1.3-7.5L18-52.2l2.5,40.95
			c-0.233,1.733-1.267,3.433-3.1,5.1C13.733-2.817,7.933-1.35,0-1.75z"/>
	</g>
</symbol>
<symbol  id="FlashAICB_x2F_back_wall_x2F__x3C_Path_x3E__x5F_13" viewBox="0 -52.7 79.5 52.709">
	<g id="Layer_1_28_">
		<path style="fill-rule:evenodd;clip-rule:evenodd;fill:#ECECD9;" d="M43.7-24c-0.167,7.1-2.567,12.2-7.2,15.3
			c-6.233,4.167-14.183,6.5-23.85,7C7.817-1.467,3.6-1.633,0-2.2c3.267,0.833,7.117,1.45,11.55,1.85
			C20.483,0.483,27.967-0.133,34-2.2c6.033-2.1,10.1-6.983,12.2-14.65c1.033-3.833,1.466-7.45,1.3-10.85L75-26.2l4.5-26.5l-9.5,22
			l-27.5-3C43.367-30.767,43.767-27.533,43.7-24z"/>
	</g>
</symbol>
<symbol  id="FlashAICB_x2F_back_wall_x2F__x3C_Path_x3E__x5F_14" viewBox="0 -206.05 90.5 206.05">
	<g id="Layer_1_27_">
		<path style="fill-rule:evenodd;clip-rule:evenodd;fill:#BCBB76;" d="M47.65-18.75c0.5-4.167,0.283-8.117-0.65-11.85l26.5,3l8-22.5
			l-26-4.5l-8.5-34l2.45,0.25c2.033,0.133,4.017,0.083,5.95-0.15c6.167-0.667,10.7-2.867,13.6-6.6
			c2.933-3.733,2.233-12.35-2.1-25.85c-2.167-6.733-4.633-13.1-7.4-19.1l31-3.5l-6-62l-13.5-0.5c1.1,2.833,2.167,6.533,3.2,11.1
			c2.066,9.167,3,18.133,2.8,26.9c-0.2,8.733-4.35,13.933-12.45,15.6c-2.5,0.534-5.267,0.684-8.3,0.45l-3.75-0.55l-9,47.5
			c-1.067-0.6-2.483-1.1-4.25-1.5c-3.5-0.833-6.917-0.833-10.25,0c-3.333,0.833-4.417,7.9-3.25,21.2L28.5-65.6l-11.5,1l7,40.5
			L0-24.6l4,24C6.433-0.2,9.567,0,13.4,0c7.667,0,15.033-1.033,22.1-3.1C42.6-5.2,46.65-10.417,47.65-18.75z"/>
	</g>
</symbol>
<symbol  id="FlashAICB_x2F_back_wall_x2F__x3C_Path_x3E__x5F_15" viewBox="0 -66.25 17.25 66.25">
	<g id="Layer_1_45_">
		<polygon style="fill-rule:evenodd;clip-rule:evenodd;fill:#ECECD9;" points="0,-4.75 17.25,0 17,-66.25 15,-4.5 		"/>
	</g>
</symbol>
<symbol  id="FlashAICB_x2F_back_wall_x2F__x3C_Path_x3E__x5F_16" viewBox="0 -37.75 11.702 37.778">
	<g id="Layer_1_51_">
		<path style="fill-rule:evenodd;clip-rule:evenodd;fill:#ECECD9;" d="M0-1.5c1.167,0.733,2.483,1.217,3.95,1.45
			c2.966,0.4,5.233-0.75,6.8-3.45s1.2-9.217-1.1-19.55c-1.133-5.167-2.433-10.067-3.9-14.7c1,4.3,1.833,8.8,2.5,13.5
			C9.583-14.85,9.417-9.1,7.75-7C6.083-4.933,4.3-3.4,2.4-2.4C1.433-1.9,0.633-1.6,0-1.5z"/>
	</g>
</symbol>
<symbol  id="FlashAICB_x2F_back_wall_x2F__x3C_Path_x3E__x5F_1_x5F_0" viewBox="0 -32.75 22.5 32.75">
	<g id="Layer_1_44_">
		<polygon style="fill-rule:evenodd;clip-rule:evenodd;fill:#ECECD9;" points="0,-3.5 22.5,0 13.25,-32.75 17.25,-4.5 		"/>
	</g>
</symbol>
<symbol  id="FlashAICB_x2F_back_wall_x2F__x3C_Path_x3E__x5F_1_x5F_1" viewBox="0 -25.5 31.15 25.5">
	<g id="Layer_1_50_">
		<path style="fill-rule:evenodd;clip-rule:evenodd;fill:#ECECD9;" d="M22.5-10c-3.633,2.2-8.483,4.1-14.55,5.7
			C4.95-3.467,2.3-2.867,0-2.5L1,0c2.6-0.1,5.567-0.5,8.9-1.2c6.667-1.466,11.867-3.816,15.6-7.05
			c3.767-3.233,5.65-7.083,5.65-11.55c0-2.233-0.383-4.133-1.15-5.7c0.2,1.7,0.05,3.633-0.45,5.8C28.483-15.433,26.133-12.2,22.5-10
			z"/>
	</g>
</symbol>
<symbol  id="FlashAICB_x2F_back_wall_x2F__x3C_Path_x3E__x5F_2" viewBox="0 -101 11 101">
	<g id="Layer_1_6_">
		<polygon style="fill-rule:evenodd;clip-rule:evenodd;fill:#B5B478;" points="0,-9.3 2,-18.3 4.35,0 4.7,-77 11,-76.65 11,-81.3 
			5.7,-82 1.35,-101 		"/>
	</g>
</symbol>
<symbol  id="FlashAICB_x2F_back_wall_x2F__x3C_Path_x3E__x5F_2_x5F_0" viewBox="0 -30.079 22.45 30.079">
	<g id="Layer_1_13_">
		<path style="fill-rule:evenodd;clip-rule:evenodd;fill:#B5B478;" d="M0.45-1l2.5,1c-0.333-3.667-0.333-7.417,0-11.25
			c0.667-7.667,2.667-11.917,6-12.75c3.333-0.833,6.5-0.333,9.5,1.5c1.5,0.9,2.667,1.9,3.5,3l0.5-6
			c-0.833-1.1-2.083-2.083-3.75-2.95c-3.333-1.733-7.083-2.083-11.25-1.05c-4.167,1.033-6.583,6.1-7.25,15.2
			C-0.133-9.767-0.05-5.333,0.45-1z"/>
	</g>
</symbol>
<symbol  id="FlashAICB_x2F_back_wall_x2F__x3C_Path_x3E__x5F_2_x5F_1" viewBox="-0.196 -9.524 11.153 9.548">
	<g id="Layer_1_26_">
		<path style="fill-rule:evenodd;clip-rule:evenodd;fill:#EEE4CB;" d="M8.4-4.4c2.9-3.133,3.333-4.833,1.3-5.1
			C7.767-9.733,5.367-8.25,2.5-5.05C-0.333-1.883-0.933-0.2,0.7,0C2.9,0.233,5.467-1.233,8.4-4.4z"/>
	</g>
</symbol>
<symbol  id="FlashAICB_x2F_back_wall_x2F__x3C_Path_x3E__x5F_2_x5F_2" viewBox="0 -14.5 28.5 14.5">
	<g id="Layer_1_36_">
		<polygon style="fill-rule:evenodd;clip-rule:evenodd;fill:#EEE4CB;" points="5,-1 22.5,0 28.5,-14 22.5,-14.5 18,-4.5 0,-5 		"/>
	</g>
</symbol>
<symbol  id="FlashAICB_x2F_back_wall_x2F__x3C_Path_x3E__x5F_2_x5F_3" viewBox="0 -22.25 18.75 22.25">
	<g id="Layer_1_43_">
		<polygon style="fill-rule:evenodd;clip-rule:evenodd;fill:#ECECD9;" points="0,-2.75 18.75,0 14.25,-22.25 14.75,-3 		"/>
	</g>
</symbol>
<symbol  id="FlashAICB_x2F_back_wall_x2F__x3C_Path_x3E__x5F_2_x5F_4" viewBox="0 -12.5 16.75 12.5">
	<g id="Layer_1_49_">
		<polygon style="fill-rule:evenodd;clip-rule:evenodd;fill:#ECECD9;" points="0,-3 16.75,0 13.25,-12.5 11.5,-3 		"/>
	</g>
</symbol>
<symbol  id="FlashAICB_x2F_back_wall_x2F__x3C_Path_x3E__x5F_3" viewBox="0 -58.65 24 58.65">
	<g id="Layer_1_5_">
		<polygon style="fill-rule:evenodd;clip-rule:evenodd;fill:#B5B478;" points="0,0 8.35,-2.65 9,-27.65 4.7,-26 6,-52 23,-54.65 
			24,-58.65 2.7,-57 		"/>
	</g>
</symbol>
<symbol  id="FlashAICB_x2F_back_wall_x2F__x3C_Path_x3E__x5F_3_x5F_0" viewBox="0 -35.65 2.7 35.65">
	<g id="Layer_1_11_">
		<polygon style="fill-rule:evenodd;clip-rule:evenodd;fill:#B5B478;" points="0.7,0 2.7,-35.65 0,-33.65 		"/>
	</g>
</symbol>
<symbol  id="FlashAICB_x2F_back_wall_x2F__x3C_Path_x3E__x5F_3_x5F_1" viewBox="-0.012 -71 26.712 71">
	<g id="Layer_1_12_">
		<path style="fill-rule:evenodd;clip-rule:evenodd;fill:#BCBB76;" d="M0.2-33l5.5-2.5l-2.5,25L8.2,0l3-53.5l14,2.5l1.5-11
			l-0.35-1.4c-0.434-1.133-1.067-2.167-1.9-3.1c-2.667-3-6.917-4.5-12.75-4.5c-5.833,0-9.5,6.333-11,19
			C-0.033-45.667-0.2-39.333,0.2-33z"/>
	</g>
</symbol>
<symbol  id="FlashAICB_x2F_back_wall_x2F__x3C_Path_x3E__x5F_3_x5F_2" viewBox="0.023 -88.5 38.827 88.5">
	<g id="Layer_1_25_">
		<path style="fill-rule:evenodd;clip-rule:evenodd;fill:#B5B478;" d="M4.25-1.65C5.317-0.883,6.35-0.333,7.35,0
			c-0.667-0.5-1.333-1.267-2-2.3c-1.333-2.1-2-4.5-2-7.2s0.667-4.767,2-6.2c0.667-0.7,1.333-1.133,2-1.3l15-1
			c-1.5-3.6-2.733-7.25-3.7-10.95c-1.9-7.4-1.5-11.417,1.2-12.05c2.7-0.633,6.433-0.233,11.2,1.2c2.367,0.7,4.467,1.466,6.3,2.3
			l1.5-51l-2,0.5l-1.5,47.5c-1.567-1.333-3.383-2.567-5.45-3.7c-4.066-2.233-7.25-2.833-9.55-1.8c-2.533,1.133-4.15,3.7-4.85,7.7
			c-0.633,3.4-0.517,6.833,0.35,10.3c1,4,1.5,6.167,1.5,6.5L0.85-19c-0.233,1.167-0.434,2.533-0.6,4.1c-0.333,3.167-0.3,5.8,0.1,7.9
			C0.783-4.933,2.083-3.15,4.25-1.65z"/>
	</g>
</symbol>
<symbol  id="FlashAICB_x2F_back_wall_x2F__x3C_Path_x3E__x5F_3_x5F_3" viewBox="0 -22.85 22.636 22.892">
	<g id="Layer_1_35_">
		<path style="fill-rule:evenodd;clip-rule:evenodd;fill:#EEE4CB;" d="M20.7-8.3c1.633-3.367,2.233-6.883,1.8-10.55l-5-4
			c-0.067,2.167-0.233,4.483-0.5,6.95c-0.5,4.9-1.167,8.083-2,9.55S11.417-4.367,6.75-4.8C4.417-5,2.167-5.35,0-5.85l0.5,5.5
			C10.7,1.117,17.433-1.533,20.7-8.3z"/>
	</g>
</symbol>
<symbol  id="FlashAICB_x2F_back_wall_x2F__x3C_Path_x3E__x5F_3_x5F_4" viewBox="0 -87.25 36.85 87.25">
	<g id="Layer_1_42_">
		<path style="fill-rule:evenodd;clip-rule:evenodd;fill:#B5B478;" d="M3-0.5L9,0L8.25-8L15-7.25L8.25-31l22.5-0.5L30-34.75
			l3.2-6.35c2.167-4.8,3.35-8.6,3.55-11.4c0.333-4.5-0.167-15.667-1.5-33.5L31-87.25c0.3,1.867,0.6,4.367,0.9,7.5
			c0.567,6.233,0.85,12.483,0.85,18.75c0,7.1-0.95,12.467-2.85,16.1c-1.667,3.167-4.383,5.55-8.15,7.15
			c-2.9,1.233-7.4,1.683-13.5,1.35C5.217-36.567,2.467-36.85,0-37.25L3-0.5z"/>
	</g>
</symbol>
<symbol  id="FlashAICB_x2F_back_wall_x2F__x3C_Path_x3E__x5F_4" viewBox="0 -91.35 26.65 91.35">
	<g id="Layer_1_4_">
		<polygon style="fill-rule:evenodd;clip-rule:evenodd;fill:#ECECD9;" points="0,0 23.3,-2 26.65,-43.35 23.3,-42 18.65,-91.35 
			15.3,-4.7 		"/>
	</g>
</symbol>
<symbol  id="FlashAICB_x2F_back_wall_x2F__x3C_Path_x3E__x5F_4_x5F_0" viewBox="0 -114.8 60.35 114.808">
	<g id="Layer_1_10_">
		<path style="fill-rule:evenodd;clip-rule:evenodd;fill:#B5B478;" d="M0-5.5c1.667,1.333,3.783,2.533,6.35,3.6
			c5.1,2.1,9.883,2.467,14.35,1.1c7.7-2.434,12.133-8.434,13.3-18c0.467-3.567,0.583-6.8,0.35-9.7L50-32.8l0.35-38.35l10-1l-1.65-41
			l-2.35-1.65L57-75.5l-11.65,0.35L44.7-35.8l-15,3c0.333,3.933,0.15,7.983-0.55,12.15c-1.4,8.333-4.667,13.05-9.8,14.15
			C14.217-5.367,9.45-4.867,5.05-5C2.85-5.067,1.167-5.233,0-5.5z"/>
	</g>
</symbol>
<symbol  id="FlashAICB_x2F_back_wall_x2F__x3C_Path_x3E__x5F_4_x5F_1" viewBox="0 -24.5 23 24.5">
	<g id="Layer_1_23_">
		<polygon style="fill-rule:evenodd;clip-rule:evenodd;fill:#B5B478;" points="1,0 23,-3.5 22,-24.5 19.5,-7.5 0,-2.5 		"/>
	</g>
</symbol>
<symbol  id="FlashAICB_x2F_back_wall_x2F__x3C_Path_x3E__x5F_4_x5F_2" viewBox="-0.006 -92.05 44.556 92.039">
	<g id="Layer_1_24_">
		<path style="fill-rule:evenodd;clip-rule:evenodd;fill:#BCBB76;" d="M12.05-0.05c7.1,0.566,12.983-5.1,17.65-17
			c2.333-5.934,3.95-11.934,4.85-18l10-1l-1.5-56l-6,0.5v48.5c-2.167-1.833-4.566-3.4-7.2-4.7c-5.233-2.567-9-2.5-11.3,0.2
			c-2.3,2.7-3.233,7.35-2.8,13.95l1.3,9.05l-15.5,1.5c-1.233,3.566-1.733,7.216-1.5,10.95C0.55-4.7,4.55-0.683,12.05-0.05z"/>
	</g>
</symbol>
<symbol  id="FlashAICB_x2F_back_wall_x2F__x3C_Path_x3E__x5F_4_x5F_3" viewBox="0 -16.25 21.5 16.25">
	<g id="Layer_1_41_">
		<path style="fill-rule:evenodd;clip-rule:evenodd;fill:#B5B478;" d="M1.75-0.25L4.5,0C4.167-7.333,4.25-11,4.75-11l16-2.25l0.75-3
			L0-16L1.75-0.25z"/>
	</g>
</symbol>
<symbol  id="FlashAICB_x2F_back_wall_x2F__x3C_Path_x3E__x5F_4_x5F_4" viewBox="0 -50.25 17 50.25">
	<g id="Layer_1_48_">
		<path style="fill-rule:evenodd;clip-rule:evenodd;fill:#B5B478;" d="M10.75,0L7.5-22.25L11-23.5l-3-12l9,0.75v-15.5l-2.75,1
			l-1,9.5L0-40.75C1.667-35.25,3-30,4-25S5.75-13.333,6.25-5L10.75,0z"/>
	</g>
</symbol>
<symbol  id="FlashAICB_x2F_back_wall_x2F__x3C_Path_x3E__x5F_5" viewBox="0 -46 26.65 46">
	<g id="Layer_1_3_">
		<polygon style="fill-rule:evenodd;clip-rule:evenodd;fill:#ECECD9;" points="20,-11.3 0,0 26.65,-9.3 20.65,-46 		"/>
	</g>
</symbol>
<symbol  id="FlashAICB_x2F_back_wall_x2F__x3C_Path_x3E__x5F_5_x5F_0" viewBox="0 -84.3 31.3 84.3">
	<g id="Layer_1_9_">
		<polygon style="fill-rule:evenodd;clip-rule:evenodd;fill:#ECECD9;" points="2.3,-1 20.65,0 18,-34.3 31.3,-39.3 26.65,-84.3 
			27.3,-42 15.65,-38 15.65,-3 0,-4.3 		"/>
	</g>
</symbol>
<symbol  id="FlashAICB_x2F_back_wall_x2F__x3C_Path_x3E__x5F_5_x5F_1" viewBox="0 -48.816 39 48.816">
	<g id="Layer_1_22_">
		<path style="fill-rule:evenodd;clip-rule:evenodd;fill:#B5B478;" d="M0-3l5.5,3l2-17l6.5,2c-0.067-4.833,0.167-9.6,0.7-14.3
			c1.066-9.434,3.167-13.833,6.3-13.2s7.067,3.4,11.8,8.3c2.4,2.467,4.467,4.867,6.2,7.2c-0.667-1.6-1.483-3.333-2.45-5.2
			c-1.9-3.733-3.583-6.333-5.05-7.8c-0.567-0.6-1.717-1.817-3.45-3.65c-1.7-1.733-3.316-3.017-4.85-3.85
			c-4.534-2.467-8.934-1.467-13.2,3c-4.167,4.367-7.083,12.6-8.75,24.7C0.417-13.767,0-8.167,0-3z"/>
	</g>
</symbol>
<symbol  id="FlashAICB_x2F_back_wall_x2F__x3C_Path_x3E__x5F_5_x5F_2" viewBox="0 -15.75 8 15.75">
	<g id="Layer_1_40_">
		<polygon style="fill-rule:evenodd;clip-rule:evenodd;fill:#B5B478;" points="2.25,-0.75 8,0 7.75,-4.25 4.5,-5.75 3.25,-15.75 
			0,-15.5 		"/>
	</g>
</symbol>
<symbol  id="FlashAICB_x2F_back_wall_x2F__x3C_Path_x3E__x5F_5_x5F_3" viewBox="0 -23.25 36 23.25">
	<g id="Layer_1_47_">
		<path style="fill-rule:evenodd;clip-rule:evenodd;fill:#B5B478;" d="M36-23.25c-1.233,1-2.9,2.117-5,3.35
			c-4.167,2.467-8.333,4.267-12.5,5.4s-8.5,1.85-13,2.15c-2.233,0.133-4.067,0.167-5.5,0.1L5-0.5L9,0l0.25-4l3,0.25L12-10.5
			l7.5-1.75c3.133-0.733,6.817-2.783,11.05-6.15C32.683-20.1,34.5-21.717,36-23.25z"/>
	</g>
</symbol>
<symbol  id="FlashAICB_x2F_back_wall_x2F__x3C_Path_x3E__x5F_6" viewBox="0 -169.3 45.3 169.3">
	<g id="Layer_1_2_">
		<polygon style="fill-rule:evenodd;clip-rule:evenodd;fill:#BCBB76;" points="0,0 16.65,-8.65 17.3,-45.3 42,-50 45.3,-143.3 
			37.3,-144.65 29.3,-169.3 26.65,-66.65 4,-65.3 		"/>
	</g>
</symbol>
<symbol  id="FlashAICB_x2F_back_wall_x2F__x3C_Path_x3E__x5F_6_x5F_0" viewBox="0 -31.2 37.179 31.197">
	<g id="Layer_1_8_">
		<path style="fill-rule:evenodd;clip-rule:evenodd;fill:#ECECD9;" d="M35-12.85c1.267-1.267,1.983-4.7,2.15-10.3
			c0.067-2.8,0.017-5.483-0.15-8.05c-0.1,1.934-0.517,4.017-1.25,6.25c-1.467,4.467-3.717,7.383-6.75,8.75s-6,1.667-8.9,0.9
			l-3.45-1.55c-0.5,2.767-1.566,5.367-3.2,7.8C10.183-4.217,5.7-2.7,0-4.5C1.267-3.133,2.85-2,4.75-1.1
			C8.517,0.667,11.933,0.3,15-2.2c2.467-2.033,4.033-4.25,4.7-6.65c0.367-1.2,0.466-2.2,0.3-3l5.5,1.5
			C29.6-9.783,32.767-10.617,35-12.85z"/>
	</g>
</symbol>
<symbol  id="FlashAICB_x2F_back_wall_x2F__x3C_Path_x3E__x5F_6_x5F_1" viewBox="0 -43.5 9.5 43.5">
	<g id="Layer_1_21_">
		<polygon style="fill-rule:evenodd;clip-rule:evenodd;fill:#B5B478;" points="3,0 9.5,0 6,-32.5 4,-24 0,-43.5 		"/>
	</g>
</symbol>
<symbol  id="FlashAICB_x2F_back_wall_x2F__x3C_Path_x3E__x5F_6_x5F_2" viewBox="0 -84 63.951 84">
	<g id="Layer_1_46_">
		<path style="fill-rule:evenodd;clip-rule:evenodd;fill:#BCBB76;" d="M52.5-18.5c4.6-3.767,5.817-10.067,3.65-18.9
			c-1.1-4.4-2.65-8.434-4.65-12.1l2.4,0.7c2.167,0.066,4.7-0.833,7.6-2.7c2.933-1.867,3.233-7.85,0.9-17.95
			C61.233-74.483,59.767-79.333,58-84l-6.5,2L50-74l-14.5-1c1.667,5.167,3.15,10.95,4.45,17.35C42.517-44.817,42.867-35.267,41-29
			c-1.867,6.233-9.267,10.183-22.2,11.85C12.367-16.317,6.1-16.1,0-16.5L10-1l13,1v-8.5c3.1-0.167,6.65-0.717,10.65-1.65
			C41.65-11.983,47.933-14.767,52.5-18.5z"/>
	</g>
</symbol>
<symbol  id="FlashAICB_x2F_back_wall_x2F__x3C_Path_x3E__x5F_7" viewBox="0 -130 76 130.007">
	<g id="Layer_1_7_">
		<path style="fill-rule:evenodd;clip-rule:evenodd;fill:#BCBB76;" d="M47.65-12c2.633-1.933,3.767-6.567,3.4-13.9
			c-0.2-3.7-0.667-7.184-1.4-10.45l15.35,1L65.3-69L76-73.35l-2.7-42L70.65-115l-0.35,14.35l-7-1v-25L58-130l0.65,41.35l-11.35,0.3
			L46-49l-14.7,2.65c0.3,2.4,0.333,5.15,0.1,8.25c-0.433,6.233-1.9,11.15-4.4,14.75c-2.5,3.633-7.75,5.383-15.75,5.25
			c-4-0.066-7.75-0.483-11.25-1.25c0.433,3.633,2.45,6.45,6.05,8.45c1.8,1,3.55,1.633,5.25,1.9c0.233,1.433,0.8,2.883,1.7,4.35
			c1.867,2.967,4.533,4.517,8,4.65s7-1.65,10.6-5.35C33.433-7.217,34.9-9.1,36-11l3.45,1.25C42.283-9.317,45.017-10.067,47.65-12z"
			/>
	</g>
</symbol>
<symbol  id="FlashAICB_x2F_back_wall_x2F__x3C_Path_x3E__x5F_7_x5F_0" viewBox="0 -26 17.677 26">
	<g id="Layer_1_20_">
		<path style="fill-rule:evenodd;clip-rule:evenodd;fill:#B5B478;" d="M0,0c2.667-0.767,5.4-1.833,8.2-3.2
			c5.566-2.733,8.667-5.667,9.3-8.8s-0.433-6.4-3.2-9.8c-1.367-1.733-2.8-3.133-4.3-4.2c0.433,0.567,0.867,1.467,1.3,2.7
			c0.934,2.4,1.5,5.167,1.7,8.3S11.1-8.433,6.7-4.7C4.5-2.833,2.267-1.267,0,0z"/>
	</g>
</symbol>
<symbol  id="FlashAICB_x2F_back_wall_x2F__x3C_Path_x3E__x5F_7_x5F_1" viewBox="0 -57.5 22.05 57.5">
	<g id="Layer_1_34_">
		<path style="fill-rule:evenodd;clip-rule:evenodd;fill:#B5B478;" d="M0.05-0.15c2.267,0.2,4.733,0.2,7.4,0
			c5.333-0.4,8.983-1.633,10.95-3.7c1.934-2.1,2.783-6.167,2.55-12.2c-0.1-3.034-0.4-5.85-0.9-8.45l2,0.35L17.7-56.5l-4.3-1
			c1.133,4.867,2.15,10.267,3.05,16.2c1.833,11.833,2.15,20.316,0.95,25.45c-0.9,3.867-3.083,6.9-6.55,9.1
			c-2.7,1.733-5.3,2.6-7.8,2.6c-1.533,0-2.483,0.667-2.85,2C0-1.483-0.05-0.817,0.05-0.15z"/>
	</g>
</symbol>
<symbol  id="FlashAICB_x2F_back_wall_x2F__x3C_Path_x3E__x5F_8" viewBox="0 -39.5 29.402 39.5">
	<g id="Layer_1_19_">
		<path style="fill-rule:evenodd;clip-rule:evenodd;fill:#B5B478;" d="M23.5-11c3.333-2.1,5.25-6.65,5.75-13.65
			c0.267-3.5,0.183-6.783-0.25-9.85l-3-5c0,2.233-0.15,4.833-0.45,7.8c-0.566,5.934-1.583,10.667-3.05,14.2s-5.65,6.017-12.55,7.45
			C6.483-9.35,3.167-9,0-9v8l6,1l1-4.5c1.433-0.267,3.183-0.733,5.25-1.4C16.417-7.233,20.167-8.933,23.5-11z"/>
	</g>
</symbol>
<symbol  id="FlashAICB_x2F_back_wall_x2F__x3C_Path_x3E__x5F_8_x5F_0" viewBox="0 -52.95 12.783 52.95">
	<g id="Layer_1_33_">
		<path style="fill-rule:evenodd;clip-rule:evenodd;fill:#B5B478;" d="M0-0.35L3.35,0L5.7-21.3c0.167,0.433,0.5,0.833,1,1.2
			c1,0.733,2.333,0.9,4,0.5c1.667-0.433,2.333-2.9,2-7.4c-0.167-2.233-0.5-4.433-1-6.6l-3.35-1.35L8-52.95L0-0.35z"/>
	</g>
</symbol>
<symbol  id="FlashAICB_x2F_back_wall_x2F__x3C_Path_x3E__x5F_8_x5F_1" viewBox="0 -118.5 67 118.5">
	<g id="Layer_1_39_">
		<path style="fill-rule:evenodd;clip-rule:evenodd;fill:#BCBB76;" d="M2.5-12l10-1.5L15-1l11,1l-5.5-22.5L50-22l-9-33l26,2.5
			l-0.5-61l-13.5-5c0.433,2.9,0.783,6.567,1.05,11c0.6,8.833,0.583,17-0.05,24.5c-0.567,6.733-3.9,11-10,12.8
			c-1.933,0.567-4,0.85-6.2,0.85L35-69.5l-14.5,1l4,36H0L2.5-12z"/>
	</g>
</symbol>
<symbol  id="FlashAICB_x2F_back_wall_x2F__x3C_Path_x3E__x5F_9" viewBox="0 -46.5 25.5 46.5">
	<g id="Layer_1_18_">
		<polygon style="fill-rule:evenodd;clip-rule:evenodd;fill:#ECECD9;" points="0,0 11.5,-8.5 25.5,-10.5 14.5,-46.5 17.5,-17 
			6,-14.5 		"/>
	</g>
</symbol>
<symbol  id="FlashAICB_x2F_back_wall_x2F__x3C_Path_x3E__x5F_9_x5F_0" viewBox="-0.007 -34.675 16.107 34.675">
	<g id="Layer_1_32_">
		<path style="fill-rule:evenodd;clip-rule:evenodd;fill:#B5B478;" d="M7.45-19c1.533-0.133,2.216-1.617,2.05-4.45
			c-0.067-1.433-0.3-2.833-0.7-4.2l7.3,1L15.45-33c-1.1-0.667-2.467-1.15-4.1-1.45c-3.3-0.6-6.267,0-8.9,1.8
			c-2.633,1.8-3.15,7.783-1.55,17.95C1.7-9.633,2.767-4.733,4.1,0L3.8-18.65L7.45-19z"/>
	</g>
</symbol>
<g>
	<rect style="fill-rule:evenodd;clip-rule:evenodd;fill:#D6D5A7;" width="500" height="500.004"/>
	<g>
		<path style="fill-rule:evenodd;clip-rule:evenodd;fill:#B5B478;" d="M244.05,252.428c1.767,1.733,2.6,4.483,2.5,8.25
			c-0.066,3.2-1.483,7.317-4.25,12.352c-1.4,2.533-2.783,4.733-4.15,6.601c-0.333-4.567-0.733-7.751-1.2-9.551
			c-0.167-0.667-0.934-2.367-2.3-5.101c-1.267-2.566-2-4.567-2.2-6.001c-0.267-1.834,0.117-3.467,1.15-4.9
			c0.967-1.333,2.316-2.283,4.05-2.851C240.25,250.359,242.383,250.76,244.05,252.428z"/>
		<g>
			<path style="fill-rule:evenodd;clip-rule:evenodd;fill:#446F59;" d="M243.4,253.377c1.233,1.2,1.9,2.9,2,5.101
				c0.1,2.9-0.833,6.667-2.8,11.302c-1.733,4.066-2.883,6.184-3.45,6.35c-0.066,0.034-0.217-0.866-0.45-2.699
				c-0.267-2.167-0.567-3.734-0.9-4.701c-1.8-4.101-2.9-7.084-3.3-8.951c-0.733-3.134,0.2-5.366,2.8-6.7
				C239.8,251.777,241.833,251.877,243.4,253.377z"/>
			<path style="fill-rule:evenodd;clip-rule:evenodd;fill:#51846A;" d="M237.5,254.777c0.133-0.566,0.567-1.083,1.3-1.55
				c0.934-0.634,1.9-0.684,2.9-0.15c2.7,1.434,3.533,4.517,2.5,9.251c-0.4,1.8-0.967,3.351-1.7,4.65c-0.367,0.666-0.7,1.133-1,1.399
				c0.467-1.1,0.867-2.216,1.2-3.35c0.2-0.7,0.267-1.717,0.2-3.05l-0.2-1.801l-1.5,2.851c0.1-1.366,0.033-2.718-0.2-4.051
				c-0.133-0.834-0.75-1.783-1.85-2.851L237.5,254.777z"/>
			<path style="fill-rule:evenodd;clip-rule:evenodd;fill:#385949;" d="M235.8,255.928c0.967-0.7,1.85-0.4,2.65,0.899
				c0.4,0.667,0.7,1.384,0.9,2.15c-0.167-0.267-0.4-0.5-0.7-0.7c-0.566-0.4-1.133-0.384-1.7,0.05
				c-0.567,0.434-0.583,1.367-0.05,2.801c0.3,0.867,0.883,2.233,1.75,4.101c0.8,1.767,1.083,3.95,0.85,6.551l0.85-2.051l0.35,1.701
				l1.3-1.351l-2.85,4.9c-0.233-3.267-0.683-5.852-1.35-7.751c-1.1-3.367-2-5.95-2.7-7.751c-0.4-1.134-0.4-2.066,0-2.8
				L235.8,255.928z"/>
		</g>
	</g>
	<g>
		<path style="fill-rule:evenodd;clip-rule:evenodd;fill:#B5B478;" d="M452.95,73.958c-0.233-1.867,0.166-3.5,1.2-4.901
			c0.933-1.3,2.267-2.233,4-2.8c2.6-0.867,4.75-0.483,6.449,1.15c1.733,1.733,2.567,4.484,2.5,8.251
			c-0.066,3.233-1.5,7.367-4.3,12.401l-4.149,6.601c-0.334-4.601-0.717-7.784-1.15-9.551c-0.167-0.634-0.95-2.334-2.35-5.101
			C453.884,77.441,453.15,75.425,452.95,73.958z"/>
		<g>
			<path style="fill-rule:evenodd;clip-rule:evenodd;fill:#446F59;" d="M457.8,68.107c2.533-1.3,4.566-1.2,6.101,0.3
				c1.233,1.2,1.899,2.884,2,5.051c0.1,2.9-0.817,6.667-2.75,11.301c-1.733,4.033-2.884,6.167-3.45,6.4
				c-0.066,0.033-0.217-0.867-0.45-2.7c-0.3-2.2-0.6-3.767-0.9-4.701c-1.833-4.101-2.949-7.084-3.35-8.951
				C454.267,71.674,455.2,69.44,457.8,68.107z"/>
			<path style="fill-rule:evenodd;clip-rule:evenodd;fill:#51846A;" d="M458,69.757c0.134-0.533,0.566-1.033,1.3-1.5
				c0.967-0.633,1.934-0.683,2.9-0.15c2.767,1.467,3.6,4.55,2.5,9.251c-0.4,1.8-0.967,3.351-1.7,4.65l-0.95,1.4
				c0.434-1.133,0.816-2.25,1.15-3.35c0.2-0.7,0.267-1.733,0.2-3.1l-0.2-1.801l-1.5,2.851c0.1-1.333,0.05-2.684-0.15-4.05
				c-0.133-0.833-0.767-1.784-1.899-2.85L458,69.757z"/>
			<path style="fill-rule:evenodd;clip-rule:evenodd;fill:#385949;" d="M456.3,70.958c0.967-0.701,1.851-0.417,2.65,0.85
				c0.399,0.667,0.7,1.383,0.899,2.15c-0.166-0.267-0.383-0.5-0.649-0.7c-0.566-0.367-1.134-0.35-1.7,0.05
				c-0.566,0.434-0.6,1.367-0.1,2.801c0.3,0.867,0.883,2.233,1.75,4.101c0.8,1.8,1.083,3.983,0.85,6.55l0.85-2l0.351,1.65l1.35-1.3
				l-2.85,4.851c-0.233-3.234-0.684-5.818-1.351-7.751c-1.133-3.367-2.033-5.951-2.699-7.751c-0.4-1.1-0.417-2.017-0.051-2.75
				L456.3,70.958z"/>
		</g>
	</g>
	<g>
		<path style="fill-rule:evenodd;clip-rule:evenodd;fill:#B5B478;" d="M441.75,375.19c-0.366-4.601-0.767-7.802-1.2-9.602
			c-0.166-0.633-0.95-2.333-2.35-5.101c-1.267-2.533-2-4.533-2.2-6c-0.233-1.834,0.167-3.468,1.2-4.901
			c0.934-1.333,2.267-2.283,4-2.85c2.6-0.867,4.75-0.467,6.45,1.2c1.733,1.733,2.566,4.484,2.5,8.251
			c-0.067,3.233-1.483,7.367-4.25,12.4L441.75,375.19z"/>
		<g>
			<path style="fill-rule:evenodd;clip-rule:evenodd;fill:#446F59;" d="M442.75,371.64c-0.066,0.034-0.217-0.866-0.45-2.7
				c-0.267-2.167-0.566-3.733-0.899-4.7c-1.834-4.102-2.95-7.085-3.351-8.951c-0.733-3.134,0.217-5.367,2.851-6.701
				c2.5-1.3,4.517-1.2,6.05,0.3c1.267,1.233,1.934,2.934,2,5.102c0.1,2.899-0.816,6.666-2.75,11.301
				C444.467,369.355,443.316,371.474,442.75,371.64z"/>
			<path style="fill-rule:evenodd;clip-rule:evenodd;fill:#51846A;" d="M441.05,350.287c0.134-0.533,0.566-1.05,1.3-1.55
				c0.967-0.634,1.934-0.684,2.9-0.15c2.733,1.5,3.583,4.585,2.55,9.251c-0.666,2.9-1.566,4.935-2.7,6.102
				c0.434-1.134,0.817-2.267,1.15-3.401c0.2-0.7,0.267-1.717,0.2-3.05l-0.2-1.8l-1.5,2.85c0.1-1.366,0.05-2.717-0.15-4.05
				c-0.133-0.834-0.767-1.783-1.899-2.852L441.05,350.287z"/>
			<path style="fill-rule:evenodd;clip-rule:evenodd;fill:#385949;" d="M439.35,351.438c1-0.7,1.9-0.4,2.7,0.9
				c0.367,0.667,0.65,1.384,0.851,2.15c-0.167-0.267-0.384-0.5-0.65-0.7c-0.566-0.4-1.134-0.384-1.7,0.05s-0.6,1.367-0.1,2.8
				c0.033,0.101,0.633,1.467,1.8,4.101c0.767,1.768,1.033,3.951,0.8,6.551l0.851-2.05l0.35,1.7l1.35-1.351l-2.85,4.901
				c-0.233-3.268-0.684-5.852-1.35-7.751c-1.134-3.368-2.034-5.951-2.7-7.751c-0.4-1.134-0.417-2.066-0.05-2.8L439.35,351.438z"/>
		</g>
	</g>
	<g>
		<path style="fill-rule:evenodd;clip-rule:evenodd;fill:#B5B478;" d="M83.95,406.943c-0.233-1.867,0.167-3.5,1.2-4.9
			c0.934-1.3,2.267-2.233,4-2.8c2.6-0.867,4.75-0.483,6.45,1.149c1.733,1.733,2.566,4.483,2.5,8.251
			c-0.067,3.233-1.5,7.368-4.3,12.401c-1.4,2.533-2.783,4.734-4.15,6.601c-0.333-4.601-0.717-7.784-1.15-9.551
			c-0.167-0.633-0.95-2.334-2.35-5.101C84.883,410.428,84.15,408.41,83.95,406.943z"/>
		<g>
			<path style="fill-rule:evenodd;clip-rule:evenodd;fill:#446F59;" d="M88.8,401.093c2.534-1.3,4.567-1.2,6.1,0.3
				c1.233,1.2,1.9,2.884,2,5.051c0.1,2.9-0.816,6.667-2.75,11.302c-1.733,4.033-2.883,6.166-3.45,6.399
				c-0.067,0.034-0.217-0.866-0.45-2.699c-0.3-2.2-0.6-3.767-0.9-4.7c-1.833-4.102-2.95-7.085-3.35-8.951
				C85.267,404.659,86.2,402.427,88.8,401.093z"/>
			<path style="fill-rule:evenodd;clip-rule:evenodd;fill:#51846A;" d="M89,402.743c0.133-0.533,0.567-1.033,1.3-1.5
				c0.967-0.634,1.934-0.684,2.9-0.15c2.767,1.467,3.6,4.55,2.5,9.251c-0.4,1.8-0.967,3.351-1.7,4.65
				c-0.333,0.633-0.65,1.1-0.95,1.4c0.434-1.134,0.817-2.251,1.15-3.351c0.2-0.7,0.267-1.733,0.2-3.1l-0.2-1.801l-1.5,2.851
				c0.1-1.334,0.05-2.684-0.15-4.051c-0.133-0.834-0.767-1.784-1.9-2.851L89,402.743z"/>
			<path style="fill-rule:evenodd;clip-rule:evenodd;fill:#385949;" d="M87.3,403.943c0.967-0.7,1.85-0.417,2.65,0.85
				c0.4,0.667,0.7,1.384,0.9,2.15c-0.167-0.267-0.383-0.5-0.65-0.7c-0.567-0.367-1.133-0.351-1.7,0.05
				c-0.567,0.434-0.6,1.367-0.1,2.801c0.3,0.867,0.883,2.233,1.75,4.101c0.8,1.8,1.083,3.984,0.85,6.551l0.85-2l0.35,1.649l1.35-1.3
				l-2.85,4.851c-0.233-3.233-0.684-5.817-1.35-7.751c-1.133-3.367-2.033-5.95-2.7-7.75c-0.4-1.102-0.417-2.018-0.05-2.751
				L87.3,403.943z"/>
		</g>
	</g>
	<g>
		<path style="fill-rule:evenodd;clip-rule:evenodd;fill:#B5B478;" d="M268.2,20.752c2.6-0.867,4.75-0.467,6.45,1.2
			c1.733,1.733,2.566,4.483,2.5,8.251c-0.067,3.233-1.483,7.367-4.25,12.401l-4.15,6.601c-0.366-4.601-0.767-7.801-1.2-9.601
			c-0.166-0.633-0.95-2.334-2.35-5.101c-1.267-2.534-2-4.534-2.2-6.001c-0.233-1.833,0.167-3.467,1.2-4.9
			C265.134,22.269,266.467,21.319,268.2,20.752z"/>
		<g>
			<path style="fill-rule:evenodd;clip-rule:evenodd;fill:#446F59;" d="M267.9,22.603c2.5-1.3,4.517-1.2,6.05,0.3
				c1.267,1.233,1.934,2.934,2,5.101c0.1,2.9-0.816,6.667-2.75,11.301c-1.733,4.067-2.884,6.184-3.45,6.351
				c-0.066,0.033-0.217-0.867-0.45-2.7c-0.267-2.167-0.566-3.733-0.899-4.701c-1.834-4.101-2.95-7.084-3.351-8.951
				C264.316,26.169,265.267,23.936,267.9,22.603z"/>
			<path style="fill-rule:evenodd;clip-rule:evenodd;fill:#51846A;" d="M268.05,24.302c0.134-0.533,0.566-1.05,1.3-1.55
				c0.967-0.633,1.934-0.683,2.9-0.15c2.733,1.5,3.583,4.583,2.55,9.251c-0.666,2.9-1.566,4.934-2.7,6.101
				c0.434-1.133,0.817-2.267,1.15-3.4c0.2-0.7,0.267-1.717,0.2-3.05l-0.2-1.8l-1.5,2.85c0.1-1.367,0.05-2.716-0.15-4.05
				c-0.133-0.833-0.767-1.783-1.899-2.85L268.05,24.302z"/>
			<path style="fill-rule:evenodd;clip-rule:evenodd;fill:#385949;" d="M269.05,26.353c0.367,0.667,0.65,1.383,0.851,2.15
				c-0.167-0.267-0.384-0.5-0.65-0.7c-0.566-0.4-1.134-0.383-1.7,0.05c-0.566,0.433-0.6,1.367-0.1,2.8
				c0.033,0.1,0.633,1.467,1.8,4.101c0.767,1.767,1.033,3.95,0.8,6.55l0.851-2.05l0.35,1.7l1.35-1.35l-2.85,4.9
				c-0.233-3.267-0.684-5.851-1.35-7.751c-1.134-3.367-2.034-5.951-2.7-7.751c-0.4-1.133-0.417-2.067-0.05-2.8l0.699-0.75
				C267.35,24.752,268.25,25.052,269.05,26.353z"/>
		</g>
	</g>
	<g>
		<path style="fill-rule:evenodd;clip-rule:evenodd;fill:#B5B478;" d="M156.2,122.813c1.7-0.167,3.133,0.233,4.3,1.2
			c1.467,1.267,2.3,3.367,2.5,6.3c0.2,2.701-0.933,7.035-3.4,13.001c-1.2,3-2.434,5.718-3.7,8.151c-0.967-2.4-1.967-5.117-3-8.151
			c-2-6.067-3.066-10.734-3.2-14.001c-0.067-2.066,0.55-3.667,1.85-4.8C152.683,123.58,154.233,123.013,156.2,122.813z"/>
		<path style="fill-rule:evenodd;clip-rule:evenodd;fill:#446F59;" d="M155.9,124.263c2.1-0.433,3.617,0.183,4.55,1.851
			c0.833,1.433,1.133,3.483,0.9,6.15c-0.3,3.234-2.017,8.551-5.15,15.952c-2.667-8.301-4.2-13.435-4.6-15.402
			c-0.434-2.1-0.467-3.75-0.1-4.95C152.033,125.964,153.5,124.763,155.9,124.263z"/>
		<path style="fill-rule:evenodd;clip-rule:evenodd;fill:#51846A;" d="M155.45,128.114c-0.167-0.8,0.033-1.533,0.6-2.2
			c0.567-0.667,1.3-0.867,2.2-0.601c1.933,0.601,2.817,2.268,2.65,5c-0.1,1.768-0.733,4.868-1.9,9.302l0.6-7.051l-1.8,5
			c0.333-1.566,0.583-3.134,0.75-4.7c0.3-3.201,0.05-4.884-0.75-5.051c-0.6-0.133-1.167-0.117-1.7,0.05L155.45,128.114z"/>
		<path style="fill-rule:evenodd;clip-rule:evenodd;fill:#385949;" d="M154.25,125.764c-0.667,0.533-1.133,1.533-1.4,3
			c-0.133,0.733-0.2,1.4-0.2,2l0.3-0.4c0.333-0.267,0.867-0.334,1.6-0.201c0.767,0.133,1.25,0.767,1.45,1.9
			c0.1,0.567,0.117,1.117,0.05,1.65c-0.367-0.4-0.733-0.75-1.1-1.05c-0.767-0.533-1.184-0.433-1.25,0.3
			c-0.1,1.2,0.583,4.5,2.05,9.901l0.75-1.3v2.951l1-1.05l-1.3,3.4c-0.767-2.333-1.517-4.817-2.25-7.451
			c-1.5-5.234-2.184-8.567-2.05-10.001c0.133-1.4,0.567-2.433,1.3-3.1C153.567,126.014,153.917,125.831,154.25,125.764z"/>
	</g>
	<g>
		<path style="fill-rule:evenodd;clip-rule:evenodd;fill:#B5B478;" d="M368.3,106.261c1.7-0.167,3.134,0.25,4.3,1.25
			c1.467,1.267,2.301,3.367,2.5,6.3c0.2,2.7-0.933,7.034-3.399,13.001c-1.2,2.967-2.434,5.667-3.7,8.101
			c-0.967-2.367-1.967-5.083-3-8.15c-2-6.068-3.066-10.735-3.2-14.001C361.667,108.928,363.833,106.761,368.3,106.261z"/>
		<path style="fill-rule:evenodd;clip-rule:evenodd;fill:#446F59;" d="M368,107.762c2.1-0.434,3.616,0.167,4.55,1.8
			c0.834,1.467,1.134,3.518,0.9,6.151c-0.3,3.267-2.017,8.584-5.15,15.952c-2.666-8.268-4.2-13.385-4.6-15.352
			c-0.4-2.133-0.434-3.8-0.101-5C364.167,109.412,365.634,108.229,368,107.762z"/>
		<path style="fill-rule:evenodd;clip-rule:evenodd;fill:#51846A;" d="M368.2,111.362l-0.65,0.25c-0.166-0.8,0.033-1.533,0.601-2.2
			c0.566-0.7,1.3-0.917,2.199-0.65c1.934,0.6,2.817,2.283,2.65,5.05c-0.066,1.767-0.7,4.867-1.9,9.301l0.601-7.101l-1.8,5.05
			c0.333-1.566,0.583-3.15,0.75-4.75c0.3-3.2,0.05-4.867-0.75-5C369.3,111.178,368.733,111.195,368.2,111.362z"/>
		<path style="fill-rule:evenodd;clip-rule:evenodd;fill:#385949;" d="M365.3,109.812c0.4-0.333,0.767-0.533,1.101-0.6
			c-0.7,0.566-1.184,1.583-1.45,3.05c-0.134,0.733-0.2,1.4-0.2,2l0.3-0.4c0.334-0.267,0.867-0.333,1.601-0.2
			c0.767,0.133,1.25,0.767,1.449,1.9c0.101,0.567,0.117,1.117,0.051,1.651c-0.367-0.4-0.733-0.75-1.101-1.051
			c-0.767-0.533-1.184-0.433-1.25,0.3c-0.1,1.167,0.584,4.467,2.05,9.901l0.75-1.351v2.951l1.051-1l-1.351,3.4
			c-0.767-2.334-1.517-4.818-2.25-7.451c-1.5-5.234-2.184-8.567-2.05-10.001C364.134,111.512,364.566,110.479,365.3,109.812z"/>
	</g>
	<g>
		<path style="fill-rule:evenodd;clip-rule:evenodd;fill:#B5B478;" d="M30.3,242.276c1.7-0.167,3.133,0.25,4.3,1.25
			c1.467,1.267,2.3,3.367,2.5,6.301c0.2,2.701-0.934,7.034-3.4,13.001c-1.2,2.967-2.434,5.667-3.7,8.102
			c-0.967-2.368-1.967-5.085-3-8.151c-2-6.067-3.067-10.734-3.2-14.002C23.667,244.943,25.833,242.776,30.3,242.276z"/>
		<path style="fill-rule:evenodd;clip-rule:evenodd;fill:#446F59;" d="M30,243.776c2.1-0.433,3.617,0.167,4.55,1.8
			c0.833,1.467,1.133,3.517,0.9,6.151c-0.3,3.267-2.017,8.583-5.15,15.951c-2.667-8.268-4.2-13.385-4.6-15.352
			c-0.4-2.134-0.434-3.801-0.1-5.001C26.167,245.426,27.633,244.243,30,243.776z"/>
		<path style="fill-rule:evenodd;clip-rule:evenodd;fill:#51846A;" d="M30.2,247.376l-0.65,0.25c-0.167-0.8,0.034-1.533,0.6-2.2
			c0.567-0.7,1.3-0.917,2.2-0.65c1.933,0.6,2.816,2.283,2.65,5.05c-0.067,1.767-0.7,4.868-1.9,9.3l0.6-7.1l-1.8,5.05
			c0.333-1.566,0.583-3.149,0.75-4.75c0.3-3.2,0.05-4.868-0.75-5.001C31.3,247.193,30.733,247.209,30.2,247.376z"/>
		<path style="fill-rule:evenodd;clip-rule:evenodd;fill:#385949;" d="M27.3,245.826l1.1-0.6c-0.7,0.566-1.183,1.583-1.45,3.05
			c-0.133,0.733-0.2,1.4-0.2,2c0.033-0.134,0.133-0.267,0.3-0.399c0.333-0.267,0.867-0.333,1.6-0.2c0.767,0.133,1.25,0.767,1.45,1.9
			c0.1,0.566,0.117,1.117,0.05,1.65c-0.367-0.4-0.733-0.75-1.1-1.05c-0.767-0.534-1.183-0.434-1.25,0.3
			c-0.1,1.166,0.583,4.467,2.05,9.9l0.75-1.35v2.95l1.05-1l-1.35,3.399c-0.767-2.333-1.517-4.816-2.25-7.45
			c-1.5-5.233-2.183-8.568-2.05-10.001C26.133,247.526,26.567,246.493,27.3,245.826z"/>
	</g>
	<g>
		<path style="fill-rule:evenodd;clip-rule:evenodd;fill:#B5B478;" d="M67.05,34.003c1.733-0.167,3.167,0.233,4.3,1.201
			c1.467,1.267,2.3,3.367,2.5,6.3c0.2,2.701-0.917,7.034-3.35,13.001c-1.2,3-2.433,5.717-3.7,8.151c-1-2.4-2-5.117-3-8.151
			c-2.033-6.067-3.117-10.734-3.25-14.001c-0.066-2.067,0.567-3.667,1.9-4.8C63.55,34.771,65.083,34.204,67.05,34.003z"/>
		<path style="fill-rule:evenodd;clip-rule:evenodd;fill:#446F59;" d="M66.8,35.454c2.067-0.4,3.583,0.216,4.55,1.85
			c0.833,1.467,1.133,3.518,0.9,6.151c-0.3,3.233-2.033,8.55-5.2,15.951c-2.633-8.268-4.15-13.385-4.55-15.352
			c-0.433-2.1-0.467-3.767-0.1-5C62.933,37.154,64.4,35.954,66.8,35.454z"/>
		<path style="fill-rule:evenodd;clip-rule:evenodd;fill:#51846A;" d="M66.35,39.304c-0.167-0.8,0.017-1.517,0.55-2.15
			c0.6-0.7,1.35-0.917,2.25-0.65c1.934,0.6,2.817,2.267,2.65,5c-0.1,1.8-0.733,4.9-1.9,9.301l0.55-7.05l-1.75,5
			c0.333-1.567,0.583-3.134,0.75-4.701c0.3-3.2,0.05-4.884-0.75-5.05c-0.633-0.133-1.217-0.117-1.75,0.05L66.35,39.304z"/>
		<path style="fill-rule:evenodd;clip-rule:evenodd;fill:#385949;" d="M63.75,39.955c-0.133,0.733-0.2,1.4-0.2,2l0.3-0.4
			c0.333-0.233,0.867-0.3,1.6-0.2c0.733,0.133,1.2,0.767,1.4,1.9c0.1,0.567,0.117,1.117,0.05,1.65c-0.367-0.4-0.733-0.733-1.1-1
			c-0.767-0.534-1.183-0.433-1.25,0.3c-0.1,1.167,0.6,4.45,2.1,9.851l0.7-1.3v2.95l1.05-1.05l-1.35,3.4
			c-0.767-2.333-1.517-4.8-2.25-7.401c-1.466-5.234-2.133-8.567-2-10.001c0.133-1.4,0.567-2.434,1.3-3.101
			c0.367-0.333,0.717-0.533,1.05-0.6C64.483,37.487,64.017,38.487,63.75,39.955z"/>
	</g>
	<g>
		<path style="fill-rule:evenodd;clip-rule:evenodd;fill:#B5B478;" d="M321.55,456.499c-0.066-2.066,0.566-3.667,1.9-4.801
			c1.1-0.934,2.633-1.5,4.6-1.7c1.733-0.167,3.167,0.233,4.3,1.2c1.467,1.267,2.301,3.367,2.5,6.301
			c0.2,2.7-0.916,7.034-3.35,13.001c-1.2,3.001-2.434,5.718-3.7,8.15c-1-2.399-2-5.116-3-8.15
			C322.767,464.434,321.684,459.766,321.55,456.499z"/>
		<path style="fill-rule:evenodd;clip-rule:evenodd;fill:#446F59;" d="M323.5,460.049c-0.434-2.1-0.467-3.767-0.1-5
			c0.533-1.9,2-3.101,4.399-3.601c2.066-0.4,3.584,0.216,4.55,1.851c0.834,1.467,1.134,3.517,0.9,6.15
			c-0.3,3.234-2.033,8.551-5.2,15.951C325.417,467.133,323.9,462.017,323.5,460.049z"/>
		<path style="fill-rule:evenodd;clip-rule:evenodd;fill:#51846A;" d="M327.35,455.299c-0.166-0.8,0.017-1.517,0.551-2.15
			c0.6-0.7,1.35-0.917,2.25-0.65c1.933,0.601,2.816,2.268,2.649,5.001c-0.1,1.8-0.733,4.9-1.899,9.301l0.55-7.051l-1.75,5.001
			c0.333-1.566,0.583-3.135,0.75-4.701c0.3-3.2,0.05-4.884-0.75-5.05c-0.634-0.134-1.217-0.117-1.75,0.05L327.35,455.299z"/>
		<path style="fill-rule:evenodd;clip-rule:evenodd;fill:#385949;" d="M326.15,452.949c-0.667,0.533-1.134,1.533-1.4,3
			c-0.134,0.733-0.2,1.399-0.2,2c0.033-0.134,0.134-0.267,0.3-0.4c0.334-0.233,0.867-0.3,1.601-0.2c0.733,0.134,1.2,0.767,1.399,1.9
			c0.101,0.566,0.117,1.116,0.051,1.649c-0.367-0.399-0.733-0.733-1.101-1c-0.767-0.533-1.184-0.433-1.25,0.301
			c-0.1,1.166,0.601,4.45,2.101,9.851l0.699-1.3v2.951l1.051-1.052l-1.351,3.401c-0.767-2.333-1.517-4.801-2.25-7.401
			c-1.467-5.234-2.133-8.567-2-10.001c0.134-1.399,0.566-2.433,1.3-3.1L326.15,452.949z"/>
	</g>
	
		<use xlink:href="#FlashAICB_x2F_back_wall_x2F__x3C_Group_x3E__x5F_7"  width="57" height="173.3" y="-173.3" transform="matrix(1 0 0 -1.0001 28.7002 90.7002)" style="overflow:visible;opacity:0.5;enable-background:new    ;"/>
	
		<use xlink:href="#FlashAICB_x2F_back_wall_x2F__x3C_Group_x3E__x5F_6"  width="83.3" height="144.097" y="-144.1" transform="matrix(1 0 0 -1.0001 77.0498 345.1504)" style="overflow:visible;opacity:0.5;enable-background:new    ;"/>
	
		<use xlink:href="#FlashAICB_x2F_back_wall_x2F__x3C_Group_x3E__x5F_5"  width="27.863" height="80.398" x="-0.012" y="-80.398" transform="matrix(1 0 0 -1.0001 130.3501 195.25)" style="overflow:visible;opacity:0.5;enable-background:new    ;"/>
	
		<use xlink:href="#FlashAICB_x2F_back_wall_x2F__x3C_Group_x3E__x5F_4"  width="112" height="170.45" y="-170.45" transform="matrix(1 0 0 -1.0001 226.2002 212)" style="overflow:visible;opacity:0.5;enable-background:new    ;"/>
	
		<use xlink:href="#FlashAICB_x2F_back_wall_x2F__x3C_Group_x3E__x5F_3"  width="46" height="93.689" y="-93.7" transform="matrix(1 0 0 -1.0001 368.2002 402.9502)" style="overflow:visible;opacity:0.5;enable-background:new    ;"/>
	
		<use xlink:href="#FlashAICB_x2F_back_wall_x2F__x3C_Group_x3E__x5F_2"  width="102.9" height="211.159" y="-211.15" transform="matrix(1 0 0 -1.0001 385.2998 169.7998)" style="overflow:visible;opacity:0.5;enable-background:new    ;"/>
	
		<use xlink:href="#FlashAICB_x2F_back_wall_x2F__x3C_Group_x3E__x5F_1"  width="78.5" height="126.75" y="-126.75" transform="matrix(1 0 0 -1.0001 330.2002 10)" style="overflow:visible;opacity:0.5;enable-background:new    ;"/>
	
		<use xlink:href="#FlashAICB_x2F_back_wall_x2F__x3C_Group_x3E_"  width="76.702" height="93" y="-93" transform="matrix(1 0 0 -1.0001 149.2002 16.5)" style="overflow:visible;opacity:0.5;enable-background:new    ;"/>
</g>
</svg>
