<?xml version="1.0" encoding="iso-8859-1"?>
<!-- Generator: Adobe Illustrator 15.1.0, SVG Export Plug-In . SVG Version: 6.00 Build 0)  -->
<!DOCTYPE svg PUBLIC "-//W3C//DTD SVG 1.1//EN" "http://www.w3.org/Graphics/SVG/1.1/DTD/svg11.dtd">
<svg version="1.1" id="well_x5F_01.ai" xmlns="http://www.w3.org/2000/svg" xmlns:xlink="http://www.w3.org/1999/xlink" x="0px"
	 y="0px" width="87.95px" height="92.35px" viewBox="0 0 87.95 92.35" style="enable-background:new 0 0 87.95 92.35;"
	 xml:space="preserve">
<g>
	
		<linearGradient id="SVGID_1_" gradientUnits="userSpaceOnUse" x1="-73.3979" y1="-71.2178" x2="-14.9398" y2="-71.2178" gradientTransform="matrix(-0.9999 0.0167 -0.0167 -0.9999 -9.556487e-004 -3.453344e-005)">
		<stop  offset="0" style="stop-color:#E4B48B"/>
		<stop  offset="1" style="stop-color:#D27948"/>
	</linearGradient>
	<path style="fill-rule:evenodd;clip-rule:evenodd;fill:url(#SVGID_1_);" d="M48,49c7.5-0.467,14.583-0.7,21.25-0.7
		c3.3,0.033,5.866,0.101,7.7,0.2L74.7,87.9C71.634,88.533,68.1,89.184,64.1,89.85c-8.033,1.367-14.399,2.167-19.1,2.4
		c-5.933,0.3-12.317-0.15-19.15-1.35l-8.5-1.9L16.2,54.15c2.3-0.667,5.35-1.384,9.15-2.15C32.95,50.467,40.5,49.467,48,49z"/>
	<g>
		<path style="fill-rule:evenodd;clip-rule:evenodd;fill:#BD7B54;" d="M16.55,65.3v-1.2L33,69.05L48.8,69.4l-0.2-10.65L49.7,58.7
			l0.25,10.7h0.6l11.4-3.551L76.4,58.5L76.3,59.8L71.95,62l0.8,10.1L75.7,70.7L75.6,71.95L64.2,77.4l-15,1.5l0.35,8.399l15.8-3.35
			l9.801-4.05L75.1,81.15l-8.5,3.5l0.15,4.75l-1.1,0.149l-0.15-4.5l-16.35,3.5L32.5,88.9L32.3,91.8l-1.1-0.1l0.2-2.9l-14.2-3.35
			V84.3l14.85,3.5l16.4-0.35L48.1,79l-15.7,0.55l-15.55-6.3L16.8,72l8.75,3.55l-0.1-7.6L16.55,65.3z M32.75,70.15L26.6,68.3
			l0.1,7.75l5.9,2.351l14.9-0.5L64,76.3l7.7-3.7l-0.8-10.05L62.3,66.9L50.7,70.55L32.75,70.15z"/>
	</g>
	<g>
		<path style="fill-rule:evenodd;clip-rule:evenodd;fill:#F5C4A4;" d="M48,49c7.5-0.467,14.583-0.7,21.25-0.7
			c3.3,0.033,5.866,0.101,7.7,0.2c-1.334,2.1-3.584,4.233-6.75,6.4c-6.334,4.366-14.101,6.75-23.3,7.149
			c-9.2,0.434-17.083-0.75-23.65-3.55c-2.033-0.9-3.817-1.884-5.35-2.95l-1.7-1.399c2.3-0.667,5.35-1.384,9.15-2.15
			C32.95,50.467,40.5,49.467,48,49z"/>
	</g>
	<linearGradient id="SVGID_2_" gradientUnits="userSpaceOnUse" x1="24.25" y1="54.5156" x2="69.25" y2="54.5156">
		<stop  offset="0" style="stop-color:#6E4D3B"/>
		<stop  offset="1" style="stop-color:#2D231F"/>
	</linearGradient>
	<path style="fill-rule:evenodd;clip-rule:evenodd;fill:url(#SVGID_2_);" d="M31.8,56.65l-7.55-2.4
		c6.667-1.134,13.167-2.05,19.5-2.75c6.366-0.733,12.517-1,18.45-0.8c3,0.133,5.35,0.316,7.05,0.55c-0.733,1-2.083,2.05-4.05,3.15
		c-3.934,2.166-8.917,3.449-14.95,3.85C44.217,58.684,38.067,58.15,31.8,56.65z"/>
	<polygon style="fill-rule:evenodd;clip-rule:evenodd;fill:#8F7D5C;" points="24,28.5 23,55.75 20.75,55.25 17.75,28.5 	"/>
	<polygon style="fill-rule:evenodd;clip-rule:evenodd;fill:#A89878;" points="27.65,31.85 23.85,55.4 23,55.75 23.55,31.3 	"/>
	<polygon style="fill-rule:evenodd;clip-rule:evenodd;fill:#A89878;" points="77.15,30.65 74.35,49.95 73.5,50.5 75.75,31 	"/>
	<polygon style="fill-rule:evenodd;clip-rule:evenodd;fill:#8F7D5C;" points="76.5,28.5 73.5,50.5 70.75,51.25 68,29.25 	"/>
	<polygon style="fill-rule:evenodd;clip-rule:evenodd;fill:#9C5E41;" points="66.25,7.25 80.1,32.6 55.5,33 54,28.75 43.25,28 
		40.25,33 0,32.75 20,0 	"/>
	<polygon style="fill-rule:evenodd;clip-rule:evenodd;fill:#C18564;" points="66.25,7.25 87.95,25.6 80.1,32.6 	"/>
	<polygon style="fill-rule:evenodd;clip-rule:evenodd;fill:#C18564;" points="65.25,8.05 66.4,10.85 21,0.9 	"/>
	<g>
		<g>
			<path style="fill-rule:evenodd;clip-rule:evenodd;fill:#684431;" d="M24.7,15.6l0.05,1.3c0.167,0.867,0.6,1.383,1.3,1.55
				c0.7,0.167,1.2-0.3,1.5-1.4l0.2-1.7l0.4,1.65c0,1.133-0.6,1.767-1.8,1.9c-1.233,0.133-1.883-0.383-1.95-1.55L24.7,15.6z"/>
		</g>
	</g>
	<g>
		<g>
			<path style="fill-rule:evenodd;clip-rule:evenodd;fill:#684431;" d="M18.1,30.6c-3.533-0.733-4.75-2.35-3.65-4.85
				c1.054-1.373,1.738-2.339,2.05-2.9c-0.156,0.451-0.439,1.168-0.85,2.15c-0.433,2.067,0.233,3.533,2,4.4
				c2.067,0.667,3.4-0.283,4-2.85c0.144-1.89,0.219-3.09,0.225-3.6c0.136,0.5,0.561,1.667,1.275,3.5
				C23.45,29.083,21.767,30.467,18.1,30.6z"/>
		</g>
	</g>
	<g>
		<g>
			<path style="fill-rule:evenodd;clip-rule:evenodd;fill:#684431;" d="M57.9,15.65L57.8,16.4c0.033,0.533,0.25,0.867,0.65,1
				c0.666,0.267,1.083-0.283,1.25-1.65l0.1,1c-0.066,0.667-0.467,0.983-1.2,0.95c-0.733-0.034-1.066-0.383-1-1.05L57.9,15.65z"/>
		</g>
	</g>
	<g>
		<g>
			<path style="fill-rule:evenodd;clip-rule:evenodd;fill:#684431;" d="M66.225,26.35c0.058,0.174,0.25,0.624,0.575,1.35
				c0.167,0.966-0.416,1.55-1.75,1.75c-1.2-0.034-1.75-0.55-1.649-1.55c0.252-0.781,0.401-1.265,0.449-1.45l-0.1,1
				c0.066,0.8,0.417,1.316,1.05,1.55c0.767,0.133,1.233-0.283,1.4-1.25C66.226,26.994,66.233,26.528,66.225,26.35z"/>
		</g>
	</g>
	<g>
		<g>
			<path style="fill-rule:evenodd;clip-rule:evenodd;fill:#684431;" d="M41.25,12.95c0.8,0.133,1.3-0.35,1.5-1.45V9.825
				c0.029,0.137,0.229,0.662,0.6,1.575c0.167,1.1-0.45,1.767-1.85,2c-1.367,0.033-2-0.517-1.9-1.65
				c0.298-0.95,0.457-1.516,0.475-1.7c0.002,0.15-0.023,0.55-0.075,1.2C40.067,12.15,40.483,12.717,41.25,12.95z"/>
		</g>
	</g>
	<g>
		<g>
			<path style="fill-rule:evenodd;clip-rule:evenodd;fill:#684431;" d="M45,19.7l0.1,1c0.167,0.7,0.534,1.117,1.101,1.25
				c0.6,0.1,0.983-0.3,1.149-1.2l0.101-1.35l0.399,1.35c0.067,0.9-0.399,1.417-1.399,1.55c-0.967,0.133-1.5-0.25-1.601-1.15L45,19.7
				z"/>
		</g>
	</g>
	<g>
		<g>
			<path style="fill-rule:evenodd;clip-rule:evenodd;fill:#684431;" d="M23.75,7.275c-0.061,0.092-0.161,0.234-0.3,0.425
				c-0.233,0.466-0.15,0.85,0.25,1.15c0.818,0.36,1.201-0.099,1.15-1.375c0.031,0.125,0.131,0.417,0.3,0.875
				c0.067,0.633-0.4,0.917-1.4,0.85c-0.867-0.4-1.083-0.85-0.65-1.35C23.423,7.583,23.64,7.392,23.75,7.275z"/>
		</g>
	</g>
	<g>
		<g>
			<path style="fill-rule:evenodd;clip-rule:evenodd;fill:#684431;" d="M32.85,26c-0.066-0.896,0.017-1.346,0.25-1.35
				c-0.132,0.005-0.132,0.339,0,1c0.167,0.7,0.467,1.15,0.9,1.35c0.667,0.4,1.3-0.267,1.9-2c0.033,0-0.017,0.45-0.15,1.35
				c-0.267,0.867-0.817,1.217-1.65,1.05C33.367,27.367,32.95,26.9,32.85,26z"/>
		</g>
	</g>
	<g>
		<g>
			<path style="fill-rule:evenodd;clip-rule:evenodd;fill:#684431;" d="M17.15,13.65c-0.133,0.1-0.25,0.217-0.35,0.35
				c-0.267,0.267-0.3,0.55-0.1,0.85c0.457,0.458,0.815,0.241,1.075-0.65c0.001,0.101,0.026,0.334,0.075,0.7
				c-0.1,0.434-0.5,0.483-1.2,0.15c-0.467-0.367-0.5-0.7-0.1-1C16.717,13.883,16.917,13.75,17.15,13.65z"/>
		</g>
	</g>
	<g>
		<g>
			<path style="fill-rule:evenodd;clip-rule:evenodd;fill:#684431;" d="M7.2,28.575c0.044,0.105,0.161,0.347,0.35,0.725
				c0.1,0.567-0.267,0.883-1.1,0.95c-0.767-0.133-1.034-0.483-0.8-1.05c0.251-0.343,0.401-0.576,0.45-0.7
				c-0.025,0.106-0.091,0.289-0.2,0.55c-0.1,0.4,0.05,0.7,0.45,0.9C7.069,30.146,7.352,29.688,7.2,28.575z"/>
		</g>
	</g>
	<g>
		<g>
			<path style="fill-rule:evenodd;clip-rule:evenodd;fill:#684431;" d="M68.1,20.35c0.233,0.7-0.199,1.15-1.3,1.35
				c-1-0.133-1.383-0.567-1.149-1.3c0.309-0.5,0.492-0.833,0.55-1c-0.031,0.139-0.115,0.389-0.25,0.75
				c-0.066,0.567,0.149,0.967,0.649,1.2c1.019,0.164,1.344-0.478,0.976-1.925C67.628,19.546,67.803,19.854,68.1,20.35z"/>
		</g>
	</g>
	<g>
		<g>
			<path style="fill-rule:evenodd;clip-rule:evenodd;fill:#684431;" d="M55.85,21.775c-0.021,0.104-0.088,0.313-0.199,0.625
				c-0.101,0.533,0.083,0.917,0.55,1.15c0.8,0.233,1.149-0.35,1.05-1.75l0.35,1c0.067,0.667-0.366,1.017-1.3,1.05
				c-0.866-0.133-1.184-0.533-0.95-1.2C55.636,22.197,55.803,21.905,55.85,21.775z"/>
		</g>
	</g>
</g>
</svg>
