<?xml version="1.0" encoding="iso-8859-1"?>
<!-- Generator: Adobe Illustrator 15.1.0, SVG Export Plug-In . SVG Version: 6.00 Build 0)  -->
<!DOCTYPE svg PUBLIC "-//W3C//DTD SVG 1.1//EN" "http://www.w3.org/Graphics/SVG/1.1/DTD/svg11.dtd">
<svg version="1.1" id="Layer_3" xmlns="http://www.w3.org/2000/svg" xmlns:xlink="http://www.w3.org/1999/xlink" x="0px" y="0px"
	 width="112px" height="141.75px" viewBox="0 0 112 141.75" style="enable-background:new 0 0 112 141.75;" xml:space="preserve">
<symbol  id="Body" viewBox="-22.291 -25.267 44.548 50.571">
	<g id="black_2_" style="display:none;">
	</g>
	<g id="yellow_1_">
		<g id="base_1_">
			<radialGradient id="SVGID_1_" cx="3.1001" cy="0.6499" r="29.775" gradientUnits="userSpaceOnUse">
				<stop  offset="0.2078" style="stop-color:#595900"/>
				<stop  offset="1" style="stop-color:#939300"/>
			</radialGradient>
			<path style="fill-rule:evenodd;clip-rule:evenodd;fill:url(#SVGID_1_);" d="M17.55,18.45l1.4-10.2
				C19.183,6.583,20.167,0.167,21.9-11c0.333-2.2,0.434-3.933,0.3-5.2c-0.133-1.167-0.5-2.2-1.1-3.1
				c-0.934-1.367-2.083-2.35-3.45-2.95c-2.1-0.967-4.133-1.633-6.1-2c-4.2-0.767-8.167-1.1-11.9-1c-0.566,0-1.933,0.083-4.1,0.25
				c-3.333,0.233-6.867,0.967-10.6,2.2c-2.833,1-4.784,2.083-5.85,3.25c-0.767,0.867-1.217,1.983-1.35,3.35
				c-0.1,0.8-0.017,2.233,0.25,4.3c0.433,3.1,0.783,5.85,1.05,8.25c0.3,2.533,0.7,6.65,1.2,12.35c0.433,5.033,0.717,7.966,0.85,8.8
				c0.267,1.6,0.85,2.85,1.75,3.75c1.066,1.033,3.083,1.95,6.05,2.75c3.267,0.833,6.883,1.267,10.85,1.3
				c3.167,0.034,6.117-0.183,8.85-0.65c2.667-0.433,4.75-1.033,6.25-1.8c0.833-0.333,1.467-0.9,1.9-1.7
				C17.117,20.383,17.383,19.483,17.55,18.45z"/>
		</g>
		<g id="shadow_1_">
			<path style="fill-rule:evenodd;clip-rule:evenodd;fill:#595900;" d="M17.1,12.35c-0.267,1.967-0.317,3.417-0.15,4.35
				c1.2-8.133,2.15-14.083,2.85-17.85c0.9-4.833,1.45-8.217,1.65-10.15c0.433-4.1,0.167-6.767-0.8-8c-1.633-2.1-4.9-3.617-9.8-4.55
				C6.283-24.683,1.3-24.867-4.1-24.4c-4.8,0.433-8.667,1.2-11.6,2.3c-2.466,0.967-4.133,2.117-5,3.45
				c-0.667,1.066-0.983,2.25-0.95,3.55c0,0.133,0.183,1.7,0.55,4.7c0.7,5.066,1.4,10.983,2.1,17.75c0.567,6.1,0.9,9.267,1,9.5
				l0.25-1.1c0.167-0.867,0.25-1.617,0.25-2.25c0-0.367,0.15-0.933,0.45-1.7c0.167-0.5,0.1-1-0.2-1.5c-0.5-0.9-0.833-4.25-1-10.05
				c-0.067-1.433,0.2-2.783,0.8-4.05c1.034-2.1,1.284-3,0.75-2.7c-0.433,0.233-0.9,0.267-1.4,0.1c-0.533-0.2-0.883-0.533-1.05-1
				c0.2,0.1,0.45,0.15,0.75,0.15c0.3-0.033,0.533-0.117,0.7-0.25c-0.767-0.233-1.267-0.533-1.5-0.9c-0.233-0.3-0.35-0.85-0.35-1.65
				c0.033-0.667,0.2-1.217,0.5-1.65c0.367-0.5,0.833-0.683,1.4-0.55c0.066,0,0.483,0.183,1.25,0.55
				c0.367,0.167,0.683,0.017,0.95-0.45c0.733-1.133,0.883-2.083,0.45-2.85c-0.167-0.3-0.9-0.517-2.2-0.65
				c-1.267-0.1-1.966-0.317-2.1-0.65c-0.467-1.2,0.183-2.35,1.95-3.45c1.533-0.967,3.633-1.75,6.3-2.35
				c0.277-0.063,0.552-0.121,0.825-0.175C-9.631-22.216-9.223-21.908-9-21.35c0.2,0.567,0.183,1.217-0.05,1.95
				c-0.267,0.733-0.684,1.2-1.25,1.4c-0.667,0.267-1.167,0.633-1.5,1.1c-0.333,0.467-0.434,0.933-0.3,1.4
				c0.1,0.3,0.35,0.55,0.75,0.75c0.367,0.2,0.55,0.4,0.55,0.6c0,0.1,0.183,0.417,0.55,0.95c0.4,0.534,0.65,1.25,0.75,2.15
				C-9.367-9.783-9.217-7.5-9.05-4.2c0.2,3.567,0.3,6.25,0.3,8.05c0,3,0.017,4.833,0.05,5.5c0.067,1.767,0.267,2.767,0.6,3l0.3-1.3
				c0.167-1,0.2-1.933,0.1-2.8c-0.167-1.367-0.25-5.833-0.25-13.4c-0.066-1.867,0.117-3.4,0.55-4.6
				c0.533-1.333,1.517-2.683,2.95-4.05c1.034-0.967,1.383-1.8,1.05-2.5c-0.167-0.267-0.75-0.75-1.75-1.45
				c-0.667-0.467-1.15-0.9-1.45-1.3c-0.4-0.534-0.583-1.167-0.55-1.9c0.033-0.7,0.316-1.283,0.85-1.75
				c0.194-0.178,0.452-0.353,0.775-0.525C-3.879-23.508-2.438-23.7-1.2-23.8c4.434-0.367,9.067-0.067,13.9,0.9
				c5.566,1.167,8.183,3.617,7.85,7.35c-0.033,0.533-0.316,1.167-0.85,1.9c-0.467,0.6-0.6,1.083-0.4,1.45
				c0.2,0.367,0.35,0.967,0.45,1.8c0.233,1.833-0.017,4.833-0.75,9C18.867-0.5,18.233,4.083,17.1,12.35z M6.25,24.1
				c-4,0.2-6.733,0.017-8.2-0.55c-1.7-0.667-2.25-1.65-1.65-2.95c0.6-1.267,1.95-2.267,4.05-3c-3.434,0.033-6.717,0.2-9.85,0.5
				c-6.233,0.667-8.5,1.75-6.8,3.25c1.233,1.066,3.817,1.983,7.75,2.75c6.133,1.233,12.867,1.066,20.2-0.5
				C10.05,23.8,8.217,23.967,6.25,24.1z M-2.4,22.85c0.566,0.5,1.217,0.667,1.95,0.5c1.3-0.267,1.633-0.667,1-1.2
				c-0.667-0.533-1.483-0.667-2.45-0.4C-2.767,21.983-2.933,22.35-2.4,22.85z"/>
		</g>
		<g id="mid_1_">
			<path style="fill-rule:evenodd;clip-rule:evenodd;fill:#979700;" d="M-18.95-7.1c0.6,0.633,1.25,0.817,1.95,0.55
				c0.667-0.233,1.017-0.6,1.05-1.1c0.034-0.4-0.1-0.567-0.4-0.5c-0.3,0.066-0.533,0.283-0.7,0.65
				c-0.133,0.267-0.483,0.417-1.05,0.45L-18.95-7.1z M12.95,12.45c0.133,0.233,0.2,0.4,0.2,0.5c0.033,0.233-0.05,0.35-0.25,0.35
				c-0.233,0-0.417,0.017-0.55,0.05c-0.5,0.066-0.684,0.517-0.55,1.35l0.1,0.3c0.167,0.6,0.5,1.033,1,1.3
				c0.3,0.133,0.867,0.534,1.7,1.2c0.767,0.467,1.35,0.45,1.75-0.05c0.133-0.167,0.217-0.383,0.25-0.65c0-0.167-0.017-0.4-0.05-0.7
				l0.65-6.55c0.2-2.3,0.45-4.6,0.75-6.9c0.833-6.433,1.3-10.367,1.4-11.8c0.033-0.4-0.05-0.983-0.25-1.75
				c-0.2-0.767-0.3-1.333-0.3-1.7c0.034-0.5,0.217-1,0.55-1.5c0.4-0.633,0.65-1.066,0.75-1.3c0.267-0.7,0.2-1.684-0.2-2.95
				c-0.367-0.933-1.583-1.783-3.65-2.55c-1.433-0.533-3.567-1.1-6.4-1.7c-1.867-0.4-4.033-0.6-6.5-0.6
				c-2.767,0.067-4.767,0.117-6,0.15c-1.7,0.033-2.85,0.433-3.45,1.2c-0.533,0.667-0.467,1.3,0.2,1.9
				c0.467,0.4,1.717,0.233,3.75-0.5c2.667-0.933,4.183-1.433,4.55-1.5c0.833-0.1,1.934,0.167,3.3,0.8
				c1.566,0.733,2.667,1.133,3.3,1.2c0.233,0.034,1.333,0.034,3.3,0c1.167-0.033,1.95,0.167,2.35,0.6
				c0.567,0.6,0.717,1.35,0.45,2.25c-0.133,0.434-0.5,1.167-1.1,2.2c-0.5,0.8-0.767,1.3-0.8,1.5c-0.067,0.4,0.133,0.917,0.6,1.55
				c1.6,2.067,1.9,3.867,0.9,5.4c-0.2,0.333-0.534,0.617-1,0.85c-0.733,0.333-1.133,0.517-1.2,0.55c-0.367,0.233-0.6,0.667-0.7,1.3
				c-0.1,0.667,0.1,1.017,0.6,1.05c1.1,0.133,1.917,0.534,2.45,1.2c0.566,0.7,0.85,1.817,0.85,3.35c0,0.633-0.117,1.833-0.35,3.6
				L14.9,7.8c-0.267,1.534-0.667,2.534-1.2,3c-0.333,0.2-0.567,0.35-0.7,0.45c-0.233,0.133-0.333,0.35-0.3,0.65
				C12.733,12.033,12.817,12.217,12.95,12.45z M16.15,20.95l-0.1,0.6c1-0.8,0.867-1.683-0.4-2.65c-1.167-0.9-3.167-1.8-6-2.7
				C7.083,15.4,3.6,15-0.8,15c-1.778,0-3.478,0.058-5.1,0.175C-7.421,14.916-8.455,14.491-9,13.9c-0.7-0.8-1.15-2.783-1.35-5.95
				c-0.1-1.833-0.2-4.65-0.3-8.45c-0.1-1.933-0.133-4.117-0.1-6.55c0-2.2-0.017-3.583-0.05-4.15c-0.067-0.8-0.383-1.6-0.95-2.4
				c-0.667-0.933-1.067-1.617-1.2-2.05c-0.167-0.567,0.217-1.45,1.15-2.65c0.9-1.1,1.233-1.917,1-2.45
				c-0.333-0.7-1.617-0.55-3.85,0.45c-2.2,1-3.4,1.883-3.6,2.65c-0.2,0.6,0.117,1.017,0.95,1.25c0.466,0.1,1.267,0.233,2.4,0.4
				c1,0.2,1.2,1.083,0.6,2.65c-0.467,0.7-0.75,1.25-0.85,1.65c-0.067,0.267-0.067,0.617,0,1.05c0.066,0.6,0.1,0.967,0.1,1.1
				c0,1.267-0.1,2.216-0.3,2.85c-0.267,0.6-0.45,1.067-0.55,1.4c-0.233,0.566-0.317,1.05-0.25,1.45c0.367,1.2,0.6,2.117,0.7,2.75
				c0.367,3.133,0.55,7.9,0.55,14.3c0,1.167-0.167,2.117-0.5,2.85c-0.198,0.508-0.522,1.025-0.975,1.55
				c-0.105,0.085-0.197,0.168-0.275,0.25l-0.45,1.05l0.7-0.65c0.667-0.5,1.5-0.883,2.5-1.15c1.6-0.4,4.533-0.7,8.8-0.9
				c4.467-0.233,7.533-0.184,9.2,0.15c1.467,0.267,2.667,0.883,3.6,1.85c0.933,0.966,1.617,1.5,2.05,1.6
				c0.567,0.133,1.467,0.117,2.7-0.05c1.133-0.1,1.983-0.05,2.55,0.15C15.7,20.167,16.083,20.517,16.15,20.95z"/>
		</g>
		<g id="highlight_1_">
			<path style="fill-rule:evenodd;clip-rule:evenodd;fill:#D2D200;" d="M15.5,21.95L15,22.3c1.033-0.466,1.55-1.066,1.55-1.8
				c-0.033-0.567-0.617-1.133-1.75-1.7c-0.367-0.2-1.167-0.55-2.4-1.05c-1.367-0.533-2.45-0.883-3.25-1.05L6.05,16l-1.1-0.15H3.3
				c0.269,0.006,0.669,0.056,1.2,0.15l0.85,0.15c0.833,0.2,1.467,0.483,1.9,0.85c0.5,0.367,1.017,0.917,1.55,1.65
				c0.5,0.5,1.117,0.75,1.85,0.75c0.6,0,1.383-0.033,2.35-0.1c0.8,0,1.467,0.1,2,0.3c0.967,0.4,1.333,0.867,1.1,1.4
				C16.033,21.3,15.833,21.617,15.5,21.95z M8.2-22.8l-2.55-0.15l1,0.1c1,0.167,2.434,0.45,4.3,0.85
				c1.633,0.333,2.95,0.75,3.95,1.25c0.967,0.467,1.717,1.067,2.25,1.8c0.233,0.3,0.417,0.684,0.55,1.15
				c0.167,0.5,0.283,0.867,0.35,1.1c0.233,0.767,0.534,1.25,0.9,1.45c0.3,0.133,0.583,0.083,0.85-0.15
				c0.267-0.233,0.417-0.583,0.45-1.05c0.167-1.267-0.533-2.483-2.1-3.65c-1.1-0.767-2.633-1.4-4.6-1.9
				C11.983-22.367,10.2-22.633,8.2-22.8z M17.75,1.1C17.417,4.5,17.167,6.767,17,7.9c-0.5,4.233-0.65,6.434-0.45,6.6
				c0.167,0.067,0.367-0.883,0.6-2.85c0.567-4.733,0.867-7.167,0.9-7.3c0.667-4.934,0.817-7.417,0.45-7.45
				C18.333-3.1,18.083-1.7,17.75,1.1z M12.45,22.5c0.5,0.167,1.017,0.133,1.55-0.1c0.767-0.367,0.9-0.633,0.4-0.8
				c-0.5-0.167-1.083-0.1-1.75,0.2C12.017,22.1,11.95,22.333,12.45,22.5z M14.15,20.9c0.2,0.267,0.45,0.367,0.75,0.3
				c0.467-0.067,0.6-0.217,0.4-0.45c-0.2-0.267-0.5-0.367-0.9-0.3C14.033,20.483,13.95,20.633,14.15,20.9z M-6.65,15.2
				c-1.934-0.333-3.133-1.017-3.6-2.05c-0.433-1-0.733-3.117-0.9-6.35c-0.1-1.8-0.217-4.333-0.35-7.6
				c-0.133-1.067-0.2-2.284-0.2-3.65l-0.25-6.45c0-0.767-0.066-1.417-0.2-1.95c-0.167-0.533-0.417-0.816-0.75-0.85
				c-0.333,0-0.65,0.2-0.95,0.6c-0.6,0.867-0.8,1.833-0.6,2.9c0.2,1.067,0.2,2.15,0,3.25c-0.233,1.4-0.316,3.117-0.25,5.15
				c0.2,2.3,0.317,4.017,0.35,5.15c0.2,3.433,0.317,6.05,0.35,7.85c0.033,1.6-0.05,2.8-0.25,3.6c-0.133,0.633-0.383,1.15-0.75,1.55
				l-1.2,1.35l1.2-0.6c1.133-0.467,2.467-0.833,4-1.1c0.967-0.167,3.333-0.367,7.1-0.6C-4.767,15.433-5.683,15.367-6.65,15.2z
				 M-16.6,20.15c-0.167-0.3-0.316-0.267-0.45,0.1c0.233,1.067,1.7,2.033,4.4,2.9c1.367,0.4,2.7,0.717,4,0.95
				c-3.267-0.667-5.567-1.533-6.9-2.6L-16.6,20.15z M-16.35-7.55c0.033,0.033,0.067,0.017,0.1-0.05c0.067-0.033,0.1-0.083,0.1-0.15
				c0.066-0.133,0.05-0.233-0.05-0.3c-0.133,0-0.216,0.066-0.25,0.2C-16.483-7.717-16.45-7.617-16.35-7.55z M-17.4-6.55
				c0.467-0.034,0.733-0.284,0.8-0.75c-0.133,0.233-0.417,0.383-0.85,0.45l-1.15-0.1C-18.1-6.683-17.7-6.55-17.4-6.55z M-12.05-18.5
				c0.433-0.6,0.55-1.05,0.35-1.35c-0.3-0.533-1.316-0.467-3.05,0.2c-0.7,0.267-1.3,0.617-1.8,1.05
				c-0.467,0.434-0.667,0.783-0.6,1.05c0.133,0.333,0.55,0.55,1.25,0.65c0.7,0.1,1.4,0.017,2.1-0.25
				C-13.1-17.417-12.517-17.867-12.05-18.5z M-19.15,10c0.1-3.033-0.283-6.783-1.15-11.25L-19.15,10z"/>
		</g>
	</g>
</symbol>
<symbol  id="JuJu_x5F_Yellow_x5F_anim" viewBox="-50.09 -35.308 100.015 72.631">
	<g id="left_arm_1_">
		
			<use xlink:href="#arm_x5F_left"  width="14.168" height="9.357" x="-0.014" y="-4.65" transform="matrix(0.7789 -0.7538 0.7538 0.7789 21.6499 -0.6504)" style="overflow:visible;"/>
	</g>
	<g id="left_hand_1_">
		
			<use xlink:href="#hand_x5F_left"  width="17.571" height="14.248" x="-1.578" y="-2.7" transform="matrix(0.5573 -0.9297 0.9297 0.5573 34 -7.1499)" style="overflow:visible;"/>
	</g>
	<g id="left_leg_1_">
		
			<use xlink:href="#leg_x5F_left"  width="15.754" height="18.5" x="-7.853" y="-18.5" transform="matrix(1.0864 0 -0.0465 1.0864 11.0005 -11.2993)" style="overflow:visible;"/>
	</g>
	<g id="right_leg_1_">
		
			<use xlink:href="#leg_x5F_right"  width="19.652" height="21.5" x="-9.85" y="-21.5" transform="matrix(1.0864 0 -0.0465 1.0864 -7.1001 -11.9497)" style="overflow:visible;"/>
	</g>
	<g id="body_1_">
		
			<use xlink:href="#Body"  width="44.548" height="50.571" x="-22.291" y="-25.267" transform="matrix(1.072 -0.1743 0.1743 1.072 2.8999 9.5)" style="overflow:visible;"/>
	</g>
	<g id="face_1_">
		
			<use xlink:href="#face"  width="20.555" height="30.45" x="-10.202" y="-15.25" transform="matrix(1.072 -0.1743 0.1743 1.072 7.8999 7.6494)" style="overflow:visible;"/>
	</g>
	<g id="right_arm_1_">
		
			<use xlink:href="#arm_x5F_right"  width="15.743" height="10.385" x="-15.754" y="-5.2" transform="matrix(1.0155 0.385 -0.385 1.0155 -15.9502 4)" style="overflow:visible;"/>
	</g>
	<g id="right_hand_1_">
		
			<use xlink:href="#hand_x5F_right"  width="19.534" height="15.447" x="-17.758" y="-3.233" transform="matrix(0.8813 0.6347 -0.6347 0.8813 -31.0498 2.1499)" style="overflow:visible;"/>
	</g>
	<g>
		<g id="mask_1_">
		</g>
		<g id="FX_1_">
		</g>
	</g>
</symbol>
<symbol  id="Juju_x5F_yellow" viewBox="-1.746 -29.981 3.486 2.531">
	<g id="JuJu_1_">
		
			<use xlink:href="#JuJu_x5F_Yellow_x5F_anim"  width="100.015" height="72.631" x="-50.09" y="-35.308" transform="matrix(0.0349 0 0 0.0349 0 -28.75)" style="overflow:visible;opacity:0;"/>
	</g>
	<g id="state_1_">
	</g>
</symbol>
<symbol  id="arm_x5F_left" viewBox="-0.014 -4.65 14.168 9.357">
	<g id="Layer_1_12_">
		<g>
			<path style="fill-rule:evenodd;clip-rule:evenodd;fill:#6F6F00;" d="M2.6,0.15C3.567-0.417,4.583-0.667,5.65-0.6
				c2.033,0.2,3.7,1.667,5,4.4c0.233,0.467,0.583,0.75,1.05,0.85c0.5,0.133,0.983,0.033,1.45-0.3c0.467-0.3,0.767-0.717,0.9-1.25
				c0.167-0.567,0.133-1.083-0.1-1.55c-2-4.133-4.717-6.2-8.15-6.2c-1.1,0-2.183,0.2-3.25,0.6c-0.7,0.267-1.2,0.517-1.5,0.75
				C0.617-3,0.3-2.583,0.1-2.05C-0.067-1.483-0.05-0.967,0.15-0.5C0.383,0,0.733,0.3,1.2,0.4C1.667,0.533,2.133,0.45,2.6,0.15z"/>
		</g>
		<path style="fill-rule:evenodd;clip-rule:evenodd;fill:#ECEC00;" d="M7.25-0.8C6.717-1,6.217-1.083,5.75-1.05
			c-0.5,0.066-0.833,0.133-1,0.2c0.5-0.066,0.95-0.066,1.35,0l0.5,0.1L7.4-0.5C8-0.233,8.5,0.183,8.9,0.75
			c-0.133-0.433-0.467-0.833-1-1.2L7.3-0.8H7.25z"/>
	</g>
</symbol>
<symbol  id="arm_x5F_right" viewBox="-15.754 -5.2 15.743 10.385">
	<g id="Layer_1_5_">
		<path style="fill-rule:evenodd;clip-rule:evenodd;fill:#6F6F00;" d="M-13.05,5.15c0.533-0.133,0.933-0.45,1.2-0.95
			c1.467-3.067,3.317-4.7,5.55-4.9c1.233-0.1,2.367,0.184,3.4,0.85c0.5,0.333,1.017,0.434,1.55,0.3s0.917-0.467,1.15-1
			c0.233-0.534,0.25-1.1,0.05-1.7C-0.317-2.883-0.667-3.367-1.2-3.7c-0.333-0.233-0.883-0.5-1.65-0.8c-1.2-0.467-2.4-0.7-3.6-0.7
			c-3.833,0-6.867,2.3-9.1,6.9c-0.233,0.5-0.267,1.066-0.1,1.7c0.2,0.6,0.55,1.067,1.05,1.4C-14.1,5.133-13.583,5.25-13.05,5.15z"/>
		<path style="fill-rule:evenodd;clip-rule:evenodd;fill:#939300;" d="M-2.1,0.25C-1.833,0.283-1.85,0.1-2.15-0.3
			c-0.3-0.4-0.8-0.684-1.5-0.85c-0.667-0.167-1.434-0.167-2.3,0L-6.775-0.9c0.738-0.176,1.613-0.076,2.625,0.3
			C-3.517-0.4-2.833-0.117-2.1,0.25z"/>
		<path style="fill-rule:evenodd;clip-rule:evenodd;fill:#ECEC00;" d="M-5.45-1.1c-1.167-0.066-2.3,0.333-3.4,1.2l0.95-0.5
			c0.8-0.3,1.6-0.45,2.4-0.45c1.133,0,2.217,0.317,3.25,0.95C-3.117-0.7-4.184-1.1-5.45-1.1z"/>
		<path style="fill-rule:evenodd;clip-rule:evenodd;fill:#939300;" d="M-11.85-3.3c2.467-1.3,5.066-1.684,7.8-1.15
			c1.367,0.267,2.483,0.667,3.35,1.2c-0.6-0.767-2.167-1.367-4.7-1.8C-6.967-5.317-8.517-5.1-10.05-4.4L-11.85-3.3z"/>
	</g>
</symbol>
<symbol  id="eyebrow_x5F_left" viewBox="-2.651 -2.653 5.286 5.353">
	<g id="Layer_1_7_">
		<path style="fill-rule:evenodd;clip-rule:evenodd;fill:#D2D200;" d="M-2.55-2.6c-0.3,0.4,0.067,1.233,1.1,2.5
			c1.167,1.434,2.517,2.367,4.05,2.8c0.1,0-0.017-0.1-0.35-0.3c-0.633-0.333-1.233-0.783-1.8-1.35C0.017,0.65-0.6-0.2-1.399-1.5
			C-2-2.433-2.383-2.8-2.55-2.6z"/>
	</g>
</symbol>
<symbol  id="eyebrow_x5F_right" viewBox="-2.8 -3.389 5.556 6.839">
	<g id="Layer_1_6_">
		<path style="fill-rule:evenodd;clip-rule:evenodd;fill:#D2D200;" d="M2.75-2.9C2.717-3.4,2.6-3.517,2.4-3.25
			C2.2-3.017,1.883-2.333,1.45-1.2C0.717,0.867-0.7,2.417-2.8,3.45c0.467,0,1.233-0.4,2.3-1.2c1.433-1.1,2.4-2.283,2.9-3.55
			C2.667-1.966,2.783-2.5,2.75-2.9z"/>
	</g>
</symbol>
<symbol  id="face" viewBox="-10.202 -15.25 20.555 30.45">
	<g id="mouth_1_">
		<g>
			<path style="fill-rule:evenodd;clip-rule:evenodd;fill:#BBA400;" d="M0.55-13.9c1,0.167,1.817,0.15,2.45-0.05
				c0.6-0.2,1.067-0.533,1.4-1c-0.533,0.367-1.5,0.534-2.9,0.5c-0.833-0.033-1.65-0.183-2.45-0.45l-0.95-0.35l0.65,0.5
				C-0.683-14.35-0.083-14.067,0.55-13.9z"/>
			<path style="fill-rule:evenodd;clip-rule:evenodd;fill:#BBA400;" d="M5.725-6.05C7.943-7.048,9.293-8.365,9.775-10
				c0.483-1.634,0.091-2.9-1.175-3.8c-1.267-0.9-2.85-0.9-4.75,0c-0.767,0.333-1.483,0.5-2.15,0.5c-0.7-0.067-1.684-0.35-2.95-0.85
				c-3.6-1.434-5.933-1.434-7,0c-0.833,1.1-0.733,2.45,0.3,4.05c1.167,1.867,3.184,3.259,6.05,4.175
				C0.965-5.01,3.507-5.052,5.725-6.05z"/>
			<path style="fill-rule:evenodd;clip-rule:evenodd;fill:#353402;" d="M1.8-12.6c-0.767-0.033-1.733-0.233-2.9-0.6
				c-1.767-0.633-2.917-1-3.45-1.1c-1.2-0.167-2.083,0.117-2.65,0.85c-0.667,0.934-0.517,2.05,0.45,3.35c1.1,1.4,2.85,2.5,5.25,3.3
				C0.933-6,3.233-6,5.4-6.8c1.967-0.733,3.133-1.817,3.5-3.25c0.367-1.367,0.05-2.4-0.95-3.1c-1.067-0.733-2.4-0.717-4,0.05
				C3.25-12.767,2.533-12.6,1.8-12.6z"/>
			<path style="fill-rule:evenodd;clip-rule:evenodd;fill:#FFFFFF;" d="M1.9-9.188L1.65-7.566L1.5-9.333
				C0.867-9.336,0.333-9.146-0.1-8.761c-0.367,0.326-0.633,0.763-0.8,1.311v0.6C-0.577-6.7,0.023-6.558,0.9-6.424
				c0.875,0.134,1.775,0.109,2.7-0.073c0.133-0.352-0.017-0.919-0.45-1.7C3.083-8.306,2.867-8.546,2.5-8.921
				C2.133-9.128,1.933-9.217,1.9-9.188z"/>
			
				<linearGradient id="SVGID_2_" gradientUnits="userSpaceOnUse" x1="15949.6699" y1="399.3193" x2="15950.6963" y2="399.3193" gradientTransform="matrix(0.0487 1.0043 -0.9994 -0.0753 -376.665 -15994.2773)">
				<stop  offset="0" style="stop-color:#BFC9BA"/>
				<stop  offset="0.1059" style="stop-color:#C9D1C5"/>
				<stop  offset="0.4745" style="stop-color:#E6EAE4"/>
				<stop  offset="0.7882" style="stop-color:#F8F9F8"/>
				<stop  offset="1" style="stop-color:#FFFFFF"/>
			</linearGradient>
			<path style="fill-rule:evenodd;clip-rule:evenodd;fill:url(#SVGID_2_);" d="M3.75-7.031l-0.2,0.028
				C3.117-6.885,2.7-6.832,2.3-6.843C2.067-6.802,1.717-6.808,1.25-6.86C1.183-6.868,0.9-6.916,0.4-7.005L0.05-7.095
				c-0.633-0.204-1-0.295-1.1-0.272v0.5c0.43,0.058,0.763,0.128,1,0.211c0.236,0.083,0.437,0.122,0.6,0.117L0.9-6.449
				c0.4,0.044,0.883,0.065,1.45,0.062c0.533-0.041,1-0.072,1.4-0.094V-7.031z"/>
			
				<radialGradient id="SVGID_3_" cx="-49.8853" cy="843.5645" r="5.6223" gradientTransform="matrix(0.9938 0.1112 0 -0.6514 50.4258 544.5557)" gradientUnits="userSpaceOnUse">
				<stop  offset="0" style="stop-color:#DB3052"/>
				<stop  offset="1" style="stop-color:#353402"/>
			</radialGradient>
			<path style="fill-rule:evenodd;clip-rule:evenodd;fill:url(#SVGID_3_);" d="M1.3-12.55c-1.4-0.133-2.733-0.434-4-0.9l-1.95-0.6
				c0.93,1.635,2.014,2.651,3.25,3.05c1.242,0.396,2.208,0.329,2.9-0.2c0.467,0.5,1.133,0.667,2,0.5c0.833-0.167,1.5-1.05,2-2.65
				C4.1-12.683,2.7-12.417,1.3-12.55z"/>
		</g>
	</g>
	<g id="nose_1_">
		
			<use xlink:href="#nose"  width="3.925" height="1.266" x="-1.95" y="-0.65" transform="matrix(1 0 0 1 1.8999 -3.8501)" style="overflow:visible;"/>
	</g>
	<g id="left_eye_1_">
		<g>
			<path style="fill-rule:evenodd;clip-rule:evenodd;fill:#BBBB00;" d="M8.15,10.9c0.6-0.5,1.117-1.417,1.55-2.75
				c0.433-1.433,0.65-3.017,0.65-4.75c0.019-0.884-0.057-1.643-0.225-2.275C10.152,1.146,10.177,1.17,10.2,1.2
				C10.14,1.034,10.073,0.875,10,0.725C9.886,0.371,9.736,0.063,9.55-0.2c-0.2-0.267-0.4-0.483-0.6-0.65L8.925-0.8
				C8.621-1.057,8.313-1.149,8-1.075C7.835-1.03,7.668-0.939,7.5-0.8C6.9-0.3,6.383,0.617,5.95,1.95C5.517,3.383,5.3,4.967,5.3,6.7
				c-0.033,1.6,0.233,2.8,0.8,3.6c0.184,0.276,0.376,0.493,0.575,0.65C6.907,11.117,7.148,11.2,7.4,11.2
				c0.082,0.006,0.165-0.002,0.25-0.025V11.2c0.084-0.034,0.167-0.076,0.25-0.125C7.944,11.052,7.985,11.027,8.025,11
				C8.066,10.969,8.107,10.936,8.15,10.9z"/>
		</g>
	</g>
	<g id="left_eyebrow_1_">
		
			<use xlink:href="#eyebrow_x5F_left"  width="5.286" height="5.353" x="-2.651" y="-2.653" transform="matrix(1 0 0 1 7 11.8501)" style="overflow:visible;"/>
	</g>
	<g id="right_eye_1_">
		<g>
			<path style="fill-rule:evenodd;clip-rule:evenodd;fill:#BBBB00;" d="M-3,4.45c-0.1-1.9-0.5-3.467-1.2-4.7
				C-4.39-0.609-4.589-0.917-4.8-1.175C-5.292-1.778-5.843-2.103-6.45-2.15C-6.95-2.183-7.433-1.967-7.9-1.5
				C-7.934-1.459-7.968-1.417-8-1.375V-1.4c-0.16,0.254-0.41,0.771-0.75,1.55C-9.091,0.939-9.307,2.13-9.4,3.725
				c-0.093,1.596,0.007,3.012,0.3,4.25C-8.808,9.21-8.441,10.102-8,10.65v-0.025c0.079,0.102,0.162,0.194,0.25,0.275
				c0.967,0.934,1.883,1.05,2.75,0.35c0.067-0.058,0.134-0.125,0.2-0.2c0.391-0.416,0.758-1.066,1.1-1.95
				C-3.167,7.7-2.933,6.15-3,4.45z"/>
			<path style="fill-rule:evenodd;clip-rule:evenodd;fill:#BBBB00;" d="M-8.45-2c0.034-0.067,0.2-0.283,0.5-0.65
				c0.2-0.367,0.15-0.533-0.15-0.5l-0.35,0.1c-0.466,0.3-0.85,0.933-1.15,1.9c-0.566,1.5-0.733,2.75-0.5,3.75
				c0.067-1.3,0.35-2.417,0.85-3.35L-8.45-2z"/>
		</g>
	</g>
	<g id="right_eyebrow_1_">
		
			<use xlink:href="#eyebrow_x5F_right"  width="5.556" height="6.839" x="-2.8" y="-3.389" transform="matrix(1 0 0 1 -5.25 11.75)" style="overflow:visible;"/>
	</g>
</symbol>
<symbol  id="hand_x5F_left" viewBox="-1.578 -2.7 17.571 14.248">
	<g id="Layer_1_11_">
		
			<linearGradient id="SVGID_4_" gradientUnits="userSpaceOnUse" x1="10677.3506" y1="-19331.8086" x2="10680.7217" y2="-19331.8086" gradientTransform="matrix(-0.8455 -0.534 0.534 -0.8455 19351.4551 -10642.6484)">
			<stop  offset="0" style="stop-color:#969482"/>
			<stop  offset="0.1255" style="stop-color:#A9A798"/>
			<stop  offset="0.4" style="stop-color:#CECDC4"/>
			<stop  offset="0.651" style="stop-color:#E9E8E4"/>
			<stop  offset="0.8588" style="stop-color:#F9F9F8"/>
			<stop  offset="1" style="stop-color:#FFFFFF"/>
		</linearGradient>
		<path style="fill-rule:evenodd;clip-rule:evenodd;fill:url(#SVGID_4_);" d="M-1.5,2.4c0.133,0.7,0.483,1.217,1.05,1.55
			C0.05,4.283,0.633,4.367,1.3,4.2c0.967-0.233,1.75-0.983,2.35-2.25c0.566-1.167,0.7-2.117,0.4-2.85
			C3.684-1.733,3.167-2.284,2.5-2.55C1.733-2.85,0.967-2.7,0.2-2.1C-1.233-1.034-1.8,0.466-1.5,2.4z"/>
		<linearGradient id="SVGID_5_" gradientUnits="userSpaceOnUse" x1="-9.4624" y1="4.6011" x2="7.4626" y2="4.6011">
			<stop  offset="0" style="stop-color:#969482"/>
			<stop  offset="0.1255" style="stop-color:#A9A798"/>
			<stop  offset="0.4" style="stop-color:#CECDC4"/>
			<stop  offset="0.651" style="stop-color:#E9E8E4"/>
			<stop  offset="0.8588" style="stop-color:#F9F9F8"/>
			<stop  offset="1" style="stop-color:#FFFFFF"/>
		</linearGradient>
		<path style="fill-rule:evenodd;clip-rule:evenodd;fill:url(#SVGID_5_);" d="M10.05,9.65c1.467,0.3,2.517,0.133,3.15-0.5
			c0.333-0.3,0.5-0.684,0.5-1.15c0-0.2-0.2-0.383-0.6-0.55l-2-0.65c-1.033-0.4-1.867-0.817-2.5-1.25l-0.7-0.5l3.15,0.5
			c2.267,0.1,3.8-0.367,4.6-1.4c0.4-0.533,0.45-1.067,0.15-1.6c-0.267-0.433-0.55-0.667-0.85-0.7c-0.067,0-0.617,0.1-1.65,0.3
			c-1.033,0.2-2.017,0.267-2.95,0.2C9.717,2.316,9.2,2.216,8.8,2.05l-0.35-0.2l2.35-0.5c1.633-0.5,2.55-1.183,2.75-2.05
			c0.133-0.6,0.017-1.067-0.35-1.4c-0.3-0.267-0.6-0.317-0.9-0.15c-0.667,0.333-1.5,0.617-2.5,0.85C8.9-1.233,8.317-1.184,8.05-1.25
			C6.583-1.583,5.467-1.8,4.7-1.9c-1.5-0.167-2.583,0-3.25,0.5C0.817-1.034,0.4-0.633,0.2-0.2C0.067,0.9-0.05,1.483-0.15,1.55
			c-0.633,0.4-0.9,0.983-0.8,1.75c0,0.2,0.05,0.467,0.15,0.8c0.2,0.667,0.533,1.3,1,1.9C0.7,6.7,1,7.183,1.1,7.45
			c0.133,0.434,0.033,0.833-0.3,1.2C0.233,9.25-0.117,9.7-0.25,10c-0.2,0.566,0.034,1,0.7,1.3c0.867,0.4,1.717,0.317,2.55-0.25
			c0.9-0.633,1.333-1.617,1.3-2.95L5,7.75c0.534-0.2,0.95-0.2,1.25,0C7.684,8.816,8.95,9.45,10.05,9.65z"/>
		
			<linearGradient id="SVGID_6_" gradientUnits="userSpaceOnUse" x1="9754.9316" y1="3259.3457" x2="9757.8066" y2="3259.3457" gradientTransform="matrix(0.6 0.8 -0.8 0.6 -3242.4004 -9757.2002)">
			<stop  offset="0" style="stop-color:#969482"/>
			<stop  offset="0.1255" style="stop-color:#A9A798"/>
			<stop  offset="0.4" style="stop-color:#CECDC4"/>
			<stop  offset="0.651" style="stop-color:#E9E8E4"/>
			<stop  offset="0.8588" style="stop-color:#F9F9F8"/>
			<stop  offset="1" style="stop-color:#FFFFFF"/>
		</linearGradient>
		<path style="fill-rule:evenodd;clip-rule:evenodd;fill:url(#SVGID_6_);" d="M0.95,2.3L2.35,3c1.1,0.367,2.167,0.316,3.2-0.15
			C3.85,2.983,2.317,2.8,0.95,2.3z"/>
		<linearGradient id="SVGID_7_" gradientUnits="userSpaceOnUse" x1="7.125" y1="3.125" x2="9.675" y2="3.125">
			<stop  offset="0" style="stop-color:#969482"/>
			<stop  offset="0.1255" style="stop-color:#A9A798"/>
			<stop  offset="0.4" style="stop-color:#CECDC4"/>
			<stop  offset="0.651" style="stop-color:#E9E8E4"/>
			<stop  offset="0.8588" style="stop-color:#F9F9F8"/>
			<stop  offset="1" style="stop-color:#FFFFFF"/>
		</linearGradient>
		<path style="fill-rule:evenodd;clip-rule:evenodd;fill:url(#SVGID_7_);" d="M7.1,6.2l1.1-1.8c0.6-1.467,0.467-2.917-0.4-4.35
			C7.9,0.617,7.95,1.3,7.95,2.1C7.95,3.7,7.667,5.066,7.1,6.2z"/>
	</g>
</symbol>
<symbol  id="hand_x5F_right" viewBox="-17.758 -3.233 19.534 15.447">
	<g id="Layer_1_4_">
		
			<linearGradient id="SVGID_8_" gradientUnits="userSpaceOnUse" x1="-2810.1641" y1="-4606.4321" x2="-2804.6294" y2="-4606.4321" gradientTransform="matrix(0.8899 -0.4562 0.4562 0.8899 4601.0659 2817.4346)">
			<stop  offset="0" style="stop-color:#969482"/>
			<stop  offset="0.1255" style="stop-color:#A9A798"/>
			<stop  offset="0.4" style="stop-color:#CECDC4"/>
			<stop  offset="0.651" style="stop-color:#E9E8E4"/>
			<stop  offset="0.8588" style="stop-color:#F9F9F8"/>
			<stop  offset="1" style="stop-color:#FFFFFF"/>
		</linearGradient>
		<path style="fill-rule:evenodd;clip-rule:evenodd;fill:url(#SVGID_8_);" d="M-3.3,3.05c1.233,1.233,2.45,1.566,3.65,1
			c1.233-0.567,1.667-1.717,1.3-3.45C1.283-1.066,0.5-2.217-0.7-2.85c-1.167-0.566-2.233-0.466-3.2,0.3
			C-4.7-1.917-4.95-0.933-4.65,0.4C-4.383,1.533-3.933,2.417-3.3,3.05z"/>
		
			<linearGradient id="SVGID_9_" gradientUnits="userSpaceOnUse" x1="19008.3828" y1="-11827.8096" x2="19023.4199" y2="-11827.8096" gradientTransform="matrix(-0.8977 0.4406 -0.4406 -0.8977 11862.1924 -18995.7695)">
			<stop  offset="0" style="stop-color:#969482"/>
			<stop  offset="0.1255" style="stop-color:#A9A798"/>
			<stop  offset="0.4" style="stop-color:#CECDC4"/>
			<stop  offset="0.651" style="stop-color:#E9E8E4"/>
			<stop  offset="0.8588" style="stop-color:#F9F9F8"/>
			<stop  offset="1" style="stop-color:#FFFFFF"/>
		</linearGradient>
		<path style="fill-rule:evenodd;clip-rule:evenodd;fill:url(#SVGID_9_);" d="M-14.65,7.7c-0.367,0.167-0.55,0.35-0.55,0.55
			c-0.034,0.6,0.2,1.083,0.7,1.45c0.733,0.566,1.85,0.7,3.35,0.4c0.867-0.167,1.683-0.467,2.45-0.9C-8.4,9.033-7.816,8.633-6.95,8
			c0.566-0.4,1.283-0.267,2.15,0.4c-0.033,1.467,0.467,2.55,1.5,3.25c0.933,0.633,1.867,0.733,2.8,0.3
			c0.767-0.367,1.033-0.85,0.8-1.45C0.133,10.133-0.267,9.633-0.9,9c-0.4-0.4-0.517-0.85-0.35-1.35c0.1-0.3,0.434-0.833,1-1.6
			c0.833-1.1,1.267-2.083,1.3-2.95c0.1-0.867-0.184-1.533-0.85-2c0.066-0.933-0.217-1.767-0.85-2.5c-0.7-0.833-1.867-1.283-3.5-1.35
			c-1,0-2.583,0.25-4.75,0.75c-0.3,0.1-0.967,0.033-2-0.2c-1.1-0.233-2.017-0.55-2.75-0.95c-0.3-0.167-0.633-0.083-1,0.25
			c-0.433,0.333-0.567,0.833-0.4,1.5c0.233,0.967,1.25,1.733,3.05,2.3c0.9,0.267,1.783,0.434,2.65,0.5c-0.3,0.3-1.017,0.5-2.15,0.6
			c-1.033,0.067-2.133-0.017-3.3-0.25c-1.1-0.233-1.717-0.333-1.85-0.3c-0.3,0.033-0.6,0.3-0.9,0.8c-0.333,0.6-0.267,1.184,0.2,1.75
			c0.9,1.133,2.6,1.65,5.1,1.55C-11.017,5.483-9.867,5.3-8.8,5c-0.533,0.567-1.717,1.217-3.55,1.95
			C-13.483,7.283-14.25,7.533-14.65,7.7z"/>
		
			<linearGradient id="SVGID_10_" gradientUnits="userSpaceOnUse" x1="17085.5527" y1="-15347.7588" x2="17087.4629" y2="-15347.7588" gradientTransform="matrix(-0.9945 0.1047 -0.1047 -0.9945 15377.1514 -17049.0938)">
			<stop  offset="0" style="stop-color:#969482"/>
			<stop  offset="0.1255" style="stop-color:#A9A798"/>
			<stop  offset="0.4" style="stop-color:#CECDC4"/>
			<stop  offset="0.651" style="stop-color:#E9E8E4"/>
			<stop  offset="0.8588" style="stop-color:#F9F9F8"/>
			<stop  offset="1" style="stop-color:#FFFFFF"/>
		</linearGradient>
		<path style="fill-rule:evenodd;clip-rule:evenodd;fill:url(#SVGID_10_);" d="M-7.65,6.35C-8.283,5.083-8.6,3.567-8.6,1.8
			c0-0.867,0.067-1.617,0.2-2.25c-0.967,1.567-1.133,3.167-0.5,4.8L-7.65,6.35z"/>
		
			<linearGradient id="SVGID_11_" gradientUnits="userSpaceOnUse" x1="13300.9395" y1="2153.0684" x2="13303.4141" y2="2153.0684" gradientTransform="matrix(0.3132 0.9497 -0.9497 0.3132 -2124.5791 -13304.208)">
			<stop  offset="0" style="stop-color:#969482"/>
			<stop  offset="0.1255" style="stop-color:#A9A798"/>
			<stop  offset="0.4" style="stop-color:#CECDC4"/>
			<stop  offset="0.651" style="stop-color:#E9E8E4"/>
			<stop  offset="0.8588" style="stop-color:#F9F9F8"/>
			<stop  offset="1" style="stop-color:#FFFFFF"/>
		</linearGradient>
		<path style="fill-rule:evenodd;clip-rule:evenodd;fill:url(#SVGID_11_);" d="M-4.4,4.55c0.133-0.467,0.667-1,1.6-1.6l2-1.25
			c-1.434,0.467-2.767,0.7-4,0.7l-1.4-0.15c0.4,0.233,0.816,0.417,1.25,0.55c0.233,0.066,0.433,0.117,0.6,0.15
			c0.034,0,0,0.15-0.1,0.45C-4.517,3.633-4.533,3.9-4.5,4.2L-4.4,4.55z"/>
	</g>
</symbol>
<symbol  id="leg_x5F_left" viewBox="-7.853 -18.5 15.754 18.5">
	<g id="Layer_1_10_">
		<g>
			<g>
				<path style="fill-rule:evenodd;clip-rule:evenodd;fill:#6F6F00;" d="M2.85-11.4c1.333-0.434,2.566-1.2,3.7-2.3
					c0.934-0.9,1.383-1.55,1.35-1.95c0-0.533-0.417-0.983-1.25-1.35c-1-0.567-2.066-0.967-3.2-1.2c-0.767-0.167-1.5-0.267-2.2-0.3
					c-0.3,0-1.1,0-2.4,0c-1.1,0-2.417,0.233-3.95,0.7c-0.7,0.2-1.35,0.517-1.95,0.95c-0.567,0.434-0.833,0.8-0.8,1.1
					s0.267,0.8,0.7,1.5c1.4,2.167,2.167,3.367,2.3,3.6C-3.683-8.783-3.15-6.9-3.25-5c-0.033,0.933-0.333,2.05-0.9,3.35L-5,0
					l3.55-0.05c0.833-1.5,1.367-2.9,1.6-4.2C0.317-5.183,0.333-6.3,0.2-7.6c-0.1-1.2-0.35-2.283-0.75-3.25l0.9-0.05
					C1.15-10.967,1.983-11.133,2.85-11.4z"/>
				<path style="fill-rule:evenodd;clip-rule:evenodd;fill:#939300;" d="M-4.35-12.5c1.1,0.967,2.267,1.5,3.5,1.6l1.35-0.35
					c-1.067,0.133-2.2-0.033-3.4-0.5L-4.35-12.5z"/>
			</g>
			
				<linearGradient id="SVGID_12_" gradientUnits="userSpaceOnUse" x1="16106.4023" y1="144.5303" x2="16114.1279" y2="144.5303" gradientTransform="matrix(0.0162 0.9999 -0.9999 0.0162 -115.5693 -16124.5439)">
				<stop  offset="0.1137" style="stop-color:#6F6F00"/>
				<stop  offset="1" style="stop-color:#BBBB00"/>
			</linearGradient>
			<path style="fill-rule:evenodd;clip-rule:evenodd;fill:url(#SVGID_12_);" d="M1.4-17.6c-2.667-0.133-4.7,0.05-6.1,0.55
				c-1.233,0.433-1.733,0.983-1.5,1.65c0.467,0.8,1.117,1.566,1.95,2.3c1.6,1.5,3.233,2.133,4.9,1.9c1.833-0.267,3.5-1,5-2.2
				c0.767-0.633,1.333-1.217,1.7-1.75c-0.033-0.367-0.3-0.733-0.8-1.1C5.55-17.017,3.833-17.467,1.4-17.6z"/>
			<linearGradient id="SVGID_13_" gradientUnits="userSpaceOnUse" x1="-1.7002" y1="-6.7471" x2="-0.1002" y2="-6.7471">
				<stop  offset="0.1137" style="stop-color:#6F6F00"/>
				<stop  offset="1" style="stop-color:#BBBB00"/>
			</linearGradient>
			<path style="fill-rule:evenodd;clip-rule:evenodd;fill:url(#SVGID_13_);" d="M-0.85-4.1c0.367,0.267,0.6-0.167,0.7-1.3
				c0.133-1.1,0.066-2.05-0.2-2.85c-0.233-0.667-0.467-1.067-0.7-1.2c-0.2-0.066-0.383,0.034-0.55,0.3
				C-1.7-8.983-1.717-8.567-1.65-7.9c0.1,0.933,0.15,1.483,0.15,1.65C-1.5-5.183-1.283-4.467-0.85-4.1z"/>
		</g>
		<path style="fill-rule:evenodd;clip-rule:evenodd;fill:#D2D200;" d="M5.15-14.4c-0.367,0.066-0.717,0.233-1.05,0.5
			c-0.667,0.5-1.25,0.867-1.75,1.1c-0.633,0.3-1.4,0.533-2.3,0.7C-0.983-11.933-2-12.033-3-12.4l0.95,0.5c0.6,0.2,1.2,0.35,1.8,0.45
			c1.3,0.167,2.783-0.216,4.45-1.15c1.367-0.8,1.917-1.367,1.65-1.7C5.717-14.433,5.483-14.467,5.15-14.4z"/>
		<path style="fill-rule:evenodd;clip-rule:evenodd;fill:#D2D200;" d="M6.05-15.4C5.816-15.1,5.8-14.867,6-14.7
			c0.2,0.167,0.434,0.117,0.7-0.15c0.233-0.3,0.25-0.533,0.05-0.7C6.55-15.75,6.316-15.7,6.05-15.4z"/>
	</g>
</symbol>
<symbol  id="leg_x5F_right" viewBox="-9.85 -21.5 19.652 21.5">
	<g id="Layer_1_9_">
		<g>
			<g>
				<path style="fill-rule:evenodd;clip-rule:evenodd;fill:#6F6F00;" d="M1.2-5.3c0.066-1,0.033-2.15-0.1-3.45
					c-0.133-1.433-0.383-2.7-0.75-3.8l1.2-0.2c1-0.233,1.967-0.583,2.9-1.05c1.5-0.767,2.816-1.75,3.95-2.95
					c0.967-1,1.434-1.683,1.4-2.05c0-0.133-0.133-0.333-0.4-0.6c-0.6-0.533-1.566-0.967-2.9-1.3c-1.8-0.533-3.583-0.8-5.35-0.8
					c-1.533,0-2.483,0.017-2.85,0.05l-2.85,0.4c-0.467,0.066-1.35,0.333-2.65,0.8c-1.767,0.533-2.65,1.217-2.65,2.05
					c0,0.434,0.434,1.184,1.3,2.25c1.233,1.5,2.183,2.817,2.85,3.95c0.934,1.567,1.517,3.517,1.75,5.85C-3.817-2.05-3.883,0-4.15,0
					L0.4-0.4C0.867-2.333,1.133-3.967,1.2-5.3z"/>
				<path style="fill-rule:evenodd;clip-rule:evenodd;fill:#939300;" d="M0.55-12.55l0.7-0.65c-2.033,0.2-3.983-0.2-5.85-1.2
					c-0.933-0.533-1.667-1.067-2.2-1.6c0.233,0.333,0.6,0.7,1.1,1.1c1,0.833,2.117,1.467,3.35,1.9
					C-1.45-12.7-0.483-12.55,0.55-12.55z"/>
			</g>
			
				<linearGradient id="SVGID_14_" gradientUnits="userSpaceOnUse" x1="16089.3438" y1="158.7119" x2="16097.6953" y2="158.7119" gradientTransform="matrix(0.018 0.9998 -0.9998 0.018 -129.8213 -16109.8252)">
				<stop  offset="0.1137" style="stop-color:#6F6F00"/>
				<stop  offset="1" style="stop-color:#BBBB00"/>
			</linearGradient>
			<path style="fill-rule:evenodd;clip-rule:evenodd;fill:url(#SVGID_14_);" d="M1.8-19.95c-3.3-0.033-5.867,0.217-7.7,0.75
				c-1.7,0.5-2.4,1.1-2.1,1.8c0.567,0.867,1.367,1.7,2.4,2.5c2.1,1.6,4.383,2.217,6.85,1.85c1.8-0.267,3.65-1.2,5.55-2.8
				c0.967-0.833,1.733-1.617,2.3-2.35c-0.067-0.267-0.434-0.55-1.1-0.85C6.733-19.617,4.667-19.917,1.8-19.95z"/>
			<linearGradient id="SVGID_15_" gradientUnits="userSpaceOnUse" x1="-1.4375" y1="-6.9736" x2="0.5375" y2="-6.9736">
				<stop  offset="0.1137" style="stop-color:#6F6F00"/>
				<stop  offset="1" style="stop-color:#BBBB00"/>
			</linearGradient>
			<path style="fill-rule:evenodd;clip-rule:evenodd;fill:url(#SVGID_15_);" d="M0.25-8.9c-0.167-0.767-0.417-1.167-0.75-1.2
				c-0.233,0-0.45,0.167-0.65,0.5C-1.483-9.033-1.567-7.95-1.4-6.35c0.066,0.567,0.233,1.117,0.5,1.65
				c0.267,0.6,0.517,0.883,0.75,0.85C0.217-3.883,0.433-4.467,0.5-5.6C0.567-6.667,0.483-7.767,0.25-8.9z"/>
		</g>
		<path style="fill-rule:evenodd;clip-rule:evenodd;fill:#D2D200;" d="M3.6-15.55c-1.1,0.867-2.4,1.35-3.9,1.45
			c-1.2,0.067-2.233-0.033-3.1-0.3c-0.767-0.2-1.5-0.467-2.2-0.8c0.633,0.467,1.133,0.8,1.5,1c1.4,0.7,2.883,0.983,4.45,0.85
			c1.5-0.1,2.933-0.55,4.3-1.35c2.067-1.233,3-2.167,2.8-2.8C7.25-18.2,6.5-18,5.2-16.9C4.5-16.267,3.967-15.817,3.6-15.55z"/>
	</g>
</symbol>
<symbol  id="nose" viewBox="-1.95 -0.65 3.925 1.266">
	<g id="Layer_1_8_">
		<path style="fill-rule:evenodd;clip-rule:evenodd;fill:#BBBB00;" d="M-1.95-0.65L-0.4,0.1c1.1,0.467,1.8,0.617,2.1,0.45
			c0.367-0.2,0.367-0.4,0-0.6C1.333-0.217,0.85-0.333,0.25-0.4L-1.95-0.65z"/>
	</g>
</symbol>
<use xlink:href="#Juju_x5F_yellow"  width="3.486" height="2.531" id="juju_x5F_yellow" x="-1.746" y="-29.981" transform="matrix(1 0 0 -1 56 100.6504)" style="overflow:visible;"/>
</svg>
