<?xml version="1.0" encoding="iso-8859-1"?>
<!-- Generator: Adobe Illustrator 15.1.0, SVG Export Plug-In . SVG Version: 6.00 Build 0)  -->
<!DOCTYPE svg PUBLIC "-//W3C//DTD SVG 1.1//EN" "http://www.w3.org/Graphics/SVG/1.1/DTD/svg11.dtd">
<svg version="1.1" id="Layer_3" xmlns="http://www.w3.org/2000/svg" xmlns:xlink="http://www.w3.org/1999/xlink" x="0px" y="0px"
	 width="112px" height="141.75px" viewBox="0 0 112 141.75" style="enable-background:new 0 0 112 141.75;" xml:space="preserve">
<symbol  id="Body" viewBox="-22.27 -25.3 44.97 50.6">
	<g id="Layer_2_4_">
		<g>
			<path style="fill-rule:evenodd;clip-rule:evenodd;fill:#CF5780;" d="M21.6-8.2c0.367-0.066,0.733-0.083,1.1-0.05v-0.2
				c-0.034,0.034-0.083,0.05-0.15,0.05C22.217-8.4,21.9-8.333,21.6-8.2z"/>
			
				<radialGradient id="SVGID_1_" cx="-0.0044" cy="0" r="23.8312" gradientTransform="matrix(1 0 0 -1 0 0)" gradientUnits="userSpaceOnUse">
				<stop  offset="0.0078" style="stop-color:#300C1A"/>
				<stop  offset="0.2627" style="stop-color:#330D1C"/>
				<stop  offset="0.4863" style="stop-color:#3E1020"/>
				<stop  offset="0.698" style="stop-color:#501428"/>
				<stop  offset="0.902" style="stop-color:#691A33"/>
				<stop  offset="1" style="stop-color:#781E3A"/>
			</radialGradient>
			<path style="fill-rule:evenodd;clip-rule:evenodd;fill:url(#SVGID_1_);" d="M14.85,22.85c0.933-0.467,1.583-1.033,1.95-1.7
				c0.3-0.633,0.55-1.533,0.75-2.7l1.4-10.2c0.133-0.933,1.133-7.367,3-19.3c0.3-2.167,0.383-3.9,0.25-5.2
				c-0.133-1.167-0.483-2.2-1.05-3.1c-1-1.4-2.15-2.383-3.45-2.95c-2.467-1.034-4.5-1.684-6.1-1.95
				c-2.033-0.367-4.15-0.65-6.35-0.85c-1.6-0.133-3.45-0.2-5.55-0.2c-1.067,0.033-2.434,0.117-4.1,0.25
				c-3.5,0.233-7.033,0.983-10.6,2.25c-2.833,0.966-4.783,2.033-5.85,3.2c-0.767,0.867-1.233,2-1.4,3.4
				c-0.067,0.8,0.033,2.233,0.3,4.3c0.633,5.066,0.967,7.816,1,8.25c0.3,2.533,0.7,6.65,1.2,12.35c0.433,5,0.717,7.917,0.85,8.75
				c0.167,1.1,0.45,1.966,0.85,2.6c0.167,0.333,0.483,0.733,0.95,1.2c1.033,1.033,3.05,1.933,6.05,2.7
				c3.267,0.867,6.867,1.316,10.8,1.35c2.233,0,4.317-0.1,6.25-0.3C9.933,24.567,12.883,23.85,14.85,22.85z"/>
			<path style="fill-rule:evenodd;clip-rule:evenodd;fill:#460F24;" d="M0.45,17.6c-3.433,0-6.717,0.167-9.85,0.5
				c-6.2,0.633-8.45,1.717-6.75,3.25c1.133,1.034,3.7,1.95,7.7,2.75c6.1,1.233,12.833,1.05,20.2-0.55C7.183,24.15,3.433,24.3,0.5,24
				c-1.067-0.1-1.867-0.267-2.4-0.5c-1.7-0.633-2.267-1.6-1.7-2.9C-2.967,19.3-1.617,18.3,0.45,17.6z"/>
			<path style="fill-rule:evenodd;clip-rule:evenodd;fill:#30081A;" d="M17.15,12.35c-0.267,1.967-0.316,3.417-0.15,4.35
				c1.2-8.133,2.15-14.083,2.85-17.85c0.9-5.1,1.433-8.483,1.6-10.15c0.433-4.1,0.183-6.767-0.75-8c-1.3-1.667-3.667-2.967-7.1-3.9
				c-3.167-0.9-6.883-1.383-11.15-1.45c-1.8-0.033-3.983,0.033-6.55,0.2c-4.8,0.434-8.65,1.2-11.55,2.3
				c-2.467,0.967-4.133,2.133-5,3.5c-0.667,1.066-0.983,2.25-0.95,3.55c0,0.133,0.184,1.7,0.55,4.7L-19,7.3
				c0.633,6.233,0.983,9.417,1.05,9.55l0.25-1.1c0.167-0.867,0.25-1.617,0.25-2.25c0-0.367,0.15-0.933,0.45-1.7
				c0.167-0.533,0.1-1.033-0.2-1.5c-0.5-0.9-0.833-4.25-1-10.05c-0.033-1.433,0.233-2.783,0.8-4.05c1-2.1,1.25-3,0.75-2.7
				c-0.467,0.233-0.95,0.25-1.45,0.05c-0.5-0.167-0.85-0.483-1.05-0.95c0.667,0.233,1.167,0.183,1.5-0.15
				c-0.8-0.2-1.317-0.483-1.55-0.85c-0.2-0.3-0.3-0.85-0.3-1.65c0-0.667,0.167-1.217,0.5-1.65c0.333-0.5,0.8-0.683,1.4-0.55
				c0.367,0.067,0.783,0.25,1.25,0.55c0.333,0.167,0.65,0,0.95-0.5c0.7-1.1,0.85-2.033,0.45-2.8c-0.167-0.3-0.9-0.517-2.2-0.65
				c-1.267-0.1-1.967-0.317-2.1-0.65c-0.5-1.2,0.133-2.35,1.9-3.45c1.533-0.967,3.65-1.75,6.35-2.35c2.567-0.6,4.567-1.017,6-1.25
				c2.533-0.4,5.017-0.6,7.45-0.6c3.233,0,6.65,0.35,10.25,1.05c3.533,0.7,5.9,1.917,7.1,3.65c0.667,1,0.934,2.233,0.8,3.7
				c-0.033,0.533-0.333,1.167-0.9,1.9c-0.434,0.566-0.567,1.05-0.4,1.45c0.233,0.4,0.383,1,0.45,1.8c0.233,1.933,0,4.933-0.7,9
				C18.483,1.733,17.85,6.317,17.15,12.35z"/>
			<path style="fill-rule:evenodd;clip-rule:evenodd;fill:#30081A;" d="M-4.4-13.8c1.034-0.967,1.367-1.8,1-2.5
				c-0.133-0.267-0.7-0.75-1.7-1.45c-1.367-0.967-2.05-2.034-2.05-3.2c0.034-0.7,0.317-1.283,0.85-1.75
				c0.434-0.367,1.117-0.717,2.05-1.05c-1.534,0.066-2.9,0.267-4.1,0.6c-1.267,0.434-2.217,0.75-2.85,0.95
				c0.6-0.133,1.05-0.167,1.35-0.1c0.4,0.133,0.7,0.45,0.9,0.95c0.2,0.566,0.183,1.217-0.05,1.95c-0.267,0.733-0.684,1.2-1.25,1.4
				c-0.667,0.233-1.167,0.6-1.5,1.1c-0.333,0.467-0.434,0.934-0.3,1.4c0.1,0.3,0.35,0.55,0.75,0.75c0.367,0.2,0.55,0.4,0.55,0.6
				c0,0.1,0.183,0.4,0.55,0.9c0.367,0.566,0.6,1.3,0.7,2.2C-9.333-9.85-9.167-7.567-9-4.2c0.2,3.5,0.3,6.183,0.3,8.05
				c0,3.233,0.017,5.067,0.05,5.5c0.067,1.767,0.267,2.767,0.6,3l0.3-1.3c0.167-1.033,0.183-1.983,0.05-2.85
				c-0.1-0.767-0.15-2.8-0.15-6.1c-0.033-3.867-0.067-6.283-0.1-7.25c-0.067-1.9,0.133-3.45,0.6-4.65
				C-6.817-11.133-5.833-12.467-4.4-13.8z"/>
			<path style="fill-rule:evenodd;clip-rule:evenodd;fill:#7A1F3B;" d="M14.65,17.5c0.767,0.466,1.35,0.45,1.75-0.05
				c0.133-0.167,0.2-0.383,0.2-0.65c0-0.167,0-0.4,0-0.7c0-0.133,0.1-0.966,0.3-2.5l0.35-4.05c0.133-2,0.367-4.3,0.7-6.9
				c0.8-5.833,1.283-9.767,1.45-11.8c0.033-0.4-0.05-0.983-0.25-1.75c-0.2-0.767-0.3-1.35-0.3-1.75c0.034-0.466,0.2-0.95,0.5-1.45
				c0.434-0.633,0.7-1.067,0.8-1.3c0.267-0.767,0.183-1.75-0.25-2.95c-0.333-0.934-1.55-1.8-3.65-2.6
				c-1.434-0.533-3.55-1.1-6.35-1.7c-1.867-0.4-4.05-0.6-6.55-0.6c-2.733,0.1-4.716,0.167-5.95,0.2c-1.7,0.033-2.867,0.434-3.5,1.2
				c-0.533,0.667-0.467,1.3,0.2,1.9c0.467,0.4,1.717,0.233,3.75-0.5c2.667-0.933,4.2-1.433,4.6-1.5
				c0.867-0.133,1.967,0.117,3.3,0.75c1.566,0.767,2.667,1.183,3.3,1.25c0.3,0.033,1.4,0.017,3.3-0.05c1.167,0,1.95,0.2,2.35,0.6
				c0.533,0.6,0.667,1.367,0.4,2.3c-0.133,0.5-0.5,1.233-1.1,2.2c-0.467,0.767-0.717,1.267-0.75,1.5
				c-0.067,0.434,0.133,0.95,0.6,1.55c1.567,2.1,1.867,3.9,0.9,5.4c-0.2,0.333-0.55,0.617-1.05,0.85
				c-0.733,0.3-1.133,0.483-1.2,0.55c-0.367,0.2-0.583,0.617-0.65,1.25c-0.1,0.7,0.1,1.067,0.6,1.1
				c1.033,0.133,1.833,0.517,2.4,1.15c0.9,1.1,1.067,3.417,0.5,6.95l-0.4,2.4c-0.367,1.6-0.783,2.6-1.25,3
				c-0.3,0.2-0.517,0.333-0.65,0.4c-0.233,0.167-0.333,0.4-0.3,0.7c0,0.133,0.066,0.316,0.2,0.55c0.167,0.233,0.25,0.383,0.25,0.45
				c0.033,0.233-0.05,0.367-0.25,0.4c-0.233-0.033-0.417-0.033-0.55,0c-0.6,0.133-0.783,0.6-0.55,1.4L11.9,15
				c0.2,0.6,0.55,1.017,1.05,1.25C13.25,16.383,13.816,16.8,14.65,17.5z"/>
			<path style="fill-rule:evenodd;clip-rule:evenodd;fill:#7A1F3B;" d="M16.1,21.55c1-0.8,0.867-1.7-0.4-2.7
				c-1.2-0.9-3.217-1.783-6.05-2.65c-1.8-0.566-4.133-0.933-7-1.1c-2.567-0.167-5.283-0.15-8.15,0.05
				c-1.767-0.267-2.917-0.684-3.45-1.25c-0.733-0.8-1.2-2.783-1.4-5.95c-0.1-1.833-0.184-4.65-0.25-8.45
				c-0.1-1.934-0.133-4.117-0.1-6.55c0-2.2-0.017-3.6-0.05-4.2c-0.067-0.8-0.383-1.6-0.95-2.4c-0.667-0.933-1.067-1.617-1.2-2.05
				c-0.167-0.567,0.217-1.433,1.15-2.6c0.9-1.1,1.233-1.917,1-2.45c-0.333-0.733-1.617-0.6-3.85,0.4c-2.167,1-3.367,1.9-3.6,2.7
				c-0.2,0.6,0.1,1.017,0.9,1.25c0.467,0.1,1.267,0.217,2.4,0.35c1,0.233,1.2,1.133,0.6,2.7c-0.433,0.7-0.7,1.25-0.8,1.65
				c-0.067,0.267-0.067,0.617,0,1.05c0.066,0.567,0.1,0.917,0.1,1.05c0,1.133-0.1,2.1-0.3,2.9c-0.267,0.6-0.45,1.067-0.55,1.4
				c-0.233,0.567-0.317,1.05-0.25,1.45c0.367,1.167,0.583,2.066,0.65,2.7c0.367,2.9,0.55,7.684,0.55,14.35
				c0,1.8-0.466,3.25-1.4,4.35c-0.4,0.3-0.65,0.617-0.75,0.95v0.4l0.7-0.65c0.633-0.5,1.467-0.883,2.5-1.15
				c1.566-0.433,4.5-0.75,8.8-0.95c4.434-0.233,7.5-0.184,9.2,0.15c1.467,0.3,2.667,0.933,3.6,1.9c0.933,0.967,1.617,1.5,2.05,1.6
				c0.533,0.133,1.433,0.117,2.7-0.05c1.133-0.133,1.983-0.083,2.55,0.15c0.667,0.267,1.05,0.617,1.15,1.05L16.1,21.55z"/>
			<path style="fill-rule:evenodd;clip-rule:evenodd;fill:#CF5780;" d="M16.6,14.45c0.167,0.1,0.367-0.833,0.6-2.8
				c0.6-4.833,0.9-7.267,0.9-7.3c0.667-4.933,0.817-7.417,0.45-7.45c-0.167,0-0.417,1.4-0.75,4.2c-0.333,3.4-0.583,5.667-0.75,6.8
				C16.55,12.2,16.4,14.383,16.6,14.45z"/>
			<path style="fill-rule:evenodd;clip-rule:evenodd;fill:#CF5780;" d="M6.7-22.85c1,0.167,2.434,0.433,4.3,0.8
				c1.5,0.3,2.8,0.733,3.9,1.3c1.033,0.5,1.783,1.1,2.25,1.8c0.267,0.333,0.566,1.083,0.9,2.25c0.233,0.767,0.533,1.25,0.9,1.45
				c0.3,0.133,0.583,0.083,0.85-0.15c0.3-0.233,0.467-0.583,0.5-1.05c0.067-1.367-0.633-2.583-2.1-3.65
				c-1.066-0.767-2.617-1.4-4.65-1.9c-1.567-0.4-3.35-0.684-5.35-0.85l-2.5-0.1L6.7-22.85z"/>
			<path style="fill-rule:evenodd;clip-rule:evenodd;fill:#CF5780;" d="M-6.6,15.2c-1.934-0.333-3.133-1.017-3.6-2.05
				c-0.433-1-0.75-3.133-0.95-6.4c-0.066-1.767-0.183-4.284-0.35-7.55l-0.4-10.1c-0.066-0.9-0.15-1.55-0.25-1.95
				c-0.133-0.533-0.383-0.817-0.75-0.85c-0.3,0-0.6,0.2-0.9,0.6c-0.6,0.833-0.8,1.8-0.6,2.9c0.167,1.233,0.167,2.317,0,3.25
				c-0.233,1.367-0.316,3.083-0.25,5.15c0.2,2.3,0.317,4.017,0.35,5.15c0.2,5.167,0.3,7.784,0.3,7.85c0.066,2.6-0.267,4.3-1,5.1
				l-1.15,1.4l0.55-0.3c0.5-0.267,1.083-0.5,1.75-0.7c0.867-0.3,1.816-0.533,2.85-0.7c0.767-0.167,1.867-0.3,3.3-0.4
				c2.254-0.099,3.537-0.166,3.85-0.2C-4.719,15.433-5.635,15.366-6.6,15.2z"/>
			<path style="fill-rule:evenodd;clip-rule:evenodd;fill:#7A1F3B;" d="M-18.8-7.1c0.6,0.6,1.25,0.783,1.95,0.55
				c0.633-0.233,0.983-0.6,1.05-1.1c0.033-0.4-0.1-0.566-0.4-0.5c-0.3,0.067-0.533,0.267-0.7,0.6c-0.133,0.3-0.483,0.467-1.05,0.5
				L-18.8-7.1z"/>
			<path style="fill-rule:evenodd;clip-rule:evenodd;fill:#CF5780;" d="M-17.35-6.55c0.467-0.033,0.733-0.283,0.8-0.75
				C-16.717-7.067-17-6.917-17.4-6.85L-18.55-7C-18.117-6.7-17.717-6.55-17.35-6.55z"/>
			<path style="fill-rule:evenodd;clip-rule:evenodd;fill:#CF5780;" d="M-19.1,10c0.066-3.034-0.317-6.784-1.15-11.25L-19.1,10z"/>
			<path style="fill-rule:evenodd;clip-rule:evenodd;fill:#CF5780;" d="M-11.65-19.9c-0.367-0.466-1.4-0.383-3.1,0.25
				c-0.7,0.267-1.284,0.617-1.75,1.05c-0.467,0.4-0.667,0.733-0.6,1c0.1,0.333,0.5,0.55,1.2,0.65c0.733,0.133,1.45,0.067,2.15-0.2
				c0.7-0.267,1.283-0.716,1.75-1.35C-11.567-19.1-11.45-19.567-11.65-19.9z"/>
			<path style="fill-rule:evenodd;clip-rule:evenodd;fill:#CF5780;" d="M14.85,18.75c-0.466-0.233-1.267-0.567-2.4-1
				c-1.433-0.534-2.517-0.883-3.25-1.05l-0.7-0.2l-3.55-0.65c-0.533-0.063-1.083-0.063-1.65,0c0.217-0.016,0.617,0.017,1.2,0.1
				l0.9,0.2c0.967,0.233,1.683,0.55,2.15,0.95c0.133,0.1,0.617,0.617,1.45,1.55c0.433,0.467,1,0.7,1.7,0.7
				c0.6,0,1.383-0.033,2.35-0.1c0.767,0,1.433,0.117,2,0.35c0.933,0.4,1.3,0.867,1.1,1.4c-0.1,0.3-0.317,0.6-0.65,0.9l-0.45,0.4
				c1.033-0.467,1.533-1.067,1.5-1.8c0-0.333-0.217-0.684-0.65-1.05C15.8,19.35,15.45,19.117,14.85,18.75z"/>
			<path style="fill-rule:evenodd;clip-rule:evenodd;fill:#CF5780;" d="M-16.2-7.7c0.033-0.133,0.017-0.233-0.05-0.3
				c-0.133,0-0.217,0.066-0.25,0.2c-0.067,0.133-0.05,0.233,0.05,0.3C-16.317-7.5-16.233-7.567-16.2-7.7z"/>
			<path style="fill-rule:evenodd;clip-rule:evenodd;fill:#CF5780;" d="M-16.55,20.15c-0.167-0.3-0.316-0.283-0.45,0.05
				c0.2,1.067,1.65,2.033,4.35,2.9c1.367,0.434,2.7,0.75,4,0.95c-3.267-0.667-5.566-1.517-6.9-2.55L-16.55,20.15z"/>
			<path style="fill-rule:evenodd;clip-rule:evenodd;fill:#CF5780;" d="M14.6,21.65c-0.066-0.434-0.517-0.583-1.35-0.45
				c-0.867,0.133-1.267,0.4-1.2,0.8c0.067,0.433,0.533,0.583,1.4,0.45c0.333-0.033,0.617-0.15,0.85-0.35
				C14.533,21.966,14.633,21.816,14.6,21.65z"/>
			<path style="fill-rule:evenodd;clip-rule:evenodd;fill:#CF5780;" d="M15.45,20.75c0.067-0.267-0.133-0.434-0.6-0.5
				c-0.466-0.067-0.7,0.05-0.7,0.35c-0.067,0.267,0.133,0.434,0.6,0.5C15.216,21.167,15.45,21.05,15.45,20.75z"/>
			<path style="fill-rule:evenodd;clip-rule:evenodd;fill:#460F24;" d="M0.4,23c0.066-0.233-0.017-0.467-0.25-0.7
				s-0.55-0.417-0.95-0.55c-0.967-0.3-1.533-0.184-1.7,0.35c-0.067,0.2,0.017,0.434,0.25,0.7c0.233,0.233,0.55,0.417,0.95,0.55
				s0.767,0.167,1.1,0.1C0.167,23.383,0.367,23.233,0.4,23z"/>
		</g>
	</g>
</symbol>
<symbol  id="JuJu_x5F_Red_x5F_anim" viewBox="-50.103 -35.362 100.028 72.655">
	<g id="left_arm_1_">
		
			<use xlink:href="#arm_x5F_left"  width="14.193" height="9.337" x="0.012" y="-4.7" transform="matrix(0.7789 -0.7538 0.7538 0.7789 21.6499 -0.6504)" style="overflow:visible;"/>
	</g>
	<g id="left_hand_1_">
		
			<use xlink:href="#hand_x5F_left"  width="17.571" height="14.248" x="-1.578" y="-2.7" transform="matrix(0.5573 -0.9297 0.9297 0.5573 34 -7.1499)" style="overflow:visible;"/>
	</g>
	<g id="left_leg_1_">
		
			<use xlink:href="#leg_x5F_left"  width="15.802" height="18.364" x="-7.903" y="-18.364" transform="matrix(1.0864 0 -0.0465 1.0864 11.0005 -11.2993)" style="overflow:visible;"/>
	</g>
	<g id="right_leg_1_">
		
			<use xlink:href="#leg_x5F_right"  width="19.7" height="21.6" x="-9.85" y="-21.55" transform="matrix(1.0864 0 -0.0465 1.0864 -7.1001 -11.9497)" style="overflow:visible;"/>
	</g>
	<g id="body_1_">
		
			<use xlink:href="#Body"  width="44.97" height="50.6" x="-22.27" y="-25.3" transform="matrix(1.072 -0.1743 0.1743 1.072 2.8999 9.5)" style="overflow:visible;"/>
	</g>
	<g id="face_1_">
		
			<use xlink:href="#face"  width="20.555" height="30.45" x="-10.202" y="-15.25" transform="matrix(1.072 -0.1743 0.1743 1.072 7.8999 7.6494)" style="overflow:visible;"/>
	</g>
	<g id="right_arm_1_">
		
			<use xlink:href="#arm_x5F_right"  width="15.743" height="10.384" x="-15.704" y="-5.15" transform="matrix(1.0155 0.385 -0.385 1.0155 -15.9502 4)" style="overflow:visible;"/>
	</g>
	<g id="right_hand_1_">
		
			<use xlink:href="#hand_x5F_right"  width="19.515" height="15.453" x="-17.658" y="-3.089" transform="matrix(0.8813 0.6347 -0.6347 0.8813 -31.0498 2.1499)" style="overflow:visible;"/>
	</g>
	<g>
		<g id="mask_1_">
		</g>
		<g id="FX_1_">
		</g>
	</g>
	<g id="stop_1_">
	</g>
	<g id="Layer_61_1_">
	</g>
</symbol>
<symbol  id="Juju_x5F_red" viewBox="-1.746 -29.982 3.486 2.532">
	<g id="JuJu_1_">
		
			<use xlink:href="#JuJu_x5F_Red_x5F_anim"  width="100.028" height="72.655" x="-50.103" y="-35.362" transform="matrix(0.0349 0 0 0.0349 0 -28.75)" style="overflow:visible;opacity:0;"/>
	</g>
	<g id="state_1_">
	</g>
</symbol>
<symbol  id="arm_x5F_left" viewBox="0.012 -4.7 14.193 9.337">
	<g id="Layer_1_12_">
		<path style="fill-rule:evenodd;clip-rule:evenodd;fill:#CF5780;" d="M5.9-1.15v0.2C6-0.917,6.083-0.9,6.15-0.9L7.4-0.6
			C8-0.367,8.517,0.067,8.95,0.7c-0.133-0.467-0.467-0.867-1-1.2l-0.6-0.35h-0.1C6.817-1.05,6.367-1.15,5.9-1.15z"/>
		<g>
			<g>
				<path style="fill-rule:evenodd;clip-rule:evenodd;fill:#651832;" d="M14,1.5c-1.967-4.133-4.7-6.2-8.2-6.2
					c-1.066,0-2.15,0.2-3.25,0.6C1.883-3.833,1.4-3.583,1.1-3.35C0.633-3.05,0.317-2.633,0.15-2.1c-0.2,0.567-0.183,1.083,0.05,1.55
					c0.2,0.467,0.533,0.767,1,0.9C1.7,0.483,2.183,0.4,2.65,0.1H2.6c0.967-0.567,2-0.817,3.1-0.75c2.033,0.167,3.7,1.617,5,4.35
					c0.233,0.467,0.583,0.767,1.05,0.9c0.467,0.1,0.933,0,1.4-0.3C13.617,4,13.933,3.567,14.1,3C14.267,2.434,14.233,1.934,14,1.5z"
					/>
			</g>
		</g>
	</g>
</symbol>
<symbol  id="arm_x5F_right" viewBox="-15.704 -5.15 15.743 10.384">
	<g id="Layer_1_5_">
		<g>
			<g>
				<path style="fill-rule:evenodd;clip-rule:evenodd;fill:#651832;" d="M-13,5.2c0.534-0.133,0.917-0.466,1.15-1
					c1.466-3.033,3.316-4.65,5.55-4.85c1.2-0.1,2.35,0.183,3.45,0.85H-2.9c0.533,0.333,1.067,0.434,1.6,0.3
					c0.533-0.167,0.917-0.517,1.15-1.05c0.233-0.533,0.25-1.1,0.05-1.7c-0.2-0.6-0.55-1.067-1.05-1.4c-1.667-1-3.417-1.5-5.25-1.5
					c-3.833,0-6.867,2.283-9.1,6.85c-0.233,0.534-0.267,1.1-0.1,1.7c0.167,0.6,0.5,1.083,1,1.45C-14.066,5.183-13.533,5.3-13,5.2z"
					/>
			</g>
		</g>
		<path style="fill-rule:evenodd;clip-rule:evenodd;fill:#7A1F3B;" d="M-2.05,0.25c0.3,0.066,0.283-0.1-0.05-0.5
			c-0.3-0.4-0.8-0.684-1.5-0.85c-0.667-0.167-1.45-0.167-2.35,0l-0.875,0.275C-6.048-1.028-5.14-0.937-4.1-0.55
			C-3.5-0.35-2.816-0.083-2.05,0.25z"/>
		<path style="fill-rule:evenodd;clip-rule:evenodd;fill:#7A1F3B;" d="M-11.7-3.1c2.5-1.3,5.117-1.683,7.85-1.15
			c1.333,0.267,2.433,0.667,3.3,1.2c-0.6-0.767-2.167-1.367-4.7-1.8C-6.816-5.117-8.367-4.9-9.9-4.2L-11.7-3.1z"/>
		<path style="fill-rule:evenodd;clip-rule:evenodd;fill:#CF5780;" d="M-5.45-1.1c-1.167,0-2.3,0.417-3.4,1.25l0.95-0.5
			c0.833-0.3,1.65-0.45,2.45-0.45c1.2,0,2.267,0.317,3.2,0.95C-3.083-0.65-4.15-1.067-5.45-1.1z"/>
	</g>
</symbol>
<symbol  id="eyebrow_x5F_left" viewBox="-2.651 -2.653 5.286 5.353">
	<g id="Layer_1_7_">
		<g>
			<path style="fill-rule:evenodd;clip-rule:evenodd;fill:#CF5780;" d="M2.25,2.4c-0.633-0.333-1.233-0.783-1.8-1.35
				C0.017,0.65-0.6-0.2-1.4-1.5C-2-2.433-2.383-2.8-2.55-2.6c-0.3,0.4,0.066,1.233,1.1,2.5c1.167,1.434,2.517,2.367,4.05,2.8
				C2.7,2.7,2.583,2.6,2.25,2.4z"/>
		</g>
	</g>
</symbol>
<symbol  id="eyebrow_x5F_right" viewBox="-2.8 -3.389 5.556 6.839">
	<g id="Layer_1_6_">
		<g>
			<path style="fill-rule:evenodd;clip-rule:evenodd;fill:#CF5780;" d="M2.75-2.9C2.717-3.4,2.6-3.517,2.4-3.25
				C2.2-3.017,1.883-2.333,1.45-1.2C0.717,0.867-0.7,2.417-2.8,3.45c0.467,0,1.233-0.4,2.3-1.2c1.433-1.1,2.4-2.283,2.9-3.55
				C2.667-1.966,2.783-2.5,2.75-2.9z"/>
		</g>
	</g>
</symbol>
<symbol  id="face" viewBox="-10.202 -15.25 20.555 30.45">
	<g id="mouth_1_">
		<g>
			<path style="fill-rule:evenodd;clip-rule:evenodd;fill:#7A1F3B;" d="M0.55-13.9c1,0.167,1.817,0.15,2.45-0.05
				c0.6-0.2,1.067-0.533,1.4-1c-0.533,0.367-1.5,0.534-2.9,0.5c-0.833-0.033-1.65-0.183-2.45-0.45l-0.95-0.35l0.65,0.5
				C-0.683-14.35-0.083-14.067,0.55-13.9z"/>
			<path style="fill-rule:evenodd;clip-rule:evenodd;fill:#912633;" d="M1.7-13.3c-0.7-0.067-1.684-0.35-2.95-0.85
				c-3.6-1.434-5.933-1.434-7,0c-0.833,1.1-0.733,2.45,0.3,4.05c1.167,1.867,3.184,3.259,6.05,4.175
				C0.965-5.01,3.507-5.052,5.725-6.05S9.293-8.365,9.775-10c0.483-1.634,0.091-2.9-1.175-3.8c-1.267-0.9-2.85-0.9-4.75,0
				C3.083-13.467,2.367-13.3,1.7-13.3z"/>
			<path style="fill-rule:evenodd;clip-rule:evenodd;fill:#0C0A0B;" d="M3.95,6.245c1.6-0.736,2.933-0.75,4-0.043
				c1,0.699,1.316,1.731,0.95,3.094c-0.367,1.428-1.533,2.522-3.5,3.282c-2.167,0.771-4.466,0.758-6.9-0.036
				c-2.4-0.79-4.15-1.884-5.25-3.28C-7.717,7.945-7.867,6.834-7.2,5.929c0.566-0.752,1.45-1.046,2.65-0.879
				C-4.017,5.142-2.867,5.5-1.1,6.121c1.167,0.424,2.133,0.63,2.9,0.618C2.533,6.755,3.25,6.591,3.95,6.245z"/>
			<path style="fill-rule:evenodd;clip-rule:evenodd;fill:#FFFFFF;" d="M1.9-9.188L1.65-7.566L1.5-9.333
				C0.867-9.336,0.333-9.146-0.1-8.761c-0.367,0.326-0.633,0.763-0.8,1.311v0.6C-0.577-6.7,0.023-6.558,0.9-6.424
				c0.875,0.134,1.775,0.109,2.7-0.073c0.133-0.352-0.017-0.919-0.45-1.7C3.083-8.306,2.867-8.546,2.5-8.921
				C2.133-9.128,1.933-9.217,1.9-9.188z"/>
			
				<linearGradient id="SVGID_2_" gradientUnits="userSpaceOnUse" x1="15949.6699" y1="399.3193" x2="15950.6963" y2="399.3193" gradientTransform="matrix(0.0487 1.0043 -0.9994 -0.0753 -376.665 -15994.2773)">
				<stop  offset="0" style="stop-color:#BFC9BA"/>
				<stop  offset="0.1059" style="stop-color:#C9D1C5"/>
				<stop  offset="0.4745" style="stop-color:#E6EAE4"/>
				<stop  offset="0.7882" style="stop-color:#F8F9F8"/>
				<stop  offset="1" style="stop-color:#FFFFFF"/>
			</linearGradient>
			<path style="fill-rule:evenodd;clip-rule:evenodd;fill:url(#SVGID_2_);" d="M3.75-7.031l-0.2,0.028
				C3.117-6.885,2.7-6.832,2.3-6.843C2.067-6.802,1.717-6.808,1.25-6.86C1.183-6.868,0.9-6.916,0.4-7.005L0.05-7.095
				c-0.633-0.204-1-0.295-1.1-0.272v0.5c0.43,0.058,0.763,0.128,1,0.211c0.236,0.083,0.437,0.122,0.6,0.117L0.9-6.449
				c0.4,0.044,0.883,0.065,1.45,0.062c0.533-0.041,1-0.072,1.4-0.094V-7.031z"/>
			
				<radialGradient id="SVGID_3_" cx="-50.0488" cy="845.7607" r="6.855" gradientTransform="matrix(0.9938 0.1112 0 -0.651 50.4878 547.3398)" gradientUnits="userSpaceOnUse">
				<stop  offset="0" style="stop-color:#DB3052"/>
				<stop  offset="0.2745" style="stop-color:#D93051"/>
				<stop  offset="0.4275" style="stop-color:#D12E4E"/>
				<stop  offset="0.549" style="stop-color:#C32C49"/>
				<stop  offset="0.6549" style="stop-color:#AF2843"/>
				<stop  offset="0.749" style="stop-color:#96243A"/>
				<stop  offset="0.8353" style="stop-color:#771E2E"/>
				<stop  offset="0.9176" style="stop-color:#521721"/>
				<stop  offset="0.9922" style="stop-color:#281013"/>
				<stop  offset="1" style="stop-color:#240F11"/>
			</radialGradient>
			<path style="fill-rule:evenodd;clip-rule:evenodd;fill:url(#SVGID_3_);" d="M1.3-12.55c-1.4-0.133-2.733-0.434-4-0.9l-1.95-0.6
				c0.93,1.635,2.014,2.651,3.25,3.05c1.242,0.396,2.208,0.329,2.9-0.2c0.467,0.5,1.133,0.667,2,0.5c0.833-0.167,1.5-1.05,2-2.65
				C4.1-12.683,2.7-12.417,1.3-12.55z"/>
		</g>
	</g>
	<g id="nose_1_">
		
			<use xlink:href="#nose"  width="3.925" height="1.266" x="-1.95" y="-0.65" transform="matrix(1 0 0 1 1.8999 -3.8501)" style="overflow:visible;"/>
	</g>
	<g id="left_eye_1_">
		<g>
			<path style="fill-rule:evenodd;clip-rule:evenodd;fill:#7A1F3B;" d="M8.15,10.9c0.6-0.5,1.117-1.417,1.55-2.75
				c0.433-1.433,0.65-3.017,0.65-4.75c0.019-0.884-0.057-1.643-0.225-2.275C10.152,1.146,10.177,1.17,10.2,1.2
				C10.14,1.034,10.073,0.875,10,0.725C9.886,0.371,9.736,0.063,9.55-0.2c-0.2-0.267-0.4-0.483-0.6-0.65L8.925-0.8
				C8.621-1.057,8.313-1.149,8-1.075C7.835-1.03,7.668-0.939,7.5-0.8C6.9-0.3,6.383,0.617,5.95,1.95C5.517,3.383,5.3,4.967,5.3,6.7
				c-0.033,1.6,0.233,2.8,0.8,3.6c0.184,0.276,0.376,0.493,0.575,0.65C6.907,11.117,7.148,11.2,7.4,11.2
				c0.082,0.006,0.165-0.002,0.25-0.025V11.2c0.084-0.034,0.167-0.076,0.25-0.125C7.944,11.052,7.985,11.027,8.025,11
				C8.066,10.969,8.107,10.936,8.15,10.9z"/>
		</g>
	</g>
	<g id="left_eyebrow_1_">
		
			<use xlink:href="#eyebrow_x5F_left"  width="5.286" height="5.353" x="-2.651" y="-2.653" transform="matrix(1 0 0 1 7 11.8501)" style="overflow:visible;"/>
	</g>
	<g id="right_eye_1_">
		<g>
			<path style="fill-rule:evenodd;clip-rule:evenodd;fill:#7A1F3B;" d="M-3,4.45c-0.1-1.9-0.5-3.467-1.2-4.7
				C-4.39-0.609-4.589-0.917-4.8-1.175C-5.292-1.778-5.843-2.103-6.45-2.15C-6.95-2.183-7.433-1.967-7.9-1.5
				C-7.934-1.459-7.968-1.417-8-1.375V-1.4c-0.16,0.254-0.41,0.771-0.75,1.55C-9.091,0.939-9.307,2.13-9.4,3.725
				c-0.093,1.596,0.007,3.012,0.3,4.25C-8.808,9.21-8.441,10.102-8,10.65v-0.025c0.079,0.102,0.162,0.194,0.25,0.275
				c0.967,0.934,1.883,1.05,2.75,0.35c0.067-0.058,0.134-0.125,0.2-0.2c0.391-0.416,0.758-1.066,1.1-1.95
				C-3.167,7.7-2.933,6.15-3,4.45z"/>
			<g>
				<path style="fill-rule:evenodd;clip-rule:evenodd;fill:#7A1F3B;" d="M-8.1-3.15l-0.35,0.1c-0.466,0.3-0.85,0.933-1.15,1.9
					c-0.566,1.5-0.733,2.75-0.5,3.75c0.067-1.3,0.35-2.417,0.85-3.35L-8.45-2c0.034-0.067,0.2-0.283,0.5-0.65
					C-7.75-3.017-7.8-3.183-8.1-3.15z"/>
			</g>
		</g>
	</g>
	<g id="right_eyebrow_1_">
		
			<use xlink:href="#eyebrow_x5F_right"  width="5.556" height="6.839" x="-2.8" y="-3.389" transform="matrix(1 0 0 1 -5.25 11.75)" style="overflow:visible;"/>
	</g>
</symbol>
<symbol  id="hand_x5F_left" viewBox="-1.578 -2.7 17.571 14.248">
	<g id="Layer_1_11_">
		
			<linearGradient id="SVGID_4_" gradientUnits="userSpaceOnUse" x1="10677.3506" y1="-19331.8086" x2="10680.7217" y2="-19331.8086" gradientTransform="matrix(-0.8455 -0.534 0.534 -0.8455 19351.4551 -10642.6484)">
			<stop  offset="0" style="stop-color:#B094B3"/>
			<stop  offset="0.0275" style="stop-color:#B398B6"/>
			<stop  offset="0.3333" style="stop-color:#D4C4D5"/>
			<stop  offset="0.6118" style="stop-color:#EBE4EC"/>
			<stop  offset="0.8431" style="stop-color:#FAF8FA"/>
			<stop  offset="1" style="stop-color:#FFFFFF"/>
		</linearGradient>
		<path style="fill-rule:evenodd;clip-rule:evenodd;fill:url(#SVGID_4_);" d="M1.3,4.2c0.967-0.233,1.75-0.983,2.35-2.25
			c0.567-1.167,0.7-2.117,0.4-2.85C3.683-1.733,3.167-2.283,2.5-2.55C1.733-2.85,0.967-2.7,0.2-2.1c-1.434,1.067-2,2.567-1.7,4.5
			c0.133,0.7,0.483,1.217,1.05,1.55C0.05,4.283,0.633,4.367,1.3,4.2z"/>
		<linearGradient id="SVGID_5_" gradientUnits="userSpaceOnUse" x1="-9.4624" y1="4.6011" x2="7.4626" y2="4.6011">
			<stop  offset="0" style="stop-color:#969482"/>
			<stop  offset="0.1255" style="stop-color:#A9A798"/>
			<stop  offset="0.4" style="stop-color:#CECDC4"/>
			<stop  offset="0.651" style="stop-color:#E9E8E4"/>
			<stop  offset="0.8588" style="stop-color:#F9F9F8"/>
			<stop  offset="1" style="stop-color:#FFFFFF"/>
		</linearGradient>
		<path style="fill-rule:evenodd;clip-rule:evenodd;fill:url(#SVGID_5_);" d="M10.05,9.65c1.467,0.3,2.517,0.133,3.15-0.5
			c0.333-0.3,0.5-0.684,0.5-1.15c0-0.2-0.2-0.383-0.6-0.55l-2-0.65c-1.033-0.4-1.867-0.817-2.5-1.25l-0.7-0.5l3.15,0.5
			c2.267,0.1,3.8-0.367,4.6-1.4c0.4-0.533,0.45-1.067,0.15-1.6c-0.267-0.433-0.55-0.667-0.85-0.7c-0.067,0-0.617,0.1-1.65,0.3
			c-1.033,0.2-2.017,0.267-2.95,0.2C9.717,2.316,9.2,2.216,8.8,2.05l-0.35-0.2l2.35-0.5c1.633-0.5,2.55-1.183,2.75-2.05
			c0.133-0.6,0.017-1.067-0.35-1.4c-0.3-0.267-0.6-0.317-0.9-0.15c-0.667,0.333-1.5,0.617-2.5,0.85C8.9-1.233,8.317-1.184,8.05-1.25
			C6.583-1.583,5.467-1.8,4.7-1.9c-1.5-0.167-2.583,0-3.25,0.5C0.817-1.034,0.4-0.633,0.2-0.2C0.067,0.9-0.05,1.483-0.15,1.55
			c-0.633,0.4-0.9,0.983-0.8,1.75c0,0.2,0.05,0.467,0.15,0.8c0.2,0.667,0.533,1.3,1,1.9C0.7,6.7,1,7.183,1.1,7.45
			c0.133,0.434,0.033,0.833-0.3,1.2C0.233,9.25-0.117,9.7-0.25,10c-0.2,0.566,0.034,1,0.7,1.3c0.867,0.4,1.717,0.317,2.55-0.25
			c0.9-0.633,1.333-1.617,1.3-2.95L5,7.75c0.534-0.2,0.95-0.2,1.25,0C7.684,8.816,8.95,9.45,10.05,9.65z"/>
		
			<linearGradient id="SVGID_6_" gradientUnits="userSpaceOnUse" x1="9754.9316" y1="3259.3457" x2="9757.8066" y2="3259.3457" gradientTransform="matrix(0.6 0.8 -0.8 0.6 -3242.4004 -9757.2002)">
			<stop  offset="0" style="stop-color:#B094B3"/>
			<stop  offset="0.0275" style="stop-color:#B398B6"/>
			<stop  offset="0.3333" style="stop-color:#D4C4D5"/>
			<stop  offset="0.6118" style="stop-color:#EBE4EC"/>
			<stop  offset="0.8431" style="stop-color:#FAF8FA"/>
			<stop  offset="1" style="stop-color:#FFFFFF"/>
		</linearGradient>
		<path style="fill-rule:evenodd;clip-rule:evenodd;fill:url(#SVGID_6_);" d="M0.95,2.3L2.35,3c1.1,0.367,2.167,0.317,3.2-0.15
			C3.85,2.983,2.317,2.8,0.95,2.3z"/>
		<linearGradient id="SVGID_7_" gradientUnits="userSpaceOnUse" x1="7.125" y1="3.125" x2="9.675" y2="3.125">
			<stop  offset="0" style="stop-color:#B094B3"/>
			<stop  offset="0.0275" style="stop-color:#B398B6"/>
			<stop  offset="0.3333" style="stop-color:#D4C4D5"/>
			<stop  offset="0.6118" style="stop-color:#EBE4EC"/>
			<stop  offset="0.8431" style="stop-color:#FAF8FA"/>
			<stop  offset="1" style="stop-color:#FFFFFF"/>
		</linearGradient>
		<path style="fill-rule:evenodd;clip-rule:evenodd;fill:url(#SVGID_7_);" d="M7.1,6.2l1.1-1.8c0.6-1.467,0.466-2.917-0.4-4.35
			C7.9,0.617,7.95,1.3,7.95,2.1C7.95,3.7,7.667,5.067,7.1,6.2z"/>
	</g>
</symbol>
<symbol  id="hand_x5F_right" viewBox="-17.658 -3.089 19.515 15.453">
	<g id="Layer_1_4_">
		<linearGradient id="SVGID_8_" gradientUnits="userSpaceOnUse" x1="-2.5625" y1="0.7031" x2="6.6625" y2="0.7031">
			<stop  offset="0" style="stop-color:#B094B3"/>
			<stop  offset="0.0275" style="stop-color:#B398B6"/>
			<stop  offset="0.3333" style="stop-color:#D4C4D5"/>
			<stop  offset="0.6118" style="stop-color:#EBE4EC"/>
			<stop  offset="0.8431" style="stop-color:#FAF8FA"/>
			<stop  offset="1" style="stop-color:#FFFFFF"/>
		</linearGradient>
		<path style="fill-rule:evenodd;clip-rule:evenodd;fill:url(#SVGID_8_);" d="M0.4,4.2c1.233-0.567,1.684-1.717,1.35-3.45
			C1.383-0.917,0.6-2.067-0.6-2.7c-1.167-0.566-2.233-0.466-3.2,0.3c-0.833,0.633-1.083,1.617-0.75,2.95
			c0.233,1.1,0.667,1.983,1.3,2.65C-2.05,4.433-0.833,4.767,0.4,4.2z"/>
		
			<linearGradient id="SVGID_9_" gradientUnits="userSpaceOnUse" x1="18611.6523" y1="-12830.3018" x2="18631.0371" y2="-12830.3018" gradientTransform="matrix(-0.935 0.3547 -0.3547 -0.935 12862.9932 -18599.5801)">
			<stop  offset="0" style="stop-color:#B094B3"/>
			<stop  offset="0.0275" style="stop-color:#B398B6"/>
			<stop  offset="0.3333" style="stop-color:#D4C4D5"/>
			<stop  offset="0.6118" style="stop-color:#EBE4EC"/>
			<stop  offset="0.8431" style="stop-color:#FAF8FA"/>
			<stop  offset="1" style="stop-color:#FFFFFF"/>
		</linearGradient>
		<path style="fill-rule:evenodd;clip-rule:evenodd;fill:url(#SVGID_9_);" d="M1.15,3.2c0.1-0.867-0.2-1.534-0.9-2l-0.2-1.25
			c-0.167-0.534-0.433-1.017-0.8-1.45c-0.8-0.9-1.9-1.3-3.3-1.2c-1.233,0.067-2.833,0.35-4.8,0.85c-0.3,0.1-0.95,0.033-1.95-0.2
			C-11.9-2.283-12.833-2.6-13.6-3c-0.3-0.167-0.617-0.1-0.95,0.2c-0.434,0.367-0.567,0.883-0.4,1.55
			C-14.717-0.283-13.7,0.467-11.9,1c0.9,0.267,1.767,0.45,2.6,0.55c-0.267,0.3-0.967,0.5-2.1,0.6c-1.033,0.067-2.133-0.017-3.3-0.25
			c-1.1-0.233-1.716-0.333-1.85-0.3c-0.333,0-0.633,0.25-0.9,0.75c-0.333,0.6-0.267,1.2,0.2,1.8c0.867,1.133,2.55,1.65,5.05,1.55
			c1.267-0.067,2.434-0.25,3.5-0.55c-0.566,0.567-1.75,1.217-3.55,1.95c-1.133,0.333-1.9,0.583-2.3,0.75
			c-0.367,0.167-0.567,0.35-0.6,0.55c0,0.6,0.25,1.083,0.75,1.45c0.733,0.5,1.833,0.633,3.3,0.4c0.867-0.167,1.684-0.467,2.45-0.9
			c0.233-0.133,0.833-0.533,1.8-1.2c0.533-0.4,1.25-0.267,2.15,0.4c-0.033,1.467,0.467,2.55,1.5,3.25
			c0.934,0.633,1.867,0.733,2.8,0.3c0.767-0.333,1.017-0.817,0.75-1.45c-0.1-0.3-0.483-0.816-1.15-1.55
			c-0.4-0.4-0.517-0.833-0.35-1.3c0.1-0.333,0.433-0.867,1-1.6C0.65,5.1,1.083,4.1,1.15,3.2z"/>
		
			<linearGradient id="SVGID_10_" gradientUnits="userSpaceOnUse" x1="17163.168" y1="-15250.0439" x2="17166.4141" y2="-15250.0439" gradientTransform="matrix(-0.9933 0.1155 -0.1155 -0.9933 15279.5674 -17127.3652)">
			<stop  offset="0" style="stop-color:#B094B3"/>
			<stop  offset="0.0275" style="stop-color:#B398B6"/>
			<stop  offset="0.3333" style="stop-color:#D4C4D5"/>
			<stop  offset="0.6118" style="stop-color:#EBE4EC"/>
			<stop  offset="0.8431" style="stop-color:#FAF8FA"/>
			<stop  offset="1" style="stop-color:#FFFFFF"/>
		</linearGradient>
		<path style="fill-rule:evenodd;clip-rule:evenodd;fill:url(#SVGID_10_);" d="M-7.55,6.45C-8.183,5.183-8.5,3.667-8.5,1.9
			c0-0.867,0.05-1.617,0.15-2.25C-9.283,1.25-9.433,2.867-8.8,4.5L-7.55,6.45z"/>
		<g>
			
				<linearGradient id="SVGID_11_" gradientUnits="userSpaceOnUse" x1="17723.4219" y1="-1773.7749" x2="17730.2852" y2="-1773.7749" gradientTransform="matrix(-0.2003 0.9797 -0.9797 -0.2003 1809.3804 -17718.8652)">
				<stop  offset="0" style="stop-color:#B094B3"/>
				<stop  offset="0.0275" style="stop-color:#B398B6"/>
				<stop  offset="0.3333" style="stop-color:#D4C4D5"/>
				<stop  offset="0.6118" style="stop-color:#EBE4EC"/>
				<stop  offset="0.8431" style="stop-color:#FAF8FA"/>
				<stop  offset="1" style="stop-color:#FFFFFF"/>
			</linearGradient>
			<path style="fill-rule:evenodd;clip-rule:evenodd;fill:url(#SVGID_11_);" d="M-2.8,3.15c0.033-0.015,0.066-0.031,0.1-0.05l2-1.25
				c-0.733,0.233-1.434,0.408-2.1,0.525S-4.1,2.55-4.7,2.55L-6.1,2.4c0.367,0.233,0.783,0.417,1.25,0.55
				c0.233,0.066,0.433,0.117,0.6,0.15C-4.283,3.167-4.333,3.317-4.4,3.55c-0.009,0.033-0.018,0.066-0.025,0.1
				C-4.465,3.858-4.457,4.092-4.4,4.35l0.1,0.35C-4.234,4.35-3.984,4-3.55,3.65C-3.339,3.485-3.089,3.319-2.8,3.15z"/>
		</g>
	</g>
</symbol>
<symbol  id="leg_x5F_left" viewBox="-7.903 -18.364 15.802 18.364">
	<g id="Layer_1_10_">
		<g>
			<g>
				<path style="fill-rule:evenodd;clip-rule:evenodd;fill:#15332A;" d="M-5,0l3.5-0.1c0.867-1.466,1.417-2.867,1.65-4.2
					C0.316-5.233,0.333-6.35,0.2-7.65c-0.133-1.2-0.383-2.283-0.75-3.25h0.9c0.767-0.067,1.583-0.233,2.45-0.5
					c1.367-0.433,2.6-1.2,3.7-2.3c0.934-0.934,1.4-1.6,1.4-2c-0.033-0.434-0.45-0.867-1.25-1.3c-0.9-0.533-2.383-0.933-4.45-1.2
					c-1.5-0.167-2.883-0.184-4.15-0.05c-1.167,0.133-2.15,0.317-2.95,0.55c-0.767,0.2-1.467,0.5-2.1,0.9s-0.933,0.75-0.9,1.05
					c0.067,0.3,0.317,0.783,0.75,1.45c1.033,1.6,1.8,2.8,2.3,3.6c1.133,1.867,1.667,3.75,1.6,5.65c-0.066,0.967-0.383,2.1-0.95,3.4
					L-5,0z"/>
			</g>
			
				<linearGradient id="SVGID_12_" gradientUnits="userSpaceOnUse" x1="16106.4023" y1="144.5547" x2="16114.1279" y2="144.5547" gradientTransform="matrix(0.0162 0.9999 -0.9999 0.0162 -115.5693 -16124.5439)">
				<stop  offset="0.0078" style="stop-color:#15332A"/>
				<stop  offset="1" style="stop-color:#2D5549"/>
			</linearGradient>
			<path style="fill-rule:evenodd;clip-rule:evenodd;fill:url(#SVGID_12_);" d="M-6.2-15.4c0.466,0.8,1.1,1.567,1.9,2.3
				c1.6,1.467,3.25,2.083,4.95,1.85c1.8-0.267,3.45-1,4.95-2.2c0.767-0.6,1.333-1.184,1.7-1.75c-0.034-0.367-0.3-0.733-0.8-1.1
				c-1-0.767-2.717-1.2-5.15-1.3c-2.633-0.133-4.65,0.034-6.05,0.5C-5.934-16.667-6.434-16.1-6.2-15.4z"/>
			<linearGradient id="SVGID_13_" gradientUnits="userSpaceOnUse" x1="-1.7002" y1="-6.7881" x2="-0.1002" y2="-6.7881">
				<stop  offset="0.0078" style="stop-color:#15332A"/>
				<stop  offset="1" style="stop-color:#2D5549"/>
			</linearGradient>
			<path style="fill-rule:evenodd;clip-rule:evenodd;fill:url(#SVGID_13_);" d="M-0.9-4.15c0.367,0.3,0.617-0.117,0.75-1.25
				s0.067-2.083-0.2-2.85c-0.233-0.7-0.483-1.117-0.75-1.25c-0.2-0.066-0.383,0.033-0.55,0.3c-0.1,0.167-0.1,0.583,0,1.25
				C-1.55-7.05-1.5-6.5-1.5-6.3C-1.5-5.167-1.3-4.45-0.9-4.15z"/>
		</g>
		<path style="fill-rule:evenodd;clip-rule:evenodd;fill:#2B8A62;" d="M-2.875-12.4l1.825,0.75c1.633,0.367,3.383,0.033,5.25-1
			c1.4-0.767,1.933-1.317,1.6-1.65c-0.3-0.367-0.883-0.25-1.75,0.35c-1.067,0.833-2.017,1.383-2.85,1.65
			C-0.128-11.847-1.486-11.88-2.875-12.4z"/>
		<path style="fill-rule:evenodd;clip-rule:evenodd;fill:#2B8A62;" d="M6.75-15.6c-0.2-0.167-0.433-0.117-0.7,0.15
			c-0.267,0.267-0.3,0.517-0.1,0.75c0.2,0.167,0.433,0.117,0.7-0.15C6.95-15.15,6.983-15.4,6.75-15.6z"/>
		<g>
			<g>
				<path style="fill-rule:evenodd;clip-rule:evenodd;fill:#4B1026;" d="M-5-0.05l3.5-0.05c0.867-1.5,1.417-2.9,1.65-4.2
					C0.316-5.233,0.333-6.367,0.2-7.7c-0.133-1.2-0.383-2.284-0.75-3.25h0.9c0.767-0.067,1.583-0.233,2.45-0.5
					c1.367-0.434,2.6-1.2,3.7-2.3c0.934-0.9,1.4-1.566,1.4-2c-0.033-0.433-0.45-0.867-1.25-1.3c-1-0.533-2.483-0.934-4.45-1.2
					c-1.267-0.133-2.65-0.15-4.15-0.05c-0.934,0.1-1.917,0.283-2.95,0.55c-0.767,0.2-1.467,0.5-2.1,0.9
					c-0.633,0.4-0.933,0.75-0.9,1.05l0.25,0.65c0.233,0.467,0.65,1.133,1.25,2l2.1,3.35c0.367,0.667,0.633,1.433,0.8,2.3
					c0.133,0.667,0.2,1.417,0.2,2.25C-3.333-3.65-3.9-1.917-5-0.05z"/>
			</g>
			
				<linearGradient id="SVGID_14_" gradientUnits="userSpaceOnUse" x1="16271.5303" y1="-17.6216" x2="16277.8555" y2="-17.6216" gradientTransform="matrix(-0.004 1 -1 -0.004 47.2222 -16289.0342)">
				<stop  offset="0.0078" style="stop-color:#4B1026"/>
				<stop  offset="1" style="stop-color:#942D47"/>
			</linearGradient>
			<path style="fill-rule:evenodd;clip-rule:evenodd;fill:url(#SVGID_14_);" d="M-6.2-15.45c0.466,0.733,1.1,1.466,1.9,2.2
				c1.6,1.434,3.25,2.083,4.95,1.95c1.967-0.133,3.667-0.833,5.1-2.1C6.483-14.033,7-14.65,7.3-15.25
				c-0.034-0.367-0.3-0.733-0.8-1.1c-1-0.767-2.717-1.2-5.15-1.3C-1.284-17.783-3.3-17.6-4.7-17.1
				C-5.934-16.667-6.434-16.117-6.2-15.45z"/>
			<linearGradient id="SVGID_15_" gradientUnits="userSpaceOnUse" x1="-1.7002" y1="-6.8091" x2="-0.1002" y2="-6.8091">
				<stop  offset="0.0078" style="stop-color:#4B1026"/>
				<stop  offset="1" style="stop-color:#942D47"/>
			</linearGradient>
			<path style="fill-rule:evenodd;clip-rule:evenodd;fill:url(#SVGID_15_);" d="M-0.9-4.15c0.4,0.267,0.65-0.167,0.75-1.3
				c0.133-1.1,0.067-2.05-0.2-2.85c-0.4-1.267-0.833-1.567-1.3-0.9c-0.1,0.167-0.1,0.566,0,1.2c0.1,0.9,0.15,1.467,0.15,1.7
				C-1.5-5.2-1.3-4.483-0.9-4.15z"/>
		</g>
		<path style="fill-rule:evenodd;clip-rule:evenodd;fill:#CF5780;" d="M5.1-14.45c-0.3,0.066-0.533,0.183-0.7,0.35
			c-0.433,0.4-0.933,0.75-1.5,1.05c-0.767,0.433-1.85,0.75-3.25,0.95c-0.884,0.099-1.751-0.026-2.6-0.375
			c0.227,0.1,0.543,0.275,0.95,0.525c0.633,0.267,1.283,0.4,1.95,0.4C1.383-11.517,2.8-11.9,4.2-12.7
			c1.4-0.767,1.933-1.317,1.6-1.65C5.667-14.517,5.433-14.55,5.1-14.45z"/>
		<path style="fill-rule:evenodd;clip-rule:evenodd;fill:#CF5780;" d="M6.75-15.6c-0.2-0.2-0.433-0.15-0.7,0.15
			c-0.3,0.233-0.333,0.466-0.1,0.7c0.233,0.167,0.467,0.117,0.7-0.15C6.917-15.167,6.95-15.4,6.75-15.6z"/>
	</g>
</symbol>
<symbol  id="leg_x5F_right" viewBox="-9.85 -21.55 19.7 21.6">
	<g id="Layer_1_9_">
		<g>
			<g>
				<path style="fill-rule:evenodd;clip-rule:evenodd;fill:#15332A;" d="M-7.2-20.25C-8.967-19.683-9.85-19-9.85-18.2
					c0,0.434,0.45,1.184,1.35,2.25c1.233,1.467,2.183,2.784,2.85,3.95c0.467,0.767,0.883,1.7,1.25,2.8
					c0.367,1.233,0.567,2.284,0.6,3.15c0.033,1.066-0.017,2.4-0.15,4l-0.15,2.1l4.55-0.4c0.434-1.967,0.7-3.617,0.8-4.95
					c0.066-0.967,0.033-2.117-0.1-3.45c-0.167-1.4-0.417-2.667-0.75-3.8l1.2-0.2c0.967-0.233,1.917-0.583,2.85-1.05
					c1.533-0.733,2.867-1.717,4-2.95c0.934-0.967,1.4-1.65,1.4-2.05c0-0.167-0.15-0.367-0.45-0.6c-0.467-0.434-1.434-0.867-2.9-1.3
					c-1.967-0.533-3.733-0.8-5.3-0.8C-1.7-21.5-4.5-21.083-7.2-20.25z"/>
			</g>
			
				<linearGradient id="SVGID_16_" gradientUnits="userSpaceOnUse" x1="16089.3447" y1="158.6816" x2="16097.6963" y2="158.6816" gradientTransform="matrix(0.018 0.9998 -0.9998 0.018 -129.8213 -16109.8252)">
				<stop  offset="0.0078" style="stop-color:#15332A"/>
				<stop  offset="1" style="stop-color:#2D5549"/>
			</linearGradient>
			<path style="fill-rule:evenodd;clip-rule:evenodd;fill:url(#SVGID_16_);" d="M-8-17.35c0.566,0.867,1.367,1.7,2.4,2.5
				c2.133,1.567,4.433,2.167,6.9,1.8c1.8-0.267,3.65-1.2,5.55-2.8c0.967-0.833,1.733-1.617,2.3-2.35
				c-0.067-0.267-0.434-0.55-1.1-0.85c-1.3-0.534-3.383-0.817-6.25-0.85c-3.267-0.033-5.817,0.2-7.65,0.7
				C-7.55-18.7-8.267-18.083-8-17.35z"/>
			<linearGradient id="SVGID_17_" gradientUnits="userSpaceOnUse" x1="-1.4375" y1="-6.9917" x2="0.5375" y2="-6.9917">
				<stop  offset="0.0078" style="stop-color:#15332A"/>
				<stop  offset="1" style="stop-color:#2D5549"/>
			</linearGradient>
			<path style="fill-rule:evenodd;clip-rule:evenodd;fill:url(#SVGID_17_);" d="M-0.1-3.85c0.333-0.033,0.55-0.6,0.65-1.7
				C0.617-6.683,0.517-7.8,0.25-8.9c-0.3-1.367-0.75-1.6-1.35-0.7c-0.333,0.567-0.417,1.65-0.25,3.25c0.066,0.6,0.233,1.167,0.5,1.7
				C-0.583-4.083-0.333-3.817-0.1-3.85z"/>
		</g>
		<path style="fill-rule:evenodd;clip-rule:evenodd;fill:#2B8A62;" d="M-2.5-13.55c2.433,0.767,4.883,0.417,7.35-1.05
			c2.067-1.2,3-2.133,2.8-2.8c-0.233-0.667-1-0.45-2.3,0.65c-1.733,1.467-3.033,2.333-3.9,2.6c-1.867,0.6-4.167,0.283-6.9-0.95
			L-2.5-13.55z"/>
		<g>
			<g>
				<path style="fill-rule:evenodd;clip-rule:evenodd;fill:#4B1026;" d="M-7.2-20.3c-1.767,0.566-2.65,1.267-2.65,2.1
					c0,0.367,0.167,0.784,0.5,1.25c0.433,0.5,0.733,0.85,0.9,1.05c1.233,1.433,2.017,2.483,2.35,3.15
					c0.9,1.667,1.517,3.167,1.85,4.5c0.133,0.767,0.233,1.583,0.3,2.45c0.1,1.3,0.1,2.583,0,3.85C-4.017-0.65-4.067,0-4.1,0
					l4.55-0.4c0.434-1.967,0.7-3.617,0.8-4.95c0.066-0.967,0.033-2.1-0.1-3.4c-0.167-1.433-0.417-2.717-0.75-3.85l1.2-0.2
					c0.967-0.233,1.917-0.583,2.85-1.05c1.533-0.733,2.867-1.717,4-2.95c0.934-0.967,1.4-1.65,1.4-2.05
					c0-0.133-0.15-0.316-0.45-0.55c-0.434-0.434-1.383-0.883-2.85-1.35c-2-0.533-3.783-0.8-5.35-0.8C-1.7-21.55-4.5-21.133-7.2-20.3
					z"/>
			</g>
			
				<linearGradient id="SVGID_18_" gradientUnits="userSpaceOnUse" x1="16089.3447" y1="158.6816" x2="16097.6963" y2="158.6816" gradientTransform="matrix(0.018 0.9998 -0.9998 0.018 -129.8213 -16109.8252)">
				<stop  offset="0.0078" style="stop-color:#4B1026"/>
				<stop  offset="1" style="stop-color:#942D47"/>
			</linearGradient>
			<path style="fill-rule:evenodd;clip-rule:evenodd;fill:url(#SVGID_18_);" d="M-8-17.4c0.566,0.867,1.367,1.7,2.4,2.5
				c2.133,1.6,4.433,2.217,6.9,1.85c1.8-0.3,3.65-1.25,5.55-2.85c0.967-0.8,1.733-1.567,2.3-2.3c-0.067-0.3-0.434-0.583-1.1-0.85
				c-1.3-0.567-3.383-0.867-6.25-0.9c-3.267-0.033-5.817,0.217-7.65,0.75C-7.55-18.7-8.267-18.1-8-17.4z"/>
			<linearGradient id="SVGID_19_" gradientUnits="userSpaceOnUse" x1="-1.4375" y1="-7.0005" x2="0.5375" y2="-7.0005">
				<stop  offset="0.0078" style="stop-color:#4B1026"/>
				<stop  offset="1" style="stop-color:#942D47"/>
			</linearGradient>
			<path style="fill-rule:evenodd;clip-rule:evenodd;fill:url(#SVGID_19_);" d="M-0.1-3.9c0.333-0.033,0.55-0.6,0.65-1.7
				c0.067-1.1-0.033-2.217-0.3-3.35c-0.167-0.767-0.4-1.15-0.7-1.15C-0.684-10.133-0.9-9.967-1.1-9.6
				c-0.333,0.533-0.417,1.617-0.25,3.25c0.066,0.567,0.233,1.117,0.5,1.65C-0.583-4.133-0.333-3.867-0.1-3.9z"/>
		</g>
		<path style="fill-rule:evenodd;clip-rule:evenodd;fill:#CF5780;" d="M-2.6-13.6c0.8,0.267,1.683,0.4,2.65,0.4
			c1.567,0,3.167-0.466,4.8-1.4c2-1.2,2.934-2.117,2.8-2.75c-0.033-0.3-0.267-0.4-0.7-0.3c-0.5,0.1-1.033,0.383-1.6,0.85
			c-1.167,1-1.917,1.6-2.25,1.8c-1.033,0.7-2.133,1.067-3.3,1.1c-1.433,0.1-3.167-0.317-5.2-1.25c0.167,0.167,0.417,0.35,0.75,0.55
			C-4.017-14.167-3.333-13.833-2.6-13.6z"/>
	</g>
</symbol>
<symbol  id="nose" viewBox="-1.95 -0.65 3.925 1.266">
	<g id="Layer_1_8_">
		<g>
			<path style="fill-rule:evenodd;clip-rule:evenodd;fill:#7A1F3B;" d="M1.7,0.55c0.367-0.2,0.367-0.4,0-0.6
				C1.333-0.217,0.85-0.333,0.25-0.4l-2.2-0.25L-0.4,0.1C0.7,0.567,1.4,0.717,1.7,0.55z"/>
		</g>
	</g>
</symbol>
<use xlink:href="#Juju_x5F_red"  width="3.486" height="2.532" id="juju_x5F_red" x="-1.746" y="-29.982" transform="matrix(1 0 0 -1 56 100.6504)" style="overflow:visible;"/>
</svg>
