<?xml version="1.0" encoding="iso-8859-1"?>
<!-- Generator: Adobe Illustrator 15.1.0, SVG Export Plug-In . SVG Version: 6.00 Build 0)  -->
<!DOCTYPE svg PUBLIC "-//W3C//DTD SVG 1.1//EN" "http://www.w3.org/Graphics/SVG/1.1/DTD/svg11.dtd">
<svg version="1.1" id="Layer_3" xmlns="http://www.w3.org/2000/svg" xmlns:xlink="http://www.w3.org/1999/xlink" x="0px" y="0px"
	 width="112px" height="141.75px" viewBox="0 0 112 141.75" style="enable-background:new 0 0 112 141.75;" xml:space="preserve">
<symbol  id="Body" viewBox="-22.27 -25.258 44.527 50.565">
	<g id="Layer_2_5_">
		
			<radialGradient id="SVGID_1_" cx="-0.0068" cy="0.0244" r="23.821" gradientTransform="matrix(1 0 0 -1 0 0.0488)" gradientUnits="userSpaceOnUse">
			<stop  offset="0.0078" style="stop-color:#062111"/>
			<stop  offset="0.3569" style="stop-color:#082314"/>
			<stop  offset="0.6627" style="stop-color:#0E2B1F"/>
			<stop  offset="0.949" style="stop-color:#193731"/>
			<stop  offset="1" style="stop-color:#1B3A35"/>
		</radialGradient>
		<path style="fill-rule:evenodd;clip-rule:evenodd;fill:url(#SVGID_1_);" d="M21.9-11c0.333-2.167,0.433-3.9,0.3-5.2
			c-0.133-1.167-0.483-2.2-1.05-3.1c-0.934-1.367-2.083-2.35-3.45-2.95c-2.233-1-4.267-1.65-6.1-1.95
			c-2.433-0.467-4.55-0.75-6.35-0.85c-2.1-0.167-3.95-0.233-5.55-0.2c-1,0.033-2.383,0.117-4.15,0.25
			c-3.567,0.233-7.083,0.983-10.55,2.25c-2.8,0.966-4.75,2.033-5.85,3.2c-0.767,0.833-1.233,1.95-1.4,3.35
			c-0.067,0.8,0.033,2.25,0.3,4.35c0.633,5.167,0.967,7.917,1,8.25c0.3,2.533,0.7,6.65,1.2,12.35c0.433,5,0.716,7.917,0.85,8.75
			c0.167,1.1,0.45,1.966,0.85,2.6c0.167,0.3,0.483,0.684,0.95,1.15c1.033,1.066,3.05,1.983,6.05,2.75
			c3.233,0.833,6.833,1.267,10.8,1.3C1.816,25.333,3.9,25.25,6,25.05c3.8-0.4,6.75-1.117,8.85-2.15
			c0.934-0.467,1.583-1.05,1.95-1.75c0.333-0.6,0.583-1.5,0.75-2.7l1.4-10.2C19.45,4.716,20.433-1.7,21.9-11z"/>
		<path style="fill-rule:evenodd;clip-rule:evenodd;fill:#0D291C;" d="M0.45,17.6c-3.433,0.034-6.717,0.2-9.85,0.5
			c-6.2,0.667-8.45,1.75-6.75,3.25c1.133,1.067,3.7,2,7.7,2.8c6.133,1.233,12.867,1.05,20.2-0.55c-4.567,0.6-8.317,0.75-11.25,0.45
			c-1.067-0.1-1.867-0.267-2.4-0.5c-1.7-0.633-2.267-1.6-1.7-2.9C-3,19.383-1.65,18.367,0.45,17.6z"/>
		<path style="fill-rule:evenodd;clip-rule:evenodd;fill:#07211C;" d="M17.15,12.35c-0.267,2-0.316,3.467-0.15,4.4
			c1.2-8.133,2.15-14.1,2.85-17.9c0.9-5.1,1.433-8.467,1.6-10.1c0.433-4.1,0.183-6.767-0.75-8c-1.3-1.7-3.667-3.017-7.1-3.95
			c-3.2-0.867-6.917-1.333-11.15-1.4c-2.3-0.066-4.483,0-6.55,0.2c-4.8,0.433-8.65,1.2-11.55,2.3c-2.467,0.967-4.133,2.133-5,3.5
			c-0.667,1.067-0.983,2.25-0.95,3.55c0,0.133,0.184,1.683,0.55,4.65L-19,7.35c0.633,6.233,0.983,9.4,1.05,9.5l0.25-1.1
			c0.167-0.833,0.25-1.567,0.25-2.2c0-0.367,0.15-0.933,0.45-1.7c0.167-0.533,0.1-1.05-0.2-1.55c-0.5-0.867-0.833-4.2-1-10
			c-0.033-1.466,0.233-2.833,0.8-4.1c1-2.067,1.233-2.95,0.7-2.65c-0.433,0.233-0.9,0.25-1.4,0.05c-0.5-0.167-0.85-0.483-1.05-0.95
			C-18.483-7.15-18-7.2-17.7-7.5c-0.767-0.233-1.267-0.533-1.5-0.9c-0.233-0.3-0.333-0.833-0.3-1.6c0-0.667,0.167-1.217,0.5-1.65
			c0.333-0.5,0.8-0.7,1.4-0.6c0.367,0.067,0.783,0.267,1.25,0.6c0.333,0.133,0.65-0.033,0.95-0.5c0.7-1.167,0.85-2.1,0.45-2.8
			c-0.167-0.3-0.9-0.517-2.2-0.65c-1.267-0.1-1.967-0.316-2.1-0.65c-0.5-1.2,0.133-2.35,1.9-3.45c1.533-1,3.633-1.8,6.3-2.4
			c2.966-0.633,4.983-1.05,6.05-1.25c2.567-0.4,5.05-0.6,7.45-0.6c3.3,0,6.716,0.367,10.25,1.1c5.6,1.133,8.233,3.583,7.9,7.35
			c-0.033,0.533-0.333,1.15-0.9,1.85c-0.434,0.6-0.567,1.083-0.4,1.45c0.2,0.4,0.35,1,0.45,1.8c0.233,2,0,5-0.7,9
			C18.483,1.867,17.85,6.45,17.15,12.35z"/>
		<path style="fill-rule:evenodd;clip-rule:evenodd;fill:#07211C;" d="M-4.45-13.75c1.033-1,1.383-1.833,1.05-2.5
			c-0.133-0.233-0.7-0.717-1.7-1.45c-1.4-0.967-2.083-2.05-2.05-3.25c0.034-0.667,0.317-1.233,0.85-1.7
			c0.434-0.367,1.117-0.716,2.05-1.05c-1.534,0.067-2.9,0.267-4.1,0.6c-1.267,0.433-2.217,0.75-2.85,0.95
			c0.6-0.133,1.05-0.167,1.35-0.1c0.4,0.133,0.7,0.45,0.9,0.95c0.2,0.567,0.183,1.2-0.05,1.9c-0.267,0.733-0.684,1.217-1.25,1.45
			c-0.667,0.233-1.167,0.583-1.5,1.05c-0.333,0.467-0.434,0.934-0.3,1.4c0.1,0.3,0.35,0.566,0.75,0.8c0.367,0.2,0.55,0.4,0.55,0.6
			c0,0.1,0.183,0.4,0.55,0.9c0.367,0.533,0.6,1.25,0.7,2.15c0.167,1.233,0.333,3.533,0.5,6.9c0.2,3.5,0.3,6.184,0.3,8.05
			c0,3.233,0.017,5.066,0.05,5.5c0.067,1.733,0.267,2.717,0.6,2.95l0.25-1.3c0.167-1,0.2-1.933,0.1-2.8
			c-0.1-0.767-0.15-2.8-0.15-6.1c-0.033-3.867-0.067-6.283-0.1-7.25C-8.017-7-7.817-8.55-7.35-9.75
			C-6.85-11.083-5.883-12.417-4.45-13.75z"/>
		<path style="fill-rule:evenodd;clip-rule:evenodd;fill:#144033;" d="M16.6,16.8c0-0.133,0-0.367,0-0.7l0.65-6.55
			c0.133-1.967,0.367-4.25,0.7-6.85c0.8-5.7,1.267-9.65,1.4-11.85c0.034-0.4-0.05-0.966-0.25-1.7c-0.167-0.767-0.25-1.35-0.25-1.75
			c0.034-0.467,0.2-0.95,0.5-1.45c0.434-0.633,0.7-1.066,0.8-1.3c0.3-0.8,0.217-1.783-0.25-2.95c-0.333-0.967-1.55-1.833-3.65-2.6
			c-1.4-0.5-3.517-1.066-6.35-1.7c-1.867-0.4-4.05-0.6-6.55-0.6c-2.767,0.1-4.767,0.167-6,0.2c-1.7,0.033-2.85,0.417-3.45,1.15
			c-0.533,0.7-0.467,1.333,0.2,1.9c0.467,0.4,1.717,0.25,3.75-0.45c2.7-0.933,4.233-1.433,4.6-1.5c0.833-0.133,1.934,0.117,3.3,0.75
			c1.566,0.733,2.667,1.133,3.3,1.2c0.233,0.033,1.333,0.033,3.3,0c1.167,0,1.95,0.2,2.35,0.6c0.533,0.6,0.667,1.35,0.4,2.25
			c-0.133,0.533-0.5,1.267-1.1,2.2c-0.467,0.8-0.717,1.317-0.75,1.55c-0.067,0.433,0.133,0.95,0.6,1.55
			c1.534,2.067,1.833,3.867,0.9,5.4c-0.2,0.3-0.55,0.567-1.05,0.8c-0.7,0.3-1.1,0.483-1.2,0.55c-0.367,0.233-0.583,0.667-0.65,1.3
			c-0.1,0.7,0.1,1.066,0.6,1.1c1.033,0.133,1.833,0.517,2.4,1.15c0.6,0.7,0.883,1.816,0.85,3.35c0,0.833-0.117,2.034-0.35,3.6
			l-0.4,2.35c-0.367,1.6-0.783,2.617-1.25,3.05c-0.3,0.167-0.517,0.3-0.65,0.4c-0.233,0.167-0.333,0.4-0.3,0.7
			c0,0.133,0.066,0.3,0.2,0.5c0.167,0.233,0.25,0.4,0.25,0.5c0.033,0.233-0.05,0.367-0.25,0.4c-0.233-0.033-0.417-0.033-0.55,0
			c-0.6,0.133-0.783,0.583-0.55,1.35L11.9,15c0.2,0.633,0.55,1.066,1.05,1.3c0.3,0.133,0.867,0.55,1.7,1.25
			c0.767,0.467,1.35,0.433,1.75-0.1C16.533,17.283,16.6,17.066,16.6,16.8z"/>
		<path style="fill-rule:evenodd;clip-rule:evenodd;fill:#1A4538;" d="M16.1,21.55c1-0.767,0.85-1.65-0.45-2.65
			c-1.167-0.9-3.167-1.783-6-2.65c-3.567-1.133-8.633-1.483-15.2-1.05c-1.767-0.3-2.9-0.733-3.4-1.3c-0.733-0.767-1.2-2.75-1.4-5.95
			c-0.1-1.8-0.184-4.617-0.25-8.45c-0.1-1.934-0.133-4.1-0.1-6.5c0-2.2-0.017-3.6-0.05-4.2c-0.067-0.8-0.383-1.6-0.95-2.4
			c-0.667-0.934-1.067-1.617-1.2-2.05c-0.167-0.566,0.2-1.433,1.1-2.6c0.934-1.133,1.283-1.95,1.05-2.45
			c-0.333-0.733-1.617-0.6-3.85,0.4c-2.2,1-3.4,1.9-3.6,2.7c-0.2,0.6,0.1,1,0.9,1.2c0.467,0.133,1.267,0.267,2.4,0.4
			c1,0.233,1.2,1.133,0.6,2.7c-0.433,0.667-0.7,1.2-0.8,1.6c-0.067,0.267-0.067,0.617,0,1.05c0.066,0.6,0.1,0.967,0.1,1.1
			c0,1.133-0.1,2.083-0.3,2.85c-0.267,0.633-0.45,1.1-0.55,1.4c-0.233,0.567-0.317,1.067-0.25,1.5c0.367,1.167,0.583,2.067,0.65,2.7
			c0.367,2.867,0.55,7.65,0.55,14.35c0,1.8-0.466,3.25-1.4,4.35c-0.4,0.3-0.65,0.617-0.75,0.95v0.4l0.7-0.7
			c0.633-0.5,1.467-0.867,2.5-1.1c1.566-0.434,4.5-0.75,8.8-0.95c4.434-0.233,7.5-0.183,9.2,0.15c1.467,0.3,2.667,0.934,3.6,1.9
			c0.933,0.966,1.617,1.5,2.05,1.6c0.533,0.1,1.433,0.083,2.7-0.05c1.1-0.133,1.95-0.083,2.55,0.15c0.667,0.233,1.05,0.567,1.15,1
			L16.1,21.55z"/>
		<path style="fill-rule:evenodd;clip-rule:evenodd;fill:#339980;" d="M16.6,14.5c0.167,0.066,0.367-0.867,0.6-2.8l0.9-7.3
			c0.667-4.934,0.817-7.417,0.45-7.45c-0.2-0.033-0.45,1.367-0.75,4.2c-0.367,3.367-0.617,5.617-0.75,6.75
			C16.55,12.233,16.4,14.433,16.6,14.5z"/>
		<path style="fill-rule:evenodd;clip-rule:evenodd;fill:#2B8A62;" d="M6.7-22.85c1,0.167,2.434,0.45,4.3,0.85
			c1.667,0.367,2.966,0.8,3.9,1.3c1.033,0.5,1.783,1.1,2.25,1.8c0.3,0.4,0.6,1.15,0.9,2.25c0.233,0.767,0.533,1.25,0.9,1.45
			c0.3,0.133,0.583,0.083,0.85-0.15c0.3-0.233,0.467-0.583,0.5-1.05c0.067-1.367-0.633-2.583-2.1-3.65
			c-1.2-0.833-2.75-1.467-4.65-1.9c-1.567-0.4-3.35-0.683-5.35-0.85l-2.5-0.15L6.7-22.85z"/>
		<path style="fill-rule:evenodd;clip-rule:evenodd;fill:#339980;" d="M-6.6,15.2c-1.934-0.3-3.133-0.967-3.6-2
			c-0.433-1-0.75-3.133-0.95-6.4c-0.066-1.767-0.183-4.3-0.35-7.6l-0.4-10.1c-0.066-0.966-0.15-1.617-0.25-1.95
			c-0.133-0.533-0.383-0.8-0.75-0.8c-0.3-0.033-0.6,0.167-0.9,0.6c-0.6,0.833-0.8,1.783-0.6,2.85c0.167,1.233,0.167,2.317,0,3.25
			c-0.233,1.4-0.316,3.117-0.25,5.15c0.2,2.333,0.317,4.067,0.35,5.2l0.3,7.8c0.033,1.6-0.05,2.817-0.25,3.65
			c-0.133,0.567-0.383,1.067-0.75,1.5l-1.15,1.35l0.55-0.3c0.5-0.233,1.083-0.467,1.75-0.7c1.1-0.3,2.05-0.517,2.85-0.65
			c0.767-0.167,1.867-0.3,3.3-0.4c2-0.1,3.283-0.184,3.85-0.25C-4.717,15.433-5.633,15.367-6.6,15.2z"/>
		<path style="fill-rule:evenodd;clip-rule:evenodd;fill:#144033;" d="M-18.9-7.05c0.6,0.6,1.25,0.783,1.95,0.55
			c0.633-0.233,0.983-0.6,1.05-1.1c0.034-0.4-0.1-0.583-0.4-0.55c-0.3,0.067-0.533,0.284-0.7,0.65c-0.133,0.3-0.483,0.466-1.05,0.5
			L-18.9-7.05z"/>
		<path style="fill-rule:evenodd;clip-rule:evenodd;fill:#339980;" d="M-17.35-6.5c0.433-0.034,0.7-0.3,0.8-0.8
			c-0.2,0.267-0.483,0.434-0.85,0.5l-1.15-0.15C-18.117-6.65-17.717-6.5-17.35-6.5z"/>
		<path style="fill-rule:evenodd;clip-rule:evenodd;fill:#339980;" d="M-19.1,10.05c0.066-3.067-0.333-6.817-1.2-11.25L-19.1,10.05z
			"/>
		<path style="fill-rule:evenodd;clip-rule:evenodd;fill:#2B8A62;" d="M-11.65-19.85c-0.167-0.233-0.55-0.333-1.15-0.3
			c-0.566,0.067-1.217,0.25-1.95,0.55c-0.7,0.267-1.284,0.617-1.75,1.05c-0.467,0.4-0.667,0.733-0.6,1c0.1,0.333,0.5,0.55,1.2,0.65
			c0.733,0.133,1.45,0.067,2.15-0.2c0.7-0.267,1.283-0.733,1.75-1.4C-11.567-19.1-11.45-19.55-11.65-19.85z"/>
		<path style="fill-rule:evenodd;clip-rule:evenodd;fill:#339980;" d="M14.85,18.8c-0.433-0.233-1.233-0.567-2.4-1
			c-1.433-0.567-2.517-0.933-3.25-1.1l-3.5-0.75l-2.475-0.1C3.332,15.857,3.756,15.907,4.5,16l0.9,0.2
			c0.967,0.233,1.683,0.55,2.15,0.95c0.133,0.1,0.617,0.617,1.45,1.55c0.433,0.467,1,0.7,1.7,0.7c0.6,0,1.383-0.033,2.35-0.1
			c0.767,0,1.433,0.117,2,0.35c0.933,0.367,1.3,0.833,1.1,1.4c-0.1,0.3-0.317,0.6-0.65,0.9l-0.45,0.35
			c1.033-0.467,1.533-1.05,1.5-1.75C16.55,20.017,15.983,19.433,14.85,18.8z"/>
		<path style="fill-rule:evenodd;clip-rule:evenodd;fill:#339980;" d="M-16.2-7.65c0.033-0.133,0-0.233-0.1-0.3
			c-0.066-0.067-0.133,0-0.2,0.2c-0.067,0.167-0.05,0.25,0.05,0.25C-16.35-7.467-16.267-7.517-16.2-7.65z"/>
		<path style="fill-rule:evenodd;clip-rule:evenodd;fill:#6F6D73;" d="M-16.55,20.2c-0.167-0.3-0.316-0.283-0.45,0.05
			c0.2,1.066,1.65,2.033,4.35,2.9c1.367,0.4,2.7,0.717,4,0.95c-3.267-0.667-5.566-1.517-6.9-2.55L-16.55,20.2z"/>
		<path style="fill-rule:evenodd;clip-rule:evenodd;fill:#2B8A62;" d="M14.6,21.65c-0.066-0.4-0.517-0.533-1.35-0.4
			c-0.867,0.133-1.267,0.4-1.2,0.8s0.533,0.533,1.4,0.4C14.283,22.316,14.667,22.05,14.6,21.65z"/>
		<path style="fill-rule:evenodd;clip-rule:evenodd;fill:#2B8A62;" d="M15.45,20.8c0.067-0.267-0.133-0.433-0.6-0.5
			c-0.466-0.067-0.7,0.033-0.7,0.3c-0.033,0.267,0.167,0.45,0.6,0.55C15.216,21.216,15.45,21.1,15.45,20.8z"/>
		<path style="fill-rule:evenodd;clip-rule:evenodd;fill:#0D291C;" d="M0.4,23.05c0.066-0.233-0.017-0.483-0.25-0.75
			c-0.233-0.233-0.55-0.417-0.95-0.55c-0.967-0.3-1.533-0.184-1.7,0.35c-0.067,0.233,0.017,0.467,0.25,0.7
			c0.233,0.267,0.55,0.467,0.95,0.6s0.767,0.15,1.1,0.05C0.133,23.383,0.333,23.25,0.4,23.05z"/>
	</g>
</symbol>
<symbol  id="JuJu_x5F_Green_x5F_anim" viewBox="-49.963 -35.309 99.905 72.552">
	<g id="left_arm_1_">
		
			<use xlink:href="#arm_x5F_left"  width="14.208" height="9.387" x="-0.054" y="-4.7" transform="matrix(0.777 -0.7531 0.7531 0.777 21.6499 -0.6504)" style="overflow:visible;"/>
	</g>
	<g id="left_hand_1_">
		
			<use xlink:href="#hand_x5F_left"  width="17.571" height="14.248" x="-1.578" y="-2.7" transform="matrix(0.555 -0.9292 0.9292 0.555 34.0498 -7.1006)" style="overflow:visible;"/>
	</g>
	<g id="left_leg_1_">
		
			<use xlink:href="#leg_x5F_left"  width="15.802" height="18.339" x="-7.903" y="-18.339" transform="matrix(1.0864 0 -0.0436 1.0864 11 -11.3003)" style="overflow:visible;"/>
	</g>
	<g id="right_leg_1_">
		
			<use xlink:href="#leg_x5F_right"  width="19.7" height="21.55" x="-9.85" y="-21.5" transform="matrix(1.0864 0 -0.0436 1.0864 -7.1494 -11.9507)" style="overflow:visible;"/>
	</g>
	<g id="body_1_">
		
			<use xlink:href="#Body"  width="44.527" height="50.565" x="-22.27" y="-25.258" transform="matrix(1.072 -0.171 0.171 1.072 2.8501 9.4502)" style="overflow:visible;"/>
	</g>
	<g id="face_1_">
		
			<use xlink:href="#face"  width="20.555" height="30.45" x="-10.202" y="-15.25" transform="matrix(1.072 -0.171 0.171 1.072 7.9502 7.6494)" style="overflow:visible;"/>
	</g>
	<g id="right_arm_1_">
		
			<use xlink:href="#arm_x5F_right"  width="15.708" height="10.435" x="-15.704" y="-5.15" transform="matrix(1.0143 0.3848 -0.3848 1.0143 -15.9497 4)" style="overflow:visible;"/>
	</g>
	<g id="right_hand_1_">
		
			<use xlink:href="#hand_x5F_right"  width="19.548" height="15.429" x="-17.642" y="-3.089" transform="matrix(0.8793 0.6346 -0.6346 0.8793 -30.9995 2.1499)" style="overflow:visible;"/>
	</g>
	<g>
		<g id="mask_1_">
		</g>
		<g id="FX_1_">
		</g>
	</g>
</symbol>
<symbol  id="Juju_x5F_green" viewBox="-1.741 -29.981 3.482 2.529">
	<g id="JuJu_1_">
		
			<use xlink:href="#JuJu_x5F_Green_x5F_anim"  width="99.905" height="72.552" x="-49.963" y="-35.309" transform="matrix(0.0349 0 0 0.0349 0 -28.75)" style="overflow:visible;opacity:0;"/>
	</g>
	<g id="state_1_">
	</g>
</symbol>
<symbol  id="arm_x5F_left" viewBox="-0.054 -4.7 14.208 9.387">
	<g id="Layer_1_12_">
		<g>
			<g>
				<path style="fill-rule:evenodd;clip-rule:evenodd;fill:#1A4540;" d="M13.95,1.5c-2-4.133-4.733-6.2-8.2-6.2
					C4.15-4.7,2.567-4.233,1-3.3C0.534-3,0.217-2.583,0.05-2.05c-0.167,0.566-0.133,1.083,0.1,1.55c0.2,0.467,0.533,0.767,1,0.9
					c0.5,0.133,0.983,0.05,1.45-0.25H2.55c0.967-0.566,2-0.816,3.1-0.75c2.033,0.167,3.7,1.617,5,4.35
					c0.233,0.467,0.583,0.767,1.05,0.9c0.467,0.1,0.933,0,1.4-0.3c0.467-0.333,0.783-0.767,0.95-1.3
					C14.217,2.483,14.184,1.967,13.95,1.5z"/>
			</g>
		</g>
		<path style="fill-rule:evenodd;clip-rule:evenodd;fill:#339980;" d="M7.2-0.85C6.7-1.017,6.2-1.1,5.7-1.1L4.75-0.9l1.8,0.1
			l0.8,0.25c0.667,0.267,1.184,0.7,1.55,1.3C8.767,0.317,8.434-0.1,7.9-0.5L7.2-0.85z"/>
	</g>
</symbol>
<symbol  id="arm_x5F_right" viewBox="-15.704 -5.15 15.708 10.435">
	<g id="Layer_1_5_">
		<g>
			<g>
				<path style="fill-rule:evenodd;clip-rule:evenodd;fill:#15332A;" d="M-13,5.25c0.534-0.133,0.917-0.467,1.15-1
					C-10.383,1.217-8.533-0.4-6.3-0.6c1.133-0.1,2.267,0.167,3.4,0.8c0.533,0.333,1.067,0.434,1.6,0.3c0.5-0.133,0.867-0.467,1.1-1
					s0.267-1.1,0.1-1.7c-0.2-0.6-0.55-1.066-1.05-1.4C-2.75-4.633-4.5-5.15-6.4-5.15c-3.867,0.066-6.9,2.367-9.1,6.9
					c-0.233,0.533-0.267,1.1-0.1,1.7c0.167,0.6,0.5,1.083,1,1.45C-14.066,5.233-13.533,5.35-13,5.25z"/>
			</g>
		</g>
		<path style="fill-rule:evenodd;clip-rule:evenodd;fill:#144033;" d="M-2.05,0.3C-1.783,0.367-1.8,0.2-2.1-0.2
			c-0.333-0.433-0.833-0.733-1.5-0.9c-0.667-0.133-1.45-0.117-2.35,0.05l-0.825,0.225C-6.007-0.99-5.115-0.898-4.1-0.55
			C-3.5-0.35-2.816-0.067-2.05,0.3z"/>
		<path style="fill-rule:evenodd;clip-rule:evenodd;fill:#144033;" d="M-11.7-3.15c2.467-1.267,5.066-1.633,7.8-1.1
			c1.367,0.233,2.483,0.617,3.35,1.15c-0.6-0.767-2.183-1.367-4.75-1.8c-1.567-0.267-3.1-0.05-4.6,0.65L-11.7-3.15z"/>
		<path style="fill-rule:evenodd;clip-rule:evenodd;fill:#339980;" d="M-5.45-1.05c-1.2,0-2.333,0.4-3.4,1.2l0.95-0.5
			c0.833-0.3,1.65-0.45,2.45-0.45c1.133,0,2.2,0.317,3.2,0.95C-3.117-0.617-4.183-1.017-5.45-1.05z"/>
	</g>
</symbol>
<symbol  id="eyebrow_x5F_left" viewBox="-2.651 -2.653 5.286 5.353">
	<g id="Layer_1_7_">
		<g>
			<path style="fill-rule:evenodd;clip-rule:evenodd;fill:#2B8A62;" d="M2.25,2.4c-0.633-0.333-1.233-0.783-1.8-1.35
				C0.017,0.65-0.6-0.2-1.4-1.5C-2-2.433-2.383-2.8-2.55-2.6c-0.3,0.4,0.066,1.233,1.1,2.5c1.167,1.434,2.517,2.367,4.05,2.8
				C2.7,2.7,2.583,2.6,2.25,2.4z"/>
		</g>
	</g>
</symbol>
<symbol  id="eyebrow_x5F_right" viewBox="-2.8 -3.389 5.556 6.839">
	<g id="Layer_1_6_">
		<g>
			<path style="fill-rule:evenodd;clip-rule:evenodd;fill:#2B8A62;" d="M2.75-2.9C2.717-3.4,2.6-3.517,2.4-3.25
				C2.2-3.017,1.883-2.333,1.45-1.2C0.717,0.867-0.7,2.417-2.8,3.45c0.467,0,1.233-0.4,2.3-1.2c1.433-1.1,2.4-2.283,2.9-3.55
				C2.667-1.966,2.783-2.5,2.75-2.9z"/>
		</g>
	</g>
</symbol>
<symbol  id="face" viewBox="-10.202 -15.25 20.555 30.45">
	<g id="mouth_1_">
		<g>
			<path style="fill-rule:evenodd;clip-rule:evenodd;fill:#1A4538;" d="M0.55-13.9c1,0.167,1.817,0.15,2.45-0.05
				c0.6-0.2,1.067-0.533,1.4-1c-0.533,0.367-1.5,0.534-2.9,0.5c-0.833-0.033-1.65-0.183-2.45-0.45l-0.95-0.35l0.65,0.5
				C-0.683-14.35-0.083-14.067,0.55-13.9z"/>
			<path style="fill-rule:evenodd;clip-rule:evenodd;fill:#1A4538;" d="M5.725-6.05C7.943-7.048,9.293-8.365,9.775-10
				c0.483-1.634,0.091-2.9-1.175-3.8c-1.267-0.9-2.85-0.9-4.75,0c-0.767,0.333-1.483,0.5-2.15,0.5c-0.7-0.067-1.684-0.35-2.95-0.85
				c-3.6-1.434-5.933-1.434-7,0c-0.833,1.1-0.733,2.45,0.3,4.05c1.167,1.867,3.184,3.259,6.05,4.175
				C0.965-5.01,3.507-5.052,5.725-6.05z"/>
			<path style="fill-rule:evenodd;clip-rule:evenodd;fill:#0C0A0B;" d="M3.95,6.245c1.6-0.736,2.933-0.75,4-0.043
				c1,0.699,1.316,1.731,0.95,3.094c-0.367,1.428-1.533,2.522-3.5,3.282c-2.167,0.771-4.466,0.758-6.9-0.036
				c-2.4-0.79-4.15-1.884-5.25-3.28C-7.717,7.945-7.867,6.834-7.2,5.929c0.566-0.752,1.45-1.046,2.65-0.879
				C-4.017,5.142-2.867,5.5-1.1,6.121c1.167,0.424,2.133,0.63,2.9,0.618C2.533,6.755,3.25,6.591,3.95,6.245z"/>
			<path style="fill-rule:evenodd;clip-rule:evenodd;fill:#FFFFFF;" d="M1.9-9.188L1.65-7.566L1.5-9.333
				C0.867-9.336,0.333-9.146-0.1-8.761c-0.367,0.326-0.633,0.763-0.8,1.311v0.6C-0.577-6.7,0.023-6.558,0.9-6.424
				c0.875,0.134,1.775,0.109,2.7-0.073c0.133-0.352-0.017-0.919-0.45-1.7C3.083-8.306,2.867-8.546,2.5-8.921
				C2.133-9.128,1.933-9.217,1.9-9.188z"/>
			
				<linearGradient id="SVGID_2_" gradientUnits="userSpaceOnUse" x1="15949.6699" y1="399.3193" x2="15950.6963" y2="399.3193" gradientTransform="matrix(0.0487 1.0043 -0.9994 -0.0753 -376.665 -15994.2773)">
				<stop  offset="0" style="stop-color:#BFC9BA"/>
				<stop  offset="0.1059" style="stop-color:#C9D1C5"/>
				<stop  offset="0.4745" style="stop-color:#E6EAE4"/>
				<stop  offset="0.7882" style="stop-color:#F8F9F8"/>
				<stop  offset="1" style="stop-color:#FFFFFF"/>
			</linearGradient>
			<path style="fill-rule:evenodd;clip-rule:evenodd;fill:url(#SVGID_2_);" d="M3.75-7.031l-0.2,0.028
				C3.117-6.885,2.7-6.832,2.3-6.843C2.067-6.802,1.717-6.808,1.25-6.86C1.183-6.868,0.9-6.916,0.4-7.005L0.05-7.095
				c-0.633-0.204-1-0.295-1.1-0.272v0.5c0.43,0.058,0.763,0.128,1,0.211c0.236,0.083,0.437,0.122,0.6,0.117L0.9-6.449
				c0.4,0.044,0.883,0.065,1.45,0.062c0.533-0.041,1-0.072,1.4-0.094V-7.031z"/>
			
				<radialGradient id="SVGID_3_" cx="-50.0488" cy="845.7607" r="6.855" gradientTransform="matrix(0.9938 0.1112 0 -0.651 50.4878 547.3398)" gradientUnits="userSpaceOnUse">
				<stop  offset="0" style="stop-color:#DB3052"/>
				<stop  offset="0.2745" style="stop-color:#D93051"/>
				<stop  offset="0.4275" style="stop-color:#D12E4E"/>
				<stop  offset="0.549" style="stop-color:#C32C49"/>
				<stop  offset="0.6549" style="stop-color:#AF2843"/>
				<stop  offset="0.749" style="stop-color:#96243A"/>
				<stop  offset="0.8353" style="stop-color:#771E2E"/>
				<stop  offset="0.9176" style="stop-color:#521721"/>
				<stop  offset="0.9922" style="stop-color:#281013"/>
				<stop  offset="1" style="stop-color:#240F11"/>
			</radialGradient>
			<path style="fill-rule:evenodd;clip-rule:evenodd;fill:url(#SVGID_3_);" d="M1.3-12.55c-1.4-0.133-2.733-0.434-4-0.9l-1.95-0.6
				c0.93,1.635,2.014,2.651,3.25,3.05c1.242,0.396,2.208,0.329,2.9-0.2c0.467,0.5,1.133,0.667,2,0.5c0.833-0.167,1.5-1.05,2-2.65
				C4.1-12.683,2.7-12.417,1.3-12.55z"/>
		</g>
	</g>
	<g id="nose_1_">
		
			<use xlink:href="#nose"  width="3.925" height="1.266" x="-1.95" y="-0.65" transform="matrix(1 0 0 1 1.8999 -3.8501)" style="overflow:visible;"/>
	</g>
	<g id="left_eye_1_">
		<g>
			<path style="fill-rule:evenodd;clip-rule:evenodd;fill:#144033;" d="M8.15,10.9c0.6-0.5,1.117-1.417,1.55-2.75
				c0.433-1.433,0.65-3.017,0.65-4.75c0.019-0.884-0.057-1.643-0.225-2.275C10.152,1.146,10.177,1.17,10.2,1.2
				C10.14,1.034,10.073,0.875,10,0.725C9.886,0.371,9.736,0.063,9.55-0.2c-0.2-0.267-0.4-0.483-0.6-0.65L8.925-0.8
				C8.621-1.057,8.313-1.149,8-1.075C7.835-1.03,7.668-0.939,7.5-0.8C6.9-0.3,6.383,0.617,5.95,1.95C5.517,3.383,5.3,4.967,5.3,6.7
				c-0.033,1.6,0.233,2.8,0.8,3.6c0.184,0.276,0.376,0.493,0.575,0.65C6.907,11.117,7.148,11.2,7.4,11.2
				c0.082,0.006,0.165-0.002,0.25-0.025V11.2c0.084-0.034,0.167-0.076,0.25-0.125C7.944,11.052,7.985,11.027,8.025,11
				C8.066,10.969,8.107,10.936,8.15,10.9z"/>
		</g>
	</g>
	<g id="left_eyebrow_1_">
		
			<use xlink:href="#eyebrow_x5F_left"  width="5.286" height="5.353" x="-2.651" y="-2.653" transform="matrix(1 0 0 1 7 11.8501)" style="overflow:visible;"/>
	</g>
	<g id="right_eye_1_">
		<g>
			<path style="fill-rule:evenodd;clip-rule:evenodd;fill:#144033;" d="M-3,4.45c-0.1-1.9-0.5-3.467-1.2-4.7
				C-4.39-0.609-4.589-0.917-4.8-1.175C-5.292-1.778-5.843-2.103-6.45-2.15C-6.95-2.183-7.433-1.967-7.9-1.5
				C-7.934-1.459-7.968-1.417-8-1.375V-1.4c-0.16,0.254-0.41,0.771-0.75,1.55C-9.091,0.939-9.307,2.13-9.4,3.725
				c-0.093,1.596,0.007,3.012,0.3,4.25C-8.808,9.21-8.441,10.102-8,10.65v-0.025c0.079,0.102,0.162,0.194,0.25,0.275
				c0.967,0.934,1.883,1.05,2.75,0.35c0.067-0.058,0.134-0.125,0.2-0.2c0.391-0.416,0.758-1.066,1.1-1.95
				C-3.167,7.7-2.933,6.15-3,4.45z"/>
			<g>
				<path style="fill-rule:evenodd;clip-rule:evenodd;fill:#001C0C;" d="M-8.1-3.15l-0.35,0.1c-0.466,0.3-0.85,0.933-1.15,1.9
					c-0.566,1.5-0.733,2.75-0.5,3.75c0.067-1.3,0.35-2.417,0.85-3.35L-8.45-2c0.034-0.067,0.2-0.283,0.5-0.65
					C-7.75-3.017-7.8-3.183-8.1-3.15z"/>
			</g>
		</g>
	</g>
	<g id="right_eyebrow_1_">
		
			<use xlink:href="#eyebrow_x5F_right"  width="5.556" height="6.839" x="-2.8" y="-3.389" transform="matrix(1 0 0 1 -5.25 11.75)" style="overflow:visible;"/>
	</g>
</symbol>
<symbol  id="hand_x5F_left" viewBox="-1.578 -2.7 17.571 14.248">
	<g id="Layer_1_11_">
		
			<linearGradient id="SVGID_4_" gradientUnits="userSpaceOnUse" x1="10677.3506" y1="-19331.8086" x2="10680.7217" y2="-19331.8086" gradientTransform="matrix(-0.8455 -0.534 0.534 -0.8455 19351.4551 -10642.6484)">
			<stop  offset="0" style="stop-color:#7DAFC4"/>
			<stop  offset="0.149" style="stop-color:#98C0D0"/>
			<stop  offset="0.4157" style="stop-color:#C4DBE4"/>
			<stop  offset="0.6588" style="stop-color:#E4EFF3"/>
			<stop  offset="0.8627" style="stop-color:#F8FBFC"/>
			<stop  offset="1" style="stop-color:#FFFFFF"/>
		</linearGradient>
		<path style="fill-rule:evenodd;clip-rule:evenodd;fill:url(#SVGID_4_);" d="M1.3,4.2c0.967-0.233,1.75-0.983,2.35-2.25
			c0.567-1.167,0.7-2.117,0.4-2.85C3.683-1.733,3.167-2.283,2.5-2.55C1.733-2.85,0.967-2.7,0.2-2.1c-1.434,1.067-2,2.567-1.7,4.5
			c0.133,0.7,0.483,1.217,1.05,1.55C0.05,4.283,0.633,4.367,1.3,4.2z"/>
		<linearGradient id="SVGID_5_" gradientUnits="userSpaceOnUse" x1="-9.4624" y1="4.6011" x2="7.4626" y2="4.6011">
			<stop  offset="0" style="stop-color:#969482"/>
			<stop  offset="0.1255" style="stop-color:#A9A798"/>
			<stop  offset="0.4" style="stop-color:#CECDC4"/>
			<stop  offset="0.651" style="stop-color:#E9E8E4"/>
			<stop  offset="0.8588" style="stop-color:#F9F9F8"/>
			<stop  offset="1" style="stop-color:#FFFFFF"/>
		</linearGradient>
		<path style="fill-rule:evenodd;clip-rule:evenodd;fill:url(#SVGID_5_);" d="M10.05,9.65c1.467,0.3,2.517,0.133,3.15-0.5
			c0.333-0.3,0.5-0.684,0.5-1.15c0-0.2-0.2-0.383-0.6-0.55l-2-0.65c-1.033-0.4-1.867-0.817-2.5-1.25l-0.7-0.5l3.15,0.5
			c2.267,0.1,3.8-0.367,4.6-1.4c0.4-0.533,0.45-1.067,0.15-1.6c-0.267-0.433-0.55-0.667-0.85-0.7c-0.067,0-0.617,0.1-1.65,0.3
			c-1.033,0.2-2.017,0.267-2.95,0.2C9.717,2.316,9.2,2.216,8.8,2.05l-0.35-0.2l2.35-0.5c1.633-0.5,2.55-1.183,2.75-2.05
			c0.133-0.6,0.017-1.067-0.35-1.4c-0.3-0.267-0.6-0.317-0.9-0.15c-0.667,0.333-1.5,0.617-2.5,0.85C8.9-1.233,8.317-1.184,8.05-1.25
			C6.583-1.583,5.467-1.8,4.7-1.9c-1.5-0.167-2.583,0-3.25,0.5C0.817-1.034,0.4-0.633,0.2-0.2C0.067,0.9-0.05,1.483-0.15,1.55
			c-0.633,0.4-0.9,0.983-0.8,1.75c0,0.2,0.05,0.467,0.15,0.8c0.2,0.667,0.533,1.3,1,1.9C0.7,6.7,1,7.183,1.1,7.45
			c0.133,0.434,0.033,0.833-0.3,1.2C0.233,9.25-0.117,9.7-0.25,10c-0.2,0.566,0.034,1,0.7,1.3c0.867,0.4,1.717,0.317,2.55-0.25
			c0.9-0.633,1.333-1.617,1.3-2.95L5,7.75c0.534-0.2,0.95-0.2,1.25,0C7.684,8.816,8.95,9.45,10.05,9.65z"/>
		
			<linearGradient id="SVGID_6_" gradientUnits="userSpaceOnUse" x1="9754.9316" y1="3259.3457" x2="9757.8066" y2="3259.3457" gradientTransform="matrix(0.6 0.8 -0.8 0.6 -3242.4004 -9757.2002)">
			<stop  offset="0" style="stop-color:#7DAFC4"/>
			<stop  offset="0.149" style="stop-color:#98C0D0"/>
			<stop  offset="0.4157" style="stop-color:#C4DBE4"/>
			<stop  offset="0.6588" style="stop-color:#E4EFF3"/>
			<stop  offset="0.8627" style="stop-color:#F8FBFC"/>
			<stop  offset="1" style="stop-color:#FFFFFF"/>
		</linearGradient>
		<path style="fill-rule:evenodd;clip-rule:evenodd;fill:url(#SVGID_6_);" d="M0.95,2.3L2.35,3c1.1,0.367,2.167,0.317,3.2-0.15
			C3.85,2.983,2.317,2.8,0.95,2.3z"/>
		<linearGradient id="SVGID_7_" gradientUnits="userSpaceOnUse" x1="7.125" y1="3.125" x2="9.675" y2="3.125">
			<stop  offset="0" style="stop-color:#7DAFC4"/>
			<stop  offset="0.149" style="stop-color:#98C0D0"/>
			<stop  offset="0.4157" style="stop-color:#C4DBE4"/>
			<stop  offset="0.6588" style="stop-color:#E4EFF3"/>
			<stop  offset="0.8627" style="stop-color:#F8FBFC"/>
			<stop  offset="1" style="stop-color:#FFFFFF"/>
		</linearGradient>
		<path style="fill-rule:evenodd;clip-rule:evenodd;fill:url(#SVGID_7_);" d="M7.1,6.2l1.1-1.8c0.6-1.467,0.466-2.917-0.4-4.35
			C7.9,0.617,7.95,1.3,7.95,2.1C7.95,3.7,7.667,5.067,7.1,6.2z"/>
	</g>
</symbol>
<symbol  id="hand_x5F_right" viewBox="-17.642 -3.089 19.548 15.429">
	<g id="Layer_1_4_">
		<linearGradient id="SVGID_8_" gradientUnits="userSpaceOnUse" x1="-2.5127" y1="0.6914" x2="6.7123" y2="0.6914">
			<stop  offset="0" style="stop-color:#7DAFC4"/>
			<stop  offset="0.149" style="stop-color:#98C0D0"/>
			<stop  offset="0.4157" style="stop-color:#C4DBE4"/>
			<stop  offset="0.6588" style="stop-color:#E4EFF3"/>
			<stop  offset="0.8627" style="stop-color:#F8FBFC"/>
			<stop  offset="1" style="stop-color:#FFFFFF"/>
		</linearGradient>
		<path style="fill-rule:evenodd;clip-rule:evenodd;fill:url(#SVGID_8_);" d="M-3.2,3.2c1.2,1.233,2.417,1.567,3.65,1
			C1.683,3.633,2.133,2.483,1.8,0.75C1.433-0.95,0.65-2.1-0.55-2.7c-1.167-0.6-2.233-0.5-3.2,0.3C-4.583-1.767-4.833-0.783-4.5,0.55
			C-4.267,1.65-3.833,2.534-3.2,3.2z"/>
		
			<linearGradient id="SVGID_9_" gradientUnits="userSpaceOnUse" x1="18611.6055" y1="-12830.3164" x2="18630.9902" y2="-12830.3164" gradientTransform="matrix(-0.935 0.3547 -0.3547 -0.935 12862.9932 -18599.5801)">
			<stop  offset="0" style="stop-color:#7DAFC4"/>
			<stop  offset="0.149" style="stop-color:#98C0D0"/>
			<stop  offset="0.4157" style="stop-color:#C4DBE4"/>
			<stop  offset="0.6588" style="stop-color:#E4EFF3"/>
			<stop  offset="0.8627" style="stop-color:#F8FBFC"/>
			<stop  offset="1" style="stop-color:#FFFFFF"/>
		</linearGradient>
		<path style="fill-rule:evenodd;clip-rule:evenodd;fill:url(#SVGID_9_);" d="M-14.5,7.85c-0.4,0.167-0.6,0.35-0.6,0.55
			c0,0.566,0.25,1.05,0.75,1.45c0.733,0.5,1.833,0.617,3.3,0.35c0.867-0.167,1.683-0.467,2.45-0.9c0.333-0.167,0.934-0.567,1.8-1.2
			c0.533-0.367,1.25-0.217,2.15,0.45c-0.033,1.467,0.467,2.55,1.5,3.25c0.9,0.6,1.833,0.7,2.8,0.3
			c0.767-0.333,1.017-0.816,0.75-1.45c-0.1-0.3-0.483-0.817-1.15-1.55c-0.4-0.4-0.517-0.833-0.35-1.3c0.1-0.333,0.434-0.883,1-1.65
			C0.7,5.083,1.117,4.1,1.15,3.2C1.283,2.333,1,1.667,0.3,1.2L0.1-0.05c-0.167-0.567-0.434-1.067-0.8-1.5
			c-0.867-0.9-1.966-1.3-3.3-1.2c-1.267,0.133-2.867,0.434-4.8,0.9c-0.3,0.1-0.95,0.033-1.95-0.2c-1.1-0.233-2.033-0.55-2.8-0.95
			c-0.3-0.167-0.617-0.1-0.95,0.2c-0.433,0.367-0.567,0.883-0.4,1.55c0.233,0.967,1.25,1.717,3.05,2.25
			c0.9,0.267,1.767,0.45,2.6,0.55c-0.267,0.3-0.967,0.483-2.1,0.55c-1.033,0.1-2.133,0.033-3.3-0.2
			c-1.167-0.233-1.783-0.35-1.85-0.35c-0.333,0.033-0.633,0.3-0.9,0.8c-0.367,0.6-0.317,1.2,0.15,1.8c0.9,1.133,2.6,1.65,5.1,1.55
			c1.267-0.067,2.433-0.25,3.5-0.55C-9.217,5.717-10.4,6.367-12.2,7.1C-13.333,7.4-14.1,7.65-14.5,7.85z"/>
		
			<linearGradient id="SVGID_10_" gradientUnits="userSpaceOnUse" x1="17163.1113" y1="-15250.0498" x2="17166.3574" y2="-15250.0498" gradientTransform="matrix(-0.9933 0.1155 -0.1155 -0.9933 15279.5674 -17127.3652)">
			<stop  offset="0" style="stop-color:#7DAFC4"/>
			<stop  offset="1" style="stop-color:#FFFFFF"/>
		</linearGradient>
		<path style="fill-rule:evenodd;clip-rule:evenodd;fill:url(#SVGID_10_);" d="M-7.5,6.45C-8.133,5.183-8.45,3.667-8.45,1.9
			c0-0.867,0.05-1.617,0.15-2.25c-0.934,1.567-1.083,3.167-0.45,4.8L-7.5,6.45z"/>
		
			<linearGradient id="SVGID_11_" gradientUnits="userSpaceOnUse" x1="17723.4121" y1="-1773.8237" x2="17730.2754" y2="-1773.8237" gradientTransform="matrix(-0.2003 0.9797 -0.9797 -0.2003 1809.3804 -17718.8652)">
			<stop  offset="0" style="stop-color:#7DAFC4"/>
			<stop  offset="0.149" style="stop-color:#98C0D0"/>
			<stop  offset="0.4157" style="stop-color:#C4DBE4"/>
			<stop  offset="0.6588" style="stop-color:#E4EFF3"/>
			<stop  offset="0.8627" style="stop-color:#F8FBFC"/>
			<stop  offset="1" style="stop-color:#FFFFFF"/>
		</linearGradient>
		<path style="fill-rule:evenodd;clip-rule:evenodd;fill:url(#SVGID_11_);" d="M-4.35,4.35l0.1,0.35c0.1-0.5,0.633-1.05,1.6-1.65
			l2-1.2c-1.467,0.467-2.8,0.7-4,0.7l-1.4-0.15c0.367,0.233,0.783,0.417,1.25,0.55c0.3,0.066,0.5,0.1,0.6,0.1
			c-0.033,0.1-0.083,0.267-0.15,0.5C-4.417,3.783-4.417,4.05-4.35,4.35z"/>
	</g>
	<g id="Layer_2_2_">
	</g>
</symbol>
<symbol  id="leg_x5F_left" viewBox="-7.903 -18.339 15.802 18.339">
	<g id="Layer_1_10_">
		<g>
			<g>
				<path style="fill-rule:evenodd;clip-rule:evenodd;fill:#15332A;" d="M-5,0l3.5-0.1c0.867-1.466,1.417-2.867,1.65-4.2
					C0.316-5.233,0.333-6.35,0.2-7.65c-0.133-1.2-0.383-2.283-0.75-3.25h0.9c0.767-0.067,1.583-0.233,2.45-0.5
					c1.367-0.433,2.6-1.2,3.7-2.3c0.934-0.934,1.4-1.6,1.4-2c-0.033-0.434-0.45-0.867-1.25-1.3c-0.9-0.533-2.383-0.933-4.45-1.2
					c-1.5-0.167-2.883-0.184-4.15-0.05c-1.167,0.133-2.15,0.317-2.95,0.55c-0.767,0.2-1.467,0.5-2.1,0.9s-0.933,0.75-0.9,1.05
					c0.067,0.3,0.317,0.783,0.75,1.45c1.033,1.6,1.8,2.8,2.3,3.6c1.133,1.867,1.667,3.75,1.6,5.65c-0.066,0.967-0.383,2.1-0.95,3.4
					L-5,0z"/>
			</g>
			
				<linearGradient id="SVGID_12_" gradientUnits="userSpaceOnUse" x1="16106.4023" y1="144.5547" x2="16114.1279" y2="144.5547" gradientTransform="matrix(0.0162 0.9999 -0.9999 0.0162 -115.5693 -16124.5439)">
				<stop  offset="0.0078" style="stop-color:#15332A"/>
				<stop  offset="1" style="stop-color:#2D5549"/>
			</linearGradient>
			<path style="fill-rule:evenodd;clip-rule:evenodd;fill:url(#SVGID_12_);" d="M-6.2-15.4c0.466,0.8,1.1,1.567,1.9,2.3
				c1.6,1.467,3.25,2.083,4.95,1.85c1.8-0.267,3.45-1,4.95-2.2c0.767-0.6,1.333-1.184,1.7-1.75c-0.034-0.367-0.3-0.733-0.8-1.1
				c-1-0.767-2.717-1.2-5.15-1.3c-2.633-0.133-4.65,0.034-6.05,0.5C-5.934-16.667-6.434-16.1-6.2-15.4z"/>
			<linearGradient id="SVGID_13_" gradientUnits="userSpaceOnUse" x1="-1.7002" y1="-6.7881" x2="-0.1002" y2="-6.7881">
				<stop  offset="0.0078" style="stop-color:#15332A"/>
				<stop  offset="1" style="stop-color:#2D5549"/>
			</linearGradient>
			<path style="fill-rule:evenodd;clip-rule:evenodd;fill:url(#SVGID_13_);" d="M-0.9-4.15c0.367,0.3,0.617-0.117,0.75-1.25
				s0.067-2.083-0.2-2.85c-0.233-0.7-0.483-1.117-0.75-1.25c-0.2-0.066-0.383,0.033-0.55,0.3c-0.1,0.167-0.1,0.583,0,1.25
				C-1.55-7.05-1.5-6.5-1.5-6.3C-1.5-5.167-1.3-4.45-0.9-4.15z"/>
		</g>
		<path style="fill-rule:evenodd;clip-rule:evenodd;fill:#2B8A62;" d="M-2.875-12.4l1.825,0.75c1.633,0.367,3.383,0.033,5.25-1
			c1.4-0.767,1.933-1.317,1.6-1.65c-0.3-0.367-0.883-0.25-1.75,0.35c-1.067,0.833-2.017,1.383-2.85,1.65
			C-0.128-11.847-1.486-11.88-2.875-12.4z"/>
		<path style="fill-rule:evenodd;clip-rule:evenodd;fill:#2B8A62;" d="M6.75-15.6c-0.2-0.167-0.433-0.117-0.7,0.15
			c-0.267,0.267-0.3,0.517-0.1,0.75c0.2,0.167,0.433,0.117,0.7-0.15C6.95-15.15,6.983-15.4,6.75-15.6z"/>
	</g>
</symbol>
<symbol  id="leg_x5F_right" viewBox="-9.85 -21.5 19.7 21.55">
	<g id="Layer_1_9_">
		<g>
			<g>
				<path style="fill-rule:evenodd;clip-rule:evenodd;fill:#15332A;" d="M-7.2-20.25C-8.967-19.683-9.85-19-9.85-18.2
					c0,0.434,0.45,1.184,1.35,2.25c1.233,1.467,2.183,2.784,2.85,3.95c0.467,0.767,0.883,1.7,1.25,2.8
					c0.367,1.233,0.567,2.284,0.6,3.15c0.033,1.066-0.017,2.4-0.15,4l-0.15,2.1l4.55-0.4c0.434-1.967,0.7-3.617,0.8-4.95
					c0.066-0.967,0.033-2.117-0.1-3.45c-0.167-1.4-0.417-2.667-0.75-3.8l1.2-0.2c0.967-0.233,1.917-0.583,2.85-1.05
					c1.533-0.733,2.867-1.717,4-2.95c0.934-0.967,1.4-1.65,1.4-2.05c0-0.167-0.15-0.367-0.45-0.6c-0.467-0.434-1.434-0.867-2.9-1.3
					c-1.967-0.533-3.733-0.8-5.3-0.8C-1.7-21.5-4.5-21.083-7.2-20.25z"/>
			</g>
			
				<linearGradient id="SVGID_14_" gradientUnits="userSpaceOnUse" x1="16089.3447" y1="158.6816" x2="16097.6963" y2="158.6816" gradientTransform="matrix(0.018 0.9998 -0.9998 0.018 -129.8213 -16109.8252)">
				<stop  offset="0.0078" style="stop-color:#15332A"/>
				<stop  offset="1" style="stop-color:#2D5549"/>
			</linearGradient>
			<path style="fill-rule:evenodd;clip-rule:evenodd;fill:url(#SVGID_14_);" d="M-8-17.35c0.566,0.867,1.367,1.7,2.4,2.5
				c2.133,1.567,4.433,2.167,6.9,1.8c1.8-0.267,3.65-1.2,5.55-2.8c0.967-0.833,1.733-1.617,2.3-2.35
				c-0.067-0.267-0.434-0.55-1.1-0.85c-1.3-0.534-3.383-0.817-6.25-0.85c-3.267-0.033-5.817,0.2-7.65,0.7
				C-7.55-18.7-8.267-18.083-8-17.35z"/>
			<linearGradient id="SVGID_15_" gradientUnits="userSpaceOnUse" x1="-1.4375" y1="-6.9917" x2="0.5375" y2="-6.9917">
				<stop  offset="0.0078" style="stop-color:#15332A"/>
				<stop  offset="1" style="stop-color:#2D5549"/>
			</linearGradient>
			<path style="fill-rule:evenodd;clip-rule:evenodd;fill:url(#SVGID_15_);" d="M-0.1-3.85c0.333-0.033,0.55-0.6,0.65-1.7
				C0.617-6.683,0.517-7.8,0.25-8.9c-0.3-1.367-0.75-1.6-1.35-0.7c-0.333,0.567-0.417,1.65-0.25,3.25c0.066,0.6,0.233,1.167,0.5,1.7
				C-0.583-4.083-0.333-3.817-0.1-3.85z"/>
		</g>
		<path style="fill-rule:evenodd;clip-rule:evenodd;fill:#2B8A62;" d="M-2.5-13.55c2.433,0.767,4.883,0.417,7.35-1.05
			c2.067-1.2,3-2.133,2.8-2.8c-0.233-0.667-1-0.45-2.3,0.65c-1.733,1.467-3.033,2.333-3.9,2.6c-1.867,0.6-4.167,0.283-6.9-0.95
			L-2.5-13.55z"/>
	</g>
</symbol>
<symbol  id="nose" viewBox="-1.95 -0.65 3.925 1.266">
	<g id="Layer_1_8_">
		<g>
			<path style="fill-rule:evenodd;clip-rule:evenodd;fill:#1A4538;" d="M0.25-0.4l-2.2-0.25L-0.4,0.1c1.1,0.467,1.8,0.617,2.1,0.45
				c0.367-0.2,0.367-0.4,0-0.6C1.333-0.217,0.85-0.333,0.25-0.4z"/>
		</g>
	</g>
</symbol>
<use xlink:href="#Juju_x5F_green"  width="3.482" height="2.529" id="juju_x5F_green" x="-1.741" y="-29.981" transform="matrix(1 0 0 -1 56 100.6504)" style="overflow:visible;"/>
</svg>
