<?xml version="1.0" encoding="iso-8859-1"?>
<!-- Generator: Adobe Illustrator 15.1.0, SVG Export Plug-In . SVG Version: 6.00 Build 0)  -->
<!DOCTYPE svg PUBLIC "-//W3C//DTD SVG 1.1//EN" "http://www.w3.org/Graphics/SVG/1.1/DTD/svg11.dtd">
<svg version="1.1" id="uraliaStreetSpirit" xmlns="http://www.w3.org/2000/svg" xmlns:xlink="http://www.w3.org/1999/xlink" x="0px"
	 y="0px" width="151px" height="166.8px" viewBox="0 0 151 166.8" style="enable-background:new 0 0 151 166.8;"
	 xml:space="preserve">
<symbol  id="Decos_x2F_body_x2F_Spirit2_x2F_tears_x2F_drip1" viewBox="-2.725 -1.613 5.425 3.246">
	<g id="Layer_1_14_">
		<g>
			<path style="fill-rule:evenodd;clip-rule:evenodd;fill:#8AD0F4;fill-opacity:0.702;" d="M-1.9,0.25
				c1.033,1.067,2.566,1.517,4.6,1.35L1.1-0.1c-1.233-1.1-2.233-1.6-3-1.5C-3-1.467-3-0.85-1.9,0.25z"/>
		</g>
	</g>
</symbol>
<symbol  id="Decos_x2F_body_x2F_Spirit2_x2F_tears_x2F_drip3" viewBox="-1.499 -1.882 3 3.752">
	<g id="Layer_1_15_">
		<g>
			<path style="fill-rule:evenodd;clip-rule:evenodd;fill:#8AD0F4;fill-opacity:0.702;" d="M-1.4,0.3
				c0.333,1.267,0.717,1.767,1.15,1.5c1.1-0.6,1.683-1.417,1.75-2.45C1.533-1.683,0.95-2.067-0.25-1.8C-1.317-1.6-1.7-0.9-1.4,0.3z"
				/>
		</g>
	</g>
</symbol>
<symbol  id="Decos_x2F_body_x2F_Spirit2_x2F_tears_x2F_drip5" viewBox="-1.3 -3.85 2.6 7.7">
	<g id="Layer_1_19_">
		<g>
			<path style="fill-rule:evenodd;clip-rule:evenodd;fill:#8AD0F4;fill-opacity:0.702;" d="M-0.15,3.05v0.1l-0.05-0.1H-0.15z
				 M-1.2,1.4C-1.1,2-0.783,2.817-0.25,3.85H0c0.867-2.6,1.3-4.867,1.3-6.8C1.3-3.283,1.2-3.567,1-3.8l-1.45-0.05
				C-1.017-3.317-1.3-2.283-1.3-0.75C-1.3,0.483-1.267,1.2-1.2,1.4z"/>
		</g>
	</g>
</symbol>
<symbol  id="Decos_x2F_body_x2F_Spirit2_x2F_tears_x2F_drip7" viewBox="-2.305 -1.978 4.655 3.954">
	<g id="Layer_1_17_">
		<g>
			<path style="fill-rule:evenodd;clip-rule:evenodd;fill:#8AD0F4;fill-opacity:0.702;" d="M-1.9,1.4
				c0.566,0.467,1.117,0.65,1.65,0.55c1.333-0.233,2.167-0.667,2.5-1.3c0.2-0.533,0.1-1.15-0.3-1.85c-0.7-1.233-1.917-1-3.65,0.7
				C-2.433,0.267-2.5,0.9-1.9,1.4z"/>
		</g>
	</g>
</symbol>
<symbol  id="Decos_x2F_body_x2F_Spirit2_x2F_tears_x2F_drip8" viewBox="-2.75 -1.613 5.463 3.246">
	<g id="Layer_1_18_">
		<g>
			<path style="fill-rule:evenodd;clip-rule:evenodd;fill:#8AD0F4;fill-opacity:0.702;" d="M1.9,0.25C3-0.85,2.983-1.467,1.85-1.6
				c-0.733-0.1-1.733,0.4-3,1.5l-1.6,1.7C-0.717,1.767,0.833,1.317,1.9,0.25z"/>
		</g>
	</g>
</symbol>
<symbol  id="LonelinessWindow_x2F_circleMask" viewBox="-82.5 -82.5 165 165">
	<g id="Layer_1_2_">
		<g>
			<path style="fill-rule:evenodd;clip-rule:evenodd;fill:#CB3D2A;fill-opacity:0.502;" d="M32.1,76
				c9.867-4.167,18.617-10.05,26.25-17.65c7.6-7.6,13.483-16.333,17.65-26.2C80.333,21.917,82.5,11.2,82.5,0S80.333-21.9,76-32.1
				c-4.167-9.867-10.05-18.617-17.65-26.25C50.717-65.95,41.967-71.833,32.1-76C21.9-80.333,11.2-82.5,0-82.5
				s-21.917,2.167-32.15,6.5c-9.867,4.167-18.6,10.05-26.2,17.65C-65.95-50.717-71.833-41.967-76-32.1
				c-4.333,10.2-6.5,20.9-6.5,32.1s2.167,21.917,6.5,32.15c4.167,9.867,10.05,18.6,17.65,26.2S-42.017,71.833-32.15,76
				C-21.917,80.333-11.2,82.5,0,82.5S21.9,80.333,32.1,76z"/>
		</g>
	</g>
</symbol>
<symbol  id="cap" viewBox="-42.255 -27.73 84.505 55.53">
	<g id="Layer_1_39_">
		<use xlink:href="#capPurple"  width="84.505" height="55.53" x="-42.255" y="-27.73" style="overflow:visible;"/>
	</g>
</symbol>
<symbol  id="capPurple" viewBox="-42.255 -27.73 84.505 55.53">
	<g id="Layer_1_8_">
		<g>
			
				<radialGradient id="SVGID_1_" cx="2" cy="29.5498" r="67.1625" gradientTransform="matrix(1 0 0 -1 0 59.0996)" gradientUnits="userSpaceOnUse">
				<stop  offset="0" style="stop-color:#BA69D3"/>
				<stop  offset="1" style="stop-color:#812E2C"/>
			</radialGradient>
			<path style="fill-rule:evenodd;clip-rule:evenodd;fill:url(#SVGID_1_);" d="M42.25-11.2c0-3.9-2.917-7.417-8.75-10.55
				C25.667-26.017,14.25-28-0.75-27.7c-12,0.233-21.983,1.934-29.95,5.1c-7.433,3-11.283,6.466-11.55,10.4
				c-0.1,1.8,1.283,4.883,4.15,9.25c2.9,4.434,6.5,8.9,10.8,13.4C-16.267,22.017-6.917,27.8,0.75,27.8
				c7.5,0,16.55-5.816,27.15-17.45C31.867,5.983,35.283,1.6,38.15-2.8C40.883-6.967,42.25-9.767,42.25-11.2z"/>
			<linearGradient id="SVGID_2_" gradientUnits="userSpaceOnUse" x1="-8.5498" y1="25.9663" x2="0.2502" y2="25.9663">
				<stop  offset="0" style="stop-color:#FFFFFF;stop-opacity:0.2"/>
				<stop  offset="0.8588" style="stop-color:#FFFFFF;stop-opacity:0.2"/>
				<stop  offset="1" style="stop-color:#FFFFFF;stop-opacity:0.2"/>
			</linearGradient>
			<path style="fill-rule:evenodd;clip-rule:evenodd;fill:url(#SVGID_2_);" d="M-5,24.3c-2.1-0.4-3.267-0.083-3.5,0.95
				c3.267,1.6,6.184,2.45,8.75,2.55c-0.1-0.667-0.633-1.333-1.6-2C-2.35,25.1-3.566,24.6-5,24.3z"/>
			<linearGradient id="SVGID_3_" gradientUnits="userSpaceOnUse" x1="-15.0752" y1="18.6177" x2="-8.9252" y2="18.6177">
				<stop  offset="0" style="stop-color:#FFFFFF;stop-opacity:0.2"/>
				<stop  offset="0.8588" style="stop-color:#FFFFFF;stop-opacity:0.2"/>
				<stop  offset="1" style="stop-color:#FFFFFF;stop-opacity:0.2"/>
			</linearGradient>
			<path style="fill-rule:evenodd;clip-rule:evenodd;fill:url(#SVGID_3_);" d="M-11,21.55c1.066,0.1,1.717-0.184,1.95-0.85
				c0.233-0.566,0.133-1.3-0.3-2.2c-1.167-2.3-2.633-3.2-4.4-2.7c-1.6,0.467-1.833,1.517-0.7,3.15
				C-13.383,20.55-12.233,21.417-11,21.55z"/>
			<linearGradient id="SVGID_4_" gradientUnits="userSpaceOnUse" x1="8.3125" y1="23.4956" x2="14.0875" y2="23.4956">
				<stop  offset="0" style="stop-color:#FFFFFF;stop-opacity:0.2"/>
				<stop  offset="0.8588" style="stop-color:#FFFFFF;stop-opacity:0.2"/>
				<stop  offset="1" style="stop-color:#FFFFFF;stop-opacity:0.2"/>
			</linearGradient>
			<path style="fill-rule:evenodd;clip-rule:evenodd;fill:url(#SVGID_4_);" d="M9.5,22.3c-0.767,0.533-1.167,1.133-1.2,1.8
				c-0.033,0.567,0.184,1.1,0.65,1.6c1.5-0.733,3.183-1.7,5.05-2.9c0.3-0.934-0.1-1.434-1.2-1.5
				C11.733,21.233,10.633,21.566,9.5,22.3z"/>
			<linearGradient id="SVGID_5_" gradientUnits="userSpaceOnUse" x1="12.1001" y1="15.311" x2="18.8001" y2="15.311">
				<stop  offset="0" style="stop-color:#FFFFFF;stop-opacity:0.2"/>
				<stop  offset="0.8588" style="stop-color:#FFFFFF;stop-opacity:0.2"/>
				<stop  offset="1" style="stop-color:#FFFFFF;stop-opacity:0.2"/>
			</linearGradient>
			<path style="fill-rule:evenodd;clip-rule:evenodd;fill:url(#SVGID_5_);" d="M14.75,18.55c2.367-1.367,3.7-2.8,4-4.3
				c0.267-1.333-0.15-2.15-1.25-2.45c-1.667-0.467-3.25,0.533-4.75,3c-0.767,1.267-0.9,2.367-0.4,3.3
				C12.85,19.033,13.65,19.183,14.75,18.55z"/>
			<linearGradient id="SVGID_6_" gradientUnits="userSpaceOnUse" x1="23.3877" y1="10.3271" x2="32.0127" y2="10.3271">
				<stop  offset="0" style="stop-color:#FFFFFF;stop-opacity:0.2"/>
				<stop  offset="0.8588" style="stop-color:#FFFFFF;stop-opacity:0.2"/>
				<stop  offset="1" style="stop-color:#FFFFFF;stop-opacity:0.2"/>
			</linearGradient>
			<path style="fill-rule:evenodd;clip-rule:evenodd;fill:url(#SVGID_6_);" d="M24,14.45c2.6-2.6,5.067-5.3,7.4-8.1
				c-0.7-0.267-1.633-0.167-2.8,0.3C27.267,7.183,26.067,8.066,25,9.3c-0.9,1.1-1.417,2.15-1.55,3.15
				C23.317,13.383,23.5,14.05,24,14.45z"/>
			<linearGradient id="SVGID_7_" gradientUnits="userSpaceOnUse" x1="17.0625" y1="5.0386" x2="22.5375" y2="5.0386">
				<stop  offset="0" style="stop-color:#FFFFFF;stop-opacity:0.2"/>
				<stop  offset="0.8588" style="stop-color:#FFFFFF;stop-opacity:0.2"/>
				<stop  offset="1" style="stop-color:#FFFFFF;stop-opacity:0.2"/>
			</linearGradient>
			<path style="fill-rule:evenodd;clip-rule:evenodd;fill:url(#SVGID_7_);" d="M20.75,1.55c-1.8-0.467-2.967,0.533-3.5,3
				s-0.283,3.8,0.75,4c1.7,0.4,3.067-0.55,4.1-2.85C23.133,3.4,22.683,2.017,20.75,1.55z"/>
			<linearGradient id="SVGID_8_" gradientUnits="userSpaceOnUse" x1="-27.2876" y1="12.2041" x2="-22.2126" y2="12.2041">
				<stop  offset="0" style="stop-color:#FFFFFF;stop-opacity:0.2"/>
				<stop  offset="0.8588" style="stop-color:#FFFFFF;stop-opacity:0.2"/>
				<stop  offset="1" style="stop-color:#FFFFFF;stop-opacity:0.2"/>
			</linearGradient>
			<path style="fill-rule:evenodd;clip-rule:evenodd;fill:url(#SVGID_8_);" d="M-27.3,10.5c2,2,3.517,3.483,4.55,4.45
				c0.8-0.133,0.783-0.983-0.05-2.55c-0.833-1.6-1.733-2.55-2.7-2.85C-26.533,9.283-27.133,9.6-27.3,10.5z"/>
			<linearGradient id="SVGID_9_" gradientUnits="userSpaceOnUse" x1="-23.4502" y1="6.1758" x2="-16.7502" y2="6.1758">
				<stop  offset="0" style="stop-color:#FFFFFF;stop-opacity:0.2"/>
				<stop  offset="0.8588" style="stop-color:#FFFFFF;stop-opacity:0.2"/>
				<stop  offset="1" style="stop-color:#FFFFFF;stop-opacity:0.2"/>
			</linearGradient>
			<path style="fill-rule:evenodd;clip-rule:evenodd;fill:url(#SVGID_9_);" d="M-19.25,10.3c1.267,0.3,2.066,0,2.4-0.9
				c0.267-0.767,0.133-1.817-0.4-3.15c-1.333-3.333-2.917-4.733-4.75-4.2c-1.633,0.467-1.95,1.883-0.95,4.25
				C-21.983,8.633-20.75,9.966-19.25,10.3z"/>
			<linearGradient id="SVGID_10_" gradientUnits="userSpaceOnUse" x1="-11.6499" y1="9.5391" x2="-4.4499" y2="9.5391">
				<stop  offset="0" style="stop-color:#FFFFFF;stop-opacity:0.2"/>
				<stop  offset="0.8588" style="stop-color:#FFFFFF;stop-opacity:0.2"/>
				<stop  offset="1" style="stop-color:#FFFFFF;stop-opacity:0.2"/>
			</linearGradient>
			<path style="fill-rule:evenodd;clip-rule:evenodd;fill:url(#SVGID_10_);" d="M-9.25,5.3c-2.434,0.233-3.083,1.733-1.95,4.5
				c1.134,2.767,2.534,4.1,4.2,4c2.2-0.133,3.017-1.65,2.45-4.55C-5.15,6.383-6.717,5.066-9.25,5.3z"/>
			<linearGradient id="SVGID_11_" gradientUnits="userSpaceOnUse" x1="-6.0498" y1="21.4248" x2="-1.1498" y2="21.4248">
				<stop  offset="0" style="stop-color:#FFFFFF;stop-opacity:0.2"/>
				<stop  offset="0.8588" style="stop-color:#FFFFFF;stop-opacity:0.2"/>
				<stop  offset="1" style="stop-color:#FFFFFF;stop-opacity:0.2"/>
			</linearGradient>
			<path style="fill-rule:evenodd;clip-rule:evenodd;fill:url(#SVGID_11_);" d="M-3.5,23.55c2.133,0.133,2.833-0.583,2.1-2.15
				c-0.733-1.534-1.85-2.233-3.35-2.1c-1.3,0.133-1.684,0.867-1.15,2.2C-5.367,22.8-4.566,23.483-3.5,23.55z"/>
			<linearGradient id="SVGID_12_" gradientUnits="userSpaceOnUse" x1="-42.2549" y1="-13.3828" x2="42.2501" y2="-13.3828">
				<stop  offset="0" style="stop-color:#D9CEB7"/>
				<stop  offset="0.2745" style="stop-color:#F0E4CA"/>
				<stop  offset="1" style="stop-color:#D9CEB7"/>
			</linearGradient>
			<path style="fill-rule:evenodd;clip-rule:evenodd;fill:url(#SVGID_12_);" d="M40.5-6.6c1.167-2.167,1.75-3.7,1.75-4.6
				c0-3.9-2.917-7.417-8.75-10.55C25.667-26.017,14.25-28-0.75-27.7c-12,0.233-21.983,1.934-29.95,5.1
				c-7.433,3-11.283,6.466-11.55,10.4c-0.066,1.167,0.533,2.934,1.8,5.3c1.2,2.3,2.9,4.917,5.1,7.85c0.7,0.133,1.233-0.65,1.6-2.35
				c0.233-0.933,0.467-2.366,0.7-4.3c0.333-1.667,0.75-3.95,1.25-6.85c0.8-1.8,2.6-1.95,5.4-0.45c3.6,1.933,6.45,3.116,8.55,3.55
				c2.633,0.566,5.117,0.267,7.45-0.9c1.667-0.833,4.1-2.65,7.3-5.45c2.9-2,5.467-2.183,7.7-0.55c3.8,2.767,7.566,4.683,11.3,5.75
				c5.233,1.466,9.467,0.883,12.7-1.75c1.9-1.567,3.433-1.45,4.6,0.35c0.933,1.466,1.4,3.466,1.4,6c0,2.767,0.066,4.533,0.2,5.3
				c0.133,0.867,0.45,1.35,0.95,1.45C37.75-1.983,39.333-4.434,40.5-6.6z"/>
			<linearGradient id="SVGID_13_" gradientUnits="userSpaceOnUse" x1="-42.1499" y1="-18.79" x2="42.25" y2="-18.79">
				<stop  offset="0" style="stop-color:#B6AD99"/>
				<stop  offset="0.2745" style="stop-color:#F0E4CA"/>
				<stop  offset="1" style="stop-color:#BEB3A0"/>
			</linearGradient>
			<path style="fill-rule:evenodd;clip-rule:evenodd;fill:url(#SVGID_13_);" d="M42-9.85c0.167-0.467,0.25-0.917,0.25-1.35
				c0-3.9-2.917-7.417-8.75-10.55C25.667-26.017,14.25-28-0.75-27.7c-11.6,0.233-21.333,1.85-29.2,4.85
				c-7.366,2.833-11.433,6.15-12.2,9.95c2.933-4.1,7.3-7.033,13.1-8.8c10.433-3.167,22.267-4.533,35.5-4.1
				C25.083-25.134,36.933-19.817,42-9.85z"/>
		</g>
	</g>
	<g id="Layer_2_2_">
	</g>
</symbol>
<symbol  id="parts_x2F_G1" viewBox="-4.9 0 5.757 7.2">
	<g id="Layer_1_7_">
		<linearGradient id="SVGID_14_" gradientUnits="userSpaceOnUse" x1="-2.0215" y1="7.2871" x2="-2.0215" y2="0.7121">
			<stop  offset="0" style="stop-color:#79CDD0"/>
			<stop  offset="1" style="stop-color:#262234"/>
		</linearGradient>
		<path style="fill-rule:evenodd;clip-rule:evenodd;fill:url(#SVGID_14_);" d="M-1.15,3.399C-1.683,4.566-2.466,5.55-3.5,6.35
			L-4.9,7.2l1.15-0.45c0.967-0.533,1.983-1.333,3.05-2.4c1.033-1,1.55-1.95,1.55-2.85C0.883,1.033,0.8,0.683,0.6,0.45
			C0.434-0.05-0.083-0.134-0.95,0.2C-0.683,1.433-0.75,2.5-1.15,3.399z"/>
	</g>
</symbol>
<symbol  id="parts_x2F_G2" viewBox="-7.3 -0.013 8.58 10.535">
	<g id="Layer_1_6_">
		<linearGradient id="SVGID_15_" gradientUnits="userSpaceOnUse" x1="-2.998" y1="10.6118" x2="-3.023" y2="0.8868">
			<stop  offset="0" style="stop-color:#79CDD0"/>
			<stop  offset="1" style="stop-color:#262234"/>
		</linearGradient>
		<path style="fill-rule:evenodd;clip-rule:evenodd;fill:url(#SVGID_15_);" d="M1.1,2.55C1.3,1.75,1.333,1.1,1.2,0.6
			C1-0.1,0.216-0.2-1.15,0.3C-0.75,2.1-0.867,3.667-1.5,5c-0.8,1.7-2.017,3.117-3.65,4.25L-7.3,10.5
			c0.233,0.067,0.633-0.017,1.2-0.25c1.133-0.5,2.55-1.55,4.25-3.15C-0.284,5.633,0.7,4.117,1.1,2.55z"/>
	</g>
</symbol>
<symbol  id="parts_x2F_G3" viewBox="-8.3 -0.019 9.58 16.868">
	<g id="Layer_1_5_">
		<linearGradient id="SVGID_16_" gradientUnits="userSpaceOnUse" x1="-3.5103" y1="16.5996" x2="-3.5103" y2="1.6996">
			<stop  offset="0" style="stop-color:#79CDD0"/>
			<stop  offset="1" style="stop-color:#37304B"/>
		</linearGradient>
		<path style="fill-rule:evenodd;clip-rule:evenodd;fill:url(#SVGID_16_);" d="M-6.95,16.45c1.267-0.8,2.85-2.483,4.75-5.05
			c1.767-2.367,2.867-4.817,3.3-7.35C1.3,2.75,1.333,1.7,1.2,0.9C1.066,0.2,0.583-0.1-0.25,0c-0.4,0.066-0.8,0.2-1.2,0.4
			c0.433,2.933,0.3,5.45-0.4,7.55c-0.9,2.733-2.25,5.033-4.05,6.9l-2.4,2L-6.95,16.45z"/>
	</g>
</symbol>
<symbol  id="parts_x2F_G4" viewBox="-1.323 0.021 10.673 18.03">
	<g id="Layer_1_4_">
		
			<linearGradient id="SVGID_17_" gradientUnits="userSpaceOnUse" x1="2444.6992" y1="-18089.9668" x2="2460.7539" y2="-18089.9668" gradientTransform="matrix(-0.2663 -0.9639 0.9639 -0.2663 18093.6504 -2443.0381)">
			<stop  offset="0" style="stop-color:#79CDD0"/>
			<stop  offset="1" style="stop-color:#37304B"/>
		</linearGradient>
		<path style="fill-rule:evenodd;clip-rule:evenodd;fill:url(#SVGID_17_);" d="M7.9,17.601l1.45,0.45l-2.7-2.15
			c-2-2-3.5-4.467-4.5-7.4c-0.466-1.4-0.683-3.167-0.65-5.3c0.033-1.066,0.117-1.983,0.25-2.75L0.4,0.05
			C-0.5-0.083-1.05,0.234-1.25,1c-0.133,0.867-0.083,1.983,0.15,3.35c0.5,2.733,1.733,5.366,3.7,7.9
			C4.733,14.984,6.5,16.767,7.9,17.601z"/>
	</g>
</symbol>
<symbol  id="parts_x2F_G5" viewBox="-1.1 0.023 7.2 12.427">
	<g id="Layer_1_3_">
		
			<linearGradient id="SVGID_18_" gradientUnits="userSpaceOnUse" x1="2456.0308" y1="-18093.7578" x2="2466.8999" y2="-18093.7578" gradientTransform="matrix(-0.2668 -0.9637 0.9637 -0.2668 18096.7949 -2448.5781)">
			<stop  offset="0" style="stop-color:#79CDD0"/>
			<stop  offset="1" style="stop-color:#37304B"/>
		</linearGradient>
		<path style="fill-rule:evenodd;clip-rule:evenodd;fill:url(#SVGID_18_);" d="M-0.75,0.75C-0.983,1.184-1.1,1.783-1.1,2.55
			c0.034,1.567,0.684,3.217,1.95,4.95c1.367,1.9,2.65,3.3,3.85,4.2l1.4,0.75L4.35,11c-1.3-1.4-2.267-3.083-2.9-5.05
			c-0.5-1.567-0.6-3.417-0.3-5.55C0.05-0.2-0.583-0.083-0.75,0.75z"/>
	</g>
</symbol>
<symbol  id="parts_x2F_GROUND" viewBox="-60 -12.2 119.95 24.35">
	<g id="Layer_1_36_">
		<g>
			<g>
				<g>
					<linearGradient id="SVGID_19_" gradientUnits="userSpaceOnUse" x1="-46.7998" y1="7.9248" x2="21.5498" y2="7.9248">
						<stop  offset="0" style="stop-color:#000000;stop-opacity:0.298"/>
						<stop  offset="0.8588" style="stop-color:#000000;stop-opacity:0.298"/>
						<stop  offset="1" style="stop-color:#000000;stop-opacity:0.298"/>
					</linearGradient>
					<path style="fill-rule:evenodd;clip-rule:evenodd;fill:url(#SVGID_19_);" d="M21.55,8.35c-0.2,0.1-0.333,0.2-0.4,0.3l-0.05-1.4
						c-0.133-0.067-0.267-0.133-0.4-0.2c-0.6-0.3-1.284-0.517-2.05-0.65c-2.367-0.367-5.133-0.6-8.3-0.7
						C9.05,5.667,6.267,5.65,2,5.65L-17.95,5.7c-0.733,0-1.966,0.033-3.7,0.1c-1.533,0.034-2.75-0.066-3.65-0.3
						c-0.534-0.167-1.217-0.45-2.05-0.85C-27.817,4.417-28.5,4.1-29.4,3.7h-17.15c0.333,0.333,0.667,0.5,1,0.5l0.05,0.3
						c0.533,0.1,0.867,0.15,1,0.15c-0.533,0.434-0.867,0.667-1,0.7c0.767-0.067,1.183-0.117,1.25-0.15
						c-0.067,0.667-0.917,1.1-2.55,1.3c0.933,0,1.517-0.017,1.75-0.05c0.667-0.067,1.183-0.267,1.55-0.6
						c0.4,0.066,0.65,0.133,0.75,0.2c-0.133,0.034-0.333,0.133-0.6,0.3h0.8c-0.167,0.267-0.45,0.433-0.85,0.5
						c1.066-0.033,1.783-0.133,2.15-0.3l0.05,0.25c0.367,0.1,0.85,0.184,1.45,0.25c-0.033,0-0.4,0.167-1.1,0.5
						c-0.333,0.167-0.633,0.267-0.9,0.3h1.9l-0.5,0.05c0.233,0.133,0.617,0.184,1.15,0.15c0.633-0.033,1.067-0.033,1.3,0
						c-0.233,0.067-0.55,0.267-0.95,0.6c1.967,0.167,3.467,0.283,4.5,0.35c1.767,0.1,3.25,0.017,4.45-0.25l-1.3,0.5l0.6-0.05
						c-0.4,0.333-0.967,0.55-1.7,0.65c0.7,0.133,1.633,0.217,2.8,0.25c1.533,0.033,2.45,0.066,2.75,0.1l0.05,0.45
						c0.5,0,0.867,0,1.1,0c0.467,0,0.817,0.067,1.05,0.2l-0.25,0.35c0.433,0.033,0.733,0.033,0.9,0c-0.133,0.233-0.267,0.4-0.4,0.5
						c0.566,0.1,1.267,0.05,2.1-0.15c1.233-0.267,1.917-0.4,2.05-0.4c1.033,0.133,1.816,0.184,2.35,0.15
						c1.2-0.167,2.05-0.267,2.55-0.3c1.633-0.067,3.033,0.017,4.2,0.25c0.6,0.1,1.4,0.05,2.4-0.15c1.066-0.2,1.867-0.283,2.4-0.25
						c0.933,0.066,1.6,0.133,2,0.2c0.667,0.167,1.283,0.434,1.85,0.8c0.1-0.233,0.3-0.35,0.6-0.35c0.333,0,0.55-0.1,0.65-0.3
						c1.233,0.267,3.533,0.316,6.9,0.15c0.833-0.033,1.75-0.133,2.75-0.3c0.633-0.1,1.183,0,1.65,0.3c0.8,0.433,1.333,0.7,1.6,0.8
						c-0.5-0.633-0.483-1.033,0.05-1.2c0.267-0.067,0.8-0.05,1.6,0.05l0.1-0.3c0.767,0.667,2.05,0.933,3.85,0.8
						c-0.233-0.133-0.567-0.3-1-0.5c-0.333-0.2-0.45-0.517-0.35-0.95c1.467-0.733,2.617-1.133,3.45-1.2c0.4,0,0.733,0,1,0
						c0.466,0,0.75-0.067,0.85-0.2C21.4,8.55,21.483,8.45,21.55,8.35z"/>
					<linearGradient id="SVGID_20_" gradientUnits="userSpaceOnUse" x1="20.8501" y1="2.2749" x2="75.0251" y2="2.2749">
						<stop  offset="0" style="stop-color:#FFFFFF;stop-opacity:0.1137"/>
						<stop  offset="0.8588" style="stop-color:#FFFFFF;stop-opacity:0.1137"/>
						<stop  offset="1" style="stop-color:#FFFFFF;stop-opacity:0.1137"/>
					</linearGradient>
					<path style="fill-rule:evenodd;clip-rule:evenodd;fill:url(#SVGID_20_);" d="M21.1,7.25l0.05,1.4c0.067-0.1,0.2-0.2,0.4-0.3
						c0.4-0.167,1.1-0.233,2.1-0.2c1.5,0.1,2.417,0.133,2.75,0.1L26.2,8.1c1.066,0.033,1.833-0.017,2.3-0.15l-0.2-0.2
						c0.867-0.367,1.817-0.583,2.85-0.65c1.033-0.033,1.983,0.117,2.85,0.45L33.75,7.1l0.5,0.15c0.167-0.267,0.517-0.383,1.05-0.35
						c0.567,0.1,0.967,0.15,1.2,0.15c-0.567-0.167-0.95-0.45-1.15-0.85l3.8,0.1c-0.633-0.066-1.066-0.183-1.3-0.35
						c0.333-0.034,1.267-0.017,2.8,0.05c1.167,0.067,2.083,0.017,2.75-0.15c-1.2-0.067-2.167-0.367-2.9-0.9h1.05
						c0.4,0,0.733-0.05,1-0.15c-1.367,0-2.183-0.033-2.45-0.1c0.133-0.034,0.566-0.083,1.3-0.15c0.6-0.066,1-0.183,1.2-0.35
						c-0.633-0.034-1.55-0.017-2.75,0.05c0.3-0.3,0.967-0.4,2-0.3c1.133,0.133,1.867,0.2,2.2,0.2h4.45
						c-1.1-0.033-2.017-0.2-2.75-0.5C45.917,3.383,46.433,3.167,47.3,3c0.934-0.2,1.534-0.317,1.8-0.35c1.3,0.033,2.3,0,3-0.1
						c1.767-0.167,3.233-0.466,4.4-0.9c0.033-0.167-0.433-0.367-1.4-0.6C54,0.817,53.417,0.667,53.35,0.6
						c0.8-0.167,1.9-0.533,3.3-1.1c1.533-0.6,2.633-0.983,3.3-1.15c-2.534,0-4.733-0.233-6.6-0.7L53.3-2.4l-3.2-0.1
						c-0.367,0-0.633-0.15-0.8-0.45c-0.933-0.133-1.85-0.383-2.75-0.75c-0.233-0.1-0.4-0.233-0.5-0.4
						c-0.733,0.167-1.167,0.333-1.3,0.5c-0.1,0.133,0.233,0.383,1,0.75c0.8,0.333,1.15,0.583,1.05,0.75
						c-0.433,0.7-1.316,1.267-2.65,1.7c-2.367,0.8-5.367,1.283-9,1.45c-2.066,0.067-5.133,0.133-9.2,0.2
						C25.483,1.283,24.467,1.3,22.9,1.3c-1.367,0.167-2.05,0.7-2.05,1.6L21.1,7.25z M46.65,1.65c0.367-0.467,1.5-0.7,3.4-0.7
						c1.833,0.033,2.983,0.233,3.45,0.6l-1.75,0.5c-0.533,0-1.4,0.034-2.6,0.1C48.083,2.117,47.25,1.95,46.65,1.65z M44,3.3
						l-0.65,0.25c-0.167,0-0.5,0.017-1,0.05c-0.434,0.033-0.75,0.017-0.95-0.05c-0.733-0.233-0.566-0.483,0.5-0.75
						C43.133,2.5,43.833,2.667,44,3.3z"/>
					<linearGradient id="SVGID_21_" gradientUnits="userSpaceOnUse" x1="-59.9624" y1="-0.2944" x2="-41.5374" y2="-0.2944">
						<stop  offset="0" style="stop-color:#000000;stop-opacity:0.298"/>
						<stop  offset="0.8588" style="stop-color:#000000;stop-opacity:0.298"/>
						<stop  offset="1" style="stop-color:#000000;stop-opacity:0.298"/>
					</linearGradient>
					<path style="fill-rule:evenodd;clip-rule:evenodd;fill:url(#SVGID_21_);" d="M-48.6,1l1.35-0.2l2-0.2
						c-1.267-0.467-2.367-1.15-3.3-2.05c-1.167-0.133-2.9-0.25-5.2-0.35c-0.133-0.034-1.133-0.284-3-0.75
						c-1.2-0.3-2.233-0.367-3.1-0.2l0.35,0.9l0.45,0.05c0,0.966-0.317,1.85-0.95,2.65c0.6-0.567,1.1-1.333,1.5-2.3
						c0.133,0.5,0.167,1.284,0.1,2.35c0.066-0.167,0.117-0.533,0.15-1.1C-58.183-0.7-58-0.967-57.7-1
						c0.467-0.067,0.75,0.383,0.85,1.35c0.033,0.5-0.117,1.133-0.45,1.9c0.8-0.733,1.333-1.383,1.6-1.95c0,0.767-0.1,1.284-0.3,1.55
						c0.3-0.133,0.533-0.4,0.7-0.8c0.167-0.367,0.367-0.6,0.6-0.7c0.367-0.133,0.9-0.033,1.6,0.3c0.867,0.333,1.583,0.533,2.15,0.6
						c0.7,0.067,1.45-0.017,2.25-0.25H-48.6z"/>
					<linearGradient id="SVGID_22_" gradientUnits="userSpaceOnUse" x1="-51.1748" y1="3.875" x2="-46.7248" y2="3.875">
						<stop  offset="0" style="stop-color:#000000;stop-opacity:0.298"/>
						<stop  offset="0.8588" style="stop-color:#000000;stop-opacity:0.298"/>
						<stop  offset="1" style="stop-color:#000000;stop-opacity:0.298"/>
					</linearGradient>
					<path style="fill-rule:evenodd;clip-rule:evenodd;fill:url(#SVGID_22_);" d="M-47.25,0.8L-48.6,1l-0.6,0.5
						c-0.533,0.833-1.183,1.933-1.95,3.3c0.333-0.066,0.733-0.367,1.2-0.9c0.534-0.7,0.883-1.1,1.05-1.2
						c0.133,2.066,0.367,3.483,0.7,4.25c-0.066-1.667,0.1-2.934,0.5-3.8l0.6-0.8c0.033-0.033,0.067-0.083,0.1-0.15L-47.2,2
						c0.133,0,0.25,0.017,0.35,0.05c0.133-0.2,0.184-0.383,0.15-0.55C-46.767,1.167-46.95,0.933-47.25,0.8z"/>
					<linearGradient id="SVGID_23_" gradientUnits="userSpaceOnUse" x1="-47.2124" y1="2.8999" x2="-46.3874" y2="2.8999">
						<stop  offset="0" style="stop-color:#000000;stop-opacity:0.298"/>
						<stop  offset="0.8588" style="stop-color:#000000;stop-opacity:0.298"/>
						<stop  offset="1" style="stop-color:#000000;stop-opacity:0.298"/>
					</linearGradient>
					<path style="fill-rule:evenodd;clip-rule:evenodd;fill:url(#SVGID_23_);" d="M-46.85,2.05C-46.95,2.017-47.067,2-47.2,2
						l0.2,0.2l0.1,0.15c0.033,0.467,0.033,0.95,0,1.45c0.4-0.3,0.583-0.667,0.55-1.1C-46.383,2.367-46.55,2.15-46.85,2.05z"/>
				</g>
				<g>
					
						<radialGradient id="SVGID_24_" cx="-0.6001" cy="2.3003" r="53.7" gradientTransform="matrix(1 0 0 -0.3797 0 3.1729)" gradientUnits="userSpaceOnUse">
						<stop  offset="0" style="stop-color:#373451"/>
						<stop  offset="0.4431" style="stop-color:#3B2D47"/>
						<stop  offset="1" style="stop-color:#2B232C"/>
					</radialGradient>
					<path style="fill-rule:evenodd;clip-rule:evenodd;fill:url(#SVGID_24_);" d="M52.7,0.5c2.233-0.333,3.7-0.75,4.4-1.25
						c-1.033-0.067-2.767-0.083-5.2-0.05c-2.233,0.034-3.966-0.017-5.2-0.15c0.333-0.033,0.9-0.167,1.7-0.4
						c0.8-0.2,1.35-0.316,1.65-0.35c-0.5,0-1.267-0.066-2.3-0.2C47.417-2.433,47-2.8,46.5-3l-1.1,1.1
						c-0.1-0.134-0.267-0.317-0.5-0.55c-0.5,1.2-1,2.05-1.5,2.55c-0.033-0.867-0.033-1.733,0-2.6c-0.2,0.6-0.8,1.466-1.8,2.6
						c0.033-0.534,0.2-1.7,0.5-3.5h-0.25C41.817-3.6,42.167-3.8,42.9-4c0.8-0.233,1.2-0.434,1.2-0.6l0.25-0.05v-0.1
						c-0.167-0.1-0.917-0.217-2.25-0.35l-2.1,1.2l0.1-1.95h0.65c0.167-0.133,0.6-0.35,1.3-0.65L41.9-7c-0.9,0.133-1.583,0-2.05-0.4
						c-0.333,0.533-0.517,0.966-0.55,1.3c-0.333-0.967-0.5-1.517-0.5-1.65c-0.8,2.267-1.45,3.966-1.95,5.1
						c0.033-1.134,0.1-2.85,0.2-5.15c-0.4,0.7-1.167,1.233-2.3,1.6c0.3-0.667,0.483-1.183,0.55-1.55c0.1-0.534,0.05-1.05-0.15-1.55
						h0.05c0.066-0.1,0.283-0.216,0.65-0.35l0.05-0.55c-0.433,0.034-1.1,0.1-2,0.2c0.067-0.367,0.05-0.684-0.05-0.95
						c-0.133-0.233-0.3-0.283-0.5-0.15v-0.15l-1.2,0.15c-0.133,0.033-0.466,0.2-1,0.5c-0.367,0.2-0.783,0.217-1.25,0.05v0.65
						c-0.066-0.1-0.2-0.267-0.4-0.5c-0.2-0.2-0.333-0.4-0.4-0.6c0,0.767,0.017,1.35,0.05,1.75c0,0.733,0.05,1.316,0.15,1.75
						c-0.833-0.4-1.6-1.95-2.3-4.65h-0.15l0.05,2.6c-0.025-0.68-0.208-1.33-0.55-1.95c0.067,1.133,0.017,1.933-0.15,2.4
						c-0.1-0.9-0.117-1.934-0.05-3.1H26.1c-1.133,1.3-2.55,2-4.25,2.1c0.126-0.126,0.343-0.359,0.65-0.7
						c-0.476,0.506-1.259,0.84-2.35,1c0.7-0.5,1.167-0.983,1.4-1.45l-0.9,0.65c-0.133-0.434-0.85-0.684-2.15-0.75
						c-0.7-0.066-1.65-0.1-2.85-0.1c-0.3,0.7-0.45,1.167-0.45,1.4c-0.067-0.5-0.35-0.966-0.85-1.4
						c-0.367,0.333-0.667,0.883-0.9,1.65c-0.233,0.9-0.4,1.55-0.5,1.95c-0.033-0.267-0.05-1.517-0.05-3.75
						c-0.5,0.5-1.466,1.566-2.9,3.2l-0.2-2.25c-0.567,0.167-0.95,0.25-1.15,0.25c-0.4,0-0.683-0.217-0.85-0.65
						C7.5-10.416,7.333-9.966,7.3-9.7c-0.6-0.5-1.083-1-1.45-1.5c0,0.4,0.083,1.267,0.25,2.6C5.567-8.866,5-9.45,4.4-10.35
						c-0.333,0.167-0.75,0.5-1.25,1C2.617-8.816,2.2-8.466,1.9-8.3c0.034-0.3,0.017-0.75-0.05-1.35c-0.533,0.6-1.017,1.267-1.45,2
						l-0.1-2l-1.15,1.5C-0.816-9.716-1.566-10.666-3.1-11l-0.05,0.65c-0.133-0.033-0.383-0.017-0.75,0.05
						c-0.367,0.067-0.6,0.083-0.7,0.05c-0.066,0.4-0.083,0.683-0.05,0.85C-4.783-9.533-5.033-9.716-5.4-9.95
						c-0.333-0.2-0.567-0.367-0.7-0.5C-6-9.75-5.633-9.033-5-8.3c0.8,0.8,1.35,1.417,1.65,1.85C-5.283-7.616-7-8.966-8.5-10.5
						c-0.2,0.233-0.4,0.583-0.6,1.05c-0.267,0.567-0.45,0.934-0.55,1.1C-9.783-9.316-10-9.966-10.3-10.3c-0.4,0.5-1,0.583-1.8,0.25
						l-0.05,0.45L-13.1-10c0.1,0.733,0.217,1.283,0.35,1.65c0.2,0.467,0.517,0.833,0.95,1.1c-2.033-0.967-3.233-1.567-3.6-1.8
						c-0.367,0.833-0.533,1.4-0.5,1.7c-0.333-0.667-0.517-1.217-0.55-1.65c-0.7,1.4-1.1,2.85-1.2,4.35c0-1-0.1-2.45-0.3-4.35
						c-0.867,1.6-1.917,2.566-3.15,2.9c0.133-0.333,0.383-0.833,0.75-1.5c0.333-0.667,0.483-1.233,0.45-1.7
						c-0.733,0.167-1.333-0.017-1.8-0.55l-0.35,1.7c-0.033-0.034-0.233-0.25-0.6-0.65c-0.233-0.233-0.4-0.466-0.5-0.7
						c0.033,0.966,0.517,2,1.45,3.1c-0.9-0.867-1.417-1.367-1.55-1.5c-0.533-0.6-0.9-1.217-1.1-1.85c-0.833,0.4-1.283,1.1-1.35,2.1
						c0-0.3-0.067-0.833-0.2-1.6c-1,1.033-1.6,1.667-1.8,1.9c0.2-0.566,0.55-1.383,1.05-2.45c-1.4,1.833-2.867,2.917-4.4,3.25
						c0.167-0.3,0.583-0.683,1.25-1.15c0.566-0.4,0.867-0.833,0.9-1.3c-0.667,0.2-1.383,0.267-2.15,0.2
						c0.233-0.233,0.417-0.616,0.55-1.15l-0.4,0.05c-0.733,0.9-1.233,1.483-1.5,1.75c0.033-0.3,0.05-0.75,0.05-1.35
						c-0.5,1.033-0.667,1.983-0.5,2.85c-0.2-0.767-0.383-1.767-0.55-3l-0.2,0.05c-0.133,0.167-0.25,0.417-0.35,0.75L-34.2-9.3
						c-0.133,0.333-0.2,0.784-0.2,1.35c0.033,0.7,0.05,1.217,0.05,1.55c-0.633-0.9-0.966-1.784-1-2.65h-0.05l-0.25,0.9L-36-8.75
						l-0.35,0.35l-0.05-0.25l-1.25,0.45c-0.1,0.167-0.333,0.367-0.7,0.6v-0.35L-39.2-7.7c0.633,0.434,1.117,0.684,1.45,0.75
						c-0.7,0.067-2.917,0.1-6.65,0.1c0.633,0.033,1.233,0.167,1.8,0.4c0.633,0.333,1.133,0.583,1.5,0.75
						c-0.333,0.067-0.716,0.233-1.15,0.5c0.833,0.2,1.3,0.35,1.4,0.45c0.034,0.133-0.05,0.316-0.25,0.55
						c-0.2,0.233-0.267,0.45-0.2,0.65c0.167,0.134,0.383,0.233,0.65,0.3c0.2,0.033,0.35,0.167,0.45,0.4
						c-0.233,0.167-0.65,0.35-1.25,0.55c0.233,0.233,0.35,0.534,0.35,0.9c-0.233,0.033-0.466,0.267-0.7,0.7
						c-0.3,0.534-0.583,0.883-0.85,1.05C-42.617-0.216-42.517-1-42.35-2c-0.966,1.267-1.7,2.15-2.2,2.65
						c-0.033-0.7,0.183-1.434,0.65-2.2c-0.533,0.134-0.933,0.284-1.2,0.45l-0.1-0.6h-0.85c-0.7,0.567-1.167,1.1-1.4,1.6
						c-0.4-0.4-0.617-0.65-0.65-0.75c-0.2,0.033-0.45,0.117-0.75,0.25l-0.05-0.45c-1.667-0.133-3.067-0.05-4.2,0.25l0.9-0.35
						c-0.4-0.2-0.85-0.184-1.35,0.05c-0.231,0.115-0.573,0.315-1.025,0.6c0.327-0.218,0.785-0.568,1.375-1.05
						c-1.042,0-1.833-0.033-2.375-0.1c0.082-0.021,0.207-0.088,0.375-0.2l-3.6,0.1c4.066,1.8,7.533,3.1,10.4,3.9
						c-0.4,0.167-0.65,0.3-0.75,0.4c1.5,0.067,2.85,0.483,4.05,1.25c0,0.233-0.133,0.4-0.4,0.5c0.3,0.133,1.117,0.417,2.45,0.85
						c1,0.3,1.667,0.633,2,1l4.45,1.1c-0.233,0.1-0.767,0.35-1.6,0.75c3.066-0.067,5.417-0.067,7.05,0c2.9,0.066,5.1,0.55,6.6,1.45
						c-0.6,0.067-1.567,0.184-2.9,0.35c1.233,0.067,5.533,0.333,12.9,0.8c5.2,0.366,9.5,0.55,12.9,0.55h4.8
						c2.9,0.1,5.067,0.133,6.5,0.1c2.467-0.034,4.567-0.317,6.3-0.85c1.333-0.4,3.05-0.733,5.15-1c2.5-0.3,4.267-0.566,5.3-0.8
						c2.733-0.534,4.934-1.017,6.6-1.45c3.067-0.8,4.934-1.6,5.6-2.4c-0.6,0-1.533-0.017-2.8-0.05c1.667-0.3,3.683-0.816,6.05-1.55
						c3.867-1.2,5.833-1.816,5.9-1.85C48.25,1.167,49.9,0.9,52.7,0.5z"/>
					<linearGradient id="SVGID_25_" gradientUnits="userSpaceOnUse" x1="-23.2124" y1="7.498" x2="-14.5874" y2="7.498">
						<stop  offset="0" style="stop-color:#FFFFFF;stop-opacity:0.0667"/>
						<stop  offset="0.8588" style="stop-color:#FFFFFF;stop-opacity:0.0667"/>
						<stop  offset="1" style="stop-color:#FFFFFF;stop-opacity:0.0667"/>
					</linearGradient>
					<path style="fill-rule:evenodd;clip-rule:evenodd;fill:url(#SVGID_25_);" d="M-18.85,8.351c1.934,0,3.217-0.134,3.85-0.4
						c0.533-0.233,0.567-0.533,0.1-0.9c-0.367-0.3-1.633-0.433-3.8-0.4C-20.667,6.684-22.05,6.8-22.85,7
						c-0.667,0.167-0.45,0.433,0.65,0.8C-21.1,8.167-19.983,8.351-18.85,8.351z"/>
					<linearGradient id="SVGID_26_" gradientUnits="userSpaceOnUse" x1="-30.0249" y1="6.5444" x2="-26.6749" y2="6.5444">
						<stop  offset="0" style="stop-color:#FFFFFF;stop-opacity:0.0667"/>
						<stop  offset="0.8588" style="stop-color:#FFFFFF;stop-opacity:0.0667"/>
						<stop  offset="1" style="stop-color:#FFFFFF;stop-opacity:0.0667"/>
					</linearGradient>
					<path style="fill-rule:evenodd;clip-rule:evenodd;fill:url(#SVGID_26_);" d="M-28,7.05c1.3-0.066,1.667-0.267,1.1-0.6
						c-0.567-0.333-1.317-0.466-2.25-0.4c-0.867,0.034-1.117,0.217-0.75,0.55C-29.533,6.934-28.9,7.084-28,7.05z"/>
					<linearGradient id="SVGID_27_" gradientUnits="userSpaceOnUse" x1="-34.25" y1="2.1528" x2="-27.15" y2="2.1528">
						<stop  offset="0" style="stop-color:#FFFFFF;stop-opacity:0.0667"/>
						<stop  offset="0.8588" style="stop-color:#FFFFFF;stop-opacity:0.0667"/>
						<stop  offset="1" style="stop-color:#FFFFFF;stop-opacity:0.0667"/>
					</linearGradient>
					<path style="fill-rule:evenodd;clip-rule:evenodd;fill:url(#SVGID_27_);" d="M-31.15,3.15c3.333,0,4.55-0.45,3.65-1.35
						c-0.267-0.267-0.967-0.466-2.1-0.6c-1.233-0.1-2.45-0.033-3.65,0.2c-1.2,0.233-1.4,0.583-0.6,1.05
						C-33.083,2.917-32.183,3.15-31.15,3.15z"/>
					<linearGradient id="SVGID_28_" gradientUnits="userSpaceOnUse" x1="-38.2749" y1="3.3086" x2="-33.921" y2="3.3086">
						<stop  offset="0" style="stop-color:#FFFFFF;stop-opacity:0.0667"/>
						<stop  offset="0.8588" style="stop-color:#FFFFFF;stop-opacity:0.0667"/>
						<stop  offset="1" style="stop-color:#FFFFFF;stop-opacity:0.0667"/>
					</linearGradient>
					<path style="fill-rule:evenodd;clip-rule:evenodd;fill:url(#SVGID_28_);" d="M-36.35,3.95c2,0,2.75-0.3,2.25-0.9
						c-0.2-0.167-0.633-0.283-1.3-0.35c-0.767-0.066-1.517-0.033-2.25,0.1C-38.383,2.967-38.5,3.2-38,3.5
						C-37.533,3.8-36.983,3.95-36.35,3.95z"/>
					<linearGradient id="SVGID_29_" gradientUnits="userSpaceOnUse" x1="-31.2622" y1="-3.3887" x2="-21.5372" y2="-3.3887">
						<stop  offset="0" style="stop-color:#FFFFFF;stop-opacity:0.0667"/>
						<stop  offset="0.8588" style="stop-color:#FFFFFF;stop-opacity:0.0667"/>
						<stop  offset="1" style="stop-color:#FFFFFF;stop-opacity:0.0667"/>
					</linearGradient>
					<path style="fill-rule:evenodd;clip-rule:evenodd;fill:url(#SVGID_29_);" d="M-26.95-1.85c2.833,0,4.566-0.267,5.2-0.8
						c0.367-0.3,0.283-0.75-0.25-1.35c-0.4-0.434-1.35-0.717-2.85-0.85c-1.667-0.167-3.333-0.066-5,0.3
						c-1.667,0.333-1.933,0.884-0.8,1.65C-29.583-2.2-28.35-1.85-26.95-1.85z"/>
					<linearGradient id="SVGID_30_" gradientUnits="userSpaceOnUse" x1="-47.2622" y1="0.2505" x2="-40.0372" y2="0.2505">
						<stop  offset="0" style="stop-color:#FFFFFF;stop-opacity:0.0667"/>
						<stop  offset="0.8588" style="stop-color:#FFFFFF;stop-opacity:0.0667"/>
						<stop  offset="1" style="stop-color:#FFFFFF;stop-opacity:0.0667"/>
					</linearGradient>
					<path style="fill-rule:evenodd;clip-rule:evenodd;fill:url(#SVGID_30_);" d="M-40.4-0.2c-0.167-0.267-0.617-0.45-1.35-0.55
						c-0.3,0.533-0.6,0.9-0.9,1.1l0.15-1.25h-0.7l-1.35,1.55c-0.033-0.533,0.083-1.05,0.35-1.55c-0.6,0-1.284,0.083-2.05,0.25
						c-1.233,0.267-1.417,0.683-0.55,1.25c0.8,0.533,1.717,0.8,2.75,0.8C-40.55,1.4-39.333,0.867-40.4-0.2z"/>
					
						<linearGradient id="SVGID_31_" gradientUnits="userSpaceOnUse" x1="-331.9482" y1="-320.7163" x2="-320.965" y2="-320.7163" gradientTransform="matrix(0.9993 -0.0387 0.0387 0.9993 319.8213 308.0186)">
						<stop  offset="0" style="stop-color:#FFFFFF;stop-opacity:0.0667"/>
						<stop  offset="0.8588" style="stop-color:#FFFFFF;stop-opacity:0.0667"/>
						<stop  offset="1" style="stop-color:#FFFFFF;stop-opacity:0.0667"/>
					</linearGradient>
					<path style="fill-rule:evenodd;clip-rule:evenodd;fill:url(#SVGID_31_);" d="M-19.35,2.2c3.2-0.133,5.133-0.55,5.8-1.25
						c0.4-0.4,0.3-0.966-0.3-1.7c-0.433-0.534-1.517-0.883-3.25-1.05c-1.9-0.133-3.783,0.067-5.65,0.6
						c-1.833,0.534-2.1,1.25-0.8,2.15C-22.316,1.851-20.917,2.267-19.35,2.2z"/>
					
						<linearGradient id="SVGID_32_" gradientUnits="userSpaceOnUse" x1="-302.9707" y1="-310.334" x2="-293.2385" y2="-310.334" gradientTransform="matrix(0.9993 -0.0385 0.0385 0.9993 318.4424 306.7402)">
						<stop  offset="0" style="stop-color:#FFFFFF;stop-opacity:0.0667"/>
						<stop  offset="0.8588" style="stop-color:#FFFFFF;stop-opacity:0.0667"/>
						<stop  offset="1" style="stop-color:#FFFFFF;stop-opacity:0.0667"/>
					</linearGradient>
					<path style="fill-rule:evenodd;clip-rule:evenodd;fill:url(#SVGID_32_);" d="M8.1,9.2c4.567-0.167,6.2-0.716,4.9-1.65
						c-0.367-0.267-1.333-0.433-2.9-0.5c-1.667-0.033-3.333,0.1-5,0.4c-1.633,0.3-1.883,0.684-0.75,1.15
						C5.45,9.067,6.7,9.267,8.1,9.2z"/>
					
						<linearGradient id="SVGID_33_" gradientUnits="userSpaceOnUse" x1="-300.5742" y1="-320.7739" x2="-289.4651" y2="-320.7739" gradientTransform="matrix(0.9992 -0.0395 0.0395 0.9992 326.7651 314.4443)">
						<stop  offset="0" style="stop-color:#FFFFFF;stop-opacity:0.0667"/>
						<stop  offset="0.8588" style="stop-color:#FFFFFF;stop-opacity:0.0667"/>
						<stop  offset="1" style="stop-color:#FFFFFF;stop-opacity:0.0667"/>
					</linearGradient>
					<path style="fill-rule:evenodd;clip-rule:evenodd;fill:url(#SVGID_33_);" d="M18.7,7.15c3.267-0.133,5.233-0.467,5.9-1
						c0.4-0.333,0.3-0.783-0.3-1.35c-0.467-0.433-1.567-0.683-3.3-0.75c-1.9-0.1-3.8,0.067-5.7,0.5c-1.867,0.434-2.15,1-0.85,1.7
						C15.717,6.95,17.133,7.25,18.7,7.15z"/>
					
						<linearGradient id="SVGID_34_" gradientUnits="userSpaceOnUse" x1="-999.1641" y1="-1165.3994" x2="-993.4364" y2="-1165.3994" gradientTransform="matrix(0.9908 -0.1356 0.1356 0.9908 1174.8213 1026.085)">
						<stop  offset="0" style="stop-color:#FFFFFF;stop-opacity:0.0667"/>
						<stop  offset="0.8588" style="stop-color:#FFFFFF;stop-opacity:0.0667"/>
						<stop  offset="1" style="stop-color:#FFFFFF;stop-opacity:0.0667"/>
					</linearGradient>
					<path style="fill-rule:evenodd;clip-rule:evenodd;fill:url(#SVGID_34_);" d="M29.4,7.25c1.667-0.233,2.667-0.483,3-0.75
						c0.167-0.133,0.1-0.3-0.2-0.5c-0.233-0.133-0.8-0.167-1.7-0.1c-1,0.066-1.983,0.233-2.95,0.5c-0.934,0.267-1.05,0.5-0.35,0.7
						C27.833,7.3,28.567,7.351,29.4,7.25z"/>
					
						<linearGradient id="SVGID_35_" gradientUnits="userSpaceOnUse" x1="-187.2939" y1="-218.5137" x2="-175.3145" y2="-218.5137" gradientTransform="matrix(0.9996 -0.0265 0.0265 0.9996 217.4751 212.0283)">
						<stop  offset="0" style="stop-color:#FFFFFF;stop-opacity:0.0667"/>
						<stop  offset="0.8588" style="stop-color:#FFFFFF;stop-opacity:0.0667"/>
						<stop  offset="1" style="stop-color:#FFFFFF;stop-opacity:0.0667"/>
					</linearGradient>
					<path style="fill-rule:evenodd;clip-rule:evenodd;fill:url(#SVGID_35_);" d="M29.85,0.4c3.5-0.1,5.617-0.483,6.35-1.15
						c0.433-0.434,0.316-1.017-0.35-1.75c-0.467-0.534-1.633-0.883-3.5-1.05c-2.067-0.167-4.133,0.017-6.2,0.55
						c-2,0.5-2.3,1.216-0.9,2.15C26.617,0.05,28.15,0.467,29.85,0.4z"/>
					
						<linearGradient id="SVGID_36_" gradientUnits="userSpaceOnUse" x1="-463.499" y1="-516.5684" x2="-456.1602" y2="-516.5684" gradientTransform="matrix(0.9981 -0.0613 0.0613 0.9981 512.4395 482.46)">
						<stop  offset="0" style="stop-color:#FFFFFF;stop-opacity:0.0667"/>
						<stop  offset="0.8588" style="stop-color:#FFFFFF;stop-opacity:0.0667"/>
						<stop  offset="1" style="stop-color:#FFFFFF;stop-opacity:0.0667"/>
					</linearGradient>
					<path style="fill-rule:evenodd;clip-rule:evenodd;fill:url(#SVGID_36_);" d="M21.45-3.8c3.467-0.2,4.683-0.783,3.65-1.75
						c-0.3-0.3-1.033-0.466-2.2-0.5c-1.267-0.066-2.533,0.067-3.8,0.4c-1.2,0.333-1.367,0.75-0.5,1.25
						C19.434-3.933,20.383-3.733,21.45-3.8z"/>
					
						<linearGradient id="SVGID_37_" gradientUnits="userSpaceOnUse" x1="-257.8125" y1="-274.4307" x2="-250.3333" y2="-274.4307" gradientTransform="matrix(0.9994 -0.0334 0.0334 0.9994 275.5542 266.7881)">
						<stop  offset="0" style="stop-color:#FFFFFF;stop-opacity:0.0667"/>
						<stop  offset="0.8588" style="stop-color:#FFFFFF;stop-opacity:0.0667"/>
						<stop  offset="1" style="stop-color:#FFFFFF;stop-opacity:0.0667"/>
					</linearGradient>
					<path style="fill-rule:evenodd;clip-rule:evenodd;fill:url(#SVGID_37_);" d="M12.1,2.2c2.2-0.1,3.517-0.35,3.95-0.75
						c0.267-0.267,0.2-0.616-0.2-1.05c-0.3-0.3-1.033-0.483-2.2-0.55c-1.333-0.1-2.633,0.017-3.9,0.35
						C8.517,0.534,8.333,0.967,9.2,1.5C10.067,2,11.033,2.234,12.1,2.2z"/>
					<linearGradient id="SVGID_38_" gradientUnits="userSpaceOnUse" x1="-58.7998" y1="4.6255" x2="-6.3501" y2="4.6255">
						<stop  offset="0" style="stop-color:#000000;stop-opacity:0.298"/>
						<stop  offset="0.8588" style="stop-color:#000000;stop-opacity:0.298"/>
						<stop  offset="1" style="stop-color:#000000;stop-opacity:0.298"/>
					</linearGradient>
					<path style="fill-rule:evenodd;clip-rule:evenodd;fill:url(#SVGID_38_);" d="M-6.35,11.101c-2.133-0.6-3.583-0.934-4.35-1
						c-1.434-0.167-2.55-0.384-3.35-0.65c-0.567-0.2-1.35-0.3-2.35-0.3c-1.167-0.033-1.95-0.083-2.35-0.15
						c-0.2-0.034-0.683-0.067-1.45-0.1c-0.667-0.066-0.917-0.283-0.75-0.65c-0.267,0-0.967,0.017-2.1,0.05
						c-0.867,0.067-1.567,0.05-2.1-0.05c-2.8-0.534-4.267-0.8-4.4-0.8c-0.733-0.066-1.817-0.1-3.25-0.1
						c-0.833-0.067-0.95-0.233-0.35-0.5c0.3-0.167,0.767-0.384,1.4-0.65l-1.9-0.2l0.35-0.15c-0.567-0.067-1.434-0.067-2.6,0
						l-2.15-0.15c-0.133-0.033-0.283-0.05-0.45-0.05c-0.133-0.033-0.233-0.133-0.3-0.3c-0.633-0.034-1.367-0.25-2.2-0.65
						c-1-0.466-1.717-0.75-2.15-0.85c0.033-0.2,0.233-0.35,0.6-0.45c0.467-0.167,0.717-0.267,0.75-0.3
						c0.066-0.034,0.2-0.233,0.4-0.6h-1.35c-0.566,0-1.017-0.05-1.35-0.15l0.05-0.15c-0.333,0-0.517-0.116-0.55-0.35
						c0.233-0.1,0.6-0.15,1.1-0.15c0.5-0.033,0.85-0.083,1.05-0.15c-0.333,0-0.85-0.066-1.55-0.2c-0.3-0.034-0.9-0.083-1.8-0.15
						c-0.767-0.1-1.317-0.25-1.65-0.45l0.5-0.35c-0.2-0.1-0.534-0.167-1-0.2c-0.5-0.033-0.833-0.066-1-0.1
						c0.033-0.1,0.033-0.267,0-0.5c-0.6,0-1.05-0.034-1.35-0.1c-0.033-0.167-0.2-0.284-0.5-0.35l0.25-0.25
						c-0.833,0-1.684,0.1-2.55,0.3l0.9-0.35c-0.4-0.2-0.85-0.184-1.35,0.05c-0.231,0.115-0.573,0.315-1.025,0.6
						c0.327-0.218,0.785-0.568,1.375-1.05c-1.042,0-1.833-0.033-2.375-0.1c0.082-0.021,0.207-0.088,0.375-0.2l-3.6,0.1
						c4.066,1.8,7.533,3.1,10.4,3.9c-0.4,0.167-0.65,0.3-0.75,0.4c1.5,0.067,2.85,0.483,4.05,1.25c0,0.233-0.133,0.4-0.4,0.5
						c0.3,0.133,1.117,0.417,2.45,0.85c1,0.3,1.667,0.633,2,1l4.45,1.1c-0.233,0.1-0.767,0.35-1.6,0.75
						c3.066-0.067,5.417-0.067,7.05,0c2.9,0.066,5.1,0.55,6.6,1.45c-0.6,0.067-1.567,0.184-2.9,0.35
						C-18.083,10.5-11.05,10.934-6.35,11.101z"/>
				</g>
			</g>
			<g>
				<path style="fill-rule:evenodd;clip-rule:evenodd;fill:#493E5C;" d="M3.7,7.1C4.067,7.367,4.5,7.45,5,7.35h0.25
					c-0.067-0.333-0.3-0.517-0.7-0.55C4.15,6.733,3.867,6.833,3.7,7.1z M1.25,8.35L0.7,7.2C0.433,6.7,0.033,6.517-0.5,6.65
					C-0.6,7.017-0.433,7.333,0,7.6L1.25,8.35z M2.75,7.85l0.75-0.5C3,6.85,2.517,6.717,2.05,6.95C1.95,7.45,2.183,7.75,2.75,7.85z
					 M9.6,6c0.433,0.533,1.233,0.733,2.4,0.6l4.25,0.5c-0.833-0.533-1.933-0.917-3.3-1.15c-1-0.2-1.883-0.267-2.65-0.2
					C10.033,5.783,9.767,5.833,9.5,5.9C9.533,5.933,9.567,5.967,9.6,6z M-4.35,7.3c0.133,0.3,0.333,0.65,0.6,1.05h1.5
					c0.133-1.1-0.367-1.783-1.5-2.05c-0.3-0.066-0.517-0.066-0.65,0C-4.367,6.7-4.35,7.033-4.35,7.3z M-12.85,5.1
					c-0.3,0.033-0.65,0.133-1.05,0.3c-0.633,0.267-1.017,0.417-1.15,0.45c-0.333,0.033-0.6,0.066-0.8,0.1
					c-0.4,0.033-0.633,0.1-0.7,0.2c-0.467,0.6,0.083,0.934,1.65,1c0.8,0.033,1.767,0.017,2.9-0.05l0.75,0.25
					c0.5,0.1,0.95-0.017,1.35-0.35s0.467-0.733,0.2-1.2c-0.2-0.367-0.6-0.6-1.2-0.7c-0.5-0.1-1.133-0.1-1.9,0H-12.85z M1.4,0.6
					l1.35-0.5c-1.367-0.2-2.3-0.2-2.8,0c-0.067,0.033-0.133,0.066-0.2,0.1L-0.3,0.25l1.05,0.6L1.4,0.6z M5.15,1.35
					c0.533,0.033,1.1,0.033,1.7,0c0.066,0,0.117,0,0.15,0l3.25-1.25C10.217-0.733,9.133-1.05,7-0.85c-0.967,0.1-1.617,0.3-1.95,0.6
					c-0.367,0.333-0.433,0.767-0.2,1.3c0.033,0.1,0.083,0.2,0.15,0.3C5.033,1.35,5.083,1.35,5.15,1.35z M12.05,0.85
					c-0.1,0.167-0.117,0.333-0.05,0.5c0.333,0.066,0.783,0.033,1.35-0.1c0.633-0.1,1.1-0.15,1.4-0.15l0.35-0.35l2.15-1.9
					c-0.733-0.067-1.833,0.183-3.3,0.75C12.883,0.033,12.25,0.45,12.05,0.85z M18.25,3.85L20.9,3.4c0.067,0.033,0.15,0.05,0.25,0.05
					c1,0.033,1.617-0.083,1.85-0.35l-2.1,0.3c-0.933-0.033-1.533-0.05-1.8-0.05c-2,0.033-4.017,0.033-6.05,0
					c0.467,0.033,1.333,0.133,2.6,0.3C16.717,3.783,17.583,3.85,18.25,3.85z M-7.5,7.85v-1c0.033-0.3-0.05-0.55-0.25-0.75
					C-8.217,6.2-8.367,6.483-8.2,6.95C-8.067,7.25-7.833,7.55-7.5,7.85z"/>
				<path style="fill-rule:evenodd;clip-rule:evenodd;fill:#282236;" d="M-13.65,5.1c0.233,0,0.5,0,0.8,0h0.05
					c0.767-0.1,1.4-0.1,1.9,0c0.233-0.067,0.6-0.167,1.1-0.3c0.5-0.167,0.917-0.216,1.25-0.15c0.066,0.533,0.066,1.083,0,1.65
					c0.133-0.433,0.433-0.9,0.9-1.4c0.533-0.566,1-0.733,1.4-0.5C-6.017,4.5-5.9,4.883-5.9,5.55c-0.033,0.733-0.017,1.167,0.05,1.3
					C-5.583,7.583-5.067,8.1-4.3,8.4c0-0.033-0.017-0.4-0.05-1.1c0-0.267-0.017-0.6-0.05-1c-0.033-0.9,0.066-1.533,0.3-1.9
					c0.233,0.434,0.684,0.8,1.35,1.1c0.267,0.1,0.833,0.283,1.7,0.55c-0.133-0.233-0.284-0.667-0.45-1.3
					C-1.633,4.183-1.783,3.767-1.95,3.5C-0.983,4.433,0.8,5.117,3.4,5.55c1,0.167,2.3,0.284,3.9,0.35C8.2,5.933,8.967,5.967,9.6,6
					C9.567,5.967,9.533,5.933,9.5,5.9c0.267-0.066,0.533-0.117,0.8-0.15c-0.3-0.167-0.633-0.367-1-0.6
					C8.967,4.883,8.683,4.667,8.45,4.5C6.983,4.2,5.4,3.733,3.7,3.1C3.3,3,3,2.9,2.8,2.8C2.5,2.667,2.3,2.467,2.2,2.2
					C2.167,2.667,2.317,3.117,2.65,3.55c0.3,0.4,0.7,0.684,1.2,0.85L0.8,3.7c-1.3-0.3-2.316-0.4-3.05-0.3
					C-2.283,3.567-2.267,3.817-2.2,4.15c-0.3,0.033-0.716-0.233-1.25-0.8c-0.466-0.533-0.833-0.717-1.1-0.55
					C-4.717,2.9-4.8,3.083-4.8,3.35c0,0.467,0,0.717,0,0.75c-0.267-0.267-0.434-0.5-0.5-0.7c-0.8,0.1-1.934,0.333-3.4,0.7
					c-1.566,0.433-2.7,0.7-3.4,0.8C-12.6,4.967-13.117,5.033-13.65,5.1z M-10.05,3.1C-9.917,3.067-9.767,3.033-9.6,3h0.05
					c0.1-0.067,0.2-0.15,0.3-0.25c0.233-0.267,0.333-0.683,0.3-1.25c-0.033-0.533-0.133-0.967-0.3-1.3
					c0.367,0.066,1.033,0.316,2,0.75c0.9,0.3,1.567,0.367,2,0.2c0.433-0.2,0.667-0.566,0.7-1.1c0.033-0.3,0.05-0.767,0.05-1.4
					c0.367,0.1,1.267,0.434,2.7,1c0.566,0.233,1.083,0.417,1.55,0.55c0.067-0.034,0.133-0.067,0.2-0.1
					C-0.217,0.033-0.4-0.05-0.6-0.15C-2-0.75-3.8-2.05-6-4.05c-0.067,0.2,0.017,0.867,0.25,2c0.167,0.933,0.067,1.5-0.3,1.7
					c-0.133,0.1-0.534,0.133-1.2,0.1c-0.633,0-1.067-0.033-1.3-0.1c-0.233-0.033-0.75-0.3-1.55-0.8c-0.667-0.434-1.133-0.6-1.4-0.5
					c0.633,0.433,1.1,0.8,1.4,1.1c0.6,0.466,0.883,0.933,0.85,1.4c-0.067,0.7-0.817,1.133-2.25,1.3
					c-0.733,0.067-1.667,0.083-2.8,0.05c-1.667-0.067-2.617-0.1-2.85-0.1c-2.6,0-4.3-0.083-5.1-0.25c0.3,0.1,0.933,0.45,1.9,1.05
					c0.767,0.434,1.45,0.684,2.05,0.75c0.8,0.067,1.983,0.05,3.55-0.05c0.4,0,0.833-0.017,1.3-0.05c0.167-0.066,0.333-0.133,0.5-0.2
					c-0.7,0.066-1.3-0.017-1.8-0.25h2.5c-0.2,0.033-0.433,0.117-0.7,0.25h0.05c0.433-0.033,1.066-0.117,1.9-0.25
					C-10.8,3.067-10.483,3.067-10.05,3.1z M-18.85,4.95c1.4-0.2,2.583-0.434,3.55-0.7c-0.534,0.067-1.034,0.1-1.5,0.1
					c-0.833-0.033-1.45-0.05-1.85-0.05c-0.733,0-1.333,0.05-1.8,0.15C-20.017,4.683-19.483,4.85-18.85,4.95z M3.6-1.15
					c0.3,0.833,0.717,1.566,1.25,2.2c-0.233-0.533-0.167-0.966,0.2-1.3C4.817-0.583,4.433-1.183,3.9-2.05
					C3.867-1.95,3.767-1.65,3.6-1.15z M15.1,0.75L14.75,1.1c-0.3,0-0.767,0.05-1.4,0.15c-0.567,0.133-1.017,0.167-1.35,0.1
					c-0.067-0.167-0.05-0.333,0.05-0.5c-0.9,0-1.633,0.017-2.2,0.05c2.167-0.2,3.533-1.017,4.1-2.45
					c-0.5,0.566-1.117,1.033-1.85,1.4c-0.434,0.2-1.184,0.483-2.25,0.85c-0.6,0.233-1.067,0.417-1.4,0.55C7.85,1.45,7.367,1.5,7,1.4
					c-0.033,0-0.083-0.017-0.15-0.05c-0.6,0.033-1.167,0.033-1.7,0c0.133,0.167,0.3,0.333,0.5,0.5C6.617,2.65,7.733,3.067,9,3.1
					H8.05c0.767,0.033,1.9,0.383,3.4,1.05c0.5,0.233,0.966,0.417,1.4,0.55c-0.233,0-0.467,0-0.7,0c-1.133,0.066-1.967,0.066-2.5,0
					C9.717,4.733,9.8,4.75,9.9,4.75c0.533,0.1,1.35,0.2,2.45,0.3c1.6,0.233,3.633,0.35,6.1,0.35l13.3-0.3
					c-1.1,0-2.517-0.133-4.25-0.4c-2.233-0.3-3.783-0.467-4.65-0.5C19.917,4,17.733,3.883,16.3,3.85c1.233,0,3.083,0.017,5.55,0.05
					c0.8-0.033,1.7-0.183,2.7-0.45C25.15,3.283,26.033,3,27.2,2.6c-3.3,0.333-7.767,0.5-13.4,0.5c-0.966,0.1-1.716,0.133-2.25,0.1
					c-0.933-0.1-1.283-0.534-1.05-1.3c0.7-0.033,1.717-0.117,3.05-0.25c1.567-0.1,2.55-0.217,2.95-0.35
					c0.233-0.1,0.517-0.3,0.85-0.6c0.333-0.267,0.6-0.45,0.8-0.55C17.317,0.45,16.3,0.65,15.1,0.75z M18.25,3.85
					c-0.667,0-1.533-0.067-2.6-0.2c-1.267-0.167-2.133-0.267-2.6-0.3c2.034,0.033,4.05,0.033,6.05,0c0.267,0,0.867,0.017,1.8,0.05
					L23,3.1c-0.233,0.267-0.85,0.383-1.85,0.35c-0.1,0-0.183-0.017-0.25-0.05L18.25,3.85z"/>
				<path style="fill-rule:evenodd;clip-rule:evenodd;fill:#13101A;" d="M-18.85,4.95c-0.533,0.1-1.117,0.183-1.75,0.25
					c0.167,0.167,0.583,0.25,1.25,0.25c0.367,0,0.767-0.017,1.2-0.05c1.6-0.033,3.1-0.133,4.5-0.3c0.533-0.067,1.05-0.133,1.55-0.2
					c0.7-0.1,1.833-0.367,3.4-0.8c1.467-0.367,2.6-0.6,3.4-0.7c0.066,0.2,0.233,0.434,0.5,0.7c0-0.033,0-0.283,0-0.75
					c0-0.267,0.083-0.45,0.25-0.55c0.267-0.167,0.633,0.017,1.1,0.55c0.534,0.566,0.95,0.833,1.25,0.8
					C-2.267,3.817-2.283,3.567-2.25,3.4c0.733-0.1,1.75,0,3.05,0.3l3.05,0.7c-0.5-0.167-0.9-0.45-1.2-0.85
					C2.317,3.117,2.167,2.667,2.2,2.2c0.1,0.267,0.3,0.466,0.6,0.6C3,2.9,3.3,3,3.7,3.1c1.7,0.633,3.283,1.1,4.75,1.4
					c0.267,0.067,0.533,0.117,0.8,0.15c0.1,0.033,0.233,0.05,0.4,0.05c0.533,0.066,1.367,0.066,2.5,0c0.233,0,0.467,0,0.7,0
					c-0.434-0.133-0.9-0.317-1.4-0.55c-1.5-0.667-2.633-1.017-3.4-1.05H9C7.733,3.067,6.617,2.65,5.65,1.85
					c-0.2-0.167-0.367-0.333-0.5-0.5c-0.066,0-0.117,0-0.15,0c-0.067-0.1-0.117-0.2-0.15-0.3C4.317,0.417,3.9-0.317,3.6-1.15
					c0-0.033-0.017-0.083-0.05-0.15c-0.167,0.833-0.433,1.383-0.8,1.65C2.417,0.583,1.983,0.667,1.45,0.6H1.4L0.75,0.85l-1.05-0.6
					l0.05-0.05C-0.717,0.067-1.233-0.117-1.8-0.35c-1.434-0.566-2.333-0.9-2.7-1c0,0.633-0.017,1.1-0.05,1.4
					c-0.034,0.534-0.267,0.9-0.7,1.1c-0.433,0.167-1.1,0.1-2-0.2c-0.967-0.434-1.633-0.684-2-0.75c0.167,0.333,0.267,0.767,0.3,1.3
					c0.034,0.567-0.066,0.983-0.3,1.25c-0.1,0.1-0.2,0.183-0.3,0.25c-0.133,0.067-0.3,0.1-0.5,0.1c-0.434-0.033-0.75-0.033-0.95,0
					c-0.833,0.133-1.467,0.217-1.9,0.25h-0.05c0.267-0.133,0.5-0.217,0.7-0.25h-2.5c0.5,0.233,1.1,0.316,1.8,0.25
					c-0.167,0.066-0.333,0.133-0.5,0.2L-13.5,3.6c-0.6,0.3-1.033,0.483-1.3,0.55c-0.167,0.033-0.333,0.067-0.5,0.1
					C-16.267,4.517-17.45,4.75-18.85,4.95z"/>
			</g>
		</g>
	</g>
</symbol>
<symbol  id="parts_x2F_body" viewBox="-25.8 -34.203 51.6 68.334">
	<g id="Layer_1_25_">
		<g>
			
				<linearGradient id="SVGID_39_" gradientUnits="userSpaceOnUse" x1="26.0542" y1="-16224.6426" x2="48.7792" y2="-16224.6426" gradientTransform="matrix(4.400440e-005 -1 1 -0.001 16224.6436 0.8921)">
				<stop  offset="0" style="stop-color:#223149"/>
				<stop  offset="1" style="stop-color:#121317"/>
			</linearGradient>
			<path style="fill-rule:evenodd;clip-rule:evenodd;fill:url(#SVGID_39_);" d="M0.35,31.35l2,1.4c0.867,0.567,2.017,0.967,3.45,1.2
				c2.833,0.5,5.6-0.034,8.3-1.6s4.633-3.667,5.8-6.3c0.6-1.3,0.917-2.45,0.95-3.45l-3.6-5.6c-2.566-5.133-4.2-11.233-4.9-18.3
				C12.017-4.867,12.233-8.517,13-12.25c0.8-3.667,1.967-6.667,3.5-9c1.434-2.167,3.417-4.267,5.95-6.3
				c1.267-1.034,2.383-1.833,3.35-2.4l-1.55-0.3c-1.3-0.2-2.65-0.333-4.05-0.4c-1.2-0.033-3.067,0.083-5.6,0.35L14-30.45
				c0.833-0.9,2.45-2.05,4.85-3.45l-2.7-0.15c-2.1-0.034-3.917,0.083-5.45,0.35c-0.267,0.033-1.35,0.233-3.25,0.6
				c-1.3,0.233-2.434,0.384-3.4,0.45c-0.833-0.066-2.083-0.017-3.75,0.15c-2,0.233-3.317,0.35-3.95,0.35
				c-0.633-0.133-1.7-0.533-3.2-1.2c-1.633-0.6-3.333-0.883-5.1-0.85c-2.4,0.066-4.367,0.3-5.9,0.7
				c-0.733,0.167-1.25,0.35-1.55,0.55c1.767,0.9,2.833,1.583,3.2,2.05c-0.133,0.033-1.583,0.117-4.35,0.25
				c-2.367,0.1-4.117,0.434-5.25,1c0.9,0.633,1.983,2.233,3.25,4.8c2.533,5.134,4.75,12.5,6.65,22.1
				C-13.433,9.483-9.65,19.066-4.55,26C-2.95,28.166-1.316,29.95,0.35,31.35z"/>
		</g>
	</g>
</symbol>
<symbol  id="parts_x2F_grass" viewBox="-20.9 -0.019 41.8 19.069">
	<g id="G1_1_">
		
			<use xlink:href="#parts_x2F_G1"  width="5.757" height="7.2" x="-4.9" y="0" transform="matrix(1 0 0 1 -14.75 5.9502)" style="overflow:visible;"/>
	</g>
	<g id="G2_1_">
		
			<use xlink:href="#parts_x2F_G2"  width="8.58" height="10.535" x="-7.3" y="-0.013" transform="matrix(1 0 0 1 -13.6001 5.5498)" style="overflow:visible;"/>
	</g>
	<g id="G3_1_">
		
			<use xlink:href="#parts_x2F_G3"  width="9.58" height="16.868" x="-8.3" y="-0.019" transform="matrix(1 0 0 1 -5.3501 0)" style="overflow:visible;"/>
	</g>
	<g id="G4_1_">
		
			<use xlink:href="#parts_x2F_G4"  width="10.673" height="18.03" x="-1.323" y="0.021" transform="matrix(1 0 0 1 11.5498 1)" style="overflow:visible;"/>
	</g>
	<g id="G5_1_">
		
			<use xlink:href="#parts_x2F_G5"  width="7.2" height="12.427" x="-1.1" y="0.023" transform="matrix(1 0 0 1 13.2998 0.8999)" style="overflow:visible;"/>
	</g>
</symbol>
<symbol  id="tears_x2F_hilite1" viewBox="-2 -3.5 4 7">
	<g id="Layer_1_24_">
		<path style="fill-rule:evenodd;clip-rule:evenodd;fill:#FFFFFF;fill-opacity:0.702;" d="M0.9,0.7L1,0.9
			c0.167,0.467,0.5,0.934,1,1.4V1.75C1.933-0.183,1.733-1.333,1.4-1.7L0.75-0.95c0-0.167-0.083-0.816-0.25-1.95
			c-0.433,1-0.683,1.517-0.75,1.55v-0.1c0-0.267-0.1-0.683-0.3-1.25c-0.185-0.308-0.285-0.575-0.3-0.8l0.1,2.8L-1.6-2.5
			c0.067,0.7,0.1,2.083,0.1,4.15C-1.6,1.483-1.767,1.4-2,1.4C-2,1.567-1.933,1.767-1.8,2h0.2c0.467,0.267,1.033,0.767,1.7,1.5
			l0.05-0.05c0-0.034-0.217-0.367-0.65-1l0.75,0.6C0.183,2.817,0,2.4-0.3,1.8c-0.367-0.733-0.55-1.15-0.55-1.25
			c0-0.167,0.033-0.283,0.1-0.35c1.067,1.333,1.733,2.183,2,2.55C1.317,2.383,1.2,1.7,0.9,0.7z"/>
	</g>
</symbol>
<symbol  id="tears_x2F_hilite2" viewBox="-1.4 -2.7 2.75 5.35">
	<g id="Layer_1_23_">
		<g>
			<path style="fill-rule:evenodd;clip-rule:evenodd;fill:#FFFFFF;fill-opacity:0.702;" d="M0.5,0.7c0.067,0.133,0.2,0.267,0.4,0.4
				c0.133,0.1,0.25,0.217,0.35,0.35l0.1-0.1C1.317,1.25,0.967,0.567,0.3-0.7c-0.633-1.167-0.95-1.833-0.95-2v2h-0.1
				c0.033-0.233-0.183-0.55-0.65-0.95v0.4c0.133,0.3,0.267,0.567,0.4,0.8C-1.067-0.283-1.017,0-0.85,0.4
				c0.033,0.067,0.067,0.133,0.1,0.2c0.233,0.433,0.433,0.717,0.6,0.85v-0.5c0.1,0.267,0.316,0.6,0.65,1
				c0.167,0.2,0.367,0.433,0.6,0.7c-0.067-0.1-0.184-0.367-0.35-0.8C0.583,1.317,0.5,0.933,0.5,0.7z"/>
		</g>
	</g>
</symbol>
<symbol  id="tears_x2F_hilite3" viewBox="-2.4 -3.35 4.75 6.65">
	<g id="Layer_1_21_">
		<g>
			<path style="fill-rule:evenodd;clip-rule:evenodd;fill:#FFFFFF;fill-opacity:0.702;" d="M1.7,1.55
				C1.962,1.911,2.096,2.194,2.1,2.4c0-0.937-0.05-1.97-0.15-3.1c0-0.566,0.133-1,0.4-1.3l-0.1-0.05C1.917-1.983,1.65-1.8,1.45-1.5
				C1.283-1.233,1.167-1.05,1.1-0.95c0-0.533-0.017-0.95-0.05-1.25l-0.2,0.05C0.783-1.883,0.667-1.633,0.5-1.4L0.25-1.1L0-1.25
				l-0.65-2.1c-0.133,0.167-0.2,0.45-0.2,0.85c0,0.333-0.017,0.533-0.05,0.6H-1c-0.033-0.033-0.25-0.434-0.65-1.2v1.5
				C-1.653-1.7-1.736-1.75-1.9-1.75l-0.35-0.5l-0.15,0.1c0.3,0.867,0.633,1.683,1,2.45c0.167,0.333,0.25,0.767,0.25,1.3
				c0,0.367-0.033,0.667-0.1,0.9c-0.033,0.133-0.133,0.317-0.3,0.55c0.133-0.033,0.25-0.066,0.35-0.1c0.6-0.2,0.95-0.534,1.05-1H0V3
				h0.1l0.25-2.1H0.5c0.067,0.533,0.117,0.95,0.15,1.25C0.75,2.75,0.9,3.133,1.1,3.3V0.9h0.15C1.25,0.967,1.4,1.183,1.7,1.55z"/>
		</g>
	</g>
</symbol>
<symbol  id="tears_x2F_hilite4" viewBox="-2.75 -3.7 5.5 7.35">
	<g id="Layer_1_20_">
		<g>
			<path style="fill-rule:evenodd;clip-rule:evenodd;fill:#FFFFFF;fill-opacity:0.702;" d="M2,2.3c0-0.4-0.083-0.716-0.25-0.95
				C1.583,1.15,1.5,0.983,1.5,0.85c0-0.467,0.217-1.1,0.65-1.9c0.233-0.333,0.4-0.767,0.5-1.3c0.067-0.4,0.1-0.85,0.1-1.35H2.6
				C2.367-3.167,2.2-2.717,2.1-2.35L2.05-2.3C1.75-1.667,1.4-1.283,1-1.15v-2.1H0.85c-0.067,0.3-0.133,0.6-0.2,0.9
				C0.283-1.117-0.067-0.533-0.4-0.6l-0.05-2.15c-0.033,0.167-0.05,0.3-0.05,0.4C-0.567-1.683-0.817-1.333-1.25-1.3V-3
				C-1.256-2.817-1.306-2.6-1.4-2.35c-0.133,0.5-0.35,1-0.65,1.5c-0.067,0.067-0.117,0.133-0.15,0.2
				C-2.467-0.317-2.65-0.033-2.75,0.2h0.35c0,0.833,0.033,1.4,0.1,1.7c0.133,0.733,0.483,1.184,1.05,1.35V1.9
				c0.3,0.233,0.75,0.817,1.35,1.75v-0.7L-0.15,2.1C-0.317,1.5-0.4,1.083-0.4,0.85L-0.25,1c0,0.233,0.117,0.55,0.35,0.95
				c0.267,0.5,0.566,0.8,0.9,0.9c-0.167-0.6-0.25-1.267-0.25-2L0.85,1c0.066,0.233,0.233,0.5,0.5,0.8c0.2,0.3,0.4,0.483,0.6,0.55
				L2,2.3z"/>
		</g>
	</g>
</symbol>
<symbol  id="uraliaStreetSpirit_1_" viewBox="-67.567 -85.706 133.035 120.213">
	<g id="Layer_3_6_">
	</g>
	<g id="Layer_4_6_">
	</g>
	<g>
		<g id="mask_1_">
			
				<use xlink:href="#LonelinessWindow_x2F_circleMask"  width="165" height="165" x="-82.5" y="-82.5" transform="matrix(0.8063 0 0 0.7286 -1.0498 -25.6001)" style="overflow:visible;opacity:0.2891;"/>
		</g>
		<g id="ground_1_">
			
				<use xlink:href="#parts_x2F_GROUND"  width="119.95" height="24.35" x="-60" y="-12.2" transform="matrix(1 0 0 1 0 -48.9502)" style="overflow:visible;"/>
		</g>
		<g id="capBackCONTAINER_1_">
			
				<use xlink:href="#cap"  width="84.505" height="55.53" id="capBack_x5F_mc_1_" x="-42.255" y="-27.73" transform="matrix(1 0 0 1 -2.3501 2.6499)" style="overflow:visible;opacity:0;"/>
		</g>
		<g id="T3_1_">
		</g>
		<g id="T4_1_">
		</g>
		<g id="dirt_1_">
		</g>
		<g id="body_1_">
			
				<use xlink:href="#parts_x2F_body"  width="51.6" height="68.334" x="-25.8" y="-34.203" transform="matrix(1 0 0 1 0.5498 -16.8999)" style="overflow:visible;"/>
		</g>
		<g id="tears_3_">
		</g>
		<g id="T1_1_">
		</g>
		<g id="T2_1_">
		</g>
		<g id="tears_2_">
		</g>
		<g id="teardrops_1_">
		</g>
		<g id="eyeFar_1_">
		</g>
		<g id="eyeClose_1_">
		</g>
		<g id="capFrontCONTAINER_1_">
			
				<use xlink:href="#cap"  width="84.505" height="55.53" id="capFront_x5F_mc_1_" x="-42.255" y="-27.73" transform="matrix(1 0 0 1 -2.3501 2.6499)" style="overflow:visible;"/>
		</g>
		<g id="grass_1_">
			
				<use xlink:href="#parts_x2F_grass"  width="41.8" height="19.069" x="-20.9" y="-0.019" transform="matrix(1 0 0 1 -5.25 -53.7002)" style="overflow:visible;"/>
		</g>
	</g>
	<g id="Layer_1_40_">
	</g>
</symbol>
<use xlink:href="#uraliaStreetSpirit_1_"  width="133.035" height="120.213" id="uraliaStreetSpirit_x5F_mc" x="-67.567" y="-85.706" transform="matrix(1 0 0 -1 75.4502 105.6504)" style="overflow:visible;"/>
</svg>
