<?xml version="1.0" encoding="iso-8859-1"?>
<!-- Generator: Adobe Illustrator 15.1.0, SVG Export Plug-In . SVG Version: 6.00 Build 0)  -->
<!DOCTYPE svg PUBLIC "-//W3C//DTD SVG 1.1//EN" "http://www.w3.org/Graphics/SVG/1.1/DTD/svg11.dtd">
<svg version="1.1" id="FlashAICB" xmlns="http://www.w3.org/2000/svg" xmlns:xlink="http://www.w3.org/1999/xlink" x="0px" y="0px"
	 width="37.1px" height="47px" viewBox="0 0 37.1 47" style="enable-background:new 0 0 37.1 47;" xml:space="preserve">
<path style="fill-rule:evenodd;clip-rule:evenodd;fill:#797946;" d="M16.35,5.15l0.8-0.45c0.233-0.134,0.517-0.083,0.85,0.15
	L17.4,5.3C17.167,5.5,16.816,5.45,16.35,5.15L16.2,5.2L16,6.55c-0.167,0.767-0.767,1.3-1.8,1.6c0.466,0.467,1,0.833,1.6,1.1
	c0.634,0.167,1.134,0.333,1.5,0.5l0.5,0.3v-0.2l-0.85-1c-0.134-0.133-0.184-0.4-0.15-0.8l0.05-0.5l0.8,0.7
	c0.333,0.333,0.4,0.867,0.2,1.6l0.1,0.3c0.467,0.3,0.75,0.7,0.85,1.2L18.9,11.9c0.166-0.5,0.633-0.933,1.399-1.3
	c-0.934-1.167-1.2-2.233-0.8-3.2c0.167-0.433,0.634-1.333,1.4-2.7c-0.034,0-0.101-0.05-0.2-0.15c-0.533,0-0.884-0.15-1.05-0.45
	L19.35,3.4L19.7,3.45c0.267,0.033,0.434,0.116,0.5,0.25l0.5,0.8l0.25,0.1c0.066-0.1,0.149-0.284,0.25-0.55
	c0.066-0.333,0-0.683-0.2-1.05l-0.3-0.45h0.05L20.9,2.6v0.05L21.1,2.7v0.05c0.634,0.333,0.867,0.883,0.7,1.65
	C21.7,4.9,21.4,5.75,20.9,6.95L21,6.9c0.5-0.5,0.884-0.733,1.15-0.7l0.899,0.15C22.75,6.783,22.45,7,22.15,7L21.05,6.95L20.9,7.1
	c-0.134,0.4-0.15,0.867-0.051,1.4l0.4,1.05c0.3-0.767,0.566-1.25,0.8-1.45c0.434-0.467,1.05-0.733,1.851-0.8
	c0.666-0.033,1.166,0.034,1.5,0.2c-1.167,0.3-1.967,0.816-2.4,1.55l-0.3,0.9l0.8-0.15c1-0.5,1.733-1.183,2.2-2.05
	c0.333-0.533,0.467-1.3,0.399-2.3c-0.533-0.134-0.85-0.267-0.949-0.4L24.8,4.4h0.351c0.233,0.034,0.383,0.117,0.449,0.25l0.5,0.65
	c-0.166-1.733-0.25-2.667-0.25-2.8c0.034-0.9,0.483-1.467,1.351-1.7h-0.05l0.35-0.2c0.467-0.467,0.8-0.667,1-0.6l0.8,0.15
	c-0.267,0.4-0.533,0.583-0.8,0.55l-1-0.05L27.35,0.8L27.7,0.75h0.05c-0.167,0.1-0.333,0.233-0.5,0.4
	c-0.366,0.367-0.566,0.75-0.6,1.15l0.05,0.4c0.133-0.5,0.366-0.8,0.7-0.9l0.949-0.3c-0.1,0.6-0.3,0.95-0.6,1.05l-1,0.45
	c0.467,2.167,0.717,3.383,0.75,3.65c0.1,1-0.366,1.967-1.4,2.9l3.2-0.25c-0.3-0.566-0.467-1.033-0.5-1.4c-0.1-0.6,0.2-1.066,0.9-1.4
	l-0.05-0.05C29.316,6.45,29.1,6.367,29,6.2l-0.25-0.45h0.2c0.166,0.033,0.283,0.083,0.35,0.15l0.351,0.55h0.05
	c0.267-0.167,0.733-0.384,1.399-0.65c0.534-0.2,0.884-0.366,1.051-0.5c0.199-0.167,0.433-0.483,0.699-0.95l-0.1-0.05
	c-0.366-0.033-0.6-0.133-0.7-0.3l-0.2-0.45h0.2c0.167,0.034,0.283,0.1,0.351,0.2l0.35,0.5L32.9,4.3L33.1,3.8l0.051-0.2
	c0.1,0.1,0.116,0.316,0.05,0.65l0.05-0.05c0.4-0.4,0.684-0.583,0.85-0.55l0.7,0.05c-0.233,0.366-0.45,0.55-0.649,0.55H33.3l-0.1,0.1
	c-0.134,0.5-0.283,0.833-0.45,1c-0.366,0.466-0.917,0.883-1.65,1.25c-0.6,0.3-0.949,0.633-1.05,1C29.917,8.066,30.233,8.517,31,8.95
	l0.2-0.05c0.767-0.3,1.566-0.816,2.399-1.55c0.667-0.633,1.067-1.1,1.2-1.4c0.101,0.233,0.017,0.616-0.25,1.15h0.101
	c0.533-0.534,0.966-0.75,1.3-0.65l1,0.25c-0.367,0.466-0.717,0.667-1.05,0.6l-1.2-0.15l-0.2,0.1l0.1,0.1
	c0.567,0,0.934,0.133,1.101,0.4L36.1,8.5c-0.466,0.033-0.767-0.066-0.899-0.3L34.6,7.4L34.45,7.35c-0.566,0.933-1.167,1.6-1.8,2
	c-1.267,0.8-3.101,1.316-5.5,1.55c-2.7,0.267-4.317,0.5-4.851,0.7c-0.233,1.167-0.483,2.15-0.75,2.95h0.05l0.25,0.1
	c0-0.466,0.067-1.033,0.2-1.7c0.267-1.233,1.767-1.7,4.5-1.4c3.4,0.4,5.351,0.5,5.851,0.3c1.066-0.367,1.916-1.167,2.55-2.4
	c0.1,0.267,0.066,0.733-0.101,1.4c0.467-0.467,0.884-0.667,1.25-0.6l1,0.25c-0.366,0.467-0.716,0.684-1.05,0.65l-1.2-0.2
	c-0.233,0.9-0.6,1.517-1.1,1.85l0.05,0.1c0.267,0.034,0.55,0.133,0.851,0.3c0.433,0.233,0.699,0.483,0.8,0.75l0.399,1.3
	c-0.733-0.1-1.183-0.35-1.35-0.75L33.8,13l-0.2-0.1c-1.133,0.6-2.833,0.684-5.1,0.25c-2.2-0.433-3.566-0.466-4.1-0.1l0.149,0.05
	c0.733-0.133,1.217-0.083,1.45,0.15L26.7,14c-0.533,0.2-0.917,0.184-1.15-0.05l-0.95-0.8h-0.35c-0.233,0.233-0.366,0.45-0.4,0.65
	l0.101,0.3c0.066,0.2,0.033,0.367-0.101,0.5c0,0.2,0.051,0.4,0.15,0.6c1.066,0.267,1.9,1.183,2.5,2.75
	c0.267,0.066,0.45,0.333,0.55,0.8c0.033,0.2,0.017,0.434-0.05,0.7l0.15,0.65c0.5,0.1,0.783,0.6,0.85,1.5c0,0.6-0.134,1.066-0.4,1.4
	c-0.033,0.533-0.233,1.05-0.6,1.55l1,1.05h0.25c0.4,0.101,0.667,0.467,0.8,1.101l0.3,0.3h0.15c0.533,0.133,0.8,0.483,0.8,1.05
	L31.1,29c0.434,0.533,0.851,1.45,1.25,2.75l0.051,0.1c0.066,0.101,0.1,0.233,0.1,0.4l0.35,1.3c0.167,0.167,0.284,0.316,0.351,0.45
	c0.2,0.333,0.233,0.667,0.1,1l-0.1,0.2l0.7,4.399c0.399-0.066,0.633,0.084,0.699,0.45c0.367-0.066,0.584,0.05,0.65,0.351
	c0.1,0.267-0.066,0.466-0.5,0.6h-0.4c-0.166,0.233-0.533,0.4-1.1,0.5c-0.533,0.1-0.917,0.1-1.15,0l-0.05,0.05H32l-0.3,0.101
	c-0.4,0.1-0.634,0.033-0.7-0.2h-0.05c-0.367,0.066-0.584-0.05-0.65-0.351c-0.066-0.199,0-0.366,0.2-0.5v-0.05
	c0-0.267,0.15-0.399,0.45-0.399l0.1-0.25c-0.1-1.034-0.35-2.5-0.75-4.4c-0.399-0.233-0.566-0.517-0.5-0.85l0.2-0.4l0.05,0.1
	c-0.399-1.666-0.783-2.8-1.149-3.399l-0.65-0.8v0.05c-0.5,0.133-0.75-0.101-0.75-0.7l-0.6-0.55c-0.467,0.166-0.717-0.033-0.75-0.601
	L24.9,27.4c-0.134-0.034-0.267-0.15-0.4-0.351L24.4,27l1.8,2c0.366,0.366,0.783,1.233,1.25,2.6c0,0.033,0.066,0.134,0.2,0.301
	c0.1,0.199,0.116,0.416,0.05,0.649l0.7,2.95c0.3,0.3,0.383,0.65,0.25,1.05L28.6,36.6l0.351,2.15v0.05l0.2,0.15l0.3-0.15
	c0.233-0.033,0.383,0.083,0.45,0.351c0,0.3-0.134,0.449-0.4,0.449h-0.05c0,0.233-0.15,0.351-0.45,0.351l-0.25-0.05H28.7
	c-0.167,0.133-0.417,0.216-0.75,0.25l0.1,0.85c0.167,0,0.283,0.033,0.351,0.1l0.199,0.2c0.334-0.066,0.5,0,0.5,0.2
	c0.067,0.133-0.1,0.233-0.5,0.3c-0.133,0.033-0.25,0.033-0.35,0c-0.134,0.134-0.467,0.233-1,0.3c-0.434,0.101-0.767,0.117-1,0.051
	H26.2l-0.3,0.1c-0.334,0.066-0.534,0.033-0.601-0.1V42.1h-0.05c-0.267,0.067-0.434,0.017-0.5-0.149c0-0.167,0.134-0.283,0.4-0.351
	h0.05l-0.05-0.05c-0.067-0.133,0.033-0.233,0.3-0.3l0.25,0.05L25.6,41.15V41.1L25.55,40.9c-0.1-1.467-0.366-3.167-0.8-5.101
	l-0.1-0.1c-0.185-0.276-0.284-0.51-0.301-0.7l0.051,1.1c0.1,0.101,0.166,0.25,0.199,0.45c0.101,0.3,0.067,0.634-0.1,1l-0.05,0.101
	l0.05,4.05c0.3,0.467,0.333,0.95,0.1,1.45L24.5,43.3l0.1,1.95l0.051,0.15l0.25-0.051c0.3-0.066,0.483,0.084,0.55,0.45
	c0,0.333-0.167,0.5-0.5,0.5H24.85v0.05c0,0.233-0.199,0.351-0.6,0.351c-0.066,0.033-0.184,0.017-0.35-0.05L23.8,46.7
	c-0.133,0.133-0.5,0.233-1.1,0.3c-0.601,0-0.983-0.066-1.15-0.2L21.15,46.9c-0.4,0.066-0.634-0.084-0.7-0.45
	c0-0.167,0.1-0.3,0.3-0.4L20.7,45.9c0-0.268,0.149-0.4,0.45-0.4c0-0.233,0.1-0.4,0.3-0.5v-1.9c-0.2-0.366-0.184-0.733,0.05-1.1
	l0.05-1.2H21.4c-0.434,0-0.733-0.05-0.9-0.149l-0.3,0.1c-0.334,0-0.5-0.134-0.5-0.4c0-0.199,0.133-0.333,0.399-0.399
	c0-0.3,0.134-0.483,0.4-0.55L20.45,39.1L20.35,36.95c-0.133-0.2-0.183-0.384-0.149-0.55l0.1-0.25l-0.1-1
	c-0.233-0.334-0.25-0.601-0.05-0.801L19.85,31.7l-1-1.55c-0.233,0.232-0.6,0.85-1.1,1.85c-0.267,0.5-0.4,1.35-0.4,2.55
	c0.233,0.2,0.233,0.417,0,0.65l0.05,1.1c0.333,0.167,0.367,0.434,0.1,0.8l0.15,2.101l0.25,0.1c0.067-0.1,0.183-0.149,0.35-0.149
	c0.1-0.034,0.2,0,0.3,0.1c0.101,0.066,0.15,0.167,0.15,0.3c0,0.233-0.134,0.384-0.4,0.45l-0.1-0.05V40c0,0.233-0.167,0.35-0.5,0.35
	l-0.3-0.05h-0.05c-0.133,0.134-0.45,0.233-0.95,0.3c-0.433,0-0.733-0.05-0.9-0.149c-0.066,0.233-0.2,0.35-0.4,0.35H15v0.05
	c0.066,0.2-0.1,0.301-0.5,0.301L14.2,41.1h-0.05c-0.133,0.134-0.45,0.233-0.95,0.301c-0.434,0-0.733-0.051-0.9-0.15l0.2,2
	c0.167,0.066,0.267,0.15,0.3,0.25c0.367,0,0.583,0.15,0.65,0.45c0.033,0.233-0.217,0.35-0.75,0.35h-0.05v0.05
	c0,0.167-0.167,0.283-0.5,0.351l-0.3-0.05h-0.1c-0.1,0.166-0.417,0.25-0.95,0.25c-0.4,0.066-0.716,0.017-0.95-0.15l-0.35,0.1
	c-0.467,0-0.7-0.183-0.7-0.55c0.067-0.167,0.15-0.283,0.25-0.35c-0.066-0.2,0.05-0.3,0.35-0.3L9.6,43.3l-0.15-1.55
	c0,0.1-0.184,0.184-0.55,0.25l-0.3-0.05H8.5c-0.2,0.133-0.533,0.2-1,0.2c-0.434,0.033-0.767,0.017-1-0.051L6.15,42.15
	c-0.4,0.066-0.6,0-0.6-0.2c0-0.134,0.167-0.233,0.5-0.3c0-0.067,0.05-0.134,0.15-0.2c0-0.101,0.116-0.15,0.35-0.15v-0.05
	c0-2.134,0.083-3.95,0.25-5.45c-0.1-0.2-0.116-0.399-0.05-0.6l0.15-0.3c0.167-1.434,0.434-2.483,0.8-3.15
	c-0.067-0.1-0.067-0.267,0-0.5c0.1-0.3,0.283-0.5,0.55-0.6h0.1L9.8,28.3c0-0.133,0.017-0.283,0.05-0.45c0.1-0.3,0.3-0.517,0.6-0.649
	h0.05l0.6-0.9c0-0.434,0.033-0.733,0.1-0.899c-0.167-0.5-0.25-1-0.25-1.5c-0.167-0.267-0.25-0.583-0.25-0.95
	c-0.034-0.534,0.1-0.934,0.4-1.2c0.233-2.267,0.8-3.883,1.7-4.85c-0.066-0.167-0.05-0.367,0.05-0.6l0.1-0.15l-0.1-0.1
	c-0.434-0.4-0.95-1.033-1.55-1.9L9.05,14.6c0.534,0.267,0.8,0.55,0.8,0.85l0.05,0.8c-0.433-0.167-0.667-0.367-0.7-0.6l-0.15-1h-0.2
	L8.8,14.9c0.367,0.7,0.417,1.233,0.15,1.6l-0.6,0.95c-0.067-0.134-0.133-0.284-0.2-0.45c-0.1-0.333-0.1-0.6,0-0.8l0.6-1.25L8.7,14.7
	c-1.434,0.2-2.583,0.133-3.45-0.2c-0.3-0.1-0.633-0.283-1-0.55c-0.167,0.5-0.417,0.75-0.75,0.75l-0.75,0.05l0.15-0.3
	c0.167-0.2,0.317-0.317,0.45-0.35l0.85-0.2l-0.25-0.2c-0.534,0.4-0.967,0.533-1.3,0.4L1.8,13.7l0.35-0.25
	c0.267-0.167,0.5-0.233,0.7-0.2l1,0.35C3.117,12.867,2.8,12.333,2.9,12l0.15,0.15c0.867,0.867,1.9,1.4,3.1,1.6
	C6.717,13.85,8.2,13.6,10.6,13c-0.434-0.633-0.75-1.033-0.95-1.2c-0.433-0.3-1-0.433-1.7-0.4L7,11.55l1.2-0.7
	c0.933-0.333,1.767-0.233,2.5,0.3c0.167,0.133,0.683,0.633,1.55,1.5c2.434-0.433,3.85-0.133,4.25,0.9L16.7,14
	c0.2-1.4-0.017-2.35-0.65-2.85c-0.667-0.5-2.366-0.816-5.1-0.95C8.117,10,6.017,9.517,4.65,8.75L4.2,8.4L3.55,7.8l-0.75-1L2.55,6.3
	L2.4,6.35C2.367,6.483,2.267,6.633,2.1,6.8C1.9,7,1.717,7.1,1.55,7.1L0.8,7.05L1,6.75C1.2,6.517,1.367,6.4,1.5,6.4l0.9-0.05l0.1-0.1
	l-0.1-0.2l-0.25-0.1C1.417,6.117,0.95,6.1,0.75,5.9L0,5.15L0.45,5c0.333-0.066,0.566-0.033,0.7,0.1l1,0.8h0.2V5.85L2.3,5.65V5.5
	L2.25,5.4H2.3V5.25c0.134,0.333,0.567,0.8,1.3,1.4C4.434,7.383,5.25,7.9,6.05,8.2C6.45,8.367,7,8.467,7.7,8.5
	C6.833,7.733,6.383,6.767,6.35,5.6c0-0.467,0.05-0.85,0.15-1.15l-0.1-0.1c-0.6,0.167-1,0.083-1.2-0.25L4.7,3.4l0.4-0.05
	c0.267,0,0.45,0.066,0.55,0.2L6.4,4.3h0.15c0.167-0.4,0.267-0.716,0.3-0.95c0.133-0.367,0.183-0.7,0.15-1
	c-0.033-0.333-0.2-0.633-0.5-0.9L6.1,1.1l0.7,0.15c0.5,0.2,0.784,0.6,0.85,1.2v0.1l0.1-0.05C8.117,2.133,8.367,1.95,8.5,1.95
	l0.65,0.1c-0.2,0.333-0.4,0.5-0.6,0.5h-0.8l-0.1,0.1v0.4l0.1,0.05c0.333-0.167,0.566-0.217,0.7-0.15l0.4,0.3
	c-0.233,0.167-0.417,0.2-0.55,0.1L7.8,3.1L7.65,3.15C7.617,3.517,7.533,4.083,7.4,4.85C7.333,5.517,7.434,6.066,7.7,6.5
	C8.066,7.2,8.833,7.917,10,8.65l2.55,0.15c-0.333-0.7-0.566-2-0.7-3.9c-0.034,0-0.1-0.05-0.2-0.15c-0.433,0-0.716-0.133-0.85-0.4
	L10.5,3.7l0.3,0.05C11,3.783,11.133,3.867,11.2,4l0.45,0.7l0.2,0.1c-0.133-1.6-0.233-2.517-0.3-2.75
	c-0.233-0.733-0.767-1.267-1.6-1.6c0.267-0.134,0.633-0.167,1.1-0.1c0.6,0.1,1.034,0.383,1.3,0.85c0.167,0.333,0.383,1.233,0.65,2.7
	c0.267,1.633,0.483,2.717,0.65,3.25c0.333,0,0.7-0.183,1.1-0.55c0.267-0.267,0.45-0.55,0.55-0.85L15.25,5.6L14.4,5.3
	c-0.133-0.033-0.25-0.167-0.35-0.4L13.9,4.55l0.7,0.15c0.3,0.033,0.517,0.333,0.65,0.9l0.1,0.05c0.2-0.966,0.383-1.633,0.55-2
	c0.133-0.367,0.367-0.583,0.7-0.65l0.1-0.05h0.35L17.15,3h0.15l0.05,0.05c-0.1,0.034-0.233,0.083-0.4,0.15
	c-0.267,0.133-0.45,0.316-0.55,0.55c-0.033,0.066-0.083,0.45-0.15,1.15l0.3-0.55c0.067-0.1,0.184-0.167,0.35-0.2
	c0.067-0.033,0.133-0.05,0.2-0.05l-0.2,0.5c-0.1,0.233-0.316,0.35-0.65,0.35V5.1L16.35,5.15z M9.05,41h0.1l0.25,0.05L9.25,39.3
	l-0.1-0.149L9.1,39.05c-0.067,0.8-0.067,1.384,0,1.75L9.05,41z M15.35,34.85V34.65c-0.1-0.467-0.284-0.45-0.55,0.05
	c-0.233,0.5-0.383,1.017-0.45,1.55c-0.067,0.533-0.117,1.783-0.15,3.75l0.3,0.05c0.066-0.233,0.217-0.35,0.45-0.35
	c0-0.4,0.183-0.601,0.55-0.601h0.2L15.6,37.4c-0.2-0.2-0.217-0.45-0.05-0.75l-0.1-1.051C15.25,35.4,15.217,35.15,15.35,34.85z
	 M12.8,34.7c0.167-0.634,0.95-2.317,2.35-5.05c-0.3,0.333-0.883,1.1-1.75,2.3c0.133,0.6-0.033,0.883-0.5,0.85l-0.5,0.9
	c-0.267,0.733-0.367,2.2-0.3,4.399c0.233,0.267,0.25,0.551,0.05,0.851l0.05,1l0.1-0.05l0.1,0.05
	C12.3,37.816,12.434,36.066,12.8,34.7z"/>
</svg>
