<?xml version="1.0" encoding="iso-8859-1"?>
<!-- Generator: Adobe Illustrator 15.1.0, SVG Export Plug-In . SVG Version: 6.00 Build 0)  -->
<!DOCTYPE svg PUBLIC "-//W3C//DTD SVG 1.1//EN" "http://www.w3.org/Graphics/SVG/1.1/DTD/svg11.dtd">
<svg version="1.1" id="backhill3_blue" xmlns="http://www.w3.org/2000/svg" xmlns:xlink="http://www.w3.org/1999/xlink" x="0px"
	 y="0px" width="310.15px" height="214.75px" viewBox="0 0 310.15 214.75" style="enable-background:new 0 0 310.15 214.75;"
	 xml:space="preserve">
<symbol  id="FlashAICB_x2F_backhill3_blue_x2F__x3C_Clip_Group_0_x3E_" viewBox="0 -211.517 310.149 211.519">
	<g id="Layer_1_44_">
	</g>
	<g>
		<defs>
			<path id="SVGID_1_" d="M262.55-78.1c-11.566,20.667-20.933,36.117-28.1,46.35c-7.5,10.733-14.417,18.4-20.75,23
				c-5.767,4.2-12.483,6.817-20.15,7.85c-3.867,0.533-12.617,0.833-26.25,0.9c-12.7,0.033-21.783-0.367-27.25-1.2
				c-8.367-1.3-15.583-4.15-21.65-8.55c-6.767-4.867-13.367-12.5-19.8-22.9c-6.567-10.6-13.817-25.4-21.75-44.4
				c-8.2-19.633-13.717-35.417-16.55-47.35c-3.933-16.4-4.283-30.133-1.05-41.2c3.767-12.867,12.55-22.967,26.35-30.3
				c15.267-8.1,37.083-13.017,65.45-14.75c72.934-4.467,116.317,8.316,130.15,38.35C291.467-150,285.25-118.6,262.55-78.1z"/>
		</defs>
		<clipPath id="SVGID_2_">
			<use xlink:href="#SVGID_1_"  style="overflow:visible;"/>
		</clipPath>
		<g id="Layer_3_1_" style="clip-path:url(#SVGID_2_);">
			<g>
				
					<use xlink:href="#FlashAICB_x2F_backhill3_blue_x2F__x3C_Path_x3E__x5F_36"  width="109.5" height="6.388" y="-6.388" transform="matrix(1 0 0 1 83.8999 -46.7998)" style="overflow:visible;opacity:0.3008;enable-background:new    ;"/>
				
					<use xlink:href="#FlashAICB_x2F_backhill3_blue_x2F__x3C_Path_x3E__x5F_35"  width="112.25" height="6.91" y="-6.91" transform="matrix(1 0 0 1 159.2002 -51.1499)" style="overflow:visible;opacity:0.3008;enable-background:new    ;"/>
				
					<use xlink:href="#FlashAICB_x2F_backhill3_blue_x2F__x3C_Path_x3E__x5F_34"  width="107.8" height="6.464" y="-6.464" transform="matrix(1 0 0 1 137.1001 -38.9502)" style="overflow:visible;opacity:0.1016;enable-background:new    ;"/>
				
					<use xlink:href="#FlashAICB_x2F_backhill3_blue_x2F__x3C_Path_x3E__x5F_33"  width="102.95" height="8.301" y="-8.301" transform="matrix(1 0 0 1 75 -30.6499)" style="overflow:visible;opacity:0.1992;enable-background:new    ;"/>
				
					<use xlink:href="#FlashAICB_x2F_backhill3_blue_x2F__x3C_Path_x3E__x5F_32"  width="57.6" height="5.207" y="-5.207" transform="matrix(1 0 0 1 193.0996 -44.75)" style="overflow:visible;opacity:0.3008;enable-background:new    ;"/>
				
					<use xlink:href="#FlashAICB_x2F_backhill3_blue_x2F__x3C_Path_x3E__x5F_31"  width="77.35" height="7.65" y="-7.65" transform="matrix(1 0 0 1 97.75 -16.5)" style="overflow:visible;opacity:0.3008;enable-background:new    ;"/>
				
					<use xlink:href="#FlashAICB_x2F_backhill3_blue_x2F__x3C_Path_x3E__x5F_30"  width="55" height="6.4" y="-6.4" transform="matrix(1 0 0 1 78.5 -40.1001)" style="overflow:visible;opacity:0.3008;enable-background:new    ;"/>
				
					<use xlink:href="#FlashAICB_x2F_backhill3_blue_x2F__x3C_Path_x3E__x5F_29"  width="52.45" height="4.99" y="-4.99" transform="matrix(1 0 0 1 175.5996 -17.75)" style="overflow:visible;opacity:0.3008;enable-background:new    ;"/>
				
					<use xlink:href="#FlashAICB_x2F_backhill3_blue_x2F__x3C_Path_x3E__x5F_28"  width="88.55" height="4.414" y="-4.414" transform="matrix(1 0 0 1 132 -14.75)" style="overflow:visible;opacity:0.3008;enable-background:new    ;"/>
				
					<use xlink:href="#FlashAICB_x2F_backhill3_blue_x2F__x3C_Path_x3E__x5F_27"  width="48.95" height="2.64" y="-2.64" transform="matrix(1 0 0 1 118.2002 -8.75)" style="overflow:visible;opacity:0.1016;enable-background:new    ;"/>
				
					<use xlink:href="#FlashAICB_x2F_backhill3_blue_x2F__x3C_Path_x3E__x5F_26"  width="49.15" height="4.5" y="-4.5" transform="matrix(1 0 0 1 169.4502 -8.1001)" style="overflow:visible;opacity:0.3008;enable-background:new    ;"/>
				
					<use xlink:href="#FlashAICB_x2F_backhill3_blue_x2F__x3C_Path_x3E__x5F_25"  width="62.45" height="2.629" y="-2.629" transform="matrix(1 0 0 1 140 -3.75)" style="overflow:visible;opacity:0.3008;enable-background:new    ;"/>
				
					<use xlink:href="#FlashAICB_x2F_backhill3_blue_x2F__x3C_Path_x3E__x5F_24"  width="89.15" height="7.151" y="-7.151" transform="matrix(1 0 0 1 69.75 -55.6001)" style="overflow:visible;opacity:0.1992;enable-background:new    ;"/>
				
					<use xlink:href="#FlashAICB_x2F_backhill3_blue_x2F__x3C_Path_x3E__x5F_23"  width="120.1" height="6.912" y="-6.912" transform="matrix(1 0 0 1 97.9502 -74.6499)" style="overflow:visible;opacity:0.3008;enable-background:new    ;"/>
				
					<use xlink:href="#FlashAICB_x2F_backhill3_blue_x2F__x3C_Path_x3E__x5F_22"  width="121.7" height="9.112" y="-9.112" transform="matrix(1 0 0 1 161.0498 -77.25)" style="overflow:visible;opacity:0.1992;enable-background:new    ;"/>
				
					<use xlink:href="#FlashAICB_x2F_backhill3_blue_x2F__x3C_Path_x3E__x5F_21"  width="104.15" height="8.508" y="-8.508" transform="matrix(1 0 0 1 185.7998 -29.6499)" style="overflow:visible;opacity:0.3008;enable-background:new    ;"/>
				
					<use xlink:href="#FlashAICB_x2F_backhill3_blue_x2F__x3C_Path_x3E__x5F_20"  width="103.05" height="3.5" y="-3.5" transform="matrix(1 0 0 1 134.5 -27)" style="overflow:visible;opacity:0.1992;enable-background:new    ;"/>
				
					<use xlink:href="#FlashAICB_x2F_backhill3_blue_x2F__x3C_Path_x3E__x5F_19"  width="116.7" height="8.419" y="-8.419" transform="matrix(1 0 0 1 136.75 -63.1499)" style="overflow:visible;opacity:0.3008;enable-background:new    ;"/>
				
					<use xlink:href="#FlashAICB_x2F_backhill3_blue_x2F__x3C_Path_x3E__x5F_18"  width="59.05" height="7.1" y="-7.1" transform="matrix(1 0 0 1 55 -63.5)" style="overflow:visible;opacity:0.3008;enable-background:new    ;"/>
				
					<use xlink:href="#FlashAICB_x2F_backhill3_blue_x2F__x3C_Path_x3E__x5F_17"  width="62" height="7.8" y="-7.8" transform="matrix(1 0 0 1 66.3501 -77.6499)" style="overflow:visible;opacity:0.1992;enable-background:new    ;"/>
				
					<use xlink:href="#FlashAICB_x2F_backhill3_blue_x2F__x3C_Path_x3E__x5F_16"  width="129.4" height="11.8" y="-11.8" transform="matrix(1 0 0 1 157.75 -98.9502)" style="overflow:visible;opacity:0.3008;enable-background:new    ;"/>
				
					<use xlink:href="#FlashAICB_x2F_backhill3_blue_x2F__x3C_Path_x3E__x5F_15"  width="129" height="6.156" y="-6.156" transform="matrix(1 0 0 1 51.0498 -99.8501)" style="overflow:visible;opacity:0.3008;enable-background:new    ;"/>
				
					<use xlink:href="#FlashAICB_x2F_backhill3_blue_x2F__x3C_Path_x3E__x5F_14"  width="126.5" height="5.853" y="-5.853" transform="matrix(1 0 0 1 82.75 -93.25)" style="overflow:visible;opacity:0.3008;enable-background:new    ;"/>
				
					<use xlink:href="#FlashAICB_x2F_backhill3_blue_x2F__x3C_Path_x3E__x5F_13"  width="64.6" height="10.226" y="-10.226" transform="matrix(1 0 0 1 199.4004 -86.5)" style="overflow:visible;opacity:0.1992;enable-background:new    ;"/>
				
					<use xlink:href="#FlashAICB_x2F_backhill3_blue_x2F__x3C_Path_x3E__x5F_12"  width="67.55" height="11.285" y="-11.285" transform="matrix(1 0 0 1 223.3496 -104.7002)" style="overflow:visible;opacity:0.1992;enable-background:new    ;"/>
				
					<use xlink:href="#FlashAICB_x2F_backhill3_blue_x2F__x3C_Path_x3E__x5F_11"  width="141.5" height="14" y="-14" transform="matrix(1 0 0 1 141.8999 -131.4004)" style="overflow:visible;opacity:0.1016;enable-background:new    ;"/>
				
					<use xlink:href="#FlashAICB_x2F_backhill3_blue_x2F__x3C_Path_x3E__x5F_10"  width="136" height="6.956" y="-6.956" transform="matrix(1 0 0 1 62.8999 -121)" style="overflow:visible;opacity:0.1992;enable-background:new    ;"/>
				
					<use xlink:href="#FlashAICB_x2F_backhill3_blue_x2F__x3C_Path_x3E__x5F_9"  width="131.85" height="6.506" y="-6.506" transform="matrix(1 0 0 1 15.4502 -110.1504)" style="overflow:visible;opacity:0.3008;enable-background:new    ;"/>
				
					<use xlink:href="#FlashAICB_x2F_backhill3_blue_x2F__x3C_Path_x3E__x5F_8"  width="137.25" height="15.027" y="-15.027" transform="matrix(1 0 0 1 22.25 -128.6504)" style="overflow:visible;opacity:0.1992;enable-background:new    ;"/>
				
					<use xlink:href="#FlashAICB_x2F_backhill3_blue_x2F__x3C_Path_x3E__x5F_7"  width="70.65" height="12.172" y="-12.172" transform="matrix(1 0 0 1 203.6504 -119.0996)" style="overflow:visible;opacity:0.3008;enable-background:new    ;"/>
				
					<use xlink:href="#FlashAICB_x2F_backhill3_blue_x2F__x3C_Path_x3E__x5F_6"  width="73.3" height="13.33" y="-13.33" transform="matrix(1 0 0 1 236.8496 -137.1504)" style="overflow:visible;opacity:0.1992;enable-background:new    ;"/>
				
					<use xlink:href="#FlashAICB_x2F_backhill3_blue_x2F__x3C_Path_x3E__x5F_5"  width="155.6" height="11.511" y="-11.511" transform="matrix(1 0 0 1 144.7998 -170.4502)" style="overflow:visible;opacity:0.3008;enable-background:new    ;"/>
				
					<use xlink:href="#FlashAICB_x2F_backhill3_blue_x2F__x3C_Path_x3E__x5F_4"  width="141.4" height="20.125" y="-20.125" transform="matrix(1 0 0 1 33.7998 -139.6504)" style="overflow:visible;opacity:0.3008;enable-background:new    ;"/>
				
					<use xlink:href="#FlashAICB_x2F_backhill3_blue_x2F__x3C_Path_x3E__x5F_3"  width="144.1" height="21.525" y="-21.525" transform="matrix(1 0 0 1 0 -152.25)" style="overflow:visible;opacity:0.1992;enable-background:new    ;"/>
				
					<use xlink:href="#FlashAICB_x2F_backhill3_blue_x2F__x3C_Path_x3E__x5F_2"  width="158.9" height="11.553" y="-11.553" transform="matrix(1 0 0 1 83.8999 -180.2998)" style="overflow:visible;opacity:0.1016;enable-background:new    ;"/>
				
					<use xlink:href="#FlashAICB_x2F_backhill3_blue_x2F__x3C_Path_x3E__x5F_1_x5F_0"  width="77.95" height="11.95" y="-11.95" transform="matrix(1 0 0 1 212.3496 -155.2998)" style="overflow:visible;opacity:0.3008;enable-background:new    ;"/>
				
					<use xlink:href="#FlashAICB_x2F_backhill3_blue_x2F__x3C_Path_x3E__x5F_0"  width="85.05" height="14.052" y="-14.052" transform="matrix(1 0 0 1 190.8496 -191.2998)" style="overflow:visible;opacity:0.3008;enable-background:new    ;"/>
			</g>
			
				<use xlink:href="#FlashAICB_x2F_backhill3_blue_x2F__x3C_Path_x3E__x5F_1_x5F_1"  width="80.965" height="200.05" x="0.035" y="-200.05" transform="matrix(1 0 0 1 53.3501 -1.3501)" style="overflow:visible;opacity:0.25;enable-background:new    ;"/>
			
				<use xlink:href="#FlashAICB_x2F_backhill3_blue_x2F__x3C_Path_x3E__x5F_37"  width="88.377" height="204.4" y="-204.4" transform="matrix(1 0 0 1 200.25 -3.3999)" style="overflow:visible;opacity:0.25;enable-background:new    ;"/>
		</g>
	</g>
	<g id="Layer_4_1_">
	</g>
</symbol>
<symbol  id="FlashAICB_x2F_backhill3_blue_x2F__x3C_Path_x3E_" viewBox="0.012 -211.517 228.934 211.519">
	<g id="Layer_1_3_">
		
			<linearGradient id="SVGID_3_" gradientUnits="userSpaceOnUse" x1="15917.3984" y1="-161.4414" x2="16128.9307" y2="-161.4414" gradientTransform="matrix(4.728691e-006 1 -1 -0.001 -47.0381 -16129.084)">
			<stop  offset="0" style="stop-color:#B1B3B1"/>
			<stop  offset="0.0588" style="stop-color:#C2C4C2"/>
			<stop  offset="0.1843" style="stop-color:#E3E4E3"/>
			<stop  offset="0.2902" style="stop-color:#F8F8F8"/>
			<stop  offset="0.3608" style="stop-color:#FFFFFF"/>
			<stop  offset="0.6431" style="stop-color:#D8DDDB"/>
			<stop  offset="1" style="stop-color:#A1ACA9"/>
		</linearGradient>
		<path style="fill-rule:evenodd;clip-rule:evenodd;fill:url(#SVGID_3_);" d="M205.5-78.1c22.7-40.5,28.917-71.9,18.65-94.2
			c-13.833-30.034-57.217-42.817-130.15-38.35c-28.367,1.733-50.183,6.65-65.45,14.75c-13.8,7.333-22.583,17.433-26.35,30.3
			c-3.233,11.067-2.883,24.8,1.05,41.2c2.833,11.933,8.35,27.717,16.55,47.35c7.934,19,15.184,33.8,21.75,44.4
			c6.434,10.4,13.034,18.033,19.8,22.9C67.417-5.35,74.633-2.5,83-1.2c5.467,0.833,14.55,1.233,27.25,1.2
			c13.633-0.067,22.383-0.367,26.25-0.9c7.667-1.033,14.383-3.65,20.15-7.85c6.333-4.6,13.25-12.267,20.75-23
			C184.567-41.983,193.933-57.433,205.5-78.1z"/>
	</g>
</symbol>
<symbol  id="FlashAICB_x2F_backhill3_blue_x2F__x3C_Path_x3E__x5F_0" viewBox="0 -14.052 85.05 14.052">
	<g id="Layer_1_40_">
		<path style="fill-rule:evenodd;clip-rule:evenodd;fill:#A1B5AA;" d="M85.05,0c-0.267-0.833-1.066-1.75-2.4-2.75
			c-2.7-1.967-6.7-3.367-12-4.2C69.75-7.083,64.867-7.933,56-9.5c-7.3-1.3-11.983-2.017-14.05-2.15c-1.167-0.1-3.934-0.55-8.3-1.35
			c-3.7-0.733-6.917-1.083-9.65-1.05c-4.767,0.033-12.767,1.117-24,3.25c3.6-0.4,7.3-0.633,11.1-0.7c7.566-0.2,11.8,0.417,12.7,1.85
			c0.833,1.3,3.867,2.017,9.1,2.15C42.2-7.267,48.133-7,50.7-6.7c5.767,0.633,13.216,1.934,22.35,3.9
			C77.617-1.8,81.617-0.867,85.05,0z"/>
	</g>
</symbol>
<symbol  id="FlashAICB_x2F_backhill3_blue_x2F__x3C_Path_x3E__x5F_1" viewBox="0.012 -211.517 228.934 211.519">
	<g id="Layer_1_2_">
		<linearGradient id="SVGID_4_" gradientUnits="userSpaceOnUse" x1="0.0122" y1="-105.7578" x2="228.9461" y2="-105.7578">
			<stop  offset="0" style="stop-color:#B1B3B1"/>
			<stop  offset="0.0784" style="stop-color:#C2C4C2"/>
			<stop  offset="0.2471" style="stop-color:#E3E4E3"/>
			<stop  offset="0.3882" style="stop-color:#F8F8F8"/>
			<stop  offset="0.4863" style="stop-color:#FFFFFF"/>
			<stop  offset="0.7098" style="stop-color:#D8DDDB"/>
			<stop  offset="1" style="stop-color:#A1ACA9"/>
		</linearGradient>
		<path style="fill-rule:evenodd;clip-rule:evenodd;fill:url(#SVGID_4_);" d="M205.5-78.1c22.7-40.5,28.917-71.9,18.65-94.2
			c-13.833-30.034-57.217-42.817-130.15-38.35c-28.367,1.733-50.183,6.65-65.45,14.75c-13.8,7.333-22.583,17.433-26.35,30.3
			c-3.233,11.067-2.883,24.8,1.05,41.2c2.833,11.933,8.35,27.717,16.55,47.35c7.934,19,15.184,33.8,21.75,44.4
			c6.434,10.4,13.034,18.033,19.8,22.9C67.417-5.35,74.633-2.5,83-1.2c5.467,0.833,14.55,1.233,27.25,1.2
			c13.633-0.067,22.383-0.367,26.25-0.9c7.667-1.033,14.383-3.65,20.15-7.85c6.333-4.6,13.25-12.267,20.75-23
			C184.567-41.983,193.933-57.433,205.5-78.1z"/>
	</g>
</symbol>
<symbol  id="FlashAICB_x2F_backhill3_blue_x2F__x3C_Path_x3E__x5F_10" viewBox="0 -6.956 136 6.956">
	<g id="Layer_1_30_">
		<path style="fill-rule:evenodd;clip-rule:evenodd;fill:#A1B5AA;" d="M136-2.7c-0.867-0.7-2.617-1.383-5.25-2.05
			c-5.267-1.367-12.3-2.033-21.1-2c-1.066,0-9.117-0.05-24.15-0.15C73.533-7,65.917-6.967,62.65-6.8c-1.9,0.1-6.333,0.117-13.3,0.05
			c-6-0.1-11.05,0.067-15.15,0.5C27-5.55,15.6-3.467,0,0c5.2-0.867,10.6-1.6,16.2-2.2c11.2-1.267,17.85-1.333,19.95-0.2
			c1.934,1.066,6.9,1.283,14.9,0.65c14.9-1.167,24.133-1.8,27.7-1.9C93.517-4.083,112.6-3.767,136-2.7z"/>
	</g>
</symbol>
<symbol  id="FlashAICB_x2F_backhill3_blue_x2F__x3C_Path_x3E__x5F_11" viewBox="0 -14 141.5 14">
	<g id="Layer_1_29_">
		<path style="fill-rule:evenodd;clip-rule:evenodd;fill:#A1B5AA;" d="M141.5,0c-0.567-0.8-2.033-1.7-4.4-2.7
			c-4.7-1.933-11.483-3.316-20.35-4.15c-0.567-0.066-8.75-0.933-24.55-2.6c-12.2-1.3-20.034-2.017-23.5-2.15
			c-2-0.1-6.6-0.55-13.8-1.35C48.667-13.65,43.3-14,38.8-14C30.933-13.967,18-12.917,0-10.85c5.833-0.367,11.85-0.6,18.05-0.7
			c12.4-0.167,19.467,0.466,21.2,1.9c1.6,1.3,6.7,2.017,15.3,2.15c15.5,0.3,25.3,0.583,29.4,0.85C99.25-5.65,118.433-3.433,141.5,0z
			"/>
	</g>
</symbol>
<symbol  id="FlashAICB_x2F_backhill3_blue_x2F__x3C_Path_x3E__x5F_12" viewBox="0 -11.285 67.55 11.285">
	<g id="Layer_1_28_">
		<path style="fill-rule:evenodd;clip-rule:evenodd;fill:#A1B5AA;" d="M67.55,0c-0.167-0.567-0.767-1.183-1.8-1.85
			c-2-1.4-5.1-2.45-9.3-3.15C44.15-7.433,36.6-8.8,33.8-9.1c-0.9-0.1-3.066-0.483-6.5-1.15c-2.933-0.6-5.5-0.933-7.7-1
			C15.767-11.417,9.233-10.983,0-9.95c2.933-0.133,5.933-0.167,9-0.1c6.133,0.133,9.5,0.683,10.1,1.65
			c0.6,0.9,2.983,1.483,7.15,1.75c7.633,0.5,12.383,0.867,14.25,1.1C47.8-4.583,56.817-2.733,67.55,0z"/>
	</g>
</symbol>
<symbol  id="FlashAICB_x2F_backhill3_blue_x2F__x3C_Path_x3E__x5F_13" viewBox="0 -10.226 64.6 10.226">
	<g id="Layer_1_27_">
		<path style="fill-rule:evenodd;clip-rule:evenodd;fill:#A1B5AA;" d="M64.6,0c-0.2-0.5-0.8-1.067-1.8-1.7
			c-2.033-1.267-5.05-2.216-9.05-2.85C41.917-6.75,34.667-7.983,32-8.25c-1-0.1-3.083-0.45-6.25-1.05
			c-2.833-0.534-5.267-0.833-7.3-0.9C14.817-10.333,8.667-9.95,0-9.05c2.767-0.133,5.6-0.167,8.5-0.1
			c5.8,0.133,9.017,0.633,9.65,1.5c0.6,0.833,2.883,1.367,6.85,1.6c7.433,0.466,11.967,0.8,13.6,1C45.533-4.15,54.2-2.467,64.6,0z"
			/>
	</g>
</symbol>
<symbol  id="FlashAICB_x2F_backhill3_blue_x2F__x3C_Path_x3E__x5F_14" viewBox="0 -5.853 126.5 5.853">
	<g id="Layer_1_26_">
		<path style="fill-rule:evenodd;clip-rule:evenodd;fill:#A1B5AA;" d="M126.5-2.1c-0.733-0.6-2.283-1.183-4.65-1.75
			c-4.767-1.2-11.233-1.783-19.4-1.75C78.583-5.9,64.067-5.933,58.9-5.7c-1.9,0.1-6,0.1-12.3,0C41-5.767,36.283-5.633,32.45-5.3
			C25.717-4.7,14.9-2.933,0,0c4.9-0.733,10-1.35,15.3-1.85c10.534-1.033,16.717-1.066,18.55-0.1c1.7,0.867,6.283,1.034,13.75,0.5
			C61.267-2.383,69.9-2.9,73.5-3C87.233-3.333,104.9-3.033,126.5-2.1z"/>
	</g>
</symbol>
<symbol  id="FlashAICB_x2F_backhill3_blue_x2F__x3C_Path_x3E__x5F_15" viewBox="0 -6.156 129 6.156">
	<g id="Layer_1_25_">
		<path style="fill-rule:evenodd;clip-rule:evenodd;fill:#A1B5AA;" d="M129-2.25c-0.8-0.633-2.433-1.25-4.9-1.85
			c-4.934-1.267-11.583-1.883-19.95-1.85c-1,0-8.617-0.05-22.85-0.15C70-6.2,62.783-6.167,59.65-6c-1.833,0.1-6.017,0.1-12.55,0
			c-5.7-0.067-10.5,0.083-14.4,0.45C25.867-4.917,14.967-3.067,0,0c4.967-0.767,10.117-1.417,15.45-1.95
			C26.117-3.05,32.433-3.1,34.4-2.1c1.767,0.934,6.45,1.133,14.05,0.6c13.867-1,22.65-1.55,26.35-1.65
			C88.8-3.55,106.867-3.25,129-2.25z"/>
	</g>
</symbol>
<symbol  id="FlashAICB_x2F_backhill3_blue_x2F__x3C_Path_x3E__x5F_16" viewBox="0 -11.8 129.4 11.8">
	<g id="Layer_1_24_">
		<path style="fill-rule:evenodd;clip-rule:evenodd;fill:#A1B5AA;" d="M129.4,0c-0.533-0.667-1.9-1.417-4.1-2.25
			c-4.333-1.6-10.55-2.75-18.65-3.45C82.683-8.2,68.033-9.55,62.7-9.75c-1.8-0.067-6-0.45-12.6-1.15c-5.7-0.6-10.6-0.9-14.7-0.9
			c-7.167,0-18.967,0.85-35.4,2.55c5.333-0.3,10.833-0.483,16.5-0.55c11.3-0.133,17.75,0.4,19.35,1.6
			c1.467,1.1,6.117,1.717,13.95,1.85c14.333,0.233,23.3,0.467,26.9,0.7c8.733,0.533,20.133,1.633,34.2,3.3
			C117.933-1.517,124.1-0.733,129.4,0z"/>
	</g>
</symbol>
<symbol  id="FlashAICB_x2F_backhill3_blue_x2F__x3C_Path_x3E__x5F_17" viewBox="0 -7.8 62 7.8">
	<g id="Layer_1_23_">
		<path style="fill-rule:evenodd;clip-rule:evenodd;fill:#A1B5AA;" d="M44.25-7.8c-1.967,0-4.3,0.2-7,0.6
			c-3.067,0.467-5.067,0.717-6,0.75c-1.567,0.067-4.967,0.467-10.2,1.2C15.417-4.483,11.867-4,10.4-3.8
			C6.533-3.333,3.65-2.567,1.75-1.5C0.783-0.967,0.2-0.467,0,0c9.933-1.9,18.25-3.133,24.95-3.7C26.583-3.833,30.933-3.983,38-4.15
			c3.8-0.1,5.983-0.517,6.55-1.25c0.6-0.8,3.684-1.15,9.25-1.05c2.8,0.067,5.534,0.2,8.2,0.4C53.667-7.183,47.75-7.767,44.25-7.8z"
			/>
	</g>
</symbol>
<symbol  id="FlashAICB_x2F_backhill3_blue_x2F__x3C_Path_x3E__x5F_18" viewBox="0 -7.1 59.05 7.1">
	<g id="Layer_1_22_">
		<path style="fill-rule:evenodd;clip-rule:evenodd;fill:#A1B5AA;" d="M42-7.1c-1.9,0-4.133,0.167-6.7,0.5
			c-2.933,0.434-4.833,0.667-5.7,0.7c-1.4,0.066-4.633,0.433-9.7,1.1c-5.967,0.767-9.333,1.2-10.1,1.3C6.167-3.1,3.433-2.4,1.6-1.4
			C0.7-0.9,0.167-0.433,0,0c9.433-1.767,17.333-2.9,23.7-3.4c1.566-0.133,5.733-0.267,12.5-0.4c3.633-0.067,5.7-0.434,6.2-1.1
			c0.533-0.733,3.467-1.05,8.8-0.95c2.667,0.033,5.283,0.15,7.85,0.35C51.05-6.567,45.367-7.1,42-7.1z"/>
	</g>
</symbol>
<symbol  id="FlashAICB_x2F_backhill3_blue_x2F__x3C_Path_x3E__x5F_19" viewBox="0 -8.419 116.7 8.419">
	<g id="Layer_1_21_">
		<path style="fill-rule:evenodd;clip-rule:evenodd;fill:#A1B5AA;" d="M86.75-5.65C83.183-6.083,78.833-6.367,73.7-6.5
			c-6-0.133-9.784-0.267-11.35-0.4c-2.8-0.233-9.3-0.5-19.5-0.8C30.15-8.067,23.267-8.267,22.2-8.3C14.7-8.6,8.75-8.333,4.35-7.5
			C2.15-7.1,0.7-6.65,0-6.15C19.9-6.217,36.183-5.867,48.85-5.1c3.267,0.2,11.217,0.934,23.85,2.2c6.9,0.7,11.133,0.7,12.7,0
			c1.7-0.767,7.434-0.517,17.2,0.75c4.867,0.633,9.566,1.35,14.1,2.15C102.933-3.033,92.95-4.917,86.75-5.65z"/>
	</g>
</symbol>
<symbol  id="FlashAICB_x2F_backhill3_blue_x2F__x3C_Path_x3E__x5F_1_x5F_0" viewBox="0 -11.95 77.95 11.95">
	<g id="Layer_1_39_">
		<path style="fill-rule:evenodd;clip-rule:evenodd;fill:#A1B5AA;" d="M77.95,0C77.717-0.7,77-1.467,75.8-2.3
			c-2.433-1.667-6.083-2.85-10.95-3.55c-0.4-0.066-4.867-0.8-13.4-2.2C44.817-9.15,40.533-9.767,38.6-9.9
			c-1.1-0.067-3.617-0.45-7.55-1.15c-3.4-0.6-6.35-0.9-8.85-0.9c-4.4,0.034-11.8,0.934-22.2,2.7c3.333-0.333,6.75-0.533,10.25-0.6
			c6.967-0.133,10.833,0.4,11.6,1.6c0.733,1.1,3.483,1.717,8.25,1.85c8.767,0.233,14.233,0.467,16.4,0.7
			C54.933-4.833,65.417-2.933,77.95,0z"/>
	</g>
</symbol>
<symbol  id="FlashAICB_x2F_backhill3_blue_x2F__x3C_Path_x3E__x5F_1_x5F_1" viewBox="0.035 -200.05 80.965 200.05">
	<g id="Layer_1_41_">
		<path style="fill-rule:evenodd;clip-rule:evenodd;fill:#C4C6C5;" d="M51.1-16.8c4.533,5.3,9.3,9.283,14.3,11.95
			C69.833-2.483,75.033-0.867,81,0c-5.067-4-10.017-11.417-14.85-22.25c-5.2-11.7-11.383-29.783-18.55-54.25
			c-8.533-29.067-13.6-51.767-15.2-68.1c-2.3-23.467,0.917-41.95,9.65-55.45c-27,9.9-40.983,26.833-41.95,50.8
			c-0.434,9.933,1.3,21.633,5.2,35.1c2.9,9.967,7.583,22.717,14.05,38.25C31.283-47.3,41.867-27.6,51.1-16.8z"/>
	</g>
</symbol>
<symbol  id="FlashAICB_x2F_backhill3_blue_x2F__x3C_Path_x3E__x5F_2" viewBox="0 -11.553 158.9 11.553">
	<g id="Layer_1_38_">
		<path style="fill-rule:evenodd;clip-rule:evenodd;fill:#A1B5AA;" d="M158.9-6.6c-0.867-0.933-2.783-1.833-5.75-2.7
			c-5.9-1.733-14.033-2.467-24.4-2.2c-11.433,0.133-20.833,0.233-28.2,0.3c-13.933,0.167-22.85,0.4-26.75,0.7
			c-2.233,0.2-7.4,0.3-15.5,0.3c-7,0.034-12.917,0.383-17.75,1.05c-5.3,0.7-13.65,2.433-25.05,5.2C9.8-2.583,4.633-1.267,0,0
			c6.133-1.267,12.5-2.367,19.1-3.3C32.267-5.233,39.983-5.467,42.25-4c2.1,1.367,7.85,1.55,17.25,0.55
			C76.933-5.317,87.783-6.367,92.05-6.6c10.833-0.6,25.233-0.783,43.2-0.55C144.217-7.017,152.1-6.833,158.9-6.6z"/>
	</g>
</symbol>
<symbol  id="FlashAICB_x2F_backhill3_blue_x2F__x3C_Path_x3E__x5F_20" viewBox="0 -3.5 103.05 3.5">
	<g id="Layer_1_20_">
		<path style="fill-rule:evenodd;clip-rule:evenodd;fill:#A1B5AA;" d="M103.05,0C90.517-1.833,81.467-2.933,75.9-3.3
			c-3.133-0.2-6.983-0.25-11.55-0.15C59.183-3.383,55.833-3.367,54.3-3.4c-2.5-0.067-8.216-0.033-17.15,0.1
			C25.583-3.133,19.567-3.05,19.1-3.05C12.567-3.017,7.417-2.6,3.65-1.8C1.783-1.4,0.567-1,0-0.6
			c17.267-0.767,31.467-1.083,42.6-0.95c2.767,0.033,9.833,0.333,21.2,0.9C69.933-0.35,73.667-0.5,75-1.1
			c1.433-0.633,6.533-0.65,15.3-0.05C94.7-0.817,98.95-0.433,103.05,0z"/>
	</g>
</symbol>
<symbol  id="FlashAICB_x2F_backhill3_blue_x2F__x3C_Path_x3E__x5F_21" viewBox="0 -8.508 104.15 8.508">
	<g id="Layer_1_19_">
		<path style="fill-rule:evenodd;clip-rule:evenodd;fill:#A1B5AA;" d="M104.15,0C92.217-2.667,83.533-4.35,78.1-5.05
			c-3.167-0.4-7.033-0.7-11.6-0.9c-5.433-0.233-8.817-0.4-10.15-0.5c-2.467-0.233-8.283-0.566-17.45-1
			C27.8-7.95,21.65-8.233,20.45-8.3C13.717-8.667,8.283-8.55,4.15-7.95C2.083-7.65,0.7-7.3,0-6.9c18,0.267,32.65,0.816,43.95,1.65
			c2.933,0.2,9.983,0.933,21.15,2.2c6.1,0.667,9.9,0.733,11.4,0.2c1.633-0.6,6.733-0.3,15.3,0.9C96.1-1.35,100.217-0.7,104.15,0z"/>
	</g>
</symbol>
<symbol  id="FlashAICB_x2F_backhill3_blue_x2F__x3C_Path_x3E__x5F_22" viewBox="0 -9.112 121.7 9.112">
	<g id="Layer_1_18_">
		<path style="fill-rule:evenodd;clip-rule:evenodd;fill:#A1B5AA;" d="M107.15-2.3c5.033,0.667,9.883,1.433,14.55,2.3
			c-14.1-3.3-24.367-5.35-30.8-6.15c-3.7-0.467-8.233-0.767-13.6-0.9c-6.267-0.133-10.233-0.267-11.9-0.4C62.5-7.717,55.7-8,45-8.3
			C31.9-8.7,24.717-8.933,23.45-9C15.617-9.3,9.367-9,4.7-8.1C2.333-7.633,0.767-7.133,0-6.6c20.867-0.1,37.9,0.267,51.1,1.1
			c3.467,0.233,11.75,1.033,24.85,2.4c7.167,0.767,11.6,0.767,13.3,0C91.117-3.933,97.083-3.667,107.15-2.3z"/>
	</g>
</symbol>
<symbol  id="FlashAICB_x2F_backhill3_blue_x2F__x3C_Path_x3E__x5F_23" viewBox="0 -6.912 120.1 6.912">
	<g id="Layer_1_17_">
		<path style="fill-rule:evenodd;clip-rule:evenodd;fill:#A1B5AA;" d="M87.65-6.85c-3.733-0.133-8.267-0.05-13.6,0.25
			c-6.033,0.367-9.933,0.55-11.7,0.55c-2.9,0-9.55,0.283-19.95,0.85C29.6-4.5,22.65-4.133,21.55-4.1
			C14.017-3.767,8.167-2.983,4-1.75C1.9-1.15,0.567-0.567,0,0c19.767-1.733,36.117-2.733,49.05-3c3.367-0.067,11.667,0.033,24.9,0.3
			c7.233,0.133,11.566-0.233,13-1.1c1.566-0.967,7.566-1.2,18-0.7c5.2,0.267,10.25,0.617,15.15,1.05
			C105.067-5.483,94.25-6.617,87.65-6.85z"/>
	</g>
</symbol>
<symbol  id="FlashAICB_x2F_backhill3_blue_x2F__x3C_Path_x3E__x5F_24" viewBox="0 -7.151 89.15 7.151">
	<g id="Layer_1_16_">
		<path style="fill-rule:evenodd;clip-rule:evenodd;fill:#A1B5AA;" d="M79.75-5.25c3.2-0.167,6.333-0.267,9.4-0.3
			c-28.767-1.1-44.767-1.633-48-1.6c-1.867,0-4.05,0.183-6.55,0.55c-2.9,0.434-4.767,0.667-5.6,0.7
			c-1.433,0.066-4.583,0.433-9.45,1.1c-5.233,0.733-8.533,1.183-9.9,1.35C6.083-3.017,3.4-2.317,1.6-1.35C0.7-0.85,0.167-0.4,0,0
			c9.233-1.767,16.967-2.917,23.2-3.45c2.7-0.233,11.367-0.183,26,0.15c12.833,0.333,19.517,0.2,20.05-0.4
			C69.883-4.4,73.383-4.917,79.75-5.25z"/>
	</g>
</symbol>
<symbol  id="FlashAICB_x2F_backhill3_blue_x2F__x3C_Path_x3E__x5F_25" viewBox="0 -2.629 62.45 2.629">
	<g id="Layer_1_15_">
		<path style="fill-rule:evenodd;clip-rule:evenodd;fill:#A1B5AA;" d="M45.95-2.45C44.05-2.617,41.733-2.667,39-2.6
			c-3.167,0.067-5.2,0.083-6.1,0.05c-1.5-0.067-4.95-0.067-10.35,0C15.883-2.45,12.233-2.4,11.6-2.4
			C7.633-2.367,4.517-2.067,2.25-1.5C1.117-1.233,0.367-0.95,0-0.65c10.5-0.5,19.117-0.684,25.85-0.55
			c1.633,0.034,5.917,0.25,12.85,0.65c3.733,0.233,5.983,0.133,6.75-0.3c0.867-0.467,3.95-0.467,9.25,0
			c2.667,0.233,5.25,0.517,7.75,0.85C54.85-1.367,49.35-2.183,45.95-2.45z"/>
	</g>
</symbol>
<symbol  id="FlashAICB_x2F_backhill3_blue_x2F__x3C_Path_x3E__x5F_26" viewBox="0 -4.5 49.15 4.5">
	<g id="Layer_1_14_">
		<path style="fill-rule:evenodd;clip-rule:evenodd;fill:#A1B5AA;" d="M36-1.55C37.233-2.117,41.617-1.6,49.15,0
			c-5.7-1.533-9.85-2.483-12.45-2.85c-1.5-0.233-3.317-0.383-5.45-0.45c-2.567-0.1-4.167-0.184-4.8-0.25
			c-1.167-0.133-3.9-0.284-8.2-0.45c-5.5-0.267-8.383-0.4-8.65-0.4C6.467-4.6,3.917-4.5,1.95-4.1C0.983-3.9,0.333-3.683,0-3.45
			c8.467,0.034,15.35,0.267,20.65,0.7c1.2,0.1,4.533,0.483,10,1.15C33.517-1.233,35.3-1.217,36-1.55z"/>
	</g>
</symbol>
<symbol  id="FlashAICB_x2F_backhill3_blue_x2F__x3C_Path_x3E__x5F_27" viewBox="0 -2.64 48.95 2.64">
	<g id="Layer_1_13_">
		<path style="fill-rule:evenodd;clip-rule:evenodd;fill:#A1B5AA;" d="M30.2-2.55c-2.567,0.133-4.15,0.2-4.75,0.2
			c-1.167-0.033-3.867,0.05-8.1,0.25c-5.233,0.233-8.067,0.35-8.5,0.35c-3.067,0.1-5.467,0.417-7.2,0.95
			C0.783-0.533,0.233-0.267,0,0c8.133-0.667,14.833-1.033,20.1-1.1c1.2,0,4.583,0.1,10.15,0.3c2.967,0.1,4.717-0.05,5.25-0.45
			c0.967-0.667,5.45-0.55,13.45,0.35c-6.167-0.967-10.6-1.533-13.3-1.7C34.117-2.667,32.3-2.65,30.2-2.55z"/>
	</g>
</symbol>
<symbol  id="FlashAICB_x2F_backhill3_blue_x2F__x3C_Path_x3E__x5F_28" viewBox="0 -4.414 88.55 4.414">
	<g id="Layer_1_12_">
		<path style="fill-rule:evenodd;clip-rule:evenodd;fill:#A1B5AA;" d="M46.45-4c-2.2-0.067-7.117,0.05-14.75,0.35
			c-8.2,0.333-13.367,0.533-15.5,0.6C10.633-2.917,6.267-2.367,3.1-1.4C1.5-0.933,0.467-0.467,0,0c3.7-0.3,7.983-0.583,12.85-0.85
			c9.767-0.566,17.633-0.85,23.6-0.85c2.7,0,8.783,0.217,18.25,0.65c5.3,0.233,8.517,0,9.65-0.7c1.2-0.767,5.6-0.867,13.2-0.3
			c3.8,0.3,7.467,0.667,11,1.1c-10.833-1.9-18.667-3-23.5-3.3C62.317-4.45,59-4.467,55.1-4.3C50.5-4.067,47.617-3.967,46.45-4z"/>
	</g>
</symbol>
<symbol  id="FlashAICB_x2F_backhill3_blue_x2F__x3C_Path_x3E__x5F_29" viewBox="0 -4.99 52.45 4.99">
	<g id="Layer_1_11_">
		<path style="fill-rule:evenodd;clip-rule:evenodd;fill:#A1B5AA;" d="M52.45,0c-6-1.733-10.383-2.817-13.15-3.25
			c-1.533-0.233-3.466-0.4-5.8-0.5C30.867-3.817,29.167-3.9,28.4-4c-1.3-0.133-4.233-0.3-8.8-0.5c-4.867-0.2-7.95-0.333-9.25-0.4
			c-3.367-0.2-6.1-0.067-8.2,0.4C1.083-4.267,0.367-4.017,0-3.75c9.067,0,16.433,0.233,22.1,0.7c1.5,0.133,5.05,0.566,10.65,1.3
			c3.067,0.433,4.983,0.45,5.75,0.05c0.833-0.433,3.417-0.283,7.75,0.45C48.383-0.883,50.45-0.467,52.45,0z"/>
	</g>
</symbol>
<symbol  id="FlashAICB_x2F_backhill3_blue_x2F__x3C_Path_x3E__x5F_3" viewBox="0 -21.525 144.1 21.525">
	<g id="Layer_1_37_">
		<path style="fill-rule:evenodd;clip-rule:evenodd;fill:#A1B5AA;" d="M144.1-18.75c-1.1-0.767-3.15-1.417-6.15-1.95
			c-6.067-1.1-13.917-1.1-23.55,0c-10.566,1.067-19.25,1.934-26.05,2.6c-12.8,1.3-20.95,2.25-24.45,2.85
			c-2.033,0.333-6.717,0.85-14.05,1.55C43.483-13.1,38.2-12.317,34-11.35c-4.567,1.033-11.6,3.233-21.1,6.6
			C8.133-3.05,3.833-1.467,0,0c5.167-1.6,10.583-3.083,16.25-4.45C27.583-7.217,34.467-8.033,36.9-6.9
			c2.267,1.033,7.55,0.733,15.85-0.9c15.4-3.067,25.05-4.883,28.95-5.45C97.5-15.517,118.3-17.35,144.1-18.75z"/>
	</g>
</symbol>
<symbol  id="FlashAICB_x2F_backhill3_blue_x2F__x3C_Path_x3E__x5F_30" viewBox="0 -6.4 55 6.4">
	<g id="Layer_1_10_">
		<path style="fill-rule:evenodd;clip-rule:evenodd;fill:#A1B5AA;" d="M55-5.1c-7.4-0.867-12.65-1.3-15.75-1.3
			c-1.767,0.033-3.833,0.2-6.2,0.5c-2.733,0.4-4.517,0.617-5.35,0.65c-1.367,0.067-4.383,0.4-9.05,1c-4.967,0.633-8.1,1.033-9.4,1.2
			c-3.4,0.4-5.967,1.033-7.7,1.9C0.683-0.75,0.167-0.367,0,0c8.833-1.533,16.217-2.55,22.15-3.05c1.6-0.133,5.45-0.284,11.55-0.45
			c3.4-0.1,5.35-0.433,5.85-1c0.534-0.633,3.267-0.917,8.2-0.85C50.217-5.35,52.633-5.267,55-5.1z"/>
	</g>
</symbol>
<symbol  id="FlashAICB_x2F_backhill3_blue_x2F__x3C_Path_x3E__x5F_31" viewBox="0 -7.65 77.35 7.65">
	<g id="Layer_1_9_">
		<path style="fill-rule:evenodd;clip-rule:evenodd;fill:#A1B5AA;" d="M46.85-7.1c-3.867,0.467-6.367,0.717-7.5,0.75
			C37.417-6.283,33.167-5.9,26.6-5.2c-7.033,0.767-11.483,1.25-13.35,1.45C8.45-3.317,4.8-2.567,2.3-1.5C1.067-0.967,0.3-0.467,0,0
			c12.5-1.867,22.9-3.067,31.2-3.6c2.233-0.167,7.633-0.316,16.2-0.45c4.733-0.067,7.5-0.467,8.3-1.2c0.867-0.767,4.733-1.1,11.6-1
			c3.434,0.067,6.784,0.2,10.05,0.4c-10.133-1.167-17.367-1.767-21.7-1.8C53.183-7.65,50.25-7.467,46.85-7.1z"/>
	</g>
</symbol>
<symbol  id="FlashAICB_x2F_backhill3_blue_x2F__x3C_Path_x3E__x5F_32" viewBox="0 -5.207 57.6 5.207">
	<g id="Layer_1_8_">
		<path style="fill-rule:evenodd;clip-rule:evenodd;fill:#A1B5AA;" d="M43.3-3.7c-1.733-0.267-3.883-0.433-6.45-0.5
			c-2.934-0.066-4.8-0.133-5.6-0.2c-1.367-0.133-4.567-0.283-9.6-0.45C15.417-5.017,12-5.117,11.4-5.15c-3.7-0.167-6.7,0.033-9,0.6
			C1.233-4.25,0.433-3.933,0-3.6c9.967-0.133,18.067,0.017,24.3,0.45c1.633,0.133,5.517,0.6,11.65,1.4
			c3.367,0.433,5.483,0.417,6.35-0.05c0.934-0.534,3.767-0.383,8.5,0.45c2.367,0.4,4.633,0.85,6.8,1.35
			C51.067-2,46.3-3.233,43.3-3.7z"/>
	</g>
</symbol>
<symbol  id="FlashAICB_x2F_backhill3_blue_x2F__x3C_Path_x3E__x5F_33" viewBox="0 -8.301 102.95 8.301">
	<g id="Layer_1_7_">
		<path style="fill-rule:evenodd;clip-rule:evenodd;fill:#A1B5AA;" d="M102.95-6.85c-13.434-1-23.034-1.483-28.8-1.45
			c-3.233,0.033-7.133,0.267-11.7,0.7c-5.1,0.467-8.434,0.733-10,0.8c-2.534,0.133-8.184,0.583-16.95,1.35
			c-11.533,1.034-17.45,1.567-17.75,1.6C11.383-3.35,6.517-2.567,3.15-1.5C1.483-0.933,0.433-0.433,0,0c16.6-2,30.433-3.333,41.5-4
			c2.933-0.167,10.083-0.383,21.45-0.65c6.267-0.133,9.966-0.567,11.1-1.3c1.2-0.767,6.383-1.15,15.55-1.15
			C94.167-7.1,98.617-7.017,102.95-6.85z"/>
	</g>
</symbol>
<symbol  id="FlashAICB_x2F_backhill3_blue_x2F__x3C_Path_x3E__x5F_34" viewBox="0 -6.464 107.8 6.464">
	<g id="Layer_1_6_">
		<path style="fill-rule:evenodd;clip-rule:evenodd;fill:#A1B5AA;" d="M107.8,0C95-2.467,85.717-4,79.95-4.6
			c-3.267-0.333-7.284-0.533-12.05-0.6c-5.467-0.1-8.967-0.2-10.5-0.3c-2.533-0.167-8.533-0.333-18-0.5
			c-11.233-0.233-17.566-0.367-19-0.4C13.5-6.6,8.033-6.333,4-5.6C1.967-5.233,0.633-4.833,0-4.4c18.333-0.2,33.333-0.017,45,0.55
			c2.867,0.133,10.233,0.7,22.1,1.7c6.367,0.566,10.267,0.533,11.7-0.1c1.567-0.633,6.867-0.45,15.9,0.55
			C99.233-1.2,103.6-0.633,107.8,0z"/>
	</g>
</symbol>
<symbol  id="FlashAICB_x2F_backhill3_blue_x2F__x3C_Path_x3E__x5F_35" viewBox="0 -6.91 112.25 6.91">
	<g id="Layer_1_5_">
		<path style="fill-rule:evenodd;clip-rule:evenodd;fill:#A1B5AA;" d="M83.55-4.95C80.117-5.317,75.933-5.533,71-5.6
			c-5.8-0.1-9.45-0.2-10.95-0.3c-2.7-0.167-8.95-0.35-18.75-0.55c-12.2-0.233-18.816-0.367-19.85-0.4c-7.2-0.2-12.934,0.1-17.2,0.9
			C2.117-5.55,0.7-5.133,0-4.7c19.133-0.233,34.783-0.05,46.95,0.55C49.783-4.017,57.433-3.4,69.9-2.3
			c6.633,0.6,10.717,0.566,12.25-0.1c1.667-0.7,7.184-0.517,16.55,0.55c4.7,0.533,9.216,1.15,13.55,1.85
			C99.083-2.667,89.517-4.317,83.55-4.95z"/>
	</g>
</symbol>
<symbol  id="FlashAICB_x2F_backhill3_blue_x2F__x3C_Path_x3E__x5F_36" viewBox="0 -6.388 109.5 6.388">
	<g id="Layer_1_4_">
		<path style="fill-rule:evenodd;clip-rule:evenodd;fill:#A1B5AA;" d="M109.5-3.75c-13.933-1.6-23.917-2.467-29.95-2.6
			c-3.433-0.1-7.566,0-12.4,0.3C61.617-5.683,58.067-5.5,56.5-5.5c-2.633,0.033-8.683,0.317-18.15,0.85
			C26.75-3.983,20.433-3.633,19.4-3.6C12.533-3.267,7.25-2.567,3.55-1.5C1.683-0.967,0.5-0.467,0,0c17.933-1.6,32.8-2.55,44.6-2.85
			c3.233-0.1,10.8-0.083,22.7,0.05c6.633,0.066,10.567-0.267,11.8-1c1.367-0.8,6.85-1.034,16.45-0.7
			C100.35-4.333,105-4.083,109.5-3.75z"/>
	</g>
</symbol>
<symbol  id="FlashAICB_x2F_backhill3_blue_x2F__x3C_Path_x3E__x5F_37" viewBox="0 -204.4 88.377 204.4">
	<g id="Layer_1_42_">
		<path style="fill-rule:evenodd;clip-rule:evenodd;fill:#C4C6C5;" d="M13.45-22.2C8.617-11.2,4.133-3.8,0,0
			c5.133-0.8,9.667-2.35,13.6-4.65c4.4-2.567,8.933-6.517,13.6-11.85c8.733-10.1,21.583-30.3,38.55-60.6
			c16.9-30.167,24.333-55.133,22.3-74.9c-2.7-25.967-21.533-43.433-56.5-52.4c12.6,14.2,18.383,33.767,17.35,58.7
			c-0.8,19.333-5.783,42.267-14.95,68.8C25.15-51.433,18.317-33.2,13.45-22.2z"/>
	</g>
</symbol>
<symbol  id="FlashAICB_x2F_backhill3_blue_x2F__x3C_Path_x3E__x5F_38" viewBox="-0.006 -5.45 65.469 5.45">
	<g id="Layer_1_43_">
		<path style="fill-rule:evenodd;clip-rule:evenodd;fill:#ABAEB0;" d="M65.45-2.65c0.233-0.767-2.833-1.434-9.2-2
			c-6.333-0.533-14.117-0.8-23.35-0.8S15.833-5.183,9.4-4.65C2.967-4.117-0.167-3.467,0-2.7c0.167,0.733,3.45,1.367,9.85,1.9
			C16.217-0.267,23.833,0,32.7,0c8.833,0,16.45-0.267,22.85-0.8C61.95-1.3,65.25-1.917,65.45-2.65z"/>
	</g>
</symbol>
<symbol  id="FlashAICB_x2F_backhill3_blue_x2F__x3C_Path_x3E__x5F_4" viewBox="0 -20.125 141.4 20.125">
	<g id="Layer_1_36_">
		<path style="fill-rule:evenodd;clip-rule:evenodd;fill:#A1B5AA;" d="M141.4-17.5c-1-0.733-2.95-1.35-5.85-1.85
			c-5.767-1.033-13.367-1.033-22.8,0c-0.3,0.033-8.817,0.85-25.55,2.45c-12.534,1.2-20.517,2.083-23.95,2.65
			c-2.033,0.333-6.617,0.817-13.75,1.45c-6.233,0.533-11.433,1.25-15.6,2.15c-4.5,0.967-11.5,3.033-21,6.2
			C8.167-2.883,3.867-1.4,0,0c5.167-1.5,10.55-2.883,16.15-4.15C27.35-6.717,34.1-7.467,36.4-6.4c2.1,0.967,7.25,0.667,15.45-0.9
			c15.1-2.867,24.617-4.567,28.55-5.1C95.933-14.5,116.267-16.2,141.4-17.5z"/>
	</g>
</symbol>
<symbol  id="FlashAICB_x2F_backhill3_blue_x2F__x3C_Path_x3E__x5F_5" viewBox="0 -11.511 155.6 11.511">
	<g id="Layer_1_35_">
		<path style="fill-rule:evenodd;clip-rule:evenodd;fill:#A1B5AA;" d="M155.6,0c-0.667-0.933-2.317-1.917-4.95-2.95
			c-5.267-2.1-12.833-3.417-22.7-3.95c-0.967-0.067-10.017-0.684-27.15-1.85c-13.5-0.9-22.15-1.35-25.95-1.35
			c-2.233,0-7.3-0.3-15.2-0.9C52.783-11.5,46.9-11.633,42-11.4c-5.333,0.267-13.933,1.3-25.8,3.1C10.267-7.4,4.867-6.533,0-5.7
			c6.333-0.733,12.85-1.316,19.55-1.75C32.983-8.283,40.683-7.9,42.65-6.3c1.8,1.466,7.383,2.066,16.75,1.8
			C76.6-4.933,87.383-5.1,91.75-5c10.533,0.233,24.333,1.133,41.4,2.7C141.683-1.5,149.167-0.733,155.6,0z"/>
	</g>
</symbol>
<symbol  id="FlashAICB_x2F_backhill3_blue_x2F__x3C_Path_x3E__x5F_6" viewBox="0 -13.33 73.3 13.33">
	<g id="Layer_1_34_">
		<path style="fill-rule:evenodd;clip-rule:evenodd;fill:#A1B5AA;" d="M73.3,0c-0.167-0.667-0.783-1.417-1.85-2.25
			c-2.1-1.633-5.417-2.867-9.95-3.7c-0.933-0.167-5.117-1.033-12.55-2.6c-6.267-1.3-10.284-2.05-12.05-2.25
			c-1.066-0.1-3.417-0.55-7.05-1.35c-3.167-0.7-5.95-1.083-8.35-1.15c-4.2-0.167-11.367,0.35-21.5,1.55
			c3.233-0.167,6.517-0.217,9.85-0.15c6.667,0.167,10.316,0.833,10.95,2c0.6,1.066,3.167,1.75,7.7,2.05
			c8.367,0.567,13.55,1,15.55,1.3c4.967,0.7,11.333,2,19.1,3.9C67.017-1.683,70.4-0.8,73.3,0z"/>
	</g>
</symbol>
<symbol  id="FlashAICB_x2F_backhill3_blue_x2F__x3C_Path_x3E__x5F_7" viewBox="0 -12.172 70.65 12.172">
	<g id="Layer_1_33_">
		<path style="fill-rule:evenodd;clip-rule:evenodd;fill:#A1B5AA;" d="M70.65,0c-0.2-0.6-0.85-1.267-1.95-2
			c-2.167-1.5-5.434-2.633-9.8-3.4C46-8.033,38.083-9.5,35.15-9.8c-1.033-0.1-3.3-0.517-6.8-1.25c-3.1-0.633-5.783-1-8.05-1.1
			C16.3-12.283,9.533-11.8,0-10.7c3.067-0.133,6.183-0.167,9.35-0.1c6.367,0.133,9.9,0.716,10.6,1.75c0.633,0.966,3.133,1.6,7.5,1.9
			c8.1,0.566,13.05,0.967,14.85,1.2C49.9-4.917,59.35-2.933,70.65,0z"/>
	</g>
</symbol>
<symbol  id="FlashAICB_x2F_backhill3_blue_x2F__x3C_Path_x3E__x5F_8" viewBox="0 -15.027 137.25 15.027">
	<g id="Layer_1_32_">
		<path style="fill-rule:evenodd;clip-rule:evenodd;fill:#A1B5AA;" d="M137.25-12.1c-0.967-0.7-2.85-1.333-5.65-1.9
			c-5.567-1.1-12.883-1.317-21.95-0.65c-1.066,0.066-9.283,0.566-24.65,1.5c-12.167,0.733-19.9,1.3-23.2,1.7
			c-1.933,0.233-6.383,0.55-13.35,0.95c-6.067,0.3-11.133,0.817-15.2,1.55C26.183-7.683,15.1-4.7,0,0
			c5.067-1.233,10.333-2.367,15.8-3.4c11-2.067,17.617-2.583,19.85-1.55C37.717-3.983,42.733-4.1,50.7-5.3
			c14.6-2.167,23.85-3.45,27.75-3.85c9.367-0.934,21.983-1.7,37.85-2.3C124.233-11.783,131.217-12,137.25-12.1z"/>
	</g>
</symbol>
<symbol  id="FlashAICB_x2F_backhill3_blue_x2F__x3C_Path_x3E__x5F_9" viewBox="0 -6.506 131.85 6.506">
	<g id="Layer_1_31_">
		<path style="fill-rule:evenodd;clip-rule:evenodd;fill:#A1B5AA;" d="M131.85-2.45c-0.8-0.667-2.467-1.316-5-1.95
			c-5.033-1.3-11.817-1.934-20.35-1.9c-1,0-8.783-0.05-23.35-0.15C71.55-6.55,64.167-6.517,61-6.35
			c-1.967,0.1-6.25,0.117-12.85,0.05C42.283-6.367,37.367-6.217,33.4-5.85C26.433-5.183,15.3-3.233,0,0
			c5.067-0.8,10.333-1.483,15.8-2.05c10.934-1.167,17.383-1.233,19.35-0.2c1.833,0.967,6.633,1.167,14.4,0.6
			c13.967-1.033,22.934-1.6,26.9-1.7C90.75-3.783,109.217-3.483,131.85-2.45z"/>
	</g>
</symbol>
<g>
	<g>
		<g>
			<g>
				<path style="fill-rule:evenodd;clip-rule:evenodd;fill:#666F7A;" d="M171.3,171.25c3-2.566,7.65-4.55,13.95-5.95
					c6.366-1.399,13.55-2,21.55-1.8c11.467,0.267,22.351,2,32.65,5.2c1.267-1.167,3.184-2.05,5.75-2.65
					c2.633-0.6,5.767-0.866,9.399-0.8c6.534,0.167,13.351,1.366,20.45,3.6c7.267,2.301,12.884,5.101,16.851,8.4
					c4.699,3.866,5.866,7.167,3.5,9.9c-2.4,2.8-7.7,4.083-15.9,3.85c-1.434,0-3.167-0.116-5.2-0.35c0.601,0.5,1.084,0.949,1.45,1.35
					c3.4,3.634,2.467,6.7-2.8,9.2c-5.334,2.533-13.434,3.633-24.3,3.3c-8.4-0.233-16.367-1.366-23.9-3.4h-0.9
					c-0.899,0-2.25-0.066-4.05-0.199c-4.767,3.133-13.566,5.517-26.399,7.149c-13.267,1.733-28.267,2.316-45,1.75
					c-16.6-0.533-31.083-2.066-43.45-4.6c-11.934-2.467-19.684-5.367-23.25-8.7c-8.9,2.467-17.917,3.55-27.05,3.25
					c-10.5-0.333-17.6-2.233-21.3-5.7c-3.633-3.434-2.917-7.25,2.15-11.45c4-3.333,9.967-6.083,17.9-8.25
					c7.733-2.133,15.583-3.25,23.55-3.35c3.7-3.866,9.4-7,17.1-9.4c7.534-2.333,15.133-3.416,22.8-3.25
					c6.066,0.167,11.267,1.101,15.6,2.801c4.333,1.699,7.133,3.916,8.4,6.649c3.667-0.7,7.45-1,11.35-0.899
					C159.434,167.033,165.8,168.483,171.3,171.25z"/>
			</g>
			<g>
				<path style="fill-rule:evenodd;clip-rule:evenodd;fill:#A1BFBB;" d="M234.45,31.75c7.166,10.233,16.533,25.683,28.1,46.35
					c22.7,40.5,28.917,71.9,18.65,94.2c-13.834,30.033-57.217,42.816-130.15,38.351c-28.367-1.733-50.183-6.65-65.45-14.75
					c-13.8-7.334-22.583-17.434-26.35-30.301c-3.233-11.066-2.883-24.8,1.05-41.199c2.833-11.934,8.35-27.717,16.55-47.351
					c7.933-19,15.183-33.8,21.75-44.4c6.433-10.4,13.033-18.033,19.8-22.9c6.067-4.4,13.283-7.25,21.65-8.55
					c5.467-0.833,14.55-1.233,27.25-1.2c13.634,0.067,22.384,0.367,26.25,0.9c7.667,1.033,14.384,3.65,20.15,7.85
					C220.033,13.35,226.95,21.017,234.45,31.75z"/>
				
					<use xlink:href="#FlashAICB_x2F_backhill3_blue_x2F__x3C_Path_x3E__x5F_1"  width="228.934" height="211.519" x="0.012" y="-211.517" transform="matrix(1 0 0 -1 57.0498 0)" style="overflow:visible;opacity:0.5;enable-background:new    ;"/>
				
					<use xlink:href="#FlashAICB_x2F_backhill3_blue_x2F__x3C_Path_x3E_"  width="228.934" height="211.519" x="0.012" y="-211.517" transform="matrix(1 0 0 -1 57.0498 0)" style="overflow:visible;opacity:0.5;enable-background:new    ;"/>
				
					<use xlink:href="#FlashAICB_x2F_backhill3_blue_x2F__x3C_Clip_Group_0_x3E_"  width="310.149" height="211.519" y="-211.517" transform="matrix(1 0 0 -1 0 0)" style="overflow:visible;"/>
			</g>
		</g>
		<g>
			<path style="fill-rule:evenodd;clip-rule:evenodd;fill:#666F7A;" d="M171.3,186.3c3.2-1.866,8.2-3.283,15-4.25
				c6.834-0.967,14.617-1.35,23.351-1.149c12.5,0.267,24.333,1.616,35.5,4.05c1.333-0.867,4.216-1.533,8.649-2
				c4.566-0.467,9.717-0.601,15.45-0.4c8.934,0.601,15.767,1.65,20.5,3.15c2.934,0.934,7.066,2.883,12.4,5.85
				c5.133,2.834,6.466,5.25,4,7.25c-2.567,2.066-8.301,2.983-17.2,2.75c-1.867-0.033-3.75-0.133-5.65-0.3
				c0.834,0.5,1.367,0.833,1.601,1c3.733,2.7,2.783,4.95-2.851,6.75c-5.767,1.833-14.533,2.583-26.3,2.25
				c-8.866-0.233-17.517-1.116-25.95-2.65L224.4,208.4c-5.101,2.267-14.584,3.949-28.45,5.05c-14.334,1.166-30.584,1.5-48.75,1
				c-18-0.5-33.75-1.733-47.25-3.7c-12.934-1.866-21.383-4.033-25.35-6.5c-9.6,1.7-19.35,2.434-29.25,2.2
				c-11.4-0.334-19.133-1.783-23.2-4.351c-4-2.533-3.283-5.333,2.15-8.399c4.733-2.667,9.667-4.65,14.8-5.95
				c6.066-1.533,13.083-2.316,21.05-2.35c3.767-2.667,11.367-4.9,22.8-6.7c10.5-1.667,20.2-2.4,29.1-2.2
				c6.567,0.167,12.217,0.884,16.95,2.15c4.7,1.267,7.783,2.899,9.25,4.899c4.033-0.467,8.117-0.649,12.25-0.55
				C158.2,183.134,165.134,184.233,171.3,186.3z"/>
		</g>
	</g>
	<g>
		<path style="fill-rule:evenodd;clip-rule:evenodd;fill:#6F7985;" d="M288.95,194.5c6.866,0.2,11.95-0.366,15.25-1.7
			c3.666,2.601,4.1,4.75,1.3,6.45c-2.866,1.767-8.384,2.533-16.55,2.3c-1.066-0.033-2.783-0.116-5.15-0.25
			c1.9-0.833,2.967-1.767,3.2-2.8c0.2-1.033-0.5-2.134-2.1-3.3c-0.467-0.367-1-0.7-1.601-1
			C285.2,194.366,287.083,194.467,288.95,194.5z"/>
		<path style="fill-rule:evenodd;clip-rule:evenodd;fill:#6F7985;" d="M147.2,214.45c-18-0.5-33.75-1.733-47.25-3.7
			c-12.934-1.866-21.383-4.033-25.35-6.5c-9.6,1.7-19.35,2.434-29.25,2.2c-10.467-0.3-17.9-1.584-22.3-3.851
			c-4.233-2.199-4.517-4.716-0.85-7.55c4.066,2.566,11.783,4.017,23.15,4.351c9.9,0.233,19.65-0.5,29.25-2.2
			c3.967,2.467,12.417,4.633,25.35,6.5c13.5,1.967,29.25,3.2,47.25,3.7c18.166,0.5,34.416,0.166,48.75-1
			c13.866-1.101,23.35-2.784,28.45-5.051c2.899,0.101,4.366,0.15,4.399,0.15c0.233,0.033,0.566,0.05,1,0.05
			c8.434,1.533,17.084,2.417,25.95,2.65c6.434,0.166,12.1,0,17-0.5c4.667-0.5,8.267-1.267,10.8-2.3
			c0.566,0.3,1.017,0.583,1.351,0.85c3.733,2.7,2.783,4.95-2.851,6.75c-5.767,1.833-14.533,2.583-26.3,2.25
			c-8.866-0.233-17.517-1.116-25.95-2.65L224.4,208.4c-5.101,2.267-14.584,3.949-28.45,5.05
			C181.616,214.616,165.366,214.95,147.2,214.45z"/>
	</g>
	<path style="fill-rule:evenodd;clip-rule:evenodd;fill:#6F7985;" d="M201.4,194.2c0,0.233-0.367,0.416-1.101,0.55
		c-0.733,0.167-1.633,0.25-2.7,0.25c-1.066,0-1.966-0.083-2.699-0.25c-0.733-0.134-1.101-0.316-1.101-0.55s0.367-0.417,1.101-0.55
		c0.733-0.167,1.633-0.25,2.699-0.25c1.067,0,1.967,0.083,2.7,0.25C201.033,193.783,201.4,193.967,201.4,194.2z"/>
	<path style="fill-rule:evenodd;clip-rule:evenodd;fill:#6F7985;" d="M209.3,192c0,0.233-0.333,0.417-1,0.55
		c-0.633,0.167-1.434,0.25-2.399,0.25c-0.967,0-1.784-0.083-2.45-0.25c-0.667-0.133-1-0.316-1-0.55c0-0.2,0.333-0.366,1-0.5
		c0.666-0.167,1.483-0.25,2.45-0.25c0.933,0,1.733,0.083,2.399,0.25C208.967,191.634,209.3,191.8,209.3,192z"/>
	<path style="fill-rule:evenodd;clip-rule:evenodd;fill:#6F7985;" d="M76,188.65c0,0.233-0.367,0.416-1.1,0.55
		c-0.733,0.166-1.633,0.25-2.7,0.25c-1.067,0-1.967-0.084-2.7-0.25c-0.733-0.134-1.1-0.316-1.1-0.55s0.367-0.417,1.1-0.551
		c0.733-0.166,1.633-0.25,2.7-0.25c1.066,0,1.966,0.084,2.7,0.25C75.633,188.233,76,188.417,76,188.65z"/>
	<path style="fill-rule:evenodd;clip-rule:evenodd;fill:#6F7985;" d="M80.45,185.7c0.966,0,1.783,0.083,2.45,0.25
		c0.667,0.133,1,0.316,1,0.55c0,0.2-0.333,0.384-1,0.55c-0.667,0.134-1.483,0.2-2.45,0.2c-0.934,0-1.733-0.066-2.4-0.2
		c-0.667-0.166-1-0.35-1-0.55c0-0.233,0.333-0.417,1-0.55C78.683,185.783,79.483,185.7,80.45,185.7z"/>
	<path style="fill-rule:evenodd;clip-rule:evenodd;fill:#6F7985;" d="M129.75,187.65c0,0.233-0.367,0.416-1.1,0.55
		c-0.733,0.166-1.633,0.25-2.7,0.25c-1.067,0-1.967-0.084-2.7-0.25c-0.733-0.134-1.1-0.316-1.1-0.55c0-0.2,0.367-0.384,1.1-0.551
		c0.767-0.166,1.667-0.25,2.7-0.25c1.033,0,1.933,0.084,2.7,0.25C129.383,187.267,129.75,187.45,129.75,187.65z"/>
	<path style="fill-rule:evenodd;clip-rule:evenodd;fill:#6F7985;" d="M137.65,185.5c0,0.2-0.333,0.384-1,0.55
		c-0.7,0.167-1.517,0.25-2.45,0.25c-0.934,0-1.75-0.083-2.45-0.25c-0.667-0.166-1-0.35-1-0.55c0-0.233,0.333-0.417,1-0.55
		c0.667-0.167,1.483-0.25,2.45-0.25c0.966,0,1.783,0.083,2.45,0.25C137.317,185.083,137.65,185.267,137.65,185.5z"/>
	<path style="fill-rule:evenodd;clip-rule:evenodd;fill:#6F7985;" d="M38.05,192.85c0.667-0.166,1.483-0.25,2.45-0.25
		s1.783,0.084,2.45,0.25c0.667,0.134,1,0.317,1,0.551s-0.333,0.416-1,0.55c-0.667,0.166-1.483,0.25-2.45,0.25
		s-1.783-0.084-2.45-0.25c-0.667-0.134-1-0.316-1-0.55S37.383,192.983,38.05,192.85z"/>
	<path style="fill-rule:evenodd;clip-rule:evenodd;fill:#6F7985;" d="M237.25,186.65c0,0.399-0.583,0.733-1.75,1
		s-2.6,0.399-4.3,0.399s-3.134-0.133-4.3-0.399c-1.167-0.267-1.75-0.601-1.75-1c0-0.367,0.583-0.684,1.75-0.95
		c1.199-0.267,2.633-0.4,4.3-0.4c1.666,0,3.1,0.134,4.3,0.4C236.667,185.967,237.25,186.283,237.25,186.65z"/>
	<path style="fill-rule:evenodd;clip-rule:evenodd;fill:#6F7985;" d="M242.55,187.25c1.101,0,2.05,0.1,2.851,0.3
		c0.767,0.2,1.149,0.434,1.149,0.7s-0.383,0.5-1.149,0.7c-0.801,0.2-1.75,0.3-2.851,0.3c-1.066,0-2-0.1-2.8-0.3
		c-0.767-0.2-1.15-0.434-1.15-0.7s0.384-0.5,1.15-0.7C240.55,187.35,241.483,187.25,242.55,187.25z"/>
	<path style="fill-rule:evenodd;clip-rule:evenodd;fill:#6F7985;" d="M241.2,185.1c1.267,0,1.899,0.167,1.899,0.5
		c0,0.334-0.633,0.5-1.899,0.5s-1.9-0.166-1.9-0.5C239.3,185.267,239.934,185.1,241.2,185.1z"/>
	<path style="fill-rule:evenodd;clip-rule:evenodd;fill:#6F7985;" d="M151.95,199.65c0,0.366-0.583,0.699-1.75,1
		c-1.2,0.267-2.617,0.399-4.25,0.399c-1.667,0-3.1-0.133-4.3-0.399c-1.167-0.301-1.75-0.634-1.75-1c0-0.367,0.583-0.7,1.75-1
		c1.2-0.267,2.633-0.4,4.3-0.4c1.633,0,3.05,0.134,4.25,0.4C151.367,198.95,151.95,199.283,151.95,199.65z"/>
	<path style="fill-rule:evenodd;clip-rule:evenodd;fill:#6F7985;" d="M161.25,201.25c0,0.267-0.384,0.5-1.15,0.7
		c-0.767,0.166-1.699,0.25-2.8,0.25c-1.1,0-2.033-0.084-2.8-0.25c-0.767-0.2-1.15-0.434-1.15-0.7s0.383-0.5,1.15-0.7
		s1.7-0.3,2.8-0.3c1.101,0,2.033,0.1,2.8,0.3S161.25,200.983,161.25,201.25z"/>
	<path style="fill-rule:evenodd;clip-rule:evenodd;fill:#6F7985;" d="M157.8,198.55c0,0.334-0.633,0.5-1.899,0.5
		c-1.234,0-1.851-0.166-1.851-0.5c0-0.133,0.184-0.25,0.55-0.35c0.367-0.101,0.8-0.15,1.3-0.15s0.949,0.05,1.35,0.15
		C157.616,198.3,157.8,198.417,157.8,198.55z"/>
	<path style="fill-rule:evenodd;clip-rule:evenodd;fill:#6F7985;" d="M283.2,186.65c1.467,0,2.733,0.1,3.8,0.3
		c1.033,0.2,1.55,0.434,1.55,0.7s-0.517,0.5-1.55,0.699c-1.066,0.2-2.333,0.301-3.8,0.301s-2.717-0.101-3.75-0.301
		c-1.033-0.199-1.55-0.433-1.55-0.699s0.517-0.5,1.55-0.7S281.733,186.65,283.2,186.65z"/>
	<path style="fill-rule:evenodd;clip-rule:evenodd;fill:#6F7985;" d="M64.1,186.5c0,0.267-0.517,0.483-1.55,0.65
		c-1.066,0.199-2.333,0.3-3.8,0.3s-2.717-0.101-3.75-0.3c-1.033-0.167-1.55-0.384-1.55-0.65s0.517-0.5,1.55-0.7s2.283-0.3,3.75-0.3
		s2.733,0.1,3.8,0.3C63.583,186,64.1,186.233,64.1,186.5z"/>
	<path style="fill-rule:evenodd;clip-rule:evenodd;fill:#6F7985;" d="M277.2,185.1c0,0.233-0.3,0.417-0.9,0.551
		c-0.6,0.166-1.333,0.25-2.2,0.25c-0.866,0-1.6-0.084-2.199-0.25c-0.601-0.134-0.9-0.317-0.9-0.551s0.3-0.416,0.9-0.55
		c0.6-0.166,1.333-0.25,2.199-0.25c0.867,0,1.601,0.084,2.2,0.25C276.9,184.684,277.2,184.866,277.2,185.1z"/>
	<path style="fill-rule:evenodd;clip-rule:evenodd;fill:#6F7985;" d="M283.4,183.9c1.366,0,2.05,0.166,2.05,0.5
		c0,0.333-0.684,0.5-2.05,0.5c-1.4,0-2.101-0.167-2.101-0.5C281.3,184.066,282,183.9,283.4,183.9z"/>
	<path style="fill-rule:evenodd;clip-rule:evenodd;fill:#6F7985;" d="M194.8,2.1c7.867,0.8,12,1.767,12.4,2.9
		c0.399,1.167-3.316,2.183-11.15,3.05C188.184,8.883,178.5,9.3,167,9.3c-11.467,0.034-21.2-0.383-29.2-1.25
		C129.833,7.217,126.033,6.2,126.4,5c0.333-1.133,4.434-2.1,12.3-2.9c7.8-0.767,17.149-1.15,28.05-1.15
		C177.616,0.95,186.967,1.333,194.8,2.1z"/>
	
		<use xlink:href="#FlashAICB_x2F_backhill3_blue_x2F__x3C_Path_x3E__x5F_38"  width="65.469" height="5.45" x="-0.006" y="-5.45" transform="matrix(1 0 0 -1 134.7002 1.8501)" style="overflow:visible;opacity:0.5;enable-background:new    ;"/>
</g>
</svg>
