<?xml version="1.0" encoding="iso-8859-1"?>
<!-- Generator: Adobe Illustrator 15.1.0, SVG Export Plug-In . SVG Version: 6.00 Build 0)  -->
<!DOCTYPE svg PUBLIC "-//W3C//DTD SVG 1.1//EN" "http://www.w3.org/Graphics/SVG/1.1/DTD/svg11.dtd">
<svg version="1.1" id="background_green_bump_1" xmlns="http://www.w3.org/2000/svg" xmlns:xlink="http://www.w3.org/1999/xlink"
	 x="0px" y="0px" width="1494.25px" height="86.3px" viewBox="0 0 1494.25 86.3" style="enable-background:new 0 0 1494.25 86.3;"
	 xml:space="preserve">
<linearGradient id="SVGID_1_" gradientUnits="userSpaceOnUse" x1="-87.0347" y1="747.126" x2="-0.7597" y2="747.126" gradientTransform="matrix(1.159084e-005 -1 1 -0.001 -1.319528e-004 4.371130e-004)">
	<stop  offset="0" style="stop-color:#54523D"/>
	<stop  offset="0.0431" style="stop-color:#514F3B"/>
	<stop  offset="0.6627" style="stop-color:#302F20"/>
	<stop  offset="1" style="stop-color:#242316"/>
</linearGradient>
<path style="fill-rule:evenodd;clip-rule:evenodd;fill:url(#SVGID_1_);" d="M233.9,10.25c15.5-0.167,41.983,1.1,79.45,3.8
	c18.667,1.333,36.35,2.65,53.05,3.95c10.567-0.567,24.733-1.75,42.5-3.55c30.967-3.133,47.1-4.767,48.4-4.9
	c43-4,82.184-5.617,117.55-4.85c66,1.433,134.55,4.133,205.65,8.1c31.367,1.767,52.667,2.883,63.9,3.35
	c20.433,0.833,38.967,1.117,55.6,0.85l5.05-0.1c15.334-0.367,30.9-1.433,46.7-3.2c4.733-0.534,18.684-2.35,41.85-5.45
	c37.634-5.067,75.634-7.817,114-8.25c6.101-0.067,14.768,1.683,26,5.25c6.867,2.167,19.551,6.3,38.051,12.4
	c41.899,12.733,88.583,20.617,140.05,23.65c61.633,6.566,110.383,16.05,146.25,28.45c10.967,3.8,20.267,7.717,27.899,11.75
	c3.733,2,6.533,3.6,8.4,4.8H0C0,80.4,7.45,73.116,22.35,64.45c14.5-8.434,33.433-16.7,56.8-24.8
	c24.467-8.467,49.684-15.283,75.65-20.45C183.533,13.5,209.9,10.517,233.9,10.25z"/>
</svg>
