<?xml version="1.0" encoding="iso-8859-1"?>
<!-- Generator: Adobe Illustrator 15.1.0, SVG Export Plug-In . SVG Version: 6.00 Build 0)  -->
<!DOCTYPE svg PUBLIC "-//W3C//DTD SVG 1.1//EN" "http://www.w3.org/Graphics/SVG/1.1/DTD/svg11.dtd">
<svg version="1.1" id="background_brown_bump_2" xmlns="http://www.w3.org/2000/svg" xmlns:xlink="http://www.w3.org/1999/xlink"
	 x="0px" y="0px" width="1131.85px" height="76.35px" viewBox="0 0 1131.85 76.35"
	 style="enable-background:new 0 0 1131.85 76.35;" xml:space="preserve">
<linearGradient id="SVGID_1_" gradientUnits="userSpaceOnUse" x1="-76.8911" y1="565.9268" x2="-0.5411" y2="565.9268" gradientTransform="matrix(1.309758e-005 -1 1 -0.001 -2.001064e-004 -2.020326e-004)">
	<stop  offset="0" style="stop-color:#4E3B2C"/>
	<stop  offset="0.3216" style="stop-color:#483528"/>
	<stop  offset="0.7569" style="stop-color:#37271C"/>
	<stop  offset="1" style="stop-color:#2A1C12"/>
</linearGradient>
<path style="fill-rule:evenodd;clip-rule:evenodd;fill:url(#SVGID_1_);" d="M1042.45,37.35c40.6,8.6,70.399,21.6,89.399,39H0
	C31.333,44.517,74.367,22.8,129.1,11.2C184.8-0.633,257.6-3.083,347.5,3.85c25.7,2,55.667,3.667,89.9,5
	c14.967,0.566,45.117,1.533,90.45,2.9c75.367,2.267,130.65,5.333,165.85,9.2c18.066,2,50.899,2.867,98.5,2.6
	c60-0.3,102.217-0.033,126.649,0.8C968.75,26.117,1009.95,30.45,1042.45,37.35z"/>
</svg>
