<?xml version="1.0" encoding="iso-8859-1"?>
<!-- Generator: Adobe Illustrator 15.1.0, SVG Export Plug-In . SVG Version: 6.00 Build 0)  -->
<!DOCTYPE svg PUBLIC "-//W3C//DTD SVG 1.1//EN" "http://www.w3.org/Graphics/SVG/1.1/DTD/svg11.dtd">
<svg version="1.1" id="background" xmlns="http://www.w3.org/2000/svg" xmlns:xlink="http://www.w3.org/1999/xlink" x="0px" y="0px"
	 width="1730.75px" height="128.35px" viewBox="0 0 1730.75 128.35" style="enable-background:new 0 0 1730.75 128.35;"
	 xml:space="preserve">
<symbol  id="FlashAICB_x2F_background_x2F__x3C_Path_x3E_" viewBox="0 -128.35 1730.75 128.356">
	<g id="Layer_1_2_">
		
			<linearGradient id="SVGID_1_" gradientUnits="userSpaceOnUse" x1="15332.0996" y1="-1665.312" x2="15460.4248" y2="-1665.312" gradientTransform="matrix(7.792714e-006 1 -1 -0.001 -800.0571 -15462.127)">
			<stop  offset="0" style="stop-color:#FFFFFF;stop-opacity:0"/>
			<stop  offset="0.1765" style="stop-color:#D1D2C9;stop-opacity:0.2431"/>
			<stop  offset="0.3882" style="stop-color:#A0A08E;stop-opacity:0.5098"/>
			<stop  offset="0.5882" style="stop-color:#787960;stop-opacity:0.7216"/>
			<stop  offset="0.7608" style="stop-color:#5C5D3E;stop-opacity:0.8706"/>
			<stop  offset="0.9059" style="stop-color:#4B4C2A;stop-opacity:0.9647"/>
			<stop  offset="1" style="stop-color:#444623"/>
		</linearGradient>
		<path style="fill-rule:evenodd;clip-rule:evenodd;fill:url(#SVGID_1_);" d="M1624.55-0.05c14.934,0.7,36.817-6.4,65.65-21.3
			c14.433-7.467,27.366-15,38.8-22.6l1.75-81.05l-388.15-3.35v2.3l-264.9-2.3v2.4l-276.65-2.4v0.2l-22.35-0.2v1.45l-166.6-1.45v0.6
			l-69.7-0.6v0.05l-6.2-0.05v2.6l-299-2.6l-0.05,1.45L70.6-128.35v0.6l-69.75-0.6L0-22c7.4,3.5,17.1,6.767,29.1,9.8
			c23.933,6.034,49.05,7.833,75.35,5.4c4.667-0.434,9.267-0.934,13.8-1.5c17.967,2.8,36.6,3.3,55.9,1.5
			c12.4-1.167,24.25-2.717,35.55-4.65c8.333-1.433,17.133-3.233,26.4-5.4c11.1,6.233,17.533,9.733,19.3,10.5
			c8.434,3.733,17.55,5.833,27.35,6.3c8.067,0.367,18.2-1.567,30.4-5.8c4.467,0.1,8.783,0.083,12.95-0.05
			c8.066,3.467,16.867,5.417,26.4,5.85C366.9,0.617,387.833-6,415.3-19.9c7.767-1.867,13.767-3.133,18-3.8
			c5.867-0.9,11.3-1.183,16.3-0.85c5.433,0.367,10.867,1.8,16.3,4.3c2.2,1,6.983,3.65,14.35,7.95c6.167,3.6,11.617,6.25,16.35,7.95
			c6.933,2.5,14.433,3.934,22.5,4.3C530.3,0.483,545.667-3.5,565.2-12c17.633,4.4,36.083,6.467,55.35,6.2
			c8.267,0.167,16.733-0.167,25.4-1c4.667-0.434,9.267-0.934,13.8-1.5c17.934,2.8,36.583,3.3,55.95,1.5
			c19.433-1.8,38.583-4.817,57.45-9.05c9.034,5.233,15.233,8.567,18.6,10c8.1,3.4,16.867,5.333,26.3,5.8
			c1.833,0.066,3.534,0.05,5.1-0.05l1.15,0.05c8.034,0.367,18.15-1.567,30.35-5.8c4.467,0.1,8.784,0.083,12.95-0.05
			c8.066,3.467,16.867,5.417,26.4,5.85c10.8,0.5,25.467-3.184,44-11.05c10.2-1.7,21.717-4.1,34.55-7.2
			c12.3-2.967,20.517-4.767,24.65-5.4c4.366,0.934,9.017,2.7,13.95,5.3c2.9,1.533,7.3,4.05,13.2,7.55
			c11.7,6.6,23.783,10.2,36.25,10.8c3.633,0.2,7.867-0.133,12.7-1c3.134,0.533,6.367,0.867,9.7,1c9.7,0.433,22.566-2.517,38.6-8.85
			c19.466,3.3,39.367,4,59.7,2.1c22.1-2.067,45.05-5.967,68.85-11.7c10.5-2.533,17.633-4.133,21.4-4.8
			c6.833-1.2,13.034-1.617,18.6-1.25c5.434,0.367,10.867,1.8,16.3,4.3c2.2,1,6.983,3.65,14.35,7.95
			c6.134,3.6,11.583,6.25,16.35,7.95c6.934,2.5,14.417,3.934,22.45,4.3c9.133,0.4,20.917-2.117,35.35-7.55
			c16.8,2.133,33.883,2.4,51.25,0.8c22.1-2.067,45.05-5.967,68.85-11.7c10.534-2.533,17.667-4.133,21.4-4.8
			c6.833-1.2,13.033-1.617,18.6-1.25c5.434,0.367,10.867,1.8,16.3,4.3c2.2,1,6.983,3.65,14.35,7.95
			c6.167,3.6,11.616,6.25,16.35,7.95C1608.983-1.85,1616.483-0.417,1624.55-0.05z"/>
	</g>
</symbol>
<path style="fill-rule:evenodd;clip-rule:evenodd;fill:#46462C;" d="M1624.55,0.05c14.934-0.7,36.817,6.4,65.65,21.3
	c14.433,7.467,27.366,15,38.8,22.6l1.75,81.05l-388.15,3.35v-2.3l-264.899,2.3v-2.399l-276.65,2.399v-0.199l-22.35,0.199V126.9
	l-166.6,1.449v-0.6l-69.7,0.6v-0.05l-6.2,0.05v-2.6l-299,2.6l-0.05-1.449L70.6,128.35v-0.6l-69.75,0.6L0,22
	c7.4-3.5,17.1-6.767,29.1-9.8c23.933-6.034,49.05-7.833,75.35-5.4c4.667,0.434,9.267,0.934,13.8,1.5c17.967-2.8,36.6-3.3,55.9-1.5
	c12.4,1.167,24.25,2.717,35.55,4.65c8.333,1.433,17.133,3.233,26.4,5.4c11.1-6.233,17.533-9.733,19.3-10.5
	c8.434-3.733,17.55-5.833,27.35-6.3c8.067-0.367,18.2,1.567,30.4,5.8c4.467-0.1,8.783-0.083,12.95,0.05
	c8.066-3.467,16.867-5.417,26.4-5.85C366.9-0.617,387.833,6,415.3,19.9c7.767,1.867,13.767,3.133,18,3.8
	c5.867,0.9,11.3,1.183,16.3,0.85c5.433-0.367,10.867-1.8,16.3-4.3c2.2-1,6.983-3.65,14.35-7.95c6.167-3.6,11.617-6.25,16.35-7.95
	c6.933-2.5,14.433-3.934,22.5-4.3C530.3-0.483,545.667,3.5,565.2,12c17.633-4.4,36.083-6.467,55.35-6.2
	c8.267-0.167,16.733,0.167,25.4,1c4.667,0.434,9.267,0.934,13.8,1.5c17.934-2.8,36.583-3.3,55.95-1.5
	c19.433,1.8,38.583,4.817,57.45,9.05c9.034-5.233,15.233-8.567,18.6-10c8.1-3.4,16.867-5.333,26.3-5.8
	c1.833-0.066,3.534-0.05,5.1,0.05l1.15-0.05c8.034-0.367,18.15,1.567,30.35,5.8c4.467-0.1,8.784-0.083,12.95,0.05
	c8.067-3.467,16.867-5.417,26.4-5.85c10.8-0.5,25.467,3.184,44,11.05c10.2,1.7,21.717,4.1,34.55,7.2
	c12.3,2.967,20.517,4.767,24.65,5.4c4.366-0.934,9.017-2.7,13.95-5.3c2.899-1.533,7.3-4.05,13.199-7.55
	c11.7-6.6,23.783-10.2,36.25-10.8c3.634-0.2,7.867,0.133,12.7,1c3.134-0.533,6.367-0.867,9.7-1c9.7-0.433,22.566,2.517,38.6,8.85
	c19.467-3.3,39.367-4,59.7-2.1c22.101,2.067,45.05,5.967,68.851,11.7c10.5,2.533,17.633,4.133,21.399,4.8
	c6.833,1.2,13.033,1.617,18.601,1.25c5.433-0.367,10.866-1.8,16.3-4.3c2.2-1,6.983-3.65,14.35-7.95
	c6.134-3.6,11.583-6.25,16.351-7.95c6.933-2.5,14.416-3.934,22.449-4.3c9.134-0.4,20.917,2.117,35.351,7.55
	c16.8-2.133,33.883-2.4,51.25-0.8c22.1,2.067,45.05,5.967,68.85,11.7c10.533,2.533,17.667,4.133,21.4,4.8
	c6.833,1.2,13.033,1.617,18.6,1.25c5.434-0.367,10.867-1.8,16.3-4.3c2.2-1,6.983-3.65,14.351-7.95c6.167-3.6,11.616-6.25,16.35-7.95
	C1608.983,1.85,1616.483,0.417,1624.55,0.05z"/>
<use xlink:href="#FlashAICB_x2F_background_x2F__x3C_Path_x3E_"  width="1730.75" height="128.356" y="-128.35" transform="matrix(1 0 0 -1 0 0)" style="overflow:visible;opacity:0.6016;enable-background:new    ;"/>
</svg>
