<?xml version="1.0" encoding="iso-8859-1"?>
<!-- Generator: Adobe Illustrator 15.1.0, SVG Export Plug-In . SVG Version: 6.00 Build 0)  -->
<!DOCTYPE svg PUBLIC "-//W3C//DTD SVG 1.1//EN" "http://www.w3.org/Graphics/SVG/1.1/DTD/svg11.dtd">
<svg version="1.1" id="FlashAICB" xmlns="http://www.w3.org/2000/svg" xmlns:xlink="http://www.w3.org/1999/xlink" x="0px" y="0px"
	 width="205px" height="62.7px" viewBox="0 0 205 62.7" style="enable-background:new 0 0 205 62.7;" xml:space="preserve">
<path style="fill-rule:evenodd;clip-rule:evenodd;fill:#403121;" d="M4.3,30.5c1.034-2.833,1.917-5.583,2.65-8.25l0.75-3.2l51.4,2.8
	l19.75-1.9c15.833-1.4,30.433-2.5,43.8-3.3c42.699-2.533,64.883-1.517,66.55,3.05c1.934,5.267,5.149,10.866,9.649,16.8
	c2.233,3,4.284,5.45,6.15,7.35l-2.3,2.65c-2,1.833-4.233,3-6.7,3.5c-2.134,0.467-5.85,1.1-11.15,1.9c-0.767,0.1-2.8,0.633-6.1,1.6
	c-3.1,0.934-6.75,1.634-10.95,2.1c-3.866,0.434-7.967,0.584-12.3,0.45c-4.1-0.166-7.116-0.116-9.05,0.15
	c-2.7,0.399-4.9,1.25-6.601,2.55c-0.866,0.634-1.449,1.233-1.75,1.8c-1.466-0.2-4.767-0.2-9.899,0
	c-12.667,0.5-23.517,1.117-32.55,1.851c-7.2,0.6-14.933,0.35-23.2-0.75c-7.567-0.967-13.767-2.367-18.6-4.2
	c-3.167-1.2-6.967-3-11.4-5.4c-3.867-2.1-6.367-3.3-7.5-3.6c-1.633-0.4-4.284-0.667-7.95-0.8c-2.167-0.067-5.6-0.101-10.3-0.101
	c-2.833,0-6.467-1.033-10.9-3.1L0,41.35C1.233,38.684,2.667,35.066,4.3,30.5z"/>
<path style="fill-rule:evenodd;clip-rule:evenodd;fill:#4C3B2A;" d="M33.15,10.6C45.217,8.833,57.333,6.883,69.5,4.75
	c34.7-6.033,65.083-6.316,91.15-0.85c9.767,2.034,17.833,4.684,24.199,7.95c5.567,2.867,8.65,5.483,9.25,7.85
	c0.233,2.633-2.449,4.633-8.05,6c-7.066,1.733-17.566,1.917-31.5,0.55c-5.166,3.6-11.633,5.8-19.399,6.6
	c-8.4,0.2-14.217,0.384-17.45,0.551c-4.601,0.199-10.783,0.967-18.55,2.3c-6.4,1.1-12.417,1.55-18.05,1.35
	c-3.967,0.967-11.217,0.117-21.75-2.55c-15.367-3.934-23.583-5.983-24.65-6.15c-10.934-1.133-18.35-1.983-22.25-2.55
	c-6.434-0.866-9.483-2.633-9.15-5.3c0.267-2.2,0.95-3.7,2.05-4.5c1.267-0.9,4-1.717,8.2-2.45
	C14.783,13.316,21.317,12.333,33.15,10.6z"/>
</svg>
