<?xml version="1.0" encoding="iso-8859-1"?>
<!-- Generator: Adobe Illustrator 15.1.0, SVG Export Plug-In . SVG Version: 6.00 Build 0)  -->
<!DOCTYPE svg PUBLIC "-//W3C//DTD SVG 1.1//EN" "http://www.w3.org/Graphics/SVG/1.1/DTD/svg11.dtd">
<svg version="1.1" id="backhill1_blue" xmlns="http://www.w3.org/2000/svg" xmlns:xlink="http://www.w3.org/1999/xlink" x="0px"
	 y="0px" width="299.4px" height="133.1px" viewBox="0 0 299.4 133.1" style="enable-background:new 0 0 299.4 133.1;"
	 xml:space="preserve">
<symbol  id="FlashAICB_x2F_backhill1_blue_x2F__x3C_Clip_Group_0_x3E_" viewBox="0 -127.201 299.4 127.161">
	<g id="Layer_1_44_">
	</g>
	<g>
		<defs>
			<path id="SVGID_1_" d="M232.65-77.05c-2.433,20.667-5.4,36.05-8.9,46.15c-3.633,10.566-8.733,18.066-15.3,22.5
				c-5.9,4-14.65,6.467-26.25,7.4c-4.467,0.367-18.35,0.667-41.65,0.9c-20.533,0.2-35.033-0.1-43.5-0.9
				C84.283-2.233,74.367-5.017,67.3-9.35c-7.867-4.833-13.683-12.4-17.45-22.7c-3.867-10.5-6.117-25.133-6.75-43.9
				c-0.3-9.033,0.133-16,1.3-20.9c1.6-6.467,4.817-11.7,9.65-15.7c10.833-8.867,33.8-13.7,68.9-14.5
				c45.5-1.034,76.517,3.216,93.05,12.75c7.333,4.233,12.283,9.667,14.85,16.3C233.017-92.367,233.617-85.383,232.65-77.05z"/>
		</defs>
		<clipPath id="SVGID_2_">
			<use xlink:href="#SVGID_1_"  style="overflow:visible;"/>
		</clipPath>
		<g id="Layer_3_1_" style="clip-path:url(#SVGID_2_);">
			<g>
				
					<use xlink:href="#FlashAICB_x2F_backhill1_blue_x2F__x3C_Path_x3E__x5F_36"  width="130.65" height="5.62" y="-5.62" transform="matrix(1 0 0 1 37.1001 -53.75)" style="overflow:visible;opacity:0.3008;enable-background:new    ;"/>
				
					<use xlink:href="#FlashAICB_x2F_backhill1_blue_x2F__x3C_Path_x3E__x5F_35"  width="130.5" height="5.085" y="-5.085" transform="matrix(1 0 0 1 127.7002 -58.1001)" style="overflow:visible;opacity:0.3008;enable-background:new    ;"/>
				
					<use xlink:href="#FlashAICB_x2F_backhill1_blue_x2F__x3C_Path_x3E__x5F_34"  width="133.85" height="5.335" y="-5.335" transform="matrix(1 0 0 1 100.6499 -47.5)" style="overflow:visible;opacity:0.1016;enable-background:new    ;"/>
				
					<use xlink:href="#FlashAICB_x2F_backhill1_blue_x2F__x3C_Path_x3E__x5F_33"  width="135.15" height="8.557" y="-8.557" transform="matrix(1 0 0 1 16.1499 -38.4502)" style="overflow:visible;opacity:0.1992;enable-background:new    ;"/>
				
					<use xlink:href="#FlashAICB_x2F_backhill1_blue_x2F__x3C_Path_x3E__x5F_32"  width="70.15" height="4.192" y="-4.192" transform="matrix(1 0 0 1 167.8496 -52.7002)" style="overflow:visible;opacity:0.3008;enable-background:new    ;"/>
				
					<use xlink:href="#FlashAICB_x2F_backhill1_blue_x2F__x3C_Path_x3E__x5F_31"  width="111.1" height="9.4" y="-9.4" transform="matrix(1 0 0 1 38.5498 -22.5)" style="overflow:visible;opacity:0.3008;enable-background:new    ;"/>
				
					<use xlink:href="#FlashAICB_x2F_backhill1_blue_x2F__x3C_Path_x3E__x5F_30"  width="69.85" height="5.9" y="-5.9" transform="matrix(1 0 0 1 26.7002 -47.75)" style="overflow:visible;opacity:0.3008;enable-background:new    ;"/>
				
					<use xlink:href="#FlashAICB_x2F_backhill1_blue_x2F__x3C_Path_x3E__x5F_29"  width="75.1" height="5.532" y="-5.532" transform="matrix(1 0 0 1 150.4502 -24.9502)" style="overflow:visible;opacity:0.3008;enable-background:new    ;"/>
				
					<use xlink:href="#FlashAICB_x2F_backhill1_blue_x2F__x3C_Path_x3E__x5F_28"  width="128.35" height="5.838" y="-5.838" transform="matrix(1 0 0 1 87.75 -20.5498)" style="overflow:visible;opacity:0.3008;enable-background:new    ;"/>
				
					<use xlink:href="#FlashAICB_x2F_backhill1_blue_x2F__x3C_Path_x3E__x5F_27"  width="74.65" height="3.856" y="-3.856" transform="matrix(1 0 0 1 64.8999 -12.5)" style="overflow:visible;opacity:0.1016;enable-background:new    ;"/>
				
					<use xlink:href="#FlashAICB_x2F_backhill1_blue_x2F__x3C_Path_x3E__x5F_26"  width="75.15" height="5.636" y="-5.636" transform="matrix(1 0 0 1 142.75 -12.4502)" style="overflow:visible;opacity:0.3008;enable-background:new    ;"/>
				
					<use xlink:href="#FlashAICB_x2F_backhill1_blue_x2F__x3C_Path_x3E__x5F_25"  width="98.2" height="3.65" y="-3.65" transform="matrix(1 0 0 1 97.25 -6.0498)" style="overflow:visible;opacity:0.3008;enable-background:new    ;"/>
				
					<use xlink:href="#FlashAICB_x2F_backhill1_blue_x2F__x3C_Path_x3E__x5F_24"  width="102.35" height="5.5" y="-5.5" transform="matrix(1 0 0 1 25.1001 -60.9502)" style="overflow:visible;opacity:0.1992;enable-background:new    ;"/>
				
					<use xlink:href="#FlashAICB_x2F_backhill1_blue_x2F__x3C_Path_x3E__x5F_23"  width="123.55" height="4.525" y="-4.525" transform="matrix(1 0 0 1 64.1001 -74.4502)" style="overflow:visible;opacity:0.3008;enable-background:new    ;"/>
				
					<use xlink:href="#FlashAICB_x2F_backhill1_blue_x2F__x3C_Path_x3E__x5F_22"  width="123.85" height="5.16" y="-5.16" transform="matrix(1 0 0 1 129.6499 -76.5996)" style="overflow:visible;opacity:0.1992;enable-background:new    ;"/>
				
					<use xlink:href="#FlashAICB_x2F_backhill1_blue_x2F__x3C_Path_x3E__x5F_21"  width="138" height="7.856" y="-7.856" transform="matrix(1 0 0 1 161.4004 -38.6499)" style="overflow:visible;opacity:0.3008;enable-background:new    ;"/>
				
					<use xlink:href="#FlashAICB_x2F_backhill1_blue_x2F__x3C_Path_x3E__x5F_20"  width="138.25" height="3.48" y="-3.48" transform="matrix(1 0 0 1 94.3999 -35.5498)" style="overflow:visible;opacity:0.1992;enable-background:new    ;"/>
				
					<use xlink:href="#FlashAICB_x2F_backhill1_blue_x2F__x3C_Path_x3E__x5F_19"  width="126.8" height="5.475" y="-5.475" transform="matrix(1 0 0 1 103.8501 -67.1504)" style="overflow:visible;opacity:0.3008;enable-background:new    ;"/>
				
					<use xlink:href="#FlashAICB_x2F_backhill1_blue_x2F__x3C_Path_x3E__x5F_18"  width="66.55" height="5.002" y="-5.002" transform="matrix(1 0 0 1 13 -66.7998)" style="overflow:visible;opacity:0.3008;enable-background:new    ;"/>
				
					<use xlink:href="#FlashAICB_x2F_backhill1_blue_x2F__x3C_Path_x3E__x5F_17"  width="64.6" height="4.8" y="-4.8" transform="matrix(1 0 0 1 32.5498 -76.2998)" style="overflow:visible;opacity:0.1992;enable-background:new    ;"/>
				
					<use xlink:href="#FlashAICB_x2F_backhill1_blue_x2F__x3C_Path_x3E__x5F_16"  width="119.3" height="5.555" y="-5.555" transform="matrix(1 0 0 1 126.6001 -88.75)" style="overflow:visible;opacity:0.3008;enable-background:new    ;"/>
				
					<use xlink:href="#FlashAICB_x2F_backhill1_blue_x2F__x3C_Path_x3E__x5F_15"  width="119.4" height="3.2" y="-3.2" transform="matrix(1 0 0 1 27.5 -88.7998)" style="overflow:visible;opacity:0.3008;enable-background:new    ;"/>
				
					<use xlink:href="#FlashAICB_x2F_backhill1_blue_x2F__x3C_Path_x3E__x5F_14"  width="120" height="3.214" y="-3.214" transform="matrix(1 0 0 1 54.8999 -85.4004)" style="overflow:visible;opacity:0.3008;enable-background:new    ;"/>
				
					<use xlink:href="#FlashAICB_x2F_backhill1_blue_x2F__x3C_Path_x3E__x5F_13"  width="64.45" height="5.462" y="-5.462" transform="matrix(1 0 0 1 165.5996 -82.0498)" style="overflow:visible;opacity:0.1992;enable-background:new    ;"/>
				
					<use xlink:href="#FlashAICB_x2F_backhill1_blue_x2F__x3C_Path_x3E__x5F_12"  width="62.95" height="5.162" y="-5.162" transform="matrix(1 0 0 1 183.4502 -91.5996)" style="overflow:visible;opacity:0.1992;enable-background:new    ;"/>
				
					<use xlink:href="#FlashAICB_x2F_backhill1_blue_x2F__x3C_Path_x3E__x5F_11"  width="114.05" height="5.106" y="-5.106" transform="matrix(1 0 0 1 114.4502 -103.2002)" style="overflow:visible;opacity:0.1016;enable-background:new    ;"/>
				
					<use xlink:href="#FlashAICB_x2F_backhill1_blue_x2F__x3C_Path_x3E__x5F_10"  width="115" height="3.014" y="-3.014" transform="matrix(1 0 0 1 46.1001 -98.7002)" style="overflow:visible;opacity:0.1992;enable-background:new    ;"/>
				
					<use xlink:href="#FlashAICB_x2F_backhill1_blue_x2F__x3C_Path_x3E__x5F_9"  width="117.45" height="3.05" y="-3.05" transform="matrix(1 0 0 1 0 -93.7998)" style="overflow:visible;opacity:0.3008;enable-background:new    ;"/>
				
					<use xlink:href="#FlashAICB_x2F_backhill1_blue_x2F__x3C_Path_x3E__x5F_8"  width="113.4" height="5.86" y="-5.86" transform="matrix(1 0 0 1 14.7998 -101.8496)" style="overflow:visible;opacity:0.1992;enable-background:new    ;"/>
				
					<use xlink:href="#FlashAICB_x2F_backhill1_blue_x2F__x3C_Path_x3E__x5F_7"  width="61.4" height="4.954" y="-4.954" transform="matrix(1 0 0 1 164.25 -98.1504)" style="overflow:visible;opacity:0.3008;enable-background:new    ;"/>
				
					<use xlink:href="#FlashAICB_x2F_backhill1_blue_x2F__x3C_Path_x3E__x5F_6"  width="60.35" height="4.754" y="-4.754" transform="matrix(1 0 0 1 187.0498 -105.4004)" style="overflow:visible;opacity:0.1992;enable-background:new    ;"/>
				
					<use xlink:href="#FlashAICB_x2F_backhill1_blue_x2F__x3C_Path_x3E__x5F_5"  width="109.55" height="3.283" y="-3.283" transform="matrix(1 0 0 1 118 -116.5)" style="overflow:visible;opacity:0.3008;enable-background:new    ;"/>
				
					<use xlink:href="#FlashAICB_x2F_backhill1_blue_x2F__x3C_Path_x3E__x5F_4"  width="111.2" height="7.013" y="-7.013" transform="matrix(1 0 0 1 28.6001 -106.1504)" style="overflow:visible;opacity:0.3008;enable-background:new    ;"/>
				
					<use xlink:href="#FlashAICB_x2F_backhill1_blue_x2F__x3C_Path_x3E__x5F_3"  width="110" height="6.825" y="-6.825" transform="matrix(1 0 0 1 7.3501 -110.5996)" style="overflow:visible;opacity:0.1992;enable-background:new    ;"/>
				
					<use xlink:href="#FlashAICB_x2F_backhill1_blue_x2F__x3C_Path_x3E__x5F_2"  width="107.8" height="3.127" y="-3.127" transform="matrix(1 0 0 1 76.25 -119.2998)" style="overflow:visible;opacity:0.1016;enable-background:new    ;"/>
				
					<use xlink:href="#FlashAICB_x2F_backhill1_blue_x2F__x3C_Path_x3E__x5F_1_x5F_0"  width="58.95" height="3.75" y="-3.75" transform="matrix(1 0 0 1 166.2998 -111.7998)" style="overflow:visible;opacity:0.3008;enable-background:new    ;"/>
				
					<use xlink:href="#FlashAICB_x2F_backhill1_blue_x2F__x3C_Path_x3E__x5F_0"  width="56.75" height="3.5" y="-3.5" transform="matrix(1 0 0 1 148.3501 -122.2998)" style="overflow:visible;opacity:0.3008;enable-background:new    ;"/>
			</g>
			
				<use xlink:href="#FlashAICB_x2F_backhill1_blue_x2F__x3C_Path_x3E__x5F_1_x5F_1"  width="48.55" height="122.95" y="-122.95" transform="matrix(1 0 0 1 38.8999 -1.8999)" style="overflow:visible;opacity:0.25;enable-background:new    ;"/>
			
				<use xlink:href="#FlashAICB_x2F_backhill1_blue_x2F__x3C_Path_x3E__x5F_37"  width="61.511" height="120.85" y="-120.85" transform="matrix(1 0 0 1 173.7002 -5.5498)" style="overflow:visible;opacity:0.25;enable-background:new    ;"/>
		</g>
	</g>
	<g id="Layer_4_1_">
	</g>
</symbol>
<symbol  id="FlashAICB_x2F_backhill1_blue_x2F__x3C_Path_x3E_" viewBox="0.008 -127.201 190.089 127.161">
	<g id="Layer_1_3_">
		
			<linearGradient id="SVGID_3_" gradientUnits="userSpaceOnUse" x1="16048.748" y1="-176.9893" x2="16175.918" y2="-176.9893" gradientTransform="matrix(7.861636e-006 1 -1 -0.001 -82.0635 -16176.125)">
			<stop  offset="0" style="stop-color:#B1B3B1"/>
			<stop  offset="0.0588" style="stop-color:#C2C4C2"/>
			<stop  offset="0.1843" style="stop-color:#E3E4E3"/>
			<stop  offset="0.2902" style="stop-color:#F8F8F8"/>
			<stop  offset="0.3608" style="stop-color:#FFFFFF"/>
			<stop  offset="0.6431" style="stop-color:#D8DDDB"/>
			<stop  offset="1" style="stop-color:#A1ACA9"/>
		</linearGradient>
		<path style="fill-rule:evenodd;clip-rule:evenodd;fill:url(#SVGID_3_);" d="M180.75-30.9c3.5-10.1,6.467-25.483,8.9-46.15
			c0.967-8.333,0.367-15.317-1.8-20.95c-2.567-6.633-7.517-12.067-14.85-16.3c-16.533-9.534-47.55-13.784-93.05-12.75
			c-35.1,0.8-58.067,5.633-68.9,14.5c-4.833,4-8.05,9.233-9.65,15.7c-1.167,4.9-1.6,11.867-1.3,20.9
			c0.633,18.767,2.883,33.4,6.75,43.9c3.767,10.3,9.583,17.867,17.45,22.7C31.367-5.017,41.283-2.233,54.05-1
			c8.467,0.8,22.967,1.1,43.5,0.9c23.3-0.233,37.184-0.533,41.65-0.9c11.6-0.933,20.35-3.4,26.25-7.4
			C172.017-12.833,177.117-20.333,180.75-30.9z"/>
	</g>
</symbol>
<symbol  id="FlashAICB_x2F_backhill1_blue_x2F__x3C_Path_x3E__x5F_0" viewBox="0 -3.5 56.75 3.5">
	<g id="Layer_1_40_">
		<path style="fill-rule:evenodd;clip-rule:evenodd;fill:#A1B5AA;" d="M56.75,0c-0.367-0.2-1.1-0.433-2.2-0.7
			c-2.2-0.5-5.1-0.85-8.7-1.05c-10.533-0.733-16.934-1.133-19.2-1.2c-0.933,0-2.733-0.1-5.4-0.3C18.75-3.417,16.667-3.5,15-3.5
			c-3.033,0-8.033,0.267-15,0.8c9.067-0.4,14.183-0.316,15.35,0.25c0.667,0.333,2.7,0.517,6.1,0.55c6,0.066,9.867,0.133,11.6,0.2
			C39.15-1.467,47.05-0.9,56.75,0z"/>
	</g>
</symbol>
<symbol  id="FlashAICB_x2F_backhill1_blue_x2F__x3C_Path_x3E__x5F_1" viewBox="0.008 -127.201 190.089 127.161">
	<g id="Layer_1_2_">
		<linearGradient id="SVGID_4_" gradientUnits="userSpaceOnUse" x1="0.0078" y1="-63.6206" x2="190.0972" y2="-63.6206">
			<stop  offset="0" style="stop-color:#B1B3B1"/>
			<stop  offset="0.0784" style="stop-color:#C2C4C2"/>
			<stop  offset="0.2471" style="stop-color:#E3E4E3"/>
			<stop  offset="0.3882" style="stop-color:#F8F8F8"/>
			<stop  offset="0.4863" style="stop-color:#FFFFFF"/>
			<stop  offset="0.7098" style="stop-color:#D8DDDB"/>
			<stop  offset="1" style="stop-color:#A1ACA9"/>
		</linearGradient>
		<path style="fill-rule:evenodd;clip-rule:evenodd;fill:url(#SVGID_4_);" d="M180.75-30.9c3.5-10.1,6.467-25.483,8.9-46.15
			c0.967-8.333,0.367-15.317-1.8-20.95c-2.567-6.633-7.517-12.067-14.85-16.3c-16.533-9.534-47.55-13.784-93.05-12.75
			c-35.1,0.8-58.067,5.633-68.9,14.5c-4.833,4-8.05,9.233-9.65,15.7c-1.167,4.9-1.6,11.867-1.3,20.9
			c0.633,18.767,2.883,33.4,6.75,43.9c3.767,10.3,9.583,17.867,17.45,22.7C31.367-5.017,41.283-2.233,54.05-1
			c8.467,0.8,22.967,1.1,43.5,0.9c23.3-0.233,37.184-0.533,41.65-0.9c11.6-0.933,20.35-3.4,26.25-7.4
			C172.017-12.833,177.117-20.333,180.75-30.9z"/>
	</g>
</symbol>
<symbol  id="FlashAICB_x2F_backhill1_blue_x2F__x3C_Path_x3E__x5F_10" viewBox="0 -3.014 115 3.014">
	<g id="Layer_1_30_">
		<path style="fill-rule:evenodd;clip-rule:evenodd;fill:#A1B5AA;" d="M115-1.3c-0.8-0.3-2.317-0.583-4.55-0.85
			c-4.5-0.567-10.383-0.833-17.65-0.8C71.567-3.05,58.65-3.033,54.05-2.9c-1.667,0.033-5.333,0.05-11,0.05
			c-4.966-0.033-9.183,0.033-12.65,0.2C24.267-2.35,14.133-1.467,0,0c4.6-0.367,9.35-0.683,14.25-0.95
			c9.8-0.533,15.467-0.566,17-0.1c1.433,0.433,5.567,0.5,12.4,0.2c12.267-0.467,20.1-0.733,23.5-0.8
			C79.483-1.85,95.433-1.733,115-1.3z"/>
	</g>
</symbol>
<symbol  id="FlashAICB_x2F_backhill1_blue_x2F__x3C_Path_x3E__x5F_11" viewBox="0 -5.106 114.05 5.106">
	<g id="Layer_1_29_">
		<path style="fill-rule:evenodd;clip-rule:evenodd;fill:#A1B5AA;" d="M114.05,0c-0.767-0.3-2.25-0.633-4.45-1
			c-4.434-0.767-10.283-1.3-17.55-1.6c-21.167-1.033-34.033-1.6-38.6-1.7c-1.3-0.034-4.9-0.2-10.8-0.5
			C37.783-5.033,33.6-5.133,30.1-5.1C24.033-5.1,14-4.717,0-3.95c18.167-0.566,28.4-0.433,30.7,0.4
			c1.367,0.466,5.433,0.716,12.2,0.75c12.2,0.1,19.983,0.2,23.35,0.3C78.55-2.133,94.483-1.3,114.05,0z"/>
	</g>
</symbol>
<symbol  id="FlashAICB_x2F_backhill1_blue_x2F__x3C_Path_x3E__x5F_12" viewBox="0 -5.162 62.95 5.162">
	<g id="Layer_1_28_">
		<path style="fill-rule:evenodd;clip-rule:evenodd;fill:#A1B5AA;" d="M62.95,0c-0.434-0.267-1.25-0.567-2.45-0.9
			c-2.467-0.633-5.7-1.117-9.7-1.45C37.033-3.55,29.933-4.167,29.5-4.2c-5.3-0.566-9.617-0.883-12.95-0.95
			C13.217-5.217,7.7-5.017,0-4.55c10-0.233,15.65,0,16.95,0.7c0.767,0.4,3.017,0.65,6.75,0.75c6.767,0.2,11.066,0.367,12.9,0.5
			C43.4-2.133,52.183-1.267,62.95,0z"/>
	</g>
</symbol>
<symbol  id="FlashAICB_x2F_backhill1_blue_x2F__x3C_Path_x3E__x5F_13" viewBox="0 -5.462 64.45 5.462">
	<g id="Layer_1_27_">
		<path style="fill-rule:evenodd;clip-rule:evenodd;fill:#A1B5AA;" d="M64.45,0c-0.4-0.267-1.233-0.583-2.5-0.95
			c-2.467-0.667-5.767-1.167-9.9-1.5c-11.933-1.2-19.2-1.85-21.8-1.95c-0.9-0.033-2.95-0.217-6.15-0.55
			c-2.767-0.3-5.117-0.466-7.05-0.5C13.617-5.517,7.933-5.3,0-4.8c10.3-0.233,16.1,0.017,17.4,0.75c0.767,0.433,3.05,0.7,6.85,0.8
			c6.933,0.233,11.333,0.417,13.2,0.55C44.417-2.233,53.417-1.333,64.45,0z"/>
	</g>
</symbol>
<symbol  id="FlashAICB_x2F_backhill1_blue_x2F__x3C_Path_x3E__x5F_14" viewBox="0 -3.214 120 3.214">
	<g id="Layer_1_26_">
		<path style="fill-rule:evenodd;clip-rule:evenodd;fill:#A1B5AA;" d="M120-1.35c-0.8-0.3-2.367-0.6-4.7-0.9
			c-4.633-0.633-10.716-0.933-18.25-0.9c-22.133-0.1-35.6-0.083-40.4,0.05c-1.633,0.033-5.433,0.033-11.4,0
			C40.083-3.133,35.667-3.05,32-2.85C25.6-2.517,14.933-1.567,0,0c4.833-0.4,9.833-0.733,15-1c10.3-0.567,16.217-0.6,17.75-0.1
			c1.433,0.467,5.717,0.55,12.85,0.25c12.833-0.5,21.017-0.783,24.55-0.85C83.05-1.933,99.667-1.817,120-1.35z"/>
	</g>
</symbol>
<symbol  id="FlashAICB_x2F_backhill1_blue_x2F__x3C_Path_x3E__x5F_15" viewBox="0 -3.2 119.4 3.2">
	<g id="Layer_1_25_">
		<path style="fill-rule:evenodd;clip-rule:evenodd;fill:#A1B5AA;" d="M119.4-1.35c-0.767-0.3-2.283-0.6-4.55-0.9
			c-4.533-0.6-10.55-0.883-18.05-0.85c-8.333-0.033-15.2-0.066-20.6-0.1c-10.133,0-16.65,0.034-19.55,0.1
			c-1.733,0.033-5.533,0.05-11.4,0.05c-5.167-0.034-9.567,0.033-13.2,0.2C25.65-2.517,14.967-1.567,0,0
			c4.833-0.4,9.817-0.733,14.95-1c10.3-0.567,16.183-0.6,17.65-0.1c1.4,0.467,5.667,0.55,12.8,0.25c12.8-0.5,20.967-0.783,24.5-0.85
			C82.733-1.933,99.233-1.817,119.4-1.35z"/>
	</g>
</symbol>
<symbol  id="FlashAICB_x2F_backhill1_blue_x2F__x3C_Path_x3E__x5F_16" viewBox="0 -5.555 119.3 5.555">
	<g id="Layer_1_24_">
		<path style="fill-rule:evenodd;clip-rule:evenodd;fill:#A1B5AA;" d="M119.3,0c-0.833-0.333-2.433-0.7-4.8-1.1
			c-4.7-0.8-10.85-1.367-18.45-1.7c-8.433-0.434-15.35-0.767-20.75-1C65.133-4.3,58.583-4.583,55.65-4.65
			C54.117-4.683,50.333-4.867,44.3-5.2c-5.133-0.267-9.5-0.383-13.1-0.35c-6.3,0-16.7,0.4-31.2,1.2C4.733-4.483,9.6-4.567,14.6-4.6
			c10.066-0.066,15.883,0.167,17.45,0.7c1.467,0.533,5.733,0.833,12.8,0.9c13.1,0.1,21.217,0.2,24.35,0.3
			C82.067-2.3,98.767-1.4,119.3,0z"/>
	</g>
</symbol>
<symbol  id="FlashAICB_x2F_backhill1_blue_x2F__x3C_Path_x3E__x5F_17" viewBox="0 -4.8 64.6 4.8">
	<g id="Layer_1_23_">
		<path style="fill-rule:evenodd;clip-rule:evenodd;fill:#A1B5AA;" d="M47.3-4.8c-1.933,0-4.316,0.117-7.15,0.35
			c-3.066,0.267-5.1,0.417-6.1,0.45C22.583-3.133,15.3-2.583,12.2-2.35C8.133-2.05,4.883-1.567,2.45-0.9C1.217-0.567,0.4-0.267,0,0
			c10.967-1.2,19.933-1.983,26.9-2.35c1.7-0.066,6.117-0.167,13.25-0.3c3.867-0.033,6.167-0.267,6.9-0.7
			c1.267-0.767,7.117-0.917,17.55-0.45C56.533-4.467,50.767-4.8,47.3-4.8z"/>
	</g>
</symbol>
<symbol  id="FlashAICB_x2F_backhill1_blue_x2F__x3C_Path_x3E__x5F_18" viewBox="0 -5.002 66.55 5.002">
	<g id="Layer_1_22_">
		<path style="fill-rule:evenodd;clip-rule:evenodd;fill:#A1B5AA;" d="M41.5-4.65c-3.167,0.267-5.283,0.417-6.35,0.45
			c-1.5,0.067-5.133,0.333-10.9,0.8C17.783-2.867,13.933-2.567,12.7-2.5C8.5-2.2,5.117-1.683,2.55-0.95C1.283-0.617,0.433-0.3,0,0
			c11.333-1.267,20.583-2.083,27.75-2.45c1.733-0.1,6.3-0.2,13.7-0.3c3.966-0.067,6.333-0.333,7.1-0.8c1.3-0.767,7.3-0.917,18-0.45
			c-8.267-0.7-14.167-1.033-17.7-1C46.85-5,44.4-4.883,41.5-4.65z"/>
	</g>
</symbol>
<symbol  id="FlashAICB_x2F_backhill1_blue_x2F__x3C_Path_x3E__x5F_19" viewBox="0 -5.475 126.8 5.475">
	<g id="Layer_1_21_">
		<path style="fill-rule:evenodd;clip-rule:evenodd;fill:#A1B5AA;" d="M92.3-3.8c-3.933-0.3-8.617-0.483-14.05-0.55
			c-6.467-0.1-10.5-0.183-12.1-0.25c-3-0.133-9.9-0.283-20.7-0.45C31.85-5.25,24.6-5.367,23.7-5.4c-7.9-0.2-14.217,0-18.95,0.6
			C2.383-4.533,0.8-4.233,0-3.9C21.2-4,38.583-3.817,52.15-3.35c3.2,0.1,11.883,0.583,26.05,1.45c7.6,0.467,12.133,0.45,13.6-0.05
			c2.5-0.833,14.167-0.183,35,1.95C110.667-2.067,99.167-3.333,92.3-3.8z"/>
	</g>
</symbol>
<symbol  id="FlashAICB_x2F_backhill1_blue_x2F__x3C_Path_x3E__x5F_1_x5F_0" viewBox="0 -3.75 58.95 3.75">
	<g id="Layer_1_39_">
		<path style="fill-rule:evenodd;clip-rule:evenodd;fill:#A1B5AA;" d="M58.95,0c-0.4-0.233-1.167-0.483-2.3-0.75
			c-2.267-0.533-5.283-0.9-9.05-1.1c-10.967-0.767-17.633-1.183-20-1.25c-0.867-0.033-2.733-0.15-5.6-0.35
			c-2.567-0.2-4.733-0.3-6.5-0.3C12.367-3.717,7.2-3.433,0-2.9c9.367-0.4,14.667-0.3,15.9,0.3c0.733,0.333,2.85,0.533,6.35,0.6
			c6.5,0.067,10.517,0.133,12.05,0.2C40.667-1.533,48.883-0.933,58.95,0z"/>
	</g>
</symbol>
<symbol  id="FlashAICB_x2F_backhill1_blue_x2F__x3C_Path_x3E__x5F_1_x5F_1" viewBox="0 -122.95 48.55 122.95">
	<g id="Layer_1_41_">
		<path style="fill-rule:evenodd;clip-rule:evenodd;fill:#C4C6C5;" d="M1.25-91.95C0.417-87.617,0-81.683,0-74.15
			c0.033,25.533,3.85,43.833,11.45,54.9C18.617-8.817,30.983-2.4,48.55,0c-6.367-5.5-11.066-14.167-14.1-26
			c-3.034-11.767-4.767-27.967-5.2-48.6c-0.267-13.767,0.583-23.783,2.55-30.05c2.633-8.467,8.067-14.567,16.3-18.3
			c-20.434,2.7-34.017,8.3-40.75,16.8C4.383-102.383,2.35-97.65,1.25-91.95z"/>
	</g>
</symbol>
<symbol  id="FlashAICB_x2F_backhill1_blue_x2F__x3C_Path_x3E__x5F_2" viewBox="0 -3.127 107.8 3.127">
	<g id="Layer_1_38_">
		<path style="fill-rule:evenodd;clip-rule:evenodd;fill:#A1B5AA;" d="M107.8-1.85c-0.733-0.233-2.15-0.467-4.25-0.7
			C99.35-3.017,93.867-3.2,87.1-3.1c-7.567,0.033-13.783,0.05-18.65,0.05c-9.133,0.066-15.017,0.133-17.65,0.2
			c-1.466,0.033-4.9,0.067-10.3,0.1c-4.667,0-8.633,0.083-11.9,0.25C22.833-2.2,13.3-1.367,0,0c17.3-1.367,27.083-1.733,29.35-1.1
			c1.333,0.367,5.2,0.417,11.6,0.15C52.417-1.45,59.767-1.733,63-1.8C74.567-2.067,89.5-2.083,107.8-1.85z"/>
	</g>
</symbol>
<symbol  id="FlashAICB_x2F_backhill1_blue_x2F__x3C_Path_x3E__x5F_20" viewBox="0 -3.48 138.25 3.48">
	<g id="Layer_1_20_">
		<path style="fill-rule:evenodd;clip-rule:evenodd;fill:#A1B5AA;" d="M85.3-3.4c-6.867,0.133-11.25,0.183-13.15,0.15
			C68.95-3.317,61.433-3.267,49.6-3.1c-14.067,0.233-22,0.35-23.8,0.35c-8.633,0.067-15.533,0.533-20.7,1.4
			C2.533-0.917,0.833-0.483,0-0.05c23.2-0.9,42.217-1.3,57.05-1.2c3.7,0.033,13.217,0.3,28.55,0.8C93.9-0.183,98.8-0.367,100.3-1
			c1.6-0.7,8.4-0.733,20.4-0.1c6.033,0.3,11.883,0.667,17.55,1.1c-17.667-1.867-30.233-2.967-37.7-3.3
			C96.317-3.5,91.233-3.533,85.3-3.4z"/>
	</g>
</symbol>
<symbol  id="FlashAICB_x2F_backhill1_blue_x2F__x3C_Path_x3E__x5F_21" viewBox="0 -7.856 138 7.856">
	<g id="Layer_1_19_">
		<path style="fill-rule:evenodd;clip-rule:evenodd;fill:#A1B5AA;" d="M84.55-5.7C77.883-5.867,73.5-6.017,71.4-6.15
			C68.1-6.35,60.617-6.633,48.95-7c-15.534-0.467-23.4-0.7-23.6-0.7C16.817-8,10.033-7.867,5-7.3C2.5-7,0.833-6.667,0-6.3
			c22.867,0.2,41.667,0.667,56.4,1.4c3.7,0.2,13.2,0.883,28.5,2.05c8.333,0.667,13.25,0.717,14.75,0.15
			c1.6-0.6,8.467-0.333,20.6,0.8c6.1,0.566,12.017,1.2,17.75,1.9c-17.9-2.6-30.6-4.233-38.1-4.9C95.7-5.267,90.583-5.533,84.55-5.7z
			"/>
	</g>
</symbol>
<symbol  id="FlashAICB_x2F_backhill1_blue_x2F__x3C_Path_x3E__x5F_22" viewBox="0 -5.16 123.85 5.16">
	<g id="Layer_1_18_">
		<path style="fill-rule:evenodd;clip-rule:evenodd;fill:#A1B5AA;" d="M90-3.6c-3.867-0.267-8.45-0.433-13.75-0.5
			c-6.467-0.066-10.4-0.133-11.8-0.2c-2.934-0.133-9.667-0.284-20.2-0.45C30.983-4.95,23.9-5.067,23-5.1
			C15.3-5.267,9.15-5.083,4.55-4.55C2.283-4.25,0.767-3.95,0-3.65c20.667-0.1,37.617,0.066,50.85,0.5
			c3.467,0.133,11.983,0.6,25.55,1.4c7.434,0.433,11.85,0.417,13.25-0.05c2.367-0.8,13.767-0.2,34.2,1.8
			C108.017-1.933,96.733-3.133,90-3.6z"/>
	</g>
</symbol>
<symbol  id="FlashAICB_x2F_backhill1_blue_x2F__x3C_Path_x3E__x5F_23" viewBox="0 -4.525 123.55 4.525">
	<g id="Layer_1_17_">
		<path style="fill-rule:evenodd;clip-rule:evenodd;fill:#A1B5AA;" d="M108-3.1c5.333,0.133,10.517,0.333,15.55,0.6
			c-15.6-1.2-26.733-1.867-33.4-2c-3.7-0.067-8.233,0-13.6,0.2c-5.966,0.233-9.883,0.35-11.75,0.35
			c-2.9,0.034-9.633,0.217-20.2,0.55C31.4-2.933,24.283-2.683,23.25-2.65c-7.767,0.2-13.967,0.7-18.6,1.5
			C2.317-0.75,0.767-0.367,0,0c20.9-1.167,37.983-1.85,51.25-2.05c3.4-0.067,11.883-0.034,25.45,0.1
			c7.4,0.067,11.783-0.167,13.15-0.7C91.317-3.25,97.367-3.4,108-3.1z"/>
	</g>
</symbol>
<symbol  id="FlashAICB_x2F_backhill1_blue_x2F__x3C_Path_x3E__x5F_24" viewBox="0 -5.5 102.35 5.5">
	<g id="Layer_1_16_">
		<path style="fill-rule:evenodd;clip-rule:evenodd;fill:#A1B5AA;" d="M41.95-5.05c-3.267,0.3-5.4,0.466-6.4,0.5
			c-1.6,0.066-5.283,0.367-11.05,0.9C16.933-2.983,13.033-2.633,12.8-2.6C8.5-2.267,5.083-1.733,2.55-1C1.283-0.633,0.433-0.3,0,0
			c11.467-1.367,20.833-2.267,28.1-2.7c3.1-0.2,12.883-0.183,29.35,0.05C71.817-2.45,79.333-2.583,80-3.05
			c1.233-0.8,8.683-1.267,22.35-1.4C70.65-5.15,53-5.5,49.4-5.5C47.367-5.467,44.883-5.317,41.95-5.05z"/>
	</g>
</symbol>
<symbol  id="FlashAICB_x2F_backhill1_blue_x2F__x3C_Path_x3E__x5F_25" viewBox="0 -3.65 98.2 3.65">
	<g id="Layer_1_15_">
		<path style="fill-rule:evenodd;clip-rule:evenodd;fill:#A1B5AA;" d="M98.2,0C85.767-1.933,76.9-3.083,71.6-3.45
			c-2.967-0.2-6.567-0.25-10.8-0.15c-4.767,0.1-7.883,0.133-9.35,0.1c-2.3-0.067-7.65-0.017-16.05,0.15
			c-10.2,0.2-15.85,0.3-16.95,0.3C12.317-2.983,7.4-2.517,3.7-1.65C1.867-1.25,0.633-0.833,0-0.4
			c16.533-0.867,30.067-1.233,40.6-1.1c2.633,0.033,9.383,0.333,20.25,0.9c5.867,0.3,9.35,0.117,10.45-0.55
			c1.2-0.7,6.034-0.717,14.5-0.05C90.067-0.867,94.2-0.467,98.2,0z"/>
	</g>
</symbol>
<symbol  id="FlashAICB_x2F_backhill1_blue_x2F__x3C_Path_x3E__x5F_26" viewBox="0 -5.636 75.15 5.636">
	<g id="Layer_1_14_">
		<path style="fill-rule:evenodd;clip-rule:evenodd;fill:#A1B5AA;" d="M46.55-4.3c-3.633-0.1-6.033-0.2-7.2-0.3
			c-1.833-0.133-5.934-0.316-12.3-0.55c-6.8-0.2-11.1-0.333-12.9-0.4C9.45-5.75,5.683-5.6,2.85-5.1C1.45-4.833,0.5-4.55,0-4.25
			C12.6-4.25,22.917-4,30.95-3.5C33.117-3.367,38.267-2.867,46.4-2c4.467,0.467,7.15,0.483,8.05,0.05
			c1.533-0.8,8.433-0.15,20.7,1.95c-9.467-2-16.233-3.25-20.3-3.75C52.583-4.017,49.817-4.2,46.55-4.3z"/>
	</g>
</symbol>
<symbol  id="FlashAICB_x2F_backhill1_blue_x2F__x3C_Path_x3E__x5F_27" viewBox="0 -3.856 74.65 3.856">
	<g id="Layer_1_13_">
		<path style="fill-rule:evenodd;clip-rule:evenodd;fill:#A1B5AA;" d="M46.4-3.7c-3.767,0.2-6.133,0.3-7.1,0.3
			C37.567-3.433,33.483-3.3,27.05-3c-7.633,0.333-11.933,0.517-12.9,0.55C9.45-2.283,5.683-1.833,2.85-1.1
			C1.417-0.7,0.467-0.333,0,0c12.633-1,22.967-1.55,31-1.65c2.1-0.033,7.217,0.066,15.35,0.3c4.433,0.133,7.083-0.066,7.95-0.6
			c0.934-0.566,4.6-0.683,11-0.35c3.2,0.167,6.317,0.4,9.35,0.7c-9.333-1.267-16-2-20-2.2C52.35-3.9,49.6-3.867,46.4-3.7z"/>
	</g>
</symbol>
<symbol  id="FlashAICB_x2F_backhill1_blue_x2F__x3C_Path_x3E__x5F_28" viewBox="0 -5.838 128.35 5.838">
	<g id="Layer_1_12_">
		<path style="fill-rule:evenodd;clip-rule:evenodd;fill:#A1B5AA;" d="M112.1-3.1c5.566,0.333,10.983,0.75,16.25,1.25
			c-16.4-2.233-28.067-3.517-35-3.85c-3.934-0.2-8.633-0.183-14.1,0.05C72.917-5.383,68.867-5.267,67.1-5.3
			c-3.067-0.034-10.067,0.15-21,0.55c-14.167,0.533-21.517,0.8-22.05,0.8C16.017-3.717,9.6-2.983,4.8-1.75C2.4-1.15,0.8-0.567,0,0
			c5.4-0.4,11.667-0.783,18.8-1.15c14.267-0.8,25.7-1.217,34.3-1.25c3.833-0.033,12.667,0.183,26.5,0.65
			c7.7,0.267,12.233-0.033,13.6-0.9C94.667-3.583,100.967-3.733,112.1-3.1z"/>
	</g>
</symbol>
<symbol  id="FlashAICB_x2F_backhill1_blue_x2F__x3C_Path_x3E__x5F_29" viewBox="0 -5.532 75.1 5.532">
	<g id="Layer_1_11_">
		<path style="fill-rule:evenodd;clip-rule:evenodd;fill:#A1B5AA;" d="M46.5-4.3c-3.8-0.1-6.2-0.184-7.2-0.25
			c-1.8-0.133-5.9-0.3-12.3-0.5c-6.8-0.2-11.1-0.333-12.9-0.4c-4.7-0.2-8.45-0.033-11.25,0.5C1.417-4.683,0.467-4.4,0-4.1
			c12.6-0.033,22.917,0.2,30.95,0.7c2.1,0.133,7.25,0.617,15.45,1.45c4.5,0.467,7.184,0.467,8.05,0C55.983-2.75,62.867-2.1,75.1,0
			c-9.467-2.033-16.233-3.283-20.3-3.75C52.5-4.017,49.733-4.2,46.5-4.3z"/>
	</g>
</symbol>
<symbol  id="FlashAICB_x2F_backhill1_blue_x2F__x3C_Path_x3E__x5F_3" viewBox="0 -6.825 110 6.825">
	<g id="Layer_1_37_">
		<path style="fill-rule:evenodd;clip-rule:evenodd;fill:#A1B5AA;" d="M110-6c-0.733-0.233-2.15-0.433-4.25-0.6
			c-4.233-0.3-9.767-0.3-16.6,0c-20.2,0.8-32.5,1.35-36.9,1.65c-1.7,0.133-5.2,0.3-10.5,0.5C36.883-4.25,32.817-4,29.55-3.7
			C23.617-3.167,13.767-1.933,0,0c17.867-2.1,27.967-2.867,30.3-2.3c1.367,0.367,5.317,0.267,11.85-0.3
			C54.817-3.633,62.333-4.217,64.7-4.35C76.433-5.017,91.533-5.567,110-6z"/>
	</g>
</symbol>
<symbol  id="FlashAICB_x2F_backhill1_blue_x2F__x3C_Path_x3E__x5F_30" viewBox="0 -5.9 69.85 5.9">
	<g id="Layer_1_10_">
		<path style="fill-rule:evenodd;clip-rule:evenodd;fill:#A1B5AA;" d="M43.45-5.45c-3.5,0.367-5.717,0.567-6.65,0.6
			c-0.767,0.033-8.617,0.717-23.55,2.05C8.817-2.433,5.283-1.867,2.65-1.1C1.317-0.7,0.433-0.333,0,0
			c11.867-1.467,21.567-2.433,29.1-2.9c2.033-0.133,6.833-0.283,14.4-0.45c4.167-0.066,6.65-0.367,7.45-0.9
			c0.833-0.533,4.233-0.8,10.2-0.8c3,0,5.9,0.066,8.7,0.2c-8.733-0.7-14.967-1.05-18.7-1.05C49.017-5.867,46.45-5.717,43.45-5.45z"
			/>
	</g>
</symbol>
<symbol  id="FlashAICB_x2F_backhill1_blue_x2F__x3C_Path_x3E__x5F_31" viewBox="0 -9.4 111.1 9.4">
	<g id="Layer_1_9_">
		<path style="fill-rule:evenodd;clip-rule:evenodd;fill:#A1B5AA;" d="M81.1-9.4c-3.4,0-7.467,0.233-12.2,0.7
			c-5.433,0.5-8.933,0.784-10.5,0.85c-2.633,0.1-8.683,0.583-18.15,1.45c-12.367,1.133-18.767,1.717-19.2,1.75
			c-7.066,0.533-12.7,1.467-16.9,2.8C2.083-1.183,0.7-0.567,0,0c18.9-2.4,34.35-3.933,46.35-4.6c3.1-0.167,10.733-0.367,22.9-0.6
			c6.633-0.1,10.533-0.583,11.7-1.45c1.267-0.9,6.667-1.317,16.2-1.25c4.767,0.033,9.417,0.167,13.95,0.4
			C97.033-8.767,87.033-9.4,81.1-9.4z"/>
	</g>
</symbol>
<symbol  id="FlashAICB_x2F_backhill1_blue_x2F__x3C_Path_x3E__x5F_32" viewBox="0 -4.192 70.15 4.192">
	<g id="Layer_1_8_">
		<path style="fill-rule:evenodd;clip-rule:evenodd;fill:#A1B5AA;" d="M43.3-3.45c-3.667-0.066-5.9-0.117-6.7-0.15
			c-1.667-0.133-5.483-0.25-11.45-0.35c-7.433-0.1-11.45-0.167-12.05-0.2C8.733-4.283,5.233-4.1,2.6-3.6
			C1.3-3.367,0.433-3.117,0-2.85c11.767-0.133,21.4-0.033,28.9,0.3c1.9,0.1,6.717,0.483,14.45,1.15c4.2,0.367,6.7,0.333,7.5-0.1
			c0.833-0.433,4.3-0.317,10.4,0.35c3.067,0.333,6.033,0.717,8.9,1.15C61.217-1.667,54.867-2.683,51.1-3.05
			C48.9-3.283,46.3-3.417,43.3-3.45z"/>
	</g>
</symbol>
<symbol  id="FlashAICB_x2F_backhill1_blue_x2F__x3C_Path_x3E__x5F_33" viewBox="0 -8.557 135.15 8.557">
	<g id="Layer_1_7_">
		<path style="fill-rule:evenodd;clip-rule:evenodd;fill:#A1B5AA;" d="M84.1-7.85c-6.533,0.467-10.8,0.733-12.8,0.8
			c-3.3,0.133-10.7,0.6-22.2,1.4C36.767-4.783,28.967-4.233,25.7-4C17.133-3.467,10.283-2.65,5.15-1.55C2.583-0.983,0.867-0.467,0,0
			c23.033-2.133,41.85-3.567,56.45-4.3c3.767-0.167,13.033-0.417,27.8-0.75c8.067-0.167,12.85-0.6,14.35-1.3
			c1.6-0.767,8.167-1.167,19.7-1.2c5.767,0,11.383,0.066,16.85,0.2c-16.933-0.867-29-1.267-36.2-1.2
			C94.883-8.517,89.933-8.283,84.1-7.85z"/>
	</g>
</symbol>
<symbol  id="FlashAICB_x2F_backhill1_blue_x2F__x3C_Path_x3E__x5F_34" viewBox="0 -5.335 133.85 5.335">
	<g id="Layer_1_6_">
		<path style="fill-rule:evenodd;clip-rule:evenodd;fill:#A1B5AA;" d="M82.55-4.5C75.883-4.533,71.633-4.583,69.8-4.65
			c-3.233-0.167-10.517-0.3-21.85-0.4C35.85-5.183,28.2-5.267,25-5.3C16.667-5.433,10-5.183,5-4.55C2.5-4.217,0.833-3.867,0-3.5
			c22.4-0.233,40.75-0.133,55.05,0.3c3.4,0.1,12.583,0.583,27.55,1.45c8.033,0.467,12.816,0.417,14.35-0.15
			c1.633-0.6,8.267-0.467,19.9,0.4c5.833,0.433,11.5,0.933,17,1.5c-17.067-2.167-29.217-3.5-36.45-4C93.3-4.3,88.35-4.467,82.55-4.5
			z"/>
	</g>
</symbol>
<symbol  id="FlashAICB_x2F_backhill1_blue_x2F__x3C_Path_x3E__x5F_35" viewBox="0 -5.085 130.5 5.085">
	<g id="Layer_1_5_">
		<path style="fill-rule:evenodd;clip-rule:evenodd;fill:#A1B5AA;" d="M94.75-3.8c-3.967-0.267-8.783-0.417-14.45-0.45
			c-6.4-0.067-10.55-0.133-12.45-0.2c-3.133-0.133-10.233-0.267-21.3-0.4c-14.7-0.133-22.15-0.2-22.35-0.2
			C16.1-5.183,9.633-4.933,4.8-4.3C2.4-4,0.8-3.667,0-3.3c21.767-0.267,39.633-0.184,53.6,0.25c3.633,0.1,12.6,0.55,26.9,1.35
			c7.833,0.467,12.483,0.434,13.95-0.1c2.466-0.9,14.483-0.3,36.05,1.8C113.733-2.067,101.817-3.333,94.75-3.8z"/>
	</g>
</symbol>
<symbol  id="FlashAICB_x2F_backhill1_blue_x2F__x3C_Path_x3E__x5F_36" viewBox="0 -5.62 130.65 5.62">
	<g id="Layer_1_4_">
		<path style="fill-rule:evenodd;clip-rule:evenodd;fill:#A1B5AA;" d="M81.15-5.3c-6.566,0.3-10.7,0.466-12.4,0.5
			c-3.167,0.033-10.3,0.283-21.4,0.75c-11.934,0.5-19.467,0.816-22.6,0.95C16.517-2.8,9.917-2.2,4.95-1.3C2.483-0.833,0.833-0.4,0,0
			c22.167-1.433,40.283-2.3,54.35-2.6c3.533-0.066,12.483-0.066,26.85,0C89-2.567,93.633-2.867,95.1-3.5
			c1.566-0.667,7.967-0.883,19.2-0.65c5.6,0.1,11.05,0.283,16.35,0.55c-16.433-1.233-28.133-1.9-35.1-2
			C91.55-5.667,86.75-5.567,81.15-5.3z"/>
	</g>
</symbol>
<symbol  id="FlashAICB_x2F_backhill1_blue_x2F__x3C_Path_x3E__x5F_37" viewBox="0 -120.85 61.511 120.85">
	<g id="Layer_1_42_">
		<path style="fill-rule:evenodd;clip-rule:evenodd;fill:#C4C6C5;" d="M27.45-25.3C25.783-13.667,22.8-5.233,18.5,0
			c7.267-1.167,13.233-3.15,17.9-5.95c4.934-2.966,8.983-7.167,12.15-12.6c5.8-10,10.017-28.133,12.65-54.4
			c1.367-13.633-1.767-24.033-9.4-31.2c-9.367-8.833-26.633-14.4-51.8-16.7c11.067,3.8,18.933,10.033,23.6,18.7
			c3.867,7.233,5.833,17.017,5.9,29.35C29.667-51.933,28.983-36.1,27.45-25.3z"/>
	</g>
</symbol>
<symbol  id="FlashAICB_x2F_backhill1_blue_x2F__x3C_Path_x3E__x5F_38" viewBox="0 -8.009 102.55 8.017">
	<g id="Layer_1_43_">
		<path style="fill-rule:evenodd;clip-rule:evenodd;fill:#ABAEB0;" d="M102.55-4.3c0-1.1-4.983-2.017-14.95-2.75
			C77.633-7.75,65.567-8.067,51.4-8C37.167-7.933,25.033-7.483,15-6.65C4.967-5.817-0.033-4.85,0-3.75C0.067-2.617,5.133-1.7,15.2-1
			c10.033,0.733,22.167,1.067,36.4,1c14.133-0.1,26.15-0.567,36.05-1.4C97.617-2.233,102.583-3.2,102.55-4.3z"/>
	</g>
</symbol>
<symbol  id="FlashAICB_x2F_backhill1_blue_x2F__x3C_Path_x3E__x5F_4" viewBox="0 -7.013 111.2 7.013">
	<g id="Layer_1_36_">
		<path style="fill-rule:evenodd;clip-rule:evenodd;fill:#A1B5AA;" d="M111.2-6.2c-0.767-0.233-2.217-0.433-4.35-0.6
			c-4.267-0.3-9.867-0.284-16.8,0.05c-7.733,0.3-14.1,0.567-19.1,0.8c-9.4,0.4-15.483,0.7-18.25,0.9c-1.3,0.1-4.85,0.25-10.65,0.45
			c-4.767,0.2-8.867,0.467-12.3,0.8C23.783-3.267,13.867-2,0,0c4.5-0.533,9.15-1.033,13.95-1.5c9.6-0.933,15.15-1.217,16.65-0.85
			c1.4,0.333,5.417,0.233,12.05-0.3c12.3-1.033,19.883-1.633,22.75-1.8C77.267-5.15,92.533-5.733,111.2-6.2z"/>
	</g>
</symbol>
<symbol  id="FlashAICB_x2F_backhill1_blue_x2F__x3C_Path_x3E__x5F_5" viewBox="0 -3.283 109.55 3.283">
	<g id="Layer_1_35_">
		<path style="fill-rule:evenodd;clip-rule:evenodd;fill:#A1B5AA;" d="M109.55,0c-0.733-0.267-2.183-0.55-4.35-0.85
			C100.933-1.483,95.317-1.867,88.35-2c-7.7-0.233-14.033-0.417-19-0.55c-9.3-0.233-15.3-0.35-18-0.35c-1.434,0-4.9-0.083-10.4-0.25
			c-4.733-0.133-8.767-0.167-12.1-0.1C23.05-3.117,13.433-2.567,0-1.6c17.433-0.867,27.3-0.933,29.6-0.2
			c1.333,0.4,5.25,0.566,11.75,0.5c11.533-0.133,19-0.184,22.4-0.15C75.55-1.35,90.817-0.867,109.55,0z"/>
	</g>
</symbol>
<symbol  id="FlashAICB_x2F_backhill1_blue_x2F__x3C_Path_x3E__x5F_6" viewBox="0 -4.754 60.35 4.754">
	<g id="Layer_1_34_">
		<path style="fill-rule:evenodd;clip-rule:evenodd;fill:#A1B5AA;" d="M60.35,0c-0.4-0.267-1.184-0.55-2.35-0.85
			c-2.333-0.6-5.433-1.05-9.3-1.35c-11.233-1-18.05-1.566-20.45-1.7c-5.067-0.5-9.2-0.783-12.4-0.85C12.65-4.783,7.367-4.6,0-4.2
			c9.567-0.2,14.983,0.017,16.25,0.65c0.733,0.367,2.9,0.6,6.5,0.7c6.433,0.2,10.533,0.35,12.3,0.45C41.583-2,50.017-1.2,60.35,0z"
			/>
	</g>
</symbol>
<symbol  id="FlashAICB_x2F_backhill1_blue_x2F__x3C_Path_x3E__x5F_7" viewBox="0 -4.954 61.4 4.954">
	<g id="Layer_1_33_">
		<path style="fill-rule:evenodd;clip-rule:evenodd;fill:#A1B5AA;" d="M61.4,0c-0.4-0.267-1.183-0.55-2.35-0.85
			c-2.367-0.633-5.5-1.1-9.4-1.4C38.25-3.317,31.317-3.9,28.85-4c-5.133-0.567-9.333-0.883-12.6-0.95
			C12.983-4.983,7.567-4.783,0-4.35C9.833-4.583,15.367-4.367,16.6-3.7c0.733,0.4,2.917,0.65,6.55,0.75
			c6.567,0.2,10.75,0.367,12.55,0.5C42.333-2.05,50.9-1.233,61.4,0z"/>
	</g>
</symbol>
<symbol  id="FlashAICB_x2F_backhill1_blue_x2F__x3C_Path_x3E__x5F_8" viewBox="0 -5.86 113.4 5.86">
	<g id="Layer_1_32_">
		<path style="fill-rule:evenodd;clip-rule:evenodd;fill:#A1B5AA;" d="M113.4-4.8c-0.767-0.267-2.233-0.5-4.4-0.7
			c-4.333-0.4-10.033-0.467-17.1-0.2C71.067-5.133,58.383-4.733,53.85-4.5C52.35-4.4,48.733-4.283,43-4.15
			C38.1-4.017,33.917-3.8,30.45-3.5C24.35-3.033,14.2-1.867,0,0c18.4-1.967,28.783-2.633,31.15-2c1.367,0.4,5.434,0.35,12.2-0.15
			c12.3-0.867,20.05-1.367,23.25-1.5C78.733-4.217,94.333-4.6,113.4-4.8z"/>
	</g>
</symbol>
<symbol  id="FlashAICB_x2F_backhill1_blue_x2F__x3C_Path_x3E__x5F_9" viewBox="0 -3.05 117.45 3.05">
	<g id="Layer_1_31_">
		<path style="fill-rule:evenodd;clip-rule:evenodd;fill:#A1B5AA;" d="M117.45-1.3c-0.667-0.3-2.083-0.583-4.25-0.85
			c-4.267-0.6-10.083-0.883-17.45-0.85c-8.167-0.033-14.9-0.05-20.2-0.05c-9.867,0-16.267,0.033-19.2,0.1
			c-1.6,0.034-5.317,0.034-11.15,0c-5.067-0.033-9.4,0.05-13,0.25C25.833-2.4,15.1-1.5,0,0c4.867-0.367,9.85-0.683,14.95-0.95
			C25.183-1.517,30.967-1.567,32.3-1.1c1.233,0.467,5.383,0.567,12.45,0.3C57.783-1.333,65.867-1.617,69-1.65
			C81.633-1.85,97.783-1.733,117.45-1.3z"/>
	</g>
</symbol>
<g>
	<g>
		<g>
			<g>
				<path style="fill-rule:evenodd;clip-rule:evenodd;fill:#666F7A;" d="M210.1,101.85c5.101,0.134,10.101,1,15,2.601
					c4.967,1.666,8.45,3.633,10.45,5.899c2.233,2.534,2.066,4.7-0.5,6.5c-2.6,1.801-6.866,2.634-12.8,2.5l-3.7-0.25
					c0.367,0.367,0.601,0.65,0.7,0.851c1.5,2.2,0.1,4.05-4.2,5.55c-4.333,1.467-10.283,2.1-17.85,1.9
					c-5.9-0.134-11.334-0.784-16.3-1.95l-3.5-0.15c-3.667,1.8-10.017,3.167-19.051,4.101c-9.366,1-19.833,1.333-31.399,1
					c-11.6-0.301-21.9-1.184-30.9-2.65c-8.667-1.434-14.55-3.134-17.65-5.1c-6,1.433-12.3,2.083-18.9,1.949
					c-7.667-0.199-13.317-1.383-16.95-3.55c-3.6-2.133-4.15-4.55-1.65-7.25c2.1-2.267,5.934-4.149,11.5-5.649
					c5.467-1.467,11.3-2.233,17.5-2.301c2.167-2.833,6.133-5.149,11.9-6.949c5.667-1.767,11.65-2.567,17.95-2.4
					c4.933,0.1,9.233,0.8,12.9,2.1c3.633,1.301,6.033,2.967,7.2,5c3-0.533,5.983-0.75,8.95-0.649c5.8,0.166,10.8,1.217,15,3.149
					c2.467-1.866,6.25-3.3,11.351-4.3c5.133-1,10.899-1.434,17.3-1.3c9.1,0.2,17.416,1.483,24.95,3.85
					C200.033,102.55,204.267,101.717,210.1,101.85z"/>
			</g>
			<g>
				<path style="fill-rule:evenodd;clip-rule:evenodd;fill:#A1BFBB;" d="M223.75,30.85c3.5,10.1,6.467,25.483,8.9,46.15
					c0.966,8.333,0.366,15.316-1.801,20.95c-2.566,6.633-7.517,12.066-14.85,16.3c-16.533,9.533-47.55,13.783-93.05,12.75
					c-35.1-0.8-58.067-5.634-68.9-14.5c-4.833-4-8.05-9.233-9.65-15.7C43.233,91.9,42.8,84.934,43.1,75.9
					c0.633-18.767,2.883-33.4,6.75-43.9c3.767-10.3,9.583-17.867,17.45-22.7c7.067-4.333,16.983-7.117,29.75-8.35
					c8.467-0.8,22.967-1.1,43.5-0.9c23.3,0.233,37.184,0.534,41.65,0.9c11.6,0.933,20.35,3.4,26.25,7.4
					C215.017,12.783,220.116,20.283,223.75,30.85z"/>
				
					<use xlink:href="#FlashAICB_x2F_backhill1_blue_x2F__x3C_Path_x3E__x5F_1"  width="190.089" height="127.161" x="0.008" y="-127.201" transform="matrix(1 0 0 -1 43 -0.0498)" style="overflow:visible;opacity:0.5;enable-background:new    ;"/>
				
					<use xlink:href="#FlashAICB_x2F_backhill1_blue_x2F__x3C_Path_x3E_"  width="190.089" height="127.161" x="0.008" y="-127.201" transform="matrix(1 0 0 -1 43 -0.0498)" style="overflow:visible;opacity:0.5;enable-background:new    ;"/>
				
					<use xlink:href="#FlashAICB_x2F_backhill1_blue_x2F__x3C_Clip_Group_0_x3E_"  width="299.4" height="127.161" y="-127.201" transform="matrix(1 0 0 -1 0 -0.0498)" style="overflow:visible;"/>
			</g>
		</g>
		<g>
			<path style="fill-rule:evenodd;clip-rule:evenodd;fill:#666F7A;" d="M220.15,113.9c6.466,0.399,11.25,1.083,14.35,2.05
				c1.866,0.6,4.3,1.833,7.3,3.7c2.767,1.733,2.95,3.216,0.55,4.449c-2.433,1.2-6.767,1.733-13,1.601c-0.833,0-2.116-0.066-3.85-0.2
				c0.5,0.333,0.783,0.533,0.85,0.6c1.9,1.567,0.684,2.851-3.649,3.851c-4.367,1-10.566,1.416-18.601,1.25
				c-6.433-0.167-12.267-0.65-17.5-1.45l-3.699-0.15c-3.767,1.267-10.434,2.2-20,2.801c-9.934,0.666-21.083,0.85-33.45,0.55
				c-12.434-0.267-23.417-0.934-32.95-2c-9.233-1.066-15.433-2.3-18.6-3.7c-6.533,0.967-13.267,1.384-20.2,1.25
				c-8.133-0.167-14.017-1.017-17.65-2.55c-3.6-1.533-3.9-3.217-0.9-5.05c2.733-1.667,5.817-2.917,9.25-3.75
				c4.1-0.967,9.133-1.467,15.1-1.5c2.533-2,6.783-3.767,12.75-5.301c6.433-1.666,12.683-2.433,18.75-2.3
				c5,0.101,10.45,0.867,16.35,2.3c5.767,1.434,9.267,2.817,10.5,4.15c3.033-0.3,6.117-0.434,9.25-0.4
				c5.9,0.167,11.066,0.9,15.5,2.2c10.3-5.033,20.15-7.467,29.55-7.3c4.933,0.1,10.116,1.083,15.55,2.95
				c2.8,0.967,6.116,2.133,9.95,3.5c1.199-0.566,3.483-1,6.85-1.3C212.066,113.85,215.95,113.767,220.15,113.9z"/>
		</g>
	</g>
	<g>
		<path style="fill-rule:evenodd;clip-rule:evenodd;fill:#6F7985;" d="M231.35,121.5c4.967,0.1,8.801-0.25,11.5-1.05
			c1.767,1.566,1.417,2.866-1.05,3.899c-2.566,1.034-6.717,1.483-12.45,1.351c-1.533-0.066-2.699-0.117-3.5-0.15
			c1.567-0.5,2.567-1.05,3-1.649c0.434-0.634,0.233-1.301-0.6-2c-0.134-0.134-0.434-0.334-0.9-0.601
			C228.217,121.366,229.55,121.434,231.35,121.5z"/>
		<path style="fill-rule:evenodd;clip-rule:evenodd;fill:#6F7985;" d="M225.6,125.6l0.75,0.5c1.9,1.567,0.684,2.851-3.649,3.851
			c-4.367,1-10.566,1.416-18.601,1.25c-6.433-0.167-12.267-0.65-17.5-1.45l-3.699-0.15c-3.767,1.267-10.434,2.2-20,2.801
			c-9.934,0.666-21.083,0.85-33.45,0.55c-12.434-0.267-23.417-0.934-32.95-2c-9.233-1.066-15.433-2.3-18.6-3.7
			c-6.533,0.967-13.267,1.384-20.2,1.25c-7.5-0.167-13.117-0.917-16.85-2.25c-3.633-1.3-4.567-2.8-2.8-4.5
			c3.733,1.533,9.717,2.4,17.95,2.6c6.9,0.2,13.767-0.233,20.6-1.3c3.267,1.467,9.6,2.75,19,3.851
			c9.8,1.133,21.017,1.85,33.65,2.149s24.017,0.117,34.15-0.55c9.767-0.667,16.583-1.65,20.449-2.95l3.801,0.15
			c5.866,0.899,11.8,1.416,17.8,1.55C214.483,127.45,221.2,126.9,225.6,125.6z"/>
	</g>
	<path style="fill-rule:evenodd;clip-rule:evenodd;fill:#6F7985;" d="M159.1,123.15c-0.066,0.366-1.017,0.55-2.85,0.55
		c-0.767,0-1.417-0.05-1.95-0.15c-0.533-0.1-0.783-0.233-0.75-0.399c0-0.134,0.283-0.267,0.851-0.4c0.566-0.1,1.233-0.15,2-0.15
		s1.416,0.051,1.949,0.15C158.884,122.884,159.134,123.017,159.1,123.15z"/>
	<path style="fill-rule:evenodd;clip-rule:evenodd;fill:#6F7985;" d="M165.2,121.6c-0.066,0.367-0.95,0.551-2.65,0.551
		s-2.517-0.2-2.45-0.601c0.067-0.366,0.934-0.55,2.601-0.55C164.434,121,165.267,121.2,165.2,121.6z"/>
	<path style="fill-rule:evenodd;clip-rule:evenodd;fill:#6F7985;" d="M72.2,119.2c0.1,0.399-0.717,0.6-2.45,0.6
		c-0.7,0-1.333-0.066-1.9-0.2c-0.5-0.1-0.783-0.233-0.85-0.399c-0.1-0.4,0.717-0.601,2.45-0.601C71.183,118.6,72.1,118.8,72.2,119.2
		z"/>
	<path style="fill-rule:evenodd;clip-rule:evenodd;fill:#6F7985;" d="M77.3,117.55c0.067,0.4-0.683,0.601-2.25,0.601
		c-1.6,0-2.45-0.2-2.55-0.601c-0.067-0.399,0.683-0.6,2.25-0.6C76.35,116.95,77.2,117.15,77.3,117.55z"/>
	<path style="fill-rule:evenodd;clip-rule:evenodd;fill:#6F7985;" d="M105.75,118.3c0,0.4-0.933,0.601-2.8,0.601
		c-1.9,0-2.883-0.2-2.95-0.601c0-0.166,0.267-0.3,0.8-0.399c0.567-0.134,1.233-0.2,2-0.2c0.767,0,1.45,0.066,2.05,0.2
		C105.417,118,105.717,118.134,105.75,118.3z"/>
	<path style="fill-rule:evenodd;clip-rule:evenodd;fill:#6F7985;" d="M111.6,116.65c0.066,0.399-0.783,0.6-2.55,0.6
		c-1.733,0-2.633-0.2-2.7-0.6c0-0.167,0.25-0.301,0.75-0.4c0.533-0.134,1.15-0.2,1.85-0.2c0.7,0,1.316,0.066,1.85,0.2
		C111.333,116.35,111.6,116.483,111.6,116.65z"/>
	<path style="fill-rule:evenodd;clip-rule:evenodd;fill:#6F7985;" d="M51.35,122.7c0.1,0.399-0.617,0.6-2.15,0.6
		c-1.567,0-2.4-0.2-2.5-0.6c-0.034-0.134,0.15-0.267,0.55-0.4c0.433-0.1,0.967-0.149,1.6-0.149
		C50.383,122.15,51.217,122.333,51.35,122.7z"/>
	<path style="fill-rule:evenodd;clip-rule:evenodd;fill:#6F7985;" d="M186.85,117.65c-0.066,0.267-0.566,0.5-1.5,0.699
		c-0.966,0.2-2.066,0.301-3.3,0.301c-1.267,0-2.3-0.101-3.1-0.301c-0.834-0.199-1.233-0.449-1.2-0.75
		c0.066-0.267,0.566-0.517,1.5-0.75c0.934-0.199,2.033-0.3,3.3-0.3c1.267,0.033,2.316,0.15,3.15,0.351
		C186.533,117.1,186.917,117.35,186.85,117.65z"/>
	<path style="fill-rule:evenodd;clip-rule:evenodd;fill:#6F7985;" d="M191.45,116.8c-0.066,0.267-0.566,0.4-1.5,0.4
		c-0.967,0-1.417-0.134-1.351-0.4c0.067-0.233,0.567-0.35,1.5-0.35C191.066,116.45,191.517,116.566,191.45,116.8z"/>
	<path style="fill-rule:evenodd;clip-rule:evenodd;fill:#6F7985;" d="M134.45,121.2c0,0.267-0.417,0.5-1.25,0.7
		c-0.867,0.199-1.9,0.3-3.1,0.3c-1.2,0-2.233-0.101-3.1-0.3c-0.867-0.2-1.3-0.434-1.3-0.7c-0.034-0.267,0.383-0.483,1.25-0.65
		c0.867-0.2,1.9-0.3,3.1-0.3c1.2,0,2.233,0.1,3.1,0.3C134.017,120.717,134.45,120.934,134.45,121.2z"/>
	<path style="fill-rule:evenodd;clip-rule:evenodd;fill:#6F7985;" d="M141.2,122.3c0,0.467-0.95,0.7-2.85,0.7s-2.85-0.233-2.85-0.7
		c-0.033-0.166,0.233-0.316,0.8-0.45c0.567-0.133,1.25-0.199,2.05-0.199c0.767,0,1.433,0.066,2,0.199
		C140.917,121.983,141.2,122.134,141.2,122.3z"/>
	<path style="fill-rule:evenodd;clip-rule:evenodd;fill:#6F7985;" d="M225.1,118.4c-0.066,0.199-0.533,0.383-1.399,0.55
		c-0.834,0.133-1.8,0.2-2.9,0.2c-1.1,0-2.017-0.067-2.75-0.2c-0.7-0.167-1.017-0.351-0.95-0.55c0.067-0.2,0.534-0.367,1.4-0.5
		c0.833-0.167,1.8-0.25,2.9-0.25c1.1,0,2.017,0.083,2.75,0.25C224.85,118.033,225.167,118.2,225.1,118.4z"/>
	<path style="fill-rule:evenodd;clip-rule:evenodd;fill:#6F7985;" d="M92.85,121.3c-0.067,0.2-0.517,0.384-1.35,0.55
		c-0.833,0.134-1.8,0.2-2.9,0.2s-2.017-0.066-2.75-0.2c-0.733-0.166-1.067-0.35-1-0.55c0.1-0.2,0.566-0.366,1.4-0.5
		c0.833-0.166,1.8-0.25,2.9-0.25s2.017,0.084,2.75,0.25C92.633,120.934,92.95,121.1,92.85,121.3z"/>
	<path style="fill-rule:evenodd;clip-rule:evenodd;fill:#6F7985;" d="M63.6,117.55c0.066,0.2-0.25,0.384-0.95,0.55
		c-0.7,0.134-1.55,0.2-2.55,0.2s-1.883-0.066-2.65-0.2c-0.767-0.166-1.184-0.35-1.25-0.55c-0.034-0.233,0.283-0.416,0.95-0.55
		c0.667-0.167,1.517-0.25,2.55-0.25c1.033,0,1.933,0.083,2.7,0.25C63.167,117.134,63.567,117.316,63.6,117.55z"/>
	<path style="fill-rule:evenodd;clip-rule:evenodd;fill:#6F7985;" d="M217.3,116.45c-0.1,0.399-0.95,0.6-2.55,0.6
		c-1.566,0-2.267-0.2-2.1-0.6c0.1-0.4,0.949-0.601,2.55-0.601c0.666,0,1.2,0.051,1.6,0.15
		C217.2,116.134,217.366,116.283,217.3,116.45z"/>
	<path style="fill-rule:evenodd;clip-rule:evenodd;fill:#6F7985;" d="M223.75,115.95c-0.1,0.233-0.667,0.35-1.7,0.35
		s-1.5-0.116-1.399-0.35c0.066-0.267,0.633-0.4,1.699-0.4C223.384,115.55,223.85,115.684,223.75,115.95z"/>
	<path style="fill-rule:evenodd;clip-rule:evenodd;fill:#6F7985;" d="M202.2,7.85c0,1.667-6.134,3.066-18.4,4.2
		s-27.1,1.667-44.5,1.6c-17.5-0.1-32.433-0.783-44.8-2.05S75.983,8.867,76.05,7.2C76.117,5.5,82.367,4.1,94.8,3
		c12.367-1.133,27.3-1.65,44.8-1.55c17.266,0.1,32.034,0.783,44.3,2.05C196.1,4.733,202.2,6.183,202.2,7.85z"/>
	
		<use xlink:href="#FlashAICB_x2F_backhill1_blue_x2F__x3C_Path_x3E__x5F_38"  width="102.55" height="8.017" x="0" y="-8.009" transform="matrix(1 0 0 -1 88.9502 2.8501)" style="overflow:visible;opacity:0.5;enable-background:new    ;"/>
</g>
</svg>
