<?xml version="1.0" encoding="iso-8859-1"?>
<!-- Generator: Adobe Illustrator 15.1.0, SVG Export Plug-In . SVG Version: 6.00 Build 0)  -->
<!DOCTYPE svg PUBLIC "-//W3C//DTD SVG 1.1//EN" "http://www.w3.org/Graphics/SVG/1.1/DTD/svg11.dtd">
<svg version="1.1" id="FlashAICB" xmlns="http://www.w3.org/2000/svg" xmlns:xlink="http://www.w3.org/1999/xlink" x="0px" y="0px"
	 width="1841px" height="833.35px" viewBox="0 0 1841 833.35" style="enable-background:new 0 0 1841 833.35;" xml:space="preserve"
	>
<linearGradient id="SVGID_1_" gradientUnits="userSpaceOnUse" x1="417.1001" y1="355.4502" x2="629.5501" y2="355.4502">
	<stop  offset="0" style="stop-color:#000000;stop-opacity:0.302"/>
	<stop  offset="0.4745" style="stop-color:#000000;stop-opacity:0"/>
	<stop  offset="1" style="stop-color:#000000;stop-opacity:0.302"/>
</linearGradient>
<polygon style="fill-rule:evenodd;clip-rule:evenodd;fill:url(#SVGID_1_);" points="423.3,12.3 561.3,6.15 607.55,704.75 
	536.5,704.75 417.1,335.45 "/>
<linearGradient id="SVGID_2_" gradientUnits="userSpaceOnUse" x1="159.7002" y1="205.4248" x2="423.2998" y2="205.4248">
	<stop  offset="0" style="stop-color:#000000;stop-opacity:0.302"/>
	<stop  offset="0.4745" style="stop-color:#000000;stop-opacity:0"/>
	<stop  offset="1" style="stop-color:#000000;stop-opacity:0.302"/>
</linearGradient>
<polygon style="fill-rule:evenodd;clip-rule:evenodd;fill:url(#SVGID_2_);" points="417.1,335.45 336.5,398.55 168.35,45.85 
	159.7,27.7 423.3,12.3 "/>
<linearGradient id="SVGID_3_" gradientUnits="userSpaceOnUse" x1="12.3999" y1="419.125" x2="336.5" y2="419.125">
	<stop  offset="0" style="stop-color:#000000;stop-opacity:0.302"/>
	<stop  offset="0.4745" style="stop-color:#000000;stop-opacity:0"/>
	<stop  offset="1" style="stop-color:#000000;stop-opacity:0.302"/>
</linearGradient>
<polygon style="fill-rule:evenodd;clip-rule:evenodd;fill:url(#SVGID_3_);" points="336.5,398.55 237.25,786.25 113.2,792.4 
	12.4,56.95 168.35,45.85 "/>
<linearGradient id="SVGID_4_" gradientUnits="userSpaceOnUse" x1="596.9751" y1="535.5" x2="760.3251" y2="535.5">
	<stop  offset="0" style="stop-color:#000000;stop-opacity:0.302"/>
	<stop  offset="0.4745" style="stop-color:#000000;stop-opacity:0"/>
	<stop  offset="1" style="stop-color:#000000;stop-opacity:0.302"/>
</linearGradient>
<path style="fill-rule:evenodd;clip-rule:evenodd;fill:url(#SVGID_4_);" d="M744.35,489.25c-0.367,7.4-6.05,34.333-17.05,80.8
	c-22.066,92.934-33.1,140.367-33.1,142.3l-86.35-12.25L587,358.65L744.35,489.25z"/>
<linearGradient id="SVGID_5_" gradientUnits="userSpaceOnUse" x1="562.8501" y1="245.4248" x2="949" y2="245.4248">
	<stop  offset="0" style="stop-color:#000000;stop-opacity:0.302"/>
	<stop  offset="0.4745" style="stop-color:#000000;stop-opacity:0"/>
	<stop  offset="1" style="stop-color:#000000;stop-opacity:0.302"/>
</linearGradient>
<polygon style="fill-rule:evenodd;clip-rule:evenodd;fill:url(#SVGID_5_);" points="944.45,295.325 945.9,284.65 747.4,484.7 
	748.55,489.7 747.4,490.85 584.55,352.35 562.85,0 857.5,29.25 949,290.8 "/>
<linearGradient id="SVGID_6_" gradientUnits="userSpaceOnUse" x1="747.3999" y1="519" x2="945.9004" y2="519">
	<stop  offset="0" style="stop-color:#000000;stop-opacity:0.302"/>
	<stop  offset="0.4745" style="stop-color:#000000;stop-opacity:0"/>
	<stop  offset="1" style="stop-color:#000000;stop-opacity:0.302"/>
</linearGradient>
<polygon style="fill-rule:evenodd;clip-rule:evenodd;fill:url(#SVGID_6_);" points="944.45,295.325 888.5,704.75 808.95,753.35 
	748.55,489.7 747.4,484.7 945.9,284.65 "/>
<linearGradient id="SVGID_7_" gradientUnits="userSpaceOnUse" x1="914.8999" y1="406.2998" x2="1121.1504" y2="406.2998">
	<stop  offset="0" style="stop-color:#000000;stop-opacity:0.302"/>
	<stop  offset="0.4745" style="stop-color:#000000;stop-opacity:0"/>
	<stop  offset="1" style="stop-color:#000000;stop-opacity:0.302"/>
</linearGradient>
<path style="fill-rule:evenodd;clip-rule:evenodd;fill:url(#SVGID_7_);" d="M914.9,70.5l136.45,4.9l69.801,637L919.55,742.1
	c1.934-1.933,9.75-90.3,23.45-265.1c6.833-87.4,13.483-174.6,19.95-261.6L914.9,70.5z"/>
<linearGradient id="SVGID_8_" gradientUnits="userSpaceOnUse" x1="1156.5605" y1="243.0996" x2="1302.5498" y2="243.0996">
	<stop  offset="0" style="stop-color:#000000;stop-opacity:0.302"/>
	<stop  offset="0.4745" style="stop-color:#000000;stop-opacity:0"/>
	<stop  offset="1" style="stop-color:#000000;stop-opacity:0.302"/>
</linearGradient>
<path style="fill-rule:evenodd;clip-rule:evenodd;fill:url(#SVGID_8_);" d="M1156.8,58.45l96.15-13.85l49.6,298.55L1183.15,441.6
	c-4.9-63.066-9.684-126.35-14.351-189.85C1159.5,124.817,1155.5,60.383,1156.8,58.45z"/>
<linearGradient id="SVGID_9_" gradientUnits="userSpaceOnUse" x1="1087" y1="563.1748" x2="1263.7998" y2="563.1748">
	<stop  offset="0" style="stop-color:#000000;stop-opacity:0.302"/>
	<stop  offset="0.4745" style="stop-color:#000000;stop-opacity:0"/>
	<stop  offset="1" style="stop-color:#000000;stop-opacity:0.302"/>
</linearGradient>
<path style="fill-rule:evenodd;clip-rule:evenodd;fill:url(#SVGID_9_);" d="M1183.15,441.6c13.433,46.934,26.883,94.25,40.35,141.95
	c26.867,95.4,40.3,145.033,40.3,148.9l-142.649-30.8L1087,393.9L1183.15,441.6z"/>
<linearGradient id="SVGID_10_" gradientUnits="userSpaceOnUse" x1="334.2002" y1="632.875" x2="461.3501" y2="632.875">
	<stop  offset="0" style="stop-color:#000000;stop-opacity:0.302"/>
	<stop  offset="0.4745" style="stop-color:#000000;stop-opacity:0"/>
	<stop  offset="1" style="stop-color:#000000;stop-opacity:0.302"/>
</linearGradient>
<path style="fill-rule:evenodd;clip-rule:evenodd;fill:url(#SVGID_10_);" d="M444.3,432.4l17.05,87.699
	c-9.733,50.934-19.6,102.184-29.6,153.75c-19.967,103.134-30.6,156.301-31.9,159.5L334.2,635.5L444.3,432.4z"/>
<linearGradient id="SVGID_11_" gradientUnits="userSpaceOnUse" x1="1321.5996" y1="449.2998" x2="1478.2002" y2="449.2998">
	<stop  offset="0" style="stop-color:#000000;stop-opacity:0.302"/>
	<stop  offset="0.4745" style="stop-color:#000000;stop-opacity:0"/>
	<stop  offset="1" style="stop-color:#000000;stop-opacity:0.302"/>
</linearGradient>
<polygon style="fill-rule:evenodd;clip-rule:evenodd;fill:url(#SVGID_11_);" points="1329.35,175.4 1450.3,309.3 1478.2,723.2 
	1389.8,718.6 1321.6,469.3 "/>
<linearGradient id="SVGID_12_" gradientUnits="userSpaceOnUse" x1="1369.6504" y1="250.0498" x2="1661.2002" y2="250.0498">
	<stop  offset="0" style="stop-color:#000000;stop-opacity:0.302"/>
	<stop  offset="0.4745" style="stop-color:#000000;stop-opacity:0"/>
	<stop  offset="1" style="stop-color:#000000;stop-opacity:0.302"/>
</linearGradient>
<path style="fill-rule:evenodd;clip-rule:evenodd;fill:url(#SVGID_12_);" d="M1661.2,366.2L1520.1,444.7L1369.65,75.4l229.5-20
	c-1.301,4.467,8.649,57.617,29.85,159.45C1639.6,265.75,1650.333,316.2,1661.2,366.2z"/>
<linearGradient id="SVGID_13_" gradientUnits="userSpaceOnUse" x1="1613.1504" y1="265.4248" x2="1840.9814" y2="265.4248">
	<stop  offset="0" style="stop-color:#000000;stop-opacity:0.302"/>
	<stop  offset="0.4745" style="stop-color:#000000;stop-opacity:0"/>
	<stop  offset="1" style="stop-color:#000000;stop-opacity:0.302"/>
</linearGradient>
<path style="fill-rule:evenodd;clip-rule:evenodd;fill:url(#SVGID_13_);" d="M1819.4,421.6L1661.2,366.2
	c-8-42.067-16-84.317-24-126.75c-16.033-84.867-24.05-128.267-24.05-130.2c141.633,20.5,216.583,31.267,224.85,32.3
	c5.167,0.633,3.617,47.5-4.65,140.6C1829.217,328.717,1824.566,375.2,1819.4,421.6z"/>
<linearGradient id="SVGID_14_" gradientUnits="userSpaceOnUse" x1="1661.2002" y1="592.375" x2="1827.1504" y2="592.375">
	<stop  offset="0" style="stop-color:#000000;stop-opacity:0.302"/>
	<stop  offset="0.4745" style="stop-color:#000000;stop-opacity:0"/>
	<stop  offset="1" style="stop-color:#000000;stop-opacity:0.302"/>
</linearGradient>
<path style="fill-rule:evenodd;clip-rule:evenodd;fill:url(#SVGID_14_);" d="M1661.2,366.2l158.2,55.399l7.75,396.95L1710.8,777
	c2.601-3.866-4.883-73.483-22.45-208.85C1679.55,500.45,1670.5,433.134,1661.2,366.2z"/>
</svg>
