<?xml version="1.0" encoding="iso-8859-1"?>
<!-- Generator: Adobe Illustrator 15.1.0, SVG Export Plug-In . SVG Version: 6.00 Build 0)  -->
<!DOCTYPE svg PUBLIC "-//W3C//DTD SVG 1.1//EN" "http://www.w3.org/Graphics/SVG/1.1/DTD/svg11.dtd">
<svg version="1.1" id="FlashAICB" xmlns="http://www.w3.org/2000/svg" xmlns:xlink="http://www.w3.org/1999/xlink" x="0px" y="0px"
	 width="915.1px" height="88.15px" viewBox="0 0 915.1 88.15" style="enable-background:new 0 0 915.1 88.15;" xml:space="preserve"
	>
<path style="fill-rule:evenodd;clip-rule:evenodd;fill:#7E7F48;" d="M527.75,79.4c29.9-2.2,50.95-5.267,63.15-9.2
	c2.833,0.1,7.066,0.25,12.699,0.45l2.851,0.05c18.633,2.6,37.85,4.416,57.649,5.45c-2.767-2.267-1.916-4.767,2.551-7.5
	c4.166-2.567,8.5-4.467,13-5.7c5.333-1.5,11.5-2.267,18.5-2.3c3.333-2.567,10-4.717,20-6.45c9.233-1.601,17.75-2.316,25.55-2.15
	c5.767,0.134,10.733,0.8,14.899,2c2,0.566,3.667,1.233,5,2c5.4,0.3,9.9,0.483,13.5,0.55c25.733,0.634,42.267-1.216,49.601-5.55
	c3.2-1.899,4.033-4.083,2.5-6.55c19.033,0.967,33.783,2.366,44.25,4.2c6.7,1.166,16.3,3.633,28.8,7.399c12,3.634,15.134,6.634,9.4,9
	c-0.434,0.167-0.9,0.334-1.4,0.5c0.1,0.067,0.184,0.117,0.25,0.15c4.533,2.7,5.7,5,3.5,6.9c-2.233,1.966-7.267,2.85-15.1,2.649
	c-1.667-0.066-3.317-0.166-4.95-0.3l1.399,0.95c3.301,2.566,2.467,4.717-2.5,6.45c-5.066,1.733-12.767,2.466-23.1,2.199
	c-7.934-0.233-15.533-1.05-22.8-2.449l-4.7-0.15c-4.467,2.134-12.8,3.767-25,4.9c-12.6,1.133-26.866,1.483-42.8,1.05
	c-15.767-0.4-29.566-1.517-41.4-3.351c-11.399-1.733-18.816-3.767-22.25-6.1c-8.566,1.667-17.133,2.384-25.7,2.15
	c-5.066-0.134-9.316-0.534-12.75-1.2c-4.767,0.2-9.8,0.383-15.1,0.55c-33.167,1.033-70.75,1-112.75-0.1
	C538.8,79.733,533.217,79.566,527.75,79.4z M300.3,79c-2.066,0.267-4.25,0.533-6.55,0.8c-12.4,1.334-23.867,1.884-34.4,1.65
	c-7.8-0.167-14.5-0.816-20.1-1.95c-5.567-1.134-9.233-2.566-11-4.3c-4.767,0.366-9.6,0.5-14.5,0.399
	c-9.233-0.199-17.433-1.199-24.6-3c-3.8,1.567-9.7,2.75-17.7,3.551c-8.133,0.8-17.35,1.083-27.65,0.85
	c-15.033-0.366-29.033-1.616-42-3.75c-1.6,0.733-5.017,1.267-10.25,1.6c-5.433,0.4-11.533,0.483-18.3,0.25
	C62.717,74.533,54.633,73.583,49,72.25c-3.433-0.8-8.333-2.5-14.7-5.1c-6.1-2.467-7.683-4.551-4.75-6.25
	c0.633-0.367,1.434-0.684,2.4-0.95c3.633-1.066,9.6-1.5,17.9-1.3c2.233,0.066,4.467,0.166,6.7,0.3
	c-0.966-0.4-1.617-0.684-1.95-0.851c-4.434-2.333-3.317-4.267,3.35-5.8c6.767-1.5,17.133-2.083,31.1-1.75
	c10.833,0.3,21.083,1.134,30.75,2.5l6.35,0.2c6.033-1.9,17.25-3.283,33.65-4.15c17.034-0.933,36.25-1.1,57.65-0.5
	c21.3,0.567,39.933,1.733,55.9,3.5c15.367,1.7,25.383,3.634,30.05,5.801c11.267-1.434,22.8-2,34.6-1.7
	c13.467,0.333,22.617,1.633,27.45,3.899c4.767,2.2,3.95,4.601-2.45,7.2c-5.6,2.267-11.433,3.934-17.5,5
	c-7.133,1.267-15.417,1.884-24.85,1.851C316.95,76.05,310.167,77.667,300.3,79z"/>
<path style="fill-rule:evenodd;clip-rule:evenodd;fill:#797946;" d="M527.75,79.4c-5.934,0.433-12.217,0.833-18.85,1.199
	c-41.434,2.267-88.351,2.7-140.75,1.301C344.117,81.267,321.5,80.3,300.3,79c9.867-1.333,16.65-2.95,20.35-4.85
	c9.434,0.033,17.717-0.584,24.85-1.851c6.067-1.066,11.9-2.733,17.5-5c6.4-2.6,7.217-5,2.45-7.2
	c-4.833-2.267-13.983-3.566-27.45-3.899c-11.8-0.3-23.333,0.267-34.6,1.7c-4.667-2.167-14.683-4.101-30.05-5.801
	c-15.967-1.767-34.6-2.933-55.9-3.5c-21.4-0.6-40.617-0.433-57.65,0.5c-16.4,0.867-27.617,2.25-33.65,4.15l-6.35-0.2
	c-9.667-1.366-19.917-2.2-30.75-2.5c-13.966-0.333-24.333,0.25-31.1,1.75c-6.667,1.533-7.784,3.467-3.35,5.8
	c0.333,0.167,0.983,0.45,1.95,0.851c-2.233-0.134-4.466-0.233-6.7-0.3c-8.3-0.2-14.267,0.233-17.9,1.3
	C21.117,58.316,12.8,56.134,7,53.4c-5.467-2.567-7.733-5.4-6.8-8.5c0.966-3.133,5.233-6.267,12.8-9.4
	c13.733-5.667,27.967-9.833,42.7-12.5c17.5-3.2,37.733-4.75,60.7-4.65c10.867-5.7,32.75-10.367,65.65-14
	c30.233-3.367,58.233-4.783,84-4.25c18.967,0.433,35.3,2.05,49,4.85c13.633,2.833,22.55,6.4,26.75,10.7
	c11.9-0.967,23.717-1.3,35.45-1c11.2,0.233,22,1.017,32.4,2.35c10.033,1.267,19.217,2.967,27.55,5.1
	c9.267-3.934,23.7-6.883,43.3-8.85c19.833-2,42.3-2.717,67.4-2.15c17.633,0.367,35.433,1.367,53.399,3
	c17.233,1.566,33.601,3.633,49.101,6.2c3.899-1.8,12.233-3.15,25-4.05c13.267-0.933,28.149-1.133,44.649-0.6
	c25.7,1.434,45.417,3.783,59.15,7.05c8.399,2,20.366,6.233,35.899,12.7c7.267,3,11.867,5.883,13.801,8.65
	c0.1,0.167,0.199,0.317,0.3,0.45c1.533,2.467,0.7,4.65-2.5,6.55c-7.334,4.334-23.867,6.184-49.601,5.55
	c-3.6-0.066-8.1-0.25-13.5-0.55c-1.333-0.767-3-1.434-5-2c-4.166-1.2-9.133-1.866-14.899-2c-7.8-0.166-16.316,0.55-25.55,2.15
	c-10,1.733-16.667,3.883-20,6.45c-7,0.033-13.167,0.8-18.5,2.3c-4.5,1.233-8.834,3.133-13,5.7c-4.467,2.733-5.317,5.233-2.551,7.5
	c-19.8-1.034-39.017-2.851-57.649-5.45l-2.851-0.05c-5.633-0.2-9.866-0.351-12.699-0.45C578.7,74.134,557.65,77.2,527.75,79.4z"/>
</svg>
