<?xml version="1.0" encoding="iso-8859-1"?>
<!-- Generator: Adobe Illustrator 15.1.0, SVG Export Plug-In . SVG Version: 6.00 Build 0)  -->
<!DOCTYPE svg PUBLIC "-//W3C//DTD SVG 1.1//EN" "http://www.w3.org/Graphics/SVG/1.1/DTD/svg11.dtd">
<svg version="1.1" id="backhill2_blue" xmlns="http://www.w3.org/2000/svg" xmlns:xlink="http://www.w3.org/1999/xlink" x="0px"
	 y="0px" width="83.6px" height="100.65px" viewBox="0 0 83.6 100.65" style="enable-background:new 0 0 83.6 100.65;"
	 xml:space="preserve">
<symbol  id="FlashAICB_x2F_backhill2_blue_x2F__x3C_Clip_Group_0_x3E_" viewBox="0 -99.159 83.6 99.163">
	<g id="Layer_1_44_">
	</g>
	<g>
		<defs>
			<path id="SVGID_1_" d="M70.8-36.6C65.033-18.767,60.633-7.917,57.6-4.05c-1.533,1.966-3.333,3.183-5.4,3.65
				c-1.067,0.233-3.434,0.367-7.1,0.4c-3.4,0.033-5.85-0.15-7.35-0.55c-2.233-0.6-4.167-1.934-5.8-4
				C28.45-8.917,24.7-19.433,20.7-36.1c-4.567-19.2-6.133-33.05-4.7-41.55c2.1-12.567,10.333-19.6,24.7-21.1
				c19.667-2.1,31.367,3.883,35.1,17.95C78.6-70.333,76.933-55.6,70.8-36.6z"/>
		</defs>
		<clipPath id="SVGID_2_">
			<use xlink:href="#SVGID_1_"  style="overflow:visible;"/>
		</clipPath>
		<g id="Layer_3_1_" style="clip-path:url(#SVGID_2_);">
			<g>
				
					<use xlink:href="#FlashAICB_x2F_backhill2_blue_x2F__x3C_Path_x3E__x5F_36"  width="29.55" height="3.01" y="-3.01" transform="matrix(1 0 0 1 22.6001 -21.8999)" style="overflow:visible;opacity:0.3008;enable-background:new    ;"/>
				
					<use xlink:href="#FlashAICB_x2F_backhill2_blue_x2F__x3C_Path_x3E__x5F_35"  width="30.3" height="3.28" y="-3.28" transform="matrix(1 0 0 1 42.9004 -23.9502)" style="overflow:visible;opacity:0.3008;enable-background:new    ;"/>
				
					<use xlink:href="#FlashAICB_x2F_backhill2_blue_x2F__x3C_Path_x3E__x5F_34"  width="29.05" height="3.032" y="-3.032" transform="matrix(1 0 0 1 36.9502 -18.25)" style="overflow:visible;opacity:0.1016;enable-background:new    ;"/>
				
					<use xlink:href="#FlashAICB_x2F_backhill2_blue_x2F__x3C_Path_x3E__x5F_33"  width="27.75" height="3.903" y="-3.903" transform="matrix(1 0 0 1 20.2002 -14.3501)" style="overflow:visible;opacity:0.1992;enable-background:new    ;"/>
				
					<use xlink:href="#FlashAICB_x2F_backhill2_blue_x2F__x3C_Path_x3E__x5F_32"  width="15.55" height="2.435" y="-2.435" transform="matrix(1 0 0 1 52.0498 -21)" style="overflow:visible;opacity:0.3008;enable-background:new    ;"/>
				
					<use xlink:href="#FlashAICB_x2F_backhill2_blue_x2F__x3C_Path_x3E__x5F_31"  width="20.85" height="3.6" y="-3.6" transform="matrix(1 0 0 1 26.3501 -7.7002)" style="overflow:visible;opacity:0.3008;enable-background:new    ;"/>
				
					<use xlink:href="#FlashAICB_x2F_backhill2_blue_x2F__x3C_Path_x3E__x5F_30"  width="14.85" height="3.05" y="-3.05" transform="matrix(1 0 0 1 21.1499 -18.75)" style="overflow:visible;opacity:0.3008;enable-background:new    ;"/>
				
					<use xlink:href="#FlashAICB_x2F_backhill2_blue_x2F__x3C_Path_x3E__x5F_29"  width="14.15" height="2.342" y="-2.342" transform="matrix(1 0 0 1 47.3496 -8.2998)" style="overflow:visible;opacity:0.3008;enable-background:new    ;"/>
				
					<use xlink:href="#FlashAICB_x2F_backhill2_blue_x2F__x3C_Path_x3E__x5F_28"  width="23.85" height="2.05" y="-2.05" transform="matrix(1 0 0 1 35.6001 -6.8999)" style="overflow:visible;opacity:0.3008;enable-background:new    ;"/>
				
					<use xlink:href="#FlashAICB_x2F_backhill2_blue_x2F__x3C_Path_x3E__x5F_27"  width="13.2" height="1.225" y="-1.225" transform="matrix(1 0 0 1 31.8501 -4.1001)" style="overflow:visible;opacity:0.1016;enable-background:new    ;"/>
				
					<use xlink:href="#FlashAICB_x2F_backhill2_blue_x2F__x3C_Path_x3E__x5F_26"  width="13.25" height="2.097" y="-2.097" transform="matrix(1 0 0 1 45.7002 -3.7998)" style="overflow:visible;opacity:0.3008;enable-background:new    ;"/>
				
					<use xlink:href="#FlashAICB_x2F_backhill2_blue_x2F__x3C_Path_x3E__x5F_25"  width="16.85" height="1.217" y="-1.217" transform="matrix(1 0 0 1 37.75 -1.75)" style="overflow:visible;opacity:0.3008;enable-background:new    ;"/>
				
					<use xlink:href="#FlashAICB_x2F_backhill2_blue_x2F__x3C_Path_x3E__x5F_24"  width="24.05" height="3.353" y="-3.353" transform="matrix(1 0 0 1 18.7998 -26.0498)" style="overflow:visible;opacity:0.1992;enable-background:new    ;"/>
				
					<use xlink:href="#FlashAICB_x2F_backhill2_blue_x2F__x3C_Path_x3E__x5F_23"  width="32.4" height="3.233" y="-3.233" transform="matrix(1 0 0 1 26.3999 -35)" style="overflow:visible;opacity:0.3008;enable-background:new    ;"/>
				
					<use xlink:href="#FlashAICB_x2F_backhill2_blue_x2F__x3C_Path_x3E__x5F_22"  width="32.8" height="4.27" y="-4.27" transform="matrix(1 0 0 1 43.4004 -36.2002)" style="overflow:visible;opacity:0.1992;enable-background:new    ;"/>
				
					<use xlink:href="#FlashAICB_x2F_backhill2_blue_x2F__x3C_Path_x3E__x5F_21"  width="28.05" height="3.97" y="-3.97" transform="matrix(1 0 0 1 50.0996 -13.8999)" style="overflow:visible;opacity:0.3008;enable-background:new    ;"/>
				
					<use xlink:href="#FlashAICB_x2F_backhill2_blue_x2F__x3C_Path_x3E__x5F_20"  width="27.8" height="1.662" y="-1.662" transform="matrix(1 0 0 1 36.25 -12.6499)" style="overflow:visible;opacity:0.1992;enable-background:new    ;"/>
				
					<use xlink:href="#FlashAICB_x2F_backhill2_blue_x2F__x3C_Path_x3E__x5F_19"  width="31.45" height="3.953" y="-3.953" transform="matrix(1 0 0 1 36.8501 -29.6001)" style="overflow:visible;opacity:0.3008;enable-background:new    ;"/>
				
					<use xlink:href="#FlashAICB_x2F_backhill2_blue_x2F__x3C_Path_x3E__x5F_18"  width="15.9" height="3.35" y="-3.35" transform="matrix(1 0 0 1 14.8501 -29.75)" style="overflow:visible;opacity:0.3008;enable-background:new    ;"/>
				
					<use xlink:href="#FlashAICB_x2F_backhill2_blue_x2F__x3C_Path_x3E__x5F_17"  width="16.7" height="3.65" y="-3.65" transform="matrix(1 0 0 1 17.8999 -36.3999)" style="overflow:visible;opacity:0.1992;enable-background:new    ;"/>
				
					<use xlink:href="#FlashAICB_x2F_backhill2_blue_x2F__x3C_Path_x3E__x5F_16"  width="34.85" height="5.505" y="-5.505" transform="matrix(1 0 0 1 42.5498 -46.3999)" style="overflow:visible;opacity:0.3008;enable-background:new    ;"/>
				
					<use xlink:href="#FlashAICB_x2F_backhill2_blue_x2F__x3C_Path_x3E__x5F_15"  width="34.8" height="2.9" y="-2.9" transform="matrix(1 0 0 1 13.75 -46.7998)" style="overflow:visible;opacity:0.3008;enable-background:new    ;"/>
				
					<use xlink:href="#FlashAICB_x2F_backhill2_blue_x2F__x3C_Path_x3E__x5F_14"  width="34.1" height="2.75" y="-2.75" transform="matrix(1 0 0 1 22.2998 -43.7002)" style="overflow:visible;opacity:0.3008;enable-background:new    ;"/>
				
					<use xlink:href="#FlashAICB_x2F_backhill2_blue_x2F__x3C_Path_x3E__x5F_13"  width="17.4" height="4.813" y="-4.813" transform="matrix(1 0 0 1 53.75 -40.5498)" style="overflow:visible;opacity:0.1992;enable-background:new    ;"/>
				
					<use xlink:href="#FlashAICB_x2F_backhill2_blue_x2F__x3C_Path_x3E__x5F_12"  width="18.25" height="5.263" y="-5.263" transform="matrix(1 0 0 1 60.2002 -49.1001)" style="overflow:visible;opacity:0.1992;enable-background:new    ;"/>
				
					<use xlink:href="#FlashAICB_x2F_backhill2_blue_x2F__x3C_Path_x3E__x5F_11"  width="38.15" height="6.554" y="-6.554" transform="matrix(1 0 0 1 38.25 -61.5996)" style="overflow:visible;opacity:0.1016;enable-background:new    ;"/>
				
					<use xlink:href="#FlashAICB_x2F_backhill2_blue_x2F__x3C_Path_x3E__x5F_10"  width="36.65" height="3.3" y="-3.3" transform="matrix(1 0 0 1 16.9502 -56.7002)" style="overflow:visible;opacity:0.1992;enable-background:new    ;"/>
				
					<use xlink:href="#FlashAICB_x2F_backhill2_blue_x2F__x3C_Path_x3E__x5F_9"  width="35.55" height="3.05" y="-3.05" transform="matrix(1 0 0 1 4.1499 -51.6504)" style="overflow:visible;opacity:0.3008;enable-background:new    ;"/>
				
					<use xlink:href="#FlashAICB_x2F_backhill2_blue_x2F__x3C_Path_x3E__x5F_8"  width="37" height="7.069" y="-7.069" transform="matrix(1 0 0 1 6 -60.2998)" style="overflow:visible;opacity:0.1992;enable-background:new    ;"/>
				
					<use xlink:href="#FlashAICB_x2F_backhill2_blue_x2F__x3C_Path_x3E__x5F_7"  width="19.05" height="5.674" y="-5.674" transform="matrix(1 0 0 1 54.9004 -55.8496)" style="overflow:visible;opacity:0.3008;enable-background:new    ;"/>
				
					<use xlink:href="#FlashAICB_x2F_backhill2_blue_x2F__x3C_Path_x3E__x5F_6"  width="19.75" height="6.261" y="-6.261" transform="matrix(1 0 0 1 63.8496 -64.2998)" style="overflow:visible;opacity:0.1992;enable-background:new    ;"/>
				
					<use xlink:href="#FlashAICB_x2F_backhill2_blue_x2F__x3C_Path_x3E__x5F_5"  width="41.95" height="5.345" y="-5.345" transform="matrix(1 0 0 1 39.0498 -79.9502)" style="overflow:visible;opacity:0.3008;enable-background:new    ;"/>
				
					<use xlink:href="#FlashAICB_x2F_backhill2_blue_x2F__x3C_Path_x3E__x5F_4"  width="38.15" height="9.45" y="-9.45" transform="matrix(1 0 0 1 9.1001 -65.4502)" style="overflow:visible;opacity:0.3008;enable-background:new    ;"/>
				
					<use xlink:href="#FlashAICB_x2F_backhill2_blue_x2F__x3C_Path_x3E__x5F_3"  width="38.85" height="10.1" y="-10.1" transform="matrix(1 0 0 1 0 -71.4004)" style="overflow:visible;opacity:0.1992;enable-background:new    ;"/>
				
					<use xlink:href="#FlashAICB_x2F_backhill2_blue_x2F__x3C_Path_x3E__x5F_2"  width="42.8" height="5.478" y="-5.478" transform="matrix(1 0 0 1 22.6499 -84.5)" style="overflow:visible;opacity:0.1016;enable-background:new    ;"/>
				
					<use xlink:href="#FlashAICB_x2F_backhill2_blue_x2F__x3C_Path_x3E__x5F_1_x5F_0"  width="21" height="5.6" y="-5.6" transform="matrix(1 0 0 1 57.25 -72.7998)" style="overflow:visible;opacity:0.3008;enable-background:new    ;"/>
				
					<use xlink:href="#FlashAICB_x2F_backhill2_blue_x2F__x3C_Path_x3E__x5F_0"  width="22.95" height="6.554" y="-6.554" transform="matrix(1 0 0 1 51.4502 -89.7002)" style="overflow:visible;opacity:0.3008;enable-background:new    ;"/>
			</g>
			
				<use xlink:href="#FlashAICB_x2F_backhill2_blue_x2F__x3C_Path_x3E__x5F_1_x5F_1"  width="21.811" height="93.75" x="-0.011" y="-93.75" transform="matrix(1 0 0 1 14.3999 -0.6499)" style="overflow:visible;opacity:0.25;enable-background:new    ;"/>
			
				<use xlink:href="#FlashAICB_x2F_backhill2_blue_x2F__x3C_Path_x3E__x5F_37"  width="23.834" height="95.85" y="-95.85" transform="matrix(1 0 0 1 54 -1.6001)" style="overflow:visible;opacity:0.25;enable-background:new    ;"/>
		</g>
	</g>
	<g id="Layer_4_1_">
	</g>
</symbol>
<symbol  id="FlashAICB_x2F_backhill2_blue_x2F__x3C_Path_x3E_" viewBox="0.086 -99.159 61.63 99.163">
	<g id="Layer_1_3_">
		
			<linearGradient id="SVGID_3_" gradientUnits="userSpaceOnUse" x1="16200.958" y1="-20.8193" x2="16300.126" y2="-20.8193" gradientTransform="matrix(1.008319e-005 1 -1 -0.001 9.9185 -16300.1406)">
			<stop  offset="0" style="stop-color:#B1B3B1"/>
			<stop  offset="0.0588" style="stop-color:#C2C4C2"/>
			<stop  offset="0.1843" style="stop-color:#E3E4E3"/>
			<stop  offset="0.2902" style="stop-color:#F8F8F8"/>
			<stop  offset="0.3608" style="stop-color:#FFFFFF"/>
			<stop  offset="0.6431" style="stop-color:#D8DDDB"/>
			<stop  offset="1" style="stop-color:#A1ACA9"/>
		</linearGradient>
		<path style="fill-rule:evenodd;clip-rule:evenodd;fill:url(#SVGID_3_);" d="M55.4-36.6c6.133-19,7.8-33.733,5-44.2
			c-3.733-14.067-15.433-20.05-35.1-17.95c-14.367,1.5-22.6,8.533-24.7,21.1c-1.434,8.5,0.133,22.35,4.7,41.55
			c4,16.667,7.75,27.184,11.25,31.55c1.633,2.066,3.567,3.4,5.8,4c1.5,0.4,3.95,0.583,7.35,0.55c3.667-0.033,6.033-0.167,7.1-0.4
			c2.067-0.467,3.867-1.684,5.4-3.65C45.233-7.917,49.633-18.767,55.4-36.6z"/>
	</g>
</symbol>
<symbol  id="FlashAICB_x2F_backhill2_blue_x2F__x3C_Path_x3E__x5F_0" viewBox="0 -6.554 22.95 6.554">
	<g id="Layer_1_40_">
		<path style="fill-rule:evenodd;clip-rule:evenodd;fill:#A1B5AA;" d="M22.95,0c-0.067-0.4-0.284-0.833-0.65-1.3
			c-0.733-0.934-1.816-1.583-3.25-1.95c-4.2-1.367-6.783-2.1-7.75-2.2c-0.267-0.033-1-0.25-2.2-0.65c-1-0.333-1.883-0.483-2.65-0.45
			c-1.267,0-3.417,0.5-6.45,1.5C3.9-5.783,6.033-5.6,6.4-4.5c0.233,0.6,1.05,0.933,2.45,1c2.533,0.1,4.133,0.217,4.8,0.35
			C16.15-2.683,19.25-1.633,22.95,0z"/>
	</g>
</symbol>
<symbol  id="FlashAICB_x2F_backhill2_blue_x2F__x3C_Path_x3E__x5F_1" viewBox="0.086 -99.159 61.63 99.163">
	<g id="Layer_1_2_">
		<linearGradient id="SVGID_4_" gradientUnits="userSpaceOnUse" x1="0" y1="-49.5776" x2="61.7" y2="-49.5776">
			<stop  offset="0" style="stop-color:#B1B3B1"/>
			<stop  offset="0.0784" style="stop-color:#C2C4C2"/>
			<stop  offset="0.2471" style="stop-color:#E3E4E3"/>
			<stop  offset="0.3882" style="stop-color:#F8F8F8"/>
			<stop  offset="0.4863" style="stop-color:#FFFFFF"/>
			<stop  offset="0.7098" style="stop-color:#D8DDDB"/>
			<stop  offset="1" style="stop-color:#A1ACA9"/>
		</linearGradient>
		<path style="fill-rule:evenodd;clip-rule:evenodd;fill:url(#SVGID_4_);" d="M55.4-36.6c6.133-19,7.8-33.733,5-44.2
			c-3.733-14.067-15.433-20.05-35.1-17.95c-14.367,1.5-22.6,8.533-24.7,21.1c-1.434,8.5,0.133,22.35,4.7,41.55
			c4,16.667,7.75,27.184,11.25,31.55c1.633,2.066,3.567,3.4,5.8,4c1.5,0.4,3.95,0.583,7.35,0.55c3.667-0.033,6.033-0.167,7.1-0.4
			c2.067-0.467,3.867-1.684,5.4-3.65C45.233-7.917,49.633-18.767,55.4-36.6z"/>
	</g>
</symbol>
<symbol  id="FlashAICB_x2F_backhill2_blue_x2F__x3C_Path_x3E__x5F_10" viewBox="0 -3.3 36.65 3.3">
	<g id="Layer_1_30_">
		<path style="fill-rule:evenodd;clip-rule:evenodd;fill:#A1B5AA;" d="M36.65-1.3c-0.233-0.333-0.7-0.65-1.4-0.95
			c-1.433-0.667-3.333-0.983-5.7-0.95c-6.933-0.133-11.15-0.133-12.65,0c-0.5,0.034-1.7,0.034-3.6,0c-1.6-0.033-2.966,0.05-4.1,0.25
			C7.267-2.617,4.2-1.633,0,0c1.4-0.4,2.85-0.75,4.35-1.05c3.033-0.6,4.833-0.633,5.4-0.1c0.533,0.5,1.883,0.6,4.05,0.3
			c4.067-0.533,6.55-0.833,7.45-0.9C25.217-1.95,30.35-1.8,36.65-1.3z"/>
	</g>
</symbol>
<symbol  id="FlashAICB_x2F_backhill2_blue_x2F__x3C_Path_x3E__x5F_11" viewBox="0 -6.554 38.15 6.554">
	<g id="Layer_1_29_">
		<path style="fill-rule:evenodd;clip-rule:evenodd;fill:#A1B5AA;" d="M38.15,0c-0.167-0.4-0.566-0.817-1.2-1.25
			c-1.267-0.933-3.083-1.583-5.45-1.95c-7.067-1.367-11.4-2.117-13-2.25c-0.567-0.033-1.8-0.25-3.7-0.65
			c-1.7-0.333-3.15-0.483-4.35-0.45C8.35-6.55,4.867-6.067,0-5.1c1.567-0.167,3.183-0.267,4.85-0.3
			c3.367-0.067,5.283,0.217,5.75,0.85c0.433,0.633,1.8,0.983,4.1,1.05c4.3,0.133,6.95,0.25,7.95,0.35C26.75-2.65,31.917-1.6,38.15,0
			z"/>
	</g>
</symbol>
<symbol  id="FlashAICB_x2F_backhill2_blue_x2F__x3C_Path_x3E__x5F_12" viewBox="0 -5.263 18.25 5.263">
	<g id="Layer_1_28_">
		<path style="fill-rule:evenodd;clip-rule:evenodd;fill:#A1B5AA;" d="M18.25,0c-0.033-0.267-0.2-0.55-0.5-0.85
			c-0.533-0.633-1.367-1.133-2.5-1.5c-3.333-1.133-5.383-1.767-6.15-1.9C8.867-4.283,8.283-4.467,7.35-4.8
			C6.583-5.067,5.9-5.217,5.3-5.25C4.267-5.317,2.5-5.117,0-4.65C3.167-4.883,4.883-4.633,5.15-3.9C5.317-3.5,5.967-3.233,7.1-3.1
			c2.1,0.233,3.383,0.4,3.85,0.5C12.917-2.133,15.35-1.267,18.25,0z"/>
	</g>
</symbol>
<symbol  id="FlashAICB_x2F_backhill2_blue_x2F__x3C_Path_x3E__x5F_13" viewBox="0 -4.813 17.4 4.813">
	<g id="Layer_1_27_">
		<path style="fill-rule:evenodd;clip-rule:evenodd;fill:#A1B5AA;" d="M17.4,0c-0.033-0.233-0.183-0.5-0.45-0.8
			c-0.534-0.6-1.35-1.05-2.45-1.35c-3.2-1.033-5.15-1.6-5.85-1.7c-0.233-0.033-0.8-0.2-1.7-0.5C6.217-4.617,5.567-4.767,5-4.8
			C4-4.867,2.333-4.683,0-4.25c3-0.2,4.633,0.033,4.9,0.7c0.167,0.367,0.783,0.6,1.85,0.7c1.867,0.2,3.083,0.367,3.65,0.5
			C12.267-1.95,14.6-1.167,17.4,0z"/>
	</g>
</symbol>
<symbol  id="FlashAICB_x2F_backhill2_blue_x2F__x3C_Path_x3E__x5F_14" viewBox="0 -2.75 34.1 2.75">
	<g id="Layer_1_26_">
		<path style="fill-rule:evenodd;clip-rule:evenodd;fill:#A1B5AA;" d="M34.1-1c-0.2-0.267-0.617-0.55-1.25-0.85
			c-1.267-0.533-3-0.8-5.2-0.8c-2.467-0.033-4.483-0.067-6.05-0.1c-2.967,0-4.867,0.033-5.7,0.1c-0.467,0.033-1.583,0.033-3.35,0
			c-1.5-0.067-2.767-0.017-3.8,0.15C6.95-2.2,4.033-1.367,0,0c1.333-0.333,2.717-0.617,4.15-0.85c2.833-0.5,4.5-0.533,5-0.1
			c0.434,0.434,1.667,0.534,3.7,0.3c3.733-0.467,6.05-0.717,6.95-0.75C23.533-1.567,28.3-1.433,34.1-1z"/>
	</g>
</symbol>
<symbol  id="FlashAICB_x2F_backhill2_blue_x2F__x3C_Path_x3E__x5F_15" viewBox="0 -2.9 34.8 2.9">
	<g id="Layer_1_25_">
		<path style="fill-rule:evenodd;clip-rule:evenodd;fill:#A1B5AA;" d="M34.8-1.05c-0.2-0.3-0.633-0.6-1.3-0.9
			c-1.333-0.566-3.133-0.85-5.4-0.85c-2.5-0.034-4.55-0.067-6.15-0.1c-3.034,0-4.983,0.033-5.85,0.1c-0.4,0.033-1.533,0.033-3.4,0
			c-1.534-0.034-2.833,0.033-3.9,0.2C6.967-2.3,4.033-1.433,0,0c1.333-0.367,2.717-0.683,4.15-0.95C7.05-1.45,8.767-1.467,9.3-1
			c0.467,0.433,1.733,0.533,3.8,0.3c3.9-0.5,6.25-0.767,7.05-0.8C23.95-1.667,28.833-1.517,34.8-1.05z"/>
	</g>
</symbol>
<symbol  id="FlashAICB_x2F_backhill2_blue_x2F__x3C_Path_x3E__x5F_16" viewBox="0 -5.505 34.85 5.505">
	<g id="Layer_1_24_">
		<path style="fill-rule:evenodd;clip-rule:evenodd;fill:#A1B5AA;" d="M34.85,0c-0.133-0.333-0.5-0.683-1.1-1.05
			c-1.167-0.767-2.85-1.3-5.05-1.6c-6.434-1.167-10.367-1.8-11.8-1.9c-0.5-0.034-1.65-0.217-3.45-0.55
			C11.917-5.4,10.6-5.533,9.5-5.5C7.6-5.5,4.433-5.1,0-4.3c5.733-0.567,8.95-0.417,9.65,0.45c0.4,0.533,1.65,0.833,3.75,0.9
			c3.9,0.1,6.317,0.2,7.25,0.3C24.417-2.217,29.15-1.333,34.85,0z"/>
	</g>
</symbol>
<symbol  id="FlashAICB_x2F_backhill2_blue_x2F__x3C_Path_x3E__x5F_17" viewBox="0 -3.65 16.7 3.65">
	<g id="Layer_1_23_">
		<path style="fill-rule:evenodd;clip-rule:evenodd;fill:#A1B5AA;" d="M11.9-3.65c-0.533,0-1.167,0.1-1.9,0.3
			C9.2-3.15,8.667-3.033,8.4-3C5.467-2.367,3.6-1.967,2.8-1.8C1.767-1.567,0.983-1.2,0.45-0.7C0.217-0.433,0.067-0.2,0,0
			c2.667-0.9,4.9-1.483,6.7-1.75c0.533-0.067,1.716-0.133,3.55-0.2c1-0.033,1.583-0.216,1.75-0.55c0.267-0.6,1.833-0.717,4.7-0.35
			C14.467-3.383,12.867-3.65,11.9-3.65z"/>
	</g>
</symbol>
<symbol  id="FlashAICB_x2F_backhill2_blue_x2F__x3C_Path_x3E__x5F_18" viewBox="0 -3.35 15.9 3.35">
	<g id="Layer_1_22_">
		<path style="fill-rule:evenodd;clip-rule:evenodd;fill:#A1B5AA;" d="M11.3-3.35c-0.5,0-1.1,0.083-1.8,0.25
			C8.7-2.9,8.183-2.783,7.95-2.75c-0.367,0.033-1.233,0.2-2.6,0.5c-1.6,0.367-2.517,0.567-2.75,0.6c-0.967,0.2-1.7,0.533-2.2,1
			C0.167-0.417,0.033-0.2,0,0c2.533-0.833,4.667-1.367,6.4-1.6c0.434-0.066,1.55-0.133,3.35-0.2c0.967-0.034,1.517-0.2,1.65-0.5
			c0.233-0.534,1.733-0.633,4.5-0.3C13.733-3.1,12.2-3.35,11.3-3.35z"/>
	</g>
</symbol>
<symbol  id="FlashAICB_x2F_backhill2_blue_x2F__x3C_Path_x3E__x5F_19" viewBox="0 -3.953 31.45 3.953">
	<g id="Layer_1_21_">
		<path style="fill-rule:evenodd;clip-rule:evenodd;fill:#A1B5AA;" d="M31.45,0c-3.7-1.4-6.383-2.283-8.05-2.65
			c-0.933-0.2-2.1-0.333-3.5-0.4c-1.533-0.067-2.55-0.133-3.05-0.2c-0.767-0.1-2.533-0.217-5.3-0.35C7.883-3.8,6.033-3.9,6-3.9
			C3.967-4.033,2.367-3.917,1.2-3.55C0.6-3.35,0.2-3.133,0-2.9c5.367-0.033,9.767,0.133,13.2,0.5c0.867,0.1,3.017,0.45,6.45,1.05
			c1.833,0.333,2.967,0.333,3.4,0C23.783-1.917,26.583-1.467,31.45,0z"/>
	</g>
</symbol>
<symbol  id="FlashAICB_x2F_backhill2_blue_x2F__x3C_Path_x3E__x5F_1_x5F_0" viewBox="0 -5.6 21 5.6">
	<g id="Layer_1_39_">
		<path style="fill-rule:evenodd;clip-rule:evenodd;fill:#A1B5AA;" d="M21,0c-0.067-0.333-0.25-0.7-0.55-1.1
			c-0.667-0.767-1.65-1.316-2.95-1.65c-3.867-1.167-6.233-1.8-7.1-1.9C10.1-4.683,9.417-4.867,8.35-5.2C7.45-5.467,6.667-5.6,6-5.6
			c-1.2,0-3.2,0.417-6,1.25c0.9-0.167,1.817-0.267,2.75-0.3C4.65-4.717,5.7-4.467,5.9-3.9C6.1-3.367,6.833-3.067,8.1-3
			c2.4,0.1,3.883,0.2,4.45,0.3C14.817-2.3,17.633-1.4,21,0z"/>
	</g>
</symbol>
<symbol  id="FlashAICB_x2F_backhill2_blue_x2F__x3C_Path_x3E__x5F_1_x5F_1" viewBox="-0.011 -93.75 21.811 93.75">
	<g id="Layer_1_41_">
		<path style="fill-rule:evenodd;clip-rule:evenodd;fill:#C4C6C5;" d="M5.2-35.55c3.2,13.4,6.05,22.633,8.55,27.7
			C15.95-3.417,18.633-0.8,21.8,0c-1.367-1.833-2.7-5.3-4-10.4c-1.367-5.434-3.033-13.917-5-25.45C10.5-49.45,9.133-60.1,8.7-67.8
			c-0.6-11,0.267-19.65,2.6-25.95C4.033-89.117,0.267-81.183,0-69.95C-0.167-62.217,1.567-50.75,5.2-35.55z"/>
	</g>
</symbol>
<symbol  id="FlashAICB_x2F_backhill2_blue_x2F__x3C_Path_x3E__x5F_2" viewBox="0 -5.478 42.8 5.478">
	<g id="Layer_1_38_">
		<path style="fill-rule:evenodd;clip-rule:evenodd;fill:#A1B5AA;" d="M42.8-3.15C42.567-3.583,42.05-4,41.25-4.4
			c-1.6-0.833-3.783-1.184-6.55-1.05c-8.133,0.1-13.083,0.267-14.85,0.5C19.283-4.883,17.9-4.833,15.7-4.8c-1.9,0-3.5,0.15-4.8,0.45
			C8.633-3.817,5-2.367,0,0c1.667-0.6,3.383-1.117,5.15-1.55c3.533-0.934,5.6-1.05,6.2-0.35c0.566,0.633,2.117,0.717,4.65,0.25
			c4.633-0.9,7.567-1.4,8.8-1.5C29.467-3.583,35.467-3.583,42.8-3.15z"/>
	</g>
</symbol>
<symbol  id="FlashAICB_x2F_backhill2_blue_x2F__x3C_Path_x3E__x5F_20" viewBox="0 -1.662 27.8 1.662">
	<g id="Layer_1_20_">
		<path style="fill-rule:evenodd;clip-rule:evenodd;fill:#A1B5AA;" d="M27.8,0c-3.4-0.867-5.85-1.383-7.35-1.55
			c-0.833-0.1-1.867-0.133-3.1-0.1c-1.4,0.066-2.3,0.083-2.7,0.05c-0.4,0-3.566,0.067-9.5,0.2C3.417-1.4,2.033-1.217,1-0.85
			C0.5-0.683,0.167-0.5,0-0.3c4.667-0.333,8.5-0.467,11.5-0.4c0.8,0.034,2.7,0.167,5.7,0.4c1.667,0.133,2.683,0.066,3.05-0.2
			C20.85-1,23.367-0.833,27.8,0z"/>
	</g>
</symbol>
<symbol  id="FlashAICB_x2F_backhill2_blue_x2F__x3C_Path_x3E__x5F_21" viewBox="0 -3.97 28.05 3.97">
	<g id="Layer_1_19_">
		<path style="fill-rule:evenodd;clip-rule:evenodd;fill:#A1B5AA;" d="M28.05,0c-3.2-1.233-5.533-2.017-7-2.35
			c-0.867-0.2-1.917-0.333-3.15-0.4C16.433-2.883,15.533-2.967,15.2-3c-0.667-0.133-2.233-0.283-4.7-0.45
			c-3.167-0.267-4.833-0.4-5-0.4C3.7-4.05,2.233-4,1.1-3.7C0.567-3.567,0.2-3.417,0-3.25c4.833,0.133,8.783,0.4,11.85,0.8
			c0.8,0.1,2.7,0.45,5.7,1.05c1.633,0.333,2.65,0.367,3.05,0.1C21.3-1.767,23.783-1.333,28.05,0z"/>
	</g>
</symbol>
<symbol  id="FlashAICB_x2F_backhill2_blue_x2F__x3C_Path_x3E__x5F_22" viewBox="0 -4.27 32.8 4.27">
	<g id="Layer_1_18_">
		<path style="fill-rule:evenodd;clip-rule:evenodd;fill:#A1B5AA;" d="M24.05-1.45c0.534-0.4,2.15-0.283,4.85,0.35
			c1.367,0.333,2.667,0.7,3.9,1.1c-3.8-1.533-6.566-2.5-8.3-2.9c-0.967-0.2-2.183-0.333-3.65-0.4c-1.633-0.067-2.7-0.133-3.2-0.2
			c-0.8-0.133-2.633-0.267-5.5-0.4c-3.066-0.167-5-0.267-5.8-0.3c-2.133-0.167-3.833-0.033-5.1,0.4C0.617-3.6,0.2-3.367,0-3.1
			c5.633-0.033,10.233,0.133,13.8,0.5c0.934,0.1,3.167,0.483,6.7,1.15C22.433-1.117,23.617-1.117,24.05-1.45z"/>
	</g>
</symbol>
<symbol  id="FlashAICB_x2F_backhill2_blue_x2F__x3C_Path_x3E__x5F_23" viewBox="0 -3.233 32.4 3.233">
	<g id="Layer_1_17_">
		<path style="fill-rule:evenodd;clip-rule:evenodd;fill:#A1B5AA;" d="M32.4-1.6c-4.066-0.967-6.983-1.5-8.75-1.6
			c-1.033-0.066-2.267-0.033-3.7,0.1c-1.667,0.167-2.717,0.25-3.15,0.25c-5.767,0.5-9.433,0.817-11,0.95
			C3.767-1.767,2.2-1.4,1.1-0.8C0.533-0.533,0.167-0.267,0,0c5.333-0.8,9.75-1.267,13.25-1.4c1-0.033,3.233,0.017,6.7,0.15
			c1.933,0.067,3.1-0.1,3.5-0.5C24.117-2.483,27.1-2.433,32.4-1.6z"/>
	</g>
</symbol>
<symbol  id="FlashAICB_x2F_backhill2_blue_x2F__x3C_Path_x3E__x5F_24" viewBox="0 -3.353 24.05 3.353">
	<g id="Layer_1_16_">
		<path style="fill-rule:evenodd;clip-rule:evenodd;fill:#A1B5AA;" d="M0,0c2.5-0.833,4.583-1.383,6.25-1.65
			c0.7-0.1,3.05-0.067,7.05,0.1c3.467,0.133,5.267,0.066,5.4-0.2c0.267-0.5,2.05-0.783,5.35-0.85
			C16.283-3.133,11.967-3.383,11.1-3.35c-0.5,0-1.083,0.083-1.75,0.25c-0.8,0.167-1.3,0.267-1.5,0.3
			C5.083-2.167,3.333-1.767,2.6-1.6C1.633-1.4,0.917-1.083,0.45-0.65C0.217-0.417,0.067-0.2,0,0z"/>
	</g>
</symbol>
<symbol  id="FlashAICB_x2F_backhill2_blue_x2F__x3C_Path_x3E__x5F_25" viewBox="0 -1.217 16.85 1.217">
	<g id="Layer_1_15_">
		<path style="fill-rule:evenodd;clip-rule:evenodd;fill:#A1B5AA;" d="M10.5-1.2c-0.833,0.034-1.383,0.034-1.65,0
			c-3,0.067-4.917,0.1-5.75,0.1C1.4-1.1,0.367-0.833,0-0.3c2.833-0.233,5.15-0.317,6.95-0.25c0.4,0,1.566,0.1,3.5,0.3
			c1,0.1,1.6,0.05,1.8-0.15c0.367-0.333,1.9-0.2,4.6,0.4c-2.067-0.633-3.55-1.017-4.45-1.15C11.867-1.217,11.233-1.233,10.5-1.2z"/>
	</g>
</symbol>
<symbol  id="FlashAICB_x2F_backhill2_blue_x2F__x3C_Path_x3E__x5F_26" viewBox="0 -2.097 13.25 2.097">
	<g id="Layer_1_14_">
		<path style="fill-rule:evenodd;clip-rule:evenodd;fill:#A1B5AA;" d="M0-1.6c2.267,0.033,4.117,0.15,5.55,0.35
			c0.5,0.067,1.4,0.233,2.7,0.5C9.017-0.55,9.5-0.533,9.7-0.7c0.333-0.267,1.517-0.033,3.55,0.7C11.717-0.7,10.6-1.133,9.9-1.3
			C9.5-1.4,9-1.483,8.4-1.55c-0.7-0.034-1.133-0.067-1.3-0.1c-2.367-0.2-3.883-0.333-4.55-0.4C1.217-2.183,0.367-2.033,0-1.6z"/>
	</g>
</symbol>
<symbol  id="FlashAICB_x2F_backhill2_blue_x2F__x3C_Path_x3E__x5F_27" viewBox="0 -1.225 13.2 1.225">
	<g id="Layer_1_13_">
		<path style="fill-rule:evenodd;clip-rule:evenodd;fill:#A1B5AA;" d="M0,0c2.2-0.3,4.017-0.467,5.45-0.5
			c0.466,0,1.383,0.033,2.75,0.1c0.767,0.066,1.233,0.017,1.4-0.15c0.233-0.333,1.433-0.284,3.6,0.15
			c-1.667-0.467-2.85-0.733-3.55-0.8c-0.433-0.033-0.933-0.033-1.5,0c-0.7,0.067-1.133,0.1-1.3,0.1L2.4-0.8
			C1.067-0.733,0.267-0.467,0,0z"/>
	</g>
</symbol>
<symbol  id="FlashAICB_x2F_backhill2_blue_x2F__x3C_Path_x3E__x5F_28" viewBox="0 -2.05 23.85 2.05">
	<g id="Layer_1_12_">
		<path style="fill-rule:evenodd;clip-rule:evenodd;fill:#A1B5AA;" d="M17.35-0.8c0.5-0.6,2.667-0.483,6.5,0.35
			c-2.934-0.9-5.033-1.417-6.3-1.55c-0.733-0.067-1.633-0.067-2.7,0c-1.233,0.067-2.017,0.1-2.35,0.1
			c-0.533-0.033-1.85,0.033-3.95,0.2c-2.367,0.167-3.767,0.25-4.2,0.25c-1.5,0.067-2.667,0.333-3.5,0.8C0.417-0.417,0.133-0.2,0,0
			c3.967-0.533,7.233-0.8,9.8-0.8c0.7,0,2.35,0.1,4.95,0.3C16.183-0.4,17.05-0.5,17.35-0.8z"/>
	</g>
</symbol>
<symbol  id="FlashAICB_x2F_backhill2_blue_x2F__x3C_Path_x3E__x5F_29" viewBox="0 -2.342 14.15 2.342">
	<g id="Layer_1_11_">
		<path style="fill-rule:evenodd;clip-rule:evenodd;fill:#A1B5AA;" d="M10.6-1.55c-0.4-0.1-0.934-0.167-1.6-0.2
			S7.883-1.833,7.65-1.9C5.083-2.1,3.467-2.233,2.8-2.3C1.333-2.433,0.4-2.25,0-1.75c2.433,0,4.417,0.1,5.95,0.3
			c0.367,0.067,1.333,0.267,2.9,0.6c0.8,0.2,1.3,0.217,1.5,0.05c0.367-0.333,1.633-0.067,3.8,0.8C12.517-0.8,11.333-1.317,10.6-1.55
			z"/>
	</g>
</symbol>
<symbol  id="FlashAICB_x2F_backhill2_blue_x2F__x3C_Path_x3E__x5F_3" viewBox="0 -10.1 38.85 10.1">
	<g id="Layer_1_37_">
		<path style="fill-rule:evenodd;clip-rule:evenodd;fill:#A1B5AA;" d="M38.85-8.8C38.55-9.167,38-9.467,37.2-9.7
			c-1.633-0.533-3.75-0.533-6.35,0c-7.5,1.233-12.033,2.083-13.6,2.55c-0.533,0.167-1.8,0.417-3.8,0.75
			c-1.733,0.267-3.167,0.633-4.3,1.1C7.183-4.5,4.133-2.733,0,0c1.4-0.733,2.867-1.417,4.4-2.05c3.033-1.3,4.883-1.684,5.55-1.15
			c0.6,0.5,2.017,0.35,4.25-0.45c4.233-1.434,6.85-2.283,7.85-2.55C26.283-7.267,31.883-8.133,38.85-8.8z"/>
	</g>
</symbol>
<symbol  id="FlashAICB_x2F_backhill2_blue_x2F__x3C_Path_x3E__x5F_30" viewBox="0 -3.05 14.85 3.05">
	<g id="Layer_1_10_">
		<path style="fill-rule:evenodd;clip-rule:evenodd;fill:#A1B5AA;" d="M10.6-3.05C10.133-3.017,9.567-2.933,8.9-2.8
			C8.167-2.633,7.7-2.533,7.5-2.5c-2.633,0.567-4.3,0.917-5,1.05C1.6-1.283,0.917-1,0.45-0.6C0.217-0.367,0.067-0.167,0,0
			c2.4-0.767,4.4-1.25,6-1.45c0.4-0.066,1.433-0.133,3.1-0.2c0.9-0.067,1.417-0.233,1.55-0.5c0.233-0.467,1.633-0.567,4.2-0.3
			C12.85-2.85,11.433-3.05,10.6-3.05z"/>
	</g>
</symbol>
<symbol  id="FlashAICB_x2F_backhill2_blue_x2F__x3C_Path_x3E__x5F_31" viewBox="0 -3.6 20.85 3.6">
	<g id="Layer_1_9_">
		<path style="fill-rule:evenodd;clip-rule:evenodd;fill:#A1B5AA;" d="M0,0c3.367-0.9,6.167-1.467,8.4-1.7
			c0.633-0.066,2.083-0.133,4.35-0.2c1.3-0.033,2.05-0.217,2.25-0.55c0.4-0.6,2.35-0.7,5.85-0.3C18.117-3.317,16.167-3.6,15-3.6
			c-0.667,0-1.45,0.083-2.35,0.25C11.583-3.15,10.9-3.033,10.6-3c-0.033,0-2.367,0.4-7,1.2C2.3-1.6,1.317-1.233,0.65-0.7
			C0.317-0.467,0.1-0.233,0,0z"/>
	</g>
</symbol>
<symbol  id="FlashAICB_x2F_backhill2_blue_x2F__x3C_Path_x3E__x5F_32" viewBox="0 -2.435 15.55 2.435">
	<g id="Layer_1_8_">
		<path style="fill-rule:evenodd;clip-rule:evenodd;fill:#A1B5AA;" d="M11.65-1.7c-0.433-0.1-1-0.167-1.7-0.2
			c-0.733-0.033-1.233-0.083-1.5-0.15C5.617-2.217,3.833-2.333,3.1-2.4C1.5-2.533,0.467-2.283,0-1.65c2.7-0.067,4.883,0,6.55,0.2
			C6.95-1.383,8-1.167,9.7-0.8c0.9,0.2,1.466,0.2,1.7,0c0.4-0.4,1.783-0.133,4.15,0.8C13.783-0.9,12.483-1.467,11.65-1.7z"/>
	</g>
</symbol>
<symbol  id="FlashAICB_x2F_backhill2_blue_x2F__x3C_Path_x3E__x5F_33" viewBox="0 -3.903 27.75 3.903">
	<g id="Layer_1_7_">
		<path style="fill-rule:evenodd;clip-rule:evenodd;fill:#A1B5AA;" d="M0,0c4.5-0.933,8.233-1.567,11.2-1.9
			c0.733-0.067,2.667-0.167,5.8-0.3c1.7-0.066,2.7-0.267,3-0.6c0.5-0.567,3.083-0.717,7.75-0.45C24.15-3.717,21.567-3.933,20-3.9
			c-0.833,0.033-1.883,0.15-3.15,0.35c-1.333,0.2-2.233,0.316-2.7,0.35C14.117-3.2,11-2.733,4.8-1.8C3.1-1.567,1.783-1.2,0.85-0.7
			C0.417-0.433,0.133-0.2,0,0z"/>
	</g>
</symbol>
<symbol  id="FlashAICB_x2F_backhill2_blue_x2F__x3C_Path_x3E__x5F_34" viewBox="0 -3.032 29.05 3.032">
	<g id="Layer_1_6_">
		<path style="fill-rule:evenodd;clip-rule:evenodd;fill:#A1B5AA;" d="M29.05,0c-3.433-1.167-5.933-1.883-7.5-2.15
			c-0.867-0.167-1.95-0.267-3.25-0.3c-1.466-0.033-2.4-0.066-2.8-0.1c-0.733-0.067-2.35-0.15-4.85-0.25C7.95-2.9,6.233-2.967,5.5-3
			C3.633-3.1,2.167-2.967,1.1-2.6C0.533-2.433,0.167-2.25,0-2.05c4.933-0.1,8.983-0.017,12.15,0.25C12.917-1.733,14.9-1.467,18.1-1
			c1.7,0.267,2.75,0.25,3.15-0.05C21.917-1.55,24.517-1.2,29.05,0z"/>
	</g>
</symbol>
<symbol  id="FlashAICB_x2F_backhill2_blue_x2F__x3C_Path_x3E__x5F_35" viewBox="0 -3.28 30.3 3.28">
	<g id="Layer_1_5_">
		<path style="fill-rule:evenodd;clip-rule:evenodd;fill:#A1B5AA;" d="M30.3,0c-3.566-1.267-6.15-2.05-7.75-2.35
			c-0.9-0.167-2.033-0.267-3.4-0.3c-1.5-0.033-2.483-0.083-2.95-0.15c-0.7-0.067-2.383-0.15-5.05-0.25
			C8.183-3.15,6.4-3.217,5.8-3.25C3.867-3.35,2.317-3.2,1.15-2.8C0.583-2.633,0.2-2.433,0-2.2c5.167-0.133,9.4-0.05,12.7,0.25
			c0.933,0.067,2.983,0.35,6.15,0.85c1.8,0.267,2.9,0.25,3.3-0.05C22.883-1.683,25.6-1.3,30.3,0z"/>
	</g>
</symbol>
<symbol  id="FlashAICB_x2F_backhill2_blue_x2F__x3C_Path_x3E__x5F_36" viewBox="0 -3.01 29.55 3.01">
	<g id="Layer_1_4_">
		<path style="fill-rule:evenodd;clip-rule:evenodd;fill:#A1B5AA;" d="M29.55-1.8c-3.767-0.733-6.466-1.133-8.1-1.2
			c-0.934-0.033-2.05,0.017-3.35,0.15c-1.533,0.167-2.483,0.25-2.85,0.25s-3.7,0.3-10,0.9c-1.867,0.133-3.3,0.467-4.3,1
			C0.45-0.467,0.133-0.233,0,0c4.833-0.767,8.85-1.217,12.05-1.35c0.934-0.033,2.983-0.033,6.15,0
			c1.767,0.033,2.816-0.117,3.15-0.45C21.95-2.4,24.683-2.4,29.55-1.8z"/>
	</g>
</symbol>
<symbol  id="FlashAICB_x2F_backhill2_blue_x2F__x3C_Path_x3E__x5F_37" viewBox="0 -95.85 23.834 95.85">
	<g id="Layer_1_42_">
		<path style="fill-rule:evenodd;clip-rule:evenodd;fill:#C4C6C5;" d="M9.15-36.05C6.783-24.15,4.933-15.6,3.6-10.4
			C2.3-5.233,1.1-1.767,0,0c2.667-0.733,5.1-3.3,7.3-7.7c2.4-4.767,5.867-14.233,10.4-28.4c4.566-14.167,6.583-25.883,6.05-35.15
			c-0.733-12.2-5.817-20.4-15.25-24.6C14.5-84.05,14.717-64.117,9.15-36.05z"/>
	</g>
</symbol>
<symbol  id="FlashAICB_x2F_backhill2_blue_x2F__x3C_Path_x3E__x5F_38" viewBox="-0.001 -2.55 17.655 2.55">
	<g id="Layer_1_43_">
		<path style="fill-rule:evenodd;clip-rule:evenodd;fill:#ABAEB0;" d="M17.65-1.25c0.067-0.367-0.75-0.667-2.45-0.9
			c-1.733-0.267-3.833-0.4-6.3-0.4c-2.5,0-4.617,0.133-6.35,0.4C0.817-1.917-0.033-1.617,0-1.25c0.067,0.333,0.95,0.633,2.65,0.9
			C4.383-0.117,6.45,0,8.85,0S13.3-0.117,15-0.35C16.733-0.617,17.617-0.917,17.65-1.25z"/>
	</g>
</symbol>
<symbol  id="FlashAICB_x2F_backhill2_blue_x2F__x3C_Path_x3E__x5F_4" viewBox="0 -9.45 38.15 9.45">
	<g id="Layer_1_36_">
		<path style="fill-rule:evenodd;clip-rule:evenodd;fill:#A1B5AA;" d="M38.15-8.25c-0.267-0.333-0.8-0.617-1.6-0.85
			c-1.566-0.467-3.617-0.467-6.15,0c-7.333,1.167-11.783,1.967-13.35,2.4c-0.5,0.133-1.733,0.35-3.7,0.65
			C11.683-5.783,10.283-5.433,9.15-5C7.217-4.267,4.167-2.6,0,0c1.4-0.7,2.85-1.367,4.35-2c3.033-1.2,4.867-1.55,5.5-1.05
			c0.566,0.466,1.95,0.333,4.15-0.4c4.033-1.3,6.6-2.083,7.7-2.35C25.867-6.8,31.35-7.617,38.15-8.25z"/>
	</g>
</symbol>
<symbol  id="FlashAICB_x2F_backhill2_blue_x2F__x3C_Path_x3E__x5F_5" viewBox="0 -5.345 41.95 5.345">
	<g id="Layer_1_35_">
		<path style="fill-rule:evenodd;clip-rule:evenodd;fill:#A1B5AA;" d="M41.95,0c-0.167-0.433-0.617-0.9-1.35-1.4
			c-1.434-0.967-3.467-1.567-6.1-1.8c-7.833-1-12.617-1.5-14.35-1.5c-0.6,0-1.967-0.133-4.1-0.4c-1.833-0.233-3.417-0.3-4.75-0.2
			C9-5.1,5.233-4.217,0-2.65c1.7-0.333,3.45-0.6,5.25-0.8c3.633-0.4,5.717-0.216,6.25,0.55c0.467,0.667,1.967,0.95,4.5,0.85
			c4.633-0.233,7.533-0.317,8.7-0.25C29.267-2.1,35.017-1.333,41.95,0z"/>
	</g>
</symbol>
<symbol  id="FlashAICB_x2F_backhill2_blue_x2F__x3C_Path_x3E__x5F_6" viewBox="0 -6.261 19.75 6.261">
	<g id="Layer_1_34_">
		<path style="fill-rule:evenodd;clip-rule:evenodd;fill:#A1B5AA;" d="M19.75,0c-0.033-0.3-0.2-0.65-0.5-1.05
			C18.683-1.817,17.8-2.4,16.6-2.8C13-4.133,10.783-4.883,9.95-5.05c-0.267-0.067-0.9-0.284-1.9-0.65
			C7.217-6.033,6.467-6.217,5.8-6.25C4.667-6.317,2.733-6.067,0-5.5c0.867-0.067,1.75-0.083,2.65-0.05
			c1.8,0.066,2.783,0.367,2.95,0.9c0.167,0.5,0.867,0.816,2.1,0.95c2.167,0.267,3.566,0.483,4.2,0.65
			C14.033-2.517,16.65-1.5,19.75,0z"/>
	</g>
</symbol>
<symbol  id="FlashAICB_x2F_backhill2_blue_x2F__x3C_Path_x3E__x5F_7" viewBox="0 -5.674 19.05 5.674">
	<g id="Layer_1_33_">
		<path style="fill-rule:evenodd;clip-rule:evenodd;fill:#A1B5AA;" d="M19.05,0c-0.066-0.267-0.233-0.583-0.5-0.95
			c-0.6-0.667-1.483-1.183-2.65-1.55c-3.5-1.233-5.633-1.933-6.4-2.1C9.2-4.633,8.583-4.817,7.65-5.15
			C6.817-5.45,6.1-5.617,5.5-5.65C4.4-5.75,2.567-5.533,0-5c3.3-0.267,5.1,0,5.4,0.8c0.167,0.434,0.833,0.717,2,0.85
			c2.2,0.267,3.533,0.45,4,0.55C13.467-2.3,16.017-1.367,19.05,0z"/>
	</g>
</symbol>
<symbol  id="FlashAICB_x2F_backhill2_blue_x2F__x3C_Path_x3E__x5F_8" viewBox="0 -7.069 37 7.069">
	<g id="Layer_1_32_">
		<path style="fill-rule:evenodd;clip-rule:evenodd;fill:#A1B5AA;" d="M37-5.7c-0.267-0.333-0.783-0.633-1.55-0.9
			c-1.5-0.5-3.467-0.6-5.9-0.3c-7.1,0.7-11.4,1.217-12.9,1.55c-0.433,0.1-1.633,0.233-3.6,0.4c-1.633,0.167-3,0.417-4.1,0.75
			C7.05-3.633,4.067-2.233,0,0c1.367-0.6,2.8-1.133,4.3-1.6c2.967-0.967,4.733-1.217,5.3-0.75c0.566,0.467,1.917,0.417,4.05-0.15
			c3.867-1,6.367-1.6,7.5-1.8C25.183-5,30.467-5.467,37-5.7z"/>
	</g>
</symbol>
<symbol  id="FlashAICB_x2F_backhill2_blue_x2F__x3C_Path_x3E__x5F_9" viewBox="0 -3.05 35.55 3.05">
	<g id="Layer_1_31_">
		<path style="fill-rule:evenodd;clip-rule:evenodd;fill:#A1B5AA;" d="M35.55-1.15c-0.2-0.3-0.65-0.6-1.35-0.9
			c-1.333-0.633-3.15-0.934-5.45-0.9c-6.733-0.133-10.833-0.133-12.3,0c-0.534,0.034-1.684,0.034-3.45,0
			c-1.567-0.033-2.883,0.034-3.95,0.2C7.15-2.417,4.133-1.5,0,0c5.467-1.467,8.633-1.817,9.5-1.05c0.5,0.466,1.783,0.566,3.85,0.3
			c3.767-0.5,6.183-0.767,7.25-0.8C24.467-1.75,29.45-1.617,35.55-1.15z"/>
	</g>
</symbol>
<g>
	<g>
		<g>
			<g>
				<path style="fill-rule:evenodd;clip-rule:evenodd;fill:#666F7A;" d="M9.55,85.6c1.1-1.566,2.717-2.85,4.85-3.85
					c2.1-1,4.217-1.533,6.35-1.6c1-1.801,2.533-3.25,4.6-4.351c2.033-1.1,4.083-1.616,6.15-1.55c1.633,0.066,3.05,0.5,4.25,1.3
					c1.167,0.8,1.917,1.834,2.25,3.101c1-0.301,2.017-0.434,3.05-0.4c1.967,0.1,3.684,0.783,5.15,2.05c0.8-1.2,2.05-2.133,3.75-2.8
					c1.7-0.634,3.633-0.917,5.8-0.85c3.1,0.166,6.033,0.983,8.8,2.449c0.7-1.166,2.066-1.699,4.101-1.6
					c1.733,0.066,3.566,0.634,5.5,1.7c1.933,1.066,3.449,2.366,4.55,3.899c1.267,1.801,1.583,3.351,0.95,4.65
					c-0.634,1.333-2.067,1.934-4.301,1.8c-0.466,0-0.933-0.05-1.399-0.149L74.35,90c0.9,1.733,0.65,3.184-0.75,4.35
					c-1.433,1.167-3.616,1.684-6.55,1.551c-2.366-0.167-4.517-0.7-6.45-1.601h-0.25l-1.1-0.1c-1.267,1.467-3.634,2.583-7.1,3.35
					C48.55,98.35,44.5,98.634,40,98.4c-4.467-0.267-8.367-1-11.7-2.2c-3.233-1.134-5.333-2.483-6.3-4.05
					c-2.4,1.133-4.817,1.633-7.25,1.5C11.917,93.517,10,92.634,9,91C8.033,89.4,8.217,87.6,9.55,85.6z"/>
			</g>
			<g>
				<path style="fill-rule:evenodd;clip-rule:evenodd;fill:#A1BFBB;" d="M70.8,36.6c6.134,19,7.8,33.733,5,44.2
					c-3.733,14.066-15.434,20.05-35.1,17.95c-14.367-1.5-22.6-8.533-24.7-21.1c-1.433-8.5,0.133-22.351,4.7-41.55
					c4-16.667,7.75-27.184,11.25-31.55c1.633-2.066,3.566-3.4,5.8-4c1.5-0.4,3.95-0.583,7.35-0.55
					c3.667,0.033,6.034,0.167,7.101,0.4c2.066,0.467,3.866,1.684,5.399,3.65C60.634,7.917,65.033,18.767,70.8,36.6z"/>
				
					<use xlink:href="#FlashAICB_x2F_backhill2_blue_x2F__x3C_Path_x3E__x5F_1"  width="61.63" height="99.163" x="0.086" y="-99.159" transform="matrix(1 0 0 -1 15.3999 0)" style="overflow:visible;opacity:0.5;enable-background:new    ;"/>
				
					<use xlink:href="#FlashAICB_x2F_backhill2_blue_x2F__x3C_Path_x3E_"  width="61.63" height="99.163" x="0.086" y="-99.159" transform="matrix(1 0 0 -1 15.3999 0)" style="overflow:visible;opacity:0.5;enable-background:new    ;"/>
				
					<use xlink:href="#FlashAICB_x2F_backhill2_blue_x2F__x3C_Clip_Group_0_x3E_"  width="83.6" height="99.163" y="-99.159" transform="matrix(1 0 0 -1 0 0)" style="overflow:visible;"/>
			</g>
		</g>
		<g>
			<path style="fill-rule:evenodd;clip-rule:evenodd;fill:#666F7A;" d="M81.45,89.8c1.399,1.334,1.767,2.467,1.1,3.4
				c-0.7,0.967-2.25,1.399-4.649,1.3l-1.551-0.15c0.2,0.167,0.351,0.334,0.45,0.5c1,1.267,0.75,2.317-0.75,3.15
				c-1.566,0.833-3.934,1.184-7.1,1.05c-2.267-0.1-4.601-0.517-7-1.25H61.7l-1.2-0.1c-1.4,1.066-3.967,1.866-7.7,2.399
				c-3.866,0.534-8.233,0.684-13.1,0.45c-4.867-0.233-9.117-0.816-12.75-1.75c-3.5-0.866-5.784-1.883-6.85-3.05
				c-2.567,0.8-5.184,1.15-7.85,1.05c-3.067-0.133-5.167-0.816-6.3-2.05c-1.067-1.2-0.867-2.517,0.6-3.95
				c1.3-1.233,2.633-2.149,4-2.75c1.633-0.733,3.517-1.1,5.65-1.1c1.033-1.267,3.083-2.316,6.15-3.15
				c2.8-0.767,5.417-1.116,7.85-1.05c1.767,0.066,3.3,0.4,4.6,1c1.267,0.6,2.083,1.366,2.45,2.3c1.133-0.2,2.25-0.283,3.35-0.25
				c2.133,0.101,4,0.617,5.6,1.55c0.866-0.866,2.217-1.533,4.05-2c1.833-0.466,3.917-0.649,6.25-0.55
				c3.366,0.134,6.566,0.767,9.6,1.9c0.367-0.4,1.15-0.7,2.351-0.9c1.233-0.233,2.616-0.3,4.149-0.2c2.4,0.267,4.233,0.75,5.5,1.45
				C78.866,87.483,79.983,88.4,81.45,89.8z"/>
		</g>
	</g>
	<g>
		<path style="fill-rule:evenodd;clip-rule:evenodd;fill:#6F7985;" d="M82,90.4c1,1.233,1.116,2.25,0.35,3.05S80.1,94.6,77.9,94.5
			c-0.434,0-0.9-0.05-1.4-0.15c1.1-0.8,1.2-1.75,0.3-2.85l-0.45-0.45L77.9,91.2C79.733,91.3,81.1,91.033,82,90.4z"/>
		<path style="fill-rule:evenodd;clip-rule:evenodd;fill:#6F7985;" d="M26.95,98.8c-3.5-0.866-5.784-1.883-6.85-3.05
			c-2.567,0.8-5.184,1.15-7.85,1.05C9.417,96.667,7.4,96.066,6.2,95C5.067,93.967,5,92.783,6,91.45c1.1,1.233,3.183,1.916,6.25,2.05
			c2.667,0.1,5.283-0.25,7.85-1.05c1.066,1.166,3.35,2.184,6.85,3.05c3.633,0.934,7.883,1.517,12.75,1.75
			c4.866,0.233,9.233,0.083,13.1-0.45c3.733-0.533,6.3-1.333,7.7-2.399l1.2,0.1h0.25c2.233,0.7,4.566,1.116,7,1.25
			c3.5,0.134,6-0.316,7.5-1.35l0.35,0.449c1,1.267,0.75,2.317-0.75,3.15c-1.566,0.833-3.934,1.184-7.1,1.05
			c-2.267-0.1-4.601-0.517-7-1.25H61.7l-1.2-0.1c-1.4,1.066-3.967,1.866-7.7,2.399c-3.866,0.534-8.233,0.684-13.1,0.45
			C34.833,100.316,30.583,99.733,26.95,98.8z"/>
	</g>
	<path style="fill-rule:evenodd;clip-rule:evenodd;fill:#6F7985;" d="M54.3,91.05c0,0.267-0.35,0.4-1.05,0.4c-0.667,0-1-0.134-1-0.4
		c0-0.233,0.333-0.35,1-0.35C53.95,90.7,54.3,90.816,54.3,91.05z"/>
	<path style="fill-rule:evenodd;clip-rule:evenodd;fill:#6F7985;" d="M56.45,90.05c0,0.233-0.316,0.351-0.95,0.351
		s-0.95-0.117-0.95-0.351c0-0.267,0.316-0.399,0.95-0.399S56.45,89.783,56.45,90.05z"/>
	<path style="fill-rule:evenodd;clip-rule:evenodd;fill:#6F7985;" d="M20.5,88.45c0,0.267-0.35,0.399-1.05,0.399
		c-0.667,0-1-0.133-1-0.399c0-0.233,0.333-0.351,1-0.351C20.15,88.1,20.5,88.217,20.5,88.45z"/>
	<path style="fill-rule:evenodd;clip-rule:evenodd;fill:#6F7985;" d="M22.65,87.45c0,0.233-0.316,0.35-0.95,0.35
		s-0.95-0.116-0.95-0.35c0-0.267,0.317-0.4,0.95-0.4S22.65,87.184,22.65,87.45z"/>
	<path style="fill-rule:evenodd;clip-rule:evenodd;fill:#6F7985;" d="M35,88c0,0.233-0.35,0.35-1.05,0.35c-0.667,0-1-0.116-1-0.35
		c0-0.267,0.333-0.4,1-0.4C34.65,87.6,35,87.733,35,88z"/>
	<path style="fill-rule:evenodd;clip-rule:evenodd;fill:#6F7985;" d="M37.1,86.95c0,0.267-0.3,0.399-0.9,0.399
		c-0.633,0-0.95-0.133-0.95-0.399c0-0.233,0.317-0.351,0.95-0.351C36.8,86.6,37.1,86.717,37.1,86.95z"/>
	<path style="fill-rule:evenodd;clip-rule:evenodd;fill:#6F7985;" d="M11.85,90.7c0,0.233-0.3,0.35-0.9,0.35
		c-0.633,0-0.95-0.116-0.95-0.35c0-0.267,0.317-0.4,0.95-0.4C11.55,90.3,11.85,90.434,11.85,90.7z"/>
	<path style="fill-rule:evenodd;clip-rule:evenodd;fill:#6F7985;" d="M63.95,87.5c0,0.434-0.533,0.65-1.601,0.65
		c-1.1,0-1.649-0.217-1.649-0.65c0-0.167,0.166-0.316,0.5-0.45c0.333-0.133,0.717-0.2,1.149-0.2c0.434,0,0.801,0.067,1.101,0.2
		C63.783,87.184,63.95,87.333,63.95,87.5z"/>
	<path style="fill-rule:evenodd;clip-rule:evenodd;fill:#6F7985;" d="M66.45,88.25c0,0.333-0.351,0.5-1.05,0.5
		c-0.733,0-1.101-0.167-1.101-0.5c0-0.3,0.367-0.45,1.101-0.45C66.1,87.8,66.45,87.95,66.45,88.25z"/>
	<path style="fill-rule:evenodd;clip-rule:evenodd;fill:#6F7985;" d="M65.55,87c0,0.167-0.184,0.25-0.55,0.25
		c-0.333,0-0.5-0.083-0.5-0.25c0-0.134,0.167-0.2,0.5-0.2C65.366,86.8,65.55,86.866,65.55,87z"/>
	<path style="fill-rule:evenodd;clip-rule:evenodd;fill:#6F7985;" d="M39.35,92.95c0.433,0,0.816,0.066,1.15,0.2
		c0.3,0.133,0.45,0.283,0.45,0.449c0,0.167-0.15,0.317-0.45,0.45c-0.333,0.134-0.717,0.2-1.15,0.2c-0.434,0-0.817-0.066-1.15-0.2
		c-0.333-0.133-0.5-0.283-0.5-0.45c0-0.166,0.167-0.316,0.5-0.449C38.533,93.017,38.917,92.95,39.35,92.95z"/>
	<path style="fill-rule:evenodd;clip-rule:evenodd;fill:#6F7985;" d="M43.45,94.35c0,0.301-0.351,0.45-1.05,0.45
		c-0.7,0-1.051-0.149-1.051-0.45c0-0.3,0.351-0.449,1.051-0.449C43.1,93.9,43.45,94.05,43.45,94.35z"/>
	<path style="fill-rule:evenodd;clip-rule:evenodd;fill:#6F7985;" d="M42.55,93.1c0,0.167-0.166,0.25-0.5,0.25
		c-0.366,0-0.55-0.083-0.55-0.25c0-0.166,0.184-0.25,0.55-0.25C42.384,92.85,42.55,92.934,42.55,93.1z"/>
	<path style="fill-rule:evenodd;clip-rule:evenodd;fill:#6F7985;" d="M77.8,88c0,0.3-0.483,0.45-1.45,0.45
		c-0.966,0-1.449-0.15-1.449-0.45c0-0.333,0.483-0.5,1.449-0.5c0.4,0,0.75,0.05,1.051,0.15C77.667,87.75,77.8,87.866,77.8,88z"/>
	<path style="fill-rule:evenodd;clip-rule:evenodd;fill:#6F7985;" d="M17.3,87.45c0,0.3-0.483,0.45-1.45,0.45s-1.45-0.15-1.45-0.45
		c0-0.334,0.483-0.5,1.45-0.5c0.4,0,0.75,0.05,1.05,0.149C17.167,87.2,17.3,87.316,17.3,87.45z"/>
	<path style="fill-rule:evenodd;clip-rule:evenodd;fill:#6F7985;" d="M74.7,86.8c0,0.233-0.267,0.351-0.8,0.351
		c-0.567,0-0.851-0.117-0.851-0.351c0-0.267,0.283-0.399,0.851-0.399C74.434,86.4,74.7,86.533,74.7,86.8z"/>
	<path style="fill-rule:evenodd;clip-rule:evenodd;fill:#6F7985;" d="M76.95,86.45c0,0.166-0.184,0.25-0.55,0.25
		c-0.367,0-0.551-0.084-0.551-0.25c0-0.167,0.184-0.25,0.551-0.25C76.767,86.2,76.95,86.283,76.95,86.45z"/>
	<path style="fill-rule:evenodd;clip-rule:evenodd;fill:#6F7985;" d="M55.85,2.3c0.101,0.567-0.899,1.05-3,1.45
		c-2.133,0.4-4.75,0.6-7.85,0.6s-5.717-0.2-7.85-0.6s-3.167-0.883-3.1-1.45c0.1-0.533,1.217-0.983,3.35-1.35
		c2.1-0.367,4.617-0.55,7.55-0.55c2.899,0,5.416,0.184,7.55,0.55S55.75,1.767,55.85,2.3z"/>
	
		<use xlink:href="#FlashAICB_x2F_backhill2_blue_x2F__x3C_Path_x3E__x5F_38"  width="17.655" height="2.55" x="-0.001" y="-2.55" transform="matrix(1 0 0 -1 36.2998 0.8501)" style="overflow:visible;opacity:0.5;enable-background:new    ;"/>
</g>
</svg>
