<?xml version="1.0" encoding="iso-8859-1"?>
<!-- Generator: Adobe Illustrator 15.1.0, SVG Export Plug-In . SVG Version: 6.00 Build 0)  -->
<!DOCTYPE svg PUBLIC "-//W3C//DTD SVG 1.1//EN" "http://www.w3.org/Graphics/SVG/1.1/DTD/svg11.dtd">
<svg version="1.1" id="background_green_bump_2" xmlns="http://www.w3.org/2000/svg" xmlns:xlink="http://www.w3.org/1999/xlink"
	 x="0px" y="0px" width="1131.85px" height="76.35px" viewBox="0 0 1131.85 76.35"
	 style="enable-background:new 0 0 1131.85 76.35;" xml:space="preserve">
<linearGradient id="SVGID_1_" gradientUnits="userSpaceOnUse" x1="-76.8916" y1="566.4766" x2="-0.5416" y2="566.4766" gradientTransform="matrix(1.309758e-005 -1 1 -0.001 -2.001064e-004 -2.020326e-004)">
	<stop  offset="0" style="stop-color:#54523D"/>
	<stop  offset="0.0431" style="stop-color:#514F3B"/>
	<stop  offset="0.6627" style="stop-color:#302F20"/>
	<stop  offset="1" style="stop-color:#242316"/>
</linearGradient>
<path style="fill-rule:evenodd;clip-rule:evenodd;fill:url(#SVGID_1_);" d="M1043,37.35c40.6,8.6,70.4,21.6,89.4,39H0.55
	C31.883,44.517,74.917,22.8,129.65,11.2c55.7-11.833,128.5-14.284,218.4-7.35c25.7,2,55.667,3.667,89.9,5
	c14.966,0.566,45.116,1.533,90.45,2.9c75.367,2.267,130.65,5.333,165.85,9.2c18.066,2,50.9,2.867,98.5,2.6
	c60-0.3,102.217-0.033,126.65,0.8C969.3,26.117,1010.5,30.45,1043,37.35z"/>
</svg>
