<?xml version="1.0" encoding="iso-8859-1"?>
<!-- Generator: Adobe Illustrator 15.1.0, SVG Export Plug-In . SVG Version: 6.00 Build 0)  -->
<!DOCTYPE svg PUBLIC "-//W3C//DTD SVG 1.1//EN" "http://www.w3.org/Graphics/SVG/1.1/DTD/svg11.dtd">
<svg version="1.1" id="FlashAICB" xmlns="http://www.w3.org/2000/svg" xmlns:xlink="http://www.w3.org/1999/xlink" x="0px" y="0px"
	 width="219.5px" height="55px" viewBox="0 0 219.5 55" style="enable-background:new 0 0 219.5 55;" xml:space="preserve">
<path style="fill-rule:evenodd;clip-rule:evenodd;fill:#403121;" d="M99.75,55c-3.5,0-7.067-0.35-10.7-1.05
	c-2.066-0.367-5.25-1.017-9.55-1.95c-2.9-0.533-6.183-0.733-9.85-0.6c-1.833,0.066-3.383,0.183-4.65,0.35l-8.2-0.3
	c-6.133-0.267-10.816-0.667-14.05-1.2c-3.033-0.5-6.567-1.983-10.6-4.45c-4.867-2.967-7.583-4.566-8.15-4.8
	c-1.5-0.6-3.983-1.2-7.45-1.8C12.85,38.566,10,37.917,8,37.25c-2.5-0.833-4.583-1.95-6.25-3.35L0,32c1.333-1.833,2.583-4.167,3.75-7
	c0.733-1.767,1.667-4.583,2.8-8.45L8,11.25h6.75c12.833,1.833,19.833,2.75,21,2.75h173.5l0.3,2.3c0.367,2,1.017,4.15,1.95,6.45
	c1.5,3.667,4.167,9.583,8,17.75l-1.75,1c-1.167,0.667-3,1.333-5.5,2v2.25l-1.5,0.45c-1.233,0.333-2.483,0.6-3.75,0.8
	c-1.967,0.333-3.816,0.55-5.55,0.65c-2.733,0.133-6.384,0.083-10.95-0.15c-6.7-0.333-21.533,1-44.5,4
	c-4.8,0.634-12.15,0.983-22.05,1.05c-4.967,0.066-9.45,0.05-13.45-0.05l-0.5,2l-1.95,0.25C106.05,54.917,103.283,55,99.75,55z"/>
<path style="fill-rule:evenodd;clip-rule:evenodd;fill:#4C3B2A;" d="M118.3,22.3c-11.566,1.9-21.417,2.884-29.55,2.95
	c-13.967,0.167-24.267,0.033-30.9-0.4c-7.167-0.5-13.617-1.534-19.35-3.1c-3.067-0.833-7.333-1.533-12.8-2.1
	c-4.434-0.466-9.25-1.683-14.45-3.65c-3.467-1.3-5.317-2.85-5.55-4.65c-0.233-1.767,1.1-3.467,4-5.1C16.633,2.383,28.067,0.633,44,1
	c2.867,0.067,17.25-0.067,43.15-0.4C115.616,0.2,134.066,0,142.5,0c12.2,0,24.767,1.067,37.7,3.2
	c12.434,2.033,21.783,4.466,28.05,7.3c1.9,0.867,2.917,1.917,3.05,3.15c0.167,1.2-0.467,2.383-1.899,3.55
	c-3.334,2.7-8.634,4.05-15.9,4.05c-4.5,0-10.767-0.217-18.8-0.65c-8.7-0.467-17.601-0.75-26.7-0.85
	C139.233,19.65,129.333,20.5,118.3,22.3z"/>
</svg>
