<?xml version="1.0" encoding="iso-8859-1"?>
<!-- Generator: Adobe Illustrator 15.1.0, SVG Export Plug-In . SVG Version: 6.00 Build 0)  -->
<!DOCTYPE svg PUBLIC "-//W3C//DTD SVG 1.1//EN" "http://www.w3.org/Graphics/SVG/1.1/DTD/svg11.dtd">
<svg version="1.1" id="barnacle_states" xmlns="http://www.w3.org/2000/svg" xmlns:xlink="http://www.w3.org/1999/xlink" x="0px"
	 y="0px" width="43px" height="47px" viewBox="0 0 43 47" style="enable-background:new 0 0 43 47;" xml:space="preserve">
<symbol  id="FlashAICB_x2F_barnacle_states_x2F__x3C_Path_x3E_" viewBox="-0.046 -46.962 39.641 47.024">
	<g id="Layer_1_2_">
		
			<radialGradient id="SVGID_1_" cx="14315.833" cy="-18880.8848" r="20.6528" gradientTransform="matrix(-0.9177 -0.3974 -0.2296 0.9673 8822.4834 23929.125)" gradientUnits="userSpaceOnUse">
			<stop  offset="0" style="stop-color:#000000"/>
			<stop  offset="1" style="stop-color:#000000;stop-opacity:0"/>
		</radialGradient>
		<path style="fill-rule:evenodd;clip-rule:evenodd;fill:url(#SVGID_1_);" d="M0.7-31.7c-1.434,6.067-0.8,12.05,1.9,17.95
			C5.333-7.85,9.317-3.767,14.55-1.5c5.267,2.267,10.267,2.067,15-0.6c4.733-2.667,7.833-7.033,9.3-13.1
			c1.433-6.066,0.8-12.05-1.9-17.95c-2.733-5.9-6.717-9.983-11.95-12.25c-5.267-2.267-10.267-2.067-15,0.6
			C5.267-42.133,2.167-37.767,0.7-31.7z"/>
	</g>
</symbol>
<use xlink:href="#FlashAICB_x2F_barnacle_states_x2F__x3C_Path_x3E_"  width="39.641" height="47.024" x="-0.046" y="-46.962" transform="matrix(1 0 0 -1 0.0498 0.0498)" style="overflow:visible;opacity:0.6992;enable-background:new    ;"/>
<g>
	<path style="fill-rule:evenodd;clip-rule:evenodd;fill:#BEB473;" d="M37.3,8.9c3.467,3.7,5.351,8.133,5.65,13.3
		c0.333,5.166-1.017,9.566-4.05,13.2c-3.034,3.633-6.851,5.416-11.45,5.35c-4.566-0.033-8.6-1.9-12.1-5.6
		C11.883,31.45,10,27.033,9.7,21.9c-0.333-5.167,1.017-9.566,4.05-13.2c3.033-3.6,6.85-5.383,11.45-5.35
		C29.767,3.383,33.8,5.233,37.3,8.9z"/>
	<path style="fill-rule:evenodd;clip-rule:evenodd;fill:#7D7A4D;" d="M38.25,22.45c0.2,3.3-0.667,6.116-2.6,8.45
		c-1.967,2.333-4.417,3.483-7.351,3.449c-2.967-0.033-5.566-1.233-7.8-3.6s-3.45-5.217-3.65-8.55c-0.2-3.333,0.667-6.15,2.6-8.45
		c1.934-2.333,4.383-3.483,7.35-3.45c2.967,0.034,5.566,1.233,7.8,3.6S38.05,19.117,38.25,22.45z"/>
</g>
</svg>
