<?xml version="1.0" encoding="iso-8859-1"?>
<!-- Generator: Adobe Illustrator 15.1.0, SVG Export Plug-In . SVG Version: 6.00 Build 0)  -->
<!DOCTYPE svg PUBLIC "-//W3C//DTD SVG 1.1//EN" "http://www.w3.org/Graphics/SVG/1.1/DTD/svg11.dtd">
<svg version="1.1" id="bg2_x5F_mudflat3" xmlns="http://www.w3.org/2000/svg" xmlns:xlink="http://www.w3.org/1999/xlink" x="0px"
	 y="0px" width="414px" height="164px" viewBox="0 0 414 164" style="enable-background:new 0 0 414 164;" xml:space="preserve">
<symbol  id="FlashAICB_x2F_bg2_x5F_mudflat3_x2F__x3C_Clip_Group_0_x3E_" viewBox="0 -179 505.4 179">
	<g id="Layer_1_9_">
	</g>
	<g>
		<defs>
			<path id="SVGID_1_" d="M475.55-107.3c-0.066,0.5-1.417,7.3-4.05,20.4c-1.633,8-2.233,13.983-1.8,17.95
				c1.767,15.833,2.5,31.833,2.2,48c-0.167,8.1-0.5,14.617-1,19.55L98.25-0.8c0.667-3.434,1.3-8.633,1.9-15.6
				c1.233-13.934,1.75-29.8,1.55-47.6c-0.167-18.7-2.483-34.717-6.95-48.05c-1.1-3.267-2.6-7.034-4.5-11.3
				c-1.333-2.933-1.967-4.767-1.9-5.5c0.233-2.867,4.633-5,13.2-6.4c8.333-1.367,18.917-1.8,31.75-1.3
				c8.4,0.3,19.883,0.933,34.45,1.9c12.8,0.267,25.733-1.017,38.8-3.85c7.1-1.533,14.05-2.25,20.85-2.15
				c5.067,0.1,11.317,0.717,18.75,1.85c12.333,1.933,19.167,2.983,20.5,3.15c8.767,1.1,17.483,1.65,26.15,1.65
				c13.5,0,25.2,0.05,35.1,0.15c4.833-0.167,14.267-1.4,28.3-3.7c11.633-1.9,23.417-1.3,35.35,1.8c0.133,0.033,4.25,1.25,12.35,3.65
				c4.2,1.233,7.467,1.883,9.8,1.95c4.867,0.133,10.767-0.083,17.7-0.65c3.467-0.3,6.434-0.617,8.9-0.95
				c1.267-0.067,5.317-0.55,12.15-1.45c4.167-0.533,7.883-0.583,11.15-0.15c5.967,0.8,9.833,3.717,11.6,8.75
				C476.567-120.6,476.683-114.833,475.55-107.3z"/>
		</defs>
		<clipPath id="SVGID_2_">
			<use xlink:href="#SVGID_1_"  style="overflow:visible;"/>
		</clipPath>
		<g id="Layer_3_1_" style="clip-path:url(#SVGID_2_);">
			
				<use xlink:href="#FlashAICB_x2F_bg2_x5F_mudflat3_x2F__x3C_Path_x3E__x5F_3"  width="91.8" height="142" y="-142" transform="matrix(1 0 0 1 369.2002 -7.6499)" style="overflow:visible;opacity:0.8008;enable-background:new    ;"/>
			
				<use xlink:href="#FlashAICB_x2F_bg2_x5F_mudflat3_x2F__x3C_Path_x3E__x5F_2"  width="158.65" height="177.35" y="-177.35" transform="matrix(1 0 0 1 116.4502 0)" style="overflow:visible;opacity:0.8008;enable-background:new    ;"/>
			
				<use xlink:href="#FlashAICB_x2F_bg2_x5F_mudflat3_x2F__x3C_Path_x3E__x5F_1"  width="142.6" height="177.3" y="-177.3" transform="matrix(1 0 0 1 191.2002 -1.7002)" style="overflow:visible;opacity:0.8008;enable-background:new    ;"/>
			
				<use xlink:href="#FlashAICB_x2F_bg2_x5F_mudflat3_x2F__x3C_Path_x3E_"  width="43" height="148.8" y="-148.8" transform="matrix(1 0 0 1 292.2002 -0.1001)" style="overflow:visible;opacity:0.8008;enable-background:new    ;"/>
			<g>
				<g>
					
						<use xlink:href="#FlashAICB_x2F_bg2_x5F_mudflat3_x2F__x3C_Group_x3E__x5F_1"  width="499.3" height="101.85" y="-101.85" transform="matrix(1 0 0 1 0 -51.1499)" style="overflow:visible;opacity:0.3008;enable-background:new    ;"/>
					
						<use xlink:href="#FlashAICB_x2F_bg2_x5F_mudflat3_x2F__x3C_Group_x3E_"  width="484.3" height="120.75" y="-120.75" transform="matrix(1 0 0 1 21.1001 -13.5)" style="overflow:visible;opacity:0.3008;enable-background:new    ;"/>
				</g>
			</g>
		</g>
	</g>
	<g id="Layer_4_1_">
	</g>
</symbol>
<symbol  id="FlashAICB_x2F_bg2_x5F_mudflat3_x2F__x3C_Group_x3E_" viewBox="0 -120.75 484.3 120.75">
	<g id="Layer_1_7_">
		<g>
			<path style="fill-rule:evenodd;clip-rule:evenodd;fill:#583818;" d="M461.9-48.2c-2.033-4.533-3.65-8.95-4.85-13.25
				c-6.433,0.5-24.35,1.167-53.75,2c-27.3,0.767-51.867,2.184-73.7,4.25c-30.333,3.467-49.333,5.35-57,5.65
				c-5.633,0.233-10.917-0.067-15.85-0.9c-4.667-0.767-10.95-2.35-18.85-4.75c-13.4-4.033-27.75-6.9-43.05-8.6
				c-5.967-0.667-17.383-1.45-34.25-2.35c-5.167-0.267-16.417-2.383-33.75-6.35c-17.533-4-32.95-6.383-46.25-7.15
				c-15.833-0.9-29.817-0.283-41.95,1.85c-5.9,1.033-16.283,3.716-31.15,8.05l-2.8,0.7L4.6-67.6c-0.533,6.067-1.667,12-3.4,17.8
				c6.867,0.867,14.017,0.45,21.45-1.25c13.333-3.1,26.65-4.333,39.95-3.7c13.1,0.6,23.467,2.867,31.1,6.8
				c3.4,1.733,8.033,2.65,13.9,2.75c3.533,0.034,9.917-0.367,19.15-1.2c21.667-1.934,40.083-1.934,55.25,0
				c13.9,1.767,28.45,2.55,43.65,2.35c10.633-0.133,20.684,1.167,30.15,3.9c3.367,1,6.983,1.783,10.85,2.35l33.45,0.35
				c3.967-0.333,10.7-1.066,20.2-2.2c8.7-1,15.483-1.684,20.35-2.05c5.9-0.433,14.8-0.75,26.7-0.95c6.8-0.1,17.717-0.267,32.75-0.5
				c28.3-0.6,48.5-2.2,60.6-4.8L461.9-48.2z"/>
			<path style="fill-rule:evenodd;clip-rule:evenodd;fill:#583818;" d="M479.45-24c-6.233,0.467-24.133,1.133-53.7,2
				c-27.233,0.767-51.8,2.183-73.7,4.25c-30.333,3.467-49.333,5.35-57,5.65c-5.633,0.233-10.917-0.066-15.85-0.9
				c-4.667-0.767-10.967-2.35-18.9-4.75c-13.4-4.067-27.75-6.933-43.05-8.6c-5.767-0.633-17.167-1.417-34.2-2.35
				c-5.1-0.267-16.367-2.4-33.8-6.4c-17.5-3.967-32.9-6.333-46.2-7.1c-15.833-0.933-29.833-0.333-42,1.8
				c-5.733,1-16.117,3.683-31.15,8.05c-1,0.3-1.917,0.55-2.75,0.75L27-30.15c-0.467,5.933-1.583,11.867-3.35,17.8
				c6.867,0.867,14.017,0.45,21.45-1.25c13.333-3.1,26.633-4.333,39.9-3.7c13.1,0.6,23.483,2.867,31.15,6.8
				c3.4,1.733,8.033,2.65,13.9,2.75c3.534,0.033,9.9-0.367,19.1-1.2c21.7-1.933,40.133-1.933,55.3,0
				c13.867,1.767,28.4,2.55,43.6,2.35c10.667-0.133,20.733,1.167,30.2,3.9c3.267,0.967,6.867,1.75,10.8,2.35L322.55,0
				c3.867-0.333,10.6-1.067,20.2-2.2c8.633-1.033,15.417-1.716,20.35-2.05c5.867-0.433,14.75-0.75,26.65-0.95
				c6.833-0.1,17.75-0.267,32.75-0.5c28.3-0.6,48.5-2.2,60.6-4.8l1.2-0.25C482.4-14.983,480.783-19.4,479.45-24z"/>
			<path style="fill-rule:evenodd;clip-rule:evenodd;fill:#583818;" d="M356.2-90.8c7.2-0.233,18.716-0.617,34.55-1.15
				c29.9-1.133,51.25-3.1,64.05-5.9c0.767-5.133,1.917-9.883,3.45-14.25l-1.2,0.1c-8.833,1-28.4,2.167-58.7,3.5
				c-31.1,1.333-58.517,3.283-82.25,5.85c-32.1,4.066-52.2,6.316-60.3,6.75c-5.966,0.333-11.583,0.15-16.85-0.55
				c-4.934-0.7-11.633-2.167-20.1-4.4c-14.267-3.767-29.517-6.35-45.75-7.75c-6.067-0.5-18.184-1.066-36.35-1.7
				c-5.8-0.2-15.333-1.617-28.6-4.25c-15.7-3.133-28.017-5.2-36.95-6.2H14.35C9.583-120.117,4.8-119.233,0-118.1
				c2.133,6.533,3.633,14.167,4.5,22.9c12.067-1.8,23.65-2.3,34.75-1.5c11.133,0.8,20.117,2.767,26.95,5.9
				c3.633,1.667,8.566,2.483,14.8,2.45c3.733-0.033,10.483-0.55,20.25-1.55c22.933-2.333,42.45-2.684,58.55-1.05
				c14.733,1.5,30.167,2,46.3,1.5c5.967-0.2,10.767-0.15,14.4,0.15c5.233,0.433,11.117,1.483,17.65,3.15
				c3.3,0.867,7.15,1.583,11.55,2.15l35.45-0.3c4-0.4,11.133-1.267,21.4-2.6c9.1-1.167,16.267-1.983,21.5-2.45
				C334.283-89.883,343.667-90.367,356.2-90.8z"/>
		</g>
	</g>
</symbol>
<symbol  id="FlashAICB_x2F_bg2_x5F_mudflat3_x2F__x3C_Group_x3E__x5F_1" viewBox="0 -101.85 499.3 101.85">
	<g id="Layer_1_6_">
		<g>
			<path style="fill-rule:evenodd;clip-rule:evenodd;fill:#57412A;" d="M487.35-86.35c-3.9,0.833-6.8,1.4-8.7,1.7
				c-6.833,1.167-13.267,0.8-19.3-1.1c-14.033-4.467-23.8-7.233-29.3-8.3c-11.433-2.167-24.6-2.784-39.5-1.85
				c-12.5,0.8-27,3.25-43.5,7.35c-16.333,4.066-26.933,6.233-31.8,6.5c-16.233,1-26.967,1.8-32.2,2.4
				c-14.4,1.733-27.9,4.667-40.5,8.8c-6.633,2.167-12.816,2.7-18.55,1.6c-3.833-0.733-9.383-2.833-16.65-6.3
				c-8.934-4.233-16.233-7.284-21.9-9.15c-10.333-3.466-21.75-5.833-34.25-7.1c-21.133-2.167-45.517-3.65-73.15-4.45
				c-26.933-0.8-44.316-1.633-52.15-2.5c-5.5-0.6-14.133-1.633-25.9-3.1c0,1.567,0.783,7.767,2.35,18.6
				c1.533,10.6,2.233,16.967,2.1,19.1v0.05c3.466-1.233,6.867-1.867,10.2-1.9c4.533-0.033,10.617,0.85,18.25,2.65
				c11.367,2.667,30.367,4.3,57,4.9c7.1,0.167,17.383,0.35,30.85,0.55c11.167,0.2,19.533,0.517,25.1,0.95
				c4.633,0.367,11.017,1.067,19.15,2.1c9.033,1.167,15.367,1.917,19,2.25l31.5-0.35c3.767-0.667,7.167-1.466,10.2-2.4
				c5.767-1.833,10.966-3.017,15.6-3.55c3.233-0.367,7.5-0.517,12.8-0.45c14.333,0.2,28.017-0.6,41.05-2.4c14.3-2,31.633-2,52,0
				c8.7,0.833,14.7,1.233,18,1.2c5.533-0.067,9.9-1,13.1-2.8c7.2-4.033,16.95-6.367,29.25-7c12.5-0.633,25.033,0.633,37.6,3.8
				c9,2.267,18.55,2.1,28.65-0.5c5.433-1.367,9.117-2.184,11.05-2.45c4.133-0.533,8.2-0.267,12.2,0.8l1.25,0.35
				c-0.8-6.7-1.25-13.1-1.35-19.2C494.1-87.417,490.917-87.017,487.35-86.35z"/>
			<path style="fill-rule:evenodd;clip-rule:evenodd;fill:#57412A;" d="M489.55-27.65c-14.667-4.733-24.966-7.7-30.9-8.9
				c-12.066-2.434-26.017-3.333-41.85-2.7c-13.267,0.533-28.683,2.683-46.25,6.45c-17.433,3.7-28.7,5.65-33.8,5.85
				c-16.667,0.567-28.067,1.133-34.2,1.7c-15.267,1.4-29.633,4.05-43.1,7.95c-7.934,2.3-14.233,3.8-18.9,4.5
				c-4.966,0.733-10.25,0.933-15.85,0.6c-4.2-0.267-11.3-1.066-21.3-2.4c-15.167-2.033-26.983-3.55-35.45-4.55
				c-22.367-2.6-48.167-4.6-77.4-6C61.983-26.517,43.567-27.7,35.3-28.7c-15.633-2.2-27.367-3.767-35.2-4.7
				c1.066,5.967,1.933,12.383,2.6,19.25c5.667-1.867,9.783-2.883,12.35-3.05c5.167-0.367,12.517,0.6,22.05,2.9
				c12.033,2.9,32.15,4.95,60.35,6.15c7.5,0.3,18.383,0.683,32.65,1.15c11.867,0.433,20.733,0.933,26.6,1.5
				c5,0.467,11.75,1.3,20.25,2.5c9.767,1.4,16.466,2.3,20.1,2.7l33.4,0.3c3.867-0.533,7.483-1.267,10.85-2.2
				c9.467-2.633,19.517-3.767,30.15-3.4c15.167,0.5,29.7-0.017,43.6-1.55c15.133-1.667,33.5-1.3,55.1,1.1
				c9.167,1.033,15.517,1.566,19.05,1.6c5.833,0.034,10.466-0.816,13.9-2.55c7.733-3.9,18.133-6.017,31.2-6.35
				c13.267-0.367,26.517,1.167,39.75,4.6c4.3,1.1,8.45,1.75,12.45,1.95c3.3,0.167,6.683,0.033,10.15-0.4
				c0.567-5.9,1.45-12.066,2.65-18.5C496.167-25.9,492.917-26.55,489.55-27.65z"/>
		</g>
	</g>
</symbol>
<symbol  id="FlashAICB_x2F_bg2_x5F_mudflat3_x2F__x3C_Path_x3E_" viewBox="0 -148.8 43 148.8">
	<g id="Layer_1_5_">
		<linearGradient id="SVGID_3_" gradientUnits="userSpaceOnUse" x1="43" y1="-74.3999" x2="1.144409e-005" y2="-74.3999">
			<stop  offset="0" style="stop-color:#422811"/>
			<stop  offset="0.6196" style="stop-color:#5A422B"/>
			<stop  offset="1" style="stop-color:#2D1C0C"/>
		</linearGradient>
		<path style="fill-rule:evenodd;clip-rule:evenodd;fill:url(#SVGID_3_);" d="M43-4.75c-1.3-2.7-2.683-7.7-4.15-15
			c-2.934-14.6-4.8-33.417-5.6-56.45c-0.8-23.033-0.333-42.033,1.4-57c0.867-7.5,1.817-12.7,2.85-15.6H0
			c1.567,1.367,3.067,4.883,4.5,10.55c2.833,11.3,3.917,27.683,3.25,49.15C6.683-54.767,5.683-25.067,4.75,0L43-4.75z"/>
	</g>
</symbol>
<symbol  id="FlashAICB_x2F_bg2_x5F_mudflat3_x2F__x3C_Path_x3E__x5F_1" viewBox="0 -177.3 142.6 177.3">
	<g id="Layer_1_4_">
		<linearGradient id="SVGID_4_" gradientUnits="userSpaceOnUse" x1="142.6001" y1="-88.6499" x2="1.525879e-005" y2="-88.6499">
			<stop  offset="0" style="stop-color:#422811"/>
			<stop  offset="0.6196" style="stop-color:#5A422B"/>
			<stop  offset="1" style="stop-color:#2D1C0C"/>
		</linearGradient>
		<path style="fill-rule:evenodd;clip-rule:evenodd;fill:url(#SVGID_4_);" d="M139.45-29.35c-2.267-20.867-3.8-42.816-4.6-65.85
			c-0.8-23.033-0.667-43.617,0.4-61.75c0.533-9.1,1.15-15.883,1.85-20.35L0-159.75c4.767,6.233,9.467,14.633,14.1,25.2
			c9.267,21.066,13.566,42.333,12.9,63.8c-0.7,21.467-2.317,39.7-4.85,54.7C20.883-8.55,19.683-3.2,18.55,0L142.6-4.9
			C141.633-10.733,140.583-18.883,139.45-29.35z"/>
	</g>
</symbol>
<symbol  id="FlashAICB_x2F_bg2_x5F_mudflat3_x2F__x3C_Path_x3E__x5F_2" viewBox="0 -177.35 158.65 177.35">
	<g id="Layer_1_3_">
		<linearGradient id="SVGID_5_" gradientUnits="userSpaceOnUse" x1="158.6499" y1="-88.6753" x2="1.525879e-005" y2="-88.6753">
			<stop  offset="0" style="stop-color:#422811"/>
			<stop  offset="0.6196" style="stop-color:#5A422B"/>
			<stop  offset="1" style="stop-color:#2D1C0C"/>
		</linearGradient>
		<path style="fill-rule:evenodd;clip-rule:evenodd;fill:url(#SVGID_5_);" d="M155.5-29.35c-2.267-20.9-3.8-42.85-4.6-65.85
			c-0.8-23.033-0.667-43.633,0.4-61.8c0.534-9.1,1.15-15.883,1.85-20.35L0-145.75c5.4,5.633,10.95,12.567,16.65,20.8
			c11.4,16.5,17.85,31.233,19.35,44.2c2.467,21.333,2.983,41.183,1.55,59.55C36.817-12,35.833-4.933,34.6,0l124.05-4.9
			C157.683-10.767,156.633-18.917,155.5-29.35z"/>
	</g>
</symbol>
<symbol  id="FlashAICB_x2F_bg2_x5F_mudflat3_x2F__x3C_Path_x3E__x5F_3" viewBox="0 -142 91.8 142">
	<g id="Layer_1_2_">
		<linearGradient id="SVGID_6_" gradientUnits="userSpaceOnUse" x1="91.7998" y1="-71" x2="-1.525879e-005" y2="-71">
			<stop  offset="0" style="stop-color:#422811"/>
			<stop  offset="0.6196" style="stop-color:#5A422B"/>
			<stop  offset="1" style="stop-color:#2D1C0C"/>
		</linearGradient>
		<path style="fill-rule:evenodd;clip-rule:evenodd;fill:url(#SVGID_6_);" d="M75.15-18.5c-3.333-13.867-5.5-30.15-6.5-48.85
			c-1.033-18.7,2.517-35.633,10.65-50.8c4.067-7.6,8.233-13.317,12.5-17.15L6.15-142c1.367,2.433,2.633,6.617,3.8,12.55
			c2.367,11.867,3.117,26.517,2.25,43.95c-0.833,17.433-3.117,36.917-6.85,58.45C3.483-16.283,1.7-7.267,0,0l79.85-3.25
			C78.383-6.45,76.817-11.533,75.15-18.5z"/>
	</g>
</symbol>
<symbol  id="FlashAICB_x2F_bg2_x5F_mudflat3_x2F__x3C_Path_x3E__x5F_52" viewBox="-0.005 -139.859 387.976 139.859">
	<g id="Layer_1_8_">
		
			<linearGradient id="SVGID_7_" gradientUnits="userSpaceOnUse" x1="-117.2466" y1="-15900.9609" x2="22.6284" y2="-15900.9609" gradientTransform="matrix(7.149241e-006 -1 1 -0.001 16094.9434 -133.1099)">
			<stop  offset="0" style="stop-color:#422811"/>
			<stop  offset="1" style="stop-color:#4F3B28;stop-opacity:0"/>
		</linearGradient>
		<path style="fill-rule:evenodd;clip-rule:evenodd;fill:url(#SVGID_7_);" d="M383.55-20.15c0.3-16.167-0.433-32.167-2.2-48
			c-0.434-3.967,0.167-9.95,1.8-17.95c2.633-13.1,3.983-19.9,4.05-20.4c1.133-7.533,1.017-13.3-0.35-17.3
			c-1.767-5.034-5.633-7.95-11.6-8.75c-3.267-0.434-6.983-0.383-11.15,0.15c-6.833,0.9-10.883,1.383-12.15,1.45
			c-2.467,0.333-5.434,0.65-8.9,0.95c-6.933,0.567-12.833,0.783-17.7,0.65c-2.333-0.066-5.6-0.717-9.8-1.95
			c-8.1-2.4-12.216-3.617-12.35-3.65c-11.934-3.1-23.717-3.7-35.35-1.8c-14.033,2.3-23.467,3.533-28.3,3.7
			c-9.9-0.1-21.6-0.15-35.1-0.15c-8.667,0-17.383-0.55-26.15-1.65c-1.333-0.167-8.167-1.217-20.5-3.15
			c-7.433-1.133-13.683-1.75-18.75-1.85c-6.8-0.1-13.75,0.617-20.85,2.15c-13.067,2.833-26,4.117-38.8,3.85
			c-14.566-0.967-26.05-1.6-34.45-1.9c-12.833-0.5-23.417-0.067-31.75,1.3c-8.567,1.4-12.967,3.534-13.2,6.4
			c-0.067,0.733,0.567,2.566,1.9,5.5c1.9,4.267,3.4,8.033,4.5,11.3c4.467,13.333,6.783,29.35,6.95,48.05
			c0.2,17.8-0.317,33.667-1.55,47.6C11.2-8.633,10.567-3.433,9.9,0l372.65-0.6C383.05-5.533,383.383-12.05,383.55-20.15z"/>
	</g>
</symbol>
<g>
	<path style="fill-rule:evenodd;clip-rule:evenodd;fill:#4F3B28;" d="M400.9,44.3c0.3,16.167-0.434,32.167-2.2,48
		c-0.434,3.967,0.166,9.95,1.8,17.95c2.634,13.1,3.983,19.9,4.05,20.4c1.134,7.533,1.017,13.3-0.35,17.3
		c-1.767,5.033-5.634,7.95-11.601,8.75c-3.267,0.434-6.983,0.383-11.149-0.15c-6.834-0.899-10.884-1.383-12.15-1.45
		c-2.467-0.333-5.434-0.649-8.899-0.949c-6.934-0.567-12.834-0.784-17.7-0.65c-2.334,0.066-5.601,0.717-9.8,1.95
		c-8.101,2.399-12.217,3.616-12.351,3.649c-11.934,3.101-23.717,3.7-35.35,1.801c-14.033-2.301-23.467-3.534-28.3-3.7
		c-9.9,0.1-21.601,0.149-35.101,0.149c-8.666,0-17.383,0.551-26.15,1.65c-1.333,0.167-8.167,1.217-20.5,3.15
		c-7.433,1.133-13.683,1.75-18.75,1.85c-6.8,0.1-13.75-0.616-20.85-2.15c-13.066-2.833-26-4.116-38.8-3.85
		c-14.567,0.967-26.05,1.6-34.45,1.9c-12.833,0.5-23.417,0.066-31.75-1.301c-8.566-1.399-12.966-3.533-13.2-6.399
		c-0.067-0.733,0.566-2.566,1.9-5.5c1.9-4.267,3.4-8.033,4.5-11.3c4.467-13.334,6.783-29.351,6.95-48.051
		c0.2-17.8-0.317-33.667-1.55-47.6c-0.6-6.967-1.233-12.167-1.9-15.6l372.65,0.6C400.4,29.683,400.733,36.2,400.9,44.3z"/>
	
		<use xlink:href="#FlashAICB_x2F_bg2_x5F_mudflat3_x2F__x3C_Clip_Group_0_x3E_"  width="505.4" height="179" y="-179" transform="matrix(1 0 0 -1 -71 23.3501)" style="overflow:visible;"/>
	
		<use xlink:href="#FlashAICB_x2F_bg2_x5F_mudflat3_x2F__x3C_Path_x3E__x5F_52"  width="387.976" height="139.859" x="-0.005" y="-139.859" transform="matrix(1 0 0 -1 17.3501 24.1499)" style="overflow:visible;opacity:0.6016;enable-background:new    ;"/>
	<path style="fill-rule:evenodd;clip-rule:evenodd;fill:#4F3B28;" d="M392.2,34.35c-16.233,3.367-43.55,3.85-81.95,1.45
		c-43.333-2.7-71.7-3.95-85.1-3.75c-13.801,0.2-31.784,2.184-53.95,5.95c-11.1,1.9-25.4,3.167-42.9,3.8
		c-17.4,0.667-34.267,0.6-50.6-0.2c-17.667-0.9-31.567-2.517-41.7-4.85c-11.4-2.667-16.717-6-15.95-10
		c0.8-4.033,3.883-7.117,9.25-9.25c5.4-2.133,13.983-3.683,25.75-4.65c8.133-0.7,22.034-0.45,41.7,0.75
		c24.8,1.5,48.917,2.133,72.35,1.9c11.3-0.133,30.95-0.283,58.95-0.45c25.3-0.167,43.65-0.267,55.05-0.3c3.7,0,21.684-0.2,53.95-0.6
		c12.967-0.167,23.95,0.033,32.95,0.6c16.366,1.033,26.283,1.9,29.75,2.6c2.467,0.5,4.267,1.217,5.4,2.15
		c1,0.767,1.783,1.967,2.35,3.6C409.267,28.133,404.167,31.883,392.2,34.35z"/>
	<path style="fill-rule:evenodd;clip-rule:evenodd;fill:#684D38;" d="M377.45,30.25c6.166-0.267,12-0.633,17.5-1.1
		c3.866-0.333,7.5-0.5,10.899-0.5c-3.1,1.9-5.199,3.883-6.3,5.95c-1.133,2.233-2.8,4.083-5,5.55
		c-3.033,2.067-9.916,2.833-20.649,2.3c-13.367-1.167-23.184-2.017-29.45-2.55c-5-0.433-16.184-0.85-33.55-1.25
		c-17.733-0.4-33.4-1.15-47-2.25c-18.367-1.767-29.867-2.733-34.5-2.9c-5.7-0.2-12.717,0.767-21.051,2.9
		c-8.1,2.1-16.783,3.583-26.05,4.45c-3.4,0.3-10.3,0.7-20.7,1.2c-3.133,0.133-9.95,1.217-20.45,3.25
		c-10.633,2.067-19.967,3.3-28,3.7c-9.6,0.5-18.066,0.2-25.4-0.9c-3.6-0.533-9.883-1.934-18.85-4.2c-4.233-1.033-9.566-1.033-16,0
		c-6.767,1.1-12.85,1.1-18.25,0c-8.1-1.633-12.95-5.017-14.55-10.15c-0.5-1.6-0.65-3.283-0.45-5.05l0.45-2.15
		c0.733-1.566,1.917-2.183,3.55-1.85c1.233,0.233,3.1,1.167,5.6,2.8c7.133,4.567,12.283,7.183,15.45,7.85
		c3.533,0.733,8.533,0.45,15-0.85c6.466-1.3,12.6-1.383,18.4-0.25c8.066,1.6,16.117,2.25,24.15,1.95
		c7.933-0.333,14.217-1.517,18.85-3.55c3.033-1.3,9.7-1.566,20-0.8c13.1,1,24.25,1,33.45,0c8.4-0.9,17.2-1.3,26.4-1.2
		c6.434,0.067,12.517-0.6,18.25-2c6.767-1.667,15.184-2.183,25.25-1.55c5.733,0.4,14.434,1.183,26.1,2.35
		c1.233,0.066,13.217,0.3,35.95,0.7c17.134,0.333,29.366,1.167,36.7,2.5c7.733,1.434,13.649,1.6,17.75,0.5
		c1.2-0.333,3.233-0.883,6.1-1.65C370.017,30.833,373.483,30.417,377.45,30.25z"/>
	<path style="fill-rule:evenodd;clip-rule:evenodd;fill:#5C4532;" d="M394.55,37.2c2.767-1.867,4.134-2.3,4.101-1.3
		c-0.034,1.033-1.4,2.45-4.101,4.25c-3.033,2.067-9.916,2.833-20.649,2.3c-13.367-1.167-23.184-2.017-29.45-2.55
		c-5-0.433-16.184-0.85-33.55-1.25c-17.733-0.4-33.4-1.15-47-2.25c-18.367-1.767-29.867-2.733-34.5-2.9
		c-5.7-0.2-12.717,0.767-21.051,2.9c-8.1,2.1-16.783,3.583-26.05,4.45c-3.4,0.3-10.3,0.7-20.7,1.2
		c-3.133,0.133-9.95,1.217-20.45,3.25c-10.633,2.067-19.967,3.3-28,3.7c-9.6,0.5-18.066,0.2-25.4-0.9
		c-3.6-0.533-9.883-1.934-18.85-4.2c-4.233-1.033-9.566-1.033-16,0c-6.767,1.1-12.85,1.1-18.25,0c-5.6-1.6-8.417-2.767-8.45-3.5
		c-0.067-0.767,2.75-0.583,8.45,0.55c5.4,1.1,11.483,1.1,18.25,0c6.434-1.034,11.767-1.034,16,0c8.967,2.267,15.25,3.667,18.85,4.2
		c7.333,1.1,15.8,1.4,25.4,0.9c8.067-0.4,17.4-1.617,28-3.65c10.567-2.066,17.383-3.167,20.45-3.3c10.4-0.5,17.3-0.9,20.7-1.2
		c9.267-0.867,17.95-2.35,26.05-4.45c8.334-2.133,15.351-3.1,21.051-2.9c4.633,0.167,16.133,1.133,34.5,2.9
		c13.6,1.1,29.267,1.85,47,2.25c17.366,0.4,28.55,0.816,33.55,1.25c6.267,0.533,16.083,1.383,29.45,2.55
		C384.634,40.033,391.517,39.267,394.55,37.2z"/>
	<path style="fill-rule:evenodd;clip-rule:evenodd;fill:#684D38;" d="M126.1,31.45c0,1.833-2.767,3.383-8.3,4.65
		c-5.533,1.267-12.233,1.9-20.1,1.9c-7.833,0-14.517-0.633-20.05-1.9c-5.566-1.267-8.35-2.817-8.35-4.65c0-1.8,2.784-3.333,8.35-4.6
		c5.533-1.3,12.217-1.95,20.05-1.95c7.833,0,14.533,0.65,20.1,1.95C123.333,28.117,126.1,29.65,126.1,31.45z"/>
	<path style="fill-rule:evenodd;clip-rule:evenodd;fill:#4F3B28;" d="M122.75,29.15c0,1.5-2.217,2.783-6.65,3.85
		c-4.434,1.033-9.8,1.55-16.1,1.55S88.333,34.033,83.9,33c-4.433-1.067-6.65-2.35-6.65-3.85c0-1.467,2.217-2.733,6.65-3.8
		c4.467-1.033,9.833-1.55,16.1-1.55c6.3,0,11.667,0.517,16.1,1.55C120.533,26.417,122.75,27.683,122.75,29.15z"/>
	<path style="fill-rule:evenodd;clip-rule:evenodd;fill:#684D38;" d="M43.85,26.3c0,0.767-1.017,1.417-3.05,1.95
		c-2.033,0.533-4.5,0.8-7.4,0.8c-2.867,0-5.316-0.267-7.35-0.8C24.017,27.717,23,27.067,23,26.3c0-0.733,1.017-1.367,3.05-1.9
		c2.034-0.533,4.483-0.8,7.35-0.8c2.9,0,5.367,0.267,7.4,0.8C42.833,24.933,43.85,25.567,43.85,26.3z"/>
	<path style="fill-rule:evenodd;clip-rule:evenodd;fill:#684D38;" d="M50.1,28.45c0,0.466-0.617,0.85-1.85,1.15
		c-1.2,0.333-2.667,0.5-4.4,0.5s-3.2-0.167-4.4-0.5c-1.233-0.3-1.85-0.684-1.85-1.15c0-0.434,0.617-0.817,1.85-1.15
		c1.2-0.3,2.667-0.45,4.4-0.45s3.2,0.15,4.4,0.45C49.483,27.633,50.1,28.017,50.1,28.45z"/>
	<path style="fill-rule:evenodd;clip-rule:evenodd;fill:#684D38;" d="M49.8,31.4c0.9,0.233,1.35,0.517,1.35,0.85
		c0,0.367-0.45,0.667-1.35,0.9c-0.933,0.233-2.05,0.35-3.35,0.35c-1.3,0-2.4-0.117-3.3-0.35c-0.933-0.233-1.4-0.533-1.4-0.9
		c0-0.333,0.467-0.617,1.4-0.85c0.9-0.233,2-0.35,3.3-0.35C47.75,31.05,48.867,31.167,49.8,31.4z"/>
	<path style="fill-rule:evenodd;clip-rule:evenodd;fill:#684D38;" d="M55.45,30.35c0,0.167-0.233,0.316-0.7,0.45
		C54.25,30.933,53.667,31,53,31s-1.25-0.067-1.75-0.2c-0.467-0.133-0.7-0.283-0.7-0.45c0-0.167,0.233-0.317,0.7-0.45
		c0.5-0.133,1.083-0.2,1.75-0.2s1.25,0.066,1.75,0.2C55.217,30.033,55.45,30.183,55.45,30.35z"/>
	<path style="fill-rule:evenodd;clip-rule:evenodd;fill:#684D38;" d="M169.05,29.45c0,0.433-0.816,0.65-2.45,0.65
		c-0.667,0-1.25-0.067-1.75-0.2c-0.467-0.133-0.7-0.283-0.7-0.45c0-0.167,0.233-0.317,0.7-0.45c0.5-0.133,1.083-0.2,1.75-0.2
		c0.667,0,1.25,0.067,1.75,0.2C168.817,29.133,169.05,29.283,169.05,29.45z"/>
	<path style="fill-rule:evenodd;clip-rule:evenodd;fill:#684D38;" d="M399.1,24.5c0,0.433-0.816,0.65-2.449,0.65
		c-1.634,0-2.45-0.217-2.45-0.65c0-0.4,0.816-0.6,2.45-0.6C398.283,23.9,399.1,24.1,399.1,24.5z"/>
	<path style="fill-rule:evenodd;clip-rule:evenodd;fill:#684D38;" d="M174.9,27.85c0,0.4-0.816,0.6-2.45,0.6s-2.45-0.2-2.45-0.6
		c0-0.167,0.233-0.317,0.7-0.45c0.5-0.133,1.083-0.2,1.75-0.2c0.667,0,1.25,0.066,1.75,0.2C174.667,27.533,174.9,27.683,174.9,27.85
		z"/>
	<path style="fill-rule:evenodd;clip-rule:evenodd;fill:#4F3B28;" d="M38.35,32.6c0,0.433-0.817,0.65-2.45,0.65
		c-0.667,0-1.25-0.067-1.75-0.2c-0.467-0.133-0.7-0.283-0.7-0.45c0-0.4,0.816-0.6,2.45-0.6S38.35,32.2,38.35,32.6z"/>
	<path style="fill-rule:evenodd;clip-rule:evenodd;fill:#4F3B28;" d="M38.4,34.9c0,0.333-0.483,0.617-1.45,0.85
		c-0.967,0.233-2.117,0.35-3.45,0.35s-2.483-0.117-3.45-0.35c-0.966-0.233-1.45-0.517-1.45-0.85c0-0.333,0.483-0.6,1.45-0.8
		c0.934-0.233,2.083-0.35,3.45-0.35s2.517,0.117,3.45,0.35C37.917,34.3,38.4,34.567,38.4,34.9z"/>
	<path style="fill-rule:evenodd;clip-rule:evenodd;fill:#4F3B28;" d="M29.7,36.45c0,0.3-0.633,0.45-1.9,0.45
		c-1.267,0-1.9-0.15-1.9-0.45c0-0.3,0.633-0.45,1.9-0.45C29.067,36,29.7,36.15,29.7,36.45z"/>
	<path style="fill-rule:evenodd;clip-rule:evenodd;fill:#4F3B28;" d="M33.5,36.9c0,0.233-0.483,0.35-1.45,0.35
		c-1,0-1.5-0.117-1.5-0.35s0.5-0.35,1.5-0.35C33.017,36.55,33.5,36.667,33.5,36.9z"/>
	<path style="fill-rule:evenodd;clip-rule:evenodd;fill:#4F3B28;" d="M44.2,25c0,0.633-0.817,1.167-2.45,1.6
		c-1.633,0.433-3.617,0.65-5.95,0.65c-2.3,0-4.267-0.217-5.9-0.65c-1.633-0.434-2.45-0.967-2.45-1.6c0-0.6,0.816-1.117,2.45-1.55
		c1.633-0.434,3.6-0.65,5.9-0.65c2.333,0,4.317,0.217,5.95,0.65C43.383,23.883,44.2,24.4,44.2,25z"/>
	<path style="fill-rule:evenodd;clip-rule:evenodd;fill:#684D38;" d="M151.85,29.25c0,0.767-1.767,1.417-5.3,1.95
		c-3.533,0.533-7.8,0.8-12.8,0.8s-9.267-0.267-12.8-0.8c-3.534-0.534-5.3-1.184-5.3-1.95c0-0.733,1.767-1.367,5.3-1.9
		c3.533-0.533,7.8-0.8,12.8-0.8s9.267,0.267,12.8,0.8C150.083,27.883,151.85,28.517,151.85,29.25z"/>
	<path style="fill-rule:evenodd;clip-rule:evenodd;fill:#684D38;" d="M162.7,31.4c0,0.467-1.05,0.85-3.15,1.15
		c-2.133,0.333-4.7,0.5-7.7,0.5s-5.55-0.167-7.65-0.5c-2.133-0.3-3.2-0.683-3.2-1.15s1.067-0.85,3.2-1.15
		c2.1-0.333,4.65-0.5,7.65-0.5s5.566,0.167,7.7,0.5C161.65,30.55,162.7,30.933,162.7,31.4z"/>
	<path style="fill-rule:evenodd;clip-rule:evenodd;fill:#684D38;" d="M164.5,35.2c0,0.333-0.8,0.633-2.4,0.9
		c-1.567,0.233-3.483,0.35-5.75,0.35s-4.184-0.117-5.75-0.35c-1.6-0.267-2.4-0.567-2.4-0.9c0-0.333,0.8-0.617,2.4-0.85
		s3.517-0.35,5.75-0.35s4.15,0.117,5.75,0.35S164.5,34.867,164.5,35.2z"/>
	<path style="fill-rule:evenodd;clip-rule:evenodd;fill:#684D38;" d="M171.95,33.3c0,0.167-0.417,0.317-1.25,0.45
		c-0.833,0.133-1.833,0.2-3,0.2c-1.167,0-2.167-0.067-3-0.2c-0.833-0.133-1.25-0.283-1.25-0.45c0-0.433,1.417-0.65,4.25-0.65
		c1.167,0,2.167,0.067,3,0.2C171.533,32.983,171.95,33.133,171.95,33.3z"/>
	<path style="fill-rule:evenodd;clip-rule:evenodd;fill:#4F3B28;" d="M142.3,35.55c0,0.167-0.417,0.317-1.25,0.45
		c-0.833,0.133-1.833,0.2-3,0.2c-1.167,0-2.167-0.067-3-0.2c-0.833-0.133-1.25-0.283-1.25-0.45c0-0.4,1.417-0.6,4.25-0.6
		c1.2,0,2.2,0.05,3,0.15C141.883,35.233,142.3,35.383,142.3,35.55z"/>
	<path style="fill-rule:evenodd;clip-rule:evenodd;fill:#4F3B28;" d="M101.1,38.3c0,0.167-0.417,0.317-1.25,0.45
		c-0.8,0.1-1.783,0.15-2.95,0.15c-1.2,0-2.2-0.05-3-0.15c-0.833-0.133-1.25-0.283-1.25-0.45c0-0.167,0.417-0.316,1.25-0.45
		c0.833-0.133,1.833-0.2,3-0.2c1.133,0,2.117,0.067,2.95,0.2C100.683,37.983,101.1,38.133,101.1,38.3z"/>
	<path style="fill-rule:evenodd;clip-rule:evenodd;fill:#4F3B28;" d="M142.4,37.85c0,0.333-0.833,0.617-2.5,0.85
		c-1.667,0.233-3.667,0.35-6,0.35c-2.333,0-4.333-0.117-6-0.35c-1.667-0.233-2.5-0.517-2.5-0.85c0-0.333,0.833-0.6,2.5-0.8
		c1.633-0.233,3.633-0.35,6-0.35s4.367,0.117,6,0.35C141.567,37.25,142.4,37.517,142.4,37.85z"/>
	<path style="fill-rule:evenodd;clip-rule:evenodd;fill:#4F3B28;" d="M127.3,39.4c0,0.3-1.1,0.45-3.3,0.45
		c-2.167,0-3.25-0.15-3.25-0.45c0-0.3,1.083-0.45,3.25-0.45C126.2,38.95,127.3,39.1,127.3,39.4z"/>
	<path style="fill-rule:evenodd;clip-rule:evenodd;fill:#4F3B28;" d="M323.55,32.15c0,0.133-0.316,0.25-0.95,0.35
		c-0.666,0.1-1.449,0.15-2.35,0.15c-2.2,0-3.3-0.167-3.3-0.5c0-0.3,1.1-0.45,3.3-0.45c0.9,0,1.684,0.05,2.35,0.15
		C323.233,31.917,323.55,32.017,323.55,32.15z"/>
	<path style="fill-rule:evenodd;clip-rule:evenodd;fill:#4F3B28;" d="M95.15,40.5c0,0.3-1.083,0.45-3.25,0.45
		c-2.2,0-3.3-0.15-3.3-0.45c0-0.333,1.1-0.5,3.3-0.5C94.067,40,95.15,40.167,95.15,40.5z"/>
	<path style="fill-rule:evenodd;clip-rule:evenodd;fill:#4F3B28;" d="M152.4,27.95c0,0.633-1.417,1.167-4.25,1.6
		c-2.833,0.434-6.25,0.65-10.25,0.65s-7.417-0.217-10.25-0.65c-2.833-0.433-4.25-0.966-4.25-1.6c0-0.6,1.417-1.117,4.25-1.55
		c2.833-0.433,6.25-0.65,10.25-0.65s7.417,0.217,10.25,0.65C150.983,26.833,152.4,27.35,152.4,27.95z"/>
	<path style="fill-rule:evenodd;clip-rule:evenodd;fill:#684D38;" d="M382.7,25.25c0,0.733-1.767,1.367-5.3,1.9
		c-3.5,0.533-7.75,0.8-12.75,0.8s-9.267-0.267-12.801-0.8c-3.533-0.5-5.3-1.133-5.3-1.9s1.767-1.417,5.3-1.95
		c3.534-0.533,7.801-0.8,12.801-0.8c4.966,0,9.216,0.267,12.75,0.8C380.934,23.833,382.7,24.483,382.7,25.25z"/>
	<path style="fill-rule:evenodd;clip-rule:evenodd;fill:#684D38;" d="M393.55,27.4c0,0.434-1.05,0.817-3.149,1.15
		c-2.134,0.3-4.7,0.45-7.7,0.45s-5.55-0.15-7.65-0.45c-2.133-0.333-3.2-0.716-3.2-1.15c0-0.433,1.067-0.816,3.2-1.15
		c2.134-0.333,4.684-0.5,7.65-0.5c3,0,5.566,0.167,7.7,0.5C392.5,26.55,393.55,26.933,393.55,27.4z"/>
	<path style="fill-rule:evenodd;clip-rule:evenodd;fill:#684D38;" d="M395.4,31.2c0,0.333-0.801,0.617-2.4,0.85
		c-1.6,0.233-3.517,0.35-5.75,0.35s-4.15-0.117-5.75-0.35c-1.6-0.233-2.4-0.517-2.4-0.85c0-0.333,0.801-0.633,2.4-0.9
		c1.566-0.233,3.483-0.35,5.75-0.35s4.184,0.117,5.75,0.35C394.6,30.567,395.4,30.867,395.4,31.2z"/>
	<path style="fill-rule:evenodd;clip-rule:evenodd;fill:#684D38;" d="M402.8,29.3c0,0.167-0.416,0.317-1.25,0.45
		c-0.8,0.1-1.783,0.15-2.95,0.15c-1.199,0-2.199-0.05-3-0.15c-0.833-0.133-1.25-0.283-1.25-0.45c0-0.167,0.417-0.316,1.25-0.45
		c0.834-0.133,1.834-0.2,3-0.2c1.134,0,2.117,0.067,2.95,0.2C402.384,28.983,402.8,29.133,402.8,29.3z"/>
	<path style="fill-rule:evenodd;clip-rule:evenodd;fill:#4F3B28;" d="M373.15,31.55c0,0.167-0.4,0.317-1.2,0.45
		c-0.834,0.133-1.834,0.2-3,0.2c-1.167,0-2.167-0.067-3-0.2c-0.834-0.133-1.25-0.283-1.25-0.45c0-0.167,0.416-0.316,1.25-0.45
		c0.833-0.133,1.833-0.2,3-0.2c1.166,0,2.166,0.067,3,0.2C372.75,31.233,373.15,31.383,373.15,31.55z"/>
	<path style="fill-rule:evenodd;clip-rule:evenodd;fill:#4F3B28;" d="M389.15,35.2c0,0.333-0.834,0.6-2.5,0.8
		c-1.634,0.233-3.634,0.35-6,0.35c-2.367,0-4.367-0.117-6-0.35c-1.667-0.2-2.5-0.467-2.5-0.8c0-0.333,0.833-0.617,2.5-0.85
		c1.666-0.233,3.666-0.35,6-0.35c2.333,0,4.333,0.117,6,0.35C388.316,34.583,389.15,34.867,389.15,35.2z"/>
	<path style="fill-rule:evenodd;clip-rule:evenodd;fill:#4F3B28;" d="M232.2,27.95c0,0.333-0.834,0.617-2.5,0.85
		c-1.7,0.233-3.717,0.35-6.05,0.35c-2.334,0-4.334-0.117-6-0.35c-1.667-0.233-2.5-0.517-2.5-0.85c0-0.333,0.833-0.617,2.5-0.85
		c1.666-0.233,3.666-0.35,6-0.35c2.333,0,4.35,0.117,6.05,0.35C231.366,27.333,232.2,27.617,232.2,27.95z"/>
	<path style="fill-rule:evenodd;clip-rule:evenodd;fill:#4F3B28;" d="M366.15,35.85c0,0.333-1.101,0.5-3.301,0.5
		c-2.199,0-3.3-0.167-3.3-0.5c0-0.3,1.101-0.45,3.3-0.45C365.05,35.4,366.15,35.55,366.15,35.85z"/>
	<path style="fill-rule:evenodd;clip-rule:evenodd;fill:#4F3B28;" d="M316.9,32.95c0,0.233-0.483,0.35-1.45,0.35
		S314,33.183,314,32.95c0-0.233,0.483-0.35,1.45-0.35S316.9,32.717,316.9,32.95z"/>
	<path style="fill-rule:evenodd;clip-rule:evenodd;fill:#4F3B28;" d="M393.9,32.3c0,0.233-0.483,0.35-1.45,0.35S391,32.533,391,32.3
		c0-0.233,0.483-0.35,1.45-0.35S393.9,32.067,393.9,32.3z"/>
	<path style="fill-rule:evenodd;clip-rule:evenodd;fill:#4F3B28;" d="M198.3,32.65c0,0.3-1.1,0.45-3.3,0.45s-3.3-0.15-3.3-0.45
		c0-0.3,1.1-0.45,3.3-0.45c0.9,0,1.683,0.05,2.35,0.15C197.983,32.417,198.3,32.517,198.3,32.65z"/>
	<path style="fill-rule:evenodd;clip-rule:evenodd;fill:#4F3B28;" d="M189.1,33.9c0,0.333-1.1,0.5-3.3,0.5c-2.2,0-3.3-0.167-3.3-0.5
		c0-0.3,1.1-0.45,3.3-0.45C188,33.45,189.1,33.6,189.1,33.9z"/>
	<path style="fill-rule:evenodd;clip-rule:evenodd;fill:#4F3B28;" d="M383.3,23.95c0,0.6-1.416,1.117-4.25,1.55
		c-2.833,0.433-6.25,0.65-10.25,0.65s-7.416-0.217-10.25-0.65c-2.833-0.433-4.25-0.95-4.25-1.55c0-0.633,1.417-1.167,4.25-1.6
		c2.8-0.434,6.217-0.65,10.25-0.65c4,0,7.417,0.216,10.25,0.65C381.884,22.783,383.3,23.317,383.3,23.95z"/>
	<path style="fill-rule:evenodd;clip-rule:evenodd;fill:#684D38;" d="M219.5,29c0,0.767-1.767,1.4-5.3,1.9
		c-3.533,0.533-7.8,0.8-12.8,0.8s-9.267-0.267-12.8-0.8c-3.533-0.5-5.3-1.133-5.3-1.9s1.767-1.417,5.3-1.95
		c3.533-0.533,7.8-0.8,12.8-0.8s9.267,0.267,12.8,0.8C217.733,27.583,219.5,28.233,219.5,29z"/>
	<path style="fill-rule:evenodd;clip-rule:evenodd;fill:#4F3B28;" d="M220.05,27.3c0,0.534-1.833,0.967-5.5,1.3
		c-3.633,0.367-8.066,0.55-13.3,0.55c-5.2,0-9.633-0.183-13.3-0.55c-3.667-0.333-5.5-0.767-5.5-1.3c0-0.5,1.833-0.933,5.5-1.3
		c3.7-0.367,8.133-0.55,13.3-0.55s9.6,0.183,13.3,0.55C218.217,26.367,220.05,26.8,220.05,27.3z"/>
	<path style="fill-rule:evenodd;clip-rule:evenodd;fill:#684D38;" d="M295.25,25.45c3.533,0.533,5.3,1.183,5.3,1.95
		s-1.767,1.4-5.3,1.9c-3.533,0.534-7.8,0.8-12.8,0.8s-9.267-0.267-12.8-0.8c-3.534-0.5-5.301-1.133-5.301-1.9
		s1.767-1.417,5.301-1.95c3.533-0.534,7.8-0.8,12.8-0.8S291.717,24.917,295.25,25.45z"/>
	<path style="fill-rule:evenodd;clip-rule:evenodd;fill:#684D38;" d="M304.85,24.7c0-0.434,1.067-0.817,3.2-1.15
		c2.101-0.3,4.65-0.45,7.65-0.45s5.566,0.15,7.7,0.45c2.1,0.333,3.149,0.717,3.149,1.15c0,0.466-1.05,0.85-3.149,1.15
		c-2.134,0.333-4.7,0.5-7.7,0.5s-5.55-0.167-7.65-0.5C305.917,25.55,304.85,25.167,304.85,24.7z"/>
	<path style="fill-rule:evenodd;clip-rule:evenodd;fill:#684D38;" d="M303.05,28.5c0-0.333,0.8-0.617,2.4-0.85
		c1.6-0.233,3.517-0.35,5.75-0.35s4.149,0.117,5.75,0.35c1.6,0.233,2.399,0.517,2.399,0.85s-0.8,0.633-2.399,0.9
		c-1.566,0.233-3.483,0.35-5.75,0.35s-4.184-0.117-5.75-0.35C303.85,29.133,303.05,28.833,303.05,28.5z"/>
	<path style="fill-rule:evenodd;clip-rule:evenodd;fill:#684D38;" d="M231.5,26.05c0-0.333,0.8-0.617,2.4-0.85
		c1.6-0.233,3.517-0.35,5.75-0.35s4.149,0.117,5.75,0.35c1.6,0.233,2.399,0.517,2.399,0.85c0,0.333-0.8,0.633-2.399,0.9
		c-1.567,0.233-3.483,0.35-5.75,0.35s-4.184-0.117-5.75-0.35C232.3,26.683,231.5,26.383,231.5,26.05z"/>
	<path style="fill-rule:evenodd;clip-rule:evenodd;fill:#684D38;" d="M295.6,26.6c0-0.167,0.417-0.317,1.25-0.45
		c0.834-0.133,1.834-0.2,3-0.2c1.167,0,2.167,0.066,3,0.2c0.834,0.133,1.25,0.283,1.25,0.45c0,0.167-0.416,0.316-1.25,0.45
		c-0.833,0.133-1.833,0.2-3,0.2c-1.166,0-2.166-0.067-3-0.2C296.017,26.917,295.6,26.767,295.6,26.6z"/>
	<path style="fill-rule:evenodd;clip-rule:evenodd;fill:#4F3B28;" d="M325.25,28.85c0-0.4,1.417-0.6,4.25-0.6s4.25,0.2,4.25,0.6
		c0,0.167-0.417,0.316-1.25,0.45s-1.833,0.2-3,0.2s-2.167-0.067-3-0.2S325.25,29.017,325.25,28.85z"/>
	<path style="fill-rule:evenodd;clip-rule:evenodd;fill:#4F3B28;" d="M339.65,30.35c1.666,0.2,2.5,0.467,2.5,0.8
		c0,0.333-0.834,0.617-2.5,0.85c-1.667,0.233-3.667,0.35-6,0.35c-2.334,0-4.334-0.117-6-0.35c-1.667-0.233-2.5-0.517-2.5-0.85
		c0-0.333,0.833-0.6,2.5-0.8c1.633-0.233,3.633-0.35,6-0.35C336.017,30,338.017,30.117,339.65,30.35z"/>
	<path style="fill-rule:evenodd;clip-rule:evenodd;fill:#4F3B28;" d="M340.25,32.7c0-0.3,1.1-0.45,3.3-0.45
		c2.167,0,3.25,0.15,3.25,0.45c0,0.3-1.083,0.45-3.25,0.45C341.35,33.15,340.25,33,340.25,32.7z"/>
	<path style="fill-rule:evenodd;clip-rule:evenodd;fill:#4F3B28;" d="M263.8,26.1c0-0.633,1.417-1.167,4.25-1.6
		c2.834-0.433,6.25-0.65,10.25-0.65s7.417,0.217,10.25,0.65c2.834,0.433,4.25,0.967,4.25,1.6c0,0.6-1.416,1.117-4.25,1.55
		c-2.833,0.434-6.25,0.65-10.25,0.65s-7.416-0.216-10.25-0.65C265.217,27.217,263.8,26.7,263.8,26.1z"/>
</g>
</svg>
