<?xml version="1.0" encoding="iso-8859-1"?>
<!-- Generator: Adobe Illustrator 15.1.0, SVG Export Plug-In . SVG Version: 6.00 Build 0)  -->
<!DOCTYPE svg PUBLIC "-//W3C//DTD SVG 1.1//EN" "http://www.w3.org/Graphics/SVG/1.1/DTD/svg11.dtd">
<svg version="1.1" id="bg2_x5F_mudflat2" xmlns="http://www.w3.org/2000/svg" xmlns:xlink="http://www.w3.org/1999/xlink" x="0px"
	 y="0px" width="308px" height="124px" viewBox="0 0 308 124" style="enable-background:new 0 0 308 124;" xml:space="preserve">
<symbol  id="FlashAICB_x2F_bg2_x5F_mudflat2_x2F__x3C_Clip_Group_0_x3E_" viewBox="0 -134.65 331.15 134.65">
	<g id="Layer_1_10_">
	</g>
	<g>
		<defs>
			<path id="SVGID_1_" d="M317.85-19.95c3.233,6.167,6.117,11.117,8.65,14.85L52-0.7c2.533-3.2,5.417-7.883,8.65-14.05
				c6.5-12.367,11.483-26,14.95-40.9c3.2-13.767,3.433-25.383,0.7-34.85c-0.7-2.467-1.75-5.133-3.15-8
				c-1-2.033-1.417-3.267-1.25-3.7c0.633-1.833,3.85-3.167,9.65-4c5.633-0.8,12.534-0.966,20.7-0.5c5.3,0.267,12.5,0.784,21.6,1.55
				c8.066,0.333,16.3-0.333,24.7-2c7.233-1.4,15.367-1.317,24.4,0.25c12.367,2.2,21.8,3.35,28.3,3.45c8.1,0.133,15.1,0.3,21,0.5
				c2.867-0.066,8.433-0.733,16.7-2c6.7-1.033,13.633-0.55,20.8,1.45c0.233,0.067,2.733,0.85,7.5,2.35
				c2.533,0.8,4.483,1.233,5.85,1.3c4.533,0.2,9.6-0.05,15.2-0.75c0.667-0.033,2.917-0.3,6.75-0.8c2.333-0.3,4.45-0.3,6.35,0
				c3.467,0.533,5.483,2.533,6.05,6c0.433,2.6,0.05,6.6-1.15,12c-1.6,6.3-2.683,11.017-3.25,14.15c-1,5.367-1.066,9.55-0.2,12.55
				C306.35-44.533,311.35-32.283,317.85-19.95z"/>
		</defs>
		<clipPath id="SVGID_2_">
			<use xlink:href="#SVGID_1_"  style="overflow:visible;"/>
		</clipPath>
		<g id="Layer_3_1_" style="clip-path:url(#SVGID_2_);">
			
				<use xlink:href="#FlashAICB_x2F_bg2_x5F_mudflat2_x2F__x3C_Path_x3E__x5F_4"  width="56.85" height="109.25" y="-109.25" transform="matrix(1 0 0 1 251.8496 0)" style="overflow:visible;opacity:0.8008;enable-background:new    ;"/>
			
				<use xlink:href="#FlashAICB_x2F_bg2_x5F_mudflat2_x2F__x3C_Path_x3E__x5F_3"  width="94.05" height="125.05" y="-125.05" transform="matrix(1 0 0 1 77.3501 -9.6001)" style="overflow:visible;opacity:0.8008;enable-background:new    ;"/>
			
				<use xlink:href="#FlashAICB_x2F_bg2_x5F_mudflat2_x2F__x3C_Path_x3E__x5F_2"  width="91.4" height="126.6" y="-126.6" transform="matrix(1 0 0 1 95.5 -2.7998)" style="overflow:visible;opacity:0.8008;enable-background:new    ;"/>
			
				<use xlink:href="#FlashAICB_x2F_bg2_x5F_mudflat2_x2F__x3C_Path_x3E__x5F_1"  width="30.55" height="108.7" y="-108.7" transform="matrix(1 0 0 1 247.4004 -6.75)" style="overflow:visible;opacity:0.8008;enable-background:new    ;"/>
			
				<use xlink:href="#FlashAICB_x2F_bg2_x5F_mudflat2_x2F__x3C_Path_x3E_"  width="30.55" height="108.7" y="-108.7" transform="matrix(1 0 0 1 203.2998 -6.75)" style="overflow:visible;opacity:0.8008;enable-background:new    ;"/>
			<g>
				<g>
					
						<use xlink:href="#FlashAICB_x2F_bg2_x5F_mudflat2_x2F__x3C_Group_x3E__x5F_1"  width="330.65" height="64.55" y="-64.55" transform="matrix(1 0 0 1 0.5 -54.1001)" style="overflow:visible;opacity:0.3008;enable-background:new    ;"/>
					
						<use xlink:href="#FlashAICB_x2F_bg2_x5F_mudflat2_x2F__x3C_Group_x3E_"  width="329.5" height="88.55" y="-88.55" transform="matrix(1 0 0 1 0 -17.75)" style="overflow:visible;opacity:0.3008;enable-background:new    ;"/>
				</g>
			</g>
		</g>
	</g>
	<g id="Layer_4_1_">
	</g>
</symbol>
<symbol  id="FlashAICB_x2F_bg2_x5F_mudflat2_x2F__x3C_Group_x3E_" viewBox="0 -88.55 329.5 88.55">
	<g id="Layer_1_8_">
		<g>
			<path style="fill-rule:evenodd;clip-rule:evenodd;fill:#583818;" d="M318.3-45.3c-3.867,0.333-14.867,0.767-33,1.3
				c-17.1,0.5-32.517,1.483-46.25,2.95c-19.867,2.533-32.316,3.917-37.35,4.15c-6.233,0.267-13.917-1.184-23.05-4.35
				c-8.767-3.033-18.25-5.2-28.45-6.5c-3.8-0.467-11.45-1.083-22.95-1.85c-3.5-0.233-10.917-1.833-22.25-4.8
				c-11.433-3-21.633-4.817-30.6-5.45c-10.8-0.767-20.7-0.4-29.7,1.1c-4.434,0.733-12.45,2.667-24.05,5.8l-2.2,0.55l-0.5,1.1
				c-1.967,4.5-4.483,9.117-7.55,13.85c4.9,0.7,10.333,0.367,16.3-1c10.5-2.367,20.483-3.3,29.95-2.8
				c9.333,0.5,16.367,2.283,21.1,5.35c2.133,1.4,5.283,2.133,9.45,2.2c2.533,0.067,7.117-0.233,13.75-0.9c15.7-1.5,28.7-1.5,39,0
				c9.5,1.4,19.466,2.017,29.9,1.85c7.333-0.1,14.183,0.917,20.55,3.05c2.267,0.767,4.7,1.383,7.3,1.85l22.6,0.25
				c2.434-0.267,6.883-0.85,13.35-1.75c5.633-0.767,10.083-1.283,13.35-1.55c1.767-0.167,14.483-0.533,38.15-1.1
				c17.934-0.467,30.483-1.65,37.65-3.55l0.7-0.2C321.6-38.817,319.867-42,318.3-45.3z"/>
			<path style="fill-rule:evenodd;clip-rule:evenodd;fill:#583818;" d="M329.5-9.9c-2.167-3.667-4.017-7.167-5.55-10.5
				c-3.967,0.4-15.5,0.967-34.6,1.7c-17.867,0.7-34.017,1.917-48.45,3.65c-20.867,2.966-33.95,4.6-39.25,4.9
				c-6.533,0.333-14.6-1.2-24.2-4.6c-9.233-3.3-19.2-5.617-29.9-6.95c-4.167-0.5-12.216-1.1-24.15-1.8
				c-3.667-0.233-11.45-1.95-23.35-5.15c-11.966-3.2-22.683-5.117-32.15-5.75c-11.367-0.733-21.8-0.233-31.3,1.5
				c-4.6,0.833-13.1,3.033-25.5,6.6l-2.35,0.6l-0.5,1.2C6.05-19.467,3.3-14.333,0-9.1c5.1,0.767,10.833,0.367,17.2-1.2
				c11.133-2.733,21.7-3.867,31.7-3.4c9.833,0.467,17.233,2.4,22.2,5.8c2.233,1.533,5.55,2.316,9.95,2.35
				c2.667,0,7.5-0.383,14.5-1.15c16.567-1.833,30.284-1.95,41.15-0.35c10,1.466,20.5,2.066,31.5,1.8c7.7-0.167,14.883,0.9,21.55,3.2
				c2.533,0.833,5.117,1.483,7.75,1.95L221.25,0c2.7-0.333,7.383-1.017,14.05-2.05c5.967-0.9,10.633-1.517,14-1.85
				c1.9-0.2,15.233-0.717,40-1.55c18.833-0.633,31.983-2.05,39.45-4.25L329.5-9.9z"/>
			<path style="fill-rule:evenodd;clip-rule:evenodd;fill:#583818;" d="M310.75-78.7c-4.933,0.534-16.2,1.1-33.8,1.7
				c-18.233,0.6-34.4,1.617-48.5,3.05c-19.833,2.434-32.267,3.767-37.3,4c-6.233,0.3-13.917-0.9-23.05-3.6
				c-8.833-2.6-18.367-4.434-28.6-5.5c-4.1-0.434-11.8-0.9-23.1-1.4c-3.733-0.2-9.717-1.233-17.95-3.1
				c-9.7-2.167-17.383-3.633-23.05-4.4L38-88.55c-3.033,0.333-6.433,0.85-10.2,1.55c-0.167,4.5-1.05,9.7-2.65,15.6
				c8.733-1.167,16.833-1.434,24.3-0.8c7.433,0.633,13.167,2.083,17.2,4.35c2.167,1.2,5.35,1.817,9.55,1.85
				c2.533,0,7.15-0.317,13.85-0.95c15.733-1.466,28.817-1.583,39.25-0.35c9.467,1.133,19.467,1.583,30,1.35
				c7.333-0.167,14.184,0.667,20.55,2.5c2.367,0.633,4.8,1.133,7.3,1.5l22.55,0.05c2.6-0.267,7.05-0.817,13.35-1.65
				c5.667-0.767,10.1-1.284,13.3-1.55c1.7-0.133,14.267-0.566,37.7-1.3c17.767-0.533,30.233-1.667,37.4-3.4
				c-0.267-3.233-0.284-6.217-0.05-8.95L310.75-78.7z"/>
		</g>
	</g>
</symbol>
<symbol  id="FlashAICB_x2F_bg2_x5F_mudflat2_x2F__x3C_Group_x3E__x5F_1" viewBox="0 -64.55 330.65 64.55">
	<g id="Layer_1_7_">
		<g>
			<path style="fill-rule:evenodd;clip-rule:evenodd;fill:#57412A;" d="M298.05-49.45c-8.4-2.8-14.233-4.55-17.5-5.25
				c-6.7-1.4-14.267-1.917-22.7-1.55c-7.167,0.333-15.5,1.65-25,3.95c-9.5,2.333-15.7,3.566-18.6,3.7
				c-9.633,0.434-16.15,0.833-19.55,1.2c-8.833,0.967-17.217,2.717-25.15,5.25c-4.333,1.367-8.267,1.667-11.8,0.9
				c-2.367-0.5-5.7-1.883-10-4.15c-5.333-2.833-9.667-4.883-13-6.15c-6.2-2.3-13.15-3.917-20.85-4.85c-13.1-1.6-28.433-2.833-46-3.7
				c-17.233-0.8-28.3-1.517-33.2-2.15c-7.133-1.033-12.534-1.8-16.2-2.3c-0.4,0.966-1.467,5-3.2,12.1
				c-1.7,6.967-2.883,11.167-3.55,12.6L11.7-39.8c2.733-0.8,5.25-1.2,7.55-1.2c3.1,0,7.067,0.65,11.9,1.95
				c7.2,1.933,19.733,3.216,37.6,3.85c23.7,0.867,36.15,1.35,37.35,1.45c2.967,0.3,7.1,0.833,12.4,1.6
				c5.7,0.867,9.783,1.433,12.25,1.7l20.6-0.05c2.4-0.367,4.633-0.883,6.7-1.55c5.8-1.8,11.883-2.617,18.25-2.45
				c9,0.233,17.617-0.2,25.85-1.3c8.733-1.2,19.4-1.067,32,0.4c5.333,0.6,9,0.9,11,0.9c3.3,0,5.867-0.567,7.7-1.7
				c4-2.533,9.617-3.95,16.85-4.25c7.3-0.3,14.783,0.6,22.45,2.7c5.567,1.533,11.083,1.517,16.55-0.05
				c2.966-0.833,4.966-1.317,6-1.45c2.333-0.3,4.716-0.117,7.15,0.55l0.8,0.25c-1.566-4.3-2.8-8.2-3.7-11.7
				c-0.534,0-3.817,0.517-9.85,1.55C305.4-47.967,301.717-48.25,298.05-49.45z"/>
			<path style="fill-rule:evenodd;clip-rule:evenodd;fill:#57412A;" d="M329.05-17.8c-1.966-0.167-4.017-0.617-6.15-1.35
				c-9.467-3.267-16.033-5.317-19.7-6.15c-7.534-1.667-16-2.35-25.4-2.05c-7.966,0.267-17.233,1.633-27.8,4.1
				c-10.533,2.467-17.433,3.75-20.7,3.85c-10.833,0.367-18.1,0.717-21.8,1.05c-9.833,0.934-19.167,2.767-28,5.5
				c-9.4,2.9-17.233,4.117-23.5,3.65c-2.733-0.2-7.45-0.816-14.15-1.85c-9.833-1.534-17.7-2.7-23.6-3.5
				c-15-2.034-32.55-3.617-52.65-4.75c-19.7-1.133-32.35-2.1-37.95-2.9c-10.566-1.7-18.5-2.917-23.8-3.65
				C2.75-21.083,1.467-16.267,0-11.4c4.7-1.4,8.017-2.167,9.95-2.3c3.867-0.233,8.95,0.55,15.25,2.35
				c7.966,2.267,21.917,3.883,41.85,4.85c26.167,1.3,40.05,2.033,41.65,2.2c3.367,0.367,7.966,1.017,13.8,1.95
				c6.5,1.067,11.067,1.767,13.7,2.1l23,0.25c2.5-0.367,5-0.917,7.5-1.65c6.466-1.967,13.25-2.8,20.35-2.5
				c10.067,0.433,19.7,0.083,28.9-1.05c9.733-1.2,21.65-0.9,35.75,0.9c5.966,0.767,10.066,1.167,12.3,1.2
				c3.733,0.033,6.617-0.583,8.65-1.85c4.4-2.767,10.633-4.267,18.7-4.5c8.167-0.233,16.566,0.9,25.2,3.4
				c5.1,1.433,9.8,1.816,14.1,1.15C329.85-9.533,329.317-13.833,329.05-17.8z"/>
		</g>
	</g>
</symbol>
<symbol  id="FlashAICB_x2F_bg2_x5F_mudflat2_x2F__x3C_Path_x3E_" viewBox="0 -108.7 30.55 108.7">
	<g id="Layer_1_6_">
		<linearGradient id="SVGID_3_" gradientUnits="userSpaceOnUse" x1="30.5498" y1="-54.3501" x2="9.536743e-006" y2="-54.3501">
			<stop  offset="0" style="stop-color:#422811"/>
			<stop  offset="0.6196" style="stop-color:#5A422B"/>
			<stop  offset="1" style="stop-color:#2D1C0C"/>
		</linearGradient>
		<path style="fill-rule:evenodd;clip-rule:evenodd;fill:url(#SVGID_3_);" d="M30.55-4.55c-1-2.333-2.15-6.434-3.45-12.3
			c-2.533-11.767-4.45-26.566-5.75-44.4c-1.067-15.267-1.283-27.683-0.65-37.25c0.3-4.767,0.716-8.017,1.25-9.75L0-108.7
			c0.933,0.833,1.833,3.05,2.7,6.65c1.733,7.2,2.45,17.733,2.15,31.6C4.317-44.817,3.767-21.333,3.2,0L30.55-4.55z"/>
	</g>
</symbol>
<symbol  id="FlashAICB_x2F_bg2_x5F_mudflat2_x2F__x3C_Path_x3E__x5F_1" viewBox="0 -108.7 30.55 108.7">
	<g id="Layer_1_5_">
		<linearGradient id="SVGID_4_" gradientUnits="userSpaceOnUse" x1="30.5498" y1="-54.3501" x2="9.536743e-006" y2="-54.3501">
			<stop  offset="0" style="stop-color:#422811"/>
			<stop  offset="0.6196" style="stop-color:#5A422B"/>
			<stop  offset="1" style="stop-color:#2D1C0C"/>
		</linearGradient>
		<path style="fill-rule:evenodd;clip-rule:evenodd;fill:url(#SVGID_4_);" d="M30.55-4.55c-1-2.333-2.15-6.434-3.45-12.3
			c-2.533-11.767-4.45-26.566-5.75-44.4c-1.067-15.267-1.283-27.683-0.65-37.25c0.3-4.767,0.716-8.017,1.25-9.75L0-108.7
			c0.933,0.833,1.833,3.05,2.7,6.65c1.733,7.2,2.45,17.733,2.15,31.6C4.317-44.817,3.767-21.333,3.2,0L30.55-4.55z"/>
	</g>
</symbol>
<symbol  id="FlashAICB_x2F_bg2_x5F_mudflat2_x2F__x3C_Path_x3E__x5F_2" viewBox="0 -126.6 91.4 126.6">
	<g id="Layer_1_4_">
		<linearGradient id="SVGID_5_" gradientUnits="userSpaceOnUse" x1="91.3999" y1="-63.3003" x2="0" y2="-63.3003">
			<stop  offset="0" style="stop-color:#422811"/>
			<stop  offset="0.6196" style="stop-color:#5A422B"/>
			<stop  offset="1" style="stop-color:#2D1C0C"/>
		</linearGradient>
		<path style="fill-rule:evenodd;clip-rule:evenodd;fill:url(#SVGID_5_);" d="M88.35-25.55c-2.3-16.7-4.083-33.567-5.35-50.6
			c-1.067-14.633-1.517-27.434-1.35-38.4c0.067-5.5,0.25-9.517,0.55-12.05l-80.5,8.15c2.5,3.9,4.816,9.317,6.95,16.25
			c4.233,13.8,5.4,28.167,3.5,43.1C9.95-41.733,7.267-26.667,4.1-13.9C2.533-7.533,1.167-2.9,0,0l91.4-5.65
			C90.5-10.583,89.483-17.217,88.35-25.55z"/>
	</g>
</symbol>
<symbol  id="FlashAICB_x2F_bg2_x5F_mudflat2_x2F__x3C_Path_x3E__x5F_3" viewBox="0 -125.05 94.05 125.05">
	<g id="Layer_1_3_">
		<linearGradient id="SVGID_6_" gradientUnits="userSpaceOnUse" x1="94.0498" y1="-62.5249" x2="7.629395e-006" y2="-62.5249">
			<stop  offset="0" style="stop-color:#422811"/>
			<stop  offset="0.6196" style="stop-color:#5A422B"/>
			<stop  offset="1" style="stop-color:#2D1C0C"/>
		</linearGradient>
		<path style="fill-rule:evenodd;clip-rule:evenodd;fill:url(#SVGID_6_);" d="M92.45-25.15c-1.067-16.467-1.583-33.133-1.55-50
			c0.033-14.5,0.567-27.167,1.6-38c0.5-5.434,1-9.4,1.5-11.9l-94,16c2.7,3.633,5.317,8.15,7.85,13.55
			c5.066,10.833,7.25,20.733,6.55,29.7C13.1-49.233,10.483-33.3,6.55-18C4.583-10.333,2.733-4.333,1,0l93.05-5.45
			C93.517-10.317,92.983-16.883,92.45-25.15z"/>
	</g>
</symbol>
<symbol  id="FlashAICB_x2F_bg2_x5F_mudflat2_x2F__x3C_Path_x3E__x5F_4" viewBox="0 -109.25 56.85 109.25">
	<g id="Layer_1_2_">
		<linearGradient id="SVGID_7_" gradientUnits="userSpaceOnUse" x1="56.8501" y1="-54.625" x2="1.144409e-005" y2="-54.625">
			<stop  offset="0" style="stop-color:#422811"/>
			<stop  offset="0.6196" style="stop-color:#5A422B"/>
			<stop  offset="1" style="stop-color:#2D1C0C"/>
		</linearGradient>
		<path style="fill-rule:evenodd;clip-rule:evenodd;fill:url(#SVGID_7_);" d="M41.25-48.9c-0.5-15.7,0.7-29.65,3.6-41.85
			c1.433-6.1,2.917-10.633,4.45-13.6L0-109.25c0.933,1.467,1.95,4.083,3.05,7.85c2.167,7.467,3.617,16.85,4.35,28.15
			C8.233-60.617,8.05-47.6,6.85-34.2c-0.6,6.7-1.283,12.133-2.05,16.3L56.85,0c-1.333-2.467-2.983-6.367-4.95-11.7
			C48-22.3,44.45-34.7,41.25-48.9z"/>
	</g>
</symbol>
<symbol  id="FlashAICB_x2F_bg2_x5F_mudflat2_x2F__x3C_Path_x3E__x5F_52" viewBox="0 -107.441 274.5 107.441">
	<g id="Layer_1_9_">
		
			<linearGradient id="SVGID_8_" gradientUnits="userSpaceOnUse" x1="-83.9619" y1="-16030.6738" x2="23.5631" y2="-16030.6738" gradientTransform="matrix(9.300164e-006 -1 1 -0.001 16167.9248 -100.1299)">
			<stop  offset="0" style="stop-color:#422811"/>
			<stop  offset="1" style="stop-color:#4F3B28;stop-opacity:0"/>
		</linearGradient>
		<path style="fill-rule:evenodd;clip-rule:evenodd;fill:url(#SVGID_8_);" d="M265.85-19.25c-6.5-12.333-11.5-24.583-15-36.75
			c-0.867-3-0.8-7.183,0.2-12.55c0.567-3.133,1.65-7.85,3.25-14.15c1.2-5.4,1.583-9.4,1.15-12c-0.567-3.466-2.583-5.466-6.05-6
			c-1.9-0.3-4.017-0.3-6.35,0c-3.833,0.5-6.083,0.767-6.75,0.8c-5.6,0.7-10.667,0.95-15.2,0.75c-1.367-0.067-3.317-0.5-5.85-1.3
			c-4.767-1.5-7.267-2.283-7.5-2.35c-7.167-2-14.1-2.483-20.8-1.45c-8.267,1.267-13.833,1.933-16.7,2c-5.9-0.2-12.9-0.367-21-0.5
			c-6.5-0.1-15.933-1.25-28.3-3.45c-9.034-1.566-17.167-1.65-24.4-0.25c-8.4,1.667-16.633,2.333-24.7,2
			c-9.1-0.767-16.3-1.283-21.6-1.55c-8.167-0.467-15.067-0.3-20.7,0.5c-5.8,0.833-9.017,2.167-9.65,4
			c-0.167,0.433,0.25,1.667,1.25,3.7c1.4,2.867,2.45,5.533,3.15,8c2.733,9.466,2.5,21.083-0.7,34.85
			c-3.467,14.9-8.45,28.534-14.95,40.9C5.417-7.883,2.533-3.2,0,0l274.5-4.4C271.967-8.133,269.083-13.083,265.85-19.25z"/>
	</g>
</symbol>
<g>
	<path style="fill-rule:evenodd;clip-rule:evenodd;fill:#4F3B28;" d="M265.3,96.2c1.2,5.399,1.584,9.399,1.15,12
		c-0.566,3.467-2.584,5.467-6.05,6c-1.9,0.3-4.017,0.3-6.351,0c-3.833-0.5-6.083-0.767-6.75-0.8c-5.6-0.7-10.666-0.95-15.2-0.75
		c-1.366,0.066-3.316,0.5-5.85,1.3c-4.767,1.5-7.267,2.283-7.5,2.35c-7.167,2-14.1,2.483-20.8,1.45
		c-8.267-1.267-13.834-1.934-16.7-2c-5.9,0.2-12.9,0.366-21,0.5c-6.5,0.1-15.933,1.25-28.3,3.45
		c-9.034,1.566-17.167,1.649-24.4,0.25c-8.4-1.667-16.633-2.334-24.7-2c-9.1,0.767-16.3,1.283-21.6,1.55
		c-8.167,0.467-15.067,0.3-20.7-0.5c-5.8-0.833-9.017-2.167-9.65-4c-0.167-0.434,0.25-1.667,1.25-3.7c1.4-2.866,2.45-5.533,3.15-8
		c2.733-9.467,2.5-21.083-0.7-34.85c-3.467-14.9-8.45-28.534-14.95-40.9C16.417,21.383,13.533,16.7,11,13.5l274.5,4.4
		c-2.533,3.733-5.417,8.684-8.65,14.85c-6.5,12.333-11.5,24.583-15,36.75c-0.866,3-0.8,7.184,0.2,12.55
		C262.616,85.184,263.7,89.9,265.3,96.2z"/>
	
		<use xlink:href="#FlashAICB_x2F_bg2_x5F_mudflat2_x2F__x3C_Clip_Group_0_x3E_"  width="331.15" height="134.65" y="-134.65" transform="matrix(1 0 0 -1 -41 12.7998)" style="overflow:visible;"/>
	
		<use xlink:href="#FlashAICB_x2F_bg2_x5F_mudflat2_x2F__x3C_Path_x3E__x5F_52"  width="274.5" height="107.441" y="-107.441" transform="matrix(1 0 0 -1 11 13.5)" style="overflow:visible;opacity:0.6016;enable-background:new    ;"/>
	<path style="fill-rule:evenodd;clip-rule:evenodd;fill:#4F3B28;" d="M289.35,21.3c-10.8,1.767-26.85,1.9-48.149,0.4
		c-8.066,3.8-17.934,6.133-29.601,7c-5.199,0.4-14.083,0.466-26.649,0.2c-7.601-0.133-19.033,0.233-34.3,1.1
		c-14.9,0.833-26.383,1.133-34.45,0.9c-6.333,1.033-17.6,0.583-33.8-1.35c-18.4-2.5-31.133-4.167-38.2-5
		c-16.5-1.9-25.55-3.017-27.15-3.35C11.817,20.067,9.467,18,10,15c0.367-2.033,3.017-3.317,7.95-3.85
		c3.9-0.433,11.633-0.566,23.2-0.4c40.5,0.633,74.367,0.383,101.6-0.75c62.366-2.6,104.384-3.517,126.05-2.75
		c11.233,0.433,19.417,1.317,24.55,2.65c4.634,1.2,7.367,2.95,8.2,5.25C301.983,17.883,297.917,19.933,289.35,21.3z"/>
	<path style="fill-rule:evenodd;clip-rule:evenodd;fill:#684D38;" d="M293.35,17.8c2.667,0.133,5.367-0.35,8.101-1.45
		c-2.334,1.367-3.917,2.8-4.75,4.3c-0.867,1.6-2.134,2.934-3.8,4c-2.301,1.467-7.5,2.017-15.601,1.65
		c-10.1-0.833-17.517-1.45-22.25-1.85c-3.066-0.233-6.767,0.083-11.1,0.95c-0.334,0.067-4.533,1.083-12.601,3.05
		c-12.199,3-23.483,4.1-33.85,3.3c-13.866-1.267-22.55-1.967-26.05-2.1c-4.334-0.133-9.634,0.567-15.9,2.1
		c-9.367,2.267-14.3,3.45-14.8,3.55c-7.667,1.6-15.333,2.6-23,3c-22.4,1.167-46.017-2.5-70.85-11c-3.1-1.033-7.05-1.133-11.85-0.3
		c-5.433,0.967-10.1,1.067-14,0.3c-6.133-1.167-9.816-3.583-11.05-7.25c-0.367-1.167-0.467-2.383-0.3-3.65l0.35-1.55
		c0.9-1.8,3.184-1.567,6.85,0.7c5.367,3.267,9.267,5.133,11.7,5.6c2.7,0.533,6.483,0.333,11.35-0.6c4.9-0.9,9.533-0.95,13.9-0.15
		c4.1,0.767,13.117,2.733,27.05,5.9c13.567,2.633,24.617,3.5,33.15,2.6c6.4-0.667,16.25-0.883,29.55-0.65
		c11.266,0.2,19.05-0.2,23.35-1.2c5.1-1.2,11.45-1.566,19.05-1.1c4.333,0.267,10.9,0.816,19.7,1.65
		c3.967,0.233,11.95-1.367,23.95-4.8c11.333-3.233,19.483-4.417,24.449-3.55c5.867,1.033,10.351,1.15,13.45,0.35
		c5-1.267,9.15-1.967,12.45-2.1C282.934,17.4,287.384,17.5,293.35,17.8z"/>
	<path style="fill-rule:evenodd;clip-rule:evenodd;fill:#684D38;" d="M283.75,17.35c0-0.333,0.8-0.617,2.4-0.85
		c1.6-0.233,3.533-0.35,5.8-0.35c2.233,0,4.166,0.117,5.8,0.35c1.6,0.233,2.4,0.517,2.4,0.85c0,0.333-0.801,0.6-2.4,0.8
		c-1.6,0.233-3.533,0.35-5.8,0.35c-2.3,0-4.233-0.117-5.8-0.35C284.55,17.95,283.75,17.683,283.75,17.35z"/>
	<path style="fill-rule:evenodd;clip-rule:evenodd;fill:#5C4532;" d="M292.9,22.9c1.699-1.066,2.983-2.083,3.85-3.05
		c1.167-1.267,2.1-2.184,2.8-2.75c0.467-0.333,0.733-0.517,0.8-0.55c0.301-0.133,0.667-0.2,1.101-0.2
		c-1.134,1.867-2.15,3.25-3.05,4.15c-1.101,1.1-2.934,2.483-5.5,4.15c-2.301,1.467-7.5,2.017-15.601,1.65
		c-10.1-0.833-17.517-1.45-22.25-1.85c-3.066-0.233-6.767,0.083-11.1,0.95c-0.334,0.067-4.533,1.083-12.601,3.05
		c-12.199,3-23.483,4.1-33.85,3.3c-13.866-1.267-22.55-1.967-26.05-2.1c-4.334-0.133-9.634,0.567-15.9,2.1
		c-9.367,2.267-14.3,3.45-14.8,3.55c-7.667,1.6-15.333,2.6-23,3c-22.4,1.167-46.017-2.5-70.85-11c-3.1-1.033-7.05-1.133-11.85-0.3
		c-5.433,0.967-10.1,1.067-14,0.3c-4.733-0.9-8.017-2.566-9.85-5c-1.233-1.667-1.75-3.566-1.55-5.7
		c0.533,4.667,4.333,7.65,11.4,8.95c3.9,0.767,8.567,0.667,14-0.3c4.8-0.833,8.75-0.733,11.85,0.3c24.833,8.5,48.45,12.167,70.85,11
		c7.667-0.4,15.333-1.4,23-3c0.5-0.1,5.433-1.283,14.8-3.55c6.267-1.533,11.566-2.233,15.9-2.1c3.5,0.133,12.184,0.833,26.05,2.1
		c10.366,0.8,21.65-0.283,33.85-3.25c8.101-2,12.301-3.033,12.601-3.1c4.333-0.867,8.033-1.183,11.1-0.95
		c4.733,0.4,12.15,1.017,22.25,1.85C285.4,24.917,290.6,24.367,292.9,22.9z"/>
	<path style="fill-rule:evenodd;clip-rule:evenodd;fill:#684D38;" d="M200.8,23.85c0,1.3-2.1,2.417-6.3,3.35
		c-4.167,0.9-9.217,1.35-15.15,1.35c-5.933,0-10.983-0.45-15.149-1.35c-4.2-0.934-6.3-2.05-6.3-3.35c0-1.3,2.1-2.4,6.3-3.3
		c4.166-0.933,9.217-1.4,15.149-1.4c5.934,0,10.983,0.467,15.15,1.4C198.7,21.45,200.8,22.55,200.8,23.85z"/>
	<path style="fill-rule:evenodd;clip-rule:evenodd;fill:#4F3B28;" d="M198.25,22.2c0,1.066-1.684,1.983-5.05,2.75
		c-3.334,0.733-7.384,1.1-12.15,1.1s-8.816-0.367-12.149-1.1c-3.367-0.767-5.051-1.684-5.051-2.75c0-1.067,1.684-1.967,5.051-2.7
		c3.366-0.767,7.416-1.15,12.149-1.15s8.783,0.383,12.15,1.15C196.566,20.233,198.25,21.133,198.25,22.2z"/>
	<path style="fill-rule:evenodd;clip-rule:evenodd;fill:#684D38;" d="M108,26.3c0,0.133-0.183,0.25-0.55,0.35s-0.8,0.15-1.3,0.15
		s-0.933-0.05-1.3-0.15s-0.55-0.217-0.55-0.35c0-0.3,0.617-0.45,1.85-0.45S108,26,108,26.3z"/>
	<path style="fill-rule:evenodd;clip-rule:evenodd;fill:#684D38;" d="M116.25,25.2c0,0.3-0.617,0.45-1.85,0.45s-1.85-0.15-1.85-0.45
		c0-0.3,0.617-0.45,1.85-0.45S116.25,24.9,116.25,25.2z"/>
	<path style="fill-rule:evenodd;clip-rule:evenodd;fill:#4F3B28;" d="M59.7,24.05c0,0.333-0.767,0.617-2.3,0.85
		s-3.383,0.35-5.55,0.35c-2.133,0-3.983-0.117-5.55-0.35c-1.533-0.233-2.3-0.517-2.3-0.85c0-0.333,0.767-0.633,2.3-0.9
		c1.534-0.233,3.383-0.35,5.55-0.35c2.167,0,4.017,0.117,5.55,0.35C58.933,23.417,59.7,23.717,59.7,24.05z"/>
	<path style="fill-rule:evenodd;clip-rule:evenodd;fill:#4F3B28;" d="M17.3,21.95c0,0.233-0.483,0.35-1.45,0.35
		s-1.45-0.117-1.45-0.35c0-0.2,0.483-0.3,1.45-0.3S17.3,21.75,17.3,21.95z"/>
	<path style="fill-rule:evenodd;clip-rule:evenodd;fill:#4F3B28;" d="M20.15,22.3c0,0.167-0.367,0.25-1.1,0.25
		c-0.767,0-1.15-0.083-1.15-0.25c0-0.167,0.383-0.25,1.15-0.25C19.783,22.05,20.15,22.133,20.15,22.3z"/>
	<path style="fill-rule:evenodd;clip-rule:evenodd;fill:#684D38;" d="M37.2,17.05c0,0.534-1.333,0.983-4,1.35
		c-2.667,0.4-5.883,0.6-9.65,0.6c-3.767,0-7-0.2-9.7-0.6c-2.667-0.367-4-0.816-4-1.35c0-0.533,1.333-1,4-1.4
		c2.667-0.367,5.9-0.55,9.7-0.55c3.8,0,7.017,0.183,9.65,0.55C35.867,16.05,37.2,16.517,37.2,17.05z"/>
	<path style="fill-rule:evenodd;clip-rule:evenodd;fill:#684D38;" d="M46.75,21.3c0,0.233-0.6,0.434-1.8,0.6
		c-1.167,0.167-2.617,0.25-4.35,0.25s-3.184-0.083-4.35-0.25c-1.2-0.167-1.8-0.367-1.8-0.6c0-0.233,0.6-0.45,1.8-0.65
		c1.2-0.167,2.65-0.25,4.35-0.25c1.7,0,3.15,0.083,4.35,0.25C46.15,20.85,46.75,21.067,46.75,21.3z"/>
	<path style="fill-rule:evenodd;clip-rule:evenodd;fill:#684D38;" d="M52.4,19.95c0,0.3-1.066,0.45-3.2,0.45S46,20.25,46,19.95
		c0-0.333,1.067-0.5,3.2-0.5S52.4,19.617,52.4,19.95z"/>
	<path style="fill-rule:evenodd;clip-rule:evenodd;fill:#4F3B28;" d="M29.85,24.6C29.783,24.867,28.7,25,26.6,25
		c-2.133-0.067-3.184-0.25-3.15-0.55c0-0.3,1.066-0.417,3.2-0.35C28.783,24.1,29.85,24.267,29.85,24.6z"/>
	<path style="fill-rule:evenodd;clip-rule:evenodd;fill:#4F3B28;" d="M71.25,23.3c0,0.3-1.067,0.45-3.2,0.45
		c-2.167,0-3.25-0.15-3.25-0.45c0-0.3,1.083-0.45,3.25-0.45C70.183,22.85,71.25,23,71.25,23.3z"/>
	<path style="fill-rule:evenodd;clip-rule:evenodd;fill:#4F3B28;" d="M102.45,23c0,0.233-0.633,0.433-1.9,0.6
		c-1.267,0.167-2.783,0.25-4.55,0.25s-3.283-0.083-4.55-0.25c-1.267-0.167-1.9-0.367-1.9-0.6s0.633-0.433,1.9-0.6
		c1.233-0.167,2.75-0.25,4.55-0.25s3.317,0.083,4.55,0.25C101.817,22.567,102.45,22.767,102.45,23z"/>
	<path style="fill-rule:evenodd;clip-rule:evenodd;fill:#4F3B28;" d="M91,24.1c0,0.2-0.817,0.3-2.45,0.3c-1.667,0-2.5-0.1-2.5-0.3
		c0-0.233,0.833-0.35,2.5-0.35C90.183,23.75,91,23.867,91,24.1z"/>
	<path style="fill-rule:evenodd;clip-rule:evenodd;fill:#4F3B28;" d="M239.25,18.9c0,0.2-0.816,0.3-2.45,0.3
		c-1.666,0-2.5-0.1-2.5-0.3c0-0.233,0.834-0.35,2.5-0.35C238.434,18.55,239.25,18.667,239.25,18.9z"/>
	<path style="fill-rule:evenodd;clip-rule:evenodd;fill:#4F3B28;" d="M66.75,24.85c0,0.233-0.833,0.35-2.5,0.35s-2.5-0.117-2.5-0.35
		c0-0.2,0.833-0.3,2.5-0.3S66.75,24.65,66.75,24.85z"/>
	<path style="fill-rule:evenodd;clip-rule:evenodd;fill:#4F3B28;" d="M37.6,16.1c0,0.433-1.067,0.8-3.2,1.1
		c-2.167,0.333-4.75,0.5-7.75,0.5s-5.583-0.167-7.75-0.5c-2.133-0.3-3.2-0.667-3.2-1.1c0-0.434,1.066-0.817,3.2-1.15
		c2.133-0.3,4.717-0.45,7.75-0.45s5.617,0.15,7.75,0.45C36.533,15.283,37.6,15.667,37.6,16.1z"/>
	<path style="fill-rule:evenodd;clip-rule:evenodd;fill:#684D38;" d="M146.05,25.3c0,0.534-1.333,0.983-4,1.35
		c-2.667,0.4-5.883,0.6-9.65,0.6s-6.983-0.2-9.65-0.6c-2.667-0.367-4-0.816-4-1.35c0-0.533,1.333-1,4-1.4
		c2.633-0.367,5.85-0.55,9.65-0.55c3.8,0,7.017,0.183,9.65,0.55C144.717,24.3,146.05,24.767,146.05,25.3z"/>
	<path style="fill-rule:evenodd;clip-rule:evenodd;fill:#684D38;" d="M231.85,23.05c0,0.3-0.8,0.567-2.399,0.8
		c-1.634,0.233-3.566,0.35-5.8,0.35s-4.167-0.117-5.801-0.35c-1.6-0.233-2.399-0.5-2.399-0.8c0-0.333,0.8-0.617,2.399-0.85
		c1.601-0.233,3.534-0.35,5.801-0.35c2.233,0,4.166,0.117,5.8,0.35C231.05,22.433,231.85,22.717,231.85,23.05z"/>
	<path style="fill-rule:evenodd;clip-rule:evenodd;fill:#684D38;" d="M293.55,18.2c0,0.233-0.6,0.433-1.8,0.6
		c-1.2,0.167-2.65,0.25-4.35,0.25c-1.667,0-3.117-0.083-4.351-0.25c-1.2-0.167-1.8-0.367-1.8-0.6c0-0.233,0.6-0.45,1.8-0.65
		c1.2-0.167,2.65-0.25,4.351-0.25c1.699,0,3.149,0.083,4.35,0.25C292.95,17.75,293.55,17.967,293.55,18.2z"/>
	<path style="fill-rule:evenodd;clip-rule:evenodd;fill:#684D38;" d="M299.45,16.05c0,0.3-1.066,0.45-3.2,0.45s-3.2-0.15-3.2-0.45
		c0-0.3,1.066-0.45,3.2-0.45S299.45,15.75,299.45,16.05z"/>
	<path style="fill-rule:evenodd;clip-rule:evenodd;fill:#4F3B28;" d="M276.75,18.45c0,0.3-1.066,0.45-3.2,0.45
		c-2.133,0-3.2-0.15-3.2-0.45c0-0.3,1.067-0.45,3.2-0.45C275.684,18,276.75,18.15,276.75,18.45z"/>
	<path style="fill-rule:evenodd;clip-rule:evenodd;fill:#4F3B28;" d="M288.85,21.05c0,0.233-0.633,0.434-1.899,0.6
		c-1.233,0.167-2.75,0.25-4.55,0.25c-1.801,0-3.317-0.083-4.551-0.25c-1.233-0.167-1.85-0.367-1.85-0.6
		c0-0.233,0.616-0.433,1.85-0.6c1.267-0.167,2.784-0.25,4.551-0.25s3.283,0.083,4.55,0.25
		C288.217,20.617,288.85,20.817,288.85,21.05z"/>
	<path style="fill-rule:evenodd;clip-rule:evenodd;fill:#4F3B28;" d="M297.8,17.35c0,0.233-0.616,0.433-1.85,0.6
		c-1.233,0.167-2.75,0.25-4.55,0.25c-1.801,0-3.317-0.083-4.551-0.25c-1.267-0.167-1.899-0.367-1.899-0.6s0.633-0.434,1.899-0.6
		s2.784-0.25,4.551-0.25s3.283,0.083,4.55,0.25C297.184,16.917,297.8,17.117,297.8,17.35z"/>
	<path style="fill-rule:evenodd;clip-rule:evenodd;fill:#4F3B28;" d="M97.9,16.1c0,0.233-0.633,0.433-1.9,0.6
		c-1.267,0.167-2.783,0.25-4.55,0.25c-1.767,0-3.284-0.083-4.55-0.25c-1.233-0.167-1.85-0.367-1.85-0.6s0.617-0.434,1.85-0.6
		s2.75-0.25,4.55-0.25c1.8,0,3.316,0.083,4.55,0.25C97.267,15.667,97.9,15.867,97.9,16.1z"/>
	<path style="fill-rule:evenodd;clip-rule:evenodd;fill:#4F3B28;" d="M271.45,21.55c0,0.233-0.834,0.35-2.5,0.35
		c-1.667,0-2.5-0.117-2.5-0.35c0-0.2,0.833-0.3,2.5-0.3C270.616,21.25,271.45,21.35,271.45,21.55z"/>
	<path style="fill-rule:evenodd;clip-rule:evenodd;fill:#4F3B28;" d="M234.25,19.45c0,0.167-0.366,0.25-1.1,0.25
		s-1.101-0.083-1.101-0.25c0-0.167,0.367-0.25,1.101-0.25S234.25,19.283,234.25,19.45z"/>
	<path style="fill-rule:evenodd;clip-rule:evenodd;fill:#4F3B28;" d="M292.45,19c0,0.167-0.367,0.25-1.101,0.25s-1.1-0.083-1.1-0.25
		s0.366-0.25,1.1-0.25S292.45,18.833,292.45,19z"/>
	<path style="fill-rule:evenodd;clip-rule:evenodd;fill:#4F3B28;" d="M72.3,19.45c0,0.233-0.833,0.35-2.5,0.35
		c-1.667,0-2.5-0.117-2.5-0.35c0-0.2,0.833-0.3,2.5-0.3C71.467,19.15,72.3,19.25,72.3,19.45z"/>
	<path style="fill-rule:evenodd;clip-rule:evenodd;fill:#4F3B28;" d="M65.35,20.35c0,0.233-0.833,0.35-2.5,0.35
		c-1.667,0-2.5-0.117-2.5-0.35c0-0.2,0.833-0.3,2.5-0.3C64.517,20.05,65.35,20.15,65.35,20.35z"/>
	<path style="fill-rule:evenodd;clip-rule:evenodd;fill:#4F3B28;" d="M146.5,24.35c0,0.433-1.067,0.8-3.2,1.1
		c-2.167,0.333-4.75,0.5-7.75,0.5s-5.583-0.167-7.75-0.5c-2.133-0.3-3.2-0.667-3.2-1.1c0-0.434,1.066-0.817,3.2-1.15
		c2.133-0.3,4.717-0.45,7.75-0.45c3.034,0,5.617,0.15,7.75,0.45C145.433,23.533,146.5,23.917,146.5,24.35z"/>
	<path style="fill-rule:evenodd;clip-rule:evenodd;fill:#684D38;" d="M99.4,25.35c0,0.533-1.333,1-4,1.4
		c-2.633,0.367-5.85,0.55-9.65,0.55s-7.033-0.183-9.7-0.55c-2.667-0.4-4-0.867-4-1.4s1.333-1,4-1.4c2.667-0.367,5.9-0.55,9.7-0.55
		s7.017,0.184,9.65,0.55C98.067,24.35,99.4,24.817,99.4,25.35z"/>
	<path style="fill-rule:evenodd;clip-rule:evenodd;fill:#4F3B28;" d="M99.8,24.15c0,0.367-1.383,0.684-4.15,0.95s-6.1,0.4-10,0.4
		c-3.933,0-7.283-0.133-10.05-0.4s-4.15-0.583-4.15-0.95s1.383-0.683,4.15-0.95c2.767-0.267,6.117-0.4,10.05-0.4
		c3.9,0,7.233,0.133,10,0.4C98.417,23.467,99.8,23.783,99.8,24.15z"/>
	<path style="fill-rule:evenodd;clip-rule:evenodd;fill:#684D38;" d="M205.35,20c2.667,0.367,4,0.817,4,1.35s-1.333,1-4,1.4
		c-2.633,0.367-5.85,0.55-9.649,0.55s-7.033-0.183-9.7-0.55c-2.667-0.4-4-0.867-4-1.4s1.333-0.983,4-1.35c2.7-0.4,5.934-0.6,9.7-0.6
		S202.684,19.6,205.35,20z"/>
	<path style="fill-rule:evenodd;clip-rule:evenodd;fill:#684D38;" d="M263.85,13.85c0-0.233,0.601-0.434,1.801-0.6
		c1.233-0.167,2.683-0.25,4.35-0.25c1.7,0,3.15,0.083,4.35,0.25c1.2,0.167,1.801,0.367,1.801,0.6c0,0.267-0.601,0.483-1.801,0.65
		c-1.199,0.167-2.649,0.25-4.35,0.25s-3.15-0.083-4.35-0.25C264.45,14.333,263.85,14.117,263.85,13.85z"/>
	<path style="fill-rule:evenodd;clip-rule:evenodd;fill:#684D38;" d="M286.25,14.15c0-0.233,0.6-0.45,1.8-0.65
		c1.2-0.167,2.65-0.25,4.351-0.25c1.699,0,3.149,0.083,4.35,0.25c1.2,0.2,1.8,0.417,1.8,0.65s-0.6,0.434-1.8,0.6S294.1,15,292.4,15
		c-1.667,0-3.117-0.083-4.351-0.25C286.85,14.583,286.25,14.383,286.25,14.15z"/>
	<path style="fill-rule:evenodd;clip-rule:evenodd;fill:#684D38;" d="M279.7,15.65c0-0.333,1.066-0.5,3.2-0.5
		c2.133,0,3.199,0.167,3.199,0.5c0,0.3-1.066,0.45-3.199,0.45C280.767,16.1,279.7,15.95,279.7,15.65z"/>
	<path style="fill-rule:evenodd;clip-rule:evenodd;fill:#4F3B28;" d="M243.75,16.05c2.134,0,3.2,0.167,3.2,0.5
		c0,0.3-1.066,0.45-3.2,0.45s-3.2-0.15-3.2-0.45C240.55,16.217,241.616,16.05,243.75,16.05z"/>
	<path style="fill-rule:evenodd;clip-rule:evenodd;fill:#4F3B28;" d="M246.9,17.35c1.8,0,3.316,0.083,4.55,0.25
		c1.267,0.167,1.899,0.367,1.899,0.6c0,0.233-0.633,0.433-1.899,0.6c-1.267,0.167-2.783,0.25-4.55,0.25s-3.284-0.083-4.551-0.25
		c-1.267-0.167-1.899-0.367-1.899-0.6c0-0.233,0.633-0.434,1.899-0.6C243.583,17.433,245.1,17.35,246.9,17.35z"/>
	<path style="fill-rule:evenodd;clip-rule:evenodd;fill:#4F3B28;" d="M251.85,19.3c0-0.233,0.834-0.35,2.5-0.35
		c1.667,0,2.5,0.117,2.5,0.35c0,0.2-0.833,0.3-2.5,0.3C252.684,19.6,251.85,19.5,251.85,19.3z"/>
	<path style="fill-rule:evenodd;clip-rule:evenodd;fill:#4F3B28;" d="M181.6,20.4c0-0.433,1.067-0.8,3.2-1.1
		c2.134-0.3,4.717-0.45,7.75-0.45s5.617,0.15,7.75,0.45c2.134,0.3,3.2,0.667,3.2,1.1c0,0.434-1.066,0.817-3.2,1.15
		c-2.133,0.3-4.717,0.45-7.75,0.45s-5.616-0.15-7.75-0.45C182.667,21.217,181.6,20.833,181.6,20.4z"/>
	<path style="fill-rule:evenodd;clip-rule:evenodd;fill:#684D38;" d="M111.2,27.85c0,0.767-1.05,1.4-3.15,1.9
		c-2.133,0.533-4.7,0.8-7.7,0.8c-2.967,0-5.517-0.267-7.65-0.8c-2.1-0.533-3.15-1.167-3.15-1.9S90.6,26.5,92.7,26
		c2.133-0.533,4.683-0.8,7.65-0.8c3,0,5.566,0.267,7.7,0.8C110.15,26.5,111.2,27.117,111.2,27.85z"/>
	<path style="fill-rule:evenodd;clip-rule:evenodd;fill:#684D38;" d="M214,26.9c0,0.434-0.634,0.817-1.9,1.15
		c-1.267,0.3-2.8,0.45-4.6,0.45c-1.767,0-3.283-0.15-4.55-0.45c-1.267-0.333-1.9-0.716-1.9-1.15c0-0.433,0.634-0.816,1.9-1.15
		c1.267-0.3,2.783-0.45,4.55-0.45c1.8,0,3.333,0.15,4.6,0.45C213.366,26.083,214,26.467,214,26.9z"/>
	<path style="fill-rule:evenodd;clip-rule:evenodd;fill:#684D38;" d="M145.25,27.6c0,0.333-0.483,0.617-1.45,0.85
		c-0.966,0.233-2.117,0.35-3.45,0.35c-1.333,0-2.467-0.117-3.4-0.35c-0.967-0.233-1.45-0.517-1.45-0.85
		c0-0.333,0.483-0.617,1.45-0.85c0.933-0.233,2.066-0.35,3.4-0.35c1.367,0,2.517,0.117,3.45,0.35
		C144.767,26.983,145.25,27.267,145.25,27.6z"/>
	<path style="fill-rule:evenodd;clip-rule:evenodd;fill:#684D38;" d="M123.2,31.85c0,0.4-0.85,0.6-2.55,0.6
		c-1.7,0-2.55-0.2-2.55-0.6c0-0.167,0.25-0.317,0.75-0.45s1.1-0.2,1.8-0.2c0.7,0,1.3,0.066,1.8,0.2S123.2,31.683,123.2,31.85z"/>
	<path style="fill-rule:evenodd;clip-rule:evenodd;fill:#4F3B28;" d="M105.45,34.05c0,0.434-0.833,0.65-2.5,0.65
		c-1.7,0-2.55-0.217-2.55-0.65c0-0.167,0.25-0.316,0.75-0.45s1.1-0.2,1.8-0.2c0.7,0,1.3,0.067,1.8,0.2
		C105.217,33.733,105.45,33.883,105.45,34.05z"/>
	<path style="fill-rule:evenodd;clip-rule:evenodd;fill:#4F3B28;" d="M111.5,26.6c0,0.6-0.833,1.117-2.5,1.55
		c-1.7,0.4-3.75,0.6-6.15,0.6s-4.434-0.2-6.1-0.6c-1.7-0.433-2.55-0.95-2.55-1.55c0-0.633,0.85-1.15,2.55-1.55
		c1.667-0.433,3.7-0.65,6.1-0.65s4.45,0.217,6.15,0.65C110.667,25.45,111.5,25.967,111.5,26.6z"/>
	<path style="fill-rule:evenodd;clip-rule:evenodd;fill:#684D38;" d="M91.95,22.5c0,0.333-0.8,0.6-2.4,0.8
		c-1.566,0.233-3.5,0.35-5.8,0.35c-2.267,0-4.2-0.117-5.8-0.35c-1.6-0.2-2.4-0.466-2.4-0.8s0.8-0.6,2.4-0.8
		c1.6-0.233,3.533-0.35,5.8-0.35c2.3,0,4.233,0.117,5.8,0.35C91.15,21.9,91.95,22.167,91.95,22.5z"/>
</g>
</svg>
