<?xml version="1.0" encoding="iso-8859-1"?>
<!-- Generator: Adobe Illustrator 15.1.0, SVG Export Plug-In . SVG Version: 6.00 Build 0)  -->
<!DOCTYPE svg PUBLIC "-//W3C//DTD SVG 1.1//EN" "http://www.w3.org/Graphics/SVG/1.1/DTD/svg11.dtd">
<svg version="1.1" id="bg2_x5F_mudflat5" xmlns="http://www.w3.org/2000/svg" xmlns:xlink="http://www.w3.org/1999/xlink" x="0px"
	 y="0px" width="462px" height="142px" viewBox="0 0 462 142" style="enable-background:new 0 0 462 142;" xml:space="preserve">
<symbol  id="FlashAICB_x2F_bg2_x5F_mudflat5_x2F__x3C_Clip_Group_0_x3E_" viewBox="0 -163.9 575.901 163.9">
	<g id="Layer_1_8_">
	</g>
	<g>
		<defs>
			<path id="SVGID_1_" d="M470.35-107.7c-3.7,3.667-6.667,6.983-8.9,9.95C452.683-86.05,448.2-71.967,448-55.5
				c-0.2,15.6,2.217,29.533,7.25,41.8c2.5,6.133,5.033,10.7,7.6,13.7L33.9-0.5c3.033-3.9,6.267-9.2,9.7-15.9
				c6.867-13.4,11.3-27.05,13.3-40.95c0.533-3.7-1.267-9.083-5.4-16.15c-2.4-4.067-6.45-10.317-12.15-18.75
				c-4.533-7.2-6.867-12.567-7-16.1c-0.2-4.7,3.117-7.4,9.95-8.1c3.733-0.4,8-0.367,12.8,0.1c8.033,0.8,12.683,1.233,13.95,1.3
				l10.3,0.8c7.967,0.533,14.75,0.75,20.35,0.65c2.667-0.066,6.433-0.65,11.3-1.75c9-2.033,13.733-3.1,14.2-3.2
				c13.7-2.7,27.267-3.217,40.7-1.55c16.167,2,27.033,3.083,32.6,3.25c5.267,0.133,18.717,0.083,40.35-0.15
				c10,0,20.05-0.483,30.15-1.45c1.567-0.167,9.433-1.083,23.6-2.75c17.133-2.033,32.316-1.95,45.55,0.25
				c15.067,2.5,29.967,3.633,44.7,3.4c8.667-0.167,21.883-0.733,39.65-1.7c14.733-0.433,26.9-0.05,36.5,1.15
				c9.9,1.233,14.967,3.1,15.2,5.6C474.267-111.9,472.983-110.3,470.35-107.7z"/>
		</defs>
		<clipPath id="SVGID_2_">
			<use xlink:href="#SVGID_1_"  style="overflow:visible;"/>
		</clipPath>
		<g id="Layer_3_1_" style="clip-path:url(#SVGID_2_);">
			
				<use xlink:href="#FlashAICB_x2F_bg2_x5F_mudflat5_x2F__x3C_Path_x3E__x5F_2"  width="106.15" height="113.55" y="-113.55" transform="matrix(1 0 0 1 98.2002 -16.3501)" style="overflow:visible;opacity:0.8008;enable-background:new    ;"/>
			
				<use xlink:href="#FlashAICB_x2F_bg2_x5F_mudflat5_x2F__x3C_Path_x3E__x5F_1"  width="142.75" height="156.1" y="-156.1" transform="matrix(1 0 0 1 260.75 -7.7998)" style="overflow:visible;opacity:0.8008;enable-background:new    ;"/>
			
				<use xlink:href="#FlashAICB_x2F_bg2_x5F_mudflat5_x2F__x3C_Path_x3E_"  width="71.8" height="130.65" y="-130.65" transform="matrix(1 0 0 1 167.0498 -3.75)" style="overflow:visible;opacity:0.8008;enable-background:new    ;"/>
			<g>
				<g>
					
						<use xlink:href="#FlashAICB_x2F_bg2_x5F_mudflat5_x2F__x3C_Group_x3E__x5F_1"  width="575.901" height="89.95" y="-89.95" transform="matrix(1 0 0 1 0 -41)" style="overflow:visible;opacity:0.3008;enable-background:new    ;"/>
					
						<use xlink:href="#FlashAICB_x2F_bg2_x5F_mudflat5_x2F__x3C_Group_x3E_"  width="531.65" height="72.3" y="-72.3" transform="matrix(1 0 0 1 19.9502 -24.6499)" style="overflow:visible;opacity:0.3008;enable-background:new    ;"/>
				</g>
			</g>
		</g>
	</g>
	<g id="Layer_4_1_">
	</g>
</symbol>
<symbol  id="FlashAICB_x2F_bg2_x5F_mudflat5_x2F__x3C_Group_x3E_" viewBox="0 -72.3 531.65 72.3">
	<g id="Layer_1_6_">
		<g>
			<path style="fill-rule:evenodd;clip-rule:evenodd;fill:#583818;" d="M526.4-26.5l-0.15-1.3c-1.4-0.267-2.467-0.467-3.2-0.6
				c-17.033-3.8-28.983-6.167-35.85-7.1c-13.967-1.867-30.067-2.4-48.3-1.6c-15.333,0.7-33.066,2.8-53.2,6.3
				c-20.067,3.466-33.034,5.333-38.9,5.6c-19.4,0.8-32.533,1.483-39.4,2.05c-17.6,1.467-34.117,3.967-49.55,7.5
				c-9.133,2.1-16.383,3.5-21.75,4.2c-5.667,0.733-11.733,1-18.2,0.8c-4.833-0.167-13.066-0.733-24.7-1.7
				c-17.5-1.5-31.15-2.6-40.95-3.3c-25.1-1.8-53.383-3.05-84.85-3.75c-33.767-0.733-54.367-1.317-61.8-1.75
				C4.2-17.417,2.333-13.517,0-9.45l1.4,0.2C15.3-6.95,38.55-5.533,71.15-5c42.8,0.667,65.6,1.083,68.4,1.25
				c5.733,0.3,13.55,0.9,23.45,1.8c11.233,1,18.983,1.65,23.25,1.95l38.5-0.35c4.067-0.433,8.217-1.117,12.45-2.05
				c10.933-2.4,22.517-3.533,34.75-3.4c17.533,0.167,34.267-0.517,50.2-2.05c17.467-1.7,38.684-1.717,63.65-0.05
				c10.6,0.733,17.934,1.083,22,1.05c6.767-0.066,12.1-0.867,16-2.4c8.8-3.467,20.733-5.467,35.8-6c15.3-0.533,30.633,0.55,46,3.25
				c8.6,1.533,16.833,1.9,24.7,1.1C528.267-16.1,526.967-21.3,526.4-26.5z"/>
			<path style="fill-rule:evenodd;clip-rule:evenodd;fill:#583818;" d="M526.5-49.8c0.934-7.5,2.65-14.233,5.15-20.2
				c-5.667-1-11.167-1.767-16.5-2.3h-65.4c-10.2,0.9-24.383,2.733-42.55,5.5c-15.233,2.3-26.2,3.533-32.9,3.7
				c-20.767,0.533-34.716,1.033-41.85,1.5c-18.7,1.2-36.267,3.467-52.7,6.8c-9.733,1.966-17.45,3.25-23.15,3.85
				c-6.067,0.633-12.517,0.8-19.35,0.5c-5.1-0.233-13.8-0.917-26.1-2.05c-18.4-1.733-32.833-3.033-43.3-3.9
				c-27.3-2.233-58.867-3.95-94.7-5.15C38.317-62.683,15.8-63.7,5.6-64.6l-1.4-0.1c1.833,4.133,3.167,8.317,4,12.55
				c14.733,2.467,39.3,4.2,73.7,5.2c9.133,0.267,22.383,0.6,39.75,1c14.467,0.367,25.267,0.784,32.4,1.25
				c5.967,0.4,14.233,1.117,24.8,2.15c11.6,1.167,19.8,1.933,24.6,2.3l40.8,0.25c4.833-0.5,9.267-1.133,13.3-1.9
				c11.633-2.267,23.934-3.233,36.9-2.9c18.566,0.433,36.316,0,53.25-1.3c18.566-1.433,41.05-1.117,67.45,0.95
				c11.233,0.867,19.017,1.316,23.35,1.35c7.133,0.033,12.8-0.684,17-2.15c7.867-2.767,18.2-4.5,31-5.2
				C499.3-51.85,512.633-51.4,526.5-49.8z"/>
		</g>
	</g>
</symbol>
<symbol  id="FlashAICB_x2F_bg2_x5F_mudflat5_x2F__x3C_Group_x3E__x5F_1" viewBox="0 -89.95 575.901 89.95">
	<g id="Layer_1_5_">
		<g>
			<path style="fill-rule:evenodd;clip-rule:evenodd;fill:#57412A;" d="M570.8-56.75v-0.1c-0.133-1.833,0.684-7.417,2.45-16.75
				c1.8-9.5,2.684-14.95,2.65-16.35c-13.566,1.3-23.5,2.217-29.8,2.75c-8.967,0.733-28.983,1.45-60.05,2.15
				c-31.767,0.733-59.816,2.05-84.15,3.95c-14.4,1.133-27.55,3.217-39.45,6.25c-6.467,1.633-14.867,4.317-25.2,8.05
				c-8.367,3.033-14.75,4.867-19.15,5.5c-6.633,0.966-13.767,0.5-21.4-1.4c-14.5-3.633-30.034-6.2-46.6-7.7
				c-6.434-0.6-18.8-1.317-37.1-2.15c-5.567-0.233-17.767-2.133-36.6-5.7c-18.967-3.6-35.65-5.75-50.05-6.45
				c-17.167-0.833-32.333-0.3-45.5,1.6c-6.4,0.934-17.633,3.367-33.7,7.3c-6.933,1.7-14.333,2.033-22.2,1
				c-4.4-0.667-7.733-1.167-10-1.5c-4.1-0.6-7.784-0.95-11.05-1.05c-0.1,5.4-0.6,11.017-1.5,16.85l1.4-0.3
				c4.6-0.934,9.3-1.167,14.1-0.7c2.267,0.2,6.517,0.917,12.75,2.15c11.6,2.267,22.583,2.4,32.95,0.4
				c14.433-2.767,28.85-3.883,43.25-3.35c14.167,0.566,25.4,2.617,33.7,6.15c3.7,1.566,8.717,2.383,15.05,2.45
				c3.833,0.034,10.733-0.316,20.7-1.05c23.5-1.733,43.467-1.733,59.9,0c14.966,1.6,30.716,2.3,47.25,2.1
				c11.533-0.133,22.433,1.05,32.7,3.55c3.867,0.9,7.767,1.6,11.7,2.1l36.25,0.35c3.8-0.3,11.1-0.967,21.9-2
				c9.233-0.934,16.583-1.55,22.05-1.85c2.667-0.167,24.117-0.6,64.35-1.3c30.667-0.534,52.55-1.983,65.65-4.35
				c8.8-1.6,15.8-2.367,21-2.3C562.917-58.417,566.833-57.85,570.8-56.75z"/>
			<path style="fill-rule:evenodd;clip-rule:evenodd;fill:#57412A;" d="M571.65-12.4c0.8-6,1.8-11.633,3-16.9
				c-4.633,0.433-11.466,1.117-20.5,2.05c-9.2,0.967-15.883,1.65-20.05,2.05c-9.534,0.9-30.733,1.95-63.6,3.15
				c-33.667,1.2-63.367,2.95-89.1,5.25c-34.767,3.633-56.533,5.667-65.3,6.1c-6.434,0.3-12.5,0.117-18.2-0.55
				c-5.367-0.633-12.633-1.95-21.8-3.95c-15.5-3.433-32.033-5.767-49.6-7c-7.2-0.5-20.317-0.983-39.35-1.45
				c-5.9-0.167-18.883-1.883-38.95-5.15c-20.2-3.3-37.934-5.184-53.2-5.65c-18.2-0.566-34.267,0.217-48.2,2.35
				c-6.566,1.033-18.417,3.633-35.55,7.8C7.55-23.367,3.8-22.783,0-22.55C1.367-17.317,2.383-11.9,3.05-6.3
				c8.6,0.833,17.284,0.367,26.05-1.4c15.267-3,30.517-4.333,45.75-4c15.066,0.3,27.033,2.167,35.9,5.6c3.967,1.5,9.3,2.233,16,2.2
				c4.067-0.033,11.383-0.5,21.95-1.4c24.867-2.1,46.017-2.417,63.45-0.95c15.9,1.333,32.617,1.783,50.15,1.35
				c12.167-0.333,23.733,0.667,34.7,3c3.833,0.767,8,1.4,12.5,1.9l38.45-0.25c4.267-0.367,11.966-1.15,23.1-2.35
				c9.867-1.066,17.65-1.8,23.35-2.2c2.867-0.2,25.6-0.983,68.2-2.35c32.5-1,55.65-2.783,69.45-5.35
				c10.967-2.033,19.434-2.9,25.4-2.6C560.35-14.933,565.083-14.033,571.65-12.4z"/>
		</g>
	</g>
</symbol>
<symbol  id="FlashAICB_x2F_bg2_x5F_mudflat5_x2F__x3C_Path_x3E_" viewBox="0 -130.65 71.8 130.65">
	<g id="Layer_1_4_">
		<linearGradient id="SVGID_3_" gradientUnits="userSpaceOnUse" x1="0" y1="-65.3252" x2="71.7998" y2="-65.3252">
			<stop  offset="0" style="stop-color:#422811"/>
			<stop  offset="0.6196" style="stop-color:#5A422B"/>
			<stop  offset="1" style="stop-color:#2D1C0C"/>
		</linearGradient>
		<path style="fill-rule:evenodd;clip-rule:evenodd;fill:url(#SVGID_3_);" d="M4.75-17.35C3.083-10.917,1.5-6.517,0-4.15L66.35,0
			c-1.067-22-2.217-48.083-3.45-78.25c-0.767-18.867,0.483-33.25,3.75-43.15c1.633-4.967,3.35-8.05,5.15-9.25H6.3
			c1.2,2.533,2.3,7.083,3.3,13.65c2,13.167,2.533,29.867,1.6,50.1C10.267-46.7,8.117-30.183,4.75-17.35z"/>
	</g>
</symbol>
<symbol  id="FlashAICB_x2F_bg2_x5F_mudflat5_x2F__x3C_Path_x3E__x5F_1" viewBox="0 -156.1 142.75 156.1">
	<g id="Layer_1_3_">
		<linearGradient id="SVGID_4_" gradientUnits="userSpaceOnUse" x1="0" y1="-78.0498" x2="142.75" y2="-78.0498">
			<stop  offset="0" style="stop-color:#422811"/>
			<stop  offset="0.6196" style="stop-color:#5A422B"/>
			<stop  offset="1" style="stop-color:#2D1C0C"/>
		</linearGradient>
		<path style="fill-rule:evenodd;clip-rule:evenodd;fill:url(#SVGID_4_);" d="M142.75,0c-1.6-5.567-3.283-13.033-5.05-22.4
			c-3.534-18.667-5.684-37.434-6.45-56.3c-0.8-18.867,0.45-37.417,3.75-55.65c1.633-9.133,3.35-16.383,5.15-21.75L6.3-155.8
			c0.8,3.933,1.517,9.883,2.15,17.85c1.233,15.967,1.383,34.067,0.45,54.3C8-63.45,6.25-44.167,3.65-25.8
			C2.35-16.6,1.133-9.433,0-4.3L142.75,0z"/>
	</g>
</symbol>
<symbol  id="FlashAICB_x2F_bg2_x5F_mudflat5_x2F__x3C_Path_x3E__x5F_2" viewBox="0 -113.55 106.15 113.55">
	<g id="Layer_1_2_">
		<linearGradient id="SVGID_5_" gradientUnits="userSpaceOnUse" x1="0" y1="-56.7749" x2="106.1499" y2="-56.7749">
			<stop  offset="0" style="stop-color:#422811"/>
			<stop  offset="0.6196" style="stop-color:#5A422B"/>
			<stop  offset="1" style="stop-color:#2D1C0C"/>
		</linearGradient>
		<path style="fill-rule:evenodd;clip-rule:evenodd;fill:url(#SVGID_5_);" d="M106.15,0c-2.033-4.533-4.167-10.583-6.4-18.15
			c-4.467-15.2-7.183-30.45-8.15-45.75c-0.967-15.3-0.1-28.167,2.6-38.6c1.367-5.233,2.833-8.917,4.4-11.05L0-107.65
			c4.933,3.367,9.733,8.383,14.4,15.05c9.367,13.333,13.467,28.217,12.3,44.65c-1.2,16.4-3.917,28.7-8.15,36.9
			C16.417-6.95,14.4-4.5,12.5-3.7L106.15,0z"/>
	</g>
</symbol>
<symbol  id="FlashAICB_x2F_bg2_x5F_mudflat5_x2F__x3C_Path_x3E__x5F_53" viewBox="-0.009 -122.665 441.861 122.665">
	<g id="Layer_1_7_">
		
			<linearGradient id="SVGID_6_" gradientUnits="userSpaceOnUse" x1="-152.2974" y1="-15861.0137" x2="-29.4854" y2="-15861.0137" gradientTransform="matrix(8.138352e-006 -1 1 -0.001 16081.9355 -168.1211)">
			<stop  offset="0" style="stop-color:#422811"/>
			<stop  offset="1" style="stop-color:#4F3B28;stop-opacity:0"/>
		</linearGradient>
		<path style="fill-rule:evenodd;clip-rule:evenodd;fill:url(#SVGID_6_);" d="M430.5,0c-2.567-3-5.1-7.567-7.6-13.7
			c-5.033-12.267-7.45-26.2-7.25-41.8c0.2-16.467,4.684-30.55,13.45-42.25c2.233-2.967,5.2-6.283,8.9-9.95
			c2.633-2.6,3.917-4.2,3.85-4.8c-0.233-2.5-5.3-4.367-15.2-5.6c-9.6-1.2-21.767-1.583-36.5-1.15
			c-17.767,0.967-30.983,1.533-39.65,1.7c-14.733,0.233-29.633-0.9-44.7-3.4c-13.233-2.2-28.417-2.283-45.55-0.25
			c-14.167,1.667-22.033,2.583-23.6,2.75c-10.1,0.967-20.15,1.45-30.15,1.45c-21.633,0.233-35.083,0.283-40.35,0.15
			c-5.566-0.167-16.433-1.25-32.6-3.25c-13.433-1.667-27-1.15-40.7,1.55c-0.467,0.1-5.2,1.167-14.2,3.2
			c-4.867,1.1-8.633,1.684-11.3,1.75c-8.967,0.167-19.184-0.316-30.65-1.45c-1.267-0.067-5.917-0.5-13.95-1.3
			c-4.8-0.467-9.067-0.5-12.8-0.1c-6.833,0.7-10.15,3.4-9.95,8.1c0.133,3.533,2.467,8.9,7,16.1c5.7,8.433,9.75,14.683,12.15,18.75
			c4.133,7.067,5.934,12.45,5.4,16.15c-2,13.9-6.433,27.55-13.3,40.95c-3.433,6.7-6.667,12-9.7,15.9L430.5,0z"/>
	</g>
</symbol>
<g>
	<path style="fill-rule:evenodd;clip-rule:evenodd;fill:#4F3B28;" d="M446.85,15.55c-2.566,3-5.1,7.567-7.6,13.7
		c-5.033,12.267-7.45,26.2-7.25,41.8c0.2,16.467,4.684,30.55,13.45,42.25c2.233,2.967,5.2,6.283,8.899,9.95
		c2.634,2.6,3.917,4.2,3.851,4.8c-0.233,2.5-5.3,4.367-15.2,5.601c-9.6,1.199-21.767,1.583-36.5,1.149
		c-17.767-0.967-30.983-1.533-39.65-1.7c-14.733-0.233-29.633,0.9-44.699,3.4c-13.233,2.2-28.417,2.283-45.551,0.25
		c-14.166-1.667-22.033-2.583-23.6-2.75c-10.1-0.967-20.15-1.45-30.15-1.45c-21.633-0.233-35.083-0.283-40.35-0.149
		c-5.567,0.166-16.433,1.25-32.6,3.25c-13.433,1.666-27,1.149-40.7-1.551c-0.467-0.1-5.2-1.166-14.2-3.199
		c-4.867-1.101-8.633-1.684-11.3-1.75c-5.6-0.101-12.383,0.116-20.35,0.649l-10.3,0.8c-1.267,0.067-5.917,0.5-13.95,1.301
		c-4.8,0.466-9.067,0.5-12.8,0.1c-6.833-0.7-10.15-3.4-9.95-8.1c0.133-3.534,2.467-8.9,7-16.101c5.7-8.434,9.75-14.684,12.15-18.75
		c4.133-7.066,5.933-12.45,5.4-16.149c-2-13.9-6.433-27.55-13.3-40.95c-3.434-6.7-6.667-12-9.7-15.9L446.85,15.55z"/>
	
		<use xlink:href="#FlashAICB_x2F_bg2_x5F_mudflat5_x2F__x3C_Clip_Group_0_x3E_"  width="575.901" height="163.9" y="-163.9" transform="matrix(1 0 0 -1 -16 15.5498)" style="overflow:visible;"/>
	
		<use xlink:href="#FlashAICB_x2F_bg2_x5F_mudflat5_x2F__x3C_Path_x3E__x5F_53"  width="441.861" height="122.665" x="-0.009" y="-122.665" transform="matrix(1 0 0 -1 16.3501 15.5498)" style="overflow:visible;opacity:0.6016;enable-background:new    ;"/>
	<path style="fill-rule:evenodd;clip-rule:evenodd;fill:#4F3B28;" d="M437.3,25.3c-16.6,2.667-48.217,3.05-94.85,1.15
		c-50.4-2.034-83.4-2.983-99-2.85c-16.067,0.167-36.983,1.667-62.75,4.5c-12.934,1.433-29.567,2.4-49.9,2.9
		c-20.233,0.5-39.867,0.45-58.9-0.15c-20.566-0.667-36.733-1.883-48.5-3.65c-13.267-2.034-19.45-4.567-18.55-7.6
		c0.7-2.4,2-4.25,3.9-5.55c2.233-1.533,5.767-2.733,10.6-3.6C28.65,8.783,48,7.8,77.4,7.5c22.467-0.233,51.434-0.667,86.9-1.3
		c30.8-0.367,61.85-0.184,93.15,0.55c30.1,0.733,55.55,1.367,76.35,1.9C342.333,8.817,356.4,8.9,376,8.9
		c11.233,0,28.634-0.017,52.2-0.05c18.033,0.3,27.217,1.533,27.55,3.7c0.467,3.133-0.5,5.65-2.9,7.55
		C450.017,22.367,444.833,24.1,437.3,25.3z"/>
	<path style="fill-rule:evenodd;clip-rule:evenodd;fill:#684D38;" d="M439.75,21.75c1.833-0.033,5.667-0.05,11.5-0.05
		c-2.233,1.033-3.866,2.333-4.9,3.9c-1.033,1.5-2.983,2.883-5.85,4.15c-3.533,1.567-11.533,2.133-24,1.7
		c-15.533-0.867-26.95-1.5-34.25-1.9c-5.733-0.3-18.75-0.617-39.05-0.95c-20.601-0.3-38.834-0.867-54.7-1.7
		c-21.366-1.333-34.75-2.066-40.15-2.2c-6.666-0.133-14.816,0.6-24.45,2.2c-9.4,1.567-19.5,2.684-30.3,3.35
		c-3.6,0.233-11.633,0.55-24.1,0.95c-3.6,0.1-11.533,0.933-23.8,2.5c-12.333,1.533-23.184,2.45-32.55,2.75
		c-11.167,0.367-21.017,0.133-29.55-0.7c-4.233-0.4-11.55-1.45-21.95-3.15c-4.933-0.8-11.133-0.8-18.6,0
		c-7.867,0.8-14.933,0.8-21.2,0c-9.434-1.233-15.083-3.8-16.95-7.7c-0.6-1.2-0.783-2.467-0.55-3.8l0.55-1.65
		c3.434,4.733,12.967,6.95,28.6,6.65c0.933,0,6.817-0.467,17.65-1.4c6.6-0.567,13.667-0.367,21.2,0.6
		c9.367,1.2,18.733,1.684,28.1,1.45c9.233-0.267,16.55-1.167,21.95-2.7c3.5-1,11.25-1.2,23.25-0.6c15.267,0.767,28.233,0.767,38.9,0
		c9.8-0.7,20.05-1,30.75-0.9c7.5,0.034,14.583-0.483,21.25-1.55c7.867-1.267,17.634-1.65,29.3-1.15c6.667,0.3,16.801,0.9,30.4,1.8
		c1.6,0.067,15.55,0.25,41.85,0.55c19.934,0.233,34.167,0.85,42.7,1.85c9,1.067,15.884,1.2,20.65,0.4
		c7.666-1.333,14.05-2.067,19.149-2.2C431.566,21.95,437.95,21.783,439.75,21.75z"/>
	<path style="fill-rule:evenodd;clip-rule:evenodd;fill:#5C4532;" d="M440.5,27.5c3.233-1.4,4.833-1.717,4.8-0.95
		c-0.033,0.767-1.633,1.833-4.8,3.2c-3.533,1.567-11.533,2.133-24,1.7c-15.533-0.867-26.95-1.5-34.25-1.9
		c-5.733-0.3-18.75-0.617-39.05-0.95c-20.601-0.3-38.834-0.867-54.7-1.7c-21.366-1.333-34.75-2.066-40.15-2.2
		c-6.666-0.133-14.816,0.6-24.45,2.2c-9.4,1.567-19.5,2.684-30.3,3.35c-3.6,0.233-11.633,0.55-24.1,0.95
		c-3.6,0.1-11.533,0.933-23.8,2.5c-12.333,1.533-23.184,2.45-32.55,2.75c-11.167,0.367-21.017,0.133-29.55-0.7
		c-4.233-0.4-11.55-1.45-21.95-3.15c-4.933-0.8-11.133-0.8-18.6,0c-7.867,0.8-14.933,0.8-21.2,0c-6.533-1.2-9.833-2.1-9.9-2.7
		c-0.067-0.566,3.233-0.417,9.9,0.45c6.3,0.833,13.367,0.833,21.2,0c7.5-0.767,13.7-0.767,18.6,0c10.567,1.7,17.883,2.75,21.95,3.15
		c8.566,0.867,18.417,1.117,29.55,0.75c9.333-0.3,20.184-1.233,32.55-2.8c12.2-1.567,20.133-2.4,23.8-2.5
		c11.867-0.333,19.9-0.633,24.1-0.9c10.767-0.667,20.867-1.783,30.3-3.35c9.667-1.633,17.817-2.383,24.45-2.25
		c5.4,0.133,18.784,0.883,40.15,2.25c15.833,0.8,34.066,1.367,54.7,1.7c20.2,0.267,33.217,0.567,39.05,0.9
		c22.767,1.3,34.184,1.95,34.25,1.95C428.967,29.683,436.967,29.1,440.5,27.5z"/>
	<path style="fill-rule:evenodd;clip-rule:evenodd;fill:#684D38;" d="M128.2,23.15c0,1.367-3.217,2.55-9.65,3.55
		c-6.466,0.966-14.25,1.45-23.35,1.45c-9.1,0-16.883-0.483-23.35-1.45c-6.467-1-9.7-2.184-9.7-3.55s3.233-2.533,9.7-3.5
		c6.433-0.967,14.217-1.45,23.35-1.45s16.917,0.483,23.35,1.45C124.983,20.617,128.2,21.783,128.2,23.15z"/>
	<path style="fill-rule:evenodd;clip-rule:evenodd;fill:#4F3B28;" d="M124.35,21.45c0,1.1-2.583,2.05-7.75,2.85
		c-5.2,0.8-11.45,1.2-18.75,1.2c-7.267,0-13.5-0.4-18.7-1.2c-5.167-0.8-7.75-1.75-7.75-2.85c0-1.133,2.583-2.1,7.75-2.9
		c5.167-0.8,11.4-1.2,18.7-1.2c7.3,0,13.55,0.4,18.75,1.2C121.767,19.35,124.35,20.317,124.35,21.45z"/>
	<path style="fill-rule:evenodd;clip-rule:evenodd;fill:#684D38;" d="M216.95,21.6c0,0.566-1.184,1.05-3.55,1.45
		c-2.367,0.4-5.233,0.6-8.6,0.6s-6.233-0.2-8.6-0.6c-2.367-0.4-3.55-0.883-3.55-1.45c0-0.567,1.184-1.05,3.55-1.45
		s5.233-0.6,8.6-0.6s6.233,0.2,8.6,0.6S216.95,21.033,216.95,21.6z"/>
	<path style="fill-rule:evenodd;clip-rule:evenodd;fill:#684D38;" d="M291.55,17.85c0,0.333-0.7,0.633-2.1,0.9
		c-1.434,0.233-3.15,0.35-5.15,0.35c-2.033,0-3.75-0.117-5.149-0.35c-1.434-0.233-2.15-0.533-2.15-0.9
		c0-0.333,0.717-0.617,2.15-0.85c1.433-0.233,3.149-0.35,5.149-0.35s3.717,0.117,5.15,0.35
		C290.85,17.233,291.55,17.517,291.55,17.85z"/>
	<path style="fill-rule:evenodd;clip-rule:evenodd;fill:#684D38;" d="M23.35,22.05c1.066,0.167,1.6,0.383,1.6,0.65
		c0,0.267-0.534,0.483-1.6,0.65C22.283,23.517,21,23.6,19.5,23.6s-2.783-0.083-3.85-0.25c-1.066-0.167-1.6-0.383-1.6-0.65
		c0-0.267,0.534-0.483,1.6-0.65c1.067-0.2,2.35-0.3,3.85-0.3S22.283,21.85,23.35,22.05z"/>
	<path style="fill-rule:evenodd;clip-rule:evenodd;fill:#684D38;" d="M46.05,22.3c0,0.333-0.95,0.5-2.85,0.5
		c-1.9,0-2.85-0.167-2.85-0.5c0-0.3,0.95-0.45,2.85-0.45C45.1,21.85,46.05,22,46.05,22.3z"/>
	<path style="fill-rule:evenodd;clip-rule:evenodd;fill:#684D38;" d="M175.65,21.75c0,0.333-0.95,0.5-2.85,0.5
		c-1.9,0-2.85-0.167-2.85-0.5c0-0.3,0.95-0.45,2.85-0.45C174.7,21.3,175.65,21.45,175.65,21.75z"/>
	<path style="fill-rule:evenodd;clip-rule:evenodd;fill:#684D38;" d="M56.45,23.7c0,0.333-0.95,0.5-2.85,0.5s-2.85-0.167-2.85-0.5
		c0-0.133,0.283-0.25,0.85-0.35c0.566-0.1,1.233-0.15,2-0.15C55.5,23.2,56.45,23.367,56.45,23.7z"/>
	<path style="fill-rule:evenodd;clip-rule:evenodd;fill:#684D38;" d="M181.35,22.65c0,0.3-0.95,0.45-2.85,0.45s-2.85-0.15-2.85-0.45
		c0-0.333,0.95-0.5,2.85-0.5S181.35,22.317,181.35,22.65z"/>
	<path style="fill-rule:evenodd;clip-rule:evenodd;fill:#4F3B28;" d="M23.3,23.55c1.867,0,2.8,0.167,2.8,0.5
		c0,0.3-0.934,0.45-2.8,0.45c-1.9,0-2.85-0.15-2.85-0.45C20.45,23.717,21.4,23.55,23.3,23.55z"/>
	<path style="fill-rule:evenodd;clip-rule:evenodd;fill:#4F3B28;" d="M26.2,25.8c0,0.267-0.55,0.483-1.65,0.65
		c-1.133,0.167-2.483,0.25-4.05,0.25s-2.917-0.083-4.05-0.25c-1.1-0.167-1.65-0.383-1.65-0.65c0-0.233,0.55-0.45,1.65-0.65
		c1.133-0.167,2.483-0.25,4.05-0.25s2.917,0.083,4.05,0.25C25.65,25.35,26.2,25.567,26.2,25.8z"/>
	<path style="fill-rule:evenodd;clip-rule:evenodd;fill:#4F3B28;" d="M217.3,20.6c0,0.467-0.95,0.867-2.85,1.2
		c-1.867,0.333-4.15,0.5-6.85,0.5c-2.7,0-5-0.167-6.9-0.5c-1.9-0.333-2.85-0.733-2.85-1.2s0.95-0.85,2.85-1.15
		c1.9-0.333,4.2-0.5,6.9-0.5c2.667,0,4.95,0.167,6.85,0.5C216.35,19.75,217.3,20.133,217.3,20.6z"/>
	<path style="fill-rule:evenodd;clip-rule:evenodd;fill:#684D38;" d="M158.15,21.5c0,0.567-2.05,1.05-6.15,1.45
		c-4.1,0.4-9.067,0.6-14.9,0.6c-5.833,0-10.783-0.2-14.85-0.6c-4.133-0.4-6.2-0.883-6.2-1.45s2.067-1.05,6.2-1.45
		c4.067-0.4,9.017-0.6,14.85-0.6c5.833,0,10.8,0.2,14.9,0.6C156.1,20.45,158.15,20.933,158.15,21.5z"/>
	<path style="fill-rule:evenodd;clip-rule:evenodd;fill:#684D38;" d="M168.7,23.25c0,0.333-1.233,0.633-3.7,0.9
		c-2.467,0.233-5.45,0.35-8.95,0.35s-6.466-0.117-8.9-0.35c-2.467-0.267-3.7-0.566-3.7-0.9s1.233-0.633,3.7-0.9
		c2.434-0.233,5.4-0.35,8.9-0.35s6.483,0.117,8.95,0.35C167.467,22.617,168.7,22.917,168.7,23.25z"/>
	<path style="fill-rule:evenodd;clip-rule:evenodd;fill:#684D38;" d="M172.9,26c0,0.267-0.933,0.483-2.8,0.65
		c-1.867,0.2-4.1,0.3-6.7,0.3s-4.833-0.1-6.7-0.3c-1.833-0.167-2.75-0.383-2.75-0.65s0.917-0.483,2.75-0.65
		c1.867-0.2,4.1-0.3,6.7-0.3s4.833,0.1,6.7,0.3C171.967,25.517,172.9,25.733,172.9,26z"/>
	<path style="fill-rule:evenodd;clip-rule:evenodd;fill:#684D38;" d="M181.55,24.55c0,0.333-1.65,0.5-4.95,0.5
		c-3.3,0-4.95-0.167-4.95-0.5c0-0.3,1.65-0.45,4.95-0.45C179.9,24.1,181.55,24.25,181.55,24.55z"/>
	<path style="fill-rule:evenodd;clip-rule:evenodd;fill:#4F3B28;" d="M138.6,29.75c0,0.367-1.65,0.55-4.95,0.55
		c-3.267,0-4.9-0.183-4.9-0.55c0-0.133,0.483-0.267,1.45-0.4c0.966-0.1,2.117-0.15,3.45-0.15C136.95,29.2,138.6,29.383,138.6,29.75z
		"/>
	<path style="fill-rule:evenodd;clip-rule:evenodd;fill:#4F3B28;" d="M99.15,28.35c0,0.3-1.65,0.45-4.95,0.45
		c-3.267,0-4.9-0.15-4.9-0.45c0-0.333,1.633-0.5,4.9-0.5C97.5,27.85,99.15,28.017,99.15,28.35z"/>
	<path style="fill-rule:evenodd;clip-rule:evenodd;fill:#4F3B28;" d="M90.25,29.7c0,0.267-0.967,0.483-2.9,0.65
		c-1.9,0.167-4.233,0.25-7,0.25c-2.733,0-5.067-0.083-7-0.25c-1.934-0.167-2.9-0.383-2.9-0.65c0-0.233,0.966-0.45,2.9-0.65
		c1.933-0.167,4.267-0.25,7-0.25c2.767,0,5.1,0.083,7,0.25C89.283,29.25,90.25,29.467,90.25,29.7z"/>
	<path style="fill-rule:evenodd;clip-rule:evenodd;fill:#4F3B28;" d="M113.6,32.4c0,0.267-0.967,0.483-2.9,0.65
		c-1.934,0.167-4.267,0.25-7,0.25c-2.733,0-5.067-0.083-7-0.25c-1.934-0.167-2.9-0.383-2.9-0.65c0-0.233,0.967-0.45,2.9-0.65
		c1.933-0.167,4.267-0.25,7-0.25c2.733,0,5.066,0.083,7,0.25C112.633,31.95,113.6,32.167,113.6,32.4z"/>
	<path style="fill-rule:evenodd;clip-rule:evenodd;fill:#4F3B28;" d="M79.45,27.4c0,0.067-0.367,0.133-1.1,0.2
		c-0.767,0.066-1.684,0.1-2.75,0.1c-1.033,0-1.934-0.034-2.7-0.1c-0.733-0.067-1.1-0.133-1.1-0.2c0-0.233,1.267-0.35,3.8-0.35
		C78.167,27.05,79.45,27.167,79.45,27.4z"/>
	<path style="fill-rule:evenodd;clip-rule:evenodd;fill:#4F3B28;" d="M358.7,25c0,0.233-1.283,0.35-3.851,0.35
		c-2.533,0-3.8-0.117-3.8-0.35s1.267-0.35,3.8-0.35C357.417,24.65,358.7,24.767,358.7,25z"/>
	<path style="fill-rule:evenodd;clip-rule:evenodd;fill:#4F3B28;" d="M130.6,30.75c0,0.233-1.283,0.35-3.85,0.35
		c-2.533,0-3.8-0.117-3.8-0.35s1.267-0.35,3.8-0.35C129.317,30.4,130.6,30.517,130.6,30.75z"/>
	<path style="fill-rule:evenodd;clip-rule:evenodd;fill:#4F3B28;" d="M158.8,20.5c0,0.467-1.65,0.867-4.95,1.2
		c-3.267,0.333-7.233,0.5-11.9,0.5c-4.7,0-8.684-0.167-11.95-0.5c-3.3-0.333-4.95-0.733-4.95-1.2s1.65-0.867,4.95-1.2
		c3.267-0.333,7.25-0.5,11.95-0.5c4.667,0,8.633,0.167,11.9,0.5C157.15,19.633,158.8,20.033,158.8,20.5z"/>
	<path style="fill-rule:evenodd;clip-rule:evenodd;fill:#684D38;" d="M427.2,19.85c4.1,0.4,6.149,0.883,6.149,1.45
		c0,0.567-2.05,1.067-6.149,1.5c-4.134,0.4-9.101,0.6-14.9,0.6s-10.75-0.2-14.85-0.6c-4.101-0.433-6.15-0.933-6.15-1.5
		c0-0.566,2.05-1.05,6.15-1.45c4.133-0.4,9.083-0.6,14.85-0.6C418.1,19.25,423.066,19.45,427.2,19.85z"/>
	<path style="fill-rule:evenodd;clip-rule:evenodd;fill:#684D38;" d="M311.9,21.4c0,0.367-1.233,0.667-3.7,0.9
		c-2.467,0.233-5.45,0.35-8.95,0.35s-6.467-0.117-8.9-0.35c-2.466-0.267-3.699-0.566-3.699-0.9c0-0.333,1.233-0.617,3.699-0.85
		c2.467-0.233,5.434-0.35,8.9-0.35c3.5,0,6.483,0.117,8.95,0.35C310.667,20.783,311.9,21.067,311.9,21.4z"/>
	<path style="fill-rule:evenodd;clip-rule:evenodd;fill:#684D38;" d="M441.5,22.95c0,0.267-0.934,0.483-2.8,0.65
		c-1.867,0.2-4.101,0.3-6.7,0.3s-4.833-0.1-6.7-0.3c-1.866-0.167-2.8-0.383-2.8-0.65c0-0.267,0.934-0.483,2.8-0.65
		c1.867-0.2,4.101-0.3,6.7-0.3s4.833,0.1,6.7,0.3C440.566,22.467,441.5,22.683,441.5,22.95z"/>
	<path style="fill-rule:evenodd;clip-rule:evenodd;fill:#684D38;" d="M444,21.75c0,0.3-1.65,0.45-4.95,0.45
		c-3.267,0-4.899-0.15-4.899-0.45c0-0.333,1.633-0.5,4.899-0.5C442.35,21.25,444,21.417,444,21.75z"/>
	<path style="fill-rule:evenodd;clip-rule:evenodd;fill:#4F3B28;" d="M411.65,23.5c0,0.3-1.634,0.45-4.9,0.45
		c-3.3,0-4.95-0.15-4.95-0.45c0-0.333,1.65-0.5,4.95-0.5C410.017,23,411.65,23.167,411.65,23.5z"/>
	<path style="fill-rule:evenodd;clip-rule:evenodd;fill:#4F3B28;" d="M434.25,26c0,0.267-0.967,0.483-2.9,0.65
		c-1.933,0.167-4.267,0.25-7,0.25s-5.066-0.083-7-0.25c-1.933-0.167-2.899-0.383-2.899-0.65c0-0.233,0.967-0.45,2.899-0.65
		c1.934-0.167,4.267-0.25,7-0.25s5.067,0.083,7,0.25C433.283,25.55,434.25,25.767,434.25,26z"/>
	<path style="fill-rule:evenodd;clip-rule:evenodd;fill:#4F3B28;" d="M251.6,20.5c0,0.267-0.966,0.483-2.899,0.65
		c-1.9,0.167-4.233,0.25-7,0.25c-2.733,0-5.066-0.083-7-0.25c-1.934-0.167-2.9-0.383-2.9-0.65c0-0.233,0.967-0.45,2.9-0.65
		c1.934-0.167,4.267-0.25,7-0.25c2.767,0,5.1,0.083,7,0.25C250.634,20.05,251.6,20.267,251.6,20.5z"/>
	<path style="fill-rule:evenodd;clip-rule:evenodd;fill:#4F3B28;" d="M413.25,24.85c0,0.233-1.267,0.35-3.8,0.35
		c-2.566,0-3.851-0.117-3.851-0.35s1.284-0.35,3.851-0.35C411.983,24.5,413.25,24.617,413.25,24.85z"/>
	<path style="fill-rule:evenodd;clip-rule:evenodd;fill:#4F3B28;" d="M404.8,22.1c0,0.233-1.267,0.35-3.8,0.35
		c-2.566,0-3.85-0.117-3.85-0.35s1.283-0.35,3.85-0.35C403.533,21.75,404.8,21.867,404.8,22.1z"/>
	<path style="fill-rule:evenodd;clip-rule:evenodd;fill:#4F3B28;" d="M348.45,24.05c1.133,0,1.7,0.083,1.7,0.25
		c0,0.167-0.567,0.25-1.7,0.25c-1.101,0-1.65-0.083-1.65-0.25C346.8,24.133,347.35,24.05,348.45,24.05z"/>
	<path style="fill-rule:evenodd;clip-rule:evenodd;fill:#4F3B28;" d="M445.15,22.55c0,0.167-0.551,0.25-1.65,0.25
		c-1.134,0-1.7-0.083-1.7-0.25c0-0.167,0.566-0.25,1.7-0.25C444.6,22.3,445.15,22.383,445.15,22.55z"/>
	<path style="fill-rule:evenodd;clip-rule:evenodd;fill:#4F3B28;" d="M442.05,23.25c0,0.2-0.566,0.3-1.7,0.3
		c-1.1,0-1.649-0.1-1.649-0.3c0-0.167,0.55-0.25,1.649-0.25C441.483,23,442.05,23.083,442.05,23.25z"/>
	<path style="fill-rule:evenodd;clip-rule:evenodd;fill:#4F3B28;" d="M251.05,19c0,0.233-1.283,0.35-3.85,0.35
		s-3.851-0.117-3.851-0.35s1.284-0.35,3.851-0.35S251.05,18.767,251.05,19z"/>
	<path style="fill-rule:evenodd;clip-rule:evenodd;fill:#4F3B28;" d="M338.25,23.7c0,0.233-1.283,0.35-3.85,0.35
		c-2.534,0-3.801-0.117-3.801-0.35c0-0.233,1.267-0.35,3.801-0.35C336.967,23.35,338.25,23.467,338.25,23.7z"/>
	<path style="fill-rule:evenodd;clip-rule:evenodd;fill:#4F3B28;" d="M437.85,20c0,0.467-1.649,0.85-4.949,1.15
		c-3.301,0.333-7.267,0.5-11.9,0.5s-8.6-0.167-11.9-0.5c-3.3-0.3-4.949-0.683-4.949-1.15s1.649-0.867,4.949-1.2
		c3.267-0.333,7.233-0.5,11.9-0.5s8.634,0.167,11.9,0.5C436.2,19.133,437.85,19.533,437.85,20z"/>
	<path style="fill-rule:evenodd;clip-rule:evenodd;fill:#684D38;" d="M260.9,19.6c0,0.566-2.051,1.066-6.15,1.5
		c-4.134,0.4-9.1,0.6-14.9,0.6c-5.8,0-10.75-0.2-14.85-0.6c-4.133-0.434-6.2-0.934-6.2-1.5c0-0.567,2.067-1.05,6.2-1.45
		s9.083-0.6,14.85-0.6s10.733,0.2,14.9,0.6C258.85,18.55,260.9,19.033,260.9,19.6z"/>
	<path style="fill-rule:evenodd;clip-rule:evenodd;fill:#4F3B28;" d="M237.5,19.75c0,0.3-1.5,0.567-4.5,0.8
		c-3.033,0.233-6.633,0.35-10.8,0.35c-4.167,0-7.767-0.117-10.8-0.35c-3-0.233-4.5-0.5-4.5-0.8c0-0.333,1.5-0.6,4.5-0.8
		c2.967-0.233,6.567-0.35,10.8-0.35c4.233,0,7.833,0.117,10.8,0.35C236,19.15,237.5,19.417,237.5,19.75z"/>
	<path style="fill-rule:evenodd;clip-rule:evenodd;fill:#684D38;" d="M350.2,20.55c4.066-0.4,9.017-0.6,14.85-0.6
		c5.834,0,10.8,0.2,14.9,0.6c4.1,0.4,6.149,0.883,6.149,1.45s-2.05,1.05-6.149,1.45c-4.101,0.4-9.066,0.6-14.9,0.6
		c-5.833,0-10.783-0.2-14.85-0.6c-4.101-0.4-6.15-0.883-6.15-1.45S346.1,20.95,350.2,20.55z"/>
	<path style="fill-rule:evenodd;clip-rule:evenodd;fill:#684D38;" d="M82,21.75c0-0.333,1.233-0.633,3.7-0.9
		c2.466-0.233,5.45-0.35,8.95-0.35s6.467,0.117,8.9,0.35c2.467,0.267,3.7,0.566,3.7,0.9s-1.233,0.617-3.7,0.85
		c-2.466,0.233-5.433,0.35-8.9,0.35s-6.45-0.117-8.95-0.35C83.233,22.367,82,22.083,82,21.75z"/>
	<path style="fill-rule:evenodd;clip-rule:evenodd;fill:#684D38;" d="M106.1,17.65c2.566,0,4.8,0.1,6.7,0.3
		c1.833,0.167,2.75,0.383,2.75,0.65s-0.917,0.483-2.75,0.65c-1.867,0.167-4.1,0.25-6.7,0.25c-2.633,0-4.867-0.083-6.7-0.25
		c-1.867-0.167-2.8-0.383-2.8-0.65s0.933-0.483,2.8-0.65C101.267,17.75,103.5,17.65,106.1,17.65z"/>
	<path style="fill-rule:evenodd;clip-rule:evenodd;fill:#684D38;" d="M316.6,19.4c0-0.233,0.934-0.45,2.801-0.65
		c1.833-0.167,4.05-0.25,6.649-0.25c2.634,0,4.867,0.083,6.7,0.25c1.866,0.2,2.8,0.417,2.8,0.65c0,0.267-0.934,0.483-2.8,0.65
		c-1.866,0.2-4.1,0.3-6.7,0.3c-2.566,0-4.783-0.1-6.649-0.3C317.533,19.883,316.6,19.667,316.6,19.4z"/>
	<path style="fill-rule:evenodd;clip-rule:evenodd;fill:#684D38;" d="M119.6,19.35c0-0.333,1.65-0.5,4.95-0.5
		c3.267,0,4.9,0.167,4.9,0.5c0,0.3-1.633,0.45-4.9,0.45C121.25,19.8,119.6,19.65,119.6,19.35z"/>
	<path style="fill-rule:evenodd;clip-rule:evenodd;fill:#4F3B28;" d="M359.9,21.2c0-0.133,0.483-0.25,1.449-0.35
		c1-0.1,2.167-0.15,3.5-0.15c1.334,0,2.483,0.05,3.45,0.15s1.45,0.217,1.45,0.35c0,0.333-1.634,0.5-4.9,0.5
		C361.55,21.7,359.9,21.533,359.9,21.2z"/>
	<path style="fill-rule:evenodd;clip-rule:evenodd;fill:#4F3B28;" d="M359.7,22.55c0-0.233,0.967-0.433,2.899-0.6
		c1.967-0.167,4.301-0.25,7-0.25c2.733,0,5.067,0.083,7,0.25c1.934,0.167,2.9,0.367,2.9,0.6c0,0.267-0.967,0.483-2.9,0.65
		c-1.899,0.167-4.233,0.25-7,0.25c-2.733,0-5.066-0.083-7-0.25C360.667,23.033,359.7,22.817,359.7,22.55z"/>
	<path style="fill-rule:evenodd;clip-rule:evenodd;fill:#4F3B28;" d="M378.2,25.5c0-0.233,1.283-0.35,3.85-0.35
		c2.533,0,3.8,0.117,3.8,0.35s-1.267,0.35-3.8,0.35C379.483,25.85,378.2,25.733,378.2,25.5z"/>
	<path style="fill-rule:evenodd;clip-rule:evenodd;fill:#4F3B28;" d="M350.75,19.9c3.267-0.333,7.233-0.5,11.9-0.5
		c4.699,0,8.683,0.167,11.949,0.5c3.301,0.333,4.95,0.733,4.95,1.2s-1.649,0.85-4.95,1.15c-3.3,0.333-7.283,0.5-11.949,0.5
		c-4.634,0-8.601-0.167-11.9-0.5c-3.3-0.3-4.95-0.683-4.95-1.15S347.45,20.233,350.75,19.9z"/>
</g>
</svg>
