<?xml version="1.0" encoding="iso-8859-1"?>
<!-- Generator: Adobe Illustrator 15.1.0, SVG Export Plug-In . SVG Version: 6.00 Build 0)  -->
<!DOCTYPE svg PUBLIC "-//W3C//DTD SVG 1.1//EN" "http://www.w3.org/Graphics/SVG/1.1/DTD/svg11.dtd">
<svg version="1.1" id="bg2_x5F_mudflat1" xmlns="http://www.w3.org/2000/svg" xmlns:xlink="http://www.w3.org/1999/xlink" x="0px"
	 y="0px" width="1046px" height="145px" viewBox="0 0 1046 145" style="enable-background:new 0 0 1046 145;" xml:space="preserve">
<symbol  id="FlashAICB_x2F_bg2_x5F_mudflat1_x2F__x3C_Clip_Group_0_x3E_" viewBox="0 -158 1320.551 158">
	<g id="Layer_1_13_">
	</g>
	<g>
		<defs>
			<path id="SVGID_1_" d="M1084.7-110.65c-2.9,3.7-5.15,6.883-6.75,9.55c-6.867,11.4-10.55,25.283-11.05,41.65
				c-0.466,15.633-1.55,29.767-3.25,42.4c-0.833,6.3-1.633,11.05-2.4,14.25L77.65-3.3c-1.633-3.9-2.8-9.2-3.5-15.9
				c-1.4-13.4,0.184-27.05,4.75-40.95c1.133-3.434-0.316-8.817-4.35-16.15c-1.133-2.034-2.95-5.167-5.45-9.4
				c-2.167-3.767-3.733-6.883-4.7-9.35c-2.733-7-2.183-12.367,1.65-16.1c4.8-4.7,15.067-7.4,30.8-8.1
				c8.6-0.4,18.417-0.367,29.45,0.1c18.467,0.8,29.133,1.233,32,1.3l23.55,0.8c18.267,0.533,33.833,0.75,46.7,0.65
				c6.133-0.067,14.75-0.65,25.85-1.75c20.833-2.067,31.717-3.133,32.65-3.2c31.434-2.733,62.55-3.25,93.35-1.55
				c37.033,2,61.934,3.083,74.7,3.25c12.066,0.133,42.917,0.083,92.55-0.15c22.9,0,45.934-0.483,69.1-1.45
				c3.6-0.167,21.633-1.083,54.1-2.75c39.3-2.033,74.15-1.95,104.55,0.25c34.5,2.5,68.65,3.633,102.45,3.4
				c19.867-0.167,50.167-0.733,90.9-1.7c33.934-0.434,61.867-0.05,83.8,1.15c22.634,1.233,34.233,3.1,34.8,5.6
				C1087.517-114.633,1086.633-113.083,1084.7-110.65z"/>
		</defs>
		<clipPath id="SVGID_2_">
			<use xlink:href="#SVGID_1_"  style="overflow:visible;"/>
		</clipPath>
		<g id="Layer_3_1_" style="clip-path:url(#SVGID_2_);">
			
				<use xlink:href="#FlashAICB_x2F_bg2_x5F_mudflat1_x2F__x3C_Path_x3E__x5F_7"  width="216.35" height="132.85" y="-132.85" transform="matrix(1 0 0 1 80.5498 -2.75)" style="overflow:visible;opacity:0.8008;enable-background:new    ;"/>
			
				<use xlink:href="#FlashAICB_x2F_bg2_x5F_mudflat1_x2F__x3C_Path_x3E__x5F_6"  width="90.3" height="156.1" y="-156.1" transform="matrix(1 0 0 1 370.3501 0)" style="overflow:visible;opacity:0.8008;enable-background:new    ;"/>
			
				<use xlink:href="#FlashAICB_x2F_bg2_x5F_mudflat1_x2F__x3C_Path_x3E__x5F_5"  width="90.35" height="156.05" y="-156.05" transform="matrix(1 0 0 1 402.1499 -1.9502)" style="overflow:visible;opacity:0.8008;enable-background:new    ;"/>
			
				<use xlink:href="#FlashAICB_x2F_bg2_x5F_mudflat1_x2F__x3C_Path_x3E__x5F_4"  width="164.7" height="130.7" y="-130.7" transform="matrix(1 0 0 1 188.2998 -3.6499)" style="overflow:visible;opacity:0.8008;enable-background:new    ;"/>
			
				<use xlink:href="#FlashAICB_x2F_bg2_x5F_mudflat1_x2F__x3C_Path_x3E__x5F_3"  width="164.7" height="130.7" y="-130.7" transform="matrix(1 0 0 1 540.0996 -7.5)" style="overflow:visible;opacity:0.8008;enable-background:new    ;"/>
			
				<use xlink:href="#FlashAICB_x2F_bg2_x5F_mudflat1_x2F__x3C_Path_x3E__x5F_2"  width="94.5" height="129.3" y="-129.3" transform="matrix(1 0 0 1 791.9502 -5.0498)" style="overflow:visible;opacity:0.8008;enable-background:new    ;"/>
			
				<use xlink:href="#FlashAICB_x2F_bg2_x5F_mudflat1_x2F__x3C_Path_x3E__x5F_1"  width="106.35" height="130.7" y="-130.7" transform="matrix(1 0 0 1 636.75 -3.6499)" style="overflow:visible;opacity:0.8008;enable-background:new    ;"/>
			
				<use xlink:href="#FlashAICB_x2F_bg2_x5F_mudflat1_x2F__x3C_Path_x3E_"  width="120.5" height="130.7" y="-130.7" transform="matrix(1 0 0 1 943.2998 -1.7002)" style="overflow:visible;opacity:0.8008;enable-background:new    ;"/>
			<g>
				<g>
					
						<use xlink:href="#FlashAICB_x2F_bg2_x5F_mudflat1_x2F__x3C_Group_x3E__x5F_1"  width="1320.551" height="89.95" y="-89.95" transform="matrix(1 0 0 1 0 -43.7998)" style="overflow:visible;opacity:0.3008;enable-background:new    ;"/>
					
						<use xlink:href="#FlashAICB_x2F_bg2_x5F_mudflat1_x2F__x3C_Group_x3E_"  width="1215.95" height="81.3" y="-81.3" transform="matrix(1 0 0 1 45.7002 -27.4502)" style="overflow:visible;opacity:0.3008;enable-background:new    ;"/>
				</g>
			</g>
		</g>
	</g>
	<g id="Layer_4_1_">
	</g>
</symbol>
<symbol  id="FlashAICB_x2F_bg2_x5F_mudflat1_x2F__x3C_Group_x3E_" viewBox="0 -81.3 1215.95 81.3">
	<g id="Layer_1_11_">
		<g>
			<path style="fill-rule:evenodd;clip-rule:evenodd;fill:#583818;" d="M1207.05-26.5l-0.3-1.3c-1.5-0.1-3.95-0.317-7.35-0.65
				c-39.6-3.833-66.983-6.183-82.15-7.05c-32.167-1.9-69.117-2.433-110.85-1.6c-35.066,0.7-75.733,2.8-122,6.3
				c-45.867,3.466-75.6,5.316-89.2,5.55c-45.434,0.833-75.55,1.533-90.35,2.1c-40.4,1.467-78.267,3.967-113.6,7.5
				c-20.934,2.1-37.55,3.5-49.85,4.2c-13.066,0.733-27.017,1-41.85,0.8c-11.066-0.167-29.917-0.733-56.55-1.7
				c-40.133-1.5-71.433-2.6-93.9-3.3c-57.6-1.8-122.45-3.05-194.55-3.75C77.117-20.133,29.867-20.717,12.8-21.15
				C9.4-17.183,5.133-13.283,0-9.45c1.4,0.067,2.483,0.133,3.25,0.2c31.9,2.3,85.2,3.717,159.9,4.25
				C261.283-4.333,313.567-3.917,320-3.75c13.133,0.3,31.05,0.9,53.75,1.8c25.733,1,43.5,1.65,53.3,1.95l88.3-0.35
				c9.3-0.433,18.833-1.117,28.6-2.05c24.966-2.4,51.517-3.55,79.65-3.45c40.133,0.2,78.517-0.483,115.15-2.05
				c40-1.7,88.633-1.7,145.9,0c24.333,0.733,41.167,1.083,50.5,1.05c15.434-0.066,27.65-0.867,36.65-2.4
				c20.2-3.467,47.583-5.467,82.15-6c35.066-0.533,70.2,0.55,105.4,3.25c19.7,1.533,38.566,1.9,56.6,1.1
				C1211.283-16.167,1208.316-21.367,1207.05-26.5z"/>
			<path style="fill-rule:evenodd;clip-rule:evenodd;fill:#583818;" d="M1033.5-58.85c1.934-7.633,5.316-14.35,10.15-20.15
				c-11.367-1-22.2-1.767-32.5-2.3h-128.7c-20.167,0.9-48.067,2.716-83.7,5.45c-30.1,2.333-51.717,3.583-64.85,3.75
				c-40.933,0.533-68.35,1.033-82.25,1.5c-36.8,1.2-71.383,3.45-103.75,6.75c-19.133,1.967-34.316,3.25-45.55,3.85
				c-11.9,0.633-24.6,0.817-38.1,0.55c-10.1-0.233-27.217-0.917-51.35-2.05c-36.2-1.733-64.617-3.033-85.25-3.9
				c-53.7-2.233-115.8-3.95-186.3-5.15c-68.567-1.133-112.9-2.15-133-3.05L5.6-73.7c3.433,3.833,6.05,8.017,7.85,12.55
				c29,2.467,77.35,4.2,145.05,5.2c88.967,1.3,136.3,2.05,142,2.25c11.767,0.4,28.033,1.117,48.8,2.15
				c22.867,1.167,39,1.933,48.4,2.3L478.05-49c9.467-0.5,18.167-1.133,26.1-1.9c22.867-2.267,47.083-3.233,72.65-2.9
				c36.534,0.433,71.483,0,104.85-1.3c36.467-1.433,80.7-1.117,132.7,0.95c22.1,0.867,37.383,1.3,45.85,1.3
				c14.066,0.033,25.233-0.683,33.5-2.15c15.466-2.767,35.8-4.483,61-5.15C979.934-60.85,1006.2-60.417,1033.5-58.85z"/>
		</g>
	</g>
</symbol>
<symbol  id="FlashAICB_x2F_bg2_x5F_mudflat1_x2F__x3C_Group_x3E__x5F_1" viewBox="0 -89.95 1320.551 89.95">
	<g id="Layer_1_10_">
		<g>
			<path style="fill-rule:evenodd;clip-rule:evenodd;fill:#57412A;" d="M1308.8-56.75v-0.1c-0.333-1.833,1.534-7.417,5.6-16.75
				c4.167-9.533,6.217-14.983,6.15-16.35c-31.1,1.3-53.883,2.217-68.35,2.75c-20.6,0.733-66.5,1.45-137.7,2.15
				c-72.833,0.733-137.167,2.05-193,3.95c-33.033,1.133-63.184,3.217-90.45,6.25c-14.866,1.633-34.116,4.317-57.75,8.05
				c-19.233,3.033-33.9,4.867-44,5.5c-15.167,0.966-31.5,0.5-49-1.4c-33.267-3.633-68.883-6.216-106.85-7.75
				c-14.3-0.566-42.65-1.267-85.05-2.1c-12.8-0.233-40.783-2.133-83.95-5.7c-43.534-3.6-81.8-5.75-114.8-6.45
				c-39.367-0.833-74.133-0.3-104.3,1.6c-14.7,0.934-40.467,3.367-77.3,7.3c-15.9,1.7-32.85,2.033-50.85,1
				c-10.067-0.667-17.733-1.167-23-1.5c-9.367-0.6-17.784-0.95-25.25-1.05C8.683-71.817,7.517-66.2,5.45-60.5
				c2.033-0.2,3.117-0.3,3.25-0.3c10.533-0.934,21.283-1.167,32.25-0.7c5.167,0.2,14.9,0.917,29.2,2.15
				c26.667,2.267,51.867,2.4,75.6,0.4c33.1-2.767,66.15-3.883,99.15-3.35c32.5,0.566,58.267,2.617,77.3,6.15
				c8.466,1.566,19.966,2.383,34.5,2.45c8.8,0.034,24.65-0.316,47.55-1.05c53.867-1.733,99.633-1.733,137.3,0
				c34.367,1.6,70.483,2.3,108.35,2.1c26.434-0.133,51.417,1.05,74.95,3.55c8.867,0.9,17.85,1.6,26.95,2.1l83.1,0.3
				c9.333-0.3,26.05-0.966,50.15-2c21.367-0.9,38.217-1.5,50.55-1.8c6.066-0.167,55.283-0.6,147.65-1.3
				c70.3-0.534,120.467-1.983,150.5-4.35c20.233-1.6,36.283-2.367,48.15-2.3C1290.733-58.417,1299.7-57.85,1308.8-56.75z"/>
			<path style="fill-rule:evenodd;clip-rule:evenodd;fill:#57412A;" d="M1310.85-12.45c1.7-5.933,3.983-11.55,6.85-16.85
				c-10.634,0.433-26.317,1.117-47.05,2.05c-21.1,0.967-36.417,1.65-45.95,2.05c-21.867,0.9-70.467,1.95-145.8,3.15
				c-77.2,1.2-145.316,2.95-204.35,5.25c-79.7,3.633-129.616,5.667-149.75,6.1c-14.767,0.3-28.683,0.117-41.75-0.55
				c-12.366-0.633-29.033-1.95-50-3.95c-35.533-3.433-73.433-5.767-113.7-7c-16.5-0.5-46.583-0.983-90.25-1.45
				c-13.533-0.167-43.3-1.883-89.3-5.15c-46.333-3.3-87.017-5.184-122.05-5.65c-41.7-0.566-78.517,0.217-110.45,2.35
				c-15.133,1.033-42.3,3.633-81.5,7.8C17.333-23.367,8.733-22.783,0-22.55c3.133,5.3,5.467,10.716,7,16.25
				c19.333,0.833,39.217,0.367,59.65-1.4c34.934-3.033,69.9-4.383,104.9-4.05c34.5,0.333,61.934,2.217,82.3,5.65
				c9.066,1.5,21.3,2.233,36.7,2.2c9.333-0.033,26.117-0.5,50.35-1.4c57-2.1,105.5-2.417,145.5-0.95
				c36.467,1.333,74.8,1.783,115,1.35c27.967-0.333,54.517,0.667,79.65,3c8.667,0.767,18.2,1.4,28.6,1.9l88.1-0.25
				c9.867-0.367,27.55-1.15,53.05-2.35c22.6-1.066,40.434-1.8,53.5-2.2c6.233-0.2,58.367-0.983,156.4-2.35
				c74.5-1.033,127.6-2.833,159.3-5.4c25.1-2.034,44.5-2.883,58.2-2.55C1284.767-14.967,1295.65-14.083,1310.85-12.45z"/>
		</g>
	</g>
</symbol>
<symbol  id="FlashAICB_x2F_bg2_x5F_mudflat1_x2F__x3C_Path_x3E_" viewBox="0 -130.7 120.5 130.7">
	<g id="Layer_1_9_">
		<linearGradient id="SVGID_3_" gradientUnits="userSpaceOnUse" x1="0" y1="-65.3501" x2="120.5" y2="-65.3501">
			<stop  offset="0" style="stop-color:#422811"/>
			<stop  offset="0.6196" style="stop-color:#5A422B"/>
			<stop  offset="1" style="stop-color:#2D1C0C"/>
		</linearGradient>
		<path style="fill-rule:evenodd;clip-rule:evenodd;fill:url(#SVGID_3_);" d="M93.75,0c-1.133-4.967-1.983-11.783-2.55-20.45
			c-1.167-17.4-0.4-35.466,2.3-54.2c2.433-16.567,7.667-30.533,15.7-41.9c4-5.7,7.767-9.733,11.3-12.1l-106-2.05
			c2.733,2.534,5.233,7.083,7.5,13.65c4.567,13.167,5.783,29.867,3.65,50.1C23.517-46.75,18.6-30.233,10.9-17.4
			C7.067-10.967,3.433-6.567,0-4.2L93.75,0z"/>
	</g>
</symbol>
<symbol  id="FlashAICB_x2F_bg2_x5F_mudflat1_x2F__x3C_Path_x3E__x5F_1" viewBox="0 -130.7 106.35 130.7">
	<g id="Layer_1_8_">
		<linearGradient id="SVGID_4_" gradientUnits="userSpaceOnUse" x1="0" y1="-65.3501" x2="106.3501" y2="-65.3501">
			<stop  offset="0" style="stop-color:#422811"/>
			<stop  offset="0.6196" style="stop-color:#5A422B"/>
			<stop  offset="1" style="stop-color:#2D1C0C"/>
		</linearGradient>
		<path style="fill-rule:evenodd;clip-rule:evenodd;fill:url(#SVGID_4_);" d="M93.8,0c-2.466-22-5.117-48.083-7.95-78.25
			c-1.767-18.867,1.117-33.267,8.65-43.2c3.767-4.966,7.717-8.05,11.85-9.25h-91.8c2.7,2.534,5.2,7.1,7.5,13.7
			c4.567,13.167,5.784,29.85,3.65,50.05c-2.133,20.233-7.05,36.767-14.75,49.6C7.083-10.917,3.433-6.517,0-4.15L93.8,0z"/>
	</g>
</symbol>
<symbol  id="FlashAICB_x2F_bg2_x5F_mudflat1_x2F__x3C_Path_x3E__x5F_147" viewBox="0.043 -122.665 1024.677 122.665">
	<g id="Layer_1_12_">
		
			<linearGradient id="SVGID_5_" gradientUnits="userSpaceOnUse" x1="-442.8306" y1="-15275.5527" x2="-319.9556" y2="-15275.5527" gradientTransform="matrix(8.138352e-006 -1 1 -0.001 15787.9375 -458.1191)">
			<stop  offset="0" style="stop-color:#422811"/>
			<stop  offset="1" style="stop-color:#4F3B28;stop-opacity:0"/>
		</linearGradient>
		<path style="fill-rule:evenodd;clip-rule:evenodd;fill:url(#SVGID_5_);" d="M998.6,0c0.767-3.2,1.566-7.95,2.4-14.25
			c1.7-12.633,2.783-26.767,3.25-42.4c0.5-16.367,4.184-30.25,11.05-41.65c1.6-2.667,3.85-5.85,6.75-9.55
			c1.934-2.433,2.817-3.983,2.65-4.65c-0.567-2.5-12.167-4.367-34.8-5.6c-21.933-1.2-49.867-1.583-83.8-1.15
			c-40.733,0.967-71.034,1.533-90.9,1.7c-33.8,0.233-67.95-0.9-102.45-3.4c-30.4-2.2-65.25-2.283-104.55-0.25
			c-32.467,1.667-50.5,2.583-54.1,2.75c-23.167,0.967-46.2,1.45-69.1,1.45c-49.633,0.233-80.483,0.283-92.55,0.15
			c-12.767-0.167-37.667-1.25-74.7-3.25c-30.8-1.7-61.917-1.183-93.35,1.55c-0.933,0.066-11.816,1.133-32.65,3.2
			c-11.1,1.1-19.717,1.684-25.85,1.75c-12.867,0.1-28.433-0.117-46.7-0.65l-23.55-0.8c-2.867-0.067-13.533-0.5-32-1.3
			c-11.033-0.467-20.85-0.5-29.45-0.1c-15.733,0.7-26,3.4-30.8,8.1c-3.833,3.733-4.383,9.1-1.65,16.1
			c0.967,2.467,2.533,5.583,4.7,9.35c2.5,4.233,4.316,7.367,5.45,9.4c4.033,7.333,5.483,12.717,4.35,16.15
			C11.683-43.45,10.1-29.8,11.5-16.4c0.7,6.7,1.867,12,3.5,15.9L998.6,0z"/>
	</g>
</symbol>
<symbol  id="FlashAICB_x2F_bg2_x5F_mudflat1_x2F__x3C_Path_x3E__x5F_2" viewBox="0 -129.3 94.5 129.3">
	<g id="Layer_1_7_">
		<linearGradient id="SVGID_6_" gradientUnits="userSpaceOnUse" x1="0" y1="-64.6499" x2="94.5" y2="-64.6499">
			<stop  offset="0" style="stop-color:#422811"/>
			<stop  offset="0.6196" style="stop-color:#5A422B"/>
			<stop  offset="1" style="stop-color:#2D1C0C"/>
		</linearGradient>
		<path style="fill-rule:evenodd;clip-rule:evenodd;fill:url(#SVGID_6_);" d="M92.6,0c0.066-1.467-0.05-4.8-0.35-10
			c-0.567-10.433-1.733-25.083-3.5-43.95c-1.8-18.867-1.383-36.083,1.25-51.65c1.333-7.8,2.833-13.717,4.5-17.75l-80-5.95
			c2.733,2.533,5.233,7.1,7.5,13.7c4.6,13.167,5.833,29.867,3.7,50.1c-2.133,20.2-7.067,36.717-14.8,49.55
			C7.067-9.517,3.433-5.117,0-2.75L92.6,0z"/>
	</g>
</symbol>
<symbol  id="FlashAICB_x2F_bg2_x5F_mudflat1_x2F__x3C_Path_x3E__x5F_3" viewBox="0 -130.7 164.7 130.7">
	<g id="Layer_1_6_">
		<linearGradient id="SVGID_7_" gradientUnits="userSpaceOnUse" x1="0" y1="-65.3501" x2="164.7002" y2="-65.3501">
			<stop  offset="0" style="stop-color:#422811"/>
			<stop  offset="0.6196" style="stop-color:#5A422B"/>
			<stop  offset="1" style="stop-color:#2D1C0C"/>
		</linearGradient>
		<path style="fill-rule:evenodd;clip-rule:evenodd;fill:url(#SVGID_7_);" d="M152.2,0c-1.467-1.667-2.8-5.233-4-10.7
			c-2.367-10.9-2.817-25.783-1.35-44.65c1.6-20.9,5.05-39.733,10.35-56.5c2.667-8.367,5.167-14.65,7.5-18.85H14.5
			c2.733,2.534,5.233,7.1,7.5,13.7c4.567,13.167,5.783,29.867,3.65,50.1C23.517-46.7,18.6-30.183,10.9-17.35
			C7.067-10.917,3.433-6.517,0-4.15L152.2,0z"/>
	</g>
</symbol>
<symbol  id="FlashAICB_x2F_bg2_x5F_mudflat1_x2F__x3C_Path_x3E__x5F_4" viewBox="0 -130.7 164.7 130.7">
	<g id="Layer_1_5_">
		<linearGradient id="SVGID_8_" gradientUnits="userSpaceOnUse" x1="0" y1="-65.3501" x2="164.7002" y2="-65.3501">
			<stop  offset="0" style="stop-color:#422811"/>
			<stop  offset="0.6196" style="stop-color:#5A422B"/>
			<stop  offset="1" style="stop-color:#2D1C0C"/>
		</linearGradient>
		<path style="fill-rule:evenodd;clip-rule:evenodd;fill:url(#SVGID_8_);" d="M152.2,0c-2.467-22-5.133-48.083-8-78.25
			c-1.767-18.867,1.117-33.267,8.65-43.2c3.767-4.966,7.717-8.05,11.85-9.25H14.5c2.733,2.534,5.233,7.1,7.5,13.7
			c4.567,13.167,5.783,29.867,3.65,50.1C23.517-46.7,18.6-30.183,10.9-17.35C7.067-10.917,3.433-6.517,0-4.15L152.2,0z"/>
	</g>
</symbol>
<symbol  id="FlashAICB_x2F_bg2_x5F_mudflat1_x2F__x3C_Path_x3E__x5F_5" viewBox="0 -156.05 90.35 156.05">
	<g id="Layer_1_4_">
		<linearGradient id="SVGID_9_" gradientUnits="userSpaceOnUse" x1="0" y1="-78.0249" x2="90.3501" y2="-78.0249">
			<stop  offset="0" style="stop-color:#422811"/>
			<stop  offset="0.6196" style="stop-color:#5A422B"/>
			<stop  offset="1" style="stop-color:#2D1C0C"/>
		</linearGradient>
		<path style="fill-rule:evenodd;clip-rule:evenodd;fill:url(#SVGID_9_);" d="M90.35,0c-1.033-5.567-2.1-13.033-3.2-22.4
			c-2.267-18.667-3.633-37.434-4.1-56.3c-0.5-18.867,0.3-37.417,2.4-55.65c1.033-9.133,2.117-16.367,3.25-21.7L4-155.75
			c0.5,3.933,0.95,9.883,1.35,17.85c0.8,15.967,0.9,34.05,0.3,54.25C5.083-63.417,3.967-44.117,2.3-25.75
			C1.467-16.583,0.7-9.433,0-4.3L90.35,0z"/>
	</g>
</symbol>
<symbol  id="FlashAICB_x2F_bg2_x5F_mudflat1_x2F__x3C_Path_x3E__x5F_6" viewBox="0 -156.1 90.3 156.1">
	<g id="Layer_1_3_">
		<linearGradient id="SVGID_10_" gradientUnits="userSpaceOnUse" x1="0" y1="-78.0498" x2="90.2998" y2="-78.0498">
			<stop  offset="0" style="stop-color:#422811"/>
			<stop  offset="0.6196" style="stop-color:#5A422B"/>
			<stop  offset="1" style="stop-color:#2D1C0C"/>
		</linearGradient>
		<path style="fill-rule:evenodd;clip-rule:evenodd;fill:url(#SVGID_10_);" d="M90.3,0c-1-5.567-2.066-13.033-3.2-22.4
			c-2.233-18.667-3.6-37.434-4.1-56.3c-0.467-18.867,0.333-37.417,2.4-55.65c1.033-9.133,2.117-16.383,3.25-21.75L4-155.8
			c0.5,3.933,0.95,9.883,1.35,17.85c0.8,15.967,0.9,34.067,0.3,54.3C5.083-63.45,3.967-44.167,2.3-25.8C1.467-16.6,0.7-9.433,0-4.3
			L90.3,0z"/>
	</g>
</symbol>
<symbol  id="FlashAICB_x2F_bg2_x5F_mudflat1_x2F__x3C_Path_x3E__x5F_7" viewBox="0 -132.85 216.35 132.85">
	<g id="Layer_1_2_">
		<linearGradient id="SVGID_11_" gradientUnits="userSpaceOnUse" x1="0" y1="-66.4248" x2="216.3501" y2="-66.4248">
			<stop  offset="0" style="stop-color:#422811"/>
			<stop  offset="0.6196" style="stop-color:#5A422B"/>
			<stop  offset="1" style="stop-color:#2D1C0C"/>
		</linearGradient>
		<path style="fill-rule:evenodd;clip-rule:evenodd;fill:url(#SVGID_11_);" d="M216.35,0c-4.133-5.3-8.467-12.383-13-21.25
			c-9.067-17.767-14.6-35.6-16.6-53.5c-1.967-17.933-0.183-33,5.35-45.2c2.767-6.1,5.733-10.4,8.9-12.9l-201,6.9
			c10.033,3.934,19.817,9.8,29.35,17.6c19.066,15.6,27.417,33,25.05,52.2c-2.4,19.2-7.95,33.6-16.65,43.2
			c-4.333,4.767-8.433,7.633-12.3,8.6L216.35,0z"/>
	</g>
</symbol>
<g>
	<path style="fill-rule:evenodd;clip-rule:evenodd;fill:#4F3B28;" d="M1010.25,17.55c0.767,3.2,1.566,7.95,2.4,14.25
		c1.699,12.633,2.783,26.767,3.25,42.4c0.5,16.366,4.183,30.25,11.05,41.649c1.6,2.667,3.85,5.851,6.75,9.551
		c1.933,2.433,2.816,3.983,2.649,4.649c-0.566,2.5-12.166,4.367-34.8,5.601c-21.933,1.199-49.866,1.583-83.8,1.149
		c-40.733-0.967-71.033-1.533-90.9-1.7c-33.8-0.233-67.949,0.9-102.449,3.4c-30.4,2.2-65.25,2.283-104.551,0.25
		c-32.466-1.667-50.5-2.583-54.1-2.75c-23.167-0.967-46.2-1.45-69.1-1.45c-49.633-0.233-80.483-0.283-92.55-0.149
		c-12.767,0.166-37.667,1.25-74.7,3.25c-30.8,1.699-61.917,1.183-93.35-1.551c-0.933-0.066-11.816-1.133-32.65-3.199
		c-11.1-1.101-19.717-1.684-25.85-1.75c-12.867-0.101-28.433,0.116-46.7,0.649l-23.55,0.8c-2.867,0.067-13.533,0.5-32,1.301
		c-11.033,0.466-20.85,0.5-29.45,0.1c-15.733-0.7-26-3.4-30.8-8.1c-3.833-3.733-4.383-9.101-1.65-16.101
		c0.967-2.467,2.533-5.583,4.7-9.35c2.5-4.233,4.316-7.367,5.45-9.4c4.034-7.333,5.483-12.717,4.35-16.149
		c-4.566-13.9-6.15-27.55-4.75-40.95c0.7-6.7,1.867-12,3.5-15.9L1010.25,17.55z"/>
	
		<use xlink:href="#FlashAICB_x2F_bg2_x5F_mudflat1_x2F__x3C_Clip_Group_0_x3E_"  width="1320.551" height="158" y="-158" transform="matrix(1 0 0 -1 -51 14.75)" style="overflow:visible;"/>
	
		<use xlink:href="#FlashAICB_x2F_bg2_x5F_mudflat1_x2F__x3C_Path_x3E__x5F_147"  width="1024.677" height="122.665" x="0.043" y="-122.665" transform="matrix(1 0 0 -1 11.6499 17.5498)" style="overflow:visible;opacity:0.8008;enable-background:new    ;"/>
	<path style="fill-rule:evenodd;clip-rule:evenodd;fill:#4F3B28;" d="M1036.45,13.55c0.467,3.167-0.5,5.7-2.9,7.6
		c-2.833,2.267-8.017,4-15.55,5.2c-16.6,2.633-48.217,3-94.85,1.1c-27.034-1.067-45.9-1.784-56.601-2.15
		c-15.467-0.5-27.95-0.733-37.45-0.7c-10.566,3.1-31.55,4.433-62.949,4l-4.75,0.55c-22.9,2.533-52.601,3.583-89.101,3.15
		c-38.533-0.466-64.684-2.517-78.45-6.15c-8.633,0.733-18.433,1.733-29.399,3c-19.867,2.167-45.9,3.233-78.1,3.2
		c-33.467-0.067-59.3-1.367-77.5-3.9c-17.3,0.533-40.2,0.2-68.7-1c-50.4-2.034-83.383-2.967-98.95-2.8
		c-16.067,0.133-36.983,1.633-62.75,4.5c-12.934,1.434-29.567,2.4-49.9,2.9c-20.233,0.5-39.867,0.434-58.9-0.2
		C23.183,30.35,0.833,26.6,2.6,20.6c0.7-2.4,2-4.25,3.9-5.55c2.2-1.533,5.717-2.733,10.55-3.6C26.383,9.783,45.733,8.8,75.1,8.5
		c22.467-0.233,51.433-0.667,86.9-1.3c30.833-0.367,61.9-0.184,93.2,0.55c31.3,0.733,97.45,0.783,198.45,0.15
		c101-0.667,163.517-0.717,187.55-0.15c3.267,0.1,28.267-0.083,75-0.55c52-0.333,92.649-0.15,121.95,0.55
		c30.1,0.733,55.55,1.367,76.35,1.9c8.5,0.167,22.55,0.25,42.15,0.25c11.233,0,28.649-0.017,52.25-0.05
		C1026.934,10.15,1036.117,11.383,1036.45,13.55z"/>
	<path style="fill-rule:evenodd;clip-rule:evenodd;fill:#684D38;" d="M437.5,22.75c1.833-0.033,5.65-0.05,11.45-0.05
		c-2.267,1.066-3.9,2.367-4.9,3.9c-1,1.5-2.933,2.883-5.8,4.15c-3.533,1.567-11.533,2.15-24,1.75
		c-0.567-0.033-11.983-0.683-34.25-1.95c-5.767-0.3-18.783-0.617-39.05-0.95c-20.6-0.3-38.833-0.867-54.7-1.7
		c-21.367-1.333-34.75-2.066-40.15-2.2c-6.667-0.133-14.817,0.6-24.45,2.2c-9.467,1.567-19.566,2.684-30.3,3.35
		c-4.533,0.3-12.567,0.617-24.1,0.95c-3.6,0.1-11.533,0.933-23.8,2.5c-12.333,1.533-23.184,2.45-32.55,2.75
		c-11.133,0.367-20.983,0.133-29.55-0.7c-4.167-0.4-11.483-1.45-21.95-3.15c-4.933-0.8-11.133-0.8-18.6,0
		c-7.867,0.8-14.933,0.8-21.2,0c-9.434-1.233-15.083-3.8-16.95-7.7c-0.6-1.2-0.783-2.467-0.55-3.8l0.55-1.65
		c3.434,4.733,12.967,6.95,28.6,6.65c0.933,0,6.817-0.467,17.65-1.4c6.6-0.567,13.667-0.367,21.2,0.6
		c9.367,1.2,18.733,1.684,28.1,1.45c9.2-0.267,16.5-1.167,21.9-2.7c3.5-1,11.25-1.2,23.25-0.6c15.267,0.767,28.25,0.767,38.95,0
		c9.667-0.667,19.9-0.967,30.7-0.9c7.467,0.034,14.55-0.483,21.25-1.55c7.9-1.233,17.683-1.6,29.35-1.1
		c6.667,0.267,16.8,0.85,30.4,1.75c1.6,0.067,15.55,0.25,41.85,0.55c19.933,0.233,34.15,0.85,42.65,1.85
		c9,1.067,15.883,1.2,20.65,0.4c7.7-1.333,14.1-2.067,19.2-2.2C429.317,22.95,435.7,22.783,437.5,22.75z"/>
	<path style="fill-rule:evenodd;clip-rule:evenodd;fill:#5C4532;" d="M438.25,28.55c3.2-1.433,4.8-1.767,4.8-1
		c-0.033,0.767-1.633,1.833-4.8,3.2c-3.533,1.567-11.533,2.15-24,1.75c-0.567-0.033-11.983-0.683-34.25-1.95
		c-5.767-0.3-18.783-0.617-39.05-0.95c-20.6-0.3-38.833-0.867-54.7-1.7c-21.367-1.333-34.75-2.066-40.15-2.2
		c-6.667-0.133-14.817,0.6-24.45,2.2c-9.467,1.567-19.566,2.684-30.3,3.35c-4.533,0.3-12.567,0.617-24.1,0.95
		c-3.6,0.1-11.533,0.933-23.8,2.5c-12.333,1.533-23.184,2.45-32.55,2.75c-11.133,0.367-20.983,0.133-29.55-0.7
		c-4.167-0.4-11.483-1.45-21.95-3.15c-4.933-0.8-11.133-0.8-18.6,0c-7.867,0.8-14.933,0.8-21.2,0c-6.533-1.2-9.833-2.1-9.9-2.7
		c-0.067-0.566,3.233-0.417,9.9,0.45c6.3,0.833,13.367,0.833,21.2,0c7.5-0.767,13.7-0.767,18.6,0c10.5,1.7,17.817,2.75,21.95,3.15
		c8.566,0.867,18.417,1.117,29.55,0.75c9.333-0.3,20.184-1.233,32.55-2.8c12.2-1.567,20.133-2.4,23.8-2.5
		c11.867-0.333,19.9-0.633,24.1-0.9c10.767-0.667,20.867-1.783,30.3-3.35c9.667-1.633,17.817-2.383,24.45-2.25
		c5.4,0.133,18.783,0.883,40.15,2.25c15.833,0.8,34.067,1.367,54.7,1.7c20.167,0.267,33.183,0.567,39.05,0.9
		c7.3,0.434,18.717,1.083,34.25,1.95C426.717,30.683,434.717,30.117,438.25,28.55z"/>
	<path style="fill-rule:evenodd;clip-rule:evenodd;fill:#684D38;" d="M125.95,24.15c0,1.367-3.233,2.55-9.7,3.55
		c-6.433,0.966-14.217,1.45-23.35,1.45c-9.1,0-16.867-0.483-23.3-1.45c-6.467-1-9.7-2.184-9.7-3.55s3.233-2.533,9.7-3.5
		c6.433-0.967,14.2-1.45,23.3-1.45c9.133,0,16.917,0.483,23.35,1.45C122.717,21.617,125.95,22.783,125.95,24.15z"/>
	<path style="fill-rule:evenodd;clip-rule:evenodd;fill:#4F3B28;" d="M122.1,22.45c0,1.1-2.583,2.05-7.75,2.85
		c-5.233,0.8-11.483,1.2-18.75,1.2c-7.3,0-13.55-0.4-18.75-1.2c-5.167-0.8-7.75-1.75-7.75-2.85c0-1.133,2.583-2.1,7.75-2.9
		c5.2-0.8,11.45-1.2,18.75-1.2c7.3,0,13.55,0.4,18.75,1.2C119.517,20.35,122.1,21.317,122.1,22.45z"/>
	<path style="fill-rule:evenodd;clip-rule:evenodd;fill:#684D38;" d="M214.65,22.6c0,0.566-1.183,1.05-3.55,1.45
		c-2.333,0.4-5.184,0.6-8.55,0.6s-6.233-0.2-8.6-0.6c-2.367-0.4-3.55-0.883-3.55-1.45c0-0.567,1.184-1.05,3.55-1.45
		s5.233-0.6,8.6-0.6s6.217,0.2,8.55,0.6C213.467,21.55,214.65,22.033,214.65,22.6z"/>
	<path style="fill-rule:evenodd;clip-rule:evenodd;fill:#684D38;" d="M289.3,18.85c0,0.367-0.716,0.667-2.15,0.9
		c-1.4,0.233-3.117,0.35-5.15,0.35c-2,0-3.7-0.117-5.1-0.35c-1.433-0.267-2.15-0.567-2.15-0.9c0-0.333,0.717-0.617,2.15-0.85
		c1.4-0.233,3.1-0.35,5.1-0.35s3.717,0.117,5.15,0.35C288.583,18.233,289.3,18.517,289.3,18.85z"/>
	<path style="fill-rule:evenodd;clip-rule:evenodd;fill:#684D38;" d="M22.7,23.7c0,0.267-0.534,0.483-1.6,0.65
		c-1.067,0.2-2.35,0.3-3.85,0.3s-2.8-0.1-3.9-0.3c-1.067-0.167-1.6-0.383-1.6-0.65c0-0.267,0.533-0.483,1.6-0.65
		c1.1-0.2,2.4-0.3,3.9-0.3s2.783,0.1,3.85,0.3C22.167,23.217,22.7,23.433,22.7,23.7z"/>
	<path style="fill-rule:evenodd;clip-rule:evenodd;fill:#684D38;" d="M43.75,23.35c0,0.3-0.95,0.45-2.85,0.45s-2.85-0.15-2.85-0.45
		c0-0.333,0.95-0.5,2.85-0.5S43.75,23.017,43.75,23.35z"/>
	<path style="fill-rule:evenodd;clip-rule:evenodd;fill:#684D38;" d="M173.35,22.75c0,0.333-0.95,0.5-2.85,0.5s-2.85-0.167-2.85-0.5
		c0-0.3,0.95-0.45,2.85-0.45S173.35,22.45,173.35,22.75z"/>
	<path style="fill-rule:evenodd;clip-rule:evenodd;fill:#684D38;" d="M54.2,24.7c0,0.333-0.95,0.5-2.85,0.5s-2.85-0.167-2.85-0.5
		c0-0.133,0.283-0.25,0.85-0.35c0.566-0.1,1.233-0.15,2-0.15s1.433,0.05,2,0.15C53.917,24.45,54.2,24.567,54.2,24.7z"/>
	<path style="fill-rule:evenodd;clip-rule:evenodd;fill:#684D38;" d="M179.05,23.65c0,0.3-0.95,0.45-2.85,0.45
		c-1.867,0-2.8-0.15-2.8-0.45c0-0.333,0.934-0.5,2.8-0.5C178.1,23.15,179.05,23.317,179.05,23.65z"/>
	<path style="fill-rule:evenodd;clip-rule:evenodd;fill:#4F3B28;" d="M23.85,25.05c0,0.3-0.95,0.45-2.85,0.45s-2.85-0.15-2.85-0.45
		c0-0.333,0.95-0.5,2.85-0.5S23.85,24.717,23.85,25.05z"/>
	<path style="fill-rule:evenodd;clip-rule:evenodd;fill:#4F3B28;" d="M23.95,26.8c0,0.267-0.55,0.483-1.65,0.65
		c-1.133,0.167-2.483,0.25-4.05,0.25c-1.6,0-2.95-0.083-4.05-0.25c-1.133-0.167-1.7-0.383-1.7-0.65c0-0.233,0.567-0.45,1.7-0.65
		c1.1-0.167,2.45-0.25,4.05-0.25c1.567,0,2.917,0.083,4.05,0.25C23.4,26.35,23.95,26.567,23.95,26.8z"/>
	<path style="fill-rule:evenodd;clip-rule:evenodd;fill:#4F3B28;" d="M215.05,21.6c0,0.467-0.95,0.867-2.85,1.2
		c-1.9,0.333-4.2,0.5-6.9,0.5c-2.667,0-4.95-0.167-6.85-0.5c-1.9-0.333-2.85-0.733-2.85-1.2s0.95-0.85,2.85-1.15
		c1.9-0.333,4.183-0.5,6.85-0.5c2.7,0,5,0.167,6.9,0.5C214.1,20.75,215.05,21.133,215.05,21.6z"/>
	<path style="fill-rule:evenodd;clip-rule:evenodd;fill:#684D38;" d="M149.75,21.05c4.1,0.4,6.15,0.883,6.15,1.45
		s-2.05,1.05-6.15,1.45c-4.1,0.4-9.067,0.6-14.9,0.6c-5.833,0-10.783-0.2-14.85-0.6c-4.133-0.4-6.2-0.883-6.2-1.45
		s2.067-1.05,6.2-1.45c4.067-0.4,9.017-0.6,14.85-0.6C140.683,20.45,145.65,20.65,149.75,21.05z"/>
	<path style="fill-rule:evenodd;clip-rule:evenodd;fill:#684D38;" d="M166.4,24.25c0,0.333-1.233,0.633-3.7,0.9
		c-2.434,0.233-5.4,0.35-8.9,0.35s-6.483-0.117-8.95-0.35s-3.7-0.533-3.7-0.9c0-0.333,1.233-0.633,3.7-0.9
		c2.467-0.233,5.45-0.35,8.95-0.35s6.467,0.117,8.9,0.35C165.167,23.617,166.4,23.917,166.4,24.25z"/>
	<path style="fill-rule:evenodd;clip-rule:evenodd;fill:#684D38;" d="M170.6,27c0,0.267-0.917,0.483-2.75,0.65
		c-1.867,0.2-4.1,0.3-6.7,0.3s-4.833-0.1-6.7-0.3c-1.867-0.167-2.8-0.383-2.8-0.65s0.934-0.483,2.8-0.65c1.867-0.2,4.1-0.3,6.7-0.3
		s4.833,0.1,6.7,0.3C169.683,26.517,170.6,26.733,170.6,27z"/>
	<path style="fill-rule:evenodd;clip-rule:evenodd;fill:#684D38;" d="M179.3,25.55c0,0.333-1.65,0.5-4.95,0.5
		c-3.3,0-4.95-0.167-4.95-0.5c0-0.3,1.65-0.45,4.95-0.45C177.65,25.1,179.3,25.25,179.3,25.55z"/>
	<path style="fill-rule:evenodd;clip-rule:evenodd;fill:#4F3B28;" d="M136.35,30.75c0,0.367-1.65,0.55-4.95,0.55
		c-3.3,0-4.95-0.183-4.95-0.55c0-0.133,0.483-0.267,1.45-0.4c0.967-0.1,2.133-0.15,3.5-0.15s2.533,0.05,3.5,0.15
		C135.867,30.483,136.35,30.617,136.35,30.75z"/>
	<path style="fill-rule:evenodd;clip-rule:evenodd;fill:#4F3B28;" d="M96.9,29.35c0,0.3-1.65,0.45-4.95,0.45
		c-3.3,0-4.95-0.15-4.95-0.45c0-0.333,1.65-0.5,4.95-0.5C95.25,28.85,96.9,29.017,96.9,29.35z"/>
	<path style="fill-rule:evenodd;clip-rule:evenodd;fill:#4F3B28;" d="M88,30.7c0,0.267-0.967,0.483-2.9,0.65
		c-1.934,0.167-4.267,0.25-7,0.25s-5.067-0.083-7-0.25c-1.934-0.167-2.9-0.383-2.9-0.65c0-0.233,0.966-0.45,2.9-0.65
		c1.933-0.167,4.267-0.25,7-0.25s5.066,0.083,7,0.25C87.033,30.25,88,30.467,88,30.7z"/>
	<path style="fill-rule:evenodd;clip-rule:evenodd;fill:#4F3B28;" d="M108.4,32.8c1.934,0.167,2.9,0.367,2.9,0.6
		c0,0.267-0.966,0.483-2.9,0.65c-1.9,0.167-4.233,0.25-7,0.25c-2.733,0-5.066-0.083-7-0.25c-1.933-0.167-2.9-0.383-2.9-0.65
		c0-0.233,0.967-0.433,2.9-0.6c1.967-0.167,4.3-0.25,7-0.25C104.133,32.55,106.467,32.633,108.4,32.8z"/>
	<path style="fill-rule:evenodd;clip-rule:evenodd;fill:#4F3B28;" d="M77.2,28.4c0,0.067-0.367,0.133-1.1,0.2
		c-0.767,0.066-1.684,0.1-2.75,0.1c-1.033,0-1.934-0.034-2.7-0.1c-0.767-0.067-1.15-0.133-1.15-0.2c0-0.233,1.283-0.35,3.85-0.35
		C75.917,28.05,77.2,28.167,77.2,28.4z"/>
	<path style="fill-rule:evenodd;clip-rule:evenodd;fill:#4F3B28;" d="M128.35,31.75c0,0.233-1.283,0.35-3.85,0.35
		s-3.85-0.117-3.85-0.35s1.283-0.35,3.85-0.35S128.35,31.517,128.35,31.75z"/>
	<path style="fill-rule:evenodd;clip-rule:evenodd;fill:#4F3B28;" d="M156.55,21.5c0,0.467-1.65,0.867-4.95,1.2
		c-3.267,0.333-7.25,0.5-11.95,0.5c-4.667,0-8.633-0.167-11.9-0.5c-3.3-0.333-4.95-0.733-4.95-1.2s1.65-0.867,4.95-1.2
		c3.333-0.333,7.3-0.5,11.9-0.5c4.633,0,8.617,0.167,11.95,0.5C154.9,20.633,156.55,21.033,156.55,21.5z"/>
	<path style="fill-rule:evenodd;clip-rule:evenodd;fill:#684D38;" d="M309.65,22.4c0,0.367-1.233,0.667-3.7,0.9
		c-2.467,0.233-5.45,0.35-8.95,0.35s-6.467-0.117-8.9-0.35c-2.467-0.267-3.7-0.566-3.7-0.9c0-0.333,1.233-0.617,3.7-0.85
		c2.467-0.233,5.433-0.35,8.9-0.35c3.5,0,6.483,0.117,8.95,0.35C308.417,21.783,309.65,22.067,309.65,22.4z"/>
	<path style="fill-rule:evenodd;clip-rule:evenodd;fill:#684D38;" d="M439.2,23.95c0,0.267-0.917,0.483-2.75,0.65
		c-1.867,0.2-4.1,0.3-6.7,0.3s-4.833-0.1-6.7-0.3c-1.867-0.167-2.8-0.383-2.8-0.65c0-0.267,0.933-0.483,2.8-0.65
		c1.867-0.2,4.1-0.3,6.7-0.3s4.833,0.1,6.7,0.3C438.283,23.467,439.2,23.683,439.2,23.95z"/>
	<path style="fill-rule:evenodd;clip-rule:evenodd;fill:#4F3B28;" d="M409.4,24.5c0,0.3-1.65,0.45-4.95,0.45
		c-3.267,0-4.9-0.15-4.9-0.45c0-0.333,1.633-0.5,4.9-0.5C407.75,24,409.4,24.167,409.4,24.5z"/>
	<path style="fill-rule:evenodd;clip-rule:evenodd;fill:#4F3B28;" d="M249.35,21.5c0,0.267-0.967,0.483-2.9,0.65
		c-1.934,0.167-4.267,0.25-7,0.25c-2.733,0-5.067-0.083-7-0.25c-1.934-0.167-2.9-0.383-2.9-0.65c0-0.233,0.967-0.45,2.9-0.65
		c1.933-0.167,4.267-0.25,7-0.25c2.733,0,5.066,0.083,7,0.25C248.383,21.05,249.35,21.267,249.35,21.5z"/>
	<path style="fill-rule:evenodd;clip-rule:evenodd;fill:#4F3B28;" d="M411,25.85c0,0.233-1.283,0.35-3.85,0.35
		c-2.533,0-3.8-0.117-3.8-0.35s1.267-0.35,3.8-0.35C409.717,25.5,411,25.617,411,25.85z"/>
	<path style="fill-rule:evenodd;clip-rule:evenodd;fill:#4F3B28;" d="M402.55,23.1c0,0.233-1.283,0.35-3.85,0.35
		c-2.534,0-3.8-0.117-3.8-0.35s1.267-0.35,3.8-0.35C401.267,22.75,402.55,22.867,402.55,23.1z"/>
	<path style="fill-rule:evenodd;clip-rule:evenodd;fill:#4F3B28;" d="M439.8,24.3c0,0.167-0.566,0.25-1.7,0.25s-1.7-0.083-1.7-0.25
		c0-0.2,0.567-0.3,1.7-0.3S439.8,24.1,439.8,24.3z"/>
	<path style="fill-rule:evenodd;clip-rule:evenodd;fill:#4F3B28;" d="M248.75,20c0,0.233-1.267,0.35-3.8,0.35
		c-2.567,0-3.85-0.117-3.85-0.35s1.283-0.35,3.85-0.35C247.483,19.65,248.75,19.767,248.75,20z"/>
	<path style="fill-rule:evenodd;clip-rule:evenodd;fill:#4F3B28;" d="M336,24.7c0,0.233-1.283,0.35-3.85,0.35
		c-2.566,0-3.85-0.117-3.85-0.35c0-0.233,1.284-0.35,3.85-0.35C334.717,24.35,336,24.467,336,24.7z"/>
	<path style="fill-rule:evenodd;clip-rule:evenodd;fill:#4F3B28;" d="M430.65,19.8c3.3,0.333,4.95,0.733,4.95,1.2
		s-1.65,0.85-4.95,1.15c-3.3,0.333-7.267,0.5-11.9,0.5c-4.667,0-8.65-0.167-11.95-0.5c-3.3-0.3-4.95-0.683-4.95-1.15
		s1.65-0.867,4.95-1.2c3.267-0.333,7.25-0.5,11.95-0.5C423.417,19.3,427.383,19.467,430.65,19.8z"/>
	<path style="fill-rule:evenodd;clip-rule:evenodd;fill:#684D38;" d="M258.65,20.6c0,0.566-2.05,1.066-6.15,1.5
		c-4.133,0.4-9.1,0.6-14.9,0.6c-5.8,0-10.767-0.2-14.9-0.6c-4.1-0.434-6.15-0.934-6.15-1.5c0-0.567,2.05-1.05,6.15-1.45
		c4.133-0.4,9.1-0.6,14.9-0.6c5.767,0,10.733,0.2,14.9,0.6C256.6,19.55,258.65,20.033,258.65,20.6z"/>
	<path style="fill-rule:evenodd;clip-rule:evenodd;fill:#4F3B28;" d="M230.75,19.95c3,0.233,4.5,0.5,4.5,0.8
		c0,0.333-1.5,0.6-4.5,0.8c-2.967,0.233-6.567,0.35-10.8,0.35c-4.233,0-7.833-0.117-10.8-0.35c-3-0.2-4.5-0.466-4.5-0.8
		c0-0.3,1.5-0.567,4.5-0.8c3.033-0.233,6.633-0.35,10.8-0.35C224.117,19.6,227.717,19.717,230.75,19.95z"/>
	<path style="fill-rule:evenodd;clip-rule:evenodd;fill:#684D38;" d="M362.8,20.95c5.833,0,10.8,0.2,14.9,0.6
		c4.1,0.4,6.15,0.883,6.15,1.45s-2.05,1.05-6.15,1.45c-4.1,0.4-9.067,0.6-14.9,0.6c-5.833,0-10.783-0.2-14.85-0.6
		c-4.133-0.4-6.2-0.883-6.2-1.45s2.067-1.05,6.2-1.45C352.017,21.15,356.967,20.95,362.8,20.95z"/>
	<path style="fill-rule:evenodd;clip-rule:evenodd;fill:#684D38;" d="M79.75,22.75c0-0.333,1.233-0.633,3.7-0.9
		c2.433-0.233,5.4-0.35,8.9-0.35s6.483,0.117,8.95,0.35c2.467,0.267,3.7,0.566,3.7,0.9s-1.233,0.617-3.7,0.85
		c-2.466,0.233-5.45,0.35-8.95,0.35c-3.467,0-6.434-0.117-8.9-0.35C80.983,23.367,79.75,23.083,79.75,22.75z"/>
	<path style="fill-rule:evenodd;clip-rule:evenodd;fill:#684D38;" d="M94.35,19.6c0-0.267,0.933-0.483,2.8-0.65
		c1.867-0.2,4.1-0.3,6.7-0.3c2.566,0,4.8,0.1,6.7,0.3c1.833,0.167,2.75,0.383,2.75,0.65s-0.917,0.483-2.75,0.65
		c-1.867,0.167-4.1,0.25-6.7,0.25c-2.633,0-4.867-0.083-6.7-0.25C95.283,20.083,94.35,19.867,94.35,19.6z"/>
	<path style="fill-rule:evenodd;clip-rule:evenodd;fill:#684D38;" d="M314.35,20.4c0-0.233,0.917-0.45,2.75-0.65
		c1.833-0.167,4.066-0.25,6.7-0.25s4.867,0.083,6.7,0.25c1.867,0.2,2.8,0.417,2.8,0.65c0,0.267-0.933,0.5-2.8,0.7
		c-1.8,0.167-4.033,0.25-6.7,0.25c-2.633,0-4.867-0.083-6.7-0.25C315.267,20.9,314.35,20.667,314.35,20.4z"/>
	<path style="fill-rule:evenodd;clip-rule:evenodd;fill:#684D38;" d="M117.35,20.35c0-0.333,1.633-0.5,4.9-0.5
		c3.3,0,4.95,0.167,4.95,0.5c0,0.3-1.65,0.45-4.95,0.45C118.983,20.8,117.35,20.65,117.35,20.35z"/>
	<path style="fill-rule:evenodd;clip-rule:evenodd;fill:#4F3B28;" d="M357.65,22.2c0-0.133,0.483-0.25,1.45-0.35
		s2.117-0.15,3.45-0.15c1.333,0,2.5,0.05,3.5,0.15c0.967,0.1,1.45,0.217,1.45,0.35c0,0.333-1.65,0.5-4.95,0.5
		C359.283,22.7,357.65,22.533,357.65,22.2z"/>
	<path style="fill-rule:evenodd;clip-rule:evenodd;fill:#4F3B28;" d="M360.4,20.4c4.667,0,8.633,0.167,11.9,0.5
		c3.3,0.333,4.95,0.733,4.95,1.2s-1.65,0.85-4.95,1.15c-3.3,0.333-7.267,0.5-11.9,0.5s-8.617-0.167-11.95-0.5
		c-3.3-0.3-4.95-0.683-4.95-1.15s1.65-0.867,4.95-1.2C351.75,20.567,355.733,20.4,360.4,20.4z"/>
	<path style="fill-rule:evenodd;clip-rule:evenodd;fill:#684D38;" d="M804.35,23.25c10.967-0.3,17.351-0.467,19.15-0.5
		c1.833-0.033,5.65-0.05,11.45-0.05c-2.267,1.066-3.9,2.367-4.9,3.9c-1,1.5-2.934,2.883-5.8,4.15c-3.533,1.567-11.533,2.15-24,1.75
		c-0.566-0.033-11.983-0.683-34.25-1.95c-5.767-0.3-18.783-0.617-39.05-0.95c-20.601-0.3-38.834-0.867-54.7-1.7
		c-21.366-1.333-34.75-2.066-40.15-2.2c-6.666-0.133-14.816,0.6-24.449,2.2c-9.467,1.567-19.567,2.684-30.301,3.35
		c-4.533,0.3-12.566,0.617-24.1,0.95c-3.6,0.1-11.533,0.933-23.8,2.5c-12.333,1.533-23.184,2.45-32.55,2.75
		c-11.133,0.367-20.983,0.133-29.55-0.7c-4.167-0.4-11.483-1.45-21.95-3.15c-4.933-0.8-11.133-0.8-18.6,0
		c-7.867,0.8-14.933,0.8-21.2,0c-9.467-1.233-15.133-3.8-17-7.7c-0.567-1.2-0.733-2.467-0.5-3.8l0.55-1.65
		c3.434,4.733,12.967,6.95,28.6,6.65c0.933,0,6.817-0.467,17.65-1.4c6.6-0.567,13.667-0.367,21.2,0.6
		c9.367,1.2,18.733,1.684,28.1,1.45c9.2-0.267,16.5-1.167,21.9-2.7c3.5-1,11.267-1.2,23.3-0.6c15.267,0.767,28.233,0.767,38.899,0
		c9.667-0.667,19.9-0.967,30.7-0.9c7.467,0.034,14.55-0.483,21.25-1.55c7.9-1.233,17.684-1.6,29.35-1.1
		c6.667,0.267,16.801,0.85,30.4,1.75c1.6,0.067,15.55,0.25,41.85,0.55c19.934,0.233,34.15,0.85,42.65,1.85
		c9,1.067,15.884,1.2,20.65,0.4C792.85,24.117,799.25,23.383,804.35,23.25z"/>
	<path style="fill-rule:evenodd;clip-rule:evenodd;fill:#5C4532;" d="M824.25,28.55c3.2-1.433,4.8-1.767,4.8-1
		c-0.033,0.767-1.633,1.833-4.8,3.2c-3.533,1.567-11.533,2.15-24,1.75c-0.566-0.033-11.983-0.683-34.25-1.95
		c-5.767-0.3-18.783-0.617-39.05-0.95c-20.601-0.3-38.834-0.867-54.7-1.7c-21.366-1.333-34.75-2.066-40.15-2.2
		c-6.666-0.133-14.816,0.6-24.449,2.2c-9.467,1.567-19.567,2.684-30.301,3.35c-4.533,0.3-12.566,0.617-24.1,0.95
		c-3.6,0.1-11.533,0.933-23.8,2.5c-12.333,1.533-23.184,2.45-32.55,2.75c-11.133,0.367-20.983,0.133-29.55-0.7
		c-4.167-0.4-11.483-1.45-21.95-3.15c-4.933-0.8-11.133-0.8-18.6,0c-7.867,0.8-14.933,0.8-21.2,0c-6.533-1.2-9.833-2.1-9.9-2.7
		c-0.067-0.566,3.233-0.417,9.9,0.45c6.3,0.833,13.367,0.833,21.2,0c7.5-0.767,13.7-0.767,18.6,0c10.5,1.7,17.817,2.75,21.95,3.15
		c8.566,0.867,18.417,1.117,29.55,0.75c9.333-0.3,20.184-1.233,32.55-2.8c12.2-1.567,20.133-2.4,23.8-2.5
		c11.866-0.333,19.9-0.633,24.1-0.9c10.767-0.667,20.867-1.783,30.301-3.35c9.666-1.633,17.816-2.383,24.449-2.25
		c5.4,0.133,18.784,0.883,40.15,2.25c15.833,0.8,34.066,1.367,54.7,1.7c20.166,0.267,33.184,0.567,39.05,0.9
		c7.3,0.434,18.717,1.083,34.25,1.95C812.717,30.683,820.717,30.117,824.25,28.55z"/>
	<path style="fill-rule:evenodd;clip-rule:evenodd;fill:#684D38;" d="M508.55,20.65c6.434,0.967,9.65,2.133,9.65,3.5
		s-3.217,2.55-9.65,3.55c-6.466,0.966-14.25,1.45-23.35,1.45c-9.1,0-16.884-0.483-23.35-1.45c-6.467-1-9.7-2.184-9.7-3.55
		s3.233-2.533,9.7-3.5c6.433-0.967,14.216-1.45,23.35-1.45C494.333,19.2,502.117,19.683,508.55,20.65z"/>
	<path style="fill-rule:evenodd;clip-rule:evenodd;fill:#4F3B28;" d="M508.1,22.45c0,1.1-2.583,2.05-7.75,2.85
		c-5.233,0.8-11.483,1.2-18.75,1.2c-7.3,0-13.55-0.4-18.75-1.2c-5.167-0.8-7.75-1.75-7.75-2.85c0-1.133,2.583-2.1,7.75-2.9
		c5.2-0.8,11.45-1.2,18.75-1.2c7.3,0,13.55,0.4,18.75,1.2C505.517,20.35,508.1,21.317,508.1,22.45z"/>
	<path style="fill-rule:evenodd;clip-rule:evenodd;fill:#684D38;" d="M600.7,22.6c0,0.566-1.184,1.05-3.55,1.45
		c-2.367,0.4-5.233,0.6-8.601,0.6c-3.366,0-6.233-0.2-8.6-0.6c-2.367-0.4-3.55-0.883-3.55-1.45c0-0.567,1.183-1.05,3.55-1.45
		c2.366-0.4,5.233-0.6,8.6-0.6c3.367,0,6.233,0.2,8.601,0.6C599.517,21.55,600.7,22.033,600.7,22.6z"/>
	<path style="fill-rule:evenodd;clip-rule:evenodd;fill:#684D38;" d="M675.3,18.85c0,0.367-0.717,0.667-2.149,0.9
		c-1.4,0.233-3.117,0.35-5.15,0.35c-2,0-3.7-0.117-5.1-0.35c-1.434-0.267-2.15-0.567-2.15-0.9c0-0.333,0.717-0.617,2.15-0.85
		c1.399-0.233,3.1-0.35,5.1-0.35s3.717,0.117,5.15,0.35C674.583,18.233,675.3,18.517,675.3,18.85z"/>
	<path style="fill-rule:evenodd;clip-rule:evenodd;fill:#684D38;" d="M429.75,23.35c0,0.3-0.95,0.45-2.85,0.45s-2.85-0.15-2.85-0.45
		c0-0.333,0.95-0.5,2.85-0.5S429.75,23.017,429.75,23.35z"/>
	<path style="fill-rule:evenodd;clip-rule:evenodd;fill:#684D38;" d="M559.35,22.75c0,0.333-0.949,0.5-2.85,0.5
		s-2.85-0.167-2.85-0.5c0-0.3,0.949-0.45,2.85-0.45S559.35,22.45,559.35,22.75z"/>
	<path style="fill-rule:evenodd;clip-rule:evenodd;fill:#684D38;" d="M440.2,24.7c0,0.333-0.95,0.5-2.85,0.5s-2.85-0.167-2.85-0.5
		c0-0.133,0.283-0.25,0.85-0.35c0.566-0.1,1.233-0.15,2-0.15C439.25,24.2,440.2,24.367,440.2,24.7z"/>
	<path style="fill-rule:evenodd;clip-rule:evenodd;fill:#684D38;" d="M565.05,23.65c0,0.3-0.95,0.45-2.85,0.45
		c-1.867,0-2.8-0.15-2.8-0.45c0-0.333,0.933-0.5,2.8-0.5C564.1,23.15,565.05,23.317,565.05,23.65z"/>
	<path style="fill-rule:evenodd;clip-rule:evenodd;fill:#4F3B28;" d="M434.65,22.6c4.467,0.5,6.7,1.1,6.7,1.8
		c0,0.7-2.233,1.3-6.7,1.8s-9.85,0.75-16.15,0.75s-11.683-0.25-16.15-0.75s-6.7-1.1-6.7-1.8c0-0.7,2.233-1.3,6.7-1.8
		s9.85-0.75,16.15-0.75S430.183,22.1,434.65,22.6z"/>
	<path style="fill-rule:evenodd;clip-rule:evenodd;fill:#4F3B28;" d="M601.05,21.6c0,0.467-0.95,0.867-2.85,1.2
		c-1.9,0.333-4.2,0.5-6.9,0.5c-2.666,0-4.95-0.167-6.85-0.5c-1.9-0.333-2.851-0.733-2.851-1.2s0.95-0.85,2.851-1.15
		c1.899-0.333,4.184-0.5,6.85-0.5c2.7,0,5,0.167,6.9,0.5C600.1,20.75,601.05,21.133,601.05,21.6z"/>
	<path style="fill-rule:evenodd;clip-rule:evenodd;fill:#684D38;" d="M541.9,22.5c0,0.567-2.051,1.05-6.15,1.45
		c-4.1,0.4-9.066,0.6-14.9,0.6s-10.784-0.2-14.85-0.6c-4.133-0.4-6.2-0.883-6.2-1.45s2.067-1.05,6.2-1.45
		c4.066-0.4,9.017-0.6,14.85-0.6s10.8,0.2,14.9,0.6C539.85,21.45,541.9,21.933,541.9,22.5z"/>
	<path style="fill-rule:evenodd;clip-rule:evenodd;fill:#684D38;" d="M552.4,24.25c0,0.333-1.233,0.633-3.7,0.9
		c-2.434,0.233-5.4,0.35-8.9,0.35s-6.483-0.117-8.95-0.35c-2.466-0.233-3.699-0.533-3.699-0.9c0-0.333,1.233-0.633,3.699-0.9
		c2.467-0.233,5.45-0.35,8.95-0.35s6.467,0.117,8.9,0.35C551.167,23.617,552.4,23.917,552.4,24.25z"/>
	<path style="fill-rule:evenodd;clip-rule:evenodd;fill:#684D38;" d="M553.85,26.35c1.834,0.167,2.75,0.383,2.75,0.65
		s-0.916,0.483-2.75,0.65c-1.866,0.2-4.1,0.3-6.699,0.3c-2.601,0-4.834-0.1-6.7-0.3c-1.867-0.167-2.8-0.383-2.8-0.65
		s0.933-0.483,2.8-0.65c1.866-0.2,4.1-0.3,6.7-0.3C549.75,26.05,551.983,26.15,553.85,26.35z"/>
	<path style="fill-rule:evenodd;clip-rule:evenodd;fill:#684D38;" d="M565.3,25.55c0,0.333-1.649,0.5-4.95,0.5
		c-3.3,0-4.949-0.167-4.949-0.5c0-0.3,1.649-0.45,4.949-0.45C563.65,25.1,565.3,25.25,565.3,25.55z"/>
	<path style="fill-rule:evenodd;clip-rule:evenodd;fill:#4F3B28;" d="M522.35,30.75c0,0.367-1.65,0.55-4.95,0.55
		c-3.3,0-4.95-0.183-4.95-0.55c0-0.133,0.483-0.267,1.45-0.4c1-0.1,2.167-0.15,3.5-0.15c1.367,0,2.534,0.05,3.5,0.15
		C521.867,30.483,522.35,30.617,522.35,30.75z"/>
	<path style="fill-rule:evenodd;clip-rule:evenodd;fill:#4F3B28;" d="M482.9,29.35c0,0.3-1.65,0.45-4.95,0.45
		c-3.3,0-4.95-0.15-4.95-0.45c0-0.333,1.65-0.5,4.95-0.5C481.25,28.85,482.9,29.017,482.9,29.35z"/>
	<path style="fill-rule:evenodd;clip-rule:evenodd;fill:#4F3B28;" d="M474,30.7c0,0.267-0.967,0.483-2.9,0.65
		c-1.934,0.167-4.267,0.25-7,0.25s-5.067-0.083-7-0.25c-1.934-0.167-2.9-0.383-2.9-0.65c0-0.233,0.966-0.45,2.9-0.65
		c1.933-0.167,4.267-0.25,7-0.25s5.066,0.083,7,0.25C473.033,30.25,474,30.467,474,30.7z"/>
	<path style="fill-rule:evenodd;clip-rule:evenodd;fill:#4F3B28;" d="M497.3,33.4c0,0.267-0.966,0.483-2.9,0.65
		c-1.9,0.167-4.233,0.25-7,0.25c-2.733,0-5.066-0.083-7-0.25c-1.933-0.167-2.9-0.383-2.9-0.65c0-0.233,0.967-0.433,2.9-0.6
		c1.967-0.167,4.3-0.25,7-0.25c2.733,0,5.067,0.083,7,0.25C496.333,32.967,497.3,33.167,497.3,33.4z"/>
	<path style="fill-rule:evenodd;clip-rule:evenodd;fill:#4F3B28;" d="M463.2,28.4c0,0.067-0.367,0.133-1.1,0.2
		c-0.767,0.066-1.684,0.1-2.75,0.1c-1.033,0-1.934-0.034-2.7-0.1c-0.733-0.067-1.1-0.133-1.1-0.2c0-0.233,1.267-0.35,3.8-0.35
		C461.917,28.05,463.2,28.167,463.2,28.4z"/>
	<path style="fill-rule:evenodd;clip-rule:evenodd;fill:#4F3B28;" d="M742.45,26c0,0.233-1.283,0.35-3.851,0.35
		c-2.566,0-3.85-0.117-3.85-0.35c0-0.2,1.283-0.3,3.85-0.3C741.167,25.7,742.45,25.8,742.45,26z"/>
	<path style="fill-rule:evenodd;clip-rule:evenodd;fill:#4F3B28;" d="M514.35,31.75c0,0.233-1.284,0.35-3.85,0.35
		s-3.85-0.117-3.85-0.35s1.284-0.35,3.85-0.35S514.35,31.517,514.35,31.75z"/>
	<path style="fill-rule:evenodd;clip-rule:evenodd;fill:#4F3B28;" d="M542.55,21.5c0,0.467-1.649,0.867-4.95,1.2
		c-3.267,0.333-7.233,0.5-11.899,0.5c-4.7,0-8.684-0.167-11.95-0.5c-3.3-0.333-4.95-0.733-4.95-1.2s1.65-0.867,4.95-1.2
		c3.333-0.333,7.316-0.5,11.95-0.5c4.6,0,8.566,0.167,11.899,0.5C540.9,20.633,542.55,21.033,542.55,21.5z"/>
	<path style="fill-rule:evenodd;clip-rule:evenodd;fill:#684D38;" d="M817.1,22.35c0,0.566-2.05,1.05-6.149,1.45
		c-4.134,0.4-9.101,0.6-14.9,0.6c-5.767,0-10.717-0.2-14.85-0.6c-4.134-0.4-6.2-0.883-6.2-1.45c0-0.567,2.066-1.067,6.2-1.5
		c4.1-0.4,9.05-0.6,14.85-0.6s10.767,0.2,14.9,0.6C815.05,21.283,817.1,21.783,817.1,22.35z"/>
	<path style="fill-rule:evenodd;clip-rule:evenodd;fill:#684D38;" d="M695.65,22.4c0,0.367-1.233,0.667-3.7,0.9
		c-2.467,0.233-5.45,0.35-8.95,0.35s-6.467-0.117-8.9-0.35c-2.466-0.267-3.699-0.566-3.699-0.9c0-0.333,1.233-0.617,3.699-0.85
		c2.467-0.233,5.434-0.35,8.9-0.35c3.5,0,6.483,0.117,8.95,0.35C694.417,21.783,695.65,22.067,695.65,22.4z"/>
	<path style="fill-rule:evenodd;clip-rule:evenodd;fill:#684D38;" d="M825.2,23.95c0,0.267-0.917,0.483-2.75,0.65
		c-1.867,0.2-4.101,0.3-6.7,0.3s-4.833-0.1-6.7-0.3c-1.866-0.167-2.8-0.383-2.8-0.65c0-0.267,0.934-0.483,2.8-0.65
		c1.867-0.2,4.101-0.3,6.7-0.3s4.833,0.1,6.7,0.3C824.283,23.467,825.2,23.683,825.2,23.95z"/>
	<path style="fill-rule:evenodd;clip-rule:evenodd;fill:#684D38;" d="M827.75,22.75c0,0.3-1.65,0.45-4.95,0.45
		c-3.267,0-4.899-0.15-4.899-0.45c0-0.333,1.633-0.5,4.899-0.5C826.1,22.25,827.75,22.417,827.75,22.75z"/>
	<path style="fill-rule:evenodd;clip-rule:evenodd;fill:#4F3B28;" d="M795.4,24.5c0,0.3-1.65,0.45-4.95,0.45
		c-3.267,0-4.9-0.15-4.9-0.45c0-0.333,1.634-0.5,4.9-0.5C793.75,24,795.4,24.167,795.4,24.5z"/>
	<path style="fill-rule:evenodd;clip-rule:evenodd;fill:#4F3B28;" d="M818,27c0,0.267-0.967,0.483-2.9,0.65
		c-1.933,0.167-4.267,0.25-7,0.25s-5.066-0.083-7-0.25c-1.933-0.167-2.899-0.383-2.899-0.65c0-0.233,0.967-0.45,2.899-0.65
		c1.934-0.167,4.267-0.25,7-0.25s5.067,0.083,7,0.25C817.033,26.55,818,26.767,818,27z"/>
	<path style="fill-rule:evenodd;clip-rule:evenodd;fill:#4F3B28;" d="M635.35,21.5c0,0.267-0.966,0.483-2.899,0.65
		c-1.934,0.167-4.267,0.25-7,0.25s-5.066-0.083-7-0.25c-1.934-0.167-2.9-0.383-2.9-0.65c0-0.233,0.967-0.45,2.9-0.65
		c1.934-0.167,4.267-0.25,7-0.25s5.066,0.083,7,0.25C634.384,21.05,635.35,21.267,635.35,21.5z"/>
	<path style="fill-rule:evenodd;clip-rule:evenodd;fill:#4F3B28;" d="M797,25.85c0,0.233-1.283,0.35-3.85,0.35
		c-2.534,0-3.801-0.117-3.801-0.35s1.267-0.35,3.801-0.35C795.717,25.5,797,25.617,797,25.85z"/>
	<path style="fill-rule:evenodd;clip-rule:evenodd;fill:#4F3B28;" d="M788.55,23.1c0,0.233-1.283,0.35-3.85,0.35
		c-2.533,0-3.8-0.117-3.8-0.35s1.267-0.35,3.8-0.35C787.267,22.75,788.55,22.867,788.55,23.1z"/>
	<path style="fill-rule:evenodd;clip-rule:evenodd;fill:#4F3B28;" d="M733.9,25.3c0,0.167-0.567,0.25-1.7,0.25
		c-1.134,0-1.7-0.083-1.7-0.25c0-0.167,0.566-0.25,1.7-0.25C733.333,25.05,733.9,25.133,733.9,25.3z"/>
	<path style="fill-rule:evenodd;clip-rule:evenodd;fill:#4F3B28;" d="M828.9,23.55c0,0.167-0.567,0.25-1.7,0.25
		c-1.101,0-1.65-0.083-1.65-0.25c0-0.167,0.55-0.25,1.65-0.25C828.333,23.3,828.9,23.383,828.9,23.55z"/>
	<path style="fill-rule:evenodd;clip-rule:evenodd;fill:#4F3B28;" d="M825.8,24.3c0,0.167-0.566,0.25-1.7,0.25
		c-1.133,0-1.699-0.083-1.699-0.25c0-0.2,0.566-0.3,1.699-0.3C825.233,24,825.8,24.1,825.8,24.3z"/>
	<path style="fill-rule:evenodd;clip-rule:evenodd;fill:#4F3B28;" d="M634.75,20c0,0.233-1.267,0.35-3.8,0.35
		c-2.566,0-3.851-0.117-3.851-0.35s1.284-0.35,3.851-0.35C633.483,19.65,634.75,19.767,634.75,20z"/>
	<path style="fill-rule:evenodd;clip-rule:evenodd;fill:#4F3B28;" d="M718.15,24.35c2.566,0,3.85,0.117,3.85,0.35
		c0,0.233-1.283,0.35-3.85,0.35c-2.567,0-3.851-0.117-3.851-0.35C714.3,24.467,715.583,24.35,718.15,24.35z"/>
	<path style="fill-rule:evenodd;clip-rule:evenodd;fill:#4F3B28;" d="M821.6,21c0,0.467-1.649,0.85-4.949,1.15
		c-3.301,0.333-7.267,0.5-11.9,0.5c-4.667,0-8.65-0.167-11.95-0.5c-3.3-0.3-4.95-0.683-4.95-1.15s1.65-0.867,4.95-1.2
		c3.267-0.333,7.25-0.5,11.95-0.5c4.667,0,8.634,0.167,11.9,0.5C819.95,20.133,821.6,20.533,821.6,21z"/>
	<path style="fill-rule:evenodd;clip-rule:evenodd;fill:#684D38;" d="M644.65,20.6c0,0.566-2.051,1.066-6.15,1.5
		c-4.134,0.4-9.1,0.6-14.9,0.6c-5.8,0-10.767-0.2-14.899-0.6c-4.101-0.434-6.15-0.934-6.15-1.5c0-0.567,2.05-1.05,6.15-1.45
		c4.133-0.4,9.1-0.6,14.899-0.6c5.767,0,10.733,0.2,14.9,0.6C642.6,19.55,644.65,20.033,644.65,20.6z"/>
	<path style="fill-rule:evenodd;clip-rule:evenodd;fill:#4F3B28;" d="M621.25,20.75c0,0.333-1.5,0.6-4.5,0.8
		c-2.967,0.233-6.566,0.35-10.8,0.35s-7.834-0.117-10.8-0.35c-3-0.2-4.5-0.466-4.5-0.8c0-0.3,1.5-0.567,4.5-0.8
		c3.033-0.233,6.633-0.35,10.8-0.35c4.166,0,7.767,0.117,10.8,0.35C619.75,20.183,621.25,20.45,621.25,20.75z"/>
	<path style="fill-rule:evenodd;clip-rule:evenodd;fill:#684D38;" d="M763.7,21.55c4.1,0.4,6.149,0.883,6.149,1.45
		s-2.05,1.05-6.149,1.45c-4.101,0.4-9.066,0.6-14.9,0.6c-5.833,0-10.783-0.2-14.85-0.6c-4.134-0.4-6.2-0.883-6.2-1.45
		s2.066-1.05,6.2-1.45c4.066-0.4,9.017-0.6,14.85-0.6C754.634,20.95,759.6,21.15,763.7,21.55z"/>
	<path style="fill-rule:evenodd;clip-rule:evenodd;fill:#684D38;" d="M478.4,21.5c3.5,0,6.467,0.117,8.9,0.35
		c2.467,0.267,3.7,0.566,3.7,0.9s-1.233,0.617-3.7,0.85c-2.466,0.233-5.433,0.35-8.9,0.35c-3.466,0-6.45-0.117-8.95-0.35
		c-2.467-0.233-3.7-0.517-3.7-0.85s1.233-0.633,3.7-0.9C471.917,21.617,474.9,21.5,478.4,21.5z"/>
	<path style="fill-rule:evenodd;clip-rule:evenodd;fill:#684D38;" d="M480.35,19.6c0-0.267,0.933-0.483,2.8-0.65
		c1.867-0.2,4.1-0.3,6.7-0.3c2.566,0,4.8,0.1,6.7,0.3c1.833,0.167,2.75,0.383,2.75,0.65s-0.917,0.483-2.75,0.65
		c-1.866,0.167-4.1,0.25-6.7,0.25c-2.633,0-4.867-0.083-6.7-0.25C481.283,20.083,480.35,19.867,480.35,19.6z"/>
	<path style="fill-rule:evenodd;clip-rule:evenodd;fill:#684D38;" d="M700.35,20.4c0-0.233,0.917-0.45,2.75-0.65
		c1.834-0.167,4.067-0.25,6.7-0.25c2.634,0,4.867,0.083,6.7,0.25c1.866,0.2,2.8,0.417,2.8,0.65c0,0.267-0.934,0.5-2.8,0.7
		c-1.8,0.167-4.033,0.25-6.7,0.25c-2.633,0-4.866-0.083-6.7-0.25C701.267,20.9,700.35,20.667,700.35,20.4z"/>
	<path style="fill-rule:evenodd;clip-rule:evenodd;fill:#684D38;" d="M503.35,20.35c0-0.333,1.633-0.5,4.9-0.5
		c3.3,0,4.95,0.167,4.95,0.5c0,0.3-1.65,0.45-4.95,0.45C504.983,20.8,503.35,20.65,503.35,20.35z"/>
	<path style="fill-rule:evenodd;clip-rule:evenodd;fill:#4F3B28;" d="M743.65,22.2c0-0.133,0.483-0.25,1.449-0.35
		c0.967-0.1,2.117-0.15,3.45-0.15c3.3,0,4.95,0.167,4.95,0.5c0,0.333-1.65,0.5-4.95,0.5C745.283,22.7,743.65,22.533,743.65,22.2z"/>
	<path style="fill-rule:evenodd;clip-rule:evenodd;fill:#4F3B28;" d="M760.35,22.95c1.934,0.2,2.9,0.417,2.9,0.65
		s-0.967,0.433-2.9,0.6c-1.966,0.167-4.3,0.25-7,0.25c-2.699,0-5.033-0.083-7-0.25c-1.933-0.167-2.899-0.367-2.899-0.6
		s0.967-0.45,2.899-0.65c1.934-0.167,4.267-0.25,7-0.25S758.417,22.783,760.35,22.95z"/>
	<path style="fill-rule:evenodd;clip-rule:evenodd;fill:#4F3B28;" d="M761.95,26.5c0-0.233,1.267-0.35,3.8-0.35
		c2.566,0,3.85,0.117,3.85,0.35s-1.283,0.35-3.85,0.35C763.217,26.85,761.95,26.733,761.95,26.5z"/>
	<path style="fill-rule:evenodd;clip-rule:evenodd;fill:#4F3B28;" d="M729.55,22.1c0-0.467,1.65-0.867,4.95-1.2
		c3.267-0.333,7.233-0.5,11.9-0.5c4.666,0,8.633,0.167,11.899,0.5c3.3,0.333,4.95,0.733,4.95,1.2s-1.65,0.85-4.95,1.15
		c-3.3,0.333-7.267,0.5-11.899,0.5c-4.634,0-8.601-0.167-11.9-0.5C731.2,22.95,729.55,22.567,729.55,22.1z"/>
	<path style="fill-rule:evenodd;clip-rule:evenodd;fill:#684D38;" d="M1020.45,22.75c1.833-0.033,5.649-0.05,11.45-0.05
		c-2.233,1.066-3.867,2.367-4.9,3.9c-0.967,1.5-2.9,2.883-5.8,4.15c-3.533,1.567-11.533,2.15-24,1.75
		c-0.567-0.033-11.983-0.683-34.25-1.95c-5.733-0.3-18.75-0.617-39.05-0.95c-20.601-0.3-38.834-0.867-54.7-1.7
		c-21.367-1.333-34.75-2.066-40.15-2.2c-6.666-0.133-14.816,0.6-24.45,2.2c-9.466,1.567-19.566,2.684-30.3,3.35
		c-4.533,0.3-12.566,0.617-24.1,0.95c-3.601,0.1-11.533,0.933-23.8,2.5c-12.334,1.533-23.184,2.45-32.551,2.75
		c-11.133,0.367-20.983,0.133-29.55-0.7c-4.166-0.4-11.483-1.45-21.95-3.15c-4.933-0.8-11.133-0.8-18.6,0
		c-7.866,0.8-14.934,0.8-21.2,0c-9.434-1.233-15.083-3.8-16.95-7.7c-0.6-1.2-0.783-2.467-0.55-3.8l0.55-1.65
		c3.434,4.733,12.967,6.95,28.601,6.65c0.934,0,6.816-0.467,17.649-1.4c6.601-0.567,13.667-0.367,21.2,0.6
		c9.367,1.2,18.733,1.684,28.101,1.45c9.233-0.267,16.55-1.167,21.949-2.7c3.5-1,11.25-1.2,23.25-0.6
		c15.267,0.767,28.233,0.767,38.9,0c9.667-0.667,19.9-0.967,30.7-0.9c7.5,0.034,14.583-0.483,21.25-1.55
		c7.899-1.233,17.684-1.6,29.35-1.1c6.667,0.267,16.8,0.85,30.4,1.75c1.6,0.067,15.55,0.25,41.85,0.55
		c19.934,0.233,34.167,0.85,42.7,1.85c9,1.067,15.883,1.2,20.65,0.4c7.666-1.333,14.05-2.067,19.149-2.2
		C1012.267,22.95,1018.65,22.783,1020.45,22.75z"/>
	<path style="fill-rule:evenodd;clip-rule:evenodd;fill:#5C4532;" d="M1021.2,28.55c3.233-1.433,4.833-1.767,4.8-1
		c-0.033,0.767-1.633,1.833-4.8,3.2c-3.533,1.567-11.533,2.15-24,1.75c-0.567-0.033-11.983-0.683-34.25-1.95
		c-5.733-0.3-18.75-0.617-39.05-0.95c-20.601-0.3-38.834-0.867-54.7-1.7c-21.367-1.333-34.75-2.066-40.15-2.2
		c-6.666-0.133-14.816,0.6-24.45,2.2c-9.466,1.567-19.566,2.684-30.3,3.35c-4.533,0.3-12.566,0.617-24.1,0.95
		c-3.601,0.1-11.533,0.933-23.8,2.5c-12.334,1.533-23.184,2.45-32.551,2.75c-11.133,0.367-20.983,0.133-29.55-0.7
		c-4.166-0.4-11.483-1.45-21.95-3.15c-4.933-0.8-11.133-0.8-18.6,0c-7.866,0.8-14.934,0.8-21.2,0c-6.533-1.2-9.833-2.1-9.899-2.7
		c-0.067-0.566,3.233-0.417,9.899,0.45c6.3,0.833,13.367,0.833,21.2,0c7.5-0.767,13.7-0.767,18.6,0c10.5,1.7,17.817,2.75,21.95,3.15
		c8.566,0.867,18.417,1.117,29.55,0.75c9.334-0.3,20.184-1.233,32.551-2.8c12.199-1.567,20.133-2.4,23.8-2.5
		c11.866-0.333,19.899-0.633,24.1-0.9c10.767-0.667,20.867-1.783,30.3-3.35c9.667-1.633,17.817-2.383,24.45-2.25
		c5.4,0.133,18.783,0.883,40.15,2.25c15.833,0.8,34.066,1.367,54.7,1.7c20.199,0.267,33.216,0.567,39.05,0.9
		c7.3,0.434,18.717,1.083,34.25,1.95C1009.667,30.683,1017.667,30.117,1021.2,28.55z"/>
	<path style="fill-rule:evenodd;clip-rule:evenodd;fill:#684D38;" d="M708.9,24.15c0,1.367-3.217,2.55-9.65,3.55
		c-6.467,0.966-14.25,1.45-23.35,1.45c-9.101,0-16.884-0.483-23.351-1.45c-6.467-1-9.7-2.184-9.7-3.55s3.233-2.533,9.7-3.5
		c6.434-0.967,14.217-1.45,23.351-1.45c9.1,0,16.883,0.483,23.35,1.45C705.684,21.617,708.9,22.783,708.9,24.15z"/>
	<path style="fill-rule:evenodd;clip-rule:evenodd;fill:#4F3B28;" d="M705.05,22.45c0,1.1-2.583,2.05-7.75,2.85
		c-5.2,0.8-11.45,1.2-18.75,1.2c-7.267,0-13.5-0.4-18.7-1.2c-5.199-0.8-7.8-1.75-7.8-2.85c0-1.133,2.601-2.1,7.8-2.9
		c5.167-0.8,11.4-1.2,18.7-1.2s13.55,0.4,18.75,1.2C702.467,20.35,705.05,21.317,705.05,22.45z"/>
	<path style="fill-rule:evenodd;clip-rule:evenodd;fill:#684D38;" d="M797.65,22.6c0,0.566-1.184,1.05-3.551,1.45
		c-2.366,0.4-5.233,0.6-8.6,0.6s-6.233-0.2-8.6-0.6c-2.367-0.4-3.551-0.883-3.551-1.45c0-0.567,1.184-1.05,3.551-1.45
		c2.366-0.4,5.233-0.6,8.6-0.6s6.233,0.2,8.6,0.6C796.467,21.55,797.65,22.033,797.65,22.6z"/>
	<path style="fill-rule:evenodd;clip-rule:evenodd;fill:#684D38;" d="M872.25,18.85c0,0.333-0.7,0.633-2.1,0.9
		c-1.434,0.233-3.15,0.35-5.15,0.35c-2.033,0-3.75-0.117-5.15-0.35c-1.433-0.233-2.149-0.533-2.149-0.9
		c0-0.333,0.717-0.617,2.149-0.85c1.434-0.233,3.15-0.35,5.15-0.35s3.717,0.117,5.15,0.35C871.55,18.233,872.25,18.517,872.25,18.85
		z"/>
	<path style="fill-rule:evenodd;clip-rule:evenodd;fill:#684D38;" d="M605.65,23.7c0,0.267-0.534,0.483-1.601,0.65
		c-1.066,0.2-2.35,0.3-3.85,0.3s-2.783-0.1-3.851-0.3c-1.066-0.167-1.6-0.383-1.6-0.65c0-0.267,0.533-0.483,1.6-0.65
		c1.067-0.2,2.351-0.3,3.851-0.3s2.783,0.1,3.85,0.3C605.116,23.217,605.65,23.433,605.65,23.7z"/>
	<path style="fill-rule:evenodd;clip-rule:evenodd;fill:#684D38;" d="M626.7,23.35c0,0.3-0.934,0.45-2.8,0.45
		c-1.9,0-2.851-0.15-2.851-0.45c0-0.333,0.95-0.5,2.851-0.5C625.767,22.85,626.7,23.017,626.7,23.35z"/>
	<path style="fill-rule:evenodd;clip-rule:evenodd;fill:#684D38;" d="M756.3,22.75c0,0.333-0.934,0.5-2.8,0.5
		c-1.9,0-2.85-0.167-2.85-0.5c0-0.3,0.949-0.45,2.85-0.45C755.366,22.3,756.3,22.45,756.3,22.75z"/>
	<path style="fill-rule:evenodd;clip-rule:evenodd;fill:#684D38;" d="M637.15,24.7c0,0.333-0.95,0.5-2.851,0.5
		c-0.767,0-1.434-0.05-2-0.15c-0.566-0.1-0.85-0.216-0.85-0.35s0.283-0.25,0.85-0.35s1.233-0.15,2-0.15s1.45,0.05,2.05,0.15
		C636.884,24.45,637.15,24.567,637.15,24.7z"/>
	<path style="fill-rule:evenodd;clip-rule:evenodd;fill:#684D38;" d="M762.05,23.65c0,0.3-0.95,0.45-2.85,0.45
		c-1.9,0-2.851-0.15-2.851-0.45c0-0.333,0.95-0.5,2.851-0.5C761.1,23.15,762.05,23.317,762.05,23.65z"/>
	<path style="fill-rule:evenodd;clip-rule:evenodd;fill:#4F3B28;" d="M606.8,25.05c0,0.3-0.95,0.45-2.85,0.45
		c-1.867,0-2.8-0.15-2.8-0.45c0-0.333,0.933-0.5,2.8-0.5C605.85,24.55,606.8,24.717,606.8,25.05z"/>
	<path style="fill-rule:evenodd;clip-rule:evenodd;fill:#4F3B28;" d="M606.9,26.8c0,0.267-0.551,0.483-1.65,0.65
		c-1.134,0.167-2.483,0.25-4.05,0.25s-2.917-0.083-4.05-0.25c-1.134-0.167-1.7-0.383-1.7-0.65c0-0.233,0.566-0.45,1.7-0.65
		c1.133-0.167,2.483-0.25,4.05-0.25s2.916,0.083,4.05,0.25C606.35,26.35,606.9,26.567,606.9,26.8z"/>
	<path style="fill-rule:evenodd;clip-rule:evenodd;fill:#4F3B28;" d="M798,21.6c0,0.467-0.95,0.867-2.85,1.2
		c-1.9,0.333-4.2,0.5-6.9,0.5c-2.667,0-4.95-0.167-6.85-0.5c-1.9-0.333-2.851-0.733-2.851-1.2s0.95-0.85,2.851-1.15
		c1.899-0.333,4.183-0.5,6.85-0.5c2.7,0,5,0.167,6.9,0.5C797.05,20.75,798,21.133,798,21.6z"/>
	<path style="fill-rule:evenodd;clip-rule:evenodd;fill:#684D38;" d="M738.85,22.5c0,0.567-2.05,1.05-6.149,1.45
		c-4.101,0.4-9.066,0.6-14.9,0.6c-5.833,0-10.783-0.2-14.85-0.6c-4.134-0.4-6.2-0.883-6.2-1.45s2.066-1.05,6.2-1.45
		c4.066-0.4,9.017-0.6,14.85-0.6c5.834,0,10.8,0.2,14.9,0.6C736.8,21.45,738.85,21.933,738.85,22.5z"/>
	<path style="fill-rule:evenodd;clip-rule:evenodd;fill:#684D38;" d="M749.35,24.25c0,0.333-1.233,0.633-3.699,0.9
		c-2.434,0.233-5.4,0.35-8.9,0.35s-6.483-0.117-8.95-0.35s-3.7-0.533-3.7-0.9c0-0.333,1.233-0.633,3.7-0.9
		c2.467-0.233,5.45-0.35,8.95-0.35s6.467,0.117,8.9,0.35C748.116,23.617,749.35,23.917,749.35,24.25z"/>
	<path style="fill-rule:evenodd;clip-rule:evenodd;fill:#684D38;" d="M753.6,27c0,0.267-0.933,0.483-2.8,0.65
		c-1.866,0.2-4.1,0.3-6.7,0.3c-2.6,0-4.833-0.1-6.699-0.3c-1.867-0.167-2.801-0.383-2.801-0.65s0.934-0.483,2.801-0.65
		c1.866-0.2,4.1-0.3,6.699-0.3c2.601,0,4.834,0.1,6.7,0.3C752.667,26.517,753.6,26.733,753.6,27z"/>
	<path style="fill-rule:evenodd;clip-rule:evenodd;fill:#684D38;" d="M757.3,25.1c3.3,0,4.95,0.15,4.95,0.45
		c0,0.333-1.65,0.5-4.95,0.5s-4.95-0.167-4.95-0.5C752.35,25.25,754,25.1,757.3,25.1z"/>
	<path style="fill-rule:evenodd;clip-rule:evenodd;fill:#4F3B28;" d="M717.85,30.35c0.967,0.133,1.45,0.267,1.45,0.4
		c0,0.367-1.649,0.55-4.95,0.55c-3.267,0-4.899-0.183-4.899-0.55c0-0.133,0.483-0.267,1.45-0.4c0.966-0.1,2.116-0.15,3.449-0.15
		C715.717,30.2,716.884,30.25,717.85,30.35z"/>
	<path style="fill-rule:evenodd;clip-rule:evenodd;fill:#4F3B28;" d="M674.9,28.85c3.3,0,4.949,0.167,4.949,0.5
		c0,0.3-1.649,0.45-4.949,0.45c-3.267,0-4.9-0.15-4.9-0.45C670,29.017,671.634,28.85,674.9,28.85z"/>
	<path style="fill-rule:evenodd;clip-rule:evenodd;fill:#4F3B28;" d="M670.95,30.7c0,0.267-0.967,0.483-2.9,0.65
		c-1.899,0.167-4.233,0.25-7,0.25c-2.733,0-5.066-0.083-7-0.25c-1.934-0.167-2.899-0.383-2.899-0.65c0-0.233,0.966-0.45,2.899-0.65
		c1.934-0.167,4.267-0.25,7-0.25c2.767,0,5.101,0.083,7,0.25C669.983,30.25,670.95,30.467,670.95,30.7z"/>
	<path style="fill-rule:evenodd;clip-rule:evenodd;fill:#4F3B28;" d="M694.3,33.4c0,0.267-0.967,0.483-2.899,0.65
		c-1.934,0.167-4.267,0.25-7,0.25s-5.067-0.083-7-0.25c-1.934-0.167-2.9-0.383-2.9-0.65c0-0.233,0.967-0.433,2.9-0.6
		c1.933-0.167,4.267-0.25,7-0.25c2.699,0,5.033,0.083,7,0.25C693.333,32.967,694.3,33.167,694.3,33.4z"/>
	<path style="fill-rule:evenodd;clip-rule:evenodd;fill:#4F3B28;" d="M660.15,28.4c0,0.067-0.367,0.133-1.101,0.2
		c-0.767,0.066-1.684,0.1-2.75,0.1c-1.033,0-1.934-0.034-2.7-0.1c-0.733-0.067-1.1-0.133-1.1-0.2c0-0.233,1.267-0.35,3.8-0.35
		C658.866,28.05,660.15,28.167,660.15,28.4z"/>
	<path style="fill-rule:evenodd;clip-rule:evenodd;fill:#4F3B28;" d="M939.4,26c0,0.233-1.284,0.35-3.851,0.35
		c-2.533,0-3.8-0.117-3.8-0.35c0-0.2,1.267-0.3,3.8-0.3C938.116,25.7,939.4,25.8,939.4,26z"/>
	<path style="fill-rule:evenodd;clip-rule:evenodd;fill:#4F3B28;" d="M711.3,31.75c0,0.233-1.283,0.35-3.85,0.35
		s-3.851-0.117-3.851-0.35s1.284-0.35,3.851-0.35S711.3,31.517,711.3,31.75z"/>
	<path style="fill-rule:evenodd;clip-rule:evenodd;fill:#4F3B28;" d="M739.5,21.5c0,0.467-1.65,0.867-4.95,1.2
		c-3.267,0.333-7.233,0.5-11.899,0.5c-4.7,0-8.684-0.167-11.95-0.5c-3.3-0.333-4.95-0.733-4.95-1.2s1.65-0.867,4.95-1.2
		c3.333-0.333,7.316-0.5,11.95-0.5c4.6,0,8.566,0.167,11.899,0.5C737.85,20.633,739.5,21.033,739.5,21.5z"/>
	<path style="fill-rule:evenodd;clip-rule:evenodd;fill:#684D38;" d="M1014.05,22.35c0,0.566-2.05,1.05-6.149,1.45
		c-4.134,0.4-9.101,0.6-14.9,0.6c-5.767,0-10.717-0.2-14.85-0.6c-4.134-0.4-6.2-0.883-6.2-1.45c0-0.567,2.066-1.067,6.2-1.5
		c4.1-0.4,9.05-0.6,14.85-0.6s10.767,0.2,14.9,0.6C1012,21.283,1014.05,21.783,1014.05,22.35z"/>
	<path style="fill-rule:evenodd;clip-rule:evenodd;fill:#684D38;" d="M892.6,22.4c0,0.367-1.233,0.667-3.699,0.9
		c-2.467,0.233-5.45,0.35-8.95,0.35s-6.467-0.117-8.9-0.35c-2.467-0.267-3.7-0.566-3.7-0.9c0-0.333,1.233-0.617,3.7-0.85
		c2.467-0.233,5.434-0.35,8.9-0.35c3.5,0,6.483,0.117,8.95,0.35C891.366,21.783,892.6,22.067,892.6,22.4z"/>
	<path style="fill-rule:evenodd;clip-rule:evenodd;fill:#684D38;" d="M1022.2,23.95c0,0.267-0.934,0.483-2.8,0.65
		c-1.867,0.2-4.101,0.3-6.7,0.3c-2.601,0-4.833-0.1-6.7-0.3c-1.867-0.167-2.8-0.383-2.8-0.65c0-0.267,0.933-0.483,2.8-0.65
		c1.867-0.2,4.1-0.3,6.7-0.3c2.6,0,4.833,0.1,6.7,0.3C1021.267,23.467,1022.2,23.683,1022.2,23.95z"/>
	<path style="fill-rule:evenodd;clip-rule:evenodd;fill:#684D38;" d="M1024.7,22.75c0,0.3-1.65,0.45-4.95,0.45
		c-3.267,0-4.9-0.15-4.9-0.45c0-0.333,1.634-0.5,4.9-0.5C1023.05,22.25,1024.7,22.417,1024.7,22.75z"/>
	<path style="fill-rule:evenodd;clip-rule:evenodd;fill:#4F3B28;" d="M992.35,24.5c0,0.3-1.649,0.45-4.949,0.45
		c-3.268,0-4.9-0.15-4.9-0.45c0-0.333,1.633-0.5,4.9-0.5C990.7,24,992.35,24.167,992.35,24.5z"/>
	<path style="fill-rule:evenodd;clip-rule:evenodd;fill:#4F3B28;" d="M1014.95,27c0,0.267-0.967,0.483-2.9,0.65
		c-1.933,0.167-4.267,0.25-7,0.25s-5.066-0.083-7-0.25c-1.933-0.167-2.899-0.383-2.899-0.65c0-0.233,0.967-0.45,2.899-0.65
		c1.934-0.167,4.267-0.25,7-0.25s5.067,0.083,7,0.25C1013.983,26.55,1014.95,26.767,1014.95,27z"/>
	<path style="fill-rule:evenodd;clip-rule:evenodd;fill:#4F3B28;" d="M832.3,21.5c0,0.267-0.967,0.483-2.899,0.65
		c-1.9,0.167-4.233,0.25-7,0.25c-2.733,0-5.067-0.083-7-0.25c-1.934-0.167-2.9-0.383-2.9-0.65c0-0.233,0.967-0.45,2.9-0.65
		c1.933-0.167,4.267-0.25,7-0.25c2.767,0,5.1,0.083,7,0.25C831.333,21.05,832.3,21.267,832.3,21.5z"/>
	<path style="fill-rule:evenodd;clip-rule:evenodd;fill:#4F3B28;" d="M993.95,25.85c0,0.233-1.267,0.35-3.8,0.35
		c-2.567,0-3.851-0.117-3.851-0.35s1.283-0.35,3.851-0.35C992.684,25.5,993.95,25.617,993.95,25.85z"/>
	<path style="fill-rule:evenodd;clip-rule:evenodd;fill:#4F3B28;" d="M985.5,23.1c0,0.233-1.267,0.35-3.8,0.35
		c-2.567,0-3.851-0.117-3.851-0.35s1.283-0.35,3.851-0.35C984.233,22.75,985.5,22.867,985.5,23.1z"/>
	<path style="fill-rule:evenodd;clip-rule:evenodd;fill:#4F3B28;" d="M930.85,25.3c0,0.167-0.566,0.25-1.699,0.25
		c-1.101,0-1.65-0.083-1.65-0.25c0-0.167,0.55-0.25,1.65-0.25C930.283,25.05,930.85,25.133,930.85,25.3z"/>
	<path style="fill-rule:evenodd;clip-rule:evenodd;fill:#4F3B28;" d="M1025.85,23.55c0,0.167-0.55,0.25-1.649,0.25
		c-1.134,0-1.7-0.083-1.7-0.25c0-0.167,0.566-0.25,1.7-0.25C1025.3,23.3,1025.85,23.383,1025.85,23.55z"/>
	<path style="fill-rule:evenodd;clip-rule:evenodd;fill:#4F3B28;" d="M1022.75,24.3c0,0.167-0.566,0.25-1.7,0.25
		c-1.1,0-1.649-0.083-1.649-0.25c0-0.2,0.55-0.3,1.649-0.3C1022.184,24,1022.75,24.1,1022.75,24.3z"/>
	<path style="fill-rule:evenodd;clip-rule:evenodd;fill:#4F3B28;" d="M831.75,20c0,0.233-1.283,0.35-3.85,0.35
		c-2.567,0-3.851-0.117-3.851-0.35s1.283-0.35,3.851-0.35C830.467,19.65,831.75,19.767,831.75,20z"/>
	<path style="fill-rule:evenodd;clip-rule:evenodd;fill:#4F3B28;" d="M918.95,24.7c0,0.233-1.283,0.35-3.851,0.35
		c-2.533,0-3.8-0.117-3.8-0.35c0-0.233,1.267-0.35,3.8-0.35C917.667,24.35,918.95,24.467,918.95,24.7z"/>
	<path style="fill-rule:evenodd;clip-rule:evenodd;fill:#4F3B28;" d="M1018.55,21c0,0.467-1.649,0.85-4.95,1.15
		c-3.3,0.333-7.267,0.5-11.899,0.5c-4.634,0-8.617-0.167-11.95-0.5c-3.3-0.3-4.95-0.683-4.95-1.15s1.65-0.867,4.95-1.2
		c3.3-0.333,7.283-0.5,11.95-0.5s8.633,0.167,11.899,0.5C1016.9,20.133,1018.55,20.533,1018.55,21z"/>
	<path style="fill-rule:evenodd;clip-rule:evenodd;fill:#684D38;" d="M835.45,19.15c4.1,0.4,6.149,0.883,6.149,1.45
		c0,0.566-2.05,1.066-6.149,1.5c-4.134,0.4-9.101,0.6-14.9,0.6s-10.75-0.2-14.85-0.6c-4.134-0.434-6.2-0.934-6.2-1.5
		c0-0.567,2.066-1.05,6.2-1.45c4.133-0.4,9.083-0.6,14.85-0.6S831.283,18.75,835.45,19.15z"/>
	<path style="fill-rule:evenodd;clip-rule:evenodd;fill:#4F3B28;" d="M818.2,20.75c0,0.333-1.5,0.6-4.5,0.8
		c-2.967,0.233-6.566,0.35-10.8,0.35s-7.834-0.117-10.801-0.35c-3-0.2-4.5-0.466-4.5-0.8c0-0.3,1.5-0.567,4.5-0.8
		c3.034-0.233,6.634-0.35,10.801-0.35c4.166,0,7.767,0.117,10.8,0.35C816.7,20.183,818.2,20.45,818.2,20.75z"/>
	<path style="fill-rule:evenodd;clip-rule:evenodd;fill:#684D38;" d="M924.75,23c0-0.567,2.05-1.05,6.15-1.45
		c4.066-0.4,9.017-0.6,14.85-0.6s10.8,0.2,14.9,0.6c4.1,0.4,6.149,0.883,6.149,1.45s-2.05,1.05-6.149,1.45
		c-4.101,0.4-9.067,0.6-14.9,0.6s-10.783-0.2-14.85-0.6C926.8,24.05,924.75,23.567,924.75,23z"/>
	<path style="fill-rule:evenodd;clip-rule:evenodd;fill:#684D38;" d="M684.25,21.85c2.467,0.267,3.7,0.566,3.7,0.9
		s-1.233,0.617-3.7,0.85s-5.434,0.35-8.9,0.35c-3.466,0-6.449-0.117-8.949-0.35c-2.467-0.233-3.7-0.517-3.7-0.85
		s1.233-0.633,3.7-0.9c2.466-0.233,5.449-0.35,8.949-0.35S681.816,21.617,684.25,21.85z"/>
	<path style="fill-rule:evenodd;clip-rule:evenodd;fill:#684D38;" d="M680.1,18.95c1.867-0.2,4.101-0.3,6.7-0.3
		c2.566,0,4.8,0.1,6.7,0.3c1.833,0.167,2.75,0.383,2.75,0.65s-0.917,0.483-2.75,0.65c-1.866,0.167-4.1,0.25-6.7,0.25
		c-2.633,0-4.866-0.083-6.7-0.25c-1.866-0.167-2.8-0.383-2.8-0.65S678.233,19.117,680.1,18.95z"/>
	<path style="fill-rule:evenodd;clip-rule:evenodd;fill:#684D38;" d="M897.3,20.4c0-0.233,0.934-0.45,2.8-0.65
		c1.834-0.167,4.051-0.25,6.65-0.25c2.634,0,4.866,0.083,6.7,0.25c1.866,0.2,2.8,0.417,2.8,0.65c0,0.267-0.934,0.5-2.8,0.7
		c-1.8,0.167-4.033,0.25-6.7,0.25c-2.634,0-4.85-0.083-6.65-0.25C898.233,20.9,897.3,20.667,897.3,20.4z"/>
	<path style="fill-rule:evenodd;clip-rule:evenodd;fill:#684D38;" d="M700.3,20.35c0-0.333,1.65-0.5,4.95-0.5
		c3.267,0,4.9,0.167,4.9,0.5c0,0.3-1.634,0.45-4.9,0.45C701.95,20.8,700.3,20.65,700.3,20.35z"/>
	<path style="fill-rule:evenodd;clip-rule:evenodd;fill:#4F3B28;" d="M940.6,22.2c0-0.133,0.483-0.25,1.45-0.35
		c1-0.1,2.167-0.15,3.5-0.15c1.334,0,2.483,0.05,3.45,0.15s1.45,0.217,1.45,0.35c0,0.333-1.634,0.5-4.9,0.5
		C942.25,22.7,940.6,22.533,940.6,22.2z"/>
	<path style="fill-rule:evenodd;clip-rule:evenodd;fill:#4F3B28;" d="M940.4,23.6c0-0.233,0.966-0.45,2.899-0.65
		c1.934-0.167,4.267-0.25,7-0.25c2.767,0,5.101,0.083,7,0.25c1.934,0.2,2.9,0.417,2.9,0.65s-0.967,0.433-2.9,0.6
		c-1.934,0.167-4.267,0.25-7,0.25c-2.7,0-5.033-0.083-7-0.25C941.366,24.033,940.4,23.833,940.4,23.6z"/>
	<path style="fill-rule:evenodd;clip-rule:evenodd;fill:#4F3B28;" d="M962.75,26.15c2.533,0,3.8,0.117,3.8,0.35
		s-1.267,0.35-3.8,0.35c-2.566,0-3.85-0.117-3.85-0.35S960.184,26.15,962.75,26.15z"/>
	<path style="fill-rule:evenodd;clip-rule:evenodd;fill:#4F3B28;" d="M926.5,22.1c0-0.467,1.65-0.867,4.95-1.2
		c3.267-0.333,7.233-0.5,11.899-0.5c4.667,0,8.65,0.167,11.95,0.5c3.3,0.333,4.95,0.733,4.95,1.2s-1.65,0.85-4.95,1.15
		c-3.333,0.333-7.316,0.5-11.95,0.5c-4.633,0-8.6-0.167-11.899-0.5C928.15,22.95,926.5,22.567,926.5,22.1z"/>
</g>
</svg>
