<?xml version="1.0" encoding="iso-8859-1"?>
<!-- Generator: Adobe Illustrator 15.1.0, SVG Export Plug-In . SVG Version: 6.00 Build 0)  -->
<!DOCTYPE svg PUBLIC "-//W3C//DTD SVG 1.1//EN" "http://www.w3.org/Graphics/SVG/1.1/DTD/svg11.dtd">
<svg version="1.1" id="boat" xmlns="http://www.w3.org/2000/svg" xmlns:xlink="http://www.w3.org/1999/xlink" x="0px" y="0px"
	 width="227.6px" height="85.1px" viewBox="0 0 227.6 85.1" style="enable-background:new 0 0 227.6 85.1;" xml:space="preserve">
<symbol  id="FlashAICB_x2F_boat_x2F__x3C_Clip_Group_0_x3E_" viewBox="0 -85.119 227.6 85.119">
	<g id="Layer_1_4_">
	</g>
	<g>
		<defs>
			<path id="SVGID_1_" d="M0,0v-42.2c8.6-2.1,18.383-4.716,29.35-7.85c21.933-6.233,38.883-11.934,50.85-17.1
				c14.2-6.1,27.867-10.067,41-11.9c12.8-1.8,23.716-1.383,32.75,1.25c10.566,3.066,25.083,6.183,43.55,9.35
				c9.233,1.6,17.417,2.883,24.55,3.85l5.55,46.3L0,0z"/>
		</defs>
		<clipPath id="SVGID_2_">
			<use xlink:href="#SVGID_1_"  style="overflow:visible;"/>
		</clipPath>
		<g id="Layer_3_2_" style="clip-path:url(#SVGID_2_);">
			<path style="fill-rule:evenodd;clip-rule:evenodd;fill:#80774E;" d="M195.85-69.55c-2.567-1.8-4.967-3.35-7.2-4.65
				c-4.2-2.433-8.833-4.45-13.9-6.05c-15.2-4.767-34.883-6.033-59.05-3.8c-25.633,2.367-47.5,6.816-65.6,13.35
				c-13.8,5-24.2,10.667-31.2,17c-4.667,4.2-7.65,12.633-8.95,25.3C9.317-22.067,9.133-16.15,9.4-10.65
				c4.033-3.4,11.617-7.1,22.75-11.1c22.333-7.967,51.367-13.467,87.1-16.5c27.133-2.3,51.367-2.2,72.7,0.3
				c10.7,1.267,18.667,2.75,23.9,4.45c-2.267-5.367-4.8-10.883-7.6-16.55C202.65-61.417,198.517-67.917,195.85-69.55z"/>
			
				<use xlink:href="#FlashAICB_x2F_boat_x2F__x3C_Clip_Group_0_x3E__x5F_0"  width="210.4" height="74.469" y="-74.469" transform="matrix(1 0 0 1 5.4502 -10.6499)" style="overflow:visible;"/>
		</g>
	</g>
	<g id="Layer_4_2_">
	</g>
</symbol>
<symbol  id="FlashAICB_x2F_boat_x2F__x3C_Clip_Group_0_x3E__x5F_0" viewBox="0 -74.469 210.4 74.469">
	<g id="Layer_1_3_">
	</g>
	<g>
		<defs>
			<path id="SVGID_3_" d="M186.5-27.3c-21.333-2.5-45.567-2.6-72.7-0.3c-35.733,3.033-64.767,8.533-87.1,16.5
				C15.567-7.1,7.983-3.4,3.95,0C3.683-5.5,3.867-11.417,4.5-17.75c1.3-12.667,4.283-21.1,8.95-25.3c7-6.333,17.4-12,31.2-17
				c18.1-6.534,39.967-10.983,65.6-13.35c24.167-2.233,43.85-0.967,59.05,3.8c5.067,1.6,9.7,3.617,13.9,6.05
				c2.233,1.3,4.633,2.85,7.2,4.65c2.667,1.633,6.8,8.133,12.4,19.5c2.8,5.667,5.333,11.183,7.6,16.55
				C205.167-24.55,197.2-26.033,186.5-27.3z"/>
		</defs>
		<clipPath id="SVGID_4_">
			<use xlink:href="#SVGID_3_"  style="overflow:visible;"/>
		</clipPath>
		<g id="Layer_3_1_" style="clip-path:url(#SVGID_4_);">
			<g>
				<path style="fill-rule:evenodd;clip-rule:evenodd;fill:#5C5538;" d="M206.9-38.05l-1.1-1.8
					c-5.167-1.767-13.316-3.217-24.45-4.35c-22.267-2.267-48.317-1.883-78.15,1.15C71.967-39.883,45.667-34.4,24.3-26.6
					C13.6-22.667,6.033-19.067,1.6-15.8L1.65-14c3.167-3,9.783-6.4,19.85-10.2c20.1-7.633,47.35-13.517,81.75-17.65
					c27.867-3.367,53.5-3.75,76.9-1.15C191.85-41.7,200.767-40.05,206.9-38.05z"/>
				<path style="fill-rule:evenodd;clip-rule:evenodd;fill:#5C5538;" d="M206.1-46.65l-1.1-1.8
					c-5.167-1.767-13.317-3.216-24.45-4.35c-22.267-2.3-48.316-1.934-78.15,1.1C71.167-48.5,44.867-43,23.5-35.2
					C12.8-31.267,5.233-27.667,0.8-24.4l0.1,1.75C4.067-25.617,10.667-29,20.7-32.8c20.1-7.633,47.35-13.517,81.75-17.65
					c27.867-3.367,53.5-3.75,76.9-1.15C191.05-50.3,199.967-48.65,206.1-46.65z"/>
				<path style="fill-rule:evenodd;clip-rule:evenodd;fill:#5C5538;" d="M205.35-55.25l-1.1-1.8
					c-5.167-1.767-13.317-3.217-24.45-4.35c-22.3-2.3-48.367-1.934-78.2,1.1c-31.233,3.2-57.533,8.7-78.9,16.5
					C12-39.867,4.433-36.267,0-33l0.1,1.75c3.167-2.967,9.767-6.367,19.8-10.2c20.1-7.6,47.35-13.483,81.75-17.65
					c27.867-3.367,53.517-3.733,76.95-1.1C190.3-58.9,199.217-57.25,205.35-55.25z"/>
			</g>
			
				<use xlink:href="#FlashAICB_x2F_boat_x2F__x3C_Path_x3E_"  width="199.85" height="51.619" y="-51.619" transform="matrix(1 0 0 1 10.5498 -22.8501)" style="overflow:visible;opacity:0.3008;enable-background:new    ;"/>
		</g>
	</g>
	<g id="Layer_4_1_">
	</g>
</symbol>
<symbol  id="FlashAICB_x2F_boat_x2F__x3C_Path_x3E_" viewBox="0 -51.619 199.85 51.619">
	<g id="Layer_1_2_">
		<path style="fill-rule:evenodd;clip-rule:evenodd;fill:#80774E;" d="M170.7-5c8.133,0.8,15.433,1.867,21.9,3.2
			c3.233,0.667,5.65,1.267,7.25,1.8c-2.267-5.367-4.8-10.883-7.6-16.55c-5.6-11.367-9.733-17.867-12.4-19.5
			c-2.567-1.8-4.967-3.35-7.2-4.65c-4.2-2.433-8.833-4.45-13.9-6.05c-15.2-4.767-34.883-6.033-59.05-3.8
			c-25.633,2.367-47.5,6.816-65.6,13.35c-13.8,5-24.2,10.667-31.2,17c-1,0.867-1.967,2.017-2.9,3.45
			C8.933-21.117,19.433-24.867,31.5-28c14.3-3.667,30.35-6.317,48.15-7.95c24.167-2.233,43.85-0.966,59.05,3.8
			c5.066,1.566,9.7,3.566,13.9,6c2.233,1.3,4.633,2.867,7.2,4.7C162.167-20.05,165.8-14.567,170.7-5z"/>
	</g>
</symbol>
<g>
	<path style="fill-rule:evenodd;clip-rule:evenodd;fill:#6D5E41;" d="M120,25.65c18.8,1.967,40.533,3.7,65.2,5.2
		c12.3,0.767,22.733,1.316,31.3,1.65c-5.5,3.4-14.066,6.35-25.7,8.85c-23.267,4.933-50.267,5.083-81,0.45
		C69.767,35.733,40.833,28.55,23,20.25c-5.6-2.6-9.75-5.15-12.45-7.65l-2.35-3l38.95,6.25C76.883,20.383,101.167,23.65,120,25.65z"
		/>
	<path style="fill-rule:evenodd;clip-rule:evenodd;fill:#493F2B;" d="M119.7,28.05c18.833,1.967,40.483,3.684,64.95,5.15
		c12.199,0.733,22.533,1.267,31,1.6c-5.367,3.267-13.817,6.1-25.351,8.5c-23.066,4.834-49.983,5.117-80.75,0.851
		c-30.767-4.234-56.716-10.867-77.85-19.9c-6.6-2.833-12.317-5.733-17.15-8.7l-5.3-3.6l38.3,6.25
		C76.85,22.767,100.9,26.05,119.7,28.05z"/>
	
		<use xlink:href="#FlashAICB_x2F_boat_x2F__x3C_Clip_Group_0_x3E_"  width="227.6" height="85.119" y="-85.119" transform="matrix(1 0 0 -1 0 0)" style="overflow:visible;"/>
	<path style="fill-rule:evenodd;clip-rule:evenodd;fill:#A19662;" d="M110.1,36.9c27.867,3.367,53.966,3.65,78.3,0.85
		c12.166-1.4,21.533-3.15,28.1-5.25l-2.9,8.1c-3,2.1-9.6,3.833-19.8,5.2c-20.399,2.767-48.6,2.3-84.6-1.399
		C78,41.2,51.767,35.883,30.5,28.45c-6.633-2.333-12.367-4.75-17.2-7.25l-5.3-3l0.2-8.6l4.3,2.85c4.167,2.4,9.4,4.75,15.7,7.05
		C48.4,26.967,75.7,32.767,110.1,36.9z"/>
</g>
</svg>
