<?xml version="1.0" encoding="iso-8859-1"?>
<!-- Generator: Adobe Illustrator 15.1.0, SVG Export Plug-In . SVG Version: 6.00 Build 0)  -->
<!DOCTYPE svg PUBLIC "-//W3C//DTD SVG 1.1//EN" "http://www.w3.org/Graphics/SVG/1.1/DTD/svg11.dtd">
<svg version="1.1" id="FlashAICB" xmlns="http://www.w3.org/2000/svg" xmlns:xlink="http://www.w3.org/1999/xlink" x="0px" y="0px"
	 width="599.45px" height="643.45px" viewBox="0 0 599.45 643.45" style="enable-background:new 0 0 599.45 643.45;"
	 xml:space="preserve">
<g>
	<path style="fill-rule:evenodd;clip-rule:evenodd;fill:#8A6320;" d="M501.38,328.603c21.635,102.177,20.09,177.626-4.637,226.351
		c-31.998,63.087-104.721,92.45-218.169,88.087c-45.998-1.819-82.813-10.591-110.448-26.316
		c-25.634-14.545-44.497-35.908-56.587-64.088c-10.726-24.907-16.954-57.179-18.681-96.812
		c-1.271-29.545-0.045-70.814,3.682-123.813c5.727-81.358,13.272-144.855,22.636-190.488c9.181-44.634,21.226-77.542,36.134-98.722
		c13.453-19,31.543-31.362,54.269-37.089c14.909-3.817,40.406-5.727,76.495-5.727c39.543,0,64.042,0.91,73.497,2.727
		c20.907,3.91,37.997,14.5,51.269,31.772c14.636,19.09,28.862,51.36,42.68,96.813C466.699,174.658,482.653,240.427,501.38,328.603z"
		/>
</g>
<g>
	
		<radialGradient id="SVGID_1_" cx="-56.647" cy="-81.8296" r="10.9111" gradientTransform="matrix(-2.4756 -1.144 0.2907 -6.0889 12.3023 -257.8721)" gradientUnits="userSpaceOnUse">
		<stop  offset="0" style="stop-color:#000000"/>
		<stop  offset="0.8824" style="stop-color:#000000;stop-opacity:0.2863"/>
		<stop  offset="1" style="stop-color:#000000;stop-opacity:0"/>
	</radialGradient>
	<path style="fill-rule:evenodd;clip-rule:evenodd;fill:url(#SVGID_1_);" d="M111.403,246.79c5.272-7.908,12.044-9.954,20.316-6.136
		c8.273,3.819,14.59,11.909,18.954,24.272c4.908,13.907,6.863,31.816,5.863,53.724c-1.091,23.727-3.772,39.27-8.044,46.634
		c-4.637,7.817-12.545,9.136-23.727,3.955c-10.908-5.001-17.999-13.228-21.271-24.682c-2.91-10.271-3.772-27.498-2.591-51.678
		C101.903,270.97,105.403,255.607,111.403,246.79z"/>
	
		<linearGradient id="SVGID_2_" gradientUnits="userSpaceOnUse" x1="38.4644" y1="112.0933" x2="55.8644" y2="112.0933" gradientTransform="matrix(2.7271 0 0 2.7271 -1.831055e-004 -0.1495)">
		<stop  offset="0" style="stop-color:#24170F"/>
		<stop  offset="1" style="stop-color:#3B281D"/>
	</linearGradient>
	<path style="fill-rule:evenodd;clip-rule:evenodd;fill:url(#SVGID_2_);" d="M114.13,256.607c4.454-6.545,10.136-8.227,17.044-5.045
		c6.999,3.273,12.317,10.045,15.954,20.317c4.181,11.545,5.817,26.407,4.908,44.589c-0.91,19.726-3.136,32.634-6.682,38.724
		c-3.908,6.546-10.545,7.637-19.907,3.272c-9.182-4.272-15.135-11.181-17.862-20.726c-2.456-8.545-3.228-22.862-2.318-42.952
		C106.175,276.606,109.13,263.88,114.13,256.607z"/>
</g>
<g>
	
		<radialGradient id="SVGID_3_" cx="82.8735" cy="139.6899" r="15.8506" gradientTransform="matrix(2.7269 -0.0313 -0.0332 -2.8925 9.0207 784.829)" gradientUnits="userSpaceOnUse">
		<stop  offset="0" style="stop-color:#000000"/>
		<stop  offset="0.8824" style="stop-color:#000000;stop-opacity:0.2863"/>
		<stop  offset="1" style="stop-color:#000000;stop-opacity:0"/>
	</radialGradient>
	<path style="fill-rule:evenodd;clip-rule:evenodd;fill:url(#SVGID_3_);" d="M198.67,344.557
		c7.726-7.091,18.18-10.726,31.362-10.908c13.18-0.182,23.68,3.183,31.498,10.091c8.727,7.726,13.182,19.135,13.363,34.225
		c0.182,16.727-2.364,28.136-7.636,34.226c-5.908,6.818-17.59,10.317-35.043,10.499c-17.817,0.183-30.043-3.046-36.679-9.681
		c-6.273-6.182-9.5-17.499-9.682-33.953C185.762,363.965,190.034,352.465,198.67,344.557z"/>
	
		<linearGradient id="SVGID_4_" gradientUnits="userSpaceOnUse" x1="70.749" y1="138.6997" x2="98.2036" y2="138.6997" gradientTransform="matrix(2.7271 0 0 2.7271 -1.831055e-004 -0.1495)">
		<stop  offset="0" style="stop-color:#24170F"/>
		<stop  offset="1" style="stop-color:#3B281D"/>
	</linearGradient>
	<path style="fill-rule:evenodd;clip-rule:evenodd;fill:url(#SVGID_4_);" d="M203.716,350.148
		c6.454-5.818,15.271-8.818,26.452-9.001c11.091-0.181,19.909,2.637,26.454,8.455c7.362,6.363,11.089,15.816,11.181,28.361
		c0.181,13.908-1.909,23.363-6.273,28.361c-4.999,5.728-14.862,8.637-29.589,8.728c-14.999,0.183-25.316-2.499-30.952-8.045
		c-5.183-5.091-7.863-14.453-8.045-28.089C192.853,366.283,196.442,356.693,203.716,350.148z"/>
</g>
<g>
	
		<radialGradient id="SVGID_5_" cx="81.375" cy="96.6406" r="19.6619" gradientTransform="matrix(2.7269 -0.0312 -0.033 -2.8917 6.2042 542.8417)" gradientUnits="userSpaceOnUse">
		<stop  offset="0" style="stop-color:#000000"/>
		<stop  offset="0.8824" style="stop-color:#000000;stop-opacity:0.2863"/>
		<stop  offset="1" style="stop-color:#000000;stop-opacity:0"/>
	</radialGradient>
	<path style="fill-rule:evenodd;clip-rule:evenodd;fill:url(#SVGID_5_);" d="M280.075,260.698
		c0.181,20.726-2.955,34.816-9.409,42.27c-7.364,8.455-21.862,12.818-43.498,13.091c-22.089,0.272-37.27-3.727-45.542-12
		c-7.728-7.726-11.681-21.771-11.863-42.133c-0.183-18.726,5.091-32.998,15.817-42.816c9.545-8.817,22.545-13.317,38.999-13.498
		c16.362-0.183,29.361,4.044,38.997,12.681C274.393,227.837,279.893,241.972,280.075,260.698z"/>
	<path style="fill-rule:evenodd;clip-rule:evenodd;fill:#33231A;" d="M271.348,260.698c0.183,17.182-2.454,28.907-7.908,35.179
		c-6.182,7-18.363,10.59-36.543,10.773c-18.636,0.182-31.409-3.136-38.317-9.954c-6.545-6.363-9.909-17.999-10.089-34.908
		c-0.183-15.543,4.226-27.407,13.225-35.588c8.091-7.271,19.044-10.999,32.863-11.181c13.726-0.181,24.68,3.273,32.861,10.364
		C266.53,233.291,271.165,245.063,271.348,260.698z"/>
</g>
</svg>
