<?xml version="1.0" encoding="iso-8859-1"?>
<!-- Generator: Adobe Illustrator 15.1.0, SVG Export Plug-In . SVG Version: 6.00 Build 0)  -->
<!DOCTYPE svg PUBLIC "-//W3C//DTD SVG 1.1//EN" "http://www.w3.org/Graphics/SVG/1.1/DTD/svg11.dtd">
<svg version="1.1" id="cattails" xmlns="http://www.w3.org/2000/svg" xmlns:xlink="http://www.w3.org/1999/xlink" x="0px" y="0px"
	 width="32px" height="470.55px" viewBox="0 0 32 470.55" style="enable-background:new 0 0 32 470.55;" xml:space="preserve">
<symbol  id="FlashAICB_x2F_cattails_x2F__x3C_Group_x3E_" viewBox="0 -143.35 25.9 143.35">
	<g id="Layer_1_2_">
		<g>
			<path style="fill-rule:evenodd;clip-rule:evenodd;fill:#42361B;" d="M18.25-18.15c0.467,1.367,0.967,3.017,1.5,4.95L23.7,0
				L8.15-60.65c-0.467-2.167-0.867-4.2-1.2-6.1c-0.4-2-0.75-4-1.05-6c-0.2-1.233-0.483-3.217-0.85-5.95L4.4-84.6
				c-0.2-2.533-0.316-4.433-0.35-5.7l-1-47.3c0-1.467,0.167-2.917,0.5-4.35c-1.066,0.967-1.9,2.117-2.5,3.45
				c-0.667,1.4-1,2.983-1,4.75L0-132l1.65,45.2l0.65,5.65c0.133,1.167,0.4,3.083,0.8,5.75l3.7,17.7L18.25-18.15z"/>
			<path style="fill-rule:evenodd;clip-rule:evenodd;fill:#42361B;" d="M17.65-63.8c0.2,2,0.45,4.083,0.75,6.25l7.5,56.1l-6.15-68
				L19.5-75.7c-0.067-2.733-0.083-4.767-0.05-6.1c0-2.034,0.05-4.05,0.15-6.05c0.033-1.367,0.15-3.3,0.35-5.8l2.45-41.8
				c-0.033-1.8-0.483-3.383-1.35-4.75c-0.8-1.333-1.883-2.383-3.25-3.15c0.367,1.2,0.55,2.517,0.55,3.95L16.4-88.15
				c-0.033,1.967-0.033,3.95,0,5.95c0.067,2.667,0.15,4.684,0.25,6.05L17.65-63.8z"/>
		</g>
	</g>
</symbol>
<symbol  id="FlashAICB_x2F_cattails_x2F__x3C_Path_x3E_" viewBox="0 -23.7 3.779 23.7">
	<g id="Layer_1_3_">
		<linearGradient id="SVGID_1_" gradientUnits="userSpaceOnUse" x1="0.0249" y1="-11.8501" x2="3.7749" y2="-11.8501">
			<stop  offset="0.0078" style="stop-color:#9F7B29"/>
			<stop  offset="0.5569" style="stop-color:#A78845"/>
			<stop  offset="1" style="stop-color:#9F7B29"/>
		</linearGradient>
		<path style="fill-rule:evenodd;clip-rule:evenodd;fill:url(#SVGID_1_);" d="M3.05,0l0.3-2.5c0.167-1.6,0.3-3.433,0.4-5.5
			c0.067-2.133,0.017-4.033-0.15-5.7c-0.1-1.5-0.4-3.066-0.9-4.7c-0.4-1.5-0.817-2.767-1.25-3.8l-0.6-1.5L0.55-22
			c-0.233,1.733-0.383,3.117-0.45,4.15c-0.133,2-0.133,3.667,0,5c0.066,1.1,0.4,2.917,1,5.45L3.05,0z"/>
	</g>
</symbol>
<symbol  id="FlashAICB_x2F_cattails_x2F__x3C_Path_x3E__x5F_0" viewBox="0 -15.9 6.25 15.9">
	<g id="Layer_1_4_">
		
			<linearGradient id="SVGID_2_" gradientUnits="userSpaceOnUse" x1="-1786.3213" y1="-2410.2759" x2="-1783.2164" y2="-2410.2759" gradientTransform="matrix(0.9655 -0.2604 0.2604 0.9655 2353.7178 1854.501)">
			<stop  offset="0.0078" style="stop-color:#9F7B29"/>
			<stop  offset="0.5569" style="stop-color:#A78845"/>
			<stop  offset="1" style="stop-color:#9F7B29"/>
		</linearGradient>
		<path style="fill-rule:evenodd;clip-rule:evenodd;fill:url(#SVGID_2_);" d="M0-15.9c0,0.733,0.067,1.617,0.2,2.65
			c0.2,2.067,0.55,3.767,1.05,5.1c0.567,1.467,1.567,3.233,3,5.3c0.7,1.1,1.367,2.05,2,2.85L5.6-3.5
			c-0.567-2.567-1.117-4.567-1.65-6c-0.5-1.333-1.317-2.8-2.45-4.4L0-15.9z"/>
	</g>
</symbol>
<symbol  id="FlashAICB_x2F_cattails_x2F_Envelope" viewBox="0 -470.55 32 470.55">
	<g id="Layer_1_5_">
		<g>
			<g>
				<linearGradient id="SVGID_3_" gradientUnits="userSpaceOnUse" x1="8.625" y1="-316.875" x2="13.775" y2="-316.875">
					<stop  offset="0.0078" style="stop-color:#6E582D"/>
					<stop  offset="0.5569" style="stop-color:#7A6741"/>
					<stop  offset="1" style="stop-color:#6E582D"/>
				</linearGradient>
				<path style="fill-rule:evenodd;clip-rule:evenodd;fill:url(#SVGID_3_);" d="M9.4-164c0.5,0.533,1.1,0.8,1.8,0.8
					c0.733,0,1.35-0.267,1.85-0.8c0.5-0.5,0.75-1.1,0.75-1.8v-302.15c0-0.733-0.25-1.35-0.75-1.85s-1.117-0.75-1.85-0.75
					c-0.7,0-1.3,0.25-1.8,0.75c-0.533,0.5-0.8,1.117-0.8,1.85v302.15C8.6-165.1,8.867-164.5,9.4-164z"/>
				<linearGradient id="SVGID_4_" gradientUnits="userSpaceOnUse" x1="2.7749" y1="-170.8999" x2="19.625" y2="-170.8999">
					<stop  offset="0.0078" style="stop-color:#6E582D"/>
					<stop  offset="0.5569" style="stop-color:#7A6741"/>
					<stop  offset="1" style="stop-color:#6E582D"/>
				</linearGradient>
				<path style="fill-rule:evenodd;clip-rule:evenodd;fill:url(#SVGID_4_);" d="M19.65-169.45c0-1-0.383-1.933-1.15-2.8
					c-0.7-0.8-1.717-1.467-3.05-2c-1.233-0.5-2.65-0.75-4.25-0.75c-1.567,0-2.983,0.25-4.25,0.75c-1.333,0.533-2.333,1.2-3,2
					c-0.767,0.833-1.15,1.767-1.15,2.8c0,1.333,0.817,2.167,2.45,2.5c0.6,0.1,2.583,0.15,5.95,0.15s5.35-0.05,5.95-0.15
					C18.817-167.283,19.65-168.117,19.65-169.45z"/>
				<linearGradient id="SVGID_5_" gradientUnits="userSpaceOnUse" x1="0.0127" y1="-94.4312" x2="25.8628" y2="-94.4312">
					<stop  offset="0.0078" style="stop-color:#9F7B29"/>
					<stop  offset="0.5569" style="stop-color:#A78845"/>
					<stop  offset="1" style="stop-color:#9F7B29"/>
				</linearGradient>
				<path style="fill-rule:evenodd;clip-rule:evenodd;fill:url(#SVGID_5_);" d="M25.9-26.1l-1.6-25l-2.85-24.15l-1.65-19
					c-0.133-2.033-0.233-4.117-0.3-6.25c-0.067-2.733-0.083-4.783-0.05-6.15l2.95-54c-0.033-1.8-0.467-3.383-1.3-4.75
					c-0.8-1.3-1.867-2.333-3.2-3.1c-1.167-0.733-2.617-1.233-4.35-1.5c-1.633-0.2-3.2-0.133-4.7,0.2c-1.6,0.367-3.05,1-4.35,1.9
					c-1.367,0.933-2.433,2.133-3.2,3.6c-0.833,1.667-1.25,3.45-1.25,5.35l1.8,48.8l0.7,5.85L7.5-80.1c1,3.8,1.55,5.833,1.65,6.1
					l16.5,55.25L25.9-26.1z"/>
				<g>
					<linearGradient id="SVGID_6_" gradientUnits="userSpaceOnUse" x1="-3.5376" y1="-151.6748" x2="25.6374" y2="-151.6748">
						<stop  offset="0.0078" style="stop-color:#866622"/>
						<stop  offset="0.5569" style="stop-color:#8D733B"/>
						<stop  offset="1" style="stop-color:#866622"/>
					</linearGradient>
					<path style="fill-rule:evenodd;clip-rule:evenodd;fill:url(#SVGID_6_);" d="M0.25-144.55c1.367-0.633,2.667-1.117,3.9-1.45
						c1.934-0.433,3.767-0.65,5.5-0.65c1.567,0,3.2,0.2,4.9,0.6c1.3,0.3,2.65,0.75,4.05,1.35c1.1,0.5,2.1,1.034,3,1.6l0.7-14.25
						c-1.033-0.533-1.983-0.95-2.85-1.25c-1.067-0.4-2.3-0.75-3.7-1.05c-1.5-0.333-3-0.517-4.5-0.55
						c-1.333-0.1-2.817-0.05-4.45,0.15c-1.367,0.133-2.633,0.383-3.8,0.75c-0.967,0.267-1.967,0.6-3,1L0.25-144.55z"/>
					<linearGradient id="SVGID_7_" gradientUnits="userSpaceOnUse" x1="-1.6001" y1="-126.5874" x2="23.6999" y2="-126.5874">
						<stop  offset="0.0078" style="stop-color:#866622"/>
						<stop  offset="0.5569" style="stop-color:#8D733B"/>
						<stop  offset="1" style="stop-color:#866622"/>
					</linearGradient>
					<path style="fill-rule:evenodd;clip-rule:evenodd;fill:url(#SVGID_7_);" d="M1.2-120.05c1.167-0.633,2.316-1.1,3.45-1.4
						c1.7-0.466,3.417-0.7,5.15-0.7c1.367,0,2.75,0.167,4.15,0.5c1.1,0.267,2.25,0.633,3.45,1.1c0.867,0.4,1.717,0.833,2.55,1.3
						l0.9-12.15c-1.4-0.7-2.75-1.233-4.05-1.6c-1.8-0.5-3.65-0.8-5.55-0.9c-1.633-0.067-3.083,0-4.35,0.2
						c-1.333,0.2-2.517,0.45-3.55,0.75l-2.65,1L1.2-120.05z"/>
					<linearGradient id="SVGID_8_" gradientUnits="userSpaceOnUse" x1="-0.1123" y1="-105.8149" x2="21.5127" y2="-105.8149">
						<stop  offset="0.0078" style="stop-color:#866622"/>
						<stop  offset="0.5569" style="stop-color:#8D733B"/>
						<stop  offset="1" style="stop-color:#866622"/>
					</linearGradient>
					<path style="fill-rule:evenodd;clip-rule:evenodd;fill:url(#SVGID_8_);" d="M19.55-99.1L19.5-110
						c-1.333-0.7-2.55-1.233-3.65-1.6c-1.8-0.566-3.517-0.867-5.15-0.9c-1.867-0.1-3.633,0.05-5.3,0.45
						c-1.233,0.3-2.433,0.733-3.6,1.3l1.4,10.6c0.9-0.533,1.833-0.934,2.8-1.2c1.3-0.4,2.717-0.6,4.25-0.6c1.9,0,3.733,0.333,5.5,1
						C16.917-100.55,18.183-99.933,19.55-99.1z"/>
					<linearGradient id="SVGID_9_" gradientUnits="userSpaceOnUse" x1="4.0249" y1="-85.2769" x2="22.8749" y2="-85.2769">
						<stop  offset="0.0078" style="stop-color:#866622"/>
						<stop  offset="0.5569" style="stop-color:#8D733B"/>
						<stop  offset="1" style="stop-color:#866622"/>
					</linearGradient>
					<path style="fill-rule:evenodd;clip-rule:evenodd;fill:url(#SVGID_9_);" d="M13.4-82c1.267,0,2.717,0.25,4.35,0.75
						c1.067,0.367,2.133,0.85,3.2,1.45l-0.8-9c-1-0.5-2.033-0.9-3.1-1.2c-1.2-0.4-2.583-0.65-4.15-0.75
						c-1.7-0.033-3.25,0.133-4.65,0.5c-0.9,0.267-1.867,0.65-2.9,1.15l2.1,8.8c0.6-0.434,1.35-0.817,2.25-1.15
						C10.933-81.817,12.167-82,13.4-82z"/>
					<linearGradient id="SVGID_10_" gradientUnits="userSpaceOnUse" x1="7.4751" y1="-66.1792" x2="24.3251" y2="-66.1792">
						<stop  offset="0.0078" style="stop-color:#866622"/>
						<stop  offset="0.5569" style="stop-color:#8D733B"/>
						<stop  offset="1" style="stop-color:#866622"/>
					</linearGradient>
					<path style="fill-rule:evenodd;clip-rule:evenodd;fill:url(#SVGID_10_);" d="M23.1-61.35l-0.9-7.7
						c-0.967-0.534-1.917-0.934-2.85-1.2c-1.133-0.4-2.467-0.65-4-0.75c-0.967-0.033-1.95,0.033-2.95,0.2
						c-0.867,0.167-1.6,0.367-2.2,0.6l2.15,7.45c1.1-0.467,2.35-0.7,3.75-0.7s2.767,0.25,4.1,0.75
						C21.067-62.4,22.033-61.95,23.1-61.35z"/>
					<linearGradient id="SVGID_11_" gradientUnits="userSpaceOnUse" x1="10.0249" y1="-54.2139" x2="26.9749" y2="-54.2139">
						<stop  offset="0.0078" style="stop-color:#866622"/>
						<stop  offset="0.5569" style="stop-color:#8D733B"/>
						<stop  offset="1" style="stop-color:#866622"/>
					</linearGradient>
					<path style="fill-rule:evenodd;clip-rule:evenodd;fill:url(#SVGID_11_);" d="M24.4-49.75l-0.85-7.6
						C22.717-57.717,21.9-58,21.1-58.2c-0.967-0.267-1.983-0.417-3.05-0.45c-1.533-0.1-2.966,0.066-4.3,0.5l2.25,7.4
						c0.933-0.233,1.883-0.35,2.85-0.35c1.033,0,2.05,0.133,3.05,0.4C22.733-50.467,23.567-50.15,24.4-49.75z"/>
					<linearGradient id="SVGID_12_" gradientUnits="userSpaceOnUse" x1="15.5498" y1="-39.728" x2="27.6498" y2="-39.728">
						<stop  offset="0.0078" style="stop-color:#866622"/>
						<stop  offset="0.5569" style="stop-color:#8D733B"/>
						<stop  offset="1" style="stop-color:#866622"/>
					</linearGradient>
					<path style="fill-rule:evenodd;clip-rule:evenodd;fill:url(#SVGID_12_);" d="M25.55-36.55l-0.4-5.5
						c-1.333-0.534-2.583-0.817-3.75-0.85c-0.967-0.033-1.933,0.066-2.9,0.3l1.65,5.4c0.667-0.133,1.233-0.2,1.7-0.2
						C23.05-37.4,24.283-37.117,25.55-36.55z"/>
					<linearGradient id="SVGID_13_" gradientUnits="userSpaceOnUse" x1="17.875" y1="-28.0952" x2="29.425" y2="-28.0952">
						<stop  offset="0.0078" style="stop-color:#866622"/>
						<stop  offset="0.5569" style="stop-color:#8D733B"/>
						<stop  offset="1" style="stop-color:#866622"/>
					</linearGradient>
					<path style="fill-rule:evenodd;clip-rule:evenodd;fill:url(#SVGID_13_);" d="M25.9-25.2l-0.05-5.45
						c-0.934-0.2-1.667-0.3-2.2-0.3C22.983-31.017,22.433-31,22-30.9l1.65,5.45h0.25C24.567-25.45,25.233-25.367,25.9-25.2z"/>
				</g>
				
					<use xlink:href="#FlashAICB_x2F_cattails_x2F__x3C_Group_x3E_"  width="25.9" height="143.35" y="-143.35" transform="matrix(1 0 0 1 0 -25.2002)" style="overflow:visible;opacity:0.1992;enable-background:new    ;"/>
				<g>
					
						<use xlink:href="#FlashAICB_x2F_cattails_x2F__x3C_Path_x3E_"  width="3.779" height="23.7" x="0" y="-23.7" transform="matrix(1 0 0 1 24.5 0)" style="overflow:visible;opacity:0.5;enable-background:new    ;"/>
					<path style="fill-rule:evenodd;clip-rule:evenodd;fill:#BB9E65;fill-opacity:0.498;" d="M27.3-8c-0.066-2.2-0.167-4.1-0.3-5.7
						c-0.133-1.367-0.35-2.933-0.65-4.7l-1.15-5.3l0.2,5.85c0.067,1.7,0.167,3.367,0.3,5L27.2,0l0.1-2.5
						C27.367-4.033,27.367-5.867,27.3-8z"/>
				</g>
				<g>
					
						<use xlink:href="#FlashAICB_x2F_cattails_x2F__x3C_Path_x3E__x5F_0"  width="6.25" height="15.9" y="-15.9" transform="matrix(1 0 0 1 25.75 -7.75)" style="overflow:visible;opacity:0.5;enable-background:new    ;"/>
					<path style="fill-rule:evenodd;clip-rule:evenodd;fill:#BB9E65;fill-opacity:0.498;" d="M25.65-23.65l0.65,2.55
						c0.833,2.633,1.367,4.283,1.6,4.95c0.3,0.8,1.1,2.633,2.4,5.5l1.4,3l-0.95-3.45c-0.7-2.4-1.35-4.367-1.95-5.9
						c-0.433-1.2-1.117-2.717-2.05-4.55L25.65-23.65z"/>
				</g>
			</g>
		</g>
	</g>
</symbol>
<use xlink:href="#FlashAICB_x2F_cattails_x2F_Envelope"  width="32" height="470.55" y="-470.55" transform="matrix(1 0 0 -1 0 0)" style="overflow:visible;"/>
</svg>
