<?xml version="1.0" encoding="iso-8859-1"?>
<!-- Generator: Adobe Illustrator 15.1.0, SVG Export Plug-In . SVG Version: 6.00 Build 0)  -->
<!DOCTYPE svg PUBLIC "-//W3C//DTD SVG 1.1//EN" "http://www.w3.org/Graphics/SVG/1.1/DTD/svg11.dtd">
<svg version="1.1" id="cattails" xmlns="http://www.w3.org/2000/svg" xmlns:xlink="http://www.w3.org/1999/xlink" x="0px" y="0px"
	 width="42.8px" height="452px" viewBox="0 0 42.8 452" style="enable-background:new 0 0 42.8 452;" xml:space="preserve">
<symbol  id="FlashAICB_x2F_cattails_x2F__x3C_Group_x3E_" viewBox="0 -132.65 31.25 132.65">
	<g id="Layer_1_2_">
		<g>
			<path style="fill-rule:evenodd;clip-rule:evenodd;fill:#3D3817;" d="M0,0l6.15-18.55l1.3-5.15c0.4-1.533,0.8-3.283,1.2-5.25
				L10.6-39.9c0.3-1.967,0.55-3.85,0.75-5.65c0.033-0.233,0.233-2.15,0.6-5.75l0.4-5.75c0.167-1.967,0.267-3.917,0.3-5.85l0.2-11.8
				l-0.95-52.2c0.067-1.733,0.25-3.184,0.55-4.35c-1.133,1.033-1.983,2.183-2.55,3.45c-0.667,1.5-1,3.083-1,4.75l1.25,42.4
				c0.1,1.933,0.15,3.9,0.15,5.9L9.95-51.2c-0.1,1.967-0.25,3.883-0.45,5.75l-1.3,11.2c-0.233,1.8-0.534,3.617-0.9,5.45L3.9-13.4
				L0,0z"/>
			<path style="fill-rule:evenodd;clip-rule:evenodd;fill:#3D3817;" d="M5-3.6l4.75-8.2c0.633-1.167,1.4-2.7,2.3-4.6
				c0.767-1.5,1.517-3.133,2.25-4.9l6-16.4c0.4-1.267,0.967-3.233,1.7-5.9l4.05-18.45l4.1-40.5l1.1-22.2
				c-0.033-1.833-0.467-3.417-1.3-4.75c-0.767-1.3-1.85-2.35-3.25-3.15c0.333,1.267,0.5,2.583,0.5,3.95l-0.45,16.65L23.4-62.6
				c-0.4,2.7-0.7,4.733-0.9,6.1l-2.4,11.95c-0.6,2.6-1.083,4.533-1.45,5.8L17.1-33.1l-5.65,15.75l-8.8,17.3
				C3.083-0.65,3.867-1.833,5-3.6z"/>
		</g>
	</g>
</symbol>
<symbol  id="FlashAICB_x2F_cattails_x2F__x3C_Path_x3E_" viewBox="0 -15.95 3.853 15.95">
	<g id="Layer_1_3_">
		
			<linearGradient id="SVGID_1_" gradientUnits="userSpaceOnUse" x1="-1796.2891" y1="-2416.8315" x2="-1788.7814" y2="-2416.8315" gradientTransform="matrix(0.9653 -0.2611 0.2611 0.9653 2363.2036 1857.0293)">
			<stop  offset="0.0078" style="stop-color:#988B20"/>
			<stop  offset="0.5569" style="stop-color:#9F953D"/>
			<stop  offset="1" style="stop-color:#988B20"/>
		</linearGradient>
		<path style="fill-rule:evenodd;clip-rule:evenodd;fill:url(#SVGID_1_);" d="M3.6-15.95c-0.4,0.6-0.833,1.333-1.3,2.2
			c-1,2.033-1.617,3.55-1.85,4.55C0.15-7.967,0-6.033,0-3.4C0-2.133,0.033-1,0.1,0c0.467-0.933,0.95-2,1.45-3.2
			c0.967-2.4,1.6-4.3,1.9-5.7c0.367-1.434,0.483-3,0.35-4.7C3.767-14.533,3.7-15.317,3.6-15.95z"/>
	</g>
</symbol>
<symbol  id="FlashAICB_x2F_cattails_x2F__x3C_Path_x3E__x5F_0" viewBox="0 -10.6 11.95 10.6">
	<g id="Layer_1_4_">
		
			<linearGradient id="SVGID_2_" gradientUnits="userSpaceOnUse" x1="3164.3755" y1="2281.5654" x2="3172.0222" y2="2281.5654" gradientTransform="matrix(0.9414 0.3372 -0.3372 0.9414 -2207.4453 -3221.5005)">
			<stop  offset="0.0078" style="stop-color:#988B20"/>
			<stop  offset="0.5569" style="stop-color:#9F953D"/>
			<stop  offset="1" style="stop-color:#988B20"/>
		</linearGradient>
		<path style="fill-rule:evenodd;clip-rule:evenodd;fill:url(#SVGID_2_);" d="M11.95-10.6c-0.667,0.233-1.45,0.55-2.35,0.95
			C7.867-8.917,6.483-8.1,5.45-7.2c-0.967,0.833-2.167,2.284-3.6,4.35L0,0l3.05-1.8c2.233-1.434,3.833-2.55,4.8-3.35
			C8.883-6.083,9.867-7.267,10.8-8.7C11.3-9.433,11.683-10.067,11.95-10.6z"/>
	</g>
</symbol>
<symbol  id="FlashAICB_x2F_cattails_x2F_Envelope" viewBox="3.75 -456.75 42.8 452">
	<g id="Layer_1_5_">
		<g>
			<g>
				<linearGradient id="SVGID_3_" gradientUnits="userSpaceOnUse" x1="32.7749" y1="-303.0752" x2="37.9253" y2="-303.0752">
					<stop  offset="0.0078" style="stop-color:#6E582D"/>
					<stop  offset="0.5569" style="stop-color:#7A6741"/>
					<stop  offset="1" style="stop-color:#6E582D"/>
				</linearGradient>
				<path style="fill-rule:evenodd;clip-rule:evenodd;fill:url(#SVGID_3_);" d="M33.55-150.2c0.5,0.534,1.1,0.8,1.8,0.8
					c0.733,0,1.35-0.267,1.85-0.8c0.5-0.5,0.75-1.1,0.75-1.8v-302.15c0-0.733-0.25-1.35-0.75-1.85s-1.117-0.75-1.85-0.75
					c-0.7,0-1.3,0.25-1.8,0.75s-0.75,1.117-0.75,1.85V-152C32.8-151.3,33.05-150.7,33.55-150.2z"/>
				<linearGradient id="SVGID_4_" gradientUnits="userSpaceOnUse" x1="26.9248" y1="-157.1001" x2="43.7744" y2="-157.1001">
					<stop  offset="0.0078" style="stop-color:#6E582D"/>
					<stop  offset="0.5569" style="stop-color:#7A6741"/>
					<stop  offset="1" style="stop-color:#6E582D"/>
				</linearGradient>
				<path style="fill-rule:evenodd;clip-rule:evenodd;fill:url(#SVGID_4_);" d="M35.35-153c3.367,0,5.367-0.05,6-0.15
					c1.633-0.333,2.45-1.167,2.45-2.5c0-1.033-0.383-1.967-1.15-2.8c-0.7-0.8-1.7-1.466-3-2c-1.233-0.5-2.667-0.75-4.3-0.75
					c-1.567,0-2.983,0.25-4.25,0.75s-2.267,1.167-3,2c-0.767,0.833-1.15,1.767-1.15,2.8c0,1.333,0.816,2.167,2.45,2.5
					C30.033-153.05,32.017-153,35.35-153z"/>
				<linearGradient id="SVGID_5_" gradientUnits="userSpaceOnUse" x1="13.4502" y1="-86.2314" x2="46.5498" y2="-86.2314">
					<stop  offset="0.0078" style="stop-color:#988B20"/>
					<stop  offset="0.5569" style="stop-color:#9F953D"/>
					<stop  offset="1" style="stop-color:#988B20"/>
				</linearGradient>
				<path style="fill-rule:evenodd;clip-rule:evenodd;fill:url(#SVGID_5_);" d="M15.6-18.85l6.95-10.55l2.4-4.3
					c0.633-1.167,1.4-2.7,2.3-4.6c0.767-1.5,1.517-3.133,2.25-4.9l4.2-10.65l1.85-5.75c0.4-1.267,0.967-3.233,1.7-5.9l4.1-18.45
					l5-56.6l0.2-6.3c-0.033-1.8-0.466-3.383-1.3-4.75c-0.8-1.3-1.867-2.333-3.2-3.1c-1.167-0.733-2.6-1.233-4.3-1.5
					c-1.633-0.2-3.217-0.133-4.75,0.2s-2.967,0.967-4.3,1.9c-1.367,0.934-2.434,2.133-3.2,3.6c-0.8,1.533-1.233,3.317-1.3,5.35
					l1.25,67.95l-0.35,5.9c-0.067,1.333-0.233,3.3-0.5,5.9c-0.1,1.333-0.317,3.25-0.65,5.75l-2.9,16.5L17.2-28.3l-3.75,12.15
					C14.05-16.817,14.767-17.717,15.6-18.85z"/>
				<g>
					<linearGradient id="SVGID_6_" gradientUnits="userSpaceOnUse" x1="20.6626" y1="-137.8643" x2="49.8376" y2="-137.8643">
						<stop  offset="0.0078" style="stop-color:#7F721B"/>
						<stop  offset="0.5569" style="stop-color:#867C34"/>
						<stop  offset="1" style="stop-color:#7F721B"/>
					</linearGradient>
					<path style="fill-rule:evenodd;clip-rule:evenodd;fill:url(#SVGID_6_);" d="M45.75-129.3l0.75-14.25
						c-1.233-0.567-2.2-0.983-2.9-1.25c-1.067-0.4-2.3-0.75-3.7-1.05c-1.433-0.333-2.917-0.517-4.45-0.55
						c-1.3-0.067-2.8-0.017-4.5,0.15c-1.333,0.133-2.583,0.367-3.75,0.7l-3,1l0.25,13.8c1.267-0.633,2.55-1.117,3.85-1.45
						c1.967-0.433,3.8-0.65,5.5-0.65c1.6,0,3.25,0.2,4.95,0.6c1.233,0.3,2.583,0.75,4.05,1.35
						C43.9-130.367,44.883-129.833,45.75-129.3z"/>
					<linearGradient id="SVGID_7_" gradientUnits="userSpaceOnUse" x1="22.6001" y1="-112.7876" x2="47.9001" y2="-112.7876">
						<stop  offset="0.0078" style="stop-color:#7F721B"/>
						<stop  offset="0.5569" style="stop-color:#867C34"/>
						<stop  offset="1" style="stop-color:#7F721B"/>
					</linearGradient>
					<path style="fill-rule:evenodd;clip-rule:evenodd;fill:url(#SVGID_7_);" d="M44.1-105.45L45-117.6
						c-1.467-0.733-2.817-1.267-4.05-1.6c-1.8-0.5-3.65-0.8-5.55-0.9c-1.667-0.066-3.1,0-4.3,0.2c-1.367,0.2-2.55,0.45-3.55,0.75
						l-2.7,1l0.5,11.9c0.9-0.533,2.05-1,3.45-1.4c1.7-0.467,3.434-0.7,5.2-0.7c1.333,0,2.7,0.167,4.1,0.5
						c1.1,0.267,2.25,0.633,3.45,1.1C42.417-106.35,43.267-105.917,44.1-105.45z"/>
					<linearGradient id="SVGID_8_" gradientUnits="userSpaceOnUse" x1="23.7373" y1="-92.291" x2="45.0623" y2="-92.291">
						<stop  offset="0.0078" style="stop-color:#7F721B"/>
						<stop  offset="0.5569" style="stop-color:#867C34"/>
						<stop  offset="1" style="stop-color:#7F721B"/>
					</linearGradient>
					<path style="fill-rule:evenodd;clip-rule:evenodd;fill:url(#SVGID_8_);" d="M25.6-97.35l0.1,9.8
						c0.867-0.4,1.85-0.717,2.95-0.95c1.5-0.3,2.934-0.417,4.3-0.35c1.767,0.1,3.517,0.5,5.25,1.2c1.367,0.6,2.5,1.267,3.4,2
						l1.55-10.65c-1.066-0.633-2.217-1.167-3.45-1.6c-1.667-0.567-3.367-0.9-5.1-1c-1.7-0.1-3.467,0.033-5.3,0.4
						C28.067-98.267,26.833-97.883,25.6-97.35z"/>
					<linearGradient id="SVGID_9_" gradientUnits="userSpaceOnUse" x1="23.8374" y1="-72.9565" x2="41.5624" y2="-72.9565">
						<stop  offset="0.0078" style="stop-color:#7F721B"/>
						<stop  offset="0.5569" style="stop-color:#867C34"/>
						<stop  offset="1" style="stop-color:#7F721B"/>
					</linearGradient>
					<path style="fill-rule:evenodd;clip-rule:evenodd;fill:url(#SVGID_9_);" d="M35.15-69.2c1.033,0.567,1.9,1.167,2.6,1.8l2-8.35
						c-0.833-0.6-1.717-1.1-2.65-1.5c-1.233-0.5-2.533-0.867-3.9-1.1c-1.5-0.2-3.034-0.217-4.6-0.05c-1.033,0.1-2.067,0.333-3.1,0.7
						l-0.45,7.65c0.867-0.3,1.7-0.483,2.5-0.55c1.067-0.167,2.284-0.15,3.65,0.05C32.6-70.317,33.917-69.867,35.15-69.2z"/>
					<linearGradient id="SVGID_10_" gradientUnits="userSpaceOnUse" x1="20.8501" y1="-56.0996" x2="36.0501" y2="-56.0996">
						<stop  offset="0.0078" style="stop-color:#7F721B"/>
						<stop  offset="0.5569" style="stop-color:#867C34"/>
						<stop  offset="1" style="stop-color:#7F721B"/>
					</linearGradient>
					<path style="fill-rule:evenodd;clip-rule:evenodd;fill:url(#SVGID_10_);" d="M32.55-50.8l2.4-6.8
						c-0.567-0.566-1.3-1.133-2.2-1.7c-0.933-0.633-2.083-1.15-3.45-1.55c-0.933-0.267-1.883-0.433-2.85-0.5
						c-0.833-0.066-1.6-0.066-2.3,0L23.3-55c1.2-0.067,2.45,0.1,3.75,0.5c1.2,0.367,2.35,0.95,3.45,1.75
						C31.4-52.083,32.083-51.433,32.55-50.8z"/>
					<linearGradient id="SVGID_11_" gradientUnits="userSpaceOnUse" x1="17.9248" y1="-45.9502" x2="33.5748" y2="-45.9502">
						<stop  offset="0.0078" style="stop-color:#7F721B"/>
						<stop  offset="0.5569" style="stop-color:#867C34"/>
						<stop  offset="1" style="stop-color:#7F721B"/>
					</linearGradient>
					<path style="fill-rule:evenodd;clip-rule:evenodd;fill:url(#SVGID_11_);" d="M28.5-40.85l2.75-6.5
						c-0.533-0.467-1.167-0.95-1.9-1.45c-0.7-0.5-1.567-0.934-2.6-1.3c-1.333-0.5-2.7-0.816-4.1-0.95L21.4-44.7
						c0.8,0.1,1.7,0.35,2.7,0.75c0.667,0.233,1.517,0.7,2.55,1.4C27.25-42.117,27.867-41.55,28.5-40.85z"/>
					<linearGradient id="SVGID_12_" gradientUnits="userSpaceOnUse" x1="15.6123" y1="-33.7998" x2="27.3873" y2="-33.7998">
						<stop  offset="0.0078" style="stop-color:#7F721B"/>
						<stop  offset="0.5569" style="stop-color:#867C34"/>
						<stop  offset="1" style="stop-color:#7F721B"/>
					</linearGradient>
					<path style="fill-rule:evenodd;clip-rule:evenodd;fill:url(#SVGID_12_);" d="M22.9-30l2.45-4.45
						c-0.767-0.9-1.733-1.633-2.9-2.2c-0.934-0.467-1.833-0.783-2.7-0.95l-1.25,4.75c0.433,0.1,0.967,0.3,1.6,0.6
						C21.2-31.717,22.133-30.967,22.9-30z"/>
					<linearGradient id="SVGID_13_" gradientUnits="userSpaceOnUse" x1="10.3877" y1="-24.1748" x2="24.3127" y2="-24.1748">
						<stop  offset="0.0078" style="stop-color:#7F721B"/>
						<stop  offset="0.5569" style="stop-color:#867C34"/>
						<stop  offset="1" style="stop-color:#7F721B"/>
					</linearGradient>
					<path style="fill-rule:evenodd;clip-rule:evenodd;fill:url(#SVGID_13_);" d="M17.2-21.05l2.85-4.25
						c-0.466-0.434-1.033-0.85-1.7-1.25L16.9-27.3l-1.55,4.95l0.25,0.15C16.2-21.867,16.733-21.483,17.2-21.05z"/>
				</g>
				
					<use xlink:href="#FlashAICB_x2F_cattails_x2F__x3C_Group_x3E_"  width="31.25" height="132.65" y="-132.65" transform="matrix(1 0 0 1 15.2998 -22.1001)" style="overflow:visible;opacity:0.1992;enable-background:new    ;"/>
				<g>
					
						<use xlink:href="#FlashAICB_x2F_cattails_x2F__x3C_Path_x3E_"  width="3.853" height="15.95" y="-15.95" transform="matrix(1 0 0 1 11.8999 -4.75)" style="overflow:visible;opacity:0.5;enable-background:new    ;"/>
					<path style="fill-rule:evenodd;clip-rule:evenodd;fill:#B3A95D;fill-opacity:0.498;" d="M15.4-20.7l-0.8,2.3
						c-0.633,1.867-1.083,3.45-1.35,4.75c-0.233,0.933-0.583,2.8-1.05,5.6l-0.5,3.2l1.15-3.3c0.667-2.1,1.217-4.017,1.65-5.75
						c0.3-1.4,0.55-2.934,0.75-4.6L15.4-20.7z"/>
				</g>
				<g>
					
						<use xlink:href="#FlashAICB_x2F_cattails_x2F__x3C_Path_x3E__x5F_0"  width="11.95" height="10.6" y="-10.6" transform="matrix(1 0 0 1 3.9502 -9.25)" style="overflow:visible;opacity:0.5;enable-background:new    ;"/>
					<path style="fill-rule:evenodd;clip-rule:evenodd;fill:#B3A95D;fill-opacity:0.498;" d="M15.8-19.95l-1.95,1.35
						c-1.533,1.067-2.817,2.033-3.85,2.9c-0.8,0.7-2.133,1.983-4,3.85L3.75-9.5l2.85-2.05c1.8-1.333,3.333-2.534,4.6-3.6
						c1.2-1.033,2.283-2.1,3.25-3.2L15.8-19.95z"/>
				</g>
			</g>
		</g>
	</g>
</symbol>
<use xlink:href="#FlashAICB_x2F_cattails_x2F_Envelope"  width="42.8" height="452" x="3.75" y="-456.75" transform="matrix(1 0 0 -1 -3.75 -4.75)" style="overflow:visible;"/>
</svg>
