<?xml version="1.0" encoding="iso-8859-1"?>
<!-- Generator: Adobe Illustrator 15.1.0, SVG Export Plug-In . SVG Version: 6.00 Build 0)  -->
<!DOCTYPE svg PUBLIC "-//W3C//DTD SVG 1.1//EN" "http://www.w3.org/Graphics/SVG/1.1/DTD/svg11.dtd">
<svg version="1.1" id="cattails" xmlns="http://www.w3.org/2000/svg" xmlns:xlink="http://www.w3.org/1999/xlink" x="0px" y="0px"
	 width="14.85px" height="312.6px" viewBox="0 0 14.85 312.6" style="enable-background:new 0 0 14.85 312.6;" xml:space="preserve"
	>
<symbol  id="FlashAICB_x2F_cattails_x2F__x3C_Group_x3E__x5F_2" viewBox="-0.006 -95.2 14.865 95.2">
	<g id="Layer_1_2_">
		<g>
			<path style="fill-rule:evenodd;clip-rule:evenodd;fill:#050403;" d="M2.05-91.4c0-1.1,0.1-2.067,0.3-2.9
				C0.817-92.9,0.033-91.083,0-88.85c-0.067,6.767,0.4,19.684,1.4,38.75C2.633-27.3,4.033-10.6,5.6,0
				c-1-11.867-1.883-29.3-2.65-52.3C2.283-71.867,1.983-84.9,2.05-91.4z"/>
			<path style="fill-rule:evenodd;clip-rule:evenodd;fill:#050403;" d="M12.5-52.35c1.667-20.933,2.45-33.467,2.35-37.6
				c0-2.367-1-4.117-3-5.25c0.233,0.867,0.35,1.733,0.35,2.6c0.033,4.367-0.483,17.033-1.55,38C9.45-31.1,8.3-13.217,7.2-0.95
				C8.867-12.05,10.633-29.183,12.5-52.35z"/>
		</g>
	</g>
</symbol>
<symbol  id="FlashAICB_x2F_cattails_x2F__x3C_Path_x3E_" viewBox="0 -15.75 0.9 15.75">
	<g id="Layer_1_4_">
		<path style="fill-rule:evenodd;clip-rule:evenodd;fill:#7C6E51;" d="M0.5-15.75C0.167-13.083,0-10.683,0-8.55S0.2-3.567,0.6,0
			c0.2-3.933,0.3-6.967,0.3-9.1S0.767-13.45,0.5-15.75z"/>
	</g>
</symbol>
<symbol  id="FlashAICB_x2F_cattails_x2F__x3C_Path_x3E__x5F_0" viewBox="0 -10.6 2.95 10.6">
	<g id="Layer_1_6_">
		<path style="fill-rule:evenodd;clip-rule:evenodd;fill:#7C6E51;" d="M0-10.6c0.233,1.867,0.533,3.533,0.9,5
			C1.3-4.167,1.983-2.3,2.95,0c-0.534-2.667-1-4.733-1.4-6.2C1.183-7.633,0.667-9.1,0-10.6z"/>
	</g>
</symbol>
<symbol  id="FlashAICB_x2F_cattails_x2F__x3C_Path_x3E__x5F_1" viewBox="0 -15.75 2.4 15.75">
	<g id="Layer_1_3_">
		<linearGradient id="SVGID_1_" gradientUnits="userSpaceOnUse" x1="0" y1="-7.875" x2="2.3999" y2="-7.875">
			<stop  offset="0.0078" style="stop-color:#604E26"/>
			<stop  offset="0.5569" style="stop-color:#685937"/>
			<stop  offset="1" style="stop-color:#604E26"/>
		</linearGradient>
		<path style="fill-rule:evenodd;clip-rule:evenodd;fill:url(#SVGID_1_);" d="M1.35-15.75C0.45-13.083,0-10.683,0-8.55
			S0.533-3.567,1.6,0c0.533-3.933,0.8-6.967,0.8-9.1S2.05-13.45,1.35-15.75z"/>
	</g>
</symbol>
<symbol  id="FlashAICB_x2F_cattails_x2F__x3C_Path_x3E__x5F_1_x5F_0" viewBox="-0.01 -10.55 3.26 10.55">
	<g id="Layer_1_5_">
		
			<linearGradient id="SVGID_2_" gradientUnits="userSpaceOnUse" x1="-1816.8916" y1="-2428.6919" x2="-1814.848" y2="-2428.6919" gradientTransform="matrix(0.9651 -0.2619 0.2619 0.9651 2389.998 1863.1514)">
			<stop  offset="0.0078" style="stop-color:#604E26"/>
			<stop  offset="0.5569" style="stop-color:#685937"/>
			<stop  offset="1" style="stop-color:#604E26"/>
		</linearGradient>
		<path style="fill-rule:evenodd;clip-rule:evenodd;fill:url(#SVGID_2_);" d="M0.15-10.55c-0.267,2-0.2,3.716,0.2,5.15
			c0.4,1.433,1.367,3.233,2.9,5.4c-0.3-2.767-0.633-4.867-1-6.3C1.85-7.733,1.15-9.15,0.15-10.55z"/>
	</g>
</symbol>
<g>
	<linearGradient id="SVGID_3_" gradientUnits="userSpaceOnUse" x1="5.7373" y1="210.5254" x2="9.1623" y2="210.5254">
		<stop  offset="0.0078" style="stop-color:#2F2719"/>
		<stop  offset="0.5569" style="stop-color:#3C3427"/>
		<stop  offset="1" style="stop-color:#2F2719"/>
	</linearGradient>
	<path style="fill-rule:evenodd;clip-rule:evenodd;fill:url(#SVGID_3_);" d="M9.15,110.15v200.7c0,0.467-0.167,0.884-0.5,1.25
		c-0.334,0.334-0.733,0.5-1.2,0.5s-0.867-0.166-1.2-0.5c-0.333-0.366-0.5-0.783-0.5-1.25v-200.7c0-0.467,0.167-0.867,0.5-1.2
		c0.333-0.333,0.733-0.5,1.2-0.5s0.866,0.167,1.2,0.5C8.983,109.283,9.15,109.683,9.15,110.15z"/>
	<linearGradient id="SVGID_4_" gradientUnits="userSpaceOnUse" x1="1.8623" y1="113.5249" x2="13.0373" y2="113.5249">
		<stop  offset="0.0078" style="stop-color:#2F2719"/>
		<stop  offset="0.5569" style="stop-color:#3C3427"/>
		<stop  offset="1" style="stop-color:#2F2719"/>
	</linearGradient>
	<path style="fill-rule:evenodd;clip-rule:evenodd;fill:url(#SVGID_4_);" d="M13.05,112.6c0,1-0.55,1.867-1.649,2.6
		c-1.101,0.7-2.417,1.05-3.95,1.05c-1.534,0-2.85-0.35-3.95-1.05c-1.1-0.733-1.65-1.6-1.65-2.6c0-0.9,0.55-1.45,1.65-1.65
		c0.433-0.1,1.75-0.15,3.95-0.15s3.517,0.05,3.95,0.15C12.5,111.15,13.05,111.7,13.05,112.6z"/>
	<linearGradient id="SVGID_5_" gradientUnits="userSpaceOnUse" x1="0.0249" y1="62.7529" x2="14.8877" y2="62.7529">
		<stop  offset="0.0078" style="stop-color:#604E26"/>
		<stop  offset="0.5569" style="stop-color:#685937"/>
		<stop  offset="1" style="stop-color:#604E26"/>
	</linearGradient>
	<path style="fill-rule:evenodd;clip-rule:evenodd;fill:url(#SVGID_5_);" d="M12.15,64.7c1.899,23.267,2.8,37.267,2.699,42
		c-0.033,2.033-0.816,3.633-2.35,4.8c-1.4,1.067-3.083,1.567-5.05,1.5c-2-0.067-3.7-0.717-5.1-1.95
		c-1.533-1.367-2.317-3.183-2.35-5.45C-0.067,98,0.467,83.917,1.6,63.35C3,38.65,4.567,21.7,6.3,12.5
		C8.066,21.6,10.017,39,12.15,64.7z"/>
	<g>
		<linearGradient id="SVGID_6_" gradientUnits="userSpaceOnUse" x1="-2.3374" y1="100.7822" x2="17.0376" y2="100.7822">
			<stop  offset="0.0078" style="stop-color:#47381B"/>
			<stop  offset="0.5569" style="stop-color:#4F422A"/>
			<stop  offset="1" style="stop-color:#47381B"/>
		</linearGradient>
		<path style="fill-rule:evenodd;clip-rule:evenodd;fill:url(#SVGID_6_);" d="M0.2,96c1.8,0.933,3.867,1.4,6.2,1.4
			c2.734,0,5.383-0.767,7.95-2.3l0.5,9.45c-2.366,1.133-4.816,1.767-7.35,1.9c-2.433,0.1-4.933-0.317-7.5-1.25
			C0,102.8,0.067,99.733,0.2,96z"/>
		<linearGradient id="SVGID_7_" gradientUnits="userSpaceOnUse" x1="-1.0498" y1="84.0869" x2="15.7502" y2="84.0869">
			<stop  offset="0.0078" style="stop-color:#47381B"/>
			<stop  offset="0.5569" style="stop-color:#4F422A"/>
			<stop  offset="1" style="stop-color:#47381B"/>
		</linearGradient>
		<path style="fill-rule:evenodd;clip-rule:evenodd;fill:url(#SVGID_7_);" d="M7.45,88.95c-2.467,0.133-4.8-0.3-7-1.3l0.35-7.9
			c1.667,0.933,3.583,1.4,5.75,1.4c2.334,0,4.566-0.65,6.7-1.95l0.6,8.1C11.884,88.333,9.75,88.883,7.45,88.95z"/>
		<linearGradient id="SVGID_8_" gradientUnits="userSpaceOnUse" x1="-0.1748" y1="70.3125" x2="14.0752" y2="70.3125">
			<stop  offset="0.0078" style="stop-color:#47381B"/>
			<stop  offset="0.5569" style="stop-color:#4F422A"/>
			<stop  offset="1" style="stop-color:#47381B"/>
		</linearGradient>
		<path style="fill-rule:evenodd;clip-rule:evenodd;fill:url(#SVGID_8_);" d="M7.05,74.75c-2.1,0.133-4.1-0.267-6-1.2l0.4-7.05
			c1.4,0.833,3,1.25,4.8,1.25c2.1,0,4.083-0.633,5.95-1.9l0.6,7.25C10.9,74.133,8.983,74.683,7.05,74.75z"/>
		<linearGradient id="SVGID_9_" gradientUnits="userSpaceOnUse" x1="1.0376" y1="56.6538" x2="12.8626" y2="56.6538">
			<stop  offset="0.0078" style="stop-color:#47381B"/>
			<stop  offset="0.5569" style="stop-color:#4F422A"/>
			<stop  offset="1" style="stop-color:#47381B"/>
		</linearGradient>
		<path style="fill-rule:evenodd;clip-rule:evenodd;fill:url(#SVGID_9_);" d="M7.05,60.3c-1.833,0.067-3.566-0.3-5.2-1.1l0.35-5.85
			c1.167,0.733,2.55,1.1,4.15,1.1c1.7,0,3.3-0.483,4.8-1.45l0.5,6C10.217,59.8,8.684,60.233,7.05,60.3z"/>
		<linearGradient id="SVGID_10_" gradientUnits="userSpaceOnUse" x1="1.0625" y1="43.957" x2="11.2375" y2="43.957">
			<stop  offset="0.0078" style="stop-color:#47381B"/>
			<stop  offset="0.5569" style="stop-color:#4F422A"/>
			<stop  offset="1" style="stop-color:#47381B"/>
		</linearGradient>
		<path style="fill-rule:evenodd;clip-rule:evenodd;fill:url(#SVGID_10_);" d="M6.2,47.15c-1.133,0.067-2.317-0.1-3.55-0.5l0.4-4.95
			c0.767,0.3,1.617,0.45,2.55,0.45c1.534,0,2.983-0.467,4.35-1.4l0.5,5.15C9.25,46.667,7.833,47.083,6.2,47.15z"/>
		<linearGradient id="SVGID_11_" gradientUnits="userSpaceOnUse" x1="1.0625" y1="36.0273" x2="11.2375" y2="36.0273">
			<stop  offset="0.0078" style="stop-color:#47381B"/>
			<stop  offset="0.5569" style="stop-color:#4F422A"/>
			<stop  offset="1" style="stop-color:#47381B"/>
		</linearGradient>
		<path style="fill-rule:evenodd;clip-rule:evenodd;fill:url(#SVGID_11_);" d="M6.2,39c-0.867,0.033-1.85-0.083-2.95-0.35L3.7,33.7
			c0.6,0.167,1.233,0.25,1.9,0.25c1.233,0,2.417-0.3,3.55-0.9L9.7,38.1C8.6,38.6,7.434,38.9,6.2,39z"/>
		<linearGradient id="SVGID_12_" gradientUnits="userSpaceOnUse" x1="2.4248" y1="26.4043" x2="9.8748" y2="26.4043">
			<stop  offset="0.0078" style="stop-color:#47381B"/>
			<stop  offset="0.5569" style="stop-color:#4F422A"/>
			<stop  offset="1" style="stop-color:#47381B"/>
		</linearGradient>
		<path style="fill-rule:evenodd;clip-rule:evenodd;fill:url(#SVGID_12_);" d="M6.2,28.5c-0.7,0.033-1.367-0.033-2-0.2l0.4-3.6
			l1.15,0.15c0.7,0,1.483-0.184,2.35-0.55l0.45,3.65C7.783,28.283,7,28.467,6.2,28.5z"/>
		<linearGradient id="SVGID_13_" gradientUnits="userSpaceOnUse" x1="2.4248" y1="18.6748" x2="9.8748" y2="18.6748">
			<stop  offset="0.0078" style="stop-color:#47381B"/>
			<stop  offset="0.5569" style="stop-color:#4F422A"/>
			<stop  offset="1" style="stop-color:#47381B"/>
		</linearGradient>
		<path style="fill-rule:evenodd;clip-rule:evenodd;fill:url(#SVGID_13_);" d="M6.2,20.6c-0.534,0-0.9-0.017-1.1-0.05l0.45-3.65h0.2
			c0.467,0,0.9-0.05,1.3-0.15l0.55,3.6C7.3,20.45,6.833,20.533,6.2,20.6z"/>
	</g>
	
		<use xlink:href="#FlashAICB_x2F_cattails_x2F__x3C_Group_x3E__x5F_2"  width="14.865" height="95.2" x="-0.006" y="-95.2" transform="matrix(1 0 0 -1 0 16.75)" style="overflow:visible;opacity:0.1992;enable-background:new    ;"/>
	<g>
		
			<use xlink:href="#FlashAICB_x2F_cattails_x2F__x3C_Path_x3E__x5F_1"  width="2.4" height="15.75" y="-15.75" transform="matrix(1 0 0 -1 5.2002 0)" style="overflow:visible;opacity:0.5;enable-background:new    ;"/>
		
			<use xlink:href="#FlashAICB_x2F_cattails_x2F__x3C_Path_x3E_"  width="0.9" height="15.75" y="-15.75" transform="matrix(1 0 0 -1 5.9502 0)" style="overflow:visible;opacity:0.5;enable-background:new    ;"/>
	</g>
	<g>
		
			<use xlink:href="#FlashAICB_x2F_cattails_x2F__x3C_Path_x3E__x5F_1_x5F_0"  width="3.26" height="10.55" x="-0.01" y="-10.55" transform="matrix(1 0 0 -1 6.6499 5.1499)" style="overflow:visible;opacity:0.5;enable-background:new    ;"/>
		
			<use xlink:href="#FlashAICB_x2F_cattails_x2F__x3C_Path_x3E__x5F_0"  width="2.95" height="10.6" y="-10.6" transform="matrix(1 0 0 -1 6.7002 5.1001)" style="overflow:visible;opacity:0.5;enable-background:new    ;"/>
	</g>
</g>
</svg>
