<?xml version="1.0" encoding="iso-8859-1"?>
<!-- Generator: Adobe Illustrator 15.1.0, SVG Export Plug-In . SVG Version: 6.00 Build 0)  -->
<!DOCTYPE svg PUBLIC "-//W3C//DTD SVG 1.1//EN" "http://www.w3.org/Graphics/SVG/1.1/DTD/svg11.dtd">
<svg version="1.1" xmlns="http://www.w3.org/2000/svg" xmlns:xlink="http://www.w3.org/1999/xlink" x="0px" y="0px" width="240.6px"
	 height="25.35px" viewBox="0 0 240.6 25.35" style="enable-background:new 0 0 240.6 25.35;" xml:space="preserve">
<symbol  id="FlashAICB_x2F_clouds_x2F__x3C_Path_x3E_" viewBox="0.003 -6.727 68.907 6.874">
	<g id="Layer_1_5_">
		<path style="fill-rule:evenodd;clip-rule:evenodd;fill:#FFFFFF;" d="M44.7-1.3C50.233-2.6,55.333-2.95,60-2.35
			c2.4,0.3,4.983,0.65,7.75,1.05c1.967-0.233,1.433-0.9-1.6-2c-3.233-1.133-7.683-2.15-13.35-3.05C48.467-7.017,43.333-6.8,37.4-5.7
			c-6.7,1.233-11.533,1.784-14.5,1.65L2.35-4.95C-0.583-4.083-0.767-3.233,1.8-2.4c2.3,0.767,6.267,1.383,11.9,1.85
			C27.433,0.583,37.767,0.333,44.7-1.3z"/>
	</g>
</symbol>
<symbol  id="FlashAICB_x2F_clouds_x2F__x3C_Path_x3E__x5F_1" viewBox="-0.247 -4.299 32.591 4.355">
	<g id="Layer_1_4_">
		<path style="fill-rule:evenodd;clip-rule:evenodd;fill:#FFFFFF;" d="M20.95-0.85c2.6-0.833,5-1.05,7.2-0.65
			c1.133,0.2,2.35,0.417,3.65,0.65c0.934-0.167,0.667-0.6-0.8-1.3c-1.5-0.7-3.583-1.333-6.25-1.9c-2.033-0.434-4.433-0.3-7.2,0.4
			c-3.167,0.767-5.433,1.117-6.8,1.05L1.1-3.2c-2.9,1.167-1.117,2.1,5.35,2.8C12.883,0.333,17.717,0.183,20.95-0.85z"/>
	</g>
</symbol>
<symbol  id="FlashAICB_x2F_clouds_x2F__x3C_Path_x3E__x5F_2" viewBox="-0.002 -11.376 116.052 11.398">
	<g id="Layer_1_3_">
		<path style="fill-rule:evenodd;clip-rule:evenodd;fill:#FFFFFF;" d="M114.55-6.75c-1.733-1.633-4.667-2.467-8.8-2.5
			c-6.967-0.167-12.333-0.267-16.1-0.3c-6.7-0.1-12.083,0.033-16.15,0.4C69.833-8.85,68-9.033,68-9.7c0-0.566,0-0.867,0-0.9
			c-0.2-0.333-0.833-0.566-1.9-0.7c-1.967-0.2-5.2,0.3-9.7,1.5c-5.033,1.367-7.85,2.066-8.45,2.1c-0.733,0.067-1.117,0-1.15-0.2
			c0-0.033,0.1-0.3,0.3-0.8c0.433-0.933-0.417-1.6-2.55-2c-1.767-0.367-5.183-0.2-10.25,0.5c-5.6,0.767-10.267,0.967-14,0.6
			c-3.833-0.333-7.767-0.217-11.8,0.35C5.9-8.883,4.6-8.933,4.6-9.4c0-0.333,0.517-0.633,1.55-0.9c1.1-0.3,1.667-0.517,1.7-0.65
			c0.133-0.466-1.133-0.55-3.8-0.25C1.45-10.9,0.1-10.167,0-9c-0.1,1.633,3.8,3.017,11.7,4.15l1.85,1.9
			c1.867,1.267,4.367,1.95,7.5,2.05c2.934,0.1,5.833-0.233,8.7-1c2.567-0.7,3.967-1.017,4.2-0.95c0.533,0.1,2.917,0.7,7.15,1.8
			c4.7,1,8.783,1.3,12.25,0.9C56.183-0.483,59.5-1.2,63.3-2.3c3.133-0.867,5.3-1.267,6.5-1.2c1.233,0.033,4.534,0.383,9.9,1.05
			c4.933,0.5,7.833,0.534,8.7,0.1c2-1.066,4.133-2,6.4-2.8c3.633-1.267,6.883-1.85,9.75-1.75c2.967,0.1,5.067,0.617,6.3,1.55
			c1.066,0.767,1.267,1.434,0.6,2c-0.534,0.434-1.617,0.6-3.25,0.5c-1.6-0.1-2.367-0.35-2.3-0.75c0.1-0.6,0.15-0.917,0.15-0.95
			c-0.033-0.233-0.283-0.3-0.75-0.2c-0.7,0.167-0.933,0.633-0.7,1.4c0.267,0.867,1.167,1.383,2.7,1.55
			c1.733,0.2,3.617,0.117,5.65-0.25c2.066-0.4,3.1-0.883,3.1-1.45C116.05-4.733,115.55-5.817,114.55-6.75z"/>
	</g>
</symbol>
<symbol  id="FlashAICB_x2F_clouds_x2F__x3C_Path_x3E__x5F_3" viewBox="-0.005 -24.207 240.605 24.236">
	<g id="Layer_1_2_">
		<path style="fill-rule:evenodd;clip-rule:evenodd;fill:#FFFFFF;" d="M237.45-14.45c-3.534-3.433-9.6-5.2-18.2-5.3
			c-14.433-0.3-25.533-0.5-33.3-0.6c-14-0.2-25.2,0.067-33.6,0.8c-7.633,0.667-11.417,0.283-11.35-1.15
			c0.033-1.233,0.033-1.867,0-1.9c-0.4-0.733-1.717-1.233-3.95-1.5c-4.066-0.467-10.767,0.6-20.1,3.2c-10.467,2.9-16.3,4.4-17.5,4.5
			c-1.534,0.1-2.333-0.05-2.4-0.45c0-0.066,0.233-0.617,0.7-1.65c0.833-2-0.933-3.45-5.3-4.35c-3.7-0.767-10.817-0.417-21.35,1.05
			c-11.667,1.633-21.35,2.1-29.05,1.4c-7.966-0.767-16.133-0.533-24.5,0.7c-3.433,0.5-5.433,0.75-6,0.75c-1.333,0.034-2-0.333-2-1.1
			c0-0.7,1.083-1.35,3.25-1.95c2.233-0.6,3.383-1.067,3.45-1.4c0.1-0.3-0.683-0.517-2.35-0.65c-1.7-0.133-3.533-0.1-5.5,0.1
			C2.967-23.283,0.167-21.7,0-19.2c-0.133,2.067,2.6,3.95,8.2,5.65c3.733,1.1,9.083,2.183,16.05,3.25l0.85,1.25
			c0.8,0.966,1.8,1.883,3,2.75c3.867,2.7,9.05,4.15,15.55,4.35c6.1,0.2,12.117-0.517,18.05-2.15c5.333-1.433,8.25-2.1,8.75-2
			c1.066,0.233,6,1.533,14.8,3.9c9.733,2.1,18.183,2.717,25.35,1.85c5.9-0.733,12.783-2.233,20.65-4.5
			c6.5-1.867,10.983-2.75,13.45-2.65c2.566,0.1,9.4,0.85,20.5,2.25c10.233,1.1,16.25,1.167,18.05,0.2
			c4.167-2.3,8.583-4.284,13.25-5.95c7.567-2.667,14.3-3.883,20.2-3.65c6.133,0.233,10.517,1.3,13.15,3.2
			c2.233,1.633,2.633,3.067,1.2,4.3c-1.1,0.933-3.333,1.3-6.7,1.1c-3.333-0.2-4.917-0.75-4.75-1.65c0.233-1.3,0.333-1.983,0.3-2.05
			c-0.066-0.5-0.6-0.633-1.6-0.4c-1.433,0.367-1.883,1.383-1.35,3.05c0.533,1.8,2.367,2.883,5.5,3.25
			c3.566,0.434,7.466,0.233,11.7-0.6c4.3-0.833,6.45-1.85,6.45-3.05C240.6-10.133,239.55-12.45,237.45-14.45z"/>
	</g>
</symbol>
<g id="clouds">
</g>
<g id="clouds_1_">
	<g>
		
			<use xlink:href="#FlashAICB_x2F_clouds_x2F__x3C_Path_x3E__x5F_3"  width="240.605" height="24.236" x="-0.005" y="-24.207" transform="matrix(1 0 0 -1 0 0.2998)" style="overflow:visible;opacity:0.1992;enable-background:new    ;"/>
		
			<use xlink:href="#FlashAICB_x2F_clouds_x2F__x3C_Path_x3E__x5F_2"  width="116.052" height="11.398" x="-0.002" y="-11.376" transform="matrix(1 0 0 -1 86.5498 0)" style="overflow:visible;opacity:0.1016;enable-background:new    ;"/>
		
			<use xlink:href="#FlashAICB_x2F_clouds_x2F__x3C_Path_x3E__x5F_1"  width="32.591" height="4.355" x="-0.247" y="-4.299" transform="matrix(1 0 0 -1 36.0498 0.6499)" style="overflow:visible;opacity:0.1992;enable-background:new    ;"/>
		
			<use xlink:href="#FlashAICB_x2F_clouds_x2F__x3C_Path_x3E_"  width="68.907" height="6.874" x="0.003" y="-6.727" transform="matrix(1 0 0 -1 21.1499 18.5996)" style="overflow:visible;opacity:0.1016;enable-background:new    ;"/>
	</g>
</g>
</svg>
