<?xml version="1.0" encoding="iso-8859-1"?>
<!-- Generator: Adobe Illustrator 15.1.0, SVG Export Plug-In . SVG Version: 6.00 Build 0)  -->
<!DOCTYPE svg PUBLIC "-//W3C//DTD SVG 1.1//EN" "http://www.w3.org/Graphics/SVG/1.1/DTD/svg11.dtd">
<svg version="1.1" id="clouds" xmlns="http://www.w3.org/2000/svg" xmlns:xlink="http://www.w3.org/1999/xlink" x="0px" y="0px"
	 width="110.65px" height="14.75px" viewBox="0 0 110.65 14.75" style="enable-background:new 0 0 110.65 14.75;"
	 xml:space="preserve">
<symbol  id="FlashAICB_x5F_0_x2F_clouds_x2F__x3C_Path_x3E_" viewBox="-0.04 -14.692 110.655 14.741">
	<g id="Layer_1_2_">
		<path style="fill-rule:evenodd;clip-rule:evenodd;fill:#FFFFFF;" d="M96.25-5.1c0.967,0.167,3.4,0.733,7.3,1.7
			c2.3,0.566,4.034,0.75,5.2,0.55c3.167-0.533,2.3-2-2.6-4.4c-5.167-2.5-12.3-4.7-21.4-6.6C77.783-15.317,69.533-14.867,60-12.5
			c-6.233,1.567-9.983,2.483-11.25,2.75c-4.3,0.8-8.3,1.1-12,0.9c-11.333-0.667-22.333-1.333-33-2c-4.733,1.9-5.033,3.767-0.9,5.6
			c3.7,1.667,10.083,3,19.15,4C31-0.217,40.017,0.2,49.05,0c9.9-0.233,17.467-1.183,22.7-2.85C80.583-5.65,88.75-6.4,96.25-5.1z"/>
	</g>
</symbol>
<use xlink:href="#FlashAICB_x5F_0_x2F_clouds_x2F__x3C_Path_x3E_"  width="110.655" height="14.741" x="-0.04" y="-14.692" transform="matrix(1 0 0 -1 0.0498 0.0498)" style="overflow:visible;opacity:0.1992;enable-background:new    ;"/>
</svg>
