<?xml version="1.0" encoding="iso-8859-1"?>
<!-- Generator: Adobe Illustrator 15.1.0, SVG Export Plug-In . SVG Version: 6.00 Build 0)  -->
<!DOCTYPE svg PUBLIC "-//W3C//DTD SVG 1.1//EN" "http://www.w3.org/Graphics/SVG/1.1/DTD/svg11.dtd">
<svg version="1.1" id="clouds" xmlns="http://www.w3.org/2000/svg" xmlns:xlink="http://www.w3.org/1999/xlink" x="0px" y="0px"
	 width="154.4px" height="15.05px" viewBox="0 0 154.4 15.05" style="enable-background:new 0 0 154.4 15.05;" xml:space="preserve"
	>
<symbol  id="FlashAICB_x2F_clouds_x2F__x3C_Path_x3E_" viewBox="-0.016 -15.058 154.399 15.057">
	<g id="Layer_1_2_">
		<path style="fill-rule:evenodd;clip-rule:evenodd;fill:#FFFFFF;" d="M149.1-11.15L102.95-9.1c-5.133,0.2-10.717-0.117-16.75-0.95
			c-1.733-0.233-6.983-1.15-15.75-2.75c-13.333-2.434-24.867-2.9-34.6-1.4c-12.733,1.934-22.7,4.184-29.9,6.75
			c-3.1,1.1-5,2.05-5.7,2.85c-0.7,0.833-0.017,1.383,2.05,1.65c1.633,0.2,4.067,0,7.3-0.6c5.367-0.967,8.75-1.55,10.15-1.75
			C30.25-6.633,41.667-5.85,54-2.95c7.3,1.7,17.9,2.667,31.8,2.9c12.6,0.2,25.2-0.217,37.8-1.25c12.667-1.034,21.583-2.4,26.75-4.1
			C156.117-7.3,155.7-9.217,149.1-11.15z"/>
	</g>
</symbol>
<use xlink:href="#FlashAICB_x2F_clouds_x2F__x3C_Path_x3E_"  width="154.399" height="15.057" x="-0.016" y="-15.058" transform="matrix(1 0 0 -1 0 0)" style="overflow:visible;opacity:0.1016;enable-background:new    ;"/>
</svg>
