<?xml version="1.0" encoding="iso-8859-1"?>
<!-- Generator: Adobe Illustrator 15.1.0, SVG Export Plug-In . SVG Version: 6.00 Build 0)  -->
<!DOCTYPE svg PUBLIC "-//W3C//DTD SVG 1.1//EN" "http://www.w3.org/Graphics/SVG/1.1/DTD/svg11.dtd">
<svg version="1.1" id="clouds" xmlns="http://www.w3.org/2000/svg" xmlns:xlink="http://www.w3.org/1999/xlink" x="0px" y="0px"
	 width="205.35px" height="30.55px" viewBox="0 0 205.35 30.55" style="enable-background:new 0 0 205.35 30.55;"
	 xml:space="preserve">
<symbol  id="FlashAICB_x2F_clouds_x2F__x3C_Path_x3E_" viewBox="-0.044 -30.538 205.327 30.519">
	<g id="Layer_1_2_">
		<path style="fill-rule:evenodd;clip-rule:evenodd;fill:#FFFFFF;" d="M171.05-11.05c-2.767-0.1-5.367-0.017-7.8,0.25
			c-4.867,0.466-6.517,1.517-4.95,3.15c0.967,1,4.133,2.083,9.5,3.25c5.567,1.2,11.2,1.967,16.9,2.3
			c15.466,0.967,22.216-1.533,20.25-7.5c-1.233-3.767-2.6-6.467-4.1-8.1c-1.9-2.066-4.733-3.517-8.5-4.35
			c-6.733-1.467-22.6-1.367-47.6,0.3c-12.267,0.8-30.583,2.45-54.95,4.95c-14,1.433-25.55,1.883-34.65,1.35
			c-17.2-0.733-28.967-1.433-35.3-2.1C9.083-18.75,5.8-20.8,10-23.7c3.667-2.566,9.367-3.95,17.1-4.15
			c1.633-0.033,3.267-0.066,4.9-0.1c0.533-0.1-0.283-0.466-2.45-1.1c-6.066-1.8-12.8-1.967-20.2-0.5c-8.3,1.667-11.1,4.917-8.4,9.75
			c2.5,4.433,10.533,7.617,24.1,9.55c6.767,0.967,13.284,1.5,19.55,1.6l2,1.65c1.7,1.267,3.517,2.4,5.45,3.4
			c6.133,3.167,12.184,4.233,18.15,3.2c4.167-0.7,11.633-3.367,22.4-8c9.133-3.934,15.467-5.633,19-5.1c2.066,0.3,4.1,0.967,6.1,2
			c1.167,0.6,2.8,1.517,4.9,2.75c3.967,2.067,8.583,2.433,13.85,1.1c4.533-1.133,13.95-3.633,28.25-7.5
			c12.633-2.733,20.533-2.667,23.7,0.2c1.733,1.567,1.6,2.967-0.4,4.2c-1.667,1.067-4.233,1.833-7.7,2.3c-3.3,0.434-5.966,0.434-8,0
			C170.067-8.95,169.65-9.817,171.05-11.05z"/>
	</g>
</symbol>
<use xlink:href="#FlashAICB_x2F_clouds_x2F__x3C_Path_x3E_"  width="205.327" height="30.519" x="-0.044" y="-30.538" transform="matrix(1 0 0 -1 0.0498 0)" style="overflow:visible;opacity:0.1992;enable-background:new    ;"/>
</svg>
