<?xml version="1.0" encoding="iso-8859-1"?>
<!-- Generator: Adobe Illustrator 15.1.0, SVG Export Plug-In . SVG Version: 6.00 Build 0)  -->
<!DOCTYPE svg PUBLIC "-//W3C//DTD SVG 1.1//EN" "http://www.w3.org/Graphics/SVG/1.1/DTD/svg11.dtd">
<svg version="1.1" id="clouds" xmlns="http://www.w3.org/2000/svg" xmlns:xlink="http://www.w3.org/1999/xlink" x="0px" y="0px"
	 width="198.5px" height="19.55px" viewBox="0 0 198.5 19.55" style="enable-background:new 0 0 198.5 19.55;" xml:space="preserve"
	>
<symbol  id="FlashAICB_x2F_clouds_x2F__x3C_Path_x3E_" viewBox="-0.003 -19.538 198.503 19.545">
	<g id="Layer_1_2_">
		<path style="fill-rule:evenodd;clip-rule:evenodd;fill:#FFFFFF;" d="M195.9-11.65c-2.933-2.733-7.933-4.133-15-4.2
			c-11.933-0.267-21.117-0.433-27.55-0.5c-11.5-0.133-20.733,0.083-27.7,0.65c-6.267,0.534-9.383,0.217-9.35-0.95
			c0.034-0.967,0.034-1.483,0-1.55c-0.3-0.566-1.383-0.95-3.25-1.15c-3.367-0.4-8.9,0.45-16.6,2.55
			c-8.6,2.333-13.417,3.533-14.45,3.6c-1.267,0.1-1.917-0.017-1.95-0.35c0-0.034,0.184-0.483,0.55-1.35
			c0.733-1.6-0.717-2.767-4.35-3.5c-3.033-0.6-8.9-0.3-17.6,0.9c-9.6,1.3-17.583,1.667-23.95,1.1c-6.567-0.6-13.3-0.417-20.2,0.55
			c-2.833,0.4-4.483,0.6-4.95,0.6c-1.1,0.033-1.65-0.267-1.65-0.9c0-0.567,0.883-1.083,2.65-1.55c1.833-0.466,2.784-0.833,2.85-1.1
			c0.2-0.8-1.967-0.95-6.5-0.45c-4.467,0.5-6.767,1.767-6.9,3.8c-0.1,1.667,2.15,3.184,6.75,4.55c3.033,0.867,7.433,1.733,13.2,2.6
			l0.7,1c0.667,0.8,1.5,1.533,2.5,2.2c3.2,2.167,7.483,3.333,12.85,3.5C41.033-1.433,46-2,50.9-3.3c4.367-1.2,6.767-1.75,7.2-1.65
			c0.867,0.167,4.933,1.217,12.2,3.15c8.034,1.7,15,2.2,20.9,1.5c4.867-0.567,10.55-1.784,17.05-3.65c5.367-1.5,9.067-2.2,11.1-2.1
			c2.1,0.066,7.733,0.667,16.9,1.8c8.467,0.867,13.433,0.917,14.9,0.15c3.5-1.833,7.15-3.417,10.95-4.75
			c6.233-2.133,11.783-3.117,16.65-2.95c5.067,0.167,8.7,1.033,10.9,2.6c1.833,1.3,2.15,2.434,0.95,3.4
			c-0.9,0.767-2.733,1.066-5.5,0.9c-2.767-0.133-4.083-0.567-3.95-1.3c0.2-1.033,0.283-1.583,0.25-1.65c-0.066-0.4-0.5-0.5-1.3-0.3
			c-1.2,0.267-1.583,1.066-1.15,2.4c0.433,1.467,1.95,2.35,4.55,2.65c2.933,0.367,6.167,0.2,9.7-0.5c3.533-0.667,5.3-1.483,5.3-2.45
			C198.5-8.15,197.633-10.017,195.9-11.65z"/>
	</g>
</symbol>
<use xlink:href="#FlashAICB_x2F_clouds_x2F__x3C_Path_x3E_"  width="198.503" height="19.545" x="-0.003" y="-19.538" transform="matrix(1 0 0 -1 0 0)" style="overflow:visible;opacity:0.1016;enable-background:new    ;"/>
</svg>
