<?xml version="1.0" encoding="iso-8859-1"?>
<!-- Generator: Adobe Illustrator 15.1.0, SVG Export Plug-In . SVG Version: 6.00 Build 0)  -->
<!DOCTYPE svg PUBLIC "-//W3C//DTD SVG 1.1//EN" "http://www.w3.org/Graphics/SVG/1.1/DTD/svg11.dtd">
<svg version="1.1" id="coalleaf_x5F_2" xmlns="http://www.w3.org/2000/svg" xmlns:xlink="http://www.w3.org/1999/xlink" x="0px"
	 y="0px" width="29.15px" height="10px" viewBox="0 0 29.15 10" style="enable-background:new 0 0 29.15 10;" xml:space="preserve">
<g>
	<path style="fill-rule:evenodd;clip-rule:evenodd;fill:#524741;" d="M10.55,9.85C6.35,8.917,2.833,8.066,0,7.3
		c1-1.2,2.2-2.367,3.6-3.5c2.833-2.3,5.316-3.316,7.45-3.05c0.467,0.067,4.867,0.55,13.2,1.45c3.134-2.2,4.767-2.75,4.9-1.65
		c0.1,0.667-0.467,1.2-1.7,1.6c-0.834,0.267-1.767,0.434-2.8,0.5c-1.801,1.867-3.667,3.433-5.601,4.7
		C15.717,9.55,12.883,10.384,10.55,9.85z"/>
	<path style="fill-rule:evenodd;clip-rule:evenodd;fill:#6F6058;" d="M23.5,2.9c-1.5,0.633-3.066,1.267-4.7,1.9
		c-3.233,1.233-5.633,1.884-7.2,1.95C8.567,6.884,5.5,6.6,2.4,5.9c5-0.167,8.95-0.483,11.85-0.95C16.116,4.65,19.2,3.967,23.5,2.9z"
		/>
</g>
</svg>
