<?xml version="1.0" encoding="iso-8859-1"?>
<!-- Generator: Adobe Illustrator 15.1.0, SVG Export Plug-In . SVG Version: 6.00 Build 0)  -->
<!DOCTYPE svg PUBLIC "-//W3C//DTD SVG 1.1//EN" "http://www.w3.org/Graphics/SVG/1.1/DTD/svg11.dtd">
<svg version="1.1" id="coalleaf_x5F_1" xmlns="http://www.w3.org/2000/svg" xmlns:xlink="http://www.w3.org/1999/xlink" x="0px"
	 y="0px" width="37.25px" height="11.9px" viewBox="0 0 37.25 11.9" style="enable-background:new 0 0 37.25 11.9;"
	 xml:space="preserve">
<g>
	<path style="fill-rule:evenodd;clip-rule:evenodd;fill:#524741;" d="M24.05,11.6c-2.934,0.801-6.566-0.116-10.9-2.75
		C10.583,7.316,8.133,5.433,5.8,3.2C1.833,2.933-0.1,2.117,0,0.75C0.067-0.117,0.967-0.167,2.7,0.6c1.066,0.467,2.267,1.133,3.6,2
		l16.65-2.5c2.7-0.434,5.899,0.733,9.6,3.5c1.834,1.367,3.4,2.784,4.7,4.25C33.717,8.95,29.316,10.2,24.05,11.6z"/>
	<path style="fill-rule:evenodd;clip-rule:evenodd;fill:#6F6058;" d="M7.3,3.45c5.5,1.133,9.434,1.833,11.8,2.1
		C22.767,5.983,27.783,6.2,34.15,6.2c-3.9,1.033-7.784,1.55-11.65,1.55C20.533,7.717,17.483,7,13.35,5.6
		C11.283,4.9,9.267,4.183,7.3,3.45z"/>
</g>
</svg>
