<?xml version="1.0" encoding="iso-8859-1"?>
<!-- Generator: Adobe Illustrator 15.1.0, SVG Export Plug-In . SVG Version: 6.00 Build 0)  -->
<!DOCTYPE svg PUBLIC "-//W3C//DTD SVG 1.1//EN" "http://www.w3.org/Graphics/SVG/1.1/DTD/svg11.dtd">
<svg version="1.1" id="FlashAICB" xmlns="http://www.w3.org/2000/svg" xmlns:xlink="http://www.w3.org/1999/xlink" x="0px" y="0px"
	 width="98.2px" height="453.2px" viewBox="0 0 98.2 453.2" style="enable-background:new 0 0 98.2 453.2;" xml:space="preserve">
<g>
	<g>
		<g>
			<g>
				<path style="fill-rule:evenodd;clip-rule:evenodd;fill:#524424;" d="M83.55,446.3c-6.5,4.8-20.05,7.101-40.65,6.9
					c-15.733-0.167-25.816-2.384-30.25-6.65c-1.933-1.866-3.066-4.316-3.4-7.35c-0.233-2.3-0.017-5.5,0.65-9.601
					c2.067-12.899,5.934-21.083,11.6-24.55c2.7-1.633,6.3-2.717,10.8-3.25c3-0.366,8.1-0.583,15.3-0.649
					c8-0.067,12.9-0.034,14.7,0.1c4.134,0.267,7.417,1.134,9.851,2.6c2.699,1.567,5.166,4.267,7.399,8.101
					c2.134,3.666,4.55,9.25,7.25,16.75C89.667,436.667,88.583,442.533,83.55,446.3z"/>
			</g>
		</g>
		<g>
			<path style="fill-rule:evenodd;clip-rule:evenodd;" d="M47.15,415.25c-7.767,0.134-13.917-0.25-18.45-1.15
				c-5.1-1-7.667-2.55-7.7-4.649c-0.033-2.3,1.517-3.9,4.65-4.8c3.5-1,10.367-1.601,20.6-1.801c10.5-0.199,17.684,0.134,21.55,1
				c3.601,0.801,5.434,2.351,5.5,4.65c0.033,2.1-2.517,3.75-7.649,4.95C61.083,414.517,54.917,415.116,47.15,415.25z"/>
		</g>
	</g>
	<g>
		<g>
			<g>
				<path style="fill-rule:evenodd;clip-rule:evenodd;fill:#524424;" d="M32.1,372.5c3.033-0.3,8.133-0.483,15.3-0.55
					c8-0.066,12.9-0.05,14.7,0.05c4.134,0.267,7.434,1.033,9.9,2.3c2.7,1.434,5.167,3.851,7.4,7.25c2.1,3.267,4.5,8.233,7.199,14.9
					c2.867,7.1,1.784,12.316-3.25,15.649c-6.5,4.301-20.05,6.367-40.649,6.2c-15.733-0.133-25.8-2.1-30.2-5.899
					c-1.967-1.667-3.1-3.851-3.4-6.551c-0.267-2.033-0.067-4.883,0.6-8.55c2.1-11.5,5.983-18.8,11.65-21.899
					C24.017,373.967,27.6,373,32.1,372.5z"/>
			</g>
		</g>
		<g>
			<path style="fill-rule:evenodd;clip-rule:evenodd;" d="M20.85,379.35c-0.067-2.066,1.467-3.5,4.6-4.3
				c3.5-0.866,10.383-1.399,20.65-1.6c10.5-0.167,17.683,0.133,21.55,0.899c3.6,0.7,5.416,2.084,5.449,4.15
				c0.034,1.866-2.5,3.333-7.6,4.4c-4.6,0.933-10.783,1.466-18.55,1.6c-7.733,0.134-13.883-0.2-18.45-1
				C23.433,382.634,20.883,381.25,20.85,379.35z"/>
		</g>
	</g>
	<g>
		<g>
			<g>
				<path style="fill-rule:evenodd;clip-rule:evenodd;fill:#524424;" d="M28.5,287.6c3.7-0.733,10.017-1.149,18.95-1.25
					c9.899-0.1,15.967-0.017,18.2,0.25c5.133,0.634,9.216,2.467,12.25,5.5c3.366,3.367,6.433,9.117,9.199,17.25
					c2.667,7.733,5.7,19.517,9.101,35.351c3.6,16.767,2.283,29.116-3.95,37.05c-8,10.134-24.783,14.934-50.35,14.4
					c-19.5-0.4-32.017-5.117-37.55-14.15c-2.4-3.967-3.817-9.167-4.25-15.6c-0.3-4.801-0.05-11.551,0.75-20.25
					c1.333-14.534,3.133-25.884,5.4-34.051c2.233-8,5.2-13.899,8.9-17.699C18.45,290.967,22.9,288.7,28.5,287.6z"/>
			</g>
		</g>
	</g>
	<g>
		<g>
			<g>
				<path style="fill-rule:evenodd;clip-rule:evenodd;fill:#524424;" d="M31.5,265c3-0.3,8.1-0.483,15.3-0.55
					c7.934-0.066,12.834-0.05,14.7,0.05c4.134,0.233,7.417,1,9.85,2.3c2.7,1.4,5.167,3.816,7.4,7.25
					c2.134,3.267,4.55,8.217,7.25,14.851c2.833,7.066,1.733,12.267-3.3,15.6c-6.5,4.3-20.05,6.366-40.65,6.2
					c-15.733-0.101-25.8-2.05-30.2-5.851c-1.967-1.666-3.1-3.85-3.4-6.55c-0.233-2.033-0.017-4.883,0.65-8.55
					c2.066-11.5,5.933-18.783,11.6-21.85C23.4,266.434,27,265.467,31.5,265z"/>
			</g>
		</g>
		<g>
			<path style="fill-rule:evenodd;clip-rule:evenodd;" d="M20.2,271.85c-0.034-2.066,1.517-3.5,4.65-4.3
				c3.5-0.899,10.367-1.434,20.6-1.6c10.5-0.167,17.684,0.133,21.55,0.899c3.6,0.7,5.434,2.067,5.5,4.101
				c0.033,1.866-2.517,3.333-7.65,4.399c-4.566,0.934-10.733,1.467-18.5,1.601c-7.733,0.133-13.883-0.184-18.45-0.95
				C22.8,275.1,20.233,273.717,20.2,271.85z"/>
		</g>
	</g>
	<g>
		<g>
			<g>
				<path style="fill-rule:evenodd;clip-rule:evenodd;fill:#524424;" d="M82.55,276.15c-6.5,2.933-20.05,4.366-40.65,4.3
					c-15.733-0.066-25.8-1.384-30.2-3.95c-1.967-1.167-3.1-2.667-3.4-4.5c-0.233-1.366-0.017-3.3,0.65-5.8
					c2.1-7.834,6-12.816,11.7-14.95c4-1.5,12.684-2.3,26.05-2.4c8-0.033,12.899-0.017,14.7,0.051c4.133,0.166,7.416,0.683,9.85,1.55
					c4.833,1.7,9.7,6.717,14.6,15.05C88.684,270.3,87.583,273.85,82.55,276.15z"/>
			</g>
		</g>
		<g>
			<path style="fill-rule:evenodd;clip-rule:evenodd;" d="M20.1,253.95c-0.033-1.4,1.517-2.367,4.65-2.9
				c3.467-0.633,10.333-1.017,20.6-1.149c10.5-0.134,17.683,0.05,21.55,0.55c3.6,0.467,5.433,1.399,5.5,2.8
				c0.033,1.267-2.517,2.267-7.65,3c-4.6,0.667-10.783,1.05-18.55,1.15c-7.733,0.1-13.883-0.117-18.45-0.65
				C22.683,256.15,20.133,255.217,20.1,253.95z"/>
		</g>
	</g>
	<g>
		<g>
			<g>
				<path style="fill-rule:evenodd;clip-rule:evenodd;fill:#524424;" d="M82.4,257.05c-6.5,2.934-20.051,4.351-40.65,4.25
					c-15.733-0.033-25.8-1.35-30.2-3.95c-1.933-1.133-3.066-2.616-3.4-4.449c-0.233-1.4,0-3.351,0.7-5.851
					c2.1-7.833,5.983-12.8,11.65-14.899c4.033-1.5,12.733-2.301,26.1-2.4c7.966-0.066,12.85-0.066,14.65,0
					c4.167,0.167,7.467,0.684,9.9,1.55c4.8,1.7,9.666,6.717,14.6,15.05C88.583,251.184,87.467,254.75,82.4,257.05z"/>
			</g>
		</g>
		<g>
			<path style="fill-rule:evenodd;clip-rule:evenodd;" d="M46.1,238.3c-7.733,0.101-13.883-0.116-18.45-0.649
				c-5.066-0.601-7.617-1.534-7.65-2.801c-0.033-1.399,1.517-2.383,4.65-2.949c3.5-0.601,10.367-0.967,20.6-1.101
				c10.5-0.133,17.684,0.05,21.55,0.55c3.601,0.467,5.417,1.4,5.45,2.801c0.033,1.267-2.5,2.267-7.6,3
				C60.05,237.816,53.866,238.2,46.1,238.3z"/>
		</g>
	</g>
	<g>
		<g>
			<g>
				<path style="fill-rule:evenodd;clip-rule:evenodd;fill:#524424;" d="M31.05,192.9c3-0.367,8.1-0.583,15.3-0.65
					c8.034-0.067,12.933-0.033,14.7,0.1c4.167,0.267,7.467,1.133,9.9,2.6c2.7,1.566,5.166,4.267,7.399,8.1
					c2.134,3.667,4.551,9.25,7.25,16.75c2.834,7.967,1.733,13.834-3.3,17.601c-6.467,4.8-20.017,7.1-40.65,6.899
					c-15.733-0.166-25.8-2.383-30.2-6.649c-1.967-1.867-3.1-4.317-3.4-7.351c-0.267-2.267-0.066-5.466,0.6-9.6
					c2.1-12.9,5.983-21.083,11.65-24.55C22.967,194.517,26.55,193.433,31.05,192.9z"/>
			</g>
		</g>
		<g>
			<path style="fill-rule:evenodd;clip-rule:evenodd;" d="M66.6,195c3.601,0.8,5.417,2.333,5.45,4.6c0.033,2.1-2.5,3.75-7.6,4.95
				c-4.601,1.067-10.783,1.667-18.55,1.8c-7.733,0.133-13.883-0.25-18.45-1.15c-5.067-0.967-7.617-2.5-7.65-4.6
				c-0.066-2.333,1.467-3.95,4.6-4.85c3.5-1,10.383-1.6,20.65-1.8C55.55,193.783,62.733,194.133,66.6,195z"/>
		</g>
	</g>
	<g>
		<path style="fill-rule:evenodd;clip-rule:evenodd;fill:#120E0A;" d="M30.75,344.35c2.767,0.434,5.517,1.4,8.25,2.9
			c1.367,0.767,2.45,1.483,3.25,2.15c-1.4,0.166-3.417,0.05-6.05-0.351c-5.233-0.8-10.85-2.666-16.85-5.6l3.15,0.05
			C25.167,343.634,27.917,343.917,30.75,344.35z"/>
		<path style="fill-rule:evenodd;clip-rule:evenodd;fill:#120E0A;" d="M68.55,349.25l-7.649,0.6c0.8-0.833,1.866-1.666,3.199-2.5
			c2.7-1.666,5.45-2.483,8.25-2.449c4.467,0.1,8.551,0.149,12.25,0.149C79.934,347.083,74.583,348.483,68.55,349.25z"/>
		<path style="fill-rule:evenodd;clip-rule:evenodd;fill:#120E0A;" d="M36.8,358c-2.7-0.3-4.8-0.816-6.3-1.55l-1.45-0.95
			c6.7-0.566,14.1-0.733,22.2-0.5c8.1,0.267,16.4,0.017,24.9-0.75C58.616,357.717,45.5,358.967,36.8,358z"/>
	</g>
	<g>
		<g>
			<g>
				<path style="fill-rule:evenodd;clip-rule:evenodd;fill:#524424;" d="M19.75,178.25c4.033-1.5,12.733-2.3,26.1-2.4
					c8-0.033,12.883-0.017,14.65,0.05c4.167,0.167,7.467,0.684,9.9,1.55c4.8,1.7,9.666,6.716,14.6,15.05
					c2.833,4.8,1.717,8.35-3.35,10.65c-6.5,2.934-20.051,4.367-40.65,4.3c-15.733-0.067-25.8-1.383-30.2-3.95
					c-1.933-1.133-3.066-2.633-3.4-4.5c-0.233-1.367,0-3.3,0.7-5.8C10.2,185.367,14.083,180.383,19.75,178.25z"/>
			</g>
		</g>
		<g>
			<path style="fill-rule:evenodd;clip-rule:evenodd;" d="M19.25,180.95c-0.033-1.4,1.517-2.367,4.65-2.9
				c3.467-0.633,10.333-1.017,20.6-1.15c10.5-0.133,17.684,0.05,21.55,0.55c3.601,0.466,5.417,1.4,5.45,2.8
				c0.033,1.267-2.5,2.267-7.6,3c-4.601,0.667-10.784,1.05-18.55,1.15c-7.733,0.1-13.883-0.117-18.45-0.65
				C21.833,183.15,19.283,182.217,19.25,180.95z"/>
		</g>
	</g>
	<g>
		<g>
			<g>
				<path style="fill-rule:evenodd;clip-rule:evenodd;fill:#524424;" d="M70.2,141.05c2.7,1.6,5.166,4.317,7.399,8.15
					c2.134,3.667,4.551,9.25,7.25,16.75c2.834,7.933,1.733,13.783-3.3,17.55c-6.467,4.833-20.017,7.15-40.65,6.95
					c-15.733-0.167-25.8-2.383-30.2-6.65c-1.967-1.867-3.1-4.333-3.4-7.4c-0.267-2.267-0.066-5.467,0.6-9.6
					c2.1-12.9,5.983-21.083,11.65-24.55c2.667-1.633,6.25-2.717,10.75-3.25c3-0.333,8.1-0.533,15.3-0.6
					c7.966-0.066,12.867-0.05,14.7,0.05C64.434,138.75,67.733,139.617,70.2,141.05z"/>
			</g>
		</g>
		<g>
			<path style="fill-rule:evenodd;clip-rule:evenodd;" d="M71.3,145.75c0.033,2.1-2.5,3.75-7.6,4.95
				c-4.566,1.033-10.75,1.633-18.55,1.8c-7.733,0.133-13.883-0.25-18.45-1.15c-5.067-1-7.617-2.55-7.65-4.65
				c-0.066-2.333,1.467-3.934,4.6-4.8c3.5-1,10.383-1.6,20.65-1.8c10.5-0.2,17.684,0.133,21.55,1
				C69.45,141.9,71.267,143.45,71.3,145.75z"/>
		</g>
	</g>
	<g>
		<g>
			<g>
				<path style="fill-rule:evenodd;clip-rule:evenodd;fill:#524424;" d="M77.4,118.8c2.133,3.267,4.55,8.233,7.25,14.9
					c2.833,7.1,1.733,12.316-3.301,15.65c-6.5,4.3-20.05,6.367-40.649,6.2c-15.733-0.133-25.8-2.1-30.2-5.9
					c-1.967-1.667-3.1-3.867-3.4-6.6c-0.233-2.033-0.017-4.883,0.65-8.55c2.1-11.5,5.983-18.783,11.65-21.85
					c2.667-1.467,6.25-2.433,10.75-2.9c3-0.3,8.1-0.483,15.3-0.55c7.967-0.067,12.866-0.05,14.7,0.05c4.133,0.233,7.416,1,9.85,2.3
					C72.7,112.95,75.167,115.367,77.4,118.8z"/>
			</g>
		</g>
		<g>
			<path style="fill-rule:evenodd;clip-rule:evenodd;" d="M45,121.75c-7.733,0.133-13.883-0.2-18.45-1
				c-5.1-0.9-7.667-2.283-7.7-4.15c-0.033-2.067,1.517-3.5,4.65-4.3c3.5-0.9,10.367-1.433,20.6-1.6
				c10.5-0.167,17.683,0.133,21.55,0.9c3.633,0.7,5.466,2.066,5.5,4.1c0.033,1.9-2.517,3.383-7.65,4.45
				C58.934,121.083,52.767,121.617,45,121.75z"/>
		</g>
	</g>
	<g>
		<g>
			<g>
				<path style="fill-rule:evenodd;clip-rule:evenodd;fill:#524424;" d="M29.8,55.05c3-0.533,8.1-0.833,15.3-0.9
					c8-0.066,12.9-0.017,14.7,0.15c4.167,0.434,7.467,1.717,9.9,3.85c2.7,2.333,5.166,6.333,7.399,12
					c2.167,5.367,4.601,13.567,7.301,24.6c2.899,11.667,1.833,20.25-3.2,25.75c-6.467,7.033-20.017,10.383-40.65,10.05
					c-15.733-0.267-25.816-3.55-30.25-9.85c-1.933-2.767-3.066-6.367-3.4-10.8c-0.267-3.367-0.066-8.066,0.6-14.1
					c2.033-18.933,5.883-30.95,11.55-36.05C21.717,57.383,25.3,55.817,29.8,55.05z"/>
			</g>
		</g>
		<g>
			<path style="fill-rule:evenodd;clip-rule:evenodd;" d="M18.6,66.3c-0.067-3.433,1.467-5.8,4.6-7.1
				c3.5-1.467,10.367-2.317,20.6-2.55c10.5-0.233,17.684,0.283,21.55,1.55c3.601,1.2,5.434,3.466,5.5,6.8
				c0.034,3.1-2.5,5.517-7.6,7.25c-4.6,1.533-10.783,2.4-18.55,2.6c-7.733,0.2-13.883-0.367-18.45-1.7
				C21.183,71.683,18.633,69.4,18.6,66.3z"/>
		</g>
	</g>
	<g>
		<g>
			<g>
				<path style="fill-rule:evenodd;clip-rule:evenodd;fill:#524424;" d="M80.95,81.45c-6.5,2.933-20.05,4.367-40.65,4.3
					c-15.733-0.033-25.8-1.35-30.2-3.95c-1.967-1.133-3.1-2.617-3.4-4.45C6.467,75.95,6.683,74,7.35,71.5
					c2.1-7.833,6-12.8,11.7-14.9c4-1.5,12.684-2.3,26.05-2.4c8-0.067,12.9-0.067,14.7,0c4.134,0.167,7.434,0.683,9.9,1.55
					c4.8,1.7,9.649,6.717,14.55,15.05C87.116,75.6,86.017,79.15,80.95,81.45z"/>
			</g>
		</g>
		<g>
			<path style="fill-rule:evenodd;clip-rule:evenodd;" d="M18.55,59.3c-0.066-1.4,1.467-2.383,4.6-2.95
				c3.5-0.633,10.383-1.017,20.65-1.15c10.5-0.133,17.684,0.066,21.55,0.6c3.601,0.467,5.417,1.4,5.45,2.8
				c0.033,1.267-2.517,2.267-7.649,3c-4.567,0.667-10.733,1.05-18.5,1.15c-7.733,0.1-13.883-0.117-18.45-0.65
				C21.133,61.533,18.583,60.6,18.55,59.3z"/>
		</g>
	</g>
	<g>
		<g>
			<g>
				<path style="fill-rule:evenodd;clip-rule:evenodd;fill:#524424;" d="M76.85,27.5c2.134,3.667,4.551,9.25,7.25,16.75
					c2.867,7.967,1.784,13.833-3.25,17.6c-6.5,4.8-20.05,7.1-40.649,6.9C24.467,68.583,14.4,66.367,10,62.1
					c-1.967-1.867-3.1-4.317-3.4-7.35c-0.267-2.267-0.067-5.467,0.6-9.6c2.1-12.9,5.983-21.083,11.65-24.55
					c2.667-1.633,6.25-2.717,10.75-3.25c3-0.367,8.1-0.583,15.3-0.65c8-0.067,12.9-0.034,14.7,0.1
					c4.134,0.267,7.417,1.133,9.851,2.6C72.184,20.967,74.65,23.667,76.85,27.5z"/>
			</g>
		</g>
		<g>
			<path style="fill-rule:evenodd;clip-rule:evenodd;" d="M44.45,30.8c-7.733,0.133-13.883-0.25-18.45-1.15
				c-5.067-0.967-7.617-2.5-7.65-4.6c-0.067-2.333,1.467-3.95,4.6-4.85c3.5-1,10.383-1.6,20.65-1.8
				c10.466-0.2,17.65,0.15,21.55,1.05c3.6,0.8,5.416,2.333,5.449,4.6c0.034,2.1-2.5,3.75-7.6,4.95
				C58.4,30.067,52.217,30.667,44.45,30.8z"/>
		</g>
	</g>
	<g>
		<g>
			<g>
				<path style="fill-rule:evenodd;clip-rule:evenodd;fill:#524424;" d="M69.35,1.65c4.834,1.7,9.7,6.717,14.601,15.05
					c2.833,4.8,1.733,8.35-3.3,10.65c-6.5,2.933-20.051,4.367-40.65,4.3C24.267,31.617,14.2,30.3,9.8,27.7
					c-1.966-1.133-3.1-2.633-3.4-4.5c-0.233-1.367-0.017-3.3,0.65-5.8c2.1-7.833,6-12.8,11.7-14.9C22.783,1,31.467,0.2,44.8,0.1
					c7.967-0.067,12.867-0.067,14.7,0C63.634,0.267,66.917,0.783,69.35,1.65z"/>
			</g>
		</g>
		<g>
			
				<radialGradient id="SVGID_1_" cx="-44.2236" cy="-5.4189" r="30.1905" gradientTransform="matrix(-0.9999 0.0128 0.0037 0.1544 0.1516 6.2542)" gradientUnits="userSpaceOnUse">
				<stop  offset="0" style="stop-color:#000000"/>
				<stop  offset="0.8824" style="stop-color:#000000;stop-opacity:0.2863"/>
				<stop  offset="1" style="stop-color:#000000;stop-opacity:0"/>
			</radialGradient>
			<path style="fill-rule:evenodd;clip-rule:evenodd;fill:url(#SVGID_1_);" d="M44.35,9.4c-9.167,0.133-16.467-0.117-21.9-0.75
				c-6.067-0.733-9.117-1.867-9.15-3.4c-0.033-1.7,1.8-2.883,5.5-3.55c4.167-0.733,12.333-1.184,24.5-1.35
				c12.467-0.167,21,0.066,25.601,0.7c4.3,0.567,6.466,1.684,6.5,3.35c0.033,1.533-2.983,2.75-9.051,3.65
				C60.917,8.817,53.583,9.267,44.35,9.4z"/>
			<path style="fill-rule:evenodd;clip-rule:evenodd;" d="M44.35,8.65C36.55,8.717,30.4,8.5,25.9,8c-5.1-0.6-7.667-1.533-7.7-2.8
				c-0.034-1.4,1.517-2.383,4.65-2.95c3.5-0.633,10.383-1.017,20.65-1.15C54,0.967,61.184,1.167,65.05,1.7
				c3.601,0.466,5.417,1.4,5.45,2.8c0.033,1.267-2.517,2.267-7.65,3C58.283,8.167,52.116,8.55,44.35,8.65z"/>
		</g>
	</g>
</g>
</svg>
