<?xml version="1.0" encoding="iso-8859-1"?>
<!-- Generator: Adobe Illustrator 15.1.0, SVG Export Plug-In . SVG Version: 6.00 Build 0)  -->
<!DOCTYPE svg PUBLIC "-//W3C//DTD SVG 1.1//EN" "http://www.w3.org/Graphics/SVG/1.1/DTD/svg11.dtd">
<svg version="1.1" id="FlashAICB" xmlns="http://www.w3.org/2000/svg" xmlns:xlink="http://www.w3.org/1999/xlink" x="0px" y="0px"
	 width="166.95px" height="311.1px" viewBox="0 0 166.95 311.1" style="enable-background:new 0 0 166.95 311.1;"
	 xml:space="preserve">
<path style="fill-rule:evenodd;clip-rule:evenodd;fill:#2C2016;" d="M166.85,9.55c0.233,2.267-0.033,4-0.8,5.2l-0.35,0.5
	c-0.434,0.433-0.95,0.783-1.55,1.05c-0.434,0.2-1.467,1.1-3.101,2.7c-1.333,1.3-3.75,2.383-7.25,3.25l-14.8,3.7l-10.4,5.2l0.101,3.4
	c-0.134,2.6-0.667,4.667-1.601,6.2c-0.733,1.233-1.216,2.75-1.449,4.55c-0.267,1.934-0.767,3.633-1.5,5.1
	c-0.9,1.867-3.017,4.033-6.351,6.5l-4.75,3.15c-2.467,7.9-4.7,13.333-6.7,16.3c-0.666,1-1.866,1.9-3.6,2.7
	c-1.167,0.534-2.184,2.35-3.05,5.45c-0.4,1.467-0.8,2.883-1.2,4.25L97,93.4c-0.467,1.2-0.9,2.333-1.3,3.4
	c-0.066,0.133-0.134,0.267-0.2,0.4c-0.066,0.2-0.15,0.4-0.25,0.6l0.55,7.15c0.5,5.066,1.066,8.367,1.7,9.9
	c0.967,2.467,2.2,4.7,3.7,6.7l-0.851,6.65c-0.033,0.133-0.05,0.267-0.05,0.4c-0.6,4.467-1.05,7.3-1.35,8.5
	c-0.367,1.467-0.717,3.066-1.05,4.8c-0.134,0.6-0.267,1.217-0.4,1.85l1.5,8.8c0.967,6.3,1.45,10.533,1.45,12.7
	c0,9.4-0.25,15.333-0.75,17.8c-0.267,1.5-0.351,4.316-0.25,8.45c0,0.566,0.017,1.15,0.05,1.75c0.2,4.6,0.517,8.35,0.95,11.25
	c0.3,2.167,1.75,5.05,4.35,8.65c1.3,1.767,2.566,3.333,3.8,4.699l10.45,6.601c0.033,0.033,0.084,0.066,0.15,0.1l0.55,0.351
	c0.366,0.267,0.733,0.533,1.1,0.8l4.101,3.1c1.133,0.967,2.116,1.867,2.95,2.7l1.899,2.25c0.7,1,1.05,1.884,1.05,2.65
	c0,2.3,0.95,4.583,2.851,6.85c2.7,3.2,4.217,5.116,4.55,5.75c0.667,1.366,1.934,2.917,3.8,4.65c1.834,1.733,3.283,3.633,4.351,5.699
	c1.1,2.2,1.767,4.517,2,6.95c0.233,2.2,0.55,3.584,0.949,4.15c1,1.5,2.233,4.967,3.7,10.399l0.75,15.551
	c-0.5,0.633-1.184,1.283-2.05,1.949c-1.7,1.367-3.483,2.2-5.35,2.5c-1.967,0.334-3.801,0.9-5.5,1.7
	c-0.834,0.367-2.467,1.283-4.9,2.75c-2.4,1.434-4.1,2.351-5.1,2.75c-1.834,0.8-4.084,1.367-6.75,1.7
	c-4.067,0.634-7.117,1.033-9.15,1.2c-3.533,0.333-6.417,0.184-8.65-0.45c-2.433-0.7-4.433-1.134-6-1.3
	c-1.166-0.134-3.35-0.2-6.55-0.2c-22.733,0-36.816-0.25-42.25-0.75c-3.4-0.3-8.25-0.884-14.55-1.75l-8.45-1.2h-20
	c-2.466-42.5-3.7-69.184-3.7-80.05c0-0.366-0.267-19.583-0.8-57.65c0-1.133-0.017-2.3-0.05-3.5c-0.033-3.366-0.083-6.866-0.15-10.5
	C3.25,111.567,3.1,85.817,3.4,76.35c0.233-8.033-0.45-22.583-2.05-43.65C-0.017,15.1-0.333,5.933,0.4,5.2
	c1.033-1,8.05-2.133,21.05-3.4C33.517,0.6,42.567,0,48.6,0C78.733,0,97,0.5,103.4,1.5c6.433,1,27.183,1.983,62.25,2.95L166.85,9.55z
	"/>
</svg>
