<?xml version="1.0" encoding="iso-8859-1"?>
<!-- Generator: Adobe Illustrator 15.1.0, SVG Export Plug-In . SVG Version: 6.00 Build 0)  -->
<!DOCTYPE svg PUBLIC "-//W3C//DTD SVG 1.1//EN" "http://www.w3.org/Graphics/SVG/1.1/DTD/svg11.dtd">
<svg version="1.1" id="FlashAICB" xmlns="http://www.w3.org/2000/svg" xmlns:xlink="http://www.w3.org/1999/xlink" x="0px" y="0px"
	 width="138.5px" height="312.2px" viewBox="0 0 138.5 312.2" style="enable-background:new 0 0 138.5 312.2;" xml:space="preserve"
	>
<path style="fill-rule:evenodd;clip-rule:evenodd;fill:#2C2016;" d="M131.1,8.65c0,0.067,0.617,7.9,1.851,23.5
	c1.133,14.8,1.583,24.184,1.35,28.15c-0.434,6.6-0.649,25.567-0.649,56.9c0,9.167,0.149,24.933,0.449,47.3
	c0,1.134,0.017,2.3,0.051,3.5c0,0.7,0,1.4,0,2.1l-0.101,16.351c0.033,11.366,0.283,18.283,0.75,20.75
	c0.4,2.133,1.05,17.883,1.95,47.25c0.934,30.033,1.517,46.033,1.75,48c0.333,2.866-3.684,4.967-12.05,6.3l-12.7,1.1
	c-1.533-0.3-3.184-0.5-4.95-0.6c-3.5-0.2-5.767,0.217-6.8,1.25c-1,1-3.517,1.3-7.55,0.9c-4.434-0.601-7.283-0.9-8.55-0.9
	c-0.233,0-2.351-0.333-6.351-1c-2.866-0.5-5.283-0.384-7.25,0.35c-1.467,0.567-2.684,1-3.65,1.301l-1.15,0.399
	c-0.233,0.066-0.483,0.134-0.75,0.2c-2.233,0.6-4.317,0.616-6.25,0.05c-0.167,0-0.35-0.017-0.55-0.05
	c-2.567-0.267-4.684-1.283-6.35-3.05l-1.7-2.55c-0.833,0.199-1.867,0.35-3.1,0.449c-2.466,0.233-4.733,0.084-6.8-0.449
	c-2.3,0-5.083-1.667-8.35-5c-2.933-3.034-5.1-6.101-6.5-9.2c-0.267-0.634-0.483-1.3-0.65-2c-0.3-1.334-0.35-2.8-0.15-4.4
	c0.066-0.666,0.183-1.35,0.35-2.05c0-0.033,0.017-0.066,0.05-0.1c0.067-0.267,0.133-0.551,0.2-0.851c0.5-1.467,0.933-2.717,1.3-3.75
	l0.75-2.35c0.5-1.467,0.783-3.017,0.85-4.65c0.2-3.7,0.333-5.85,0.4-6.45c0.233-2.3,1.083-4.716,2.55-7.25
	c1.667-2.899,2.667-5.017,3-6.35l1.45-4.45c0.033-0.133,0.067-0.25,0.1-0.35c0.1-0.267,0.167-0.55,0.2-0.851l0.05-2.6
	c-0.033-0.3-0.067-0.6-0.1-0.9c-0.033-0.199-0.067-0.399-0.1-0.6c-0.333-1.733-0.417-3.066-0.25-4c0.2-1.167,0.233-2.417,0.1-3.75
	c-0.2-2.233,0.1-5.233,0.9-9c0.2-0.9,0.417-1.733,0.65-2.5l0.8-2.7l1.15-2.3v-0.05c0.633-0.8,1.617-2.033,2.95-3.7
	c1.1-1.434,1.767-2.667,2-3.7c0.3-1.133,0.483-3.017,0.55-5.649c0.067-1.7,0.1-4.983,0.1-9.851c0-3.333,1.35-7.116,4.05-11.35
	c1.333-2.101,2.667-3.884,4-5.351c0.8-2.466,1.417-5.35,1.85-8.649c0.067-0.467,0.083-0.95,0.05-1.45
	c-0.033-1.1-0.216-2.267-0.55-3.5c-0.3-0.967-0.683-1.967-1.15-3c-1.233-2.733-2.55-4.617-3.95-5.65
	c-1.033-0.767-1.85-1.817-2.45-3.15l-0.65-1.8c-0.6-1.433-1.25-3.15-1.95-5.15c-1.4-3.933-2.317-7.25-2.75-9.95
	c-0.3-2.167-0.167-3.767,0.4-4.8c0.1-0.2,0.217-0.367,0.35-0.5c0.6-0.667,1.017-1.15,1.25-1.45c0.133-0.966,0.183-2.033,0.15-3.2
	c0-2.434-0.317-4.283-0.95-5.55c-0.066-0.1-0.133-0.2-0.2-0.3c-0.8-1.433-2.05-3.017-3.75-4.75c-0.633-0.633-1.333-1.3-2.1-2
	c-2.433-2.2-4.4-3.667-5.9-4.4c-0.7-0.367-1.417-0.934-2.15-1.7c-0.7-0.7-1.5-1.733-2.4-3.1c-0.133-0.2-0.333-0.533-0.6-1l-2.25-3.5
	l-1.45-3.05c-0.533-1.233-1.05-2.717-1.55-4.45c-0.9-3.033-1.517-5.117-1.85-6.25c-0.067-0.2-0.133-0.383-0.2-0.55
	c-0.066-0.133-0.117-0.267-0.15-0.4c-0.4-1-0.75-1.617-1.05-1.85c-0.333-0.3-0.7-0.967-1.1-2c-0.033,0-0.067,0-0.1,0
	c-0.133-0.433-0.25-0.833-0.35-1.2c-0.167-0.4-0.316-0.833-0.45-1.3c-0.034-0.133-0.067-0.267-0.1-0.4l-0.15-0.35
	c-0.1-0.333-0.217-0.65-0.35-0.95l-0.2-0.55c-0.033-0.067-0.066-0.133-0.1-0.2c-0.6-1.333-1.267-2.367-2-3.1
	c-2.8-2.767-4.867-7.083-6.2-12.95c-0.067-0.367-0.167-1-0.3-1.9C7.017,58.1,7,58.117,7,58.15c-0.133-0.7-0.333-2.117-0.6-4.25
	c0-0.066,0-0.117,0-0.15L6.35,53.5c-0.133-1.033-0.333-1.967-0.6-2.8l-1.8-3.45H4c-0.064-0.064-0.098-0.115-0.1-0.15
	c0.001,0.035,0.018,0.085,0.05,0.15c-0.167-0.3-0.317-0.6-0.45-0.9L2.45,44.3c-2-4.1-2.784-7.283-2.35-9.55
	c0.566-3.2,1.017-5.617,1.35-7.25c0.6-2.967,1.233-5.05,1.9-6.25l2.35-4c0.066-0.167,0.167-0.333,0.3-0.5
	c0-0.033,0.017-0.067,0.05-0.1c0.034-0.033,0.067-0.083,0.1-0.15s0.067-0.133,0.1-0.2c0.6-1.066,1.067-2.017,1.4-2.85L7.8,13
	c0.133-0.433,0.217-0.833,0.25-1.2H8.1c0.033-0.2,0.05-0.4,0.05-0.6c0.067-1.3,3.367-3.1,9.9-5.4c5.5-1.9,9.367-3.017,11.6-3.35
	c5.767-0.8,16.617-1.434,32.55-1.9C73.634,0.183,82.167,0,87.8,0c3.667,0,11.417,0.983,23.25,2.95
	C124.417,5.15,131.1,7.05,131.1,8.65z"/>
</svg>
