<?xml version="1.0" encoding="iso-8859-1"?>
<!-- Generator: Adobe Illustrator 15.1.0, SVG Export Plug-In . SVG Version: 6.00 Build 0)  -->
<!DOCTYPE svg PUBLIC "-//W3C//DTD SVG 1.1//EN" "http://www.w3.org/Graphics/SVG/1.1/DTD/svg11.dtd">
<svg version="1.1" id="Layer_1" xmlns="http://www.w3.org/2000/svg" xmlns:xlink="http://www.w3.org/1999/xlink" x="0px" y="0px"
	 width="160.05px" height="92.55px" viewBox="0 0 160.05 92.55" style="enable-background:new 0 0 160.05 92.55;"
	 xml:space="preserve">
<path style="fill-rule:evenodd;clip-rule:evenodd;fill:#2C2016;" d="M141.65,46.5c-4.934,2.833-7.517,4.483-7.75,4.95
	c-0.867,3.066-2.684,5.133-5.45,6.2c-2.834,1.033-5.684,0.899-8.55-0.4c-2.9-1.267-4.733-1.616-5.5-1.05
	c-3.101,0.899-4.684,1.983-4.75,3.25c-0.067,1.267,0.116,2.85,0.55,4.75c0.166,1.6-0.267,2.883-1.3,3.85
	c-0.667,0.634-2.017,0.733-4.051,0.3c-2.3-0.5-4.083-0.433-5.35,0.2c-2.3,1.233-4.167,2.566-5.6,4c-0.9,0.9-1.717,2.233-2.45,4
	s-1.384,2.934-1.95,3.5H86c-0.434-0.233-0.816-0.416-1.15-0.55c-0.633-0.3-1.283-0.533-1.949-0.7h-3.25
	c-1.3,1.334-3.4,3.601-6.3,6.8C70.117,89.167,68,91.483,67,92.55h-5c-3.133-0.399-6.917-1.6-11.35-3.6c-4.7-2.101-7.7-4.066-9-5.9
	c-1.433-2.934-2.517-5.017-3.25-6.25c-1.267-2.066-4.1-4.184-8.5-6.35c-2.733-1.367-4.983-3.601-6.75-6.7
	c-2.333-4.066-3.583-6.184-3.75-6.35c-0.767-0.834-2.283-1.551-4.55-2.15c-2.867-0.667-5.033-1.184-6.5-1.55
	C2.783,52.333,0,50.233,0,47.4c0-1.967,0.7-3.4,2.1-4.3c2.633-1.7,8.267-3,16.9-3.9c1.7-0.167,3.883-1.2,6.55-3.1
	c3.4-2.467,6.55-4.283,9.45-5.45c4.533-1.8,7.267-4.467,8.2-8c0.4-2.033,0.75-3.583,1.05-4.65c0.567-1.933,1.45-3.633,2.65-5.1
	c0.8-1,2.733-2.316,5.8-3.95c1.767-0.967,4.583-2.4,8.45-4.3c0.367-0.2,1.184-0.816,2.45-1.85c1.033-0.833,2.15-1.45,3.35-1.85
	C70.683-0.283,77.367-0.3,87,0.9c3.9,0.567,8.3,2.583,13.2,6.05c1.133,0.8,4.616,3.617,10.45,8.45c9.433-2.7,15.767-2.733,19-0.1
	c3.199,2.567,5.233,6.05,6.1,10.45c0.833,4.367,3.583,6.633,8.25,6.8c4.667,0.167,9.066,0.883,13.2,2.15
	c4.133,1.267,3.8,2.833-1,4.7S146.55,43.633,141.65,46.5z"/>
</svg>
