<?xml version="1.0" encoding="iso-8859-1"?>
<!-- Generator: Adobe Illustrator 15.1.0, SVG Export Plug-In . SVG Version: 6.00 Build 0)  -->
<!DOCTYPE svg PUBLIC "-//W3C//DTD SVG 1.1//EN" "http://www.w3.org/Graphics/SVG/1.1/DTD/svg11.dtd">
<svg version="1.1" xmlns="http://www.w3.org/2000/svg" xmlns:xlink="http://www.w3.org/1999/xlink" x="0px" y="0px" width="200px"
	 height="143px" viewBox="0 0 200 143" style="enable-background:new 0 0 200 143;" xml:space="preserve">
<g id="decor_x5F_plants_4">
</g>
<g id="FlashAICB">
	<g>
		<g>
			<g>
				<g>
					<path style="fill-rule:evenodd;clip-rule:evenodd;fill:#917B1C;" d="M137.924,30.73c4.627,3.677,8.84,9.9,12.638,18.669
						c3.637,8.404,7.738,21.164,12.305,38.276c2.323,8.647,3.172,16.012,2.546,22.093c-0.728,7.193-3.517,13.153-8.365,17.881
						c-11.192,10.91-34.528,15.992-70.008,15.244c-14.344-0.303-25.8-1.798-34.367-4.485c-8.001-2.505-13.88-6.191-17.639-11.062
						c-3.313-4.304-5.232-9.93-5.758-16.881c-0.404-5.172-0.01-12.466,1.182-21.881c1.979-15.679,4.576-27.922,7.789-36.731
						c3.152-8.607,7.304-14.971,12.456-19.093c4.607-3.677,10.81-6.091,18.608-7.243c5.152-0.748,13.921-1.152,26.306-1.212
						c13.759-0.061,22.194,0.061,25.306,0.364C128.054,25.396,133.721,27.417,137.924,30.73z"/>
				</g>
			</g>
			<g>
				<path style="fill-rule:evenodd;clip-rule:evenodd;fill:#473920;" d="M126.62,52.582c-7.88,2.343-18.508,3.626-31.883,3.849
					c-13.335,0.202-23.922-0.737-31.761-2.818c-8.749-2.324-13.143-5.89-13.184-10.698c-0.02-2.687,0.525-4.849,1.637-6.485
					c1.232-1.859,3.354-3.344,6.364-4.455c6.041-2.243,17.891-3.505,35.549-3.789c18.062-0.303,30.427,0.556,37.095,2.576
					c3.374,1.031,5.809,2.435,7.304,4.213c1.373,1.656,2.071,3.808,2.091,6.455C139.854,46.217,135.449,49.935,126.62,52.582z"/>
			</g>
		</g>
	</g>
</g>
</svg>
