<?xml version="1.0" encoding="iso-8859-1"?>
<!-- Generator: Adobe Illustrator 15.1.0, SVG Export Plug-In . SVG Version: 6.00 Build 0)  -->
<!DOCTYPE svg PUBLIC "-//W3C//DTD SVG 1.1//EN" "http://www.w3.org/Graphics/SVG/1.1/DTD/svg11.dtd">
<svg version="1.1" id="FlashAICB" xmlns="http://www.w3.org/2000/svg" xmlns:xlink="http://www.w3.org/1999/xlink" x="0px" y="0px"
	 width="174.1px" height="147px" viewBox="0 0 174.1 147" style="enable-background:new 0 0 174.1 147;" xml:space="preserve">
<symbol  id="FlashAICB_Assets_x2F_decor_x5F_plants_3_x2F__x3C_Clip_Group_0_x3E_" viewBox="0 -103.359 174.1 103.315">
	<g id="Layer_1_60_">
	</g>
	<g>
		<defs>
			<path id="SVGID_1_" d="M141.8-55.2c-3.966,14.9-7.533,26-10.7,33.3c-3.3,7.667-6.983,13.083-11.05,16.25
				c-3.633,2.9-8.566,4.65-14.8,5.25c-2.667,0.267-10,0.383-22,0.35c-10.8-0.034-18.433-0.383-22.9-1.05
				c-6.8-1-12.2-3.117-16.2-6.35c-4.5-3.566-8.117-9.1-10.85-16.6c-2.8-7.667-5.066-18.333-6.8-32
				c-1.033-8.167-1.383-14.517-1.05-19.05c0.466-6.033,2.15-10.933,5.05-14.7c6.567-8.534,21.65-13.034,45.25-13.5
				c30.9-0.633,51.233,3.8,61,13.3C144.35-82.6,146.033-71,141.8-55.2z"/>
		</defs>
		<clipPath id="SVGID_2_">
			<use xlink:href="#SVGID_1_"  style="overflow:visible;"/>
		</clipPath>
		<g id="Layer_3_1_" style="clip-path:url(#SVGID_2_);">
			<g>
				
					<use xlink:href="#FlashAICB_Assets_x2F_decor_x5F_plants_3_x2F__x3C_Path_x3E__x5F_36"  width="76.05" height="3.506" y="-3.506" transform="matrix(1 0 0 1 24.8501 -38.25)" style="overflow:visible;opacity:0.3008;enable-background:new    ;"/>
				
					<use xlink:href="#FlashAICB_Assets_x2F_decor_x5F_plants_3_x2F__x3C_Path_x3E__x5F_35"  width="76.45" height="4.99" y="-4.99" transform="matrix(1 0 0 1 77.5498 -39.6499)" style="overflow:visible;opacity:0.3008;enable-background:new    ;"/>
				
					<use xlink:href="#FlashAICB_Assets_x2F_decor_x5F_plants_3_x2F__x3C_Path_x3E__x5F_34"  width="76.85" height="5.136" y="-5.136" transform="matrix(1 0 0 1 61.75 -31.7002)" style="overflow:visible;opacity:0.1016;enable-background:new    ;"/>
				
					<use xlink:href="#FlashAICB_Assets_x2F_decor_x5F_plants_3_x2F__x3C_Path_x3E__x5F_33"  width="76.45" height="5.45" y="-5.45" transform="matrix(1 0 0 1 14.2998 -27)" style="overflow:visible;opacity:0.1992;enable-background:new    ;"/>
				
					<use xlink:href="#FlashAICB_Assets_x2F_decor_x5F_plants_3_x2F__x3C_Path_x3E__x5F_32"  width="40.5" height="3.754" y="-3.754" transform="matrix(1 0 0 1 100.8496 -35.6499)" style="overflow:visible;opacity:0.3008;enable-background:new    ;"/>
				
					<use xlink:href="#FlashAICB_Assets_x2F_decor_x5F_plants_3_x2F__x3C_Path_x3E__x5F_31"  width="61" height="5.805" y="-5.805" transform="matrix(1 0 0 1 28.1499 -15.6001)" style="overflow:visible;opacity:0.3008;enable-background:new    ;"/>
				
					<use xlink:href="#FlashAICB_Assets_x2F_decor_x5F_plants_3_x2F__x3C_Path_x3E__x5F_30"  width="39.95" height="4.05" y="-4.05" transform="matrix(1 0 0 1 19.3999 -33.75)" style="overflow:visible;opacity:0.3008;enable-background:new    ;"/>
				
					<use xlink:href="#FlashAICB_Assets_x2F_decor_x5F_plants_3_x2F__x3C_Path_x3E__x5F_29"  width="41.15" height="4.406" y="-4.406" transform="matrix(1 0 0 1 89.5498 -15.6499)" style="overflow:visible;opacity:0.3008;enable-background:new    ;"/>
				
					<use xlink:href="#FlashAICB_Assets_x2F_decor_x5F_plants_3_x2F__x3C_Path_x3E__x5F_28"  width="70.2" height="3.239" y="-3.239" transform="matrix(1 0 0 1 55.0498 -13.8501)" style="overflow:visible;opacity:0.3008;enable-background:new    ;"/>
				
					<use xlink:href="#FlashAICB_Assets_x2F_decor_x5F_plants_3_x2F__x3C_Path_x3E__x5F_27"  width="40.1" height="2.14" y="-2.14" transform="matrix(1 0 0 1 43 -8.6499)" style="overflow:visible;opacity:0.1016;enable-background:new    ;"/>
				
					<use xlink:href="#FlashAICB_Assets_x2F_decor_x5F_plants_3_x2F__x3C_Path_x3E__x5F_26"  width="40.25" height="4.339" y="-4.339" transform="matrix(1 0 0 1 84.8999 -7.2998)" style="overflow:visible;opacity:0.3008;enable-background:new    ;"/>
				
					<use xlink:href="#FlashAICB_Assets_x2F_decor_x5F_plants_3_x2F__x3C_Path_x3E__x5F_25"  width="52.1" height="2.75" y="-2.75" transform="matrix(1 0 0 1 60.4502 -3.3501)" style="overflow:visible;opacity:0.3008;enable-background:new    ;"/>
				
					<use xlink:href="#FlashAICB_Assets_x2F_decor_x5F_plants_3_x2F__x3C_Path_x3E__x5F_24"  width="60.25" height="3.95" y="-3.95" transform="matrix(1 0 0 1 17.2002 -43.9502)" style="overflow:visible;opacity:0.1992;enable-background:new    ;"/>
				
					<use xlink:href="#FlashAICB_Assets_x2F_decor_x5F_plants_3_x2F__x3C_Path_x3E__x5F_23"  width="75" height="3.014" y="-3.014" transform="matrix(1 0 0 1 39.3501 -54.6001)" style="overflow:visible;opacity:0.3008;enable-background:new    ;"/>
				
					<use xlink:href="#FlashAICB_Assets_x2F_decor_x5F_plants_3_x2F__x3C_Path_x3E__x5F_22"  width="75.35" height="5.373" y="-5.373" transform="matrix(1 0 0 1 79.1001 -54.6499)" style="overflow:visible;opacity:0.1992;enable-background:new    ;"/>
				
					<use xlink:href="#FlashAICB_Assets_x2F_decor_x5F_plants_3_x2F__x3C_Path_x3E__x5F_21"  width="77.65" height="6.893" y="-6.893" transform="matrix(1 0 0 1 96.4502 -24.6001)" style="overflow:visible;opacity:0.3008;enable-background:new    ;"/>
				
					<use xlink:href="#FlashAICB_Assets_x2F_decor_x5F_plants_3_x2F__x3C_Path_x3E__x5F_20"  width="77.55" height="3.05" y="-3.05" transform="matrix(1 0 0 1 58.3999 -23)" style="overflow:visible;opacity:0.1992;enable-background:new    ;"/>
				
					<use xlink:href="#FlashAICB_Assets_x2F_decor_x5F_plants_3_x2F__x3C_Path_x3E__x5F_19"  width="75.75" height="5.495" y="-5.495" transform="matrix(1 0 0 1 63.3999 -47.0498)" style="overflow:visible;opacity:0.3008;enable-background:new    ;"/>
				
					<use xlink:href="#FlashAICB_Assets_x2F_decor_x5F_plants_3_x2F__x3C_Path_x3E__x5F_18"  width="39.4" height="3.7" y="-3.7" transform="matrix(1 0 0 1 9.3999 -48.75)" style="overflow:visible;opacity:0.3008;enable-background:new    ;"/>
				
					<use xlink:href="#FlashAICB_Assets_x2F_decor_x5F_plants_3_x2F__x3C_Path_x3E__x5F_17"  width="39.15" height="3.607" y="-3.607" transform="matrix(1 0 0 1 20.0498 -56.4502)" style="overflow:visible;opacity:0.1992;enable-background:new    ;"/>
				
					<use xlink:href="#FlashAICB_Assets_x2F_decor_x5F_plants_3_x2F__x3C_Path_x3E__x5F_16"  width="74.45" height="5.853" y="-5.853" transform="matrix(1 0 0 1 69.1499 -64.9502)" style="overflow:visible;opacity:0.3008;enable-background:new    ;"/>
				
					<use xlink:href="#FlashAICB_Assets_x2F_decor_x5F_plants_3_x2F__x3C_Path_x3E__x5F_15"  width="74" height="2.29" y="-2.29" transform="matrix(1 0 0 1 18.4502 -68.1499)" style="overflow:visible;opacity:0.3008;enable-background:new    ;"/>
				
					<use xlink:href="#FlashAICB_Assets_x2F_decor_x5F_plants_3_x2F__x3C_Path_x3E__x5F_14"  width="74.35" height="2.34" y="-2.34" transform="matrix(1 0 0 1 33 -64)" style="overflow:visible;opacity:0.3008;enable-background:new    ;"/>
				
					<use xlink:href="#FlashAICB_Assets_x2F_decor_x5F_plants_3_x2F__x3C_Path_x3E__x5F_13"  width="39.4" height="5.232" y="-5.232" transform="matrix(1 0 0 1 101.5996 -59.4502)" style="overflow:visible;opacity:0.1992;enable-background:new    ;"/>
				
					<use xlink:href="#FlashAICB_Assets_x2F_decor_x5F_plants_3_x2F__x3C_Path_x3E__x5F_12"  width="39.15" height="5.117" y="-5.117" transform="matrix(1 0 0 1 113.5996 -67.75)" style="overflow:visible;opacity:0.1992;enable-background:new    ;"/>
				
					<use xlink:href="#FlashAICB_Assets_x2F_decor_x5F_plants_3_x2F__x3C_Path_x3E__x5F_11"  width="73.45" height="5.703" y="-5.703" transform="matrix(1 0 0 1 69.8999 -78.5498)" style="overflow:visible;opacity:0.1016;enable-background:new    ;"/>
				
					<use xlink:href="#FlashAICB_Assets_x2F_decor_x5F_plants_3_x2F__x3C_Path_x3E__x5F_10"  width="73.3" height="2.29" y="-2.29" transform="matrix(1 0 0 1 10.5498 -76.75)" style="overflow:visible;opacity:0.1992;enable-background:new    ;"/>
				
					<use xlink:href="#FlashAICB_Assets_x2F_decor_x5F_plants_3_x2F__x3C_Path_x3E__x5F_9"  width="73.75" height="2.333" y="-2.333" transform="matrix(1 0 0 1 19.5498 -71.5)" style="overflow:visible;opacity:0.3008;enable-background:new    ;"/>
				
					<use xlink:href="#FlashAICB_Assets_x2F_decor_x5F_plants_3_x2F__x3C_Path_x3E__x5F_8"  width="72.75" height="4.573" y="-4.573" transform="matrix(1 0 0 1 6.0498 -79.3496)" style="overflow:visible;opacity:0.1992;enable-background:new    ;"/>
				
					<use xlink:href="#FlashAICB_Assets_x2F_decor_x5F_plants_3_x2F__x3C_Path_x3E__x5F_7"  width="38.8" height="5.082" y="-5.082" transform="matrix(1 0 0 1 101.9004 -73.8501)" style="overflow:visible;opacity:0.3008;enable-background:new    ;"/>
				
					<use xlink:href="#FlashAICB_Assets_x2F_decor_x5F_plants_3_x2F__x3C_Path_x3E__x5F_6"  width="38.7" height="4.967" y="-4.967" transform="matrix(1 0 0 1 117.2998 -80.5)" style="overflow:visible;opacity:0.1992;enable-background:new    ;"/>
				
					<use xlink:href="#FlashAICB_Assets_x2F_decor_x5F_plants_3_x2F__x3C_Path_x3E__x5F_5"  width="72.7" height="4.057" y="-4.057" transform="matrix(1 0 0 1 72.2998 -91.5)" style="overflow:visible;opacity:0.3008;enable-background:new    ;"/>
				
					<use xlink:href="#FlashAICB_Assets_x2F_decor_x5F_plants_3_x2F__x3C_Path_x3E__x5F_4_x5F_0"  width="72.2" height="5.868" y="-5.868" transform="matrix(1 0 0 1 14.3999 -83.25)" style="overflow:visible;opacity:0.3008;enable-background:new    ;"/>
				
					<use xlink:href="#FlashAICB_Assets_x2F_decor_x5F_plants_3_x2F__x3C_Path_x3E__x5F_3_x5F_0"  width="71.85" height="5.868" y="-5.868" transform="matrix(1 0 0 1 0 -87.75)" style="overflow:visible;opacity:0.1992;enable-background:new    ;"/>
				
					<use xlink:href="#FlashAICB_Assets_x2F_decor_x5F_plants_3_x2F__x3C_Path_x3E__x5F_2_x5F_0"  width="72.1" height="2.489" y="-2.489" transform="matrix(1 0 0 1 44.5 -95.75)" style="overflow:visible;opacity:0.1016;enable-background:new    ;"/>
				
					<use xlink:href="#FlashAICB_Assets_x2F_decor_x5F_plants_3_x2F__x3C_Path_x3E__x5F_1"  width="38.5" height="4.103" y="-4.103" transform="matrix(1 0 0 1 104.2002 -86.8496)" style="overflow:visible;opacity:0.3008;enable-background:new    ;"/>
				
					<use xlink:href="#FlashAICB_Assets_x2F_decor_x5F_plants_3_x2F__x3C_Path_x3E_"  width="38" height="4.003" y="-4.003" transform="matrix(1 0 0 1 92.9004 -97.5996)" style="overflow:visible;opacity:0.3008;enable-background:new    ;"/>
			</g>
		</g>
	</g>
	<g id="Layer_4_1_">
	</g>
</symbol>
<symbol  id="FlashAICB_Assets_x2F_decor_x5F_plants_3_x2F__x3C_Clip_Group_0_x3E__x5F_0" viewBox="0 -116.85 116 116.85">
	<g id="Layer_1_61_">
	</g>
	<g>
		<defs>
			<path id="SVGID_3_" d="M99-10.1C87.667-3.367,74,0,58,0C41.967,0,28.3-3.367,17-10.1C5.667-16.833,0-24.967,0-34.5
				s5.667-17.667,17-24.4C28.3-65.633,41.967-69,58-69c16,0,29.667,3.367,41,10.1s17,14.867,17,24.4S110.333-16.833,99-10.1z"/>
		</defs>
		<clipPath id="SVGID_4_">
			<use xlink:href="#SVGID_3_"  style="overflow:visible;"/>
		</clipPath>
		<g id="Layer_3_2_" style="clip-path:url(#SVGID_4_);">
			<g>
				<g>
					<path style="fill-rule:evenodd;clip-rule:evenodd;fill:#766935;" d="M36.9-69.55l-0.6,2.8l2.5,0.95
						c2.267,0.633,4.867,0.966,7.8,1c2.167,0,3.433-0.1,3.8-0.3l4.05,3l-1.05-3.5l2.75,0.05l-3.55-3.3l1.55-2.8l-3.7,3
						c-0.5,0.267-1.317,0.6-2.45,1c-1.9,0.6-4.317,0.467-7.25-0.4L36.9-69.55z"/>
					<path style="fill-rule:evenodd;clip-rule:evenodd;fill:#766935;" d="M45.9-43.2l-0.4-2.85l2.95-0.9
						c-0.4-0.1-0.833-0.233-1.3-0.4c-0.933-0.4-1.55-0.833-1.85-1.3l1.35-1.85l-3.05,1.75c-0.467,0.167-1.133,0.317-2,0.45
						c-1.533,0.233-3.4-0.167-5.6-1.2l-2.8-1.65l-0.8,2.1L34.25-48c1.667,0.767,3.617,1.333,5.85,1.7c1.7,0.3,2.7,0.383,3,0.25
						L45.9-43.2z"/>
					<path style="fill-rule:evenodd;clip-rule:evenodd;fill:#766935;" d="M23.65-67.45l3.3-3.15c-1.167,0.367-2.517,0.667-4.05,0.9
						c-3.033,0.4-5.45,0.15-7.25-0.75c-0.933-0.433-1.7-0.867-2.3-1.3l-2.3-2.8l0.25,2.25c-0.566,0.466-1.4,1.066-2.5,1.8l-1.5,0.95
						l2.75,0.35L8.4-65.95l4.5-2.3c0.3,0.267,1.533,0.55,3.7,0.85c1.367,0.2,2.95,0.25,4.75,0.15
						C22.25-67.283,23.017-67.35,23.65-67.45z"/>
					<path style="fill-rule:evenodd;clip-rule:evenodd;fill:#766935;" d="M14.9-46.15c-0.133,0.566-0.617,1.1-1.45,1.6l-1.15,0.6
						l3.2,0.35l0.5,2.85l1.8-3.55l0.5-0.15c0.534-0.167,1.284-0.5,2.25-1c1.534-0.8,3.017-1.9,4.45-3.3l0.6-3.5
						c-0.567,0.767-1.283,1.567-2.15,2.4c-1.733,1.667-3.367,2.633-4.9,2.9c-0.833,0.133-1.533,0.2-2.1,0.2l-1.7-2.35L14.9-46.15z"
						/>
					<path style="fill-rule:evenodd;clip-rule:evenodd;fill:#8C7C3F;" d="M32.35-34c-0.7,0.933-1.383,2.017-2.05,3.25
						c-1.333,2.433-1.95,4.35-1.85,5.75c0.267,3.067,1.417,6.033,3.45,8.9c1.033,1.434,2.033,2.55,3,3.35l0.3-3.1
						c0.3-2.467,0.75-4.8,1.35-7c0.6-2.2,0.083-4.717-1.55-7.55C34.167-31.833,33.283-33.033,32.35-34z"/>
					<path style="fill-rule:evenodd;clip-rule:evenodd;fill:#D0B85E;" d="M32.65-30.1c-1.7,2.367-2.5,4.25-2.4,5.65
						c0.133,1.934,0.85,3.8,2.15,5.6c0.667,0.9,1.3,1.6,1.9,2.1l0.15-1.95c0.2-1.566,0.483-3.033,0.85-4.4
						c0.4-1.367,0.083-2.95-0.95-4.75C33.817-28.75,33.25-29.5,32.65-30.1z"/>
					<path style="fill-rule:evenodd;clip-rule:evenodd;fill:#766935;" d="M34.75-23.4c-0.5-3.333-0.65-7.567-0.45-12.7
						c0.434-10.267,2.434-19.917,6-28.95c0.633-1.567,2.684-6.483,6.15-14.75c2.3-5.467,3.867-9.65,4.7-12.55
						c-1.533-0.3-3.316-0.3-5.35,0c-2.233,0.3-3.633,0.417-4.2,0.35c-2.7-0.233-4.883-3.317-6.55-9.25c-2.533,0.267-4.7,1.8-6.5,4.6
						c-2.066,3.267-3.5,8.083-4.3,14.45C21.817-63,22.833-47.433,27.3-35.5C29.533-29.567,32.017-25.533,34.75-23.4z"/>
					<g>
						<path style="fill-rule:evenodd;clip-rule:evenodd;fill:#60552C;" d="M33.1-70.1c-3-0.3-6.25-1.517-9.75-3.65l-0.25,5.2
							c2.867,1.367,6.167,2.216,9.9,2.55c3.067,0.233,5.617,0.233,7.65,0c0.767-1.933,1.434-3.533,2-4.8
							C39.383-70.033,36.2-69.8,33.1-70.1z"/>
						<path style="fill-rule:evenodd;clip-rule:evenodd;fill:#60552C;" d="M30.85-61.35c-2.333-0.033-4.967-0.717-7.9-2.05
							c0,1.767,0.05,3.45,0.15,5.05c2.467,0.833,5.3,1.3,8.5,1.4c2.333,0.034,4.35-0.05,6.05-0.25c0.5-1.767,1.05-3.517,1.65-5.25
							C36.467-61.583,33.65-61.217,30.85-61.35z"/>
						<path style="fill-rule:evenodd;clip-rule:evenodd;fill:#60552C;" d="M23.2-55.95l0.4,4.35c1.867,1.033,3.95,1.7,6.25,2
							c2.4,0.333,4.4,0.333,6,0l0.4-2l0.05-0.1c0.1-0.733,0.25-1.4,0.45-2c-2.433,0.833-4.833,1.083-7.2,0.75
							C27.583-53.25,25.467-54.25,23.2-55.95z"/>
						<path style="fill-rule:evenodd;clip-rule:evenodd;fill:#60552C;" d="M24.05-48.2l0.6,3.2c1.9,0.933,4.017,1.367,6.35,1.3
							c1.7-0.1,3.033-0.316,4-0.65l0.5-3.25v-0.05c-1.533,0.933-3.25,1.417-5.15,1.45C28.583-46.167,26.483-46.833,24.05-48.2z"/>
						<path style="fill-rule:evenodd;clip-rule:evenodd;fill:#60552C;" d="M32.05-36.85c0.7-0.033,1.467-0.117,2.3-0.25v-0.05
							l0.2-2.75c-1.1,0.367-2.15,0.55-3.15,0.55c-1.7,0.033-3.65-0.55-5.85-1.75l0.95,3.35C28.267-37.083,30.117-36.783,32.05-36.85
							z"/>
						<path style="fill-rule:evenodd;clip-rule:evenodd;fill:#60552C;" d="M32.25-33.2c-1.333,0.034-2.817-0.333-4.45-1.1
							c0.167,0.5,0.4,1.05,0.7,1.65v0.05l0.75,1.55c1.033,0.233,2.25,0.333,3.65,0.3l1.35-0.1v-2.6
							C33.817-33.35,33.15-33.267,32.25-33.2z"/>
					</g>
					
						<use xlink:href="#FlashAICB_Assets_x2F_decor_x5F_plants_3_x2F__x3C_Path_x3E__x5F_7_x5F_0"  width="11.639" height="62.2" x="0.01" y="-62.2" transform="matrix(1 0 0 1 22.9502 -23.5498)" style="overflow:visible;opacity:0.1992;enable-background:new    ;"/>
					
						<use xlink:href="#FlashAICB_Assets_x2F_decor_x5F_plants_3_x2F__x3C_Path_x3E__x5F_6_x5F_0"  width="-32766" height="-32766" x="16383" y="16383" transform="matrix(1 0 0 1 17.1499 -69.8999)" style="overflow:visible;enable-background:new    ;"/>
					<path style="fill-rule:evenodd;clip-rule:evenodd;fill:#3E2C2E;" d="M34.7-95.25l4,0.25l-0.5-5.25
						c-0.333-3.733-0.5-6.217-0.5-7.45v-7.65c-0.4,0.4-0.8,1.083-1.2,2.05c-0.833,1.933-1.3,4.333-1.4,7.2L34.7-95.25z"/>
					<path style="fill-rule:evenodd;clip-rule:evenodd;fill:#8C7C3F;" d="M35.2-72.3c5.9,0.133,10.883-1.267,14.95-4.2
						c4-2.9,6.033-6.467,6.1-10.7c0.2-8.367-6.2-14.966-19.2-19.8c-7.533,1.633-13.167,4.2-16.9,7.7
						c-3.367,3.133-5.1,6.933-5.2,11.4c-0.1,4.233,1.767,7.85,5.6,10.85C24.417-74.017,29.3-72.433,35.2-72.3z"/>
					
						<use xlink:href="#FlashAICB_Assets_x2F_decor_x5F_plants_3_x2F__x3C_Path_x3E__x5F_3_x5F_1"  width="39.354" height="27.259" x="-0.004" y="-27.25" transform="matrix(1 0 0 1 14.9502 -72.2998)" style="overflow:visible;opacity:0.1992;enable-background:new    ;"/>
					<g>
						<g>
							<path style="fill-rule:evenodd;clip-rule:evenodd;fill:#3E2C2E;" d="M22.5-98.35c-1.633,1.833-2.15,2.95-1.55,3.35
								c0.4,0.267,0.883,0.2,1.45-0.2c0.4-0.3,0.983-0.9,1.75-1.8c0.833-0.967,1.367-1.633,1.6-2c0.367-0.633,0.367-1.083,0-1.35
								c-0.4-0.267-0.883-0.2-1.45,0.2C23.867-99.85,23.267-99.25,22.5-98.35z"/>
						</g>
					</g>
					<g>
						<g>
							<path style="fill-rule:evenodd;clip-rule:evenodd;fill:#3E2C2E;" d="M23.5-96.65c1.233-0.167,2.083-0.317,2.55-0.45
								c0.667-0.267,0.95-0.617,0.85-1.05c-0.1-0.434-0.517-0.684-1.25-0.75c-0.5-0.033-1.333,0.017-2.5,0.15
								c-2.433,0.3-3.55,0.817-3.35,1.55c0.1,0.467,0.5,0.717,1.2,0.75C21.5-96.417,22.333-96.483,23.5-96.65z"/>
						</g>
					</g>
					<g>
						<g>
							<path style="fill-rule:evenodd;clip-rule:evenodd;fill:#3E2C2E;" d="M49.6-98.35c-0.767-0.9-1.367-1.5-1.8-1.8
								c-0.566-0.4-1.05-0.467-1.45-0.2c-0.367,0.267-0.367,0.717,0,1.35c0.233,0.367,0.767,1.033,1.6,2
								c0.833,0.933,1.433,1.533,1.8,1.8c0.567,0.4,1.033,0.467,1.4,0.2s0.383-0.7,0.05-1.3C50.933-96.767,50.4-97.45,49.6-98.35z"
								/>
						</g>
					</g>
					<g>
						<g>
							<path style="fill-rule:evenodd;clip-rule:evenodd;fill:#3E2C2E;" d="M48.6-96.65c1.2,0.167,2.05,0.233,2.55,0.2
								c0.7-0.033,1.1-0.283,1.2-0.75c0.1-0.433-0.184-0.783-0.85-1.05c-0.5-0.2-1.333-0.367-2.5-0.5
								c-1.2-0.133-2.05-0.183-2.55-0.15c-0.733,0.066-1.15,0.316-1.25,0.75c-0.1,0.433,0.2,0.783,0.9,1.05
								C46.533-96.967,47.367-96.817,48.6-96.65z"/>
						</g>
					</g>
					<path style="fill-rule:evenodd;clip-rule:evenodd;fill:#766935;" d="M47.85-84.95C47.217-84.017,46.9-83,46.9-81.9
						c0.033,1.066,0.383,1.883,1.05,2.45c0.667,0.567,1.483,0.717,2.45,0.45c0.934-0.267,1.733-0.883,2.4-1.85
						c0.667-0.967,0.983-1.983,0.95-3.05c0-1.067-0.35-1.883-1.05-2.45c-0.667-0.566-1.467-0.717-2.4-0.45
						C49.333-86.5,48.517-85.883,47.85-84.95z"/>
					<path style="fill-rule:evenodd;clip-rule:evenodd;fill:#766935;" d="M40.65-84.55c-0.433,0.633-0.65,1.3-0.65,2
						c0.033,0.7,0.267,1.233,0.7,1.6c0.433,0.367,0.966,0.467,1.6,0.3c0.6-0.167,1.117-0.55,1.55-1.15c0.433-0.633,0.65-1.3,0.65-2
						c0-0.7-0.233-1.233-0.7-1.6c-0.433-0.367-0.95-0.467-1.55-0.3C41.617-85.533,41.083-85.15,40.65-84.55z"/>
					<path style="fill-rule:evenodd;clip-rule:evenodd;fill:#766935;" d="M44.35-82.1c-0.3,0.4-0.45,0.833-0.45,1.3
						c0.033,0.433,0.184,0.783,0.45,1.05c0.3,0.233,0.65,0.283,1.05,0.15c0.4-0.1,0.75-0.35,1.05-0.75c0.267-0.4,0.4-0.833,0.4-1.3
						s-0.15-0.817-0.45-1.05c-0.267-0.267-0.6-0.333-1-0.2C44.967-82.8,44.617-82.533,44.35-82.1z"/>
				</g>
				<g>
					<path style="fill-rule:evenodd;clip-rule:evenodd;fill:#766935;" d="M70.55-70.3l-2-3.05l2.65-0.7
						c-1.867-0.867-3.3-1.6-4.3-2.2l0.7-3.15l-2.7,3.95c-0.667,0.567-1.367,1.1-2.1,1.6c-1.633,1.1-4,1.633-7.1,1.6l-4.1-0.35
						l0.2,2.85l2.7,0.2c2.333,0,4.917-0.383,7.75-1.15c2.1-0.6,3.283-1.05,3.55-1.35L70.55-70.3z"/>
					<path style="fill-rule:evenodd;clip-rule:evenodd;fill:#766935;" d="M67.55-49.8l-1.2-2.6l2.6-1.7
						c-0.4,0.033-0.85,0.017-1.35-0.05c-1-0.1-1.717-0.333-2.15-0.7l0.8-2.1l-2.45,2.5c-0.667,0.4-1.283,0.717-1.85,0.95
						c-1.4,0.633-3.284,0.767-5.65,0.4l-3.15-0.8l-0.2,2.25l2.05,0.5c1.8,0.267,3.85,0.267,6.15,0c1.7-0.167,2.684-0.35,2.95-0.55
						L67.55-49.8z"/>
					<path style="fill-rule:evenodd;clip-rule:evenodd;fill:#766935;" d="M25.9-64.85l-0.65,3.6l3.65-3.5l0.7,0.05
						c0.7,0.034,1.733-0.05,3.1-0.25c2.2-0.267,4.45-0.917,6.75-1.95l2.3-3.95c-1,0.7-2.217,1.35-3.65,1.95
						c-2.8,1.267-5.184,1.717-7.15,1.35c-1.233-0.267-2.083-0.5-2.55-0.7l-3.05-2l0.9,2.1c-0.4,0.566-1.033,1.35-1.9,2.35l-1.2,1.35
						L25.9-64.85z"/>
					<path style="fill-rule:evenodd;clip-rule:evenodd;fill:#766935;" d="M45.9-49.3l-0.35-3.55c-0.333,0.9-0.8,1.867-1.4,2.9
						c-1.2,2.1-2.517,3.483-3.95,4.15c-0.9,0.4-1.55,0.65-1.95,0.75l-2.3-1.8l1,2.85c0,0.567-0.317,1.2-0.95,1.9l-0.95,0.9l3.2-0.55
						l1.2,2.6l0.75-3.9l0.45-0.3c0.467-0.333,1.1-0.867,1.9-1.6C43.783-46.117,44.9-47.567,45.9-49.3z"/>
					<path style="fill-rule:evenodd;clip-rule:evenodd;fill:#8C7C3F;" d="M57.05-37.15c-0.4,1.1-0.75,2.316-1.05,3.65
						c-0.6,2.733-0.667,4.75-0.2,6.05c1.1,2.9,3.034,5.434,5.8,7.6c1.367,1.1,2.633,1.9,3.8,2.4c-0.8-3.167-1.217-6.55-1.25-10.15
						c0-2.267-1.183-4.533-3.55-6.8L57.05-37.15z"/>
					<path style="fill-rule:evenodd;clip-rule:evenodd;fill:#D0B85E;" d="M58.45-33.5c-0.267,0.667-0.5,1.433-0.7,2.3
						c-0.367,1.7-0.4,2.95-0.1,3.75c0.7,1.833,1.917,3.434,3.65,4.8c0.867,0.667,1.667,1.167,2.4,1.5l-0.4-1.9
						c-0.233-1.567-0.367-3.05-0.4-4.45c0-1.433-0.733-2.867-2.2-4.3L58.45-33.5z"/>
					<path style="fill-rule:evenodd;clip-rule:evenodd;fill:#766935;" d="M62.25-27.65c-1.4-3.067-2.7-7.083-3.9-12.05
						c-2.4-9.966-3.15-19.8-2.25-29.5c0.167-1.833,0.783-7.133,1.85-15.9c0.7-5.9,1.066-10.35,1.1-13.35
						c-1.566,0.133-3.283,0.617-5.15,1.45c-2.066,0.933-3.383,1.45-3.95,1.55c-2.667,0.5-5.617-1.867-8.85-7.1
						c-2.367,0.966-4.017,3.033-4.95,6.2c-1.1,3.7-1.167,8.733-0.2,15.1c2.966,19.133,8.233,33.8,15.8,44
						C55.55-32.15,59.05-28.95,62.25-27.65z"/>
					<g>
						<path style="fill-rule:evenodd;clip-rule:evenodd;fill:#60552C;" d="M37.45-72.9l1.15,5.1c3.167,0.5,6.583,0.383,10.25-0.35
							c2.933-0.6,5.383-1.3,7.35-2.1l0.55-5.15c-2.9,1.667-5.883,2.783-8.95,3.35C44.733-71.483,41.283-71.767,37.45-72.9z"/>
						<path style="fill-rule:evenodd;clip-rule:evenodd;fill:#60552C;" d="M41.45-58c2.833,0.067,5.683-0.267,8.55-1
							c2.233-0.6,4.15-1.25,5.75-1.95c0-1.833,0.05-3.667,0.15-5.5c-2.433,1.6-5.033,2.733-7.8,3.4c-2.3,0.6-5.033,0.667-8.2,0.2
							C40.467-60.983,40.983-59.367,41.45-58z"/>
						<path style="fill-rule:evenodd;clip-rule:evenodd;fill:#60552C;" d="M56.1-53.15l-0.25-4.2c-2.067,1.5-4.3,2.4-6.7,2.7
							c-1.933,0.3-4.25-0.067-6.95-1.1l1.6,4.1c2.233,0.467,4.417,0.533,6.55,0.2C52.817-51.817,54.733-52.383,56.1-53.15z"/>
						<path style="fill-rule:evenodd;clip-rule:evenodd;fill:#60552C;" d="M45.15-48.55l1.45,2.9v0.05
							c2.066,0.4,4.233,0.217,6.5-0.55c1.5-0.533,2.717-1.1,3.65-1.7l-0.45-3.3c-1.233,1.3-2.75,2.233-4.55,2.8
							C50.083-47.783,47.883-47.85,45.15-48.55z"/>
						<path style="fill-rule:evenodd;clip-rule:evenodd;fill:#60552C;" d="M48.55-42.15l1.85,2.95c1.833,0.2,3.684-0.017,5.55-0.65
							c1.133-0.4,1.867-0.683,2.2-0.85l-0.05-0.05l-0.55-2.7c-0.9,0.633-1.867,1.1-2.9,1.4C53.117-41.55,51.083-41.583,48.55-42.15z
							"/>
						<path style="fill-rule:evenodd;clip-rule:evenodd;fill:#60552C;" d="M57.15-36.4c-1.2,0.4-2.717,0.467-4.55,0.2l1.1,1.4
							l0.05,0.05l1.1,1.25h0.05c1.167-0.067,2.367-0.3,3.6-0.7l1.25-0.45L59-37.15C58.133-36.75,57.517-36.5,57.15-36.4z"/>
					</g>
					
						<use xlink:href="#FlashAICB_Assets_x2F_decor_x5F_plants_3_x2F__x3C_Path_x3E__x5F_7_x5F_1"  width="26.6" height="57.1" y="-57.1" transform="matrix(1 0 0 1 35.5 -27.75)" style="overflow:visible;opacity:0.1992;enable-background:new    ;"/>
					
						<use xlink:href="#FlashAICB_Assets_x2F_decor_x5F_plants_3_x2F__x3C_Path_x3E__x5F_6_x5F_2"  width="-32766" height="-32766" x="16383" y="16383" transform="matrix(1 0 0 1 29.6001 -71.3999)" style="overflow:visible;enable-background:new    ;"/>
					<path style="fill-rule:evenodd;clip-rule:evenodd;fill:#3E2C2E;" d="M42.4-96.65l3.9-0.95l-1.9-4.85
						c-1.333-3.5-2.183-5.85-2.55-7.05l-2.1-7.35c-0.267,0.5-0.467,1.283-0.6,2.35c-0.3,2.1-0.1,4.533,0.6,7.3L42.4-96.65z"/>
					<path style="fill-rule:evenodd;clip-rule:evenodd;fill:#8C7C3F;" d="M25.45-84.2c1.1,4.1,3.883,7.067,8.35,8.9
						c4.567,1.833,9.7,2,15.4,0.5c5.7-1.5,10.1-4.217,13.2-8.15c3.067-3.867,4.05-7.85,2.95-11.95c-2.133-8.1-10.1-12.667-23.9-13.7
						c-6.8,3.667-11.517,7.684-14.15,12.05C24.933-92.617,24.317-88.5,25.45-84.2z"/>
					
						<use xlink:href="#FlashAICB_Assets_x2F_decor_x5F_plants_3_x2F__x3C_Path_x3E__x5F_3_x5F_2"  width="40.302" height="23.062" x="-0.002" y="-23.05" transform="matrix(1 0 0 1 24.8999 -73.7998)" style="overflow:visible;opacity:0.1992;enable-background:new    ;"/>
					<g>
						<g>
							<path style="fill-rule:evenodd;clip-rule:evenodd;fill:#3E2C2E;" d="M31.75-95.45c0.567-1.1,0.9-1.9,1-2.4
								c0.2-0.7,0.083-1.117-0.35-1.25c-0.733-0.267-1.6,0.667-2.6,2.8c-0.5,1.066-0.8,1.85-0.9,2.35
								c-0.167,0.7-0.033,1.133,0.4,1.3c0.434,0.167,0.85-0.033,1.25-0.6C30.817-93.617,31.217-94.35,31.75-95.45z"/>
						</g>
					</g>
					<g>
						<g>
							<path style="fill-rule:evenodd;clip-rule:evenodd;fill:#3E2C2E;" d="M31.25-94.95c1.167-0.5,1.933-0.883,2.3-1.15
								c0.6-0.433,0.784-0.833,0.55-1.2c-0.233-0.4-0.7-0.534-1.4-0.4c-0.5,0.1-1.3,0.383-2.4,0.85c-1.1,0.5-1.85,0.9-2.25,1.2
								c-0.566,0.4-0.733,0.8-0.5,1.2c0.233,0.4,0.684,0.534,1.35,0.4C29.367-94.15,30.15-94.45,31.25-94.95z"/>
						</g>
					</g>
					<g>
						<g>
							<path style="fill-rule:evenodd;clip-rule:evenodd;fill:#3E2C2E;" d="M54.65-102.05c1,0.667,1.733,1.083,2.2,1.25
								c0.667,0.233,1.15,0.183,1.45-0.15c0.267-0.367,0.15-0.816-0.35-1.35c-0.367-0.367-1.05-0.867-2.05-1.5
								c-1.033-0.633-1.783-1.034-2.25-1.2c-0.667-0.233-1.15-0.167-1.45,0.2c-0.267,0.333-0.133,0.75,0.4,1.25
								C52.933-103.217,53.617-102.717,54.65-102.05z"/>
						</g>
					</g>
					<g>
						<g>
							<path style="fill-rule:evenodd;clip-rule:evenodd;fill:#3E2C2E;" d="M55.4-101.85c1.2-0.2,2.017-0.367,2.45-0.5
								c0.667-0.267,0.983-0.617,0.95-1.05c0-0.467-0.35-0.733-1.05-0.8c-0.533-0.033-1.4,0.034-2.6,0.2
								c-1.2,0.167-2.017,0.35-2.45,0.55c-0.7,0.267-1.034,0.633-1,1.1c0.033,0.434,0.417,0.667,1.15,0.7
								C53.25-101.617,54.1-101.683,55.4-101.85z"/>
						</g>
					</g>
					<path style="fill-rule:evenodd;clip-rule:evenodd;fill:#766935;" d="M57.9-90.45c-0.367,1.1-0.4,2.167-0.1,3.2
						c0.3,1,0.867,1.683,1.7,2.05c0.8,0.367,1.617,0.3,2.45-0.2c0.867-0.533,1.466-1.35,1.8-2.45c0.367-1.066,0.4-2.117,0.1-3.15
						c-0.3-1.033-0.85-1.733-1.65-2.1c-0.833-0.367-1.667-0.283-2.5,0.25C58.867-92.35,58.267-91.55,57.9-90.45z"/>
					<path style="fill-rule:evenodd;clip-rule:evenodd;fill:#766935;" d="M51.1-88.05c-0.233,0.733-0.267,1.433-0.1,2.1
						c0.2,0.667,0.567,1.117,1.1,1.35s1.083,0.184,1.65-0.15c0.533-0.333,0.917-0.85,1.15-1.55c0.267-0.733,0.3-1.434,0.1-2.1
						c-0.233-0.667-0.617-1.117-1.15-1.35s-1.067-0.183-1.6,0.15C51.717-89.267,51.333-88.75,51.1-88.05z"/>
					<path style="fill-rule:evenodd;clip-rule:evenodd;fill:#766935;" d="M55.3-86.75c-0.167,0.467-0.183,0.917-0.05,1.35
						c0.1,0.433,0.333,0.733,0.7,0.9c0.367,0.133,0.733,0.1,1.1-0.1c0.367-0.233,0.617-0.566,0.75-1
						c0.167-0.467,0.184-0.917,0.05-1.35c-0.167-0.466-0.417-0.767-0.75-0.9c-0.333-0.167-0.684-0.133-1.05,0.1
						C55.717-87.55,55.467-87.217,55.3-86.75z"/>
				</g>
				<g>
					<path style="fill-rule:evenodd;clip-rule:evenodd;fill:#766935;" d="M67.6-71.05l2,0.15c1.733-0.033,3.65-0.333,5.75-0.9
						c1.566-0.434,2.45-0.767,2.65-1l3.5,1.3L80-73.75l2-0.5c-1.4-0.633-2.467-1.183-3.2-1.65l0.5-2.35l-2,2.95
						c-0.333,0.333-0.85,0.733-1.55,1.2c-1.233,0.8-2.983,1.2-5.25,1.2l-3.05-0.3L67.6-71.05z"/>
					<path style="fill-rule:evenodd;clip-rule:evenodd;fill:#766935;" d="M75.15-59c-1.066,0.467-2.483,0.55-4.25,0.25l-2.3-0.6
						l-0.15,1.7l1.5,0.35c1.367,0.233,2.9,0.25,4.6,0.05c1.267-0.167,1.983-0.317,2.15-0.45l2.55,1.45L78.4-58.2l1.95-1.25
						c-1.233,0.067-2.117-0.117-2.65-0.55l0.6-1.6l-1.8,1.85C76.1-59.483,75.65-59.233,75.15-59z"/>
					<path style="fill-rule:evenodd;clip-rule:evenodd;fill:#766935;" d="M47.9-64.8l2.7-2.55l0.55,0.05c0.533,0,1.3-0.067,2.3-0.2
						c1.633-0.233,3.3-0.717,5-1.45l1.7-2.95c-0.767,0.5-1.667,0.983-2.7,1.45c-2.1,0.9-3.867,1.233-5.3,1l-1.9-0.5L48-71.45
						l0.65,1.55l-2.3,2.75l2.05-0.3L47.9-64.8z"/>
					<path style="fill-rule:evenodd;clip-rule:evenodd;fill:#766935;" d="M63.25-55.9l-0.3-2.65c-0.233,0.667-0.583,1.383-1.05,2.15
						c-0.9,1.566-1.867,2.6-2.9,3.1c-0.433,0.2-0.917,0.383-1.45,0.55l-1.7-1.35L56.6-52c0,0.4-0.233,0.867-0.7,1.4l-0.75,0.65
						l2.4-0.35l0.9,1.9L59-51.3l0.35-0.2c0.367-0.233,0.833-0.633,1.4-1.2C61.683-53.567,62.517-54.633,63.25-55.9z"/>
					<path style="fill-rule:evenodd;clip-rule:evenodd;fill:#8C7C3F;" d="M71.5-46.9c-0.3,0.8-0.567,1.7-0.8,2.7
						c-0.467,2-0.517,3.483-0.15,4.45c0.8,2.167,2.233,4.05,4.3,5.65c1,0.833,1.933,1.434,2.8,1.8l-0.4-2.25
						c-0.3-1.833-0.45-3.6-0.45-5.3c-0.033-1.667-0.917-3.35-2.65-5.05L71.5-46.9z"/>
					<path style="fill-rule:evenodd;clip-rule:evenodd;fill:#D0B85E;" d="M72.55-44.2c-0.2,0.5-0.367,1.067-0.5,1.7
						c-0.3,1.267-0.333,2.2-0.1,2.8c0.5,1.367,1.4,2.55,2.7,3.55c0.633,0.5,1.217,0.867,1.75,1.1l-0.25-1.4
						c-0.2-1.167-0.3-2.267-0.3-3.3c0-1.067-0.55-2.133-1.65-3.2L72.55-44.2z"/>
					<path style="fill-rule:evenodd;clip-rule:evenodd;fill:#766935;" d="M75.35-39.9l-2.9-8.95c-1.8-7.367-2.35-14.633-1.65-21.8
						c0.1-0.867,0.567-4.8,1.4-11.8c0.5-4.367,0.75-7.667,0.75-9.9c-1.133,0.1-2.4,0.467-3.8,1.1c-1.533,0.667-2.5,1.033-2.9,1.1
						c-2,0.4-4.2-1.35-6.6-5.25c-1.733,0.733-2.95,2.267-3.65,4.6c-0.833,2.733-0.883,6.466-0.15,11.2
						c2.2,14.2,6.1,25.067,11.7,32.6C70.383-43.2,72.983-40.833,75.35-39.9z"/>
					<g>
						<path style="fill-rule:evenodd;clip-rule:evenodd;fill:#60552C;" d="M71.3-75.25c-2.1,1.2-4.316,2.017-6.65,2.45
							c-2.167,0.4-4.733,0.2-7.7-0.6l0.9,3.75c2.267,0.4,4.783,0.316,7.55-0.25c2.2-0.4,4.017-0.917,5.45-1.55L71.3-75.25z"/>
						<path style="fill-rule:evenodd;clip-rule:evenodd;fill:#60552C;" d="M64.85-66.1c-1.6,0.4-3.617,0.45-6.05,0.15l1.1,3.6
							c2,0.067,4.117-0.2,6.35-0.8c1.567-0.4,2.983-0.867,4.25-1.4c0-1.333,0.05-2.7,0.15-4.1
							C68.917-67.483,66.983-66.633,64.85-66.1z"/>
						<path style="fill-rule:evenodd;clip-rule:evenodd;fill:#60552C;" d="M70.6-61.85c-1.467,1.067-3.117,1.733-4.95,2
							c-1.5,0.167-3.217-0.117-5.15-0.85l1.2,3.05c1.566,0.3,3.183,0.35,4.85,0.15c1.767-0.3,3.184-0.717,4.25-1.25l-0.1-1.5v-0.1
							L70.6-61.85z"/>
						<path style="fill-rule:evenodd;clip-rule:evenodd;fill:#60552C;" d="M62.7-55.35l1.05,2.15c1.5,0.3,3.1,0.167,4.8-0.4
							c1.1-0.333,2.017-0.75,2.75-1.25l-0.35-2.45c-0.867,0.933-1.983,1.633-3.35,2.1C66.4-54.833,64.767-54.883,62.7-55.35z"/>
						<path style="fill-rule:evenodd;clip-rule:evenodd;fill:#60552C;" d="M66.4-48.65l0.2,0.25c1.3,0.133,2.667-0.033,4.1-0.5
							c0.3-0.1,0.833-0.317,1.6-0.65l-0.45-2.05c-0.633,0.467-1.35,0.817-2.15,1.05c-1.133,0.4-2.633,0.383-4.5-0.05L66.4-48.65z"/>
						<path style="fill-rule:evenodd;clip-rule:evenodd;fill:#60552C;" d="M68.2-46.2l1.7,2c0.833-0.066,1.717-0.233,2.65-0.5
							l0.95-0.35l-0.55-1.85l-1.35,0.55C70.7-46.05,69.567-46,68.2-46.2z"/>
					</g>
					
						<use xlink:href="#FlashAICB_Assets_x2F_decor_x5F_plants_3_x2F__x3C_Path_x3E__x5F_7_x5F_2"  width="19.75" height="42.3" y="-42.3" transform="matrix(1 0 0 1 55.5 -39.9502)" style="overflow:visible;opacity:0.1992;enable-background:new    ;"/>
					
						<use xlink:href="#FlashAICB_Assets_x2F_decor_x5F_plants_3_x2F__x3C_Path_x3E__x5F_6_x5F_4"  width="-32766" height="-32766" x="16383" y="16383" transform="matrix(1 0 0 1 51.1499 -72.2998)" style="overflow:visible;enable-background:new    ;"/>
					<path style="fill-rule:evenodd;clip-rule:evenodd;fill:#3E2C2E;" d="M60.65-91.05l2.9-0.65l-1.45-3.6
						c-1-2.6-1.633-4.35-1.9-5.25L58.65-106c-0.2,0.367-0.35,0.933-0.45,1.7c-0.2,1.566-0.034,3.383,0.5,5.45L60.65-91.05z"/>
					<path style="fill-rule:evenodd;clip-rule:evenodd;fill:#8C7C3F;" d="M48.05-81.8c0.8,3.066,2.867,5.267,6.2,6.6
						c3.4,1.367,7.217,1.5,11.45,0.4c4.2-1.1,7.45-3.117,9.75-6.05c2.267-2.867,3-5.833,2.2-8.9c-1.6-5.967-7.517-9.35-17.75-10.15
						c-5.033,2.733-8.517,5.717-10.45,8.95C47.683-88.05,47.217-85,48.05-81.8z"/>
					
						<use xlink:href="#FlashAICB_Assets_x2F_decor_x5F_plants_3_x2F__x3C_Path_x3E__x5F_3_x5F_3"  width="29.886" height="17.136" x="0.014" y="-17.1" transform="matrix(1 0 0 1 47.6499 -74.0996)" style="overflow:visible;opacity:0.1992;enable-background:new    ;"/>
					<g>
						<g>
							<path style="fill-rule:evenodd;clip-rule:evenodd;fill:#3E2C2E;" d="M52.75-90.15c0.8-1.633,0.95-2.533,0.45-2.7
								c-0.333-0.1-0.65,0.05-0.95,0.45c-0.233,0.3-0.55,0.85-0.95,1.65c-0.8,1.6-0.933,2.5-0.4,2.7c0.333,0.1,0.65-0.05,0.95-0.45
								C52.05-88.767,52.35-89.317,52.75-90.15z"/>
						</g>
					</g>
					<g>
						<g>
							<path style="fill-rule:evenodd;clip-rule:evenodd;fill:#3E2C2E;" d="M52.35-89.75c0.867-0.4,1.433-0.683,1.7-0.85
								c0.467-0.3,0.617-0.6,0.45-0.9c-0.3-0.467-1.233-0.367-2.8,0.3c-1.633,0.733-2.333,1.333-2.1,1.8
								C49.867-88.933,50.783-89.05,52.35-89.75z"/>
						</g>
					</g>
					<g>
						<g>
							<path style="fill-rule:evenodd;clip-rule:evenodd;fill:#3E2C2E;" d="M69.75-95c0.8,0.467,1.35,0.767,1.65,0.9
								c0.467,0.167,0.8,0.117,1-0.15c0.367-0.433-0.217-1.117-1.75-2.05c-1.5-0.967-2.417-1.233-2.75-0.8
								c-0.2,0.267-0.1,0.583,0.3,0.95C68.433-95.883,68.95-95.5,69.75-95z"/>
						</g>
					</g>
					<g>
						<g>
							<path style="fill-rule:evenodd;clip-rule:evenodd;fill:#3E2C2E;" d="M70.25-94.9c0.9-0.133,1.517-0.25,1.85-0.35
								c0.5-0.2,0.733-0.467,0.7-0.8c0-0.567-0.9-0.7-2.7-0.4c-1.733,0.233-2.583,0.633-2.55,1.2c0,0.333,0.267,0.517,0.8,0.55
								C68.65-94.7,69.283-94.767,70.25-94.9z"/>
						</g>
					</g>
					<path style="fill-rule:evenodd;clip-rule:evenodd;fill:#766935;" d="M72.15-86.4c-0.267,0.8-0.3,1.583-0.1,2.35
						c0.233,0.767,0.65,1.283,1.25,1.55c0.6,0.267,1.217,0.2,1.85-0.2c0.633-0.4,1.083-1,1.35-1.8s0.283-1.583,0.05-2.35
						c-0.233-0.767-0.65-1.283-1.25-1.55c-0.6-0.267-1.2-0.2-1.8,0.2C72.867-87.833,72.417-87.233,72.15-86.4z"/>
					<path style="fill-rule:evenodd;clip-rule:evenodd;fill:#766935;" d="M67.05-84.65c-0.167,0.533-0.183,1.05-0.05,1.55
						c0.167,0.5,0.45,0.833,0.85,1c0.367,0.167,0.767,0.133,1.2-0.1c0.4-0.233,0.684-0.617,0.85-1.15c0.2-0.533,0.233-1.05,0.1-1.55
						c-0.167-0.5-0.45-0.833-0.85-1c-0.4-0.167-0.8-0.133-1.2,0.1C67.55-85.567,67.25-85.183,67.05-84.65z"/>
					<path style="fill-rule:evenodd;clip-rule:evenodd;fill:#766935;" d="M70.2-83.65c-0.133,0.333-0.15,0.65-0.05,0.95
						c0.1,0.333,0.283,0.567,0.55,0.7c0.233,0.133,0.483,0.117,0.75-0.05c0.267-0.167,0.466-0.434,0.6-0.8
						c0.133-0.333,0.15-0.667,0.05-1c-0.1-0.333-0.283-0.55-0.55-0.65c-0.233-0.133-0.5-0.117-0.8,0.05
						C70.483-84.25,70.3-83.983,70.2-83.65z"/>
				</g>
				<g>
					<path style="fill-rule:evenodd;clip-rule:evenodd;fill:#766935;" d="M86.6-61.05l2,0.15c1.733-0.033,3.65-0.333,5.75-0.9
						c1.566-0.434,2.45-0.767,2.65-1l3.5,1.3L99-63.75l2-0.5c-1.4-0.633-2.467-1.183-3.2-1.65l0.5-2.35l-2,2.95
						c-0.333,0.333-0.85,0.733-1.55,1.2c-1.233,0.8-2.983,1.2-5.25,1.2l-3.05-0.3L86.6-61.05z"/>
					<path style="fill-rule:evenodd;clip-rule:evenodd;fill:#766935;" d="M89.9-48.75l-2.3-0.6l-0.15,1.7l1.5,0.35
						c1.367,0.233,2.9,0.25,4.6,0.05c1.267-0.167,1.983-0.317,2.15-0.45l2.55,1.45L97.4-48.2l1.95-1.25
						c-1.233,0.067-2.117-0.117-2.65-0.55l0.6-1.6l-1.8,1.85c-0.4,0.267-0.85,0.517-1.35,0.75
						C93.083-48.533,91.667-48.45,89.9-48.75z"/>
					<path style="fill-rule:evenodd;clip-rule:evenodd;fill:#766935;" d="M71.15-59.45l-1.9-0.5L67-61.45l0.65,1.55l-2.3,2.75
						l2.05-0.3l-0.5,2.65l2.7-2.55l0.55,0.05c0.533,0,1.3-0.067,2.3-0.2c1.633-0.233,3.3-0.717,5-1.45l1.7-2.95
						c-0.767,0.5-1.667,0.983-2.7,1.45C74.35-59.55,72.583-59.217,71.15-59.45z"/>
					<path style="fill-rule:evenodd;clip-rule:evenodd;fill:#766935;" d="M81.95-48.55c-0.233,0.667-0.583,1.383-1.05,2.15
						c-0.9,1.566-1.867,2.6-2.9,3.1c-0.433,0.2-0.917,0.383-1.45,0.55l-1.7-1.35L75.6-42c0,0.4-0.233,0.867-0.7,1.4l-0.75,0.65
						l2.4-0.35l0.9,1.9L78-41.3l0.35-0.2c0.367-0.233,0.833-0.633,1.4-1.2c0.933-0.867,1.767-1.933,2.5-3.2L81.95-48.55z"/>
					<path style="fill-rule:evenodd;clip-rule:evenodd;fill:#8C7C3F;" d="M90.5-36.9c-0.3,0.8-0.567,1.7-0.8,2.7
						c-0.467,2-0.517,3.483-0.15,4.45c0.8,2.167,2.233,4.05,4.3,5.65c1,0.833,1.933,1.434,2.8,1.8l-0.4-2.25
						c-0.3-1.833-0.45-3.6-0.45-5.3c-0.033-1.667-0.917-3.35-2.65-5.05L90.5-36.9z"/>
					<path style="fill-rule:evenodd;clip-rule:evenodd;fill:#D0B85E;" d="M91.55-34.2c-0.2,0.5-0.367,1.067-0.5,1.7
						c-0.3,1.267-0.333,2.2-0.1,2.8c0.5,1.367,1.4,2.55,2.7,3.55c0.633,0.5,1.217,0.867,1.75,1.1l-0.25-1.4
						c-0.2-1.167-0.3-2.267-0.3-3.3c0-1.067-0.55-2.133-1.65-3.2L91.55-34.2z"/>
					<path style="fill-rule:evenodd;clip-rule:evenodd;fill:#766935;" d="M94.35-29.9c-1.033-2.267-2-5.25-2.9-8.95
						c-1.8-7.367-2.35-14.633-1.65-21.8c0.1-0.867,0.567-4.8,1.4-11.8c0.5-4.367,0.75-7.667,0.75-9.9c-1.133,0.1-2.4,0.467-3.8,1.1
						c-1.533,0.667-2.5,1.033-2.9,1.1c-2,0.4-4.2-1.35-6.6-5.25c-1.733,0.733-2.95,2.267-3.65,4.6
						c-0.833,2.733-0.883,6.466-0.15,11.2c2.2,14.2,6.1,25.067,11.7,32.6C89.383-33.2,91.983-30.833,94.35-29.9z"/>
					<g>
						<path style="fill-rule:evenodd;clip-rule:evenodd;fill:#60552C;" d="M90.3-65.25c-2.1,1.2-4.316,2.017-6.65,2.45
							c-2.167,0.4-4.733,0.2-7.7-0.6l0.9,3.75c2.267,0.4,4.783,0.316,7.55-0.25c2.2-0.4,4.017-0.917,5.45-1.55L90.3-65.25z"/>
						<path style="fill-rule:evenodd;clip-rule:evenodd;fill:#60552C;" d="M85.25-53.15c1.567-0.4,2.983-0.867,4.25-1.4
							c0-1.333,0.05-2.7,0.15-4.1c-1.733,1.167-3.667,2.017-5.8,2.55c-1.6,0.4-3.617,0.45-6.05,0.15l1.1,3.6
							C80.9-52.283,83.017-52.55,85.25-53.15z"/>
						<path style="fill-rule:evenodd;clip-rule:evenodd;fill:#60552C;" d="M85.55-47.5c1.767-0.3,3.184-0.717,4.25-1.25l-0.1-1.5
							v-0.1l-0.1-1.5c-1.467,1.067-3.117,1.733-4.95,2c-1.5,0.167-3.217-0.117-5.15-0.85l1.2,3.05
							C82.267-47.35,83.883-47.3,85.55-47.5z"/>
						<path style="fill-rule:evenodd;clip-rule:evenodd;fill:#60552C;" d="M81.7-45.35l1.05,2.15c1.5,0.3,3.1,0.167,4.8-0.4
							c1.1-0.333,2.017-0.75,2.75-1.25l-0.35-2.45c-0.867,0.933-1.983,1.633-3.35,2.1C85.4-44.833,83.767-44.883,81.7-45.35z"/>
						<path style="fill-rule:evenodd;clip-rule:evenodd;fill:#60552C;" d="M84.2-40.6l1.2,1.95l0.2,0.25
							c1.3,0.133,2.667-0.033,4.1-0.5c0.3-0.1,0.833-0.317,1.6-0.65l-0.45-2.05c-0.633,0.467-1.35,0.817-2.15,1.05
							C87.567-40.15,86.067-40.167,84.2-40.6z"/>
						<path style="fill-rule:evenodd;clip-rule:evenodd;fill:#60552C;" d="M87.2-36.2l1.7,2c0.833-0.066,1.717-0.233,2.65-0.5
							l0.95-0.35l-0.55-1.85c-0.467,0.233-0.917,0.417-1.35,0.55C89.7-36.05,88.567-36,87.2-36.2z"/>
					</g>
					
						<use xlink:href="#FlashAICB_Assets_x2F_decor_x5F_plants_3_x2F__x3C_Path_x3E__x5F_7_x5F_3"  width="19.75" height="42.3" y="-42.3" transform="matrix(1 0 0 1 74.5 -29.9502)" style="overflow:visible;opacity:0.1992;enable-background:new    ;"/>
					
						<use xlink:href="#FlashAICB_Assets_x2F_decor_x5F_plants_3_x2F__x3C_Path_x3E__x5F_6_x5F_6"  width="-32766" height="-32766" x="16383" y="16383" transform="matrix(1 0 0 1 70.1499 -62.2998)" style="overflow:visible;enable-background:new    ;"/>
					<path style="fill-rule:evenodd;clip-rule:evenodd;fill:#3E2C2E;" d="M82.55-81.7l-1.45-3.6c-1-2.6-1.633-4.35-1.9-5.25
						L77.65-96c-0.2,0.367-0.35,0.933-0.45,1.7c-0.2,1.566-0.034,3.383,0.5,5.45l1.95,7.8L82.55-81.7z"/>
					<path style="fill-rule:evenodd;clip-rule:evenodd;fill:#8C7C3F;" d="M96.65-79.75c-1.6-5.967-7.517-9.35-17.75-10.15
						c-5.033,2.733-8.517,5.717-10.45,8.95c-1.767,2.9-2.233,5.95-1.4,9.15c0.8,3.066,2.867,5.267,6.2,6.6
						c3.4,1.367,7.217,1.5,11.45,0.4c4.2-1.1,7.45-3.117,9.75-6.05C96.717-73.717,97.45-76.683,96.65-79.75z"/>
					
						<use xlink:href="#FlashAICB_Assets_x2F_decor_x5F_plants_3_x2F__x3C_Path_x3E__x5F_3_x5F_4"  width="29.886" height="17.136" x="0.014" y="-17.1" transform="matrix(1 0 0 1 66.6499 -64.1001)" style="overflow:visible;opacity:0.1992;enable-background:new    ;"/>
					<g>
						<g>
							<path style="fill-rule:evenodd;clip-rule:evenodd;fill:#3E2C2E;" d="M71.75-80.15c0.8-1.633,0.95-2.533,0.45-2.7
								c-0.333-0.1-0.65,0.05-0.95,0.45c-0.233,0.3-0.55,0.85-0.95,1.65c-0.8,1.6-0.933,2.5-0.4,2.7c0.333,0.1,0.65-0.05,0.95-0.45
								C71.05-78.767,71.35-79.317,71.75-80.15z"/>
						</g>
					</g>
					<g>
						<g>
							<path style="fill-rule:evenodd;clip-rule:evenodd;fill:#3E2C2E;" d="M71.35-79.75c0.867-0.4,1.433-0.683,1.7-0.85
								c0.467-0.3,0.617-0.6,0.45-0.9c-0.3-0.467-1.233-0.367-2.8,0.3c-1.633,0.733-2.333,1.333-2.1,1.8
								C68.867-78.933,69.783-79.05,71.35-79.75z"/>
						</g>
					</g>
					<g>
						<g>
							<path style="fill-rule:evenodd;clip-rule:evenodd;fill:#3E2C2E;" d="M88.75-85c0.8,0.467,1.35,0.767,1.65,0.9
								c0.467,0.167,0.8,0.117,1-0.15c0.367-0.433-0.217-1.117-1.75-2.05c-1.5-0.967-2.417-1.233-2.75-0.8
								c-0.2,0.267-0.1,0.583,0.3,0.95C87.433-85.883,87.95-85.5,88.75-85z"/>
						</g>
					</g>
					<g>
						<g>
							<path style="fill-rule:evenodd;clip-rule:evenodd;fill:#3E2C2E;" d="M89.25-84.9c1.733-0.233,2.583-0.617,2.55-1.15
								c0-0.567-0.9-0.7-2.7-0.4c-1.733,0.233-2.583,0.633-2.55,1.2c0,0.333,0.267,0.517,0.8,0.55
								C87.65-84.7,88.283-84.767,89.25-84.9z"/>
						</g>
					</g>
					<path style="fill-rule:evenodd;clip-rule:evenodd;fill:#766935;" d="M91.15-76.4c-0.267,0.8-0.3,1.583-0.1,2.35
						c0.233,0.767,0.65,1.283,1.25,1.55c0.6,0.267,1.217,0.2,1.85-0.2c0.633-0.4,1.083-1,1.35-1.8s0.283-1.583,0.05-2.35
						c-0.233-0.767-0.65-1.283-1.25-1.55c-0.6-0.267-1.2-0.2-1.8,0.2C91.867-77.833,91.417-77.233,91.15-76.4z"/>
					<path style="fill-rule:evenodd;clip-rule:evenodd;fill:#766935;" d="M86.05-74.65c-0.167,0.533-0.183,1.05-0.05,1.55
						c0.167,0.5,0.45,0.833,0.85,1c0.367,0.167,0.767,0.133,1.2-0.1c0.4-0.233,0.684-0.617,0.85-1.15c0.2-0.533,0.233-1.05,0.1-1.55
						c-0.167-0.5-0.45-0.833-0.85-1c-0.4-0.167-0.8-0.133-1.2,0.1C86.55-75.567,86.25-75.183,86.05-74.65z"/>
					<path style="fill-rule:evenodd;clip-rule:evenodd;fill:#766935;" d="M89.2-73.65c-0.133,0.333-0.15,0.65-0.05,0.95
						c0.1,0.333,0.283,0.567,0.55,0.7c0.233,0.133,0.483,0.117,0.75-0.05c0.267-0.167,0.466-0.434,0.6-0.8
						c0.133-0.333,0.15-0.667,0.05-1c-0.1-0.333-0.283-0.55-0.55-0.65c-0.233-0.133-0.5-0.117-0.8,0.05
						C89.483-74.25,89.3-73.983,89.2-73.65z"/>
				</g>
			</g>
		</g>
	</g>
	<g id="Layer_4_2_">
	</g>
</symbol>
<symbol  id="FlashAICB_Assets_x2F_decor_x5F_plants_3_x2F__x3C_Group_x3E_" viewBox="-0.025 -7.709 6.05 7.718">
	<g id="Layer_1_44_">
		<g>
			
				<linearGradient id="SVGID_5_" gradientUnits="userSpaceOnUse" x1="16988.2168" y1="-872.1909" x2="16995.9316" y2="-872.1909" gradientTransform="matrix(-0.1005 0.9949 -0.9949 -0.1005 842.3525 -16997.5781)">
				<stop  offset="0.1333" style="stop-color:#6A400B;stop-opacity:0"/>
				<stop  offset="0.2353" style="stop-color:#6F491B;stop-opacity:0.2353"/>
				<stop  offset="0.4118" style="stop-color:#765832;stop-opacity:0.5647"/>
				<stop  offset="0.5922" style="stop-color:#7B6244;stop-opacity:0.8078"/>
				<stop  offset="0.7843" style="stop-color:#7F684F;stop-opacity:0.949"/>
				<stop  offset="1" style="stop-color:#806A52"/>
			</linearGradient>
			<path style="fill-rule:evenodd;clip-rule:evenodd;fill:url(#SVGID_5_);" d="M6-3.55C6.1-4.617,5.9-5.567,5.4-6.4
				c-0.5-0.8-1.167-1.233-2-1.3C2.567-7.767,1.833-7.467,1.2-6.8C0.533-6.1,0.133-5.217,0-4.15c-0.1,1.066,0.1,2,0.6,2.8
				C1.1-0.517,1.767-0.067,2.6,0c0.833,0.067,1.583-0.25,2.25-0.95C5.483-1.617,5.867-2.483,6-3.55z"/>
			
				<linearGradient id="SVGID_6_" gradientUnits="userSpaceOnUse" x1="-817.1084" y1="-15323.7227" x2="-812.1058" y2="-15323.7227" gradientTransform="matrix(0.1049 -0.9945 0.9945 0.1049 15327.5947 794.1875)">
				<stop  offset="0.1333" style="stop-color:#6A400B;stop-opacity:0"/>
				<stop  offset="0.2353" style="stop-color:#6F491B;stop-opacity:0.2353"/>
				<stop  offset="0.4118" style="stop-color:#765832;stop-opacity:0.5647"/>
				<stop  offset="0.5922" style="stop-color:#7B6244;stop-opacity:0.8078"/>
				<stop  offset="0.7843" style="stop-color:#7F684F;stop-opacity:0.949"/>
				<stop  offset="1" style="stop-color:#806A52"/>
			</linearGradient>
			<path style="fill-rule:evenodd;clip-rule:evenodd;fill:url(#SVGID_6_);" d="M1.05-4.05c-0.066,0.7,0.067,1.316,0.4,1.85
				c0.333,0.5,0.767,0.784,1.3,0.85c0.533,0.033,1.017-0.167,1.45-0.6c0.433-0.466,0.683-1.033,0.75-1.7
				c0.066-0.7-0.067-1.317-0.4-1.85c-0.3-0.533-0.733-0.817-1.3-0.85C2.717-6.417,2.233-6.217,1.8-5.75
				C1.367-5.283,1.117-4.717,1.05-4.05z"/>
		</g>
	</g>
</symbol>
<symbol  id="FlashAICB_Assets_x2F_decor_x5F_plants_3_x2F__x3C_Path_x3E_" viewBox="0 -4.003 38 4.003">
	<g id="Layer_1_41_">
		<path style="fill-rule:evenodd;clip-rule:evenodd;fill:#7C5119;" d="M38,0c-0.233-0.233-0.7-0.483-1.4-0.75
			c-1.4-0.533-3.3-0.917-5.7-1.15c-8.533-0.934-12.816-1.4-12.85-1.4c-0.6-0.034-1.816-0.15-3.65-0.35
			c-1.667-0.2-3.066-0.317-4.2-0.35C8.133-4.033,4.733-3.817,0-3.35C6.133-3.65,9.583-3.5,10.35-2.9
			c0.433,0.333,1.783,0.533,4.05,0.6c4.067,0.133,6.667,0.25,7.8,0.35C26.3-1.65,31.567-1,38,0z"/>
	</g>
</symbol>
<symbol  id="FlashAICB_Assets_x2F_decor_x5F_plants_3_x2F__x3C_Path_x3E__x5F_0" viewBox="0.16 -99.85 33.39 99.85">
	<g id="Layer_1_43_">
		<path style="fill-rule:evenodd;clip-rule:evenodd;fill:#9F8667;" d="M12.35-13.7C16.95-6.3,24.017-1.733,33.55,0
			c-3.667-3.667-6.633-9.7-8.9-18.1c-2.3-8.533-4.217-20.75-5.75-36.65c-1.167-12.4-1.333-21.55-0.5-27.45
			c1.133-8.066,4.3-13.95,9.5-17.65c-13.367,2.533-21.833,7.867-25.4,16c-2.6,5.867-3.033,15.6-1.3,29.2
			C3.633-35.35,7.35-21.7,12.35-13.7z"/>
	</g>
</symbol>
<symbol  id="FlashAICB_Assets_x2F_decor_x5F_plants_3_x2F__x3C_Path_x3E__x5F_1" viewBox="0 -4.103 38.5 4.103">
	<g id="Layer_1_40_">
		<path style="fill-rule:evenodd;clip-rule:evenodd;fill:#7C5119;" d="M38.5,0c-0.233-0.233-0.717-0.483-1.45-0.75
			c-1.433-0.567-3.367-0.967-5.8-1.2c-2.7-0.333-4.917-0.6-6.65-0.8c-3.267-0.367-5.383-0.567-6.35-0.6
			c-0.5-0.033-1.733-0.167-3.7-0.4c-1.667-0.2-3.083-0.317-4.25-0.35C8.233-4.133,4.8-3.9,0-3.4c6.2-0.3,9.683-0.15,10.45,0.45
			c0.433,0.333,1.816,0.534,4.15,0.6C18.7-2.217,21.333-2.1,22.5-2C26.667-1.667,32-1,38.5,0z"/>
	</g>
</symbol>
<symbol  id="FlashAICB_Assets_x2F_decor_x5F_plants_3_x2F__x3C_Path_x3E__x5F_10" viewBox="0 -2.29 73.3 2.29">
	<g id="Layer_1_31_">
		<path style="fill-rule:evenodd;clip-rule:evenodd;fill:#7C5119;" d="M73.3-0.15c-0.466-0.267-1.4-0.533-2.8-0.8
			c-2.767-0.566-6.467-0.867-11.1-0.9C45.8-2.15,37.533-2.267,34.6-2.2c-1.2,0.034-3.55,0.017-7.05-0.05
			c-3.233-0.067-5.933-0.05-8.1,0.05C15.517-1.967,9.033-1.233,0,0c11.733-1.167,18.367-1.4,19.9-0.7c0.9,0.434,3.533,0.55,7.9,0.35
			c7.9-0.333,12.9-0.517,15-0.55C50.7-0.967,60.867-0.717,73.3-0.15z"/>
	</g>
</symbol>
<symbol  id="FlashAICB_Assets_x2F_decor_x5F_plants_3_x2F__x3C_Path_x3E__x5F_11" viewBox="0 -5.703 73.45 5.703">
	<g id="Layer_1_30_">
		<path style="fill-rule:evenodd;clip-rule:evenodd;fill:#7C5119;" d="M73.45,0c-0.434-0.3-1.333-0.633-2.7-1
			c-2.767-0.733-6.483-1.283-11.15-1.65c-15.133-1.3-23.417-1.967-24.85-2c-1-0.033-3.35-0.233-7.05-0.6
			c-3.167-0.267-5.867-0.417-8.1-0.45C15.667-5.733,9.133-5.45,0-4.85C11.833-5.217,18.467-5,19.9-4.2
			c0.867,0.467,3.483,0.75,7.85,0.85c7.967,0.2,13.017,0.367,15.15,0.5C50.833-2.383,61.017-1.433,73.45,0z"/>
	</g>
</symbol>
<symbol  id="FlashAICB_Assets_x2F_decor_x5F_plants_3_x2F__x3C_Path_x3E__x5F_12" viewBox="0 -5.117 39.15 5.117">
	<g id="Layer_1_29_">
		<path style="fill-rule:evenodd;clip-rule:evenodd;fill:#7C5119;" d="M39.15,0c-0.2-0.233-0.667-0.5-1.4-0.8
			c-1.433-0.6-3.383-1.067-5.85-1.4c-7.233-1.133-11.65-1.767-13.25-1.9c-0.566-0.066-1.8-0.233-3.7-0.5
			c-1.7-0.267-3.15-0.433-4.35-0.5C8.467-5.167,4.933-5.033,0-4.7c6.4-0.1,9.967,0.167,10.7,0.8c0.433,0.367,1.816,0.617,4.15,0.75
			c4.267,0.267,6.967,0.467,8.1,0.6C27.183-2.083,32.583-1.233,39.15,0z"/>
	</g>
</symbol>
<symbol  id="FlashAICB_Assets_x2F_decor_x5F_plants_3_x2F__x3C_Path_x3E__x5F_13" viewBox="0 -5.232 39.4 5.232">
	<g id="Layer_1_28_">
		<path style="fill-rule:evenodd;clip-rule:evenodd;fill:#7C5119;" d="M39.4,0c-0.233-0.267-0.7-0.55-1.4-0.85
			c-1.467-0.633-3.433-1.117-5.9-1.45c-7.3-1.133-11.733-1.767-13.3-1.9c-0.533-0.033-1.783-0.216-3.75-0.55
			c-1.733-0.267-3.2-0.417-4.4-0.45C8.517-5.3,4.967-5.167,0-4.8C6.433-4.933,10.017-4.667,10.75-4
			c0.433,0.367,1.833,0.617,4.2,0.75c4.267,0.267,6.966,0.467,8.1,0.6C27.317-2.183,32.767-1.3,39.4,0z"/>
	</g>
</symbol>
<symbol  id="FlashAICB_Assets_x2F_decor_x5F_plants_3_x2F__x3C_Path_x3E__x5F_14" viewBox="0 -2.34 74.35 2.34">
	<g id="Layer_1_27_">
		<path style="fill-rule:evenodd;clip-rule:evenodd;fill:#7C5119;" d="M74.35-0.1c-0.467-0.267-1.417-0.55-2.85-0.85
			c-2.833-0.566-6.6-0.883-11.3-0.95C46.4-2.2,38.017-2.317,35.05-2.25c-1.233,0.033-3.617,0.017-7.15-0.05
			c-3.3-0.067-6.05-0.05-8.25,0.05C15.683-2.017,9.133-1.267,0,0c11.9-1.2,18.617-1.433,20.15-0.7c0.9,0.434,3.567,0.55,8,0.35
			c8-0.333,13.083-0.517,15.25-0.55C51.433-0.967,61.75-0.7,74.35-0.1z"/>
	</g>
</symbol>
<symbol  id="FlashAICB_Assets_x2F_decor_x5F_plants_3_x2F__x3C_Path_x3E__x5F_15" viewBox="0 -2.29 74 2.29">
	<g id="Layer_1_26_">
		<path style="fill-rule:evenodd;clip-rule:evenodd;fill:#7C5119;" d="M74-0.05c-0.467-0.3-1.4-0.583-2.8-0.85
			c-2.833-0.6-6.583-0.917-11.25-0.95C46.217-2.15,37.867-2.267,34.9-2.2c-1.2,0.034-3.566,0.017-7.1-0.05
			c-3.267-0.067-6-0.05-8.2,0.05C15.667-1.967,9.133-1.233,0,0c11.867-1.167,18.567-1.383,20.1-0.65c0.9,0.4,3.55,0.517,7.95,0.35
			c7.934-0.333,12.983-0.517,15.15-0.55C51.167-0.917,61.433-0.65,74-0.05z"/>
	</g>
</symbol>
<symbol  id="FlashAICB_Assets_x2F_decor_x5F_plants_3_x2F__x3C_Path_x3E__x5F_16" viewBox="0 -5.853 74.45 5.853">
	<g id="Layer_1_25_">
		<path style="fill-rule:evenodd;clip-rule:evenodd;fill:#7C5119;" d="M74.45,0c-0.434-0.3-1.35-0.65-2.75-1.05
			c-2.8-0.733-6.567-1.284-11.3-1.65c-5.233-0.466-9.55-0.85-12.95-1.15C41.117-4.417,37.033-4.733,35.2-4.8
			c-1.067-0.034-3.434-0.217-7.1-0.55c-3.233-0.3-5.983-0.467-8.25-0.5C15.85-5.883,9.233-5.6,0-5c11.967-0.367,18.7-0.133,20.2,0.7
			c0.867,0.5,3.517,0.8,7.95,0.9c8.3,0.233,13.4,0.4,15.3,0.5C51.483-2.4,61.817-1.433,74.45,0z"/>
	</g>
</symbol>
<symbol  id="FlashAICB_Assets_x2F_decor_x5F_plants_3_x2F__x3C_Path_x3E__x5F_17" viewBox="0 -3.607 39.15 3.607">
	<g id="Layer_1_24_">
		<path style="fill-rule:evenodd;clip-rule:evenodd;fill:#7C5119;" d="M28.45-2.4c0.733-0.633,4.3-0.7,10.7-0.2
			c-4.967-0.633-8.517-0.967-10.65-1c-1.167-0.033-2.6,0.05-4.3,0.25c-1.9,0.2-3.15,0.3-3.75,0.3
			c-6.934,0.633-11.333,1.033-13.2,1.2c-2.467,0.2-4.417,0.567-5.85,1.1C0.7-0.483,0.233-0.233,0,0c6.567-0.9,11.967-1.467,16.2-1.7
			c1.033-0.066,3.733-0.117,8.1-0.15C26.633-1.883,28.017-2.067,28.45-2.4z"/>
	</g>
</symbol>
<symbol  id="FlashAICB_Assets_x2F_decor_x5F_plants_3_x2F__x3C_Path_x3E__x5F_18" viewBox="0 -3.7 39.4 3.7">
	<g id="Layer_1_23_">
		<path style="fill-rule:evenodd;clip-rule:evenodd;fill:#7C5119;" d="M28.6-2.45c0.767-0.633,4.367-0.7,10.8-0.2
			c-5-0.667-8.566-1.017-10.7-1.05c-1.2,0-2.65,0.083-4.35,0.25c-1.967,0.2-3.233,0.317-3.8,0.35c-0.966,0.033-3.133,0.2-6.5,0.5
			C10.483-2.233,8.217-2,7.25-1.9C4.783-1.7,2.833-1.317,1.4-0.75C0.7-0.483,0.233-0.233,0,0c6.6-0.933,12.017-1.517,16.25-1.75
			c1.067-0.067,3.783-0.117,8.15-0.15C26.767-1.9,28.167-2.083,28.6-2.45z"/>
	</g>
</symbol>
<symbol  id="FlashAICB_Assets_x2F_decor_x5F_plants_3_x2F__x3C_Path_x3E__x5F_19" viewBox="0 -5.495 75.75 5.495">
	<g id="Layer_1_22_">
		<path style="fill-rule:evenodd;clip-rule:evenodd;fill:#7C5119;" d="M47.1-4c-3.9-0.133-6.333-0.233-7.3-0.3
			c-1.833-0.167-5.983-0.367-12.45-0.6c-6.9-0.267-11.267-0.434-13.1-0.5C9.517-5.6,5.717-5.483,2.85-5.05
			C1.417-4.85,0.467-4.617,0-4.35c12.733,0.1,23.167,0.417,31.3,0.95c1.867,0.133,7.05,0.6,15.55,1.4C51.383-1.533,54.1-1.5,55-1.9
			c1-0.434,4.767-0.25,11.3,0.55c3.233,0.4,6.383,0.85,9.45,1.35C66.317-1.833,59.567-2.983,55.5-3.45
			C53.167-3.717,50.367-3.9,47.1-4z"/>
	</g>
</symbol>
<symbol  id="FlashAICB_Assets_x2F_decor_x5F_plants_3_x2F__x3C_Path_x3E__x5F_1_x5F_0" viewBox="0 -100.7 35.915 100.7">
	<g id="Layer_1_42_">
		<path style="fill-rule:evenodd;clip-rule:evenodd;fill:#9F8667;" d="M7.45-17.85C5.317-9.417,2.833-3.467,0,0
			c7.933-1.367,14.15-5.683,18.65-12.95c4.567-7.333,9.55-21.133,14.95-41.4c3.333-12.533,3.066-22.3-0.8-29.3
			C28-92.383,17.283-98.067,0.65-100.7c6.967,4.034,11.434,10.3,13.4,18.8c1.6,7,1.583,16.133-0.05,27.4
			C11.667-38.1,9.483-25.883,7.45-17.85z"/>
	</g>
</symbol>
<symbol  id="FlashAICB_Assets_x2F_decor_x5F_plants_3_x2F__x3C_Path_x3E__x5F_1_x5F_1" viewBox="0 -24.679 78.4 24.67">
	<g id="Layer_1_45_">
		
			<linearGradient id="SVGID_7_" gradientUnits="userSpaceOnUse" x1="16037.7412" y1="-16315.9805" x2="16116.1504" y2="-16315.9805" gradientTransform="matrix(-0.9999 -0.0115 0.0115 -0.9999 16302.9229 -16142.1504)">
			<stop  offset="0" style="stop-color:#79602E"/>
			<stop  offset="1" style="stop-color:#FFFFFF"/>
		</linearGradient>
		<path style="fill-rule:evenodd;clip-rule:evenodd;fill:url(#SVGID_7_);" d="M66.9-21.3c-6.867-2.034-16.133-3.15-27.8-3.35
			c-11.6-0.2-20.817,0.617-27.65,2.45C3.85-20.167,0.033-17.067,0-12.9c-0.033,4.633,2.283,7.816,6.95,9.55
			c5.267,1.934,15.583,3.033,30.95,3.3c15.733,0.233,26.5-0.534,32.3-2.3c5.4-1.633,8.133-4.717,8.2-9.25
			C78.433-15.8,74.6-19.033,66.9-21.3z"/>
	</g>
</symbol>
<symbol  id="FlashAICB_Assets_x2F_decor_x5F_plants_3_x2F__x3C_Path_x3E__x5F_2" viewBox="0.028 -103.359 118.744 103.315">
	<g id="Layer_1_4_">
		
			<linearGradient id="SVGID_8_" gradientUnits="userSpaceOnUse" x1="16127.6895" y1="-72.3218" x2="16231" y2="-72.3218" gradientTransform="matrix(9.673519e-006 1 -1 -0.001 -13.0786 -16231.1182)">
			<stop  offset="0" style="stop-color:#806A52"/>
			<stop  offset="0.0118" style="stop-color:#85715A"/>
			<stop  offset="0.102" style="stop-color:#B0A394"/>
			<stop  offset="0.1843" style="stop-color:#D2CBC2"/>
			<stop  offset="0.2588" style="stop-color:#EBE7E3"/>
			<stop  offset="0.3216" style="stop-color:#FAF9F8"/>
			<stop  offset="0.3608" style="stop-color:#FFFFFF"/>
			<stop  offset="0.4941" style="stop-color:#E6E1D8"/>
			<stop  offset="0.7882" style="stop-color:#A79776"/>
			<stop  offset="1" style="stop-color:#79602E"/>
		</linearGradient>
		<path style="fill-rule:evenodd;clip-rule:evenodd;fill:url(#SVGID_8_);" d="M105.8-21.9c3.167-7.3,6.733-18.4,10.7-33.3
			c4.233-15.8,2.55-27.4-5.05-34.8c-9.767-9.5-30.1-13.933-61-13.3c-23.6,0.466-38.684,4.966-45.25,13.5
			c-2.9,3.767-4.583,8.667-5.05,14.7c-0.333,4.533,0.017,10.883,1.05,19.05c1.733,13.667,4,24.333,6.8,32
			c2.733,7.5,6.35,13.033,10.85,16.6c4,3.233,9.4,5.35,16.2,6.35c4.467,0.667,12.1,1.017,22.9,1.05c12,0.033,19.333-0.083,22-0.35
			c6.233-0.6,11.167-2.35,14.8-5.25C98.817-8.817,102.5-14.233,105.8-21.9z"/>
	</g>
</symbol>
<symbol  id="FlashAICB_Assets_x2F_decor_x5F_plants_3_x2F__x3C_Path_x3E__x5F_20" viewBox="0 -3.05 77.55 3.05">
	<g id="Layer_1_21_">
		<path style="fill-rule:evenodd;clip-rule:evenodd;fill:#7C5119;" d="M40.65-2.95c-1.9-0.066-6.15-0.1-12.75-0.1
			c-7.066,0.066-11.533,0.1-13.4,0.1C9.633-2.983,5.75-2.7,2.85-2.1C1.417-1.833,0.467-1.55,0-1.25
			C13.033-1.683,23.717-1.8,32.05-1.6C34.117-1.567,39.433-1.3,48-0.8c4.633,0.267,7.4,0.183,8.3-0.25
			C57.867-1.817,64.95-1.467,77.55,0C67.817-1.5,60.867-2.4,56.7-2.7c-2.367-0.167-5.233-0.233-8.6-0.2
			C44.267-2.9,41.783-2.917,40.65-2.95z"/>
	</g>
</symbol>
<symbol  id="FlashAICB_Assets_x2F_decor_x5F_plants_3_x2F__x3C_Path_x3E__x5F_21" viewBox="0 -6.893 77.65 6.893">
	<g id="Layer_1_20_">
		<path style="fill-rule:evenodd;clip-rule:evenodd;fill:#7C5119;" d="M40.8-5.1c-1.867-0.2-6.117-0.483-12.75-0.85
			c-7.066-0.4-11.533-0.65-13.4-0.75C9.783-7,5.883-6.95,2.95-6.55C1.483-6.35,0.5-6.117,0-5.85c13.067,0.333,23.767,0.833,32.1,1.5
			c2,0.167,7.3,0.75,15.9,1.75c4.633,0.567,7.433,0.65,8.4,0.25C58.033-3.017,65.117-2.233,77.65,0
			C67.983-2.067,61.067-3.383,56.9-3.95c-2.367-0.3-5.25-0.533-8.65-0.7C44.35-4.85,41.867-5,40.8-5.1z"/>
	</g>
</symbol>
<symbol  id="FlashAICB_Assets_x2F_decor_x5F_plants_3_x2F__x3C_Path_x3E__x5F_22" viewBox="0 -5.373 75.35 5.373">
	<g id="Layer_1_19_">
		<path style="fill-rule:evenodd;clip-rule:evenodd;fill:#7C5119;" d="M46.85-3.9c-3.867-0.133-6.283-0.233-7.25-0.3
			c-1.8-0.133-5.934-0.316-12.4-0.55c-8.1-0.3-12.45-0.467-13.05-0.5C9.417-5.483,5.633-5.383,2.8-4.95C1.4-4.75,0.467-4.517,0-4.25
			c12.667,0.1,23.05,0.417,31.15,0.95c2.1,0.133,7.267,0.6,15.5,1.4c4.5,0.433,7.2,0.45,8.1,0.05c0.967-0.4,4.7-0.217,11.2,0.55
			c3.233,0.4,6.367,0.833,9.4,1.3C65.983-1.8,59.267-2.917,55.2-3.35C52.9-3.617,50.117-3.8,46.85-3.9z"/>
	</g>
</symbol>
<symbol  id="FlashAICB_Assets_x2F_decor_x5F_plants_3_x2F__x3C_Path_x3E__x5F_23" viewBox="0 -3.014 75 3.014">
	<g id="Layer_1_18_">
		<path style="fill-rule:evenodd;clip-rule:evenodd;fill:#7C5119;" d="M46.45-2.9c-3.7,0.133-6.1,0.2-7.2,0.2
			c-1.867-0.033-5.983,0.05-12.35,0.25C20.067-2.217,15.75-2.067,13.95-2c-4.7,0.1-8.434,0.467-11.2,1.1C1.35-0.6,0.433-0.3,0,0
			c12.6-0.767,22.933-1.183,31-1.25c2.133,0,7.283,0.117,15.45,0.35c4.466,0.133,7.133-0.017,8-0.45
			c0.933-0.467,4.633-0.55,11.1-0.25c3.267,0.167,6.417,0.383,9.45,0.65c-9.433-1.133-16.183-1.8-20.25-2
			C52.45-3.05,49.683-3.033,46.45-2.9z"/>
	</g>
</symbol>
<symbol  id="FlashAICB_Assets_x2F_decor_x5F_plants_3_x2F__x3C_Path_x3E__x5F_24" viewBox="0 -3.95 60.25 3.95">
	<g id="Layer_1_17_">
		<path style="fill-rule:evenodd;clip-rule:evenodd;fill:#7C5119;" d="M60.25-2.65c-18.833-0.867-29.333-1.3-31.5-1.3
			c-1.2,0-2.65,0.1-4.35,0.3c-1.967,0.2-3.233,0.316-3.8,0.35c-0.934,0.033-3.1,0.233-6.5,0.6C10-2.267,7.717-2.033,7.25-2
			C4.75-1.767,2.8-1.367,1.4-0.8C0.667-0.5,0.2-0.233,0,0c6.6-1,12.033-1.633,16.3-1.9c1.867-0.133,7.65-0.033,17.35,0.3
			C42.15-1.333,46.6-1.367,47-1.7C47.733-2.333,52.15-2.65,60.25-2.65z"/>
	</g>
</symbol>
<symbol  id="FlashAICB_Assets_x2F_decor_x5F_plants_3_x2F__x3C_Path_x3E__x5F_25" viewBox="0 -2.75 52.1 2.75">
	<g id="Layer_1_16_">
		<path style="fill-rule:evenodd;clip-rule:evenodd;fill:#7C5119;" d="M52.1,0C45.633-1.367,41-2.183,38.2-2.45
			c-1.6-0.167-3.534-0.233-5.8-0.2c-2.667,0.033-4.333,0.033-5,0c-1.267-0.067-4.117-0.1-8.55-0.1c-4.767,0.067-7.783,0.1-9.05,0.1
			C6.5-2.683,3.883-2.433,1.95-1.9C0.983-1.633,0.333-1.367,0-1.1c8.767-0.433,15.95-0.55,21.55-0.35
			c1.567,0.034,5.15,0.267,10.75,0.7c3.1,0.267,4.967,0.2,5.6-0.2c0.667-0.433,3.233-0.4,7.7,0.1C47.833-0.617,50-0.333,52.1,0z"/>
	</g>
</symbol>
<symbol  id="FlashAICB_Assets_x2F_decor_x5F_plants_3_x2F__x3C_Path_x3E__x5F_26" viewBox="0 -4.339 40.25 4.339">
	<g id="Layer_1_15_">
		<path style="fill-rule:evenodd;clip-rule:evenodd;fill:#7C5119;" d="M29.3-1.5c0.9-0.5,4.55,0,10.95,1.5
			c-4.9-1.4-8.433-2.283-10.6-2.65C28.45-2.85,26.967-3,25.2-3.1c-2-0.1-3.284-0.183-3.85-0.25C14.183-3.817,9.633-4.117,7.7-4.25
			c-2.534-0.167-4.567-0.1-6.1,0.2C0.8-3.883,0.267-3.7,0-3.5c6.833,0.1,12.4,0.367,16.7,0.8c0.933,0.1,3.683,0.467,8.25,1.1
			C27.317-1.233,28.767-1.2,29.3-1.5z"/>
	</g>
</symbol>
<symbol  id="FlashAICB_Assets_x2F_decor_x5F_plants_3_x2F__x3C_Path_x3E__x5F_27" viewBox="0 -2.14 40.1 2.14">
	<g id="Layer_1_14_">
		<path style="fill-rule:evenodd;clip-rule:evenodd;fill:#7C5119;" d="M29.15-0.85c0.8-0.6,4.45-0.467,10.95,0.4
			c-5.033-0.933-8.617-1.466-10.75-1.6c-1.233-0.1-2.717-0.117-4.45-0.05c-2.066,0.1-3.35,0.15-3.85,0.15
			c-1-0.033-3.2,0.017-6.6,0.15C10.783-1.633,8.467-1.533,7.5-1.5c-2.533,0.067-4.533,0.333-6,0.8C0.733-0.467,0.233-0.233,0,0
			c6.733-0.567,12.267-0.85,16.6-0.85c1.133,0,3.883,0.117,8.25,0.35C27.25-0.4,28.683-0.517,29.15-0.85z"/>
	</g>
</symbol>
<symbol  id="FlashAICB_Assets_x2F_decor_x5F_plants_3_x2F__x3C_Path_x3E__x5F_28" viewBox="0 -3.239 70.2 3.239">
	<g id="Layer_1_13_">
		<path style="fill-rule:evenodd;clip-rule:evenodd;fill:#7C5119;" d="M43.5-3.15C39.967-3.017,37.733-2.967,36.8-3
			c-1.7-0.067-5.55,0-11.55,0.2C18.85-2.6,14.8-2.483,13.1-2.45c-4.4,0.067-7.9,0.5-10.5,1.3C1.3-0.783,0.433-0.4,0,0
			c11.8-0.833,21.467-1.217,29-1.15c1.867,0,6.683,0.217,14.45,0.65C47.683-0.267,50.2-0.433,51-1c0.867-0.633,4.333-0.667,10.4-0.1
			c3.033,0.267,5.967,0.6,8.8,1c-8.833-1.7-15.133-2.7-18.9-3C49.133-3.267,46.533-3.283,43.5-3.15z"/>
	</g>
</symbol>
<symbol  id="FlashAICB_Assets_x2F_decor_x5F_plants_3_x2F__x3C_Path_x3E__x5F_29" viewBox="0 -4.406 41.15 4.406">
	<g id="Layer_1_12_">
		<path style="fill-rule:evenodd;clip-rule:evenodd;fill:#7C5119;" d="M21.85-3.45c-1-0.133-3.267-0.283-6.8-0.45
			c-4.5-0.233-6.883-0.367-7.15-0.4C5.3-4.5,3.2-4.417,1.6-4.05C0.8-3.883,0.267-3.7,0-3.5c6.967,0.1,12.667,0.35,17.1,0.75
			c1.167,0.1,3.967,0.483,8.4,1.15c2.433,0.367,3.917,0.4,4.45,0.1c0.933-0.533,4.667-0.033,11.2,1.5c-5-1.467-8.6-2.383-10.8-2.75
			C29.117-2.95,27.6-3.1,25.8-3.2C23.733-3.3,22.417-3.383,21.85-3.45z"/>
	</g>
</symbol>
<symbol  id="FlashAICB_Assets_x2F_decor_x5F_plants_3_x2F__x3C_Path_x3E__x5F_2_x5F_0" viewBox="0 -2.489 72.1 2.489">
	<g id="Layer_1_39_">
		<path style="fill-rule:evenodd;clip-rule:evenodd;fill:#7C5119;" d="M72.1-0.85c-0.467-0.267-1.4-0.517-2.8-0.75
			c-2.767-0.5-6.417-0.75-10.95-0.75C44.95-2.517,36.8-2.533,33.9-2.4c-0.667,0-2.967-0.017-6.9-0.05
			c-3.067-0.033-5.733,0.034-8,0.2C15.167-2.017,8.833-1.267,0,0c11.5-1.233,18.017-1.517,19.55-0.85c0.9,0.4,3.483,0.483,7.75,0.25
			C35.033-1,39.967-1.217,42.1-1.25C49.833-1.383,59.833-1.25,72.1-0.85z"/>
	</g>
</symbol>
<symbol  id="FlashAICB_Assets_x2F_decor_x5F_plants_3_x2F__x3C_Path_x3E__x5F_3" viewBox="0.028 -103.359 118.744 103.315">
	<g id="Layer_1_3_">
		<linearGradient id="SVGID_9_" gradientUnits="userSpaceOnUse" x1="0.0283" y1="-51.7017" x2="118.7719" y2="-51.7017">
			<stop  offset="0" style="stop-color:#806A52"/>
			<stop  offset="0.0157" style="stop-color:#85715A"/>
			<stop  offset="0.1373" style="stop-color:#B0A394"/>
			<stop  offset="0.251" style="stop-color:#D2CBC2"/>
			<stop  offset="0.349" style="stop-color:#EBE7E3"/>
			<stop  offset="0.4314" style="stop-color:#FAF9F8"/>
			<stop  offset="0.4863" style="stop-color:#FFFFFF"/>
			<stop  offset="0.5922" style="stop-color:#E6E1D8"/>
			<stop  offset="0.8314" style="stop-color:#A79776"/>
			<stop  offset="1" style="stop-color:#79602E"/>
		</linearGradient>
		<path style="fill-rule:evenodd;clip-rule:evenodd;fill:url(#SVGID_9_);" d="M105.8-21.9c3.167-7.3,6.733-18.4,10.7-33.3
			c4.233-15.8,2.55-27.4-5.05-34.8c-9.767-9.5-30.1-13.933-61-13.3c-23.6,0.466-38.684,4.966-45.25,13.5
			c-2.9,3.767-4.583,8.667-5.05,14.7c-0.333,4.533,0.017,10.883,1.05,19.05c1.733,13.667,4,24.333,6.8,32
			c2.733,7.5,6.35,13.033,10.85,16.6c4,3.233,9.4,5.35,16.2,6.35c4.467,0.667,12.1,1.017,22.9,1.05c12,0.033,19.333-0.083,22-0.35
			c6.233-0.6,11.167-2.35,14.8-5.25C98.817-8.817,102.5-14.233,105.8-21.9z"/>
	</g>
</symbol>
<symbol  id="FlashAICB_Assets_x2F_decor_x5F_plants_3_x2F__x3C_Path_x3E__x5F_30" viewBox="0 -4.05 39.95 4.05">
	<g id="Layer_1_11_">
		<path style="fill-rule:evenodd;clip-rule:evenodd;fill:#7C5119;" d="M29-2.8c0.733-0.633,4.383-0.733,10.95-0.3
			c-5.1-0.6-8.733-0.917-10.9-0.95c-1.233,0-2.7,0.1-4.4,0.3c-1.967,0.2-3.25,0.317-3.85,0.35c-0.933,0.033-3.117,0.233-6.55,0.6
			c-4.067,0.466-6.367,0.716-6.9,0.75C4.817-1.817,2.833-1.4,1.4-0.8C0.7-0.533,0.233-0.267,0,0c6.7-1.033,12.2-1.683,16.5-1.95
			c0.867-0.066,3.617-0.133,8.25-0.2C27.15-2.183,28.567-2.4,29-2.8z"/>
	</g>
</symbol>
<symbol  id="FlashAICB_Assets_x2F_decor_x5F_plants_3_x2F__x3C_Path_x3E__x5F_31" viewBox="0 -5.805 61 5.805">
	<g id="Layer_1_10_">
		<path style="fill-rule:evenodd;clip-rule:evenodd;fill:#7C5119;" d="M44.35-5.8c-1.9-0.034-4.15,0.083-6.75,0.35
			c-3.133,0.333-5.067,0.517-5.8,0.55c-1.466,0.033-4.816,0.316-10.05,0.85c-6.4,0.633-9.9,0.966-10.5,1
			c-3.867,0.333-6.9,0.933-9.1,1.8C1.05-0.783,0.333-0.367,0,0c10.2-1.467,18.6-2.383,25.2-2.75c1.8-0.1,6-0.183,12.6-0.25
			c3.667-0.033,5.833-0.333,6.5-0.9c0.7-0.633,3.684-0.867,8.95-0.7C55.917-4.533,58.5-4.4,61-4.2
			C53.233-5.233,47.683-5.767,44.35-5.8z"/>
	</g>
</symbol>
<symbol  id="FlashAICB_Assets_x2F_decor_x5F_plants_3_x2F__x3C_Path_x3E__x5F_32" viewBox="0 -3.754 40.5 3.754">
	<g id="Layer_1_9_">
		<path style="fill-rule:evenodd;clip-rule:evenodd;fill:#7C5119;" d="M21.45-3.05c-0.967-0.1-3.2-0.217-6.7-0.35
			C11.05-3.567,8.7-3.667,7.7-3.7C5.167-3.833,3.117-3.717,1.55-3.35C0.783-3.183,0.267-3,0-2.8c6.867,0,12.467,0.167,16.8,0.5
			c0.9,0.066,3.667,0.4,8.3,1c2.4,0.3,3.867,0.3,4.4,0c0.867-0.534,4.533-0.1,11,1.3c-4.967-1.333-8.533-2.167-10.7-2.5
			c-1.233-0.2-2.733-0.317-4.5-0.35C23.267-2.917,21.983-2.983,21.45-3.05z"/>
	</g>
</symbol>
<symbol  id="FlashAICB_Assets_x2F_decor_x5F_plants_3_x2F__x3C_Path_x3E__x5F_33" viewBox="0 -5.45 76.45 5.45">
	<g id="Layer_1_8_">
		<path style="fill-rule:evenodd;clip-rule:evenodd;fill:#7C5119;" d="M47.25-5.05c-3.8,0.3-6.233,0.466-7.3,0.5
			C38.083-4.483,33.9-4.2,27.4-3.7c-6.967,0.534-11.367,0.867-13.2,1C9.367-2.4,5.55-1.85,2.75-1.05C1.35-0.683,0.433-0.333,0,0
			c12.833-1.367,23.367-2.25,31.6-2.65c1.767-0.067,7.033-0.167,15.8-0.3c4.567-0.033,7.283-0.316,8.15-0.85
			c0.9-0.534,4.65-0.767,11.25-0.7c3.3,0.033,6.517,0.133,9.65,0.3C66.783-5,59.883-5.417,55.75-5.45
			C53.383-5.45,50.55-5.317,47.25-5.05z"/>
	</g>
</symbol>
<symbol  id="FlashAICB_Assets_x2F_decor_x5F_plants_3_x2F__x3C_Path_x3E__x5F_34" viewBox="0 -5.136 76.85 5.136">
	<g id="Layer_1_7_">
		<path style="fill-rule:evenodd;clip-rule:evenodd;fill:#7C5119;" d="M47.75-3.9C43.883-4,41.433-4.083,40.4-4.15
			c-1.733-0.1-5.95-0.25-12.65-0.45c-7.433-0.233-11.867-0.383-13.3-0.45C9.617-5.25,5.767-5.1,2.9-4.6
			C1.433-4.367,0.467-4.117,0-3.85c12.933,0,23.517,0.233,31.75,0.7c1.9,0.1,7.167,0.55,15.8,1.35c4.567,0.433,7.317,0.45,8.25,0.05
			c1-0.433,4.817-0.267,11.45,0.5c3.3,0.367,6.5,0.783,9.6,1.25C67.283-1.8,60.433-2.917,56.3-3.35
			C53.933-3.617,51.083-3.8,47.75-3.9z"/>
	</g>
</symbol>
<symbol  id="FlashAICB_Assets_x2F_decor_x5F_plants_3_x2F__x3C_Path_x3E__x5F_35" viewBox="0 -4.99 76.45 4.99">
	<g id="Layer_1_6_">
		<path style="fill-rule:evenodd;clip-rule:evenodd;fill:#7C5119;" d="M47.5-3.8c-3.8-0.067-6.25-0.15-7.35-0.25
			C38.317-4.183,34.133-4.333,27.6-4.5c-8.4-0.267-12.817-0.4-13.25-0.4c-4.8-0.2-8.633-0.067-11.5,0.4
			C1.417-4.267,0.467-4.017,0-3.75c12.833,0,23.367,0.233,31.6,0.7c2.133,0.133,7.367,0.583,15.7,1.35c4.567,0.4,7.317,0.4,8.25,0
			c0.967-0.433,4.75-0.283,11.35,0.45c3.267,0.367,6.45,0.783,9.55,1.25C66.917-1.767,60.1-2.867,56-3.3
			C53.667-3.533,50.833-3.7,47.5-3.8z"/>
	</g>
</symbol>
<symbol  id="FlashAICB_Assets_x2F_decor_x5F_plants_3_x2F__x3C_Path_x3E__x5F_36" viewBox="0 -3.506 76.05 3.506">
	<g id="Layer_1_5_">
		<path style="fill-rule:evenodd;clip-rule:evenodd;fill:#7C5119;" d="M47.1-3.35c-3.9,0.167-6.333,0.25-7.3,0.25
			c-1.867,0-6.033,0.133-12.5,0.4c-6.933,0.3-11.316,0.483-13.15,0.55C9.383-2.017,5.6-1.617,2.8-0.95C1.4-0.617,0.467-0.3,0,0
			c12.767-0.9,23.25-1.4,31.45-1.5C33.783-1.533,39-1.467,47.1-1.3c4.566,0.1,7.283-0.083,8.15-0.55
			c0.933-0.5,4.683-0.617,11.25-0.35c3.267,0.167,6.45,0.367,9.55,0.6c-9.566-1.1-16.4-1.717-20.5-1.85
			C53.183-3.55,50.367-3.517,47.1-3.35z"/>
	</g>
</symbol>
<symbol  id="FlashAICB_Assets_x2F_decor_x5F_plants_3_x2F__x3C_Path_x3E__x5F_37" viewBox="0 -22.9 71.15 22.887">
	<g id="Layer_1_46_">
		<path style="fill-rule:evenodd;clip-rule:evenodd;fill:#FF0000;" d="M71.15-2.65c-6.2,1.133-15.7,1.583-28.5,1.35
			C27.283-1.533,16.967-2.633,11.7-4.6c-4.667-1.733-6.983-4.9-6.95-9.5c0.033-3.833,3.267-6.767,9.7-8.8
			C4.85-21,0.033-17.667,0-12.9c-0.033,4.633,2.283,7.816,6.95,9.55c5.267,1.934,15.583,3.033,30.95,3.3
			C54.433,0.183,65.517-0.683,71.15-2.65z"/>
	</g>
</symbol>
<symbol  id="FlashAICB_Assets_x2F_decor_x5F_plants_3_x2F__x3C_Path_x3E__x5F_38" viewBox="0 -53.1 22.35 53.1">
	<g id="Layer_1_47_">
		<polygon style="fill-rule:evenodd;clip-rule:evenodd;fill:#F9ECCA;" points="22.35,-0.65 20.7,-53.1 0,-52.45 1.6,0 		"/>
	</g>
</symbol>
<symbol  id="FlashAICB_Assets_x2F_decor_x5F_plants_3_x2F__x3C_Path_x3E__x5F_3_x5F_0" viewBox="0 -5.868 71.85 5.868">
	<g id="Layer_1_38_">
		<path style="fill-rule:evenodd;clip-rule:evenodd;fill:#7C5119;" d="M71.85-4.9c-0.467-0.233-1.4-0.45-2.8-0.65
			c-2.8-0.367-6.466-0.417-11-0.15C44.717-5.067,36.6-4.633,33.7-4.4c-1.034,0.1-3.333,0.233-6.9,0.4
			c-3.133,0.133-5.783,0.333-7.95,0.6C15.017-2.933,8.733-1.8,0,0c11.4-1.9,17.9-2.55,19.5-1.95c0.9,0.333,3.483,0.267,7.75-0.2
			c7.5-0.833,12.4-1.333,14.7-1.5C49.65-4.25,59.617-4.667,71.85-4.9z"/>
	</g>
</symbol>
<symbol  id="FlashAICB_Assets_x2F_decor_x5F_plants_3_x2F__x3C_Path_x3E__x5F_3_x5F_1" viewBox="-0.004 -27.25 39.354 27.259">
	<g id="Layer_1_50_">
		<path style="fill-rule:evenodd;clip-rule:evenodd;fill:#8C7C3F;" d="M5.45-27.25C1.917-24.05,0.1-20.167,0-15.6
			c-0.1,4.233,1.767,7.85,5.6,10.85C9.467-1.717,14.35-0.133,20.25,0c4.233,0.1,8.083-0.65,11.55-2.25
			c3.333-1.533,5.85-3.633,7.55-6.3C37.417-6.883,35.067-5.6,32.3-4.7c-2.833,0.934-5.883,1.367-9.15,1.3
			C17.25-3.533,12.367-5.117,8.5-8.15c-3.833-2.967-5.7-6.567-5.6-10.8C2.967-21.95,3.817-24.717,5.45-27.25z"/>
	</g>
</symbol>
<symbol  id="FlashAICB_Assets_x2F_decor_x5F_plants_3_x2F__x3C_Path_x3E__x5F_3_x5F_2" viewBox="-0.002 -23.05 40.302 23.062">
	<g id="Layer_1_53_">
		<path style="fill-rule:evenodd;clip-rule:evenodd;fill:#8C7C3F;" d="M0.55-10.4c1.1,4.1,3.883,7.066,8.35,8.9
			c4.567,1.833,9.7,2,15.4,0.5c4.1-1.067,7.6-2.85,10.5-5.35c2.767-2.367,4.6-5.066,5.5-8.1c-1.4,2.167-3.3,4.05-5.7,5.65
			c-2.467,1.7-5.267,2.966-8.4,3.8c-5.7,1.5-10.833,1.317-15.4-0.55c-4.5-1.8-7.3-4.75-8.4-8.85c-0.767-2.9-0.7-5.783,0.2-8.65
			C0.067-19.017-0.617-14.8,0.55-10.4z"/>
	</g>
</symbol>
<symbol  id="FlashAICB_Assets_x2F_decor_x5F_plants_3_x2F__x3C_Path_x3E__x5F_3_x5F_3" viewBox="0.014 -17.1 29.886 17.136">
	<g id="Layer_1_56_">
		<path style="fill-rule:evenodd;clip-rule:evenodd;fill:#8C7C3F;" d="M1.95-17.1c-1.867,3.033-2.383,6.167-1.55,9.4
			c0.8,3.067,2.867,5.267,6.2,6.6c3.4,1.367,7.217,1.5,11.45,0.4c3.034-0.8,5.617-2.133,7.75-4c2.067-1.767,3.434-3.767,4.1-6
			c-2.267,3.434-5.767,5.767-10.5,7c-4.2,1.1-8,0.967-11.4-0.4c-3.333-1.333-5.4-3.517-6.2-6.55C1.233-12.85,1.283-15,1.95-17.1z"/>
	</g>
</symbol>
<symbol  id="FlashAICB_Assets_x2F_decor_x5F_plants_3_x2F__x3C_Path_x3E__x5F_3_x5F_4" viewBox="0.014 -17.1 29.886 17.136">
	<g id="Layer_1_59_">
		<path style="fill-rule:evenodd;clip-rule:evenodd;fill:#8C7C3F;" d="M1.95-17.1c-1.867,3.033-2.383,6.167-1.55,9.4
			c0.8,3.067,2.867,5.267,6.2,6.6c3.4,1.367,7.217,1.5,11.45,0.4c3.034-0.8,5.617-2.133,7.75-4c2.067-1.767,3.434-3.767,4.1-6
			c-2.267,3.434-5.767,5.767-10.5,7c-4.2,1.1-8,0.967-11.4-0.4c-3.333-1.333-5.4-3.517-6.2-6.55C1.233-12.85,1.283-15,1.95-17.1z"/>
	</g>
</symbol>
<symbol  id="FlashAICB_Assets_x2F_decor_x5F_plants_3_x2F__x3C_Path_x3E__x5F_4" viewBox="0.028 -103.359 118.744 103.315">
	<g id="Layer_1_2_">
		<path style="fill-rule:evenodd;clip-rule:evenodd;fill:#FF0000;" d="M105.8-21.9c3.167-7.3,6.733-18.4,10.7-33.3
			c4.233-15.8,2.55-27.4-5.05-34.8c-9.767-9.5-30.1-13.933-61-13.3c-23.6,0.466-38.684,4.966-45.25,13.5
			c-2.9,3.767-4.583,8.667-5.05,14.7c-0.333,4.533,0.017,10.883,1.05,19.05c1.733,13.667,4,24.333,6.8,32
			c2.733,7.5,6.35,13.033,10.85,16.6c4,3.233,9.4,5.35,16.2,6.35c4.467,0.667,12.1,1.017,22.9,1.05c12,0.033,19.333-0.083,22-0.35
			c6.233-0.6,11.167-2.35,14.8-5.25C98.817-8.817,102.5-14.233,105.8-21.9z"/>
	</g>
</symbol>
<symbol  id="FlashAICB_Assets_x2F_decor_x5F_plants_3_x2F__x3C_Path_x3E__x5F_4_x5F_0" viewBox="0 -5.868 72.2 5.868">
	<g id="Layer_1_37_">
		<path style="fill-rule:evenodd;clip-rule:evenodd;fill:#7C5119;" d="M72.2-4.95c-0.5-0.233-1.45-0.433-2.85-0.6
			c-2.8-0.367-6.483-0.417-11.05-0.15C44.9-5.1,36.75-4.667,33.85-4.4C32.817-4.3,30.5-4.167,26.9-4c-3.167,0.133-5.833,0.333-8,0.6
			C15.067-2.933,8.767-1.8,0,0c11.433-1.9,17.95-2.55,19.55-1.95c0.934,0.333,3.55,0.267,7.85-0.2
			c7.567-0.833,12.483-1.333,14.75-1.5C49.883-4.25,59.9-4.683,72.2-4.95z"/>
	</g>
</symbol>
<symbol  id="FlashAICB_Assets_x2F_decor_x5F_plants_3_x2F__x3C_Path_x3E__x5F_5" viewBox="0 -4.057 72.7 4.057">
	<g id="Layer_1_36_">
		<path style="fill-rule:evenodd;clip-rule:evenodd;fill:#7C5119;" d="M72.7,0c-0.467-0.3-1.383-0.6-2.75-0.9
			C67.183-1.567,63.5-2,58.9-2.2C45.433-3,37.233-3.417,34.3-3.45c-1.066,0-3.383-0.117-6.95-0.35C24.183-4,21.5-4.083,19.3-4.05
			C15.4-3.983,8.967-3.517,0-2.65c11.667-0.7,18.233-0.667,19.7,0.1c0.867,0.433,3.466,0.633,7.8,0.6
			c7.767-0.033,12.75-0.017,14.95,0.05C50.283-1.667,60.367-1.033,72.7,0z"/>
	</g>
</symbol>
<symbol  id="FlashAICB_Assets_x2F_decor_x5F_plants_3_x2F__x3C_Path_x3E__x5F_6" viewBox="0 -4.967 38.7 4.967">
	<g id="Layer_1_35_">
		<path style="fill-rule:evenodd;clip-rule:evenodd;fill:#7C5119;" d="M38.7,0c-0.2-0.233-0.667-0.5-1.4-0.8
			c-1.4-0.6-3.333-1.05-5.8-1.35C22.967-3.383,18.617-4,18.45-4c-0.5-0.033-1.733-0.2-3.7-0.5c-1.667-0.267-3.1-0.417-4.3-0.45
			C8.35-5.017,4.867-4.883,0-4.55C6.3-4.683,9.817-4.433,10.55-3.8c0.434,0.367,1.8,0.617,4.1,0.75c4.367,0.267,7.033,0.45,8,0.55
			C26.85-2.033,32.2-1.2,38.7,0z"/>
	</g>
</symbol>
<symbol  id="FlashAICB_Assets_x2F_decor_x5F_plants_3_x2F__x3C_Path_x3E__x5F_6_x5F_0">
	<g id="Layer_1_49_">
	</g>
</symbol>
<symbol  id="FlashAICB_Assets_x2F_decor_x5F_plants_3_x2F__x3C_Path_x3E__x5F_6_x5F_2">
	<g id="Layer_1_52_">
	</g>
</symbol>
<symbol  id="FlashAICB_Assets_x2F_decor_x5F_plants_3_x2F__x3C_Path_x3E__x5F_6_x5F_4">
	<g id="Layer_1_55_">
	</g>
</symbol>
<symbol  id="FlashAICB_Assets_x2F_decor_x5F_plants_3_x2F__x3C_Path_x3E__x5F_6_x5F_6">
	<g id="Layer_1_58_">
	</g>
</symbol>
<symbol  id="FlashAICB_Assets_x2F_decor_x5F_plants_3_x2F__x3C_Path_x3E__x5F_7" viewBox="0 -5.082 38.8 5.082">
	<g id="Layer_1_34_">
		<path style="fill-rule:evenodd;clip-rule:evenodd;fill:#7C5119;" d="M38.8,0c-0.2-0.233-0.667-0.517-1.4-0.85
			c-1.4-0.6-3.316-1.066-5.75-1.4c-7.2-1.1-11.583-1.717-13.15-1.85c-0.5-0.033-1.733-0.2-3.7-0.5c-1.667-0.267-3.1-0.417-4.3-0.45
			C8.4-5.15,4.9-5.017,0-4.65C6.333-4.783,9.867-4.533,10.6-3.9c0.433,0.367,1.816,0.617,4.15,0.75c4.2,0.267,6.867,0.467,8,0.6
			C26.917-2.117,32.267-1.267,38.8,0z"/>
	</g>
</symbol>
<symbol  id="FlashAICB_Assets_x2F_decor_x5F_plants_3_x2F__x3C_Path_x3E__x5F_7_x5F_0" viewBox="0.01 -62.2 11.639 62.2">
	<g id="Layer_1_48_">
		<path style="fill-rule:evenodd;clip-rule:evenodd;fill:#766935;" d="M3.8-13.45C6-7.017,8.617-2.533,11.65,0
			C3.417-13.5,0.717-31.417,3.55-53.75c0.3-2.233,0.75-4.417,1.35-6.55c-0.967-0.5-1.983-1.133-3.05-1.9L1.3-58.65
			C-1.033-40.283-0.2-25.217,3.8-13.45z"/>
	</g>
</symbol>
<symbol  id="FlashAICB_Assets_x2F_decor_x5F_plants_3_x2F__x3C_Path_x3E__x5F_7_x5F_1" viewBox="0 -57.1 26.6 57.1">
	<g id="Layer_1_51_">
		<path style="fill-rule:evenodd;clip-rule:evenodd;fill:#766935;" d="M15.35-10.75C19.183-5.283,22.933-1.7,26.6,0
			C14.967-10.7,7.433-27.183,4-49.45c-0.367-2.367-0.55-4.583-0.55-6.65c-1.133-0.2-2.284-0.533-3.45-1c0.1,1.2,0.25,2.4,0.45,3.6
			C3.283-35.2,8.25-20.95,15.35-10.75z"/>
	</g>
</symbol>
<symbol  id="FlashAICB_Assets_x2F_decor_x5F_plants_3_x2F__x3C_Path_x3E__x5F_7_x5F_2" viewBox="0 -42.3 19.75 42.3">
	<g id="Layer_1_54_">
		<path style="fill-rule:evenodd;clip-rule:evenodd;fill:#766935;" d="M0.35-39.65c2.1,13.566,5.783,24.133,11.05,31.7
			c2.9,4.1,5.684,6.75,8.35,7.95C11.117-7.9,5.533-20.117,3-36.65c-0.233-1.3-0.383-2.95-0.45-4.95
			C1.783-41.733,0.933-41.967,0-42.3L0.35-39.65z"/>
	</g>
</symbol>
<symbol  id="FlashAICB_Assets_x2F_decor_x5F_plants_3_x2F__x3C_Path_x3E__x5F_7_x5F_3" viewBox="0 -42.3 19.75 42.3">
	<g id="Layer_1_57_">
		<path style="fill-rule:evenodd;clip-rule:evenodd;fill:#766935;" d="M0.35-39.65c2.1,13.566,5.783,24.133,11.05,31.7
			c2.9,4.1,5.684,6.75,8.35,7.95C11.117-7.9,5.533-20.117,3-36.65c-0.233-1.3-0.383-2.95-0.45-4.95
			C1.783-41.733,0.933-41.967,0-42.3L0.35-39.65z"/>
	</g>
</symbol>
<symbol  id="FlashAICB_Assets_x2F_decor_x5F_plants_3_x2F__x3C_Path_x3E__x5F_8" viewBox="0 -4.573 72.75 4.573">
	<g id="Layer_1_33_">
		<path style="fill-rule:evenodd;clip-rule:evenodd;fill:#7C5119;" d="M72.75-3.45c-0.467-0.233-1.417-0.466-2.85-0.7
			c-2.8-0.4-6.5-0.517-11.1-0.35C45.3-4.167,37.1-3.9,34.2-3.7c-0.967,0.067-3.3,0.15-7,0.25C24.033-3.383,21.35-3.233,19.15-3
			C15.283-2.6,8.9-1.6,0,0c2.9-0.433,5.9-0.817,9-1.15c6.2-0.667,9.783-0.8,10.75-0.4c0.9,0.367,3.517,0.35,7.85-0.05
			c7.9-0.7,12.867-1.1,14.9-1.2C50.3-3.233,60.383-3.45,72.75-3.45z"/>
	</g>
</symbol>
<symbol  id="FlashAICB_Assets_x2F_decor_x5F_plants_3_x2F__x3C_Path_x3E__x5F_9" viewBox="0 -2.333 73.75 2.333">
	<g id="Layer_1_32_">
		<path style="fill-rule:evenodd;clip-rule:evenodd;fill:#7C5119;" d="M73.75-0.1c-0.467-0.267-1.4-0.55-2.8-0.85
			c-2.8-0.566-6.534-0.867-11.2-0.9C46.083-2.15,37.767-2.267,34.8-2.2c-0.966,0.034-3.316,0-7.05-0.1
			c-3.2-0.067-5.933-0.034-8.2,0.1C15.617-1.967,9.1-1.233,0,0c11.833-1.167,18.517-1.4,20.05-0.7c0.9,0.434,3.55,0.55,7.95,0.35
			c8.2-0.333,13.233-0.5,15.1-0.5C51.033-0.917,61.25-0.667,73.75-0.1z"/>
	</g>
</symbol>
<g>
	<g>
		<g>
			<path style="fill-rule:evenodd;clip-rule:evenodd;fill:#8F6815;" d="M120.05,49.3c4.066,3.167,7.75,8.583,11.05,16.25
				c3.167,7.3,6.733,18.4,10.7,33.3c4.233,15.801,2.55,27.4-5.05,34.801c-9.767,9.5-30.1,13.933-61,13.3
				c-23.6-0.467-38.683-4.967-45.25-13.5c-2.9-3.767-4.583-8.667-5.05-14.7c-0.333-4.533,0.017-10.884,1.05-19.05
				c1.733-13.667,4-24.334,6.8-32c2.733-7.5,6.35-13.034,10.85-16.6c4-3.233,9.4-5.35,16.2-6.35c4.467-0.667,12.1-1.017,22.9-1.05
				c12-0.034,19.333,0.083,22,0.35C111.483,44.65,116.417,46.4,120.05,49.3z"/>
			
				<use xlink:href="#FlashAICB_Assets_x2F_decor_x5F_plants_3_x2F__x3C_Path_x3E__x5F_4"  width="118.744" height="103.315" x="0.028" y="-103.359" transform="matrix(1 0 0 -1 25.2998 43.6499)" style="overflow:visible;opacity:0.6016;enable-background:new    ;"/>
			
				<use xlink:href="#FlashAICB_Assets_x2F_decor_x5F_plants_3_x2F__x3C_Path_x3E__x5F_3"  width="118.744" height="103.315" x="0.028" y="-103.359" transform="matrix(1 0 0 -1 25.2998 43.6499)" style="overflow:visible;opacity:0.5;enable-background:new    ;"/>
			
				<use xlink:href="#FlashAICB_Assets_x2F_decor_x5F_plants_3_x2F__x3C_Path_x3E__x5F_2"  width="118.744" height="103.315" x="0.028" y="-103.359" transform="matrix(1 0 0 -1 25.2998 43.6499)" style="overflow:visible;opacity:0.5;enable-background:new    ;"/>
			
				<use xlink:href="#FlashAICB_Assets_x2F_decor_x5F_plants_3_x2F__x3C_Clip_Group_0_x3E_"  width="174.1" height="103.315" y="-103.359" transform="matrix(1 0 0 -1 0 43.6499)" style="overflow:visible;"/>
			
				<use xlink:href="#FlashAICB_Assets_x2F_decor_x5F_plants_3_x2F__x3C_Path_x3E__x5F_1_x5F_0"  width="35.915" height="100.7" y="-100.7" transform="matrix(1 0 0 -1 108.2002 44.5)" style="overflow:visible;opacity:0.25;enable-background:new    ;"/>
			
				<use xlink:href="#FlashAICB_Assets_x2F_decor_x5F_plants_3_x2F__x3C_Path_x3E__x5F_0"  width="33.39" height="99.85" x="0.16" y="-99.85" transform="matrix(1 0 0 -1 25.2998 45.0498)" style="overflow:visible;opacity:0.25;enable-background:new    ;"/>
		</g>
		<g>
			
				<use xlink:href="#FlashAICB_Assets_x2F_decor_x5F_plants_3_x2F__x3C_Group_x3E_"  width="6.05" height="7.718" x="-0.025" y="-7.709" transform="matrix(1 0 0 -1 126.5996 88.3496)" style="overflow:visible;opacity:0.3008;enable-background:new    ;"/>
		</g>
	</g>
	<g>
		
			<radialGradient id="SVGID_10_" cx="-81.8115" cy="-60.3799" r="45.2744" gradientTransform="matrix(-0.9999 0.0124 0.0042 0.3374 0.9989 80.7485)" gradientUnits="userSpaceOnUse">
			<stop  offset="0" style="stop-color:#000000"/>
			<stop  offset="0.8824" style="stop-color:#000000;stop-opacity:0.2863"/>
			<stop  offset="1" style="stop-color:#000000;stop-opacity:0"/>
		</radialGradient>
		<path style="fill-rule:evenodd;clip-rule:evenodd;fill:url(#SVGID_10_);" d="M119.4,47.3c6.399,1.967,9.633,5.684,9.699,11.15
			c0.034,5.033-4.517,8.933-13.649,11.7c-8.167,2.467-19.167,3.817-33,4.05c-13.8,0.2-24.75-0.784-32.85-2.95
			C40.567,68.783,36.033,65.033,36,60c-0.067-5.567,2.683-9.383,8.25-11.45c6.233-2.367,18.483-3.7,36.75-4
			C99.667,44.25,112.467,45.167,119.4,47.3z"/>
		<path style="fill-rule:evenodd;clip-rule:evenodd;fill:#4A321E;" d="M113.55,49.35c5.4,1.633,8.134,4.717,8.2,9.25
			c0.033,4.2-3.8,7.433-11.5,9.7c-6.866,2.034-16.134,3.15-27.8,3.35c-11.6,0.2-20.817-0.617-27.65-2.45
			c-7.6-2.034-11.417-5.133-11.45-9.3c-0.033-4.633,2.283-7.816,6.95-9.55c5.267-1.934,15.583-3.033,30.95-3.3
			C96.983,46.817,107.75,47.583,113.55,49.35z"/>
		
			<use xlink:href="#FlashAICB_Assets_x2F_decor_x5F_plants_3_x2F__x3C_Path_x3E__x5F_1_x5F_1"  width="78.4" height="24.67" x="0" y="-24.679" transform="matrix(1 0 0 -1 43.3501 47)" style="overflow:visible;opacity:0.6016;enable-background:new    ;"/>
		
			<use xlink:href="#FlashAICB_Assets_x2F_decor_x5F_plants_3_x2F__x3C_Path_x3E__x5F_37"  width="71.15" height="22.887" x="0" y="-22.9" transform="matrix(1 0 0 -1 43.3501 47)" style="overflow:visible;enable-background:new    ;"/>
	</g>
</g>
<use xlink:href="#FlashAICB_Assets_x2F_decor_x5F_plants_3_x2F__x3C_Path_x3E__x5F_38"  width="22.35" height="53.1" y="-53.1" transform="matrix(1 0 0 -1 61.5498 84.8496)" style="overflow:visible;opacity:0.5;enable-background:new    ;"/>
<use xlink:href="#FlashAICB_Assets_x2F_decor_x5F_plants_3_x2F__x3C_Clip_Group_0_x3E__x5F_0"  width="116" height="116.85" y="-116.85" transform="matrix(1 0 0 -1 27.7002 0)" style="overflow:visible;"/>
<g>
	<path style="fill-rule:evenodd;clip-rule:evenodd;fill:#7A6D57;" d="M69.1,91.95c0.267,0.3,0.2,0.316-0.2,0.05
		S68.567,91.717,69.1,91.95z"/>
	<path style="fill-rule:evenodd;clip-rule:evenodd;fill:#7A6D57;" d="M67.475,93.575c-0.047-0.06-0.089-0.101-0.125-0.125l0.5,0.25
		C67.713,93.654,67.588,93.612,67.475,93.575z M68.2,92.025c-0.019-0.04-0.085-0.132-0.2-0.275c0.317,0.286,0.618,0.494,0.9,0.625
		c-0.204-0.1-0.337-0.275-0.4-0.525l0.825,0.825c-0.121-0.221-0.196-0.346-0.225-0.375c0.167,0.134,0.316,0.2,0.45,0.2
		c0.133,0.033,0.067-0.083-0.2-0.35c0.7,0.6,1.05,0.716,1.05,0.35c-0.033,0.033-0.133-0.116-0.3-0.45
		c0.063,0.031,0.229,0.182,0.5,0.45c-0.02-0.033-0.037-0.083-0.05-0.15c-0.143-0.125-0.143-0.142,0-0.05c0-0.04,0-0.09,0-0.149
		c0.102,0.126,0.185,0.234,0.25,0.324l0.05,0.025c0.016,0.01,0.032,0.019,0.05,0.025c0.101,0.071,0.184,0.138,0.25,0.199
		c0.133,0.129,0.166,0.237,0.1,0.325c-0.2-0.3-0.267-0.35-0.2-0.149l0.1,0.175c-0.137-0.207-0.32-0.349-0.55-0.425
		c0.6,0.699,0.483,1.116-0.35,1.25c0.288,0.191,0.454,0.425,0.5,0.699c-0.03-0.013-0.096-0.029-0.2-0.05
		c-0.146,0-0.246-0.017-0.3-0.05c0.325,0.344,0.392,0.627,0.2,0.85c-0.1,0.101-0.233,0.184-0.4,0.25
		c0.233,0.067,0.367,0.15,0.4,0.25c0,0.101-0.117,0.167-0.35,0.2c0.3,0.134,0.467,0.25,0.5,0.351c0,0.028-0.017,0.078-0.05,0.149
		v0.05c0,0.067-0.033,0.2-0.1,0.4c0.267-0.434,0.733-0.717,1.4-0.85c0.7-0.134,1.033,0.116,1,0.75c0-0.067,0.1-0.2,0.3-0.4
		c0.2-0.2,0.35-0.283,0.45-0.25c-0.221-0.11-0.263-0.177-0.125-0.2c-0.266-0.056-0.674-0.605-1.225-1.649
		c-0.667-1.233-0.767-2.051-0.3-2.45c0.8-0.634,1.35-0.533,1.65,0.3c0.133,0.434,0.2,0.917,0.2,1.45
		c0.934,0.233,1.617,1.05,2.05,2.45c0.4,1.3,0.683,1.916,0.85,1.85c-0.1,0.2-0.233,0.316-0.4,0.35
		c-0.233,0.034-0.45,0.051-0.65,0.051c0.267,0.433,0.467,0.6,0.6,0.5c0.167-0.2,0.4-0.2,0.7,0C76.483,98.967,76.5,99,77,99
		c-0.133,0.2-0.317,0.267-0.55,0.2c0.088,0.044,0.147,0.077,0.175,0.1c0.265-0.154,0.49,0.046,0.675,0.601
		c0.167,0.6,0.15,0.949-0.05,1.05c0.133,0,0.117,0.1-0.05,0.3c-0.167,0.2-0.333,0.333-0.5,0.4c0.066,0.366-0.117,0.883-0.55,1.55
		c-0.339,0.564-0.605,0.773-0.8,0.625c0.055,0.133,0.021,0.358-0.1,0.675c-0.233,0-0.367-0.083-0.4-0.25s-0.117-0.267-0.25-0.3
		c0.066,0.066,0.133,0.3,0.2,0.7c-0.222-0.222-0.28-0.181-0.175,0.125c-0.093-0.248-0.218-0.356-0.375-0.325
		c-0.333,1-0.567,1.05-0.7,0.149c-0.367,1.301-0.683,1.434-0.95,0.4c0.033,0.8-0.6,1.05-1.9,0.75c0.043,0.044,0.027,0.16-0.05,0.35
		c0.093,0.483,0.077,0.566-0.05,0.25l-0.025-0.05c0.034-0.074,0.059-0.141,0.075-0.2c-0.044-0.282-0.127-0.698-0.25-1.25
		c-0.017,0.023-0.034,0.04-0.05,0.051c0.015,0.364-0.035,0.73-0.15,1.1c0.333,0.667,0.216,0.583-0.35-0.25
		c0.066,0.6,0.017,0.816-0.15,0.65c-0.2-0.301-0.3-0.434-0.3-0.4c-0.04,0.161-0.065,0.319-0.075,0.475
		c0.31,0.509,0.235,0.601-0.225,0.275c-0.128-0.081-0.237-0.156-0.325-0.225c-0.013,0.06-0.038,0.135-0.075,0.225
		c-0.012-0.07-0.02-0.137-0.025-0.2c0.005-0.017,0.013-0.033,0.025-0.05l0.025-0.025c-0.019-0.018-0.036-0.034-0.05-0.05
		l-0.025,0.025c-0.009-0.096-0.017-0.187-0.025-0.275c-0.026,0.013-0.051,0.021-0.075,0.025c-0.228,0.032-0.386,0.091-0.475,0.175
		l0.025-0.225c0.066-0.467,0.066-0.7,0-0.7c-0.1,0.1-0.167,0.333-0.2,0.7c0,0.155-0.017,0.372-0.05,0.649
		c0.025-0.274-0.025-0.225-0.15,0.15v-1.15c-0.133,0.434-0.267,0.667-0.4,0.7c0.161-0.482,0.261-0.974,0.3-1.475
		c-0.029,0.065-0.063,0.141-0.1,0.225c-0.067,0.134-0.15,0.3-0.25,0.5c-0.033-0.233-0.1-0.4-0.2-0.5
		c-0.133-0.134-0.216-0.017-0.25,0.35c0.034-0.3-0.117-0.533-0.45-0.699c-0.3-0.167-0.483-0.117-0.55,0.149l0.1-0.725
		c-0.025,0.094-0.192,0.202-0.5,0.325c0.164-0.23,0.214-0.555,0.15-0.976c0.042-0.116,0.125-0.175,0.25-0.175
		c-0.133,0.333-0.133,0.417,0,0.25c0.233-0.267,0.367-0.384,0.4-0.35c-0.3,0.366-0.35,0.666-0.15,0.899
		c-0.033,0.134,2.917-1.149,8.85-3.85c-0.4-0.033-0.517-0.066-0.35-0.101c0.1-0.033,0.25-0.066,0.45-0.1
		c-0.367-0.134-0.683-0.366-0.95-0.7c-0.233-0.3-0.367-0.616-0.4-0.95c-0.066,0.267-0.217,0.4-0.45,0.4c-0.2,0-0.317,0.15-0.35,0.45
		C72.783,99.35,72.567,99.2,72.2,99c-0.267-0.167-0.383-0.3-0.35-0.4c-0.132,0.428-0.198,0.437-0.2,0.025
		c-0.004,0.214-0.104,0.272-0.3,0.175c-0.233-0.133-0.383-0.033-0.45,0.3c-0.033-0.1,0.033-0.466,0.2-1.1
		c-0.434,0.233-0.617,0.366-0.55,0.4c0.167,0.1,0.117,0.333-0.15,0.699l0.05-0.25c-0.034,0-0.083,0.101-0.15,0.301
		c0-0.2,0.05-0.4,0.15-0.601c-0.071,0.071-0.121,0.113-0.15,0.125c0.019,0.161-0.031,0.286-0.15,0.375
		c-0.066,0.066-0.217,0.167-0.45,0.3c0.167-0.333,0.083-0.433-0.25-0.3c-0.228,0.076-0.377,0.143-0.45,0.2
		c0.162-0.4,0.211-0.6,0.15-0.6l-0.4,0.449c0.067-0.3,0.15-0.5,0.25-0.6c-0.033,0-0.217,0.167-0.55,0.5
		c0.066-0.267,0.017-0.4-0.15-0.4c-0.1,0-0.033-0.166,0.2-0.5c-0.667,0.367-0.75,0.317-0.25-0.149
		c-0.433,0.233-0.683,0.217-0.75-0.05c-0.067-0.301,0.033-0.483,0.3-0.551l-0.6-0.05c0.367-0.133,0.316-0.166-0.15-0.1
		c0.1-0.233,0.233-0.334,0.4-0.3c0.167,0.033,0.283,0,0.35-0.101h-0.15c-0.3,0-0.5,0-0.6,0c0.34-0.093,0.365-0.143,0.075-0.149
		h0.225l0.15-0.2c0,0.033-0.183-0.017-0.55-0.15c-0.034-0.033,0.017-0.116,0.15-0.25c0.1-0.06,0.208-0.093,0.325-0.1
		c-0.088-0.102-0.196-0.252-0.325-0.45c-0.233-0.366-0.033-0.45,0.6-0.25c-0.2-0.167-0.417-0.333-0.65-0.5
		c0.2,0.066,0.317-0.116,0.35-0.55c0.033-0.367,0.184-0.45,0.45-0.25c-0.051-0.058-0.101-0.107-0.15-0.15
		c0.252,0.126,0.585,0.293,1,0.5c-0.039-0.052-0.073-0.094-0.1-0.125l-0.7-0.55c-0.043-0.012-0.143-0.054-0.3-0.125
		c-0.367-0.167-0.184-0.167,0.55,0c-0.2-0.15-0.358-0.267-0.475-0.35L67.9,93.3c-0.333-0.333-0.3-0.35,0.1-0.05
		c-0.258-0.323-0.217-0.364,0.125-0.125L67.55,92.7c0.268,0.16,0.318,0.169,0.15,0.024c-0.081-0.044-0.131-0.085-0.15-0.125
		c-0.033-0.06,0.018-0.109,0.15-0.149c0.148,0.208,0.324,0.333,0.525,0.375c-0.051-0.052-0.068-0.102-0.05-0.15L68.2,92.65
		c0.015-0.021,0.032-0.037,0.05-0.051c0.095-0.081,0.136-0.156,0.125-0.225c0.423,0.377,0.648,0.552,0.675,0.525
		c-0.066-0.134-0.216-0.317-0.45-0.551C68.433,92.225,68.299,92.116,68.2,92.025z"/>
	<path style="fill-rule:evenodd;clip-rule:evenodd;fill:#7A6D57;" d="M68.55,106.7c-0.1,0.166-0.133,0.166-0.1,0
		C68.45,106.434,68.483,106.434,68.55,106.7z"/>
	<path style="fill-rule:evenodd;clip-rule:evenodd;fill:#7A6D57;" d="M71.1,109.9c0.542-0.256,0.842-0.206,0.9,0.149
		c0.01-0.068,0.077-0.202,0.2-0.399l0.2-0.351c0.167,0.033,0.283,0.15,0.35,0.351c0.033,0.233,0.133,0.333,0.3,0.3
		c-0.066-0.066-0.05-0.334,0.05-0.8c0.233,0.267,0.367,0.25,0.4-0.051c-0.1-0.566,0.5-0.366,1.8,0.601
		c1.233,0.899,1.633,1.533,1.2,1.899c0.233-0.166,0.3-0.199,0.2-0.1c-0.06,0.119-0.118,0.161-0.175,0.125
		c0.311,0.259,0.336,0.584,0.075,0.975c-0.3,0.367-0.633,0.434-1,0.2c0.5,0.7,0.1,1.351-1.2,1.95c-1.433,0.667-2.15,1.116-2.15,1.35
		c0.033-1.267-0.083-1.949-0.35-2.05c-0.2,0.7-0.333,1.3-0.4,1.8c-0.033,0.067-0.267-0.083-0.7-0.449c0,0.833-0.783,0.55-2.35-0.851
		c0.333,0.167,0.417,0.084,0.25-0.25c-0.567,0.3-0.967,1.066-1.2,2.3c-0.267,1.334-0.55,2.117-0.85,2.351
		c0.13-0.078,0.239-0.129,0.325-0.15c0.055-0.106,0.071-0.106,0.05,0h0.025c0.687-1.175,1.97-1.325,3.85-0.45
		c1.934,0.9,2.883,2.067,2.85,3.5c-1.3-1.566-2.883-2.033-4.75-1.399c-2.033,0.666-3.333,0.767-3.9,0.3
		c-0.667,0.066-0.917-0.866-0.75-2.8c0.267-1.934,0.383-2.934,0.35-3l0.85,0.6c0.034-0.133,0.367-0.916,1-2.35
		c0.5-1.101,0.684-1.851,0.55-2.25c0.167,0,0.383,0.083,0.65,0.25c0.2,0.166,0.4,0.2,0.6,0.1c0.167-2.066,0.217-3.1,0.15-3.1
		c0.595-0.389,0.878-0.655,0.85-0.8c0.211,0.2,0.336,0.334,0.375,0.399c0.098,0.066,0.189,0.15,0.275,0.25
		c0.2,0.233,0.233,0.434,0.1,0.601c-0.367-0.434-0.65-0.467-0.85-0.101c0.467,0.134,0.717,0.434,0.75,0.9c0.033,0.6,0.2,1,0.5,1.2
		C70.333,110.417,70.533,110.167,71.1,109.9z"/>
	<path style="fill-rule:evenodd;clip-rule:evenodd;fill:#7A6D57;" d="M67.75,128.85c-0.5-0.1-0.683-0.366-0.55-0.8
		c-0.3,0.566-0.583,1.25-0.85,2.05c-0.3,0.867-0.35,1.284-0.15,1.25c0.233,0.034,0.433,0.017,0.6-0.05
		c0.067,0.033,0.25,0.283,0.55,0.75c0.333-0.366,0.433-0.616,0.3-0.75c-0.2-0.233-0.267-0.483-0.2-0.75
		c0.1-0.033,0.283,0.084,0.55,0.351c0.067-0.034,0.133-0.301,0.2-0.801c0.066-0.366,0.1-0.449,0.1-0.25
		c0.267,0.134,0.467-0.1,0.6-0.699C68.4,129.017,68.017,128.917,67.75,128.85z M72.5,126.7l-0.15-0.15l-0.1-0.075v0.025
		C72.15,126.7,72.233,126.767,72.5,126.7z M71.025,125.225c0.054-0.349,0.095-0.656,0.125-0.925c0.033-0.566-0.017-0.916-0.15-1.05
		c0,0.566-0.05,1.116-0.15,1.65C70.935,125.047,70.994,125.155,71.025,125.225z M71.65,125.25c0.167-0.134,0.184-0.267,0.05-0.4
		c-0.4,0.601-0.4,0.534,0-0.199c-0.421,0.569-0.621,0.72-0.6,0.449c-0.022,0.05-0.047,0.108-0.075,0.176
		c-0.083-0.088-0.242-0.296-0.475-0.625c0.133,0.966,0.133,1.083,0,0.35c-0.033,0.2-0.083,0.2-0.15,0
		c-0.066,0.267-0.133,0.25-0.2-0.05c0,0.046,0.017,0.18,0.05,0.399c0.544,0.378,0.511,0.512-0.1,0.4
		c-0.204-0.042-0.362-0.093-0.475-0.15l-0.025-0.024v0.024c-0.216-0.084-0.282-0.175-0.2-0.274c-0.019,0.005-0.035,0.013-0.05,0.024
		c-0.185,0.135-0.293,0.269-0.325,0.4L69,125.55c-0.167-0.434-0.267-0.633-0.3-0.6c-0.1,0.2,0.033,0.649,0.4,1.35
		c0.566,0.967,1.017,1.617,1.35,1.95c-0.067-0.3,0.133-0.316,0.6-0.05c-0.1-0.267-0.117-0.467-0.05-0.601
		c0.064-0.129,0.173-0.037,0.325,0.275c-0.178-0.388-0.152-0.663,0.075-0.825c0.2-0.133,0.4-0.116,0.6,0.05l-0.3-0.55
		c0.333,0.267,0.333,0.233,0-0.1c0.177-0.055,0.311-0.088,0.4-0.101l-0.2-0.149c0.333,0.1,0.35,0.05,0.05-0.15
		c0.3,0.134,0.433,0.117,0.4-0.05c-0.055-0.165-0.147-0.273-0.275-0.325c0.032,0.001,0.057-0.007,0.075-0.024
		c0.895-0.022,0.978-0.239,0.25-0.65L71.65,125.25z M67,123.4c1-0.634,2.217-1.051,3.65-1.25c3.8-0.534,5.367,0.733,4.7,3.8
		c0.867,1.399-0.483,3.267-4.05,5.6c-0.4,0.233-2.75,1.517-7.05,3.851c-0.467-1.733-0.6-3.551-0.4-5.45
		c0.133-1.733,0.5-3.217,1.1-4.45c-0.063-0.122-0.029-0.239,0.1-0.35c0.067,0.3,0.117,0.333,0.15,0.1
		c0.066-0.366,0.133-0.55,0.2-0.55c-0.033,0.5,0.133,0.75,0.5,0.75C65.567,124.783,65.933,124.1,67,123.4z"/>
</g>
</svg>
