<?xml version="1.0" encoding="iso-8859-1"?>
<!-- Generator: Adobe Illustrator 15.1.0, SVG Export Plug-In . SVG Version: 6.00 Build 0)  -->
<!DOCTYPE svg PUBLIC "-//W3C//DTD SVG 1.1//EN" "http://www.w3.org/Graphics/SVG/1.1/DTD/svg11.dtd">
<svg version="1.1" id="FlashAICB" xmlns="http://www.w3.org/2000/svg" xmlns:xlink="http://www.w3.org/1999/xlink" x="0px" y="0px"
	 width="120.25px" height="169.4px" viewBox="0 0 120.25 169.4" style="enable-background:new 0 0 120.25 169.4;"
	 xml:space="preserve">
<symbol  id="FlashAICB_Assets_x2F_decor_x5F_plants_5_x2F__x3C_Clip_Group_0_x3E_" viewBox="0 -71.397 120.25 71.305">
	<g id="Layer_1_55_">
	</g>
	<g>
		<defs>
			<path id="SVGID_1_" d="M97.95-38.15c-2.767,10.267-5.233,17.933-7.4,23c-2.3,5.267-4.85,9-7.65,11.2c-2.5,2-5.9,3.217-10.2,3.65
				c-1.9,0.167-6.967,0.233-15.2,0.2c-7.467-0.033-12.75-0.267-15.85-0.7c-4.667-0.7-8.383-2.167-11.15-4.4
				c-5.9-4.7-9.967-15.883-12.2-33.55c-0.7-5.633-0.933-10.017-0.7-13.15c0.333-4.167,1.5-7.533,3.5-10.1
				c4.566-5.9,14.983-9.017,31.25-9.35c21.333-0.467,35.367,2.583,42.1,9.15C99.683-57.067,100.85-49.05,97.95-38.15z"/>
		</defs>
		<clipPath id="SVGID_2_">
			<use xlink:href="#SVGID_1_"  style="overflow:visible;"/>
		</clipPath>
		<g id="Layer_3_2_" style="clip-path:url(#SVGID_2_);">
			<g>
				
					<use xlink:href="#FlashAICB_Assets_x2F_decor_x5F_plants_5_x2F__x3C_Path_x3E__x5F_36"  width="52.5" height="2.44" y="-2.44" transform="matrix(1 0 0 1 17.2002 -26.4502)" style="overflow:visible;opacity:0.3008;enable-background:new    ;"/>
				
					<use xlink:href="#FlashAICB_Assets_x2F_decor_x5F_plants_5_x2F__x3C_Path_x3E__x5F_35"  width="52.8" height="3.457" y="-3.457" transform="matrix(1 0 0 1 53.5498 -27.3999)" style="overflow:visible;opacity:0.3008;enable-background:new    ;"/>
				
					<use xlink:href="#FlashAICB_Assets_x2F_decor_x5F_plants_5_x2F__x3C_Path_x3E__x5F_34"  width="53.1" height="3.507" y="-3.507" transform="matrix(1 0 0 1 42.6499 -21.9502)" style="overflow:visible;opacity:0.1016;enable-background:new    ;"/>
				
					<use xlink:href="#FlashAICB_Assets_x2F_decor_x5F_plants_5_x2F__x3C_Path_x3E__x5F_33"  width="52.8" height="3.75" y="-3.75" transform="matrix(1 0 0 1 9.8999 -18.7002)" style="overflow:visible;opacity:0.1992;enable-background:new    ;"/>
				
					<use xlink:href="#FlashAICB_Assets_x2F_decor_x5F_plants_5_x2F__x3C_Path_x3E__x5F_32"  width="28" height="2.607" y="-2.607" transform="matrix(1 0 0 1 69.6504 -24.6499)" style="overflow:visible;opacity:0.3008;enable-background:new    ;"/>
				
					<use xlink:href="#FlashAICB_Assets_x2F_decor_x5F_plants_5_x2F__x3C_Path_x3E__x5F_31"  width="42.1" height="4.007" y="-4.007" transform="matrix(1 0 0 1 19.4502 -10.7998)" style="overflow:visible;opacity:0.3008;enable-background:new    ;"/>
				
					<use xlink:href="#FlashAICB_Assets_x2F_decor_x5F_plants_5_x2F__x3C_Path_x3E__x5F_30"  width="27.6" height="2.76" y="-2.76" transform="matrix(1 0 0 1 13.3999 -23.3501)" style="overflow:visible;opacity:0.3008;enable-background:new    ;"/>
				
					<use xlink:href="#FlashAICB_Assets_x2F_decor_x5F_plants_5_x2F__x3C_Path_x3E__x5F_29"  width="28.45" height="3.057" y="-3.057" transform="matrix(1 0 0 1 61.8496 -10.8501)" style="overflow:visible;opacity:0.3008;enable-background:new    ;"/>
				
					<use xlink:href="#FlashAICB_Assets_x2F_decor_x5F_plants_5_x2F__x3C_Path_x3E__x5F_28"  width="48.45" height="2.24" y="-2.24" transform="matrix(1 0 0 1 38.0498 -9.6001)" style="overflow:visible;opacity:0.3008;enable-background:new    ;"/>
				
					<use xlink:href="#FlashAICB_Assets_x2F_decor_x5F_plants_5_x2F__x3C_Path_x3E__x5F_27"  width="27.7" height="1.45" y="-1.45" transform="matrix(1 0 0 1 29.7002 -6.0498)" style="overflow:visible;opacity:0.1016;enable-background:new    ;"/>
				
					<use xlink:href="#FlashAICB_Assets_x2F_decor_x5F_plants_5_x2F__x3C_Path_x3E__x5F_26"  width="27.8" height="2.982" y="-2.982" transform="matrix(1 0 0 1 58.6499 -5.1001)" style="overflow:visible;opacity:0.3008;enable-background:new    ;"/>
				
					<use xlink:href="#FlashAICB_Assets_x2F_decor_x5F_plants_5_x2F__x3C_Path_x3E__x5F_25"  width="36" height="1.85" y="-1.85" transform="matrix(1 0 0 1 41.75 -2.3501)" style="overflow:visible;opacity:0.3008;enable-background:new    ;"/>
				
					<use xlink:href="#FlashAICB_Assets_x2F_decor_x5F_plants_5_x2F__x3C_Path_x3E__x5F_24"  width="41.6" height="2.71" y="-2.71" transform="matrix(1 0 0 1 11.8999 -30.3999)" style="overflow:visible;opacity:0.1992;enable-background:new    ;"/>
				
					<use xlink:href="#FlashAICB_Assets_x2F_decor_x5F_plants_5_x2F__x3C_Path_x3E__x5F_23"  width="51.8" height="2.05" y="-2.05" transform="matrix(1 0 0 1 27.2002 -37.75)" style="overflow:visible;opacity:0.3008;enable-background:new    ;"/>
				
					<use xlink:href="#FlashAICB_Assets_x2F_decor_x5F_plants_5_x2F__x3C_Path_x3E__x5F_22"  width="52.05" height="3.717" y="-3.717" transform="matrix(1 0 0 1 54.6499 -37.75)" style="overflow:visible;opacity:0.1992;enable-background:new    ;"/>
				
					<use xlink:href="#FlashAICB_Assets_x2F_decor_x5F_plants_5_x2F__x3C_Path_x3E__x5F_21"  width="53.6" height="4.728" y="-4.728" transform="matrix(1 0 0 1 66.6504 -17.0498)" style="overflow:visible;opacity:0.3008;enable-background:new    ;"/>
				
					<use xlink:href="#FlashAICB_Assets_x2F_decor_x5F_plants_5_x2F__x3C_Path_x3E__x5F_20"  width="53.55" height="2.117" y="-2.117" transform="matrix(1 0 0 1 40.3501 -15.8999)" style="overflow:visible;opacity:0.1992;enable-background:new    ;"/>
				
					<use xlink:href="#FlashAICB_Assets_x2F_decor_x5F_plants_5_x2F__x3C_Path_x3E__x5F_19"  width="52.3" height="3.767" y="-3.767" transform="matrix(1 0 0 1 43.7998 -32.5498)" style="overflow:visible;opacity:0.3008;enable-background:new    ;"/>
				
					<use xlink:href="#FlashAICB_Assets_x2F_decor_x5F_plants_5_x2F__x3C_Path_x3E__x5F_18"  width="27.2" height="2.55" y="-2.55" transform="matrix(1 0 0 1 6.5 -33.7002)" style="overflow:visible;opacity:0.3008;enable-background:new    ;"/>
				
					<use xlink:href="#FlashAICB_Assets_x2F_decor_x5F_plants_5_x2F__x3C_Path_x3E__x5F_17"  width="27.05" height="2.51" y="-2.51" transform="matrix(1 0 0 1 13.8501 -39)" style="overflow:visible;opacity:0.1992;enable-background:new    ;"/>
				
					<use xlink:href="#FlashAICB_Assets_x2F_decor_x5F_plants_5_x2F__x3C_Path_x3E__x5F_16"  width="51.4" height="4.054" y="-4.054" transform="matrix(1 0 0 1 47.75 -44.8501)" style="overflow:visible;opacity:0.3008;enable-background:new    ;"/>
				
					<use xlink:href="#FlashAICB_Assets_x2F_decor_x5F_plants_5_x2F__x3C_Path_x3E__x5F_15"  width="51.1" height="1.59" y="-1.59" transform="matrix(1 0 0 1 12.75 -47.1001)" style="overflow:visible;opacity:0.3008;enable-background:new    ;"/>
				
					<use xlink:href="#FlashAICB_Assets_x2F_decor_x5F_plants_5_x2F__x3C_Path_x3E__x5F_14"  width="51.35" height="1.625" y="-1.625" transform="matrix(1 0 0 1 22.7998 -44.25)" style="overflow:visible;opacity:0.3008;enable-background:new    ;"/>
				
					<use xlink:href="#FlashAICB_Assets_x2F_decor_x5F_plants_5_x2F__x3C_Path_x3E__x5F_13"  width="27.15" height="3.62" y="-3.62" transform="matrix(1 0 0 1 70.2002 -41.1001)" style="overflow:visible;opacity:0.1992;enable-background:new    ;"/>
				
					<use xlink:href="#FlashAICB_Assets_x2F_decor_x5F_plants_5_x2F__x3C_Path_x3E__x5F_12"  width="27" height="3.522" y="-3.522" transform="matrix(1 0 0 1 78.5 -46.7998)" style="overflow:visible;opacity:0.1992;enable-background:new    ;"/>
				
					<use xlink:href="#FlashAICB_Assets_x2F_decor_x5F_plants_5_x2F__x3C_Path_x3E__x5F_11"  width="50.7" height="3.904" y="-3.904" transform="matrix(1 0 0 1 48.2998 -54.2998)" style="overflow:visible;opacity:0.1016;enable-background:new    ;"/>
				
					<use xlink:href="#FlashAICB_Assets_x2F_decor_x5F_plants_5_x2F__x3C_Path_x3E__x5F_10"  width="50.6" height="1.567" y="-1.567" transform="matrix(1 0 0 1 7.2998 -53.0498)" style="overflow:visible;opacity:0.1992;enable-background:new    ;"/>
				
					<use xlink:href="#FlashAICB_Assets_x2F_decor_x5F_plants_5_x2F__x3C_Path_x3E__x5F_9"  width="50.9" height="1.625" y="-1.625" transform="matrix(1 0 0 1 13.5498 -49.3999)" style="overflow:visible;opacity:0.3008;enable-background:new    ;"/>
				
					<use xlink:href="#FlashAICB_Assets_x2F_decor_x5F_plants_5_x2F__x3C_Path_x3E__x5F_8"  width="50.25" height="3.2" y="-3.2" transform="matrix(1 0 0 1 4.2002 -54.7998)" style="overflow:visible;opacity:0.1992;enable-background:new    ;"/>
				
					<use xlink:href="#FlashAICB_Assets_x2F_decor_x5F_plants_5_x2F__x3C_Path_x3E__x5F_7"  width="26.8" height="3.472" y="-3.472" transform="matrix(1 0 0 1 70.4004 -51.0498)" style="overflow:visible;opacity:0.3008;enable-background:new    ;"/>
				
					<use xlink:href="#FlashAICB_Assets_x2F_decor_x5F_plants_5_x2F__x3C_Path_x3E__x5F_6"  width="26.75" height="3.47" y="-3.47" transform="matrix(1 0 0 1 81 -55.6001)" style="overflow:visible;opacity:0.1992;enable-background:new    ;"/>
				
					<use xlink:href="#FlashAICB_Assets_x2F_decor_x5F_plants_5_x2F__x3C_Path_x3E__x5F_5"  width="50.2" height="2.81" y="-2.81" transform="matrix(1 0 0 1 49.9502 -63.2002)" style="overflow:visible;opacity:0.3008;enable-background:new    ;"/>
				
					<use xlink:href="#FlashAICB_Assets_x2F_decor_x5F_plants_5_x2F__x3C_Path_x3E__x5F_4_x5F_0"  width="49.85" height="4.079" y="-4.079" transform="matrix(1 0 0 1 9.9502 -57.5)" style="overflow:visible;opacity:0.3008;enable-background:new    ;"/>
				
					<use xlink:href="#FlashAICB_Assets_x2F_decor_x5F_plants_5_x2F__x3C_Path_x3E__x5F_3_x5F_0"  width="49.65" height="4.04" y="-4.04" transform="matrix(1 0 0 1 0 -60.6499)" style="overflow:visible;opacity:0.1992;enable-background:new    ;"/>
				
					<use xlink:href="#FlashAICB_Assets_x2F_decor_x5F_plants_5_x2F__x3C_Path_x3E__x5F_2_x5F_0"  width="49.8" height="1.74" y="-1.74" transform="matrix(1 0 0 1 30.75 -66.1499)" style="overflow:visible;opacity:0.1016;enable-background:new    ;"/>
				
					<use xlink:href="#FlashAICB_Assets_x2F_decor_x5F_plants_5_x2F__x3C_Path_x3E__x5F_1"  width="26.6" height="2.85" y="-2.85" transform="matrix(1 0 0 1 71.9502 -60)" style="overflow:visible;opacity:0.3008;enable-background:new    ;"/>
				
					<use xlink:href="#FlashAICB_Assets_x2F_decor_x5F_plants_5_x2F__x3C_Path_x3E_"  width="26.25" height="2.8" y="-2.8" transform="matrix(1 0 0 1 64.1504 -67.3999)" style="overflow:visible;opacity:0.3008;enable-background:new    ;"/>
			</g>
		</g>
	</g>
	<g id="Layer_4_2_">
	</g>
</symbol>
<symbol  id="FlashAICB_Assets_x2F_decor_x5F_plants_5_x2F__x3C_Clip_Group_0_x3E__x5F_0" viewBox="0 -166.95 97 166.95">
	<g id="Layer_1_49_">
	</g>
	<g>
		<defs>
			<path id="SVGID_3_" d="M82.8-16.7C73.333-5.567,61.9,0,48.5,0C35.133,0,23.7-5.567,14.2-16.7C4.733-27.833,0-41.267,0-57
				s4.733-29.167,14.2-40.3c9.5-11.133,20.933-16.7,34.3-16.7c13.4,0,24.833,5.567,34.3,16.7C92.267-86.2,97-72.767,97-57
				C97-41.267,92.267-27.833,82.8-16.7z"/>
		</defs>
		<clipPath id="SVGID_4_">
			<use xlink:href="#SVGID_3_"  style="overflow:visible;"/>
		</clipPath>
		<g id="Layer_3_1_" style="clip-path:url(#SVGID_4_);">
			<g>
				<g>
					<path style="fill-rule:evenodd;clip-rule:evenodd;fill:#5E4735;" d="M24.2-33.9c0.966,0.933,1.966,1.883,3,2.85
						c2.033,1.966,3.167,3.017,3.4,3.15c2.4-79.667,3.783-120.467,4.15-122.4l-0.4-1.9c-0.3-1.333-0.567-2.15-0.8-2.45L32.9-151
						l-0.05-4.7c-1.233,0.8-2.184,1.534-2.85,2.2c-0.133,10.233-0.983,31.4-2.55,63.5C25.917-58.367,24.833-39.667,24.2-33.9z"/>
					<path style="fill-rule:evenodd;clip-rule:evenodd;fill:#786347;" d="M27.8-35.15c-1.066-0.567-1.867-0.8-2.4-0.7
						c-0.7,0.167-1.1,0.85-1.2,2.05c-0.133,1.4,0.066,2.917,0.6,4.55c0.567,1.733,1.3,2.833,2.2,3.3c0.933,0.5,1.75,0.517,2.45,0.05
						c0.667-0.467,1.066-1.333,1.2-2.6c0.1-1.333-0.117-2.65-0.65-3.95C29.433-33.75,28.7-34.65,27.8-35.15z"/>
					<path style="fill-rule:evenodd;clip-rule:evenodd;fill:#9F7E56;" d="M27.6-32.65c-0.633-0.367-1.1-0.55-1.4-0.55
						c-0.4,0-0.633,0.284-0.7,0.85c-0.067,0.667,0.067,1.4,0.4,2.2c0.333,0.867,0.767,1.45,1.3,1.75c0.533,0.3,1,0.367,1.4,0.2
						c0.4-0.133,0.633-0.5,0.7-1.1c0.067-0.633-0.066-1.267-0.4-1.9C28.567-31.867,28.133-32.35,27.6-32.65z"/>
				</g>
				<g>
					<path style="fill-rule:evenodd;clip-rule:evenodd;fill:#2F241A;" d="M35.95-24.2l3.25,2.65c2.2,1.8,3.417,2.767,3.65,2.9
						c-4-79.6-5.883-120.383-5.65-122.35l-0.55-1.85c-0.433-1.333-0.783-2.15-1.05-2.45l-0.35,3.75l-0.45-4.7
						c-1.167,0.867-2.05,1.667-2.65,2.4c0.7,10.3,1.567,31.467,2.6,63.5C35.717-48.65,36.117-29.933,35.95-24.2z"/>
					<path style="fill-rule:evenodd;clip-rule:evenodd;fill:#483C2B;" d="M41.85-16.55c0.667-0.534,1-1.434,1-2.7
						c0-1.333-0.317-2.633-0.95-3.9c-0.667-1.267-1.467-2.117-2.4-2.55c-1.1-0.5-1.933-0.667-2.5-0.5c-0.667,0.2-1,0.9-1,2.1
						c-0.033,1.367,0.283,2.867,0.95,4.5c0.733,1.7,1.55,2.75,2.45,3.15C40.4-16.017,41.217-16.05,41.85-16.55z"/>
					<path style="fill-rule:evenodd;clip-rule:evenodd;fill:#6F583C;" d="M40.85-18.8c0.367-0.2,0.566-0.6,0.6-1.2
						c0-0.6-0.184-1.217-0.55-1.85c-0.4-0.633-0.867-1.083-1.4-1.35c-1.367-0.667-2.05-0.517-2.05,0.45
						C37.417-22.117,37.6-21.4,38-20.6c0.4,0.867,0.867,1.434,1.4,1.7C40-18.633,40.483-18.6,40.85-18.8z"/>
				</g>
				<g>
					<path style="fill-rule:evenodd;clip-rule:evenodd;fill:#2F241A;" d="M40.6-32c2.033,1.967,3.167,3.017,3.4,3.15
						c2.4-79.667,3.8-120.467,4.2-122.4l-0.4-1.9c-0.333-1.333-0.617-2.15-0.85-2.45l-0.65,3.65l-0.05-4.7
						c-1.233,0.8-2.183,1.533-2.85,2.2c-0.133,10.233-0.983,31.4-2.55,63.5c-1.533,31.633-2.617,50.333-3.25,56.1
						C38.567-33.917,39.567-32.967,40.6-32z"/>
					<path style="fill-rule:evenodd;clip-rule:evenodd;fill:#483C2B;" d="M42.85-26.85c0.7-0.467,1.1-1.333,1.2-2.6
						c0.133-1.3-0.083-2.617-0.65-3.95c-0.533-1.3-1.267-2.2-2.2-2.7c-1.067-0.566-1.867-0.8-2.4-0.7c-0.7,0.167-1.1,0.85-1.2,2.05
						c-0.1,1.4,0.117,2.917,0.65,4.55c0.567,1.733,1.283,2.833,2.15,3.3C41.333-26.4,42.15-26.383,42.85-26.85z"/>
					<path style="fill-rule:evenodd;clip-rule:evenodd;fill:#6F583C;" d="M40.6-29.35c0.533,0.3,1,0.367,1.4,0.2
						c0.433-0.133,0.667-0.5,0.7-1.1c0.066-0.633-0.067-1.267-0.4-1.9c-0.333-0.667-0.767-1.15-1.3-1.45
						c-1.267-0.8-1.95-0.7-2.05,0.3c-0.067,0.633,0.05,1.367,0.35,2.2C39.633-30.233,40.067-29.65,40.6-29.35z"/>
				</g>
				<g>
					<path style="fill-rule:evenodd;clip-rule:evenodd;fill:#2F241A;" d="M49.4-25.15l3.2,2.65c2.2,1.8,3.417,2.767,3.65,2.9
						c-3.967-79.6-5.85-120.367-5.65-122.3l-0.55-1.9c-0.4-1.333-0.733-2.15-1-2.45l-0.35,3.75l-0.45-4.7
						c-1.167,0.867-2.067,1.667-2.7,2.4c0.7,10.2,1.567,31.367,2.6,63.5C49.15-49.667,49.567-30.95,49.4-25.15z"/>
					<path style="fill-rule:evenodd;clip-rule:evenodd;fill:#483C2B;" d="M52.9-26.65c-1.1-0.5-1.933-0.667-2.5-0.5
						c-0.667,0.2-1,0.9-1,2.1c0,1.4,0.333,2.9,1,4.5c0.7,1.7,1.5,2.75,2.4,3.15c1,0.433,1.817,0.4,2.45-0.1
						c0.667-0.533,1-1.433,1-2.7c0.033-1.333-0.267-2.633-0.9-3.9C54.683-25.367,53.867-26.217,52.9-26.65z"/>
					<path style="fill-rule:evenodd;clip-rule:evenodd;fill:#6F583C;" d="M52.9-24.15c-0.667-0.3-1.15-0.45-1.45-0.45
						c-0.4,0.033-0.6,0.333-0.6,0.9c0,0.633,0.183,1.35,0.55,2.15c0.4,0.867,0.867,1.433,1.4,1.7c0.6,0.267,1.083,0.3,1.45,0.1
						c0.4-0.2,0.6-0.6,0.6-1.2c0-0.6-0.184-1.216-0.55-1.85C53.9-23.433,53.433-23.883,52.9-24.15z"/>
				</g>
				<g>
					<path style="fill-rule:evenodd;clip-rule:evenodd;fill:#2F241A;" d="M46.9-60.5l5.15,4.9c1.967-65.367,3.1-98.833,3.4-100.4
						l-0.35-1.55c-0.233-1.1-0.45-1.784-0.65-2.05l-0.55,3l-0.05-3.85c-1,0.633-1.767,1.233-2.3,1.8
						c-0.1,8.367-0.783,25.75-2.05,52.15C48.267-80.6,47.4-65.267,46.9-60.5z"/>
					<path style="fill-rule:evenodd;clip-rule:evenodd;fill:#483C2B;" d="M49.8-61.5c-1.8-1.033-2.767-0.683-2.9,1.05
						c-0.1,1.133,0.067,2.383,0.5,3.75c0.467,1.467,1.05,2.383,1.75,2.75c0.767,0.4,1.417,0.417,1.95,0.05
						c0.566-0.4,0.9-1.133,1-2.2c0.1-1.066-0.067-2.133-0.5-3.2C51.133-60.367,50.533-61.1,49.8-61.5z"/>
					<path style="fill-rule:evenodd;clip-rule:evenodd;fill:#6F583C;" d="M49.65-59.5c-1.066-0.6-1.633-0.5-1.7,0.3
						c-0.067,0.5,0.033,1.083,0.3,1.75c0.3,0.733,0.65,1.217,1.05,1.45c0.434,0.267,0.817,0.333,1.15,0.2
						c0.333-0.133,0.517-0.45,0.55-0.95c0.067-0.5-0.033-1.017-0.3-1.55C50.433-58.867,50.083-59.267,49.65-59.5z"/>
				</g>
				<g>
					<path style="fill-rule:evenodd;clip-rule:evenodd;fill:#2F241A;" d="M55.4-98.65c0.8,25.933,1.133,41.3,1,46.1L61.95-48
						c-3.233-65.333-4.75-98.783-4.55-100.35l-0.45-1.55c-0.367-1.1-0.65-1.767-0.85-2l-0.25,3.05l-0.4-3.85
						c-0.934,0.733-1.65,1.383-2.15,1.95C53.867-142.417,54.567-125.05,55.4-98.65z"/>
					<path style="fill-rule:evenodd;clip-rule:evenodd;fill:#483C2B;" d="M57.2-48.8c0.566,1.433,1.216,2.316,1.95,2.65
						c0.8,0.367,1.467,0.333,2-0.1s0.8-1.183,0.8-2.25c0-1.1-0.25-2.15-0.75-3.15c-0.534-1.067-1.184-1.767-1.95-2.1
						c-0.9-0.4-1.567-0.533-2-0.4c-0.533,0.133-0.817,0.7-0.85,1.7C56.4-51.317,56.667-50.1,57.2-48.8z"/>
					<path style="fill-rule:evenodd;clip-rule:evenodd;fill:#6F583C;" d="M59.15-48.2c0.467,0.233,0.867,0.267,1.2,0.1
						c0.3-0.167,0.45-0.483,0.45-0.95c0.034-0.5-0.1-1.017-0.4-1.55c-0.333-0.533-0.717-0.9-1.15-1.1
						c-1.1-0.533-1.65-0.417-1.65,0.35c-0.033,0.533,0.1,1.133,0.4,1.8C58.333-48.85,58.717-48.4,59.15-48.2z"/>
				</g>
				<g>
					<path style="fill-rule:evenodd;clip-rule:evenodd;fill:#5E4735;" d="M78.8-48.45c-0.7-5.4-2.1-22.95-4.2-52.65
						c-2.133-30.2-3.35-50.1-3.65-59.7c-0.667-0.633-1.583-1.317-2.75-2.05l0.05,4.45l-0.7-3.45c-0.2,0.3-0.45,1.083-0.75,2.35
						l-0.35,1.8c0.4,1.8,2.55,40.133,6.45,115c0.2-0.133,1.25-1.133,3.15-3C76.983-46.633,77.9-47.55,78.8-48.45z"/>
					<path style="fill-rule:evenodd;clip-rule:evenodd;fill:#786347;" d="M78.8-48.35c-0.1-1.133-0.483-1.767-1.15-1.9
						c-0.533-0.067-1.3,0.167-2.3,0.7c-0.833,0.466-1.5,1.333-2,2.6c-0.5,1.233-0.684,2.467-0.55,3.7
						c0.133,1.167,0.534,1.983,1.2,2.45c0.667,0.4,1.433,0.367,2.3-0.1c0.833-0.434,1.5-1.5,2-3.2
						C78.767-45.633,78.933-47.05,78.8-48.35z"/>
					<path style="fill-rule:evenodd;clip-rule:evenodd;fill:#9F7E56;" d="M75.6-47.25c-0.5,0.3-0.9,0.767-1.2,1.4
						c-0.267,0.6-0.383,1.2-0.35,1.8c0.067,0.566,0.3,0.917,0.7,1.05s0.85,0.067,1.35-0.2c0.467-0.267,0.85-0.833,1.15-1.7
						c0.3-0.767,0.417-1.45,0.35-2.05C77.5-47.817,76.833-47.917,75.6-47.25z"/>
				</g>
				<g>
					<path style="fill-rule:evenodd;clip-rule:evenodd;fill:#2F241A;" d="M67.85-39.15c-0.267-5.3-0.25-22.9,0.05-52.8
						c0.333-30.033,0.717-49.95,1.15-59.75c-0.566-0.667-1.417-1.417-2.55-2.25l-0.3,4.45l-0.4-3.5c-0.233,0.3-0.55,1.067-0.95,2.3
						l-0.5,1.8c0.267,1.8-0.684,40.167-2.85,115.1c0.233-0.1,1.367-1.017,3.4-2.75C65.9-37.45,66.883-38.317,67.85-39.15z"/>
					<path style="fill-rule:evenodd;clip-rule:evenodd;fill:#483C2B;" d="M64.5-40.45c-0.9,0.434-1.633,1.25-2.2,2.45
						c-0.6,1.2-0.883,2.417-0.85,3.65c0.033,1.2,0.367,2.05,1,2.55c0.633,0.466,1.4,0.483,2.3,0.05c0.867-0.4,1.617-1.417,2.25-3.05
						c0.6-1.534,0.883-2.95,0.85-4.25c-0.033-1.133-0.383-1.784-1.05-1.95C66.3-41.133,65.533-40.95,64.5-40.45z"/>
					<path style="fill-rule:evenodd;clip-rule:evenodd;fill:#6F583C;" d="M64.55-38.1c-0.5,0.233-0.933,0.667-1.3,1.3
						c-0.333,0.566-0.5,1.15-0.5,1.75c0.033,0.566,0.233,0.933,0.6,1.1c0.367,0.167,0.816,0.117,1.35-0.15
						c0.5-0.233,0.933-0.767,1.3-1.6c0.367-0.733,0.533-1.4,0.5-2C66.467-38.633,65.817-38.767,64.55-38.1z"/>
				</g>
				<g>
					<path style="fill-rule:evenodd;clip-rule:evenodd;fill:#2F241A;" d="M66.1-49.1c-0.7-5.367-2.1-22.933-4.2-52.7
						c-2.1-30.067-3.316-49.967-3.65-59.7c-0.667-0.633-1.583-1.317-2.75-2.05l0.05,4.5l-0.7-3.5c-0.2,0.3-0.45,1.083-0.75,2.35
						l-0.35,1.8c0.4,1.8,2.55,40.133,6.45,115c0.2-0.133,1.25-1.117,3.15-2.95C64.283-47.283,65.2-48.2,66.1-49.1z"/>
					<path style="fill-rule:evenodd;clip-rule:evenodd;fill:#483C2B;" d="M66.1-49.05c-0.1-1.1-0.483-1.717-1.15-1.85
						c-0.534-0.067-1.3,0.167-2.3,0.7c-0.867,0.467-1.533,1.333-2,2.6c-0.5,1.2-0.683,2.417-0.55,3.65
						c0.133,1.2,0.533,2.017,1.2,2.45c0.667,0.433,1.434,0.417,2.3-0.05c0.833-0.467,1.5-1.534,2-3.2
						C66.067-46.283,66.233-47.717,66.1-49.05z"/>
					<path style="fill-rule:evenodd;clip-rule:evenodd;fill:#6F583C;" d="M62.9-47.9c-0.5,0.3-0.9,0.767-1.2,1.4
						c-0.267,0.6-0.383,1.2-0.35,1.8c0.066,0.534,0.3,0.883,0.7,1.05c0.367,0.133,0.817,0.05,1.35-0.25
						c0.467-0.3,0.85-0.85,1.15-1.65c0.267-0.767,0.367-1.45,0.3-2.05C64.783-48.533,64.133-48.633,62.9-47.9z"/>
				</g>
				<g>
					<path style="fill-rule:evenodd;clip-rule:evenodd;fill:#5E4735;" d="M55.15-39.8c-0.267-5.4-0.25-23.017,0.05-52.85
						c0.3-30.133,0.683-50.05,1.15-59.75c-0.567-0.667-1.417-1.4-2.55-2.2l-0.35,4.45l-0.4-3.5c-0.233,0.3-0.533,1.066-0.9,2.3
						l-0.5,1.75c0.267,1.833-0.7,40.217-2.9,115.15c0.267-0.133,1.417-1.066,3.45-2.8C53.2-38.117,54.183-38.967,55.15-39.8z"/>
					<path style="fill-rule:evenodd;clip-rule:evenodd;fill:#786347;" d="M51.8-41.1c-0.9,0.4-1.65,1.2-2.25,2.4
						c-0.566,1.2-0.833,2.417-0.8,3.65c0.033,1.2,0.367,2.05,1,2.55c0.633,0.467,1.4,0.483,2.3,0.05c0.867-0.367,1.617-1.367,2.25-3
						c0.6-1.5,0.883-2.917,0.85-4.25c-0.033-1.133-0.383-1.783-1.05-1.95C53.6-41.783,52.833-41.6,51.8-41.1z"/>
					<path style="fill-rule:evenodd;clip-rule:evenodd;fill:#9F7E56;" d="M51.85-38.8c-0.5,0.267-0.934,0.7-1.3,1.3
						c-0.333,0.6-0.5,1.183-0.5,1.75c0.034,0.567,0.233,0.933,0.6,1.1c0.367,0.2,0.817,0.167,1.35-0.1c0.5-0.267,0.933-0.8,1.3-1.6
						c0.367-0.767,0.534-1.45,0.5-2.05c-0.033-0.5-0.233-0.767-0.6-0.8C52.9-39.233,52.45-39.1,51.85-38.8z"/>
				</g>
				<g>
					<path style="fill-rule:evenodd;clip-rule:evenodd;fill:#2F241A;" d="M56.8-73.1c-0.566-4.5-1.7-18.917-3.4-43.25
						c-1.733-24.8-2.717-41.117-2.95-48.95c-0.534-0.5-1.284-1.05-2.25-1.65l0.05,3.65l-0.55-2.85c-0.2,0.233-0.4,0.867-0.6,1.9
						l-0.3,1.5c0.333,1.467,2.083,32.917,5.25,94.35L56.8-73.1z"/>
					<path style="fill-rule:evenodd;clip-rule:evenodd;fill:#483C2B;" d="M54.05-74c-0.7,0.4-1.25,1.1-1.65,2.1
						c-0.4,1.033-0.55,2.05-0.45,3.05c0.133,1,0.466,1.667,1,2c0.533,0.367,1.15,0.35,1.85-0.05c0.667-0.367,1.2-1.233,1.6-2.6
						c0.367-1.267,0.5-2.433,0.4-3.5c-0.1-0.933-0.4-1.45-0.9-1.55C55.467-74.617,54.85-74.433,54.05-74z"/>
					<path style="fill-rule:evenodd;clip-rule:evenodd;fill:#6F583C;" d="M54.25-72.1c-0.4,0.233-0.733,0.617-1,1.15
						c-0.233,0.5-0.317,1-0.25,1.5c0.067,0.434,0.25,0.717,0.55,0.85c0.3,0.133,0.65,0.067,1.05-0.2c0.4-0.233,0.733-0.7,1-1.4
						c0.2-0.633,0.267-1.183,0.2-1.65c-0.033-0.433-0.2-0.65-0.5-0.65C55.067-72.5,54.717-72.367,54.25-72.1z"/>
				</g>
				<g>
					<path style="fill-rule:evenodd;clip-rule:evenodd;fill:#5E4735;" d="M38.7-55.95c-0.233-4.4-0.217-18.85,0.05-43.35
						c0.233-24.7,0.533-41.05,0.9-49.05c-0.5-0.533-1.2-1.133-2.1-1.8l-0.25,3.65l-0.3-2.9c-0.2,0.233-0.45,0.867-0.75,1.9
						l-0.4,1.45c0.2,1.5-0.567,33-2.3,94.5L38.7-55.95z"/>
					<path style="fill-rule:evenodd;clip-rule:evenodd;fill:#786347;" d="M36-57c-0.733,0.333-1.35,0.983-1.85,1.95
						c-0.467,1-0.683,2.017-0.65,3.05c0.033,0.967,0.317,1.65,0.85,2.05c0.5,0.4,1.117,0.417,1.85,0.05c0.7-0.3,1.3-1.117,1.8-2.45
						c0.5-1.267,0.717-2.433,0.65-3.5c-0.033-0.933-0.3-1.467-0.8-1.6C37.45-57.55,36.833-57.4,36-57z"/>
					<path style="fill-rule:evenodd;clip-rule:evenodd;fill:#9F7E56;" d="M36-55.1c-0.433,0.2-0.783,0.55-1.05,1.05
						c-0.267,0.466-0.383,0.95-0.35,1.45c0,0.467,0.15,0.767,0.45,0.9c0.3,0.133,0.667,0.1,1.1-0.1c0.4-0.233,0.75-0.667,1.05-1.3
						c0.3-0.633,0.433-1.2,0.4-1.7C37.567-55.533,37.033-55.633,36-55.1z"/>
				</g>
			</g>
		</g>
	</g>
	<g id="Layer_4_1_">
	</g>
</symbol>
<symbol  id="FlashAICB_Assets_x2F_decor_x5F_plants_5_x2F__x3C_Group_x3E_" viewBox="-0.017 -5.362 4.151 5.365">
	<g id="Layer_1_44_">
		<g>
			
				<linearGradient id="SVGID_5_" gradientUnits="userSpaceOnUse" x1="17026.0586" y1="-852.7109" x2="17031.4121" y2="-852.7109" gradientTransform="matrix(-0.1027 0.9947 -0.9947 -0.1027 903.3818 -17028.8789)">
				<stop  offset="0.1333" style="stop-color:#856D21;stop-opacity:0"/>
				<stop  offset="0.2863" style="stop-color:#8B793E;stop-opacity:0.3412"/>
				<stop  offset="0.451" style="stop-color:#918356;stop-opacity:0.6314"/>
				<stop  offset="0.6196" style="stop-color:#948A68;stop-opacity:0.8353"/>
				<stop  offset="0.8" style="stop-color:#978E72;stop-opacity:0.9529"/>
				<stop  offset="1" style="stop-color:#988F76"/>
			</linearGradient>
			<path style="fill-rule:evenodd;clip-rule:evenodd;fill:url(#SVGID_5_);" d="M4.1-2.45C4.2-3.183,4.083-3.833,3.75-4.4
				c-0.367-0.567-0.833-0.883-1.4-0.95C1.783-5.417,1.267-5.2,0.8-4.7C0.333-4.2,0.067-3.583,0-2.85S0.067-1.467,0.4-0.9
				C0.767-0.367,1.233-0.067,1.8,0c0.567,0.033,1.067-0.183,1.5-0.65C3.767-1.117,4.033-1.717,4.1-2.45z"/>
			
				<linearGradient id="SVGID_6_" gradientUnits="userSpaceOnUse" x1="-758.5781" y1="-15370.916" x2="-755.1353" y2="-15370.916" gradientTransform="matrix(0.1017 -0.9948 0.9948 0.1017 15370.2969 807.0293)">
				<stop  offset="0.1333" style="stop-color:#856D21;stop-opacity:0"/>
				<stop  offset="0.2863" style="stop-color:#8B793E;stop-opacity:0.3412"/>
				<stop  offset="0.451" style="stop-color:#918356;stop-opacity:0.6314"/>
				<stop  offset="0.6196" style="stop-color:#948A68;stop-opacity:0.8353"/>
				<stop  offset="0.8" style="stop-color:#978E72;stop-opacity:0.9529"/>
				<stop  offset="1" style="stop-color:#988F76"/>
			</linearGradient>
			<path style="fill-rule:evenodd;clip-rule:evenodd;fill:url(#SVGID_6_);" d="M0.75-2.8C0.717-2.333,0.8-1.917,1-1.55
				c0.233,0.367,0.533,0.566,0.9,0.6c0.367,0.034,0.7-0.1,1-0.4c0.3-0.333,0.467-0.733,0.5-1.2C3.467-3.017,3.383-3.433,3.15-3.8
				s-0.533-0.567-0.9-0.6s-0.7,0.1-1,0.4C0.983-3.667,0.817-3.267,0.75-2.8z"/>
		</g>
	</g>
</symbol>
<symbol  id="FlashAICB_Assets_x2F_decor_x5F_plants_5_x2F__x3C_Path_x3E_" viewBox="0 -2.8 26.25 2.8">
	<g id="Layer_1_41_">
		<path style="fill-rule:evenodd;clip-rule:evenodd;fill:#947E34;" d="M26.25,0c-0.6-0.633-2.233-1.083-4.9-1.35
			c-4.867-0.566-7.833-0.883-8.9-0.95c-2.2-0.3-4-0.467-5.4-0.5C5.65-2.8,3.3-2.65,0-2.35c4.267-0.2,6.65-0.1,7.15,0.3
			c0.3,0.267,1.233,0.417,2.8,0.45c3.133,0.1,4.933,0.167,5.4,0.2C18.183-1.167,21.817-0.7,26.25,0z"/>
	</g>
</symbol>
<symbol  id="FlashAICB_Assets_x2F_decor_x5F_plants_5_x2F__x3C_Path_x3E__x5F_0" viewBox="0.104 -68.95 23.046 68.95">
	<g id="Layer_1_43_">
		<path style="fill-rule:evenodd;clip-rule:evenodd;fill:#B2A98C;" d="M0.8-37.75c1.7,13.333,4.284,22.767,7.75,28.3
			c3.167,5.1,8.034,8.25,14.6,9.45c-2.533-2.533-4.566-6.683-6.1-12.45c-1.6-5.9-2.933-14.35-4-25.35
			c-0.833-8.567-0.95-14.883-0.35-18.95c0.767-5.567,2.95-9.633,6.55-12.2C10.017-67.183,4.167-63.5,1.7-57.9
			C-0.067-53.867-0.367-47.15,0.8-37.75z"/>
	</g>
</symbol>
<symbol  id="FlashAICB_Assets_x2F_decor_x5F_plants_5_x2F__x3C_Path_x3E__x5F_1" viewBox="0 -2.85 26.6 2.85">
	<g id="Layer_1_40_">
		<path style="fill-rule:evenodd;clip-rule:evenodd;fill:#947E34;" d="M26.6,0c-0.633-0.6-2.3-1.05-5-1.35c-4.9-0.6-7.9-0.933-9-1
			c-2.2-0.3-4.017-0.467-5.45-0.5c-1.433,0-3.816,0.167-7.15,0.5c4.3-0.233,6.717-0.133,7.25,0.3c0.3,0.233,1.25,0.367,2.85,0.4
			c2.8,0.1,4.617,0.183,5.45,0.25C18.417-1.167,22.1-0.7,26.6,0z"/>
	</g>
</symbol>
<symbol  id="FlashAICB_Assets_x2F_decor_x5F_plants_5_x2F__x3C_Path_x3E__x5F_10" viewBox="0 -1.567 50.6 1.567">
	<g id="Layer_1_31_">
		<path style="fill-rule:evenodd;clip-rule:evenodd;fill:#947E34;" d="M50.6-0.05c-0.3-0.2-0.934-0.4-1.9-0.6
			c-1.934-0.367-4.5-0.567-7.7-0.6c-9.367-0.2-15.067-0.283-17.1-0.25c-0.833,0.033-2.45,0.017-4.85-0.05
			c-2.233-0.034-4.1-0.017-5.6,0.05C10.717-1.333,6.233-0.833,0,0c8.1-0.8,12.683-0.95,13.75-0.45c0.6,0.3,2.417,0.383,5.45,0.25
			c5.7-0.267,9.15-0.4,10.35-0.4C35.017-0.633,42.033-0.45,50.6-0.05z"/>
	</g>
</symbol>
<symbol  id="FlashAICB_Assets_x2F_decor_x5F_plants_5_x2F__x3C_Path_x3E__x5F_11" viewBox="0 -3.904 50.7 3.904">
	<g id="Layer_1_30_">
		<path style="fill-rule:evenodd;clip-rule:evenodd;fill:#947E34;" d="M50.7,0c-0.3-0.2-0.934-0.433-1.9-0.7
			c-1.9-0.5-4.45-0.867-7.65-1.1C29.917-2.733,24.2-3.2,24-3.2c-4.267-0.433-7.767-0.667-10.5-0.7C10.8-3.933,6.3-3.75,0-3.35
			c8.167-0.233,12.75-0.066,13.75,0.5c0.6,0.3,2.4,0.5,5.4,0.6c5.667,0.133,9.15,0.233,10.45,0.3C35.067-1.617,42.1-0.967,50.7,0z"
			/>
	</g>
</symbol>
<symbol  id="FlashAICB_Assets_x2F_decor_x5F_plants_5_x2F__x3C_Path_x3E__x5F_12" viewBox="0 -3.522 27 3.522">
	<g id="Layer_1_29_">
		<path style="fill-rule:evenodd;clip-rule:evenodd;fill:#947E34;" d="M27,0c-0.6-0.667-2.267-1.183-5-1.55
			c-5-0.767-8.05-1.2-9.15-1.3C10.583-3.25,8.733-3.467,7.3-3.5C5.833-3.567,3.4-3.483,0-3.25c4.4-0.1,6.85,0.083,7.35,0.55
			c0.3,0.267,1.267,0.434,2.9,0.5c3.033,0.2,4.883,0.333,5.55,0.4C18.733-1.467,22.467-0.867,27,0z"/>
	</g>
</symbol>
<symbol  id="FlashAICB_Assets_x2F_decor_x5F_plants_5_x2F__x3C_Path_x3E__x5F_13" viewBox="0 -3.62 27.15 3.62">
	<g id="Layer_1_28_">
		<path style="fill-rule:evenodd;clip-rule:evenodd;fill:#947E34;" d="M27.15,0c-0.6-0.667-2.267-1.2-5-1.6
			c-5.033-0.767-8.1-1.2-9.2-1.3c-2.267-0.4-4.133-0.633-5.6-0.7C5.883-3.667,3.433-3.567,0-3.3c4.433-0.1,6.9,0.083,7.4,0.55
			c0.3,0.233,1.267,0.417,2.9,0.55c2.9,0.167,4.767,0.3,5.6,0.4C18.833-1.467,22.583-0.867,27.15,0z"/>
	</g>
</symbol>
<symbol  id="FlashAICB_Assets_x2F_decor_x5F_plants_5_x2F__x3C_Path_x3E__x5F_14" viewBox="0 -1.625 51.35 1.625">
	<g id="Layer_1_27_">
		<path style="fill-rule:evenodd;clip-rule:evenodd;fill:#947E34;" d="M51.35-0.05c-0.333-0.2-0.983-0.4-1.95-0.6
			c-1.933-0.367-4.533-0.567-7.8-0.6C32.067-1.483,26.267-1.567,24.2-1.5c-4.333-0.167-7.867-0.167-10.6,0
			C10.867-1.367,6.333-0.867,0,0c8.233-0.833,12.883-0.983,13.95-0.45c0.633,0.3,2.466,0.383,5.5,0.25
			c5.8-0.267,9.316-0.4,10.55-0.4C35.533-0.633,42.65-0.45,51.35-0.05z"/>
	</g>
</symbol>
<symbol  id="FlashAICB_Assets_x2F_decor_x5F_plants_5_x2F__x3C_Path_x3E__x5F_15" viewBox="0 -1.59 51.1 1.59">
	<g id="Layer_1_26_">
		<path style="fill-rule:evenodd;clip-rule:evenodd;fill:#947E34;" d="M51.1-0.05c-0.333-0.2-0.983-0.4-1.95-0.6
			c-1.933-0.367-4.517-0.567-7.75-0.6c-9.467-0.2-15.233-0.283-17.3-0.25c-0.767,0.033-2.4,0.017-4.9-0.05
			c-2.233-0.067-4.117-0.05-5.65,0.05C10.817-1.333,6.3-0.833,0,0c8.2-0.8,12.833-0.95,13.9-0.45c0.633,0.3,2.467,0.383,5.5,0.25
			c5.733-0.267,9.217-0.4,10.45-0.4C35.35-0.633,42.433-0.45,51.1-0.05z"/>
	</g>
</symbol>
<symbol  id="FlashAICB_Assets_x2F_decor_x5F_plants_5_x2F__x3C_Path_x3E__x5F_16" viewBox="0 -4.054 51.4 4.054">
	<g id="Layer_1_25_">
		<path style="fill-rule:evenodd;clip-rule:evenodd;fill:#947E34;" d="M51.4,0c-0.3-0.233-0.933-0.483-1.9-0.75
			c-1.9-0.533-4.483-0.917-7.75-1.15c-9.533-0.867-15.333-1.35-17.4-1.45c-4.333-0.433-7.867-0.667-10.6-0.7
			C10.983-4.083,6.4-3.9,0-3.5C8.3-3.733,12.95-3.567,13.95-3c0.6,0.333,2.433,0.533,5.5,0.6c5.5,0.133,9.033,0.25,10.6,0.35
			C35.583-1.717,42.7-1.033,51.4,0z"/>
	</g>
</symbol>
<symbol  id="FlashAICB_Assets_x2F_decor_x5F_plants_5_x2F__x3C_Path_x3E__x5F_17" viewBox="0 -2.51 27.05 2.51">
	<g id="Layer_1_24_">
		<path style="fill-rule:evenodd;clip-rule:evenodd;fill:#947E34;" d="M19.65-1.7c0.5-0.4,2.967-0.433,7.4-0.1
			c-3.433-0.467-5.883-0.7-7.35-0.7c-0.833-0.033-1.833,0.017-3,0.15c-1.333,0.167-2.184,0.25-2.55,0.25C9.35-1.667,6.3-1.4,5-1.3
			C2.267-1.067,0.6-0.633,0,0c4.533-0.633,8.267-1.033,11.2-1.2c0.733-0.033,2.6-0.066,5.6-0.1C18.4-1.3,19.35-1.433,19.65-1.7z"/>
	</g>
</symbol>
<symbol  id="FlashAICB_Assets_x2F_decor_x5F_plants_5_x2F__x3C_Path_x3E__x5F_18" viewBox="0 -2.55 27.2 2.55">
	<g id="Layer_1_23_">
		<path style="fill-rule:evenodd;clip-rule:evenodd;fill:#947E34;" d="M19.75-1.7c0.533-0.433,3.017-0.483,7.45-0.15
			c-3.434-0.433-5.883-0.667-7.35-0.7c-0.833,0-1.85,0.066-3.05,0.2c-1.3,0.133-2.167,0.2-2.6,0.2c-0.8,0.033-3.85,0.316-9.15,0.85
			C2.283-1.1,0.6-0.667,0,0c4.567-0.633,8.317-1.033,11.25-1.2c0.733-0.033,2.6-0.066,5.6-0.1C18.483-1.3,19.45-1.433,19.75-1.7z"/>
	</g>
</symbol>
<symbol  id="FlashAICB_Assets_x2F_decor_x5F_plants_5_x2F__x3C_Path_x3E__x5F_19" viewBox="0 -3.767 52.3 3.767">
	<g id="Layer_1_22_">
		<path style="fill-rule:evenodd;clip-rule:evenodd;fill:#947E34;" d="M32.5-2.75c-2.667-0.067-4.333-0.133-5-0.2
			c-1.2-0.1-4.067-0.233-8.6-0.4c-5.133-0.2-8.15-0.316-9.05-0.35c-3.3-0.133-5.934-0.066-7.9,0.2C0.983-3.333,0.333-3.167,0-3
			c8.8,0.067,16,0.283,21.6,0.65c1.4,0.1,4.983,0.434,10.75,1c3.133,0.3,5.017,0.317,5.65,0.05c1.1-0.434,5.867,0,14.3,1.3
			c-6.5-1.233-11.15-2.017-13.95-2.35C36.717-2.55,34.767-2.683,32.5-2.75z"/>
	</g>
</symbol>
<symbol  id="FlashAICB_Assets_x2F_decor_x5F_plants_5_x2F__x3C_Path_x3E__x5F_1_x5F_0" viewBox="0 -69.55 24.798 69.55">
	<g id="Layer_1_42_">
		<path style="fill-rule:evenodd;clip-rule:evenodd;fill:#B2A98C;" d="M9.65-37.65c-1.6,11.333-3.1,19.767-4.5,25.3
			C3.683-6.517,1.967-2.4,0,0c5.467-0.967,9.767-3.95,12.9-8.95c3.133-5.066,6.567-14.6,10.3-28.6c2.3-8.633,2.117-15.367-0.55-20.2
			c-3.3-6.033-10.7-9.967-22.2-11.8c4.8,2.767,7.883,7.083,9.25,12.95C10.8-51.767,10.783-45.45,9.65-37.65z"/>
	</g>
</symbol>
<symbol  id="FlashAICB_Assets_x2F_decor_x5F_plants_5_x2F__x3C_Path_x3E__x5F_1_x5F_1" viewBox="-0.001 -17.069 54.151 17.049">
	<g id="Layer_1_46_">
		
			<linearGradient id="SVGID_7_" gradientUnits="userSpaceOnUse" x1="16120.2256" y1="-16294.168" x2="16174.3818" y2="-16294.168" gradientTransform="matrix(-0.9999 -0.011 0.011 -0.9999 16352.7314 -16124.0088)">
			<stop  offset="0" style="stop-color:#91864C"/>
			<stop  offset="1" style="stop-color:#FFFFFF"/>
		</linearGradient>
		<path style="fill-rule:evenodd;clip-rule:evenodd;fill:url(#SVGID_7_);" d="M46.2-14.7c-4.767-1.433-11.167-2.216-19.2-2.35
			c-8-0.133-14.367,0.433-19.1,1.7C2.667-13.95,0.033-11.8,0-8.9c-0.033,3.2,1.567,5.4,4.8,6.6c3.633,1.333,10.767,2.083,21.4,2.25
			C37.067,0.117,44.5-0.4,48.5-1.6c3.733-1.133,5.617-3.267,5.65-6.4C54.183-10.9,51.533-13.133,46.2-14.7z"/>
	</g>
</symbol>
<symbol  id="FlashAICB_Assets_x2F_decor_x5F_plants_5_x2F__x3C_Path_x3E__x5F_1_x5F_2" viewBox="0.07 -9.7 5.936 9.708">
	<g id="Layer_1_53_">
		<g>
			<g>
				<path style="fill-rule:evenodd;clip-rule:evenodd;fill:#C3AA82;" d="M5.1-1.5L4.95-1.4L5-1.35c0,0.043-0.017,0.068-0.05,0.075
					c-0.067-0.012-0.1-0.003-0.1,0.025l0.1,0.05L4.7-1.15v0.05C4.667-1.033,4.617-1.017,4.55-1.05v0.2
					c-0.033-0.1-0.066-0.183-0.1-0.25C4.384-1.034,4.334-1.017,4.3-1.05c0.033,0.034,0.033,0.101,0,0.2l-0.05,0.1v0.05l-0.1-0.1
					c0-0.2-0.017-0.3-0.05-0.3L4-0.95l0.1-0.3L4.05-1.2L4.1-1.3C4.033-1.367,3.967-1.35,3.9-1.25C3.933-1.217,3.917-1.2,3.85-1.2
					v-0.1H3.8l0.1-0.1v-0.15c0-0.05,0-0.1,0-0.15L3.8-1.65c0.034-0.133,0-0.184-0.1-0.15l0.05-0.05c0-0.033-0.033-0.033-0.1,0v-0.1
					c-0.007-0.133-0.04-0.2-0.1-0.2l0.1-0.15l-0.1,0.05H3.5c0.033-0.067,0.017-0.1-0.05-0.1L3.35-2.3c0-0.034,0.017-0.067,0.05-0.1
					v-0.05L3.45-2.5c0-0.047-0.017-0.064-0.05-0.05v0.05L3.375-2.525L3.4-2.55V-2.7l0.05,0.1c0.066,0.1,0.133,0.117,0.2,0.05
					C3.716-2.616,3.766-2.632,3.8-2.6L3.75-2.65c0.133,0.066,0.333,0.1,0.6,0.1L4.3-2.75c0.034,0.033,0.083,0.1,0.15,0.2
					c0-0.1,0.033-0.083,0.1,0.05C4.583-2.567,4.6-2.533,4.6-2.4l0.05-0.1C4.717-2.533,4.733-2.517,4.7-2.45L4.75-2.4
					c0.029,0,0.054,0.017,0.075,0.05C4.858-2.383,4.883-2.417,4.9-2.45L5-1.75L5.1-1.7c0,0.067-0.033,0.1-0.1,0.1l0.1,0.05V-1.5z
					 M5.4-3.15c-0.333-0.267-0.683-0.4-1.05-0.4c0.1,0.1,0.1,0.15,0,0.15L4.3-3.5v0.05C4.233-3.517,4.217-3.567,4.25-3.6
					c-0.3-0.033-0.6,0.05-0.9,0.25C3.266-3.292,3.191-3.233,3.125-3.175C3.128-3.225,3.103-3.25,3.05-3.25l-0.1,0.1
					c-0.067,0-0.083-0.017-0.05-0.05c0.067-0.066,0.067-0.1,0-0.1l0.15-0.05C3.083-3.417,3.067-3.433,3-3.4
					c0-0.067,0.017-0.1,0.05-0.1C3.021-3.644,2.946-3.71,2.825-3.7L2.85-3.75H2.8C2.76-3.742,2.726-3.725,2.7-3.7
					c0.133-0.133,0.166-0.217,0.1-0.25c-0.033,0.034-0.05,0.034-0.05,0L2.8-4c0-0.067-0.083-0.05-0.25,0.05l0.1-0.1H2.5
					C2.564-4.052,2.581-4.069,2.55-4.1L2.5-4.15h0.15l0.05-0.1H2.6c0.066-0.067,0.083-0.1,0.05-0.1L2.6-4.3H2.5
					c0.015-0.015,0.032-0.032,0.05-0.05h-0.1l0.1-0.05H2.5c0.067-0.033,0.1-0.083,0.1-0.15L2.5-4.6v0.05
					c-0.033-0.067-0.033-0.117,0-0.15v0.05l0.05-0.1H2.3c0.1-0.067,0.167-0.1,0.2-0.1c0-0.133-0.05-0.2-0.15-0.2l0.1-0.05
					c0-0.167-0.067-0.267-0.2-0.3H2.3c0.067-0.133,0.034-0.2-0.1-0.2l0.1-0.05C2.2-5.617,2.15-5.633,2.15-5.7
					c0.1-0.066,0.117-0.1,0.05-0.1c0.054-0.073,0.054-0.123,0-0.15L2.05-5.9L2.2-6L1.95-6.05c0.133-0.133,0.167-0.3,0.1-0.5L2-6.5
					C1.96-6.52,1.952-6.537,1.975-6.55L1.85-6.5c-0.033,0,0-0.05,0.1-0.15C1.983-6.683,2-6.683,2-6.65l0.05-0.1L1.85-6.7L1.9-6.75
					c-0.167,0.133-0.3,0.2-0.4,0.2V-6.6l0.1-0.05c0-0.026,0.05-0.067,0.15-0.125C1.743-6.825,1.727-6.85,1.7-6.85l0.2-0.1L1.75-6.9
					L1.95-7C2.05-7.033,2.067-7.067,2-7.1C1.833-7,1.717-6.967,1.65-7l0.3-0.15L1.75-7.1c0.088-0.066,0.113-0.099,0.075-0.1H1.7
					c0-0.066-0.017-0.1-0.05-0.1l0.1-0.1l0.075,0.05C1.827-7.369,1.852-7.402,1.9-7.45L1.8-7.4l0.1-0.1
					c0-0.067-0.066-0.083-0.2-0.05L1.65-7.5H1.6l0.25-0.15c0-0.033-0.017-0.05-0.05-0.05L1.7-7.6H1.55c0.1-0.1,0.167-0.133,0.2-0.1
					c0-0.063-0.033-0.063-0.1,0l0.1-0.1H1.5L1.15-7.7c0-0.033,0.017-0.05,0.05-0.05c0.133,0,0.267-0.067,0.4-0.2
					c0-0.033-0.05-0.033-0.15,0c-0.1,0-0.1-0.033,0-0.1h0.1c0.133-0.067,0.167-0.1,0.1-0.1c-0.122,0-0.222,0.033-0.3,0.1
					c0.033-0.027,0.05-0.027,0.05,0C1.267-7.983,1.2-7.967,1.2-8c0-0.067,0.033-0.1,0.1-0.1c0.066-0.033,0.099-0.033,0.1,0
					c0-0.034-0.017-0.067-0.05-0.1l0.1-0.05c0,0.1,0.05,0.1,0.15,0C1.533-8.283,1.55-8.333,1.65-8.4L1.5-8.35
					c0.067,0.033,0.033,0.067-0.1,0.1c0.033-0.067,0.033-0.1,0-0.1v0.05c-0.132,0-0.182-0.017-0.15-0.05
					C1.232-8.333,1.199-8.316,1.15-8.3c-0.033-0.034-0.133-0.017-0.3,0.05c0-0.033,0.017-0.05,0.05-0.05l0.2-0.05
					c-0.033-0.066-0.017-0.133,0.05-0.2C1.051-8.55,1.001-8.533,1-8.5c0-0.1-0.034-0.167-0.1-0.2c0.133-0.033,0.2-0.066,0.2-0.1
					l0.125-0.025C1.266-8.875,1.258-8.9,1.2-8.9c0,0.033-0.117,0.083-0.35,0.15c0.066-0.067,0.033-0.083-0.1-0.05L0.85-9
					C0.817-9.033,0.8-9.117,0.8-9.25L0.55-9.2c0-0.023,0.017-0.04,0.05-0.05C0.516-9.306,0.524-9.348,0.625-9.375L0.5-9.35L0.55-9.4
					L0.4-9.35v-0.1h0.1c0.033-0.066,0.017-0.133-0.05-0.2L0.4-9.6v-0.1H0.35l-0.2,0.15C0.217-9.583,0.283-9.6,0.35-9.6
					c0.066,0,0.066,0.033,0,0.1L0.325-9.55L0.15-9.45L0.125-9.475L0.1-9.4h0.15c-0.2,0.066-0.233,0.1-0.1,0.1c0.1,0,0.1,0.066,0,0.2
					l0.2-0.2l0.1,0.1L0.2-9.05L0.3-9.1L0.15-8.95L0.3-8.7h0.1C0.333-8.667,0.3-8.633,0.3-8.6v0.1c0,0.167,0.05,0.25,0.15,0.25
					c0,0.267,0.017,0.433,0.05,0.5L0.6-7.8h0.05L0.5-7.65C0.6-7.617,0.583-7.533,0.45-7.4h0.1c-0.033,0.033,0,0.1,0.1,0.2h0.1L0.6-7
					c0,0.1,0.05,0.15,0.15,0.15c-0.067,0.1-0.083,0.2-0.05,0.3C0.733-6.383,0.75-6.267,0.75-6.2l0.1-0.05
					c-0.067,0.1-0.067,0.217,0,0.35C0.883-5.767,0.9-5.667,0.9-5.6l0.2-0.1c0.1,0.1,0.05,0.15-0.15,0.15
					c0.033,0.033,0.066,0.083,0.1,0.15C1.017-5.333,1-5.283,1-5.25c0.067,0.033,0.1,0.1,0.1,0.2L1.2-5.1
					c0,0.067-0.034,0.117-0.1,0.15c0.033,0,0.066,0.05,0.1,0.15c0,0.066,0.033,0.117,0.1,0.15l-0.1,0.1C1.3-4.483,1.333-4.4,1.3-4.3
					c-0.033,0.066,0,0.133,0.1,0.2C1.5-4,1.55-3.933,1.55-3.9c0.1,0.333,0.167,0.583,0.2,0.75L1.8-3.2
					C1.768-3.166,1.784-3.133,1.85-3.1c0.066,0.033,0.066,0.083,0,0.15c0.033,0,0.066,0.017,0.1,0.05
					c0.116,0.058,0.158,0.125,0.125,0.2c0.044,0.04,0.078,0.106,0.1,0.2C1.923-1.831,1.748-1.431,1.65-1.3l0.5-0.05
					c0.133-0.033,0.233-0.117,0.3-0.25C2.496-1.691,2.545-1.749,2.6-1.775C2.635-1.792,2.668-1.8,2.7-1.8
					c0.031,0.004,0.031,0.037,0,0.1c0.033,0,0.033,0.017,0,0.05c0.133-0.033,0.183-0.033,0.15,0l-0.1,0.1
					c0.133,0.066,0.2,0.117,0.2,0.15L3-1.45C3.033-1.317,3-1.167,2.9-1l0.45,0.55l0.25,0.2C3.933-0.083,4.167,0,4.3,0
					c0.3,0.033,0.6-0.033,0.9-0.2c0.367-0.3,0.617-0.667,0.75-1.1c0.1-0.434,0.066-0.85-0.1-1.25c-0.167-0.1-0.283-0.233-0.35-0.4
					L5.45-2.9C5.515-2.968,5.499-3.052,5.4-3.15z M3.325-2.575l-0.05,0.05L3.25-2.6C3.28-2.6,3.305-2.592,3.325-2.575z"/>
			</g>
		</g>
	</g>
</symbol>
<symbol  id="FlashAICB_Assets_x2F_decor_x5F_plants_5_x2F__x3C_Path_x3E__x5F_2" viewBox="0.013 -71.397 81.989 71.305">
	<g id="Layer_1_4_">
		
			<linearGradient id="SVGID_8_" gradientUnits="userSpaceOnUse" x1="16175.6963" y1="-15.894" x2="16247.0713" y2="-15.894" gradientTransform="matrix(1.401051e-005 1 -1 -0.001 24.8862 -16247.1074)">
			<stop  offset="0" style="stop-color:#988F76"/>
			<stop  offset="0.0588" style="stop-color:#AFA895"/>
			<stop  offset="0.1569" style="stop-color:#D1CEC2"/>
			<stop  offset="0.2431" style="stop-color:#EAE9E3"/>
			<stop  offset="0.3137" style="stop-color:#F9F9F8"/>
			<stop  offset="0.3608" style="stop-color:#FFFFFF"/>
			<stop  offset="0.5176" style="stop-color:#E7E5D8"/>
			<stop  offset="0.8588" style="stop-color:#ABA276"/>
			<stop  offset="1" style="stop-color:#91864C"/>
		</linearGradient>
		<path style="fill-rule:evenodd;clip-rule:evenodd;fill:url(#SVGID_8_);" d="M80.45-38.15c2.9-10.9,1.733-18.917-3.5-24.05
			c-6.733-6.566-20.767-9.617-42.1-9.15C18.583-71.017,8.167-67.9,3.6-62c-2,2.567-3.167,5.933-3.5,10.1
			c-0.233,3.133,0,7.517,0.7,13.15C3.033-21.083,7.1-9.9,13-5.2c2.767,2.233,6.483,3.7,11.15,4.4c3.1,0.433,8.383,0.667,15.85,0.7
			c8.233,0.033,13.3-0.033,15.2-0.2c4.3-0.434,7.7-1.65,10.2-3.65c2.8-2.2,5.35-5.933,7.65-11.2
			C75.217-20.217,77.683-27.883,80.45-38.15z"/>
	</g>
</symbol>
<symbol  id="FlashAICB_Assets_x2F_decor_x5F_plants_5_x2F__x3C_Path_x3E__x5F_20" viewBox="0 -2.117 53.55 2.117">
	<g id="Layer_1_21_">
		<path style="fill-rule:evenodd;clip-rule:evenodd;fill:#947E34;" d="M33.2-2.05c-2.6,0.033-4.317,0.033-5.15,0
			c-1.3-0.067-4.233-0.083-8.8-0.05C14.383-2.067,11.3-2.05,10-2.05C6.633-2.083,3.967-1.9,2-1.5C1-1.3,0.333-1.1,0-0.9
			c9-0.3,16.383-0.383,22.15-0.25c1.567,0.033,5.233,0.217,11,0.55c3.2,0.2,5.117,0.15,5.75-0.15C39.967-1.283,44.85-1.033,53.55,0
			c-6.7-1.033-11.5-1.667-14.4-1.9C37.517-2,35.533-2.05,33.2-2.05z"/>
	</g>
</symbol>
<symbol  id="FlashAICB_Assets_x2F_decor_x5F_plants_5_x2F__x3C_Path_x3E__x5F_21" viewBox="0 -4.728 53.6 4.728">
	<g id="Layer_1_20_">
		<path style="fill-rule:evenodd;clip-rule:evenodd;fill:#947E34;" d="M0-4.05c9,0.233,16.383,0.6,22.15,1.1
			c1.5,0.133,5.167,0.534,11,1.2c3.2,0.367,5.117,0.417,5.75,0.15c1.133-0.467,6.033,0.067,14.7,1.6c-6.667-1.4-11.45-2.3-14.35-2.7
			c-1.633-0.2-3.617-0.367-5.95-0.5c-2.733-0.133-4.45-0.233-5.15-0.3c-9.5-0.567-15.533-0.933-18.1-1.1C6.683-4.8,4-4.767,2-4.5
			C1-4.367,0.333-4.217,0-4.05z"/>
	</g>
</symbol>
<symbol  id="FlashAICB_Assets_x2F_decor_x5F_plants_5_x2F__x3C_Path_x3E__x5F_22" viewBox="0 -3.717 52.05 3.717">
	<g id="Layer_1_19_">
		<path style="fill-rule:evenodd;clip-rule:evenodd;fill:#947E34;" d="M32.35-2.75c-2.6-0.067-4.267-0.133-5-0.2
			c-1.267-0.1-4.117-0.233-8.55-0.4c-4.767-0.167-7.767-0.267-9-0.3c-3.267-0.133-5.883-0.067-7.85,0.2
			C0.983-3.283,0.333-3.117,0-2.95C8.733-2.883,15.9-2.667,21.5-2.3c1.6,0.1,5.167,0.417,10.7,0.95c3.1,0.3,4.966,0.317,5.6,0.05
			c1.067-0.434,5.817,0,14.25,1.3C45.55-1.233,40.9-2.017,38.1-2.35C36.5-2.517,34.583-2.65,32.35-2.75z"/>
	</g>
</symbol>
<symbol  id="FlashAICB_Assets_x2F_decor_x5F_plants_5_x2F__x3C_Path_x3E__x5F_23" viewBox="0 -2.05 51.8 2.05">
	<g id="Layer_1_18_">
		<path style="fill-rule:evenodd;clip-rule:evenodd;fill:#947E34;" d="M51.8-0.65C45.267-1.45,40.6-1.9,37.8-2
			c-1.633-0.067-3.55-0.067-5.75,0c-2.8,0.1-4.45,0.15-4.95,0.15c-1.2-0.033-4.033,0.033-8.5,0.2C13.5-1.483,10.517-1.4,9.65-1.4
			C6.383-1.333,3.8-1.083,1.9-0.65C0.933-0.417,0.3-0.2,0,0c8.7-0.533,15.833-0.817,21.4-0.85c1.467,0,5.017,0.083,10.65,0.25
			c3.1,0.067,4.95-0.05,5.55-0.35c0.633-0.333,3.2-0.383,7.7-0.15C47.533-1,49.7-0.85,51.8-0.65z"/>
	</g>
</symbol>
<symbol  id="FlashAICB_Assets_x2F_decor_x5F_plants_5_x2F__x3C_Path_x3E__x5F_24" viewBox="0 -2.71 41.6 2.71">
	<g id="Layer_1_17_">
		<path style="fill-rule:evenodd;clip-rule:evenodd;fill:#947E34;" d="M0,0c4.567-0.667,8.317-1.1,11.25-1.3
			c1.3-0.1,5.3-0.034,12,0.2c5.867,0.2,8.933,0.184,9.2-0.05C32.95-1.583,36-1.8,41.6-1.8c-13-0.6-20.25-0.9-21.75-0.9
			c-0.867-0.033-1.867,0.017-3,0.15c-1.5,0.2-2.383,0.3-2.65,0.3c-0.4,0-3.467,0.3-9.2,0.9C2.267-1.117,0.6-0.667,0,0z"/>
	</g>
</symbol>
<symbol  id="FlashAICB_Assets_x2F_decor_x5F_plants_5_x2F__x3C_Path_x3E__x5F_25" viewBox="0 -1.85 36 1.85">
	<g id="Layer_1_16_">
		<path style="fill-rule:evenodd;clip-rule:evenodd;fill:#947E34;" d="M26.15-0.65C26.917-1.15,30.2-0.933,36,0
			c-4.467-0.933-7.667-1.5-9.6-1.7c-1.066-0.1-2.4-0.15-4-0.15c-1.733,0.033-2.883,0.033-3.45,0c-6.4,0.033-10.467,0.033-12.2,0
			c-2.233,0-4.033,0.167-5.4,0.5C0.683-1.15,0.233-0.967,0-0.8C6.067-1.067,11.033-1.133,14.9-1c1.2,0.033,3.667,0.2,7.4,0.5
			C24.433-0.333,25.717-0.383,26.15-0.65z"/>
	</g>
</symbol>
<symbol  id="FlashAICB_Assets_x2F_decor_x5F_plants_5_x2F__x3C_Path_x3E__x5F_26" viewBox="0 -2.982 27.8 2.982">
	<g id="Layer_1_15_">
		<path style="fill-rule:evenodd;clip-rule:evenodd;fill:#947E34;" d="M27.8,0c-3.4-0.967-5.833-1.567-7.3-1.8
			c-0.867-0.167-1.9-0.284-3.1-0.35c-1.433-0.067-2.316-0.117-2.65-0.15c-0.667-0.067-2.2-0.167-4.6-0.3
			C7.283-2.767,5.667-2.867,5.3-2.9C2.5-3.1,0.733-2.933,0-2.4c4.7,0.066,8.55,0.25,11.55,0.55c0.667,0.067,2.55,0.333,5.65,0.8
			C18.867-0.817,19.883-0.8,20.25-1C20.85-1.367,23.367-1.033,27.8,0z"/>
	</g>
</symbol>
<symbol  id="FlashAICB_Assets_x2F_decor_x5F_plants_5_x2F__x3C_Path_x3E__x5F_27" viewBox="0 -1.45 27.7 1.45">
	<g id="Layer_1_14_">
		<path style="fill-rule:evenodd;clip-rule:evenodd;fill:#947E34;" d="M20.25-1.4c-0.833-0.067-1.85-0.067-3.05,0
			c-1.333,0.066-2.217,0.1-2.65,0.1C9.65-1.133,6.533-1.033,5.2-1C2.4-0.933,0.667-0.6,0,0c4.667-0.367,8.483-0.55,11.45-0.55
			c0.8,0,2.7,0.066,5.7,0.2c1.667,0.1,2.667,0.033,3-0.2c0.533-0.4,3.05-0.3,7.55,0.3C24.233-0.883,21.75-1.267,20.25-1.4z"/>
	</g>
</symbol>
<symbol  id="FlashAICB_Assets_x2F_decor_x5F_plants_5_x2F__x3C_Path_x3E__x5F_28" viewBox="0 -2.24 48.45 2.24">
	<g id="Layer_1_13_">
		<path style="fill-rule:evenodd;clip-rule:evenodd;fill:#947E34;" d="M25.4-2.1c-1.133-0.033-3.783,0.017-7.95,0.15
			C12.417-1.783,9.617-1.7,9.05-1.7C6.017-1.667,3.6-1.367,1.8-0.8C0.9-0.533,0.3-0.267,0,0c8.133-0.6,14.8-0.867,20-0.8
			c1.4,0,4.733,0.15,10,0.45c2.9,0.167,4.633,0.05,5.2-0.35c0.966-0.7,5.383-0.5,13.25,0.6C42.35-1.233,38-1.917,35.4-2.15
			c-1.467-0.1-3.25-0.117-5.35-0.05C27.65-2.1,26.1-2.067,25.4-2.1z"/>
	</g>
</symbol>
<symbol  id="FlashAICB_Assets_x2F_decor_x5F_plants_5_x2F__x3C_Path_x3E__x5F_29" viewBox="0 -3.057 28.45 3.057">
	<g id="Layer_1_12_">
		<path style="fill-rule:evenodd;clip-rule:evenodd;fill:#947E34;" d="M28.45,0c-3.467-1-5.967-1.633-7.5-1.9
			c-0.867-0.167-1.917-0.283-3.15-0.35c-1.433-0.067-2.333-0.117-2.7-0.15c-0.667-0.067-2.233-0.167-4.7-0.3
			C7.467-2.867,5.817-2.967,5.45-3C2.583-3.167,0.767-2.967,0-2.4c4.833,0.066,8.767,0.233,11.8,0.5
			c0.733,0.066,2.667,0.333,5.8,0.8c1.7,0.233,2.733,0.25,3.1,0.05C21.333-1.417,23.917-1.067,28.45,0z"/>
	</g>
</symbol>
<symbol  id="FlashAICB_Assets_x2F_decor_x5F_plants_5_x2F__x3C_Path_x3E__x5F_2_x5F_0" viewBox="0 -1.74 49.8 1.74">
	<g id="Layer_1_39_">
		<path style="fill-rule:evenodd;clip-rule:evenodd;fill:#947E34;" d="M49.8-0.6c-0.333-0.167-0.966-0.35-1.9-0.55
			c-1.933-0.333-4.467-0.5-7.6-0.5c-9.267-0.1-14.9-0.117-16.9-0.05c-0.767,0.034-2.35,0.034-4.75,0c-2.2,0-4.033,0.05-5.5,0.15
			C10.483-1.383,6.1-0.867,0,0c7.933-0.867,12.433-1.067,13.5-0.6c0.633,0.267,2.433,0.333,5.4,0.2
			c5.6-0.267,8.983-0.417,10.15-0.45C34.417-0.95,41.333-0.867,49.8-0.6z"/>
	</g>
</symbol>
<symbol  id="FlashAICB_Assets_x2F_decor_x5F_plants_5_x2F__x3C_Path_x3E__x5F_2_x5F_1" viewBox="0 -5.8 3.3 5.8">
	<g id="Layer_1_52_">
		<g>
			<g>
				<path style="fill-rule:evenodd;clip-rule:evenodd;fill:#C3AA82;" d="M3.1-0.35L3-0.7v-0.1l0.1,0.15c0-0.1,0.033-0.117,0.1-0.05
					L3.15-0.95l0.05,0.1l0.025-0.075L3.25-0.9l-0.1-0.15h0.075L3.2-1.1l0.05,0.05H3.225L3.25-1.025
					C3.277-0.989,3.293-0.997,3.3-1.05V-1.1L3.1-1.3c-0.033-0.046-0.05-0.046-0.05,0C3.017-1.333,3-1.333,3-1.3l0.15,0.2L3.1-1
					L3-1.25v0.05C2.967-1.3,2.933-1.333,2.9-1.3L2.85-1.25l0.05,0.1c-0.066-0.1-0.1-0.133-0.1-0.1C2.733-1.317,2.7-1.3,2.7-1.2
					L2.55-1.3c-0.022,0.044-0.039,0.044-0.05,0v-0.025C2.498-1.433,2.481-1.424,2.45-1.3L2.4-1.2l0.05-0.25L2.4-1.35l0.05-0.2
					L2.35-1.5c0.1-0.1,0.117-0.15,0.05-0.15C2.433-1.717,2.417-1.733,2.35-1.7L2.4-1.75c-0.033,0-0.033-0.017,0-0.05L2.25-1.75
					c0.033-0.033,0.083-0.067,0.15-0.1C2.467-1.883,2.45-1.9,2.35-1.9l0.1-0.05L2.4-2c0.067-0.067,0.033-0.117-0.1-0.15
					C2.367-2.217,2.383-2.3,2.35-2.4H2.3c0.033-0.001,0.033-0.018,0-0.05C2.236-2.482,2.245-2.499,2.325-2.5H2.25
					C2.317-2.533,2.333-2.567,2.3-2.6H2.25C2.283-2.633,2.267-2.667,2.2-2.7H2.1l0.1-0.05l0.1-0.3C2.2-3.083,2.133-3.1,2.1-3.1H2
					l0.15-0.05L2.05-3.2h-0.1l0.3-0.15V-4.1c-0.2-0.433-0.333-0.667-0.4-0.7C1.757-4.769,1.707-4.777,1.7-4.825
					C1.76-4.881,1.777-4.923,1.75-4.95L1.6-5.2L1.55-5.15H1.5l0.1-0.1C1.533-5.45,1.3-5.6,0.9-5.7c-0.033,0.034-0.1,0-0.2-0.1
					C0.367-5.7,0.133-5.683,0-5.75L0.05-5.3c0.034,0.133,0.067,0.2,0.1,0.2c0.067-0.033,0.1-0.017,0.1,0.05
					c0.067-0.1,0.1-0.133,0.1-0.1C0.317-5.017,0.417-5,0.65-5.1L0.7-5.15c0.033,0,0.033,0.05,0,0.15l0.05-0.1L0.7-4.95L0.8-5.1
					L0.75-5c-0.067,0.1-0.067,0.15,0,0.15c0.033,0,0.05,0.017,0.05,0.05l0.05-0.05v0.3l0.1-0.1L0.85-4.5
					c0.066-0.067,0.066-0.05,0,0.05H0.9L0.85-4.4l0.1-0.05c0.033,0,0.033,0.017,0,0.05v0.05L0.925-4.325L1.1-4.4
					C1.067-4.333,1.083-4.233,1.15-4.1l0.1-0.05L1.2-4.05L1.25-4.1c0.03,0,0.022,0.025-0.025,0.075L1.3-4.1L1.25-4H1.3L1.25-3.95
					L1.35-4c0.045,0,0.045,0.017,0,0.05c-0.067,0.035-0.1,0.085-0.1,0.15c0.033,0,0.033,0.017,0,0.05H1.4l-0.2,0.1L1.25-3.6
					l0.2-0.05h0.1L1.3-3.5l0.2-0.05l-0.3,0.1h0.1L1.2-3.4h0.2L1.35-3.35C1.326-3.326,1.292-3.309,1.25-3.3l-0.2,0.1h0.1
					c0.067,0,0.083,0.034,0.05,0.1C1.133-3.033,1.117-2.983,1.15-2.95c0.067-0.033,0.067-0.017,0,0.05h0.1L1.2-2.85H1.05
					c0.067,0.001,0.1,0.019,0.1,0.05c0.033,0.033,0,0.05-0.1,0.05l0.1,0.05L1.1-2.65h0.05L1.1-2.6h0.2L1.1-2.55l0.075,0.025
					C1.204-2.53,1.229-2.521,1.25-2.5c0.133,0,0.133,0.017,0,0.05h-0.2c0.067,0.002,0.1,0.019,0.1,0.05h-0.1
					c-0.054,0.081-0.021,0.131,0.1,0.15H1.3c0.067,0,0,0.033-0.2,0.1h0.05L1.05-2.1L1.3-2.15L1.2-2.1h0.15l-0.1,0.05H1.2L1.1-2
					c0.066-0.032,0.1-0.032,0.1,0l0.05,0.05H1.3L1.2-1.9h0.05L1.1-1.85h0.1l-0.1,0.1h0.25L1.15-1.7v0.05
					C1.117-1.617,1.133-1.6,1.2-1.6L1.15-1.55v0.1c0,0.023,0.017,0.04,0.05,0.05C1.133-1.333,1.15-1.3,1.25-1.3L1.2-1.25
					c0.133-0.067,0.167-0.067,0.1,0L1.25-1.2H1.3C1.233-1.133,1.217-1.1,1.25-1.1l0.1-0.05l-0.1,0.1l0.2-0.05
					c-0.133,0.2-0.133,0.333,0,0.4L1.6-0.8L1.55-0.65c0-0.033-0.017-0.033-0.05,0v0.1L1.65-0.7L1.9-1v0.05L2-1.1L1.85-0.85
					c0,0.02-0.017,0.053-0.05,0.1c0.021,0.005,0.021,0.038,0,0.1L1.75-0.6c0,0.099-0.033,0.149-0.1,0.15
					c0.066,0,0.083,0.034,0.05,0.1L1.85-0.6l-0.1,0.3l0.1-0.15v0.05L1.9-0.45l-0.05,0.1l0.1-0.1c0,0.133,0.017,0.133,0.05,0v0.15
					C1.999-0.364,1.965-0.347,1.9-0.25c0.033-0.033,0.05,0,0.05,0.1L2-0.25v0.1L2.05-0.2L2-0.1c0.033,0.033,0.067-0.017,0.1-0.15
					v-0.1c0.033-0.033,0.05-0.033,0.05,0L2.1-0.1c0.033,0.033,0.05,0.033,0.05,0v-0.1l0.1-0.15L2.2-0.1l0.05-0.15v0.15L2.4-0.3v-0.4
					l0.05,0.1v0.45c0.033-0.3,0.066-0.35,0.1-0.15c0,0.069-0.008,0.119-0.025,0.15C2.554-0.147,2.579-0.114,2.6-0.05l-0.05-0.3V-0.5
					L2.6-0.4v0.1c0.032,0,0.049-0.017,0.05-0.05v0.25c0.033-0.033,0.067,0,0.1,0.1v-0.15C2.717-0.083,2.7-0.117,2.7-0.25
					c0-0.033,0.017-0.033,0.05,0c0-0.167,0.017-0.217,0.05-0.15C2.795-0.496,2.779-0.529,2.75-0.5v-0.25l0.05,0.2l0.1,0.1L2.85-0.6
					c0.066,0.067,0.1,0.05,0.1-0.05l0.1,0.2L3.075-0.3L3.1-0.35z M2.7,0L2.65-0.1v0.05L2.7,0z M1.75-0.7v0.05
					c0.022-0.034,0.039-0.067,0.05-0.1L1.75-0.7z"/>
			</g>
		</g>
	</g>
</symbol>
<symbol  id="FlashAICB_Assets_x2F_decor_x5F_plants_5_x2F__x3C_Path_x3E__x5F_3" viewBox="0.013 -71.397 81.989 71.305">
	<g id="Layer_1_3_">
		<linearGradient id="SVGID_9_" gradientUnits="userSpaceOnUse" x1="0.0127" y1="-35.7441" x2="82.0877" y2="-35.7441">
			<stop  offset="0" style="stop-color:#988F76"/>
			<stop  offset="0.0784" style="stop-color:#AFA895"/>
			<stop  offset="0.2078" style="stop-color:#D1CEC2"/>
			<stop  offset="0.3255" style="stop-color:#EAE9E3"/>
			<stop  offset="0.4196" style="stop-color:#F9F9F8"/>
			<stop  offset="0.4863" style="stop-color:#FFFFFF"/>
			<stop  offset="0.6078" style="stop-color:#E7E5D8"/>
			<stop  offset="0.8863" style="stop-color:#ABA276"/>
			<stop  offset="1" style="stop-color:#91864C"/>
		</linearGradient>
		<path style="fill-rule:evenodd;clip-rule:evenodd;fill:url(#SVGID_9_);" d="M80.45-38.15c2.9-10.9,1.733-18.917-3.5-24.05
			c-6.733-6.566-20.767-9.617-42.1-9.15C18.583-71.017,8.167-67.9,3.6-62c-2,2.567-3.167,5.933-3.5,10.1
			c-0.233,3.133,0,7.517,0.7,13.15C3.033-21.083,7.1-9.9,13-5.2c2.767,2.233,6.483,3.7,11.15,4.4c3.1,0.433,8.383,0.667,15.85,0.7
			c8.233,0.033,13.3-0.033,15.2-0.2c4.3-0.434,7.7-1.65,10.2-3.65c2.8-2.2,5.35-5.933,7.65-11.2
			C75.217-20.217,77.683-27.883,80.45-38.15z"/>
	</g>
</symbol>
<symbol  id="FlashAICB_Assets_x2F_decor_x5F_plants_5_x2F__x3C_Path_x3E__x5F_30" viewBox="0 -2.76 27.6 2.76">
	<g id="Layer_1_11_">
		<path style="fill-rule:evenodd;clip-rule:evenodd;fill:#947E34;" d="M0,0c4.633-0.7,8.433-1.15,11.4-1.35
			c0.9-0.066,2.8-0.117,5.7-0.15c1.667-0.033,2.65-0.167,2.95-0.4c0.5-0.467,3.017-0.533,7.55-0.2c-3.5-0.433-6-0.65-7.5-0.65
			c-0.867-0.033-1.883,0.017-3.05,0.15c-1.566,0.2-2.45,0.3-2.65,0.3c-0.267,0-3.367,0.3-9.3,0.9C3.367-1.233,2-0.95,1-0.55
			C0.5-0.35,0.167-0.167,0,0z"/>
	</g>
</symbol>
<symbol  id="FlashAICB_Assets_x2F_decor_x5F_plants_5_x2F__x3C_Path_x3E__x5F_31" viewBox="0 -4.007 42.1 4.007">
	<g id="Layer_1_10_">
		<path style="fill-rule:evenodd;clip-rule:evenodd;fill:#947E34;" d="M21.95-3.4c-1,0.033-3.3,0.233-6.9,0.6
			c-4.367,0.433-6.8,0.667-7.3,0.7C5.117-1.867,3.033-1.45,1.5-0.85C0.733-0.55,0.233-0.267,0,0c7.067-1.033,12.867-1.667,17.4-1.9
			c1.133-0.067,4.033-0.117,8.7-0.15c2.533-0.034,4.033-0.25,4.5-0.65c0.767-0.667,4.6-0.733,11.5-0.2
			C36.733-3.6,32.917-3.967,30.65-4c-1.333-0.033-2.9,0.05-4.7,0.25C23.817-3.55,22.483-3.433,21.95-3.4z"/>
	</g>
</symbol>
<symbol  id="FlashAICB_Assets_x2F_decor_x5F_plants_5_x2F__x3C_Path_x3E__x5F_32" viewBox="0 -2.607 28 2.607">
	<g id="Layer_1_9_">
		<path style="fill-rule:evenodd;clip-rule:evenodd;fill:#947E34;" d="M28,0c-3.433-0.933-5.9-1.517-7.4-1.75
			c-0.867-0.1-1.9-0.183-3.1-0.25c-1.433-0.033-2.333-0.067-2.7-0.1c-0.7-0.066-2.233-0.15-4.6-0.25
			c-2.567-0.1-4.184-0.167-4.85-0.2C2.517-2.717,0.733-2.517,0-1.95c4.733,0,8.6,0.117,11.6,0.35c0.533,0.033,2.45,0.267,5.75,0.7
			c1.633,0.2,2.633,0.2,3,0C20.983-1.267,23.533-0.967,28,0z"/>
	</g>
</symbol>
<symbol  id="FlashAICB_Assets_x2F_decor_x5F_plants_5_x2F__x3C_Path_x3E__x5F_33" viewBox="0 -3.75 52.8 3.75">
	<g id="Layer_1_8_">
		<path style="fill-rule:evenodd;clip-rule:evenodd;fill:#947E34;" d="M0,0c8.867-0.933,16.133-1.533,21.8-1.8
			c1.4-0.067,5.034-0.133,10.9-0.2c3.2-0.067,5.083-0.267,5.65-0.6c1-0.6,5.816-0.7,14.45-0.3c-6.7-0.533-11.466-0.817-14.3-0.85
			c-1.633,0-3.583,0.1-5.85,0.3c-2.6,0.2-4.283,0.317-5.05,0.35C18.267-2.433,12.333-2.017,9.8-1.85c-3.333,0.2-5.966,0.567-7.9,1.1
			C0.933-0.483,0.3-0.233,0,0z"/>
	</g>
</symbol>
<symbol  id="FlashAICB_Assets_x2F_decor_x5F_plants_5_x2F__x3C_Path_x3E__x5F_34" viewBox="0 -3.507 53.1 3.507">
	<g id="Layer_1_7_">
		<path style="fill-rule:evenodd;clip-rule:evenodd;fill:#947E34;" d="M33-2.65c-2.6-0.067-4.3-0.133-5.1-0.2
			c-1.233-0.066-4.133-0.167-8.7-0.3c-5.434-0.167-8.5-0.267-9.2-0.3c-3.333-0.133-6-0.033-8,0.3c-1,0.133-1.667,0.3-2,0.5
			c8.933,0,16.25,0.167,21.95,0.5c1.4,0.066,5.033,0.383,10.9,0.95c3.167,0.3,5.066,0.3,5.7,0C39.65-1.667,44.5-1.267,53.1,0
			c-6.633-1.233-11.367-2-14.2-2.3C37.3-2.467,35.333-2.583,33-2.65z"/>
	</g>
</symbol>
<symbol  id="FlashAICB_Assets_x2F_decor_x5F_plants_5_x2F__x3C_Path_x3E__x5F_35" viewBox="0 -3.457 52.8 3.457">
	<g id="Layer_1_6_">
		<path style="fill-rule:evenodd;clip-rule:evenodd;fill:#947E34;" d="M32.8-2.65c-2.566-0.033-4.25-0.083-5.05-0.15
			c-1.267-0.1-4.167-0.217-8.7-0.35c-5.6-0.133-8.633-0.217-9.1-0.25C6.65-3.533,4-3.433,2-3.1C1-2.967,0.333-2.8,0-2.6
			c8.9,0,16.183,0.167,21.85,0.5C23.483-2,27.1-1.7,32.7-1.2c3.167,0.267,5.05,0.267,5.65,0c1.1-0.466,5.917-0.066,14.45,1.2
			c-6.566-1.233-11.283-2-14.15-2.3C37.05-2.467,35.1-2.583,32.8-2.65z"/>
	</g>
</symbol>
<symbol  id="FlashAICB_Assets_x2F_decor_x5F_plants_5_x2F__x3C_Path_x3E__x5F_36" viewBox="0 -2.44 52.5 2.44">
	<g id="Layer_1_5_">
		<path style="fill-rule:evenodd;clip-rule:evenodd;fill:#947E34;" d="M32.5-2.35c-2.633,0.133-4.3,0.2-5,0.2
			c-1.2,0-4.083,0.1-8.65,0.3c-5.2,0.2-8.233,0.317-9.1,0.35C6.45-1.4,3.833-1.117,1.9-0.65C0.933-0.417,0.3-0.2,0,0
			c8.8-0.633,16.033-0.983,21.7-1.05c1.2,0,4.8,0.05,10.8,0.15c3.133,0.066,5-0.067,5.6-0.4c1.033-0.534,5.833-0.467,14.4,0.2
			c-6.6-0.767-11.317-1.2-14.15-1.3C36.717-2.467,34.767-2.45,32.5-2.35z"/>
	</g>
</symbol>
<symbol  id="FlashAICB_Assets_x2F_decor_x5F_plants_5_x2F__x3C_Path_x3E__x5F_37" viewBox="-0.001 -15.85 49.101 15.839">
	<g id="Layer_1_47_">
		<path style="fill-rule:evenodd;clip-rule:evenodd;fill:#FF0000;" d="M10-15.85C3.367-14.483,0.033-12.167,0-8.9
			c-0.033,3.2,1.567,5.4,4.8,6.6c3.633,1.333,10.767,2.083,21.4,2.25c11.3,0.2,18.933-0.383,22.9-1.75
			c-4,0.733-10.55,1.033-19.65,0.9C18.85-1.067,11.733-1.817,8.1-3.15c-3.233-1.2-4.833-3.4-4.8-6.6
			C3.3-12.35,5.533-14.383,10-15.85z"/>
	</g>
</symbol>
<symbol  id="FlashAICB_Assets_x2F_decor_x5F_plants_5_x2F__x3C_Path_x3E__x5F_38" viewBox="0 -38.7 13.5 38.7">
	<g id="Layer_1_48_">
		<polygon style="fill-rule:evenodd;clip-rule:evenodd;fill:#F9ECCA;" points="0,-38.35 1.1,0 13.5,-0.35 12.4,-38.7 		"/>
	</g>
</symbol>
<symbol  id="FlashAICB_Assets_x2F_decor_x5F_plants_5_x2F__x3C_Path_x3E__x5F_39" viewBox="0.112 -5.85 5.788 5.85">
	<g id="Layer_1_54_">
		<g>
			<g>
				<path style="fill-rule:evenodd;clip-rule:evenodd;fill:#C3AA82;" d="M5.5-2.75c-0.267-0.4-0.65-0.567-1.15-0.5
					c-0.1,0.1-0.2,0.133-0.3,0.1v0.05C4.017-3.2,3.967-3.25,3.9-3.25l-0.5,0.1C3.5-3.05,3.517-3,3.45-3L3.4-3.1v0.05
					c-0.1,0-0.117-0.034-0.05-0.1C3.158-3.123,2.974-3.047,2.8-2.925C2.771-2.959,2.722-2.968,2.65-2.95L2.5-2.9l0.05-0.05L2.7-3
					c0-0.133-0.034-0.167-0.1-0.1l0.05-0.1l-0.1,0.05L2.6-3.2H2.5l0.05-0.05H2.5C2.6-3.35,2.617-3.4,2.55-3.4L2.4-3.35L2.5-3.4H2.3
					c0.133-0.2,0.133-0.333,0-0.4H2.25L2.3-3.85l-0.15,0.1C2.183-3.817,2.2-3.867,2.2-3.9c0.033-0.033,0.05-0.033,0.05,0
					c0.033,0,0.033-0.033,0-0.1L2.1-3.9C1.987-3.792,1.887-3.708,1.8-3.65V-3.7C1.733-3.6,1.683-3.567,1.65-3.6
					c0-0.1,0.083-0.15,0.25-0.15c0-0.047,0.033-0.105,0.1-0.175C1.997-3.975,1.98-4,1.95-4l0.075-0.025L2-4.05l0.15-0.1
					c0.1-0.067,0.117-0.1,0.05-0.1L1.9-4.1l0.25-0.15L2-4.2c0.094-0.094,0.078-0.111-0.05-0.05l0.1-0.05L1.9-4.25
					c0-0.033,0.017-0.067,0.05-0.1L1.85-4.3l0.1-0.1H2l0.05-0.1L2-4.45l0.05-0.1C2.05-4.583,2-4.567,1.9-4.5L1.85-4.45H1.8L2-4.65
					c0-0.033-0.017-0.033-0.05,0L1.9-4.6C1.8-4.5,1.75-4.483,1.75-4.55c0-0.136,0.033-0.187,0.1-0.15L1.9-4.75L1.65-4.7l-0.1,0.15
					V-4.6l-0.2,0.1v-0.05c0.133-0.034,0.267-0.133,0.4-0.3L1.6-4.8C1.54-4.76,1.506-4.751,1.5-4.775
					C1.519-4.782,1.535-4.79,1.55-4.8L1.5-4.85L1.525-4.9H1.55L1.5-4.95L1.55-5c0,0.067,0.05,0.05,0.15-0.05
					C1.633-5.083,1.65-5.133,1.75-5.2L1.6-5.15C1.667-5.117,1.633-5.067,1.5-5c0.033-0.067,0.033-0.1,0-0.1v0.05L1.35-5v-0.05
					c0,0.022-0.034,0.056-0.1,0.1c0-0.033-0.083,0-0.25,0.1V-4.9L1.2-5C1.167-5.033,1.183-5.1,1.25-5.2L1.1-5.1L1-5.25
					c0.133-0.033,0.183-0.067,0.15-0.1L1.3-5.425L1.25-5.45l-0.3,0.2c0.033-0.067,0-0.067-0.1,0l0.1-0.2c-0.067,0-0.1-0.05-0.1-0.15
					C0.783-5.6,0.7-5.583,0.6-5.55L0.7-5.6H0.6c0-0.033,0.033-0.083,0.1-0.15l-0.15,0.1H0.6L0.45-5.6v-0.1l0.1-0.05
					c0.034-0.033,0.017-0.067-0.05-0.1L0.4-5.8C0.48-5.79,0.464-5.757,0.35-5.7L0.4-5.75l-0.2,0.1L0.15-5.575
					C0.086-5.525,0.103-5.5,0.2-5.5c0.095,0,0.104,0.042,0.025,0.125L0.4-5.55L0.5-5.5L0.35-5.35L0.25-5.2l0.2,0.15L0.5-5.1
					c0,0.1-0.017,0.167-0.05,0.2c0.033,0,0.05,0.033,0.05,0.1c0,0.066,0.033,0.083,0.1,0.05c0,0.2,0.033,0.333,0.1,0.4l0.1-0.1h0.1
					L0.75-4.3c0.1,0,0.1,0.083,0,0.25L0.8-4.1C0.767-4.033,0.767-4,0.8-4c0.067,0,0.1,0.017,0.1,0.05h0.15L0.9-3.75L1.05-3.7
					c-0.033,0.1-0.033,0.184,0,0.25c0.067,0.133,0.1,0.217,0.1,0.25l0.1-0.05C1.217-3.15,1.233-3.067,1.3-3
					c0.067,0.1,0.1,0.183,0.1,0.25l0.1-0.1c0.233,0,0.2,0.05-0.1,0.15c0.067,0,0.117,0.017,0.15,0.05C1.517-2.583,1.5-2.533,1.5-2.5
					l0.125,0.125C1.675-2.42,1.7-2.429,1.7-2.4c0,0.066-0.017,0.117-0.05,0.15c0.033,0,0.067,0.033,0.1,0.1
					c0,0.058,0.025,0.091,0.075,0.1L1.75-2L1.8-1.975C1.691-1.51,1.591-1.202,1.5-1.05H2c0.133,0,0.217-0.067,0.25-0.2
					c0.013-0.038,0.029-0.071,0.05-0.1C2.359-1.255,2.442-1.139,2.55-1v-0.05c0.001,0.034,0.035,0.067,0.1,0.1
					c0.067,0,0.067,0.034,0,0.1h0.1c0.087,0,0.12,0.05,0.1,0.15c0.1,0,0.167,0.05,0.2,0.15l0.05-0.1c0.033,0,0.05,0.033,0.05,0.1
					L3.2-0.6L3.15-0.5H3.2l0.05,0.05l0.1,0.15L3.7,0c0.167-0.033,0.233-0.083,0.2-0.15c0.033,0,0.05,0.017,0.05,0.05
					C4.05-0.233,4.1-0.25,4.1-0.15V0c0.167-0.1,0.267-0.133,0.3-0.1v-0.1c0.1,0.133,0.267,0.184,0.5,0.15
					C5.267-0.25,5.517-0.5,5.65-0.8C5.817-1.133,5.9-1.433,5.9-1.7C5.833-2.167,5.7-2.517,5.5-2.75z M4.3-0.95
					c0-0.018-0.009-0.035-0.025-0.05C4.253-1.062,4.229-1.079,4.2-1.05V-1c-0.011-0.034-0.02-0.059-0.025-0.075L4.15-1.05
					C4.183-1.117,4.167-1.133,4.1-1.1c0.033,0,0.017,0.05-0.05,0.15V-1.1L4.1-1.2L4-1.1l0.05-0.1L4-1.15
					C4.067-1.25,4.083-1.3,4.05-1.3h-0.1l-0.1,0.05c0.1-0.1,0.1-0.15,0-0.15v0.1L3.8-1.35L3.65-1.3L3.8-1.45
					C3.767-1.419,3.75-1.436,3.75-1.5c0-0.033-0.033-0.033-0.1,0L3.6-1.4C3.533-1.367,3.517-1.383,3.55-1.45
					c0.034-0.033,0.034-0.05,0-0.05l0.1-0.1c0.033-0.1,0.017-0.1-0.05,0v-0.1C3.574-1.804,3.507-1.837,3.4-1.8l0.05-0.05H3.425
					C3.391-1.847,3.366-1.838,3.35-1.825L3.3-1.8C3.4-1.933,3.417-2,3.35-2L3.3-1.95l0.05-0.1c-0.033-0.034-0.1,0-0.2,0.1v-0.1
					L3.125-2.025L3.1-2.05H3.05l0.1-0.05l0.025-0.075L3.15-2.2h0.5L3.6-2.35L3.75-2.2c-0.033-0.1,0-0.1,0.1,0
					c0.033-0.066,0.066-0.05,0.1,0.05v-0.1c0-0.067,0.017-0.067,0.05,0c0.033-0.033,0.049-0.033,0.05,0V-2.3
					c0.05,0.025,0.083,0.05,0.1,0.075L4.1-2.4l0.5,0.2l0.1-0.1v0.15L4.8-2.2c0.034,0,0.017,0.034-0.05,0.1l0.1-0.05L4.8-2l0.05-0.05
					c0.033,0.033,0.033,0.066,0,0.1L4.95-2c0.066,0.033,0.033,0.067-0.1,0.1h0.1c-0.042,0.062-0.075,0.111-0.1,0.15v0.15
					C4.95-1.6,5-1.583,5-1.55C4.933-1.483,4.85-1.467,4.75-1.5v0.15h0.2l0.1,0.05H5.1L5.05-1.2H4.7l0.2,0.1L4.6-1.15L4.65-1.1
					l-0.1-0.05C4.583-1.117,4.617-1.067,4.65-1H4.7L4.65-0.95C4.65-0.883,4.6-0.9,4.5-1v-0.025L4.4-1.05l0.1,0.1L4.3-1.1
					c0.02,0.03,0.037,0.055,0.05,0.075H4.3V-0.95z M1.6-2.35h0.05L1.625-2.375L1.6-2.35z M2-3.925V-3.9L2.1-4
					C2.061-3.971,2.027-3.946,2-3.925z"/>
			</g>
		</g>
	</g>
</symbol>
<symbol  id="FlashAICB_Assets_x2F_decor_x5F_plants_5_x2F__x3C_Path_x3E__x5F_3_x5F_0" viewBox="0 -4.04 49.65 4.04">
	<g id="Layer_1_38_">
		<path style="fill-rule:evenodd;clip-rule:evenodd;fill:#947E34;" d="M40.1-3.9C30.9-3.467,25.3-3.167,23.3-3
			c-0.533,0.033-2.117,0.117-4.75,0.25c-2.133,0.1-3.966,0.25-5.5,0.45C10.383-2,6.033-1.233,0,0c7.9-1.3,12.4-1.75,13.5-1.35
			c0.633,0.267,2.417,0.233,5.35-0.1C24.25-2.05,27.633-2.4,29-2.5c5.333-0.4,12.217-0.683,20.65-0.85
			C48.283-4.017,45.1-4.2,40.1-3.9z"/>
	</g>
</symbol>
<symbol  id="FlashAICB_Assets_x2F_decor_x5F_plants_5_x2F__x3C_Path_x3E__x5F_3_x5F_1" viewBox="0 -20.525 64.3 20.511">
	<g id="Layer_1_45_">
		
			<radialGradient id="SVGID_10_" cx="16131.2041" cy="-16303.1484" r="31.2426" gradientTransform="matrix(-0.9999 -0.0124 -0.0042 0.3373 16094.1885 5687.6338)" gradientUnits="userSpaceOnUse">
			<stop  offset="0" style="stop-color:#000000"/>
			<stop  offset="0.8824" style="stop-color:#000000;stop-opacity:0.2863"/>
			<stop  offset="1" style="stop-color:#000000;stop-opacity:0"/>
		</radialGradient>
		<path style="fill-rule:evenodd;clip-rule:evenodd;fill:url(#SVGID_10_);" d="M54.9-17.75c-5.667-1.7-13.267-2.617-22.8-2.75
			c-9.5-0.167-17.05,0.5-22.65,2C3.183-16.8,0.033-14.217,0-10.75C-0.033-6.917,1.883-4.267,5.75-2.8
			c4.3,1.6,12.75,2.517,25.35,2.75c12.9,0.2,21.733-0.434,26.5-1.9c4.433-1.367,6.667-3.933,6.7-7.7
			C64.333-13.15,61.2-15.85,54.9-17.75z"/>
	</g>
</symbol>
<symbol  id="FlashAICB_Assets_x2F_decor_x5F_plants_5_x2F__x3C_Path_x3E__x5F_3_x5F_2" viewBox="0.05 -9.425 9.3 9.441">
	<g id="Layer_1_51_">
		<g>
			<g>
				<path style="fill-rule:evenodd;clip-rule:evenodd;fill:#C3AA82;" d="M8.15-0.75c0-0.033-0.033-0.083-0.1-0.15
					C8.383-1.033,8.517-1.4,8.45-2H8.4C8.367-2.033,8.417-2.083,8.55-2.15L8.45-2.2c0.067,0.032,0.134-0.001,0.2-0.1L8.5-2.4h0.1
					c0.133-0.033,0.2-0.1,0.2-0.2s0.017-0.167,0.05-0.2H8.8c0.067-0.067,0.184-0.35,0.35-0.85H9C9.034-3.651,9.101-3.701,9.2-3.8
					c0.1-0.1,0.117-0.184,0.05-0.25c0.033,0,0.05-0.034,0.05-0.1C9.267-4.183,9.283-4.2,9.35-4.2l-0.1-0.05c0.1,0,0.1-0.05,0-0.15
					H9.3L9.25-4.55l0.075-0.125C9.291-4.629,9.216-4.621,9.1-4.65c0.1-0.267,0.117-0.667,0.05-1.2L9-5.9
					c0-0.132,0.017-0.199,0.05-0.2h-0.1c0.066-0.1,0.066-0.167,0-0.2l-0.1,0.1v-0.25L8.8-6.4c0.034-0.1,0-0.167-0.1-0.2L8.65-6.55
					c-0.066-0.034-0.066-0.067,0-0.1c0.033-0.033,0.033-0.05,0-0.05L8.6-6.65c0.033-0.1,0-0.217-0.1-0.35H8.45L8.2-7.2
					C8.133-7.1,8.083-7.083,8.05-7.15c0.034-0.033,0.034-0.083,0-0.15c-0.066-0.034-0.066-0.067,0-0.1l-0.3-0.15
					c0.033,0.066,0.017,0.133-0.05,0.2l-0.1,0.1C7.589-7.373,7.539-7.389,7.45-7.3c0-0.233-0.034-0.367-0.1-0.4
					C7.31-7.64,7.285-7.59,7.275-7.55L7.2-7.85L7.15-7.8v-0.1C6.983-7.9,6.9-7.883,6.9-7.85v0.1l-0.1-0.1H6.75
					C6.683-7.917,6.667-7.967,6.7-8c0.032,0,0.049,0.017,0.05,0.05C6.749-8.05,6.699-8.1,6.6-8.1V-8
					C6.542-8.088,6.458-8.163,6.35-8.225c0,0.02,0,0.045,0,0.075C6.183-8.283,6.05-8.3,5.95-8.2v-0.1c-0.034,0-0.067,0.017-0.1,0.05
					c0,0.033-0.033,0.017-0.1-0.05v0.05c-0.167-0.167-0.317-0.2-0.45-0.1L5-8.65l0.05-0.025L5.1-8.75
					C5.125-8.8,5.158-8.825,5.2-8.825L5.1-8.85h0.05l-0.1-0.1c0-0.033,0.034-0.083,0.1-0.15L5.2-9c0.1-0.067,0.15-0.15,0.15-0.25
					L5.3-9.3l0.05-0.05l-0.1-0.075L5.05-9.4c0.067,0,0.133,0.017,0.2,0.05c0.067,0.1,0.033,0.15-0.1,0.15L5.2-9.25
					C5.167-9.283,5.1-9.3,5-9.3v-0.05l-0.1,0.1L5-9.2C4.867-9.263,4.8-9.23,4.8-9.1C4.833-9.067,4.817-9.033,4.75-9
					s-0.1,0.067-0.1,0.1h0.3c-0.034,0.033-0.034,0.083,0,0.15C4.783-8.817,4.683-8.833,4.65-8.8L4.7-8.75
					c-0.1,0-0.167,0.033-0.2,0.1L4.425-8.475C4.405-8.513,4.363-8.521,4.3-8.5C4.167-8.467,4.083-8.417,4.05-8.35
					c-0.066-0.1-0.133-0.117-0.2-0.05L3.9-8.35H3.75l-0.1,0.2c-0.066-0.033-0.1-0.117-0.1-0.25c-0.001,0.066-0.034,0.083-0.1,0.05
					C3.383-8.383,3.333-8.367,3.3-8.3c0.067,0.066,0.083,0.117,0.05,0.15c0,0.066-0.033,0.066-0.1,0
					C3.183-8.217,3.133-8.233,3.1-8.2v-0.15C3-8.383,2.967-8.35,3-8.25C2.967-8.283,2.917-8.3,2.85-8.3
					C2.817-8.267,2.733-8.233,2.6-8.2C2.5-8.167,2.433-8.1,2.4-8L2.3-8.05c0,0.033,0.017,0.066,0.05,0.1
					c-0.033,0.034-0.083,0-0.15-0.1C2.133-8.117,2.083-8.133,2.05-8.1L2-8L1.9-8.05v0.25L1.75-7.85v0.15
					c0-0.023-0.017-0.04-0.05-0.05L1.6-7.7l0.05-0.15L1.5-7.9C1.467-7.833,1.45-7.783,1.45-7.75L1.35-7.8v0.1L1.4-7.75
					c0,0.1-0.017,0.133-0.05,0.1C1.283-7.75,1.233-7.767,1.2-7.7l0.1,0.05l-0.05,0.1L1.2-7.65v0.05C1.133-7.633,1.05-7.65,0.95-7.65
					L0.9-7.5c0,0.067-0.05,0.1-0.15,0.1c0,0.133-0.05,0.15-0.15,0.05c0.133,0.2,0.167,0.3,0.1,0.3c-0.034,0.033-0.083,0.033-0.15,0
					c-0.066-0.034-0.1-0.067-0.1-0.1c-0.2,0.167-0.284,0.333-0.25,0.5H0.1C0.033-6.183,0.05-5.9,0.15-5.8
					c0-0.034,0.05-0.05,0.15-0.05c0.067,0.033,0.05,0.067-0.05,0.1c-0.1,0-0.167-0.017-0.2-0.05c0,0.266,0.05,0.417,0.15,0.45v0.05
					c0.066-0.067,0.117-0.067,0.15,0L0.4-5.2L0.3-5.15h0.1V-5l0.1-0.05c0,0.2,0.033,0.3,0.1,0.3L0.75-4.8
					c0.1,0.1,0.083,0.15-0.05,0.15c0.2,0.066,0.333,0.066,0.4,0C1.233-4.417,1.417-4.3,1.65-4.3c0.233,0.066,0.434,0.033,0.6-0.1
					L2.2-4.45c0.027-0.055,0.069-0.055,0.125,0C2.297-4.483,2.272-4.533,2.25-4.6H2.5c-0.033,0.001-0.033,0.035,0,0.1
					c0.067-0.1,0.133-0.117,0.2-0.05L2.6-4.7h0.05c0-0.033-0.05-0.083-0.15-0.15c-0.1-0.066-0.15-0.133-0.15-0.2H2.4
					c0-0.033-0.008-0.058-0.025-0.075L2.5-5c0.033,0,0.1,0.033,0.2,0.1C2.7-4.967,2.75-5,2.85-5L3-4.85C3-4.917,2.983-4.967,2.95-5
					C3.083-5,3.133-4.967,3.1-4.9c0.066,0.033,0.1,0.033,0.1,0c0.022-0.045,0.047-0.07,0.075-0.075L3.1-5.05
					C3.033-5.083,3.017-5.133,3.05-5.2c0.067,0.017,0.125,0.042,0.175,0.075L3.2-5.15c0-0.033,0.033-0.05,0.1-0.05
					c0.063,0,0.063-0.033,0-0.1l0.1,0.1L3.35-5.35C3.383-5.383,3.433-5.4,3.5-5.4c0.033,0,0.017-0.033-0.05-0.1
					c0.1,0,0.15,0.017,0.15,0.05c-0.067,0-0.067,0.05,0,0.15C3.567-5.367,3.617-5.4,3.75-5.4L3.7-5.45h0.1l-0.05-0.1l0.1,0.05
					C3.917-5.533,3.9-5.6,3.8-5.7L3.725-5.675C3.742-5.685,3.75-5.71,3.75-5.75L4-5.65V-5.7h0.05L3.9-5.75
					c-0.133,0-0.15-0.05-0.05-0.15c0.033-0.033,0.066-0.033,0.1,0c0.045,0.022,0.078,0.047,0.1,0.075L4-5.95
					C4.033-5.983,4.083-5.967,4.15-5.9l-0.1-0.3H3.9v-0.05L3.75-6.4l0.1-0.05c0.033,0.067,0.1,0.117,0.2,0.15
					C4.183-6.267,4.267-6.233,4.3-6.2c0.034-0.033,0-0.1-0.1-0.2C4.133-6.5,4.15-6.533,4.25-6.5l-0.1-0.2H4.3
					c0.065,0.033,0.082,0.066,0.05,0.1C4.383-6.635,4.4-6.685,4.4-6.75L4.5-6.7l0.1,0.15L4.7-6.6H4.6c0.033-0.1,0.1-0.133,0.2-0.1
					L4.7-6.8c-0.034,0-0.067,0.017-0.1,0.05c0,0.033-0.033,0.033-0.1,0C4.531-6.813,4.565-6.863,4.6-6.9L4.55-6.85
					c0-0.033-0.017-0.066-0.05-0.1c-0.033-0.066-0.017-0.1,0.05-0.1L4.7-7c0.033-0.067,0.1-0.117,0.2-0.15
					c0.014-0.028,0.014-0.053,0-0.075C4.935-7.214,4.968-7.206,5-7.2c0.1-0.066,0.15-0.133,0.15-0.2c0-0.033,0.017-0.033,0.05,0
					c0.033-0.033,0.05-0.017,0.05,0.05c0.067-0.167,0.117-0.2,0.15-0.1c0.033,0.034,0.033,0.083,0,0.15
					c0.167-0.1,0.267-0.133,0.3-0.1v-0.05C5.9-7.383,6.017-7.267,6.05-7.1C6.583-7,7.133-6.733,7.7-6.3
					c0.2,0.167,0.333,0.333,0.4,0.5L8.25-5c0.133,0.1,0.167,0.217,0.1,0.35l0.1-0.05C8.417-4.6,8.367-4.55,8.3-4.55L8.2-3.8
					c0.1-0.1,0.15-0.1,0.15,0h-0.1L8.3-3.75H8.15C8.083-2.917,7.95-2.3,7.75-1.9c0,0.133-0.083,0.283-0.25,0.45
					C7.433-0.817,7.233-0.367,6.9-0.1L7.1,0c0.167,0.033,0.283,0.017,0.35-0.05C7.583-0.083,7.7-0.183,7.8-0.35
					C7.933-0.583,8.05-0.717,8.15-0.75z M1.2-6.05c0-0.034,0.05-0.05,0.15-0.05C1.25-6.133,1.233-6.183,1.3-6.25L1.4-6.2
					c0-0.133,0.017-0.183,0.05-0.15L1.4-6.45L1.5-6.4c0.1,0,0.217-0.1,0.35-0.3C2.083-6.733,2.4-6.833,2.8-7v-0.05
					c0.034,0.033,0.1,0.033,0.2,0c0.033-0.067,0.083-0.067,0.15,0c0.067,0,0.083-0.034,0.05-0.1c0.033,0.033,0.1,0.033,0.2,0
					c0.053-0.053,0.103-0.062,0.15-0.025C3.526-7.144,3.509-7.119,3.5-7.1l0.1,0.05c0.033,0.033,0.05,0.066,0.05,0.1
					C3.583-7.017,3.5-7.033,3.4-7c0,0.167-0.1,0.25-0.3,0.25L3.15-6.7C3.083-6.7,3.033-6.667,3-6.6c0,0.1-0.017,0.167-0.05,0.2
					L3-6.25H2.7L2.55-6c-0.3,0.2-0.533,0.3-0.7,0.3L1.9-5.6c-0.1-0.033-0.183-0.033-0.25,0c-0.066,0-0.1-0.017-0.1-0.05L1.5-5.5
					c-0.2,0.1-0.2,0.05,0-0.15c0-0.1-0.033-0.117-0.1-0.05v-0.15l-0.1-0.1v-0.1L1.2-6V-6.05z M4.55-6.45c-0.1-0.1-0.2-0.15-0.3-0.15
					c0.133,0.067,0.133,0.1,0,0.1l0.1,0.1h0.1C4.517-6.367,4.55-6.383,4.55-6.45z M4.35-7.3c0.054,0.009,0.112,0.017,0.175,0.025
					C4.608-7.264,4.7-7.248,4.8-7.225c0.029,0.021,0.029,0.046,0,0.075C4.733-7.083,4.667-7.067,4.6-7.1
					c-0.067-0.033-0.1-0.033-0.1,0C4.467-7.067,4.433-7.05,4.4-7.05C4.433-7.117,4.367-7.2,4.2-7.3h0.025
					C4.262-7.299,4.304-7.299,4.35-7.3z M5.05-8.65H5.1C5.087-8.663,5.071-8.671,5.05-8.675V-8.65z M5.15-8.4l0.025-0.025L5.2-8.4
					H5.15c0.031,0.019,0.064,0.052,0.1,0.1C5.197-8.332,5.155-8.357,5.125-8.375L5.15-8.4z M5.075-8.375H5.1v0.025L5.075-8.375z"/>
			</g>
		</g>
	</g>
</symbol>
<symbol  id="FlashAICB_Assets_x2F_decor_x5F_plants_5_x2F__x3C_Path_x3E__x5F_4" viewBox="0.013 -71.397 81.989 71.305">
	<g id="Layer_1_2_">
		<path style="fill-rule:evenodd;clip-rule:evenodd;fill:#FF0000;" d="M80.45-38.15c2.9-10.9,1.733-18.917-3.5-24.05
			c-6.733-6.566-20.767-9.617-42.1-9.15C18.583-71.017,8.167-67.9,3.6-62c-2,2.567-3.167,5.933-3.5,10.1
			c-0.233,3.133,0,7.517,0.7,13.15C3.033-21.083,7.1-9.9,13-5.2c2.767,2.233,6.483,3.7,11.15,4.4c3.1,0.433,8.383,0.667,15.85,0.7
			c8.233,0.033,13.3-0.033,15.2-0.2c4.3-0.434,7.7-1.65,10.2-3.65c2.8-2.2,5.35-5.933,7.65-11.2
			C75.217-20.217,77.683-27.883,80.45-38.15z"/>
	</g>
</symbol>
<symbol  id="FlashAICB_Assets_x2F_decor_x5F_plants_5_x2F__x3C_Path_x3E__x5F_4_x5F_0" viewBox="0 -4.079 49.85 4.079">
	<g id="Layer_1_37_">
		<path style="fill-rule:evenodd;clip-rule:evenodd;fill:#947E34;" d="M49.85-3.45c-0.333-0.167-0.983-0.3-1.95-0.4
			c-1.967-0.267-4.517-0.3-7.65-0.1c-9.233,0.4-14.85,0.7-16.85,0.9c-0.533,0.033-2.133,0.117-4.8,0.25
			c-2.133,0.1-3.983,0.25-5.55,0.45C10.417-2.05,6.067-1.267,0,0c7.9-1.333,12.417-1.8,13.55-1.4c0.633,0.267,2.434,0.233,5.4-0.1
			c5.367-0.6,8.75-0.95,10.15-1.05C34.467-2.95,41.383-3.25,49.85-3.45z"/>
	</g>
</symbol>
<symbol  id="FlashAICB_Assets_x2F_decor_x5F_plants_5_x2F__x3C_Path_x3E__x5F_4_x5F_1" viewBox="0 -16.6 5.55 16.6">
	<g id="Layer_1_50_">
		<g>
			<g>
				<path style="fill-rule:evenodd;clip-rule:evenodd;fill:#C3AA82;" d="M4.45-0.3C4.583-0.4,4.633-0.567,4.6-0.8
					C4.567-1.067,4.583-1.25,4.65-1.35C4.65-1.383,4.6-1.4,4.5-1.4c0.2-0.333,0.117-0.75-0.25-1.25L4.2-2.6
					c0.066-0.133,0.083-0.217,0.05-0.25h-0.1c0.067-0.033,0.1-0.1,0.1-0.2L4.1-3.1l0.1-0.05C4.3-3.217,4.317-3.3,4.25-3.4
					S4.167-3.583,4.2-3.65H4.15C4.217-3.85,4.2-4.167,4.1-4.6L3.95-4.55c0.066-0.034,0.1-0.117,0.1-0.25C4.017-4.8,4-4.833,4-4.9
					c0.033-0.067,0.033-0.117,0-0.15C4.067-5.117,4.067-5.167,4-5.2L3.9-5.25C4-5.283,3.983-5.333,3.85-5.4
					C3.883-5.433,3.867-5.483,3.8-5.55c0-0.034-0.017-0.067-0.05-0.1C3.721-5.617,3.671-5.6,3.6-5.6L3.3-6.8L3.2-6.9l0.05-0.2h-0.1
					C3.083-7.167,3.1-7.233,3.2-7.3L3.05-7.25c0.067-0.067,0.1-0.15,0.1-0.25L3.1-7.45c0.065-0.068,0.065-0.151,0-0.25L3-7.65
					c-0.033-0.067-0.017-0.1,0.05-0.1c0.067-0.033,0.083-0.067,0.05-0.1L3-7.8c0.032-0.021,0.057-0.047,0.075-0.075
					C3.186-7.912,3.311-7.954,3.45-8C3.85-8.067,4.3-8.35,4.8-8.85H4.75c0.068-0.002,0.134-0.069,0.2-0.2
					c0.033-0.133,0.1-0.184,0.2-0.15v-0.15c0.033,0,0.067-0.066,0.1-0.2C5.277-9.66,5.328-9.743,5.4-9.8
					c0-0.133,0.05-0.333,0.15-0.6l-0.1,0.05c0.133-0.133,0.133-0.217,0-0.25c0.065-0.033,0.099-0.033,0.1,0
					c0-0.4-0.066-0.717-0.2-0.95l-0.45-0.4L4.4-12.2c-0.2,0.067-0.283,0.133-0.25,0.2c0,0.067-0.066,0.083-0.2,0.05V-12
					c-0.067,0-0.117,0.05-0.15,0.15c-0.033,0.067-0.066,0.1-0.1,0.1c-0.034-0.067-0.083-0.1-0.15-0.1
					c-0.167,0.267-0.267,0.4-0.3,0.4l0.1,0.05c-0.233,0.2-0.434,0.3-0.6,0.3c-0.262,0.502-0.454,1.069-0.575,1.7
					C2.094-9.5,2.003-9.55,1.9-9.55l-0.1,0.1V-9.5l0.15-0.1c-0.067-0.133-0.133-0.2-0.2-0.2c-0.067,0.041-0.1,0.007-0.1-0.1
					l0.1-0.05h-0.1c0.1-0.066,0.117-0.1,0.05-0.1L1.6-10c0.066-0.133,0.066-0.217,0-0.25H1.5c0.028-0.055,0.053-0.08,0.075-0.075
					C1.456-10.408,1.364-10.45,1.3-10.45c0.167-0.2,0.184-0.433,0.05-0.7H1.3l0.05-0.05l-0.2,0.05c-0.066-0.067-0.033-0.133,0.1-0.2
					H1.3v-0.05l-0.025-0.025L1.15-11.4l0.05-0.1c-0.167,0.133-0.3,0.183-0.4,0.15v-0.05c-0.033,0-0.083,0.033-0.15,0.1L0.6-11.35
					c0.133-0.133,0.233-0.167,0.3-0.1c0-0.055,0.059-0.113,0.175-0.175c0.008-0.05,0-0.075-0.025-0.075l0.2-0.05
					c-0.032-0.032-0.083-0.049-0.15-0.05c0.069-0.001,0.135-0.018,0.2-0.05c0.1-0.033,0.117-0.066,0.05-0.1
					c-0.046-0.023-0.104-0.031-0.175-0.025c0.045-0.014,0.103-0.039,0.175-0.075h-0.2c0.133-0.067,0.133-0.117,0-0.15h0.1l-0.1-0.05
					c0-0.033,0.017-0.067,0.05-0.1c0-0.033-0.034-0.05-0.1-0.05c0.034,0,0.084-0.017,0.15-0.05c-0.065,0.034-0.048,0.067,0.05,0.1
					c-0.033,0,0-0.05,0.1-0.15H1.3l0.1-0.05L1.3-12.6h0.1c0.033-0.033,0-0.066-0.1-0.1l-0.1,0.05l-0.05-0.1h0.3
					c0.033-0.033,0.033-0.067,0-0.1L1.3-12.8l-0.1-0.1c0-0.033,0.033-0.05,0.1-0.05c0.031,0,0.065,0.017,0.1,0.05L1.3-13
					c0.034-0.033,0.083-0.033,0.15,0l-0.2-0.2H1.1v-0.05c-0.067-0.033-0.15-0.033-0.25,0l0.1-0.1c0.066,0.067,0.15,0.083,0.25,0.05
					c0.1-0.034,0.183-0.034,0.25,0c0-0.034-0.05-0.083-0.15-0.15c-0.1-0.033-0.1-0.066,0-0.1c0.097,0,0.147,0.008,0.15,0.025
					c0.023-0.024,0.073-0.05,0.15-0.075c-0.133-0.066-0.233-0.083-0.3-0.05c0.034,0,0.034,0.017,0,0.05
					c-0.033-0.033-0.083-0.066-0.15-0.1c0-0.1,0.05-0.117,0.15-0.05h0.05v-0.05c0-0.034,0.033-0.034,0.1,0l0.15,0.1l0.1-0.05H1.6
					c0-0.1,0.05-0.133,0.15-0.1l-0.1-0.1c0,0.1-0.066,0.133-0.2,0.1c0-0.043,0.017-0.076,0.05-0.1l-0.1-0.1
					c-0.033-0.034-0.017-0.067,0.05-0.1c0.033-0.033,0.066-0.017,0.1,0.05l0.2-0.2c0.033-0.067,0-0.1-0.1-0.1
					c0.033,0.033,0.033,0.083,0,0.15S1.567-14.167,1.5-14.2c-0.067-0.033-0.1-0.033-0.1,0c-0.033,0.034-0.066,0.05-0.1,0.05
					l-0.25-0.2l0.1-0.05l0.2,0.15c0-0.133,0.066-0.2,0.2-0.2l-0.125-0.1l0.125-0.3c0.034,0.033,0.067,0.033,0.1,0s0.067-0.033,0.1,0
					l0.1,0.075V-14.8c-0.029-0.058-0.021-0.074,0.025-0.05C1.752-14.919,1.644-14.969,1.55-15c0.067,0,0.05-0.033-0.05-0.1l0.3-0.15
					C1.767-15.383,1.833-15.5,2-15.6l-0.2-0.2l0.1,0.05c0.033,0.033,0.05,0.017,0.05-0.05H1.9c0-0.128,0.042-0.186,0.125-0.175
					L1.95-16h0.1L1.9-16.1l0.15-0.15l0.05,0.1c0.1-0.033,0.167-0.117,0.2-0.25l-0.05-0.05H2.3c-0.097-0.097-0.097-0.146,0-0.15H2
					c0.1,0.033,0.167,0.067,0.2,0.1c0.066,0.167,0.017,0.2-0.15,0.1h0.1l-0.2-0.1L1.8-16.45c0.067,0,0.1,0.034,0.1,0.1
					c-0.1-0.033-0.167-0.017-0.2,0.05c0.033,0.066,0.017,0.1-0.05,0.1c-0.1,0.034-0.15,0.067-0.15,0.1l0.3,0.05
					c-0.033,0.033-0.033,0.066,0,0.1H1.45l0.1,0.05c-0.133-0.033-0.216-0.017-0.25,0.05L1.15-15.4l0.05,0.05
					c-0.067,0-0.117,0.033-0.15,0.1c-0.066,0.1-0.117,0.15-0.15,0.15c-0.133,0.2-0.167,0.35-0.1,0.45
					c-0.233,0.3-0.367,0.566-0.4,0.8l0.15-0.05c0.034,0.033,0.034,0.066,0,0.1c-0.033-0.034-0.1-0.017-0.2,0.05
					c0.033,0.133-0.033,0.283-0.2,0.45H0.2c-0.034,0.033-0.05,0.183-0.05,0.45l0.1,0.1L0-12.5l0.1,0.35
					C0.033-12.017,0-11.833,0-11.6c0,0.3,0,0.483,0,0.55h0.1c-0.067,0.167-0.05,0.367,0.05,0.6c0.1,0.267,0.15,0.434,0.15,0.5
					l0.2-0.1C0.6-9.883,0.567-9.8,0.4-9.8c0,0.167,0.067,0.25,0.2,0.25c-0.033,0.1-0.033,0.183,0,0.25l0.275,0.375L0.95-9l0.1,0.15
					c0,0.067-0.033,0.117-0.1,0.15c0.066,0.034,0.167,0.117,0.3,0.25s0.25,0.2,0.35,0.2v0.15c0.213,0.043,0.38,0.093,0.5,0.15
					C2.229-6.924,2.413-6.174,2.65-5.7C2.817-5.6,2.9-5.483,2.9-5.35h0.05c0.033,0.067,0.017,0.133-0.05,0.2L3.15-4.4
					c0.067-0.067,0.1-0.083,0.1-0.05L3.2-4.35h0.05C3.183-4.283,3.133-4.267,3.1-4.3c0.033,0.233,0.133,0.583,0.3,1.05
					C3.6-2.783,3.7-2.433,3.7-2.2c0.033,0.067,0.05,0.267,0.05,0.6C4.05-0.967,4.133-0.433,4,0C4.267-0.033,4.417-0.133,4.45-0.3z
					 M2.9-9.15c0,0.035-0.008,0.06-0.025,0.075L2.85-9.1L2.9-9.3c0.2-0.1,0.317-0.184,0.35-0.25C3.183-9.567,3.133-9.575,3.1-9.575
					L3.35-9.65c0-0.033-0.017-0.067-0.05-0.1h0.1c0-0.133-0.033-0.217-0.1-0.25H3.25l0.1-0.1L3.3-10.15
					c0-0.125,0.059-0.133,0.175-0.025L3.6-10.3H3.5l0.275-0.175C3.753-10.482,3.729-10.491,3.7-10.5c0-0.033,0.033-0.083,0.1-0.15
					c0.067-0.033,0.083-0.083,0.05-0.15l0.1,0.05c0-0.033-0.017-0.067-0.05-0.1c-0.027-0.027-0.01-0.043,0.05-0.05H4v-0.025
					l0.2-0.125l0.025-0.05l0.025,0.05H4.3V-11l0.05-0.15l0.05,0.1L4.45-11l-0.1,0.1l0.1-0.05l0.1-0.1l-0.1,0.15l0.05-0.05
					c0,0.034-0.033,0.067-0.1,0.1c0.033,0,0.067,0.033,0.1,0.1L4.4-10.6h0.1l-0.05,0.05L4.6-10.4H4.35
					c0.066,0.033,0.066,0.066,0,0.1c-0.067,0.033-0.083,0.066-0.05,0.1c0.1,0,0.15,0.017,0.15,0.05c0.066,0.066,0.05,0.1-0.05,0.1
					c-0.066,0-0.1,0.017-0.1,0.05l-0.1-0.1c-0.1,0.033-0.117,0.083-0.05,0.15h-0.1C3.85-9.817,3.8-9.667,3.9-9.5H3.8L3.775-9.55
					H3.75c0,0.066,0.033,0.117,0.1,0.15c0,0.033-0.05,0.033-0.15,0c-0.067-0.067-0.117-0.067-0.15,0c0.034,0.033,0.034,0.066,0,0.1
					l-0.1-0.05l0.1,0.2H3.4V-9C3.398-9.064,3.381-9.081,3.35-9.05L3.3-9v-0.15L3.2-9.2L3.15-9.1c-0.059-0.015-0.101-0.015-0.125,0
					L3.05-9.05L3.1-9.1C3.1-9.033,3.083-9,3.05-9L2.9-9.15z M3.45-10.15H3.5l-0.025-0.025L3.45-10.15z"/>
			</g>
		</g>
	</g>
</symbol>
<symbol  id="FlashAICB_Assets_x2F_decor_x5F_plants_5_x2F__x3C_Path_x3E__x5F_5" viewBox="0 -2.81 50.2 2.81">
	<g id="Layer_1_36_">
		<path style="fill-rule:evenodd;clip-rule:evenodd;fill:#947E34;" d="M50.2,0c-0.3-0.2-0.934-0.417-1.9-0.65
			c-1.9-0.467-4.45-0.767-7.65-0.9C31.35-2.083,25.7-2.367,23.7-2.4c-0.7,0-2.3-0.083-4.8-0.25c-2.2-0.133-4.066-0.184-5.6-0.15
			C10.633-2.767,6.2-2.45,0-1.85C8.033-2.317,12.567-2.3,13.6-1.8C14.2-1.5,16-1.35,19-1.35c5.5,0,8.933,0.017,10.3,0.05
			C34.7-1.167,41.667-0.733,50.2,0z"/>
	</g>
</symbol>
<symbol  id="FlashAICB_Assets_x2F_decor_x5F_plants_5_x2F__x3C_Path_x3E__x5F_6" viewBox="0 -3.47 26.75 3.47">
	<g id="Layer_1_35_">
		<path style="fill-rule:evenodd;clip-rule:evenodd;fill:#947E34;" d="M26.75,0c-0.6-0.667-2.25-1.167-4.95-1.5
			c-5-0.767-8.017-1.2-9.05-1.3c-0.467-0.034-1.317-0.15-2.55-0.35c-1.167-0.167-2.15-0.267-2.95-0.3
			C5.783-3.517,3.367-3.417,0-3.15c4.367-0.1,6.8,0.066,7.3,0.5c0.3,0.267,1.25,0.433,2.85,0.5c3,0.2,4.833,0.333,5.5,0.4
			C18.55-1.45,22.25-0.867,26.75,0z"/>
	</g>
</symbol>
<symbol  id="FlashAICB_Assets_x2F_decor_x5F_plants_5_x2F__x3C_Path_x3E__x5F_7" viewBox="0 -3.472 26.8 3.472">
	<g id="Layer_1_34_">
		<path style="fill-rule:evenodd;clip-rule:evenodd;fill:#947E34;" d="M26.8,0c-0.6-0.633-2.267-1.133-5-1.5
			c-4.733-0.767-7.75-1.2-9.05-1.3c-2.233-0.4-4.067-0.617-5.5-0.65C5.783-3.517,3.367-3.433,0-3.2c4.367-0.1,6.8,0.083,7.3,0.55
			c0.3,0.267,1.25,0.433,2.85,0.5c3.033,0.2,4.883,0.333,5.55,0.4C18.567-1.45,22.267-0.867,26.8,0z"/>
	</g>
</symbol>
<symbol  id="FlashAICB_Assets_x2F_decor_x5F_plants_5_x2F__x3C_Path_x3E__x5F_8" viewBox="0 -3.2 50.25 3.2">
	<g id="Layer_1_33_">
		<path style="fill-rule:evenodd;clip-rule:evenodd;fill:#947E34;" d="M50.25-2.4c-1.333-0.667-4.55-0.917-9.65-0.75
			c-9.3,0.233-14.967,0.417-17,0.55c-0.833,0.067-2.434,0.133-4.8,0.2c-2.233,0.066-4.1,0.167-5.6,0.3C10.533-1.833,6.133-1.133,0,0
			c8-1.167,12.55-1.533,13.65-1.1c0.633,0.267,2.434,0.267,5.4,0c5.567-0.5,9-0.783,10.3-0.85C34.75-2.25,41.717-2.4,50.25-2.4z"/>
	</g>
</symbol>
<symbol  id="FlashAICB_Assets_x2F_decor_x5F_plants_5_x2F__x3C_Path_x3E__x5F_9" viewBox="0 -1.625 50.9 1.625">
	<g id="Layer_1_32_">
		<path style="fill-rule:evenodd;clip-rule:evenodd;fill:#947E34;" d="M50.9-0.1c-1.3-0.733-4.517-1.133-9.65-1.2
			C31.783-1.5,26.033-1.567,24-1.5c-4.3-0.167-7.8-0.167-10.5,0C10.767-1.367,6.267-0.867,0,0c8.133-0.833,12.733-1,13.8-0.5
			c0.633,0.3,2.467,0.383,5.5,0.25c5.5-0.233,8.983-0.35,10.45-0.35C35.217-0.667,42.267-0.5,50.9-0.1z"/>
	</g>
</symbol>
<g>
	<g>
		<g>
			<path style="fill-rule:evenodd;clip-rule:evenodd;fill:#A5952F;" d="M72.7,98.3c4.3,0.434,7.7,1.65,10.2,3.65
				c2.8,2.2,5.35,5.934,7.649,11.2c2.167,5.066,4.634,12.733,7.4,23c2.899,10.899,1.733,18.916-3.5,24.05
				c-6.733,6.566-20.767,9.616-42.1,9.149C36.083,169.017,25.667,165.9,21.1,160c-2-2.566-3.167-5.934-3.5-10.1
				c-0.233-3.134,0-7.517,0.7-13.15c2.233-17.7,6.3-28.884,12.2-33.55c2.767-2.233,6.483-3.7,11.15-4.4
				c3.1-0.434,8.383-0.666,15.85-0.7C65.733,98.066,70.8,98.134,72.7,98.3z"/>
			
				<use xlink:href="#FlashAICB_Assets_x2F_decor_x5F_plants_5_x2F__x3C_Path_x3E__x5F_4"  width="81.989" height="71.305" x="0.013" y="-71.397" transform="matrix(1 0 0 -1 17.5 98)" style="overflow:visible;opacity:0.6016;enable-background:new    ;"/>
			
				<use xlink:href="#FlashAICB_Assets_x2F_decor_x5F_plants_5_x2F__x3C_Path_x3E__x5F_3"  width="81.989" height="71.305" x="0.013" y="-71.397" transform="matrix(1 0 0 -1 17.5 98)" style="overflow:visible;opacity:0.5;enable-background:new    ;"/>
			
				<use xlink:href="#FlashAICB_Assets_x2F_decor_x5F_plants_5_x2F__x3C_Path_x3E__x5F_2"  width="81.989" height="71.305" x="0.013" y="-71.397" transform="matrix(1 0 0 -1 17.5 98)" style="overflow:visible;opacity:0.5;enable-background:new    ;"/>
			
				<use xlink:href="#FlashAICB_Assets_x2F_decor_x5F_plants_5_x2F__x3C_Clip_Group_0_x3E_"  width="120.25" height="71.305" y="-71.397" transform="matrix(1 0 0 -1 0 98)" style="overflow:visible;"/>
			
				<use xlink:href="#FlashAICB_Assets_x2F_decor_x5F_plants_5_x2F__x3C_Path_x3E__x5F_1_x5F_0"  width="24.798" height="69.55" y="-69.55" transform="matrix(1 0 0 -1 74.75 98.5996)" style="overflow:visible;opacity:0.25;enable-background:new    ;"/>
			
				<use xlink:href="#FlashAICB_Assets_x2F_decor_x5F_plants_5_x2F__x3C_Path_x3E__x5F_0"  width="23.046" height="68.95" x="0.104" y="-68.95" transform="matrix(1 0 0 -1 17.5 99)" style="overflow:visible;opacity:0.25;enable-background:new    ;"/>
		</g>
		<g>
			
				<use xlink:href="#FlashAICB_Assets_x2F_decor_x5F_plants_5_x2F__x3C_Group_x3E_"  width="4.151" height="5.365" x="-0.017" y="-5.362" transform="matrix(1 0 0 -1 87.4502 128.9004)" style="overflow:visible;opacity:0.3008;enable-background:new    ;"/>
		</g>
	</g>
	<g>
		
			<use xlink:href="#FlashAICB_Assets_x2F_decor_x5F_plants_5_x2F__x3C_Path_x3E__x5F_3_x5F_1"  width="64.3" height="20.511" x="0" y="-20.525" transform="matrix(1 0 0 -1 24.8501 98.5996)" style="overflow:visible;opacity:0.5;enable-background:new    ;"/>
		<path style="fill-rule:evenodd;clip-rule:evenodd;fill:#342D1D;" d="M56.95,117.4c-8,0.133-14.367-0.434-19.1-1.7
			c-5.233-1.4-7.867-3.55-7.9-6.45c-0.034-3.2,1.566-5.4,4.8-6.6c3.633-1.334,10.767-2.084,21.4-2.25
			c10.867-0.167,18.3,0.35,22.3,1.55c3.733,1.133,5.616,3.267,5.649,6.399c0.034,2.9-2.616,5.134-7.949,6.7
			C71.384,116.483,64.983,117.267,56.95,117.4z"/>
		
			<use xlink:href="#FlashAICB_Assets_x2F_decor_x5F_plants_5_x2F__x3C_Path_x3E__x5F_1_x5F_1"  width="54.151" height="17.049" x="-0.001" y="-17.069" transform="matrix(1 0 0 -1 29.9502 100.3496)" style="overflow:visible;opacity:0.6016;enable-background:new    ;"/>
		
			<use xlink:href="#FlashAICB_Assets_x2F_decor_x5F_plants_5_x2F__x3C_Path_x3E__x5F_37"  width="49.101" height="15.839" x="-0.001" y="-15.85" transform="matrix(1 0 0 -1 29.9502 100.3496)" style="overflow:visible;enable-background:new    ;"/>
	</g>
</g>
<use xlink:href="#FlashAICB_Assets_x2F_decor_x5F_plants_5_x2F__x3C_Path_x3E__x5F_38"  width="13.5" height="38.7" y="-38.7" transform="matrix(1 0 0 -1 27.7998 121.6504)" style="overflow:visible;opacity:0.5;enable-background:new    ;"/>
<use xlink:href="#FlashAICB_Assets_x2F_decor_x5F_plants_5_x2F__x3C_Clip_Group_0_x3E__x5F_0"  width="97" height="166.95" y="-166.95" transform="matrix(1 0 0 -1 4.5498 0)" style="overflow:visible;"/>
<g>
	
		<use xlink:href="#FlashAICB_Assets_x2F_decor_x5F_plants_5_x2F__x3C_Path_x3E__x5F_4_x5F_1"  width="5.55" height="16.6" y="-16.6" transform="matrix(1 0 0 -1 32.1499 137.1504)" style="overflow:visible;enable-background:new    ;"/>
	
		<use xlink:href="#FlashAICB_Assets_x2F_decor_x5F_plants_5_x2F__x3C_Path_x3E__x5F_3_x5F_2"  width="9.3" height="9.441" x="0.05" y="-9.425" transform="matrix(1 0 0 -1 28.6001 131.8496)" style="overflow:visible;enable-background:new    ;"/>
	
		<use xlink:href="#FlashAICB_Assets_x2F_decor_x5F_plants_5_x2F__x3C_Path_x3E__x5F_2_x5F_1"  width="3.3" height="5.8" y="-5.8" transform="matrix(1 0 0 -1 32.6001 130.8496)" style="overflow:visible;enable-background:new    ;"/>
	
		<use xlink:href="#FlashAICB_Assets_x2F_decor_x5F_plants_5_x2F__x3C_Path_x3E__x5F_1_x5F_2"  width="5.936" height="9.708" x="0.07" y="-9.7" transform="matrix(1 0 0 -1 30.2002 124.5)" style="overflow:visible;enable-background:new    ;"/>
	
		<use xlink:href="#FlashAICB_Assets_x2F_decor_x5F_plants_5_x2F__x3C_Path_x3E__x5F_39"  width="5.788" height="5.85" x="0.112" y="-5.85" transform="matrix(1 0 0 -1 30.2002 147.8496)" style="overflow:visible;enable-background:new    ;"/>
</g>
</svg>
