<?xml version="1.0" encoding="iso-8859-1"?>
<!-- Generator: Adobe Illustrator 15.1.0, SVG Export Plug-In . SVG Version: 6.00 Build 0)  -->
<!DOCTYPE svg PUBLIC "-//W3C//DTD SVG 1.1//EN" "http://www.w3.org/Graphics/SVG/1.1/DTD/svg11.dtd">
<svg version="1.1" id="vine_rope_segmented" xmlns="http://www.w3.org/2000/svg" xmlns:xlink="http://www.w3.org/1999/xlink"
	 x="0px" y="0px" width="18px" height="50px" viewBox="0 0 18 50" style="enable-background:new 0 0 18 50;" xml:space="preserve">
<g>
	<rect x="4.4" style="fill-rule:evenodd;clip-rule:evenodd;fill:#736821;" width="6.3" height="50"/>
	<path style="fill-rule:evenodd;clip-rule:evenodd;fill:#736821;" d="M5.5,33.3c0.2,0.533,0.167,0.967-0.1,1.3
		C5.066,34.934,4.866,34.866,4.8,34.4c-0.066-0.467-0.3-1-0.7-1.601c-0.466-0.8-1-1.366-1.6-1.7c-0.533-0.333-1.1-0.333-1.7,0
		C0.467,31.3,0.2,31.5,0,31.7c0.6-1.334,1.566-1.8,2.9-1.4C4.167,30.7,5.033,31.7,5.5,33.3z"/>
	<path style="fill-rule:evenodd;clip-rule:evenodd;fill:#736821;" d="M5.6,29.8c0.2,0.533,0.167,0.967-0.1,1.3
		c-0.333,0.334-0.533,0.267-0.6-0.199c-0.067-0.467-0.301-1-0.7-1.601c-0.467-0.8-1-1.366-1.601-1.7
		C2.066,27.333,1.5,27.366,0.9,27.7C0.566,27.9,0.3,28.1,0.1,28.3C0.7,26.967,1.634,26.5,2.9,26.9C4.167,27.3,5.066,28.267,5.6,29.8
		z"/>
	<path style="fill-rule:evenodd;clip-rule:evenodd;fill:#736821;" d="M18,40.5c-0.333-0.333-0.733-0.634-1.2-0.9
		c-1-0.466-1.866-0.466-2.6,0C13.4,40.134,12.667,41,12,42.2c-0.6,1.133-0.9,2-0.9,2.6c-0.066,0.733-0.333,0.834-0.8,0.3
		c-0.533-0.466-0.633-1.133-0.3-2c0.533-2.466,1.733-4.033,3.6-4.699C14.8,38,15.9,38.233,16.9,39.1
		C17.366,39.5,17.733,39.967,18,40.5z"/>
	<path style="fill-rule:evenodd;clip-rule:evenodd;fill:#505318;" d="M11.4,34l0.1,1c0.134,0.934-0.167,1.634-0.9,2.1L5,41.4
		c-0.267,0.267-0.533,0.333-0.8,0.199C4,41.467,3.9,41.233,3.9,40.9l-0.101-1c-0.133-0.934,0.167-1.634,0.9-2.101l5.6-4.399
		C10.9,32.934,11.267,33.134,11.4,34z"/>
	<g>
		<path style="fill-rule:evenodd;clip-rule:evenodd;fill:#64671D;" d="M14.5,9.6c0.533,0.267,0.8,0.867,0.8,1.801l0.2,5.5
			c0.134,1-0.1,1.433-0.7,1.3L3.1,15c-0.466-0.134-0.767-0.7-0.899-1.7L2,7.7c0-1,0.267-1.434,0.8-1.3L14.5,9.6z"/>
		<path style="fill-rule:evenodd;clip-rule:evenodd;fill:#505318;" d="M14.9,9.4c0.333,1,0.3,1.699-0.101,2.1L5.6,21
			c-0.466,0.333-0.866,0.1-1.199-0.7l-1.801-5c-0.333-0.934-0.267-1.633,0.2-2.1L11.9,3.6C12.3,3.134,12.667,3.366,13,4.3L14.9,9.4z
			"/>
	</g>
</g>
</svg>
