<?xml version="1.0" encoding="iso-8859-1"?>
<!-- Generator: Adobe Illustrator 15.1.0, SVG Export Plug-In . SVG Version: 6.00 Build 0)  -->
<!DOCTYPE svg PUBLIC "-//W3C//DTD SVG 1.1//EN" "http://www.w3.org/Graphics/SVG/1.1/DTD/svg11.dtd">
<svg version="1.1" id="Layer_1" xmlns="http://www.w3.org/2000/svg" xmlns:xlink="http://www.w3.org/1999/xlink" x="0px" y="0px"
	 width="821.7px" height="133px" viewBox="0 0 821.7 133" style="enable-background:new 0 0 821.7 133;" xml:space="preserve">
<symbol  id="FlashAICB_Assets_x2F_puddle_x5F_2_x2F__x3C_Group_x3E_" viewBox="0 -44 332.75 44">
	<g id="Layer_1_4_">
		<g>
			<path style="fill-rule:evenodd;clip-rule:evenodd;fill:#6B9EB3;" d="M319.9-27c-8.467-2.033-19.15-3.283-32.05-3.75
				c-10.2-3.967-25.983-7.15-47.35-9.55c-21.933-2.467-46.133-3.7-72.6-3.7c-27.733,0-52.9,1.35-75.5,4.05
				c-22.033,2.633-37.75,6.067-47.15,10.3c-13.367,0.733-24.2,1.983-32.5,3.75C4.25-24.067,0-22.017,0-19.75
				c0,2.7,5.883,5.05,17.65,7.05c11.667,1.967,26.067,3.083,43.2,3.35c12.066,2.867,27.333,5.133,45.8,6.8
				C125.75-0.85,146.167,0,167.9,0c21.3,0,41.317-0.817,60.05-2.45c18.167-1.566,33.3-3.733,45.4-6.5h4.55
				c15.167,0,28.1-1.066,38.8-3.2c10.7-2.167,16.05-4.767,16.05-7.8C332.75-22.617,328.467-24.967,319.9-27z"/>
			
				<linearGradient id="SVGID_1_" gradientUnits="userSpaceOnUse" x1="15870.6143" y1="-509.1904" x2="15914.6143" y2="-509.1904" gradientTransform="matrix(2.272727e-005 1 -1 -0.001 -343.1768 -15915.125)">
				<stop  offset="0" style="stop-color:#9DF2ED"/>
				<stop  offset="0.1098" style="stop-color:#9BEFE7;stop-opacity:0.9647"/>
				<stop  offset="0.251" style="stop-color:#96E5D7;stop-opacity:0.8863"/>
				<stop  offset="0.4078" style="stop-color:#8ED6BC;stop-opacity:0.7569"/>
				<stop  offset="0.5843" style="stop-color:#82C197;stop-opacity:0.5765"/>
				<stop  offset="0.7647" style="stop-color:#73A567;stop-opacity:0.3451"/>
				<stop  offset="0.9569" style="stop-color:#62842D;stop-opacity:0.0667"/>
				<stop  offset="1" style="stop-color:#5D7C1E;stop-opacity:0"/>
			</linearGradient>
			<path style="fill-rule:evenodd;clip-rule:evenodd;fill:url(#SVGID_1_);" d="M319.9-27c-8.467-2.033-19.15-3.283-32.05-3.75
				c-10.2-3.967-25.983-7.15-47.35-9.55c-21.933-2.467-46.133-3.7-72.6-3.7c-27.733,0-52.9,1.35-75.5,4.05
				c-22.033,2.633-37.75,6.067-47.15,10.3c-13.367,0.733-24.2,1.983-32.5,3.75C4.25-24.067,0-22.017,0-19.75
				c0,2.7,5.883,5.05,17.65,7.05c11.667,1.967,26.067,3.083,43.2,3.35c12.066,2.867,27.333,5.133,45.8,6.8
				C125.75-0.85,146.167,0,167.9,0c21.3,0,41.317-0.817,60.05-2.45c18.167-1.566,33.3-3.733,45.4-6.5h4.55
				c15.167,0,28.1-1.066,38.8-3.2c10.7-2.167,16.05-4.767,16.05-7.8C332.75-22.617,328.467-24.967,319.9-27z"/>
		</g>
	</g>
</symbol>
<symbol  id="FlashAICB_Assets_x2F_puddle_x5F_2_x2F__x3C_Path_x3E_" viewBox="0 -54.55 367.05 54.55">
	<g id="Layer_1_3_">
		<path style="fill-rule:evenodd;clip-rule:evenodd;fill:#21160D;" d="M367.05-24.75c0-3.367-5.8-6.75-17.4-10.15
			c-11.7-3.434-24.533-5.45-38.5-6.05c-20.867-9.066-62.85-13.6-125.95-13.6c-30.633,0-58.383,1.667-83.25,5
			c-24.367,3.267-41.717,7.533-52.05,12.8c-14.733,0.9-26.683,2.45-35.85,4.65C4.683-29.833,0-27.3,0-24.5
			c0,3.367,6.483,6.283,19.45,8.75c12.9,2.467,28.8,3.85,47.7,4.15c13.3,3.567,30.133,6.367,50.5,8.4
			C138.717-1.067,161.233,0,185.2,0c22.9,0,42.883-0.917,59.95-2.75c15.4-1.667,30.017-4.283,43.85-7.85l5,0.05
			c17.333,0,33.683-1.417,49.05-4.25C359.05-17.767,367.05-21.083,367.05-24.75z"/>
	</g>
</symbol>
<symbol  id="FlashAICB_Assets_x2F_puddle_x5F_2_x2F__x3C_Path_x3E__x5F_1" viewBox="0 -66.5 410.85 66.505">
	<g id="Layer_1_2_">
		<path style="fill-rule:evenodd;clip-rule:evenodd;fill:#21160D;" d="M370.1-14.05c13.967-2.8,24.533-5.85,31.7-9.15
			c6.034-2.767,9.05-5.4,9.05-7.9c0-4.033-4.317-7.566-12.95-10.6c-9.2-3.167-21.517-5.083-36.95-5.75
			c-12.833-5.7-32.633-10.283-59.4-13.75c-27.5-3.533-57.833-5.3-91-5.3c-34.833,0-66.383,1.933-94.65,5.8
			c-27.7,3.8-47.417,8.767-59.15,14.9c-16.733,1-30.317,2.783-40.75,5.35C5.333-37.817,0-34.867,0-31.6
			c0,4.167,7.517,8.233,22.55,12.2c15.967,4.2,34.184,6.467,54.65,6.8c15.7,4.3,34.85,7.567,57.45,9.8
			c24.667,2.433,50.267,3.283,76.8,2.55C281.183-2.217,334.067-6.817,370.1-14.05z"/>
	</g>
</symbol>
<g>
	
		<use xlink:href="#FlashAICB_Assets_x2F_puddle_x5F_2_x2F__x3C_Path_x3E__x5F_1"  width="410.85" height="66.505" y="-66.5" transform="matrix(2 0 0 -2 0 0)" style="overflow:visible;opacity:0.1992;enable-background:new    ;"/>
	
		<use xlink:href="#FlashAICB_Assets_x2F_puddle_x5F_2_x2F__x3C_Path_x3E_"  width="367.05" height="54.55" y="-54.55" transform="matrix(2 0 0 -2 55.6001 6.7002)" style="overflow:visible;opacity:0.1992;enable-background:new    ;"/>
	
		<use xlink:href="#FlashAICB_Assets_x2F_puddle_x5F_2_x2F__x3C_Group_x3E_"  width="332.75" height="44" y="-44" transform="matrix(2 0 0 -2 80.3999 17.2998)" style="overflow:visible;opacity:0.5;enable-background:new    ;"/>
</g>
</svg>
