<?xml version="1.0" encoding="iso-8859-1"?>
<!-- Generator: Adobe Illustrator 15.1.0, SVG Export Plug-In . SVG Version: 6.00 Build 0)  -->
<!DOCTYPE svg PUBLIC "-//W3C//DTD SVG 1.1//EN" "http://www.w3.org/Graphics/SVG/1.1/DTD/svg11.dtd">
<svg version="1.1" id="Layer_1" xmlns="http://www.w3.org/2000/svg" xmlns:xlink="http://www.w3.org/1999/xlink" x="0px" y="0px"
	 width="302.85px" height="97.45px" viewBox="0 0 302.85 97.45" style="enable-background:new 0 0 302.85 97.45;"
	 xml:space="preserve">
<symbol  id="_x31_0a" viewBox="-7.01 -6.653 14.046 13.246">
	<g id="Layer_1_2_">
		<g>
			
				<radialGradient id="SVGID_1_" cx="3016.8379" cy="2030.5439" r="6.9028" gradientTransform="matrix(0.9543 0.2988 0.3097 -0.9199 -3507.7939 966.4688)" gradientUnits="userSpaceOnUse">
				<stop  offset="0" style="stop-color:#F6B041;stop-opacity:0.498"/>
				<stop  offset="0.9804" style="stop-color:#F6B041;stop-opacity:0"/>
			</radialGradient>
			<path style="fill-rule:evenodd;clip-rule:evenodd;fill:url(#SVGID_1_);" d="M6.7,2.05C7.267,0.316,7.117-1.367,6.25-3
				c-0.9-1.633-2.267-2.733-4.1-3.3C0.283-6.867-1.5-6.75-3.2-5.95c-1.733,0.8-2.883,2.067-3.45,3.8C-7.25-0.417-7.1,1.267-6.2,2.9
				c0.867,1.633,2.233,2.75,4.1,3.35c1.833,0.566,3.617,0.433,5.35-0.4C4.983,5.05,6.133,3.783,6.7,2.05z"/>
			
				<radialGradient id="SVGID_2_" cx="3032.9131" cy="2026.2549" r="2.6845" gradientTransform="matrix(0.9546 0.298 0.312 -0.922 -3527.2549 964.2549)" gradientUnits="userSpaceOnUse">
				<stop  offset="0" style="stop-color:#F6B041;stop-opacity:0.498"/>
				<stop  offset="0.9804" style="stop-color:#F6B041;stop-opacity:0"/>
			</radialGradient>
			<path style="fill-rule:evenodd;clip-rule:evenodd;fill:url(#SVGID_2_);" d="M2.6,0.75C2.833,0.083,2.783-0.567,2.45-1.2
				c-0.333-0.633-0.867-1.067-1.6-1.3c-0.733-0.233-1.434-0.184-2.1,0.15c-0.667,0.333-1.117,0.833-1.35,1.5
				C-2.833-0.184-2.767,0.466-2.4,1.1c0.333,0.633,0.867,1.067,1.6,1.3c0.733,0.233,1.433,0.183,2.1-0.15
				C1.933,1.917,2.367,1.417,2.6,0.75z"/>
		</g>
	</g>
</symbol>
<symbol  id="_x31_a" viewBox="-10.636 -10.036 21.298 20.073">
	<g id="Layer_1_11_">
		<g>
			
				<radialGradient id="SVGID_3_" cx="3022.373" cy="2027.7617" r="10.4767" gradientTransform="matrix(0.9545 0.2983 0.3102 -0.9199 -3513.8184 963.8008)" gradientUnits="userSpaceOnUse">
				<stop  offset="0" style="stop-color:#F9F12E;stop-opacity:0.498"/>
				<stop  offset="0.9804" style="stop-color:#F9F12E;stop-opacity:0"/>
			</radialGradient>
			<path style="fill-rule:evenodd;clip-rule:evenodd;fill:url(#SVGID_3_);" d="M10.15,3.2c0.867-2.633,0.633-5.2-0.7-7.7
				C8.083-6.966,6-8.633,3.2-9.5c-2.8-0.867-5.5-0.684-8.1,0.55c-2.6,1.233-4.333,3.167-5.2,5.8c-0.9,2.633-0.667,5.183,0.7,7.65
				c1.333,2.467,3.4,4.133,6.2,5c2.8,0.867,5.5,0.683,8.1-0.55C7.5,7.75,9.25,5.833,10.15,3.2z"/>
			
				<radialGradient id="SVGID_4_" cx="3017.2231" cy="2024.877" r="4.068" gradientTransform="matrix(0.9546 0.2978 0.31 -0.9209 -3508.1357 966.2871)" gradientUnits="userSpaceOnUse">
				<stop  offset="0" style="stop-color:#F9F12E;stop-opacity:0.498"/>
				<stop  offset="0.9804" style="stop-color:#F9F12E;stop-opacity:0"/>
			</radialGradient>
			<path style="fill-rule:evenodd;clip-rule:evenodd;fill:url(#SVGID_4_);" d="M3.95,1.25c0.367-1.033,0.284-2.033-0.25-3
				C3.167-2.716,2.351-3.366,1.25-3.7c-1.067-0.333-2.117-0.25-3.15,0.25C-2.933-2.983-3.616-2.233-3.95-1.2
				c-0.333,1-0.233,1.983,0.3,2.95c0.533,0.967,1.333,1.617,2.4,1.95c1.1,0.333,2.15,0.267,3.15-0.2
				C2.934,3.034,3.617,2.284,3.95,1.25z"/>
		</g>
	</g>
</symbol>
<symbol  id="_x32_a" viewBox="-4.143 -3.883 8.316 7.833">
	<g id="Layer_1_10_">
		<g>
			
				<radialGradient id="SVGID_5_" cx="0" cy="0.0498" r="4.0125" gradientTransform="matrix(1 0 0 -1 0 0.0996)" gradientUnits="userSpaceOnUse">
				<stop  offset="0" style="stop-color:#F6B041;stop-opacity:0.498"/>
				<stop  offset="0.9804" style="stop-color:#F6B041;stop-opacity:0"/>
			</radialGradient>
			<path style="fill-rule:evenodd;clip-rule:evenodd;fill:url(#SVGID_5_);" d="M3.95,1.25c0.367-1.034,0.283-2.034-0.25-3
				c-0.533-0.934-1.35-1.567-2.45-1.9c-1.067-0.367-2.117-0.3-3.15,0.2c-1,0.467-1.683,1.217-2.05,2.25
				c-0.333,1.033-0.233,2.033,0.3,3c0.534,0.933,1.333,1.583,2.4,1.95C-0.15,4.083,0.9,4,1.9,3.5C2.933,3.033,3.617,2.283,3.95,1.25
				z"/>
			
				<radialGradient id="SVGID_6_" cx="3017.2227" cy="2024.9238" r="4.076" gradientTransform="matrix(0.9546 0.2978 0.31 -0.9209 -3508.165 966.375)" gradientUnits="userSpaceOnUse">
				<stop  offset="0" style="stop-color:#F6B041;stop-opacity:0.498"/>
				<stop  offset="0.9804" style="stop-color:#F6B041;stop-opacity:0"/>
			</radialGradient>
			<path style="fill-rule:evenodd;clip-rule:evenodd;fill:url(#SVGID_6_);" d="M3.95,1.25c0.367-1.034,0.283-2.034-0.25-3
				c-0.533-0.934-1.35-1.567-2.45-1.9c-1.067-0.367-2.117-0.3-3.15,0.2c-1,0.467-1.683,1.217-2.05,2.25
				c-0.333,1.033-0.233,2.033,0.3,3c0.534,0.933,1.333,1.583,2.4,1.95C-0.15,4.083,0.9,4,1.9,3.5C2.933,3.033,3.617,2.283,3.95,1.25
				z"/>
		</g>
	</g>
</symbol>
<symbol  id="_x33_a" viewBox="-10.636 -10.036 21.298 20.073">
	<g id="Layer_1_9_">
		<g>
			
				<radialGradient id="SVGID_7_" cx="3022.3721" cy="2027.7607" r="10.4769" gradientTransform="matrix(0.9545 0.2983 0.3102 -0.9199 -3513.8174 963.7969)" gradientUnits="userSpaceOnUse">
				<stop  offset="0" style="stop-color:#F3EB68;stop-opacity:0.498"/>
				<stop  offset="0.9804" style="stop-color:#F3EB68;stop-opacity:0"/>
			</radialGradient>
			<path style="fill-rule:evenodd;clip-rule:evenodd;fill:url(#SVGID_7_);" d="M10.15,3.2c0.867-2.633,0.633-5.183-0.7-7.65
				C8.083-6.95,6-8.633,3.2-9.5c-2.767-0.867-5.45-0.683-8.05,0.55c-2.633,1.233-4.383,3.167-5.25,5.8
				C-11-0.517-10.767,2.034-9.4,4.5c1.333,2.467,3.4,4.133,6.2,5c2.8,0.867,5.5,0.684,8.1-0.55C7.5,7.75,9.25,5.833,10.15,3.2z"/>
			
				<radialGradient id="SVGID_8_" cx="3017.2227" cy="2024.877" r="4.0685" gradientTransform="matrix(0.9546 0.2978 0.31 -0.9209 -3508.1357 966.2871)" gradientUnits="userSpaceOnUse">
				<stop  offset="0" style="stop-color:#F3EB68;stop-opacity:0.498"/>
				<stop  offset="0.9804" style="stop-color:#F3EB68;stop-opacity:0"/>
			</radialGradient>
			<path style="fill-rule:evenodd;clip-rule:evenodd;fill:url(#SVGID_8_);" d="M3.95,1.25c0.367-1.033,0.283-2.033-0.25-3
				C3.167-2.716,2.35-3.367,1.25-3.7C0.184-4.033-0.867-3.95-1.9-3.45C-2.933-2.983-3.617-2.233-3.95-1.2
				c-0.333,1.033-0.233,2.017,0.3,2.95c0.533,0.967,1.333,1.617,2.4,1.95c1.1,0.333,2.15,0.267,3.15-0.2
				C2.934,3.034,3.617,2.284,3.95,1.25z"/>
		</g>
	</g>
</symbol>
<symbol  id="_x34_a" viewBox="-5.58 -5.297 11.252 10.611">
	<g id="Layer_1_8_">
		
			<radialGradient id="SVGID_9_" cx="3016.8359" cy="2029.1611" r="5.5231" gradientTransform="matrix(0.9544 0.2985 0.3098 -0.9205 -3507.9258 967.1709)" gradientUnits="userSpaceOnUse">
			<stop  offset="0" style="stop-color:#F9F12E;stop-opacity:0.498"/>
			<stop  offset="0.9804" style="stop-color:#F9F12E;stop-opacity:0"/>
		</radialGradient>
		<path style="fill-rule:evenodd;clip-rule:evenodd;fill:url(#SVGID_9_);" d="M2.649,4.75c1.367-0.667,2.284-1.683,2.75-3.05
			C5.866,0.3,5.733-1.05,5-2.35C4.3-3.683,3.216-4.567,1.75-5c-1.467-0.467-2.9-0.383-4.3,0.25c-1.367,0.667-2.283,1.7-2.75,3.1
			c-0.467,1.367-0.35,2.7,0.35,4c0.733,1.333,1.833,2.233,3.3,2.7C-0.184,5.483,1.25,5.383,2.649,4.75z"/>
	</g>
</symbol>
<symbol  id="_x35_a" viewBox="-14.462 -13.671 28.974 27.291">
	<g id="Layer_1_7_">
		
			<radialGradient id="SVGID_10_" cx="3021.7153" cy="2026.1094" r="14.2088" gradientTransform="matrix(0.9546 0.298 0.3103 -0.9203 -3513.0889 964.2266)" gradientUnits="userSpaceOnUse">
			<stop  offset="0" style="stop-color:#F9F12E;stop-opacity:0.498"/>
			<stop  offset="0.9804" style="stop-color:#F9F12E;stop-opacity:0"/>
		</radialGradient>
		<path style="fill-rule:evenodd;clip-rule:evenodd;fill:url(#SVGID_10_);" d="M-12.8,6.05c1.833,3.367,4.65,5.65,8.45,6.85
			c3.8,1.167,7.467,0.917,11-0.75c3.533-1.667,5.917-4.283,7.15-7.85c1.2-3.566,0.883-7.033-0.95-10.4
			c-1.833-3.367-4.65-5.65-8.45-6.85c-3.8-1.167-7.467-0.917-11,0.75c-3.567,1.7-5.95,4.333-7.15,7.9
			C-14.95-0.733-14.633,2.717-12.8,6.05z"/>
	</g>
</symbol>
<symbol  id="_x36_a" viewBox="-10.662 -10.037 21.306 20.073">
	<g id="Layer_1_6_">
		<g>
			
				<radialGradient id="SVGID_11_" cx="3022.3564" cy="2027.7686" r="10.4888" gradientTransform="matrix(0.9545 0.2983 0.3102 -0.9199 -3513.8223 963.8125)" gradientUnits="userSpaceOnUse">
				<stop  offset="0" style="stop-color:#F9F12E;stop-opacity:0.498"/>
				<stop  offset="0.9804" style="stop-color:#F9F12E;stop-opacity:0"/>
			</radialGradient>
			<path style="fill-rule:evenodd;clip-rule:evenodd;fill:url(#SVGID_11_);" d="M10.1,3.2c0.9-2.633,0.683-5.183-0.65-7.65
				C8.083-6.95,6-8.633,3.2-9.5c-2.8-0.867-5.5-0.684-8.1,0.55c-2.633,1.233-4.383,3.167-5.25,5.8s-0.633,5.184,0.7,7.65
				c1.367,2.466,3.434,4.133,6.2,5c2.8,0.867,5.5,0.683,8.1-0.55C7.483,7.75,9.233,5.833,10.1,3.2z"/>
			
				<radialGradient id="SVGID_12_" cx="3017.2148" cy="2024.877" r="4.0724" gradientTransform="matrix(0.9546 0.2978 0.31 -0.9209 -3508.1357 966.2871)" gradientUnits="userSpaceOnUse">
				<stop  offset="0" style="stop-color:#F9F12E;stop-opacity:0.498"/>
				<stop  offset="0.9804" style="stop-color:#F9F12E;stop-opacity:0"/>
			</radialGradient>
			<path style="fill-rule:evenodd;clip-rule:evenodd;fill:url(#SVGID_12_);" d="M3.9,1.25c0.367-1.034,0.283-2.034-0.25-3
				C3.117-2.684,2.317-3.333,1.25-3.7C0.15-4.034-0.9-3.95-1.9-3.45c-1,0.467-1.684,1.217-2.05,2.25c-0.367,1-0.283,1.983,0.25,2.95
				c0.534,0.966,1.35,1.617,2.45,1.95c1.067,0.333,2.117,0.267,3.15-0.2C2.9,3.033,3.567,2.283,3.9,1.25z"/>
		</g>
	</g>
</symbol>
<symbol  id="_x37_a" viewBox="-10.636 -10.045 21.298 20.082">
	<g id="Layer_1_5_">
		<g>
			
				<radialGradient id="SVGID_13_" cx="3022.3887" cy="2027.7539" r="10.4648" gradientTransform="matrix(0.9545 0.2983 0.3102 -0.9199 -3513.8135 963.7852)" gradientUnits="userSpaceOnUse">
				<stop  offset="0" style="stop-color:#F6B041;stop-opacity:0.498"/>
				<stop  offset="0.9804" style="stop-color:#F6B041;stop-opacity:0"/>
			</radialGradient>
			<path style="fill-rule:evenodd;clip-rule:evenodd;fill:url(#SVGID_13_);" d="M10.15,3.15c0.867-2.633,0.633-5.184-0.7-7.65
				c-1.367-2.466-3.433-4.133-6.2-5c-2.8-0.867-5.5-0.7-8.1,0.5c-2.633,1.233-4.383,3.167-5.25,5.8C-11-0.566-10.767,2-9.4,4.5
				c1.333,2.467,3.4,4.133,6.2,5c2.8,0.867,5.5,0.684,8.1-0.55C7.5,7.717,9.25,5.784,10.15,3.15z"/>
			
				<radialGradient id="SVGID_14_" cx="3017.2148" cy="2024.876" r="4.0722" gradientTransform="matrix(0.9546 0.2978 0.31 -0.9209 -3508.1348 966.2852)" gradientUnits="userSpaceOnUse">
				<stop  offset="0" style="stop-color:#F6B041;stop-opacity:0.498"/>
				<stop  offset="0.9804" style="stop-color:#F6B041;stop-opacity:0"/>
			</radialGradient>
			<path style="fill-rule:evenodd;clip-rule:evenodd;fill:url(#SVGID_14_);" d="M3.95,1.2c0.367-1,0.283-1.983-0.25-2.95
				C3.167-2.716,2.35-3.367,1.25-3.7C0.184-4.066-0.867-4-1.9-3.5c-1,0.467-1.667,1.217-2,2.25c-0.333,1.034-0.25,2.034,0.25,3
				c0.533,0.934,1.333,1.583,2.4,1.95c1.1,0.333,2.15,0.25,3.15-0.25C2.934,2.983,3.617,2.233,3.95,1.2z"/>
		</g>
	</g>
</symbol>
<symbol  id="_x38_a" viewBox="-10.662 -10.037 21.306 20.123">
	<g id="Layer_1_4_">
		<g>
			
				<radialGradient id="SVGID_15_" cx="3022.3564" cy="2027.7607" r="10.4849" gradientTransform="matrix(0.9545 0.2983 0.3102 -0.9199 -3513.8174 963.7969)" gradientUnits="userSpaceOnUse">
				<stop  offset="0" style="stop-color:#F9F12E;stop-opacity:0.498"/>
				<stop  offset="0.9804" style="stop-color:#F9F12E;stop-opacity:0"/>
			</radialGradient>
			<path style="fill-rule:evenodd;clip-rule:evenodd;fill:url(#SVGID_15_);" d="M4.9,9c2.6-1.233,4.333-3.167,5.2-5.8
				c0.9-2.633,0.683-5.184-0.65-7.65C8.083-6.95,6-8.634,3.2-9.5c-2.8-0.867-5.5-0.683-8.1,0.55c-2.6,1.233-4.35,3.167-5.25,5.8
				c-0.867,2.633-0.633,5.183,0.7,7.65C-8.083,7-6,8.683-3.2,9.55C-0.433,10.417,2.267,10.233,4.9,9z"/>
			
				<radialGradient id="SVGID_16_" cx="3017.2144" cy="2024.877" r="4.0724" gradientTransform="matrix(0.9546 0.2978 0.31 -0.9209 -3508.1357 966.2871)" gradientUnits="userSpaceOnUse">
				<stop  offset="0" style="stop-color:#F9F12E;stop-opacity:0.498"/>
				<stop  offset="0.9804" style="stop-color:#F9F12E;stop-opacity:0"/>
			</radialGradient>
			<path style="fill-rule:evenodd;clip-rule:evenodd;fill:url(#SVGID_16_);" d="M3.95,1.25c0.333-1.033,0.233-2.033-0.3-3
				S2.317-3.367,1.25-3.7C0.15-4.034-0.9-3.95-1.9-3.45c-1,0.466-1.684,1.216-2.05,2.25C-4.283-0.167-4.2,0.816-3.7,1.75
				c0.534,0.967,1.35,1.617,2.45,1.95c1.067,0.333,2.117,0.267,3.15-0.2S3.617,2.283,3.95,1.25z"/>
		</g>
	</g>
</symbol>
<symbol  id="_x39_a" viewBox="-10.613 -10.037 21.274 20.073">
	<g id="Layer_1_3_">
		<g>
			
				<radialGradient id="SVGID_17_" cx="3022.4194" cy="2027.7539" r="10.4805" gradientTransform="matrix(0.9545 0.2983 0.3102 -0.9199 -3513.8135 963.7852)" gradientUnits="userSpaceOnUse">
				<stop  offset="0" style="stop-color:#F3EB68;stop-opacity:0.498"/>
				<stop  offset="0.9804" style="stop-color:#F3EB68;stop-opacity:0"/>
			</radialGradient>
			<path style="fill-rule:evenodd;clip-rule:evenodd;fill:url(#SVGID_17_);" d="M4.899,8.95c2.633-1.233,4.383-3.167,5.25-5.8
				s0.633-5.184-0.7-7.65c-1.333-2.467-3.4-4.133-6.2-5c-2.8-0.867-5.5-0.684-8.1,0.55c-2.633,1.233-4.383,3.167-5.25,5.8
				s-0.633,5.184,0.7,7.65c1.367,2.466,3.433,4.133,6.2,5C-0.4,10.367,2.3,10.183,4.899,8.95z"/>
			
				<radialGradient id="SVGID_18_" cx="3017.2617" cy="2024.8613" r="4.0724" gradientTransform="matrix(0.9546 0.2978 0.31 -0.9209 -3508.126 966.2578)" gradientUnits="userSpaceOnUse">
				<stop  offset="0" style="stop-color:#F3EB68;stop-opacity:0.498"/>
				<stop  offset="0.9804" style="stop-color:#F3EB68;stop-opacity:0"/>
			</radialGradient>
			<path style="fill-rule:evenodd;clip-rule:evenodd;fill:url(#SVGID_18_);" d="M3.95,1.25c0.367-1.034,0.283-2.034-0.25-3
				C3.167-2.717,2.366-3.367,1.3-3.7c-1.1-0.333-2.15-0.25-3.15,0.25c-1,0.467-1.683,1.217-2.05,2.25
				c-0.367,1-0.283,1.983,0.25,2.95C-3.117,2.716-2.3,3.367-1.2,3.7c1.066,0.333,2.117,0.267,3.15-0.2
				C2.95,3.033,3.616,2.283,3.95,1.25z"/>
		</g>
	</g>
</symbol>
</svg>
