<?xml version="1.0" encoding="iso-8859-1"?>
<!-- Generator: Adobe Illustrator 15.1.0, SVG Export Plug-In . SVG Version: 6.00 Build 0)  -->
<!DOCTYPE svg PUBLIC "-//W3C//DTD SVG 1.1//EN" "http://www.w3.org/Graphics/SVG/1.1/DTD/svg11.dtd">
<svg version="1.1" id="Layer_1" xmlns="http://www.w3.org/2000/svg" xmlns:xlink="http://www.w3.org/1999/xlink" x="0px" y="0px"
	 width="320px" height="73.6px" viewBox="0 0 320 73.6" style="enable-background:new 0 0 320 73.6;" xml:space="preserve">
<symbol  id="MC_x5F_lightPool" viewBox="0 -73.6 319.55 73.6">
	<g id="Layer_1_2_">
		
			<radialGradient id="SVGID_1_" cx="159.7749" cy="-36.7998" r="163.2008" gradientTransform="matrix(1 0 0 -0.2464 0 -45.8687)" gradientUnits="userSpaceOnUse">
			<stop  offset="0" style="stop-color:#FFFFFF;stop-opacity:0.2118"/>
			<stop  offset="1" style="stop-color:#FFFFFF;stop-opacity:0"/>
		</radialGradient>
		<path style="fill-rule:evenodd;clip-rule:evenodd;fill:url(#SVGID_1_);" d="M319.55-36.8c0-5-4.183-9.767-12.55-14.3
			c-8.1-4.4-19.517-8.3-34.25-11.7c-31.233-7.2-68.9-10.8-113-10.8S78-70,46.8-62.8c-14.767,3.4-26.183,7.3-34.25,11.7
			C4.183-46.567,0-41.8,0-36.8s4.183,9.767,12.55,14.3c8.1,4.4,19.517,8.3,34.25,11.7C78-3.6,115.65,0,159.75,0s81.767-3.6,113-10.8
			c14.733-3.4,26.15-7.3,34.25-11.7C315.367-27.033,319.55-31.8,319.55-36.8z"/>
	</g>
</symbol>
<use xlink:href="#MC_x5F_lightPool"  width="319.55" height="73.6" y="-73.6" transform="matrix(1 0 0 -1 0 0)" style="overflow:visible;"/>
</svg>
