<?xml version="1.0" encoding="iso-8859-1"?>
<!-- Generator: Adobe Illustrator 15.1.0, SVG Export Plug-In . SVG Version: 6.00 Build 0)  -->
<!DOCTYPE svg PUBLIC "-//W3C//DTD SVG 1.1//EN" "http://www.w3.org/Graphics/SVG/1.1/DTD/svg11.dtd">
<svg version="1.1" id="vine_rope_segmented" xmlns="http://www.w3.org/2000/svg" xmlns:xlink="http://www.w3.org/1999/xlink"
	 x="0px" y="0px" width="18px" height="50px" viewBox="0 0 18 50" style="enable-background:new 0 0 18 50;" xml:space="preserve">
<g>
	<rect x="4.4" y="0.05" style="fill-rule:evenodd;clip-rule:evenodd;fill:#736821;" width="6.3" height="49.999"/>
	<path style="fill-rule:evenodd;clip-rule:evenodd;fill:#736821;" d="M5.5,33.25c0.2,0.6,0.167,1.066-0.1,1.4
		C5.066,34.916,4.866,34.85,4.8,34.449c-0.066-0.465-0.3-1.033-0.7-1.699c-0.466-0.801-1-1.367-1.6-1.699
		c-0.533-0.268-1.1-0.234-1.7,0.1c-0.333,0.199-0.6,0.4-0.8,0.6c0.6-1.334,1.566-1.801,2.9-1.4C4.167,30.75,5.033,31.717,5.5,33.25z
		"/>
	<path style="fill-rule:evenodd;clip-rule:evenodd;fill:#736821;" d="M5.6,29.85c0.2,0.533,0.167,0.967-0.1,1.301
		c-0.333,0.266-0.533,0.199-0.6-0.201C4.833,30.484,4.6,29.916,4.2,29.25c-0.467-0.732-1-1.266-1.601-1.6
		c-0.533-0.334-1.1-0.334-1.699,0c-0.334,0.199-0.601,0.4-0.801,0.6c0.601-1.334,1.534-1.801,2.801-1.4S5.066,28.25,5.6,29.85z"/>
	<path style="fill-rule:evenodd;clip-rule:evenodd;fill:#736821;" d="M16.8,39.65c-1-0.533-1.866-0.568-2.6-0.102
		c-0.8,0.533-1.533,1.434-2.2,2.701c-0.6,1.066-0.9,1.934-0.9,2.6c-0.066,0.666-0.333,0.768-0.8,0.301
		c-0.533-0.467-0.633-1.168-0.3-2.102c0.533-2.467,1.733-4.033,3.6-4.699c1.2-0.4,2.301-0.166,3.301,0.699
		c0.466,0.467,0.833,0.967,1.1,1.5C17.667,40.217,17.267,39.916,16.8,39.65z"/>
	<path style="fill-rule:evenodd;clip-rule:evenodd;fill:#505318;" d="M10.3,33.449c0.267-0.266,0.5-0.332,0.7-0.199
		s0.333,0.367,0.4,0.699l0.1,1c0.134,0.934-0.167,1.635-0.9,2.1l-5.6,4.4c-0.733,0.467-1.1,0.268-1.1-0.6l-0.101-1
		c-0.133-0.867,0.167-1.533,0.9-2L10.3,33.449z"/>
	<g>
		<path style="fill-rule:evenodd;clip-rule:evenodd;fill:#64671D;" d="M2,7.75c0-1.067,0.267-1.534,0.8-1.4l5.8,1.7
			c1.134,0.267,3.101,0.8,5.9,1.6c0.533,0.134,0.8,0.7,0.8,1.7l0.2,5.6c0.066,0.4,0,0.733-0.2,1c-0.133,0.267-0.3,0.367-0.5,0.301
			C12,17.45,10.033,16.917,8.9,16.65L3.1,15.05c-0.466-0.134-0.767-0.733-0.899-1.8L2,7.75z"/>
		<path style="fill-rule:evenodd;clip-rule:evenodd;fill:#505318;" d="M11.9,3.55c0.399-0.467,0.767-0.233,1.1,0.7l1.9,5.1
			c0.333,1,0.3,1.7-0.101,2.1l-9.2,9.5C5.134,21.417,4.733,21.183,4.4,20.25l-1.801-5c-0.399-0.934-0.333-1.601,0.2-2L11.9,3.55z"/>
	</g>
</g>
<path style="fill-rule:evenodd;clip-rule:evenodd;fill:#5E541B;" d="M15.4,22.65c0,0.933-0.233,1.399-0.7,1.399H1.9
	c-0.467,0-0.7-0.467-0.7-1.399v-31.7c0-0.867,0.233-1.3,0.7-1.3h12.8c0.467,0,0.7,0.433,0.7,1.3V22.65z"/>
<path style="fill-rule:evenodd;clip-rule:evenodd;fill:#503E17;" d="M17.7,14.55v5.3c0,0.134-0.3,0.2-0.9,0.2h-16
	c-0.533,0-0.8-0.066-0.8-0.2v-5.3c0-0.2,0.267-0.3,0.8-0.3h16C17.4,14.25,17.7,14.35,17.7,14.55z"/>
<path style="fill-rule:evenodd;clip-rule:evenodd;fill:#503E17;" d="M17.7,7.35v5.301c0,0.133-0.3,0.199-0.9,0.199h-16
	c-0.533,0-0.8-0.066-0.8-0.199V7.35C0,7.217,0.267,7.15,0.8,7.15h16C17.4,7.15,17.7,7.217,17.7,7.35z"/>
<path style="fill-rule:evenodd;clip-rule:evenodd;fill:#503E17;" d="M17.7-12.95v5.2c0,0.2-0.3,0.3-0.9,0.3h-16
	c-0.533,0-0.8-0.1-0.8-0.3v-5.2c0-0.2,0.267-0.3,0.8-0.3h16C17.4-13.25,17.7-13.15,17.7-12.95z"/>
</svg>
