<?xml version="1.0" encoding="iso-8859-1"?>
<!-- Generator: Adobe Illustrator 15.1.0, SVG Export Plug-In . SVG Version: 6.00 Build 0)  -->
<!DOCTYPE svg PUBLIC "-//W3C//DTD SVG 1.1//EN" "http://www.w3.org/Graphics/SVG/1.1/DTD/svg11.dtd">
<svg version="1.1" id="Layer_1" xmlns="http://www.w3.org/2000/svg" xmlns:xlink="http://www.w3.org/1999/xlink" x="0px" y="0px"
	 width="465.1px" height="46.05px" viewBox="0 0 465.1 46.05" style="enable-background:new 0 0 465.1 46.05;" xml:space="preserve"
	>
<symbol  id="FlashAICB_Assets_x2F_puddle_x5F_1_x2F__x3C_Group_x3E_" viewBox="0 -29.8 389.3 29.8">
	<g id="Layer_1_4_">
		<g>
			<path style="fill-rule:evenodd;clip-rule:evenodd;fill:#6B9EB3;" d="M348.5-25.45c-27.2-2.9-60.017-4.35-98.45-4.35
				c-23.833,0-46.117,0.617-66.85,1.85c-20.133,1.167-36.55,2.784-49.25,4.85c-11.2-0.467-22.8-0.7-34.8-0.7
				c-27.4,0-50.767,1.1-70.1,3.3C9.683-18.333,0-15.683,0-12.55C0-9.45,9.683-6.8,29.05-4.6c19.367,2.2,42.733,3.3,70.1,3.3
				c22.367,0,42.35-0.767,59.95-2.3C185.133-1.2,215.45,0,250.05,0c38.467,0,71.284-1.45,98.45-4.35c27.2-2.9,40.8-6.417,40.8-10.55
				C389.3-19,375.7-22.517,348.5-25.45z"/>
			<linearGradient id="SVGID_1_" gradientUnits="userSpaceOnUse" x1="194.6499" y1="0" x2="194.6499" y2="-29.7998">
				<stop  offset="0" style="stop-color:#9DF2ED"/>
				<stop  offset="0.3137" style="stop-color:#8ACFB0;stop-opacity:0.698"/>
				<stop  offset="1" style="stop-color:#5D7C1E;stop-opacity:0"/>
			</linearGradient>
			<path style="fill-rule:evenodd;clip-rule:evenodd;fill:url(#SVGID_1_);" d="M348.5-25.45c-27.2-2.9-60.017-4.35-98.45-4.35
				c-23.833,0-46.117,0.617-66.85,1.85c-20.133,1.167-36.55,2.784-49.25,4.85c-11.2-0.467-22.8-0.7-34.8-0.7
				c-27.4,0-50.767,1.1-70.1,3.3C9.683-18.333,0-15.683,0-12.55C0-9.45,9.683-6.8,29.05-4.6c19.367,2.2,42.733,3.3,70.1,3.3
				c22.367,0,42.35-0.767,59.95-2.3C185.133-1.2,215.45,0,250.05,0c38.467,0,71.284-1.45,98.45-4.35c27.2-2.9,40.8-6.417,40.8-10.55
				C389.3-19,375.7-22.517,348.5-25.45z"/>
		</g>
	</g>
</symbol>
<symbol  id="FlashAICB_Assets_x2F_puddle_x5F_1_x2F__x3C_Path_x3E_" viewBox="0 -37.75 427.2 37.75">
	<g id="Layer_1_3_">
		<path style="fill-rule:evenodd;clip-rule:evenodd;fill:#21160D;" d="M382.45-32.25c-29.833-3.667-65.85-5.5-108.05-5.5
			c-26.167,0-50.633,0.767-73.4,2.3c-22.067,1.5-40.067,3.55-54,6.15c-11.9-0.6-24.633-0.9-38.2-0.9c-30,0-55.633,1.4-76.9,4.2
			C10.633-23.233,0-19.883,0-15.95c0,3.934,10.633,7.3,31.9,10.1C53.1-3.083,78.733-1.7,108.8-1.7c24.8,0,46.733-0.966,65.8-2.9
			c13.7,1.467,28.917,2.583,45.65,3.35C237.65-0.417,255.7,0,274.4,0c42.2,0,78.217-1.85,108.05-5.55
			c29.833-3.667,44.75-8.117,44.75-13.35C427.2-24.1,412.283-28.55,382.45-32.25z"/>
	</g>
</symbol>
<symbol  id="FlashAICB_Assets_x2F_puddle_x5F_1_x2F__x3C_Path_x3E__x5F_1" viewBox="0 -46.05 465.1 46.05">
	<g id="Layer_1_2_">
		<path style="fill-rule:evenodd;clip-rule:evenodd;fill:#21160D;" d="M416.4-39.3c-32.5-4.5-71.717-6.75-117.65-6.75
			c-28.467,0-55.1,0.933-79.9,2.8c-24.033,1.833-43.633,4.333-58.8,7.5c-13.566-0.733-27.433-1.1-41.6-1.1
			c-32.7,0-60.617,1.7-83.75,5.1S0-24.25,0-19.45c0,4.8,11.567,8.9,34.7,12.3s51.05,5.1,83.75,5.1c26.833,0,50.716-1.184,71.65-3.55
			c14.833,1.767,31.4,3.133,49.7,4.1c18.867,1,38.517,1.5,58.95,1.5c45.967,0,85.183-2.25,117.65-6.75s48.7-9.933,48.7-16.3
			S448.867-34.833,416.4-39.3z"/>
	</g>
</symbol>
<g>
	
		<use xlink:href="#FlashAICB_Assets_x2F_puddle_x5F_1_x2F__x3C_Path_x3E__x5F_1"  width="465.1" height="46.05" y="-46.05" transform="matrix(1 0 0 -1 0 0)" style="overflow:visible;opacity:0.1992;enable-background:new    ;"/>
	
		<use xlink:href="#FlashAICB_Assets_x2F_puddle_x5F_1_x2F__x3C_Path_x3E_"  width="427.2" height="37.75" y="-37.75" transform="matrix(1 0 0 -1 18.9502 2.3501)" style="overflow:visible;opacity:0.1992;enable-background:new    ;"/>
	
		<use xlink:href="#FlashAICB_Assets_x2F_puddle_x5F_1_x2F__x3C_Group_x3E_"  width="389.3" height="29.8" y="-29.8" transform="matrix(1 0 0 -1 37.8999 6.3501)" style="overflow:visible;opacity:0.5;enable-background:new    ;"/>
</g>
</svg>
