<?xml version="1.0" encoding="iso-8859-1"?>
<!-- Generator: Adobe Illustrator 15.1.0, SVG Export Plug-In . SVG Version: 6.00 Build 0)  -->
<!DOCTYPE svg PUBLIC "-//W3C//DTD SVG 1.1//EN" "http://www.w3.org/Graphics/SVG/1.1/DTD/svg11.dtd">
<svg version="1.1" id="FlashAICB" xmlns="http://www.w3.org/2000/svg" xmlns:xlink="http://www.w3.org/1999/xlink" x="0px" y="0px"
	 width="478.65px" height="446.65px" viewBox="0 0 478.65 446.65" style="enable-background:new 0 0 478.65 446.65;"
	 xml:space="preserve">
<radialGradient id="SVGID_1_" cx="144.8999" cy="419.1504" r="25.5" gradientTransform="matrix(1 0 0 -0.2574 0 527.02)" gradientUnits="userSpaceOnUse">
	<stop  offset="0.1176" style="stop-color:#000000;stop-opacity:0.749"/>
	<stop  offset="0.902" style="stop-color:#000000;stop-opacity:0"/>
</radialGradient>
<path style="fill-rule:evenodd;clip-rule:evenodd;fill:url(#SVGID_1_);" d="M126.85,414.55c5-1.3,11.017-1.95,18.05-1.95
	s13.05,0.65,18.05,1.95c4.967,1.267,7.45,2.8,7.45,4.601c0,1.833-2.483,3.383-7.45,4.649c-4.966,1.267-10.983,1.9-18.05,1.9
	s-13.083-0.634-18.05-1.9c-4.967-1.267-7.45-2.816-7.45-4.649C119.4,417.35,121.883,415.816,126.85,414.55z"/>
<radialGradient id="SVGID_2_" cx="330.9004" cy="422.1504" r="25.5" gradientTransform="matrix(1 0 0 -0.2574 0 530.7921)" gradientUnits="userSpaceOnUse">
	<stop  offset="0.1176" style="stop-color:#000000;stop-opacity:0.749"/>
	<stop  offset="0.902" style="stop-color:#000000;stop-opacity:0"/>
</radialGradient>
<path style="fill-rule:evenodd;clip-rule:evenodd;fill:url(#SVGID_2_);" d="M356.4,422.15c0,1.833-2.484,3.383-7.451,4.649
	c-4.966,1.267-10.982,1.9-18.049,1.9c-7.067,0-13.084-0.634-18.051-1.9s-7.449-2.816-7.449-4.649c0-1.801,2.482-3.334,7.449-4.601
	c5-1.3,11.018-1.95,18.051-1.95s13.049,0.65,18.049,1.95C353.916,418.816,356.4,420.35,356.4,422.15z"/>
<radialGradient id="SVGID_3_" cx="243.9004" cy="416.6758" r="162.4955" gradientTransform="matrix(1 0 0 -0.1844 0 493.5044)" gradientUnits="userSpaceOnUse">
	<stop  offset="0.1294" style="stop-color:#000000;stop-opacity:0.4275"/>
	<stop  offset="0.902" style="stop-color:#000000;stop-opacity:0"/>
</radialGradient>
<path style="fill-rule:evenodd;clip-rule:evenodd;fill:url(#SVGID_3_);" d="M81.4,416.65c0-4.067,4.25-7.95,12.75-11.65
	c8.233-3.6,19.85-6.783,34.85-9.55c31.733-5.834,70.033-8.75,114.9-8.75c44.866,0,83.166,2.916,114.899,8.75
	c15,2.767,26.616,5.95,34.851,9.55c8.5,3.7,12.75,7.583,12.75,11.65c0,4.066-4.25,7.949-12.75,11.649
	c-8.234,3.601-19.851,6.783-34.851,9.55c-31.733,5.867-70.033,8.801-114.899,8.801c-44.867,0-83.167-2.934-114.9-8.801
	c-15-2.767-26.617-5.949-34.85-9.55C85.65,424.6,81.4,420.717,81.4,416.65z"/>
<path style="fill-rule:evenodd;clip-rule:evenodd;fill:#9D9153;" d="M93.75,1.25c2.967,0.9,5.3,1.867,7,2.9
	c2.433,1.4,4.117,3.15,5.05,5.25c1.2,2.667,0.4,5.483-2.4,8.45c-1.567,1.667-4.2,4.017-7.9,7.05c-3.4,3.433-7.233,6.75-11.5,9.95
	c-1.567,1.167-3.4,2.8-5.5,4.9c-2.667,2.6-4.45,4.3-5.35,5.1c-3.667,3.134-6.183,5.15-7.55,6.05c-4.4,2.8-7.25,2.95-8.55,0.45l4-20
	c0.434-4.1,2.267-8.6,5.5-13.5c2.233-3.433,5.317-7.283,9.25-11.55c1-1.2,1.783-2.133,2.35-2.8c1-1.2,1.883-2.017,2.65-2.45
	c1.467-0.833,3.6-1.167,6.4-1C89.433,0.184,91.617,0.583,93.75,1.25z"/>
<path style="fill-rule:evenodd;clip-rule:evenodd;fill:#9D9153;" d="M99.05,61.35l-6-20c1.533-3.899,4.1-7.216,7.7-9.95
	c3.367-2.567,7.117-4.267,11.25-5.1c2.9-0.366,5.167-0.683,6.8-0.95c2.967-0.466,5.033-1.116,6.2-1.95
	c5.1,5.367,7.117,12.417,6.05,21.15c-0.467,3.767-2.9,6.583-7.3,8.45c-0.8,0.333-4.883,1.467-12.25,3.4
	c-0.9,0.267-3.15,0.817-6.75,1.65C101.483,59.05,99.583,60.15,99.05,61.35z"/>
<path style="fill-rule:evenodd;clip-rule:evenodd;fill:#9D9153;" d="M82.05,85.9l-2,1.45C80.065,86.739,80.732,86.256,82.05,85.9
	l31-22.55c2.733-1.633,6.4-2.616,11-2.95c0.567-0.033,4.483-0.05,11.75-0.05c2-0.166,3.317-0.216,3.95-0.149
	c1.033,0.1,1.9,0.767,2.6,2c0.533,0.933,0.8,2.3,0.8,4.1c-0.067,2.033-0.1,3.467-0.1,4.3c0.133,2.567,0.184,4.534,0.15,5.9
	c-0.066,2.434-0.533,4.3-1.4,5.6c-2.033,3.034-13.017,4.217-32.95,3.55c-10.767-0.333-17.4-0.483-19.9-0.45
	C85.821,85.271,83.521,85.504,82.05,85.9z"/>
<path style="fill-rule:evenodd;clip-rule:evenodd;fill:#9D9153;" d="M330.75,70.15c0.066,0.034,3.233,1.4,9.5,4.1
	c3.233,1.833,5.816,3.283,7.75,4.35c3.6,2,6.283,2.917,8.05,2.75l-15,23c-2.134,0.367-5.233-0.217-9.3-1.75
	c-2.233-0.833-5.1-2.05-8.6-3.65c-1.434-0.534-4.867-1.6-10.301-3.2c-4.934-1.7-7.9-3.467-8.9-5.3c-0.766-1.4-0.466-4.117,0.9-8.15
	c1.033-3.033,2.167-5.616,3.4-7.75c3.533-6.066,7.75-8.583,12.65-7.55C323.733,67.6,327.017,68.65,330.75,70.15z"/>
<path style="fill-rule:evenodd;clip-rule:evenodd;fill:#9D9153;" d="M363.15,54.8c1.633,5.6,3.266,9.45,4.899,11.55l-8,7
	c-2.167,0.034-4.667-1.149-7.5-3.55c-1.566-1.3-3.583-3.283-6.05-5.95c-0.167-0.133-2.316-2.316-6.45-6.55
	c-2.601-2.667-4.851-4.75-6.75-6.25c-0.833-0.633-1.917-1.383-3.25-2.25c-0.899-0.8-1.283-2.017-1.149-3.65
	c0.133-2.133,1.732-5.133,4.799-9c2.934-3.767,5.418-6.133,7.451-7.1c4.5-2.1,8.266-1.933,11.299,0.5
	c2.4,1.934,4.534,5.533,6.4,10.8C359.017,40.816,360.449,45.633,363.15,54.8z"/>
<path style="fill-rule:evenodd;clip-rule:evenodd;fill:#9D9153;" d="M378.7,25.05c4.433-0.3,7.95,0.1,10.55,1.2
	c2.833,1.233,4.467,3.533,4.9,6.9c0,4.3,0.05,7.55,0.149,9.75c0.533,10.367,0.783,19.85,0.75,28.45l-20-18
	c-0.933-2.6-2.533-7-4.8-13.2c-1.801-5.5-2.566-10.05-2.301-13.65C373.217,25.667,376.8,25.184,378.7,25.05z"/>
<radialGradient id="SVGID_4_" cx="77.6997" cy="-12.4502" r="41.3375" gradientTransform="matrix(1 0 0 -1 0 -24.9004)" gradientUnits="userSpaceOnUse">
	<stop  offset="0.0745" style="stop-color:#000000;stop-opacity:0"/>
	<stop  offset="0.8902" style="stop-color:#000000;stop-opacity:0.4784"/>
	<stop  offset="1" style="stop-color:#000000;stop-opacity:0.6784"/>
</radialGradient>
<path style="fill-rule:evenodd;clip-rule:evenodd;fill:url(#SVGID_4_);" d="M93.75,1.25c2.967,0.9,5.3,1.867,7,2.9
	c2.433,1.4,4.117,3.15,5.05,5.25c1.2,2.667,0.4,5.483-2.4,8.45c-1.567,1.667-4.2,4.017-7.9,7.05c-3.4,3.433-7.233,6.75-11.5,9.95
	c-1.567,1.167-3.4,2.8-5.5,4.9c-2.667,2.6-4.45,4.3-5.35,5.1c-3.667,3.134-6.183,5.15-7.55,6.05c-4.4,2.8-7.25,2.95-8.55,0.45l4-20
	c0.434-4.1,2.267-8.6,5.5-13.5c2.233-3.433,5.317-7.283,9.25-11.55c1-1.2,1.783-2.133,2.35-2.8c1-1.2,1.883-2.017,2.65-2.45
	c1.467-0.833,3.6-1.167,6.4-1C89.433,0.184,91.617,0.583,93.75,1.25z"/>
<radialGradient id="SVGID_5_" cx="117.1499" cy="20.3496" r="30.925" gradientTransform="matrix(1 0 0 -1 0 40.6992)" gradientUnits="userSpaceOnUse">
	<stop  offset="0.0745" style="stop-color:#000000;stop-opacity:0"/>
	<stop  offset="0.8902" style="stop-color:#000000;stop-opacity:0.4784"/>
	<stop  offset="1" style="stop-color:#000000;stop-opacity:0.6784"/>
</radialGradient>
<path style="fill-rule:evenodd;clip-rule:evenodd;fill:url(#SVGID_5_);" d="M99.05,61.35l-6-20c1.533-3.899,4.1-7.216,7.7-9.95
	c3.367-2.567,7.117-4.267,11.25-5.1c2.9-0.366,5.167-0.683,6.8-0.95c2.967-0.466,5.033-1.116,6.2-1.95
	c5.1,5.367,7.117,12.417,6.05,21.15c-0.467,3.767-2.9,6.583-7.3,8.45c-0.8,0.333-4.883,1.467-12.25,3.4
	c-0.9,0.267-3.15,0.817-6.75,1.65C101.483,59.05,99.583,60.15,99.05,61.35z"/>
<radialGradient id="SVGID_6_" cx="136.6001" cy="60.75" r="24.3" gradientTransform="matrix(1 0 0 -1 0 121.5)" gradientUnits="userSpaceOnUse">
	<stop  offset="0.0745" style="stop-color:#000000;stop-opacity:0"/>
	<stop  offset="0.8902" style="stop-color:#000000;stop-opacity:0.4784"/>
	<stop  offset="1" style="stop-color:#000000;stop-opacity:0.6784"/>
</radialGradient>
<path style="fill-rule:evenodd;clip-rule:evenodd;fill:url(#SVGID_6_);" d="M82.05,85.9l-2,1.45
	C80.065,86.739,80.732,86.256,82.05,85.9l31-22.55c2.733-1.633,6.4-2.616,11-2.95c0.567-0.033,4.483-0.05,11.75-0.05
	c2-0.166,3.317-0.216,3.95-0.149c1.033,0.1,1.9,0.767,2.6,2c0.533,0.933,0.8,2.3,0.8,4.1c-0.067,2.033-0.1,3.467-0.1,4.3
	c0.133,2.567,0.184,4.534,0.15,5.9c-0.066,2.434-0.533,4.3-1.4,5.6c-2.033,3.034-13.017,4.217-32.95,3.55
	c-10.767-0.333-17.4-0.483-19.9-0.45C85.821,85.271,83.521,85.504,82.05,85.9z"/>
<radialGradient id="SVGID_7_" cx="312.7998" cy="74.5996" r="22.8375" gradientTransform="matrix(1 0 0 -1 0 149.1992)" gradientUnits="userSpaceOnUse">
	<stop  offset="0.0745" style="stop-color:#000000;stop-opacity:0"/>
	<stop  offset="0.8902" style="stop-color:#000000;stop-opacity:0.4784"/>
	<stop  offset="1" style="stop-color:#000000;stop-opacity:0.6784"/>
</radialGradient>
<path style="fill-rule:evenodd;clip-rule:evenodd;fill:url(#SVGID_7_);" d="M330.75,70.15c0.066,0.034,3.233,1.4,9.5,4.1
	c3.233,1.833,5.816,3.283,7.75,4.35c3.6,2,6.283,2.917,8.05,2.75l-15,23c-2.134,0.367-5.233-0.217-9.3-1.75
	c-2.233-0.833-5.1-2.05-8.6-3.65c-1.434-0.534-4.867-1.6-10.301-3.2c-4.934-1.7-7.9-3.467-8.9-5.3c-0.766-1.4-0.466-4.117,0.9-8.15
	c1.033-3.033,2.167-5.616,3.4-7.75c3.533-6.066,7.75-8.583,12.65-7.55C323.733,67.6,327.017,68.65,330.75,70.15z"/>
<radialGradient id="SVGID_8_" cx="341.4492" cy="41.4502" r="21.2875" gradientTransform="matrix(1 0 0 -1 0 82.9004)" gradientUnits="userSpaceOnUse">
	<stop  offset="0.0745" style="stop-color:#000000;stop-opacity:0"/>
	<stop  offset="0.8902" style="stop-color:#000000;stop-opacity:0.4784"/>
	<stop  offset="1" style="stop-color:#000000;stop-opacity:0.6784"/>
</radialGradient>
<path style="fill-rule:evenodd;clip-rule:evenodd;fill:url(#SVGID_8_);" d="M363.15,54.8c1.633,5.6,3.266,9.45,4.899,11.55l-8,7
	c-2.167,0.034-4.667-1.149-7.5-3.55c-1.566-1.3-3.583-3.283-6.05-5.95c-0.167-0.133-2.316-2.316-6.45-6.55
	c-2.601-2.667-4.851-4.75-6.75-6.25c-0.833-0.633-1.917-1.383-3.25-2.25c-0.899-0.8-1.283-2.017-1.149-3.65
	c0.133-2.133,1.732-5.133,4.799-9c2.934-3.767,5.418-6.133,7.451-7.1c4.5-2.1,8.266-1.933,11.299,0.5
	c2.4,1.934,4.534,5.533,6.4,10.8C359.017,40.816,360.449,45.633,363.15,54.8z"/>
<radialGradient id="SVGID_9_" cx="378.4502" cy="28.1499" r="19" gradientTransform="matrix(1 0 0 -1 0 56.2998)" gradientUnits="userSpaceOnUse">
	<stop  offset="0.0745" style="stop-color:#000000;stop-opacity:0"/>
	<stop  offset="0.8902" style="stop-color:#000000;stop-opacity:0.4784"/>
	<stop  offset="1" style="stop-color:#000000;stop-opacity:0.6784"/>
</radialGradient>
<path style="fill-rule:evenodd;clip-rule:evenodd;fill:url(#SVGID_9_);" d="M378.7,25.05c4.433-0.3,7.95,0.1,10.55,1.2
	c2.833,1.233,4.467,3.533,4.9,6.9c0,4.3,0.05,7.55,0.149,9.75c0.533,10.367,0.783,19.85,0.75,28.45l-20-18
	c-0.933-2.6-2.533-7-4.8-13.2c-1.801-5.5-2.566-10.05-2.301-13.65C373.217,25.667,376.8,25.184,378.7,25.05z"/>
<path style="fill-rule:evenodd;clip-rule:evenodd;fill:#9D9153;" d="M149.95,177.75c18.467-14,43.833-22.133,76.1-24.4
	c17.567-1.233,34.351-0.434,50.351,2.4c15.666,2.767,29.6,7.3,41.799,13.6c12.301,6.4,22.034,14.2,29.201,23.4
	c7.467,9.533,11.683,20.066,12.649,31.6c2.067,24.301,1.649,57.467-1.25,99.5c-2.967,43.101-6.884,69.267-11.75,78.5
	c-5.101,9.667-9.851,16.134-14.25,19.4c-4.533,3.333-7.783,2.533-9.75-2.4c-1.667-4.166-3-9.916-4-17.25
	c-0.5-3.666-0.833-6.916-1-9.75l-20.601,1.5c-18.5,0.667-39.633,0.167-63.399-1.5c-38-2.666-64.333-4.666-79-6
	c0.833,5.667,1.05,11.384,0.65,17.15c-0.833,11.5-4.383,17.45-10.65,17.85c-4,0.233-8.55-8.083-13.65-24.949
	c-5.067-16.733-7.85-32.417-8.35-47.051c-0.333-9.666-1.783-31.449-4.35-65.35c-1.733-31.566-0.95-53.117,2.35-64.65
	C125.85,202.517,135.483,188.65,149.95,177.75z"/>
<linearGradient id="SVGID_10_" gradientUnits="userSpaceOnUse" x1="117.8047" y1="288.2773" x2="361.3398" y2="288.2773">
	<stop  offset="0" style="stop-color:#0A0602;stop-opacity:0.298"/>
	<stop  offset="0.2627" style="stop-color:#897733;stop-opacity:0"/>
	<stop  offset="0.4" style="stop-color:#584C1E;stop-opacity:0.1569"/>
	<stop  offset="0.5569" style="stop-color:#241E08;stop-opacity:0.3216"/>
	<stop  offset="0.6745" style="stop-color:#040402;stop-opacity:0.4196"/>
	<stop  offset="0.7412" style="stop-color:#000000;stop-opacity:0.4588"/>
	<stop  offset="0.7843" style="stop-color:#0B0903;stop-opacity:0.5216"/>
	<stop  offset="0.8667" style="stop-color:#443A18;stop-opacity:0.6902"/>
	<stop  offset="0.9843" style="stop-color:#978440;stop-opacity:0.9608"/>
	<stop  offset="1" style="stop-color:#A28E45"/>
</linearGradient>
<path style="fill-rule:evenodd;clip-rule:evenodd;fill:url(#SVGID_10_);" d="M149.95,177.75c18.467-14,43.833-22.133,76.1-24.4
	c17.567-1.233,34.351-0.434,50.351,2.4c15.666,2.767,29.6,7.3,41.799,13.6c12.301,6.4,22.034,14.2,29.201,23.4
	c7.467,9.533,11.683,20.066,12.649,31.6c2.067,24.301,1.649,57.467-1.25,99.5c-2.967,43.101-6.884,69.267-11.75,78.5
	c-5.101,9.667-9.851,16.134-14.25,19.4c-4.533,3.333-7.783,2.533-9.75-2.4c-1.667-4.166-3-9.916-4-17.25
	c-0.5-3.666-0.833-6.916-1-9.75l-20.601,1.5c-18.5,0.667-39.633,0.167-63.399-1.5c-38-2.666-64.333-4.666-79-6
	c0.833,5.667,1.05,11.384,0.65,17.15c-0.833,11.5-4.383,17.45-10.65,17.85c-4,0.233-8.55-8.083-13.65-24.949
	c-5.067-16.733-7.85-32.417-8.35-47.051c-0.333-9.666-1.783-31.449-4.35-65.35c-1.733-31.566-0.95-53.117,2.35-64.65
	C125.85,202.517,135.483,188.65,149.95,177.75z"/>
<path style="fill-rule:evenodd;clip-rule:evenodd;fill:#5B451F;" d="M355.15,300.9c1.266,3.699,1.899,8.183,1.899,13.449
	s-0.634,9.75-1.899,13.45c-1.268,3.7-2.801,5.55-4.601,5.55s-3.333-1.85-4.601-5.55c-1.266-3.7-1.899-8.184-1.899-13.45
	s0.634-9.75,1.899-13.449c1.268-3.7,2.801-5.551,4.601-5.551S353.883,297.2,355.15,300.9z"/>
<path style="fill-rule:evenodd;clip-rule:evenodd;fill:#5B451F;" d="M132.65,300.9c1.267,3.699,1.9,8.183,1.9,13.449
	s-0.633,9.75-1.9,13.45s-2.8,5.55-4.6,5.55c-1.8,0-3.333-1.85-4.6-5.55c-1.267-3.7-1.9-8.184-1.9-13.45s0.633-9.75,1.9-13.449
	c1.267-3.7,2.8-5.551,4.6-5.551C129.85,295.35,131.383,297.2,132.65,300.9z"/>
<radialGradient id="SVGID_11_" cx="239.5723" cy="332.2002" r="168.4662" gradientTransform="matrix(1 0 0 -1.1796 0 724.0614)" gradientUnits="userSpaceOnUse">
	<stop  offset="0.0745" style="stop-color:#000000;stop-opacity:0"/>
	<stop  offset="0.8902" style="stop-color:#000000;stop-opacity:0.4784"/>
	<stop  offset="1" style="stop-color:#000000;stop-opacity:0.6784"/>
</radialGradient>
<path style="fill-rule:evenodd;clip-rule:evenodd;fill:url(#SVGID_11_);" d="M149.95,177.75c18.467-14,43.833-22.133,76.1-24.4
	c17.567-1.233,34.351-0.434,50.351,2.4c15.666,2.767,29.6,7.3,41.799,13.6c12.301,6.4,22.034,14.2,29.201,23.4
	c7.467,9.533,11.683,20.066,12.649,31.6c2.067,24.301,1.649,57.467-1.25,99.5c-2.967,43.101-6.884,69.267-11.75,78.5
	c-5.101,9.667-9.851,16.134-14.25,19.4c-4.533,3.333-7.783,2.533-9.75-2.4c-1.667-4.166-3-9.916-4-17.25
	c-0.5-3.666-0.833-6.916-1-9.75l-20.601,1.5c-18.5,0.667-39.633,0.167-63.399-1.5c-38-2.666-64.333-4.666-79-6
	c0.833,5.667,1.05,11.384,0.65,17.15c-0.833,11.5-4.383,17.45-10.65,17.85c-4,0.233-8.55-8.083-13.65-24.949
	c-5.067-16.733-7.85-32.417-8.35-47.051c-0.333-9.666-1.783-31.449-4.35-65.35c-1.733-31.566-0.95-53.117,2.35-64.65
	C125.85,202.517,135.483,188.65,149.95,177.75z"/>
<path style="fill-rule:evenodd;clip-rule:evenodd;fill:#9D9153;" d="M60.45,23.85c8.967-0.8,19.167,1.034,30.6,5.5
	c10.067,3.934,19.817,13.767,29.25,29.5c3.5,5.834,6.5,11.75,9,17.75c2.233,5.334,3.483,9.25,3.75,11.75
	c0.2,1.934-0.717,3.767-2.75,5.5c-1.3,1.1-4.167,3.15-8.6,6.15c-10.733,7.8-20.283,18.917-28.65,33.35
	c-5.833,10.066-10.967,21.716-15.4,34.95c-4.867,14.467-8.1,28.567-9.7,42.3c-4,34.033,2.367,58.283,19.1,72.75
	c6.7,5.801,15.533,9.533,26.5,11.2c3.467,0.533,6.917,0.833,10.35,0.9l4.15-0.101c5,3.767,6.667,8.567,5,14.4
	c-0.533,1.8-1.35,3.616-2.45,5.45c-0.567,0.899-1.083,1.616-1.55,2.149L119.7,318c-8.833,0.167-19.716-0.384-32.65-1.65
	c-8.467-0.833-17.267-3.283-26.4-7.35c-10.367-4.634-19.683-10.8-27.95-18.5c-20.867-19.4-31.75-44.783-32.65-76.15
	c-0.833-29.333,5.75-66.867,19.75-112.6c7.167-23.434,15.25-46.233,24.25-68.4C46.05,27.816,51.517,24.65,60.45,23.85z"/>
<path style="fill-rule:evenodd;clip-rule:evenodd;fill:#9D9153;" d="M411.05,53.35c0.5,1.4,4.667,8.05,12.5,19.95
	c9.434,14.333,17.283,27.15,23.55,38.45c21.834,39.533,32.334,73.733,31.5,102.6c-0.899,31.367-11.767,56.75-32.6,76.15
	c-8.3,7.667-17.634,13.833-28,18.5c-9.134,4.066-17.934,6.517-26.4,7.35c-12.899,1.267-23.767,1.817-32.6,1.65
	c-4.434-0.1-7.566-0.316-9.4-0.65l-1.55-2.149c-1.101-1.834-1.917-3.65-2.45-5.45c-1.666-5.833,0-10.634,5-14.4
	c4.167,0.334,8.983,0.067,14.45-0.8c11-1.667,19.851-5.399,26.55-11.2c16.367-14.166,21.483-35.083,15.351-62.75
	c-4.134-18.7-13.767-41.117-28.9-67.25c-8.533-14.733-20.733-25.85-36.601-33.35c-3.799-1.8-8.516-3.85-14.149-6.15
	c-3.7-1.8-5.45-3.633-5.25-5.5c0.267-2.5,1.517-6.417,3.75-11.75c2.5-6,5.5-11.917,9-17.75c9.434-15.733,19.184-25.566,29.25-29.5
	c11.434-4.466,21.65-6.3,30.65-5.5C403.6,44.65,409.05,47.816,411.05,53.35z"/>
<linearGradient id="SVGID_12_" gradientUnits="userSpaceOnUse" x1="-0.0205" y1="170.8486" x2="133.6748" y2="170.8486">
	<stop  offset="0" style="stop-color:#0A0602;stop-opacity:0.298"/>
	<stop  offset="0.2627" style="stop-color:#897733;stop-opacity:0"/>
	<stop  offset="0.4" style="stop-color:#584C1E;stop-opacity:0.1569"/>
	<stop  offset="0.5569" style="stop-color:#241E08;stop-opacity:0.3216"/>
	<stop  offset="0.6745" style="stop-color:#040402;stop-opacity:0.4196"/>
	<stop  offset="0.7412" style="stop-color:#000000;stop-opacity:0.4588"/>
	<stop  offset="0.7843" style="stop-color:#0B0903;stop-opacity:0.5216"/>
	<stop  offset="0.8667" style="stop-color:#443A18;stop-opacity:0.6902"/>
	<stop  offset="0.9843" style="stop-color:#978440;stop-opacity:0.9608"/>
	<stop  offset="1" style="stop-color:#A28E45"/>
</linearGradient>
<path style="fill-rule:evenodd;clip-rule:evenodd;fill:url(#SVGID_12_);" d="M60.45,23.85c8.967-0.8,19.167,1.034,30.6,5.5
	c10.067,3.934,19.817,13.767,29.25,29.5c3.5,5.834,6.5,11.75,9,17.75c2.233,5.334,3.483,9.25,3.75,11.75
	c0.2,1.934-0.717,3.767-2.75,5.5c-1.3,1.1-4.167,3.15-8.6,6.15c-10.733,7.8-20.283,18.917-28.65,33.35
	c-5.833,10.066-10.967,21.716-15.4,34.95c-4.867,14.467-8.1,28.567-9.7,42.3c-4,34.033,2.367,58.283,19.1,72.75
	c6.7,5.801,15.533,9.533,26.5,11.2c3.467,0.533,6.917,0.833,10.35,0.9l4.15-0.101c5,3.767,6.667,8.567,5,14.4
	c-0.533,1.8-1.35,3.616-2.45,5.45c-0.567,0.899-1.083,1.616-1.55,2.149L119.7,318c-8.833,0.167-19.716-0.384-32.65-1.65
	c-8.467-0.833-17.267-3.283-26.4-7.35c-10.367-4.634-19.683-10.8-27.95-18.5c-20.867-19.4-31.75-44.783-32.65-76.15
	c-0.833-29.333,5.75-66.867,19.75-112.6c7.167-23.434,15.25-46.233,24.25-68.4C46.05,27.816,51.517,24.65,60.45,23.85z"/>
<linearGradient id="SVGID_13_" gradientUnits="userSpaceOnUse" x1="322.0342" y1="180.8486" x2="478.6455" y2="180.8486">
	<stop  offset="0" style="stop-color:#0A0602;stop-opacity:0.298"/>
	<stop  offset="0.2627" style="stop-color:#897733;stop-opacity:0"/>
	<stop  offset="0.4" style="stop-color:#584C1E;stop-opacity:0.1569"/>
	<stop  offset="0.5569" style="stop-color:#241E08;stop-opacity:0.3216"/>
	<stop  offset="0.6745" style="stop-color:#040402;stop-opacity:0.4196"/>
	<stop  offset="0.7412" style="stop-color:#000000;stop-opacity:0.4588"/>
	<stop  offset="0.7843" style="stop-color:#0B0903;stop-opacity:0.5216"/>
	<stop  offset="0.8667" style="stop-color:#443A18;stop-opacity:0.6902"/>
	<stop  offset="0.9843" style="stop-color:#978440;stop-opacity:0.9608"/>
	<stop  offset="1" style="stop-color:#A28E45"/>
</linearGradient>
<path style="fill-rule:evenodd;clip-rule:evenodd;fill:url(#SVGID_13_);" d="M411.05,53.35c0.5,1.4,4.667,8.05,12.5,19.95
	c9.434,14.333,17.283,27.15,23.55,38.45c21.834,39.533,32.334,73.733,31.5,102.6c-0.899,31.367-11.767,56.75-32.6,76.15
	c-8.3,7.667-17.634,13.833-28,18.5c-9.134,4.066-17.934,6.517-26.4,7.35c-12.899,1.267-23.767,1.817-32.6,1.65
	c-4.434-0.1-7.566-0.316-9.4-0.65l-1.55-2.149c-1.101-1.834-1.917-3.65-2.45-5.45c-1.666-5.833,0-10.634,5-14.4
	c4.167,0.334,8.983,0.067,14.45-0.8c11-1.667,19.851-5.399,26.55-11.2c16.367-14.166,21.483-35.083,15.351-62.75
	c-4.134-18.7-13.767-41.117-28.9-67.25c-8.533-14.733-20.733-25.85-36.601-33.35c-3.799-1.8-8.516-3.85-14.149-6.15
	c-3.7-1.8-5.45-3.633-5.25-5.5c0.267-2.5,1.517-6.417,3.75-11.75c2.5-6,5.5-11.917,9-17.75c9.434-15.733,19.184-25.566,29.25-29.5
	c11.434-4.466,21.65-6.3,30.65-5.5C403.6,44.65,409.05,47.816,411.05,53.35z"/>
<radialGradient id="SVGID_14_" cx="49.7998" cy="149.7998" r="178.2375" gradientTransform="matrix(1 0 0 -1 0 299.5996)" gradientUnits="userSpaceOnUse">
	<stop  offset="0.0745" style="stop-color:#000000;stop-opacity:0"/>
	<stop  offset="0.8902" style="stop-color:#000000;stop-opacity:0.4784"/>
	<stop  offset="1" style="stop-color:#000000;stop-opacity:0.6784"/>
</radialGradient>
<path style="fill-rule:evenodd;clip-rule:evenodd;fill:url(#SVGID_14_);" d="M60.45,23.85c8.967-0.8,19.167,1.034,30.6,5.5
	c10.067,3.934,19.817,13.767,29.25,29.5c3.5,5.834,6.5,11.75,9,17.75c2.233,5.334,3.483,9.25,3.75,11.75
	c0.2,1.934-0.717,3.767-2.75,5.5c-1.3,1.1-4.167,3.15-8.6,6.15c-10.733,7.8-20.283,18.917-28.65,33.35
	c-5.833,10.066-10.967,21.716-15.4,34.95c-4.867,14.467-8.1,28.567-9.7,42.3c-4,34.033,2.367,58.283,19.1,72.75
	c6.7,5.801,15.533,9.533,26.5,11.2c3.467,0.533,6.917,0.833,10.35,0.9l4.15-0.101c5,3.767,6.667,8.567,5,14.4
	c-0.533,1.8-1.35,3.616-2.45,5.45c-0.567,0.899-1.083,1.616-1.55,2.149L119.7,318c-8.833,0.167-19.716-0.384-32.65-1.65
	c-8.467-0.833-17.267-3.283-26.4-7.35c-10.367-4.634-19.683-10.8-27.95-18.5c-20.867-19.4-31.75-44.783-32.65-76.15
	c-0.833-29.333,5.75-66.867,19.75-112.6c7.167-23.434,15.25-46.233,24.25-68.4C46.05,27.816,51.517,24.65,60.45,23.85z"/>
<radialGradient id="SVGID_15_" cx="374.2998" cy="159.8501" r="183.85" gradientTransform="matrix(1 0 0 -1 0 319.7002)" gradientUnits="userSpaceOnUse">
	<stop  offset="0.0745" style="stop-color:#000000;stop-opacity:0"/>
	<stop  offset="0.8902" style="stop-color:#000000;stop-opacity:0.4784"/>
	<stop  offset="1" style="stop-color:#000000;stop-opacity:0.6784"/>
</radialGradient>
<path style="fill-rule:evenodd;clip-rule:evenodd;fill:url(#SVGID_15_);" d="M411.05,53.35c0.5,1.4,4.667,8.05,12.5,19.95
	c9.434,14.333,17.283,27.15,23.55,38.45c21.834,39.533,32.334,73.733,31.5,102.6c-0.899,31.367-11.767,56.75-32.6,76.15
	c-8.3,7.667-17.634,13.833-28,18.5c-9.134,4.066-17.934,6.517-26.4,7.35c-12.899,1.267-23.767,1.817-32.6,1.65
	c-4.434-0.1-7.566-0.316-9.4-0.65l-1.55-2.149c-1.101-1.834-1.917-3.65-2.45-5.45c-1.666-5.833,0-10.634,5-14.4
	c4.167,0.334,8.983,0.067,14.45-0.8c11-1.667,19.851-5.399,26.55-11.2c16.367-14.166,21.483-35.083,15.351-62.75
	c-4.134-18.7-13.767-41.117-28.9-67.25c-8.533-14.733-20.733-25.85-36.601-33.35c-3.799-1.8-8.516-3.85-14.149-6.15
	c-3.7-1.8-5.45-3.633-5.25-5.5c0.267-2.5,1.517-6.417,3.75-11.75c2.5-6,5.5-11.917,9-17.75c9.434-15.733,19.184-25.566,29.25-29.5
	c11.434-4.466,21.65-6.3,30.65-5.5C403.6,44.65,409.05,47.816,411.05,53.35z"/>
<radialGradient id="SVGID_16_" cx="239.5498" cy="395.8496" r="159.825" gradientTransform="matrix(1 0 0 -1.1294 0 842.9064)" gradientUnits="userSpaceOnUse">
	<stop  offset="0.0745" style="stop-color:#000000;stop-opacity:0"/>
	<stop  offset="0.8902" style="stop-color:#000000;stop-opacity:0.4784"/>
	<stop  offset="1" style="stop-color:#000000;stop-opacity:0.6784"/>
</radialGradient>
<path style="fill-rule:evenodd;clip-rule:evenodd;fill:url(#SVGID_16_);" d="M194.25,221.15c11.433,1.8,19.7,3.117,24.8,3.95
	c8.934,1.4,15.35,2.167,19.25,2.301c13.634,0.466,27.333,0.216,41.101-0.75c14-1.301,23.649-2.184,28.949-2.65
	c8.9-0.8,15.6-0.833,20.1-0.1c5.701,0.9,10.551,3.2,14.551,6.9c7.6,7.066,10.233,14.45,7.9,22.15c-0.9,3-2.451,5.633-4.65,7.899
	c-2.033,2.101-4.133,3.45-6.301,4.051c-2.799,0.8-15.133,0.149-37-1.95c-25.466-2.467-42.316-3.7-50.549-3.7
	c-5.367,0-14.15,0.733-26.351,2.2c-7,0.833-18.316,2.233-33.95,4.2c-29.367,3.399-48.2,3.533-56.5,0.399
	c-5.034-1.899-8.217-5.066-9.55-9.5c-1.2-4-0.833-8.55,1.1-13.649c1.9-4.9,4.85-9.384,8.85-13.45c4.2-4.267,8.767-7.233,13.7-8.9
	C157.733,217.85,172.583,218.05,194.25,221.15z"/>
<path style="fill-rule:evenodd;clip-rule:evenodd;fill:#FCEE00;" d="M148.55,189.85c3.033-0.1,4.95,0.833,5.75,2.8
	c0.667,1.767,0.417,3.967-0.75,6.6c-1.133,2.533-2.75,4.65-4.85,6.35c-2.3,1.867-4.517,2.617-6.65,2.25
	c-2.1-0.333-3.283-1.467-3.55-3.4c-0.233-1.667,0.233-3.7,1.4-6.1c1.067-2.2,2.433-4.133,4.1-5.8
	C145.733,190.783,147.25,189.883,148.55,189.85z"/>
<path style="fill-rule:evenodd;clip-rule:evenodd;fill:#FCEE00;" d="M330.55,189.85c1.3,0.033,2.817,0.933,4.55,2.7
	c1.667,1.667,3.033,3.6,4.1,5.8c2.734,5.633,2.018,8.8-2.149,9.5c-2.134,0.367-4.351-0.383-6.649-2.25
	c-2.101-1.7-3.717-3.817-4.851-6.35c-1.167-2.633-1.417-4.833-0.75-6.6C325.6,190.683,327.517,189.75,330.55,189.85z"/>
<radialGradient id="SVGID_17_" cx="147.0498" cy="197.5498" r="65.25" gradientTransform="matrix(1 0 0 -1 0 395.0996)" gradientUnits="userSpaceOnUse">
	<stop  offset="0" style="stop-color:#FCFCFC;stop-opacity:0.7373"/>
	<stop  offset="0.1216" style="stop-color:#FCEE00;stop-opacity:0.7373"/>
	<stop  offset="1" style="stop-color:#FCEE00;stop-opacity:0"/>
</radialGradient>
<path style="fill-rule:evenodd;clip-rule:evenodd;fill:url(#SVGID_17_);" d="M147.05,132.3c18.033,0,33.417,6.383,46.15,19.15
	c12.733,12.733,19.1,28.1,19.1,46.1c0,18.033-6.367,33.417-19.1,46.15c-12.733,12.733-28.117,19.1-46.15,19.1
	c-18,0-33.367-6.366-46.1-19.1c-12.767-12.733-19.15-28.117-19.15-46.15c0-18,6.383-33.367,19.15-46.1
	C113.683,138.683,129.05,132.3,147.05,132.3z"/>
<radialGradient id="SVGID_18_" cx="331.5498" cy="197.5498" r="65.25" gradientTransform="matrix(1 0 0 -1 0 395.0996)" gradientUnits="userSpaceOnUse">
	<stop  offset="0" style="stop-color:#FCFCFC;stop-opacity:0.7373"/>
	<stop  offset="0.1216" style="stop-color:#FCEE00;stop-opacity:0.7373"/>
	<stop  offset="1" style="stop-color:#FCEE00;stop-opacity:0"/>
</radialGradient>
<path style="fill-rule:evenodd;clip-rule:evenodd;fill:url(#SVGID_18_);" d="M331.55,132.3c18.033,0,33.417,6.383,46.15,19.15
	c12.733,12.733,19.1,28.1,19.1,46.1c0,18.033-6.366,33.417-19.1,46.15s-28.117,19.1-46.15,19.1s-33.417-6.366-46.149-19.1
	c-12.734-12.733-19.101-28.117-19.101-46.15c0-18,6.366-33.367,19.101-46.1C298.133,138.683,313.517,132.3,331.55,132.3z"/>
</svg>
