<?xml version="1.0" encoding="iso-8859-1"?>
<!-- Generator: Adobe Illustrator 15.1.0, SVG Export Plug-In . SVG Version: 6.00 Build 0)  -->
<!DOCTYPE svg PUBLIC "-//W3C//DTD SVG 1.1//EN" "http://www.w3.org/Graphics/SVG/1.1/DTD/svg11.dtd">
<svg version="1.1" id="foreground" xmlns="http://www.w3.org/2000/svg" xmlns:xlink="http://www.w3.org/1999/xlink" x="0px" y="0px"
	 width="1635px" height="174.05px" viewBox="0 0 1635 174.05" style="enable-background:new 0 0 1635 174.05;" xml:space="preserve"
	>
<symbol  id="FlashAICB_x2F_foreground_x2F__x3C_Path_x3E_" viewBox="0 -174.05 1635 174.067">
	<g id="Layer_1_2_">
		
			<linearGradient id="SVGID_1_" gradientUnits="userSpaceOnUse" x1="15311.5459" y1="-1546.4536" x2="15485.5713" y2="-1546.4536" gradientTransform="matrix(5.746301e-006 1 -1 -0.001 -729.042 -15487.1035)">
			<stop  offset="0" style="stop-color:#FFFFFF;stop-opacity:0"/>
			<stop  offset="0.1216" style="stop-color:#E5E2DC;stop-opacity:0.1725"/>
			<stop  offset="0.349" style="stop-color:#BAB1A1;stop-opacity:0.4627"/>
			<stop  offset="0.5608" style="stop-color:#978A73;stop-opacity:0.6941"/>
			<stop  offset="0.7451" style="stop-color:#7F6E52;stop-opacity:0.8588"/>
			<stop  offset="0.898" style="stop-color:#705C3D;stop-opacity:0.9608"/>
			<stop  offset="1" style="stop-color:#6A5636"/>
		</linearGradient>
		<path style="fill-rule:evenodd;clip-rule:evenodd;fill:url(#SVGID_1_);" d="M1632-59.55l3-109.9l-665.95-4.6L969-170.9
			l-454.45-3.15l-0.05,3.55l-513-3.55L0-29.8c3.7,1.2,8.367,2.65,14,4.35C25.5-21.983,37.483-19,49.95-16.5
			c41.066,8.2,84.167,10.633,129.3,7.3c37.9-2.8,77.283-8.1,118.15-15.9c18.033-3.433,30.267-5.6,36.7-6.5
			c11.733-1.6,22.367-2.15,31.9-1.65c9.333,0.5,18.667,2.45,28,5.85c3.767,1.333,11.967,4.917,24.6,10.75
			c10.566,4.867,19.933,8.45,28.1,10.75c11.9,3.367,24.75,5.316,38.55,5.85c19.333,0.7,45.667-4.7,79-16.2
			c40.667,8,83.333,10.35,128,7.05c37.9-2.8,77.283-8.1,118.15-15.9c18.034-3.433,30.267-5.6,36.7-6.5
			c11.733-1.6,22.367-2.15,31.9-1.65c9.333,0.5,18.667,2.45,28,5.85c3.767,1.333,11.967,4.917,24.6,10.75
			c10.566,4.867,19.933,8.45,28.1,10.75c11.9,3.367,24.75,5.316,38.55,5.85c15.434,0.6,35.633-2.817,60.6-10.25
			c28.7,2.933,58.017,3.3,87.95,1.1c37.9-2.8,77.284-8.1,118.15-15.9c18.033-3.433,30.267-5.6,36.7-6.5
			c11.733-1.6,22.367-2.15,31.9-1.65c9.333,0.5,18.667,2.45,28,5.85c3.767,1.333,11.967,4.917,24.6,10.75
			c10.567,4.867,19.934,8.45,28.1,10.75c11.9,3.367,24.75,5.316,38.55,5.85c25.634,0.966,63.184-8.667,112.65-28.9
			C1590.217-39.05,1612.4-49.25,1632-59.55z"/>
	</g>
</symbol>
<path style="fill-rule:evenodd;clip-rule:evenodd;fill:#4C3B2A;" d="M1632,59.55l3,109.9l-665.95,4.6L969,170.9l-454.45,3.149
	l-0.05-3.55l-513,3.55L0,29.8c3.7-1.2,8.367-2.65,14-4.35C25.5,21.983,37.483,19,49.95,16.5c41.066-8.2,84.167-10.633,129.3-7.3
	c37.9,2.8,77.283,8.1,118.15,15.9c18.033,3.433,30.267,5.6,36.7,6.5c11.733,1.6,22.367,2.15,31.9,1.65
	c9.333-0.5,18.667-2.45,28-5.85c3.767-1.333,11.967-4.917,24.6-10.75c10.566-4.867,19.933-8.45,28.1-10.75
	c11.9-3.367,24.75-5.316,38.55-5.85c19.333-0.7,45.667,4.7,79,16.2c40.667-8,83.333-10.35,128-7.05c37.9,2.8,77.283,8.1,118.15,15.9
	c18.034,3.433,30.267,5.6,36.7,6.5c11.733,1.6,22.367,2.15,31.9,1.65c9.333-0.5,18.667-2.45,28-5.85
	c3.767-1.333,11.967-4.917,24.6-10.75C942.167,11.783,951.533,8.2,959.7,5.9c11.899-3.367,24.75-5.316,38.55-5.85
	c15.434-0.6,35.633,2.817,60.6,10.25c28.7-2.933,58.018-3.3,87.95-1.1c37.9,2.8,77.283,8.1,118.15,15.9
	c18.033,3.433,30.267,5.6,36.7,6.5c11.732,1.6,22.366,2.15,31.899,1.65c9.333-0.5,18.667-2.45,28-5.85
	c3.767-1.333,11.967-4.917,24.601-10.75c10.566-4.867,19.933-8.45,28.1-10.75c11.9-3.367,24.75-5.316,38.55-5.85
	c25.634-0.966,63.184,8.667,112.65,28.9C1590.217,39.05,1612.4,49.25,1632,59.55z"/>
<use xlink:href="#FlashAICB_x2F_foreground_x2F__x3C_Path_x3E_"  width="1635" height="174.067" y="-174.05" transform="matrix(1 0 0 -1 0 0)" style="overflow:visible;opacity:0.3008;enable-background:new    ;"/>
</svg>
