<?xml version="1.0" encoding="iso-8859-1"?>
<!-- Generator: Adobe Illustrator 15.1.0, SVG Export Plug-In . SVG Version: 6.00 Build 0)  -->
<!DOCTYPE svg PUBLIC "-//W3C//DTD SVG 1.1//EN" "http://www.w3.org/Graphics/SVG/1.1/DTD/svg11.dtd">
<svg version="1.1" id="Layer_1" xmlns="http://www.w3.org/2000/svg" xmlns:xlink="http://www.w3.org/1999/xlink" x="0px" y="0px"
	 width="309.95px" height="135.55px" viewBox="0 0 309.95 135.55" style="enable-background:new 0 0 309.95 135.55;"
	 xml:space="preserve">
<symbol  id="FlashAICB_x2F_front_ground_2_x2F__x3C_Clip_Group_0_x3E_" viewBox="0 -103 303.35 103">
	<g id="Layer_1_57_">
	</g>
	<g>
		<defs>
			<path id="SVGID_1_" d="M296.3-13.3c2.434,5.6,4.784,10.033,7.05,13.3L0-6.65c2.133-2.9,4.383-6.817,6.75-11.75
				c4.8-9.9,7.883-19.983,9.25-30.25c1.089-8.012,1.181-15.962,0.275-23.85l1.525-1.2c2.733-1.9,5.25-3.167,7.55-3.8
				c3.667-1,9.667-1.833,18-2.5l11.3,1.55c8.767,0.934,16.167,1.083,22.2,0.45s12.6-2.4,19.7-5.3c3.534-1.467,6.467-2.867,8.8-4.2
				l5.2-1.25c4.4-0.833,9-1.25,13.8-1.25c4.8,0,8.816,0.333,12.05,1c1.633,0.333,2.783,0.667,3.45,1l9.05,0.95
				c6.767,0.566,11.917,0.75,15.45,0.55s7.433-0.933,11.7-2.2c2.133-0.633,3.9-1.233,5.3-1.8l17.3-0.25
				c12.067,0.167,20.967,0.833,26.7,2s11.383,2.35,16.95,3.55c5.534,1.2,8.55,2.267,9.05,3.2c19.133-1.7,31.15-1.117,36.05,1.75
				c0.55,0.324,1.083,0.615,1.6,0.875c-1.359,9.939-1.692,20.614-1,32.025C288.7-35.817,291.467-24.467,296.3-13.3z"/>
		</defs>
		<clipPath id="SVGID_2_">
			<use xlink:href="#SVGID_1_"  style="overflow:visible;"/>
		</clipPath>
		<g id="Layer_3_1_" style="clip-path:url(#SVGID_2_);">
			<g>
				
					<use xlink:href="#FlashAICB_x2F_front_ground_2_x2F__x3C_Path_x3E__x5F_2"  width="63.35" height="85.2" y="-85.2" transform="matrix(1 0 0 1 36.9502 -17.7998)" style="overflow:visible;opacity:0.5;enable-background:new    ;"/>
				
					<use xlink:href="#FlashAICB_x2F_front_ground_2_x2F__x3C_Path_x3E__x5F_1"  width="156.75" height="92.8" y="-92.8" transform="matrix(1 0 0 1 100.8999 -6.1001)" style="overflow:visible;opacity:0.1992;enable-background:new    ;"/>
				
					<use xlink:href="#FlashAICB_x2F_front_ground_2_x2F__x3C_Path_x3E_"  width="50.35" height="92.75" y="-92.75" transform="matrix(1 0 0 1 134.7998 -2.6499)" style="overflow:visible;opacity:0.3008;enable-background:new    ;"/>
			</g>
		</g>
	</g>
	<g id="Layer_4_1_">
	</g>
</symbol>
<symbol  id="FlashAICB_x2F_front_ground_2_x2F__x3C_Group_x3E_" viewBox="22.7 -19.4 73.2 19.4">
	<g id="Layer_1_64_">
		<g>
			
				<use xlink:href="#FlashAICB_x2F_front_ground_2_x2F__x3C_Path_x3E__x5F_13_x5F_5"  width="17.05" height="8.05" y="-8.05" transform="matrix(1 0 0 1 28.0498 -4.7002)" style="overflow:visible;opacity:0.6992;enable-background:new    ;"/>
			<path style="fill-rule:evenodd;clip-rule:evenodd;fill:#55412D;" d="M53.45-2.7c0-0.733-0.517-1.35-1.55-1.85
				c-1.033-0.534-2.3-0.8-3.8-0.8c-1.467,0-2.717,0.267-3.75,0.8c-1.033,0.5-1.55,1.117-1.55,1.85c0,0.733,0.517,1.367,1.55,1.9
				C45.383-0.267,46.633,0,48.1,0c1.5,0,2.767-0.267,3.8-0.8C52.933-1.3,53.45-1.933,53.45-2.7z"/>
			<path style="fill-rule:evenodd;clip-rule:evenodd;fill:#55412D;" d="M52.45-9.55c0-0.333-0.233-0.6-0.7-0.8
				c-0.433-0.233-0.967-0.35-1.6-0.35c-0.667,0-1.217,0.117-1.65,0.35c-0.467,0.2-0.7,0.467-0.7,0.8c0,0.333,0.233,0.6,0.7,0.8
				c0.433,0.233,0.983,0.35,1.65,0.35c0.633,0,1.167-0.117,1.6-0.35C52.217-8.95,52.45-9.217,52.45-9.55z"/>
			<path style="fill-rule:evenodd;clip-rule:evenodd;fill:#55412D;" d="M62.85-16.25c0-0.867-0.817-1.617-2.45-2.25
				c-1.633-0.6-3.6-0.9-5.9-0.9c-2.333,0-4.317,0.3-5.95,0.9c-1.633,0.633-2.45,1.383-2.45,2.25s0.816,1.617,2.45,2.25
				s3.617,0.95,5.95,0.95c2.3,0,4.267-0.317,5.9-0.95S62.85-15.383,62.85-16.25z"/>
			
				<use xlink:href="#FlashAICB_x2F_front_ground_2_x2F__x3C_Path_x3E__x5F_9_x5F_5"  width="12" height="5.35" y="-5.35" transform="matrix(1 0 0 1 61.8501 -8.3999)" style="overflow:visible;opacity:0.6992;enable-background:new    ;"/>
			<path style="fill-rule:evenodd;clip-rule:evenodd;fill:#55412D;" d="M80.45-3.95c0.966-0.4,1.45-0.867,1.45-1.4
				c0-0.566-0.483-1.05-1.45-1.45c-0.934-0.4-2.067-0.6-3.4-0.6c-1.367,0-2.517,0.2-3.45,0.6c-0.934,0.4-1.4,0.883-1.4,1.45
				c0,0.567,0.466,1.033,1.4,1.4c0.967,0.4,2.117,0.6,3.45,0.6C78.383-3.35,79.517-3.55,80.45-3.95z"/>
			<path style="fill-rule:evenodd;clip-rule:evenodd;fill:#55412D;" d="M78.9-10.05c0-0.267-0.183-0.5-0.55-0.7s-0.8-0.3-1.3-0.3
				c-0.533,0-0.966,0.1-1.3,0.3c-0.367,0.2-0.55,0.433-0.55,0.7c0,0.267,0.183,0.5,0.55,0.7c0.333,0.2,0.767,0.3,1.3,0.3
				c0.5,0,0.934-0.1,1.3-0.3C78.717-9.55,78.9-9.783,78.9-10.05z"/>
			
				<use xlink:href="#FlashAICB_x2F_front_ground_2_x2F__x3C_Path_x3E__x5F_6_x5F_5"  width="4.35" height="2" y="-2" transform="matrix(1 0 0 1 64.1499 -0.3501)" style="overflow:visible;opacity:0.5;enable-background:new    ;"/>
			
				<use xlink:href="#FlashAICB_x2F_front_ground_2_x2F__x3C_Path_x3E__x5F_5_x5F_5"  width="5.3" height="2" y="-2" transform="matrix(1 0 0 1 90.6001 -4.3501)" style="overflow:visible;opacity:0.5;enable-background:new    ;"/>
			
				<use xlink:href="#FlashAICB_x2F_front_ground_2_x2F__x3C_Path_x3E__x5F_4_x5F_5"  width="-32766" height="-32766" x="16383" y="16383" transform="matrix(1 0 0 1 17.7002 -14.3999)" style="overflow:visible;opacity:0.5;enable-background:new    ;"/>
			<path style="fill-rule:evenodd;clip-rule:evenodd;fill:#55412D;" d="M27.05-10.7c0-0.267-0.2-0.5-0.6-0.7
				c-0.434-0.2-0.95-0.3-1.55-0.3s-1.117,0.1-1.55,0.3c-0.434,0.2-0.65,0.433-0.65,0.7c0,0.267,0.216,0.5,0.65,0.7
				c0.433,0.2,0.95,0.3,1.55,0.3s1.117-0.1,1.55-0.3C26.85-10.2,27.05-10.433,27.05-10.7z"/>
			
				<use xlink:href="#FlashAICB_x2F_front_ground_2_x2F__x3C_Path_x3E__x5F_1_x5F_6"  width="-32766" height="-32766" x="16383" y="16383" transform="matrix(1 0 0 1 4 -9.0498)" style="overflow:visible;opacity:0.6992;enable-background:new    ;"/>
			
				<use xlink:href="#FlashAICB_x2F_front_ground_2_x2F__x3C_Path_x3E__x5F_12"  width="4.35" height="2.15" y="-2.15" transform="matrix(1 0 0 1 81.5498 -7.7998)" style="overflow:visible;opacity:0.6992;enable-background:new    ;"/>
		</g>
	</g>
</symbol>
<symbol  id="FlashAICB_x2F_front_ground_2_x2F__x3C_Group_x3E__x5F_1" viewBox="0 -19.4 95.9 19.4">
	<g id="Layer_1_63_">
		<g>
			
				<use xlink:href="#FlashAICB_x2F_front_ground_2_x2F__x3C_Path_x3E__x5F_13_x5F_4"  width="17.05" height="8.05" y="-8.05" transform="matrix(1 0 0 1 28.0498 -4.6499)" style="overflow:visible;opacity:0.6992;enable-background:new    ;"/>
			<path style="fill-rule:evenodd;clip-rule:evenodd;fill:#55412D;" d="M53.45-2.65c0-0.733-0.517-1.367-1.55-1.9
				c-1.066-0.534-2.333-0.8-3.8-0.8s-2.733,0.267-3.8,0.8c-1.033,0.533-1.55,1.167-1.55,1.9S43.267-1.3,44.3-0.8
				C45.367-0.267,46.633,0,48.1,0s2.733-0.267,3.8-0.8C52.933-1.3,53.45-1.917,53.45-2.65z"/>
			<path style="fill-rule:evenodd;clip-rule:evenodd;fill:#55412D;" d="M52.45-9.5c0-0.333-0.233-0.617-0.7-0.85
				s-1.017-0.35-1.65-0.35s-1.167,0.117-1.6,0.35c-0.467,0.233-0.7,0.517-0.7,0.85s0.233,0.6,0.7,0.8
				c0.433,0.233,0.967,0.35,1.6,0.35c0.667,0,1.217-0.117,1.65-0.35C52.217-8.9,52.45-9.167,52.45-9.5z"/>
			<path style="fill-rule:evenodd;clip-rule:evenodd;fill:#55412D;" d="M62.85-16.2c0-0.867-0.817-1.617-2.45-2.25
				s-3.617-0.95-5.95-0.95c-2.3,0-4.267,0.316-5.9,0.95s-2.45,1.383-2.45,2.25s0.816,1.617,2.45,2.25c1.633,0.6,3.6,0.9,5.9,0.9
				c2.333,0,4.316-0.3,5.95-0.9C62.033-14.583,62.85-15.333,62.85-16.2z"/>
			
				<use xlink:href="#FlashAICB_x2F_front_ground_2_x2F__x3C_Path_x3E__x5F_9_x5F_4"  width="12.05" height="5.35" y="-5.35" transform="matrix(1 0 0 1 61.7998 -8.3501)" style="overflow:visible;opacity:0.6992;enable-background:new    ;"/>
			<path style="fill-rule:evenodd;clip-rule:evenodd;fill:#55412D;" d="M80.45-3.95c0.966-0.4,1.45-0.867,1.45-1.4
				c0-0.566-0.483-1.033-1.45-1.4c-0.934-0.4-2.067-0.6-3.4-0.6c-1.333,0-2.483,0.2-3.45,0.6c-0.934,0.367-1.4,0.833-1.4,1.4
				c0,0.567,0.466,1.033,1.4,1.4c0.967,0.4,2.117,0.6,3.45,0.6C78.383-3.35,79.517-3.55,80.45-3.95z"/>
			<path style="fill-rule:evenodd;clip-rule:evenodd;fill:#55412D;" d="M78.85-10c0-0.267-0.167-0.5-0.5-0.7
				c-0.367-0.2-0.8-0.3-1.3-0.3c-0.533,0-0.966,0.1-1.3,0.3c-0.367,0.2-0.55,0.434-0.55,0.7s0.183,0.5,0.55,0.7
				c0.333,0.2,0.767,0.3,1.3,0.3c0.5,0,0.934-0.1,1.3-0.3C78.683-9.5,78.85-9.733,78.85-10z"/>
			
				<use xlink:href="#FlashAICB_x2F_front_ground_2_x2F__x3C_Path_x3E__x5F_6_x5F_4"  width="4.35" height="2" y="-2" transform="matrix(1 0 0 1 64.1499 -0.3501)" style="overflow:visible;opacity:0.5;enable-background:new    ;"/>
			
				<use xlink:href="#FlashAICB_x2F_front_ground_2_x2F__x3C_Path_x3E__x5F_5_x5F_4"  width="5.35" height="2" y="-2" transform="matrix(1 0 0 1 90.5498 -4.3501)" style="overflow:visible;opacity:0.5;enable-background:new    ;"/>
			
				<use xlink:href="#FlashAICB_x2F_front_ground_2_x2F__x3C_Path_x3E__x5F_4_x5F_4"  width="8.35" height="3.7" y="-3.7" transform="matrix(1 0 0 1 17.7002 -14.3501)" style="overflow:visible;opacity:0.5;enable-background:new    ;"/>
			<path style="fill-rule:evenodd;clip-rule:evenodd;fill:#55412D;" d="M27.05-10.7c0-0.267-0.2-0.5-0.6-0.7
				c-0.434-0.2-0.95-0.3-1.55-0.3s-1.117,0.1-1.55,0.3c-0.434,0.2-0.65,0.433-0.65,0.7c0,0.267,0.216,0.5,0.65,0.7
				c0.433,0.2,0.95,0.3,1.55,0.3s1.117-0.1,1.55-0.3C26.85-10.2,27.05-10.433,27.05-10.7z"/>
			<path style="fill-rule:evenodd;clip-rule:evenodd;fill:#55412D;" d="M4.35-16.2c0-0.333-0.217-0.6-0.65-0.8
				c-0.434-0.233-0.95-0.35-1.55-0.35s-1.1,0.117-1.5,0.35C0.217-16.8,0-16.533,0-16.2c0,0.333,0.217,0.6,0.65,0.8
				c0.4,0.233,0.9,0.35,1.5,0.35s1.117-0.117,1.55-0.35C4.133-15.6,4.35-15.867,4.35-16.2z"/>
			
				<use xlink:href="#FlashAICB_x2F_front_ground_2_x2F__x3C_Path_x3E__x5F_1_x5F_5"  width="10.05" height="4.35" y="-4.35" transform="matrix(1 0 0 1 4 -9)" style="overflow:visible;opacity:0.6992;enable-background:new    ;"/>
			
				<use xlink:href="#FlashAICB_x2F_front_ground_2_x2F__x3C_Path_x3E__x5F_11"  width="4.35" height="2.2" y="-2.2" transform="matrix(1 0 0 1 81.5498 -7.75)" style="overflow:visible;opacity:0.6992;enable-background:new    ;"/>
		</g>
	</g>
</symbol>
<symbol  id="FlashAICB_x2F_front_ground_2_x2F__x3C_Group_x3E__x5F_2" viewBox="0 -9.4 46.4 9.4">
	<g id="Layer_1_62_">
		<g>
			
				<use xlink:href="#FlashAICB_x2F_front_ground_2_x2F__x3C_Path_x3E__x5F_13_x5F_3"  width="8.25" height="3.85" y="-3.85" transform="matrix(1 0 0 1 13.6001 -2.2998)" style="overflow:visible;opacity:0.6992;enable-background:new    ;"/>
			<path style="fill-rule:evenodd;clip-rule:evenodd;fill:#55412D;" d="M25.85-1.3c0-0.367-0.25-0.684-0.75-0.95
				C24.6-2.483,24-2.6,23.3-2.6c-0.733,0-1.35,0.117-1.85,0.35c-0.5,0.267-0.75,0.583-0.75,0.95s0.25,0.667,0.75,0.9
				C21.95-0.133,22.567,0,23.3,0c0.7,0,1.3-0.133,1.8-0.4C25.6-0.633,25.85-0.933,25.85-1.3z"/>
			<path style="fill-rule:evenodd;clip-rule:evenodd;fill:#55412D;" d="M25.4-4.65c0-0.367-0.383-0.55-1.15-0.55
				S23.1-5.017,23.1-4.65c0,0.4,0.383,0.6,1.15,0.6S25.4-4.25,25.4-4.65z"/>
			<path style="fill-rule:evenodd;clip-rule:evenodd;fill:#55412D;" d="M30.4-7.85c0-0.433-0.4-0.8-1.2-1.1
				c-0.767-0.3-1.717-0.45-2.85-0.45s-2.083,0.15-2.85,0.45c-0.8,0.3-1.2,0.667-1.2,1.1c0,0.434,0.4,0.783,1.2,1.05
				c0.767,0.3,1.717,0.45,2.85,0.45S28.433-6.5,29.2-6.8C30-7.067,30.4-7.417,30.4-7.85z"/>
			
				<use xlink:href="#FlashAICB_x2F_front_ground_2_x2F__x3C_Path_x3E__x5F_9_x5F_3"  width="5.85" height="2.6" y="-2.6" transform="matrix(1 0 0 1 29.8999 -4.0498)" style="overflow:visible;opacity:0.6992;enable-background:new    ;"/>
			<path style="fill-rule:evenodd;clip-rule:evenodd;fill:#55412D;" d="M39.6-2.6c0-0.267-0.233-0.5-0.7-0.7
				c-0.433-0.2-0.983-0.3-1.65-0.3c-0.633,0-1.167,0.1-1.6,0.3c-0.467,0.2-0.7,0.433-0.7,0.7s0.233,0.5,0.7,0.7
				c0.434,0.167,0.967,0.25,1.6,0.25c0.667,0,1.217-0.083,1.65-0.25C39.367-2.1,39.6-2.333,39.6-2.6z"/>
			<path style="fill-rule:evenodd;clip-rule:evenodd;fill:#55412D;" d="M38.15-4.85c0-0.333-0.3-0.5-0.9-0.5
				c-0.567,0-0.85,0.167-0.85,0.5c0,0.3,0.283,0.45,0.85,0.45C37.85-4.4,38.15-4.55,38.15-4.85z"/>
			
				<use xlink:href="#FlashAICB_x2F_front_ground_2_x2F__x3C_Path_x3E__x5F_6_x5F_3"  width="2.1" height="0.95" y="-0.95" transform="matrix(1 0 0 1 31.0498 -0.2002)" style="overflow:visible;opacity:0.5;enable-background:new    ;"/>
			
				<use xlink:href="#FlashAICB_x2F_front_ground_2_x2F__x3C_Path_x3E__x5F_5_x5F_3"  width="2.6" height="1" y="-1" transform="matrix(1 0 0 1 43.7998 -2.1001)" style="overflow:visible;opacity:0.5;enable-background:new    ;"/>
			
				<use xlink:href="#FlashAICB_x2F_front_ground_2_x2F__x3C_Path_x3E__x5F_4_x5F_3"  width="4.05" height="1.8" y="-1.8" transform="matrix(1 0 0 1 8.5498 -6.9502)" style="overflow:visible;opacity:0.5;enable-background:new    ;"/>
			<path style="fill-rule:evenodd;clip-rule:evenodd;fill:#55412D;" d="M13.1-5.2c0-0.333-0.35-0.5-1.05-0.5
				C11.35-5.7,11-5.533,11-5.2c0,0.333,0.35,0.5,1.05,0.5c0.267,0,0.517-0.05,0.75-0.15C13-4.95,13.1-5.067,13.1-5.2z"/>
			<path style="fill-rule:evenodd;clip-rule:evenodd;fill:#55412D;" d="M2.1-7.85c0-0.4-0.35-0.6-1.05-0.6C0.35-8.45,0-8.25,0-7.85
				C0-7.483,0.35-7.3,1.05-7.3C1.75-7.3,2.1-7.483,2.1-7.85z"/>
			
				<use xlink:href="#FlashAICB_x2F_front_ground_2_x2F__x3C_Path_x3E__x5F_1_x5F_4"  width="4.85" height="2.1" y="-2.1" transform="matrix(1 0 0 1 1.9502 -4.3999)" style="overflow:visible;opacity:0.6992;enable-background:new    ;"/>
			
				<use xlink:href="#FlashAICB_x2F_front_ground_2_x2F__x3C_Path_x3E__x5F_10"  width="2.1" height="1.05" y="-1.05" transform="matrix(1 0 0 1 39.4502 -3.7998)" style="overflow:visible;opacity:0.6992;enable-background:new    ;"/>
		</g>
	</g>
</symbol>
<symbol  id="FlashAICB_x2F_front_ground_2_x2F__x3C_Group_x3E__x5F_3" viewBox="0 -7.15 35.5 7.15">
	<g id="Layer_1_61_">
		<g>
			
				<use xlink:href="#FlashAICB_x2F_front_ground_2_x2F__x3C_Path_x3E__x5F_13_x5F_2"  width="6.3" height="3" y="-3" transform="matrix(1 0 0 1 18.7998 -1.7002)" style="overflow:visible;opacity:0.6992;enable-background:new    ;"/>
			<path style="fill-rule:evenodd;clip-rule:evenodd;fill:#55412D;" d="M15.7-1c0,0.267,0.2,0.5,0.6,0.7C16.7-0.1,17.167,0,17.7,0
				c0.533,0,1-0.1,1.4-0.3c0.367-0.2,0.55-0.434,0.55-0.7s-0.183-0.5-0.55-0.7c-0.367-0.167-0.833-0.25-1.4-0.25
				c-0.567,0-1.034,0.083-1.4,0.25C15.9-1.5,15.7-1.267,15.7-1z"/>
			<path style="fill-rule:evenodd;clip-rule:evenodd;fill:#55412D;" d="M16.1-3.5c0,0.267,0.283,0.4,0.85,0.4
				c0.566,0,0.85-0.133,0.85-0.4c0-0.3-0.283-0.45-0.85-0.45C16.383-3.95,16.1-3.8,16.1-3.5z"/>
			<path style="fill-rule:evenodd;clip-rule:evenodd;fill:#55412D;" d="M12.25-6c0,0.333,0.3,0.617,0.9,0.85
				c0.633,0.233,1.367,0.35,2.2,0.35c0.833,0,1.566-0.117,2.2-0.35c0.6-0.233,0.9-0.517,0.9-0.85s-0.3-0.6-0.9-0.8
				c-0.6-0.233-1.333-0.35-2.2-0.35s-1.6,0.117-2.2,0.35C12.55-6.6,12.25-6.333,12.25-6z"/>
			
				<use xlink:href="#FlashAICB_x2F_front_ground_2_x2F__x3C_Path_x3E__x5F_9_x5F_2"  width="4.45" height="1.95" y="-1.95" transform="matrix(1 0 0 1 8.1499 -3.1001)" style="overflow:visible;opacity:0.6992;enable-background:new    ;"/>
			<path style="fill-rule:evenodd;clip-rule:evenodd;fill:#55412D;" d="M5.2-1.95c0,0.467,0.6,0.7,1.8,0.7s1.8-0.233,1.8-0.7
				C8.8-2.45,8.2-2.7,7-2.7S5.2-2.45,5.2-1.95z"/>
			<path style="fill-rule:evenodd;clip-rule:evenodd;fill:#55412D;" d="M6.3-3.7c0,0.233,0.233,0.35,0.7,0.35
				c0.433,0,0.65-0.117,0.65-0.35c0-0.233-0.217-0.35-0.65-0.35C6.533-4.05,6.3-3.933,6.3-3.7z"/>
			
				<use xlink:href="#FlashAICB_x2F_front_ground_2_x2F__x3C_Path_x3E__x5F_6_x5F_2"  width="1.6" height="0.75" y="-0.75" transform="matrix(1 0 0 1 10.1499 -0.1001)" style="overflow:visible;opacity:0.5;enable-background:new    ;"/>
			
				<use xlink:href="#FlashAICB_x2F_front_ground_2_x2F__x3C_Path_x3E__x5F_5_x5F_2"  width="2" height="0.75" y="-0.75" transform="matrix(1 0 0 1 0 -1.6001)" style="overflow:visible;opacity:0.5;enable-background:new    ;"/>
			
				<use xlink:href="#FlashAICB_x2F_front_ground_2_x2F__x3C_Path_x3E__x5F_4_x5F_2"  width="3.1" height="1.35" y="-1.35" transform="matrix(1 0 0 1 25.8501 -5.2998)" style="overflow:visible;opacity:0.5;enable-background:new    ;"/>
			<path style="fill-rule:evenodd;clip-rule:evenodd;fill:#55412D;" d="M25.45-3.95c0,0.267,0.267,0.4,0.8,0.4s0.8-0.133,0.8-0.4
				c0-0.233-0.267-0.35-0.8-0.35S25.45-4.183,25.45-3.95z"/>
			<path style="fill-rule:evenodd;clip-rule:evenodd;fill:#55412D;" d="M33.85-6c0,0.3,0.267,0.45,0.8,0.45
				c0.567,0,0.85-0.15,0.85-0.45c0-0.267-0.283-0.4-0.85-0.4C34.117-6.4,33.85-6.267,33.85-6z"/>
			
				<use xlink:href="#FlashAICB_x2F_front_ground_2_x2F__x3C_Path_x3E__x5F_1_x5F_3"  width="3.7" height="1.6" y="-1.6" transform="matrix(1 0 0 1 30.2998 -3.3501)" style="overflow:visible;opacity:0.6992;enable-background:new    ;"/>
			
				<use xlink:href="#FlashAICB_x2F_front_ground_2_x2F__x3C_Path_x3E__x5F_8"  width="1.65" height="0.8" y="-0.8" transform="matrix(1 0 0 1 3.7002 -2.8501)" style="overflow:visible;opacity:0.6992;enable-background:new    ;"/>
		</g>
	</g>
</symbol>
<symbol  id="FlashAICB_x2F_front_ground_2_x2F__x3C_Group_x3E__x5F_4" viewBox="0 -15.4 76.4 15.4">
	<g id="Layer_1_60_">
		<g>
			
				<use xlink:href="#FlashAICB_x2F_front_ground_2_x2F__x3C_Path_x3E__x5F_13_x5F_1"  width="13.55" height="6.4" y="-6.4" transform="matrix(1 0 0 1 40.5 -3.7002)" style="overflow:visible;opacity:0.6992;enable-background:new    ;"/>
			<path style="fill-rule:evenodd;clip-rule:evenodd;fill:#55412D;" d="M41.1-0.6c0.833-0.433,1.25-0.933,1.25-1.5
				c0-0.6-0.417-1.117-1.25-1.55c-0.833-0.4-1.833-0.6-3-0.6c-1.167,0-2.184,0.2-3.05,0.6C34.217-3.217,33.8-2.7,33.8-2.1
				c0,0.567,0.417,1.067,1.25,1.5C35.917-0.2,36.933,0,38.1,0C39.267,0,40.267-0.2,41.1-0.6z"/>
			<path style="fill-rule:evenodd;clip-rule:evenodd;fill:#55412D;" d="M34.6-7.55c0,0.233,0.183,0.45,0.55,0.65
				c0.367,0.167,0.817,0.25,1.35,0.25c0.5,0,0.933-0.083,1.3-0.25c0.367-0.2,0.55-0.417,0.55-0.65c0-0.267-0.184-0.5-0.55-0.7
				C37.433-8.417,37-8.5,36.5-8.5c-0.533,0-0.983,0.083-1.35,0.25C34.783-8.05,34.6-7.817,34.6-7.55z"/>
			<path style="fill-rule:evenodd;clip-rule:evenodd;fill:#55412D;" d="M26.35-12.9c0,0.7,0.65,1.3,1.95,1.8
				c1.3,0.5,2.867,0.75,4.7,0.75s3.417-0.25,4.75-0.75c1.3-0.5,1.95-1.1,1.95-1.8c0-0.7-0.65-1.3-1.95-1.8
				c-1.3-0.466-2.883-0.7-4.75-0.7c-1.833,0-3.4,0.233-4.7,0.7C27-14.2,26.35-13.6,26.35-12.9z"/>
			
				<use xlink:href="#FlashAICB_x2F_front_ground_2_x2F__x3C_Path_x3E__x5F_9_x5F_1"  width="9.55" height="4.25" y="-4.25" transform="matrix(1 0 0 1 17.6001 -6.6499)" style="overflow:visible;opacity:0.6992;enable-background:new    ;"/>
			<path style="fill-rule:evenodd;clip-rule:evenodd;fill:#55412D;" d="M11.2-4.25c0,0.433,0.383,0.817,1.15,1.15
				c0.733,0.3,1.633,0.45,2.7,0.45c1.067,0,1.983-0.15,2.75-0.45c0.733-0.333,1.1-0.717,1.1-1.15s-0.367-0.8-1.1-1.1
				c-0.767-0.333-1.683-0.5-2.75-0.5c-1.033,0-1.933,0.167-2.7,0.5C11.583-5.05,11.2-4.683,11.2-4.25z"/>
			<path style="fill-rule:evenodd;clip-rule:evenodd;fill:#55412D;" d="M13.6-7.95c0,0.534,0.483,0.8,1.45,0.8
				c0.4,0,0.75-0.083,1.05-0.25c0.267-0.133,0.4-0.317,0.4-0.55c0-0.233-0.133-0.417-0.4-0.55c-0.3-0.167-0.65-0.25-1.05-0.25
				C14.083-8.75,13.6-8.483,13.6-7.95z"/>
			
				<use xlink:href="#FlashAICB_x2F_front_ground_2_x2F__x3C_Path_x3E__x5F_6_x5F_1"  width="3.45" height="1.6" y="-1.6" transform="matrix(1 0 0 1 21.8501 -0.25)" style="overflow:visible;opacity:0.5;enable-background:new    ;"/>
			
				<use xlink:href="#FlashAICB_x2F_front_ground_2_x2F__x3C_Path_x3E__x5F_5_x5F_1"  width="4.3" height="1.6" y="-1.6" transform="matrix(1 0 0 1 0 -3.4502)" style="overflow:visible;opacity:0.5;enable-background:new    ;"/>
			
				<use xlink:href="#FlashAICB_x2F_front_ground_2_x2F__x3C_Path_x3E__x5F_4_x5F_1"  width="6.65" height="2.95" y="-2.95" transform="matrix(1 0 0 1 55.6499 -11.3999)" style="overflow:visible;opacity:0.5;enable-background:new    ;"/>
			<path style="fill-rule:evenodd;clip-rule:evenodd;fill:#55412D;" d="M54.85-8.5c0,0.233,0.167,0.417,0.5,0.55
				C55.683-7.783,56.1-7.7,56.6-7.7c0.467,0,0.867-0.083,1.2-0.25c0.333-0.133,0.5-0.316,0.5-0.55s-0.167-0.417-0.5-0.55
				c-0.333-0.167-0.733-0.25-1.2-0.25c-0.5,0-0.917,0.083-1.25,0.25C55.017-8.917,54.85-8.733,54.85-8.5z"/>
			<path style="fill-rule:evenodd;clip-rule:evenodd;fill:#55412D;" d="M72.95-12.9c0,0.267,0.167,0.5,0.5,0.7
				c0.333,0.167,0.75,0.25,1.25,0.25c0.466,0,0.867-0.083,1.2-0.25c0.333-0.2,0.5-0.433,0.5-0.7s-0.167-0.483-0.5-0.65
				c-0.333-0.167-0.733-0.25-1.2-0.25c-0.5,0-0.917,0.083-1.25,0.25C73.117-13.383,72.95-13.167,72.95-12.9z"/>
			
				<use xlink:href="#FlashAICB_x2F_front_ground_2_x2F__x3C_Path_x3E__x5F_1_x5F_2"  width="7.95" height="3.5" y="-3.5" transform="matrix(1 0 0 1 65.25 -7.1499)" style="overflow:visible;opacity:0.6992;enable-background:new    ;"/>
			
				<use xlink:href="#FlashAICB_x2F_front_ground_2_x2F__x3C_Path_x3E__x5F_7"  width="3.45" height="1.75" y="-1.75" transform="matrix(1 0 0 1 8 -6.1499)" style="overflow:visible;opacity:0.6992;enable-background:new    ;"/>
		</g>
	</g>
</symbol>
<symbol  id="FlashAICB_x2F_front_ground_2_x2F__x3C_Group_x3E__x5F_5" viewBox="0 -9.4 46.45 9.4">
	<g id="Layer_1_59_">
		<g>
			
				<use xlink:href="#FlashAICB_x2F_front_ground_2_x2F__x3C_Path_x3E__x5F_13_x5F_0"  width="8.25" height="3.9" y="-3.9" transform="matrix(1 0 0 1 13.6001 -2.25)" style="overflow:visible;opacity:0.6992;enable-background:new    ;"/>
			<path style="fill-rule:evenodd;clip-rule:evenodd;fill:#55412D;" d="M25.9-1.3c0-0.367-0.25-0.667-0.75-0.9
				c-0.5-0.267-1.117-0.4-1.85-0.4c-0.7,0-1.3,0.133-1.8,0.4c-0.533,0.233-0.8,0.534-0.8,0.9c0,0.333,0.267,0.633,0.8,0.9
				C22-0.133,22.6,0,23.3,0c0.733,0,1.35-0.133,1.85-0.4C25.65-0.633,25.9-0.933,25.9-1.3z"/>
			<path style="fill-rule:evenodd;clip-rule:evenodd;fill:#55412D;" d="M25.4-4.6c0-0.4-0.367-0.6-1.1-0.6
				c-0.767,0-1.15,0.2-1.15,0.6c0,0.367,0.383,0.55,1.15,0.55C25.033-4.05,25.4-4.233,25.4-4.6z"/>
			<path style="fill-rule:evenodd;clip-rule:evenodd;fill:#55412D;" d="M30.45-7.85c0-0.433-0.4-0.8-1.2-1.1
				c-0.8-0.3-1.75-0.45-2.85-0.45c-1.133,0-2.083,0.15-2.85,0.45c-0.8,0.3-1.2,0.667-1.2,1.1c0,0.434,0.4,0.8,1.2,1.1
				c0.767,0.3,1.717,0.45,2.85,0.45c1.1,0,2.05-0.15,2.85-0.45S30.45-7.417,30.45-7.85z"/>
			
				<use xlink:href="#FlashAICB_x2F_front_ground_2_x2F__x3C_Path_x3E__x5F_9_x5F_0"  width="5.8" height="2.6" y="-2.6" transform="matrix(1 0 0 1 29.9502 -4.0498)" style="overflow:visible;opacity:0.6992;enable-background:new    ;"/>
			<path style="fill-rule:evenodd;clip-rule:evenodd;fill:#55412D;" d="M39.65-2.6c0-0.267-0.233-0.5-0.7-0.7
				c-0.434-0.167-0.983-0.25-1.65-0.25c-0.667,0-1.216,0.083-1.65,0.25c-0.467,0.2-0.7,0.433-0.7,0.7s0.233,0.5,0.7,0.7
				c0.434,0.167,0.983,0.25,1.65,0.25c0.667,0,1.217-0.083,1.65-0.25C39.417-2.1,39.65-2.333,39.65-2.6z"/>
			<path style="fill-rule:evenodd;clip-rule:evenodd;fill:#55412D;" d="M38.2-4.85c0-0.333-0.3-0.5-0.9-0.5
				c-0.6,0-0.9,0.167-0.9,0.5c0,0.3,0.3,0.45,0.9,0.45C37.9-4.4,38.2-4.55,38.2-4.85z"/>
			
				<use xlink:href="#FlashAICB_x2F_front_ground_2_x2F__x3C_Path_x3E__x5F_6_x5F_0"  width="2.1" height="1" y="-1" transform="matrix(1 0 0 1 31.1001 -0.1499)" style="overflow:visible;opacity:0.5;enable-background:new    ;"/>
			
				<use xlink:href="#FlashAICB_x2F_front_ground_2_x2F__x3C_Path_x3E__x5F_5_x5F_0"  width="2.6" height="1" y="-1" transform="matrix(1 0 0 1 43.8501 -2.1001)" style="overflow:visible;opacity:0.5;enable-background:new    ;"/>
			
				<use xlink:href="#FlashAICB_x2F_front_ground_2_x2F__x3C_Path_x3E__x5F_4_x5F_0"  width="4.05" height="1.8" y="-1.8" transform="matrix(1 0 0 1 8.6001 -6.9502)" style="overflow:visible;opacity:0.5;enable-background:new    ;"/>
			<path style="fill-rule:evenodd;clip-rule:evenodd;fill:#55412D;" d="M13.1-5.2c0-0.3-0.35-0.45-1.05-0.45
				C11.35-5.65,11-5.5,11-5.2c0,0.333,0.35,0.5,1.05,0.5C12.75-4.7,13.1-4.867,13.1-5.2z"/>
			<path style="fill-rule:evenodd;clip-rule:evenodd;fill:#55412D;" d="M2.1-7.85c0-0.367-0.35-0.55-1.05-0.55
				C0.35-8.4,0-8.217,0-7.85S0.35-7.3,1.05-7.3C1.75-7.3,2.1-7.483,2.1-7.85z"/>
			
				<use xlink:href="#FlashAICB_x2F_front_ground_2_x2F__x3C_Path_x3E__x5F_1_x5F_1"  width="4.85" height="2.1" y="-2.1" transform="matrix(1 0 0 1 1.9502 -4.3999)" style="overflow:visible;opacity:0.6992;enable-background:new    ;"/>
			
				<use xlink:href="#FlashAICB_x2F_front_ground_2_x2F__x3C_Path_x3E__x5F_3"  width="2.1" height="1.05" y="-1.05" transform="matrix(1 0 0 1 39.5 -3.75)" style="overflow:visible;opacity:0.6992;enable-background:new    ;"/>
		</g>
	</g>
</symbol>
<symbol  id="FlashAICB_x2F_front_ground_2_x2F__x3C_Group_x3E__x5F_6" viewBox="0 -14.05 74.75 14.05">
	<g id="Layer_1_58_">
		<g>
			
				<use xlink:href="#FlashAICB_x2F_front_ground_2_x2F__x3C_Path_x3E__x5F_13"  width="13.3" height="6.25" y="-6.25" transform="matrix(1 0 0 1 21.8501 -3.6499)" style="overflow:visible;opacity:0.6992;enable-background:new    ;"/>
			<path style="fill-rule:evenodd;clip-rule:evenodd;fill:#55412D;" d="M40.45-0.6c0.833-0.433,1.25-0.933,1.25-1.5
				c0-0.566-0.417-1.05-1.25-1.45c-0.8-0.4-1.784-0.6-2.95-0.6s-2.15,0.2-2.95,0.6c-0.8,0.4-1.2,0.883-1.2,1.45
				c0,0.567,0.4,1.067,1.2,1.5C35.383-0.2,36.367,0,37.5,0C38.667,0,39.65-0.2,40.45-0.6z"/>
			<path style="fill-rule:evenodd;clip-rule:evenodd;fill:#55412D;" d="M40.35-6.75c0.367-0.167,0.55-0.383,0.55-0.65
				s-0.183-0.483-0.55-0.65c-0.333-0.2-0.767-0.3-1.3-0.3c-0.5,0-0.917,0.1-1.25,0.3c-0.367,0.167-0.55,0.383-0.55,0.65
				c0,0.233,0.183,0.45,0.55,0.65c0.333,0.167,0.75,0.25,1.25,0.25C39.583-6.5,40.017-6.583,40.35-6.75z"/>
			
				<use xlink:href="#FlashAICB_x2F_front_ground_2_x2F__x3C_Path_x3E__x5F_9"  width="-32766" height="-32766" x="16383" y="16383" transform="matrix(1 0 0 1 48.2002 -6.5)" style="overflow:visible;opacity:0.6992;enable-background:new    ;"/>
			<path style="fill-rule:evenodd;clip-rule:evenodd;fill:#55412D;" d="M63.85-4.15c0-0.434-0.367-0.817-1.1-1.15
				c-0.733-0.3-1.633-0.45-2.7-0.45c-1.066,0-1.966,0.15-2.7,0.45c-0.733,0.333-1.1,0.716-1.1,1.15c0,0.433,0.367,0.8,1.1,1.1
				c0.767,0.3,1.667,0.45,2.7,0.45c1.034,0,1.934-0.15,2.7-0.45C63.483-3.35,63.85-3.717,63.85-4.15z"/>
			<path style="fill-rule:evenodd;clip-rule:evenodd;fill:#55412D;" d="M61.5-7.8c0-0.233-0.133-0.417-0.4-0.55
				c-0.3-0.167-0.65-0.25-1.05-0.25c-0.4,0-0.733,0.083-1,0.25c-0.3,0.133-0.45,0.317-0.45,0.55c0,0.2,0.15,0.367,0.45,0.5
				c0.267,0.167,0.6,0.25,1,0.25c0.4,0,0.75-0.083,1.05-0.25C61.367-7.433,61.5-7.6,61.5-7.8z"/>
			
				<use xlink:href="#FlashAICB_x2F_front_ground_2_x2F__x3C_Path_x3E__x5F_6"  width="3.4" height="1.55" y="-1.55" transform="matrix(1 0 0 1 50 -0.25)" style="overflow:visible;opacity:0.5;enable-background:new    ;"/>
			
				<use xlink:href="#FlashAICB_x2F_front_ground_2_x2F__x3C_Path_x3E__x5F_5"  width="4.15" height="1.55" y="-1.55" transform="matrix(1 0 0 1 70.6001 -3.3999)" style="overflow:visible;opacity:0.5;enable-background:new    ;"/>
			
				<use xlink:href="#FlashAICB_x2F_front_ground_2_x2F__x3C_Path_x3E__x5F_4"  width="6.5" height="2.85" y="-2.85" transform="matrix(1 0 0 1 13.7998 -11.2002)" style="overflow:visible;opacity:0.5;enable-background:new    ;"/>
			<path style="fill-rule:evenodd;clip-rule:evenodd;fill:#55412D;" d="M21.1-8.35c0-0.2-0.167-0.383-0.5-0.55
				c-0.333-0.133-0.733-0.2-1.2-0.2s-0.867,0.067-1.2,0.2c-0.333,0.167-0.5,0.35-0.5,0.55c0,0.233,0.167,0.417,0.5,0.55
				c0.333,0.167,0.733,0.25,1.2,0.25s0.867-0.083,1.2-0.25C20.933-7.933,21.1-8.117,21.1-8.35z"/>
			<path style="fill-rule:evenodd;clip-rule:evenodd;fill:#55412D;" d="M3.35-12.65c0-0.233-0.167-0.45-0.5-0.65
				c-0.3-0.167-0.684-0.25-1.15-0.25c-0.467,0-0.867,0.083-1.2,0.25C0.167-13.133,0-12.917,0-12.65S0.167-12.167,0.5-12
				c0.333,0.2,0.733,0.3,1.2,0.3c0.433,0,0.816-0.1,1.15-0.3C3.183-12.167,3.35-12.383,3.35-12.65z"/>
			
				<use xlink:href="#FlashAICB_x2F_front_ground_2_x2F__x3C_Path_x3E__x5F_1_x5F_0"  width="7.85" height="3.35" y="-3.35" transform="matrix(1 0 0 1 3.1001 -7.0498)" style="overflow:visible;opacity:0.6992;enable-background:new    ;"/>
			
				<use xlink:href="#FlashAICB_x2F_front_ground_2_x2F__x3C_Path_x3E__x5F_0"  width="3.4" height="1.7" y="-1.7" transform="matrix(1 0 0 1 63.5498 -6.0498)" style="overflow:visible;opacity:0.6992;enable-background:new    ;"/>
		</g>
	</g>
</symbol>
<symbol  id="FlashAICB_x2F_front_ground_2_x2F__x3C_Group_x3E__x5F_7" viewBox="0 -54.9 278.05 54.9">
	<g id="Layer_1_3_">
		<g>
			<path style="fill-rule:evenodd;clip-rule:evenodd;fill:#52391E;" d="M265.1-11.25c4.533,1.467,8.85,1.817,12.95,1.05
				c-1.033-5-1.716-9.9-2.05-14.7l-0.05-1.15l-1.7-0.6c-9.033-3.6-15.283-5.817-18.75-6.65c-7.333-1.767-15.783-2.267-25.35-1.5
				c-8.033,0.633-17.333,2.583-27.9,5.85c-10.533,3.3-17.333,5.067-20.4,5.3c-10.233,0.733-17.117,1.367-20.65,1.9
				c-9.233,1.4-17.9,3.767-26,7.1c-4.767,1.967-8.567,3.267-11.4,3.9c-2.966,0.667-6.15,0.917-9.55,0.75
				c-2.533-0.133-6.833-0.667-12.9-1.6c-9.133-1.367-16.3-2.383-21.5-3.05c-13.2-1.7-28.033-2.867-44.5-3.5
				c-17.8-0.7-28.6-1.25-32.4-1.65C2.083-15.9,1.1-12.267,0-8.9l0.75,0.25C8.017-6.517,20.2-5.2,37.3-4.7
				c22.333,0.633,34.3,1.034,35.9,1.2c2.966,0.3,7.066,0.867,12.3,1.7c5.767,0.933,9.817,1.533,12.15,1.8l20.2-0.3
				c2.233-0.467,4.417-1.117,6.55-1.95c5.7-2.233,11.767-3.3,18.2-3.2c9.167,0.167,17.95-0.483,26.35-1.95
				c9.167-1.6,20.283-1.6,33.35,0c5.567,0.7,9.417,1.033,11.55,1c3.533-0.067,6.333-0.817,8.4-2.25c4.633-3.267,10.9-5.15,18.8-5.65
				C249.05-14.833,257.067-13.817,265.1-11.25z"/>
			<path style="fill-rule:evenodd;clip-rule:evenodd;fill:#52391E;" d="M275.525-35.55c-0.017-0.237-0.025-0.487-0.025-0.75
				l0.5-11.05c0.032-0.833-0.01-2.833-0.125-6c-2.187-0.632-4.295-1.149-6.325-1.55h-33.9c-5.3,0.833-12.65,2.55-22.05,5.15
				c-7.9,2.167-13.6,3.333-17.1,3.5c-10.667,0.467-17.883,0.933-21.65,1.4c-9.7,1.133-18.8,3.267-27.3,6.4
				c-8.733,3.2-16.083,4.567-22.05,4.1c-2.633-0.2-7.15-0.85-13.55-1.95c-9.5-1.633-16.983-2.85-22.45-3.65
				c-14.167-2.1-30.517-3.716-49.05-4.85c-18.1-1.067-29.784-2.017-35.05-2.85l-0.7-0.1L5.3-35.2c8.6,1.8,21.833,3.167,39.7,4.1
				c23.233,1.233,35.7,1.95,37.4,2.15c3.167,0.367,7.45,1.034,12.85,2c6.2,1.1,10.433,1.817,12.7,2.15l21.2,0.25
				c2.333-0.4,4.617-1,6.85-1.8c6.033-2.1,12.417-3.017,19.15-2.75c9.6,0.434,18.8,0.033,27.6-1.2
				c9.633-1.367,21.283-1.067,34.95,0.9c5.833,0.8,9.867,1.217,12.1,1.25c3.7,0.033,6.633-0.633,8.8-2
				c4.066-2.6,9.417-4.233,16.05-4.9c6.633-0.667,13.55-0.25,20.75,1.25C275.441-34.389,275.483-34.972,275.525-35.55z"/>
		</g>
	</g>
</symbol>
<symbol  id="FlashAICB_x2F_front_ground_2_x2F__x3C_Group_x3E__x5F_8" viewBox="1.15 -41.8 272.875 41.8">
	<g id="Layer_1_2_">
		<g>
			<path style="fill-rule:evenodd;clip-rule:evenodd;fill:#32271B;" d="M257.35-5.8c4.233-0.967,7.583-1.434,10.05-1.4
				c1.867,0,3.75,0.333,5.65,1L273-6.25l-0.3-8.95c-6.5,0.8-11.25,1.35-14.25,1.65c-4.367,0.466-13.95,0.917-28.75,1.35
				c-15.233,0.434-28.65,1.233-40.25,2.4c-15.733,1.9-25.567,2.933-29.5,3.1c-4.9,0.2-10.9-0.833-18-3.1
				c-6.934-2.233-14.367-3.817-22.3-4.75c-2.967-0.333-8.883-0.767-17.75-1.3c-2.667-0.133-8.5-1.3-17.5-3.5
				c-9.1-2.2-17.083-3.5-23.95-3.9c-8.2-0.5-15.45-0.167-21.75,1c-2.967,0.533-8.35,2-16.15,4.4c-3.3,1.033-6.833,1.233-10.6,0.6
				c-6.167-1-9.517-1.517-10.05-1.55c-0.1,3.833-0.35,7.283-0.75,10.35l0.65-0.2c3.067-0.8,7.35-0.517,12.85,0.85
				c5.567,1.4,10.817,1.5,15.75,0.3c6.9-1.7,13.8-2.383,20.7-2.05c6.767,0.333,12.15,1.583,16.15,3.75
				c1.767,0.966,4.167,1.466,7.2,1.5c1.833,0.033,5.133-0.184,9.9-0.65c11.233-1.066,20.783-1.066,28.65,0
				c7.167,0.967,14.7,1.4,22.6,1.3c5.5-0.067,10.7,0.65,15.6,2.15c1.966,0.567,3.85,1,5.65,1.3l17.3,0.2
				c1.9-0.167,5.4-0.583,10.5-1.25c4.434-0.567,7.95-0.933,10.55-1.1c1.233-0.1,11.5-0.367,30.8-0.8
				C240.633-3.483,251.083-4.367,257.35-5.8z"/>
			<path style="fill-rule:evenodd;clip-rule:evenodd;fill:#32271B;" d="M272.4-39.25c-2.364-1.383-6.381-2.233-12.05-2.55
				c-1.879,0.235-3.496,0.435-4.85,0.6c-4.567,0.534-14.717,1.167-30.45,1.9c-16.1,0.767-30.3,1.85-42.6,3.25
				c-16.633,2.233-27.05,3.466-31.25,3.7c-5.167,0.333-11.55-0.566-19.15-2.7c-7.4-2.1-15.3-3.534-23.7-4.3
				c-3.4-0.3-9.684-0.6-18.85-0.9c-1.823-0.064-5.04-0.522-9.65-1.375c-6.452,2.501-12.452,4.042-18,4.625
				c-6.033,0.633-13.434,0.483-22.2-0.45L28.35-39c-8.333,0.667-14.333,1.5-18,2.5c-2.3,0.633-4.817,1.9-7.55,3.8l-1.525,1.2
				c0.059,0.608,0.117,1.225,0.175,1.85c4,0.533,8.15,0.25,12.45-0.85c7.3-1.833,14.6-2.65,21.9-2.45
				c7.2,0.2,12.917,1.35,17.15,3.45c2.767,1.333,8.833,1.5,18.2,0.5c11.867-1.3,21.967-1.5,30.3-0.6c7.633,0.8,15.633,1.067,24,0.8
				c5.833-0.167,11.383,0.45,16.65,1.85c1.733,0.5,3.717,0.883,5.95,1.15l18.4-0.15c1.9-0.2,5.583-0.683,11.05-1.45
				c4.667-0.633,8.383-1.067,11.15-1.3c1.533-0.133,12.417-0.617,32.65-1.45c15.534-0.633,26.6-1.733,33.2-3.3
				c5.233-1.233,9.283-1.75,12.15-1.55c1.333,0.067,3.6,0.6,6.8,1.6c0.161-1.655,0.352-3.313,0.575-4.975
				C273.502-38.628,272.96-38.92,272.4-39.25z"/>
		</g>
	</g>
</symbol>
<symbol  id="FlashAICB_x2F_front_ground_2_x2F__x3C_Path_x3E_" viewBox="0 -92.75 50.35 92.75">
	<g id="Layer_1_6_">
		<linearGradient id="SVGID_3_" gradientUnits="userSpaceOnUse" x1="0" y1="-46.375" x2="50.3501" y2="-46.375">
			<stop  offset="0" style="stop-color:#3E2916"/>
			<stop  offset="0.0549" style="stop-color:#594837"/>
			<stop  offset="0.1725" style="stop-color:#A1978E"/>
			<stop  offset="0.3176" style="stop-color:#FFFFFF"/>
			<stop  offset="1" style="stop-color:#3E2916"/>
		</linearGradient>
		<path style="fill-rule:evenodd;clip-rule:evenodd;fill:url(#SVGID_3_);" d="M50.35,0c-1.1-3.3-2.25-7.733-3.45-13.3
			c-2.367-11.1-3.816-22.25-4.35-33.45c-0.533-11.2,0.317-22.233,2.55-33.1c1.133-5.433,2.3-9.733,3.5-12.9H4.3
			c0.534,2.333,1.017,5.883,1.45,10.65c0.833,9.467,0.933,20.217,0.3,32.25s-1.833,23.5-3.6,34.4C1.583-10.017,0.767-5.767,0-2.7
			L50.35,0z"/>
	</g>
</symbol>
<symbol  id="FlashAICB_x2F_front_ground_2_x2F__x3C_Path_x3E__x5F_0" viewBox="0 -1.7 3.4 1.7">
	<g id="Layer_1_14_">
		<path style="fill-rule:evenodd;clip-rule:evenodd;fill:#55412D;" d="M3.4-0.85c0-0.233-0.167-0.433-0.5-0.6
			C2.567-1.617,2.167-1.7,1.7-1.7c-0.467,0-0.867,0.083-1.2,0.25C0.167-1.283,0-1.083,0-0.85s0.167,0.434,0.5,0.6S1.233,0,1.7,0
			c0.466,0,0.867-0.083,1.2-0.25C3.233-0.417,3.4-0.617,3.4-0.85z"/>
	</g>
</symbol>
<symbol  id="FlashAICB_x2F_front_ground_2_x2F__x3C_Path_x3E__x5F_1" viewBox="0 -92.8 156.75 92.8">
	<g id="Layer_1_5_">
		<linearGradient id="SVGID_4_" gradientUnits="userSpaceOnUse" x1="0" y1="-46.3999" x2="156.75" y2="-46.3999">
			<stop  offset="0" style="stop-color:#3E2916"/>
			<stop  offset="0.1059" style="stop-color:#594837"/>
			<stop  offset="0.3373" style="stop-color:#A1978E"/>
			<stop  offset="0.6196" style="stop-color:#FFFFFF"/>
			<stop  offset="1" style="stop-color:#3E2916"/>
		</linearGradient>
		<path style="fill-rule:evenodd;clip-rule:evenodd;fill:url(#SVGID_4_);" d="M156.75,0c-1.1-3.333-2.25-7.767-3.45-13.3
			c-2.367-11.133-3.816-22.3-4.35-33.5c-0.534-11.2,0.316-22.233,2.55-33.1c1.133-5.434,2.3-9.733,3.5-12.9H4.3
			c0.534,2.333,1.017,5.883,1.45,10.65c0.833,9.467,0.933,20.217,0.3,32.25s-1.833,23.5-3.6,34.4C1.583-10.067,0.767-5.817,0-2.75
			L156.75,0z"/>
	</g>
</symbol>
<symbol  id="FlashAICB_x2F_front_ground_2_x2F__x3C_Path_x3E__x5F_10" viewBox="0 -1.05 2.1 1.05">
	<g id="Layer_1_42_">
		<path style="fill-rule:evenodd;clip-rule:evenodd;fill:#55412D;" d="M2.1-0.5c0-0.367-0.35-0.55-1.05-0.55
			C0.35-1.05,0-0.867,0-0.5C0-0.167,0.35,0,1.05,0C1.75,0,2.1-0.167,2.1-0.5z"/>
	</g>
</symbol>
<symbol  id="FlashAICB_x2F_front_ground_2_x2F__x3C_Path_x3E__x5F_11" viewBox="0 -2.2 4.35 2.2">
	<g id="Layer_1_49_">
		<path style="fill-rule:evenodd;clip-rule:evenodd;fill:#55412D;" d="M4.35-1.1c0-0.3-0.217-0.566-0.65-0.8
			C3.267-2.1,2.75-2.2,2.15-2.2s-1.1,0.1-1.5,0.3C0.217-1.667,0-1.4,0-1.1c0,0.3,0.217,0.55,0.65,0.75C1.05-0.117,1.55,0,2.15,0
			S3.267-0.117,3.7-0.35C4.133-0.55,4.35-0.8,4.35-1.1z"/>
	</g>
</symbol>
<symbol  id="FlashAICB_x2F_front_ground_2_x2F__x3C_Path_x3E__x5F_12" viewBox="0 -2.15 4.35 2.15">
	<g id="Layer_1_56_">
		<path style="fill-rule:evenodd;clip-rule:evenodd;fill:#55412D;" d="M4.35-1.1c0-0.3-0.217-0.55-0.65-0.75
			c-0.434-0.2-0.95-0.3-1.55-0.3s-1.1,0.1-1.5,0.3C0.217-1.65,0-1.4,0-1.1c0,0.3,0.217,0.55,0.65,0.75C1.05-0.117,1.55,0,2.15,0
			S3.267-0.117,3.7-0.35C4.133-0.55,4.35-0.8,4.35-1.1z"/>
	</g>
</symbol>
<symbol  id="FlashAICB_x2F_front_ground_2_x2F__x3C_Path_x3E__x5F_13" viewBox="0 -6.25 13.3 6.25">
	<g id="Layer_1_8_">
		<path style="fill-rule:evenodd;clip-rule:evenodd;fill:#55412D;" d="M13.3-3.1c0-0.867-0.65-1.617-1.95-2.25
			c-1.267-0.6-2.833-0.9-4.7-0.9c-1.833,0-3.4,0.3-4.7,0.9C0.65-4.717,0-3.967,0-3.1c0,0.833,0.65,1.567,1.95,2.2
			C3.25-0.3,4.817,0,6.65,0c1.833,0,3.4-0.3,4.7-0.9C12.65-1.5,13.3-2.233,13.3-3.1z"/>
	</g>
</symbol>
<symbol  id="FlashAICB_x2F_front_ground_2_x2F__x3C_Path_x3E__x5F_13_x5F_0" viewBox="0 -3.9 8.25 3.9">
	<g id="Layer_1_15_">
		<path style="fill-rule:evenodd;clip-rule:evenodd;fill:#55412D;" d="M8.25-1.95c0-0.533-0.4-1-1.2-1.4
			C6.25-3.717,5.283-3.9,4.15-3.9C2.983-3.9,2-3.717,1.2-3.35C0.4-2.95,0-2.483,0-1.95C0-1.417,0.4-0.967,1.2-0.6
			C2.033-0.2,3.017,0,4.15,0s2.1-0.2,2.9-0.6C7.85-0.967,8.25-1.417,8.25-1.95z"/>
	</g>
</symbol>
<symbol  id="FlashAICB_x2F_front_ground_2_x2F__x3C_Path_x3E__x5F_13_x5F_1" viewBox="0 -6.4 13.55 6.4">
	<g id="Layer_1_22_">
		<path style="fill-rule:evenodd;clip-rule:evenodd;fill:#55412D;" d="M0-3.2c0,0.867,0.65,1.617,1.95,2.25
			C3.283-0.317,4.883,0,6.75,0s3.467-0.317,4.8-0.95c1.333-0.633,2-1.383,2-2.25s-0.667-1.617-2-2.25
			C10.217-6.083,8.617-6.4,6.75-6.4s-3.467,0.316-4.8,0.95C0.65-4.817,0-4.067,0-3.2z"/>
	</g>
</symbol>
<symbol  id="FlashAICB_x2F_front_ground_2_x2F__x3C_Path_x3E__x5F_13_x5F_2" viewBox="0 -3 6.3 3">
	<g id="Layer_1_29_">
		<path style="fill-rule:evenodd;clip-rule:evenodd;fill:#55412D;" d="M0-1.5c0,0.4,0.3,0.75,0.9,1.05C1.533-0.15,2.283,0,3.15,0
			S4.767-0.15,5.4-0.45C6-0.75,6.3-1.1,6.3-1.5S6-2.25,5.4-2.55C4.767-2.85,4.017-3,3.15-3S1.533-2.85,0.9-2.55
			C0.3-2.25,0-1.9,0-1.5z"/>
	</g>
</symbol>
<symbol  id="FlashAICB_x2F_front_ground_2_x2F__x3C_Path_x3E__x5F_13_x5F_3" viewBox="0 -3.85 8.25 3.85">
	<g id="Layer_1_36_">
		<path style="fill-rule:evenodd;clip-rule:evenodd;fill:#55412D;" d="M8.25-1.9c0-0.533-0.4-1-1.2-1.4
			C6.25-3.667,5.267-3.85,4.1-3.85c-1.167,0-2.133,0.184-2.9,0.55C0.4-2.933,0-2.467,0-1.9c0,0.533,0.4,0.983,1.2,1.35
			C2-0.183,2.967,0,4.1,0c1.167,0,2.15-0.183,2.95-0.55C7.85-0.917,8.25-1.367,8.25-1.9z"/>
	</g>
</symbol>
<symbol  id="FlashAICB_x2F_front_ground_2_x2F__x3C_Path_x3E__x5F_13_x5F_4" viewBox="0 -8.05 17.05 8.05">
	<g id="Layer_1_43_">
		<path style="fill-rule:evenodd;clip-rule:evenodd;fill:#55412D;" d="M17.05-4.05c0-1.1-0.833-2.05-2.5-2.85
			c-1.667-0.767-3.667-1.15-6-1.15C6.217-8.05,4.2-7.667,2.5-6.9C0.833-6.1,0-5.15,0-4.05C0-2.917,0.833-1.967,2.5-1.2
			C4.167-0.4,6.183,0,8.55,0s4.367-0.4,6-1.2C16.217-1.967,17.05-2.917,17.05-4.05z"/>
	</g>
</symbol>
<symbol  id="FlashAICB_x2F_front_ground_2_x2F__x3C_Path_x3E__x5F_13_x5F_5" viewBox="0 -8.05 17.05 8.05">
	<g id="Layer_1_50_">
		<path style="fill-rule:evenodd;clip-rule:evenodd;fill:#55412D;" d="M17.05-4c0-1.133-0.833-2.083-2.5-2.85
			c-1.633-0.8-3.633-1.2-6-1.2s-4.383,0.4-6.05,1.2C0.833-6.083,0-5.133,0-4c0,1.1,0.833,2.033,2.5,2.8C4.2-0.4,6.217,0,8.55,0
			c2.333,0,4.333-0.4,6-1.2C16.217-1.967,17.05-2.9,17.05-4z"/>
	</g>
</symbol>
<symbol  id="FlashAICB_x2F_front_ground_2_x2F__x3C_Path_x3E__x5F_1_x5F_0" viewBox="0 -3.35 7.85 3.35">
	<g id="Layer_1_13_">
		<path style="fill-rule:evenodd;clip-rule:evenodd;fill:#55412D;" d="M7.85-1.65c0-0.467-0.383-0.867-1.15-1.2
			C5.933-3.183,5-3.35,3.9-3.35c-1.066,0-1.983,0.167-2.75,0.5C0.383-2.517,0-2.117,0-1.65S0.383-0.8,1.15-0.5
			C1.917-0.167,2.833,0,3.9,0C5,0,5.933-0.167,6.7-0.5C7.467-0.8,7.85-1.183,7.85-1.65z"/>
	</g>
</symbol>
<symbol  id="FlashAICB_x2F_front_ground_2_x2F__x3C_Path_x3E__x5F_1_x5F_1" viewBox="0 -2.1 4.85 2.1">
	<g id="Layer_1_20_">
		<path style="fill-rule:evenodd;clip-rule:evenodd;fill:#55412D;" d="M4.85-1.05c0-0.267-0.233-0.517-0.7-0.75
			C3.683-2,3.117-2.1,2.45-2.1C1.783-2.1,1.2-2,0.7-1.8C0.233-1.567,0-1.317,0-1.05C0-0.75,0.233-0.5,0.7-0.3
			C1.2-0.1,1.783,0,2.45,0c0.667,0,1.233-0.1,1.7-0.3C4.617-0.5,4.85-0.75,4.85-1.05z"/>
	</g>
</symbol>
<symbol  id="FlashAICB_x2F_front_ground_2_x2F__x3C_Path_x3E__x5F_1_x5F_2" viewBox="0 -3.5 7.95 3.5">
	<g id="Layer_1_27_">
		<path style="fill-rule:evenodd;clip-rule:evenodd;fill:#55412D;" d="M0-1.75C0-1.283,0.383-0.867,1.15-0.5
			C1.917-0.167,2.85,0,3.95,0C5.083,0,6.033-0.167,6.8-0.5c0.767-0.367,1.15-0.783,1.15-1.25S7.567-2.633,6.8-3
			C6.033-3.333,5.083-3.5,3.95-3.5c-1.1,0-2.034,0.167-2.8,0.5C0.383-2.633,0-2.217,0-1.75z"/>
	</g>
</symbol>
<symbol  id="FlashAICB_x2F_front_ground_2_x2F__x3C_Path_x3E__x5F_1_x5F_3" viewBox="0 -1.6 3.7 1.6">
	<g id="Layer_1_34_">
		<path style="fill-rule:evenodd;clip-rule:evenodd;fill:#55412D;" d="M0-0.8c0,0.233,0.183,0.417,0.55,0.55
			C0.883-0.083,1.317,0,1.85,0c0.5,0,0.933-0.083,1.3-0.25C3.517-0.383,3.7-0.567,3.7-0.8c0-0.2-0.184-0.383-0.55-0.55
			C2.783-1.517,2.35-1.6,1.85-1.6s-0.934,0.083-1.3,0.25C0.183-1.183,0-1,0-0.8z"/>
	</g>
</symbol>
<symbol  id="FlashAICB_x2F_front_ground_2_x2F__x3C_Path_x3E__x5F_1_x5F_4" viewBox="0 -2.1 4.85 2.1">
	<g id="Layer_1_41_">
		<path style="fill-rule:evenodd;clip-rule:evenodd;fill:#55412D;" d="M4.85-1.05c0-0.267-0.233-0.517-0.7-0.75
			C3.65-2,3.067-2.1,2.4-2.1C1.733-2.1,1.167-2,0.7-1.8C0.233-1.567,0-1.317,0-1.05C0-0.75,0.233-0.5,0.7-0.3
			C1.167-0.1,1.733,0,2.4,0c0.667,0,1.25-0.1,1.75-0.3C4.617-0.5,4.85-0.75,4.85-1.05z"/>
	</g>
</symbol>
<symbol  id="FlashAICB_x2F_front_ground_2_x2F__x3C_Path_x3E__x5F_1_x5F_5" viewBox="0 -4.35 10.05 4.35">
	<g id="Layer_1_48_">
		<path style="fill-rule:evenodd;clip-rule:evenodd;fill:#55412D;" d="M10.05-2.2c0-0.6-0.483-1.117-1.45-1.55
			c-1-0.4-2.2-0.6-3.6-0.6c-1.367,0-2.55,0.2-3.55,0.6C0.483-3.317,0-2.8,0-2.2c0,0.6,0.483,1.117,1.45,1.55C2.45-0.217,3.633,0,5,0
			c1.4,0,2.6-0.217,3.6-0.65C9.567-1.083,10.05-1.6,10.05-2.2z"/>
	</g>
</symbol>
<symbol  id="FlashAICB_x2F_front_ground_2_x2F__x3C_Path_x3E__x5F_1_x5F_6">
	<g id="Layer_1_55_">
	</g>
</symbol>
<symbol  id="FlashAICB_x2F_front_ground_2_x2F__x3C_Path_x3E__x5F_2" viewBox="0 -85.2 63.35 85.2">
	<g id="Layer_1_4_">
		<linearGradient id="SVGID_5_" gradientUnits="userSpaceOnUse" x1="0" y1="-42.6001" x2="63.3501" y2="-42.6001">
			<stop  offset="0" style="stop-color:#3E2916"/>
			<stop  offset="0.1059" style="stop-color:#594837"/>
			<stop  offset="0.3373" style="stop-color:#A1978E"/>
			<stop  offset="0.6196" style="stop-color:#FFFFFF"/>
		</linearGradient>
		<path style="fill-rule:evenodd;clip-rule:evenodd;fill:url(#SVGID_5_);" d="M63.35,0c-1.367-2.7-2.8-6.3-4.3-10.8
			c-3.033-9.034-4.883-18.1-5.55-27.2c-0.633-9.1,0.433-19.7,3.2-31.8c1.4-6.034,2.867-11.167,4.4-15.4H5.4
			c0.7,3.534,1.3,8.05,1.8,13.55c1.066,10.967,1.2,21.333,0.4,31.1C6.8-30.783,5.3-21.467,3.1-12.6C2-8.167,0.967-4.717,0-2.25
			L63.35,0z"/>
	</g>
</symbol>
<symbol  id="FlashAICB_x2F_front_ground_2_x2F__x3C_Path_x3E__x5F_3" viewBox="0 -1.05 2.1 1.05">
	<g id="Layer_1_21_">
		<path style="fill-rule:evenodd;clip-rule:evenodd;fill:#55412D;" d="M2.1-0.55c0-0.333-0.35-0.5-1.05-0.5
			C0.35-1.05,0-0.883,0-0.55C0-0.183,0.35,0,1.05,0C1.75,0,2.1-0.183,2.1-0.55z"/>
	</g>
</symbol>
<symbol  id="FlashAICB_x2F_front_ground_2_x2F__x3C_Path_x3E__x5F_4" viewBox="0 -2.85 6.5 2.85">
	<g id="Layer_1_12_">
		<path style="fill-rule:evenodd;clip-rule:evenodd;fill:#55412D;" d="M6.5-1.45c0-0.367-0.317-0.7-0.95-1
			c-0.633-0.267-1.4-0.4-2.3-0.4s-1.667,0.133-2.3,0.4C0.317-2.15,0-1.817,0-1.45c0,0.4,0.317,0.733,0.95,1
			C1.583-0.15,2.35,0,3.25,0s1.667-0.15,2.3-0.45C6.183-0.717,6.5-1.05,6.5-1.45z"/>
	</g>
</symbol>
<symbol  id="FlashAICB_x2F_front_ground_2_x2F__x3C_Path_x3E__x5F_4_x5F_0" viewBox="0 -1.8 4.05 1.8">
	<g id="Layer_1_19_">
		<path style="fill-rule:evenodd;clip-rule:evenodd;fill:#55412D;" d="M4.05-0.9c0-0.267-0.2-0.483-0.6-0.65
			C3.05-1.717,2.567-1.8,2-1.8S0.967-1.717,0.6-1.55C0.2-1.383,0-1.167,0-0.9c0,0.233,0.2,0.45,0.6,0.65C0.967-0.083,1.433,0,2,0
			s1.05-0.083,1.45-0.25C3.85-0.45,4.05-0.667,4.05-0.9z"/>
	</g>
</symbol>
<symbol  id="FlashAICB_x2F_front_ground_2_x2F__x3C_Path_x3E__x5F_4_x5F_1" viewBox="0 -2.95 6.65 2.95">
	<g id="Layer_1_26_">
		<path style="fill-rule:evenodd;clip-rule:evenodd;fill:#55412D;" d="M0-1.5c0,0.4,0.333,0.75,1,1.05C1.633-0.15,2.4,0,3.3,0
			c0.934,0,1.717-0.15,2.35-0.45c0.667-0.3,1-0.65,1-1.05s-0.333-0.75-1-1.05c-0.633-0.267-1.417-0.4-2.35-0.4
			c-0.9,0-1.667,0.133-2.3,0.4C0.333-2.25,0-1.9,0-1.5z"/>
	</g>
</symbol>
<symbol  id="FlashAICB_x2F_front_ground_2_x2F__x3C_Path_x3E__x5F_4_x5F_2" viewBox="0 -1.35 3.1 1.35">
	<g id="Layer_1_33_">
		<path style="fill-rule:evenodd;clip-rule:evenodd;fill:#55412D;" d="M0-0.7C0-0.233,0.517,0,1.55,0C2.583,0,3.1-0.233,3.1-0.7
			c0-0.167-0.15-0.316-0.45-0.45c-0.3-0.133-0.667-0.2-1.1-0.2c-0.433,0-0.8,0.067-1.1,0.2C0.15-1.017,0-0.867,0-0.7z"/>
	</g>
</symbol>
<symbol  id="FlashAICB_x2F_front_ground_2_x2F__x3C_Path_x3E__x5F_4_x5F_3" viewBox="0 -1.8 4.05 1.8">
	<g id="Layer_1_40_">
		<path style="fill-rule:evenodd;clip-rule:evenodd;fill:#55412D;" d="M4.05-0.9c0-0.267-0.2-0.483-0.6-0.65
			C3.083-1.717,2.617-1.8,2.05-1.8C1.483-1.8,1-1.717,0.6-1.55C0.2-1.383,0-1.167,0-0.9c0,0.233,0.2,0.45,0.6,0.65
			C1-0.083,1.483,0,2.05,0c0.567,0,1.034-0.083,1.4-0.25C3.85-0.45,4.05-0.667,4.05-0.9z"/>
	</g>
</symbol>
<symbol  id="FlashAICB_x2F_front_ground_2_x2F__x3C_Path_x3E__x5F_4_x5F_4" viewBox="0 -3.7 8.35 3.7">
	<g id="Layer_1_47_">
		<path style="fill-rule:evenodd;clip-rule:evenodd;fill:#55412D;" d="M8.35-1.85c0-0.5-0.4-0.933-1.2-1.3
			C6.317-3.517,5.333-3.7,4.2-3.7c-1.167,0-2.167,0.184-3,0.55C0.4-2.783,0-2.35,0-1.85s0.4,0.934,1.2,1.3
			C2.033-0.183,3.033,0,4.2,0c1.133,0,2.117-0.183,2.95-0.55C7.95-0.917,8.35-1.35,8.35-1.85z"/>
	</g>
</symbol>
<symbol  id="FlashAICB_x2F_front_ground_2_x2F__x3C_Path_x3E__x5F_4_x5F_5">
	<g id="Layer_1_54_">
	</g>
</symbol>
<symbol  id="FlashAICB_x2F_front_ground_2_x2F__x3C_Path_x3E__x5F_5" viewBox="0 -1.55 4.15 1.55">
	<g id="Layer_1_11_">
		<path style="fill-rule:evenodd;clip-rule:evenodd;fill:#55412D;" d="M4.15-0.75c0-0.233-0.2-0.417-0.6-0.55
			C3.15-1.467,2.667-1.55,2.1-1.55c-0.567,0-1.067,0.083-1.5,0.25C0.2-1.167,0-0.983,0-0.75c0,0.2,0.2,0.367,0.6,0.5
			C1.033-0.083,1.533,0,2.1,0c0.566,0,1.05-0.083,1.45-0.25C3.95-0.383,4.15-0.55,4.15-0.75z"/>
	</g>
</symbol>
<symbol  id="FlashAICB_x2F_front_ground_2_x2F__x3C_Path_x3E__x5F_52" viewBox="0 -90.75 303.35 90.75">
	<g id="Layer_1_7_">
		
			<linearGradient id="SVGID_6_" gradientUnits="userSpaceOnUse" x1="-78.1274" y1="-16010.2363" x2="13.1976" y2="-16010.2363" gradientTransform="matrix(1.094990e-005 -1 1 -0.001 16161.9111 -94.1245)">
			<stop  offset="0" style="stop-color:#3E2916"/>
			<stop  offset="0.1059" style="stop-color:#594837"/>
			<stop  offset="0.3373" style="stop-color:#A1978E"/>
			<stop  offset="0.6196" style="stop-color:#FFFFFF"/>
		</linearGradient>
		<path style="fill-rule:evenodd;clip-rule:evenodd;fill:url(#SVGID_6_);" d="M288-47.35c-0.7-11.4-0.367-22.083,1-32.05
			c-0.533-0.233-1.067-0.517-1.6-0.85c-4.9-2.867-16.917-3.45-36.05-1.75c-0.5-0.933-3.517-2-9.05-3.2
			c-5.566-1.2-11.216-2.383-16.95-3.55s-14.633-1.833-26.7-2l-17.3,0.25c-1.4,0.567-3.167,1.167-5.3,1.8
			c-4.267,1.267-8.167,2-11.7,2.2s-8.684,0.017-15.45-0.55L139.85-88c-0.667-0.333-1.817-0.667-3.45-1c-3.233-0.667-7.25-1-12.05-1
			c-4.8,0-9.4,0.417-13.8,1.25l-5.2,1.25c-2.333,1.333-5.267,2.733-8.8,4.2c-7.1,2.9-13.667,4.667-19.7,5.3s-13.434,0.483-22.2-0.45
			L43.35-80c-8.333,0.667-14.333,1.5-18,2.5c-2.3,0.633-4.817,1.9-7.55,3.8l-1.5,1.2c0.9,7.9,0.8,15.85-0.3,23.85
			C14.633-38.383,11.55-28.3,6.75-18.4C4.383-13.467,2.133-9.55,0-6.65L303.35,0c-2.267-3.267-4.617-7.7-7.05-13.3
			C291.467-24.467,288.7-35.817,288-47.35z"/>
	</g>
</symbol>
<symbol  id="FlashAICB_x2F_front_ground_2_x2F__x3C_Path_x3E__x5F_5_x5F_0" viewBox="0 -1 2.6 1">
	<g id="Layer_1_18_">
		<path style="fill-rule:evenodd;clip-rule:evenodd;fill:#55412D;" d="M2.6-0.5c0-0.133-0.133-0.25-0.4-0.35
			C1.933-0.95,1.633-1,1.3-1C0.433-1,0-0.833,0-0.5c0,0.133,0.133,0.25,0.4,0.35S0.967,0,1.3,0C2.167,0,2.6-0.167,2.6-0.5z"/>
	</g>
</symbol>
<symbol  id="FlashAICB_x2F_front_ground_2_x2F__x3C_Path_x3E__x5F_5_x5F_1" viewBox="0 -1.6 4.3 1.6">
	<g id="Layer_1_25_">
		<path style="fill-rule:evenodd;clip-rule:evenodd;fill:#55412D;" d="M0-0.8c0,0.233,0.217,0.417,0.65,0.55
			C1.05-0.083,1.55,0,2.15,0S3.267-0.083,3.7-0.25C4.1-0.383,4.3-0.567,4.3-0.8c0-0.233-0.2-0.417-0.6-0.55
			C3.267-1.517,2.75-1.6,2.15-1.6s-1.1,0.083-1.5,0.25C0.217-1.217,0-1.033,0-0.8z"/>
	</g>
</symbol>
<symbol  id="FlashAICB_x2F_front_ground_2_x2F__x3C_Path_x3E__x5F_5_x5F_2" viewBox="0 -0.75 2 0.75">
	<g id="Layer_1_32_">
		<path style="fill-rule:evenodd;clip-rule:evenodd;fill:#55412D;" d="M0-0.35C0-0.117,0.333,0,1,0s1-0.117,1-0.35
			c0-0.267-0.333-0.4-1-0.4S0-0.617,0-0.35z"/>
	</g>
</symbol>
<symbol  id="FlashAICB_x2F_front_ground_2_x2F__x3C_Path_x3E__x5F_5_x5F_3" viewBox="0 -1 2.6 1">
	<g id="Layer_1_39_">
		<path style="fill-rule:evenodd;clip-rule:evenodd;fill:#55412D;" d="M2.6-0.5C2.6-0.833,2.167-1,1.3-1S0-0.833,0-0.5
			c0,0.133,0.133,0.25,0.4,0.35S0.967,0,1.3,0C2.167,0,2.6-0.167,2.6-0.5z"/>
	</g>
</symbol>
<symbol  id="FlashAICB_x2F_front_ground_2_x2F__x3C_Path_x3E__x5F_5_x5F_4" viewBox="0 -2 5.35 2">
	<g id="Layer_1_46_">
		<path style="fill-rule:evenodd;clip-rule:evenodd;fill:#55412D;" d="M5.35-1c0-0.267-0.267-0.5-0.8-0.7C4.05-1.9,3.433-2,2.7-2
			C1.967-2,1.333-1.9,0.8-1.7C0.267-1.5,0-1.267,0-1s0.267,0.5,0.8,0.7C1.333-0.1,1.967,0,2.7,0c0.733,0,1.35-0.1,1.85-0.3
			C5.083-0.5,5.35-0.733,5.35-1z"/>
	</g>
</symbol>
<symbol  id="FlashAICB_x2F_front_ground_2_x2F__x3C_Path_x3E__x5F_5_x5F_5" viewBox="0 -2 5.3 2">
	<g id="Layer_1_53_">
		<path style="fill-rule:evenodd;clip-rule:evenodd;fill:#55412D;" d="M5.3-1c0-0.3-0.25-0.55-0.75-0.75C4.05-1.917,3.417-2,2.65-2
			s-1.4,0.083-1.9,0.25C0.25-1.55,0-1.3,0-1c0,0.267,0.25,0.5,0.75,0.7C1.283-0.1,1.917,0,2.65,0s1.367-0.1,1.9-0.3
			C5.05-0.5,5.3-0.733,5.3-1z"/>
	</g>
</symbol>
<symbol  id="FlashAICB_x2F_front_ground_2_x2F__x3C_Path_x3E__x5F_6" viewBox="0 -1.55 3.4 1.55">
	<g id="Layer_1_10_">
		<path style="fill-rule:evenodd;clip-rule:evenodd;fill:#55412D;" d="M3.4-0.8c0-0.2-0.167-0.383-0.5-0.55
			c-0.333-0.133-0.733-0.2-1.2-0.2c-0.467,0-0.867,0.066-1.2,0.2C0.167-1.183,0-1,0-0.8c0,0.233,0.167,0.417,0.5,0.55
			C0.833-0.083,1.233,0,1.7,0c0.466,0,0.867-0.083,1.2-0.25C3.233-0.383,3.4-0.567,3.4-0.8z"/>
	</g>
</symbol>
<symbol  id="FlashAICB_x2F_front_ground_2_x2F__x3C_Path_x3E__x5F_6_x5F_0" viewBox="0 -1 2.1 1">
	<g id="Layer_1_17_">
		<path style="fill-rule:evenodd;clip-rule:evenodd;fill:#55412D;" d="M2.1-0.5c0-0.133-0.1-0.25-0.3-0.35
			C1.567-0.95,1.317-1,1.05-1C0.35-1,0-0.833,0-0.5S0.35,0,1.05,0C1.317,0,1.567-0.05,1.8-0.15C2-0.25,2.1-0.367,2.1-0.5z"/>
	</g>
</symbol>
<symbol  id="FlashAICB_x2F_front_ground_2_x2F__x3C_Path_x3E__x5F_6_x5F_1" viewBox="0 -1.6 3.45 1.6">
	<g id="Layer_1_24_">
		<path style="fill-rule:evenodd;clip-rule:evenodd;fill:#55412D;" d="M0-0.8c0,0.233,0.167,0.417,0.5,0.55
			C0.833-0.083,1.25,0,1.75,0c0.467,0,0.867-0.083,1.2-0.25c0.333-0.133,0.5-0.317,0.5-0.55c0-0.233-0.167-0.417-0.5-0.55
			C2.617-1.517,2.217-1.6,1.75-1.6c-0.5,0-0.917,0.083-1.25,0.25C0.167-1.217,0-1.033,0-0.8z"/>
	</g>
</symbol>
<symbol  id="FlashAICB_x2F_front_ground_2_x2F__x3C_Path_x3E__x5F_6_x5F_2" viewBox="0 -0.75 1.6 0.75">
	<g id="Layer_1_31_">
		<path style="fill-rule:evenodd;clip-rule:evenodd;fill:#55412D;" d="M0-0.4C0-0.133,0.267,0,0.8,0c0.534,0,0.8-0.133,0.8-0.4
			c0-0.233-0.267-0.35-0.8-0.35C0.267-0.75,0-0.633,0-0.4z"/>
	</g>
</symbol>
<symbol  id="FlashAICB_x2F_front_ground_2_x2F__x3C_Path_x3E__x5F_6_x5F_3" viewBox="0 -0.95 2.1 0.95">
	<g id="Layer_1_38_">
		<path style="fill-rule:evenodd;clip-rule:evenodd;fill:#55412D;" d="M2.1-0.45c0-0.333-0.35-0.5-1.05-0.5
			C0.35-0.95,0-0.783,0-0.45C0-0.15,0.35,0,1.05,0C1.75,0,2.1-0.15,2.1-0.45z"/>
	</g>
</symbol>
<symbol  id="FlashAICB_x2F_front_ground_2_x2F__x3C_Path_x3E__x5F_6_x5F_4" viewBox="0 -2 4.35 2">
	<g id="Layer_1_45_">
		<path style="fill-rule:evenodd;clip-rule:evenodd;fill:#55412D;" d="M4.35-1c0-0.267-0.2-0.5-0.6-0.7C3.317-1.9,2.8-2,2.2-2
			C1.6-2,1.083-1.9,0.65-1.7C0.217-1.5,0-1.267,0-1c0,0.3,0.217,0.533,0.65,0.7C1.083-0.1,1.6,0,2.2,0c0.6,0,1.117-0.1,1.55-0.3
			C4.15-0.467,4.35-0.7,4.35-1z"/>
	</g>
</symbol>
<symbol  id="FlashAICB_x2F_front_ground_2_x2F__x3C_Path_x3E__x5F_6_x5F_5" viewBox="0 -2 4.35 2">
	<g id="Layer_1_52_">
		<path style="fill-rule:evenodd;clip-rule:evenodd;fill:#55412D;" d="M4.35-1c0-0.267-0.2-0.5-0.6-0.7C3.317-1.9,2.8-2,2.2-2
			C1.6-2,1.083-1.9,0.65-1.7C0.217-1.5,0-1.267,0-1s0.217,0.5,0.65,0.7C1.083-0.1,1.6,0,2.2,0c0.6,0,1.117-0.1,1.55-0.3
			C4.15-0.5,4.35-0.733,4.35-1z"/>
	</g>
</symbol>
<symbol  id="FlashAICB_x2F_front_ground_2_x2F__x3C_Path_x3E__x5F_7" viewBox="0 -1.75 3.45 1.75">
	<g id="Layer_1_28_">
		<path style="fill-rule:evenodd;clip-rule:evenodd;fill:#55412D;" d="M0-0.9c0,0.233,0.167,0.45,0.5,0.65
			C0.867-0.083,1.283,0,1.75,0s0.867-0.083,1.2-0.25c0.333-0.2,0.5-0.417,0.5-0.65s-0.167-0.434-0.5-0.6
			c-0.333-0.167-0.733-0.25-1.2-0.25S0.867-1.667,0.5-1.5C0.167-1.333,0-1.133,0-0.9z"/>
	</g>
</symbol>
<symbol  id="FlashAICB_x2F_front_ground_2_x2F__x3C_Path_x3E__x5F_8" viewBox="0 -0.8 1.65 0.8">
	<g id="Layer_1_35_">
		<path style="fill-rule:evenodd;clip-rule:evenodd;fill:#55412D;" d="M0-0.4C0-0.133,0.267,0,0.8,0c0.567,0,0.85-0.133,0.85-0.4
			S1.367-0.8,0.8-0.8C0.267-0.8,0-0.667,0-0.4z"/>
	</g>
</symbol>
<symbol  id="FlashAICB_x2F_front_ground_2_x2F__x3C_Path_x3E__x5F_9">
	<g id="Layer_1_9_">
	</g>
</symbol>
<symbol  id="FlashAICB_x2F_front_ground_2_x2F__x3C_Path_x3E__x5F_9_x5F_0" viewBox="0 -2.6 5.8 2.6">
	<g id="Layer_1_16_">
		<path style="fill-rule:evenodd;clip-rule:evenodd;fill:#55412D;" d="M5.8-1.3c0-0.367-0.283-0.667-0.85-0.9
			C4.383-2.467,3.7-2.6,2.9-2.6c-0.8,0-1.483,0.133-2.05,0.4C0.283-1.967,0-1.667,0-1.3s0.283,0.667,0.85,0.9
			C1.417-0.133,2.1,0,2.9,0c0.8,0,1.483-0.133,2.05-0.4C5.517-0.633,5.8-0.933,5.8-1.3z"/>
	</g>
</symbol>
<symbol  id="FlashAICB_x2F_front_ground_2_x2F__x3C_Path_x3E__x5F_9_x5F_1" viewBox="0 -4.25 9.55 4.25">
	<g id="Layer_1_23_">
		<path style="fill-rule:evenodd;clip-rule:evenodd;fill:#55412D;" d="M0-2.1c0,0.567,0.467,1.067,1.4,1.5C2.333-0.2,3.467,0,4.8,0
			c1.3,0,2.417-0.2,3.35-0.6c0.934-0.433,1.4-0.933,1.4-1.5c0-0.6-0.466-1.117-1.4-1.55c-0.933-0.4-2.05-0.6-3.35-0.6
			c-1.333,0-2.466,0.2-3.4,0.6C0.467-3.217,0-2.7,0-2.1z"/>
	</g>
</symbol>
<symbol  id="FlashAICB_x2F_front_ground_2_x2F__x3C_Path_x3E__x5F_9_x5F_2" viewBox="0 -1.95 4.45 1.95">
	<g id="Layer_1_30_">
		<path style="fill-rule:evenodd;clip-rule:evenodd;fill:#55412D;" d="M0-0.95c0,0.267,0.217,0.5,0.65,0.7
			C1.083-0.083,1.617,0,2.25,0c0.6,0,1.117-0.083,1.55-0.25c0.434-0.2,0.65-0.433,0.65-0.7c0-0.267-0.217-0.5-0.65-0.7
			c-0.433-0.2-0.95-0.3-1.55-0.3c-0.633,0-1.167,0.1-1.6,0.3C0.217-1.45,0-1.217,0-0.95z"/>
	</g>
</symbol>
<symbol  id="FlashAICB_x2F_front_ground_2_x2F__x3C_Path_x3E__x5F_9_x5F_3" viewBox="0 -2.6 5.85 2.6">
	<g id="Layer_1_37_">
		<path style="fill-rule:evenodd;clip-rule:evenodd;fill:#55412D;" d="M5.85-1.3c0-0.367-0.283-0.667-0.85-0.9
			C4.433-2.467,3.733-2.6,2.9-2.6c-0.8,0-1.483,0.133-2.05,0.4C0.283-1.967,0-1.667,0-1.3s0.283,0.667,0.85,0.9
			C1.417-0.133,2.1,0,2.9,0C3.733,0,4.433-0.133,5-0.4C5.567-0.633,5.85-0.933,5.85-1.3z"/>
	</g>
</symbol>
<symbol  id="FlashAICB_x2F_front_ground_2_x2F__x3C_Path_x3E__x5F_9_x5F_4" viewBox="0 -5.35 12.05 5.35">
	<g id="Layer_1_44_">
		<path style="fill-rule:evenodd;clip-rule:evenodd;fill:#55412D;" d="M12.05-2.65c0-0.733-0.583-1.367-1.75-1.9
			c-1.167-0.534-2.583-0.8-4.25-0.8c-1.667,0-3.1,0.267-4.3,0.8C0.583-4.05,0-3.417,0-2.65C0-1.917,0.583-1.3,1.75-0.8
			C2.95-0.267,4.383,0,6.05,0C7.683,0,9.1-0.267,10.3-0.8C11.467-1.3,12.05-1.917,12.05-2.65z"/>
	</g>
</symbol>
<symbol  id="FlashAICB_x2F_front_ground_2_x2F__x3C_Path_x3E__x5F_9_x5F_5" viewBox="0 -5.35 12 5.35">
	<g id="Layer_1_51_">
		<path style="fill-rule:evenodd;clip-rule:evenodd;fill:#55412D;" d="M12-2.65c0-0.733-0.583-1.367-1.75-1.9
			C9.083-5.083,7.667-5.35,6-5.35s-3.083,0.267-4.25,0.8C0.583-4.05,0-3.417,0-2.65C0-1.917,0.583-1.3,1.75-0.8
			C2.917-0.267,4.333,0,6,0c1.633,0,3.05-0.267,4.25-0.8C11.417-1.3,12-1.917,12-2.65z"/>
	</g>
</symbol>
<g>
	<defs>
		<path id="SVGID_7_" d="M309.7,28.35c-0.867-3.833-5.75-7.55-14.65-11.15c-9-3.6-21.2-6.75-36.6-9.45
			c-34.667-6.033-76.334-8.55-125-7.55C83.983,1.233,49.433,4.3,29.8,9.4c-9.833,2.567-17.1,5.817-21.8,9.75
			c-4.264,3.554-6.772,7.97-7.525,13.25c-0.028,0.063-0.053,0.129-0.075,0.2l-0.35,2.7C-0.117,37.5,0,39.6,0.4,41.6
			c1.3,6.367,5.184,10.566,11.65,12.6c0.5,0.154,1.008,0.288,1.525,0.4c3.652,8.487,6.061,17.104,7.225,25.85
			c1.1,8,1.2,15.95,0.3,23.85l1.5,1.2c2.7,1.9,5.2,3.167,7.5,3.8c3.633,1,9.6,1.834,17.9,2.5l11.25-1.55
			c8.733-0.934,16.117-1.083,22.15-0.45c6,0.634,12.533,2.4,19.6,5.3c3.533,1.467,6.45,2.867,8.75,4.2l5.2,1.25
			c4.367,0.834,8.95,1.25,13.75,1.25c4.767,0,8.767-0.333,12-1c1.633-0.333,2.767-0.666,3.4-1l9.05-0.95
			c6.734-0.566,11.85-0.75,15.35-0.55c3.533,0.2,7.417,0.934,11.65,2.2c2.133,0.634,3.899,1.233,5.3,1.8l17.25,0.25
			c12-0.166,20.85-0.833,26.55-2c5.733-1.166,11.366-2.35,16.9-3.55c5.5-1.2,8.5-2.267,9-3.2c19.066,1.7,31.033,1.117,35.899-1.75
			c0.533-0.333,1.066-0.616,1.601-0.85c-1.367-9.967-1.7-20.65-1-32.05c0.58-9.565,2.58-19.007,6-28.325
			c0.679-0.365,1.246-0.79,1.699-1.275c1.767-1.867,3.117-4.167,4.051-6.9c0.473-1.419,1.181-2.803,2.125-4.15
			C309.215,35.77,310.606,32.387,309.7,28.35z"/>
	</defs>
	<clipPath id="SVGID_8_">
		<use xlink:href="#SVGID_7_"  style="overflow:visible;"/>
	</clipPath>
	<g id="front_ground_2" style="clip-path:url(#SVGID_8_);">
		<g>
			<path style="fill-rule:evenodd;clip-rule:evenodd;fill:#4C3B2A;" d="M300.65,45.85c-4.834,11.167-7.601,22.516-8.301,34.05
				c-0.691,11.393-0.357,22.051,1,31.975c-0.519,0.261-1.053,0.553-1.6,0.875c-4.9,2.866-16.917,3.45-36.05,1.75
				c-0.5,0.934-3.517,2-9.05,3.2c-5.567,1.2-11.217,2.383-16.95,3.55s-14.634,1.833-26.7,2L185.7,123
				c-1.4-0.566-3.167-1.167-5.3-1.8c-4.267-1.267-8.167-2-11.7-2.2s-8.684-0.017-15.45,0.55l-9.05,0.95
				c-0.667,0.333-1.817,0.667-3.45,1c-3.233,0.667-7.25,1-12.05,1c-4.8,0-9.4-0.417-13.8-1.25l-5.2-1.25
				c-2.333-1.333-5.267-2.733-8.8-4.2c-7.1-2.899-13.667-4.666-19.7-5.3c-6.034-0.634-13.434-0.483-22.2,0.45l-11.3,1.55
				c-8.333-0.667-14.333-1.5-18-2.5c-2.3-0.634-4.817-1.9-7.55-3.8l-1.525-1.2c0.903-7.87,0.812-15.804-0.275-23.8
				c-1.367-10.267-4.45-20.35-9.25-30.25c-1.5-3.1-3.067-5.983-4.7-8.65l-2.05-3.1l303.35-6.65
				C305.434,35.817,303.083,40.25,300.65,45.85z"/>
			
				<use xlink:href="#FlashAICB_x2F_front_ground_2_x2F__x3C_Group_x3E__x5F_8"  width="272.875" height="41.8" x="1.15" y="-41.8" transform="matrix(1 0 0 -1 19.3501 73.6504)" style="overflow:visible;opacity:0.3008;enable-background:new    ;"/>
			
				<use xlink:href="#FlashAICB_x2F_front_ground_2_x2F__x3C_Group_x3E__x5F_7"  width="278.05" height="54.9" y="-54.9" transform="matrix(1 0 0 -1 16.3501 55)" style="overflow:visible;opacity:0.3008;enable-background:new    ;"/>
			
				<use xlink:href="#FlashAICB_x2F_front_ground_2_x2F__x3C_Clip_Group_0_x3E_"  width="303.35" height="103" y="-103" transform="matrix(1 0 0 -1 4.3501 32.5498)" style="overflow:visible;"/>
			
				<use xlink:href="#FlashAICB_x2F_front_ground_2_x2F__x3C_Path_x3E__x5F_52"  width="303.35" height="90.75" y="-90.75" transform="matrix(1 0 0 -1 4.3501 32.5498)" style="overflow:visible;opacity:0.8008;enable-background:new    ;"/>
			<path style="fill-rule:evenodd;clip-rule:evenodd;fill:#4C3B2A;" d="M297.45,42.35c-12.934,4.167-34.733,4.767-65.4,1.8
				c-34.6-3.367-57.25-4.933-67.95-4.7c-6.899,0.167-13.683,0.85-20.35,2.05c-5.367,1-12.933,2.783-22.7,5.35
				c-8.867,2.333-20.283,3.917-34.25,4.75c-13.9,0.833-27.367,0.75-40.4-0.25c-14.1-1.1-25.183-3.117-33.25-6.05
				C4.017,42.033-0.233,37.9,0.4,32.9C1.067,27.4,3.6,22.817,8,19.15c4.7-3.933,11.967-7.183,21.8-9.75
				c19.633-5.1,54.184-8.167,103.65-9.2c48.666-1,90.333,1.517,125,7.55c15.399,2.7,27.6,5.85,36.6,9.45
				c8.9,3.6,13.783,7.316,14.65,11.15C311.1,34.583,307.017,39.25,297.45,42.35z"/>
			<path style="fill-rule:evenodd;clip-rule:evenodd;fill:#634E3C;" d="M285.7,37.2c4.934-0.333,9.583-0.784,13.95-1.35
				c3.1-0.434,6-0.65,8.699-0.65c-2.433,2.367-4.083,4.85-4.949,7.45c-0.934,2.733-2.284,5.033-4.051,6.9
				c-2.399,2.567-7.899,3.517-16.5,2.85c-10.666-1.467-18.5-2.533-23.5-3.2c-4.033-0.534-12.966-1.05-26.8-1.55
				c-14.166-0.467-26.666-1.383-37.5-2.75c-14.666-2.233-23.85-3.45-27.55-3.65c-4.533-0.233-10.134,0.983-16.8,3.65
				c-6.467,2.6-13.4,4.434-20.8,5.5c-2.6,0.367-8.117,0.867-16.55,1.5c-2.467,0.167-7.9,1.517-16.3,4.05
				c-8.466,2.566-15.917,4.1-22.35,4.6c-7.667,0.6-14.434,0.217-20.3-1.15c-2.767-0.667-7.783-2.4-15.05-5.2
				c-3.367-1.3-7.617-1.3-12.75,0c-5.4,1.333-10.25,1.333-14.55,0C5.583,52.167,1.7,47.967,0.4,41.6c-0.4-2-0.517-4.1-0.35-6.3
				l0.35-2.7c0.6-1.934,1.55-2.7,2.85-2.3c0.967,0.3,2.45,1.45,4.45,3.45c5.7,5.733,9.816,9,12.35,9.8
				c2.034,0.667,4.117,0.833,6.25,0.5c1-0.167,2.9-0.683,5.7-1.55c5.167-1.633,10.067-1.733,14.7-0.3
				c6.433,1.966,12.867,2.767,19.3,2.4c6.333-0.4,11.35-1.867,15.05-4.4c1.633-1.133,3.867-1.717,6.7-1.75
				c1.7-0.034,4.783,0.216,9.25,0.75c10.467,1.267,19.367,1.267,26.7,0c6.667-1.133,13.683-1.633,21.05-1.5
				c5.167,0.1,10.033-0.733,14.6-2.5c5.4-2.067,12.117-2.684,20.15-1.85c4.566,0.467,11.517,1.417,20.85,2.85
				c1.233,0.133,10.801,0.45,28.7,0.95c13.7,0.367,23.467,1.383,29.3,3.05c6.2,1.767,10.934,1.983,14.2,0.65
				c0.967-0.4,2.584-1.1,4.851-2.1C279.767,37.917,282.533,37.4,285.7,37.2z"/>
			<path style="fill-rule:evenodd;clip-rule:evenodd;fill:#584534;" d="M299.35,45.9c2.233-2.333,3.334-2.867,3.301-1.6
				c0,1.233-1.101,2.983-3.301,5.25c-2.399,2.567-7.899,3.517-16.5,2.85c-10.666-1.467-18.5-2.533-23.5-3.2
				c-4.033-0.534-12.966-1.05-26.8-1.55c-14.166-0.467-26.666-1.383-37.5-2.75c-14.666-2.233-23.85-3.45-27.55-3.65
				c-4.533-0.233-10.134,0.983-16.8,3.65c-6.467,2.6-13.4,4.434-20.8,5.5c-2.6,0.367-8.117,0.867-16.55,1.5
				c-2.467,0.167-7.9,1.517-16.3,4.05c-8.466,2.566-15.917,4.1-22.35,4.6c-7.667,0.6-14.434,0.217-20.3-1.15
				c-2.767-0.667-7.783-2.4-15.05-5.2c-3.367-1.3-7.617-1.3-12.75,0c-5.4,1.333-10.25,1.333-14.55,0
				c-4.466-1.967-6.733-3.417-6.8-4.35c-0.033-0.967,2.233-0.733,6.8,0.7c4.3,1.333,9.15,1.333,14.55,0c5.133-1.3,9.383-1.3,12.75,0
				c7.2,2.8,12.217,4.517,15.05,5.15c5.867,1.367,12.633,1.767,20.3,1.2c6.433-0.5,13.883-2.033,22.35-4.6
				c8.434-2.533,13.867-3.9,16.3-4.1c8.033-0.567,13.55-1.067,16.55-1.5c7.367-1.067,14.3-2.9,20.8-5.5
				c6.633-2.667,12.233-3.867,16.8-3.6c3.7,0.2,12.884,1.4,27.55,3.6c10.867,1.367,23.367,2.3,37.5,2.8
				c13.867,0.5,22.8,1.017,26.8,1.55c5,0.667,12.834,1.733,23.5,3.2C291.45,49.417,296.95,48.467,299.35,45.9z"/>
			<path style="fill-rule:evenodd;clip-rule:evenodd;fill:#634E3C;" d="M78.4,32.95c4.434,1.6,6.65,3.517,6.65,5.75
				c0,2.267-2.216,4.2-6.65,5.8c-4.433,1.6-9.767,2.4-16,2.4c-6.267,0-11.617-0.8-16.05-2.4c-4.434-1.6-6.65-3.533-6.65-5.8
				c0-2.233,2.216-4.15,6.65-5.75c4.433-1.6,9.783-2.4,16.05-2.4S74,31.35,78.4,32.95z"/>
			<path style="fill-rule:evenodd;clip-rule:evenodd;fill:#4C3B2A;" d="M77.05,31.15c3.567,1.333,5.35,2.917,5.35,4.75
				c0,1.833-1.783,3.4-5.35,4.7c-3.533,1.3-7.816,1.95-12.85,1.95c-5,0-9.284-0.65-12.85-1.95c-3.533-1.3-5.3-2.867-5.3-4.7
				c0-1.867,1.767-3.45,5.3-4.75c3.533-1.3,7.816-1.95,12.85-1.95C69.233,29.2,73.517,29.85,77.05,31.15z"/>
			<path style="fill-rule:evenodd;clip-rule:evenodd;fill:#634E3C;" d="M19.4,32.3c0,0.934-0.816,1.733-2.45,2.4
				c-1.633,0.667-3.6,1-5.9,1c-2.3,0-4.267-0.333-5.9-1c-1.633-0.667-2.45-1.467-2.45-2.4c0-0.933,0.816-1.716,2.45-2.35
				c1.633-0.667,3.6-1,5.9-1c2.3,0,4.267,0.333,5.9,1C18.583,30.583,19.4,31.367,19.4,32.3z"/>
			<path style="fill-rule:evenodd;clip-rule:evenodd;fill:#634E3C;" d="M24.4,35c0,0.567-0.483,1.033-1.45,1.4
				c-1,0.4-2.184,0.6-3.55,0.6c-1.4,0-2.583-0.2-3.55-0.6c-0.967-0.367-1.45-0.833-1.45-1.4s0.483-1.05,1.45-1.45
				c0.967-0.4,2.15-0.6,3.55-0.6c1.367,0,2.55,0.2,3.55,0.6C23.917,33.95,24.4,34.433,24.4,35z"/>
			<path style="fill-rule:evenodd;clip-rule:evenodd;fill:#634E3C;" d="M25.2,39.7c0,0.433-0.367,0.8-1.1,1.1
				c-0.733,0.3-1.617,0.45-2.65,0.45c-1.034,0-1.917-0.15-2.65-0.45c-0.733-0.3-1.1-0.667-1.1-1.1c0-0.434,0.367-0.784,1.1-1.05
				c0.733-0.3,1.617-0.45,2.65-0.45c1.066,0,1.95,0.15,2.65,0.45C24.833,38.917,25.2,39.267,25.2,39.7z"/>
			<path style="fill-rule:evenodd;clip-rule:evenodd;fill:#634E3C;" d="M28.65,37.35c0,0.233-0.2,0.417-0.6,0.55
				c-0.367,0.167-0.816,0.25-1.35,0.25c-0.534,0-1-0.083-1.4-0.25c-0.367-0.133-0.55-0.316-0.55-0.55s0.183-0.417,0.55-0.55
				c0.4-0.167,0.867-0.25,1.4-0.25c0.533,0,0.983,0.083,1.35,0.25C28.45,36.933,28.65,37.117,28.65,37.35z"/>
			<path style="fill-rule:evenodd;clip-rule:evenodd;fill:#634E3C;" d="M119.35,36.2c0,0.233-0.2,0.417-0.6,0.55
				c-0.367,0.167-0.833,0.25-1.4,0.25c-0.533,0-0.983-0.083-1.35-0.25c-0.4-0.133-0.6-0.317-0.6-0.55c0-0.2,0.2-0.383,0.6-0.55
				c0.4-0.167,0.85-0.25,1.35-0.25c0.533,0,1,0.083,1.4,0.25C119.15,35.817,119.35,36,119.35,36.2z"/>
			<path style="fill-rule:evenodd;clip-rule:evenodd;fill:#634E3C;" d="M303,30.1c0,0.233-0.2,0.417-0.6,0.55
				c-0.367,0.167-0.817,0.25-1.351,0.25s-1-0.083-1.399-0.25c-0.367-0.133-0.551-0.316-0.551-0.55s0.184-0.417,0.551-0.55
				c0.399-0.167,0.866-0.25,1.399-0.25s0.983,0.083,1.351,0.25C302.8,29.683,303,29.867,303,30.1z"/>
			<path style="fill-rule:evenodd;clip-rule:evenodd;fill:#634E3C;" d="M124,34.2c0,0.233-0.2,0.417-0.6,0.55
				c-0.367,0.167-0.816,0.25-1.35,0.25c-0.533,0-1-0.083-1.4-0.25c-0.367-0.133-0.55-0.317-0.55-0.55c0-0.2,0.183-0.383,0.55-0.55
				c0.4-0.167,0.867-0.25,1.4-0.25c0.534,0,0.983,0.083,1.35,0.25C123.8,33.817,124,34,124,34.2z"/>
			<path style="fill-rule:evenodd;clip-rule:evenodd;fill:#4C3B2A;" d="M15,40.15c0,0.233-0.2,0.417-0.6,0.55
				c-0.367,0.167-0.833,0.25-1.4,0.25c-0.533,0-0.983-0.083-1.35-0.25c-0.4-0.133-0.6-0.317-0.6-0.55s0.2-0.417,0.6-0.55
				c0.367-0.167,0.817-0.25,1.35-0.25c0.567,0,1.033,0.083,1.4,0.25C14.8,39.733,15,39.917,15,40.15z"/>
			<path style="fill-rule:evenodd;clip-rule:evenodd;fill:#4C3B2A;" d="M15.05,43.05c0,0.4-0.383,0.75-1.15,1.05
				c-0.767,0.267-1.7,0.4-2.8,0.4c-1.067,0-1.983-0.133-2.75-0.4c-0.767-0.3-1.15-0.65-1.15-1.05c0-0.433,0.383-0.783,1.15-1.05
				c0.767-0.3,1.683-0.45,2.75-0.45c1.1,0,2.033,0.15,2.8,0.45C14.667,42.267,15.05,42.617,15.05,43.05z"/>
			<path style="fill-rule:evenodd;clip-rule:evenodd;fill:#4C3B2A;" d="M8.1,44.95c0,0.367-0.517,0.55-1.55,0.55
				c-1,0-1.5-0.183-1.5-0.55c0-0.167,0.15-0.3,0.45-0.4c0.3-0.133,0.65-0.2,1.05-0.2c0.434,0,0.8,0.066,1.1,0.2
				C7.95,44.65,8.1,44.783,8.1,44.95z"/>
			<path style="fill-rule:evenodd;clip-rule:evenodd;fill:#4C3B2A;" d="M11.1,45.5c0,0.3-0.383,0.45-1.15,0.45
				c-0.8,0-1.2-0.15-1.2-0.45s0.4-0.45,1.2-0.45C10.717,45.05,11.1,45.2,11.1,45.5z"/>
			<path style="fill-rule:evenodd;clip-rule:evenodd;fill:#4C3B2A;" d="M19.65,30.7c0,0.767-0.65,1.417-1.95,1.95
				c-1.3,0.533-2.883,0.8-4.75,0.8s-3.45-0.267-4.75-0.8c-1.3-0.533-1.95-1.183-1.95-1.95c0-0.767,0.65-1.417,1.95-1.95
				c1.3-0.533,2.883-0.8,4.75-0.8s3.45,0.267,4.75,0.8C19,29.283,19.65,29.933,19.65,30.7z"/>
			<path style="fill-rule:evenodd;clip-rule:evenodd;fill:#634E3C;" d="M105.6,36c0,0.933-1.417,1.717-4.25,2.35
				c-2.833,0.667-6.233,1-10.2,1c-4,0-7.4-0.333-10.2-1c-2.833-0.633-4.25-1.417-4.25-2.35s1.417-1.733,4.25-2.4
				c2.8-0.667,6.2-1,10.2-1s7.4,0.333,10.2,1C104.183,34.267,105.6,35.067,105.6,36z"/>
			<path style="fill-rule:evenodd;clip-rule:evenodd;fill:#634E3C;" d="M114.25,38.65c0,0.567-0.85,1.05-2.55,1.45
				c-1.667,0.4-3.7,0.6-6.1,0.6s-4.45-0.2-6.15-0.6c-1.7-0.4-2.55-0.883-2.55-1.45c0-0.533,0.85-1,2.55-1.4
				c1.7-0.4,3.75-0.6,6.15-0.6c2.367,0,4.4,0.2,6.1,0.6C113.4,37.65,114.25,38.117,114.25,38.65z"/>
			<path style="fill-rule:evenodd;clip-rule:evenodd;fill:#634E3C;" d="M115.7,43.4c0,0.4-0.633,0.75-1.9,1.05
				c-1.267,0.3-2.8,0.45-4.6,0.45c-1.8,0-3.333-0.15-4.6-0.45c-1.267-0.3-1.9-0.65-1.9-1.05c0-0.433,0.633-0.8,1.9-1.1
				c1.267-0.3,2.8-0.45,4.6-0.45c1.8,0,3.333,0.15,4.6,0.45C115.067,42.6,115.7,42.967,115.7,43.4z"/>
			<path style="fill-rule:evenodd;clip-rule:evenodd;fill:#634E3C;" d="M120.65,40.5c0.667,0.133,1,0.3,1,0.5
				c0,0.233-0.333,0.417-1,0.55c-0.667,0.167-1.467,0.25-2.4,0.25s-1.733-0.083-2.4-0.25c-0.667-0.133-1-0.316-1-0.55
				c0-0.2,0.333-0.367,1-0.5c0.667-0.167,1.467-0.25,2.4-0.25S119.983,40.333,120.65,40.5z"/>
			<path style="fill-rule:evenodd;clip-rule:evenodd;fill:#4C3B2A;" d="M97.95,43.85c0,0.2-0.333,0.383-1,0.55
				c-0.633,0.133-1.417,0.2-2.35,0.2c-0.934,0-1.733-0.067-2.4-0.2c-0.667-0.167-1-0.35-1-0.55c0-0.233,0.333-0.417,1-0.55
				c0.633-0.167,1.433-0.25,2.4-0.25c0.933,0,1.717,0.083,2.35,0.25C97.617,43.433,97.95,43.617,97.95,43.85z"/>
			<path style="fill-rule:evenodd;clip-rule:evenodd;fill:#4C3B2A;" d="M65.1,47.2c0,0.233-0.333,0.417-1,0.55
				C63.467,47.917,62.667,48,61.7,48c-0.934,0-1.733-0.083-2.4-0.25c-0.667-0.133-1-0.317-1-0.55c0-0.2,0.333-0.383,1-0.55
				c0.7-0.167,1.5-0.25,2.4-0.25c0.933,0,1.733,0.083,2.4,0.25C64.767,46.817,65.1,47,65.1,47.2z"/>
			<path style="fill-rule:evenodd;clip-rule:evenodd;fill:#4C3B2A;" d="M98.05,46.7c0,0.4-0.667,0.75-2,1.05
				c-1.333,0.267-2.933,0.4-4.8,0.4s-3.467-0.133-4.8-0.4c-1.3-0.3-1.95-0.65-1.95-1.05c0-0.4,0.65-0.733,1.95-1
				c1.333-0.3,2.933-0.45,4.8-0.45s3.467,0.15,4.8,0.45C97.383,45.967,98.05,46.3,98.05,46.7z"/>
			<path style="fill-rule:evenodd;clip-rule:evenodd;fill:#4C3B2A;" d="M86,48.6c0,0.167-0.25,0.3-0.75,0.4
				c-0.533,0.133-1.15,0.2-1.85,0.2c-0.7,0-1.316-0.067-1.85-0.2c-0.533-0.1-0.8-0.233-0.8-0.4c0-0.367,0.883-0.55,2.65-0.55
				C85.133,48.05,86,48.233,86,48.6z"/>
			<path style="fill-rule:evenodd;clip-rule:evenodd;fill:#4C3B2A;" d="M242.7,39.6c0,0.167-0.267,0.3-0.8,0.4
				c-0.534,0.133-1.15,0.2-1.851,0.2s-1.316-0.067-1.85-0.2c-0.533-0.1-0.8-0.233-0.8-0.4c0-0.367,0.883-0.55,2.649-0.55
				S242.7,39.233,242.7,39.6z"/>
			<path style="fill-rule:evenodd;clip-rule:evenodd;fill:#4C3B2A;" d="M60.35,49.95c0,0.367-0.883,0.55-2.65,0.55
				c-1.733,0-2.6-0.183-2.6-0.55c0-0.167,0.25-0.3,0.75-0.4c0.533-0.133,1.15-0.2,1.85-0.2c0.7,0,1.316,0.066,1.85,0.2
				C60.083,49.65,60.35,49.783,60.35,49.95z"/>
			<path style="fill-rule:evenodd;clip-rule:evenodd;fill:#4C3B2A;" d="M106.05,34.35c0,0.767-1.133,1.433-3.4,2
				c-2.267,0.533-5,0.8-8.2,0.8c-3.2,0-5.917-0.267-8.15-0.8c-2.267-0.567-3.4-1.233-3.4-2s1.133-1.417,3.4-1.95
				c2.233-0.533,4.95-0.8,8.15-0.8c3.2,0,5.933,0.267,8.2,0.8S106.05,33.583,106.05,34.35z"/>
			<path style="fill-rule:evenodd;clip-rule:evenodd;fill:#634E3C;" d="M289.9,31c0,0.933-1.4,1.717-4.2,2.35
				c-2.834,0.667-6.233,1-10.2,1c-4,0-7.4-0.333-10.2-1c-2.833-0.633-4.25-1.417-4.25-2.35s1.417-1.733,4.25-2.4
				c2.8-0.667,6.2-1,10.2-1s7.4,0.333,10.2,1C288.5,29.267,289.9,30.067,289.9,31z"/>
			<path style="fill-rule:evenodd;clip-rule:evenodd;fill:#634E3C;" d="M298.6,33.65c0,0.567-0.85,1.05-2.55,1.45
				s-3.75,0.6-6.149,0.6c-2.4,0-4.434-0.2-6.101-0.6c-1.7-0.4-2.55-0.883-2.55-1.45c0-0.533,0.85-1,2.55-1.4s3.733-0.6,6.101-0.6
				c2.399,0,4.449,0.2,6.149,0.6S298.6,33.117,298.6,33.65z"/>
			<path style="fill-rule:evenodd;clip-rule:evenodd;fill:#634E3C;" d="M300.05,38.4c0,0.4-0.633,0.75-1.899,1.05
				c-1.301,0.3-2.834,0.45-4.601,0.45c-1.8,0-3.333-0.15-4.6-0.45c-1.3-0.3-1.95-0.65-1.95-1.05c0-0.433,0.65-0.8,1.95-1.1
				c1.267-0.3,2.8-0.45,4.6-0.45c1.767,0,3.3,0.15,4.601,0.45C299.417,37.6,300.05,37.967,300.05,38.4z"/>
			<path style="fill-rule:evenodd;clip-rule:evenodd;fill:#634E3C;" d="M305.95,36c0,0.233-0.334,0.417-1,0.55
				c-0.634,0.167-1.417,0.25-2.351,0.25c-0.966,0-1.767-0.083-2.399-0.25c-0.667-0.133-1-0.316-1-0.55c0-0.2,0.333-0.367,1-0.5
				c0.666-0.167,1.467-0.25,2.399-0.25c0.934,0,1.717,0.083,2.351,0.25C305.616,35.633,305.95,35.8,305.95,36z"/>
			<path style="fill-rule:evenodd;clip-rule:evenodd;fill:#4C3B2A;" d="M282.3,38.85c0,0.2-0.333,0.383-1,0.55
				c-0.666,0.133-1.467,0.2-2.399,0.2c-0.934,0-1.717-0.067-2.351-0.2c-0.666-0.167-1-0.35-1-0.55c0-0.233,0.334-0.417,1-0.55
				c0.634-0.167,1.417-0.25,2.351-0.25c0.966,0,1.767,0.083,2.399,0.25C281.967,38.433,282.3,38.617,282.3,38.85z"/>
			<path style="fill-rule:evenodd;clip-rule:evenodd;fill:#4C3B2A;" d="M295.05,43.35c0,0.4-0.666,0.75-2,1.05
				c-1.333,0.3-2.934,0.45-4.8,0.45s-3.467-0.15-4.8-0.45c-1.3-0.3-1.95-0.65-1.95-1.05s0.65-0.733,1.95-1
				c1.333-0.3,2.934-0.45,4.8-0.45s3.467,0.15,4.8,0.45C294.384,42.617,295.05,42.95,295.05,43.35z"/>
			<path style="fill-rule:evenodd;clip-rule:evenodd;fill:#4C3B2A;" d="M169.75,34.35c0,0.4-0.667,0.75-2,1.05
				c-1.333,0.3-2.934,0.45-4.8,0.45c-1.867,0-3.467-0.15-4.8-0.45c-1.334-0.3-2-0.65-2-1.05s0.666-0.733,2-1
				c1.333-0.3,2.933-0.45,4.8-0.45c1.866,0,3.467,0.15,4.8,0.45C169.083,33.617,169.75,33.95,169.75,34.35z"/>
			<path style="fill-rule:evenodd;clip-rule:evenodd;fill:#4C3B2A;" d="M276.65,44.2c0,0.4-0.867,0.6-2.601,0.6
				c-1.767,0-2.649-0.2-2.649-0.6c0-0.367,0.883-0.55,2.649-0.55c0.733,0,1.351,0.05,1.851,0.15
				C276.4,43.933,276.65,44.067,276.65,44.2z"/>
			<path style="fill-rule:evenodd;clip-rule:evenodd;fill:#4C3B2A;" d="M237.35,40.6c0,0.267-0.383,0.4-1.149,0.4
				s-1.15-0.133-1.15-0.4c0-0.3,0.384-0.45,1.15-0.45S237.35,40.3,237.35,40.6z"/>
			<path style="fill-rule:evenodd;clip-rule:evenodd;fill:#4C3B2A;" d="M298.85,39.8c0,0.267-0.383,0.4-1.149,0.4
				s-1.15-0.133-1.15-0.4c0-0.3,0.384-0.45,1.15-0.45S298.85,39.5,298.85,39.8z"/>
			<path style="fill-rule:evenodd;clip-rule:evenodd;fill:#4C3B2A;" d="M142.65,40.2c0,0.4-0.867,0.6-2.6,0.6
				c-1.767,0-2.65-0.2-2.65-0.6c0-0.367,0.883-0.55,2.65-0.55C141.783,39.65,142.65,39.833,142.65,40.2z"/>
			<path style="fill-rule:evenodd;clip-rule:evenodd;fill:#4C3B2A;" d="M135.35,41.8c0,0.167-0.267,0.3-0.8,0.4
				c-0.5,0.1-1.117,0.15-1.85,0.15c-1.733,0-2.6-0.184-2.6-0.55c0-0.4,0.867-0.6,2.6-0.6C134.467,41.2,135.35,41.4,135.35,41.8z"/>
			<path style="fill-rule:evenodd;clip-rule:evenodd;fill:#4C3B2A;" d="M290.35,29.35c0,0.767-1.116,1.433-3.35,2
				c-2.267,0.533-5,0.8-8.2,0.8s-5.934-0.267-8.2-0.8c-2.267-0.567-3.399-1.233-3.399-2s1.133-1.417,3.399-1.95s5-0.8,8.2-0.8
				s5.934,0.267,8.2,0.8C289.233,27.933,290.35,28.583,290.35,29.35z"/>
			<path style="fill-rule:evenodd;clip-rule:evenodd;fill:#634E3C;" d="M159.6,35.65c0,0.934-1.416,1.733-4.25,2.4
				c-2.8,0.667-6.2,1-10.2,1s-7.4-0.333-10.2-1c-2.833-0.667-4.25-1.466-4.25-2.4c0-0.933,1.417-1.733,4.25-2.4
				c2.8-0.667,6.2-1,10.2-1c3.967,0,7.367,0.333,10.2,1C158.184,33.917,159.6,34.717,159.6,35.65z"/>
			<path style="fill-rule:evenodd;clip-rule:evenodd;fill:#4C3B2A;" d="M160.05,33.6c0,0.633-1.467,1.167-4.399,1.6
				c-2.967,0.466-6.5,0.7-10.601,0.7c-4.133,0-7.667-0.233-10.6-0.7c-2.934-0.434-4.4-0.967-4.4-1.6s1.467-1.184,4.4-1.65
				c2.933-0.467,6.466-0.7,10.6-0.7s7.667,0.233,10.601,0.7C158.583,32.417,160.05,32.967,160.05,33.6z"/>
			<path style="fill-rule:evenodd;clip-rule:evenodd;fill:#634E3C;" d="M209.85,30.25c4,0,7.417,0.333,10.25,1
				c2.801,0.667,4.2,1.467,4.2,2.4c0,0.934-1.399,1.733-4.2,2.4c-2.833,0.667-6.25,1-10.25,1s-7.399-0.333-10.199-1
				c-2.834-0.667-4.25-1.466-4.25-2.4c0-0.933,1.416-1.733,4.25-2.4C202.483,30.583,205.884,30.25,209.85,30.25z"/>
			<path style="fill-rule:evenodd;clip-rule:evenodd;fill:#634E3C;" d="M227.75,30.35c0-0.567,0.85-1.05,2.55-1.45
				c1.667-0.4,3.7-0.6,6.101-0.6c2.399,0,4.449,0.2,6.149,0.6s2.55,0.883,2.55,1.45c0,0.566-0.85,1.033-2.55,1.4
				c-1.7,0.4-3.75,0.6-6.149,0.6c-2.367,0-4.4-0.2-6.101-0.6C228.6,31.383,227.75,30.917,227.75,30.35z"/>
			<path style="fill-rule:evenodd;clip-rule:evenodd;fill:#634E3C;" d="M226.3,35.05c0-0.433,0.634-0.8,1.9-1.1
				c1.3-0.3,2.833-0.45,4.6-0.45c1.8,0,3.334,0.15,4.601,0.45c1.267,0.3,1.899,0.667,1.899,1.1c0,0.434-0.633,0.784-1.899,1.05
				c-1.267,0.3-2.801,0.45-4.601,0.45s-3.333-0.15-4.6-0.45C226.934,35.833,226.3,35.483,226.3,35.05z"/>
			<path style="fill-rule:evenodd;clip-rule:evenodd;fill:#634E3C;" d="M169.2,32c0-0.4,0.633-0.75,1.899-1.05
				c1.267-0.3,2.801-0.45,4.601-0.45s3.333,0.15,4.6,0.45c1.267,0.3,1.9,0.65,1.9,1.05c0,0.433-0.634,0.8-1.9,1.1
				c-1.267,0.3-2.8,0.45-4.6,0.45s-3.334-0.15-4.601-0.45C169.833,32.8,169.2,32.433,169.2,32z"/>
			<path style="fill-rule:evenodd;clip-rule:evenodd;fill:#634E3C;" d="M220.35,32.7c0-0.233,0.334-0.417,1-0.55
				c0.667-0.167,1.467-0.25,2.4-0.25c0.967,0,1.767,0.083,2.4,0.25c0.666,0.133,1,0.317,1,0.55c0,0.2-0.334,0.383-1,0.55
				c-0.667,0.167-1.467,0.25-2.4,0.25c-0.9,0-1.7-0.083-2.4-0.25C220.684,33.083,220.35,32.9,220.35,32.7z"/>
			<path style="fill-rule:evenodd;clip-rule:evenodd;fill:#4C3B2A;" d="M244.05,35.5c0-0.233,0.334-0.417,1-0.55
				c0.634-0.167,1.434-0.25,2.4-0.25c0.934,0,1.717,0.083,2.35,0.25c0.667,0.133,1,0.316,1,0.55s-0.333,0.417-1,0.55
				c-0.633,0.167-1.416,0.25-2.35,0.25c-0.967,0-1.767-0.083-2.4-0.25C244.384,35.917,244.05,35.733,244.05,35.5z"/>
			<path style="fill-rule:evenodd;clip-rule:evenodd;fill:#4C3B2A;" d="M243.95,38.35c0-0.4,0.666-0.733,2-1
				c1.333-0.3,2.934-0.45,4.8-0.45s3.467,0.15,4.8,0.45c1.334,0.267,2,0.6,2,1s-0.666,0.75-2,1.05c-1.333,0.3-2.934,0.45-4.8,0.45
				s-3.467-0.15-4.8-0.45C244.616,39.1,243.95,38.75,243.95,38.35z"/>
			<path style="fill-rule:evenodd;clip-rule:evenodd;fill:#4C3B2A;" d="M256,40.25c0-0.367,0.884-0.55,2.65-0.55
				c0.733,0,1.35,0.05,1.85,0.15c0.5,0.133,0.75,0.267,0.75,0.4c0,0.4-0.866,0.6-2.6,0.6C256.884,40.85,256,40.65,256,40.25z"/>
			<path style="fill-rule:evenodd;clip-rule:evenodd;fill:#4C3B2A;" d="M206.55,29.25c3.2,0,5.934,0.267,8.2,0.8
				c2.267,0.567,3.4,1.233,3.4,2c0,0.767-1.134,1.417-3.4,1.95s-5,0.8-8.2,0.8s-5.934-0.267-8.2-0.8s-3.399-1.183-3.399-1.95
				c0-0.767,1.133-1.433,3.399-2C200.616,29.517,203.35,29.25,206.55,29.25z"/>
			
				<use xlink:href="#FlashAICB_x2F_front_ground_2_x2F__x3C_Group_x3E__x5F_6"  width="74.75" height="14.05" y="-14.05" transform="matrix(1 0 0 -1 210.2998 105.4502)" style="overflow:visible;opacity:0.3008;enable-background:new    ;"/>
			
				<use xlink:href="#FlashAICB_x2F_front_ground_2_x2F__x3C_Group_x3E__x5F_5"  width="46.45" height="9.4" y="-9.4" transform="matrix(1 0 0 -1 195.1504 87.8496)" style="overflow:visible;opacity:0.3008;enable-background:new    ;"/>
			
				<use xlink:href="#FlashAICB_x2F_front_ground_2_x2F__x3C_Group_x3E__x5F_4"  width="76.4" height="15.4" y="-15.4" transform="matrix(1 0 0 -1 145.8999 47.75)" style="overflow:visible;opacity:0.3008;enable-background:new    ;"/>
			
				<use xlink:href="#FlashAICB_x2F_front_ground_2_x2F__x3C_Group_x3E__x5F_3"  width="35.5" height="7.15" y="-7.15" transform="matrix(1 0 0 -1 23.1001 64.5498)" style="overflow:visible;opacity:0.3008;enable-background:new    ;"/>
			
				<use xlink:href="#FlashAICB_x2F_front_ground_2_x2F__x3C_Group_x3E__x5F_2"  width="46.4" height="9.4" y="-9.4" transform="matrix(1 0 0 -1 155.0498 96.7002)" style="overflow:visible;opacity:0.3008;enable-background:new    ;"/>
			
				<use xlink:href="#FlashAICB_x2F_front_ground_2_x2F__x3C_Group_x3E__x5F_1"  width="95.9" height="19.4" y="-19.4" transform="matrix(1 0 0 -1 31.7998 66.5)" style="overflow:visible;opacity:0.3008;enable-background:new    ;"/>
			
				<use xlink:href="#FlashAICB_x2F_front_ground_2_x2F__x3C_Group_x3E_"  width="73.2" height="19.4" x="22.7" y="-19.4" transform="matrix(1 0 0 -1 61.5 99.2998)" style="overflow:visible;opacity:0.3008;enable-background:new    ;"/>
		</g>
	</g>
</g>
</svg>
