<?xml version="1.0" encoding="iso-8859-1"?>
<!-- Generator: Adobe Illustrator 15.1.0, SVG Export Plug-In . SVG Version: 6.00 Build 0)  -->
<!DOCTYPE svg PUBLIC "-//W3C//DTD SVG 1.1//EN" "http://www.w3.org/Graphics/SVG/1.1/DTD/svg11.dtd">
<svg version="1.1" id="Layer_1" xmlns="http://www.w3.org/2000/svg" xmlns:xlink="http://www.w3.org/1999/xlink" x="0px" y="0px"
	 width="383.55px" height="209.7px" viewBox="0 0 383.55 209.7" style="enable-background:new 0 0 383.55 209.7;"
	 xml:space="preserve">
<symbol  id="FlashAICB_x2F_frount_ground_3_x2F__x3C_Clip_Group_0_x3E_" viewBox="0 -167.176 383.55 167.176">
	<g id="Layer_1_57_">
	</g>
	<g>
		<defs>
			<path id="SVGID_1_" d="M333.75-22.6c2.4,9.5,4.717,17.033,6.95,22.6L41.4-11.3c2.067-4.9,4.283-11.55,6.65-19.95
				c4.7-16.8,7.733-33.933,9.1-51.4c1.214-15.521,1.156-30.921-0.175-46.2H57.1l2.05-3c1.934-2.167,4.25-3.667,6.95-4.5
				c2.7-0.833,6.183-1.167,10.45-1c2.133,0.067,3.983,0.233,5.55,0.5l6.9-0.55c5.333-0.6,9.867-1.417,13.6-2.45c6-1.667,11-3,15-4
				l5.8,1.25c4.934,0.833,10,1.25,15.2,1.25c5.2,0,9.85-1.167,13.95-3.5c2.034-1.167,3.55-2.333,4.55-3.5l5.65-1.45
				c4.333-0.9,7.95-1.25,10.85-1.05l7,0.5l13.8,4.25c11.434,2.833,22.667,4.25,33.7,4.25s20.433-0.75,28.2-2.25
				c3.867-0.767,6.633-1.517,8.3-2.25l12.05-0.3c9.934,0.233,19.583,1.5,28.95,3.8c9.367,2.3,15.6,4.817,18.7,7.55
				c1.534,1.367,2.133,2.517,1.8,3.45l0.225-0.075c-1.17,16.07-1.428,33.245-0.775,51.525C326.25-60.833,328.983-41.567,333.75-22.6
				z"/>
		</defs>
		<clipPath id="SVGID_2_">
			<use xlink:href="#SVGID_1_"  style="overflow:visible;"/>
		</clipPath>
		<g id="Layer_3_1_" style="clip-path:url(#SVGID_2_);">
			<g>
				
					<use xlink:href="#FlashAICB_x2F_frount_ground_3_x2F__x3C_Path_x3E__x5F_2"  width="62.5" height="144.7" y="-144.7" transform="matrix(1 0 0 1 73.8999 -17.6001)" style="overflow:visible;opacity:0.5;enable-background:new    ;"/>
				<g>
					
						<use xlink:href="#FlashAICB_x2F_frount_ground_3_x2F__x3C_Group_x3E__x5F_1"  width="383.55" height="124.676" y="-124.676" transform="matrix(1 0 0 1 0 -42.5)" style="overflow:visible;opacity:0.3008;enable-background:new    ;"/>
					
						<use xlink:href="#FlashAICB_x2F_frount_ground_3_x2F__x3C_Group_x3E_"  width="354.8" height="130.75" y="-130.75" transform="matrix(1 0 0 1 13.3501 -26.0498)" style="overflow:visible;opacity:0.3008;enable-background:new    ;"/>
				</g>
				
					<use xlink:href="#FlashAICB_x2F_frount_ground_3_x2F__x3C_Path_x3E__x5F_1"  width="95.25" height="157.6" y="-157.6" transform="matrix(1 0 0 1 174.0498 -9)" style="overflow:visible;opacity:0.1992;enable-background:new    ;"/>
				
					<use xlink:href="#FlashAICB_x2F_frount_ground_3_x2F__x3C_Path_x3E_"  width="49.7" height="157.6" y="-157.6" transform="matrix(1 0 0 1 111.5 -4.4502)" style="overflow:visible;opacity:0.3008;enable-background:new    ;"/>
			</g>
		</g>
	</g>
	<g id="Layer_4_1_">
	</g>
</symbol>
<symbol  id="FlashAICB_x2F_frount_ground_3_x2F__x3C_Group_x3E_" viewBox="0 -130.75 354.8 130.75">
	<g id="Layer_1_4_">
		<g>
			<path style="fill-rule:evenodd;clip-rule:evenodd;fill:#52391E;" d="M337.4-12.05c5.7,1.5,11.2,1.867,16.5,1.1
				c-1.333-5.066-2.2-10.333-2.6-15.8l-0.1-1.3l-2.15-0.6c-11.5-3.867-19.466-6.267-23.9-7.2c-9.333-1.9-20.083-2.433-32.25-1.6
				c-10.2,0.7-22.033,2.817-35.5,6.35c-13.367,3.533-22.033,5.417-26,5.65c-13.2,0.833-21.967,1.534-26.3,2.1
				c-11.733,1.5-22.75,4.033-33.05,7.6c-6.066,2.133-10.9,3.533-14.5,4.2c-3.767,0.733-7.816,1-12.15,0.8
				c-3.233-0.133-8.717-0.7-16.45-1.7c-11.467-1.466-20.583-2.566-27.35-3.3c-16.833-1.833-35.717-3.1-56.65-3.8
				C22.283-20.283,8.533-20.867,3.7-21.3C2.833-17.6,1.6-13.683,0-9.55L0.9-9.3C10.2-7,25.717-5.583,47.45-5.05
				c5.8,0.167,14.183,0.316,25.15,0.45c9.167,0.2,16,0.483,20.5,0.85c3.833,0.3,9.05,0.9,15.65,1.8c7.5,1,12.667,1.65,15.5,1.95
				l25.7-0.3c3.133-0.567,5.917-1.267,8.35-2.1c7.267-2.434,15-3.583,23.2-3.45c11.667,0.2,22.833-0.483,33.5-2.05
				c11.667-1.733,25.817-1.75,42.45-0.05c7.066,0.733,11.966,1.083,14.7,1.05c4.5-0.067,8.05-0.867,10.65-2.4
				c5.9-3.5,13.883-5.517,23.95-6.05C316.95-15.883,327.167-14.783,337.4-12.05z"/>
			<path style="fill-rule:evenodd;clip-rule:evenodd;fill:#52391E;" d="M354.8-70.65c-3.733-0.967-7.4-1.75-11-2.35h-43.65
				c-6.767,0.9-16.233,2.75-28.4,5.55c-10.167,2.333-17.5,3.583-22,3.75c-13.833,0.534-23.133,1.034-27.9,1.5
				c-12.467,1.233-24.184,3.517-35.15,6.85c-6.5,2-11.65,3.3-15.45,3.9c-4.067,0.667-8.383,0.85-12.95,0.55
				c-3.4-0.233-9.2-0.934-17.4-2.1c-12.267-1.733-21.9-3.033-28.9-3.9c-18.267-2.267-39.333-4-63.2-5.2
				c-23.3-1.167-38.333-2.2-45.1-3.1l-0.9-0.1c1.233,4.267,2.117,8.483,2.65,12.65c9.833,2.5,26.233,4.25,49.2,5.25
				c6.1,0.267,14.95,0.6,26.55,1c9.633,0.4,16.833,0.833,21.6,1.3c4,0.4,9.517,1.117,16.55,2.15c7.767,1.167,13.233,1.934,16.4,2.3
				l27.25,0.3c3.2-0.5,6.15-1.133,8.85-1.9c7.767-2.267,15.983-3.25,24.65-2.95c12.4,0.434,24.25-0.017,35.55-1.35
				c12.367-1.467,27.367-1.15,45,0.95c7.5,0.9,12.684,1.367,15.55,1.4c4.767,0.034,8.55-0.7,11.35-2.2
				c5.233-2.8,12.133-4.55,20.7-5.25c8.533-0.7,17.434-0.25,26.7,1.35C352.017-57.967,353.167-64.75,354.8-70.65z"/>
			<path style="fill-rule:evenodd;clip-rule:evenodd;fill:#52391E;" d="M354.8-128.4c-3.667-1-7.333-1.783-11-2.35h-43.65
				c-6.867,0.9-16.333,2.733-28.4,5.5c-10.233,2.367-17.567,3.633-22,3.8c-13.833,0.534-23.133,1.034-27.9,1.5
				c-12.467,1.233-24.184,3.517-35.15,6.85c-6.5,1.967-11.65,3.267-15.45,3.9c-4.067,0.633-8.383,0.8-12.95,0.5
				c-3.4-0.2-9.2-0.883-17.4-2.05c-12.4-1.767-22.033-3.083-28.9-3.95c-18.267-2.267-39.333-4-63.2-5.2
				c-23.3-1.133-38.333-2.15-45.1-3.05l-0.9-0.15c1.233,4.367,2.117,8.6,2.65,12.7c9.833,2.467,26.233,4.217,49.2,5.25
				c6.1,0.267,14.95,0.6,26.55,1c9.633,0.367,16.833,0.783,21.6,1.25c3.967,0.4,9.483,1.133,16.55,2.2
				c7.733,1.167,13.2,1.934,16.4,2.3L163-98.15c2.833-0.4,5.783-1.033,8.85-1.9c7.767-2.267,15.983-3.25,24.65-2.95
				c12.367,0.467,24.217,0.033,35.55-1.3c12.367-1.467,27.367-1.15,45,0.95c7.5,0.9,12.684,1.367,15.55,1.4
				c4.767,0.034,8.55-0.7,11.35-2.2c5.267-2.8,12.167-4.55,20.7-5.25c8.533-0.733,17.434-0.283,26.7,1.35
				C352.017-115.85,353.167-122.633,354.8-128.4z"/>
		</g>
	</g>
</symbol>
<symbol  id="FlashAICB_x2F_frount_ground_3_x2F__x3C_Group_x3E__x5F_0" viewBox="7.8 -13.7 90.05 13.7">
	<g id="Layer_1_64_">
		<g>
			
				<use xlink:href="#FlashAICB_x2F_frount_ground_3_x2F__x3C_Path_x3E__x5F_13_x5F_5"  width="17.4" height="8.05" y="-8.05" transform="matrix(1 0 0 1 28.6001 -4.6499)" style="overflow:visible;opacity:0.6992;enable-background:new    ;"/>
			<path style="fill-rule:evenodd;clip-rule:evenodd;fill:#55412D;" d="M54.55-2.65c0-0.733-0.533-1.367-1.6-1.9
				c-1.067-0.534-2.35-0.8-3.85-0.8c-1.533,0-2.817,0.267-3.85,0.8c-1.067,0.5-1.6,1.133-1.6,1.9c0,0.733,0.533,1.35,1.6,1.85
				C46.317-0.267,47.6,0,49.1,0s2.783-0.267,3.85-0.8C54.017-1.3,54.55-1.917,54.55-2.65z"/>
			<path style="fill-rule:evenodd;clip-rule:evenodd;fill:#55412D;" d="M53.5-9.5c0-0.333-0.233-0.617-0.7-0.85
				c-0.466-0.233-1.017-0.35-1.65-0.35c-0.667,0-1.233,0.117-1.7,0.35c-0.467,0.233-0.7,0.517-0.7,0.85s0.233,0.6,0.7,0.8
				c0.466,0.233,1.033,0.35,1.7,0.35c0.667,0,1.217-0.117,1.65-0.35C53.267-8.9,53.5-9.167,53.5-9.5z"/>
			
				<use xlink:href="#FlashAICB_x2F_frount_ground_3_x2F__x3C_Path_x3E__x5F_9_x5F_5"  width="12.3" height="5.35" y="-5.35" transform="matrix(1 0 0 1 63.0498 -8.3501)" style="overflow:visible;opacity:0.6992;enable-background:new    ;"/>
			<path style="fill-rule:evenodd;clip-rule:evenodd;fill:#55412D;" d="M83.5-5.35c0-0.566-0.483-1.033-1.45-1.4
				c-0.933-0.4-2.083-0.6-3.45-0.6s-2.533,0.2-3.5,0.6c-0.967,0.367-1.45,0.833-1.45,1.4c0,0.567,0.483,1.033,1.45,1.4
				c0.967,0.4,2.133,0.6,3.5,0.6s2.517-0.2,3.45-0.6C83.017-4.35,83.5-4.817,83.5-5.35z"/>
			<path style="fill-rule:evenodd;clip-rule:evenodd;fill:#55412D;" d="M80.45-10c0-0.3-0.184-0.55-0.55-0.75s-0.8-0.3-1.3-0.3
				c-0.533,0-0.983,0.1-1.35,0.3S76.7-10.3,76.7-10c0,0.267,0.183,0.5,0.55,0.7C77.617-9.1,78.067-9,78.6-9c0.5,0,0.933-0.1,1.3-0.3
				C80.267-9.5,80.45-9.733,80.45-10z"/>
			
				<use xlink:href="#FlashAICB_x2F_frount_ground_3_x2F__x3C_Path_x3E__x5F_6_x5F_5"  width="4.45" height="2" y="-2" transform="matrix(1 0 0 1 65.4502 -0.3501)" style="overflow:visible;opacity:0.5;enable-background:new    ;"/>
			
				<use xlink:href="#FlashAICB_x2F_frount_ground_3_x2F__x3C_Path_x3E__x5F_5_x5F_5"  width="5.45" height="2" y="-2" transform="matrix(1 0 0 1 92.3999 -4.3501)" style="overflow:visible;opacity:0.5;enable-background:new    ;"/>
			
				<use xlink:href="#FlashAICB_x2F_frount_ground_3_x2F__x3C_Path_x3E__x5F_4_x5F_5"  width="-32766" height="-32766" x="16383" y="16383" transform="matrix(1 0 0 1 18.0498 -14.3501)" style="overflow:visible;opacity:0.5;enable-background:new    ;"/>
			<path style="fill-rule:evenodd;clip-rule:evenodd;fill:#55412D;" d="M27.6-10.7c0-0.267-0.217-0.5-0.65-0.7
				c-0.434-0.2-0.95-0.3-1.55-0.3c-0.633,0-1.167,0.1-1.6,0.3c-0.433,0.2-0.65,0.433-0.65,0.7c0,0.267,0.217,0.5,0.65,0.7
				c0.434,0.2,0.967,0.3,1.6,0.3c0.6,0,1.117-0.1,1.55-0.3C27.383-10.2,27.6-10.433,27.6-10.7z"/>
			
				<use xlink:href="#FlashAICB_x2F_frount_ground_3_x2F__x3C_Path_x3E__x5F_1_x5F_6"  width="10.25" height="4.35" x="3.75" y="-0.6" transform="matrix(1 0 0 1 4.0498 -9)" style="overflow:visible;opacity:0.6992;enable-background:new    ;"/>
			
				<use xlink:href="#FlashAICB_x2F_frount_ground_3_x2F__x3C_Path_x3E__x5F_12"  width="4.4" height="2.2" y="-2.2" transform="matrix(1 0 0 1 83.2002 -7.75)" style="overflow:visible;opacity:0.6992;enable-background:new    ;"/>
		</g>
	</g>
</symbol>
<symbol  id="FlashAICB_x2F_frount_ground_3_x2F__x3C_Group_x3E__x5F_1" viewBox="0 -124.676 383.55 124.676">
	<g id="Layer_1_3_">
		<g>
			<path style="fill-rule:evenodd;clip-rule:evenodd;fill:#32271B;" d="M373.1-59.05c2.566,0.033,5.183,0.6,7.85,1.7v-0.05
				c-0.233-4.133-0.383-9.083-0.45-14.85c-9.067,1.3-15.7,2.217-19.9,2.75c-6.033,0.767-19.4,1.5-40.1,2.2
				c-21.2,0.7-39.917,2.017-56.15,3.95c-21.934,3.133-35.667,4.85-41.2,5.15c-4.066,0.2-7.883-0.083-11.45-0.85
				c-3.367-0.7-7.917-2.133-13.65-4.3c-9.7-3.667-20.066-6.267-31.1-7.8c-4.567-0.633-12.817-1.333-24.75-2.1
				c-3.7-0.267-11.85-2.2-24.45-5.8c-12.667-3.633-23.8-5.8-33.4-6.5C72.883-86.383,62.767-85.833,54-83.9
				c-4.2,0.933-11.7,3.367-22.5,7.3c-4.633,1.7-9.567,2.033-14.8,1c-2.934-0.667-5.167-1.167-6.7-1.5
				c-2.733-0.6-5.183-0.95-7.35-1.05C2.55-72.183,2.2-66.5,1.6-61.1l0.95-0.35c3.067-0.933,6.2-1.167,9.4-0.7
				c1.5,0.233,4.333,0.95,8.5,2.15c7.767,2.3,15.1,2.45,22,0.45c9.633-2.833,19.25-3.967,28.85-3.4
				c9.467,0.567,16.967,2.65,22.5,6.25c2.467,1.6,5.817,2.434,10.05,2.5c2.566,0.034,7.183-0.333,13.85-1.1
				c15.667-1.767,28.983-1.767,39.95,0c10,1.6,20.517,2.316,31.55,2.15c7.667-0.133,14.933,1.05,21.8,3.55
				c2.633,0.9,5.25,1.6,7.85,2.1L243-47.15c2.7-0.3,7.567-0.983,14.6-2.05c6.233-0.9,11.15-1.517,14.75-1.85
				c4.267-0.4,10.7-0.684,19.3-0.85c4.9-0.1,12.783-0.25,23.65-0.45c20.467-0.533,35.067-1.983,43.8-4.35
				C364.967-58.3,369.633-59.083,373.1-59.05z"/>
			<path style="fill-rule:evenodd;clip-rule:evenodd;fill:#32271B;" d="M381.55-102.25c0.467-6,1.133-11.683,2-17.05
				c-3.3,0.466-7.867,1.15-13.7,2.05c-6.5,1.033-10.967,1.733-13.4,2.1c-6.3,0.9-20.434,1.95-42.4,3.15
				c-22.466,1.233-42.3,3-59.5,5.3c-23.2,3.7-37.716,5.75-43.55,6.15c-4.3,0.3-8.35,0.133-12.15-0.5c-3.6-0.633-8.45-1.967-14.55-4
				c-10.333-3.434-21.367-5.784-33.1-7.05c-4.6-0.467-13.367-0.967-26.3-1.5c-3.9-0.167-12.566-1.917-26-5.25
				c-13.467-3.3-25.3-5.183-35.5-5.65c-12.133-0.567-22.85,0.233-32.15,2.4c-4.533,1.033-12.433,3.65-23.7,7.85
				c-2.5,0.933-5.017,1.517-7.55,1.75c0.867,4.8,1.55,10.267,2.05,16.4c5.567,0.867,11.367,0.4,17.4-1.4
				c10.133-3.033,20.316-4.383,30.55-4.05c10.033,0.333,18,2.216,23.9,5.65c2.633,1.533,6.2,2.283,10.7,2.25
				c2.7-0.033,7.583-0.5,14.65-1.4c16.6-2.167,30.717-2.5,42.35-1c10.667,1.367,21.816,1.816,33.45,1.35
				c8.167-0.3,15.9,0.717,23.2,3.05c2.733,0.833,5.517,1.483,8.35,1.95l25.6-0.3c3-0.367,8.15-1.15,15.45-2.35
				c6.667-1.1,11.867-1.85,15.6-2.25c1.833-0.2,17-0.983,45.5-2.35c21.667-1.033,37.117-2.833,46.35-5.4
				c7.3-2.066,12.95-2.933,16.95-2.6C373.95-104.817,377.117-103.917,381.55-102.25z"/>
			<path style="fill-rule:evenodd;clip-rule:evenodd;fill:#32271B;" d="M381.55-12.6c0.467-5.867,1.133-11.55,2-17.05
				c-3.1,0.433-7.667,1.133-13.7,2.1c-6.167,0.966-10.633,1.65-13.4,2.05c-6.4,0.9-20.534,1.967-42.4,3.2
				c-22.5,1.233-42.333,3-59.5,5.3c-23.2,3.7-37.716,5.75-43.55,6.15c-4.3,0.3-8.35,0.133-12.15-0.5c-3.6-0.633-8.45-1.967-14.55-4
				c-10.333-3.467-21.367-5.833-33.1-7.1c-4.6-0.466-13.367-0.966-26.3-1.5c-3.933-0.167-12.6-1.9-26-5.2
				c-13.467-3.3-25.3-5.184-35.5-5.65c-12.133-0.567-22.85,0.216-32.15,2.35c-4.467,1.067-12.367,3.7-23.7,7.9
				C4.917-23.583,2.4-23,0-22.8c0.867,4.833,1.55,10.3,2.05,16.4C7.617-5.533,13.417-6,19.45-7.8C29.617-10.833,39.8-12.2,50-11.9
				c10.033,0.333,18,2.233,23.9,5.7c2.633,1.534,6.2,2.284,10.7,2.25c2.7-0.033,7.583-0.517,14.65-1.45
				c16.567-2.133,30.683-2.45,42.35-0.95c10.633,1.367,21.783,1.817,33.45,1.35c8.167-0.3,15.9,0.717,23.2,3.05
				c2.733,0.833,5.517,1.483,8.35,1.95l25.6-0.3c3-0.367,8.15-1.15,15.45-2.35c6.667-1.1,11.867-1.85,15.6-2.25
				c1.733-0.2,16.9-0.983,45.5-2.35c21.667-1.033,37.117-2.85,46.35-5.45c7.3-2.033,12.95-2.9,16.95-2.6
				C373.983-15.133,377.15-14.233,381.55-12.6z"/>
		</g>
	</g>
</symbol>
<symbol  id="FlashAICB_x2F_frount_ground_3_x2F__x3C_Group_x3E__x5F_1_x5F_0" viewBox="0 -19.4 97.9 19.4">
	<g id="Layer_1_63_">
		<g>
			
				<use xlink:href="#FlashAICB_x2F_frount_ground_3_x2F__x3C_Path_x3E__x5F_13_x5F_4"  width="17.4" height="8" y="-8" transform="matrix(1 0 0 1 28.6499 -4.7002)" style="overflow:visible;opacity:0.6992;enable-background:new    ;"/>
			<path style="fill-rule:evenodd;clip-rule:evenodd;fill:#55412D;" d="M54.6-2.7c0-0.733-0.533-1.35-1.6-1.85
				c-1.067-0.534-2.367-0.8-3.9-0.8c-1.5,0-2.783,0.267-3.85,0.8c-1.067,0.5-1.6,1.117-1.6,1.85c0,0.733,0.533,1.367,1.6,1.9
				C46.317-0.267,47.6,0,49.1,0c1.533,0,2.833-0.267,3.9-0.8C54.067-1.333,54.6-1.967,54.6-2.7z"/>
			<path style="fill-rule:evenodd;clip-rule:evenodd;fill:#55412D;" d="M53.55-9.55c0-0.333-0.233-0.6-0.7-0.8
				c-0.467-0.233-1.033-0.35-1.7-0.35c-0.667,0-1.217,0.117-1.65,0.35c-0.467,0.2-0.7,0.467-0.7,0.8c0,0.333,0.233,0.617,0.7,0.85
				c0.467,0.233,1.017,0.35,1.65,0.35c0.667,0,1.233-0.117,1.7-0.35C53.317-8.933,53.55-9.217,53.55-9.55z"/>
			<path style="fill-rule:evenodd;clip-rule:evenodd;fill:#55412D;" d="M64.15-16.2c0-0.867-0.833-1.617-2.5-2.25
				c-1.7-0.633-3.717-0.95-6.05-0.95c-2.333,0-4.333,0.316-6,0.95c-1.667,0.633-2.5,1.383-2.5,2.25s0.833,1.617,2.5,2.25
				c1.633,0.6,3.633,0.9,6,0.9s4.383-0.3,6.05-0.9C63.317-14.583,64.15-15.333,64.15-16.2z"/>
			
				<use xlink:href="#FlashAICB_x2F_frount_ground_3_x2F__x3C_Path_x3E__x5F_9_x5F_4"  width="12.3" height="5.35" y="-5.35" transform="matrix(1 0 0 1 63.1001 -8.3501)" style="overflow:visible;opacity:0.6992;enable-background:new    ;"/>
			<path style="fill-rule:evenodd;clip-rule:evenodd;fill:#55412D;" d="M83.55-5.35c0-0.566-0.483-1.033-1.45-1.4
				c-0.967-0.4-2.133-0.6-3.5-0.6s-2.533,0.2-3.5,0.6s-1.45,0.867-1.45,1.4s0.483,1,1.45,1.4c0.967,0.4,2.133,0.6,3.5,0.6
				s2.533-0.2,3.5-0.6C83.067-4.317,83.55-4.783,83.55-5.35z"/>
			<path style="fill-rule:evenodd;clip-rule:evenodd;fill:#55412D;" d="M80.5-10.05c0-0.267-0.183-0.5-0.55-0.7s-0.817-0.3-1.35-0.3
				c-0.5,0-0.934,0.1-1.3,0.3s-0.55,0.433-0.55,0.7c0,0.267,0.183,0.5,0.55,0.7c0.367,0.2,0.8,0.3,1.3,0.3
				c0.533,0,0.983-0.1,1.35-0.3C80.317-9.55,80.5-9.783,80.5-10.05z"/>
			
				<use xlink:href="#FlashAICB_x2F_frount_ground_3_x2F__x3C_Path_x3E__x5F_6_x5F_4"  width="4.4" height="2" y="-2" transform="matrix(1 0 0 1 65.5 -0.3501)" style="overflow:visible;opacity:0.5;enable-background:new    ;"/>
			
				<use xlink:href="#FlashAICB_x2F_frount_ground_3_x2F__x3C_Path_x3E__x5F_5_x5F_4"  width="5.45" height="2" y="-2" transform="matrix(1 0 0 1 92.4502 -4.3501)" style="overflow:visible;opacity:0.5;enable-background:new    ;"/>
			
				<use xlink:href="#FlashAICB_x2F_frount_ground_3_x2F__x3C_Path_x3E__x5F_4_x5F_4"  width="8.5" height="3.65" y="-3.65" transform="matrix(1 0 0 1 18.1001 -14.3999)" style="overflow:visible;opacity:0.5;enable-background:new    ;"/>
			<path style="fill-rule:evenodd;clip-rule:evenodd;fill:#55412D;" d="M27.65-10.7c0-0.267-0.217-0.5-0.65-0.7
				c-0.433-0.2-0.95-0.3-1.55-0.3c-0.633,0-1.167,0.1-1.6,0.3c-0.434,0.2-0.65,0.433-0.65,0.7c0,0.267,0.216,0.5,0.65,0.7
				c0.433,0.2,0.967,0.3,1.6,0.3c0.6,0,1.117-0.1,1.55-0.3S27.65-10.433,27.65-10.7z"/>
			<path style="fill-rule:evenodd;clip-rule:evenodd;fill:#55412D;" d="M4.45-16.2c0-0.333-0.217-0.617-0.65-0.85
				c-0.433-0.233-0.95-0.35-1.55-0.35c-0.633,0-1.167,0.117-1.6,0.35C0.217-16.817,0-16.533,0-16.2c0,0.333,0.217,0.6,0.65,0.8
				c0.434,0.233,0.967,0.35,1.6,0.35c0.6,0,1.117-0.117,1.55-0.35C4.233-15.6,4.45-15.867,4.45-16.2z"/>
			
				<use xlink:href="#FlashAICB_x2F_frount_ground_3_x2F__x3C_Path_x3E__x5F_1_x5F_5"  width="10.25" height="4.35" y="-4.35" transform="matrix(1 0 0 1 4.1001 -9.0498)" style="overflow:visible;opacity:0.6992;enable-background:new    ;"/>
			
				<use xlink:href="#FlashAICB_x2F_frount_ground_3_x2F__x3C_Path_x3E__x5F_11"  width="4.45" height="2.15" y="-2.15" transform="matrix(1 0 0 1 83.2002 -7.7998)" style="overflow:visible;opacity:0.6992;enable-background:new    ;"/>
		</g>
	</g>
</symbol>
<symbol  id="FlashAICB_x2F_frount_ground_3_x2F__x3C_Group_x3E__x5F_2" viewBox="0 -9.4 47.35 9.4">
	<g id="Layer_1_62_">
		<g>
			
				<use xlink:href="#FlashAICB_x2F_frount_ground_3_x2F__x3C_Path_x3E__x5F_13_x5F_3"  width="8.4" height="3.85" y="-3.85" transform="matrix(1 0 0 1 13.8999 -2.2998)" style="overflow:visible;opacity:0.6992;enable-background:new    ;"/>
			<path style="fill-rule:evenodd;clip-rule:evenodd;fill:#55412D;" d="M26.4-1.3c0-0.367-0.25-0.684-0.75-0.95
				c-0.5-0.233-1.133-0.35-1.9-0.35c-0.733,0-1.35,0.117-1.85,0.35c-0.5,0.267-0.75,0.583-0.75,0.95s0.25,0.667,0.75,0.9
				C22.4-0.133,23.017,0,23.75,0s1.367-0.133,1.9-0.4C26.15-0.633,26.4-0.933,26.4-1.3z"/>
			<path style="fill-rule:evenodd;clip-rule:evenodd;fill:#55412D;" d="M25.9-4.65c0-0.367-0.383-0.55-1.15-0.55
				S23.6-5.017,23.6-4.65c0,0.4,0.383,0.6,1.15,0.6S25.9-4.25,25.9-4.65z"/>
			<path style="fill-rule:evenodd;clip-rule:evenodd;fill:#55412D;" d="M31.05-7.85c0-0.433-0.4-0.8-1.2-1.1
				c-0.833-0.3-1.817-0.45-2.95-0.45S24.8-9.25,24-8.95c-0.8,0.3-1.2,0.667-1.2,1.1c0,0.434,0.4,0.783,1.2,1.05
				c0.8,0.3,1.767,0.45,2.9,0.45c1.167,0,2.15-0.15,2.95-0.45C30.65-7.067,31.05-7.417,31.05-7.85z"/>
			
				<use xlink:href="#FlashAICB_x2F_frount_ground_3_x2F__x3C_Path_x3E__x5F_9_x5F_3"  width="5.95" height="2.6" y="-2.6" transform="matrix(1 0 0 1 30.5498 -4.0498)" style="overflow:visible;opacity:0.6992;enable-background:new    ;"/>
			<path style="fill-rule:evenodd;clip-rule:evenodd;fill:#55412D;" d="M40.45-2.6c0-0.267-0.233-0.5-0.7-0.7
				c-0.467-0.2-1.033-0.3-1.7-0.3c-0.667,0-1.233,0.1-1.7,0.3c-0.467,0.2-0.7,0.433-0.7,0.7s0.233,0.5,0.7,0.7
				c0.467,0.167,1.033,0.25,1.7,0.25c0.667,0,1.233-0.083,1.7-0.25C40.217-2.1,40.45-2.333,40.45-2.6z"/>
			<path style="fill-rule:evenodd;clip-rule:evenodd;fill:#55412D;" d="M38.95-4.85c0-0.333-0.3-0.5-0.9-0.5
				c-0.6,0-0.9,0.167-0.9,0.5c0,0.3,0.3,0.45,0.9,0.45C38.65-4.4,38.95-4.55,38.95-4.85z"/>
			
				<use xlink:href="#FlashAICB_x2F_frount_ground_3_x2F__x3C_Path_x3E__x5F_6_x5F_3"  width="2.15" height="0.95" y="-0.95" transform="matrix(1 0 0 1 31.7002 -0.2002)" style="overflow:visible;opacity:0.5;enable-background:new    ;"/>
			
				<use xlink:href="#FlashAICB_x2F_frount_ground_3_x2F__x3C_Path_x3E__x5F_5_x5F_3"  width="2.6" height="1" y="-1" transform="matrix(1 0 0 1 44.75 -2.1001)" style="overflow:visible;opacity:0.5;enable-background:new    ;"/>
			
				<use xlink:href="#FlashAICB_x2F_frount_ground_3_x2F__x3C_Path_x3E__x5F_4_x5F_3"  width="4.15" height="1.8" y="-1.8" transform="matrix(1 0 0 1 8.75 -6.9502)" style="overflow:visible;opacity:0.5;enable-background:new    ;"/>
			<path style="fill-rule:evenodd;clip-rule:evenodd;fill:#55412D;" d="M13.4-5.2c0-0.133-0.1-0.25-0.3-0.35
				c-0.233-0.1-0.5-0.15-0.8-0.15c-0.7,0-1.05,0.167-1.05,0.5c0,0.333,0.35,0.5,1.05,0.5C13.033-4.7,13.4-4.867,13.4-5.2z"/>
			<path style="fill-rule:evenodd;clip-rule:evenodd;fill:#55412D;" d="M2.15-7.85c0-0.4-0.35-0.6-1.05-0.6
				c-0.733,0-1.1,0.2-1.1,0.6C0-7.483,0.367-7.3,1.1-7.3C1.8-7.3,2.15-7.483,2.15-7.85z"/>
			
				<use xlink:href="#FlashAICB_x2F_frount_ground_3_x2F__x3C_Path_x3E__x5F_1_x5F_4"  width="4.95" height="2.1" y="-2.1" transform="matrix(1 0 0 1 2 -4.3999)" style="overflow:visible;opacity:0.6992;enable-background:new    ;"/>
			
				<use xlink:href="#FlashAICB_x2F_frount_ground_3_x2F__x3C_Path_x3E__x5F_10"  width="2.15" height="1.05" y="-1.05" transform="matrix(1 0 0 1 40.25 -3.7998)" style="overflow:visible;opacity:0.6992;enable-background:new    ;"/>
		</g>
	</g>
</symbol>
<symbol  id="FlashAICB_x2F_frount_ground_3_x2F__x3C_Group_x3E__x5F_3" viewBox="0 -7.15 36.15 7.15">
	<g id="Layer_1_61_">
		<g>
			
				<use xlink:href="#FlashAICB_x2F_frount_ground_3_x2F__x3C_Path_x3E__x5F_13_x5F_2"  width="6.45" height="3" y="-3" transform="matrix(1 0 0 1 19.1499 -1.7002)" style="overflow:visible;opacity:0.6992;enable-background:new    ;"/>
			<path style="fill-rule:evenodd;clip-rule:evenodd;fill:#55412D;" d="M16-1c0,0.267,0.2,0.5,0.6,0.7C17-0.1,17.467,0,18,0
				c0.567,0,1.05-0.1,1.45-0.3c0.4-0.2,0.6-0.434,0.6-0.7s-0.2-0.5-0.6-0.7c-0.4-0.167-0.883-0.25-1.45-0.25s-1.033,0.083-1.4,0.25
				C16.2-1.5,16-1.267,16-1z"/>
			<path style="fill-rule:evenodd;clip-rule:evenodd;fill:#55412D;" d="M16.4-3.5c0,0.267,0.283,0.4,0.85,0.4
				c0.6,0,0.9-0.133,0.9-0.4c0-0.3-0.3-0.45-0.9-0.45C16.683-3.95,16.4-3.8,16.4-3.5z"/>
			<path style="fill-rule:evenodd;clip-rule:evenodd;fill:#55412D;" d="M12.45-6c0,0.333,0.316,0.617,0.95,0.85s1.367,0.35,2.2,0.35
				c0.867,0,1.617-0.117,2.25-0.35c0.6-0.233,0.9-0.517,0.9-0.85s-0.3-0.6-0.9-0.8c-0.633-0.233-1.383-0.35-2.25-0.35
				S14-7.033,13.4-6.8C12.767-6.6,12.45-6.333,12.45-6z"/>
			
				<use xlink:href="#FlashAICB_x2F_frount_ground_3_x2F__x3C_Path_x3E__x5F_9_x5F_2"  width="4.55" height="1.95" y="-1.95" transform="matrix(1 0 0 1 8.2998 -3.1001)" style="overflow:visible;opacity:0.6992;enable-background:new    ;"/>
			<path style="fill-rule:evenodd;clip-rule:evenodd;fill:#55412D;" d="M5.3-1.95c0,0.2,0.184,0.367,0.55,0.5
				c0.333,0.133,0.75,0.2,1.25,0.2s0.933-0.067,1.3-0.2s0.55-0.3,0.55-0.5c0-0.233-0.184-0.417-0.55-0.55S7.6-2.7,7.1-2.7
				C5.9-2.7,5.3-2.45,5.3-1.95z"/>
			<path style="fill-rule:evenodd;clip-rule:evenodd;fill:#55412D;" d="M6.4-3.7c0,0.233,0.233,0.35,0.7,0.35S7.8-3.467,7.8-3.7
				c0-0.233-0.233-0.35-0.7-0.35S6.4-3.933,6.4-3.7z"/>
			
				<use xlink:href="#FlashAICB_x2F_frount_ground_3_x2F__x3C_Path_x3E__x5F_6_x5F_2"  width="1.6" height="0.75" y="-0.75" transform="matrix(1 0 0 1 10.3501 -0.1001)" style="overflow:visible;opacity:0.5;enable-background:new    ;"/>
			
				<use xlink:href="#FlashAICB_x2F_frount_ground_3_x2F__x3C_Path_x3E__x5F_5_x5F_2"  width="2" height="0.75" y="-0.75" transform="matrix(1 0 0 1 0 -1.6001)" style="overflow:visible;opacity:0.5;enable-background:new    ;"/>
			
				<use xlink:href="#FlashAICB_x2F_frount_ground_3_x2F__x3C_Path_x3E__x5F_4_x5F_2"  width="3.15" height="1.35" y="-1.35" transform="matrix(1 0 0 1 26.3501 -5.2998)" style="overflow:visible;opacity:0.5;enable-background:new    ;"/>
			<path style="fill-rule:evenodd;clip-rule:evenodd;fill:#55412D;" d="M25.95-3.95c0,0.267,0.267,0.4,0.8,0.4
				c0.567,0,0.85-0.133,0.85-0.4c0-0.233-0.283-0.35-0.85-0.35C26.217-4.3,25.95-4.183,25.95-3.95z"/>
			<path style="fill-rule:evenodd;clip-rule:evenodd;fill:#55412D;" d="M34.55-6c0,0.3,0.267,0.45,0.8,0.45s0.8-0.15,0.8-0.45
				c0-0.267-0.267-0.4-0.8-0.4S34.55-6.267,34.55-6z"/>
			
				<use xlink:href="#FlashAICB_x2F_frount_ground_3_x2F__x3C_Path_x3E__x5F_1_x5F_3"  width="3.8" height="1.6" y="-1.6" transform="matrix(1 0 0 1 30.8501 -3.3501)" style="overflow:visible;opacity:0.6992;enable-background:new    ;"/>
			
				<use xlink:href="#FlashAICB_x2F_frount_ground_3_x2F__x3C_Path_x3E__x5F_8"  width="1.65" height="0.8" y="-0.8" transform="matrix(1 0 0 1 3.75 -2.8501)" style="overflow:visible;opacity:0.6992;enable-background:new    ;"/>
		</g>
	</g>
</symbol>
<symbol  id="FlashAICB_x2F_frount_ground_3_x2F__x3C_Group_x3E__x5F_4" viewBox="0 -23.7 167.7 23.7">
	<g id="Layer_1_60_">
		<g>
			
				<use xlink:href="#FlashAICB_x2F_frount_ground_3_x2F__x3C_Path_x3E__x5F_13_x5F_1"  width="29.8" height="9.85" y="-9.85" transform="matrix(1 0 0 1 88.7998 -5.7002)" style="overflow:visible;opacity:0.6992;enable-background:new    ;"/>
			<path style="fill-rule:evenodd;clip-rule:evenodd;fill:#55412D;" d="M83.55,0c2.567,0,4.767-0.317,6.6-0.95
				c1.833-0.633,2.75-1.4,2.75-2.3s-0.917-1.683-2.75-2.35c-1.833-0.633-4.033-0.95-6.6-0.95c-2.566,0-4.767,0.316-6.6,0.95
				c-1.833,0.667-2.75,1.45-2.75,2.35s0.917,1.667,2.75,2.3C78.783-0.317,80.983,0,83.55,0z"/>
			<path style="fill-rule:evenodd;clip-rule:evenodd;fill:#55412D;" d="M82.95-10.65c0.8-0.267,1.2-0.6,1.2-1s-0.4-0.733-1.2-1
				c-0.8-0.267-1.767-0.4-2.9-0.4s-2.1,0.133-2.9,0.4c-0.8,0.267-1.2,0.6-1.2,1s0.4,0.733,1.2,1c0.8,0.3,1.767,0.45,2.9,0.45
				S82.15-10.35,82.95-10.65z"/>
			<path style="fill-rule:evenodd;clip-rule:evenodd;fill:#55412D;" d="M82.75-17.05c2.867-0.767,4.3-1.684,4.3-2.75
				c0-1.067-1.433-1.983-4.3-2.75c-2.833-0.767-6.267-1.15-10.3-1.15c-4.034,0-7.467,0.383-10.3,1.15
				c-2.867,0.767-4.3,1.683-4.3,2.75c0,1.066,1.433,1.983,4.3,2.75c2.833,0.733,6.267,1.1,10.3,1.1
				C76.483-15.95,79.917-16.317,82.75-17.05z"/>
			
				<use xlink:href="#FlashAICB_x2F_frount_ground_3_x2F__x3C_Path_x3E__x5F_9_x5F_1"  width="21.05" height="6.55" y="-6.55" transform="matrix(1 0 0 1 38.5498 -10.2002)" style="overflow:visible;opacity:0.6992;enable-background:new    ;"/>
			<path style="fill-rule:evenodd;clip-rule:evenodd;fill:#55412D;" d="M24.5-6.55c0,0.667,0.833,1.25,2.5,1.75
				c1.667,0.466,3.667,0.7,6,0.7s4.333-0.233,6-0.7c1.633-0.5,2.45-1.083,2.45-1.75c0-0.667-0.817-1.25-2.45-1.75
				C37.333-8.767,35.333-9,33-9s-4.333,0.233-6,0.7C25.333-7.8,24.5-7.217,24.5-6.55z"/>
			<path style="fill-rule:evenodd;clip-rule:evenodd;fill:#55412D;" d="M29.8-12.25c0,0.333,0.317,0.617,0.95,0.85
				c0.6,0.233,1.35,0.35,2.25,0.35c0.867,0,1.617-0.117,2.25-0.35s0.95-0.517,0.95-0.85s-0.317-0.633-0.95-0.9
				c-0.633-0.233-1.383-0.35-2.25-0.35c-0.9,0-1.65,0.117-2.25,0.35C30.117-12.917,29.8-12.617,29.8-12.25z"/>
			
				<use xlink:href="#FlashAICB_x2F_frount_ground_3_x2F__x3C_Path_x3E__x5F_6_x5F_1"  width="7.6" height="2.45" y="-2.45" transform="matrix(1 0 0 1 47.8999 -0.3999)" style="overflow:visible;opacity:0.5;enable-background:new    ;"/>
			
				<use xlink:href="#FlashAICB_x2F_frount_ground_3_x2F__x3C_Path_x3E__x5F_5_x5F_1"  width="9.35" height="2.45" y="-2.45" transform="matrix(1 0 0 1 0 -5.2998)" style="overflow:visible;opacity:0.5;enable-background:new    ;"/>
			
				<use xlink:href="#FlashAICB_x2F_frount_ground_3_x2F__x3C_Path_x3E__x5F_4_x5F_1"  width="14.65" height="4.5" y="-4.5" transform="matrix(1 0 0 1 122.1001 -17.5498)" style="overflow:visible;opacity:0.5;enable-background:new    ;"/>
			<path style="fill-rule:evenodd;clip-rule:evenodd;fill:#55412D;" d="M124.15-11.85c1.033,0,1.934-0.117,2.7-0.35
				c0.733-0.233,1.1-0.517,1.1-0.85c0-0.367-0.367-0.667-1.1-0.9c-0.733-0.233-1.633-0.35-2.7-0.35c-1.066,0-1.967,0.117-2.7,0.35
				c-0.733,0.267-1.1,0.567-1.1,0.9c0,0.333,0.367,0.617,1.1,0.85C122.217-11.967,123.117-11.85,124.15-11.85z"/>
			<path style="fill-rule:evenodd;clip-rule:evenodd;fill:#55412D;" d="M163.9-18.4c1.067,0,1.967-0.133,2.7-0.4
				c0.733-0.267,1.1-0.6,1.1-1c0-0.4-0.367-0.75-1.1-1.05c-0.733-0.267-1.633-0.4-2.7-0.4c-1.033,0-1.933,0.133-2.7,0.4
				c-0.733,0.3-1.1,0.65-1.1,1.05c0,0.4,0.367,0.733,1.1,1C161.933-18.533,162.833-18.4,163.9-18.4z"/>
			
				<use xlink:href="#FlashAICB_x2F_frount_ground_3_x2F__x3C_Path_x3E__x5F_1_x5F_2"  width="17.55" height="5.3" y="-5.3" transform="matrix(1 0 0 1 143.1499 -11.0498)" style="overflow:visible;opacity:0.6992;enable-background:new    ;"/>
			
				<use xlink:href="#FlashAICB_x2F_frount_ground_3_x2F__x3C_Path_x3E__x5F_7"  width="7.6" height="2.65" y="-2.65" transform="matrix(1 0 0 1 17.5 -9.5)" style="overflow:visible;opacity:0.6992;enable-background:new    ;"/>
		</g>
	</g>
</symbol>
<symbol  id="FlashAICB_x2F_frount_ground_3_x2F__x3C_Group_x3E__x5F_5" viewBox="0 -9.4 47.35 9.4">
	<g id="Layer_1_59_">
		<g>
			
				<use xlink:href="#FlashAICB_x2F_frount_ground_3_x2F__x3C_Path_x3E__x5F_13_x5F_0"  width="8.4" height="3.85" y="-3.85" transform="matrix(1 0 0 1 13.8501 -2.2998)" style="overflow:visible;opacity:0.6992;enable-background:new    ;"/>
			<path style="fill-rule:evenodd;clip-rule:evenodd;fill:#55412D;" d="M26.4-1.3c0-0.367-0.267-0.684-0.8-0.95
				c-0.5-0.233-1.117-0.35-1.85-0.35S22.4-2.483,21.9-2.25c-0.533,0.267-0.8,0.583-0.8,0.95s0.267,0.667,0.8,0.9
				C22.4-0.133,23.017,0,23.75,0s1.35-0.133,1.85-0.4C26.133-0.633,26.4-0.933,26.4-1.3z"/>
			<path style="fill-rule:evenodd;clip-rule:evenodd;fill:#55412D;" d="M25.9-4.65c0-0.367-0.383-0.55-1.15-0.55
				S23.6-5.017,23.6-4.65c0,0.4,0.383,0.6,1.15,0.6S25.9-4.25,25.9-4.65z"/>
			<path style="fill-rule:evenodd;clip-rule:evenodd;fill:#55412D;" d="M31-7.85c0-0.433-0.4-0.8-1.2-1.1
				C29-9.25,28.033-9.4,26.9-9.4s-2.117,0.15-2.95,0.45c-0.8,0.3-1.2,0.667-1.2,1.1c0,0.434,0.4,0.783,1.2,1.05
				c0.8,0.3,1.783,0.45,2.95,0.45c1.133,0,2.1-0.15,2.9-0.45C30.6-7.067,31-7.417,31-7.85z"/>
			
				<use xlink:href="#FlashAICB_x2F_frount_ground_3_x2F__x3C_Path_x3E__x5F_9_x5F_0"  width="5.95" height="2.6" y="-2.6" transform="matrix(1 0 0 1 30.5 -4.0498)" style="overflow:visible;opacity:0.6992;enable-background:new    ;"/>
			<path style="fill-rule:evenodd;clip-rule:evenodd;fill:#55412D;" d="M40.4-2.6c0-0.267-0.233-0.5-0.7-0.7
				c-0.434-0.2-0.983-0.3-1.65-0.3c-0.667,0-1.233,0.1-1.7,0.3c-0.467,0.2-0.7,0.433-0.7,0.7s0.233,0.483,0.7,0.65
				c0.467,0.2,1.033,0.3,1.7,0.3c0.633,0,1.184-0.1,1.65-0.3C40.167-2.117,40.4-2.333,40.4-2.6z"/>
			<path style="fill-rule:evenodd;clip-rule:evenodd;fill:#55412D;" d="M38.95-4.9c0-0.3-0.3-0.45-0.9-0.45
				c-0.633,0-0.95,0.15-0.95,0.45c0,0.333,0.316,0.5,0.95,0.5C38.65-4.4,38.95-4.567,38.95-4.9z"/>
			
				<use xlink:href="#FlashAICB_x2F_frount_ground_3_x2F__x3C_Path_x3E__x5F_6_x5F_0"  width="2.15" height="0.95" y="-0.95" transform="matrix(1 0 0 1 31.6499 -0.2002)" style="overflow:visible;opacity:0.5;enable-background:new    ;"/>
			
				<use xlink:href="#FlashAICB_x2F_frount_ground_3_x2F__x3C_Path_x3E__x5F_5_x5F_0"  width="2.65" height="0.95" y="-0.95" transform="matrix(1 0 0 1 44.7002 -2.1499)" style="overflow:visible;opacity:0.5;enable-background:new    ;"/>
			
				<use xlink:href="#FlashAICB_x2F_frount_ground_3_x2F__x3C_Path_x3E__x5F_4_x5F_0"  width="4.1" height="1.75" y="-1.75" transform="matrix(1 0 0 1 8.75 -7)" style="overflow:visible;opacity:0.5;enable-background:new    ;"/>
			<path style="fill-rule:evenodd;clip-rule:evenodd;fill:#55412D;" d="M13.35-5.2c0-0.333-0.35-0.5-1.05-0.5
				c-0.733,0-1.1,0.167-1.1,0.5c0,0.333,0.367,0.5,1.1,0.5C13-4.7,13.35-4.867,13.35-5.2z"/>
			<path style="fill-rule:evenodd;clip-rule:evenodd;fill:#55412D;" d="M2.15-7.85c0-0.4-0.367-0.6-1.1-0.6C0.35-8.45,0-8.25,0-7.85
				C0-7.483,0.35-7.3,1.05-7.3C1.783-7.3,2.15-7.483,2.15-7.85z"/>
			
				<use xlink:href="#FlashAICB_x2F_frount_ground_3_x2F__x3C_Path_x3E__x5F_1_x5F_1"  width="4.9" height="2.1" y="-2.1" transform="matrix(1 0 0 1 2 -4.3999)" style="overflow:visible;opacity:0.6992;enable-background:new    ;"/>
			
				<use xlink:href="#FlashAICB_x2F_frount_ground_3_x2F__x3C_Path_x3E__x5F_3"  width="2.15" height="1.05" y="-1.05" transform="matrix(1 0 0 1 40.25 -3.7998)" style="overflow:visible;opacity:0.6992;enable-background:new    ;"/>
		</g>
	</g>
</symbol>
<symbol  id="FlashAICB_x2F_frount_ground_3_x2F__x3C_Group_x3E__x5F_6" viewBox="0 -29.2 158.25 29.2">
	<g id="Layer_1_58_">
		<g>
			
				<use xlink:href="#FlashAICB_x2F_frount_ground_3_x2F__x3C_Path_x3E__x5F_13"  width="28.1" height="13" y="-13" transform="matrix(1 0 0 1 46.3501 -7.5498)" style="overflow:visible;opacity:0.6992;enable-background:new    ;"/>
			<path style="fill-rule:evenodd;clip-rule:evenodd;fill:#55412D;" d="M88.25-4.35c0-1.167-0.867-2.183-2.6-3.05
				c-1.733-0.833-3.816-1.25-6.25-1.25c-2.433,0-4.5,0.417-6.2,1.25c-1.733,0.867-2.6,1.883-2.6,3.05c0,1.2,0.867,2.217,2.6,3.05
				C74.9-0.433,76.967,0,79.4,0c2.434,0,4.517-0.433,6.25-1.3C87.383-2.133,88.25-3.15,88.25-4.35z"/>
			<path style="fill-rule:evenodd;clip-rule:evenodd;fill:#55412D;" d="M86.6-15.4c0-0.533-0.383-0.983-1.15-1.35
				c-0.767-0.367-1.684-0.55-2.75-0.55c-1.067,0-1.967,0.183-2.7,0.55c-0.767,0.367-1.15,0.817-1.15,1.35s0.383,0.983,1.15,1.35
				c0.733,0.367,1.633,0.55,2.7,0.55c1.066,0,1.983-0.183,2.75-0.55C86.217-14.417,86.6-14.867,86.6-15.4z"/>
			<path style="fill-rule:evenodd;clip-rule:evenodd;fill:#55412D;" d="M103.65-23.45c0-1.433-1.333-2.65-4-3.65
				c-2.7-1-5.95-1.5-9.75-1.5c-3.8,0-7.05,0.5-9.75,1.5c-2.7,1-4.05,2.217-4.05,3.65c0,1.4,1.35,2.6,4.05,3.6
				c2.7,1,5.95,1.5,9.75,1.5c3.8,0,7.05-0.5,9.75-1.5C102.317-20.85,103.65-22.05,103.65-23.45z"/>
			
				<use xlink:href="#FlashAICB_x2F_frount_ground_3_x2F__x3C_Path_x3E__x5F_9"  width="19.85" height="8.65" y="-8.65" transform="matrix(1 0 0 1 102 -13.5)" style="overflow:visible;opacity:0.6992;enable-background:new    ;"/>
			<path style="fill-rule:evenodd;clip-rule:evenodd;fill:#55412D;" d="M135.1-8.65c0-0.9-0.783-1.667-2.35-2.3
				s-3.45-0.95-5.65-0.95c-2.2,0-4.083,0.316-5.65,0.95c-1.567,0.633-2.35,1.4-2.35,2.3s0.783,1.667,2.35,2.3
				c1.566,0.633,3.45,0.95,5.65,0.95c2.2,0,4.083-0.317,5.65-0.95S135.1-7.75,135.1-8.65z"/>
			<path style="fill-rule:evenodd;clip-rule:evenodd;fill:#55412D;" d="M130.15-16.2c0-0.466-0.3-0.85-0.9-1.15
				c-0.6-0.333-1.317-0.5-2.15-0.5c-0.833,0-1.55,0.167-2.15,0.5c-0.6,0.3-0.9,0.684-0.9,1.15c0,0.434,0.3,0.817,0.9,1.15
				c0.6,0.3,1.316,0.45,2.15,0.45c0.867,0,1.583-0.15,2.15-0.45C129.85-15.383,130.15-15.767,130.15-16.2z"/>
			
				<use xlink:href="#FlashAICB_x2F_frount_ground_3_x2F__x3C_Path_x3E__x5F_6"  width="7.15" height="3.25" y="-3.25" transform="matrix(1 0 0 1 105.8999 -0.5498)" style="overflow:visible;opacity:0.5;enable-background:new    ;"/>
			
				<use xlink:href="#FlashAICB_x2F_frount_ground_3_x2F__x3C_Path_x3E__x5F_5"  width="8.8" height="3.2" y="-3.2" transform="matrix(1 0 0 1 149.4502 -7.0498)" style="overflow:visible;opacity:0.5;enable-background:new    ;"/>
			
				<use xlink:href="#FlashAICB_x2F_frount_ground_3_x2F__x3C_Path_x3E__x5F_4"  width="13.8" height="5.95" y="-5.95" transform="matrix(1 0 0 1 29.25 -23.25)" style="overflow:visible;opacity:0.5;enable-background:new    ;"/>
			<path style="fill-rule:evenodd;clip-rule:evenodd;fill:#55412D;" d="M44.7-17.3c0-0.434-0.35-0.817-1.05-1.15
				c-0.7-0.3-1.55-0.45-2.55-0.45s-1.85,0.15-2.55,0.45c-0.7,0.333-1.05,0.717-1.05,1.15c0,0.433,0.35,0.816,1.05,1.15
				c0.7,0.3,1.55,0.45,2.55,0.45s1.85-0.15,2.55-0.45C44.35-16.483,44.7-16.867,44.7-17.3z"/>
			<path style="fill-rule:evenodd;clip-rule:evenodd;fill:#55412D;" d="M7.2-26.2c0-0.533-0.35-0.983-1.05-1.35
				C5.45-27.917,4.6-28.1,3.6-28.1c-0.967,0-1.817,0.184-2.55,0.55C0.35-27.183,0-26.733,0-26.2c0,0.534,0.35,0.983,1.05,1.35
				c0.733,0.367,1.583,0.55,2.55,0.55c1,0,1.85-0.184,2.55-0.55C6.85-25.217,7.2-25.667,7.2-26.2z"/>
			
				<use xlink:href="#FlashAICB_x2F_frount_ground_3_x2F__x3C_Path_x3E__x5F_1_x5F_0"  width="16.55" height="7" y="-7" transform="matrix(1 0 0 1 6.6499 -14.6001)" style="overflow:visible;opacity:0.6992;enable-background:new    ;"/>
			
				<use xlink:href="#FlashAICB_x2F_frount_ground_3_x2F__x3C_Path_x3E__x5F_0"  width="7.15" height="3.55" y="-3.55" transform="matrix(1 0 0 1 134.5498 -12.5498)" style="overflow:visible;opacity:0.6992;enable-background:new    ;"/>
		</g>
	</g>
</symbol>
<symbol  id="FlashAICB_x2F_frount_ground_3_x2F__x3C_Path_x3E_" viewBox="0 -157.6 49.7 157.6">
	<g id="Layer_1_6_">
		<linearGradient id="SVGID_3_" gradientUnits="userSpaceOnUse" x1="0" y1="-78.7998" x2="49.7002" y2="-78.7998">
			<stop  offset="0" style="stop-color:#3E2916"/>
			<stop  offset="0.0549" style="stop-color:#594837"/>
			<stop  offset="0.1725" style="stop-color:#A1978E"/>
			<stop  offset="0.3176" style="stop-color:#FFFFFF"/>
			<stop  offset="1" style="stop-color:#3E2916"/>
		</linearGradient>
		<path style="fill-rule:evenodd;clip-rule:evenodd;fill:url(#SVGID_3_);" d="M49.7,0c-1.067-5.633-2.2-13.167-3.4-22.6
			c-2.367-18.867-3.8-37.816-4.3-56.85c-0.533-19.033,0.3-37.767,2.5-56.2c1.1-9.233,2.25-16.55,3.45-21.95H4.25
			c0.533,3.967,1,9.983,1.4,18.05c0.833,16.1,0.934,34.367,0.3,54.8c-0.633,20.4-1.817,39.867-3.55,58.4
			C1.533-17.083,0.733-9.85,0-4.65L49.7,0z"/>
	</g>
</symbol>
<symbol  id="FlashAICB_x2F_frount_ground_3_x2F__x3C_Path_x3E__x5F_0" viewBox="0 -3.55 7.15 3.55">
	<g id="Layer_1_14_">
		<path style="fill-rule:evenodd;clip-rule:evenodd;fill:#55412D;" d="M7.15-1.75c0-0.5-0.35-0.933-1.05-1.3
			c-0.7-0.333-1.533-0.5-2.5-0.5c-1,0-1.85,0.167-2.55,0.5C0.35-2.683,0-2.25,0-1.75C0-1.283,0.35-0.867,1.05-0.5
			C1.75-0.167,2.6,0,3.6,0c0.967,0,1.8-0.167,2.5-0.5C6.8-0.867,7.15-1.283,7.15-1.75z"/>
	</g>
</symbol>
<symbol  id="FlashAICB_x2F_frount_ground_3_x2F__x3C_Path_x3E__x5F_1" viewBox="0 -157.6 95.25 157.6">
	<g id="Layer_1_5_">
		<linearGradient id="SVGID_4_" gradientUnits="userSpaceOnUse" x1="0" y1="-78.7998" x2="95.25" y2="-78.7998">
			<stop  offset="0" style="stop-color:#3E2916"/>
			<stop  offset="0.1059" style="stop-color:#594837"/>
			<stop  offset="0.3373" style="stop-color:#A1978E"/>
			<stop  offset="0.6196" style="stop-color:#FFFFFF"/>
			<stop  offset="1" style="stop-color:#3E2916"/>
		</linearGradient>
		<path style="fill-rule:evenodd;clip-rule:evenodd;fill:url(#SVGID_4_);" d="M95.25,0c-1.067-5.633-2.2-13.167-3.4-22.6
			c-2.333-18.9-3.767-37.867-4.3-56.9c-0.5-19.033,0.35-37.767,2.55-56.2c1.1-9.2,2.25-16.5,3.45-21.9L4.2-157.3
			c0.533,3.966,1.017,9.966,1.45,18c0.833,16.1,0.934,34.367,0.3,54.8C5.317-64.1,4.133-44.617,2.4-26.05
			C1.533-16.783,0.733-9.55,0-4.35L95.25,0z"/>
	</g>
</symbol>
<symbol  id="FlashAICB_x2F_frount_ground_3_x2F__x3C_Path_x3E__x5F_10" viewBox="0 -1.05 2.15 1.05">
	<g id="Layer_1_42_">
		<path style="fill-rule:evenodd;clip-rule:evenodd;fill:#55412D;" d="M2.15-0.5c0-0.367-0.35-0.55-1.05-0.55
			C0.367-1.05,0-0.867,0-0.5C0-0.167,0.367,0,1.1,0C1.8,0,2.15-0.167,2.15-0.5z"/>
	</g>
</symbol>
<symbol  id="FlashAICB_x2F_frount_ground_3_x2F__x3C_Path_x3E__x5F_11" viewBox="0 -2.15 4.45 2.15">
	<g id="Layer_1_49_">
		<path style="fill-rule:evenodd;clip-rule:evenodd;fill:#55412D;" d="M4.45-1.05c0-0.3-0.217-0.567-0.65-0.8
			c-0.433-0.2-0.95-0.3-1.55-0.3c-0.633,0-1.167,0.1-1.6,0.3C0.217-1.617,0-1.35,0-1.05C0-0.75,0.217-0.5,0.65-0.3
			C1.083-0.1,1.617,0,2.25,0c0.6,0,1.117-0.1,1.55-0.3C4.233-0.5,4.45-0.75,4.45-1.05z"/>
	</g>
</symbol>
<symbol  id="FlashAICB_x2F_frount_ground_3_x2F__x3C_Path_x3E__x5F_12" viewBox="0 -2.2 4.4 2.2">
	<g id="Layer_1_56_">
		<path style="fill-rule:evenodd;clip-rule:evenodd;fill:#55412D;" d="M4.4-1.1c0-0.3-0.217-0.566-0.65-0.8
			C3.317-2.1,2.8-2.2,2.2-2.2c-0.633,0-1.15,0.1-1.55,0.3C0.217-1.667,0-1.4,0-1.1c0,0.3,0.217,0.55,0.65,0.75
			C1.05-0.117,1.567,0,2.2,0c0.6,0,1.117-0.117,1.55-0.35C4.183-0.55,4.4-0.8,4.4-1.1z"/>
	</g>
</symbol>
<symbol  id="FlashAICB_x2F_frount_ground_3_x2F__x3C_Path_x3E__x5F_13" viewBox="0 -13 28.1 13">
	<g id="Layer_1_8_">
		<path style="fill-rule:evenodd;clip-rule:evenodd;fill:#55412D;" d="M28.1-6.5c0-1.8-1.367-3.333-4.1-4.6
			c-2.767-1.267-6.083-1.9-9.95-1.9s-7.183,0.633-9.95,1.9C1.367-9.833,0-8.3,0-6.5s1.367,3.333,4.1,4.6
			C6.867-0.633,10.183,0,14.05,0S21.233-0.633,24-1.9C26.733-3.167,28.1-4.7,28.1-6.5z"/>
	</g>
</symbol>
<symbol  id="FlashAICB_x2F_frount_ground_3_x2F__x3C_Path_x3E__x5F_13_x5F_0" viewBox="0 -3.85 8.4 3.85">
	<g id="Layer_1_15_">
		<path style="fill-rule:evenodd;clip-rule:evenodd;fill:#55412D;" d="M8.4-1.95C8.4-2.483,8-2.933,7.2-3.3
			c-0.833-0.367-1.833-0.55-3-0.55c-1.167,0-2.15,0.184-2.95,0.55C0.417-2.933,0-2.483,0-1.95c0,0.534,0.417,1,1.25,1.4
			C2.05-0.183,3.033,0,4.2,0c1.167,0,2.167-0.183,3-0.55C8-0.95,8.4-1.417,8.4-1.95z"/>
	</g>
</symbol>
<symbol  id="FlashAICB_x2F_frount_ground_3_x2F__x3C_Path_x3E__x5F_13_x5F_1" viewBox="0 -9.85 29.8 9.85">
	<g id="Layer_1_22_">
		<path style="fill-rule:evenodd;clip-rule:evenodd;fill:#55412D;" d="M0-4.9c0,1.333,1.467,2.483,4.4,3.45C7.3-0.483,10.8,0,14.9,0
			c4.133,0,7.65-0.483,10.55-1.45c2.9-0.933,4.35-2.083,4.35-3.45s-1.45-2.533-4.35-3.5c-2.9-0.967-6.417-1.45-10.55-1.45
			c-4.1,0-7.6,0.483-10.5,1.45C1.467-7.433,0-6.267,0-4.9z"/>
	</g>
</symbol>
<symbol  id="FlashAICB_x2F_frount_ground_3_x2F__x3C_Path_x3E__x5F_13_x5F_2" viewBox="0 -3 6.45 3">
	<g id="Layer_1_29_">
		<path style="fill-rule:evenodd;clip-rule:evenodd;fill:#55412D;" d="M0-1.5c0,0.4,0.317,0.75,0.95,1.05C1.583-0.15,2.333,0,3.2,0
			c0.9,0,1.667-0.15,2.3-0.45C6.133-0.75,6.45-1.1,6.45-1.5S6.133-2.25,5.5-2.55C4.867-2.85,4.1-3,3.2-3
			C2.333-3,1.583-2.85,0.95-2.55C0.317-2.25,0-1.9,0-1.5z"/>
	</g>
</symbol>
<symbol  id="FlashAICB_x2F_frount_ground_3_x2F__x3C_Path_x3E__x5F_13_x5F_3" viewBox="0 -3.85 8.4 3.85">
	<g id="Layer_1_36_">
		<path style="fill-rule:evenodd;clip-rule:evenodd;fill:#55412D;" d="M8.4-1.9c0-0.533-0.417-1-1.25-1.4
			C6.35-3.667,5.367-3.85,4.2-3.85c-1.167,0-2.167,0.184-3,0.55C0.4-2.9,0-2.433,0-1.9s0.4,0.983,1.2,1.35
			C2.033-0.183,3.033,0,4.2,0c1.167,0,2.15-0.183,2.95-0.55C7.983-0.917,8.4-1.367,8.4-1.9z"/>
	</g>
</symbol>
<symbol  id="FlashAICB_x2F_frount_ground_3_x2F__x3C_Path_x3E__x5F_13_x5F_4" viewBox="0 -8 17.4 8">
	<g id="Layer_1_43_">
		<path style="fill-rule:evenodd;clip-rule:evenodd;fill:#55412D;" d="M17.4-4c0-1.1-0.85-2.05-2.55-2.85C13.15-7.617,11.1-8,8.7-8
			C6.3-8,4.25-7.617,2.55-6.85C0.85-6.05,0-5.1,0-4s0.85,2.033,2.55,2.8C4.25-0.4,6.3,0,8.7,0c2.4,0,4.45-0.4,6.15-1.2
			C16.55-1.967,17.4-2.9,17.4-4z"/>
	</g>
</symbol>
<symbol  id="FlashAICB_x2F_frount_ground_3_x2F__x3C_Path_x3E__x5F_13_x5F_5" viewBox="0 -8.05 17.4 8.05">
	<g id="Layer_1_50_">
		<path style="fill-rule:evenodd;clip-rule:evenodd;fill:#55412D;" d="M17.4-4.05c0-1.1-0.85-2.05-2.55-2.85
			c-1.7-0.767-3.75-1.15-6.15-1.15c-2.4,0-4.45,0.383-6.15,1.15C0.85-6.1,0-5.15,0-4.05C0-2.917,0.85-1.967,2.55-1.2
			C4.25-0.4,6.3,0,8.7,0c2.4,0,4.45-0.4,6.15-1.2C16.55-1.967,17.4-2.917,17.4-4.05z"/>
	</g>
</symbol>
<symbol  id="FlashAICB_x2F_frount_ground_3_x2F__x3C_Path_x3E__x5F_1_x5F_0" viewBox="0 -7 16.55 7">
	<g id="Layer_1_13_">
		<path style="fill-rule:evenodd;clip-rule:evenodd;fill:#55412D;" d="M16.55-3.5c0-0.967-0.8-1.8-2.4-2.5c-1.633-0.667-3.6-1-5.9-1
			C5.983-7,4.033-6.667,2.4-6C0.8-5.3,0-4.467,0-3.5S0.8-1.7,2.4-1c1.633,0.667,3.583,1,5.85,1c2.3,0,4.267-0.333,5.9-1
			C15.75-1.7,16.55-2.533,16.55-3.5z"/>
	</g>
</symbol>
<symbol  id="FlashAICB_x2F_frount_ground_3_x2F__x3C_Path_x3E__x5F_1_x5F_1" viewBox="0 -2.1 4.9 2.1">
	<g id="Layer_1_20_">
		<path style="fill-rule:evenodd;clip-rule:evenodd;fill:#55412D;" d="M4.9-1.05c0-0.267-0.233-0.517-0.7-0.75
			C3.7-2,3.117-2.1,2.45-2.1C1.783-2.1,1.2-2,0.7-1.8C0.233-1.567,0-1.317,0-1.05C0-0.75,0.233-0.5,0.7-0.3C1.2-0.1,1.783,0,2.45,0
			C3.117,0,3.7-0.1,4.2-0.3C4.667-0.5,4.9-0.75,4.9-1.05z"/>
	</g>
</symbol>
<symbol  id="FlashAICB_x2F_frount_ground_3_x2F__x3C_Path_x3E__x5F_1_x5F_2" viewBox="0 -5.3 17.55 5.3">
	<g id="Layer_1_27_">
		<path style="fill-rule:evenodd;clip-rule:evenodd;fill:#55412D;" d="M0-2.65c0,0.733,0.867,1.367,2.6,1.9C4.3-0.25,6.367,0,8.8,0
			c2.434,0,4.5-0.25,6.2-0.75c1.7-0.533,2.55-1.167,2.55-1.9S16.7-4,15-4.5c-1.733-0.533-3.8-0.8-6.2-0.8
			c-2.433,0-4.5,0.267-6.2,0.8C0.867-4,0-3.383,0-2.65z"/>
	</g>
</symbol>
<symbol  id="FlashAICB_x2F_frount_ground_3_x2F__x3C_Path_x3E__x5F_1_x5F_3" viewBox="0 -1.6 3.8 1.6">
	<g id="Layer_1_34_">
		<path style="fill-rule:evenodd;clip-rule:evenodd;fill:#55412D;" d="M0-0.8c0,0.233,0.183,0.417,0.55,0.55
			C0.917-0.083,1.367,0,1.9,0s0.983-0.083,1.35-0.25C3.617-0.383,3.8-0.567,3.8-0.8c0-0.2-0.183-0.383-0.55-0.55
			C2.85-1.517,2.4-1.6,1.9-1.6S0.95-1.517,0.55-1.35C0.183-1.183,0-1,0-0.8z"/>
	</g>
</symbol>
<symbol  id="FlashAICB_x2F_frount_ground_3_x2F__x3C_Path_x3E__x5F_1_x5F_4" viewBox="0 -2.1 4.95 2.1">
	<g id="Layer_1_41_">
		<path style="fill-rule:evenodd;clip-rule:evenodd;fill:#55412D;" d="M4.95-1.05c0-0.267-0.233-0.517-0.7-0.75
			c-0.5-0.2-1.1-0.3-1.8-0.3C1.783-2.1,1.2-2,0.7-1.8C0.233-1.567,0-1.317,0-1.05C0-0.75,0.233-0.5,0.7-0.3C1.2-0.1,1.783,0,2.45,0
			c0.7,0,1.3-0.1,1.8-0.3C4.717-0.5,4.95-0.75,4.95-1.05z"/>
	</g>
</symbol>
<symbol  id="FlashAICB_x2F_frount_ground_3_x2F__x3C_Path_x3E__x5F_1_x5F_5" viewBox="0 -4.35 10.25 4.35">
	<g id="Layer_1_48_">
		<path style="fill-rule:evenodd;clip-rule:evenodd;fill:#55412D;" d="M10.25-2.15c0-0.6-0.5-1.117-1.5-1.55
			c-1-0.433-2.2-0.65-3.6-0.65C3.717-4.35,2.5-4.133,1.5-3.7C0.5-3.267,0-2.75,0-2.15s0.5,1.1,1.5,1.5C2.5-0.217,3.717,0,5.15,0
			c1.4,0,2.6-0.217,3.6-0.65C9.75-1.05,10.25-1.55,10.25-2.15z"/>
	</g>
</symbol>
<symbol  id="FlashAICB_x2F_frount_ground_3_x2F__x3C_Path_x3E__x5F_1_x5F_6" viewBox="3.75 -0.6 10.25 4.35">
	<g id="Layer_1_55_">
		<path style="fill-rule:evenodd;clip-rule:evenodd;fill:#55412D;" d="M14,1.55c0-0.6-0.5-1.117-1.5-1.55c-1-0.4-2.2-0.6-3.6-0.6
			C7.467-0.6,6.25-0.4,5.25,0c-1,0.433-1.5,0.95-1.5,1.55c0,0.6,0.5,1.117,1.5,1.55c1,0.433,2.217,0.65,3.65,0.65
			c1.4,0,2.6-0.217,3.6-0.65C13.5,2.667,14,2.15,14,1.55z"/>
	</g>
</symbol>
<symbol  id="FlashAICB_x2F_frount_ground_3_x2F__x3C_Path_x3E__x5F_2" viewBox="0 -144.7 62.5 144.7">
	<g id="Layer_1_2_">
		<linearGradient id="SVGID_5_" gradientUnits="userSpaceOnUse" x1="0" y1="-72.3501" x2="62.5" y2="-72.3501">
			<stop  offset="0" style="stop-color:#3E2916"/>
			<stop  offset="0.1059" style="stop-color:#594837"/>
			<stop  offset="0.3373" style="stop-color:#A1978E"/>
			<stop  offset="0.6196" style="stop-color:#FFFFFF"/>
		</linearGradient>
		<path style="fill-rule:evenodd;clip-rule:evenodd;fill:url(#SVGID_5_);" d="M62.5,0c-1.367-4.567-2.783-10.683-4.25-18.35
			c-3-15.333-4.817-30.733-5.45-46.2c-0.633-15.467,0.417-33.467,3.15-54c1.4-10.267,2.85-18.983,4.35-26.15h-55
			c0.667,6,1.267,13.667,1.8,23c1.033,18.633,1.167,36.25,0.4,52.85C6.7-52.283,5.217-36.467,3.05-21.4C1.95-13.867,0.933-8,0-3.8
			L62.5,0z"/>
	</g>
</symbol>
<symbol  id="FlashAICB_x2F_frount_ground_3_x2F__x3C_Path_x3E__x5F_3" viewBox="0 -1.05 2.15 1.05">
	<g id="Layer_1_21_">
		<path style="fill-rule:evenodd;clip-rule:evenodd;fill:#55412D;" d="M2.15-0.5c0-0.367-0.35-0.55-1.05-0.55
			C0.367-1.05,0-0.867,0-0.5C0-0.167,0.367,0,1.1,0C1.8,0,2.15-0.167,2.15-0.5z"/>
	</g>
</symbol>
<symbol  id="FlashAICB_x2F_frount_ground_3_x2F__x3C_Path_x3E__x5F_4" viewBox="0 -5.95 13.8 5.95">
	<g id="Layer_1_12_">
		<path style="fill-rule:evenodd;clip-rule:evenodd;fill:#55412D;" d="M13.8-2.95c0-0.833-0.667-1.533-2-2.1
			c-1.367-0.6-3-0.9-4.9-0.9s-3.517,0.3-4.85,0.9C0.683-4.483,0-3.783,0-2.95c0,0.833,0.683,1.534,2.05,2.1C3.383-0.283,5,0,6.9,0
			s3.533-0.283,4.9-0.85C13.133-1.417,13.8-2.117,13.8-2.95z"/>
	</g>
</symbol>
<symbol  id="FlashAICB_x2F_frount_ground_3_x2F__x3C_Path_x3E__x5F_4_x5F_0" viewBox="0 -1.75 4.1 1.75">
	<g id="Layer_1_19_">
		<path style="fill-rule:evenodd;clip-rule:evenodd;fill:#55412D;" d="M4.1-0.85c0-0.267-0.2-0.483-0.6-0.65S2.617-1.75,2.05-1.75
			C1.483-1.75,1-1.667,0.6-1.5S0-1.117,0-0.85c0,0.233,0.2,0.434,0.6,0.6S1.483,0,2.05,0C2.617,0,3.1-0.083,3.5-0.25
			S4.1-0.617,4.1-0.85z"/>
	</g>
</symbol>
<symbol  id="FlashAICB_x2F_frount_ground_3_x2F__x3C_Path_x3E__x5F_4_x5F_1" viewBox="0 -4.5 14.65 4.5">
	<g id="Layer_1_26_">
		<path style="fill-rule:evenodd;clip-rule:evenodd;fill:#55412D;" d="M0-2.25c0,0.633,0.717,1.167,2.15,1.6
			C3.583-0.217,5.317,0,7.35,0c2,0,3.717-0.217,5.15-0.65c1.433-0.434,2.15-0.967,2.15-1.6s-0.717-1.167-2.15-1.6
			C11.067-4.283,9.35-4.5,7.35-4.5c-2.033,0-3.767,0.217-5.2,0.65C0.717-3.417,0-2.883,0-2.25z"/>
	</g>
</symbol>
<symbol  id="FlashAICB_x2F_frount_ground_3_x2F__x3C_Path_x3E__x5F_4_x5F_2" viewBox="0 -1.35 3.15 1.35">
	<g id="Layer_1_33_">
		<path style="fill-rule:evenodd;clip-rule:evenodd;fill:#55412D;" d="M0-0.7C0-0.233,0.517,0,1.55,0c1.067,0,1.6-0.233,1.6-0.7
			C3.15-0.867,3-1.017,2.7-1.15c-0.333-0.133-0.717-0.2-1.15-0.2c-0.433,0-0.8,0.067-1.1,0.2C0.15-1.017,0-0.867,0-0.7z"/>
	</g>
</symbol>
<symbol  id="FlashAICB_x2F_frount_ground_3_x2F__x3C_Path_x3E__x5F_4_x5F_3" viewBox="0 -1.8 4.15 1.8">
	<g id="Layer_1_40_">
		<path style="fill-rule:evenodd;clip-rule:evenodd;fill:#55412D;" d="M4.15-0.9c0-0.267-0.2-0.483-0.6-0.65
			C3.117-1.717,2.617-1.8,2.05-1.8C1.483-1.8,1-1.717,0.6-1.55C0.2-1.35,0-1.133,0-0.9s0.2,0.45,0.6,0.65C1-0.083,1.483,0,2.05,0
			c0.567,0,1.067-0.083,1.5-0.25C3.95-0.45,4.15-0.667,4.15-0.9z"/>
	</g>
</symbol>
<symbol  id="FlashAICB_x2F_frount_ground_3_x2F__x3C_Path_x3E__x5F_4_x5F_4" viewBox="0 -3.65 8.5 3.65">
	<g id="Layer_1_47_">
		<path style="fill-rule:evenodd;clip-rule:evenodd;fill:#55412D;" d="M8.5-1.8c0-0.534-0.417-0.967-1.25-1.3
			c-0.833-0.367-1.833-0.55-3-0.55s-2.167,0.183-3,0.55C0.417-2.767,0-2.333,0-1.8c0,0.5,0.417,0.917,1.25,1.25
			C2.083-0.183,3.083,0,4.25,0s2.167-0.183,3-0.55C8.083-0.883,8.5-1.3,8.5-1.8z"/>
	</g>
</symbol>
<symbol  id="FlashAICB_x2F_frount_ground_3_x2F__x3C_Path_x3E__x5F_4_x5F_5">
	<g id="Layer_1_54_">
	</g>
</symbol>
<symbol  id="FlashAICB_x2F_frount_ground_3_x2F__x3C_Path_x3E__x5F_5" viewBox="0 -3.2 8.8 3.2">
	<g id="Layer_1_11_">
		<path style="fill-rule:evenodd;clip-rule:evenodd;fill:#55412D;" d="M8.8-1.6c0-0.467-0.433-0.85-1.3-1.15
			C6.667-3.05,5.633-3.2,4.4-3.2S2.133-3.05,1.3-2.75C0.433-2.45,0-2.067,0-1.6c0,0.434,0.433,0.817,1.3,1.15
			C2.133-0.15,3.167,0,4.4,0s2.267-0.15,3.1-0.45C8.367-0.783,8.8-1.167,8.8-1.6z"/>
	</g>
</symbol>
<symbol  id="FlashAICB_x2F_frount_ground_3_x2F__x3C_Path_x3E__x5F_53" viewBox="0 -150.905 299.3 150.905">
	<g id="Layer_1_7_">
		
			<linearGradient id="SVGID_6_" gradientUnits="userSpaceOnUse" x1="-78.2983" y1="-15938.2969" x2="76.8517" y2="-15938.2969" gradientTransform="matrix(6.445376e-006 -1 1 -0.001 16087.9482 -94.0869)">
			<stop  offset="0" style="stop-color:#3E2916"/>
			<stop  offset="0.1059" style="stop-color:#594837"/>
			<stop  offset="0.3373" style="stop-color:#A1978E"/>
			<stop  offset="0.6196" style="stop-color:#FFFFFF"/>
		</linearGradient>
		<path style="fill-rule:evenodd;clip-rule:evenodd;fill:url(#SVGID_6_);" d="M292.35-22.6c-4.767-18.967-7.5-38.233-8.2-57.8
			c-0.652-18.259-0.394-35.417,0.775-51.475l-0.075,0.025c0.333-0.933-0.267-2.083-1.8-3.45c-3.1-2.733-9.333-5.25-18.7-7.55
			c-9.367-2.3-19.017-3.566-28.95-3.8l-12.05,0.3c-1.667,0.733-4.434,1.483-8.3,2.25c-7.767,1.5-17.167,2.25-28.2,2.25
			s-22.267-1.417-33.7-4.25l-13.8-4.25l-7-0.5c-2.9-0.2-6.517,0.15-10.85,1.05l-5.65,1.45c-1,1.167-2.517,2.333-4.55,3.5
			c-4.1,2.333-8.75,3.5-13.95,3.5c-5.2,0-10.267-0.417-15.2-1.25l-5.8-1.25c-4,1-9,2.333-15,4c-3.733,1.033-8.267,1.85-13.6,2.45
			l-6.9,0.55c-1.567-0.267-3.417-0.433-5.55-0.5c-4.267-0.167-7.75,0.167-10.45,1c-2.7,0.833-5.017,2.333-6.95,4.5l-2.05,3
			l-0.275-0.025c1.331,15.293,1.389,30.701,0.175,46.225c-1.367,17.467-4.4,34.6-9.1,51.4C4.283-22.85,2.067-16.2,0-11.3L299.3,0
			C297.067-5.567,294.75-13.1,292.35-22.6z"/>
	</g>
</symbol>
<symbol  id="FlashAICB_x2F_frount_ground_3_x2F__x3C_Path_x3E__x5F_5_x5F_0" viewBox="0 -0.95 2.65 0.95">
	<g id="Layer_1_18_">
		<path style="fill-rule:evenodd;clip-rule:evenodd;fill:#55412D;" d="M2.65-0.45c0-0.333-0.433-0.5-1.3-0.5
			C0.45-0.95,0-0.783,0-0.45C0-0.15,0.45,0,1.35,0C2.217,0,2.65-0.15,2.65-0.45z"/>
	</g>
</symbol>
<symbol  id="FlashAICB_x2F_frount_ground_3_x2F__x3C_Path_x3E__x5F_5_x5F_1" viewBox="0 -2.45 9.35 2.45">
	<g id="Layer_1_25_">
		<path style="fill-rule:evenodd;clip-rule:evenodd;fill:#55412D;" d="M0-1.25c0,0.333,0.45,0.633,1.35,0.9
			C2.25-0.117,3.35,0,4.65,0C5.95,0,7.067-0.117,8-0.35c0.9-0.267,1.35-0.566,1.35-0.9S8.9-1.867,8-2.1
			C7.067-2.333,5.95-2.45,4.65-2.45c-1.3,0-2.4,0.117-3.3,0.35S0-1.583,0-1.25z"/>
	</g>
</symbol>
<symbol  id="FlashAICB_x2F_frount_ground_3_x2F__x3C_Path_x3E__x5F_5_x5F_2" viewBox="0 -0.75 2 0.75">
	<g id="Layer_1_32_">
		<path style="fill-rule:evenodd;clip-rule:evenodd;fill:#55412D;" d="M0-0.35C0-0.117,0.333,0,1,0s1-0.117,1-0.35
			c0-0.267-0.333-0.4-1-0.4S0-0.617,0-0.35z"/>
	</g>
</symbol>
<symbol  id="FlashAICB_x2F_frount_ground_3_x2F__x3C_Path_x3E__x5F_5_x5F_3" viewBox="0 -1 2.6 1">
	<g id="Layer_1_39_">
		<path style="fill-rule:evenodd;clip-rule:evenodd;fill:#55412D;" d="M2.6-0.5C2.6-0.833,2.167-1,1.3-1S0-0.833,0-0.5
			S0.433,0,1.3,0S2.6-0.167,2.6-0.5z"/>
	</g>
</symbol>
<symbol  id="FlashAICB_x2F_frount_ground_3_x2F__x3C_Path_x3E__x5F_5_x5F_4" viewBox="0 -2 5.45 2">
	<g id="Layer_1_46_">
		<path style="fill-rule:evenodd;clip-rule:evenodd;fill:#55412D;" d="M5.45-1c0-0.267-0.267-0.5-0.8-0.7C4.117-1.9,3.467-2,2.7-2
			C1.967-2,1.333-1.9,0.8-1.7C0.267-1.5,0-1.267,0-1s0.267,0.5,0.8,0.7C1.333-0.1,1.967,0,2.7,0c0.767,0,1.417-0.1,1.95-0.3
			C5.183-0.5,5.45-0.733,5.45-1z"/>
	</g>
</symbol>
<symbol  id="FlashAICB_x2F_frount_ground_3_x2F__x3C_Path_x3E__x5F_5_x5F_5" viewBox="0 -2 5.45 2">
	<g id="Layer_1_53_">
		<path style="fill-rule:evenodd;clip-rule:evenodd;fill:#55412D;" d="M5.45-1c0-0.267-0.267-0.5-0.8-0.7C4.117-1.9,3.467-2,2.7-2
			C1.967-2,1.333-1.9,0.8-1.7C0.267-1.5,0-1.267,0-1s0.267,0.5,0.8,0.7C1.333-0.1,1.967,0,2.7,0c0.767,0,1.417-0.1,1.95-0.3
			C5.183-0.5,5.45-0.733,5.45-1z"/>
	</g>
</symbol>
<symbol  id="FlashAICB_x2F_frount_ground_3_x2F__x3C_Path_x3E__x5F_6" viewBox="0 -3.25 7.15 3.25">
	<g id="Layer_1_10_">
		<path style="fill-rule:evenodd;clip-rule:evenodd;fill:#55412D;" d="M7.15-1.6c0-0.467-0.35-0.85-1.05-1.15
			c-0.7-0.333-1.55-0.5-2.55-0.5c-0.966,0-1.8,0.167-2.5,0.5C0.35-2.45,0-2.067,0-1.6c0,0.434,0.35,0.817,1.05,1.15
			C1.75-0.15,2.583,0,3.55,0c1,0,1.85-0.15,2.55-0.45C6.8-0.783,7.15-1.167,7.15-1.6z"/>
	</g>
</symbol>
<symbol  id="FlashAICB_x2F_frount_ground_3_x2F__x3C_Path_x3E__x5F_6_x5F_0" viewBox="0 -0.95 2.15 0.95">
	<g id="Layer_1_17_">
		<path style="fill-rule:evenodd;clip-rule:evenodd;fill:#55412D;" d="M2.15-0.45c0-0.333-0.35-0.5-1.05-0.5
			C0.367-0.95,0-0.783,0-0.45C0-0.15,0.367,0,1.1,0C1.8,0,2.15-0.15,2.15-0.45z"/>
	</g>
</symbol>
<symbol  id="FlashAICB_x2F_frount_ground_3_x2F__x3C_Path_x3E__x5F_6_x5F_1" viewBox="0 -2.45 7.6 2.45">
	<g id="Layer_1_24_">
		<path style="fill-rule:evenodd;clip-rule:evenodd;fill:#55412D;" d="M0-1.25c0,0.333,0.367,0.633,1.1,0.9
			C1.833-0.117,2.733,0,3.8,0c1.067,0,1.967-0.117,2.7-0.35c0.733-0.267,1.1-0.566,1.1-0.9S7.233-1.867,6.5-2.1
			C5.733-2.333,4.833-2.45,3.8-2.45c-1.033,0-1.933,0.117-2.7,0.35C0.367-1.867,0-1.583,0-1.25z"/>
	</g>
</symbol>
<symbol  id="FlashAICB_x2F_frount_ground_3_x2F__x3C_Path_x3E__x5F_6_x5F_2" viewBox="0 -0.75 1.6 0.75">
	<g id="Layer_1_31_">
		<path style="fill-rule:evenodd;clip-rule:evenodd;fill:#55412D;" d="M0-0.4C0-0.133,0.267,0,0.8,0c0.534,0,0.8-0.133,0.8-0.4
			c0-0.233-0.267-0.35-0.8-0.35C0.267-0.75,0-0.633,0-0.4z"/>
	</g>
</symbol>
<symbol  id="FlashAICB_x2F_frount_ground_3_x2F__x3C_Path_x3E__x5F_6_x5F_3" viewBox="0 -0.95 2.15 0.95">
	<g id="Layer_1_38_">
		<path style="fill-rule:evenodd;clip-rule:evenodd;fill:#55412D;" d="M2.15-0.45c0-0.333-0.367-0.5-1.1-0.5
			C0.35-0.95,0-0.783,0-0.45C0-0.15,0.35,0,1.05,0C1.783,0,2.15-0.15,2.15-0.45z"/>
	</g>
</symbol>
<symbol  id="FlashAICB_x2F_frount_ground_3_x2F__x3C_Path_x3E__x5F_6_x5F_4" viewBox="0 -2 4.4 2">
	<g id="Layer_1_45_">
		<path style="fill-rule:evenodd;clip-rule:evenodd;fill:#55412D;" d="M4.4-1c0-0.267-0.217-0.5-0.65-0.7C3.35-1.9,2.833-2,2.2-2
			C1.6-2,1.083-1.9,0.65-1.7C0.217-1.5,0-1.267,0-1s0.217,0.5,0.65,0.7C1.083-0.1,1.6,0,2.2,0c0.633,0,1.15-0.1,1.55-0.3
			C4.183-0.5,4.4-0.733,4.4-1z"/>
	</g>
</symbol>
<symbol  id="FlashAICB_x2F_frount_ground_3_x2F__x3C_Path_x3E__x5F_6_x5F_5" viewBox="0 -2 4.45 2">
	<g id="Layer_1_52_">
		<path style="fill-rule:evenodd;clip-rule:evenodd;fill:#55412D;" d="M4.45-1c0-0.267-0.217-0.5-0.65-0.7C3.367-1.9,2.833-2,2.2-2
			C1.6-2,1.083-1.9,0.65-1.7C0.217-1.5,0-1.267,0-1s0.217,0.5,0.65,0.7C1.083-0.1,1.6,0,2.2,0c0.633,0,1.167-0.1,1.6-0.3
			C4.233-0.5,4.45-0.733,4.45-1z"/>
	</g>
</symbol>
<symbol  id="FlashAICB_x2F_frount_ground_3_x2F__x3C_Path_x3E__x5F_7" viewBox="0 -2.65 7.6 2.65">
	<g id="Layer_1_28_">
		<path style="fill-rule:evenodd;clip-rule:evenodd;fill:#55412D;" d="M0-1.35C0-0.983,0.367-0.667,1.1-0.4S2.733,0,3.8,0
			c1.067,0,1.967-0.133,2.7-0.4s1.1-0.583,1.1-0.95s-0.367-0.667-1.1-0.9c-0.767-0.267-1.667-0.4-2.7-0.4
			c-1.033,0-1.933,0.133-2.7,0.4C0.367-2.017,0-1.717,0-1.35z"/>
	</g>
</symbol>
<symbol  id="FlashAICB_x2F_frount_ground_3_x2F__x3C_Path_x3E__x5F_8" viewBox="0 -0.8 1.65 0.8">
	<g id="Layer_1_35_">
		<path style="fill-rule:evenodd;clip-rule:evenodd;fill:#55412D;" d="M0-0.4C0-0.133,0.283,0,0.85,0c0.533,0,0.8-0.133,0.8-0.4
			s-0.267-0.4-0.8-0.4C0.283-0.8,0-0.667,0-0.4z"/>
	</g>
</symbol>
<symbol  id="FlashAICB_x2F_frount_ground_3_x2F__x3C_Path_x3E__x5F_9" viewBox="0 -8.65 19.85 8.65">
	<g id="Layer_1_9_">
		<path style="fill-rule:evenodd;clip-rule:evenodd;fill:#55412D;" d="M19.85-4.35c0-1.167-0.967-2.183-2.9-3.05
			c-1.934-0.833-4.267-1.25-7-1.25c-2.733,0-5.083,0.417-7.05,1.25C0.967-6.533,0-5.517,0-4.35c0,1.2,0.967,2.217,2.9,3.05
			C4.867-0.433,7.217,0,9.95,0c2.733,0,5.066-0.433,7-1.3C18.883-2.133,19.85-3.15,19.85-4.35z"/>
	</g>
</symbol>
<symbol  id="FlashAICB_x2F_frount_ground_3_x2F__x3C_Path_x3E__x5F_9_x5F_0" viewBox="0 -2.6 5.95 2.6">
	<g id="Layer_1_16_">
		<path style="fill-rule:evenodd;clip-rule:evenodd;fill:#55412D;" d="M5.95-1.3c0-0.367-0.284-0.684-0.85-0.95
			C4.533-2.483,3.833-2.6,3-2.6S1.467-2.483,0.9-2.25C0.3-1.983,0-1.667,0-1.3s0.3,0.667,0.9,0.9C1.467-0.133,2.167,0,3,0
			s1.533-0.133,2.1-0.4C5.667-0.633,5.95-0.933,5.95-1.3z"/>
	</g>
</symbol>
<symbol  id="FlashAICB_x2F_frount_ground_3_x2F__x3C_Path_x3E__x5F_9_x5F_1" viewBox="0 -6.55 21.05 6.55">
	<g id="Layer_1_23_">
		<path style="fill-rule:evenodd;clip-rule:evenodd;fill:#55412D;" d="M0-3.3C0-2.4,1.033-1.633,3.1-1c2.033,0.667,4.5,1,7.4,1
			s5.383-0.333,7.45-1c2.066-0.633,3.1-1.4,3.1-2.3c0-0.9-1.033-1.667-3.1-2.3c-2.034-0.633-4.517-0.95-7.45-0.95
			c-2.9,0-5.367,0.316-7.4,0.95C1.033-4.967,0-4.2,0-3.3z"/>
	</g>
</symbol>
<symbol  id="FlashAICB_x2F_frount_ground_3_x2F__x3C_Path_x3E__x5F_9_x5F_2" viewBox="0 -1.95 4.55 1.95">
	<g id="Layer_1_30_">
		<path style="fill-rule:evenodd;clip-rule:evenodd;fill:#55412D;" d="M0-0.95c0,0.267,0.217,0.5,0.65,0.7
			C1.083-0.083,1.633,0,2.3,0c0.633,0,1.167-0.083,1.6-0.25c0.434-0.2,0.65-0.433,0.65-0.7c0-0.267-0.216-0.5-0.65-0.7
			c-0.433-0.2-0.967-0.3-1.6-0.3s-1.183,0.1-1.65,0.3C0.217-1.45,0-1.217,0-0.95z"/>
	</g>
</symbol>
<symbol  id="FlashAICB_x2F_frount_ground_3_x2F__x3C_Path_x3E__x5F_9_x5F_3" viewBox="0 -2.6 5.95 2.6">
	<g id="Layer_1_37_">
		<path style="fill-rule:evenodd;clip-rule:evenodd;fill:#55412D;" d="M5.95-1.3c0-0.367-0.3-0.667-0.9-0.9
			c-0.566-0.267-1.267-0.4-2.1-0.4c-0.833,0-1.534,0.133-2.1,0.4C0.283-1.967,0-1.667,0-1.3s0.283,0.667,0.85,0.9
			C1.417-0.133,2.117,0,2.95,0c0.833,0,1.533-0.133,2.1-0.4C5.65-0.633,5.95-0.933,5.95-1.3z"/>
	</g>
</symbol>
<symbol  id="FlashAICB_x2F_frount_ground_3_x2F__x3C_Path_x3E__x5F_9_x5F_4" viewBox="0 -5.35 12.3 5.35">
	<g id="Layer_1_44_">
		<path style="fill-rule:evenodd;clip-rule:evenodd;fill:#55412D;" d="M12.3-2.7c0-0.733-0.6-1.35-1.8-1.85
			c-1.2-0.534-2.65-0.8-4.35-0.8c-1.7,0-3.15,0.267-4.35,0.8C0.6-4.05,0-3.433,0-2.7c0,0.733,0.6,1.367,1.8,1.9
			C3-0.267,4.45,0,6.15,0c1.7,0,3.15-0.267,4.35-0.8C11.7-1.333,12.3-1.967,12.3-2.7z"/>
	</g>
</symbol>
<symbol  id="FlashAICB_x2F_frount_ground_3_x2F__x3C_Path_x3E__x5F_9_x5F_5" viewBox="0 -5.35 12.3 5.35">
	<g id="Layer_1_51_">
		<path style="fill-rule:evenodd;clip-rule:evenodd;fill:#55412D;" d="M12.3-2.7c0-0.733-0.6-1.35-1.8-1.85
			c-1.2-0.534-2.65-0.8-4.35-0.8c-1.7,0-3.15,0.267-4.35,0.8C0.6-4.05,0-3.433,0-2.7c0,0.733,0.6,1.367,1.8,1.9
			C3-0.267,4.45,0,6.15,0c1.7,0,3.15-0.267,4.35-0.8C11.7-1.333,12.3-1.967,12.3-2.7z"/>
	</g>
</symbol>
<g>
	<defs>
		<path id="SVGID_7_" d="M341.85,41.15c-0.633-3.9-2.733-6.283-6.3-7.15c-2.7-0.667-7.316-0.533-13.85,0.4
			c-10.9,1.533-17.467,2.4-19.7,2.6c-8.667,0.733-16.667,0.517-24-0.65c-6.733-1.067-13.066-2.767-19-5.1
			c-2.667-1.067-8.2-3.633-16.6-7.7c-17.134-8.3-36.634-15.216-58.5-20.75C176.767,1,169.5,0.067,162.1,0
			c-5.7-0.033-12.767,0.517-21.2,1.65c-10.133,1.467-18.15,2.567-24.05,3.3C106.383,6.217,96.267,6.967,86.5,7.2
			c-18.267,0.433-32.25,6.333-41.95,17.7c-6.733,7.867-10.783,17.15-12.15,27.85c-0.014,0.118-0.022,0.234-0.025,0.35L32.1,55.15
			c-0.167,2.2-0.05,4.3,0.35,6.3c1.3,6.367,5.183,10.566,11.65,12.6c1.479,0.459,3.021,0.759,4.625,0.9
			c4.431,16.207,7.306,32.724,8.625,49.55c1.2,15.5,1.15,30.9-0.15,46.2l0.25-0.05l2.05,3c1.9,2.166,4.2,3.649,6.9,4.449
			c2.7,0.834,6.167,1.167,10.4,1c2.133-0.066,3.983-0.233,5.55-0.5l6.85,0.551c5.333,0.6,9.85,1.416,13.55,2.449
			c6,1.667,10.983,3,14.95,4l5.8-1.25c4.9-0.833,9.95-1.25,15.15-1.25c5.167,0,9.783,1.167,13.85,3.5
			c2.033,1.167,3.55,2.334,4.55,3.5l5.65,1.45c4.3,0.9,7.9,1.25,10.8,1.05l6.95-0.5l13.75-4.25c11.399-2.833,22.6-4.25,33.6-4.25
			c10.967,0,20.334,0.75,28.101,2.25c3.833,0.767,6.583,1.517,8.25,2.25l12,0.301c9.899-0.233,19.517-1.5,28.85-3.801
			c9.333-2.3,15.533-4.816,18.6-7.55c1.534-1.333,2.134-2.467,1.801-3.399l0.1,0.05c-1.2-16.066-1.467-33.217-0.8-51.45
			c0.646-18.033,3.029-35.808,7.149-53.325c1.721-1.968,2.903-4.077,3.551-6.325c0.699-2.533,1.816-4.667,3.35-6.4h-0.2
			C341.747,52.412,342.847,47.396,341.85,41.15z"/>
	</defs>
	<clipPath id="SVGID_8_">
		<use xlink:href="#SVGID_7_"  style="overflow:visible;"/>
	</clipPath>
	<g id="frount_ground_3" style="clip-path:url(#SVGID_8_);">
		<path style="fill-rule:evenodd;clip-rule:evenodd;fill:#4C3B2A;" d="M40.15,64.8c0,0.367-0.517,0.55-1.55,0.55
			c-1,0-1.5-0.184-1.5-0.55c0-0.167,0.15-0.3,0.45-0.4c0.3-0.133,0.65-0.2,1.05-0.2c0.433,0,0.8,0.066,1.1,0.2
			C40,64.5,40.15,64.633,40.15,64.8z"/>
		<path style="fill-rule:evenodd;clip-rule:evenodd;fill:#4C3B2A;" d="M43.15,65.35c0,0.3-0.383,0.45-1.15,0.45
			c-0.8,0-1.2-0.15-1.2-0.45c0-0.3,0.4-0.45,1.2-0.45C42.767,64.9,43.15,65.05,43.15,65.35z"/>
		<path style="fill-rule:evenodd;clip-rule:evenodd;fill:#4C3B2A;" d="M333.75,65.1c-4.767,18.967-7.5,38.233-8.2,57.8
			c-0.664,18.597-0.381,36.055,0.851,52.375c-0.171,0.735-0.787,1.577-1.851,2.524c-3.1,2.733-9.333,5.25-18.7,7.55
			c-9.366,2.301-19.017,3.567-28.949,3.801l-12.051-0.301c-1.666-0.733-4.433-1.483-8.3-2.25c-7.767-1.5-17.166-2.25-28.2-2.25
			c-11.033,0-22.267,1.417-33.699,4.25l-13.8,4.25l-7,0.5c-2.9,0.2-6.517-0.149-10.85-1.05l-5.65-1.45
			c-1-1.166-2.517-2.333-4.55-3.5c-4.1-2.333-8.75-3.5-13.95-3.5c-5.2,0-10.267,0.417-15.2,1.25l-5.8,1.25c-4-1-9-2.333-15-4
			c-3.733-1.033-8.267-1.85-13.6-2.449l-6.9-0.551c-1.567,0.267-3.417,0.434-5.55,0.5c-4.267,0.167-7.75-0.166-10.45-1
			c-2.7-0.833-5.017-2.333-6.95-4.5l-2.05-3l-0.375,0.025c1.332-15.291,1.39-30.699,0.175-46.225c-1.367-17.467-4.4-34.601-9.1-51.4
			c-1.466-5.233-3.017-10.133-4.65-14.7l-2-5.25l299.3-11.3C338.467,48.067,336.15,55.6,333.75,65.1z"/>
		
			<use xlink:href="#FlashAICB_x2F_frount_ground_3_x2F__x3C_Clip_Group_0_x3E_"  width="383.55" height="167.176" y="-167.176" transform="matrix(1 0 0 -1 0 42.5)" style="overflow:visible;"/>
		
			<use xlink:href="#FlashAICB_x2F_frount_ground_3_x2F__x3C_Path_x3E__x5F_53"  width="299.3" height="150.905" y="-150.905" transform="matrix(1 0 0 -1 41.3999 42.5)" style="overflow:visible;opacity:0.8008;enable-background:new    ;"/>
		<path style="fill-rule:evenodd;clip-rule:evenodd;fill:#4C3B2A;" d="M341.85,41.15c1.634,10.233-2.366,17.167-12,20.8
			c-11.767,4.466-33.683,5.15-65.75,2.05c-34.6-3.367-57.25-4.933-67.949-4.7c-6.9,0.167-13.684,0.85-20.351,2.05
			c-5.367,1-12.933,2.783-22.7,5.35c-8.867,2.333-20.283,3.917-34.25,4.75c-13.9,0.833-27.367,0.75-40.4-0.25
			c-14.133-1.1-25.233-3.117-33.3-6.05c-9.1-3.267-13.35-7.4-12.75-12.4c1.367-10.7,5.417-19.983,12.15-27.85
			C54.25,13.533,68.233,7.633,86.5,7.2c9.767-0.233,19.883-0.983,30.35-2.25c5.9-0.733,13.917-1.833,24.05-3.3
			c8.434-1.133,15.5-1.683,21.2-1.65c7.4,0.067,14.667,1,21.8,2.8c21.867,5.534,41.367,12.45,58.5,20.75
			c8.399,4.067,13.933,6.633,16.6,7.7c5.934,2.333,12.267,4.033,19,5.1c7.333,1.167,15.333,1.383,24,0.65
			c2.233-0.2,8.8-1.067,19.7-2.6c6.533-0.933,11.149-1.066,13.85-0.4C339.116,34.867,341.217,37.25,341.85,41.15z"/>
		<path style="fill-rule:evenodd;clip-rule:evenodd;fill:#634E3C;" d="M330.9,56.25c0.899-0.033,3.517-0.05,7.85-0.05
			c-1.533,1.733-2.65,3.867-3.35,6.4c-0.7,2.433-2.034,4.7-4,6.8c-2.4,2.567-7.9,3.517-16.5,2.85c-10.667-1.467-18.5-2.533-23.5-3.2
			c-4.034-0.533-12.967-1.05-26.801-1.55c-14.166-0.467-26.666-1.383-37.5-2.75c-14.666-2.233-23.85-3.45-27.55-3.65
			c-4.533-0.233-10.133,0.983-16.8,3.65c-6.467,2.6-13.4,4.433-20.8,5.5c-2.6,0.367-8.117,0.867-16.55,1.5
			c-2.467,0.167-7.9,1.517-16.3,4.05c-8.467,2.567-15.917,4.1-22.35,4.6c-7.667,0.6-14.433,0.217-20.3-1.15
			c-2.767-0.667-7.784-2.4-15.05-5.2c-3.367-1.3-7.617-1.3-12.75,0c-5.4,1.333-10.25,1.333-14.55,0
			c-6.467-2.033-10.35-6.233-11.65-12.6c-0.4-2-0.517-4.1-0.35-6.3l0.35-2.7c1.2,3.867,3.367,6.7,6.5,8.5
			c3.233,1.867,7.617,2.683,13.15,2.45c2-0.066,4.15-0.383,6.45-0.95c1.3-0.3,3.2-0.75,5.7-1.35c4.5-0.967,9.333-0.65,14.5,0.95
			c6.433,1.967,12.867,2.767,19.3,2.4c6.333-0.4,11.35-1.867,15.05-4.4c1.633-1.133,3.867-1.716,6.7-1.75
			c1.7-0.033,4.784,0.217,9.25,0.75c10.467,1.267,19.367,1.267,26.7,0c6.667-1.133,13.683-1.633,21.05-1.5
			c5.167,0.1,10.034-0.733,14.601-2.5c5.399-2.066,12.116-2.683,20.149-1.85c4.566,0.466,11.517,1.417,20.851,2.85
			c1.233,0.133,10.8,0.45,28.699,0.95c13.7,0.367,23.467,1.383,29.301,3.05c6.199,1.767,10.933,1.983,14.199,0.65
			c0.967-0.4,2.584-1.1,4.851-2.1c2.366-0.833,5.133-1.35,8.3-1.55C324.816,56.583,329.2,56.317,330.9,56.25z"/>
		<path style="fill-rule:evenodd;clip-rule:evenodd;fill:#584534;" d="M331.4,65.75c2.199-2.333,3.3-2.867,3.3-1.6
			c-0.033,1.233-1.134,2.983-3.3,5.25c-2.4,2.567-7.9,3.517-16.5,2.85c-10.667-1.467-18.5-2.533-23.5-3.2
			c-4.034-0.533-12.967-1.05-26.801-1.55c-14.166-0.467-26.666-1.383-37.5-2.75c-14.666-2.233-23.85-3.45-27.55-3.65
			c-4.533-0.233-10.133,0.983-16.8,3.65c-6.467,2.6-13.4,4.433-20.8,5.5c-2.6,0.367-8.117,0.867-16.55,1.5
			c-2.467,0.167-7.9,1.517-16.3,4.05c-8.467,2.567-15.917,4.1-22.35,4.6c-7.667,0.6-14.433,0.217-20.3-1.15
			c-2.767-0.667-7.784-2.4-15.05-5.2c-3.367-1.3-7.617-1.3-12.75,0c-5.4,1.333-10.25,1.333-14.55,0c-4.5-1.966-6.767-3.417-6.8-4.35
			c-0.066-0.967,2.2-0.733,6.8,0.7c4.3,1.333,9.15,1.333,14.55,0c5.133-1.3,9.383-1.3,12.75,0c7.2,2.8,12.217,4.517,15.05,5.15
			c5.867,1.367,12.633,1.767,20.3,1.2c6.433-0.5,13.883-2.033,22.35-4.6c8.433-2.533,13.867-3.9,16.3-4.1
			c8.033-0.566,13.55-1.066,16.55-1.5c7.367-1.066,14.3-2.9,20.8-5.5c6.633-2.667,12.233-3.867,16.8-3.6
			c3.7,0.2,12.884,1.4,27.55,3.6c10.867,1.367,23.367,2.3,37.5,2.8c13.867,0.5,22.801,1.017,26.801,1.55
			c5,0.667,12.833,1.733,23.5,3.2C323.5,69.267,329,68.317,331.4,65.75z"/>
		<path style="fill-rule:evenodd;clip-rule:evenodd;fill:#634E3C;" d="M117.1,58.55c0,2.267-2.217,4.2-6.65,5.8
			c-4.434,1.6-9.784,2.4-16.05,2.4c-6.233,0-11.566-0.8-16-2.4c-4.433-1.6-6.65-3.533-6.65-5.8c0-2.233,2.217-4.15,6.65-5.75
			c4.4-1.6,9.733-2.4,16-2.4s11.617,0.8,16.05,2.4C114.883,54.4,117.1,56.317,117.1,58.55z"/>
		<path style="fill-rule:evenodd;clip-rule:evenodd;fill:#4C3B2A;" d="M114.45,55.75c0,1.833-1.784,3.4-5.35,4.7
			c-3.533,1.3-7.817,1.95-12.85,1.95c-5,0-9.283-0.65-12.85-1.95c-3.533-1.3-5.3-2.867-5.3-4.7c0-1.867,1.767-3.45,5.3-4.75
			s7.817-1.95,12.85-1.95s9.317,0.65,12.85,1.95C112.667,52.333,114.45,53.917,114.45,55.75z"/>
		<path style="fill-rule:evenodd;clip-rule:evenodd;fill:#634E3C;" d="M178,56c0,0.933-0.817,1.733-2.45,2.4
			c-1.633,0.667-3.6,1-5.9,1c-2.3,0-4.267-0.333-5.9-1c-1.633-0.667-2.45-1.467-2.45-2.4s0.817-1.717,2.45-2.35
			c1.633-0.667,3.6-1,5.9-1c2.3,0,4.267,0.333,5.9,1C177.183,54.283,178,55.067,178,56z"/>
		<path style="fill-rule:evenodd;clip-rule:evenodd;fill:#634E3C;" d="M227.75,48.45c0.967,0.4,1.45,0.883,1.45,1.45
			c0,0.567-0.483,1.033-1.45,1.4c-1,0.4-2.184,0.6-3.55,0.6c-1.367,0-2.55-0.2-3.55-0.6c-0.967-0.367-1.45-0.833-1.45-1.4
			c0-0.566,0.483-1.05,1.45-1.45c1-0.4,2.183-0.6,3.55-0.6C225.566,47.85,226.75,48.05,227.75,48.45z"/>
		<path style="fill-rule:evenodd;clip-rule:evenodd;fill:#634E3C;" d="M39.85,56.75c0.7-0.3,1.583-0.45,2.65-0.45
			c1.033,0,1.917,0.15,2.65,0.45c0.733,0.267,1.1,0.617,1.1,1.05c0,0.434-0.367,0.8-1.1,1.1c-0.733,0.3-1.617,0.45-2.65,0.45
			s-1.917-0.15-2.65-0.45c-0.733-0.3-1.1-0.667-1.1-1.1C38.75,57.367,39.117,57.017,39.85,56.75z"/>
		<path style="fill-rule:evenodd;clip-rule:evenodd;fill:#634E3C;" d="M60.7,57.2c0,0.233-0.2,0.417-0.6,0.55
			C59.733,57.917,59.283,58,58.75,58s-1-0.083-1.4-0.25c-0.367-0.133-0.55-0.317-0.55-0.55c0-0.233,0.184-0.417,0.55-0.55
			c0.4-0.167,0.867-0.25,1.4-0.25s0.983,0.083,1.35,0.25C60.5,56.783,60.7,56.967,60.7,57.2z"/>
		<path style="fill-rule:evenodd;clip-rule:evenodd;fill:#634E3C;" d="M149.65,56.3c0,0.2-0.2,0.383-0.6,0.55
			c-0.4,0.167-0.867,0.25-1.4,0.25c-0.5,0-0.95-0.083-1.35-0.25c-0.4-0.167-0.6-0.35-0.6-0.55c0-0.233,0.2-0.417,0.6-0.55
			c0.367-0.167,0.817-0.25,1.35-0.25c0.567,0,1.033,0.083,1.4,0.25C149.45,55.883,149.65,56.067,149.65,56.3z"/>
		<path style="fill-rule:evenodd;clip-rule:evenodd;fill:#634E3C;" d="M67.85,59.45c0,0.233-0.2,0.417-0.6,0.55
			c-0.367,0.167-0.817,0.25-1.35,0.25s-1-0.083-1.4-0.25c-0.367-0.133-0.55-0.317-0.55-0.55c0-0.233,0.183-0.417,0.55-0.55
			c0.4-0.167,0.867-0.25,1.4-0.25s0.983,0.083,1.35,0.25C67.65,59.033,67.85,59.217,67.85,59.45z"/>
		<path style="fill-rule:evenodd;clip-rule:evenodd;fill:#634E3C;" d="M153.55,57.7c0,0.233-0.2,0.417-0.6,0.55
			c-0.367,0.167-0.817,0.25-1.35,0.25s-1-0.083-1.4-0.25c-0.367-0.133-0.55-0.317-0.55-0.55c0-0.233,0.184-0.417,0.55-0.55
			c0.4-0.167,0.867-0.25,1.4-0.25s0.983,0.083,1.35,0.25C153.35,57.283,153.55,57.467,153.55,57.7z"/>
		<path style="fill-rule:evenodd;clip-rule:evenodd;fill:#4C3B2A;" d="M47.05,60c0,0.233-0.2,0.417-0.6,0.55
			c-0.367,0.167-0.833,0.25-1.4,0.25c-0.533,0-0.983-0.083-1.35-0.25c-0.4-0.133-0.6-0.316-0.6-0.55s0.2-0.417,0.6-0.55
			c0.367-0.167,0.816-0.25,1.35-0.25c0.567,0,1.034,0.083,1.4,0.25C46.85,59.583,47.05,59.767,47.05,60z"/>
		<path style="fill-rule:evenodd;clip-rule:evenodd;fill:#4C3B2A;" d="M40.4,61.85c0.767-0.3,1.684-0.45,2.75-0.45
			c1.1,0,2.033,0.15,2.8,0.45c0.767,0.267,1.15,0.617,1.15,1.05c0,0.4-0.383,0.75-1.15,1.05c-0.767,0.267-1.7,0.4-2.8,0.4
			c-1.066,0-1.983-0.133-2.75-0.4c-0.767-0.3-1.15-0.65-1.15-1.05C39.25,62.467,39.633,62.117,40.4,61.85z"/>
		<path style="fill-rule:evenodd;clip-rule:evenodd;fill:#4C3B2A;" d="M178.25,54.4c0,0.767-0.65,1.417-1.95,1.95
			c-1.3,0.533-2.883,0.8-4.75,0.8s-3.45-0.267-4.75-0.8c-1.3-0.533-1.95-1.184-1.95-1.95s0.65-1.417,1.95-1.95
			c1.333-0.534,2.917-0.8,4.75-0.8c1.833,0,3.417,0.267,4.75,0.8C177.6,52.983,178.25,53.633,178.25,54.4z"/>
		<path style="fill-rule:evenodd;clip-rule:evenodd;fill:#634E3C;" d="M113,53.45c2.8-0.667,6.2-1,10.2-1s7.4,0.333,10.2,1
			c2.833,0.667,4.25,1.466,4.25,2.4c0,0.933-1.417,1.717-4.25,2.35c-2.833,0.667-6.233,1-10.2,1c-4,0-7.4-0.333-10.2-1
			c-2.833-0.633-4.25-1.417-4.25-2.35C108.75,54.917,110.167,54.117,113,53.45z"/>
		<path style="fill-rule:evenodd;clip-rule:evenodd;fill:#634E3C;" d="M144.85,58.7c0,0.566-0.833,1.05-2.5,1.45
			c-1.7,0.4-3.75,0.6-6.15,0.6c-2.4,0-4.434-0.2-6.1-0.6c-1.7-0.4-2.55-0.883-2.55-1.45c0-0.567,0.85-1.034,2.55-1.4
			c1.667-0.4,3.7-0.6,6.1-0.6c2.4,0,4.45,0.2,6.15,0.6C144.017,57.667,144.85,58.133,144.85,58.7z"/>
		<path style="fill-rule:evenodd;clip-rule:evenodd;fill:#634E3C;" d="M147.75,63.25c0,0.4-0.633,0.75-1.9,1.05
			c-1.267,0.3-2.8,0.45-4.6,0.45s-3.333-0.15-4.6-0.45c-1.267-0.3-1.9-0.65-1.9-1.05c0-0.433,0.633-0.8,1.9-1.1
			c1.267-0.3,2.8-0.45,4.6-0.45s3.333,0.15,4.6,0.45C147.117,62.45,147.75,62.817,147.75,63.25z"/>
		<path style="fill-rule:evenodd;clip-rule:evenodd;fill:#634E3C;" d="M153.7,60.85c0,0.233-0.333,0.417-1,0.55
			c-0.667,0.167-1.467,0.25-2.4,0.25c-0.933,0-1.733-0.083-2.4-0.25c-0.667-0.133-1-0.316-1-0.55c0-0.2,0.333-0.367,1-0.5
			c0.667-0.167,1.467-0.25,2.4-0.25c0.934,0,1.733,0.083,2.4,0.25C153.367,60.483,153.7,60.65,153.7,60.85z"/>
		<path style="fill-rule:evenodd;clip-rule:evenodd;fill:#4C3B2A;" d="M120.85,68.45c0.933,0,1.717,0.083,2.35,0.25
			c0.667,0.2,1,0.433,1,0.7s-0.333,0.483-1,0.65c-0.633,0.167-1.417,0.25-2.35,0.25c-0.934,0-1.733-0.083-2.4-0.25
			c-0.667-0.167-1-0.383-1-0.65s0.333-0.5,1-0.7C119.083,68.533,119.883,68.45,120.85,68.45z"/>
		<path style="fill-rule:evenodd;clip-rule:evenodd;fill:#4C3B2A;" d="M97.15,67.05c0,0.233-0.333,0.417-1,0.55
			c-0.633,0.167-1.433,0.25-2.4,0.25c-0.933,0-1.733-0.083-2.4-0.25c-0.667-0.133-1-0.317-1-0.55c0-0.2,0.333-0.383,1-0.55
			c0.7-0.167,1.5-0.25,2.4-0.25c0.933,0,1.733,0.083,2.4,0.25C96.817,66.667,97.15,66.85,97.15,67.05z"/>
		<path style="fill-rule:evenodd;clip-rule:evenodd;fill:#4C3B2A;" d="M91.05,69.3c0,0.4-0.667,0.75-2,1.05
			c-1.333,0.267-2.933,0.4-4.8,0.4s-3.467-0.133-4.8-0.4c-1.333-0.3-2-0.65-2-1.05c0-0.4,0.667-0.733,2-1
			c1.333-0.3,2.933-0.45,4.8-0.45s3.467,0.15,4.8,0.45C90.383,68.567,91.05,68.9,91.05,69.3z"/>
		<path style="fill-rule:evenodd;clip-rule:evenodd;fill:#4C3B2A;" d="M107.05,73.75c0,0.4-0.667,0.75-2,1.05
			c-1.333,0.3-2.933,0.45-4.8,0.45s-3.467-0.15-4.8-0.45c-1.333-0.3-2-0.65-2-1.05s0.667-0.733,2-1c1.333-0.3,2.933-0.45,4.8-0.45
			s3.467,0.15,4.8,0.45C106.383,73.017,107.05,73.35,107.05,73.75z"/>
		<path style="fill-rule:evenodd;clip-rule:evenodd;fill:#4C3B2A;" d="M83.65,65.5c0,0.167-0.267,0.3-0.8,0.4
			c-0.5,0.1-1.117,0.15-1.85,0.15S79.65,66,79.15,65.9c-0.533-0.1-0.8-0.233-0.8-0.4s0.267-0.3,0.8-0.4
			c0.533-0.133,1.15-0.2,1.85-0.2s1.317,0.067,1.85,0.2C83.383,65.2,83.65,65.333,83.65,65.5z"/>
		<path style="fill-rule:evenodd;clip-rule:evenodd;fill:#4C3B2A;" d="M275.25,61.6c0,0.4-0.866,0.6-2.6,0.6
			c-1.767,0-2.65-0.2-2.65-0.6c0-0.133,0.267-0.267,0.8-0.4c0.5-0.1,1.117-0.15,1.851-0.15C274.384,61.05,275.25,61.233,275.25,61.6
			z"/>
		<path style="fill-rule:evenodd;clip-rule:evenodd;fill:#4C3B2A;" d="M118.7,71c0,0.4-0.867,0.6-2.6,0.6
			c-0.7,0-1.317-0.067-1.85-0.2c-0.533-0.1-0.8-0.233-0.8-0.4c0-0.367,0.883-0.55,2.65-0.55C117.833,70.45,118.7,70.633,118.7,71z"
			/>
		<path style="fill-rule:evenodd;clip-rule:evenodd;fill:#4C3B2A;" d="M118.35,52.25c2.233-0.533,4.95-0.8,8.15-0.8
			s5.933,0.267,8.2,0.8c2.267,0.533,3.4,1.183,3.4,1.95c0,0.767-1.133,1.433-3.4,2c-2.267,0.533-5,0.8-8.2,0.8
			s-5.917-0.267-8.15-0.8c-2.267-0.567-3.4-1.233-3.4-2C114.95,53.433,116.083,52.783,118.35,52.25z"/>
		<path style="fill-rule:evenodd;clip-rule:evenodd;fill:#634E3C;" d="M322.3,53.2c2.8,0.633,4.2,1.417,4.2,2.35
			c0,0.934-1.4,1.733-4.2,2.4c-2.833,0.667-6.25,1-10.25,1s-7.399-0.333-10.2-1c-2.833-0.667-4.25-1.467-4.25-2.4
			c0-0.933,1.417-1.716,4.25-2.35c2.834-0.667,6.233-1,10.2-1C316.05,52.2,319.467,52.533,322.3,53.2z"/>
		<path style="fill-rule:evenodd;clip-rule:evenodd;fill:#634E3C;" d="M240.6,54.3c1.7,0.4,2.551,0.867,2.551,1.4
			c0,0.566-0.851,1.05-2.551,1.45c-1.666,0.4-3.699,0.6-6.1,0.6s-4.45-0.2-6.15-0.6c-1.699-0.4-2.55-0.883-2.55-1.45
			c0-0.534,0.851-1,2.55-1.4c1.7-0.4,3.75-0.6,6.15-0.6C236.866,53.7,238.9,53.9,240.6,54.3z"/>
		<path style="fill-rule:evenodd;clip-rule:evenodd;fill:#634E3C;" d="M332.1,58.25c0,0.4-0.633,0.75-1.899,1.05
			c-1.3,0.3-2.851,0.45-4.65,0.45c-1.767,0-3.3-0.15-4.6-0.45c-1.267-0.3-1.9-0.65-1.9-1.05c0-0.433,0.634-0.8,1.9-1.1
			c1.3-0.3,2.833-0.45,4.6-0.45c1.8,0,3.351,0.15,4.65,0.45C331.467,57.45,332.1,57.817,332.1,58.25z"/>
		<path style="fill-rule:evenodd;clip-rule:evenodd;fill:#634E3C;" d="M333.8,56.25c0,0.2-0.333,0.383-1,0.55
			c-0.633,0.133-1.416,0.2-2.35,0.2s-1.733-0.067-2.4-0.2c-0.666-0.167-1-0.35-1-0.55c0-0.233,0.334-0.417,1-0.55
			c0.634-0.167,1.434-0.25,2.4-0.25c0.934,0,1.717,0.083,2.35,0.25C333.467,55.833,333.8,56.017,333.8,56.25z"/>
		<path style="fill-rule:evenodd;clip-rule:evenodd;fill:#4C3B2A;" d="M311.6,59.1c0,0.233-0.333,0.417-1,0.55
			c-0.633,0.167-1.416,0.25-2.35,0.25c-0.967,0-1.767-0.083-2.4-0.25c-0.666-0.133-1-0.316-1-0.55s0.334-0.417,1-0.55
			c0.634-0.167,1.434-0.25,2.4-0.25c0.934,0,1.717,0.083,2.35,0.25C311.267,58.683,311.6,58.867,311.6,59.1z"/>
		<path style="fill-rule:evenodd;clip-rule:evenodd;fill:#4C3B2A;" d="M327.1,63.2c0,0.4-0.666,0.75-2,1.05
			c-1.333,0.3-2.933,0.45-4.8,0.45c-1.866,0-3.467-0.15-4.8-0.45s-2-0.65-2-1.05c0-0.4,0.667-0.733,2-1
			c1.333-0.3,2.934-0.45,4.8-0.45c1.867,0,3.467,0.15,4.8,0.45C326.434,62.467,327.1,62.8,327.1,63.2z"/>
		<path style="fill-rule:evenodd;clip-rule:evenodd;fill:#4C3B2A;" d="M201.8,54.2c0,0.4-0.666,0.75-2,1.05
			c-1.333,0.3-2.934,0.45-4.8,0.45s-3.467-0.15-4.8-0.45c-1.333-0.3-2-0.65-2-1.05c0-0.4,0.667-0.733,2-1
			c1.333-0.3,2.934-0.45,4.8-0.45s3.467,0.15,4.8,0.45C201.134,53.467,201.8,53.8,201.8,54.2z"/>
		<path style="fill-rule:evenodd;clip-rule:evenodd;fill:#4C3B2A;" d="M312.7,61.35c0,0.167-0.25,0.3-0.75,0.4
			s-1.117,0.15-1.851,0.15c-1.767,0-2.649-0.183-2.649-0.55c0-0.4,0.883-0.6,2.649-0.6C311.833,60.75,312.7,60.95,312.7,61.35z"/>
		<path style="fill-rule:evenodd;clip-rule:evenodd;fill:#4C3B2A;" d="M306.9,56.85c0,0.367-0.867,0.55-2.601,0.55
			c-0.733,0-1.35-0.05-1.85-0.15c-0.533-0.1-0.8-0.233-0.8-0.4c0-0.367,0.883-0.55,2.649-0.55c0.733,0,1.351,0.05,1.851,0.15
			C306.65,56.583,306.9,56.717,306.9,56.85z"/>
		<path style="fill-rule:evenodd;clip-rule:evenodd;fill:#4C3B2A;" d="M269.4,60.45c0,0.267-0.384,0.4-1.15,0.4
			s-1.15-0.133-1.15-0.4c0-0.3,0.384-0.45,1.15-0.45S269.4,60.15,269.4,60.45z"/>
		<path style="fill-rule:evenodd;clip-rule:evenodd;fill:#4C3B2A;" d="M334.6,57.6c0,0.267-0.383,0.4-1.149,0.4
			s-1.15-0.133-1.15-0.4c0-0.3,0.384-0.45,1.15-0.45S334.6,57.3,334.6,57.6z"/>
		<path style="fill-rule:evenodd;clip-rule:evenodd;fill:#4C3B2A;" d="M332.5,58.75c0,0.3-0.4,0.45-1.2,0.45
			c-0.767,0-1.149-0.15-1.149-0.45s0.383-0.45,1.149-0.45C332.1,58.3,332.5,58.45,332.5,58.75z"/>
		<path style="fill-rule:evenodd;clip-rule:evenodd;fill:#4C3B2A;" d="M201.4,51.75c0,0.367-0.884,0.55-2.65,0.55
			s-2.65-0.183-2.65-0.55c0-0.4,0.884-0.6,2.65-0.6S201.4,51.35,201.4,51.75z"/>
		<path style="fill-rule:evenodd;clip-rule:evenodd;fill:#4C3B2A;" d="M261.25,59.45c0,0.167-0.267,0.3-0.8,0.4
			c-0.5,0.1-1.117,0.15-1.851,0.15c-1.767,0-2.649-0.183-2.649-0.55s0.883-0.55,2.649-0.55c0.733,0,1.351,0.05,1.851,0.15
			C260.983,59.183,261.25,59.317,261.25,59.45z"/>
		<path style="fill-rule:evenodd;clip-rule:evenodd;fill:#4C3B2A;" d="M329.6,53.35c0,0.767-1.133,1.433-3.399,2
			c-2.267,0.533-5,0.8-8.2,0.8c-3.167,0-5.884-0.267-8.15-0.8c-2.267-0.567-3.399-1.233-3.399-2s1.133-1.417,3.399-1.95
			s4.983-0.8,8.15-0.8c3.2,0,5.934,0.267,8.2,0.8S329.6,52.583,329.6,53.35z"/>
		<path style="fill-rule:evenodd;clip-rule:evenodd;fill:#634E3C;" d="M183.5,50.35c2.833-0.667,6.233-1,10.2-1
			c4,0,7.416,0.333,10.25,1c2.8,0.667,4.2,1.467,4.2,2.4s-1.4,1.733-4.2,2.4c-2.834,0.667-6.25,1-10.25,1
			c-3.967,0-7.367-0.333-10.2-1c-2.833-0.667-4.25-1.467-4.25-2.4S180.667,51.017,183.5,50.35z"/>
		<path style="fill-rule:evenodd;clip-rule:evenodd;fill:#4C3B2A;" d="M192.1,53c0,0.5-1.017,0.933-3.05,1.3
			c-2.066,0.367-4.55,0.55-7.45,0.55s-5.367-0.184-7.4-0.55c-2.067-0.367-3.1-0.8-3.1-1.3c0-0.533,1.033-0.983,3.1-1.35
			c2.033-0.367,4.5-0.55,7.4-0.55s5.383,0.183,7.45,0.55C191.083,52.017,192.1,52.467,192.1,53z"/>
		<path style="fill-rule:evenodd;clip-rule:evenodd;fill:#634E3C;" d="M265.2,56.65c0-0.933,1.416-1.717,4.25-2.35
			c2.8-0.667,6.2-1,10.2-1c3.966,0,7.366,0.333,10.199,1c2.834,0.633,4.25,1.417,4.25,2.35c0,0.934-1.416,1.733-4.25,2.4
			c-2.8,0.667-6.199,1-10.199,1s-7.4-0.333-10.2-1C266.616,58.383,265.2,57.583,265.2,56.65z"/>
		<path style="fill-rule:evenodd;clip-rule:evenodd;fill:#634E3C;" d="M85.4,56.25c0-0.567,0.85-1.05,2.55-1.45
			c1.667-0.4,3.7-0.6,6.1-0.6c2.4,0,4.45,0.2,6.15,0.6c1.667,0.4,2.5,0.883,2.5,1.45s-0.833,1.033-2.5,1.4
			c-1.7,0.4-3.75,0.6-6.15,0.6c-2.4,0-4.433-0.2-6.1-0.6C86.25,57.283,85.4,56.817,85.4,56.25z"/>
		<path style="fill-rule:evenodd;clip-rule:evenodd;fill:#634E3C;" d="M95.4,51.1c0-0.434,0.633-0.8,1.9-1.1
			c1.267-0.3,2.8-0.45,4.6-0.45c1.8,0,3.333,0.15,4.6,0.45s1.9,0.667,1.9,1.1c0,0.4-0.633,0.75-1.9,1.05
			c-1.267,0.3-2.8,0.45-4.6,0.45c-1.8,0-3.333-0.15-4.6-0.45C96.033,51.85,95.4,51.5,95.4,51.1z"/>
		<path style="fill-rule:evenodd;clip-rule:evenodd;fill:#634E3C;" d="M246.35,52.4c0-0.4,0.65-0.75,1.95-1.05
			c1.267-0.3,2.8-0.45,4.601-0.45c1.767,0,3.3,0.15,4.6,0.45c1.267,0.3,1.9,0.65,1.9,1.05c0,0.434-0.634,0.8-1.9,1.1
			c-1.3,0.3-2.833,0.45-4.6,0.45c-1.801,0-3.334-0.15-4.601-0.45C247,53.2,246.35,52.833,246.35,52.4z"/>
		<path style="fill-rule:evenodd;clip-rule:evenodd;fill:#634E3C;" d="M111.2,52.3c0-0.233,0.333-0.417,1-0.55
			c0.633-0.167,1.417-0.25,2.35-0.25c0.967,0,1.767,0.083,2.4,0.25c0.667,0.133,1,0.317,1,0.55c0,0.233-0.333,0.417-1,0.55
			c-0.633,0.167-1.434,0.25-2.4,0.25c-0.933,0-1.716-0.083-2.35-0.25C111.533,52.717,111.2,52.533,111.2,52.3z"/>
		<path style="fill-rule:evenodd;clip-rule:evenodd;fill:#4C3B2A;" d="M276.1,55.35c0-0.233,0.334-0.417,1-0.55
			c0.634-0.167,1.434-0.25,2.4-0.25c0.934,0,1.717,0.083,2.35,0.25c0.667,0.133,1,0.317,1,0.55s-0.333,0.417-1,0.55
			c-0.633,0.167-1.416,0.25-2.35,0.25c-0.967,0-1.767-0.083-2.4-0.25C276.434,55.767,276.1,55.583,276.1,55.35z"/>
		<path style="fill-rule:evenodd;clip-rule:evenodd;fill:#4C3B2A;" d="M275.95,57.6c0-0.4,0.666-0.733,2-1
			c1.333-0.3,2.934-0.45,4.8-0.45s3.467,0.15,4.8,0.45c1.334,0.267,2,0.6,2,1s-0.666,0.75-2,1.05c-1.333,0.3-2.934,0.45-4.8,0.45
			s-3.467-0.15-4.8-0.45C276.616,58.35,275.95,58,275.95,57.6z"/>
		<path style="fill-rule:evenodd;clip-rule:evenodd;fill:#4C3B2A;" d="M288.65,62.4c0-0.367,0.883-0.55,2.649-0.55
			c1.733,0,2.601,0.183,2.601,0.55c0,0.167-0.25,0.3-0.75,0.4C292.616,62.933,292,63,291.3,63s-1.316-0.067-1.85-0.2
			C288.917,62.7,288.65,62.567,288.65,62.4z"/>
		<path style="fill-rule:evenodd;clip-rule:evenodd;fill:#4C3B2A;" d="M266.4,55.15c0-0.767,1.133-1.417,3.399-1.95
			c2.267-0.534,5-0.8,8.2-0.8s5.934,0.267,8.2,0.8c2.233,0.533,3.35,1.183,3.35,1.95s-1.116,1.434-3.35,2
			c-2.267,0.533-5,0.8-8.2,0.8s-5.934-0.267-8.2-0.8C267.533,56.583,266.4,55.917,266.4,55.15z"/>
		
			<use xlink:href="#FlashAICB_x2F_frount_ground_3_x2F__x3C_Group_x3E__x5F_6"  width="158.25" height="29.2" y="-29.2" transform="matrix(1 0 0 -1 164.3999 155.4004)" style="overflow:visible;opacity:0.3008;enable-background:new    ;"/>
		
			<use xlink:href="#FlashAICB_x2F_frount_ground_3_x2F__x3C_Group_x3E__x5F_5"  width="47.35" height="9.4" y="-9.4" transform="matrix(1 0 0 -1 141.75 110.25)" style="overflow:visible;opacity:0.3008;enable-background:new    ;"/>
		
			<use xlink:href="#FlashAICB_x2F_frount_ground_3_x2F__x3C_Group_x3E__x5F_4"  width="167.7" height="23.7" y="-23.7" transform="matrix(1 0 0 -1 154.2998 75.2002)" style="overflow:visible;opacity:0.3008;enable-background:new    ;"/>
		
			<use xlink:href="#FlashAICB_x2F_frount_ground_3_x2F__x3C_Group_x3E__x5F_3"  width="36.15" height="7.15" y="-7.15" transform="matrix(1 0 0 -1 55.4502 84.3999)" style="overflow:visible;opacity:0.3008;enable-background:new    ;"/>
		
			<use xlink:href="#FlashAICB_x2F_frount_ground_3_x2F__x3C_Group_x3E__x5F_2"  width="47.35" height="9.4" y="-9.4" transform="matrix(1 0 0 -1 190 116.5498)" style="overflow:visible;opacity:0.3008;enable-background:new    ;"/>
		
			<use xlink:href="#FlashAICB_x2F_frount_ground_3_x2F__x3C_Group_x3E__x5F_1_x5F_0"  width="97.9" height="19.4" y="-19.4" transform="matrix(1 0 0 -1 76.0498 125.9502)" style="overflow:visible;opacity:0.3008;enable-background:new    ;"/>
		
			<use xlink:href="#FlashAICB_x2F_frount_ground_3_x2F__x3C_Group_x3E__x5F_0"  width="90.05" height="13.7" x="7.8" y="-13.7" transform="matrix(1 0 0 -1 74.3999 168.1504)" style="overflow:visible;opacity:0.3008;enable-background:new    ;"/>
	</g>
</g>
</svg>
