<?xml version="1.0" encoding="iso-8859-1"?>
<!-- Generator: Adobe Illustrator 15.1.0, SVG Export Plug-In . SVG Version: 6.00 Build 0)  -->
<!DOCTYPE svg PUBLIC "-//W3C//DTD SVG 1.1//EN" "http://www.w3.org/Graphics/SVG/1.1/DTD/svg11.dtd">
<svg version="1.1" id="Layer_1" xmlns="http://www.w3.org/2000/svg" xmlns:xlink="http://www.w3.org/1999/xlink" x="0px" y="0px"
	 width="310px" height="135.5px" viewBox="0 0 310 135.5" style="enable-background:new 0 0 310 135.5;" xml:space="preserve">
<path style="fill-rule:evenodd;clip-rule:evenodd;fill:#4C3B2B;" d="M309.65,61.25c1.399,6.267-2.684,10.934-12.25,14
	c-12.934,4.2-34.733,4.8-65.4,1.8c-34.6-3.333-57.25-4.883-67.95-4.649c-6.899,0.166-13.7,0.85-20.4,2.05
	c-5.333,1-12.883,2.783-22.65,5.35c-8.867,2.334-20.283,3.917-34.25,4.75c-13.9,0.834-27.383,0.733-40.45-0.3
	c-14.1-1.1-25.183-3.1-33.25-6C3.917,74.95-0.333,70.8,0.3,65.8C1,60.3,3.533,55.717,7.9,52.05c4.733-3.933,12-7.167,21.8-9.7
	c19.633-5.1,54.2-8.167,103.7-9.2c48.667-1,90.333,1.517,125,7.55c15.433,2.667,27.633,5.8,36.6,9.4
	C303.9,53.7,308.783,57.417,309.65,61.25z"/>
<path style="fill-rule:evenodd;clip-rule:evenodd;fill:#644E3D;" d="M299.6,68.8c3.101-0.434,6-0.649,8.7-0.649
	c-2.467,2.333-4.133,4.8-5,7.399c-0.934,2.767-2.267,5.066-4,6.9c-2.399,2.566-7.899,3.517-16.5,2.85
	c-10.666-1.434-18.5-2.483-23.5-3.149c-4.033-0.534-12.967-1.051-26.8-1.551c-14.167-0.5-26.684-1.433-37.55-2.8
	c-14.634-2.2-23.8-3.399-27.5-3.6c-4.566-0.267-10.167,0.934-16.8,3.6c-6.5,2.601-13.433,4.434-20.8,5.5
	c-3,0.434-8.517,0.934-16.55,1.5c-2.5,0.167-7.95,1.533-16.35,4.101c-8.467,2.566-15.9,4.083-22.3,4.55
	c-7.667,0.6-14.433,0.217-20.3-1.15c-2.833-0.666-7.85-2.383-15.05-5.149c-3.367-1.301-7.633-1.301-12.8,0
	c-5.4,1.333-10.25,1.333-14.55,0C5.483,85.116,1.6,80.9,0.3,74.5c-0.4-2-0.5-4.1-0.3-6.3l0.35-2.7c0.6-1.933,1.55-2.7,2.85-2.3
	c0.966,0.333,2.433,1.5,4.4,3.5c5.7,5.7,9.816,8.95,12.35,9.75c2.066,0.666,4.167,0.833,6.3,0.5c1-0.167,2.9-0.667,5.7-1.5
	c5.167-1.634,10.066-1.733,14.7-0.3c6.434,1.966,12.867,2.767,19.3,2.399c6.3-0.399,11.3-1.866,15-4.399
	c1.667-1.134,3.9-1.717,6.7-1.75c1.733-0.034,4.817,0.216,9.25,0.75c10.5,1.233,19.417,1.233,26.75,0
	c6.733-1.134,13.75-1.634,21.05-1.5c5.167,0.1,10.033-0.733,14.6-2.5c5.4-2.067,12.117-2.7,20.15-1.9
	c4.566,0.5,11.517,1.467,20.85,2.9c0.9,0.1,10.467,0.399,28.7,0.899c13.667,0.367,23.434,1.4,29.3,3.101
	c6.2,1.767,10.934,1.966,14.2,0.6c0.967-0.4,2.583-1.083,4.85-2.05c2.367-0.834,5.134-1.351,8.301-1.55
	C290.583,69.816,295.233,69.366,299.6,68.8z"/>
<path style="fill-rule:evenodd;clip-rule:evenodd;fill:#584534;" d="M299.3,78.8c2.2-2.333,3.3-2.866,3.3-1.6
	c-0.033,1.267-1.133,3.017-3.3,5.25c-2.399,2.566-7.899,3.517-16.5,2.85c-10.666-1.434-18.5-2.483-23.5-3.149
	c-4.033-0.534-12.967-1.051-26.8-1.551c-14.167-0.5-26.684-1.433-37.55-2.8c-14.634-2.2-23.8-3.399-27.5-3.6
	c-4.566-0.267-10.167,0.934-16.8,3.6c-6.5,2.601-13.433,4.434-20.8,5.5c-3,0.434-8.517,0.934-16.55,1.5
	c-2.5,0.167-7.95,1.533-16.35,4.101c-8.467,2.566-15.9,4.083-22.3,4.55c-7.667,0.6-14.433,0.217-20.3-1.15
	c-2.833-0.666-7.85-2.383-15.05-5.149c-3.367-1.301-7.633-1.301-12.8,0c-5.4,1.333-10.25,1.333-14.55,0
	c-4.467-2-6.717-3.467-6.75-4.4c-0.067-0.934,2.183-0.7,6.75,0.7c4.333,1.366,9.183,1.366,14.55,0c5.167-1.3,9.433-1.3,12.8,0
	c7.267,2.8,12.284,4.533,15.05,5.2c5.867,1.366,12.633,1.75,20.3,1.149c6.4-0.5,13.833-2.033,22.3-4.6
	c8.4-2.533,13.85-3.884,16.35-4.05c8.434-0.634,13.95-1.134,16.55-1.5c7.4-1.067,14.333-2.9,20.8-5.5
	c6.667-2.667,12.267-3.884,16.8-3.65c3.7,0.2,12.866,1.417,27.5,3.65c10.866,1.366,23.383,2.283,37.55,2.75
	c13.833,0.5,22.767,1.017,26.8,1.55c5,0.666,12.834,1.733,23.5,3.2C291.4,82.316,296.9,81.366,299.3,78.8z"/>
<path style="fill-rule:evenodd;clip-rule:evenodd;fill:#644E3D;" d="M46.3,65.85c4.4-1.6,9.733-2.4,16-2.4
	c6.267,0,11.617,0.8,16.05,2.4c4.4,1.6,6.6,3.534,6.6,5.8s-2.2,4.183-6.6,5.75C73.917,79,68.567,79.8,62.3,79.8
	c-6.267,0-11.6-0.8-16-2.399c-4.433-1.567-6.65-3.483-6.65-5.75S41.867,67.45,46.3,65.85z"/>
<path style="fill-rule:evenodd;clip-rule:evenodd;fill:#4C3B2B;" d="M82.3,68.8c0,1.834-1.767,3.4-5.3,4.7s-7.817,1.95-12.85,1.95
	S54.833,74.8,51.3,73.5c-3.566-1.3-5.35-2.866-5.35-4.7c0-1.833,1.783-3.4,5.35-4.7c3.534-1.3,7.817-1.95,12.85-1.95
	S73.467,62.8,77,64.1C80.533,65.4,82.3,66.967,82.3,68.8z"/>
<path style="fill-rule:evenodd;clip-rule:evenodd;fill:#644E3D;" d="M19.3,65.25c0,0.933-0.816,1.733-2.45,2.4s-3.6,1-5.9,1
	c-2.3,0-4.25-0.334-5.85-1c-1.633-0.667-2.45-1.467-2.45-2.4s0.817-1.733,2.45-2.4c1.6-0.667,3.55-1,5.85-1c2.3,0,4.267,0.333,5.9,1
	C18.483,63.517,19.3,64.317,19.3,65.25z"/>
<path style="fill-rule:evenodd;clip-rule:evenodd;fill:#644E3D;" d="M24.3,67.9c0,0.567-0.483,1.05-1.45,1.45
	c-1,0.4-2.184,0.601-3.55,0.601s-2.55-0.2-3.55-0.601c-0.967-0.399-1.45-0.883-1.45-1.45c0-0.533,0.483-1,1.45-1.4
	c1-0.4,2.183-0.6,3.55-0.6s2.55,0.2,3.55,0.6C23.817,66.9,24.3,67.367,24.3,67.9z"/>
<path style="fill-rule:evenodd;clip-rule:evenodd;fill:#644E3D;" d="M24.05,71.55c0.733,0.3,1.1,0.667,1.1,1.101
	c0,0.433-0.367,0.783-1.1,1.05c-0.733,0.3-1.617,0.45-2.65,0.45c-1.066,0-1.95-0.15-2.65-0.45c-0.733-0.267-1.1-0.617-1.1-1.05
	c0-0.434,0.367-0.801,1.1-1.101s1.617-0.45,2.65-0.45S23.317,71.25,24.05,71.55z"/>
<path style="fill-rule:evenodd;clip-rule:evenodd;fill:#644E3D;" d="M28.55,70.25c0,0.233-0.183,0.417-0.55,0.55
	c-0.367,0.167-0.833,0.25-1.4,0.25c-0.533,0-0.983-0.083-1.35-0.25c-0.4-0.133-0.6-0.316-0.6-0.55c0-0.2,0.2-0.366,0.6-0.5
	c0.367-0.167,0.817-0.25,1.35-0.25s1,0.083,1.4,0.25C28.367,69.884,28.55,70.05,28.55,70.25z"/>
<path style="fill-rule:evenodd;clip-rule:evenodd;fill:#644E3D;" d="M119.25,69.15c0,0.199-0.183,0.383-0.55,0.55
	c-0.4,0.166-0.867,0.25-1.4,0.25c-0.5,0-0.95-0.084-1.35-0.25c-0.4-0.167-0.6-0.351-0.6-0.55c0-0.233,0.2-0.417,0.6-0.551
	c0.367-0.166,0.816-0.25,1.35-0.25c0.567,0,1.034,0.084,1.4,0.25C119.067,68.733,119.25,68.917,119.25,69.15z"/>
<path style="fill-rule:evenodd;clip-rule:evenodd;fill:#644E3D;" d="M302.95,63c0,0.233-0.2,0.417-0.601,0.55
	c-0.366,0.167-0.833,0.25-1.399,0.25c-0.533,0-0.983-0.083-1.351-0.25C299.2,63.417,299,63.233,299,63s0.2-0.417,0.6-0.55
	c0.367-0.167,0.817-0.25,1.351-0.25c0.566,0,1.033,0.083,1.399,0.25C302.75,62.583,302.95,62.767,302.95,63z"/>
<path style="fill-rule:evenodd;clip-rule:evenodd;fill:#644E3D;" d="M123.95,67.15c0,0.2-0.2,0.383-0.6,0.55
	c-0.4,0.167-0.867,0.25-1.4,0.25c-0.5,0-0.95-0.083-1.35-0.25c-0.4-0.167-0.6-0.35-0.6-0.55c0-0.233,0.2-0.417,0.6-0.55
	c0.367-0.167,0.816-0.25,1.35-0.25c0.566,0,1.033,0.083,1.4,0.25C123.75,66.733,123.95,66.917,123.95,67.15z"/>
<path style="fill-rule:evenodd;clip-rule:evenodd;fill:#4C3B2B;" d="M14.9,73.1c0,0.2-0.183,0.384-0.55,0.551
	c-0.4,0.166-0.867,0.25-1.4,0.25c-0.5,0-0.95-0.084-1.35-0.25C11.2,73.483,11,73.3,11,73.1c0-0.233,0.2-0.416,0.6-0.55
	c0.367-0.166,0.816-0.25,1.35-0.25c0.566,0,1.033,0.084,1.4,0.25C14.717,72.684,14.9,72.866,14.9,73.1z"/>
<path style="fill-rule:evenodd;clip-rule:evenodd;fill:#4C3B2B;" d="M14.95,75.95c0,0.399-0.383,0.75-1.15,1.05
	c-0.767,0.267-1.683,0.4-2.75,0.4c-1.066,0-2-0.134-2.8-0.4c-0.767-0.3-1.15-0.65-1.15-1.05c0-0.4,0.383-0.733,1.15-1
	c0.8-0.3,1.733-0.45,2.8-0.45c1.067,0,1.983,0.15,2.75,0.45C14.567,75.217,14.95,75.55,14.95,75.95z"/>
<path style="fill-rule:evenodd;clip-rule:evenodd;fill:#4C3B2B;" d="M6.5,77.3c1,0,1.5,0.184,1.5,0.55c0,0.4-0.5,0.601-1.5,0.601
	c-1.033,0-1.55-0.2-1.55-0.601C4.95,77.483,5.467,77.3,6.5,77.3z"/>
<path style="fill-rule:evenodd;clip-rule:evenodd;fill:#4C3B2B;" d="M11.05,78.4c0,0.3-0.4,0.449-1.2,0.449
	C9.083,78.85,8.7,78.7,8.7,78.4c0-0.267,0.383-0.4,1.15-0.4C10.65,78,11.05,78.134,11.05,78.4z"/>
<path style="fill-rule:evenodd;clip-rule:evenodd;fill:#4C3B2B;" d="M19.55,63.6c0,0.767-0.65,1.433-1.95,2
	c-1.3,0.533-2.867,0.8-4.7,0.8c-1.833,0-3.417-0.267-4.75-0.8c-1.3-0.567-1.95-1.233-1.95-2s0.65-1.417,1.95-1.95
	c1.333-0.533,2.917-0.8,4.75-0.8c1.833,0,3.4,0.267,4.7,0.8C18.9,62.183,19.55,62.833,19.55,63.6z"/>
<path style="fill-rule:evenodd;clip-rule:evenodd;fill:#644E3D;" d="M105.5,68.9c0,0.933-1.4,1.733-4.2,2.399
	c-2.8,0.667-6.2,1-10.2,1s-7.4-0.333-10.2-1c-2.833-0.666-4.25-1.467-4.25-2.399c0-0.934,1.417-1.717,4.25-2.351
	c2.8-0.667,6.2-1,10.2-1c3.967,0,7.367,0.333,10.2,1C104.1,67.183,105.5,67.967,105.5,68.9z"/>
<path style="fill-rule:evenodd;clip-rule:evenodd;fill:#644E3D;" d="M114.2,71.6c0,0.567-0.85,1.034-2.55,1.4
	c-1.7,0.4-3.75,0.6-6.15,0.6c-2.367,0-4.4-0.199-6.1-0.6c-1.7-0.366-2.55-0.833-2.55-1.4c0-0.566,0.85-1.05,2.55-1.449
	c1.667-0.4,3.7-0.601,6.1-0.601s4.45,0.2,6.15,0.601C113.35,70.55,114.2,71.033,114.2,71.6z"/>
<path style="fill-rule:evenodd;clip-rule:evenodd;fill:#644E3D;" d="M115.65,76.3c0,0.434-0.633,0.783-1.9,1.05
	c-1.3,0.301-2.85,0.45-4.65,0.45c-1.8,0-3.333-0.149-4.6-0.45c-1.267-0.267-1.9-0.616-1.9-1.05s0.633-0.783,1.9-1.05
	c1.267-0.3,2.8-0.45,4.6-0.45c1.8,0,3.35,0.15,4.65,0.45C115.017,75.517,115.65,75.866,115.65,76.3z"/>
<path style="fill-rule:evenodd;clip-rule:evenodd;fill:#644E3D;" d="M121.55,73.95c0,0.233-0.333,0.416-1,0.55
	c-0.633,0.167-1.417,0.25-2.35,0.25c-0.967,0-1.767-0.083-2.4-0.25c-0.667-0.134-1-0.316-1-0.55s0.333-0.417,1-0.55
	c0.633-0.167,1.434-0.25,2.4-0.25c0.933,0,1.716,0.083,2.35,0.25C121.217,73.533,121.55,73.717,121.55,73.95z"/>
<path style="fill-rule:evenodd;clip-rule:evenodd;fill:#4C3B2B;" d="M97.9,76.75c0,0.233-0.333,0.417-1,0.55
	c-0.633,0.167-1.433,0.25-2.4,0.25c-0.933,0-1.717-0.083-2.35-0.25c-0.667-0.133-1-0.316-1-0.55s0.333-0.417,1-0.55
	c0.633-0.167,1.417-0.25,2.35-0.25c0.967,0,1.767,0.083,2.4,0.25C97.567,76.333,97.9,76.517,97.9,76.75z"/>
<path style="fill-rule:evenodd;clip-rule:evenodd;fill:#4C3B2B;" d="M65,80.15c0,0.199-0.333,0.383-1,0.55
	c-0.667,0.166-1.45,0.25-2.35,0.25c-0.933,0-1.733-0.084-2.4-0.25c-0.667-0.167-1-0.351-1-0.55c0-0.233,0.333-0.417,1-0.551
	c0.633-0.166,1.433-0.25,2.4-0.25c0.934,0,1.717,0.084,2.35,0.25C64.667,79.733,65,79.917,65,80.15z"/>
<path style="fill-rule:evenodd;clip-rule:evenodd;fill:#4C3B2B;" d="M98,79.6c0,0.434-0.667,0.784-2,1.051
	c-1.3,0.3-2.9,0.449-4.8,0.449c-1.9,0-3.5-0.149-4.8-0.449c-1.333-0.267-2-0.617-2-1.051c0-0.399,0.667-0.733,2-1
	c1.333-0.3,2.934-0.449,4.8-0.449S94.667,78.3,96,78.6C97.333,78.866,98,79.2,98,79.6z"/>
<path style="fill-rule:evenodd;clip-rule:evenodd;fill:#4C3B2B;" d="M85.95,81.55c0,0.367-0.883,0.55-2.65,0.55
	c-0.733,0-1.35-0.05-1.85-0.149c-0.5-0.101-0.75-0.233-0.75-0.4c0-0.399,0.867-0.6,2.6-0.6C85.067,80.95,85.95,81.15,85.95,81.55z"
	/>
<path style="fill-rule:evenodd;clip-rule:evenodd;fill:#4C3B2B;" d="M237.35,72.55c0-0.399,0.884-0.6,2.65-0.6
	c1.733,0,2.6,0.2,2.6,0.6c0,0.367-0.866,0.55-2.6,0.55c-0.733,0-1.35-0.05-1.85-0.149C237.616,72.85,237.35,72.717,237.35,72.55z"/>
<path style="fill-rule:evenodd;clip-rule:evenodd;fill:#4C3B2B;" d="M60.3,82.85c0,0.4-0.883,0.601-2.65,0.601S55,83.25,55,82.85
	c0-0.366,0.883-0.55,2.65-0.55c0.733,0,1.35,0.05,1.85,0.15C60.033,82.583,60.3,82.717,60.3,82.85z"/>
<path style="fill-rule:evenodd;clip-rule:evenodd;fill:#4C3B2B;" d="M105.95,67.3c0,0.767-1.117,1.417-3.35,1.95
	c-2.267,0.533-5,0.8-8.2,0.8c-3.2,0-5.933-0.267-8.2-0.8c-2.267-0.533-3.4-1.184-3.4-1.95s1.133-1.417,3.4-1.95
	c2.267-0.533,5-0.8,8.2-0.8c3.2,0,5.934,0.267,8.2,0.8C104.833,65.883,105.95,66.533,105.95,67.3z"/>
<path style="fill-rule:evenodd;clip-rule:evenodd;fill:#644E3D;" d="M289.85,63.9c0,0.934-1.399,1.733-4.199,2.4
	c-2.834,0.667-6.25,1-10.25,1s-7.4-0.333-10.2-1c-2.834-0.667-4.25-1.466-4.25-2.4c0-0.933,1.416-1.717,4.25-2.35
	c2.833-0.667,6.233-1,10.2-1c4,0,7.416,0.333,10.25,1C288.45,62.183,289.85,62.967,289.85,63.9z"/>
<path style="fill-rule:evenodd;clip-rule:evenodd;fill:#644E3D;" d="M289.85,64.55c2.4,0,4.45,0.2,6.15,0.6
	c1.667,0.4,2.5,0.883,2.5,1.45c0,0.566-0.833,1.033-2.5,1.4c-1.7,0.4-3.75,0.6-6.15,0.6c-2.399,0-4.433-0.199-6.1-0.6
	c-1.7-0.367-2.55-0.833-2.55-1.4c0-0.567,0.85-1.05,2.55-1.45C285.417,64.75,287.45,64.55,289.85,64.55z"/>
<path style="fill-rule:evenodd;clip-rule:evenodd;fill:#644E3D;" d="M288.85,70.25c1.267-0.3,2.801-0.45,4.601-0.45
	s3.333,0.15,4.6,0.45c1.267,0.267,1.9,0.616,1.9,1.05s-0.634,0.783-1.9,1.05c-1.267,0.301-2.8,0.45-4.6,0.45
	s-3.334-0.149-4.601-0.45c-1.267-0.267-1.899-0.616-1.899-1.05S287.583,70.517,288.85,70.25z"/>
<path style="fill-rule:evenodd;clip-rule:evenodd;fill:#644E3D;" d="M305.9,68.95c0,0.233-0.334,0.416-1,0.55
	c-0.634,0.167-1.434,0.25-2.4,0.25c-0.934,0-1.717-0.083-2.35-0.25c-0.667-0.134-1-0.316-1-0.55s0.333-0.417,1-0.55
	c0.633-0.167,1.416-0.25,2.35-0.25c0.967,0,1.767,0.083,2.4,0.25C305.566,68.533,305.9,68.717,305.9,68.95z"/>
<path style="fill-rule:evenodd;clip-rule:evenodd;fill:#4C3B2B;" d="M282.25,71.75c0,0.233-0.333,0.417-1,0.55
	c-0.667,0.167-1.467,0.25-2.4,0.25c-0.933,0-1.733-0.083-2.399-0.25c-0.667-0.133-1-0.316-1-0.55s0.333-0.417,1-0.55
	c0.666-0.167,1.467-0.25,2.399-0.25c0.934,0,1.733,0.083,2.4,0.25C281.917,71.333,282.25,71.517,282.25,71.75z"/>
<path style="fill-rule:evenodd;clip-rule:evenodd;fill:#4C3B2B;" d="M295,76.3c0,0.4-0.667,0.75-2,1.05
	c-1.333,0.267-2.934,0.4-4.8,0.4c-1.867,0-3.467-0.134-4.8-0.4c-1.334-0.3-2-0.649-2-1.05c0-0.434,0.666-0.783,2-1.05
	c1.3-0.3,2.899-0.45,4.8-0.45c1.899,0,3.5,0.15,4.8,0.45C294.333,75.517,295,75.866,295,76.3z"/>
<path style="fill-rule:evenodd;clip-rule:evenodd;fill:#4C3B2B;" d="M169.65,67.3c0,0.4-0.667,0.75-2,1.05
	c-1.334,0.267-2.934,0.4-4.801,0.4c-1.866,0-3.466-0.134-4.8-0.4c-1.333-0.3-2-0.649-2-1.05c0-0.433,0.667-0.783,2-1.05
	c1.3-0.3,2.9-0.45,4.8-0.45c1.9,0,3.5,0.15,4.801,0.45C168.983,66.517,169.65,66.867,169.65,67.3z"/>
<path style="fill-rule:evenodd;clip-rule:evenodd;fill:#4C3B2B;" d="M276.6,77.15c0,0.366-0.883,0.55-2.649,0.55
	c-0.733,0-1.351-0.05-1.851-0.15c-0.5-0.1-0.75-0.233-0.75-0.399c0-0.4,0.867-0.601,2.601-0.601
	C275.717,76.55,276.6,76.75,276.6,77.15z"/>
<path style="fill-rule:evenodd;clip-rule:evenodd;fill:#4C3B2B;" d="M237.3,73.5c0,0.3-0.383,0.45-1.149,0.45
	c-0.801,0-1.2-0.15-1.2-0.45s0.399-0.45,1.2-0.45C236.917,73.05,237.3,73.2,237.3,73.5z"/>
<path style="fill-rule:evenodd;clip-rule:evenodd;fill:#4C3B2B;" d="M296.5,72.7c0-0.3,0.384-0.45,1.15-0.45s1.149,0.15,1.149,0.45
	s-0.383,0.45-1.149,0.45S296.5,73,296.5,72.7z"/>
<path style="fill-rule:evenodd;clip-rule:evenodd;fill:#4C3B2B;" d="M142.6,73.15c0,0.366-0.883,0.55-2.65,0.55
	c-1.733,0-2.6-0.184-2.6-0.55c0-0.4,0.867-0.601,2.6-0.601C141.717,72.55,142.6,72.75,142.6,73.15z"/>
<path style="fill-rule:evenodd;clip-rule:evenodd;fill:#4C3B2B;" d="M135.25,74.7c0,0.366-0.867,0.55-2.6,0.55
	c-1.767,0-2.65-0.184-2.65-0.55c0-0.367,0.883-0.55,2.65-0.55c0.733,0,1.35,0.05,1.85,0.149C135,74.434,135.25,74.566,135.25,74.7z"
	/>
<path style="fill-rule:evenodd;clip-rule:evenodd;fill:#4C3B2B;" d="M290.3,62.3c0,0.767-1.133,1.417-3.399,1.95s-5,0.8-8.2,0.8
	c-3.167,0-5.884-0.267-8.15-0.8s-3.399-1.183-3.399-1.95c0-0.767,1.133-1.417,3.399-1.95c2.233-0.533,4.95-0.8,8.15-0.8
	c3.233,0,5.967,0.267,8.2,0.8C289.167,60.883,290.3,61.533,290.3,62.3z"/>
<path style="fill-rule:evenodd;clip-rule:evenodd;fill:#644E3D;" d="M159.5,68.6c0,0.934-1.4,1.717-4.2,2.351
	c-2.833,0.666-6.233,1-10.2,1c-4,0-7.4-0.334-10.2-1c-2.833-0.634-4.25-1.417-4.25-2.351c0-0.933,1.417-1.733,4.25-2.399
	c2.8-0.667,6.2-1,10.2-1s7.4,0.333,10.2,1C158.1,66.867,159.5,67.667,159.5,68.6z"/>
<path style="fill-rule:evenodd;clip-rule:evenodd;fill:#4C3B2B;" d="M159.95,66.5c0,0.633-1.467,1.167-4.4,1.6
	c-2.933,0.467-6.466,0.7-10.6,0.7c-4.1,0-7.633-0.233-10.6-0.7c-2.934-0.433-4.4-0.966-4.4-1.6s1.466-1.183,4.4-1.65
	c2.9-0.434,6.433-0.65,10.6-0.65c4.167,0,7.7,0.216,10.6,0.65C158.483,65.317,159.95,65.867,159.95,66.5z"/>
<path style="fill-rule:evenodd;clip-rule:evenodd;fill:#644E3D;" d="M195.35,66.6c0-0.934,1.417-1.733,4.25-2.4
	c2.801-0.667,6.2-1,10.2-1s7.4,0.333,10.2,1c2.833,0.667,4.25,1.466,4.25,2.4c0,0.933-1.417,1.716-4.25,2.35
	c-2.833,0.666-6.233,1-10.2,1c-4,0-7.399-0.334-10.2-1C196.767,68.316,195.35,67.533,195.35,66.6z"/>
<path style="fill-rule:evenodd;clip-rule:evenodd;fill:#644E3D;" d="M227.7,63.25c0-0.567,0.85-1.05,2.55-1.45
	c1.667-0.4,3.7-0.6,6.1-0.6c2.4,0,4.45,0.2,6.15,0.6c1.667,0.4,2.5,0.883,2.5,1.45s-0.833,1.05-2.5,1.45
	c-1.733,0.4-3.783,0.6-6.15,0.6c-2.366,0-4.399-0.2-6.1-0.6C228.55,64.3,227.7,63.817,227.7,63.25z"/>
<path style="fill-rule:evenodd;clip-rule:evenodd;fill:#644E3D;" d="M226.25,67.95c0-0.4,0.634-0.75,1.9-1.05
	c1.267-0.3,2.8-0.45,4.6-0.45s3.333,0.15,4.6,0.45c1.267,0.3,1.9,0.65,1.9,1.05c0,0.434-0.634,0.8-1.9,1.1s-2.8,0.45-4.6,0.45
	s-3.333-0.15-4.6-0.45S226.25,68.384,226.25,67.95z"/>
<path style="fill-rule:evenodd;clip-rule:evenodd;fill:#644E3D;" d="M171.05,63.85c1.267-0.3,2.8-0.45,4.601-0.45
	c1.8,0,3.333,0.15,4.6,0.45c1.267,0.3,1.9,0.667,1.9,1.1c0,0.433-0.634,0.783-1.9,1.05c-1.267,0.3-2.8,0.45-4.6,0.45
	c-1.801,0-3.334-0.15-4.601-0.45c-1.267-0.267-1.899-0.617-1.899-1.05C169.15,64.517,169.783,64.15,171.05,63.85z"/>
<path style="fill-rule:evenodd;clip-rule:evenodd;fill:#644E3D;" d="M220.3,65.6c0-0.233,0.334-0.417,1-0.55
	c0.634-0.167,1.434-0.25,2.4-0.25c0.934,0,1.733,0.083,2.399,0.25c0.667,0.133,1,0.317,1,0.55s-0.333,0.417-1,0.55
	c-0.666,0.167-1.466,0.25-2.399,0.25c-0.967,0-1.767-0.083-2.4-0.25C220.634,66.017,220.3,65.833,220.3,65.6z"/>
<path style="fill-rule:evenodd;clip-rule:evenodd;fill:#4C3B2B;" d="M244,68.4c0-0.2,0.333-0.384,1-0.55
	c0.667-0.167,1.45-0.25,2.35-0.25c0.934,0,1.733,0.083,2.4,0.25c0.667,0.167,1,0.35,1,0.55c0,0.233-0.333,0.416-1,0.55
	c-0.634,0.166-1.434,0.25-2.4,0.25c-0.933,0-1.716-0.084-2.35-0.25C244.333,68.816,244,68.634,244,68.4z"/>
<path style="fill-rule:evenodd;clip-rule:evenodd;fill:#4C3B2B;" d="M255.5,70.25c1.3,0.267,1.95,0.616,1.95,1.05
	c0,0.4-0.65,0.75-1.95,1.05c-1.333,0.267-2.95,0.4-4.85,0.4c-1.867,0-3.467-0.134-4.801-0.4c-1.3-0.3-1.949-0.649-1.949-1.05
	c0-0.434,0.649-0.783,1.949-1.05c1.334-0.3,2.934-0.45,4.801-0.45C252.55,69.8,254.167,69.95,255.5,70.25z"/>
<path style="fill-rule:evenodd;clip-rule:evenodd;fill:#4C3B2B;" d="M255.95,73.2c0-0.367,0.866-0.55,2.6-0.55
	c0.733,0,1.351,0.05,1.851,0.149c0.533,0.134,0.8,0.267,0.8,0.4c0,0.366-0.884,0.55-2.65,0.55c-0.733,0-1.35-0.05-1.85-0.15
	C256.2,73.5,255.95,73.366,255.95,73.2z"/>
<path style="fill-rule:evenodd;clip-rule:evenodd;fill:#4C3B2B;" d="M194.9,64.95c0-0.767,1.133-1.417,3.399-1.95s5-0.8,8.2-0.8
	s5.934,0.267,8.2,0.8c2.233,0.533,3.35,1.183,3.35,1.95c0,0.767-1.116,1.417-3.35,1.95c-2.267,0.533-5,0.8-8.2,0.8
	s-5.934-0.267-8.2-0.8S194.9,65.717,194.9,64.95z"/>
</svg>
