<?xml version="1.0" encoding="iso-8859-1"?>
<!-- Generator: Adobe Illustrator 15.1.0, SVG Export Plug-In . SVG Version: 6.00 Build 0)  -->
<!DOCTYPE svg PUBLIC "-//W3C//DTD SVG 1.1//EN" "http://www.w3.org/Graphics/SVG/1.1/DTD/svg11.dtd">
<svg version="1.1" id="Layer_1" xmlns="http://www.w3.org/2000/svg" xmlns:xlink="http://www.w3.org/1999/xlink" x="0px" y="0px"
	 width="310px" height="135.5px" viewBox="0 0 310 135.5" style="enable-background:new 0 0 310 135.5;" xml:space="preserve">
<symbol  id="Untitled-1.ai_x2F_Layer_1_x2F__x3C_Clip_Group_0_x3E_" viewBox="0 -103 303.35 103">
	<g id="Layer_1_62_">
	</g>
	<g>
		<defs>
			<path id="SVGID_1_" d="M296.3-13.3c2.434,5.566,4.784,10,7.05,13.3L0-6.7c2.1-2.9,4.35-6.816,6.75-11.75
				C11.517-28.317,14.6-38.4,16-48.7c1.567-11.433,1.083-22.783-1.45-34.05c0.967,0.233,1.817,0.017,2.55-0.65
				c0.367-0.333,0.633-0.7,0.8-1.1l0.9,0.5c0.7,0.267,1.3,0.15,1.8-0.35c0.767-0.767,1.2-1.367,1.3-1.8l0.7,0.1
				c0.5,0,0.883-0.2,1.15-0.6c0.433-0.667,0.6-1.4,0.5-2.2c0.3,0.267,0.683,0.55,1.15,0.85c0.867,0.567,1.65,0.85,2.35,0.85
				s1.383-0.333,2.05-1c0.333-0.333,0.6-0.667,0.8-1l0.45,0.2c0.434,0.1,0.883,0.083,1.35-0.05l1.2-0.35L41.25-89
				c0.9,0,2.45,0.333,4.65,1c1.667,0.567,2.9,1.117,3.7,1.65c0.533,0.4,1.133,0.567,1.8,0.5c0.6-0.066,1-0.283,1.2-0.65l0.3-0.65
				c0.167,0.2,0.383,0.383,0.65,0.55c0.567,0.3,1.133,0.383,1.7,0.25l1.35-0.3l1.25,0.2c0.933,0.133,1.683,0.167,2.25,0.1l1.3-0.15
				l1.75-0.55c0.2,0.033,0.517,0.05,0.95,0.05c0.333,0.133,0.55,0.25,0.65,0.35c1.533,1.533,2.917,2.25,4.15,2.15
				s2.067-0.55,2.5-1.35c0.2,0.267,0.483,0.533,0.85,0.8c0.7,0.533,1.417,0.767,2.15,0.7c0.9-0.066,1.717-0.233,2.45-0.5
				s1.15-0.533,1.25-0.8l0.15-0.5l1.6-0.1c1.133-0.133,1.883-0.267,2.25-0.4L82.9-87h1.8c1.5-0.067,2.9-0.233,4.2-0.5l11.6-1.75
				c0.133,0.067,0.333,0.25,0.6,0.55c0.167,0.233,0.5,0.35,1,0.35h1.3l0.35,0.65c0.267,0.434,0.55,0.717,0.85,0.85
				c0.433,0.233,0.933,0.35,1.5,0.35c0.7,0,1.2-0.217,1.5-0.65l0.65-1l0.4,0.55c0.4,0.3,0.883,0.383,1.45,0.25l1.3-0.3l2.35,0.3
				c0.333,0,0.833-0.1,1.5-0.3l0.85,0.3c0.633,0.233,1.133,0.35,1.5,0.35c0.533,0,1.25-0.217,2.15-0.65h0.05
				c1.6,0.233,3.417,0.4,5.45,0.5L131.4-87c2.767,0.167,4.333,0.333,4.7,0.5c0.667,0.333,1.6,0.45,2.8,0.35
				c-0.033,0.233,0,0.5,0.1,0.8c0.167,0.533,0.533,0.867,1.1,1l1.3,0.35l0.85,0.5c0.733,0.267,1.517,0.217,2.35-0.15l2-0.85
				l0.85,0.15c0.733,0.133,1.45,0.2,2.15,0.2h1.65l0.85,0.5c0.7,0.3,1.467,0.35,2.3,0.15c1.333-0.333,2-0.783,2-1.35l0.8,0.55
				c0.633,0.333,1.267,0.433,1.9,0.3l1.5-0.35l0.85,0.05c0.6-0.034,1.033-0.15,1.3-0.35l0.65-0.5l0.25,0.6
				c0.3,0.466,0.717,0.767,1.25,0.9l2.3,0.6c0.733,0.1,1.3-0.05,1.7-0.45l1-1l0.8,0.45c0.633,0.167,1.15-0.034,1.55-0.6l1-1.35
				l0.8,0.4c0.667,0.233,1.35,0.217,2.05-0.05l3.15-1.35l1.65-0.15l0.4,0.65c0.367,0.4,0.8,0.567,1.3,0.5c0.767-0.1,1.2-0.433,1.3-1
				l0.55,0.8c0.566,0.567,1.333,0.85,2.3,0.85c1.567,0,2.567-0.267,3-0.8l0.8,0.35c0.633,0.233,1.15,0.283,1.55,0.15
				c0.566-0.2,0.95-0.583,1.15-1.15c0,0.3,1.117,0.4,3.35,0.3l9.25-0.1c3.467,0.1,5.983,0.25,7.55,0.45c2.434,0.3,3.9,0.467,4.4,0.5
				c1.067,0.1,1.934,0.033,2.6-0.2l1.5-0.5l1.1,0.45c0.9,0.3,1.767,0.383,2.6,0.25l2-0.35l1.1,0.3c0.833,0.2,1.566,0.267,2.2,0.2
				c1-0.1,1.5-0.55,1.5-1.35l0.65,0.45c0.6,0.233,1.284,0.25,2.05,0.05c1.2-0.333,2.033-0.6,2.5-0.8l0.95,0.25
				c0.8,0.2,1.65,0.333,2.55,0.4s1.55-0.05,1.95-0.35c0.2-0.167,0.317-0.333,0.35-0.5l0.8,0.4c0.667,0.2,1.233,0.233,1.7,0.1
				l1.2-0.3l0.2,0.6c0.233,0.4,0.667,0.633,1.3,0.7c1,0.133,1.667-0.083,2-0.65l0.95,0.9c0.733,0.567,1.417,0.717,2.05,0.45
				c1-0.467,1.5-1.133,1.5-2l0.75,0.2c0.533,0.067,0.95,0,1.25-0.2l0.65-0.5l0.65,0.2c0.533,0.067,1.15,0,1.85-0.2l1.65-0.5
				l4.5,0.45c3.233,0.434,5.467,1,6.7,1.7c0.2,0.1,1.333,0.783,3.4,2.05c0.833,0.534,1.417,0.733,1.75,0.6l0.85-0.3
				c0,0.233,0.05,0.517,0.15,0.85c0.2,0.633,0.583,1.117,1.15,1.45c0.567,0.367,1.1,0.417,1.6,0.15c0.267-0.1,0.467-0.25,0.6-0.45
				c-0.1,0.267-0.133,0.566-0.1,0.9c0.033,0.633,0.333,1.05,0.9,1.25c0.9,0.333,1.684,0.167,2.35-0.5l0.75,0.55
				c0.533,0.4,0.9,0.6,1.1,0.6c0.333,0,0.75,0.2,1.25,0.6c-1.2,9.5-1.483,19.8-0.85,30.9C288.7-35.817,291.467-24.467,296.3-13.3z"
				/>
		</defs>
		<clipPath id="SVGID_2_">
			<use xlink:href="#SVGID_1_"  style="overflow:visible;"/>
		</clipPath>
		<g id="Layer_3_1_" style="clip-path:url(#SVGID_2_);">
			<path style="fill-rule:evenodd;clip-rule:evenodd;fill:#4C3B2B;" d="M288-47.35c-0.7-11.533-0.35-22.316,1.05-32.35
				c0.7-5.033,1.467-8.917,2.3-11.65H12c1.233,3,2.317,7.033,3.25,12.1c1.9,10.1,2.15,20.283,0.75,30.55
				c-1.4,10.3-4.483,20.383-9.25,30.25C4.35-13.517,2.1-9.6,0-6.7L303.35,0c-2.267-3.3-4.617-7.733-7.05-13.3
				C291.467-24.467,288.7-35.817,288-47.35z"/>
			
				<use xlink:href="#Untitled-1.ai_x2F_Layer_1_x2F__x3C_Group_x3E__x5F_2"  width="274.85" height="46.902" y="-46.902" transform="matrix(1 0 0 1 15 -41.1499)" style="overflow:visible;opacity:0.3008;enable-background:new    ;"/>
			
				<use xlink:href="#Untitled-1.ai_x2F_Layer_1_x2F__x3C_Group_x3E__x5F_1"  width="278.75" height="68.9" y="-68.9" transform="matrix(1 0 0 1 12 -22.4502)" style="overflow:visible;opacity:0.3008;enable-background:new    ;"/>
			<g>
				
					<use xlink:href="#Untitled-1.ai_x2F_Layer_1_x2F__x3C_Path_x3E__x5F_2"  width="63.3" height="85.15" y="-85.15" transform="matrix(1 0 0 1 36.9502 -17.8501)" style="overflow:visible;opacity:0.5;enable-background:new    ;"/>
				
					<use xlink:href="#Untitled-1.ai_x2F_Layer_1_x2F__x3C_Path_x3E__x5F_1"  width="156.75" height="92.75" y="-92.75" transform="matrix(1 0 0 1 100.8999 -6.1499)" style="overflow:visible;opacity:0.1992;enable-background:new    ;"/>
				
					<use xlink:href="#Untitled-1.ai_x2F_Layer_1_x2F__x3C_Path_x3E_"  width="50.3" height="92.75" y="-92.75" transform="matrix(1 0 0 1 134.7998 -2.6499)" style="overflow:visible;opacity:0.3008;enable-background:new    ;"/>
			</g>
		</g>
	</g>
	<g id="Layer_4_1_">
	</g>
</symbol>
<symbol  id="Untitled-1.ai_x2F_Layer_1_x2F__x3C_Compound_Path_x3E_" viewBox="0 -8.661 26.144 8.661">
	<g id="Layer_1_3_">
		<path style="fill-rule:evenodd;clip-rule:evenodd;" d="M15.9-2.6c-0.133,0.4-0.367,0.7-0.7,0.9c-0.333,0.233-0.7,0.284-1.1,0.15
			c-0.4-0.1-0.7-0.333-0.9-0.7c-0.233-0.367-0.284-0.733-0.15-1.1c0.267-0.867,0.4-1.583,0.4-2.15c0.033-0.4,0.183-0.75,0.45-1.05
			C14.2-6.85,14.55-7,14.95-7c0.433,0,0.8,0.15,1.1,0.45c0.3,0.3,0.434,0.65,0.4,1.05C16.45-4.4,16.267-3.433,15.9-2.6z M24.8-3.8
			c2.233-1.4,1.684-2.3-1.65-2.7c-0.7-0.067-1.467,0-2.3,0.2L19.8-6l0.15-0.35c-0.067-0.267-0.55-0.533-1.45-0.8s-1.9-0.35-3-0.25
			l-1.35,0.25c0-0.267-0.117-0.533-0.35-0.8c-0.466-0.533-1.3-0.767-2.5-0.7C9.433-8.517,8.5-8.3,8.5-8
			c0.533,0.333,0.8,0.95,0.8,1.85c0,0.566-0.5,1.017-1.5,1.35L6.3-4.5L0-2.3c2.567,0.367,5.2,0.75,7.9,1.15
			C13.3-0.383,16.383,0,17.15,0c0.8,0,1.917-0.383,3.35-1.15C21.133-1.517,22.567-2.4,24.8-3.8z"/>
	</g>
</symbol>
<symbol  id="Untitled-1.ai_x2F_Layer_1_x2F__x3C_Compound_Path_x3E__x5F_1" viewBox="0 -13.938 106.256 13.938">
	<g id="Layer_1_2_">
		<path style="fill-rule:evenodd;clip-rule:evenodd;" d="M61.75-7.7c0.167,0.6,0.05,1.083-0.35,1.45c-0.5,0.433-1.117,0.8-1.85,1.1
			C59.35-5.05,59.167-5,59-5c-0.5,0.133-0.867,0.233-1.1,0.3c-0.4,0.067-0.783,0.017-1.15-0.15c-0.333-0.2-0.567-0.5-0.7-0.9
			C55.95-6.15,56-6.533,56.2-6.9c0.2-0.4,0.5-0.633,0.9-0.7L58-7.8c0.233-0.3,0.483-0.534,0.75-0.7
			c0.533-0.333,1.183-0.417,1.95-0.25C61.267-8.683,61.617-8.333,61.75-7.7z M105.65-8.5c0.667-1.1,0.783-1.717,0.35-1.85
			c-0.067,0-0.7,0.017-1.9,0.05c-1.067,0.033-1.934-0.083-2.6-0.35c-0.7-0.267-1.517-0.35-2.45-0.25l-1.2,0.25l0.45-0.65
			c0.067-0.5-0.533-0.85-1.8-1.05c-1.233-0.2-2.267-0.267-3.1-0.2l-0.9,0.2c-0.433-0.767-1.217-1.15-2.35-1.15
			c-0.7,0-1.45,0.167-2.25,0.5l-1.05,0.5L88-12.15c0.767,0.233,0.933,1,0.5,2.3L85.85-10c-8.333,1.1-13,1.767-14,2l-5,0.85L66.6-8.3
			c-0.3-0.767-0.833-1.217-1.6-1.35s-1.717-0.067-2.85,0.2L60.65-9c0.133-0.2,0.133-0.4,0-0.6c-0.233-0.367-0.95-0.55-2.15-0.55
			h-0.9c-2.5,1.667-3.883,2.566-4.15,2.7c-1.667,0.733-3.117,0.567-4.35-0.5c-0.467-0.4-0.617-0.833-0.45-1.3
			c-0.733,0.067-1.333,0.083-1.8,0.05L46.8-9c-0.233,1.133-0.75,1.95-1.55,2.45C44.45-6.017,43.8-6.167,43.3-7
			c-0.5-0.867-0.35-1.567,0.45-2.1c-0.067,0.033-0.083,0-0.05-0.1c0.066-0.1,0.1-0.167,0.1-0.2l0.05-0.15l-1.7,0.05
			c-0.2-0.1-0.533-0.2-1-0.3c0.467,0.433,0.6,0.966,0.4,1.6c-0.2,0.7-0.667,1.05-1.4,1.05c-0.8,0-1.267-0.4-1.4-1.2
			c-0.167-0.767,0.067-1.316,0.7-1.65L35.7-9.95c0.1,0.034,0.233,0.133,0.4,0.3c0.7,0.633,0.816,1.35,0.35,2.15
			c-0.167,0.3-0.483,0.533-0.95,0.7h-0.15c-0.434,0.3-0.85,0.383-1.25,0.25c-0.4-0.1-0.7-0.333-0.9-0.7
			C32.967-7.617,32.917-8,33.05-8.4l0.05-0.1l0.05-0.4c0.067-0.333,0.217-0.6,0.45-0.8c0.1-0.133,0.233-0.233,0.4-0.3l-3.35-0.35
			c-2.2,0.667-3.583,1-4.15,1c-0.367,0-0.883-0.2-1.55-0.6L24-10.5l1.2-0.2c0.6-0.233,0.483-0.667-0.35-1.3
			c-0.833-0.633-2.117-0.967-3.85-1l-2.35,0.15l-1.5-0.8c-0.633-0.367-1.45-0.383-2.45-0.05l-1.35,0.55
			c0.333,0.433,0.717,1.1,1.15,2c0.267,0.566,0.233,1.133-0.1,1.7c-0.533,0.667-0.95,1.2-1.25,1.6c-0.633,0.967-1.05,1.467-1.25,1.5
			c-0.467,0.167-0.816-0.667-1.05-2.5c-0.2-1.733-0.883-2.7-2.05-2.9L7.15-11.5c0.467,0.1,1.083,0.55,1.85,1.35
			C9.467-9.683,9.417-8.9,8.85-7.8l-1,1.45l-0.2-1.3c-0.1-0.9-0.933-1.467-2.5-1.7L6-7.85c0.5,0.934,0.483,1.8-0.05,2.6
			C5.417-4.383,4.65-4.633,3.65-6C2.517-7.6,1.3-7.75,0-6.45c0.533,0.1,0.917,0.2,1.15,0.3c1.033,0.367,1.483,1,1.35,1.9L2-3l3.65,3
			c40.3-3.167,68.667-5.683,85.1-7.55c-0.3-0.467-0.317-0.983-0.05-1.55c0.566-1.1,1.2-2.033,1.9-2.8
			c0.267-0.267,0.617-0.4,1.05-0.4c0.434,0,0.783,0.133,1.05,0.4c0.3,0.3,0.45,0.65,0.45,1.05c0,0.434-0.15,0.8-0.45,1.1
			C94.433-9.483,94.2-9.2,94-8.9l-0.55,1.05c4.933-0.6,7.45-1.033,7.55-1.3c0.2-0.7,1.033-0.8,2.5-0.3
			C104.233-9.217,104.95-8.9,105.65-8.5z"/>
	</g>
</symbol>
<symbol  id="Untitled-1.ai_x2F_Layer_1_x2F__x3C_Group_x3E_" viewBox="0 -19.4 95.95 19.4">
	<g id="Layer_1_69_">
		<g>
			
				<use xlink:href="#Untitled-1.ai_x2F_Layer_1_x2F__x3C_Path_x3E__x5F_13_x5F_4"  width="17.05" height="8.05" y="-8.05" transform="matrix(1 0 0 1 28.1001 -4.6499)" style="overflow:visible;opacity:0.6992;enable-background:new    ;"/>
			<path style="fill-rule:evenodd;clip-rule:evenodd;fill:#51422D;" d="M53.5-2.65c0-0.733-0.517-1.367-1.55-1.9
				c-1.067-0.534-2.333-0.8-3.8-0.8s-2.733,0.267-3.8,0.8c-1.033,0.533-1.55,1.167-1.55,1.9s0.517,1.35,1.55,1.85
				c1.066,0.533,2.333,0.8,3.8,0.8s2.733-0.267,3.8-0.8C52.983-1.3,53.5-1.917,53.5-2.65z"/>
			<path style="fill-rule:evenodd;clip-rule:evenodd;fill:#51422D;" d="M52.5-9.5c0-0.333-0.233-0.617-0.7-0.85
				c-0.466-0.233-1.017-0.35-1.65-0.35s-1.183,0.117-1.65,0.35s-0.7,0.517-0.7,0.85s0.233,0.6,0.7,0.8
				c0.433,0.233,0.983,0.35,1.65,0.35c0.667,0,1.217-0.117,1.65-0.35C52.267-8.9,52.5-9.167,52.5-9.5z"/>
			<path style="fill-rule:evenodd;clip-rule:evenodd;fill:#51422D;" d="M62.85-16.2c0-0.867-0.817-1.617-2.45-2.25
				s-3.6-0.95-5.9-0.95s-4.267,0.316-5.9,0.95s-2.45,1.383-2.45,2.25s0.817,1.617,2.45,2.25c1.633,0.6,3.6,0.9,5.9,0.9
				s4.267-0.3,5.9-0.9C62.033-14.583,62.85-15.333,62.85-16.2z"/>
			
				<use xlink:href="#Untitled-1.ai_x2F_Layer_1_x2F__x3C_Path_x3E__x5F_9_x5F_4"  width="12.05" height="5.35" y="-5.35" transform="matrix(1 0 0 1 61.8501 -8.3501)" style="overflow:visible;opacity:0.6992;enable-background:new    ;"/>
			<path style="fill-rule:evenodd;clip-rule:evenodd;fill:#51422D;" d="M80.5-3.95c0.933-0.367,1.4-0.833,1.4-1.4
				c0-0.566-0.467-1.033-1.4-1.4c-0.967-0.4-2.117-0.6-3.45-0.6c-1.333,0-2.466,0.2-3.4,0.6c-0.967,0.367-1.45,0.833-1.45,1.4
				c0,0.533,0.483,1,1.45,1.4c0.934,0.4,2.067,0.6,3.4,0.6C78.383-3.35,79.533-3.55,80.5-3.95z"/>
			<path style="fill-rule:evenodd;clip-rule:evenodd;fill:#51422D;" d="M78.9-10c0-0.3-0.183-0.55-0.55-0.75
				c-0.333-0.2-0.767-0.3-1.3-0.3c-0.5,0-0.917,0.1-1.25,0.3c-0.367,0.2-0.55,0.45-0.55,0.75c0,0.267,0.183,0.5,0.55,0.7
				C76.133-9.1,76.55-9,77.05-9c0.534,0,0.967-0.1,1.3-0.3C78.717-9.5,78.9-9.733,78.9-10z"/>
			
				<use xlink:href="#Untitled-1.ai_x2F_Layer_1_x2F__x3C_Path_x3E__x5F_6_x5F_4"  width="4.35" height="2" y="-2" transform="matrix(1 0 0 1 64.2002 -0.3501)" style="overflow:visible;opacity:0.5;enable-background:new    ;"/>
			
				<use xlink:href="#Untitled-1.ai_x2F_Layer_1_x2F__x3C_Path_x3E__x5F_5_x5F_5"  width="5.35" height="2" y="-2" transform="matrix(1 0 0 1 90.6001 -4.3501)" style="overflow:visible;opacity:0.5;enable-background:new    ;"/>
			
				<use xlink:href="#Untitled-1.ai_x2F_Layer_1_x2F__x3C_Path_x3E__x5F_4_x5F_5"  width="8.35" height="3.7" y="-3.7" transform="matrix(1 0 0 1 17.75 -14.3501)" style="overflow:visible;opacity:0.5;enable-background:new    ;"/>
			<path style="fill-rule:evenodd;clip-rule:evenodd;fill:#51422D;" d="M27.1-10.7c0-0.267-0.2-0.5-0.6-0.7
				c-0.433-0.2-0.95-0.3-1.55-0.3c-0.6,0-1.117,0.1-1.55,0.3c-0.433,0.2-0.65,0.433-0.65,0.7c0,0.267,0.217,0.5,0.65,0.7
				c0.434,0.2,0.95,0.3,1.55,0.3c0.6,0,1.117-0.1,1.55-0.3C26.9-10.2,27.1-10.433,27.1-10.7z"/>
			<path style="fill-rule:evenodd;clip-rule:evenodd;fill:#51422D;" d="M4.35-16.2c0-0.333-0.2-0.617-0.6-0.85
				C3.317-17.283,2.8-17.4,2.2-17.4c-0.6,0-1.117,0.117-1.55,0.35C0.217-16.817,0-16.533,0-16.2c0,0.333,0.217,0.6,0.65,0.8
				c0.434,0.233,0.95,0.35,1.55,0.35c0.6,0,1.117-0.117,1.55-0.35C4.15-15.6,4.35-15.867,4.35-16.2z"/>
			
				<use xlink:href="#Untitled-1.ai_x2F_Layer_1_x2F__x3C_Path_x3E__x5F_1_x5F_6"  width="10" height="4.35" y="-4.35" transform="matrix(1 0 0 1 4.0498 -9)" style="overflow:visible;opacity:0.6992;enable-background:new    ;"/>
			
				<use xlink:href="#Untitled-1.ai_x2F_Layer_1_x2F__x3C_Path_x3E__x5F_15"  width="4.35" height="2.2" y="-2.2" transform="matrix(1 0 0 1 81.6001 -7.75)" style="overflow:visible;opacity:0.6992;enable-background:new    ;"/>
		</g>
	</g>
</symbol>
<symbol  id="Untitled-1.ai_x2F_Layer_1_x2F__x3C_Group_x3E__x5F_1" viewBox="0 -68.9 278.75 68.9">
	<g id="Layer_1_9_">
		<g>
			<path style="fill-rule:evenodd;clip-rule:evenodd;fill:#4D3A1E;" d="M265.1-11.25c4.467,1.4,8.783,1.75,12.95,1.05
				c-1.1-5.033-1.783-9.933-2.05-14.7l-0.05-1.2l-1.7-0.6c-8.967-3.566-15.233-5.783-18.8-6.65c-7.333-1.767-15.784-2.267-25.35-1.5
				c-8,0.633-17.283,2.6-27.85,5.9c-10.5,3.267-17.3,5.017-20.4,5.25c-10.1,0.733-17,1.383-20.7,1.95
				c-9.2,1.367-17.85,3.717-25.95,7.05c-4.8,1.967-8.6,3.284-11.4,3.95c-3,0.667-6.2,0.917-9.6,0.75
				c-2.534-0.133-6.833-0.667-12.9-1.6c-9.2-1.4-16.367-2.433-21.5-3.1c-13.133-1.667-27.95-2.833-44.45-3.5
				C17.717-18.867,6.9-19.417,2.9-19.85C2.167-16.217,1.2-12.567,0-8.9l0.7,0.2c7.3,2.167,19.5,3.5,36.6,4
				c22.6,0.633,34.55,1.017,35.85,1.15c3,0.3,7.1,0.867,12.3,1.7c5.9,0.967,9.966,1.583,12.2,1.85l20.2-0.3
				c2.167-0.434,4.333-1.083,6.5-1.95c5.733-2.267,11.816-3.35,18.25-3.25c9.2,0.167,17.967-0.467,26.3-1.9
				c9.167-1.6,20.3-1.6,33.4,0c5.534,0.667,9.367,0.983,11.5,0.95c3.534-0.066,6.333-0.816,8.4-2.25c4.633-3.233,10.9-5.1,18.8-5.6
				C249.033-14.833,257.067-13.817,265.1-11.25z"/>
			<path style="fill-rule:evenodd;clip-rule:evenodd;fill:#4D3A1E;" d="M255.05-49.1c6.733-0.633,13.733-0.2,21,1.3
				c0.567-7.5,1.467-13.8,2.7-18.9c-2.5-0.833-5.383-1.566-8.65-2.2h-34.3c-5.4,0.833-12.833,2.55-22.3,5.15
				c-8,2.167-13.75,3.333-17.25,3.5c-10.833,0.467-18.133,0.933-21.9,1.4c-9.833,1.133-19.05,3.25-27.65,6.35
				c-8.867,3.2-16.3,4.567-22.3,4.1c-2.7-0.2-7.267-0.85-13.7-1.95c-9.534-1.6-17.1-2.8-22.7-3.6
				c-14.367-2.1-30.917-3.716-49.65-4.85C19.983-59.9,8.167-60.85,2.9-61.65L2.2-61.8c0.933,3.9,1.617,7.833,2.05,11.8
				c7.733,2.3,20.617,3.933,38.65,4.9c23.8,1.233,36.417,1.934,37.85,2.1c3.1,0.367,7.433,1.05,13,2.05c6,1.034,10.3,1.733,12.9,2.1
				l21.4,0.25c2.5-0.433,4.817-1.017,6.95-1.75c6.1-2.1,12.567-3.017,19.4-2.75c9.7,0.434,19,0.033,27.9-1.2
				c9.733-1.367,21.534-1.083,35.4,0.85c5.867,0.833,9.933,1.267,12.2,1.3c3.767,0.033,6.75-0.65,8.95-2.05
				C242.95-46.8,248.35-48.433,255.05-49.1z"/>
		</g>
	</g>
</symbol>
<symbol  id="Untitled-1.ai_x2F_Layer_1_x2F__x3C_Group_x3E__x5F_1_x5F_0" viewBox="0 -19.4 95.95 19.4">
	<g id="Layer_1_68_">
		<g>
			
				<use xlink:href="#Untitled-1.ai_x2F_Layer_1_x2F__x3C_Path_x3E__x5F_13_x5F_3"  width="17.05" height="8" y="-8" transform="matrix(1 0 0 1 28.1001 -4.7002)" style="overflow:visible;opacity:0.6992;enable-background:new    ;"/>
			<path style="fill-rule:evenodd;clip-rule:evenodd;fill:#51422D;" d="M53.5-2.7c0-0.733-0.517-1.35-1.55-1.85
				c-1.067-0.534-2.333-0.8-3.8-0.8s-2.733,0.267-3.8,0.8c-1.033,0.5-1.55,1.117-1.55,1.85c0,0.733,0.517,1.367,1.55,1.9
				c1.066,0.533,2.333,0.8,3.8,0.8s2.733-0.267,3.8-0.8C52.983-1.333,53.5-1.967,53.5-2.7z"/>
			<path style="fill-rule:evenodd;clip-rule:evenodd;fill:#51422D;" d="M52.5-9.55c0-0.333-0.233-0.6-0.7-0.8
				c-0.433-0.233-0.983-0.35-1.65-0.35c-0.667,0-1.217,0.117-1.65,0.35c-0.467,0.2-0.7,0.467-0.7,0.8c0,0.333,0.233,0.617,0.7,0.85
				c0.467,0.233,1.017,0.35,1.65,0.35s1.184-0.117,1.65-0.35C52.267-8.933,52.5-9.217,52.5-9.55z"/>
			<path style="fill-rule:evenodd;clip-rule:evenodd;fill:#51422D;" d="M62.85-16.2c0-0.9-0.817-1.667-2.45-2.3
				c-1.633-0.6-3.6-0.9-5.9-0.9s-4.267,0.3-5.9,0.9c-1.633,0.633-2.45,1.4-2.45,2.3c0,0.867,0.817,1.617,2.45,2.25
				c1.633,0.6,3.6,0.9,5.9,0.9s4.267-0.3,5.9-0.9C62.033-14.583,62.85-15.333,62.85-16.2z"/>
			
				<use xlink:href="#Untitled-1.ai_x2F_Layer_1_x2F__x3C_Path_x3E__x5F_9_x5F_3"  width="12.05" height="5.35" y="-5.35" transform="matrix(1 0 0 1 61.8501 -8.3501)" style="overflow:visible;opacity:0.6992;enable-background:new    ;"/>
			<path style="fill-rule:evenodd;clip-rule:evenodd;fill:#51422D;" d="M80.5-3.95c0.933-0.367,1.4-0.833,1.4-1.4
				c0-0.566-0.467-1.033-1.4-1.4c-0.967-0.4-2.117-0.6-3.45-0.6c-1.333,0-2.466,0.2-3.4,0.6c-0.967,0.367-1.45,0.833-1.45,1.4
				c0,0.533,0.483,1,1.45,1.4c0.934,0.4,2.067,0.6,3.4,0.6C78.383-3.35,79.533-3.55,80.5-3.95z"/>
			<path style="fill-rule:evenodd;clip-rule:evenodd;fill:#51422D;" d="M78.9-10.05c0-0.267-0.183-0.5-0.55-0.7
				c-0.333-0.2-0.767-0.3-1.3-0.3c-0.5,0-0.917,0.1-1.25,0.3c-0.367,0.2-0.55,0.433-0.55,0.7c0,0.267,0.183,0.5,0.55,0.7
				c0.333,0.2,0.75,0.3,1.25,0.3c0.534,0,0.967-0.1,1.3-0.3C78.717-9.55,78.9-9.783,78.9-10.05z"/>
			
				<use xlink:href="#Untitled-1.ai_x2F_Layer_1_x2F__x3C_Path_x3E__x5F_6_x5F_3"  width="4.35" height="2" y="-2" transform="matrix(1 0 0 1 64.2002 -0.3501)" style="overflow:visible;opacity:0.5;enable-background:new    ;"/>
			
				<use xlink:href="#Untitled-1.ai_x2F_Layer_1_x2F__x3C_Path_x3E__x5F_5_x5F_4"  width="5.35" height="2" y="-2" transform="matrix(1 0 0 1 90.6001 -4.3501)" style="overflow:visible;opacity:0.5;enable-background:new    ;"/>
			
				<use xlink:href="#Untitled-1.ai_x2F_Layer_1_x2F__x3C_Path_x3E__x5F_4_x5F_4"  width="8.35" height="3.65" y="-3.65" transform="matrix(1 0 0 1 17.75 -14.3999)" style="overflow:visible;opacity:0.5;enable-background:new    ;"/>
			<path style="fill-rule:evenodd;clip-rule:evenodd;fill:#51422D;" d="M27.1-10.7c0-0.267-0.217-0.5-0.65-0.7
				c-0.434-0.2-0.95-0.3-1.55-0.3s-1.1,0.1-1.5,0.3c-0.433,0.2-0.65,0.433-0.65,0.7c0,0.267,0.217,0.5,0.65,0.7
				c0.4,0.2,0.9,0.3,1.5,0.3s1.117-0.1,1.55-0.3C26.883-10.2,27.1-10.433,27.1-10.7z"/>
			<path style="fill-rule:evenodd;clip-rule:evenodd;fill:#51422D;" d="M4.35-16.2c0-0.333-0.2-0.617-0.6-0.85
				C3.317-17.283,2.8-17.4,2.2-17.4c-0.6,0-1.117,0.117-1.55,0.35C0.217-16.817,0-16.533,0-16.2c0,0.3,0.217,0.567,0.65,0.8
				c0.434,0.233,0.95,0.35,1.55,0.35c0.6,0,1.117-0.117,1.55-0.35C4.15-15.633,4.35-15.9,4.35-16.2z"/>
			
				<use xlink:href="#Untitled-1.ai_x2F_Layer_1_x2F__x3C_Path_x3E__x5F_1_x5F_5"  width="10" height="4.35" y="-4.35" transform="matrix(1 0 0 1 4.0498 -9.0498)" style="overflow:visible;opacity:0.6992;enable-background:new    ;"/>
			
				<use xlink:href="#Untitled-1.ai_x2F_Layer_1_x2F__x3C_Path_x3E__x5F_14"  width="4.3" height="2.15" y="-2.15" transform="matrix(1 0 0 1 81.6001 -7.7998)" style="overflow:visible;opacity:0.6992;enable-background:new    ;"/>
		</g>
	</g>
</symbol>
<symbol  id="Untitled-1.ai_x2F_Layer_1_x2F__x3C_Group_x3E__x5F_2" viewBox="0 -46.902 274.85 46.902">
	<g id="Layer_1_8_">
		<g>
			<path style="fill-rule:evenodd;clip-rule:evenodd;fill:#30271B;" d="M257.35-5.8c4.2-0.967,7.55-1.434,10.05-1.4
				c1.833,0.034,3.7,0.383,5.6,1.05V-6.2c-0.2-3.167-0.3-6.167-0.3-9c-6.5,0.8-11.267,1.367-14.3,1.7
				c-4.267,0.467-13.833,0.9-28.7,1.3c-15.167,0.434-28.583,1.233-40.25,2.4c-15.733,1.9-25.583,2.933-29.55,3.1
				c-4.867,0.2-10.867-0.833-18-3.1c-6.9-2.233-14.316-3.8-22.25-4.7c-2.767-0.333-8.683-0.767-17.75-1.3
				c-2.7-0.133-8.55-1.3-17.55-3.5c-9.1-2.2-17.083-3.517-23.95-3.95c-8.2-0.5-15.45-0.167-21.75,1
				c-3.066,0.567-8.433,2.05-16.1,4.45c-3.3,1.033-6.833,1.233-10.6,0.6c-6.167-1-9.534-1.517-10.1-1.55
				c-0.033,3.267-0.283,6.7-0.75,10.3l0.7-0.2c3.034-0.767,7.3-0.467,12.8,0.9c5.566,1.4,10.833,1.483,15.8,0.25
				c6.9-1.7,13.8-2.383,20.7-2.05c6.767,0.333,12.133,1.583,16.1,3.75c1.767,0.966,4.167,1.466,7.2,1.5
				c1.833,0.033,5.133-0.167,9.9-0.6c11.267-1.067,20.817-1.067,28.65,0c7.2,0.967,14.733,1.383,22.6,1.25
				C141.083-3.717,146.3-3,151.2-1.5c1.6,0.533,3.466,0.967,5.6,1.3L174.15,0c2.033-0.2,5.517-0.6,10.45-1.2
				c4.5-0.566,8.017-0.95,10.55-1.15c1.2-0.1,11.467-0.367,30.8-0.8C240.617-3.483,251.083-4.367,257.35-5.8z"/>
			<path style="fill-rule:evenodd;clip-rule:evenodd;fill:#30271B;" d="M273.45-33.35c0.367-3.867,0.833-7.3,1.4-10.3
				c-2.333,0.267-5.6,0.683-9.8,1.25c-4.633,0.633-7.833,1.05-9.6,1.25c-4.534,0.533-14.667,1.167-30.4,1.9
				c-16.1,0.767-30.3,1.85-42.6,3.25c-16.633,2.233-27.05,3.467-31.25,3.7c-5.167,0.3-11.55-0.617-19.15-2.75
				c-7.4-2.067-15.316-3.483-23.75-4.25c-3.333-0.3-9.6-0.6-18.8-0.9c-2.767-0.1-8.967-1.15-18.6-3.15
				c-9.667-2.033-18.167-3.183-25.5-3.45c-8.7-0.333-16.367,0.15-23,1.45c-3.2,0.633-8.883,2.217-17.05,4.75
				C3.383-40,1.6-39.65,0-39.55c0.667,3.5,1.15,6.816,1.45,9.95c4,0.533,8.15,0.25,12.45-0.85c7.267-1.833,14.567-2.65,21.9-2.45
				c7.2,0.2,12.917,1.333,17.15,3.4c2.767,1.367,8.816,1.533,18.15,0.5c11.867-1.267,21.983-1.45,30.35-0.55
				c7.633,0.833,15.633,1.1,24,0.8c5.833-0.2,11.367,0.4,16.6,1.8c2,0.534,4,0.934,6,1.2l18.35-0.15
				c2.133-0.233,5.833-0.717,11.1-1.45c4.733-0.633,8.45-1.083,11.15-1.35c1.267-0.133,12.133-0.6,32.6-1.4
				c15.567-0.633,26.65-1.733,33.25-3.3c5.233-1.233,9.283-1.767,12.15-1.6C268.05-34.9,270.317-34.35,273.45-33.35z"/>
		</g>
	</g>
</symbol>
<symbol  id="Untitled-1.ai_x2F_Layer_1_x2F__x3C_Group_x3E__x5F_2_x5F_0" viewBox="0 -9.35 46.45 9.35">
	<g id="Layer_1_67_">
		<g>
			
				<use xlink:href="#Untitled-1.ai_x2F_Layer_1_x2F__x3C_Path_x3E__x5F_13_x5F_2"  width="8.25" height="3.9" y="-3.9" transform="matrix(1 0 0 1 13.6001 -2.25)" style="overflow:visible;opacity:0.6992;enable-background:new    ;"/>
			<path style="fill-rule:evenodd;clip-rule:evenodd;fill:#51422D;" d="M25.9-1.3c0-0.367-0.25-0.667-0.75-0.9
				c-0.5-0.267-1.117-0.4-1.85-0.4c-0.7,0-1.3,0.133-1.8,0.4c-0.5,0.233-0.75,0.534-0.75,0.9S21-0.617,21.5-0.35
				C22-0.117,22.6,0,23.3,0c0.733,0,1.35-0.117,1.85-0.35C25.65-0.617,25.9-0.933,25.9-1.3z"/>
			<path style="fill-rule:evenodd;clip-rule:evenodd;fill:#51422D;" d="M25.4-4.6c0-0.367-0.367-0.55-1.1-0.55
				c-0.767,0-1.15,0.183-1.15,0.55s0.383,0.55,1.15,0.55C25.033-4.05,25.4-4.233,25.4-4.6z"/>
			<path style="fill-rule:evenodd;clip-rule:evenodd;fill:#51422D;" d="M30.45-7.85c0-0.433-0.4-0.783-1.2-1.05
				c-0.8-0.3-1.75-0.45-2.85-0.45c-1.133,0-2.083,0.15-2.85,0.45c-0.8,0.267-1.2,0.617-1.2,1.05c0,0.434,0.4,0.8,1.2,1.1
				c0.767,0.3,1.717,0.45,2.85,0.45c1.1,0,2.05-0.15,2.85-0.45S30.45-7.417,30.45-7.85z"/>
			
				<use xlink:href="#Untitled-1.ai_x2F_Layer_1_x2F__x3C_Path_x3E__x5F_9_x5F_2"  width="5.8" height="2.55" y="-2.55" transform="matrix(1 0 0 1 29.9502 -4.0498)" style="overflow:visible;opacity:0.6992;enable-background:new    ;"/>
			<path style="fill-rule:evenodd;clip-rule:evenodd;fill:#51422D;" d="M39.65-2.6c0-0.267-0.233-0.483-0.7-0.65
				c-0.467-0.2-1.017-0.3-1.65-0.3s-1.183,0.1-1.65,0.3c-0.467,0.167-0.7,0.383-0.7,0.65s0.233,0.5,0.7,0.7
				c0.467,0.2,1.017,0.3,1.65,0.3c0.667,0,1.217-0.1,1.65-0.3C39.417-2.1,39.65-2.333,39.65-2.6z"/>
			<path style="fill-rule:evenodd;clip-rule:evenodd;fill:#51422D;" d="M38.2-4.85c0-0.333-0.3-0.5-0.9-0.5
				c-0.6,0-0.9,0.167-0.9,0.5c0,0.333,0.3,0.5,0.9,0.5C37.9-4.35,38.2-4.517,38.2-4.85z"/>
			
				<use xlink:href="#Untitled-1.ai_x2F_Layer_1_x2F__x3C_Path_x3E__x5F_6_x5F_2"  width="2.1" height="0.95" y="-0.95" transform="matrix(1 0 0 1 31.1001 -0.1499)" style="overflow:visible;opacity:0.5;enable-background:new    ;"/>
			
				<use xlink:href="#Untitled-1.ai_x2F_Layer_1_x2F__x3C_Path_x3E__x5F_5_x5F_3"  width="2.6" height="0.95" y="-0.95" transform="matrix(1 0 0 1 43.8501 -2.1001)" style="overflow:visible;opacity:0.5;enable-background:new    ;"/>
			
				<use xlink:href="#Untitled-1.ai_x2F_Layer_1_x2F__x3C_Path_x3E__x5F_4_x5F_3"  width="4.05" height="1.75" y="-1.75" transform="matrix(1 0 0 1 8.6001 -6.9502)" style="overflow:visible;opacity:0.5;enable-background:new    ;"/>
			<path style="fill-rule:evenodd;clip-rule:evenodd;fill:#51422D;" d="M13.1-5.15c0-0.333-0.35-0.5-1.05-0.5
				c-0.7,0-1.05,0.167-1.05,0.5c0,0.3,0.35,0.45,1.05,0.45C12.75-4.7,13.1-4.85,13.1-5.15z"/>
			<path style="fill-rule:evenodd;clip-rule:evenodd;fill:#51422D;" d="M2.15-7.85c0-0.367-0.367-0.55-1.1-0.55
				C0.35-8.4,0-8.217,0-7.85c0,0.4,0.35,0.6,1.05,0.6C1.783-7.25,2.15-7.45,2.15-7.85z"/>
			
				<use xlink:href="#Untitled-1.ai_x2F_Layer_1_x2F__x3C_Path_x3E__x5F_1_x5F_4"  width="4.85" height="2.1" y="-2.1" transform="matrix(1 0 0 1 1.9502 -4.3501)" style="overflow:visible;opacity:0.6992;enable-background:new    ;"/>
			
				<use xlink:href="#Untitled-1.ai_x2F_Layer_1_x2F__x3C_Path_x3E__x5F_12"  width="2.1" height="1.05" y="-1.05" transform="matrix(1 0 0 1 39.5 -3.75)" style="overflow:visible;opacity:0.6992;enable-background:new    ;"/>
		</g>
	</g>
</symbol>
<symbol  id="Untitled-1.ai_x2F_Layer_1_x2F__x3C_Group_x3E__x5F_3" viewBox="0 -7.2 35.45 7.2">
	<g id="Layer_1_66_">
		<g>
			
				<use xlink:href="#Untitled-1.ai_x2F_Layer_1_x2F__x3C_Path_x3E__x5F_13_x5F_1"  width="6.3" height="2.95" y="-2.95" transform="matrix(1 0 0 1 18.7998 -1.75)" style="overflow:visible;opacity:0.6992;enable-background:new    ;"/>
			<path style="fill-rule:evenodd;clip-rule:evenodd;fill:#51422D;" d="M15.7-1c0,0.267,0.183,0.5,0.55,0.7
				c0.4,0.2,0.867,0.3,1.4,0.3c0.567,0,1.033-0.1,1.4-0.3c0.4-0.2,0.6-0.434,0.6-0.7s-0.2-0.5-0.6-0.7C18.683-1.9,18.217-2,17.65-2
				c-0.533,0-1,0.1-1.4,0.3C15.883-1.5,15.7-1.267,15.7-1z"/>
			<path style="fill-rule:evenodd;clip-rule:evenodd;fill:#51422D;" d="M16.05-3.55c0,0.3,0.284,0.45,0.85,0.45
				c0.6,0,0.9-0.15,0.9-0.45c0-0.267-0.3-0.4-0.9-0.4C16.333-3.95,16.05-3.817,16.05-3.55z"/>
			<path style="fill-rule:evenodd;clip-rule:evenodd;fill:#51422D;" d="M12.25-6c0,0.333,0.3,0.6,0.9,0.8
				c0.567,0.233,1.283,0.35,2.15,0.35s1.6-0.117,2.2-0.35c0.6-0.2,0.9-0.466,0.9-0.8s-0.3-0.617-0.9-0.85
				c-0.633-0.233-1.367-0.35-2.2-0.35c-0.833,0-1.55,0.117-2.15,0.35S12.25-6.333,12.25-6z"/>
			
				<use xlink:href="#Untitled-1.ai_x2F_Layer_1_x2F__x3C_Path_x3E__x5F_9_x5F_1"  width="4.45" height="2" y="-2" transform="matrix(1 0 0 1 8.1499 -3.1001)" style="overflow:visible;opacity:0.6992;enable-background:new    ;"/>
			<path style="fill-rule:evenodd;clip-rule:evenodd;fill:#51422D;" d="M5.2-2c0,0.2,0.183,0.367,0.55,0.5
				C6.083-1.333,6.5-1.25,7-1.25c0.467,0,0.883-0.083,1.25-0.25c0.333-0.133,0.5-0.3,0.5-0.5s-0.167-0.383-0.5-0.55
				C7.883-2.683,7.467-2.75,7-2.75c-0.5,0-0.917,0.067-1.25,0.2C5.383-2.383,5.2-2.2,5.2-2z"/>
			<path style="fill-rule:evenodd;clip-rule:evenodd;fill:#51422D;" d="M6.3-3.7c0,0.233,0.233,0.35,0.7,0.35
				c0.433,0,0.65-0.117,0.65-0.35c0-0.267-0.217-0.4-0.65-0.4C6.533-4.1,6.3-3.967,6.3-3.7z"/>
			
				<use xlink:href="#Untitled-1.ai_x2F_Layer_1_x2F__x3C_Path_x3E__x5F_6_x5F_1"  width="1.6" height="0.75" y="-0.75" transform="matrix(1 0 0 1 10.1499 -0.1499)" style="overflow:visible;opacity:0.5;enable-background:new    ;"/>
			
				<use xlink:href="#Untitled-1.ai_x2F_Layer_1_x2F__x3C_Path_x3E__x5F_5_x5F_2"  width="1.95" height="0.75" y="-0.75" transform="matrix(1 0 0 1 0 -1.6001)" style="overflow:visible;opacity:0.5;enable-background:new    ;"/>
			
				<use xlink:href="#Untitled-1.ai_x2F_Layer_1_x2F__x3C_Path_x3E__x5F_4_x5F_2"  width="3.1" height="1.35" y="-1.35" transform="matrix(1 0 0 1 25.7998 -5.3501)" style="overflow:visible;opacity:0.5;enable-background:new    ;"/>
			<path style="fill-rule:evenodd;clip-rule:evenodd;fill:#51422D;" d="M25.45-3.95c0,0.233,0.267,0.35,0.8,0.35s0.8-0.117,0.8-0.35
				c0-0.267-0.267-0.4-0.8-0.4S25.45-4.217,25.45-3.95z"/>
			<path style="fill-rule:evenodd;clip-rule:evenodd;fill:#51422D;" d="M33.85-6c0,0.3,0.267,0.45,0.8,0.45s0.8-0.15,0.8-0.45
				s-0.267-0.45-0.8-0.45S33.85-6.3,33.85-6z"/>
			
				<use xlink:href="#Untitled-1.ai_x2F_Layer_1_x2F__x3C_Path_x3E__x5F_1_x5F_3"  width="3.75" height="1.6" y="-1.6" transform="matrix(1 0 0 1 30.25 -3.3501)" style="overflow:visible;opacity:0.6992;enable-background:new    ;"/>
			
				<use xlink:href="#Untitled-1.ai_x2F_Layer_1_x2F__x3C_Path_x3E__x5F_10"  width="1.6" height="0.8" y="-0.8" transform="matrix(1 0 0 1 3.7002 -2.8999)" style="overflow:visible;opacity:0.6992;enable-background:new    ;"/>
		</g>
	</g>
</symbol>
<symbol  id="Untitled-1.ai_x2F_Layer_1_x2F__x3C_Group_x3E__x5F_4" viewBox="0 -15.45 76.4 15.45">
	<g id="Layer_1_65_">
		<g>
			
				<use xlink:href="#Untitled-1.ai_x2F_Layer_1_x2F__x3C_Path_x3E__x5F_13_x5F_0"  width="13.6" height="6.35" y="-6.35" transform="matrix(1 0 0 1 40.4502 -3.75)" style="overflow:visible;opacity:0.6992;enable-background:new    ;"/>
			<path style="fill-rule:evenodd;clip-rule:evenodd;fill:#51422D;" d="M41.05-0.65c0.833-0.4,1.25-0.9,1.25-1.5
				c0-0.567-0.417-1.067-1.25-1.5c-0.833-0.4-1.833-0.6-3-0.6c-1.167,0-2.167,0.2-3,0.6c-0.833,0.433-1.25,0.933-1.25,1.5
				c0,0.6,0.417,1.1,1.25,1.5c0.833,0.433,1.833,0.65,3,0.65C39.217,0,40.217-0.217,41.05-0.65z"/>
			<path style="fill-rule:evenodd;clip-rule:evenodd;fill:#51422D;" d="M34.6-7.6c0,0.267,0.183,0.5,0.55,0.7
				c0.367,0.167,0.8,0.25,1.3,0.25c0.533,0,0.983-0.083,1.35-0.25c0.367-0.2,0.55-0.434,0.55-0.7s-0.184-0.483-0.55-0.65
				S36.983-8.5,36.45-8.5c-0.5,0-0.934,0.083-1.3,0.25C34.783-8.05,34.6-7.833,34.6-7.6z"/>
			<path style="fill-rule:evenodd;clip-rule:evenodd;fill:#51422D;" d="M26.35-12.9c0,0.7,0.65,1.283,1.95,1.75
				c1.3,0.5,2.867,0.75,4.7,0.75c1.867,0,3.433-0.25,4.7-0.75c1.3-0.467,1.95-1.05,1.95-1.75c0-0.7-0.65-1.3-1.95-1.8
				c-1.3-0.5-2.867-0.75-4.7-0.75s-3.4,0.25-4.7,0.75C27-14.2,26.35-13.6,26.35-12.9z"/>
			
				<use xlink:href="#Untitled-1.ai_x2F_Layer_1_x2F__x3C_Path_x3E__x5F_9_x5F_0"  width="9.6" height="4.25" y="-4.25" transform="matrix(1 0 0 1 17.5498 -6.6499)" style="overflow:visible;opacity:0.6992;enable-background:new    ;"/>
			<path style="fill-rule:evenodd;clip-rule:evenodd;fill:#51422D;" d="M11.2-4.25c0,0.433,0.367,0.8,1.1,1.1
				c0.767,0.333,1.684,0.5,2.75,0.5c1.034,0,1.934-0.167,2.7-0.5c0.767-0.3,1.15-0.667,1.15-1.1s-0.383-0.817-1.15-1.15
				c-0.733-0.3-1.633-0.45-2.7-0.45c-1.066,0-1.983,0.15-2.75,0.45C11.567-5.1,11.2-4.717,11.2-4.25z"/>
			<path style="fill-rule:evenodd;clip-rule:evenodd;fill:#51422D;" d="M13.6-8c0,0.533,0.483,0.8,1.45,0.8
				c0.4,0,0.75-0.083,1.05-0.25c0.267-0.133,0.4-0.316,0.4-0.55s-0.133-0.417-0.4-0.55c-0.3-0.167-0.65-0.25-1.05-0.25
				C14.083-8.8,13.6-8.533,13.6-8z"/>
			
				<use xlink:href="#Untitled-1.ai_x2F_Layer_1_x2F__x3C_Path_x3E__x5F_6_x5F_0"  width="3.45" height="1.6" y="-1.6" transform="matrix(1 0 0 1 21.8501 -0.25)" style="overflow:visible;opacity:0.5;enable-background:new    ;"/>
			
				<use xlink:href="#Untitled-1.ai_x2F_Layer_1_x2F__x3C_Path_x3E__x5F_5_x5F_1"  width="4.25" height="1.6" y="-1.6" transform="matrix(1 0 0 1 0 -3.4502)" style="overflow:visible;opacity:0.5;enable-background:new    ;"/>
			
				<use xlink:href="#Untitled-1.ai_x2F_Layer_1_x2F__x3C_Path_x3E__x5F_4_x5F_1"  width="6.65" height="2.9" y="-2.9" transform="matrix(1 0 0 1 55.6499 -11.4502)" style="overflow:visible;opacity:0.5;enable-background:new    ;"/>
			<path style="fill-rule:evenodd;clip-rule:evenodd;fill:#51422D;" d="M54.85-8.5c0,0.2,0.167,0.383,0.5,0.55
				c0.333,0.167,0.733,0.25,1.2,0.25c0.467,0,0.883-0.083,1.25-0.25c0.333-0.167,0.5-0.35,0.5-0.55c0-0.233-0.167-0.417-0.5-0.55
				c-0.367-0.167-0.783-0.25-1.25-0.25c-0.466,0-0.867,0.083-1.2,0.25C55.017-8.917,54.85-8.733,54.85-8.5z"/>
			<path style="fill-rule:evenodd;clip-rule:evenodd;fill:#51422D;" d="M72.95-12.9c0,0.233,0.167,0.45,0.5,0.65
				c0.333,0.167,0.733,0.25,1.2,0.25s0.883-0.083,1.25-0.25c0.333-0.2,0.5-0.417,0.5-0.65c0-0.267-0.167-0.483-0.5-0.65
				c-0.367-0.2-0.783-0.3-1.25-0.3s-0.867,0.1-1.2,0.3C73.117-13.383,72.95-13.167,72.95-12.9z"/>
			
				<use xlink:href="#Untitled-1.ai_x2F_Layer_1_x2F__x3C_Path_x3E__x5F_1_x5F_2"  width="8" height="3.45" y="-3.45" transform="matrix(1 0 0 1 65.2002 -7.2002)" style="overflow:visible;opacity:0.6992;enable-background:new    ;"/>
			
				<use xlink:href="#Untitled-1.ai_x2F_Layer_1_x2F__x3C_Path_x3E__x5F_7"  width="3.45" height="1.7" y="-1.7" transform="matrix(1 0 0 1 8 -6.2002)" style="overflow:visible;opacity:0.6992;enable-background:new    ;"/>
		</g>
	</g>
</symbol>
<symbol  id="Untitled-1.ai_x2F_Layer_1_x2F__x3C_Group_x3E__x5F_5" viewBox="0 -9.35 46.4 9.35">
	<g id="Layer_1_64_">
		<g>
			
				<use xlink:href="#Untitled-1.ai_x2F_Layer_1_x2F__x3C_Path_x3E__x5F_13"  width="8.25" height="3.9" y="-3.9" transform="matrix(1 0 0 1 13.6001 -2.25)" style="overflow:visible;opacity:0.6992;enable-background:new    ;"/>
			<path style="fill-rule:evenodd;clip-rule:evenodd;fill:#51422D;" d="M25.9-1.25c0-0.367-0.25-0.683-0.75-0.95
				C24.617-2.433,24-2.55,23.3-2.55c-0.733,0-1.35,0.117-1.85,0.35c-0.5,0.267-0.75,0.583-0.75,0.95c0,0.333,0.25,0.633,0.75,0.9
				C21.95-0.117,22.567,0,23.3,0c0.7,0,1.317-0.117,1.85-0.35C25.65-0.617,25.9-0.917,25.9-1.25z"/>
			<path style="fill-rule:evenodd;clip-rule:evenodd;fill:#51422D;" d="M25.4-4.6c0-0.367-0.383-0.55-1.15-0.55
				c-0.733,0-1.1,0.183-1.1,0.55c0,0.167,0.117,0.3,0.35,0.4C23.7-4.067,23.95-4,24.25-4c0.333,0,0.6-0.067,0.8-0.2
				C25.283-4.3,25.4-4.433,25.4-4.6z"/>
			<path style="fill-rule:evenodd;clip-rule:evenodd;fill:#51422D;" d="M30.4-7.8c0-0.434-0.4-0.8-1.2-1.1
				c-0.767-0.3-1.717-0.45-2.85-0.45c-1.1,0-2.05,0.15-2.85,0.45c-0.8,0.3-1.2,0.667-1.2,1.1c0,0.4,0.4,0.75,1.2,1.05
				s1.75,0.45,2.85,0.45s2.05-0.15,2.85-0.45C30-7.05,30.4-7.4,30.4-7.8z"/>
			
				<use xlink:href="#Untitled-1.ai_x2F_Layer_1_x2F__x3C_Path_x3E__x5F_9"  width="5.8" height="2.6" y="-2.6" transform="matrix(1 0 0 1 29.9502 -4)" style="overflow:visible;opacity:0.6992;enable-background:new    ;"/>
			<path style="fill-rule:evenodd;clip-rule:evenodd;fill:#51422D;" d="M39.65-2.55c0-0.267-0.233-0.5-0.7-0.7
				c-0.434-0.2-0.983-0.3-1.65-0.3c-0.633,0-1.183,0.1-1.65,0.3s-0.7,0.433-0.7,0.7c0,0.267,0.233,0.483,0.7,0.65
				c0.467,0.2,1.017,0.3,1.65,0.3s1.184-0.1,1.65-0.3C39.417-2.067,39.65-2.283,39.65-2.55z"/>
			<path style="fill-rule:evenodd;clip-rule:evenodd;fill:#51422D;" d="M38.15-4.85c0-0.3-0.283-0.45-0.85-0.45
				c-0.6,0-0.9,0.15-0.9,0.45c0,0.333,0.3,0.5,0.9,0.5C37.867-4.35,38.15-4.517,38.15-4.85z"/>
			
				<use xlink:href="#Untitled-1.ai_x2F_Layer_1_x2F__x3C_Path_x3E__x5F_6"  width="2.1" height="0.95" y="-0.95" transform="matrix(1 0 0 1 31.0498 -0.1499)" style="overflow:visible;opacity:0.5;enable-background:new    ;"/>
			
				<use xlink:href="#Untitled-1.ai_x2F_Layer_1_x2F__x3C_Path_x3E__x5F_5_x5F_0"  width="2.55" height="0.95" y="-0.95" transform="matrix(1 0 0 1 43.8501 -2.1001)" style="overflow:visible;opacity:0.5;enable-background:new    ;"/>
			
				<use xlink:href="#Untitled-1.ai_x2F_Layer_1_x2F__x3C_Path_x3E__x5F_4_x5F_0"  width="4" height="1.75" y="-1.75" transform="matrix(1 0 0 1 8.6001 -6.9502)" style="overflow:visible;opacity:0.5;enable-background:new    ;"/>
			<path style="fill-rule:evenodd;clip-rule:evenodd;fill:#51422D;" d="M13.1-5.15c0-0.333-0.35-0.5-1.05-0.5
				c-0.7,0-1.05,0.167-1.05,0.5c0,0.333,0.35,0.5,1.05,0.5C12.75-4.65,13.1-4.817,13.1-5.15z"/>
			<path style="fill-rule:evenodd;clip-rule:evenodd;fill:#51422D;" d="M2.1-7.8c0-0.4-0.35-0.6-1.05-0.6C0.35-8.4,0-8.2,0-7.8
				c0,0.367,0.35,0.55,1.05,0.55C1.75-7.25,2.1-7.433,2.1-7.8z"/>
			
				<use xlink:href="#Untitled-1.ai_x2F_Layer_1_x2F__x3C_Path_x3E__x5F_1_x5F_1"  width="4.85" height="2.1" y="-2.1" transform="matrix(1 0 0 1 1.9502 -4.3501)" style="overflow:visible;opacity:0.6992;enable-background:new    ;"/>
			
				<use xlink:href="#Untitled-1.ai_x2F_Layer_1_x2F__x3C_Path_x3E__x5F_3"  width="2.1" height="1.05" y="-1.05" transform="matrix(1 0 0 1 39.4502 -3.75)" style="overflow:visible;opacity:0.6992;enable-background:new    ;"/>
		</g>
	</g>
</symbol>
<symbol  id="Untitled-1.ai_x2F_Layer_1_x2F__x3C_Group_x3E__x5F_6" viewBox="0 -13.55 74.8 13.55">
	<g id="Layer_1_63_">
		<g>
			
				<use xlink:href="#Untitled-1.ai_x2F_Layer_1_x2F__x3C_Path_x3E__x5F_11"  width="13.3" height="6.25" y="-6.25" transform="matrix(1 0 0 1 21.8999 -3.6499)" style="overflow:visible;opacity:0.6992;enable-background:new    ;"/>
			<path style="fill-rule:evenodd;clip-rule:evenodd;fill:#51422D;" d="M41.7-2.1c0-0.566-0.4-1.066-1.2-1.5
				c-0.833-0.4-1.817-0.6-2.95-0.6S35.433-4,34.6-3.6c-0.833,0.434-1.25,0.934-1.25,1.5c0,0.567,0.417,1.067,1.25,1.5
				C35.433-0.2,36.417,0,37.55,0s2.117-0.2,2.95-0.6C41.3-1.033,41.7-1.533,41.7-2.1z"/>
			<path style="fill-rule:evenodd;clip-rule:evenodd;fill:#51422D;" d="M40.4-6.8c0.367-0.2,0.55-0.417,0.55-0.65
				c0-0.233-0.184-0.45-0.55-0.65c-0.367-0.167-0.8-0.25-1.3-0.25s-0.917,0.083-1.25,0.25c-0.367,0.167-0.55,0.383-0.55,0.65
				c0,0.233,0.184,0.45,0.55,0.65c0.333,0.167,0.75,0.25,1.25,0.25S40.033-6.633,40.4-6.8z"/>
			
				<use xlink:href="#Untitled-1.ai_x2F_Layer_1_x2F__x3C_Path_x3E__x5F_8"  width="9.4" height="4.15" y="-4.15" transform="matrix(1 0 0 1 48.2002 -6.5498)" style="overflow:visible;opacity:0.6992;enable-background:new    ;"/>
			<path style="fill-rule:evenodd;clip-rule:evenodd;fill:#51422D;" d="M63.85-4.2c0-0.433-0.367-0.8-1.1-1.1
				c-0.733-0.3-1.617-0.45-2.65-0.45S58.167-5.6,57.4-5.3c-0.733,0.3-1.1,0.667-1.1,1.1c0,0.434,0.367,0.817,1.1,1.15
				c0.733,0.3,1.633,0.45,2.7,0.45c1.033,0,1.917-0.15,2.65-0.45C63.483-3.383,63.85-3.767,63.85-4.2z"/>
			<path style="fill-rule:evenodd;clip-rule:evenodd;fill:#51422D;" d="M61.5-7.85c0-0.2-0.133-0.383-0.4-0.55
				c-0.3-0.133-0.633-0.2-1-0.2c-0.4,0-0.733,0.067-1,0.2c-0.3,0.167-0.45,0.35-0.45,0.55c0,0.233,0.15,0.417,0.45,0.55
				c0.267,0.167,0.6,0.25,1,0.25c0.367,0,0.7-0.083,1-0.25C61.367-7.433,61.5-7.617,61.5-7.85z"/>
			
				<use xlink:href="#Untitled-1.ai_x2F_Layer_1_x2F__x3C_Path_x3E__x5F_5"  width="3.4" height="1.6" y="-1.6" transform="matrix(1 0 0 1 50.0498 -0.25)" style="overflow:visible;opacity:0.5;enable-background:new    ;"/>
			
				<use xlink:href="#Untitled-1.ai_x2F_Layer_1_x2F__x3C_Path_x3E__x5F_4"  width="4.15" height="1.55" y="-1.55" transform="matrix(1 0 0 1 70.6499 -3.3999)" style="overflow:visible;opacity:0.5;enable-background:new    ;"/>
			<path style="fill-rule:evenodd;clip-rule:evenodd;fill:#51422D;" d="M21.1-8.35c0-0.233-0.167-0.417-0.5-0.55
				c-0.3-0.167-0.684-0.25-1.15-0.25c-0.467,0-0.867,0.083-1.2,0.25c-0.333,0.133-0.5,0.316-0.5,0.55s0.167,0.417,0.5,0.55
				c0.333,0.167,0.733,0.25,1.2,0.25c0.466,0,0.85-0.083,1.15-0.25C20.933-7.933,21.1-8.117,21.1-8.35z"/>
			<path style="fill-rule:evenodd;clip-rule:evenodd;fill:#51422D;" d="M3.4-12.65c0-0.267-0.167-0.483-0.5-0.65
				c-0.333-0.167-0.733-0.25-1.2-0.25c-0.467,0-0.867,0.083-1.2,0.25C0.167-13.133,0-12.917,0-12.65C0-12.417,0.167-12.2,0.5-12
				c0.333,0.167,0.733,0.25,1.2,0.25c0.466,0,0.867-0.083,1.2-0.25C3.233-12.2,3.4-12.417,3.4-12.65z"/>
			
				<use xlink:href="#Untitled-1.ai_x2F_Layer_1_x2F__x3C_Path_x3E__x5F_1_x5F_0"  width="7.8" height="3.4" y="-3.4" transform="matrix(1 0 0 1 3.1499 -7.0498)" style="overflow:visible;opacity:0.6992;enable-background:new    ;"/>
			
				<use xlink:href="#Untitled-1.ai_x2F_Layer_1_x2F__x3C_Path_x3E__x5F_0"  width="3.4" height="1.7" y="-1.7" transform="matrix(1 0 0 1 63.6001 -6.0498)" style="overflow:visible;opacity:0.6992;enable-background:new    ;"/>
		</g>
	</g>
</symbol>
<symbol  id="Untitled-1.ai_x2F_Layer_1_x2F__x3C_Path_x3E_" viewBox="0 -92.75 50.3 92.75">
	<g id="Layer_1_12_">
		<linearGradient id="SVGID_3_" gradientUnits="userSpaceOnUse" x1="0" y1="-46.375" x2="50.2998" y2="-46.375">
			<stop  offset="0" style="stop-color:#392A16"/>
			<stop  offset="0.0549" style="stop-color:#564938"/>
			<stop  offset="0.1725" style="stop-color:#9F978E"/>
			<stop  offset="0.3176" style="stop-color:#FFFFFF"/>
			<stop  offset="1" style="stop-color:#392A16"/>
		</linearGradient>
		<path style="fill-rule:evenodd;clip-rule:evenodd;fill:url(#SVGID_3_);" d="M50.3,0c-1.066-3.333-2.2-7.767-3.4-13.3
			c-2.4-11.1-3.867-22.25-4.4-33.45s0.317-22.233,2.55-33.1c1.133-5.433,2.3-9.733,3.5-12.9H4.25c0.567,2.333,1.05,5.867,1.45,10.6
			C6.533-72.683,6.633-61.933,6-49.9S4.183-26.4,2.45-15.5C1.583-10.033,0.767-5.767,0-2.7L50.3,0z"/>
	</g>
</symbol>
<symbol  id="Untitled-1.ai_x2F_Layer_1_x2F__x3C_Path_x3E__x5F_0" viewBox="0 -1.7 3.4 1.7">
	<g id="Layer_1_19_">
		<path style="fill-rule:evenodd;clip-rule:evenodd;fill:#51422D;" d="M3.4-0.85c0-0.233-0.167-0.433-0.5-0.6
			C2.567-1.617,2.167-1.7,1.7-1.7C0.567-1.7,0-1.417,0-0.85c0,0.233,0.167,0.434,0.5,0.6S1.233,0,1.7,0
			c0.466,0,0.867-0.083,1.2-0.25C3.233-0.417,3.4-0.617,3.4-0.85z"/>
	</g>
</symbol>
<symbol  id="Untitled-1.ai_x2F_Layer_1_x2F__x3C_Path_x3E__x5F_1" viewBox="0 -92.75 156.75 92.75">
	<g id="Layer_1_11_">
		<linearGradient id="SVGID_4_" gradientUnits="userSpaceOnUse" x1="0" y1="-46.375" x2="156.75" y2="-46.375">
			<stop  offset="0" style="stop-color:#392A16"/>
			<stop  offset="0.1059" style="stop-color:#564938"/>
			<stop  offset="0.3373" style="stop-color:#9F978E"/>
			<stop  offset="0.6196" style="stop-color:#FFFFFF"/>
			<stop  offset="1" style="stop-color:#392A16"/>
		</linearGradient>
		<path style="fill-rule:evenodd;clip-rule:evenodd;fill:url(#SVGID_4_);" d="M156.75,0c-1.1-3.3-2.25-7.733-3.45-13.3
			c-2.367-11.1-3.816-22.25-4.35-33.45c-0.534-11.2,0.3-22.233,2.5-33.1c1.133-5.433,2.3-9.733,3.5-12.9H4.25
			C4.817-90.417,5.3-86.867,5.7-82.1C6.533-72.633,6.633-61.883,6-49.85c-0.633,12-1.817,23.45-3.55,34.35
			C1.583-10.033,0.767-5.767,0-2.7L156.75,0z"/>
	</g>
</symbol>
<symbol  id="Untitled-1.ai_x2F_Layer_1_x2F__x3C_Path_x3E__x5F_10" viewBox="0 -0.8 1.6 0.8">
	<g id="Layer_1_40_">
		<path style="fill-rule:evenodd;clip-rule:evenodd;fill:#51422D;" d="M0-0.4C0-0.133,0.267,0,0.8,0c0.534,0,0.8-0.133,0.8-0.4
			S1.333-0.8,0.8-0.8C0.267-0.8,0-0.667,0-0.4z"/>
	</g>
</symbol>
<symbol  id="Untitled-1.ai_x2F_Layer_1_x2F__x3C_Path_x3E__x5F_11" viewBox="0 -6.25 13.3 6.25">
	<g id="Layer_1_14_">
		<path style="fill-rule:evenodd;clip-rule:evenodd;fill:#51422D;" d="M13.3-3.15c0-0.867-0.65-1.6-1.95-2.2
			c-1.3-0.6-2.867-0.9-4.7-0.9c-1.833,0-3.4,0.3-4.7,0.9C0.65-4.75,0-4.017,0-3.15S0.65-1.533,1.95-0.9C3.25-0.3,4.817,0,6.65,0
			c1.833,0,3.4-0.3,4.7-0.9C12.65-1.533,13.3-2.283,13.3-3.15z"/>
	</g>
</symbol>
<symbol  id="Untitled-1.ai_x2F_Layer_1_x2F__x3C_Path_x3E__x5F_12" viewBox="0 -1.05 2.1 1.05">
	<g id="Layer_1_47_">
		<path style="fill-rule:evenodd;clip-rule:evenodd;fill:#51422D;" d="M2.1-0.55C2.1-0.683,2-0.8,1.8-0.9
			C1.567-1,1.317-1.05,1.05-1.05C0.35-1.05,0-0.883,0-0.55C0-0.183,0.35,0,1.05,0C1.75,0,2.1-0.183,2.1-0.55z"/>
	</g>
</symbol>
<symbol  id="Untitled-1.ai_x2F_Layer_1_x2F__x3C_Path_x3E__x5F_13" viewBox="0 -3.9 8.25 3.9">
	<g id="Layer_1_20_">
		<path style="fill-rule:evenodd;clip-rule:evenodd;fill:#51422D;" d="M8.25-1.95c0-0.533-0.4-0.983-1.2-1.35
			C6.217-3.7,5.233-3.9,4.1-3.9S2-3.7,1.2-3.3C0.4-2.933,0-2.483,0-1.95c0,0.534,0.4,1,1.2,1.4C2-0.183,2.967,0,4.1,0
			c1.167,0,2.15-0.183,2.95-0.55C7.85-0.95,8.25-1.417,8.25-1.95z"/>
	</g>
</symbol>
<symbol  id="Untitled-1.ai_x2F_Layer_1_x2F__x3C_Path_x3E__x5F_13_x5F_0" viewBox="0 -6.35 13.6 6.35">
	<g id="Layer_1_27_">
		<path style="fill-rule:evenodd;clip-rule:evenodd;fill:#51422D;" d="M0-3.15C0-2.283,0.667-1.533,2-0.9C3.333-0.3,4.933,0,6.8,0
			s3.467-0.3,4.8-0.9c1.333-0.633,2-1.383,2-2.25c0-0.9-0.667-1.667-2-2.3c-1.3-0.6-2.9-0.9-4.8-0.9c-1.867,0-3.466,0.3-4.8,0.9
			C0.667-4.817,0-4.05,0-3.15z"/>
	</g>
</symbol>
<symbol  id="Untitled-1.ai_x2F_Layer_1_x2F__x3C_Path_x3E__x5F_13_x5F_1" viewBox="0 -2.95 6.3 2.95">
	<g id="Layer_1_34_">
		<path style="fill-rule:evenodd;clip-rule:evenodd;fill:#51422D;" d="M0-1.45c0,0.4,0.3,0.733,0.9,1C1.533-0.15,2.283,0,3.15,0
			s1.6-0.15,2.2-0.45c0.633-0.267,0.95-0.6,0.95-1c0-0.433-0.316-0.783-0.95-1.05c-0.6-0.3-1.333-0.45-2.2-0.45S1.533-2.8,0.9-2.5
			C0.3-2.233,0-1.883,0-1.45z"/>
	</g>
</symbol>
<symbol  id="Untitled-1.ai_x2F_Layer_1_x2F__x3C_Path_x3E__x5F_13_x5F_2" viewBox="0 -3.9 8.25 3.9">
	<g id="Layer_1_41_">
		<path style="fill-rule:evenodd;clip-rule:evenodd;fill:#51422D;" d="M8.25-1.95c0-0.533-0.4-0.983-1.2-1.35
			c-0.8-0.4-1.767-0.6-2.9-0.6S2.033-3.7,1.2-3.3C0.4-2.933,0-2.483,0-1.95c0,0.534,0.4,1,1.2,1.4C2-0.183,2.983,0,4.15,0
			c1.133,0,2.1-0.183,2.9-0.55C7.85-0.95,8.25-1.417,8.25-1.95z"/>
	</g>
</symbol>
<symbol  id="Untitled-1.ai_x2F_Layer_1_x2F__x3C_Path_x3E__x5F_13_x5F_3" viewBox="0 -8 17.05 8">
	<g id="Layer_1_48_">
		<path style="fill-rule:evenodd;clip-rule:evenodd;fill:#51422D;" d="M17.05-4c0-1.1-0.833-2.05-2.5-2.85
			C12.883-7.617,10.867-8,8.5-8c-2.333,0-4.333,0.383-6,1.15C0.833-6.05,0-5.1,0-4s0.833,2.033,2.5,2.8C4.167-0.4,6.167,0,8.5,0
			c2.367,0,4.383-0.4,6.05-1.2C16.217-1.967,17.05-2.9,17.05-4z"/>
	</g>
</symbol>
<symbol  id="Untitled-1.ai_x2F_Layer_1_x2F__x3C_Path_x3E__x5F_13_x5F_4" viewBox="0 -8.05 17.05 8.05">
	<g id="Layer_1_55_">
		<path style="fill-rule:evenodd;clip-rule:evenodd;fill:#51422D;" d="M17.05-4.05c0-1.1-0.833-2.05-2.5-2.85
			c-1.667-0.767-3.667-1.15-6-1.15c-2.367,0-4.383,0.383-6.05,1.15C0.833-6.1,0-5.15,0-4.05C0-2.917,0.833-1.967,2.5-1.2
			C4.167-0.4,6.183,0,8.55,0s4.367-0.4,6-1.2C16.217-1.967,17.05-2.917,17.05-4.05z"/>
	</g>
</symbol>
<symbol  id="Untitled-1.ai_x2F_Layer_1_x2F__x3C_Path_x3E__x5F_14" viewBox="0 -2.15 4.3 2.15">
	<g id="Layer_1_54_">
		<path style="fill-rule:evenodd;clip-rule:evenodd;fill:#51422D;" d="M4.3-1.05c0-0.3-0.2-0.567-0.6-0.8
			c-0.434-0.2-0.95-0.3-1.55-0.3s-1.1,0.1-1.5,0.3C0.217-1.617,0-1.35,0-1.05C0-0.75,0.217-0.5,0.65-0.3C1.05-0.1,1.55,0,2.15,0
			S3.267-0.1,3.7-0.3C4.1-0.5,4.3-0.75,4.3-1.05z"/>
	</g>
</symbol>
<symbol  id="Untitled-1.ai_x2F_Layer_1_x2F__x3C_Path_x3E__x5F_15" viewBox="0 -2.2 4.35 2.2">
	<g id="Layer_1_61_">
		<path style="fill-rule:evenodd;clip-rule:evenodd;fill:#51422D;" d="M4.35-1.1c0-0.3-0.217-0.566-0.65-0.8
			C3.267-2.1,2.75-2.2,2.15-2.2s-1.1,0.1-1.5,0.3C0.217-1.667,0-1.4,0-1.1c0,0.3,0.217,0.55,0.65,0.75C1.05-0.117,1.55,0,2.15,0
			S3.267-0.117,3.7-0.35C4.133-0.55,4.35-0.8,4.35-1.1z"/>
	</g>
</symbol>
<symbol  id="Untitled-1.ai_x2F_Layer_1_x2F__x3C_Path_x3E__x5F_1_x5F_0" viewBox="0 -3.4 7.8 3.4">
	<g id="Layer_1_18_">
		<path style="fill-rule:evenodd;clip-rule:evenodd;fill:#51422D;" d="M7.8-1.7c0-0.466-0.383-0.867-1.15-1.2
			C5.883-3.233,4.967-3.4,3.9-3.4c-1.066,0-1.983,0.167-2.75,0.5C0.383-2.567,0-2.167,0-1.7c0,0.467,0.383,0.867,1.15,1.2
			S2.833,0,3.9,0c1.067,0,1.983-0.167,2.75-0.5S7.8-1.233,7.8-1.7z"/>
	</g>
</symbol>
<symbol  id="Untitled-1.ai_x2F_Layer_1_x2F__x3C_Path_x3E__x5F_1_x5F_1" viewBox="0 -2.1 4.85 2.1">
	<g id="Layer_1_25_">
		<path style="fill-rule:evenodd;clip-rule:evenodd;fill:#51422D;" d="M4.85-1.05c0-0.3-0.233-0.55-0.7-0.75
			C3.65-2,3.067-2.1,2.4-2.1C1.733-2.1,1.167-2,0.7-1.8C0.233-1.6,0-1.35,0-1.05C0-0.75,0.233-0.5,0.7-0.3C1.167-0.1,1.733,0,2.4,0
			c0.667,0,1.25-0.1,1.75-0.3C4.617-0.5,4.85-0.75,4.85-1.05z"/>
	</g>
</symbol>
<symbol  id="Untitled-1.ai_x2F_Layer_1_x2F__x3C_Path_x3E__x5F_1_x5F_2" viewBox="0 -3.45 8 3.45">
	<g id="Layer_1_32_">
		<path style="fill-rule:evenodd;clip-rule:evenodd;fill:#51422D;" d="M0-1.7c0,0.467,0.4,0.867,1.2,1.2C1.967-0.167,2.9,0,4,0
			s2.05-0.167,2.85-0.5C7.617-0.833,8-1.233,8-1.7c0-0.466-0.383-0.883-1.15-1.25C6.05-3.283,5.1-3.45,4-3.45s-2.033,0.167-2.8,0.5
			C0.4-2.583,0-2.167,0-1.7z"/>
	</g>
</symbol>
<symbol  id="Untitled-1.ai_x2F_Layer_1_x2F__x3C_Path_x3E__x5F_1_x5F_3" viewBox="0 -1.6 3.75 1.6">
	<g id="Layer_1_39_">
		<path style="fill-rule:evenodd;clip-rule:evenodd;fill:#51422D;" d="M0-0.8c0,0.233,0.183,0.417,0.55,0.55
			C0.917-0.083,1.35,0,1.85,0C2.383,0,2.833-0.083,3.2-0.25C3.567-0.383,3.75-0.567,3.75-0.8c0-0.233-0.183-0.417-0.55-0.55
			C2.833-1.517,2.383-1.6,1.85-1.6c-0.5,0-0.934,0.083-1.3,0.25C0.183-1.217,0-1.033,0-0.8z"/>
	</g>
</symbol>
<symbol  id="Untitled-1.ai_x2F_Layer_1_x2F__x3C_Path_x3E__x5F_1_x5F_4" viewBox="0 -2.1 4.85 2.1">
	<g id="Layer_1_46_">
		<path style="fill-rule:evenodd;clip-rule:evenodd;fill:#51422D;" d="M4.85-1.05c0-0.3-0.233-0.55-0.7-0.75
			C3.683-2,3.117-2.1,2.45-2.1C1.783-2.1,1.2-2,0.7-1.8C0.233-1.6,0-1.35,0-1.05C0-0.783,0.233-0.533,0.7-0.3
			C1.2-0.1,1.783,0,2.45,0c0.667,0,1.233-0.1,1.7-0.3C4.617-0.533,4.85-0.783,4.85-1.05z"/>
	</g>
</symbol>
<symbol  id="Untitled-1.ai_x2F_Layer_1_x2F__x3C_Path_x3E__x5F_1_x5F_5" viewBox="0 -4.35 10 4.35">
	<g id="Layer_1_53_">
		<path style="fill-rule:evenodd;clip-rule:evenodd;fill:#51422D;" d="M10-2.15c0-0.6-0.483-1.117-1.45-1.55
			C7.55-4.133,6.367-4.35,5-4.35c-1.4,0-2.583,0.217-3.55,0.65C0.483-3.267,0-2.75,0-2.15s0.483,1.1,1.45,1.5C2.417-0.217,3.6,0,5,0
			c1.367,0,2.55-0.217,3.55-0.65C9.517-1.05,10-1.55,10-2.15z"/>
	</g>
</symbol>
<symbol  id="Untitled-1.ai_x2F_Layer_1_x2F__x3C_Path_x3E__x5F_1_x5F_6" viewBox="0 -4.35 10 4.35">
	<g id="Layer_1_60_">
		<path style="fill-rule:evenodd;clip-rule:evenodd;fill:#51422D;" d="M10-2.2c0-0.6-0.483-1.117-1.45-1.55
			c-1-0.4-2.183-0.6-3.55-0.6s-2.55,0.2-3.55,0.6C0.483-3.317,0-2.8,0-2.2c0,0.6,0.483,1.117,1.45,1.55C2.45-0.217,3.633,0,5,0
			s2.55-0.217,3.55-0.65C9.517-1.083,10-1.6,10-2.2z"/>
	</g>
</symbol>
<symbol  id="Untitled-1.ai_x2F_Layer_1_x2F__x3C_Path_x3E__x5F_2" viewBox="0 -85.15 63.3 85.15">
	<g id="Layer_1_10_">
		<linearGradient id="SVGID_5_" gradientUnits="userSpaceOnUse" x1="0" y1="-42.5752" x2="63.2998" y2="-42.5752">
			<stop  offset="0" style="stop-color:#392A16"/>
			<stop  offset="0.1059" style="stop-color:#564938"/>
			<stop  offset="0.3373" style="stop-color:#9F978E"/>
			<stop  offset="0.6196" style="stop-color:#FFFFFF"/>
		</linearGradient>
		<path style="fill-rule:evenodd;clip-rule:evenodd;fill:url(#SVGID_5_);" d="M63.3,0c-1.367-2.7-2.8-6.3-4.3-10.8
			c-3-9.034-4.833-18.1-5.5-27.2s0.4-19.683,3.2-31.75c1.4-6.067,2.867-11.2,4.4-15.4H5.4c0.7,3.533,1.3,8.05,1.8,13.55
			c1.066,10.967,1.2,21.333,0.4,31.1c-0.8,9.733-2.3,19.033-4.5,27.9C2-8.167,0.967-4.7,0-2.2L63.3,0z"/>
	</g>
</symbol>
<symbol  id="Untitled-1.ai_x2F_Layer_1_x2F__x3C_Path_x3E__x5F_3" viewBox="0 -1.05 2.1 1.05">
	<g id="Layer_1_26_">
		<path style="fill-rule:evenodd;clip-rule:evenodd;fill:#51422D;" d="M2.1-0.5c0-0.367-0.35-0.55-1.05-0.55
			C0.35-1.05,0-0.867,0-0.5c0,0.133,0.1,0.25,0.3,0.35C0.533-0.05,0.783,0,1.05,0C1.75,0,2.1-0.167,2.1-0.5z"/>
	</g>
</symbol>
<symbol  id="Untitled-1.ai_x2F_Layer_1_x2F__x3C_Path_x3E__x5F_4" viewBox="0 -1.55 4.15 1.55">
	<g id="Layer_1_17_">
		<path style="fill-rule:evenodd;clip-rule:evenodd;fill:#51422D;" d="M4.15-0.8c0-0.2-0.2-0.383-0.6-0.55
			c-0.433-0.133-0.933-0.2-1.5-0.2C1.483-1.55,1-1.483,0.6-1.35C0.2-1.183,0-1,0-0.8c0,0.233,0.2,0.417,0.6,0.55
			C1-0.083,1.483,0,2.05,0c0.567,0,1.067-0.083,1.5-0.25C3.95-0.383,4.15-0.567,4.15-0.8z"/>
	</g>
</symbol>
<symbol  id="Untitled-1.ai_x2F_Layer_1_x2F__x3C_Path_x3E__x5F_4_x5F_0" viewBox="0 -1.75 4 1.75">
	<g id="Layer_1_24_">
		<path style="fill-rule:evenodd;clip-rule:evenodd;fill:#51422D;" d="M4-0.85C4-1.117,3.8-1.333,3.4-1.5
			C3.033-1.667,2.567-1.75,2-1.75S0.967-1.667,0.6-1.5C0.2-1.333,0-1.117,0-0.85c0,0.233,0.2,0.434,0.6,0.6S1.467,0,2,0
			s1-0.083,1.4-0.25S4-0.617,4-0.85z"/>
	</g>
</symbol>
<symbol  id="Untitled-1.ai_x2F_Layer_1_x2F__x3C_Path_x3E__x5F_4_x5F_1" viewBox="0 -2.9 6.65 2.9">
	<g id="Layer_1_31_">
		<path style="fill-rule:evenodd;clip-rule:evenodd;fill:#51422D;" d="M0-1.45c0,0.4,0.317,0.733,0.95,1C1.583-0.15,2.367,0,3.3,0
			c0.934,0,1.717-0.15,2.35-0.45c0.667-0.267,1-0.6,1-1c0-0.4-0.333-0.75-1-1.05C5.017-2.767,4.233-2.9,3.3-2.9
			c-0.933,0-1.716,0.133-2.35,0.4C0.317-2.2,0-1.85,0-1.45z"/>
	</g>
</symbol>
<symbol  id="Untitled-1.ai_x2F_Layer_1_x2F__x3C_Path_x3E__x5F_4_x5F_2" viewBox="0 -1.35 3.1 1.35">
	<g id="Layer_1_38_">
		<path style="fill-rule:evenodd;clip-rule:evenodd;fill:#51422D;" d="M0-0.65C0-0.483,0.15-0.333,0.45-0.2
			C0.75-0.067,1.117,0,1.55,0c0.434,0,0.8-0.067,1.1-0.2C2.95-0.333,3.1-0.483,3.1-0.65c0-0.2-0.15-0.367-0.45-0.5
			c-0.3-0.133-0.667-0.2-1.1-0.2c-0.433,0-0.8,0.067-1.1,0.2C0.15-1.017,0-0.85,0-0.65z"/>
	</g>
</symbol>
<symbol  id="Untitled-1.ai_x2F_Layer_1_x2F__x3C_Path_x3E__x5F_4_x5F_3" viewBox="0 -1.75 4.05 1.75">
	<g id="Layer_1_45_">
		<path style="fill-rule:evenodd;clip-rule:evenodd;fill:#51422D;" d="M4.05-0.9c0-0.233-0.2-0.434-0.6-0.6
			C3.05-1.667,2.567-1.75,2-1.75S0.967-1.667,0.6-1.5C0.2-1.333,0-1.133,0-0.9s0.2,0.45,0.6,0.65C0.967-0.083,1.433,0,2,0
			s1.05-0.083,1.45-0.25C3.85-0.45,4.05-0.667,4.05-0.9z"/>
	</g>
</symbol>
<symbol  id="Untitled-1.ai_x2F_Layer_1_x2F__x3C_Path_x3E__x5F_4_x5F_4" viewBox="0 -3.65 8.35 3.65">
	<g id="Layer_1_52_">
		<path style="fill-rule:evenodd;clip-rule:evenodd;fill:#51422D;" d="M8.35-1.8c0-0.534-0.417-0.967-1.25-1.3
			C6.3-3.467,5.317-3.65,4.15-3.65C2.983-3.65,2-3.467,1.2-3.1C0.4-2.767,0-2.333,0-1.8c0,0.5,0.4,0.917,1.2,1.25
			C2.033-0.183,3.017,0,4.15,0C5.317,0,6.3-0.183,7.1-0.55C7.933-0.883,8.35-1.3,8.35-1.8z"/>
	</g>
</symbol>
<symbol  id="Untitled-1.ai_x2F_Layer_1_x2F__x3C_Path_x3E__x5F_4_x5F_5" viewBox="0 -3.7 8.35 3.7">
	<g id="Layer_1_59_">
		<path style="fill-rule:evenodd;clip-rule:evenodd;fill:#51422D;" d="M8.35-1.85c0-0.5-0.4-0.933-1.2-1.3
			c-0.833-0.367-1.833-0.55-3-0.55c-1.133,0-2.117,0.184-2.95,0.55C0.4-2.783,0-2.35,0-1.85s0.4,0.934,1.2,1.3
			C2.033-0.183,3.017,0,4.15,0c1.167,0,2.167-0.183,3-0.55C7.95-0.917,8.35-1.35,8.35-1.85z"/>
	</g>
</symbol>
<symbol  id="Untitled-1.ai_x2F_Layer_1_x2F__x3C_Path_x3E__x5F_5" viewBox="0 -1.6 3.4 1.6">
	<g id="Layer_1_16_">
		<path style="fill-rule:evenodd;clip-rule:evenodd;fill:#51422D;" d="M3.4-0.8c0-0.233-0.167-0.417-0.5-0.55
			C2.567-1.517,2.167-1.6,1.7-1.6c-0.467,0-0.867,0.083-1.2,0.25C0.167-1.217,0-1.033,0-0.8c0,0.2,0.167,0.383,0.5,0.55
			S1.233,0,1.7,0c0.466,0,0.867-0.083,1.2-0.25C3.233-0.417,3.4-0.6,3.4-0.8z"/>
	</g>
</symbol>
<symbol  id="Untitled-1.ai_x2F_Layer_1_x2F__x3C_Path_x3E__x5F_52" viewBox="0 -89.35 303.35 89.35">
	<g id="Layer_1_13_">
		
			<linearGradient id="SVGID_6_" gradientUnits="userSpaceOnUse" x1="-79.1147" y1="-16009.2344" x2="10.1853" y2="-16009.2344" gradientTransform="matrix(1.119821e-005 -1 1 -0.001 16160.9102 -95.124)">
			<stop  offset="0" style="stop-color:#392A16"/>
			<stop  offset="0.1059" style="stop-color:#564938"/>
			<stop  offset="0.3373" style="stop-color:#9F978E"/>
			<stop  offset="0.6196" style="stop-color:#FFFFFF"/>
		</linearGradient>
		<path style="fill-rule:evenodd;clip-rule:evenodd;fill:url(#SVGID_6_);" d="M303.35,0c-2.267-3.3-4.617-7.733-7.05-13.3
			c-4.833-11.167-7.6-22.517-8.3-34.05l-0.3-14.95l1.15-15.95c-0.5-0.4-0.917-0.6-1.25-0.6c-0.2,0-0.567-0.2-1.1-0.6L285.75-80
			c-0.667,0.667-1.45,0.833-2.35,0.5c-0.566-0.2-0.867-0.617-0.9-1.25c-0.033-0.333,0-0.633,0.1-0.9c-0.133,0.2-0.333,0.35-0.6,0.45
			c-0.5,0.267-1.033,0.217-1.6-0.15c-0.566-0.333-0.95-0.816-1.15-1.45c-0.1-0.333-0.15-0.617-0.15-0.85l-0.85,0.3
			c-0.333,0.133-0.917-0.066-1.75-0.6c-2.067-1.267-3.2-1.95-3.4-2.05c-1.233-0.7-3.467-1.267-6.7-1.7l-4.5-0.45l-1.65,0.5
			c-0.7,0.2-1.317,0.267-1.85,0.2l-0.65-0.2l-0.65,0.5c-0.3,0.2-0.717,0.267-1.25,0.2l-0.75-0.2c0,0.867-0.5,1.533-1.5,2
			c-0.633,0.267-1.317,0.117-2.05-0.45l-0.95-0.9c-0.333,0.567-1,0.783-2,0.65c-0.633-0.066-1.067-0.3-1.3-0.7l-0.2-0.6l-1.2,0.3
			c-0.467,0.133-1.033,0.1-1.7-0.1l-0.8-0.4c-0.033,0.167-0.15,0.333-0.35,0.5c-0.4,0.3-1.05,0.417-1.95,0.35s-1.75-0.2-2.55-0.4
			l-0.95-0.25c-0.467,0.2-1.3,0.467-2.5,0.8c-0.767,0.2-1.45,0.184-2.05-0.05l-0.65-0.45c0,0.8-0.5,1.25-1.5,1.35
			c-0.633,0.067-1.367,0-2.2-0.2l-1.1-0.3l-2,0.35c-0.833,0.133-1.7,0.05-2.6-0.25l-1.1-0.45l-1.5,0.5
			c-0.667,0.233-1.533,0.3-2.6,0.2c-0.5-0.033-1.966-0.2-4.4-0.5c-1.566-0.2-4.083-0.35-7.55-0.45l-9.25,0.1
			c-2.233,0.1-3.35,0-3.35-0.3c-0.2,0.566-0.583,0.95-1.15,1.15c-0.4,0.133-0.917,0.083-1.55-0.15l-0.8-0.35
			c-0.433,0.533-1.433,0.8-3,0.8c-0.967,0-1.733-0.283-2.3-0.85L183.9-87c-0.1,0.567-0.533,0.9-1.3,1c-0.5,0.067-0.934-0.1-1.3-0.5
			l-0.4-0.65L179.25-87l-3.15,1.35c-0.7,0.267-1.383,0.283-2.05,0.05l-0.8-0.4l-1,1.35c-0.4,0.566-0.917,0.767-1.55,0.6l-0.8-0.45
			l-1,1c-0.4,0.4-0.967,0.55-1.7,0.45l-2.3-0.6c-0.533-0.133-0.95-0.434-1.25-0.9l-0.25-0.6l-0.65,0.5
			c-0.267,0.2-0.7,0.316-1.3,0.35l-0.85-0.05L159.1-84c-0.633,0.133-1.267,0.033-1.9-0.3l-0.8-0.55c0,0.567-0.667,1.017-2,1.35
			c-0.833,0.2-1.6,0.15-2.3-0.15l-0.85-0.5h-1.65c-0.7,0-1.417-0.067-2.15-0.2l-0.85-0.15l-2,0.85
			c-0.833,0.367-1.617,0.417-2.35,0.15L141.4-84l-1.3-0.35c-0.567-0.133-0.934-0.467-1.1-1c-0.1-0.3-0.133-0.566-0.1-0.8
			c-1.2,0.1-2.133-0.017-2.8-0.35c-0.367-0.167-1.934-0.333-4.7-0.5l-6.15-0.15c-2.033-0.1-3.85-0.267-5.45-0.5h-0.05
			c-0.9,0.433-1.617,0.65-2.15,0.65c-0.367,0-0.867-0.117-1.5-0.35l-0.85-0.3c-0.667,0.2-1.167,0.3-1.5,0.3l-2.35-0.3l-1.3,0.3
			c-0.567,0.133-1.05,0.05-1.45-0.25l-0.4-0.55l-0.65,1c-0.3,0.433-0.8,0.65-1.5,0.65c-0.567,0-1.067-0.117-1.5-0.35
			c-0.3-0.133-0.583-0.417-0.85-0.85l-0.35-0.65h-1.3c-0.5,0-0.833-0.117-1-0.35c-0.267-0.3-0.467-0.483-0.6-0.55L88.9-87.5
			c-1.3,0.267-2.7,0.433-4.2,0.5h-1.8l-0.8,0.35c-0.367,0.133-1.117,0.267-2.25,0.4l-1.6,0.1l-0.15,0.5
			c-0.1,0.267-0.517,0.533-1.25,0.8s-1.55,0.434-2.45,0.5c-0.733,0.067-1.45-0.167-2.15-0.7c-0.367-0.267-0.65-0.534-0.85-0.8
			c-0.433,0.8-1.267,1.25-2.5,1.35s-2.617-0.617-4.15-2.15c-0.1-0.1-0.317-0.217-0.65-0.35c-0.434,0-0.75-0.017-0.95-0.05L61.4-86.5
			l-1.3,0.15c-0.567,0.067-1.317,0.033-2.25-0.1l-1.25-0.2l-1.35,0.3c-0.567,0.133-1.133,0.05-1.7-0.25
			c-0.267-0.167-0.483-0.35-0.65-0.55l-0.3,0.65c-0.2,0.367-0.6,0.583-1.2,0.65c-0.667,0.067-1.267-0.1-1.8-0.5
			c-0.8-0.533-2.033-1.083-3.7-1.65c-2.2-0.667-3.75-1-4.65-1l-7.65-0.35L32.4-89c-0.467,0.133-0.917,0.15-1.35,0.05l-0.45-0.2
			c-0.2,0.333-0.467,0.667-0.8,1c-0.667,0.667-1.35,1-2.05,1S26.267-87.433,25.4-88c-0.467-0.3-0.85-0.583-1.15-0.85
			c0.1,0.8-0.067,1.533-0.5,2.2c-0.267,0.4-0.65,0.6-1.15,0.6l-0.7-0.1c-0.1,0.433-0.533,1.033-1.3,1.8c-0.5,0.5-1.1,0.617-1.8,0.35
			l-0.9-0.5c-0.167,0.4-0.433,0.767-0.8,1.1c-0.733,0.667-1.583,0.883-2.55,0.65v0.05l0.3,1.35l0.05,0.15l0.55,3.15L15.5-78
			l0.5,3.55l0.1,0.4l0.7,8.15l0.05,6.55L16-48.7c-1.4,10.3-4.483,20.383-9.25,30.25C4.35-13.517,2.1-9.6,0-6.7L303.35,0z"/>
	</g>
</symbol>
<symbol  id="Untitled-1.ai_x2F_Layer_1_x2F__x3C_Path_x3E__x5F_53" viewBox="0 -11.2 38.906 11.2">
	<g id="Layer_1_7_">
		<path style="fill-rule:evenodd;clip-rule:evenodd;" d="M37.15-3.85l-0.3-1.85c-0.133-0.767-0.633-1.1-1.5-1l-1.2,0.35
			c0.467-0.433,0.417-1.1-0.15-2C33.633-8.917,32.75-9,31.35-8.6l-2,0.75l0.3,0.65c0.233,0.467-0.1,0.8-1,1
			c-0.533-0.333-2.3-1.1-5.3-2.3C21.483-9.267,19.367-9.55,17-9.35l-3,0.5l3.15-1.85c-0.767-0.333-2.1-0.5-4-0.5
			c-1.867,0-3.3,0.4-4.3,1.2c0-0.133-0.15-0.25-0.45-0.35c-0.566-0.233-1.583-0.35-3.05-0.35s-2.767,0.2-3.9,0.6
			c-0.567,0.2-1,0.4-1.3,0.6l0.7,0.8C1.283-8.133,1-6.633,0-4.2L31.15,0l1.05-0.5c0.733-0.567,1.283-1.4,1.65-2.5
			c0.333-1.1,0.933-1.183,1.8-0.25c0.467,0.5,0.917,1.133,1.35,1.9c0.267,0.267,0.817-0.233,1.65-1.5
			c0.434-0.633,0.317-0.983-0.35-1.05L37.15-3.85z"/>
	</g>
</symbol>
<symbol  id="Untitled-1.ai_x2F_Layer_1_x2F__x3C_Path_x3E__x5F_54" viewBox="0 -5.067 26.262 5.067">
	<g id="Layer_1_6_">
		<path style="fill-rule:evenodd;clip-rule:evenodd;" d="M26.25-3.7c0.033-0.333,0-0.6-0.1-0.8l-1-0.2
			c-0.4-0.066-0.933-0.033-1.6,0.1l-0.9,0.25c-0.033-0.167-0.217-0.316-0.55-0.45c-0.667-0.267-1.767-0.333-3.3-0.2
			c-2.433,0.2-4.267,0.7-5.5,1.5c0.034-0.133-0.05-0.283-0.25-0.45c-0.433-0.367-1.283-0.617-2.55-0.75
			C9.267-4.833,8.15-4.733,7.15-4.4L6-3.85C5.767-4.417,4.983-4.7,3.65-4.7C2.317-4.7,1.1-4.3,0-3.5l1.15,0.15
			C1.917-3.217,2.3-2.667,2.3-1.7l7.2-0.15l0.15-0.6C9.817-2.883,10.1-3.133,10.5-3.2c0.667-0.1,1.883,0.967,3.65,3.2l0.15-2.7
			c0.133-1.767,1.534-1.2,4.2,1.7c0.167,0.3,0.367,0.283,0.6-0.05c0.267-0.4,0.4-1.05,0.4-1.95c0-0.933,0.567-1.25,1.7-0.95
			c1.1,0.333,1.7,0.867,1.8,1.6c0.1,0.9,0.267,1.4,0.5,1.5L25.15-2C25.85-2.5,26.217-3.067,26.25-3.7z"/>
	</g>
</symbol>
<symbol  id="Untitled-1.ai_x2F_Layer_1_x2F__x3C_Path_x3E__x5F_55" viewBox="0 -6.05 11.995 6.066">
	<g id="Layer_1_5_">
		<path style="fill-rule:evenodd;clip-rule:evenodd;" d="M10.7-0.05c0.466-0.167,0.85-0.8,1.15-1.9c0.3-1.133,0.133-1.767-0.5-1.9
			c-0.567-0.133-1.067-0.2-1.5-0.2h-0.5l0.3-0.6c0-0.467-0.483-0.767-1.45-0.9c-1.567-0.2-2.9-0.034-4,0.5
			c-0.034-0.167-0.133-0.333-0.3-0.5c-0.367-0.333-0.933-0.5-1.7-0.5c-1.233,0-1.9,0.167-2,0.5l0.5,1C1.033-3.883,0.8-3.383,0-3.05
			L0.7-1.2C6.8-0.2,10.133,0.183,10.7-0.05z"/>
	</g>
</symbol>
<symbol  id="Untitled-1.ai_x2F_Layer_1_x2F__x3C_Path_x3E__x5F_56" viewBox="0 -7.363 15.64 7.363">
	<g id="Layer_1_4_">
		<path style="fill-rule:evenodd;clip-rule:evenodd;" d="M10.2-5.6c0.5,0.267,1,0.633,1.5,1.1L13.85-2l1.1-1.15
			C15.617-4.083,15.8-5.033,15.5-6c-0.267-0.967-1.017-1.267-2.25-0.9L11.5-6c0.133-0.267,0.133-0.517,0-0.75
			c-0.2-0.467-0.867-0.667-2-0.6C8.4-7.283,7.433-6.867,6.6-6.1L5.7-5C5.567-5.567,5-5.85,4-5.85S1.95-5.567,0.85-5L1.5-4.35
			C1.967-3.883,1.467-2.433,0,0c0.933-0.1,1.85-0.3,2.75-0.6C4.583-1.233,5.5-2.15,5.5-3.35c0-1.2,0.367-1.417,1.1-0.65
			c0.367,0.367,0.733,0.867,1.1,1.5l0.65-0.25c0.4-0.367,0.566-1.067,0.5-2.1C8.783-5.883,9.233-6.133,10.2-5.6z"/>
	</g>
</symbol>
<symbol  id="Untitled-1.ai_x2F_Layer_1_x2F__x3C_Path_x3E__x5F_5_x5F_0" viewBox="0 -0.95 2.55 0.95">
	<g id="Layer_1_23_">
		<path style="fill-rule:evenodd;clip-rule:evenodd;fill:#51422D;" d="M2.55-0.45c0-0.333-0.417-0.5-1.25-0.5
			C0.433-0.95,0-0.783,0-0.45C0-0.15,0.433,0,1.3,0C2.133,0,2.55-0.15,2.55-0.45z"/>
	</g>
</symbol>
<symbol  id="Untitled-1.ai_x2F_Layer_1_x2F__x3C_Path_x3E__x5F_5_x5F_1" viewBox="0 -1.6 4.25 1.6">
	<g id="Layer_1_30_">
		<path style="fill-rule:evenodd;clip-rule:evenodd;fill:#51422D;" d="M0-0.8c0,0.233,0.217,0.417,0.65,0.55
			C1.05-0.083,1.55,0,2.15,0c0.567,0,1.067-0.083,1.5-0.25c0.4-0.133,0.6-0.317,0.6-0.55c0-0.233-0.2-0.417-0.6-0.55
			C3.217-1.517,2.717-1.6,2.15-1.6c-0.6,0-1.1,0.083-1.5,0.25C0.217-1.217,0-1.033,0-0.8z"/>
	</g>
</symbol>
<symbol  id="Untitled-1.ai_x2F_Layer_1_x2F__x3C_Path_x3E__x5F_5_x5F_2" viewBox="0 -0.75 1.95 0.75">
	<g id="Layer_1_37_">
		<path style="fill-rule:evenodd;clip-rule:evenodd;fill:#51422D;" d="M0-0.4C0-0.133,0.333,0,1,0c0.633,0,0.95-0.133,0.95-0.4
			c0-0.233-0.317-0.35-0.95-0.35C0.333-0.75,0-0.633,0-0.4z"/>
	</g>
</symbol>
<symbol  id="Untitled-1.ai_x2F_Layer_1_x2F__x3C_Path_x3E__x5F_5_x5F_3" viewBox="0 -0.95 2.6 0.95">
	<g id="Layer_1_44_">
		<path style="fill-rule:evenodd;clip-rule:evenodd;fill:#51422D;" d="M2.6-0.5c0-0.3-0.434-0.45-1.3-0.45S0-0.8,0-0.5
			C0-0.167,0.433,0,1.3,0S2.6-0.167,2.6-0.5z"/>
	</g>
</symbol>
<symbol  id="Untitled-1.ai_x2F_Layer_1_x2F__x3C_Path_x3E__x5F_5_x5F_4" viewBox="0 -2 5.35 2">
	<g id="Layer_1_51_">
		<path style="fill-rule:evenodd;clip-rule:evenodd;fill:#51422D;" d="M5.35-1c0-0.267-0.267-0.5-0.8-0.7C4.05-1.9,3.433-2,2.7-2
			C1.967-2,1.333-1.9,0.8-1.7C0.267-1.5,0-1.267,0-1s0.267,0.5,0.8,0.7C1.333-0.1,1.967,0,2.7,0c0.733,0,1.35-0.1,1.85-0.3
			C5.083-0.5,5.35-0.733,5.35-1z"/>
	</g>
</symbol>
<symbol  id="Untitled-1.ai_x2F_Layer_1_x2F__x3C_Path_x3E__x5F_5_x5F_5" viewBox="0 -2 5.35 2">
	<g id="Layer_1_58_">
		<path style="fill-rule:evenodd;clip-rule:evenodd;fill:#51422D;" d="M5.35-1c0-0.267-0.267-0.5-0.8-0.7C4.05-1.9,3.433-2,2.7-2
			C1.967-2,1.333-1.9,0.8-1.7C0.267-1.5,0-1.267,0-1s0.267,0.5,0.8,0.7C1.333-0.1,1.967,0,2.7,0c0.733,0,1.35-0.1,1.85-0.3
			C5.083-0.5,5.35-0.733,5.35-1z"/>
	</g>
</symbol>
<symbol  id="Untitled-1.ai_x2F_Layer_1_x2F__x3C_Path_x3E__x5F_6" viewBox="0 -0.95 2.1 0.95">
	<g id="Layer_1_22_">
		<path style="fill-rule:evenodd;clip-rule:evenodd;fill:#51422D;" d="M2.1-0.5c0-0.3-0.35-0.45-1.05-0.45C0.35-0.95,0-0.8,0-0.5
			C0-0.167,0.35,0,1.05,0C1.75,0,2.1-0.167,2.1-0.5z"/>
	</g>
</symbol>
<symbol  id="Untitled-1.ai_x2F_Layer_1_x2F__x3C_Path_x3E__x5F_6_x5F_0" viewBox="0 -1.6 3.45 1.6">
	<g id="Layer_1_29_">
		<path style="fill-rule:evenodd;clip-rule:evenodd;fill:#51422D;" d="M0-0.8c0,0.233,0.167,0.417,0.5,0.55
			C0.833-0.083,1.233,0,1.7,0c0.466,0,0.883-0.083,1.25-0.25c0.333-0.133,0.5-0.317,0.5-0.55c0-0.233-0.167-0.417-0.5-0.55
			C2.583-1.517,2.167-1.6,1.7-1.6c-0.467,0-0.867,0.083-1.2,0.25C0.167-1.217,0-1.033,0-0.8z"/>
	</g>
</symbol>
<symbol  id="Untitled-1.ai_x2F_Layer_1_x2F__x3C_Path_x3E__x5F_6_x5F_1" viewBox="0 -0.75 1.6 0.75">
	<g id="Layer_1_36_">
		<path style="fill-rule:evenodd;clip-rule:evenodd;fill:#51422D;" d="M0-0.35C0-0.117,0.267,0,0.8,0c0.534,0,0.8-0.117,0.8-0.35
			c0-0.267-0.267-0.4-0.8-0.4C0.267-0.75,0-0.617,0-0.35z"/>
	</g>
</symbol>
<symbol  id="Untitled-1.ai_x2F_Layer_1_x2F__x3C_Path_x3E__x5F_6_x5F_2" viewBox="0 -0.95 2.1 0.95">
	<g id="Layer_1_43_">
		<path style="fill-rule:evenodd;clip-rule:evenodd;fill:#51422D;" d="M2.1-0.5c0-0.3-0.35-0.45-1.05-0.45C0.35-0.95,0-0.8,0-0.5
			C0-0.167,0.35,0,1.05,0C1.75,0,2.1-0.167,2.1-0.5z"/>
	</g>
</symbol>
<symbol  id="Untitled-1.ai_x2F_Layer_1_x2F__x3C_Path_x3E__x5F_6_x5F_3" viewBox="0 -2 4.35 2">
	<g id="Layer_1_50_">
		<path style="fill-rule:evenodd;clip-rule:evenodd;fill:#51422D;" d="M4.35-1c0-0.267-0.217-0.5-0.65-0.7C3.267-1.9,2.75-2,2.15-2
			s-1.1,0.1-1.5,0.3C0.217-1.5,0-1.267,0-1s0.217,0.5,0.65,0.7C1.05-0.1,1.55,0,2.15,0S3.267-0.1,3.7-0.3
			C4.133-0.5,4.35-0.733,4.35-1z"/>
	</g>
</symbol>
<symbol  id="Untitled-1.ai_x2F_Layer_1_x2F__x3C_Path_x3E__x5F_6_x5F_4" viewBox="0 -2 4.35 2">
	<g id="Layer_1_57_">
		<path style="fill-rule:evenodd;clip-rule:evenodd;fill:#51422D;" d="M4.35-1c0-0.267-0.217-0.5-0.65-0.7C3.267-1.9,2.75-2,2.15-2
			s-1.1,0.1-1.5,0.3C0.217-1.5,0-1.267,0-1s0.217,0.5,0.65,0.7C1.05-0.1,1.55,0,2.15,0S3.267-0.1,3.7-0.3
			C4.133-0.5,4.35-0.733,4.35-1z"/>
	</g>
</symbol>
<symbol  id="Untitled-1.ai_x2F_Layer_1_x2F__x3C_Path_x3E__x5F_7" viewBox="0 -1.7 3.45 1.7">
	<g id="Layer_1_33_">
		<path style="fill-rule:evenodd;clip-rule:evenodd;fill:#51422D;" d="M0-0.85c0,0.233,0.167,0.434,0.5,0.6S1.233,0,1.7,0
			c0.466,0,0.883-0.083,1.25-0.25c0.333-0.167,0.5-0.367,0.5-0.6s-0.167-0.433-0.5-0.6C2.617-1.617,2.2-1.7,1.7-1.7
			C0.567-1.7,0-1.417,0-0.85z"/>
	</g>
</symbol>
<symbol  id="Untitled-1.ai_x2F_Layer_1_x2F__x3C_Path_x3E__x5F_8" viewBox="0 -4.15 9.4 4.15">
	<g id="Layer_1_15_">
		<path style="fill-rule:evenodd;clip-rule:evenodd;fill:#51422D;" d="M9.4-2.05c0-0.567-0.45-1.067-1.35-1.5
			C7.117-3.95,6-4.15,4.7-4.15c-1.3,0-2.4,0.2-3.3,0.6C0.467-3.117,0-2.617,0-2.05C0-1.483,0.467-1,1.4-0.6C2.3-0.2,3.4,0,4.7,0
			C6,0,7.117-0.2,8.05-0.6C8.95-1,9.4-1.483,9.4-2.05z"/>
	</g>
</symbol>
<symbol  id="Untitled-1.ai_x2F_Layer_1_x2F__x3C_Path_x3E__x5F_9" viewBox="0 -2.6 5.8 2.6">
	<g id="Layer_1_21_">
		<path style="fill-rule:evenodd;clip-rule:evenodd;fill:#51422D;" d="M5.8-1.3c0-0.367-0.283-0.684-0.85-0.95
			C4.383-2.483,3.7-2.6,2.9-2.6c-0.8,0-1.483,0.117-2.05,0.35C0.283-1.983,0-1.667,0-1.3s0.283,0.667,0.85,0.9
			C1.417-0.133,2.1,0,2.9,0c0.8,0,1.483-0.133,2.05-0.4C5.517-0.633,5.8-0.933,5.8-1.3z"/>
	</g>
</symbol>
<symbol  id="Untitled-1.ai_x2F_Layer_1_x2F__x3C_Path_x3E__x5F_9_x5F_0" viewBox="0 -4.25 9.6 4.25">
	<g id="Layer_1_28_">
		<path style="fill-rule:evenodd;clip-rule:evenodd;fill:#51422D;" d="M0-2.15c0,0.6,0.467,1.1,1.4,1.5C2.333-0.217,3.467,0,4.8,0
			c1.333,0,2.467-0.217,3.4-0.65c0.933-0.4,1.4-0.9,1.4-1.5c0-0.567-0.467-1.067-1.4-1.5c-0.934-0.4-2.067-0.6-3.4-0.6
			c-1.333,0-2.466,0.2-3.4,0.6C0.467-3.217,0-2.717,0-2.15z"/>
	</g>
</symbol>
<symbol  id="Untitled-1.ai_x2F_Layer_1_x2F__x3C_Path_x3E__x5F_9_x5F_1" viewBox="0 -2 4.45 2">
	<g id="Layer_1_35_">
		<path style="fill-rule:evenodd;clip-rule:evenodd;fill:#51422D;" d="M0-1c0,0.267,0.217,0.5,0.65,0.7C1.083-0.1,1.6,0,2.2,0
			c0.633,0,1.167-0.1,1.6-0.3C4.233-0.5,4.45-0.733,4.45-1S4.233-1.5,3.8-1.7C3.367-1.9,2.833-2,2.2-2C1.6-2,1.083-1.9,0.65-1.7
			C0.217-1.5,0-1.267,0-1z"/>
	</g>
</symbol>
<symbol  id="Untitled-1.ai_x2F_Layer_1_x2F__x3C_Path_x3E__x5F_9_x5F_2" viewBox="0 -2.55 5.8 2.55">
	<g id="Layer_1_42_">
		<path style="fill-rule:evenodd;clip-rule:evenodd;fill:#51422D;" d="M5.8-1.3c0-0.333-0.283-0.633-0.85-0.9
			C4.383-2.433,3.7-2.55,2.9-2.55c-0.8,0-1.483,0.117-2.05,0.35C0.283-1.933,0-1.633,0-1.3c0,0.367,0.283,0.683,0.85,0.95
			C1.417-0.117,2.1,0,2.9,0c0.8,0,1.483-0.117,2.05-0.35C5.517-0.617,5.8-0.933,5.8-1.3z"/>
	</g>
</symbol>
<symbol  id="Untitled-1.ai_x2F_Layer_1_x2F__x3C_Path_x3E__x5F_9_x5F_3" viewBox="0 -5.35 12.05 5.35">
	<g id="Layer_1_49_">
		<path style="fill-rule:evenodd;clip-rule:evenodd;fill:#51422D;" d="M12.05-2.7c0-0.733-0.583-1.35-1.75-1.85
			C9.1-5.083,7.667-5.35,6-5.35c-1.633,0-3.05,0.267-4.25,0.8C0.583-4.05,0-3.433,0-2.7c0,0.733,0.583,1.367,1.75,1.9
			C2.917-0.267,4.333,0,6,0s3.1-0.267,4.3-0.8C11.467-1.333,12.05-1.967,12.05-2.7z"/>
	</g>
</symbol>
<symbol  id="Untitled-1.ai_x2F_Layer_1_x2F__x3C_Path_x3E__x5F_9_x5F_4" viewBox="0 -5.35 12.05 5.35">
	<g id="Layer_1_56_">
		<path style="fill-rule:evenodd;clip-rule:evenodd;fill:#51422D;" d="M12.05-2.7c0-0.733-0.583-1.35-1.75-1.85
			c-1.2-0.534-2.617-0.8-4.25-0.8c-1.667,0-3.1,0.267-4.3,0.8C0.583-4.05,0-3.433,0-2.7c0,0.733,0.583,1.367,1.75,1.9
			C2.95-0.267,4.383,0,6.05,0c1.667,0,3.083-0.267,4.25-0.8C11.467-1.333,12.05-1.967,12.05-2.7z"/>
	</g>
</symbol>
<g>
	<defs>
		<path id="SVGID_7_" d="M309.65,28.25c-0.867-3.833-5.75-7.55-14.65-11.15c-8.967-3.6-21.167-6.733-36.6-9.4
			c-34.667-6.034-76.334-8.55-125-7.55c-49.5,1.033-84.066,4.1-103.7,9.2c-9.8,2.533-17.067,5.767-21.8,9.7
			C3.533,22.717,1,27.3,0.3,32.8c-0.017,0.134-0.033,0.268-0.05,0.4L0,35.2c-0.2,2.2-0.1,4.3,0.3,6.3
			c1.3,6.4,5.184,10.617,11.65,12.65c0.227,0.07,0.452,0.137,0.675,0.2l1.025,1.85c3.833,6.833,6.317,16.733,7.45,29.7
			c1.133,12.933,0.5,22.183-1.9,27.75l-0.05,0.149l-0.3,1.351v0.05c0.967-0.233,1.816-0.017,2.55,0.649
			c0.367,0.334,0.633,0.7,0.8,1.101l0.9-0.5c0.7-0.267,1.3-0.15,1.8,0.35c0.767,0.767,1.2,1.367,1.3,1.8l0.7-0.1
			c0.5,0,0.883,0.2,1.15,0.6c0.434,0.667,0.6,1.4,0.5,2.2c0.3-0.267,0.684-0.55,1.15-0.85c0.867-0.566,1.65-0.851,2.35-0.851
			c0.7,0,1.383,0.334,2.05,1c0.333,0.334,0.6,0.667,0.8,1l0.45-0.199c0.433-0.101,0.883-0.084,1.35,0.05l1.2,0.35l7.65-0.35
			c0.9,0,2.45-0.334,4.65-1c1.667-0.566,2.9-1.117,3.7-1.65c0.533-0.399,1.133-0.566,1.8-0.5c0.6,0.066,1,0.283,1.2,0.65l0.3,0.649
			c0.167-0.199,0.383-0.383,0.65-0.55c0.566-0.3,1.133-0.383,1.7-0.25l1.35,0.3l1.25-0.199c0.934-0.134,1.684-0.167,2.25-0.101
			l1.3,0.15l0.55,0.2c0.433,0.166,0.833,0.283,1.2,0.35c0.2-0.033,0.517-0.05,0.95-0.05c0.333-0.134,0.55-0.25,0.65-0.351
			c1.534-1.533,2.917-2.25,4.15-2.149c1.233,0.1,2.066,0.55,2.5,1.35c0.2-0.267,0.483-0.533,0.85-0.8
			c0.7-0.533,1.417-0.767,2.15-0.7c0.9,0.066,1.716,0.233,2.45,0.5s1.15,0.533,1.25,0.8l0.15,0.5l1.6,0.101
			c1.133,0.133,1.883,0.267,2.25,0.399l0.8,0.351H89c1.5,0.066,2.9,0.233,4.2,0.5l11.6,1.75c0.133-0.066,0.333-0.25,0.6-0.55
			c0.167-0.233,0.5-0.351,1-0.351h1.3c0.1-0.2,0.216-0.416,0.35-0.649c0.267-0.434,0.55-0.717,0.85-0.851
			c0.434-0.233,0.934-0.35,1.5-0.35c0.7,0,1.2,0.217,1.5,0.649l0.65,1c0.1-0.199,0.233-0.383,0.4-0.55
			c0.4-0.3,0.883-0.383,1.45-0.25l1.3,0.3l2.35-0.3c0.333,0,0.833,0.101,1.5,0.3l0.85-0.3c0.633-0.233,1.133-0.35,1.5-0.35
			c0.533,0,1.25,0.217,2.15,0.649h0.05c1.6-0.233,3.417-0.399,5.45-0.5l6.15-0.149c2.767-0.167,4.333-0.334,4.7-0.5
			c0.667-0.334,1.6-0.45,2.8-0.351c-0.034-0.233,0-0.5,0.1-0.8c0.167-0.533,0.534-0.866,1.1-1l1.3-0.35l0.85-0.5
			c0.733-0.267,1.517-0.217,2.35,0.149l2,0.851l0.85-0.15c0.733-0.133,1.45-0.2,2.15-0.2h1.65l0.851-0.5
			c0.699-0.3,1.466-0.35,2.3-0.149c1.333,0.333,2,0.783,2,1.35l0.8-0.55c0.634-0.333,1.267-0.434,1.9-0.3l1.5,0.35l0.85-0.05
			c0.6,0.033,1.033,0.15,1.3,0.35l0.65,0.5l0.25-0.6c0.3-0.467,0.717-0.767,1.25-0.9l2.3-0.6c0.733-0.1,1.3,0.05,1.7,0.45l1,1
			l0.8-0.45c0.634-0.167,1.15,0.033,1.55,0.6l1,1.351l0.8-0.4c0.667-0.233,1.351-0.217,2.051,0.05l3.149,1.351l1.65,0.149
			l0.399-0.649c0.367-0.4,0.801-0.566,1.301-0.5c0.767,0.1,1.199,0.434,1.3,1l0.55-0.8c0.566-0.567,1.333-0.851,2.3-0.851
			c1.566,0,2.566,0.267,3,0.8l0.8-0.35c0.634-0.233,1.15-0.283,1.551-0.15c0.566,0.2,0.949,0.584,1.149,1.15
			c0-0.3,1.117-0.4,3.351-0.3l9.25,0.1c3.5-0.1,6.017-0.25,7.55-0.45c2.434-0.3,3.899-0.466,4.399-0.5
			c1.067-0.1,1.934-0.033,2.601,0.2l1.5,0.5l1.1-0.45c0.9-0.3,1.767-0.383,2.601-0.25l2,0.351l1.1-0.3
			c0.833-0.2,1.566-0.267,2.2-0.2c1,0.1,1.5,0.55,1.5,1.35l0.649-0.45c0.601-0.233,1.284-0.25,2.051-0.05
			c1.199,0.334,2.033,0.601,2.5,0.8l0.949-0.25c0.801-0.199,1.65-0.333,2.551-0.399c0.899-0.066,1.55,0.05,1.949,0.35
			c0.2,0.167,0.317,0.334,0.351,0.5l0.8-0.399c0.667-0.2,1.233-0.233,1.7-0.101l1.2,0.3l0.199-0.6c0.233-0.4,0.667-0.634,1.301-0.7
			c1-0.133,1.666,0.084,2,0.65l0.949-0.9c0.733-0.566,1.417-0.717,2.051-0.45c1,0.467,1.5,1.134,1.5,2l0.75-0.199
			c0.533-0.067,0.949,0,1.25,0.199l0.649,0.5l0.65-0.199c0.533-0.067,1.149,0,1.85,0.199l1.65,0.5l4.5-0.449
			c3.233-0.434,5.467-1,6.7-1.7c0.199-0.101,1.333-0.783,3.399-2.05c0.834-0.534,1.417-0.733,1.75-0.601l0.851,0.3
			c0-0.233,0.05-0.517,0.149-0.85c0.2-0.634,0.584-1.116,1.15-1.45c0.566-0.366,1.1-0.416,1.6-0.149
			c0.267,0.1,0.467,0.25,0.601,0.449c-0.101-0.267-0.134-0.566-0.101-0.899c0.033-0.634,0.334-1.05,0.9-1.25
			c0.899-0.334,1.684-0.167,2.35,0.5l0.75-0.55c0.533-0.4,0.9-0.601,1.101-0.601c0.333,0,0.75-0.2,1.25-0.6
			c-0.534-2.7-1.034-8.3-1.5-16.8c-0.233-4.601-0.184-9.434,0.149-14.5c0.789-11.68,2.881-21.33,6.275-28.95
			c0.471-0.297,0.879-0.63,1.225-1c1.733-1.833,3.066-4.133,4-6.9c0.466-1.397,1.166-2.755,2.101-4.075
			C309.146,35.747,310.563,32.338,309.65,28.25z"/>
	</defs>
	<clipPath id="SVGID_8_">
		<use xlink:href="#SVGID_7_"  style="overflow:visible;"/>
	</clipPath>
	<g id="Layer_1_1_" style="clip-path:url(#SVGID_8_);">
		
			<use xlink:href="#Untitled-1.ai_x2F_Layer_1_x2F__x3C_Compound_Path_x3E__x5F_1"  width="106.256" height="13.938" y="-13.938" transform="matrix(1 0 0 -1 18.5498 110.9502)" style="overflow:visible;opacity:0.1484;enable-background:new    ;"/>
		
			<use xlink:href="#Untitled-1.ai_x2F_Layer_1_x2F__x3C_Compound_Path_x3E_"  width="26.144" height="8.661" y="-8.661" transform="matrix(1 0 0 -1 136.3999 111.7998)" style="overflow:visible;opacity:0.1484;enable-background:new    ;"/>
		
			<use xlink:href="#Untitled-1.ai_x2F_Layer_1_x2F__x3C_Path_x3E__x5F_56"  width="15.64" height="7.363" y="-7.363" transform="matrix(1 0 0 -1 168.7002 113.5996)" style="overflow:visible;opacity:0.1484;enable-background:new    ;"/>
		
			<use xlink:href="#Untitled-1.ai_x2F_Layer_1_x2F__x3C_Path_x3E__x5F_55"  width="11.995" height="6.066" y="-6.05" transform="matrix(1 0 0 -1 186.2002 115.4004)" style="overflow:visible;opacity:0.1484;enable-background:new    ;"/>
		
			<use xlink:href="#Untitled-1.ai_x2F_Layer_1_x2F__x3C_Path_x3E__x5F_54"  width="26.262" height="5.067" y="-5.067" transform="matrix(1 0 0 -1 222.4004 116.5996)" style="overflow:visible;opacity:0.1484;enable-background:new    ;"/>
		
			<use xlink:href="#Untitled-1.ai_x2F_Layer_1_x2F__x3C_Path_x3E__x5F_53"  width="38.906" height="11.2" y="-11.2" transform="matrix(1 0 0 -1 253.0498 111.0996)" style="overflow:visible;opacity:0.1484;enable-background:new    ;"/>
		
			<use xlink:href="#Untitled-1.ai_x2F_Layer_1_x2F__x3C_Clip_Group_0_x3E_"  width="303.35" height="103" y="-103" transform="matrix(1 0 0 -1 4.2998 32.4502)" style="overflow:visible;"/>
		
			<use xlink:href="#Untitled-1.ai_x2F_Layer_1_x2F__x3C_Path_x3E__x5F_52"  width="303.35" height="89.35" y="-89.35" transform="matrix(1 0 0 -1 4.2998 32.4502)" style="overflow:visible;opacity:0.8008;enable-background:new    ;"/>
		<path style="fill-rule:evenodd;clip-rule:evenodd;fill:#4C3B2B;" d="M309.65,28.25c1.399,6.267-2.684,10.933-12.25,14
			c-12.934,4.2-34.733,4.8-65.4,1.8c-34.6-3.333-57.25-4.883-67.95-4.65c-6.899,0.167-13.7,0.85-20.4,2.05
			c-5.333,1-12.883,2.783-22.65,5.35c-8.867,2.333-20.283,3.917-34.25,4.75c-13.9,0.833-27.383,0.733-40.45-0.3
			c-14.1-1.1-25.183-3.1-33.25-6C3.917,41.95-0.333,37.8,0.3,32.8C1,27.3,3.533,22.717,7.9,19.05c4.733-3.933,12-7.167,21.8-9.7
			c19.633-5.1,54.2-8.167,103.7-9.2c48.667-1,90.333,1.517,125,7.55c15.433,2.667,27.633,5.8,36.6,9.4
			C303.9,20.7,308.783,24.417,309.65,28.25z"/>
		<path style="fill-rule:evenodd;clip-rule:evenodd;fill:#644E3D;" d="M299.6,35.8c3.101-0.433,6-0.65,8.7-0.65
			c-2.467,2.333-4.133,4.8-5,7.4c-0.934,2.767-2.267,5.067-4,6.9c-2.399,2.566-7.899,3.517-16.5,2.85
			c-10.666-1.433-18.5-2.483-23.5-3.15c-4.033-0.533-12.967-1.05-26.8-1.55c-14.167-0.5-26.684-1.434-37.55-2.8
			c-14.634-2.2-23.8-3.4-27.5-3.6c-4.566-0.267-10.167,0.933-16.8,3.6c-6.5,2.6-13.433,4.434-20.8,5.5
			c-3,0.434-8.517,0.934-16.55,1.5c-2.5,0.167-7.95,1.534-16.35,4.1c-8.467,2.567-15.9,4.083-22.3,4.55
			c-7.667,0.6-14.433,0.216-20.3-1.15c-2.833-0.667-7.85-2.383-15.05-5.15c-3.367-1.3-7.633-1.3-12.8,0
			c-5.4,1.333-10.25,1.333-14.55,0C5.483,52.117,1.6,47.9,0.3,41.5c-0.4-2-0.5-4.1-0.3-6.3l0.35-2.7c0.6-1.933,1.55-2.7,2.85-2.3
			c0.966,0.333,2.433,1.5,4.4,3.5c5.7,5.7,9.816,8.95,12.35,9.75c2.066,0.667,4.167,0.833,6.3,0.5c1-0.167,2.9-0.667,5.7-1.5
			c5.167-1.633,10.066-1.733,14.7-0.3c6.434,1.967,12.867,2.767,19.3,2.4c6.3-0.4,11.3-1.867,15-4.4c1.667-1.133,3.9-1.717,6.7-1.75
			c1.733-0.033,4.817,0.217,9.25,0.75c10.5,1.233,19.417,1.233,26.75,0c6.733-1.133,13.75-1.633,21.05-1.5
			c5.167,0.1,10.033-0.733,14.6-2.5c5.4-2.066,12.117-2.7,20.15-1.9c4.566,0.5,11.517,1.467,20.85,2.9c0.9,0.1,10.467,0.4,28.7,0.9
			c13.667,0.367,23.434,1.4,29.3,3.1c6.2,1.767,10.934,1.967,14.2,0.6c0.967-0.4,2.583-1.083,4.85-2.05
			c2.367-0.833,5.134-1.35,8.301-1.55C290.583,36.817,295.233,36.367,299.6,35.8z"/>
		<path style="fill-rule:evenodd;clip-rule:evenodd;fill:#584534;" d="M299.3,45.8c2.2-2.333,3.3-2.867,3.3-1.6
			c-0.033,1.267-1.133,3.017-3.3,5.25c-2.399,2.566-7.899,3.517-16.5,2.85c-10.666-1.433-18.5-2.483-23.5-3.15
			c-4.033-0.533-12.967-1.05-26.8-1.55c-14.167-0.5-26.684-1.434-37.55-2.8c-14.634-2.2-23.8-3.4-27.5-3.6
			c-4.566-0.267-10.167,0.933-16.8,3.6c-6.5,2.6-13.433,4.434-20.8,5.5c-3,0.434-8.517,0.934-16.55,1.5
			c-2.5,0.167-7.95,1.534-16.35,4.1c-8.467,2.567-15.9,4.083-22.3,4.55c-7.667,0.6-14.433,0.216-20.3-1.15
			c-2.833-0.667-7.85-2.383-15.05-5.15c-3.367-1.3-7.633-1.3-12.8,0c-5.4,1.333-10.25,1.333-14.55,0c-4.467-2-6.717-3.467-6.75-4.4
			c-0.067-0.933,2.183-0.7,6.75,0.7c4.333,1.367,9.183,1.367,14.55,0c5.167-1.3,9.433-1.3,12.8,0c7.267,2.8,12.284,4.533,15.05,5.2
			c5.867,1.367,12.633,1.75,20.3,1.15c6.4-0.5,13.833-2.033,22.3-4.6c8.4-2.534,13.85-3.883,16.35-4.05
			c8.434-0.633,13.95-1.133,16.55-1.5c7.4-1.066,14.333-2.9,20.8-5.5c6.667-2.667,12.267-3.883,16.8-3.65
			c3.7,0.2,12.866,1.417,27.5,3.65c10.866,1.367,23.383,2.283,37.55,2.75c13.833,0.5,22.767,1.017,26.8,1.55
			c5,0.667,12.834,1.733,23.5,3.2C291.4,49.317,296.9,48.367,299.3,45.8z"/>
		<path style="fill-rule:evenodd;clip-rule:evenodd;fill:#644E3D;" d="M46.3,32.85c4.4-1.6,9.733-2.4,16-2.4
			c6.267,0,11.617,0.8,16.05,2.4c4.4,1.6,6.6,3.533,6.6,5.8s-2.2,4.184-6.6,5.75c-4.434,1.6-9.783,2.4-16.05,2.4
			c-6.267,0-11.6-0.8-16-2.4c-4.433-1.566-6.65-3.483-6.65-5.75S41.867,34.45,46.3,32.85z"/>
		<path style="fill-rule:evenodd;clip-rule:evenodd;fill:#4C3B2B;" d="M82.3,35.8c0,1.833-1.767,3.4-5.3,4.7s-7.817,1.95-12.85,1.95
			S54.833,41.8,51.3,40.5c-3.566-1.3-5.35-2.867-5.35-4.7c0-1.833,1.783-3.4,5.35-4.7c3.534-1.3,7.817-1.95,12.85-1.95
			S73.467,29.8,77,31.1C80.533,32.4,82.3,33.967,82.3,35.8z"/>
		<path style="fill-rule:evenodd;clip-rule:evenodd;fill:#644E3D;" d="M19.3,32.25c0,0.933-0.816,1.733-2.45,2.4
			c-1.633,0.667-3.6,1-5.9,1c-2.3,0-4.25-0.333-5.85-1c-1.633-0.667-2.45-1.467-2.45-2.4s0.817-1.733,2.45-2.4
			c1.6-0.667,3.55-1,5.85-1c2.3,0,4.267,0.333,5.9,1C18.483,30.517,19.3,31.317,19.3,32.25z"/>
		<path style="fill-rule:evenodd;clip-rule:evenodd;fill:#644E3D;" d="M24.3,34.9c0,0.567-0.483,1.05-1.45,1.45
			c-1,0.4-2.184,0.6-3.55,0.6s-2.55-0.2-3.55-0.6c-0.967-0.4-1.45-0.883-1.45-1.45c0-0.533,0.483-1,1.45-1.4
			c1-0.4,2.183-0.6,3.55-0.6s2.55,0.2,3.55,0.6C23.817,33.9,24.3,34.367,24.3,34.9z"/>
		<path style="fill-rule:evenodd;clip-rule:evenodd;fill:#644E3D;" d="M24.05,38.55c0.733,0.3,1.1,0.667,1.1,1.1
			c0,0.434-0.367,0.783-1.1,1.05c-0.733,0.3-1.617,0.45-2.65,0.45c-1.066,0-1.95-0.15-2.65-0.45c-0.733-0.267-1.1-0.617-1.1-1.05
			c0-0.433,0.367-0.8,1.1-1.1c0.733-0.3,1.617-0.45,2.65-0.45S23.317,38.25,24.05,38.55z"/>
		<path style="fill-rule:evenodd;clip-rule:evenodd;fill:#644E3D;" d="M28.55,37.25c0,0.233-0.183,0.417-0.55,0.55
			c-0.367,0.167-0.833,0.25-1.4,0.25c-0.533,0-0.983-0.083-1.35-0.25c-0.4-0.133-0.6-0.316-0.6-0.55c0-0.2,0.2-0.367,0.6-0.5
			c0.367-0.167,0.817-0.25,1.35-0.25s1,0.083,1.4,0.25C28.367,36.883,28.55,37.05,28.55,37.25z"/>
		<path style="fill-rule:evenodd;clip-rule:evenodd;fill:#644E3D;" d="M119.25,36.15c0,0.2-0.183,0.383-0.55,0.55
			c-0.4,0.167-0.867,0.25-1.4,0.25c-0.5,0-0.95-0.083-1.35-0.25c-0.4-0.167-0.6-0.35-0.6-0.55c0-0.233,0.2-0.417,0.6-0.55
			c0.367-0.167,0.816-0.25,1.35-0.25c0.567,0,1.034,0.083,1.4,0.25C119.067,35.733,119.25,35.917,119.25,36.15z"/>
		<path style="fill-rule:evenodd;clip-rule:evenodd;fill:#644E3D;" d="M302.95,30c0,0.233-0.2,0.417-0.601,0.55
			c-0.366,0.167-0.833,0.25-1.399,0.25c-0.533,0-0.983-0.083-1.351-0.25C299.2,30.417,299,30.233,299,30s0.2-0.417,0.6-0.55
			c0.367-0.167,0.817-0.25,1.351-0.25c0.566,0,1.033,0.083,1.399,0.25C302.75,29.583,302.95,29.767,302.95,30z"/>
		<path style="fill-rule:evenodd;clip-rule:evenodd;fill:#644E3D;" d="M123.95,34.15c0,0.2-0.2,0.383-0.6,0.55
			c-0.4,0.167-0.867,0.25-1.4,0.25c-0.5,0-0.95-0.083-1.35-0.25c-0.4-0.167-0.6-0.35-0.6-0.55c0-0.233,0.2-0.417,0.6-0.55
			c0.367-0.167,0.816-0.25,1.35-0.25c0.566,0,1.033,0.083,1.4,0.25C123.75,33.733,123.95,33.917,123.95,34.15z"/>
		<path style="fill-rule:evenodd;clip-rule:evenodd;fill:#4C3B2B;" d="M14.9,40.1c0,0.2-0.183,0.383-0.55,0.55
			c-0.4,0.167-0.867,0.25-1.4,0.25c-0.5,0-0.95-0.083-1.35-0.25C11.2,40.483,11,40.3,11,40.1c0-0.233,0.2-0.417,0.6-0.55
			c0.367-0.167,0.816-0.25,1.35-0.25c0.566,0,1.033,0.083,1.4,0.25C14.717,39.683,14.9,39.867,14.9,40.1z"/>
		<path style="fill-rule:evenodd;clip-rule:evenodd;fill:#4C3B2B;" d="M14.95,42.95c0,0.4-0.383,0.75-1.15,1.05
			c-0.767,0.267-1.683,0.4-2.75,0.4c-1.066,0-2-0.133-2.8-0.4c-0.767-0.3-1.15-0.65-1.15-1.05c0-0.4,0.383-0.733,1.15-1
			c0.8-0.3,1.733-0.45,2.8-0.45c1.067,0,1.983,0.15,2.75,0.45C14.567,42.217,14.95,42.55,14.95,42.95z"/>
		<path style="fill-rule:evenodd;clip-rule:evenodd;fill:#4C3B2B;" d="M6.5,44.3c1,0,1.5,0.184,1.5,0.55c0,0.4-0.5,0.6-1.5,0.6
			c-1.033,0-1.55-0.2-1.55-0.6C4.95,44.483,5.467,44.3,6.5,44.3z"/>
		<path style="fill-rule:evenodd;clip-rule:evenodd;fill:#4C3B2B;" d="M11.05,45.4c0,0.3-0.4,0.45-1.2,0.45
			c-0.767,0-1.15-0.15-1.15-0.45c0-0.267,0.383-0.4,1.15-0.4C10.65,45,11.05,45.133,11.05,45.4z"/>
		<path style="fill-rule:evenodd;clip-rule:evenodd;fill:#4C3B2B;" d="M19.55,30.6c0,0.767-0.65,1.433-1.95,2
			c-1.3,0.533-2.867,0.8-4.7,0.8c-1.833,0-3.417-0.267-4.75-0.8c-1.3-0.567-1.95-1.233-1.95-2s0.65-1.417,1.95-1.95
			c1.333-0.533,2.917-0.8,4.75-0.8c1.833,0,3.4,0.267,4.7,0.8C18.9,29.183,19.55,29.833,19.55,30.6z"/>
		<path style="fill-rule:evenodd;clip-rule:evenodd;fill:#644E3D;" d="M105.5,35.9c0,0.934-1.4,1.733-4.2,2.4
			c-2.8,0.667-6.2,1-10.2,1s-7.4-0.333-10.2-1c-2.833-0.667-4.25-1.466-4.25-2.4c0-0.933,1.417-1.717,4.25-2.35
			c2.8-0.667,6.2-1,10.2-1c3.967,0,7.367,0.333,10.2,1C104.1,34.183,105.5,34.967,105.5,35.9z"/>
		<path style="fill-rule:evenodd;clip-rule:evenodd;fill:#644E3D;" d="M114.2,38.6c0,0.566-0.85,1.033-2.55,1.4
			c-1.7,0.4-3.75,0.6-6.15,0.6c-2.367,0-4.4-0.2-6.1-0.6c-1.7-0.367-2.55-0.833-2.55-1.4c0-0.567,0.85-1.05,2.55-1.45
			c1.667-0.4,3.7-0.6,6.1-0.6s4.45,0.2,6.15,0.6C113.35,37.55,114.2,38.033,114.2,38.6z"/>
		<path style="fill-rule:evenodd;clip-rule:evenodd;fill:#644E3D;" d="M115.65,43.3c0,0.434-0.633,0.784-1.9,1.05
			c-1.3,0.3-2.85,0.45-4.65,0.45c-1.8,0-3.333-0.15-4.6-0.45c-1.267-0.267-1.9-0.617-1.9-1.05c0-0.433,0.633-0.783,1.9-1.05
			c1.267-0.3,2.8-0.45,4.6-0.45c1.8,0,3.35,0.15,4.65,0.45C115.017,42.517,115.65,42.867,115.65,43.3z"/>
		<path style="fill-rule:evenodd;clip-rule:evenodd;fill:#644E3D;" d="M121.55,40.95c0,0.233-0.333,0.417-1,0.55
			c-0.633,0.167-1.417,0.25-2.35,0.25c-0.967,0-1.767-0.083-2.4-0.25c-0.667-0.133-1-0.317-1-0.55c0-0.233,0.333-0.417,1-0.55
			c0.633-0.167,1.434-0.25,2.4-0.25c0.933,0,1.716,0.083,2.35,0.25C121.217,40.533,121.55,40.717,121.55,40.95z"/>
		<path style="fill-rule:evenodd;clip-rule:evenodd;fill:#4C3B2B;" d="M97.9,43.75c0,0.233-0.333,0.417-1,0.55
			c-0.633,0.167-1.433,0.25-2.4,0.25c-0.933,0-1.717-0.083-2.35-0.25c-0.667-0.133-1-0.316-1-0.55s0.333-0.417,1-0.55
			c0.633-0.167,1.417-0.25,2.35-0.25c0.967,0,1.767,0.083,2.4,0.25C97.567,43.333,97.9,43.517,97.9,43.75z"/>
		<path style="fill-rule:evenodd;clip-rule:evenodd;fill:#4C3B2B;" d="M65,47.15c0,0.2-0.333,0.383-1,0.55
			c-0.667,0.167-1.45,0.25-2.35,0.25c-0.933,0-1.733-0.083-2.4-0.25c-0.667-0.167-1-0.35-1-0.55c0-0.233,0.333-0.417,1-0.55
			c0.633-0.167,1.433-0.25,2.4-0.25c0.934,0,1.717,0.083,2.35,0.25C64.667,46.733,65,46.917,65,47.15z"/>
		<path style="fill-rule:evenodd;clip-rule:evenodd;fill:#4C3B2B;" d="M98,46.6c0,0.433-0.667,0.783-2,1.05
			c-1.3,0.3-2.9,0.45-4.8,0.45c-1.9,0-3.5-0.15-4.8-0.45c-1.333-0.267-2-0.617-2-1.05c0-0.4,0.667-0.733,2-1
			c1.333-0.3,2.934-0.45,4.8-0.45s3.466,0.15,4.8,0.45C97.333,45.867,98,46.2,98,46.6z"/>
		<path style="fill-rule:evenodd;clip-rule:evenodd;fill:#4C3B2B;" d="M85.95,48.55c0,0.367-0.883,0.55-2.65,0.55
			c-0.733,0-1.35-0.05-1.85-0.15c-0.5-0.1-0.75-0.233-0.75-0.4c0-0.4,0.867-0.6,2.6-0.6C85.067,47.95,85.95,48.15,85.95,48.55z"/>
		<path style="fill-rule:evenodd;clip-rule:evenodd;fill:#4C3B2B;" d="M237.35,39.55c0-0.4,0.884-0.6,2.65-0.6
			c1.733,0,2.6,0.2,2.6,0.6c0,0.367-0.866,0.55-2.6,0.55c-0.733,0-1.35-0.05-1.85-0.15C237.616,39.85,237.35,39.717,237.35,39.55z"
			/>
		<path style="fill-rule:evenodd;clip-rule:evenodd;fill:#4C3B2B;" d="M60.3,49.85c0,0.4-0.883,0.6-2.65,0.6S55,50.25,55,49.85
			c0-0.367,0.883-0.55,2.65-0.55c0.733,0,1.35,0.05,1.85,0.15C60.033,49.583,60.3,49.717,60.3,49.85z"/>
		<path style="fill-rule:evenodd;clip-rule:evenodd;fill:#4C3B2B;" d="M105.95,34.3c0,0.767-1.117,1.417-3.35,1.95
			c-2.267,0.533-5,0.8-8.2,0.8c-3.2,0-5.933-0.267-8.2-0.8c-2.267-0.533-3.4-1.183-3.4-1.95c0-0.767,1.133-1.417,3.4-1.95
			c2.267-0.533,5-0.8,8.2-0.8c3.2,0,5.934,0.267,8.2,0.8C104.833,32.883,105.95,33.533,105.95,34.3z"/>
		<path style="fill-rule:evenodd;clip-rule:evenodd;fill:#644E3D;" d="M289.85,30.9c0,0.934-1.399,1.733-4.199,2.4
			c-2.834,0.667-6.25,1-10.25,1s-7.4-0.333-10.2-1c-2.834-0.667-4.25-1.466-4.25-2.4c0-0.933,1.416-1.717,4.25-2.35
			c2.833-0.667,6.233-1,10.2-1c4,0,7.416,0.333,10.25,1C288.45,29.183,289.85,29.967,289.85,30.9z"/>
		<path style="fill-rule:evenodd;clip-rule:evenodd;fill:#644E3D;" d="M289.85,31.55c2.4,0,4.45,0.2,6.15,0.6
			c1.667,0.4,2.5,0.883,2.5,1.45c0,0.566-0.833,1.033-2.5,1.4c-1.7,0.4-3.75,0.6-6.15,0.6c-2.399,0-4.433-0.2-6.1-0.6
			c-1.7-0.367-2.55-0.833-2.55-1.4c0-0.567,0.85-1.05,2.55-1.45C285.417,31.75,287.45,31.55,289.85,31.55z"/>
		<path style="fill-rule:evenodd;clip-rule:evenodd;fill:#644E3D;" d="M288.85,37.25c1.267-0.3,2.801-0.45,4.601-0.45
			s3.333,0.15,4.6,0.45c1.267,0.267,1.9,0.617,1.9,1.05c0,0.434-0.634,0.784-1.9,1.05c-1.267,0.3-2.8,0.45-4.6,0.45
			s-3.334-0.15-4.601-0.45c-1.267-0.267-1.899-0.617-1.899-1.05C286.95,37.867,287.583,37.517,288.85,37.25z"/>
		<path style="fill-rule:evenodd;clip-rule:evenodd;fill:#644E3D;" d="M305.9,35.95c0,0.233-0.334,0.417-1,0.55
			c-0.634,0.167-1.434,0.25-2.4,0.25c-0.934,0-1.717-0.083-2.35-0.25c-0.667-0.133-1-0.317-1-0.55c0-0.233,0.333-0.417,1-0.55
			c0.633-0.167,1.416-0.25,2.35-0.25c0.967,0,1.767,0.083,2.4,0.25C305.566,35.533,305.9,35.717,305.9,35.95z"/>
		<path style="fill-rule:evenodd;clip-rule:evenodd;fill:#4C3B2B;" d="M282.25,38.75c0,0.233-0.333,0.417-1,0.55
			c-0.667,0.167-1.467,0.25-2.4,0.25c-0.933,0-1.733-0.083-2.399-0.25c-0.667-0.133-1-0.316-1-0.55s0.333-0.417,1-0.55
			c0.666-0.167,1.467-0.25,2.399-0.25c0.934,0,1.733,0.083,2.4,0.25C281.917,38.333,282.25,38.517,282.25,38.75z"/>
		<path style="fill-rule:evenodd;clip-rule:evenodd;fill:#4C3B2B;" d="M295,43.3c0,0.4-0.667,0.75-2,1.05
			c-1.333,0.267-2.934,0.4-4.8,0.4c-1.867,0-3.467-0.133-4.8-0.4c-1.334-0.3-2-0.65-2-1.05c0-0.433,0.666-0.783,2-1.05
			c1.3-0.3,2.899-0.45,4.8-0.45c1.899,0,3.5,0.15,4.8,0.45C294.333,42.517,295,42.867,295,43.3z"/>
		<path style="fill-rule:evenodd;clip-rule:evenodd;fill:#4C3B2B;" d="M169.65,34.3c0,0.4-0.667,0.75-2,1.05
			c-1.334,0.267-2.934,0.4-4.801,0.4c-1.866,0-3.466-0.133-4.8-0.4c-1.333-0.3-2-0.65-2-1.05c0-0.433,0.667-0.783,2-1.05
			c1.3-0.3,2.9-0.45,4.8-0.45c1.9,0,3.5,0.15,4.801,0.45C168.983,33.517,169.65,33.867,169.65,34.3z"/>
		<path style="fill-rule:evenodd;clip-rule:evenodd;fill:#4C3B2B;" d="M276.6,44.15c0,0.367-0.883,0.55-2.649,0.55
			c-0.733,0-1.351-0.05-1.851-0.15c-0.5-0.1-0.75-0.233-0.75-0.4c0-0.4,0.867-0.6,2.601-0.6C275.717,43.55,276.6,43.75,276.6,44.15z
			"/>
		<path style="fill-rule:evenodd;clip-rule:evenodd;fill:#4C3B2B;" d="M237.3,40.5c0,0.3-0.383,0.45-1.149,0.45
			c-0.801,0-1.2-0.15-1.2-0.45s0.399-0.45,1.2-0.45C236.917,40.05,237.3,40.2,237.3,40.5z"/>
		<path style="fill-rule:evenodd;clip-rule:evenodd;fill:#4C3B2B;" d="M296.5,39.7c0-0.3,0.384-0.45,1.15-0.45
			s1.149,0.15,1.149,0.45c0,0.3-0.383,0.45-1.149,0.45S296.5,40,296.5,39.7z"/>
		<path style="fill-rule:evenodd;clip-rule:evenodd;fill:#4C3B2B;" d="M142.6,40.15c0,0.367-0.883,0.55-2.65,0.55
			c-1.733,0-2.6-0.184-2.6-0.55c0-0.4,0.867-0.6,2.6-0.6C141.717,39.55,142.6,39.75,142.6,40.15z"/>
		<path style="fill-rule:evenodd;clip-rule:evenodd;fill:#4C3B2B;" d="M135.25,41.7c0,0.367-0.867,0.55-2.6,0.55
			c-1.767,0-2.65-0.183-2.65-0.55s0.883-0.55,2.65-0.55c0.733,0,1.35,0.05,1.85,0.15C135,41.433,135.25,41.567,135.25,41.7z"/>
		<path style="fill-rule:evenodd;clip-rule:evenodd;fill:#4C3B2B;" d="M290.3,29.3c0,0.767-1.133,1.417-3.399,1.95s-5,0.8-8.2,0.8
			c-3.167,0-5.884-0.267-8.15-0.8s-3.399-1.183-3.399-1.95c0-0.767,1.133-1.417,3.399-1.95c2.233-0.533,4.95-0.8,8.15-0.8
			c3.233,0,5.967,0.267,8.2,0.8C289.167,27.883,290.3,28.533,290.3,29.3z"/>
		<path style="fill-rule:evenodd;clip-rule:evenodd;fill:#644E3D;" d="M159.5,35.6c0,0.933-1.4,1.717-4.2,2.35
			c-2.833,0.667-6.233,1-10.2,1c-4,0-7.4-0.333-10.2-1c-2.833-0.633-4.25-1.417-4.25-2.35c0-0.934,1.417-1.733,4.25-2.4
			c2.8-0.667,6.2-1,10.2-1s7.4,0.333,10.2,1C158.1,33.867,159.5,34.667,159.5,35.6z"/>
		<path style="fill-rule:evenodd;clip-rule:evenodd;fill:#4C3B2B;" d="M159.95,33.5c0,0.633-1.467,1.167-4.4,1.6
			c-2.933,0.467-6.466,0.7-10.6,0.7c-4.1,0-7.633-0.233-10.6-0.7c-2.934-0.434-4.4-0.967-4.4-1.6s1.466-1.183,4.4-1.65
			c2.9-0.434,6.433-0.65,10.6-0.65c4.167,0,7.7,0.216,10.6,0.65C158.483,32.317,159.95,32.867,159.95,33.5z"/>
		<path style="fill-rule:evenodd;clip-rule:evenodd;fill:#644E3D;" d="M195.35,33.6c0-0.934,1.417-1.733,4.25-2.4
			c2.801-0.667,6.2-1,10.2-1s7.4,0.333,10.2,1c2.833,0.667,4.25,1.466,4.25,2.4c0,0.933-1.417,1.717-4.25,2.35
			c-2.833,0.667-6.233,1-10.2,1c-4,0-7.399-0.333-10.2-1C196.767,35.317,195.35,34.533,195.35,33.6z"/>
		<path style="fill-rule:evenodd;clip-rule:evenodd;fill:#644E3D;" d="M227.7,30.25c0-0.567,0.85-1.05,2.55-1.45
			c1.667-0.4,3.7-0.6,6.1-0.6c2.4,0,4.45,0.2,6.15,0.6c1.667,0.4,2.5,0.883,2.5,1.45s-0.833,1.05-2.5,1.45
			c-1.733,0.4-3.783,0.6-6.15,0.6c-2.366,0-4.399-0.2-6.1-0.6C228.55,31.3,227.7,30.817,227.7,30.25z"/>
		<path style="fill-rule:evenodd;clip-rule:evenodd;fill:#644E3D;" d="M226.25,34.95c0-0.4,0.634-0.75,1.9-1.05
			c1.267-0.3,2.8-0.45,4.6-0.45s3.333,0.15,4.6,0.45c1.267,0.3,1.9,0.65,1.9,1.05c0,0.433-0.634,0.8-1.9,1.1
			c-1.267,0.3-2.8,0.45-4.6,0.45s-3.333-0.15-4.6-0.45C226.884,35.75,226.25,35.383,226.25,34.95z"/>
		<path style="fill-rule:evenodd;clip-rule:evenodd;fill:#644E3D;" d="M171.05,30.85c1.267-0.3,2.8-0.45,4.601-0.45
			c1.8,0,3.333,0.15,4.6,0.45c1.267,0.3,1.9,0.667,1.9,1.1c0,0.433-0.634,0.783-1.9,1.05c-1.267,0.3-2.8,0.45-4.6,0.45
			c-1.801,0-3.334-0.15-4.601-0.45c-1.267-0.267-1.899-0.617-1.899-1.05C169.15,31.517,169.783,31.15,171.05,30.85z"/>
		<path style="fill-rule:evenodd;clip-rule:evenodd;fill:#644E3D;" d="M220.3,32.6c0-0.233,0.334-0.417,1-0.55
			c0.634-0.167,1.434-0.25,2.4-0.25c0.934,0,1.733,0.083,2.399,0.25c0.667,0.133,1,0.317,1,0.55s-0.333,0.417-1,0.55
			c-0.666,0.167-1.466,0.25-2.399,0.25c-0.967,0-1.767-0.083-2.4-0.25C220.634,33.017,220.3,32.833,220.3,32.6z"/>
		<path style="fill-rule:evenodd;clip-rule:evenodd;fill:#4C3B2B;" d="M244,35.4c0-0.2,0.333-0.383,1-0.55
			c0.667-0.167,1.45-0.25,2.35-0.25c0.934,0,1.733,0.083,2.4,0.25c0.667,0.167,1,0.35,1,0.55c0,0.233-0.333,0.417-1,0.55
			c-0.634,0.167-1.434,0.25-2.4,0.25c-0.933,0-1.716-0.083-2.35-0.25C244.333,35.817,244,35.633,244,35.4z"/>
		<path style="fill-rule:evenodd;clip-rule:evenodd;fill:#4C3B2B;" d="M255.5,37.25c1.3,0.267,1.95,0.617,1.95,1.05
			c0,0.4-0.65,0.75-1.95,1.05c-1.333,0.267-2.95,0.4-4.85,0.4c-1.867,0-3.467-0.133-4.801-0.4c-1.3-0.3-1.949-0.65-1.949-1.05
			c0-0.433,0.649-0.783,1.949-1.05c1.334-0.3,2.934-0.45,4.801-0.45C252.55,36.8,254.167,36.95,255.5,37.25z"/>
		<path style="fill-rule:evenodd;clip-rule:evenodd;fill:#4C3B2B;" d="M255.95,40.2c0-0.367,0.866-0.55,2.6-0.55
			c0.733,0,1.351,0.05,1.851,0.15c0.533,0.133,0.8,0.267,0.8,0.4c0,0.367-0.884,0.55-2.65,0.55c-0.733,0-1.35-0.05-1.85-0.15
			S255.95,40.367,255.95,40.2z"/>
		<path style="fill-rule:evenodd;clip-rule:evenodd;fill:#4C3B2B;" d="M194.9,31.95c0-0.767,1.133-1.417,3.399-1.95s5-0.8,8.2-0.8
			s5.934,0.267,8.2,0.8c2.233,0.533,3.35,1.183,3.35,1.95c0,0.767-1.116,1.417-3.35,1.95c-2.267,0.533-5,0.8-8.2,0.8
			s-5.934-0.267-8.2-0.8S194.9,32.717,194.9,31.95z"/>
		
			<use xlink:href="#Untitled-1.ai_x2F_Layer_1_x2F__x3C_Group_x3E__x5F_6"  width="74.8" height="13.55" y="-13.55" transform="matrix(1 0 0 -1 210.2002 105.3496)" style="overflow:visible;opacity:0.3008;enable-background:new    ;"/>
		
			<use xlink:href="#Untitled-1.ai_x2F_Layer_1_x2F__x3C_Group_x3E__x5F_5"  width="46.4" height="9.35" y="-9.35" transform="matrix(1 0 0 -1 195.0996 87.7998)" style="overflow:visible;opacity:0.3008;enable-background:new    ;"/>
		
			<use xlink:href="#Untitled-1.ai_x2F_Layer_1_x2F__x3C_Group_x3E__x5F_4"  width="76.4" height="15.45" y="-15.45" transform="matrix(1 0 0 -1 145.8501 47.6499)" style="overflow:visible;opacity:0.3008;enable-background:new    ;"/>
		
			<use xlink:href="#Untitled-1.ai_x2F_Layer_1_x2F__x3C_Group_x3E__x5F_3"  width="35.45" height="7.2" y="-7.2" transform="matrix(1 0 0 -1 23.0498 64.4502)" style="overflow:visible;opacity:0.3008;enable-background:new    ;"/>
		
			<use xlink:href="#Untitled-1.ai_x2F_Layer_1_x2F__x3C_Group_x3E__x5F_2_x5F_0"  width="46.45" height="9.35" y="-9.35" transform="matrix(1 0 0 -1 154.9502 96.6504)" style="overflow:visible;opacity:0.3008;enable-background:new    ;"/>
		
			<use xlink:href="#Untitled-1.ai_x2F_Layer_1_x2F__x3C_Group_x3E__x5F_1_x5F_0"  width="95.95" height="19.4" y="-19.4" transform="matrix(1 0 0 -1 31.7002 66.3999)" style="overflow:visible;opacity:0.3008;enable-background:new    ;"/>
		
			<use xlink:href="#Untitled-1.ai_x2F_Layer_1_x2F__x3C_Group_x3E_"  width="95.95" height="19.4" y="-19.4" transform="matrix(1 0 0 -1 61.3999 99.25)" style="overflow:visible;opacity:0.3008;enable-background:new    ;"/>
	</g>
</g>
</svg>
