<?xml version="1.0" encoding="iso-8859-1"?>
<!-- Generator: Adobe Illustrator 15.1.0, SVG Export Plug-In . SVG Version: 6.00 Build 0)  -->
<!DOCTYPE svg PUBLIC "-//W3C//DTD SVG 1.1//EN" "http://www.w3.org/Graphics/SVG/1.1/DTD/svg11.dtd">
<svg version="1.1" id="Layer_1" xmlns="http://www.w3.org/2000/svg" xmlns:xlink="http://www.w3.org/1999/xlink" x="0px" y="0px"
	 width="309px" height="191.6px" viewBox="0 0 309 191.6" style="enable-background:new 0 0 309 191.6;" xml:space="preserve">
<symbol  id="Untitled-1.ai_x2F_Layer_1_x2F__x3C_Clip_Group_0_x3E_" viewBox="0 -161.4 303.3 161.4">
	<g id="Layer_1_57_">
	</g>
	<g>
		<defs>
			<path id="SVGID_1_" d="M296.25-22.75c2.433,9.567,4.783,17.15,7.05,22.75L0-11.4c2.1-4.967,4.35-11.684,6.75-20.15
				c4.767-16.934,7.85-34.2,9.25-51.8c1.233-15.633,1.15-31.383-0.25-47.25c0.5,0.5,1.033,0.467,1.6-0.1l2-2l7.5-1.5
				c0.433,0.5,0.95,0.983,1.55,1.45c1.267,0.9,2.417,1.25,3.45,1.05c1.033-0.2,1.683-0.933,1.95-2.2
				c0.133-0.633,0.15-1.233,0.05-1.8l1.75,0.7c1.333,0.4,2.417,0.5,3.25,0.3l2-0.5l2-0.8c1.333-0.767,2-1.667,2-2.7v-0.75
				c9.133,0.067,17.1-0.283,23.9-1.05c1.133,0.233,3.2,0.75,6.2,1.55c2.633,0.567,4.433,0.65,5.4,0.25l2.5-1l1.65,0.85
				c1.333,0.5,2.617,0.55,3.85,0.15c1.267-0.433,2.15-1.066,2.65-1.9c0.233-0.4,0.35-0.767,0.35-1.1l1.7,0.75
				c1.4,0.333,2.833,0.083,4.3-0.75l3.5-2c0.267,0.4,0.667,0.817,1.2,1.25c1.067,0.833,2.333,1.25,3.8,1.25
				c1.6,0,2.767-0.566,3.5-1.7c0.633-0.967,0.8-1.9,0.5-2.8l-0.5-1.5l2.5,0.75c1.833,0.333,3.167,0.083,4-0.75l2-2
				c0.433,0.9,1.033,1.817,1.8,2.75c1.6,1.833,3.333,2.75,5.2,2.75s3.1-0.667,3.7-2c0.3-0.667,0.4-1.333,0.3-2l1.65,0.95
				c1.333,0.567,2.617,0.75,3.85,0.55l3-0.5l1.4,0.25c1.167,0.167,2.367,0.25,3.6,0.25h5.5c0,0.233,0.133,0.55,0.4,0.95
				c0.5,0.733,1.367,1.417,2.6,2.05c1.267,0.633,2.4,0.65,3.4,0.05c0.5-0.3,0.867-0.65,1.1-1.05l0.5,1.95
				c0.667,1.233,1.833,1.75,3.5,1.55c2.667-0.333,4.833-0.667,6.5-1h6.85c3,0.534,5.816,0.867,8.45,1c3.5,0.2,6.817,0.1,9.95-0.3
				c0.566,0.333,1.4,0.833,2.5,1.5c0.967,0.533,1.883,0.8,2.75,0.8h3.5c-0.067,0.233-0.067,0.517,0,0.85
				c0.167,0.667,0.667,1.217,1.5,1.65c0.833,0.4,1.75,0.35,2.75-0.15c0.5-0.233,0.917-0.517,1.25-0.85l0.9,0.6
				c0.733,0.434,1.517,0.65,2.35,0.65c0.833,0,1.717-0.583,2.65-1.75c0.433-0.6,0.8-1.183,1.1-1.75l0.8,0.05
				c0.667-0.067,1.317-0.417,1.95-1.05s0.883-1.483,0.75-2.55c-0.033-0.533-0.15-1-0.35-1.4c7.433-0.3,14.55-0.4,21.35-0.3l1.3,0.05
				c0.2,1.8,0.383,2.967,0.55,3.5c0.4,1.167,1.117,1.816,2.15,1.95l3.5,0.5c-0.167,0.5-0.233,1.034-0.2,1.6
				c0.1,1.167,0.667,1.967,1.7,2.4c1.033,0.4,1.767,0.017,2.2-1.15c0.2-0.566,0.3-1.183,0.3-1.85l1.75,1.6
				c1.333,1,2.417,1.3,3.25,0.9c0.833-0.433,1.117-1.233,0.85-2.4c-0.167-0.566-0.4-1.1-0.7-1.6l2.8,2.5
				c2.133,1.667,3.817,2.5,5.05,2.5h3c-0.067,0.4-0.017,0.833,0.15,1.3c0.333,0.933,1.117,1.5,2.35,1.7
				c1.267,0.2,2.316-0.066,3.15-0.8c0.4-0.4,0.683-0.8,0.85-1.2l1.55,1.5c1.267,1,2.417,1.5,3.45,1.5s1.933-0.5,2.7-1.5
				c0.367-0.5,0.633-1,0.8-1.5l1.75,0.8c1.333,0.433,2.417,0.333,3.25-0.3c1.333-1,2.517-1.316,3.55-0.95l-0.2-2.2l1.2,0.7
				c-1.267,17.1-1.566,35.133-0.9,54.1C288.7-61.317,291.45-41.883,296.25-22.75z"/>
		</defs>
		<clipPath id="SVGID_2_">
			<use xlink:href="#SVGID_1_"  style="overflow:visible;"/>
		</clipPath>
		<g id="Layer_3_1_" style="clip-path:url(#SVGID_2_);">
			<path style="fill-rule:evenodd;clip-rule:evenodd;fill:#4C3B2B;" d="M296.25-22.75c-4.8-19.133-7.55-38.567-8.25-58.3
				c-0.7-19.767-0.367-38.267,1-55.5c0.7-8.6,1.467-15.233,2.3-19.9H12c1.233,5.133,2.317,12.034,3.25,20.7
				c1.867,17.333,2.117,34.8,0.75,52.4c-1.4,17.6-4.483,34.867-9.25,51.8C4.35-23.083,2.1-16.367,0-11.4L303.3,0
				C301.033-5.6,298.683-13.183,296.25-22.75z"/>
			
				<use xlink:href="#Untitled-1.ai_x2F_Layer_1_x2F__x3C_Group_x3E__x5F_2"  width="274.9" height="80.391" y="-80.391" transform="matrix(1 0 0 1 14.9502 -70.3999)" style="overflow:visible;opacity:0.3008;enable-background:new    ;"/>
			
				<use xlink:href="#Untitled-1.ai_x2F_Layer_1_x2F__x3C_Group_x3E__x5F_1"  width="278.8" height="118" y="-118" transform="matrix(1 0 0 1 11.9502 -38.4502)" style="overflow:visible;opacity:0.3008;enable-background:new    ;"/>
			<g>
				
					<use xlink:href="#Untitled-1.ai_x2F_Layer_1_x2F__x3C_Path_x3E__x5F_3"  width="63.35" height="145.9" y="-145.9" transform="matrix(1 0 0 1 28.9502 -13.1001)" style="overflow:visible;opacity:0.5;enable-background:new    ;"/>
				
					<use xlink:href="#Untitled-1.ai_x2F_Layer_1_x2F__x3C_Path_x3E__x5F_2"  width="179.95" height="158.9" y="-158.9" transform="matrix(1 0 0 1 100.8501 -2.5)" style="overflow:visible;opacity:0.1992;enable-background:new    ;"/>
				
					<use xlink:href="#Untitled-1.ai_x2F_Layer_1_x2F__x3C_Path_x3E__x5F_1"  width="50.35" height="158.9" y="-158.9" transform="matrix(1 0 0 1 154.7998 -0.7002)" style="overflow:visible;opacity:0.3008;enable-background:new    ;"/>
				
					<use xlink:href="#Untitled-1.ai_x2F_Layer_1_x2F__x3C_Path_x3E_"  width="38.35" height="158.9" y="-158.9" transform="matrix(1 0 0 1 250.2998 -0.7002)" style="overflow:visible;opacity:0.3008;enable-background:new    ;"/>
			</g>
			
				<linearGradient id="SVGID_3_" gradientUnits="userSpaceOnUse" x1="0.2988" y1="-15982.2578" x2="88.3738" y2="-15982.2578" gradientTransform="matrix(1.135396e-005 -1 1 -0.001 16133.9092 -66.0962)">
				<stop  offset="0" style="stop-color:#000000;stop-opacity:0"/>
				<stop  offset="0.8588" style="stop-color:#000000;stop-opacity:0.0863"/>
				<stop  offset="1" style="stop-color:#000000;stop-opacity:0.1804"/>
			</linearGradient>
			<path style="fill-rule:evenodd;clip-rule:evenodd;fill:url(#SVGID_3_);" d="M303.3,0c-2.267-5.6-4.617-13.183-7.05-22.75
				c-4.8-19.133-7.55-38.567-8.25-58.3c-0.667-18.967-0.367-37,0.9-54.1l-1.2-0.7c0.066,0.533,0.05,0.684-0.05,0.45
				c-0.066-0.133-0.133-0.317-0.2-0.55c-0.733,1.167-1.767,2.25-3.1,3.25c-0.833,0.633-1.917,0.733-3.25,0.3l-1.75-0.8
				c-0.167,0.5-0.434,1-0.8,1.5c-0.767,1-1.667,1.5-2.7,1.5s-2.184-0.5-3.45-1.5l-1.55-1.5c-0.167,0.4-0.45,0.8-0.85,1.2
				c-0.833,0.733-1.883,1-3.15,0.8c-1.233-0.2-2.017-0.767-2.35-1.7c-0.167-0.467-0.217-0.9-0.15-1.3h-3
				c-1.233,0-2.917-0.833-5.05-2.5l-2.8-2.5c0.3,0.5,0.533,1.034,0.7,1.6c0.267,1.167-0.017,1.967-0.85,2.4
				c-0.833,0.4-1.917,0.1-3.25-0.9l-1.75-1.6c0,0.667-0.1,1.284-0.3,1.85c-0.433,1.167-1.167,1.55-2.2,1.15
				c-1.033-0.433-1.6-1.233-1.7-2.4c-0.033-0.566,0.033-1.1,0.2-1.6l-3.5-0.5c-1.033-0.133-1.75-0.783-2.15-1.95
				c-0.167-0.533-0.35-1.7-0.55-3.5l-1.3-0.05c-6.8-0.1-13.917,0-21.35,0.3c0.2,0.4,0.317,0.867,0.35,1.4
				c0.133,1.067-0.117,1.917-0.75,2.55s-1.283,0.983-1.95,1.05l-0.8-0.05c-0.3,0.567-0.667,1.15-1.1,1.75
				c-0.933,1.167-1.817,1.75-2.65,1.75c-0.833,0-1.617-0.216-2.35-0.65l-0.9-0.6c-0.333,0.333-0.75,0.617-1.25,0.85
				c-1,0.5-1.917,0.55-2.75,0.15c-0.833-0.433-1.333-0.983-1.5-1.65c-0.067-0.333-0.067-0.617,0-0.85h-3.5
				c-0.867,0-1.783-0.267-2.75-0.8c-1.1-0.667-1.934-1.167-2.5-1.5c-3.133,0.4-6.45,0.5-9.95,0.3c-2.633-0.133-5.45-0.466-8.45-1
				h-6.85c-1.667,0.333-3.833,0.667-6.5,1c-1.667,0.2-2.833-0.316-3.5-1.55l-0.5-1.95c-0.233,0.4-0.6,0.75-1.1,1.05
				c-1,0.6-2.133,0.583-3.4-0.05c-1.233-0.633-2.1-1.316-2.6-2.05c-0.267-0.4-0.4-0.717-0.4-0.95h-5.5
				c-1.233,0-2.434-0.083-3.6-0.25l-1.4-0.25l-3,0.5c-1.233,0.2-2.517,0.017-3.85-0.55l-1.65-0.95c0.1,0.667,0,1.333-0.3,2
				c-0.6,1.333-1.833,2-3.7,2s-3.6-0.917-5.2-2.75c-0.767-0.933-1.367-1.85-1.8-2.75l-2,2c-0.833,0.833-2.167,1.083-4,0.75
				l-2.5-0.75l0.5,1.5c0.3,0.9,0.133,1.833-0.5,2.8c-0.733,1.133-1.9,1.7-3.5,1.7c-1.467,0-2.733-0.417-3.8-1.25
				c-0.533-0.433-0.933-0.85-1.2-1.25l-3.5,2c-1.467,0.833-2.9,1.083-4.3,0.75l-1.7-0.75c0,0.333-0.117,0.7-0.35,1.1
				c-0.5,0.833-1.383,1.467-2.65,1.9c-1.233,0.4-2.517,0.35-3.85-0.15l-1.65-0.85l-2.5,1c-0.967,0.4-2.767,0.317-5.4-0.25
				c-3-0.8-5.067-1.316-6.2-1.55c-6.8,0.767-14.767,1.117-23.9,1.05v0.75c0,1.034-0.667,1.934-2,2.7l-2,0.8l-2,0.5
				c-0.833,0.2-1.917,0.1-3.25-0.3l-1.75-0.7c0.1,0.567,0.083,1.167-0.05,1.8c-0.267,1.267-0.917,2-1.95,2.2
				c-1.033,0.2-2.184-0.15-3.45-1.05c-0.6-0.467-1.117-0.95-1.55-1.45l-7.5,1.5l-2,2c-0.567,0.567-1.1,0.6-1.6,0.1
				c1.4,15.867,1.483,31.617,0.25,47.25c-1.4,17.6-4.483,34.867-9.25,51.8C4.35-23.083,2.1-16.367,0-11.4L303.3,0z"/>
		</g>
	</g>
	<g id="Layer_4_1_">
	</g>
</symbol>
<symbol  id="Untitled-1.ai_x2F_Layer_1_x2F__x3C_Group_x3E_" viewBox="0 -11.05 47.25 11.05">
	<g id="Layer_1_64_">
		<g>
			
				<use xlink:href="#Untitled-1.ai_x2F_Layer_1_x2F__x3C_Path_x3E__x5F_13_x5F_4"  width="8.4" height="4.6" y="-4.6" transform="matrix(1 0 0 1 13.7998 -2.6499)" style="overflow:visible;opacity:0.6992;enable-background:new    ;"/>
			<path style="fill-rule:evenodd;clip-rule:evenodd;fill:#51422D;" d="M26.35-1.55c0-0.4-0.267-0.75-0.8-1.05
				c-0.5-0.3-1.117-0.45-1.85-0.45c-0.733,0-1.35,0.15-1.85,0.45c-0.533,0.3-0.8,0.65-0.8,1.05c0,0.433,0.267,0.8,0.8,1.1
				C22.35-0.15,22.967,0,23.7,0c0.733,0,1.35-0.15,1.85-0.45C26.083-0.75,26.35-1.117,26.35-1.55z"/>
			<path style="fill-rule:evenodd;clip-rule:evenodd;fill:#51422D;" d="M25.85-5.45c0-0.167-0.117-0.316-0.35-0.45S25-6.1,24.7-6.1
				c-0.767,0-1.15,0.217-1.15,0.65c0,0.467,0.383,0.7,1.15,0.7c0.3,0,0.566-0.067,0.8-0.2S25.85-5.25,25.85-5.45z"/>
			<path style="fill-rule:evenodd;clip-rule:evenodd;fill:#51422D;" d="M30.95-9.25c0-0.5-0.4-0.933-1.2-1.3
				c-0.8-0.333-1.783-0.5-2.95-0.5c-1.133,0-2.1,0.167-2.9,0.5c-0.8,0.367-1.2,0.8-1.2,1.3S23.1-8.333,23.9-8
				c0.8,0.367,1.767,0.55,2.9,0.55c1.167,0,2.15-0.183,2.95-0.55C30.55-8.333,30.95-8.75,30.95-9.25z"/>
			
				<use xlink:href="#Untitled-1.ai_x2F_Layer_1_x2F__x3C_Path_x3E__x5F_9_x5F_5"  width="5.9" height="3.05" y="-3.05" transform="matrix(1 0 0 1 30.4502 -4.75)" style="overflow:visible;opacity:0.6992;enable-background:new    ;"/>
			<path style="fill-rule:evenodd;clip-rule:evenodd;fill:#51422D;" d="M40.3-3.05c0-0.333-0.233-0.6-0.7-0.8
				c-0.434-0.233-0.983-0.35-1.65-0.35c-0.667,0-1.233,0.117-1.7,0.35c-0.467,0.2-0.7,0.467-0.7,0.8c0,0.333,0.233,0.6,0.7,0.8
				c0.467,0.233,1.033,0.35,1.7,0.35c0.667,0,1.216-0.117,1.65-0.35C40.067-2.45,40.3-2.717,40.3-3.05z"/>
			<path style="fill-rule:evenodd;clip-rule:evenodd;fill:#51422D;" d="M38.85-5.7c0-0.4-0.3-0.6-0.9-0.6C37.317-6.3,37-6.1,37-5.7
				c0,0.367,0.317,0.55,0.95,0.55C38.55-5.15,38.85-5.333,38.85-5.7z"/>
			
				<use xlink:href="#Untitled-1.ai_x2F_Layer_1_x2F__x3C_Path_x3E__x5F_6_x5F_5"  width="2.15" height="1.15" y="-1.15" transform="matrix(1 0 0 1 31.6001 -0.2002)" style="overflow:visible;opacity:0.5;enable-background:new    ;"/>
			
				<use xlink:href="#Untitled-1.ai_x2F_Layer_1_x2F__x3C_Path_x3E__x5F_5_x5F_4"  width="2.65" height="1.1" y="-1.1" transform="matrix(1 0 0 1 44.6001 -2.5)" style="overflow:visible;opacity:0.5;enable-background:new    ;"/>
			
				<use xlink:href="#Untitled-1.ai_x2F_Layer_1_x2F__x3C_Path_x3E__x5F_4_x5F_4"  width="4.15" height="2.1" y="-2.1" transform="matrix(1 0 0 1 8.7002 -8.2002)" style="overflow:visible;opacity:0.5;enable-background:new    ;"/>
			<path style="fill-rule:evenodd;clip-rule:evenodd;fill:#51422D;" d="M13.35-6.1c0-0.167-0.1-0.3-0.3-0.4
				c-0.233-0.133-0.5-0.2-0.8-0.2S11.7-6.633,11.5-6.5c-0.2,0.1-0.3,0.233-0.3,0.4c0,0.367,0.35,0.55,1.05,0.55
				C12.983-5.55,13.35-5.733,13.35-6.1z"/>
			<path style="fill-rule:evenodd;clip-rule:evenodd;fill:#51422D;" d="M2.15-9.25c0-0.433-0.367-0.65-1.1-0.65
				c-0.267,0-0.517,0.066-0.75,0.2C0.1-9.567,0-9.417,0-9.25S0.1-8.933,0.3-8.8c0.233,0.133,0.483,0.2,0.75,0.2
				c0.3,0,0.567-0.066,0.8-0.2C2.05-8.933,2.15-9.083,2.15-9.25z"/>
			
				<use xlink:href="#Untitled-1.ai_x2F_Layer_1_x2F__x3C_Path_x3E__x5F_1_x5F_5"  width="4.95" height="2.5" y="-2.5" transform="matrix(1 0 0 1 1.9502 -5.1499)" style="overflow:visible;opacity:0.6992;enable-background:new    ;"/>
			
				<use xlink:href="#Untitled-1.ai_x2F_Layer_1_x2F__x3C_Path_x3E__x5F_14"  width="2.15" height="1.2" y="-1.2" transform="matrix(1 0 0 1 40.1499 -4.4502)" style="overflow:visible;opacity:0.6992;enable-background:new    ;"/>
		</g>
	</g>
</symbol>
<symbol  id="Untitled-1.ai_x2F_Layer_1_x2F__x3C_Group_x3E__x5F_1" viewBox="0 -118 278.8 118">
	<g id="Layer_1_5_">
		<g>
			<path style="fill-rule:evenodd;clip-rule:evenodd;fill:#4D3A1E;" d="M265.15-19.25c4.467,2.433,8.783,3.033,12.95,1.8
				c-1.1-8.466-1.783-16.85-2.05-25.15l-0.1-2.05l-1.65-1c-8.933-6.133-15.2-9.934-18.8-11.4c-7.333-3-15.783-3.85-25.35-2.55
				c-8.033,1.067-17.333,4.417-27.9,10.05c-6.633,3.566-10.3,5.5-11,5.8c-3.733,1.833-6.867,2.9-9.4,3.2
				c-10.333,1.333-17.217,2.433-20.65,3.3c-9.233,2.4-17.9,6.45-26,12.15c-4.767,3.367-8.567,5.6-11.4,6.7
				c-2.966,1.167-6.15,1.583-9.55,1.25c-2.533-0.233-6.833-1.133-12.9-2.7c-9.1-2.367-16.267-4.117-21.5-5.25
				c-13.167-2.9-28-4.9-44.5-6c-17.667-1.167-28.467-2.117-32.4-2.85C2.25-28.183,1.267-21.933,0-15.2l0.75,0.35
				c7.3,3.667,19.483,5.934,36.55,6.8c4.567,0.233,11.167,0.483,19.8,0.75C64.267-7.033,69.633-6.6,73.2-6c3,0.5,7.1,1.467,12.3,2.9
				c5.833,1.6,9.883,2.633,12.15,3.1l20.2-0.5c2.4-0.867,4.583-1.967,6.55-3.3c3.7-2.534,7.033-4.167,10-4.9
				c2.1-0.533,4.85-0.75,8.25-0.65c9.167,0.3,17.934-0.8,26.3-3.3c5.966-1.767,12.117-2.5,18.45-2.2c3.8,0.2,8.767,0.934,14.9,2.2
				c5.567,1.167,9.417,1.717,11.55,1.65c3.533-0.1,6.333-1.383,8.4-3.85c4.633-5.566,10.9-8.783,18.8-9.65
				C249.05-25.367,257.083-23.617,265.15-19.25z"/>
			<path style="fill-rule:evenodd;clip-rule:evenodd;fill:#4D3A1E;" d="M255.1-84c6.733-1.133,13.733-0.417,21,2.15
				c0.5-12.233,1.4-23.033,2.7-32.4c-2.966-1.6-5.85-2.85-8.65-3.75h-34.3c-5.367,1.433-12.8,4.367-22.3,8.8
				c-8.033,3.767-13.8,5.784-17.3,6.05c-10.7,0.767-18,1.55-21.9,2.35c-9.8,1.933-19.017,5.566-27.65,10.9
				c-5.1,3.167-9.15,5.233-12.15,6.2c-3.167,1.034-6.55,1.317-10.15,0.85c-2.667-0.333-7.217-1.433-13.65-3.3
				C101.117-88.917,93.533-91,88-92.4c-14.333-3.6-30.883-6.35-49.65-8.25c-18.3-1.867-30.1-3.5-35.4-4.9l-0.75-0.2
				c0.933,6.467,1.633,13.183,2.1,20.15c7.733,3.967,20.617,6.75,38.65,8.35c4.8,0.433,11.75,0.967,20.85,1.6
				c7.567,0.6,13.233,1.283,17,2.05c3.167,0.633,7.5,1.783,13,3.45c6.167,1.9,10.467,3.133,12.9,3.7l21.4,0.4
				c2.533-0.767,4.85-1.784,6.95-3.05c3.934-2.333,7.483-3.8,10.65-4.4c2.2-0.433,5.1-0.517,8.7-0.25
				c4.767,0.367,8.383,0.5,10.85,0.4c5.133-0.167,10.833-1,17.1-2.5c6.333-1.5,12.867-1.95,19.6-1.35
				c4.033,0.333,9.283,1.284,15.75,2.85c5.9,1.4,9.983,2.133,12.25,2.2c3.733,0.033,6.7-1.133,8.9-3.5
				C242.983-80.083,248.4-82.867,255.1-84z"/>
		</g>
	</g>
</symbol>
<symbol  id="Untitled-1.ai_x2F_Layer_1_x2F__x3C_Group_x3E__x5F_1_x5F_0" viewBox="0 -19.4 95.95 19.4">
	<g id="Layer_1_63_">
		<g>
			
				<use xlink:href="#Untitled-1.ai_x2F_Layer_1_x2F__x3C_Path_x3E__x5F_13_x5F_3"  width="17.05" height="8" y="-8" transform="matrix(1 0 0 1 28.1001 -4.7002)" style="overflow:visible;opacity:0.6992;enable-background:new    ;"/>
			<path style="fill-rule:evenodd;clip-rule:evenodd;fill:#51422D;" d="M53.5-2.7c0-0.733-0.517-1.35-1.55-1.85
				c-1.067-0.534-2.333-0.8-3.8-0.8s-2.733,0.267-3.8,0.8c-1.033,0.5-1.55,1.117-1.55,1.85c0,0.733,0.517,1.367,1.55,1.9
				c1.066,0.533,2.333,0.8,3.8,0.8s2.733-0.267,3.8-0.8C52.983-1.333,53.5-1.967,53.5-2.7z"/>
			<path style="fill-rule:evenodd;clip-rule:evenodd;fill:#51422D;" d="M52.5-9.55c0-0.333-0.233-0.6-0.7-0.8
				c-0.433-0.233-0.983-0.35-1.65-0.35c-0.667,0-1.217,0.117-1.65,0.35c-0.467,0.2-0.7,0.467-0.7,0.8c0,0.333,0.233,0.617,0.7,0.85
				c0.467,0.233,1.017,0.35,1.65,0.35s1.184-0.117,1.65-0.35C52.267-8.933,52.5-9.217,52.5-9.55z"/>
			<path style="fill-rule:evenodd;clip-rule:evenodd;fill:#51422D;" d="M62.85-16.25c0-0.867-0.817-1.617-2.45-2.25
				c-1.633-0.6-3.6-0.9-5.9-0.9c-2.333,0-4.3,0.3-5.9,0.9c-1.633,0.633-2.45,1.383-2.45,2.25c0,0.9,0.817,1.65,2.45,2.25
				c1.6,0.633,3.566,0.95,5.9,0.95c2.3,0,4.267-0.317,5.9-0.95C62.033-14.6,62.85-15.35,62.85-16.25z"/>
			
				<use xlink:href="#Untitled-1.ai_x2F_Layer_1_x2F__x3C_Path_x3E__x5F_9_x5F_4"  width="12" height="5.35" y="-5.35" transform="matrix(1 0 0 1 61.8501 -8.3501)" style="overflow:visible;opacity:0.6992;enable-background:new    ;"/>
			<path style="fill-rule:evenodd;clip-rule:evenodd;fill:#51422D;" d="M80.45-3.95c0.966-0.4,1.45-0.867,1.45-1.4
				c0-0.566-0.483-1.033-1.45-1.4c-0.934-0.4-2.067-0.6-3.4-0.6c-1.333,0-2.483,0.2-3.45,0.6c-0.934,0.367-1.4,0.833-1.4,1.4
				c0,0.567,0.466,1.033,1.4,1.4c0.967,0.4,2.117,0.6,3.45,0.6C78.383-3.35,79.517-3.55,80.45-3.95z"/>
			<path style="fill-rule:evenodd;clip-rule:evenodd;fill:#51422D;" d="M78.9-10.05c0-0.267-0.183-0.5-0.55-0.7s-0.8-0.3-1.3-0.3
				s-0.933,0.1-1.3,0.3s-0.55,0.433-0.55,0.7c0,0.267,0.183,0.5,0.55,0.7c0.367,0.2,0.8,0.3,1.3,0.3s0.934-0.1,1.3-0.3
				C78.717-9.55,78.9-9.783,78.9-10.05z"/>
			
				<use xlink:href="#Untitled-1.ai_x2F_Layer_1_x2F__x3C_Path_x3E__x5F_6_x5F_4"  width="4.3" height="2" y="-2" transform="matrix(1 0 0 1 64.2002 -0.3501)" style="overflow:visible;opacity:0.5;enable-background:new    ;"/>
			
				<use xlink:href="#Untitled-1.ai_x2F_Layer_1_x2F__x3C_Path_x3E__x5F_5_x5F_3"  width="5.35" height="2" y="-2" transform="matrix(1 0 0 1 90.6001 -4.3501)" style="overflow:visible;opacity:0.5;enable-background:new    ;"/>
			
				<use xlink:href="#Untitled-1.ai_x2F_Layer_1_x2F__x3C_Path_x3E__x5F_4_x5F_3"  width="8.35" height="3.65" y="-3.65" transform="matrix(1 0 0 1 17.7002 -14.3999)" style="overflow:visible;opacity:0.5;enable-background:new    ;"/>
			<path style="fill-rule:evenodd;clip-rule:evenodd;fill:#51422D;" d="M27.05-10.7c0-0.267-0.2-0.5-0.6-0.7
				c-0.434-0.2-0.95-0.3-1.55-0.3s-1.1,0.1-1.5,0.3c-0.433,0.2-0.65,0.433-0.65,0.7c0,0.267,0.217,0.5,0.65,0.7
				c0.4,0.2,0.9,0.3,1.5,0.3s1.117-0.1,1.55-0.3C26.85-10.2,27.05-10.433,27.05-10.7z"/>
			<path style="fill-rule:evenodd;clip-rule:evenodd;fill:#51422D;" d="M4.35-16.25c0-0.3-0.217-0.567-0.65-0.8
				c-0.434-0.233-0.95-0.35-1.55-0.35s-1.1,0.117-1.5,0.35C0.217-16.817,0-16.55,0-16.25c0,0.333,0.217,0.617,0.65,0.85
				c0.4,0.233,0.9,0.35,1.5,0.35s1.117-0.117,1.55-0.35C4.133-15.633,4.35-15.917,4.35-16.25z"/>
			
				<use xlink:href="#Untitled-1.ai_x2F_Layer_1_x2F__x3C_Path_x3E__x5F_1_x5F_4"  width="10.05" height="4.35" y="-4.35" transform="matrix(1 0 0 1 4 -9.0498)" style="overflow:visible;opacity:0.6992;enable-background:new    ;"/>
			
				<use xlink:href="#Untitled-1.ai_x2F_Layer_1_x2F__x3C_Path_x3E__x5F_12"  width="4.35" height="2.15" y="-2.15" transform="matrix(1 0 0 1 81.5498 -7.7998)" style="overflow:visible;opacity:0.6992;enable-background:new    ;"/>
		</g>
	</g>
</symbol>
<symbol  id="Untitled-1.ai_x2F_Layer_1_x2F__x3C_Group_x3E__x5F_2" viewBox="0 -80.391 274.9 80.391">
	<g id="Layer_1_4_">
		<g>
			<path style="fill-rule:evenodd;clip-rule:evenodd;fill:#30271B;" d="M257.4-9.95c4.2-1.667,7.533-2.466,10-2.4
				c1.833,0.033,3.717,0.617,5.65,1.75v-0.05c-0.167-4.767-0.283-9.9-0.35-15.4c-6.467,1.367-11.217,2.333-14.25,2.9
				c-4.267,0.767-13.85,1.517-28.75,2.25c-15.167,0.733-28.583,2.1-40.25,4.1c-15.733,3.267-25.567,5.05-29.5,5.35
				c-2.934,0.2-5.684-0.083-8.25-0.85c-2.4-0.733-5.65-2.233-9.75-4.5c-6.934-3.8-14.367-6.5-22.3-8.1c-3-0.6-8.917-1.333-17.75-2.2
				c-2.633-0.267-8.467-2.267-17.5-6c-9.066-3.767-17.05-6.017-23.95-6.75c-8.2-0.867-15.45-0.3-21.75,1.7
				c-3,0.967-8.383,3.5-16.15,7.6c-3.3,1.767-6.833,2.117-10.6,1.05c-2.1-0.7-3.7-1.217-4.8-1.55c-1.967-0.633-3.717-1-5.25-1.1
				C1.867-26.517,1.617-20.633,1.15-14.5l0.7-0.35c2.2-0.967,4.45-1.2,6.75-0.7c1.066,0.2,3.083,0.95,6.05,2.25
				c5.567,2.367,10.817,2.517,15.75,0.45c6.9-2.933,13.8-4.1,20.7-3.5c6.767,0.567,12.15,2.7,16.15,6.4
				c1.767,1.633,4.167,2.5,7.2,2.6c1.833,0.033,5.133-0.333,9.9-1.1c11.233-1.833,20.783-1.833,28.65,0
				c7.2,1.667,14.733,2.4,22.6,2.2c5.533-0.167,10.75,1.05,15.65,3.65c1.667,0.9,3.533,1.65,5.6,2.25L174.2,0
				c1.833-0.3,5.316-1,10.45-2.1c4.434-0.967,7.95-1.617,10.55-1.95c3.033-0.4,7.633-0.684,13.8-0.85c3.533-0.133,9.2-0.3,17-0.5
				C240.667-5.967,251.133-7.483,257.4-9.95z"/>
			<path style="fill-rule:evenodd;clip-rule:evenodd;fill:#30271B;" d="M273.45-57.15c0.333-6,0.816-11.9,1.45-17.7
				c-2.233,0.434-5.517,1.15-9.85,2.15c-4.4,1.034-7.583,1.75-9.55,2.15c-4.533,0.933-14.667,2.017-30.4,3.25
				c-16.1,1.3-30.317,3.15-42.65,5.55c-16.633,3.833-27.05,5.967-31.25,6.4c-3.1,0.3-6,0.117-8.7-0.55
				c-2.6-0.667-6.083-2.05-10.45-4.15c-7.367-3.567-15.267-6-23.7-7.3c-3.167-0.5-9.434-1.033-18.8-1.6
				c-2.833-0.167-9.05-1.95-18.65-5.35c-9.667-3.467-18.15-5.434-25.45-5.9c-8.733-0.6-16.417,0.217-23.05,2.45
				c-3.233,1.1-8.9,3.833-17,8.2c-1.833,1-3.633,1.6-5.4,1.8c0.633,5.033,1.117,10.7,1.45,17c4.033,0.867,8.183,0.383,12.45-1.45
				c7.333-3.167,14.633-4.566,21.9-4.2c7.2,0.333,12.934,2.283,17.2,5.85c1.9,1.6,4.45,2.383,7.65,2.35
				c1.934-0.033,5.434-0.517,10.5-1.45c11.9-2.233,22.017-2.583,30.35-1.05c7.633,1.434,15.633,1.917,24,1.45
				c5.833-0.333,11.367,0.7,16.6,3.1c1.867,0.867,3.85,1.533,5.95,2l18.4-0.25c2.133-0.4,5.816-1.217,11.05-2.45
				c4.733-1.133,8.45-1.917,11.15-2.35c3.233-0.5,8.117-0.95,14.65-1.35c3.733-0.233,9.733-0.6,18-1.1
				c15.534-1.067,26.6-2.934,33.2-5.6c5.233-2.133,9.283-3.033,12.15-2.7C268.083-59.783,270.35-58.85,273.45-57.15z"/>
		</g>
	</g>
</symbol>
<symbol  id="Untitled-1.ai_x2F_Layer_1_x2F__x3C_Group_x3E__x5F_2_x5F_0" viewBox="0 -9.4 46.4 9.4">
	<g id="Layer_1_62_">
		<g>
			
				<use xlink:href="#Untitled-1.ai_x2F_Layer_1_x2F__x3C_Path_x3E__x5F_13_x5F_2"  width="8.25" height="3.9" y="-3.9" transform="matrix(1 0 0 1 13.6001 -2.25)" style="overflow:visible;opacity:0.6992;enable-background:new    ;"/>
			<path style="fill-rule:evenodd;clip-rule:evenodd;fill:#51422D;" d="M25.9-1.3c0-0.367-0.25-0.667-0.75-0.9
				C24.617-2.467,24-2.6,23.3-2.6c-0.733,0-1.35,0.133-1.85,0.4c-0.5,0.233-0.75,0.534-0.75,0.9s0.25,0.667,0.75,0.9
				C21.95-0.133,22.567,0,23.3,0c0.7,0,1.317-0.133,1.85-0.4C25.65-0.667,25.9-0.967,25.9-1.3z"/>
			<path style="fill-rule:evenodd;clip-rule:evenodd;fill:#51422D;" d="M25.4-4.6c0-0.4-0.383-0.6-1.15-0.6
				c-0.733,0-1.1,0.2-1.1,0.6c0,0.367,0.367,0.55,1.1,0.55C25.017-4.05,25.4-4.233,25.4-4.6z"/>
			<path style="fill-rule:evenodd;clip-rule:evenodd;fill:#51422D;" d="M30.4-7.85c0-0.433-0.4-0.8-1.2-1.1
				c-0.767-0.3-1.717-0.45-2.85-0.45c-1.1,0-2.05,0.15-2.85,0.45c-0.8,0.3-1.2,0.667-1.2,1.1c0,0.434,0.4,0.8,1.2,1.1
				s1.75,0.45,2.85,0.45c1.133,0,2.083-0.15,2.85-0.45C30-7.05,30.4-7.417,30.4-7.85z"/>
			
				<use xlink:href="#Untitled-1.ai_x2F_Layer_1_x2F__x3C_Path_x3E__x5F_9_x5F_3"  width="5.85" height="2.6" y="-2.6" transform="matrix(1 0 0 1 29.8999 -4.0498)" style="overflow:visible;opacity:0.6992;enable-background:new    ;"/>
			<path style="fill-rule:evenodd;clip-rule:evenodd;fill:#51422D;" d="M39.65-2.6c0-0.267-0.233-0.5-0.7-0.7
				c-0.434-0.167-0.983-0.25-1.65-0.25c-0.667,0-1.216,0.083-1.65,0.25c-0.467,0.2-0.7,0.433-0.7,0.7s0.233,0.5,0.7,0.7
				c0.467,0.2,1.017,0.3,1.65,0.3c0.667,0,1.217-0.1,1.65-0.3C39.417-2.1,39.65-2.333,39.65-2.6z"/>
			<path style="fill-rule:evenodd;clip-rule:evenodd;fill:#51422D;" d="M38.15-4.85c0-0.333-0.283-0.5-0.85-0.5
				c-0.6,0-0.9,0.167-0.9,0.5c0,0.333,0.3,0.5,0.9,0.5C37.867-4.35,38.15-4.517,38.15-4.85z"/>
			
				<use xlink:href="#Untitled-1.ai_x2F_Layer_1_x2F__x3C_Path_x3E__x5F_6_x5F_3"  width="2.1" height="1" y="-1" transform="matrix(1 0 0 1 31.0498 -0.1499)" style="overflow:visible;opacity:0.5;enable-background:new    ;"/>
			
				<use xlink:href="#Untitled-1.ai_x2F_Layer_1_x2F__x3C_Path_x3E__x5F_5_x5F_2"  width="2.55" height="1" y="-1" transform="matrix(1 0 0 1 43.8501 -2.1001)" style="overflow:visible;opacity:0.5;enable-background:new    ;"/>
			
				<use xlink:href="#Untitled-1.ai_x2F_Layer_1_x2F__x3C_Path_x3E__x5F_4_x5F_2"  width="4.05" height="1.8" y="-1.8" transform="matrix(1 0 0 1 8.5498 -6.9502)" style="overflow:visible;opacity:0.5;enable-background:new    ;"/>
			<path style="fill-rule:evenodd;clip-rule:evenodd;fill:#51422D;" d="M13.1-5.2c0-0.3-0.35-0.45-1.05-0.45
				C11.35-5.65,11-5.5,11-5.2c0,0.333,0.35,0.5,1.05,0.5C12.75-4.7,13.1-4.867,13.1-5.2z"/>
			<path style="fill-rule:evenodd;clip-rule:evenodd;fill:#51422D;" d="M2.1-7.85c0-0.367-0.35-0.55-1.05-0.55
				C0.35-8.4,0-8.217,0-7.85S0.35-7.3,1.05-7.3C1.75-7.3,2.1-7.483,2.1-7.85z"/>
			
				<use xlink:href="#Untitled-1.ai_x2F_Layer_1_x2F__x3C_Path_x3E__x5F_1_x5F_3"  width="4.85" height="2.15" y="-2.15" transform="matrix(1 0 0 1 1.9502 -4.3501)" style="overflow:visible;opacity:0.6992;enable-background:new    ;"/>
			
				<use xlink:href="#Untitled-1.ai_x2F_Layer_1_x2F__x3C_Path_x3E__x5F_11"  width="2.1" height="1.05" y="-1.05" transform="matrix(1 0 0 1 39.4502 -3.75)" style="overflow:visible;opacity:0.6992;enable-background:new    ;"/>
		</g>
	</g>
</symbol>
<symbol  id="Untitled-1.ai_x2F_Layer_1_x2F__x3C_Group_x3E__x5F_3" viewBox="0 -7.15 35.5 7.15">
	<g id="Layer_1_61_">
		<g>
			
				<use xlink:href="#Untitled-1.ai_x2F_Layer_1_x2F__x3C_Path_x3E__x5F_13_x5F_1"  width="6.3" height="3" y="-3" transform="matrix(1 0 0 1 18.7998 -1.7002)" style="overflow:visible;opacity:0.6992;enable-background:new    ;"/>
			<path style="fill-rule:evenodd;clip-rule:evenodd;fill:#51422D;" d="M15.7-0.95c0,0.267,0.2,0.5,0.6,0.7
				C16.667-0.083,17.133,0,17.7,0c0.566,0,1.033-0.083,1.4-0.25c0.367-0.2,0.55-0.433,0.55-0.7c0-0.267-0.183-0.5-0.55-0.7
				c-0.4-0.2-0.867-0.3-1.4-0.3c-0.534,0-1,0.1-1.4,0.3C15.9-1.45,15.7-1.217,15.7-0.95z"/>
			<path style="fill-rule:evenodd;clip-rule:evenodd;fill:#51422D;" d="M16.1-3.5c0,0.3,0.283,0.45,0.85,0.45
				c0.566,0,0.85-0.15,0.85-0.45s-0.283-0.45-0.85-0.45C16.383-3.95,16.1-3.8,16.1-3.5z"/>
			<path style="fill-rule:evenodd;clip-rule:evenodd;fill:#51422D;" d="M12.25-5.95c0,0.333,0.3,0.6,0.9,0.8
				c0.6,0.233,1.333,0.35,2.2,0.35s1.6-0.117,2.2-0.35c0.6-0.2,0.9-0.467,0.9-0.8c0-0.333-0.3-0.617-0.9-0.85
				c-0.633-0.233-1.367-0.35-2.2-0.35c-0.833,0-1.567,0.117-2.2,0.35C12.55-6.567,12.25-6.283,12.25-5.95z"/>
			
				<use xlink:href="#Untitled-1.ai_x2F_Layer_1_x2F__x3C_Path_x3E__x5F_9_x5F_2"  width="4.45" height="2" y="-2" transform="matrix(1 0 0 1 8.2002 -3.0498)" style="overflow:visible;opacity:0.6992;enable-background:new    ;"/>
			<path style="fill-rule:evenodd;clip-rule:evenodd;fill:#51422D;" d="M5.2-1.95c0,0.2,0.183,0.367,0.55,0.5
				C6.083-1.283,6.5-1.2,7-1.2s0.933-0.083,1.3-0.25c0.333-0.133,0.5-0.3,0.5-0.5c0-0.2-0.167-0.383-0.5-0.55
				C7.933-2.633,7.5-2.7,7-2.7S6.083-2.633,5.75-2.5C5.383-2.333,5.2-2.15,5.2-1.95z"/>
			<path style="fill-rule:evenodd;clip-rule:evenodd;fill:#51422D;" d="M6.3-3.7c0,0.267,0.233,0.4,0.7,0.4s0.7-0.133,0.7-0.4
				c0-0.233-0.233-0.35-0.7-0.35S6.3-3.933,6.3-3.7z"/>
			
				<use xlink:href="#Untitled-1.ai_x2F_Layer_1_x2F__x3C_Path_x3E__x5F_6_x5F_2"  width="1.6" height="0.75" y="-0.75" transform="matrix(1 0 0 1 10.1499 -0.1001)" style="overflow:visible;opacity:0.5;enable-background:new    ;"/>
			
				<use xlink:href="#Untitled-1.ai_x2F_Layer_1_x2F__x3C_Path_x3E__x5F_5_x5F_1"  width="2" height="0.75" y="-0.75" transform="matrix(1 0 0 1 0 -1.6001)" style="overflow:visible;opacity:0.5;enable-background:new    ;"/>
			
				<use xlink:href="#Untitled-1.ai_x2F_Layer_1_x2F__x3C_Path_x3E__x5F_4_x5F_1"  width="3.1" height="1.35" y="-1.35" transform="matrix(1 0 0 1 25.8501 -5.2998)" style="overflow:visible;opacity:0.5;enable-background:new    ;"/>
			<path style="fill-rule:evenodd;clip-rule:evenodd;fill:#51422D;" d="M25.5-3.95c0,0.267,0.267,0.4,0.8,0.4
				c0.534,0,0.8-0.133,0.8-0.4c0-0.233-0.267-0.35-0.8-0.35C25.767-4.3,25.5-4.183,25.5-3.95z"/>
			<path style="fill-rule:evenodd;clip-rule:evenodd;fill:#51422D;" d="M33.9-5.95c0,0.267,0.267,0.4,0.8,0.4
				c0.533,0,0.8-0.133,0.8-0.4c0-0.3-0.267-0.45-0.8-0.45C34.167-6.4,33.9-6.25,33.9-5.95z"/>
			
				<use xlink:href="#Untitled-1.ai_x2F_Layer_1_x2F__x3C_Path_x3E__x5F_1_x5F_2"  width="3.7" height="1.6" y="-1.6" transform="matrix(1 0 0 1 30.2998 -3.2998)" style="overflow:visible;opacity:0.6992;enable-background:new    ;"/>
			
				<use xlink:href="#Untitled-1.ai_x2F_Layer_1_x2F__x3C_Path_x3E__x5F_10"  width="1.6" height="0.8" y="-0.8" transform="matrix(1 0 0 1 3.75 -2.8501)" style="overflow:visible;opacity:0.6992;enable-background:new    ;"/>
		</g>
	</g>
</symbol>
<symbol  id="Untitled-1.ai_x2F_Layer_1_x2F__x3C_Group_x3E__x5F_4" viewBox="0 -15.4 76.4 15.4">
	<g id="Layer_1_60_">
		<g>
			
				<use xlink:href="#Untitled-1.ai_x2F_Layer_1_x2F__x3C_Path_x3E__x5F_13_x5F_0"  width="13.6" height="6.4" y="-6.4" transform="matrix(1 0 0 1 40.4502 -3.7002)" style="overflow:visible;opacity:0.6992;enable-background:new    ;"/>
			<path style="fill-rule:evenodd;clip-rule:evenodd;fill:#51422D;" d="M41.1-0.6c0.833-0.433,1.25-0.933,1.25-1.5
				c0-0.6-0.417-1.117-1.25-1.55c-0.867-0.4-1.883-0.6-3.05-0.6c-1.167,0-2.167,0.2-3,0.6C34.217-3.217,33.8-2.7,33.8-2.1
				c0,0.567,0.417,1.067,1.25,1.5c0.833,0.4,1.833,0.6,3,0.6C39.217,0,40.233-0.2,41.1-0.6z"/>
			<path style="fill-rule:evenodd;clip-rule:evenodd;fill:#51422D;" d="M34.6-7.55c0,0.233,0.183,0.45,0.55,0.65
				c0.367,0.167,0.8,0.25,1.3,0.25c0.533,0,0.983-0.083,1.35-0.25c0.367-0.2,0.55-0.417,0.55-0.65c0-0.267-0.184-0.5-0.55-0.7
				c-0.367-0.167-0.816-0.25-1.35-0.25c-0.5,0-0.934,0.083-1.3,0.25C34.783-8.05,34.6-7.817,34.6-7.55z"/>
			<path style="fill-rule:evenodd;clip-rule:evenodd;fill:#51422D;" d="M26.35-12.9c0,0.7,0.65,1.3,1.95,1.8
				c1.3,0.5,2.867,0.75,4.7,0.75s3.4-0.25,4.7-0.75c1.3-0.5,1.95-1.1,1.95-1.8c0-0.7-0.65-1.3-1.95-1.8
				c-1.267-0.466-2.833-0.7-4.7-0.7c-1.833,0-3.4,0.233-4.7,0.7C27-14.2,26.35-13.6,26.35-12.9z"/>
			
				<use xlink:href="#Untitled-1.ai_x2F_Layer_1_x2F__x3C_Path_x3E__x5F_9_x5F_1"  width="9.55" height="4.25" y="-4.25" transform="matrix(1 0 0 1 17.6001 -6.6499)" style="overflow:visible;opacity:0.6992;enable-background:new    ;"/>
			<path style="fill-rule:evenodd;clip-rule:evenodd;fill:#51422D;" d="M11.2-4.25c0,0.433,0.367,0.817,1.1,1.15
				c0.767,0.3,1.684,0.45,2.75,0.45c1.067,0,1.983-0.15,2.75-0.45c0.733-0.333,1.1-0.717,1.1-1.15s-0.367-0.8-1.1-1.1
				c-0.767-0.333-1.683-0.5-2.75-0.5c-1.066,0-1.983,0.167-2.75,0.5C11.567-5.05,11.2-4.683,11.2-4.25z"/>
			<path style="fill-rule:evenodd;clip-rule:evenodd;fill:#51422D;" d="M13.6-7.95c0,0.534,0.483,0.8,1.45,0.8
				c0.4,0,0.75-0.083,1.05-0.25c0.267-0.133,0.4-0.317,0.4-0.55c0-0.233-0.133-0.417-0.4-0.55c-0.3-0.167-0.65-0.25-1.05-0.25
				C14.083-8.75,13.6-8.483,13.6-7.95z"/>
			
				<use xlink:href="#Untitled-1.ai_x2F_Layer_1_x2F__x3C_Path_x3E__x5F_6_x5F_1"  width="3.45" height="1.6" y="-1.6" transform="matrix(1 0 0 1 21.8501 -0.25)" style="overflow:visible;opacity:0.5;enable-background:new    ;"/>
			
				<use xlink:href="#Untitled-1.ai_x2F_Layer_1_x2F__x3C_Path_x3E__x5F_5_x5F_0"  width="4.25" height="1.6" y="-1.6" transform="matrix(1 0 0 1 0 -3.4502)" style="overflow:visible;opacity:0.5;enable-background:new    ;"/>
			
				<use xlink:href="#Untitled-1.ai_x2F_Layer_1_x2F__x3C_Path_x3E__x5F_4_x5F_0"  width="6.65" height="2.95" y="-2.95" transform="matrix(1 0 0 1 55.6499 -11.3999)" style="overflow:visible;opacity:0.5;enable-background:new    ;"/>
			<path style="fill-rule:evenodd;clip-rule:evenodd;fill:#51422D;" d="M54.85-8.5c0,0.233,0.167,0.417,0.5,0.55
				c0.333,0.167,0.733,0.25,1.2,0.25c0.467,0,0.883-0.083,1.25-0.25c0.333-0.133,0.5-0.316,0.5-0.55s-0.167-0.417-0.5-0.55
				c-0.367-0.167-0.783-0.25-1.25-0.25c-0.466,0-0.867,0.083-1.2,0.25C55.017-8.917,54.85-8.733,54.85-8.5z"/>
			<path style="fill-rule:evenodd;clip-rule:evenodd;fill:#51422D;" d="M72.95-12.9c0,0.267,0.167,0.5,0.5,0.7
				c0.333,0.167,0.733,0.25,1.2,0.25c0.5,0,0.917-0.083,1.25-0.25c0.333-0.2,0.5-0.433,0.5-0.7c0-0.233-0.167-0.45-0.5-0.65
				c-0.367-0.167-0.783-0.25-1.25-0.25s-0.867,0.083-1.2,0.25C73.117-13.383,72.95-13.167,72.95-12.9z"/>
			
				<use xlink:href="#Untitled-1.ai_x2F_Layer_1_x2F__x3C_Path_x3E__x5F_1_x5F_1"  width="8" height="3.45" y="-3.45" transform="matrix(1 0 0 1 65.2002 -7.1499)" style="overflow:visible;opacity:0.6992;enable-background:new    ;"/>
			
				<use xlink:href="#Untitled-1.ai_x2F_Layer_1_x2F__x3C_Path_x3E__x5F_8"  width="3.45" height="1.75" y="-1.75" transform="matrix(1 0 0 1 8 -6.1499)" style="overflow:visible;opacity:0.6992;enable-background:new    ;"/>
		</g>
	</g>
</symbol>
<symbol  id="Untitled-1.ai_x2F_Layer_1_x2F__x3C_Group_x3E__x5F_5" viewBox="0 -9.4 46.4 9.4">
	<g id="Layer_1_59_">
		<g>
			
				<use xlink:href="#Untitled-1.ai_x2F_Layer_1_x2F__x3C_Path_x3E__x5F_13"  width="8.25" height="3.9" y="-3.9" transform="matrix(1 0 0 1 13.6001 -2.25)" style="overflow:visible;opacity:0.6992;enable-background:new    ;"/>
			<path style="fill-rule:evenodd;clip-rule:evenodd;fill:#51422D;" d="M25.85-1.3c0-0.367-0.25-0.667-0.75-0.9
				c-0.5-0.267-1.1-0.4-1.8-0.4c-0.733,0-1.35,0.133-1.85,0.4c-0.5,0.233-0.75,0.534-0.75,0.9s0.25,0.667,0.75,0.9
				C21.95-0.133,22.567,0,23.3,0c0.7,0,1.3-0.133,1.8-0.4C25.6-0.633,25.85-0.933,25.85-1.3z"/>
			<path style="fill-rule:evenodd;clip-rule:evenodd;fill:#51422D;" d="M25.4-4.6c0-0.167-0.117-0.3-0.35-0.4
				c-0.2-0.133-0.466-0.2-0.8-0.2c-0.3,0-0.567,0.067-0.8,0.2c-0.233,0.1-0.35,0.233-0.35,0.4c0,0.367,0.383,0.55,1.15,0.55
				S25.4-4.233,25.4-4.6z"/>
			<path style="fill-rule:evenodd;clip-rule:evenodd;fill:#51422D;" d="M30.4-7.85c0-0.433-0.4-0.8-1.2-1.1
				c-0.767-0.3-1.717-0.45-2.85-0.45s-2.083,0.15-2.85,0.45c-0.8,0.3-1.2,0.667-1.2,1.1c0,0.434,0.4,0.8,1.2,1.1
				c0.767,0.3,1.717,0.45,2.85,0.45s2.083-0.15,2.85-0.45C30-7.05,30.4-7.417,30.4-7.85z"/>
			
				<use xlink:href="#Untitled-1.ai_x2F_Layer_1_x2F__x3C_Path_x3E__x5F_9_x5F_0"  width="5.85" height="2.6" y="-2.6" transform="matrix(1 0 0 1 29.8999 -4.0498)" style="overflow:visible;opacity:0.6992;enable-background:new    ;"/>
			<path style="fill-rule:evenodd;clip-rule:evenodd;fill:#51422D;" d="M39.6-2.6c0-0.267-0.233-0.483-0.7-0.65
				c-0.433-0.2-0.967-0.3-1.6-0.3s-1.183,0.1-1.65,0.3c-0.467,0.167-0.7,0.383-0.7,0.65s0.233,0.5,0.7,0.7
				c0.467,0.2,1.017,0.3,1.65,0.3s1.167-0.1,1.6-0.3C39.367-2.1,39.6-2.333,39.6-2.6z"/>
			<path style="fill-rule:evenodd;clip-rule:evenodd;fill:#51422D;" d="M38.15-4.85c0-0.333-0.283-0.5-0.85-0.5
				c-0.6,0-0.9,0.167-0.9,0.5c0,0.333,0.3,0.5,0.9,0.5C37.867-4.35,38.15-4.517,38.15-4.85z"/>
			
				<use xlink:href="#Untitled-1.ai_x2F_Layer_1_x2F__x3C_Path_x3E__x5F_6_x5F_0"  width="2.1" height="1" y="-1" transform="matrix(1 0 0 1 31.0498 -0.1499)" style="overflow:visible;opacity:0.5;enable-background:new    ;"/>
			
				<use xlink:href="#Untitled-1.ai_x2F_Layer_1_x2F__x3C_Path_x3E__x5F_5"  width="2.55" height="0.95" y="-0.95" transform="matrix(1 0 0 1 43.8501 -2.1001)" style="overflow:visible;opacity:0.5;enable-background:new    ;"/>
			
				<use xlink:href="#Untitled-1.ai_x2F_Layer_1_x2F__x3C_Path_x3E__x5F_4"  width="4.05" height="1.8" y="-1.8" transform="matrix(1 0 0 1 8.5498 -6.9502)" style="overflow:visible;opacity:0.5;enable-background:new    ;"/>
			<path style="fill-rule:evenodd;clip-rule:evenodd;fill:#51422D;" d="M13.1-5.2c0-0.3-0.35-0.45-1.05-0.45
				C11.35-5.65,11-5.5,11-5.2c0,0.333,0.35,0.5,1.05,0.5C12.75-4.7,13.1-4.867,13.1-5.2z"/>
			<path style="fill-rule:evenodd;clip-rule:evenodd;fill:#51422D;" d="M2.1-7.85c0-0.367-0.35-0.55-1.05-0.55
				C0.35-8.4,0-8.217,0-7.85S0.35-7.3,1.05-7.3C1.75-7.3,2.1-7.483,2.1-7.85z"/>
			
				<use xlink:href="#Untitled-1.ai_x2F_Layer_1_x2F__x3C_Path_x3E__x5F_1_x5F_0"  width="4.85" height="2.1" y="-2.1" transform="matrix(1 0 0 1 1.9502 -4.3501)" style="overflow:visible;opacity:0.6992;enable-background:new    ;"/>
			
				<use xlink:href="#Untitled-1.ai_x2F_Layer_1_x2F__x3C_Path_x3E__x5F_7"  width="2.1" height="1.05" y="-1.05" transform="matrix(1 0 0 1 39.4502 -3.75)" style="overflow:visible;opacity:0.6992;enable-background:new    ;"/>
		</g>
	</g>
</symbol>
<symbol  id="Untitled-1.ai_x2F_Layer_1_x2F__x3C_Group_x3E__x5F_6" viewBox="0 -10.7 57.05 10.7">
	<g id="Layer_1_58_">
		<g>
			
				<use xlink:href="#Untitled-1.ai_x2F_Layer_1_x2F__x3C_Path_x3E__x5F_9"  width="13.3" height="6.25" y="-6.25" transform="matrix(1 0 0 1 4.1499 -3.6499)" style="overflow:visible;opacity:0.6992;enable-background:new    ;"/>
			<path style="fill-rule:evenodd;clip-rule:evenodd;fill:#51422D;" d="M23.95-2.1c0-0.566-0.4-1.066-1.2-1.5
				C21.917-4,20.933-4.2,19.8-4.2S17.683-4,16.85-3.6c-0.833,0.434-1.25,0.934-1.25,1.5c0,0.567,0.417,1.067,1.25,1.5
				C17.683-0.2,18.667,0,19.8,0s2.117-0.2,2.95-0.6C23.55-1.033,23.95-1.533,23.95-2.1z"/>
			<path style="fill-rule:evenodd;clip-rule:evenodd;fill:#51422D;" d="M23.15-7.45c0-0.267-0.167-0.483-0.5-0.65
				c-0.367-0.167-0.8-0.25-1.3-0.25s-0.934,0.083-1.3,0.25c-0.367,0.2-0.55,0.417-0.55,0.65c0,0.233,0.183,0.45,0.55,0.65
				c0.367,0.167,0.8,0.25,1.3,0.25s0.933-0.083,1.3-0.25C22.983-7,23.15-7.217,23.15-7.45z"/>
			
				<use xlink:href="#Untitled-1.ai_x2F_Layer_1_x2F__x3C_Path_x3E__x5F_6"  width="9.4" height="4.15" y="-4.15" transform="matrix(1 0 0 1 30.4502 -6.5498)" style="overflow:visible;opacity:0.6992;enable-background:new    ;"/>
			<path style="fill-rule:evenodd;clip-rule:evenodd;fill:#51422D;" d="M46.1-4.2c0-0.433-0.367-0.8-1.1-1.1
				c-0.767-0.3-1.667-0.45-2.7-0.45c-1.033,0-1.917,0.15-2.65,0.45c-0.733,0.3-1.1,0.667-1.1,1.1c0,0.434,0.367,0.817,1.1,1.15
				c0.733,0.3,1.617,0.45,2.65,0.45c1.067,0,1.967-0.15,2.7-0.45C45.733-3.383,46.1-3.767,46.1-4.2z"/>
			<path style="fill-rule:evenodd;clip-rule:evenodd;fill:#51422D;" d="M43.75-7.85c0-0.2-0.133-0.383-0.4-0.55
				c-0.3-0.133-0.65-0.2-1.05-0.2c-0.367,0-0.7,0.067-1,0.2c-0.267,0.167-0.4,0.35-0.4,0.55c0,0.233,0.133,0.417,0.4,0.55
				c0.3,0.167,0.633,0.25,1,0.25c0.4,0,0.75-0.083,1.05-0.25C43.617-7.433,43.75-7.617,43.75-7.85z"/>
			
				<use xlink:href="#Untitled-1.ai_x2F_Layer_1_x2F__x3C_Path_x3E__x5F_3_x5F_0"  width="3.4" height="1.55" y="-1.55" transform="matrix(1 0 0 1 32.2998 -0.2998)" style="overflow:visible;opacity:0.5;enable-background:new    ;"/>
			
				<use xlink:href="#Untitled-1.ai_x2F_Layer_1_x2F__x3C_Path_x3E__x5F_2_x5F_0"  width="4.15" height="1.55" y="-1.55" transform="matrix(1 0 0 1 52.8999 -3.3999)" style="overflow:visible;opacity:0.5;enable-background:new    ;"/>
			<path style="fill-rule:evenodd;clip-rule:evenodd;fill:#51422D;" d="M3.35-8.35c0-0.233-0.167-0.417-0.5-0.55
				c-0.333-0.167-0.733-0.25-1.2-0.25S0.8-9.067,0.5-8.9C0.167-8.767,0-8.583,0-8.35S0.167-7.933,0.5-7.8
				c0.3,0.167,0.683,0.25,1.15,0.25s0.867-0.083,1.2-0.25C3.183-7.933,3.35-8.117,3.35-8.35z"/>
			
				<use xlink:href="#Untitled-1.ai_x2F_Layer_1_x2F__x3C_Path_x3E__x5F_0"  width="3.4" height="1.7" y="-1.7" transform="matrix(1 0 0 1 45.8501 -6.0498)" style="overflow:visible;opacity:0.6992;enable-background:new    ;"/>
		</g>
	</g>
</symbol>
<symbol  id="Untitled-1.ai_x2F_Layer_1_x2F__x3C_Path_x3E_" viewBox="0 -158.9 38.35 158.9">
	<g id="Layer_1_9_">
		<linearGradient id="SVGID_4_" gradientUnits="userSpaceOnUse" x1="0" y1="-79.4502" x2="38.3501" y2="-79.4502">
			<stop  offset="0" style="stop-color:#392A16"/>
			<stop  offset="0.0549" style="stop-color:#564938"/>
			<stop  offset="0.1725" style="stop-color:#9F978E"/>
			<stop  offset="0.3176" style="stop-color:#FFFFFF"/>
			<stop  offset="1" style="stop-color:#392A16"/>
		</linearGradient>
		<path style="fill-rule:evenodd;clip-rule:evenodd;fill:url(#SVGID_4_);" d="M0-4.7L38.35,0c-0.833-5.667-1.7-13.267-2.6-22.8
			c-1.8-19-2.917-38.1-3.35-57.3c-0.4-19.2,0.25-38.1,1.95-56.7c0.833-9.3,1.717-16.667,2.65-22.1H3.3c0.4,4,0.767,10.066,1.1,18.2
			c0.6,16.233,0.667,34.65,0.2,55.25c-0.467,20.567-1.383,40.2-2.75,58.9C1.183-17.217,0.567-9.933,0-4.7z"/>
	</g>
</symbol>
<symbol  id="Untitled-1.ai_x2F_Layer_1_x2F__x3C_Path_x3E__x5F_0" viewBox="0 -1.7 3.4 1.7">
	<g id="Layer_1_14_">
		<path style="fill-rule:evenodd;clip-rule:evenodd;fill:#51422D;" d="M3.4-0.85c0-0.233-0.167-0.433-0.5-0.6
			C2.567-1.617,2.167-1.7,1.7-1.7C0.567-1.7,0-1.417,0-0.85c0,0.233,0.167,0.434,0.5,0.6S1.233,0,1.7,0
			c0.466,0,0.867-0.083,1.2-0.25C3.233-0.417,3.4-0.617,3.4-0.85z"/>
	</g>
</symbol>
<symbol  id="Untitled-1.ai_x2F_Layer_1_x2F__x3C_Path_x3E__x5F_1" viewBox="0 -158.9 50.35 158.9">
	<g id="Layer_1_8_">
		<linearGradient id="SVGID_5_" gradientUnits="userSpaceOnUse" x1="0" y1="-79.4502" x2="50.3501" y2="-79.4502">
			<stop  offset="0" style="stop-color:#392A16"/>
			<stop  offset="0.0549" style="stop-color:#564938"/>
			<stop  offset="0.1725" style="stop-color:#9F978E"/>
			<stop  offset="0.3176" style="stop-color:#FFFFFF"/>
			<stop  offset="1" style="stop-color:#392A16"/>
		</linearGradient>
		<path style="fill-rule:evenodd;clip-rule:evenodd;fill:url(#SVGID_5_);" d="M50.35,0c-1.1-5.667-2.25-13.267-3.45-22.8
			c-2.367-19-3.816-38.1-4.35-57.3c-0.533-19.2,0.317-38.1,2.55-56.7c1.133-9.3,2.3-16.667,3.5-22.1H4.3
			c0.534,4,1.017,10.066,1.45,18.2c0.833,16.233,0.933,34.65,0.3,55.25c-0.633,20.567-1.833,40.2-3.6,58.9
			C1.583-17.217,0.767-9.933,0-4.7L50.35,0z"/>
	</g>
</symbol>
<symbol  id="Untitled-1.ai_x2F_Layer_1_x2F__x3C_Path_x3E__x5F_10" viewBox="0 -0.8 1.6 0.8">
	<g id="Layer_1_35_">
		<path style="fill-rule:evenodd;clip-rule:evenodd;fill:#51422D;" d="M0-0.4C0-0.133,0.267,0,0.8,0c0.534,0,0.8-0.133,0.8-0.4
			S1.333-0.8,0.8-0.8C0.267-0.8,0-0.667,0-0.4z"/>
	</g>
</symbol>
<symbol  id="Untitled-1.ai_x2F_Layer_1_x2F__x3C_Path_x3E__x5F_11" viewBox="0 -1.05 2.1 1.05">
	<g id="Layer_1_42_">
		<path style="fill-rule:evenodd;clip-rule:evenodd;fill:#51422D;" d="M2.1-0.55c0-0.333-0.35-0.5-1.05-0.5
			C0.35-1.05,0-0.883,0-0.55C0-0.183,0.35,0,1.05,0C1.75,0,2.1-0.183,2.1-0.55z"/>
	</g>
</symbol>
<symbol  id="Untitled-1.ai_x2F_Layer_1_x2F__x3C_Path_x3E__x5F_12" viewBox="0 -2.15 4.35 2.15">
	<g id="Layer_1_49_">
		<path style="fill-rule:evenodd;clip-rule:evenodd;fill:#51422D;" d="M4.35-1.05c0-0.3-0.2-0.567-0.6-0.8
			c-0.433-0.2-0.95-0.3-1.55-0.3c-0.6,0-1.117,0.1-1.55,0.3C0.217-1.617,0-1.35,0-1.05C0-0.75,0.217-0.5,0.65-0.3
			C1.083-0.1,1.6,0,2.2,0c0.6,0,1.117-0.1,1.55-0.3C4.15-0.5,4.35-0.75,4.35-1.05z"/>
	</g>
</symbol>
<symbol  id="Untitled-1.ai_x2F_Layer_1_x2F__x3C_Path_x3E__x5F_13" viewBox="0 -3.9 8.25 3.9">
	<g id="Layer_1_15_">
		<path style="fill-rule:evenodd;clip-rule:evenodd;fill:#51422D;" d="M8.25-1.95c0-0.533-0.4-1-1.2-1.4
			C6.25-3.717,5.267-3.9,4.1-3.9C2.967-3.9,2-3.717,1.2-3.35C0.4-2.95,0-2.483,0-1.95C0-1.417,0.4-0.967,1.2-0.6
			C2-0.2,2.967,0,4.1,0s2.117-0.2,2.95-0.6C7.85-0.967,8.25-1.417,8.25-1.95z"/>
	</g>
</symbol>
<symbol  id="Untitled-1.ai_x2F_Layer_1_x2F__x3C_Path_x3E__x5F_13_x5F_0" viewBox="0 -6.4 13.6 6.4">
	<g id="Layer_1_22_">
		<path style="fill-rule:evenodd;clip-rule:evenodd;fill:#51422D;" d="M0-3.2c0,0.867,0.667,1.617,2,2.25S4.933,0,6.8,0
			s3.467-0.317,4.8-0.95c1.333-0.633,2-1.383,2-2.25s-0.667-1.617-2-2.25C10.267-6.083,8.667-6.4,6.8-6.4S3.333-6.083,2-5.45
			S0-4.067,0-3.2z"/>
	</g>
</symbol>
<symbol  id="Untitled-1.ai_x2F_Layer_1_x2F__x3C_Path_x3E__x5F_13_x5F_1" viewBox="0 -3 6.3 3">
	<g id="Layer_1_29_">
		<path style="fill-rule:evenodd;clip-rule:evenodd;fill:#51422D;" d="M0-1.5c0,0.433,0.3,0.783,0.9,1.05C1.533-0.15,2.283,0,3.15,0
			S4.767-0.15,5.4-0.45C6-0.717,6.3-1.067,6.3-1.5c0-0.4-0.3-0.75-0.9-1.05C4.767-2.85,4.017-3,3.15-3S1.533-2.85,0.9-2.55
			C0.3-2.25,0-1.9,0-1.5z"/>
	</g>
</symbol>
<symbol  id="Untitled-1.ai_x2F_Layer_1_x2F__x3C_Path_x3E__x5F_13_x5F_2" viewBox="0 -3.9 8.25 3.9">
	<g id="Layer_1_36_">
		<path style="fill-rule:evenodd;clip-rule:evenodd;fill:#51422D;" d="M8.25-1.95c0-0.533-0.4-1-1.2-1.4
			C6.25-3.717,5.267-3.9,4.1-3.9C2.967-3.9,2-3.717,1.2-3.35C0.4-2.95,0-2.483,0-1.95C0-1.417,0.4-0.967,1.2-0.6
			C2-0.2,2.967,0,4.1,0s2.117-0.2,2.95-0.6C7.85-0.967,8.25-1.417,8.25-1.95z"/>
	</g>
</symbol>
<symbol  id="Untitled-1.ai_x2F_Layer_1_x2F__x3C_Path_x3E__x5F_13_x5F_3" viewBox="0 -8 17.05 8">
	<g id="Layer_1_43_">
		<path style="fill-rule:evenodd;clip-rule:evenodd;fill:#51422D;" d="M17.05-4c0-1.1-0.833-2.05-2.5-2.85
			C12.883-7.617,10.867-8,8.5-8c-2.333,0-4.333,0.383-6,1.15C0.833-6.05,0-5.1,0-4s0.833,2.033,2.5,2.8C4.167-0.4,6.167,0,8.5,0
			c2.367,0,4.383-0.4,6.05-1.2C16.217-1.967,17.05-2.9,17.05-4z"/>
	</g>
</symbol>
<symbol  id="Untitled-1.ai_x2F_Layer_1_x2F__x3C_Path_x3E__x5F_13_x5F_4" viewBox="0 -4.6 8.4 4.6">
	<g id="Layer_1_50_">
		<path style="fill-rule:evenodd;clip-rule:evenodd;fill:#51422D;" d="M8.4-2.3c0-0.633-0.4-1.167-1.2-1.6
			c-0.833-0.467-1.833-0.7-3-0.7c-1.133,0-2.117,0.233-2.95,0.7C0.417-3.467,0-2.933,0-2.3s0.417,1.167,1.25,1.6
			C2.083-0.233,3.067,0,4.2,0c1.167,0,2.167-0.233,3-0.7C8-1.133,8.4-1.667,8.4-2.3z"/>
	</g>
</symbol>
<symbol  id="Untitled-1.ai_x2F_Layer_1_x2F__x3C_Path_x3E__x5F_14" viewBox="0 -1.2 2.15 1.2">
	<g id="Layer_1_56_">
		<path style="fill-rule:evenodd;clip-rule:evenodd;fill:#51422D;" d="M2.15-0.6c0-0.4-0.367-0.6-1.1-0.6C0.35-1.2,0-1,0-0.6
			S0.35,0,1.05,0C1.783,0,2.15-0.2,2.15-0.6z"/>
	</g>
</symbol>
<symbol  id="Untitled-1.ai_x2F_Layer_1_x2F__x3C_Path_x3E__x5F_1_x5F_0" viewBox="0 -2.1 4.85 2.1">
	<g id="Layer_1_20_">
		<path style="fill-rule:evenodd;clip-rule:evenodd;fill:#51422D;" d="M4.85-1.05c0-0.3-0.233-0.55-0.7-0.75
			C3.65-2,3.067-2.1,2.4-2.1C1.733-2.1,1.167-2,0.7-1.8C0.233-1.6,0-1.35,0-1.05C0-0.783,0.233-0.533,0.7-0.3
			C1.167-0.1,1.733,0,2.4,0c0.667,0,1.25-0.1,1.75-0.3C4.617-0.533,4.85-0.783,4.85-1.05z"/>
	</g>
</symbol>
<symbol  id="Untitled-1.ai_x2F_Layer_1_x2F__x3C_Path_x3E__x5F_1_x5F_1" viewBox="0 -3.45 8 3.45">
	<g id="Layer_1_27_">
		<path style="fill-rule:evenodd;clip-rule:evenodd;fill:#51422D;" d="M0-1.75C0-1.283,0.4-0.867,1.2-0.5C1.967-0.167,2.9,0,4,0
			s2.05-0.167,2.85-0.5C7.617-0.867,8-1.283,8-1.75s-0.383-0.867-1.15-1.2C6.05-3.283,5.1-3.45,4-3.45s-2.033,0.167-2.8,0.5
			C0.4-2.617,0-2.217,0-1.75z"/>
	</g>
</symbol>
<symbol  id="Untitled-1.ai_x2F_Layer_1_x2F__x3C_Path_x3E__x5F_1_x5F_2" viewBox="0 -1.6 3.7 1.6">
	<g id="Layer_1_34_">
		<path style="fill-rule:evenodd;clip-rule:evenodd;fill:#51422D;" d="M0-0.8c0,0.2,0.183,0.383,0.55,0.55S1.35,0,1.85,0
			s0.933-0.083,1.3-0.25S3.7-0.6,3.7-0.8c0-0.233-0.184-0.417-0.55-0.55C2.783-1.517,2.35-1.6,1.85-1.6s-0.934,0.083-1.3,0.25
			C0.183-1.217,0-1.033,0-0.8z"/>
	</g>
</symbol>
<symbol  id="Untitled-1.ai_x2F_Layer_1_x2F__x3C_Path_x3E__x5F_1_x5F_3" viewBox="0 -2.15 4.85 2.15">
	<g id="Layer_1_41_">
		<path style="fill-rule:evenodd;clip-rule:evenodd;fill:#51422D;" d="M4.85-1.1c0-0.267-0.233-0.517-0.7-0.75
			c-0.5-0.2-1.083-0.3-1.75-0.3c-0.633,0-1.2,0.1-1.7,0.3C0.233-1.617,0-1.367,0-1.1c0,0.3,0.233,0.55,0.7,0.75
			C1.167-0.117,1.733,0,2.4,0c0.667,0,1.25-0.117,1.75-0.35C4.617-0.55,4.85-0.8,4.85-1.1z"/>
	</g>
</symbol>
<symbol  id="Untitled-1.ai_x2F_Layer_1_x2F__x3C_Path_x3E__x5F_1_x5F_4" viewBox="0 -4.35 10.05 4.35">
	<g id="Layer_1_48_">
		<path style="fill-rule:evenodd;clip-rule:evenodd;fill:#51422D;" d="M10.05-2.15c0-0.6-0.483-1.117-1.45-1.55
			c-1-0.433-2.184-0.65-3.55-0.65c-1.4,0-2.583,0.217-3.55,0.65C0.5-3.267,0-2.75,0-2.15s0.5,1.1,1.5,1.5C2.467-0.217,3.65,0,5.05,0
			C6.417,0,7.6-0.217,8.6-0.65C9.567-1.05,10.05-1.55,10.05-2.15z"/>
	</g>
</symbol>
<symbol  id="Untitled-1.ai_x2F_Layer_1_x2F__x3C_Path_x3E__x5F_1_x5F_5" viewBox="0 -2.5 4.95 2.5">
	<g id="Layer_1_55_">
		<path style="fill-rule:evenodd;clip-rule:evenodd;fill:#51422D;" d="M4.95-1.25c0-0.333-0.233-0.617-0.7-0.85
			C3.75-2.367,3.167-2.5,2.5-2.5S1.25-2.367,0.75-2.1C0.25-1.867,0-1.583,0-1.25s0.25,0.633,0.75,0.9C1.25-0.117,1.833,0,2.5,0
			s1.25-0.117,1.75-0.35C4.717-0.617,4.95-0.917,4.95-1.25z"/>
	</g>
</symbol>
<symbol  id="Untitled-1.ai_x2F_Layer_1_x2F__x3C_Path_x3E__x5F_2" viewBox="0 -158.9 179.95 158.9">
	<g id="Layer_1_7_">
		<linearGradient id="SVGID_6_" gradientUnits="userSpaceOnUse" x1="0" y1="-79.4502" x2="179.9502" y2="-79.4502">
			<stop  offset="0" style="stop-color:#392A16"/>
			<stop  offset="0.1059" style="stop-color:#564938"/>
			<stop  offset="0.3373" style="stop-color:#9F978E"/>
			<stop  offset="0.6196" style="stop-color:#FFFFFF"/>
			<stop  offset="1" style="stop-color:#392A16"/>
		</linearGradient>
		<path style="fill-rule:evenodd;clip-rule:evenodd;fill:url(#SVGID_6_);" d="M179.95,0c-1.1-5.667-2.25-13.267-3.45-22.8
			c-2.367-19-3.817-38.1-4.35-57.3c-0.533-19.2,0.317-38.1,2.55-56.7c1.133-9.3,2.3-16.667,3.5-22.1H4.3
			c0.534,4,1.017,10.066,1.45,18.2c0.833,16.233,0.933,34.65,0.3,55.25c-0.633,20.567-1.833,40.2-3.6,58.9
			C1.583-17.217,0.767-9.933,0-4.7L179.95,0z"/>
	</g>
</symbol>
<symbol  id="Untitled-1.ai_x2F_Layer_1_x2F__x3C_Path_x3E__x5F_2_x5F_0" viewBox="0 -1.55 4.15 1.55">
	<g id="Layer_1_13_">
		<path style="fill-rule:evenodd;clip-rule:evenodd;fill:#51422D;" d="M4.15-0.8c0-0.2-0.2-0.383-0.6-0.55
			c-0.433-0.133-0.933-0.2-1.5-0.2C1.483-1.55,1-1.483,0.6-1.35C0.2-1.183,0-1,0-0.8c0,0.233,0.2,0.417,0.6,0.55
			C1-0.083,1.483,0,2.05,0c0.567,0,1.067-0.083,1.5-0.25C3.95-0.383,4.15-0.567,4.15-0.8z"/>
	</g>
</symbol>
<symbol  id="Untitled-1.ai_x2F_Layer_1_x2F__x3C_Path_x3E__x5F_3" viewBox="0 -145.9 63.35 145.9">
	<g id="Layer_1_6_">
		<linearGradient id="SVGID_7_" gradientUnits="userSpaceOnUse" x1="0" y1="-72.9502" x2="63.3501" y2="-72.9502">
			<stop  offset="0" style="stop-color:#392A16"/>
			<stop  offset="0.1059" style="stop-color:#564938"/>
			<stop  offset="0.3373" style="stop-color:#9F978E"/>
			<stop  offset="0.6196" style="stop-color:#FFFFFF"/>
		</linearGradient>
		<path style="fill-rule:evenodd;clip-rule:evenodd;fill:url(#SVGID_7_);" d="M63.35,0c-1.367-4.6-2.8-10.767-4.3-18.5
			c-3.033-15.467-4.867-31-5.5-46.6c-0.667-15.6,0.4-33.75,3.2-54.45c1.4-10.333,2.867-19.117,4.4-26.35H5.4
			c0.7,6.066,1.3,13.8,1.8,23.2c1.066,18.8,1.2,36.567,0.4,53.3C6.8-52.7,5.3-36.75,3.1-21.55C2-13.983,0.967-8.067,0-3.8L63.35,0z"
			/>
	</g>
</symbol>
<symbol  id="Untitled-1.ai_x2F_Layer_1_x2F__x3C_Path_x3E__x5F_3_x5F_0" viewBox="0 -1.55 3.4 1.55">
	<g id="Layer_1_12_">
		<path style="fill-rule:evenodd;clip-rule:evenodd;fill:#51422D;" d="M3.4-0.75c0-0.233-0.167-0.417-0.5-0.55
			C2.567-1.467,2.167-1.55,1.7-1.55c-0.467,0-0.867,0.083-1.2,0.25C0.167-1.167,0-0.983,0-0.75c0,0.2,0.167,0.367,0.5,0.5
			C0.833-0.083,1.233,0,1.7,0c0.466,0,0.867-0.083,1.2-0.25C3.233-0.383,3.4-0.55,3.4-0.75z"/>
	</g>
</symbol>
<symbol  id="Untitled-1.ai_x2F_Layer_1_x2F__x3C_Path_x3E__x5F_4" viewBox="0 -1.8 4.05 1.8">
	<g id="Layer_1_19_">
		<path style="fill-rule:evenodd;clip-rule:evenodd;fill:#51422D;" d="M4.05-0.9c0-0.267-0.2-0.483-0.6-0.65
			C3.083-1.717,2.617-1.8,2.05-1.8C1.483-1.8,1-1.717,0.6-1.55C0.2-1.383,0-1.167,0-0.9c0,0.233,0.2,0.45,0.6,0.65
			C1-0.083,1.483,0,2.05,0c0.567,0,1.034-0.083,1.4-0.25C3.85-0.45,4.05-0.667,4.05-0.9z"/>
	</g>
</symbol>
<symbol  id="Untitled-1.ai_x2F_Layer_1_x2F__x3C_Path_x3E__x5F_4_x5F_0" viewBox="0 -2.95 6.65 2.95">
	<g id="Layer_1_26_">
		<path style="fill-rule:evenodd;clip-rule:evenodd;fill:#51422D;" d="M0-1.5c0,0.4,0.333,0.75,1,1.05C1.633-0.15,2.4,0,3.3,0
			c0.934,0,1.717-0.15,2.35-0.45c0.667-0.3,1-0.65,1-1.05s-0.333-0.75-1-1.05c-0.633-0.267-1.417-0.4-2.35-0.4
			c-0.9,0-1.667,0.133-2.3,0.4C0.333-2.25,0-1.9,0-1.5z"/>
	</g>
</symbol>
<symbol  id="Untitled-1.ai_x2F_Layer_1_x2F__x3C_Path_x3E__x5F_4_x5F_1" viewBox="0 -1.35 3.1 1.35">
	<g id="Layer_1_33_">
		<path style="fill-rule:evenodd;clip-rule:evenodd;fill:#51422D;" d="M0-0.65C0-0.483,0.15-0.333,0.45-0.2
			C0.75-0.067,1.117,0,1.55,0c0.434,0,0.8-0.067,1.1-0.2C2.95-0.333,3.1-0.483,3.1-0.65c0-0.2-0.15-0.367-0.45-0.5
			c-0.3-0.133-0.667-0.2-1.1-0.2c-0.433,0-0.8,0.067-1.1,0.2C0.15-1.017,0-0.85,0-0.65z"/>
	</g>
</symbol>
<symbol  id="Untitled-1.ai_x2F_Layer_1_x2F__x3C_Path_x3E__x5F_4_x5F_2" viewBox="0 -1.8 4.05 1.8">
	<g id="Layer_1_40_">
		<path style="fill-rule:evenodd;clip-rule:evenodd;fill:#51422D;" d="M4.05-0.9c0-0.267-0.2-0.483-0.6-0.65
			C3.083-1.717,2.617-1.8,2.05-1.8C1.483-1.8,1-1.717,0.6-1.55C0.2-1.35,0-1.133,0-0.9s0.2,0.45,0.6,0.65C1-0.083,1.483,0,2.05,0
			c0.567,0,1.034-0.083,1.4-0.25C3.85-0.45,4.05-0.667,4.05-0.9z"/>
	</g>
</symbol>
<symbol  id="Untitled-1.ai_x2F_Layer_1_x2F__x3C_Path_x3E__x5F_4_x5F_3" viewBox="0 -3.65 8.35 3.65">
	<g id="Layer_1_47_">
		<path style="fill-rule:evenodd;clip-rule:evenodd;fill:#51422D;" d="M8.35-1.85c0-0.5-0.4-0.933-1.2-1.3
			c-0.8-0.333-1.783-0.5-2.95-0.5c-1.167,0-2.15,0.167-2.95,0.5C0.417-2.783,0-2.35,0-1.85c0,0.533,0.417,0.967,1.25,1.3
			C2.05-0.183,3.033,0,4.2,0c1.167,0,2.15-0.183,2.95-0.55C7.95-0.883,8.35-1.317,8.35-1.85z"/>
	</g>
</symbol>
<symbol  id="Untitled-1.ai_x2F_Layer_1_x2F__x3C_Path_x3E__x5F_4_x5F_4" viewBox="0 -2.1 4.15 2.1">
	<g id="Layer_1_54_">
		<path style="fill-rule:evenodd;clip-rule:evenodd;fill:#51422D;" d="M4.15-1.05c0-0.3-0.2-0.55-0.6-0.75C3.15-2,2.667-2.1,2.1-2.1
			C1.533-2.1,1.033-2,0.6-1.8C0.2-1.6,0-1.35,0-1.05C0-0.75,0.2-0.5,0.6-0.3C1.033-0.1,1.533,0,2.1,0c0.566,0,1.05-0.1,1.45-0.3
			C3.95-0.5,4.15-0.75,4.15-1.05z"/>
	</g>
</symbol>
<symbol  id="Untitled-1.ai_x2F_Layer_1_x2F__x3C_Path_x3E__x5F_5" viewBox="0 -0.95 2.55 0.95">
	<g id="Layer_1_18_">
		<path style="fill-rule:evenodd;clip-rule:evenodd;fill:#51422D;" d="M2.55-0.5c0-0.3-0.433-0.45-1.3-0.45C0.417-0.95,0-0.8,0-0.5
			C0-0.167,0.417,0,1.25,0C2.117,0,2.55-0.167,2.55-0.5z"/>
	</g>
</symbol>
<symbol  id="Untitled-1.ai_x2F_Layer_1_x2F__x3C_Path_x3E__x5F_52" viewBox="0 -23.554 139.214 23.554">
	<g id="Layer_1_3_">
		<path style="fill-rule:evenodd;clip-rule:evenodd;" d="M136.35-7.25c1.1-0.733,1.717-1.417,1.85-2.05
			c0.066-0.333,0.1-0.717,0.1-1.15c0.167-0.2,0.417-0.433,0.75-0.7c0.2-0.267,0.217-0.667,0.05-1.2c-0.133-0.5-0.684-0.7-1.65-0.6
			c-1.267,0.267-2.25,0.417-2.95,0.45c-0.9,0.067-1.75,0.25-2.55,0.55L131-11.5c0.1-0.167,0.083-0.35-0.05-0.55
			c-0.233-0.4-0.85-0.667-1.85-0.8c-0.967-0.167-2.35,0.133-4.15,0.9l-2.35,1.2c0.033-0.133,0-0.267-0.1-0.4
			c-0.233-0.333-0.733-0.567-1.5-0.7c-0.8-0.167-1.733-0.2-2.8-0.1l-1.35,0.2c0.367,0.3,0.683,0.667,0.95,1.1
			c0.5,0.9,0.434,1.75-0.2,2.55c-0.633,0.767-1.5,0.95-2.6,0.55l-1.5-0.8l0.25-1.15c0.067-0.4,0.017-1.067-0.15-2
			c-1.233-0.067-2.267-0.183-3.1-0.35c-0.533-0.1-1.383-0.45-2.55-1.05l-1.6-0.85l0.65-0.3c0.433-0.333,0.683-0.733,0.75-1.2
			c0.067-0.733-0.85-1.15-2.75-1.25l4-0.5c1.767-0.233,2.133-0.783,1.1-1.65c-0.967-0.8-1.967-1.25-3-1.35
			c-0.567-0.033-1.283-0.217-2.15-0.55l-1.1-0.45c-0.067-0.2-0.333-0.383-0.8-0.55c-0.9-0.4-2.25-0.633-4.05-0.7
			c-1.833-0.033-3.883,0.083-6.15,0.35L90-21.5l0.4,0.2c0.333,0.167,0.7,0.433,1.1,0.8c1.3,1.167,1.55,2.55,0.75,4.15
			c-0.4,0.833-1.417,1.267-3.05,1.3l-2.35-0.2c-7.4-1.067-11.65-1.6-12.75-1.6c-1.467,0-2.917-0.167-4.35-0.5
			c-2-0.433-2.75-1.066-2.25-1.9c0.533-0.9,0.533-1.433,0-1.6c-0.433-0.167-1.9-0.25-4.4-0.25c-1.967,0-3.5,0.117-4.6,0.35l-1,0.4
			l1.95,0.25c1.466,0.267,2.566,0.55,3.3,0.85c0.833,0.367,1.233,1,1.2,1.9c-0.067,0.9-0.434,1.483-1.1,1.75
			c-0.5,0.2-1.033-0.05-1.6-0.75c-0.867-1.066-1.333-1.617-1.4-1.65c-0.4-0.3-1.067-0.417-2-0.35L56.6-18.1l1,0.35
			c0.5,0.2,0.917,0.733,1.25,1.6c0.333,0.833,0.5,1.717,0.5,2.65c0,0.9-0.6,1.617-1.8,2.15c-1.2,0.533-2.1,0.533-2.7,0
			c-0.467-0.433-0.667-1.167-0.6-2.2c0.033-0.534,0.117-1.017,0.25-1.45L52-14.25l0.75,0.5c0.333,0.233,0.467,0.65,0.4,1.25
			c-0.066,0.5-0.25,1-0.55,1.5c-0.267,0.5-0.95,0.467-2.05-0.1c-1.1-0.566-1.617-1.283-1.55-2.15c0.033-0.767,0.517-1.6,1.45-2.5
			c0.466-0.433,0.933-0.8,1.4-1.1c-0.667-0.5-1.917-0.8-3.75-0.9c-1.133-0.033-2.25,0.083-3.35,0.35L43.5-17
			c1.233,0,1.983,0.5,2.25,1.5c0.167,0.667-0.583,1.233-2.25,1.7c-1.367,0.367-2.783,0.55-4.25,0.55c-1,0-4.533-0.333-10.6-1
			c-3.033-0.333-5.967-0.667-8.8-1l0.3-0.4c0.367-0.367,1.017-0.817,1.95-1.35c0.967-0.533,0.617-0.967-1.05-1.3l-2.8-0.3
			c-0.033-0.433-0.217-0.867-0.55-1.3c-0.6-0.934-1.583-1.5-2.95-1.7c-1.367-0.2-2.483-0.033-3.35,0.5l-0.9,0.85
			c0.667,0.5,1,1.3,1,2.4c0,0.8-0.517,1.517-1.55,2.15c-1,0.633-2.067,0.95-3.2,0.95c-1.1,0-1.783-0.2-2.05-0.6
			c-0.233-0.367-0.35-1.283-0.35-2.75c0-1.233,0.717-2.25,2.15-3.05c0.8-0.467,1.633-0.783,2.5-0.95c0.3-0.1,0.017-0.316-0.85-0.65
			C7.217-23.15,6.167-23.4,5-23.5c-1.767-0.167-3.317,0.05-4.65,0.65c0.367,0.1,0.75,0.283,1.15,0.55
			c0.8,0.533,1.25,1.216,1.35,2.05s-0.35,1.667-1.35,2.5l-1.5,1L1.25-6.6L88.1-1.1C104.433-0.367,112.933,0,113.6,0
			c0.5,0,2.55-0.15,6.15-0.45c3.633-0.3,5.633-0.483,6-0.55c0.367-0.033,1.883-0.85,4.55-2.45C132.9-4.983,134.917-6.25,136.35-7.25
			z"/>
	</g>
</symbol>
<symbol  id="Untitled-1.ai_x2F_Layer_1_x2F__x3C_Path_x3E__x5F_53" viewBox="0 -28.5 122.433 28.5">
	<g id="Layer_1_2_">
		<path style="fill-rule:evenodd;clip-rule:evenodd;" d="M122.2-24.25c0.466-0.467,0.233-0.883-0.7-1.25
			c-0.833-0.3-1.667-0.267-2.5,0.1l-1,0.65c-0.4-0.5-0.967-1-1.7-1.5c-1.4-1-2.833-1.5-4.3-1.5s-2.617,0.083-3.45,0.25l-0.8,0.25
			c0,0.167,0.067,0.417,0.2,0.75c0.233,0.667,0.667,1.417,1.3,2.25s0.95,2.167,0.95,4l-0.2,2.5l-9.5-5l0.05-0.8
			c0.1-0.7,0.25-1.517,0.45-2.45c0.233-1.067,0.167-1.767-0.2-2.1c-0.333-0.267-1.1-0.4-2.3-0.4c-0.933,0-1.717,0.2-2.35,0.6
			l-0.65,0.65l1.75,1.5c0.733,0.633,1.167,1.4,1.3,2.3l-0.05,1.2l-3.75,2c-0.333-0.2-0.65-0.45-0.95-0.75
			c-0.633-0.6-0.9-1.1-0.8-1.5c0.2-0.8,0.167-1.683-0.1-2.65C92.567-26.383,91.85-27,90.75-27c-1.033,0-2.017,0.2-2.95,0.6
			l-1.05,0.65l3.25,2.5c0.933,0.733,1.467,2.067,1.6,4c-0.033,2.133-0.05,3.517-0.05,4.15c0.034,0.934-1.017,0.883-3.15-0.15
			c-2.167-1-3.633-2.083-4.4-3.25c-0.633-0.933-0.45-1.967,0.55-3.1c0.5-0.566,1.067-1.033,1.7-1.4c-1-0.5-2.333-0.583-4-0.25
			c-1.033,0.2-2.267,0.633-3.7,1.3L76.75-21c1.167,0.333,2,0.917,2.5,1.75c0.3,0.533-0.317,1.85-1.85,3.95L75-12.25
			c-1.3-0.133-2.633-0.367-4-0.7c-2.733-0.667-4.317-1.517-4.75-2.55c-0.433-1.1-0.317-1.783,0.35-2.05c0.3-0.133,1.1-0.2,2.4-0.2
			c1.167,0,2.667,0.75,4.5,2.25l0.95-2.15c0.466-1.5,0.233-2.45-0.7-2.85c-0.933-0.433-2.133-0.517-3.6-0.25l-1.9,0.5l0.4-0.4
			c0.133-0.367-0.167-0.817-0.9-1.35s-2.333-0.517-4.8,0.05L59.5-21l1.15,0.35c0.867,0.467,1.567,1.267,2.1,2.4
			c0.533,1.2,0.183,2.167-1.05,2.9c-0.9,0.567-1.8,0.85-2.7,0.85c-0.4,0-1.65-0.3-3.75-0.9l-3-0.85c-0.9,0.4-1.983,0.817-3.25,1.25
			c-2.5,0.833-4.583,1.25-6.25,1.25c-7.033,0-11.45-0.5-13.25-1.5c-0.933-0.533-0.917-1.067,0.05-1.6
			c0.467-0.267,1.034-0.483,1.7-0.65l1-0.75c0.567-0.433,0.633-0.917,0.2-1.45c-0.534-0.633-1.6-1.066-3.2-1.3
			c-1.467-0.2-3.283-0.05-5.45,0.45l-2.8,0.8l3,0.25c0.933,0.1,1.5,0.533,1.7,1.3c0.167,0.534,0.183,1.517,0.05,2.95
			c-0.1,1.167-0.8,2.267-2.1,3.3c-1.233,0.934-2.2,1.333-2.9,1.2c-0.533-0.1-1.767-0.583-3.7-1.45l-2.8-1.3l0.5,2
			c0.3,1.167,0.317,2.217,0.05,3.15c-0.3,1.067-0.9,1.434-1.8,1.1c-0.833-0.3-1.667-1.183-2.5-2.65c-0.4-0.733-0.733-1.434-1-2.1
			c-2.333,0.5-4.417,0.833-6.25,1c-1.133,0.1-2.017,0.383-2.65,0.85L0-9.5l1,0.25C1.667-9.083,1.75-7.667,1.25-5l96.5,5l9.95-11.2
			c6.833-7.566,10.767-11.5,11.8-11.8C120.867-23.4,121.767-23.817,122.2-24.25z"/>
	</g>
</symbol>
<symbol  id="Untitled-1.ai_x2F_Layer_1_x2F__x3C_Path_x3E__x5F_5_x5F_0" viewBox="0 -1.6 4.25 1.6">
	<g id="Layer_1_25_">
		<path style="fill-rule:evenodd;clip-rule:evenodd;fill:#51422D;" d="M0-0.8c0,0.233,0.217,0.417,0.65,0.55
			C1.05-0.083,1.55,0,2.15,0c0.567,0,1.067-0.083,1.5-0.25c0.4-0.133,0.6-0.317,0.6-0.55c0-0.233-0.2-0.417-0.6-0.55
			C3.217-1.517,2.717-1.6,2.15-1.6c-0.6,0-1.1,0.083-1.5,0.25C0.217-1.217,0-1.033,0-0.8z"/>
	</g>
</symbol>
<symbol  id="Untitled-1.ai_x2F_Layer_1_x2F__x3C_Path_x3E__x5F_5_x5F_1" viewBox="0 -0.75 2 0.75">
	<g id="Layer_1_32_">
		<path style="fill-rule:evenodd;clip-rule:evenodd;fill:#51422D;" d="M0-0.35C0-0.117,0.333,0,1,0s1-0.117,1-0.35
			c0-0.267-0.333-0.4-1-0.4S0-0.617,0-0.35z"/>
	</g>
</symbol>
<symbol  id="Untitled-1.ai_x2F_Layer_1_x2F__x3C_Path_x3E__x5F_5_x5F_2" viewBox="0 -1 2.55 1">
	<g id="Layer_1_39_">
		<path style="fill-rule:evenodd;clip-rule:evenodd;fill:#51422D;" d="M2.55-0.5c0-0.133-0.117-0.25-0.35-0.35
			C1.933-0.95,1.633-1,1.3-1C0.433-1,0-0.833,0-0.5S0.433,0,1.3,0C2.133,0,2.55-0.167,2.55-0.5z"/>
	</g>
</symbol>
<symbol  id="Untitled-1.ai_x2F_Layer_1_x2F__x3C_Path_x3E__x5F_5_x5F_3" viewBox="0 -2 5.35 2">
	<g id="Layer_1_46_">
		<path style="fill-rule:evenodd;clip-rule:evenodd;fill:#51422D;" d="M5.35-1c0-0.267-0.267-0.5-0.8-0.7C4.017-1.9,3.383-2,2.65-2
			S1.3-1.9,0.8-1.7C0.267-1.5,0-1.267,0-1s0.267,0.5,0.8,0.7C1.3-0.1,1.917,0,2.65,0s1.367-0.1,1.9-0.3C5.083-0.5,5.35-0.733,5.35-1
			z"/>
	</g>
</symbol>
<symbol  id="Untitled-1.ai_x2F_Layer_1_x2F__x3C_Path_x3E__x5F_5_x5F_4" viewBox="0 -1.1 2.65 1.1">
	<g id="Layer_1_53_">
		<path style="fill-rule:evenodd;clip-rule:evenodd;fill:#51422D;" d="M2.65-0.55C2.65-0.917,2.2-1.1,1.3-1.1
			C0.433-1.1,0-0.917,0-0.55S0.433,0,1.3,0C2.2,0,2.65-0.183,2.65-0.55z"/>
	</g>
</symbol>
<symbol  id="Untitled-1.ai_x2F_Layer_1_x2F__x3C_Path_x3E__x5F_6" viewBox="0 -4.15 9.4 4.15">
	<g id="Layer_1_11_">
		<path style="fill-rule:evenodd;clip-rule:evenodd;fill:#51422D;" d="M9.4-2.05c0-0.567-0.45-1.067-1.35-1.5
			C7.117-3.95,6-4.15,4.7-4.15c-1.3,0-2.4,0.2-3.3,0.6C0.467-3.117,0-2.617,0-2.05C0-1.483,0.467-1,1.4-0.6C2.3-0.2,3.4,0,4.7,0
			C6,0,7.117-0.2,8.05-0.6C8.95-1,9.4-1.483,9.4-2.05z"/>
	</g>
</symbol>
<symbol  id="Untitled-1.ai_x2F_Layer_1_x2F__x3C_Path_x3E__x5F_6_x5F_0" viewBox="0 -1 2.1 1">
	<g id="Layer_1_17_">
		<path style="fill-rule:evenodd;clip-rule:evenodd;fill:#51422D;" d="M2.1-0.5C2.1-0.833,1.75-1,1.05-1C0.35-1,0-0.833,0-0.5
			S0.35,0,1.05,0C1.75,0,2.1-0.167,2.1-0.5z"/>
	</g>
</symbol>
<symbol  id="Untitled-1.ai_x2F_Layer_1_x2F__x3C_Path_x3E__x5F_6_x5F_1" viewBox="0 -1.6 3.45 1.6">
	<g id="Layer_1_24_">
		<path style="fill-rule:evenodd;clip-rule:evenodd;fill:#51422D;" d="M0-0.8c0,0.233,0.167,0.417,0.5,0.55
			C0.833-0.083,1.233,0,1.7,0c0.466,0,0.883-0.083,1.25-0.25c0.333-0.133,0.5-0.317,0.5-0.55c0-0.233-0.167-0.417-0.5-0.55
			C2.583-1.517,2.167-1.6,1.7-1.6c-0.467,0-0.867,0.083-1.2,0.25C0.167-1.217,0-1.033,0-0.8z"/>
	</g>
</symbol>
<symbol  id="Untitled-1.ai_x2F_Layer_1_x2F__x3C_Path_x3E__x5F_6_x5F_2" viewBox="0 -0.75 1.6 0.75">
	<g id="Layer_1_31_">
		<path style="fill-rule:evenodd;clip-rule:evenodd;fill:#51422D;" d="M0-0.35C0-0.117,0.267,0,0.8,0c0.534,0,0.8-0.117,0.8-0.35
			c0-0.267-0.267-0.4-0.8-0.4C0.267-0.75,0-0.617,0-0.35z"/>
	</g>
</symbol>
<symbol  id="Untitled-1.ai_x2F_Layer_1_x2F__x3C_Path_x3E__x5F_6_x5F_3" viewBox="0 -1 2.1 1">
	<g id="Layer_1_38_">
		<path style="fill-rule:evenodd;clip-rule:evenodd;fill:#51422D;" d="M2.1-0.5C2.1-0.833,1.75-1,1.05-1C0.35-1,0-0.833,0-0.5
			c0,0.133,0.1,0.25,0.3,0.35C0.533-0.05,0.783,0,1.05,0C1.75,0,2.1-0.167,2.1-0.5z"/>
	</g>
</symbol>
<symbol  id="Untitled-1.ai_x2F_Layer_1_x2F__x3C_Path_x3E__x5F_6_x5F_4" viewBox="0 -2 4.3 2">
	<g id="Layer_1_45_">
		<path style="fill-rule:evenodd;clip-rule:evenodd;fill:#51422D;" d="M4.3-1c0-0.267-0.2-0.5-0.6-0.7C3.267-1.9,2.75-2,2.15-2
			s-1.1,0.1-1.5,0.3C0.217-1.5,0-1.267,0-1s0.217,0.5,0.65,0.7C1.05-0.1,1.55,0,2.15,0S3.267-0.1,3.7-0.3C4.1-0.5,4.3-0.733,4.3-1z"
			/>
	</g>
</symbol>
<symbol  id="Untitled-1.ai_x2F_Layer_1_x2F__x3C_Path_x3E__x5F_6_x5F_5" viewBox="0 -1.15 2.15 1.15">
	<g id="Layer_1_52_">
		<path style="fill-rule:evenodd;clip-rule:evenodd;fill:#51422D;" d="M2.15-0.55c0-0.4-0.367-0.6-1.1-0.6C0.35-1.15,0-0.95,0-0.55
			C0-0.183,0.35,0,1.05,0C1.783,0,2.15-0.183,2.15-0.55z"/>
	</g>
</symbol>
<symbol  id="Untitled-1.ai_x2F_Layer_1_x2F__x3C_Path_x3E__x5F_7" viewBox="0 -1.05 2.1 1.05">
	<g id="Layer_1_21_">
		<path style="fill-rule:evenodd;clip-rule:evenodd;fill:#51422D;" d="M2.1-0.55c0-0.333-0.35-0.5-1.05-0.5
			C0.35-1.05,0-0.883,0-0.55C0-0.183,0.35,0,1.05,0C1.75,0,2.1-0.183,2.1-0.55z"/>
	</g>
</symbol>
<symbol  id="Untitled-1.ai_x2F_Layer_1_x2F__x3C_Path_x3E__x5F_8" viewBox="0 -1.75 3.45 1.75">
	<g id="Layer_1_28_">
		<path style="fill-rule:evenodd;clip-rule:evenodd;fill:#51422D;" d="M0-0.9c0,0.267,0.167,0.483,0.5,0.65S1.25,0,1.75,0
			c0.467,0,0.867-0.083,1.2-0.25c0.333-0.2,0.5-0.417,0.5-0.65s-0.167-0.434-0.5-0.6c-0.333-0.167-0.733-0.25-1.2-0.25
			c-0.5,0-0.917,0.083-1.25,0.25S0-1.133,0-0.9z"/>
	</g>
</symbol>
<symbol  id="Untitled-1.ai_x2F_Layer_1_x2F__x3C_Path_x3E__x5F_9" viewBox="0 -6.25 13.3 6.25">
	<g id="Layer_1_10_">
		<path style="fill-rule:evenodd;clip-rule:evenodd;fill:#51422D;" d="M13.3-3.15c0-0.867-0.65-1.6-1.95-2.2
			c-1.3-0.6-2.867-0.9-4.7-0.9c-1.833,0-3.4,0.3-4.7,0.9C0.65-4.75,0-4.017,0-3.15S0.65-1.533,1.95-0.9C3.25-0.3,4.817,0,6.65,0
			c1.833,0,3.4-0.3,4.7-0.9C12.65-1.533,13.3-2.283,13.3-3.15z"/>
	</g>
</symbol>
<symbol  id="Untitled-1.ai_x2F_Layer_1_x2F__x3C_Path_x3E__x5F_9_x5F_0" viewBox="0 -2.6 5.85 2.6">
	<g id="Layer_1_16_">
		<path style="fill-rule:evenodd;clip-rule:evenodd;fill:#51422D;" d="M5.85-1.3c0-0.367-0.283-0.667-0.85-0.9
			C4.433-2.467,3.75-2.6,2.95-2.6c-0.833,0-1.534,0.133-2.1,0.4C0.283-1.967,0-1.667,0-1.3s0.283,0.683,0.85,0.95
			C1.417-0.117,2.117,0,2.95,0C3.75,0,4.433-0.117,5-0.35C5.567-0.617,5.85-0.933,5.85-1.3z"/>
	</g>
</symbol>
<symbol  id="Untitled-1.ai_x2F_Layer_1_x2F__x3C_Path_x3E__x5F_9_x5F_1" viewBox="0 -4.25 9.55 4.25">
	<g id="Layer_1_23_">
		<path style="fill-rule:evenodd;clip-rule:evenodd;fill:#51422D;" d="M0-2.1c0,0.567,0.467,1.067,1.4,1.5C2.3-0.2,3.417,0,4.75,0
			s2.467-0.2,3.4-0.6c0.934-0.433,1.4-0.933,1.4-1.5c0-0.6-0.466-1.117-1.4-1.55c-0.933-0.4-2.066-0.6-3.4-0.6S2.3-4.05,1.4-3.65
			C0.467-3.217,0-2.7,0-2.1z"/>
	</g>
</symbol>
<symbol  id="Untitled-1.ai_x2F_Layer_1_x2F__x3C_Path_x3E__x5F_9_x5F_2" viewBox="0 -2 4.45 2">
	<g id="Layer_1_30_">
		<path style="fill-rule:evenodd;clip-rule:evenodd;fill:#51422D;" d="M0-1c0,0.267,0.217,0.5,0.65,0.7C1.05-0.1,1.567,0,2.2,0
			s1.167-0.1,1.6-0.3C4.233-0.5,4.45-0.733,4.45-1S4.233-1.5,3.8-1.7C3.367-1.9,2.833-2,2.2-2S1.05-1.9,0.65-1.7
			C0.217-1.5,0-1.267,0-1z"/>
	</g>
</symbol>
<symbol  id="Untitled-1.ai_x2F_Layer_1_x2F__x3C_Path_x3E__x5F_9_x5F_3" viewBox="0 -2.6 5.85 2.6">
	<g id="Layer_1_37_">
		<path style="fill-rule:evenodd;clip-rule:evenodd;fill:#51422D;" d="M5.85-1.3c0-0.367-0.283-0.667-0.85-0.9
			C4.433-2.467,3.75-2.6,2.95-2.6c-0.8,0-1.483,0.133-2.05,0.4C0.3-1.967,0-1.667,0-1.3c0,0.333,0.3,0.633,0.9,0.9
			C1.467-0.133,2.15,0,2.95,0C3.75,0,4.433-0.133,5-0.4C5.567-0.633,5.85-0.933,5.85-1.3z"/>
	</g>
</symbol>
<symbol  id="Untitled-1.ai_x2F_Layer_1_x2F__x3C_Path_x3E__x5F_9_x5F_4" viewBox="0 -5.35 12 5.35">
	<g id="Layer_1_44_">
		<path style="fill-rule:evenodd;clip-rule:evenodd;fill:#51422D;" d="M12-2.7c0-0.733-0.583-1.35-1.75-1.85
			C9.083-5.083,7.667-5.35,6-5.35c-1.633,0-3.05,0.267-4.25,0.8C0.583-4.05,0-3.433,0-2.7c0,0.733,0.583,1.367,1.75,1.9
			C2.917-0.267,4.333,0,6,0s3.083-0.267,4.25-0.8C11.417-1.333,12-1.967,12-2.7z"/>
	</g>
</symbol>
<symbol  id="Untitled-1.ai_x2F_Layer_1_x2F__x3C_Path_x3E__x5F_9_x5F_5" viewBox="0 -3.05 5.9 3.05">
	<g id="Layer_1_51_">
		<path style="fill-rule:evenodd;clip-rule:evenodd;fill:#51422D;" d="M5.9-1.55c0-0.434-0.283-0.784-0.85-1.05
			c-0.566-0.3-1.267-0.45-2.1-0.45c-0.833,0-1.534,0.15-2.1,0.45C0.283-2.333,0-1.983,0-1.55c0,0.433,0.283,0.8,0.85,1.1
			C1.417-0.15,2.117,0,2.95,0c0.833,0,1.533-0.15,2.1-0.45C5.617-0.75,5.9-1.117,5.9-1.55z"/>
	</g>
</symbol>
<g>
	<defs>
		<path id="SVGID_8_" d="M308.5,30.8c-1-4.466-4.5-8.883-10.5-13.25c-7.233-5.267-16.983-9.4-29.25-12.4
			c-32.634-7.967-76.9-6.683-132.8,3.85c-21.733,4.1-42.784,7.167-63.15,9.2c-10.8,1.066-24.65,2.066-41.55,3
			c-11.9,0.633-19.6,1.383-23.1,2.25c-4.833,1.233-7.433,3.583-7.8,7.05c-0.017,0.157-0.033,0.315-0.05,0.475L0.05,32.95
			c-0.2,2.2-0.1,4.3,0.3,6.3c0.977,4.782,3.41,8.34,7.3,10.675c1.661,4.741,3.628,10.749,5.9,18.025
			c3.964,12.7,6.723,27.358,8.275,43.975c1.553,16.617,1.011,32.858-1.625,48.726c0.5-0.5,1.033-0.467,1.6,0.1l2,2l7.5,1.5
			c0.434-0.5,0.95-0.983,1.55-1.45c1.267-0.899,2.417-1.25,3.45-1.05c1.034,0.2,1.684,0.934,1.95,2.2
			c0.133,0.633,0.15,1.233,0.05,1.8l1.75-0.7c1.333-0.399,2.417-0.5,3.25-0.3l2,0.5l2,0.8c1.333,0.767,2,1.667,2,2.7v0.75
			c9.133-0.066,17.1,0.283,23.9,1.05c1.133-0.233,3.2-0.75,6.2-1.55c2.633-0.566,4.434-0.65,5.4-0.25l2.5,1l1.65-0.85
			c1.333-0.5,2.617-0.551,3.85-0.15c1.267,0.434,2.15,1.066,2.65,1.9c0.233,0.399,0.35,0.767,0.35,1.1l1.7-0.75
			c1.4-0.333,2.833-0.083,4.3,0.75l3.5,2c0.267-0.4,0.667-0.816,1.2-1.25c1.067-0.833,2.333-1.25,3.8-1.25
			c1.6,0,2.767,0.566,3.5,1.7c0.633,0.967,0.8,1.899,0.5,2.8l-0.5,1.5l2.5-0.75c1.833-0.333,3.167-0.083,4,0.75l2,2
			c0.434-0.9,1.034-1.816,1.8-2.75c1.6-1.833,3.333-2.75,5.2-2.75s3.1,0.667,3.7,2c0.3,0.667,0.4,1.333,0.3,2l1.65-0.95
			c1.333-0.566,2.617-0.75,3.85-0.55l3,0.5l1.4-0.25c1.167-0.167,2.367-0.25,3.6-0.25h5.5c0-0.233,0.133-0.55,0.4-0.95
			c0.5-0.733,1.366-1.416,2.6-2.05c1.267-0.634,2.4-0.65,3.4-0.05c0.5,0.3,0.866,0.649,1.1,1.05l0.5-1.95
			c0.667-1.233,1.834-1.75,3.5-1.55c2.667,0.333,4.834,0.667,6.5,1h6.851c3-0.533,5.816-0.866,8.449-1c3.5-0.2,6.817-0.1,9.95,0.3
			c0.566-0.333,1.4-0.833,2.5-1.5c0.967-0.533,1.884-0.8,2.75-0.8h3.5c-0.066-0.233-0.066-0.517,0-0.85
			c0.167-0.667,0.667-1.217,1.5-1.65c0.834-0.4,1.75-0.35,2.75,0.15c0.5,0.233,0.917,0.517,1.25,0.85l0.9-0.6
			c0.733-0.434,1.517-0.65,2.35-0.65c0.834,0,1.717,0.583,2.65,1.75c0.434,0.6,0.8,1.184,1.1,1.75l0.8-0.05
			c0.667,0.066,1.317,0.416,1.95,1.05c0.634,0.634,0.884,1.483,0.75,2.55c-0.033,0.533-0.149,1-0.35,1.4
			c7.434,0.3,14.55,0.399,21.35,0.3l1.3-0.05c0.2-1.8,0.384-2.967,0.551-3.5c0.399-1.167,1.116-1.816,2.149-1.95l3.5-0.5
			c-0.166-0.5-0.233-1.033-0.2-1.6c0.101-1.167,0.667-1.967,1.7-2.4c1.033-0.4,1.767-0.017,2.2,1.15c0.2,0.566,0.3,1.183,0.3,1.85
			l1.75-1.6c1.334-1,2.417-1.301,3.25-0.9c0.834,0.434,1.117,1.233,0.851,2.4c-0.167,0.566-0.4,1.1-0.7,1.6l2.8-2.5
			c2.134-1.667,3.816-2.5,5.05-2.5h3c-0.066-0.4-0.017-0.833,0.15-1.3c0.333-0.934,1.116-1.5,2.35-1.7
			c1.267-0.2,2.316,0.066,3.15,0.8c0.399,0.4,0.684,0.8,0.85,1.2l1.55-1.5c1.267-1,2.417-1.5,3.45-1.5s1.934,0.5,2.7,1.5
			c0.366,0.5,0.634,1,0.8,1.5l1.75-0.8c1.334-0.434,2.417-0.334,3.25,0.3c1.334,1,2.517,1.316,3.55,0.95l-0.199,2.2l1.199-0.7
			c-2.14-16.926-2.849-35.067-2.125-54.425c0.723-19.356,3.089-36.248,7.101-50.675c2.638-9.481,4.896-17.056,6.774-22.725
			C307.6,35.514,308.732,33.323,308.5,30.8z"/>
	</defs>
	<clipPath id="SVGID_9_">
		<use xlink:href="#SVGID_8_"  style="overflow:visible;"/>
	</clipPath>
	<g id="Layer_1_1_" style="clip-path:url(#SVGID_9_);">
		
			<use xlink:href="#Untitled-1.ai_x2F_Layer_1_x2F__x3C_Path_x3E__x5F_53"  width="122.433" height="28.5" y="-28.5" transform="matrix(1 0 0 -1 21.2002 153.4004)" style="overflow:visible;opacity:0.1484;enable-background:new    ;"/>
		
			<use xlink:href="#Untitled-1.ai_x2F_Layer_1_x2F__x3C_Path_x3E__x5F_52"  width="139.214" height="23.554" y="-23.554" transform="matrix(1 0 0 -1 154.9502 154.9004)" style="overflow:visible;opacity:0.1484;enable-background:new    ;"/>
		
			<use xlink:href="#Untitled-1.ai_x2F_Layer_1_x2F__x3C_Clip_Group_0_x3E_"  width="303.3" height="161.4" y="-161.4" transform="matrix(1 0 0 -1 4.3501 30.2002)" style="overflow:visible;"/>
		<path style="fill-rule:evenodd;clip-rule:evenodd;fill:#4C3B2B;" d="M308.5,30.8c0.434,4.7-3.866,8.25-12.9,10.65
			c-11.399,3-28.383,3.233-50.949,0.7c-8.5,6.533-18.917,10.567-31.25,12.1c-5.5,0.667-14.884,0.783-28.15,0.35
			c-8-0.233-20.083,0.383-36.25,1.85c-15.733,1.433-27.883,1.966-36.45,1.6c-6.7,1.767-18.6,1-35.7-2.3
			c-19.467-4.367-32.934-7.267-40.4-8.7c-8.3-1.466-14.034-2.5-17.2-3.1c-5.233-0.967-9.05-1.883-11.45-2.75
			c-2.933-1.034-4.983-2.35-6.15-3.95c-1.167-1.633-1.6-3.883-1.3-6.75c0.367-3.467,2.967-5.817,7.8-7.05
			c3.5-0.867,11.2-1.617,23.1-2.25c16.9-0.934,30.75-1.934,41.55-3c20.367-2.034,41.417-5.1,63.15-9.2
			C191.85-1.533,236.116-2.817,268.75,5.15c12.267,3,22.017,7.133,29.25,12.4C304,21.917,307.5,26.333,308.5,30.8z"/>
		<path style="fill-rule:evenodd;clip-rule:evenodd;fill:#644E3D;" d="M299.8,35.35c2.8,0.233,5.65-0.6,8.55-2.5
			c-2.466,2.333-4.133,4.8-5,7.4c-0.933,2.8-2.267,5.117-4,6.95c-2.433,2.566-7.933,3.517-16.5,2.85
			c-10.666-1.466-18.5-2.533-23.5-3.2c-3.233-0.434-7.133,0.117-11.699,1.65c-0.4,0.133-4.851,1.9-13.351,5.3
			c-12.934,5.2-24.866,7.117-35.8,5.75c-14.667-2.2-23.85-3.4-27.55-3.6c-4.566-0.267-10.167,0.933-16.8,3.6
			c-9.7,3.9-14.9,5.967-15.601,6.2c-8.133,2.733-16.267,4.45-24.4,5.15c-23.667,2.033-48.6-4.316-74.8-19.05
			c-3.3-1.867-7.483-2.05-12.55-0.55c-5.733,1.667-10.667,1.85-14.8,0.55c-6.467-2.033-10.35-6.233-11.65-12.6
			c-0.4-2-0.5-4.1-0.3-6.3l0.35-2.7c0.6-1.933,1.533-2.7,2.8-2.3c0.966,0.3,2.45,1.45,4.45,3.45c3.233,3.233,5.133,5.117,5.7,5.65
			C15.783,39.183,18,40.567,20,41.2c2.067,0.667,4.167,0.833,6.3,0.5c1-0.167,2.883-0.684,5.65-1.55
			c5.167-1.633,10.066-1.733,14.7-0.3c1.833,0.566,5.967,2.066,12.4,4.5c6.567,2.5,11.95,4.417,16.15,5.75
			c14.367,4.533,26.066,6.033,35.1,4.5c6.733-1.133,17.133-1.5,31.2-1.1c11.9,0.333,20.134-0.383,24.7-2.15
			c5.399-2.067,12.116-2.7,20.149-1.9c4.567,0.5,11.517,1.466,20.851,2.9c3.066,0.3,7-0.467,11.8-2.3c2.167-0.8,6.667-2.8,13.5-6
			c5.767-2.733,10.3-4.566,13.6-5.5c4.867-1.4,8.95-1.633,12.25-0.7c6.167,1.767,10.884,1.967,14.15,0.6
			c0.967-0.4,2.583-1.083,4.85-2.05c2.367-0.833,5.134-1.35,8.301-1.55C288.85,34.65,293.566,34.817,299.8,35.35z"/>
		<path style="fill-rule:evenodd;clip-rule:evenodd;fill:#644E3D;" d="M292.2,33.1c1.666-0.4,3.7-0.6,6.1-0.6
			c2.4,0,4.45,0.2,6.15,0.6c1.666,0.4,2.5,0.883,2.5,1.45c0,0.567-0.834,1.034-2.5,1.4c-1.7,0.4-3.75,0.6-6.15,0.6
			c-2.399,0-4.434-0.2-6.1-0.6c-1.7-0.367-2.55-0.833-2.55-1.4C289.65,33.983,290.5,33.5,292.2,33.1z"/>
		<path style="fill-rule:evenodd;clip-rule:evenodd;fill:#584534;" d="M299.35,44.15c1.767-1.867,3.117-3.617,4.051-5.25
			c1.233-2.2,2.216-3.8,2.949-4.8l0.851-0.9c0.3-0.233,0.684-0.35,1.149-0.35c-1.199,3.233-2.267,5.65-3.199,7.25
			c-1.167,1.867-3.101,4.233-5.801,7.1c-2.433,2.566-7.933,3.517-16.5,2.85c-10.666-1.466-18.5-2.533-23.5-3.2
			c-3.233-0.434-7.133,0.117-11.699,1.65c-0.4,0.133-4.851,1.9-13.351,5.3c-12.934,5.2-24.866,7.117-35.8,5.75
			c-14.667-2.2-23.85-3.4-27.55-3.6c-4.566-0.267-10.167,0.933-16.8,3.6c-9.7,3.9-14.9,5.967-15.601,6.2
			c-8.133,2.733-16.267,4.45-24.4,5.15c-23.667,2.033-48.6-4.316-74.8-19.05c-3.3-1.867-7.483-2.05-12.55-0.55
			c-5.733,1.667-10.667,1.85-14.8,0.55c-5-1.567-8.467-4.467-10.4-8.7c-1.333-2.9-1.867-6.183-1.6-9.85
			c0.2,3.3,1.067,6.184,2.6,8.65c2.033,3.267,5.167,5.55,9.4,6.85c4.133,1.3,9.067,1.133,14.8-0.5c2.567-0.767,4.55-1.167,5.95-1.2
			c2.233-0.067,4.433,0.5,6.6,1.7c26.2,14.767,51.133,21.133,74.8,19.1c8.133-0.7,16.267-2.433,24.4-5.2
			c0.6-0.2,5.8-2.267,15.601-6.2c6.633-2.667,12.233-3.867,16.8-3.6c3.7,0.2,12.883,1.4,27.55,3.6
			c10.934,1.367,22.866-0.533,35.8-5.7c8.533-3.433,12.983-5.216,13.351-5.35c4.566-1.534,8.466-2.083,11.699-1.65
			c5,0.667,12.834,1.733,23.5,3.2C291.417,47.667,296.917,46.717,299.35,44.15z"/>
		<path style="fill-rule:evenodd;clip-rule:evenodd;fill:#644E3D;" d="M201.95,45.8c0,2.267-2.217,4.2-6.65,5.8
			c-4.399,1.6-9.733,2.4-16,2.4s-11.6-0.8-16-2.4c-4.434-1.6-6.649-3.533-6.649-5.8c0-2.233,2.216-4.15,6.649-5.75
			c4.4-1.6,9.733-2.4,16-2.4s11.601,0.8,16,2.4C199.733,41.65,201.95,43.567,201.95,45.8z"/>
		<path style="fill-rule:evenodd;clip-rule:evenodd;fill:#4C3B2B;" d="M199.3,43c0,1.833-1.767,3.4-5.3,4.7
			c-3.566,1.3-7.85,1.95-12.85,1.95c-5.034,0-9.317-0.65-12.851-1.95c-3.566-1.3-5.35-2.867-5.35-4.7s1.783-3.417,5.35-4.75
			c3.533-1.3,7.816-1.95,12.851-1.95c5,0,9.283,0.65,12.85,1.95C197.533,39.583,199.3,41.167,199.3,43z"/>
		<path style="fill-rule:evenodd;clip-rule:evenodd;fill:#644E3D;" d="M103.9,50.1c0,0.233-0.183,0.417-0.55,0.55
			c-0.367,0.167-0.833,0.25-1.4,0.25c-0.534,0-0.983-0.083-1.35-0.25c-0.4-0.133-0.6-0.316-0.6-0.55c0-0.2,0.2-0.383,0.6-0.55
			c0.4-0.167,0.85-0.25,1.35-0.25c0.533,0,1,0.083,1.4,0.25C103.717,49.717,103.9,49.9,103.9,50.1z"/>
		<path style="fill-rule:evenodd;clip-rule:evenodd;fill:#644E3D;" d="M112.6,48.2c0,0.233-0.184,0.417-0.55,0.55
			c-0.367,0.167-0.833,0.25-1.4,0.25c-0.533,0-0.983-0.083-1.35-0.25c-0.4-0.133-0.6-0.317-0.6-0.55c0-0.233,0.2-0.417,0.6-0.55
			c0.367-0.167,0.817-0.25,1.35-0.25c0.567,0,1.033,0.083,1.4,0.25C112.417,47.783,112.6,47.967,112.6,48.2z"/>
		<path style="fill-rule:evenodd;clip-rule:evenodd;fill:#4C3B2B;" d="M44.55,44.05c2.3,0,4.267,0.2,5.9,0.6
			c1.6,0.434,2.4,0.934,2.4,1.5c0,0.567-0.8,1.067-2.4,1.5c-1.633,0.4-3.6,0.6-5.9,0.6c-2.267,0-4.216-0.2-5.85-0.6
			c-1.6-0.433-2.4-0.933-2.4-1.5c0-0.566,0.8-1.066,2.4-1.5C40.333,44.25,42.283,44.05,44.55,44.05z"/>
		<path style="fill-rule:evenodd;clip-rule:evenodd;fill:#4C3B2B;" d="M8.05,42.6c0,0.367-0.517,0.55-1.55,0.55
			c-1,0-1.5-0.183-1.5-0.55C5,42.2,5.5,42,6.5,42C7.533,42,8.05,42.2,8.05,42.6z"/>
		<path style="fill-rule:evenodd;clip-rule:evenodd;fill:#4C3B2B;" d="M11.05,43.15c0,0.3-0.383,0.45-1.15,0.45
			c-0.8,0-1.2-0.15-1.2-0.45c0-0.3,0.4-0.45,1.2-0.45C10.667,42.7,11.05,42.85,11.05,43.15z"/>
		<path style="fill-rule:evenodd;clip-rule:evenodd;fill:#644E3D;" d="M29.1,34c0,0.933-1.417,1.733-4.25,2.4
			c-2.8,0.667-6.2,1-10.2,1s-7.4-0.333-10.2-1C1.617,35.733,0.2,34.933,0.2,34s1.417-1.717,4.25-2.35c2.8-0.667,6.2-1,10.2-1
			c3.967,0,7.367,0.333,10.2,1C27.683,32.283,29.1,33.067,29.1,34z"/>
		<path style="fill-rule:evenodd;clip-rule:evenodd;fill:#644E3D;" d="M39.2,41.4c0,0.434-0.633,0.783-1.9,1.05
			c-1.267,0.3-2.8,0.45-4.6,0.45c-1.8,0-3.333-0.15-4.6-0.45c-1.267-0.267-1.9-0.617-1.9-1.05c0-0.433,0.633-0.8,1.9-1.1
			c1.267-0.3,2.8-0.45,4.6-0.45c1.8,0,3.333,0.15,4.6,0.45C38.567,40.6,39.2,40.967,39.2,41.4z"/>
		<path style="fill-rule:evenodd;clip-rule:evenodd;fill:#644E3D;" d="M45.15,39.05c0,0.2-0.333,0.383-1,0.55
			c-0.7,0.167-1.5,0.25-2.4,0.25s-1.7-0.083-2.4-0.25c-0.667-0.167-1-0.35-1-0.55c0-0.233,0.333-0.417,1-0.55
			c0.667-0.167,1.467-0.25,2.4-0.25s1.733,0.083,2.4,0.25C44.817,38.633,45.15,38.817,45.15,39.05z"/>
		<path style="fill-rule:evenodd;clip-rule:evenodd;fill:#4C3B2B;" d="M21.3,47.1c0,0.233-0.333,0.417-1,0.55
			c-0.667,0.133-1.466,0.184-2.4,0.15c-0.933-0.033-1.717-0.133-2.35-0.3c-0.667-0.167-1-0.367-1-0.6c0-0.2,0.333-0.367,1-0.5
			c0.7-0.167,1.5-0.233,2.4-0.2c0.933,0.066,1.716,0.183,2.35,0.35C20.967,46.717,21.3,46.9,21.3,47.1z"/>
		<path style="fill-rule:evenodd;clip-rule:evenodd;fill:#4C3B2B;" d="M65.05,44.85c0,0.233-0.333,0.417-1,0.55
			c-0.633,0.167-1.433,0.25-2.4,0.25c-0.933,0-1.717-0.083-2.35-0.25c-0.667-0.133-1-0.316-1-0.55s0.333-0.417,1-0.55
			c0.633-0.167,1.417-0.25,2.35-0.25c0.967,0,1.767,0.083,2.4,0.25C64.717,44.433,65.05,44.617,65.05,44.85z"/>
		<path style="fill-rule:evenodd;clip-rule:evenodd;fill:#4C3B2B;" d="M98,44.35c0,0.4-0.65,0.75-1.95,1.05
			c-1.333,0.267-2.933,0.4-4.8,0.4s-3.467-0.133-4.8-0.4c-1.333-0.3-2-0.65-2-1.05c0-0.434,0.667-0.783,2-1.05
			c1.3-0.3,2.9-0.45,4.8-0.45s3.5,0.15,4.8,0.45C97.35,43.567,98,43.917,98,44.35z"/>
		<path style="fill-rule:evenodd;clip-rule:evenodd;fill:#4C3B2B;" d="M85.95,46.25c0,0.367-0.867,0.55-2.6,0.55
			c-0.733,0-1.35-0.05-1.85-0.15c-0.533-0.1-0.8-0.233-0.8-0.4c0-0.133,0.267-0.267,0.8-0.4c0.5-0.1,1.117-0.15,1.85-0.15
			C85.083,45.7,85.95,45.883,85.95,46.25z"/>
		<path style="fill-rule:evenodd;clip-rule:evenodd;fill:#4C3B2B;" d="M242.65,37.25c0,0.367-0.884,0.55-2.65,0.55
			c-0.733,0-1.35-0.05-1.85-0.15c-0.534-0.1-0.801-0.233-0.801-0.4c0-0.133,0.267-0.267,0.801-0.4c0.5-0.1,1.116-0.15,1.85-0.15
			C241.767,36.7,242.65,36.883,242.65,37.25z"/>
		<path style="fill-rule:evenodd;clip-rule:evenodd;fill:#4C3B2B;" d="M60.3,47.6c0,0.367-0.883,0.55-2.65,0.55
			c-1.733,0-2.6-0.183-2.6-0.55c0-0.4,0.867-0.6,2.6-0.6C59.417,47,60.3,47.2,60.3,47.6z"/>
		<path style="fill-rule:evenodd;clip-rule:evenodd;fill:#4C3B2B;" d="M29.55,32.4c0,0.767-1.133,1.417-3.4,1.95s-5,0.8-8.2,0.8
			c-3.2,0-5.917-0.267-8.15-0.8c-2.267-0.533-3.4-1.184-3.4-1.95s1.133-1.433,3.4-2c2.233-0.533,4.95-0.8,8.15-0.8
			c3.2,0,5.933,0.267,8.2,0.8C28.417,30.967,29.55,31.633,29.55,32.4z"/>
		<path style="fill-rule:evenodd;clip-rule:evenodd;fill:#644E3D;" d="M119.5,45.95c2.833-0.667,6.233-1,10.2-1
			c4,0,7.417,0.333,10.25,1c2.8,0.633,4.2,1.417,4.2,2.35c0,0.934-1.4,1.733-4.2,2.4c-2.833,0.667-6.25,1-10.25,1s-7.4-0.333-10.2-1
			c-2.833-0.667-4.25-1.467-4.25-2.4C115.25,47.367,116.667,46.583,119.5,45.95z"/>
		<path style="fill-rule:evenodd;clip-rule:evenodd;fill:#644E3D;" d="M234.8,44.4c0,0.567-0.85,1.05-2.55,1.45s-3.75,0.6-6.15,0.6
			c-2.366,0-4.399-0.2-6.1-0.6s-2.55-0.883-2.55-1.45c0-0.566,0.85-1.05,2.55-1.45c1.7-0.4,3.733-0.6,6.1-0.6
			c2.4,0,4.45,0.2,6.15,0.6C233.95,43.35,234.8,43.833,234.8,44.4z"/>
		<path style="fill-rule:evenodd;clip-rule:evenodd;fill:#644E3D;" d="M288.9,34.95c1.267-0.3,2.8-0.45,4.6-0.45
			s3.333,0.15,4.6,0.45c1.267,0.3,1.9,0.65,1.9,1.05c0,0.433-0.634,0.8-1.9,1.1c-1.267,0.3-2.8,0.45-4.6,0.45s-3.333-0.15-4.6-0.45
			c-1.268-0.3-1.9-0.667-1.9-1.1C287,35.6,287.633,35.25,288.9,34.95z"/>
		<path style="fill-rule:evenodd;clip-rule:evenodd;fill:#644E3D;" d="M306.25,32.35c0,0.2-0.333,0.383-1,0.55
			c-0.667,0.133-1.467,0.2-2.4,0.2c-0.933,0-1.717-0.067-2.35-0.2c-0.667-0.167-1-0.35-1-0.55c0-0.233,0.333-0.417,1-0.55
			c0.633-0.167,1.417-0.25,2.35-0.25c0.967,0,1.767,0.083,2.4,0.25C305.917,31.933,306.25,32.117,306.25,32.35z"/>
		<path style="fill-rule:evenodd;clip-rule:evenodd;fill:#4C3B2B;" d="M282.25,36.45c0,0.233-0.333,0.417-1,0.55
			c-0.634,0.167-1.434,0.25-2.4,0.25c-0.933,0-1.717-0.083-2.35-0.25c-0.667-0.133-1-0.317-1-0.55c0-0.2,0.333-0.367,1-0.5
			c0.633-0.167,1.417-0.25,2.35-0.25c0.934,0,1.733,0.083,2.4,0.25C281.917,36.083,282.25,36.25,282.25,36.45z"/>
		<path style="fill-rule:evenodd;clip-rule:evenodd;fill:#4C3B2B;" d="M288.25,39.55c1.866,0,3.467,0.15,4.8,0.45
			c1.3,0.267,1.95,0.6,1.95,1s-0.65,0.75-1.95,1.05c-1.333,0.267-2.934,0.4-4.8,0.4c-1.867,0-3.467-0.133-4.8-0.4
			c-1.334-0.3-2-0.65-2-1.05s0.666-0.733,2-1C284.783,39.7,286.383,39.55,288.25,39.55z"/>
		<path style="fill-rule:evenodd;clip-rule:evenodd;fill:#4C3B2B;" d="M304.5,34.6c0,0.4-0.667,0.75-2,1.05
			c-1.333,0.267-2.934,0.4-4.8,0.4c-1.867,0-3.467-0.133-4.8-0.4c-1.334-0.3-2-0.65-2-1.05s0.666-0.75,2-1.05
			c1.333-0.3,2.933-0.45,4.8-0.45c1.866,0,3.467,0.15,4.8,0.45C303.833,33.85,304.5,34.2,304.5,34.6z"/>
		<path style="fill-rule:evenodd;clip-rule:evenodd;fill:#4C3B2B;" d="M93.25,32.4c0,0.4-0.667,0.75-2,1.05
			c-1.333,0.267-2.933,0.4-4.8,0.4s-3.467-0.133-4.8-0.4c-1.333-0.3-2-0.65-2-1.05c0-0.433,0.667-0.783,2-1.05
			c1.3-0.3,2.9-0.45,4.8-0.45c1.9,0,3.5,0.15,4.8,0.45C92.583,31.617,93.25,31.967,93.25,32.4z"/>
		<path style="fill-rule:evenodd;clip-rule:evenodd;fill:#4C3B2B;" d="M276.65,41.85c0,0.367-0.884,0.55-2.65,0.55
			c-0.733,0-1.35-0.05-1.85-0.15c-0.534-0.1-0.801-0.233-0.801-0.4c0-0.367,0.884-0.55,2.65-0.55c0.733,0,1.35,0.05,1.85,0.15
			C276.383,41.583,276.65,41.717,276.65,41.85z"/>
		<path style="fill-rule:evenodd;clip-rule:evenodd;fill:#4C3B2B;" d="M237.3,38.2c0,0.3-0.383,0.45-1.149,0.45S235,38.5,235,38.2
			c0-0.267,0.384-0.4,1.15-0.4S237.3,37.933,237.3,38.2z"/>
		<path style="fill-rule:evenodd;clip-rule:evenodd;fill:#4C3B2B;" d="M298.8,37.4c0,0.3-0.383,0.45-1.149,0.45
			c-0.768,0-1.15-0.15-1.15-0.45c0-0.267,0.383-0.4,1.15-0.4C298.417,37,298.8,37.133,298.8,37.4z"/>
		<path style="fill-rule:evenodd;clip-rule:evenodd;fill:#4C3B2B;" d="M66.15,38.25c0,0.367-0.867,0.55-2.6,0.55
			c-0.733,0-1.35-0.05-1.85-0.15c-0.534-0.1-0.8-0.233-0.8-0.4c0-0.4,0.883-0.6,2.65-0.6C65.283,37.65,66.15,37.85,66.15,38.25z"/>
		<path style="fill-rule:evenodd;clip-rule:evenodd;fill:#4C3B2B;" d="M58.85,39.8c0,0.367-0.883,0.55-2.65,0.55
			c-0.733,0-1.35-0.05-1.85-0.15c-0.533-0.1-0.8-0.233-0.8-0.4c0-0.133,0.267-0.267,0.8-0.4c0.5-0.1,1.117-0.15,1.85-0.15
			C57.967,39.25,58.85,39.433,58.85,39.8z"/>
		<path style="fill-rule:evenodd;clip-rule:evenodd;fill:#4C3B2B;" d="M124.85,44.75c2.233-0.533,4.95-0.8,8.15-0.8
			c3.233,0,5.967,0.267,8.2,0.8c2.267,0.533,3.4,1.183,3.4,1.95c0,0.767-1.133,1.417-3.4,1.95c-2.267,0.533-5,0.8-8.2,0.8
			s-5.917-0.267-8.15-0.8c-2.267-0.533-3.4-1.183-3.4-1.95C121.45,45.933,122.583,45.283,124.85,44.75z"/>
		<path style="fill-rule:evenodd;clip-rule:evenodd;fill:#644E3D;" d="M94.8,48.45c0,0.933-1.4,1.716-4.2,2.35
			c-2.833,0.667-6.233,1-10.2,1c-4,0-7.4-0.333-10.2-1c-2.833-0.633-4.25-1.417-4.25-2.35c0-0.934,1.417-1.733,4.25-2.4
			c2.8-0.667,6.2-1,10.2-1s7.4,0.333,10.2,1C93.4,46.717,94.8,47.517,94.8,48.45z"/>
		<path style="fill-rule:evenodd;clip-rule:evenodd;fill:#4C3B2B;" d="M95.25,46.35c0,0.633-1.467,1.183-4.4,1.65
			c-2.9,0.433-6.434,0.65-10.6,0.65s-7.7-0.217-10.6-0.65c-2.933-0.467-4.4-1.017-4.4-1.65s1.467-1.167,4.4-1.6
			c2.967-0.467,6.5-0.7,10.6-0.7c4.133,0,7.667,0.233,10.6,0.7C93.783,45.183,95.25,45.717,95.25,46.35z"/>
		<path style="fill-rule:evenodd;clip-rule:evenodd;fill:#644E3D;" d="M182.15,41.5c0-0.933,1.399-1.717,4.199-2.35
			c2.834-0.667,6.233-1,10.2-1c4,0,7.417,0.333,10.25,1c2.8,0.633,4.2,1.417,4.2,2.35s-1.4,1.733-4.2,2.4
			c-2.833,0.667-6.25,1-10.25,1s-7.399-0.333-10.2-1C183.55,43.233,182.15,42.433,182.15,41.5z"/>
		<path style="fill-rule:evenodd;clip-rule:evenodd;fill:#644E3D;" d="M268.6,28.55c0-0.433,0.634-0.8,1.9-1.1
			c1.267-0.3,2.8-0.45,4.6-0.45c1.801,0,3.334,0.15,4.601,0.45c1.267,0.3,1.899,0.667,1.899,1.1c0,0.4-0.633,0.75-1.899,1.05
			c-1.267,0.3-2.8,0.45-4.601,0.45c-1.8,0-3.333-0.15-4.6-0.45C269.233,29.3,268.6,28.95,268.6,28.55z"/>
		<path style="fill-rule:evenodd;clip-rule:evenodd;fill:#644E3D;" d="M292.25,29c0-0.433,0.633-0.8,1.9-1.1
			c1.3-0.3,2.833-0.45,4.6-0.45c1.8,0,3.35,0.15,4.65,0.45c1.267,0.3,1.899,0.667,1.899,1.1s-0.633,0.783-1.899,1.05
			c-1.301,0.3-2.851,0.45-4.65,0.45s-3.333-0.15-4.6-0.45C292.883,29.783,292.25,29.433,292.25,29z"/>
		<path style="fill-rule:evenodd;clip-rule:evenodd;fill:#644E3D;" d="M285.35,31.6c0-0.233,0.334-0.417,1-0.55
			c0.667-0.167,1.467-0.25,2.4-0.25s1.733,0.083,2.4,0.25c0.666,0.133,1,0.317,1,0.55c0,0.2-0.334,0.383-1,0.55
			c-0.7,0.167-1.5,0.25-2.4,0.25s-1.7-0.083-2.4-0.25C285.684,31.983,285.35,31.8,285.35,31.6z"/>
		<path style="fill-rule:evenodd;clip-rule:evenodd;fill:#4C3B2B;" d="M249.75,32.6c0.667,0.133,1,0.316,1,0.55
			c0,0.2-0.333,0.383-1,0.55c-0.667,0.167-1.45,0.25-2.35,0.25c-0.934,0-1.733-0.083-2.4-0.25c-0.667-0.167-1-0.35-1-0.55
			c0-0.233,0.333-0.417,1-0.55c0.634-0.167,1.434-0.25,2.4-0.25C248.333,32.35,249.116,32.433,249.75,32.6z"/>
		<path style="fill-rule:evenodd;clip-rule:evenodd;fill:#4C3B2B;" d="M250.7,34.55c1.866,0,3.467,0.15,4.8,0.45
			c1.333,0.267,2,0.6,2,1s-0.667,0.75-2,1.05c-1.333,0.267-2.934,0.4-4.8,0.4c-1.867,0-3.467-0.133-4.8-0.4
			c-1.334-0.3-2-0.65-2-1.05s0.666-0.733,2-1C247.233,34.7,248.833,34.55,250.7,34.55z"/>
		<path style="fill-rule:evenodd;clip-rule:evenodd;fill:#4C3B2B;" d="M255.95,37.9c0-0.367,0.883-0.55,2.649-0.55
			c1.733,0,2.601,0.183,2.601,0.55c0,0.4-0.867,0.6-2.601,0.6C256.833,38.5,255.95,38.3,255.95,37.9z"/>
		<path style="fill-rule:evenodd;clip-rule:evenodd;fill:#4C3B2B;" d="M181.7,39.9c0-0.767,1.133-1.417,3.399-1.95
			c2.233-0.534,4.95-0.8,8.15-0.8c3.233,0,5.967,0.267,8.2,0.8c2.267,0.533,3.399,1.183,3.399,1.95s-1.133,1.417-3.399,1.95
			s-5,0.8-8.2,0.8s-5.917-0.267-8.15-0.8C182.833,41.317,181.7,40.667,181.7,39.9z"/>
		
			<use xlink:href="#Untitled-1.ai_x2F_Layer_1_x2F__x3C_Group_x3E__x5F_6"  width="57.05" height="10.7" y="-10.7" transform="matrix(1 0 0 -1 77.6001 157.7998)" style="overflow:visible;opacity:0.3008;enable-background:new    ;"/>
		
			<use xlink:href="#Untitled-1.ai_x2F_Layer_1_x2F__x3C_Group_x3E__x5F_5"  width="46.4" height="9.4" y="-9.4" transform="matrix(1 0 0 -1 92.4502 83.6499)" style="overflow:visible;opacity:0.3008;enable-background:new    ;"/>
		
			<use xlink:href="#Untitled-1.ai_x2F_Layer_1_x2F__x3C_Group_x3E__x5F_4"  width="76.4" height="15.4" y="-15.4" transform="matrix(1 0 0 -1 195.75 64.4502)" style="overflow:visible;opacity:0.3008;enable-background:new    ;"/>
		
			<use xlink:href="#Untitled-1.ai_x2F_Layer_1_x2F__x3C_Group_x3E__x5F_3"  width="35.5" height="7.15" y="-7.15" transform="matrix(1 0 0 -1 23.0498 62.2002)" style="overflow:visible;opacity:0.3008;enable-background:new    ;"/>
		
			<use xlink:href="#Untitled-1.ai_x2F_Layer_1_x2F__x3C_Group_x3E__x5F_2_x5F_0"  width="46.4" height="9.4" y="-9.4" transform="matrix(1 0 0 -1 57.7998 97.8496)" style="overflow:visible;opacity:0.3008;enable-background:new    ;"/>
		
			<use xlink:href="#Untitled-1.ai_x2F_Layer_1_x2F__x3C_Group_x3E__x5F_1_x5F_0"  width="95.95" height="19.4" y="-19.4" transform="matrix(1 0 0 -1 179.2002 127.3496)" style="overflow:visible;opacity:0.3008;enable-background:new    ;"/>
		
			<use xlink:href="#Untitled-1.ai_x2F_Layer_1_x2F__x3C_Group_x3E_"  width="47.25" height="11.05" y="-11.05" transform="matrix(1 0 0 -1 109.2998 146.5498)" style="overflow:visible;opacity:0.3008;enable-background:new    ;"/>
		<path style="fill-rule:evenodd;clip-rule:evenodd;fill:#644E3D;" d="M107.25,52.8c0,1.267-1.117,2.35-3.35,3.25
			c-2.2,0.9-4.883,1.35-8.05,1.35c-3.167,0-5.85-0.45-8.05-1.35c-2.233-0.9-3.35-1.983-3.35-3.25c0-1.3,1.117-2.4,3.35-3.3
			c2.2-0.9,4.883-1.35,8.05-1.35c3.167,0,5.85,0.45,8.05,1.35C106.133,50.4,107.25,51.5,107.25,52.8z"/>
		<path style="fill-rule:evenodd;clip-rule:evenodd;fill:#644E3D;" d="M204.25,49.15c1.333-0.533,2.95-0.8,4.85-0.8
			c1.867,0,3.483,0.267,4.851,0.8c1.333,0.567,2,1.233,2,2s-0.667,1.417-2,1.95c-1.367,0.533-2.983,0.8-4.851,0.8
			c-1.899,0-3.517-0.267-4.85-0.8s-2-1.184-2-1.95S202.917,49.717,204.25,49.15z"/>
		<path style="fill-rule:evenodd;clip-rule:evenodd;fill:#644E3D;" d="M143.25,52.3c0,0.567-0.5,1.067-1.5,1.5
			c-1,0.4-2.217,0.6-3.65,0.6c-1.4,0-2.6-0.2-3.6-0.6c-1-0.433-1.5-0.933-1.5-1.5c0-0.566,0.5-1.066,1.5-1.5c1-0.4,2.2-0.6,3.6-0.6
			c1.433,0,2.65,0.2,3.65,0.6C142.75,51.233,143.25,51.733,143.25,52.3z"/>
		<path style="fill-rule:evenodd;clip-rule:evenodd;fill:#644E3D;" d="M119.95,59.65c0,0.3-0.267,0.567-0.8,0.8
			c-0.5,0.2-1.117,0.3-1.85,0.3c-0.733,0-1.367-0.1-1.9-0.3c-0.533-0.233-0.8-0.5-0.8-0.8c0-0.3,0.267-0.55,0.8-0.75
			c0.5-0.2,1.133-0.3,1.9-0.3c0.733,0,1.35,0.1,1.85,0.3C119.683,59.1,119.95,59.35,119.95,59.65z"/>
		<path style="fill-rule:evenodd;clip-rule:evenodd;fill:#4C3B2B;" d="M101.25,63.5c0,0.3-0.267,0.567-0.8,0.8
			c-0.534,0.2-1.167,0.3-1.9,0.3c-0.733,0-1.35-0.1-1.85-0.3c-0.534-0.233-0.8-0.5-0.8-0.8s0.267-0.55,0.8-0.75
			c0.5-0.2,1.117-0.3,1.85-0.3c0.767,0,1.4,0.1,1.9,0.3C100.983,62.95,101.25,63.2,101.25,63.5z"/>
		<path style="fill-rule:evenodd;clip-rule:evenodd;fill:#4C3B2B;" d="M107.6,50.55c0,1.067-0.9,1.967-2.7,2.7
			c-1.767,0.733-3.917,1.1-6.45,1.1c-2.534,0-4.684-0.367-6.45-1.1c-1.8-0.733-2.7-1.633-2.7-2.7c0-1.033,0.9-1.933,2.7-2.7
			c1.767-0.733,3.917-1.1,6.45-1.1c2.533,0,4.683,0.367,6.45,1.1C106.7,48.617,107.6,49.517,107.6,50.55z"/>
		<path style="fill-rule:evenodd;clip-rule:evenodd;fill:#644E3D;" d="M86.95,43.5c0,0.567-0.833,1.033-2.5,1.4
			c-1.7,0.4-3.75,0.6-6.15,0.6c-2.4,0-4.433-0.2-6.1-0.6c-1.7-0.367-2.55-0.833-2.55-1.4s0.85-1.05,2.55-1.45
			c1.667-0.4,3.7-0.6,6.1-0.6c2.4,0,4.45,0.2,6.15,0.6C86.117,42.45,86.95,42.933,86.95,43.5z"/>
	</g>
</g>
</svg>
