<?xml version="1.0" encoding="iso-8859-1"?>
<!-- Generator: Adobe Illustrator 15.1.0, SVG Export Plug-In . SVG Version: 6.00 Build 0)  -->
<!DOCTYPE svg PUBLIC "-//W3C//DTD SVG 1.1//EN" "http://www.w3.org/Graphics/SVG/1.1/DTD/svg11.dtd">
<svg version="1.1" id="grass_x5F_solid" xmlns="http://www.w3.org/2000/svg" xmlns:xlink="http://www.w3.org/1999/xlink" x="0px"
	 y="0px" width="63px" height="53.15px" viewBox="0 0 63 53.15" style="enable-background:new 0 0 63 53.15;" xml:space="preserve">
<g>
	<path style="fill-rule:evenodd;clip-rule:evenodd;fill:#4E3B2C;" d="M34.5,40.25c0,2.1-1.684,3.9-5.05,5.4
		c-3.367,1.466-7.434,2.199-12.2,2.199s-8.833-0.733-12.2-2.199C1.683,44.15,0,42.35,0,40.25c0-2.134,1.683-3.934,5.05-5.4
		c3.367-1.5,7.434-2.25,12.2-2.25s8.833,0.75,12.2,2.25C32.816,36.316,34.5,38.116,34.5,40.25z"/>
	<path style="fill-rule:evenodd;clip-rule:evenodd;fill:#4E3B2C;" d="M59.05,41.05c0,2.134-1.684,3.934-5.05,5.4
		c-3.366,1.5-7.434,2.25-12.2,2.25s-8.833-0.75-12.2-2.25c-3.367-1.467-5.05-3.267-5.05-5.4c0-2.1,1.684-3.883,5.05-5.35
		c3.367-1.5,7.433-2.25,12.2-2.25S50.634,34.2,54,35.7C57.366,37.167,59.05,38.95,59.05,41.05z"/>
	<path style="fill-rule:evenodd;clip-rule:evenodd;fill:#4E3B2C;" d="M40.6,40.1c3.367,1.5,5.051,3.301,5.051,5.4
		c0,2.134-1.684,3.934-5.051,5.4c-3.366,1.5-7.433,2.25-12.2,2.25c-4.767,0-8.85-0.75-12.25-2.25c-3.367-1.467-5.05-3.267-5.05-5.4
		c0-2.1,1.683-3.9,5.05-5.4c3.4-1.5,7.483-2.25,12.25-2.25C33.134,37.85,37.2,38.6,40.6,40.1z"/>
	<g>
		<g>
			
				<linearGradient id="SVGID_1_" gradientUnits="userSpaceOnUse" x1="-19.4917" y1="29.252" x2="11.3598" y2="29.252" gradientTransform="matrix(0.6078 -0.7941 0.7941 0.6078 1.126528e-005 1.904368e-004)">
				<stop  offset="0.0902" style="stop-color:#4E3B2C;stop-opacity:0"/>
				<stop  offset="0.2588" style="stop-color:#FFFFFF;stop-opacity:0.1098"/>
				<stop  offset="0.4353" style="stop-color:#FFFFFF;stop-opacity:0.4118"/>
				<stop  offset="0.6196" style="stop-color:#FFFFFF;stop-opacity:0.5294"/>
				<stop  offset="0.8039" style="stop-color:#FFFFFF;stop-opacity:0.651"/>
				<stop  offset="1" style="stop-color:#FFFFFF;stop-opacity:0.6706"/>
			</linearGradient>
			<path style="fill-rule:evenodd;clip-rule:evenodd;fill:url(#SVGID_1_);" d="M22.65,10.3l2.6-8.3c1.033,6.9,0.9,13.067-0.4,18.5
				c-1.3,5.3-4.233,11.9-8.8,19.8l-4.95-3.8c0.3-0.6,1.367-2.217,3.2-4.85c1.333-1.934,2.55-4.384,3.65-7.351
				C19.15,21.167,20.717,16.5,22.65,10.3z"/>
			
				<linearGradient id="SVGID_2_" gradientUnits="userSpaceOnUse" x1="-10.3574" y1="35.1641" x2="22.2033" y2="35.1641" gradientTransform="matrix(0.6595 -0.7517 0.7517 0.6595 -5.583763e-004 -2.781749e-004)">
				<stop  offset="0.0902" style="stop-color:#4E3B2C;stop-opacity:0"/>
				<stop  offset="0.2588" style="stop-color:#FFFFFF;stop-opacity:0.1098"/>
				<stop  offset="0.4353" style="stop-color:#FFFFFF;stop-opacity:0.4118"/>
				<stop  offset="0.6196" style="stop-color:#FFFFFF;stop-opacity:0.5294"/>
				<stop  offset="0.8039" style="stop-color:#FFFFFF;stop-opacity:0.651"/>
				<stop  offset="1" style="stop-color:#FFFFFF;stop-opacity:0.6706"/>
			</linearGradient>
			<path style="fill-rule:evenodd;clip-rule:evenodd;fill:url(#SVGID_2_);" d="M32,8.3L34.6,0c1.034,6.9,0.9,13.05-0.399,18.45
				c-1.3,5.3-4.233,11.899-8.8,19.8l-4.95-3.75c0.3-0.6,1.366-2.217,3.2-4.85c1.333-1.934,2.55-4.384,3.65-7.351
				C28.5,19.133,30.066,14.467,32,8.3z"/>
			
				<linearGradient id="SVGID_3_" gradientUnits="userSpaceOnUse" x1="-14.6807" y1="54.4844" x2="7.8157" y2="54.4844" gradientTransform="matrix(0.389 -0.9213 0.9213 0.389 1.792908e-004 2.024770e-004)">
				<stop  offset="0.0902" style="stop-color:#4E3B2C;stop-opacity:0"/>
				<stop  offset="0.2588" style="stop-color:#FFFFFF;stop-opacity:0.1098"/>
				<stop  offset="0.4353" style="stop-color:#FFFFFF;stop-opacity:0.4118"/>
				<stop  offset="0.6196" style="stop-color:#FFFFFF;stop-opacity:0.5294"/>
				<stop  offset="0.8039" style="stop-color:#FFFFFF;stop-opacity:0.651"/>
				<stop  offset="1" style="stop-color:#FFFFFF;stop-opacity:0.6706"/>
			</linearGradient>
			<path style="fill-rule:evenodd;clip-rule:evenodd;fill:url(#SVGID_3_);" d="M51.55,13.3l2.601-7.1
				c1.033,5.9,0.883,11.167-0.45,15.8c-1.267,4.533-4.184,10.15-8.75,16.85L40,35.6c0.3-0.5,1.366-1.866,3.2-4.1
				c1.3-1.634,2.517-3.717,3.649-6.25C48.05,22.55,49.616,18.567,51.55,13.3z"/>
			
				<linearGradient id="SVGID_4_" gradientUnits="userSpaceOnUse" x1="-50.2261" y1="40.7295" x2="-18.1835" y2="40.7295" gradientTransform="matrix(-0.1404 -0.9901 0.9901 -0.1404 -4.704297e-005 5.967468e-004)">
				<stop  offset="0.0902" style="stop-color:#4E3B2C;stop-opacity:0"/>
				<stop  offset="0.2588" style="stop-color:#FFFFFF;stop-opacity:0.1098"/>
				<stop  offset="0.4353" style="stop-color:#FFFFFF;stop-opacity:0.4118"/>
				<stop  offset="0.6196" style="stop-color:#FFFFFF;stop-opacity:0.5294"/>
				<stop  offset="0.8039" style="stop-color:#FFFFFF;stop-opacity:0.651"/>
				<stop  offset="1" style="stop-color:#FFFFFF;stop-opacity:0.6706"/>
			</linearGradient>
			<path style="fill-rule:evenodd;clip-rule:evenodd;fill:url(#SVGID_4_);" d="M49.3,10.45l-3,6.9C44.4,22.583,43.667,26.8,44.1,30
				c0,1.6,0.467,3.967,1.4,7.1c1.366,4.601,2.134,7.284,2.3,8.051L41.65,46.7c-2.434-9.667-3.067-17.134-1.9-22.4
				C40.884,19.2,44.066,14.583,49.3,10.45z"/>
			
				<linearGradient id="SVGID_5_" gradientUnits="userSpaceOnUse" x1="-15.2876" y1="62.8711" x2="-2.2123" y2="62.8711" gradientTransform="matrix(0.4015 -0.9158 0.9158 0.4015 -4.312396e-005 -2.531707e-004)">
				<stop  offset="0.0902" style="stop-color:#4E3B2C;stop-opacity:0"/>
				<stop  offset="0.2588" style="stop-color:#FFFFFF;stop-opacity:0.1098"/>
				<stop  offset="0.4353" style="stop-color:#FFFFFF;stop-opacity:0.4118"/>
				<stop  offset="0.6196" style="stop-color:#FFFFFF;stop-opacity:0.5294"/>
				<stop  offset="0.8039" style="stop-color:#FFFFFF;stop-opacity:0.651"/>
				<stop  offset="1" style="stop-color:#FFFFFF;stop-opacity:0.6706"/>
			</linearGradient>
			<path style="fill-rule:evenodd;clip-rule:evenodd;fill:url(#SVGID_5_);" d="M59.05,26.25c-2.733,1.9-4.416,3.65-5.05,5.25
				c-0.434,0.767-0.833,2.017-1.2,3.75c-0.467,2.434-0.767,3.884-0.899,4.35l-4.25-0.949c1.267-5.2,3.033-8.867,5.3-11
				c2.166-2.034,5.483-3.3,9.95-3.8C61.667,24.483,60.384,25.283,59.05,26.25z"/>
			
				<linearGradient id="SVGID_6_" gradientUnits="userSpaceOnUse" x1="-35.2715" y1="34.3096" x2="-9.8439" y2="34.3096" gradientTransform="matrix(-0.118 -0.993 0.993 -0.118 -5.070865e-005 9.259507e-004)">
				<stop  offset="0.0902" style="stop-color:#4E3B2C;stop-opacity:0"/>
				<stop  offset="0.2588" style="stop-color:#FFFFFF;stop-opacity:0.1098"/>
				<stop  offset="0.4353" style="stop-color:#FFFFFF;stop-opacity:0.4118"/>
				<stop  offset="0.6196" style="stop-color:#FFFFFF;stop-opacity:0.5294"/>
				<stop  offset="0.8039" style="stop-color:#FFFFFF;stop-opacity:0.651"/>
				<stop  offset="1" style="stop-color:#FFFFFF;stop-opacity:0.6706"/>
			</linearGradient>
			<path style="fill-rule:evenodd;clip-rule:evenodd;fill:url(#SVGID_6_);" d="M44.7,5.85l-3.7,7.9c-2.566,5.9-4,10.383-4.3,13.45
				c-0.267,2.899-0.134,5.383,0.399,7.45c0.767,2.899,1.184,4.633,1.25,5.199L30,41.15c-1.067-7.5-0.217-14.067,2.55-19.7
				C34.517,17.383,38.566,12.183,44.7,5.85z"/>
			
				<linearGradient id="SVGID_7_" gradientUnits="userSpaceOnUse" x1="-47.6211" y1="27.1895" x2="-19.3611" y2="27.1895" gradientTransform="matrix(0.0265 -0.9996 0.9996 0.0265 2.869982e-004 4.189275e-005)">
				<stop  offset="0.0902" style="stop-color:#4E3B2C;stop-opacity:0"/>
				<stop  offset="0.2588" style="stop-color:#FFFFFF;stop-opacity:0.1098"/>
				<stop  offset="0.4353" style="stop-color:#FFFFFF;stop-opacity:0.4118"/>
				<stop  offset="0.6196" style="stop-color:#FFFFFF;stop-opacity:0.5294"/>
				<stop  offset="0.8039" style="stop-color:#FFFFFF;stop-opacity:0.651"/>
				<stop  offset="1" style="stop-color:#FFFFFF;stop-opacity:0.6706"/>
			</linearGradient>
			<path style="fill-rule:evenodd;clip-rule:evenodd;fill:url(#SVGID_7_);" d="M23.15,28.55c0.9-1.833,4.1-6.55,9.6-14.15l-2.4,7.4
				c-1.6,5.533-2.467,9.75-2.6,12.65c-0.133,2.767,0.033,5.149,0.5,7.149c0.667,2.867,1.033,4.551,1.1,5.051
				c-4.6,0.166-7.534,0.35-8.8,0.55C19.583,40.3,20.45,34.083,23.15,28.55z"/>
			
				<linearGradient id="SVGID_8_" gradientUnits="userSpaceOnUse" x1="-38.8828" y1="27.2324" x2="-13.9517" y2="27.2324" gradientTransform="matrix(0.2707 -0.9627 0.9627 0.2707 3.234446e-004 3.089309e-004)">
				<stop  offset="0.0902" style="stop-color:#4E3B2C;stop-opacity:0"/>
				<stop  offset="0.2588" style="stop-color:#FFFFFF;stop-opacity:0.1098"/>
				<stop  offset="0.4353" style="stop-color:#FFFFFF;stop-opacity:0.4118"/>
				<stop  offset="0.6196" style="stop-color:#FFFFFF;stop-opacity:0.5294"/>
				<stop  offset="0.8039" style="stop-color:#FFFFFF;stop-opacity:0.651"/>
				<stop  offset="1" style="stop-color:#FFFFFF;stop-opacity:0.6706"/>
			</linearGradient>
			<path style="fill-rule:evenodd;clip-rule:evenodd;fill:url(#SVGID_8_);" d="M14.9,32.55c0.767-1.434,3.434-5.033,8-10.8l-2,5.65
				C19.566,31.6,18.85,34.8,18.75,37c-0.1,2.1,0.033,3.917,0.4,5.45c0.533,2.233,0.817,3.517,0.85,3.85
				c-3.8,0.134-6.217,0.283-7.25,0.45C11.95,41.483,12.667,36.75,14.9,32.55z"/>
			
				<linearGradient id="SVGID_9_" gradientUnits="userSpaceOnUse" x1="-51.6914" y1="29.502" x2="-25.5712" y2="29.502" gradientTransform="matrix(-0.1053 -0.9944 0.9944 -0.1053 -1.215786e-004 5.795062e-005)">
				<stop  offset="0.0902" style="stop-color:#4E3B2C;stop-opacity:0"/>
				<stop  offset="0.2588" style="stop-color:#FFFFFF;stop-opacity:0.1098"/>
				<stop  offset="0.4353" style="stop-color:#FFFFFF;stop-opacity:0.4118"/>
				<stop  offset="0.6196" style="stop-color:#FFFFFF;stop-opacity:0.5294"/>
				<stop  offset="0.8039" style="stop-color:#FFFFFF;stop-opacity:0.651"/>
				<stop  offset="1" style="stop-color:#FFFFFF;stop-opacity:0.6706"/>
			</linearGradient>
			<path style="fill-rule:evenodd;clip-rule:evenodd;fill:url(#SVGID_9_);" d="M30.15,32.25c0.8-1.6,3.667-5.783,8.6-12.55
				l-2.15,6.55c-1.433,4.866-2.199,8.583-2.3,11.15c-0.1,2.433,0.05,4.533,0.45,6.3c0.6,2.6,0.917,4.1,0.95,4.5
				c-4.101,0.166-6.717,0.333-7.85,0.5C26.983,42.6,27.75,37.116,30.15,32.25z"/>
			
				<linearGradient id="SVGID_10_" gradientUnits="userSpaceOnUse" x1="-38.4468" y1="16.5615" x2="-13.3906" y2="16.5615" gradientTransform="matrix(0.2095 -0.9778 0.9778 0.2095 2.940744e-004 -7.496774e-005)">
				<stop  offset="0.0902" style="stop-color:#4E3B2C;stop-opacity:0"/>
				<stop  offset="0.2588" style="stop-color:#FFFFFF;stop-opacity:0.1098"/>
				<stop  offset="0.4353" style="stop-color:#FFFFFF;stop-opacity:0.4118"/>
				<stop  offset="0.6196" style="stop-color:#FFFFFF;stop-opacity:0.5294"/>
				<stop  offset="0.8039" style="stop-color:#FFFFFF;stop-opacity:0.651"/>
				<stop  offset="1" style="stop-color:#FFFFFF;stop-opacity:0.6706"/>
			</linearGradient>
			<path style="fill-rule:evenodd;clip-rule:evenodd;fill:url(#SVGID_10_);" d="M7.9,26.65c1-2.433,3.8-5.033,8.4-7.8l-2.7,5.45
				c-1.833,4.167-2.8,7.667-2.9,10.5c-0.067,2.033-0.083,3.617-0.05,4.75c0,0.467-0.167,1.517-0.5,3.15
				c-1.9-0.566-3.517-1.017-4.85-1.351C6.633,32.517,7.5,27.616,7.9,26.65z"/>
		</g>
	</g>
</g>
</svg>
