<?xml version="1.0" encoding="iso-8859-1"?>
<!-- Generator: Adobe Illustrator 15.1.0, SVG Export Plug-In . SVG Version: 6.00 Build 0)  -->
<!DOCTYPE svg PUBLIC "-//W3C//DTD SVG 1.1//EN" "http://www.w3.org/Graphics/SVG/1.1/DTD/svg11.dtd">
<svg version="1.1" xmlns="http://www.w3.org/2000/svg" xmlns:xlink="http://www.w3.org/1999/xlink" x="0px" y="0px"
	 width="115.35px" height="97.2px" viewBox="0 0 115.35 97.2" style="enable-background:new 0 0 115.35 97.2;" xml:space="preserve"
	>
<g id="_x39_">
	<g>
		
			<linearGradient id="SVGID_1_" gradientUnits="userSpaceOnUse" x1="-49.6548" y1="98.8857" x2="63.2199" y2="98.8857" gradientTransform="matrix(0.6339 -0.7734 0.8677 0.5188 -5.482435e-004 1.195669e-004)">
			<stop  offset="0.2" style="stop-color:#FFFFFF;stop-opacity:0"/>
			<stop  offset="1" style="stop-color:#8A834A"/>
		</linearGradient>
		<path style="fill-rule:evenodd;clip-rule:evenodd;fill:url(#SVGID_1_);" d="M100,31.495c-0.733,8.046-3.15,15.225-7.25,21.538
			c-4.167,6.396-8.65,14.506-13.45,24.327L69.4,70.842c0.767-1.807,1.983-3.965,3.649-6.473c1.634-2.564,3.05-4.848,4.25-6.85
			c1.367-2.34,3-5.132,4.9-8.374l6.35-10.956c7.367-14.164,11.917-22.499,13.65-25.006C101.5,17.062,100.767,23.166,100,31.495z"/>
	</g>
</g>
<g id="_x35_">
	<g>
		
			<linearGradient id="SVGID_2_" gradientUnits="userSpaceOnUse" x1="-66.4292" y1="62.4219" x2="59.3536" y2="62.4219" gradientTransform="matrix(0.5688 -0.8225 0.8225 0.5688 -3.168583e-004 -5.567074e-005)">
			<stop  offset="0.2" style="stop-color:#FFFFFF;stop-opacity:0"/>
			<stop  offset="1" style="stop-color:#8A834A"/>
		</linearGradient>
		<path style="fill-rule:evenodd;clip-rule:evenodd;fill:url(#SVGID_2_);" d="M59.5,27.65c-0.833,6.8-2.667,13.867-5.5,21.2
			c-3.033,7.9-7.617,17.133-13.75,27.7L30.35,69c1.066-2,2.5-4.233,4.3-6.7c1.9-2.633,3.317-4.767,4.25-6.399
			c1.767-3.034,3.5-6.784,5.2-11.25l5-14.55c3.2-9.567,6.367-19.6,9.5-30.1C60.167,10.4,60.467,19.617,59.5,27.65z"/>
	</g>
</g>
<g id="_x33_">
	<g>
		
			<linearGradient id="SVGID_3_" gradientUnits="userSpaceOnUse" x1="-80.1914" y1="49.2031" x2="45.5914" y2="49.2031" gradientTransform="matrix(0.5688 -0.8225 0.8225 0.5688 -3.168583e-004 -5.567074e-005)">
			<stop  offset="0.2" style="stop-color:#FFFFFF;stop-opacity:0"/>
			<stop  offset="1" style="stop-color:#8A834A"/>
		</linearGradient>
		<path style="fill-rule:evenodd;clip-rule:evenodd;fill:url(#SVGID_3_);" d="M40.8,31.45c-0.833,6.8-2.667,13.867-5.5,21.2
			c-3.033,7.899-7.617,17.133-13.75,27.699l-9.9-7.55c1.067-2,2.5-4.233,4.3-6.7c1.9-2.633,3.316-4.767,4.25-6.399
			c1.767-3.033,3.5-6.783,5.2-11.25l5-14.55c3.2-9.566,6.367-19.6,9.5-30.1C41.467,14.2,41.767,23.417,40.8,31.45z"/>
	</g>
</g>
<g id="_x36_">
	<g>
		
			<linearGradient id="SVGID_4_" gradientUnits="userSpaceOnUse" x1="10.6987" y1="-60.5176" x2="102.439" y2="-60.5176" gradientTransform="matrix(0.1289 0.9917 -0.9883 0.1545 1.757294e-004 -1.797527e-004)">
			<stop  offset="0" style="stop-color:#8A834A"/>
			<stop  offset="0.8824" style="stop-color:#FFFFFF;stop-opacity:0"/>
		</linearGradient>
		<path style="fill-rule:evenodd;clip-rule:evenodd;fill:url(#SVGID_4_);" d="M84.272,11.13c-3.397,3.785-6.849,8.203-10.353,13.256
			c-6.925,10.111-10.536,18.38-10.834,24.806c-0.635,3.149-0.478,7.941,0.474,14.378c1.301,9.075,2.01,14.506,2.126,16.292
			l-15.792,2.196c-1.876-19.583-0.243-34.553,4.901-44.908C59.764,27.22,69.59,18.546,84.272,11.13z"/>
	</g>
</g>
<g id="_x31_0">
	<g>
		<linearGradient id="SVGID_5_" gradientUnits="userSpaceOnUse" x1="106.4473" y1="30.793" x2="93.1532" y2="93.9442">
			<stop  offset="0" style="stop-color:#8A834A"/>
			<stop  offset="0.8824" style="stop-color:#FFFFFF;stop-opacity:0"/>
		</linearGradient>
		<path style="fill-rule:evenodd;clip-rule:evenodd;fill:url(#SVGID_5_);" d="M107.25,53c-4.167,3.467-6.983,6.634-8.45,9.5
			c-1.3,2.033-2.416,4.917-3.35,8.65c-1.033,4.466-1.767,7.1-2.2,7.899L84.7,77.1c3.2-10.233,7.05-17.416,11.55-21.55
			c4.4-4.066,10.75-7.333,19.05-9.8C112.7,48.083,110.017,50.5,107.25,53z"/>
	</g>
</g>
<g id="_x31_">
	<g>
		
			<linearGradient id="SVGID_6_" gradientUnits="userSpaceOnUse" x1="9.8018" y1="-23.1924" x2="106.4674" y2="-23.1924" gradientTransform="matrix(-0.2222 0.975 -0.9918 -0.1483 -6.147474e-004 -2.617091e-004)">
			<stop  offset="0" style="stop-color:#8A834A"/>
			<stop  offset="0.8824" style="stop-color:#FFFFFF;stop-opacity:0"/>
		</linearGradient>
		<path style="fill-rule:evenodd;clip-rule:evenodd;fill:url(#SVGID_6_);" d="M22.05,37.55c-1.767,3.067-3.566,6.684-5.4,10.85
			c-3.633,8.367-5.55,15.383-5.75,21.05c-0.133,4.066-0.183,7.233-0.15,9.5c0,0.967-0.317,3.066-0.95,6.3
			c-3.867-1.1-7.133-2-9.8-2.7C1.233,73.616,2.083,67.566,2.55,64.4c0.767-5,1.65-8.733,2.65-11.2c1.2-2.9,3.05-5.5,5.55-7.8
			C13.083,43.267,16.85,40.65,22.05,37.55z"/>
	</g>
</g>
<g id="_x38_">
	<g>
		<linearGradient id="SVGID_7_" gradientUnits="userSpaceOnUse" x1="67.8848" y1="12.2925" x2="92.9864" y2="101.917">
			<stop  offset="0" style="stop-color:#8A834A"/>
			<stop  offset="0.8824" style="stop-color:#FFFFFF;stop-opacity:0"/>
		</linearGradient>
		<path style="fill-rule:evenodd;clip-rule:evenodd;fill:url(#SVGID_7_);" d="M88.05,20.7c-2.066,3.966-4.066,8.566-6,13.8
			c-3.8,10.467-5.267,18.9-4.399,25.3c0.033,3.167,0.983,7.917,2.85,14.25c2.6,8.934,4.1,14.283,4.5,16.05l-12.25,3.15
			c-4.866-19.333-6.134-34.3-3.8-44.9C71.217,38.183,77.583,28.967,88.05,20.7z"/>
	</g>
</g>
<g id="_x32_">
	<g>
		
			<linearGradient id="SVGID_8_" gradientUnits="userSpaceOnUse" x1="28.0381" y1="-14.4395" x2="116.6608" y2="-14.4395" gradientTransform="matrix(0.1515 0.9885 -0.985 0.1739 8.037686e-005 -2.556145e-004)">
			<stop  offset="0" style="stop-color:#8A834A"/>
			<stop  offset="0.8824" style="stop-color:#FFFFFF;stop-opacity:0"/>
		</linearGradient>
		<path style="fill-rule:evenodd;clip-rule:evenodd;fill:url(#SVGID_8_);" d="M27.75,84.75c1.067,4.333,1.65,6.917,1.75,7.75
			c-7.633,0.267-12.5,0.533-14.6,0.8c-1.6-10.5-0.15-19.95,4.35-28.35c1.7-3.2,4.133-6.816,7.3-10.851
			c3.833-4.666,6.733-8.266,8.7-10.8l-4,11.3c-2.7,8.4-4.15,14.817-4.35,19.25C26.7,78.05,26.983,81.684,27.75,84.75z"/>
	</g>
</g>
<g id="_x34_">
	<g>
		<linearGradient id="SVGID_9_" gradientUnits="userSpaceOnUse" x1="34.1763" y1="9.4429" x2="51.5631" y2="115.1659">
			<stop  offset="0" style="stop-color:#8A834A"/>
			<stop  offset="0.8824" style="stop-color:#FFFFFF;stop-opacity:0"/>
		</linearGradient>
		<path style="fill-rule:evenodd;clip-rule:evenodd;fill:url(#SVGID_9_);" d="M54.95,28.65c-1.567,4.333-3.167,9.267-4.8,14.8
			c-3.233,11-4.967,19.416-5.2,25.25C44.717,74.233,45.067,79,46,83c1.3,5.667,2,9.033,2.1,10.1c-9.2,0.334-15.067,0.7-17.6,1.101
			c-1.967-13.767-0.233-26.184,5.2-37.25c2.033-4.167,4.95-8.9,8.75-14.2C49.083,36.65,52.583,31.95,54.95,28.65z"/>
	</g>
</g>
<g id="_x37_">
	<g>
		<linearGradient id="SVGID_10_" gradientUnits="userSpaceOnUse" x1="48.4189" y1="21.8325" x2="63.9362" y2="116.1592">
			<stop  offset="0" style="stop-color:#8A834A"/>
			<stop  offset="0.8824" style="stop-color:#FFFFFF;stop-opacity:0"/>
		</linearGradient>
		<path style="fill-rule:evenodd;clip-rule:evenodd;fill:url(#SVGID_10_);" d="M62.7,52.35C59.8,62.083,58.233,69.533,58,74.7
			c-0.2,4.866,0.116,9.066,0.95,12.6c1.166,5.066,1.8,8.05,1.899,8.95c-8.233,0.3-13.466,0.616-15.7,0.95
			c-1.767-12.167-0.233-23.134,4.6-32.9c1.833-3.7,4.45-7.883,7.85-12.55c4.101-5.433,7.217-9.6,9.351-12.5
			C65.55,43.083,64.134,47.45,62.7,52.35z"/>
	</g>
</g>
</svg>
