<?xml version="1.0" encoding="iso-8859-1"?>
<!-- Generator: Adobe Illustrator 15.1.0, SVG Export Plug-In . SVG Version: 6.00 Build 0)  -->
<!DOCTYPE svg PUBLIC "-//W3C//DTD SVG 1.1//EN" "http://www.w3.org/Graphics/SVG/1.1/DTD/svg11.dtd">
<svg version="1.1" id="grass_x5F_solid" xmlns="http://www.w3.org/2000/svg" xmlns:xlink="http://www.w3.org/1999/xlink" x="0px"
	 y="0px" width="115.25px" height="97.2px" viewBox="0 0 115.25 97.2" style="enable-background:new 0 0 115.25 97.2;"
	 xml:space="preserve">
<symbol  id="_x31_" viewBox="-11.05 0 22.05 47.7">
	<g id="Layer_4_5_">
		
			<linearGradient id="SVGID_1_" gradientUnits="userSpaceOnUse" x1="1191.6948" y1="-17890.2617" x2="1288.3605" y2="-17890.2617" gradientTransform="matrix(-0.2222 -0.975 0.9918 -0.1483 18018.8105 -1418.8428)">
			<stop  offset="0" style="stop-color:#8A834A"/>
			<stop  offset="0.8824" style="stop-color:#FFFFFF;stop-opacity:0"/>
		</linearGradient>
		<path style="fill-rule:evenodd;clip-rule:evenodd;fill:url(#SVGID_1_);" d="M11,47.7c-1.767-3.067-3.567-6.684-5.4-10.85
			C1.967,28.483,0.05,21.467-0.15,15.8c-0.133-4.066-0.184-7.233-0.15-9.5c0-0.966-0.317-3.066-0.95-6.3c-3.867,1.1-7.133,2-9.8,2.7
			c1.233,8.933,2.083,14.983,2.55,18.15c0.767,5,1.65,8.733,2.65,11.2c1.2,2.9,3.05,5.5,5.55,7.8C2.033,41.983,5.8,44.6,11,47.7z"/>
	</g>
</symbol>
<symbol  id="_x31_0" viewBox="-15.25 0 30.55 31.5">
	<g id="Layer_4_6_">
		<linearGradient id="SVGID_2_" gradientUnits="userSpaceOnUse" x1="6.6558" y1="48.2236" x2="-6.6383" y2="-14.9276">
			<stop  offset="0" style="stop-color:#8A834A"/>
			<stop  offset="0.8824" style="stop-color:#FFFFFF;stop-opacity:0"/>
		</linearGradient>
		<path style="fill-rule:evenodd;clip-rule:evenodd;fill:url(#SVGID_2_);" d="M15.3,31.5c-2.433-1.267-5-2.85-7.7-4.75
			C2.167,22.917-1.2,19.4-2.5,16.2c-0.9-1.5-1.7-3.983-2.4-7.45C-5.833,3.817-6.433,0.9-6.7,0l-8.55,1.95
			c2.533,10.367,6.067,17.683,10.6,21.95C-0.283,28.033,6.367,30.567,15.3,31.5z"/>
	</g>
</symbol>
<symbol  id="_x32_" viewBox="-10.48 0 20.98 50">
	<g id="Layer_4_3_">
		
			<linearGradient id="SVGID_3_" gradientUnits="userSpaceOnUse" x1="-1369.2412" y1="-14946.4697" x2="-1280.6184" y2="-14946.4697" gradientTransform="matrix(0.1515 -0.9885 0.985 0.1739 14923.6621 1314.5918)">
			<stop  offset="0" style="stop-color:#8A834A"/>
			<stop  offset="0.8824" style="stop-color:#FFFFFF;stop-opacity:0"/>
		</linearGradient>
		<path style="fill-rule:evenodd;clip-rule:evenodd;fill:url(#SVGID_3_);" d="M2.15,19.45c-0.2-4.2,0.083-7.833,0.85-10.9
			C4.067,4.217,4.65,1.633,4.75,0.8C-2.883,0.533-7.75,0.267-9.85,0C-11.45,10.5-10,19.95-5.5,28.35c1.7,3.2,4.133,6.816,7.3,10.85
			c3.833,4.667,6.733,8.267,8.7,10.8l-4-11.3C3.8,30.3,2.35,23.883,2.15,19.45z"/>
	</g>
</symbol>
<symbol  id="_x33_" viewBox="-14.85 0.05 29.703 76.55">
	<g id="Layer_7_1_">
		
			<linearGradient id="SVGID_4_" gradientUnits="userSpaceOnUse" x1="10176.0615" y1="3197.9111" x2="10301.8447" y2="3197.9111" gradientTransform="matrix(0.5688 0.8225 -0.8225 0.5688 -3189.6152 -10202.0693)">
			<stop  offset="0.2" style="stop-color:#FFFFFF;stop-opacity:0"/>
			<stop  offset="1" style="stop-color:#8A834A"/>
		</linearGradient>
		<path style="fill-rule:evenodd;clip-rule:evenodd;fill:url(#SVGID_4_);" d="M14.3,48.95c-0.833-6.8-2.667-13.867-5.5-21.2
			c-3.033-7.9-7.617-17.133-13.75-27.7l-9.9,7.55c1.067,2,2.5,4.233,4.3,6.7c1.9,2.633,3.316,4.767,4.25,6.4
			c1.767,3.033,3.5,6.783,5.2,11.25l5,14.55c3.2,9.566,6.367,19.6,9.5,30.1C14.967,66.2,15.267,56.983,14.3,48.95z"/>
	</g>
</symbol>
<symbol  id="_x34_" viewBox="-12.634 0 25.234 65.55">
	<g id="Layer_4_2_">
		<linearGradient id="SVGID_5_" gradientUnits="userSpaceOnUse" x1="-8.1738" y1="84.7568" x2="9.213" y2="-20.9662">
			<stop  offset="0" style="stop-color:#8A834A"/>
			<stop  offset="0.8824" style="stop-color:#FFFFFF;stop-opacity:0"/>
		</linearGradient>
		<path style="fill-rule:evenodd;clip-rule:evenodd;fill:url(#SVGID_5_);" d="M12.6,65.55c-1.567-4.333-3.167-9.267-4.8-14.8
			c-3.233-11-4.966-19.417-5.2-25.25c-0.233-5.533,0.117-10.3,1.05-14.3c1.3-5.667,2-9.034,2.1-10.1C-3.45,0.767-9.317,0.4-11.85,0
			c-1.967,13.767-0.233,26.183,5.2,37.25c2.033,4.167,4.95,8.9,8.75,14.2C6.733,57.55,10.233,62.25,12.6,65.55z"/>
	</g>
</symbol>
<symbol  id="_x37_" viewBox="-11.259 0 22.509 57.95">
	<g id="Layer_4_1_">
		<linearGradient id="SVGID_6_" gradientUnits="userSpaceOnUse" x1="-7.2817" y1="75.3682" x2="8.2355" y2="-18.9585">
			<stop  offset="0" style="stop-color:#8A834A"/>
			<stop  offset="0.8824" style="stop-color:#FFFFFF;stop-opacity:0"/>
		</linearGradient>
		<path style="fill-rule:evenodd;clip-rule:evenodd;fill:url(#SVGID_6_);" d="M3.25,9.9c1.167-5.066,1.8-8.05,1.9-8.95
			C-3.083,0.65-8.317,0.333-10.55,0c-1.767,12.167-0.233,23.133,4.6,32.9c1.833,3.7,4.45,7.883,7.85,12.55
			c4.1,5.434,7.217,9.6,9.35,12.5c-1.4-3.834-2.817-8.2-4.25-13.1C4.1,35.117,2.533,27.667,2.3,22.5
			C2.1,17.633,2.417,13.433,3.25,9.9z"/>
	</g>
</symbol>
<symbol  id="_x38_" viewBox="-10.084 0 20.234 72.55">
	<g id="Layer_4_4_">
		<linearGradient id="SVGID_7_" gradientUnits="userSpaceOnUse" x1="-10.0146" y1="80.959" x2="15.087" y2="-8.6656">
			<stop  offset="0" style="stop-color:#8A834A"/>
			<stop  offset="0.8824" style="stop-color:#FFFFFF;stop-opacity:0"/>
		</linearGradient>
		<path style="fill-rule:evenodd;clip-rule:evenodd;fill:url(#SVGID_7_);" d="M10.15,72.55c-2.066-3.967-4.066-8.566-6-13.8
			c-3.8-10.467-5.267-18.9-4.4-25.3c0.033-3.167,0.983-7.917,2.85-14.25C5.058,10.756,6.533,5.514,7.025,3.475
			C7.053,3.355,7.078,3.247,7.1,3.15H7.075L-5.15,0c-4.867,19.333-6.133,34.3-3.8,44.9C-6.683,55.066-0.317,64.283,10.15,72.55z"/>
	</g>
</symbol>
<symbol  id="grass_x5F_solid_1_" viewBox="-52.3 -44.25 115.25 97.2">
	<g id="_x39__1_">
		
			<use xlink:href="#_x33_"  width="29.703" height="76.55" x="-14.85" y="0.05" transform="matrix(1 -0.0048 0.0041 0.8507 31.9502 -24.5)" style="overflow:visible;"/>
	</g>
	<g id="_x35__1_">
		
			<use xlink:href="#_x33_"  width="29.703" height="76.55" x="-14.85" y="0.05" transform="matrix(1 0 0 1 -7.1001 -23.6499)" style="overflow:visible;"/>
	</g>
	<g id="_x33__1_">
		
			<use xlink:href="#_x33_"  width="29.703" height="76.55" x="-14.85" y="0.05" transform="matrix(1 0 0 1 -25.7998 -27.4502)" style="overflow:visible;"/>
	</g>
	<g id="_x36__1_">
		
			<use xlink:href="#_x38_"  width="20.234" height="72.55" x="-10.084" transform="matrix(1.2341 -0.0763 0.2136 0.9937 3.9497 -29.5)" style="overflow:visible;"/>
	</g>
	<g id="_x31_0_1_">
		
			<use xlink:href="#_x31_0"  width="30.55" height="31.5" x="-15.25" transform="matrix(1 0 0 1 47.6499 -26.1001)" style="overflow:visible;"/>
	</g>
	<g id="_x31__1_">
		
			<use xlink:href="#_x31_"  width="22.05" height="47.7" x="-11.05" transform="matrix(1 0 0 1 -41.25 -32.2998)" style="overflow:visible;"/>
	</g>
	<g id="_x38__1_">
		
			<use xlink:href="#_x38_"  width="20.234" height="72.55" x="-10.084" transform="matrix(1 0 0 1 25.6001 -40.2998)" style="overflow:visible;"/>
	</g>
	<g id="_x32__1_">
		
			<use xlink:href="#_x32_"  width="20.98" height="50" x="-10.48" transform="matrix(1 0 0 1 -27.5498 -40.3501)" style="overflow:visible;"/>
	</g>
	<g id="_x34__1_">
		
			<use xlink:href="#_x34_"  width="25.234" height="65.55" x="-12.634" transform="matrix(1 0 0 1 -9.9502 -41.25)" style="overflow:visible;"/>
	</g>
	<g id="_x37__1_">
		
			<use xlink:href="#_x37_"  width="22.509" height="57.95" x="-11.259" transform="matrix(1 0 0 1 3.3999 -44.25)" style="overflow:visible;"/>
	</g>
</symbol>
<use xlink:href="#grass_x5F_solid_1_"  width="115.25" height="97.2" x="-52.3" y="-44.25" transform="matrix(1 0 0 -1 52.2998 52.9502)" style="overflow:visible;"/>
</svg>
