<?xml version="1.0" encoding="iso-8859-1"?>
<!-- Generator: Adobe Illustrator 15.1.0, SVG Export Plug-In . SVG Version: 6.00 Build 0)  -->
<!DOCTYPE svg PUBLIC "-//W3C//DTD SVG 1.1//EN" "http://www.w3.org/Graphics/SVG/1.1/DTD/svg11.dtd">
<svg version="1.1" xmlns="http://www.w3.org/2000/svg" xmlns:xlink="http://www.w3.org/1999/xlink" x="0px" y="0px"
	 width="125.95px" height="106.1px" viewBox="0 0 125.95 106.1" style="enable-background:new 0 0 125.95 106.1;"
	 xml:space="preserve">
<symbol  id="dirt_1_" viewBox="-59.1 -20.55 118.2 41.1">
	<g id="Layer_1_2_">
		<path style="fill-rule:evenodd;clip-rule:evenodd;fill:#4C3B2A;" d="M-24.55,20.55c9.534,0,17.667-1.5,24.4-4.5
			C6.617,13.083,10,9.483,10,5.25S6.617-2.583-0.15-5.55C-6.883-8.517-15.017-10-24.55-10c-9.533,0-17.667,1.483-24.4,4.45
			C-55.717-2.583-59.1,1.017-59.1,5.25s3.383,7.833,10.15,10.8C-42.217,19.05-34.083,20.55-24.55,20.55z"/>
		<path style="fill-rule:evenodd;clip-rule:evenodd;fill:#4C3B2A;" d="M59.1,3.6c0-4.233-3.383-7.833-10.15-10.8
			c-6.733-3-14.867-4.5-24.4-4.5S6.867-10.2,0.1-7.2C-6.633-4.233-10-0.633-10,3.6c0,4.2,3.367,7.783,10.1,10.75
			c6.767,3,14.917,4.5,24.45,4.5s17.667-1.5,24.4-4.5C55.717,11.383,59.1,7.8,59.1,3.6z"/>
		<path style="fill-rule:evenodd;clip-rule:evenodd;fill:#4C3B2A;" d="M-2.3,9.95c9.566,0,17.716-1.483,24.45-4.45
			s10.1-6.567,10.1-10.8c0-4.233-3.367-7.833-10.1-10.8S7.267-20.55-2.3-20.55c-9.534,0-17.667,1.483-24.4,4.45
			c-6.733,2.967-10.1,6.567-10.1,10.8c0,4.233,3.367,7.833,10.1,10.8C-19.967,8.467-11.833,9.95-2.3,9.95z"/>
	</g>
</symbol>
<g id="dirt">
	
		<use xlink:href="#dirt_1_"  width="118.2" height="41.1" x="-59.1" y="-20.55" transform="matrix(1 0 0 -1 59.1001 85.5498)" style="overflow:visible;"/>
</g>
<g id="_x39_">
	<g>
		
			<linearGradient id="SVGID_1_" gradientUnits="userSpaceOnUse" x1="-20.2803" y1="105.0859" x2="44.8447" y2="105.0859" gradientTransform="matrix(0.6338 -0.7735 0.8677 0.5188 5.208254e-004 3.057718e-004)">
			<stop  offset="0.0902" style="stop-color:#4C3B2A"/>
			<stop  offset="0.2588" style="stop-color:#625D38"/>
			<stop  offset="0.4353" style="stop-color:#747843"/>
			<stop  offset="0.6196" style="stop-color:#818B4B"/>
			<stop  offset="0.8039" style="stop-color:#899750"/>
			<stop  offset="1" style="stop-color:#8C9B51"/>
		</linearGradient>
		<path style="fill-rule:evenodd;clip-rule:evenodd;fill:url(#SVGID_1_);" d="M109.15,35.947c-0.834,5.777-2.667,11.771-5.5,17.981
			c-3.034,6.691-7.617,14.501-13.75,23.431L80,70.842c1.066-1.69,2.5-3.577,4.3-5.658c1.9-2.222,3.316-4.022,4.25-5.403
			c1.767-2.563,3.5-5.736,5.2-9.52l5-12.329c3.2-8.107,6.366-16.612,9.5-25.514C109.816,21.279,110.116,29.122,109.15,35.947z"/>
	</g>
</g>
<g id="_x35_">
	<g>
		
			<linearGradient id="SVGID_2_" gradientUnits="userSpaceOnUse" x1="-33.7871" y1="71.1406" x2="38.7714" y2="71.1406" gradientTransform="matrix(0.5688 -0.8225 0.8225 0.5688 -3.243685e-004 -4.295111e-004)">
			<stop  offset="0.0902" style="stop-color:#4C3B2A"/>
			<stop  offset="0.2588" style="stop-color:#625D38"/>
			<stop  offset="0.4353" style="stop-color:#747843"/>
			<stop  offset="0.6196" style="stop-color:#818B4B"/>
			<stop  offset="0.8039" style="stop-color:#899750"/>
			<stop  offset="1" style="stop-color:#8C9B51"/>
		</linearGradient>
		<path style="fill-rule:evenodd;clip-rule:evenodd;fill:url(#SVGID_2_);" d="M70.1,27.65c-0.833,6.8-2.666,13.867-5.5,21.2
			c-3.033,7.9-7.616,17.133-13.75,27.7L40.95,69c1.066-2,2.5-4.233,4.3-6.7c1.9-2.633,3.317-4.767,4.25-6.399
			c1.767-3.034,3.5-6.784,5.2-11.25l5-14.55c3.2-9.567,6.366-19.6,9.5-30.1C70.767,10.4,71.066,19.617,70.1,27.65z"/>
	</g>
</g>
<g id="_x33_">
	<g>
		
			<linearGradient id="SVGID_3_" gradientUnits="userSpaceOnUse" x1="-47.5493" y1="57.9209" x2="25.0092" y2="57.9209" gradientTransform="matrix(0.5688 -0.8225 0.8225 0.5688 -3.243685e-004 -4.295111e-004)">
			<stop  offset="0.0902" style="stop-color:#4C3B2A"/>
			<stop  offset="0.2588" style="stop-color:#625D38"/>
			<stop  offset="0.4353" style="stop-color:#747843"/>
			<stop  offset="0.6196" style="stop-color:#818B4B"/>
			<stop  offset="0.8039" style="stop-color:#899750"/>
			<stop  offset="1" style="stop-color:#8C9B51"/>
		</linearGradient>
		<path style="fill-rule:evenodd;clip-rule:evenodd;fill:url(#SVGID_3_);" d="M51.4,31.45c-0.833,6.8-2.667,13.867-5.5,21.2
			c-3.033,7.9-7.617,17.133-13.75,27.7l-9.9-7.55c1.067-2,2.5-4.233,4.3-6.7c1.9-2.633,3.317-4.767,4.25-6.399
			c1.767-3.033,3.5-6.784,5.2-11.25l5-14.55c3.2-9.566,6.367-19.6,9.5-30.1C52.067,14.2,52.367,23.417,51.4,31.45z"/>
	</g>
</g>
<g id="_x36_">
	<g>
		
			<linearGradient id="SVGID_4_" gradientUnits="userSpaceOnUse" x1="-90.2617" y1="71.7246" x2="-24.9834" y2="71.7246" gradientTransform="matrix(-0.1165 -0.9932 0.9896 -0.1473 -9.056926e-005 -4.753470e-005)">
			<stop  offset="0.0902" style="stop-color:#4C3B2A"/>
			<stop  offset="0.2588" style="stop-color:#625D38"/>
			<stop  offset="0.4353" style="stop-color:#747843"/>
			<stop  offset="0.6196" style="stop-color:#818B4B"/>
			<stop  offset="0.8039" style="stop-color:#899750"/>
			<stop  offset="1" style="stop-color:#8C9B51"/>
		</linearGradient>
		<path style="fill-rule:evenodd;clip-rule:evenodd;fill:url(#SVGID_4_);" d="M94.872,11.13c-3.397,3.785-6.848,8.203-10.352,13.256
			c-6.926,10.111-10.537,18.38-10.834,24.806c-0.636,3.149-0.478,7.941,0.474,14.378c1.3,9.075,2.009,14.506,2.125,16.292
			l-15.791,2.196c-1.876-19.583-0.243-34.553,4.9-44.908C70.363,27.22,80.189,18.546,94.872,11.13z"/>
	</g>
</g>
<g id="_x31_0">
	<g>
		<linearGradient id="SVGID_5_" gradientUnits="userSpaceOnUse" x1="105.8564" y1="79.9854" x2="115.235" y2="44.7937">
			<stop  offset="0.0902" style="stop-color:#4C3B2A"/>
			<stop  offset="0.2588" style="stop-color:#625D38"/>
			<stop  offset="0.4353" style="stop-color:#747843"/>
			<stop  offset="0.6196" style="stop-color:#818B4B"/>
			<stop  offset="0.8039" style="stop-color:#899750"/>
			<stop  offset="1" style="stop-color:#8C9B51"/>
		</linearGradient>
		<path style="fill-rule:evenodd;clip-rule:evenodd;fill:url(#SVGID_5_);" d="M125.85,47.55c-2.433,1.267-5,2.85-7.699,4.75
			c-5.434,3.834-8.801,7.351-10.101,10.55c-0.899,1.5-1.7,3.983-2.399,7.45c-0.934,4.934-1.534,7.851-1.801,8.75L95.3,77.1
			c2.533-10.366,6.066-17.683,10.601-21.949C110.267,51.017,116.917,48.483,125.85,47.55z"/>
	</g>
</g>
<g id="_x31_">
	<g>
		
			<linearGradient id="SVGID_6_" gradientUnits="userSpaceOnUse" x1="-79.2788" y1="35.1592" x2="-31.5307" y2="35.1592" gradientTransform="matrix(0.2566 -0.9665 0.9858 0.1838 3.013611e-004 1.437068e-004)">
			<stop  offset="0.0902" style="stop-color:#4C3B2A"/>
			<stop  offset="0.2588" style="stop-color:#625D38"/>
			<stop  offset="0.4353" style="stop-color:#747843"/>
			<stop  offset="0.6196" style="stop-color:#818B4B"/>
			<stop  offset="0.8039" style="stop-color:#899750"/>
			<stop  offset="1" style="stop-color:#8C9B51"/>
		</linearGradient>
		<path style="fill-rule:evenodd;clip-rule:evenodd;fill:url(#SVGID_6_);" d="M32.65,37.55c-1.767,3.067-3.566,6.684-5.4,10.85
			c-3.633,8.367-5.55,15.383-5.75,21.05c-0.133,4.066-0.183,7.233-0.15,9.5c0,0.967-0.317,3.066-0.95,6.3
			c-3.867-1.1-7.133-2-9.8-2.7c1.233-8.934,2.083-14.983,2.55-18.149c0.767-5,1.65-8.733,2.65-11.2c1.2-2.9,3.05-5.5,5.55-7.8
			C23.683,43.267,27.45,40.65,32.65,37.55z"/>
	</g>
</g>
<g id="_x38_">
	<g>
		<linearGradient id="SVGID_7_" gradientUnits="userSpaceOnUse" x1="99.6445" y1="89.0078" x2="82.4154" y2="25.1589">
			<stop  offset="0.0902" style="stop-color:#4C3B2A"/>
			<stop  offset="0.2588" style="stop-color:#625D38"/>
			<stop  offset="0.4353" style="stop-color:#747843"/>
			<stop  offset="0.6196" style="stop-color:#818B4B"/>
			<stop  offset="0.8039" style="stop-color:#899750"/>
			<stop  offset="1" style="stop-color:#8C9B51"/>
		</linearGradient>
		<path style="fill-rule:evenodd;clip-rule:evenodd;fill:url(#SVGID_7_);" d="M98.65,20.7c-2.067,3.966-4.067,8.566-6,13.8
			c-3.801,10.467-5.267,18.9-4.4,25.3c0.033,3.167,0.983,7.917,2.85,14.25C93.7,82.983,95.2,88.333,95.6,90.1l-12.25,3.15
			c-4.866-19.333-6.133-34.3-3.8-44.9C81.816,38.183,88.184,28.967,98.65,20.7z"/>
	</g>
</g>
<g id="_x32_">
	<g>
		
			<linearGradient id="SVGID_8_" gradientUnits="userSpaceOnUse" x1="-97.5811" y1="25.8936" x2="-50.1764" y2="25.8936" gradientTransform="matrix(-0.1382 -0.9904 0.9872 -0.1609 -2.288818e-004 8.533597e-004)">
			<stop  offset="0.0902" style="stop-color:#4C3B2A"/>
			<stop  offset="0.2588" style="stop-color:#625D38"/>
			<stop  offset="0.4353" style="stop-color:#747843"/>
			<stop  offset="0.6196" style="stop-color:#818B4B"/>
			<stop  offset="0.8039" style="stop-color:#899750"/>
			<stop  offset="1" style="stop-color:#8C9B51"/>
		</linearGradient>
		<path style="fill-rule:evenodd;clip-rule:evenodd;fill:url(#SVGID_8_);" d="M38.35,84.75c1.066,4.333,1.65,6.917,1.75,7.75
			c-7.633,0.267-12.5,0.533-14.6,0.8c-1.6-10.5-0.15-19.95,4.35-28.35c1.7-3.2,4.133-6.816,7.3-10.851
			c3.833-4.667,6.733-8.266,8.7-10.8l-4,11.3c-2.7,8.4-4.15,14.817-4.35,19.25C37.3,78.05,37.583,81.684,38.35,84.75z"/>
	</g>
</g>
<g id="_x34_">
	<g>
		<linearGradient id="SVGID_9_" gradientUnits="userSpaceOnUse" x1="59.123" y1="93.123" x2="47.8424" y2="31.4491">
			<stop  offset="0.0902" style="stop-color:#4C3B2A"/>
			<stop  offset="0.2588" style="stop-color:#625D38"/>
			<stop  offset="0.4353" style="stop-color:#747843"/>
			<stop  offset="0.6196" style="stop-color:#818B4B"/>
			<stop  offset="0.8039" style="stop-color:#899750"/>
			<stop  offset="1" style="stop-color:#8C9B51"/>
		</linearGradient>
		<path style="fill-rule:evenodd;clip-rule:evenodd;fill:url(#SVGID_9_);" d="M65.55,28.65c-1.566,4.333-3.166,9.267-4.8,14.8
			c-3.233,11-4.967,19.416-5.2,25.25C55.317,74.233,55.667,79,56.6,83c1.3,5.667,2,9.033,2.1,10.1c-9.2,0.334-15.067,0.7-17.6,1.101
			c-1.967-13.767-0.233-26.184,5.2-37.25c2.034-4.167,4.95-8.9,8.75-14.2C59.683,36.65,63.184,31.95,65.55,28.65z"/>
	</g>
</g>
<g id="_x37_">
	<g>
		<linearGradient id="SVGID_10_" gradientUnits="userSpaceOnUse" x1="71.0488" y1="96.6563" x2="62.4941" y2="41.3685">
			<stop  offset="0.0902" style="stop-color:#4C3B2A"/>
			<stop  offset="0.2588" style="stop-color:#625D38"/>
			<stop  offset="0.4353" style="stop-color:#747843"/>
			<stop  offset="0.6196" style="stop-color:#818B4B"/>
			<stop  offset="0.8039" style="stop-color:#899750"/>
			<stop  offset="1" style="stop-color:#8C9B51"/>
		</linearGradient>
		<path style="fill-rule:evenodd;clip-rule:evenodd;fill:url(#SVGID_10_);" d="M73.3,52.35c-2.899,9.733-4.467,17.183-4.7,22.35
			c-0.199,4.866,0.117,9.066,0.95,12.6c1.167,5.066,1.8,8.05,1.9,8.95c-8.233,0.3-13.467,0.616-15.7,0.95
			c-1.767-12.167-0.233-23.134,4.6-32.9c1.833-3.7,4.45-7.883,7.85-12.55c4.1-5.433,7.217-9.6,9.35-12.5
			C76.15,43.083,74.733,47.45,73.3,52.35z"/>
	</g>
</g>
</svg>
