<?xml version="1.0" encoding="iso-8859-1"?>
<!-- Generator: Adobe Illustrator 15.1.0, SVG Export Plug-In . SVG Version: 6.00 Build 0)  -->
<!DOCTYPE svg PUBLIC "-//W3C//DTD SVG 1.1//EN" "http://www.w3.org/Graphics/SVG/1.1/DTD/svg11.dtd">
<svg version="1.1" id="ground_generic_2" xmlns="http://www.w3.org/2000/svg" xmlns:xlink="http://www.w3.org/1999/xlink" x="0px"
	 y="0px" width="353.55px" height="84.35px" viewBox="0 0 353.55 84.35" style="enable-background:new 0 0 353.55 84.35;"
	 xml:space="preserve">
<symbol  id="FlashAICB_x2F_ground_generic_2_x2F__x3C_Group_x3E_" viewBox="0 -17.35 122.95 17.35">
	<g id="Layer_1_17_">
		<g>
			
				<use xlink:href="#FlashAICB_x2F_ground_generic_2_x2F__x3C_Path_x3E__x5F_13_x5F_0"  width="21.85" height="7.15" y="-7.15" transform="matrix(1 0 0 1 36 -4.2002)" style="overflow:visible;opacity:0.6992;enable-background:new    ;"/>
			<path style="fill-rule:evenodd;clip-rule:evenodd;fill:#55412D;" d="M68.55-2.4c0-0.667-0.667-1.233-2-1.7
				c-1.333-0.467-2.95-0.7-4.85-0.7c-1.9,0-3.517,0.233-4.85,0.7c-1.333,0.467-2,1.033-2,1.7c0,0.667,0.667,1.233,2,1.7
				C58.183-0.233,59.8,0,61.7,0c1.9,0,3.517-0.233,4.85-0.7C67.883-1.167,68.55-1.733,68.55-2.4z"/>
			<path style="fill-rule:evenodd;clip-rule:evenodd;fill:#55412D;" d="M67.25-8.5c0-0.3-0.3-0.55-0.9-0.75
				c-0.567-0.2-1.267-0.3-2.1-0.3s-1.533,0.1-2.1,0.3c-0.6,0.2-0.9,0.45-0.9,0.75c0,0.267,0.3,0.517,0.9,0.75
				c0.6,0.2,1.3,0.3,2.1,0.3c0.833,0,1.533-0.1,2.1-0.3C66.95-7.983,67.25-8.233,67.25-8.5z"/>
			<path style="fill-rule:evenodd;clip-rule:evenodd;fill:#55412D;" d="M80.55-14.5c0-0.767-1.05-1.433-3.15-2
				s-4.617-0.85-7.55-0.85c-2.967,0-5.5,0.283-7.6,0.85s-3.15,1.233-3.15,2s1.05,1.433,3.15,2s4.633,0.85,7.6,0.85
				c2.933,0,5.45-0.283,7.55-0.85S80.55-13.733,80.55-14.5z"/>
			
				<use xlink:href="#FlashAICB_x2F_ground_generic_2_x2F__x3C_Path_x3E__x5F_9_x5F_0"  width="15.45" height="4.8" y="-4.8" transform="matrix(1 0 0 1 79.25 -7.4502)" style="overflow:visible;opacity:0.6992;enable-background:new    ;"/>
			<path style="fill-rule:evenodd;clip-rule:evenodd;fill:#55412D;" d="M104.95-4.8c0-0.467-0.6-0.883-1.8-1.25
				c-1.233-0.333-2.7-0.5-4.4-0.5s-3.167,0.167-4.4,0.5c-1.2,0.367-1.8,0.783-1.8,1.25c0,0.5,0.6,0.917,1.8,1.25
				C95.55-3.183,97.017-3,98.75-3s3.2-0.183,4.4-0.55C104.35-3.883,104.95-4.3,104.95-4.8z"/>
			<path style="fill-rule:evenodd;clip-rule:evenodd;fill:#55412D;" d="M101.1-8.95c0-0.267-0.233-0.483-0.7-0.65
				c-0.433-0.167-0.983-0.25-1.65-0.25c-0.633,0-1.183,0.083-1.65,0.25c-0.467,0.167-0.7,0.383-0.7,0.65
				c0,0.233,0.233,0.45,0.7,0.65c0.467,0.167,1.017,0.25,1.65,0.25c0.667,0,1.217-0.083,1.65-0.25
				C100.867-8.5,101.1-8.717,101.1-8.95z"/>
			
				<use xlink:href="#FlashAICB_x2F_ground_generic_2_x2F__x3C_Path_x3E__x5F_6_x5F_0"  width="5.6" height="1.8" y="-1.8" transform="matrix(1 0 0 1 82.25 -0.2998)" style="overflow:visible;opacity:0.5;enable-background:new    ;"/>
			
				<use xlink:href="#FlashAICB_x2F_ground_generic_2_x2F__x3C_Path_x3E__x5F_5_x5F_0"  width="6.85" height="1.8" y="-1.8" transform="matrix(1 0 0 1 116.1001 -3.8999)" style="overflow:visible;opacity:0.5;enable-background:new    ;"/>
			
				<use xlink:href="#FlashAICB_x2F_ground_generic_2_x2F__x3C_Path_x3E__x5F_4_x5F_0"  width="10.7" height="3.3" y="-3.3" transform="matrix(1 0 0 1 22.7002 -12.8501)" style="overflow:visible;opacity:0.5;enable-background:new    ;"/>
			<path style="fill-rule:evenodd;clip-rule:evenodd;fill:#55412D;" d="M34.7-9.55c0-0.267-0.267-0.483-0.8-0.65
				c-0.566-0.167-1.233-0.25-2-0.25s-1.433,0.083-2,0.25c-0.533,0.167-0.8,0.383-0.8,0.65c0,0.233,0.267,0.45,0.8,0.65
				c0.567,0.167,1.233,0.25,2,0.25s1.434-0.083,2-0.25C34.433-9.1,34.7-9.317,34.7-9.55z"/>
			<path style="fill-rule:evenodd;clip-rule:evenodd;fill:#55412D;" d="M5.55-14.5c0-0.3-0.267-0.55-0.8-0.75
				c-0.567-0.2-1.233-0.3-2-0.3s-1.417,0.1-1.95,0.3C0.267-15.05,0-14.8,0-14.5s0.267,0.55,0.8,0.75c0.534,0.2,1.184,0.3,1.95,0.3
				s1.433-0.1,2-0.3C5.283-13.95,5.55-14.2,5.55-14.5z"/>
			
				<use xlink:href="#FlashAICB_x2F_ground_generic_2_x2F__x3C_Path_x3E__x5F_1_x5F_0"  width="12.85" height="3.9" y="-3.9" transform="matrix(1 0 0 1 5.1499 -8.0498)" style="overflow:visible;opacity:0.6992;enable-background:new    ;"/>
			
				<use xlink:href="#FlashAICB_x2F_ground_generic_2_x2F__x3C_Path_x3E__x5F_0"  width="5.55" height="1.95" y="-1.95" transform="matrix(1 0 0 1 104.5498 -6.9502)" style="overflow:visible;opacity:0.6992;enable-background:new    ;"/>
		</g>
	</g>
</symbol>
<symbol  id="FlashAICB_x2F_ground_generic_2_x2F__x3C_Group_x3E__x5F_1" viewBox="0 -17.35 122.95 17.35">
	<g id="Layer_1_16_">
		<g>
			
				<use xlink:href="#FlashAICB_x2F_ground_generic_2_x2F__x3C_Path_x3E__x5F_13"  width="21.9" height="7.15" y="-7.15" transform="matrix(1 0 0 1 35.9502 -4.2002)" style="overflow:visible;opacity:0.6992;enable-background:new    ;"/>
			<path style="fill-rule:evenodd;clip-rule:evenodd;fill:#55412D;" d="M68.55-2.4c0-0.667-0.667-1.233-2-1.7
				c-1.367-0.467-2.983-0.7-4.85-0.7c-1.9,0-3.517,0.233-4.85,0.7c-1.333,0.467-2,1.033-2,1.7c0,0.667,0.667,1.233,2,1.7
				C58.183-0.233,59.8,0,61.7,0c1.9,0,3.517-0.233,4.85-0.7C67.883-1.167,68.55-1.733,68.55-2.4z"/>
			<path style="fill-rule:evenodd;clip-rule:evenodd;fill:#55412D;" d="M67.25-8.5c0-0.3-0.3-0.55-0.9-0.75
				c-0.567-0.2-1.267-0.3-2.1-0.3s-1.533,0.1-2.1,0.3c-0.6,0.2-0.9,0.45-0.9,0.75c0,0.267,0.3,0.517,0.9,0.75
				c0.6,0.2,1.3,0.3,2.1,0.3c0.833,0,1.533-0.1,2.1-0.3C66.95-7.983,67.25-8.233,67.25-8.5z"/>
			<path style="fill-rule:evenodd;clip-rule:evenodd;fill:#55412D;" d="M80.55-14.5c0-0.767-1.05-1.433-3.15-2s-4.633-0.85-7.6-0.85
				c-2.933,0-5.45,0.283-7.55,0.85s-3.15,1.233-3.15,2s1.05,1.433,3.15,2s4.617,0.85,7.55,0.85c2.967,0,5.5-0.283,7.6-0.85
				S80.55-13.733,80.55-14.5z"/>
			
				<use xlink:href="#FlashAICB_x2F_ground_generic_2_x2F__x3C_Path_x3E__x5F_9"  width="15.4" height="4.8" y="-4.8" transform="matrix(1 0 0 1 79.25 -7.4502)" style="overflow:visible;opacity:0.6992;enable-background:new    ;"/>
			<path style="fill-rule:evenodd;clip-rule:evenodd;fill:#55412D;" d="M104.95-4.8c0-0.467-0.6-0.883-1.8-1.25
				c-1.233-0.333-2.7-0.5-4.4-0.5s-3.167,0.167-4.4,0.5c-1.2,0.367-1.8,0.783-1.8,1.25c0,0.5,0.6,0.917,1.8,1.25
				C95.55-3.183,97.017-3,98.75-3s3.2-0.183,4.4-0.55C104.35-3.883,104.95-4.3,104.95-4.8z"/>
			<path style="fill-rule:evenodd;clip-rule:evenodd;fill:#55412D;" d="M101.1-8.95c0-0.267-0.233-0.483-0.7-0.65
				c-0.433-0.167-0.983-0.25-1.65-0.25c-0.633,0-1.183,0.083-1.65,0.25c-0.467,0.167-0.7,0.383-0.7,0.65
				c0,0.233,0.233,0.45,0.7,0.65c0.467,0.167,1.017,0.25,1.65,0.25c0.667,0,1.217-0.083,1.65-0.25
				C100.867-8.5,101.1-8.717,101.1-8.95z"/>
			
				<use xlink:href="#FlashAICB_x2F_ground_generic_2_x2F__x3C_Path_x3E__x5F_6"  width="5.55" height="1.8" y="-1.8" transform="matrix(1 0 0 1 82.25 -0.2998)" style="overflow:visible;opacity:0.5;enable-background:new    ;"/>
			
				<use xlink:href="#FlashAICB_x2F_ground_generic_2_x2F__x3C_Path_x3E__x5F_5"  width="6.85" height="1.8" y="-1.8" transform="matrix(1 0 0 1 116.1001 -3.8999)" style="overflow:visible;opacity:0.5;enable-background:new    ;"/>
			
				<use xlink:href="#FlashAICB_x2F_ground_generic_2_x2F__x3C_Path_x3E__x5F_4"  width="10.7" height="3.3" y="-3.3" transform="matrix(1 0 0 1 22.7002 -12.8501)" style="overflow:visible;opacity:0.5;enable-background:new    ;"/>
			<path style="fill-rule:evenodd;clip-rule:evenodd;fill:#55412D;" d="M34.7-9.55c0-0.267-0.267-0.483-0.8-0.65
				c-0.566-0.167-1.233-0.25-2-0.25s-1.433,0.083-2,0.25c-0.533,0.167-0.8,0.383-0.8,0.65c0,0.233,0.267,0.45,0.8,0.65
				c0.567,0.167,1.233,0.25,2,0.25s1.434-0.083,2-0.25C34.433-9.1,34.7-9.317,34.7-9.55z"/>
			<path style="fill-rule:evenodd;clip-rule:evenodd;fill:#55412D;" d="M5.55-14.5c0-0.3-0.267-0.55-0.8-0.75
				c-0.567-0.2-1.233-0.3-2-0.3s-1.417,0.1-1.95,0.3C0.267-15.05,0-14.8,0-14.5s0.267,0.55,0.8,0.75c0.534,0.2,1.184,0.3,1.95,0.3
				s1.433-0.1,2-0.3C5.283-13.95,5.55-14.2,5.55-14.5z"/>
			
				<use xlink:href="#FlashAICB_x2F_ground_generic_2_x2F__x3C_Path_x3E__x5F_1"  width="12.85" height="3.9" y="-3.9" transform="matrix(1 0 0 1 5.1001 -8.0498)" style="overflow:visible;opacity:0.6992;enable-background:new    ;"/>
			
				<use xlink:href="#FlashAICB_x2F_ground_generic_2_x2F__x3C_Path_x3E_"  width="5.55" height="1.95" y="-1.95" transform="matrix(1 0 0 1 104.5498 -6.9502)" style="overflow:visible;opacity:0.6992;enable-background:new    ;"/>
		</g>
	</g>
</symbol>
<symbol  id="FlashAICB_x2F_ground_generic_2_x2F__x3C_Path_x3E_" viewBox="0 -1.95 5.55 1.95">
	<g id="Layer_1_8_">
		<path style="fill-rule:evenodd;clip-rule:evenodd;fill:#55412D;" d="M5.55-0.95c0-0.267-0.267-0.5-0.8-0.7
			c-0.567-0.2-1.233-0.3-2-0.3s-1.417,0.1-1.95,0.3C0.267-1.45,0-1.217,0-0.95C0-0.683,0.267-0.467,0.8-0.3
			C1.367-0.1,2.017,0,2.75,0c0.767,0,1.433-0.1,2-0.3C5.283-0.467,5.55-0.683,5.55-0.95z"/>
	</g>
</symbol>
<symbol  id="FlashAICB_x2F_ground_generic_2_x2F__x3C_Path_x3E__x5F_0" viewBox="0 -1.95 5.55 1.95">
	<g id="Layer_1_15_">
		<path style="fill-rule:evenodd;clip-rule:evenodd;fill:#55412D;" d="M5.55-0.95c0-0.267-0.267-0.5-0.8-0.7
			c-0.567-0.2-1.233-0.3-2-0.3s-1.417,0.1-1.95,0.3C0.267-1.45,0-1.217,0-0.95C0-0.683,0.267-0.467,0.8-0.3
			C1.367-0.1,2.017,0,2.75,0c0.767,0,1.433-0.1,2-0.3C5.283-0.467,5.55-0.683,5.55-0.95z"/>
	</g>
</symbol>
<symbol  id="FlashAICB_x2F_ground_generic_2_x2F__x3C_Path_x3E__x5F_1" viewBox="0 -3.9 12.85 3.9">
	<g id="Layer_1_7_">
		<path style="fill-rule:evenodd;clip-rule:evenodd;fill:#55412D;" d="M12.85-1.95c0-0.533-0.617-1-1.85-1.4
			C9.733-3.717,8.217-3.9,6.45-3.9c-1.8,0-3.317,0.183-4.55,0.55C0.633-2.95,0-2.483,0-1.95C0-1.417,0.633-0.967,1.9-0.6
			C3.167-0.2,4.683,0,6.45,0C8.217,0,9.733-0.2,11-0.6C12.233-0.967,12.85-1.417,12.85-1.95z"/>
	</g>
</symbol>
<symbol  id="FlashAICB_x2F_ground_generic_2_x2F__x3C_Path_x3E__x5F_13" viewBox="0 -7.15 21.9 7.15">
	<g id="Layer_1_2_">
		<path style="fill-rule:evenodd;clip-rule:evenodd;fill:#55412D;" d="M21.9-3.55c0-1-1.066-1.85-3.2-2.55
			c-2.133-0.7-4.717-1.05-7.75-1.05C7.917-7.15,5.333-6.8,3.2-6.1C1.067-5.4,0-4.55,0-3.55c0,0.966,1.067,1.8,3.2,2.5
			C5.333-0.35,7.917,0,10.95,0c3.033,0,5.617-0.35,7.75-1.05C20.833-1.75,21.9-2.583,21.9-3.55z"/>
	</g>
</symbol>
<symbol  id="FlashAICB_x2F_ground_generic_2_x2F__x3C_Path_x3E__x5F_13_x5F_0" viewBox="0 -7.15 21.85 7.15">
	<g id="Layer_1_9_">
		<path style="fill-rule:evenodd;clip-rule:evenodd;fill:#55412D;" d="M21.85-3.55c0-1-1.067-1.85-3.2-2.55
			c-2.133-0.7-4.717-1.05-7.75-1.05S5.3-6.8,3.2-6.1C1.067-5.4,0-4.55,0-3.55c0,0.966,1.067,1.8,3.2,2.5C5.3-0.35,7.867,0,10.9,0
			s5.617-0.35,7.75-1.05C20.783-1.75,21.85-2.583,21.85-3.55z"/>
	</g>
</symbol>
<symbol  id="FlashAICB_x2F_ground_generic_2_x2F__x3C_Path_x3E__x5F_1_x5F_0" viewBox="0 -3.9 12.85 3.9">
	<g id="Layer_1_14_">
		<path style="fill-rule:evenodd;clip-rule:evenodd;fill:#55412D;" d="M12.85-1.95c0-0.533-0.633-1-1.9-1.4
			C9.717-3.717,8.2-3.9,6.4-3.9c-1.767,0-3.283,0.183-4.55,0.55C0.617-2.95,0-2.483,0-1.95C0-1.417,0.617-0.967,1.85-0.6
			C3.117-0.2,4.633,0,6.4,0s3.283-0.2,4.55-0.6C12.217-0.967,12.85-1.417,12.85-1.95z"/>
	</g>
</symbol>
<symbol  id="FlashAICB_x2F_ground_generic_2_x2F__x3C_Path_x3E__x5F_4" viewBox="0 -3.3 10.7 3.3">
	<g id="Layer_1_6_">
		<path style="fill-rule:evenodd;clip-rule:evenodd;fill:#55412D;" d="M10.7-1.65c0-0.467-0.517-0.85-1.55-1.15
			c-1.066-0.333-2.333-0.5-3.8-0.5s-2.733,0.167-3.8,0.5C0.517-2.5,0-2.117,0-1.65S0.517-0.8,1.55-0.5C2.617-0.167,3.883,0,5.35,0
			s2.733-0.167,3.8-0.5C10.183-0.8,10.7-1.183,10.7-1.65z"/>
	</g>
</symbol>
<symbol  id="FlashAICB_x2F_ground_generic_2_x2F__x3C_Path_x3E__x5F_4_x5F_0" viewBox="0 -3.3 10.7 3.3">
	<g id="Layer_1_13_">
		<path style="fill-rule:evenodd;clip-rule:evenodd;fill:#55412D;" d="M10.7-1.65c0-0.467-0.517-0.85-1.55-1.15
			c-1.066-0.333-2.333-0.5-3.8-0.5s-2.733,0.167-3.8,0.5C0.517-2.5,0-2.117,0-1.65S0.517-0.8,1.55-0.5C2.617-0.167,3.883,0,5.35,0
			s2.733-0.167,3.8-0.5C10.183-0.8,10.7-1.183,10.7-1.65z"/>
	</g>
</symbol>
<symbol  id="FlashAICB_x2F_ground_generic_2_x2F__x3C_Path_x3E__x5F_5" viewBox="0 -1.8 6.85 1.8">
	<g id="Layer_1_5_">
		<path style="fill-rule:evenodd;clip-rule:evenodd;fill:#55412D;" d="M6.85-0.9c0-0.233-0.333-0.45-1-0.65
			C5.183-1.717,4.383-1.8,3.45-1.8C2.483-1.8,1.667-1.717,1-1.55C0.333-1.383,0-1.167,0-0.9c0,0.233,0.333,0.45,1,0.65
			C1.667-0.083,2.483,0,3.45,0c0.933,0,1.733-0.083,2.4-0.25C6.517-0.45,6.85-0.667,6.85-0.9z"/>
	</g>
</symbol>
<symbol  id="FlashAICB_x2F_ground_generic_2_x2F__x3C_Path_x3E__x5F_5_x5F_0" viewBox="0 -1.8 6.85 1.8">
	<g id="Layer_1_12_">
		<path style="fill-rule:evenodd;clip-rule:evenodd;fill:#55412D;" d="M6.85-0.9c0-0.267-0.333-0.483-1-0.65
			C5.183-1.717,4.383-1.8,3.45-1.8C2.483-1.8,1.667-1.717,1-1.55C0.333-1.383,0-1.167,0-0.9c0,0.233,0.333,0.45,1,0.65
			C1.667-0.083,2.483,0,3.45,0c0.933,0,1.733-0.083,2.4-0.25C6.517-0.45,6.85-0.667,6.85-0.9z"/>
	</g>
</symbol>
<symbol  id="FlashAICB_x2F_ground_generic_2_x2F__x3C_Path_x3E__x5F_6" viewBox="0 -1.8 5.55 1.8">
	<g id="Layer_1_4_">
		<path style="fill-rule:evenodd;clip-rule:evenodd;fill:#55412D;" d="M5.55-0.9c0-0.267-0.267-0.483-0.8-0.65
			C4.217-1.717,3.567-1.8,2.8-1.8c-0.767,0-1.433,0.083-2,0.25C0.267-1.383,0-1.167,0-0.9c0,0.233,0.267,0.45,0.8,0.65
			C1.367-0.083,2.033,0,2.8,0c0.767,0,1.417-0.083,1.95-0.25C5.283-0.45,5.55-0.667,5.55-0.9z"/>
	</g>
</symbol>
<symbol  id="FlashAICB_x2F_ground_generic_2_x2F__x3C_Path_x3E__x5F_6_x5F_0" viewBox="0 -1.8 5.6 1.8">
	<g id="Layer_1_11_">
		<path style="fill-rule:evenodd;clip-rule:evenodd;fill:#55412D;" d="M5.6-0.9c0-0.267-0.267-0.483-0.8-0.65
			C4.233-1.717,3.567-1.8,2.8-1.8c-0.767,0-1.433,0.083-2,0.25C0.267-1.383,0-1.167,0-0.9c0,0.233,0.267,0.45,0.8,0.65
			C1.367-0.083,2.033,0,2.8,0c0.767,0,1.434-0.083,2-0.25C5.333-0.45,5.6-0.667,5.6-0.9z"/>
	</g>
</symbol>
<symbol  id="FlashAICB_x2F_ground_generic_2_x2F__x3C_Path_x3E__x5F_9" viewBox="0 -4.8 15.4 4.8">
	<g id="Layer_1_3_">
		<path style="fill-rule:evenodd;clip-rule:evenodd;fill:#55412D;" d="M15.4-2.4c0-0.667-0.75-1.233-2.25-1.7S9.833-4.8,7.7-4.8
			S3.75-4.567,2.25-4.1S0-3.067,0-2.4c0,0.667,0.75,1.233,2.25,1.7C3.783-0.233,5.6,0,7.7,0c2.133,0,3.95-0.233,5.45-0.7
			C14.65-1.167,15.4-1.733,15.4-2.4z"/>
	</g>
</symbol>
<symbol  id="FlashAICB_x2F_ground_generic_2_x2F__x3C_Path_x3E__x5F_9_x5F_0" viewBox="0 -4.8 15.45 4.8">
	<g id="Layer_1_10_">
		<path style="fill-rule:evenodd;clip-rule:evenodd;fill:#55412D;" d="M15.45-2.4c0-0.667-0.75-1.233-2.25-1.7S9.867-4.8,7.7-4.8
			c-2.133,0-3.95,0.233-5.45,0.7S0-3.067,0-2.4c0,0.667,0.75,1.233,2.25,1.7C3.783-0.233,5.6,0,7.7,0c2.133,0,3.966-0.233,5.5-0.7
			C14.7-1.167,15.45-1.733,15.45-2.4z"/>
	</g>
</symbol>
<path style="fill-rule:evenodd;clip-rule:evenodd;fill:#4C3B2A;" d="M341.7,33.85c7.8,5.833,11.75,10.05,11.85,12.65
	c0.267,6.467-2.3,11.833-7.7,16.1c-5.566,4.434-14.6,8.051-27.1,10.851C295.583,78.65,253.167,82,191.5,83.5
	c-76.9,1.866-129.433,0.6-157.6-3.8c-12.967-2.033-22.117-4.867-27.45-8.5C1.883,68.066-0.25,64,0.05,59
	c0.333-5.733,2.667-11.85,7-18.35c4.167-6.233,9.6-12,16.3-17.3c6.867-5.434,14.066-9.55,21.6-12.35
	c8.1-3.067,15.683-4.233,22.75-3.5c5.9,0.6,13.767,2.067,23.6,4.4c5.6,1.3,14.467,3.383,26.6,6.25
	c23.167,4.967,43.317,6.25,60.45,3.85c16.233-2.267,28.334-4.933,36.301-8c2.5-0.967,6.966-2.717,13.399-5.25
	c6.9-2.5,15.167-5.083,24.8-7.75c6.733-1.867,16.017-1.117,27.851,2.25c10.166,2.933,21.217,7.467,33.149,13.6
	C324.65,22.383,333.934,28.05,341.7,33.85z"/>
<use xlink:href="#FlashAICB_x2F_ground_generic_2_x2F__x3C_Group_x3E__x5F_1"  width="122.95" height="17.35" y="-17.35" transform="matrix(1 0 0 -1 202.9502 34)" style="overflow:visible;opacity:0.3008;enable-background:new    ;"/>
<use xlink:href="#FlashAICB_x2F_ground_generic_2_x2F__x3C_Group_x3E_"  width="122.95" height="17.35" y="-17.35" transform="matrix(1 0 0 -1 17.7998 26.5)" style="overflow:visible;opacity:0.3008;enable-background:new    ;"/>
</svg>
