<?xml version="1.0" encoding="iso-8859-1"?>
<!-- Generator: Adobe Illustrator 15.1.0, SVG Export Plug-In . SVG Version: 6.00 Build 0)  -->
<!DOCTYPE svg PUBLIC "-//W3C//DTD SVG 1.1//EN" "http://www.w3.org/Graphics/SVG/1.1/DTD/svg11.dtd">
<svg version="1.1" id="ground_generic_3" xmlns="http://www.w3.org/2000/svg" xmlns:xlink="http://www.w3.org/1999/xlink" x="0px"
	 y="0px" width="703.5px" height="114.25px" viewBox="0 0 703.5 114.25" style="enable-background:new 0 0 703.5 114.25;"
	 xml:space="preserve">
<symbol  id="FlashAICB_x2F_ground_generic_3_x2F__x3C_Group_x3E_" viewBox="0 -29.7 314.25 29.7">
	<g id="Layer_1_25_">
		<g>
			
				<use xlink:href="#FlashAICB_x2F_ground_generic_3_x2F__x3C_Path_x3E__x5F_13_x5F_1"  width="55.85" height="12.3" y="-12.3" transform="matrix(1 0 0 1 91.9502 -7.1499)" style="overflow:visible;opacity:0.6992;enable-background:new    ;"/>
			<path style="fill-rule:evenodd;clip-rule:evenodd;fill:#55412D;" d="M175.15-4.1c0-1.133-1.7-2.1-5.1-2.9
				c-3.433-0.8-7.566-1.2-12.4-1.2c-4.833,0-8.95,0.4-12.35,1.2c-3.433,0.8-5.15,1.767-5.15,2.9s1.717,2.1,5.15,2.9
				c3.4,0.8,7.517,1.2,12.35,1.2c4.833,0,8.967-0.4,12.4-1.2C173.45-2,175.15-2.967,175.15-4.1z"/>
			<path style="fill-rule:evenodd;clip-rule:evenodd;fill:#55412D;" d="M171.9-14.6c0-0.5-0.75-0.933-2.25-1.3
				c-1.5-0.333-3.316-0.5-5.45-0.5c-2.1,0-3.9,0.167-5.4,0.5c-1.5,0.367-2.25,0.8-2.25,1.3s0.75,0.917,2.25,1.25
				c1.5,0.367,3.3,0.55,5.4,0.55c2.133,0,3.95-0.184,5.45-0.55C171.15-13.683,171.9-14.1,171.9-14.6z"/>
			<path style="fill-rule:evenodd;clip-rule:evenodd;fill:#55412D;" d="M197.85-21.4c5.333-0.934,8-2.083,8-3.45
				c0-1.333-2.667-2.467-8-3.4c-5.367-0.967-11.833-1.45-19.4-1.45c-7.534,0-13.983,0.483-19.35,1.45c-5.333,0.933-8,2.067-8,3.4
				c0,1.333,2.667,2.483,8,3.45c5.367,0.967,11.816,1.45,19.35,1.45C186.017-19.95,192.483-20.433,197.85-21.4z"/>
			
				<use xlink:href="#FlashAICB_x2F_ground_generic_3_x2F__x3C_Path_x3E__x5F_9_x5F_1"  width="39.4" height="8.2" y="-8.2" transform="matrix(1 0 0 1 202.5498 -12.7998)" style="overflow:visible;opacity:0.6992;enable-background:new    ;"/>
			<path style="fill-rule:evenodd;clip-rule:evenodd;fill:#55412D;" d="M268.25-8.2c0-0.833-1.55-1.55-4.65-2.15
				c-3.067-0.6-6.8-0.9-11.2-0.9s-8.15,0.3-11.25,0.9s-4.65,1.317-4.65,2.15c0,0.867,1.55,1.6,4.65,2.2S248-5.1,252.4-5.1
				c4.367,0,8.1-0.3,11.2-0.9S268.25-7.333,268.25-8.2z"/>
			<path style="fill-rule:evenodd;clip-rule:evenodd;fill:#55412D;" d="M258.4-15.35c0-0.433-0.583-0.8-1.75-1.1
				c-1.2-0.3-2.617-0.45-4.25-0.45c-1.667,0-3.1,0.15-4.3,0.45c-1.167,0.3-1.75,0.667-1.75,1.1c0,0.434,0.583,0.8,1.75,1.1
				c1.2,0.3,2.633,0.45,4.3,0.45c1.633,0,3.05-0.15,4.25-0.45C257.817-14.55,258.4-14.917,258.4-15.35z"/>
			
				<use xlink:href="#FlashAICB_x2F_ground_generic_3_x2F__x3C_Path_x3E__x5F_6_x5F_1"  width="14.25" height="3.1" y="-3.1" transform="matrix(1 0 0 1 210.2002 -0.5)" style="overflow:visible;opacity:0.5;enable-background:new    ;"/>
			
				<use xlink:href="#FlashAICB_x2F_ground_generic_3_x2F__x3C_Path_x3E__x5F_5_x5F_1"  width="17.55" height="3.05" y="-3.05" transform="matrix(1 0 0 1 296.7002 -6.6499)" style="overflow:visible;opacity:0.5;enable-background:new    ;"/>
			
				<use xlink:href="#FlashAICB_x2F_ground_generic_3_x2F__x3C_Path_x3E__x5F_4_x5F_1"  width="27.4" height="5.65" y="-5.65" transform="matrix(1 0 0 1 58 -22)" style="overflow:visible;opacity:0.5;enable-background:new    ;"/>
			<path style="fill-rule:evenodd;clip-rule:evenodd;fill:#55412D;" d="M88.65-16.4c0-0.434-0.683-0.783-2.05-1.05
				c-1.367-0.3-3.05-0.45-5.05-0.45c-1.966,0-3.65,0.15-5.05,0.45c-1.367,0.267-2.05,0.617-2.05,1.05c0,0.433,0.683,0.8,2.05,1.1
				c1.4,0.3,3.083,0.45,5.05,0.45c1.967,0,3.65-0.15,5.05-0.45C87.967-15.6,88.65-15.967,88.65-16.4z"/>
			<path style="fill-rule:evenodd;clip-rule:evenodd;fill:#55412D;" d="M14.2-24.85c0-0.467-0.7-0.883-2.1-1.25
				c-1.4-0.333-3.067-0.5-5-0.5c-1.967,0-3.65,0.167-5.05,0.5C0.683-25.733,0-25.317,0-24.85c0,0.5,0.683,0.917,2.05,1.25
				c1.4,0.367,3.083,0.55,5.05,0.55s3.633-0.184,5-0.55C13.5-23.933,14.2-24.35,14.2-24.85z"/>
			
				<use xlink:href="#FlashAICB_x2F_ground_generic_3_x2F__x3C_Path_x3E__x5F_1_x5F_1"  width="32.85" height="6.7" y="-6.7" transform="matrix(1 0 0 1 13.1001 -13.7998)" style="overflow:visible;opacity:0.6992;enable-background:new    ;"/>
			
				<use xlink:href="#FlashAICB_x2F_ground_generic_3_x2F__x3C_Path_x3E__x5F_2"  width="14.25" height="3.35" y="-3.35" transform="matrix(1 0 0 1 267.1499 -11.8999)" style="overflow:visible;opacity:0.6992;enable-background:new    ;"/>
		</g>
	</g>
</symbol>
<symbol  id="FlashAICB_x2F_ground_generic_3_x2F__x3C_Group_x3E__x5F_1" viewBox="0 -29.2 355.4 29.2">
	<g id="Layer_1_24_">
		<g>
			
				<use xlink:href="#FlashAICB_x2F_ground_generic_3_x2F__x3C_Path_x3E__x5F_13_x5F_0"  width="35.65" height="11.85" y="-11.85" transform="matrix(1 0 0 1 106.1001 -10.8999)" style="overflow:visible;opacity:0.6992;enable-background:new    ;"/>
			<path style="fill-rule:evenodd;clip-rule:evenodd;fill:#55412D;" d="M292.65-12.75c0,1.1,1.1,2.033,3.3,2.8
				c2.167,0.8,4.8,1.2,7.9,1.2c3.066,0,5.7-0.4,7.9-1.2c2.167-0.767,3.25-1.7,3.25-2.8c0-1.067-1.083-2-3.25-2.8
				c-2.2-0.767-4.833-1.15-7.9-1.15c-3.1,0-5.733,0.383-7.9,1.15C293.75-14.75,292.65-13.817,292.65-12.75z"/>
			<path style="fill-rule:evenodd;clip-rule:evenodd;fill:#55412D;" d="M90.75-15.6c0,0.467,0.483,0.883,1.45,1.25
				c0.966,0.333,2.117,0.5,3.45,0.5c1.333,0,2.483-0.167,3.45-0.5c0.967-0.367,1.45-0.783,1.45-1.25s-0.483-0.867-1.45-1.2
				c-0.934-0.333-2.083-0.5-3.45-0.5s-2.517,0.167-3.45,0.5C91.233-16.467,90.75-16.067,90.75-15.6z"/>
			<path style="fill-rule:evenodd;clip-rule:evenodd;fill:#55412D;" d="M86.55-10.4c-4.8,0-8.9,0.45-12.3,1.35
				C70.817-8.117,69.1-7,69.1-5.7c0,1.3,1.717,2.4,5.15,3.3c3.4,0.933,7.5,1.4,12.3,1.4c4.833,0,8.95-0.467,12.35-1.4
				c3.434-0.9,5.15-2,5.15-3.3c0-1.3-1.716-2.417-5.15-3.35C95.5-9.95,91.383-10.4,86.55-10.4z"/>
			
				<use xlink:href="#FlashAICB_x2F_ground_generic_3_x2F__x3C_Path_x3E__x5F_9_x5F_0"  width="25.1" height="7.9" y="-7.9" transform="matrix(1 0 0 1 46.1001 -9.3999)" style="overflow:visible;opacity:0.6992;enable-background:new    ;"/>
			<path style="fill-rule:evenodd;clip-rule:evenodd;fill:#55412D;" d="M287-23.85c-1.967-0.6-4.35-0.9-7.15-0.9
				c-2.8,0-5.184,0.3-7.15,0.9c-2,0.567-3,1.267-3,2.1c0,0.8,1,1.483,3,2.05c1.966,0.6,4.35,0.9,7.15,0.9c2.8,0,5.183-0.3,7.15-0.9
				c1.967-0.566,2.95-1.25,2.95-2.05C289.95-22.583,288.967-23.283,287-23.85z"/>
			<path style="fill-rule:evenodd;clip-rule:evenodd;fill:#55412D;" d="M42.15-15.9c-0.767-0.3-1.667-0.45-2.7-0.45
				c-1.034,0-1.934,0.15-2.7,0.45c-0.767,0.3-1.15,0.65-1.15,1.05s0.383,0.75,1.15,1.05c0.767,0.3,1.667,0.45,2.7,0.45
				c1.033,0,1.933-0.15,2.7-0.45c0.767-0.3,1.15-0.65,1.15-1.05S42.917-15.6,42.15-15.9z"/>
			
				<use xlink:href="#FlashAICB_x2F_ground_generic_3_x2F__x3C_Path_x3E__x5F_6_x5F_0"  width="9.1" height="2.95" y="-2.95" transform="matrix(1 0 0 1 57.25 -26.25)" style="overflow:visible;opacity:0.5;enable-background:new    ;"/>
			
				<use xlink:href="#FlashAICB_x2F_ground_generic_3_x2F__x3C_Path_x3E__x5F_5_x5F_0"  width="11.15" height="2.95" y="-2.95" transform="matrix(1 0 0 1 0 -20.2998)" style="overflow:visible;opacity:0.5;enable-background:new    ;"/>
			
				<use xlink:href="#FlashAICB_x2F_ground_generic_3_x2F__x3C_Path_x3E__x5F_4_x5F_0"  width="17.45" height="5.45" y="-5.45" transform="matrix(1 0 0 1 112.1001 0)" style="overflow:visible;opacity:0.5;enable-background:new    ;"/>
			<path style="fill-rule:evenodd;clip-rule:evenodd;fill:#55412D;" d="M346.3-15.25c0,0.4,0.45,0.75,1.35,1.05
				c0.9,0.3,1.967,0.45,3.2,0.45s2.3-0.15,3.2-0.45c0.9-0.3,1.35-0.65,1.35-1.05s-0.45-0.75-1.35-1.05c-0.9-0.3-1.966-0.45-3.2-0.45
				s-2.3,0.15-3.2,0.45C346.75-16,346.3-15.65,346.3-15.25z"/>
			<path style="fill-rule:evenodd;clip-rule:evenodd;fill:#55412D;" d="M314.3-22c0,0.467,0.45,0.883,1.35,1.25
				c0.9,0.333,1.967,0.5,3.2,0.5s2.3-0.167,3.2-0.5c0.9-0.367,1.35-0.783,1.35-1.25s-0.45-0.883-1.35-1.25
				c-0.9-0.333-1.966-0.5-3.2-0.5s-2.3,0.167-3.2,0.5C314.75-22.883,314.3-22.467,314.3-22z"/>
			
				<use xlink:href="#FlashAICB_x2F_ground_generic_3_x2F__x3C_Path_x3E__x5F_1_x5F_0"  width="20.95" height="6.45" y="-6.45" transform="matrix(1 0 0 1 320.3501 -11.2998)" style="overflow:visible;opacity:0.6992;enable-background:new    ;"/>
			
				<use xlink:href="#FlashAICB_x2F_ground_generic_3_x2F__x3C_Path_x3E__x5F_0"  width="9.05" height="3.25" y="-3.25" transform="matrix(1 0 0 1 20.9502 -14.9502)" style="overflow:visible;opacity:0.6992;enable-background:new    ;"/>
		</g>
	</g>
</symbol>
<symbol  id="FlashAICB_x2F_ground_generic_3_x2F__x3C_Group_x3E__x5F_2" viewBox="0 -22.7 153.4 22.7">
	<g id="Layer_1_23_">
		<g>
			
				<use xlink:href="#FlashAICB_x2F_ground_generic_3_x2F__x3C_Path_x3E__x5F_13"  width="27.25" height="9.35" y="-9.35" transform="matrix(1 0 0 1 81.25 -7.8501)" style="overflow:visible;opacity:0.6992;enable-background:new    ;"/>
			<path style="fill-rule:evenodd;clip-rule:evenodd;fill:#55412D;" d="M82.5-21.8c-1.667-0.6-3.683-0.9-6.05-0.9
				s-4.383,0.3-6.05,0.9c-1.667,0.633-2.5,1.383-2.5,2.25s0.833,1.6,2.5,2.2c1.667,0.6,3.684,0.9,6.05,0.9
				c2.333,0,4.35-0.3,6.05-0.9c1.667-0.633,2.5-1.367,2.5-2.2C85-20.417,84.167-21.167,82.5-21.8z"/>
			<path style="fill-rule:evenodd;clip-rule:evenodd;fill:#55412D;" d="M69.5-11.55c0,0.367,0.367,0.683,1.1,0.95
				s1.617,0.4,2.65,0.4s1.9-0.133,2.6-0.4c0.733-0.267,1.1-0.583,1.1-0.95s-0.367-0.684-1.1-0.95c-0.7-0.267-1.567-0.4-2.6-0.4
				s-1.917,0.133-2.65,0.4S69.5-11.917,69.5-11.55z"/>
			<path style="fill-rule:evenodd;clip-rule:evenodd;fill:#55412D;" d="M52.95-3.75c0,1.033,1.3,1.917,3.9,2.65S62.6,0,66.3,0
				c3.7,0,6.85-0.367,9.45-1.1s3.9-1.617,3.9-2.65s-1.3-1.9-3.9-2.6c-2.633-0.733-5.783-1.1-9.45-1.1c-3.7,0-6.85,0.367-9.45,1.1
				C54.25-5.65,52.95-4.783,52.95-3.75z"/>
			
				<use xlink:href="#FlashAICB_x2F_ground_generic_3_x2F__x3C_Path_x3E__x5F_9"  width="19.25" height="6.25" y="-6.25" transform="matrix(1 0 0 1 35.2998 -6.6499)" style="overflow:visible;opacity:0.6992;enable-background:new    ;"/>
			<path style="fill-rule:evenodd;clip-rule:evenodd;fill:#55412D;" d="M22.45-16.45c0,0.633,0.767,1.184,2.3,1.65
				c1.5,0.466,3.317,0.7,5.45,0.7s3.966-0.233,5.5-0.7c1.5-0.467,2.25-1.017,2.25-1.65c0-0.667-0.75-1.216-2.25-1.65
				c-1.534-0.467-3.367-0.7-5.5-0.7s-3.95,0.233-5.45,0.7C23.217-17.633,22.45-17.083,22.45-16.45z"/>
			<path style="fill-rule:evenodd;clip-rule:evenodd;fill:#55412D;" d="M27.25-10.95c0,0.333,0.3,0.6,0.9,0.8
				C28.717-9.917,29.4-9.8,30.2-9.8c0.833,0,1.533-0.117,2.1-0.35c0.567-0.2,0.85-0.467,0.85-0.8c0-0.333-0.283-0.617-0.85-0.85
				c-0.566-0.233-1.267-0.35-2.1-0.35c-0.8,0-1.483,0.117-2.05,0.35C27.55-11.567,27.25-11.283,27.25-10.95z"/>
			
				<use xlink:href="#FlashAICB_x2F_ground_generic_3_x2F__x3C_Path_x3E__x5F_6"  width="6.95" height="2.35" y="-2.35" transform="matrix(1 0 0 1 43.8501 -19.9502)" style="overflow:visible;opacity:0.5;enable-background:new    ;"/>
			
				<use xlink:href="#FlashAICB_x2F_ground_generic_3_x2F__x3C_Path_x3E__x5F_5"  width="8.55" height="2.35" y="-2.35" transform="matrix(1 0 0 1 0 -15.25)" style="overflow:visible;opacity:0.5;enable-background:new    ;"/>
			
				<use xlink:href="#FlashAICB_x2F_ground_generic_3_x2F__x3C_Path_x3E__x5F_4"  width="13.35" height="4.35" y="-4.35" transform="matrix(1 0 0 1 111.7002 -1.5498)" style="overflow:visible;opacity:0.5;enable-background:new    ;"/>
			<path style="fill-rule:evenodd;clip-rule:evenodd;fill:#55412D;" d="M110.1-10.2c0,0.333,0.333,0.617,1,0.85
				c0.7,0.233,1.533,0.35,2.5,0.35c0.933,0,1.75-0.117,2.45-0.35c0.667-0.233,1-0.517,1-0.85c0-0.333-0.333-0.6-1-0.8
				c-0.667-0.233-1.483-0.35-2.45-0.35s-1.8,0.117-2.5,0.35C110.433-10.8,110.1-10.533,110.1-10.2z"/>
			<path style="fill-rule:evenodd;clip-rule:evenodd;fill:#55412D;" d="M146.45-3.75c0,0.4,0.333,0.733,1,1
				c0.667,0.267,1.483,0.4,2.45,0.4s1.8-0.133,2.5-0.4c0.667-0.267,1-0.6,1-1c0-0.367-0.333-0.683-1-0.95
				c-0.7-0.267-1.533-0.4-2.5-0.4s-1.783,0.133-2.45,0.4C146.783-4.433,146.45-4.117,146.45-3.75z"/>
			
				<use xlink:href="#FlashAICB_x2F_ground_generic_3_x2F__x3C_Path_x3E__x5F_1"  width="16.05" height="5.1" y="-5.1" transform="matrix(1 0 0 1 130.9502 -7.0498)" style="overflow:visible;opacity:0.6992;enable-background:new    ;"/>
			
				<use xlink:href="#FlashAICB_x2F_ground_generic_3_x2F__x3C_Path_x3E_"  width="6.95" height="2.55" y="-2.55" transform="matrix(1 0 0 1 16.0498 -11.0498)" style="overflow:visible;opacity:0.6992;enable-background:new    ;"/>
		</g>
	</g>
</symbol>
<symbol  id="FlashAICB_x2F_ground_generic_3_x2F__x3C_Path_x3E_" viewBox="0 -2.55 6.95 2.55">
	<g id="Layer_1_8_">
		<path style="fill-rule:evenodd;clip-rule:evenodd;fill:#55412D;" d="M0-1.3c0,0.367,0.333,0.667,1,0.9C1.7-0.133,2.517,0,3.45,0
			c0.966,0,1.8-0.133,2.5-0.4c0.667-0.233,1-0.533,1-0.9s-0.333-0.667-1-0.9c-0.7-0.233-1.534-0.35-2.5-0.35
			C2.483-2.55,1.667-2.433,1-2.2C0.333-1.933,0-1.633,0-1.3z"/>
	</g>
</symbol>
<symbol  id="FlashAICB_x2F_ground_generic_3_x2F__x3C_Path_x3E__x5F_0" viewBox="0 -3.25 9.05 3.25">
	<g id="Layer_1_15_">
		<path style="fill-rule:evenodd;clip-rule:evenodd;fill:#55412D;" d="M0-1.65C0-1.217,0.45-0.833,1.35-0.5S3.317,0,4.55,0
			c1.233,0,2.3-0.167,3.2-0.5c0.867-0.3,1.3-0.683,1.3-1.15c0-0.434-0.433-0.8-1.3-1.1c-0.9-0.333-1.967-0.5-3.2-0.5
			c-1.233,0-2.3,0.167-3.2,0.5C0.45-2.45,0-2.083,0-1.65z"/>
	</g>
</symbol>
<symbol  id="FlashAICB_x2F_ground_generic_3_x2F__x3C_Path_x3E__x5F_1" viewBox="0 -5.1 16.05 5.1">
	<g id="Layer_1_7_">
		<path style="fill-rule:evenodd;clip-rule:evenodd;fill:#55412D;" d="M0-2.55c0,0.7,0.783,1.3,2.35,1.8C3.917-0.25,5.8,0,8,0
			c2.233,0,4.133-0.25,5.7-0.75c1.566-0.5,2.35-1.1,2.35-1.8c0-0.7-0.783-1.3-2.35-1.8C12.133-4.85,10.233-5.1,8-5.1
			c-2.2,0-4.083,0.25-5.65,0.75C0.783-3.85,0-3.25,0-2.55z"/>
	</g>
</symbol>
<symbol  id="FlashAICB_x2F_ground_generic_3_x2F__x3C_Path_x3E__x5F_13" viewBox="0 -9.35 27.25 9.35">
	<g id="Layer_1_2_">
		<path style="fill-rule:evenodd;clip-rule:evenodd;fill:#55412D;" d="M0-4.7c0,1.3,1.333,2.4,4,3.3C6.667-0.467,9.883,0,13.65,0
			s6.967-0.467,9.6-1.4c2.667-0.9,4-2,4-3.3c0-1.267-1.333-2.367-4-3.3c-2.667-0.9-5.867-1.35-9.6-1.35C9.883-9.35,6.667-8.9,4-8
			C1.333-7.067,0-5.967,0-4.7z"/>
	</g>
</symbol>
<symbol  id="FlashAICB_x2F_ground_generic_3_x2F__x3C_Path_x3E__x5F_13_x5F_0" viewBox="0 -11.85 35.65 11.85">
	<g id="Layer_1_9_">
		<path style="fill-rule:evenodd;clip-rule:evenodd;fill:#55412D;" d="M0-5.9c0,1.633,1.75,3.017,5.25,4.15
			C8.717-0.583,12.9,0,17.8,0c4.934,0,9.133-0.583,12.6-1.75c3.5-1.133,5.25-2.517,5.25-4.15s-1.75-3.033-5.25-4.2
			c-3.467-1.167-7.667-1.75-12.6-1.75c-4.9,0-9.083,0.583-12.55,1.75C1.75-8.933,0-7.533,0-5.9z"/>
	</g>
</symbol>
<symbol  id="FlashAICB_x2F_ground_generic_3_x2F__x3C_Path_x3E__x5F_13_x5F_1" viewBox="0 -12.3 55.85 12.3">
	<g id="Layer_1_16_">
		<path style="fill-rule:evenodd;clip-rule:evenodd;fill:#55412D;" d="M55.85-6.15c0-1.7-2.717-3.15-8.15-4.35
			c-5.467-1.2-12.05-1.8-19.75-1.8c-7.733,0-14.317,0.6-19.75,1.8C2.733-9.3,0-7.85,0-6.15C0-4.45,2.733-3,8.2-1.8
			C13.633-0.6,20.217,0,27.95,0c7.7,0,14.283-0.6,19.75-1.8C53.133-3,55.85-4.45,55.85-6.15z"/>
	</g>
</symbol>
<symbol  id="FlashAICB_x2F_ground_generic_3_x2F__x3C_Path_x3E__x5F_1_x5F_0" viewBox="0 -6.45 20.95 6.45">
	<g id="Layer_1_14_">
		<path style="fill-rule:evenodd;clip-rule:evenodd;fill:#55412D;" d="M0-3.2c0,0.867,1.033,1.617,3.1,2.25
			C5.133-0.317,7.6,0,10.5,0c2.867,0,5.333-0.317,7.4-0.95c2.033-0.633,3.05-1.383,3.05-2.25c0-0.9-1.017-1.667-3.05-2.3
			c-2.066-0.633-4.533-0.95-7.4-0.95c-2.9,0-5.367,0.317-7.4,0.95C1.033-4.867,0-4.1,0-3.2z"/>
	</g>
</symbol>
<symbol  id="FlashAICB_x2F_ground_generic_3_x2F__x3C_Path_x3E__x5F_1_x5F_1" viewBox="0 -6.7 32.85 6.7">
	<g id="Layer_1_21_">
		<path style="fill-rule:evenodd;clip-rule:evenodd;fill:#55412D;" d="M32.85-3.35c0-0.933-1.6-1.717-4.8-2.35
			c-3.2-0.667-7.066-1-11.6-1c-4.534,0-8.417,0.333-11.65,1C1.6-5.067,0-4.283,0-3.35C0-2.417,1.6-1.633,4.8-1
			c3.233,0.667,7.117,1,11.65,1c4.533,0,8.4-0.333,11.6-1C31.25-1.633,32.85-2.417,32.85-3.35z"/>
	</g>
</symbol>
<symbol  id="FlashAICB_x2F_ground_generic_3_x2F__x3C_Path_x3E__x5F_2" viewBox="0 -3.35 14.25 3.35">
	<g id="Layer_1_22_">
		<path style="fill-rule:evenodd;clip-rule:evenodd;fill:#55412D;" d="M14.25-1.65c0-0.467-0.7-0.867-2.1-1.2
			c-1.367-0.333-3.033-0.5-5-0.5S3.5-3.183,2.1-2.85C0.7-2.517,0-2.117,0-1.65S0.7-0.8,2.1-0.5C3.5-0.167,5.183,0,7.15,0
			c1.934,0,3.6-0.167,5-0.5S14.25-1.217,14.25-1.65z"/>
	</g>
</symbol>
<symbol  id="FlashAICB_x2F_ground_generic_3_x2F__x3C_Path_x3E__x5F_4" viewBox="0 -4.35 13.35 4.35">
	<g id="Layer_1_6_">
		<path style="fill-rule:evenodd;clip-rule:evenodd;fill:#55412D;" d="M0-2.2c0,0.6,0.65,1.117,1.95,1.55C3.283-0.217,4.867,0,6.7,0
			c1.833,0,3.4-0.217,4.7-0.65c1.3-0.434,1.95-0.95,1.95-1.55c0-0.566-0.65-1.066-1.95-1.5c-1.3-0.433-2.867-0.65-4.7-0.65
			c-1.833,0-3.417,0.217-4.75,0.65C0.65-3.267,0-2.767,0-2.2z"/>
	</g>
</symbol>
<symbol  id="FlashAICB_x2F_ground_generic_3_x2F__x3C_Path_x3E__x5F_4_x5F_0" viewBox="0 -5.45 17.45 5.45">
	<g id="Layer_1_13_">
		<path style="fill-rule:evenodd;clip-rule:evenodd;fill:#55412D;" d="M0-2.75C0-1.983,0.85-1.333,2.55-0.8
			C4.283-0.267,6.35,0,8.75,0s4.45-0.267,6.15-0.8c1.7-0.534,2.55-1.184,2.55-1.95c0-0.733-0.85-1.367-2.55-1.9
			c-1.7-0.533-3.75-0.8-6.15-0.8c-2.433,0-4.5,0.267-6.2,0.8C0.85-4.15,0-3.517,0-2.75z"/>
	</g>
</symbol>
<symbol  id="FlashAICB_x2F_ground_generic_3_x2F__x3C_Path_x3E__x5F_4_x5F_1" viewBox="0 -5.65 27.4 5.65">
	<g id="Layer_1_20_">
		<path style="fill-rule:evenodd;clip-rule:evenodd;fill:#55412D;" d="M27.4-2.85c0-0.767-1.333-1.433-4-2
			c-2.7-0.533-5.933-0.8-9.7-0.8c-3.767,0-7,0.267-9.7,0.8c-2.667,0.567-4,1.233-4,2c0,0.8,1.333,1.467,4,2
			C6.667-0.283,9.9,0,13.7,0c3.8,0,7.033-0.283,9.7-0.85C26.067-1.383,27.4-2.05,27.4-2.85z"/>
	</g>
</symbol>
<symbol  id="FlashAICB_x2F_ground_generic_3_x2F__x3C_Path_x3E__x5F_5" viewBox="0 -2.35 8.55 2.35">
	<g id="Layer_1_5_">
		<path style="fill-rule:evenodd;clip-rule:evenodd;fill:#55412D;" d="M0-1.2c0,0.333,0.417,0.617,1.25,0.85
			C2.117-0.117,3.133,0,4.3,0c1.167,0,2.167-0.117,3-0.35C8.133-0.583,8.55-0.867,8.55-1.2c0-0.333-0.417-0.6-1.25-0.8
			c-0.833-0.233-1.833-0.35-3-0.35C3.1-2.35,2.083-2.233,1.25-2C0.417-1.8,0-1.533,0-1.2z"/>
	</g>
</symbol>
<symbol  id="FlashAICB_x2F_ground_generic_3_x2F__x3C_Path_x3E__x5F_5_x5F_0" viewBox="0 -2.95 11.15 2.95">
	<g id="Layer_1_12_">
		<path style="fill-rule:evenodd;clip-rule:evenodd;fill:#55412D;" d="M0-1.45c0,0.4,0.55,0.733,1.65,1C2.75-0.15,4.067,0,5.6,0
			s2.833-0.15,3.9-0.45c1.1-0.267,1.65-0.6,1.65-1c0-0.433-0.55-0.783-1.65-1.05C8.433-2.8,7.133-2.95,5.6-2.95
			c-1.567,0-2.883,0.15-3.95,0.45C0.55-2.233,0-1.883,0-1.45z"/>
	</g>
</symbol>
<symbol  id="FlashAICB_x2F_ground_generic_3_x2F__x3C_Path_x3E__x5F_5_x5F_1" viewBox="0 -3.05 17.55 3.05">
	<g id="Layer_1_19_">
		<path style="fill-rule:evenodd;clip-rule:evenodd;fill:#55412D;" d="M17.55-1.55c0-0.434-0.85-0.784-2.55-1.05
			c-1.7-0.3-3.767-0.45-6.2-0.45c-2.433,0-4.5,0.15-6.2,0.45C0.867-2.333,0-1.983,0-1.55c0,0.433,0.867,0.8,2.6,1.1
			C4.3-0.15,6.367,0,8.8,0c2.4,0,4.467-0.15,6.2-0.45C16.7-0.75,17.55-1.117,17.55-1.55z"/>
	</g>
</symbol>
<symbol  id="FlashAICB_x2F_ground_generic_3_x2F__x3C_Path_x3E__x5F_6" viewBox="0 -2.35 6.95 2.35">
	<g id="Layer_1_4_">
		<path style="fill-rule:evenodd;clip-rule:evenodd;fill:#55412D;" d="M0-1.2c0,0.333,0.333,0.617,1,0.85C1.7-0.117,2.517,0,3.45,0
			c0.966,0,1.8-0.117,2.5-0.35c0.667-0.233,1-0.517,1-0.85c0-0.333-0.333-0.6-1-0.8c-0.7-0.233-1.534-0.35-2.5-0.35
			C2.483-2.35,1.667-2.233,1-2C0.333-1.8,0-1.533,0-1.2z"/>
	</g>
</symbol>
<symbol  id="FlashAICB_x2F_ground_generic_3_x2F__x3C_Path_x3E__x5F_6_x5F_0" viewBox="0 -2.95 9.1 2.95">
	<g id="Layer_1_11_">
		<path style="fill-rule:evenodd;clip-rule:evenodd;fill:#55412D;" d="M0-1.45c0,0.4,0.45,0.733,1.35,1C2.217-0.15,3.283,0,4.55,0
			c1.267,0,2.333-0.15,3.2-0.45c0.9-0.267,1.35-0.6,1.35-1c0-0.433-0.45-0.783-1.35-1.05c-0.867-0.3-1.933-0.45-3.2-0.45
			c-1.267,0-2.333,0.15-3.2,0.45C0.45-2.233,0-1.883,0-1.45z"/>
	</g>
</symbol>
<symbol  id="FlashAICB_x2F_ground_generic_3_x2F__x3C_Path_x3E__x5F_6_x5F_1" viewBox="0 -3.1 14.25 3.1">
	<g id="Layer_1_18_">
		<path style="fill-rule:evenodd;clip-rule:evenodd;fill:#55412D;" d="M14.25-1.55c0-0.434-0.7-0.8-2.1-1.1
			c-1.367-0.3-3.033-0.45-5-0.45S3.5-2.95,2.1-2.65C0.7-2.35,0-1.983,0-1.55c0,0.433,0.7,0.8,2.1,1.1C3.5-0.15,5.183,0,7.15,0
			s3.633-0.15,5-0.45C13.55-0.75,14.25-1.117,14.25-1.55z"/>
	</g>
</symbol>
<symbol  id="FlashAICB_x2F_ground_generic_3_x2F__x3C_Path_x3E__x5F_9" viewBox="0 -6.25 19.25 6.25">
	<g id="Layer_1_3_">
		<path style="fill-rule:evenodd;clip-rule:evenodd;fill:#55412D;" d="M0-3.15C0-2.283,0.933-1.533,2.8-0.9C4.667-0.3,6.933,0,9.6,0
			c2.667,0,4.933-0.3,6.8-0.9c1.9-0.633,2.85-1.383,2.85-2.25s-0.95-1.6-2.85-2.2s-4.167-0.9-6.8-0.9s-4.9,0.3-6.8,0.9
			C0.933-4.75,0-4.017,0-3.15z"/>
	</g>
</symbol>
<symbol  id="FlashAICB_x2F_ground_generic_3_x2F__x3C_Path_x3E__x5F_9_x5F_0" viewBox="0 -7.9 25.1 7.9">
	<g id="Layer_1_10_">
		<path style="fill-rule:evenodd;clip-rule:evenodd;fill:#55412D;" d="M0-3.95c0,1.067,1.217,2,3.65,2.8
			C6.117-0.383,9.083,0,12.55,0c3.467,0,6.434-0.383,8.9-1.15c2.433-0.8,3.65-1.733,3.65-2.8c0-1.1-1.217-2.033-3.65-2.8
			c-2.467-0.767-5.434-1.15-8.9-1.15c-3.466,0-6.433,0.383-8.9,1.15C1.217-5.983,0-5.05,0-3.95z"/>
	</g>
</symbol>
<symbol  id="FlashAICB_x2F_ground_generic_3_x2F__x3C_Path_x3E__x5F_9_x5F_1" viewBox="0 -8.2 39.4 8.2">
	<g id="Layer_1_17_">
		<path style="fill-rule:evenodd;clip-rule:evenodd;fill:#55412D;" d="M39.4-4.1c0-1.133-1.917-2.1-5.75-2.9
			c-3.867-0.8-8.517-1.2-13.95-1.2C14.267-8.2,9.633-7.8,5.8-7C1.933-6.2,0-5.233,0-4.1S1.933-2,5.8-1.2C9.633-0.4,14.267,0,19.7,0
			c5.433,0,10.083-0.4,13.95-1.2C37.483-2,39.4-2.967,39.4-4.1z"/>
	</g>
</symbol>
<path style="fill-rule:evenodd;clip-rule:evenodd;fill:#4C3B2A;" d="M359.4,4.55c14.5,0,43.05-0.65,85.649-1.95
	c42.101-0.867,77.434-0.383,106,1.45c86.7,5.534,136.816,24.367,150.351,56.5c7.433,17.7-4.767,31.084-36.601,40.15
	c-26.833,7.633-66.8,12.05-119.899,13.25c-42.9,0.934-91.601-0.233-146.101-3.5c-43.7-2.601-82.167-5.9-115.4-9.9
	c-20.733-2.5-49.667-3.934-86.8-4.3c-47.033-0.467-76.1-0.983-87.2-1.55c-30.633-1.634-54.2-5.351-70.7-11.15
	c-20.233-7.133-32.667-18.133-37.3-33C-3.167,35.883,3.55,24.333,21.55,15.9C35.983,9.133,57.267,4.517,85.4,2.05
	c20.1-1.767,42.633-2.383,67.6-1.85c12.467,0.267,22.933,0.716,31.4,1.35c16.967-0.7,41.383-0.45,73.25,0.75
	C297.783,3.8,331.7,4.55,359.4,4.55z"/>
<use xlink:href="#FlashAICB_x2F_ground_generic_3_x2F__x3C_Group_x3E__x5F_2"  width="153.4" height="22.7" y="-22.7" transform="matrix(1 0 0 -1 15.5 32.3501)" style="overflow:visible;opacity:0.3008;enable-background:new    ;"/>
<use xlink:href="#FlashAICB_x2F_ground_generic_3_x2F__x3C_Group_x3E__x5F_1"  width="355.4" height="29.2" y="-29.2" transform="matrix(1 0 0 -1 229.4502 21.75)" style="overflow:visible;opacity:0.3008;enable-background:new    ;"/>
<use xlink:href="#FlashAICB_x2F_ground_generic_3_x2F__x3C_Group_x3E_"  width="314.25" height="29.7" y="-29.7" transform="matrix(1 0 0 -1 357.4004 68.5996)" style="overflow:visible;opacity:0.3008;enable-background:new    ;"/>
</svg>
