<?xml version="1.0" encoding="iso-8859-1"?>
<!-- Generator: Adobe Illustrator 15.1.0, SVG Export Plug-In . SVG Version: 6.00 Build 0)  -->
<!DOCTYPE svg PUBLIC "-//W3C//DTD SVG 1.1//EN" "http://www.w3.org/Graphics/SVG/1.1/DTD/svg11.dtd">
<svg version="1.1" id="ground_spots" xmlns="http://www.w3.org/2000/svg" xmlns:xlink="http://www.w3.org/1999/xlink" x="0px"
	 y="0px" width="191.85px" height="54.05px" viewBox="0 0 191.85 54.05" style="enable-background:new 0 0 191.85 54.05;"
	 xml:space="preserve">
<symbol  id="FlashAICB_x2F_ground_spots_x2F__x3C_Group_x3E_" viewBox="0.013 -54.063 191.861 54.063">
	<g id="Layer_1_15_">
		<g>
			
				<use xlink:href="#FlashAICB_x2F_ground_spots_x2F__x3C_Path_x3E__x5F_24"  width="16.782" height="6.713" x="-0.016" y="-6.725" transform="matrix(1 0 0 1 79.1001 -8.9502)" style="overflow:visible;opacity:0.6992;enable-background:new    ;"/>
			
				<use xlink:href="#FlashAICB_x2F_ground_spots_x2F__x3C_Path_x3E__x5F_23"  width="6.578" height="4.377" x="0.01" y="-4.338" transform="matrix(1 0 0 1 28.1001 -18.0498)" style="overflow:visible;opacity:0.6992;enable-background:new    ;"/>
			<path style="fill-rule:evenodd;clip-rule:evenodd;fill:#59412F;" d="M81.55-21.85c0.967-0.2,1.467-0.517,1.5-0.95
				c0.034-0.434-0.417-0.833-1.35-1.2c-0.9-0.367-2.034-0.617-3.4-0.75c-1.333-0.133-2.483-0.083-3.45,0.15
				c-0.967,0.2-1.483,0.517-1.55,0.95c-0.033,0.4,0.417,0.8,1.35,1.2c0.934,0.367,2.067,0.617,3.4,0.75
				C79.417-21.6,80.583-21.65,81.55-21.85z"/>
			<path style="fill-rule:evenodd;clip-rule:evenodd;fill:#59412F;" d="M77.45-4.95c-0.8-0.133-1.517-0.167-2.15-0.1
				c-0.566,0.066-0.883,0.2-0.95,0.4C74.317-4.417,74.583-4.2,75.15-4c0.567,0.233,1.267,0.417,2.1,0.55s1.55,0.167,2.15,0.1
				c0.6-0.066,0.917-0.217,0.95-0.45c0.033-0.2-0.233-0.417-0.8-0.65C78.95-4.683,78.25-4.85,77.45-4.95z"/>
			<path style="fill-rule:evenodd;clip-rule:evenodd;fill:#59412F;" d="M7.35-41.55c0.9,0.8,1.717,1.433,2.45,1.9
				c0.767,0.433,1.217,0.583,1.35,0.45c0.167-0.167-0.033-0.583-0.6-1.25c-0.533-0.7-1.25-1.45-2.15-2.25
				c-0.9-0.8-1.717-1.433-2.45-1.9c-0.733-0.467-1.184-0.617-1.35-0.45c-0.133,0.167,0.066,0.583,0.6,1.25
				C5.767-43.067,6.483-42.317,7.35-41.55z"/>
			<path style="fill-rule:evenodd;clip-rule:evenodd;fill:#59412F;" d="M41.4-21.2c0.934,0.067,1.45-0.05,1.55-0.35
				c0.066-0.3-0.284-0.7-1.05-1.2c-0.8-0.5-1.783-0.933-2.95-1.3c-1.2-0.4-2.267-0.633-3.2-0.7s-1.433,0.05-1.5,0.35
				c-0.1,0.3,0.233,0.7,1,1.2s1.75,0.934,2.95,1.3C39.4-21.5,40.467-21.267,41.4-21.2z"/>
			
				<use xlink:href="#FlashAICB_x2F_ground_spots_x2F__x3C_Path_x3E__x5F_18"  width="7.15" height="1.65" y="-1.65" transform="matrix(1 0 0 1 93.1499 0)" style="overflow:visible;opacity:0.6992;enable-background:new    ;"/>
			
				<use xlink:href="#FlashAICB_x2F_ground_spots_x2F__x3C_Path_x3E__x5F_17"  width="25.558" height="8.401" x="-0.006" y="-8.378" transform="matrix(1 0 0 1 92.1499 -18.3999)" style="overflow:visible;opacity:0.6992;enable-background:new    ;"/>
			<path style="fill-rule:evenodd;clip-rule:evenodd;fill:#59412F;" d="M165.3-23.55c1.534-0.967,2.233-1.717,2.1-2.25
				c-0.133-0.534-1.066-0.684-2.8-0.45s-3.75,0.783-6.05,1.65c-2.3,0.8-4.233,1.7-5.8,2.7c-1.533,0.967-2.233,1.7-2.1,2.2
				c0.133,0.534,1.067,0.684,2.8,0.45c1.7-0.233,3.716-0.767,6.05-1.6C161.833-21.683,163.767-22.583,165.3-23.55z"/>
			<path style="fill-rule:evenodd;clip-rule:evenodd;fill:#59412F;" d="M162.85-32.75c1.033-0.567,1.5-1,1.4-1.3
				c-0.067-0.3-0.683-0.383-1.85-0.25c-1.133,0.133-2.467,0.45-4,0.95c-1.533,0.467-2.816,0.983-3.85,1.55c-1,0.566-1.466,1-1.4,1.3
				c0.1,0.3,0.717,0.383,1.85,0.25s2.467-0.45,4-0.95C160.533-31.667,161.817-32.183,162.85-32.75z"/>
			<path style="fill-rule:evenodd;clip-rule:evenodd;fill:#59412F;" d="M59.8-13.25c2.534,0.833,4.784,1.317,6.75,1.45
				c1.967,0.167,3.05-0.083,3.25-0.75c0.233-0.667-0.483-1.534-2.15-2.6c-1.633-1.033-3.733-1.983-6.3-2.85
				c-2.567-0.833-4.817-1.317-6.75-1.45c-1.967-0.133-3.067,0.133-3.3,0.8c-0.2,0.633,0.534,1.483,2.2,2.55
				C55.133-15.067,57.233-14.117,59.8-13.25z"/>
			
				<use xlink:href="#FlashAICB_x2F_ground_spots_x2F__x3C_Path_x3E__x5F_13"  width="14.73" height="10.394" x="0.01" y="-10.347" transform="matrix(1 0 0 1 15.8501 -30.4004)" style="overflow:visible;opacity:0.6992;enable-background:new    ;"/>
			
				<use xlink:href="#FlashAICB_x2F_ground_spots_x2F__x3C_Path_x3E__x5F_12"  width="9.348" height="5.077" x="0.013" y="-5.063" transform="matrix(1 0 0 1 0 -49)" style="overflow:visible;opacity:0.6992;enable-background:new    ;"/>
			<path style="fill-rule:evenodd;clip-rule:evenodd;fill:#59412F;" d="M142.85-20.7c-0.167-0.633-1.3-0.917-3.4-0.85
				c-2.1,0.1-4.534,0.517-7.3,1.25c-2.767,0.767-5.083,1.617-6.95,2.55c-1.833,0.967-2.684,1.767-2.55,2.4
				c0.167,0.633,1.3,0.917,3.4,0.85c2.1-0.1,4.534-0.517,7.3-1.25c2.8-0.733,5.117-1.583,6.95-2.55
				C142.167-19.267,143.017-20.067,142.85-20.7z"/>
			
				<use xlink:href="#FlashAICB_x2F_ground_spots_x2F__x3C_Path_x3E__x5F_10"  width="5.539" height="2.8" x="0.023" y="-2.8" transform="matrix(1 0 0 1 42.6001 -12.7998)" style="overflow:visible;opacity:0.6992;enable-background:new    ;"/>
			
				<use xlink:href="#FlashAICB_x2F_ground_spots_x2F__x3C_Path_x3E__x5F_9"  width="6.968" height="2.3" x="-0.009" y="-2.3" transform="matrix(1 0 0 1 65.25 -6)" style="overflow:visible;opacity:0.6992;enable-background:new    ;"/>
			
				<use xlink:href="#FlashAICB_x2F_ground_spots_x2F__x3C_Path_x3E__x5F_8"  width="21.328" height="12.726" x="-0.03" y="-12.713" transform="matrix(1 0 0 1 43.2998 -23.5498)" style="overflow:visible;opacity:0.6992;enable-background:new    ;"/>
			<path style="fill-rule:evenodd;clip-rule:evenodd;fill:#59412F;" d="M98-5.65C98.067-5.217,98.917-5,100.55-5
				c1.6,0,3.534-0.2,5.8-0.6c2.233-0.4,4.117-0.9,5.65-1.5c1.5-0.566,2.217-1.066,2.15-1.5c-0.066-0.4-0.917-0.6-2.55-0.6
				c-1.667-0.033-3.6,0.167-5.8,0.6c-2.233,0.4-4.117,0.883-5.65,1.45C98.65-6.55,97.933-6.05,98-5.65z"/>
			<path style="fill-rule:evenodd;clip-rule:evenodd;fill:#59412F;" d="M145.55-11.45c2.3-0.466,3.417-0.95,3.35-1.45
				c-0.033-0.2-0.417-0.317-1.15-0.35c-0.733,0-1.567,0.1-2.5,0.3c-0.967,0.167-1.783,0.4-2.45,0.7c-0.633,0.267-0.933,0.5-0.9,0.7
				C142-11.083,143.217-11.05,145.55-11.45z"/>
			
				<use xlink:href="#FlashAICB_x2F_ground_spots_x2F__x3C_Path_x3E__x5F_5"  width="6.969" height="2.406" x="-0.009" y="-2.406" transform="matrix(1 0 0 1 114.9004 -3.2998)" style="overflow:visible;opacity:0.6992;enable-background:new    ;"/>
			<path style="fill-rule:evenodd;clip-rule:evenodd;fill:#59412F;" d="M141.75-29.95c2-0.466,3.65-1.05,4.95-1.75
				c1.333-0.733,1.933-1.367,1.8-1.9s-0.95-0.816-2.45-0.85c-1.5-0.066-3.233,0.133-5.2,0.6c-2,0.467-3.65,1.05-4.95,1.75
				c-1.333,0.733-1.933,1.367-1.8,1.9c0.133,0.534,0.95,0.817,2.45,0.85C138.05-29.283,139.783-29.483,141.75-29.95z"/>
			<path style="fill-rule:evenodd;clip-rule:evenodd;fill:#59412F;" d="M173.95-32.25c1.533-0.5,2.8-1.1,3.8-1.8
				c1-0.7,1.433-1.284,1.3-1.75c-0.133-0.467-0.8-0.667-2-0.6c-1.167,0.033-2.517,0.316-4.05,0.85c-1.533,0.533-2.8,1.15-3.8,1.85
				c-1,0.667-1.434,1.233-1.3,1.7s0.783,0.667,1.95,0.6C171.05-31.433,172.417-31.717,173.95-32.25z"/>
			
				<use xlink:href="#FlashAICB_x2F_ground_spots_x2F__x3C_Path_x3E__x5F_2"  width="8.654" height="2.008" x="-0.002" y="-2" transform="matrix(1 0 0 1 126.4004 -8.8999)" style="overflow:visible;opacity:0.6992;enable-background:new    ;"/>
			
				<use xlink:href="#FlashAICB_x2F_ground_spots_x2F__x3C_Path_x3E__x5F_1"  width="6.72" height="2.8" x="0.04" y="-2.825" transform="matrix(1 0 0 1 158 -17.0498)" style="overflow:visible;opacity:0.6992;enable-background:new    ;"/>
			
				<use xlink:href="#FlashAICB_x2F_ground_spots_x2F__x3C_Path_x3E_"  width="6.348" height="3.627" x="0.026" y="-3.614" transform="matrix(1 0 0 1 185.5 -38.3496)" style="overflow:visible;opacity:0.6992;enable-background:new    ;"/>
		</g>
	</g>
</symbol>
<symbol  id="FlashAICB_x2F_ground_spots_x2F__x3C_Path_x3E_" viewBox="0.026 -3.614 6.348 3.627">
	<g id="Layer_1_14_">
		<path style="fill-rule:evenodd;clip-rule:evenodd;fill:#59412F;" d="M6.35-3.45c-0.1-0.2-0.5-0.216-1.2-0.05
			C4.45-3.3,3.667-2.983,2.8-2.55c-0.867,0.466-1.566,0.933-2.1,1.4c-0.534,0.467-0.75,0.8-0.65,1c0.1,0.2,0.5,0.217,1.2,0.05
			c0.7-0.2,1.483-0.517,2.35-0.95c0.867-0.5,1.566-0.967,2.1-1.4C6.233-2.917,6.45-3.25,6.35-3.45z"/>
	</g>
</symbol>
<symbol  id="FlashAICB_x2F_ground_spots_x2F__x3C_Path_x3E__x5F_1" viewBox="0.04 -2.825 6.72 2.8">
	<g id="Layer_1_13_">
		<path style="fill-rule:evenodd;clip-rule:evenodd;fill:#59412F;" d="M6.75-2.6C6.683-2.8,6.3-2.867,5.6-2.8
			C4.867-2.733,4.033-2.533,3.1-2.2C2.167-1.867,1.417-1.517,0.85-1.15c-0.6,0.367-0.867,0.667-0.8,0.9
			c0.067,0.2,0.45,0.267,1.15,0.2c0.733-0.067,1.55-0.267,2.45-0.6c0.934-0.333,1.7-0.684,2.3-1.05C6.55-2.067,6.817-2.367,6.75-2.6
			z"/>
	</g>
</symbol>
<symbol  id="FlashAICB_x2F_ground_spots_x2F__x3C_Path_x3E__x5F_10" viewBox="0.023 -2.8 5.539 2.8">
	<g id="Layer_1_8_">
		<path style="fill-rule:evenodd;clip-rule:evenodd;fill:#59412F;" d="M5.55-0.2c0.067-0.2-0.133-0.483-0.6-0.85
			C4.483-1.417,3.867-1.767,3.1-2.1C2.333-2.433,1.65-2.65,1.05-2.75c-0.6-0.1-0.933-0.05-1,0.15c-0.1,0.2,0.083,0.483,0.55,0.85
			C1.1-1.383,1.733-1.033,2.5-0.7c0.767,0.333,1.45,0.55,2.05,0.65C5.15,0.05,5.483,0,5.55-0.2z"/>
	</g>
</symbol>
<symbol  id="FlashAICB_x2F_ground_spots_x2F__x3C_Path_x3E__x5F_12" viewBox="0.013 -5.063 9.348 5.077">
	<g id="Layer_1_7_">
		<path style="fill-rule:evenodd;clip-rule:evenodd;fill:#59412F;" d="M3.75-1.45c1.233,0.633,2.4,1.067,3.5,1.3
			c1.067,0.233,1.733,0.217,2-0.05C9.517-0.5,9.3-0.983,8.6-1.65c-0.7-0.633-1.7-1.283-3-1.95C4.367-4.233,3.2-4.667,2.1-4.9
			c-1.067-0.233-1.733-0.217-2,0.05c-0.233,0.3,0,0.783,0.7,1.45C1.5-2.733,2.483-2.083,3.75-1.45z"/>
	</g>
</symbol>
<symbol  id="FlashAICB_x2F_ground_spots_x2F__x3C_Path_x3E__x5F_13" viewBox="0.01 -10.347 14.73 10.394">
	<g id="Layer_1_6_">
		<path style="fill-rule:evenodd;clip-rule:evenodd;fill:#59412F;" d="M8.5-6.85C6.5-8.217,4.683-9.2,3.05-9.8
			c-1.633-0.633-2.617-0.717-2.95-0.25c-0.3,0.466,0.15,1.333,1.35,2.6c1.2,1.3,2.8,2.633,4.8,4c2,1.333,3.817,2.317,5.45,2.95
			s2.617,0.717,2.95,0.25c0.3-0.467-0.15-1.35-1.35-2.65C12.1-4.2,10.5-5.517,8.5-6.85z"/>
	</g>
</symbol>
<symbol  id="FlashAICB_x2F_ground_spots_x2F__x3C_Path_x3E__x5F_17" viewBox="-0.006 -8.378 25.558 8.401">
	<g id="Layer_1_5_">
		<path style="fill-rule:evenodd;clip-rule:evenodd;fill:#59412F;" d="M13.1-0.1c3.533-0.3,6.517-0.95,8.95-1.95
			c2.4-0.967,3.567-2.017,3.5-3.15c-0.1-1.133-1.433-2-4-2.6c-2.533-0.567-5.566-0.717-9.1-0.45C8.917-7.95,5.933-7.3,3.5-6.3
			C1.067-5.333-0.1-4.283,0-3.15C0.067-2.017,1.383-1.167,3.95-0.6C6.517,0,9.567,0.167,13.1-0.1z"/>
	</g>
</symbol>
<symbol  id="FlashAICB_x2F_ground_spots_x2F__x3C_Path_x3E__x5F_18" viewBox="0 -1.65 7.15 1.65">
	<g id="Layer_1_4_">
		<path style="fill-rule:evenodd;clip-rule:evenodd;fill:#59412F;" d="M3.6-1.65c-1,0-1.85,0.083-2.55,0.25
			C0.35-1.233,0-1.033,0-0.8c0,0.233,0.35,0.417,1.05,0.55C1.75-0.083,2.6,0,3.6,0c0.967,0,1.8-0.083,2.5-0.25
			C6.8-0.383,7.15-0.567,7.15-0.8c0-0.233-0.35-0.434-1.05-0.6C5.4-1.567,4.567-1.65,3.6-1.65z"/>
	</g>
</symbol>
<symbol  id="FlashAICB_x2F_ground_spots_x2F__x3C_Path_x3E__x5F_2" viewBox="-0.002 -2 8.654 2.008">
	<g id="Layer_1_12_">
		<path style="fill-rule:evenodd;clip-rule:evenodd;fill:#59412F;" d="M4.2-1.75c-1.167,0.167-2.167,0.4-3,0.7
			C0.367-0.783-0.033-0.55,0-0.35C0.033-0.117,0.483,0,1.35,0c0.867,0.033,1.9-0.033,3.1-0.2c1.167-0.167,2.167-0.4,3-0.7
			c0.833-0.267,1.233-0.5,1.2-0.7C8.617-1.833,8.167-1.967,7.3-2C6.433-2,5.4-1.917,4.2-1.75z"/>
	</g>
</symbol>
<symbol  id="FlashAICB_x2F_ground_spots_x2F__x3C_Path_x3E__x5F_23" viewBox="0.01 -4.338 6.578 4.377">
	<g id="Layer_1_3_">
		<path style="fill-rule:evenodd;clip-rule:evenodd;fill:#59412F;" d="M3.75-2.9c-0.867-0.567-1.667-0.983-2.4-1.25
			C0.617-4.383,0.183-4.4,0.05-4.2C-0.083-4,0.117-3.617,0.65-3.05C1.217-2.483,1.933-1.933,2.8-1.4
			c0.9,0.566,1.717,0.983,2.45,1.25c0.7,0.233,1.133,0.25,1.3,0.05C6.683-0.333,6.467-0.717,5.9-1.25
			C5.367-1.817,4.65-2.367,3.75-2.9z"/>
	</g>
</symbol>
<symbol  id="FlashAICB_x2F_ground_spots_x2F__x3C_Path_x3E__x5F_24" viewBox="-0.016 -6.725 16.782 6.713">
	<g id="Layer_1_2_">
		<path style="fill-rule:evenodd;clip-rule:evenodd;fill:#59412F;" d="M16.75-2.1c0.133-0.867-0.567-1.717-2.1-2.55
			c-1.566-0.867-3.5-1.467-5.8-1.8c-2.3-0.367-4.317-0.367-6.05,0C1.1-6.083,0.167-5.467,0-4.6c-0.133,0.833,0.583,1.684,2.15,2.55
			C3.683-1.217,5.6-0.617,7.9-0.25c2.333,0.333,4.367,0.317,6.1-0.05C15.7-0.633,16.617-1.233,16.75-2.1z"/>
	</g>
</symbol>
<symbol  id="FlashAICB_x2F_ground_spots_x2F__x3C_Path_x3E__x5F_5" viewBox="-0.009 -2.406 6.969 2.406">
	<g id="Layer_1_11_">
		<path style="fill-rule:evenodd;clip-rule:evenodd;fill:#59412F;" d="M3.7-0.35C4.633-0.583,5.433-0.867,6.1-1.2
			C6.733-1.5,7.017-1.767,6.95-2C6.917-2.267,6.533-2.4,5.8-2.4C5.067-2.433,4.233-2.333,3.3-2.1C2.333-1.867,1.533-1.583,0.9-1.25
			C0.233-0.917-0.067-0.633,0-0.4S0.467-0.033,1.2,0C1.9,0,2.733-0.117,3.7-0.35z"/>
	</g>
</symbol>
<symbol  id="FlashAICB_x2F_ground_spots_x2F__x3C_Path_x3E__x5F_8" viewBox="-0.03 -12.713 21.328 12.726">
	<g id="Layer_1_10_">
		<path style="fill-rule:evenodd;clip-rule:evenodd;fill:#59412F;" d="M16.9-0.05c2.4-0.233,3.817-1.05,4.25-2.45
			c0.467-1.4-0.167-2.967-1.9-4.7c-1.733-1.767-4.05-3.167-6.95-4.2c-2.933-1.067-5.583-1.483-7.95-1.25
			c-2.4,0.233-3.817,1.05-4.25,2.45c-0.434,1.4,0.217,2.967,1.95,4.7C3.783-3.767,6.1-2.367,9-1.3
			C11.9-0.233,14.533,0.183,16.9-0.05z"/>
	</g>
</symbol>
<symbol  id="FlashAICB_x2F_ground_spots_x2F__x3C_Path_x3E__x5F_9" viewBox="-0.009 -2.3 6.968 2.3">
	<g id="Layer_1_9_">
		<path style="fill-rule:evenodd;clip-rule:evenodd;fill:#59412F;" d="M3.3-0.35C4.267-0.117,5.1,0,5.8,0
			c0.733,0,1.117-0.117,1.15-0.35c0.066-0.233-0.233-0.5-0.9-0.8c-0.633-0.3-1.433-0.567-2.4-0.8C2.717-2.183,1.883-2.3,1.15-2.3
			C0.45-2.3,0.067-2.183,0-1.95c-0.067,0.233,0.233,0.5,0.9,0.8C1.533-0.817,2.333-0.55,3.3-0.35z"/>
	</g>
</symbol>
<use xlink:href="#FlashAICB_x2F_ground_spots_x2F__x3C_Group_x3E_"  width="191.861" height="54.063" x="0.013" y="-54.063" transform="matrix(1 0 0 -1 0 0)" style="overflow:visible;opacity:0.3008;enable-background:new    ;"/>
</svg>
