<?xml version="1.0" encoding="iso-8859-1"?>
<!-- Generator: Adobe Illustrator 15.1.0, SVG Export Plug-In . SVG Version: 6.00 Build 0)  -->
<!DOCTYPE svg PUBLIC "-//W3C//DTD SVG 1.1//EN" "http://www.w3.org/Graphics/SVG/1.1/DTD/svg11.dtd">
<svg version="1.1" id="ground_x5F_bump_4" xmlns="http://www.w3.org/2000/svg" xmlns:xlink="http://www.w3.org/1999/xlink" x="0px"
	 y="0px" width="628px" height="44.9px" viewBox="0 0 628 44.9" style="enable-background:new 0 0 628 44.9;" xml:space="preserve">
<symbol  id="FlashAICB_x2F_ground_x5F_bump_4_x2F__x3C_Path_x3E_" viewBox="0 -44.9 628 44.883">
	<g id="Layer_1_2_">
		
			<linearGradient id="SVGID_1_" gradientUnits="userSpaceOnUse" x1="16009.6758" y1="-604.8188" x2="16054.5508" y2="-604.8188" gradientTransform="matrix(2.228412e-005 1 -1 -0.001 -291.1758 -16055.1689)">
			<stop  offset="0" style="stop-color:#000000;stop-opacity:0"/>
			<stop  offset="1" style="stop-color:#000000;stop-opacity:0.8"/>
		</linearGradient>
		<path style="fill-rule:evenodd;clip-rule:evenodd;fill:url(#SVGID_1_);" d="M628-44.9L0-44.2
			c10.467,5.333,25.383,11.117,44.75,17.35C83.55-14.417,125.3-5.983,170-1.55c11.2,1.1,22.15,1.383,32.85,0.85
			c5-0.267,13.566-1.083,25.7-2.45c9.9-1.1,18.067-1.633,24.5-1.6c9.4,0.067,19.184,1.167,29.35,3.3c8.434,1.767,19.8,1.9,34.1,0.4
			c9.5-1,23.533-3.184,42.1-6.55c21.267-3.867,36.017-6.367,44.25-7.5c16.267-2.233,29.767-3.05,40.5-2.45
			c67.767,3.9,118.867,0.517,153.3-10.15c10.767-3.333,19.217-7.2,25.35-11.6C625.1-41.5,627.1-43.367,628-44.9z"/>
	</g>
</symbol>
<use xlink:href="#FlashAICB_x2F_ground_x5F_bump_4_x2F__x3C_Path_x3E_"  width="628" height="44.883" y="-44.9" transform="matrix(1 0 0 -1 0 0)" style="overflow:visible;opacity:0.3008;enable-background:new    ;"/>
</svg>
