<?xml version="1.0" encoding="iso-8859-1"?>
<!-- Generator: Adobe Illustrator 15.1.0, SVG Export Plug-In . SVG Version: 6.00 Build 0)  -->
<!DOCTYPE svg PUBLIC "-//W3C//DTD SVG 1.1//EN" "http://www.w3.org/Graphics/SVG/1.1/DTD/svg11.dtd">
<svg version="1.1" id="ground_x5F_generic_1" xmlns="http://www.w3.org/2000/svg" xmlns:xlink="http://www.w3.org/1999/xlink"
	 x="0px" y="0px" width="250.2px" height="111.9px" viewBox="0 0 250.2 111.9" style="enable-background:new 0 0 250.2 111.9;"
	 xml:space="preserve">
<symbol  id="FlashAICB_x2F_ground_x5F_generic_1_x2F__x3C_Group_x3E_" viewBox="0 -10.85 79.75 10.85">
	<g id="Layer_1_25_">
		<g>
			
				<use xlink:href="#FlashAICB_x2F_ground_x5F_generic_1_x2F__x3C_Path_x3E__x5F_13_x5F_1"  width="14.15" height="4.5" y="-4.5" transform="matrix(1 0 0 1 23.3501 -2.6001)" style="overflow:visible;opacity:0.6992;enable-background:new    ;"/>
			<path style="fill-rule:evenodd;clip-rule:evenodd;fill:#55412D;" d="M44.45-1.5c0-0.4-0.434-0.75-1.3-1.05
				c-0.867-0.267-1.917-0.4-3.15-0.4s-2.283,0.133-3.15,0.4c-0.867,0.3-1.3,0.65-1.3,1.05c0,0.433,0.434,0.783,1.3,1.05
				C37.717-0.15,38.767,0,40,0s2.283-0.15,3.15-0.45C44.017-0.717,44.45-1.067,44.45-1.5z"/>
			<path style="fill-rule:evenodd;clip-rule:evenodd;fill:#55412D;" d="M43.65-5.3c0-0.167-0.2-0.317-0.6-0.45
				c-0.367-0.133-0.816-0.2-1.35-0.2c-0.534,0-1,0.067-1.4,0.2c-0.367,0.133-0.55,0.283-0.55,0.45c0,0.167,0.183,0.316,0.55,0.45
				c0.4,0.133,0.867,0.2,1.4,0.2c0.533,0,0.983-0.067,1.35-0.2C43.45-4.983,43.65-5.133,43.65-5.3z"/>
			<path style="fill-rule:evenodd;clip-rule:evenodd;fill:#55412D;" d="M52.25-9.05c0-0.5-0.683-0.934-2.05-1.3
				c-1.333-0.333-2.967-0.5-4.9-0.5c-1.933,0-3.566,0.167-4.9,0.5c-1.367,0.367-2.05,0.8-2.05,1.3s0.683,0.917,2.05,1.25
				c1.333,0.367,2.967,0.55,4.9,0.55c1.934,0,3.567-0.183,4.9-0.55C51.567-8.133,52.25-8.55,52.25-9.05z"/>
			
				<use xlink:href="#FlashAICB_x2F_ground_x5F_generic_1_x2F__x3C_Path_x3E__x5F_9_x5F_1"  width="10" height="3" y="-3" transform="matrix(1 0 0 1 51.3999 -4.6499)" style="overflow:visible;opacity:0.6992;enable-background:new    ;"/>
			<path style="fill-rule:evenodd;clip-rule:evenodd;fill:#55412D;" d="M68.1-2.95c0-0.333-0.4-0.6-1.2-0.8
				c-0.8-0.233-1.75-0.35-2.85-0.35c-1.133,0-2.083,0.117-2.85,0.35c-0.8,0.2-1.2,0.467-1.2,0.8c0,0.3,0.4,0.55,1.2,0.75
				c0.767,0.233,1.716,0.35,2.85,0.35c1.1,0,2.05-0.117,2.85-0.35C67.7-2.4,68.1-2.65,68.1-2.95z"/>
			<path style="fill-rule:evenodd;clip-rule:evenodd;fill:#55412D;" d="M65.6-5.6c0-0.367-0.517-0.55-1.55-0.55
				c-0.433,0-0.8,0.05-1.1,0.15c-0.3,0.1-0.45,0.233-0.45,0.4c0,0.367,0.517,0.55,1.55,0.55C65.083-5.05,65.6-5.233,65.6-5.6z"/>
			
				<use xlink:href="#FlashAICB_x2F_ground_x5F_generic_1_x2F__x3C_Path_x3E__x5F_6_x5F_1"  width="3.6" height="1.15" y="-1.15" transform="matrix(1 0 0 1 53.3501 -0.1499)" style="overflow:visible;opacity:0.5;enable-background:new    ;"/>
			
				<use xlink:href="#FlashAICB_x2F_ground_x5F_generic_1_x2F__x3C_Path_x3E__x5F_5_x5F_1"  width="4.45" height="1.15" y="-1.15" transform="matrix(1 0 0 1 75.2998 -2.3999)" style="overflow:visible;opacity:0.5;enable-background:new    ;"/>
			
				<use xlink:href="#FlashAICB_x2F_ground_x5F_generic_1_x2F__x3C_Path_x3E__x5F_4_x5F_1"  width="6.95" height="2.1" y="-2.1" transform="matrix(1 0 0 1 14.75 -8)" style="overflow:visible;opacity:0.5;enable-background:new    ;"/>
			<path style="fill-rule:evenodd;clip-rule:evenodd;fill:#55412D;" d="M22.5-5.95c0-0.167-0.167-0.3-0.5-0.4
				c-0.367-0.133-0.8-0.2-1.3-0.2s-0.917,0.066-1.25,0.2c-0.367,0.1-0.55,0.233-0.55,0.4c0,0.367,0.6,0.55,1.8,0.55
				C21.9-5.4,22.5-5.583,22.5-5.95z"/>
			<path style="fill-rule:evenodd;clip-rule:evenodd;fill:#55412D;" d="M3.6-9.05C3.6-9.483,3-9.7,1.8-9.7
				c-0.5,0-0.917,0.067-1.25,0.2C0.183-9.367,0-9.217,0-9.05C0-8.883,0.183-8.733,0.55-8.6C0.883-8.467,1.3-8.4,1.8-8.4
				s0.934-0.067,1.3-0.2C3.433-8.733,3.6-8.883,3.6-9.05z"/>
			
				<use xlink:href="#FlashAICB_x2F_ground_x5F_generic_1_x2F__x3C_Path_x3E__x5F_1_x5F_1"  width="8.35" height="2.4" y="-2.4" transform="matrix(1 0 0 1 3.3501 -5.0498)" style="overflow:visible;opacity:0.6992;enable-background:new    ;"/>
			
				<use xlink:href="#FlashAICB_x2F_ground_x5F_generic_1_x2F__x3C_Path_x3E__x5F_2"  width="3.6" height="1.2" y="-1.2" transform="matrix(1 0 0 1 67.7998 -4.3501)" style="overflow:visible;opacity:0.6992;enable-background:new    ;"/>
		</g>
	</g>
</symbol>
<symbol  id="FlashAICB_x2F_ground_x5F_generic_1_x2F__x3C_Group_x3E__x5F_1" viewBox="0 -10.85 79.75 10.85">
	<g id="Layer_1_24_">
		<g>
			
				<use xlink:href="#FlashAICB_x2F_ground_x5F_generic_1_x2F__x3C_Path_x3E__x5F_13_x5F_0"  width="14.15" height="4.5" y="-4.5" transform="matrix(1 0 0 1 23.3501 -2.6001)" style="overflow:visible;opacity:0.6992;enable-background:new    ;"/>
			<path style="fill-rule:evenodd;clip-rule:evenodd;fill:#55412D;" d="M44.45-1.5c0-0.4-0.434-0.75-1.3-1.05
				C42.283-2.85,41.233-3,40-3c-1.2,0-2.25,0.15-3.15,0.45c-0.867,0.3-1.3,0.65-1.3,1.05c0,0.433,0.434,0.783,1.3,1.05
				C37.717-0.15,38.767,0,40,0s2.283-0.15,3.15-0.45C44.017-0.717,44.45-1.067,44.45-1.5z"/>
			<path style="fill-rule:evenodd;clip-rule:evenodd;fill:#55412D;" d="M43.65-5.35c0-0.167-0.2-0.316-0.6-0.45
				C42.683-5.933,42.233-6,41.7-6c-0.534,0-1,0.067-1.4,0.2c-0.367,0.133-0.55,0.283-0.55,0.45c0,0.2,0.183,0.367,0.55,0.5
				s0.833,0.2,1.4,0.2c0.533,0,0.983-0.067,1.35-0.2C43.45-4.983,43.65-5.15,43.65-5.35z"/>
			<path style="fill-rule:evenodd;clip-rule:evenodd;fill:#55412D;" d="M52.25-9.05c0-0.5-0.683-0.934-2.05-1.3
				c-1.333-0.333-2.967-0.5-4.9-0.5c-1.933,0-3.566,0.167-4.9,0.5c-1.367,0.367-2.05,0.8-2.05,1.3c0,0.466,0.683,0.883,2.05,1.25
				c1.367,0.333,3,0.5,4.9,0.5c1.934,0,3.567-0.167,4.9-0.5C51.567-8.167,52.25-8.583,52.25-9.05z"/>
			
				<use xlink:href="#FlashAICB_x2F_ground_x5F_generic_1_x2F__x3C_Path_x3E__x5F_9_x5F_0"  width="10" height="3" y="-3" transform="matrix(1 0 0 1 51.3999 -4.6499)" style="overflow:visible;opacity:0.6992;enable-background:new    ;"/>
			<path style="fill-rule:evenodd;clip-rule:evenodd;fill:#55412D;" d="M68.1-3c0-0.3-0.4-0.567-1.2-0.8
				c-0.767-0.2-1.717-0.3-2.85-0.3C62.95-4.1,62-4,61.2-3.8C60.4-3.567,60-3.3,60-3c0,0.333,0.4,0.6,1.2,0.8
				c0.8,0.233,1.75,0.35,2.85,0.35c1.133,0,2.083-0.117,2.85-0.35C67.7-2.4,68.1-2.667,68.1-3z"/>
			<path style="fill-rule:evenodd;clip-rule:evenodd;fill:#55412D;" d="M65.6-5.6c0-0.367-0.517-0.55-1.55-0.55
				c-0.433,0-0.8,0.05-1.1,0.15c-0.3,0.1-0.45,0.233-0.45,0.4c0,0.367,0.517,0.55,1.55,0.55C65.083-5.05,65.6-5.233,65.6-5.6z"/>
			
				<use xlink:href="#FlashAICB_x2F_ground_x5F_generic_1_x2F__x3C_Path_x3E__x5F_6_x5F_0"  width="3.6" height="1.1" y="-1.1" transform="matrix(1 0 0 1 53.3501 -0.2002)" style="overflow:visible;opacity:0.5;enable-background:new    ;"/>
			
				<use xlink:href="#FlashAICB_x2F_ground_x5F_generic_1_x2F__x3C_Path_x3E__x5F_5_x5F_0"  width="4.45" height="1.1" y="-1.1" transform="matrix(1 0 0 1 75.2998 -2.4502)" style="overflow:visible;opacity:0.5;enable-background:new    ;"/>
			
				<use xlink:href="#FlashAICB_x2F_ground_x5F_generic_1_x2F__x3C_Path_x3E__x5F_4_x5F_0"  width="6.95" height="2.05" y="-2.05" transform="matrix(1 0 0 1 14.75 -8.0498)" style="overflow:visible;opacity:0.5;enable-background:new    ;"/>
			<path style="fill-rule:evenodd;clip-rule:evenodd;fill:#55412D;" d="M22.5-6c0-0.367-0.6-0.55-1.8-0.55
				c-0.5,0-0.917,0.05-1.25,0.15C19.083-6.3,18.9-6.167,18.9-6c0,0.4,0.6,0.6,1.8,0.6C21.9-5.4,22.5-5.6,22.5-6z"/>
			<path style="fill-rule:evenodd;clip-rule:evenodd;fill:#55412D;" d="M3.6-9.05C3.6-9.483,3-9.7,1.8-9.7C0.6-9.7,0-9.483,0-9.05
				C0-8.883,0.183-8.733,0.55-8.6C0.883-8.467,1.3-8.4,1.8-8.4s0.934-0.067,1.3-0.2C3.433-8.733,3.6-8.883,3.6-9.05z"/>
			
				<use xlink:href="#FlashAICB_x2F_ground_x5F_generic_1_x2F__x3C_Path_x3E__x5F_1_x5F_0"  width="8.35" height="2.45" y="-2.45" transform="matrix(1 0 0 1 3.3501 -5.0498)" style="overflow:visible;opacity:0.6992;enable-background:new    ;"/>
			
				<use xlink:href="#FlashAICB_x2F_ground_x5F_generic_1_x2F__x3C_Path_x3E__x5F_0"  width="3.6" height="1.2" y="-1.2" transform="matrix(1 0 0 1 67.7998 -4.3501)" style="overflow:visible;opacity:0.6992;enable-background:new    ;"/>
		</g>
	</g>
</symbol>
<symbol  id="FlashAICB_x2F_ground_x5F_generic_1_x2F__x3C_Group_x3E__x5F_2" viewBox="0 -17.35 117.25 17.35">
	<g id="Layer_1_23_">
		<g>
			
				<use xlink:href="#FlashAICB_x2F_ground_x5F_generic_1_x2F__x3C_Path_x3E__x5F_13"  width="20.85" height="7.15" y="-7.15" transform="matrix(1 0 0 1 34.2998 -4.2002)" style="overflow:visible;opacity:0.6992;enable-background:new    ;"/>
			<path style="fill-rule:evenodd;clip-rule:evenodd;fill:#55412D;" d="M65.35-2.4c0-0.667-0.633-1.233-1.9-1.7
				c-1.267-0.467-2.8-0.7-4.6-0.7c-1.8,0-3.35,0.233-4.65,0.7c-1.267,0.467-1.9,1.033-1.9,1.7c0,0.667,0.633,1.233,1.9,1.7
				C55.467-0.233,57.017,0,58.85,0c1.8,0,3.333-0.233,4.6-0.7C64.717-1.167,65.35-1.733,65.35-2.4z"/>
			<path style="fill-rule:evenodd;clip-rule:evenodd;fill:#55412D;" d="M64.15-8.5c0-0.3-0.283-0.55-0.85-0.75
				c-0.533-0.2-1.2-0.3-2-0.3c-0.8,0-1.466,0.1-2,0.3c-0.566,0.2-0.85,0.45-0.85,0.75c0,0.267,0.283,0.517,0.85,0.75
				c0.534,0.2,1.2,0.3,2,0.3c0.767,0,1.434-0.1,2-0.3C63.867-7.983,64.15-8.233,64.15-8.5z"/>
			<path style="fill-rule:evenodd;clip-rule:evenodd;fill:#55412D;" d="M76.8-14.5c0-0.767-1-1.433-3-2s-4.4-0.85-7.2-0.85
				c-2.8,0-5.2,0.283-7.2,0.85s-3,1.233-3,2s1,1.433,3,2s4.4,0.85,7.2,0.85c2.8,0,5.2-0.283,7.2-0.85S76.8-13.733,76.8-14.5z"/>
			
				<use xlink:href="#FlashAICB_x2F_ground_x5F_generic_1_x2F__x3C_Path_x3E__x5F_9"  width="14.7" height="4.8" y="-4.8" transform="matrix(1 0 0 1 75.6001 -7.4502)" style="overflow:visible;opacity:0.6992;enable-background:new    ;"/>
			<path style="fill-rule:evenodd;clip-rule:evenodd;fill:#55412D;" d="M100.1-4.8c0-0.467-0.583-0.883-1.75-1.25
				c-1.167-0.333-2.567-0.5-4.2-0.5S91.133-6.383,90-6.05c-1.167,0.367-1.75,0.783-1.75,1.25c0,0.5,0.583,0.917,1.75,1.25
				C91.133-3.183,92.517-3,94.15-3c1.667,0,3.067-0.183,4.2-0.55C99.517-3.883,100.1-4.3,100.1-4.8z"/>
			<path style="fill-rule:evenodd;clip-rule:evenodd;fill:#55412D;" d="M96.4-8.95c0-0.267-0.217-0.483-0.65-0.65
				c-0.433-0.167-0.967-0.25-1.6-0.25c-0.6,0-1.117,0.083-1.55,0.25c-0.467,0.2-0.7,0.417-0.7,0.65c0,0.233,0.233,0.45,0.7,0.65
				c0.433,0.167,0.95,0.25,1.55,0.25c0.633,0,1.167-0.083,1.6-0.25C96.183-8.5,96.4-8.717,96.4-8.95z"/>
			
				<use xlink:href="#FlashAICB_x2F_ground_x5F_generic_1_x2F__x3C_Path_x3E__x5F_6"  width="5.3" height="1.8" y="-1.8" transform="matrix(1 0 0 1 78.4502 -0.2998)" style="overflow:visible;opacity:0.5;enable-background:new    ;"/>
			
				<use xlink:href="#FlashAICB_x2F_ground_x5F_generic_1_x2F__x3C_Path_x3E__x5F_5"  width="6.55" height="1.8" y="-1.8" transform="matrix(1 0 0 1 110.7002 -3.8999)" style="overflow:visible;opacity:0.5;enable-background:new    ;"/>
			
				<use xlink:href="#FlashAICB_x2F_ground_x5F_generic_1_x2F__x3C_Path_x3E__x5F_4"  width="10.2" height="3.3" y="-3.3" transform="matrix(1 0 0 1 21.6499 -12.8501)" style="overflow:visible;opacity:0.5;enable-background:new    ;"/>
			<path style="fill-rule:evenodd;clip-rule:evenodd;fill:#55412D;" d="M33.1-9.55c0-0.267-0.267-0.483-0.8-0.65
				c-0.5-0.167-1.117-0.25-1.85-0.25c-0.733,0-1.35,0.083-1.85,0.25c-0.533,0.167-0.8,0.383-0.8,0.65c0,0.233,0.267,0.45,0.8,0.65
				c0.5,0.167,1.117,0.25,1.85,0.25c0.733,0,1.35-0.083,1.85-0.25C32.833-9.1,33.1-9.317,33.1-9.55z"/>
			<path style="fill-rule:evenodd;clip-rule:evenodd;fill:#55412D;" d="M5.3-14.5c0-0.3-0.25-0.55-0.75-0.75s-1.133-0.3-1.9-0.3
				c-0.733,0-1.35,0.1-1.85,0.3C0.267-15.05,0-14.8,0-14.5s0.267,0.55,0.8,0.75c0.5,0.2,1.117,0.3,1.85,0.3c0.767,0,1.4-0.1,1.9-0.3
				S5.3-14.2,5.3-14.5z"/>
			
				<use xlink:href="#FlashAICB_x2F_ground_x5F_generic_1_x2F__x3C_Path_x3E__x5F_1"  width="12.25" height="3.9" y="-3.9" transform="matrix(1 0 0 1 4.8999 -8.0498)" style="overflow:visible;opacity:0.6992;enable-background:new    ;"/>
			
				<use xlink:href="#FlashAICB_x2F_ground_x5F_generic_1_x2F__x3C_Path_x3E_"  width="5.3" height="1.95" y="-1.95" transform="matrix(1 0 0 1 99.7002 -6.9502)" style="overflow:visible;opacity:0.6992;enable-background:new    ;"/>
		</g>
	</g>
</symbol>
<symbol  id="FlashAICB_x2F_ground_x5F_generic_1_x2F__x3C_Path_x3E_" viewBox="0 -1.95 5.3 1.95">
	<g id="Layer_1_8_">
		<path style="fill-rule:evenodd;clip-rule:evenodd;fill:#55412D;" d="M5.3-0.95c0-0.267-0.267-0.5-0.8-0.7
			c-0.5-0.2-1.117-0.3-1.85-0.3s-1.367,0.1-1.9,0.3C0.25-1.45,0-1.217,0-0.95C0-0.683,0.25-0.467,0.75-0.3C1.283-0.1,1.917,0,2.65,0
			S4-0.1,4.5-0.3C5.033-0.467,5.3-0.683,5.3-0.95z"/>
	</g>
</symbol>
<symbol  id="FlashAICB_x2F_ground_x5F_generic_1_x2F__x3C_Path_x3E__x5F_0" viewBox="0 -1.2 3.6 1.2">
	<g id="Layer_1_15_">
		<path style="fill-rule:evenodd;clip-rule:evenodd;fill:#55412D;" d="M3.6-0.6C3.6-1,3-1.2,1.8-1.2C0.6-1.2,0-1,0-0.6S0.6,0,1.8,0
			C3,0,3.6-0.2,3.6-0.6z"/>
	</g>
</symbol>
<symbol  id="FlashAICB_x2F_ground_x5F_generic_1_x2F__x3C_Path_x3E__x5F_1" viewBox="0 -3.9 12.25 3.9">
	<g id="Layer_1_7_">
		<path style="fill-rule:evenodd;clip-rule:evenodd;fill:#55412D;" d="M12.25-1.95c0-0.533-0.6-1-1.8-1.4
			C9.283-3.717,7.85-3.9,6.15-3.9C4.45-3.9,3-3.717,1.8-3.35C0.6-2.95,0-2.483,0-1.95C0-1.417,0.6-0.967,1.8-0.6
			C3-0.2,4.45,0,6.15,0c1.667,0,3.1-0.2,4.3-0.6C11.65-0.967,12.25-1.417,12.25-1.95z"/>
	</g>
</symbol>
<symbol  id="FlashAICB_x2F_ground_x5F_generic_1_x2F__x3C_Path_x3E__x5F_13" viewBox="0 -7.15 20.85 7.15">
	<g id="Layer_1_2_">
		<path style="fill-rule:evenodd;clip-rule:evenodd;fill:#55412D;" d="M20.85-3.55c0-1-1.017-1.85-3.05-2.55
			c-2.033-0.7-4.483-1.05-7.35-1.05S5.117-6.8,3.05-6.1C1.017-5.4,0-4.55,0-3.55c0,0.966,1.017,1.8,3.05,2.5
			C5.117-0.35,7.583,0,10.45,0s5.316-0.35,7.35-1.05C19.833-1.75,20.85-2.583,20.85-3.55z"/>
	</g>
</symbol>
<symbol  id="FlashAICB_x2F_ground_x5F_generic_1_x2F__x3C_Path_x3E__x5F_13_x5F_0" viewBox="0 -4.5 14.15 4.5">
	<g id="Layer_1_9_">
		<path style="fill-rule:evenodd;clip-rule:evenodd;fill:#55412D;" d="M14.15-2.25c0-0.633-0.683-1.167-2.05-1.6
			c-1.367-0.433-3.033-0.65-5-0.65S3.45-4.283,2.05-3.85C0.683-3.417,0-2.883,0-2.25s0.683,1.167,2.05,1.6C3.45-0.217,5.133,0,7.1,0
			s3.633-0.217,5-0.65C13.467-1.083,14.15-1.617,14.15-2.25z"/>
	</g>
</symbol>
<symbol  id="FlashAICB_x2F_ground_x5F_generic_1_x2F__x3C_Path_x3E__x5F_13_x5F_1" viewBox="0 -4.5 14.15 4.5">
	<g id="Layer_1_16_">
		<path style="fill-rule:evenodd;clip-rule:evenodd;fill:#55412D;" d="M14.15-2.25c0-0.633-0.683-1.167-2.05-1.6
			c-1.367-0.433-3.033-0.65-5-0.65S3.45-4.283,2.05-3.85C0.683-3.417,0-2.883,0-2.25s0.683,1.167,2.05,1.6C3.45-0.217,5.133,0,7.1,0
			s3.633-0.217,5-0.65C13.467-1.083,14.15-1.617,14.15-2.25z"/>
	</g>
</symbol>
<symbol  id="FlashAICB_x2F_ground_x5F_generic_1_x2F__x3C_Path_x3E__x5F_1_x5F_0" viewBox="0 -2.45 8.35 2.45">
	<g id="Layer_1_14_">
		<path style="fill-rule:evenodd;clip-rule:evenodd;fill:#55412D;" d="M8.35-1.2c0-0.333-0.417-0.633-1.25-0.9
			C6.3-2.333,5.317-2.45,4.15-2.45C2.983-2.45,2-2.333,1.2-2.1C0.4-1.867,0-1.567,0-1.2c0,0.333,0.4,0.617,1.2,0.85
			C2.033-0.117,3.017,0,4.15,0S6.267-0.117,7.1-0.35C7.933-0.583,8.35-0.867,8.35-1.2z"/>
	</g>
</symbol>
<symbol  id="FlashAICB_x2F_ground_x5F_generic_1_x2F__x3C_Path_x3E__x5F_1_x5F_1" viewBox="0 -2.4 8.35 2.4">
	<g id="Layer_1_21_">
		<path style="fill-rule:evenodd;clip-rule:evenodd;fill:#55412D;" d="M8.35-1.2c0-0.333-0.417-0.617-1.25-0.85
			C6.267-2.283,5.283-2.4,4.15-2.4S2.033-2.283,1.2-2.05C0.4-1.817,0-1.533,0-1.2c0,0.333,0.4,0.617,1.2,0.85
			C2-0.117,2.983,0,4.15,0C5.317,0,6.3-0.117,7.1-0.35C7.933-0.583,8.35-0.867,8.35-1.2z"/>
	</g>
</symbol>
<symbol  id="FlashAICB_x2F_ground_x5F_generic_1_x2F__x3C_Path_x3E__x5F_2" viewBox="0 -1.2 3.6 1.2">
	<g id="Layer_1_22_">
		<path style="fill-rule:evenodd;clip-rule:evenodd;fill:#55412D;" d="M3.6-0.6c0-0.167-0.167-0.3-0.5-0.4
			C2.733-1.133,2.3-1.2,1.8-1.2S0.883-1.133,0.55-1C0.183-0.9,0-0.767,0-0.6C0-0.2,0.6,0,1.8,0C3,0,3.6-0.2,3.6-0.6z"/>
	</g>
</symbol>
<symbol  id="FlashAICB_x2F_ground_x5F_generic_1_x2F__x3C_Path_x3E__x5F_4" viewBox="0 -3.3 10.2 3.3">
	<g id="Layer_1_6_">
		<path style="fill-rule:evenodd;clip-rule:evenodd;fill:#55412D;" d="M10.2-1.65c0-0.467-0.5-0.85-1.5-1.15
			C7.733-3.133,6.533-3.3,5.1-3.3c-1.4,0-2.6,0.167-3.6,0.5C0.5-2.5,0-2.117,0-1.65C0-1.217,0.5-0.833,1.5-0.5S3.7,0,5.1,0
			c1.433,0,2.633-0.167,3.6-0.5C9.7-0.8,10.2-1.183,10.2-1.65z"/>
	</g>
</symbol>
<symbol  id="FlashAICB_x2F_ground_x5F_generic_1_x2F__x3C_Path_x3E__x5F_4_x5F_0" viewBox="0 -2.05 6.95 2.05">
	<g id="Layer_1_13_">
		<path style="fill-rule:evenodd;clip-rule:evenodd;fill:#55412D;" d="M6.95-1c0-0.3-0.333-0.55-1-0.75c-0.7-0.2-1.534-0.3-2.5-0.3
			c-0.967,0-1.784,0.1-2.45,0.3S0-1.3,0-1c0,0.267,0.333,0.5,1,0.7C1.7-0.1,2.517,0,3.45,0c0.966,0,1.8-0.1,2.5-0.3
			C6.617-0.5,6.95-0.733,6.95-1z"/>
	</g>
</symbol>
<symbol  id="FlashAICB_x2F_ground_x5F_generic_1_x2F__x3C_Path_x3E__x5F_4_x5F_1" viewBox="0 -2.1 6.95 2.1">
	<g id="Layer_1_20_">
		<path style="fill-rule:evenodd;clip-rule:evenodd;fill:#55412D;" d="M6.95-1.05c0-0.267-0.35-0.517-1.05-0.75
			C5.2-2,4.383-2.1,3.45-2.1C2.517-2.1,1.7-2,1-1.8C0.333-1.567,0-1.317,0-1.05C0-0.783,0.333-0.533,1-0.3C1.7-0.1,2.517,0,3.45,0
			C4.383,0,5.2-0.1,5.9-0.3C6.6-0.533,6.95-0.783,6.95-1.05z"/>
	</g>
</symbol>
<symbol  id="FlashAICB_x2F_ground_x5F_generic_1_x2F__x3C_Path_x3E__x5F_5" viewBox="0 -1.8 6.55 1.8">
	<g id="Layer_1_5_">
		<path style="fill-rule:evenodd;clip-rule:evenodd;fill:#55412D;" d="M6.55-0.9c0-0.267-0.316-0.483-0.95-0.65
			C4.967-1.717,4.2-1.8,3.3-1.8c-0.933,0-1.716,0.083-2.35,0.25C0.317-1.383,0-1.167,0-0.9c0,0.233,0.317,0.45,0.95,0.65
			C1.583-0.083,2.367,0,3.3,0c0.9,0,1.667-0.083,2.3-0.25C6.233-0.45,6.55-0.667,6.55-0.9z"/>
	</g>
</symbol>
<symbol  id="FlashAICB_x2F_ground_x5F_generic_1_x2F__x3C_Path_x3E__x5F_5_x5F_0" viewBox="0 -1.1 4.45 1.1">
	<g id="Layer_1_12_">
		<path style="fill-rule:evenodd;clip-rule:evenodd;fill:#55412D;" d="M4.45-0.55c0-0.367-0.733-0.55-2.2-0.55
			C0.75-1.1,0-0.917,0-0.55S0.75,0,2.25,0c0.6,0,1.117-0.05,1.55-0.15C4.233-0.283,4.45-0.417,4.45-0.55z"/>
	</g>
</symbol>
<symbol  id="FlashAICB_x2F_ground_x5F_generic_1_x2F__x3C_Path_x3E__x5F_5_x5F_1" viewBox="0 -1.15 4.45 1.15">
	<g id="Layer_1_19_">
		<path style="fill-rule:evenodd;clip-rule:evenodd;fill:#55412D;" d="M4.45-0.55c0-0.4-0.75-0.6-2.25-0.6c-1.467,0-2.2,0.2-2.2,0.6
			c0,0.133,0.217,0.267,0.65,0.4C1.083-0.05,1.6,0,2.2,0C3.7,0,4.45-0.183,4.45-0.55z"/>
	</g>
</symbol>
<symbol  id="FlashAICB_x2F_ground_x5F_generic_1_x2F__x3C_Path_x3E__x5F_6" viewBox="0 -1.8 5.3 1.8">
	<g id="Layer_1_4_">
		<path style="fill-rule:evenodd;clip-rule:evenodd;fill:#55412D;" d="M5.3-0.9c0-0.267-0.267-0.483-0.8-0.65
			C4-1.717,3.383-1.8,2.65-1.8S1.3-1.717,0.8-1.55C0.267-1.383,0-1.167,0-0.9c0,0.233,0.267,0.45,0.8,0.65C1.3-0.083,1.917,0,2.65,0
			S4-0.083,4.5-0.25C5.033-0.45,5.3-0.667,5.3-0.9z"/>
	</g>
</symbol>
<symbol  id="FlashAICB_x2F_ground_x5F_generic_1_x2F__x3C_Path_x3E__x5F_6_x5F_0" viewBox="0 -1.1 3.6 1.1">
	<g id="Layer_1_11_">
		<path style="fill-rule:evenodd;clip-rule:evenodd;fill:#55412D;" d="M3.6-0.55C3.6-0.917,3-1.1,1.8-1.1
			c-0.5,0-0.917,0.05-1.25,0.15C0.183-0.85,0-0.717,0-0.55C0-0.183,0.6,0,1.8,0C3,0,3.6-0.183,3.6-0.55z"/>
	</g>
</symbol>
<symbol  id="FlashAICB_x2F_ground_x5F_generic_1_x2F__x3C_Path_x3E__x5F_6_x5F_1" viewBox="0 -1.15 3.6 1.15">
	<g id="Layer_1_18_">
		<path style="fill-rule:evenodd;clip-rule:evenodd;fill:#55412D;" d="M3.6-0.6c0-0.367-0.6-0.55-1.8-0.55
			C1.3-1.15,0.883-1.1,0.55-1C0.183-0.9,0-0.767,0-0.6C0-0.2,0.6,0,1.8,0C3,0,3.6-0.2,3.6-0.6z"/>
	</g>
</symbol>
<symbol  id="FlashAICB_x2F_ground_x5F_generic_1_x2F__x3C_Path_x3E__x5F_9" viewBox="0 -4.8 14.7 4.8">
	<g id="Layer_1_3_">
		<path style="fill-rule:evenodd;clip-rule:evenodd;fill:#55412D;" d="M14.7-2.4c0-0.667-0.717-1.233-2.15-1.7
			c-1.433-0.467-3.167-0.7-5.2-0.7c-2.067,0-3.8,0.233-5.2,0.7C0.717-3.633,0-3.067,0-2.4c0,0.667,0.717,1.233,2.15,1.7
			C3.583-0.233,5.317,0,7.35,0s3.767-0.233,5.2-0.7C13.983-1.167,14.7-1.733,14.7-2.4z"/>
	</g>
</symbol>
<symbol  id="FlashAICB_x2F_ground_x5F_generic_1_x2F__x3C_Path_x3E__x5F_9_x5F_0" viewBox="0 -3 10 3">
	<g id="Layer_1_10_">
		<path style="fill-rule:evenodd;clip-rule:evenodd;fill:#55412D;" d="M10-1.5c0-0.433-0.483-0.783-1.45-1.05C7.583-2.85,6.4-3,5-3
			S2.417-2.85,1.45-2.55C0.483-2.283,0-1.933,0-1.5c0,0.4,0.483,0.75,1.45,1.05C2.45-0.15,3.633,0,5,0s2.55-0.15,3.55-0.45
			C9.517-0.75,10-1.1,10-1.5z"/>
	</g>
</symbol>
<symbol  id="FlashAICB_x2F_ground_x5F_generic_1_x2F__x3C_Path_x3E__x5F_9_x5F_1" viewBox="0 -3 10 3">
	<g id="Layer_1_17_">
		<path style="fill-rule:evenodd;clip-rule:evenodd;fill:#55412D;" d="M10-1.5c0-0.433-0.483-0.783-1.45-1.05C7.583-2.85,6.4-3,5-3
			S2.417-2.85,1.45-2.55C0.483-2.283,0-1.933,0-1.5c0,0.4,0.483,0.75,1.45,1.05C2.45-0.15,3.633,0,5,0s2.55-0.15,3.55-0.45
			C9.517-0.75,10-1.1,10-1.5z"/>
	</g>
</symbol>
<path style="fill-rule:evenodd;clip-rule:evenodd;fill:#4C3B2A;" d="M244.65,58.9c3.6,1.666,5.449,3.399,5.55,5.199
	c0.166,2.434-1.033,5.817-3.601,10.15c-3.1,5.2-7.35,10.116-12.75,14.75c-15.033,12.833-34.916,20.033-59.649,21.6
	c-66.133,4.233-114.883-1.716-146.25-17.85C17.383,87.283,9.6,81.05,4.6,74.05c-3.7-5.233-5.167-9.217-4.4-11.95
	c0.867-2.966,5.783-6.2,14.75-9.7c4.5-1.733,8.917-3.167,13.25-4.3c6.5-0.867,13.867-3.867,22.1-9
	c4.367-2.7,11.733-8.017,22.1-15.95c9.533-7.3,17-12.467,22.4-15.5c8.333-4.7,15.967-7.217,22.9-7.55
	c18.267-0.867,36.517,4.3,54.75,15.5c9.533,5.867,20.283,14.533,32.25,26c4.2,4.033,13.283,8.283,27.25,12.75
	C238.217,56.35,242.45,57.866,244.65,58.9z"/>
<use xlink:href="#FlashAICB_x2F_ground_x5F_generic_1_x2F__x3C_Group_x3E__x5F_2"  width="117.25" height="17.35" y="-17.35" transform="matrix(1 0 0 -1 103.1001 70.0996)" style="overflow:visible;opacity:0.3008;enable-background:new    ;"/>
<use xlink:href="#FlashAICB_x2F_ground_x5F_generic_1_x2F__x3C_Group_x3E__x5F_1"  width="79.75" height="10.85" y="-10.85" transform="matrix(1 0 0 -1 60.1001 33.6001)" style="overflow:visible;opacity:0.3008;enable-background:new    ;"/>
<use xlink:href="#FlashAICB_x2F_ground_x5F_generic_1_x2F__x3C_Group_x3E_"  width="79.75" height="10.85" y="-10.85" transform="matrix(1 0 0 -1 88.8999 20.0498)" style="overflow:visible;opacity:0.3008;enable-background:new    ;"/>
</svg>
