<?xml version="1.0" encoding="iso-8859-1"?>
<!-- Generator: Adobe Illustrator 15.1.0, SVG Export Plug-In . SVG Version: 6.00 Build 0)  -->
<!DOCTYPE svg PUBLIC "-//W3C//DTD SVG 1.1//EN" "http://www.w3.org/Graphics/SVG/1.1/DTD/svg11.dtd">
<svg version="1.1" id="ground_spots" xmlns="http://www.w3.org/2000/svg" xmlns:xlink="http://www.w3.org/1999/xlink" x="0px"
	 y="0px" width="223.65px" height="21.1px" viewBox="0 0 223.65 21.1" style="enable-background:new 0 0 223.65 21.1;"
	 xml:space="preserve">
<symbol  id="FlashAICB_x2F_ground_spots_x2F__x3C_Group_x3E_" viewBox="0 -21.1 223.65 21.1">
	<g id="Layer_1_9_">
		<g>
			
				<use xlink:href="#FlashAICB_x2F_ground_spots_x2F__x3C_Path_x3E__x5F_13"  width="27.25" height="9.4" y="-9.4" transform="matrix(1 0 0 1 139.6504 -1.1499)" style="overflow:visible;opacity:0.6992;enable-background:new    ;"/>
			<path style="fill-rule:evenodd;clip-rule:evenodd;fill:#59412F;" d="M126.3-12.9c0,0.867,0.833,1.617,2.5,2.25
				c1.667,0.6,3.684,0.9,6.05,0.9s4.383-0.3,6.05-0.9c1.667-0.633,2.5-1.383,2.5-2.25s-0.833-1.6-2.5-2.2
				c-1.7-0.6-3.717-0.9-6.05-0.9c-2.367,0-4.383,0.3-6.05,0.9C127.133-14.5,126.3-13.767,126.3-12.9z"/>
			<path style="fill-rule:evenodd;clip-rule:evenodd;fill:#59412F;" d="M127.9-4.85c0,0.367,0.367,0.684,1.1,0.95
				c0.7,0.267,1.567,0.4,2.6,0.4s1.917-0.133,2.65-0.4s1.1-0.583,1.1-0.95s-0.367-0.7-1.1-1c-0.733-0.267-1.617-0.4-2.65-0.4
				c-1,0-1.867,0.133-2.6,0.4C128.267-5.55,127.9-5.217,127.9-4.85z"/>
			<path style="fill-rule:evenodd;clip-rule:evenodd;fill:#59412F;" d="M210.25-8.25c-3.667,0-6.817,0.367-9.45,1.1
				c-2.6,0.7-3.9,1.566-3.9,2.6c0,1.033,1.3,1.917,3.9,2.65c2.633,0.733,5.784,1.1,9.45,1.1c3.7,0,6.867-0.367,9.5-1.1
				c2.6-0.733,3.9-1.617,3.9-2.65c0-1.034-1.3-1.9-3.9-2.6C217.117-7.883,213.95-8.25,210.25-8.25z"/>
			
				<use xlink:href="#FlashAICB_x2F_ground_spots_x2F__x3C_Path_x3E__x5F_9"  width="19.2" height="6.25" y="-6.25" transform="matrix(1 0 0 1 93.7002 0)" style="overflow:visible;opacity:0.6992;enable-background:new    ;"/>
			<path style="fill-rule:evenodd;clip-rule:evenodd;fill:#59412F;" d="M83.1-11.4c-1.5,0.433-2.25,0.983-2.25,1.65
				c0,0.633,0.75,1.183,2.25,1.65c1.533,0.467,3.367,0.7,5.5,0.7s3.967-0.233,5.5-0.7c1.5-0.467,2.25-1.017,2.25-1.65
				c0-0.667-0.75-1.217-2.25-1.65c-1.533-0.467-3.367-0.7-5.5-0.7S84.633-11.867,83.1-11.4z"/>
			<path style="fill-rule:evenodd;clip-rule:evenodd;fill:#59412F;" d="M85.65-4.3c0,0.333,0.3,0.617,0.9,0.85
				C87.117-3.217,87.8-3.1,88.6-3.1c0.833,0,1.533-0.117,2.1-0.35c0.566-0.233,0.85-0.517,0.85-0.85c0-0.333-0.283-0.6-0.85-0.8
				c-0.567-0.233-1.267-0.35-2.1-0.35c-0.8,0-1.483,0.117-2.05,0.35C85.95-4.9,85.65-4.633,85.65-4.3z"/>
			
				<use xlink:href="#FlashAICB_x2F_ground_spots_x2F__x3C_Path_x3E__x5F_6"  width="6.95" height="2.35" y="-2.35" transform="matrix(1 0 0 1 102.25 -13.2998)" style="overflow:visible;opacity:0.5;enable-background:new    ;"/>
			
				<use xlink:href="#FlashAICB_x2F_ground_spots_x2F__x3C_Path_x3E__x5F_5"  width="8.55" height="2.35" y="-2.35" transform="matrix(1 0 0 1 58.3999 -8.6001)" style="overflow:visible;opacity:0.5;enable-background:new    ;"/>
			
				<use xlink:href="#FlashAICB_x2F_ground_spots_x2F__x3C_Path_x3E__x5F_4"  width="13.35" height="4.3" y="-4.3" transform="matrix(1 0 0 1 0 -10.5)" style="overflow:visible;opacity:0.5;enable-background:new    ;"/>
			<path style="fill-rule:evenodd;clip-rule:evenodd;fill:#59412F;" d="M168.5-3.5c0,0.333,0.333,0.617,1,0.85
				c0.7,0.233,1.517,0.35,2.45,0.35c0.966,0,1.8-0.117,2.5-0.35c0.667-0.233,1-0.517,1-0.85s-0.333-0.6-1-0.8
				c-0.7-0.233-1.534-0.35-2.5-0.35c-0.967,0-1.784,0.117-2.45,0.35C168.833-4.1,168.5-3.833,168.5-3.5z"/>
			<path style="fill-rule:evenodd;clip-rule:evenodd;fill:#59412F;" d="M40.7-13.65c-0.7-0.267-1.534-0.4-2.5-0.4
				c-0.967,0-1.784,0.133-2.45,0.4s-1,0.6-1,1c0,0.367,0.333,0.683,1,0.95c0.667,0.267,1.483,0.4,2.45,0.4
				c0.966,0,1.8-0.133,2.5-0.4c0.667-0.267,1-0.583,1-0.95C41.7-13.05,41.367-13.383,40.7-13.65z"/>
			
				<use xlink:href="#FlashAICB_x2F_ground_spots_x2F__x3C_Path_x3E__x5F_1"  width="16.05" height="5.1" y="-5.1" transform="matrix(1 0 0 1 19.25 -16)" style="overflow:visible;opacity:0.6992;enable-background:new    ;"/>
			
				<use xlink:href="#FlashAICB_x2F_ground_spots_x2F__x3C_Path_x3E_"  width="6.95" height="2.5" y="-2.5" transform="matrix(1 0 0 1 74.4502 -4.3999)" style="overflow:visible;opacity:0.6992;enable-background:new    ;"/>
		</g>
	</g>
</symbol>
<symbol  id="FlashAICB_x2F_ground_spots_x2F__x3C_Path_x3E_" viewBox="0 -2.5 6.95 2.5">
	<g id="Layer_1_8_">
		<path style="fill-rule:evenodd;clip-rule:evenodd;fill:#59412F;" d="M0-1.25c0,0.333,0.333,0.633,1,0.9
			C1.667-0.117,2.483,0,3.45,0c0.966,0,1.8-0.117,2.5-0.35c0.667-0.267,1-0.566,1-0.9c0-0.367-0.333-0.667-1-0.9
			C5.25-2.383,4.417-2.5,3.45-2.5C2.483-2.5,1.667-2.383,1-2.15C0.333-1.883,0-1.583,0-1.25z"/>
	</g>
</symbol>
<symbol  id="FlashAICB_x2F_ground_spots_x2F__x3C_Path_x3E__x5F_1" viewBox="0 -5.1 16.05 5.1">
	<g id="Layer_1_7_">
		<path style="fill-rule:evenodd;clip-rule:evenodd;fill:#59412F;" d="M0-2.55c0,0.7,0.783,1.3,2.35,1.8C3.917-0.25,5.8,0,8,0
			c2.233,0,4.133-0.25,5.7-0.75c1.566-0.5,2.35-1.1,2.35-1.8c0-0.7-0.783-1.3-2.35-1.8C12.133-4.85,10.233-5.1,8-5.1
			c-2.2,0-4.083,0.25-5.65,0.75C0.783-3.85,0-3.25,0-2.55z"/>
	</g>
</symbol>
<symbol  id="FlashAICB_x2F_ground_spots_x2F__x3C_Path_x3E__x5F_13" viewBox="0 -9.4 27.25 9.4">
	<g id="Layer_1_2_">
		<path style="fill-rule:evenodd;clip-rule:evenodd;fill:#59412F;" d="M0-4.7c0,1.3,1.333,2.4,4,3.3C6.633-0.467,9.833,0,13.6,0
			s6.983-0.467,9.65-1.4c2.667-0.9,4-2,4-3.3c0-1.3-1.333-2.417-4-3.35c-2.667-0.9-5.883-1.35-9.65-1.35S6.633-8.95,4-8.05
			C1.333-7.117,0-6,0-4.7z"/>
	</g>
</symbol>
<symbol  id="FlashAICB_x2F_ground_spots_x2F__x3C_Path_x3E__x5F_4" viewBox="0 -4.3 13.35 4.3">
	<g id="Layer_1_6_">
		<path style="fill-rule:evenodd;clip-rule:evenodd;fill:#59412F;" d="M0-2.15c0,0.566,0.65,1.066,1.95,1.5
			C3.283-0.217,4.867,0,6.7,0c1.833,0,3.4-0.217,4.7-0.65c1.3-0.434,1.95-0.934,1.95-1.5c0-0.6-0.65-1.117-1.95-1.55
			c-1.267-0.4-2.833-0.6-4.7-0.6S3.25-4.1,1.95-3.7C0.65-3.267,0-2.75,0-2.15z"/>
	</g>
</symbol>
<symbol  id="FlashAICB_x2F_ground_spots_x2F__x3C_Path_x3E__x5F_5" viewBox="0 -2.35 8.55 2.35">
	<g id="Layer_1_5_">
		<path style="fill-rule:evenodd;clip-rule:evenodd;fill:#59412F;" d="M0-1.15c0,0.333,0.417,0.6,1.25,0.8C2.083-0.117,3.1,0,4.3,0
			c1.167,0,2.167-0.117,3-0.35c0.833-0.2,1.25-0.467,1.25-0.8C8.55-1.483,8.133-1.767,7.3-2c-0.833-0.233-1.833-0.35-3-0.35
			C3.1-2.35,2.083-2.233,1.25-2S0-1.483,0-1.15z"/>
	</g>
</symbol>
<symbol  id="FlashAICB_x2F_ground_spots_x2F__x3C_Path_x3E__x5F_6" viewBox="0 -2.35 6.95 2.35">
	<g id="Layer_1_4_">
		<path style="fill-rule:evenodd;clip-rule:evenodd;fill:#59412F;" d="M0-1.15c0,0.333,0.333,0.6,1,0.8C1.667-0.117,2.483,0,3.45,0
			C4.417,0,5.233-0.117,5.9-0.35c0.7-0.2,1.05-0.467,1.05-0.8C6.95-1.483,6.6-1.767,5.9-2C5.233-2.233,4.417-2.35,3.45-2.35
			C2.517-2.35,1.7-2.233,1-2C0.333-1.767,0-1.483,0-1.15z"/>
	</g>
</symbol>
<symbol  id="FlashAICB_x2F_ground_spots_x2F__x3C_Path_x3E__x5F_9" viewBox="0 -6.25 19.2 6.25">
	<g id="Layer_1_3_">
		<path style="fill-rule:evenodd;clip-rule:evenodd;fill:#59412F;" d="M0-3.1c0,0.867,0.933,1.6,2.8,2.2C4.7-0.3,6.967,0,9.6,0
			s4.9-0.3,6.8-0.9c1.867-0.6,2.8-1.333,2.8-2.2s-0.934-1.617-2.8-2.25c-1.867-0.6-4.133-0.9-6.8-0.9c-2.667,0-4.934,0.3-6.8,0.9
			C0.933-4.717,0-3.967,0-3.1z"/>
	</g>
</symbol>
<use xlink:href="#FlashAICB_x2F_ground_spots_x2F__x3C_Group_x3E_"  width="223.65" height="21.1" y="-21.1" transform="matrix(1 0 0 -1 0 0)" style="overflow:visible;opacity:0.3008;enable-background:new    ;"/>
</svg>
