<?xml version="1.0" encoding="iso-8859-1"?>
<!-- Generator: Adobe Illustrator 15.1.0, SVG Export Plug-In . SVG Version: 6.00 Build 0)  -->
<!DOCTYPE svg PUBLIC "-//W3C//DTD SVG 1.1//EN" "http://www.w3.org/Graphics/SVG/1.1/DTD/svg11.dtd">
<svg version="1.1" id="ground_x5F_bump_x5F_lite_5" xmlns="http://www.w3.org/2000/svg" xmlns:xlink="http://www.w3.org/1999/xlink"
	 x="0px" y="0px" width="718.65px" height="35px" viewBox="0 0 718.65 35" style="enable-background:new 0 0 718.65 35;"
	 xml:space="preserve">
<symbol  id="FlashAICB_x2F_ground_x5F_bump_x5F_lite_5_x2F__x3C_Path_x3E_" viewBox="0 -35 718.65 35.001">
	<g id="Layer_1_2_">
		
			<linearGradient id="SVGID_1_" gradientUnits="userSpaceOnUse" x1="15979.4609" y1="-700.0923" x2="16014.4863" y2="-700.0923" gradientTransform="matrix(2.855104e-005 1 -1 -0.001 -341.2236 -16015.1738)">
			<stop  offset="0" style="stop-color:#8F613F;stop-opacity:0"/>
			<stop  offset="1" style="stop-color:#8F613F;stop-opacity:0.8"/>
		</linearGradient>
		<path style="fill-rule:evenodd;clip-rule:evenodd;fill:url(#SVGID_1_);" d="M718.65-35L0-33.65c6.667,4.5,17.8,8.533,33.4,12.1
			c31.233,7.167,69.2,8.466,113.9,3.9c33.167-3.4,64.117-1.867,92.85,4.6c7.633,1.733,18.25,4.367,31.85,7.9
			c11.833,2.767,22.5,4.367,32,4.8c16.867,0.733,34.467,0.317,52.8-1.25c12.434-1.1,27.917-3.05,46.45-5.85
			c21.333-3.267,35.15-5.25,41.45-5.95c14.566-1.667,27.216-2.2,37.95-1.6c67.767,3.9,127.434,1.733,179-6.5
			C687.417-25.6,706.417-30.1,718.65-35z"/>
	</g>
</symbol>
<use xlink:href="#FlashAICB_x2F_ground_x5F_bump_x5F_lite_5_x2F__x3C_Path_x3E_"  width="718.65" height="35.001" y="-35" transform="matrix(1 0 0 -1 0 0)" style="overflow:visible;opacity:0.3008;enable-background:new    ;"/>
</svg>
