<?xml version="1.0" encoding="iso-8859-1"?>
<!-- Generator: Adobe Illustrator 15.1.0, SVG Export Plug-In . SVG Version: 6.00 Build 0)  -->
<!DOCTYPE svg PUBLIC "-//W3C//DTD SVG 1.1//EN" "http://www.w3.org/Graphics/SVG/1.1/DTD/svg11.dtd">
<svg version="1.1" xmlns="http://www.w3.org/2000/svg" xmlns:xlink="http://www.w3.org/1999/xlink" x="0px" y="0px"
	 width="115.15px" height="71.35px" viewBox="0 0 115.15 71.35" style="enable-background:new 0 0 115.15 71.35;"
	 xml:space="preserve">
<g id="ground_cutaway_elements">
</g>
<g id="ground_cutaway_elements_1_">
	<g>
		
			<radialGradient id="SVGID_1_" cx="-19.7676" cy="-74.9678" r="23.021" gradientTransform="matrix(-0.7939 0.608 0.6412 0.8373 93.6539 122.2914)" gradientUnits="userSpaceOnUse">
			<stop  offset="0" style="stop-color:#000000;stop-opacity:0"/>
			<stop  offset="1" style="stop-color:#000000;stop-opacity:0.4863"/>
		</radialGradient>
		<path style="fill-rule:evenodd;clip-rule:evenodd;fill:url(#SVGID_1_);" d="M63.75,24c6.467,1,11.733,4.167,15.8,9.5
			c4.066,5.333,5.767,11.25,5.101,17.75c-0.7,6.467-3.567,11.634-8.601,15.5s-10.783,5.3-17.25,4.3
			c-6.466-1.033-11.733-4.217-15.8-9.55s-5.767-11.25-5.1-17.75c0.7-6.5,3.567-11.667,8.6-15.5
			C51.567,24.383,57.316,22.967,63.75,24z"/>
		
			<radialGradient id="SVGID_2_" cx="-19.752" cy="-74.9668" r="18.7771" gradientTransform="matrix(-0.7939 0.608 0.786 1.0263 104.5026 136.4542)" gradientUnits="userSpaceOnUse">
			<stop  offset="0" style="stop-color:#000000;stop-opacity:0"/>
			<stop  offset="1" style="stop-color:#000000;stop-opacity:0.4863"/>
		</radialGradient>
		<path style="fill-rule:evenodd;clip-rule:evenodd;fill:url(#SVGID_2_);" d="M61.4,25.8c5.8,1.534,10.733,4.967,14.8,10.3
			c4.066,5.301,6.083,10.95,6.05,16.95c-0.033,5.967-2.1,10.533-6.2,13.7c-4.133,3.167-9.1,3.983-14.899,2.45
			c-5.8-1.533-10.734-4.95-14.8-10.25c-4.067-5.334-6.083-11-6.05-17c0-6,2.067-10.567,6.2-13.7
			C50.633,25.083,55.6,24.267,61.4,25.8z"/>
		
			<radialGradient id="SVGID_3_" cx="-37.8779" cy="-37.9551" r="5.9028" gradientTransform="matrix(-0.7939 0.6081 0.7853 1.0252 52.884 69.0455)" gradientUnits="userSpaceOnUse">
			<stop  offset="0" style="stop-color:#000000;stop-opacity:0"/>
			<stop  offset="1" style="stop-color:#000000;stop-opacity:0.4863"/>
		</radialGradient>
		<path style="fill-rule:evenodd;clip-rule:evenodd;fill:url(#SVGID_3_);" d="M57.85,3.5c1.267,1.667,1.9,3.45,1.9,5.35
			c0,1.867-0.65,3.3-1.95,4.3s-2.867,1.25-4.7,0.75c-1.833-0.467-3.383-1.533-4.65-3.2c-1.267-1.667-1.9-3.45-1.9-5.35
			S47.2,2,48.5,1c1.3-0.967,2.867-1.217,4.7-0.75C55,0.75,56.55,1.833,57.85,3.5z"/>
		
			<radialGradient id="SVGID_4_" cx="23.7651" cy="-41.8818" r="5.9028" gradientTransform="matrix(-0.7939 0.6081 0.7853 1.0252 58.3553 76.1887)" gradientUnits="userSpaceOnUse">
			<stop  offset="0" style="stop-color:#000000;stop-opacity:0"/>
			<stop  offset="1" style="stop-color:#000000;stop-opacity:0.4863"/>
		</radialGradient>
		<path style="fill-rule:evenodd;clip-rule:evenodd;fill:url(#SVGID_4_);" d="M1.9,51.3C0.633,49.634,0,47.85,0,45.95
			c0-1.867,0.65-3.3,1.95-4.3c1.3-0.967,2.867-1.217,4.7-0.75c1.8,0.5,3.35,1.583,4.65,3.25c1.267,1.666,1.9,3.449,1.9,5.35
			c-0.034,1.866-0.684,3.3-1.95,4.3c-1.3,0.967-2.867,1.217-4.7,0.75C4.717,54.05,3.167,52.967,1.9,51.3z"/>
		
			<radialGradient id="SVGID_5_" cx="-61.3018" cy="-91.894" r="9.4981" gradientTransform="matrix(-0.7939 0.608 0.7858 1.0262 128.0834 167.2578)" gradientUnits="userSpaceOnUse">
			<stop  offset="0" style="stop-color:#000000;stop-opacity:0"/>
			<stop  offset="1" style="stop-color:#000000;stop-opacity:0.4863"/>
		</radialGradient>
		<path style="fill-rule:evenodd;clip-rule:evenodd;fill:url(#SVGID_5_);" d="M97,41.5c-2.066-2.7-3.1-5.567-3.1-8.6
			c0.033-3.033,1.083-5.35,3.149-6.95c2.101-1.6,4.617-2.017,7.55-1.25c2.934,0.8,5.434,2.533,7.5,5.2
			c2.067,2.7,3.084,5.567,3.051,8.6c-0.034,3.033-1.084,5.35-3.15,6.95c-2.066,1.6-4.566,2.017-7.5,1.25
			C101.566,45.9,99.066,44.167,97,41.5z"/>
	</g>
</g>
</svg>
