<?xml version="1.0" encoding="iso-8859-1"?>
<!-- Generator: Adobe Illustrator 15.1.0, SVG Export Plug-In . SVG Version: 6.00 Build 0)  -->
<!DOCTYPE svg PUBLIC "-//W3C//DTD SVG 1.1//EN" "http://www.w3.org/Graphics/SVG/1.1/DTD/svg11.dtd">
<svg version="1.1" id="ground_spots" xmlns="http://www.w3.org/2000/svg" xmlns:xlink="http://www.w3.org/1999/xlink" x="0px"
	 y="0px" width="293.35px" height="69.05px" viewBox="0 0 293.35 69.05" style="enable-background:new 0 0 293.35 69.05;"
	 xml:space="preserve">
<symbol  id="FlashAICB_x2F_ground_spots_x2F__x3C_Group_x3E_" viewBox="0.013 -69.074 293.341 69.076">
	<g id="Layer_1_14_">
		<g>
			<path style="fill-rule:evenodd;clip-rule:evenodd;fill:#59412F;" d="M17.3-14.55c2.4-0.934,4.35-1.983,5.85-3.15
				c1.533-1.167,2.167-2.083,1.9-2.75c-0.267-0.667-1.35-0.917-3.25-0.75c-1.9,0.2-4.05,0.767-6.45,1.7S11-17.517,9.5-16.35
				C8-15.183,7.383-14.267,7.65-13.6c0.267,0.667,1.333,0.917,3.2,0.75C12.75-13.05,14.9-13.617,17.3-14.55z"/>
			
				<use xlink:href="#FlashAICB_x2F_ground_spots_x2F__x3C_Path_x3E__x5F_20"  width="8.975" height="6.355" x="0.013" y="-6.353" style="overflow:visible;opacity:0.6992;enable-background:new    ;"/>
			
				<use xlink:href="#FlashAICB_x2F_ground_spots_x2F__x3C_Path_x3E__x5F_19"  width="17.108" height="9.863" x="0.004" y="-9.882" transform="matrix(1 0 0 1 61.2998 -31.6499)" style="overflow:visible;opacity:0.6992;enable-background:new    ;"/>
			
				<use xlink:href="#FlashAICB_x2F_ground_spots_x2F__x3C_Path_x3E__x5F_18"  width="11.442" height="6.978" x="-0.02" y="-6.976" transform="matrix(1 0 0 1 79.6499 -23.4502)" style="overflow:visible;opacity:0.6992;enable-background:new    ;"/>
			<path style="fill-rule:evenodd;clip-rule:evenodd;fill:#59412F;" d="M100.4-48.45c0.333,1.167,1.583,1.784,3.75,1.85
				c2.2,0.067,4.667-0.417,7.4-1.45c2.767-1.034,5-2.317,6.7-3.85c1.733-1.567,2.417-2.917,2.05-4.05
				c-0.333-1.167-1.583-1.783-3.75-1.85c-2.2-0.067-4.683,0.417-7.45,1.45c-2.733,1.033-4.95,2.317-6.65,3.85
				C100.75-50.967,100.067-49.617,100.4-48.45z"/>
			
				<use xlink:href="#FlashAICB_x2F_ground_spots_x2F__x3C_Path_x3E__x5F_16"  width="12.057" height="4.193" x="-0.001" y="-4.188" transform="matrix(1 0 0 1 135.6499 -58.0498)" style="overflow:visible;opacity:0.6992;enable-background:new    ;"/>
			<path style="fill-rule:evenodd;clip-rule:evenodd;fill:#59412F;" d="M202.35-63.1c-2.667,0.8-3.983,1.617-3.95,2.45
				c0.067,0.867,1.483,1.483,4.25,1.85c2.767,0.4,6.067,0.45,9.9,0.15c3.833-0.267,7.1-0.8,9.8-1.6c2.667-0.8,3.967-1.633,3.9-2.5
				s-1.483-1.483-4.25-1.85c-2.767-0.4-6.067-0.45-9.9-0.15C208.267-64.45,205.017-63.9,202.35-63.1z"/>
			<path style="fill-rule:evenodd;clip-rule:evenodd;fill:#59412F;" d="M247.3-55.75c-0.033-0.567-0.933-0.95-2.7-1.15
				c-1.733-0.233-3.8-0.217-6.2,0.05c-2.433,0.233-4.467,0.65-6.1,1.25c-1.667,0.6-2.466,1.184-2.4,1.75
				c0.067,0.533,0.967,0.917,2.7,1.15c1.733,0.2,3.8,0.184,6.2-0.05c2.434-0.267,4.483-0.7,6.15-1.3
				C246.583-54.617,247.367-55.183,247.3-55.75z"/>
			<path style="fill-rule:evenodd;clip-rule:evenodd;fill:#59412F;" d="M244.05-60.05c0.733-0.233,1.083-0.483,1.05-0.75
				c-0.033-0.267-0.434-0.434-1.2-0.5c-0.733-0.1-1.633-0.083-2.7,0.05c-1.034,0.1-1.917,0.283-2.65,0.55
				c-0.733,0.233-1.083,0.483-1.05,0.75c0.033,0.233,0.433,0.4,1.2,0.5c0.767,0.1,1.667,0.083,2.7-0.05
				C242.433-59.6,243.317-59.783,244.05-60.05z"/>
			
				<use xlink:href="#FlashAICB_x2F_ground_spots_x2F__x3C_Path_x3E__x5F_12"  width="27.253" height="5.674" x="-0.001" y="-5.674" transform="matrix(1 0 0 1 234.2002 -63.4004)" style="overflow:visible;opacity:0.6992;enable-background:new    ;"/>
			
				<use xlink:href="#FlashAICB_x2F_ground_spots_x2F__x3C_Path_x3E__x5F_11"  width="18.464" height="8.085" x="-0.032" y="-8.092" transform="matrix(1 0 0 1 107.1001 -37)" style="overflow:visible;opacity:0.6992;enable-background:new    ;"/>
			
				<use xlink:href="#FlashAICB_x2F_ground_spots_x2F__x3C_Path_x3E__x5F_10"  width="15.805" height="3.495" x="-0.001" y="-3.473" transform="matrix(1 0 0 1 277.5498 -60.2002)" style="overflow:visible;opacity:0.6992;enable-background:new    ;"/>
			<path style="fill-rule:evenodd;clip-rule:evenodd;fill:#59412F;" d="M282.9-65.8c-0.566,0.2-0.833,0.417-0.8,0.65
				c0.033,0.2,0.35,0.333,0.95,0.4c0.6,0.1,1.3,0.1,2.1,0c0.8-0.067,1.5-0.217,2.1-0.45c0.567-0.2,0.833-0.4,0.8-0.6
				c0-0.233-0.3-0.383-0.9-0.45c-0.6-0.1-1.316-0.1-2.15,0C284.167-66.183,283.467-66.033,282.9-65.8z"/>
			
				<use xlink:href="#FlashAICB_x2F_ground_spots_x2F__x3C_Path_x3E__x5F_8"  width="7.012" height="2.113" x="-0.003" y="-2.113" transform="matrix(1 0 0 1 133.5498 -45.25)" style="overflow:visible;opacity:0.6992;enable-background:new    ;"/>
			
				<use xlink:href="#FlashAICB_x2F_ground_spots_x2F__x3C_Path_x3E__x5F_7"  width="8.752" height="1.596" x="-0.002" y="-1.583" transform="matrix(1 0 0 1 211.5 -52)" style="overflow:visible;opacity:0.6992;enable-background:new    ;"/>
			<path style="fill-rule:evenodd;clip-rule:evenodd;fill:#59412F;" d="M179.15-61.75c1.9-0.1,3.517-0.317,4.85-0.65
				c1.3-0.367,1.95-0.733,1.95-1.1c-0.034-0.4-0.717-0.7-2.05-0.9c-1.333-0.2-2.967-0.267-4.9-0.2c-1.867,0.1-3.467,0.317-4.8,0.65
				c-1.333,0.367-1.983,0.733-1.95,1.1c0.033,0.4,0.717,0.7,2.05,0.9C175.633-61.75,177.25-61.683,179.15-61.75z"/>
			
				<use xlink:href="#FlashAICB_x2F_ground_spots_x2F__x3C_Path_x3E__x5F_5"  width="7.105" height="1.704" x="-0.002" y="-1.714" transform="matrix(1 0 0 1 192.5 -52.75)" style="overflow:visible;opacity:0.6992;enable-background:new    ;"/>
			<path style="fill-rule:evenodd;clip-rule:evenodd;fill:#59412F;" d="M162.75-56.15c0.967-0.1,1.8-0.283,2.5-0.55
				c0.667-0.233,0.983-0.466,0.95-0.7c-0.034-0.267-0.4-0.45-1.1-0.55c-0.733-0.1-1.583-0.1-2.55,0c-1,0.133-1.816,0.317-2.45,0.55
				c-0.7,0.267-1.033,0.517-1,0.75s0.4,0.4,1.1,0.5C160.9-56.05,161.75-56.05,162.75-56.15z"/>
			
				<use xlink:href="#FlashAICB_x2F_ground_spots_x2F__x3C_Path_x3E__x5F_3"  width="16.355" height="3.758" x="-0.001" y="-3.754" transform="matrix(1 0 0 1 166.0498 -52.5498)" style="overflow:visible;opacity:0.6992;enable-background:new    ;"/>
			<path style="fill-rule:evenodd;clip-rule:evenodd;fill:#59412F;" d="M148.1-48.4c0.967-0.067,1.8-0.184,2.5-0.35
				c0.7-0.2,1.033-0.417,1-0.65c0-0.233-0.35-0.417-1.05-0.55c-0.7-0.133-1.55-0.167-2.55-0.1c-0.967,0.033-1.8,0.167-2.5,0.4
				c-0.667,0.2-1,0.417-1,0.65c0.033,0.233,0.4,0.4,1.1,0.5C146.3-48.367,147.133-48.333,148.1-48.4z"/>
			
				<use xlink:href="#FlashAICB_x2F_ground_spots_x2F__x3C_Path_x3E__x5F_1"  width="7.617" height="2.805" x="-0.009" y="-2.805" transform="matrix(1 0 0 1 60.0498 -19.6499)" style="overflow:visible;opacity:0.6992;enable-background:new    ;"/>
			<path style="fill-rule:evenodd;clip-rule:evenodd;fill:#59412F;" d="M41.05-10.4c0.967-0.133,1.784-0.333,2.45-0.6
				c0.667-0.233,0.983-0.467,0.95-0.7c-0.034-0.233-0.4-0.383-1.1-0.45c-0.733-0.067-1.583-0.033-2.55,0.1
				c-0.966,0.133-1.783,0.333-2.45,0.6c-0.667,0.267-0.983,0.517-0.95,0.75c0.033,0.233,0.4,0.383,1.1,0.45
				C39.233-10.217,40.083-10.267,41.05-10.4z"/>
		</g>
	</g>
</symbol>
<symbol  id="FlashAICB_x2F_ground_spots_x2F__x3C_Path_x3E__x5F_1" viewBox="-0.009 -2.805 7.617 2.805">
	<g id="Layer_1_13_">
		<path style="fill-rule:evenodd;clip-rule:evenodd;fill:#59412F;" d="M7.6-2.35C7.533-2.617,7.1-2.767,6.3-2.8
			C5.5-2.833,4.583-2.717,3.55-2.45c-1.066,0.267-1.933,0.6-2.6,1c-0.7,0.367-1.017,0.7-0.95,1C0.067-0.183,0.5-0.033,1.3,0
			c0.8,0,1.717-0.117,2.75-0.35c1.067-0.267,1.934-0.583,2.6-0.95C7.35-1.7,7.667-2.05,7.6-2.35z"/>
	</g>
</symbol>
<symbol  id="FlashAICB_x2F_ground_spots_x2F__x3C_Path_x3E__x5F_10" viewBox="-0.001 -3.473 15.805 3.495">
	<g id="Layer_1_8_">
		<path style="fill-rule:evenodd;clip-rule:evenodd;fill:#59412F;" d="M8.1-0.2c2.167-0.233,4-0.583,5.5-1.05
			c1.533-0.467,2.267-0.917,2.2-1.35c-0.033-0.4-0.85-0.667-2.45-0.8s-3.467-0.083-5.6,0.15S3.783-2.667,2.25-2.2
			C0.717-1.733-0.033-1.3,0-0.9c0.067,0.433,0.883,0.717,2.45,0.85C4.017,0.083,5.9,0.033,8.1-0.2z"/>
	</g>
</symbol>
<symbol  id="FlashAICB_x2F_ground_spots_x2F__x3C_Path_x3E__x5F_11" viewBox="-0.032 -8.092 18.464 8.085">
	<g id="Layer_1_7_">
		<path style="fill-rule:evenodd;clip-rule:evenodd;fill:#59412F;" d="M9.95-2.15c2.533-1,4.617-2.017,6.25-3.05
			c1.667-1.066,2.4-1.867,2.2-2.4c-0.2-0.533-1.267-0.633-3.2-0.3c-1.934,0.333-4.167,0.983-6.7,1.95
			C5.967-4.983,3.867-3.967,2.2-2.9C0.533-1.833-0.2-1.033,0-0.5s1.267,0.633,3.2,0.3C5.133-0.533,7.383-1.183,9.95-2.15z"/>
	</g>
</symbol>
<symbol  id="FlashAICB_x2F_ground_spots_x2F__x3C_Path_x3E__x5F_12" viewBox="-0.001 -5.674 27.253 5.674">
	<g id="Layer_1_6_">
		<path style="fill-rule:evenodd;clip-rule:evenodd;fill:#59412F;" d="M13.9-0.4c3.8-0.434,6.983-1.017,9.55-1.75
			c2.6-0.767,3.867-1.483,3.8-2.15c-0.067-0.667-1.45-1.1-4.15-1.3c-2.7-0.167-5.95-0.05-9.75,0.35c-3.733,0.4-6.9,0.983-9.5,1.75
			S-0.033-2.017,0-1.35C0.067-0.683,1.467-0.267,4.2-0.1C6.933,0.1,10.167,0,13.9-0.4z"/>
	</g>
</symbol>
<symbol  id="FlashAICB_x2F_ground_spots_x2F__x3C_Path_x3E__x5F_16" viewBox="-0.001 -4.188 12.057 4.193">
	<g id="Layer_1_5_">
		<path style="fill-rule:evenodd;clip-rule:evenodd;fill:#59412F;" d="M6.2-0.1c1.667-0.2,3.066-0.566,4.2-1.1
			c1.167-0.533,1.717-1.066,1.65-1.6C12.017-3.333,11.4-3.733,10.2-4C8.967-4.233,7.517-4.25,5.85-4.05
			c-1.667,0.2-3.067,0.566-4.2,1.1C0.517-2.45-0.033-1.933,0-1.4c0.067,0.533,0.7,0.933,1.9,1.2C3.067,0.033,4.5,0.067,6.2-0.1z"/>
	</g>
</symbol>
<symbol  id="FlashAICB_x2F_ground_spots_x2F__x3C_Path_x3E__x5F_18" viewBox="-0.02 -6.976 11.442 6.978">
	<g id="Layer_1_4_">
		<path style="fill-rule:evenodd;clip-rule:evenodd;fill:#59412F;" d="M6.6-1.85C8.167-2.717,9.417-3.6,10.35-4.5
			c0.9-0.933,1.233-1.617,1-2.05c-0.233-0.467-1-0.55-2.3-0.25C7.783-6.533,6.367-5.967,4.8-5.1C3.233-4.233,2-3.35,1.1-2.45
			C0.167-1.517-0.183-0.833,0.05-0.4c0.267,0.433,1.034,0.517,2.3,0.25S5.033-0.983,6.6-1.85z"/>
	</g>
</symbol>
<symbol  id="FlashAICB_x2F_ground_spots_x2F__x3C_Path_x3E__x5F_19" viewBox="0.004 -9.882 17.108 9.863">
	<g id="Layer_1_3_">
		<path style="fill-rule:evenodd;clip-rule:evenodd;fill:#59412F;" d="M9.8-2.1c2.333-1.133,4.2-2.367,5.6-3.7
			C16.833-7.167,17.367-8.233,17-9c-0.333-0.767-1.45-1.033-3.35-0.8c-1.9,0.233-4.017,0.917-6.35,2.05
			C4.967-6.65,3.1-5.433,1.7-4.1C0.3-2.733-0.233-1.667,0.1-0.9c0.367,0.767,1.483,1.033,3.35,0.8C5.35-0.333,7.467-1,9.8-2.1z"/>
	</g>
</symbol>
<symbol  id="FlashAICB_x2F_ground_spots_x2F__x3C_Path_x3E__x5F_20" viewBox="0.013 -6.353 8.975 6.355">
	<g id="Layer_1_2_">
		<path style="fill-rule:evenodd;clip-rule:evenodd;fill:#59412F;" d="M8.9-5.5C8.667-6.1,8.033-6.383,7-6.35s-2.15,0.367-3.35,1
			C2.45-4.717,1.5-3.967,0.8-3.1C0.1-2.233-0.133-1.5,0.1-0.9C0.333-0.267,0.967,0.033,2,0s2.15-0.367,3.35-1
			C6.583-1.633,7.533-2.4,8.2-3.3C8.9-4.167,9.133-4.9,8.9-5.5z"/>
	</g>
</symbol>
<symbol  id="FlashAICB_x2F_ground_spots_x2F__x3C_Path_x3E__x5F_3" viewBox="-0.001 -3.754 16.355 3.758">
	<g id="Layer_1_12_">
		<path style="fill-rule:evenodd;clip-rule:evenodd;fill:#59412F;" d="M8-3.55c-2.267,0.233-4.183,0.6-5.75,1.1
			C0.717-1.95-0.033-1.467,0-1c0.067,0.433,0.917,0.733,2.55,0.9c1.6,0.167,3.534,0.133,5.8-0.1c2.233-0.267,4.15-0.65,5.75-1.15
			c1.566-0.5,2.316-0.967,2.25-1.4c-0.033-0.433-0.867-0.733-2.5-0.9C12.217-3.817,10.267-3.783,8-3.55z"/>
	</g>
</symbol>
<symbol  id="FlashAICB_x2F_ground_spots_x2F__x3C_Path_x3E__x5F_5" viewBox="-0.002 -1.714 7.105 1.704">
	<g id="Layer_1_11_">
		<path style="fill-rule:evenodd;clip-rule:evenodd;fill:#59412F;" d="M7.1-1.25C7.067-1.45,6.7-1.583,6-1.65
			C5.3-1.75,4.467-1.733,3.5-1.6C2.5-1.5,1.667-1.35,1-1.15C0.3-0.917-0.033-0.7,0-0.5c0.033,0.233,0.4,0.383,1.1,0.45
			C1.8,0.017,2.65,0,3.65-0.1s1.833-0.267,2.5-0.5C6.817-0.8,7.133-1.017,7.1-1.25z"/>
	</g>
</symbol>
<symbol  id="FlashAICB_x2F_ground_spots_x2F__x3C_Path_x3E__x5F_7" viewBox="-0.002 -1.583 8.752 1.596">
	<g id="Layer_1_10_">
		<path style="fill-rule:evenodd;clip-rule:evenodd;fill:#59412F;" d="M4.35-1.55C3.15-1.517,2.117-1.4,1.25-1.2
			C0.383-1-0.033-0.8,0-0.6c0,0.233,0.433,0.4,1.3,0.5S3.2,0.033,4.4,0c1.2-0.067,2.233-0.183,3.1-0.35c0.833-0.2,1.25-0.4,1.25-0.6
			c0-0.233-0.433-0.4-1.3-0.5C6.583-1.583,5.55-1.617,4.35-1.55z"/>
	</g>
</symbol>
<symbol  id="FlashAICB_x2F_ground_spots_x2F__x3C_Path_x3E__x5F_8" viewBox="-0.003 -2.113 7.012 2.113">
	<g id="Layer_1_9_">
		<path style="fill-rule:evenodd;clip-rule:evenodd;fill:#59412F;" d="M7-1.75C6.9-2.217,5.683-2.233,3.35-1.8
			C1.05-1.333-0.067-0.833,0-0.3C0.067-0.1,0.45,0,1.15,0c0.7,0,1.533-0.083,2.5-0.25C4.65-0.45,5.467-0.7,6.1-1
			C6.767-1.267,7.067-1.517,7-1.75z"/>
	</g>
</symbol>
<use xlink:href="#FlashAICB_x2F_ground_spots_x2F__x3C_Group_x3E_"  width="293.341" height="69.076" x="0.013" y="-69.074" transform="matrix(1 0 0 -1 0 0)" style="overflow:visible;opacity:0.3008;enable-background:new    ;"/>
</svg>
