<?xml version="1.0" encoding="iso-8859-1"?>
<!-- Generator: Adobe Illustrator 15.1.0, SVG Export Plug-In . SVG Version: 6.00 Build 0)  -->
<!DOCTYPE svg PUBLIC "-//W3C//DTD SVG 1.1//EN" "http://www.w3.org/Graphics/SVG/1.1/DTD/svg11.dtd">
<svg version="1.1" id="ground_x5F_bump_x5F_lite_2" xmlns="http://www.w3.org/2000/svg" xmlns:xlink="http://www.w3.org/1999/xlink"
	 x="0px" y="0px" width="499.35px" height="48.3px" viewBox="0 0 499.35 48.3" style="enable-background:new 0 0 499.35 48.3;"
	 xml:space="preserve">
<symbol  id="FlashAICB_x2F_ground_x5F_bump_x5F_lite_2_x2F__x3C_Path_x3E_" viewBox="0 -48.35 499.35 48.299">
	<g id="Layer_1_2_">
		
			<linearGradient id="SVGID_1_" gradientUnits="userSpaceOnUse" x1="16069.3691" y1="-473.5059" x2="16117.7188" y2="-473.5059" gradientTransform="matrix(2.068252e-005 1 -1 -0.001 -224.1631 -16118.167)">
			<stop  offset="0" style="stop-color:#8F613F;stop-opacity:0"/>
			<stop  offset="1" style="stop-color:#8F613F;stop-opacity:0.8"/>
		</linearGradient>
		<path style="fill-rule:evenodd;clip-rule:evenodd;fill:url(#SVGID_1_);" d="M457-31.45c16.5-5.733,30.617-11.133,42.35-16.2
			L0-48.35c21.933,6.867,46.633,14.017,74.1,21.45C129-12.033,170.3-3.183,198-0.35c7.3,0.733,20.8,0.117,40.5-1.85
			c22.433-2.233,37.067-3.35,43.9-3.35c38.867,0,68.733-1.367,89.6-4.1C395.7-12.783,424.033-20.05,457-31.45z"/>
	</g>
</symbol>
<use xlink:href="#FlashAICB_x2F_ground_x5F_bump_x5F_lite_2_x2F__x3C_Path_x3E_"  width="499.35" height="48.299" y="-48.35" transform="matrix(1 0 0 -1 0 -0.0498)" style="overflow:visible;opacity:0.3008;enable-background:new    ;"/>
</svg>
