<?xml version="1.0" encoding="iso-8859-1"?>
<!-- Generator: Adobe Illustrator 15.1.0, SVG Export Plug-In . SVG Version: 6.00 Build 0)  -->
<!DOCTYPE svg PUBLIC "-//W3C//DTD SVG 1.1//EN" "http://www.w3.org/Graphics/SVG/1.1/DTD/svg11.dtd">
<svg version="1.1" id="ground_generic_3" xmlns="http://www.w3.org/2000/svg" xmlns:xlink="http://www.w3.org/1999/xlink" x="0px"
	 y="0px" width="704px" height="114.25px" viewBox="0 0 704 114.25" style="enable-background:new 0 0 704 114.25;"
	 xml:space="preserve">
<path style="fill-rule:evenodd;clip-rule:evenodd;fill:#4C3B2A;" d="M359.4,4.55c14.5,0,43.05-0.65,85.649-1.95
	c42.101-0.867,77.434-0.383,106,1.45c86.7,5.534,136.816,24.367,150.351,56.5c7.433,17.7-4.767,31.084-36.601,40.15
	c-26.833,7.633-66.8,12.05-119.899,13.25c-42.9,0.934-91.601-0.233-146.101-3.5c-43.7-2.601-82.167-5.9-115.4-9.9
	c-20.733-2.5-49.667-3.934-86.8-4.3c-47.033-0.467-76.1-0.983-87.2-1.55c-30.633-1.634-54.2-5.351-70.7-11.15
	c-20.233-7.133-32.667-18.133-37.3-33C-3.167,35.883,3.55,24.333,21.55,15.9C35.983,9.133,57.267,4.517,85.4,2.05
	c20.1-1.767,42.633-2.383,67.6-1.85c12.467,0.267,22.933,0.716,31.4,1.35c16.967-0.7,41.383-0.45,73.25,0.75
	C297.783,3.8,331.7,4.55,359.4,4.55z"/>
</svg>
