<?xml version="1.0" encoding="iso-8859-1"?>
<!-- Generator: Adobe Illustrator 15.1.0, SVG Export Plug-In . SVG Version: 6.00 Build 0)  -->
<!DOCTYPE svg PUBLIC "-//W3C//DTD SVG 1.1//EN" "http://www.w3.org/Graphics/SVG/1.1/DTD/svg11.dtd">
<svg version="1.1" id="FlashAICB" xmlns="http://www.w3.org/2000/svg" xmlns:xlink="http://www.w3.org/1999/xlink" x="0px" y="0px"
	 width="148.65px" height="31.3px" viewBox="0 0 148.65 31.3" style="enable-background:new 0 0 148.65 31.3;" xml:space="preserve"
	>
<path style="fill-rule:evenodd;clip-rule:evenodd;fill:#413224;" d="M99.25,14.75c-0.1,1.1-1.417,1.917-3.95,2.45
	c-2.533,0.566-5.533,0.684-9,0.35c-3.467-0.333-6.399-1-8.8-2s-3.55-2.05-3.45-3.15c0.134-1.1,1.467-1.917,4-2.45
	c2.533-0.567,5.533-0.684,9-0.35c3.467,0.333,6.4,1,8.8,2C98.217,12.6,99.35,13.65,99.25,14.75z"/>
<path style="fill-rule:evenodd;clip-rule:evenodd;fill:#413224;" d="M41,15.2c0.4,0.934,0.033,2.033-1.1,3.3s-2.717,2.333-4.75,3.2
	c-2,0.866-3.85,1.283-5.55,1.25c-1.7-0.033-2.75-0.517-3.15-1.45c-0.4-0.934-0.034-2.033,1.1-3.3s2.7-2.333,4.7-3.2
	s3.867-1.283,5.6-1.25C39.55,13.783,40.6,14.267,41,15.2z"/>
<path style="fill-rule:evenodd;clip-rule:evenodd;fill:#3C2E1F;" d="M68.4,0c0.967,0,1.8,0.117,2.5,0.35c0.667,0.2,1,0.467,1,0.8
	c0,0.333-0.333,0.617-1,0.85c-0.7,0.233-1.533,0.35-2.5,0.35c-0.933,0-1.75-0.117-2.45-0.35c-0.667-0.233-1-0.517-1-0.85
	c0-0.333,0.333-0.6,1-0.8C66.617,0.117,67.433,0,68.4,0z"/>
<path style="fill-rule:evenodd;clip-rule:evenodd;fill:#56412E;" d="M129,23.65c-0.233,0.666-1.3,0.949-3.2,0.85
	c-1.934-0.1-4.149-0.533-6.649-1.3c-2.534-0.8-4.617-1.717-6.25-2.75c-1.634-1-2.334-1.834-2.101-2.5c0.2-0.667,1.267-0.967,3.2-0.9
	c1.9,0.101,4.116,0.55,6.65,1.351c2.5,0.8,4.566,1.716,6.199,2.75C128.483,22.184,129.2,23.017,129,23.65z"/>
<path style="fill-rule:evenodd;clip-rule:evenodd;fill:#443426;" d="M16.05,22.6c0.333,0.667-0.15,1.634-1.45,2.9
	c-1.333,1.233-3.1,2.4-5.3,3.5c-2.2,1.1-4.2,1.816-6,2.15c-1.767,0.3-2.833,0.133-3.2-0.5c-0.333-0.667,0.167-1.634,1.5-2.9
	c1.333-1.233,3.1-2.4,5.3-3.5c2.2-1.1,4.2-1.816,6-2.15C14.667,21.8,15.717,21.967,16.05,22.6z"/>
<path style="fill-rule:evenodd;clip-rule:evenodd;fill:#3C2E1F;" d="M148.6,28.65c-0.199,0.5-1.033,0.683-2.5,0.55
	c-1.467-0.167-3.116-0.617-4.949-1.351c-1.834-0.733-3.334-1.533-4.5-2.399c-1.167-0.867-1.65-1.55-1.45-2.05
	c0.2-0.534,1.033-0.717,2.5-0.551c1.433,0.134,3.083,0.567,4.95,1.301c1.866,0.733,3.366,1.533,4.5,2.399
	C148.316,27.417,148.8,28.116,148.6,28.65z"/>
<path style="fill-rule:evenodd;clip-rule:evenodd;fill:#413224;" d="M132,15.65c-0.066,0.267-0.384,0.417-0.95,0.45
	c-0.6,0.034-1.25-0.066-1.95-0.3c-0.733-0.233-1.316-0.517-1.75-0.85c-0.467-0.333-0.649-0.633-0.55-0.9
	c0.066-0.267,0.384-0.417,0.95-0.45s1.217,0.066,1.95,0.3c0.7,0.233,1.283,0.517,1.75,0.85C131.883,15.083,132.066,15.383,132,15.65
	z"/>
<path style="fill-rule:evenodd;clip-rule:evenodd;fill:#3C2E20;" d="M100.15,5.2c-0.034,0.267-0.384,0.466-1.051,0.6
	c-0.633,0.1-1.399,0.083-2.3-0.05c-0.866-0.167-1.6-0.383-2.2-0.65c-0.566-0.3-0.833-0.583-0.8-0.85s0.367-0.45,1-0.55
	c0.634-0.1,1.4-0.083,2.3,0.05c0.9,0.133,1.65,0.333,2.25,0.6C99.95,4.65,100.217,4.933,100.15,5.2z"/>
<path style="fill-rule:evenodd;clip-rule:evenodd;fill:#56412E;" d="M87.55,4.25c-0.033,0.267-0.45,0.467-1.25,0.6
	c-0.767,0.1-1.7,0.1-2.8,0c-1.1-0.133-2.017-0.333-2.75-0.6c-0.767-0.267-1.134-0.533-1.1-0.8c0.033-0.267,0.433-0.467,1.199-0.6
	c0.801-0.133,1.75-0.133,2.851,0c1.066,0.1,1.983,0.283,2.75,0.55C87.217,3.7,87.583,3.983,87.55,4.25z"/>
<path style="fill-rule:evenodd;clip-rule:evenodd;fill:#56412E;" d="M65.95,12.25c0.066,0.5-0.5,0.983-1.7,1.45
	c-1.167,0.466-2.6,0.767-4.3,0.9c-1.733,0.133-3.2,0.066-4.4-0.2c-1.233-0.233-1.883-0.617-1.95-1.15
	c-0.034-0.5,0.55-0.983,1.75-1.45c1.167-0.433,2.6-0.716,4.3-0.85c1.7-0.133,3.167-0.083,4.4,0.15
	C65.283,11.367,65.917,11.75,65.95,12.25z"/>
<path style="fill-rule:evenodd;clip-rule:evenodd;fill:#3C2E1F;" d="M33.5,7.4c0.133,0.267-0.033,0.617-0.5,1.05
	c-0.467,0.466-1.1,0.917-1.9,1.35c-0.8,0.4-1.517,0.667-2.15,0.8c-0.634,0.1-1.017,0.033-1.15-0.2s0.034-0.583,0.5-1.05
	c0.467-0.467,1.1-0.917,1.9-1.35c0.8-0.4,1.517-0.667,2.15-0.8C32.983,7.1,33.367,7.167,33.5,7.4z"/>
<path style="fill-rule:evenodd;clip-rule:evenodd;fill:#403223;" d="M21.05,14.9c0.133,0.3-0.033,0.7-0.5,1.2
	c-0.466,0.467-1.1,0.9-1.9,1.301c-0.8,0.366-1.533,0.6-2.2,0.699c-0.667,0.067-1.067-0.05-1.2-0.35c-0.167-0.267,0-0.65,0.5-1.15
	c0.467-0.5,1.1-0.933,1.9-1.3c0.8-0.4,1.533-0.633,2.2-0.7C20.483,14.533,20.883,14.633,21.05,14.9z"/>
<path style="fill-rule:evenodd;clip-rule:evenodd;fill:#3D2E20;" d="M56.7,6.15c0.1,0.6-0.534,1.233-1.9,1.9
	c-1.333,0.667-3.017,1.167-5.05,1.5c-2.033,0.367-3.8,0.45-5.3,0.25c-1.5-0.167-2.3-0.55-2.4-1.15c-0.1-0.566,0.534-1.183,1.9-1.85
	C45.316,6.1,47,5.583,49,5.25c2.033-0.333,3.8-0.417,5.3-0.25S56.6,5.55,56.7,6.15z"/>
<path style="fill-rule:evenodd;clip-rule:evenodd;fill:#403223;" d="M116.6,11c-0.033,0.3-0.366,0.5-1,0.6
	c-0.666,0.133-1.449,0.117-2.35-0.05c-0.867-0.167-1.6-0.4-2.2-0.7c-0.566-0.3-0.833-0.6-0.8-0.9c0.066-0.3,0.417-0.5,1.05-0.6
	c0.667-0.1,1.434-0.083,2.3,0.05c0.867,0.167,1.601,0.4,2.2,0.7C116.4,10.4,116.667,10.7,116.6,11z"/>
</svg>
