<?xml version="1.0" encoding="iso-8859-1"?>
<!-- Generator: Adobe Illustrator 15.1.0, SVG Export Plug-In . SVG Version: 6.00 Build 0)  -->
<!DOCTYPE svg PUBLIC "-//W3C//DTD SVG 1.1//EN" "http://www.w3.org/Graphics/SVG/1.1/DTD/svg11.dtd">
<svg version="1.1" id="FlashAICB" xmlns="http://www.w3.org/2000/svg" xmlns:xlink="http://www.w3.org/1999/xlink" x="0px" y="0px"
	 width="314.25px" height="35.7px" viewBox="0 0 314.25 35.7" style="enable-background:new 0 0 314.25 35.7;" xml:space="preserve"
	>
<path style="fill-rule:evenodd;clip-rule:evenodd;fill:#403223;" d="M147.8,16c0,2.033-2.716,3.783-8.15,5.25
	c-5.467,1.434-12.05,2.15-19.75,2.15c-7.7,0-14.283-0.717-19.75-2.15c-5.467-1.467-8.2-3.217-8.2-5.25s2.733-3.783,8.2-5.25
	c5.467-1.433,12.05-2.15,19.75-2.15c7.7,0,14.283,0.717,19.75,2.15C145.083,12.217,147.8,13.967,147.8,16z"/>
<path style="fill-rule:evenodd;clip-rule:evenodd;fill:#3C2E20;" d="M145.3,1.45C148.7,0.483,152.817,0,157.65,0
	c4.833,0,8.966,0.483,12.399,1.45c3.434,0.966,5.15,2.117,5.15,3.45c0,1.367-1.717,2.534-5.15,3.5
	c-3.399,0.967-7.533,1.45-12.399,1.45c-4.833,0-8.95-0.483-12.351-1.45c-3.433-0.966-5.15-2.133-5.15-3.5
	C140.15,3.567,141.867,2.417,145.3,1.45z"/>
<path style="fill-rule:evenodd;clip-rule:evenodd;fill:#3D2E20;" d="M169.65,16.05c1.5,0.4,2.25,0.9,2.25,1.5
	c0,0.601-0.75,1.117-2.25,1.55c-1.467,0.4-3.267,0.601-5.4,0.601s-3.934-0.2-5.4-0.601c-1.5-0.433-2.25-0.949-2.25-1.55
	c0-0.6,0.75-1.1,2.25-1.5c1.467-0.433,3.267-0.65,5.4-0.65S168.184,15.617,169.65,16.05z"/>
<path style="fill-rule:evenodd;clip-rule:evenodd;fill:#3C2E1F;" d="M205.85,29.85c0,1.601-2.666,2.983-8,4.15
	c-5.366,1.134-11.816,1.7-19.35,1.7c-7.566,0-14.033-0.566-19.4-1.7c-5.333-1.167-8-2.55-8-4.15c0-1.633,2.667-3.017,8-4.149
	c5.367-1.134,11.834-1.7,19.4-1.7s14.017,0.566,19.35,1.7C203.184,26.833,205.85,28.217,205.85,29.85z"/>
<path style="fill-rule:evenodd;clip-rule:evenodd;fill:#413224;" d="M242,20.3c0,1.367-1.934,2.533-5.8,3.5
	c-3.834,0.967-8.467,1.45-13.9,1.45c-5.467,0-10.116-0.483-13.95-1.45c-3.866-0.967-5.8-2.133-5.8-3.5c0-1.333,1.934-2.483,5.8-3.45
	c3.867-0.967,8.517-1.45,13.95-1.45s10.066,0.483,13.9,1.45C240.066,17.817,242,18.967,242,20.3z"/>
<path style="fill-rule:evenodd;clip-rule:evenodd;fill:#3C2E20;" d="M268.25,9.85c0,1.033-1.55,1.9-4.65,2.6
	c-3.1,0.733-6.833,1.1-11.199,1.1c-4.4,0-8.15-0.366-11.25-1.1c-3.101-0.7-4.65-1.567-4.65-2.6s1.55-1.9,4.65-2.6
	c3.1-0.733,6.85-1.1,11.25-1.1c4.366,0,8.1,0.367,11.199,1.1C266.7,7.95,268.25,8.817,268.25,9.85z"/>
<path style="fill-rule:evenodd;clip-rule:evenodd;fill:#56412E;" d="M258.4,18.45c0,0.533-0.584,0.967-1.75,1.3
	c-1.167,0.366-2.584,0.55-4.25,0.55c-1.7,0-3.134-0.184-4.301-0.55c-1.166-0.333-1.75-0.767-1.75-1.3c0-0.5,0.584-0.934,1.75-1.3
	c1.2-0.367,2.634-0.55,4.301-0.55c1.633,0,3.05,0.183,4.25,0.55C257.816,17.517,258.4,17.95,258.4,18.45z"/>
<path style="fill-rule:evenodd;clip-rule:evenodd;fill:#433426;" d="M224.45,2.45c0,0.533-0.684,0.966-2.05,1.3
	c-1.367,0.367-3.051,0.55-5.051,0.55c-1.966,0-3.649-0.183-5.05-0.55c-1.366-0.333-2.05-0.767-2.05-1.3c0-0.5,0.684-0.934,2.05-1.3
	c1.4-0.367,3.084-0.55,5.05-0.55c1.967,0,3.65,0.183,5.051,0.55C223.767,1.517,224.45,1.95,224.45,2.45z"/>
<path style="fill-rule:evenodd;clip-rule:evenodd;fill:#413224;" d="M314.25,9.85c0,0.5-0.85,0.933-2.55,1.3
	c-1.733,0.367-3.8,0.55-6.2,0.55s-4.467-0.184-6.2-0.55c-1.7-0.367-2.55-0.8-2.55-1.3c0-0.533,0.85-0.967,2.55-1.3
	C301,8.184,303.066,8,305.5,8s4.5,0.184,6.2,0.55C313.4,8.883,314.25,9.317,314.25,9.85z"/>
<path style="fill-rule:evenodd;clip-rule:evenodd;fill:#443426;" d="M85.4,29.85c0,0.934-1.333,1.733-4,2.4
	c-2.7,0.667-5.933,1-9.7,1c-3.767,0-6.983-0.333-9.65-1c-2.667-0.667-4-1.467-4-2.4c0-0.933,1.333-1.733,4-2.399
	c2.667-0.667,5.883-1,9.65-1c3.8,0,7.033,0.333,9.7,1C84.067,28.116,85.4,28.917,85.4,29.85z"/>
<path style="fill-rule:evenodd;clip-rule:evenodd;fill:#3C2E1F;" d="M88.7,19.7c0,0.5-0.7,0.934-2.1,1.3s-3.083,0.55-5.05,0.55
	c-1.933,0-3.6-0.184-5-0.55c-1.4-0.366-2.1-0.8-2.1-1.3c0-0.533,0.7-0.967,2.1-1.3c1.367-0.367,3.034-0.55,5-0.55
	c2,0,3.684,0.183,5.05,0.55C88,18.733,88.7,19.167,88.7,19.7z"/>
<path style="fill-rule:evenodd;clip-rule:evenodd;fill:#3D2E20;" d="M14.25,29.85c0,0.601-0.7,1.117-2.1,1.551
	C10.75,31.8,9.067,32,7.1,32s-3.633-0.2-5-0.6C0.7,30.967,0,30.45,0,29.85c0-0.6,0.7-1.1,2.1-1.5c1.367-0.433,3.033-0.649,5-0.649
	s3.65,0.217,5.05,0.649C13.55,28.75,14.25,29.25,14.25,29.85z"/>
<path style="fill-rule:evenodd;clip-rule:evenodd;fill:#413224;" d="M46,20.6c0,1.101-1.6,2.051-4.8,2.851
	c-3.233,0.767-7.117,1.149-11.65,1.149c-4.533,0-8.4-0.383-11.6-1.149c-3.2-0.8-4.8-1.75-4.8-2.851c0-1.1,1.6-2.033,4.8-2.8
	c3.2-0.8,7.066-1.2,11.6-1.2c4.534,0,8.417,0.4,11.65,1.2C44.4,18.566,46,19.5,46,20.6z"/>
<path style="fill-rule:evenodd;clip-rule:evenodd;fill:#3D2E20;" d="M281.4,16.3c0,0.567-0.7,1.034-2.101,1.4
	c-1.366,0.399-3.033,0.6-5,0.6s-3.649-0.2-5.05-0.6c-1.4-0.367-2.1-0.833-2.1-1.4c0-0.533,0.699-1,2.1-1.4s3.083-0.6,5.05-0.6
	s3.634,0.2,5,0.6C280.7,15.3,281.4,15.767,281.4,16.3z"/>
</svg>
