<?xml version="1.0" encoding="iso-8859-1"?>
<!-- Generator: Adobe Illustrator 15.1.0, SVG Export Plug-In . SVG Version: 6.00 Build 0)  -->
<!DOCTYPE svg PUBLIC "-//W3C//DTD SVG 1.1//EN" "http://www.w3.org/Graphics/SVG/1.1/DTD/svg11.dtd">
<svg version="1.1" id="ground_spots" xmlns="http://www.w3.org/2000/svg" xmlns:xlink="http://www.w3.org/1999/xlink" x="0px"
	 y="0px" width="222.95px" height="72.55px" viewBox="0 0 222.95 72.55" style="enable-background:new 0 0 222.95 72.55;"
	 xml:space="preserve">
<symbol  id="FlashAICB_x2F_ground_spots_x2F__x3C_Group_x3E_" viewBox="0 -72.554 222.935 72.532">
	<g id="Layer_1_12_">
		<g>
			<path style="fill-rule:evenodd;clip-rule:evenodd;fill:#59412F;" d="M149.3-59.55c2.534,0.6,4.75,0.867,6.65,0.8
				c1.9-0.067,2.933-0.467,3.1-1.2c0.167-0.7-0.583-1.517-2.25-2.45c-1.667-0.934-3.75-1.7-6.25-2.3c-2.5-0.6-4.7-0.85-6.6-0.75
				c-1.9,0.067-2.934,0.467-3.1,1.2c-0.167,0.7,0.566,1.5,2.2,2.4C144.717-60.917,146.8-60.15,149.3-59.55z"/>
			
				<use xlink:href="#FlashAICB_x2F_ground_spots_x2F__x3C_Path_x3E__x5F_17"  width="8.32" height="7.206" x="0.015" y="-7.228" transform="matrix(1 0 0 1 214.5996 0)" style="overflow:visible;opacity:0.6992;enable-background:new    ;"/>
			
				<use xlink:href="#FlashAICB_x2F_ground_spots_x2F__x3C_Path_x3E__x5F_16"  width="17.719" height="8.665" x="-0.009" y="-8.708" transform="matrix(1 0 0 1 154.25 -44.6504)" style="overflow:visible;opacity:0.6992;enable-background:new    ;"/>
			
				<use xlink:href="#FlashAICB_x2F_ground_spots_x2F__x3C_Path_x3E__x5F_15"  width="9.85" height="9.132" x="-0.011" y="-9.166" transform="matrix(1 0 0 1 190.4004 -25.25)" style="overflow:visible;opacity:0.6992;enable-background:new    ;"/>
			<path style="fill-rule:evenodd;clip-rule:evenodd;fill:#59412F;" d="M115-62.35c2.033,1.067,4.517,1.75,7.45,2.05
				c2.933,0.333,5.45,0.183,7.55-0.45s3.167-1.55,3.2-2.75c0.033-1.2-0.983-2.333-3.05-3.4c-2.033-1.067-4.517-1.75-7.45-2.05
				c-2.934-0.3-5.434-0.133-7.5,0.5c-2.067,0.633-3.133,1.55-3.2,2.75C111.967-64.5,112.967-63.383,115-62.35z"/>
			
				<use xlink:href="#FlashAICB_x2F_ground_spots_x2F__x3C_Path_x3E__x5F_13"  width="12.153" height="3.958" x="-0.001" y="-4.004" transform="matrix(1 0 0 1 88.8501 -68.5498)" style="overflow:visible;opacity:0.6992;enable-background:new    ;"/>
			<path style="fill-rule:evenodd;clip-rule:evenodd;fill:#59412F;" d="M50.9-66.65c3.233,0,5.983-0.233,8.25-0.7s3.4-1.033,3.4-1.7
				c0.034-0.667-1.083-1.25-3.35-1.75c-2.267-0.467-5.017-0.717-8.25-0.75c-3.167-0.034-5.9,0.183-8.2,0.65
				c-2.267,0.467-3.417,1.033-3.45,1.7c0,0.667,1.133,1.25,3.4,1.75C44.967-66.95,47.7-66.683,50.9-66.65z"/>
			<path style="fill-rule:evenodd;clip-rule:evenodd;fill:#59412F;" d="M0-63.95c0,0.4,0.717,0.733,2.15,1
				c1.434,0.3,3.15,0.434,5.15,0.4c2.034-0.034,3.767-0.2,5.2-0.5c1.433-0.3,2.15-0.667,2.15-1.1c0-0.434-0.717-0.783-2.15-1.05
				c-1.4-0.3-3.117-0.433-5.15-0.4s-3.767,0.2-5.2,0.5C0.717-64.767,0-64.383,0-63.95z"/>
			<path style="fill-rule:evenodd;clip-rule:evenodd;fill:#59412F;" d="M32.1-69.8c0-0.233-0.383-0.434-1.15-0.6
				c-0.733-0.167-1.633-0.233-2.7-0.2s-1.967,0.15-2.7,0.35c-0.733,0.233-1.1,0.467-1.1,0.7c0,0.267,0.383,0.466,1.15,0.6
				s1.667,0.184,2.7,0.15c1.067-0.034,1.983-0.15,2.75-0.35C31.783-69.35,32.133-69.567,32.1-69.8z"/>
			
				<use xlink:href="#FlashAICB_x2F_ground_spots_x2F__x3C_Path_x3E__x5F_9"  width="19.654" height="4.4" x="-0.001" y="-4.375" transform="matrix(1 0 0 1 129.4502 -41.9502)" style="overflow:visible;opacity:0.6992;enable-background:new    ;"/>
			
				<use xlink:href="#FlashAICB_x2F_ground_spots_x2F__x3C_Path_x3E__x5F_8"  width="6.913" height="2.263" x="-0.002" y="-2.257" transform="matrix(1 0 0 1 109.5498 -46.4004)" style="overflow:visible;opacity:0.6992;enable-background:new    ;"/>
			
				<use xlink:href="#FlashAICB_x2F_ground_spots_x2F__x3C_Path_x3E__x5F_7"  width="8.752" height="1.715" y="-1.69" transform="matrix(1 0 0 1 21.2002 -62.2002)" style="overflow:visible;opacity:0.6992;enable-background:new    ;"/>
			<path style="fill-rule:evenodd;clip-rule:evenodd;fill:#59412F;" d="M96.85-52.2c1.867,0.434,3.467,0.667,4.8,0.7
				c1.367,0.033,2.1-0.133,2.2-0.5c0.066-0.4-0.517-0.883-1.75-1.45c-1.2-0.566-2.733-1.066-4.6-1.5
				c-1.867-0.433-3.467-0.667-4.8-0.7c-1.367-0.033-2.1,0.133-2.2,0.5c-0.067,0.367,0.517,0.833,1.75,1.4S95.017-52.667,96.85-52.2z
				"/>
			
				<use xlink:href="#FlashAICB_x2F_ground_spots_x2F__x3C_Path_x3E__x5F_5"  width="7.15" height="1.558" y="-1.558" transform="matrix(1 0 0 1 42.2002 -62.25)" style="overflow:visible;opacity:0.6992;enable-background:new    ;"/>
			<path style="fill-rule:evenodd;clip-rule:evenodd;fill:#59412F;" d="M70.3-68.55c0.967,0,1.8-0.083,2.5-0.25
				c0.7-0.2,1.05-0.417,1.05-0.65c0-0.267-0.35-0.483-1.05-0.65c-0.7-0.167-1.533-0.25-2.5-0.25c-0.966,0-1.8,0.083-2.5,0.25
				c-0.7,0.167-1.05,0.383-1.05,0.65c0,0.233,0.35,0.45,1.05,0.65C68.5-68.633,69.333-68.55,70.3-68.55z"/>
			
				<use xlink:href="#FlashAICB_x2F_ground_spots_x2F__x3C_Path_x3E__x5F_3"  width="16.305" height="3.833" x="-0.001" y="-3.867" transform="matrix(1 0 0 1 64.5498 -58.9004)" style="overflow:visible;opacity:0.6992;enable-background:new    ;"/>
			<path style="fill-rule:evenodd;clip-rule:evenodd;fill:#59412F;" d="M107.65-56.9c0.9,0.333,1.717,0.533,2.45,0.6
				c0.733,0.066,1.133,0,1.2-0.2c0.067-0.233-0.2-0.533-0.8-0.9c-0.6-0.4-1.367-0.75-2.3-1.05c-0.934-0.333-1.75-0.533-2.45-0.6
				c-0.733-0.067-1.133,0.017-1.2,0.25c-0.066,0.2,0.2,0.483,0.8,0.85C105.983-57.55,106.75-57.2,107.65-56.9z"/>
			
				<use xlink:href="#FlashAICB_x2F_ground_spots_x2F__x3C_Path_x3E__x5F_1"  width="6.475" height="4.917" x="-0.013" y="-4.913" transform="matrix(1 0 0 1 174.7002 -29.9502)" style="overflow:visible;opacity:0.6992;enable-background:new    ;"/>
			<path style="fill-rule:evenodd;clip-rule:evenodd;fill:#59412F;" d="M196.9-13.9c0.934,0.367,1.733,0.6,2.4,0.7
				c0.733,0.133,1.133,0.083,1.2-0.15c0.1-0.2-0.133-0.5-0.7-0.9c-0.6-0.433-1.35-0.833-2.25-1.2c-0.933-0.367-1.75-0.617-2.45-0.75
				c-0.7-0.1-1.1-0.05-1.2,0.15c-0.066,0.233,0.184,0.55,0.75,0.95C195.25-14.667,196-14.267,196.9-13.9z"/>
		</g>
	</g>
</symbol>
<symbol  id="FlashAICB_x2F_ground_spots_x2F__x3C_Path_x3E__x5F_1" viewBox="-0.013 -4.913 6.475 4.917">
	<g id="Layer_1_11_">
		<path style="fill-rule:evenodd;clip-rule:evenodd;fill:#59412F;" d="M0.05-4.75c-0.167,0.233,0,0.65,0.5,1.25
			c0.5,0.633,1.184,1.267,2.05,1.9s1.683,1.083,2.45,1.35c0.733,0.3,1.184,0.333,1.35,0.1c0.167-0.233,0-0.667-0.5-1.3
			c-0.467-0.6-1.15-1.233-2.05-1.9C2.983-3.983,2.183-4.433,1.45-4.7C0.683-4.967,0.217-4.983,0.05-4.75z"/>
	</g>
</symbol>
<symbol  id="FlashAICB_x2F_ground_spots_x2F__x3C_Path_x3E__x5F_13" viewBox="-0.001 -4.004 12.153 3.958">
	<g id="Layer_1_5_">
		<path style="fill-rule:evenodd;clip-rule:evenodd;fill:#59412F;" d="M6.15-0.05c1.667-0.034,3.1-0.25,4.3-0.65
			c1.167-0.4,1.733-0.867,1.7-1.4c-0.033-0.566-0.65-1.033-1.85-1.4C9.1-3.867,7.667-4.033,6-4C4.3-3.967,2.867-3.75,1.7-3.35
			C0.533-2.917-0.033-2.433,0-1.9c0.033,0.566,0.65,1.017,1.85,1.35C3.05-0.183,4.483-0.017,6.15-0.05z"/>
	</g>
</symbol>
<symbol  id="FlashAICB_x2F_ground_spots_x2F__x3C_Path_x3E__x5F_15" viewBox="-0.011 -9.166 9.85 9.132">
	<g id="Layer_1_4_">
		<path style="fill-rule:evenodd;clip-rule:evenodd;fill:#59412F;" d="M3.65-3.2C4.983-2,6.233-1.117,7.4-0.55
			c1.167,0.566,1.917,0.667,2.25,0.3c0.367-0.367,0.2-1.117-0.5-2.25c-0.667-1.1-1.667-2.25-3-3.45c-1.3-1.2-2.533-2.1-3.7-2.7
			c-1.167-0.567-1.934-0.667-2.3-0.3C-0.183-8.583,0-7.833,0.7-6.7C1.367-5.567,2.35-4.4,3.65-3.2z"/>
	</g>
</symbol>
<symbol  id="FlashAICB_x2F_ground_spots_x2F__x3C_Path_x3E__x5F_16" viewBox="-0.009 -8.708 17.719 8.665">
	<g id="Layer_1_3_">
		<path style="fill-rule:evenodd;clip-rule:evenodd;fill:#59412F;" d="M7.85-1.45c2.433,0.9,4.617,1.367,6.55,1.4
			c1.9,0.066,2.983-0.3,3.25-1.1c0.267-0.833-0.367-1.833-1.9-3C14.217-5.35,12.233-6.4,9.8-7.3C7.367-8.167,5.2-8.633,3.3-8.7
			C1.367-8.767,0.283-8.383,0.05-7.55c-0.267,0.8,0.367,1.8,1.9,3C3.45-3.35,5.417-2.317,7.85-1.45z"/>
	</g>
</symbol>
<symbol  id="FlashAICB_x2F_ground_spots_x2F__x3C_Path_x3E__x5F_17" viewBox="0.015 -7.228 8.32 7.206">
	<g id="Layer_1_2_">
		<path style="fill-rule:evenodd;clip-rule:evenodd;fill:#59412F;" d="M0.2-6.6c-0.333,0.567-0.217,1.333,0.35,2.3
			c0.534,0.966,1.333,1.867,2.4,2.7c1.1,0.833,2.167,1.333,3.2,1.5c1,0.2,1.667,0.017,2-0.55c0.333-0.567,0.217-1.333-0.35-2.3
			C7.267-3.917,6.45-4.8,5.35-5.6C4.25-6.433,3.2-6.95,2.2-7.15C1.2-7.35,0.533-7.167,0.2-6.6z"/>
	</g>
</symbol>
<symbol  id="FlashAICB_x2F_ground_spots_x2F__x3C_Path_x3E__x5F_3" viewBox="-0.001 -3.867 16.305 3.833">
	<g id="Layer_1_10_">
		<path style="fill-rule:evenodd;clip-rule:evenodd;fill:#59412F;" d="M8.35-3.6c-2.233-0.267-4.167-0.333-5.8-0.2
			C0.917-3.7,0.067-3.417,0-2.95C-0.033-2.483,0.717-2,2.25-1.5c1.533,0.533,3.433,0.933,5.7,1.2c2.233,0.267,4.183,0.333,5.85,0.2
			c1.633-0.133,2.467-0.417,2.5-0.85c0.067-0.466-0.683-0.95-2.25-1.45C12.517-2.933,10.617-3.333,8.35-3.6z"/>
	</g>
</symbol>
<symbol  id="FlashAICB_x2F_ground_spots_x2F__x3C_Path_x3E__x5F_5" viewBox="0 -1.558 7.15 1.558">
	<g id="Layer_1_9_">
		<path style="fill-rule:evenodd;clip-rule:evenodd;fill:#59412F;" d="M0-0.85C0-0.617,0.35-0.433,1.05-0.3
			c0.667,0.167,1.5,0.267,2.5,0.3c1,0,1.85-0.067,2.55-0.2c0.7-0.133,1.05-0.3,1.05-0.5c0-0.5-1.183-0.783-3.55-0.85
			c-0.967-0.034-1.817,0.033-2.55,0.2C0.35-1.217,0-1.05,0-0.85z"/>
	</g>
</symbol>
<symbol  id="FlashAICB_x2F_ground_spots_x2F__x3C_Path_x3E__x5F_7" viewBox="0 -1.69 8.752 1.715">
	<g id="Layer_1_8_">
		<path style="fill-rule:evenodd;clip-rule:evenodd;fill:#59412F;" d="M4.35-1.6c-1.233,0.1-2.267,0.267-3.1,0.5
			C0.417-0.9,0-0.683,0-0.45c0.033,0.2,0.483,0.333,1.35,0.4c0.867,0.1,1.9,0.1,3.1,0c1.2-0.1,2.216-0.267,3.05-0.5
			c0.867-0.2,1.283-0.417,1.25-0.65c-0.033-0.2-0.467-0.35-1.3-0.45C6.583-1.717,5.55-1.7,4.35-1.6z"/>
	</g>
</symbol>
<symbol  id="FlashAICB_x2F_ground_spots_x2F__x3C_Path_x3E__x5F_8" viewBox="-0.002 -2.257 6.913 2.263">
	<g id="Layer_1_7_">
		<path style="fill-rule:evenodd;clip-rule:evenodd;fill:#59412F;" d="M0-2c-0.033,0.2,0.267,0.45,0.9,0.75
			c0.6,0.3,1.383,0.583,2.35,0.85c0.967,0.233,1.8,0.367,2.5,0.4C6.483,0.033,6.867-0.067,6.9-0.3c0.133-0.467-0.95-1-3.25-1.6
			c-0.967-0.233-1.8-0.35-2.5-0.35C0.45-2.283,0.067-2.2,0-2z"/>
	</g>
</symbol>
<symbol  id="FlashAICB_x2F_ground_spots_x2F__x3C_Path_x3E__x5F_9" viewBox="-0.001 -4.375 19.654 4.4">
	<g id="Layer_1_6_">
		<path style="fill-rule:evenodd;clip-rule:evenodd;fill:#59412F;" d="M9.65-0.15c2.733,0.233,5.067,0.233,7,0
			c1.967-0.233,2.967-0.633,3-1.2c0.067-0.566-0.85-1.133-2.75-1.7C15.033-3.583,12.733-3.967,10-4.2c-2.7-0.233-5.033-0.233-7,0
			C1.067-3.967,0.067-3.567,0-3c-0.033,0.567,0.883,1.133,2.75,1.7C4.617-0.767,6.917-0.383,9.65-0.15z"/>
	</g>
</symbol>
<use xlink:href="#FlashAICB_x2F_ground_spots_x2F__x3C_Group_x3E_"  width="222.935" height="72.532" y="-72.554" transform="matrix(1 0 0 -1 0 0)" style="overflow:visible;opacity:0.3008;enable-background:new    ;"/>
</svg>
