<?xml version="1.0" encoding="iso-8859-1"?>
<!-- Generator: Adobe Illustrator 15.1.0, SVG Export Plug-In . SVG Version: 6.00 Build 0)  -->
<!DOCTYPE svg PUBLIC "-//W3C//DTD SVG 1.1//EN" "http://www.w3.org/Graphics/SVG/1.1/DTD/svg11.dtd">
<svg version="1.1" id="ground_spots" xmlns="http://www.w3.org/2000/svg" xmlns:xlink="http://www.w3.org/1999/xlink" x="0px"
	 y="0px" width="85.65px" height="16px" viewBox="0 0 85.65 16" style="enable-background:new 0 0 85.65 16;" xml:space="preserve">
<symbol  id="FlashAICB_x2F_ground_spots_x2F__x3C_Group_x3E_" viewBox="0 -16 85.65 16">
	<g id="Layer_1_3_">
		<g>
			<path style="fill-rule:evenodd;clip-rule:evenodd;fill:#59412F;" d="M42.05-6.75c-2.2-0.767-4.833-1.15-7.9-1.15
				c-3.1,0-5.733,0.383-7.9,1.15c-2.2,0.767-3.3,1.7-3.3,2.8c0,1.067,1.1,2,3.3,2.8C28.417-0.383,31.05,0,34.15,0
				c3.067,0,5.7-0.383,7.9-1.15c2.167-0.8,3.25-1.733,3.25-2.8C45.3-5.05,44.217-5.983,42.05-6.75z"/>
			<path style="fill-rule:evenodd;clip-rule:evenodd;fill:#59412F;" d="M0-13c0,0.833,1,1.533,3,2.1
				c1.967,0.566,4.35,0.85,7.15,0.85c2.8,0,5.184-0.284,7.15-0.85c1.967-0.567,2.95-1.267,2.95-2.1s-0.983-1.533-2.95-2.1
				c-1.966-0.6-4.35-0.9-7.15-0.9c-2.8,0-5.183,0.3-7.15,0.9C1-14.533,0-13.833,0-13z"/>
			<path style="fill-rule:evenodd;clip-rule:evenodd;fill:#59412F;" d="M81.15-7.95c-1.267,0-2.333,0.133-3.2,0.4
				c-0.9,0.3-1.35,0.65-1.35,1.05c0,0.433,0.45,0.783,1.35,1.05C78.817-5.15,79.883-5,81.15-5s2.333-0.15,3.2-0.45
				c0.867-0.267,1.3-0.617,1.3-1.05c0-0.4-0.433-0.75-1.3-1.05C83.45-7.817,82.383-7.95,81.15-7.95z"/>
			<path style="fill-rule:evenodd;clip-rule:evenodd;fill:#59412F;" d="M44.6-13.25c0,0.467,0.45,0.883,1.35,1.25
				c0.9,0.333,1.966,0.5,3.2,0.5s2.3-0.167,3.2-0.5c0.867-0.367,1.3-0.783,1.3-1.25s-0.433-0.867-1.3-1.2
				c-0.867-0.333-1.934-0.5-3.2-0.5s-2.333,0.167-3.2,0.5C45.05-14.117,44.6-13.717,44.6-13.25z"/>
			
				<use xlink:href="#FlashAICB_x2F_ground_spots_x2F__x3C_Path_x3E_"  width="20.95" height="6.4" y="-6.4" transform="matrix(1 0 0 1 50.6504 -2.5498)" style="overflow:visible;opacity:0.6992;enable-background:new    ;"/>
		</g>
	</g>
</symbol>
<symbol  id="FlashAICB_x2F_ground_spots_x2F__x3C_Path_x3E_" viewBox="0 -6.4 20.95 6.4">
	<g id="Layer_1_2_">
		<path style="fill-rule:evenodd;clip-rule:evenodd;fill:#59412F;" d="M0-3.2c0,0.9,1.033,1.65,3.1,2.25C5.133-0.317,7.6,0,10.5,0
			s5.367-0.317,7.4-0.95c2.033-0.6,3.05-1.35,3.05-2.25c0-0.867-1.017-1.617-3.05-2.25c-2.066-0.633-4.533-0.95-7.4-0.95
			c-2.9,0-5.367,0.316-7.4,0.95C1.033-4.817,0-4.067,0-3.2z"/>
	</g>
</symbol>
<use xlink:href="#FlashAICB_x2F_ground_spots_x2F__x3C_Group_x3E_"  width="85.65" height="16" y="-16" transform="matrix(1 0 0 -1 0 0)" style="overflow:visible;opacity:0.3008;enable-background:new    ;"/>
</svg>
