<?xml version="1.0" encoding="iso-8859-1"?>
<!-- Generator: Adobe Illustrator 15.1.0, SVG Export Plug-In . SVG Version: 6.00 Build 0)  -->
<!DOCTYPE svg PUBLIC "-//W3C//DTD SVG 1.1//EN" "http://www.w3.org/Graphics/SVG/1.1/DTD/svg11.dtd">
<svg version="1.1" id="ground_spots" xmlns="http://www.w3.org/2000/svg" xmlns:xlink="http://www.w3.org/1999/xlink" x="0px"
	 y="0px" width="489.45px" height="34.5px" viewBox="0 0 489.45 34.5" style="enable-background:new 0 0 489.45 34.5;"
	 xml:space="preserve">
<symbol  id="FlashAICB_x2F_ground_spots_x2F__x3C_Group_x3E_" viewBox="0 -34.5 489.45 34.5">
	<g id="Layer_1_23_">
		<g>
			<path style="fill-rule:evenodd;clip-rule:evenodd;fill:#59412F;" d="M207.55-28.35c3.833,0,7.117-0.3,9.85-0.9
				s4.1-1.317,4.1-2.15c0-0.867-1.367-1.6-4.1-2.2s-6.017-0.9-9.85-0.9c-3.867,0-7.167,0.3-9.9,0.9s-4.1,1.333-4.1,2.2
				c0,0.833,1.367,1.55,4.1,2.15S203.683-28.35,207.55-28.35z"/>
			<path style="fill-rule:evenodd;clip-rule:evenodd;fill:#59412F;" d="M110.35-12.2c0-0.566-0.867-1.033-2.6-1.4
				c-1.7-0.4-3.767-0.6-6.2-0.6c-2.4,0-4.45,0.2-6.15,0.6c-1.733,0.367-2.6,0.833-2.6,1.4c0,0.567,0.867,1.05,2.6,1.45
				c1.7,0.4,3.75,0.6,6.15,0.6c2.434,0,4.5-0.2,6.2-0.6C109.483-11.15,110.35-11.633,110.35-12.2z"/>
			
				<use xlink:href="#FlashAICB_x2F_ground_spots_x2F__x3C_Path_x3E__x5F_31"  width="7.65" height="1.75" y="-1.75" transform="matrix(1 0 0 1 101.0498 -16.5498)" style="overflow:visible;opacity:0.6992;enable-background:new    ;"/>
			<path style="fill-rule:evenodd;clip-rule:evenodd;fill:#59412F;" d="M123.65-22.3c2.667-0.5,4-1.083,4-1.75
				c0-0.667-1.333-1.25-4-1.75c-2.667-0.467-5.9-0.7-9.7-0.7c-3.767,0-6.983,0.233-9.65,0.7c-2.667,0.5-4,1.083-4,1.75
				c0,0.667,1.333,1.25,4,1.75c2.667,0.466,5.883,0.7,9.65,0.7C117.75-21.6,120.983-21.833,123.65-22.3z"/>
			
				<use xlink:href="#FlashAICB_x2F_ground_spots_x2F__x3C_Path_x3E__x5F_29"  width="19.75" height="4.05" y="-4.05" transform="matrix(1 0 0 1 0 -1.5498)" style="overflow:visible;opacity:0.6992;enable-background:new    ;"/>
			
				<use xlink:href="#FlashAICB_x2F_ground_spots_x2F__x3C_Path_x3E__x5F_28"  width="15.85" height="3.05" y="-3.05" transform="matrix(1 0 0 1 248.0996 -16.8999)" style="overflow:visible;opacity:0.6992;enable-background:new    ;"/>
			
				<use xlink:href="#FlashAICB_x2F_ground_spots_x2F__x3C_Path_x3E__x5F_27"  width="6.05" height="1.55" y="-1.55" transform="matrix(1 0 0 1 145.8999 -17.0498)" style="overflow:visible;opacity:0.6992;enable-background:new    ;"/>
			
				<use xlink:href="#FlashAICB_x2F_ground_spots_x2F__x3C_Path_x3E__x5F_26"  width="7.1" height="1.5" y="-1.5" transform="matrix(1 0 0 1 127.8501 -10.3999)" style="overflow:visible;opacity:0.6992;enable-background:new    ;"/>
			
				<use xlink:href="#FlashAICB_x2F_ground_spots_x2F__x3C_Path_x3E__x5F_25"  width="8.75" height="1.55" y="-1.55" transform="matrix(1 0 0 1 171.1001 -13.4502)" style="overflow:visible;opacity:0.6992;enable-background:new    ;"/>
			
				<use xlink:href="#FlashAICB_x2F_ground_spots_x2F__x3C_Path_x3E__x5F_24"  width="13.7" height="2.811" y="-2.805" transform="matrix(1 0 0 1 35.6499 -2.1001)" style="overflow:visible;opacity:0.6992;enable-background:new    ;"/>
			
				<use xlink:href="#FlashAICB_x2F_ground_spots_x2F__x3C_Path_x3E__x5F_23"  width="7.15" height="1.55" y="-1.55" transform="matrix(1 0 0 1 59.9502 -17.5498)" style="overflow:visible;opacity:0.6992;enable-background:new    ;"/>
			
				<use xlink:href="#FlashAICB_x2F_ground_spots_x2F__x3C_Path_x3E__x5F_22"  width="7.1" height="1.8" y="-1.8" transform="matrix(1 0 0 1 22.75 -21.6504)" style="overflow:visible;opacity:0.6992;enable-background:new    ;"/>
			<path style="fill-rule:evenodd;clip-rule:evenodd;fill:#59412F;" d="M43.35-17.55c1.6-0.3,2.4-0.684,2.4-1.15
				c0-0.466-0.8-0.85-2.4-1.15c-1.633-0.333-3.583-0.5-5.85-0.5c-2.233,0-4.167,0.167-5.8,0.5c-1.6,0.3-2.4,0.684-2.4,1.15
				c0,0.434,0.8,0.817,2.4,1.15c1.633,0.333,3.566,0.5,5.8,0.5C39.767-17.05,41.717-17.217,43.35-17.55z"/>
			
				<use xlink:href="#FlashAICB_x2F_ground_spots_x2F__x3C_Path_x3E__x5F_20"  width="7.15" height="1.65" y="-1.65" transform="matrix(1 0 0 1 156.2998 -16.1001)" style="overflow:visible;opacity:0.6992;enable-background:new    ;"/>
			<path style="fill-rule:evenodd;clip-rule:evenodd;fill:#59412F;" d="M262.55-6.35c3.833,0,7.117-0.3,9.85-0.9s4.1-1.317,4.1-2.15
				c0-0.867-1.367-1.6-4.1-2.2s-6.017-0.9-9.85-0.9c-3.867,0-7.167,0.3-9.9,0.9s-4.1,1.333-4.1,2.2c0,0.833,1.367,1.55,4.1,2.15
				S258.683-6.35,262.55-6.35z"/>
			<path style="fill-rule:evenodd;clip-rule:evenodd;fill:#59412F;" d="M487.15-1.9c1.533-0.3,2.3-0.667,2.3-1.1
				s-0.767-0.783-2.3-1.05c-1.566-0.3-3.45-0.434-5.65-0.4c-2.2,0.034-4.067,0.2-5.6,0.5c-1.533,0.3-2.3,0.667-2.3,1.1
				c0,0.434,0.783,0.783,2.35,1.05c1.533,0.3,3.4,0.433,5.6,0.4C483.717-1.4,485.583-1.567,487.15-1.9z"/>
			<path style="fill-rule:evenodd;clip-rule:evenodd;fill:#59412F;" d="M424.2-16.4c4.267,0,7.917-0.283,10.95-0.85
				c3-0.567,4.5-1.25,4.5-2.05c0-0.8-1.5-1.483-4.5-2.05c-3.033-0.566-6.683-0.85-10.95-0.85c-4.233,0-7.867,0.284-10.9,0.85
				c-3,0.567-4.5,1.25-4.5,2.05c0,0.8,1.5,1.483,4.5,2.05C416.333-16.683,419.967-16.4,424.2-16.4z"/>
			
				<use xlink:href="#FlashAICB_x2F_ground_spots_x2F__x3C_Path_x3E__x5F_16"  width="22.45" height="4.95" y="-4.95" transform="matrix(1 0 0 1 370.5498 -24.2002)" style="overflow:visible;opacity:0.6992;enable-background:new    ;"/>
			
				<use xlink:href="#FlashAICB_x2F_ground_spots_x2F__x3C_Path_x3E__x5F_15"  width="7.15" height="1.55" y="-1.55" transform="matrix(1 0 0 1 155.9502 -2.3999)" style="overflow:visible;opacity:0.6992;enable-background:new    ;"/>
			<path style="fill-rule:evenodd;clip-rule:evenodd;fill:#59412F;" d="M201.8-9.4c0-0.567-0.867-1.05-2.6-1.45
				c-1.7-0.4-3.767-0.6-6.2-0.6c-2.4,0-4.45,0.2-6.15,0.6c-1.733,0.4-2.6,0.883-2.6,1.45c0,0.533,0.867,1,2.6,1.4
				c1.7,0.4,3.75,0.6,6.15,0.6c2.433,0,4.5-0.2,6.2-0.6C200.933-8.4,201.8-8.867,201.8-9.4z"/>
			<path style="fill-rule:evenodd;clip-rule:evenodd;fill:#59412F;" d="M62.5-7.55c2.267,0,4.217-0.167,5.85-0.5
				c1.6-0.3,2.4-0.684,2.4-1.15c0-0.466-0.8-0.85-2.4-1.15c-1.633-0.333-3.583-0.5-5.85-0.5c-2.233,0-4.167,0.167-5.8,0.5
				c-1.6,0.3-2.4,0.684-2.4,1.15c0,0.434,0.8,0.817,2.4,1.15C58.333-7.717,60.267-7.55,62.5-7.55z"/>
			<path style="fill-rule:evenodd;clip-rule:evenodd;fill:#59412F;" d="M303.7-15.6c3.033,0,5.617-0.233,7.75-0.7
				c2.133-0.5,3.2-1.083,3.2-1.75c0-0.667-1.066-1.25-3.2-1.75c-2.133-0.467-4.717-0.7-7.75-0.7c-3,0-5.567,0.233-7.7,0.7
				c-2.133,0.5-3.2,1.083-3.2,1.75c0,0.667,1.067,1.25,3.2,1.75C298.133-15.833,300.7-15.6,303.7-15.6z"/>
			
				<use xlink:href="#FlashAICB_x2F_ground_spots_x2F__x3C_Path_x3E__x5F_11"  width="18.45" height="4.35" y="-4.35" transform="matrix(1 0 0 1 334.5498 0)" style="overflow:visible;opacity:0.6992;enable-background:new    ;"/>
			<path style="fill-rule:evenodd;clip-rule:evenodd;fill:#59412F;" d="M466.2-23.2c2.9,0,5.367-0.233,7.4-0.7s3.05-1.017,3.05-1.65
				c0-0.667-1.017-1.217-3.05-1.65c-2.033-0.466-4.5-0.7-7.4-0.7c-2.867,0-5.317,0.233-7.35,0.7c-2.033,0.434-3.05,0.983-3.05,1.65
				c0,0.633,1.017,1.183,3.05,1.65S463.333-23.2,466.2-23.2z"/>
			
				<use xlink:href="#FlashAICB_x2F_ground_spots_x2F__x3C_Path_x3E__x5F_9"  width="6.05" height="1.5" y="-1.5" transform="matrix(1 0 0 1 229 -19.4004)" style="overflow:visible;opacity:0.6992;enable-background:new    ;"/>
			
				<use xlink:href="#FlashAICB_x2F_ground_spots_x2F__x3C_Path_x3E__x5F_8"  width="7.15" height="1.65" y="-1.65" transform="matrix(1 0 0 1 220.4502 -4.6001)" style="overflow:visible;opacity:0.6992;enable-background:new    ;"/>
			
				<use xlink:href="#FlashAICB_x2F_ground_spots_x2F__x3C_Path_x3E__x5F_7"  width="28.85" height="6.1" y="-6.1" transform="matrix(1 0 0 1 138.2998 -26)" style="overflow:visible;opacity:0.6992;enable-background:new    ;"/>
			<path style="fill-rule:evenodd;clip-rule:evenodd;fill:#59412F;" d="M391.25-0.7c2.833,0,5.233-0.167,7.2-0.5
				c2-0.333,3-0.733,3-1.2c0-0.5-1-0.917-3-1.25c-1.967-0.333-4.367-0.5-7.2-0.5s-5.233,0.167-7.2,0.5c-2,0.333-3,0.75-3,1.25
				c0,0.467,1,0.867,3,1.2C386.017-0.867,388.417-0.7,391.25-0.7z"/>
			
				<use xlink:href="#FlashAICB_x2F_ground_spots_x2F__x3C_Path_x3E__x5F_5"  width="16.45" height="3.05" y="-3.05" transform="matrix(1 0 0 1 318.5498 -11.3999)" style="overflow:visible;opacity:0.6992;enable-background:new    ;"/>
			
				<use xlink:href="#FlashAICB_x2F_ground_spots_x2F__x3C_Path_x3E__x5F_4"  width="7.15" height="1.55" y="-1.55" transform="matrix(1 0 0 1 410.9502 -2.6499)" style="overflow:visible;opacity:0.6992;enable-background:new    ;"/>
			
				<use xlink:href="#FlashAICB_x2F_ground_spots_x2F__x3C_Path_x3E__x5F_3"  width="7.15" height="1.75" y="-1.75" transform="matrix(1 0 0 1 360.9502 -13.1499)" style="overflow:visible;opacity:0.6992;enable-background:new    ;"/>
			
				<use xlink:href="#FlashAICB_x2F_ground_spots_x2F__x3C_Path_x3E__x5F_2"  width="16.45" height="3.35" y="-3.35" transform="matrix(1 0 0 1 434.7998 -4.75)" style="overflow:visible;opacity:0.6992;enable-background:new    ;"/>
			<path style="fill-rule:evenodd;clip-rule:evenodd;fill:#59412F;" d="M348.5-24.65c1.2,0,2.233-0.083,3.1-0.25
				c0.867-0.133,1.3-0.3,1.3-0.5c0-0.233-0.433-0.417-1.3-0.55c-0.833-0.167-1.867-0.25-3.1-0.25c-1.2,0-2.217,0.083-3.05,0.25
				c-0.867,0.133-1.3,0.317-1.3,0.55c0,0.2,0.434,0.367,1.3,0.5C346.283-24.733,347.3-24.65,348.5-24.65z"/>
			
				<use xlink:href="#FlashAICB_x2F_ground_spots_x2F__x3C_Path_x3E_"  width="7.15" height="1.65" y="-1.65" transform="matrix(1 0 0 1 323.4502 -22.25)" style="overflow:visible;opacity:0.6992;enable-background:new    ;"/>
		</g>
	</g>
</symbol>
<symbol  id="FlashAICB_x2F_ground_spots_x2F__x3C_Path_x3E_" viewBox="0 -1.65 7.15 1.65">
	<g id="Layer_1_22_">
		<path style="fill-rule:evenodd;clip-rule:evenodd;fill:#59412F;" d="M3.6,0c0.967,0,1.8-0.083,2.5-0.25
			c0.7-0.167,1.05-0.367,1.05-0.6S6.8-1.267,6.1-1.4C5.4-1.567,4.567-1.65,3.6-1.65c-1,0-1.85,0.083-2.55,0.25
			C0.35-1.267,0-1.083,0-0.85s0.35,0.434,1.05,0.6C1.75-0.083,2.6,0,3.6,0z"/>
	</g>
</symbol>
<symbol  id="FlashAICB_x2F_ground_spots_x2F__x3C_Path_x3E__x5F_11" viewBox="0 -4.35 18.45 4.35">
	<g id="Layer_1_14_">
		<path style="fill-rule:evenodd;clip-rule:evenodd;fill:#59412F;" d="M9.25,0c2.533,0,4.7-0.217,6.5-0.65c1.8-0.4,2.7-0.9,2.7-1.5
			c0-0.633-0.9-1.15-2.7-1.55c-1.8-0.433-3.967-0.65-6.5-0.65C6.683-4.35,4.5-4.133,2.7-3.7C0.9-3.3,0-2.783,0-2.15
			c0,0.6,0.9,1.1,2.7,1.5C4.5-0.217,6.683,0,9.25,0z"/>
	</g>
</symbol>
<symbol  id="FlashAICB_x2F_ground_spots_x2F__x3C_Path_x3E__x5F_15" viewBox="0 -1.55 7.15 1.55">
	<g id="Layer_1_13_">
		<path style="fill-rule:evenodd;clip-rule:evenodd;fill:#59412F;" d="M3.6-1.55c-1,0-1.85,0.066-2.55,0.2C0.35-1.183,0-1,0-0.8
			c0,0.233,0.35,0.417,1.05,0.55C1.75-0.083,2.6,0,3.6,0c0.967,0,1.8-0.083,2.5-0.25C6.8-0.383,7.15-0.567,7.15-0.8
			C7.15-1,6.8-1.183,6.1-1.35C5.4-1.483,4.567-1.55,3.6-1.55z"/>
	</g>
</symbol>
<symbol  id="FlashAICB_x2F_ground_spots_x2F__x3C_Path_x3E__x5F_16" viewBox="0 -4.95 22.45 4.95">
	<g id="Layer_1_12_">
		<path style="fill-rule:evenodd;clip-rule:evenodd;fill:#59412F;" d="M11.25,0c3.067,0,5.7-0.233,7.9-0.7
			c2.2-0.5,3.3-1.083,3.3-1.75c0-0.7-1.1-1.3-3.3-1.8c-2.167-0.467-4.8-0.7-7.9-0.7S5.5-4.717,3.3-4.25C1.1-3.75,0-3.15,0-2.45
			C0-1.783,1.1-1.2,3.3-0.7C5.5-0.233,8.15,0,11.25,0z"/>
	</g>
</symbol>
<symbol  id="FlashAICB_x2F_ground_spots_x2F__x3C_Path_x3E__x5F_2" viewBox="0 -3.35 16.45 3.35">
	<g id="Layer_1_21_">
		<path style="fill-rule:evenodd;clip-rule:evenodd;fill:#59412F;" d="M8.25,0c2.233,0,4.167-0.167,5.8-0.5
			c1.6-0.333,2.4-0.717,2.4-1.15c0-0.467-0.8-0.867-2.4-1.2c-1.6-0.333-3.533-0.5-5.8-0.5S4.033-3.183,2.4-2.85
			C0.8-2.517,0-2.117,0-1.65S0.8-0.8,2.4-0.5C4.033-0.167,5.983,0,8.25,0z"/>
	</g>
</symbol>
<symbol  id="FlashAICB_x2F_ground_spots_x2F__x3C_Path_x3E__x5F_20" viewBox="0 -1.65 7.15 1.65">
	<g id="Layer_1_11_">
		<path style="fill-rule:evenodd;clip-rule:evenodd;fill:#59412F;" d="M0-0.8c0,0.233,0.35,0.417,1.05,0.55C1.75-0.083,2.6,0,3.6,0
			c0.967,0,1.8-0.083,2.5-0.25C6.8-0.383,7.15-0.567,7.15-0.8c0-0.233-0.35-0.434-1.05-0.6C5.4-1.567,4.567-1.65,3.6-1.65
			c-1,0-1.85,0.083-2.55,0.25C0.35-1.233,0-1.033,0-0.8z"/>
	</g>
</symbol>
<symbol  id="FlashAICB_x2F_ground_spots_x2F__x3C_Path_x3E__x5F_22" viewBox="0 -1.8 7.1 1.8">
	<g id="Layer_1_10_">
		<path style="fill-rule:evenodd;clip-rule:evenodd;fill:#59412F;" d="M3.55,0c0.967,0,1.8-0.083,2.5-0.25
			C6.75-0.45,7.1-0.667,7.1-0.9c0-0.267-0.35-0.483-1.05-0.65C5.35-1.717,4.517-1.8,3.55-1.8c-1,0-1.833,0.083-2.5,0.25
			C0.35-1.383,0-1.167,0-0.9c0,0.233,0.35,0.45,1.05,0.65C1.717-0.083,2.55,0,3.55,0z"/>
	</g>
</symbol>
<symbol  id="FlashAICB_x2F_ground_spots_x2F__x3C_Path_x3E__x5F_23" viewBox="0 -1.55 7.15 1.55">
	<g id="Layer_1_9_">
		<path style="fill-rule:evenodd;clip-rule:evenodd;fill:#59412F;" d="M3.55,0c1,0,1.85-0.083,2.55-0.25
			c0.7-0.133,1.05-0.3,1.05-0.5c0-0.233-0.35-0.417-1.05-0.55C5.4-1.467,4.55-1.55,3.55-1.55c-0.966,0-1.8,0.083-2.5,0.25
			C0.35-1.167,0-0.983,0-0.75c0,0.2,0.35,0.367,1.05,0.5C1.75-0.083,2.583,0,3.55,0z"/>
	</g>
</symbol>
<symbol  id="FlashAICB_x2F_ground_spots_x2F__x3C_Path_x3E__x5F_24" viewBox="0 -2.805 13.7 2.811">
	<g id="Layer_1_8_">
		<path style="fill-rule:evenodd;clip-rule:evenodd;fill:#59412F;" d="M11.7-0.35c1.333-0.267,2-0.6,2-1c0-0.367-0.667-0.7-2-1
			C10.333-2.65,8.733-2.8,6.9-2.8C5-2.833,3.383-2.717,2.05-2.45C0.717-2.183,0.033-1.867,0-1.5c0,0.4,0.667,0.75,2,1.05
			C3.333-0.183,4.95-0.033,6.85,0C8.717,0.033,10.333-0.083,11.7-0.35z"/>
	</g>
</symbol>
<symbol  id="FlashAICB_x2F_ground_spots_x2F__x3C_Path_x3E__x5F_25" viewBox="0 -1.55 8.75 1.55">
	<g id="Layer_1_7_">
		<path style="fill-rule:evenodd;clip-rule:evenodd;fill:#59412F;" d="M4.4,0c1.2,0,2.233-0.083,3.1-0.25
			c0.833-0.133,1.25-0.3,1.25-0.5c0-0.233-0.417-0.417-1.25-0.55C6.633-1.467,5.6-1.55,4.4-1.55c-1.233,0-2.267,0.083-3.1,0.25
			C0.433-1.167,0-0.983,0-0.75c0,0.2,0.433,0.367,1.3,0.5C2.167-0.083,3.2,0,4.4,0z"/>
	</g>
</symbol>
<symbol  id="FlashAICB_x2F_ground_spots_x2F__x3C_Path_x3E__x5F_26" viewBox="0 -1.5 7.1 1.5">
	<g id="Layer_1_6_">
		<path style="fill-rule:evenodd;clip-rule:evenodd;fill:#59412F;" d="M3.55,0c1,0,1.85-0.083,2.55-0.25c0.667-0.133,1-0.3,1-0.5
			c0-0.5-1.184-0.75-3.55-0.75S0-1.25,0-0.75c0,0.2,0.35,0.367,1.05,0.5C1.75-0.083,2.583,0,3.55,0z"/>
	</g>
</symbol>
<symbol  id="FlashAICB_x2F_ground_spots_x2F__x3C_Path_x3E__x5F_27" viewBox="0 -1.55 6.05 1.55">
	<g id="Layer_1_5_">
		<path style="fill-rule:evenodd;clip-rule:evenodd;fill:#59412F;" d="M3.05-1.55c-0.867,0-1.583,0.083-2.15,0.25
			C0.3-1.167,0-0.983,0-0.75c0,0.2,0.3,0.367,0.9,0.5C1.5-0.083,2.217,0,3.05,0c0.833,0,1.534-0.083,2.1-0.25
			c0.6-0.133,0.9-0.3,0.9-0.5c0-0.233-0.3-0.417-0.9-0.55C4.583-1.467,3.883-1.55,3.05-1.55z"/>
	</g>
</symbol>
<symbol  id="FlashAICB_x2F_ground_spots_x2F__x3C_Path_x3E__x5F_28" viewBox="0 -3.05 15.85 3.05">
	<g id="Layer_1_4_">
		<path style="fill-rule:evenodd;clip-rule:evenodd;fill:#59412F;" d="M7.95,0c2.167,0,4.033-0.15,5.6-0.45
			c1.534-0.3,2.3-0.65,2.3-1.05c0-0.433-0.767-0.8-2.3-1.1c-1.566-0.3-3.433-0.45-5.6-0.45c-2.2,0-4.067,0.15-5.6,0.45
			C0.783-2.3,0-1.933,0-1.5c0,0.4,0.783,0.75,2.35,1.05C3.917-0.15,5.783,0,7.95,0z"/>
	</g>
</symbol>
<symbol  id="FlashAICB_x2F_ground_spots_x2F__x3C_Path_x3E__x5F_29" viewBox="0 -4.05 19.75 4.05">
	<g id="Layer_1_3_">
		<path style="fill-rule:evenodd;clip-rule:evenodd;fill:#59412F;" d="M9.85,0c2.733,0,5.066-0.2,7-0.6
			c1.933-0.4,2.9-0.883,2.9-1.45c0-0.567-0.967-1.034-2.9-1.4c-1.934-0.4-4.267-0.6-7-0.6c-2.7,0-5.017,0.2-6.95,0.6
			C0.967-3.083,0-2.617,0-2.05C0-1.483,0.967-1,2.9-0.6C4.833-0.2,7.15,0,9.85,0z"/>
	</g>
</symbol>
<symbol  id="FlashAICB_x2F_ground_spots_x2F__x3C_Path_x3E__x5F_3" viewBox="0 -1.75 7.15 1.75">
	<g id="Layer_1_20_">
		<path style="fill-rule:evenodd;clip-rule:evenodd;fill:#59412F;" d="M3.6,0c0.967,0,1.8-0.083,2.5-0.25
			c0.7-0.2,1.05-0.417,1.05-0.65S6.8-1.333,6.1-1.5C5.4-1.667,4.567-1.75,3.6-1.75c-1,0-1.85,0.083-2.55,0.25
			C0.35-1.333,0-1.133,0-0.9s0.35,0.45,1.05,0.65C1.75-0.083,2.6,0,3.6,0z"/>
	</g>
</symbol>
<symbol  id="FlashAICB_x2F_ground_spots_x2F__x3C_Path_x3E__x5F_31" viewBox="0 -1.75 7.65 1.75">
	<g id="Layer_1_2_">
		<path style="fill-rule:evenodd;clip-rule:evenodd;fill:#59412F;" d="M0-0.85c0,0.233,0.367,0.434,1.1,0.6
			C1.867-0.083,2.767,0,3.8,0c1.034,0,1.934-0.083,2.7-0.25s1.15-0.367,1.15-0.6c0-0.267-0.383-0.483-1.15-0.65
			C5.767-1.667,4.867-1.75,3.8-1.75c-1.066,0-1.966,0.083-2.7,0.25S0-1.117,0-0.85z"/>
	</g>
</symbol>
<symbol  id="FlashAICB_x2F_ground_spots_x2F__x3C_Path_x3E__x5F_4" viewBox="0 -1.55 7.15 1.55">
	<g id="Layer_1_19_">
		<path style="fill-rule:evenodd;clip-rule:evenodd;fill:#59412F;" d="M3.6-1.55c-1,0-1.85,0.083-2.55,0.25
			C0.35-1.167,0-0.983,0-0.75c0,0.2,0.35,0.367,1.05,0.5C1.75-0.083,2.6,0,3.6,0c0.967,0,1.8-0.083,2.5-0.25
			c0.7-0.133,1.05-0.3,1.05-0.5c0-0.233-0.35-0.417-1.05-0.55C5.4-1.467,4.567-1.55,3.6-1.55z"/>
	</g>
</symbol>
<symbol  id="FlashAICB_x2F_ground_spots_x2F__x3C_Path_x3E__x5F_5" viewBox="0 -3.05 16.45 3.05">
	<g id="Layer_1_18_">
		<path style="fill-rule:evenodd;clip-rule:evenodd;fill:#59412F;" d="M8.25,0c2.233,0,4.167-0.15,5.8-0.45
			c1.6-0.3,2.4-0.65,2.4-1.05c0-0.433-0.8-0.8-2.4-1.1c-1.6-0.3-3.533-0.45-5.8-0.45S4.033-2.9,2.4-2.6C0.8-2.3,0-1.933,0-1.5
			c0,0.4,0.8,0.75,2.4,1.05C4.033-0.15,5.983,0,8.25,0z"/>
	</g>
</symbol>
<symbol  id="FlashAICB_x2F_ground_spots_x2F__x3C_Path_x3E__x5F_7" viewBox="0 -6.1 28.85 6.1">
	<g id="Layer_1_17_">
		<path style="fill-rule:evenodd;clip-rule:evenodd;fill:#59412F;" d="M14.4,0c4,0,7.417-0.3,10.25-0.9c2.8-0.6,4.2-1.317,4.2-2.15
			c0-0.833-1.4-1.55-4.2-2.15c-2.867-0.6-6.283-0.9-10.25-0.9S7.033-5.8,4.2-5.2C1.4-4.6,0-3.883,0-3.05C0-2.217,1.4-1.5,4.2-0.9
			C7.033-0.3,10.433,0,14.4,0z"/>
	</g>
</symbol>
<symbol  id="FlashAICB_x2F_ground_spots_x2F__x3C_Path_x3E__x5F_8" viewBox="0 -1.65 7.15 1.65">
	<g id="Layer_1_16_">
		<path style="fill-rule:evenodd;clip-rule:evenodd;fill:#59412F;" d="M3.6,0c0.967,0,1.8-0.083,2.5-0.25
			C6.8-0.383,7.15-0.567,7.15-0.8c0-0.567-1.183-0.85-3.55-0.85C1.2-1.65,0-1.367,0-0.8c0,0.233,0.35,0.417,1.05,0.55
			C1.75-0.083,2.6,0,3.6,0z"/>
	</g>
</symbol>
<symbol  id="FlashAICB_x2F_ground_spots_x2F__x3C_Path_x3E__x5F_9" viewBox="0 -1.5 6.05 1.5">
	<g id="Layer_1_15_">
		<path style="fill-rule:evenodd;clip-rule:evenodd;fill:#59412F;" d="M3.05,0c0.833,0,1.534-0.083,2.1-0.25
			c0.6-0.133,0.9-0.3,0.9-0.5c0-0.5-1-0.75-3-0.75C1.017-1.5,0-1.25,0-0.75c0,0.2,0.3,0.367,0.9,0.5C1.5-0.083,2.217,0,3.05,0z"/>
	</g>
</symbol>
<use xlink:href="#FlashAICB_x2F_ground_spots_x2F__x3C_Group_x3E_"  width="489.45" height="34.5" y="-34.5" transform="matrix(1 0 0 -1 0 0)" style="overflow:visible;opacity:0.3008;enable-background:new    ;"/>
</svg>
