<?xml version="1.0" encoding="iso-8859-1"?>
<!-- Generator: Adobe Illustrator 15.1.0, SVG Export Plug-In . SVG Version: 6.00 Build 0)  -->
<!DOCTYPE svg PUBLIC "-//W3C//DTD SVG 1.1//EN" "http://www.w3.org/Graphics/SVG/1.1/DTD/svg11.dtd">
<svg version="1.1" id="ground_generic_2" xmlns="http://www.w3.org/2000/svg" xmlns:xlink="http://www.w3.org/1999/xlink" x="0px"
	 y="0px" width="354px" height="84.35px" viewBox="0 0 354 84.35" style="enable-background:new 0 0 354 84.35;"
	 xml:space="preserve">
<path style="fill-rule:evenodd;clip-rule:evenodd;fill:#4C3B2A;" d="M341.7,33.85c7.8,5.833,11.75,10.05,11.85,12.65
	c0.267,6.467-2.3,11.833-7.7,16.1c-5.566,4.434-14.6,8.051-27.1,10.851C295.583,78.65,253.167,82,191.5,83.5
	c-76.9,1.866-129.433,0.6-157.6-3.8c-12.967-2.033-22.117-4.867-27.45-8.5C1.883,68.066-0.25,64,0.05,59
	c0.333-5.733,2.667-11.85,7-18.35c4.167-6.233,9.6-12,16.3-17.3c6.867-5.434,14.066-9.55,21.6-12.35
	c8.1-3.067,15.683-4.233,22.75-3.5c5.9,0.6,13.767,2.067,23.6,4.4c5.6,1.3,14.467,3.383,26.6,6.25
	c23.167,4.967,43.317,6.25,60.45,3.85c16.233-2.267,28.334-4.933,36.301-8c2.5-0.967,6.966-2.717,13.399-5.25
	c6.9-2.5,15.167-5.083,24.8-7.75c6.733-1.867,16.017-1.117,27.851,2.25c10.166,2.933,21.217,7.467,33.149,13.6
	C324.65,22.383,333.934,28.05,341.7,33.85z"/>
</svg>
