<?xml version="1.0" encoding="iso-8859-1"?>
<!-- Generator: Adobe Illustrator 15.1.0, SVG Export Plug-In . SVG Version: 6.00 Build 0)  -->
<!DOCTYPE svg PUBLIC "-//W3C//DTD SVG 1.1//EN" "http://www.w3.org/Graphics/SVG/1.1/DTD/svg11.dtd">
<svg version="1.1" id="ground_spots" xmlns="http://www.w3.org/2000/svg" xmlns:xlink="http://www.w3.org/1999/xlink" x="0px"
	 y="0px" width="537.5px" height="42.85px" viewBox="0 0 537.5 42.85" style="enable-background:new 0 0 537.5 42.85;"
	 xml:space="preserve">
<symbol  id="FlashAICB_x2F_ground_spots_x2F__x3C_Group_x3E_" viewBox="0 -42.85 537.501 42.85">
	<g id="Layer_1_24_">
		<g>
			<path style="fill-rule:evenodd;clip-rule:evenodd;fill:#59412F;" d="M86.55-25.55c4.833,0,8.967-0.45,12.4-1.35
				c3.433-0.9,5.15-1.983,5.15-3.25s-1.717-2.367-5.15-3.3c-3.434-0.9-7.567-1.35-12.4-1.35c-4.833,0-8.966,0.45-12.4,1.35
				c-3.433,0.934-5.15,2.034-5.15,3.3s1.717,2.35,5.15,3.25C77.583-26,81.717-25.55,86.55-25.55z"/>
			<path style="fill-rule:evenodd;clip-rule:evenodd;fill:#59412F;" d="M124.05-23.45c1.133-0.267,1.7-0.583,1.7-0.95
				s-0.567-0.684-1.7-0.95s-2.483-0.4-4.05-0.4c-1.6,0-2.95,0.133-4.05,0.4c-1.133,0.267-1.7,0.583-1.7,0.95s0.567,0.683,1.7,0.95
				c1.1,0.267,2.45,0.4,4.05,0.4C121.567-23.05,122.917-23.183,124.05-23.45z"/>
			<path style="fill-rule:evenodd;clip-rule:evenodd;fill:#59412F;" d="M189.3-24.05c3.3,0,6.117-0.217,8.45-0.65
				c2.3-0.466,3.45-1.017,3.45-1.65s-1.15-1.167-3.45-1.6c-2.333-0.466-5.15-0.7-8.45-0.7c-3.267,0-6.066,0.233-8.4,0.7
				c-2.333,0.434-3.5,0.967-3.5,1.6s1.167,1.184,3.5,1.65C183.2-24.267,186-24.05,189.3-24.05z"/>
			<path style="fill-rule:evenodd;clip-rule:evenodd;fill:#59412F;" d="M162.2-31.75c1.7,0,3.167-0.15,4.4-0.45
				c1.2-0.267,1.8-0.617,1.8-1.05c0-0.4-0.6-0.75-1.8-1.05c-1.233-0.267-2.7-0.4-4.4-0.4c-1.733,0-3.2,0.133-4.4,0.4
				c-1.233,0.3-1.85,0.65-1.85,1.05c0,0.433,0.617,0.783,1.85,1.05C159-31.9,160.467-31.75,162.2-31.75z"/>
			
				<use xlink:href="#FlashAICB_x2F_ground_spots_x2F__x3C_Path_x3E__x5F_36"  width="10.65" height="2.3" y="-2.3" transform="matrix(1 0 0 1 157.7002 -20.6001)" style="overflow:visible;opacity:0.6992;enable-background:new    ;"/>
			
				<use xlink:href="#FlashAICB_x2F_ground_spots_x2F__x3C_Path_x3E__x5F_35"  width="13.1" height="2.35" y="-2.35" transform="matrix(1 0 0 1 88.1499 -38.0996)" style="overflow:visible;opacity:0.6992;enable-background:new    ;"/>
			<path style="fill-rule:evenodd;clip-rule:evenodd;fill:#59412F;" d="M53.8-36.7c2.833,0,5.25-0.2,7.25-0.6c2-0.434,3-0.934,3-1.5
				c0-0.6-1-1.117-3-1.55c-2-0.4-4.417-0.6-7.25-0.6c-2.833,0-5.25,0.2-7.25,0.6c-2,0.434-3,0.95-3,1.55c0,0.566,1,1.066,3,1.5
				C48.55-36.9,50.967-36.7,53.8-36.7z"/>
			
				<use xlink:href="#FlashAICB_x2F_ground_spots_x2F__x3C_Path_x3E__x5F_33"  width="10.7" height="2.3" y="-2.3" transform="matrix(1 0 0 1 55.8501 -31.3496)" style="overflow:visible;opacity:0.6992;enable-background:new    ;"/>
			<path style="fill-rule:evenodd;clip-rule:evenodd;fill:#59412F;" d="M5.35-37.45c1.467,0,2.733-0.133,3.8-0.4
				c1.033-0.267,1.55-0.583,1.55-0.95s-0.517-0.684-1.55-0.95c-1.066-0.267-2.333-0.4-3.8-0.4s-2.733,0.133-3.8,0.4
				C0.517-39.483,0-39.167,0-38.8s0.517,0.683,1.55,0.95C2.617-37.583,3.883-37.45,5.35-37.45z"/>
			
				<use xlink:href="#FlashAICB_x2F_ground_spots_x2F__x3C_Path_x3E__x5F_31"  width="24.65" height="5" y="-5" transform="matrix(1 0 0 1 9.8501 -30.5498)" style="overflow:visible;opacity:0.6992;enable-background:new    ;"/>
			
				<use xlink:href="#FlashAICB_x2F_ground_spots_x2F__x3C_Path_x3E__x5F_30"  width="10.65" height="2.5" y="-2.5" transform="matrix(1 0 0 1 137.6001 -28.75)" style="overflow:visible;opacity:0.6992;enable-background:new    ;"/>
			
				<use xlink:href="#FlashAICB_x2F_ground_spots_x2F__x3C_Path_x3E__x5F_29"  width="18.187" height="5.459" x="-0.081" y="-5.427" transform="matrix(1 0 0 1 121.7002 -7.4502)" style="overflow:visible;opacity:0.6992;enable-background:new    ;"/>
			<path style="fill-rule:evenodd;clip-rule:evenodd;fill:#59412F;" d="M105.1-13.9c2.167,0.8,3.35,0.733,3.55-0.2
				c0.2-0.933-0.316-1.7-1.55-2.3c-1-0.5-2.083-0.85-3.25-1.05c-1.167-0.2-2-0.183-2.5,0.05c-0.467,0.233-0.2,0.783,0.8,1.65
				C103.117-14.883,104.1-14.267,105.1-13.9z"/>
			
				<use xlink:href="#FlashAICB_x2F_ground_spots_x2F__x3C_Path_x3E__x5F_27"  width="12.763" height="5.664" x="-0.027" y="-5.638" transform="matrix(1 0 0 1 116.6001 -2.9502)" style="overflow:visible;opacity:0.6992;enable-background:new    ;"/>
			<path style="fill-rule:evenodd;clip-rule:evenodd;fill:#59412F;" d="M167.25-2.45c0-0.7-1.117-1.3-3.35-1.8
				c-2.2-0.467-4.867-0.7-8-0.7s-5.8,0.233-8,0.7c-2.2,0.5-3.3,1.1-3.3,1.8c0,0.667,1.1,1.25,3.3,1.75c2.2,0.467,4.867,0.7,8,0.7
				s5.8-0.233,8-0.7C166.133-1.2,167.25-1.783,167.25-2.45z"/>
			<path style="fill-rule:evenodd;clip-rule:evenodd;fill:#59412F;" d="M142.7-14.25c2.133,0.1,3.966-0.133,5.5-0.7
				c1.533-0.566,2.316-1.283,2.35-2.15c0.067-0.867-0.65-1.65-2.15-2.35c-1.5-0.667-3.316-1.033-5.45-1.1
				c-2.133-0.1-3.967,0.133-5.5,0.7c-1.534,0.567-2.333,1.283-2.4,2.15c-0.033,0.867,0.7,1.633,2.2,2.3
				C138.75-14.7,140.567-14.317,142.7-14.25z"/>
			
				<use xlink:href="#FlashAICB_x2F_ground_spots_x2F__x3C_Path_x3E__x5F_24"  width="17.705" height="4.557" x="-0.001" y="-4.529" transform="matrix(1 0 0 1 175.6499 -1.7998)" style="overflow:visible;opacity:0.6992;enable-background:new    ;"/>
			
				<use xlink:href="#FlashAICB_x2F_ground_spots_x2F__x3C_Path_x3E__x5F_23"  width="27.919" height="8.399" x="-0.01" y="-8.383" transform="matrix(1 0 0 1 168.7002 -9.7002)" style="overflow:visible;opacity:0.6992;enable-background:new    ;"/>
			
				<use xlink:href="#FlashAICB_x2F_ground_spots_x2F__x3C_Path_x3E__x5F_22"  width="13.31" height="4.466" x="-0.005" y="-4.446" transform="matrix(1 0 0 1 206.9502 -6.7002)" style="overflow:visible;opacity:0.6992;enable-background:new    ;"/>
			<path style="fill-rule:evenodd;clip-rule:evenodd;fill:#59412F;" d="M249.2-21.85c0-1.267-1.717-2.367-5.15-3.3
				c-3.466-0.9-7.617-1.35-12.45-1.35c-4.833,0-8.967,0.45-12.4,1.35c-3.434,0.933-5.15,2.033-5.15,3.3s1.717,2.35,5.15,3.25
				c3.433,0.9,7.566,1.35,12.4,1.35c4.833,0,8.983-0.45,12.45-1.35C247.483-19.5,249.2-20.583,249.2-21.85z"/>
			
				<use xlink:href="#FlashAICB_x2F_ground_spots_x2F__x3C_Path_x3E__x5F_20"  width="13.85" height="2.9" y="-2.9" transform="matrix(1 0 0 1 229.2998 -11.1499)" style="overflow:visible;opacity:0.6992;enable-background:new    ;"/>
			<path style="fill-rule:evenodd;clip-rule:evenodd;fill:#59412F;" d="M243.8-31.5c1.7,0,3.133-0.15,4.3-0.45
				c1.2-0.333,1.8-0.733,1.8-1.2s-0.6-0.85-1.8-1.15c-1.2-0.333-2.633-0.5-4.3-0.5c-1.667,0-3.1,0.167-4.3,0.5
				c-1.2,0.3-1.8,0.683-1.8,1.15s0.6,0.867,1.8,1.2C240.667-31.65,242.1-31.5,243.8-31.5z"/>
			
				<use xlink:href="#FlashAICB_x2F_ground_spots_x2F__x3C_Path_x3E__x5F_18"  width="23.8" height="4.6" y="-4.6" transform="matrix(1 0 0 1 264.8501 -12.75)" style="overflow:visible;opacity:0.6992;enable-background:new    ;"/>
			
				<use xlink:href="#FlashAICB_x2F_ground_spots_x2F__x3C_Path_x3E__x5F_17"  width="19.7" height="4.3" y="-4.3" transform="matrix(1 0 0 1 321.4004 -27.75)" style="overflow:visible;opacity:0.6992;enable-background:new    ;"/>
			
				<use xlink:href="#FlashAICB_x2F_ground_spots_x2F__x3C_Path_x3E__x5F_16"  width="15.2" height="3.2" y="-3.2" transform="matrix(1 0 0 1 368.6504 -17.7998)" style="overflow:visible;opacity:0.6992;enable-background:new    ;"/>
			
				<use xlink:href="#FlashAICB_x2F_ground_spots_x2F__x3C_Path_x3E__x5F_15"  width="31.8" height="6.9" y="-6.9" transform="matrix(1 0 0 1 271.2002 -21.8999)" style="overflow:visible;opacity:0.6992;enable-background:new    ;"/>
			<path style="fill-rule:evenodd;clip-rule:evenodd;fill:#59412F;" d="M342.2-17.8c4.4,0,8.15-0.333,11.25-1
				c3.1-0.667,4.65-1.483,4.65-2.45s-1.55-1.783-4.65-2.45c-3.1-0.667-6.85-1-11.25-1c-4.367,0-8.117,0.333-11.25,1
				c-3.1,0.667-4.65,1.483-4.65,2.45c0,0.933,1.55,1.75,4.65,2.45C334.083-18.133,337.833-17.8,342.2-17.8z"/>
			
				<use xlink:href="#FlashAICB_x2F_ground_spots_x2F__x3C_Path_x3E__x5F_13"  width="41.9" height="9.2" y="-9.2" transform="matrix(1 0 0 1 386.9004 -25.2998)" style="overflow:visible;opacity:0.6992;enable-background:new    ;"/>
			<path style="fill-rule:evenodd;clip-rule:evenodd;fill:#59412F;" d="M411-6.2c2.567-0.6,3.85-1.316,3.85-2.15
				c0-0.833-1.283-1.55-3.85-2.15s-5.667-0.9-9.3-0.9s-6.733,0.3-9.3,0.9c-2.566,0.6-3.85,1.317-3.85,2.15
				c0,0.833,1.284,1.55,3.85,2.15c2.567,0.6,5.667,0.9,9.3,0.9S408.433-5.6,411-6.2z"/>
			
				<use xlink:href="#FlashAICB_x2F_ground_spots_x2F__x3C_Path_x3E__x5F_11"  width="11.5" height="2.65" y="-2.65" transform="matrix(1 0 0 1 426 -3.6499)" style="overflow:visible;opacity:0.6992;enable-background:new    ;"/>
			<path style="fill-rule:evenodd;clip-rule:evenodd;fill:#59412F;" d="M469.95-26.65c5.667-0.267,10.483-0.833,14.45-1.7
				c4-0.9,5.967-1.867,5.9-2.9c-0.033-1-2.083-1.767-6.15-2.3c-4.033-0.5-8.883-0.617-14.55-0.35c-5.633,0.233-10.434,0.8-14.4,1.7
				c-3.967,0.9-5.934,1.85-5.9,2.85c0.067,1.033,2.117,1.8,6.15,2.3C459.45-26.517,464.283-26.383,469.95-26.65z"/>
			<path style="fill-rule:evenodd;clip-rule:evenodd;fill:#59412F;" d="M451.85-37.6c2.867-0.6,4.3-1.333,4.3-2.2
				c0-0.833-1.433-1.55-4.3-2.15c-2.9-0.6-6.4-0.9-10.5-0.9c-4.067,0-7.55,0.3-10.45,0.9c-2.867,0.6-4.3,1.317-4.3,2.15
				c0,0.867,1.433,1.6,4.3,2.2c2.9,0.6,6.383,0.9,10.45,0.9C445.45-36.7,448.95-37,451.85-37.6z"/>
			
				<use xlink:href="#FlashAICB_x2F_ground_spots_x2F__x3C_Path_x3E__x5F_8"  width="23.8" height="4.6" y="-4.6" transform="matrix(1 0 0 1 431.9502 -16.25)" style="overflow:visible;opacity:0.6992;enable-background:new    ;"/>
			<path style="fill-rule:evenodd;clip-rule:evenodd;fill:#59412F;" d="M481.85-20.3c-1.233,0-2.3,0.117-3.2,0.35
				c-0.867,0.233-1.3,0.5-1.3,0.8c0,0.333,0.433,0.6,1.3,0.8c0.867,0.233,1.934,0.35,3.2,0.35s2.333-0.117,3.2-0.35
				c0.9-0.2,1.35-0.467,1.35-0.8c0-0.3-0.45-0.567-1.35-0.8C484.15-20.183,483.083-20.3,481.85-20.3z"/>
			<path style="fill-rule:evenodd;clip-rule:evenodd;fill:#59412F;" d="M371.8-30.05c1.5,0,2.767-0.117,3.8-0.35
				c1.033-0.2,1.55-0.467,1.55-0.8c0-0.333-0.517-0.6-1.55-0.8c-1.033-0.233-2.3-0.35-3.8-0.35c-1.466,0-2.716,0.117-3.75,0.35
				c-1.033,0.2-1.55,0.467-1.55,0.8c0,0.333,0.517,0.6,1.55,0.8C369.083-30.167,370.333-30.05,371.8-30.05z"/>
			<path style="fill-rule:evenodd;clip-rule:evenodd;fill:#59412F;" d="M531-32.4c1.833-0.133,3.383-0.367,4.65-0.7
				c1.267-0.3,1.883-0.617,1.85-0.95c-0.033-0.3-0.7-0.517-2-0.65s-2.85-0.133-4.65,0c-1.8,0.133-3.333,0.35-4.6,0.65
				c-1.267,0.333-1.883,0.667-1.85,1c0.034,0.3,0.684,0.517,1.95,0.65C527.65-32.267,529.2-32.267,531-32.4z"/>
			
				<use xlink:href="#FlashAICB_x2F_ground_spots_x2F__x3C_Path_x3E__x5F_4"  width="20.5" height="4.2" y="-4.2" transform="matrix(1 0 0 1 352.0996 -10.5498)" style="overflow:visible;opacity:0.6992;enable-background:new    ;"/>
			
				<use xlink:href="#FlashAICB_x2F_ground_spots_x2F__x3C_Path_x3E__x5F_3"  width="10.7" height="2.3" y="-2.3" transform="matrix(1 0 0 1 364.4004 -5.1499)" style="overflow:visible;opacity:0.6992;enable-background:new    ;"/>
			
				<use xlink:href="#FlashAICB_x2F_ground_spots_x2F__x3C_Path_x3E__x5F_2"  width="10.7" height="2.7" y="-2.7" transform="matrix(1 0 0 1 308.5498 -11.2998)" style="overflow:visible;opacity:0.6992;enable-background:new    ;"/>
			<path style="fill-rule:evenodd;clip-rule:evenodd;fill:#59412F;" d="M330.75-4.4c3.4,0,6.3-0.25,8.7-0.75
				c2.4-0.467,3.6-1.05,3.6-1.75c0-0.667-1.2-1.25-3.6-1.75c-2.434-0.5-5.333-0.75-8.7-0.75c-3.4,0-6.3,0.25-8.7,0.75
				c-2.433,0.5-3.65,1.083-3.65,1.75c0,0.7,1.217,1.283,3.65,1.75C324.45-4.65,327.35-4.4,330.75-4.4z"/>
			
				<use xlink:href="#FlashAICB_x2F_ground_spots_x2F__x3C_Path_x3E_"  width="10.65" height="2.5" y="-2.5" transform="matrix(1 0 0 1 505.0498 -32.4004)" style="overflow:visible;opacity:0.6992;enable-background:new    ;"/>
		</g>
	</g>
</symbol>
<symbol  id="FlashAICB_x2F_ground_spots_x2F__x3C_Path_x3E_" viewBox="0 -2.5 10.65 2.5">
	<g id="Layer_1_23_">
		<path style="fill-rule:evenodd;clip-rule:evenodd;fill:#59412F;" d="M5.3,0c1.467,0,2.733-0.133,3.8-0.4
			c1.033-0.233,1.55-0.517,1.55-0.85s-0.517-0.633-1.55-0.9C8.033-2.383,6.767-2.5,5.3-2.5c-1.466,0-2.716,0.117-3.75,0.35
			C0.517-1.917,0-1.617,0-1.25C0-0.917,0.517-0.633,1.55-0.4C2.583-0.133,3.833,0,5.3,0z"/>
	</g>
</symbol>
<symbol  id="FlashAICB_x2F_ground_spots_x2F__x3C_Path_x3E__x5F_11" viewBox="0 -2.65 11.5 2.65">
	<g id="Layer_1_18_">
		<path style="fill-rule:evenodd;clip-rule:evenodd;fill:#59412F;" d="M5.75-2.65c-1.6,0-2.95,0.133-4.05,0.4
			C0.567-2.017,0-1.717,0-1.35S0.567-0.667,1.7-0.4C2.8-0.133,4.15,0,5.75,0C7.317,0,8.667-0.133,9.8-0.4s1.7-0.583,1.7-0.95
			s-0.567-0.667-1.7-0.9C8.667-2.517,7.317-2.65,5.75-2.65z"/>
	</g>
</symbol>
<symbol  id="FlashAICB_x2F_ground_spots_x2F__x3C_Path_x3E__x5F_13" viewBox="0 -9.2 41.9 9.2">
	<g id="Layer_1_17_">
		<path style="fill-rule:evenodd;clip-rule:evenodd;fill:#59412F;" d="M35.75-7.85c-4.1-0.9-9.033-1.35-14.8-1.35
			c-5.767,0-10.7,0.45-14.8,1.35S0-5.867,0-4.6s2.05,2.35,6.15,3.25S15.183,0,20.95,0c5.767,0,10.7-0.45,14.8-1.35
			S41.9-3.333,41.9-4.6S39.85-6.95,35.75-7.85z"/>
	</g>
</symbol>
<symbol  id="FlashAICB_x2F_ground_spots_x2F__x3C_Path_x3E__x5F_15" viewBox="0 -6.9 31.8 6.9">
	<g id="Layer_1_16_">
		<path style="fill-rule:evenodd;clip-rule:evenodd;fill:#59412F;" d="M15.9,0c4.4,0,8.15-0.333,11.25-1s4.65-1.483,4.65-2.45
			c0-0.966-1.55-1.783-4.65-2.45c-3.1-0.667-6.85-1-11.25-1s-8.15,0.333-11.25,1C1.55-5.233,0-4.417,0-3.45
			C0-2.483,1.55-1.667,4.65-1S11.5,0,15.9,0z"/>
	</g>
</symbol>
<symbol  id="FlashAICB_x2F_ground_spots_x2F__x3C_Path_x3E__x5F_16" viewBox="0 -3.2 15.2 3.2">
	<g id="Layer_1_15_">
		<path style="fill-rule:evenodd;clip-rule:evenodd;fill:#59412F;" d="M7.6,0c2.1,0,3.9-0.15,5.4-0.45
			c1.467-0.333,2.2-0.716,2.2-1.15c0-0.433-0.733-0.8-2.2-1.1c-1.533-0.333-3.333-0.5-5.4-0.5c-2.067,0-3.85,0.167-5.35,0.5
			C0.75-2.4,0-2.033,0-1.6c0,0.434,0.75,0.817,2.25,1.15C3.717-0.15,5.5,0,7.6,0z"/>
	</g>
</symbol>
<symbol  id="FlashAICB_x2F_ground_spots_x2F__x3C_Path_x3E__x5F_17" viewBox="0 -4.3 19.7 4.3">
	<g id="Layer_1_14_">
		<path style="fill-rule:evenodd;clip-rule:evenodd;fill:#59412F;" d="M9.85,0c2.733,0,5.05-0.217,6.95-0.65
			c1.934-0.4,2.9-0.9,2.9-1.5s-0.967-1.117-2.9-1.55c-1.9-0.4-4.216-0.6-6.95-0.6S4.8-4.1,2.9-3.7C0.967-3.267,0-2.75,0-2.15
			s0.967,1.1,2.9,1.5C4.8-0.217,7.117,0,9.85,0z"/>
	</g>
</symbol>
<symbol  id="FlashAICB_x2F_ground_spots_x2F__x3C_Path_x3E__x5F_18" viewBox="0 -4.6 23.8 4.6">
	<g id="Layer_1_13_">
		<path style="fill-rule:evenodd;clip-rule:evenodd;fill:#59412F;" d="M23.8-2.3c0-0.633-1.167-1.167-3.5-1.6
			c-2.333-0.467-5.133-0.7-8.4-0.7c-3.3,0-6.1,0.233-8.4,0.7C1.167-3.467,0-2.933,0-2.3s1.167,1.183,3.5,1.65
			C5.8-0.217,8.6,0,11.9,0c3.3,0,6.1-0.217,8.4-0.65C22.633-1.117,23.8-1.667,23.8-2.3z"/>
	</g>
</symbol>
<symbol  id="FlashAICB_x2F_ground_spots_x2F__x3C_Path_x3E__x5F_2" viewBox="0 -2.7 10.7 2.7">
	<g id="Layer_1_22_">
		<path style="fill-rule:evenodd;clip-rule:evenodd;fill:#59412F;" d="M5.35,0c1.467,0,2.733-0.133,3.8-0.4
			c1.033-0.267,1.55-0.583,1.55-0.95S10.183-2.033,9.15-2.3c-1.066-0.267-2.333-0.4-3.8-0.4s-2.733,0.133-3.8,0.4
			C0.517-2.033,0-1.717,0-1.35S0.517-0.667,1.55-0.4C2.617-0.133,3.883,0,5.35,0z"/>
	</g>
</symbol>
<symbol  id="FlashAICB_x2F_ground_spots_x2F__x3C_Path_x3E__x5F_20" viewBox="0 -2.9 13.85 2.9">
	<g id="Layer_1_12_">
		<path style="fill-rule:evenodd;clip-rule:evenodd;fill:#59412F;" d="M6.9-2.9C5-2.9,3.383-2.767,2.05-2.5C0.683-2.2,0-1.85,0-1.45
			c0,0.4,0.683,0.733,2.05,1C3.383-0.15,5,0,6.9,0c1.934,0,3.567-0.15,4.9-0.45c1.367-0.267,2.05-0.6,2.05-1
			c0-0.4-0.684-0.75-2.05-1.05C10.467-2.767,8.833-2.9,6.9-2.9z"/>
	</g>
</symbol>
<symbol  id="FlashAICB_x2F_ground_spots_x2F__x3C_Path_x3E__x5F_22" viewBox="-0.005 -4.446 13.31 4.466">
	<g id="Layer_1_11_">
		<path style="fill-rule:evenodd;clip-rule:evenodd;fill:#59412F;" d="M13.3-2.85c-0.033-0.6-0.733-1.05-2.1-1.35
			C9.867-4.467,8.267-4.517,6.4-4.35c-1.833,0.167-3.367,0.533-4.6,1.1C0.533-2.717-0.067-2.15,0-1.55c0.067,0.566,0.767,1,2.1,1.3
			C3.433,0.05,5.017,0.1,6.85-0.1c1.833-0.167,3.383-0.533,4.65-1.1C12.767-1.733,13.367-2.283,13.3-2.85z"/>
	</g>
</symbol>
<symbol  id="FlashAICB_x2F_ground_spots_x2F__x3C_Path_x3E__x5F_23" viewBox="-0.01 -8.383 27.919 8.399">
	<g id="Layer_1_10_">
		<path style="fill-rule:evenodd;clip-rule:evenodd;fill:#59412F;" d="M27.9-5.55c-0.1-1.1-1.55-1.9-4.35-2.4
			c-2.8-0.5-6.133-0.566-10-0.2C9.683-7.75,6.433-7.033,3.8-6C1.133-4.967-0.133-3.9,0-2.8c0.1,1.1,1.55,1.9,4.35,2.4
			c2.833,0.5,6.167,0.55,10,0.15c3.833-0.367,7.083-1.083,9.75-2.15C26.767-3.433,28.033-4.483,27.9-5.55z"/>
	</g>
</symbol>
<symbol  id="FlashAICB_x2F_ground_spots_x2F__x3C_Path_x3E__x5F_24" viewBox="-0.001 -4.529 17.705 4.557">
	<g id="Layer_1_9_">
		<path style="fill-rule:evenodd;clip-rule:evenodd;fill:#59412F;" d="M8.7-4.4C6.267-4.167,4.2-3.767,2.5-3.2
			C0.8-2.633-0.033-2.067,0-1.5c0.067,0.6,0.983,1.033,2.75,1.3c1.733,0.267,3.833,0.3,6.3,0.1c2.434-0.233,4.5-0.633,6.2-1.2
			c1.7-0.567,2.517-1.133,2.45-1.7c-0.034-0.6-0.934-1.033-2.7-1.3C13.233-4.567,11.133-4.6,8.7-4.4z"/>
	</g>
</symbol>
<symbol  id="FlashAICB_x2F_ground_spots_x2F__x3C_Path_x3E__x5F_27" viewBox="-0.027 -5.638 12.763 5.664">
	<g id="Layer_1_8_">
		<path style="fill-rule:evenodd;clip-rule:evenodd;fill:#59412F;" d="M8.65-3.3C6.783-4.167,4.8-4.833,2.7-5.3
			C0.7-5.733-0.2-5.75,0-5.35C0.2-4.983,1.483-4.2,3.85-3C6.15-1.8,7.867-1.017,9-0.65c2.867,0.867,4.083,0.9,3.65,0.1
			C12.217-1.317,10.883-2.233,8.65-3.3z"/>
	</g>
</symbol>
<symbol  id="FlashAICB_x2F_ground_spots_x2F__x3C_Path_x3E__x5F_29" viewBox="-0.081 -5.427 18.187 5.459">
	<g id="Layer_1_7_">
		<path style="fill-rule:evenodd;clip-rule:evenodd;fill:#59412F;" d="M1.75-3.1c2,1.367,3.933,2.267,5.8,2.7
			c2.2,0.5,4.717,0.566,7.55,0.2c2.867-0.4,3.683-0.966,2.45-1.7c-1.233-0.733-3.966-1.533-8.2-2.4C5.183-5.167,2.333-5.533,0.8-5.4
			C-0.633-5.267-0.317-4.5,1.75-3.1z"/>
	</g>
</symbol>
<symbol  id="FlashAICB_x2F_ground_spots_x2F__x3C_Path_x3E__x5F_3" viewBox="0 -2.3 10.7 2.3">
	<g id="Layer_1_21_">
		<path style="fill-rule:evenodd;clip-rule:evenodd;fill:#59412F;" d="M5.35-2.3c-1.467,0-2.733,0.117-3.8,0.35
			C0.517-1.75,0-1.483,0-1.15c0,0.3,0.517,0.566,1.55,0.8C2.617-0.117,3.883,0,5.35,0s2.733-0.117,3.8-0.35
			c1.033-0.233,1.55-0.5,1.55-0.8c0-0.333-0.517-0.6-1.55-0.8C8.117-2.183,6.85-2.3,5.35-2.3z"/>
	</g>
</symbol>
<symbol  id="FlashAICB_x2F_ground_spots_x2F__x3C_Path_x3E__x5F_30" viewBox="0 -2.5 10.65 2.5">
	<g id="Layer_1_6_">
		<path style="fill-rule:evenodd;clip-rule:evenodd;fill:#59412F;" d="M5.3,0c1.467,0,2.733-0.117,3.8-0.35
			c1.033-0.267,1.55-0.566,1.55-0.9s-0.517-0.633-1.55-0.9C8.033-2.383,6.767-2.5,5.3-2.5c-1.466,0-2.716,0.117-3.75,0.35
			C0.517-1.917,0-1.617,0-1.25c0,0.333,0.517,0.633,1.55,0.9C2.583-0.117,3.833,0,5.3,0z"/>
	</g>
</symbol>
<symbol  id="FlashAICB_x2F_ground_spots_x2F__x3C_Path_x3E__x5F_31" viewBox="0 -5 24.65 5">
	<g id="Layer_1_5_">
		<path style="fill-rule:evenodd;clip-rule:evenodd;fill:#59412F;" d="M12.35,0c3.367,0,6.267-0.25,8.7-0.75
			c2.4-0.5,3.6-1.083,3.6-1.75c0-0.7-1.2-1.3-3.6-1.8c-2.4-0.467-5.3-0.7-8.7-0.7C8.917-5,6-4.767,3.6-4.3C1.2-3.8,0-3.2,0-2.5
			c0,0.667,1.2,1.25,3.6,1.75C6.033-0.25,8.95,0,12.35,0z"/>
	</g>
</symbol>
<symbol  id="FlashAICB_x2F_ground_spots_x2F__x3C_Path_x3E__x5F_33" viewBox="0 -2.3 10.7 2.3">
	<g id="Layer_1_4_">
		<path style="fill-rule:evenodd;clip-rule:evenodd;fill:#59412F;" d="M5.35,0c1.5,0,2.767-0.117,3.8-0.35
			c1.033-0.2,1.55-0.467,1.55-0.8c0-0.3-0.517-0.567-1.55-0.8C8.083-2.183,6.817-2.3,5.35-2.3s-2.733,0.117-3.8,0.35
			C0.517-1.717,0-1.45,0-1.15c0,0.333,0.517,0.6,1.55,0.8C2.617-0.117,3.883,0,5.35,0z"/>
	</g>
</symbol>
<symbol  id="FlashAICB_x2F_ground_spots_x2F__x3C_Path_x3E__x5F_35" viewBox="0 -2.35 13.1 2.35">
	<g id="Layer_1_3_">
		<path style="fill-rule:evenodd;clip-rule:evenodd;fill:#59412F;" d="M6.55,0c1.8,0,3.35-0.117,4.65-0.35
			c1.267-0.233,1.9-0.5,1.9-0.8c0-0.333-0.633-0.617-1.9-0.85C9.9-2.233,8.35-2.35,6.55-2.35C4.75-2.35,3.2-2.233,1.9-2
			C0.633-1.767,0-1.483,0-1.15c0,0.3,0.633,0.566,1.9,0.8C3.2-0.117,4.75,0,6.55,0z"/>
	</g>
</symbol>
<symbol  id="FlashAICB_x2F_ground_spots_x2F__x3C_Path_x3E__x5F_36" viewBox="0 -2.3 10.65 2.3">
	<g id="Layer_1_2_">
		<path style="fill-rule:evenodd;clip-rule:evenodd;fill:#59412F;" d="M0-1.15c0,0.333,0.517,0.6,1.55,0.8
			C2.583-0.117,3.833,0,5.3,0c1.5,0,2.767-0.117,3.8-0.35c1.033-0.2,1.55-0.467,1.55-0.8c0-0.3-0.517-0.567-1.55-0.8
			C8.033-2.183,6.767-2.3,5.3-2.3c-1.466,0-2.716,0.117-3.75,0.35C0.517-1.717,0-1.45,0-1.15z"/>
	</g>
</symbol>
<symbol  id="FlashAICB_x2F_ground_spots_x2F__x3C_Path_x3E__x5F_4" viewBox="0 -4.2 20.5 4.2">
	<g id="Layer_1_20_">
		<path style="fill-rule:evenodd;clip-rule:evenodd;fill:#59412F;" d="M20.5-2.1c0-0.566-1-1.066-3-1.5c-2-0.4-4.417-0.6-7.25-0.6
			S5-4,3-3.6C1-3.167,0-2.667,0-2.1c0,0.567,1,1.067,3,1.5C5-0.2,7.417,0,10.25,0s5.25-0.2,7.25-0.6C19.5-1.033,20.5-1.533,20.5-2.1
			z"/>
	</g>
</symbol>
<symbol  id="FlashAICB_x2F_ground_spots_x2F__x3C_Path_x3E__x5F_8" viewBox="0 -4.6 23.8 4.6">
	<g id="Layer_1_19_">
		<path style="fill-rule:evenodd;clip-rule:evenodd;fill:#59412F;" d="M0-2.3c0,0.633,1.167,1.167,3.5,1.6
			C5.833-0.233,8.633,0,11.9,0c3.3,0,6.117-0.233,8.45-0.7c2.3-0.433,3.45-0.966,3.45-1.6s-1.15-1.167-3.45-1.6
			c-2.333-0.467-5.15-0.7-8.45-0.7c-3.267,0-6.066,0.233-8.4,0.7C1.167-3.467,0-2.933,0-2.3z"/>
	</g>
</symbol>
<use xlink:href="#FlashAICB_x2F_ground_spots_x2F__x3C_Group_x3E_"  width="537.501" height="42.85" y="-42.85" transform="matrix(1 0 0 -1 0 0)" style="overflow:visible;opacity:0.3008;enable-background:new    ;"/>
</svg>
