<?xml version="1.0" encoding="iso-8859-1"?>
<!-- Generator: Adobe Illustrator 15.1.0, SVG Export Plug-In . SVG Version: 6.00 Build 0)  -->
<!DOCTYPE svg PUBLIC "-//W3C//DTD SVG 1.1//EN" "http://www.w3.org/Graphics/SVG/1.1/DTD/svg11.dtd">
<svg version="1.1" id="ground_spots" xmlns="http://www.w3.org/2000/svg" xmlns:xlink="http://www.w3.org/1999/xlink" x="0px"
	 y="0px" width="141.75px" height="29.2px" viewBox="0 0 141.75 29.2" style="enable-background:new 0 0 141.75 29.2;"
	 xml:space="preserve">
<symbol  id="FlashAICB_x2F_ground_spots_x2F__x3C_Group_x3E_" viewBox="0 -29.2 141.75 29.2">
	<g id="Layer_1_8_">
		<g>
			
				<use xlink:href="#FlashAICB_x2F_ground_spots_x2F__x3C_Path_x3E__x5F_8"  width="35.65" height="11.85" y="-11.85" transform="matrix(1 0 0 1 106.0996 -10.8999)" style="overflow:visible;opacity:0.6992;enable-background:new    ;"/>
			<path style="fill-rule:evenodd;clip-rule:evenodd;fill:#59412F;" d="M90.75-15.6c0,0.467,0.483,0.883,1.45,1.25
				c0.966,0.333,2.117,0.5,3.45,0.5c1.333,0,2.483-0.167,3.45-0.5c0.967-0.367,1.45-0.783,1.45-1.25s-0.483-0.883-1.45-1.25
				c-0.967-0.333-2.117-0.5-3.45-0.5c-1.333,0-2.483,0.167-3.45,0.5C91.233-16.483,90.75-16.067,90.75-15.6z"/>
			<path style="fill-rule:evenodd;clip-rule:evenodd;fill:#59412F;" d="M86.55-10.4c-4.8,0-8.9,0.45-12.3,1.35
				C70.817-8.117,69.1-7,69.1-5.7c0,1.3,1.717,2.4,5.15,3.3c3.4,0.933,7.5,1.4,12.3,1.4c4.833,0,8.95-0.467,12.35-1.4
				c3.434-0.9,5.15-2,5.15-3.3c0-1.3-1.716-2.417-5.15-3.35C95.5-9.95,91.383-10.4,86.55-10.4z"/>
			
				<use xlink:href="#FlashAICB_x2F_ground_spots_x2F__x3C_Path_x3E__x5F_5"  width="25.1" height="7.95" y="-7.95" transform="matrix(1 0 0 1 46.1001 -9.3999)" style="overflow:visible;opacity:0.6992;enable-background:new    ;"/>
			<path style="fill-rule:evenodd;clip-rule:evenodd;fill:#59412F;" d="M42.15-15.9c-0.733-0.3-1.633-0.45-2.7-0.45
				c-1.067,0-1.983,0.15-2.75,0.45c-0.733,0.267-1.1,0.617-1.1,1.05c0,0.4,0.367,0.75,1.1,1.05c0.767,0.3,1.683,0.45,2.75,0.45
				c1.033,0,1.933-0.15,2.7-0.45c0.767-0.3,1.15-0.65,1.15-1.05C43.3-15.283,42.917-15.633,42.15-15.9z"/>
			
				<use xlink:href="#FlashAICB_x2F_ground_spots_x2F__x3C_Path_x3E__x5F_3"  width="9.1" height="2.95" y="-2.95" transform="matrix(1 0 0 1 57.25 -26.25)" style="overflow:visible;opacity:0.5;enable-background:new    ;"/>
			
				<use xlink:href="#FlashAICB_x2F_ground_spots_x2F__x3C_Path_x3E__x5F_2"  width="11.15" height="2.95" y="-2.95" transform="matrix(1 0 0 1 0 -20.2998)" style="overflow:visible;opacity:0.5;enable-background:new    ;"/>
			
				<use xlink:href="#FlashAICB_x2F_ground_spots_x2F__x3C_Path_x3E__x5F_1"  width="17.45" height="5.45" y="-5.45" transform="matrix(1 0 0 1 112.0996 0)" style="overflow:visible;opacity:0.5;enable-background:new    ;"/>
			
				<use xlink:href="#FlashAICB_x2F_ground_spots_x2F__x3C_Path_x3E_"  width="9.05" height="3.2" y="-3.2" transform="matrix(1 0 0 1 20.9502 -15)" style="overflow:visible;opacity:0.6992;enable-background:new    ;"/>
		</g>
	</g>
</symbol>
<symbol  id="FlashAICB_x2F_ground_spots_x2F__x3C_Path_x3E_" viewBox="0 -3.2 9.05 3.2">
	<g id="Layer_1_7_">
		<path style="fill-rule:evenodd;clip-rule:evenodd;fill:#59412F;" d="M0-1.6c0,0.434,0.45,0.817,1.35,1.15
			C2.217-0.15,3.283,0,4.55,0c1.267,0,2.333-0.15,3.2-0.45c0.867-0.333,1.3-0.716,1.3-1.15c0-0.433-0.433-0.816-1.3-1.15
			C6.883-3.05,5.817-3.2,4.55-3.2c-1.267,0-2.333,0.15-3.2,0.45C0.45-2.417,0-2.033,0-1.6z"/>
	</g>
</symbol>
<symbol  id="FlashAICB_x2F_ground_spots_x2F__x3C_Path_x3E__x5F_1" viewBox="0 -5.45 17.45 5.45">
	<g id="Layer_1_6_">
		<path style="fill-rule:evenodd;clip-rule:evenodd;fill:#59412F;" d="M0-2.75C0-1.983,0.85-1.333,2.55-0.8
			C4.283-0.267,6.35,0,8.75,0s4.45-0.267,6.15-0.8c1.7-0.534,2.55-1.184,2.55-1.95c0-0.733-0.85-1.367-2.55-1.9
			c-1.7-0.533-3.75-0.8-6.15-0.8c-2.433,0-4.5,0.267-6.2,0.8C0.85-4.15,0-3.517,0-2.75z"/>
	</g>
</symbol>
<symbol  id="FlashAICB_x2F_ground_spots_x2F__x3C_Path_x3E__x5F_2" viewBox="0 -2.95 11.15 2.95">
	<g id="Layer_1_5_">
		<path style="fill-rule:evenodd;clip-rule:evenodd;fill:#59412F;" d="M0-1.5c0,0.433,0.55,0.783,1.65,1.05
			C2.717-0.15,4.033,0,5.6,0c1.533,0,2.833-0.15,3.9-0.45c1.1-0.267,1.65-0.617,1.65-1.05c0-0.4-0.55-0.75-1.65-1.05
			c-1.067-0.267-2.367-0.4-3.9-0.4s-2.85,0.133-3.95,0.4C0.55-2.25,0-1.9,0-1.5z"/>
	</g>
</symbol>
<symbol  id="FlashAICB_x2F_ground_spots_x2F__x3C_Path_x3E__x5F_3" viewBox="0 -2.95 9.1 2.95">
	<g id="Layer_1_4_">
		<path style="fill-rule:evenodd;clip-rule:evenodd;fill:#59412F;" d="M0-1.45c0,0.4,0.45,0.733,1.35,1C2.217-0.15,3.283,0,4.55,0
			c1.267,0,2.333-0.15,3.2-0.45c0.9-0.267,1.35-0.6,1.35-1c0-0.433-0.45-0.783-1.35-1.05c-0.867-0.3-1.933-0.45-3.2-0.45
			c-1.267,0-2.333,0.15-3.2,0.45C0.45-2.233,0-1.883,0-1.45z"/>
	</g>
</symbol>
<symbol  id="FlashAICB_x2F_ground_spots_x2F__x3C_Path_x3E__x5F_5" viewBox="0 -7.95 25.1 7.95">
	<g id="Layer_1_3_">
		<path style="fill-rule:evenodd;clip-rule:evenodd;fill:#59412F;" d="M0-3.95c0,1.067,1.217,2,3.65,2.8
			C6.117-0.383,9.083,0,12.55,0c3.467,0,6.434-0.383,8.9-1.15c2.433-0.8,3.65-1.733,3.65-2.8c0-1.1-1.217-2.05-3.65-2.85
			c-2.467-0.767-5.434-1.15-8.9-1.15c-3.466,0-6.433,0.383-8.9,1.15C1.217-6,0-5.05,0-3.95z"/>
	</g>
</symbol>
<symbol  id="FlashAICB_x2F_ground_spots_x2F__x3C_Path_x3E__x5F_8" viewBox="0 -11.85 35.65 11.85">
	<g id="Layer_1_2_">
		<path style="fill-rule:evenodd;clip-rule:evenodd;fill:#59412F;" d="M0-5.95c0,1.633,1.75,3.034,5.25,4.2
			C8.717-0.583,12.9,0,17.8,0c4.934,0,9.133-0.583,12.6-1.75c3.5-1.167,5.25-2.567,5.25-4.2S33.9-8.967,30.4-10.1
			c-3.467-1.167-7.667-1.75-12.6-1.75c-4.9,0-9.083,0.583-12.55,1.75C1.75-8.967,0-7.583,0-5.95z"/>
	</g>
</symbol>
<use xlink:href="#FlashAICB_x2F_ground_spots_x2F__x3C_Group_x3E_"  width="141.75" height="29.2" y="-29.2" transform="matrix(1 0 0 -1 0 0)" style="overflow:visible;opacity:0.3008;enable-background:new    ;"/>
</svg>
