<?xml version="1.0" encoding="iso-8859-1"?>
<!-- Generator: Adobe Illustrator 15.1.0, SVG Export Plug-In . SVG Version: 6.00 Build 0)  -->
<!DOCTYPE svg PUBLIC "-//W3C//DTD SVG 1.1//EN" "http://www.w3.org/Graphics/SVG/1.1/DTD/svg11.dtd">
<svg version="1.1" id="FlashAICB" xmlns="http://www.w3.org/2000/svg" xmlns:xlink="http://www.w3.org/1999/xlink" x="0px" y="0px"
	 width="30px" height="36.55px" viewBox="0 0 30 36.55" style="enable-background:new 0 0 30 36.55;" xml:space="preserve">
<symbol  id="FlashAICB_x5F_0_x2F_jar_2_x2F__x3C_Group_x3E__x5F_1" viewBox="0 -7.113 9.908 7.113">
	<g id="Layer_1_3_">
		<g>
			<g>
				<path style="fill-rule:evenodd;clip-rule:evenodd;" d="M8.25-3.6C8.25-3.067,8.5-2.767,9-2.7c0.533,0.067,0.833-0.2,0.9-0.8
					c0.033-0.233-0.033-0.433-0.2-0.6C9.567-4.3,9.383-4.4,9.15-4.4c-0.233-0.033-0.433,0.033-0.6,0.2
					C8.383-4.067,8.283-3.867,8.25-3.6z"/>
				<path style="fill-rule:evenodd;clip-rule:evenodd;" d="M8.6-3.6c-0.033,0.133,0,0.267,0.1,0.4c0.1,0.1,0.216,0.15,0.35,0.15
					C9.35-2.983,9.533-3.133,9.6-3.5c0-0.333-0.15-0.533-0.45-0.6C8.783-4.1,8.6-3.933,8.6-3.6z"/>
			</g>
			<g>
				<path style="fill-rule:evenodd;clip-rule:evenodd;" d="M2.8-2.55C2.767-2.317,2.833-2.117,3-1.95
					c0.133,0.167,0.317,0.267,0.55,0.3c0.534,0.066,0.833-0.2,0.9-0.8c0-0.6-0.267-0.9-0.8-0.9c-0.233-0.033-0.433,0.033-0.6,0.2
					C2.883-2.983,2.8-2.783,2.8-2.55z"/>
				<path style="fill-rule:evenodd;clip-rule:evenodd;" d="M3.1-2.55C3.1-2.183,3.25-2,3.55-2c0.133,0.033,0.267,0,0.4-0.1
					C4.05-2.2,4.1-2.317,4.1-2.45C4.1-2.817,3.95-3,3.65-3C3.35-3.067,3.167-2.917,3.1-2.55z"/>
			</g>
			<g>
				<path style="fill-rule:evenodd;clip-rule:evenodd;" d="M7.1-5.35c-0.067,0.4,0.117,0.633,0.55,0.7c0.434,0,0.65-0.2,0.65-0.6
					c0.034-0.167,0-0.333-0.1-0.5c-0.133-0.133-0.284-0.2-0.45-0.2C7.583-5.983,7.433-5.933,7.3-5.8S7.1-5.517,7.1-5.35z"/>
				<path style="fill-rule:evenodd;clip-rule:evenodd;" d="M7.35-5.35c-0.067,0.267,0.033,0.4,0.3,0.4C7.917-4.883,8.05-5,8.05-5.3
					C8.117-5.567,8-5.7,7.7-5.7C7.467-5.7,7.35-5.583,7.35-5.35z"/>
			</g>
			<g>
				<path style="fill-rule:evenodd;clip-rule:evenodd;" d="M6-2.75c0,0.4,0.2,0.633,0.6,0.7c0.367,0,0.583-0.2,0.65-0.6
					c0-0.467-0.183-0.7-0.55-0.7C6.3-3.417,6.067-3.217,6-2.75z"/>
				<path style="fill-rule:evenodd;clip-rule:evenodd;" d="M6.25-2.75c0,0.233,0.117,0.383,0.35,0.45C6.867-2.3,7-2.433,7-2.7
					c0-0.267-0.117-0.4-0.35-0.4C6.45-3.1,6.317-2.983,6.25-2.75z"/>
			</g>
			<g>
				<path style="fill-rule:evenodd;clip-rule:evenodd;" d="M4.5-4.4C4.467-4.233,4.517-4.067,4.65-3.9c0.1,0.133,0.233,0.2,0.4,0.2
					C5.217-3.667,5.367-3.717,5.5-3.85S5.7-4.133,5.7-4.3C5.767-4.7,5.583-4.933,5.15-5C4.717-5,4.5-4.8,4.5-4.4z"/>
				<path style="fill-rule:evenodd;clip-rule:evenodd;" d="M4.75-4.35C4.683-4.083,4.8-3.95,5.1-3.95c0.233,0,0.35-0.117,0.35-0.35
					c0.033-0.233-0.067-0.383-0.3-0.45C4.883-4.75,4.75-4.617,4.75-4.35z"/>
			</g>
			<g>
				<path style="fill-rule:evenodd;clip-rule:evenodd;" d="M0.2-3.05C0.133-2.617,0.317-2.4,0.75-2.4
					C1.183-2.333,1.4-2.517,1.4-2.95c0.067-0.466-0.117-0.7-0.55-0.7C0.417-3.717,0.2-3.517,0.2-3.05z"/>
				<path style="fill-rule:evenodd;clip-rule:evenodd;" d="M0.45-3.05c-0.067,0.267,0.033,0.4,0.3,0.4C1.017-2.583,1.15-2.7,1.15-3
					c0.067-0.267-0.033-0.4-0.3-0.4C0.583-3.467,0.45-3.35,0.45-3.05z"/>
			</g>
			<g>
				<path style="fill-rule:evenodd;clip-rule:evenodd;" d="M3.95-6.5C3.883-6.1,4.067-5.867,4.5-5.8c0.4,0,0.633-0.2,0.7-0.6
					c0-0.467-0.2-0.7-0.6-0.7C4.233-7.167,4.017-6.967,3.95-6.5z"/>
				<path style="fill-rule:evenodd;clip-rule:evenodd;" d="M4.2-6.5c0,0.233,0.117,0.383,0.35,0.45c0.2,0,0.333-0.133,0.4-0.4
					c0-0.267-0.117-0.4-0.35-0.4C4.333-6.85,4.2-6.733,4.2-6.5z"/>
			</g>
			<g>
				<path style="fill-rule:evenodd;clip-rule:evenodd;" d="M1.7-5.1C1.667-4.933,1.717-4.783,1.85-4.65c0.1,0.133,0.233,0.2,0.4,0.2
					c0.4,0.067,0.633-0.133,0.7-0.6c0-0.434-0.2-0.65-0.6-0.65C1.983-5.767,1.767-5.567,1.7-5.1z"/>
				<path style="fill-rule:evenodd;clip-rule:evenodd;" d="M1.95-5.1c0,0.267,0.117,0.4,0.35,0.4c0.2,0.034,0.333-0.083,0.4-0.35
					c0-0.267-0.117-0.4-0.35-0.4C2.083-5.517,1.95-5.4,1.95-5.1z"/>
			</g>
			<g>
				<path style="fill-rule:evenodd;clip-rule:evenodd;" d="M0-4.5c0,0.3,0.133,0.45,0.4,0.45c0.233,0,0.383-0.133,0.45-0.4
					c0-0.3-0.133-0.45-0.4-0.45C0.15-4.967,0-4.833,0-4.5z"/>
				<path style="fill-rule:evenodd;clip-rule:evenodd;" d="M0.15-4.5c0,0.133,0.083,0.233,0.25,0.3c0.167,0,0.25-0.083,0.25-0.25
					c0-0.2-0.066-0.3-0.2-0.3S0.217-4.667,0.15-4.5z"/>
			</g>
			<g>
				<path style="fill-rule:evenodd;clip-rule:evenodd;" d="M8.7-5.2C8.633-4.9,8.75-4.75,9.05-4.75c0.3,0.067,0.45-0.067,0.45-0.4
					c0-0.3-0.133-0.45-0.4-0.45S8.7-5.467,8.7-5.2z"/>
				<path style="fill-rule:evenodd;clip-rule:evenodd;" d="M8.85-5.2c0,0.2,0.066,0.3,0.2,0.3s0.233-0.083,0.3-0.25
					c0-0.167-0.083-0.25-0.25-0.25C8.933-5.467,8.85-5.4,8.85-5.2z"/>
			</g>
			<g>
				<path style="fill-rule:evenodd;clip-rule:evenodd;" d="M7.55-1.15c-0.066,0.4,0.117,0.633,0.55,0.7c0.433,0,0.65-0.2,0.65-0.6
					c0.067-0.467-0.117-0.7-0.55-0.7C8.033-1.783,7.883-1.733,7.75-1.6S7.55-1.317,7.55-1.15z"/>
				<path style="fill-rule:evenodd;clip-rule:evenodd;" d="M7.8-1.15c-0.066,0.267,0.05,0.4,0.35,0.4
					c0.2,0.033,0.333-0.083,0.4-0.35c0-0.267-0.117-0.4-0.35-0.4C7.933-1.5,7.8-1.383,7.8-1.15z"/>
			</g>
			<g>
				<path style="fill-rule:evenodd;clip-rule:evenodd;" d="M3.9-0.7C3.833-0.3,4.017-0.067,4.45,0C4.883,0,5.1-0.2,5.1-0.6
					c0.033-0.167,0-0.333-0.1-0.5C4.867-1.233,4.717-1.3,4.55-1.3C4.383-1.333,4.233-1.283,4.1-1.15S3.9-0.867,3.9-0.7z"/>
				<path style="fill-rule:evenodd;clip-rule:evenodd;" d="M4.15-0.7c-0.033,0.233,0.067,0.383,0.3,0.45c0.267,0,0.4-0.133,0.4-0.4
					c0.066-0.267-0.05-0.4-0.35-0.4C4.267-1.05,4.15-0.933,4.15-0.7z"/>
			</g>
		</g>
	</g>
</symbol>
<symbol  id="FlashAICB_x5F_0_x2F_jar_2_x2F__x3C_Group_x3E__x5F_1_x5F_0" viewBox="-0.018 -7.1 9.918 7.113">
	<g id="Layer_1_6_">
		<g>
			<g>
				<path style="fill-rule:evenodd;clip-rule:evenodd;" d="M8.25-3.6c-0.033,0.233,0.033,0.45,0.2,0.65C8.583-2.783,8.767-2.7,9-2.7
					c0.533,0.067,0.833-0.2,0.9-0.8c0-0.533-0.25-0.833-0.75-0.9c-0.233-0.033-0.433,0.033-0.6,0.2
					C8.383-4.067,8.283-3.867,8.25-3.6z"/>
				<path style="fill-rule:evenodd;clip-rule:evenodd;" d="M8.6-3.6C8.533-3.267,8.683-3.067,9.05-3c0.333,0,0.5-0.167,0.5-0.5
					C9.617-3.867,9.467-4.05,9.1-4.05c-0.133-0.034-0.25,0-0.35,0.1C8.65-3.85,8.6-3.733,8.6-3.6z"/>
			</g>
			<g>
				<path style="fill-rule:evenodd;clip-rule:evenodd;" d="M2.75-2.55C2.75-1.983,3-1.667,3.5-1.6c0.533,0,0.833-0.267,0.9-0.8
					c0.067-0.567-0.183-0.883-0.75-0.95c-0.233-0.033-0.433,0.033-0.6,0.2C2.883-2.983,2.783-2.783,2.75-2.55z"/>
				<path style="fill-rule:evenodd;clip-rule:evenodd;" d="M3.1-2.5C3.033-2.2,3.183-2.017,3.55-1.95c0.3,0,0.483-0.167,0.55-0.5
					C4.1-2.817,3.933-3,3.6-3C3.267-3,3.1-2.833,3.1-2.5z"/>
			</g>
			<g>
				<path style="fill-rule:evenodd;clip-rule:evenodd;" d="M7.05-5.35c0,0.467,0.2,0.7,0.6,0.7c0.367,0.066,0.583-0.133,0.65-0.6
					c0-0.4-0.2-0.633-0.6-0.7C7.333-5.95,7.117-5.75,7.05-5.35z"/>
				<path style="fill-rule:evenodd;clip-rule:evenodd;" d="M7.3-5.3c0,0.267,0.117,0.4,0.35,0.4c0.267,0,0.4-0.117,0.4-0.35
					S7.933-5.633,7.7-5.7C7.433-5.7,7.3-5.567,7.3-5.3z"/>
			</g>
			<g>
				<path style="fill-rule:evenodd;clip-rule:evenodd;" d="M6-2.75c-0.033,0.167,0.017,0.333,0.15,0.5c0.1,0.133,0.233,0.2,0.4,0.2
					C6.717-2.017,6.867-2.067,7-2.2s0.2-0.283,0.2-0.45c0.066-0.4-0.117-0.633-0.55-0.7C6.217-3.35,6-3.15,6-2.75z"/>
				<path style="fill-rule:evenodd;clip-rule:evenodd;" d="M6.25-2.7c0,0.267,0.117,0.4,0.35,0.4c0.2,0,0.333-0.117,0.4-0.35
					c0-0.267-0.117-0.4-0.35-0.4C6.383-3.117,6.25-3,6.25-2.7z"/>
			</g>
			<g>
				<path style="fill-rule:evenodd;clip-rule:evenodd;" d="M4.45-4.35c0,0.4,0.2,0.633,0.6,0.7c0.367,0,0.583-0.2,0.65-0.6
					c0.033-0.2-0.017-0.367-0.15-0.5c-0.1-0.133-0.233-0.2-0.4-0.2C4.75-5.017,4.517-4.817,4.45-4.35z"/>
				<path style="fill-rule:evenodd;clip-rule:evenodd;" d="M4.7-4.35c0,0.267,0.117,0.4,0.35,0.4c0.1,0.034,0.2,0,0.3-0.1
					c0.066-0.067,0.1-0.15,0.1-0.25c0-0.267-0.117-0.4-0.35-0.4C4.9-4.7,4.767-4.583,4.7-4.35z"/>
			</g>
			<g>
				<path style="fill-rule:evenodd;clip-rule:evenodd;" d="M0.15-3.05c0,0.4,0.2,0.633,0.6,0.7c0.367,0,0.583-0.2,0.65-0.6
					c0-0.4-0.183-0.633-0.55-0.7C0.45-3.65,0.217-3.45,0.15-3.05z"/>
				<path style="fill-rule:evenodd;clip-rule:evenodd;" d="M0.4-3.05c0,0.233,0.117,0.383,0.35,0.45c0.267,0,0.4-0.117,0.4-0.35
					c0-0.233-0.117-0.383-0.35-0.45C0.533-3.4,0.4-3.283,0.4-3.05z"/>
			</g>
			<g>
				<path style="fill-rule:evenodd;clip-rule:evenodd;" d="M3.95-6.5C3.917-6.333,3.967-6.167,4.1-6c0.1,0.133,0.233,0.2,0.4,0.2
					c0.167,0.033,0.317-0.017,0.45-0.15s0.2-0.283,0.2-0.45C5.217-6.8,5.033-7.033,4.6-7.1C4.167-7.1,3.95-6.9,3.95-6.5z"/>
				<path style="fill-rule:evenodd;clip-rule:evenodd;" d="M4.2-6.45c-0.067,0.267,0.033,0.4,0.3,0.4S4.9-6.167,4.9-6.4
					c0.033-0.233-0.066-0.383-0.3-0.45C4.333-6.85,4.2-6.717,4.2-6.45z"/>
			</g>
			<g>
				<path style="fill-rule:evenodd;clip-rule:evenodd;" d="M1.7-5.1C1.633-4.7,1.817-4.467,2.25-4.4C2.683-4.4,2.9-4.6,2.9-5
					c0.067-0.4-0.117-0.633-0.55-0.7C1.917-5.7,1.7-5.5,1.7-5.1z"/>
				<path style="fill-rule:evenodd;clip-rule:evenodd;" d="M1.95-5.1c-0.034,0.233,0.066,0.383,0.3,0.45c0.267,0,0.4-0.117,0.4-0.35
					c0.033-0.233-0.066-0.383-0.3-0.45C2.083-5.45,1.95-5.333,1.95-5.1z"/>
			</g>
			<g>
				<path style="fill-rule:evenodd;clip-rule:evenodd;" d="M0-4.5c-0.067,0.3,0.05,0.45,0.35,0.45c0.3,0.066,0.45-0.067,0.45-0.4
					c0-0.233-0.117-0.383-0.35-0.45C0.15-4.9,0-4.767,0-4.5z"/>
				<path style="fill-rule:evenodd;clip-rule:evenodd;" d="M0.15-4.5c0,0.2,0.067,0.3,0.2,0.3c0.2,0,0.3-0.083,0.3-0.25
					c0-0.167-0.083-0.25-0.25-0.25C0.367-4.733,0.317-4.717,0.25-4.65C0.183-4.617,0.15-4.567,0.15-4.5z"/>
			</g>
			<g>
				<path style="fill-rule:evenodd;clip-rule:evenodd;" d="M8.65-5.15c0,0.233,0.133,0.383,0.4,0.45c0.233,0,0.383-0.133,0.45-0.4
					c0-0.3-0.133-0.45-0.4-0.45C8.8-5.617,8.65-5.483,8.65-5.15z"/>
				<path style="fill-rule:evenodd;clip-rule:evenodd;" d="M8.8-5.15c0,0.167,0.083,0.25,0.25,0.25c0.167,0.066,0.25,0,0.25-0.2
					c0-0.2-0.066-0.3-0.2-0.3S8.867-5.317,8.8-5.15z"/>
			</g>
			<g>
				<path style="fill-rule:evenodd;clip-rule:evenodd;" d="M7.5-1.15c0,0.4,0.2,0.633,0.6,0.7C8.267-0.417,8.417-0.467,8.55-0.6
					s0.2-0.283,0.2-0.45c0.067-0.4-0.117-0.633-0.55-0.7C7.8-1.75,7.567-1.55,7.5-1.15z"/>
				<path style="fill-rule:evenodd;clip-rule:evenodd;" d="M7.75-1.1c0,0.267,0.117,0.4,0.35,0.4c0.267,0,0.4-0.117,0.4-0.35
					c0-0.233-0.117-0.383-0.35-0.45C7.95-1.5,7.817-1.367,7.75-1.1z"/>
			</g>
			<g>
				<path style="fill-rule:evenodd;clip-rule:evenodd;" d="M3.85-0.7c0,0.467,0.2,0.7,0.6,0.7C4.817,0.067,5.033-0.133,5.1-0.6
					c0-0.4-0.2-0.633-0.6-0.7C4.133-1.3,3.917-1.1,3.85-0.7z"/>
				<path style="fill-rule:evenodd;clip-rule:evenodd;" d="M4.1-0.65c0,0.267,0.117,0.4,0.35,0.4c0.267,0,0.4-0.117,0.4-0.35
					C4.85-0.867,4.733-1,4.5-1C4.233-1.067,4.1-0.95,4.1-0.65z"/>
			</g>
		</g>
	</g>
</symbol>
<symbol  id="FlashAICB_x5F_0_x2F_jar_2_x2F__x3C_Group_x3E__x5F_1_x5F_1" viewBox="-0.018 -7.062 9.918 7.075">
	<g id="Layer_1_9_">
		<g>
			<g>
				<path style="fill-rule:evenodd;clip-rule:evenodd;" d="M8.25-3.6c-0.033,0.233,0.033,0.45,0.2,0.65
					C8.583-2.783,8.767-2.683,9-2.65c0.533,0,0.833-0.267,0.9-0.8c0-0.566-0.267-0.883-0.8-0.95c-0.233,0-0.434,0.083-0.6,0.25
					C8.333-4.017,8.25-3.833,8.25-3.6z"/>
				<path style="fill-rule:evenodd;clip-rule:evenodd;" d="M8.55-3.55C8.55-3.25,8.7-3.067,9-3c0.367,0,0.55-0.167,0.55-0.5
					c0-0.3-0.15-0.483-0.45-0.55C8.8-4.05,8.617-3.883,8.55-3.55z"/>
			</g>
			<g>
				<path style="fill-rule:evenodd;clip-rule:evenodd;" d="M2.75-2.55C2.717-2.317,2.783-2.1,2.95-1.9
					C3.083-1.733,3.267-1.633,3.5-1.6s0.433-0.033,0.6-0.2c0.167-0.167,0.267-0.367,0.3-0.6c0.067-0.567-0.183-0.883-0.75-0.95
					C3.117-3.35,2.817-3.083,2.75-2.55z"/>
				<path style="fill-rule:evenodd;clip-rule:evenodd;" d="M3.1-2.5C3.033-2.133,3.183-1.95,3.55-1.95c0.333,0,0.5-0.167,0.5-0.5
					C4.117-2.75,3.967-2.933,3.6-3C3.267-3,3.1-2.833,3.1-2.5z"/>
			</g>
			<g>
				<path style="fill-rule:evenodd;clip-rule:evenodd;" d="M7.05-5.35c-0.033,0.2,0.017,0.367,0.15,0.5c0.1,0.133,0.233,0.2,0.4,0.2
					C8-4.583,8.233-4.783,8.3-5.25c0-0.4-0.2-0.633-0.6-0.7C7.333-5.95,7.117-5.75,7.05-5.35z"/>
				<path style="fill-rule:evenodd;clip-rule:evenodd;" d="M7.3-5.3c0,0.267,0.117,0.4,0.35,0.4c0.2,0,0.333-0.117,0.4-0.35
					c0-0.267-0.117-0.4-0.35-0.4C7.433-5.717,7.3-5.6,7.3-5.3z"/>
			</g>
			<g>
				<path style="fill-rule:evenodd;clip-rule:evenodd;" d="M6-2.7C5.933-2.267,6.117-2.05,6.55-2.05C6.983-1.983,7.2-2.183,7.2-2.65
					C7.267-3.083,7.083-3.3,6.65-3.3C6.217-3.367,6-3.167,6-2.7z"/>
				<path style="fill-rule:evenodd;clip-rule:evenodd;" d="M6.25-2.7c-0.067,0.267,0.033,0.4,0.3,0.4c0.267,0.066,0.4-0.05,0.4-0.35
					c0.066-0.267-0.034-0.4-0.3-0.4C6.383-3.117,6.25-3,6.25-2.7z"/>
			</g>
			<g>
				<path style="fill-rule:evenodd;clip-rule:evenodd;" d="M4.45-4.35c0,0.4,0.2,0.633,0.6,0.7c0.367,0,0.583-0.2,0.65-0.6
					c0-0.467-0.184-0.7-0.55-0.7C4.75-5.017,4.517-4.817,4.45-4.35z"/>
				<path style="fill-rule:evenodd;clip-rule:evenodd;" d="M4.7-4.35c0,0.233,0.117,0.383,0.35,0.45c0.267,0,0.4-0.133,0.4-0.4
					c0-0.267-0.117-0.4-0.35-0.4C4.833-4.7,4.7-4.583,4.7-4.35z"/>
			</g>
			<g>
				<path style="fill-rule:evenodd;clip-rule:evenodd;" d="M0.15-3.05c0,0.466,0.184,0.7,0.55,0.7c0.4,0.067,0.633-0.133,0.7-0.6
					c0-0.4-0.2-0.633-0.6-0.7C0.433-3.65,0.217-3.45,0.15-3.05z"/>
				<path style="fill-rule:evenodd;clip-rule:evenodd;" d="M0.4-3c0,0.267,0.117,0.4,0.35,0.4c0.2,0,0.333-0.117,0.4-0.35
					c0-0.233-0.117-0.383-0.35-0.45C0.533-3.4,0.4-3.267,0.4-3z"/>
			</g>
			<g>
				<path style="fill-rule:evenodd;clip-rule:evenodd;" d="M3.9-6.45c0,0.434,0.2,0.65,0.6,0.65c0.367,0.066,0.583-0.133,0.65-0.6
					C5.217-6.833,5.033-7.05,4.6-7.05C4.2-7.117,3.967-6.917,3.9-6.45z"/>
				<path style="fill-rule:evenodd;clip-rule:evenodd;" d="M4.15-6.45c0,0.267,0.117,0.4,0.35,0.4C4.767-5.983,4.9-6.1,4.9-6.4
					c0-0.267-0.117-0.4-0.35-0.4C4.35-6.867,4.217-6.75,4.15-6.45z"/>
			</g>
			<g>
				<path style="fill-rule:evenodd;clip-rule:evenodd;" d="M1.65-5.1c0,0.467,0.2,0.7,0.6,0.7C2.617-4.333,2.833-4.533,2.9-5
					c0.067-0.4-0.117-0.633-0.55-0.7C1.95-5.7,1.717-5.5,1.65-5.1z"/>
				<path style="fill-rule:evenodd;clip-rule:evenodd;" d="M1.9-5.05c0,0.267,0.117,0.4,0.35,0.4c0.267,0,0.4-0.117,0.4-0.35
					S2.533-5.383,2.3-5.45C2.1-5.45,1.967-5.317,1.9-5.05z"/>
			</g>
			<g>
				<path style="fill-rule:evenodd;clip-rule:evenodd;" d="M0-4.5C-0.067-4.233,0.05-4.067,0.35-4C0.65-4,0.8-4.133,0.8-4.4
					S0.667-4.833,0.4-4.9C0.133-4.9,0-4.767,0-4.5z"/>
				<path style="fill-rule:evenodd;clip-rule:evenodd;" d="M0.15-4.45c0,0.167,0.067,0.25,0.2,0.25s0.233-0.083,0.3-0.25
					c0-0.167-0.083-0.25-0.25-0.25C0.233-4.7,0.15-4.617,0.15-4.45z"/>
			</g>
			<g>
				<path style="fill-rule:evenodd;clip-rule:evenodd;" d="M8.65-5.15C8.65-4.85,8.767-4.7,9-4.7c0.3,0,0.45-0.133,0.45-0.4
					C9.517-5.4,9.4-5.55,9.1-5.55C8.8-5.617,8.65-5.483,8.65-5.15z"/>
				<path style="fill-rule:evenodd;clip-rule:evenodd;" d="M8.8-5.15c0,0.133,0.083,0.233,0.25,0.3c0.167,0,0.25-0.083,0.25-0.25
					c0-0.2-0.066-0.3-0.2-0.3C8.9-5.4,8.8-5.317,8.8-5.15z"/>
			</g>
			<g>
				<path style="fill-rule:evenodd;clip-rule:evenodd;" d="M7.5-1.15c0,0.467,0.2,0.7,0.6,0.7c0.367,0.067,0.583-0.133,0.65-0.6
					c0-0.4-0.183-0.633-0.55-0.7C7.8-1.75,7.567-1.55,7.5-1.15z"/>
				<path style="fill-rule:evenodd;clip-rule:evenodd;" d="M7.75-1.1c0,0.267,0.117,0.4,0.35,0.4c0.267,0,0.4-0.117,0.4-0.35
					c0-0.267-0.117-0.4-0.35-0.4C7.95-1.517,7.817-1.4,7.75-1.1z"/>
			</g>
			<g>
				<path style="fill-rule:evenodd;clip-rule:evenodd;" d="M3.85-0.65C3.817-0.483,3.867-0.333,4-0.2C4.1-0.067,4.233,0,4.4,0
					c0.4,0.067,0.633-0.133,0.7-0.6c0-0.433-0.2-0.65-0.6-0.65C4.133-1.317,3.917-1.117,3.85-0.65z"/>
				<path style="fill-rule:evenodd;clip-rule:evenodd;" d="M4.1-0.65c0,0.267,0.117,0.4,0.35,0.4c0.2,0.033,0.333-0.083,0.4-0.35
					C4.85-0.867,4.733-1,4.5-1C4.233-1.067,4.1-0.95,4.1-0.65z"/>
			</g>
		</g>
	</g>
</symbol>
<symbol  id="FlashAICB_x5F_0_x2F_jar_2_x2F__x3C_Group_x3E__x5F_1_x5F_2" viewBox="0 -7.81 11.008 7.81">
	<g id="Layer_1_12_">
		<g>
			<g>
				<path style="fill-rule:evenodd;clip-rule:evenodd;" d="M9.2-4.65C9.233-4.383,9.35-4.167,9.55-4c0.2,0.167,0.417,0.233,0.65,0.2
					c0.233-0.034,0.433-0.15,0.6-0.35c0.167-0.167,0.233-0.383,0.2-0.65c-0.067-0.667-0.383-0.967-0.95-0.9
					C9.783-5.667,9.567-5.55,9.4-5.35C9.233-5.15,9.167-4.917,9.2-4.65z"/>
				<path style="fill-rule:evenodd;clip-rule:evenodd;" d="M9.55-4.7c0.067,0.367,0.267,0.55,0.6,0.55
					c0.4-0.067,0.567-0.283,0.5-0.65c0-0.167-0.066-0.3-0.2-0.4c-0.1-0.1-0.233-0.133-0.4-0.1C9.717-5.3,9.55-5.1,9.55-4.7z"/>
			</g>
			<g>
				<path style="fill-rule:evenodd;clip-rule:evenodd;" d="M3.4-2.5c0.033,0.267,0.15,0.483,0.35,0.65
					c0.2,0.167,0.417,0.233,0.65,0.2S4.833-1.8,5-2c0.167-0.167,0.233-0.383,0.2-0.65c0-0.267-0.1-0.5-0.3-0.7
					c-0.167-0.167-0.383-0.233-0.65-0.2C3.983-3.517,3.767-3.4,3.6-3.2C3.433-3,3.367-2.767,3.4-2.5z"/>
				<path style="fill-rule:evenodd;clip-rule:evenodd;" d="M3.75-2.55C3.817-2.183,4.017-2,4.35-2c0.4-0.067,0.566-0.283,0.5-0.65
					c0-0.167-0.067-0.3-0.2-0.4c-0.1-0.1-0.233-0.133-0.4-0.1C3.917-3.15,3.75-2.95,3.75-2.55z"/>
			</g>
			<g>
				<path style="fill-rule:evenodd;clip-rule:evenodd;" d="M7.6-6.35c0.066,0.5,0.316,0.717,0.75,0.65
					c0.167,0,0.316-0.083,0.45-0.25c0.133-0.133,0.184-0.3,0.15-0.5C8.883-6.95,8.633-7.167,8.2-7.1c-0.167,0-0.317,0.067-0.45,0.2
					C7.617-6.733,7.567-6.55,7.6-6.35z"/>
				<path style="fill-rule:evenodd;clip-rule:evenodd;" d="M7.85-6.35c0.066,0.267,0.217,0.4,0.45,0.4
					c0.267-0.066,0.4-0.233,0.4-0.5c-0.067-0.267-0.217-0.4-0.45-0.4C7.983-6.783,7.85-6.617,7.85-6.35z"/>
			</g>
			<g>
				<path style="fill-rule:evenodd;clip-rule:evenodd;" d="M6.9-3.3c0.067,0.5,0.317,0.716,0.75,0.65
					C7.817-2.683,7.967-2.767,8.1-2.9c0.133-0.167,0.183-0.333,0.15-0.5C8.25-3.867,8-4.1,7.5-4.1C7.033-4.033,6.833-3.767,6.9-3.3z
					"/>
				<path style="fill-rule:evenodd;clip-rule:evenodd;" d="M7.2-3.3c0,0.3,0.133,0.417,0.4,0.35C7.867-2.95,8-3.1,8-3.4
					C7.933-3.667,7.783-3.8,7.55-3.8C7.25-3.733,7.133-3.567,7.2-3.3z"/>
			</g>
			<g>
				<path style="fill-rule:evenodd;clip-rule:evenodd;" d="M4.95-4.8C5.017-4.3,5.267-4.083,5.7-4.15
					C5.867-4.183,6.017-4.267,6.15-4.4C6.283-4.567,6.333-4.75,6.3-4.95C6.233-5.383,5.983-5.6,5.55-5.6
					C5.083-5.533,4.883-5.267,4.95-4.8z"/>
				<path style="fill-rule:evenodd;clip-rule:evenodd;" d="M5.2-4.85c0.066,0.333,0.216,0.467,0.45,0.4c0.267,0,0.4-0.15,0.4-0.45
					C5.983-5.167,5.833-5.3,5.6-5.3C5.333-5.3,5.2-5.15,5.2-4.85z"/>
			</g>
			<g>
				<path style="fill-rule:evenodd;clip-rule:evenodd;" d="M0.45-2.6C0.517-2.1,0.767-1.883,1.2-1.95c0.433,0,0.65-0.25,0.65-0.75
					C1.783-3.2,1.533-3.417,1.1-3.35C0.667-3.283,0.45-3.033,0.45-2.6z"/>
				<path style="fill-rule:evenodd;clip-rule:evenodd;" d="M0.75-2.6c0,0.267,0.15,0.4,0.45,0.4c0.3-0.066,0.417-0.233,0.35-0.5
					C1.55-3,1.4-3.117,1.1-3.05C0.8-3.05,0.683-2.9,0.75-2.6z"/>
			</g>
			<g>
				<path style="fill-rule:evenodd;clip-rule:evenodd;" d="M3.95-7.05c0.066,0.466,0.316,0.7,0.75,0.7
					c0.466-0.066,0.667-0.333,0.6-0.8c0-0.2-0.066-0.367-0.2-0.5C4.933-7.783,4.767-7.833,4.6-7.8C4.167-7.733,3.95-7.483,3.95-7.05
					z"/>
				<path style="fill-rule:evenodd;clip-rule:evenodd;" d="M4.25-7.05c0,0.267,0.15,0.4,0.45,0.4C4.933-6.717,5.05-6.867,5.05-7.1
					c0-0.333-0.15-0.467-0.45-0.4C4.3-7.5,4.183-7.35,4.25-7.05z"/>
			</g>
			<g>
				<path style="fill-rule:evenodd;clip-rule:evenodd;" d="M1.75-5.1C1.783-4.9,1.867-4.733,2-4.6c0.167,0.133,0.333,0.184,0.5,0.15
					C2.967-4.517,3.167-4.767,3.1-5.2c0-0.2-0.067-0.367-0.2-0.5C2.733-5.833,2.55-5.883,2.35-5.85c-0.167,0-0.317,0.067-0.45,0.2
					C1.767-5.483,1.717-5.3,1.75-5.1z"/>
				<path style="fill-rule:evenodd;clip-rule:evenodd;" d="M2.05-5.1c0,0.3,0.15,0.417,0.45,0.35c0.233,0,0.35-0.15,0.35-0.45
					C2.783-5.467,2.633-5.6,2.4-5.6C2.1-5.533,1.983-5.367,2.05-5.1z"/>
			</g>
			<g>
				<path style="fill-rule:evenodd;clip-rule:evenodd;" d="M0-4.1c0.067,0.333,0.233,0.467,0.5,0.4c0.333,0,0.467-0.167,0.4-0.5
					c0-0.3-0.15-0.45-0.45-0.45C0.15-4.583,0-4.4,0-4.1z"/>
				<path style="fill-rule:evenodd;clip-rule:evenodd;" d="M0.2-4.15c0,0.233,0.1,0.316,0.3,0.25c0.167,0,0.25-0.1,0.25-0.3
					c0-0.167-0.1-0.25-0.3-0.25C0.283-4.45,0.2-4.35,0.2-4.15z"/>
			</g>
			<g>
				<path style="fill-rule:evenodd;clip-rule:evenodd;" d="M9.35-6.45C9.417-6.15,9.583-6,9.85-6c0.333-0.067,0.467-0.25,0.4-0.55
					c0-0.333-0.15-0.467-0.45-0.4C9.5-6.95,9.35-6.783,9.35-6.45z"/>
				<path style="fill-rule:evenodd;clip-rule:evenodd;" d="M9.55-6.45c0,0.167,0.1,0.25,0.3,0.25c0.167,0,0.25-0.1,0.25-0.3
					S10-6.8,9.8-6.8C9.633-6.733,9.55-6.617,9.55-6.45z"/>
			</g>
			<g>
				<path style="fill-rule:evenodd;clip-rule:evenodd;" d="M8.85-1.85c0.033,0.2,0.117,0.367,0.25,0.5
					C9.267-1.217,9.433-1.167,9.6-1.2c0.433,0,0.65-0.25,0.65-0.75c-0.033-0.2-0.117-0.367-0.25-0.5
					C9.833-2.583,9.667-2.633,9.5-2.6C9.067-2.6,8.85-2.35,8.85-1.85z"/>
				<path style="fill-rule:evenodd;clip-rule:evenodd;" d="M9.15-1.85c0,0.267,0.15,0.4,0.45,0.4c0.233-0.066,0.35-0.233,0.35-0.5
					c0-0.267-0.15-0.4-0.45-0.4C9.2-2.283,9.083-2.117,9.15-1.85z"/>
			</g>
			<g>
				<path style="fill-rule:evenodd;clip-rule:evenodd;" d="M4.95-0.65C5.017-0.217,5.267,0,5.7,0c0.167-0.033,0.316-0.117,0.45-0.25
					C6.283-0.417,6.333-0.6,6.3-0.8C6.233-1.3,5.983-1.517,5.55-1.45C5.083-1.383,4.883-1.117,4.95-0.65z"/>
				<path style="fill-rule:evenodd;clip-rule:evenodd;" d="M5.2-0.7c0.066,0.267,0.216,0.4,0.45,0.4c0.267,0,0.4-0.15,0.4-0.45
					C5.983-1.083,5.833-1.217,5.6-1.15C5.333-1.15,5.2-1,5.2-0.7z"/>
			</g>
		</g>
	</g>
</symbol>
<symbol  id="FlashAICB_x5F_0_x2F_jar_2_x2F__x3C_Group_x3E__x5F_1_x5F_3" viewBox="-0.02 -5.468 7.27 5.487">
	<g id="Layer_1_15_">
		<g>
			<g>
				<path style="fill-rule:evenodd;clip-rule:evenodd;" d="M6-2.3C5.867-1.867,6-1.6,6.4-1.5C6.733-1.4,7-1.533,7.2-1.9
					c0.133-0.4,0-0.667-0.4-0.8C6.367-2.833,6.1-2.7,6-2.3z"/>
				<path style="fill-rule:evenodd;clip-rule:evenodd;" d="M6.25-2.2C6.15-1.967,6.233-1.817,6.5-1.75
					c0.067,0.033,0.15,0.033,0.25,0C6.85-1.817,6.917-1.9,6.95-2C7.017-2.233,6.933-2.4,6.7-2.5C6.467-2.567,6.317-2.467,6.25-2.2z"
					/>
			</g>
			<g>
				<path style="fill-rule:evenodd;clip-rule:evenodd;" d="M1.85-2.45c-0.167,0.4-0.033,0.667,0.4,0.8c0.4,0.133,0.65,0,0.75-0.4
					c0.133-0.434,0-0.7-0.4-0.8C2.233-2.983,1.983-2.85,1.85-2.45z"/>
				<path style="fill-rule:evenodd;clip-rule:evenodd;" d="M2.05-2.35C1.983-2.117,2.067-1.967,2.3-1.9
					c0.233,0.1,0.383,0.017,0.45-0.25c0.133-0.233,0.067-0.383-0.2-0.45C2.35-2.7,2.183-2.617,2.05-2.35z"/>
			</g>
			<g>
				<path style="fill-rule:evenodd;clip-rule:evenodd;" d="M5.45-3.75c-0.1,0.267-0.017,0.467,0.25,0.6
					C6.067-3.083,6.267-3.2,6.3-3.5c0.1-0.267,0-0.467-0.3-0.6C5.7-4.167,5.517-4.05,5.45-3.75z"/>
				<path style="fill-rule:evenodd;clip-rule:evenodd;" d="M5.6-3.7c-0.067,0.167,0,0.284,0.2,0.35c0.167,0.067,0.284,0,0.35-0.2
					c0.067-0.167,0-0.284-0.2-0.35C5.783-3.967,5.667-3.9,5.6-3.7z"/>
			</g>
			<g>
				<path style="fill-rule:evenodd;clip-rule:evenodd;" d="M4.2-2.05c-0.067,0.333,0.033,0.533,0.3,0.6c0.267,0.1,0.467,0,0.6-0.3
					c0.066-0.133,0.066-0.267,0-0.4c-0.067-0.1-0.167-0.167-0.3-0.2C4.533-2.45,4.333-2.35,4.2-2.05z"/>
				<path style="fill-rule:evenodd;clip-rule:evenodd;" d="M4.4-1.95C4.333-1.783,4.383-1.667,4.55-1.6
					c0.167,0.067,0.284,0,0.35-0.2c0.067-0.233,0.017-0.35-0.15-0.35C4.55-2.217,4.433-2.15,4.4-1.95z"/>
			</g>
			<g>
				<path style="fill-rule:evenodd;clip-rule:evenodd;" d="M3.35-3.45c-0.067,0.267,0.033,0.467,0.3,0.6
					C3.983-2.783,4.183-2.9,4.25-3.2c0.1-0.267,0-0.466-0.3-0.6C3.683-3.9,3.483-3.783,3.35-3.45z"/>
				<path style="fill-rule:evenodd;clip-rule:evenodd;" d="M3.55-3.4c-0.066,0.167,0,0.283,0.2,0.35c0.167,0.066,0.283,0,0.35-0.2
					c0.066-0.167,0-0.283-0.2-0.35C3.733-3.667,3.617-3.6,3.55-3.4z"/>
			</g>
			<g>
				<path style="fill-rule:evenodd;clip-rule:evenodd;" d="M0-3.25c-0.067,0.333,0.033,0.533,0.3,0.6c0.267,0.1,0.467,0,0.6-0.3
					c0.067-0.133,0.067-0.267,0-0.4c-0.066-0.1-0.167-0.167-0.3-0.2C0.333-3.65,0.133-3.55,0-3.25z"/>
				<path style="fill-rule:evenodd;clip-rule:evenodd;" d="M0.2-3.15C0.133-2.983,0.183-2.867,0.35-2.8C0.517-2.733,0.633-2.8,0.7-3
					c0.066-0.167,0.017-0.283-0.15-0.35C0.35-3.417,0.233-3.35,0.2-3.15z"/>
			</g>
			<g>
				<path style="fill-rule:evenodd;clip-rule:evenodd;" d="M3.35-5.1c-0.1,0.267,0,0.467,0.3,0.6C3.75-4.467,3.867-4.483,4-4.55
					c0.1-0.067,0.167-0.167,0.2-0.3c0.1-0.267,0-0.467-0.3-0.6C3.6-5.517,3.417-5.4,3.35-5.1z"/>
				<path style="fill-rule:evenodd;clip-rule:evenodd;" d="M3.5-5.05c-0.067,0.167,0,0.283,0.2,0.35c0.167,0.067,0.283,0,0.35-0.2
					c0.067-0.167,0-0.283-0.2-0.35C3.683-5.317,3.567-5.25,3.5-5.05z"/>
			</g>
			<g>
				<path style="fill-rule:evenodd;clip-rule:evenodd;" d="M1.45-4.45c-0.067,0.3,0.033,0.5,0.3,0.6c0.3,0.067,0.5-0.05,0.6-0.35
					c0.066-0.3-0.033-0.5-0.3-0.6C1.75-4.867,1.55-4.75,1.45-4.45z"/>
				<path style="fill-rule:evenodd;clip-rule:evenodd;" d="M1.65-4.4C1.583-4.233,1.633-4.117,1.8-4.05
					c0.167,0.066,0.284,0,0.35-0.2C2.217-4.417,2.167-4.533,2-4.6C1.833-4.667,1.717-4.6,1.65-4.4z"/>
			</g>
			<g>
				<path style="fill-rule:evenodd;clip-rule:evenodd;" d="M0.1-4.3c-0.067,0.2,0,0.333,0.2,0.4c0.2,0.066,0.333-0.017,0.4-0.25
					c0.066-0.2,0-0.333-0.2-0.4C0.333-4.617,0.2-4.533,0.1-4.3z"/>
				<path style="fill-rule:evenodd;clip-rule:evenodd;" d="M0.25-4.25c-0.067,0.133-0.033,0.2,0.1,0.2
					c0.1,0.066,0.183,0.033,0.25-0.1c0.033-0.067,0-0.15-0.1-0.25C0.333-4.5,0.25-4.45,0.25-4.25z"/>
			</g>
			<g>
				<path style="fill-rule:evenodd;clip-rule:evenodd;" d="M6.55-3.35c-0.066,0.2,0,0.333,0.2,0.4c0.2,0.067,0.333-0.017,0.4-0.25
					c0.067-0.2,0-0.333-0.2-0.4C6.75-3.667,6.617-3.583,6.55-3.35z"/>
				<path style="fill-rule:evenodd;clip-rule:evenodd;" d="M6.7-3.35C6.633-3.183,6.667-3.1,6.8-3.1c0.1,0.067,0.184,0.033,0.25-0.1
					C7.05-3.367,7-3.45,6.9-3.45C6.767-3.517,6.7-3.483,6.7-3.35z"/>
			</g>
			<g>
				<path style="fill-rule:evenodd;clip-rule:evenodd;" d="M5.05-0.6C4.983-0.3,5.083-0.1,5.35,0c0.3,0.067,0.5-0.05,0.6-0.35
					c0.1-0.267,0-0.467-0.3-0.6C5.383-1.017,5.183-0.9,5.05-0.6z"/>
				<path style="fill-rule:evenodd;clip-rule:evenodd;" d="M5.25-0.55C5.183-0.383,5.233-0.267,5.4-0.2
					c0.167,0.067,0.283,0,0.35-0.2C5.817-0.567,5.767-0.683,5.6-0.75C5.433-0.817,5.317-0.75,5.25-0.55z"/>
			</g>
			<g>
				<path style="fill-rule:evenodd;clip-rule:evenodd;" d="M2.3-0.9C2.233-0.567,2.333-0.367,2.6-0.3c0.267,0.1,0.467,0,0.6-0.3
					c0.066-0.133,0.066-0.267,0-0.4C3.133-1.1,3.033-1.167,2.9-1.2C2.633-1.3,2.433-1.2,2.3-0.9z"/>
				<path style="fill-rule:evenodd;clip-rule:evenodd;" d="M2.5-0.85C2.467-0.783,2.467-0.7,2.5-0.6c0.033,0.067,0.083,0.1,0.15,0.1
					C2.883-0.433,3-0.483,3-0.65c0.067-0.2,0.017-0.333-0.15-0.4C2.683-1.117,2.567-1.05,2.5-0.85z"/>
			</g>
		</g>
	</g>
</symbol>
<symbol  id="FlashAICB_x5F_0_x2F_jar_2_x2F__x3C_Path_x3E_" viewBox="0 -35.5 29.4 35.5">
	<g id="Layer_1_17_">
		
			<radialGradient id="SVGID_1_" cx="14.7002" cy="-17.75" r="14.1376" gradientTransform="matrix(1 0 0 -1.3077 0 -40.9604)" gradientUnits="userSpaceOnUse">
			<stop  offset="0" style="stop-color:#E8B343;stop-opacity:0.298"/>
			<stop  offset="0.3608" style="stop-color:#E8B445;stop-opacity:0.3137"/>
			<stop  offset="0.5451" style="stop-color:#E9B74C;stop-opacity:0.3725"/>
			<stop  offset="0.6863" style="stop-color:#EABB58;stop-opacity:0.4745"/>
			<stop  offset="0.8078" style="stop-color:#EBC269;stop-opacity:0.6157"/>
			<stop  offset="0.9137" style="stop-color:#EECB80;stop-opacity:0.8"/>
			<stop  offset="1" style="stop-color:#F0D599"/>
		</radialGradient>
		<path style="fill-rule:evenodd;clip-rule:evenodd;fill:url(#SVGID_1_);" d="M29.4-19.25c0-6.167-0.65-10.2-1.95-12.1
			c-1.9-2.767-6.15-4.15-12.75-4.15c-6.6,0-10.85,1.383-12.75,4.15C0.65-29.45,0-25.417,0-19.25C0-6.417,4.9,0,14.7,0
			C24.5,0,29.4-6.417,29.4-19.25z"/>
	</g>
</symbol>
<symbol  id="FlashAICB_x5F_0_x2F_jar_2_x2F__x3C_Path_x3E__x5F_1" viewBox="0.037 -8.318 11.426 8.299">
	<g id="Layer_1_2_">
		<path style="fill-rule:evenodd;clip-rule:evenodd;" d="M0.05-4.6c-0.1,1.133,0.383,2.15,1.45,3.05
			c1.033,0.867,2.35,1.367,3.95,1.5C7.017,0.083,8.4-0.217,9.6-0.95c1.167-0.7,1.783-1.617,1.85-2.75
			c0.1-1.133-0.383-2.15-1.45-3.05S7.617-8.167,6.05-8.3c-1.566-0.1-2.933,0.216-4.1,0.95C0.75-6.65,0.117-5.733,0.05-4.6z"/>
	</g>
</symbol>
<symbol  id="FlashAICB_x5F_0_x2F_jar_2_x2F__x3C_Path_x3E__x5F_1_x5F_0" viewBox="-0.006 -8.281 11.462 8.299">
	<g id="Layer_1_5_">
		<path style="fill-rule:evenodd;clip-rule:evenodd;" d="M0-4.55c-0.067,1.133,0.417,2.133,1.45,3C2.517-0.65,3.833-0.133,5.4,0
			c1.567,0.1,2.95-0.217,4.15-0.95c1.167-0.7,1.8-1.617,1.9-2.75c0.066-1.133-0.417-2.15-1.45-3.05
			c-1.067-0.867-2.383-1.367-3.95-1.5C4.483-8.383,3.1-8.083,1.9-7.35C0.733-6.65,0.1-5.717,0-4.55z"/>
	</g>
</symbol>
<symbol  id="FlashAICB_x5F_0_x2F_jar_2_x2F__x3C_Path_x3E__x5F_1_x5F_1" viewBox="-0.006 -8.281 11.462 8.312">
	<g id="Layer_1_8_">
		<path style="fill-rule:evenodd;clip-rule:evenodd;" d="M0-4.55c-0.067,1.133,0.417,2.133,1.45,3C2.517-0.65,3.833-0.133,5.4,0
			c1.567,0.133,2.95-0.167,4.15-0.9c1.167-0.733,1.8-1.667,1.9-2.8c0.066-1.133-0.417-2.15-1.45-3.05
			c-1.067-0.867-2.383-1.367-3.95-1.5c-1.6-0.133-2.983,0.167-4.15,0.9C0.7-6.65,0.067-5.717,0-4.55z"/>
	</g>
</symbol>
<symbol  id="FlashAICB_x5F_0_x2F_jar_2_x2F__x3C_Path_x3E__x5F_1_x5F_2" viewBox="-0.021 -9.193 12.691 9.173">
	<g id="Layer_1_11_">
		<path style="fill-rule:evenodd;clip-rule:evenodd;" d="M1.55-7.45C0.383-6.417-0.133-5.283,0-4.05C0.1-2.783,0.817-1.767,2.15-1
			c1.3,0.767,2.833,1.083,4.6,0.95C8.483-0.217,9.933-0.8,11.1-1.8c1.167-0.967,1.683-2.083,1.55-3.35
			c-0.1-1.267-0.816-2.283-2.15-3.05C9.2-9,7.667-9.317,5.9-9.15C4.167-9.017,2.717-8.45,1.55-7.45z"/>
	</g>
</symbol>
<symbol  id="FlashAICB_x5F_0_x2F_jar_2_x2F__x3C_Path_x3E__x5F_1_x5F_3" viewBox="0.002 -6.438 8.417 6.451">
	<g id="Layer_1_14_">
		<path style="fill-rule:evenodd;clip-rule:evenodd;" d="M0.1-4.5C-0.133-3.667,0.05-2.833,0.65-2C1.283-1.2,2.167-0.617,3.3-0.25
			C4.433,0.083,5.483,0.1,6.45-0.2c1-0.333,1.617-0.917,1.85-1.75c0.267-0.8,0.083-1.617-0.55-2.45
			C7.117-5.233,6.233-5.817,5.1-6.15C3.967-6.517,2.917-6.533,1.95-6.2C0.983-5.867,0.367-5.3,0.1-4.5z"/>
	</g>
</symbol>
<symbol  id="FlashAICB_x5F_0_x2F_jar_2_x2F__x3C_Path_x3E__x5F_3" viewBox="-0.006 -8.281 11.462 8.262">
	<g id="Layer_1_4_">
		
			<radialGradient id="SVGID_2_" cx="5.75" cy="-4.1499" r="4.9875" gradientTransform="matrix(1 0 0 -1 0 -8.2998)" gradientUnits="userSpaceOnUse">
			<stop  offset="0" style="stop-color:#9D8145;stop-opacity:0.298"/>
			<stop  offset="0.4039" style="stop-color:#9E8247;stop-opacity:0.3255"/>
			<stop  offset="0.6078" style="stop-color:#9E854E;stop-opacity:0.4118"/>
			<stop  offset="0.7686" style="stop-color:#A08A5B;stop-opacity:0.5647"/>
			<stop  offset="0.902" style="stop-color:#A1916D;stop-opacity:0.7765"/>
			<stop  offset="1" style="stop-color:#A39880"/>
		</radialGradient>
		<path style="fill-rule:evenodd;clip-rule:evenodd;fill:url(#SVGID_2_);" d="M0-4.6c-0.067,1.133,0.417,2.15,1.45,3.05
			c1.066,0.867,2.383,1.367,3.95,1.5C7,0.083,8.383-0.217,9.55-0.95c1.2-0.7,1.833-1.617,1.9-2.75
			c0.066-1.167-0.417-2.183-1.45-3.05c-1.067-0.9-2.383-1.4-3.95-1.5C4.483-8.383,3.1-8.083,1.9-7.35C0.733-6.65,0.1-5.733,0-4.6z"
			/>
	</g>
</symbol>
<symbol  id="FlashAICB_x5F_0_x2F_jar_2_x2F__x3C_Path_x3E__x5F_3_x5F_0" viewBox="-0.013 -8.281 11.469 8.3">
	<g id="Layer_1_7_">
		
			<radialGradient id="SVGID_3_" cx="5.7002" cy="-4.1499" r="4.9875" gradientTransform="matrix(1 0 0 -1 0 -8.2998)" gradientUnits="userSpaceOnUse">
			<stop  offset="0" style="stop-color:#9D8145;stop-opacity:0.298"/>
			<stop  offset="0.4039" style="stop-color:#9E8247;stop-opacity:0.3255"/>
			<stop  offset="0.6078" style="stop-color:#9E854E;stop-opacity:0.4118"/>
			<stop  offset="0.7686" style="stop-color:#A08A5B;stop-opacity:0.5647"/>
			<stop  offset="0.902" style="stop-color:#A1916D;stop-opacity:0.7765"/>
			<stop  offset="1" style="stop-color:#A39880"/>
		</radialGradient>
		<path style="fill-rule:evenodd;clip-rule:evenodd;fill:url(#SVGID_3_);" d="M0-4.55c-0.1,1.133,0.383,2.133,1.45,3
			C2.517-0.65,3.833-0.133,5.4,0C7,0.1,8.383-0.2,9.55-0.9c1.167-0.733,1.8-1.667,1.9-2.8c0.066-1.133-0.417-2.15-1.45-3.05
			c-1.067-0.867-2.4-1.367-4-1.5c-1.567-0.133-2.933,0.167-4.1,0.9C0.7-6.617,0.067-5.683,0-4.55z"/>
	</g>
</symbol>
<symbol  id="FlashAICB_x5F_0_x2F_jar_2_x2F__x3C_Path_x3E__x5F_3_x5F_1" viewBox="0.037 -8.281 11.426 8.312">
	<g id="Layer_1_10_">
		
			<radialGradient id="SVGID_4_" cx="5.75" cy="-4.1001" r="4.9875" gradientTransform="matrix(1 0 0 -1 0 -8.2002)" gradientUnits="userSpaceOnUse">
			<stop  offset="0" style="stop-color:#9D8145;stop-opacity:0.298"/>
			<stop  offset="0.4039" style="stop-color:#9E8247;stop-opacity:0.3255"/>
			<stop  offset="0.6078" style="stop-color:#9E854E;stop-opacity:0.4118"/>
			<stop  offset="0.7686" style="stop-color:#A08A5B;stop-opacity:0.5647"/>
			<stop  offset="0.902" style="stop-color:#A1916D;stop-opacity:0.7765"/>
			<stop  offset="1" style="stop-color:#A39880"/>
		</radialGradient>
		<path style="fill-rule:evenodd;clip-rule:evenodd;fill:url(#SVGID_4_);" d="M0.05-4.55c-0.1,1.133,0.383,2.133,1.45,3
			C2.567-0.65,3.883-0.133,5.45,0C7.017,0.133,8.4-0.167,9.6-0.9c1.167-0.733,1.783-1.667,1.85-2.8c0.1-1.133-0.383-2.15-1.45-3.05
			c-1.067-0.867-2.383-1.367-3.95-1.5c-1.566-0.133-2.933,0.167-4.1,0.9C0.75-6.617,0.117-5.683,0.05-4.55z"/>
	</g>
</symbol>
<symbol  id="FlashAICB_x5F_0_x2F_jar_2_x2F__x3C_Path_x3E__x5F_3_x5F_2" viewBox="-0.012 -9.193 12.724 9.223">
	<g id="Layer_1_13_">
		
			<radialGradient id="SVGID_5_" cx="-1230.3516" cy="-1465.9326" r="5.5234" gradientTransform="matrix(0.9863 -0.1651 -0.1651 -0.9863 977.7422 -1653.5293)" gradientUnits="userSpaceOnUse">
			<stop  offset="0" style="stop-color:#9D8145;stop-opacity:0.298"/>
			<stop  offset="0.4039" style="stop-color:#9E8247;stop-opacity:0.3255"/>
			<stop  offset="0.6078" style="stop-color:#9E854E;stop-opacity:0.4118"/>
			<stop  offset="0.7686" style="stop-color:#A08A5B;stop-opacity:0.5647"/>
			<stop  offset="0.902" style="stop-color:#A1916D;stop-opacity:0.7765"/>
			<stop  offset="1" style="stop-color:#A39880"/>
		</radialGradient>
		<path style="fill-rule:evenodd;clip-rule:evenodd;fill:url(#SVGID_5_);" d="M1.6-7.4C0.433-6.4-0.1-5.267,0-4
			c0.133,1.267,0.85,2.283,2.15,3.05C3.483-0.183,5.017,0.133,6.75,0c1.767-0.167,3.217-0.75,4.35-1.75c1.167-1,1.7-2.133,1.6-3.4
			c-0.133-1.267-0.85-2.283-2.15-3.05C9.217-9,7.683-9.317,5.95-9.15C4.217-8.983,2.767-8.4,1.6-7.4z"/>
	</g>
</symbol>
<symbol  id="FlashAICB_x5F_0_x2F_jar_2_x2F__x3C_Path_x3E__x5F_3_x5F_3" viewBox="0.002 -6.438 8.417 6.451">
	<g id="Layer_1_16_">
		
			<radialGradient id="SVGID_6_" cx="2006.4551" cy="1597.5986" r="3.7399" gradientTransform="matrix(0.9754 0.2205 0.2205 -0.9754 -2305.1016 1112.7285)" gradientUnits="userSpaceOnUse">
			<stop  offset="0" style="stop-color:#9D8145;stop-opacity:0.298"/>
			<stop  offset="0.4039" style="stop-color:#9E8247;stop-opacity:0.3255"/>
			<stop  offset="0.6078" style="stop-color:#9E854E;stop-opacity:0.4118"/>
			<stop  offset="0.7686" style="stop-color:#A08A5B;stop-opacity:0.5647"/>
			<stop  offset="0.902" style="stop-color:#A1916D;stop-opacity:0.7765"/>
			<stop  offset="1" style="stop-color:#A39880"/>
		</radialGradient>
		<path style="fill-rule:evenodd;clip-rule:evenodd;fill:url(#SVGID_6_);" d="M0.1-4.5C-0.133-3.667,0.05-2.833,0.65-2
			C1.283-1.2,2.167-0.617,3.3-0.25C4.433,0.083,5.483,0.1,6.45-0.2c1-0.333,1.617-0.917,1.85-1.75c0.267-0.8,0.083-1.617-0.55-2.45
			C7.117-5.233,6.233-5.817,5.1-6.15C3.967-6.517,2.917-6.533,1.95-6.2C0.983-5.867,0.367-5.3,0.1-4.5z"/>
	</g>
</symbol>
<g>
	<g>
		<g>
			<path style="fill-rule:evenodd;clip-rule:evenodd;fill:#7E5C53;" d="M8.4,23l0.35,4.25L9.6,27.2c0.3-0.033,0.533-0.184,0.7-0.45
				c0.2-0.3,0.284-0.65,0.25-1.05l-0.1-1.45c-0.034-0.366-0.167-0.684-0.4-0.95s-0.483-0.383-0.75-0.35L8.4,23z M5.35,23.1
				c0.233-0.366,0.533-0.566,0.9-0.6l1.05-0.05L7,18.5c-0.066-0.467,0.1-0.7,0.5-0.7c0.133-0.033,0.25,0.017,0.35,0.15
				c0.133,0.133,0.2,0.283,0.2,0.45l0.3,3.95l1.3-0.1c0.367-0.033,0.7,0.116,1,0.45c0.267,0.333,0.417,0.767,0.45,1.3l0.15,1.85
				c0.066,0.534-0.033,0.983-0.3,1.351c-0.233,0.366-0.534,0.566-0.9,0.6l-1.6,0.15L8.25,28l-0.2-0.05l-1.35,0.1
				c-0.367,0.033-0.7-0.116-1-0.45c-0.267-0.333-0.434-0.767-0.5-1.3l-0.15-1.85C5.017,23.95,5.117,23.5,5.35,23.1z M6.7,23.1
				c-0.267,0.034-0.5,0.2-0.7,0.5c-0.167,0.301-0.233,0.634-0.2,1l0.1,1.45c0.034,0.4,0.15,0.733,0.35,1
				c0.233,0.267,0.5,0.384,0.8,0.351l0.6-0.051l-0.3-4.3L6.7,23.1z"/>
			
				<use xlink:href="#FlashAICB_x5F_0_x2F_jar_2_x2F__x3C_Path_x3E__x5F_1"  width="11.426" height="8.299" x="0.037" y="-8.318" transform="matrix(1 0 0 -1 2.6499 24.3496)" style="overflow:visible;opacity:0.5;enable-background:new    ;"/>
			<path style="fill-rule:evenodd;clip-rule:evenodd;fill:#576359;" d="M14.1,27.85c0.066,1.167-0.417,2.184-1.45,3.051
				C11.583,31.8,10.267,32.3,8.7,32.4c-1.567,0.133-2.95-0.167-4.15-0.9c-1.167-0.7-1.8-1.616-1.9-2.75
				C2.583,27.616,3.066,26.6,4.1,25.7c1.066-0.867,2.383-1.367,3.95-1.5c1.6-0.134,2.983,0.166,4.15,0.899
				C13.4,25.8,14.033,26.717,14.1,27.85z"/>
			
				<use xlink:href="#FlashAICB_x5F_0_x2F_jar_2_x2F__x3C_Group_x3E__x5F_1"  width="9.908" height="7.113" y="-7.113" transform="matrix(1 0 0 -1 3.2998 25.0996)" style="overflow:visible;opacity:0.5;enable-background:new    ;"/>
			<g>
				<g>
					<path style="fill-rule:evenodd;clip-rule:evenodd;fill:#7D8C76;" d="M11.55,28.5c-0.033-0.233,0.034-0.434,0.2-0.6
						c0.133-0.167,0.316-0.267,0.55-0.301c0.534-0.066,0.833,0.2,0.9,0.801c0.033,0.233-0.034,0.433-0.2,0.6
						c-0.133,0.2-0.316,0.3-0.55,0.3c-0.233,0.033-0.434-0.033-0.6-0.2C11.684,28.967,11.583,28.767,11.55,28.5z"/>
					<path style="fill-rule:evenodd;clip-rule:evenodd;fill:#848C6E;" d="M11.9,28.5c-0.066-0.366,0.083-0.55,0.45-0.55
						c0.133-0.033,0.25,0,0.35,0.1c0.1,0.101,0.15,0.217,0.15,0.351c0.066,0.366-0.083,0.55-0.45,0.55
						C12.066,29.017,11.9,28.866,11.9,28.5z"/>
				</g>
				<g>
					<path style="fill-rule:evenodd;clip-rule:evenodd;fill:#7D8C76;" d="M6.05,27.45c0-0.601,0.25-0.9,0.75-0.9
						c0.534-0.066,0.833,0.2,0.9,0.8c0.033,0.233-0.034,0.434-0.2,0.601c-0.133,0.2-0.316,0.3-0.55,0.3
						C6.417,28.316,6.117,28.05,6.05,27.45z"/>
					<path style="fill-rule:evenodd;clip-rule:evenodd;fill:#848C6E;" d="M6.4,27.45c0-0.367,0.15-0.55,0.45-0.55
						c0.3-0.067,0.483,0.083,0.55,0.449c0,0.367-0.15,0.551-0.45,0.551C6.583,27.967,6.4,27.816,6.4,27.45z"/>
				</g>
				<g>
					<path style="fill-rule:evenodd;clip-rule:evenodd;fill:#7D8C76;" d="M11.6,30.15c0,0.466-0.184,0.699-0.55,0.699
						c-0.4,0.067-0.633-0.133-0.7-0.6c0-0.4,0.2-0.634,0.6-0.7C11.316,29.55,11.533,29.75,11.6,30.15z"/>
					<path style="fill-rule:evenodd;clip-rule:evenodd;fill:#848C6E;" d="M11.35,30.2c0,0.267-0.117,0.399-0.35,0.399
						c-0.2,0-0.333-0.116-0.4-0.35c0-0.233,0.117-0.384,0.35-0.45C11.217,29.8,11.35,29.934,11.35,30.2z"/>
				</g>
				<g>
					<path style="fill-rule:evenodd;clip-rule:evenodd;fill:#7D8C76;" d="M9.3,27.65c-0.066-0.4,0.117-0.634,0.55-0.7
						c0.4,0,0.633,0.2,0.7,0.6c0,0.4-0.2,0.634-0.6,0.7C9.583,28.316,9.367,28.116,9.3,27.65z"/>
					<path style="fill-rule:evenodd;clip-rule:evenodd;fill:#848C6E;" d="M9.55,27.65c0-0.233,0.117-0.384,0.35-0.45
						c0.2,0,0.333,0.116,0.4,0.35c0,0.3-0.116,0.45-0.35,0.45C9.684,28,9.55,27.884,9.55,27.65z"/>
				</g>
				<g>
					<path style="fill-rule:evenodd;clip-rule:evenodd;fill:#7D8C76;" d="M7.75,29.3c0-0.467,0.2-0.7,0.6-0.7
						c0.167-0.033,0.316,0.017,0.45,0.15C8.934,28.884,9,29.033,9,29.2c0.066,0.399-0.117,0.633-0.55,0.7
						C8.05,29.9,7.816,29.7,7.75,29.3z"/>
					<path style="fill-rule:evenodd;clip-rule:evenodd;fill:#848C6E;" d="M8,29.25c0-0.267,0.117-0.4,0.35-0.4
						c0.267,0,0.4,0.117,0.4,0.351c0.033,0.1,0,0.2-0.1,0.3c-0.066,0.066-0.15,0.1-0.25,0.1C8.2,29.667,8.066,29.55,8,29.25z"/>
				</g>
				<g>
					<path style="fill-rule:evenodd;clip-rule:evenodd;fill:#7D8C76;" d="M3.45,27.95c0-0.4,0.2-0.634,0.6-0.7
						c0.367,0,0.583,0.2,0.65,0.6c0.033,0.2-0.017,0.367-0.15,0.5c-0.1,0.134-0.233,0.2-0.4,0.2
						C3.75,28.616,3.517,28.417,3.45,27.95z"/>
					<path style="fill-rule:evenodd;clip-rule:evenodd;fill:#848C6E;" d="M3.7,27.95c0-0.267,0.116-0.4,0.35-0.4
						c0.267-0.066,0.4,0.05,0.4,0.351c0,0.267-0.117,0.399-0.35,0.399C3.9,28.3,3.767,28.184,3.7,27.95z"/>
				</g>
				<g>
					<path style="fill-rule:evenodd;clip-rule:evenodd;fill:#7D8C76;" d="M7.25,31.4C7.184,31,7.367,30.767,7.8,30.7
						c0.434,0,0.65,0.2,0.65,0.6c0.033,0.167,0,0.334-0.1,0.5C8.217,31.934,8.066,32,7.9,32c-0.167,0.033-0.316-0.017-0.45-0.15
						C7.316,31.717,7.25,31.566,7.25,31.4z"/>
					<path style="fill-rule:evenodd;clip-rule:evenodd;fill:#848C6E;" d="M7.5,31.4c-0.033-0.233,0.066-0.384,0.3-0.45
						c0.267,0,0.4,0.133,0.4,0.399c0.066,0.267-0.034,0.4-0.3,0.4S7.5,31.634,7.5,31.4z"/>
				</g>
				<g>
					<path style="fill-rule:evenodd;clip-rule:evenodd;fill:#7D8C76;" d="M6.2,29.9C6.267,30.366,6.083,30.6,5.65,30.6
						c-0.167,0.034-0.316-0.017-0.45-0.149C5.066,30.316,5,30.167,5,30c-0.066-0.4,0.117-0.634,0.55-0.7
						C5.983,29.3,6.2,29.5,6.2,29.9z"/>
					<path style="fill-rule:evenodd;clip-rule:evenodd;fill:#848C6E;" d="M5.95,29.95c0.066,0.267-0.034,0.399-0.3,0.399
						s-0.4-0.116-0.4-0.35c-0.066-0.267,0.033-0.4,0.3-0.4C5.816,29.533,5.95,29.65,5.95,29.95z"/>
				</g>
				<g>
					<path style="fill-rule:evenodd;clip-rule:evenodd;fill:#7D8C76;" d="M3.3,29.4c-0.066-0.301,0.05-0.45,0.35-0.45
						c0.3,0,0.45,0.133,0.45,0.399c0.066,0.301-0.05,0.45-0.35,0.45S3.3,29.667,3.3,29.4z"/>
					<path style="fill-rule:evenodd;clip-rule:evenodd;fill:#848C6E;" d="M3.45,29.4c0-0.134,0.083-0.233,0.25-0.301
						c0.167,0,0.25,0.084,0.25,0.25c0,0.134-0.083,0.233-0.25,0.301C3.533,29.65,3.45,29.566,3.45,29.4z"/>
				</g>
				<g>
					<path style="fill-rule:evenodd;clip-rule:evenodd;fill:#7D8C76;" d="M12.8,30.05c0,0.233-0.133,0.384-0.4,0.45
						c-0.233,0-0.383-0.134-0.45-0.4c0-0.3,0.133-0.449,0.4-0.449C12.583,29.583,12.733,29.717,12.8,30.05z"/>
					<path style="fill-rule:evenodd;clip-rule:evenodd;fill:#848C6E;" d="M12.6,30.05c0.066,0.167,0,0.25-0.2,0.25
						c-0.1,0.033-0.2-0.033-0.3-0.2c0-0.199,0.083-0.3,0.25-0.3S12.6,29.884,12.6,30.05z"/>
				</g>
				<g>
					<path style="fill-rule:evenodd;clip-rule:evenodd;fill:#7D8C76;" d="M10.85,26.05c-0.067-0.399,0.117-0.633,0.55-0.7
						c0.434,0,0.65,0.2,0.65,0.601c0.034,0.166,0,0.333-0.1,0.5c-0.134,0.133-0.284,0.2-0.45,0.2
						c-0.167,0.033-0.316-0.017-0.45-0.15C10.917,26.366,10.85,26.217,10.85,26.05z"/>
					<path style="fill-rule:evenodd;clip-rule:evenodd;fill:#848C6E;" d="M11.05,26.05c0-0.233,0.117-0.383,0.35-0.45
						c0.267,0,0.4,0.134,0.4,0.4c0.067,0.267-0.05,0.4-0.35,0.4C11.25,26.4,11.117,26.283,11.05,26.05z"/>
				</g>
				<g>
					<path style="fill-rule:evenodd;clip-rule:evenodd;fill:#7D8C76;" d="M7.15,25.6c0-0.399,0.2-0.633,0.6-0.699
						c0.367,0,0.583,0.199,0.65,0.6c0,0.4-0.183,0.634-0.55,0.7C7.45,26.267,7.217,26.066,7.15,25.6z"/>
					<path style="fill-rule:evenodd;clip-rule:evenodd;fill:#848C6E;" d="M7.4,25.6c0-0.233,0.117-0.383,0.35-0.449
						c0.267,0,0.4,0.133,0.4,0.399s-0.117,0.4-0.35,0.4C7.6,25.95,7.467,25.833,7.4,25.6z"/>
				</g>
			</g>
		</g>
		
			<use xlink:href="#FlashAICB_x5F_0_x2F_jar_2_x2F__x3C_Path_x3E__x5F_3"  width="11.462" height="8.262" x="-0.006" y="-8.281" transform="matrix(1 0 0 -1 2.6499 24.1504)" style="overflow:visible;opacity:0.5;enable-background:new    ;"/>
		<path style="fill-rule:evenodd;clip-rule:evenodd;" d="M7.4,27.65c0,0.199-0.533,0.3-1.6,0.3c-1.066,0-1.6-0.101-1.6-0.3
			c0-0.2,0.533-0.301,1.6-0.301C6.867,27.35,7.4,27.45,7.4,27.65z"/>
		<path style="fill-rule:evenodd;clip-rule:evenodd;" d="M12.95,27.65c0,0.199-0.534,0.3-1.6,0.3c-1.067,0-1.6-0.101-1.6-0.3
			c0-0.2,0.533-0.301,1.6-0.301C12.417,27.35,12.95,27.45,12.95,27.65z"/>
		<path style="fill-rule:evenodd;clip-rule:evenodd;" d="M11.35,29.55c0,0.233-0.95,0.351-2.85,0.351c-1.867,0-2.8-0.117-2.8-0.351
			c0-0.2,0.933-0.3,2.8-0.3C10.4,29.25,11.35,29.35,11.35,29.55z"/>
	</g>
	<g>
		<g>
			<path style="fill-rule:evenodd;clip-rule:evenodd;fill:#7E5C53;" d="M23.45,22.2c-0.033-0.4-0.15-0.733-0.351-1
				c-0.233-0.267-0.5-0.384-0.8-0.351L21.45,20.9l0.3,4.3l0.9-0.101c0.267,0,0.5-0.149,0.699-0.449c0.2-0.301,0.267-0.634,0.2-1
				L23.45,22.2z M19.75,21.05c-0.3,0.033-0.533,0.184-0.7,0.45c-0.2,0.3-0.283,0.65-0.25,1.05L18.9,24
				c0.066,0.366,0.199,0.684,0.399,0.95c0.233,0.267,0.483,0.383,0.75,0.35l0.65-0.05L20.35,21L19.75,21.05z M20,16.45
				c0-0.434,0.167-0.684,0.5-0.75c0.333,0,0.533,0.216,0.6,0.65l0.301,3.9l1.25-0.05c0.366-0.033,0.699,0.116,1,0.45
				c0.3,0.333,0.466,0.75,0.5,1.25L24.3,23.8c0.033,0.5-0.066,0.95-0.3,1.351c-0.233,0.366-0.533,0.566-0.9,0.6l-1.649,0.1
				L21.3,25.9h-0.2L19.7,26c-0.367,0.033-0.684-0.134-0.95-0.5c-0.3-0.333-0.467-0.75-0.5-1.25L18.1,22.4
				c-0.033-0.534,0.067-0.983,0.301-1.351c0.233-0.366,0.533-0.566,0.899-0.6l1-0.101L20,16.45z"/>
			
				<use xlink:href="#FlashAICB_x5F_0_x2F_jar_2_x2F__x3C_Path_x3E__x5F_1_x5F_0"  width="11.462" height="8.299" x="-0.006" y="-8.281" transform="matrix(1 0 0 -1 15.7002 22.2998)" style="overflow:visible;opacity:0.5;enable-background:new    ;"/>
			<path style="fill-rule:evenodd;clip-rule:evenodd;fill:#576359;" d="M25.7,28.85c-1.066,0.867-2.4,1.367-4,1.5
				c-1.566,0.134-2.934-0.166-4.101-0.899c-1.199-0.733-1.833-1.667-1.899-2.8c-0.101-1.134,0.383-2.134,1.45-3
				c1.066-0.9,2.383-1.417,3.949-1.551c1.601-0.1,2.983,0.2,4.15,0.9c1.167,0.733,1.8,1.667,1.9,2.8
				C27.217,26.934,26.733,27.95,25.7,28.85z"/>
			
				<use xlink:href="#FlashAICB_x5F_0_x2F_jar_2_x2F__x3C_Group_x3E__x5F_1_x5F_0"  width="9.918" height="7.113" x="-0.018" y="-7.1" transform="matrix(1 0 0 -1 16.3496 23.0498)" style="overflow:visible;opacity:0.5;enable-background:new    ;"/>
			<g>
				<g>
					<path style="fill-rule:evenodd;clip-rule:evenodd;fill:#7D8C76;" d="M24.6,26.45c-0.066-0.566,0.184-0.884,0.75-0.95
						c0.233,0,0.434,0.083,0.601,0.25c0.166,0.134,0.25,0.316,0.25,0.55c0.066,0.566-0.184,0.884-0.75,0.95
						c-0.233,0.033-0.434-0.033-0.601-0.2C24.684,26.884,24.6,26.684,24.6,26.45z"/>
					<path style="fill-rule:evenodd;clip-rule:evenodd;fill:#848C6E;" d="M24.9,26.4c0-0.301,0.149-0.483,0.449-0.551
						c0.301,0,0.483,0.167,0.551,0.5c0,0.367-0.15,0.551-0.45,0.551S24.967,26.733,24.9,26.4z"/>
				</g>
				<g>
					<path style="fill-rule:evenodd;clip-rule:evenodd;fill:#7D8C76;" d="M19.1,25.4c-0.033-0.233,0.034-0.45,0.2-0.65
						c0.134-0.167,0.316-0.267,0.55-0.3c0.534,0,0.834,0.267,0.9,0.8c0,0.566-0.25,0.884-0.75,0.95
						C19.467,26.2,19.167,25.934,19.1,25.4z"/>
					<path style="fill-rule:evenodd;clip-rule:evenodd;fill:#848C6E;" d="M19.45,25.35c-0.066-0.3,0.083-0.483,0.45-0.55
						c0.333,0,0.5,0.167,0.5,0.5c0.066,0.3-0.084,0.483-0.45,0.55C19.616,25.85,19.45,25.684,19.45,25.35z"/>
				</g>
				<g>
					<path style="fill-rule:evenodd;clip-rule:evenodd;fill:#7D8C76;" d="M23.4,28.2c-0.034-0.167,0.017-0.334,0.149-0.5
						c0.101-0.134,0.233-0.2,0.4-0.2c0.166-0.033,0.316,0.017,0.45,0.15c0.133,0.133,0.199,0.283,0.199,0.449
						c0.067,0.4-0.116,0.634-0.55,0.7C23.616,28.8,23.4,28.6,23.4,28.2z"/>
					<path style="fill-rule:evenodd;clip-rule:evenodd;fill:#848C6E;" d="M23.65,28.15c-0.034-0.101,0-0.184,0.1-0.25
						c0.066-0.101,0.15-0.15,0.25-0.15c0.2,0,0.333,0.116,0.4,0.35c0,0.267-0.117,0.4-0.351,0.4
						C23.783,28.566,23.65,28.45,23.65,28.15z"/>
				</g>
				<g>
					<path style="fill-rule:evenodd;clip-rule:evenodd;fill:#7D8C76;" d="M22.35,25.6C22.283,25.134,22.467,24.9,22.9,24.9
						c0.166-0.034,0.316,0.017,0.449,0.149c0.134,0.134,0.2,0.283,0.2,0.45c0.066,0.4-0.116,0.634-0.55,0.7
						C22.566,26.2,22.35,26,22.35,25.6z"/>
					<path style="fill-rule:evenodd;clip-rule:evenodd;fill:#848C6E;" d="M22.6,25.55c-0.066-0.267,0.034-0.399,0.301-0.399
						S23.3,25.267,23.3,25.5c0.066,0.267-0.05,0.4-0.35,0.4C22.717,25.967,22.6,25.85,22.6,25.55z"/>
				</g>
				<g>
					<path style="fill-rule:evenodd;clip-rule:evenodd;fill:#7D8C76;" d="M20.8,27.2c0-0.4,0.184-0.634,0.55-0.7
						c0.4,0,0.634,0.2,0.7,0.6c0,0.467-0.2,0.7-0.6,0.7C21.083,27.866,20.866,27.667,20.8,27.2z"/>
					<path style="fill-rule:evenodd;clip-rule:evenodd;fill:#848C6E;" d="M21.05,27.2c0-0.267,0.117-0.4,0.351-0.4
						c0.199-0.066,0.333,0.05,0.399,0.351c0,0.267-0.116,0.399-0.35,0.399C21.184,27.55,21.05,27.434,21.05,27.2z"/>
				</g>
				<g>
					<path style="fill-rule:evenodd;clip-rule:evenodd;fill:#7D8C76;" d="M16.5,25.9c-0.033-0.167,0.017-0.334,0.15-0.5
						c0.1-0.134,0.233-0.2,0.399-0.2c0.4-0.066,0.634,0.133,0.7,0.6c0,0.4-0.2,0.634-0.6,0.7C16.717,26.5,16.5,26.3,16.5,25.9z"/>
					<path style="fill-rule:evenodd;clip-rule:evenodd;fill:#848C6E;" d="M16.75,25.85c0-0.267,0.116-0.399,0.35-0.399
						c0.2,0,0.334,0.116,0.4,0.35c0,0.233-0.116,0.384-0.35,0.45C16.884,26.25,16.75,26.116,16.75,25.85z"/>
				</g>
				<g>
					<path style="fill-rule:evenodd;clip-rule:evenodd;fill:#7D8C76;" d="M20.25,29.35c0-0.466,0.2-0.699,0.6-0.699
						c0.367-0.067,0.584,0.133,0.65,0.6c0,0.4-0.184,0.634-0.55,0.7C20.55,29.95,20.316,29.75,20.25,29.35z"/>
					<path style="fill-rule:evenodd;clip-rule:evenodd;fill:#848C6E;" d="M20.5,29.3c0-0.267,0.116-0.399,0.35-0.399
						c0.267,0,0.4,0.116,0.4,0.35c0,0.267-0.116,0.4-0.35,0.4C20.7,29.717,20.566,29.6,20.5,29.3z"/>
				</g>
				<g>
					<path style="fill-rule:evenodd;clip-rule:evenodd;fill:#7D8C76;" d="M18,27.95c0-0.4,0.2-0.634,0.6-0.7
						c0.367-0.066,0.584,0.134,0.65,0.6c0,0.4-0.184,0.634-0.55,0.7C18.3,28.55,18.066,28.35,18,27.95z"/>
					<path style="fill-rule:evenodd;clip-rule:evenodd;fill:#848C6E;" d="M18.25,27.9c0-0.267,0.116-0.4,0.35-0.4
						c0.267,0,0.4,0.116,0.4,0.35s-0.116,0.384-0.35,0.45C18.45,28.3,18.316,28.167,18.25,27.9z"/>
				</g>
				<g>
					<path style="fill-rule:evenodd;clip-rule:evenodd;fill:#7D8C76;" d="M16.3,27.35c0-0.267,0.134-0.433,0.4-0.5
						c0.233,0,0.383,0.134,0.45,0.4c0,0.267-0.134,0.434-0.4,0.5C16.517,27.75,16.366,27.616,16.3,27.35z"/>
					<path style="fill-rule:evenodd;clip-rule:evenodd;fill:#848C6E;" d="M16.5,27.3c-0.066-0.166,0-0.25,0.2-0.25
						c0.166,0,0.25,0.084,0.25,0.25c0.066,0.167,0,0.25-0.2,0.25C16.583,27.55,16.5,27.467,16.5,27.3z"/>
				</g>
				<g>
					<path style="fill-rule:evenodd;clip-rule:evenodd;fill:#7D8C76;" d="M25,28c-0.033-0.1,0-0.2,0.1-0.3
						c0.067-0.101,0.15-0.15,0.25-0.15c0.301,0,0.45,0.134,0.45,0.4c0.066,0.3-0.05,0.45-0.35,0.45C25.15,28.467,25,28.333,25,28z"
						/>
					<path style="fill-rule:evenodd;clip-rule:evenodd;fill:#848C6E;" d="M25.15,28c0-0.167,0.083-0.25,0.25-0.25
						c0.033-0.033,0.083-0.017,0.149,0.05c0.066,0.033,0.101,0.084,0.101,0.15c0,0.2-0.084,0.3-0.25,0.3
						C25.233,28.25,25.15,28.167,25.15,28z"/>
				</g>
				<g>
					<path style="fill-rule:evenodd;clip-rule:evenodd;fill:#7D8C76;" d="M23.85,24c0-0.467,0.184-0.7,0.551-0.7
						c0.399-0.066,0.633,0.134,0.699,0.601c0,0.399-0.199,0.633-0.6,0.699C24.134,24.6,23.917,24.4,23.85,24z"/>
					<path style="fill-rule:evenodd;clip-rule:evenodd;fill:#848C6E;" d="M24.1,23.95c0-0.267,0.117-0.4,0.351-0.4
						c0.267,0,0.399,0.117,0.399,0.351s-0.116,0.383-0.35,0.449C24.233,24.35,24.1,24.217,24.1,23.95z"/>
				</g>
				<g>
					<path style="fill-rule:evenodd;clip-rule:evenodd;fill:#7D8C76;" d="M20.2,23.55c-0.066-0.467,0.116-0.7,0.55-0.7
						c0.167-0.033,0.316,0.017,0.45,0.15c0.133,0.134,0.2,0.283,0.2,0.45c0.066,0.399-0.117,0.633-0.551,0.7
						C20.417,24.15,20.2,23.95,20.2,23.55z"/>
					<path style="fill-rule:evenodd;clip-rule:evenodd;fill:#848C6E;" d="M20.45,23.5c-0.066-0.267,0.05-0.4,0.35-0.4
						c0.2,0,0.334,0.117,0.4,0.351c0,0.267-0.117,0.399-0.351,0.399C20.583,23.917,20.45,23.8,20.45,23.5z"/>
				</g>
			</g>
		</g>
		
			<use xlink:href="#FlashAICB_x5F_0_x2F_jar_2_x2F__x3C_Path_x3E__x5F_3_x5F_0"  width="11.469" height="8.3" x="-0.013" y="-8.281" transform="matrix(1 0 0 -1 15.7002 22.0996)" style="overflow:visible;opacity:0.5;enable-background:new    ;"/>
		<path style="fill-rule:evenodd;clip-rule:evenodd;" d="M18.85,25.25c1.067,0,1.601,0.1,1.601,0.3s-0.533,0.3-1.601,0.3
			c-1.066,0-1.6-0.1-1.6-0.3S17.783,25.25,18.85,25.25z"/>
		<path style="fill-rule:evenodd;clip-rule:evenodd;" d="M25.95,25.55c0,0.2-0.533,0.3-1.601,0.3c-1.066,0-1.6-0.1-1.6-0.3
			s0.533-0.3,1.6-0.3C25.417,25.25,25.95,25.35,25.95,25.55z"/>
		<path style="fill-rule:evenodd;clip-rule:evenodd;" d="M24.35,27.5c0,0.2-0.933,0.3-2.8,0.3c-1.866,0-2.8-0.1-2.8-0.3
			s0.934-0.3,2.8-0.3C23.417,27.2,24.35,27.3,24.35,27.5z"/>
	</g>
	<g>
		<g>
			<path style="fill-rule:evenodd;clip-rule:evenodd;fill:#7E5C53;" d="M17.75,25.5c-0.233-0.267-0.5-0.384-0.8-0.35L16.1,25.2
				l0.301,4.25L17.3,29.4c0.3-0.034,0.533-0.184,0.7-0.45c0.167-0.3,0.233-0.65,0.2-1.05L18.1,26.5
				C18.066,26.1,17.95,25.767,17.75,25.5z M13.7,25.8c-0.2,0.3-0.284,0.65-0.25,1.05l0.1,1.4c0.034,0.4,0.167,0.733,0.4,1
				s0.483,0.384,0.75,0.35l0.649-0.05L15,25.3l-0.6,0.05C14.1,25.384,13.867,25.533,13.7,25.8z M14.65,20.7
				c0-0.467,0.167-0.7,0.5-0.7c0.333-0.066,0.533,0.15,0.6,0.65l0.3,3.899l1.25-0.1c0.367-0.033,0.7,0.133,1,0.5
				c0.3,0.333,0.467,0.75,0.5,1.25l0.15,1.899c0.033,0.5-0.066,0.934-0.3,1.301c-0.233,0.366-0.534,0.566-0.9,0.6l-1.65,0.15
				L15.9,30.2l-0.15-0.05l-1.4,0.149c-0.367,0.033-0.7-0.133-1-0.5c-0.267-0.333-0.434-0.75-0.5-1.25l-0.1-1.899
				c-0.033-0.5,0.066-0.934,0.3-1.301c0.233-0.366,0.534-0.583,0.9-0.649l1-0.05L14.65,20.7z"/>
			
				<use xlink:href="#FlashAICB_x5F_0_x2F_jar_2_x2F__x3C_Path_x3E__x5F_1_x5F_1"  width="11.462" height="8.312" x="-0.006" y="-8.281" transform="matrix(1 0 0 -1 10.3501 26.5996)" style="overflow:visible;opacity:0.5;enable-background:new    ;"/>
			<path style="fill-rule:evenodd;clip-rule:evenodd;fill:#576359;" d="M21.75,30.1c0.1,1.134-0.384,2.15-1.45,3.051
				c-1.066,0.866-2.383,1.366-3.95,1.5c-1.566,0.133-2.933-0.167-4.1-0.9c-1.2-0.733-1.833-1.667-1.9-2.8
				c-0.1-1.134,0.383-2.134,1.45-3c1.067-0.9,2.384-1.417,3.95-1.55c1.566-0.134,2.95,0.166,4.15,0.899
				C21.066,28.033,21.684,28.967,21.75,30.1z"/>
			
				<use xlink:href="#FlashAICB_x5F_0_x2F_jar_2_x2F__x3C_Group_x3E__x5F_1_x5F_1"  width="9.918" height="7.075" x="-0.018" y="-7.062" transform="matrix(1 0 0 -1 11 27.3496)" style="overflow:visible;opacity:0.5;enable-background:new    ;"/>
			<g>
				<g>
					<path style="fill-rule:evenodd;clip-rule:evenodd;fill:#7D8C76;" d="M20.6,30c0.167,0.167,0.25,0.366,0.25,0.6
						c0.067,0.567-0.183,0.884-0.75,0.95c-0.533,0-0.833-0.267-0.899-0.8c0-0.566,0.267-0.884,0.8-0.95
						C20.233,29.767,20.434,29.833,20.6,30z"/>
					<path style="fill-rule:evenodd;clip-rule:evenodd;fill:#848C6E;" d="M19.55,30.7c0-0.367,0.15-0.55,0.45-0.55
						s0.483,0.166,0.55,0.5c0,0.3-0.149,0.483-0.45,0.55C19.733,31.2,19.55,31.033,19.55,30.7z"/>
				</g>
				<g>
					<path style="fill-rule:evenodd;clip-rule:evenodd;fill:#7D8C76;" d="M15.4,29.55c0,0.566-0.25,0.884-0.75,0.95
						c-0.533,0-0.833-0.267-0.9-0.8c-0.066-0.566,0.184-0.884,0.75-0.95c0.233-0.033,0.434,0.033,0.6,0.2
						C15.267,29.116,15.366,29.316,15.4,29.55z"/>
					<path style="fill-rule:evenodd;clip-rule:evenodd;fill:#848C6E;" d="M14.05,29.65c0-0.367,0.15-0.551,0.45-0.551
						c0.367,0,0.55,0.167,0.55,0.5c0,0.301-0.15,0.483-0.45,0.551C14.3,30.15,14.117,29.983,14.05,29.65z"/>
				</g>
				<g>
					<path style="fill-rule:evenodd;clip-rule:evenodd;fill:#7D8C76;" d="M18.05,32.45c-0.066-0.434,0.117-0.65,0.55-0.65
						c0.434-0.066,0.65,0.134,0.65,0.601c0.066,0.433-0.116,0.649-0.55,0.649C18.267,33.116,18.05,32.917,18.05,32.45z"/>
					<path style="fill-rule:evenodd;clip-rule:evenodd;fill:#848C6E;" d="M18.3,32.45c-0.066-0.267,0.033-0.4,0.3-0.4
						C18.866,31.983,19,32.1,19,32.4c0.066,0.267-0.033,0.399-0.3,0.399c-0.101,0.033-0.184,0-0.25-0.1
						C18.35,32.634,18.3,32.55,18.3,32.45z"/>
				</g>
				<g>
					<path style="fill-rule:evenodd;clip-rule:evenodd;fill:#7D8C76;" d="M18.2,29.75c0.066,0.467-0.117,0.7-0.55,0.7
						c-0.4,0.066-0.634-0.134-0.7-0.601c0-0.399,0.2-0.633,0.6-0.699C17.917,29.15,18.134,29.35,18.2,29.75z"/>
					<path style="fill-rule:evenodd;clip-rule:evenodd;fill:#848C6E;" d="M17.2,29.85c0-0.267,0.116-0.399,0.35-0.399
						c0.267-0.066,0.4,0.05,0.4,0.35c0,0.267-0.117,0.4-0.351,0.4C17.4,30.2,17.267,30.083,17.2,29.85z"/>
				</g>
				<g>
					<path style="fill-rule:evenodd;clip-rule:evenodd;fill:#7D8C76;" d="M15.45,31.5c-0.066-0.4,0.116-0.634,0.55-0.7
						c0.4,0,0.634,0.2,0.7,0.601c0,0.399-0.2,0.633-0.601,0.699C15.667,32.1,15.45,31.9,15.45,31.5z"/>
					<path style="fill-rule:evenodd;clip-rule:evenodd;fill:#848C6E;" d="M15.7,31.5c0-0.233,0.116-0.384,0.35-0.45
						c0.2,0,0.334,0.117,0.4,0.351c0,0.233-0.117,0.383-0.351,0.449C15.833,31.85,15.7,31.733,15.7,31.5z"/>
				</g>
				<g>
					<path style="fill-rule:evenodd;clip-rule:evenodd;fill:#7D8C76;" d="M12.35,30.1c0.066,0.4-0.117,0.634-0.55,0.7
						c-0.433,0-0.65-0.2-0.65-0.6c-0.066-0.467,0.117-0.7,0.55-0.7c0.167-0.033,0.316,0.017,0.45,0.15
						C12.283,29.783,12.35,29.934,12.35,30.1z"/>
					<path style="fill-rule:evenodd;clip-rule:evenodd;fill:#848C6E;" d="M12.1,30.1c0.066,0.267-0.034,0.4-0.3,0.4
						c-0.267,0.066-0.4-0.05-0.4-0.35c-0.066-0.267,0.034-0.4,0.3-0.4S12.1,29.866,12.1,30.1z"/>
				</g>
				<g>
					<path style="fill-rule:evenodd;clip-rule:evenodd;fill:#7D8C76;" d="M14.9,33.6c0-0.433,0.183-0.649,0.55-0.649
						c0.399-0.066,0.633,0.133,0.7,0.6c0,0.434-0.2,0.65-0.601,0.65C15.184,34.267,14.967,34.066,14.9,33.6z"/>
					<path style="fill-rule:evenodd;clip-rule:evenodd;fill:#848C6E;" d="M15.15,33.6c0-0.267,0.116-0.399,0.35-0.399
						c0.2-0.033,0.333,0.083,0.4,0.35c0,0.267-0.117,0.4-0.351,0.4C15.283,34.017,15.15,33.9,15.15,33.6z"/>
				</g>
				<g>
					<path style="fill-rule:evenodd;clip-rule:evenodd;fill:#7D8C76;" d="M12.65,32.25c0-0.467,0.184-0.7,0.55-0.7
						c0.4-0.066,0.633,0.134,0.7,0.601c0,0.399-0.2,0.633-0.6,0.699C12.934,32.85,12.717,32.65,12.65,32.25z"/>
					<path style="fill-rule:evenodd;clip-rule:evenodd;fill:#848C6E;" d="M12.9,32.2c0-0.267,0.117-0.4,0.35-0.4
						c0.2,0,0.333,0.117,0.4,0.351c0,0.267-0.117,0.399-0.35,0.399C13.033,32.616,12.9,32.5,12.9,32.2z"/>
				</g>
				<g>
					<path style="fill-rule:evenodd;clip-rule:evenodd;fill:#7D8C76;" d="M10.95,31.6c0-0.233,0.133-0.383,0.4-0.449
						c0.233,0,0.383,0.133,0.45,0.399c0,0.3-0.133,0.45-0.4,0.45C11.167,32.066,11.017,31.934,10.95,31.6z"/>
					<path style="fill-rule:evenodd;clip-rule:evenodd;fill:#848C6E;" d="M11.1,31.6c0-0.166,0.083-0.25,0.25-0.25
						c0.167-0.066,0.25,0,0.25,0.2c0.066,0.2,0,0.3-0.2,0.3C11.267,31.85,11.167,31.767,11.1,31.6z"/>
				</g>
				<g>
					<path style="fill-rule:evenodd;clip-rule:evenodd;fill:#7D8C76;" d="M19.65,32.3C19.583,32,19.7,31.85,20,31.85
						s0.45,0.134,0.45,0.4c0,0.3-0.134,0.45-0.4,0.45S19.65,32.566,19.65,32.3z"/>
					<path style="fill-rule:evenodd;clip-rule:evenodd;fill:#848C6E;" d="M19.8,32.3c0-0.133,0.066-0.233,0.2-0.3
						c0.2,0,0.3,0.083,0.3,0.25c0,0.134-0.083,0.233-0.25,0.3C19.884,32.55,19.8,32.467,19.8,32.3z"/>
				</g>
				<g>
					<path style="fill-rule:evenodd;clip-rule:evenodd;fill:#7D8C76;" d="M19.15,28.85c-0.367,0.067-0.584-0.133-0.65-0.6
						c-0.033-0.167,0.017-0.316,0.15-0.45c0.1-0.133,0.233-0.2,0.399-0.2c0.4-0.066,0.634,0.134,0.7,0.601
						C19.75,28.634,19.55,28.85,19.15,28.85z"/>
					<path style="fill-rule:evenodd;clip-rule:evenodd;fill:#848C6E;" d="M19.15,28.6c-0.267,0.067-0.4-0.05-0.4-0.35
						c0-0.267,0.116-0.4,0.35-0.4c0.2-0.033,0.334,0.084,0.4,0.351C19.5,28.467,19.384,28.6,19.15,28.6z"/>
				</g>
				<g>
					<path style="fill-rule:evenodd;clip-rule:evenodd;fill:#7D8C76;" d="M14.85,27.8c-0.067-0.399,0.117-0.633,0.55-0.7
						c0.433,0,0.649,0.2,0.649,0.601c0.066,0.467-0.116,0.7-0.55,0.7c-0.167,0.033-0.316-0.017-0.45-0.15
						C14.917,28.116,14.85,27.967,14.85,27.8z"/>
					<path style="fill-rule:evenodd;clip-rule:evenodd;fill:#848C6E;" d="M15.1,27.8C15.033,27.533,15.134,27.4,15.4,27.4
						c0.267-0.067,0.399,0.05,0.399,0.35c0.066,0.267-0.033,0.4-0.3,0.4S15.1,28.033,15.1,27.8z"/>
				</g>
			</g>
		</g>
		
			<use xlink:href="#FlashAICB_x5F_0_x2F_jar_2_x2F__x3C_Path_x3E__x5F_3_x5F_1"  width="11.426" height="8.312" x="0.037" y="-8.281" transform="matrix(1 0 0 -1 10.2998 26.4004)" style="overflow:visible;opacity:0.5;enable-background:new    ;"/>
		<path style="fill-rule:evenodd;clip-rule:evenodd;" d="M15.05,29.85c0,0.2-0.533,0.301-1.6,0.301c-1.067,0-1.6-0.101-1.6-0.301
			c0-0.199,0.533-0.3,1.6-0.3C14.517,29.55,15.05,29.65,15.05,29.85z"/>
		<path style="fill-rule:evenodd;clip-rule:evenodd;" d="M20.6,29.85c0,0.2-0.533,0.301-1.6,0.301s-1.6-0.101-1.6-0.301
			c0-0.199,0.533-0.3,1.6-0.3S20.6,29.65,20.6,29.85z"/>
		<path style="fill-rule:evenodd;clip-rule:evenodd;" d="M16.2,31.5c1.866,0,2.8,0.1,2.8,0.3s-0.934,0.3-2.8,0.3
			c-1.867,0-2.8-0.1-2.8-0.3S14.333,31.5,16.2,31.5z"/>
	</g>
	<g>
		<g>
			<path style="fill-rule:evenodd;clip-rule:evenodd;fill:#7E5C53;" d="M18.65,16.1c-0.301-0.034-0.584,0.1-0.851,0.4
				c-0.233,0.267-0.366,0.617-0.399,1.05l-0.15,1.601c-0.033,0.433,0.033,0.816,0.2,1.149c0.2,0.3,0.467,0.467,0.8,0.5l0.7,0.101
				l0.399-4.75L18.65,16.1z M21.5,16.35l-0.95-0.1L20.15,21l0.949,0.1c0.334,0.034,0.617-0.1,0.851-0.399
				c0.267-0.267,0.416-0.634,0.45-1.101l0.149-1.55c0.033-0.466-0.05-0.85-0.25-1.15C22.1,16.566,21.833,16.383,21.5,16.35z
				 M19.8,11.1c0.066-0.534,0.3-0.767,0.7-0.7c0.4,0.067,0.566,0.333,0.5,0.8l-0.4,4.35L22,15.7c0.434,0.033,0.783,0.267,1.05,0.7
				c0.267,0.4,0.367,0.883,0.3,1.45l-0.199,2.1c-0.034,0.566-0.217,1.033-0.551,1.399c-0.333,0.367-0.716,0.534-1.149,0.5
				l-1.8-0.199l-0.2,0.05l-0.2-0.05l-1.5-0.15c-0.434-0.033-0.767-0.267-1-0.7c-0.233-0.399-0.333-0.883-0.3-1.45l0.149-2.1
				c0.067-0.567,0.25-1.033,0.551-1.4c0.333-0.367,0.716-0.534,1.149-0.5l1.15,0.1L19.8,11.1z"/>
			
				<use xlink:href="#FlashAICB_x5F_0_x2F_jar_2_x2F__x3C_Path_x3E__x5F_1_x5F_2"  width="12.691" height="9.173" x="-0.021" y="-9.193" transform="matrix(1 0 0 -1 13.2002 17.7002)" style="overflow:visible;opacity:0.5;enable-background:new    ;"/>
			<path style="fill-rule:evenodd;clip-rule:evenodd;fill:#576359;" d="M19.15,26.65c-1.733-0.167-3.184-0.75-4.351-1.75
				c-1.167-1-1.7-2.134-1.6-3.4c0.133-1.267,0.85-2.283,2.149-3.05c1.334-0.767,2.867-1.083,4.601-0.95
				c1.767,0.167,3.217,0.75,4.35,1.75c1.167,1,1.7,2.134,1.601,3.4c-0.134,1.267-0.851,2.283-2.15,3.05
				C22.417,26.5,20.884,26.816,19.15,26.65z"/>
			
				<use xlink:href="#FlashAICB_x5F_0_x2F_jar_2_x2F__x3C_Group_x3E__x5F_1_x5F_2"  width="11.008" height="7.81" y="-7.81" transform="matrix(1 0 0 -1 13.75 18.4502)" style="overflow:visible;opacity:0.5;enable-background:new    ;"/>
			<g>
				<g>
					<path style="fill-rule:evenodd;clip-rule:evenodd;fill:#7D8C76;" d="M23,22.9c0-0.267,0.1-0.483,0.3-0.65
						c0.167-0.2,0.384-0.283,0.65-0.25s0.483,0.15,0.649,0.35c0.167,0.2,0.233,0.434,0.2,0.7s-0.149,0.483-0.35,0.65
						c-0.2,0.166-0.417,0.233-0.65,0.2c-0.233-0.034-0.434-0.15-0.6-0.351C23.033,23.384,22.967,23.167,23,22.9z"/>
					<path style="fill-rule:evenodd;clip-rule:evenodd;fill:#848C6E;" d="M23.35,22.9c0-0.134,0.067-0.267,0.2-0.4
						c0.134-0.1,0.267-0.134,0.4-0.1c0.333,0,0.5,0.199,0.5,0.6c-0.066,0.366-0.267,0.55-0.601,0.55
						C23.45,23.483,23.283,23.267,23.35,22.9z"/>
				</g>
				<g>
					<path style="fill-rule:evenodd;clip-rule:evenodd;fill:#7D8C76;" d="M17.2,20.75c0.033-0.267,0.133-0.483,0.3-0.65
						c0.2-0.199,0.417-0.283,0.65-0.25C18.417,19.884,18.634,20,18.8,20.2c0.167,0.2,0.233,0.434,0.2,0.7s-0.15,0.483-0.35,0.649
						c-0.2,0.167-0.417,0.233-0.65,0.2s-0.434-0.15-0.6-0.35C17.233,21.233,17.167,21.017,17.2,20.75z"/>
					<path style="fill-rule:evenodd;clip-rule:evenodd;fill:#848C6E;" d="M17.55,20.75c0-0.134,0.066-0.267,0.2-0.4
						c0.134-0.1,0.267-0.133,0.4-0.1c0.333,0,0.5,0.2,0.5,0.6c-0.067,0.367-0.267,0.551-0.601,0.551
						C17.65,21.333,17.483,21.116,17.55,20.75z"/>
				</g>
				<g>
					<path style="fill-rule:evenodd;clip-rule:evenodd;fill:#7D8C76;" d="M21.35,24.55c0.067-0.434,0.317-0.649,0.75-0.649
						c0.467,0.066,0.667,0.333,0.601,0.8c0,0.2-0.066,0.366-0.2,0.5c-0.167,0.133-0.333,0.184-0.5,0.149
						C21.566,25.283,21.35,25.017,21.35,24.55z"/>
					<path style="fill-rule:evenodd;clip-rule:evenodd;fill:#848C6E;" d="M21.65,24.6c0-0.267,0.149-0.399,0.449-0.399
						c0.233,0,0.351,0.149,0.351,0.45c0,0.267-0.15,0.399-0.45,0.399S21.583,24.9,21.65,24.6z"/>
				</g>
				<g>
					<path style="fill-rule:evenodd;clip-rule:evenodd;fill:#7D8C76;" d="M20.7,21.5c0-0.434,0.233-0.65,0.7-0.65
						c0.433,0.067,0.649,0.334,0.649,0.801c-0.066,0.5-0.316,0.716-0.75,0.649C20.833,22.233,20.634,21.967,20.7,21.5z"/>
					<path style="fill-rule:evenodd;clip-rule:evenodd;fill:#848C6E;" d="M20.95,21.55c0-0.267,0.149-0.399,0.45-0.399
						c0.1,0,0.183,0.05,0.25,0.149c0.1,0.101,0.133,0.2,0.1,0.3c0,0.334-0.15,0.467-0.45,0.4C21.066,22,20.95,21.85,20.95,21.55z"/>
				</g>
				<g>
					<path style="fill-rule:evenodd;clip-rule:evenodd;fill:#7D8C76;" d="M19.35,23.8c-0.5-0.066-0.716-0.316-0.649-0.75
						c0.066-0.5,0.316-0.717,0.75-0.649c0.467,0,0.666,0.25,0.6,0.75c0,0.199-0.066,0.366-0.2,0.5
						C19.684,23.783,19.517,23.833,19.35,23.8z"/>
					<path style="fill-rule:evenodd;clip-rule:evenodd;fill:#848C6E;" d="M19.35,23.5c-0.3,0-0.416-0.15-0.35-0.45
						c0-0.267,0.15-0.399,0.45-0.399c0.233,0.066,0.35,0.233,0.35,0.5C19.8,23.45,19.65,23.566,19.35,23.5z"/>
				</g>
				<g>
					<path style="fill-rule:evenodd;clip-rule:evenodd;fill:#7D8C76;" d="M14.25,20.8c0.066-0.5,0.316-0.717,0.75-0.649
						c0.167,0.033,0.316,0.116,0.45,0.25c0.133,0.166,0.184,0.333,0.149,0.5c-0.066,0.466-0.316,0.699-0.75,0.699
						C14.383,21.533,14.184,21.267,14.25,20.8z"/>
					<path style="fill-rule:evenodd;clip-rule:evenodd;fill:#848C6E;" d="M14.5,20.85c0.066-0.333,0.217-0.466,0.45-0.399
						c0.267,0,0.399,0.149,0.399,0.45c-0.066,0.267-0.216,0.399-0.45,0.399C14.633,21.233,14.5,21.083,14.5,20.85z"/>
				</g>
				<g>
					<path style="fill-rule:evenodd;clip-rule:evenodd;fill:#7D8C76;" d="M17.75,25.25c0-0.2,0.083-0.366,0.25-0.5
						c0.134-0.134,0.3-0.184,0.5-0.15c0.167,0.034,0.316,0.117,0.45,0.25c0.133,0.167,0.184,0.334,0.149,0.5
						c-0.066,0.467-0.316,0.7-0.75,0.7C17.884,25.983,17.684,25.717,17.75,25.25z"/>
					<path style="fill-rule:evenodd;clip-rule:evenodd;fill:#848C6E;" d="M18,25.3c0.066-0.333,0.217-0.467,0.45-0.399
						c0.3,0,0.416,0.149,0.35,0.449c0,0.267-0.133,0.4-0.399,0.4C18.134,25.684,18,25.533,18,25.3z"/>
				</g>
				<g>
					<path style="fill-rule:evenodd;clip-rule:evenodd;fill:#7D8C76;" d="M15.55,23.3c0-0.166,0.066-0.316,0.2-0.45
						c0.167-0.133,0.333-0.199,0.5-0.199c0.434,0.066,0.65,0.333,0.65,0.8c-0.034,0.2-0.117,0.366-0.25,0.5
						c-0.167,0.133-0.334,0.184-0.5,0.149C15.684,24.033,15.483,23.767,15.55,23.3z"/>
					<path style="fill-rule:evenodd;clip-rule:evenodd;fill:#848C6E;" d="M15.8,23.35c0-0.267,0.15-0.399,0.45-0.399
						c0.1,0,0.184,0.05,0.25,0.149c0.1,0.101,0.134,0.2,0.1,0.301c0,0.333-0.149,0.466-0.449,0.399
						C15.917,23.8,15.8,23.65,15.8,23.35z"/>
				</g>
				<g>
					<path style="fill-rule:evenodd;clip-rule:evenodd;fill:#7D8C76;" d="M13.8,22.35c0-0.3,0.167-0.449,0.5-0.449
						c0.267,0.066,0.4,0.25,0.4,0.55c-0.067,0.333-0.233,0.467-0.5,0.399C13.867,22.85,13.733,22.684,13.8,22.35z"/>
					<path style="fill-rule:evenodd;clip-rule:evenodd;fill:#848C6E;" d="M13.95,22.35c0.066-0.166,0.167-0.25,0.3-0.25
						c0.167,0,0.25,0.101,0.25,0.301c0,0.199-0.1,0.3-0.3,0.3C14.033,22.634,13.95,22.517,13.95,22.35z"/>
				</g>
				<g>
					<path style="fill-rule:evenodd;clip-rule:evenodd;fill:#7D8C76;" d="M23.15,24.7c0-0.367,0.166-0.517,0.5-0.45
						c0.267,0,0.399,0.167,0.399,0.5c-0.066,0.3-0.233,0.45-0.5,0.45C23.217,25.134,23.083,24.967,23.15,24.7z"/>
					<path style="fill-rule:evenodd;clip-rule:evenodd;fill:#848C6E;" d="M23.3,24.7c0.066-0.2,0.167-0.283,0.3-0.25
						c0.233,0,0.317,0.1,0.25,0.3c0,0.167-0.1,0.25-0.3,0.25C23.384,25,23.3,24.9,23.3,24.7z"/>
				</g>
				<g>
					<path style="fill-rule:evenodd;clip-rule:evenodd;fill:#7D8C76;" d="M22.65,20.05c0-0.434,0.25-0.649,0.75-0.649
						c0.466,0.066,0.666,0.333,0.6,0.8c-0.066,0.434-0.316,0.649-0.75,0.649C22.783,20.783,22.583,20.517,22.65,20.05z"/>
					<path style="fill-rule:evenodd;clip-rule:evenodd;fill:#848C6E;" d="M22.9,20.1c0.066-0.333,0.216-0.466,0.449-0.399
						c0.301,0,0.417,0.149,0.351,0.45c0,0.267-0.134,0.399-0.4,0.399S22.9,20.4,22.9,20.1z"/>
				</g>
				<g>
					<path style="fill-rule:evenodd;clip-rule:evenodd;fill:#7D8C76;" d="M19.35,19.65c-0.433,0-0.649-0.25-0.649-0.75
						c0.066-0.5,0.316-0.717,0.75-0.65c0.467,0,0.666,0.25,0.6,0.75c0,0.2-0.066,0.366-0.2,0.5
						C19.684,19.634,19.517,19.684,19.35,19.65z"/>
					<path style="fill-rule:evenodd;clip-rule:evenodd;fill:#848C6E;" d="M19.35,19.4c-0.3-0.067-0.416-0.233-0.35-0.5
						c0-0.3,0.15-0.417,0.45-0.35c0.233,0,0.35,0.15,0.35,0.45C19.8,19.267,19.65,19.4,19.35,19.4z"/>
				</g>
			</g>
		</g>
		
			<use xlink:href="#FlashAICB_x5F_0_x2F_jar_2_x2F__x3C_Path_x3E__x5F_3_x5F_2"  width="12.724" height="9.223" x="-0.012" y="-9.193" transform="matrix(1 0 0 -1 13.2002 17.5)" style="overflow:visible;opacity:0.5;enable-background:new    ;"/>
		<path style="fill-rule:evenodd;clip-rule:evenodd;" d="M18.6,21.15c-0.066,0.199-0.666,0.216-1.8,0.05
			c-1.133-0.167-1.7-0.384-1.7-0.65c0.034-0.066,0.217-0.116,0.551-0.149c0.399,0,0.816,0.05,1.25,0.149
			C18.1,20.75,18.667,20.95,18.6,21.15z"/>
		<path style="fill-rule:evenodd;clip-rule:evenodd;" d="M24.65,22.15c-0.067,0.199-0.667,0.216-1.801,0.05
			C21.65,22,21.083,21.8,21.15,21.6c0.066-0.199,0.666-0.216,1.8-0.05C24.15,21.75,24.717,21.95,24.65,22.15z"/>
		<path style="fill-rule:evenodd;clip-rule:evenodd;" d="M22.55,24c-0.066,0.233-1.116,0.167-3.149-0.2
			c-2.067-0.3-3.067-0.583-3-0.85c0.066-0.233,1.116-0.167,3.149,0.2C21.55,23.517,22.55,23.8,22.55,24z"/>
	</g>
	<g>
		<g>
			<path style="fill-rule:evenodd;clip-rule:evenodd;fill:#7E5C53;" d="M8.5,16.5l-0.45,0.15c-0.466,0.167-0.616,0.583-0.45,1.25
				l0.3,1.05c0.233,0.666,0.583,0.916,1.05,0.75l0.5-0.101L8.5,16.5z M9.1,15.8l0.9-0.25c0.267-0.1,0.533-0.05,0.8,0.15
				c0.267,0.2,0.467,0.483,0.6,0.85l0.4,1.35c0.134,0.367,0.15,0.717,0.05,1.05c-0.133,0.3-0.333,0.483-0.6,0.55l-1.3,0.45h-0.1
				l-1,0.3c-0.267,0.1-0.534,0.05-0.8-0.15c-0.267-0.199-0.466-0.483-0.6-0.85l-0.4-1.35c-0.133-0.367-0.133-0.7,0-1
				c0.1-0.333,0.284-0.533,0.55-0.6l0.75-0.25l-0.9-2.8c-0.067-0.333,0.017-0.533,0.25-0.6c0.233-0.1,0.417,0.017,0.55,0.35
				L9.1,15.8z M9.9,16.1l-0.65,0.2l0.95,3.05l0.6-0.199c0.233-0.067,0.384-0.217,0.45-0.45c0.1-0.267,0.1-0.534,0-0.8l-0.3-1.05
				C10.717,16.183,10.367,15.933,9.9,16.1z"/>
			
				<use xlink:href="#FlashAICB_x5F_0_x2F_jar_2_x2F__x3C_Path_x3E__x5F_1_x5F_3"  width="8.417" height="6.451" x="0.002" y="-6.438" transform="matrix(1 0 0 -1 5.9502 17.1001)" style="overflow:visible;opacity:0.5;enable-background:new    ;"/>
			<path style="fill-rule:evenodd;clip-rule:evenodd;fill:#576359;" d="M6,21.45c-0.233-0.834-0.05-1.667,0.55-2.5
				c0.634-0.8,1.517-1.384,2.65-1.75c1.133-0.333,2.183-0.35,3.15-0.05c1,0.333,1.617,0.917,1.85,1.75
				c0.267,0.8,0.083,1.617-0.55,2.45c-0.633,0.834-1.517,1.417-2.65,1.75c-1.133,0.367-2.184,0.384-3.15,0.051
				C6.883,22.816,6.267,22.25,6,21.45z"/>
			
				<use xlink:href="#FlashAICB_x5F_0_x2F_jar_2_x2F__x3C_Group_x3E__x5F_1_x5F_3"  width="7.27" height="5.487" x="-0.02" y="-5.468" transform="matrix(1 0 0 -1 6.5 17.6499)" style="overflow:visible;opacity:0.5;enable-background:new    ;"/>
			<g>
				<g>
					<path style="fill-rule:evenodd;clip-rule:evenodd;fill:#7D8C76;" d="M12.45,19.8c-0.1-0.399,0.033-0.666,0.4-0.8
						c0.4-0.133,0.667,0.017,0.8,0.45c0.067,0.166,0.05,0.333-0.05,0.5c-0.067,0.166-0.184,0.267-0.35,0.3
						C12.85,20.384,12.583,20.233,12.45,19.8z"/>
					<path style="fill-rule:evenodd;clip-rule:evenodd;fill:#848C6E;" d="M12.7,19.7c-0.067-0.233,0.017-0.384,0.25-0.45
						s0.383,0.017,0.45,0.25c0.067,0.233-0.017,0.4-0.25,0.5C12.917,20.066,12.767,19.967,12.7,19.7z"/>
				</g>
				<g>
					<path style="fill-rule:evenodd;clip-rule:evenodd;fill:#7D8C76;" d="M8.3,19.95c-0.133-0.434,0-0.7,0.4-0.8
						c0.366-0.134,0.616,0,0.75,0.399c0.133,0.434,0,0.7-0.4,0.8C8.684,20.483,8.434,20.35,8.3,19.95z"/>
					<path style="fill-rule:evenodd;clip-rule:evenodd;fill:#848C6E;" d="M8.5,19.85c-0.066-0.233,0.017-0.383,0.25-0.449
						c0.233-0.101,0.383-0.017,0.45,0.25C9.333,19.884,9.267,20.033,9,20.1C8.8,20.2,8.633,20.116,8.5,19.85z"/>
				</g>
				<g>
					<path style="fill-rule:evenodd;clip-rule:evenodd;fill:#7D8C76;" d="M11.9,21.25c-0.1-0.267,0-0.467,0.3-0.6
						c0.1-0.034,0.216-0.017,0.35,0.05c0.1,0.066,0.167,0.166,0.2,0.3c0.1,0.267,0,0.467-0.3,0.6
						C12.15,21.667,11.967,21.55,11.9,21.25z"/>
					<path style="fill-rule:evenodd;clip-rule:evenodd;fill:#848C6E;" d="M12.05,21.2c-0.066-0.167,0-0.283,0.2-0.351
						c0.167-0.066,0.283,0,0.35,0.2c0.066,0.167,0,0.283-0.2,0.351C12.233,21.467,12.117,21.4,12.05,21.2z"/>
				</g>
				<g>
					<path style="fill-rule:evenodd;clip-rule:evenodd;fill:#7D8C76;" d="M10.65,19.55c-0.066-0.333,0.034-0.533,0.3-0.6
						c0.267-0.1,0.466,0,0.6,0.3c0.067,0.134,0.067,0.267,0,0.4c-0.066,0.1-0.167,0.166-0.3,0.199
						C10.983,19.95,10.783,19.85,10.65,19.55z"/>
					<path style="fill-rule:evenodd;clip-rule:evenodd;fill:#848C6E;" d="M10.85,19.5c-0.034-0.2,0.017-0.333,0.15-0.4
						c0.2-0.066,0.333,0,0.4,0.2c0,0.233-0.066,0.351-0.2,0.351C11.033,19.717,10.917,19.667,10.85,19.5z"/>
				</g>
				<g>
					<path style="fill-rule:evenodd;clip-rule:evenodd;fill:#7D8C76;" d="M9.85,21c-0.1-0.333,0-0.533,0.3-0.6
						c0.1-0.034,0.217-0.034,0.35,0c0.1,0.066,0.167,0.166,0.2,0.3c0.066,0.133,0.066,0.267,0,0.399
						c-0.067,0.101-0.167,0.167-0.3,0.2C10.1,21.434,9.917,21.333,9.85,21z"/>
					<path style="fill-rule:evenodd;clip-rule:evenodd;fill:#848C6E;" d="M10,20.9c-0.066-0.167,0-0.284,0.2-0.351
						c0.167-0.066,0.283,0,0.35,0.2c0.067,0.167,0,0.283-0.2,0.35C10.184,21.167,10.066,21.1,10,20.9z"/>
				</g>
				<g>
					<path style="fill-rule:evenodd;clip-rule:evenodd;fill:#7D8C76;" d="M6.45,20.75c-0.067-0.333,0.033-0.533,0.3-0.6
						c0.267-0.101,0.467,0,0.6,0.3c0.066,0.133,0.066,0.267,0,0.399c-0.067,0.101-0.167,0.167-0.3,0.2
						C6.783,21.15,6.583,21.05,6.45,20.75z"/>
					<path style="fill-rule:evenodd;clip-rule:evenodd;fill:#848C6E;" d="M6.65,20.7c-0.033-0.2,0.017-0.334,0.15-0.4
						c0.233-0.066,0.35,0,0.35,0.2c0.067,0.233,0.017,0.35-0.15,0.35C6.833,20.917,6.717,20.866,6.65,20.7z"/>
				</g>
				<g>
					<path style="fill-rule:evenodd;clip-rule:evenodd;fill:#7D8C76;" d="M9.8,22.6c-0.1-0.267,0-0.466,0.3-0.6
						c0.3-0.066,0.483,0.05,0.55,0.35c0.1,0.267,0,0.467-0.3,0.601C10.05,23.017,9.867,22.9,9.8,22.6z"/>
					<path style="fill-rule:evenodd;clip-rule:evenodd;fill:#848C6E;" d="M9.95,22.55c-0.067-0.166,0-0.283,0.2-0.35
						c0.167-0.066,0.284,0,0.35,0.2c0.066,0.166,0,0.283-0.2,0.35C10.133,22.816,10.017,22.75,9.95,22.55z"/>
				</g>
				<g>
					<path style="fill-rule:evenodd;clip-rule:evenodd;fill:#7D8C76;" d="M7.9,21.95c-0.066-0.3,0.034-0.5,0.3-0.601
						C8.5,21.283,8.7,21.4,8.8,21.7c0.067,0.133,0.067,0.267,0,0.399c-0.066,0.101-0.167,0.167-0.3,0.2
						C8.233,22.4,8.033,22.283,7.9,21.95z"/>
					<path style="fill-rule:evenodd;clip-rule:evenodd;fill:#848C6E;" d="M8.1,21.9c-0.067-0.167-0.017-0.284,0.15-0.351
						s0.283,0,0.35,0.2c0.066,0.167,0.017,0.283-0.15,0.35C8.283,22.167,8.167,22.1,8.1,21.9z"/>
				</g>
				<g>
					<path style="fill-rule:evenodd;clip-rule:evenodd;fill:#7D8C76;" d="M6.6,21.8c-0.067-0.2,0-0.333,0.2-0.399
						c0.167-0.067,0.284,0.017,0.35,0.25c0.067,0.199,0,0.333-0.2,0.399C6.783,22.116,6.667,22.033,6.6,21.8z"/>
					<path style="fill-rule:evenodd;clip-rule:evenodd;fill:#848C6E;" d="M6.7,21.8c-0.067-0.166-0.034-0.25,0.1-0.25
						c0.1-0.066,0.184-0.033,0.25,0.101c0.1,0.166,0.067,0.25-0.1,0.25C6.85,21.967,6.767,21.934,6.7,21.8z"/>
				</g>
				<g>
					<path style="fill-rule:evenodd;clip-rule:evenodd;fill:#7D8C76;" d="M13,20.85c-0.066-0.199,0-0.333,0.2-0.399
						c0.2-0.066,0.333,0.017,0.4,0.25c0.066,0.2,0,0.333-0.2,0.399C13.2,21.167,13.066,21.083,13,20.85z"/>
					<path style="fill-rule:evenodd;clip-rule:evenodd;fill:#848C6E;" d="M13.15,20.85c-0.066-0.166-0.033-0.25,0.1-0.25
						c0.1-0.066,0.184-0.033,0.25,0.101c0,0.166-0.05,0.25-0.15,0.25C13.217,21.017,13.15,20.983,13.15,20.85z"/>
				</g>
				<g>
					<path style="fill-rule:evenodd;clip-rule:evenodd;fill:#7D8C76;" d="M11.5,18.1c-0.066-0.267,0.033-0.467,0.3-0.6
						c0.3-0.067,0.5,0.05,0.6,0.35c0.1,0.267,0,0.466-0.3,0.6C11.833,18.517,11.633,18.4,11.5,18.1z"/>
					<path style="fill-rule:evenodd;clip-rule:evenodd;fill:#848C6E;" d="M11.7,18.05c-0.067-0.167-0.017-0.283,0.15-0.35
						c0.2-0.067,0.333,0,0.4,0.2c0,0.2-0.066,0.317-0.2,0.35C11.883,18.316,11.767,18.25,11.7,18.05z"/>
				</g>
				<g>
					<path style="fill-rule:evenodd;clip-rule:evenodd;fill:#7D8C76;" d="M8.75,18.4c-0.066-0.333,0.033-0.533,0.3-0.6
						c0.267-0.1,0.467,0,0.6,0.3c0.1,0.333,0,0.533-0.3,0.6C9.083,18.8,8.883,18.7,8.75,18.4z"/>
					<path style="fill-rule:evenodd;clip-rule:evenodd;fill:#848C6E;" d="M8.95,18.35c-0.067-0.233,0-0.35,0.2-0.35
						c0.167-0.1,0.284-0.05,0.35,0.15c0.066,0.2,0,0.333-0.2,0.4C9.133,18.617,9.017,18.55,8.95,18.35z"/>
				</g>
			</g>
		</g>
		
			<use xlink:href="#FlashAICB_x5F_0_x2F_jar_2_x2F__x3C_Path_x3E__x5F_3_x5F_3"  width="8.417" height="6.451" x="0.002" y="-6.438" transform="matrix(1 0 0 -1 5.8999 16.9502)" style="overflow:visible;opacity:0.5;enable-background:new    ;"/>
		<path style="fill-rule:evenodd;clip-rule:evenodd;" d="M9.3,19.85c0,0.134-0.383,0.284-1.15,0.45
			c-0.767,0.167-1.167,0.184-1.2,0.05c-0.067-0.1,0.3-0.25,1.1-0.449C8.85,19.733,9.267,19.717,9.3,19.85z"/>
		<path style="fill-rule:evenodd;clip-rule:evenodd;" d="M13.3,18.9c0.067,0.167-0.3,0.333-1.1,0.5C11.4,19.6,11,19.616,11,19.45
			c-0.033-0.167,0.333-0.334,1.1-0.5C12.9,18.75,13.3,18.733,13.3,18.9z"/>
		<path style="fill-rule:evenodd;clip-rule:evenodd;" d="M12.45,20.6c0.066,0.167-0.6,0.4-2,0.7c-1.367,0.3-2.05,0.384-2.05,0.25
			c-0.066-0.166,0.583-0.399,1.95-0.7C11.75,20.55,12.45,20.467,12.45,20.6z"/>
	</g>
	<g>
		
			<use xlink:href="#FlashAICB_x5F_0_x2F_jar_2_x2F__x3C_Path_x3E_"  width="29.4" height="35.5" y="-35.5" transform="matrix(1 0 0 -1 0 1.0498)" style="overflow:visible;opacity:0.5;enable-background:new    ;"/>
		<g>
			<path style="fill-rule:evenodd;clip-rule:evenodd;fill:#643E1F;" d="M25.5,2.9c0.134,0.167,0.2,0.817,0.2,1.95
				c0,0.933-1.084,1.733-3.25,2.4c-2.167,0.667-4.783,1-7.85,1s-5.667-0.333-7.8-1c-2.167-0.667-3.25-1.467-3.25-2.4
				c0-1.067,0.017-1.617,0.05-1.65c0.466-0.7,1.75-1.184,3.85-1.45C8.983,1.583,11.367,1.5,14.6,1.5c3.567,0,5.9,0.05,7,0.15
				C23.7,1.816,25,2.233,25.5,2.9z"/>
			<path style="fill-rule:evenodd;clip-rule:evenodd;fill:#492D16;" d="M25.7,3.4c0,0.934-1.084,1.733-3.25,2.4
				c-2.167,0.667-4.783,1-7.85,1c-3.034,0-5.633-0.333-7.8-1C4.633,5.133,3.55,4.333,3.55,3.4c0-0.933,1.083-1.733,3.25-2.4
				c2.134-0.667,4.733-1,7.8-1s5.683,0.333,7.85,1C24.616,1.667,25.7,2.467,25.7,3.4z"/>
			<path style="fill-rule:evenodd;clip-rule:evenodd;fill:#2F241A;" d="M22.5,3c0,0.566-0.767,1.05-2.3,1.45
				c-1.533,0.4-3.4,0.6-5.6,0.6c-2.167,0-4.017-0.2-5.55-0.6C7.517,4.05,6.75,3.566,6.75,3c0-0.533,0.767-1,2.3-1.4
				C10.583,1.2,12.434,1,14.6,1s4.034,0.2,5.6,0.6C21.733,2,22.5,2.467,22.5,3z"/>
		</g>
	</g>
</g>
</svg>
