<?xml version="1.0" encoding="iso-8859-1"?>
<!-- Generator: Adobe Illustrator 15.1.0, SVG Export Plug-In . SVG Version: 6.00 Build 0)  -->
<!DOCTYPE svg PUBLIC "-//W3C//DTD SVG 1.1//EN" "http://www.w3.org/Graphics/SVG/1.1/DTD/svg11.dtd">
<svg version="1.1" id="jar_4_x5F_empty" xmlns="http://www.w3.org/2000/svg" xmlns:xlink="http://www.w3.org/1999/xlink" x="0px"
	 y="0px" width="39.9px" height="49.6px" viewBox="0 0 39.9 49.6" style="enable-background:new 0 0 39.9 49.6;"
	 xml:space="preserve">
<symbol  id="FlashAICB_x2F_jar_4_x5F_empty_x2F__x3C_Path_x3E_" viewBox="0 -48.15 39.9 48.15">
	<g id="Layer_1_2_">
		
			<radialGradient id="SVGID_1_" cx="19.9502" cy="-24.0752" r="19.187" gradientTransform="matrix(1 0 0 -1.3083 0 -55.5737)" gradientUnits="userSpaceOnUse">
			<stop  offset="0" style="stop-color:#F6B041;stop-opacity:0.298"/>
			<stop  offset="0.3608" style="stop-color:#F6B143;stop-opacity:0.3137"/>
			<stop  offset="0.5451" style="stop-color:#F6B44A;stop-opacity:0.3725"/>
			<stop  offset="0.6863" style="stop-color:#F6B956;stop-opacity:0.4745"/>
			<stop  offset="0.8078" style="stop-color:#F6C168;stop-opacity:0.6157"/>
			<stop  offset="0.9137" style="stop-color:#F7CA7F;stop-opacity:0.8"/>
			<stop  offset="1" style="stop-color:#F8D598"/>
		</radialGradient>
		<path style="fill-rule:evenodd;clip-rule:evenodd;fill:url(#SVGID_1_);" d="M39.9-26.1c0-8.367-0.883-13.85-2.65-16.45
			c-2.567-3.733-8.333-5.6-17.3-5.6c-8.967,0-14.733,1.867-17.3,5.6C0.883-39.95,0-34.467,0-26.1C0-8.7,6.65,0,19.95,0
			C33.25,0,39.9-8.7,39.9-26.1z"/>
	</g>
</symbol>
<symbol  id="FlashAICB_x2F_jar_4_x5F_empty_x2F__x3C_Path_x3E__x5F_2" viewBox="0 -20.35 10.9 20.35">
	<g id="Layer_1_3_">
		<polygon style="fill-rule:evenodd;clip-rule:evenodd;fill:#FDECCA;" points="2.7,-20.35 0,-1.15 8.15,0 10.9,-19.2 		"/>
	</g>
</symbol>
<g>
	<g>
		
			<use xlink:href="#FlashAICB_x2F_jar_4_x5F_empty_x2F__x3C_Path_x3E_"  width="39.9" height="48.15" y="-48.15" transform="matrix(1 0 0 -1 0 1.4502)" style="overflow:visible;opacity:0.5;enable-background:new    ;"/>
		<g>
			<path style="fill-rule:evenodd;clip-rule:evenodd;fill:#6D3A1F;" d="M34.6,4c0.167,0.2,0.25,1.083,0.25,2.65
				c0,1.267-1.466,2.35-4.399,3.25s-6.483,1.35-10.65,1.35c-4.133,0-7.683-0.45-10.65-1.35C6.217,9,4.75,7.917,4.75,6.65
				c0-1.4,0.033-2.167,0.1-2.3C5.45,3.383,7.2,2.733,10.1,2.4C12.2,2.133,15.433,2,19.8,2c4.667,0,7.834,0.083,9.5,0.25
				C32.134,2.517,33.9,3.1,34.6,4z"/>
			<path style="fill-rule:evenodd;clip-rule:evenodd;fill:#502A16;" d="M34.85,4.6c0,1.267-1.466,2.35-4.399,3.25
				S23.967,9.2,19.8,9.2c-4.167,0-7.716-0.45-10.65-1.35c-2.933-0.9-4.4-1.983-4.4-3.25s1.467-2.35,4.4-3.25
				C12.083,0.45,15.633,0,19.8,0c4.167,0,7.717,0.45,10.65,1.35S34.85,3.333,34.85,4.6z"/>
			<path style="fill-rule:evenodd;clip-rule:evenodd;fill:#32231A;" d="M30.5,4.1c0,0.767-1.05,1.417-3.15,1.95
				c-2.1,0.534-4.616,0.8-7.55,0.8c-2.933,0-5.433-0.267-7.5-0.8C10.2,5.517,9.15,4.867,9.15,4.1s1.05-1.417,3.15-1.95
				c2.067-0.533,4.567-0.8,7.5-0.8c2.934,0,5.45,0.267,7.55,0.8C29.45,2.683,30.5,3.333,30.5,4.1z"/>
		</g>
	</g>
	<g>
		
			<use xlink:href="#FlashAICB_x2F_jar_4_x5F_empty_x2F__x3C_Path_x3E__x5F_2"  width="10.9" height="20.35" y="-20.35" transform="matrix(1 0 0 -1 20.7002 7.8999)" style="overflow:visible;opacity:0.5;enable-background:new    ;"/>
		<polygon style="fill-rule:evenodd;clip-rule:evenodd;fill:#23200C;" points="31.55,10.9 26.5,11.55 26.3,10.2 31.4,9.55 		"/>
		<polygon style="fill-rule:evenodd;clip-rule:evenodd;fill:#23200C;" points="24.05,11.9 19,12.6 18.8,11.25 23.85,10.55 		"/>
	</g>
	<g>
		<g>
			<g>
				<path style="fill-rule:evenodd;clip-rule:evenodd;fill:#7E613E;" d="M26.225,24.375L26.25,24.3v0.1l0.05-0.15
					c0.033,0,0.033,0.017,0,0.05c0,0.067,0.033,0.083,0.101,0.05l0.05-0.05c0.033-0.023,0.05-0.023,0.05,0l0.05-0.05v0.05h0.05v0.05
					l0.051-0.05v0.1l0.05-0.1v0.05l0.05-0.05v0.1h0.05l0.05,0.05l-0.05,0.1l0.101-0.1c-0.034,0.066-0.017,0.083,0.05,0.05
					l-0.05,0.05c-0.034,0.067-0.017,0.083,0.05,0.05L27,24.5c0.033,0,0.033,0.017,0,0.05h0.05v0.15h0.05l-0.05,0.05
					c0,0.033,0.05,0.017,0.15-0.05v0.05h0.05l-0.1,0.05h0.05l-0.05,0.05h0.05l0.05-0.05l0.05,0.05h0.05L27.3,24.9l0.101,0.05H27.35
					V25H27.4c-0.032,0.032-0.082,0.049-0.15,0.05h0.15c0.033,0.033,0.017,0.066-0.051,0.101H27.4c0,0.099-0.017,0.148-0.051,0.149
					H27.4l-0.051,0.05H27.4L27.35,25.4c0.065,0.001,0.082,0.018,0.051,0.05c0.022,0.01,0.022,0.027,0,0.05L27.3,25.55
					c0.167,0.066,0.2,0.134,0.101,0.2H27.3L27.4,25.8l0.05,0.05L27.35,25.8l-0.125-0.024l0.075,0.05v0.024l0.05,0.051H27.4
					c0.033,0.033,0.033,0.05,0,0.05H27.3L27.35,26h-0.1l0.05,0.05h0.05L27.4,26.1c0,0.034-0.034,0.034-0.101,0h-0.1l0.149,0.051
					h-0.1l0.1,0.05H27.2l-0.05-0.05L27,26.1l0.05,0.051l0.2,0.1h-0.1L27.05,26.2l0.05,0.05h0.051c0,0.033,0.017,0.05,0.05,0.05
					l0.1,0.101h-0.1c0.033-0.034,0.017-0.067-0.05-0.101v0.05H27.1l-0.05-0.05L26.9,26.25v0.05l0.1,0.05l0.05,0.051l-0.1-0.051
					v0.101L27,26.5l0.1,0.025c-0.013,0.017-0.029,0.024-0.05,0.024l-0.149-0.1H26.85L26.9,26.5l-0.051,0.1l-0.05-0.024v0.075
					L26.75,26.6H26.7v-0.05l-0.101-0.1h0.051L26.55,26.4l0.101-0.051h0.05c-0.033-0.001-0.05-0.034-0.05-0.1
					c0.033,0,0.05-0.017,0.05-0.05v-0.15l0.05,0.05h0.05L26.7,26c0.033,0,0.033-0.017,0-0.05l0.05-0.05h0.05L26.7,25.8h0.1
					c0-0.1-0.017-0.166-0.05-0.2h0.05c0-0.066-0.017-0.116-0.05-0.149V25.4L26.7,25.35l0.05-0.05H26.7
					c0.066-0.033,0.083-0.066,0.05-0.1H26.7c0.032-0.033,0.032-0.05,0-0.05c0.066-0.067,0.083-0.101,0.05-0.101H26.6V25l-0.05-0.05
					l0.05-0.05v-0.05l-0.05,0.05c0-0.033-0.033-0.033-0.1,0v-0.1c0-0.066-0.017-0.083-0.05-0.05v0.05l-0.051-0.05l-0.1,0.15
					l-0.4,0.05c-0.166,0.033-0.283,0.033-0.35,0c-0.033-0.067-0.066-0.083-0.1-0.05v0.05L25.25,25c-0.167,0-0.3,0.017-0.4,0.05
					L24.8,25.1c-0.133-0.1-0.233-0.1-0.3,0l-0.05-0.25c-0.033-0.067-0.017-0.1,0.05-0.1c0.033,0,0.05-0.017,0.05-0.05l0.05,0.05
					c0-0.1,0.084-0.117,0.25-0.05l0.051,0.05v-0.1l0.024,0.025L25,24.6v0.05l0.15-0.15c0.033,0.033,0.05,0.017,0.05-0.05
					c0.022,0.022,0.039,0.022,0.05,0c0.033,0.033,0.05,0.033,0.05,0c0.032,0,0.049-0.017,0.05-0.05v0.1l0.2-0.05l0.05,0.05v-0.05
					h0.051v0.05l0.05-0.1v0.05h0.05l0.05-0.05H25.9v0.1l0.05-0.15L26,24.4v0.15l0.075-0.1l0.024-0.1l0.051,0.05v0.05l0.05-0.05v0.05
					C26.227,24.423,26.235,24.398,26.225,24.375L26.2,24.4v-0.05L26.225,24.375z M27.3,25.825V25.8l0.05,0.05L27.3,25.825z"/>
			</g>
		</g>
		<g>
			<g>
				<path style="fill-rule:evenodd;clip-rule:evenodd;fill:#7E613E;" d="M29.55,24l-0.1-0.05L29.5,24H29.55v0.05L29.45,24l0.05,0.05
					l-0.2-0.1h-0.1L29.35,24l0.101,0.05H29.4l0.1,0.05h-0.05l0.1,0.05L29.4,24.1l0.149,0.1l-0.1-0.05
					c0.061,0.032,0.061,0.049,0,0.05H29.4l0.05,0.05h0.05v0.05h-0.15l0.15,0.05h-0.1l0.05,0.05H29.35l-0.199-0.1l0.05,0.05l0.2,0.1
					c0,0.033-0.034,0.033-0.101,0h-0.1l0.05,0.05h0.05v0.05h-0.1l-0.05-0.05H29.05l0.101,0.05l0.05,0.1L29.1,24.6l-0.05,0.05
					c0,0.033-0.017,0.033-0.05,0l0.05,0.1L29,24.8l-0.1-0.05c0.033,0.033,0.033,0.05,0,0.05l0.05,0.05L28.85,24.8H28.8v0.1
					c-0.033-0.033-0.05-0.033-0.05,0l-0.05-0.1l-0.05-0.05l0.1,0.05c-0.066-0.066-0.083-0.1-0.05-0.1v-0.05l0.05,0.025L28.7,24.6
					l0.05-0.05l0.05,0.05l-0.05-0.1c0.033,0,0.066-0.017,0.1-0.05v-0.2c0.034,0,0.017-0.033-0.05-0.1h0.05L28.9,24.1h0.05
					l-0.101-0.05L28.9,24c0.033-0.067,0.033-0.133,0-0.2l0.05,0.05c-0.033-0.1-0.066-0.167-0.101-0.2L28.9,23.6H28.85v-0.05h0.101
					L28.85,23.5c0.034,0,0.051-0.017,0.051-0.05H28.85V23.4l0.051-0.05H28.85L28.9,23.3l-0.15-0.05H28.7l0.05-0.05
					c0-0.034-0.017-0.034-0.05,0v-0.05c-0.001-0.033-0.034-0.05-0.101-0.05c0-0.1-0.017-0.133-0.05-0.1v-0.05l-0.05,0.1v-0.1
					c-0.033,0.066-0.066,0.117-0.1,0.15L28,23.15c-0.167,0.033-0.3,0.033-0.4,0c0-0.033-0.017-0.033-0.05,0v0.05H27.4l-0.051-0.05
					l0.051,0.1c-0.2-0.033-0.334-0.033-0.4,0l-0.1,0.05c-0.134-0.066-0.233-0.066-0.301,0l-0.05-0.2c0-0.067,0.033-0.117,0.101-0.15
					c0.033,0,0.05-0.017,0.05-0.05l0.05,0.05c0-0.133,0.066-0.133,0.2,0L27,22.9v0.05l0.05-0.05c0.033,0,0.05-0.033,0.05-0.1
					l0.051,0.05c0-0.033,0.033-0.083,0.1-0.15l0.05,0.1v-0.1c0.032,0.031,0.049,0.015,0.05-0.05L27.4,22.7v-0.05h0.05v0.05
					l0.05-0.05v0.1c0.033-0.067,0.1-0.1,0.2-0.1l0.05,0.05c0.032,0,0.049-0.017,0.05-0.05v0.05l0.05-0.05v0.05
					c0.023,0.023,0.04,0.023,0.051,0l0.05-0.1v0.05L28,22.6l0.05,0.1v-0.1h0.101L28.1,22.7l0.051,0.05l0.05-0.15v0.1l0.05-0.15v0.05
					l0.05-0.05v0.1h0.05V22.6l0.051-0.05v0.05l0.05-0.1v0.05c0,0.034,0.017,0.034,0.05,0l0.05-0.05v0.05
					c0.066-0.066,0.101-0.066,0.101,0l0.05-0.1v0.1h0.05l0.05-0.05v0.05h0.05V22.5l0.051,0.15l0.05-0.05v0.15l0.1-0.1
					c0.033,0,0.033,0.033,0,0.1L29,22.8c0.065-0.033,0.1-0.033,0.1,0v-0.05c0.001,0.033,0.018,0.05,0.051,0.05l0.05-0.05
					c0.066,0.033,0.066,0.1,0,0.2c0,0.033,0.05,0.033,0.149,0H29.4l-0.15,0.1h0.05l0.05,0.05l0.051-0.05h0.05L29.4,23.1h0.05
					l-0.05,0.05h0.149L29.5,23.2l0.05,0.05c-0.033,0-0.083,0.017-0.149,0.05h0.1c0.033,0.034,0.033,0.05,0,0.05l0.05,0.05
					c0.033,0.033,0.017,0.067-0.05,0.1h0.05l-0.05,0.1h0.05l-0.05,0.05l0.05,0.05H29.5l0.05,0.05h-0.1l0.1,0.2
					C29.573,23.96,29.573,23.977,29.55,24z M29.2,24.55l0.1,0.05v0.05h-0.05c0.032,0,0.032-0.018,0-0.05L29.2,24.55z"/>
			</g>
		</g>
		<g>
			<g>
				<path style="fill-rule:evenodd;clip-rule:evenodd;fill:#7E613E;" d="M25.2,22.55c0.066,0,0.133-0.033,0.2-0.1
					c0.033,0,0.033-0.05,0-0.15v-0.05c0.033,0,0.066,0.017,0.1,0.05v-0.05h0.05V22.2H25.5v-0.05h0.1
					c0.034,0.033,0.051,0.033,0.051,0V22h0.1v-0.05l0.05-0.05c0.033,0,0.066,0.033,0.101,0.1l-0.051-0.15
					c0.034,0,0.067-0.017,0.101-0.05v-0.05c0.066,0,0.133-0.017,0.2-0.05l0.05,0.05V21.7l-0.05-0.05l0.1-0.05
					c0.011,0.023,0.027,0.023,0.05,0v-0.05l0.05,0.05v-0.025c0.003-0.082,0.02-0.106,0.051-0.075l0.05,0.05V21.5l0.1,0.05
					c0-0.1,0.066-0.183,0.2-0.25l0.05,0.1l0.05-0.075L26.8,21.3l0.05-0.05l0.051,0.1V21.3l0.05,0.2L27,21.6l-0.05-0.15
					c0.021-0.021,0.028-0.045,0.024-0.075L27,21.35v-0.1l0.05,0.05L27,21.2c0.033,0,0.05-0.017,0.05-0.05l0.05,0.1
					c0.034,0,0.051-0.017,0.051-0.05v-0.05l0.05,0.05h0.05v-0.05L27.2,21.1c0.032,0.03,0.049,0.014,0.05-0.05l0.05,0.05
					c0.011,0.023,0.027,0.023,0.05,0l0.101,0.05l-0.05-0.1l0.05,0.05V21l0.1,0.1v0.1l0.05,0.1V21c0.034,0.167,0.051,0.2,0.051,0.1
					V21l0.05-0.05v0.15l0.05,0.1v-0.15c0.022,0.023,0.039,0.023,0.05,0L27.85,21c0.032,0.097,0.049,0.113,0.051,0.05v0.1l0.05,0.15
					L28,21.25l-0.05-0.1l0.05-0.1l0.05,0.1l0.101-0.05c0.031,0,0.048-0.033,0.05-0.1v0.1l0.05,0.05l0.05-0.1h0.15l0.05,0.1
					c0.064-0.001,0.098-0.035,0.1-0.1v0.15c0.034,0.033,0.067,0.017,0.101-0.05l-0.05-0.05h0.1v0.05l0.05-0.05v0.05l-0.05,0.15
					l-0.05,0.05v-0.1l-0.05,0.1c-0.034,0.033-0.067,0.05-0.101,0.05l0.05-0.15l-0.05-0.05l-0.05,0.15V21.3l-0.05,0.1H28.3v-0.05
					l-0.1,0.1h-0.15l-0.25,0.1V21.5l-0.05,0.1c-0.066-0.067-0.1-0.05-0.1,0.05H27.5l-0.05-0.05v0.15H27.3l-0.25,0.2L27,21.9
					c-0.134,0.067-0.217,0.117-0.25,0.15V22c-0.033-0.033-0.05,0-0.05,0.1c0,0.033-0.017,0.033-0.05,0L26.6,22.15l-0.1,0.05
					l-0.05-0.05v0.1c-0.033,0.067-0.084,0.083-0.15,0.05v0.1l-0.1,0.05c-0.101,0.033-0.167,0.066-0.2,0.1l-0.2,0.25
					c0.033,0.067,0.033,0.1,0,0.1h-0.1c0.033,0.033,0.017,0.067-0.05,0.1L25.6,23.1h-0.05l0.05,0.05
					c-0.033,0.033-0.017,0.117,0.051,0.25l-0.101,0.05c0.023,0.022,0.023,0.039,0,0.05c-0.066,0.067-0.083,0.1-0.05,0.1l0.2,0.1
					L26.35,25c-0.033,0.066-0.033,0.116,0,0.15c0.034-0.034,0.067-0.034,0.101,0L26.6,25.35V25.4l0.051-0.051
					c0.133,0.101,0.283,0.284,0.449,0.551l0.15,0.1c0.066,0.233,0.184,0.366,0.35,0.4L27.4,26.55c-0.067,0.033-0.134,0.017-0.2-0.05
					c-0.066-0.033-0.117-0.05-0.15-0.05c0.033-0.066,0.033-0.101,0-0.101c-0.166,0.067-0.25-0.033-0.25-0.3h-0.1L26.75,26h-0.1
					l0.05-0.1l-0.05,0.05c-0.067-0.033-0.117-0.05-0.15-0.05V25.85L26.25,25.7l0.05-0.05h-0.1c0.026-0.027,0.01-0.044-0.05-0.051
					l-0.101-0.05l0.05-0.05c0-0.033-0.017-0.033-0.05,0v-0.05L26,25.425c0.017-0.017,0.033-0.041,0.05-0.075
					c-0.1-0.033-0.2-0.133-0.3-0.3L25.8,25h-0.1l0.05-0.05c-0.066,0-0.083-0.017-0.05-0.05h0.05l-0.1-0.05h0.05l-0.05-0.1
					l-0.101-0.1h0.05l-0.1-0.1l0.1-0.1c-0.033-0.034-0.083-0.017-0.149,0.05l-0.05-0.15h0.149V24.3h0.05l-0.05-0.05l-0.2-0.05H25.3
					l0.05-0.05H25.3v-0.1h0.05L25.3,24h-0.05l-0.05-0.05h0.05L25.1,23.9h0.051c0.033-0.033,0.017-0.083-0.051-0.15h-0.05l0.05-0.05
					h-0.05v-0.2h0.025l-0.025-0.05v-0.1h0.05l-0.1-0.1h0.15L25.05,23.2c0-0.034-0.017-0.067-0.05-0.1l0.05-0.1v-0.1h0.101
					l-0.101-0.1c0.066,0.034,0.101,0.017,0.101-0.05l0.05,0.05c0.066,0,0.066-0.033,0-0.1l-0.05-0.05h0.05V22.55z M26.95,21.35V21.3
					c0.013,0.026,0.021,0.051,0.024,0.075L26.95,21.35z M27.8,20.9l0.05,0.05c0,0.031-0.017,0.064-0.05,0.1V21
					c-0.033,0.033-0.05,0.017-0.05-0.05L27.8,20.9z"/>
			</g>
		</g>
		<g>
			<g>
				<path style="fill-rule:evenodd;clip-rule:evenodd;fill:#7E613E;" d="M27.3,16.1H27.4v0.05l0.1,0.05l-0.05,0.05L27.6,16.3h-0.05
					c0.068,0.002,0.118,0.036,0.15,0.1h-0.05c0,0.06,0.024,0.076,0.074,0.05c0.041,0.024,0.1,0.074,0.176,0.15l0.1,0.2
					c0,0.033-0.017,0.066-0.05,0.1c0.034-0.033,0.084-0.033,0.149,0l0.051,0.2l-0.101,0.05h-0.1c0.066,0.067,0.083,0.1,0.05,0.1
					l0.2,0.15h-0.15l0.2,0.1l-0.05,0.05l0.05,0.05l-0.05,0.1h-0.05v0.1c0,0.067,0.017,0.083,0.05,0.05V18l-0.05-0.05l0.05,0.25
					l-0.05-0.05c0,0.133-0.034,0.217-0.101,0.25h0.05l-0.05,0.05v0.1L28,18.5c0,0.167-0.05,0.267-0.15,0.3l-0.1,0.2l-0.05-0.05v0.1
					l-0.05,0.05l0.05,0.05c-0.033,0.033-0.066,0.033-0.101,0l-0.05-0.05v0.1c0.033,0.066,0.017,0.117-0.05,0.15
					c-0.066,0.066-0.116,0.083-0.15,0.05l-0.05,0.15V19.5l-0.05,0.05h-0.025l0.025-0.05c-0.066,0.033-0.1,0.017-0.1-0.05L27.1,19.4
					l-0.05,0.1c0.054-0.027,0.096-0.01,0.125,0.05H27.1l0.051,0.05H27.1v0.1h0.025c-0.008,0.016-0.017,0.033-0.025,0.05
					c-0.026,0.02-0.061,0.02-0.1,0c-0.008,0.023-0.033,0.048-0.075,0.075l0.025,0.025l0.1-0.05l0.15,0.15H27.1L27.2,20.2
					c0.033-0.067,0.066-0.067,0.1,0c0-0.1,0.033-0.117,0.101-0.05H27.35c0.034,0.033,0.034,0.067,0,0.1H27.15v0.1l0.1,0.15l0.1,0.25
					L27.2,20.8l0.05,0.05V20.8c0.033,0.034,0.066,0.083,0.1,0.15H27.3L27.2,21c0.033,0.033,0.05,0.067,0.05,0.1l0.05-0.05l0.05,0.2
					H27.3v0.05l-0.024,0.025L27.15,21.25h0.1L27.2,21.2h-0.05L27.1,21.15l0.051-0.05l-0.101-0.05c0.066-0.033,0.05-0.083-0.05-0.15
					l0.15,0.05l0.05-0.1L27,20.8h0.05l-0.1-0.1l-0.05-0.25h0.05c-0.033-0.1-0.066-0.167-0.101-0.2c0-0.067-0.017-0.15-0.05-0.25
					l-0.024-0.025L26.55,20.1l-0.024,0.05L26.5,20.1v0.05c-0.012,0.073-0.045,0.123-0.1,0.15l-0.051-0.05v0.1l-0.1-0.1l-0.05,0.1
					l-0.05-0.05v0.05L26.1,20.4h0.051v0.1H26.05h-0.1v0.05H25.9L25.85,20.7H25.8l-0.2,0.1c-0.066-0.1-0.116-0.133-0.149-0.1
					c-0.101,0.1-0.101,0.15,0,0.15c-0.167,0.066-0.283,0.083-0.351,0.05l-0.05,0.05c-0.233,0.066-0.35-0.017-0.35-0.25l0.05-0.05
					L24.7,20.6l-0.05,0.1c-0.167-0.167-0.217-0.284-0.15-0.35l-0.05-0.05l0.05-0.1h0.05c0-0.034-0.017-0.067-0.05-0.1h0.05v-0.15
					l0.101-0.05L24.6,19.85l0.15-0.1c-0.033-0.2,0.05-0.367,0.25-0.5l0.05,0.05c0.031,0,0.031-0.017,0-0.05l0.05,0.05
					c0.034,0,0.051-0.05,0.051-0.15c0.064,0,0.081-0.017,0.05-0.05l0.05,0.05V19.1c0.066,0.033,0.1,0.117,0.1,0.25L25.4,19.3
					l-0.051-0.05c0.051-0.025,0.076-0.067,0.075-0.125L25.4,19.15l0.05-0.1v-0.1L25.5,19v-0.1c0.033,0,0.05-0.033,0.05-0.1
					l0.05,0.15v-0.2l0.051,0.1c0.033,0.033,0.083,0.033,0.149,0V18.8l0.05,0.05H26l0.1-0.1c-0.063,0.032-0.113,0.032-0.149,0
					c0.036,0.03,0.086,0.013,0.149-0.05H26.2v0.05l0.05-0.05c0.066-0.034,0.1,0,0.1,0.1h-0.1l0.1,0.05L26.4,18.8l0.1,0.15
					c0.066-0.034,0.083-0.067,0.05-0.1c0.101,0,0.117,0.033,0.05,0.1L26.7,18.9l0.05,0.2h-0.1v0.05L26.6,19.2l0.051,0.05
					c0.1-0.033,0.166-0.083,0.199-0.15l0.025,0.025L26.9,19.1v0.05c0.033,0,0.066-0.017,0.1-0.05l-0.05-0.05
					c0.1-0.066,0.217-0.233,0.35-0.5c0.066,0,0.117,0,0.15,0V18.5c0.1,0,0.133-0.017,0.1-0.05L27.5,18.4
					c0.099-0.033,0.148-0.083,0.15-0.15C27.646,18.114,27.63,18.03,27.6,18c0.134-0.233,0.084-0.583-0.149-1.05
					c-0.101-0.233-0.367-0.467-0.8-0.7c-0.034-0.1-0.101-0.133-0.2-0.1V16.1l-0.101,0.05l-0.5-0.1c0.067-0.066,0.084-0.1,0.051-0.1
					l-0.101,0.1c-0.566-0.133-1.017-0.233-1.35-0.3l-0.4-0.1c-0.5-0.233-0.783-0.6-0.85-1.1l0.3,0.25c0.233,0.233,0.4,0.35,0.5,0.35
					v0.1c0.167-0.033,0.417,0.05,0.75,0.25h0.15v0.05L25,15.5v0.1l0.05-0.1c0.066-0.067,0.167-0.067,0.3,0v0.05h0.601L25.9,15.6
					l0.149-0.05c0,0.034,0.05,0.034,0.15,0v0.05c0.033,0.033,0.066,0.017,0.1-0.05v0.05c0.033-0.033,0.066-0.017,0.101,0.05h0.25
					c0,0.033-0.034,0.067-0.101,0.1c0.134,0,0.367,0.083,0.7,0.25L27.3,16.1z M25.2,20.1c0,0.066-0.017,0.1-0.05,0.1v0.075
					L25.2,20.3v-0.05l0.1-0.05l0.05,0.05V20.2l0.351-0.15l0.55-0.45c0.095-0.024,0.153-0.065,0.175-0.125
					c-0.017-0.05-0.058-0.042-0.125,0.025v-0.05c-0.033,0-0.083-0.034-0.149-0.1v-0.1L26.05,19.4L25.9,19.35L25.55,19.7H25.5
					c0,0.033-0.05,0.1-0.15,0.2c-0.1,0.033-0.133,0.083-0.1,0.15L25.15,20L25.2,20.1z M26.05,20.5v0.05H26L26.05,20.5z"/>
			</g>
		</g>
		<g>
			<g>
				<path style="fill-rule:evenodd;clip-rule:evenodd;fill:#7E613E;" d="M25.8,13.25c-0.033-0.023-0.05-0.023-0.05,0
					c0.033,0.033,0.05,0.083,0.05,0.15l-0.149,0.05l-0.101-0.1V13.3l-0.05,0.1v0.2l-0.05-0.1l0.05,0.2h-0.05v0.05
					c-0.033,0.033-0.066,0.033-0.101,0V13.7l-0.05,0.05c-0.033,0.067-0.033,0.1,0,0.1v0.1l-0.05-0.05v0.15L25.2,14v0.05
					c0,0.033,0,0.066,0,0.1l0.1,0.05l-0.05,0.05h0.1v0.1L25.4,14.3c0.066-0.033,0.133,0,0.199,0.1l-0.05,0.05
					c0.066,0,0.217,0.033,0.45,0.1l0.1-0.1c0.034,0,0.034-0.017,0-0.05H26.2v-0.05l-0.05-0.1l0.1,0.05
					c-0.033-0.233-0.083-0.4-0.15-0.5l0.051-0.1l-0.101-0.05h0.05L26,13.6l0.1-0.05L26,13.5l-0.05-0.1
					c-0.033-0.01-0.05-0.026-0.05-0.05h0.05c-0.031-0.031-0.056-0.056-0.075-0.075L25.85,13.3
					C25.829,13.279,25.813,13.263,25.8,13.25c0.02,0,0.044,0.009,0.075,0.025L25.85,13.25H25.8z M26.55,13.45
					c0.033,0.1,0.066,0.3,0.101,0.6c-0.034,0.1-0.034,0.184,0,0.25H26.6c0.067,0.002,0.101,0.036,0.101,0.1
					c0.033,0.067-0.05,0.2-0.25,0.4c-0.198,0.166-0.365,0.249-0.5,0.25c0.032-0.001,0.032-0.018,0-0.05H25.9v0.05
					c-0.269-0.06-0.577-0.293-0.926-0.7L24.95,14.4v0.05H24.85c0.034,0.033,0.017,0.05-0.05,0.05l-0.05-0.05v0.1l0.05,0.05h-0.1
					l-0.05-0.05l0.05,0.1c0.033,0.033,0.033,0.067,0,0.1c-0.033,0.067-0.066,0.083-0.101,0.05l-0.05,0.1H24.4l0.1,0.1
					c0,0.067-0.033,0.1-0.1,0.1l-0.051-0.05c0.032,0.034,0.016,0.05-0.05,0.05l0.101,0.05c0,0.067-0.017,0.083-0.051,0.05v0.05
					L24.2,15.4v0.05c0.023,0.043,0.023,0.076,0,0.1h-0.05l0.05,0.05H24.1v0.05h-0.05v0.05h0.05l0.051,0.05L24.1,15.8v0.05l0.051,0.1
					H24.1L24.15,16H24.1l0.051,0.05c-0.032,0.033-0.066,0.049-0.101,0.05h0.101c0.066,0.033,0.083,0.066,0.05,0.1h0.05
					c0,0.033,0.017,0.083,0.05,0.15L24.4,16.4l0.05-0.05c-0.033,0.066-0.033,0.1,0,0.1l0.05-0.05v0.05h0.05v0.05l0.05-0.05v0.15
					c0.067-0.1,0.15-0.15,0.25-0.15c0.032,0.032,0.05,0.032,0.051,0c0.032,0.032,0.049,0.032,0.05,0V16.4L25,16.5v-0.05
					c0.033,0.066,0.033,0.15,0,0.25h0.05v-0.05c0.023-0.023,0.032-0.065,0.025-0.125L25.1,16.5v-0.15h0.025l0.075,0.1l-0.05-0.15
					l0.05,0.05c0.033,0.033,0.05,0.033,0.05,0V16.3l0.05,0.05h0.05c0.034-0.033,0.034-0.067,0-0.1v-0.1L25.4,16.2v0.05h0.05
					L25.4,16.1c0.032,0.032,0.049,0.032,0.05,0v0.05l0.1,0.05l-0.05-0.1l0.05,0.05l-0.05-0.1l0.15,0.05v0.1l0.1,0.1v-0.05
					c-0.033-0.1-0.066-0.183-0.1-0.25c0.1,0.133,0.133,0.15,0.1,0.05l0.1,0.05V16c-0.001,0.032-0.018,0.032-0.05,0
					c0.066,0,0.084-0.033,0.05-0.1l0.051-0.05v0.05c0.066,0.033,0.1,0.017,0.1-0.05c0.033,0.033,0.033,0.066,0,0.1
					c0.034-0.033,0.084-0.016,0.15,0.05v-0.05L26.05,15.9l0.05-0.15l0.051,0.1L26.3,15.7c0.033,0.033,0.066,0.033,0.101,0v-0.15
					c0.066,0,0.1-0.05,0.1-0.15l0.15,0.1c0-0.033-0.017-0.05-0.051-0.05c0.066-0.033,0.083-0.066,0.051-0.1l0.05,0.05v-0.05
					l0.05,0.05l0.05-0.05l-0.05-0.05l0.05-0.1l0.05,0.05l0.051,0.1h0.05L26.9,15.4H26.85l0.051,0.1L26.8,15.6l-0.05-0.15L26.7,15.5
					l0.05,0.1v0.1l-0.15,0.15l-0.05-0.05c0.033,0.067,0.017,0.133-0.05,0.2c-0.033,0.067-0.083,0.1-0.15,0.1l-0.25,0.3v-0.05
					c0,0.032-0.017,0.032-0.05,0v0.1l-0.1,0.15l-0.05-0.05l-0.15,0.15l-0.05-0.05l-0.05,0.15l-0.15,0.05
					c-0.066,0.1-0.217,0.183-0.45,0.25v-0.05c-0.3,0.034-0.5,0.067-0.6,0.1l0.05-0.1c-0.066-0.066-0.1-0.05-0.1,0.05
					c-0.101,0-0.15-0.033-0.15-0.1h-0.1l-0.2-0.125V16.8c-0.033-0.066-0.066-0.066-0.101,0c-0.133-0.1-0.199-0.2-0.199-0.3H23.6
					l-0.1-0.3h0.05l-0.1-0.05c0.066-0.2,0.1-0.333,0.1-0.4c0-0.033,0.05-0.25,0.15-0.65c0.1-0.067,0.116-0.133,0.05-0.2h0.1
					c0.067-0.066,0.101-0.133,0.101-0.2l0.149-0.15v0.05c0.034,0,0.051-0.017,0.051-0.05L24.1,14.5l0.301-0.45
					c0.1-0.033,0.149-0.033,0.149,0L24.65,14L24.6,13.95h0.051c-0.067-0.367-0.15-0.633-0.25-0.8l0.3,0.05
					c0.106,0.026,0.19,0.118,0.25,0.275l0.6-0.675C26.184,13.033,26.517,13.25,26.55,13.45z M25.05,16.55v-0.1
					c0.01,0.029,0.019,0.054,0.025,0.075L25.05,16.55z"/>
			</g>
		</g>
	</g>
</g>
</svg>
