<?xml version="1.0" encoding="iso-8859-1"?>
<!-- Generator: Adobe Illustrator 15.1.0, SVG Export Plug-In . SVG Version: 6.00 Build 0)  -->
<!DOCTYPE svg PUBLIC "-//W3C//DTD SVG 1.1//EN" "http://www.w3.org/Graphics/SVG/1.1/DTD/svg11.dtd">
<svg version="1.1" id="FlashAICB" xmlns="http://www.w3.org/2000/svg" xmlns:xlink="http://www.w3.org/1999/xlink" x="0px" y="0px"
	 width="1199.25px" height="610.9px" viewBox="0 0 1199.25 610.9" style="enable-background:new 0 0 1199.25 610.9;"
	 xml:space="preserve">
<path style="fill-rule:evenodd;clip-rule:evenodd;fill:#5D5021;" d="M1144.05,215.15c18.5,32.5,29.8,68.767,33.9,108.8
	c3.467,33.7,1.733,68.533-5.2,104.5c-5.733,29.767-30.767,56.667-75.1,80.7c-36.967,20.066-86.65,37.8-149.051,53.199
	c-48.666,12-103.35,22.2-164.05,30.601c-41.899,5.8-81.933,10.184-120.1,13.149c-17.833,1.367-87.75,2.518-209.75,3.45
	C327.5,610.483,175.934,610.934,0,610.9c16.8-21.367,30.184-41.434,40.15-60.2c15.867-29.934,27.317-59.667,34.35-89.2
	c3.3-13.934,5.967-29.65,8-47.15c1.3-11.466,2.65-27.366,4.05-47.699c1.434-20.434,2.434-36.867,3-49.301
	c1-21.666,1.333-41.5,1-59.5c-0.366-21.034-1.633-40.817-3.8-59.35c-1.967-16.767-3.816-30.316-5.55-40.65
	c-2.467-14.833-5.4-28.2-8.8-40.1c-2.033-7-4.783-14.85-8.25-23.55c-1.133-2.9-4.333-10.583-9.6-23.05
	c-3.6-8.534-7.716-16.684-12.35-24.45C32.033,29.967,20.267,15.05,6.9,1.95C214.367,8.517,388.083,15.934,528.05,24.2
	C698.816,34.333,817.434,45.634,883.9,58.1c67.267,12.633,123.399,33.4,168.399,62.3
	C1092.033,145.967,1122.617,177.55,1144.05,215.15z"/>
<g>
	
		<linearGradient id="SVGID_1_" gradientUnits="userSpaceOnUse" x1="-17.6626" y1="-1096.2852" x2="326.7338" y2="-1096.2852" gradientTransform="matrix(-0.0164 0.9999 -0.9999 -0.0164 -4.749708e-004 3.369898e-005)">
		<stop  offset="0" style="stop-color:#000000;stop-opacity:0.298"/>
		<stop  offset="0.8902" style="stop-color:#000000;stop-opacity:0.098"/>
	</linearGradient>
	<path style="fill-rule:evenodd;clip-rule:evenodd;fill:url(#SVGID_1_);" d="M1135.35,189.1l5.851,6.45
		c1.933,73.267-14.601,138.867-49.601,196.8c-6.433,10.567-14.383,21.767-23.85,33.601c-7.2,9-16.267,19.566-27.2,31.7
		c1.067-1.301,2.25-2.967,3.55-5c1.567-2.5,2.684-4.2,3.351-5.101c1.2-1.7,5.399-7.399,12.6-17.1c5.333-7.2,9.517-13.134,12.55-17.8
		c8.301-12.801,14.934-23.567,19.9-32.301c6.867-12.033,12.4-23.267,16.6-33.699L1135.35,189.1z"/>
	
		<linearGradient id="SVGID_2_" gradientUnits="userSpaceOnUse" x1="-14.3506" y1="-996.3398" x2="324.6699" y2="-996.3398" gradientTransform="matrix(-0.0164 0.9999 -0.9999 -0.0164 -4.712716e-004 4.912913e-005)">
		<stop  offset="0" style="stop-color:#000000;stop-opacity:0.298"/>
		<stop  offset="0.8902" style="stop-color:#000000;stop-opacity:0.098"/>
	</linearGradient>
	<path style="fill-rule:evenodd;clip-rule:evenodd;fill:url(#SVGID_2_);" d="M984.1,88.9c5.767,2.3,10.567,4.283,14.4,5.95
		c1.833,11.267,3.316,22.283,4.45,33.05c1.233,11.533,1.8,24.55,1.7,39.05c-0.067,6.533-0.45,19.483-1.15,38.85
		c-0.5,12.5-1.483,25.083-2.95,37.75c-0.434,7.934-0.967,14.25-1.6,18.95c-1.134,8.6-3.101,14.433-5.9,17.5
		c-0.033-3.133,0.617-7.817,1.95-14.05c1.467-6.8,2.283-11.633,2.45-14.5c1.033-17.867,1-34.434-0.101-49.7
		c-0.366-5.367-0.583-14.7-0.649-28c-0.066-12.133-0.417-21.583-1.05-28.35c-0.767-7.867-2.384-17.283-4.851-28.25
		C989.366,110.917,987.134,101.5,984.1,88.9z"/>
	
		<linearGradient id="SVGID_3_" gradientUnits="userSpaceOnUse" x1="-14.0942" y1="-1020.1216" x2="323.551" y2="-1020.1216" gradientTransform="matrix(-0.0164 0.9999 -0.9999 -0.0164 6.062351e-005 1.253374e-004)">
		<stop  offset="0" style="stop-color:#000000;stop-opacity:0.298"/>
		<stop  offset="0.8902" style="stop-color:#000000;stop-opacity:0.098"/>
	</linearGradient>
	<path style="fill-rule:evenodd;clip-rule:evenodd;fill:url(#SVGID_3_);" d="M1021.4,105.55c2.8,16.2,4.066,30.233,3.8,42.1
		c-0.067,4.067-0.567,10.184-1.5,18.35c-1.066,9.2-1.7,15.583-1.9,19.15c-0.434-25.233-3.95-53.4-10.55-84.5
		C1013.55,101.717,1016.934,103.35,1021.4,105.55z"/>
	
		<linearGradient id="SVGID_4_" gradientUnits="userSpaceOnUse" x1="-16.0723" y1="-1119.0322" x2="325.6486" y2="-1119.0322" gradientTransform="matrix(-0.0164 0.9999 -0.9999 -0.0164 -1.701489e-004 3.643334e-005)">
		<stop  offset="0" style="stop-color:#000000;stop-opacity:0.298"/>
		<stop  offset="0.8902" style="stop-color:#000000;stop-opacity:0.098"/>
	</linearGradient>
	<path style="fill-rule:evenodd;clip-rule:evenodd;fill:url(#SVGID_4_);" d="M1109.6,164.05c6.467,5.667,12.601,11.45,18.4,17.35
		c-1.2,13.8-3.15,28.717-5.85,44.75c-1.434,11.467-2.533,20.033-3.301,25.7c-1.366,10.033-3.416,18.4-6.149,25.1
		c-3.267,8.133-6.717,18.35-10.351,30.649c5.768-21.133,9.15-44.149,10.15-69.05C1113.367,216.85,1112.4,192.017,1109.6,164.05z"/>
	
		<linearGradient id="SVGID_5_" gradientUnits="userSpaceOnUse" x1="-16.1865" y1="-1045.335" x2="326.7096" y2="-1045.335" gradientTransform="matrix(-0.0164 0.9999 -0.9999 -0.0164 4.473813e-004 -8.137152e-005)">
		<stop  offset="0" style="stop-color:#000000;stop-opacity:0.298"/>
		<stop  offset="0.8902" style="stop-color:#000000;stop-opacity:0.098"/>
	</linearGradient>
	<path style="fill-rule:evenodd;clip-rule:evenodd;fill:url(#SVGID_5_);" d="M1093.95,151.05c-0.467,11.7-1.684,22.8-3.65,33.3
		c-6.833,36.6-13.133,67.85-18.899,93.75c-3.634,16.267-9.217,33.716-16.75,52.35c-5.834,14.434-13.518,31.083-23.051,49.95
		c-5.433,10.767-12.949,22.583-22.55,35.449c-3.8,5.101-11.066,14.284-21.8,27.551c32.467-41.7,55.2-89.233,68.2-142.601
		c12.767-52.5,15.833-109.383,9.2-170.65C1074.95,136.817,1084.717,143.783,1093.95,151.05z"/>
	
		<linearGradient id="SVGID_6_" gradientUnits="userSpaceOnUse" x1="-17.8154" y1="-1015.876" x2="325.9056" y2="-1015.876" gradientTransform="matrix(-0.0164 0.9999 -0.9999 -0.0164 4.439689e-004 8.418038e-005)">
		<stop  offset="0" style="stop-color:#000000;stop-opacity:0.298"/>
		<stop  offset="0.8902" style="stop-color:#000000;stop-opacity:0.098"/>
	</linearGradient>
	<path style="fill-rule:evenodd;clip-rule:evenodd;fill:url(#SVGID_6_);" d="M1025,295.1l17.4-64.55
		c-3.967,42.767-13.483,82.934-28.551,120.5c-4.699,11.7-10.25,22.316-16.649,31.851c-3.101,5.3-5.617,9.416-7.55,12.35
		c-3.534,5.3-7.017,9.017-10.45,11.15c0.033-4.767,2.533-11.65,7.5-20.65c2.8-5.1,7.217-12.6,13.25-22.5
		c5.733-10.1,10.75-21.25,15.05-33.45C1018.434,320.033,1021.767,308.467,1025,295.1z"/>
	
		<linearGradient id="SVGID_7_" gradientUnits="userSpaceOnUse" x1="-18.249" y1="-1199.4419" x2="326.2473" y2="-1199.4419" gradientTransform="matrix(-0.0164 0.9999 -0.9999 -0.0164 -3.193095e-004 0)">
		<stop  offset="0" style="stop-color:#000000;stop-opacity:0.298"/>
		<stop  offset="0.8902" style="stop-color:#000000;stop-opacity:0.098"/>
	</linearGradient>
	<path style="fill-rule:evenodd;clip-rule:evenodd;fill:url(#SVGID_7_);" d="M1190.8,269.8c2.8,5.667,5.617,11.867,8.45,18.6
		c-2.533,10.567-5.517,21.1-8.95,31.6L1190.8,269.8z"/>
	
		<linearGradient id="SVGID_8_" gradientUnits="userSpaceOnUse" x1="-18.3247" y1="-1126.4521" x2="326.6716" y2="-1126.4521" gradientTransform="matrix(-0.0164 0.9999 -0.9999 -0.0164 -3.242660e-004 -1.441501e-004)">
		<stop  offset="0" style="stop-color:#000000;stop-opacity:0.298"/>
		<stop  offset="0.8902" style="stop-color:#000000;stop-opacity:0.098"/>
	</linearGradient>
	<path style="fill-rule:evenodd;clip-rule:evenodd;fill:url(#SVGID_8_);" d="M1177.1,244.55l-0.6,7.3
		c-2.733,11.433-5.816,22.383-9.25,32.85c-7.066,21.233-14.617,40.483-22.65,57.75c-9.1,19.6-19.316,37.684-30.649,54.25
		c-5.9,8.7-13.717,18.616-23.45,29.75c-4.367,5-12.983,14.467-25.85,28.399c17.767-20.267,33.083-41.899,45.949-64.899
		c19.4-34.566,33.4-72.2,42-112.9c3.934-18.767,6.667-37.783,8.2-57.05C1166.267,227.467,1171.7,235.65,1177.1,244.55z"/>
	
		<linearGradient id="SVGID_9_" gradientUnits="userSpaceOnUse" x1="-17.7085" y1="-1178.7778" x2="326.1876" y2="-1178.7778" gradientTransform="matrix(-0.0164 0.9999 -0.9999 -0.0164 1.493469e-004 1.504272e-004)">
		<stop  offset="0" style="stop-color:#000000;stop-opacity:0.298"/>
		<stop  offset="0.8902" style="stop-color:#000000;stop-opacity:0.098"/>
	</linearGradient>
	<path style="fill-rule:evenodd;clip-rule:evenodd;fill:url(#SVGID_9_);" d="M1177.1,244.55c2.934,4.867,5.634,9.633,8.101,14.3
		c-3.2,18.633-7.351,36.433-12.45,53.4c-1.5,5.167-2.5,8.316-3,9.45c-1.633,3.6-3.867,6.133-6.7,7.6
		c0.601-3.833,2.067-9.233,4.4-16.2c2.933-8.766,4.717-14.35,5.35-16.75l3.7-44.5L1177.1,244.55z"/>
	
		<linearGradient id="SVGID_10_" gradientUnits="userSpaceOnUse" x1="-18.7246" y1="-1195.2676" x2="326.3217" y2="-1195.2676" gradientTransform="matrix(-0.0164 0.9999 -0.9999 -0.0164 -1.919530e-004 1.833960e-004)">
		<stop  offset="0" style="stop-color:#000000;stop-opacity:0.298"/>
		<stop  offset="0.8902" style="stop-color:#000000;stop-opacity:0.098"/>
	</linearGradient>
	<polygon style="fill-rule:evenodd;clip-rule:evenodd;fill:url(#SVGID_10_);" points="1190.3,320.6 1190.05,320.85 1190.3,320 	"/>
	
		<linearGradient id="SVGID_11_" gradientUnits="userSpaceOnUse" x1="-19.9409" y1="-1168.0137" x2="326.4056" y2="-1168.0137" gradientTransform="matrix(-0.0164 0.9999 -0.9999 -0.0164 4.545413e-004 2.421811e-004)">
		<stop  offset="0" style="stop-color:#000000;stop-opacity:0.298"/>
		<stop  offset="0.8902" style="stop-color:#000000;stop-opacity:0.098"/>
	</linearGradient>
	<path style="fill-rule:evenodd;clip-rule:evenodd;fill:url(#SVGID_11_);" d="M1162.7,379.8c1.333-2.033,3.217-6.149,5.649-12.35
		c1.4-3.634,3.7-9.7,6.9-18.2c6.3-16.3,11.233-25.767,14.8-28.4c-9.5,28.567-21.933,55.284-37.3,80.15
		c-3.267,5.833-5.95,10.316-8.05,13.45c-3.7,5.633-7.25,9.566-10.65,11.8c2.333-4.5,6.983-12.033,13.95-22.6
		C1155.066,392.917,1159.967,384.967,1162.7,379.8z"/>
	
		<linearGradient id="SVGID_12_" gradientUnits="userSpaceOnUse" x1="-14.8276" y1="-926.9072" x2="326.8183" y2="-926.9072" gradientTransform="matrix(-0.0164 0.9999 -0.9999 -0.0164 3.307555e-004 -4.788116e-005)">
		<stop  offset="0" style="stop-color:#000000;stop-opacity:0.298"/>
		<stop  offset="0.8902" style="stop-color:#000000;stop-opacity:0.098"/>
	</linearGradient>
	<path style="fill-rule:evenodd;clip-rule:evenodd;fill:url(#SVGID_12_);" d="M972.65,136.1c5.267,35.8,5.366,73.533,0.3,113.2
		c-6.5,50.967-20.9,97.816-43.2,140.55c-4.9,9.4-9.6,17.617-14.1,24.65c-5.467,8.566-11.267,16.417-17.4,23.55
		c-4.167,4.834-9.8,10.884-16.9,18.15c-7.033,7.133-12,12.2-14.899,15.2c21.267-23.434,39.383-49.117,54.35-77.051
		c11.934-22.233,21.384-46.966,28.351-74.199c5.8-22.767,10.333-49.317,13.6-79.65c2.866-26.433,3.55-53.583,2.05-81.45
		c-0.133-3.667-1.1-11.033-2.899-22.1c-1.233-10.133-0.834-17.217,1.199-21.25L956.9,78.8l7.35,2.55
		c1.366,7.8,2.85,16.967,4.45,27.5C970.467,121.017,971.783,130.1,972.65,136.1z"/>
	
		<linearGradient id="SVGID_13_" gradientUnits="userSpaceOnUse" x1="-13.9155" y1="-934.9644" x2="324.38" y2="-934.9644" gradientTransform="matrix(-0.0164 0.9999 -0.9999 -0.0164 1.263712e-004 1.324825e-004)">
		<stop  offset="0" style="stop-color:#000000;stop-opacity:0.298"/>
		<stop  offset="0.8902" style="stop-color:#000000;stop-opacity:0.098"/>
	</linearGradient>
	<path style="fill-rule:evenodd;clip-rule:evenodd;fill:url(#SVGID_13_);" d="M931.35,284.9l-0.25,0.85
		c-0.899-3.433-0.816-8.233,0.25-14.4c0.634-3.434,1.567-8.55,2.801-15.35c1.633-14.067,2.1-30.467,1.399-49.2
		C933.884,162,928.7,117.75,920,74.05l0.4-6.45c4.267,1.167,10,2.833,17.199,5c1.5,10.267,3.384,25.733,5.65,46.4
		c3.3,29.967,3.783,56.917,1.45,80.85c-1.033,10.933-3.117,25.35-6.25,43.25C934.45,265.9,932.083,279.833,931.35,284.9z"/>
	
		<linearGradient id="SVGID_14_" gradientUnits="userSpaceOnUse" x1="-13.8174" y1="-850.5557" x2="325.7284" y2="-850.5557" gradientTransform="matrix(-0.0164 0.9999 -0.9999 -0.0164 -7.341057e-005 1.830868e-004)">
		<stop  offset="0" style="stop-color:#000000;stop-opacity:0.298"/>
		<stop  offset="0.8902" style="stop-color:#000000;stop-opacity:0.098"/>
	</linearGradient>
	<path style="fill-rule:evenodd;clip-rule:evenodd;fill:url(#SVGID_14_);" d="M880.95,101.05l0.8,100.7
		c-1.333,13.1-3.316,26.317-5.95,39.65c-4.1,20.233-8.517,38.35-13.25,54.35c-5.533,18.733-11.95,36.116-19.25,52.15
		c-3.733,8.267-9.066,18.216-16,29.85c-8.1,13.167-14,22.8-17.7,28.9c11.467-20.334,21.117-41.551,28.95-63.65
		c11.767-33.233,19.467-68.45,23.101-105.65c2.833-29.533,3.083-59.35,0.75-89.45c-0.101-1.6-0.667-5.65-1.7-12.15
		c-0.667-6.067-0.184-9.95,1.45-11.65l-5.65-70.85c5.866,1.067,11.616,2.167,17.25,3.3C876.783,71.417,879.184,86.25,880.95,101.05z
		"/>
	
		<linearGradient id="SVGID_15_" gradientUnits="userSpaceOnUse" x1="-13.2139" y1="-818.6758" x2="323.7064" y2="-818.6758" gradientTransform="matrix(-0.0164 0.9999 -0.9999 -0.0164 3.053807e-004 -1.451038e-004)">
		<stop  offset="0" style="stop-color:#000000;stop-opacity:0.298"/>
		<stop  offset="0.8902" style="stop-color:#000000;stop-opacity:0.098"/>
	</linearGradient>
	<path style="fill-rule:evenodd;clip-rule:evenodd;fill:url(#SVGID_15_);" d="M820.05,47.45c1.566,7.466,3.467,17.117,5.7,28.95
		c3.634,19,5.616,39.2,5.95,60.6c0.3,18.033-0.566,38.067-2.601,60.1c-0.5,10.633-0.883,18.566-1.149,23.8
		c-0.467,9.333-1.667,17.233-3.601,23.7c-2.5,8.433-4.75,18.217-6.75,29.35c4.233-26.467,4.75-56.434,1.551-89.9
		c-1.967-20.2-6.867-52.2-14.7-96l-1.8-42.95C807.717,45.733,813.517,46.517,820.05,47.45z"/>
	
		<linearGradient id="SVGID_16_" gradientUnits="userSpaceOnUse" x1="-14.0527" y1="-887.502" x2="324.1678" y2="-887.502" gradientTransform="matrix(-0.0164 0.9999 -0.9999 -0.0164 -3.634300e-004 3.347918e-005)">
		<stop  offset="0" style="stop-color:#000000;stop-opacity:0.298"/>
		<stop  offset="0.8902" style="stop-color:#000000;stop-opacity:0.098"/>
	</linearGradient>
	<path style="fill-rule:evenodd;clip-rule:evenodd;fill:url(#SVGID_16_);" d="M880.95,101.05L880.8,86.4
		c5.434,30.4,8.434,60.567,9,90.5c0.533,29.8-1.35,58.934-5.649,87.4c-0.733,4.967-1.217,7.883-1.45,8.75c-0.967,3.4-2.634,6-5,7.8
		c0-3.467,0.583-8.4,1.75-14.8c1.566-8.6,2.467-13.767,2.7-15.5l-0.4-48.8L880.95,101.05z"/>
	
		<linearGradient id="SVGID_17_" gradientUnits="userSpaceOnUse" x1="-13.5967" y1="-897.7661" x2="323.9485" y2="-897.7661" gradientTransform="matrix(-0.0164 0.9999 -0.9999 -0.0164 -4.702583e-004 -2.460927e-004)">
		<stop  offset="0" style="stop-color:#000000;stop-opacity:0.298"/>
		<stop  offset="0.8902" style="stop-color:#000000;stop-opacity:0.098"/>
	</linearGradient>
	<path style="fill-rule:evenodd;clip-rule:evenodd;fill:url(#SVGID_17_);" d="M891.8,60.45c8.233,35.867,13.15,71.017,14.75,105.45
		c1.634,35.133-0.217,69.017-5.55,101.65L884.5,58.8L891.8,60.45z"/>
	
		<linearGradient id="SVGID_18_" gradientUnits="userSpaceOnUse" x1="-13.249" y1="-765.0215" x2="325.6964" y2="-765.0215" gradientTransform="matrix(-0.0164 0.9999 -0.9999 -0.0164 -4.545525e-004 -3.518537e-005)">
		<stop  offset="0" style="stop-color:#000000;stop-opacity:0.298"/>
		<stop  offset="0.8902" style="stop-color:#000000;stop-opacity:0.098"/>
	</linearGradient>
	<path style="fill-rule:evenodd;clip-rule:evenodd;fill:url(#SVGID_18_);" d="M758.55,56.9L754,39.4c11.5,1.2,22.5,2.45,33,3.75
		c5,23.467,8.316,43.633,9.95,60.5c2.166,21.867,2.033,41.934-0.4,60.2c-4.866,36.833-8.934,66.717-12.2,89.65
		c-2.133,15.133-5.966,31.917-11.5,50.35c-3.767,12.534-9.283,28.733-16.55,48.6c-3.733,10.2-9.383,21.916-16.95,35.149
		c-6.833,11.367-12.366,20.534-16.6,27.5c28.3-49.233,45.366-104.55,51.2-165.95C779.616,189.283,774.483,125.2,758.55,56.9z"/>
	
		<linearGradient id="SVGID_19_" gradientUnits="userSpaceOnUse" x1="-12.6514" y1="-692.8301" x2="323.0937" y2="-692.8301" gradientTransform="matrix(-0.0164 0.9999 -0.9999 -0.0164 3.571436e-004 2.570897e-004)">
		<stop  offset="0" style="stop-color:#000000;stop-opacity:0.298"/>
		<stop  offset="0.8902" style="stop-color:#000000;stop-opacity:0.098"/>
	</linearGradient>
	<path style="fill-rule:evenodd;clip-rule:evenodd;fill:url(#SVGID_19_);" d="M690.5,33.35v0.1
		c8.267,29.867,14.316,59.75,18.15,89.65c1.399,10.967,2.216,23.583,2.449,37.85c0.067,3.8,0.034,16.383-0.1,37.75
		c-0.1,12.566-0.616,24.783-1.55,36.65c-0.066,7.566-0.3,13.617-0.7,18.15c-0.7,8.3-2.434,14.167-5.2,17.6
		c-0.267-2.934,0.134-7.45,1.2-13.55c1.167-6.767,1.767-11.483,1.8-14.15c0.2-16.867-0.483-32.7-2.05-47.5
		c-0.6-5.533-1.083-14.533-1.45-27c-0.366-12.133-0.916-21.316-1.649-27.55c-1-8.267-3.267-19.1-6.801-32.5
		c-4.333-16.434-7.033-27.383-8.1-32.85l-15.45-44.3L690.5,33.35z"/>
	
		<linearGradient id="SVGID_20_" gradientUnits="userSpaceOnUse" x1="-12.5537" y1="-717.2578" x2="321.5912" y2="-717.2578" gradientTransform="matrix(-0.0164 0.9999 -0.9999 -0.0164 -1.691356e-004 -2.440996e-004)">
		<stop  offset="0" style="stop-color:#000000;stop-opacity:0.298"/>
		<stop  offset="0.8902" style="stop-color:#000000;stop-opacity:0.098"/>
	</linearGradient>
	<path style="fill-rule:evenodd;clip-rule:evenodd;fill:url(#SVGID_20_);" d="M700.25,34.2l11.85,1.1
		c2.733,10.167,5.167,19.967,7.301,29.4c4.633,20.633,7.35,33.017,8.149,37.15c2.667,14.2,4.017,26.583,4.05,37.15
		c0.034,3.9-0.316,9.917-1.05,18.05c-0.8,8.833-1.25,15.067-1.35,18.7c-1.101-21.233-4.483-44.667-10.15-70.3
		C715.116,87.55,708.85,63.8,700.25,34.2z"/>
	
		<linearGradient id="SVGID_21_" gradientUnits="userSpaceOnUse" x1="-12.853" y1="-639.3936" x2="325.9674" y2="-639.3936" gradientTransform="matrix(-0.0164 0.9999 -0.9999 -0.0164 4.533865e-005 1.106411e-004)">
		<stop  offset="0" style="stop-color:#000000;stop-opacity:0.298"/>
		<stop  offset="0.8902" style="stop-color:#000000;stop-opacity:0.098"/>
	</linearGradient>
	<path style="fill-rule:evenodd;clip-rule:evenodd;fill:url(#SVGID_21_);" d="M656.8,30.55c1.233,3.434,2.4,7.9,3.5,13.4
		c1.667,8.1,2.5,12.183,2.5,12.25c2.7,11.233,5.367,24.566,8,40c2.867,17.7,5.017,30.867,6.45,39.5
		c5.767,34.367,6.717,71.25,2.85,110.65c-4.866,49.733-16.933,95.966-36.199,138.7c-4.367,9.634-8.434,17.834-12.2,24.601
		c-4.834,8.699-10.05,16.699-15.65,24c-3.7,4.833-9,11.166-15.899,19c-6.934,7.866-11.817,13.517-14.65,16.949
		c19.167-24.166,35.333-50.3,48.5-78.399c10.3-22,18.267-46.4,23.9-73.2c4.566-21.567,8.133-47.583,10.699-78.05
		c2.2-26.167,2.367-52.883,0.5-80.15c-0.199-3.633-1.283-10.816-3.25-21.55c-1.399-9.933-1-17.067,1.2-21.4l-14.899-86.7
		L656.8,30.55z"/>
	
		<linearGradient id="SVGID_22_" gradientUnits="userSpaceOnUse" x1="-16.6997" y1="-732.7393" x2="324.5963" y2="-732.7393" gradientTransform="matrix(-0.0164 0.9999 -0.9999 -0.0164 4.417654e-004 -1.299828e-004)">
		<stop  offset="0" style="stop-color:#000000;stop-opacity:0.298"/>
		<stop  offset="0.8902" style="stop-color:#000000;stop-opacity:0.098"/>
	</linearGradient>
	<path style="fill-rule:evenodd;clip-rule:evenodd;fill:url(#SVGID_22_);" d="M738.55,278.4L752,215.15
		c-1.667,40.7-8.066,79.333-19.2,115.9c-3.399,11.233-7.783,21.75-13.149,31.55c-2.467,5.267-4.5,9.384-6.101,12.351
		c-2.866,5.333-6,9.316-9.399,11.95c-1-4.034,0.449-10.483,4.35-19.351c2.233-5.033,5.9-12.566,11-22.6
		c4.7-10.066,8.667-21.084,11.9-33.05C733.866,302.833,736.25,291.667,738.55,278.4z"/>
	
		<linearGradient id="SVGID_23_" gradientUnits="userSpaceOnUse" x1="-15.6348" y1="-821.1372" x2="325.4112" y2="-821.1372" gradientTransform="matrix(-0.0164 0.9999 -0.9999 -0.0164 -1.728348e-004 2.140626e-004)">
		<stop  offset="0" style="stop-color:#000000;stop-opacity:0.298"/>
		<stop  offset="0.8902" style="stop-color:#000000;stop-opacity:0.098"/>
	</linearGradient>
	<path style="fill-rule:evenodd;clip-rule:evenodd;fill:url(#SVGID_23_);" d="M797.45,387.65c3.733-7.467,6.483-13.284,8.25-17.45
		c6-13.767,10.366-24.217,13.1-31.351c4.601-11.899,8.117-22.666,10.55-32.3L841,138.6c5.833,37.7,7.184,73.667,4.05,107.9
		c-3.3,35.8-11.55,70-24.75,102.6c-4.066,10-9.45,21.051-16.149,33.15c-4.233,7.667-10.45,18.267-18.65,31.8
		c0.667-1.267,1.35-2.866,2.05-4.8c0.834-2.366,1.45-4,1.851-4.9C790.833,401.116,793.517,395.55,797.45,387.65z"/>
	
		<linearGradient id="SVGID_24_" gradientUnits="userSpaceOnUse" x1="-17.8491" y1="-890.624" x2="325.072" y2="-890.624" gradientTransform="matrix(-0.0164 0.9999 -0.9999 -0.0164 1.132414e-004 -1.270361e-004)">
		<stop  offset="0" style="stop-color:#000000;stop-opacity:0.298"/>
		<stop  offset="0.8902" style="stop-color:#000000;stop-opacity:0.098"/>
	</linearGradient>
	<path style="fill-rule:evenodd;clip-rule:evenodd;fill:url(#SVGID_24_);" d="M892,295.4c2.934-14.967,5.884-23.95,8.85-26.95
		c-4.333,26.066-10.783,50.983-19.35,74.75c-1.7,5.467-3.134,9.717-4.3,12.75c-2.066,5.366-4.4,9.3-7,11.8
		c1.066-4.533,3.55-11.667,7.45-21.4c4.366-10.933,7.183-18.517,8.449-22.75c0.733-1.899,1.65-5.716,2.75-11.449
		C889.483,308.816,890.533,303.233,892,295.4z"/>
	
		<linearGradient id="SVGID_25_" gradientUnits="userSpaceOnUse" x1="-18.2139" y1="-905.3887" x2="325.6321" y2="-905.3887" gradientTransform="matrix(-0.0164 0.9999 -0.9999 -0.0164 -3.358517e-004 -7.833540e-005)">
		<stop  offset="0" style="stop-color:#000000;stop-opacity:0.298"/>
		<stop  offset="0.8902" style="stop-color:#000000;stop-opacity:0.098"/>
	</linearGradient>
	<path style="fill-rule:evenodd;clip-rule:evenodd;fill:url(#SVGID_25_);" d="M931.35,284.9l13.25-42.2
		c-3.5,32.167-10.866,63.666-22.1,94.5c-10.934,30.066-25.283,58.85-43.05,86.35c-2.667,4.134-6.483,8.8-11.45,14
		c-5.733,5.8-10,10.233-12.8,13.3c-0.733-1.3,1.967-6.133,8.1-14.5c8-10.966,12.217-16.816,12.65-17.55
		c17.934-28.533,32.083-59.434,42.45-92.7l12.699-40.35L931.35,284.9z"/>
	
		<linearGradient id="SVGID_26_" gradientUnits="userSpaceOnUse" x1="-12.4893" y1="-637.0234" x2="323.1558" y2="-637.0234" gradientTransform="matrix(-0.0164 0.9999 -0.9999 -0.0164 2.963040e-004 -6.394833e-005)">
		<stop  offset="0" style="stop-color:#000000;stop-opacity:0.298"/>
		<stop  offset="0.8902" style="stop-color:#000000;stop-opacity:0.098"/>
	</linearGradient>
	<path style="fill-rule:evenodd;clip-rule:evenodd;fill:url(#SVGID_26_);" d="M625.45,28.15l5.2,0.35
		c3.633,13.833,6.733,29.633,9.3,47.4c1.267,8.567,3.217,24.3,5.85,47.2c3.434,30.033,4.05,56.933,1.851,80.7
		c-0.9,10.534-2.95,25.267-6.15,44.2c-3.5,20.867-5.667,35-6.5,42.4c-1.3-3.066-1.467-7.717-0.5-13.95
		c0.533-3.467,1.4-8.667,2.6-15.6c1.367-13.434,1.517-29.583,0.45-48.45c-2.5-45.066-8-89-16.5-131.8L625.45,28.15z"/>
	
		<linearGradient id="SVGID_27_" gradientUnits="userSpaceOnUse" x1="-11.9409" y1="-576.5566" x2="318.9785" y2="-576.5566" gradientTransform="matrix(-0.0164 0.9999 -0.9999 -0.0164 2.932642e-004 2.116375e-004)">
		<stop  offset="0" style="stop-color:#000000;stop-opacity:0.298"/>
		<stop  offset="0.8902" style="stop-color:#000000;stop-opacity:0.098"/>
	</linearGradient>
	<path style="fill-rule:evenodd;clip-rule:evenodd;fill:url(#SVGID_27_);" d="M570.3,24.3h0.4c4.267,14.833,7.85,29.483,10.75,43.95
		C578.15,53.183,574.434,38.533,570.3,24.3z"/>
	
		<linearGradient id="SVGID_28_" gradientUnits="userSpaceOnUse" x1="-12.1655" y1="-583.3564" x2="321.3544" y2="-583.3564" gradientTransform="matrix(-0.0164 0.9999 -0.9999 -0.0164 3.484394e-004 3.976747e-005)">
		<stop  offset="0" style="stop-color:#000000;stop-opacity:0.298"/>
		<stop  offset="0.8902" style="stop-color:#000000;stop-opacity:0.098"/>
	</linearGradient>
	<path style="fill-rule:evenodd;clip-rule:evenodd;fill:url(#SVGID_28_);" d="M570.3,24.3c4.134,14.233,7.85,28.883,11.15,43.95
		c8.366,38.167,13.2,76.25,14.5,114.25c0.2,5.167,0.25,8.183,0.15,9.05c-0.3,3.534-1.467,6.25-3.5,8.15
		c-0.467-2.567-0.767-5.65-0.9-9.25c-0.067-1.934-0.1-5.25-0.1-9.95c0.066-5.033,0.017-9.117-0.15-12.25L567.2,24.1
		C568.533,24.167,569.566,24.233,570.3,24.3z"/>
	
		<linearGradient id="SVGID_29_" gradientUnits="userSpaceOnUse" x1="-12.1392" y1="-595.9229" x2="321.2058" y2="-595.9229" gradientTransform="matrix(-0.0164 0.9999 -0.9999 -0.0164 -1.657233e-004 7.862970e-005)">
		<stop  offset="0" style="stop-color:#000000;stop-opacity:0.298"/>
		<stop  offset="0.8902" style="stop-color:#000000;stop-opacity:0.098"/>
	</linearGradient>
	<path style="fill-rule:evenodd;clip-rule:evenodd;fill:url(#SVGID_29_);" d="M575.3,24.6l11.65,0.8
		c16.3,54.8,25.066,108.267,26.3,160.4L575.3,24.6z"/>
	
		<linearGradient id="SVGID_30_" gradientUnits="userSpaceOnUse" x1="-11.8555" y1="-514.8594" x2="321.0392" y2="-514.8594" gradientTransform="matrix(-0.0164 0.9999 -0.9999 -0.0164 -2.542883e-004 1.069903e-005)">
		<stop  offset="0" style="stop-color:#000000;stop-opacity:0.298"/>
		<stop  offset="0.8902" style="stop-color:#000000;stop-opacity:0.098"/>
	</linearGradient>
	<path style="fill-rule:evenodd;clip-rule:evenodd;fill:url(#SVGID_30_);" d="M493.45,19.55l22.55,1.3
		c3.6,14.467,6.55,29.867,8.85,46.2c1.966,13.967,3.566,29.417,4.8,46.35c1.3,10.833,2.267,18.934,2.9,24.3
		c1.134,9.566,1.317,17.667,0.55,24.3c-1,8.633-1.45,18.767-1.35,30.4c-0.667-25.5-4.75-53.733-12.25-84.7
		C514.467,86.833,505.783,57.45,493.45,19.55z"/>
	
		<linearGradient id="SVGID_31_" gradientUnits="userSpaceOnUse" x1="-12.3999" y1="-555.6865" x2="325.0453" y2="-555.6865" gradientTransform="matrix(-0.0164 0.9999 -0.9999 -0.0164 -4.722849e-004 -2.006479e-004)">
		<stop  offset="0" style="stop-color:#000000;stop-opacity:0.298"/>
		<stop  offset="0.8902" style="stop-color:#000000;stop-opacity:0.098"/>
	</linearGradient>
	<path style="fill-rule:evenodd;clip-rule:evenodd;fill:url(#SVGID_31_);" d="M591.6,180.5c-0.767,29.8-4.434,58.95-11,87.45
		c-4.667,20-9.6,37.966-14.8,53.899c-6.066,18.5-12.966,35.7-20.7,51.601c-3.967,8.166-9.567,18.017-16.8,29.55
		c-8.4,13-14.533,22.517-18.4,28.55c12.067-20.2,22.3-41.184,30.7-62.95c12.733-32.933,21.466-67.833,26.2-104.7
		c3.767-29.167,4.983-58.75,3.65-88.75c-0.034-1.566-0.467-5.583-1.3-12.05c-0.466-6.033,0.133-9.9,1.8-11.6L564.8,23.9l2.4,0.2
		l24.25,144.15C591.617,171.383,591.667,175.467,591.6,180.5z"/>
	
		<linearGradient id="SVGID_32_" gradientUnits="userSpaceOnUse" x1="-11.9468" y1="-476.1611" x2="323.4734" y2="-476.1611" gradientTransform="matrix(-0.0164 0.9999 -0.9999 -0.0164 -2.188720e-004 2.134182e-004)">
		<stop  offset="0" style="stop-color:#000000;stop-opacity:0.298"/>
		<stop  offset="0.8902" style="stop-color:#000000;stop-opacity:0.098"/>
	</linearGradient>
	<path style="fill-rule:evenodd;clip-rule:evenodd;fill:url(#SVGID_32_);" d="M492.1,79.8c0.8,29.567,1.8,60.017,3,91.35
		c0.566,15.434-0.133,32.9-2.1,52.4c-1.1,11.333-3.3,28.467-6.6,51.4c-1.5,10.7-4.533,23.3-9.1,37.8
		c-4.167,12.4-7.517,22.417-10.05,30.05c14.367-47.966,20.383-99.533,18.05-154.7c-2.333-54.767-12.816-111.684-31.45-170.75
		c7.467,0.367,17.233,0.9,29.3,1.6C488.617,40.85,491.6,61.133,492.1,79.8z"/>
	
		<linearGradient id="SVGID_33_" gradientUnits="userSpaceOnUse" x1="-11.4531" y1="-416.5654" x2="318.666" y2="-416.5654" gradientTransform="matrix(-0.0164 0.9999 -0.9999 -0.0164 -4.707407e-004 1.456998e-004)">
		<stop  offset="0" style="stop-color:#000000;stop-opacity:0.298"/>
		<stop  offset="0.8902" style="stop-color:#000000;stop-opacity:0.098"/>
	</linearGradient>
	<path style="fill-rule:evenodd;clip-rule:evenodd;fill:url(#SVGID_33_);" d="M424.05,54.95c0.6,3.8,1.167,9.816,1.7,18.05
		c0.6,8.733,1.15,15,1.65,18.8c-4.833-23.133-12.6-48.816-23.3-77.05c4.2,0.2,7.35,0.367,9.45,0.5
		C418.817,30.55,422.317,43.783,424.05,54.95z"/>
	
		<linearGradient id="SVGID_34_" gradientUnits="userSpaceOnUse" x1="-11.5098" y1="-400.8828" x2="320.385" y2="-400.8828" gradientTransform="matrix(-0.0164 0.9999 -0.9999 -0.0164 4.777126e-004 2.260245e-004)">
		<stop  offset="0" style="stop-color:#000000;stop-opacity:0.298"/>
		<stop  offset="0.8902" style="stop-color:#000000;stop-opacity:0.098"/>
	</linearGradient>
	<path style="fill-rule:evenodd;clip-rule:evenodd;fill:url(#SVGID_34_);" d="M378.25,13.5c5.933,0.267,10.367,0.483,13.3,0.65
		c2.733,8.567,5.217,16.9,7.45,25c3,10.833,5.733,23.434,8.2,37.8c0.2,1.1,2.167,13.8,5.9,38.1c1.867,11.967,3.4,24.417,4.6,37.35
		c1.233,7.767,2.066,13.983,2.5,18.65c0.733,8.6,0.05,14.667-2.05,18.2c-0.8-3.067-1.217-7.733-1.25-14
		c-0.033-7.033-0.267-11.9-0.7-14.6c-2.733-17.533-6.067-33.683-10-48.45c-1.534-5.733-3.45-14.817-5.75-27.25
		c-2.267-12.267-4.233-21.467-5.9-27.6c-1.767-6.5-4.233-13.85-7.4-22.05C386.117,32.667,383.15,25.4,378.25,13.5z"/>
	
		<linearGradient id="SVGID_35_" gradientUnits="userSpaceOnUse" x1="-11.6113" y1="-373.0278" x2="323.9337" y2="-373.0278" gradientTransform="matrix(-0.0164 0.9999 -0.9999 -0.0164 -1.757648e-004 -4.788116e-005)">
		<stop  offset="0" style="stop-color:#000000;stop-opacity:0.298"/>
		<stop  offset="0.8902" style="stop-color:#000000;stop-opacity:0.098"/>
	</linearGradient>
	<path style="fill-rule:evenodd;clip-rule:evenodd;fill:url(#SVGID_35_);" d="M357.65,12.5c1.5,4.633,3.55,11.2,6.15,19.7
		c2.767,9.066,4.784,15.583,6.05,19.55c10.767,34,17.65,71.3,20.65,111.9c3.8,50.9,0.85,99.533-8.85,145.9
		c-2.2,10.533-4.367,19.434-6.5,26.7c-2.8,9.533-6.083,18.333-9.85,26.4c-2.3,4.966-5.966,12.017-11,21.149
		c-4.533,8.2-7.85,14.45-9.95,18.75c12.4-27.233,22.017-56.017,28.85-86.35c5.233-23.667,8.066-49.7,8.5-78.1
		c0.3-22.067-0.917-49.067-3.65-81c-2.333-26.9-6.517-54-12.55-81.3c-0.767-3.633-2.95-10.816-6.55-21.55
		c-2.833-9.867-3.483-16.967-1.95-21.3l-6.6-20.8C351.933,12.25,354.35,12.367,357.65,12.5z"/>
	
		<linearGradient id="SVGID_36_" gradientUnits="userSpaceOnUse" x1="-11.3115" y1="-333.9336" x2="320.4832" y2="-333.9336" gradientTransform="matrix(-0.0164 0.9999 -0.9999 -0.0164 -1.669116e-005 -1.957975e-004)">
		<stop  offset="0" style="stop-color:#000000;stop-opacity:0.298"/>
		<stop  offset="0.8902" style="stop-color:#000000;stop-opacity:0.098"/>
	</linearGradient>
	<path style="fill-rule:evenodd;clip-rule:evenodd;fill:url(#SVGID_36_);" d="M329.5,11.2l7.4,28c7.9,30.1,12.684,57.1,14.35,81
		c0.767,10.066,1.217,25.1,1.35,45.1c0.133,20.467,0.5,35.083,1.1,43.85c-1.867-3.233-2.867-8.066-3-14.5
		c-0.1-3.6-0.167-8.967-0.2-16.1c-1.067-13.867-3.683-30.417-7.85-49.65c-8.9-41.367-19.566-80.883-32-118.55L329.5,11.2z"/>
	
		<linearGradient id="SVGID_37_" gradientUnits="userSpaceOnUse" x1="-13.9155" y1="-454.895" x2="322.8298" y2="-454.895" gradientTransform="matrix(-0.0164 0.9999 -0.9999 -0.0164 2.612602e-004 -1.419447e-004)">
		<stop  offset="0" style="stop-color:#000000;stop-opacity:0.298"/>
		<stop  offset="0.8902" style="stop-color:#000000;stop-opacity:0.098"/>
	</linearGradient>
	<path style="fill-rule:evenodd;clip-rule:evenodd;fill:url(#SVGID_37_);" d="M454.2,196.85l2.2-65.05
		c5.133,41.133,5.883,81.217,2.25,120.25c-1.167,12.233-3.333,23.45-6.5,33.65c-1.3,5.633-2.433,10.05-3.4,13.25
		c-1.7,5.767-3.933,10.066-6.7,12.899c-1.933-4.399-1.9-11.366,0.1-20.899c1.1-5.4,3.133-13.45,6.1-24.15
		c2.6-10.633,4.333-22.267,5.2-34.9C454.117,222.6,454.367,210.917,454.2,196.85z"/>
	
		<linearGradient id="SVGID_38_" gradientUnits="userSpaceOnUse" x1="-16.3184" y1="-397.8066" x2="323.4024" y2="-397.8066" gradientTransform="matrix(-0.0164 0.9999 -0.9999 -0.0164 -3.821757e-004 2.136305e-004)">
		<stop  offset="0" style="stop-color:#000000;stop-opacity:0.298"/>
		<stop  offset="0.8902" style="stop-color:#000000;stop-opacity:0.098"/>
	</linearGradient>
	<path style="fill-rule:evenodd;clip-rule:evenodd;fill:url(#SVGID_38_);" d="M376.35,395.55c13.3-30.1,23.167-62.267,29.6-96.5
		l18.2-87c-0.333,32.1-4.2,64.267-11.6,96.5c-7.066,30.733-17.2,60.8-30.4,90.2c-1.933,4.333-5.083,9.467-9.45,15.4
		c-5.067,6.6-8.767,11.6-11.1,15c-1.5-0.867,0.117-5.767,4.85-14.7C372.983,402.017,376.283,395.717,376.35,395.55z"/>
	
		<linearGradient id="SVGID_39_" gradientUnits="userSpaceOnUse" x1="-15.0415" y1="-612.2148" x2="323.404" y2="-612.2148" gradientTransform="matrix(-0.0164 0.9999 -0.9999 -0.0164 2.912376e-004 -1.808070e-004)">
		<stop  offset="0" style="stop-color:#000000;stop-opacity:0.298"/>
		<stop  offset="0.8902" style="stop-color:#000000;stop-opacity:0.098"/>
	</linearGradient>
	<path style="fill-rule:evenodd;clip-rule:evenodd;fill:url(#SVGID_39_);" d="M609.8,232.55c-0.033-3.5-0.1-9.367-0.2-17.6
		c0.034-15.633,1.25-25,3.65-28.1c0.6,27.066-0.85,53.316-4.35,78.75c-0.5,5.833-0.983,10.367-1.45,13.6
		c-0.9,5.8-2.351,10.05-4.351,12.75c0.034-5.067,0.917-12.733,2.65-23c2.066-12.133,3.283-20.217,3.65-24.25
		C609.7,242.7,609.833,238.65,609.8,232.55z"/>
	
		<linearGradient id="SVGID_40_" gradientUnits="userSpaceOnUse" x1="-12.8657" y1="-545.8418" x2="323.5797" y2="-545.8418" gradientTransform="matrix(-0.0164 0.9999 -0.9999 -0.0164 2.105106e-004 1.372024e-004)">
		<stop  offset="0" style="stop-color:#000000;stop-opacity:0.298"/>
		<stop  offset="0.8902" style="stop-color:#000000;stop-opacity:0.098"/>
	</linearGradient>
	<path style="fill-rule:evenodd;clip-rule:evenodd;fill:url(#SVGID_40_);" d="M539.45,294.25c3.267-16.867,5.35-28.05,6.25-33.55
		c2.1-12.833,3.4-24.233,3.9-34.2L532.1,54.45c23.566,76.7,29.316,149.1,17.25,217.2c-1.867,10.467-4.784,22.367-8.75,35.7
		c-1.7,5.733-5.383,17.301-11.05,34.7c0.367-1.399,0.667-3.166,0.9-5.3c0.267-2.6,0.483-4.384,0.65-5.35
		c0.733-4.067,2.083-10.15,4.05-18.25C537.25,304.55,538.684,298.25,539.45,294.25z"/>
	
		<linearGradient id="SVGID_41_" gradientUnits="userSpaceOnUse" x1="-11.335" y1="-267.9883" x2="323.9851" y2="-267.9883" gradientTransform="matrix(-0.0164 0.9999 -0.9999 -0.0164 2.856217e-004 -2.230927e-004)">
		<stop  offset="0" style="stop-color:#000000;stop-opacity:0.298"/>
		<stop  offset="0.8902" style="stop-color:#000000;stop-opacity:0.098"/>
	</linearGradient>
	<path style="fill-rule:evenodd;clip-rule:evenodd;fill:url(#SVGID_41_);" d="M295.25,95.35l4.45,118.15
		c-1.133,13.433-2.8,26.567-5,39.4c-3.9,22.4-8.3,42.6-13.2,60.6c-5.7,20.934-12.45,40.333-20.25,58.2
		c-3.933,9.133-9.517,19.95-16.75,32.45c-8.5,14.267-14.767,24.783-18.8,31.55c12.367-22.4,22.733-46.184,31.1-71.351
		c12.467-37.767,20.05-77.583,22.75-119.45c2.167-32.9,1.317-66.267-2.55-100.1c-0.167-1.767-0.983-6.316-2.45-13.65
		c-1-6.733-0.633-10.9,1.1-12.5L261.7,8.3l13,0.5C283.933,37.8,290.783,66.65,295.25,95.35z"/>
	
		<linearGradient id="SVGID_42_" gradientUnits="userSpaceOnUse" x1="-12.5278" y1="-304.0791" x2="322.017" y2="-304.0791" gradientTransform="matrix(-0.0164 0.9999 -0.9999 -0.0164 4.124958e-004 -1.728311e-004)">
		<stop  offset="0" style="stop-color:#000000;stop-opacity:0.298"/>
		<stop  offset="0.8902" style="stop-color:#000000;stop-opacity:0.098"/>
	</linearGradient>
	<path style="fill-rule:evenodd;clip-rule:evenodd;fill:url(#SVGID_42_);" d="M295.25,95.35l-0.55-14.9
		c7.4,34.133,11.867,68.133,13.4,102c1.566,33.8,0.183,66.9-4.15,99.3c-0.733,5.567-1.233,8.867-1.5,9.9c-1,3.8-2.75,6.467-5.25,8
		c0-4.066,0.6-9.75,1.8-17.05c1.533-9.333,2.417-15.167,2.65-17.5l-1.95-51.6L295.25,95.35z"/>
	
		<linearGradient id="SVGID_43_" gradientUnits="userSpaceOnUse" x1="-10.9893" y1="-226.3457" x2="321.3055" y2="-226.3457" gradientTransform="matrix(-0.0164 0.9999 -0.9999 -0.0164 3.991891e-004 2.342127e-004)">
		<stop  offset="0" style="stop-color:#000000;stop-opacity:0.298"/>
		<stop  offset="0.8902" style="stop-color:#000000;stop-opacity:0.098"/>
	</linearGradient>
	<path style="fill-rule:evenodd;clip-rule:evenodd;fill:url(#SVGID_43_);" d="M205.2,6l14.05,0.55
		c4.033,13.467,8.85,31.9,14.45,55.3c4.966,20.6,8.216,42.483,9.75,65.65c1.3,19.333,1.45,41.017,0.45,65.05
		c0,11.7-0.017,20.45-0.05,26.25c-0.033,10.367-0.9,19-2.6,25.9c-2.067,8.367-3.967,18.983-5.7,31.85
		c3.4-29.6,2.534-62.95-2.6-100.05c-3.467-25.033-10.483-60.133-21.05-105.3L205.2,6z"/>
	
		<linearGradient id="SVGID_44_" gradientUnits="userSpaceOnUse" x1="-10.9224" y1="-182.0859" x2="323.6224" y2="-182.0859" gradientTransform="matrix(-0.0164 0.9999 -0.9999 -0.0164 4.124958e-004 -1.728311e-004)">
		<stop  offset="0" style="stop-color:#000000;stop-opacity:0.298"/>
		<stop  offset="0.8902" style="stop-color:#000000;stop-opacity:0.098"/>
	</linearGradient>
	<path style="fill-rule:evenodd;clip-rule:evenodd;fill:url(#SVGID_44_);" d="M186,5.3l0.15,0.45c8.267,28.867,14.117,53,17.55,72.4
		c4.733,26.567,6.367,50.583,4.9,72.05c-3.467,49.633-5.733,81.466-6.8,95.5c-1.3,16.566-4.216,34.783-8.75,54.65
		c-3.133,13.9-7.85,31.6-14.15,53.1c-3.3,11.3-8.4,24.1-15.3,38.399c-6.133,12.034-11.133,21.851-15,29.45
		c26.367-54.666,40.617-115.433,42.75-182.3c2.1-65.5-7.467-134.117-28.7-205.85l-9.85-29.1L186,5.3z"/>
	
		<linearGradient id="SVGID_45_" gradientUnits="userSpaceOnUse" x1="-10.6133" y1="-124.1406" x2="318.481" y2="-124.1406" gradientTransform="matrix(-0.0164 0.9999 -0.9999 -0.0164 -4.855916e-004 2.210848e-004)">
		<stop  offset="0" style="stop-color:#000000;stop-opacity:0.298"/>
		<stop  offset="0.8902" style="stop-color:#000000;stop-opacity:0.098"/>
	</linearGradient>
	<path style="fill-rule:evenodd;clip-rule:evenodd;fill:url(#SVGID_45_);" d="M102.75,2.3l10.9,0.35
		c4.133,11.967,7.75,23.233,10.85,33.8c5.867,20.066,9.517,32.883,10.95,38.45c3.733,14.7,6.05,27.5,6.95,38.4
		c0.333,4.034,0.483,10.15,0.45,18.35c-0.067,9.1,0,15.5,0.2,19.2c-2.833-22.733-8.083-47.517-15.75-74.35
		C121.633,56.6,113.45,31.867,102.75,2.3z"/>
	
		<linearGradient id="SVGID_46_" gradientUnits="userSpaceOnUse" x1="-10.5625" y1="-105.1104" x2="320.257" y2="-105.1104" gradientTransform="matrix(-0.0164 0.9999 -0.9999 -0.0164 -8.398294e-005 -2.530590e-005)">
		<stop  offset="0" style="stop-color:#000000;stop-opacity:0.298"/>
		<stop  offset="0.8902" style="stop-color:#000000;stop-opacity:0.098"/>
	</linearGradient>
	<path style="fill-rule:evenodd;clip-rule:evenodd;fill:url(#SVGID_46_);" d="M93.9,2l0.15,0.45
		c10.534,30.367,18.9,60.783,25.1,91.25c2.267,11.3,4.117,24.25,5.55,38.85c0.433,4.333,1.466,17.35,3.1,39.05
		c0.967,13.1,1.5,25.9,1.6,38.4c0.533,8.1,0.8,14.55,0.8,19.35c0,8.867-1.133,14.867-3.4,18c-0.433-3.267-0.417-8.083,0.05-14.45
		c0.533-7.066,0.717-12.017,0.55-14.85c-1.2-18.367-3.167-35.216-5.9-50.55c-1-5.667-2.217-15.033-3.65-28.1
		c-1.367-12.3-2.7-21.75-4-28.35c-1.667-8.6-4.75-19.8-9.25-33.6c-5.633-17.367-9.133-28.567-10.5-33.6L76.25,1.4L93.9,2z"/>
	
		<linearGradient id="SVGID_47_" gradientUnits="userSpaceOnUse" x1="-10.6138" y1="-83.1943" x2="323.631" y2="-83.1943" gradientTransform="matrix(-0.0164 0.9999 -0.9999 -0.0164 -1.447741e-004 9.162724e-005)">
		<stop  offset="0" style="stop-color:#000000;stop-opacity:0.298"/>
		<stop  offset="0.8902" style="stop-color:#000000;stop-opacity:0.098"/>
	</linearGradient>
	<path style="fill-rule:evenodd;clip-rule:evenodd;fill:url(#SVGID_47_);" d="M64,1c1,2.833,2.117,6.5,3.35,11
		c1.533,5.467,2.467,8.75,2.8,9.85c3.6,11.333,7.317,24.667,11.15,40c4.3,17.8,7.517,31.117,9.65,39.95
		c8.466,35.1,12.7,73.1,12.7,114c-0.066,44-5.217,86.1-15.45,126.3c0.5-8.233,0.95-16.483,1.35-24.75
		c0.5-11.199,0.85-22.433,1.05-33.7c1.933-21.9,2.667-47.533,2.2-76.9c-0.433-27.2-2.783-54.567-7.05-82.1c-0.5-3.667-2.167-11-5-22
		c-2.2-10.066-2.517-17.066-0.95-21L59.15,0.8L64,1z"/>
	
		<linearGradient id="SVGID_48_" gradientUnits="userSpaceOnUse" x1="-10.4473" y1="-48.4946" x2="320.0973" y2="-48.4946" gradientTransform="matrix(-0.0164 0.9999 -0.9999 -0.0164 4.853550e-004 1.724735e-004)">
		<stop  offset="0" style="stop-color:#000000;stop-opacity:0.298"/>
		<stop  offset="0.8902" style="stop-color:#000000;stop-opacity:0.098"/>
	</linearGradient>
	<path style="fill-rule:evenodd;clip-rule:evenodd;fill:url(#SVGID_48_);" d="M40.85,0.25C44.783,12.617,48.567,26.7,52.2,42.5
		c1.933,8.433,4.917,22.567,8.95,42.4l0.7,3.6c-0.467-1.1-2.9-6.883-7.3-17.35c-3.6-8.533-7.716-16.683-12.35-24.45
		c-2.167-3.534-4.684-7.417-7.55-11.65L33.7,0L40.85,0.25z"/>
	
		<linearGradient id="SVGID_49_" gradientUnits="userSpaceOnUse" x1="-14.9731" y1="-155.3447" x2="322.1221" y2="-155.3447" gradientTransform="matrix(-0.0164 0.9999 -0.9999 -0.0164 -2.076402e-004 -1.629516e-004)">
		<stop  offset="0" style="stop-color:#000000;stop-opacity:0.298"/>
		<stop  offset="0.8902" style="stop-color:#000000;stop-opacity:0.098"/>
	</linearGradient>
	<path style="fill-rule:evenodd;clip-rule:evenodd;fill:url(#SVGID_49_);" d="M145.5,334.8c3.867-10.666,6.983-22.45,9.35-35.35
		c1.8-10.034,3.35-22.117,4.65-36.25l8.45-66.35c1.267,43.6-2.383,85.283-10.95,125.05c-2.7,12.433-6.3,23.767-10.8,34
		c-2.067,5.699-3.767,10.133-5.1,13.3c-2.467,5.733-5.15,9.75-8.05,12.05c-0.867-5.233,0.3-12.684,3.5-22.35
		C138.35,353.4,141.333,345.366,145.5,334.8z"/>
	
		<linearGradient id="SVGID_50_" gradientUnits="userSpaceOnUse" x1="-14.2314" y1="-238.4785" x2="323.2638" y2="-238.4785" gradientTransform="matrix(-0.0164 0.9999 -0.9999 -0.0164 3.524870e-005 1.342595e-005)">
		<stop  offset="0" style="stop-color:#000000;stop-opacity:0.298"/>
		<stop  offset="0.8902" style="stop-color:#000000;stop-opacity:0.098"/>
	</linearGradient>
	<path style="fill-rule:evenodd;clip-rule:evenodd;fill:url(#SVGID_50_);" d="M224.4,388.85c6.033-15.333,10.45-27.017,13.25-35.05
		c4.567-13.166,8-25.184,10.3-36.05l5.5-186.95c16.767,85.733,11.917,164.4-14.55,236c-4.2,11.233-9.717,23.483-16.55,36.75
		c-4.533,8.733-11.033,20.5-19.5,35.3c0.767-1.466,1.55-3.333,2.35-5.6c1.033-2.934,1.733-4.85,2.1-5.75
		c1.5-3.634,4.35-9.983,8.55-19.05C219.683,400.116,222.533,393.583,224.4,388.85z"/>
	
		<linearGradient id="SVGID_51_" gradientUnits="userSpaceOnUse" x1="-17.4321" y1="-309.833" x2="322.6136" y2="-309.833" gradientTransform="matrix(-0.0164 0.9999 -0.9999 -0.0164 3.109965e-004 -1.468845e-004)">
		<stop  offset="0" style="stop-color:#000000;stop-opacity:0.298"/>
		<stop  offset="0.8902" style="stop-color:#000000;stop-opacity:0.098"/>
	</linearGradient>
	<path style="fill-rule:evenodd;clip-rule:evenodd;fill:url(#SVGID_51_);" d="M308.45,340.35c0.767-3.866,1.983-10.35,3.65-19.449
		c3.367-17.3,6.617-27.317,9.75-30.05c-4.7,29.9-12.133,58.516-22.3,85.85c-2.033,6.366-3.733,11.283-5.1,14.75
		c-2.5,6.2-5.15,10.517-7.95,12.95c1.433-5.334,4.433-13.617,9-24.851c4.933-12.133,8.183-20.75,9.75-25.85
		C306.117,351.5,307.183,347.05,308.45,340.35z"/>
	
		<linearGradient id="SVGID_52_" gradientUnits="userSpaceOnUse" x1="-11.3086" y1="-312.2051" x2="321.836" y2="-312.2051" gradientTransform="matrix(-0.0164 0.9999 -0.9999 -0.0164 -1.680739e-004 5.759299e-006)">
		<stop  offset="0" style="stop-color:#000000;stop-opacity:0.298"/>
		<stop  offset="0.8902" style="stop-color:#000000;stop-opacity:0.098"/>
	</linearGradient>
	<path style="fill-rule:evenodd;clip-rule:evenodd;fill:url(#SVGID_52_);" d="M322,289.9L292.9,9.6
		c16.133,47.833,26.7,95.15,31.7,141.95C329.733,199.55,328.867,245.667,322,289.9z"/>
	
		<linearGradient id="SVGID_53_" gradientUnits="userSpaceOnUse" x1="-17.7246" y1="-612.147" x2="324.3212" y2="-612.147" gradientTransform="matrix(-0.0164 0.9999 -0.9999 -0.0164 1.701377e-004 -2.463125e-004)">
		<stop  offset="0" style="stop-color:#000000;stop-opacity:0.298"/>
		<stop  offset="0.8902" style="stop-color:#000000;stop-opacity:0.098"/>
	</linearGradient>
	<path style="fill-rule:evenodd;clip-rule:evenodd;fill:url(#SVGID_53_);" d="M571.4,441.65c7.9-11.601,11.934-17.567,12.1-17.9
		c16.733-28.866,29.85-59.816,39.35-92.85l25.7-85.101c-2.899,31.733-9.55,63.167-19.95,94.3
		c-10.033,29.967-23.25,58.851-39.649,86.65c-2.434,4.134-6.167,9-11.2,14.6c-5.833,6.267-10.133,11-12.9,14.2
		C563.45,454.75,565.633,450.116,571.4,441.65z"/>
</g>
</svg>
