<?xml version="1.0" encoding="iso-8859-1"?>
<!-- Generator: Adobe Illustrator 15.1.0, SVG Export Plug-In . SVG Version: 6.00 Build 0)  -->
<!DOCTYPE svg PUBLIC "-//W3C//DTD SVG 1.1//EN" "http://www.w3.org/Graphics/SVG/1.1/DTD/svg11.dtd">
<svg version="1.1" id="FlashAICB" xmlns="http://www.w3.org/2000/svg" xmlns:xlink="http://www.w3.org/1999/xlink" x="0px" y="0px"
	 width="811.6px" height="629px" viewBox="0 0 811.6 629" style="enable-background:new 0 0 811.6 629;" xml:space="preserve">
<path style="fill-rule:evenodd;clip-rule:evenodd;fill:#5D5021;" d="M624.05,4.25L751.1,6.5C760.9,23,769.35,39.1,776.45,54.8
	c12.866,32.933,22.283,68.767,28.25,107.5c2.467,21.033,4.267,43.517,5.399,67.45c0.934,20.433,1.434,42.966,1.5,67.6
	c0.101,46-1.933,86.9-6.1,122.7c-6.3,41-16.217,78.8-29.75,113.399c-13.867,30.533-31.2,59.884-52,88.051l-6.2,7.5
	c-270.1-2.301-509.283-5.7-717.55-10.2c4.5-8.433,9.167-18.033,14-28.8c3.066-6.867,7.283-16.684,12.65-29.45
	c14.867-35.399,26.133-73.866,33.8-115.399C69.917,393.982,74.6,344.934,74.5,298c-0.133-47.1-5.15-95.983-15.05-146.65
	c-4.333-22.333-10.367-45.05-18.1-68.15C34.316,62.167,25.7,40.283,15.5,17.55C13.267,12.617,10.833,7.533,8.2,2.3
	c126.233-0.567,253.417-0.583,381.55-0.05C497.184,2.716,575.283,3.383,624.05,4.25z"/>
<path style="fill-rule:evenodd;clip-rule:evenodd;fill:#5D5021;" d="M624.05,4.25L751.1,6.5C760.9,23,769.35,39.1,776.45,54.8
	c12.866,32.933,22.283,68.767,28.25,107.5c2.467,21.033,4.267,43.517,5.399,67.45c0.934,20.433,1.434,42.966,1.5,67.6
	c0.101,46-1.933,86.9-6.1,122.7c-6.3,41-16.217,78.8-29.75,113.399c-13.867,30.533-31.2,59.884-52,88.051l-6.2,7.5
	c-270.1-2.301-509.283-5.7-717.55-10.2c4.5-8.433,9.167-18.033,14-28.8c3.066-6.867,7.283-16.684,12.65-29.45
	c14.867-35.399,26.133-73.866,33.8-115.399C69.917,393.982,74.6,344.934,74.5,298c-0.133-47.1-5.15-95.983-15.05-146.65
	c-4.333-22.333-10.367-45.05-18.1-68.15C34.316,62.167,25.7,40.283,15.5,17.55C13.267,12.617,10.833,7.533,8.2,2.3
	c126.233-0.567,253.417-0.583,381.55-0.05C497.184,2.716,575.283,3.383,624.05,4.25z"/>
<g>
	
		<linearGradient id="SVGID_1_" gradientUnits="userSpaceOnUse" x1="-10.6768" y1="-755.2432" x2="312.1168" y2="-755.2432" gradientTransform="matrix(-0.0164 0.9999 -0.9999 -0.0164 5.281903e-005 -1.723468e-004)">
		<stop  offset="0" style="stop-color:#000000;stop-opacity:0.298"/>
		<stop  offset="0.8902" style="stop-color:#000000;stop-opacity:0.098"/>
	</linearGradient>
	<path style="fill-rule:evenodd;clip-rule:evenodd;fill:url(#SVGID_1_);" d="M732.3,5.1L732,4.25l7.5,0.1
		c13.667,34.767,25.1,71.967,34.3,111.6c1.134,4.933,1.767,10.75,1.9,17.45c0.2,10,0.35,15.667,0.45,17
		c-2.101-1.833-4.134-8.033-6.101-18.6c-1.033-5.633-2.333-12.9-3.899-21.8C757.684,74.567,746.4,39.6,732.3,5.1z"/>
	
		<linearGradient id="SVGID_2_" gradientUnits="userSpaceOnUse" x1="-10.6011" y1="-733.2402" x2="311.7421" y2="-733.2402" gradientTransform="matrix(-0.0164 0.9999 -0.9999 -0.0164 3.920756e-004 -1.739152e-005)">
		<stop  offset="0" style="stop-color:#000000;stop-opacity:0.298"/>
		<stop  offset="0.8902" style="stop-color:#000000;stop-opacity:0.098"/>
	</linearGradient>
	<path style="fill-rule:evenodd;clip-rule:evenodd;fill:url(#SVGID_2_);" d="M740.5,59.45c4.967,14.533,8.4,27.267,10.3,38.2
		c0.7,3.967,1.417,10.1,2.15,18.4c0.833,9,1.533,15.417,2.1,19.25c-4.434-20.733-10.866-42.85-19.3-66.35
		c-6.767-18.9-15.566-40.583-26.4-65.05L719.4,4.05c2.733,6.633,5.066,12.5,7,17.6C733.667,40.617,738.366,53.217,740.5,59.45z"/>
	
		<linearGradient id="SVGID_3_" gradientUnits="userSpaceOnUse" x1="-10.7695" y1="-793.3677" x2="317.4245" y2="-793.3677" gradientTransform="matrix(-0.0164 0.9999 -0.9999 -0.0164 3.582872e-004 -4.088320e-005)">
		<stop  offset="0" style="stop-color:#000000;stop-opacity:0.298"/>
		<stop  offset="0.8902" style="stop-color:#000000;stop-opacity:0.098"/>
	</linearGradient>
	<path style="fill-rule:evenodd;clip-rule:evenodd;fill:url(#SVGID_3_);" d="M773.4,48.2l3.05,6.6
		c12.866,32.934,22.283,68.767,28.25,107.5c1.967,16.9,3.483,34.217,4.55,51.95C804.417,159.65,792.467,104.3,773.4,48.2z"/>
	
		<linearGradient id="SVGID_4_" gradientUnits="userSpaceOnUse" x1="-10.4258" y1="-667.7207" x2="313.5176" y2="-667.7207" gradientTransform="matrix(-0.0164 0.9999 -0.9999 -0.0164 -3.456008e-004 6.329268e-005)">
		<stop  offset="0" style="stop-color:#000000;stop-opacity:0.298"/>
		<stop  offset="0.8902" style="stop-color:#000000;stop-opacity:0.098"/>
	</linearGradient>
	<path style="fill-rule:evenodd;clip-rule:evenodd;fill:url(#SVGID_4_);" d="M649.4,3c3.533,9.6,7.199,20.6,11,33
		c1.933,6.233,5.25,17.333,9.949,33.3c8.601,29.467,14.25,56.35,16.95,80.65c1.2,10.5,2.316,25.517,3.351,45.05
		c1.133,21.567,2.083,36.5,2.85,44.8c-1.7-3.733-2.75-8.9-3.15-15.5c-0.233-3.7-0.533-9.167-0.899-16.4
		c-1.634-14.767-4.684-31.733-9.15-50.9c-10.866-46.5-23.983-90.217-39.35-131.15l-2.8-23.05L649.4,3z"/>
	
		<linearGradient id="SVGID_5_" gradientUnits="userSpaceOnUse" x1="-10.5464" y1="-698.4912" x2="317.4977" y2="-698.4912" gradientTransform="matrix(-0.0164 0.9999 -0.9999 -0.0164 4.761871e-004 -3.375299e-005)">
		<stop  offset="0" style="stop-color:#000000;stop-opacity:0.298"/>
		<stop  offset="0.8902" style="stop-color:#000000;stop-opacity:0.098"/>
	</linearGradient>
	<path style="fill-rule:evenodd;clip-rule:evenodd;fill:url(#SVGID_5_);" d="M671.45,3.3L673,7.4
		c4.566,11.067,9.384,24.117,14.45,39.15c0.399,1.133,4.733,14.333,13,39.6c11.399,34.9,19.133,73.233,23.2,115
		c5.199,52.867,3.649,104.083-4.65,153.65c-1.833,11.066-3.717,20.584-5.65,28.55c-2.433,10.167-5.3,19.483-8.6,27.95
		c-2,5.134-5.167,12.417-9.5,21.851c-3.934,8.533-6.866,15.133-8.8,19.8c11.399-29.8,19.916-60.834,25.55-93.101
		c4.467-25.366,6.533-53.066,6.2-83.1c-0.267-24.333-2.2-52.617-5.8-84.85c-3.101-27.633-8.017-55.283-14.75-82.95
		c-0.834-3.7-3.134-11.034-6.9-22c-3.066-10-4.017-16.95-2.85-20.85L666.1,3.25L671.45,3.3z"/>
	
		<linearGradient id="SVGID_6_" gradientUnits="userSpaceOnUse" x1="-10.5986" y1="-719.7256" x2="313.5951" y2="-719.7256" gradientTransform="matrix(-0.0164 0.9999 -0.9999 -0.0164 -5.696155e-005 1.676362e-004)">
		<stop  offset="0" style="stop-color:#000000;stop-opacity:0.298"/>
		<stop  offset="0.8902" style="stop-color:#000000;stop-opacity:0.098"/>
	</linearGradient>
	<path style="fill-rule:evenodd;clip-rule:evenodd;fill:url(#SVGID_6_);" d="M723.25,95.4c-2.434-8.7-6.434-19.833-12-33.4
		c-7.267-17.733-11.684-28.767-13.25-33.1L684.95,3.5l15.6,0.25c10.2,24.7,18.9,49.483,26.101,74.35
		c3.267,11.3,6.283,24.233,9.05,38.8c1.033,5.5,3.283,18.617,6.75,39.35c2.1,12.4,3.883,25.417,5.35,39.05
		c1.334,8.3,2.25,14.934,2.75,19.9c0.867,9.066,0.384,15.233-1.45,18.5c-0.767-3.367-1.25-8.333-1.449-14.9
		c-0.2-7.233-0.534-12.316-1-15.25c-2.867-18.267-6.417-35.417-10.65-51.45c-1.5-5.733-3.583-15.184-6.25-28.35
		C727.283,111.417,725.116,101.967,723.25,95.4z"/>
	
		<linearGradient id="SVGID_7_" gradientUnits="userSpaceOnUse" x1="-14.6411" y1="-783.7129" x2="315.8534" y2="-783.7129" gradientTransform="matrix(-0.0164 0.9999 -0.9999 -0.0164 -1.199711e-004 -1.421943e-005)">
		<stop  offset="0" style="stop-color:#000000;stop-opacity:0.298"/>
		<stop  offset="0.8902" style="stop-color:#000000;stop-opacity:0.098"/>
	</linearGradient>
	<path style="fill-rule:evenodd;clip-rule:evenodd;fill:url(#SVGID_7_);" d="M781.45,288c0.666-10.467,0.883-23.067,0.649-37.8
		L783.4,182c5.566,44.1,6.433,87.317,2.6,129.65c-1.2,13.067-3.35,25.067-6.45,36c-1.3,6.1-2.416,10.833-3.35,14.199
		c-1.7,6.134-3.8,10.434-6.3,12.9c-1.467-5.667-1.233-13.65,0.699-23.95c1.101-5.833,3.051-14.35,5.851-25.55
		C778.95,313.95,780.616,301.533,781.45,288z"/>
	
		<linearGradient id="SVGID_8_" gradientUnits="userSpaceOnUse" x1="-14.5957" y1="-665.0249" x2="315.0485" y2="-665.0249" gradientTransform="matrix(-0.0164 0.9999 -0.9999 -0.0164 -2.384428e-004 -2.122484e-005)">
		<stop  offset="0" style="stop-color:#000000;stop-opacity:0.298"/>
		<stop  offset="0.8902" style="stop-color:#000000;stop-opacity:0.098"/>
	</linearGradient>
	<path style="fill-rule:evenodd;clip-rule:evenodd;fill:url(#SVGID_8_);" d="M660.65,267.45c-0.2-3.6-0.551-9.583-1.051-17.95
		c-0.767-15.967-0.1-25.517,2-28.65c1.834,27.467,1.834,54.35,0,80.65c-0.133,6.067-0.333,10.767-0.6,14.1
		c-0.5,6.034-1.616,10.45-3.35,13.25c-0.267-5.333,0.133-13.3,1.199-23.899c1.267-12.733,1.967-21.067,2.101-25
		C661.116,277.883,661.017,273.717,660.65,267.45z"/>
	
		<linearGradient id="SVGID_9_" gradientUnits="userSpaceOnUse" x1="-10.7656" y1="-806.521" x2="317.4284" y2="-806.521" gradientTransform="matrix(-0.0164 0.9999 -0.9999 -0.0164 3.582872e-004 -4.088320e-005)">
		<stop  offset="0" style="stop-color:#000000;stop-opacity:0.298"/>
		<stop  offset="0.8902" style="stop-color:#000000;stop-opacity:0.098"/>
	</linearGradient>
	<path style="fill-rule:evenodd;clip-rule:evenodd;fill:url(#SVGID_9_);" d="M810.95,343.4l-0.25,1.85
		c-1.834,11.866-5.2,25.583-10.101,41.15c-4.5,13.399-8.149,24.3-10.949,32.699c13.466-43.767,20.733-90.133,21.8-139.1
		c0,0.033,0.05,5.817,0.149,17.35C811.667,313.183,811.45,328.533,810.95,343.4z"/>
	
		<linearGradient id="SVGID_10_" gradientUnits="userSpaceOnUse" x1="-10.272" y1="-607.4092" x2="315.6719" y2="-607.4092" gradientTransform="matrix(-0.0164 0.9999 -0.9999 -0.0164 3.622621e-004 -2.244674e-005)">
		<stop  offset="0" style="stop-color:#000000;stop-opacity:0.298"/>
		<stop  offset="0.8902" style="stop-color:#000000;stop-opacity:0.098"/>
	</linearGradient>
	<path style="fill-rule:evenodd;clip-rule:evenodd;fill:url(#SVGID_10_);" d="M610.375,53.1c0.006,0.028,0.015,0.053,0.025,0.075
		c0.013,0.081,0.029,0.156,0.05,0.225l19,94.05c0.005,0.044,0.013,0.085,0.024,0.125c1.651,14.662,2.71,29.587,3.176,44.775
		c0.566,21.5,0.533,40.583-0.101,57.25c-0.733,20.267-2.399,39.167-5,56.7c-1.267,8.7-3.55,19.767-6.85,33.2
		c-3.8,14.9-6.517,25.866-8.15,32.9c4.634-23.267,7.75-47.134,9.351-71.601c2.433-36.966,1.383-74.55-3.15-112.75
		c-3.6-30.6-9.283-60.75-17.05-90.45c-0.4-1.567-1.684-5.55-3.851-11.95c-1.733-5.967-2-9.783-0.8-11.45L578.15,1.95l14.699,0.2
		C599.446,18.757,605.288,35.74,610.375,53.1z"/>
	
		<linearGradient id="SVGID_11_" gradientUnits="userSpaceOnUse" x1="-10.8145" y1="-628.6528" x2="313.4043" y2="-628.6528" gradientTransform="matrix(-0.0164 0.9999 -0.9999 -0.0164 7.916428e-005 -8.813478e-005)">
		<stop  offset="0" style="stop-color:#000000;stop-opacity:0.298"/>
		<stop  offset="0.8902" style="stop-color:#000000;stop-opacity:0.098"/>
	</linearGradient>
	<path style="fill-rule:evenodd;clip-rule:evenodd;fill:url(#SVGID_11_);" d="M610.375,53.1l-3.125-15.4
		c20.6,57.767,33.283,117.316,38.05,178.65c0.434,5.333,0.634,8.4,0.601,9.2c-0.101,3.6-1.051,6.35-2.851,8.25
		c-0.767-3.733-1.316-8.95-1.649-15.65c-0.467-9.2-0.784-14.6-0.95-16.2l-10.976-54.375c-0.012-0.04-0.02-0.081-0.024-0.125
		l-19-94.05c-0.021-0.069-0.037-0.144-0.05-0.225C610.39,53.153,610.381,53.128,610.375,53.1z"/>
	
		<linearGradient id="SVGID_12_" gradientUnits="userSpaceOnUse" x1="-10.3369" y1="-634.3115" x2="312.9815" y2="-634.3115" gradientTransform="matrix(-0.0164 0.9999 -0.9999 -0.0164 -3.910176e-004 3.112480e-005)">
		<stop  offset="0" style="stop-color:#000000;stop-opacity:0.298"/>
		<stop  offset="0.8902" style="stop-color:#000000;stop-opacity:0.098"/>
	</linearGradient>
	<path style="fill-rule:evenodd;clip-rule:evenodd;fill:url(#SVGID_12_);" d="M603.65,2.3l4.75,0.1
		c14.966,35.4,26.916,71.317,35.85,107.75c9,36.7,14.75,73.25,17.25,109.65L603.65,2.3z"/>
	
		<linearGradient id="SVGID_13_" gradientUnits="userSpaceOnUse" x1="-10.1582" y1="-559.395" x2="312.8353" y2="-559.395" gradientTransform="matrix(-0.0164 0.9999 -0.9999 -0.0164 -1.190845e-004 -1.360029e-004)">
		<stop  offset="0" style="stop-color:#000000;stop-opacity:0.298"/>
		<stop  offset="0.8902" style="stop-color:#000000;stop-opacity:0.098"/>
	</linearGradient>
	<path style="fill-rule:evenodd;clip-rule:evenodd;fill:url(#SVGID_13_);" d="M529.2,1.25l16,0.2
		c2.166,5.667,5.483,14.55,9.95,26.65c6.6,18.066,12.05,37.65,16.35,58.75c3.566,17.367,6.616,37.316,9.15,59.85
		c1.699,10.8,2.949,18.883,3.75,24.25c1.5,9.633,2.05,17.783,1.649,24.45c-0.467,7.934-0.467,17.367,0,28.3
		c-2.1-27.233-7.8-57.267-17.1-90.1c-5.8-20.6-16.217-52.033-31.25-94.3L529.2,1.25z"/>
	
		<linearGradient id="SVGID_14_" gradientUnits="userSpaceOnUse" x1="-10.1113" y1="-521.1982" x2="315.6326" y2="-521.1982" gradientTransform="matrix(-0.0164 0.9999 -0.9999 -0.0164 -4.584901e-004 -1.738053e-004)">
		<stop  offset="0" style="stop-color:#000000;stop-opacity:0.298"/>
		<stop  offset="0.8902" style="stop-color:#000000;stop-opacity:0.098"/>
	</linearGradient>
	<path style="fill-rule:evenodd;clip-rule:evenodd;fill:url(#SVGID_14_);" d="M486.3,0.8l29.351,0.25
		c8.033,20.9,14.25,39.4,18.649,55.5c5.5,20.267,8.851,39.167,10.05,56.7c2.134,30.533,4.417,60.933,6.851,91.2
		c1.233,15.466,1.434,33.2,0.6,53.2c-0.434,10.5-1.6,28.1-3.5,52.8c-0.8,10.967-2.916,24.083-6.35,39.35
		c-3.167,12.967-5.7,23.483-7.601,31.55c11.801-57.366,13.917-117.8,6.351-181.3c-7.533-63.133-24.334-126.583-50.4-190.35
		L486.3,0.8z"/>
	
		<linearGradient id="SVGID_15_" gradientUnits="userSpaceOnUse" x1="-10.5664" y1="-506.4131" x2="314.7272" y2="-506.4131" gradientTransform="matrix(-0.0164 0.9999 -0.9999 -0.0164 1.432300e-004 -1.819637e-004)">
		<stop  offset="0" style="stop-color:#000000;stop-opacity:0.298"/>
		<stop  offset="0.8902" style="stop-color:#000000;stop-opacity:0.098"/>
	</linearGradient>
	<path style="fill-rule:evenodd;clip-rule:evenodd;fill:url(#SVGID_15_);" d="M489.8,51.05c4.033,11.2,6.834,18.883,8.4,23.05
		c7.066,18.333,12.816,37.883,17.25,58.65c7.467,34.967,12.05,69.817,13.75,104.55c1.7,35.2,0.416,69.684-3.851,103.45L522.6,230.7
		c-1.333-21.967-3.517-42.3-6.55-61c-3.533-21.434-8.333-41.784-14.399-61.05c-2.601-8.5-7.367-22.45-14.301-41.85
		c-5.699-17-8.783-29.5-9.25-37.5C481.934,33.867,485.833,41.117,489.8,51.05z"/>
	
		<linearGradient id="SVGID_16_" gradientUnits="userSpaceOnUse" x1="-9.8608" y1="-462.7158" x2="310.4322" y2="-462.7158" gradientTransform="matrix(-0.0164 0.9999 -0.9999 -0.0164 3.578644e-004 -1.484435e-004)">
		<stop  offset="0" style="stop-color:#000000;stop-opacity:0.298"/>
		<stop  offset="0.8902" style="stop-color:#000000;stop-opacity:0.098"/>
	</linearGradient>
	<path style="fill-rule:evenodd;clip-rule:evenodd;fill:url(#SVGID_16_);" d="M448.95,0.55c2.666,6.267,4.95,11.784,6.85,16.55
		c7.733,19.333,12.384,31.15,13.95,35.45c5,13.667,8.467,25.7,10.4,36.1c0.733,3.8,1.533,9.717,2.399,17.75
		c0.9,8.7,1.667,14.883,2.3,18.55c-4.699-19.6-11.333-40.567-19.899-62.9c-6.634-17.333-15.4-37.85-26.3-61.55L448.95,0.55z"/>
	
		<linearGradient id="SVGID_17_" gradientUnits="userSpaceOnUse" x1="-9.8105" y1="-449.4263" x2="312.3326" y2="-449.4263" gradientTransform="matrix(-0.0164 0.9999 -0.9999 -0.0164 1.465287e-004 -6.840751e-005)">
		<stop  offset="0" style="stop-color:#000000;stop-opacity:0.298"/>
		<stop  offset="0.8902" style="stop-color:#000000;stop-opacity:0.098"/>
	</linearGradient>
	<path style="fill-rule:evenodd;clip-rule:evenodd;fill:url(#SVGID_17_);" d="M413.15,0.35l16.449,0.1
		c10.2,23.767,19.101,47.983,26.7,72.65c3.233,10.566,6.3,22.95,9.2,37.15c0.033,0.133,2.4,12.7,7.1,37.7
		c2.4,12.733,4.384,25.183,5.95,37.35c1.5,7.8,2.55,14.05,3.15,18.75c1.1,8.667,0.75,14.784-1.05,18.35
		c-0.867-3.1-1.45-7.816-1.75-14.15c-0.367-7.033-0.817-11.917-1.351-14.65c-3.5-18.2-7.316-34.367-11.45-48.5
		c-1.699-5.733-3.866-14.733-6.5-27c-2.633-12.133-4.85-21.2-6.649-27.2c-2.434-8.133-6.467-18.667-12.101-31.6
		c-6.866-15.833-11.25-26.316-13.149-31.45L413.15,0.35z"/>
	
		<linearGradient id="SVGID_18_" gradientUnits="userSpaceOnUse" x1="-9.7754" y1="-428.0679" x2="316.2685" y2="-428.0679" gradientTransform="matrix(-0.0164 0.9999 -0.9999 -0.0164 2.532639e-004 -2.363455e-004)">
		<stop  offset="0" style="stop-color:#000000;stop-opacity:0.298"/>
		<stop  offset="0.8902" style="stop-color:#000000;stop-opacity:0.098"/>
	</linearGradient>
	<path style="fill-rule:evenodd;clip-rule:evenodd;fill:url(#SVGID_18_);" d="M419.8,87.85c-3.066-9.7-3.983-16.65-2.75-20.85
		L393.8,0.25l5.4,0.05c2.066,5.534,3.183,8.5,3.35,8.9c4.4,10.533,9.167,23.183,14.3,37.95c5.733,17.033,10.051,29.767,12.95,38.2
		c11.3,32.9,19.316,69.933,24.05,111.1c5.801,51.333,5.467,101.117-1,149.35c-1.466,11.101-2.966,20.417-4.5,27.95
		c-2.033,10.033-4.55,19.3-7.55,27.8c-1.767,5.066-4.733,12.533-8.899,22.4c-3.601,8.533-6.267,15.2-8,20
		c9.699-29.3,16.85-59.733,21.449-91.3c3.567-24.634,4.834-51.534,3.801-80.7c-0.801-22.534-3.2-49.9-7.2-82.1
		c-3.3-26.767-8.351-53.717-15.15-80.85C425.934,105.4,423.6,98.35,419.8,87.85z"/>
	
		<linearGradient id="SVGID_19_" gradientUnits="userSpaceOnUse" x1="-9.6782" y1="-395.5317" x2="312.465" y2="-395.5317" gradientTransform="matrix(-0.0164 0.9999 -0.9999 -0.0164 1.465287e-004 -6.840751e-005)">
		<stop  offset="0" style="stop-color:#000000;stop-opacity:0.298"/>
		<stop  offset="0.8902" style="stop-color:#000000;stop-opacity:0.098"/>
	</linearGradient>
	<path style="fill-rule:evenodd;clip-rule:evenodd;fill:url(#SVGID_19_);" d="M365.4,0.15l10,0.05c4,10.433,8.133,22.5,12.4,36.2
		c1.8,5.8,5.434,18.017,10.9,36.65c8.566,29.1,14.166,55.717,16.8,79.85c1.1,9.8,2.167,24.833,3.2,45.1
		c1.033,20.367,2.066,35.133,3.1,44.3c-1.899-3.267-3.066-8.167-3.5-14.7c-0.267-3.633-0.583-9.067-0.95-16.3
		c-1.633-14.233-4.783-30.816-9.449-49.75c-11.367-46.4-24.5-89.483-39.4-129.25L365.4,0.15z"/>
	
		<linearGradient id="SVGID_20_" gradientUnits="userSpaceOnUse" x1="-9.521" y1="-342.4629" x2="310.4221" y2="-342.4629" gradientTransform="matrix(-0.0164 0.9999 -0.9999 -0.0164 4.330743e-004 -1.152046e-005)">
		<stop  offset="0" style="stop-color:#000000;stop-opacity:0.298"/>
		<stop  offset="0.8902" style="stop-color:#000000;stop-opacity:0.098"/>
	</linearGradient>
	<path style="fill-rule:evenodd;clip-rule:evenodd;fill:url(#SVGID_20_);" d="M316.75,0.05h4.95l3.3,7.7
		c1.818,4.406,3.551,8.723,5.2,12.95c14.066,35.767,25.3,72.667,33.7,110.7c1.167,5.167,1.8,8.184,1.9,9.05
		c0.4,3.533-0.15,6.233-1.65,8.1c-0.933-2.566-1.8-5.65-2.6-9.25c-0.5-2.1-1.167-5.4-2-9.9c-1-5.533-1.816-9.583-2.45-12.15
		L316.75,0.05z"/>
	
		<linearGradient id="SVGID_21_" gradientUnits="userSpaceOnUse" x1="-9.4463" y1="-323.9414" x2="307.7964" y2="-323.9414" gradientTransform="matrix(-0.0164 0.9999 -0.9999 -0.0164 -9.713694e-005 -1.725834e-004)">
		<stop  offset="0" style="stop-color:#000000;stop-opacity:0.298"/>
		<stop  offset="0.8902" style="stop-color:#000000;stop-opacity:0.098"/>
	</linearGradient>
	<path style="fill-rule:evenodd;clip-rule:evenodd;fill:url(#SVGID_21_);" d="M325,7.75l-3.3-7.7h0.25
		c1.433,3.367,2.816,6.767,4.15,10.2C325.742,9.417,325.375,8.583,325,7.75z"/>
	
		<linearGradient id="SVGID_22_" gradientUnits="userSpaceOnUse" x1="-9.5591" y1="-353.7344" x2="310.184" y2="-353.7344" gradientTransform="matrix(-0.0164 0.9999 -0.9999 -0.0164 2.787225e-004 -3.981777e-005)">
		<stop  offset="0" style="stop-color:#000000;stop-opacity:0.298"/>
		<stop  offset="0.8902" style="stop-color:#000000;stop-opacity:0.098"/>
	</linearGradient>
	<path style="fill-rule:evenodd;clip-rule:evenodd;fill:url(#SVGID_22_);" d="M324.95,0.1h11.95
		c19.3,44.033,33.8,88.917,43.5,134.65L324.95,0.1z"/>
	
		<linearGradient id="SVGID_23_" gradientUnits="userSpaceOnUse" x1="-9.5762" y1="-341.3477" x2="315.0175" y2="-341.3477" gradientTransform="matrix(-0.0164 0.9999 -0.9999 -0.0164 -6.364658e-006 -1.798011e-004)">
		<stop  offset="0" style="stop-color:#000000;stop-opacity:0.298"/>
		<stop  offset="0.8902" style="stop-color:#000000;stop-opacity:0.098"/>
	</linearGradient>
	<path style="fill-rule:evenodd;clip-rule:evenodd;fill:url(#SVGID_23_);" d="M316.75,0.05l40.35,117.2
		c0.633,2.567,1.45,6.617,2.45,12.15c4.934,29.7,7.367,59.35,7.3,88.95c-0.067,21.3-0.667,40.283-1.8,56.95
		c-1.367,20.1-3.583,38.883-6.65,56.351c-1.5,8.633-4.083,19.616-7.75,32.949c-4.2,14.767-7.2,25.65-9,32.65
		c5.3-23.3,9.1-46.983,11.4-71.05c3.5-36.8,3.583-74.167,0.25-112.1c-2.633-30.333-7.35-60.367-14.15-90.1
		c-0.333-1.567-1.483-5.55-3.45-11.95c-1.534-5.9-1.684-9.683-0.45-11.35l-23-100.65H316.75z"/>
	
		<linearGradient id="SVGID_24_" gradientUnits="userSpaceOnUse" x1="-11.6831" y1="-389.937" x2="313.0356" y2="-389.937" gradientTransform="matrix(-0.0164 0.9999 -0.9999 -0.0164 6.258488e-006 -1.559854e-004)">
		<stop  offset="0" style="stop-color:#000000;stop-opacity:0.298"/>
		<stop  offset="0.8902" style="stop-color:#000000;stop-opacity:0.098"/>
	</linearGradient>
	<path style="fill-rule:evenodd;clip-rule:evenodd;fill:url(#SVGID_24_);" d="M386.35,181.95c-0.733-3.6-1.95-9.567-3.65-17.9
		c-3.067-15.833-3.767-25.267-2.1-28.3c5.633,26.733,9.566,53.5,11.8,80.3c0.767,6.1,1.267,10.85,1.5,14.25
		c0.467,6.1,0.067,10.567-1.2,13.4c-1.1-5.467-1.934-13.517-2.5-24.15c-0.7-13-1.267-21.367-1.7-25.1
		C388.367,192.383,387.65,188.217,386.35,181.95z"/>
	
		<linearGradient id="SVGID_25_" gradientUnits="userSpaceOnUse" x1="-9.5903" y1="-312.9219" x2="313.1532" y2="-312.9219" gradientTransform="matrix(-0.0164 0.9999 -0.9999 -0.0164 -2.875812e-004 1.948364e-004)">
		<stop  offset="0" style="stop-color:#000000;stop-opacity:0.298"/>
		<stop  offset="0.8902" style="stop-color:#000000;stop-opacity:0.098"/>
	</linearGradient>
	<path style="fill-rule:evenodd;clip-rule:evenodd;fill:url(#SVGID_25_);" d="M334.6,245.7c-0.833-21.8-1.3-33.483-1.4-35.05
		c-0.7-13.4-1.8-25.1-3.3-35.1L282.7,7.8c34.2,71.067,52.917,142.483,56.15,214.25c0.5,10.667,0.4,23.25-0.3,37.75
		c-1,16.7-1.733,29.167-2.2,37.4c0.033-1.567-0.1-3.534-0.4-5.9c-0.367-2.966-0.583-4.95-0.65-5.95
		c-0.267-4.6-0.417-11.133-0.45-19.6C334.817,256.217,334.733,249.533,334.6,245.7z"/>
	
		<linearGradient id="SVGID_26_" gradientUnits="userSpaceOnUse" x1="-14.5791" y1="-419.3643" x2="314.6652" y2="-419.3643" gradientTransform="matrix(-0.0164 0.9999 -0.9999 -0.0164 0 1.108553e-004)">
		<stop  offset="0" style="stop-color:#000000;stop-opacity:0.298"/>
		<stop  offset="0.8902" style="stop-color:#000000;stop-opacity:0.098"/>
	</linearGradient>
	<path style="fill-rule:evenodd;clip-rule:evenodd;fill:url(#SVGID_26_);" d="M407.65,389.45c7.166-33.634,11.199-68.25,12.1-103.85
		l4.95-89.85c3.866,32.333,4.733,65.65,2.6,99.95c-1.967,32.1-6.533,64.55-13.7,97.35c-1.033,4.733-3.05,10.417-6.05,17.05
		c-4.867,10.801-7.383,16.384-7.55,16.75c-1.6-1.066-1.017-6.566,1.75-16.5C403.217,405.017,405.184,398.05,407.65,389.45z"/>
	
		<linearGradient id="SVGID_27_" gradientUnits="userSpaceOnUse" x1="-12.2285" y1="-597.5815" x2="315.4655" y2="-597.5815" gradientTransform="matrix(-0.0164 0.9999 -0.9999 -0.0164 3.485400e-004 -1.069829e-004)">
		<stop  offset="0" style="stop-color:#000000;stop-opacity:0.298"/>
		<stop  offset="0.8902" style="stop-color:#000000;stop-opacity:0.098"/>
	</linearGradient>
	<path style="fill-rule:evenodd;clip-rule:evenodd;fill:url(#SVGID_27_);" d="M602.6,296.05c1.301-13.3,1.917-25,1.851-35.1
		L580.35,88.4c25.067,75.233,33.817,148.233,26.25,219c-1.166,10.767-3.216,23.183-6.149,37.25c-0.634,3.1-3.367,15.3-8.2,36.6
		c0.267-1.533,0.45-3.45,0.55-5.75c0.101-2.833,0.2-4.767,0.3-5.8c0.434-4.4,1.317-10.783,2.65-19.15
		c1.467-9.166,2.434-15.733,2.9-19.7C600.917,311.483,602.233,299.883,602.6,296.05z"/>
	
		<linearGradient id="SVGID_28_" gradientUnits="userSpaceOnUse" x1="-9.3325" y1="-281.1729" x2="310.1602" y2="-281.1729" gradientTransform="matrix(-0.0164 0.9999 -0.9999 -0.0164 4.492700e-004 -1.230445e-004)">
		<stop  offset="0" style="stop-color:#000000;stop-opacity:0.298"/>
		<stop  offset="0.8902" style="stop-color:#000000;stop-opacity:0.098"/>
	</linearGradient>
	<path style="fill-rule:evenodd;clip-rule:evenodd;fill:url(#SVGID_28_);" d="M253.7,0h17.85c6.6,18.2,12.95,39.433,19.05,63.7
		c3.1,10.466,5.417,18.3,6.95,23.5c2.767,9.333,4.417,17.267,4.95,23.8c0.633,8.067,1.95,17.367,3.95,27.9
		c-4.733-21.467-11.767-44.2-21.1-68.2C277.45,50.433,266.9,26.867,253.7,0z"/>
	
		<linearGradient id="SVGID_29_" gradientUnits="userSpaceOnUse" x1="-9.3076" y1="-251.7959" x2="313.1106" y2="-251.7959" gradientTransform="matrix(-0.0164 0.9999 -0.9999 -0.0164 7.880293e-005 -7.586181e-005)">
		<stop  offset="0" style="stop-color:#000000;stop-opacity:0.298"/>
		<stop  offset="0.8902" style="stop-color:#000000;stop-opacity:0.098"/>
	</linearGradient>
	<path style="fill-rule:evenodd;clip-rule:evenodd;fill:url(#SVGID_29_);" d="M217.4,0.05L241.65,0
		c3.767,11.167,6.684,21.733,8.75,31.7c6.267,30.233,12.567,59.633,18.9,88.2c3.3,15.033,5.983,32.517,8.05,52.45
		c0.867,8.233,2.316,25.833,4.35,52.8c0.833,10.9,0.75,24.167-0.25,39.8c-1.067,13.267-1.883,24.033-2.45,32.3
		c1.867-47.867-2.3-96.717-12.5-146.55C256.1,99.9,239.733,49.683,217.4,0.05z"/>
	
		<linearGradient id="SVGID_30_" gradientUnits="userSpaceOnUse" x1="-9.0591" y1="-184.0054" x2="307.7586" y2="-184.0054" gradientTransform="matrix(-0.0164 0.9999 -0.9999 -0.0164 -9.550713e-005 8.434057e-005)">
		<stop  offset="0" style="stop-color:#000000;stop-opacity:0.298"/>
		<stop  offset="0.8902" style="stop-color:#000000;stop-opacity:0.098"/>
	</linearGradient>
	<path style="fill-rule:evenodd;clip-rule:evenodd;fill:url(#SVGID_30_);" d="M193.2,43.15c-5.367-14-11.717-28.35-19.05-43.05h6.7
		c1.3,3.3,2.316,6.117,3.05,8.45c1.233,3.6,2.783,9.217,4.65,16.85C190.583,33.767,192.133,39.683,193.2,43.15z"/>
	
		<linearGradient id="SVGID_31_" gradientUnits="userSpaceOnUse" x1="-9.0288" y1="-178.5352" x2="309.614" y2="-178.5352" gradientTransform="matrix(-0.0164 0.9999 -0.9999 -0.0164 -1.618154e-004 -1.963992e-004)">
		<stop  offset="0" style="stop-color:#000000;stop-opacity:0.298"/>
		<stop  offset="0.8902" style="stop-color:#000000;stop-opacity:0.098"/>
	</linearGradient>
	<path style="fill-rule:evenodd;clip-rule:evenodd;fill:url(#SVGID_31_);" d="M173.3,32.35l10.85,32.95
		c3.934,11.867,7.533,23.9,10.8,36.1c2.533,7.6,4.417,13.7,5.65,18.3c2.267,8.466,2.767,14.466,1.5,18
		c-1.3-3.067-2.533-7.684-3.7-13.85c-1.333-6.967-2.433-11.75-3.3-14.35c-5.767-17.333-11.7-32.967-17.8-46.9
		c-2.367-5.467-5.667-14.1-9.9-25.9c-4.133-11.5-7.483-20.133-10.05-25.9c-1.5-3.4-3.233-6.95-5.2-10.65l8.95-0.05
		C165,9.233,169.067,19.983,173.3,32.35z"/>
	
		<linearGradient id="SVGID_32_" gradientUnits="userSpaceOnUse" x1="-9.542" y1="-232.583" x2="312.0513" y2="-232.583" gradientTransform="matrix(-0.0164 0.9999 -0.9999 -0.0164 -2.380833e-005 1.229532e-005)">
		<stop  offset="0" style="stop-color:#000000;stop-opacity:0.298"/>
		<stop  offset="0.8902" style="stop-color:#000000;stop-opacity:0.098"/>
	</linearGradient>
	<path style="fill-rule:evenodd;clip-rule:evenodd;fill:url(#SVGID_32_);" d="M227.35,107.35L207.8,21.1
		c23.434,57.633,38.567,122.467,45.4,194.5c0.466,4.867,0.267,10.783-0.6,17.75c-1.333,10.533-2.033,16.4-2.1,17.6
		c-1.967-1.133-3.183-6.917-3.65-17.35c-0.233-5.533-0.483-12.767-0.75-21.7C242.633,176.667,236.383,141.817,227.35,107.35z"/>
	
		<linearGradient id="SVGID_33_" gradientUnits="userSpaceOnUse" x1="-9.0645" y1="-159.1675" x2="313.7791" y2="-159.1675" gradientTransform="matrix(-0.0164 0.9999 -0.9999 -0.0164 8.146837e-005 -1.906231e-005)">
		<stop  offset="0" style="stop-color:#000000;stop-opacity:0.298"/>
		<stop  offset="0.8902" style="stop-color:#000000;stop-opacity:0.098"/>
	</linearGradient>
	<path style="fill-rule:evenodd;clip-rule:evenodd;fill:url(#SVGID_33_);" d="M133.85,28.15c-0.767-1.967-2.817-6.3-6.15-13
		c-3.233-6.467-5.483-11.45-6.75-14.95h10.2l2.65,5.45c15.367,31.233,28.117,66.817,38.25,106.75
		c12.567,49.367,19.434,98.85,20.6,148.45c0.267,11.4,0.25,20.9-0.05,28.5c-0.434,10.3-1.417,19.833-2.95,28.6
		c-0.867,4.833-2.55,12.583-5.05,23.25c-2.067,8.633-3.55,15.55-4.45,20.75c4.467-30.634,6.5-62,6.1-94.1
		c-0.333-25.033-3.1-52.067-8.3-81.1c-4-22.4-10.167-49.333-18.5-80.8C152.583,79.95,144.05,54.017,133.85,28.15z"/>
	
		<linearGradient id="SVGID_34_" gradientUnits="userSpaceOnUse" x1="-8.9023" y1="-118.978" x2="309.7405" y2="-118.978" gradientTransform="matrix(-0.0164 0.9999 -0.9999 -0.0164 -1.618154e-004 -1.963992e-004)">
		<stop  offset="0" style="stop-color:#000000;stop-opacity:0.298"/>
		<stop  offset="0.8902" style="stop-color:#000000;stop-opacity:0.098"/>
	</linearGradient>
	<path style="fill-rule:evenodd;clip-rule:evenodd;fill:url(#SVGID_34_);" d="M88.7,0.35l15.5-0.05
		c10.833,25.167,18.9,48.483,24.2,69.95c2.367,9.4,5.434,23.983,9.2,43.75c3.8,19.867,6.833,34.333,9.1,43.4
		c-2.333-3.267-4.167-8.083-5.5-14.45c-0.733-3.6-1.767-8.934-3.1-16c-3.533-13.767-8.883-29.867-16.05-48.3
		C111.317,50.95,100.2,24.85,88.7,0.35z"/>
	
		<linearGradient id="SVGID_35_" gradientUnits="userSpaceOnUse" x1="-10.2759" y1="-119.1919" x2="312.3172" y2="-119.1919" gradientTransform="matrix(-0.0164 0.9999 -0.9999 -0.0164 6.802008e-005 1.547225e-004)">
		<stop  offset="0" style="stop-color:#000000;stop-opacity:0.298"/>
		<stop  offset="0.8902" style="stop-color:#000000;stop-opacity:0.098"/>
	</linearGradient>
	<path style="fill-rule:evenodd;clip-rule:evenodd;fill:url(#SVGID_35_);" d="M119.2,198.125L102.725,90.85L100.35,75.4
		c10.066,31.667,17.767,64.033,23.1,97.1c5.267,32.6,8.183,65.367,8.75,98.3c0.1,5.8,0.1,9.15,0,10.05
		c-0.367,3.867-1.6,6.566-3.7,8.1c-0.6-4.2-0.85-9.967-0.75-17.3c0.1-9.733,0.117-15.6,0.05-17.6L119.2,198.125z"/>
	
		<linearGradient id="SVGID_36_" gradientUnits="userSpaceOnUse" x1="-8.9189" y1="-92.6377" x2="314.6245" y2="-92.6377" gradientTransform="matrix(-0.0164 0.9999 -0.9999 -0.0164 1.484100e-004 -8.275546e-005)">
		<stop  offset="0" style="stop-color:#000000;stop-opacity:0.298"/>
		<stop  offset="0.8902" style="stop-color:#000000;stop-opacity:0.098"/>
	</linearGradient>
	<path style="fill-rule:evenodd;clip-rule:evenodd;fill:url(#SVGID_36_);" d="M119.2,198.125c0.799,14.523,0.999,29.082,0.6,43.675
		c-0.667,22.767-1.9,43.2-3.7,61.3c-2.133,21.633-5.233,41.766-9.3,60.4c-2,9.267-5.2,20.767-9.6,34.5
		c-5.1,15.333-8.8,26.717-11.1,34.15c6.8-24.733,11.917-50.217,15.35-76.45c5.167-39.733,6.3-80.367,3.4-121.9
		c-2.267-32.833-6.967-65.367-14.1-97.6c-0.367-1.7-1.6-6.034-3.7-13c-1.6-6.4-1.7-10.35-0.3-11.85L61.5,0.45l10-0.05
		c12.992,29.739,23.4,59.889,31.225,90.45L119.2,198.125z"/>
	
		<linearGradient id="SVGID_37_" gradientUnits="userSpaceOnUse" x1="-8.7617" y1="-41.8457" x2="311.5313" y2="-41.8457" gradientTransform="matrix(-0.0164 0.9999 -0.9999 -0.0164 3.578644e-004 -1.484435e-004)">
		<stop  offset="0" style="stop-color:#000000;stop-opacity:0.298"/>
		<stop  offset="0.8902" style="stop-color:#000000;stop-opacity:0.098"/>
	</linearGradient>
	<path style="fill-rule:evenodd;clip-rule:evenodd;fill:url(#SVGID_37_);" d="M12.25,10.6l-2-9.9L21.6,0.65
		c5.9,14.2,12.95,33.383,21.15,57.55c6.467,18.966,11.633,39.483,15.5,61.55c3.133,18.033,5.65,38.867,7.55,62.5
		c0.3,3.667,1.017,9.817,2.15,18.45c1.033,7.867,1.667,14,1.9,18.4c-2.4-21.934-5.867-44.517-10.4-67.75
		c-4.333-22.333-10.367-45.05-18.1-68.15C34.317,62.167,25.7,40.283,15.5,17.55L12.25,10.6z"/>
	
		<linearGradient id="SVGID_38_" gradientUnits="userSpaceOnUse" x1="-9.1011" y1="-123.3071" x2="312.0922" y2="-123.3071" gradientTransform="matrix(-0.0164 0.9999 -0.9999 -0.0164 3.129430e-005 -6.701797e-005)">
		<stop  offset="0" style="stop-color:#000000;stop-opacity:0.298"/>
		<stop  offset="0.8902" style="stop-color:#000000;stop-opacity:0.098"/>
	</linearGradient>
	<path style="fill-rule:evenodd;clip-rule:evenodd;fill:url(#SVGID_38_);" d="M92,10c18.933,43.2,33.3,87.433,43.1,132.7
		c9.9,45.767,14.833,91.233,14.8,136.4L92,10z"/>
	
		<linearGradient id="SVGID_39_" gradientUnits="userSpaceOnUse" x1="-13.5376" y1="-154.5635" x2="312.6063" y2="-154.5635" gradientTransform="matrix(-0.0164 0.9999 -0.9999 -0.0164 1.297612e-004 4.324131e-005)">
		<stop  offset="0" style="stop-color:#000000;stop-opacity:0.298"/>
		<stop  offset="0.8902" style="stop-color:#000000;stop-opacity:0.098"/>
	</linearGradient>
	<polygon style="fill-rule:evenodd;clip-rule:evenodd;fill:url(#SVGID_39_);" points="149.9,279.1 150.1,279.9 149.9,280.1 	"/>
	
		<linearGradient id="SVGID_40_" gradientUnits="userSpaceOnUse" x1="-15.583" y1="-148.541" x2="312.861" y2="-148.541" gradientTransform="matrix(-0.0164 0.9999 -0.9999 -0.0164 -2.699681e-004 -1.951773e-004)">
		<stop  offset="0" style="stop-color:#000000;stop-opacity:0.298"/>
		<stop  offset="0.8902" style="stop-color:#000000;stop-opacity:0.098"/>
	</linearGradient>
	<path style="fill-rule:evenodd;clip-rule:evenodd;fill:url(#SVGID_40_);" d="M145.1,330.95c0.066-4.033,0.183-10.733,0.35-20.1
		c0.433-17.767,1.917-28.017,4.45-30.75c-0.066,30.4-2.367,60.067-6.9,89c-0.733,6.767-1.417,12-2.05,15.7
		c-1.167,6.667-2.8,11.3-4.9,13.9c0.3-6.033,1.534-14.9,3.7-26.601c2.5-13.433,4.017-22.517,4.55-27.25
		C144.7,342.55,144.967,337.917,145.1,330.95z"/>
	
		<linearGradient id="SVGID_41_" gradientUnits="userSpaceOnUse" x1="-12.1152" y1="-83.0205" x2="313.7286" y2="-83.0205" gradientTransform="matrix(-0.0164 0.9999 -0.9999 -0.0164 -2.129190e-005 1.767799e-004)">
		<stop  offset="0" style="stop-color:#000000;stop-opacity:0.298"/>
		<stop  offset="0.8902" style="stop-color:#000000;stop-opacity:0.098"/>
	</linearGradient>
	<path style="fill-rule:evenodd;clip-rule:evenodd;fill:url(#SVGID_41_);" d="M82.05,344.55c2.067-13.899,3.35-26.333,3.85-37.3
		L67.7,122.9c24.2,80.967,30.083,159.383,17.65,235.25c-1.9,11.533-4.833,24.616-8.8,39.25c-1.5,5.566-5.2,18.383-11.1,38.449
		c0.433-1.666,0.783-3.783,1.05-6.35c0.367-3.3,0.633-5.434,0.8-6.4c0.8-4.633,2.2-11.517,4.2-20.649c2.067-9.467,3.5-16.467,4.3-21
		C79.067,362.884,81.15,350.583,82.05,344.55z"/>
	
		<linearGradient id="SVGID_42_" gradientUnits="userSpaceOnUse" x1="-13.7285" y1="-301.7275" x2="313.7656" y2="-301.7275" gradientTransform="matrix(-0.0164 0.9999 -0.9999 -0.0164 5.835667e-006 2.152678e-004)">
		<stop  offset="0" style="stop-color:#000000;stop-opacity:0.298"/>
		<stop  offset="0.8902" style="stop-color:#000000;stop-opacity:0.098"/>
	</linearGradient>
	<path style="fill-rule:evenodd;clip-rule:evenodd;fill:url(#SVGID_42_);" d="M298.55,292.95c0.467-9.4,0.55-21.233,0.25-35.5
		l1.3-65.2c5.1,41.167,6.267,81.617,3.5,121.35c-0.833,12.3-2.633,23.784-5.4,34.45c-1.1,5.8-2.067,10.351-2.9,13.65
		c-1.433,5.967-3.4,10.399-5.9,13.3c-1.833-4.6-1.933-11.8-0.3-21.6c0.933-5.567,2.667-13.834,5.2-24.801
		C296.5,317.7,297.917,305.817,298.55,292.95z"/>
</g>
</svg>
