<?xml version="1.0" encoding="iso-8859-1"?>
<!-- Generator: Adobe Illustrator 15.1.0, SVG Export Plug-In . SVG Version: 6.00 Build 0)  -->
<!DOCTYPE svg PUBLIC "-//W3C//DTD SVG 1.1//EN" "http://www.w3.org/Graphics/SVG/1.1/DTD/svg11.dtd">
<svg version="1.1" id="Layer_1" xmlns="http://www.w3.org/2000/svg" xmlns:xlink="http://www.w3.org/1999/xlink" x="0px" y="0px"
	 width="725.3px" height="675.05px" viewBox="0 0 725.3 675.05" style="enable-background:new 0 0 725.3 675.05;"
	 xml:space="preserve">
<path style="fill-rule:evenodd;clip-rule:evenodd;" d="M126.875,5.025c-0.106-0.01-0.214-0.018-0.325-0.025c0.4,0,0.8,0,1.2,0
	l235.6-5L610.45,5.5c8.133,0.4,15.5,0.833,22.1,1.3c-46.267,2.733-85.066,13.233-116.399,31.5
	c-23.667,13.733-47.301,35.133-70.9,64.2c-14.134,17.4-27.5,47.333-40.1,89.8c-3.934,13.267-7.534,27-10.801,41.2l-3.8,17.3
	L386.65,217c-4.067-25.933-9.733-47.333-17-64.2c-9.8-23-25.467-45.367-47-67.1c-25.333-25.467-54.033-44.733-86.1-57.8
	C205.499,15.333,168.94,7.708,126.875,5.025z M592.15,660.6c1,0.067,2.033,0.134,3.1,0.2c-12.4,0.533-49.566,3.467-111.5,8.8
	c-49.667,4.2-85.167,5.967-106.5,5.301c-27.467-0.867-69.833-3.367-127.1-7.5c-58.267-4.267-92.833-6.601-103.7-7
	c4.267-0.267,8.366-0.5,12.3-0.7c36.934-2.4,58.133-3.8,63.6-4.2c36.933-3,59.466-6.3,67.6-9.9c38.2-16.866,67.433-49.699,87.7-98.5
	C387.783,522.7,394.083,500,396.55,479c0.134,14.4,1.834,30.167,5.101,47.3c6.666,34.334,17.966,58.467,33.899,72.4
	c11.533,10.066,19.8,17,24.8,20.8c9.667,7.267,19.634,13.3,29.9,18.1C515.05,649.267,549.017,656.934,592.15,660.6z"/>
<path style="fill-rule:evenodd;clip-rule:evenodd;fill:#13110B;" d="M126.875,5.025C168.94,7.708,205.499,15.333,236.55,27.9
	c32.067,13.067,60.767,32.333,86.1,57.8c21.533,21.733,37.2,44.1,47,67.1c7.267,16.867,12.933,38.267,17,64.2l3.899,33.8l3.8-17.3
	c3.267-14.2,6.867-27.933,10.801-41.2c12.6-42.466,25.966-72.4,40.1-89.8c23.6-29.067,47.233-50.467,70.9-64.2
	C547.483,20.033,586.283,9.533,632.55,6.8c-6.6-0.466-13.967-0.9-22.1-1.3c0.866,0,1.7,0.033,2.5,0.1
	c16.533,0.867,29.066,1.733,37.6,2.6l3,0.4l4.9,0.7l-17.2,0.4c-14.333,0.8-28.667,2.7-43,5.7c-45.934,9.4-83.367,27.533-112.3,54.4
	c-40.934,38.067-68.834,92.534-83.7,163.4c-4.667,22.2-7.733,44.7-9.2,67.5l-0.8,27.5l-2.3-21.4c-2.134-17.466-4.533-34.3-7.2-50.5
	c-8.667-51.733-18.7-86.966-30.1-105.7c-21.667-35.533-44.267-63.1-67.8-82.7c-39.867-33.133-87.667-51.167-143.4-54.1
	c-57.267-3-94.733-4.867-112.4-5.6c-3.933-0.133-6.9-0.233-8.9-0.3C58.937,6.777,94.512,5.818,126.875,5.025z M158.75,659.7
	c-3-0.2-5.934-0.367-8.8-0.5l-6.4-0.4c-11.267-0.666-20.433-1.267-27.5-1.8c2.733,0.066,5.733,0.134,9,0.2
	c18.467-0.066,44.9-1.9,79.3-5.5c49.267-5.066,80.433-11.434,93.5-19.101c23.066-13.533,43.967-36.767,62.7-69.699
	c20.334-35.867,30.601-71.434,30.8-106.7l0.301-74.4c2.066,25.134,4.833,51.566,8.3,79.3c7,55.534,14.1,89.867,21.3,103
	c10.4,19.067,28.5,37.2,54.3,54.4c30.934,20.667,63.434,32.2,97.5,34.6l74.101,5.301c-0.067,0-0.167,0-0.301,0L592.15,660.6
	c-43.134-3.666-77.101-11.333-101.9-23c-10.267-4.8-20.233-10.833-29.9-18.1c-5-3.8-13.267-10.733-24.8-20.8
	c-15.934-13.934-27.233-38.066-33.899-72.4c-3.267-17.133-4.967-32.899-5.101-47.3c-2.467,21-8.767,43.7-18.899,68.1
	c-20.267,48.801-49.5,81.634-87.7,98.5c-8.134,3.601-30.667,6.9-67.6,9.9C216.883,655.9,195.684,657.3,158.75,659.7z"/>
<path style="fill-rule:evenodd;clip-rule:evenodd;fill:#292418;" d="M29.05,8.2c17.667,0.733,55.134,2.6,112.4,5.6
	c55.733,2.934,103.533,20.967,143.4,54.1c23.533,19.6,46.133,47.167,67.8,82.7c11.4,18.733,21.433,53.967,30.1,105.7
	c2.667,16.2,5.066,33.034,7.2,50.5l2.3,21.4l0.8-27.5c1.467-22.8,4.533-45.3,9.2-67.5c14.866-70.867,42.767-125.333,83.7-163.4
	c28.933-26.867,66.366-45,112.3-54.4c14.333-3,28.667-4.9,43-5.7l17.2-0.4l-4.9-0.7c10.4,0.8,20.134,1.967,29.2,3.5
	c7.267,1.2,12.566,3.467,15.9,6.8c3.133,3.067,3.933,6.367,2.399,9.9c-1.667,3.667-5.5,6.633-11.5,8.9
	c-6.2,2.333-13.899,3.566-23.1,3.7c-6.667,0.667-22.767,2.167-48.3,4.5c-33.867,4.6-56.801,11.434-68.801,20.5
	c-22.399,17.067-44.6,41.033-66.6,71.9c-30.4,42.733-46.967,83.5-49.7,122.3c-3.2,46.333-4.733,84.266-4.6,113.8
	c0.133,32.133,2.267,62.033,6.399,89.699c4.733,31.667,17.801,61.334,39.2,89c24.134,31.134,52.101,49.4,83.9,54.801
	c20.8,3.6,39,6.399,54.6,8.399c9.601,0.934,24.101,2.3,43.5,4.101c25.934,2.467,46.2,6.633,60.8,12.5
	c15.533,6.267,9.601,12.333-17.8,18.199c-19.6,4.2-36.899,6.634-51.899,7.301L573.05,653.1c-34.066-2.399-66.566-13.933-97.5-34.6
	c-25.8-17.2-43.899-35.333-54.3-54.4c-7.2-13.133-14.3-47.466-21.3-103c-3.467-27.733-6.233-54.166-8.3-79.3l-0.301,74.4
	c-0.199,35.267-10.466,70.833-30.8,106.7c-18.733,32.933-39.633,56.166-62.7,69.699c-13.067,7.667-44.233,14.034-93.5,19.101
	c-34.4,3.6-60.833,5.434-79.3,5.5c-9.733-1-18.833-2.2-27.3-3.601c-10.066-1.6-15.967-4.133-17.7-7.6
	c-1.533-3.066,0.167-6.5,5.1-10.3c4.534-3.533,10.833-6.767,18.9-9.7c7.467-2.733,14.8-4.566,22-5.5c-0.466-0.066-0.9-0.133-1.3-0.2
	c0.6,0,1.3,0.033,2.1,0.101c0.4-0.067,0.8-0.134,1.2-0.2c4.534-0.467,19.3-1.733,44.3-3.8c14.6-1.934,30.7-4.567,48.3-7.9
	c31.733-5.934,59.233-24.3,82.5-55.1c20.667-27.334,33.067-56.834,37.2-88.5c3.667-27.667,5.3-57.601,4.9-89.801
	c-0.333-29.466-2.533-67.333-6.6-113.6c-3.4-39.067-17.767-78.8-43.1-119.2c-18.267-29.267-37.466-52.667-57.6-70.2
	c-13.8-12.067-39.733-20.733-77.8-26c-15.2-2.067-30.267-3.533-45.2-4.4c-3.333-0.067-6.434-0.067-9.3,0
	c-15.533,0.133-34.233-0.934-56.1-3.2C18.75,35.367,3.184,31,2.85,25.4c-0.133-2.2-1.067-5.133-2.8-8.8
	c-0.466-2.867,2-4.934,7.4-6.2C11.65,9.467,18.85,8.733,29.05,8.2z"/>
</svg>
