<?xml version="1.0" encoding="iso-8859-1"?>
<!-- Generator: Adobe Illustrator 15.1.0, SVG Export Plug-In . SVG Version: 6.00 Build 0)  -->
<!DOCTYPE svg PUBLIC "-//W3C//DTD SVG 1.1//EN" "http://www.w3.org/Graphics/SVG/1.1/DTD/svg11.dtd">
<svg version="1.1" id="FlashAICB" xmlns="http://www.w3.org/2000/svg" xmlns:xlink="http://www.w3.org/1999/xlink" x="0px" y="0px"
	 width="726.45px" height="326.55px" viewBox="0 0 726.45 326.55" style="enable-background:new 0 0 726.45 326.55;"
	 xml:space="preserve">
<g>
	<path style="fill-rule:evenodd;clip-rule:evenodd;fill:#292418;" d="M726.1,306.75v17c-148.333-1.8-237.033-3.483-266.1-5.05
		c-5.667-0.3-19.083-0.617-40.25-0.95c-24.667-0.366-45.05-0.816-61.15-1.35c-58.7-2-109.517-6.317-152.45-12.95
		C73.25,282.884,7.217,239.967,8.05,174.7C8.65,128.933,29.5,92.65,70.6,65.85c35.033-22.833,85.783-39.25,152.25-49.25
		c50.6-7.633,115.433-12.017,194.5-13.15c24.034-0.333,56.801-0.434,98.301-0.3c44,0.133,74.35,0.117,91.05-0.05
		c37.033-0.4,76.95-0.667,119.75-0.8v19.6c-41.134,0.333-79.467,0.75-115,1.25c-16.3,0.233-45.601,0.383-87.9,0.45
		c-40.033,0.066-71.633,0.3-94.8,0.7c-76.2,1.333-138.7,5.467-187.5,12.4C177.15,45.767,128.1,60.417,94.1,80.65
		c-39.867,23.767-60.367,55.767-61.5,96c-0.3,11.166,1.833,21.6,6.4,31.3c18.967,40.133,79.9,67.399,182.8,81.8
		c41.267,5.767,90.184,9.467,146.75,11.1c15.4,0.467,35.033,0.834,58.9,1.101c20.5,0.233,33.467,0.483,38.899,0.75
		C494.483,304.033,581.066,305.384,726.1,306.75z"/>
	<path style="fill-rule:evenodd;clip-rule:evenodd;fill:#13110B;" d="M726.45,2.3c-42.8,0.133-82.717,0.4-119.75,0.8
		c-16.7,0.167-47.05,0.183-91.05,0.05c-41.5-0.133-74.267-0.033-98.301,0.3C338.283,4.583,273.45,8.967,222.85,16.6
		c-66.467,10-117.217,26.417-152.25,49.25C29.5,92.65,8.65,128.933,8.05,174.7c-0.833,65.267,65.2,108.184,198.1,128.75
		c42.934,6.633,93.75,10.95,152.45,12.95c16.1,0.533,36.483,0.983,61.15,1.35c21.167,0.333,34.583,0.65,40.25,0.95
		c29.066,1.566,117.767,3.25,266.1,5.05v2.8c-151.3-2-241.616-3.8-270.949-5.399c-5.733-0.301-19.25-0.617-40.551-0.95
		c-24.833-0.4-45.366-0.884-61.6-1.45c-59.067-2.066-110.217-6.483-153.45-13.25C65.717,284.5-0.8,240.85,0,174.55
		C0.567,128.083,21.517,91.267,62.85,64.1c35.3-23.167,86.383-39.8,153.25-49.9C267.067,6.5,332.35,2.1,411.95,1
		c24.1-0.333,57.083-0.417,98.95-0.25c44.166,0.167,74.733,0.167,91.699,0C640.866,0.383,682.15,0.133,726.45,0V2.3z M726.1,306.75
		c-145.033-1.366-231.616-2.717-259.75-4.05c-5.433-0.267-18.399-0.517-38.899-0.75c-23.867-0.267-43.5-0.634-58.9-1.101
		c-56.566-1.633-105.483-5.333-146.75-11.1c-102.9-14.4-163.833-41.667-182.8-81.8c21.067,38.866,81.667,65.467,181.8,79.8
		c41.333,5.9,90.284,9.717,146.851,11.45c15.466,0.467,35.133,0.866,59,1.2c20.433,0.267,33.399,0.533,38.899,0.8
		c28.233,1.366,115.084,2.833,260.55,4.399V306.75z"/>
</g>
</svg>
