<?xml version="1.0" encoding="iso-8859-1"?>
<!-- Generator: Adobe Illustrator 15.1.0, SVG Export Plug-In . SVG Version: 6.00 Build 0)  -->
<!DOCTYPE svg PUBLIC "-//W3C//DTD SVG 1.1//EN" "http://www.w3.org/Graphics/SVG/1.1/DTD/svg11.dtd">
<svg version="1.1" id="Layer_1" xmlns="http://www.w3.org/2000/svg" xmlns:xlink="http://www.w3.org/1999/xlink" x="0px" y="0px"
	 width="353px" height="533px" viewBox="0 0 353 533" style="enable-background:new 0 0 353 533;" xml:space="preserve">
<path style="fill-rule:evenodd;clip-rule:evenodd;fill:#443214;" d="M181.45,139.2c-0.033,0-0.066,0-0.101,0H177.2l-0.05-0.75
	c0-0.333-0.134-0.633-0.4-0.9c-0.233-0.233-0.517-0.35-0.85-0.35c-0.367,0-0.733,0.117-1.1,0.35c-0.233,0.167-0.4,0.35-0.5,0.55
	c0.1-0.6,0.367-1.1,0.8-1.5c0.267-0.267,0.55-0.467,0.85-0.6V1.6c0-0.434,0.149-0.817,0.45-1.15C176.733,0.15,177.1,0,177.5,0h0.1
	c0.4,0,0.75,0.15,1.051,0.45c0.3,0.333,0.449,0.716,0.449,1.15v134.2c0.567,0.1,1.067,0.367,1.5,0.8c0.567,0.533,0.851,1.2,0.851,2
	V139.2z M181.45,144.15c-0.033,0-0.066,0-0.101,0h-4.1l-0.05-2.85h4.149c0.034,0,0.067,0,0.101,0V144.15z M211.15,175.65
	l-32.95,4.85h-0.25l-0.65-34.25h4.05c0.034,0,0.067,0,0.101,0v5.65L211.15,175.65z"/>
<path style="fill-rule:evenodd;clip-rule:evenodd;fill:#8E6645;" d="M177.2,139.2h4.149c0.034,0,0.067,0,0.101,0
	c0.233,0.033,0.45,0.133,0.649,0.3c0.2,0.233,0.301,0.483,0.301,0.75c0,0.3-0.101,0.55-0.301,0.75
	c-0.199,0.167-0.416,0.267-0.649,0.3c-0.033,0-0.066,0-0.101,0H177.2h-2.4c-0.233,0-0.433-0.05-0.6-0.15
	c-0.067-0.066-0.117-0.117-0.15-0.15c-0.233-0.2-0.35-0.45-0.35-0.75c0-0.267,0.117-0.517,0.35-0.75
	c0.034-0.033,0.083-0.067,0.15-0.1c0.167-0.133,0.367-0.2,0.6-0.2H177.2z M177.3,146.25h-2.5c-0.233,0-0.433-0.05-0.6-0.15
	c-0.067-0.067-0.117-0.117-0.15-0.15c-0.233-0.233-0.35-0.483-0.35-0.75c0-0.3,0.117-0.55,0.35-0.75
	c0.034-0.034,0.083-0.067,0.15-0.1c0.167-0.133,0.367-0.2,0.6-0.2h2.45h4.1c0.034,0,0.067,0,0.101,0
	c0.233,0.033,0.45,0.133,0.649,0.3c0.2,0.2,0.301,0.45,0.301,0.75c0,0.267-0.101,0.517-0.301,0.75
	c-0.199,0.167-0.416,0.267-0.649,0.3c-0.033,0-0.066,0-0.101,0H177.3z"/>
<path style="fill-rule:evenodd;clip-rule:evenodd;fill:#272400;" d="M174.2,139.4v-0.95c0-0.133,0.033-0.25,0.1-0.35
	c0.1-0.2,0.267-0.383,0.5-0.55c0.367-0.233,0.733-0.35,1.1-0.35c0.333,0,0.617,0.117,0.85,0.35c0.267,0.267,0.4,0.567,0.4,0.9
	l0.05,0.75h-2.4C174.567,139.2,174.367,139.267,174.2,139.4z M177.3,146.25l0.65,34.25l-30.1-4.05l26.35-25.05v-5.3
	c0.167,0.1,0.367,0.15,0.6,0.15H177.3z M174.2,144.35v-3.2c0.167,0.1,0.367,0.15,0.6,0.15h2.4l0.05,2.85h-2.45
	C174.567,144.15,174.367,144.217,174.2,144.35z"/>
<path style="fill-rule:evenodd;clip-rule:evenodd;fill:#423012;" d="M147.85,176.45l30.1,4.05h0.25l32.95-4.85l0.449-0.1l-0.05,2.65
	l-7.399,1.1l-25.601,3.65l-0.35-0.05v34.5l-26.2-5.75l-0.05,0.05v-1.9v-26.95v-3.3l-5.45-0.7l0.05-2.6L147.85,176.45z M148.1,212.8
	l30.1,7.45h-0.05l0.05,5.4l-30.1-8.15V212.8z M169.35,197.15l-3.6-0.6v3.8l3.6,0.6V197.15z M163.7,194.85v-4.75l-4.05-0.7v4.8
	L163.7,194.85z M171.35,191.35v4.75l3.65,0.6V192L171.35,191.35z M165.75,190.45v4.75l3.6,0.6v-4.75L165.75,190.45z M171.35,185.8
	v4.2l3.65,0.6v-4.4L171.35,185.8z M169.35,185.55l-3.6-0.4v3.95l3.6,0.6V185.55z M163.7,188.8v-3.9l-4.05-0.45v3.7L163.7,188.8z
	 M159.65,200.65v4.2l4.05,0.7v-4.2L159.65,200.65z M154.3,205.25v4.15l3.3,0.7v-4.3L154.3,205.25z M154.25,199.75l0.05,4.25
	l3.3,0.55v-4.25L154.25,199.75z M154.2,193.35l3.4,0.55v-4.85l-3.4-0.55V193.35z M157.6,195.15l-3.4-0.55l0.05,3.9l3.35,0.55V195.15
	z M157.6,184.2l-3.45-0.4l0.05,3.45l3.4,0.55V184.2z M159.65,206.15v4.35l4.05,0.85v-4.5L159.65,206.15z M175,207.35v-4.1
	l-3.65-0.65v4.15L175,207.35z M165.75,205.85l3.6,0.6v-4.15l-3.6-0.6V205.85z M169.35,207.8l-3.6-0.6v4.55l3.6,0.75V207.8z
	 M175,201.85v-3.75l-3.65-0.65v3.8L175,201.85z M171.35,208.1v4.8l3.65,0.7v-4.85L171.35,208.1z M159.65,195.5v3.9l4.05,0.65v-3.85
	L159.65,195.5z"/>
<path style="fill-rule:evenodd;clip-rule:evenodd;fill:#78573B;" d="M204.15,182.6V210v0.15l-0.101,1l-25.85,6.25v-34.5l0.35,0.05
	l25.601-3.65V182.6z M180.7,191.9v4.7l3.95-0.65v-4.7L180.7,191.9z M180.7,185.85v4.65l3.95-0.65v-4.55L180.7,185.85z M190.3,184.55
	l-3.6,0.5v4.5l3.6-0.6V184.55z M201.5,182.95l-3.1,0.45v4.25l3.1-0.5V182.95z M192.35,194.75l4.051-0.65v-4.85l-4.051,0.7V194.75z
	 M190.3,195.05v-4.75l-3.6,0.6v4.75L190.3,195.05z M186.7,197v3.8l3.6-0.6v-3.8L186.7,197z M198.4,195.05v3.85l3.1-0.5v-3.9
	L198.4,195.05z M201.5,193.25v-4.85l-3.1,0.55v4.8L201.5,193.25z M192.35,196.05v3.85l4.051-0.65v-3.9L192.35,196.05z
	 M192.35,184.25v4.4L196.4,188v-4.35L192.35,184.25z M201.45,203.9l0.05-4.25l-3.1,0.55v4.2L201.45,203.9z M196.4,206l-4.051,0.7
	v3.85l4.051-0.9V206z M198.4,209.2l3.05-0.7v-3.35l-3.05,0.55V209.2z M196.4,200.5l-4.051,0.7v4.2l4.051-0.65V200.5z M184.65,202.5
	l-3.95,0.65v4.1l3.95-0.65V202.5z M186.7,207.65v4.2l3.6-0.8v-4L186.7,207.65z M190.3,205.7v-4.15l-3.6,0.6v4.15L190.3,205.7z
	 M184.65,208l-3.95,0.65v4.55l3.95-0.9V208z M180.7,198v3.75l3.95-0.65v-3.75L180.7,198z"/>
<radialGradient id="SVGID_1_" cx="178.0996" cy="194.3501" r="28.375" gradientTransform="matrix(1 0 0 -1 0 388.7002)" gradientUnits="userSpaceOnUse">
	<stop  offset="0" style="stop-color:#F2E869"/>
	<stop  offset="1" style="stop-color:#7B682A"/>
</radialGradient>
<path style="fill-rule:evenodd;clip-rule:evenodd;fill:url(#SVGID_1_);" d="M169.35,185.55v4.15l-3.6-0.6v-3.95L169.35,185.55z
	 M171.35,185.8l3.65,0.4v4.4l-3.65-0.6V185.8z M165.75,190.45l3.6,0.6v4.75l-3.6-0.6V190.45z M171.35,191.35L175,192v4.7l-3.65-0.6
	V191.35z M163.7,194.85l-4.05-0.65v-4.8l4.05,0.7V194.85z M169.35,197.15v3.8l-3.6-0.6v-3.8L169.35,197.15z M180.7,185.85l3.95-0.55
	v4.55l-3.95,0.65V185.85z M180.7,191.9l3.95-0.65v4.7l-3.95,0.65V191.9z M163.7,188.8l-4.05-0.65v-3.7l4.05,0.45V188.8z
	 M201.5,182.95v4.2l-3.1,0.5v-4.25L201.5,182.95z M190.3,184.55v4.4l-3.6,0.6v-4.5L190.3,184.55z M192.35,184.25l4.051-0.6V188
	l-4.051,0.65V184.25z M192.35,196.05l4.051-0.7v3.9l-4.051,0.65V196.05z M201.5,193.25l-3.1,0.5v-4.8l3.1-0.55V193.25z
	 M198.4,195.05l3.1-0.55v3.9l-3.1,0.5V195.05z M186.7,197l3.6-0.6v3.8l-3.6,0.6V197z M190.3,195.05l-3.6,0.6v-4.75l3.6-0.6V195.05z
	 M192.35,194.75v-4.8l4.051-0.7v4.85L192.35,194.75z M157.6,184.2v3.6l-3.4-0.55l-0.05-3.45L157.6,184.2z M157.6,195.15v3.9
	l-3.35-0.55l-0.05-3.9L157.6,195.15z M154.2,193.35v-4.85l3.4,0.55v4.85L154.2,193.35z M154.25,199.75l3.35,0.55v4.25l-3.3-0.55
	L154.25,199.75z M154.3,205.25l3.3,0.55v4.3l-3.3-0.7V205.25z M159.65,200.65l4.05,0.7v4.2l-4.05-0.7V200.65z M159.65,206.15
	l4.05,0.7v4.5l-4.05-0.85V206.15z M201.45,203.9l-3.05,0.5v-4.2l3.1-0.55L201.45,203.9z M184.65,208v4.3l-3.95,0.9v-4.55L184.65,208
	z M190.3,205.7l-3.6,0.6v-4.15l3.6-0.6V205.7z M186.7,207.65l3.6-0.6v4l-3.6,0.8V207.65z M184.65,202.5v4.1l-3.95,0.65v-4.1
	L184.65,202.5z M196.4,200.5v4.25l-4.051,0.65v-4.2L196.4,200.5z M198.4,209.2v-3.5l3.05-0.55v3.35L198.4,209.2z M196.4,206v3.65
	l-4.051,0.9v-3.85L196.4,206z M175,207.35l-3.65-0.6v-4.15l3.65,0.65V207.35z M180.7,198l3.95-0.65v3.75l-3.95,0.65V198z
	 M175,201.85l-3.65-0.6v-3.8l3.65,0.65V201.85z M169.35,207.8v4.7l-3.6-0.75v-4.55L169.35,207.8z M165.75,205.85v-4.15l3.6,0.6v4.15
	L165.75,205.85z M171.35,208.1l3.65,0.65v4.85l-3.65-0.7V208.1z M159.65,195.5l4.05,0.7v3.85l-4.05-0.65V195.5z"/>
<radialGradient id="SVGID_2_" cx="178.0996" cy="194.3501" r="28.375" gradientTransform="matrix(1 0 0 -1 0 388.7002)" gradientUnits="userSpaceOnUse">
	<stop  offset="0" style="stop-color:#F2E869"/>
	<stop  offset="1" style="stop-color:#F2E869;stop-opacity:0"/>
</radialGradient>
<path style="fill-rule:evenodd;clip-rule:evenodd;fill:url(#SVGID_2_);" d="M204.15,210v-27.4c2.399,4.267,3.6,9.05,3.6,14.35
	C207.75,202.017,206.55,206.367,204.15,210z M151.95,182.85v26.95c-2.333-3.6-3.5-7.883-3.5-12.85
	C148.45,191.75,149.617,187.05,151.95,182.85z"/>
<polygon style="fill-rule:evenodd;clip-rule:evenodd;fill:#8F6846;" points="178.2,220.25 148.1,212.8 151.95,211.7 152,211.65 
	178.2,217.4 204.05,211.15 204.15,210.15 207.75,211.8 207.75,211.9 "/>
<polygon style="fill-rule:evenodd;clip-rule:evenodd;fill:#967253;" points="178.2,220.25 207.75,211.9 207.8,216.4 178.2,225.65 
	178.15,220.25 "/>
<g>
	
		<radialGradient id="SVGID_3_" cx="191.0254" cy="200.1001" r="18.4705" gradientTransform="matrix(1 0 0 -1.4245 0 485.1445)" gradientUnits="userSpaceOnUse">
		<stop  offset="0" style="stop-color:#F3EB68"/>
		<stop  offset="1" style="stop-color:#F3EB68;stop-opacity:0"/>
	</radialGradient>
	<path style="fill-rule:evenodd;clip-rule:evenodd;fill:url(#SVGID_3_);" d="M191.05,173.9c5.134,0,9.517,2.567,13.15,7.7
		c3.566,5.133,5.35,11.3,5.35,18.5c0,7.333-1.783,13.566-5.35,18.7c-3.634,5.133-8.017,7.7-13.15,7.7c-4.767,0-9.116-3.9-13.05-11.7
		c-3.667-7.333-5.5-14.917-5.5-22.75C172.5,179.95,178.684,173.9,191.05,173.9z"/>
</g>
<g>
	
		<radialGradient id="SVGID_4_" cx="163.6748" cy="200.0498" r="18.4708" gradientTransform="matrix(1 0 0 -1.4245 0 485.0226)" gradientUnits="userSpaceOnUse">
		<stop  offset="0" style="stop-color:#F3EB68"/>
		<stop  offset="1" style="stop-color:#F3EB68;stop-opacity:0"/>
	</radialGradient>
	<path style="fill-rule:evenodd;clip-rule:evenodd;fill:url(#SVGID_4_);" d="M176.85,181.55c3.567,5.133,5.351,11.3,5.351,18.5
		c0,7.333-1.783,13.567-5.351,18.7c-3.633,5.133-8.016,7.7-13.149,7.7c-4.767,0-9.117-3.9-13.05-11.7
		c-3.667-7.333-5.5-14.917-5.5-22.75c0-12.1,6.184-18.15,18.55-18.15C168.833,173.85,173.217,176.417,176.85,181.55z"/>
</g>
<g>
	
		<radialGradient id="SVGID_5_" cx="-312.0298" cy="175.9058" r="153.981" fx="-184.618" fy="175.9058" gradientTransform="matrix(0.0093 -1 -0.9514 -0.0088 343.2585 3.1878)" gradientUnits="userSpaceOnUse">
		<stop  offset="0" style="stop-color:#F8DF77;stop-opacity:0.4275"/>
		<stop  offset="1" style="stop-color:#F8DF77;stop-opacity:0"/>
	</radialGradient>
	<path style="fill-rule:evenodd;clip-rule:evenodd;fill:url(#SVGID_5_);" d="M353.5,340.1c0,25.167-4.616,49.233-13.85,72.2
		c-8.967,22.2-21.584,41.851-37.851,58.95c-16.3,17.134-35,30.384-56.1,39.75c-21.867,9.733-44.767,14.6-68.7,14.6
		c-23.933,0-46.833-4.866-68.7-14.6c-21.133-9.366-39.833-22.616-56.1-39.75c-16.3-17.1-28.917-36.75-37.85-58.95
		C5.117,389.333,0.5,365.267,0.5,340.1c0-25.166,4.617-49.233,13.85-72.199c8.933-22.2,21.55-41.851,37.85-58.95
		c16.267-17.133,34.966-30.383,56.1-39.75c21.867-9.733,44.767-14.6,68.7-14.6c23.934,0,46.833,4.867,68.7,14.6
		c21.1,9.367,39.8,22.617,56.1,39.75c16.3,17.1,28.917,36.75,37.851,58.95C348.884,290.866,353.5,314.934,353.5,340.1z"/>
</g>
</svg>
