<?xml version="1.0" encoding="iso-8859-1"?>
<!-- Generator: Adobe Illustrator 15.1.0, SVG Export Plug-In . SVG Version: 6.00 Build 0)  -->
<!DOCTYPE svg PUBLIC "-//W3C//DTD SVG 1.1//EN" "http://www.w3.org/Graphics/SVG/1.1/DTD/svg11.dtd">
<svg version="1.1" id="Layer_1" xmlns="http://www.w3.org/2000/svg" xmlns:xlink="http://www.w3.org/1999/xlink" x="0px" y="0px"
	 width="725.4px" height="655.8px" viewBox="0 0 725.4 655.8" style="enable-background:new 0 0 725.4 655.8;" xml:space="preserve"
	>
<path style="fill-rule:evenodd;clip-rule:evenodd;fill:#292418;" d="M632.2,646.9h-0.9c-0.267-0.134-0.5-0.301-0.7-0.5
	c-20.466,0.933-34.6,1.232-42.399,0.899c-3.601-0.133-7.333-0.467-11.2-1c-14.467-2.133-31.033-7.467-49.7-16
	c-25.066-11.467-43.1-24.133-54.1-38c-16.467-20.733-29.367-43.633-38.7-68.7c-14.4-38.533-21.833-83.966-22.3-136.3
	c-0.667-77.333,5.934-141.033,19.8-191.1c26-94.133,75.733-149.1,149.2-164.9c19.533-4.2,38.2-7.6,56-10.2h0.1
	c10.533,1.066,18.233,2.033,23.101,2.9c9.6,1.133,18.433,2.533,26.5,4.2c6.8,1.4,11.8,3.667,15,6.8c3,3,3.8,6.133,2.399,9.4
	c-3.467,7.934-14.933,11.6-34.399,11c-22.4,0.867-40.233,2.1-53.5,3.7c-28.267,3.467-47.733,9-58.4,16.6
	c-8.467,6.066-18.1,14.466-28.9,25.2c-13.333,13.267-25.566,27.4-36.699,42.4c-30,40.467-46.367,79.467-49.101,117
	c-3.267,44.8-4.866,81.467-4.8,110c0.134,31.134,2.2,60.066,6.2,86.8c4.6,30.534,17.399,59.101,38.399,85.7
	c23.601,29.867,50.934,47.3,82,52.3c28.867,4.601,52.367,7.733,70.5,9.4l15.2,1.1h0.9c13.8,1.067,25.1,2.301,33.899,3.7
	c12.334,2,22.967,4.767,31.9,8.3c14.667,5.801,8.967,11.601-17.1,17.4c-18.467,4.066-34.967,6.533-49.5,7.4h-0.4
	c-2.667,0.8-5.5,1.633-8.5,2.5c-3.934,0.467-6.9,1.133-8.9,2H632.2z M226.7,650.3c-17.867,2-38.6,2.2-62.2,0.601h-3.2
	c-2.8-0.268-5.566-0.567-8.3-0.9c-5.267-0.6-10.5-1.3-15.7-2.1c-6.2-0.326-11.408-0.618-15.625-0.875
	c1.463,0.041,4.538,0,9.225-0.125c-0.133,0-0.267,0-0.4,0c-11.6-0.934-20.967-1.967-28.1-3.101c-10.267-1.467-16.4-3.866-18.4-7.2
	c-1.667-2.866-0.067-6.199,4.8-10c4.4-3.467,10.733-6.699,19-9.699c8.2-2.934,16.333-4.967,24.4-6.101l-1.7-0.2h3.1l0.3-0.1
	c5.2-0.6,20.6-2,46.2-4.2c14.2-1.933,30.533-4.6,49-8c32.267-6.066,60.167-24.167,83.7-54.3c20.934-26.733,33.534-55.5,37.8-86.3
	c3.667-26.934,5.333-56.066,5-87.4c-0.4-28.6-2.567-65.566-6.5-110.9c-3.4-38.133-17.867-77.333-43.4-117.6
	c-18.467-29.133-37.9-52.6-58.3-70.4C227.733,54.267,184.267,42.8,117,37l-6-0.2c-15.8-0.333-35.433-2.033-58.9-5.1
	C19.7,27.433,3.333,22.467,3,16.8c-0.067-1.267-0.733-3.3-2-6.1c-1-2.267-1.267-3.934-0.8-5C1.6,2.633,10.867,0.933,28,0.6L19.9,0
	l81.8,0.9c37.933,2.6,71.3,6.833,100.1,12.7c35.8,7.333,62.6,16.9,80.4,28.7c31.866,21.067,56.7,52.833,74.5,95.3
	c20.267,48.2,31.1,109.433,32.5,183.7c0.866,45.4,0.866,81.134,0,107.2c-1.2,34.267-4.066,63-8.601,86.2
	C370.333,566.9,348.2,603.1,314.2,623.3c-18.934,11.333-43.167,19.601-72.7,24.8c-4.133,0.667-8.333,1.301-12.6,1.9L226.7,650.3z"/>
<path style="fill-rule:evenodd;clip-rule:evenodd;fill:#13110B;" d="M632.2,646.9c-14.934,3.6-22.267,5.399-22,5.399
	c-6.533,0.467-16.7,0.934-30.5,1.4l-7.5-1.4c-0.867-0.133-1.7-0.267-2.5-0.399l-21-4.301c-2-0.467-3.934-0.967-5.8-1.5L503,629.8
	c-0.333-0.2-0.667-0.399-1-0.6c-1.267-0.733-2.533-1.5-3.8-2.3c-20.8-13.067-40.467-33.268-59-60.601
	c-15.8-23.333-26.7-63.5-32.7-120.5c-3-28.467-4.434-54.633-4.3-78.5c-1,22.533-2.566,47.134-4.7,73.8
	c-4.333,53.334-9.434,90.4-15.3,111.2c-6.733,24-18.4,44.367-35,61.101c-15.333,15.467-33,26.1-53,31.899
	c-0.134,0-0.233,0.033-0.3,0.101c-0.533,0.133-1.1,0.3-1.7,0.5c-0.733,0.199-1.5,0.433-2.3,0.699c-7.066,1.867-15.1,3.667-24.1,5.4
	l-41.4-1.4c0.733-0.066,1.5-0.166,2.3-0.3l2.2-0.3c4.267-0.6,8.467-1.233,12.6-1.9c29.533-5.199,53.767-13.467,72.7-24.8
	c34-20.2,56.133-56.399,66.399-108.6c4.534-23.2,7.4-51.934,8.601-86.2c0.866-26.066,0.866-61.8,0-107.2
	c-1.4-74.267-12.233-135.5-32.5-183.7c-17.8-42.467-42.634-74.233-74.5-95.3c-17.8-11.8-44.6-21.367-80.4-28.7
	C173,7.733,139.633,3.5,101.7,0.9c-0.369-0.053-0.736-0.086-1.1-0.1l72.8,0.9c18.934,3.066,36.367,6.566,52.3,10.5
	c21.466,5.267,38.633,10.966,51.5,17.1c25.4,12.133,48.333,32.934,68.8,62.4c23.2,33.4,37.6,70.933,43.2,112.6l12,89l5.399-30.1
	c4.934-24.467,10.733-47.733,17.4-69.8c21.333-70.467,47.4-115.5,78.2-135.1c22.533-14.2,39.934-23.7,52.2-28.5
	c16.199-6.267,35.433-9.9,57.699-10.9c0.601,0.067,1.2,0.133,1.801,0.2c7.467,0.6,14.133,1.167,20,1.7l3.3,0.3
	c-17.8,2.6-36.467,6-56,10.2C507.733,47.1,458,102.067,432,196.2c-13.866,50.066-20.467,113.767-19.8,191.1
	c0.467,52.334,7.899,97.767,22.3,136.3c9.333,25.067,22.233,47.967,38.7,68.7c11,13.867,29.033,26.533,54.1,38
	c18.667,8.533,35.233,13.867,49.7,16c3.867,0.533,7.6,0.867,11.2,1c7.8,0.333,21.934,0.033,42.399-0.899
	c0.2,0.199,0.434,0.366,0.7,0.5H632.2z"/>
<path style="fill-rule:evenodd;clip-rule:evenodd;" d="M173.4,1.7L204.6,2c88.133,1.133,142.867,2.1,164.2,2.9l30.4,1.4
	c61.733,2.934,113.434,5.733,155.1,8.4l0.4,0.1l6,0.3l0.7,0.1l16.6,1.1c0.4,0.067,0.967,0.1,1.7,0.1l21.6,1.6l0.4,0.1
	c3.6,0.267,7.066,0.533,10.399,0.8c-22.267,1-41.5,4.633-57.699,10.9c-12.267,4.8-29.667,14.3-52.2,28.5
	c-30.8,19.6-56.867,64.633-78.2,135.1c-6.667,22.067-12.467,45.333-17.4,69.8l-5.399,30.1l-12-89c-5.601-41.667-20-79.2-43.2-112.6
	c-20.467-29.467-43.4-50.267-68.8-62.4c-12.867-6.133-30.034-11.833-51.5-17.1C209.767,8.267,192.333,4.767,173.4,1.7z M579.7,653.7
	c-29.2,1.066-63.3,1.733-102.3,2c-35.667,0.2-66.067,0.066-91.2-0.4c-28.067-0.467-68.2-1.566-120.4-3.3
	c9-1.733,17.034-3.533,24.1-5.4c0.8-0.267,1.567-0.5,2.3-0.699c0.6-0.2,1.167-0.367,1.7-0.5c0.067-0.067,0.167-0.101,0.3-0.101
	c20-5.8,37.667-16.433,53-31.899c16.6-16.733,28.267-37.101,35-61.101c5.866-20.8,10.967-57.866,15.3-111.2
	c2.134-26.666,3.7-51.267,4.7-73.8c-0.134,23.867,1.3,50.033,4.3,78.5c6,57,16.9,97.167,32.7,120.5
	c18.533,27.333,38.2,47.533,59,60.601c1.267,0.8,2.533,1.566,3.8,2.3c0.333,0.2,0.667,0.399,1,0.6l39.9,16.3
	c1.866,0.533,3.8,1.033,5.8,1.5l21,4.301c0.8,0.133,1.633,0.267,2.5,0.399L579.7,653.7z"/>
</svg>
