<?xml version="1.0" encoding="iso-8859-1"?>
<!-- Generator: Adobe Illustrator 15.1.0, SVG Export Plug-In . SVG Version: 6.00 Build 0)  -->
<!DOCTYPE svg PUBLIC "-//W3C//DTD SVG 1.1//EN" "http://www.w3.org/Graphics/SVG/1.1/DTD/svg11.dtd">
<svg version="1.1" id="lantern_x5F_stacked" xmlns="http://www.w3.org/2000/svg" xmlns:xlink="http://www.w3.org/1999/xlink"
	 x="0px" y="0px" width="33.75px" height="94.65px" viewBox="0 0 33.75 94.65" style="enable-background:new 0 0 33.75 94.65;"
	 xml:space="preserve">
<symbol  id="FlashAICB_x2F_lantern_x5F_stacked_x2F__x3C_Path_x3E_" viewBox="0 -20.55 15.2 20.55">
	<g id="Layer_1_3_">
		
			<radialGradient id="SVGID_1_" cx="7.6001" cy="-10.2998" r="7.6125" gradientTransform="matrix(1 0 0 -1.3481 0 -24.1851)" gradientUnits="userSpaceOnUse">
			<stop  offset="0" style="stop-color:#F3EB68"/>
			<stop  offset="1" style="stop-color:#F3EB68;stop-opacity:0"/>
		</radialGradient>
		<path style="fill-rule:evenodd;clip-rule:evenodd;fill:url(#SVGID_1_);" d="M15.2-7.6c0-3-0.733-5.867-2.2-8.6
			c-1.6-2.9-3.4-4.35-5.4-4.35c-2.1,0-3.883,1-5.35,3c-1.5,2-2.25,4.433-2.25,7.3C0-7.417,0.75-5,2.25-3C3.717-1,5.5,0,7.6,0
			c2.3,0,4.1-0.567,5.4-1.7C14.467-2.967,15.2-4.933,15.2-7.6z"/>
	</g>
</symbol>
<symbol  id="FlashAICB_x2F_lantern_x5F_stacked_x2F__x3C_Path_x3E__x5F_0" viewBox="0 -20.55 15.2 20.55">
	<g id="Layer_1_5_">
		
			<radialGradient id="SVGID_2_" cx="7.6001" cy="-10.2998" r="7.6125" gradientTransform="matrix(1 0 0 -1.3481 0 -24.1851)" gradientUnits="userSpaceOnUse">
			<stop  offset="0" style="stop-color:#F3EB68"/>
			<stop  offset="1" style="stop-color:#F3EB68;stop-opacity:0"/>
		</radialGradient>
		<path style="fill-rule:evenodd;clip-rule:evenodd;fill:url(#SVGID_2_);" d="M15.2-7.6c0-3.033-0.733-5.9-2.2-8.6
			c-1.6-2.9-3.4-4.35-5.4-4.35c-2.1,0-3.883,1-5.35,3C0.75-15.55,0-13.133,0-10.3C0-7.467,0.75-5.033,2.25-3C3.717-1,5.5,0,7.6,0
			c2.3,0,4.1-0.567,5.4-1.7C14.467-2.967,15.2-4.933,15.2-7.6z"/>
	</g>
</symbol>
<symbol  id="FlashAICB_x2F_lantern_x5F_stacked_x2F__x3C_Path_x3E__x5F_1" viewBox="0 -17.65 12.4 17.65">
	<g id="Layer_1_2_">
		
			<radialGradient id="SVGID_3_" cx="6.2002" cy="-8.8501" r="6.2126" gradientTransform="matrix(1 0 0 -1.4225 0 -21.4399)" gradientUnits="userSpaceOnUse">
			<stop  offset="0" style="stop-color:#F3EB68"/>
			<stop  offset="1" style="stop-color:#F3EB68;stop-opacity:0"/>
		</radialGradient>
		<path style="fill-rule:evenodd;clip-rule:evenodd;fill:url(#SVGID_3_);" d="M12.4-8.85c0-2.433-0.6-4.5-1.8-6.2
			c-1.2-1.733-2.667-2.6-4.4-2.6c-1.633,0-3.1,1.316-4.4,3.95C0.6-11.267,0-8.75,0-6.15c0,2.267,0.6,3.9,1.8,4.9
			C2.8-0.417,4.267,0,6.2,0c1.733,0,3.2-0.867,4.4-2.6C11.8-4.3,12.4-6.383,12.4-8.85z"/>
	</g>
</symbol>
<symbol  id="FlashAICB_x2F_lantern_x5F_stacked_x2F__x3C_Path_x3E__x5F_1_x5F_0" viewBox="0 -17.7 12.4 17.7">
	<g id="Layer_1_4_">
		
			<radialGradient id="SVGID_4_" cx="6.2002" cy="-8.8501" r="6.2126" gradientTransform="matrix(1 0 0 -1.4225 0 -21.4399)" gradientUnits="userSpaceOnUse">
			<stop  offset="0" style="stop-color:#F3EB68"/>
			<stop  offset="1" style="stop-color:#F3EB68;stop-opacity:0"/>
		</radialGradient>
		<path style="fill-rule:evenodd;clip-rule:evenodd;fill:url(#SVGID_4_);" d="M12.4-8.85c0-2.433-0.6-4.517-1.8-6.25
			c-1.2-1.733-2.667-2.6-4.4-2.6c-1.633,0-3.1,1.317-4.4,3.95c-1.2,2.467-1.8,5-1.8,7.6c0,2.267,0.6,3.9,1.8,4.9
			C2.8-0.417,4.267,0,6.2,0c1.733,0,3.2-0.867,4.4-2.6C11.8-4.3,12.4-6.383,12.4-8.85z"/>
	</g>
</symbol>
<g>
	<polygon style="fill-rule:evenodd;clip-rule:evenodd;fill:#7F5631;" points="29.05,71.75 28.85,87.3 17.2,89.15 17.2,73.15 	"/>
	<polygon style="fill-rule:evenodd;clip-rule:evenodd;fill:#7F5631;" points="3.4,72.3 15.3,73.65 15.3,89 3.65,87.2 	"/>
	
		<radialGradient id="SVGID_5_" cx="16.375" cy="78.375" r="14.7379" gradientTransform="matrix(1 0 0 -1 0 156.75)" gradientUnits="userSpaceOnUse">
		<stop  offset="0" style="stop-color:#F3EB68"/>
		<stop  offset="1" style="stop-color:#F3EB68;stop-opacity:0"/>
	</radialGradient>
	<path style="fill-rule:evenodd;clip-rule:evenodd;fill:url(#SVGID_5_);" d="M31.75,79.75c0,4.066-1.5,7.233-4.5,9.5
		c-2.767,2.1-6.384,3.15-10.85,3.15c-4.467,0-8.101-1.051-10.9-3.15c-3-2.267-4.5-5.434-4.5-9.5c0-4.233,1.5-7.866,4.5-10.9
		c3.033-3,6.667-4.5,10.9-4.5c4.233,0,7.85,1.5,10.85,4.5C30.25,71.884,31.75,75.517,31.75,79.75z"/>
	<path style="fill-rule:evenodd;clip-rule:evenodd;fill:#76573C;" d="M16.25,66.8h13.6v21.5L16.25,92V66.8z M28.5,85.7V72.45
		L17.75,74v14.2L28.5,85.7z"/>
	<path style="fill-rule:evenodd;clip-rule:evenodd;fill:#413013;" d="M2.8,68.65H16.4V92L2.8,88.3V68.65z M14.75,88.35V74.15
		l-10.8-1.2l0.1,13.25L14.75,88.35z"/>
	<polygon style="fill-rule:evenodd;clip-rule:evenodd;fill:#8D6848;" points="0.8,90.4 0.8,87.95 2.85,87.35 16.45,90.35 29.8,87.1 
		29.9,86.55 31.75,87.45 31.75,89.85 16.45,94.65 	"/>
	<polygon style="fill-rule:evenodd;clip-rule:evenodd;fill:#413013;" points="0.8,87.95 16.45,91.8 16.45,94.65 0.8,90.4 	"/>
	<path style="fill-rule:evenodd;clip-rule:evenodd;fill:#8C6646;" d="M18.6,52.9c0,0.366-0.183,0.55-0.55,0.55h-3.4
		c-0.367,0-0.55-0.184-0.55-0.55c0-0.367,0.183-0.551,0.55-0.551h3.4C18.417,52.35,18.6,52.533,18.6,52.9z"/>
	<path style="fill-rule:evenodd;clip-rule:evenodd;fill:#8C6646;" d="M18.6,50.35c0,0.367-0.183,0.551-0.55,0.551h-3.4
		c-0.367,0-0.55-0.184-0.55-0.551c0-0.366,0.183-0.55,0.55-0.55h3.4C18.417,49.8,18.6,49.983,18.6,50.35z"/>
	<polygon style="fill-rule:evenodd;clip-rule:evenodd;fill:#947254;" points="31.75,87.5 31.75,89.85 16.45,94.65 16.4,91.8 	"/>
	<g>
		<rect x="19.8" y="73.1" style="fill-rule:evenodd;clip-rule:evenodd;fill:#76573C;" width="1.05" height="15"/>
		<rect x="22.7" y="72.55" style="fill-rule:evenodd;clip-rule:evenodd;fill:#76573C;" width="1.05" height="15"/>
		<rect x="25.85" y="72" style="fill-rule:evenodd;clip-rule:evenodd;fill:#76573C;" width="1.051" height="15"/>
		<polygon style="fill-rule:evenodd;clip-rule:evenodd;fill:#76573C;" points="17.4,76.45 28.95,74.6 28.95,75.25 17.35,77.15 		"/>
		<polygon style="fill-rule:evenodd;clip-rule:evenodd;fill:#76573C;" points="17.4,79.6 28.95,77.75 28.95,78.4 17.35,80.35 		"/>
		<polygon style="fill-rule:evenodd;clip-rule:evenodd;fill:#76573C;" points="17.4,82.3 28.95,80.4 28.95,81.05 17.35,83 		"/>
		<polygon style="fill-rule:evenodd;clip-rule:evenodd;fill:#76573C;" points="17.4,85.1 28.95,83.25 28.95,83.9 17.35,85.85 		"/>
	</g>
	<g>
		<rect x="11.85" y="73.2" style="fill-rule:evenodd;clip-rule:evenodd;fill:#413013;" width="1.05" height="15"/>
		<rect x="8.9" y="72.65" style="fill-rule:evenodd;clip-rule:evenodd;fill:#413013;" width="1.05" height="15"/>
		<rect x="5.75" y="72.05" style="fill-rule:evenodd;clip-rule:evenodd;fill:#413013;" width="1.05" height="15"/>
		<polygon style="fill-rule:evenodd;clip-rule:evenodd;fill:#413013;" points="15.25,76.5 15.3,77.25 3.75,75.3 3.75,74.65 		"/>
		<polygon style="fill-rule:evenodd;clip-rule:evenodd;fill:#413013;" points="15.25,79.7 15.3,80.4 3.75,78.45 3.75,77.8 		"/>
		<polygon style="fill-rule:evenodd;clip-rule:evenodd;fill:#413013;" points="15.25,82.35 15.3,83.1 3.75,81.15 3.75,80.5 		"/>
		<polygon style="fill-rule:evenodd;clip-rule:evenodd;fill:#413013;" points="15.25,85.2 15.3,85.95 3.75,84 3.75,83.35 		"/>
	</g>
	
		<use xlink:href="#FlashAICB_x2F_lantern_x5F_stacked_x2F__x3C_Path_x3E__x5F_1"  width="12.4" height="17.65" y="-17.65" transform="matrix(1 0 0 -1 16.5996 71.1504)" style="overflow:visible;opacity:0.6016;enable-background:new    ;"/>
	
		<use xlink:href="#FlashAICB_x2F_lantern_x5F_stacked_x2F__x3C_Path_x3E_"  width="15.2" height="20.55" y="-20.55" transform="matrix(1 0 0 -1 1.4502 70.2002)" style="overflow:visible;opacity:0.6016;enable-background:new    ;"/>
</g>
<g>
	<polygon style="fill-rule:evenodd;clip-rule:evenodd;fill:#7F5631;" points="29.05,52.45 28.85,68 17.2,69.85 17.2,53.85 	"/>
	<polygon style="fill-rule:evenodd;clip-rule:evenodd;fill:#7F5631;" points="3.4,53 15.3,54.35 15.3,69.75 3.65,67.9 	"/>
	
		<radialGradient id="SVGID_6_" cx="16.375" cy="59.0996" r="14.7278" gradientTransform="matrix(1 0 0 -1 0 118.1992)" gradientUnits="userSpaceOnUse">
		<stop  offset="0" style="stop-color:#F3EB68"/>
		<stop  offset="1" style="stop-color:#F3EB68;stop-opacity:0"/>
	</radialGradient>
	<path style="fill-rule:evenodd;clip-rule:evenodd;fill:url(#SVGID_6_);" d="M31.75,60.45c0,4.066-1.5,7.233-4.5,9.5
		c-2.8,2.133-6.417,3.2-10.85,3.2c-4.467,0-8.101-1.067-10.9-3.2c-3-2.267-4.5-5.434-4.5-9.5c0-4.233,1.5-7.867,4.5-10.9
		c3.033-3,6.667-4.5,10.9-4.5c4.233,0,7.85,1.5,10.85,4.5C30.25,52.583,31.75,56.217,31.75,60.45z"/>
	<path style="fill-rule:evenodd;clip-rule:evenodd;fill:#76573C;" d="M28.5,66.45V53.2l-10.75,1.5v14.2L28.5,66.45z M16.25,47.5
		h13.6V69l-13.6,3.75V47.5z"/>
	<path style="fill-rule:evenodd;clip-rule:evenodd;fill:#413013;" d="M14.75,69.05V54.9l-10.8-1.25l0.1,13.25L14.75,69.05z
		 M2.8,49.35H16.4v23.4L2.8,69V49.35z"/>
	<path style="fill-rule:evenodd;clip-rule:evenodd;fill:#433215;" d="M16.9,0.8v28.3c0,0.533-0.267,0.8-0.801,0.8
		c-0.566,0-0.85-0.267-0.85-0.8V0.8c0-0.533,0.283-0.8,0.85-0.8C16.634,0,16.9,0.267,16.9,0.8z"/>
	<path style="fill-rule:evenodd;clip-rule:evenodd;fill:#433215;" d="M18.1,37.1l15.45,12.3L16.6,52.75l-16.5-2.1L14.4,37.1v-6.9
		c0-0.4,0.15-0.75,0.45-1.05c0.267-0.3,0.6-0.45,1-0.45h0.75c0.434,0,0.784,0.15,1.051,0.45c0.3,0.3,0.449,0.65,0.449,1.05V37.1z"/>
	<path style="fill-rule:evenodd;clip-rule:evenodd;fill:#262501;" d="M15.2,29.45c0.433,0,0.65,0.216,0.65,0.65L16.3,52L0.25,50.15
		l14.1-13.3V30.1c0-0.167,0.1-0.317,0.3-0.45C14.817,29.517,15,29.45,15.2,29.45z"/>
	<polygon style="fill-rule:evenodd;clip-rule:evenodd;fill:#8D6848;" points="29.9,67.3 31.75,68.15 31.75,70.55 16.45,75.35 
		0.8,71.1 0.8,68.65 2.85,68.05 16.45,71.05 29.8,67.8 	"/>
	<polygon style="fill-rule:evenodd;clip-rule:evenodd;fill:#413013;" points="0.8,68.65 16.45,72.5 16.45,75.35 0.8,71.1 	"/>
	<path style="fill-rule:evenodd;clip-rule:evenodd;fill:#8C6646;" d="M18.6,33.6c0,0.367-0.183,0.55-0.55,0.55h-3.4
		c-0.367,0-0.55-0.183-0.55-0.55s0.183-0.55,0.55-0.55h3.4C18.417,33.05,18.6,33.233,18.6,33.6z"/>
	<path style="fill-rule:evenodd;clip-rule:evenodd;fill:#8C6646;" d="M18.6,31.05c0,0.367-0.183,0.55-0.55,0.55h-3.4
		c-0.367,0-0.55-0.184-0.55-0.55s0.183-0.55,0.55-0.55h3.4C18.417,30.5,18.6,30.683,18.6,31.05z"/>
	<polygon style="fill-rule:evenodd;clip-rule:evenodd;fill:#947254;" points="31.75,68.2 31.75,70.55 16.45,75.35 16.4,72.5 	"/>
	<polygon style="fill-rule:evenodd;clip-rule:evenodd;fill:#413013;" points="0,51.05 0,49.7 16.45,51.9 33.75,49.35 33.7,50.7 
		16.6,53.2 	"/>
	<g>
		<rect x="19.8" y="53.85" style="fill-rule:evenodd;clip-rule:evenodd;fill:#76573C;" width="1.05" height="14.95"/>
		<rect x="22.7" y="53.25" style="fill-rule:evenodd;clip-rule:evenodd;fill:#76573C;" width="1.05" height="15"/>
		<rect x="25.85" y="52.7" style="fill-rule:evenodd;clip-rule:evenodd;fill:#76573C;" width="1.051" height="15"/>
		<polygon style="fill-rule:evenodd;clip-rule:evenodd;fill:#76573C;" points="17.4,57.15 28.95,55.3 28.95,55.95 17.35,57.9 		"/>
		<polygon style="fill-rule:evenodd;clip-rule:evenodd;fill:#76573C;" points="17.4,60.3 28.95,58.45 28.95,59.1 17.35,61.05 		"/>
		<polygon style="fill-rule:evenodd;clip-rule:evenodd;fill:#76573C;" points="17.4,63 28.95,61.1 28.95,61.75 17.35,63.7 		"/>
		<polygon style="fill-rule:evenodd;clip-rule:evenodd;fill:#76573C;" points="17.4,65.85 28.95,63.95 28.95,64.6 17.35,66.55 		"/>
	</g>
	<g>
		<rect x="11.85" y="53.9" style="fill-rule:evenodd;clip-rule:evenodd;fill:#413013;" width="1.05" height="15"/>
		<rect x="8.9" y="53.35" style="fill-rule:evenodd;clip-rule:evenodd;fill:#413013;" width="1.05" height="15"/>
		<rect x="5.75" y="52.8" style="fill-rule:evenodd;clip-rule:evenodd;fill:#413013;" width="1.05" height="14.95"/>
		<polygon style="fill-rule:evenodd;clip-rule:evenodd;fill:#413013;" points="15.25,57.25 15.3,57.95 3.75,56 3.75,55.35 		"/>
		<polygon style="fill-rule:evenodd;clip-rule:evenodd;fill:#413013;" points="15.25,60.4 15.3,61.1 3.75,59.2 3.75,58.55 		"/>
		<polygon style="fill-rule:evenodd;clip-rule:evenodd;fill:#413013;" points="15.25,63.05 15.3,63.8 3.75,61.85 3.75,61.2 		"/>
		<polygon style="fill-rule:evenodd;clip-rule:evenodd;fill:#413013;" points="15.25,65.9 15.3,66.65 3.75,64.7 3.75,64.05 		"/>
	</g>
	
		<use xlink:href="#FlashAICB_x2F_lantern_x5F_stacked_x2F__x3C_Path_x3E__x5F_1_x5F_0"  width="12.4" height="17.7" y="-17.7" transform="matrix(1 0 0 -1 16.5996 51.8496)" style="overflow:visible;opacity:0.6016;enable-background:new    ;"/>
	
		<use xlink:href="#FlashAICB_x2F_lantern_x5F_stacked_x2F__x3C_Path_x3E__x5F_0"  width="15.2" height="20.55" y="-20.55" transform="matrix(1 0 0 -1 1.4502 50.9004)" style="overflow:visible;opacity:0.6016;enable-background:new    ;"/>
</g>
</svg>
