<?xml version="1.0" encoding="iso-8859-1"?>
<!-- Generator: Adobe Illustrator 15.1.0, SVG Export Plug-In . SVG Version: 6.00 Build 0)  -->
<!DOCTYPE svg PUBLIC "-//W3C//DTD SVG 1.1//EN" "http://www.w3.org/Graphics/SVG/1.1/DTD/svg11.dtd">
<svg version="1.1" id="FlashAICB" xmlns="http://www.w3.org/2000/svg" xmlns:xlink="http://www.w3.org/1999/xlink" x="0px" y="0px"
	 width="94px" height="132.45px" viewBox="0 0 94 132.45" style="enable-background:new 0 0 94 132.45;" xml:space="preserve">
<path style="fill-rule:evenodd;clip-rule:evenodd;fill:#332516;" d="M84.55,120.95c0.767,0.434,1.117,0.934,1.05,1.5
	c-0.033,0.566-0.467,1.033-1.3,1.399c-0.8,0.334-1.75,0.467-2.85,0.4l-0.65-0.1v0.149c-0.033,0.434-0.517,0.767-1.45,1
	c-0.933,0.2-2.066,0.267-3.399,0.2c-1.134-0.1-2.033-0.267-2.7-0.5H73.1l-0.449-0.05c-1.634,0.6-4.601,0.767-8.9,0.5
	c-4.3-0.334-7.2-0.917-8.7-1.75c-0.967,0.233-2,0.3-3.1,0.2c-1.367-0.101-2.517-0.367-3.45-0.801c-0.934-0.466-1.384-0.966-1.35-1.5
	c0.033-0.5,0.5-0.899,1.399-1.199c0.867-0.334,1.917-0.483,3.15-0.45c0.1-0.733,0.683-1.334,1.75-1.8
	c1.066-0.467,2.316-0.65,3.75-0.551c1.133,0.067,2.133,0.317,3,0.75c0.866,0.4,1.467,0.884,1.8,1.45c0.667-0.1,1.3-0.133,1.9-0.1
	c1.232,0.1,2.283,0.416,3.149,0.95c1.3-1,3.467-1.4,6.5-1.2c2.066,0.166,3.75,0.583,5.05,1.25c0.867-0.467,1.917-0.65,3.15-0.55
	C82.883,120.217,83.816,120.483,84.55,120.95z"/>
<path style="fill-rule:evenodd;clip-rule:evenodd;fill:#332516;" d="M30.25,9.2c-1.934-1-4.184-1.617-6.75-1.85
	c-5.167-0.5-9.367,1.15-12.6,4.95c-3.233,3.8-4.65,7.233-4.25,10.3c0.233,1.566,0.767,2.733,1.6,3.5
	c-1.267,0.333-2.533,0.25-3.8-0.25c-2.567-1-3.9-3.55-4-7.65C0.383,14.5,1.833,10.75,4.8,6.95c3.267-4.133,7.1-6.4,11.5-6.8
	c5.633-0.533,9.65,0.817,12.05,4.05C29.55,5.8,30.183,7.467,30.25,9.2z"/>
<path style="fill-rule:evenodd;clip-rule:evenodd;fill:#765B20;" d="M70.85,127.5c-2.066,0.8-4.6,1.017-7.6,0.65
	c-3-0.334-5.517-1.117-7.55-2.351c-2.267-1.366-3.351-2.934-3.25-4.7c0.467-6.767,0-16.883-1.4-30.35
	c-1.667-16.233-4.066-26.867-7.2-31.9c-2.567-4.167-8.15-9.9-16.75-17.2c-9.867-8-16.6-13.517-20.2-16.55
	c-0.5-0.434-0.8-1.35-0.9-2.75c-0.133-1.967,0.267-4.2,1.2-6.7c1.267-3.333,4.233-6.333,8.9-9c5.1-2.867,8.966-2.983,11.6-0.35
	c5.167,5.167,11.7,12.3,19.6,21.4c7.367,8.5,12.634,14.867,15.8,19.1c4.934,6.6,8.267,19.9,10,39.9
	c0.834,9.767,1.25,21.899,1.25,36.399C74.35,125.134,73.184,126.6,70.85,127.5z"/>
<path style="fill-rule:evenodd;clip-rule:evenodd;fill:#332516;" d="M84.4,121.85c1.399,0.034,2.6,0.301,3.6,0.801
	c1,0.533,1.483,1.149,1.45,1.85c-0.033,0.667-0.55,1.233-1.55,1.7c-1.034,0.5-2.25,0.717-3.65,0.649c-0.367,0-0.65-0.017-0.85-0.05
	l0.05,0.2c-0.033,0.533-0.634,0.967-1.8,1.3c-1.2,0.334-2.634,0.467-4.301,0.4c-1.267,0-2.433-0.134-3.5-0.4l-0.75-0.05
	c-3.733,1.5-7.5,2.217-11.3,2.15c-3.967-0.101-7.684-1-11.149-2.7c-1.101,0.3-2.434,0.45-4,0.45c-1.767-0.034-3.25-0.317-4.45-0.851
	c-1.233-0.5-1.833-1.083-1.8-1.75c0.033-0.633,0.6-1.149,1.7-1.55c1.1-0.434,2.45-0.667,4.05-0.7c0.067-0.934,0.75-1.717,2.05-2.35
	c1.3-0.601,2.883-0.884,4.75-0.851c1.433,0.034,2.733,0.267,3.899,0.7c1.101,0.434,1.884,1,2.351,1.7
	c0.666-0.134,1.483-0.2,2.45-0.2c1.633,0.066,2.982,0.4,4.05,1c0.7-0.6,1.783-1.066,3.25-1.399c1.5-0.367,3.149-0.534,4.95-0.5
	c2.699,0.1,4.866,0.533,6.5,1.3C81.467,122.1,82.8,121.816,84.4,121.85z"/>
<polygon style="fill-rule:evenodd;clip-rule:evenodd;fill:#332516;" points="27.5,31.85 26.2,34.75 14.3,23.65 "/>
<polygon style="fill-rule:evenodd;clip-rule:evenodd;fill:#332516;" points="51.9,35.85 61.65,48 49.2,37.55 "/>
<polygon style="fill-rule:evenodd;clip-rule:evenodd;fill:#332516;" points="27.25,36.85 26.4,39.25 18.55,30 "/>
<path style="fill-rule:evenodd;clip-rule:evenodd;fill:#332516;" d="M48.9,29.45c-0.4-0.367-0.917-0.934-1.551-1.7
	c-2.233-1.433-5.516-1.017-9.85,1.25c-3.9,2.033-6.383,5.117-7.45,9.25c-0.533,2.067-0.683,3.934-0.45,5.6
	c-1.567,0.367-2.883,0.15-3.95-0.65c-2.1-1.633-1.833-5.383,0.8-11.25c1.633-3.633,4.167-6.517,7.6-8.65
	c3.3-2.066,6.317-2.783,9.05-2.15c2.7,0.6,4.466,2.167,5.3,4.7C48.833,27.117,49,28.317,48.9,29.45z"/>
<path style="fill-rule:evenodd;clip-rule:evenodd;fill:#332516;" d="M66.55,93c-3.733,0.833-7.333,0.517-10.8-0.95
	c-5.7-2.366-8.384-4.85-8.05-7.45c0.1-0.833,0.5-1.616,1.2-2.35c0.333-0.366,0.666-0.65,1-0.85l1.05,1.25
	c0.866,0.933,1.85,1.75,2.95,2.449c3.466,2.233,7.199,2.717,11.199,1.45c3.967-1.233,6.317-3,7.051-5.3
	c0.232-0.7,0.283-1.417,0.149-2.15L72.05,78.2l2.3,2.95c1.233,2.433,1.15,4.8-0.25,7.1C72.667,90.616,70.15,92.2,66.55,93z"/>
<path style="fill-rule:evenodd;clip-rule:evenodd;fill:#332516;" d="M52,31.9c2.6,0.633,4.3,2.2,5.1,4.7
	c0.4,1.267,0.533,2.467,0.4,3.6c-0.3-0.9-0.967-1.617-2-2.15c-2.1-1.1-5.033-0.716-8.8,1.15c-3.733,1.867-6.083,4.75-7.05,8.65
	c-0.5,1.933-0.617,3.683-0.35,5.25c-1.5,0.333-2.767,0.1-3.8-0.7c-2.067-1.533-1.867-5.066,0.6-10.6c1.5-3.366,3.9-6.033,7.2-8
	C46.467,31.9,49.366,31.267,52,31.9z"/>
</svg>
