<?xml version="1.0" encoding="iso-8859-1"?>
<!-- Generator: Adobe Illustrator 15.1.0, SVG Export Plug-In . SVG Version: 6.00 Build 0)  -->
<!DOCTYPE svg PUBLIC "-//W3C//DTD SVG 1.1//EN" "http://www.w3.org/Graphics/SVG/1.1/DTD/svg11.dtd">
<svg version="1.1" id="FlashAICB" xmlns="http://www.w3.org/2000/svg" xmlns:xlink="http://www.w3.org/1999/xlink" x="0px" y="0px"
	 width="57px" height="104.2px" viewBox="0 0 57 104.2" style="enable-background:new 0 0 57 104.2;" xml:space="preserve">
<symbol  id="FlashAICB_Assets_x2F_legs_x5F_Front_x5F_2_small_MIDDLEPLUS_x2F__x3C_Group_x3E_" viewBox="-0.028 -14.901 7.557 14.902">
	<g id="Layer_1_12_">
		<g>
			
				<linearGradient id="SVGID_1_" gradientUnits="userSpaceOnUse" x1="15710.8486" y1="558.3467" x2="15725.8223" y2="558.3467" gradientTransform="matrix(0.0684 0.9977 -0.9977 0.0684 -514.3652 -15727.1602)">
				<stop  offset="0.1333" style="stop-color:#4C3312;stop-opacity:0"/>
				<stop  offset="0.3176" style="stop-color:#544129;stop-opacity:0.4078"/>
				<stop  offset="0.5294" style="stop-color:#5A4B3B;stop-opacity:0.7373"/>
				<stop  offset="0.749" style="stop-color:#5E5245;stop-opacity:0.9333"/>
				<stop  offset="1" style="stop-color:#5F5449"/>
			</linearGradient>
			<path style="fill-rule:evenodd;clip-rule:evenodd;fill:url(#SVGID_1_);" d="M7.45-7.5c-0.233-2.067-0.784-3.817-1.65-5.25
				C4.933-14.217,4-14.933,3-14.9c-1.033,0.033-1.833,0.783-2.4,2.25C0.033-11.217-0.15-9.467,0.05-7.4
				C0.283-5.333,0.833-3.583,1.7-2.15C2.567-0.683,3.517,0.033,4.55,0c1-0.033,1.784-0.783,2.35-2.25
				C7.467-3.717,7.65-5.467,7.45-7.5z"/>
			
				<linearGradient id="SVGID_2_" gradientUnits="userSpaceOnUse" x1="616.8369" y1="-16846.7617" x2="626.5105" y2="-16846.7617" gradientTransform="matrix(-0.0698 -0.9976 0.9976 -0.0698 16852.8262 -562.8203)">
				<stop  offset="0.1333" style="stop-color:#4C3312;stop-opacity:0"/>
				<stop  offset="0.3176" style="stop-color:#544129;stop-opacity:0.4078"/>
				<stop  offset="0.5294" style="stop-color:#5A4B3B;stop-opacity:0.7373"/>
				<stop  offset="0.749" style="stop-color:#5E5245;stop-opacity:0.9333"/>
				<stop  offset="1" style="stop-color:#5F5449"/>
			</linearGradient>
			<path style="fill-rule:evenodd;clip-rule:evenodd;fill:url(#SVGID_2_);" d="M1.35-7.4C1.517-6.067,1.883-4.933,2.45-4
				c0.566,0.933,1.167,1.4,1.8,1.4C4.917-2.633,5.433-3.117,5.8-4.05C6.167-5.017,6.283-6.167,6.15-7.5S5.667-9.967,5.1-10.9
				c-0.6-0.934-1.217-1.383-1.85-1.35c-0.633,0-1.15,0.483-1.55,1.45C1.333-9.867,1.217-8.733,1.35-7.4z"/>
		</g>
	</g>
</symbol>
<symbol  id="FlashAICB_Assets_x2F_legs_x5F_Front_x5F_2_small_MIDDLEPLUS_x2F__x3C_Group_x3E__x5F_1" viewBox="-0.006 -6.827 5.562 6.815">
	<g id="Layer_1_10_">
		<g>
			
				<linearGradient id="SVGID_3_" gradientUnits="userSpaceOnUse" x1="-2753.6982" y1="-11836.4424" x2="-2746.9514" y2="-11836.4424" gradientTransform="matrix(0.4442 -0.8959 0.8959 0.4442 11828.9023 2790.8994)">
				<stop  offset="0.1333" style="stop-color:#4C3312;stop-opacity:0"/>
				<stop  offset="0.3176" style="stop-color:#544129;stop-opacity:0.4078"/>
				<stop  offset="0.5294" style="stop-color:#5A4B3B;stop-opacity:0.7373"/>
				<stop  offset="0.749" style="stop-color:#5E5245;stop-opacity:0.9333"/>
				<stop  offset="1" style="stop-color:#5F5449"/>
			</linearGradient>
			<path style="fill-rule:evenodd;clip-rule:evenodd;fill:url(#SVGID_3_);" d="M0.35-4.8C-0.017-3.933-0.1-3.067,0.1-2.2
				c0.233,0.9,0.683,1.534,1.35,1.9c0.667,0.367,1.367,0.383,2.1,0.05c0.733-0.333,1.284-0.933,1.65-1.8s0.45-1.733,0.25-2.6
				C5.217-5.517,4.767-6.133,4.1-6.5C3.467-6.9,2.767-6.933,2-6.6C1.267-6.267,0.717-5.667,0.35-4.8z"/>
			
				<linearGradient id="SVGID_4_" gradientUnits="userSpaceOnUse" x1="19078.9355" y1="-4449.8677" x2="19083.3184" y2="-4449.8677" gradientTransform="matrix(-0.4449 0.8956 -0.8956 -0.4449 4507.4087 -19071.6816)">
				<stop  offset="0.1333" style="stop-color:#4C3312;stop-opacity:0"/>
				<stop  offset="0.3176" style="stop-color:#544129;stop-opacity:0.4078"/>
				<stop  offset="0.5294" style="stop-color:#5A4B3B;stop-opacity:0.7373"/>
				<stop  offset="0.749" style="stop-color:#5E5245;stop-opacity:0.9333"/>
				<stop  offset="1" style="stop-color:#5F5449"/>
			</linearGradient>
			<path style="fill-rule:evenodd;clip-rule:evenodd;fill:url(#SVGID_4_);" d="M4.35-2.5C4.583-3.067,4.633-3.633,4.5-4.2
				C4.367-4.767,4.083-5.167,3.65-5.4C3.217-5.667,2.767-5.683,2.3-5.45C1.833-5.25,1.467-4.867,1.2-4.3
				C0.967-3.733,0.917-3.183,1.05-2.65C1.183-2.05,1.467-1.633,1.9-1.4c0.434,0.233,0.9,0.25,1.4,0.05
				C3.733-1.55,4.083-1.933,4.35-2.5z"/>
		</g>
	</g>
</symbol>
<symbol  id="FlashAICB_Assets_x2F_legs_x5F_Front_x5F_2_small_MIDDLEPLUS_x2F__x3C_Group_x3E__x5F_2" viewBox="-0.006 -6.827 5.512 6.815">
	<g id="Layer_1_9_">
		<g>
			
				<linearGradient id="SVGID_5_" gradientUnits="userSpaceOnUse" x1="-2753.7207" y1="-11836.46" x2="-2746.9678" y2="-11836.46" gradientTransform="matrix(0.4442 -0.8959 0.8959 0.4442 11828.9023 2790.8994)">
				<stop  offset="0.1333" style="stop-color:#4C3312;stop-opacity:0"/>
				<stop  offset="0.3176" style="stop-color:#544129;stop-opacity:0.4078"/>
				<stop  offset="0.5294" style="stop-color:#5A4B3B;stop-opacity:0.7373"/>
				<stop  offset="0.749" style="stop-color:#5E5245;stop-opacity:0.9333"/>
				<stop  offset="1" style="stop-color:#5F5449"/>
			</linearGradient>
			<path style="fill-rule:evenodd;clip-rule:evenodd;fill:url(#SVGID_5_);" d="M0.35-4.8C-0.017-3.933-0.1-3.067,0.1-2.2
				c0.2,0.9,0.633,1.534,1.3,1.9c0.667,0.367,1.367,0.383,2.1,0.05c0.767-0.333,1.317-0.933,1.65-1.8
				C5.517-2.917,5.6-3.783,5.4-4.65C5.2-5.517,4.767-6.133,4.1-6.5C3.433-6.9,2.733-6.933,2-6.6C1.267-6.267,0.717-5.667,0.35-4.8z"
				/>
			
				<linearGradient id="SVGID_6_" gradientUnits="userSpaceOnUse" x1="19078.957" y1="-4449.8428" x2="19083.3398" y2="-4449.8428" gradientTransform="matrix(-0.4449 0.8956 -0.8956 -0.4449 4507.4087 -19071.6816)">
				<stop  offset="0.1333" style="stop-color:#4C3312;stop-opacity:0"/>
				<stop  offset="0.3176" style="stop-color:#544129;stop-opacity:0.4078"/>
				<stop  offset="0.5294" style="stop-color:#5A4B3B;stop-opacity:0.7373"/>
				<stop  offset="0.749" style="stop-color:#5E5245;stop-opacity:0.9333"/>
				<stop  offset="1" style="stop-color:#5F5449"/>
			</linearGradient>
			<path style="fill-rule:evenodd;clip-rule:evenodd;fill:url(#SVGID_6_);" d="M4.3-2.5c0.267-0.567,0.333-1.133,0.2-1.7
				C4.333-4.767,4.033-5.167,3.6-5.4C3.167-5.667,2.717-5.683,2.25-5.45C1.783-5.25,1.433-4.867,1.2-4.3
				C0.967-3.733,0.917-3.183,1.05-2.65C1.183-2.083,1.467-1.667,1.9-1.4c0.434,0.233,0.883,0.25,1.35,0.05
				C3.717-1.583,4.067-1.967,4.3-2.5z"/>
		</g>
	</g>
</symbol>
<symbol  id="FlashAICB_Assets_x2F_legs_x5F_Front_x5F_2_small_MIDDLEPLUS_x2F__x3C_Group_x3E__x5F_3" viewBox="-0.006 -6.788 5.512 6.776">
	<g id="Layer_1_8_">
		<g>
			
				<linearGradient id="SVGID_7_" gradientUnits="userSpaceOnUse" x1="-2753.7207" y1="-11836.4492" x2="-2746.9614" y2="-11836.4492" gradientTransform="matrix(0.4442 -0.8959 0.8959 0.4442 11828.9023 2790.8994)">
				<stop  offset="0.1333" style="stop-color:#4C3312;stop-opacity:0"/>
				<stop  offset="0.3176" style="stop-color:#544129;stop-opacity:0.4078"/>
				<stop  offset="0.5294" style="stop-color:#5A4B3B;stop-opacity:0.7373"/>
				<stop  offset="0.749" style="stop-color:#5E5245;stop-opacity:0.9333"/>
				<stop  offset="1" style="stop-color:#5F5449"/>
			</linearGradient>
			<path style="fill-rule:evenodd;clip-rule:evenodd;fill:url(#SVGID_7_);" d="M0.35-4.75C-0.017-3.883-0.1-3.017,0.1-2.15
				C0.3-1.283,0.733-0.667,1.4-0.3c0.667,0.367,1.367,0.383,2.1,0.05S4.783-1.167,5.15-2C5.517-2.867,5.6-3.75,5.4-4.65
				C5.2-5.517,4.767-6.133,4.1-6.5C3.433-6.867,2.733-6.883,2-6.55C1.233-6.217,0.683-5.617,0.35-4.75z"/>
			
				<linearGradient id="SVGID_8_" gradientUnits="userSpaceOnUse" x1="19078.957" y1="-4449.8428" x2="19083.3398" y2="-4449.8428" gradientTransform="matrix(-0.4449 0.8956 -0.8956 -0.4449 4507.4087 -19071.6816)">
				<stop  offset="0.1333" style="stop-color:#4C3312;stop-opacity:0"/>
				<stop  offset="0.3176" style="stop-color:#544129;stop-opacity:0.4078"/>
				<stop  offset="0.5294" style="stop-color:#5A4B3B;stop-opacity:0.7373"/>
				<stop  offset="0.749" style="stop-color:#5E5245;stop-opacity:0.9333"/>
				<stop  offset="1" style="stop-color:#5F5449"/>
			</linearGradient>
			<path style="fill-rule:evenodd;clip-rule:evenodd;fill:url(#SVGID_8_);" d="M4.3-2.5c0.267-0.567,0.333-1.133,0.2-1.7
				C4.333-4.767,4.033-5.167,3.6-5.4C3.167-5.667,2.717-5.683,2.25-5.45C1.783-5.25,1.433-4.867,1.2-4.3
				C0.933-3.733,0.883-3.167,1.05-2.6C1.183-2.033,1.467-1.633,1.9-1.4c0.434,0.233,0.883,0.25,1.35,0.05
				C3.717-1.583,4.067-1.967,4.3-2.5z"/>
		</g>
	</g>
</symbol>
<symbol  id="FlashAICB_Assets_x2F_legs_x5F_Front_x5F_2_small_MIDDLEPLUS_x2F__x3C_Path_x3E_" viewBox="0 -12.15 56.95 12.15">
	<g id="Layer_1_2_">
		
			<radialGradient id="SVGID_9_" cx="16299.5254" cy="-16271.9502" r="28.4632" gradientTransform="matrix(-1 0 0 0.2133 16328 3463.9668)" gradientUnits="userSpaceOnUse">
			<stop  offset="0" style="stop-color:#000000"/>
			<stop  offset="1" style="stop-color:#000000;stop-opacity:0"/>
		</radialGradient>
		<path style="fill-rule:evenodd;clip-rule:evenodd;fill:url(#SVGID_9_);" d="M56.95-6.05c0-1.667-2.784-3.1-8.35-4.3
			c-5.567-1.2-12.283-1.8-20.15-1.8c-7.833,0-14.534,0.6-20.1,1.8C2.783-9.15,0-7.717,0-6.05c0,1.667,2.783,3.1,8.35,4.3
			C13.883-0.583,20.583,0,28.45,0S43.033-0.583,48.6-1.75C54.167-2.95,56.95-4.383,56.95-6.05z"/>
	</g>
</symbol>
<symbol  id="FlashAICB_Assets_x2F_legs_x5F_Front_x5F_2_small_MIDDLEPLUS_x2F__x3C_Path_x3E__x5F_0" viewBox="0 -12.5 3.25 12.5">
	<g id="Layer_1_5_">
		<polygon style="fill-rule:evenodd;clip-rule:evenodd;fill:#332516;" points="2.05,-11.8 0,-12.5 3.25,0 		"/>
	</g>
</symbol>
<symbol  id="FlashAICB_Assets_x2F_legs_x5F_Front_x5F_2_small_MIDDLEPLUS_x2F__x3C_Path_x3E__x5F_1" viewBox="0 -17.3 2.45 17.3">
	<g id="Layer_1_4_">
		<polygon style="fill-rule:evenodd;clip-rule:evenodd;fill:#332516;" points="2.2,-16.05 0,-17.3 2.45,0 		"/>
	</g>
</symbol>
<symbol  id="FlashAICB_Assets_x2F_legs_x5F_Front_x5F_2_small_MIDDLEPLUS_x2F__x3C_Path_x3E__x5F_10" viewBox="0 -95.555 26.085 95.55">
	<g id="Layer_1_3_">
		<path style="fill-rule:evenodd;clip-rule:evenodd;fill:#57412C;" d="M3.2-15.15c-0.8,0.9-1.867,2.467-3.2,4.7
			c0.533,2.534,1.2,4.4,2,5.6c2.233,2.6,5.067,4.15,8.5,4.65c2.633,0.4,5.783,0.184,9.45-0.65c2.7-4.667,4.45-8.433,5.25-11.3
			c1.367-4.934,1.15-17.934-0.65-39C22.517-74.583,21.533-86.867,21.6-88c0.1-2.267-0.85-4.117-2.85-5.55
			c-1.8-1.267-4.017-1.934-6.65-2c-2.7-0.067-4.983,0.5-6.85,1.7c-2.067,1.333-3.117,3.184-3.15,5.55
			c-0.033,1.8,0.417,6.533,1.35,14.2c1.2,10.2,2.017,17.617,2.45,22.25C7.7-31.65,6.8-19.417,3.2-15.15z"/>
	</g>
</symbol>
<symbol  id="FlashAICB_Assets_x2F_legs_x5F_Front_x5F_2_small_MIDDLEPLUS_x2F__x3C_Path_x3E__x5F_2" viewBox="0 -10.669 21.796 10.669">
	<g id="Layer_1_14_">
		<path style="fill-rule:evenodd;clip-rule:evenodd;fill:#332516;" d="M5.3-5.6c2.767-1.933,5.684-2.683,8.75-2.25
			c2.867,0.434,4.983,1.7,6.35,3.8c0.667,1,1.083,2,1.25,3c0.4-1.867-0.017-3.767-1.25-5.7c-1.367-2.1-3.483-3.367-6.35-3.8
			c-3.066-0.434-5.983,0.316-8.75,2.25C1-5.3-0.683-2.533,0.25,0C0.85-1.833,2.533-3.7,5.3-5.6z"/>
	</g>
</symbol>
<symbol  id="FlashAICB_Assets_x2F_legs_x5F_Front_x5F_2_small_MIDDLEPLUS_x2F__x3C_Path_x3E__x5F_3" viewBox="0.031 -9.931 22.345 9.931">
	<g id="Layer_1_15_">
		<path style="fill-rule:evenodd;clip-rule:evenodd;fill:#332516;" d="M4.1-4.9c2.8-2.033,6.017-2.817,9.65-2.35
			c3.4,0.433,5.8,1.733,7.2,3.9c0.667,1.033,1.1,2.05,1.3,3.05c0.367-1.8-0.067-3.684-1.3-5.65c-1.4-2.167-3.8-3.45-7.2-3.85
			C10.117-10.267,6.9-9.483,4.1-7.45C0.833-5.083-0.467-2.6,0.2,0C0.6-1.667,1.9-3.3,4.1-4.9z"/>
	</g>
</symbol>
<symbol  id="FlashAICB_Assets_x2F_legs_x5F_Front_x5F_2_small_MIDDLEPLUS_x2F__x3C_Path_x3E__x5F_4" viewBox="-0.024 -15.9 24.374 15.928">
	<g id="Layer_1_13_">
		<path style="fill-rule:evenodd;clip-rule:evenodd;fill:#332516;" d="M17.6-2.8c-3.633,0.7-7.05,0.167-10.25-1.6
			c-3.1-1.667-4.967-3.883-5.6-6.65c-0.433-1.7-0.383-3.317,0.15-4.85c-1.767,1.967-2.316,4.433-1.65,7.4
			c0.633,2.733,2.5,4.95,5.6,6.65c3.233,1.733,6.65,2.267,10.25,1.6c4.533-0.867,7.283-2.817,8.25-5.85
			C22.917-4.5,20.667-3.4,17.6-2.8z"/>
	</g>
</symbol>
<symbol  id="FlashAICB_Assets_x2F_legs_x5F_Front_x5F_2_small_MIDDLEPLUS_x2F__x3C_Path_x3E__x5F_7" viewBox="-0.01 -11.156 26.276 11.157">
	<g id="Layer_1_11_">
		
			<radialGradient id="SVGID_10_" cx="63.4341" cy="-17100.7773" r="5.5881" gradientTransform="matrix(-0.1053 -0.9944 2.3316 -0.0202 39891.4219 -287.23)" gradientUnits="userSpaceOnUse">
			<stop  offset="0" style="stop-color:#000000;stop-opacity:0.6471"/>
			<stop  offset="0.9569" style="stop-color:#000000;stop-opacity:0"/>
		</radialGradient>
		<path style="fill-rule:evenodd;clip-rule:evenodd;fill:url(#SVGID_10_);" d="M12.55-11.15c-3.633,0.033-6.667,0.6-9.1,1.7
			c-2.434,1.1-3.583,2.434-3.45,4c0.167,1.534,1.583,2.833,4.25,3.9C6.917-0.483,10.067,0.033,13.7,0s6.667-0.6,9.1-1.7
			c2.467-1.133,3.617-2.466,3.45-4c-0.167-1.566-1.6-2.883-4.3-3.95C19.283-10.717,16.15-11.217,12.55-11.15z"/>
	</g>
</symbol>
<symbol  id="FlashAICB_Assets_x2F_legs_x5F_Front_x5F_2_small_MIDDLEPLUS_x2F__x3C_Path_x3E__x5F_8" viewBox="0 -93.446 15.639 93.446">
	<g id="Layer_1_7_">
		<path style="fill-rule:evenodd;clip-rule:evenodd;fill:#221E1A;" d="M11.75-10.15c3.9-4.467,4.867-17.367,2.9-38.7
			c-0.433-4.9-1.316-12.7-2.65-23.4c-1-8.1-1.483-13.1-1.45-15c0.034-2.6,1.217-4.583,3.55-5.95c-2.967-0.533-5.633-0.2-8,1
			c-2.633,1.333-3.967,3.35-4,6.05c-0.033,1.8,0.417,6.533,1.35,14.2c1.2,10.2,2.017,17.617,2.45,22.25C7.7-29.5,6.8-17.267,3.2-13
			C2.4-12.1,1.333-10.533,0-8.3c0.533,2.533,1.2,4.4,2,5.6C2.9-1.667,3.95-0.767,5.15,0C8.383-5.4,10.583-8.783,11.75-10.15z"/>
	</g>
</symbol>
<symbol  id="FlashAICB_Assets_x2F_legs_x5F_Front_x5F_2_small_MIDDLEPLUS_x2F__x3C_Path_x3E__x5F_9" viewBox="0 -95.555 26.085 95.55">
	<g id="Layer_1_6_">
		
			<linearGradient id="SVGID_11_" gradientUnits="userSpaceOnUse" x1="16215.5977" y1="12.0425" x2="16311.1455" y2="12.0425" gradientTransform="matrix(1.046572e-005 1 -1 -0.001 24.9146 -16311.1387)">
			<stop  offset="0" style="stop-color:#5F5449"/>
			<stop  offset="0.0314" style="stop-color:#6D6359"/>
			<stop  offset="0.149" style="stop-color:#A19A94"/>
			<stop  offset="0.2549" style="stop-color:#C9C6C2"/>
			<stop  offset="0.3529" style="stop-color:#E7E5E3"/>
			<stop  offset="0.4314" style="stop-color:#F9F8F8"/>
			<stop  offset="0.4863" style="stop-color:#FFFFFF"/>
			<stop  offset="0.5922" style="stop-color:#E0DDD8"/>
			<stop  offset="0.8353" style="stop-color:#918775"/>
			<stop  offset="1" style="stop-color:#58492D"/>
		</linearGradient>
		<path style="fill-rule:evenodd;clip-rule:evenodd;fill:url(#SVGID_11_);" d="M3.2-15.15c-0.8,0.9-1.867,2.467-3.2,4.7
			c0.533,2.534,1.2,4.4,2,5.6c2.233,2.6,5.067,4.15,8.5,4.65c2.633,0.4,5.783,0.184,9.45-0.65c2.7-4.667,4.45-8.433,5.25-11.3
			c1.367-4.934,1.15-17.934-0.65-39C22.517-74.583,21.533-86.867,21.6-88c0.1-2.267-0.85-4.117-2.85-5.55
			c-1.8-1.267-4.017-1.934-6.65-2c-2.7-0.067-4.983,0.5-6.85,1.7c-2.067,1.333-3.117,3.184-3.15,5.55
			c-0.033,1.8,0.417,6.533,1.35,14.2c1.2,10.2,2.017,17.617,2.45,22.25C7.7-31.65,6.8-19.417,3.2-15.15z"/>
	</g>
</symbol>
<use xlink:href="#FlashAICB_Assets_x2F_legs_x5F_Front_x5F_2_small_MIDDLEPLUS_x2F__x3C_Path_x3E_"  width="56.95" height="12.15" y="-12.15" transform="matrix(1 0 0 -1 0 92.0498)" style="overflow:visible;opacity:0.6016;enable-background:new    ;"/>
<g>
	<path style="fill-rule:evenodd;clip-rule:evenodd;fill:#332516;" d="M18.4,97.8c-0.867,0.334-1.833,0.45-2.9,0.351
		c-1.233-0.101-2.283-0.467-3.15-1.101c-0.867-0.6-1.283-1.283-1.25-2.05c0.033-0.733,0.45-1.316,1.25-1.75
		c0.8-0.467,1.783-0.684,2.95-0.65c0.1-1.066,0.65-1.933,1.65-2.6c0.966-0.667,2.117-0.95,3.45-0.85c1.033,0.1,1.967,0.433,2.8,1
		c0.8,0.533,1.35,1.199,1.65,2c0.533-0.134,1.117-0.184,1.75-0.15c1.1,0.1,2.067,0.533,2.9,1.3c0.533-0.666,1.333-1.166,2.4-1.5
		c1.133-0.366,2.333-0.483,3.6-0.35c1.934,0.166,3.483,0.717,4.65,1.649c0.8-0.633,1.783-0.899,2.949-0.8
		c1.034,0.066,1.9,0.417,2.601,1.05c0.7,0.634,1.017,1.334,0.95,2.101c-0.034,0.8-0.434,1.45-1.2,1.95
		c-0.733,0.5-1.617,0.699-2.65,0.6l-0.6-0.1v0.25c-0.033,0.566-0.483,1.033-1.351,1.399C39.983,99.884,38.934,100,37.7,99.9
		c-1-0.101-1.834-0.301-2.5-0.601L35.1,99.25L34.65,99.2c-0.7,0.399-1.767,0.684-3.2,0.85c-1.533,0.167-3.2,0.167-5,0
		c-1.8-0.133-3.434-0.416-4.9-0.85C20.083,98.8,19.033,98.333,18.4,97.8z"/>
	<path style="fill-rule:evenodd;clip-rule:evenodd;fill:#765B20;" d="M21.3,18.55c-0.8-0.9-1.867-2.466-3.2-4.7
		c0.533-2.533,1.2-4.4,2-5.6c2.233-2.6,5.066-4.15,8.5-4.65c2.634-0.4,5.784-0.184,9.45,0.65c2.7,4.667,4.45,8.433,5.25,11.3
		c1.367,4.934,1.15,17.934-0.649,39C40.616,77.983,39.634,90.267,39.7,91.4c0.1,2.267-0.851,4.116-2.851,5.55
		c-1.8,1.267-4.017,1.934-6.649,2c-2.7,0.066-4.983-0.5-6.85-1.7c-2.067-1.333-3.117-3.184-3.15-5.55
		c-0.034-1.8,0.417-6.533,1.35-14.2c1.2-10.2,2.017-17.616,2.45-22.25C25.8,35.05,24.9,22.817,21.3,18.55z"/>
	
		<use xlink:href="#FlashAICB_Assets_x2F_legs_x5F_Front_x5F_2_small_MIDDLEPLUS_x2F__x3C_Path_x3E__x5F_10"  width="26.085" height="95.55" y="-95.555" transform="matrix(1 0 0 -1 18.1001 3.3999)" style="overflow:visible;opacity:0.3008;enable-background:new    ;"/>
	<g>
		
			<use xlink:href="#FlashAICB_Assets_x2F_legs_x5F_Front_x5F_2_small_MIDDLEPLUS_x2F__x3C_Path_x3E__x5F_1"  width="2.45" height="17.3" y="-17.3" transform="matrix(1 0 0 -1 40.3496 29.7998)" style="overflow:visible;opacity:0.5;enable-background:new    ;"/>
		
			<use xlink:href="#FlashAICB_Assets_x2F_legs_x5F_Front_x5F_2_small_MIDDLEPLUS_x2F__x3C_Path_x3E__x5F_0"  width="3.25" height="12.5" y="-12.5" transform="matrix(1 0 0 -1 37.5 35.3999)" style="overflow:visible;opacity:0.5;enable-background:new    ;"/>
	</g>
	
		<use xlink:href="#FlashAICB_Assets_x2F_legs_x5F_Front_x5F_2_small_MIDDLEPLUS_x2F__x3C_Path_x3E__x5F_9"  width="26.085" height="95.55" y="-95.555" transform="matrix(1 0 0 -1 18.1001 3.3999)" style="overflow:visible;opacity:0.3008;enable-background:new    ;"/>
	
		<use xlink:href="#FlashAICB_Assets_x2F_legs_x5F_Front_x5F_2_small_MIDDLEPLUS_x2F__x3C_Path_x3E__x5F_8"  width="15.639" height="93.446" y="-93.446" transform="matrix(1 0 0 -1 18.1001 5.5498)" style="overflow:visible;opacity:0.1016;enable-background:new    ;"/>
	
		<use xlink:href="#FlashAICB_Assets_x2F_legs_x5F_Front_x5F_2_small_MIDDLEPLUS_x2F__x3C_Group_x3E__x5F_3"  width="5.512" height="6.776" x="-0.006" y="-6.788" transform="matrix(1 0 0 -1 29.7002 66.6504)" style="overflow:visible;opacity:0.3008;enable-background:new    ;"/>
	
		<use xlink:href="#FlashAICB_Assets_x2F_legs_x5F_Front_x5F_2_small_MIDDLEPLUS_x2F__x3C_Group_x3E__x5F_2"  width="5.512" height="6.815" x="-0.006" y="-6.827" transform="matrix(1 0 0 -1 34.8496 11.5498)" style="overflow:visible;opacity:0.3008;enable-background:new    ;"/>
	
		<use xlink:href="#FlashAICB_Assets_x2F_legs_x5F_Front_x5F_2_small_MIDDLEPLUS_x2F__x3C_Group_x3E__x5F_1"  width="5.562" height="6.815" x="-0.006" y="-6.827" transform="matrix(1 0 0 -1 33.0996 57.7002)" style="overflow:visible;opacity:0.3008;enable-background:new    ;"/>
	
		<use xlink:href="#FlashAICB_Assets_x2F_legs_x5F_Front_x5F_2_small_MIDDLEPLUS_x2F__x3C_Path_x3E__x5F_7"  width="26.276" height="11.157" x="-0.01" y="-11.156" transform="matrix(1 0 0 -1 14.2998 88.25)" style="overflow:visible;enable-background:new    ;"/>
	<path style="fill-rule:evenodd;clip-rule:evenodd;fill:#332516;" d="M6.35,97.7C6.383,96.967,6.9,96.35,7.9,95.85
		s2.233-0.767,3.7-0.8c0.066-1.1,0.7-2.017,1.9-2.75c1.233-0.7,2.683-1.033,4.35-1c1.3,0.033,2.483,0.316,3.55,0.851
		c1.033,0.533,1.767,1.199,2.2,2c0.533-0.167,1.267-0.25,2.2-0.25c1.4,0.033,2.65,0.416,3.75,1.149c0.634-0.7,1.617-1.233,2.95-1.6
		c1.4-0.4,2.917-0.584,4.55-0.55c2.3,0.033,4.283,0.533,5.95,1.5c0.934-0.733,2.15-1.067,3.65-1c1.3,0.066,2.399,0.383,3.3,0.949
		c0.899,0.601,1.35,1.317,1.35,2.15c-0.033,0.833-0.517,1.517-1.45,2.05c-0.933,0.566-2.033,0.816-3.3,0.75l-0.8-0.05l0.05,0.2
		c-0.033,0.6-0.583,1.1-1.649,1.5c-1.101,0.399-2.417,0.566-3.95,0.5c-1.3-0.066-2.367-0.233-3.2-0.5h-0.7
		c-1.967,1-5.399,1.416-10.3,1.25c-2.3-0.066-4.383-0.283-6.25-0.65c-1.867-0.366-3.2-0.8-4-1.3c-1.1,0.4-2.317,0.566-3.65,0.5
		c-1.6-0.033-2.95-0.35-4.05-0.95C6.917,99.2,6.35,98.5,6.35,97.7z"/>
	
		<use xlink:href="#FlashAICB_Assets_x2F_legs_x5F_Front_x5F_2_small_MIDDLEPLUS_x2F__x3C_Group_x3E_"  width="7.557" height="14.902" x="-0.028" y="-14.901" transform="matrix(1 0 0 -1 23.25 77.5996)" style="overflow:visible;opacity:0.3008;enable-background:new    ;"/>
	<path style="fill-rule:evenodd;clip-rule:evenodd;fill:#332516;" d="M41.15,9.9C39.884,8.733,38.3,7.783,36.4,7.05
		c-3.867-1.466-7.467-1.083-10.8,1.15c-3.3,2.233-5.15,4.483-5.55,6.75c-0.2,1.133-0.066,2.033,0.4,2.7
		c-0.867-0.433-1.667-1.15-2.4-2.15c-1.466-1.933-1.883-4.25-1.25-6.95c0.633-2.733,2.5-4.95,5.6-6.65
		c3.233-1.733,6.65-2.267,10.25-1.6c4.333,0.8,7.05,2.65,8.149,5.55C41.366,7.283,41.483,8.633,41.15,9.9z"/>
	
		<use xlink:href="#FlashAICB_Assets_x2F_legs_x5F_Front_x5F_2_small_MIDDLEPLUS_x2F__x3C_Path_x3E__x5F_4"  width="24.374" height="15.928" x="-0.024" y="-15.9" transform="matrix(1 0 0 -1 16.5498 0.0498)" style="overflow:visible;opacity:0.1992;enable-background:new    ;"/>
	<path style="fill-rule:evenodd;clip-rule:evenodd;fill:#332516;" d="M43.6,48.5c-1.366,2.1-3.483,3.367-6.35,3.8
		c-3.066,0.434-5.983-0.316-8.75-2.25c-3.833-2.633-5.583-5.133-5.25-7.5c0.067-0.733,0.367-1.417,0.9-2.05l0.7-0.7l2.95,3.95
		c2.634,2.5,5.601,3.367,8.9,2.6c3.3-0.733,5.45-1.967,6.45-3.7c0.5-0.867,0.666-1.667,0.5-2.4l1.149,2.3
		C45.3,44.483,44.9,46.467,43.6,48.5z"/>
	
		<use xlink:href="#FlashAICB_Assets_x2F_legs_x5F_Front_x5F_2_small_MIDDLEPLUS_x2F__x3C_Path_x3E__x5F_2"  width="21.796" height="10.669" x="0" y="-10.669" transform="matrix(1 0 0 -1 23.2002 41.75)" style="overflow:visible;opacity:0.3008;enable-background:new    ;"/>
	<path style="fill-rule:evenodd;clip-rule:evenodd;fill:#332516;" d="M22.15,71.85l2.75,3.9c2.533,2.5,5.5,3.434,8.9,2.8
		c2.7-0.5,4.717-1.666,6.05-3.5l1.2-2.6l1.2,2.3c0.533,1.967,0.134,3.983-1.2,6.05c-1.399,2.167-3.8,3.45-7.2,3.851
		C30.217,85.116,27,84.333,24.2,82.3c-3.233-2.333-4.55-4.767-3.95-7.3c0.2-0.8,0.567-1.566,1.1-2.3L22.15,71.85z"/>
	
		<use xlink:href="#FlashAICB_Assets_x2F_legs_x5F_Front_x5F_2_small_MIDDLEPLUS_x2F__x3C_Path_x3E__x5F_3"  width="22.345" height="9.931" x="0.031" y="-9.931" transform="matrix(1 0 0 -1 20.1001 74.8496)" style="overflow:visible;opacity:0.3008;enable-background:new    ;"/>
</g>
</svg>
