<?xml version="1.0" encoding="iso-8859-1"?>
<!-- Generator: Adobe Illustrator 15.1.0, SVG Export Plug-In . SVG Version: 6.00 Build 0)  -->
<!DOCTYPE svg PUBLIC "-//W3C//DTD SVG 1.1//EN" "http://www.w3.org/Graphics/SVG/1.1/DTD/svg11.dtd">
<svg version="1.1" id="lizard1" xmlns="http://www.w3.org/2000/svg" xmlns:xlink="http://www.w3.org/1999/xlink" x="0px" y="0px"
	 width="30.35px" height="57.35px" viewBox="0 0 30.35 57.35" style="enable-background:new 0 0 30.35 57.35;" xml:space="preserve"
	>
<symbol  id="FlashAICB_x2F_lizard1_x2F__x3C_Path_x3E__x5F_3" viewBox="-0.018 -18.602 23.418 18.602">
	<g id="Layer_1_4_">
		<path style="fill-rule:evenodd;clip-rule:evenodd;fill:#79822A;" d="M4.75,0C3.483-1.333,2.667-2.917,2.3-4.75
			C1.767-7.317,2.5-9.733,4.5-12c2.033-2.3,4.85-3.8,8.45-4.5c4.033-0.833,7.517-0.383,10.45,1.35c-1.333-1.434-3.1-2.434-5.3-3
			c-2.267-0.567-4.7-0.6-7.3-0.1c-3.6,0.733-6.417,2.233-8.45,4.5c-2,2.267-2.733,4.683-2.2,7.25C0.683-3.7,2.217-1.533,4.75,0z"/>
	</g>
</symbol>
<symbol  id="FlashAICB_x2F_lizard1_x2F__x3C_Path_x3E__x5F_5" viewBox="-0.001 -11.539 20.652 11.528">
	<g id="Layer_1_3_">
		
			<radialGradient id="SVGID_1_" cx="969.4521" cy="-16437.9668" r="5.613" gradientTransform="matrix(-0.0134 -0.9999 -1.8395 0.2116 -30214.0469 4441.2715)" gradientUnits="userSpaceOnUse">
			<stop  offset="0" style="stop-color:#40200C"/>
			<stop  offset="0.4824" style="stop-color:#4A381E;stop-opacity:0.4706"/>
			<stop  offset="1" style="stop-color:#534C2F;stop-opacity:0"/>
		</radialGradient>
		<path style="fill-rule:evenodd;clip-rule:evenodd;fill:url(#SVGID_1_);" d="M10.25-11.4c-2.833,0.333-5.267,1.167-7.3,2.5
			C0.95-7.567-0.033-6.117,0-4.55c0,1.566,1.017,2.767,3.05,3.6c2.067,0.867,4.517,1.133,7.35,0.8c2.867-0.333,5.3-1.167,7.3-2.5
			c2-1.333,2.983-2.767,2.95-4.3c-0.033-1.566-1.066-2.783-3.1-3.65C15.517-11.467,13.083-11.733,10.25-11.4z"/>
	</g>
</symbol>
<symbol  id="FlashAICB_x2F_lizard1_x2F__x3C_Path_x3E__x5F_6" viewBox="-0.024 -39.05 5.524 39.05">
	<g id="Layer_1_2_">
		<path style="fill-rule:evenodd;clip-rule:evenodd;fill:#636A23;" d="M1.3-30.3c-1.933,7.466-1.75,16.833,0.55,28.1L2.4,0
			c0.567-0.5,1.167-0.95,1.8-1.35c-0.434-1.066-0.817-2.4-1.15-4C0.217-19.083,1.033-30.317,5.5-39.05
			C3.733-37.283,2.333-34.367,1.3-30.3z"/>
	</g>
</symbol>
<g>
	<path style="fill-rule:evenodd;clip-rule:evenodd;fill:#636A23;" d="M25.45,22.4l1.85-2.3L26.7,22
		c0.566,0.433,1.416,0.967,2.55,1.6l-1.7,0.25l1.101,2l-2.851-1.3c-0.166,0.167-0.934,0.367-2.3,0.6
		c-1.767,0.367-3.384,0.483-4.85,0.35L17,25.25l0.05-1.8l2.55,0.45c1.9,0.167,3.384-0.05,4.45-0.65L25.45,22.4z"/>
	<path style="fill-rule:evenodd;clip-rule:evenodd;fill:#636A23;" d="M22.9,34.55L20.55,34c-0.133,0.167-0.7,0.45-1.7,0.85
		c-1.3,0.534-2.517,0.867-3.649,1L13.9,35.9l-0.3-1.4c2.4,0.2,4.183-0.2,5.35-1.2L19.9,32.4l1.05-1.9l-0.15,1.4
		c0.533,0.233,1.283,0.183,2.25-0.15L21.8,33.2L22.9,34.55z"/>
	<path style="fill-rule:evenodd;clip-rule:evenodd;fill:#636A23;" d="M10.65,23.3l-2.8,0.2c-1.333-0.867-2.45-1.8-3.35-2.8
		c-0.567-0.633-0.983-1.15-1.25-1.55l-0.2-0.35L0,18.1l2.1-0.9l-1.15-1.3l2.95,0.35l0.8-1.2v2.25c0.167,0.633,0.35,1.15,0.55,1.55
		c0.467,1.133,1.517,2.217,3.15,3.25C9.2,22.633,9.95,23.033,10.65,23.3z"/>
	<path style="fill-rule:evenodd;clip-rule:evenodd;fill:#636A23;" d="M2.1,29.25l0.65,0.55c0.467,0.334,0.883,0.483,1.25,0.45
		l1.65-0.8L4.7,31c0.066,0.233,0.267,0.616,0.6,1.15C6.1,33.483,7.667,34.434,10,35l-2.15,0.45c-1.133-0.5-2.117-1.101-2.95-1.8
		L3.6,32.35L1.15,32.15l1.5-0.95L2.1,29.25z"/>
	<path style="fill-rule:evenodd;clip-rule:evenodd;fill:#79822A;" d="M11.05,45.05l2.2,1.75c1.433,1.434,2.15,2.851,2.15,4.25
		c-0.034,2.233,0.183,4.334,0.649,6.3c-0.7-0.333-1.483-0.833-2.35-1.5c-1.7-1.399-2.867-3-3.5-4.8c-0.3-0.8-0.25-2.05,0.15-3.75
		L11.05,45.05z"/>
	<path style="fill-rule:evenodd;clip-rule:evenodd;fill:#BDC941;" d="M11.9,47.3l1.35,1.101c0.933,0.899,1.383,1.8,1.35,2.699
		c0,1.4,0.15,2.717,0.45,3.95c-0.466-0.2-0.966-0.517-1.5-0.95c-1.066-0.866-1.8-1.866-2.2-3c-0.2-0.533-0.167-1.316,0.1-2.35
		L11.9,47.3z"/>
	<path style="fill-rule:evenodd;clip-rule:evenodd;fill:#636A23;" d="M13.2,51.35c-1.567-1.433-2.9-4.05-4-7.85
		C7,35.9,7.1,26.217,9.5,14.45c1.533-7.4,4.083-11.167,7.65-11.3c0.733,3.767,1.933,5.783,3.6,6.05c0.333,0.066,1.2,0.066,2.6,0
		c1.301-0.1,2.417-0.017,3.351,0.25c-0.667,1.733-1.851,4.25-3.55,7.55c-2.434,4.7-3.934,7.65-4.5,8.85
		c-2.634,5.433-4.334,11.317-5.101,17.65C13.183,46.667,13.066,49.283,13.2,51.35z"/>
	<g>
		<path style="fill-rule:evenodd;clip-rule:evenodd;fill:#4D531B;" d="M20.35,22.35l-1.399,2.9c-1.2,0.067-2.8-0.05-4.8-0.35
			c-2.3-0.367-4.3-1.05-6-2.05L8.6,19.6c2.033,1.533,3.966,2.45,5.8,2.75C16.434,22.683,18.417,22.683,20.35,22.35z"/>
		<path style="fill-rule:evenodd;clip-rule:evenodd;fill:#4D531B;" d="M12.65,27.7c1.833,0.167,3.583,0.066,5.25-0.3
			c-0.601,1.4-1.017,2.45-1.25,3.15c-1.2,0.066-2.467,0.033-3.8-0.1c-1.9-0.233-3.633-0.667-5.2-1.3L7.85,26
			C9.583,26.967,11.183,27.533,12.65,27.7z"/>
		<path style="fill-rule:evenodd;clip-rule:evenodd;fill:#4D531B;" d="M15.9,32.7l-0.4,1.2v0.05l-0.35,1.25
			c-1,0.133-2.234,0.033-3.7-0.3C10.05,34.6,8.8,34.083,7.7,33.35L7.65,30.65c1.4,1.199,2.667,1.916,3.8,2.149
			C12.917,33.134,14.4,33.1,15.9,32.7z"/>
		<path style="fill-rule:evenodd;clip-rule:evenodd;fill:#4D531B;" d="M7.8,35.75V35.5c1.4,0.967,2.667,1.483,3.8,1.55
			c1.133,0.033,2.216-0.184,3.25-0.649l-0.45,2c-0.633,0.166-1.467,0.233-2.5,0.199C10.367,38.566,9.066,38.2,8,37.5L7.8,35.75z"/>
		<path style="fill-rule:evenodd;clip-rule:evenodd;fill:#4D531B;" d="M8.35,39.95c1.333,0.866,2.517,1.333,3.55,1.399
			c0.8,0,1.467-0.066,2-0.199l-0.25,1.699L12.2,42.9C11.066,42.866,9.933,42.6,8.8,42.1L8.35,39.95z"/>
		<path style="fill-rule:evenodd;clip-rule:evenodd;fill:#4D531B;" d="M12.15,45.15c0.3,0.033,0.717,0.017,1.25-0.051l-0.15,1.65
			h-0.8c-0.833-0.033-1.583-0.167-2.25-0.4L9.8,45.4V45.35L9.45,44.3C10.383,44.833,11.283,45.116,12.15,45.15z"/>
	</g>
	
		<use xlink:href="#FlashAICB_x2F_lizard1_x2F__x3C_Path_x3E__x5F_6"  width="5.524" height="39.05" x="-0.024" y="-39.05" transform="matrix(1 0 0 -1 7.6499 12.25)" style="overflow:visible;opacity:0.1992;enable-background:new    ;"/>
	
		<use xlink:href="#FlashAICB_x2F_lizard1_x2F__x3C_Path_x3E__x5F_5"  width="20.652" height="11.528" x="-0.001" y="-11.539" transform="matrix(1 0 0 -1 5.0498 11.1499)" style="overflow:visible;opacity:0.6992;enable-background:new    ;"/>
	<path style="fill-rule:evenodd;clip-rule:evenodd;fill:#79822A;" d="M9.4,2.85C12.066,1.117,15.8,0.167,20.6,0
		C28,4.4,31.184,9.15,30.15,14.25c-0.534,2.6-2.167,4.55-4.9,5.85c-2.833,1.333-6.033,1.633-9.6,0.9
		c-3.601-0.733-6.417-2.233-8.45-4.5c-2-2.267-2.733-4.683-2.2-7.25C5.533,6.517,7,4.383,9.4,2.85z"/>
	
		<use xlink:href="#FlashAICB_x2F_lizard1_x2F__x3C_Path_x3E__x5F_3"  width="23.418" height="18.602" x="-0.018" y="-18.602" transform="matrix(1 0 0 -1 4.8501 2.75)" style="overflow:visible;opacity:0.1992;enable-background:new    ;"/>
	<g>
		<g>
			<path style="fill-rule:evenodd;clip-rule:evenodd;fill:#BDC941;" d="M12.75,3.95c-0.233,0.767-0.717,1.5-1.45,2.2
				C10.566,6.883,9.8,7.367,9,7.6C8.167,7.867,7.533,7.817,7.1,7.45C6.7,7.117,6.617,6.567,6.85,5.8c0.2-0.733,0.667-1.466,1.4-2.2
				s1.517-1.217,2.35-1.45c0.833-0.267,1.45-0.217,1.85,0.15C12.883,2.667,12.983,3.217,12.75,3.95z"/>
			<path style="fill-rule:evenodd;clip-rule:evenodd;fill:#5F6721;" d="M12.05,4.05c-0.2,0.6-0.583,1.184-1.15,1.75
				C10.3,6.367,9.667,6.767,9,7C8.367,7.2,7.883,7.167,7.55,6.9c-0.333-0.267-0.4-0.7-0.2-1.3c0.2-0.6,0.6-1.184,1.2-1.75
				c0.6-0.567,1.233-0.967,1.9-1.2c0.633-0.2,1.1-0.167,1.4,0.1C12.183,3.017,12.25,3.45,12.05,4.05z"/>
		</g>
		<path style="fill-rule:evenodd;clip-rule:evenodd;fill:#E4ED91;" d="M9,4.05c0.6-0.6,1.033-0.783,1.3-0.55
			c0.1,0.1,0.1,0.267,0,0.5c-0.1,0.233-0.267,0.467-0.5,0.7c-0.566,0.566-1,0.75-1.3,0.55C8.2,5.017,8.367,4.617,9,4.05z"/>
	</g>
	<g>
		<g>
			<path style="fill-rule:evenodd;clip-rule:evenodd;fill:#BDC941;" d="M25.4,8.85c-0.367-0.967-0.5-1.833-0.4-2.6
				c0.066-0.767,0.366-1.233,0.9-1.4c0.533-0.133,1.116,0.083,1.75,0.65c0.666,0.567,1.199,1.317,1.6,2.25
				c0.366,0.967,0.517,1.833,0.45,2.6c-0.101,0.8-0.417,1.267-0.95,1.4c-0.533,0.167-1.116-0.033-1.75-0.6
				C26.333,10.583,25.8,9.817,25.4,8.85z"/>
			<path style="fill-rule:evenodd;clip-rule:evenodd;fill:#5F6721;" d="M25.95,8.7c-0.3-0.767-0.417-1.467-0.351-2.1
				C25.667,6,25.9,5.633,26.3,5.5C26.7,5.367,27.15,5.533,27.65,6s0.916,1.083,1.25,1.85c0.3,0.767,0.416,1.45,0.35,2.05
				c-0.066,0.633-0.3,1.017-0.7,1.15c-0.399,0.1-0.85-0.066-1.35-0.5C26.7,10.083,26.283,9.467,25.95,8.7z"/>
		</g>
		<path style="fill-rule:evenodd;clip-rule:evenodd;fill:#E4ED91;" d="M28.4,7.85c0.3,0.767,0.3,1.2,0,1.3
			c-0.367,0.067-0.7-0.267-1-1c-0.301-0.8-0.284-1.233,0.05-1.3c0.133-0.033,0.3,0.033,0.5,0.2C28.116,7.25,28.267,7.517,28.4,7.85z
			"/>
	</g>
	<path style="fill-rule:evenodd;clip-rule:evenodd;fill:#636A23;" d="M24.3,13.85c0.467-0.567,1-0.9,1.601-1
		c0.6-0.133,1.083,0,1.449,0.4c0.4,0.367,0.584,0.883,0.551,1.55c-0.034,0.667-0.284,1.284-0.75,1.85c-0.467,0.567-1,0.9-1.601,1
		c-0.6,0.133-1.083,0-1.45-0.4c-0.399-0.367-0.583-0.883-0.55-1.55C23.583,15.033,23.833,14.417,24.3,13.85z"/>
	<path style="fill-rule:evenodd;clip-rule:evenodd;fill:#636A23;" d="M19.8,13.8c0.3-0.367,0.65-0.6,1.05-0.7
		c0.4-0.067,0.717,0.033,0.95,0.3c0.267,0.267,0.384,0.617,0.351,1.05c-0.034,0.433-0.2,0.816-0.5,1.15
		C21.35,15.967,21,16.183,20.6,16.25c-0.366,0.1-0.683,0.017-0.949-0.25s-0.384-0.6-0.351-1C19.333,14.533,19.5,14.133,19.8,13.8z"
		/>
	<path style="fill-rule:evenodd;clip-rule:evenodd;fill:#636A23;" d="M21.95,15.45c0.2-0.233,0.434-0.383,0.7-0.45
		c0.267-0.033,0.483,0.033,0.649,0.2c0.367,0.367,0.334,0.85-0.1,1.45c-0.2,0.233-0.434,0.383-0.7,0.45
		c-0.267,0.033-0.467-0.033-0.6-0.2c-0.167-0.167-0.25-0.4-0.25-0.7C21.684,15.933,21.783,15.683,21.95,15.45z"/>
</g>
</svg>
