<?xml version="1.0" encoding="iso-8859-1"?>
<!-- Generator: Adobe Illustrator 15.1.0, SVG Export Plug-In . SVG Version: 6.00 Build 0)  -->
<!DOCTYPE svg PUBLIC "-//W3C//DTD SVG 1.1//EN" "http://www.w3.org/Graphics/SVG/1.1/DTD/svg11.dtd">
<svg version="1.1" id="midground" xmlns="http://www.w3.org/2000/svg" xmlns:xlink="http://www.w3.org/1999/xlink" x="0px" y="0px"
	 width="1611.75px" height="115.6px" viewBox="0 0 1611.75 115.6" style="enable-background:new 0 0 1611.75 115.6;"
	 xml:space="preserve">
<symbol  id="FlashAICB_x2F_midground_x2F__x3C_Path_x3E_" viewBox="0 -115.65 1611.75 115.609">
	<g id="Layer_1_2_">
		
			<linearGradient id="SVGID_1_" gradientUnits="userSpaceOnUse" x1="15411.918" y1="-1552.8052" x2="15527.543" y2="-1552.8052" gradientTransform="matrix(8.648649e-006 1 -1 -0.001 -747.064 -15529.1338)">
			<stop  offset="0" style="stop-color:#FFFFFF;stop-opacity:0"/>
			<stop  offset="0.1216" style="stop-color:#E5E2DC;stop-opacity:0.1725"/>
			<stop  offset="0.349" style="stop-color:#BAB1A1;stop-opacity:0.4627"/>
			<stop  offset="0.5608" style="stop-color:#978A73;stop-opacity:0.6941"/>
			<stop  offset="0.7451" style="stop-color:#7F6E52;stop-opacity:0.8588"/>
			<stop  offset="0.898" style="stop-color:#705C3D;stop-opacity:0.9608"/>
			<stop  offset="1" style="stop-color:#6A5636"/>
		</linearGradient>
		<path style="fill-rule:evenodd;clip-rule:evenodd;fill:url(#SVGID_1_);" d="M1555.75-3.95c19.167-1.6,36.316-3.25,51.45-4.95
			l4.55-103.75l-526-3l-0.05,2.05l-359-2.05l-0.05,2.3l-405.2-2.3v1.3l-225.75-1.3l-0.05,0.55l-94.5-0.55L0-19.95
			c10.067,3.167,23.217,6.117,39.45,8.85c32.433,5.434,66.466,7.05,102.1,4.85c6.6-0.4,12.833-0.85,18.7-1.35
			c24.433,2.5,49.7,2.95,75.8,1.35c16.8-1.033,32.85-2.433,48.15-4.2c11.333-1.3,23.267-2.917,35.8-4.85
			c15,5.6,23.717,8.767,26.15,9.5c11.4,3.333,23.767,5.2,37.1,5.6c10.667,0.367,24.383-1.35,41.15-5.15
			c6.667,0.067,12.533,0.033,17.6-0.1c10.9,3.1,22.817,4.85,35.75,5.25c19.5,0.633,47.85-5.316,85.05-17.85
			c10.767-1.7,18.917-2.833,24.45-3.4c7.967-0.833,15.333-1.083,22.1-0.75c7.367,0.333,14.733,1.617,22.1,3.85
			c2.966,0.9,9.45,3.283,19.45,7.15c8.333,3.233,15.717,5.617,22.15,7.15c9.4,2.233,19.55,3.517,30.45,3.85
			c15.333,0.5,36.167-3.083,62.5-10.75c31.867,5.3,65.566,6.867,101.1,4.7c29.9-1.833,61-5.35,93.3-10.55
			c14.2-2.267,23.85-3.7,28.95-4.3c9.3-1.066,17.716-1.433,25.25-1.1c7.367,0.333,14.733,1.617,22.1,3.85
			c2.966,0.9,9.45,3.283,19.45,7.15c8.333,3.233,15.717,5.617,22.15,7.15c9.4,2.233,19.55,3.517,30.45,3.85
			c12.367,0.4,28.333-1.867,47.9-6.8c22.833,1.967,45.983,2.217,69.45,0.75c29.9-1.833,61-5.35,93.3-10.55
			c14.233-2.267,23.9-3.7,29-4.3c9.3-1.066,17.717-1.433,25.25-1.1c7.367,0.333,14.733,1.617,22.1,3.85
			c2.967,0.9,9.45,3.283,19.45,7.15c8.333,3.233,15.716,5.617,22.15,7.15c9.4,2.233,19.55,3.517,30.45,3.85
			C1488.066,0.433,1517.383-0.817,1555.75-3.95z"/>
	</g>
</symbol>
<path style="fill-rule:evenodd;clip-rule:evenodd;fill:#3F3123;" d="M1555.75,3.9c19.167,1.6,36.316,3.25,51.45,4.95l4.55,103.75
	l-526,3l-0.05-2.05l-359,2.05l-0.05-2.3l-405.2,2.3v-1.3L95.7,115.6l-0.05-0.55l-94.5,0.55L0,19.9
	c10.067-3.167,23.217-6.117,39.45-8.85C71.883,5.617,105.917,4,141.55,6.2c6.6,0.4,12.833,0.85,18.7,1.35
	c24.433-2.5,49.7-2.95,75.8-1.35c16.8,1.033,32.85,2.433,48.15,4.2c11.333,1.3,23.267,2.917,35.8,4.85
	c15-5.6,23.717-8.767,26.15-9.5c11.4-3.333,23.767-5.2,37.1-5.6c10.667-0.367,24.383,1.35,41.15,5.15
	c6.667-0.066,12.533-0.033,17.6,0.1c10.9-3.1,22.817-4.85,35.75-5.25C497.25-0.483,525.6,5.467,562.8,18
	c10.767,1.7,18.917,2.833,24.45,3.4c7.967,0.833,15.333,1.083,22.1,0.75c7.367-0.333,14.733-1.617,22.1-3.85
	c2.966-0.9,9.45-3.283,19.45-7.15c8.333-3.233,15.717-5.617,22.15-7.15c9.4-2.233,19.55-3.517,30.45-3.85
	c15.333-0.5,36.167,3.083,62.5,10.75c31.867-5.3,65.566-6.867,101.1-4.7c29.9,1.833,61,5.35,93.301,10.55
	c14.199,2.267,23.85,3.7,28.949,4.3c9.301,1.067,17.717,1.434,25.25,1.1c7.367-0.333,14.733-1.617,22.101-3.85
	c2.967-0.9,9.45-3.283,19.45-7.15c8.333-3.233,15.717-5.617,22.149-7.15c9.4-2.233,19.55-3.517,30.45-3.85
	c12.367-0.4,28.333,1.867,47.9,6.8c22.833-1.967,45.982-2.217,69.449-0.75c29.9,1.833,61,5.35,93.301,10.55
	c14.232,2.267,23.899,3.7,29,4.3c9.3,1.067,17.717,1.434,25.25,1.1c7.366-0.333,14.732-1.617,22.1-3.85
	c2.967-0.9,9.45-3.283,19.45-7.15c8.333-3.233,15.717-5.617,22.149-7.15c9.4-2.233,19.551-3.517,30.45-3.85
	C1488.066-0.483,1517.383,0.767,1555.75,3.9z"/>
<use xlink:href="#FlashAICB_x2F_midground_x2F__x3C_Path_x3E_"  width="1611.75" height="115.609" y="-115.65" transform="matrix(1 0 0 -1 0 -0.0498)" style="overflow:visible;opacity:0.6016;enable-background:new    ;"/>
</svg>
