<?xml version="1.0" encoding="iso-8859-1"?>
<!-- Generator: Adobe Illustrator 15.1.0, SVG Export Plug-In . SVG Version: 6.00 Build 0)  -->
<!DOCTYPE svg PUBLIC "-//W3C//DTD SVG 1.1//EN" "http://www.w3.org/Graphics/SVG/1.1/DTD/svg11.dtd">
<svg version="1.1" id="paper_talismen__x28_group_and_single_x29_"
	 xmlns="http://www.w3.org/2000/svg" xmlns:xlink="http://www.w3.org/1999/xlink" x="0px" y="0px" width="31.1px" height="60.95px"
	 viewBox="0 0 31.1 60.95" style="enable-background:new 0 0 31.1 60.95;" xml:space="preserve">
<symbol  id="FlashAICB_x2F_paper_talismen__x28_group_and_single_x29__x2F__x3C_Path_x3E__x5F_2" viewBox="0 -60.95 20.85 60.95">
	<g id="Layer_1_2_">
		<polygon style="fill-rule:evenodd;clip-rule:evenodd;fill:#FFECCD;" points="20.85,0 20.15,-53.3 0,-60.95 0.7,-7.65 		"/>
	</g>
</symbol>
<g>
	<g>
		
			<use xlink:href="#FlashAICB_x2F_paper_talismen__x28_group_and_single_x29__x2F__x3C_Path_x3E__x5F_2"  width="20.85" height="60.95" y="-60.95" transform="matrix(1 0 0 -1 4.75 0)" style="overflow:visible;opacity:0.5;enable-background:new    ;"/>
		<polygon style="fill-rule:evenodd;clip-rule:evenodd;fill:#24200E;" points="31,5.65 18.5,10.3 18.6,7.15 31.1,2.45 		"/>
		<polygon style="fill-rule:evenodd;clip-rule:evenodd;fill:#24200E;" points="12.5,12.55 0,17.25 0.05,14.05 12.55,9.35 		"/>
	</g>
	<g>
		<g>
			<g>
				<path style="fill-rule:evenodd;clip-rule:evenodd;fill:#825F3E;" d="M20.55,43.85c-0.033,0.034-0.1,0.067-0.2,0.101
					C20.316,43.983,20.333,44,20.4,44c0.033,0,0.133-0.033,0.3-0.1c0.133-0.034,0.166-0.017,0.1,0.05L20.5,44l-0.1,0.05L20.65,44
					l-0.15,0.05c0.2-0.033,0.35-0.033,0.45,0l-0.2,0.15H20.7c-0.188,0.063-0.154,0.096,0.1,0.1l0.2,0.05
					c-0.134,0.067-0.35,0.117-0.65,0.15c0,0.1,0.217,0.1,0.65,0c-0.066,0.033-0.066,0.083,0,0.15c0.033,0.033-0.017,0.066-0.15,0.1
					l0.25,0.05c-0.033,0.033-0.017,0.101,0.051,0.2c0,0.066-0.101,0.1-0.301,0.1l-0.399-0.05L20.6,45.1l0.45,0.051
					c0.066,0.033,0.084,0.066,0.05,0.1c0,0.066-0.05,0.1-0.149,0.1c-0.251-0.045-0.284-0.028-0.101,0.051l0.25,0.05h-0.25
					c0.334,0.066,0.417,0.1,0.25,0.1l-0.25-0.05c0.334,0.134,0.434,0.184,0.301,0.15H20.8c0.04,0.001,0.156,0.018,0.351,0.05
					c-0.167,0.033-0.351,0.033-0.551,0c0.5,0.233,0.684,0.434,0.551,0.6L20.6,46.15c0.2,0.1,0.317,0.166,0.351,0.199
					c0.149,0.03,0.2,0.03,0.149,0c0.07,0.039,0.12,0.09,0.15,0.15l-0.5-0.2L20.9,46.4c-0.467-0.2-0.851-0.351-1.15-0.45L19.8,46
					c-0.267-0.134-0.45-0.2-0.55-0.2c0.4,0.2,0.667,0.3,0.8,0.3c0.043,0.044,0.16,0.11,0.351,0.2l0.1,0.101L21,46.6l-0.35-0.1
					l0.449,0.2c0.301,0.1,0.367,0.149,0.2,0.149l-0.85-0.35l0.8,0.35L20.8,46.7c0.285,0.143,0.302,0.176,0.05,0.1L21,46.85
					l-0.35-0.1l0.149,0.1c0.033,0.034-0.033,0.017-0.2-0.05L20.9,47c0.065,0.017,0.116,0.024,0.149,0.025
					c0.104,0.054,0.171,0.096,0.2,0.125l-0.2-0.101l0.2,0.15c0.066,0.066-0.066,0.033-0.4-0.101L20.65,47H20.55l0.65,0.3h-0.05
					l0.05,0.05l-0.7-0.3l0.55,0.3l-0.3-0.149c0.031,0.063,0.14,0.129,0.325,0.2L20.5,47.2l-0.95-0.45l0.101,0.1
					c0.366,0.134,0.767,0.334,1.199,0.601c0.051,0.075-0.024,0.075-0.225,0l0.125,0.05c0.3,0.167,0.384,0.233,0.25,0.2L19.8,47.1
					c0.101,0.101,0.2,0.167,0.3,0.2c0.092,0.055,0.158,0.088,0.2,0.101c-0.066,0,0,0.05,0.2,0.149c-0.134-0.133,0-0.066,0.4,0.2
					l0.05,0.05c-0.026-0.013-0.061-0.029-0.101-0.05l0.15,0.1l-0.05-0.05c0.127,0.073,0.177,0.123,0.149,0.15L20.7,47.8
					c0.133,0,0.033-0.083-0.3-0.25c0.133,0.101,0.149,0.134,0.05,0.101L20.4,47.6L20.1,47.45l-0.125-0.025
					c-0.063-0.035-0.138-0.076-0.225-0.125c-0.3-0.133-0.533-0.233-0.7-0.3c0.066,0.033,0.101,0.066,0.101,0.1l0.55,0.25
					c-0.033,0,0.05,0.101,0.25,0.301l-0.4-0.25c0.033,0.066,0,0.1-0.1,0.1c0.3,0.134,0.45,0.233,0.45,0.3l0.274,0.15H20.1L20.15,48
					c-0.334-0.2-0.601-0.366-0.801-0.5c0.101,0.1,0.017,0.066-0.25-0.1l0.301,0.3c-0.134-0.033-0.184-0.017-0.15,0.05
					c0.033,0.033,0.066,0.066,0.1,0.1l-0.399-0.175V47.7l-0.05-0.05H18.85c-0.023,0.023,0.01,0.073,0.101,0.149l-0.2-0.149v0.024
					L18.5,47.5c-0.134-0.066-0.167-0.066-0.1,0c0.033,0.033,0.066,0.066,0.1,0.1l0.25,0.15c0.1,0.1,0.083,0.134-0.05,0.1L18.5,47.7
					c-0.02-0.006-0.053-0.022-0.1-0.05L17.95,47.3L17.8,47.15l0.25,0.199c-0.2-0.166-0.283-0.25-0.25-0.25
					c0.233,0.134,0.217,0.084-0.05-0.149l0.6,0.45l0.15,0.05L17.85,47l0.2,0.1c-0.033-0.066-0.133-0.149-0.3-0.25l0.2-0.05
					l0.2,0.101c-0.067-0.101-0.167-0.2-0.301-0.301c0.067,0,0.084-0.033,0.051-0.1c0-0.033,0.066-0.017,0.199,0.05
					c-0.166-0.233-0.216-0.366-0.149-0.399l0.35,0.199c0.101,0.067,0.15,0.084,0.15,0.051c-0.233-0.134-0.417-0.233-0.55-0.301
					c0.233,0.067,0.183-0.017-0.15-0.25h0.05c0.033,0,0.101,0,0.2,0c0.066,0.034,0.167,0.067,0.3,0.101l-0.5-0.3
					c0-0.067,0.084-0.067,0.25,0c-0.166-0.101-0.25-0.184-0.25-0.25c0-0.067-0.05-0.134-0.149-0.2l0.225,0.1
					c-0.013,0.014-0.021,0.031-0.025,0.05L17.9,45.3h-0.025v-0.024c-0.182-0.086-0.256-0.145-0.225-0.176
					c0.066-0.066,0.066-0.116,0-0.149l0.274,0.1c0.064-0.355,0.056-0.438-0.024-0.25v0.05c-0.034,0.123-0.051,0.14-0.051,0.051
					v-0.075h-0.024v0.024L17.8,44.95V44.9v-0.075c-0.029-0.012-0.055-0.021-0.075-0.025L17.7,44.825l-0.025,0.05L17.8,44.9
					c-0.001,0.033-0.051,0.05-0.149,0.05L17.55,45.3c-0.3,0.267-0.517,0.417-0.649,0.45c-0.233,0.1-0.417,0.05-0.551-0.15
					c-0.033-0.233-0.066-0.35-0.1-0.35l-0.025,0.075c0.01,0.157,0.001,0.249-0.024,0.274C16.1,45.634,16.033,45.65,16,45.65
					L15.95,45.3v0.15L16,45.85c-0.066,0.134-0.167,0.117-0.3-0.05c-0.2-0.166-0.316-0.233-0.351-0.2c-0.1-0.1-0.149-0.05-0.149,0.15
					c-0.167-0.267-0.3-0.45-0.4-0.55c-0.133-0.101-0.183-0.066-0.15,0.1c-0.033,0.033-0.117-0.116-0.25-0.45
					c-0.133-0.333-0.2-0.566-0.2-0.699c-0.1-0.334-0.1-0.483,0-0.45c0.133,0,0.183-0.084,0.15-0.25c0.1,0.333,0.15,0.467,0.15,0.399
					c-0.033-0.333,0-0.466,0.1-0.399c0.133,0.033,0.267,0.2,0.4,0.5l0.05,0.149c0.033,0.067,0.033-0.033,0-0.3l0.05,0.25V43.7
					l0.101,0.45L15.15,43.8c-0.034-0.267-0.034-0.366,0-0.3c0.066,0.1,0.1,0.083,0.1-0.05l0.05,0.2c0-0.2,0.033-0.334,0.101-0.4
					c0.033-0.033,0.083-0.1,0.149-0.2L15.6,43.4c-0.028-0.238-0.028-0.371,0-0.4c0.034,0.233,0.051,0.184,0.051-0.15L15.7,42.9v-0.2
					l0.05,0.225c-0.029-0.144-0.013-0.169,0.05-0.075l0.05,0.075c0.014,0.023,0.03,0.016,0.051-0.024v0.05
					c0.066,0.1,0.083,0.017,0.05-0.25C15.983,42.9,16,43.1,16,43.3c0.066-0.233,0.2-0.35,0.4-0.35l0.05,0.3L16.5,43l0.05,0.2
					c0.029,0.087,0.046,0.037,0.05-0.15v0.3c0.003-0.104,0.036-0.221,0.101-0.35v0.2c0.029,0.059,0.046,0.024,0.05-0.101v0.2
					c0.023,0.119,0.04,0.103,0.05-0.05l0.15-0.45V42.9c0.066,0.066,0.116,0.033,0.149-0.101v0.5c0.067-0.133,0.101-0.366,0.101-0.7
					l0.1,0.101l-0.05,1L17.3,43.6l0.2-0.85l-0.05,0.6L17.6,42.5c-0.033,0.233-0.033,0.316,0,0.25l0.051-0.3
					c0,0.033,0.017,0.149,0.05,0.35l-0.05,0.25L17.7,42.9v0.05c0.057,0.057,0.09-0.044,0.1-0.3L17.9,42.35L17.85,42.65l0.25-0.601
					l-0.1,0.3c0.033,0.101,0.066,0.084,0.1-0.05c0.067-0.1,0.101-0.066,0.101,0.101l0.05-0.25v0.199l0.05-0.1v0.1
					c0.167-0.333,0.25-0.366,0.25-0.1l0.15-0.4L18.6,42.15V42.3l0.051-0.1c0.033-0.066,0.05-0.05,0.05,0.05
					c-0.101,0.267-0.134,0.384-0.101,0.35l0.25-0.55c0,0.066,0.017,0.101,0.051,0.101c0.033,0,0.017,0.083-0.051,0.25l-0.1,0.3
					l0.2-0.45L18.9,42.4c0.066-0.167,0.116-0.233,0.149-0.2c0,0.033,0.033,0,0.101-0.101c0,0.034,0.017,0.067,0.05,0.101
					c0.033,0.066,0.017,0.149-0.05,0.25l0.25-0.15L19.3,42.45c-0.033,0.1,0,0.1,0.101,0l-0.15,0.5l0.35-0.55
					c-0.066,0.166-0.05,0.216,0.051,0.149c0.1-0.066,0.116-0.033,0.05,0.101c-0.134,0.166-0.217,0.267-0.25,0.3
					c-0.101,0.166-0.084,0.184,0.05,0.05s0.184-0.167,0.15-0.1l0.25-0.351c0.166-0.066,0.149,0.017-0.051,0.25
					c0.101-0.066,0.184-0.116,0.25-0.149c-0.033,0.1,0,0.183,0.101,0.25c0.066,0.066,0,0.199-0.2,0.399
					c0.04,0,0.082-0.008,0.125-0.024c-0.052,0.044-0.11,0.086-0.175,0.125c-0.033,0.033,0.05,0.017,0.25-0.051
					c0.267-0.133,0.383-0.149,0.35-0.05c-0.267,0.066-0.333,0.101-0.2,0.101l0.301-0.051c0,0.034-0.2,0.15-0.601,0.351
					c0.134,0,0.233-0.017,0.3-0.05L20,43.85c0.054-0.026,0.121-0.043,0.2-0.05c-0.033,0.033-0.033,0.066,0,0.101l0.25-0.2h0.3
					C20.616,43.733,20.55,43.783,20.55,43.85z M19.975,47.425c0.092,0.062,0.142,0.103,0.15,0.125L20.05,47.5L19.975,47.425z
					 M20.8,46.45c-0.152-0.059-0.286-0.109-0.399-0.15c0.009-0.02,0.042-0.02,0.1,0L20.8,46.45z M21,47h0.1
					c0,0.017-0.017,0.025-0.05,0.025C21.034,47.017,21.018,47.009,21,47z"/>
			</g>
		</g>
		<g>
			<g>
				<path style="fill-rule:evenodd;clip-rule:evenodd;fill:#825F3E;" d="M17.925,36.325c0.019,0.156,0.061,0.364,0.125,0.625
					L18,36.9l0.15,0.5V37.05C18.116,37.083,18.1,37,18.1,36.8c0-0.033,0.034-0.017,0.101,0.05l-0.05-0.25
					c-0.034,0.034-0.084-0.116-0.15-0.449L18.05,36v0.2c0.101,0.1,0.134-0.017,0.101-0.351l0.1,0.4c0,0.1-0.017,0.15-0.05,0.15
					s-0.033,0.1,0,0.3c0.033,0,0.066-0.05,0.1-0.15v0.101c0.101,0.5,0.15,0.6,0.15,0.3c0.033-0.066,0.017-0.2-0.05-0.4
					c0.066-0.066,0.116-0.184,0.149-0.35c0.026,0.211,0.052,0.353,0.075,0.425c-0.147-0.265-0.188-0.189-0.125,0.225
					c0.066,0.334,0.05,0.483-0.05,0.45l0.25,0.75V37.9L18.6,37.3c0.067,0.066,0.101-0.05,0.101-0.35l0.1,0.45
					c0.066-0.101,0.15-0.101,0.25,0c0.066-0.101,0.066-0.284,0-0.551c-0.1-0.199-0.149-0.399-0.149-0.6l0.05,0.3
					c0.066,0.267,0.1,0.267,0.1,0c0,0.033,0.033,0.351,0.101,0.95c0.033,0.167,0.066,0.25,0.1,0.25c0-0.233,0.05-0.4,0.15-0.5
					c0.033,0.134,0.083,0.184,0.149,0.15c0.033-0.034,0.066-0.101,0.101-0.2l0.149,0.7c0.024,0,0.033-0.059,0.025-0.176
					c0.081,0.154,0.105,0.029,0.075-0.375l0.05,0.5L20,37.7V38.1c0.033,0.134,0.066,0.167,0.1,0.101c0-0.033,0.017-0.101,0.051-0.2
					L20.1,37.75c0.034-0.066,0.067-0.083,0.101-0.05c0.065,0.032,0.099,0.032,0.1,0v0.25l0.05-0.15c0,0.4,0.034,0.467,0.101,0.2
					l-0.101,0.65V38.1c-0.033-0.133-0.066-0.183-0.1-0.149s-0.033,0.116,0,0.25l0.05-0.15v0.601c0,0.133-0.017,0.199-0.05,0.199
					l-0.05-0.3c0,0.267-0.033,0.384-0.101,0.351c0-0.134-0.017-0.15-0.05-0.051c-0.033,0.167-0.066,0.233-0.1,0.2L20,38.3
					l-0.1-0.149v0.8L19.85,38.7c0,0.333-0.017,0.467-0.05,0.399c-0.1-0.066-0.2-0.1-0.3-0.1l-0.05-0.25
					c0,0.366-0.05,0.517-0.15,0.45c-0.033-0.066-0.083-0.066-0.149,0c-0.067,0.066-0.117,0.017-0.15-0.15
					c-0.167,0.3-0.333,0.434-0.5,0.4v-0.325c-0.003,0.123-0.028,0.09-0.075-0.1c0.017,0.104,0.025,0.278,0.025,0.524
					c-0.134-0.233-0.2-0.133-0.2,0.3L18.2,39.6c0.033,0.2,0.017,0.284-0.05,0.25c-0.101-0.1-0.167-0.166-0.2-0.199L17.8,39.4
					l0.05,0.6c-0.133,0-0.216-0.066-0.25-0.2c-0.033,0.233-0.1,0.384-0.199,0.45c-0.134,0.066-0.217,0.15-0.25,0.25l-0.101-0.3
					c0.033,0.233-0.017,0.366-0.149,0.399c-0.167,0-0.25,0.051-0.25,0.15L16.5,40.3c-0.167-0.166-0.134-0.017,0.1,0.45
					c-0.033-0.033-0.066-0.017-0.1,0.05c0,0.066-0.033,0.033-0.1-0.1V41c-0.086-0.086-0.145-0.086-0.176,0l-0.175-0.25
					c0.033,0.066,0.084,0.217,0.15,0.45c-0.066-0.101-0.117-0.101-0.15,0c-0.033,0.1-0.1,0.083-0.2-0.05L16,41.4h-0.15
					c-0.066-0.034-0.083,0-0.05,0.1l-0.075-0.1c0.017,0.036,0.025,0.069,0.025,0.1c0.066,0.2-0.05,0.2-0.35,0
					c0.033,0.134,0.017,0.233-0.051,0.3c-0.033,0.033-0.066,0.066-0.1,0.101l-0.1-0.051c0.233,0.2,0.283,0.267,0.149,0.2l-0.2-0.125
					c0.117,0.079,0.117,0.104,0,0.075h-0.05c0.033,0.033-0.017,0.033-0.15,0l-0.2-0.05c0.3,0.1,0.267,0.1-0.1,0l0.25,0.1
					c-0.1,0-0.017,0.066,0.25,0.2c-0.153,0.051-0.286,0.084-0.399,0.1c0.1,0-0.017,0.034-0.35,0.101l0.4-0.05
					C14.083,42.566,14,42.6,14.5,42.5l-0.2,0.05c0.167,0,0.317,0.033,0.45,0.101c0.1,0.033,0.25,0.05,0.45,0.05
					c0.133,0.233,0.399,0.55,0.8,0.95c0,0.1,0.083,0.267,0.25,0.5c0.134,0.199,0.184,0.399,0.15,0.6
					c-0.167,0.167-0.267,0.267-0.301,0.3c0,0.031,0.042,0.048,0.125,0.05c0.155-0.095,0.247-0.128,0.275-0.1
					c0,0.033,0.1,0.15,0.3,0.35c-0.033,0-0.116,0.067-0.25,0.2l0.2-0.149l-0.1,0.1L17,45.25c0.167,0.033,0.267,0.2,0.3,0.5
					c0.033,0.333,0.101,0.533,0.2,0.6c-0.033,0.101,0.066,0.15,0.3,0.15c-0.1,0.3-0.116,0.566-0.05,0.8c0,0.101,0.033,0.167,0.1,0.2
					c0.067,0.033,0.134,0.017,0.2-0.05c-0.333,0.6-0.6,0.934-0.8,1c-0.233,0.2-0.4,0.233-0.5,0.1c-0.1-0.133-0.217-0.149-0.35-0.05
					c0.199-0.267,0.267-0.384,0.199-0.35c-0.3,0.199-0.483,0.199-0.55,0c-0.033-0.134,0-0.367,0.101-0.7l0.1-0.101
					c-0.2,0.134-0.3,0.167-0.3,0.101l0.2-0.2c-0.101,0.033-0.217,0.083-0.351,0.15l0.3-0.351l-0.25,0.2
					c-0.233,0.2-0.333,0.25-0.3,0.15c0-0.134-0.05-0.184-0.149-0.15l0.149-0.1c-0.166,0.066-0.316,0.066-0.45,0
					c-0.133-0.067-0.25-0.117-0.35-0.15l0.35-0.25c-0.2,0.134-0.366,0.2-0.5,0.2c0.1-0.066,0.1-0.084,0-0.05
					c-0.167,0.033-0.233,0.017-0.2-0.051h0.1c0.066-0.133-0.017-0.133-0.25,0l0.2-0.149c-0.167,0.1-0.2,0.1-0.1,0
					c0.066-0.101,0.066-0.134,0-0.101L14.3,46.65c-0.066,0.033-0.083,0.017-0.05-0.051c0.033-0.033,0.033-0.05,0-0.05l0.05-0.05
					c-0.033,0-0.05-0.017-0.05-0.05c-0.024-0.024-0.066-0.024-0.125,0c0.141-0.076,0.282-0.144,0.425-0.2
					c-0.2-0.033-0.367-0.1-0.5-0.2c-0.066-0.166-0.133-0.283-0.2-0.35l0.25-0.25c-0.067-0.033-0.15-0.017-0.25,0.05L14,45.35
					c0.066-0.066-0.017-0.066-0.25,0l0.3-0.149c-0.07,0.033-0.187,0.05-0.35,0.05l0.2-0.1c-0.133,0.033-0.183,0.017-0.15-0.051
					c0.033-0.033,0.017-0.05-0.05-0.05L13.9,45c0.123-0.122,0.047-0.131-0.225-0.025c-0.092,0.008-0.151-0.001-0.175-0.024
					c-0.033-0.033-0.083-0.066-0.15-0.101h0.1c0-0.133-0.067-0.199-0.2-0.199c0.3-0.134,0.433-0.217,0.4-0.25
					c-0.133-0.034-0.35,0.017-0.65,0.149c0.033-0.066,0.05-0.116,0.05-0.149c0.033-0.066,0.016-0.1-0.05-0.101
					c0.103-0.001,0.286-0.051,0.55-0.149l0.4-0.15l-0.15-0.1c-0.533,0.1-0.816,0.133-0.85,0.1l0.55-0.15l-0.85,0.101
					c0.2-0.066,0.267-0.101,0.2-0.101l-0.3,0.051c0.034,0,0.034-0.034,0-0.101c0-0.033,0.1-0.066,0.3-0.1l0.25-0.05l-0.2-0.101h0.05
					c0.2-0.2,0.066-0.184-0.4,0.05c-0.114-0.014-0.197-0.047-0.25-0.1l0.3-0.05c-0.2,0-0.4-0.033-0.6-0.101l0.275-0.024
					c0.034-0.025-0.008-0.066-0.125-0.125c-0.1-0.033-0.083-0.084,0.05-0.15L12,43.1c0.2-0.066,0.267-0.1,0.2-0.1
					c0.033-0.033,0.033-0.05,0-0.05l-0.15-0.05h0.025c-0.068-0.027-0.126-0.077-0.175-0.15c-0.066-0.1-0.05-0.184,0.05-0.25
					c-0.367,0-0.5-0.05-0.4-0.15L11.8,42.4c0.034,0,0.05-0.034,0.05-0.101c0-0.021,0.017-0.037,0.05-0.05
					c0.019,0.02,0.036,0.036,0.05,0.05c-0.036-0.031-0.019-0.048,0.05-0.05c-0.041,0-0.074,0-0.1,0
					c-0.014-0.015-0.031-0.031-0.05-0.05c-0.067-0.033-0.05-0.066,0.05-0.101c0.267,0.067,0.383,0.084,0.35,0.051l-0.2-0.101
					l-0.1-0.1c0.033-0.033-0.05-0.05-0.25-0.05c0.033-0.001,0.05-0.019,0.05-0.051c0-0.066,0.083-0.083,0.25-0.05l0.35,0.05
					l-0.5-0.149H12c-0.167-0.033-0.233-0.066-0.2-0.101c0.034-0.066,0-0.116-0.1-0.149c0.033,0,0.083-0.033,0.15-0.101
					c0.033-0.066,0.117-0.1,0.25-0.1c-0.2-0.134-0.267-0.217-0.2-0.25l0.2,0.1c0.033,0,0.017-0.05-0.05-0.149l0.5,0.05L12,40.7
					c0.167,0.066,0.217,0.05,0.15-0.05c-0.1-0.134-0.066-0.184,0.1-0.15c0.1,0.167,0.217,0.25,0.35,0.25
					c0.167,0.066,0.183,0.05,0.05-0.05c-0.133-0.134-0.167-0.2-0.1-0.2l-0.35-0.2c0.066,0.033,0.083,0.017,0.05-0.05
					s0.017-0.066,0.15,0c0.133,0,0.083-0.066-0.15-0.2c0.066,0,0.15-0.066,0.25-0.2c0.066-0.1,0.217-0.066,0.45,0.101
					c0.033-0.033,0-0.101-0.1-0.2c0.06,0.042,0.127,0.108,0.2,0.2c0.1,0.033,0.067-0.05-0.1-0.25c-0.167-0.2-0.217-0.3-0.15-0.3
					c0.133,0.133,0.2,0.166,0.2,0.1l-0.15-0.25c0.033,0,0.2,0.15,0.5,0.45c0-0.101-0.017-0.184-0.05-0.25l0.25,0.25
					c-0.018-0.055-0.035-0.104-0.05-0.15c0.033,0.066,0.05,0.05,0.05-0.05l-0.3-0.2l-0.1-0.25c0.067,0.066,0.15,0.101,0.25,0.101
					c0.033,0.033,0.1,0.066,0.2,0.1V39.2c-0.013-0.025-0.029-0.059-0.05-0.101L13.7,39.2L13.55,39l0.1,0.1
					c0-0.1-0.05-0.233-0.15-0.399c0.1,0.066,0.167,0.1,0.2,0.1c0.167,0.134,0.183,0.084,0.05-0.149l0.05,0.05
					c0.034-0.066,0.034-0.15,0-0.25c0.367,0.566,0.5,0.75,0.4,0.55c0.1-0.1,0-0.3-0.3-0.6c0.067,0.033,0.117,0,0.15-0.101
					c0.067-0.066,0.15-0.05,0.25,0.05l-0.1-0.199c0.033,0,0.1-0.051,0.2-0.15c0.067-0.1,0.167-0.066,0.3,0.1
					c0,0.101,0.05,0.233,0.15,0.4c0.1,0.134,0.1,0.083,0-0.15s-0.184-0.366-0.25-0.399c0.066-0.2,0.167-0.217,0.3-0.05l-0.1-0.25
					c0.167,0.396,0.25,0.479,0.25,0.25L15,37.65c-0.033-0.101-0.017-0.117,0.05-0.051l0.101,0.25
					c-0.101-0.399-0.084-0.517,0.05-0.35l0.149,0.3l-0.1-0.35c0.167,0.166,0.283,0.316,0.35,0.45
					c-0.066-0.567,0.034-0.851,0.301-0.851l0.05,0.15c0.066,0.1,0.066,0.033,0-0.2l0.2,0.55c0.066,0.101,0.066-0.033,0-0.399
					c0,0.1-0.034,0.05-0.101-0.15c0.101,0.1,0.134,0.033,0.101-0.2l0.1,0.351c0.134,0.267,0.25,0.666,0.35,1.199V38.3
					c0.074,0.147,0.124,0.272,0.15,0.375c-0.03-0.142-0.098-0.367-0.2-0.675c0.023-0.046,0.015-0.188-0.024-0.425
					c0.05,0.118,0.074,0.077,0.074-0.125c-0.1-0.134-0.149-0.316-0.149-0.55c0.066,0.1,0.116,0.216,0.149,0.35
					c-0.066-0.3-0.116-0.467-0.149-0.5c-0.033-0.167-0.033-0.217,0-0.15c0.059,0.029,0.075,0.005,0.05-0.074
					c0.072,0.205,0.155,0.497,0.25,0.875c0-0.241-0.033-0.482-0.1-0.726L16.75,37v-0.1c0-0.134,0.033-0.084,0.1,0.149l-0.05-0.3
					l0.15,0.3c0-0.066,0-0.116,0-0.149c0.033-0.101,0.066-0.051,0.1,0.149c0-0.166-0.017-0.283-0.05-0.35
					c-0.033-0.033-0.05-0.033-0.05,0L16.925,36.6l0.025-0.25L17,36.5v-0.2l0.1,0.25l-0.05-0.3c0.066,0.333,0.117,0.467,0.15,0.4
					v0.199L17.3,37l-0.1-0.8c0.022,0.066,0.039,0.116,0.05,0.149v0.2l0.2,0.4c0-0.144-0.009-0.26-0.025-0.351l0.025,0.051
					c-0.033-0.167-0.05-0.301-0.05-0.4l0.3,0.6l0.05,0.45L17.9,37.9c0.033-0.067,0.05-0.134,0.05-0.2
					c-0.066-0.533-0.15-0.967-0.25-1.3c0.033-0.067,0.1,0.083,0.2,0.449c0.066,0.267,0.083,0.267,0.05,0
					c-0.02-0.214-0.036-0.348-0.05-0.399C17.914,36.431,17.922,36.389,17.925,36.325z M16.525,37.575
					c-0.008-0.023-0.017-0.049-0.025-0.075c0-0.022,0-0.048,0-0.075C16.51,37.477,16.518,37.526,16.525,37.575z M19.8,37.7V37.6
					c0.009,0.053,0.018,0.094,0.025,0.125L19.8,37.7z M12.85,39.75c0.066,0.1,0.05,0.116-0.05,0.05l-0.1-0.1
					C12.745,39.7,12.795,39.717,12.85,39.75z M11.95,42.35c-0.1-0.033-0.1-0.05,0-0.05L12,42.35
					c0.091,0.061,0.116,0.094,0.075,0.101C12.112,42.443,12.07,42.41,11.95,42.35z"/>
			</g>
		</g>
		<g>
			<g>
				<path style="fill-rule:evenodd;clip-rule:evenodd;fill:#825F3E;" d="M15.85,26.2l0.051,0.2c0.066-0.233,0.399-0.467,1-0.7
					l-0.051,0.45c0.034-0.233,0.117-0.383,0.25-0.45c0,0.1,0.051,0.1,0.15,0c0.1-0.1,0.167-0.117,0.2-0.05v0.05
					c0.066-0.1,0.116-0.117,0.149-0.05c0,0.1,0.051,0.083,0.15-0.05l-0.05,0.25c0.1-0.133,0.133-0.133,0.1,0
					c0,0.133,0.017,0.183,0.05,0.15l0.051-0.1c0.1-0.033,0.149,0.017,0.149,0.15v0.05c0.029,0,0.071,0.017,0.125,0.05
					c-0.079,0.059-0.154,0.159-0.225,0.3c0.233,0,0.467,0.116,0.7,0.35L19,27.45l-0.3,0.2c0.066,0,0.184,0.033,0.35,0.1l-0.2,0.15
					c0.301-0.033,0.4,0,0.301,0.1l-0.4,0.05c0.134,0,0.267,0.067,0.4,0.2h-0.2c0.133,0.033,0.184,0.083,0.149,0.15
					c-0.064,0.064-0.064,0.098,0,0.1H18.9c-0.067,0.066-0.034,0.1,0.1,0.1c0.2,0,0.267,0.017,0.2,0.05h-0.25
					c0.166,0.033,0.267,0.1,0.3,0.2c0.033,0.066,0.066,0.133,0.1,0.2h-0.1c0,0.034,0,0.1,0,0.2c-0.033,0.1-0.017,0.183,0.05,0.25
					c-0.033,0-0.133-0.017-0.3-0.05c-0.134-0.034-0.184-0.017-0.15,0.05c0.134,0.033,0.217,0.1,0.25,0.2
					c0.067,0.066,0.184,0.116,0.351,0.15c-0.167,0.2-0.233,0.316-0.2,0.35c-0.366-0.1-0.55-0.184-0.55-0.25l-0.25-0.05l-0.15-0.1
					v0.25c0.434,0.333,0.65,0.55,0.65,0.65c-0.181-0.081-0.313-0.147-0.4-0.2L19.1,31c-0.033,0.066-0.116,0.05-0.25-0.05l0.2,0.2
					c-0.033,0.166-0.166,0.183-0.399,0.05c-0.034-0.101-0.101-0.15-0.2-0.15c0.066,0.101,0.083,0.167,0.05,0.2h-0.05
					c-0.066,0-0.066,0.05,0,0.15c0.066,0.1,0.149,0.166,0.25,0.199l0.024-0.05c0.07,0.146,0.079,0.246,0.025,0.3l-0.2-0.199
					c0.033,0.066,0.101,0.3,0.2,0.699l-0.2-0.25c-0.097,0-0.146,0.075-0.149,0.226v0.024c0,0.029,0,0.055,0,0.075
					c-0.01,0.043-0.026,0.076-0.051,0.101c0.034,0,0.084-0.009,0.15-0.025c0.134-0.033,0.2-0.017,0.2,0.05l-0.351,0.2
					c-0.1,0.033-0.149,0-0.149-0.1c-0.008-0.016-0.017-0.032-0.025-0.051h-0.05c-0.015,0.031-0.022,0.081-0.025,0.15
					c-0.013-0.032-0.029-0.065-0.05-0.1c0.009,0.036,0.017,0.069,0.025,0.1l0.024,0.025c0.034,0.033,0.034,0.074,0,0.125
					c0.001,0.099-0.016,0.174-0.05,0.225L18.15,33.1c0.066,0.101,0.199,0.167,0.399,0.2c0,0.134-0.149,0.2-0.45,0.2
					c0.134-0.066,0.167-0.134,0.101-0.2c-0.033-0.066-0.15-0.083-0.351-0.05l-0.024,0.025c0.139,0.161,0.163,0.286,0.075,0.375
					l-0.15-0.25c-0.049,0.049-0.107,0.049-0.175,0H17.55v0.1c0,0.05-0.008,0.083-0.024,0.1c0.066,0.034,0.175,0.051,0.324,0.051
					c-0.033,0.033-0.116,0.066-0.25,0.1c-0.098,0.033-0.165,0.033-0.199,0c0.133,0.134,0.166,0.301,0.1,0.5
					c0.167-0.1,0.267-0.116,0.3-0.05c0.033,0.033,0.101,0.033,0.2,0c0.167-0.167,0.384-0.25,0.65-0.25l-0.301,0.1
					c0.067,0,0.051,0.033-0.05,0.101l-0.05,0.05c-0.149,0.018-0.433,0.084-0.85,0.2c0.166,0.033,0.1,0.083-0.2,0.149
					c0.267,0.066,0.434,0.134,0.5,0.2c-0.134,0.1-0.167,0.2-0.101,0.3c0.067,0.066,0.134,0.134,0.2,0.2
					c-0.399,0.066-0.616,0.134-0.649,0.2c0.267-0.101,0.35-0.101,0.25,0H17.3c0.033,0.033,0.033,0.083,0,0.149
					c0,0.051,0.033,0.084,0.101,0.101h-0.2c-0.033,0.033,0,0.05,0.1,0.05l-0.35,0.05c-0.134,0.033-0.167,0.066-0.101,0.101
					c0.067,0.033,0.134,0.066,0.2,0.1l0.25-0.05c0.101,0.033,0.134,0.083,0.101,0.149c-0.034,0.101-0.034,0.167,0,0.2H17.1
					l0.2,0.101c-0.4,0-0.509,0.024-0.325,0.074L16.4,36.35c0.033,0,0.116,0,0.25,0c0.133,0,0.25-0.017,0.35-0.05
					c0.4-0.1,0.366-0.149-0.1-0.149c-0.034,0.033,0,0.066,0.1,0.1c-0.233-0.033-0.434-0.05-0.6-0.05c0,0.032,0.017,0.049,0.05,0.05
					c-0.167,0-0.25-0.034-0.25-0.1c0.1,0,0.2-0.017,0.3-0.051c-0.267,0-0.384-0.05-0.35-0.149c0.133-0.033,0.149-0.066,0.05-0.101
					c-0.167-0.066-0.233-0.116-0.2-0.149l0.75,0.05c0.1-0.066,0.134-0.116,0.1-0.15l-0.75-0.05l0.25-0.05
					c-0.333,0-0.483-0.033-0.449-0.1c0.033-0.067,0.05-0.233,0.05-0.5l0.25-0.051c-0.071,0.013-0.13,0.013-0.175,0
					c-0.021,0.015-0.046,0.015-0.075,0c-0.053-0.022-0.086-0.056-0.101-0.1c-0.033-0.1-0.083-0.15-0.149-0.15
					c0.048-0.048,0.057-0.098,0.024-0.149c-0.022-0.016-0.047-0.032-0.074-0.05c-0.091-0.076-0.107-0.043-0.051,0.1
					c0.034,0.167,0.017,0.233-0.05,0.2l0.25,0.35c0,0.2-0.083,0.167-0.25-0.1c0,0.033-0.017,0.066-0.05,0.1s0,0.117,0.1,0.25
					c-0.1-0.033-0.216-0.017-0.35,0.05c-0.098,0.065-0.247,0.007-0.45-0.175c0.034,0.031,0.05,0.09,0.05,0.175
					c-0.05-0.066-0.1-0.149-0.15-0.25c-0.067-0.033-0.067,0.067,0,0.301c0.1,0.267,0.1,0.383,0,0.35
					c-0.034-0.134-0.083-0.184-0.15-0.15l0.1,0.301c-0.1,0-0.25-0.2-0.45-0.601v0.351l-0.25-0.301c0.1,0.134,0.116,0.217,0.05,0.25
					l-0.05-0.05c-0.067-0.133-0.1-0.116-0.1,0.05c0.1,0.134,0.183,0.2,0.25,0.2c0.033,0.101,0.033,0.2,0,0.3
					c-0.034-0.1-0.133-0.149-0.3-0.149v0.3c-0.1,0-0.15-0.066-0.15-0.2c0.067,0.066,0.1,0.05,0.1-0.05l-0.15-0.15
					c-0.034-0.033-0.05-0.017-0.05,0.051c0.133,0.366,0.133,0.5,0,0.399L13.5,36l-0.15-0.1l0.05,0.25l-0.05-0.101
					c0.033,0.101,0,0.184-0.1,0.25c-0.067,0.033-0.1,0.101-0.1,0.2c-0.167-0.1-0.283-0.167-0.35-0.2c-0.1-0.1-0.25-0.066-0.45,0.101
					V36.35c-0.133-0.066-0.3-0.05-0.5,0.051c-0.067-0.134-0.05-0.334,0.05-0.601c0.067-0.166,0.05-0.233-0.05-0.2
					c-0.1-0.066-0.233-0.05-0.4,0.051c-0.167,0.066-0.267,0.166-0.3,0.3c-0.2-0.334-0.35-0.566-0.45-0.7
					c-0.134-0.267-0.134-0.483,0-0.65c-0.167-0.066-0.25-0.116-0.25-0.149c0-0.334,0-0.566,0-0.7c0.033-0.267,0.167-0.417,0.4-0.45
					l0.4,0.15c0.167,0,0.133-0.066-0.1-0.2c-0.267-0.066-0.417-0.083-0.45-0.05c-0.034-0.134-0.017-0.25,0.05-0.351
					c0.065-0.131,0.166-0.197,0.3-0.199c-0.133-0.002-0.2-0.052-0.2-0.15c0.3,0.2,0.417,0.184,0.35-0.05l-0.15-0.15l0.2,0.101
					c0-0.034-0.05-0.101-0.15-0.2c-0.067-0.066-0.05-0.101,0.05-0.101l0.2,0.15c-0.2-0.366-0.2-0.533,0-0.5l0.3,0.15
					c0.033-0.034,0.033-0.084,0-0.15c-0.064-0.064-0.131-0.098-0.2-0.1c0.367,0,0.583,0.033,0.65,0.1
					c-0.233-0.667-0.034-1.083,0.6-1.25l0.05,0.15c0.033,0.033,0.05,0,0.05-0.1c-0.066-0.1-0.066-0.15,0-0.15l0.25,0.5
					c0.133,0.067,0.167-0.083,0.1-0.45c0,0.1-0.033,0.05-0.1-0.15h0.15c0.033-0.033,0.033-0.117,0-0.25l0.2,0.5V30.4
					c0.067,0.1,0.117,0.283,0.15,0.55c0.034,0.267,0.1,0.467,0.2,0.6l0.05-0.05c0.034,0.1,0.067,0.217,0.1,0.35
					c0,0.067,0.033,0.117,0.1,0.15c-0.1-0.467-0.184-0.733-0.25-0.8l-0.1-0.45L13.6,30.6c0.033,0,0.05-0.034,0.05-0.1
					c0-0.1,0.033-0.15,0.1-0.15c0.033,0.033,0.033,0.083,0,0.15c-0.1,0.033-0.117,0.1-0.05,0.2c0.066,0.1,0.133,0.1,0.2,0
					c0.033-0.1,0.067-0.15,0.1-0.15c-0.167-0.1-0.184-0.283-0.05-0.55c0.066,0.033,0.1,0.117,0.1,0.25c-0.033,0.066,0,0.1,0.1,0.1
					l0.1-0.3c0-0.1-0.033-0.167-0.1-0.2c0-0.167,0.05-0.217,0.15-0.15c0.1,0.033,0.167,0,0.2-0.1c0.033,0.066,0.017,0.233-0.05,0.5
					c-0.034,0.2,0,0.333,0.1,0.4c0-0.1,0.05-0.233,0.15-0.4c0.1-0.167,0.116-0.333,0.05-0.5c0.1,0.1,0.117,0.283,0.05,0.55
					c0.034,0.033,0.117-0.017,0.25-0.15c0.134-0.1,0.184-0.033,0.15,0.2l0.1-0.3c0.066,0.2,0.101,0.333,0.101,0.4
					c0.066,0.034,0.183,0.017,0.35-0.05c0.1,0,0.116,0.083,0.05,0.25c0.2,0.066,0.316-0.017,0.351-0.25
					c-0.034-0.067-0.101-0.083-0.2-0.05c-0.066,0-0.084-0.083-0.05-0.25c0,0.133,0.066,0.183,0.199,0.15
					c0.063-0.031,0.154-0.073,0.275-0.125c0.183-0.379,0.208-0.754,0.075-1.125v-0.2c-0.018-0.035-0.034-0.068-0.05-0.1
					c-0.344-0.059-0.644,0.008-0.9,0.2c-0.1-0.033-0.3,0.1-0.6,0.4L13,29.1c-0.567-0.1-0.967-0.25-1.2-0.45
					c-0.333-0.267-0.55-0.617-0.65-1.05c-0.1-0.534-0.167-0.883-0.2-1.05l0.5,0.15c0.366,0.133,0.6,0.267,0.7,0.4
					c0.333,0.133,0.6,0.25,0.8,0.35c0.333,0.066,0.517-0.034,0.55-0.3c0.133,0.3,0.2,0.4,0.2,0.3c0.033-0.667,0.483-0.8,1.35-0.4
					l0.05,0.15c0.067,0.033,0.101-0.1,0.101-0.4l0.1,0.25c-0.033-0.1-0.033-0.183,0-0.25c0.033-0.033,0.05-0.083,0.05-0.15l0.25,0.4
					l-0.1-0.3c-0.066-0.3-0.033-0.434,0.1-0.4C15.767,26.383,15.85,26.333,15.85,26.2z M17.225,33.475l0.125-0.05
					c-0.021-0.029-0.047-0.063-0.074-0.1c-0.034,0.016-0.067,0.032-0.101,0.05C17.185,33.411,17.201,33.444,17.225,33.475z"/>
				<path style="fill-rule:evenodd;clip-rule:evenodd;fill:#825F3E;" d="M17.15,31c0-0.067-0.017-0.083-0.051-0.05
					c0-0.1,0.067-0.15,0.2-0.15L17.15,31z"/>
				<path style="fill-rule:evenodd;clip-rule:evenodd;fill:#825F3E;" d="M19,32.15c-0.033-0.067-0.017-0.084,0.05-0.051
					c0.033,0.034,0.066,0.067,0.101,0.101C19.15,32.233,19.1,32.217,19,32.15z"/>
			</g>
		</g>
		<g>
			<g>
				<path style="fill-rule:evenodd;clip-rule:evenodd;fill:#825F3E;" d="M17.8,20c-0.033,0.033,0,0.167,0.101,0.4h-0.15
					c0.134,0.003,0.2,0.07,0.2,0.2c0,0.167,0.05,0.267,0.149,0.3c-0.066,0.3-0.183,0.583-0.35,0.85
					c-0.161,0.283-0.337,0.516-0.525,0.7c-0.035,0.036-0.068,0.069-0.1,0.1c0.021,0.033,0.047,0.066,0.075,0.1l0.075,0.025
					c0.044,0.089,0.052,0.147,0.024,0.175c-0.033-0.025-0.066-0.05-0.1-0.075c0.125,0.117,0.125,0.175,0,0.175
					c-0.101-0.067-0.134-0.034-0.101,0.1c0.067,0.133,0.084,0.2,0.051,0.2c-0.168-0.205-0.284-0.354-0.351-0.45
					c-0.04,0.026-0.081,0.051-0.125,0.075c0.09,0.105,0.198,0.23,0.325,0.375l-0.2-0.15c0.2,0.267,0.267,0.4,0.2,0.4l-0.4,0.2
					L16.4,23.55c0.133,0.167,0.183,0.284,0.149,0.35c-0.066,0.067-0.083,0.117-0.05,0.15c-0.066,0-0.134,0.05-0.2,0.15
					c-0.033,0.1-0.1,0.1-0.2,0c-0.133,0.433-0.283,0.683-0.449,0.75l-0.15-0.225l-0.2-0.175c0.033,0.034,0.134,0.217,0.3,0.55
					C15.4,25,15.333,25.15,15.4,25.55l-0.15-0.2c0.066,0.2,0.05,0.3-0.05,0.3c-0.134-0.033-0.233-0.05-0.3-0.05l-0.25-0.25
					c0.067,0.167,0.1,0.4,0.1,0.7c-0.1,0.067-0.25,0.034-0.45-0.1c-0.033,0.267-0.167,0.45-0.4,0.55
					c-0.367,0.167-0.583,0.283-0.65,0.35l-0.05-0.3c-0.167,0.3-0.434,0.417-0.8,0.35c-0.467-0.066-0.75-0.1-0.85-0.1l0.2-0.45
					c-0.033-0.067-0.1-0.067-0.2,0c-0.1,0.1-0.183,0.216-0.25,0.35c0-0.034-0.083-0.067-0.25-0.1c-0.1,0-0.133-0.083-0.1-0.25
					c-0.034-0.067-0.083-0.067-0.15,0c-0.133,0.066-0.216,0.1-0.25,0.1c-0.059-0.148-0.192-0.298-0.4-0.45
					c0.1-0.059,0.15-0.143,0.15-0.25h-0.1l-0.1-0.1L9.8,25.9c0-0.1-0.1-0.267-0.3-0.5c-0.233-0.167-0.3-0.35-0.2-0.55
					C9.267,24.883,9.167,24.9,9,24.9c-0.033-0.1-0.05-0.267-0.05-0.5c0-0.2-0.05-0.333-0.15-0.4c0.2,0,0.3-0.033,0.3-0.1
					c-0.133,0.033-0.233,0.017-0.3-0.05c-0.133-0.2-0.133-0.434,0-0.7c0.2-0.333,0.3-0.517,0.3-0.55C9,22.267,9.133,21.733,9.5,21
					l0.1,0.05c-0.1-0.1-0.067-0.183,0.1-0.25c0.133-0.033,0.116-0.133-0.05-0.3c0.033,0,0.083,0,0.15,0
					c0.033-0.033,0.083-0.016,0.15,0.05c-0.065-0.067-0.031-0.134,0.1-0.2c0.122-0.024,0.172-0.075,0.15-0.15
					c0.104-0.014,0.171-0.064,0.2-0.15c0.033-0.1,0.083-0.15,0.15-0.15l0.15,0.15c0.066,0.034,0.066-0.017,0-0.15
					c-0.067-0.1-0.017-0.083,0.15,0.05c0.033-0.034-0.034-0.1-0.2-0.2c0.167-0.033,0.283-0.167,0.35-0.4
					c0.1-0.267,0.167-0.467,0.2-0.6c0.115,0.023,0.232,0.082,0.35,0.175c-0.022-0.272-0.139-0.514-0.35-0.725l0.95-0.075
					c-0.02-0.072-0.053-0.147-0.1-0.225l0.7-1c0.267-0.4,0.533-0.717,0.8-0.95l2.9-1.8l0.899,2.7c0.101,0.3,0.284,0.7,0.551,1.2
					c0.199,0.5,0.283,1.017,0.25,1.55C17.917,19.8,17.8,19.933,17.8,20z M15.4,20.475l0.05,0.025l-0.05-0.05
					c0.06-0.006,0.077-0.023,0.05-0.05h0.05c-0.033-0.033-0.05-0.066-0.05-0.1h-0.2c0.2-0.033,0.4-0.017,0.6,0.05
					c-0.199-0.167-0.366-0.5-0.5-1l0.301-0.2c-0.101-0.066-0.2-0.083-0.301-0.05L15.5,19c0.1-0.1,0.017-0.117-0.25-0.05l0.325-0.1
					c-0.096,0.026-0.221-0.007-0.375-0.1l0.175-0.05c-0.114,0.029-0.156,0.012-0.125-0.05c0.033-0.066,0.017-0.1-0.05-0.1l0.2-0.05
					c0.066-0.067,0.017-0.067-0.15,0c-0.167,0.033-0.233,0.033-0.2,0l0.25-0.1c-0.166,0.033-0.283,0.033-0.35,0
					c0.033,0.067,0.116,0.167,0.25,0.3c-0.233,0-0.333,0.033-0.3,0.1c-0.233-0.267-0.35-0.417-0.35-0.45l-0.2-0.2L14.25,18
					c0,0.167-0.017,0.233-0.05,0.2c0.267,0.466,0.383,0.733,0.35,0.8c-0.094-0.094-0.168-0.177-0.225-0.25l0.325,0.55
					c-0.033,0.034-0.1,0-0.2-0.1l0.15,0.2c-0.034,0.033-0.067,0.05-0.1,0.05c-0.033,0.033-0.117-0.017-0.25-0.15l-0.15-0.2
					c0.033,0.1,0.033,0.167,0,0.2l-0.05-0.05c-0.033,0-0.017,0.05,0.05,0.15c0.033,0.1,0.1,0.184,0.2,0.25
					c0.044,0.089,0.044,0.156,0,0.2l-0.15-0.25l0.2,0.65L14.2,20c-0.1-0.033-0.15,0.033-0.15,0.2c0.013,0.05,0.013,0.083,0,0.1
					c0.082-0.007,0.132,0.026,0.15,0.1c0.033,0.133,0.1,0.167,0.2,0.1l-0.15,0.15c0.167-0.066,0.35-0.083,0.55-0.05
					c0.2,0,0.334-0.017,0.4-0.05L15.1,21c0.067-0.2,0.15-0.35,0.25-0.45c0,0.067,0.017,0.067,0.051,0V20.475z M10.15,26
					c-0.034,0.021-0.067,0.037-0.1,0.05v-0.1C10.081,25.969,10.114,25.986,10.15,26z M13.85,20.45v-0.075
					c-0.017,0.007-0.034,0.016-0.05,0.025L13.85,20.45z M13.225,22.8l0.025,0.05v-0.025L13.225,22.8z M13.025,22.65
					c-0.081-0.072-0.156-0.147-0.225-0.225c-0.021,0.021-0.105-0.021-0.25-0.125c0.034,0.034,0.034,0.05,0,0.05
					c-0.033,0.033,0.034,0.083,0.2,0.15c-0.1-0.033-0.167,0-0.2,0.1c-0.033,0.066-0.183,0.05-0.45-0.05l0.125,0.125
					c-0.063-0.025-0.139-0.067-0.225-0.125c-0.1,0-0.05,0.067,0.15,0.2c0.233,0.133,0.317,0.2,0.25,0.2
					c-0.133-0.1-0.2-0.117-0.2-0.05l0.25,0.15L11.8,22.8L12,23l-0.325-0.1c0.031,0.018,0.072,0.051,0.125,0.1
					c-0.066-0.033-0.066-0.017,0,0.05l0.3,0.05l0.25,0.1H12.1l0.2,0.1l-0.2-0.05c-0.534-0.267-0.6-0.267-0.2,0
					c0.024,0.004,0.049,0.004,0.075,0L11.85,23.3l0.25,0.05L12,23.3c0.167,0.034,0.3,0.067,0.4,0.1l-0.25,0.05h0.05
					c0,0.028,0.05,0.037,0.15,0.025c-0.14,0.024-0.357,0.066-0.65,0.125l0.6-0.075h0.025L12.4,23.5L12,23.9l0.15-0.1l0.3-0.3
					c0.073-0.074,0.124-0.115,0.15-0.125l-0.05,0.075c-0.29,0.356-0.323,0.423-0.1,0.2l0.1-0.15l0.05-0.05l-0.05,0.1
					c0.003,0.028,0.003,0.053,0,0.075c-0.019,0.079-0.036,0.17-0.05,0.275l0.15-0.5v-0.2l0.05,0.55v-0.5
					c0.033,0.1,0.033,0.033,0-0.2l0.075,0.425c0.087,0.263,0.162,0.638,0.225,1.125c0.043,0.085,0.076,0.169,0.1,0.25L13,24.3
					c0.02-0.06,0.012-0.177-0.025-0.35C12.992,23.935,13,23.868,13,23.75l-0.2-0.55l0.15,0.35c-0.066-0.265-0.117-0.415-0.15-0.45
					c0.055,0.054,0.055,0.004,0-0.15l0.3,0.75l-0.3-0.85l0.2,0.5c0.033,0.033,0.033-0.017,0-0.15l0.1,0.15l-0.1-0.3l0.15,0.3V23.2
					c0-0.067,0.033-0.017,0.1,0.15c0-0.1-0.033-0.2-0.1-0.3c0.033,0.133-0.017,0.083-0.15-0.15c0.133,0.2,0.117,0.133-0.05-0.2
					l0.1,0.15c0-0.067-0.017-0.133-0.05-0.2l0.15,0.2L13.025,22.65z M11.975,23.25H12l0.1,0.025
					C12.063,23.272,12.021,23.264,11.975,23.25z M12.25,22.7l-0.025-0.025l0.05,0.025H12.25z M12.975,23.95
					c-0.017-0.001-0.042-0.052-0.075-0.15c0.008-0.025,0.017-0.05,0.025-0.075C12.945,23.804,12.962,23.878,12.975,23.95z"/>
			</g>
		</g>
	</g>
</g>
</svg>
