<?xml version="1.0" encoding="iso-8859-1"?>
<!-- Generator: Adobe Illustrator 15.1.0, SVG Export Plug-In . SVG Version: 6.00 Build 0)  -->
<!DOCTYPE svg PUBLIC "-//W3C//DTD SVG 1.1//EN" "http://www.w3.org/Graphics/SVG/1.1/DTD/svg11.dtd">
<svg version="1.1" id="paper_talismen__x28_group_and_single_x29_"
	 xmlns="http://www.w3.org/2000/svg" xmlns:xlink="http://www.w3.org/1999/xlink" x="0px" y="0px" width="30.2px" height="46.3px"
	 viewBox="0 0 30.2 46.3" style="enable-background:new 0 0 30.2 46.3;" xml:space="preserve">
<symbol  id="FlashAICB_x2F_paper_talismen__x28_group_and_single_x29__x2F__x3C_Path_x3E__x5F_2" viewBox="0 -46.3 19.9 46.3">
	<g id="Layer_1_2_">
		<polygon style="fill-rule:evenodd;clip-rule:evenodd;fill:#FFECCD;" points="0.3,-46.3 0,-0.15 19.6,0 19.9,-46.15 		"/>
	</g>
</symbol>
<g>
	
		<use xlink:href="#FlashAICB_x2F_paper_talismen__x28_group_and_single_x29__x2F__x3C_Path_x3E__x5F_2"  width="19.9" height="46.3" y="-46.3" transform="matrix(1 0 0 -1 5.1499 0)" style="overflow:visible;opacity:0.5;enable-background:new    ;"/>
	<rect x="18.05" y="4.65" style="fill-rule:evenodd;clip-rule:evenodd;fill:#24200E;" width="12.15" height="3.25"/>
	<rect y="4.65" style="fill-rule:evenodd;clip-rule:evenodd;fill:#24200E;" width="12.15" height="3.25"/>
</g>
<g>
	<g>
		<g>
			<path style="fill-rule:evenodd;clip-rule:evenodd;fill:#826042;" d="M13.55,28.15l0.025,0.024V28.15H13.55V28.1L13.5,28.15
				l0.05-0.101c-0.066,0.128-0.1,0.145-0.1,0.05l0.05-0.05c-0.066,0.033-0.1-0.017-0.1-0.149l0.05-0.15V27.7l-0.1,0.2
				c-0.034-0.101-0.133-0.067-0.3,0.1c0.134-0.467,0.15-0.6,0.05-0.4c-0.034,0.101-0.05,0.117-0.05,0.051l0.05-0.25L13,27.7
				c0-0.2-0.017-0.283-0.05-0.25c-0.076,0.185-0.143,0.335-0.2,0.45c-0.333,0.166-0.566,0.25-0.7,0.25c-0.267,0.066-0.466,0-0.6-0.2
				c0-0.334-0.034-0.4-0.1-0.2v-0.1l-0.05,0.3h-0.25V28.1c-0.066,0.101-0.167,0.084-0.3-0.05c-0.133-0.166-0.233-0.233-0.3-0.2
				c0-0.033-0.05-0.017-0.15,0.051c-0.066-0.2-0.15-0.351-0.25-0.45c-0.1-0.101-0.167-0.084-0.2,0.05L9.8,26.55
				c0-0.267,0.034-0.366,0.1-0.3c0.1,0.033,0.15-0.017,0.15-0.15L10.1,26.4c0.033-0.5,0.167-0.45,0.4,0.149v0.101
				c0.03,0.061,0.047,0.011,0.05-0.15v0.15l0.05-0.25l0.05,0.3v-0.2c0.034-0.233,0.067-0.316,0.1-0.25
				c0.031,0.031,0.048,0.015,0.05-0.05v0.2l0.3-0.45v0.325c0.003-0.153,0.036-0.262,0.1-0.325c0,0.166,0.017,0.133,0.05-0.101V25.9
				c0.03,0.091,0.047,0.058,0.05-0.101v0.15c0.034-0.134,0.05-0.15,0.05-0.05c0.033,0.1,0.05,0.116,0.05,0.05
				c0.038,0.037,0.063,0.037,0.075,0L11.45,26.2c0.066-0.134,0.2-0.2,0.4-0.2v0.25l0.1-0.2v0.2l0.05-0.2v0.3l0.1-0.25l-0.05,0.15
				c0.031,0.031,0.064,0.006,0.1-0.075L12.1,26.3c0.028,0.111,0.053,0.087,0.075-0.075c0.064-0.066,0.114-0.125,0.15-0.175
				c0.083-0.002,0.124-0.019,0.125-0.05c0,0.067-0.017,0.184-0.05,0.35c0.067-0.1,0.117-0.267,0.15-0.5c0,0.2,0.034,0.233,0.1,0.101
				c-0.033,0.267-0.066,0.399-0.1,0.399v0.226L12.6,26.6l0.2-0.6l-0.1,0.4l0.2-0.601L12.85,26l0.075-0.2
				c-0.005,0.056,0.003,0.139,0.025,0.25L12.9,26.2l0.05-0.101v0.051c0.063-0.095,0.096-0.187,0.1-0.275l0.1-0.175l-0.05,0.25
				l0.2-0.45l-0.05,0.2c0,0.1,0.017,0.1,0.05,0c0.064-0.064,0.081-0.047,0.05,0.05l0.05-0.15c0.034,0,0.034,0.051,0,0.15
				c0,0.1,0.017,0.083,0.05-0.05v0.05c0.133-0.267,0.2-0.283,0.2-0.05l0.1-0.3L13.7,25.6v0.075c-0.014,0.023-0.03,0.049-0.05,0.075
				l0.1-0.1v0.05c0.033-0.033,0.017,0.05-0.05,0.25l0.1-0.15v-0.05l0.1-0.2c-0.033,0.101-0.033,0.184,0,0.25
				c0.034,0.033,0.083-0.05,0.15-0.25c0,0.101,0.017,0.2,0.05,0.3c0.066-0.199,0.1-0.25,0.1-0.149l-0.05,0.1l0.05-0.05l-0.1,0.4
				c0.045-0.023,0.087-0.098,0.125-0.226c0.006,0.047,0.047,0.022,0.125-0.075l-0.1,0.25c-0.1,0.267-0.066,0.25,0.1-0.05l0.125-0.25
				c-0.042,0.097-0.034,0.13,0.025,0.101c0,0.066,0.033,0.017,0.1-0.15c0,0.066,0.033,0.116,0.1,0.15c0.066,0,0.05,0.1-0.05,0.3
				l0.075-0.075L14.65,26.3c0,0.033,0.05-0.017,0.15-0.149c0.1-0.167,0.167-0.217,0.2-0.15l-0.1,0.15L15.1,26l-0.3,0.45l0.15-0.15
				l-0.15,0.25c0.045-0.044,0.078-0.078,0.1-0.1l0.05,0.05l0.1-0.2l0.2-0.1l-0.1,0.149h0.05l-0.05,0.15l0.05-0.025L15.15,26.6
				l0.1-0.1c0.1-0.066,0.2-0.1,0.3-0.1c0.033,0,0,0.05-0.1,0.149c-0.033,0.066,0.017,0.084,0.149,0.05l-0.05,0.051h0.2l-0.45,0.3
				c0.1,0.1,0.267,0.033,0.5-0.2c-0.032,0.034-0.016,0.084,0.05,0.15c0.067,0.066,0.051,0.133-0.05,0.199h0.15
				c0,0.067,0.05,0.15,0.149,0.25c0.034,0.067-0.033,0.134-0.199,0.2h-0.275c0.081,0.002,0.106,0.019,0.075,0.05l0.35-0.05
				c0.067,0.033,0.084,0.084,0.05,0.15c0,0.033-0.05,0.066-0.149,0.1H16.1c-0.194,0.005-0.262,0.038-0.199,0.101
				c0.267,0.066,0.333,0.1,0.199,0.1H15.9c0.3,0.1,0.366,0.167,0.199,0.2l-0.25-0.05l0.25,0.1H15.7c0.333,0.233,0.45,0.434,0.35,0.6
				l-0.149-0.1l0.1,0.1c-0.161-0.032-0.278-0.082-0.35-0.149l0.199,0.2l0.101,0.05c0.033,0,0.066,0.033,0.1,0.1l-0.35-0.2l0.1,0.101
				c-0.3-0.233-0.566-0.4-0.8-0.5v0.05c-0.167-0.134-0.283-0.2-0.35-0.2l0.55,0.351c0.366,0.199,0.533,0.316,0.5,0.35
				c0.066,0.027,0.1,0.077,0.1,0.15l-0.2-0.101l0.301,0.2c0.166,0.134,0.199,0.184,0.1,0.15c-0.3-0.233-0.5-0.351-0.6-0.351
				l0.55,0.351L15.6,29.2c0.233,0.2,0.217,0.217-0.05,0.05l0.2,0.15l-0.25-0.15l0.1,0.1L15.45,29.3l0.2,0.2l0.125,0.05l0.074,0.101
				l-0.1-0.051l0.1,0.101L15.7,29.6l0.149,0.15c0.034,0.066-0.066,0.017-0.3-0.15l0.25,0.2c0.033,0.066,0.017,0.084-0.05,0.05
				L15.6,29.65l-0.3-0.15l0.351,0.3l-0.2-0.149l0.25,0.25l-0.45-0.25l-0.6-0.551c-0.033,0-0.017,0.034,0.05,0.101
				c0.233,0.166,0.483,0.399,0.75,0.7c0,0.033-0.101-0.034-0.3-0.2c-0.147-0.118-0.164-0.118-0.051,0c0,0.033-0.033,0.033-0.1,0
				l0.1,0.1h-0.05c0.017,0.017,0.05,0.05,0.101,0.101L15.4,30.1c-0.067,0-0.067,0.034,0,0.101l0.1,0.149l-0.25-0.199
				c0.1,0,0.05-0.084-0.15-0.25c0.067,0.1,0.067,0.133,0,0.1l-0.05-0.05l-0.175-0.125c-0.033-0.05-0.092-0.125-0.175-0.226
				l-0.5-0.35l0.4,0.4l0.15,0.25l-0.25-0.25c0,0.066-0.05,0.1-0.15,0.1l-0.2-0.2L14.3,29.9c-0.066-0.067-0.1-0.084-0.1-0.051
				c0,0.034,0,0.084,0,0.15c-0.233-0.233-0.367-0.35-0.4-0.35l0.1,0.1c0.035,0.036,0.068,0.103,0.1,0.2l-0.2-0.25l-0.025,0.024
				L13.65,29.55c-0.066-0.066-0.1-0.066-0.1,0l0.05,0.101l0.15,0.149c0.066,0.101,0.05,0.117-0.05,0.05L13.55,29.7v-0.05l-0.275-0.4
				c-0.069-0.1-0.077-0.15-0.025-0.15c0.105,0.105,0.13,0.113,0.075,0.025l0.225,0.325l0.1,0.05l-0.35-0.45l0.15,0.101
				c-0.167-0.167-0.233-0.25-0.2-0.25h0.2l0.1,0.1c-0.033-0.1-0.083-0.184-0.15-0.25c0.034,0,0.05-0.017,0.05-0.05
				s0.05-0.017,0.15,0.05c-0.067-0.2-0.067-0.316,0-0.35l0.2,0.199c0.067,0.067,0.1,0.084,0.1,0.051l-0.3-0.301
				c0.187,0.125,0.17,0.075-0.05-0.149l0.1,0.05l-0.075-0.075L13.55,28.2V28.15z M12.325,26.05H12.3L12.35,26
				C12.342,26.016,12.334,26.032,12.325,26.05z M12.15,26.25l0.05-0.15c-0.006,0.045-0.014,0.086-0.025,0.125L12.15,26.25z
				 M13.05,25.875L13,25.95l0.05-0.101V25.875z M14.725,26.125l0.025-0.05V26.1L14.725,26.125z"/>
		</g>
	</g>
	<g>
		<g>
			<path style="fill-rule:evenodd;clip-rule:evenodd;fill:#826042;" d="M18.8,31.3l0.05-0.1c-0.033,0.063-0.05,0.063-0.05,0h-0.024
				c-0.079,0.016-0.104-0.034-0.075-0.15l0.05-0.149c-0.097,0.226-0.113,0.218-0.05-0.025l-0.05,0.175
				c-0.033-0.066-0.084-0.083-0.15-0.05l-0.2,0.15l0.101-0.4c-0.033,0.1-0.051,0.116-0.051,0.05c-0.033,0.101-0.033,0.017,0-0.25
				l-0.05,0.3c0-0.199-0.017-0.267-0.05-0.199l0.05-0.15c-0.1,0.233-0.2,0.434-0.3,0.6c-0.3,0.134-0.517,0.217-0.65,0.25
				c-0.066-0.033-0.166-0.05-0.3-0.05c-0.133,0-0.233-0.05-0.3-0.149c-0.033-0.233-0.066-0.317-0.1-0.25
				C16.645,31.033,16.628,31.1,16.6,31.1h-0.25v0.15c-0.066,0.1-0.166,0.083-0.3-0.05c-0.133-0.167-0.233-0.233-0.3-0.2
				c-0.033-0.033-0.066-0.05-0.1-0.05c-0.033,0.033-0.051,0.066-0.051,0.1c-0.267-0.467-0.416-0.6-0.449-0.399
				c-0.033,0-0.067-0.134-0.101-0.4s-0.033-0.434,0-0.5c0.033-0.267,0.084-0.384,0.15-0.35c0.1,0.033,0.149-0.017,0.149-0.15
				l0.051,0.3c0.033-0.5,0.166-0.45,0.399,0.15v0.149l0.05-0.25v0.2l0.051-0.25l0.05,0.351v-0.25c0.033-0.233,0.066-0.317,0.1-0.25
				c0.031,0.063,0.048,0.063,0.05,0v0.149c0.034-0.1,0.134-0.233,0.301-0.399v0.3l0.05-0.351c0,0.167,0.033,0.134,0.1-0.1v0.05
				c0,0.134,0.017,0.084,0.05-0.149V29.1c0.034-0.133,0.051-0.149,0.051-0.05c0.032,0.064,0.049,0.064,0.05,0v0.05
				c0.033,0.101,0.066,0.051,0.1-0.149l-0.05,0.45c0.1-0.167,0.233-0.25,0.4-0.25v0.3l0.1-0.2v0.15l0.05-0.2l-0.05,0.3
				c0.033-0.066,0.083-0.15,0.15-0.25L17.35,29.4c0.031,0.03,0.064,0.006,0.101-0.075L17.4,29.45c0,0.119,0.017,0.119,0.05,0
				l0.149-0.3v0.05c0.067,0,0.117-0.017,0.15-0.05c0,0.066-0.017,0.183-0.05,0.35c0.066-0.066,0.116-0.233,0.149-0.5
				c0,0.2,0.034,0.233,0.101,0.1L17.8,29.7v0.149l0.05-0.1l0.2-0.6L18,29.6l0.15-0.649c0.031,0,0.031,0.059,0,0.175l0.05-0.175
				v0.399l0.05-0.1v0.05l0.1-0.3l-0.05,0.1c0.033-0.166,0.084-0.25,0.15-0.25L18.35,29.1L18.6,28.7l-0.1,0.2
				c0,0.066,0.033,0.05,0.1-0.051c0.064-0.063,0.081-0.047,0.051,0.051l0.05-0.15c-0.033,0.167-0.033,0.217,0,0.15v0.05
				c0.032-0.032,0.049-0.065,0.05-0.101V28.9c0.2-0.367,0.25-0.384,0.15-0.051l0.149-0.3L19,28.75
				c-0.01,0.028-0.018,0.054-0.025,0.075C18.968,28.875,18.977,28.9,19,28.9l0.05-0.101v0.05L19,29.1l0.05-0.149l0.05-0.05
				c0.025,0.024,0.05-0.009,0.075-0.101c-0.017,0.077-0.024,0.127-0.024,0.15L19.1,29.2l0.101-0.25
				c0.033,0.033,0.083-0.05,0.149-0.25V29l0.15-0.15l-0.05,0.101c0,0.066,0.017,0.066,0.05,0l-0.1,0.35l0.199-0.45
				c-0.1,0.267-0.083,0.317,0.051,0.15l-0.101,0.25c-0.1,0.267-0.066,0.25,0.101-0.05l0.1-0.3c-0.033,0.133-0.033,0.183,0,0.149
				s0.066-0.033,0.1,0L19.9,28.9c0,0.066,0.033,0.116,0.1,0.149c0.033,0,0.017,0.101-0.05,0.3l0.075-0.074L19.95,29.45
				c-0.033,0.133,0.066,0.033,0.3-0.3L20.2,29.3l0.149-0.149c0.034,0.033-0.05,0.183-0.25,0.449l0.15-0.149l-0.125,0.225
				c0.021-0.034,0.045-0.059,0.075-0.075c0,0.034,0.017,0.051,0.05,0.051l0.1-0.2l0.15-0.101c-0.033,0.067-0.05,0.134-0.05,0.2
				c0,0.033,0.05-0.017,0.149-0.149c-0.033,0.1-0.066,0.149-0.1,0.149c-0.133,0.134-0.15,0.167-0.05,0.101l0.05-0.025l-0.05,0.125
				l0.1-0.1c0.101-0.067,0.2-0.101,0.3-0.101l-0.1,0.2c-0.033,0.066,0.017,0.066,0.15,0L20.85,29.8H21c-0.066,0.101-0.2,0.2-0.4,0.3
				l0.5-0.149c-0.033,0.033-0.017,0.083,0.051,0.149c0.066,0.034,0.05,0.084-0.051,0.15h0.15c0.2,0.2,0.184,0.35-0.05,0.45H20.85
				L21,30.75l0.35-0.05c0.134,0.133,0.101,0.217-0.1,0.25h0.125c-0.238,0.006-0.297,0.039-0.175,0.1l0.2,0.05h-0.2l0.2,0.051h-0.2
				c0.399,0.133,0.467,0.199,0.2,0.199l-0.25-0.05c0,0.066,0.083,0.101,0.25,0.101c-0.101,0.033-0.233,0.033-0.4,0
				c0.367,0.233,0.467,0.433,0.3,0.6c0.046,0.033,0.046,0.05,0,0.05l-0.399-0.2c0.133,0.101,0.217,0.167,0.25,0.2l0.1,0.05
				c0.033,0.034,0.05,0.067,0.05,0.101c-0.094,0-0.202-0.059-0.325-0.175L21.05,32.1l-0.8-0.449h0.05l-0.35-0.15l0.55,0.3
				c0.333,0.2,0.483,0.316,0.45,0.351L20.75,32c0.066,0.066,0.066,0.1,0,0.1c0.068,0.001,0.185,0.068,0.35,0.2
				c-0.133-0.1-0.216-0.133-0.25-0.1l0.301,0.2c0.199,0.133,0.25,0.183,0.149,0.149c-0.3-0.233-0.5-0.35-0.6-0.35l0.2,0.149
				c0.233,0.2,0.217,0.217-0.051,0.051l0.2,0.149L20.8,32.4l0.05,0.1l-0.1-0.05c0,0.066,0.05,0.133,0.15,0.2
				c0.069,0.022,0.119,0.04,0.149,0.05l0.101,0.1l-0.101-0.05l0.101,0.15c0.033,0.066-0.067,0.017-0.301-0.15l0.25,0.2
				c0.034,0.066,0.018,0.083-0.05,0.05L20.9,32.8L20.6,32.65l0.351,0.3l-0.2-0.101l0.2,0.2l-0.4-0.25l-0.25-0.25v0.05l-0.35-0.3
				c0,0.033,0.017,0.066,0.05,0.101l0.75,0.649c0,0.033-0.1-0.033-0.3-0.2c-0.178-0.118-0.211-0.118-0.101,0V32.9l0.051,0.05
				c0,0.033-0.033,0.033-0.101,0l0.101,0.1c0.066,0.101,0.066,0.134,0,0.101L20.35,33.1L20.15,32.95
				c0.033,0.066,0.1,0.149,0.199,0.25l0.101,0.2c-0.033,0.033-0.117-0.034-0.25-0.2c0.1,0.033,0.083-0.017-0.05-0.15
				c0.033,0-0.033-0.083-0.2-0.25L19.5,32.4l0.05,0.1l0.351,0.3c-0.033,0,0,0.084,0.1,0.25l-0.2-0.25
				c0,0.066-0.05,0.101-0.149,0.101c0.199,0.166,0.283,0.267,0.25,0.3L20.1,33.35c0.101,0.101,0.084,0.117-0.05,0.051
				c-0.2-0.233-0.35-0.417-0.45-0.551c0.034,0.101-0.033,0.067-0.199-0.1l0.199,0.3c-0.1-0.066-0.149-0.066-0.149,0l0.05,0.101
				L19.1,32.8L19.2,32.9c0.034,0.035,0.067,0.118,0.1,0.25l-0.25-0.301l0.05,0.101C19,32.85,18.95,32.767,18.95,32.7
				c-0.066-0.066-0.101-0.066-0.101,0c0,0.033,0.018,0.066,0.051,0.1l0.149,0.15c0.033,0.1,0.017,0.133-0.05,0.1L18.85,32.9
				c-0.018-0.019-0.034-0.035-0.05-0.051V32.9l-0.25-0.45L18.5,32.3l0.05,0.075c-0.044-0.072-0.044-0.098,0-0.075
				c0.134,0.134,0.117,0.084-0.05-0.149l0.35,0.449l0.101,0.051L18.6,32.2l0.15,0.149c-0.167-0.199-0.233-0.3-0.2-0.3h0.2l0.1,0.15
				C18.816,32.1,18.767,32,18.7,31.9c0.033,0.033,0.05,0.017,0.05-0.051c0-0.033,0.05-0.017,0.15,0.051
				c-0.067-0.2-0.067-0.301,0-0.301l0.149,0.125C19,31.658,18.95,31.583,18.9,31.5l-0.075-0.15h0.024v-0.024l0.025-0.025H18.85
				v0.025L18.825,31.3l0.024-0.05L18.8,31.3h0.025v0.025L18.8,31.3z M20.5,29.6l0.2-0.1c-0.081,0.054-0.147,0.096-0.2,0.125V29.6z"
				/>
		</g>
	</g>
	<g>
		<g>
			<path style="fill-rule:evenodd;clip-rule:evenodd;fill:#826042;" d="M16.8,22c-0.024,0-0.049,0.008-0.075,0.025L16.7,22.05
				c-0.036,0.039-0.069,0.088-0.101,0.15c-0.056,0.075-0.114,0.125-0.175,0.15L16.35,22.2c0.124-0.109,0.158-0.185,0.101-0.225
				c0.039,0.003,0.089-0.005,0.149-0.025c0.087-0.058,0.145-0.049,0.176,0.025L16.8,22z M16.5,22.4c0.033,0.035,0.05,0.102,0.05,0.2
				c0,0.033,0.067,0.017,0.2-0.05c-0.033-0.033,0.033-0.15,0.2-0.35l0.2,0.05L17,22.35c0.033,0.1,0.083,0.117,0.15,0.05
				c0.1-0.033,0.166-0.017,0.199,0.05L17.15,22.7c-0.067,0.033-0.134,0-0.2-0.1c-0.033-0.067-0.101-0.05-0.2,0.05
				c0,0.033,0.05,0.067,0.15,0.1c0.066,0,0.1,0.033,0.1,0.1l-0.1-0.05c-0.067,0.1-0.134,0.167-0.2,0.2
				c-0.066,0.133-0.033,0.183,0.1,0.15c0.067,0,0.167-0.05,0.3-0.15c0.067,0.1,0.184,0.183,0.351,0.25
				c0.033,0.133-0.066,0.2-0.3,0.2c0.066-0.067,0.083-0.133,0.05-0.2c-0.066-0.067-0.167-0.083-0.3-0.05
				c-0.101,0.066-0.167,0.066-0.2,0c0-0.034-0.066-0.034-0.2,0c0.033,0.033-0.116,0.167-0.45,0.4h0.15l0.399-0.2
				c0,0.133,0.134,0.2,0.4,0.2c-0.132,0.165-0.249,0.199-0.35,0.1c0.085,0.086,0.135,0.22,0.149,0.399l0.075,0.051l0.1,0.1
				l-0.125,0.025l0.101,0.274c-0.101-0.133-0.167-0.133-0.2,0L17,24.7c-0.1,0.066-0.116,0.149-0.05,0.25
				c0.033,0.066,0.066,0.133,0.1,0.2c-0.3,0.066-0.467,0.116-0.5,0.149c0.233-0.033,0.3-0.017,0.2,0.05H16.7v0.15
				c0,0.031,0.017,0.057,0.05,0.075L16.6,25.55L16.7,25.6l-0.3,0.051c-0.067,0.033-0.084,0.066-0.051,0.1l0.15,0.1l0.2-0.05
				c0.1,0.066,0.1,0.184,0,0.351h-0.2l0.15,0.05c-0.21,0-0.318,0.008-0.325,0.024L16,26.1c0.066-0.033,0.217-0.017,0.45,0.051
				c0.2-0.067,0.167-0.134-0.101-0.2l0.101,0.1L16,26v0.05L15.85,25.9c0.067,0.033,0.15,0.017,0.25-0.051
				c-0.267,0-0.35-0.05-0.25-0.149c0.167-0.033,0.117-0.117-0.149-0.25c0.333,0.066,0.517,0.116,0.55,0.149
				c0.1-0.066,0.134-0.116,0.1-0.149L15.8,25.35h0.15c-0.233-0.033-0.333-0.083-0.3-0.149V25c-0.101-0.033-0.15-0.134-0.15-0.3
				c-0.066-0.066-0.1,0-0.1,0.2c0,0.199-0.017,0.283-0.051,0.25c-0.066-0.134-0.1-0.167-0.1-0.101L15.2,25.3
				c-0.066-0.033-0.134-0.2-0.2-0.5c-0.066,0.066-0.1,0.134-0.1,0.2l-0.075-0.15L14.8,24.9c0,0.033-0.017,0.05-0.05,0.05V24.9
				c0-0.034-0.033-0.017-0.1,0.05l0.2,0.2L14.8,25.35c-0.033-0.1-0.1-0.149-0.2-0.149v0.2c-0.067,0-0.1-0.051-0.1-0.15
				c0.033,0.066,0.05,0.066,0.05,0c-0.066-0.134-0.1-0.167-0.1-0.1c0.066,0.267,0.066,0.366,0,0.3L14.4,25.2l-0.1-0.05l0.05,0.149
				l-0.05-0.05c0.034,0.134,0.017,0.233-0.05,0.3c-0.1-0.066-0.167-0.1-0.2-0.1V25.4c-0.033-0.034-0.083,0.017-0.15,0.149V25.5
				l-0.1,0.2c-0.133-0.5-0.216-0.667-0.25-0.5c-0.033,0.033-0.05,0.116-0.05,0.25c0.033,0.133,0.066,0.217,0.1,0.25
				c-0.067-0.033-0.15,0-0.25,0.1c-0.133,0.033-0.233,0-0.3-0.1L13,25.85c-0.233,0.034-0.4,0.051-0.5,0.051
				c-0.233,0-0.4-0.101-0.5-0.301c0.066-0.033,0.1-0.133,0.1-0.3c0-0.133-0.05-0.1-0.15,0.101c-0.067,0.166-0.067,0.283,0,0.35
				c-0.167,0-0.333-0.05-0.5-0.15c-0.2-0.143-0.316-0.284-0.35-0.425c-0.004,0.061-0.071,0.053-0.2-0.024
				c0.2-0.134,0.2-0.334,0-0.601h-0.2l0.15-0.2c-0.067-0.033-0.133-0.05-0.2-0.05c-0.066-0.066-0.066-0.149,0-0.25l0.2-0.05
				c-0.233-0.333-0.267-0.567-0.1-0.7h0.3c0-0.167-0.066-0.233-0.2-0.2c0.267-0.133,0.466-0.184,0.6-0.15
				c-0.134-0.534,0.083-0.917,0.65-1.15l0.05,0.15c0.089,0.029,0.114-0.021,0.075-0.15c0.033,0.094,0.091,0.211,0.175,0.35
				c0.1,0.033,0.133-0.083,0.1-0.35c0,0.067-0.033,0.034-0.1-0.1c0.167,0.033,0.217-0.034,0.15-0.2c0.067,0.067,0.117,0.2,0.15,0.4
				v-0.15c0.066,0.067,0.1,0.2,0.1,0.4c0,0.2,0.05,0.367,0.15,0.5L13,22.6c0.033,0.066,0.05,0.15,0.05,0.25
				c0,0.066,0.034,0.1,0.1,0.1c0-0.267-0.066-0.467-0.2-0.6C13.017,22.317,13.033,22.2,13,22c-0.033-0.167-0.033-0.267,0-0.3
				c0.066,0.1,0.066,0.183,0,0.25c0.066,0.133,0.133,0.1,0.2-0.1c-0.067-0.033-0.1-0.167-0.1-0.4c0.097,0.064,0.147,0.147,0.15,0.25
				c0-0.233-0.017-0.35-0.05-0.35c0-0.133,0.017-0.184,0.05-0.15c0.066,0.033,0.1,0.017,0.1-0.05c0.033,0.067,0.05,0.184,0.05,0.35
				s0.034,0.267,0.1,0.3c0.1-0.233,0.1-0.466,0-0.7c0.066,0.066,0.1,0.2,0.1,0.4c0.033,0.033,0.066,0,0.1-0.1
				c0.033-0.1,0.066-0.066,0.1,0.1v-0.25l0.1,0.25l0.15-0.1c0.067-0.033,0.1,0.017,0.1,0.15c0.133-0.033,0.167-0.133,0.1-0.3
				c-0.061,0.121-0.119,0.087-0.175-0.1c0.028,0.088,0.07,0.105,0.125,0.05c0-0.034,0.033-0.1,0.1-0.2v0.1
				c0.1,0,0.167-0.05,0.2-0.15v0.2l0.05-0.2c0.1-0.034,0.15,0.017,0.15,0.15s0.017,0.2,0.05,0.2l-0.1,0.15c0-0.034,0.05,0,0.15,0.1
				L15,21c0.066,0,0.1,0.017,0.1,0.05v0.05l-0.149,0.15c0,0.2,0.05,0.317,0.149,0.35c0.268-0.133,0.351-0.267,0.25-0.4
				c0.034,0,0.051,0.033,0.051,0.1c0,0.067-0.017,0.117-0.051,0.15c0.067,0,0.117-0.034,0.15-0.1c0-0.067,0.033-0.117,0.1-0.15
				l0.101,0.6l-0.25,0.25h0.1c-0.1,0.067-0.149,0.133-0.149,0.2c0,0.044-0.009,0.086-0.025,0.125l0.1,0.1L15.5,22.45
				c0.033-0.167,0.134-0.3,0.3-0.4c0.167-0.133,0.283-0.25,0.351-0.35c0.1,0.033,0.083,0.183-0.051,0.45
				c-0.022,0.057-0.031,0.099-0.024,0.125c0.016,0.042,0.074,0.042,0.175,0V22.3c-0.033,0.1-0.083,0.217-0.15,0.35
				c0.101,0.1,0.2,0.083,0.301-0.05C16.498,22.501,16.532,22.435,16.5,22.4z M16.35,22.3c0.011-0.037,0.036-0.02,0.075,0.05
				c-0.04,0.033-0.081,0.05-0.125,0.05c-0.015,0.019-0.031,0.019-0.05,0v-0.1C16.297,22.3,16.33,22.3,16.35,22.3z M17.4,24
				c0.1,0.033,0.1,0.066,0,0.1c-0.019,0.019-0.035,0.035-0.051,0.051v0.024c-0.004,0.182-0.054,0.257-0.149,0.226v-0.15l-0.101,0.1
				l-0.125-0.1l0.125-0.025l0.101-0.05c0.075-0.214,0.226-0.289,0.45-0.225L17.4,24z M18.45,23.575c0-0.023,0-0.048,0-0.075
				l0.024,0.05L18.45,23.575z"/>
			<polygon style="fill-rule:evenodd;clip-rule:evenodd;fill:#826042;" points="15.2,21.35 15.1,21.3 15.2,21.15 			"/>
		</g>
	</g>
	<g>
		<g>
			<path style="fill-rule:evenodd;clip-rule:evenodd;fill:#826042;" d="M10.6,12c0.133,0,0.15-0.083,0.05-0.25
				c0.034,0.033,0.1,0.067,0.2,0.1c-0.034-0.067,0.017-0.117,0.15-0.15c0.069,0,0.103-0.034,0.1-0.1c0.1,0.033,0.167,0,0.2-0.1
				c0.067-0.067,0.134-0.083,0.2-0.05l0.05,0.15c0.034,0.033,0.05,0,0.05-0.1c-0.034-0.1,0-0.083,0.1,0.05
				c0.033-0.033,0-0.1-0.1-0.2c0.133,0,0.267-0.083,0.4-0.25c0.066-0.067,0.167-0.2,0.3-0.4l0.05,0.025
				c-0.025-0.042-0.059-0.083-0.1-0.125c0.032,0.032,0.349,0.016,0.95-0.05c-0.007-0.092-0.023-0.192-0.05-0.3
				c1.034-0.733,1.567-1.117,1.6-1.15L15,9.05l1.7-0.55L17.35,10c0.101,0.233,0.233,0.533,0.4,0.9c0.134,0.367,0.184,0.767,0.15,1.2
				c-0.167,0.133-0.25,0.233-0.25,0.3c-0.033,0.033-0.033,0.184,0,0.45L17.6,12.825c0.061,0.043,0.077,0.118,0.051,0.225
				c-0.033,0.167-0.017,0.284,0.05,0.35c-0.224,0.383-0.415,0.625-0.575,0.725l-0.05,0.05c-0.017,0.009-0.033,0.017-0.05,0.025
				c0.022,0.07,0.047,0.153,0.074,0.25h0.051c0.029,0.1,0.029,0.15,0,0.15L17,14.4c0.1,0.2,0.1,0.3,0,0.3
				c-0.066-0.1-0.083-0.1-0.05,0c0,0.133-0.017,0.2-0.05,0.2l-0.176-0.475c-0.032,0.016-0.065,0.033-0.1,0.05L16.8,14.85l-0.1-0.15
				c0.066,0.233,0.083,0.35,0.05,0.35l-0.4,0.05l-0.1-0.15c0.1,0.267,0.083,0.4-0.05,0.4c-0.066-0.033-0.134,0-0.2,0.1
				c-0.033,0.033-0.083,0-0.15-0.1c-0.166,0.3-0.35,0.45-0.55,0.45l-0.05-0.2c0.016,0.07-0.018,0.036-0.1-0.1
				c0.033,0.067,0.05,0.2,0.05,0.4c-0.101-0.1-0.184,0.017-0.25,0.35l-0.05-0.2c0,0.133-0.033,0.2-0.1,0.2
				c-0.1-0.067-0.167-0.1-0.2-0.1c-0.067-0.167-0.117-0.233-0.15-0.2c0,0.066-0.034,0.233-0.1,0.5l-0.3-0.15
				c-0.066,0.167-0.183,0.284-0.35,0.35c-0.267,0.033-0.434,0.083-0.5,0.15v-0.2c-0.134,0.167-0.317,0.233-0.55,0.2
				c-0.267-0.066-0.433-0.083-0.5-0.05l0.1-0.35c-0.033-0.066-0.083-0.066-0.15,0c-0.067,0.067-0.117,0.167-0.15,0.3
				c0-0.034-0.05-0.05-0.15-0.05c-0.1,0-0.133-0.066-0.1-0.2c-0.1,0.1-0.184,0.15-0.25,0.15c-0.088-0.117-0.213-0.208-0.375-0.275
				c0.112-0.117,0.138-0.175,0.075-0.175c-0.066-0.033-0.117-0.05-0.15-0.05c-0.033-0.033-0.1,0.033-0.2,0.2
				c0-0.1-0.083-0.183-0.25-0.25c-0.167-0.1-0.233-0.216-0.2-0.35l-0.15,0.15c-0.1-0.367-0.25-0.583-0.45-0.65
				c0.167-0.034,0.233-0.083,0.2-0.15c-0.1,0.034-0.184,0.034-0.25,0c-0.167-0.133-0.217-0.367-0.15-0.7l0.15-0.7
				c-0.034-0.4,0.2-0.9,0.7-1.5l0.05,0.05C10.417,12.1,10.467,12.033,10.6,12z M15.9,11.45c0.066-0.067,0-0.083-0.2-0.05l0.25-0.05
				c-0.066,0-0.167-0.033-0.3-0.1l0.149-0.025c-0.066,0.002-0.1-0.023-0.1-0.075c0.033-0.033,0.017-0.05-0.05-0.05v-0.05
				c-0.033,0.034-0.101,0.083-0.2,0.15c-0.101-0.233-0.167-0.333-0.2-0.3c0.033,0.1,0.033,0.2,0,0.3c0,0.033,0.033,0.117,0.1,0.25
				c-0.165-0.066-0.248-0.066-0.25,0c0-0.068-0.051-0.202-0.149-0.4l-0.1-0.15l-0.05-0.15c-0.033,0.133-0.066,0.183-0.1,0.15
				c0.1,0.367,0.133,0.583,0.1,0.65l-0.2-0.4l0.15,0.65l-0.1-0.15l0.05,0.2c-0.1,0-0.184-0.05-0.25-0.15
				c0.033-0.067,0.017-0.133-0.05-0.2l-0.05,0.15c-0.034-0.033-0.05,0-0.05,0.1c0.034,0.067,0.067,0.133,0.1,0.2h0.025
				c0,0.083-0.025,0.15-0.075,0.2L14.3,11.9c0.026,0.154,0.026,0.287,0,0.4h-0.05v0.025L14.3,12.3l-0.025,0.025
				c0.051,0,0.093,0.009,0.125,0.025l-0.2,0.3l0.2-0.15c0.2-0.133,0.3-0.15,0.3-0.05c0.033,0.1,0.083,0.133,0.15,0.1l-0.1,0.1
				c0.133-0.033,0.283-0.033,0.45,0c0.167,0,0.283,0,0.35,0l-0.1,0.275c0.07-0.183,0.138-0.275,0.2-0.275
				c0,0.167,0.033,0.133,0.1-0.1V12.5h0.15v0.025c0.089,0.011,0.172,0.036,0.25,0.075c-0.067-0.1-0.184-0.383-0.351-0.85L16,11.6
				c-0.033-0.067-0.1-0.083-0.2-0.05L15.9,11.45z M12.8,13.25c-0.033-0.033-0.05-0.017-0.05,0.05l-0.3-0.25l0.25,0.4
				c-0.067-0.1-0.083-0.1-0.05,0c0.034,0.133,0,0.15-0.1,0.05l-0.2-0.25c0.1,0.167,0.083,0.217-0.05,0.15l0.25,0.25
				c0.034,0.133-0.017,0.117-0.15-0.05l0.1,0.2c-0.066-0.033-0.117-0.017-0.15,0.05c-0.067,0.033-0.184-0.017-0.35-0.15
				c0.033,0.033,0.066,0.083,0.1,0.15l0.025,0.025c0.073,0.088,0.106,0.146,0.1,0.175L12.3,14c0.134-0.067,0.134,0.017,0,0.25
				l-0.15,0.25c0.067-0.1,0.1-0.133,0.1-0.1l0.15-0.3c0.059-0.029,0.076,0.004,0.05,0.1c-0.104,0.203-0.087,0.236,0.05,0.1
				c0.033-0.033,0.066-0.083,0.1-0.15l-0.05,0.15c0.067-0.066,0.117-0.133,0.15-0.2v0.4c0.133-0.367,0.267-0.517,0.4-0.45v0.4
				c0.033,0.1,0.066,0,0.1-0.3c-0.034,0.1-0.05,0.067-0.05-0.1c0.063,0.094,0.096,0.068,0.1-0.075V14.2
				c0.033,0.2,0.033,0.517,0,0.95l0.05-0.05c0.026,0.13,0.026,0.239,0,0.325c0.06-0.176,0.06-0.368,0-0.575
				c0.044-0.022,0.069-0.114,0.075-0.275c0.024,0.043,0.05,0.001,0.075-0.125l-0.05-0.4l0.05,0.25v-0.35c0.033,0.066,0.033,0,0-0.2
				c0.066,0.167,0.116,0.4,0.15,0.7c0-0.175-0.017-0.342-0.05-0.5l0.05,0.2c0.031,0.062,0.047,0.037,0.05-0.075v-0.1
				c-0.052-0.07-0.103-0.145-0.15-0.225l-0.3-0.5h-0.05c-0.066,0.033-0.167,0-0.3-0.1c0.1,0.167,0.1,0.233,0,0.2L12.8,13.25z
				 M12.075,14.1l-0.05-0.025c-0.023,0.005-0.048,0.013-0.075,0.025H12.075z M12.15,14.05l0.025,0.025L12.2,14.05
				c0.022-0.033,0.022-0.05,0-0.05l-0.05,0.025l-0.025,0.025H12.15z M12.55,14.05l-0.1,0.2V14.2
				C12.48,14.16,12.514,14.11,12.55,14.05z M14.25,12.3c-0.014-0.022-0.031-0.056-0.05-0.1c-0.034-0.034-0.067,0-0.1,0.1v0.025
				C14.138,12.317,14.188,12.309,14.25,12.3z M13.775,14.125L13.8,14.2l0.025-0.025C13.808,14.159,13.792,14.142,13.775,14.125z
				 M13.375,14.575c-0.009-0.018-0.017-0.043-0.025-0.075l0.025-0.025C13.375,14.509,13.375,14.542,13.375,14.575z"/>
		</g>
	</g>
</g>
<g>
	<g>
		<g>
			<path style="fill-rule:evenodd;clip-rule:evenodd;fill:#826042;" d="M13.575,43.15L13.9,43.3l-0.275-0.225L13.6,43.1
				L13.575,43.15H13.55V43.1L13.5,43.15l0.05-0.101c-0.066,0.128-0.1,0.145-0.1,0.05l0.05-0.05c-0.066,0.033-0.1-0.017-0.1-0.149
				l0.05-0.15V42.7l-0.1,0.2c-0.034-0.101-0.133-0.067-0.3,0.1c0.134-0.467,0.15-0.6,0.05-0.4c-0.034,0.101-0.05,0.117-0.05,0.051
				l0.05-0.25L13,42.7c0-0.2-0.017-0.283-0.05-0.25c-0.076,0.185-0.143,0.335-0.2,0.45c-0.333,0.166-0.566,0.25-0.7,0.25
				c-0.267,0.066-0.466,0-0.6-0.2c0-0.334-0.034-0.4-0.1-0.2v-0.1l-0.05,0.3h-0.25V43.1c-0.066,0.101-0.167,0.084-0.3-0.05
				c-0.133-0.166-0.233-0.233-0.3-0.2c0-0.033-0.05-0.017-0.15,0.051c-0.066-0.2-0.15-0.351-0.25-0.45
				c-0.1-0.101-0.167-0.084-0.2,0.05L9.8,41.55c0-0.267,0.034-0.366,0.1-0.3c0.1,0.033,0.15-0.017,0.15-0.15L10.1,41.4
				c0.033-0.5,0.167-0.45,0.4,0.149v0.101c0.03,0.061,0.047,0.011,0.05-0.15v0.15l0.05-0.25l0.05,0.3v-0.2
				c0.034-0.233,0.067-0.316,0.1-0.25c0.031,0.031,0.048,0.015,0.05-0.05v0.2l0.3-0.45v0.325c0.003-0.153,0.036-0.262,0.1-0.325
				c0,0.166,0.017,0.133,0.05-0.101V40.9c0.03,0.091,0.047,0.058,0.05-0.101v0.15c0.034-0.134,0.05-0.15,0.05-0.05
				c0.033,0.1,0.05,0.116,0.05,0.05c0.038,0.037,0.063,0.037,0.075,0L11.45,41.2c0.066-0.134,0.2-0.2,0.4-0.2v0.25l0.1-0.2v0.2
				l0.05-0.2v0.3l0.1-0.25l-0.05,0.15c0.031,0.031,0.064,0.006,0.1-0.075L12.1,41.3c0.028,0.111,0.053,0.087,0.075-0.075
				c0.064-0.066,0.114-0.125,0.15-0.175c0.083-0.002,0.124-0.019,0.125-0.05c0,0.067-0.017,0.184-0.05,0.35
				c0.067-0.1,0.117-0.267,0.15-0.5c0,0.2,0.034,0.233,0.1,0.101c-0.033,0.267-0.066,0.399-0.1,0.399v0.226L12.6,41.6l0.2-0.6
				l-0.1,0.4l0.2-0.601L12.85,41l0.075-0.2c-0.005,0.056,0.003,0.139,0.025,0.25L12.9,41.2l0.05-0.101v0.051
				c0.063-0.095,0.096-0.187,0.1-0.275l0.1-0.175l-0.05,0.25l0.2-0.45l-0.05,0.2c0,0.1,0.017,0.1,0.05,0
				c0.064-0.064,0.081-0.047,0.05,0.05l0.05-0.15c0.034,0,0.034,0.051,0,0.15c0,0.1,0.017,0.083,0.05-0.05v0.05
				c0.133-0.267,0.2-0.283,0.2-0.05l0.1-0.3L13.7,40.6v0.075c-0.014,0.023-0.03,0.049-0.05,0.075l0.1-0.1v0.05
				c0.033-0.033,0.017,0.05-0.05,0.25l0.1-0.15v-0.05l0.1-0.2c-0.033,0.101-0.033,0.184,0,0.25c0.034,0.033,0.083-0.05,0.15-0.25
				c0,0.101,0.017,0.2,0.05,0.3c0.066-0.199,0.1-0.25,0.1-0.149l-0.05,0.1l0.05-0.05l-0.1,0.4c0.045-0.023,0.087-0.098,0.125-0.226
				c0.006,0.047,0.047,0.022,0.125-0.075l-0.1,0.25c-0.1,0.267-0.066,0.25,0.1-0.05l0.125-0.25c-0.042,0.097-0.034,0.13,0.025,0.101
				c0,0.066,0.033,0.017,0.1-0.15c0,0.066,0.033,0.116,0.1,0.15c0.066,0,0.05,0.1-0.05,0.3l0.075-0.075L14.65,41.3
				c0,0.033,0.05-0.017,0.15-0.149c0.1-0.167,0.167-0.217,0.2-0.15l-0.1,0.15L15.1,41l-0.3,0.45l0.15-0.15l-0.15,0.25
				c0.045-0.044,0.078-0.078,0.1-0.1l0.05,0.05l0.1-0.2l0.2-0.1l-0.1,0.149h0.05l-0.05,0.15l0.05-0.025L15.15,41.6l0.1-0.1
				c0.1-0.066,0.2-0.1,0.3-0.1c0.033,0,0,0.05-0.1,0.149c-0.033,0.066,0.017,0.084,0.149,0.05l-0.05,0.051h0.2l-0.45,0.3
				c0.1,0.1,0.267,0.033,0.5-0.2c-0.032,0.034-0.016,0.084,0.05,0.15c0.067,0.066,0.051,0.133-0.05,0.199h0.15
				c0,0.067,0.05,0.15,0.149,0.25c0.034,0.067-0.033,0.134-0.199,0.2h-0.275c0.081,0.002,0.106,0.019,0.075,0.05l0.35-0.05
				c0.067,0.033,0.084,0.084,0.05,0.15c0,0.033-0.05,0.066-0.149,0.1H16.1c-0.194,0.005-0.262,0.038-0.199,0.101
				c0.267,0.066,0.333,0.1,0.199,0.1H15.9c0.3,0.1,0.366,0.167,0.199,0.2l-0.25-0.05l0.25,0.1H15.7c0.333,0.233,0.45,0.434,0.35,0.6
				l-0.149-0.1l0.1,0.1c-0.161-0.032-0.278-0.082-0.35-0.149l0.199,0.2l0.101,0.05c0.033,0,0.066,0.033,0.1,0.1l-0.35-0.2l0.1,0.101
				c-0.3-0.233-0.566-0.4-0.8-0.5v0.05c-0.167-0.134-0.283-0.2-0.35-0.2l0.55,0.351c0.366,0.199,0.533,0.316,0.5,0.35
				c0.066,0.027,0.1,0.077,0.1,0.15l-0.2-0.101l0.301,0.2c0.166,0.134,0.199,0.184,0.1,0.15c-0.3-0.233-0.5-0.351-0.6-0.351
				l0.55,0.351L15.6,44.2c0.233,0.2,0.217,0.217-0.05,0.05l0.2,0.15l-0.25-0.15l0.1,0.1L15.45,44.3l0.2,0.2l0.125,0.05l0.074,0.101
				l-0.1-0.051l0.1,0.101L15.7,44.6l0.149,0.15c0.034,0.066-0.066,0.017-0.3-0.15l0.25,0.2c0.033,0.066,0.017,0.084-0.05,0.05
				L15.6,44.65l-0.3-0.15l0.351,0.3l-0.2-0.149l0.25,0.25l-0.45-0.25l-0.6-0.551c-0.033,0-0.017,0.034,0.05,0.101
				c0.233,0.166,0.483,0.399,0.75,0.7c0,0.033-0.101-0.034-0.3-0.2c-0.147-0.118-0.164-0.118-0.051,0
				c0.015,0.014,0.031,0.03,0.051,0.05c0.166,0.167,0.233,0.217,0.199,0.15c0.2,0.199,0.25,0.267,0.15,0.199L15,44.7l0.1,0.1h-0.05
				c0.017,0.017,0.05,0.05,0.101,0.101L15.4,45.1c-0.067,0-0.067,0.034,0,0.101l0.1,0.149l-0.25-0.199c0.1,0,0.05-0.084-0.15-0.25
				c0.067,0.1,0.067,0.133,0,0.1l-0.05-0.05l-0.175-0.125c-0.033-0.05-0.092-0.125-0.175-0.226l-0.5-0.35l0.4,0.4l0.15,0.25
				l-0.25-0.25c0,0.066-0.05,0.1-0.15,0.1l-0.2-0.2L14.3,44.9c-0.066-0.067-0.1-0.084-0.1-0.051c0,0.034,0,0.084,0,0.15
				c-0.233-0.233-0.367-0.35-0.4-0.35l0.1,0.1c0.035,0.036,0.068,0.103,0.1,0.2l-0.2-0.25l-0.025,0.024L13.65,44.55
				c-0.066-0.066-0.1-0.066-0.1,0l0.05,0.101l0.15,0.149c0.066,0.101,0.05,0.117-0.05,0.05L13.55,44.7v-0.05l-0.275-0.4
				c-0.069-0.1-0.077-0.15-0.025-0.15c0.105,0.105,0.13,0.113,0.075,0.025l0.225,0.325l0.1,0.05l-0.35-0.45l0.15,0.101
				c-0.167-0.167-0.233-0.25-0.2-0.25h0.2l0.1,0.1c-0.033-0.1-0.083-0.184-0.15-0.25c0.034,0,0.05-0.017,0.05-0.05
				s0.05-0.017,0.15,0.05c-0.067-0.2-0.067-0.316,0-0.35l0.2,0.199c0.067,0.067,0.1,0.084,0.1,0.051l-0.3-0.301
				c0.187,0.125,0.17,0.075-0.05-0.149l0.1,0.05l-0.075-0.075V43.15z M14.725,41.125l0.025-0.05V41.1L14.725,41.125z M15.2,41.475
				V41.45l0.2-0.101C15.319,41.404,15.253,41.445,15.2,41.475z M15.2,41.35c0.035-0.018,0.085-0.051,0.149-0.1l-0.1,0.15
				C15.283,41.334,15.267,41.317,15.2,41.35z M12.15,41.25l0.05-0.15c-0.006,0.045-0.014,0.086-0.025,0.125L12.15,41.25z
				 M15.5,43.85h-0.05l0.05,0.101c0.063,0,0.113,0.008,0.15,0.024L15.5,43.85z M13.275,44.25l-0.075-0.1L13.275,44.25z"/>
		</g>
	</g>
	<g>
		<g>
			<path style="fill-rule:evenodd;clip-rule:evenodd;fill:#826042;" d="M18.05,41.55c-0.06,0.105-0.076,0.105-0.05,0l0.025-0.024
				L18.05,41.55v-0.024L18.15,41.6l-0.101-0.1v0.025h-0.024L18.05,41.4L18,41.45V41.4c0.033-0.067,0.017-0.084-0.05-0.051
				c-0.033,0-0.05-0.033-0.05-0.1l0.05-0.2L17.85,41.2c0-0.101-0.1-0.05-0.3,0.149c0.134-0.466,0.15-0.6,0.05-0.399V41
				c-0.033,0.066-0.033-0.017,0-0.25l-0.1,0.3V40.7l-0.25,0.55c-0.333,0.167-0.566,0.25-0.7,0.25c-0.267,0.033-0.467-0.033-0.6-0.2
				c0-0.166,0-0.267,0-0.3l-0.05,0.05c-0.037,0.167-0.07,0.25-0.101,0.25h-0.2V41.15l-0.05,0.3c-0.066,0.1-0.166,0.083-0.3-0.05
				c-0.133-0.167-0.233-0.233-0.3-0.2c0-0.033-0.05-0.017-0.15,0.05c-0.066-0.2-0.15-0.35-0.25-0.45c-0.1-0.1-0.167-0.083-0.2,0.05
				L14.3,39.9c0-0.267,0.034-0.367,0.1-0.301c0.1,0.034,0.15-0.017,0.15-0.149l0.05,0.3c0.033-0.267,0.1-0.366,0.2-0.3
				c0.067,0.066,0.134,0.217,0.2,0.45V40c0.033,0.066,0.066,0,0.1-0.2V40l0.051-0.25v0.1c0.033-0.233,0.066-0.316,0.1-0.25
				c0.031,0.031,0.048,0.015,0.05-0.05v0.15c0.033-0.134,0.084-0.217,0.15-0.25c0.033-0.033,0.1-0.084,0.2-0.15L15.6,39.65
				L15.7,39.3c0,0.167,0.017,0.134,0.05-0.1v0.05c0.033,0.1,0.066,0.05,0.1-0.15v0.2c0.007,0.054,0.023,0.054,0.051,0v-0.1
				c0.001,0.064,0.018,0.081,0.05,0.05v0.05c0.019-0.037,0.035-0.079,0.05-0.125l-0.05,0.375c0.066-0.133,0.217-0.2,0.45-0.2v0.25
				l0.05-0.199V39.6c0,0.067,0.033,0,0.1-0.199l-0.05,0.3l0.1-0.25L16.55,39.6c0.033,0.034,0.067,0,0.101-0.1v0.15l0.05-0.2V39.6
				c0.066-0.1,0.116-0.183,0.149-0.25V39.4c0.034,0.033,0.067,0.017,0.101-0.051V39.7l0.1-0.5l0.101,0.1
				c-0.033,0.267-0.067,0.4-0.101,0.4v0.2L17,40.05c0.066-0.1,0.1-0.133,0.1-0.1l0.2-0.601l-0.1,0.4l0.2-0.6v0.199l0.05-0.25V39.4
				L17.4,39.55l0.05-0.05c0.063-0.096,0.097-0.188,0.1-0.275V39.3l0.101-0.25L17.6,39.3l0.2-0.45l-0.05,0.2
				c0,0.066,0.033,0.066,0.1,0C17.884,38.983,17.9,39,17.9,39.1c0,0.101,0.033,0.084,0.1-0.05l-0.05,0.05
				c0.133-0.267,0.2-0.283,0.2-0.05l0.05-0.1v0.1L18.25,39c0.033-0.033,0.05-0.017,0.05,0.05l-0.1,0.25l0.1-0.149l0.05-0.051
				l0.025-0.125c-0.007,0.069,0.001,0.128,0.025,0.176L18.45,39v0.15L18.6,38.9c-0.033,0.1-0.033,0.199,0,0.3
				c0.067-0.2,0.101-0.25,0.101-0.15l-0.05,0.101L18.7,39.1l-0.05,0.4l0.1-0.3c-0.033,0.125,0,0.125,0.1,0l-0.1,0.25
				c-0.066,0.267-0.017,0.25,0.15-0.05L19,39.1c-0.033,0.134-0.033,0.184,0,0.15c0.033-0.066,0.083-0.116,0.15-0.15
				c0,0.067,0.033,0.117,0.1,0.15c0.033,0,0,0.1-0.1,0.3l0.074-0.075L19.15,39.65c-0.031,0.092,0.069,0.017,0.3-0.226
				c-0.05,0.05-0.05,0.075,0,0.075l0.149-0.15l-0.3,0.45l0.2-0.149l-0.15,0.25L19.45,39.8v0.05L19.6,39.65l0.15-0.15l-0.05,0.2
				c-0.066,0.1-0.083,0.149-0.05,0.149c0.029-0.015,0.063-0.031,0.1-0.05L19.7,39.9L19.85,39.8c0.085-0.033,0.152-0.05,0.2-0.05
				c0.033,0,0.017,0.05-0.05,0.15h-0.05c-0.066,0.1-0.017,0.116,0.149,0.05L20.05,40h0.2c-0.066,0.066-0.2,0.167-0.4,0.3
				c0,0.033,0.067,0.017,0.2-0.05c0.117-0.029,0.192-0.071,0.226-0.125c-0.003,0.03,0.022,0.072,0.074,0.125
				c0.067,0.066,0.051,0.134-0.05,0.2h0.2c0.2,0.2,0.167,0.35-0.1,0.45h-0.275c0.081,0.002,0.106,0.019,0.075,0.05l0.35-0.05
				c0.067,0.033,0.084,0.083,0.05,0.149c0,0.033-0.033,0.066-0.1,0.101c-0.138,0.015-0.154,0.048-0.05,0.1
				c0.233,0.066,0.283,0.1,0.149,0.1H20.45c0.2,0.101,0.267,0.167,0.2,0.2L20.35,41.5l0.25,0.1H20.2
				c0.399,0.233,0.517,0.434,0.35,0.601l-0.399-0.15l0.199,0.2l0.101,0.05c0.033,0,0.066,0.033,0.1,0.101l-0.35-0.2l0.1,0.1
				c-0.3-0.233-0.566-0.399-0.8-0.5v0.05c-0.167-0.133-0.283-0.199-0.35-0.199L19.7,42c0.366,0.2,0.533,0.316,0.5,0.35L20,42.2
				h-0.05L20,42.3c0.1,0,0.217,0.066,0.35,0.2c-0.133-0.1-0.216-0.134-0.25-0.1L20.4,42.6c0.199,0.134,0.233,0.184,0.1,0.15
				l-0.4-0.275c0.103,0.074,0.219,0.166,0.351,0.275l-0.3-0.2c0.199,0.2,0.166,0.217-0.101,0.05l0.2,0.15L20,42.6
				c0.167,0.167,0.15,0.184-0.05,0.051l0.2,0.199c0.038,0.013,0.071,0.021,0.1,0.025c0.008,0.021,0.032,0.055,0.075,0.1L20.25,42.9
				l0.1,0.149l-0.149-0.1L20.35,43.1c0.034,0.067-0.05,0.017-0.25-0.149L19.95,42.8c0.03,0.032-0.003,0.032-0.101,0L20.1,43
				l-0.25-0.15l0.301,0.301L19.95,43l0.25,0.25L19.75,43l-0.2-0.25H19.5l-0.35-0.3c0.033,0.033,0.05,0.066,0.05,0.1
				c0.267,0.167,0.517,0.4,0.75,0.7c0,0.033-0.101-0.033-0.3-0.2c-0.148-0.118-0.165-0.118-0.051,0l-0.3-0.25l0.15,0.2l0.149,0.15
				h-0.05l0.101,0.1l0.25,0.2l0.024,0.024L20,43.6l-0.05-0.1c0.091,0.1,0.107,0.15,0.05,0.15l-0.2-0.15c0.067,0,0-0.083-0.2-0.25
				c0.067,0.1,0.067,0.134,0,0.1l-0.05-0.05L19.4,43.2c0.033,0-0.033-0.084-0.2-0.25L18.7,42.6L19.1,43l0.15,0.25L19,43
				c0,0.097-0.033,0.113-0.1,0.05c0.166,0.167,0.25,0.268,0.25,0.3l0.199,0.2c0.067,0.101,0.051,0.101-0.05,0L18.65,42.9l0.149,0.35
				c-0.066-0.066-0.1-0.083-0.1-0.05s0,0.083,0,0.149l-0.2-0.225c0.021,0.035,0.005,0.043-0.05,0.025L18.4,43.1
				c0.034,0.037,0.067,0.104,0.1,0.2l-0.15-0.2L18.15,42.9c-0.067-0.067-0.084-0.067-0.051,0L18.15,43l0.149,0.15
				c0.033,0.1,0,0.116-0.1,0.05L18.1,43.05l0.051,0.101c-0.039-0.058-0.072-0.107-0.101-0.15l-0.35-0.5l0.2,0.2
				c-0.134-0.167-0.184-0.25-0.15-0.25c0.105,0.104,0.13,0.113,0.075,0.024L18.05,42.8c0.067,0.033,0.117,0.05,0.15,0.05L17.85,42.4
				c-0.084-0.101-0.101-0.15-0.05-0.15h0.15l0.149,0.1c-0.033-0.1-0.083-0.199-0.149-0.3c0.1,0.066,0.149,0.084,0.149,0.05
				c-0.066-0.199-0.066-0.316,0-0.35l0.2,0.2L18.4,42L18.1,41.7C18.224,41.762,18.207,41.712,18.05,41.55z M19.85,39.6l-0.1,0.15
				c0.033-0.066,0.017-0.083-0.05-0.05L19.85,39.6z M19.25,39.45l-0.025,0.024l0.025-0.05V39.45z M18.175,41.375L18.3,41.4
				c-0.036-0.027-0.069-0.053-0.1-0.075L18.175,41.375z M17.9,42.825c0.004,0.025,0.037,0.1,0.1,0.225l-0.25-0.399L17.9,42.825z
				 M19.65,43.1l0.199,0.15c0.2,0.2,0.25,0.267,0.15,0.2l-0.425-0.375L19.6,43.05C19.615,43.064,19.632,43.081,19.65,43.1z
				 M20.25,43.15L20.1,43l0.2,0.15C20.333,43.217,20.316,43.217,20.25,43.15z"/>
		</g>
	</g>
	<g>
		<g>
			<path style="fill-rule:evenodd;clip-rule:evenodd;fill:#826042;" d="M14.6,31.1l0.25-0.05l1.7-0.55l0.601,1.45
				c0.1,0.233,0.25,0.533,0.449,0.899c0.134,0.367,0.184,0.767,0.15,1.2c-0.167,0.167-0.25,0.283-0.25,0.351
				c-0.033,0.033-0.033,0.183,0,0.449l-0.05-0.024c0.06,0.043,0.076,0.118,0.05,0.225c-0.033,0.167-0.017,0.267,0.05,0.3
				c-0.129,0.259-0.32,0.517-0.575,0.775l-0.05,0.05c-0.019,0.013-0.044,0.029-0.075,0.05c0.037,0.06,0.07,0.135,0.101,0.226
				c0.04,0.02,0.065,0.02,0.075,0c0.01,0.073,0.001,0.123-0.025,0.149c-0.042-0.027-0.075-0.053-0.1-0.074
				c0.045,0.116,0.027,0.175-0.051,0.175c-0.066-0.101-0.083-0.101-0.05,0c0,0.133-0.017,0.2-0.05,0.2l-0.175-0.525
				c-0.045,0.021-0.086,0.038-0.125,0.05l0.2,0.425L16.55,36.7v0.35c-0.166,0.033-0.283,0.05-0.35,0.05L16.1,36.95
				c0.067,0.133,0.067,0.217,0,0.25c-0.033,0.066-0.05,0.116-0.05,0.149c-0.066-0.033-0.133-0.017-0.2,0.051
				c-0.066,0.066-0.133,0.05-0.199-0.051c-0.134,0.301-0.301,0.45-0.5,0.45L15.1,37.6L15,37.45c0.033,0.066,0.05,0.217,0.05,0.45
				c-0.1-0.101-0.183,0-0.25,0.3l-0.05-0.15c0,0.134-0.033,0.2-0.1,0.2c-0.1-0.066-0.167-0.1-0.2-0.1
				c-0.067-0.167-0.117-0.233-0.15-0.2c0,0.033-0.033,0.184-0.1,0.45c-0.067,0.066-0.167,0.033-0.3-0.101
				c-0.066,0.167-0.2,0.283-0.4,0.351c-0.233,0.033-0.383,0.083-0.45,0.149v-0.25c-0.133,0.2-0.316,0.283-0.55,0.25
				c-0.3-0.066-0.483-0.083-0.55-0.05l0.15-0.35c-0.034-0.067-0.083-0.067-0.15,0c-0.067,0.066-0.117,0.166-0.15,0.3
				c0-0.033-0.05-0.05-0.15-0.05c-0.1-0.034-0.133-0.101-0.1-0.2c-0.1,0.066-0.183,0.116-0.25,0.149
				c-0.086-0.115-0.211-0.207-0.375-0.274c0.112-0.088,0.137-0.163,0.075-0.226c-0.066,0-0.117-0.017-0.15-0.05
				c-0.067,0-0.133,0.084-0.2,0.25c0-0.1-0.083-0.2-0.25-0.3c-0.167-0.066-0.233-0.167-0.2-0.3c-0.034,0.033-0.1,0.083-0.2,0.149
				c-0.066-0.366-0.2-0.6-0.4-0.699c0.167,0,0.233-0.034,0.2-0.101c-0.1,0.033-0.183,0.033-0.25,0
				c-0.167-0.133-0.216-0.366-0.15-0.7l0.15-0.699C9.517,35.35,9.6,35.05,9.8,34.75c0.1-0.167,0.233-0.384,0.4-0.65l0.1,0.101
				c-0.033-0.101,0.017-0.167,0.15-0.2c0.133,0,0.15-0.083,0.05-0.25c0.033,0.033,0.1,0.066,0.2,0.1
				c-0.034-0.066,0.017-0.116,0.15-0.149c0.085,0,0.119-0.05,0.1-0.15c0.1,0.033,0.167,0.017,0.2-0.05
				c0.067-0.066,0.133-0.1,0.2-0.1l0.05,0.149c0.034,0.033,0.05,0,0.05-0.1c-0.034-0.066,0-0.05,0.1,0.05c0.034,0,0-0.05-0.1-0.15
				c0.133-0.033,0.267-0.116,0.4-0.25C11.917,33.033,12,32.9,12.1,32.7c0.046,0.012,0.088,0.028,0.125,0.05
				c-0.033-0.049-0.074-0.099-0.125-0.15l0.95-0.05c-0.005-0.106-0.021-0.224-0.05-0.35C13.367,31.967,13.9,31.6,14.6,31.1z
				 M15.625,34.475c0.134,0.021,0.259,0.046,0.375,0.075c-0.167-0.2-0.283-0.467-0.35-0.8l0.199-0.15
				c-0.066-0.066-0.133-0.083-0.199-0.05l0.1-0.1c0.066-0.066,0-0.084-0.2-0.05l0.25-0.051c-0.066,0-0.166-0.033-0.3-0.1l0.15-0.05
				c-0.099,0.03-0.132,0.014-0.101-0.05c0-0.034-0.017-0.051-0.05-0.051v-0.05c-0.033,0.033-0.1,0.084-0.2,0.15
				c-0.1-0.267-0.166-0.367-0.2-0.3c0.034,0.1,0.034,0.183,0,0.25c0,0.066,0.034,0.149,0.101,0.25c-0.167,0-0.25,0.017-0.25,0.05
				c-0.134-0.233-0.184-0.367-0.15-0.4l-0.15-0.3l-0.1,0.15c0.1,0.366,0.117,0.583,0.05,0.649c-0.072-0.167-0.122-0.284-0.15-0.35
				l0.15,0.6l-0.1-0.149l0.05,0.199C14.483,33.95,14.4,33.9,14.3,33.7c0.034-0.066,0.017-0.134-0.05-0.2l-0.05,0.15V33.6
				c-0.134,0-0.117,0.117,0.05,0.351l0.025-0.025c0.035,0.117,0.01,0.175-0.075,0.175L14.15,33.9
				c0.028,0.169,0.02,0.312-0.025,0.425c0.05,0,0.092,0.008,0.125,0.024l-0.2,0.25l0.2-0.1c0.167-0.134,0.267-0.15,0.3-0.05
				c0,0.1,0.05,0.133,0.15,0.1l-0.1,0.101c0.133-0.034,0.283-0.034,0.45,0c0.167,0,0.283,0,0.351,0l-0.101,0.3l0.2-0.351
				c0,0.2,0.033,0.184,0.1-0.05v-0.075H15.625l0.05,0.075H15.7V34.5L15.625,34.475z M14.05,34.2c-0.033-0.033-0.066,0-0.1,0.1v0.025
				c0.039-0.007,0.089-0.015,0.15-0.025C14.083,34.271,14.066,34.238,14.05,34.2z M11.75,35.7c0.164,0.144,0.264,0.243,0.3,0.3
				L12,36.025l0.05,0.05L12.15,36c0.133-0.066,0.133,0,0,0.2L12,36.45l0.05-0.05l0.2-0.301c0.066-0.033,0.083,0,0.05,0.101
				l0.05-0.075c-0.085,0.146-0.085,0.203,0,0.175c0.033-0.033,0.066-0.1,0.1-0.2l-0.05,0.2c0.1-0.3,0.15-0.366,0.15-0.2v0.4
				c0.134-0.333,0.267-0.5,0.4-0.5v0.45c0.033,0.1,0.066,0,0.1-0.3C13.017,36.217,13,36.184,13,36.05
				c0.049,0.073,0.074,0.065,0.075-0.024L13.1,36.3v-0.1c0.033,0.2,0.033,0.5,0,0.899l0.05-0.05c0.034,0.2,0.034,0.351,0,0.45
				c0.1-0.267,0.1-0.483,0-0.65c0.025-0.024,0.042-0.141,0.05-0.35c0.033,0.134,0.066,0.116,0.1-0.05l-0.05-0.4l0.05,0.25
				l-0.05-0.35c0.063,0.031,0.079-0.027,0.05-0.175l0.15,0.675c0-0.175-0.017-0.351-0.05-0.525l0.05,0.226V36.05l0.05,0.15v-0.226
				c-0.054-0.071-0.104-0.146-0.15-0.225c-0.107-0.191-0.208-0.357-0.3-0.5H13c-0.066,0.033-0.167-0.017-0.3-0.15
				c0.066,0.2,0.066,0.284,0,0.25L12.65,35.2c-0.033,0-0.05,0.033-0.05,0.1l-0.3-0.25l0.25,0.4c-0.066-0.101-0.1-0.101-0.1,0
				c0.033,0.133,0,0.149-0.1,0.05c0-0.1-0.05-0.184-0.15-0.25c-0.1-0.1-0.117-0.1-0.05,0c0.067,0.134,0.067,0.184,0,0.15l0.25,0.25
				c0.034,0.133-0.017,0.116-0.15-0.051l0.1,0.2c-0.067-0.033-0.133-0.017-0.2,0.05c-0.033,0.034-0.133-0.017-0.3-0.149
				c0.029,0.028,0.054,0.07,0.075,0.125L11.75,35.7z M11.925,35.825l0.1,0.05L11.95,35.85L11.925,35.825z M11.825,36.1l0.025-0.024
				l-0.1-0.025C11.771,36.061,11.796,36.077,11.825,36.1z"/>
		</g>
	</g>
</g>
</svg>
