<?xml version="1.0" encoding="iso-8859-1"?>
<!-- Generator: Adobe Illustrator 15.1.0, SVG Export Plug-In . SVG Version: 6.00 Build 0)  -->
<!DOCTYPE svg PUBLIC "-//W3C//DTD SVG 1.1//EN" "http://www.w3.org/Graphics/SVG/1.1/DTD/svg11.dtd">
<svg version="1.1" id="paper_talismen__x28_group_and_single_x29_"
	 xmlns="http://www.w3.org/2000/svg" xmlns:xlink="http://www.w3.org/1999/xlink" x="0px" y="0px" width="31.1px" height="45.95px"
	 viewBox="0 0 31.1 45.95" style="enable-background:new 0 0 31.1 45.95;" xml:space="preserve">
<symbol  id="FlashAICB_x2F_paper_talismen__x28_group_and_single_x29__x2F__x3C_Path_x3E__x5F_2" viewBox="0 -45.95 20.85 45.95">
	<g id="Layer_1_2_">
		<polygon style="fill-rule:evenodd;clip-rule:evenodd;fill:#FFECCD;" points="0,-45.95 0.7,-7.65 20.85,0 20.15,-38.35 		"/>
	</g>
</symbol>
<g>
	<g>
		
			<use xlink:href="#FlashAICB_x2F_paper_talismen__x28_group_and_single_x29__x2F__x3C_Path_x3E__x5F_2"  width="20.85" height="45.95" y="-45.95" transform="matrix(1 0 0 -1 4.75 0)" style="overflow:visible;opacity:0.5;enable-background:new    ;"/>
		<polygon style="fill-rule:evenodd;clip-rule:evenodd;fill:#24200E;" points="31,5.65 18.5,10.3 18.6,7.15 31.1,2.45 		"/>
		<polygon style="fill-rule:evenodd;clip-rule:evenodd;fill:#24200E;" points="12.5,12.55 0,17.25 0.1,14.05 12.6,9.4 		"/>
	</g>
	<g>
		<g>
			<g>
				<path style="fill-rule:evenodd;clip-rule:evenodd;fill:#826042;" d="M12.05,36.75l0.025-0.05
					c-0.007,0.021-0.015,0.047-0.025,0.075l0.05-0.025c0.133-0.267,0.2-0.283,0.2-0.05l0.05-0.101v0.15
					c0.033,0,0.066-0.017,0.1-0.05l-0.1,0.3l0.1-0.15l0.05-0.1l0.05-0.2c-0.031,0.136-0.031,0.219,0,0.25l-0.1,0.25l0.15-0.35v0.1
					l0.15-0.25c-0.033,0.101-0.033,0.2,0,0.3l0.1-0.149l-0.05,0.1V36.9l0.05-0.101l-0.1,0.351c0.045-0.023,0.087-0.098,0.125-0.226
					c0.006,0.047,0.047,0.022,0.125-0.075l-0.1,0.301c-0.066,0.233-0.017,0.199,0.15-0.101l0.1-0.3c-0.033,0.134-0.033,0.184,0,0.15
					c0,0.1,0.05,0.05,0.15-0.15c0,0.066,0.034,0.116,0.1,0.15c0.033,0.033,0,0.149-0.1,0.35l0.1-0.15l0.05-0.149
					c0,0.1-0.05,0.217-0.15,0.35c-0.029,0.119,0.062,0.052,0.275-0.2c-0.021,0.034-0.013,0.051,0.025,0.051L13.75,37
					c0,0.033-0.1,0.184-0.3,0.45l0.2-0.101l-0.1,0.15c0.042-0.059,0.075-0.075,0.1-0.05l0.1-0.15l0.15-0.1
					c-0.033,0.033-0.05,0.1-0.05,0.2c-0.034,0.033-0.05,0.066-0.05,0.1c0.067-0.033,0.15-0.083,0.25-0.15L13.9,37.5l-0.05,0.1
					l0.05-0.05l0.3-0.149c0.033,0,0.017,0.066-0.05,0.199H14.1c0,0.031,0.042,0.048,0.125,0.051H14.4c-0.066,0.1-0.2,0.199-0.4,0.3
					c0,0.066,0.15,0.017,0.45-0.15c-0.034,0.033-0.017,0.084,0.05,0.15c0.066,0.033,0.05,0.083-0.05,0.149h0.2
					c0.2,0.2,0.167,0.351-0.1,0.45h-0.3l0.1,0.05l0.35-0.05c0.133,0.134,0.116,0.217-0.05,0.25l0.15,0.05
					c-0.333-0.066-0.4-0.05-0.2,0.051l0.15,0.05h-0.2c0.267,0.033,0.333,0.05,0.2,0.05H14.6c0.267,0.134,0.333,0.2,0.2,0.2h-0.3
					l0.25,0.05c-0.167,0.066-0.3,0.083-0.4,0.05c0.4,0.2,0.517,0.384,0.35,0.55l-0.15-0.05c0.133,0.066,0.167,0.101,0.1,0.101
					l-0.35-0.2l0.2,0.2l0.1,0.05l0.1,0.1l-0.275-0.125c-0.291-0.187-0.55-0.328-0.775-0.425v0.05l0.2,0.101
					c0.124,0.078,0.224,0.145,0.3,0.199c-0.066-0.033-0.083-0.017-0.05,0.051l0.05,0.05l0.35,0.2
					c-0.133-0.067-0.217-0.101-0.25-0.101c0.133,0.134,0.233,0.2,0.3,0.2c0.2,0.134,0.233,0.184,0.1,0.15
					c-0.3-0.233-0.483-0.351-0.55-0.351l0.25,0.2c0.145,0.153,0.095,0.153-0.15,0l0.2,0.15L14.15,40.3
					c0.167,0.134,0.15,0.134-0.05,0l0.2,0.2l0.05,0.025v0.024l0.05,0.05l0.1,0.15c0.033,0.066-0.05,0.017-0.25-0.15l-0.15-0.1
					L14,40.45l0.45,0.399H14.4L14.25,40.7c-0.133-0.134-0.233-0.184-0.3-0.15c0.167,0.167,0.283,0.25,0.35,0.25l-0.025,0.025
					L14.35,40.9l-0.45-0.25l-0.2-0.25l-0.05,0.05c-0.033-0.066-0.15-0.167-0.35-0.3c0,0.033,0.017,0.066,0.05,0.1
					c0.267,0.167,0.517,0.384,0.75,0.65c0,0.033-0.1-0.034-0.3-0.2c-0.147-0.118-0.164-0.118-0.05,0c-0.2-0.167-0.3-0.233-0.3-0.2
					l0.15,0.2c0.098,0.099,0.148,0.132,0.15,0.1c0,0.033-0.017,0.033-0.05,0c-0.027,0-0.011,0.033,0.05,0.101
					c0.066,0.1,0.066,0.133,0,0.1l-0.05-0.05c-0.067-0.066-0.117-0.117-0.15-0.15c-0.053-0.035-0.087-0.044-0.1-0.024
					c-0.023-0.04-0.056-0.081-0.1-0.125l-0.5-0.4l0.4,0.4c-0.059,0-0.025,0.066,0.1,0.199l-0.2-0.199c0,0.066-0.033,0.1-0.1,0.1
					c0.167,0.167,0.25,0.267,0.25,0.3l0.175,0.15H13.45c-0.067-0.066-0.067-0.05,0,0.05l-0.5-0.55c0.066,0.1,0.017,0.066-0.15-0.101
					l0.15,0.301c-0.067-0.067-0.1-0.067-0.1,0c0,0.033,0,0.066,0,0.1l-0.275-0.275c0.101,0.106,0.109,0.132,0.025,0.075l-0.05-0.05
					c0.034,0.035,0.067,0.118,0.1,0.25l-0.2-0.3l-0.025,0.024L12.3,40.55c-0.066-0.066-0.083-0.066-0.05,0
					c0,0.033,0.017,0.066,0.05,0.101l0.1,0.149c0.067,0.101,0.05,0.134-0.05,0.101l-0.1-0.15l-0.05-0.1L11.95,40.3v0.05l-0.1-0.199
					l0.2,0.199L11.9,40.15c0.133,0.133,0.133,0.083,0-0.15l0.3,0.45c0.066,0.066,0.116,0.083,0.15,0.05l-0.275-0.35L11.95,39.9h0.15
					l0.15,0.149c-0.033-0.1-0.083-0.2-0.15-0.3c0.033,0.033,0.05,0.017,0.05-0.05l0.1,0.05c-0.067-0.2-0.067-0.3,0-0.3l0.2,0.2
					l0.1,0.05l-0.3-0.351c0.22,0.165,0.236,0.148,0.05-0.05c-0.028-0.028-0.062-0.062-0.1-0.1l-0.05,0.05l0.025-0.075L12.2,39.05
					l-0.05,0.05v-0.05c0.033-0.066,0.017-0.083-0.05-0.05c-0.029,0-0.045-0.025-0.05-0.075c-0.03,0.02-0.014-0.055,0.05-0.225
					L12,38.9c0-0.067-0.033-0.084-0.1-0.051C11.8,38.95,11.733,39,11.7,39c0.133-0.467,0.15-0.6,0.05-0.4
					c-0.031,0.094-0.031,0.128,0,0.101c-0.064,0.059-0.064-0.042,0-0.3l-0.1,0.3V38.35L11.4,38.95
					c-0.333,0.133-0.566,0.217-0.7,0.25c-0.067-0.033-0.167-0.05-0.3-0.05S10.167,39.1,10.1,39c0-0.167,0-0.267,0-0.3L10,38.8
					l-0.05,0.15C9.85,38.983,9.783,39,9.75,39c0-0.033,0-0.116,0-0.25L9.7,38.9V39.1c-0.067,0.101-0.167,0.084-0.3-0.05
					c-0.133-0.166-0.233-0.233-0.3-0.2c-0.034-0.033-0.083-0.017-0.15,0.051c-0.233-0.567-0.384-0.7-0.45-0.4l-0.05-0.9
					c0-0.267,0.033-0.383,0.1-0.35c0.1,0.033,0.15-0.017,0.15-0.15L8.75,37.4c0.033-0.267,0.1-0.351,0.2-0.25
					c0.066,0.033,0.133,0.183,0.2,0.449V37.7c0.033,0.033,0.067-0.05,0.1-0.25v0.2L9.3,37.4v0.1c0.034-0.233,0.067-0.316,0.1-0.25
					c0.031,0.063,0.048,0.063,0.05,0v0.15c0.033-0.101,0.133-0.233,0.3-0.4v0.275c0.004-0.154,0.037-0.263,0.1-0.325
					c0,0.166,0.017,0.133,0.05-0.101V36.9c0.033,0.133,0.067,0.083,0.1-0.15v0.2c0.007,0.053,0.023,0.053,0.05,0
					c0.011,0.022,0.027,0.022,0.05,0c0.02-0.021,0.037-0.045,0.05-0.075L10.1,37.25c0.1-0.167,0.25-0.25,0.45-0.25v0.3l0.05-0.2
					v0.15c0,0.066,0.033,0,0.1-0.2l-0.05,0.3l0.1-0.25l-0.05,0.15c0.033,0.033,0.066,0,0.1-0.1V37.3l0.025-0.024
					C10.91,37.155,10.968,37.063,11,37v0.1c0.033,0.034,0.066,0,0.1-0.1v0.35l0.1-0.5l0.1,0.101c-0.033,0.267-0.066,0.399-0.1,0.399
					v0.25L11.15,37.7l0.1-0.101l0.2-0.6l-0.1,0.45l0.2-0.65c-0.033,0.2-0.033,0.267,0,0.2l0.05-0.2v0.25l-0.05,0.2l0.1-0.15
					L11.6,37.15c0.051-0.054,0.084-0.121,0.1-0.2c0.066-0.267,0.1-0.334,0.1-0.2l-0.05,0.2l0.2-0.4l-0.05,0.2
					c0,0.066,0.033,0.05,0.1-0.05C12.029,36.643,12.045,36.659,12.05,36.75z M12.4,38.95l-0.075,0.075l0.125,0.024
					C12.44,39.012,12.424,38.979,12.4,38.95z M12.1,40.2L12,40.05l0.075,0.101L12.1,40.2z M13.75,40.7
					c0.014,0.014,0.03,0.03,0.05,0.05l0.2,0.2c0.2,0.166,0.25,0.233,0.15,0.2L13.7,40.7C13.733,40.731,13.75,40.731,13.75,40.7z
					 M13.55,40.9L13.5,40.85l-0.05-0.074L13.55,40.9z"/>
			</g>
		</g>
		<g>
			<g>
				<path style="fill-rule:evenodd;clip-rule:evenodd;fill:#826042;" d="M16.675,37.5l0.025-0.1l-0.05,0.05V37.4
					c0.033-0.067,0.017-0.084-0.051-0.051c-0.033,0-0.05-0.033-0.05-0.1c-0.033-0.066-0.083-0.083-0.149-0.05l-0.2,0.149
					c0.133-0.466,0.149-0.6,0.05-0.399V37c-0.033,0.1-0.033,0.017,0-0.25l-0.1,0.3V36.7l-0.25,0.6
					c-0.334,0.134-0.567,0.217-0.7,0.25c-0.033-0.033-0.134-0.05-0.3-0.05c-0.133,0-0.233-0.05-0.3-0.15
					c0-0.233-0.017-0.3-0.05-0.199V37l-0.05,0.3c-0.1,0.033-0.184,0.05-0.25,0.05V37.2l-0.05,0.25c-0.067,0.1-0.167,0.083-0.3-0.05
					c-0.133-0.167-0.233-0.233-0.3-0.2c-0.034-0.033-0.083-0.017-0.15,0.05c-0.2-0.5-0.35-0.634-0.45-0.4l-0.05-0.899
					c0-0.267,0.033-0.384,0.1-0.351c0.1,0.034,0.167-0.017,0.2-0.149c0,0.267,0.017,0.366,0.05,0.3c0.034-0.533,0.167-0.467,0.4,0.2
					l-0.05,0.1c0.033,0.033,0.067-0.05,0.1-0.25V36l0.05-0.25v0.35l0.05-0.25c0-0.233,0.017-0.316,0.05-0.25
					c0.064,0.097,0.098,0.097,0.1,0v0.15c0.002-0.069,0.102-0.202,0.3-0.4l-0.05,0.301l0.1-0.351c0,0.167,0.033,0.134,0.1-0.1v0.05
					c0,0.134,0.017,0.083,0.05-0.15v0.2c0.007,0.054,0.023,0.054,0.05,0v-0.05c0.032,0.064,0.049,0.064,0.05,0v0.05
					c0.025-0.05,0.042-0.092,0.05-0.125L14.6,35.6c0.1-0.166,0.25-0.25,0.45-0.25v0.301l0.05-0.2V35.6
					c0.029,0.059,0.055,0.017,0.075-0.125L15.15,35.7l0.1-0.25V35.6c0.031,0.031,0.048,0.007,0.05-0.074V35.7l0.05-0.25v0.2
					l0.15-0.301V35.4c0.065,0,0.099-0.017,0.1-0.051V35.7l0.101-0.5l0.1,0.1c-0.033,0.267-0.066,0.4-0.1,0.4v0.2l-0.05,0.149
					c0.033,0,0.066-0.033,0.1-0.1l0.2-0.601L15.85,35.8l0.2-0.649c-0.033,0.199-0.033,0.267,0,0.199l0.05-0.199v0.25l-0.05,0.149
					c0.033,0.033,0.066,0,0.101-0.1v0.05l0.1-0.3l-0.05,0.1l0.1-0.25l-0.05,0.25l0.2-0.399L16.4,35.1c0,0.067,0.033,0.051,0.1-0.05
					c0.063-0.063,0.08-0.047,0.05,0.05l0.05-0.149V35.1c0.134-0.267,0.2-0.283,0.2-0.05l0.15-0.3l-0.05,0.2v0.1L16.95,35v0.05
					L16.85,35.3l0.101-0.1L17,35.1l0.05-0.199v0.25l-0.1,0.25L17.1,35.05v0.101l0.15-0.25c-0.033,0.1-0.033,0.199,0,0.3l0.1-0.15
					L17.3,35.15c0,0.1,0.017,0.1,0.05,0L17.3,35.5l0.15-0.45c-0.033,0.134-0.017,0.167,0.05,0.101
					c0.066-0.101,0.083-0.084,0.05,0.05c-0.1,0.1-0.149,0.2-0.149,0.3c-0.067,0.233-0.017,0.2,0.149-0.1L17.65,35.1
					c-0.034,0.134-0.034,0.184,0,0.15c0,0.1,0.05,0.05,0.149-0.15c0,0.067,0.033,0.117,0.101,0.15c0.033,0,0,0.1-0.101,0.3h0.05
					L17.8,35.65c-0.033,0.133,0.084,0.033,0.351-0.301L18.1,35.5l0.15-0.15l-0.3,0.45l0.2-0.1l-0.101,0.125
					c0.016-0.01,0.032-0.018,0.05-0.025c-0.066,0.134-0.05,0.15,0.051,0.05l0.1-0.199l0.15-0.101
					c-0.034,0.033-0.051,0.101-0.051,0.2c0,0.033,0.051-0.017,0.15-0.15c-0.033,0.101-0.066,0.15-0.1,0.15
					c-0.034,0.033-0.067,0.066-0.101,0.1c0.029-0.015,0.063-0.031,0.101-0.05l-0.051,0.15L18.4,35.9l0.3-0.15
					c0.033,0,0.017,0.066-0.05,0.2c-0.067,0.066-0.034,0.066,0.1,0V36h0.15c-0.067,0.1-0.2,0.2-0.4,0.3
					c0,0.066,0.15,0.017,0.45-0.149c0,0.033,0.033,0.083,0.1,0.149c0.033,0.033,0,0.084-0.1,0.15h0.2
					c0.199,0.2,0.166,0.35-0.101,0.45h-0.3l0.1,0.05L19.2,36.9c0.133,0.133,0.116,0.216-0.05,0.25h0.125
					c-0.238,0.006-0.297,0.039-0.176,0.1l0.15,0.05H19.1c0.233,0.033,0.284,0.05,0.15,0.05H19.1c0.267,0.134,0.334,0.2,0.2,0.2
					l-0.25-0.05l0.25,0.1l-0.45,0.051c0.4,0.199,0.517,0.383,0.351,0.55c0.046,0.033,0.046,0.05,0,0.05l-0.4-0.2
					c0.134,0.101,0.2,0.167,0.2,0.2c0.1,0.066,0.15,0.083,0.15,0.05c0.033,0.033,0.05,0.066,0.05,0.101l-0.275-0.125
					c-0.291-0.188-0.55-0.329-0.774-0.426L18.2,37.9l-0.351-0.2l0.5,0.3c0.022,0.043,0.097,0.11,0.226,0.2l0.024,0.05l0.051,0.05
					L19,38.5c-0.134-0.066-0.217-0.1-0.25-0.1c0.134,0.133,0.233,0.199,0.3,0.199c0.2,0.134,0.233,0.184,0.101,0.15
					c-0.301-0.233-0.483-0.35-0.551-0.35l0.2,0.149c0.2,0.2,0.167,0.217-0.1,0.05l0.2,0.15l-0.2-0.1l0.05,0.1l-0.15-0.1l0.2,0.199
					l0.075,0.025L18.9,38.9c0.066,0.033,0.116,0.066,0.149,0.1L18.9,38.95L19.05,39.1l-0.2-0.149L19,39.1l-0.25-0.149l-0.1-0.101
					L18.55,38.8l0.2,0.2l-0.25-0.15c0.1,0.2,0.217,0.301,0.35,0.301c-0.019,0.037-0.052,0.045-0.1,0.024l0.1,0.075L18.4,39
					l-0.2-0.25l-0.05,0.05c0.15,0.129,0.3,0.279,0.449,0.45c0,0.033-0.1-0.033-0.3-0.2c-0.147-0.118-0.164-0.118-0.05,0
					c-0.2-0.166-0.3-0.233-0.3-0.2l0.149,0.2c0.1,0.1,0.149,0.133,0.15,0.101c0,0.032-0.017,0.032-0.05,0
					c-0.027,0-0.011,0.033,0.05,0.1c0.015,0.015,0.031,0.031,0.05,0.05c0.055,0.061,0.055,0.077,0,0.05l-0.05-0.05
					c-0.033,0-0.116-0.05-0.25-0.149c-0.037-0.037-0.087-0.087-0.15-0.15L17.4,38.6c0.033,0.034,0.05,0.067,0.05,0.101L17.8,39
					c-0.094,0-0.068,0.075,0.075,0.225L17.65,39c0.033,0.066,0,0.1-0.101,0.1c0.167,0.167,0.25,0.267,0.25,0.301l0.175,0.149H17.95
					l-0.05-0.024c-0.062-0.079-0.212-0.237-0.45-0.476c0.066,0.101,0.017,0.066-0.15-0.1l0.15,0.3c-0.066-0.066-0.101-0.066-0.101,0
					v0.1L17.1,39.1c0,0.034-0.017,0.034-0.05,0c-0.016,0.016-0.016,0.041,0,0.075l-0.1-0.125L17,39.15l-0.2-0.25
					c-0.066-0.067-0.083-0.067-0.05,0c0,0.033,0.017,0.066,0.05,0.1l0.15,0.15c0.033,0.1,0,0.133-0.101,0.1l-0.1-0.15
					c-0.019-0.018-0.035-0.034-0.05-0.05v0.05l-0.3-0.449L16.7,39l-0.25-0.35c-0.066-0.067-0.084-0.117-0.05-0.15
					c0.133,0.134,0.133,0.083,0-0.15l0.35,0.45l0.1,0.05l-0.274-0.35l-0.125-0.25H16.6l0.15,0.15c-0.033-0.101-0.083-0.2-0.15-0.301
					c0.034,0.034,0.051,0.017,0.051-0.05c0-0.033,0.05-0.017,0.149,0.05c-0.066-0.199-0.066-0.3,0-0.3l0.15,0.15l-0.2-0.25
					c0.253,0.189,0.236,0.14-0.05-0.15v-0.024l0.024-0.025H16.7v0.025L16.675,37.5v0.025L16.65,37.5H16.675z M17.875,35.5
					l0.075-0.05c-0.023,0.047-0.057,0.08-0.101,0.1L17.875,35.5z M16.675,37.525L16.7,37.55l-0.05,0.05L16.675,37.525z M16.75,37.35
					c0.018,0.018,0.034,0.034,0.05,0.051l0.025-0.025L16.75,37.35z M18.3,39.1c0.2,0.2,0.283,0.267,0.25,0.2
					c0.167,0.167,0.2,0.233,0.101,0.2l-0.426-0.425l0.025-0.025C18.265,39.064,18.281,39.081,18.3,39.1z M16.6,38.55L16.5,38.4
					l0.075,0.1L16.6,38.55z M18.05,39.25L18,39.15l0.25,0.25l0.1,0.199c-0.066,0.034-0.166-0.033-0.3-0.199
					C18.35,39.6,18.35,39.55,18.05,39.25z M18.575,38.2c0.011-0.02,0.035-0.02,0.075,0l0.199,0.149
					C18.745,38.292,18.653,38.242,18.575,38.2z"/>
			</g>
		</g>
		<g>
			<g>
				<path style="fill-rule:evenodd;clip-rule:evenodd;fill:#826042;" d="M15.25,26.5l0.6,1.5c0.101,0.233,0.233,0.533,0.4,0.9
					c0.134,0.366,0.184,0.767,0.15,1.199c-0.167,0.167-0.25,0.284-0.25,0.351c-0.034,0.033-0.017,0.166,0.05,0.399h-0.15
					c0.101,0.034,0.134,0.101,0.101,0.2c-0.034,0.167-0.017,0.283,0.05,0.351c-0.131,0.325-0.322,0.575-0.575,0.75H15.6
					l-0.024,0.024c-0.016,0.008-0.032,0.017-0.05,0.025l0.125,0.25c0.033,0.1,0.033,0.166,0,0.2l-0.075-0.125
					c0.06,0.116,0.052,0.175-0.025,0.175c-0.066-0.066-0.1-0.05-0.1,0.05s-0.017,0.15-0.05,0.15l-0.15-0.5
					c-0.031,0.017-0.064,0.034-0.1,0.05L15.3,32.85L15.2,32.7c0.066,0.233,0.083,0.35,0.05,0.35l-0.4,0.05L14.8,32.95
					c0.067,0.267,0.034,0.399-0.1,0.399c-0.067-0.033-0.134,0-0.2,0.101c-0.033,0.066-0.083,0.05-0.15-0.05
					c-0.2,0.267-0.383,0.416-0.55,0.449l-0.025-0.225c-0.009,0.036-0.042,0.003-0.1-0.1c0.05,0.098,0.075,0.239,0.075,0.425
					c-0.133-0.134-0.233-0.033-0.3,0.3l-0.05-0.2c0,0.134-0.033,0.2-0.1,0.2c-0.1-0.066-0.167-0.1-0.2-0.1
					c-0.067-0.167-0.117-0.233-0.15-0.2l-0.05,0.5c-0.133,0-0.25-0.05-0.35-0.15c-0.066,0.167-0.183,0.283-0.35,0.351
					c-0.267,0.033-0.434,0.083-0.5,0.149v-0.2c-0.134,0.167-0.317,0.233-0.55,0.2c-0.267-0.066-0.433-0.083-0.5-0.05l0.1-0.35
					c-0.067-0.167-0.167-0.067-0.3,0.3c0-0.033-0.05-0.05-0.15-0.05c-0.1,0-0.133-0.051-0.1-0.15c-0.1,0.066-0.184,0.1-0.25,0.1
					c-0.112-0.14-0.237-0.231-0.375-0.274c0.08-0.087,0.104-0.146,0.075-0.175c-0.1-0.167-0.217-0.117-0.35,0.149
					c0-0.1-0.083-0.184-0.25-0.25c-0.167-0.066-0.216-0.166-0.15-0.3l-0.2,0.1c-0.1-0.366-0.25-0.583-0.45-0.649
					c0.167-0.033,0.233-0.084,0.2-0.15c-0.1,0.033-0.184,0.033-0.25,0c-0.167-0.133-0.217-0.366-0.15-0.7l0.2-0.649
					c-0.067-0.434,0.15-0.95,0.65-1.55l0.05,0.05C8.917,30.1,8.967,30.033,9.1,30c0.133,0,0.15-0.083,0.05-0.25
					c0.033,0.033,0.1,0.066,0.2,0.1C9.316,29.783,9.367,29.733,9.5,29.7c0.1,0,0.133-0.05,0.1-0.15l0.05,0.05
					c0.067,0.034,0.133,0,0.2-0.1c0.033-0.066,0.083-0.083,0.15-0.05l0.05,0.149c0.034,0.034,0.05,0,0.05-0.1
					c-0.034-0.1,0-0.083,0.1,0.05c0.033-0.033,0-0.1-0.1-0.2c0.133,0,0.267-0.083,0.4-0.25c0.066-0.066,0.167-0.199,0.3-0.399
					c0.039,0.013,0.081,0.038,0.125,0.075c-0.038-0.063-0.08-0.121-0.125-0.176l0.4-0.05c0.234-0.025,0.401-0.018,0.5,0.025
					c-0.008-0.103-0.025-0.211-0.05-0.325c0.367-0.233,0.917-0.616,1.65-1.15L15.25,26.5z M14.1,29.1
					c-0.038,0.025-0.087,0.059-0.15,0.101c-0.1-0.233-0.167-0.316-0.2-0.25c0.033,0.1,0.033,0.184,0,0.25
					c0,0.033,0.033,0.116,0.1,0.25c-0.166-0.066-0.249-0.066-0.25,0c-0.001-0.068-0.051-0.201-0.15-0.4l-0.1-0.149
					c0.033,0,0.033-0.051,0-0.15l-0.1,0.15c0,0.133,0.017,0.35,0.05,0.649l-0.2-0.399l0.15,0.649l-0.1-0.149l0.05,0.199
					C13.133,29.95,13.066,29.9,13,29.7l-0.1-0.2l-0.05,0.2v-0.05c-0.034-0.034-0.05,0-0.05,0.1c0.034,0.066,0.067,0.134,0.1,0.2
					h0.025c0,0.084-0.025,0.15-0.075,0.2L12.8,29.9v0.425c0.037,0.002,0.07,0.01,0.1,0.024l-0.2,0.301l0.2-0.15
					c0.2-0.134,0.3-0.15,0.3-0.05c0.033,0.1,0.083,0.133,0.15,0.1l-0.1,0.15c0.267-0.101,0.533-0.117,0.8-0.05l-0.1,0.3l0.2-0.3
					c0,0.166,0.033,0.133,0.1-0.101l0.05,0.05l-0.025-0.074L14.3,30.55l-0.025-0.05H14.3c0.125,0.013,0.242,0.046,0.35,0.1
					c-0.066-0.1-0.183-0.383-0.35-0.85l0.2-0.15l-0.2-0.05l0.15-0.1c0.033-0.033-0.05-0.05-0.25-0.05l0.3-0.051
					c-0.067,0-0.184-0.033-0.35-0.1h0.175c-0.083-0.002-0.125-0.019-0.125-0.05c0.015-0.031,0.023-0.056,0.025-0.075L14.2,29.15
					L14.175,29.1l-0.025-0.024V29.05C14.138,29.063,14.121,29.079,14.1,29.1z M11.25,31.45c-0.099-0.096-0.132-0.079-0.1,0.05
					c0,0.066-0.033,0.066-0.1,0l-0.2-0.25c0.1,0.167,0.083,0.217-0.05,0.15l0.25,0.25c0.034,0.133-0.017,0.116-0.15-0.051l0.1,0.2
					c-0.067-0.033-0.117-0.017-0.15,0.05c-0.043,0.022-0.11,0.006-0.2-0.05c-0.042-0.021-0.092-0.054-0.15-0.1l0.075,0.1
					c-0.041-0.023-0.082-0.057-0.125-0.1c-0.067-0.033-0.034,0.033,0.1,0.2c0.063,0.047,0.105,0.08,0.125,0.1l0.025,0.05
					l-0.05-0.024l-0.025,0.024h0.025l0.025,0.025L10.7,32.05L10.8,32c0.133-0.066,0.133,0.017,0,0.25l-0.15,0.25
					c0.067-0.1,0.1-0.134,0.1-0.1L10.9,32.1l0.125-0.024l0.025-0.025L11,32.3l0.1-0.149L11.05,32.3
					c0.067-0.066,0.117-0.133,0.15-0.2l-0.05,0.25l0.1-0.25l-0.05,0.45c0.133-0.399,0.267-0.566,0.4-0.5v0.4
					c0.033,0.1,0.066,0,0.1-0.3V32.05c0.029,0.088,0.045,0.071,0.05-0.05v0.2c0.066,0.2,0.066,0.517,0,0.95L11.8,33.1
					c0.026,0.131,0.026,0.239,0,0.325c0.059-0.176,0.059-0.368,0-0.575c0.044-0.021,0.069-0.113,0.075-0.274
					c0.024,0.043,0.05,0.002,0.075-0.125l-0.05-0.4l0.05,0.25v-0.35c0.03,0.061,0.047,0.01,0.05-0.15
					c0.008,0.024,0.016,0.049,0.025,0.075c-0.009-0.046-0.018-0.088-0.025-0.125c-0.103-0.205-0.194-0.38-0.275-0.525
					c-0.006,0.032-0.031,0.04-0.075,0.025c-0.066,0.066-0.167,0.033-0.3-0.1c0.1,0.166,0.1,0.233,0,0.199l-0.05-0.1l-0.05-0.05
					c0,0.033,0.017,0.066,0.05,0.1L11,31.1C11,31.165,11.083,31.282,11.25,31.45z M10.575,31.8c0.044,0.039,0.086,0.064,0.125,0.075
					c-0.014,0.019-0.047,0.011-0.1-0.025L10.575,31.8z M10.625,32.05l-0.375-0.2L10.4,32l-0.1-0.05c0.014,0.02,0.014,0.036,0,0.05
					h-0.05l0.25,0.05l0.05,0.025c-0.018,0.01-0.034,0.018-0.05,0.024h0.075l-0.025-0.024c0.018-0.008,0.035-0.017,0.05-0.025H10.625
					z M10.7,31.875L10.65,31.8l0.1,0.101C10.732,31.9,10.715,31.892,10.7,31.875z M12.975,32.575L13.05,32.8l0.05-0.149V32.6
					C13.054,32.595,13.012,32.587,12.975,32.575z M11.875,32.575c-0.009-0.019-0.017-0.043-0.025-0.075l0.025-0.025
					C11.875,32.509,11.875,32.542,11.875,32.575z"/>
			</g>
		</g>
	</g>
	<g>
		<g>
			<g>
				<path style="fill-rule:evenodd;clip-rule:evenodd;fill:#826042;" d="M14.65,26.25l0.25,0.35c0.133,0.134,0.133,0.101,0-0.1
					l0.05,0.1L14.65,26.25L14.6,26.1l0.05,0.075c-0.044-0.072-0.044-0.097,0-0.075c0.133,0.134,0.133,0.084,0-0.149l0.3,0.45
					l0.1,0.05L14.7,26l0.15,0.15c-0.167-0.2-0.233-0.301-0.2-0.301h0.2l0.1,0.15c-0.034-0.1-0.083-0.2-0.15-0.3
					c0.034,0.033,0.05,0.017,0.05-0.05c0-0.034,0.05-0.017,0.15,0.05c-0.067-0.2-0.067-0.3,0-0.3l0.15,0.125
					C15.1,25.458,15.05,25.384,15,25.3l-0.075-0.149h0.025v-0.025l0.025-0.025c0.026,0.005,0.068,0.022,0.125,0.051
					c0.134,0.133,0.2,0.166,0.2,0.1l-0.274-0.225L15,25.05l-0.025,0.05H14.95v0.025h-0.025L14.9,25.1l0.05-0.1
					c-0.034,0.063-0.05,0.063-0.05,0h-0.025c-0.05,0.007-0.075-0.043-0.075-0.15l0.05-0.149c-0.097,0.226-0.114,0.218-0.05-0.025
					l-0.05,0.175c-0.033-0.066-0.083-0.083-0.15-0.05c-0.067,0.101-0.117,0.15-0.15,0.15c0.133-0.467,0.15-0.601,0.05-0.4
					c-0.033,0.101-0.05,0.117-0.05,0.05l0.05-0.25l-0.1,0.301c0-0.2-0.017-0.267-0.05-0.2l0.05-0.15c-0.1,0.233-0.2,0.434-0.3,0.601
					c-0.3,0.133-0.517,0.216-0.65,0.25c-0.067-0.034-0.167-0.051-0.3-0.051s-0.233-0.05-0.3-0.149
					c-0.034-0.233-0.067-0.316-0.1-0.25c-0.006,0.133-0.022,0.2-0.05,0.2h-0.25v0.149c-0.067,0.101-0.167,0.084-0.3-0.05
					c-0.133-0.167-0.233-0.233-0.3-0.2c-0.034-0.033-0.067-0.05-0.1-0.05c-0.033,0.033-0.05,0.066-0.05,0.1
					c-0.267-0.466-0.417-0.6-0.45-0.399l-0.1-0.9c0.033-0.267,0.083-0.383,0.15-0.35c0.1,0.033,0.15-0.017,0.15-0.15l0.05,0.3
					c0.033-0.5,0.167-0.45,0.4,0.15v0.15l0.05-0.25V23.6L12,23.35l0.05,0.351v-0.25c0.034-0.233,0.067-0.316,0.1-0.25
					c0.031,0.063,0.048,0.063,0.05,0v0.149c0.033-0.1,0.133-0.233,0.3-0.399v0.3l0.05-0.35c0,0.167,0.034,0.133,0.1-0.1v0.05
					l0.05-0.15v0.2c0.033-0.133,0.05-0.15,0.05-0.05c0.032,0.064,0.049,0.064,0.05,0v0.05c0.034,0.067,0.067,0.017,0.1-0.15
					l-0.05,0.45c0.1-0.167,0.233-0.25,0.4-0.25v0.3l0.1-0.2v0.15L13.4,23l-0.05,0.3c0.033-0.066,0.083-0.149,0.15-0.25l-0.05,0.15
					c0.031,0.031,0.064,0.006,0.1-0.075L13.5,23.25c0,0.119,0.017,0.119,0.05,0l0.15-0.3V23c0.066,0,0.116-0.017,0.15-0.05
					c0,0.066-0.017,0.184-0.05,0.35c0.067-0.066,0.117-0.233,0.15-0.5c0,0.2,0.033,0.233,0.1,0.1l-0.1,0.4v0.2l-0.05,0.15
					l0.05-0.101l0.2-0.6L14.1,23.4l0.15-0.65c0.031,0,0.031,0.058,0,0.175l0.05-0.175L14.35,23l-0.05,0.15l0.05-0.101v0.05
					c0.066-0.066,0.1-0.167,0.1-0.3l-0.05,0.1c0.033-0.167,0.083-0.25,0.15-0.25l-0.1,0.25l0.25-0.4l-0.1,0.2
					c0,0.066,0.033,0.05,0.1-0.05c0.063-0.063,0.08-0.047,0.05,0.05l0.05-0.15c-0.033,0.167-0.033,0.217,0,0.15v0.05
					c0.032-0.032,0.049-0.065,0.05-0.1v0.05c0.133-0.267,0.2-0.284,0.2-0.05l0.101-0.3l-0.051,0.2
					c-0.018,0.053-0.025,0.095-0.024,0.125L15.05,22.7c-0.033,0.133-0.017,0.133,0.05,0l0.051-0.1v0.05L15.1,22.9l0.051-0.15
					l0.05-0.05c0.02,0.02,0.036,0.003,0.05-0.05c0,0.038,0,0.071,0,0.1L15.2,23l0.1-0.25c0.033,0.033,0.084-0.05,0.15-0.25v0.3
					l0.149-0.15l-0.05,0.1c0,0.067,0.017,0.067,0.05,0l-0.1,0.35l0.2-0.45c-0.101,0.267-0.084,0.317,0.05,0.15l-0.1,0.25
					c-0.101,0.267-0.067,0.25,0.1-0.05l0.1-0.3c0,0.066,0.017,0.083,0.051,0.05c0.033-0.033,0.033,0,0,0.1
					c0,0.1,0.033,0.05,0.1-0.15c0,0.066,0.033,0.117,0.1,0.15c0.055,0,0.055,0.066,0,0.2l0.025,0.025l0.025-0.025
					c-0.015,0.029-0.031,0.054-0.051,0.075l-0.05,0.125c-0.033,0.134,0.066,0.033,0.3-0.3L16.3,23.1l0.15-0.149
					c0.033,0.033-0.05,0.184-0.25,0.45l0.149-0.15l-0.125,0.225c0.021-0.034,0.046-0.059,0.075-0.074c0,0.033,0.017,0.05,0.05,0.05
					l0.101-0.2l0.2-0.1L16.55,23.3c0,0.062,0.059,0.037,0.175-0.075L16.6,23.35c-0.133,0.134-0.149,0.167-0.05,0.101l0.05-0.025
					l-0.05,0.125l0.101-0.1c0.1-0.066,0.199-0.101,0.3-0.101L16.85,23.5v0.05c-0.033,0.033,0.017,0.033,0.15,0l-0.05,0.05H17.1
					C17.033,23.7,16.9,23.8,16.7,23.9c0.033,0.033,0.2-0.017,0.5-0.15c-0.033,0.033-0.017,0.083,0.05,0.15
					c0.066,0.033,0.05,0.083-0.05,0.149h0.149c0,0.066,0.034,0.15,0.101,0.25c0.033,0.066-0.017,0.134-0.15,0.2h-0.35l0.149,0.05
					l0.351-0.05c0.133,0.134,0.1,0.217-0.101,0.25h0.125c-0.237,0.006-0.296,0.039-0.175,0.1l0.2,0.051h-0.2l0.2,0.05h-0.2
					c0.4,0.133,0.467,0.2,0.2,0.2L17.25,25.1L17.5,25.2c-0.1,0.033-0.233,0.033-0.4,0c0.367,0.233,0.467,0.434,0.301,0.6
					c0.046,0.033,0.046,0.05,0,0.05L17,25.65c0.134,0.1,0.217,0.166,0.25,0.199l0.1,0.051c0.034,0.033,0.051,0.066,0.051,0.1
					c-0.094,0-0.202-0.059-0.325-0.175L17.15,25.9l-0.801-0.45H16.4L16.05,25.3l0.55,0.3c0.334,0.2,0.483,0.317,0.45,0.351
					l-0.2-0.15c0.066,0.066,0.066,0.1,0,0.101c0.068,0.001,0.185,0.067,0.351,0.199c-0.134-0.1-0.217-0.133-0.25-0.1l0.3,0.2
					c0.2,0.133,0.25,0.184,0.15,0.149C17.1,26.116,16.9,26,16.8,26l0.55,0.35L17,26.15c0.233,0.199,0.217,0.216-0.05,0.05l0.2,0.149
					L16.9,26.2l0.05,0.1l-0.101-0.05c0,0.066,0.067,0.134,0.2,0.2c0.044,0.021,0.078,0.038,0.101,0.05l0.1,0.1l-0.1-0.05l0.1,0.15
					c0.033,0.066-0.066,0.017-0.3-0.15l0.25,0.2c0.033,0.066,0.017,0.083-0.05,0.05L17,26.6l-0.3-0.149l0.35,0.3l-0.2-0.1l0.2,0.199
					L16.65,26.6l-0.25-0.25V26.4L16.05,26.1c0,0.034,0.017,0.067,0.05,0.101l0.75,0.649c0,0.034-0.1-0.033-0.3-0.199
					c-0.115-0.077-0.174-0.103-0.175-0.075L16.5,26.65v0.05c0.2,0.2,0.283,0.25,0.25,0.149c0.2,0.2,0.25,0.284,0.15,0.25l-0.4-0.35
					c0,0.033-0.033,0.033-0.1,0l0.1,0.1c0.066,0.101,0.066,0.134,0,0.101l-0.05-0.05l-0.2-0.15l0.2,0.25l0.1,0.2
					c-0.033,0.033-0.116-0.033-0.25-0.2c0.2,0.134,0.184,0.083-0.05-0.15c0.066,0,0-0.083-0.2-0.25L15.6,26.2l0.051,0.1L16,26.6
					c-0.059,0-0.025,0.067,0.1,0.2L15.9,26.6c0,0.067-0.051,0.101-0.15,0.101c0.2,0.133,0.283,0.233,0.25,0.3
					c0.066,0,0.2,0.1,0.4,0.3l-0.2-0.149c0.1,0.1,0.083,0.116-0.05,0.05c-0.2-0.233-0.351-0.417-0.45-0.55
					c0.033,0.1-0.033,0.066-0.2-0.101l0.2,0.3c-0.101-0.066-0.15-0.066-0.15,0l0.05,0.101L15.2,26.6l0.1,0.101
					c0.034,0.035,0.067,0.118,0.101,0.25l-0.2-0.3v0.1c-0.101-0.1-0.15-0.184-0.15-0.25c-0.066-0.066-0.1-0.066-0.1,0
					c0,0.033,0.017,0.066,0.05,0.1l0.15,0.15c0.066,0.1,0.05,0.134-0.051,0.1L14.95,26.7c-0.019-0.019-0.035-0.035-0.05-0.05v0.05
					L14.65,26.25z M16.6,23.4l0.2-0.101c-0.081,0.054-0.147,0.096-0.2,0.125V23.4z M16.85,27.1L16.9,27.2L16.75,27.1
					c0.134,0.134,0.184,0.2,0.15,0.2l-0.25-0.2c0.09,0.03,0.057-0.036-0.101-0.199L16.85,27.1z"/>
			</g>
		</g>
		<g>
			<g>
				<path style="fill-rule:evenodd;clip-rule:evenodd;fill:#826042;" d="M15.8,21.55c0.101,0.034,0.15-0.017,0.15-0.15L16,21.7
					c0.066-0.4,0.2-0.35,0.4,0.15V22c0.033,0.033,0.05-0.05,0.05-0.25l0.05,0.2V21.7l0.05,0.35V21.8
					c0.033-0.233,0.066-0.316,0.101-0.25c0.031,0.063,0.048,0.063,0.05,0v0.15c0.033-0.1,0.133-0.233,0.3-0.4v0.275
					c0.004-0.154,0.037-0.262,0.1-0.325c0,0.167,0.017,0.133,0.051-0.1v0.05c0.033,0.1,0.05,0.05,0.05-0.15l0.05,0.2
					c0.006,0.054,0.022,0.054,0.05,0V21.2c0.001,0.064,0.018,0.064,0.05,0v0.05l0.025,0.025L17.35,21.5c0.067-0.133,0.2-0.2,0.4-0.2
					v0.3l0.1-0.2v0.15c0,0.067,0.034,0,0.101-0.2l-0.05,0.3L18,21.4l-0.05,0.15c0.031,0.031,0.064,0.006,0.1-0.075L18,21.6
					c0.026,0.13,0.051,0.114,0.075-0.05c0.064-0.08,0.114-0.146,0.149-0.2c0.083-0.003,0.125-0.02,0.125-0.05
					c0,0.067-0.017,0.184-0.05,0.35c0.066-0.066,0.117-0.233,0.15-0.5c0,0.2,0.033,0.233,0.1,0.1c-0.033,0.267-0.066,0.4-0.1,0.4
					v0.2L18.4,22l0.1-0.1l0.2-0.6L18.6,21.75l0.2-0.65l-0.05,0.2l0.1-0.2v0.25L18.8,21.5l0.05-0.1v0.05
					c0.051-0.051,0.084-0.117,0.101-0.2l0.1-0.25L19,21.25l0.2-0.4L19.15,21c0,0.1,0.017,0.1,0.05,0
					c0.063-0.064,0.08-0.047,0.05,0.05l0.05-0.15v0.15c0,0.1,0.017,0.083,0.05-0.05v0.05c0.134-0.267,0.2-0.283,0.2-0.05l0.101-0.3
					L19.6,20.9v0.15l0.051-0.1c0.033-0.034,0.05-0.017,0.05,0.05L19.6,21.25L19.7,21.1l0.05-0.05l0.025-0.125
					c-0.008,0.069,0.001,0.127,0.024,0.175c0.033,0.033,0.084-0.05,0.15-0.25c0,0.1,0.017,0.2,0.05,0.3L20.1,21l-0.05,0.1
					c0,0.066,0.017,0.066,0.05,0L20,21.45c0.045-0.023,0.087-0.098,0.125-0.225c0.006,0.047,0.048,0.022,0.125-0.075l-0.1,0.25
					c-0.101,0.267-0.067,0.25,0.1-0.05l0.125-0.25c-0.042,0.096-0.034,0.129,0.025,0.1c0,0.1,0.033,0.05,0.1-0.15
					c0,0.067,0.033,0.117,0.1,0.15c0.067,0,0.051,0.1-0.05,0.3c0.02,0,0.036-0.008,0.05-0.025L20.55,21.6
					c-0.033,0.133,0.084,0.033,0.351-0.3L20.8,21.45L21,21.3l-0.3,0.45l0.2-0.15l-0.15,0.25c0.066-0.1,0.1-0.133,0.1-0.1v0.05
					l0.101-0.2l0.2-0.1c-0.101,0.1-0.117,0.15-0.051,0.15l-0.05,0.15l0.05-0.025L21.05,21.9l0.101-0.1c0.1-0.066,0.199-0.1,0.3-0.1
					c0.033,0,0.017,0.05-0.05,0.15L21.35,21.9c-0.033,0.067,0.017,0.067,0.15,0l-0.05,0.05h0.2c-0.067,0.066-0.2,0.167-0.4,0.3
					c0,0.067,0.15,0.017,0.45-0.15c-0.033,0.033-0.017,0.066,0.05,0.1c0.066,0.066,0.05,0.133-0.05,0.2h0.2
					c0.199,0.2,0.166,0.35-0.101,0.45h-0.274c0.081,0.002,0.105,0.019,0.074,0.05l0.351-0.05c0.133,0.133,0.1,0.216-0.101,0.25H22
					c-0.195,0.005-0.262,0.039-0.2,0.101H22l-0.2,0.05c0.267,0.033,0.334,0.05,0.2,0.05h-0.2c0.3,0.101,0.367,0.167,0.2,0.2
					l-0.25-0.05l0.25,0.1c-0.1,0.033-0.233,0.033-0.4,0c0.334,0.2,0.45,0.4,0.351,0.601L21.8,24.1
					c0.134,0.067,0.167,0.101,0.101,0.101L21.55,24l0.2,0.2l0.1,0.05c0.034,0,0.067,0.033,0.101,0.1
					c-0.141,0-0.249-0.05-0.325-0.149c0.028,0.019,0.053,0.035,0.075,0.05l-0.101-0.1l0.025,0.05
					c-0.267-0.174-0.509-0.308-0.725-0.4L20.55,23.65l0.55,0.3c0.367,0.2,0.534,0.316,0.5,0.35c-0.033-0.033-0.1-0.083-0.199-0.149
					H21.35l0.051,0.1c0.1,0,0.216,0.066,0.35,0.2c-0.167-0.101-0.25-0.134-0.25-0.101l0.3,0.2c0.167,0.134,0.2,0.184,0.101,0.15
					C21.6,24.467,21.4,24.35,21.3,24.35l0.55,0.351l-0.35-0.2c0.233,0.2,0.217,0.217-0.05,0.05l0.2,0.15l-0.25-0.15l0.1,0.101
					L21.35,24.6l0.2,0.2l0.125,0.05l0.075,0.101l-0.1-0.05l0.1,0.1l-0.15-0.1l0.15,0.149c0.033,0.066-0.066,0.017-0.3-0.149
					l-0.075-0.125L21.25,24.75l0.2,0.15L21.7,25.1c0.033,0.067,0.017,0.084-0.05,0.051l-0.15-0.2l-0.3-0.15l0.35,0.3
					c0,0.029-0.05-0.004-0.149-0.1l0.199,0.2l-0.449-0.25L20.9,24.7l-0.351-0.25c0,0.033,0.017,0.066,0.05,0.1l0.75,0.65
					c0,0.033-0.1-0.033-0.3-0.2c-0.147-0.118-0.164-0.118-0.05,0c0.015,0.015,0.031,0.031,0.05,0.05
					c0.167,0.167,0.233,0.217,0.2,0.15c0.2,0.2,0.25,0.267,0.15,0.2c-0.169-0.097-0.302-0.196-0.4-0.301c0,0.034-0.017,0.034-0.05,0
					c-0.027,0-0.011,0.034,0.05,0.101c0.066,0.1,0.066,0.133,0,0.1l-0.05-0.05l-0.2-0.15c-0.037-0.036-0.087-0.087-0.15-0.149
					l-0.5-0.4l0.4,0.4c-0.059,0-0.025,0.066,0.1,0.2l-0.199-0.2c0,0.066-0.051,0.1-0.15,0.1c-0.017-0.016-0.033-0.033-0.05-0.05
					c0.066,0.1,0.017,0.066-0.15-0.1l0.15,0.3c-0.066-0.066-0.101-0.066-0.101,0v0.1l-0.35-0.35l0.1,0.149l-0.05-0.05
					c0.034,0.035,0.067,0.119,0.101,0.25L19.7,25l-0.025,0.025L19.55,24.85c-0.066-0.066-0.1-0.066-0.1,0l0.05,0.101l0.15,0.149
					C19.717,25.2,19.7,25.233,19.6,25.2l-0.1-0.15l0.05,0.101L19.375,25l-0.225-0.4l0.25,0.351c0.075,0.075,0.092,0.075,0.05,0
					l-0.351-0.5c-0.055-0.088-0.038-0.088,0.051,0c0.133,0.133,0.133,0.083,0-0.15l0.3,0.45l0.1,0.05l-0.35-0.45l0.149,0.15
					c-0.166-0.2-0.233-0.3-0.199-0.3h0.199l0.101,0.149c-0.033-0.1-0.084-0.199-0.15-0.3C19.366,24.083,19.4,24.066,19.4,24
					l0.1,0.05c-0.066-0.2-0.066-0.3,0-0.3l0.2,0.15c0.066,0.066,0.1,0.083,0.1,0.05l-0.3-0.3c0.187,0.124,0.17,0.074-0.05-0.15
					v-0.025l-0.025-0.024v0.024L19.4,23.45l0.05-0.101c-0.066,0.128-0.101,0.145-0.101,0.051L19.4,23.35
					C19.333,23.384,19.3,23.333,19.3,23.2l0.05-0.15V23l-0.1,0.2c-0.033-0.066-0.083-0.084-0.15-0.05
					c-0.066,0.1-0.116,0.149-0.149,0.149c0.133-0.466,0.149-0.6,0.05-0.4c-0.033,0.1-0.05,0.117-0.05,0.05L19,22.7L18.9,23
					c0-0.2-0.017-0.267-0.051-0.2l0.051-0.15c-0.101,0.233-0.184,0.417-0.25,0.55c-0.334,0.166-0.567,0.25-0.7,0.25
					c-0.267,0.066-0.467,0.017-0.601-0.15V23c0-0.033-0.033-0.017-0.1,0.05v-0.1l-0.05,0.3H17V23l-0.05,0.2v0.2
					c-0.066,0.1-0.167,0.083-0.3-0.051c-0.134-0.166-0.233-0.233-0.301-0.199c-0.033-0.034-0.083-0.017-0.149,0.05
					c-0.066-0.2-0.15-0.35-0.25-0.45c-0.101-0.1-0.167-0.083-0.2,0.05l-0.05-0.95C15.7,21.617,15.733,21.517,15.8,21.55z
					 M18.225,21.35H18.2l0.05-0.05C18.242,21.315,18.234,21.332,18.225,21.35z M18.05,21.6l0.05-0.2
					c-0.007,0.065-0.015,0.115-0.024,0.15L18.05,21.6z M20.65,21.4c-0.015,0.029-0.031,0.054-0.051,0.075L20.7,21.25L20.65,21.4z
					 M21.1,21.75l0.2-0.1c-0.081,0.054-0.147,0.096-0.2,0.125V21.75z"/>
			</g>
		</g>
		<g>
			<g>
				<path style="fill-rule:evenodd;clip-rule:evenodd;fill:#826042;" d="M19,14.85c0.134,0.367,0.184,0.767,0.15,1.2
					c-0.167,0.133-0.25,0.233-0.25,0.3c-0.034,0.033-0.034,0.183,0,0.45l-0.051-0.025C18.91,16.818,18.927,16.893,18.9,17
					c-0.034,0.167-0.017,0.283,0.05,0.35c-0.182,0.333-0.374,0.566-0.575,0.7c-0.028,0.021-0.054,0.038-0.075,0.05
					c-0.021,0.022-0.047,0.047-0.075,0.075L18.35,18.4c0.034,0.017,0.059,0.017,0.075,0c0.006,0.1-0.02,0.15-0.075,0.15l-0.1-0.2
					c0.095,0.2,0.095,0.3,0,0.3c-0.066-0.066-0.1-0.05-0.1,0.05c0.033,0.1,0.033,0.15,0,0.15l-0.176-0.5
					c-0.041,0.029-0.083,0.054-0.125,0.075L18,18.8l-0.1-0.15C18,18.883,18.017,19,17.95,19L17.6,19.05l-0.1-0.15
					c0.066,0.167,0.066,0.267,0,0.3c-0.033,0.033-0.05,0.066-0.05,0.1c-0.066-0.033-0.134,0-0.2,0.1c-0.066,0.033-0.134,0-0.2-0.1
					c-0.166,0.3-0.333,0.45-0.5,0.45L16.5,19.5c0,0.125-0.033,0.117-0.1-0.025c0.033,0.076,0.05,0.201,0.05,0.375
					c-0.101-0.1-0.184,0.017-0.25,0.35L16.15,20c0,0.133-0.034,0.2-0.101,0.2c-0.1-0.067-0.184-0.1-0.25-0.1l-0.1-0.2
					c0,0.067-0.033,0.233-0.101,0.5l-0.3-0.15c-0.066,0.167-0.2,0.283-0.4,0.35c-0.233,0.033-0.383,0.083-0.45,0.15l-0.05-0.2
					c-0.1,0.167-0.267,0.233-0.5,0.2c-0.3-0.067-0.483-0.083-0.55-0.05l0.15-0.35c-0.133-0.2-0.233-0.1-0.3,0.3
					c0-0.033-0.05-0.05-0.15-0.05c-0.1,0-0.133-0.067-0.1-0.2c-0.134,0.1-0.233,0.15-0.3,0.15c-0.058-0.116-0.167-0.208-0.325-0.275
					c0.112-0.117,0.138-0.175,0.075-0.175c-0.066-0.033-0.117-0.05-0.15-0.05c-0.033-0.033-0.1,0.034-0.2,0.2
					c0-0.1-0.083-0.183-0.25-0.25c-0.167-0.067-0.233-0.167-0.2-0.3l-0.2,0.1c-0.066-0.367-0.2-0.583-0.4-0.65
					c0.133-0.033,0.2-0.083,0.2-0.15c-0.1,0.033-0.184,0.033-0.25,0c-0.167-0.133-0.217-0.367-0.15-0.7l0.15-0.65
					c-0.034-0.467,0.183-0.983,0.65-1.55l0.1,0.05c-0.034-0.1,0.017-0.167,0.15-0.2c0.1,0,0.1-0.083,0-0.25
					c0.066,0.033,0.15,0.066,0.25,0.1c-0.034-0.066,0.017-0.117,0.15-0.15c0.08,0,0.113-0.033,0.1-0.1c0.066,0.034,0.133,0,0.2-0.1
					c0.034-0.067,0.1-0.083,0.2-0.05l0.05,0.15c0.034,0.034,0.05,0,0.05-0.1c-0.034-0.1,0-0.083,0.1,0.05l-0.1-0.2
					c0.133,0,0.267-0.083,0.4-0.25c0.066-0.066,0.15-0.2,0.25-0.4c0.046,0.012,0.088,0.028,0.125,0.05
					c-0.032-0.049-0.074-0.099-0.125-0.15c0,0.033,0.316,0.016,0.95-0.05c-0.009-0.089-0.025-0.189-0.05-0.3
					c1.034-0.733,1.567-1.117,1.6-1.15L16.25,13l1.7-0.55l0.6,1.5C18.65,14.183,18.8,14.483,19,14.85z M15.55,15.6
					c-0.2-0.2-0.166-0.1,0.101,0.3v-0.1c0.033,0.133,0.017,0.233-0.051,0.3l-0.1-0.25c0.025,0.206,0.034,0.356,0.025,0.45
					c0.048-0.017,0.09-0.017,0.125,0l-0.2,0.3l0.2-0.15c0.166-0.133,0.267-0.15,0.3-0.05c0,0.1,0.05,0.133,0.149,0.1L16,16.6
					c0.134-0.033,0.283-0.033,0.45,0c0.166,0,0.283,0,0.35,0l-0.1,0.275c0.07-0.183,0.138-0.275,0.2-0.275
					c0,0.167,0.033,0.133,0.1-0.1v-0.05h0.025v0.05h0.024l0.05,0.05v-0.1c0.108,0.021,0.208,0.054,0.301,0.1
					c-0.134-0.2-0.267-0.483-0.4-0.85l0.25-0.15c-0.066-0.066-0.15-0.083-0.25-0.05l0.15-0.1c0.066-0.066,0-0.083-0.2-0.05
					l0.25-0.05c-0.066,0-0.167-0.033-0.3-0.1l0.149-0.05c-0.099,0.031-0.132,0.014-0.1-0.05c0-0.033-0.017-0.05-0.05-0.05V15
					c-0.134,0.067-0.2,0.117-0.2,0.15c-0.101-0.233-0.167-0.333-0.2-0.3c0.033,0.1,0.033,0.2,0,0.3c0,0.033,0.033,0.117,0.1,0.25
					c-0.166-0.066-0.25-0.066-0.25,0c-0.133-0.233-0.183-0.367-0.149-0.4L16.1,14.85l-0.05-0.15c-0.033,0.133-0.066,0.183-0.1,0.15
					c0.1,0.4,0.116,0.617,0.05,0.65c-0.071-0.167-0.122-0.284-0.15-0.35l0.15,0.6c-0.066-0.167-0.116-0.217-0.15-0.15l0.101,0.2
					c-0.101,0-0.184-0.05-0.25-0.15l-0.05-0.2l-0.051,0.2L15.55,15.6z M15.35,16.35c0.05-0.025,0.1-0.042,0.15-0.05l-0.025-0.05
					l-0.024-0.1c-0.066-0.033-0.101,0-0.101,0.1v0.025c0.034-0.008,0.075-0.017,0.125-0.025L15.35,16.35z M13.55,17.35l0.25,0.25
					c0.033,0.131-0.034,0.115-0.2-0.05c0.066,0.069,0.1,0.136,0.1,0.2c-0.067-0.033-0.117-0.017-0.15,0.05
					c-0.033,0.034-0.133-0.017-0.3-0.15c0,0.067,0.033,0.117,0.1,0.15l0.025-0.025l0.075,0.075c-0.055,0-0.13-0.05-0.225-0.15
					c0.109,0.12,0.185,0.203,0.225,0.25l-0.05,0.025L13.3,17.9l0.1,0.1v-0.025L13.425,18l0.05-0.025L13.5,17.95L13.6,18
					c0.033,0,0.017,0.067-0.05,0.2l0.1-0.15c0.061-0.06,0.077-0.027,0.05,0.1c-0.035,0.089-0.019,0.123,0.05,0.1l0.025-0.05
					c0.01-0.027,0.035-0.06,0.075-0.1l-0.05,0.15c0.1-0.2,0.15-0.267,0.15-0.2v0.4c0.133-0.333,0.25-0.483,0.35-0.45v0.1
					c0.029,0.087,0.046,0.071,0.05-0.05v0.35c0.033,0.1,0.066,0,0.1-0.3c-0.034,0.1-0.05,0.066-0.05-0.1
					c0.033,0.1,0.05,0.067,0.05-0.1l0.05,0.4v-0.15c0.033,0.2,0.033,0.517,0,0.95l0.05-0.05c0.026,0.13,0.026,0.239,0,0.325
					c0.059-0.176,0.059-0.368,0-0.575c0.025-0.024,0.042-0.141,0.05-0.35c0.033,0.133,0.05,0.117,0.05-0.05V18l0.05,0.25l-0.05-0.35
					c0.043,0.044,0.061,0.035,0.05-0.025l0.1,0.525c0.014-0.094,0.022-0.186,0.025-0.275c-0.01-0.123-0.035-0.24-0.075-0.35
					c-0.015-0.025-0.031-0.051-0.05-0.075c-0.094-0.188-0.177-0.354-0.25-0.5H14.4c-0.1,0.033-0.2,0-0.3-0.1
					c0.1,0.167,0.1,0.233,0,0.2l-0.05-0.1C14.017,17.167,14,17.183,14,17.25L13.7,17l0.25,0.4c-0.067-0.066-0.1-0.05-0.1,0.05
					c0.033,0.1,0,0.1-0.1,0c0-0.1-0.05-0.184-0.15-0.25c-0.1-0.1-0.133-0.1-0.1,0L13.55,17.35z M13.7,18.15
					c0.024-0.036,0.057-0.086,0.1-0.15l-0.1,0.2V18.15z M15.725,18.525L15.8,18.75l0.05-0.15v-0.05
					C15.807,18.54,15.765,18.532,15.725,18.525z M13.15,18.05h0.125l-0.05-0.025C13.2,18.034,13.175,18.042,13.15,18.05z"/>
			</g>
		</g>
	</g>
</g>
</svg>
