<?xml version="1.0" encoding="iso-8859-1"?>
<!-- Generator: Adobe Illustrator 15.1.0, SVG Export Plug-In . SVG Version: 6.00 Build 0)  -->
<!DOCTYPE svg PUBLIC "-//W3C//DTD SVG 1.1//EN" "http://www.w3.org/Graphics/SVG/1.1/DTD/svg11.dtd">
<svg version="1.1" id="paper_talismen__x28_group_and_single_x29_"
	 xmlns="http://www.w3.org/2000/svg" xmlns:xlink="http://www.w3.org/1999/xlink" x="0px" y="0px" width="31.1px" height="47.5px"
	 viewBox="0 0 31.1 47.5" style="enable-background:new 0 0 31.1 47.5;" xml:space="preserve">
<symbol  id="FlashAICB_x2F_paper_talismen__x28_group_and_single_x29__x2F__x3C_Path_x3E__x5F_2" viewBox="0 -47.5 20.4 47.5">
	<g id="Layer_1_2_">
		<polygon style="fill-rule:evenodd;clip-rule:evenodd;fill:#FFECCD;" points="0.2,-47.5 0,-2.75 20.2,0 20.4,-44.75 		"/>
	</g>
</symbol>
<g>
	<g>
		
			<use xlink:href="#FlashAICB_x2F_paper_talismen__x28_group_and_single_x29__x2F__x3C_Path_x3E__x5F_2"  width="20.4" height="47.5" y="-47.5" transform="matrix(1 0 0 -1 5.2998 0)" style="overflow:visible;opacity:0.5;enable-background:new    ;"/>
		<polygon style="fill-rule:evenodd;clip-rule:evenodd;fill:#24200E;" points="31.1,6.9 18.55,8.55 18.55,5.4 31.1,3.75 		"/>
		<polygon style="fill-rule:evenodd;clip-rule:evenodd;fill:#24200E;" points="12.5,9.35 0,10.95 0,7.85 12.55,6.2 		"/>
	</g>
	<g>
		<g>
			<g>
				<path style="fill-rule:evenodd;clip-rule:evenodd;fill:#825F3E;" d="M16.95,37.55V38c0.066-0.134,0.1-0.366,0.1-0.7
					c0.066,0.134,0.117,0.167,0.15,0.101L17.1,38v0.4L17.15,38.3l0.199-0.8l-0.05,0.55l0.15-0.85c-0.033,0.233-0.033,0.316,0,0.25
					l0.05-0.3c0,0.033,0.017,0.149,0.05,0.35l-0.05,0.25l0.1-0.15v0.051c0.023-0.093,0.04-0.192,0.051-0.301l0.1-0.3l-0.05,0.3
					c0.066-0.267,0.149-0.449,0.25-0.55c-0.048,0.168-0.081,0.26-0.101,0.275C17.889,37.148,17.938,37.123,18,37
					c0.052-0.052,0.077-0.044,0.075,0.025L18.1,36.85v0.25L18.2,37c0.024-0.046,0.059-0.079,0.1-0.1
					c0.066-0.067,0.101-0.051,0.101,0.05c0.033-0.066,0.083-0.184,0.149-0.351l-0.075,0.375L18.55,36.9c0.033-0.034,0.033,0,0,0.1
					l-0.1,0.3L18.6,37c0.034,0.033,0.067-0.033,0.101-0.2c0,0.066,0.017,0.101,0.05,0.101s0.017,0.066-0.05,0.199L18.6,37.45
					l0.2-0.5V37.1L18.9,36.9c0,0.066,0.033,0.033,0.1-0.101c0,0.033,0.017,0.084,0.05,0.15c0.033,0.033,0.033,0.116,0,0.25
					c0.134-0.2,0.2-0.25,0.2-0.15l-0.1,0.15c0,0.066,0.033,0.05,0.1-0.05l-0.15,0.5L19.45,37.1c-0.066,0.167-0.05,0.217,0.05,0.15
					s0.116-0.033,0.05,0.1c-0.133,0.167-0.217,0.267-0.25,0.301c-0.1,0.166-0.083,0.199,0.05,0.1c0.134-0.134,0.184-0.167,0.15-0.1
					l0.25-0.351c0.167-0.1,0.15-0.033-0.05,0.2c0.1-0.066,0.2-0.116,0.3-0.15c-0.066,0.101-0.05,0.184,0.05,0.25
					c0.066,0.067,0,0.2-0.2,0.4c0.101,0,0.167-0.017,0.2-0.05c0.08-0.08,0.104-0.121,0.075-0.125L20.2,37.8
					c-0.033,0.101-0.167,0.2-0.4,0.3c-0.033,0.067,0.05,0.051,0.25-0.05c0.267-0.1,0.384-0.116,0.351-0.05l-0.2,0.15l0.3-0.101
					c0,0.033-0.2,0.15-0.6,0.351h0.3L19.85,38.55c0.075-0.024,0.142-0.041,0.2-0.05c-0.133,0.066-0.133,0.1,0,0.1L20.3,38.4h0.3
					c-0.133,0.033-0.199,0.083-0.199,0.149c0.166-0.033,0.25-0.033,0.25,0s-0.067,0.066-0.2,0.101c0.241-0.055,0.309-0.055,0.2,0
					L20.35,38.7l-0.1,0.1l0.25-0.1l-0.1,0.05c0.166-0.033,0.3-0.017,0.399,0.05L20.6,38.9c-0.187,0.062-0.17,0.095,0.051,0.1
					l0.199,0.1c-0.133,0.034-0.35,0.067-0.649,0.101c0,0.033,0.083,0.05,0.25,0.05c0.198,0,0.332-0.017,0.399-0.05
					c-0.065,0.033-0.065,0.084,0,0.149c0.034,0.034-0.017,0.067-0.149,0.101l0.25,0.05L21,39.7c0.033,0.066-0.066,0.1-0.3,0.1h-0.4
					l0.15,0.05h0.45c0.199,0.134,0.166,0.2-0.101,0.2c-0.25-0.045-0.283-0.028-0.1,0.05l0.25,0.051H20.7
					c0.333,0.066,0.416,0.1,0.25,0.1L20.7,40.2c0.533,0.133,0.633,0.2,0.3,0.2l-0.35-0.051L21,40.45h-0.55
					c0.533,0.2,0.717,0.383,0.55,0.55c-0.209-0.03-0.367-0.071-0.475-0.125c0.152,0.086,0.243,0.144,0.274,0.175l0.15,0.05
					c0.066,0,0.116,0.034,0.149,0.101c-0.24-0.08-0.398-0.139-0.475-0.175L20.75,41.1c-0.434-0.199-0.816-0.35-1.15-0.449
					l0.051,0.05c-0.267-0.134-0.434-0.184-0.5-0.15l0.75,0.25c0.042,0.042,0.158,0.101,0.35,0.175
					c-0.023,0.013-0.007,0.037,0.05,0.075l0.05,0.05l0.5,0.2l-0.35-0.1c0.267,0.133,0.434,0.2,0.5,0.2
					c0.267,0.133,0.316,0.183,0.15,0.149L20.3,41.2l0.8,0.399L20.65,41.4c0.284,0.142,0.302,0.176,0.05,0.1l0.149,0.05l-0.35-0.1
					l0.15,0.1c0.033,0.033-0.034,0.017-0.2-0.05c0.1,0.1,0.2,0.167,0.3,0.2c0.045,0.011,0.078,0.02,0.1,0.024
					c0.056,0.028,0.14,0.069,0.25,0.125L20.95,41.8L21.1,41.9L20.85,41.8l0.25,0.15c0.101,0.066-0.033,0.017-0.399-0.15l-0.15-0.1
					H20.4L21,42l0.05,0.05l-0.7-0.3l0.551,0.3L20.6,41.9c0.034,0.066,0.15,0.149,0.351,0.25l-1.55-0.7l0.1,0.1l1.2,0.601
					c0.05,0.075-0.024,0.075-0.226,0L20.6,42.2c0.301,0.2,0.384,0.267,0.25,0.2L20.1,42.05h0.051c-0.301-0.2-0.45-0.267-0.45-0.2
					L19.95,42c0.1,0.066,0.184,0.116,0.25,0.15h-0.05l0.649,0.3l0.101,0.1l-0.2-0.1c0.2,0.133,0.283,0.2,0.25,0.2L20.6,42.5
					c0.101,0-0.017-0.083-0.35-0.25c0.134,0.1,0.15,0.134,0.05,0.1l-0.05-0.05l-0.3-0.149c-0.065-0.026-0.107-0.043-0.125-0.051
					c-0.05-0.024-0.108-0.058-0.175-0.1c-0.034,0.033-0.284-0.066-0.75-0.3l0.149,0.1l0.5,0.25c-0.133,0-0.033,0.101,0.3,0.3
					L19.4,42.1c0.066,0.101,0.033,0.15-0.101,0.15l0.75,0.4c0.066,0.066,0.033,0.066-0.1,0L20,42.7l-0.8-0.5
					c0.1,0.1,0.017,0.066-0.25-0.101l0.35,0.351c-0.133-0.066-0.2-0.066-0.2,0c0.034,0.033,0.067,0.083,0.101,0.149L18.875,42.4
					H18.8l-0.05-0.051H18.7c-0.024,0.024,0.009,0.074,0.1,0.15l-0.2-0.15c0.034,0.034,0.051,0.067,0.051,0.101L18.35,42.2
					c-0.133-0.066-0.166-0.066-0.1,0c0.033,0.033,0.066,0.066,0.1,0.1l0.25,0.15c0.067,0.066,0.067,0.1,0,0.1
					c-0.033,0-0.05,0.017-0.05,0.05l-0.2-0.149l0.101,0.1c-0.267-0.2-0.334-0.233-0.2-0.1l-0.5-0.4l0.5,0.3
					c0.1,0.075,0.116,0.075,0.05,0L17.8,42v0.05l-0.149-0.2l0.3,0.2c-0.233-0.166-0.334-0.25-0.3-0.25
					c0.233,0.134,0.216,0.084-0.051-0.149L18.2,42.1l0.149,0.051L17.7,41.7l0.25,0.1c-0.267-0.166-0.384-0.25-0.351-0.25l0.2-0.05
					l0.25,0.1c-0.1-0.1-0.217-0.199-0.35-0.3c0.066,0,0.083-0.017,0.05-0.05c0-0.066,0.066-0.066,0.2,0
					c-0.134-0.2-0.167-0.316-0.101-0.35l0.301,0.149L18.3,41.1c-0.066-0.033-0.233-0.133-0.5-0.3c0.2,0.066,0.134-0.017-0.2-0.25
					h0.051c0.133,0,0.216,0,0.25,0L18.1,40.65c-0.147-0.079-0.298-0.179-0.449-0.301h0.25c-0.167-0.1-0.25-0.183-0.25-0.25
					c0-0.066-0.051-0.133-0.15-0.199l0.15,0.05c-0.128-0.072-0.179-0.122-0.15-0.15c0.06-0.029,0.068-0.063,0.025-0.1
					c-0.041,0.115-0.083,0.215-0.125,0.3c-0.301,0.267-0.517,0.417-0.65,0.45c-0.233,0.1-0.417,0.05-0.55-0.15
					c-0.033-0.233-0.066-0.35-0.101-0.35l-0.024,0.075c0.01,0.156,0.002,0.247-0.025,0.274c-0.1,0.033-0.166,0.05-0.2,0.05
					c0-0.033-0.017-0.133-0.05-0.3v0.101l0.05,0.399c-0.066,0.134-0.166,0.134-0.3,0c-0.2-0.166-0.316-0.233-0.35-0.2
					c-0.033-0.066-0.084-0.033-0.15,0.101c-0.133-0.233-0.267-0.4-0.4-0.5c-0.133-0.134-0.183-0.117-0.15,0.05l-0.45-1.15
					C13.983,38.517,14,38.366,14.1,38.4c0.1,0.033,0.133-0.034,0.1-0.2l0.15,0.35c-0.033-0.333,0-0.467,0.1-0.399
					c0.133,0.033,0.267,0.199,0.4,0.5L14.9,38.8c0.033,0.066,0.033-0.033,0-0.3l0.05,0.25c0.024-0.072,0.024-0.155,0-0.25l0.1,0.35
					L15,38.5c-0.033-0.267-0.017-0.366,0.05-0.3c0.033,0.066,0.05,0.05,0.05-0.05l0.051,0.199c0-0.199,0.033-0.333,0.1-0.399
					c0.033-0.033,0.083-0.101,0.15-0.2l0.05,0.45v-0.5c0.033,0.233,0.066,0.184,0.1-0.15v0.101c0.033,0.133,0.033,0.05,0-0.25
					l0.05,0.25c0-0.167,0.017-0.184,0.051-0.051c0.033,0.101,0.05,0.117,0.05,0.051V37.55c0.032,0.097,0.049,0.113,0.05,0.05v0.051
					c0.001-0.034,0.018-0.051,0.05-0.051l0.025-0.024c0.017,0.142,0.024,0.283,0.024,0.425c0.067-0.233,0.2-0.35,0.4-0.35L16.3,38
					c0.064-0.129,0.098-0.229,0.101-0.3v0.2c0.028,0.087,0.046,0.037,0.05-0.15v0.3l0.1-0.35v0.175
					c0.002-0.081,0.019-0.106,0.05-0.075l0.025,0.05l0.025-0.074v0.175c0.002-0.104,0.052-0.237,0.149-0.4v0.05
					C16.899,37.6,16.949,37.583,16.95,37.55z M20.35,41l0.301,0.15c-0.161-0.063-0.295-0.121-0.4-0.176L20.35,41z M17.55,39.65h0.15
					l-0.05-0.025v-0.1c-0.022-0.007-0.047-0.015-0.075-0.025v0.025c-0.007,0.024-0.015,0.05-0.025,0.074
					C17.547,39.617,17.547,39.634,17.55,39.65z M17.675,39.55H17.7v-0.024h-0.025V39.55z M20.075,42.3L19.9,42.2
					c-0.081-0.061-0.106-0.094-0.075-0.101L20,42.25C20.025,42.267,20.05,42.283,20.075,42.3z M20.5,42.65
					c-0.066,0.033-0.2-0.034-0.4-0.2c0.197,0.099,0.314,0.148,0.351,0.149L20.5,42.65z M20.325,42.475
					c-0.065-0.048-0.149-0.106-0.25-0.175L20.25,42.4L20.325,42.475z"/>
			</g>
		</g>
		<g>
			<g>
				<path style="fill-rule:evenodd;clip-rule:evenodd;fill:#825F3E;" d="M16.75,31.25l0.05,0.1c0-0.133,0-0.233,0-0.3l0.05,0.2V31
					l0.101,0.25l-0.05-0.3c0.1,0.333,0.166,0.467,0.199,0.399v0.25c0.034,0.134,0.067,0.167,0.101,0.101l-0.15-0.75
					c0.05,0.125,0.075,0.158,0.075,0.1l0.025,0.2l0.149,0.4c0-0.241-0.024-0.416-0.075-0.525l0.125,0.225
					c-0.066-0.166-0.083-0.3-0.05-0.399l0.25,0.6L17.6,32l0.15,0.6c0.033,0.034,0.05-0.017,0.05-0.149
					c-0.066-0.533-0.149-0.983-0.25-1.351c0.033-0.066,0.101,0.084,0.2,0.45c0.066,0.267,0.083,0.267,0.05,0
					c0-0.185,0-0.318,0-0.399c0.018,0.135,0.051,0.301,0.101,0.5L17.85,31.6L18,32.1c0.066-0.066,0.066-0.183,0-0.35
					c-0.033,0.033-0.05-0.05-0.05-0.25c0-0.033,0.033-0.017,0.1,0.05L18,31.3c0,0.101-0.05-0.05-0.15-0.45L17.9,30.7l0.05,0.2
					c0.066,0.1,0.083,0,0.05-0.301l0.1,0.351c0,0.1-0.017,0.149-0.05,0.149s-0.033,0.101,0,0.301c0.033,0,0.066-0.051,0.101-0.15
					v0.1c0.1,0.5,0.149,0.601,0.149,0.301c0.033-0.067,0.017-0.2-0.05-0.4c0.066-0.033,0.116-0.15,0.15-0.35
					c0.018,0.161,0.034,0.278,0.05,0.35c-0.016-0.018-0.032-0.018-0.05,0c-0.067,0.033-0.084,0.134-0.051,0.3
					c0.062,0.308,0.07,0.457,0.025,0.45c0.055,0.038,0.113,0.305,0.175,0.8v-0.2l-0.1-0.55c0.1,0.066,0.149-0.066,0.149-0.399
					L18.65,32.1c0.066-0.1,0.149-0.1,0.25,0c0.066-0.1,0.066-0.267,0-0.5l-0.025-0.149l0.025-0.2c0,0.033,0.033,0.35,0.1,0.95
					c0.033,0.166,0.066,0.25,0.1,0.25l0.15-0.5c0.033,0.133,0.083,0.184,0.15,0.149c0.033-0.033,0.066-0.1,0.1-0.199
					c0.066,0.133,0.116,0.366,0.15,0.699c0.029,0,0.029-0.066,0-0.199v-0.025c0.017,0,0.05,0.025,0.1,0.075
					c0.022,0,0.039-0.017,0.05-0.05v0.149c0.031,0.031,0.048-0.01,0.05-0.125V32.8c0.067,0.2,0.117,0.184,0.15-0.05l-0.05-0.3
					c0.033-0.066,0.066-0.084,0.1-0.05c0.066,0.033,0.101,0.033,0.101,0l0.05,0.25V32.5l0.075,0.3L20.2,33.35V32.8
					C20.134,32.467,20.1,32.5,20.1,32.9l0.051-0.15v0.6c0,0.134-0.017,0.2-0.051,0.2l-0.024-0.1
					c0.026,0.177,0.002,0.227-0.075,0.149c-0.033-0.166-0.066-0.183-0.1-0.05l-0.051,0.2c-0.033-0.333-0.033-0.583,0-0.75l-0.1-0.15
					v0.801L19.7,33.4c0,0.333-0.017,0.466-0.05,0.399c-0.167-0.033-0.267-0.066-0.301-0.1l-0.05-0.25
					c0.033,0.366-0.017,0.517-0.149,0.45c-0.034-0.067-0.084-0.051-0.15,0.05c-0.066,0.033-0.116-0.017-0.15-0.15
					c-0.199,0.267-0.35,0.384-0.449,0.351L18.35,33.8c0,0.152-0.024,0.128-0.074-0.075c0.017,0.104,0.024,0.279,0.024,0.525
					c-0.066-0.1-0.133,0-0.2,0.3l-0.05-0.2c0.033,0.2,0.017,0.267-0.05,0.2c-0.1-0.1-0.167-0.166-0.2-0.2l-0.1-0.25V34.7
					c-0.033,0.033-0.117-0.033-0.25-0.2c-0.033,0.233-0.101,0.384-0.2,0.45c-0.134,0.066-0.2,0.149-0.2,0.25l-0.1-0.25
					c0,0.233-0.066,0.35-0.2,0.35c-0.167,0-0.25,0.05-0.25,0.15L16.35,35c-0.133-0.134-0.1,0.033,0.101,0.5
					c-0.033,0.167-0.101,0.134-0.2-0.1v0.3c-0.086-0.086-0.144-0.086-0.175,0L15.9,35.45l0.149,0.45
					c-0.066-0.067-0.116-0.067-0.149,0c-0.034,0.1-0.101,0.083-0.2-0.051l0.149,0.301C15.783,36.116,15.733,36.1,15.7,36.1
					c-0.066-0.033-0.084,0-0.05,0.101c0.033,0.1-0.017,0.133-0.15,0.1c-0.167-0.1-0.25-0.133-0.25-0.1
					c0.033,0.133,0.033,0.233,0,0.3c-0.066,0.033-0.116,0.066-0.15,0.1c0.039,0.053,0.006,0.053-0.1,0l0.15,0.15L14.9,36.6
					c0.1,0.067,0.1,0.101,0,0.101c0.033,0.066-0.017,0.066-0.15,0l-0.2-0.05H14.5l0.25,0.1c-0.2,0-0.133,0.083,0.2,0.25
					c-0.153,0.025-0.287,0.042-0.4,0.05c0.1,0-0.017,0.033-0.35,0.101l0.4-0.051c-0.38,0.096-0.472,0.146-0.275,0.15h-0.15
					c0.157,0.003,0.299,0.037,0.425,0.1c0.1,0.067,0.25,0.084,0.45,0.051c0.134,0.233,0.4,0.55,0.8,0.949
					c0,0.101,0.084,0.267,0.25,0.5c0.134,0.2,0.184,0.4,0.15,0.601c-0.167,0.166-0.25,0.267-0.25,0.3
					c-0.031,0.031,0.01,0.048,0.125,0.05c0.132-0.092,0.224-0.125,0.275-0.1c0,0.066,0.083,0.184,0.25,0.35
					c-0.034,0-0.117,0.066-0.25,0.2l0.199-0.1l-0.05,0.05l0.3-0.2c0.167,0.033,0.267,0.184,0.301,0.45
					c0.033,0.333,0.1,0.533,0.199,0.6c-0.033,0.134,0.067,0.2,0.301,0.2c-0.067,0.366-0.084,0.616-0.051,0.75
					c0,0.066,0.034,0.134,0.101,0.2c0.093,0.031,0.16,0.022,0.2-0.025c-0.335,0.584-0.602,0.909-0.801,0.976
					c-0.233,0.233-0.399,0.283-0.5,0.149c-0.1-0.166-0.216-0.2-0.35-0.1c0.2-0.267,0.267-0.384,0.2-0.351
					c-0.3,0.2-0.483,0.217-0.55,0.051c-0.067-0.167-0.034-0.417,0.1-0.75l0.15-0.101c-0.233,0.134-0.351,0.167-0.351,0.101l0.2-0.2
					c-0.1,0.033-0.217,0.1-0.35,0.2l0.3-0.351L15.7,42c-0.233,0.167-0.334,0.2-0.3,0.1c0-0.133-0.051-0.166-0.15-0.1l0.15-0.15
					c-0.167,0.067-0.317,0.067-0.45,0c-0.133-0.066-0.25-0.116-0.35-0.149l0.35-0.25c-0.2,0.133-0.367,0.2-0.5,0.2
					c0.1-0.101,0.1-0.117,0-0.051c-0.167,0.034-0.233,0.034-0.2,0l0.1-0.05c0.066-0.133-0.017-0.133-0.25,0l0.175-0.125
					c-0.11,0.073-0.135,0.065-0.075-0.024c0.1-0.101,0.117-0.134,0.05-0.101l-0.1,0.05c0.033-0.066,0.033-0.1,0-0.1V41.2
					c-0.033,0-0.05-0.017-0.05-0.05h-0.025l0.325-0.2c-0.233,0-0.467-0.184-0.7-0.55l0.3-0.2h-0.3l0.15-0.15
					c0.055-0.055,0.005-0.055-0.15,0l0.25-0.1h-0.4l0.2-0.101c-0.133,0.034-0.183,0.034-0.15,0c0.033-0.066,0.017-0.1-0.05-0.1
					l0.2-0.05c0.104-0.104,0.062-0.121-0.125-0.05c-0.125,0.028-0.217,0.028-0.275,0c-0.033-0.034-0.083-0.067-0.15-0.101h0.1
					c0-0.133-0.066-0.2-0.2-0.2c0.3-0.133,0.433-0.216,0.4-0.25c-0.133-0.033-0.35,0.034-0.65,0.2c0.1-0.166,0.1-0.25,0-0.25
					l0.95-0.35l-0.15-0.05c-0.5,0.1-0.783,0.116-0.85,0.05c0.133,0,0.317-0.05,0.55-0.15L12.5,38.65
					c0.233-0.067,0.3-0.101,0.2-0.101l-0.275,0.05L12.4,38.55c0.033-0.066,0.133-0.116,0.3-0.149l0.25-0.051
					c-0.1,0-0.167-0.033-0.2-0.1h0.05c0.2-0.2,0.067-0.184-0.4,0.05c-0.114-0.014-0.197-0.047-0.25-0.1l0.35-0.05
					c-0.233,0-0.45-0.034-0.65-0.101l0.275-0.024C12.159,38,12.117,37.959,12,37.9c-0.1-0.034-0.083-0.084,0.05-0.15l-0.2,0.05
					c0.2-0.066,0.267-0.1,0.2-0.1c0.034-0.033,0.034-0.05,0-0.05L11.9,37.6H12c-0.102-0.002-0.185-0.052-0.25-0.149
					c-0.067-0.101-0.05-0.184,0.05-0.25L11.4,37.1h0.25c0.069-0.022,0.119-0.056,0.15-0.1l-0.1-0.05
					c-0.067-0.033-0.05-0.066,0.05-0.101c0.267,0.034,0.4,0.034,0.4,0c-0.1-0.033-0.183-0.066-0.25-0.1l-0.1-0.05
					c0.033-0.066-0.05-0.1-0.25-0.101c0.067-0.001,0.1-0.018,0.1-0.05c0-0.066,0.067-0.083,0.2-0.05l0.35,0.05L11.7,36.4h0.15
					c-0.167-0.034-0.233-0.067-0.2-0.101c0.067-0.033,0.033-0.066-0.1-0.1c0.034,0,0.083-0.05,0.15-0.15
					c0.033-0.066,0.117-0.083,0.25-0.05c-0.167-0.167-0.217-0.267-0.15-0.3l0.15,0.1c0.033,0,0.017-0.05-0.05-0.149l0.55,0.05
					l-0.475-0.25c0.066,0.033,0.075,0,0.025-0.101c-0.067-0.1-0.033-0.133,0.1-0.1c0.133,0.134,0.25,0.2,0.35,0.2
					c0.167,0.066,0.2,0.05,0.1-0.05c-0.167-0.134-0.2-0.2-0.1-0.2L12.075,35c0.044,0.022,0.053,0.006,0.025-0.05
					c-0.033-0.066,0.017-0.05,0.15,0.05c0.133-0.033,0.083-0.116-0.15-0.25c0.1,0,0.183-0.066,0.25-0.2
					c0.066-0.066,0.217-0.033,0.45,0.101c0-0.067-0.033-0.134-0.1-0.2c0.073,0.039,0.156,0.106,0.25,0.2
					c0.066,0.033,0.033-0.051-0.1-0.25c-0.2-0.2-0.25-0.301-0.15-0.301c0.1,0.167,0.15,0.217,0.15,0.15l-0.15-0.3
					c0.033,0,0.216,0.166,0.55,0.5l-0.1-0.3l0.3,0.25c-0.029-0.044-0.054-0.086-0.075-0.125L13.4,34.2
					c-0.133-0.101-0.217-0.167-0.25-0.2l-0.1-0.25c0.067,0.1,0.133,0.15,0.2,0.15s0.033-0.084-0.1-0.25
					c0.067,0.066,0.133,0.116,0.2,0.149H13.3v0.05c0.167,0.167,0.217,0.2,0.15,0.101c-0.01-0.031-0.027-0.064-0.05-0.101l0.15,0.051
					l-0.15-0.2l0.1,0.1c0-0.1-0.05-0.233-0.15-0.399c0.1,0.066,0.167,0.1,0.2,0.1h0.05c0.066,0.1,0.066,0.05,0-0.15l0.05,0.051
					c0.033,0,0.033-0.067,0-0.2c0.367,0.533,0.517,0.7,0.45,0.5L13.8,33.1c0.034,0.034,0.067,0,0.1-0.1
					c0.067-0.066,0.15-0.033,0.25,0.1l-0.1-0.25c0.034,0,0.1-0.05,0.2-0.149c0.067-0.066,0.167-0.017,0.3,0.149
					c0,0.034,0.067,0.15,0.2,0.351l-0.05-0.15c-0.1-0.233-0.184-0.366-0.25-0.399c0.066-0.167,0.167-0.184,0.3-0.051
					c0.1,0.206,0.15,0.206,0.15,0L14.8,32.4l0.15,0.199c-0.167-0.366-0.184-0.449-0.05-0.25l0.1,0.2
					c-0.1-0.366-0.083-0.483,0.05-0.35l0.15,0.3c0-0.156-0.025-0.265-0.075-0.325c0.185,0.186,0.292,0.327,0.325,0.425
					c-0.066-0.566,0.033-0.85,0.3-0.85l0.05,0.15c0.066,0.1,0.066,0.033,0-0.2l0.2,0.55v-0.4L15.95,31.7
					c0.093,0.093,0.117,0.043,0.075-0.15l0.125,0.5v-0.2c0.1,0.267,0.199,0.667,0.3,1.2V33c0.097,0.226,0.146,0.393,0.149,0.5
					c-0.001-0.335-0.067-0.602-0.199-0.8c0.022-0.045,0.014-0.178-0.025-0.4c0.05,0.11,0.075,0.061,0.075-0.149
					C16.35,32.05,16.3,31.866,16.3,31.6c0.066,0.101,0.117,0.217,0.15,0.351l-0.101-0.5c0.067,0.066,0.067-0.017,0-0.25
					c0.078,0.155,0.145,0.372,0.2,0.649c-0.066-0.372-0.1-0.572-0.1-0.6l0.149,0.5c0.034,0.033,0.051-0.017,0.051-0.15l0.05,0.15
					l-0.05-0.3l0.149,0.3c0-0.066,0-0.116,0-0.15c0.033-0.066,0.066,0,0.101,0.2v-0.375C16.896,31.566,16.847,31.509,16.75,31.25z
					 M16.35,32.25V32.2c0.007,0.032,0.016,0.065,0.025,0.1C16.365,32.283,16.356,32.267,16.35,32.25z M16.075,35.7l0.024,0.05h-0.05
					C16.055,35.73,16.063,35.714,16.075,35.7z M13.7,39.65l-0.25,0.1c0.074-0.037,0.132-0.07,0.175-0.1
					C13.653,39.654,13.678,39.654,13.7,39.65z"/>
				<path style="fill-rule:evenodd;clip-rule:evenodd;fill:#825F3E;" d="M17.5,30.95c0,0.267-0.033,0.267-0.1,0l0.05-0.05
					C17.45,30.833,17.467,30.85,17.5,30.95z"/>
			</g>
		</g>
		<g>
			<g>
				<path style="fill-rule:evenodd;clip-rule:evenodd;fill:#825F3E;" d="M18.85,22.15l-0.3,0.2c0.156,0.078,0.265,0.128,0.325,0.15
					c-0.038,0.008-0.097,0.041-0.175,0.1c0.3-0.033,0.399,0,0.3,0.1l-0.4,0.05c0.134,0,0.233,0.033,0.301,0.1
					c0.033,0.033,0.066,0.066,0.1,0.1h-0.2c0.134,0.033,0.184,0.083,0.15,0.15c-0.064,0.064-0.064,0.098,0,0.1h-0.2
					c-0.066,0.066-0.033,0.1,0.1,0.1c0.2,0,0.267,0.017,0.2,0.05H18.8c0.167,0.033,0.267,0.1,0.3,0.2
					c0.034,0.067,0.067,0.15,0.101,0.25L19.1,23.75c0,0.033,0,0.117,0,0.25c-0.033,0.066-0.017,0.134,0.051,0.2
					c-0.067,0.033-0.217,0.033-0.45,0c0.133,0.033,0.217,0.1,0.25,0.2c0.066,0.066,0.184,0.116,0.35,0.149
					c-0.166,0.2-0.233,0.316-0.2,0.351c-0.366-0.101-0.55-0.184-0.55-0.25H18.3c0.033-0.034-0.017-0.067-0.149-0.101
					c0.066,0.134,0.083,0.2,0.05,0.2c0.399,0.4,0.6,0.616,0.6,0.65c-0.221-0.099-0.371-0.174-0.45-0.226
					c0.275,0.195,0.476,0.388,0.601,0.575c0,0.033-0.084,0.017-0.25-0.05l0.2,0.2c0,0.166-0.134,0.166-0.4,0
					c0-0.067-0.066-0.117-0.2-0.15c0.066,0.1,0.084,0.184,0.05,0.25l-0.05-0.05c-0.066,0-0.066,0.05,0,0.149
					c0.066,0.101,0.15,0.167,0.25,0.2l0.025-0.05c0.07,0.146,0.078,0.246,0.024,0.3l-0.199-0.2c0.031,0.032,0.09,0.24,0.175,0.625
					c-0.026-0.04-0.068-0.099-0.125-0.175c-0.101,0-0.15,0.084-0.15,0.25v0.025l-0.1-0.025c-0.334,0.066-0.467,0.167-0.4,0.3
					c-0.2,0.067-0.283,0.067-0.25,0c0.033-0.066,0.033-0.116,0-0.149l-0.1,0.05c0.033,0.033,0,0.066-0.101,0.1
					c-0.133,0.067-0.267,0.067-0.399,0c0.2-0.133,0.35-0.25,0.45-0.35c0.033,0,0.05,0.017,0.05,0.05s-0.033,0.066-0.101,0.101
					c0.134,0,0.284-0.051,0.45-0.15c0.167-0.1,0.283-0.15,0.351-0.15c0.033-0.1-0.017-0.133-0.15-0.1
					c-0.091,0.019-0.157,0.026-0.2,0.025c0.031,0.037-0.085,0.095-0.35,0.175c-0.3,0.066-0.334,0.017-0.101-0.15
					c0.267-0.233,0.367-0.366,0.301-0.399c-0.101,0.066-0.301,0.149-0.601,0.25c-0.233,0.066-0.434,0.183-0.6,0.35
					c-0.134,0-0.2-0.017-0.2-0.05c0.233-0.101,0.4-0.217,0.5-0.351v-0.05l0.4-0.149l0.35-0.65c-0.066,0-0.15,0.033-0.25,0.1
					c-0.066,0.067-0.134,0.084-0.2,0.051c0.101-0.034,0.167-0.084,0.2-0.15s0.033-0.116,0-0.15c0,0.101-0.066,0.184-0.2,0.25
					c-0.133,0.067-0.233,0.101-0.3,0.101c-0.033-0.033-0.033-0.117,0-0.25c0-0.134,0.033-0.217,0.1-0.25l0.301-0.101
					c-0.063,0.023-0.079,0.007-0.051-0.05c0.034-0.066,0.017-0.1-0.05-0.1l-0.6,0.45H16.4c0.007,0.049,0.007,0.099,0,0.149
					L16.3,25.7c0.033,0.1,0.017,0.133-0.05,0.1c-0.167-0.033-0.3-0.066-0.4-0.1c0.101,0.1,0.184,0.2,0.25,0.3L16,25.95
					c-0.2-0.101-0.283-0.117-0.25-0.05l0.05,0.05c0.033,0.133,0.017,0.166-0.05,0.1c-0.167-0.2-0.316-0.316-0.45-0.35
					c-0.233,0.566-0.45,0.866-0.65,0.899c0.133,0.101,0.184,0.167,0.15,0.2c-0.133-0.166-0.183-0.2-0.15-0.1
					c0.033,0.133,0.017,0.184-0.05,0.149l-0.05-0.199c-0.1-0.034-0.183,0-0.25,0.1c-0.066,0.066-0.133,0.083-0.2,0.05
					c0.001,0.101-0.048,0.15-0.15,0.15c-0.133-0.033-0.2,0-0.2,0.1c-0.1-0.066-0.167-0.116-0.2-0.149
					c0.1,0.199,0.067,0.283-0.1,0.25c-0.133-0.034-0.184,0.017-0.15,0.149l-0.05-0.1l-0.55,0.3c-0.133,0.1-0.217,0.217-0.25,0.35
					c0,0.034-0.017,0.034-0.05,0l0.15,0.551c0.067,0.3,0.05,0.533-0.05,0.699v0.051l0.25-0.101h0.1c0.167-0.066,0.35-0.066,0.55,0
					l0.5,0.15L13.5,29c0.025-0.025,0.092-0.009,0.2,0.05c-0.067-0.05,0-0.05,0.2,0c-0.033-0.066-0.1-0.149-0.2-0.25
					c0.133,0.066,0.2,0.084,0.2,0.05l0.025-0.074c-0.12-0.09-0.211-0.198-0.275-0.325c-0.066-0.101-0.066-0.117,0-0.05L14,28.75
					c-0.033-0.1,0.017-0.184,0.15-0.25c0.133-0.033,0.167-0.167,0.1-0.4l0.15,0.226c-0.019-0.031,0.015-0.09,0.1-0.175l0.05-0.051
					v-0.05c0.467-0.2,0.601-0.166,0.4,0.101c0.133-0.067,0.316-0.134,0.55-0.2c0.066,0.033,0.033,0.083-0.1,0.149L15.05,28.2
					c0,0.066,0.184,0.283,0.55,0.649c-0.133,0.067-0.166,0.15-0.1,0.25c-0.091-0.075-0.107-0.042-0.05,0.101
					c0.033,0.166,0.017,0.233-0.05,0.2l0.225,0.324c-0.024-0.026-0.05-0.001-0.075,0.075c0,0.066-0.033,0.033-0.1-0.1
					c0,0.033-0.017,0.066-0.05,0.1c-0.034,0-0.017,0.066,0.05,0.2c-0.066-0.033-0.184,0-0.351,0.1c-0.073,0.05-0.173,0.017-0.3-0.1
					c0.044,0.111,0.044,0.153,0,0.125c-0.022-0.006-0.056-0.03-0.1-0.075c-0.05-0.066-0.1-0.149-0.15-0.25
					c-0.066-0.033-0.066,0.066,0,0.3c0.1,0.267,0.1,0.384,0,0.351c-0.033-0.134-0.083-0.184-0.15-0.15l0.1,0.3
					c-0.033,0-0.167-0.183-0.4-0.55c-0.1,0.101-0.117,0.2-0.05,0.3l-0.2-0.225c0.033,0.04,0.05,0.081,0.05,0.125l-0.05,0.05v-0.05
					c-0.033-0.033-0.083-0.017-0.15,0.05c0.1,0.134,0.183,0.2,0.25,0.2v0.3c-0.034-0.1-0.133-0.149-0.3-0.149
					c0.033,0.199,0.033,0.3,0,0.3c-0.1,0-0.15-0.066-0.15-0.2c0.067,0.066,0.1,0.05,0.1-0.05l-0.1-0.15
					c-0.033-0.033-0.067-0.017-0.1,0.05c0.133,0.367,0.133,0.5,0,0.4v-0.3L13.2,30.6l0.05,0.25l-0.05-0.1
					c0.033,0.1,0,0.184-0.1,0.25c-0.067,0.033-0.1,0.1-0.1,0.2c-0.167-0.101-0.283-0.15-0.35-0.15V31c-0.1-0.134-0.25-0.1-0.45,0.1
					v-0.05c-0.1-0.1-0.267-0.083-0.5,0.05c-0.067-0.1-0.05-0.283,0.05-0.55c0.067-0.2,0.05-0.267-0.05-0.2
					c-0.067-0.066-0.2-0.066-0.4,0c-0.167,0.101-0.25,0.2-0.25,0.301c-0.233-0.334-0.4-0.567-0.5-0.7
					c-0.133-0.267-0.133-0.483,0-0.65c-0.1,0-0.183-0.033-0.25-0.1c0-0.367,0-0.617,0-0.75c0.034-0.267,0.167-0.417,0.4-0.45
					l0.4,0.15c0.167,0,0.133-0.051-0.1-0.15s-0.383-0.134-0.45-0.1c-0.033-0.134-0.017-0.25,0.05-0.351
					c0.065-0.131,0.166-0.197,0.3-0.2c-0.133-0.001-0.2-0.051-0.2-0.149c0.367,0.267,0.483,0.25,0.35-0.05L10.9,27.05l0.25,0.05
					c-0.167-0.166-0.217-0.25-0.15-0.25l0.2,0.101c-0.2-0.367-0.2-0.533,0-0.5l0.35,0.149c0-0.161-0.075-0.244-0.225-0.25
					c0.318,0.001,0.526,0.035,0.625,0.101c-0.2-0.601,0-1.017,0.6-1.25l0.05,0.149c0.066,0.034,0.083,0,0.05-0.1s-0.033-0.15,0-0.15
					c0.033,0.134,0.117,0.301,0.25,0.5c0.133,0.067,0.184-0.083,0.15-0.449L13,25.1c-0.033,0.067-0.067,0.051-0.1-0.05
					c0-0.033,0.05-0.05,0.15-0.05c0.034-0.033,0.034-0.1,0-0.2c0.034,0.033,0.1,0.2,0.2,0.5v-0.2
					c0.067,0.101,0.117,0.284,0.15,0.551s0.1,0.483,0.2,0.649l0.05-0.1c0.067,0.133,0.1,0.25,0.1,0.35c0,0.101,0.033,0.15,0.1,0.15
					c0-0.267-0.083-0.533-0.25-0.8l-0.1-0.45l-0.05-0.101c0.033-0.033,0.05-0.083,0.05-0.149c0-0.101,0.033-0.15,0.1-0.15
					c0.033,0.066,0.033,0.117,0,0.15c-0.1,0.033-0.117,0.1-0.05,0.2c0.067,0.1,0.133,0.1,0.2,0c0.033-0.101,0.067-0.15,0.1-0.15
					c-0.133-0.134-0.15-0.316-0.05-0.55c0.067,0.066,0.1,0.149,0.1,0.25c0,0.066,0.033,0.1,0.1,0.1l0.1-0.3
					c0-0.1-0.033-0.167-0.1-0.2c0-0.166,0.05-0.217,0.15-0.149c0.1,0.033,0.167,0,0.2-0.101c0.033,0.101,0.033,0.267,0,0.5
					c-0.033,0.2-0.017,0.334,0.05,0.4c0-0.066,0.05-0.2,0.15-0.4c0.1-0.166,0.117-0.333,0.05-0.5c0.1,0.066,0.117,0.25,0.05,0.55
					c0.033,0.034,0.117-0.017,0.25-0.149c0.133-0.066,0.183,0.017,0.15,0.25l0.101-0.3L15.3,25c0.033,0.033,0.134,0.017,0.3-0.05
					c0.101,0,0.117,0.083,0.051,0.25c0.199,0.066,0.316-0.017,0.35-0.25c-0.033-0.066-0.1-0.084-0.2-0.05
					c-0.066,0-0.083-0.084-0.05-0.25c0,0.133,0.066,0.183,0.2,0.149c0.06-0.03,0.144-0.071,0.25-0.125
					c0.172-0.356,0.205-0.731,0.1-1.125v-0.2c-0.019-0.038-0.035-0.071-0.05-0.1c-0.384-0.052-0.684,0.015-0.9,0.2
					c-0.1-0.034-0.3,0.1-0.6,0.4L12.9,23.8c-0.566-0.1-0.983-0.25-1.25-0.45c-0.333-0.267-0.55-0.617-0.65-1.05
					c-0.1-0.533-0.167-0.883-0.2-1.05l0.5,0.15c0.367,0.133,0.617,0.267,0.75,0.4l0.75,0.4c0.333,0,0.517-0.117,0.55-0.35
					c0.133,0.3,0.217,0.4,0.25,0.3c0-0.7,0.433-0.833,1.3-0.4l0.05,0.15c0.1,0.034,0.133-0.1,0.1-0.4l0.101,0.25
					c-0.034-0.1-0.034-0.167,0-0.2c0.033-0.066,0.05-0.133,0.05-0.2l0.25,0.4l-0.101-0.3c-0.066-0.3-0.017-0.434,0.15-0.4
					c0.167,0.034,0.25,0,0.25-0.1l0.05,0.2c0.066-0.233,0.2-0.4,0.4-0.5c0.1-0.066,0.283-0.133,0.55-0.2l-0.05,0.425
					c0.039-0.252,0.139-0.411,0.3-0.475c0,0.133,0.033,0.15,0.1,0.05c0.134-0.133,0.217-0.167,0.25-0.1l-0.05,0.1
					c0.066-0.1,0.117-0.117,0.15-0.05c0,0.067,0.05,0.034,0.149-0.1l-0.05,0.3c0.101-0.167,0.134-0.184,0.101-0.05
					c0,0.134,0.033,0.184,0.1,0.15l0.05-0.1c0.066-0.033,0.101,0.017,0.101,0.15v0.05c0.033,0,0.083,0.034,0.149,0.1
					c-0.066,0.034-0.149,0.117-0.25,0.25c0.3,0,0.533,0.117,0.7,0.35L18.85,22.15z M18.55,27.25L18.2,27.5
					c-0.066,0-0.117-0.033-0.15-0.1c0-0.038-0.033-0.055-0.1-0.051c-0.033-0.066-0.017-0.083,0.05-0.05
					c0.1,0.066,0.184,0.084,0.25,0.05l-0.2-0.149c0.06,0.023,0.109,0.032,0.15,0.024c0.016,0.025,0.065,0.018,0.149-0.024
					C18.483,27.167,18.55,27.184,18.55,27.25z M18.2,27.15l0.1-0.025c-0.017,0.06-0.05,0.094-0.1,0.1
					C18.188,27.212,18.188,27.187,18.2,27.15z M17.75,27.4c0.088-0.029,0.154-0.046,0.2-0.051L18,27.5l-0.05-0.1
					c0.014,0.041,0.022,0.083,0.024,0.125C17.964,27.509,17.938,27.5,17.9,27.5C17.8,27.467,17.75,27.434,17.75,27.4z M17.45,28.15
					c0.008,0.101-0.009,0.15-0.05,0.149c0.076,0.033,0.192,0.05,0.35,0.05L17.6,28.1c-0.011,0.018-0.02,0.034-0.024,0.051
					l-0.025,0.024c-0.027-0.024-0.061-0.065-0.1-0.125c-0.007,0.057-0.023,0.073-0.05,0.05C17.42,28.121,17.437,28.138,17.45,28.15z
					 M17.05,28.1c0.003,0.027,0.011,0.053,0.025,0.075l0.125-0.05c-0.01-0.025-0.027-0.051-0.05-0.075
					C17.12,28.065,17.087,28.082,17.05,28.1z M16.775,28.325L16.7,28.35c-0.101,0-0.15-0.017-0.15-0.05
					c0.064-0.021,0.123-0.046,0.175-0.075c0.129-0.044,0.237-0.085,0.325-0.125c-0.019-0.045-0.019-0.095,0-0.149
					c0.035,0.035,0.069,0.068,0.101,0.1c0.081-0.057,0.114-0.106,0.1-0.149c0.092-0.019,0.159-0.019,0.2,0V27.85
					c0.016-0.019,0.032-0.002,0.05,0.051c0.022,0,0.056,0,0.1,0c0.097,0.023,0.181,0.007,0.25-0.051L18,27.8
					c0.066,0.101,0.2,0.167,0.4,0.2c0,0.134-0.15,0.2-0.45,0.2c0.133-0.066,0.166-0.134,0.1-0.2c-0.033-0.066-0.149-0.083-0.35-0.05
					l-0.025,0.024c0.139,0.162,0.164,0.287,0.075,0.375c-0.23,0.165-0.397,0.198-0.5,0.101c0.133,0.135,0.166,0.302,0.1,0.5
					c0.167-0.066,0.267-0.066,0.301,0c0.033,0.033,0.116,0.017,0.25-0.05c0.1-0.167,0.3-0.25,0.6-0.25
					c-0.134,0.033-0.233,0.066-0.3,0.1c0.066,0,0.05,0.033-0.05,0.1L18.1,28.9c-0.068,0-0.151,0.017-0.25,0.05
					c-0.333,0.1-0.517,0.149-0.55,0.149c0.134,0.034,0.05,0.084-0.25,0.15l0.5,0.25c-0.133,0.1-0.166,0.184-0.1,0.25
					s0.133,0.134,0.2,0.2L17,30.15c0.3-0.067,0.384-0.051,0.25,0.05h-0.1c0.032,0.001,0.032,0.034,0,0.1
					c0,0.05,0.033,0.084,0.1,0.101h-0.2c-0.033,0.033,0.017,0.05,0.15,0.05c-0.2,0.066-0.334,0.083-0.4,0.05
					c-0.133,0.033-0.166,0.083-0.1,0.15l0.2,0.1l0.25-0.1c0.166,0.066,0.199,0.183,0.1,0.35l-0.3,0.05l0.2,0.05
					c-0.134,0-0.233,0.017-0.301,0.051l-0.024,0.024L16.25,31.05c0.1-0.033,0.3-0.033,0.6,0c0.134-0.033,0.184-0.066,0.15-0.1
					c-0.033-0.066-0.116-0.101-0.25-0.101c-0.033,0.034,0,0.067,0.1,0.101c-0.133,0.033-0.333,0.017-0.6-0.05v0.05l-0.025,0.024
					c-0.116-0.025-0.175-0.067-0.175-0.125L16.4,30.8c-0.334,0-0.45-0.05-0.351-0.149c0.134-0.034,0.134-0.067,0-0.101
					c-0.166-0.066-0.233-0.116-0.2-0.149l0.75,0.05l0.15-0.15c-0.434,0-0.7-0.017-0.8-0.05l0.25-0.05
					c-0.334,0-0.483-0.033-0.45-0.101c0.033-0.066,0.05-0.233,0.05-0.5l0.25-0.05c-0.071,0.012-0.13,0.012-0.175,0
					c0.017-0.005,0.025-0.038,0.025-0.1c0-0.167,0.066-0.184,0.199-0.05c-0.199-0.301-0.3-0.483-0.3-0.551
					c0.101,0.101,0.233,0.217,0.4,0.351c0-0.134,0.033-0.184,0.1-0.15l0.05,0.15c0.101,0.033,0.117-0.066,0.051-0.3
					c0.166,0.133,0.333,0.149,0.5,0.05c-0.067-0.101-0.067-0.15,0-0.15c0.066,0,0.033-0.083-0.101-0.25l0.15,0.101L16.775,28.325z
					 M15.8,29.55c-0.052-0.022-0.085-0.056-0.1-0.1c-0.033-0.101-0.084-0.15-0.15-0.15c0.049-0.048,0.057-0.098,0.025-0.149
					c0.028,0.027,0.087,0.145,0.175,0.35C15.766,29.516,15.782,29.532,15.8,29.55z M14.55,27.95v-0.2l0.25-0.25
					c0.034,0-0.017,0.083-0.15,0.25C14.65,27.783,14.617,27.85,14.55,27.95z M14.55,28c0.022,0,0.089-0.033,0.2-0.1l-0.2,0.149V28z
					 M15.5,29.1c0.027,0.019,0.053,0.035,0.075,0.051H15.55C15.53,29.131,15.514,29.114,15.5,29.1z"/>
				<path style="fill-rule:evenodd;clip-rule:evenodd;fill:#825F3E;" d="M17,25.7l-0.05-0.05c0-0.101,0.066-0.15,0.2-0.15L17,25.7z"
					/>
				<path style="fill-rule:evenodd;clip-rule:evenodd;fill:#825F3E;" d="M18.85,26.85c-0.033-0.066-0.017-0.083,0.051-0.05
					c0.033,0.033,0.066,0.066,0.1,0.101C19,26.934,18.95,26.917,18.85,26.85z"/>
			</g>
		</g>
		<g>
			<g>
				<path style="fill-rule:evenodd;clip-rule:evenodd;fill:#825F3E;" d="M13.45,10.65l2.899-1.8l0.851,2.7
					c0.1,0.3,0.283,0.717,0.55,1.25c0.2,0.467,0.283,0.967,0.25,1.5c-0.233,0.2-0.35,0.333-0.35,0.4c-0.034,0.066,0,0.216,0.1,0.45
					l-0.075-0.025C17.759,15.162,17.8,15.22,17.8,15.3c0,0.167,0.05,0.267,0.15,0.3c-0.066,0.3-0.184,0.6-0.351,0.9
					c-0.112,0.249-0.288,0.474-0.524,0.675c-0.022,0.028-0.048,0.053-0.075,0.075l0.125,0.125c0.044,0.089,0.053,0.147,0.025,0.175
					L17,17.425c0.212,0.184,0.229,0.275,0.05,0.275c-0.1-0.067-0.133-0.05-0.1,0.05c0.066,0.133,0.083,0.2,0.05,0.2
					c-0.167-0.205-0.284-0.354-0.35-0.45c-0.038,0.015-0.071,0.032-0.101,0.05c0.175,0.191,0.275,0.325,0.3,0.4L16.65,17.8
					c0.233,0.267,0.3,0.4,0.199,0.4l-0.399,0.2l-0.15-0.15c0.101,0.167,0.134,0.283,0.101,0.35c-0.067,0.066-0.084,0.117-0.051,0.15
					c-0.066,0-0.116,0.05-0.149,0.15s-0.117,0.1-0.25,0c-0.134,0.434-0.283,0.684-0.45,0.75l-0.15-0.3
					c0.067,0.167,0,0.133-0.199-0.1c0.033,0.033,0.133,0.217,0.3,0.55c-0.2-0.1-0.267,0.067-0.2,0.5l-0.15-0.2
					c0.067,0.167,0.051,0.25-0.05,0.25c-0.133-0.033-0.233-0.05-0.3-0.05c-0.1-0.2-0.183-0.267-0.25-0.2
					c0.067,0.167,0.1,0.383,0.1,0.65c-0.1,0.067-0.25,0.033-0.45-0.1c-0.033,0.267-0.167,0.45-0.4,0.55
					c-0.367,0.167-0.583,0.283-0.65,0.35l-0.05-0.25c-0.167,0.267-0.433,0.367-0.8,0.3c-0.467-0.067-0.75-0.1-0.85-0.1l0.2-0.45
					c-0.033-0.066-0.1-0.066-0.2,0c-0.1,0.1-0.183,0.217-0.25,0.35c0-0.033-0.083-0.066-0.25-0.1c-0.1,0-0.133-0.083-0.1-0.25
					c-0.033-0.066-0.083-0.066-0.15,0c-0.133,0.067-0.217,0.1-0.25,0.1c-0.088-0.177-0.23-0.319-0.425-0.425
					c0.117-0.059,0.175-0.151,0.175-0.275h-0.1l-0.1-0.1l-0.3,0.25c0-0.1-0.1-0.267-0.3-0.5c-0.233-0.167-0.3-0.35-0.2-0.55
					c-0.033,0.034-0.133,0.05-0.3,0.05c-0.033-0.1-0.05-0.267-0.05-0.5c0-0.2-0.05-0.333-0.15-0.4c0.2,0.033,0.3,0,0.3-0.1
					c-0.133,0.033-0.233,0.017-0.3-0.05c-0.133-0.2-0.133-0.433,0-0.7c0.2-0.333,0.3-0.517,0.3-0.55c-0.067-0.366,0.066-0.9,0.4-1.6
					l0.1,0.05c-0.1-0.1-0.067-0.183,0.1-0.25c0.167-0.033,0.15-0.133-0.05-0.3l0.3,0.1c-0.066-0.1-0.033-0.167,0.1-0.2
					c0.12-0.048,0.17-0.115,0.15-0.2c0.1,0,0.167-0.05,0.2-0.15s0.1-0.15,0.2-0.15c0,0.066,0.033,0.117,0.1,0.15
					c0.034,0.033,0.034,0,0-0.1c-0.066-0.1,0-0.1,0.2,0c0-0.033-0.033-0.066-0.1-0.1c-0.045-0.045-0.087-0.07-0.125-0.075
					c0.155-0.068,0.264-0.209,0.325-0.425c0.1-0.267,0.167-0.466,0.2-0.6c0.116,0.023,0.232,0.082,0.35,0.175
					c-0.022-0.272-0.139-0.514-0.35-0.725L12,12.825c-0.019-0.071-0.052-0.146-0.1-0.225c0.133-0.133,0.367-0.467,0.7-1
					c0.3-0.4,0.566-0.717,0.8-0.95H13.45z M14.05,13.3l0.45,0.75l-0.2-0.15l0.15,0.25c-0.034,0.1-0.15,0.05-0.35-0.15
					c-0.067-0.133-0.117-0.2-0.15-0.2c0.033,0.1,0.033,0.167,0,0.2l-0.05-0.05c-0.033,0-0.017,0.05,0.05,0.15
					c0.033,0.1,0.1,0.183,0.2,0.25c0.033,0,0.017-0.05-0.05-0.15c0.167,0.233,0.183,0.35,0.05,0.35L14,14.3l0.175,0.575
					c-0.031-0.047-0.073-0.105-0.125-0.175c-0.1-0.034-0.133,0.033-0.1,0.2c0,0.056-0.008,0.089-0.025,0.1
					c0.083-0.016,0.125,0.018,0.125,0.1c0.034,0.133,0.1,0.167,0.2,0.1l-0.15,0.15c0.333-0.1,0.667-0.117,1-0.05l-0.05,0.2
					c0.036-0.103,0.086-0.186,0.15-0.25c0,0.1,0.017,0.1,0.05,0v-0.075L15.3,15.2l-0.05-0.05c0.066,0,0.083-0.017,0.05-0.05h0.05
					v-0.05c0-0.033-0.083-0.05-0.25-0.05c0.2-0.033,0.4-0.017,0.601,0.05c-0.2-0.167-0.367-0.5-0.5-1l0.3-0.15
					c-0.167-0.066-0.267-0.1-0.3-0.1l0.149-0.1h-0.1c-0.134,0-0.184-0.017-0.15-0.05l0.325-0.1c-0.095,0.026-0.22-0.007-0.375-0.1
					l0.175-0.05c-0.114,0.029-0.156,0.013-0.125-0.05c0.034-0.067,0.017-0.1-0.05-0.1l0.2-0.05c0.066-0.067,0.017-0.067-0.15,0
					c-0.116,0.023-0.182,0.031-0.2,0.025c0.032,0.048,0.082,0.106,0.15,0.175c-0.233,0-0.333,0.034-0.3,0.1
					c-0.233-0.267-0.35-0.417-0.35-0.45l-0.2-0.2c0.066,0,0.05-0.05-0.05-0.15c0,0.167-0.033,0.233-0.1,0.2
					c0.267,0.467,0.383,0.733,0.35,0.8C14.4,13.667,14.283,13.533,14.05,13.3z M15.225,15.125l-0.05-0.025L15.1,15.05L15.2,15.1
					L15.225,15.125z M13.85,15.025c0.015-0.009,0.031-0.017,0.05-0.025c-0.044,0.009-0.094-0.008-0.15-0.05
					C13.785,14.979,13.819,15.003,13.85,15.025z M13.075,17.525c0.039,0.028,0.08,0.054,0.125,0.075
					c-0.02-0.014-0.036-0.03-0.05-0.05L13,17.25c0.067,0.167,0.05,0.167-0.05,0L13.075,17.525c-0.151-0.117-0.292-0.25-0.425-0.4
					c-0.021,0.021-0.105-0.021-0.25-0.125l0.2,0.2c-0.1-0.034-0.167,0-0.2,0.1c-0.033,0.067-0.183,0.05-0.45-0.05l0.15,0.15
					c-0.07-0.035-0.153-0.085-0.25-0.15c-0.1,0-0.05,0.067,0.15,0.2c0.233,0.133,0.317,0.2,0.25,0.2l-0.2-0.05l0.25,0.15l-0.65-0.2
					l0.2,0.15l-0.35-0.1l0.25,0.15l-0.1-0.05c-0.033,0.033-0.033,0.05,0,0.05l0.3,0.05l0.25,0.1h-0.25L12.2,18l-0.25-0.05h-0.2
					c0.4,0.066,0.533,0.1,0.4,0.1L11.85,18c0.167,0.033,0.3,0.067,0.4,0.1L12,18.15h0.15l-0.1,0.05h0.175
					c-0.023,0.022-0.049,0.056-0.075,0.1l-0.3,0.3c0.133-0.1,0.183-0.117,0.15-0.05c0.2-0.2,0.3-0.316,0.3-0.35h0.075l0.05-0.075
					c0.03-0.17,0.055-0.245,0.075-0.225l0.1,0.6l-0.05-0.4v-0.3l0.1,0.5v-0.15c0.065,0.227,0.131,0.61,0.2,1.15
					c0.066,0.134,0.1,0.25,0.1,0.35c0,0.067,0.017,0.117,0.05,0.15L12.85,19c0.033-0.066-0.017-0.333-0.15-0.8l0.1,0.3
					c0.067,0.2,0.083,0.184,0.05-0.05c-0.1-0.1-0.15-0.284-0.15-0.55c-0.015-0.039-0.031-0.064-0.05-0.075
					c0.062,0.033,0.062-0.059,0-0.275l0.2,0.5c0.066,0.067,0.066,0.017,0-0.15c0-0.066,0.033-0.017,0.1,0.15l-0.1-0.3l0.15,0.3V17.9
					c0-0.033,0.05,0.034,0.15,0.2c0.033-0.067-0.017-0.184-0.15-0.35l-0.05-0.05v-0.05c-0.019-0.038-0.036-0.071-0.05-0.1
					c0-0.066-0.017-0.133-0.05-0.2c0.167,0.267,0.267,0.367,0.3,0.3L13.075,17.525z M12.425,18.15l-0.125,0.2l0.125-0.15V18.15z
					 M12.3,18.15l-0.075,0.05c0.059-0.091,0.101-0.125,0.125-0.1C12.35,18.133,12.333,18.15,12.3,18.15z M14.6,17.7l-0.025,0.075
					L14.6,17.8V17.7z"/>
			</g>
		</g>
	</g>
</g>
</svg>
