<?xml version="1.0" encoding="iso-8859-1"?>
<!-- Generator: Adobe Illustrator 15.1.0, SVG Export Plug-In . SVG Version: 6.00 Build 0)  -->
<!DOCTYPE svg PUBLIC "-//W3C//DTD SVG 1.1//EN" "http://www.w3.org/Graphics/SVG/1.1/DTD/svg11.dtd">
<svg version="1.1" id="paper_talismen__x28_group_and_single_x29_"
	 xmlns="http://www.w3.org/2000/svg" xmlns:xlink="http://www.w3.org/1999/xlink" x="0px" y="0px" width="30.15px" height="46.25px"
	 viewBox="0 0 30.15 46.25" style="enable-background:new 0 0 30.15 46.25;" xml:space="preserve">
<symbol  id="FlashAICB_x2F_paper_talismen__x28_group_and_single_x29__x2F__x3C_Path_x3E_" viewBox="0 -6.3 8.65 6">
	<g id="Layer_1_6_">
		<g>
			<g>
				<path style="fill-rule:evenodd;clip-rule:evenodd;fill:#D0A885;" d="M7.3-0.65C7.4-0.717,7.433-0.767,7.4-0.8L6.85-0.65
					L6.75-0.7L7.3-0.85H7.1L7.4-1L7.25-1.3L7.1-1.25c0.233-0.1,0.316-0.2,0.25-0.3C7.283-1.55,7.267-1.6,7.3-1.7
					c0-0.1-0.05-0.133-0.15-0.1c0.023-0.115,0.04-0.215,0.05-0.3c0.033-0.1,0.2-0.183,0.5-0.25C7.867-2.817,7.967-3.083,8-3.15
					l0.2-0.3L8.35-3.6c0.133-0.066,0.233-0.15,0.3-0.25c0,0.033-0.133,0-0.4-0.1C7.917-4.05,7.717-4.1,7.65-4.1
					C7.417-4.2,7.267-4.183,7.2-4.05c-0.1,0.133-0.217,0.167-0.35,0.1C7.017-3.75,7.067-3.667,7-3.7
					C6.883-3.77,6.784-3.795,6.7-3.775C6.696-3.833,6.68-3.891,6.65-3.95c-0.1-0.2-0.15-0.333-0.15-0.4L6.3-4.2
					c0.067-0.2,0.034-0.35-0.1-0.45c-0.167-0.1-0.25-0.2-0.25-0.3L5.7-4.65c-0.067,0.033-0.083,0-0.05-0.1
					C5.683-4.817,5.75-4.9,5.85-5C5.817-5.167,5.733-5.167,5.6-5v-0.3C5.51-5.27,5.418-5.295,5.325-5.375L5.2-5.2
					c0-0.033-0.017-0.066-0.05-0.1c-0.033-0.034,0-0.117,0.1-0.25c-0.067,0.033-0.133,0-0.2-0.1c-0.066-0.1-0.167-0.1-0.3,0
					l0.1-0.25h-0.2C4.583-5.867,4.533-5.9,4.5-6L4.4-5.8L4.45-6C4.383-6.133,4.267-6.167,4.1-6.1C3.867-6.033,3.733-6.017,3.7-6.05
					C3.533-6.217,3.15-6.3,2.55-6.3v0.1c-0.066-0.1-0.133-0.1-0.2,0C2.25-6.1,2.167-6.133,2.1-6.3
					C2.034-6.167,2.017-6.084,2.05-6.05C1.983-6.116,1.899-6.1,1.8-6C1.746-5.918,1.679-5.902,1.6-5.95
					c0,0.067-0.067,0.117-0.2,0.15c-0.1,0-0.167,0.05-0.2,0.15l0.15,0.1c0,0.066-0.05,0.066-0.15,0c-0.067-0.034-0.067,0.017,0,0.15
					L1.05-5.55c-0.066,0.1-0.216,0.233-0.45,0.4C0.333-4.95,0.133-4.767,0-4.6c0.033,0.167,0.133,0.283,0.3,0.35
					c0.067,0.033,0.05,0.067-0.05,0.1H0.2c-0.067,0.033-0.034,0.1,0.1,0.2c0.133,0.067,0.167,0.1,0.1,0.1
					C0.2-3.883,0.083-3.867,0.05-3.8L0.3-3.55c0.067,0.1,0.067,0.183,0,0.25l0.1-0.05c-0.1,0.1-0.15,0.233-0.15,0.4
					c0,0.2-0.05,0.367-0.15,0.5c0.3,0.5,0.767,0.934,1.4,1.3C1.867-0.983,2.267-0.867,2.7-0.8c0.267-0.034,0.6-0.05,1-0.05
					C4-0.883,4.267-0.967,4.5-1.1c0.033-0.267,0.117-0.35,0.25-0.25L4.7-1.45c0.041,0,0.074,0.017,0.1,0.05l0.025,0.025L4.75-1.3
					l0.075-0.05l0.05,0.05C4.884-1.274,4.892-1.241,4.9-1.2c0.061-0.03,0.136-0.055,0.225-0.075c0.043,0.002,0.084,0.002,0.125,0
					C5.271-1.31,5.337-1.352,5.45-1.4c0.027-0.008,0.052-0.017,0.075-0.025H5.55L5.65-1.2c0.096,0.014,0.196,0.005,0.3-0.025
					C5.966-1.22,5.983-1.211,6-1.2C5.967-1.133,5.85-1.1,5.65-1.1L5.475-1.075C5.58-1.077,5.555-1.052,5.4-1l0.7-0.15
					c0.133-0.033,0.2-0.033,0.2,0L6-0.95c0.1,0.034,0.133,0.067,0.1,0.1C6.033-0.817,6-0.783,6-0.75h0.5
					c0,0.027-0.033,0.044-0.1,0.05c0.107,0.054,0.074,0.095-0.1,0.125L6.475-0.6C6.45-0.592,6.425-0.575,6.4-0.55L6.7-0.6l0.1,0.05
					c-0.066,0.033-0.117,0.066-0.15,0.1L6.45-0.5C6.383-0.467,6.367-0.433,6.4-0.4l0.05,0.1h0.2C6.63-0.31,6.646-0.327,6.7-0.35
					L7.15-0.4C7.168-0.391,7.185-0.382,7.2-0.375L7.3-0.45H7.05C7.317-0.517,7.4-0.567,7.3-0.6C7.2-0.6,7.2-0.617,7.3-0.65z
					 M5.5-1.45L5.475-1.5H5.5C5.633-1.533,5.633-1.517,5.5-1.45z M2.55-2.7c0.034-0.2,0.034-0.367,0-0.5
					c-0.1,0.1-0.167,0.117-0.2,0.05C2.283-2.883,2.267-2.733,2.3-2.7L2.25-2.5c0.033-0.033,0.033,0,0,0.1
					C2.183-2.5,2.133-2.533,2.1-2.5c0-0.167,0.017-0.383,0.05-0.65L2-2.75L2.15-3.4c-0.033,0-0.066,0.05-0.1,0.15l0.05-0.2
					c0-0.066-0.05,0-0.15,0.2L1.85-3.1v-0.15L1.8-3.2L2-3.5l0.05-0.1L2.1-3.65L2.2-3.6h0.025l0.05,0.025L2.35-3.55l0.025,0.025
					C2.353-3.591,2.328-3.666,2.3-3.75L2.45-3.6l-0.1-0.15L2.4-3.7L2.3-4.05l0.2,0.4c-0.1-0.233-0.1-0.267,0-0.1l-0.1-0.3
					c-0.066-0.233-0.017-0.2,0.15,0.1L2.575-3.8H2.6l0.1,0.2c0-0.167,0.033-0.3,0.1-0.4c0.031-0.031,0.048,0.01,0.05,0.125V-4.1
					c0.033-0.133,0.066,0.017,0.1,0.45v-0.2L3-3.6l0.05-0.5c0.034,0,0.05,0.067,0.05,0.2l0.05-0.3v0.15
					c0.002-0.063,0.019-0.063,0.05,0l-0.1,0.2v0.2C3.133-3.783,3.167-3.833,3.2-3.8l0.1-0.1v0.05l0.05-0.1L3.3-3.75l0.05-0.1
					L3.3-3.5l0.1-0.15V-3.7c0.03-0.059,0.046-0.026,0.05,0.1v0.15l0.2-0.5L3.5-3.45C3.533-3.483,3.567-3.467,3.6-3.4
					c0.033,0.033,0.083,0,0.15-0.1L3.7-3.3c0.033-0.034,0.066,0,0.1,0.1C3.833-3.167,3.9-3.217,4-3.35L3.9-3.2
					c0,0.133,0.067,0.15,0.2,0.05L4.025-3.025C3.913-3.034,3.788-3.025,3.65-3v0.25L3.5-2.9v0.15c-0.067-0.2-0.1-0.267-0.1-0.2
					l0.05,0.3C3.417-2.717,3.35-2.8,3.25-2.9L3.3-2.75c-0.066-0.167-0.117-0.2-0.15-0.1v0.2C3.117-2.883,3.083-2.967,3.05-2.9
					L3.1-2.7C3.033-2.9,2.95-3,2.85-3v0.05C2.817-2.983,2.75-3,2.65-3C2.65-2.733,2.617-2.633,2.55-2.7z M2.3-3.55L2.35-3.5
					l0.025-0.025L2.3-3.55z M3.225-3.8C3.23-3.778,3.222-3.711,3.2-3.6l0.05-0.2H3.225z"/>
			</g>
		</g>
	</g>
</symbol>
<symbol  id="FlashAICB_x2F_paper_talismen__x28_group_and_single_x29__x2F__x3C_Path_x3E__x5F_1" viewBox="0 -8.357 6.9 8.357">
	<g id="Layer_1_5_">
		<g>
			<g>
				<path style="fill-rule:evenodd;clip-rule:evenodd;fill:#D0A885;" d="M0.25-5.85L0.1-6.25C0.067-6.383,0.083-6.367,0.15-6.2
					L0.3-5.85H0.25l0.1,0.1c0.033,0.112,0.05,0.112,0.05,0c-0.033-0.2,0-0.167,0.1,0.1L0.35-6.2v-0.1l0.2,0.55L0.5-5.95l0.15,0.3
					c0-0.033,0.033-0.083,0.1-0.15L0.8-5.75c0.066,0,0.1,0.017,0.1,0.05c0-0.033,0.017-0.033,0.05,0C1.017-5.7,1.033-5.75,1-5.85
					c0.167,0.167,0.267,0.233,0.3,0.2l-0.05-0.3c0-0.1,0.017-0.133,0.05-0.1L1.35-5.6C1.383-5.733,1.433-5.667,1.5-5.4v-0.2
					l0.05,0.15L1.6-5.6l0.05-0.25L1.7-5.4l0.1-0.15c0.1,0.1,0.15,0.233,0.15,0.4L2-5.35c0.1,0.033,0.133,0.133,0.1,0.3L2.25-5.4
					c0.133-0.267,0.1-0.15-0.1,0.35l0.05-0.1c0.031-0.031,0.022,0.027-0.025,0.175L2.2-5L2.175-4.95v0.025H2.15
					C2.117-4.894,2.1-4.852,2.1-4.8h0.05L2-4.75h0.25c0.106,0,0.106,0.025,0,0.075C2.341-4.654,2.357-4.628,2.3-4.6h0.1
					C2.341-4.57,2.374-4.554,2.5-4.55H2.35c0.066,0.066,0.066,0.15,0,0.25C2.25-4.167,2.183-4.067,2.15-4
					C2.65-4.067,2.8-4.05,2.6-3.95L2.5-3.9c0.333,0,0.433,0.017,0.3,0.05C2.7-3.817,2.6-3.8,2.5-3.8c0.2,0.066,0.267,0.117,0.2,0.15
					L2.85-3.7C2.75-3.567,2.567-3.433,2.3-3.3C2.4-2.5,2.5-2,2.6-1.8c0.133,0.1,0.3,0.283,0.5,0.55c0.2,0.233,0.417,0.367,0.65,0.4
					C3.95-0.983,4.05-1,4.05-0.9L4.15-1c0.033,0.067,0,0.183-0.1,0.35c0.034,0,0.167,0.083,0.4,0.25l0.1-0.25L4.5-0.45l0.05-0.1
					l-0.1,0.3c0.1,0.167,0.3,0.217,0.6,0.15c0.367-0.033,0.583-0.033,0.65,0C5.733-0.133,5.833-0.1,6,0c0.133-0.1,0.3-0.233,0.5-0.4
					c0.133-0.067,0.267-0.033,0.4,0.1c0-0.534-0.033-0.85-0.1-0.95C6.767-1.517,6.717-1.633,6.65-1.6
					c-0.133,0.033-0.2-0.017-0.2-0.15L6.4-1.45c-0.033-0.233-0.1-0.333-0.2-0.3c-0.034,0-0.15,0.117-0.35,0.35
					C5.843-1.5,5.826-1.55,5.8-1.55l-0.05,0.2c0.031-0.135,0.031-0.219,0-0.25L5.7-1.5c0.033-0.233,0.017-0.317-0.05-0.25
					c-0.033,0.033-0.05,0-0.05-0.1L5.55-1.7c0-0.233-0.066-0.4-0.2-0.5L5.225-1.95C5.305-2.12,5.33-2.22,5.3-2.25
					c0.067-0.167,0.067-0.217,0-0.15L5.25-2.35C5.35-2.517,5.367-2.567,5.3-2.5L5.2-2.35c0.1-0.2,0.083-0.2-0.05,0v-0.1L5.1-2.4
					c0-0.067,0.017-0.133,0.05-0.2L4.9-2.2c0.033-0.133-0.033-0.283-0.2-0.45L4.5-2.5l0.1-0.2L4.45-2.55
					c0.133-0.167,0.167-0.233,0.1-0.2l-0.2,0.2C4.385-2.587,4.436-2.671,4.5-2.8L4.375-2.675C4.484-2.789,4.493-2.831,4.4-2.8
					c0.076-0.092,0.076-0.125,0-0.1c0.055-0.079,0.071-0.129,0.05-0.15L4.4-3c0-0.033-0.017-0.083-0.05-0.15
					C4.15-2.95,4.05-2.9,4.05-3c0.2-0.1,0.333-0.2,0.4-0.3c-0.1,0-0.133-0.017-0.1-0.05L4-3.1L3.8-3.05l-0.1,0.1
					C3.767-3.05,3.783-3.1,3.75-3.1l0.5-0.35l-0.4,0.2l0.6-0.35l-0.2,0.05l0.2-0.1C4.383-3.65,4.3-3.633,4.2-3.6L4.05-3.55l0.1-0.05
					H4.1c-0.191,0-0.108-0.042,0.25-0.125L4.5-3.85l-0.2,0.1l0.275-0.175C4.552-3.916,4.527-3.908,4.5-3.9
					C4.667-4,4.65-4.033,4.45-4l0.2-0.05h-0.2C4.483-4.083,4.517-4.1,4.55-4.1c0.108-0.066,0.108-0.1,0-0.1
					c0.028-0.014,0.062-0.031,0.1-0.05h-0.1c0-0.031,0.034-0.048,0.1-0.05H4.3l0.15-0.05h0.3C4.817-4.417,4.733-4.433,4.5-4.4H4.25
					l0.4-0.05H4.5c0.267-0.033,0.367-0.066,0.3-0.1L4.5-4.6c0.267,0,0.333-0.033,0.2-0.1L4.55-4.65C4.483-4.683,4.5-4.7,4.6-4.7
					L4.25-4.8L4.7-4.85c-0.133,0-0.15-0.017-0.05-0.05C4.717-4.933,4.7-4.95,4.6-4.95L4.3-4.9c-0.133,0-0.15-0.017-0.05-0.05
					c0.129-0.064,0.163-0.098,0.1-0.1H4.7c0.133-0.1,0.083-0.117-0.15-0.05l0.2-0.1c-0.067,0-0.1-0.05-0.1-0.15
					C4.619-5.412,4.519-5.429,4.35-5.4c0.023-0.012,0.057-0.029,0.1-0.05L4.6-5.5L4.2-5.4c0.367-0.167,0.5-0.267,0.4-0.3L4.4-5.65
					L4.6-5.8L4.1-5.6l0.15-0.15L4.025-5.7C4.045-5.709,4.07-5.726,4.1-5.75c-0.033,0-0.05-0.017-0.05-0.05L4.3-5.85L4.45-6
					c-0.067,0.033-0.133,0.05-0.2,0.05C4.383-6.05,4.433-6.1,4.4-6.1c0-0.033-0.05-0.017-0.15,0.05c0.067,0,0.067,0.017,0,0.05h-0.1
					L4.2-6.05H4.05l0.1-0.05c0.1-0.066,0.167-0.15,0.2-0.25L4.15-6.3c-0.119,0.059-0.119,0.026,0-0.1C4.083-6.4,4.1-6.45,4.2-6.55
					C4.1-6.517,3.95-6.433,3.75-6.3L4.1-6.65c-0.033,0-0.067-0.033-0.1-0.1c0-0.067-0.05-0.067-0.15,0l0.1-0.15L3.8-7.05
					C3.767-7.117,3.683-7.1,3.55-7C3.483-6.9,3.433-6.817,3.4-6.75c0.033-0.1,0.033-0.133,0-0.1l0.25-0.3c0-0.067-0.033-0.1-0.1-0.1
					c-0.066,0-0.117,0.017-0.15,0.05c-0.066,0.096-0.1,0.096-0.1,0l0.1-0.15L3.25-7.2C3.383-7.467,3.4-7.55,3.3-7.45l-0.1,0.2
					c0.1-0.3,0.1-0.4,0-0.3L3.05-7.3l0.1-0.25c-0.133,0.1-0.233,0.2-0.3,0.3c0.066-0.4-0.017-0.6-0.25-0.6l-0.05,0.1v-0.1l-0.1,0.4
					c0-0.167-0.017-0.267-0.05-0.3l0.05-0.1C2.45-7.883,2.433-7.933,2.4-8L2.35-7.6L2.3-7.75c0,0.4-0.033,0.717-0.1,0.95v-0.05
					l-0.05,0.4l0.05-0.6c0.066-0.434,0.066-0.65,0-0.65c0.033,0.034,0.033,0.117,0,0.25C2.167-7.35,2.15-7.333,2.15-7.4
					c0-0.033,0-0.067,0-0.1v-0.4L2.1-7.65L2.15-8c0-0.233-0.033-0.3-0.1-0.2L2.025-7.85C2.022-7.938,2.014-8.038,2-8.15v0.4
					c-0.033-0.3-0.067-0.3-0.1,0V-8L1.85-7.7c-0.033-0.233-0.067-0.233-0.1,0v-0.25c0-0.025,0-0.05,0-0.075V-8.05L1.7-8.25v0.15
					L1.65-8.25c-0.033-0.1-0.05,0-0.05,0.3v0.25L1.55-8.25c-0.033-0.067-0.05-0.067-0.05,0L1.55-8L1.5-7.7
					C1.381-7.819,1.356-7.952,1.425-8.1L1.4-8.25L1.3-7.7l0.1,0.8L1.35-7.05c0-0.3-0.05-0.633-0.15-1v0.4
					c0,0.2-0.017,0.183-0.05-0.05V-8c-0.066-0.233-0.1-0.3-0.1-0.2L1.1-7.55c0-0.1,0.017-0.133,0.05-0.1v0.4l-0.1-0.2V-7.7L1-7.6
					L0.95-7.8c0.066,0,0.066-0.133,0-0.4L0.925-8.225C0.934-8.19,0.942-8.148,0.95-8.1L0.9-8.25l0.025,0.025
					C0.9-8.333,0.875-8.375,0.85-8.35v0.3c0.033-0.067,0.066,0.033,0.1,0.3C0.917-7.883,0.883-7.9,0.85-7.8L0.9-7.75
					c0,0.172-0.008,0.264-0.025,0.275L0.95-7.25v0.6C0.949-6.685,0.932-6.718,0.9-6.75L0.85-7.2c0,0.233-0.05,0.15-0.15-0.25
					L0.75-7.1C0.717-7.133,0.667-7.117,0.6-7.05c0-0.233-0.033-0.35-0.1-0.35l0.1,0.45c-0.067-0.1-0.067-0.033,0,0.2l-0.2-0.3
					c0,0.1-0.017,0.133-0.05,0.1l-0.1-0.1l0.1,0.55C0.332-6.563,0.315-6.612,0.3-6.65L0.25-6.6H0.225L0.25-6.55
					c-0.024,0-0.041-0.008-0.05-0.025L0.25-6.3v0.05C0.249-6.284,0.232-6.318,0.2-6.35l-0.05-0.2c-0.066-0.1-0.117-0.1-0.15,0
					l0.05,0.2L0-6.45c0.03,0.148,0.03,0.207,0,0.175L0.25-5.85z M2.15-4.65c0.04-0.014,0.074-0.022,0.1-0.025
					C2.235-4.687,2.219-4.695,2.2-4.7L2.15-4.65z"/>
			</g>
		</g>
	</g>
</symbol>
<symbol  id="FlashAICB_x2F_paper_talismen__x28_group_and_single_x29__x2F__x3C_Path_x3E__x5F_2" viewBox="0 -46.25 19.9 46.25">
	<g id="Layer_1_2_">
		<polygon style="fill-rule:evenodd;clip-rule:evenodd;fill:#FFECCD;" points="0.3,-46.25 0,-0.1 19.6,0 19.9,-46.15 		"/>
	</g>
</symbol>
<symbol  id="FlashAICB_x2F_paper_talismen__x28_group_and_single_x29__x2F__x3C_Path_x3E__x5F_2_x5F_0" viewBox="0 -10.925 7.55 10.75">
	<g id="Layer_1_4_">
		<g>
			<g>
				<path style="fill-rule:evenodd;clip-rule:evenodd;fill:#D0A885;" d="M5.3-2.95l-0.05-0.2V-3.2l0.025-0.05
					C5.265-3.265,5.256-3.281,5.25-3.3L5.3-3.275L5.4-3.25C5.467-3.217,5.5-3.233,5.5-3.3L5.45-3.55c0.066,0,0.117,0.033,0.15,0.1
					L5.7-3.4c0.066-0.033,0.1,0.033,0.1,0.2c0.001-0.034,0.035-0.067,0.1-0.1c0.067-0.034,0.067-0.1,0-0.2L5.75-3.75l0.3,0.35
					L6-3.55c0.067,0.133,0.117,0.167,0.15,0.1C6.183-3.483,6.233-3.467,6.3-3.4l0.15-0.2C6.517-3.667,6.533-3.75,6.5-3.85
					C6.733-3.783,6.85-3.8,6.85-3.9L6.7-3.95c0-0.066,0.05-0.1,0.15-0.1c-0.033-0.2-0.083-0.333-0.15-0.4
					C6.767-4.483,6.917-4.433,7.15-4.3C7.05-4.367,7.067-4.45,7.2-4.55C7.333-4.617,7.35-4.7,7.25-4.8
					c-0.133,0.133-0.233,0.133-0.3,0C6.817-4.867,6.833-4.933,7-5c0.133-0.033,0.183-0.083,0.15-0.15l0.3,0.1
					c-0.067-0.034-0.067-0.1,0-0.2c0.033-0.067,0-0.1-0.1-0.1v-0.1c0-0.033,0.066-0.066,0.2-0.1C7.483-5.583,7.417-5.733,7.35-6
					c-0.067-0.167-0.2-0.217-0.4-0.15c0-0.1,0.033-0.167,0.1-0.2c-0.062,0.013-0.128,0.047-0.2,0.1c-0.067,0-0.033-0.067,0.1-0.2
					C7.083-6.617,7.1-6.717,7-6.75C6.9-6.65,6.85-6.633,6.85-6.7L7-6.9C6.933-6.933,6.767-6.85,6.5-6.65c0-0.1,0.033-0.184,0.1-0.25
					L6.3-6.75C6.354-6.779,6.388-6.83,6.4-6.9C6.333-6.867,6.3-6.883,6.3-6.95c0.067-0.066,0.15-0.1,0.25-0.1l0.05-0.2
					c-0.067,0.067-0.133,0.067-0.2,0L6.5-7.4C6.4-7.367,6.35-7.333,6.35-7.3H6.4C6.267-7.233,6.2-7.217,6.2-7.25
					C6.433-7.417,6.483-7.5,6.35-7.5l-0.1,0.2H6.1l0.15-0.15L6.15-7.4c0.1-0.1,0.133-0.2,0.1-0.3H6C5.94-7.67,5.907-7.72,5.9-7.85
					c-0.066,0-0.083-0.066-0.05-0.2c-0.067,0.033-0.167,0.133-0.3,0.3C5.483-7.617,5.45-7.6,5.45-7.7
					c-0.034-0.033-0.034-0.117,0-0.25C5.517-8.083,5.567-8.167,5.6-8.2c-0.033,0-0.133-0.05-0.3-0.15
					C5.133-8.417,4.983-8.4,4.85-8.3L4.8-8.5c-0.4,0-0.7,0.033-0.9,0.1C3.533-8.267,3.383-8.067,3.45-7.8
					C3.517-7.833,3.567-7.817,3.6-7.75S3.65-7.633,3.65-7.6C3.717-7.467,3.667-7.45,3.5-7.55c-0.133-0.167-0.2-0.267-0.2-0.3
					c-0.32,0.192-0.429,0.384-0.325,0.575C2.946-7.321,2.887-7.329,2.8-7.3c0.3,0.1,0.35,0.183,0.15,0.25L2.8-7.1l0.15,0.15
					c-0.167,0-0.233,0.017-0.2,0.05L2.9-6.85C2.633-6.75,2.533-6.667,2.6-6.6l0.25,0.1C2.803-6.453,2.744-6.436,2.675-6.45
					C2.669-6.469,2.661-6.486,2.65-6.5C2.517-6.667,2.4-6.767,2.3-6.8C2.133-6.767,2.033-6.767,2-6.8l0.05-0.1
					C2.083-6.913,2.1-6.93,2.1-6.95c0-0.066,0.033-0.1,0.1-0.1c-0.067-0.2-0.1-0.434-0.1-0.7c-0.033,0.033-0.117,0.067-0.25,0.1
					L2-7.75H1.9C2-7.85,2.1-7.867,2.2-7.8C2.267-8,2.2-8.267,2-8.6C1.833-8.933,1.767-9.183,1.8-9.35c-0.1-0.1-0.066-0.2,0.1-0.3
					L1.55-10.2l0.05-0.1v-0.05l0.05-0.05L1.5-10.5l-0.125-0.15H1.4l-0.2-0.2l0.125,0.175L0.95-10.9c-0.267-0.067-0.434,0-0.5,0.2
					c-0.067,0.233-0.167,0.367-0.3,0.4c0.267,0.066,0.367,0.117,0.3,0.15C0.183-10.083,0.067-9.933,0.1-9.7
					c0.033,0.233,0.167,0.434,0.4,0.6l0.1-0.05c0.033,0.033,0,0.066-0.1,0.1C0.433-8.983,0.4-8.933,0.4-8.9l0.2-0.05
					c-0.1,0.034-0.15,0.067-0.15,0.1c-0.033,0.066-0.066,0.099-0.1,0.1H0.7L0.45-8.7C0.217-8.633,0.133-8.55,0.2-8.45
					c0.1,0.1,0.117,0.167,0.05,0.2H0.4C0.267-8.15,0.183-8,0.15-7.8c0,0.2-0.017,0.35-0.05,0.45l0.25-0.075
					C0.235-7.379,0.152-7.304,0.1-7.2c0.1,0,0.1,0.034,0,0.1C0.033-7.033,0.017-6.983,0.05-6.95c-0.051,0.034-0.051,0.05,0,0.05
					C0.117-6.867,0.1-6.833,0-6.8h0.2C0.067-6.733,0.05-6.7,0.15-6.7s0.133,0.017,0.1,0.05h-0.1c0.1,0.033,0.133,0.066,0.1,0.1
					c0,0.033,0.017,0.083,0.05,0.15c0,0.033-0.05,0.066-0.15,0.1c0.167-0.034,0.3-0.1,0.4-0.2C0.417-6.233,0.5-5.85,0.8-5.35
					l0.3-0.1L1.05-5.2L1.2-5.3c0.066,0,0.05,0.083-0.05,0.25l0.2-0.2C1.317-5.215,1.3-5.099,1.3-4.9l0.1-0.15
					C1.367-4.95,1.383-4.9,1.45-4.9c0.033,0,0.05,0.017,0.05,0.05l0.05-0.1c0.067-0.033,0.067,0,0,0.1c-0.066,0.1-0.066,0.15,0,0.15
					l0.1-0.15c-0.066,0.133-0.066,0.233,0,0.3c0.064,0.032,0.098,0.082,0.1,0.15v-0.1L2-4.25C2.074-4.378,2.132-4.462,2.175-4.5
					H2.25l0.025,0.05v0.05C2.292-4.284,2.25-4.15,2.15-4C2.214-4,2.264-4,2.3-4C2.28-3.973,2.23-3.94,2.15-3.9L2.3-3.95
					C2.233-3.883,2.167-3.833,2.1-3.8c0.267,0,0.383,0.033,0.35,0.1L2.6-3.8c0.1,0.033,0.133,0.066,0.1,0.1L2.1-3.6
					c0.167,0,0.183,0.033,0.05,0.1L2.4-3.6c0.2,0,0.3,0.017,0.3,0.05c-0.133,0.133-0.284,0.167-0.45,0.1
					c0,0.045,0.017,0.07,0.05,0.075C2.261-3.353,2.228-3.328,2.2-3.3l0.5,0.1L3-3.3l0.05,0.05C3.217-3.317,3.367-3.333,3.5-3.3
					L3.4-3.2C3.233-3.233,3.067-3.217,2.9-3.15c-0.233,0.066-0.4,0.1-0.5,0.1c-0.033,0.033,0.1,0.066,0.4,0.1
					c0.2,0,0.184,0.034-0.05,0.1H2.5c0.026,0.027-0.023,0.06-0.15,0.1c0.054,0,0.121,0,0.2,0C2.683-2.717,2.8-2.733,2.9-2.8
					L2.8-2.85h0.45C3.15-2.75,3.067-2.7,3-2.7H2.8C2.767-2.667,2.783-2.65,2.85-2.65c0.033,0.033-0.033,0.066-0.2,0.1
					C2.683-2.583,2.567-2.6,2.3-2.6L2.2-2.5l0.15-0.05c0.1,0.066,0.033,0.133-0.2,0.2h0.3c0.066,0,0.1-0.033,0.1-0.1
					c-0.033-0.033,0.034-0.066,0.2-0.1c-0.133,0.1-0.167,0.167-0.1,0.2l0.1-0.05C3.117-2.433,3.2-2.4,3-2.3L2.7-2.25
					C2.567-2.117,2.5-2.033,2.5-2c0.1-0.033,0.167-0.017,0.2,0.05C2.7-1.917,2.75-1.933,2.85-2C2.75-2,2.7-2.033,2.7-2.1
					c0.033-0.066,0.117-0.117,0.25-0.15c0.211,0,0.312-0.042,0.3-0.125C3.289-2.301,3.489-2.31,3.85-2.4
					c0.066,0.066,0.033,0.1-0.1,0.1L3.3-2.25C3.467-2.183,3.383-2.1,3.05-2C3.249-1.943,3.365-1.943,3.4-2
					C3.376-1.89,3.41-1.79,3.5-1.7c-0.133,0-0.2,0.017-0.2,0.05c-0.033,0.066-0.1,0.1-0.2,0.1c-0.067-0.1-0.233-0.1-0.5,0L2.85-1.6
					C2.783-1.567,2.8-1.55,2.9-1.55c0.042,0.021,0.05,0.046,0.025,0.075C3.035-1.513,3.26-1.555,3.6-1.6
					c0.133-0.033,0.2-0.017,0.2,0.05l-0.3,0.3C3.633-1.217,3.683-1.167,3.65-1.1C3.583-1,3.55-0.933,3.55-0.9
					c0.1,0.033,0.284,0.033,0.55,0c0,0.029-0.05,0.045-0.15,0.05c0.128,0.077,0.12,0.144-0.025,0.2L4.1-0.7L4-0.65L4.3-0.7
					c0.167,0,0.167,0.067,0,0.2H4.05c-0.033,0.033-0.033,0.083,0,0.15C4.117-0.283,4.133-0.233,4.1-0.2l0.2-0.05L4.2-0.2l0.2,0.025
					L4.8-0.4L4.35-0.3C4.083-0.3,4.1-0.35,4.4-0.45c0.033,0,0.017,0.034-0.05,0.1L4.8-0.5l0.025,0.025C4.875-0.508,4.9-0.55,4.9-0.6
					H4.65C4.883-0.633,4.967-0.683,4.9-0.75c-0.1,0-0.117-0.033-0.05-0.1C4.95-0.95,4.983-1,4.95-1L4.4-0.8
					c0-0.034-0.033-0.067-0.1-0.1l0.55-0.2l-0.2,0.05c0.067-0.067,0.167-0.133,0.3-0.2l-0.2-0.4H4.6
					c0.233-0.067,0.316-0.167,0.25-0.3c-0.067-0.033-0.083-0.1-0.05-0.2C4.833-2.25,4.783-2.3,4.65-2.3
					C4.783-2.7,4.833-2.95,4.8-3.05L4.55-3c0.069-0.023,0.069-0.04,0-0.05c0.058-0.008,0.116-0.033,0.175-0.075
					C4.751-3.114,4.777-3.106,4.8-3.1c0.133,0.033,0.233,0,0.3-0.1c0,0.034,0.033,0.083,0.1,0.15C5.233-2.95,5.267-2.917,5.3-2.95z"
					/>
			</g>
		</g>
	</g>
</symbol>
<symbol  id="FlashAICB_x2F_paper_talismen__x28_group_and_single_x29__x2F__x3C_Path_x3E__x5F_3" viewBox="0 -19.457 11.975 19.057">
	<g id="Layer_1_3_">
		<g>
			<g>
				<path style="fill-rule:evenodd;clip-rule:evenodd;fill:#D0A885;" d="M11.5-4.6l-0.15-0.2c0.133-0.034,0.316-0.133,0.55-0.3
					c0-0.2-0.05-0.4-0.15-0.6c0.2-0.233,0.267-0.533,0.2-0.9c0-0.2-0.034-0.517-0.1-0.95L11.6-7.5c0.066-0.333,0-0.65-0.2-0.95
					l-0.5-0.7L10.65-8.9c-0.066,0-0.1-0.05-0.1-0.15c0-0.133,0.067-0.233,0.2-0.3c-0.033,0-0.1-0.066-0.2-0.2
					c-0.066-0.1-0.15-0.117-0.25-0.05c-0.066-0.033-0.1-0.1-0.1-0.2c0-0.1-0.017-0.167-0.05-0.2c-0.146-0.029-0.33-0.138-0.55-0.325
					c-0.02,0.14-0.087,0.182-0.2,0.125l-0.15-0.15c-0.1-0.066-0.083-0.167,0.05-0.3c-0.133,0.033-0.3-0.033-0.5-0.2
					c-0.2-0.133-0.383-0.167-0.55-0.1v-0.2C8.183-11.183,8.033-11.2,7.8-11.2c-0.063,0-0.122,0-0.175,0
					c-0.093-0.368-0.234-0.718-0.425-1.05c-0.233-0.1-0.367-0.183-0.4-0.25c-0.033-0.033-0.066-0.15-0.1-0.35L6.6-12.8
					c0.1-0.067,0.133-0.133,0.1-0.2c-0.034-0.1-0.017-0.167,0.05-0.2L6-14.4c0,0.033-0.067,0.083-0.2,0.15l0.1-0.15l-0.05,0.05
					c0-0.133,0.066-0.2,0.2-0.2c-0.066-0.267-0.3-0.65-0.7-1.15c-0.333-0.433-0.533-0.816-0.6-1.15
					c-0.133-0.133-0.167-0.383-0.1-0.75c-0.2-0.2-0.4-0.5-0.6-0.9c-0.133-0.433-0.1-0.75,0.1-0.95c-0.533-0.033-0.867,0.05-1,0.25
					c-0.267,0.133-0.367,0.367-0.3,0.7c0.066,0.4,0.05,0.667-0.05,0.8c0.233-0.033,0.333-0.017,0.3,0.05
					c-0.233,0.267-0.267,0.566-0.1,0.9c0.1,0.267,0.317,0.517,0.65,0.75l0.1-0.1c0.033,0.033,0.017,0.1-0.05,0.2
					c-0.067,0.1-0.083,0.167-0.05,0.2l0.2-0.05c-0.067,0.033-0.1,0.083-0.1,0.15c-0.033,0.067-0.067,0.117-0.1,0.15l0.4-0.05
					L3.8-15.35c-0.167,0.133-0.183,0.267-0.05,0.4s0.167,0.25,0.1,0.35L4-14.7c-0.067,0.2-0.05,0.434,0.05,0.7
					c0.133,0.267,0.217,0.483,0.25,0.65l0.25-0.2c-0.1,0.1-0.15,0.25-0.15,0.45c0.1-0.033,0.133,0,0.1,0.1
					c-0.031,0.123-0.022,0.206,0.025,0.25L4.55-12.8v0.05H4.525c-0.002,0.041,0.023,0.074,0.075,0.1c0.066,0,0.05,0.05-0.05,0.15
					l0.2-0.05c-0.1,0.066-0.1,0.1,0,0.1c0.133,0,0.183,0.017,0.15,0.05l-0.05,0.05c0.066,0.033,0.1,0.083,0.1,0.15H5l0.05,0.15
					c0.034,0.033,0,0.083-0.1,0.15c0.066,0,0.117-0.05,0.15-0.15c0-0.034,0.066-0.067,0.2-0.1c0.076,0.334,0.135,0.634,0.175,0.9
					c-0.42-0.013-0.962,0.087-1.625,0.3L3.9-10.9c-0.1-0.067-0.217-0.033-0.35,0.1s-0.267,0.133-0.4,0
					c-0.1,0.066-0.117,0.15-0.05,0.25c-0.067-0.034-0.167,0-0.3,0.1c-0.133,0.167-0.267,0.217-0.4,0.15l0.05,0.05
					c-0.034,0.067-0.133,0.133-0.3,0.2C2.017-9.983,1.917-9.9,1.85-9.8L2-9.7c0,0.067-0.05,0.083-0.15,0.05S1.733-9.633,1.8-9.5
					C1.667-9.567,1.617-9.617,1.65-9.65c-0.167,0.2-0.433,0.433-0.8,0.7c-0.2,0.2-0.35,0.367-0.45,0.5C0.2-8.217,0.067-7.917,0-7.55
					c0.067,0.5,0.217,0.7,0.45,0.6c0.033-0.033,0.05-0.033,0.05,0c0.033,0.1,0.05,0.233,0.05,0.4c0.067,0,0.05,0.017-0.05,0.05
					c0.067,0.167,0.2,0.25,0.4,0.25c0.167,0,0.25,0.05,0.25,0.15c-0.066,0.067-0.1,0.117-0.1,0.15c0.034,0.067,0.034,0.117,0,0.15
					H1.6l0.2,0.05l0.1,0.1L1.95-5.8l0.1,0.25L2.3-5.4C2.533-5.233,2.683-5.1,2.75-5c0.933,0.033,1.833-0.183,2.7-0.65
					c0.733-0.434,1.316-1.067,1.75-1.9c0.143-0.337,0.26-0.662,0.35-0.975v0.075c0.034,0,0.133,0.05,0.3,0.15
					c0.1,0.066,0.2,0.05,0.3-0.05l0.15-0.3c0.1-0.067,0.1-0.017,0,0.15L8.1-8.2C8.167-8.033,8.267-8,8.4-8.1L8.3-7.9
					C8.533-8.2,8.617-8.233,8.55-8l-0.1,0.1L8.6-8c0,0.033-0.017,0.1-0.05,0.2L8.7-7.9c-0.1,0.267-0.1,0.367,0,0.3l0.2-0.15
					l-0.15,0.2c0.1-0.034,0.267-0.05,0.5-0.05C9.017-7.233,9-6.917,9.2-6.65l0.1-0.1c0.1,0,0.067,0.05-0.1,0.15l0.4-0.2
					c0.033,0-0.033,0.083-0.2,0.25L9.3-6.5c0.1,0.033,0.067,0.083-0.1,0.15L9.6-6.5L9.45-6.4C9.55-6.433,9.7-6.5,9.9-6.6
					c0.167-0.133,0.317-0.2,0.45-0.2L10.3-6.7c0.1-0.033,0.184-0.083,0.25-0.15c0.034-0.066,0.083-0.066,0.15,0
					c-0.167,0.233-0.367,0.317-0.6,0.25c0,0.067-0.1,0.133-0.3,0.2c0.167,0,0.167,0.066,0,0.2C9.567-6.167,9.433-6.15,9.4-6.15
					c0.056,0.028,0.123,0.036,0.2,0.025L9.3-6.05c0.067,0.033,0.017,0.066-0.15,0.1L9.8-6C9.7-5.95,9.6-5.917,9.5-5.9h0.05
					l-0.1,0.05C9.383-5.817,9.433-5.783,9.6-5.75H9.35L9.6-5.7L9.5-5.65c-0.067,0.033-0.017,0.066,0.15,0.1H9.375
					C9.48-5.553,9.421-5.587,9.2-5.65c0.16,0.053,0.16,0.086,0,0.1L9-5.5c0.233,0.1,0.333,0.167,0.3,0.2h0.15
					c0.1,0.033,0.117,0.066,0.05,0.1L8.95-5.35c0.127,0.063,0.135,0.097,0.025,0.1H9.2c0.033,0,0.083,0.033,0.15,0.1
					c0.1,0.033,0.133,0.066,0.1,0.1C9.364-5.016,9.281-5.007,9.2-5.025C9.174-5.032,9.149-5.041,9.125-5.05
					C9.042-5.083,8.967-5.1,8.9-5.1l0.4,0.35l0.3,0.1v0.05C9.767-4.567,9.9-4.5,10-4.4c0.033,0.033-0.017,0.05-0.15,0.05
					c-0.133-0.1-0.283-0.167-0.45-0.2c-0.2-0.067-0.35-0.133-0.45-0.2c-0.067,0,0.017,0.1,0.25,0.3c0.133,0.133,0.1,0.167-0.1,0.1
					l-0.2-0.2c-0.267-0.133-0.367-0.133-0.3,0C8.7-4.517,8.883-4.4,9.15-4.2c-0.066-0.066-0.066-0.1,0-0.1
					C9.35-4.133,9.433-4.033,9.4-4C9.267-4,9.183-4.017,9.15-4.05C9.183-4.083,9.133-4.133,9-4.2c-0.033,0-0.05,0.034-0.05,0.1
					c0.033,0.033-0.034,0.017-0.2-0.05c0.033-0.033-0.033-0.133-0.2-0.3H8.4l0.15,0.1c0,0.033-0.05,0.033-0.15,0
					c-0.066-0.066-0.117-0.066-0.15,0l0.2,0.2c0.066,0.033,0.117,0.033,0.15,0s0.1,0,0.2,0.1c-0.167-0.034-0.233,0-0.2,0.1h0.1
					c0.176,0.176,0.242,0.276,0.2,0.3c0.037,0.004,0.087,0.037,0.15,0.1l0.35,0.5H9.25c-0.1-0.133-0.2-0.25-0.3-0.35
					C8.917-3.267,8.767-3.233,8.5-3.3c0.1,0.2,0.183,0.267,0.25,0.2L8.4-2.7C8.333-2.833,8.283-2.883,8.25-2.85
					c-0.1,0.033-0.167,0.017-0.2-0.05C8.117-3.067,8.033-3.217,7.8-3.35l0.15,0.2c-0.067-0.033-0.083,0-0.05,0.1
					c0.067,0.066,0.05,0.066-0.05,0l0.5,0.5c-0.067-0.034-0.067-0.017,0,0.05C8.417-2.433,8.433-2.383,8.4-2.35H7.9
					C7.933-2.217,7.883-2.133,7.75-2.1S7.517-2.033,7.45-2c0.2,0.267,0.283,0.417,0.25,0.45c-0.034,0.033-0.067,0-0.1-0.1
					c-0.033-0.067-0.067-0.067-0.1,0L7.55-1.6c-0.053,0.187-0.153,0.22-0.3,0.1L7.4-1.35c0,0.033-0.033,0.017-0.1-0.05
					c0.067,0.133,0.133,0.217,0.2,0.25C7.533-1.05,7.5-1,7.4-1C7.3-1.033,7.233-1.05,7.2-1.05l-0.05-0.2c-0.1,0-0.167,0.033-0.2,0.1
					C6.883-1.05,6.817-1,6.75-1l0.1,0.15L6.7-0.9c0.066,0.066,0.1,0.133,0.1,0.2c0,0.034-0.033,0.034-0.1,0l0.5,0.3
					C7.067-0.533,6.967-0.667,6.9-0.8C6.867-0.867,6.883-0.917,6.95-0.95c0.066,0,0.133,0.034,0.2,0.1
					C7.117-0.817,7.067-0.817,7-0.85c0.033,0.067,0.15,0.167,0.35,0.3C7.317-0.517,7.283-0.5,7.25-0.5c0.1,0.067,0.2,0.067,0.3,0
					C7.543-0.52,7.535-0.536,7.525-0.55c0.102,0.077,0.177,0.043,0.225-0.1c-0.033-0.1,0.017-0.133,0.15-0.1s0.217,0.033,0.25,0
					C8.017-0.883,7.85-1,7.65-1.1L7.7-1.3c0.233,0.233,0.417,0.35,0.55,0.35L8.1-1.1c0.033,0,0.117,0.033,0.25,0.1
					C8.417-0.933,8.467-0.933,8.5-1l0.45-0.55l-0.1-0.1c0.133,0.066,0.25,0.066,0.35,0c0.1-0.067,0.183-0.1,0.25-0.1
					c0-0.1,0.083-0.2,0.25-0.3C9.833-2.117,9.867-2.2,9.8-2.3c0.5-0.333,0.817-0.633,0.95-0.9L10.5-3.3
					c0.097,0.024,0.114,0.007,0.05-0.05c0.1,0.048,0.234,0.048,0.4,0c-0.067-0.167,0.1-0.333,0.5-0.5l-0.15-0.1
					c0.167-0.033,0.25-0.117,0.25-0.25C11.55-4.3,11.533-4.433,11.5-4.6z M8.85-3.6l0.025-0.025c-0.024,0-0.066-0.008-0.125-0.025
					l-0.2-0.2c-0.2,0-0.333,0.017-0.4,0.05c0.067,0.066,0.1,0.117,0.1,0.15S8.3-3.567,8.4-3.5c-0.066-0.067-0.066-0.133,0-0.2
					c0.067-0.033,0.167-0.017,0.3,0.05C8.767-3.55,8.817-3.533,8.85-3.6z M4.45-7L3.9-7.4l0.05,0.15L3.8-7.4
					c-0.133,0-0.167,0.117-0.1,0.35C3.767-7.05,3.8-7,3.8-6.9C3.7-6.967,3.617-6.983,3.55-6.95L3.6-6.9
					C3.567-6.867,3.517-6.883,3.45-6.95C3.39-7.01,3.373-7.085,3.4-7.175C3.32-7.258,3.253-7.3,3.2-7.3l0.05,0.25L2.9-7.5l0.05,0.2
					c-0.034,0.066-0.1,0.066-0.2,0c-0.067-0.1-0.133-0.1-0.2,0l0.025,0.025c-0.039-0.022-0.072-0.039-0.1-0.05L2.4-7.3H2.35
					C2.517-7.233,2.533-7.217,2.4-7.25l-0.25-0.1h0.2L2.3-7.4h0.05v-0.05C2.362-7.474,2.378-7.49,2.4-7.5l0.05,0.05
					c0,0.026,0.008,0.051,0.025,0.075L2.45-7.35l0.025,0.025L2.5-7.35c0.011,0.02,0.028,0.037,0.05,0.05l0.025-0.1L2.6-7.45V-7.5
					c0.049,0.009,0.083,0.026,0.1,0.05c0.033-0.066,0.083-0.066,0.15,0c0-0.033,0.017-0.083,0.05-0.15
					c0.033-0.066,0.033-0.15,0-0.25c0.2,0.067,0.3,0.067,0.3,0L3.1-7.9c0-0.033,0.033-0.05,0.1-0.05v-0.4L3.5-8
					C3.433-8.133,3.467-8.183,3.6-8.15c0.1,0.033,0.133,0,0.1-0.1C3.6-8.383,3.55-8.467,3.55-8.5c-0.033-0.133,0-0.15,0.1-0.05
					c0.133,0.1,0.2,0.117,0.2,0.05l0.1,0.3c0-0.066,0.033-0.083,0.1-0.05c0.067,0,0.067-0.05,0-0.15c0.067-0.1,0.133-0.05,0.2,0.15
					c0.033-0.1,0.133-0.167,0.3-0.2c0.133-0.033,0.2-0.167,0.2-0.4c0.067,0.067,0.1,0.117,0.1,0.15c-0.067-0.1-0.083-0.1-0.05,0
					l0.05,0.1C4.917-8.667,4.9-8.783,4.8-8.95C4.833-9.05,4.9-9,5-8.8c0.133,0.167,0.217,0.233,0.25,0.2
					c-0.033-0.133-0.033-0.2,0-0.2l0.075,0.1L5.35-8.675C5.312-8.457,5.228-8.332,5.1-8.3C5.333-8.167,5.4-8.067,5.3-8
					C5.233-8.033,5.15-8.033,5.05-8C4.983-8,4.9-8.05,4.8-8.15c-0.1,0.267-0.167,0.4-0.2,0.4c0.1,0,0.217,0.083,0.35,0.25l0.1,0.2
					c0.034-0.067,0.083-0.067,0.15,0C5-7.233,4.9-7.167,4.9-7.1C4.5-7.3,4.267-7.383,4.2-7.35C4.3-7.317,4.383-7.2,4.45-7z M5.525-9
					L5.55-9.025v0.075L5.525-9C5.499-8.968,5.473-8.935,5.45-8.9C5.434-8.868,5.417-8.843,5.4-8.825
					C5.392-8.893,5.375-8.985,5.35-9.1C5.435-9.1,5.493-9.067,5.525-9z M5.675-9.1h-0.1v-0.05c0.023,0,0.048,0,0.075,0L5.675-9.1z"
					/>
				<path style="fill-rule:evenodd;clip-rule:evenodd;fill:#D0A885;" d="M8.85-4.85c0.1,0,0.1-0.033,0-0.1L8.8-4.9L8.85-4.85z"/>
			</g>
		</g>
	</g>
</symbol>
<g>
	
		<use xlink:href="#FlashAICB_x2F_paper_talismen__x28_group_and_single_x29__x2F__x3C_Path_x3E__x5F_2"  width="19.9" height="46.25" y="-46.25" transform="matrix(1 0 0 -1 5.1499 0)" style="overflow:visible;opacity:0.5;enable-background:new    ;"/>
	<rect x="18" y="4.65" style="fill-rule:evenodd;clip-rule:evenodd;fill:#24200E;" width="12.15" height="3.2"/>
	<rect y="4.65" style="fill-rule:evenodd;clip-rule:evenodd;fill:#24200E;" width="12.15" height="3.2"/>
</g>
<g>
	
		<use xlink:href="#FlashAICB_x2F_paper_talismen__x28_group_and_single_x29__x2F__x3C_Path_x3E__x5F_3"  width="11.975" height="19.057" y="-19.457" transform="matrix(1 0 0 -1 9.4502 8.6499)" style="overflow:visible;enable-background:new    ;"/>
	
		<use xlink:href="#FlashAICB_x2F_paper_talismen__x28_group_and_single_x29__x2F__x3C_Path_x3E__x5F_2_x5F_0"  width="7.55" height="10.75" y="-10.925" transform="matrix(1 0 0 -1 11.5498 23.75)" style="overflow:visible;enable-background:new    ;"/>
	
		<use xlink:href="#FlashAICB_x2F_paper_talismen__x28_group_and_single_x29__x2F__x3C_Path_x3E__x5F_1"  width="6.9" height="8.357" y="-8.357" transform="matrix(1 0 0 -1 12.7998 31.25)" style="overflow:visible;enable-background:new    ;"/>
	
		<use xlink:href="#FlashAICB_x2F_paper_talismen__x28_group_and_single_x29__x2F__x3C_Path_x3E_"  width="8.65" height="6" y="-6.3" transform="matrix(1 0 0 -1 12.8999 37.3496)" style="overflow:visible;enable-background:new    ;"/>
</g>
</svg>
