<?xml version="1.0" encoding="iso-8859-1"?>
<!-- Generator: Adobe Illustrator 15.1.0, SVG Export Plug-In . SVG Version: 6.00 Build 0)  -->
<!DOCTYPE svg PUBLIC "-//W3C//DTD SVG 1.1//EN" "http://www.w3.org/Graphics/SVG/1.1/DTD/svg11.dtd">
<svg version="1.1" id="paper_talismen__x28_group_and_single_x29_"
	 xmlns="http://www.w3.org/2000/svg" xmlns:xlink="http://www.w3.org/1999/xlink" x="0px" y="0px" width="30.2px" height="46.3px"
	 viewBox="0 0 30.2 46.3" style="enable-background:new 0 0 30.2 46.3;" xml:space="preserve">
<symbol  id="FlashAICB_x2F_paper_talismen__x28_group_and_single_x29__x2F__x3C_Path_x3E__x5F_2" viewBox="0 -46.3 19.9 46.3">
	<g id="Layer_1_2_">
		<polygon style="fill-rule:evenodd;clip-rule:evenodd;fill:#FFECCD;" points="0.3,-46.3 0,-0.15 19.6,0 19.9,-46.15 		"/>
	</g>
</symbol>
<g>
	<g>
		
			<use xlink:href="#FlashAICB_x2F_paper_talismen__x28_group_and_single_x29__x2F__x3C_Path_x3E__x5F_2"  width="19.9" height="46.3" y="-46.3" transform="matrix(1 0 0 -1 5.1499 0)" style="overflow:visible;opacity:0.5;enable-background:new    ;"/>
		<rect x="18" y="4.65" style="fill-rule:evenodd;clip-rule:evenodd;fill:#24200E;" width="12.2" height="3.25"/>
		<rect y="4.65" style="fill-rule:evenodd;clip-rule:evenodd;fill:#24200E;" width="12.15" height="3.25"/>
	</g>
	<g>
		<g>
			<g>
				<path style="fill-rule:evenodd;clip-rule:evenodd;fill:#816C59;" d="M12.5,13.25l-0.15,0.2c-0.067,0.066-0.1,0.066-0.1,0
					c0.033-0.034,0.033-0.05,0-0.05l0.15-0.2l-0.1,0.1c0.038-0.039,0.087-0.106,0.15-0.2l0.45-0.4l-0.4,0.4l-0.1,0.15
					c0.034,0,0.1-0.05,0.2-0.15c0-0.03-0.025-0.022-0.075,0.025L12.9,12.75c0.067-0.1,0.133-0.15,0.2-0.15l-0.175,0.175
					c0.15-0.143,0.225-0.184,0.225-0.125c-0.066,0.1-0.066,0.117,0,0.05l0.15-0.05l-0.55,0.45c0.033,0.033,0.017,0.083-0.05,0.15
					l0.55-0.5L13.1,12.9c0.066-0.033,0.183-0.117,0.35-0.25v0.25l-0.15,0.2c0.267-0.233,0.4-0.317,0.4-0.25
					c-0.034,0.066-0.017,0.1,0.05,0.1c0.033,0,0,0.066-0.1,0.2c0.3-0.066,0.45-0.05,0.45,0.05l-0.25,0.2
					c0.131-0.098,0.098-0.048-0.1,0.15c0.077-0.074,0.227-0.19,0.45-0.35c-0.067,0.1,0.05,0.083,0.35-0.05l-0.2,0.15
					c0.167-0.1,0.233-0.117,0.2-0.05c0,0.033-0.033,0.1-0.1,0.2c-0.267,0.133-0.333,0.2-0.2,0.2l0.5-0.3
					c0.066,0.066,0.033,0.15-0.1,0.25c0.2-0.067,0.35-0.067,0.45,0c0.067,0.066,0.15,0.1,0.25,0.1l-0.25,0.15
					c0.233-0.067,0.367-0.05,0.4,0.05c0.033,0.133,0.1,0.2,0.2,0.2l-0.45,0.2c-0.3,0.3-0.15,0.25,0.45-0.15
					c-0.033,0.033-0.017,0.05,0.05,0.05c0.066,0.033,0.033,0.083-0.1,0.15h0.3c-0.06,0.059-0.051,0.134,0.024,0.225L15.7,14.7
					c0.233,0,0.383-0.017,0.45-0.05c-0.067,0.067-0.051,0.133,0.05,0.2c0.066,0.033,0.033,0.1-0.101,0.2L16.4,15
					c0,0.033-0.018,0.1-0.051,0.2c-0.033,0.066,0,0.116,0.101,0.15c-0.2,0.033-0.3,0.066-0.3,0.1l0.3-0.05
					c0.133,0.067,0.133,0.184,0,0.35c-0.134,0.167-0.2,0.267-0.2,0.3c0.133,0.167,0.184,0.383,0.15,0.65
					c-0.034,0.133-0.101,0.333-0.2,0.6L16.1,17.25c0.101,0.1,0.067,0.167-0.1,0.2c-0.134,0.033-0.117,0.133,0.05,0.3
					c-0.066,0.033-0.149,0-0.25-0.1c0.066,0.1,0.033,0.167-0.1,0.2c-0.113,0-0.155,0.05-0.125,0.15
					c-0.086-0.025-0.145,0.008-0.175,0.1c-0.067,0.066-0.134,0.083-0.2,0.05c0-0.066-0.033-0.117-0.101-0.15
					c0.109,0.197,0.126,0.264,0.051,0.2c-0.2,0.033-0.317,0.116-0.351,0.25l-0.15,0.4c-0.125-0.125-0.208-0.233-0.25-0.325
					c0.017,0.067,0,0.075-0.05,0.025l-0.2-0.25l0.15,0.35c-0.1-0.133-0.167-0.217-0.2-0.25c-0.067-0.066-0.083-0.033-0.05,0.1
					l-0.1-0.2c0.133,0.333,0.2,0.617,0.2,0.85c-0.4,0.5-0.716,0.8-0.95,0.9l-0.6,0.2c-0.233,0.066-0.434,0.05-0.6-0.05
					c-0.1-0.233-0.167-0.35-0.2-0.35l-0.025,0.075c0.005,0.184-0.02,0.275-0.075,0.275c-0.167,0.066-0.3,0.1-0.4,0.1
					c0-0.233-0.017-0.35-0.05-0.35v0.55c-0.133,0.133-0.316,0.117-0.55-0.05c-0.267-0.2-0.45-0.284-0.55-0.25
					c-0.066-0.1-0.167-0.083-0.3,0.05c-0.233-0.4-0.35-0.617-0.35-0.65c-0.133-0.133-0.283-0.133-0.45,0l0.35-1.25
					c0.067-0.3,0.15-0.417,0.25-0.35c0.067,0.066,0.133,0.017,0.2-0.15c-0.034,0.333-0.034,0.45,0,0.35c0.1-0.5,0.25-0.4,0.45,0.3
					v0.15c0.034,0.067,0.067-0.033,0.1-0.3v0.25l0.05-0.35l0.05,0.45v-0.3c0.033-0.3,0.066-0.4,0.1-0.3
					c0.064,0.064,0.098,0.048,0.1-0.05v0.2c0.033-0.2,0.083-0.333,0.15-0.4l0.15-0.2l0.05,0.45v-0.5
					c0.032,0.22,0.065,0.203,0.1-0.05l0.025-0.025c-0.003-0.096,0.022-0.104,0.075-0.025c0.033,0.063,0.05,0.063,0.05,0l0.05,0.1
					v-0.25l0.1,0.55c0.033-0.2,0.15-0.333,0.35-0.4l0.1,0.35l0.05-0.3l0.05,0.2c0.025,0.075,0.033,0.05,0.025-0.075L12.05,17.9v-0.4
					l0.05,0.25c0.063,0.031,0.079-0.019,0.05-0.15l0.05,0.2c0.078,0.13,0.095,0.097,0.05-0.1v-0.4l0.05,0.1
					c0.067,0.033,0.083-0.017,0.05-0.15c0.033,0.066,0.1,0.217,0.2,0.45c0-0.134-0.05-0.367-0.15-0.7
					c0.075,0.075,0.117,0.1,0.125,0.075L12.8,17.85c0.034,0.066,0.05,0.117,0.05,0.15l0.05-0.1c-0.167-0.5-0.233-0.783-0.2-0.85
					c0,0.1,0.066,0.284,0.2,0.55l-0.225-0.725c0.05,0.138,0.075,0.18,0.075,0.125l-0.075-0.225c0.023,0.05,0.065,0.125,0.125,0.225
					l0.1,0.2c0.025,0,0.033-0.025,0.025-0.075c0.103,0.093,0.07-0.041-0.1-0.4L12.7,16.2l0.1,0.25c0.067,0.066,0.083,0.05,0.05-0.05
					c-0.034-0.133,0-0.133,0.1,0v-0.05c0-0.1-0.017-0.184-0.05-0.25c0-0.034,0.034-0.017,0.1,0.05L12.925,16L13,15.975l-0.05-0.05
					L12.9,15.95V15.9h0.05l-0.025-0.025L12.9,15.9v-0.025l-0.05-0.1V15.75l-0.3,0.1l0.45-0.3c-0.467,0.2-0.7,0.267-0.7,0.2l0.45-0.3
					L12.4,15.6l-0.075,0.075c0.061-0.063,0.027-0.063-0.1,0L13.5,14.85l-0.1,0.05c0.021-0.018,0.038-0.034,0.05-0.05l-0.3,0.2
					c-0.368,0.255-0.584,0.388-0.65,0.4l0.25-0.15c0.167-0.133,0.15-0.15-0.05-0.05l-0.45,0.35l0.3-0.25l-0.4,0.3
					c0.028-0.057-0.013-0.04-0.125,0.05c0.155-0.13,0.364-0.297,0.625-0.5l-0.7,0.5l0.4-0.3l-0.1,0.05l0.1-0.1l-0.25,0.2l0.3-0.25
					l-0.15,0.1c-0.04,0-0.04-0.017,0-0.05l-0.15,0.1l-0.05,0.05c-0.108,0.082-0.184,0.132-0.225,0.15H11.8l0.4-0.4
					c0.133-0.067,0.167-0.1,0.1-0.1l-0.275,0.225l0.225-0.225l-0.2,0.15c-0.133,0.1-0.25,0.184-0.35,0.25L13,14.4
					c0-0.133-0.05-0.1-0.15,0.1c-0.342,0.237-0.634,0.462-0.875,0.675c0.449-0.424,0.507-0.499,0.175-0.225
					c-0.014,0.017-0.031,0.034-0.05,0.05c-0.067,0.033-0.15,0.117-0.25,0.25c-0.267,0.233-0.367,0.283-0.3,0.15
					c0.118-0.059,0.301-0.209,0.55-0.45V14.9l-0.2,0.15c-0.1,0.133-0.216,0.233-0.35,0.3l0.05-0.05l-0.25,0.2l0.3-0.3
					c0.167-0.134,0.267-0.217,0.3-0.25c0.366-0.367,0.433-0.45,0.2-0.25l-0.175,0.15c0.021-0.028,0.046-0.062,0.075-0.1
					c0.233-0.233,0.35-0.333,0.35-0.3L12.85,14l-0.45,0.4c0.067-0.133-0.033-0.066-0.3,0.2l0.3-0.35c-0.133,0.133-0.15,0.1-0.05-0.1
					l-0.6,0.6l0.125-0.15c0.112-0.109,0.287-0.292,0.525-0.55c0.133-0.133,0.184-0.2,0.15-0.2L12.2,14.1
					c0.133-0.2,0.1-0.233-0.1-0.1l0.3-0.325c-0.079,0.075-0.096,0.066-0.05-0.025l0.05-0.05v-0.05c-0.027,0-0.102,0.059-0.225,0.175
					L12.6,13.25l0.05-0.1L12.5,13.25z M11.9,15.475l0.125-0.1L11.95,15.45L11.9,15.475z M15.975,14.575L16,14.55v0.05L15.975,14.575
					z M13.125,15.975L13.15,16v-0.025H13.125z M13.25,15.95l-0.025-0.025H13.2L13.25,15.95l0.025,0.025V15.95H13.25z M13.1,15.925
					L13.025,15.9l0.1,0.05L13.1,15.925z M13.25,16l-0.025-0.025h-0.05L13.25,16z M13.1,15.85v-0.025h-0.025L13.1,15.85z M13.35,16
					l-0.025-0.025H13.3L13.35,16z M12.925,17.125L12.9,17.1v-0.05C12.909,17.076,12.917,17.101,12.925,17.125z"/>
			</g>
		</g>
		<g>
			<g>
				<path style="fill-rule:evenodd;clip-rule:evenodd;fill:#816C59;" d="M9.9,10.9l0.75,1.05c0.2,0.267,0.233,0.45,0.1,0.55
					c-0.167,0.1-0.2,0.217-0.1,0.35c0,0.033-0.117-0.017-0.35-0.15c0.2,0.267,0.217,0.45,0.05,0.55C10.25,13.283,10,13.3,9.6,13.3
					l-0.1-0.1c0.167,0.2,0.233,0.3,0.2,0.3l-0.2-0.15c0.133,0.106,0.2,0.206,0.2,0.3l-0.45-0.2l0.3,0.2
					c0.233,0.133,0.3,0.217,0.2,0.25C9.617,13.933,9.6,14,9.7,14.1L9.5,14c0.233,0.233,0.316,0.5,0.25,0.8L9.4,14.625
					c0.116,0.066,0.233,0.158,0.35,0.275c-0.133-0.033-0.15,0-0.05,0.1c0.133,0.066,0.167,0.1,0.1,0.1H9.75
					c0.2,0.1,0.25,0.15,0.15,0.15L9.65,15.2c0.259,0.115,0.284,0.157,0.075,0.125L9.7,15.3H9.6c0.045,0.009,0.087,0.018,0.125,0.025
					C9.76,15.375,9.718,15.4,9.6,15.4H9.55l0.025,0.05c-0.094-0.032-0.219-0.065-0.375-0.1c0.133,0.2,0.167,0.483,0.1,0.85H8.95
					l0.25,0.2l-0.25-0.05c0.267,0.1,0.35,0.15,0.25,0.15l-0.35-0.05c0.167,0.066,0.267,0.133,0.3,0.2L8.9,16.6
					c0.203,0.058,0.27,0.116,0.2,0.175c0.078,0.03,0.078,0.055,0,0.075L8.85,16.8c0.267,0.1,0.4,0.2,0.4,0.3h-0.1v0.1
					c-0.033,0.066-0.017,0.116,0.05,0.15H8.775c0.121,0.004,0.212,0.038,0.275,0.1c0.067,0.033,0.2,0.05,0.4,0.05
					c-0.2,0.1-0.25,0.167-0.15,0.2l-0.85-0.05c0.066-0.033,0.017-0.05-0.15-0.05c0.134,0.1,0.167,0.15,0.1,0.15
					C8.6,17.816,8.883,17.9,9.25,18L8.7,17.95l0.85,0.15L9.3,18.15h0.3c0.066,0.067-0.05,0.117-0.35,0.15L9,18.25l0.15,0.1H9.1
					c-0.099,0.131,0.043,0.148,0.425,0.05c0.15,0.014,0.225,0.047,0.225,0.1h-0.3l0.6,0.15h-0.3c-0.066,0.033-0.033,0.083,0.1,0.15
					c0.1,0.034,0.066,0.067-0.1,0.1H10c0,0.033-0.066,0.067-0.2,0.1c0.267,0.1,0.333,0.167,0.2,0.2l0.4-0.05l-0.25,0.05
					c0.02,0.02,0.003,0.036-0.05,0.05c0.099,0.007,0.083,0.023-0.05,0.05L9.7,19.45l0.25-0.05h0.1l0.25-0.1
					c0.1,0,0.017,0.05-0.25,0.15L9.7,19.6l0.5-0.15c0.225-0.092,0.308-0.109,0.25-0.05l-0.3,0.25c0.1-0.066,0.184-0.1,0.25-0.1
					l-0.15,0.1c-0.066,0.067-0.033,0.067,0.1,0L9.95,20l0.5-0.4c-0.134,0.133-0.15,0.167-0.05,0.1c0.1-0.034,0.1,0,0,0.1
					c-0.1,0-0.2,0.083-0.3,0.25c0.233-0.167,0.3-0.183,0.2-0.05l0.3-0.3c0.115-0.086,0.106-0.062-0.025,0.075
					c0.042-0.03,0.084-0.055,0.125-0.075c-0.034,0.066-0.034,0.116,0,0.15c0.033,0.033-0.034,0.167-0.2,0.4l0.15-0.2L10.5,20.3
					c-0.066,0.2,0.066,0.067,0.4-0.4l-0.1,0.2l0.2-0.25l-0.35,0.65l0.2-0.2l-0.15,0.35c0.024-0.049,0.058-0.1,0.1-0.15
					c-0.033,0.066-0.017,0.066,0.05,0l0.1-0.3L11.1,20c-0.034,0.066-0.05,0.15-0.05,0.25c0,0.033,0.05-0.033,0.15-0.2l-0.1,0.2
					l-0.05,0.15l0.2-0.35l-0.15,0.3v0.15l0.075-0.15c0.055-0.046,0.113-0.163,0.175-0.35v0.25c-0.057,0.171-0.041,0.171,0.05,0
					l0.15-0.15l-0.15,0.65c0.034,0,0.067-0.083,0.1-0.25c0.066-0.165,0.099-0.298,0.1-0.4c0.001,0.066,0.034,0.083,0.1,0.05
					c0.066-0.033,0.083,0.017,0.05,0.15l0.1-0.2H12c0.066-0.034,0.1,0.05,0.1,0.25l0.05-0.2c0.1-0.2,0.15-0.15,0.15,0.15
					c0,0.05,0.017,0.067,0.05,0.05l0.05-0.25v0.25c0.001-0.036,0.035-0.119,0.1-0.25l-0.05,0.25c0.1-0.4,0.15-0.5,0.15-0.3v0.35
					c0.049-0.049,0.075-0.1,0.075-0.15c0.05,0.207,0.075,0.324,0.075,0.35c0.133-0.5,0.283-0.717,0.45-0.65v0.15l0.025,0.075
					L13.2,20.5c0.033,0.133,0.083,0,0.15-0.4V20c0.029,0.087,0.046,0.046,0.05-0.125v0.475l0.05-0.15c0,0.258-0.034,0.642-0.1,1.15
					c0.033,0.233,0.033,0.417,0,0.55c0.1-0.367,0.117-0.65,0.05-0.85c0.042-0.041,0.075-0.158,0.1-0.35
					c0.014,0.084,0.047,0.034,0.1-0.15c0-0.333,0-0.517,0-0.55l0.05,0.35v-0.5c0.034,0.1,0.067,0.033,0.1-0.2v0.9l0.05-0.9v0.55
					l0.05-0.15l0.05,0.2V19.9l0.05,0.35L14,20.1c0.033-0.067,0.05,0,0.05,0.2c0.034,0,0.05-0.117,0.05-0.35
					c-0.034,0.167-0.067,0.1-0.1-0.2l0.05,0.1l0.05-0.25v0.15c0.031,0,0.048-0.059,0.05-0.175c0.034,0.282,0.068,0.407,0.1,0.375
					l-0.05,0.2l0.05,0.15l0.05-0.75v0.3c0,0.333,0.034,0.466,0.1,0.4c0.02-0.181,0.028-0.322,0.025-0.425L14.45,20v-0.45l0.15,0.7
					l-0.05,0.4h0.05v0.65c0.033,0.034,0.05-0.033,0.05-0.2c0.031-0.494,0.031-0.902,0-1.225c0.097,0.774,0.147,0.916,0.15,0.425
					l0.1,0.55c0.067-0.067,0.083-0.184,0.05-0.35c-0.034,0.033-0.05-0.05-0.05-0.25c0.06,0.21,0.093,0.177,0.1-0.1
					c0.033,0,0.066-0.05,0.1-0.15v0.1c0.067,0.5,0.101,0.617,0.101,0.35V20l0.1-0.3c0.007,0.053,0.015,0.103,0.025,0.15
					c-0.05-0.099-0.075,0.067-0.075,0.5c0.033,0.3,0.017,0.433-0.05,0.4l0.149,0.8V21.4l-0.05-0.6c0.101,0.1,0.15-0.033,0.15-0.4
					c0.088,0.235,0.097,0.394,0.024,0.475c0.094-0.073,0.186-0.064,0.275,0.025c0.033-0.066,0.017-0.233-0.05-0.5l-0.05-0.35
					c0.043,0.172,0.067,0.23,0.074,0.175c0.011,0.162,0.036,0.42,0.075,0.775c0.033,0.167,0.066,0.25,0.101,0.25L16,20.8
					c0.1,0.233,0.184,0.217,0.25-0.05c0.066,0.1,0.116,0.316,0.15,0.65c0.033,0,0.033-0.083,0-0.25l0.05,0.1
					c0.057,0.095,0.091,0.095,0.1,0v0.1c0.033,0.033,0.05,0,0.05-0.1l0.051,0.35c0.066,0.2,0.1,0.183,0.1-0.05l-0.05-0.3
					c0.033-0.067,0.066-0.083,0.1-0.05c0.066,0.033,0.101,0.033,0.101,0l0.05,0.25V21.3c0.063,0.313,0.096,0.388,0.1,0.225v0.625
					l-0.1-0.6c-0.067-0.267-0.101-0.216-0.101,0.15l0.051-0.15l0.05,0.6c0.031,0.063,0.048,0.063,0.05,0
					c-0.002,0.133-0.035,0.2-0.1,0.2c-0.008,0.093-0.041,0.11-0.101,0.05c-0.033-0.167-0.066-0.183-0.1-0.05l-0.05,0.2
					c-0.034-0.333-0.034-0.583,0-0.75c-0.034,0.034-0.084-0.017-0.15-0.15c0.066,0.4,0.083,0.667,0.05,0.8L16.5,22.2
					c0,0.333-0.017,0.483-0.05,0.45c-0.101-0.066-0.217-0.1-0.351-0.1l-0.05-0.25c0.033,0.333-0.017,0.483-0.149,0.45
					c-0.034-0.067-0.084-0.067-0.15,0c-0.066,0.033-0.117-0.017-0.15-0.15c-0.267,0.267-0.467,0.367-0.6,0.3l0.05-0.35
					c-0.033,0.167-0.066,0.117-0.1-0.15V23c-0.134-0.2-0.233-0.1-0.3,0.3v-0.25c-0.033,0.2-0.083,0.267-0.15,0.2
					c-0.066-0.1-0.117-0.167-0.15-0.2c0-0.267-0.034-0.367-0.1-0.3c0,0.167-0.05,0.367-0.15,0.6c-0.067,0-0.133-0.083-0.2-0.25
					c-0.1,0.2-0.216,0.316-0.35,0.35c-0.2,0.033-0.333,0.083-0.4,0.15v-0.25c-0.1,0.233-0.233,0.316-0.4,0.25
					c-0.2-0.034-0.333-0.017-0.4,0.05l0.1-0.5c-0.034-0.066-0.067-0.05-0.1,0.05c-0.066,0.1-0.1,0.233-0.1,0.4
					c-0.001-0.033-0.034-0.033-0.1,0c-0.066,0.066-0.1,0.017-0.1-0.15c-0.066,0.133-0.133,0.216-0.2,0.25
					c-0.058-0.116-0.142-0.158-0.25-0.125V23.3c-0.034,0-0.067,0-0.1,0c-0.033,0.034-0.066,0.167-0.1,0.4c0-0.1-0.066-0.134-0.2-0.1
					c-0.134,0.033-0.217-0.034-0.25-0.2l-0.1,0.3c-0.133-0.267-0.267-0.317-0.4-0.15c0.1-0.167,0.133-0.267,0.1-0.3L10.4,23.5
					c-0.1,0.1-0.2,0.05-0.3-0.15c-0.133-0.2-0.217-0.3-0.25-0.3c-0.2,0.067-0.417,0.034-0.65-0.1
					c-0.233-0.167-0.417-0.284-0.55-0.35l0.1-0.1c-0.133,0.1-0.2,0.066-0.2-0.1c-0.033-0.167-0.133-0.167-0.3,0v-0.15
					c0-0.033,0.033-0.083,0.1-0.15c-0.1,0.033-0.15-0.017-0.15-0.15c-0.025-0.127-0.092-0.186-0.2-0.175
					c0.024-0.089-0.009-0.165-0.1-0.225c-0.1-0.066-0.133-0.15-0.1-0.25L8,21.25c0.033-0.067-0.017-0.083-0.15-0.05
					c-0.1,0-0.067-0.05,0.1-0.15l-0.25,0.1c0-0.167-0.1-0.333-0.3-0.5c-0.267-0.3-0.417-0.483-0.45-0.55
					c0.1-0.133,0.267-0.217,0.5-0.25c0.133-0.034,0.116-0.067-0.05-0.1H7.3c0.4-0.167,0.5-0.25,0.3-0.25
					c-0.133,0-0.267,0.017-0.4,0.05c0.066-0.066,0.167-0.133,0.3-0.2c0.066-0.067,0.05-0.117-0.05-0.15l0.15-0.05
					c-0.167-0.1-0.45-0.167-0.85-0.2c-0.3-0.9-0.45-1.583-0.45-2.05l0.2-1c0.066-0.4,0.2-0.717,0.4-0.95
					c0.233,0,0.367-0.017,0.4-0.05c0.034,0,0.017-0.066-0.05-0.2l0.125,0.05c-0.083-0.036-0.125-0.069-0.125-0.1
					c0-0.033-0.066-0.083-0.2-0.15c0.1-0.133,0.184-0.367,0.25-0.7c0.2,0.133,0.3,0.184,0.3,0.15L7.35,13.8l0.15,0.05l-0.35-0.2
					c-0.033-0.267,0.133-0.533,0.5-0.8c0.4-0.333,0.617-0.567,0.65-0.7c0.1-0.033,0.167-0.1,0.2-0.2c0.033-0.1,0.05-0.184,0.05-0.25
					l0.9-0.2C9.65,11.433,9.8,11.233,9.9,10.9z M15.05,19.7c0.033,0.233,0.017,0.383-0.05,0.45c0-0.03,0-0.063,0-0.1
					c-0.066,0.067-0.1-0.1-0.1-0.5l0.05-0.1v0.2c0.066,0.1,0.083-0.017,0.05-0.35L15.05,19.7z M13.5,20.7c0-0.025,0-0.058,0-0.1
					l0.05-0.35C13.537,20.428,13.521,20.578,13.5,20.7z M7.9,21.8c0.04-0.016,0.073-0.024,0.1-0.025V21.8H7.9z M11.6,23.575v0.075
					l-0.05-0.05C11.567,23.591,11.584,23.583,11.6,23.575z"/>
			</g>
		</g>
		<g>
			<g>
				<path style="fill-rule:evenodd;clip-rule:evenodd;fill:#816C59;" d="M13.7,24.4l0.25-0.051l-0.2-0.05
					c0.283-0.047,0.449-0.08,0.5-0.1l0.4,0.05c-0.233,0-0.433,0.033-0.6,0.1c-0.1,0.034-0.133,0.067-0.1,0.101
					c0.033,0.033,0.116,0.05,0.25,0.05l-0.15-0.1h0.6c0.061-0.03,0.069-0.047,0.025-0.051c0.117,0.005,0.175,0.055,0.175,0.15
					c-0.034,0.009-0.067,0.017-0.1,0.025c0.176-0.01,0.226,0.049,0.15,0.175c-0.133,0.033-0.133,0.083,0,0.149
					c0.133,0.067,0.2,0.117,0.2,0.15l-0.75-0.1L14.2,25.05c0.4,0,0.667,0.033,0.8,0.101h-0.25c0.066,0.066,0.217,0.116,0.45,0.149
					c-0.067,0.267-0.117,0.45-0.15,0.55L14.8,25.9c0.2,0.033,0.316,0.083,0.351,0.149c0.01,0.039,0.018,0.072,0.024,0.101
					c0.169,0.002,0.411,0.019,0.726,0.05c0.066,0.166,0.033,0.35-0.101,0.55c-0.033,0.1,0,0.116,0.101,0.05l0.05-0.05
					C16.017,26.717,16.033,26.8,16,27c-0.066,0.167-0.066,0.217,0,0.15c0.1-0.101,0.184-0.217,0.25-0.351
					c0.033,0.101,0.05,0.233,0.05,0.4c0,0.1,0.05,0.116,0.15,0.05L16.35,27.4c0.134-0.101,0.301-0.167,0.5-0.2
					c0.134,0,0.283-0.066,0.45-0.2c1.5,0.733,2.5,1.6,3,2.6c0.3,0.9,0.45,1.667,0.45,2.301c0,0.833-0.2,1.566-0.6,2.199
					c-0.301,0.067-0.467,0.134-0.5,0.2c-0.034,0.033-0.084,0.184-0.15,0.45c-0.066-0.066-0.117-0.1-0.15-0.1
					c0.134,0.1,0.167,0.199,0.101,0.3c-0.067,0.1-0.05,0.184,0.05,0.25c-0.667,0.666-1.283,1.1-1.85,1.3
					c0.066-0.033,0.05-0.134-0.051-0.3l-0.05,0.3l-0.05-0.1c-0.066,0.033-0.1,0.083-0.1,0.149c0,0.101,0.033,0.167,0.1,0.2
					c-0.667,0.333-1.417,0.366-2.25,0.1c-0.9-0.333-1.383-0.5-1.45-0.5c-0.133-0.166-0.366-0.199-0.7-0.1l-0.25-0.5V35.4
					c0.033-0.334,0.017-0.634-0.05-0.9l-0.075-0.2c-0.15-0.019-0.225-0.068-0.225-0.149c-0.066-0.134,0-0.2,0.2-0.2
					c0.066,0,0.15,0.017,0.25,0.05c0.133,0,0.25-0.05,0.35-0.15c0.034-0.033,0.034,0.084,0,0.351c0.254-0.297,0.521-0.33,0.8-0.101
					c0.163,0.13,0.33,0.346,0.5,0.65l-0.05,0.15c0.034,0.066,0.134-0.017,0.3-0.25L14.8,34.9c0.134-0.067,0.233-0.167,0.3-0.301v0.5
					l0.101-0.35c0.1-0.267,0.2-0.35,0.3-0.25c0.133,0.1,0.233,0.1,0.3,0l-0.05,0.2c0.233-0.3,0.55-0.517,0.95-0.65l0.149,0.4
					c-0.066-0.167-0.05-0.334,0.051-0.5c0.033,0.1,0.05,0.083,0.05-0.05c-0.033-0.167-0.017-0.217,0.05-0.15l0.05,0.05
					c0.134,0.066,0.117-0.017-0.05-0.25l0.2,0.15C17.1,33.6,17.1,33.566,17.2,33.6c0.133,0.101,0.183,0.101,0.149,0l-0.1-0.05
					c0.1,0.033,0.133,0.017,0.1-0.05H17.4l0.1-0.1c0-0.021-0.025-0.046-0.075-0.075c0.146,0.079,0.271,0.171,0.375,0.274
					c-0.033-0.267-0.033-0.5,0-0.699L17.9,32.3c0.166-0.066,0.283-0.083,0.35-0.05C18.184,32.116,18.1,32.033,18,32l0.25-0.05
					c0.1-0.066,0.017-0.117-0.25-0.15h0.35c-0.068-0.002-0.186-0.085-0.35-0.25h0.2c-0.134-0.033-0.184-0.066-0.15-0.1
					c0.064-0.064,0.064-0.098,0-0.101h0.2c0.167-0.133,0.066-0.166-0.3-0.1l0.25-0.05c-0.167,0-0.283-0.033-0.351-0.101L17.7,30.95
					l0.05-0.05c0-0.167-0.066-0.25-0.2-0.25c0.333-0.167,0.45-0.267,0.351-0.301c-0.167-0.066-0.384,0-0.65,0.2
					c0-0.217-0.025-0.316-0.075-0.3c0.093-0.041,0.234-0.141,0.425-0.3l0.2-0.25c0.035-0.023,0.069-0.04,0.101-0.05
					c-0.134-0.01-0.2-0.043-0.2-0.101l-0.8,0.3C17,29.816,17.133,29.7,17.3,29.5l-0.75,0.45c0.167-0.167,0.217-0.233,0.15-0.2
					l-0.25,0.15L16.4,29.85c-0.034-0.066,0.017-0.166,0.149-0.3c0.066,0,0.117-0.05,0.15-0.149c-0.101,0.033-0.167,0.033-0.2,0
					V29.35c0-0.066-0.033-0.066-0.1,0c-0.101,0.067-0.167,0.15-0.2,0.25v0.025c-0.092,0.05-0.175,0.075-0.25,0.075l0.2-0.25
					l-0.601,0.3c0.109-0.131,0.176-0.206,0.2-0.225c-0.01-0.079-0.077-0.087-0.2-0.025c-0.116,0.023-0.175-0.002-0.175-0.075
					C15.354,29.459,15.33,29.5,15.3,29.55c0.066-0.233,0.066-0.316,0-0.25c0.134-0.2,0.083-0.184-0.149,0.05l0.05-0.1
					c-0.067,0.066-0.15,0.1-0.25,0.1c-0.073,0-0.131-0.017-0.175-0.05H14.75c-0.049-0.024-0.091-0.041-0.125-0.05L14.5,29.375V29.35
					l-0.1,0.15l0.1-0.125c0.06,0.181,0.076,0.389,0.05,0.625c-0.2,0.2-0.45,0.267-0.75,0.2c-0.167,0.333-0.483,0.517-0.95,0.55
					c-0.534,0.033-0.817,0.066-0.85,0.1v-0.3c-0.267,0.2-0.566,0.233-0.9,0.101c-0.367-0.2-0.617-0.284-0.75-0.25l0.25-0.45
					c0-0.066-0.05-0.066-0.15,0c-0.134,0.066-0.233,0.166-0.3,0.3c0-0.033-0.066-0.066-0.2-0.1c-0.134-0.034-0.167-0.134-0.1-0.301
					c-0.034-0.066-0.1-0.083-0.2-0.05c-0.133,0.033-0.216,0.05-0.25,0.05c-0.057-0.199-0.19-0.374-0.4-0.524
					c0.133-0.063,0.2-0.138,0.2-0.226L9,28.95c-0.1-0.066-0.233-0.017-0.4,0.149c0.033-0.166-0.067-0.366-0.3-0.6
					c-0.2-0.333-0.233-0.634-0.1-0.9c-0.034,0.034-0.134,0-0.3-0.1c-0.033-0.233,0.05-0.583,0.25-1.05L8.7,25.4
					c0.033,0,0.066,0.05,0.1,0.149c0.034,0.066,0.1,0.066,0.2,0c0.033-0.033,0.033-0.083,0-0.149c-0.066-0.067-0.066-0.15,0-0.25
					c0.333-0.367,0.783-0.517,1.35-0.45c0.233,0.033,0.5,0.083,0.8,0.149c0.434-0.1,0.784-0.083,1.05,0.051
					c0.4,0.1,0.633,0.149,0.7,0.149l-0.05,0.15c0.1-0.134,0.183-0.117,0.25,0.05c0.066,0.1,0.167,0.05,0.3-0.15v0.2
					c0.135-0.043,0.318-0.076,0.55-0.1c-0.026-0.053-0.093-0.077-0.2-0.075c0-0.021,0-0.047,0-0.075c0-0.05-0.025-0.083-0.075-0.1
					h0.175c0.033-0.033,0-0.05-0.1-0.05c0.2-0.067,0.333-0.084,0.4-0.051c0.2-0.066,0.167-0.133-0.1-0.199l-0.3,0.05
					c-0.066-0.033-0.083-0.084-0.05-0.15C13.733,24.483,13.733,24.434,13.7,24.4z M12.75,27.4h-0.025V27.35l-0.05,0.025L12.65,27.4
					h0.05v0.024c-0.018-0.002-0.034-0.011-0.05-0.024l0.025,0.1H12.7l-0.025,0.025H12.7l0.025,0.024h0.025V27.4z M10.875,28
					l0.025-0.1c-0.002-0.226-0.019-0.275-0.05-0.15v0.1l-0.025,0.176l0.05,0.05V28z M12.55,27.4
					c0.009,0.022,0.018,0.047,0.025,0.074h-0.05H12.5c-0.042-0.009-0.083-0.018-0.125-0.024c0.029,0.06,0.004,0.06-0.075,0
					l0.15,0.149h0.025H12.5l0.1,0.051l-0.075-0.176L12.6,27.55c-0.006-0.021-0.014-0.037-0.025-0.05v-0.025
					c0.016,0.011,0.033,0.019,0.05,0.025v-0.05L12.6,27.4H12.55z M12.575,27.05L12.55,27v0.05H12.575z M12.075,27.25l0.075,0.1
					L12,27.275V27.3c0.042,0.036,0.075,0.069,0.1,0.101l0.025-0.025c0.028-0.015,0.054-0.031,0.075-0.05
					c-0.036-0.027-0.069-0.053-0.1-0.075H12.075z M12.175,27.525L12.15,27.5l-0.1-0.05v0.024l-0.1-0.05
					c-0.044,0.16-0.077,0.252-0.1,0.275c0.068-0.083,0.126-0.15,0.175-0.2l0.025-0.025C12.084,27.487,12.125,27.504,12.175,27.525z
					 M12.5,27.55l-0.025,0.05v-0.05H12.5z"/>
			</g>
		</g>
		<g>
			<g>
				<path style="fill-rule:evenodd;clip-rule:evenodd;fill:#816C59;" d="M10.1,36.75c0-0.267,0.133-0.35,0.4-0.25
					c0.033,0.066,0.15,0.134,0.35,0.2c0.167,0.033,0.133-0.017-0.1-0.15c-0.2-0.1-0.35-0.149-0.45-0.149
					c0-0.357,0.125-0.507,0.375-0.45H10.7c0.133,0.063,0.2,0.014,0.2-0.15l-0.2-0.149l0.25,0.1c-0.233-0.233-0.267-0.333-0.1-0.3
					c0.066,0.1,0.133,0.149,0.2,0.149c-0.066-0.1-0.1-0.216-0.1-0.35c0-0.1,0.05-0.134,0.15-0.1l0.3,0.199
					c0-0.196-0.066-0.297-0.2-0.3c0.301,0.001,0.518,0.067,0.65,0.2c-0.1-0.7,0.2-1.05,0.9-1.05v0.149
					c0.071,0.072,0.105,0.056,0.1-0.05c0.023,0.115,0.057,0.249,0.1,0.4c0.066,0.066,0.116,0.033,0.15-0.101
					c0.033-0.166,0.05-0.267,0.05-0.3c-0.033,0.101-0.05,0.05-0.05-0.149c0.133,0.133,0.2,0.083,0.2-0.15l0.05,0.5l0.05-0.15
					c0.034,0.134,0.034,0.334,0,0.601c-0.066,0.267-0.083,0.483-0.05,0.649l0.05-0.1c0,0.134,0,0.267,0,0.4
					c-0.033,0.066-0.017,0.116,0.05,0.149V35.2c0.033,0,0.066-0.134,0.1-0.4v-0.024c0.069,0.178,0.152,0.152,0.25-0.075
					c-0.066-0.233-0.05-0.417,0.05-0.55c0.06,0.119,0.076,0.244,0.05,0.375c0.067-0.285,0.1-0.443,0.1-0.476
					c0.033-0.166,0.066-0.217,0.1-0.149c0.033,0.066,0.066,0.05,0.1-0.051c0,0.2-0.034,0.5-0.1,0.9
					c0.069-0.11,0.119-0.228,0.15-0.35c0,0.066,0.05,0.033,0.15-0.101c0.067-0.133,0.083-0.083,0.05,0.15l0.1-0.3v0.35l0.15-0.1
					c0.066-0.034,0.083,0.033,0.05,0.199c0.1,0,0.15-0.1,0.15-0.3c-0.1,0.134-0.133,0.05-0.1-0.25c0,0.134,0.034,0.167,0.1,0.101
					c0.034-0.034,0.083-0.101,0.15-0.2L15,34.1c0.088-0.087,0.138-0.146,0.15-0.175L15.1,34.2l0.101-0.3
					c0.066-0.034,0.083,0.033,0.05,0.199c-0.033,0.2-0.033,0.284,0,0.25l-0.15,0.2c0.033-0.033,0.051,0.017,0.051,0.15l0.3-0.7
					c0.033-0.033,0.05-0.017,0.05,0.05c-0.033,0.066-0.017,0.066,0.05,0L15.4,34.3c-0.134,0.3-0.134,0.45,0,0.45
					c0.07-0.07,0.12-0.138,0.149-0.2c0.101-0.033,0.184-0.166,0.25-0.399l-0.05,0.699L15.5,35.2l0.05,0.05l-0.2,0.55
					c0,0.134,0.051,0.101,0.15-0.1c0.033-0.2,0.116-0.4,0.25-0.601c0.167-0.267,0.267-0.466,0.3-0.6c0.066,0,0.05,0.167-0.05,0.5
					c-0.1,0.267-0.066,0.267,0.1,0c0.095-0.189,0.137-0.306,0.125-0.35c0.043-0.002,0.102-0.052,0.176-0.15
					c0.066-0.1,0.1-0.116,0.1-0.05c-0.1,0.333-0.217,0.583-0.35,0.75c0.066-0.134,0.05-0.167-0.051-0.101
					c-0.033,0.134-0.083,0.301-0.149,0.5c0.1,0,0.183-0.083,0.25-0.25c-0.067,0-0.05-0.083,0.05-0.25c0.033,0,0.066,0.034,0.1,0.101
					c0,0.033,0.051-0.033,0.15-0.2l0.1-0.5l0.15-0.05l-0.1,0.149c0.033,0.067,0.083,0.051,0.149-0.05
					c0.066-0.133,0.117-0.184,0.15-0.149L16.8,34.8c-0.033,0.101-0.083,0.117-0.149,0.05c-0.034-0.033-0.084,0.051-0.15,0.25
					l0.1-0.05c0.067-0.066,0.101-0.066,0.101,0L16.6,35.15l-0.05,0.3c-0.066,0.166-0.033,0.184,0.101,0.05l0.149-0.35
					c0.101,0,0.233-0.051,0.4-0.15c0.066,0.066,0.017,0.2-0.15,0.4c0.033-0.101,0-0.167-0.1-0.2c-0.067,0-0.15,0.083-0.25,0.25
					c-0.101,0.3-0.2,0.399-0.3,0.3c0.066,0.033-0.018,0.3-0.25,0.8L16.3,36.4l0.25-0.5c0.066,0.1,0.2,0.017,0.4-0.25L16.7,36.1
					c0.133-0.033,0.233,0.034,0.3,0.2c0.066-0.166,0.133-0.25,0.2-0.25c0.066,0,0.116-0.05,0.149-0.149c0-0.2,0.084-0.417,0.25-0.65
					l-0.149,0.3c0.066-0.066,0.083-0.033,0.05,0.101l0.05-0.051l-0.5,0.851c0.134-0.101,0.117-0.017-0.05,0.25
					c0.167-0.167,0.316-0.25,0.45-0.25c-0.033,0.133,0,0.2,0.1,0.2c0.066,0,0.15,0,0.25,0c-0.033,0.133-0.133,0.333-0.3,0.6
					c0.025,0.025,0.059-0.008,0.1-0.1l0.101,0.1c0.023,0.024,0.073-0.01,0.149-0.1L17.7,37.35l0.1-0.05l-0.25,0.3
					c-0.033,0.134-0.017,0.184,0.05,0.15c0.033-0.033,0.084-0.066,0.15-0.1l0.1-0.25c0.167-0.067,0.267-0.017,0.301,0.149L18,37.75
					l0.1-0.1c-0.195,0.261-0.295,0.41-0.3,0.449l-0.25,0.2c0.17-0.141,0.287-0.291,0.351-0.45c0.199-0.399,0.149-0.399-0.15,0
					c0,0.031,0.033,0.015,0.1-0.05c-0.169,0.17-0.302,0.32-0.399,0.45h0.05c-0.066,0.134-0.134,0.167-0.2,0.1l0.15-0.25
					c-0.2,0.267-0.3,0.334-0.3,0.2c0.066-0.133,0.05-0.166-0.051-0.1c-0.133,0.066-0.199,0.083-0.199,0.05l0.5-0.5
					c-0.034-0.033-0.034-0.1,0-0.2L16.85,38.1L17,37.9c-0.233,0.233-0.35,0.333-0.35,0.3c-0.034-0.101-0.117-0.217-0.25-0.351
					l0.1-0.199c-0.1,0.166-0.184,0.233-0.25,0.199c-0.1-0.033-0.167-0.033-0.2,0c0-0.066-0.05-0.1-0.149-0.1
					c-0.101,0-0.117-0.066-0.051-0.2C15.45,37.616,15.2,37.6,15.1,37.5l0.2-0.3c0.033-0.134,0.033-0.184,0-0.15l-0.3,0.5
					c0-0.333-0.133-0.283-0.4,0.15l0.05-0.25c-0.066,0.166-0.117,0.217-0.15,0.149c-0.033-0.133-0.066-0.216-0.1-0.25v-0.3
					l-0.3,0.55l-0.15-0.3c-0.1,0.167-0.2,0.267-0.3,0.3c-0.1,0.034-0.167,0.101-0.2,0.2l-0.05-0.3c0,0.233-0.017,0.35-0.05,0.35
					l-0.1-0.1c0.039,0.052,0.072,0.094,0.1,0.125L13.6,37.8c-0.2,0.101-0.25,0.15-0.15,0.15c0.133-0.033,0.216,0,0.25,0.1l0.2,0.2
					l-0.05,0.05c0.1-0.066,0.133-0.033,0.1,0.101c-0.034,0.133,0.033,0.116,0.2-0.051c-0.066,0.134-0.117,0.217-0.15,0.25
					c0.1-0.066,0.15-0.05,0.15,0.051c0,0.106,0.034,0.14,0.1,0.1c0,0.1,0.033,0.15,0.1,0.15c0.066,0.033,0.083,0.083,0.05,0.149
					l-0.15,0.15c0.267-0.233,0.3-0.2,0.1,0.1c0,0.033,0.05-0.033,0.15-0.2c0.033,0.134,0.15,0.217,0.35,0.25c0.1,0,0.266,0,0.5,0
					c0,0.134-0.066,0.301-0.199,0.5C15.083,39.95,15.1,39.967,15.2,39.9c0,0.066,0.033,0.033,0.1-0.101
					c0.066-0.066,0.05,0.05-0.05,0.351l0.2-0.301c0,0.101,0,0.217,0,0.351c0,0.096,0.033,0.096,0.1,0l-0.1,0.149
					c0.1-0.133,0.217-0.216,0.35-0.25c0.134-0.033,0.267-0.133,0.4-0.3c0.053-0.093,0.12-0.193,0.2-0.3l0.149,0.3
					c-0.08-0.187-0.063-0.337,0.05-0.45c0.033,0.067,0.067,0.067,0.101,0c0.066-0.199,0.149-0.25,0.25-0.149l-0.05,0.1
					c0.066-0.1,0.133-0.116,0.199-0.05c0.067,0.066,0.134,0.05,0.2-0.05l-0.05,0.25c0.1-0.134,0.15-0.134,0.15,0
					c-0.101,0.166-0.101,0.233,0,0.2l0.1-0.051c0.1,0,0.116,0.051,0.05,0.15L17.5,39.8c0.058,0.029,0.091,0.07,0.1,0.125
					c-0.089,0.014-0.197,0.055-0.324,0.125c0.245,0.031,0.521,0.065,0.824,0.101l-0.55,0.3c0.066,0.178,0.101,0.411,0.101,0.7
					L17.35,41.2l0.101,0.1l0.5,0.351l0.1,0.05h-0.1c-0.267,0-0.4,0.116-0.4,0.35c-0.017,0.006-0.033,0.014-0.05,0.025V42.1h-0.025
					v0.025c0.105,0.074,0.147,0.166,0.125,0.275h-0.1v0.05l-0.05,0.1L17.4,42.9L17.05,42.8c-0.033-0.033-0.083-0.033-0.149,0v-0.024
					c-0.307,0.241-0.356,0.5-0.15,0.774c-0.667-0.066-1.066-0.184-1.2-0.35c-0.333-0.134-0.45-0.3-0.35-0.5
					c0.014-0.049,0.021-0.09,0.024-0.125c-0.04,0.017-0.082,0.024-0.125,0.024l0.125-0.199v-0.025
					c-0.162,0.154-0.337,0.263-0.524,0.325l0.15-0.2c0-0.1-0.067-0.116-0.2-0.05s-0.167,0.017-0.1-0.15
					c-0.1,0.167-0.15,0.233-0.15,0.2l0.05-0.2c0.033-0.1-0.017-0.083-0.15,0.05c0-0.026,0-0.052,0-0.074
					c-0.053,0.05-0.12,0.074-0.2,0.074c-0.133,0-0.2-0.066-0.2-0.199c-0.2,0.233-0.316,0.333-0.35,0.3l0.15-0.25
					c-0.048,0-0.057-0.033-0.025-0.101c-0.141,0.078-0.183,0.045-0.125-0.1c0.167-0.2,0.233-0.3,0.2-0.3l-0.2,0.1l-0.1,0.101
					c-0.033-0.066-0.1,0-0.2,0.199c0.031-0.066,0.015-0.1-0.05-0.1c-0.034-0.033,0-0.116,0.1-0.25l0.2-0.3l-0.35,0.399L13.2,41.7
					c-0.1,0.166-0.15,0.217-0.15,0.149c-0.033-0.066-0.1-0.05-0.2,0.051c-0.1-0.067-0.1-0.2,0-0.4c-0.2,0.066-0.3,0.083-0.3,0.05
					l0.15-0.1c0.033-0.066,0.033-0.101,0-0.101L12.55,41.4l0.2-0.45c-0.133,0.033-0.283,0.184-0.45,0.45
					c0.1-0.167,0.083-0.217-0.05-0.15c-0.133,0.033-0.167-0.017-0.1-0.15c0.167-0.066,0.267-0.166,0.3-0.3
					c0.1-0.133,0.083-0.149-0.05-0.05c-0.167,0.134-0.233,0.15-0.2,0.05l-0.3,0.3c0.034-0.066,0.017-0.083-0.05-0.05
					c-0.034,0,0-0.05,0.1-0.149c-0.034,0-0.067-0.017-0.1-0.051L11.65,41c0.034-0.066-0.017-0.167-0.15-0.3
					c-0.1-0.066-0.05-0.217,0.15-0.45c-0.1,0-0.167,0.017-0.2,0.05c0.1-0.033,0.116-0.017,0.05,0.05l-0.15,0.101
					c0-0.101,0.1-0.217,0.3-0.351c0.034-0.066-0.066-0.033-0.3,0.101c-0.2,0.133-0.3,0.149-0.3,0.05
					c0.134-0.066,0.167-0.134,0.1-0.2l-0.3,0.101l0.55-0.45h-0.3l0.225-0.226c-0.053,0.051-0.095,0.075-0.125,0.075
					c-0.032-0.032-0.066-0.049-0.1-0.05h0.1c0.133-0.066,0.116-0.1-0.05-0.1c-0.1,0.033-0.183,0.133-0.25,0.3h-0.25
					c0.1-0.066,0.15-0.117,0.15-0.15c-0.033-0.033-0.05-0.066-0.05-0.1c0.033-0.066-0.05-0.05-0.25,0.05
					c0.033-0.033,0.05-0.066,0.05-0.1c0-0.034,0.05-0.067,0.15-0.101c0.033,0,0.033,0.033,0,0.101c0.033-0.034,0.1-0.084,0.2-0.15
					c0.034-0.033,0-0.05-0.1-0.05c-0.333,0.2-0.466,0.233-0.4,0.1l0.3-0.1l0.1-0.15l-0.25,0.101l0.1-0.051
					c-0.1-0.1-0.25-0.116-0.45-0.05c0.1-0.133,0.15-0.217,0.15-0.25h0.05c0.067-0.1,0-0.184-0.2-0.25h0.05
					c0-0.066-0.066-0.116-0.2-0.149c0.667-0.134,0.884-0.217,0.65-0.25c-0.067-0.167-0.3-0.2-0.7-0.101
					c0.066-0.066,0.066-0.184,0-0.35c-0.033-0.134,0.033-0.233,0.2-0.3L10,37.3C10.033,37.066,10.066,36.884,10.1,36.75z"/>
			</g>
		</g>
	</g>
</g>
</svg>
