<?xml version="1.0" encoding="iso-8859-1"?>
<!-- Generator: Adobe Illustrator 15.1.0, SVG Export Plug-In . SVG Version: 6.00 Build 0)  -->
<!DOCTYPE svg PUBLIC "-//W3C//DTD SVG 1.1//EN" "http://www.w3.org/Graphics/SVG/1.1/DTD/svg11.dtd">
<svg version="1.1" id="plants" xmlns="http://www.w3.org/2000/svg" xmlns:xlink="http://www.w3.org/1999/xlink" x="0px" y="0px"
	 width="35.3px" height="105.4px" viewBox="0 0 35.3 105.4" style="enable-background:new 0 0 35.3 105.4;" xml:space="preserve">
<g>
	<g>
		<path style="fill-rule:evenodd;clip-rule:evenodd;fill:#3B6F5E;" d="M17.55,34.9c0.267-0.867,0.717-1.85,1.351-2.95
			c1.233-2.167,2.767-3.75,4.6-4.75c1.934-1.067,3.783-1.6,5.55-1.6v2.15c-2.366,0.333-4.166,1-5.399,2
			c-1.233,0.967-2.733,3-4.5,6.1L17.55,34.9z"/>
		<path style="fill-rule:evenodd;clip-rule:evenodd;fill:#3B6F5E;" d="M35.3,26.25c0,1.267-0.45,2.367-1.35,3.3
			c-0.934,0.9-2.033,1.35-3.3,1.35s-2.367-0.45-3.301-1.35C26.45,28.65,26,27.567,26,26.3c0-1.3,0.45-2.4,1.35-3.3
			c0.9-0.9,2-1.35,3.301-1.35c1.267,0,2.366,0.45,3.3,1.35C34.85,23.9,35.3,24.983,35.3,26.25z"/>
		<path style="fill-rule:evenodd;clip-rule:evenodd;fill:#27A168;" d="M33.85,26.25c0,0.867-0.316,1.617-0.949,2.25
			c-0.634,0.633-1.384,0.95-2.25,0.95c-0.867,0-1.617-0.3-2.25-0.9c-0.634-0.633-0.95-1.383-0.95-2.25c0-0.9,0.316-1.65,0.95-2.25
			c0.633-0.633,1.383-0.95,2.25-0.95c0.866,0,1.616,0.3,2.25,0.9C33.5,24.633,33.816,25.383,33.85,26.25z"/>
	</g>
	<g>
		<path style="fill-rule:evenodd;clip-rule:evenodd;fill:#3B6F5E;" d="M17.8,34.9l-1.6,0.95c-1.767-3.1-3.267-5.133-4.5-6.1
			c-0.767-0.6-1.9-1.1-3.4-1.5L6.25,27.8v-2.15l1.7,0.2c1.367,0.267,2.667,0.733,3.9,1.4c1.8,0.967,3.333,2.533,4.6,4.7
			C17.083,33.05,17.533,34.033,17.8,34.9z"/>
		<path style="fill-rule:evenodd;clip-rule:evenodd;fill:#3B6F5E;" d="M0.05,26.35c0-1.267,0.45-2.367,1.35-3.3
			c0.9-0.9,1.983-1.35,3.25-1.35s2.367,0.45,3.3,1.35c0.9,0.9,1.35,1.983,1.35,3.25c0,1.3-0.45,2.4-1.35,3.3
			c-0.9,0.9-1.983,1.35-3.25,1.35c-1.3,0.033-2.4-0.4-3.3-1.3S0.05,27.65,0.05,26.35z"/>
		<path style="fill-rule:evenodd;clip-rule:evenodd;fill:#68C1A3;" d="M1.5,26.35c0-0.867,0.3-1.617,0.9-2.25
			c0.633-0.633,1.383-0.95,2.25-0.95s1.617,0.3,2.25,0.9c0.633,0.633,0.95,1.383,0.95,2.25c0,0.9-0.3,1.667-0.9,2.3
			c-0.633,0.6-1.383,0.9-2.25,0.9c-0.9,0-1.65-0.3-2.25-0.9C1.817,27.967,1.5,27.217,1.5,26.35z"/>
	</g>
	<g>
		<path style="fill-rule:evenodd;clip-rule:evenodd;fill:#3B6F5E;" d="M17.5,20.25c0.267-0.867,0.717-1.85,1.35-2.95
			c1.267-2.167,2.801-3.75,4.601-4.75c1.934-1.066,3.783-1.6,5.55-1.6v2.15c-2.366,0.333-4.167,1-5.4,2
			c-1.233,0.967-2.733,3-4.5,6.1L17.5,20.25z"/>
		<path style="fill-rule:evenodd;clip-rule:evenodd;fill:#3B6F5E;" d="M35.25,11.6c0,1.267-0.45,2.367-1.35,3.3
			c-0.9,0.9-2,1.35-3.301,1.35c-1.267,0-2.35-0.45-3.25-1.35c-0.899-0.9-1.366-1.983-1.399-3.25c0-1.3,0.45-2.4,1.35-3.3
			C28.233,7.45,29.333,7,30.6,7c1.267-0.033,2.367,0.417,3.301,1.35C34.8,9.25,35.25,10.333,35.25,11.6z"/>
		<path style="fill-rule:evenodd;clip-rule:evenodd;fill:#70D9A3;" d="M33.8,11.6c0,0.867-0.316,1.617-0.95,2.25
			c-0.633,0.633-1.383,0.95-2.25,0.95c-0.866,0-1.616-0.3-2.25-0.9c-0.6-0.633-0.899-1.4-0.899-2.3c0-0.867,0.3-1.617,0.899-2.25
			c0.634-0.6,1.384-0.9,2.25-0.9c0.867,0,1.617,0.3,2.25,0.9C33.483,9.983,33.8,10.733,33.8,11.6z"/>
	</g>
	<g>
		<path style="fill-rule:evenodd;clip-rule:evenodd;fill:#3B6F5E;" d="M17.8,20.25l-1.6,0.95c-1.767-3.1-3.284-5.133-4.55-6.1
			c-0.767-0.6-1.9-1.1-3.4-1.5l-2-0.45L6.2,11c1.8,0,3.667,0.533,5.6,1.6c1.8,0.967,3.35,2.533,4.65,4.7
			C17.083,18.4,17.533,19.383,17.8,20.25z"/>
		<path style="fill-rule:evenodd;clip-rule:evenodd;fill:#3B6F5E;" d="M0,11.7c0-1.267,0.45-2.367,1.35-3.3c0.9-0.9,2-1.35,3.3-1.35
			C5.917,7.05,7,7.5,7.9,8.4s1.367,1.983,1.4,3.25c0,1.3-0.45,2.4-1.35,3.3c-0.934,0.9-2.034,1.35-3.3,1.35s-2.367-0.45-3.3-1.35
			C0.45,14.05,0,12.967,0,11.7z"/>
		<path style="fill-rule:evenodd;clip-rule:evenodd;fill:#27A168;" d="M1.45,11.7c0-0.867,0.316-1.617,0.95-2.25
			C3,8.817,3.75,8.5,4.65,8.5c0.867,0,1.617,0.3,2.25,0.9c0.6,0.633,0.9,1.383,0.9,2.25c0,0.9-0.3,1.667-0.9,2.3
			c-0.633,0.6-1.383,0.9-2.25,0.9s-1.617-0.3-2.25-0.9C1.767,13.317,1.45,12.567,1.45,11.7z"/>
	</g>
	<path style="fill-rule:evenodd;clip-rule:evenodd;fill:#3B6F5E;" d="M14.8,38.35L14.7,5.6l5.7-0.05V38.3
		c-0.034,1.367-0.983,2.034-2.851,2C15.683,40.267,14.767,39.617,14.8,38.35z"/>
	<path style="fill-rule:evenodd;clip-rule:evenodd;fill:#3B6F5E;" d="M12.65,4.65c0-1.267,0.45-2.367,1.35-3.3
		C14.9,0.45,15.983,0,17.25,0c1.3,0,2.4,0.45,3.3,1.35c0.9,0.9,1.351,1.983,1.351,3.25C21.934,5.9,21.5,7,20.6,7.9
		c-0.899,0.9-2,1.35-3.3,1.35c-1.267,0.033-2.367-0.4-3.3-1.3C13.1,7.017,12.65,5.917,12.65,4.65z"/>
	<path style="fill-rule:evenodd;clip-rule:evenodd;fill:#27A168;" d="M14.1,4.65c0-0.867,0.3-1.617,0.9-2.25
		c0.633-0.633,1.383-0.95,2.25-0.95c0.9,0,1.667,0.316,2.3,0.95c0.601,0.6,0.9,1.35,0.9,2.25c0,0.867-0.3,1.617-0.9,2.25
		c-0.633,0.6-1.383,0.9-2.25,0.9c-0.867,0-1.617-0.3-2.25-0.9C14.417,6.267,14.1,5.517,14.1,4.65z"/>
</g>
<g>
	<g>
		<path style="fill-rule:evenodd;clip-rule:evenodd;fill:#3B6F5E;" d="M17.55,66.1c0.267-0.866,0.717-1.85,1.351-2.949
			c1.233-2.167,2.767-3.75,4.6-4.75c1.934-1.067,3.783-1.601,5.55-1.601V58.9c-0.6,0.1-1.267,0.25-2,0.449
			c-1.5,0.434-2.633,0.95-3.399,1.551c-1.233,1-2.733,3.05-4.5,6.149L17.55,66.1z"/>
		<path style="fill-rule:evenodd;clip-rule:evenodd;fill:#3B6F5E;" d="M35.3,57.45c0,1.267-0.45,2.366-1.35,3.3
			c-0.934,0.9-2.033,1.35-3.3,1.35s-2.367-0.449-3.301-1.35c-0.899-0.9-1.35-2-1.35-3.3c0-1.267,0.45-2.367,1.35-3.3
			c0.9-0.9,2-1.351,3.301-1.351c1.267,0,2.366,0.45,3.3,1.351C34.85,55.083,35.3,56.184,35.3,57.45z"/>
		<path style="fill-rule:evenodd;clip-rule:evenodd;fill:#27A168;" d="M33.85,57.45c0,0.866-0.316,1.616-0.949,2.25
			c-0.634,0.633-1.384,0.95-2.25,0.95c-0.867,0-1.617-0.317-2.25-0.95c-0.634-0.634-0.95-1.384-0.95-2.25
			c0-0.867,0.316-1.617,0.95-2.25c0.633-0.601,1.383-0.9,2.25-0.9c0.866-0.033,1.616,0.267,2.25,0.9
			C33.5,55.833,33.816,56.583,33.85,57.45z"/>
	</g>
	<g>
		<path style="fill-rule:evenodd;clip-rule:evenodd;fill:#3B6F5E;" d="M8.3,59.4l-2.05-0.45V56.85l1.7,0.2
			c1.367,0.267,2.667,0.733,3.9,1.4c1.8,0.967,3.333,2.533,4.6,4.7c0.633,1.1,1.083,2.083,1.35,2.949l-1.6,0.95
			c-1.767-3.1-3.267-5.133-4.5-6.1C10.933,60.35,9.8,59.833,8.3,59.4z"/>
		<path style="fill-rule:evenodd;clip-rule:evenodd;fill:#3B6F5E;" d="M0.05,57.55c0-1.3,0.45-2.399,1.35-3.3s1.983-1.35,3.25-1.35
			c1.267-0.033,2.367,0.417,3.3,1.35c0.9,0.9,1.35,1.983,1.35,3.25s-0.45,2.366-1.35,3.3c-0.9,0.9-1.983,1.351-3.25,1.351
			c-1.3,0-2.4-0.45-3.3-1.351C0.5,59.9,0.05,58.816,0.05,57.55z"/>
		<path style="fill-rule:evenodd;clip-rule:evenodd;fill:#68C1A3;" d="M1.5,57.55c0-0.899,0.3-1.649,0.9-2.25
			c0.633-0.633,1.383-0.95,2.25-0.95s1.617,0.301,2.25,0.9c0.633,0.634,0.95,1.384,0.95,2.25s-0.3,1.616-0.9,2.25
			C6.317,60.384,5.567,60.7,4.7,60.7c-0.9,0-1.65-0.3-2.25-0.9C1.817,59.167,1.5,58.417,1.5,57.55z"/>
	</g>
	<g>
		<path style="fill-rule:evenodd;clip-rule:evenodd;fill:#3B6F5E;" d="M23.6,46.25c-1.233,1-2.733,3.033-4.5,6.1l-1.6-0.9
			c0.267-0.867,0.717-1.85,1.35-2.95c1.267-2.167,2.801-3.75,4.601-4.75c1.934-1.067,3.783-1.6,5.55-1.6v2.1
			c-0.6,0.1-1.267,0.25-2,0.45C25.5,45.133,24.366,45.65,23.6,46.25z"/>
		<path style="fill-rule:evenodd;clip-rule:evenodd;fill:#3B6F5E;" d="M35.25,42.8c0,1.267-0.45,2.367-1.35,3.3
			c-0.9,0.9-2,1.35-3.301,1.35c-1.267,0-2.35-0.45-3.25-1.35c-0.899-0.9-1.366-2-1.399-3.3c0-1.267,0.45-2.367,1.35-3.3
			c0.934-0.9,2.033-1.35,3.3-1.35s2.367,0.45,3.301,1.35C34.8,40.433,35.25,41.533,35.25,42.8z"/>
		<path style="fill-rule:evenodd;clip-rule:evenodd;fill:#70D9A3;" d="M33.8,42.8c0,0.867-0.316,1.617-0.95,2.25
			C32.217,45.683,31.467,46,30.6,46c-0.866,0-1.616-0.317-2.25-0.95c-0.6-0.633-0.899-1.383-0.899-2.25s0.3-1.617,0.899-2.25
			c0.634-0.6,1.384-0.917,2.25-0.95c0.867,0,1.617,0.316,2.25,0.95C33.483,41.183,33.8,41.933,33.8,42.8z"/>
	</g>
	<g>
		<path style="fill-rule:evenodd;clip-rule:evenodd;fill:#3B6F5E;" d="M11.65,46.3c-0.767-0.6-1.9-1.117-3.4-1.55l-2-0.45L6.2,42.2
			l1.7,0.2c1.4,0.267,2.7,0.733,3.9,1.4c1.8,0.967,3.35,2.534,4.65,4.7c0.633,1.1,1.083,2.083,1.35,2.95l-1.6,0.95
			C14.433,49.3,12.917,47.267,11.65,46.3z"/>
		<path style="fill-rule:evenodd;clip-rule:evenodd;fill:#3B6F5E;" d="M0,42.9c0-1.3,0.45-2.4,1.35-3.3s2-1.35,3.3-1.35
			C5.917,38.217,7,38.667,7.9,39.6c0.9,0.9,1.367,1.983,1.4,3.25c0,1.267-0.45,2.367-1.35,3.3c-0.934,0.9-2.034,1.35-3.3,1.35
			s-2.367-0.45-3.3-1.35C0.45,45.25,0,44.167,0,42.9z"/>
		<path style="fill-rule:evenodd;clip-rule:evenodd;fill:#27A168;" d="M1.45,42.85c0-0.867,0.316-1.617,0.95-2.25
			C3,40,3.75,39.7,4.65,39.7c0.867,0,1.617,0.3,2.25,0.9c0.6,0.633,0.9,1.383,0.9,2.25s-0.3,1.617-0.9,2.25
			c-0.633,0.633-1.383,0.95-2.25,0.95s-1.617-0.3-2.25-0.9C1.767,44.517,1.45,43.75,1.45,42.85z"/>
	</g>
	<path style="fill-rule:evenodd;clip-rule:evenodd;fill:#3B6F5E;" d="M14.7,36.75h5.7V69.5c-0.034,1.366-0.983,2.033-2.851,2
		c-1.867-0.066-2.783-0.733-2.75-2L14.7,36.75z"/>
	<path style="fill-rule:evenodd;clip-rule:evenodd;fill:#3B6F5E;" d="M12.65,35.85c0-1.3,0.45-2.4,1.35-3.3
		c0.9-0.9,1.983-1.35,3.25-1.35c1.3,0,2.4,0.45,3.3,1.35c0.9,0.9,1.351,1.983,1.351,3.25c0.033,1.267-0.4,2.367-1.301,3.3
		c-0.933,0.9-2.033,1.35-3.3,1.35S14.933,40,14,39.1C13.1,38.2,12.65,37.117,12.65,35.85z"/>
	<path style="fill-rule:evenodd;clip-rule:evenodd;fill:#27A168;" d="M14.1,35.85c0-0.9,0.3-1.65,0.9-2.25
		c0.633-0.633,1.383-0.95,2.25-0.95c0.9,0,1.667,0.3,2.3,0.9c0.601,0.633,0.9,1.383,0.9,2.25s-0.3,1.617-0.9,2.25
		C18.917,38.683,18.167,39,17.3,39c-0.867,0-1.617-0.3-2.25-0.9C14.417,37.467,14.1,36.717,14.1,35.85z"/>
</g>
<g>
	<g>
		<path style="fill-rule:evenodd;clip-rule:evenodd;fill:#3B6F5E;" d="M23.65,94.85c-1.233,0.967-2.733,3-4.5,6.101L17.55,100
			c0.267-0.866,0.717-1.85,1.351-2.95c1.233-2.166,2.767-3.75,4.6-4.75c1.2-0.633,2.483-1.1,3.85-1.399c0.7-0.134,1.267-0.2,1.7-0.2
			v2.149c-0.6,0.101-1.267,0.25-2,0.45C25.55,93.733,24.417,94.25,23.65,94.85z"/>
		<path style="fill-rule:evenodd;clip-rule:evenodd;fill:#3B6F5E;" d="M35.3,91.35c0,1.301-0.45,2.4-1.35,3.301
			C33.017,95.55,31.917,96,30.65,96s-2.367-0.45-3.301-1.35C26.45,93.75,26,92.667,26,91.4s0.45-2.367,1.35-3.301
			c0.9-0.899,2-1.35,3.301-1.35c1.267,0,2.366,0.45,3.3,1.35C34.85,89,35.3,90.083,35.3,91.35z"/>
		<path style="fill-rule:evenodd;clip-rule:evenodd;fill:#27A168;" d="M33.85,91.35c0,0.867-0.316,1.617-0.949,2.25
			c-0.634,0.634-1.384,0.95-2.25,0.95c-0.867,0-1.617-0.3-2.25-0.899c-0.634-0.634-0.95-1.384-0.95-2.25
			c0-0.867,0.316-1.617,0.95-2.25c0.633-0.634,1.383-0.95,2.25-0.95c0.866,0,1.616,0.3,2.25,0.899
			C33.5,89.733,33.816,90.483,33.85,91.35z"/>
	</g>
	<g>
		<path style="fill-rule:evenodd;clip-rule:evenodd;fill:#3B6F5E;" d="M11.7,94.85c-0.767-0.6-1.9-1.1-3.4-1.5L6.25,92.9v-2.15
			l1.7,0.2c1.367,0.267,2.667,0.733,3.9,1.399c1.8,0.967,3.333,2.534,4.6,4.7c0.633,1.101,1.083,2.084,1.35,2.95l-1.6,0.95
			C14.433,97.85,12.933,95.816,11.7,94.85z"/>
		<path style="fill-rule:evenodd;clip-rule:evenodd;fill:#3B6F5E;" d="M0.05,91.45c0-1.267,0.45-2.367,1.35-3.3
			c0.9-0.9,1.983-1.351,3.25-1.351s2.367,0.45,3.3,1.351c0.9,0.899,1.35,2,1.35,3.3c0,1.267-0.45,2.35-1.35,3.25
			C7.05,95.6,5.967,96.066,4.7,96.1c-1.3,0-2.4-0.449-3.3-1.35C0.5,93.816,0.05,92.717,0.05,91.45z"/>
		<path style="fill-rule:evenodd;clip-rule:evenodd;fill:#68C1A3;" d="M1.5,91.45c0-0.867,0.3-1.617,0.9-2.25
			c0.633-0.634,1.383-0.95,2.25-0.95s1.617,0.316,2.25,0.95c0.633,0.633,0.95,1.383,0.95,2.25c0,0.866-0.3,1.616-0.9,2.25
			C6.317,94.3,5.567,94.6,4.7,94.6c-0.9,0-1.65-0.3-2.25-0.899C1.817,93.066,1.5,92.316,1.5,91.45z"/>
	</g>
	<g>
		<path style="fill-rule:evenodd;clip-rule:evenodd;fill:#3B6F5E;" d="M17.5,85.35c0.267-0.866,0.717-1.85,1.35-2.949
			c1.267-2.167,2.801-3.75,4.601-4.75c1.2-0.667,2.483-1.134,3.85-1.4c0.7-0.134,1.267-0.2,1.7-0.2v2.15c-0.6,0.1-1.267,0.25-2,0.45
			c-1.5,0.399-2.634,0.916-3.4,1.55c-1.233,0.967-2.733,3-4.5,6.1L17.5,85.35z"/>
		<path style="fill-rule:evenodd;clip-rule:evenodd;fill:#3B6F5E;" d="M35.25,76.7c0,1.267-0.45,2.366-1.35,3.3
			c-0.9,0.9-2,1.35-3.301,1.35c-1.267,0-2.35-0.449-3.25-1.35c-0.899-0.9-1.366-1.983-1.399-3.25c0-1.3,0.45-2.4,1.35-3.3
			c0.934-0.9,2.033-1.351,3.3-1.351s2.367,0.45,3.301,1.351C34.8,74.35,35.25,75.434,35.25,76.7z"/>
		<path style="fill-rule:evenodd;clip-rule:evenodd;fill:#70D9A3;" d="M33.8,76.7c0,0.866-0.316,1.616-0.95,2.25
			c-0.633,0.633-1.383,0.95-2.25,0.95c-0.866,0-1.616-0.301-2.25-0.9c-0.6-0.634-0.899-1.384-0.899-2.25c0-0.9,0.3-1.65,0.899-2.25
			c0.634-0.634,1.384-0.95,2.25-0.95c0.867,0,1.617,0.3,2.25,0.9C33.483,75.083,33.8,75.833,33.8,76.7z"/>
	</g>
	<g>
		<path style="fill-rule:evenodd;clip-rule:evenodd;fill:#3B6F5E;" d="M17.8,85.35l-1.6,0.95c-1.767-3.1-3.284-5.133-4.55-6.1
			c-0.767-0.601-1.9-1.101-3.4-1.5l-2-0.45L6.2,76.1l1.7,0.2c1.4,0.267,2.7,0.733,3.9,1.4c1.8,0.967,3.35,2.533,4.65,4.7
			C17.083,83.5,17.533,84.483,17.8,85.35z"/>
		<path style="fill-rule:evenodd;clip-rule:evenodd;fill:#3B6F5E;" d="M0,76.8c0-1.267,0.45-2.366,1.35-3.3c0.9-0.9,2-1.35,3.3-1.35
			C5.917,72.15,7,72.6,7.9,73.5s1.367,1.983,1.4,3.25c0,1.3-0.45,2.4-1.35,3.3c-0.934,0.9-2.034,1.351-3.3,1.351
			C3.383,81.434,2.283,81,1.35,80.1C0.45,79.167,0,78.066,0,76.8z"/>
		<path style="fill-rule:evenodd;clip-rule:evenodd;fill:#27A168;" d="M1.45,76.8c0-0.866,0.316-1.616,0.95-2.25
			C3,73.917,3.75,73.6,4.65,73.6c0.867,0,1.617,0.317,2.25,0.95C7.5,75.15,7.8,75.9,7.8,76.8c0,0.867-0.3,1.617-0.9,2.25
			c-0.633,0.601-1.383,0.9-2.25,0.9s-1.617-0.3-2.25-0.9C1.767,78.417,1.45,77.667,1.45,76.8z"/>
	</g>
	<path style="fill-rule:evenodd;clip-rule:evenodd;fill:#3B6F5E;" d="M14.7,70.7l5.7-0.05v32.8c-0.034,1.366-0.983,2.017-2.851,1.95
		c-1.867-0.034-2.783-0.684-2.75-1.95L14.7,70.7z"/>
	<path style="fill-rule:evenodd;clip-rule:evenodd;fill:#3B6F5E;" d="M12.65,69.75c0-1.267,0.45-2.366,1.35-3.3
		c0.9-0.9,1.983-1.351,3.25-1.351c1.3,0,2.4,0.45,3.3,1.351c0.9,0.899,1.351,2,1.351,3.3c0.033,1.267-0.4,2.366-1.301,3.3
		c-0.933,0.9-2.033,1.351-3.3,1.351s-2.367-0.45-3.3-1.351C13.1,72.116,12.65,71.017,12.65,69.75z"/>
	<path style="fill-rule:evenodd;clip-rule:evenodd;fill:#27A168;" d="M14.1,69.75c0-0.866,0.3-1.616,0.9-2.25
		c0.633-0.634,1.383-0.95,2.25-0.95c0.9,0,1.667,0.316,2.3,0.95c0.601,0.634,0.9,1.384,0.9,2.25s-0.3,1.616-0.9,2.25
		c-0.633,0.6-1.383,0.9-2.25,0.9c-0.867,0.033-1.617-0.267-2.25-0.9S14.1,70.616,14.1,69.75z"/>
</g>
</svg>
