<?xml version="1.0" encoding="iso-8859-1"?>
<!-- Generator: Adobe Illustrator 15.1.0, SVG Export Plug-In . SVG Version: 6.00 Build 0)  -->
<!DOCTYPE svg PUBLIC "-//W3C//DTD SVG 1.1//EN" "http://www.w3.org/Graphics/SVG/1.1/DTD/svg11.dtd">
<svg version="1.1" id="plants" xmlns="http://www.w3.org/2000/svg" xmlns:xlink="http://www.w3.org/1999/xlink" x="0px" y="0px"
	 width="35.3px" height="40.3px" viewBox="0 0 35.3 40.3" style="enable-background:new 0 0 35.3 40.3;" xml:space="preserve">
<g>
	<g>
		<path style="fill-rule:evenodd;clip-rule:evenodd;fill:#284B40;" d="M17.55,34.9c0.267-0.867,0.717-1.851,1.351-2.95
			c1.267-2.167,2.8-3.75,4.6-4.75c1.934-1.066,3.783-1.601,5.55-1.601l0.05,2.15c-2.399,0.333-4.216,1-5.449,2
			c-1.233,0.967-2.733,3-4.5,6.1L17.55,34.9z"/>
		<path style="fill-rule:evenodd;clip-rule:evenodd;fill:#284B40;" d="M35.3,26.25c0,1.267-0.45,2.366-1.35,3.3
			c-0.9,0.9-1.983,1.351-3.25,1.351c-1.3,0-2.4-0.45-3.3-1.351c-0.9-0.899-1.351-1.983-1.351-3.25C26.017,25,26.467,23.9,27.4,23
			c0.899-0.9,1.983-1.35,3.25-1.35c1.267-0.034,2.366,0.416,3.3,1.35C34.85,23.9,35.3,24.983,35.3,26.25z"/>
		<path style="fill-rule:evenodd;clip-rule:evenodd;fill:#1C7D51;" d="M33.85,26.25c0,0.866-0.3,1.616-0.899,2.25
			c-0.634,0.634-1.4,0.95-2.3,0.95c-0.867,0-1.617-0.3-2.25-0.9c-0.601-0.633-0.9-1.383-0.9-2.25c0-0.899,0.3-1.649,0.9-2.25
			c0.633-0.633,1.383-0.95,2.25-0.95c0.866,0,1.616,0.301,2.25,0.9C33.533,24.634,33.85,25.384,33.85,26.25z"/>
	</g>
	<g>
		<path style="fill-rule:evenodd;clip-rule:evenodd;fill:#284B40;" d="M17.85,34.9l-1.6,0.949c-1.767-3.066-3.267-5.1-4.5-6.1
			c-0.8-0.6-1.95-1.1-3.45-1.5l-2-0.45v-2.1L8,25.9c1.367,0.267,2.65,0.716,3.85,1.35c1.833,1,3.383,2.583,4.65,4.75
			C17.134,33.066,17.583,34.033,17.85,34.9z"/>
		<path style="fill-rule:evenodd;clip-rule:evenodd;fill:#284B40;" d="M0.05,26.35c0-1.267,0.45-2.366,1.35-3.3
			c0.9-0.899,2-1.35,3.3-1.35c1.267,0,2.35,0.45,3.25,1.35c0.9,0.9,1.367,2,1.4,3.3c0,1.267-0.45,2.367-1.35,3.301
			C7.067,30.55,5.967,31,4.7,31c-1.267,0-2.367-0.45-3.3-1.35C0.5,28.75,0.05,27.65,0.05,26.35z"/>
		<path style="fill-rule:evenodd;clip-rule:evenodd;fill:#559E85;" d="M1.5,26.35c0-0.866,0.317-1.616,0.95-2.25
			c0.633-0.6,1.383-0.916,2.25-0.949c0.867,0,1.617,0.316,2.25,0.949c0.6,0.634,0.9,1.384,0.9,2.25
			c0.033,0.867-0.267,1.617-0.9,2.25c-0.633,0.634-1.383,0.95-2.25,0.95s-1.617-0.316-2.25-0.95C1.817,27.967,1.5,27.217,1.5,26.35z
			"/>
	</g>
	<g>
		<path style="fill-rule:evenodd;clip-rule:evenodd;fill:#284B40;" d="M17.5,20.25c0.267-0.867,0.717-1.85,1.35-2.95
			c1.267-2.167,2.801-3.75,4.601-4.75c1.934-1.066,3.8-1.6,5.6-1.6v2.15c-2.399,0.333-4.217,1-5.45,2c-1.233,0.967-2.733,3-4.5,6.1
			L17.5,20.25z"/>
		<path style="fill-rule:evenodd;clip-rule:evenodd;fill:#284B40;" d="M35.25,11.6c0,1.267-0.45,2.367-1.35,3.3
			c-0.9,0.9-1.983,1.35-3.25,1.35c-1.301,0-2.4-0.45-3.301-1.35C26.45,14,26,12.917,26,11.65c-0.033-1.3,0.417-2.4,1.35-3.3
			C28.25,7.45,29.333,7,30.6,7c1.267-0.033,2.367,0.417,3.301,1.35C34.8,9.25,35.25,10.333,35.25,11.6z"/>
		<path style="fill-rule:evenodd;clip-rule:evenodd;fill:#5DB588;" d="M33.8,11.6c0,0.867-0.3,1.617-0.899,2.25
			c-0.634,0.633-1.384,0.95-2.25,0.95c-0.9,0-1.65-0.3-2.25-0.9c-0.634-0.633-0.95-1.4-0.95-2.3c0-0.867,0.3-1.617,0.899-2.25
			c0.634-0.6,1.384-0.9,2.25-0.9c0.867,0,1.617,0.3,2.25,0.9C33.483,9.983,33.8,10.733,33.8,11.6z"/>
	</g>
	<g>
		<path style="fill-rule:evenodd;clip-rule:evenodd;fill:#284B40;" d="M17.8,20.25l-1.6,0.95c-1.767-3.1-3.267-5.133-4.5-6.1
			c-0.8-0.6-1.95-1.1-3.45-1.5l-2-0.45v-2.1c1.767-0.033,3.617,0.483,5.55,1.55c1.833,0.967,3.383,2.533,4.65,4.7
			C17.083,18.4,17.533,19.383,17.8,20.25z"/>
		<path style="fill-rule:evenodd;clip-rule:evenodd;fill:#284B40;" d="M0,11.7c0-1.267,0.45-2.367,1.35-3.3c0.9-0.9,2-1.35,3.3-1.35
			C5.917,7.05,7,7.5,7.9,8.4s1.367,2,1.4,3.3c0,1.267-0.45,2.367-1.35,3.3c-0.934,0.9-2.034,1.35-3.3,1.35S2.283,15.9,1.35,15
			C0.45,14.067,0,12.967,0,11.7z"/>
		<path style="fill-rule:evenodd;clip-rule:evenodd;fill:#1C7D51;" d="M1.45,11.7c0-0.867,0.316-1.617,0.95-2.25S3.783,8.5,4.65,8.5
			S6.267,8.817,6.9,9.45c0.6,0.633,0.9,1.383,0.9,2.25c0.034,0.867-0.267,1.617-0.9,2.25c-0.6,0.6-1.35,0.917-2.25,0.95
			c-0.867,0-1.617-0.316-2.25-0.95S1.45,12.567,1.45,11.7z"/>
	</g>
	<path style="fill-rule:evenodd;clip-rule:evenodd;fill:#284B40;" d="M14.8,38.35L14.7,5.6l5.7-0.05l0.05,32.8
		c-0.033,1.367-0.983,2.017-2.851,1.95C15.733,40.267,14.8,39.616,14.8,38.35z"/>
	<path style="fill-rule:evenodd;clip-rule:evenodd;fill:#284B40;" d="M12.65,4.65c0-1.267,0.45-2.367,1.35-3.3
		C14.9,0.45,15.983,0,17.25,0c1.3,0,2.4,0.45,3.3,1.35c0.9,0.9,1.351,2,1.351,3.3C21.934,5.917,21.5,7,20.6,7.9
		c-0.899,0.9-2,1.367-3.3,1.4c-1.267,0-2.367-0.45-3.3-1.35C13.1,7.017,12.65,5.917,12.65,4.65z"/>
	<path style="fill-rule:evenodd;clip-rule:evenodd;fill:#1C7D51;" d="M14.1,4.65c0-0.867,0.3-1.617,0.9-2.25
		c0.633-0.633,1.383-0.95,2.25-0.95c0.9,0,1.667,0.316,2.3,0.95c0.601,0.633,0.9,1.383,0.9,2.25s-0.3,1.617-0.9,2.25
		c-0.633,0.6-1.383,0.9-2.25,0.9c-0.867,0.034-1.617-0.267-2.25-0.9S14.1,5.517,14.1,4.65z"/>
</g>
</svg>
