<?xml version="1.0" encoding="iso-8859-1"?>
<!-- Generator: Adobe Illustrator 15.1.0, SVG Export Plug-In . SVG Version: 6.00 Build 0)  -->
<!DOCTYPE svg PUBLIC "-//W3C//DTD SVG 1.1//EN" "http://www.w3.org/Graphics/SVG/1.1/DTD/svg11.dtd">
<svg version="1.1" id="plants" xmlns="http://www.w3.org/2000/svg" xmlns:xlink="http://www.w3.org/1999/xlink" x="0px" y="0px"
	 width="54.5px" height="69.1px" viewBox="0 0 54.5 69.1" style="enable-background:new 0 0 54.5 69.1;" xml:space="preserve">
<symbol  id="FlashAICB_x2F_plants_x2F__x3C_Path_x3E_" viewBox="0 -22.451 30.1 22.451">
	<g id="Layer_1_3_">
		
			<linearGradient id="SVGID_1_" gradientUnits="userSpaceOnUse" x1="640.9546" y1="583.1426" x2="670.9659" y2="583.1426" gradientTransform="matrix(0.9971 0.0758 -0.0758 0.9971 -594.8457 -642.4165)">
			<stop  offset="0" style="stop-color:#2D1D14"/>
			<stop  offset="0.0667" style="stop-color:#51443D"/>
			<stop  offset="0.1725" style="stop-color:#857C77"/>
			<stop  offset="0.2745" style="stop-color:#B1ABA8"/>
			<stop  offset="0.3686" style="stop-color:#D3D0CE"/>
			<stop  offset="0.4588" style="stop-color:#EBEAE9"/>
			<stop  offset="0.5373" style="stop-color:#FAF9F9"/>
			<stop  offset="0.5961" style="stop-color:#FFFFFF"/>
			<stop  offset="0.6314" style="stop-color:#F9F9F8"/>
			<stop  offset="0.6863" style="stop-color:#E8E7E6"/>
			<stop  offset="0.749" style="stop-color:#CCC9C7"/>
			<stop  offset="0.8157" style="stop-color:#A4A09D"/>
			<stop  offset="0.8902" style="stop-color:#726B66"/>
			<stop  offset="0.8902" style="stop-color:#726B66;stop-opacity:0"/>
			<stop  offset="1" style="stop-color:#000000;stop-opacity:0"/>
		</linearGradient>
		<path style="fill-rule:evenodd;clip-rule:evenodd;fill:url(#SVGID_1_);" d="M30.1-11.15c0-3.1-1.467-5.75-4.4-7.95
			c-2.9-2.2-6.434-3.316-10.6-3.35c-4.133-0.033-7.684,1.05-10.65,3.25C1.517-17.033,0.033-14.4,0-11.3l0.05,0.55
			c0.167,2.967,1.7,5.5,4.6,7.6C7.517-1.083,10.967-0.033,15,0c4,0,7.45-1.017,10.35-3.05c2.9-2.034,4.467-4.534,4.7-7.5L30.1-11.15
			z"/>
		
			<linearGradient id="SVGID_2_" gradientUnits="userSpaceOnUse" x1="640.9546" y1="583.1426" x2="670.9659" y2="583.1426" gradientTransform="matrix(0.9971 0.0758 -0.0758 0.9971 -594.8457 -642.4165)">
			<stop  offset="0" style="stop-color:#000000;stop-opacity:0"/>
			<stop  offset="0.8902" style="stop-color:#726B66;stop-opacity:0"/>
			<stop  offset="0.8902" style="stop-color:#726B66"/>
			<stop  offset="0.9686" style="stop-color:#362B25"/>
			<stop  offset="1" style="stop-color:#1D110A"/>
		</linearGradient>
		<path style="fill-rule:evenodd;clip-rule:evenodd;fill:url(#SVGID_2_);" d="M30.1-11.15c0-3.1-1.467-5.75-4.4-7.95
			c-2.9-2.2-6.434-3.316-10.6-3.35c-4.133-0.033-7.684,1.05-10.65,3.25C1.517-17.033,0.033-14.4,0-11.3l0.05,0.55
			c0.167,2.967,1.7,5.5,4.6,7.6C7.517-1.083,10.967-0.033,15,0c4,0,7.45-1.017,10.35-3.05c2.9-2.034,4.467-4.534,4.7-7.5L30.1-11.15
			z"/>
	</g>
</symbol>
<symbol  id="FlashAICB_x2F_plants_x2F__x3C_Path_x3E__x5F_13" viewBox="0 -11.901 30.05 11.901">
	<g id="Layer_1_2_">
		<path style="fill-rule:evenodd;clip-rule:evenodd;fill:#1A1A1A;" d="M0.05-0.2c4.367-1.8,9.367-2.667,15-2.6
			c5.667,0.033,10.667,0.966,15,2.8v-0.6c0.034-3.1-1.417-5.75-4.35-7.95c-2.9-2.2-6.434-3.317-10.6-3.35
			c-4.133-0.033-7.684,1.05-10.65,3.25C1.517-6.483,0.033-3.85,0-0.75L0.05-0.2z"/>
	</g>
</symbol>
<g>
	<g>
		<g>
			<path style="fill-rule:evenodd;clip-rule:evenodd;fill:#010100;" d="M41.85,28.95c-0.267,0.167-0.55,0.2-0.85,0.1
				c-0.3-0.1-0.533-0.283-0.7-0.55c-0.133-0.267-0.166-0.533-0.1-0.8c0.1-0.3,0.283-0.534,0.55-0.7l8.1-4.75
				c0.267-0.133,0.551-0.167,0.851-0.1c0.333,0.1,0.566,0.283,0.7,0.55c0.166,0.267,0.199,0.533,0.1,0.8
				c-0.1,0.3-0.283,0.517-0.55,0.65L41.85,28.95z"/>
			<path style="fill-rule:evenodd;clip-rule:evenodd;fill:#614B3D;" d="M52.85,24.7c-0.767,0.4-1.583,0.483-2.449,0.25
				c-0.834-0.233-1.483-0.717-1.95-1.45c-0.434-0.733-0.517-1.517-0.25-2.35c0.267-0.833,0.783-1.45,1.55-1.85
				c0.767-0.433,1.583-0.533,2.45-0.3c0.833,0.233,1.467,0.733,1.899,1.5c0.434,0.733,0.534,1.517,0.301,2.35
				C54.134,23.65,53.616,24.267,52.85,24.7z"/>
			<path style="fill-rule:evenodd;clip-rule:evenodd;fill:#321F12;" d="M52.2,23.55c-0.467,0.233-0.934,0.284-1.4,0.15
				c-0.5-0.133-0.866-0.417-1.1-0.85c-0.267-0.434-0.316-0.883-0.15-1.35c0.134-0.467,0.417-0.817,0.851-1.05
				c0.433-0.233,0.899-0.284,1.399-0.15c0.467,0.133,0.834,0.417,1.101,0.85c0.267,0.434,0.333,0.883,0.199,1.35
				C52.967,22.967,52.667,23.317,52.2,23.55z"/>
			<path style="fill-rule:evenodd;clip-rule:evenodd;fill:#010100;" d="M17.85,24.55c0.267,0.333,0.367,0.7,0.3,1.1
				c-0.1,0.434-0.316,0.767-0.65,1c-0.367,0.233-0.767,0.317-1.2,0.25c-0.433-0.1-0.767-0.316-1-0.65l-7.5-10.2
				c-0.233-0.333-0.316-0.7-0.25-1.1c0.067-0.4,0.284-0.733,0.65-1c0.333-0.233,0.733-0.317,1.2-0.25c0.4,0.066,0.733,0.267,1,0.6
				L17.85,24.55z"/>
			<path style="fill-rule:evenodd;clip-rule:evenodd;fill:#614B3D;" d="M11.75,12c0.7,0.967,0.95,2.033,0.75,3.2
				c-0.233,1.167-0.85,2.083-1.85,2.75c-1,0.667-2.1,0.9-3.3,0.7c-1.233-0.2-2.2-0.783-2.9-1.75c-0.7-0.967-0.95-2.017-0.75-3.15
				c0.2-1.167,0.816-2.083,1.85-2.75c1-0.667,2.1-0.9,3.3-0.7C10.05,10.5,11.017,11.067,11.75,12z"/>
			<path style="fill-rule:evenodd;clip-rule:evenodd;fill:#321F12;" d="M10.15,13.05c0.434,0.534,0.583,1.15,0.45,1.85
				c-0.133,0.667-0.483,1.184-1.05,1.55c-0.566,0.4-1.2,0.533-1.9,0.4c-0.7-0.1-1.25-0.434-1.65-1c-0.4-0.533-0.533-1.133-0.4-1.8
				c0.133-0.667,0.483-1.2,1.05-1.6c0.567-0.367,1.184-0.5,1.85-0.4C9.2,12.183,9.75,12.517,10.15,13.05z"/>
			<path style="fill-rule:evenodd;clip-rule:evenodd;fill:#010100;" d="M40.55,24.5C40.316,24.8,40,24.967,39.6,25
				c-0.399,0.033-0.75-0.083-1.05-0.35s-0.467-0.583-0.5-0.95c-0.033-0.4,0.084-0.733,0.351-1l2.949-3.25
				c0.267-0.267,0.584-0.417,0.95-0.45c0.4-0.033,0.75,0.067,1.05,0.3c0.301,0.267,0.467,0.583,0.5,0.95
				c0.034,0.4-0.083,0.733-0.35,1L40.55,24.5z"/>
			<path style="fill-rule:evenodd;clip-rule:evenodd;fill:#614B3D;" d="M45.95,21.9c-0.733,0.833-1.667,1.283-2.8,1.35
				C42.05,23.317,41.066,23,40.2,22.3c-0.834-0.7-1.3-1.583-1.4-2.65c-0.066-1.1,0.267-2.05,1-2.85c0.767-0.8,1.7-1.233,2.8-1.3
				c1.134-0.1,2.117,0.2,2.95,0.9c0.834,0.733,1.3,1.633,1.4,2.7C47.017,20.167,46.684,21.1,45.95,21.9z"/>
			<path style="fill-rule:evenodd;clip-rule:evenodd;fill:#321F12;" d="M44.6,20.8c-0.399,0.467-0.916,0.733-1.55,0.8
				c-0.666,0.033-1.233-0.15-1.7-0.55c-0.466-0.433-0.733-0.95-0.8-1.55c-0.033-0.6,0.15-1.133,0.55-1.6
				c0.434-0.467,0.967-0.717,1.601-0.75c0.666-0.066,1.233,0.117,1.7,0.55c0.466,0.4,0.733,0.9,0.8,1.5
				C45.233,19.833,45.033,20.367,44.6,20.8z"/>
			<path style="fill-rule:evenodd;clip-rule:evenodd;fill:#010100;" d="M29.6,29.05l0.25,38.05c0,0.567-0.199,1.034-0.6,1.4
				c-0.434,0.4-0.934,0.6-1.5,0.6s-1.067-0.183-1.5-0.55c-0.4-0.399-0.6-0.866-0.6-1.399L25.4,29.05c0-0.533,0.2-1,0.6-1.4
				c0.433-0.4,0.933-0.6,1.5-0.6c0.566,0,1.066,0.2,1.5,0.6C29.4,28.05,29.6,28.517,29.6,29.05z"/>
			<g>
				<path style="fill-rule:evenodd;clip-rule:evenodd;fill:#2E2818;" d="M25.55,39.1l3.851-0.55c3.133-0.066,6.1,0.584,8.899,1.95
					c3.2,1.6,4.134,3.583,2.8,5.95c-0.533,0.934-1.333,1.583-2.399,1.95c-1.134,0.366-2.267,0.25-3.4-0.351
					c-2.967-1.5-5.483-3.434-7.55-5.8L25.55,39.1z"/>
				<path style="fill-rule:evenodd;clip-rule:evenodd;fill:#584F39;" d="M28.15,40.1L30.85,39.7c2.2-0.033,4.284,0.434,6.25,1.399
					c2.267,1.134,2.934,2.517,2,4.15c-0.933,1.667-2.3,2.05-4.1,1.15c-2.066-1.067-3.833-2.434-5.3-4.101L28.15,40.1z"/>
			</g>
			<g>
				<path style="fill-rule:evenodd;clip-rule:evenodd;fill:#2E2818;" d="M28.55,39.1c-0.434,0.9-1.166,1.95-2.2,3.15
					c-2.033,2.4-4.517,4.366-7.45,5.9c-1.133,0.6-2.267,0.716-3.4,0.35c-1.067-0.333-1.867-0.967-2.4-1.9
					c-1.4-2.333-0.5-4.316,2.7-5.949c2.8-1.4,5.767-2.084,8.9-2.051C26.267,38.634,27.55,38.8,28.55,39.1z"/>
				<path style="fill-rule:evenodd;clip-rule:evenodd;fill:#584F39;" d="M25.95,40.15l-1.5,2.199c-1.434,1.7-3.184,3.084-5.25,4.15
					c-1.767,0.934-3.133,0.566-4.1-1.1c-0.967-1.667-0.333-3.067,1.9-4.2c1.967-0.967,4.05-1.434,6.25-1.4
					C24.35,39.833,25.25,39.95,25.95,40.15z"/>
			</g>
			<g>
				<path style="fill-rule:evenodd;clip-rule:evenodd;fill:#2E2818;" d="M28.15,34.9l1.899,3.3c1.3,2.833,1.983,5.85,2.05,9.05
					c0.034,1.233-0.383,2.25-1.25,3.05c-0.8,0.767-1.767,1.167-2.899,1.2c-2.8,0.066-4.217-1.634-4.25-5.1
					c-0.034-3.034,0.7-5.851,2.2-8.45L28.15,34.9z"/>
				<path style="fill-rule:evenodd;clip-rule:evenodd;fill:#584F39;" d="M27.9,37.6l1.35,2.301c0.9,2,1.366,4.116,1.4,6.35
					c0.066,1.967-0.9,2.967-2.9,3c-1.967,0.066-2.967-1.134-3-3.6c0-2.134,0.533-4.117,1.6-5.95L27.9,37.6z"/>
			</g>
			<path style="fill-rule:evenodd;clip-rule:evenodd;fill:#4C3627;" d="M27.05,18.2c4,0,7.45,1.017,10.351,3.05
				c2.899,2.033,4.466,4.533,4.699,7.5c-4.267,1.833-9.267,2.767-15,2.8c-5.633,0.067-10.633-0.8-15-2.6
				c0.167-2.967,1.7-5.5,4.6-7.6C19.567,19.283,23.017,18.233,27.05,18.2z"/>
			
				<use xlink:href="#FlashAICB_x2F_plants_x2F__x3C_Path_x3E__x5F_13"  width="30.05" height="11.901" y="-11.901" transform="matrix(1 0 0 -1 12.0498 28)" style="overflow:visible;opacity:0.5;enable-background:new    ;"/>
			<path style="fill-rule:evenodd;clip-rule:evenodd;fill:#321F12;" d="M42.1,28.75l0.051,0.6c0,3.1-1.467,5.75-4.4,7.95
				c-2.9,2.2-6.434,3.316-10.6,3.351c-4.134,0.033-7.684-1.051-10.65-3.25c-2.933-2.167-4.417-4.8-4.45-7.9l0.05-0.55
				c4.367,1.8,9.367,2.667,15,2.6C32.833,31.517,37.833,30.583,42.1,28.75z"/>
			<path style="fill-rule:evenodd;clip-rule:evenodd;fill:#010100;" d="M35.3,11.95c0.533,0.167,0.934,0.5,1.2,1
				c0.233,0.5,0.267,1,0.1,1.5l-2.1,5.95c-0.167,0.533-0.517,0.917-1.05,1.15c-0.5,0.233-1.017,0.267-1.55,0.1
				c-0.534-0.167-0.934-0.5-1.2-1s-0.316-1.017-0.15-1.55l2.101-5.9c0.166-0.534,0.517-0.917,1.05-1.15
				C34.2,11.817,34.733,11.783,35.3,11.95z"/>
			<path style="fill-rule:evenodd;clip-rule:evenodd;fill:#614B3D;" d="M40.8,13.3c-0.5,1.467-1.483,2.55-2.95,3.25
				c-1.433,0.667-2.933,0.767-4.5,0.3C31.816,16.35,30.7,15.4,30,14c-0.733-1.4-0.85-2.833-0.35-4.3c0.533-1.467,1.533-2.55,3-3.25
				c1.433-0.7,2.916-0.8,4.449-0.3c1.567,0.5,2.7,1.45,3.4,2.85C41.233,10.4,41.333,11.833,40.8,13.3z"/>
			<path style="fill-rule:evenodd;clip-rule:evenodd;fill:#321F12;" d="M38.45,12.5c-0.3,0.867-0.867,1.483-1.7,1.85
				c-0.833,0.4-1.7,0.467-2.6,0.2c-0.867-0.267-1.517-0.8-1.95-1.6c-0.4-0.8-0.45-1.633-0.15-2.5c0.3-0.833,0.867-1.45,1.7-1.85
				s1.684-0.45,2.55-0.15c0.867,0.267,1.517,0.8,1.95,1.6C38.65,10.85,38.717,11.667,38.45,12.5z"/>
			<path style="fill-rule:evenodd;clip-rule:evenodd;fill:#010100;" d="M25.2,5.4l2.5,14c0.066,0.434-0.033,0.817-0.3,1.15
				c-0.267,0.367-0.634,0.567-1.101,0.6c-0.433,0.067-0.833-0.033-1.2-0.3s-0.583-0.617-0.65-1.05l-2.5-14.05
				c-0.034-0.433,0.083-0.817,0.35-1.15c0.267-0.333,0.633-0.533,1.1-0.6c0.467-0.033,0.867,0.083,1.2,0.35
				C24.967,4.617,25.167,4.967,25.2,5.4z"/>
			<path style="fill-rule:evenodd;clip-rule:evenodd;fill:#614B3D;" d="M27.6,3.9c0.167,1.2-0.133,2.283-0.899,3.25
				c-0.8,1-1.833,1.567-3.1,1.7c-1.267,0.167-2.4-0.133-3.4-0.9c-1-0.733-1.583-1.717-1.75-2.95c-0.167-1.2,0.133-2.283,0.9-3.25
				c0.8-0.967,1.833-1.533,3.1-1.7c1.267-0.133,2.4,0.167,3.4,0.9C26.883,1.683,27.467,2.667,27.6,3.9z"/>
			<path style="fill-rule:evenodd;clip-rule:evenodd;fill:#321F12;" d="M25.65,4.15c0.1,0.667-0.083,1.283-0.55,1.85
				c-0.434,0.567-1.017,0.883-1.75,0.95c-0.733,0.1-1.383-0.067-1.95-0.5c-0.566-0.434-0.9-1-1-1.7
				c-0.066-0.667,0.117-1.283,0.55-1.85C21.417,2.333,22,2.017,22.7,1.95c0.733-0.1,1.383,0.066,1.95,0.5
				C25.217,2.883,25.55,3.45,25.65,4.15z"/>
			<path style="fill-rule:evenodd;clip-rule:evenodd;fill:#010100;" d="M21.5,20.4c-0.133,0.267-0.35,0.467-0.65,0.6
				c-0.3,0.133-0.6,0.133-0.9,0c-0.3-0.133-0.517-0.333-0.65-0.6l-1.45-3.25c-0.133-0.3-0.133-0.6,0-0.9
				c0.133-0.267,0.35-0.467,0.65-0.6s0.6-0.133,0.9,0c0.3,0.133,0.517,0.333,0.65,0.6l1.45,3.25C21.633,19.8,21.633,20.1,21.5,20.4z
				"/>
			<path style="fill-rule:evenodd;clip-rule:evenodd;fill:#614B3D;" d="M21.4,14.75c0.367,0.833,0.383,1.65,0.05,2.45
				c-0.333,0.8-0.934,1.383-1.8,1.75c-0.833,0.367-1.683,0.383-2.55,0.05s-1.483-0.917-1.85-1.75c-0.333-0.8-0.333-1.617,0-2.45
				c0.367-0.8,0.967-1.383,1.8-1.75c0.867-0.333,1.717-0.333,2.55,0C20.467,13.383,21.067,13.95,21.4,14.75z"/>
			<path style="fill-rule:evenodd;clip-rule:evenodd;fill:#321F12;" d="M20.1,15.3c0.2,0.467,0.2,0.934,0,1.4
				c-0.2,0.466-0.533,0.8-1,1c-0.5,0.2-0.983,0.2-1.45,0c-0.5-0.167-0.85-0.483-1.05-0.95c-0.233-0.467-0.25-0.933-0.05-1.4
				c0.2-0.467,0.55-0.8,1.05-1c0.467-0.2,0.95-0.2,1.45,0C19.55,14.517,19.9,14.833,20.1,15.3z"/>
			<path style="fill-rule:evenodd;clip-rule:evenodd;fill:#010100;" d="M4.35,23.55c0.167-0.267,0.4-0.433,0.7-0.5
				c0.3-0.066,0.583-0.033,0.85,0.1l8.5,3.95c0.3,0.167,0.5,0.4,0.6,0.7c0.067,0.267,0.017,0.534-0.15,0.8
				c-0.133,0.267-0.35,0.45-0.65,0.55c-0.3,0.1-0.6,0.067-0.9-0.1l-8.5-4c-0.267-0.133-0.45-0.35-0.55-0.65
				C4.183,24.1,4.217,23.817,4.35,23.55z"/>
			<path style="fill-rule:evenodd;clip-rule:evenodd;fill:#614B3D;" d="M4.8,20.5c0.767,0.4,1.284,1.017,1.55,1.85
				c0.233,0.8,0.133,1.583-0.3,2.35c-0.433,0.733-1.066,1.216-1.9,1.45C3.283,26.383,2.467,26.3,1.7,25.9
				c-0.8-0.433-1.317-1.05-1.55-1.85c-0.267-0.8-0.183-1.583,0.25-2.35c0.434-0.733,1.083-1.233,1.95-1.5
				C3.217,19.967,4.033,20.067,4.8,20.5z"/>
			<path style="fill-rule:evenodd;clip-rule:evenodd;fill:#321F12;" d="M4.15,21.65C4.583,21.883,4.867,22.233,5,22.7
				c0.133,0.466,0.083,0.917-0.15,1.35c-0.233,0.434-0.6,0.717-1.1,0.85c-0.467,0.133-0.933,0.083-1.4-0.15
				c-0.434-0.233-0.733-0.583-0.9-1.05c-0.133-0.467-0.083-0.917,0.15-1.35c0.267-0.434,0.65-0.717,1.15-0.85
				S3.717,21.417,4.15,21.65z"/>
		</g>
	</g>
	
		<use xlink:href="#FlashAICB_x2F_plants_x2F__x3C_Path_x3E_"  width="30.1" height="22.451" y="-22.451" transform="matrix(1 0 0 -1 12.0498 18.2002)" style="overflow:visible;opacity:0.3008;enable-background:new    ;"/>
</g>
</svg>
