<?xml version="1.0" encoding="iso-8859-1"?>
<!-- Generator: Adobe Illustrator 15.1.0, SVG Export Plug-In . SVG Version: 6.00 Build 0)  -->
<!DOCTYPE svg PUBLIC "-//W3C//DTD SVG 1.1//EN" "http://www.w3.org/Graphics/SVG/1.1/DTD/svg11.dtd">
<svg version="1.1" id="Layer_1" xmlns="http://www.w3.org/2000/svg" xmlns:xlink="http://www.w3.org/1999/xlink" x="0px" y="0px"
	 width="149.25px" height="93.95px" viewBox="0 0 149.25 93.95" style="enable-background:new 0 0 149.25 93.95;"
	 xml:space="preserve">
<g>
	<g>
		
			<radialGradient id="SVGID_1_" cx="84.0156" cy="17.1396" r="19.8498" gradientTransform="matrix(0.944 0.33 0.0473 -0.1353 -6.4658 18.4995)" gradientUnits="userSpaceOnUse">
			<stop  offset="0.349" style="stop-color:#000000;stop-opacity:0.1451"/>
			<stop  offset="1" style="stop-color:#000000;stop-opacity:0"/>
		</radialGradient>
		<path style="fill-rule:evenodd;clip-rule:evenodd;fill:url(#SVGID_1_);" d="M63.75,52.15L54.55,36.3
			c0.1-0.066,0.184-0.25,0.25-0.55c0.034-0.3,0.117-0.517,0.25-0.65c0.233-0.2,0.8-0.3,1.7-0.3c0.7,0.034,1.583,0.317,2.65,0.85
			c0.867,0.434,2.483,1.05,4.85,1.85c0.667,0.233,1.833,0.684,3.5,1.35c1.467,0.6,2.633,1.05,3.5,1.35
			c0.833,0.3,2.233,0.733,4.2,1.3c1.8,0.5,3.184,0.934,4.149,1.3c3.867,1.367,6.167,2.134,6.9,2.3c0.5,0.133,1.35,0.316,2.55,0.55
			c1.066,0.3,1.8,0.733,2.2,1.3c0.467,0.767,0.884,1.683,1.25,2.75c0.233,0.566,0.316,1.116,0.25,1.649
			c-0.066,0.667-0.366,1.101-0.9,1.301c-0.166,0.066-0.583,0.1-1.25,0.1c-0.533,0.066-1.183,0.1-1.949,0.1
			c-0.867-0.033-1.517-0.05-1.95-0.05c-3,0.134-5.25,0.2-6.75,0.2c-3.3,0-6.267-0.133-8.9-0.4
			C66.983,52.267,64.55,52.117,63.75,52.15z"/>
	</g>
	<g>
		
			<radialGradient id="SVGID_2_" cx="86.6309" cy="-0.8525" r="13.799" gradientTransform="matrix(0.5 0.866 1.4439 -0.8335 1.9697 -1.1373)" gradientUnits="userSpaceOnUse">
			<stop  offset="0.349" style="stop-color:#000000;stop-opacity:0.6941"/>
			<stop  offset="1" style="stop-color:#000000;stop-opacity:0"/>
		</radialGradient>
		<path style="fill-rule:evenodd;clip-rule:evenodd;fill:url(#SVGID_2_);" d="M9,76.05c0-0.399,1.967-1.649,5.9-3.75
			c3.867-2.033,6.283-3.166,7.25-3.399C28.383,67.533,36.333,67.333,46,68.3c9.2,0.934,15.75,2.4,19.65,4.4
			c3.633,1.934,4.067,5.434,1.3,10.5c-2.8,5.066-6.95,8.35-12.45,9.85c-5,1.367-10.617,1.2-16.85-0.5
			c-5-1.366-9.883-3.533-14.65-6.5C13.667,80.217,9,76.884,9,76.05z"/>
		<path style="fill-rule:evenodd;clip-rule:evenodd;fill:#381A05;" d="M65.5,66.95l-0.35,5.2L60.6,75.5
			c-3.467,2.467-6.267,4.383-8.4,5.75c-3.4,2.167-7.184,4.434-11.35,6.8c-7.267-2.167-14.9-4.55-22.9-7.149
			c-3.1-1-6.934-2.533-11.5-4.601l-5.9-2.85L0,68.15L24,66.3L65.5,66.95z"/>
		<path style="fill-rule:evenodd;clip-rule:evenodd;fill:#240E03;" d="M41.45,66.55l24.05,0.4l-0.35,5.2L60.6,75.5
			c-3.467,2.467-6.267,4.383-8.4,5.75c-3.4,2.167-7.184,4.434-11.35,6.8L40.7,88c1.066-7.566,1.583-13.6,1.55-18.1
			C42.217,68.633,41.95,67.517,41.45,66.55z"/>
		<path style="fill-rule:evenodd;clip-rule:evenodd;fill:#FF0000;" d="M65.5,66.95l-4.55,2.899c-3.3,2.101-5.55,3.65-6.75,4.65
			c-3,2.467-7.3,5.1-12.9,7.9c-7.733-1.834-14.917-3.934-21.55-6.301c-3.8-1.366-8.233-3.1-13.3-5.199L0,68.15
			c2.267-1.601,5.8-3.717,10.6-6.351l13.9-7.55l5.9,2.05c4.434,1.533,7.95,2.7,10.55,3.5C48.617,62.2,56.8,64.583,65.5,66.95z"/>
		<path style="fill-rule:evenodd;clip-rule:evenodd;fill:#381A05;" d="M57.25,65.9c-6.8-0.367-13.383,0.35-19.75,2.149
			c-6.733,1.9-11.917,4.55-15.55,7.95c-1.053,0.95-1.845,1.859-2.375,2.725L16.8,77.7c0.967-1.134,2.5-2.4,4.6-3.8
			c4.167-2.867,9.083-5.033,14.75-6.5c6.4-1.667,12.6-2.551,18.6-2.65c3-0.066,5.35,0.033,7.05,0.3l3.7,1.9
			C63.4,66.417,60.65,66.066,57.25,65.9z M19.575,78.725L27.5,81.7l-8.35-0.3c-0.433-0.268-0.433-0.9,0-1.9
			C19.265,79.248,19.406,78.989,19.575,78.725z"/>
		<path style="fill-rule:evenodd;clip-rule:evenodd;fill:#381A05;" d="M20.95,55.95c3.767,3.5,6.333,8.467,7.7,14.899
			c-0.533,0.268-1.083,0.617-1.65,1.051c-0.833-6.101-3.167-11.217-7-15.351l0.15-0.149l0.25-0.2L20.95,55.95z"/>
	</g>
	<g>
		
			<radialGradient id="SVGID_3_" cx="71.3892" cy="-48.7407" r="13.3018" gradientTransform="matrix(0.2587 0.966 1.9839 -0.5313 143.7781 -38.5057)" gradientUnits="userSpaceOnUse">
			<stop  offset="0.349" style="stop-color:#000000;stop-opacity:0.6941"/>
			<stop  offset="1" style="stop-color:#000000;stop-opacity:0"/>
		</radialGradient>
		<path style="fill-rule:evenodd;clip-rule:evenodd;fill:url(#SVGID_3_);" d="M31.3,58.75c-4.633-2.366-6.95-3.7-6.95-4
			c0-0.333,3.75-1.65,11.25-3.95c6.833-2.1,11.017-3.316,12.55-3.649c6.267-1.367,14.783-1.534,25.55-0.5
			c10.333,0.966,17.434,2.466,21.3,4.5c3.5,1.833,3,5.233-1.5,10.199c-4.4,4.801-9.483,7.983-15.25,9.551
			c-5.3,1.433-11.333,1.6-18.1,0.5c-6.4-1.034-11.7-2.867-15.9-5.5C41.583,64.233,37.267,61.85,31.3,58.75z"/>
		<path style="fill-rule:evenodd;clip-rule:evenodd;fill:#381A05;" d="M75.75,61.9c-2.233,1.1-4.883,2.333-7.95,3.699l-3.9,1.7
			c-6.3-2.533-13.017-5.1-20.15-7.7c-2.733-1.033-6.117-2.467-10.15-4.3l-5.2-2.5l0.05-4.6L51,47.45l40.2,2.25l-0.05,3.45
			C84.55,57.25,79.417,60.167,75.75,61.9z"/>
		<path style="fill-rule:evenodd;clip-rule:evenodd;fill:#240E03;" d="M75.75,61.9c-3.767,1.833-7.583,3.583-11.45,5.25
			c1.833-6.533,2.733-12.117,2.7-16.75c-0.066-0.733-0.167-1.417-0.3-2.051L91.2,49.7l-0.05,3.45
			C84.55,57.25,79.417,60.167,75.75,61.9z"/>
		<path style="fill-rule:evenodd;clip-rule:evenodd;fill:#FF0000;" d="M53.1,36.6l5.4,2.1c4.067,1.533,7.3,2.716,9.7,3.55
			c7.1,2.467,14.767,4.95,23,7.45c-1.533,0.733-3.2,1.55-5,2.45c-3.601,1.767-6.066,3.066-7.4,3.899
			c-3.333,2.067-7.883,4.2-13.65,6.4c-7.033-1.967-13.483-4.134-19.35-6.5c-3.366-1.367-7.267-3.067-11.7-5.101L28.45,48.2
			c0.566-0.333,1.433-0.8,2.6-1.4c2.333-1.2,4.983-2.483,7.95-3.85L53.1,36.6z"/>
		<g>
			<path style="fill-rule:evenodd;clip-rule:evenodd;fill:#381A05;" d="M67.95,42.15l1.2,0.45c-13.066,3.8-24.05,6.867-32.95,9.2
				l-2.1-0.95C53.434,45.816,64.4,43,67,42.4L67.95,42.15z"/>
			<path style="fill-rule:evenodd;clip-rule:evenodd;fill:#381A05;" d="M58.85,60.55l-1.95-0.6c1.633-1.2,5.15-3.9,10.55-8.101
				c4.966-3.866,7.899-6.1,8.8-6.7L76.4,45l0.699,0.25L58.85,60.55z"/>
		</g>
	</g>
	<g>
		
			<radialGradient id="SVGID_4_" cx="58.5054" cy="-82.7266" r="15.1031" gradientTransform="matrix(0.2588 0.9659 1.6014 -0.4291 212.385 -56.9092)" gradientUnits="userSpaceOnUse">
			<stop  offset="0.349" style="stop-color:#000000;stop-opacity:0.6941"/>
			<stop  offset="1" style="stop-color:#000000;stop-opacity:0"/>
		</radialGradient>
		<path style="fill-rule:evenodd;clip-rule:evenodd;fill:url(#SVGID_4_);" d="M124.25,24.15c1.767,0.9,2.65,2.567,2.65,5
			c0,2.233-0.717,4.733-2.15,7.5c-3.333,6.434-7.75,10.4-13.25,11.9c-5.566,1.533-11.934,1.967-19.1,1.3
			c-7.301-0.666-12.934-2.233-16.9-4.7c-1.633-1.033-3.767-1.767-6.4-2.2c-2.733-0.333-4.533-0.6-5.4-0.8
			c-1.4-0.367-1.917-1.033-1.55-2c0.434-1.133,2.133-3.05,5.1-5.75c1.9-1.767,3.733-3.45,5.5-5.05c3.5-3.133,5.634-4.783,6.4-4.95
			c7.1-1.566,15.316-2.45,24.649-2.65C113.967,21.55,120.783,22.35,124.25,24.15z"/>
		<path style="fill-rule:evenodd;clip-rule:evenodd;fill:#381A05;" d="M83.4,26.8l37.6,0.75l0.1,3.95
			c-6.066,3.633-10.767,6.233-14.1,7.8l-10.9,4.9c-6-1.967-12.35-3.95-19.05-5.95c-2.6-0.767-5.816-1.867-9.65-3.3L62.45,33l-0.1-5
			L83.4,26.8z"/>
		<path style="fill-rule:evenodd;clip-rule:evenodd;fill:#240E03;" d="M95.95,30.3c-0.267-1.233-0.584-2.333-0.95-3.3l26,0.55
			l0.1,3.95c-6.066,3.633-10.767,6.233-14.1,7.8c-3.434,1.634-6.9,3.184-10.4,4.65c0.2-4.067,0.417-7.083,0.65-9.05
			C97.384,33.267,96.95,31.733,95.95,30.3z"/>
		<path style="fill-rule:evenodd;clip-rule:evenodd;fill:#FF0000;" d="M85,17.6l5.1,1.6c3.834,1.167,6.884,2.066,9.15,2.7
			c6.733,1.867,13.983,3.75,21.75,5.65c-1.4,0.667-2.934,1.384-4.6,2.15c-3.301,1.6-5.567,2.767-6.801,3.5
			c-3,1.833-7.166,3.767-12.5,5.8c-6.633-1.467-12.733-3.117-18.3-4.95c-3.2-1.033-6.9-2.35-11.1-3.95L62.35,28
			c0.533-0.3,1.316-0.717,2.35-1.25c2.133-1.066,4.566-2.217,7.3-3.45C76.467,21.3,80.8,19.4,85,17.6z"/>
		<g>
			<path style="fill-rule:evenodd;clip-rule:evenodd;fill:#381A05;" d="M96.75,25.9l-1.25,0.5l0.15,0.25
				C86.55,26.983,77.6,26.367,68.8,24.8l1.95-0.9c4.6,0.8,9.55,1.333,14.85,1.6c7.9,0.367,15.367,0,22.4-1.1l0.35-0.05l3.301,0.85
				c-4.601,0.7-9.45,1.167-14.551,1.4L96.75,25.9z"/>
			<path style="fill-rule:evenodd;clip-rule:evenodd;fill:#381A05;" d="M95.65,26.65L95.5,26.4l1.25-0.5l0.35,0.7
				c1.733,3.367,3.334,6.85,4.801,10.45l-1.601,0.7l-2.05-6.1C97.517,29.783,96.65,28.117,95.65,26.65z"/>
		</g>
	</g>
	<g>
		
			<radialGradient id="SVGID_5_" cx="124.8633" cy="-31.2715" r="19.7178" gradientTransform="matrix(0.9543 0.2989 0.0469 -0.1285 12.187 -33.4309)" gradientUnits="userSpaceOnUse">
			<stop  offset="0.349" style="stop-color:#000000;stop-opacity:0.4471"/>
			<stop  offset="1" style="stop-color:#000000;stop-opacity:0"/>
		</radialGradient>
		<path style="fill-rule:evenodd;clip-rule:evenodd;fill:url(#SVGID_5_);" d="M110.45,1.3c0.133-0.066,0.217-0.233,0.25-0.5
			s0.1-0.45,0.2-0.55c0.3-0.233,0.85-0.316,1.649-0.25c0.767,0,1.667,0.233,2.7,0.7c0.9,0.4,2.517,0.95,4.85,1.65
			c1.601,0.466,3.967,1.233,7.101,2.3c0.934,0.3,2.333,0.684,4.2,1.15c1.899,0.467,3.3,0.833,4.199,1.1
			c3.534,1.067,5.851,1.733,6.95,2c0.5,0.133,1.334,0.284,2.5,0.45c1.033,0.233,1.783,0.617,2.25,1.15
			c0.467,0.566,0.983,1.367,1.55,2.4c0.267,0.5,0.4,1,0.4,1.5c-0.033,0.633-0.283,1.034-0.75,1.2c-0.634,0.033-1.033,0.066-1.2,0.1
			c-0.267,0.033-1.55,0.05-3.85,0.05l-6.601,0.3c-2.933,0.067-5.899-0.033-8.899-0.3c-1.634-0.133-2.851-0.217-3.65-0.25
			c-1.467-0.1-2.7-0.133-3.7-0.1L110.45,1.3z"/>
		
			<radialGradient id="SVGID_6_" cx="50.3657" cy="-111.3086" r="13.1988" gradientTransform="matrix(0.2587 0.9659 1.8724 -0.5016 315.9362 -84.6283)" gradientUnits="userSpaceOnUse">
			<stop  offset="0.349" style="stop-color:#000000;stop-opacity:0.6941"/>
			<stop  offset="1" style="stop-color:#000000;stop-opacity:0"/>
		</radialGradient>
		<path style="fill-rule:evenodd;clip-rule:evenodd;fill:url(#SVGID_6_);" d="M129.85,9.3c8.733,0.7,14.617,1.983,17.65,3.85
			c2.9,1.833,0.667,5.417-6.7,10.75c-7.233,5.233-14.25,8.567-21.05,10c-6.533,1.367-11.717,1.733-15.55,1.1
			c-3.533-0.566-6.967-2.2-10.3-4.9c-1.301-1.067-3.284-1.85-5.95-2.35c-2.8-0.333-4.634-0.617-5.5-0.85
			c-1.367-0.367-1.634-1.033-0.8-2c0.966-1.133,3.649-3.017,8.05-5.65c2.7-1.667,5.3-3.25,7.8-4.75c4.9-2.9,7.767-4.417,8.6-4.55
			C113.134,8.817,121.05,8.6,129.85,9.3z"/>
		<path style="fill-rule:evenodd;clip-rule:evenodd;fill:#381A05;" d="M102.95,22.55c-2.867-0.833-6.417-2.05-10.65-3.65l-5.55-2.15
			l-0.2-4.35L109.4,11l38.6,0.85l0.3,3.05c-5.8,3.934-10.35,6.767-13.649,8.5c-3.301,1.767-6.983,3.6-11.051,5.5
			C117.167,26.833,110.283,24.717,102.95,22.55z"/>
		<path style="fill-rule:evenodd;clip-rule:evenodd;fill:#240E03;" d="M148,11.85l0.3,3.05c-5.8,3.934-10.35,6.767-13.649,8.5
			c-3.434,1.833-7.084,3.65-10.95,5.45c0.3-5.5,0.434-8.534,0.399-9.1c0-3.5-0.466-6.316-1.399-8.45L148,11.85z"/>
		<path style="fill-rule:evenodd;clip-rule:evenodd;fill:#FF0000;" d="M110.75,1.1l5.35,1.75c4.067,1.3,7.284,2.283,9.65,2.95
			c6.967,2.034,14.384,4.05,22.25,6.05l-4.45,2.3c-3.166,1.7-5.35,2.95-6.55,3.75c-2.967,2.034-7.15,4.184-12.55,6.45
			c-7.066-1.567-13.634-3.333-19.7-5.3c-3.533-1.133-7.616-2.583-12.25-4.35l-5.95-2.3c0.566-0.333,1.434-0.8,2.601-1.4
			c2.333-1.167,4.983-2.434,7.949-3.8L110.75,1.1z"/>
		<g>
			<path style="fill-rule:evenodd;clip-rule:evenodd;fill:#381A05;" d="M91.9,9.65L94.3,8.5L132,7.6l1.45,0.4
				C112.384,8.9,98.533,9.45,91.9,9.65z"/>
			<path style="fill-rule:evenodd;clip-rule:evenodd;fill:#381A05;" d="M136.75,18.05c-0.767,0.534-1.467,0.967-2.1,1.3
				c2.699-3.434,5.399-6.383,8.1-8.85l0.55,0.15C141.134,12.95,138.95,15.417,136.75,18.05z"/>
		</g>
	</g>
</g>
</svg>
