<?xml version="1.0" encoding="iso-8859-1"?>
<!-- Generator: Adobe Illustrator 15.1.0, SVG Export Plug-In . SVG Version: 6.00 Build 0)  -->
<!DOCTYPE svg PUBLIC "-//W3C//DTD SVG 1.1//EN" "http://www.w3.org/Graphics/SVG/1.1/DTD/svg11.dtd">
<svg version="1.1" id="Layer_1" xmlns="http://www.w3.org/2000/svg" xmlns:xlink="http://www.w3.org/1999/xlink" x="0px" y="0px"
	 width="124.25px" height="66.4px" viewBox="0 0 124.25 66.4" style="enable-background:new 0 0 124.25 66.4;" xml:space="preserve"
	>
<g>
	<g>
		
			<radialGradient id="SVGID_1_" cx="60.8955" cy="21.9058" r="19.5619" gradientTransform="matrix(0.9483 0.3174 0.0517 -0.1296 -9.2647 23.2181)" gradientUnits="userSpaceOnUse">
			<stop  offset="0.349" style="stop-color:#000000;stop-opacity:0.1451"/>
			<stop  offset="1" style="stop-color:#000000;stop-opacity:0"/>
		</radialGradient>
		<path style="fill-rule:evenodd;clip-rule:evenodd;fill:url(#SVGID_1_);" d="M62.4,48.15c-3,0.133-5.25,0.199-6.75,0.199
			c-2.8,0-5.767-0.133-8.9-0.399c-3.9-0.333-6.333-0.483-7.3-0.45L30.7,32.55c0.1-0.066,0.183-0.25,0.25-0.55
			c0.066-0.3,0.167-0.5,0.3-0.6c0.2-0.2,0.767-0.3,1.7-0.3c0.667,0.033,1.533,0.3,2.6,0.8c0.667,0.333,2.267,0.917,4.8,1.75
			c1.533,0.534,3.833,1.383,6.9,2.55c1.833,0.6,4.6,1.417,8.3,2.45c3.267,1.133,5.55,1.866,6.851,2.199
			c0.5,0.134,1.35,0.301,2.55,0.5c1.033,0.268,1.75,0.684,2.149,1.25c0.334,0.5,0.733,1.367,1.2,2.601
			c0.2,0.533,0.267,1.066,0.2,1.6c-0.1,0.634-0.417,1.033-0.95,1.2c-0.166,0.066-0.583,0.1-1.25,0.1
			c-0.5,0.067-1.149,0.084-1.95,0.051C63.316,48.15,62.667,48.15,62.4,48.15z"/>
		
			<radialGradient id="SVGID_2_" cx="60.1152" cy="-27.6816" r="12.3984" gradientTransform="matrix(0.2589 0.9659 2.1161 -0.5671 85.314 -22.8649)" gradientUnits="userSpaceOnUse">
			<stop  offset="0.349" style="stop-color:#000000;stop-opacity:0.6941"/>
			<stop  offset="1" style="stop-color:#000000;stop-opacity:0"/>
		</radialGradient>
		<path style="fill-rule:evenodd;clip-rule:evenodd;fill:url(#SVGID_2_);" d="M24,42.8c6.267-1.3,14.783-1.467,25.55-0.5
			c10.3,0.934,17.351,2.351,21.15,4.25c3.467,1.767,2.883,4.983-1.75,9.65c-4.5,4.533-9.667,7.55-15.5,9.05
			c-5.333,1.366-11.384,1.533-18.15,0.5c-6.333-1-11.583-2.733-15.75-5.2c-2.633-1.6-6.867-3.85-12.7-6.75
			C2.283,51.533,0,50.267,0,50c0-0.333,3.783-1.583,11.35-3.75C18.316,44.25,22.533,43.1,24,42.8z"/>
		<path style="fill-rule:evenodd;clip-rule:evenodd;fill:#381A05;" d="M9.25,50.5L4.1,48.15l0.15-4.4l22.6-0.65l40.1,2.101
			l-0.101,3.3c-6.733,3.867-11.95,6.617-15.649,8.25c-2.267,1.033-4.95,2.2-8.05,3.5l-3.95,1.6c-6.233-2.399-12.867-4.833-19.9-7.3
			C16.6,53.583,13.25,52.233,9.25,50.5z"/>
		<path style="fill-rule:evenodd;clip-rule:evenodd;fill:#240E03;" d="M66.95,45.2l-0.101,3.3c-6.733,3.867-11.95,6.617-15.649,8.25
			c-4.4,2.033-8.267,3.684-11.6,4.95c2.033-6.101,3.083-11.384,3.15-15.851c0-0.566-0.083-1.216-0.25-1.949L66.95,45.2z"/>
		<path style="fill-rule:evenodd;clip-rule:evenodd;fill:#FF0000;" d="M9.85,46.25l-5.6-2.5l2.65-1.3
			c2.333-1.134,5.017-2.351,8.05-3.65l14.3-6l5.3,1.95c4.034,1.467,7.233,2.6,9.6,3.4c7.067,2.333,14.667,4.683,22.8,7.05
			c-1.533,0.7-3.217,1.467-5.05,2.3c-3.633,1.667-6.133,2.9-7.5,3.7c-3.367,1.967-7.966,3.983-13.8,6.05
			c-6.967-1.866-13.367-3.917-19.2-6.15C18.066,49.8,14.217,48.184,9.85,46.25z"/>
		<g>
			<path style="fill-rule:evenodd;clip-rule:evenodd;fill:#381A05;" d="M11.9,47.2l-2.05-0.9c20.066-4.899,31.1-7.566,33.1-8
				l0.95-0.25l1.25,0.45C30.483,42.467,19.4,45.367,11.9,47.2z"/>
			<path style="fill-rule:evenodd;clip-rule:evenodd;fill:#381A05;" d="M34.35,55.45l-1.9-0.55c1.633-1.134,5.216-3.684,10.75-7.65
				c5.066-3.667,8.05-5.783,8.95-6.35l0.15-0.15L53,41L34.35,55.45z"/>
		</g>
	</g>
	<g>
		
			<radialGradient id="SVGID_3_" cx="48.5786" cy="-61.8237" r="13.008" gradientTransform="matrix(0.2591 0.9658 1.8112 -0.4859 171.6889 -46.0612)" gradientUnits="userSpaceOnUse">
			<stop  offset="0.349" style="stop-color:#000000;stop-opacity:0.6941"/>
			<stop  offset="1" style="stop-color:#000000;stop-opacity:0"/>
		</radialGradient>
		<path style="fill-rule:evenodd;clip-rule:evenodd;fill:url(#SVGID_3_);" d="M51.45,39.85c-1.534-1.033-3.583-1.833-6.15-2.399
			c-2.6-0.4-4.316-0.733-5.15-1c-1.367-0.367-1.85-1.017-1.45-1.95c0.466-1.1,2.183-2.883,5.15-5.35
			c1.867-1.633,3.683-3.167,5.45-4.6c3.467-2.833,5.567-4.316,6.3-4.45c6.9-1.267,14.95-1.833,24.15-1.7
			c10.033,0.1,16.783,1.067,20.25,2.9c1.8,0.934,2.717,2.6,2.75,5c0.033,2.2-0.667,4.633-2.1,7.3
			c-3.334,6.233-7.784,9.966-13.351,11.2c-5.633,1.267-12.033,1.417-19.2,0.45C60.833,44.25,55.283,42.45,51.45,39.85z"/>
		<path style="fill-rule:evenodd;clip-rule:evenodd;fill:#381A05;" d="M82.75,35.45l-10.9,4.35c-5.933-2.166-12.166-4.366-18.7-6.6
			c-2.466-0.833-5.517-2-9.15-3.5l-4.7-2.05l0.1-4.7l20.2-0.45l37.2,2l0.15,3.85C90.85,31.65,86.117,34.017,82.75,35.45z"/>
		<path style="fill-rule:evenodd;clip-rule:evenodd;fill:#240E03;" d="M82.75,35.45c-2.066,0.899-5.533,2.283-10.4,4.149
			c0.167-3.466,0.4-6.416,0.7-8.85c0.2-1.5-0.2-3-1.2-4.5c-0.267-1.167-0.583-2.217-0.949-3.15L96.8,24.5l0.15,3.85
			C90.85,31.65,86.117,34.017,82.75,35.45z"/>
		<path style="fill-rule:evenodd;clip-rule:evenodd;fill:#FF0000;" d="M61.35,13.85l4.9,1.65c3.733,1.233,6.717,2.184,8.95,2.85
			c6.633,2,13.833,4.05,21.6,6.15c-1.399,0.567-2.933,1.217-4.6,1.95c-3.3,1.4-5.566,2.45-6.8,3.15
			c-3.033,1.667-7.2,3.383-12.5,5.15c-6.533-1.7-12.5-3.533-17.9-5.5c-3.066-1.1-6.583-2.483-10.55-4.15l-5.05-2.15l2.3-1.1
			c2.066-0.933,4.433-1.933,7.1-3L61.35,13.85z"/>
		<g>
			<path style="fill-rule:evenodd;clip-rule:evenodd;fill:#381A05;" d="M72.65,22.05L71.4,22.5l0.199,0.25
				c-9,0-17.649-0.867-25.95-2.6l1.9-0.8c12.5,2.5,24.567,3.05,36.2,1.65l0.35-0.05L87.4,21.9c-4.934,0.534-9.733,0.817-14.4,0.85
				L72.65,22.05z"/>
			<path style="fill-rule:evenodd;clip-rule:evenodd;fill:#381A05;" d="M73,22.75c2.167,4.467,3.733,7.883,4.7,10.25l-1.65,0.65
				c-1-3.167-1.666-5.167-2-6c-0.566-1.566-1.383-3.2-2.45-4.9L71.4,22.5l1.25-0.45L73,22.75z"/>
		</g>
	</g>
	<g>
		
			<radialGradient id="SVGID_4_" cx="99.7803" cy="-22.2065" r="19.9456" gradientTransform="matrix(0.9587 0.2843 0.0532 -0.1196 10.2883 -23.1184)" gradientUnits="userSpaceOnUse">
			<stop  offset="0.349" style="stop-color:#000000;stop-opacity:0.4471"/>
			<stop  offset="1" style="stop-color:#000000;stop-opacity:0"/>
		</radialGradient>
		<path style="fill-rule:evenodd;clip-rule:evenodd;fill:url(#SVGID_4_);" d="M102.7,15.25c-3.667-0.367-6.15-0.55-7.45-0.55
			L85.2,1.2c0.1-0.067,0.167-0.217,0.2-0.45s0.116-0.4,0.25-0.5c0.233-0.2,0.767-0.267,1.6-0.2c0.7,0.034,1.566,0.267,2.6,0.7
			c0.634,0.3,2.25,0.833,4.851,1.6c1.566,0.5,3.899,1.283,7,2.35c0.833,0.267,2.25,0.65,4.25,1.15c1.8,0.467,3.2,0.867,4.2,1.2
			c4.5,1.333,6.866,2.017,7.1,2.05c0.5,0.133,1.367,0.3,2.6,0.5c1.067,0.267,1.834,0.65,2.301,1.15
			c0.533,0.633,1.083,1.417,1.649,2.35c0.3,0.5,0.45,0.983,0.45,1.45c0,0.6-0.233,0.983-0.7,1.15c-0.133,0.033-0.55,0.05-1.25,0.05
			c-1.733-0.033-3.033-0.05-3.899-0.05c-2.967,0.066-5.217,0.083-6.75,0.05C108.483,15.684,105.5,15.517,102.7,15.25z"/>
		
			<radialGradient id="SVGID_5_" cx="96.5498" cy="6.8999" r="25.3125" gradientTransform="matrix(1 0 0 -1 0 13.7998)" gradientUnits="userSpaceOnUse">
			<stop  offset="0.349" style="stop-color:#000000;stop-opacity:0.6941"/>
			<stop  offset="1" style="stop-color:#000000;stop-opacity:0"/>
		</radialGradient>
		<path style="fill-rule:evenodd;clip-rule:evenodd;fill:url(#SVGID_5_);" d="M64.9,17.4c2.633-1.467,5.166-2.867,7.6-4.2
			c4.833-2.6,7.65-3.95,8.45-4.05c6.933-0.9,14.8-0.9,23.6,0s14.75,2.283,17.851,4.15c3.066,1.833,0.883,5.233-6.551,10.2
			c-7.267,4.867-14.35,7.883-21.25,9.05c-6.566,1.1-11.767,1.267-15.6,0.5c-3.5-0.7-6.9-2.417-10.2-5.15
			c-1.267-1.066-3.184-1.883-5.75-2.45c-2.7-0.434-4.466-0.767-5.3-1c-1.333-0.4-1.583-1.05-0.75-1.95
			C57.967,21.467,60.6,19.767,64.9,17.4z"/>
		<path style="fill-rule:evenodd;clip-rule:evenodd;fill:#381A05;" d="M122.9,12.05l0.399,3c-5.8,3.6-10.366,6.2-13.7,7.8
			L98.45,27.8c-6.5-2.233-13.384-4.517-20.65-6.85C75,20.083,71.533,18.833,67.4,17.2L62.05,15l-0.1-4.1l22.25-0.7L122.9,12.05z"/>
		<path style="fill-rule:evenodd;clip-rule:evenodd;fill:#240E03;" d="M122.9,12.05l0.399,3c-5.8,3.6-10.366,6.2-13.7,7.8
			c-2.166,1.033-5.85,2.683-11.05,4.95c0.2-5.767,0.3-8.7,0.3-8.8c-0.066-3.367-0.566-6.083-1.5-8.15L122.9,12.05z"/>
		<path style="fill-rule:evenodd;clip-rule:evenodd;fill:#FF0000;" d="M100.3,5.75c7,2.1,14.533,4.2,22.601,6.3
			c-1.367,0.634-2.851,1.333-4.45,2.1c-3.2,1.567-5.4,2.717-6.601,3.45c-2.966,1.833-7.166,3.767-12.6,5.8
			c-7.1-1.733-13.65-3.633-19.65-5.7C76.167,16.5,72.2,15,67.7,13.2l-5.75-2.3l2.55-1.2c2.267-1.033,4.833-2.15,7.7-3.35L85.5,1
			l5.3,1.75C94.767,4.05,97.934,5.05,100.3,5.75z"/>
		<g>
			<path style="fill-rule:evenodd;clip-rule:evenodd;fill:#381A05;" d="M106.6,7.6l1.45,0.4C91.384,8.3,77.767,8.467,67.2,8.5l2.3-1
				L106.6,7.6z"/>
			<path style="fill-rule:evenodd;clip-rule:evenodd;fill:#381A05;" d="M117.5,10.65l0.55,0.1c-2.399,2.5-4.55,4.833-6.45,7
				c-0.767,0.467-1.466,0.85-2.1,1.15C112.066,15.767,114.733,13.017,117.5,10.65z"/>
		</g>
	</g>
</g>
</svg>
