<?xml version="1.0" encoding="iso-8859-1"?>
<!-- Generator: Adobe Illustrator 15.1.0, SVG Export Plug-In . SVG Version: 6.00 Build 0)  -->
<!DOCTYPE svg PUBLIC "-//W3C//DTD SVG 1.1//EN" "http://www.w3.org/Graphics/SVG/1.1/DTD/svg11.dtd">
<svg version="1.1" id="pod_x5F_opened" xmlns="http://www.w3.org/2000/svg" xmlns:xlink="http://www.w3.org/1999/xlink" x="0px"
	 y="0px" width="109.15px" height="46.45px" viewBox="0 0 109.15 46.45" style="enable-background:new 0 0 109.15 46.45;"
	 xml:space="preserve">
<symbol  id="FlashAICB_x2F_pod_x5F_opened_x2F__x3C_Clip_Group_0_x3E_" viewBox="0 -38.934 81.35 38.934">
	<g id="Layer_1_4_">
	</g>
	<g>
		<defs>
			<path id="SVGID_1_" d="M0-16c0-4,1.783-7.95,5.35-11.85C12.483-35.65,25.033-39.333,43-38.9c15.9,0.367,27.067,4.283,33.5,11.75
				c3.2,3.767,4.817,7.483,4.85,11.15H0z"/>
		</defs>
		<clipPath id="SVGID_2_">
			<use xlink:href="#SVGID_1_"  style="overflow:visible;"/>
		</clipPath>
		<g id="Layer_3_1_" style="clip-path:url(#SVGID_2_);">
			<g>
				<g>
					<path style="fill-rule:evenodd;clip-rule:evenodd;fill:#4B3A1D;" d="M75.4-19.6c0-5.233-3.4-9.35-10.2-12.35
						c-6.367-2.833-14.567-4.25-24.6-4.25c-10.067,0-18.283,1.417-24.65,4.25c-6.8,3-10.2,7.117-10.2,12.35
						c0,5.4,3.4,10.017,10.2,13.85C22.75-1.917,30.967,0,40.6,0c9.6,0,17.8-1.917,24.6-5.75C72-9.583,75.4-14.2,75.4-19.6z"/>
				</g>
				<g>
					<path style="fill-rule:evenodd;clip-rule:evenodd;fill:#574321;" d="M63.15-19.6c0-5.233-2.2-9.35-6.6-12.35
						c-4.133-2.833-9.45-4.25-15.95-4.25s-11.817,1.417-15.95,4.25c-4.4,3-6.6,7.117-6.6,12.35c0,5.4,2.2,10.017,6.6,13.85
						S34.367,0,40.6,0s11.55-1.917,15.95-5.75C60.95-9.583,63.15-14.2,63.15-19.6z"/>
				</g>
				<g>
					<path style="fill-rule:evenodd;clip-rule:evenodd;fill:#4B3A1D;" d="M49.3-19.6c0-5.233-0.85-9.35-2.55-12.35
						c-1.6-2.833-3.65-4.25-6.15-4.25s-4.55,1.417-6.15,4.25c-1.7,3-2.55,7.117-2.55,12.35c0,5.4,0.85,10.017,2.55,13.85
						C36.15-1.917,38.2,0,40.6,0s4.45-1.917,6.15-5.75S49.3-14.2,49.3-19.6z"/>
				</g>
			</g>
		</g>
	</g>
	<g id="Layer_4_1_">
	</g>
</symbol>
<symbol  id="FlashAICB_x2F_pod_x5F_opened_x2F__x3C_Compound_Path_x3E_" viewBox="0 -17.95 109.15 17.95">
	<g id="Layer_1_2_">
		<path style="fill-rule:evenodd;clip-rule:evenodd;fill:#FFFFFF;" d="M93.15-2.65c10.667-1.767,16-3.883,16-6.35
			s-5.333-4.567-16-6.3c-10.7-1.767-23.566-2.65-38.6-2.65c-15.033,0-27.883,0.883-38.55,2.65C5.333-13.567,0-11.467,0-9
			s5.333,4.583,16,6.35S39.517,0,54.55,0C69.617,0,82.483-0.883,93.15-2.65z M85.85-13.4C94.483-12.167,98.8-10.7,98.8-9
			c0,1.733-4.316,3.2-12.95,4.4c-8.633,1.233-19.067,1.85-31.3,1.85c-12.2,0-22.617-0.617-31.25-1.85
			C14.667-5.8,10.35-7.267,10.35-9c0-1.7,4.316-3.167,12.95-4.4c8.667-1.2,19.083-1.8,31.25-1.8C66.75-15.2,77.183-14.6,85.85-13.4z
			"/>
	</g>
</symbol>
<symbol  id="FlashAICB_x2F_pod_x5F_opened_x2F__x3C_Path_x3E_" viewBox="-0.032 -9.415 63.464 9.423">
	<g id="Layer_1_3_">
		
			<radialGradient id="SVGID_3_" cx="-423.7598" cy="-13656.0664" r="4.897" gradientTransform="matrix(0.2808 -0.9598 -6.4657 -0.0613 -88145.2344 -1248.0107)" gradientUnits="userSpaceOnUse">
			<stop  offset="0" style="stop-color:#40200C"/>
			<stop  offset="1" style="stop-color:#FFFFFF"/>
		</radialGradient>
		<path style="fill-rule:evenodd;clip-rule:evenodd;fill:url(#SVGID_3_);" d="M55.1-7.8c-5.934-1-13.267-1.534-22-1.6
			c-8.733-0.1-16.35,0.283-22.85,1.15C3.783-7.383,0.367-6.3,0-5s2.417,2.433,8.35,3.4c5.933,1,13.267,1.533,22,1.6
			c8.767,0.067,16.367-0.317,22.8-1.15C59.617-2.017,63.033-3.1,63.4-4.4C63.767-5.7,61-6.833,55.1-7.8z"/>
	</g>
</symbol>
<g>
	
		<use xlink:href="#FlashAICB_x2F_pod_x5F_opened_x2F__x3C_Compound_Path_x3E_"  width="109.15" height="17.95" y="-17.95" transform="matrix(1 0 0 -1 0 28.5)" style="overflow:visible;opacity:0.1484;enable-background:new    ;"/>
	<path style="fill-rule:evenodd;clip-rule:evenodd;fill:#6E7121;" d="M55.4,29c10.366,0,19.25,0.616,26.649,1.85
		c7.334,1.2,11,2.65,11,4.351s-3.666,3.166-11,4.399C74.65,40.8,65.767,41.4,55.4,41.4C45.033,41.4,36.167,40.8,28.8,39.6
		C21.433,38.366,17.75,36.9,17.75,35.2s3.683-3.15,11.05-4.351C36.167,29.616,45.033,29,55.4,29z"/>
	
		<use xlink:href="#FlashAICB_x2F_pod_x5F_opened_x2F__x3C_Path_x3E_"  width="63.464" height="9.423" x="-0.032" y="-9.415" transform="matrix(1 0 0 -1 25.1001 30.9502)" style="overflow:visible;opacity:0.6992;enable-background:new    ;"/>
	<g>
		
			<use xlink:href="#FlashAICB_x2F_pod_x5F_opened_x2F__x3C_Clip_Group_0_x3E_"  width="81.35" height="38.934" y="-38.934" transform="matrix(1 0 0 -1 14.3999 0)" style="overflow:visible;"/>
		<g>
			<path style="fill-rule:evenodd;clip-rule:evenodd;fill:#383525;" d="M54.8,11.75c9.7,0,17.983,0.434,24.851,1.3
				c6.866,0.867,10.3,1.917,10.3,3.15c0,1.2-3.434,2.133-10.3,2.8c-6.434,0.667-14.717,1-24.851,1c-10.133,0-18.417-0.333-24.85-1
				c-6.867-0.667-10.3-1.6-10.3-2.8c0-1.233,3.434-2.284,10.3-3.15C36.817,12.184,45.1,11.75,54.8,11.75z"/>
		</g>
		<g>
			<path style="fill-rule:evenodd;clip-rule:evenodd;fill:#0F140B;" d="M54.8,12.1c8.267,0,15.351,0.267,21.25,0.8
				c5.867,0.534,8.8,1.184,8.8,1.95s-2.933,1.367-8.8,1.8c-5.533,0.4-12.616,0.6-21.25,0.6c-8.633,0-15.716-0.2-21.25-0.6
				c-5.867-0.433-8.8-1.033-8.8-1.8s2.933-1.417,8.8-1.95C39.45,12.367,46.533,12.1,54.8,12.1z"/>
		</g>
	</g>
</g>
</svg>
