<?xml version="1.0" encoding="iso-8859-1"?>
<!-- Generator: Adobe Illustrator 15.1.0, SVG Export Plug-In . SVG Version: 6.00 Build 0)  -->
<!DOCTYPE svg PUBLIC "-//W3C//DTD SVG 1.1//EN" "http://www.w3.org/Graphics/SVG/1.1/DTD/svg11.dtd">
<svg version="1.1" id="rolled_up_paper" xmlns="http://www.w3.org/2000/svg" xmlns:xlink="http://www.w3.org/1999/xlink" x="0px"
	 y="0px" width="102.75px" height="39.85px" viewBox="0 0 102.75 39.85" style="enable-background:new 0 0 102.75 39.85;"
	 xml:space="preserve">
<symbol  id="rolls" viewBox="0.001 -39.85 102.764 39.85">
	<g id="Layer_1_2_">
		<g>
			<path style="fill-rule:evenodd;clip-rule:evenodd;fill:#FDEAAE;" d="M78.75-21.5L6.5-35.9c-1.267,1.433-2.483,3.133-3.65,5.1
				c-2.333,3.9-3.233,7.117-2.7,9.65s1.5,4.417,2.9,5.65l2,1.1l71.85,3.55l2.3-2.45C80.433-15.567,80.283-18.3,78.75-21.5z"/>
			<path style="fill-rule:evenodd;clip-rule:evenodd;fill:#E7C77C;" d="M4.3-16.7l-1.25-2.25c-0.8-1.767-1.183-3.267-1.15-4.5
				c0.033-1.2,0.5-2.783,1.4-4.75c0.8-1.833,1.55-3.083,2.25-3.75c0.633-0.6,1.25-0.383,1.85,0.65c0.533,0.966,0.783,2.05,0.75,3.25
				c0,1.233-0.267,2.4-0.8,3.5c-0.6,1.267-1.333,1.833-2.2,1.7c-0.8-0.133-1-1.05-0.6-2.75c0.2-0.867,0.467-1.717,0.8-2.55
				C5.317-27.583,5.283-27,5.25-26.4c-0.033,1.2,0.05,1.9,0.25,2.1c0.233,0.267,0.55,0.066,0.95-0.6c0.433-0.667,0.75-1.5,0.95-2.5
				c0.167-0.867,0.067-1.583-0.3-2.15C6.9-29.917,6.483-30.4,5.85-31c-0.434-0.467-1,0.3-1.7,2.3c-0.667,1.867-1.05,3.534-1.15,5
				c-0.067,1.2,0.183,2.184,0.75,2.95c0.467,0.633,1.083,1.033,1.85,1.2c0.7,0.167,1.483-0.534,2.35-2.1
				c0.867-1.633,1.5-3.65,1.9-6.05c0.333-2.1,0.066-3.683-0.8-4.75c-0.267-0.267-1.033-0.767-2.3-1.5c-1.033-0.667-2.7,2.05-5,8.15
				c-0.867,2.233-0.7,4.417,0.5,6.55L4.3-16.7z"/>
			<polygon style="fill-rule:evenodd;clip-rule:evenodd;fill:#E7C77C;" points="78.15,-12.15 78.8,-13.3 3.35,-17.8 4.3,-16.7 			
				"/>
			<polygon style="fill-rule:evenodd;clip-rule:evenodd;fill:#E7C77C;" points="11.55,-22.05 8.55,-16.8 11.45,-16.9 12.15,-19.15 
				10.85,-18.2 			"/>
			<polygon style="fill-rule:evenodd;clip-rule:evenodd;fill:#E7C77C;" points="18.2,-19.7 16.2,-15.8 17.55,-16.1 			"/>
			<polygon style="fill-rule:evenodd;clip-rule:evenodd;fill:#E7C77C;" points="21.95,-16.05 24.05,-15.85 25.25,-22.8 23.3,-17.3 
				23.25,-20.8 			"/>
			<polygon style="fill-rule:evenodd;clip-rule:evenodd;fill:#E7C77C;" points="27.55,-15.9 28.35,-15.9 28.45,-19.15 			"/>
			<path style="fill-rule:evenodd;clip-rule:evenodd;fill:#E7C77C;" d="M30.6-15.5l1.85,0.25l0.1-3.85l-1.05,3.7l0.05-5.5L30.6-15.5
				z M32.475-15.25l1.175,0.15l0.25-4.35L32.475-15.25z"/>
			<polygon style="fill-rule:evenodd;clip-rule:evenodd;fill:#E7C77C;" points="35.45,-14.9 36.25,-14.9 35.95,-16.8 			"/>
			<polygon style="fill-rule:evenodd;clip-rule:evenodd;fill:#E7C77C;" points="42.7,-14.65 43.85,-14.25 43.35,-18.9 			"/>
			<polygon style="fill-rule:evenodd;clip-rule:evenodd;fill:#E7C77C;" points="47.45,-14.2 48.9,-13.75 49.15,-17.85 48.3,-15.4 
				48,-17.3 			"/>
			<polygon style="fill-rule:evenodd;clip-rule:evenodd;fill:#E7C77C;" points="51.6,-13.5 52.5,-13.7 52.2,-16.8 			"/>
			<polygon style="fill-rule:evenodd;clip-rule:evenodd;fill:#E7C77C;" points="54.15,-13.35 55.45,-13.1 53.95,-17.95 			"/>
		</g>
		<g>
			<path style="fill-rule:evenodd;clip-rule:evenodd;fill:#E9DCB1;" d="M92.25-15.5l-73.4-6.05c-1.1,1.566-2.117,3.4-3.05,5.5
				c-1.833,4.133-2.35,7.417-1.55,9.85c0.8,2.467,1.983,4.233,3.55,5.3c0.8,0.533,1.5,0.833,2.1,0.9l71.75-4.7l2.05-2.7
				C94.667-9.767,94.183-12.467,92.25-15.5z"/>
			<path style="fill-rule:evenodd;clip-rule:evenodd;fill:#D3BB7F;" d="M20.25-17.05c0.667,0.9,1.05,1.933,1.15,3.1
				c0.133,1.233,0,2.434-0.4,3.6c-0.467,1.333-1.133,1.983-2,1.95c-0.8-0.033-1.1-0.934-0.9-2.7c0.1-0.867,0.283-1.733,0.55-2.6
				c0,0.567,0.033,1.15,0.1,1.75c0.1,1.167,0.25,1.85,0.45,2.05c0.267,0.233,0.566,0,0.9-0.7c0.333-0.733,0.55-1.6,0.65-2.6
				c0.067-0.867-0.117-1.566-0.55-2.1c-0.6-0.567-1.067-1-1.4-1.3c-0.466-0.433-0.95,0.383-1.45,2.45
				c-0.434,1.967-0.617,3.667-0.55,5.1c0.067,1.2,0.417,2.15,1.05,2.85c0.533,0.567,1.2,0.9,2,1c0.733,0.1,1.433-0.683,2.1-2.35
				c0.667-1.7,1.05-3.767,1.15-6.2c0.1-2.167-0.35-3.717-1.35-4.65c-0.2-0.2-1-0.617-2.4-1.25c-1.133-0.5-2.483,2.4-4.05,8.7
				c-0.6,2.333-0.183,4.483,1.25,6.45c0.733,1,1.517,1.767,2.35,2.3c-0.5-0.566-1-1.267-1.5-2.1c-1.033-1.667-1.6-3.117-1.7-4.35
				c-0.1-1.2,0.183-2.817,0.85-4.85c0.6-1.933,1.217-3.267,1.85-4C18.933-18.167,19.55-18.017,20.25-17.05z"/>
			<polygon style="fill-rule:evenodd;clip-rule:evenodd;fill:#D3BB7F;" points="92.8,-6.1 93.25,-7.35 17.8,-3.2 18.9,-2.2 			"/>
			<polygon style="fill-rule:evenodd;clip-rule:evenodd;fill:#D3BB7F;" points="25.45,-8.35 23.05,-2.8 25.95,-3.25 26.4,-5.55 
				25.25,-4.45 			"/>
			<polygon style="fill-rule:evenodd;clip-rule:evenodd;fill:#D3BB7F;" points="32.35,-6.75 30.85,-2.65 32.1,-3.15 			"/>
			<polygon style="fill-rule:evenodd;clip-rule:evenodd;fill:#D3BB7F;" points="36.5,-3.6 38.55,-3.6 39,-10.7 37.65,-5 37.2,-8.45 
							"/>
			<polygon style="fill-rule:evenodd;clip-rule:evenodd;fill:#D3BB7F;" points="42.05,-4.05 42.85,-4.15 42.6,-7.4 			"/>
			<polygon style="fill-rule:evenodd;clip-rule:evenodd;fill:#D3BB7F;" points="47.05,-3.975 48.2,-3.95 47.95,-8.35 47.05,-3.975 
				46.65,-7.85 46.05,-4 45.45,-9.5 45.15,-4 			"/>
			<polygon style="fill-rule:evenodd;clip-rule:evenodd;fill:#D3BB7F;" points="50,-4 50.8,-4.1 50.3,-5.95 			"/>
			<polygon style="fill-rule:evenodd;clip-rule:evenodd;fill:#D3BB7F;" points="57.25,-4.6 58.45,-4.3 57.4,-8.85 			"/>
			<polygon style="fill-rule:evenodd;clip-rule:evenodd;fill:#D3BB7F;" points="62.05,-4.65 63.55,-4.4 63.3,-8.5 62.7,-5.95 
				62.2,-7.8 			"/>
			<polygon style="fill-rule:evenodd;clip-rule:evenodd;fill:#D3BB7F;" points="66.25,-4.45 67.1,-4.75 66.5,-7.8 			"/>
			<polygon style="fill-rule:evenodd;clip-rule:evenodd;fill:#D3BB7F;" points="68.8,-4.6 70.1,-4.5 68.05,-9.1 			"/>
		</g>
		<g>
			<path style="fill-rule:evenodd;clip-rule:evenodd;fill:#FDEAAE;" d="M101.45-25.45l-72.2-14.4c-1.267,1.434-2.483,3.133-3.65,5.1
				c-2.333,3.867-3.233,7.067-2.7,9.6s1.5,4.417,2.9,5.65c0.733,0.633,1.4,1.017,2,1.15l71.85,3.5l2.3-2.4
				C103.183-19.517,103.017-22.25,101.45-25.45z"/>
			<path style="fill-rule:evenodd;clip-rule:evenodd;fill:#E7C77C;" d="M27.05-20.65L25.8-22.9c-0.8-1.767-1.183-3.267-1.15-4.5
				c0.033-1.2,0.5-2.783,1.4-4.75c0.8-1.833,1.55-3.083,2.25-3.75c0.633-0.6,1.25-0.383,1.85,0.65c0.533,0.967,0.783,2.05,0.75,3.25
				c0,1.2-0.267,2.367-0.8,3.5c-0.6,1.233-1.333,1.8-2.2,1.7c-0.8-0.133-1-1.05-0.6-2.75c0.2-0.867,0.467-1.717,0.8-2.55
				c-0.033,0.533-0.067,1.1-0.1,1.7c-0.033,1.2,0.05,1.9,0.25,2.1c0.233,0.267,0.55,0.083,0.95-0.55c0.433-0.667,0.75-1.5,0.95-2.5
				c0.167-0.867,0.067-1.6-0.3-2.2c-0.033-0.034-0.45-0.5-1.25-1.4c-0.4-0.5-0.967,0.25-1.7,2.25c-0.667,1.867-1.05,3.534-1.15,5
				c-0.067,1.2,0.183,2.184,0.75,2.95c0.467,0.633,1.083,1.05,1.85,1.25c0.7,0.167,1.467-0.533,2.3-2.1
				c0.9-1.633,1.55-3.65,1.95-6.05c0.333-2.133,0.066-3.717-0.8-4.75c-0.2-0.2-0.966-0.717-2.3-1.55c-1.033-0.6-2.7,2.133-5,8.2
				c-0.867,2.233-0.7,4.417,0.5,6.55C25.6-22.133,26.283-21.283,27.05-20.65z"/>
			<polygon style="fill-rule:evenodd;clip-rule:evenodd;fill:#E7C77C;" points="100.9,-16.1 101.55,-17.25 26.05,-21.75 
				27.05,-20.65 			"/>
			<polygon style="fill-rule:evenodd;clip-rule:evenodd;fill:#E7C77C;" points="34.3,-26 31.25,-20.8 34.2,-20.9 34.9,-23.15 
				33.6,-22.15 			"/>
			<polygon style="fill-rule:evenodd;clip-rule:evenodd;fill:#E7C77C;" points="40.3,-20.1 40.95,-23.65 38.95,-19.75 			"/>
			<polygon style="fill-rule:evenodd;clip-rule:evenodd;fill:#E7C77C;" points="44.7,-20.05 46.8,-19.8 48,-26.8 46,-21.3 
				46,-24.75 			"/>
			<polygon style="fill-rule:evenodd;clip-rule:evenodd;fill:#E7C77C;" points="50.3,-19.85 51.1,-19.85 51.2,-23.1 			"/>
			<path style="fill-rule:evenodd;clip-rule:evenodd;fill:#E7C77C;" d="M53.35-19.45l1.85,0.25l0.1-3.9l-1.05,3.75l0.05-5.5
				L53.35-19.45z M56.4-19.05l0.25-4.35l-1.425,4.2L56.4-19.05z"/>
			<polygon style="fill-rule:evenodd;clip-rule:evenodd;fill:#E7C77C;" points="58.2,-18.9 59,-18.9 58.65,-20.8 			"/>
			<polygon style="fill-rule:evenodd;clip-rule:evenodd;fill:#E7C77C;" points="65.45,-18.65 66.6,-18.25 66.1,-22.85 			"/>
			<polygon style="fill-rule:evenodd;clip-rule:evenodd;fill:#E7C77C;" points="70.2,-18.15 71.65,-17.75 71.9,-21.8 71.05,-19.4 
				70.75,-21.3 			"/>
			<polygon style="fill-rule:evenodd;clip-rule:evenodd;fill:#E7C77C;" points="74.35,-17.45 75.25,-17.65 74.95,-20.75 			"/>
			<polygon style="fill-rule:evenodd;clip-rule:evenodd;fill:#E7C77C;" points="76.9,-17.3 78.2,-17.1 76.7,-21.9 			"/>
		</g>
	</g>
</symbol>
<use xlink:href="#rolls"  width="102.764" height="39.85" x="0.001" y="-39.85" transform="matrix(1 0 0 -1 0 0)" style="overflow:visible;"/>
</svg>
