<?xml version="1.0" encoding="iso-8859-1"?>
<!-- Generator: Adobe Illustrator 15.1.0, SVG Export Plug-In . SVG Version: 6.00 Build 0)  -->
<!DOCTYPE svg PUBLIC "-//W3C//DTD SVG 1.1//EN" "http://www.w3.org/Graphics/SVG/1.1/DTD/svg11.dtd">
<svg version="1.1" id="Layer_47" xmlns="http://www.w3.org/2000/svg" xmlns:xlink="http://www.w3.org/1999/xlink" x="0px" y="0px"
	 width="176.1px" height="630.5px" viewBox="0 0 176.1 630.5" style="enable-background:new 0 0 176.1 630.5;" xml:space="preserve"
	>
<radialGradient id="SVGID_1_" cx="-267.4233" cy="86.7471" r="261.6884" fx="-50.889" fy="86.7471" gradientTransform="matrix(0.0026 -1 -0.2793 -0.0093 110.9716 3.681)" gradientUnits="userSpaceOnUse">
	<stop  offset="0" style="stop-color:#F4D752;stop-opacity:0.4275"/>
	<stop  offset="1" style="stop-color:#F4D752;stop-opacity:0"/>
</radialGradient>
<path style="fill-rule:evenodd;clip-rule:evenodd;fill:url(#SVGID_1_);" d="M88.05,0c11.934,0,23.367,8.25,34.3,24.75
	C132.883,40.717,142.2,63.233,150.3,92.3c8.134,29.1,14.434,62.5,18.9,100.2c4.6,39.066,6.899,79.983,6.899,122.75
	s-2.3,83.666-6.899,122.7c-4.467,37.733-10.767,71.133-18.9,100.2c-8.1,29.1-17.417,51.633-27.95,67.6
	c-10.933,16.5-22.366,24.75-34.3,24.75c-11.933,0-23.366-8.25-34.3-24.75c-10.533-15.967-19.85-38.5-27.95-67.6
	c-8.133-29.101-14.433-62.5-18.9-100.2C2.3,398.916,0,358.017,0,315.25s2.3-83.684,6.9-122.75c4.467-37.7,10.767-71.1,18.9-100.2
	c8.1-29.066,17.417-51.583,27.95-67.55C64.684,8.25,76.117,0,88.05,0z"/>
</svg>
