<?xml version="1.0" encoding="iso-8859-1"?>
<!-- Generator: Adobe Illustrator 15.1.0, SVG Export Plug-In . SVG Version: 6.00 Build 0)  -->
<!DOCTYPE svg PUBLIC "-//W3C//DTD SVG 1.1//EN" "http://www.w3.org/Graphics/SVG/1.1/DTD/svg11.dtd">
<svg version="1.1" id="Layer_1" xmlns="http://www.w3.org/2000/svg" xmlns:xlink="http://www.w3.org/1999/xlink" x="0px" y="0px"
	 width="568.05px" height="450.7px" viewBox="0 0 568.05 450.7" style="enable-background:new 0 0 568.05 450.7;"
	 xml:space="preserve">
<path style="fill-rule:evenodd;clip-rule:evenodd;fill:#2A2417;" d="M485.95,352.7c11.7-25.867,15.933-61.434,12.7-106.7
	c-3.268-45.567-11.334-81.017-24.2-106.35c-11.5-22.6-27.65-38.517-48.45-47.75c-16.5-7.367-38.867-11.417-67.1-12.15
	c-8.967-0.233-21.917-0.2-38.851,0.1c-19.167,0.367-32.967,0.517-41.4,0.45c-24.867-0.333-42.733-0.533-53.6-0.6
	c-18.333-0.1-33.116,0.167-44.35,0.8c-28.267,1.633-49.567,6.733-63.9,15.3c-16.3,9.733-28.167,26.167-35.6,49.3
	c-7.467,23.233-11.8,57.316-13,102.25c-1.134,42.934,3.85,76.884,14.95,101.851c9.9,22.267,25.25,38.434,46.05,48.5
	c16.9,8.2,39.616,13.133,68.15,14.8c10.433,0.6,23.617,0.866,39.55,0.8c9.1-0.033,23.017-0.116,41.75-0.25
	c6.534,0,20.717,0.217,42.55,0.65c17.433,0.366,31.267,0.399,41.5,0.1c30.967-0.833,55.483-5.05,73.55-12.649
	C459.117,391.55,475.684,375.4,485.95,352.7z M547.4,224.3c3.967,56.867-1.217,101.533-15.551,134
	c-12.6,28.533-32.933,48.834-61,60.9c-22.133,9.533-52.183,14.833-90.149,15.899c-12.634,0.367-29.617,0.317-50.95-0.149
	c-26.833-0.533-44.217-0.8-52.15-0.8c-23,0.199-40.067,0.316-51.2,0.35c-19.5,0.066-35.683-0.283-48.55-1.05
	c-34.967-2.066-62.817-8.25-83.55-18.55c-25.5-12.634-44.316-32.95-56.45-60.95c-13.6-31.334-19.7-73.967-18.3-127.9
	c1.467-56.466,6.767-99.283,15.9-128.45c9.133-29.067,23.683-49.717,43.65-61.95c17.6-10.767,43.716-17.167,78.35-19.2
	c13.8-0.8,31.933-1.133,54.4-1c13.333,0.066,35.25,0.316,65.75,0.75c10.267,0.1,27.183-0.083,50.75-0.55
	c20.801-0.4,36.684-0.45,47.65-0.15c34.6,0.933,62.033,6.017,82.3,15.25c25.5,11.633,45.3,31.633,59.4,60
	C533.5,122.55,543.4,167.067,547.4,224.3z"/>
</svg>
