<?xml version="1.0" encoding="iso-8859-1"?>
<!-- Generator: Adobe Illustrator 15.1.0, SVG Export Plug-In . SVG Version: 6.00 Build 0)  -->
<!DOCTYPE svg PUBLIC "-//W3C//DTD SVG 1.1//EN" "http://www.w3.org/Graphics/SVG/1.1/DTD/svg11.dtd">
<svg version="1.1" id="Layer_1" xmlns="http://www.w3.org/2000/svg" xmlns:xlink="http://www.w3.org/1999/xlink" x="0px" y="0px"
	 width="1487.85px" height="572.65px" viewBox="0 0 1487.85 572.65" style="enable-background:new 0 0 1487.85 572.65;"
	 xml:space="preserve">
<path style="fill-rule:evenodd;clip-rule:evenodd;fill:#14110B;" d="M1400.8,107.5c44.4,45.333,72.217,108.783,83.45,190.35
	c11.134,80.834-3.45,142.4-43.75,184.7c-18.5,19.4-42.7,35.25-72.6,47.55c-27.467,11.233-60.417,19.733-98.851,25.5
	c-33.899,5.101-73.667,8.267-119.3,9.5c-36.5,1-81.2,0.817-134.1-0.55c-63.067-2.066-110.801-3.633-143.2-4.7
	c-58.7-1.933-107.55-2.899-146.55-2.899c-37.133,0-85.1,0.733-143.9,2.2c-71.233,1.767-116.7,2.767-136.4,3
	c-48.967,0.633-90.65,0.166-125.05-1.4c-41.9-1.967-78.517-5.717-109.85-11.25c-72.034-12.8-124.917-37.184-158.65-73.15
	C13.783,435.583-3.383,376.9,0.55,300.3c2.067-40.7,6.684-75.866,13.85-105.5c7.333-30.267,17.633-56.116,30.9-77.55
	C58.533,95.816,75.317,77.867,95.65,63.4c19.8-14.133,43.9-25.6,72.3-34.4c26.867-8.367,59.1-14.767,96.7-19.2
	c33.967-4,75.167-6.733,123.6-8.2c38.767-1.133,89.733-1.6,152.9-1.4c37.434,0.1,99.017,0.45,184.75,1.05
	c28.967,0.133,76.534-0.117,142.7-0.75c58.367-0.567,102.967-0.65,133.801-0.25c46.933,0.667,87.783,2.483,122.55,5.45
	c40.866,3.533,77.149,8.966,108.85,16.3C1305.5,38.567,1361.167,67.067,1400.8,107.5z M1421.5,301.9
	c-10.366-67.067-36.017-119.234-76.95-156.5c-36.533-33.233-87.883-56.667-154.05-70.3c-52.467-10.833-123.583-16.783-213.35-17.85
	c-28.334-0.367-69.45-0.317-123.351,0.15c-61.033,0.533-104.899,0.75-131.6,0.65c-79.067-0.5-135.85-0.8-170.35-0.9
	c-58.2-0.133-105.2,0.267-141,1.2c-44.667,1.2-82.667,3.45-114,6.75c-34.633,3.633-64.35,8.883-89.15,15.75
	c-26.167,7.233-48.383,16.667-66.65,28.3c-18.733,11.9-34.216,26.65-46.45,44.25c-12.233,17.633-21.717,38.883-28.45,63.75
	c-6.6,24.367-10.867,53.284-12.8,86.75c-3.6,63.166,12.233,113.133,47.5,149.899c31.5,32.8,80.267,56.601,146.3,71.4
	c53.733,12.066,125.934,19.3,216.6,21.7c33.333,0.899,75.25,1.316,125.75,1.25c28.867-0.034,73.1-0.167,132.7-0.4
	c20.366,0,65.417,0.316,135.149,0.95c55.467,0.533,99.467,0.583,132,0.149c98.4-1.233,176.301-7.433,233.7-18.6
	c72.733-14.167,125.434-37.95,158.101-71.35C1418.316,420.866,1431.767,368.533,1421.5,301.9z"/>
<path style="fill-rule:evenodd;clip-rule:evenodd;fill:#2A2417;" d="M1358.4,104.5c42.366,43.2,68.899,103.684,79.6,181.45
	c10.634,77.267-3.283,137.967-41.75,182.1c-33.733,38.733-88.2,66.3-163.4,82.7c-59.366,12.967-139.916,20.167-241.649,21.6
	c-33.667,0.467-79.167,0.4-136.5-0.199c-71.833-0.733-118.417-1.101-139.75-1.101c-61.634,0.267-107.367,0.417-137.2,0.45
	c-52.3,0.1-95.65-0.366-130.05-1.4c-93.767-2.833-168.434-11.233-224-25.199c-68.3-17.167-118.733-44.767-151.3-82.801
	c-36.466-42.6-52.833-100.533-49.1-173.8c2-38.833,6.4-72.366,13.2-100.6c6.967-28.833,16.783-53.467,29.45-73.9
	c12.633-20.433,28.633-37.55,48-51.35c18.9-13.5,41.883-24.434,68.95-32.8c25.633-7.967,56.367-14.066,92.2-18.3
	c32.4-3.833,71.683-6.434,117.85-7.8c36.933-1.1,85.55-1.566,145.85-1.4c35.667,0.133,94.384,0.483,176.15,1.05
	C742.517,3.333,787.867,3.083,851,2.45c55.7-0.534,98.233-0.6,127.6-0.2c44.768,0.6,83.7,2.333,116.801,5.2
	c38.967,3.367,73.566,8.533,103.8,15.5C1267.566,38.75,1320.633,65.933,1358.4,104.5z M1378.15,289.85
	c-9.867-63.933-34.334-113.666-73.4-149.2c-34.8-31.7-83.733-54.05-146.8-67.05c-50.067-10.333-117.884-16.017-203.45-17.05
	c-27.133-0.333-66.35-0.267-117.65,0.2c-58.366,0.5-100.183,0.7-125.45,0.6c-75.367-0.467-129.517-0.75-162.45-0.85
	c-55.533-0.167-100.35,0.2-134.45,1.1c-42.566,1.133-78.783,3.283-108.65,6.45c-33.033,3.467-61.367,8.467-85,15
	c-24.967,6.9-46.15,15.884-63.55,26.95c-17.866,11.367-32.633,25.45-44.3,42.25s-20.7,37.066-27.1,60.8
	c-6.3,23.2-10.367,50.767-12.2,82.7C70.233,351.983,85.333,399.634,119,434.7c30,31.267,76.483,53.95,139.45,68.05
	c51.233,11.5,120.083,18.4,206.55,20.7c31.667,0.866,71.633,1.25,119.9,1.149c27.5-0.033,69.667-0.149,126.5-0.35
	c19.434,0,62.383,0.3,128.85,0.9c52.9,0.5,94.867,0.55,125.9,0.149c93.833-1.166,168.1-7.083,222.8-17.75
	c69.333-13.467,119.566-36.133,150.7-68C1375.116,403.283,1387.95,353.384,1378.15,289.85z"/>
</svg>
