<?xml version="1.0" encoding="iso-8859-1"?>
<!-- Generator: Adobe Illustrator 15.1.0, SVG Export Plug-In . SVG Version: 6.00 Build 0)  -->
<!DOCTYPE svg PUBLIC "-//W3C//DTD SVG 1.1//EN" "http://www.w3.org/Graphics/SVG/1.1/DTD/svg11.dtd">
<svg version="1.1" id="Layer_1" xmlns="http://www.w3.org/2000/svg" xmlns:xlink="http://www.w3.org/1999/xlink" x="0px" y="0px"
	 width="1083.15px" height="576.65px" viewBox="0 0 1083.15 576.65" style="enable-background:new 0 0 1083.15 576.65;"
	 xml:space="preserve">
<path style="fill-rule:evenodd;clip-rule:evenodd;fill:#14110B;" d="M301.8,33.85c-32.667,1.233-60.45,3.55-83.35,6.95
	c-25.333,3.767-47.05,9.184-65.15,16.25c-19.133,7.467-35.383,17.2-48.75,29.2C90.85,98.55,79.533,113.8,70.6,132
	c-17.333,35.3-27.383,87.1-30.15,155.4c-2.633,65.233,8.933,116.817,34.7,154.75c23.034,33.866,58.684,58.449,106.95,73.75
	c39.3,12.433,92.083,19.899,158.35,22.399c24.333,0.9,54.983,1.316,91.95,1.25c21.1-0.033,53.434-0.166,97-0.399
	c15,0,47.933,0.333,98.8,1c40.5,0.533,72.667,0.583,96.5,0.149c71.899-1.3,128.833-7.717,170.8-19.25
	c53.167-14.6,91.684-39.149,115.55-73.649c27.167-39.268,37-93.301,29.5-162.101c-7.566-69.233-26.316-123.083-56.25-161.55
	c-26.7-34.333-64.217-58.533-112.55-72.6C833.383,39.983,781.4,33.833,715.8,32.7c-20.7-0.367-50.767-0.3-90.2,0.2
	c-44.633,0.534-76.699,0.75-96.2,0.65c-57.8-0.5-99.316-0.8-124.55-0.9C362.283,32.483,327.934,32.883,301.8,33.85z M192.6,12.2
	c24.5-3.367,54.5-5.517,90-6.45c26.933-0.733,64.05-0.85,111.35-0.35c27.233,0.3,72.066,0.784,134.5,1.45
	c24.7,0.133,59.333-0.25,103.899-1.15c45.134-0.934,77.601-1.35,97.4-1.25c34.434,0.133,64.167,1.4,89.2,3.8
	c29.833,2.867,56.233,7.566,79.2,14.1c52.3,14.867,92.833,41.433,121.6,79.7c32.333,43.067,52.583,104.1,60.75,183.1
	c8.133,78.567-2.483,140.267-31.85,185.1c-25.768,39.4-67.367,67.434-124.801,84.1c-45.3,13.167-106.783,20.483-184.449,21.95
	c-25.733,0.5-60.483,0.45-104.25-0.149c-55.033-0.767-90.601-1.15-106.7-1.15c-47.067,0.267-81.983,0.417-104.75,0.45
	c-39.967,0.1-73.067-0.384-99.3-1.45c-71.566-2.833-128.566-11.366-171-25.6c-52.133-17.434-90.633-45.483-115.5-84.15
	C10.033,420.917-2.467,362,0.4,287.5c2.967-77.867,13.8-136.533,32.5-176c9.633-20.3,21.85-37.217,36.65-50.75
	c14.4-13.133,31.95-23.684,52.65-31.65C141.7,21.6,165.167,15.967,192.6,12.2z"/>
<path style="fill-rule:evenodd;clip-rule:evenodd;fill:#2A2417;" d="M317.5,35.8c-30.5,1.167-56.45,3.384-77.85,6.65
	c-23.667,3.6-43.966,8.783-60.9,15.55c-17.867,7.167-33.05,16.483-45.55,27.95c-12.8,11.8-23.367,26.4-31.7,43.8
	C85.3,163.517,75.9,213.1,73.3,278.5c-2.466,62.467,8.35,111.85,32.45,148.15c21.533,32.433,54.85,55.966,99.95,70.6
	c36.7,11.9,86.017,19.05,147.95,21.45c22.7,0.866,51.333,1.267,85.9,1.2c19.733-0.034,49.95-0.167,90.65-0.4
	c14.033,0,44.8,0.316,92.3,0.95c37.867,0.5,67.934,0.55,90.2,0.149c67.2-1.233,120.399-7.366,159.6-18.399
	c49.667-13.967,85.65-37.467,107.95-70.5c25.434-37.601,34.633-89.333,27.6-155.2c-7.066-66.267-24.6-117.816-52.6-154.65
	c-24.934-32.867-59.983-56.034-105.15-69.5c-35.866-10.7-84.449-16.583-145.75-17.65c-19.399-0.333-47.482-0.283-84.25,0.15
	c-41.6,0.533-71.566,0.75-89.899,0.65c-54-0.5-92.783-0.8-116.35-0.9C374.05,34.467,341.934,34.867,317.5,35.8z M529.3,1.15
	c19.7,0.133,52.05-0.1,97.05-0.7c39.768-0.533,70.117-0.6,91.051-0.2c31.933,0.566,59.717,2.25,83.35,5.05
	c27.8,3.267,52.467,8.3,74,15.1c48.8,15.367,86.684,41.8,113.65,79.3c30.199,42.066,49.116,100.95,56.75,176.65
	c7.6,75.2-2.317,134.267-29.75,177.2c-24.101,37.733-62.983,64.584-116.65,80.55c-42.333,12.601-99.783,19.601-172.35,21
	c-24.033,0.467-56.5,0.417-97.4-0.149c-51.5-0.733-84.733-1.101-99.7-1.101c-43.966,0.233-76.6,0.384-97.9,0.45
	c-37.333,0.066-68.25-0.399-92.75-1.399c-66.9-2.733-120.167-10.9-159.8-24.5C130.117,511.667,94.133,484.8,70.9,447.8
	C44.867,406.3,33.184,349.9,35.85,278.6c2.8-74.667,12.95-131.284,30.45-169.85c9-19.9,20.417-36.566,34.25-50
	c13.467-13.1,29.85-23.733,49.15-31.9c18.3-7.733,40.233-13.667,65.8-17.8c23.1-3.7,51.133-6.233,84.1-7.6
	c26.4-1.067,61.067-1.5,104-1.3C429.066,0.25,470.967,0.583,529.3,1.15z"/>
</svg>
