<?xml version="1.0" encoding="iso-8859-1"?>
<!-- Generator: Adobe Illustrator 15.1.0, SVG Export Plug-In . SVG Version: 6.00 Build 0)  -->
<!DOCTYPE svg PUBLIC "-//W3C//DTD SVG 1.1//EN" "http://www.w3.org/Graphics/SVG/1.1/DTD/svg11.dtd">
<svg version="1.1" id="Layer_1" xmlns="http://www.w3.org/2000/svg" xmlns:xlink="http://www.w3.org/1999/xlink" x="0px" y="0px"
	 width="568.05px" height="450.7px" viewBox="0 0 568.05 450.7" style="enable-background:new 0 0 568.05 450.7;"
	 xml:space="preserve">
<path style="fill-rule:evenodd;clip-rule:evenodd;fill:#14110B;" d="M500.75,358.95c12.533-27.733,17.066-65.884,13.6-114.45
	c-3.5-48.9-12.166-86.933-26-114.1C476.017,106.167,458.7,89.083,436.4,79.15c-17.733-7.9-41.75-12.25-72.051-13.05
	c-9.6-0.267-23.482-0.217-41.649,0.15c-20.634,0.367-35.434,0.517-44.4,0.45c-26.7-0.367-45.883-0.583-57.55-0.65
	c-19.667-0.1-35.533,0.2-47.6,0.9c-30.333,1.733-53.2,7.2-68.6,16.4c-17.466,10.433-30.183,28.066-38.15,52.9
	c-8,24.9-12.65,61.467-13.95,109.7c-1.2,46.066,4.15,82.5,16.05,109.3c10.633,23.9,27.1,41.25,49.4,52.05
	c18.133,8.8,42.517,14.084,73.15,15.851c11.2,0.633,25.35,0.933,42.45,0.899c9.733-0.033,24.667-0.133,44.8-0.3
	c7,0,22.2,0.233,45.601,0.7c18.699,0.366,33.566,0.399,44.6,0.1c33.2-0.899,59.483-5.416,78.85-13.55
	C471.917,400.667,489.717,383.316,500.75,358.95z M566.65,221.25c4.267,61-1.301,108.934-16.7,143.8
	c-13.533,30.601-35.351,52.367-65.45,65.3c-23.767,10.233-56.017,15.917-96.75,17.051c-13.5,0.399-31.717,0.366-54.65-0.101
	c-28.833-0.6-47.482-0.899-55.95-0.899c-24.667,0.199-42.983,0.316-54.95,0.35c-20.934,0.066-38.284-0.3-52.05-1.1
	c-37.566-2.233-67.466-8.867-89.7-19.9c-27.367-13.566-47.567-35.35-60.6-65.35C5.25,326.733-1.3,280.967,0.2,223.1
	c1.566-60.567,7.267-106.517,17.1-137.85c9.767-31.167,25.367-53.317,46.8-66.45c10.267-6.267,22.583-11.066,36.95-14.4
	c12.967-3.033,28.684-5.1,47.15-6.2c14.833-0.867,34.3-1.217,58.4-1.05c14.3,0.067,37.816,0.333,70.55,0.8
	c11.034,0.1,29.183-0.1,54.45-0.6c22.334-0.434,39.367-0.483,51.101-0.15c37.167,1,66.616,6.45,88.35,16.35
	c27.367,12.467,48.617,33.934,63.75,64.4C551.767,112.083,562.383,159.85,566.65,221.25z"/>
</svg>
