<?xml version="1.0" encoding="iso-8859-1"?>
<!-- Generator: Adobe Illustrator 15.1.0, SVG Export Plug-In . SVG Version: 6.00 Build 0)  -->
<!DOCTYPE svg PUBLIC "-//W3C//DTD SVG 1.1//EN" "http://www.w3.org/Graphics/SVG/1.1/DTD/svg11.dtd">
<svg version="1.1" id="Layer_1" xmlns="http://www.w3.org/2000/svg" xmlns:xlink="http://www.w3.org/1999/xlink" x="0px" y="0px"
	 width="1720.1px" height="617.65px" viewBox="0 0 1720.1 617.65" style="enable-background:new 0 0 1720.1 617.65;"
	 xml:space="preserve">
<path style="fill-rule:evenodd;clip-rule:evenodd;fill:#14110B;" d="M1139.2,43.7c-33.167-0.4-81.317-0.333-144.45,0.2
	c-71.4,0.6-122.75,0.833-154.05,0.7c-92.567-0.567-159.05-0.9-199.45-1c-68.167-0.2-123.2,0.25-165.1,1.35
	c-52.3,1.333-96.783,3.883-133.45,7.65c-40.6,4.167-75.4,10.15-104.4,17.95c-30.633,8.233-56.65,18.95-78.05,32.15
	c-21.934,13.566-40.05,30.367-54.35,50.4c-14.333,20.066-25.45,44.25-33.35,72.55c-7.733,27.7-12.716,60.583-14.95,98.65
	c-4.233,71.867,14.3,128.7,55.6,170.5c36.866,37.3,93.966,64.367,171.3,81.2c62.933,13.7,147.467,21.934,253.6,24.7
	c38.933,1,88.017,1.467,147.25,1.399c33.8-0.033,85.583-0.183,155.35-0.449c24.166,0,76.899,0.366,158.2,1.1
	c64.967,0.566,116.5,0.616,154.6,0.15c115.167-1.4,206.35-8.45,273.55-21.15c85.134-16.1,146.817-43.15,185.05-81.15
	c43.533-43.267,59.283-102.8,47.25-178.6c-12.1-76.267-42.133-135.6-90.1-178c-42.733-37.833-102.816-64.5-180.25-80
	c-34.233-6.833-73.4-11.9-117.5-15.2C1234,46,1189.9,44.3,1139.2,43.7z M1004.1,0.55c67.601-0.633,119.167-0.716,154.7-0.25
	c54.267,0.667,101.483,2.6,141.65,5.8c47.267,3.767,89.216,9.566,125.85,17.4c82.9,17.7,147.25,48.133,193.05,91.3
	c51.367,48.4,83.533,116.167,96.5,203.3c12.867,86.467-3.55,153.117-49.25,199.95c-39.934,40.934-104.967,68.884-195.1,83.851
	c-38.967,6.5-84.4,10.933-136.3,13.3c-42.767,1.967-93.967,2.684-153.601,2.149c-28.433-0.267-83.267-1.3-164.5-3.1
	c-70.933-1.566-127.283-2.35-169.05-2.35c-36,0-91.566,0.533-166.7,1.6c-70.533,1-123.434,1.434-158.7,1.3
	c-56.233-0.233-104.9-1.666-146-4.3c-48.8-3.1-91.683-8.134-128.65-15.1c-84.367-15.934-146.517-43.934-186.45-84
	C16.383,466.134-3.934,402.566,0.6,320.7c2.4-43.467,7.733-81.017,16-112.65c8.466-32.3,20.367-59.9,35.7-82.8
	c15.333-22.9,34.733-42.083,58.2-57.55c22.934-15.1,50.8-27.333,83.6-36.7c31.066-8.934,68.333-15.767,111.8-20.5
	c39.267-4.3,86.883-7.217,142.85-8.75C493.583,0.517,552.517,0,625.55,0.2c43.267,0.133,114.467,0.517,213.6,1.15
	C872.483,1.483,927.467,1.217,1004.1,0.55z"/>
</svg>
