<?xml version="1.0" encoding="iso-8859-1"?>
<!-- Generator: Adobe Illustrator 15.1.0, SVG Export Plug-In . SVG Version: 6.00 Build 0)  -->
<!DOCTYPE svg PUBLIC "-//W3C//DTD SVG 1.1//EN" "http://www.w3.org/Graphics/SVG/1.1/DTD/svg11.dtd">
<svg version="1.1" id="Layer_1" xmlns="http://www.w3.org/2000/svg" xmlns:xlink="http://www.w3.org/1999/xlink" x="0px" y="0px"
	 width="1487.85px" height="572.65px" viewBox="0 0 1487.85 572.65" style="enable-background:new 0 0 1487.85 572.65;"
	 xml:space="preserve">
<path style="fill-rule:evenodd;clip-rule:evenodd;fill:#2A2417;" d="M1358.4,104.5c42.366,43.2,68.899,103.684,79.6,181.45
	c10.634,77.267-3.283,137.967-41.75,182.1c-33.733,38.733-88.2,66.3-163.4,82.7c-59.366,12.967-139.916,20.167-241.649,21.6
	c-33.667,0.467-79.167,0.4-136.5-0.199c-71.833-0.733-118.417-1.101-139.75-1.101c-61.634,0.267-107.367,0.417-137.2,0.45
	c-52.3,0.1-95.65-0.366-130.05-1.4c-93.767-2.833-168.434-11.233-224-25.199c-68.3-17.167-118.733-44.767-151.3-82.801
	c-36.466-42.6-52.833-100.533-49.1-173.8c2-38.833,6.4-72.366,13.2-100.6c6.967-28.833,16.783-53.467,29.45-73.9
	c12.633-20.433,28.633-37.55,48-51.35c18.9-13.5,41.883-24.434,68.95-32.8c25.633-7.967,56.367-14.066,92.2-18.3
	c32.4-3.833,71.683-6.434,117.85-7.8c36.933-1.1,85.55-1.566,145.85-1.4c35.667,0.133,94.384,0.483,176.15,1.05
	C742.517,3.333,787.867,3.083,851,2.45c55.7-0.534,98.233-0.6,127.6-0.2c44.768,0.6,83.7,2.333,116.801,5.2
	c38.967,3.367,73.566,8.533,103.8,15.5C1267.566,38.75,1320.633,65.933,1358.4,104.5z M1378.15,289.85
	c-9.867-63.933-34.334-113.666-73.4-149.2c-34.8-31.7-83.733-54.05-146.8-67.05c-50.067-10.333-117.884-16.017-203.45-17.05
	c-27.133-0.333-66.35-0.267-117.65,0.2c-58.366,0.5-100.183,0.7-125.45,0.6c-75.367-0.467-129.517-0.75-162.45-0.85
	c-55.533-0.167-100.35,0.2-134.45,1.1c-42.566,1.133-78.783,3.283-108.65,6.45c-33.033,3.467-61.367,8.467-85,15
	c-24.967,6.9-46.15,15.884-63.55,26.95c-17.866,11.367-32.633,25.45-44.3,42.25s-20.7,37.066-27.1,60.8
	c-6.3,23.2-10.367,50.767-12.2,82.7C70.233,351.983,85.333,399.634,119,434.7c30,31.267,76.483,53.95,139.45,68.05
	c51.233,11.5,120.083,18.4,206.55,20.7c31.667,0.866,71.633,1.25,119.9,1.149c27.5-0.033,69.667-0.149,126.5-0.35
	c19.434,0,62.383,0.3,128.85,0.9c52.9,0.5,94.867,0.55,125.9,0.149c93.833-1.166,168.1-7.083,222.8-17.75
	c69.333-13.467,119.566-36.133,150.7-68C1375.116,403.283,1387.95,353.384,1378.15,289.85z"/>
</svg>
