<?xml version="1.0" encoding="iso-8859-1"?>
<!-- Generator: Adobe Illustrator 15.1.0, SVG Export Plug-In . SVG Version: 6.00 Build 0)  -->
<!DOCTYPE svg PUBLIC "-//W3C//DTD SVG 1.1//EN" "http://www.w3.org/Graphics/SVG/1.1/DTD/svg11.dtd">
<svg version="1.1" id="rug_red" xmlns="http://www.w3.org/2000/svg" xmlns:xlink="http://www.w3.org/1999/xlink" x="0px" y="0px"
	 width="262.25px" height="57.55px" viewBox="0 0 262.25 57.55" style="enable-background:new 0 0 262.25 57.55;"
	 xml:space="preserve">
<g>
	<path style="fill-rule:evenodd;clip-rule:evenodd;fill:#713030;" d="M51.6,7.3C74.067,2.433,101.183,0,132.95,0
		c31.767,0,58.883,2.433,81.35,7.3S248,18.033,248,24.9c0,6.9-11.233,12.784-33.7,17.65c-22.434,4.867-49.55,7.3-81.35,7.3
		c-31.8,0-58.917-2.433-81.35-7.3C29.133,37.684,17.9,31.8,17.9,24.9C17.9,18.033,29.133,12.167,51.6,7.3z"/>
	<path style="fill-rule:evenodd;clip-rule:evenodd;fill:#8E3B3C;" d="M67,10.35c18.2-3.333,40.183-5,65.95-5
		c25.767,0,47.767,1.667,66,5c18.2,3.333,27.3,7.367,27.3,12.1c0,4.733-9.1,8.767-27.3,12.1c-18.233,3.367-40.233,5.05-66,5.05
		c-25.733,0-47.717-1.683-65.95-5.05c-18.233-3.333-27.35-7.367-27.35-12.1C39.65,17.717,48.767,13.683,67,10.35z"/>
	<path style="fill-rule:evenodd;clip-rule:evenodd;fill:#7B3434;" d="M82.05,12.1c14.034-2.2,31-3.3,50.9-3.3
		c19.899,0,36.866,1.1,50.899,3.3c14.067,2.167,21.101,4.816,21.101,7.95c0,3.1-7.033,5.75-21.101,7.95
		c-14.033,2.167-31,3.25-50.899,3.25c-19.867,0-36.833-1.083-50.9-3.25C68.017,25.8,61,23.15,61,20.05
		C61,16.917,68.017,14.267,82.05,12.1z"/>
</g>
</svg>
