<?xml version="1.0" encoding="iso-8859-1"?>
<!-- Generator: Adobe Illustrator 15.1.0, SVG Export Plug-In . SVG Version: 6.00 Build 0)  -->
<!DOCTYPE svg PUBLIC "-//W3C//DTD SVG 1.1//EN" "http://www.w3.org/Graphics/SVG/1.1/DTD/svg11.dtd">
<svg version="1.1" id="rug_blue" xmlns="http://www.w3.org/2000/svg" xmlns:xlink="http://www.w3.org/1999/xlink" x="0px" y="0px"
	 width="262.25px" height="57.6px" viewBox="0 0 262.25 57.6" style="enable-background:new 0 0 262.25 57.6;" xml:space="preserve"
	>
<g>
	<path style="fill-rule:evenodd;clip-rule:evenodd;fill:#3E5F62;" d="M51.65,7.3C74.083,2.433,101.183,0,132.95,0
		c31.8,0,58.916,2.433,81.35,7.3c22.467,4.867,33.7,10.75,33.7,17.65c0,6.866-11.233,12.733-33.7,17.6
		c-22.467,4.867-49.583,7.3-81.35,7.3c-31.767,0-58.867-2.433-81.3-7.3c-22.467-4.866-33.7-10.733-33.7-17.6
		C17.95,18.05,29.183,12.167,51.65,7.3z"/>
	<path style="fill-rule:evenodd;clip-rule:evenodd;fill:#4E7D80;" d="M67,10.4c18.2-3.333,40.183-5,65.95-5
		c25.767,0,47.767,1.667,66,5c18.233,3.333,27.35,7.367,27.35,12.1s-9.116,8.767-27.35,12.1c-18.233,3.334-40.233,5-66,5
		c-25.767,0-47.75-1.666-65.95-5c-18.233-3.333-27.35-7.366-27.35-12.1S48.767,13.733,67,10.4z"/>
	<path style="fill-rule:evenodd;clip-rule:evenodd;fill:#43696C;" d="M82.05,12.1c14.067-2.2,31.034-3.3,50.9-3.3
		c19.899,0,36.883,1.1,50.95,3.3c14.033,2.2,21.05,4.85,21.05,7.95c0,3.1-7.017,5.75-21.05,7.95c-14.067,2.2-31.051,3.3-50.95,3.3
		c-19.867,0-36.833-1.1-50.9-3.3C68.017,25.8,61,23.15,61,20.05C61,16.95,68.017,14.3,82.05,12.1z"/>
</g>
</svg>
