<?xml version="1.0" encoding="iso-8859-1"?>
<!-- Generator: Adobe Illustrator 15.1.0, SVG Export Plug-In . SVG Version: 6.00 Build 0)  -->
<!DOCTYPE svg PUBLIC "-//W3C//DTD SVG 1.1//EN" "http://www.w3.org/Graphics/SVG/1.1/DTD/svg11.dtd">
<svg version="1.1" id="rug_green" xmlns="http://www.w3.org/2000/svg" xmlns:xlink="http://www.w3.org/1999/xlink" x="0px" y="0px"
	 width="262.25px" height="57.55px" viewBox="0 0 262.25 57.55" style="enable-background:new 0 0 262.25 57.55;"
	 xml:space="preserve">
<g>
	<path style="fill-rule:evenodd;clip-rule:evenodd;fill:#353626;" d="M248,24.95c0,6.866-11.233,12.733-33.7,17.6
		c-22.467,4.867-49.583,7.3-81.35,7.3c-31.767,0-58.867-2.433-81.3-7.3c-22.467-4.866-33.7-10.733-33.7-17.6
		c0-6.9,11.233-12.784,33.7-17.65C74.083,2.434,101.183,0,132.95,0c31.8,0,58.916,2.434,81.35,7.3
		C236.767,12.167,248,18.05,248,24.95z"/>
	<path style="fill-rule:evenodd;clip-rule:evenodd;fill:#505239;" d="M198.95,10.4c18.233,3.333,27.35,7.367,27.35,12.1
		s-9.116,8.767-27.35,12.1c-18.233,3.334-40.233,5-66,5c-25.767,0-47.75-1.666-65.95-5c-18.233-3.333-27.35-7.366-27.35-12.1
		S48.767,13.733,67,10.4c18.233-3.367,40.217-5.05,65.95-5.05C158.717,5.35,180.717,7.033,198.95,10.4z"/>
	<path style="fill-rule:evenodd;clip-rule:evenodd;fill:#3E402D;" d="M204.95,20.05c0,3.1-7.017,5.75-21.05,7.95
		c-14.067,2.2-31.051,3.3-50.95,3.3c-19.867,0-36.833-1.1-50.9-3.3C68.017,25.8,61,23.15,61,20.05c0-3.1,7.017-5.75,21.05-7.95
		c14.067-2.2,31.034-3.3,50.9-3.3c19.899,0,36.883,1.1,50.95,3.3C197.934,14.3,204.95,16.95,204.95,20.05z"/>
</g>
</svg>
