<?xml version="1.0" encoding="iso-8859-1"?>
<!-- Generator: Adobe Illustrator 15.1.0, SVG Export Plug-In . SVG Version: 6.00 Build 0)  -->
<!DOCTYPE svg PUBLIC "-//W3C//DTD SVG 1.1//EN" "http://www.w3.org/Graphics/SVG/1.1/DTD/svg11.dtd">
<svg version="1.1" id="bluesky_streak_2" xmlns="http://www.w3.org/2000/svg" xmlns:xlink="http://www.w3.org/1999/xlink" x="0px"
	 y="0px" width="1000px" height="51.8px" viewBox="0 0 1000 51.8" style="enable-background:new 0 0 1000 51.8;"
	 xml:space="preserve">
<symbol  id="FlashAICB_x2F_bluesky_streak_2_x2F__x3C_Path_x3E_" viewBox="0 -51.78 1000 51.804">
	<g id="Layer_1_2_">
		<path style="fill-rule:evenodd;clip-rule:evenodd;fill:#93D3DE;" d="M1000-33.15c-2.5-3.267-7.35-6.483-14.55-9.65
			c-14.4-6.333-33.317-9.317-56.75-8.95c-29.3,0.5-53.684,1.767-73.15,3.8c-22,2.3-52.167,6.934-90.5,13.9
			c-17.466,3.167-53.683,5.966-108.65,8.4c-47.966,2.133-88.383,3.2-121.25,3.2c-33.066,0-69.75-1.5-110.05-4.5
			c-48.367-3.633-85.65-8.483-111.85-14.55c-35.1-8.133-97.483-10.2-187.15-6.2C81.2-45.667,39.167-42.833,0-39.2
			c33.3-1.7,71.667-2.083,115.1-1.15c86.833,1.867,155.566,9.383,206.2,22.55C355.4-8.933,423.517-3.333,525.65-1
			c37.034,0.867,74.233,1.183,111.6,0.95c32.3-0.233,55.167-0.733,68.6-1.5C743.383-3.683,776.7-7.8,805.8-13.9
			c15.967-3.333,34.517-7.883,55.65-13.65c23-5.233,53-7.733,90-7.5C969.917-34.95,986.1-34.317,1000-33.15z"/>
	</g>
</symbol>
<use xlink:href="#FlashAICB_x2F_bluesky_streak_2_x2F__x3C_Path_x3E_"  width="1000" height="51.804" y="-51.78" transform="matrix(1 0 0 -1 0 0)" style="overflow:visible;opacity:0.1992;enable-background:new    ;"/>
</svg>
