<?xml version="1.0" encoding="iso-8859-1"?>
<!-- Generator: Adobe Illustrator 15.1.0, SVG Export Plug-In . SVG Version: 6.00 Build 0)  -->
<!DOCTYPE svg PUBLIC "-//W3C//DTD SVG 1.1//EN" "http://www.w3.org/Graphics/SVG/1.1/DTD/svg11.dtd">
<svg version="1.1" id="bluesky_streak_3" xmlns="http://www.w3.org/2000/svg" xmlns:xlink="http://www.w3.org/1999/xlink" x="0px"
	 y="0px" width="1000px" height="61.7px" viewBox="0 0 1000 61.7" style="enable-background:new 0 0 1000 61.7;"
	 xml:space="preserve">
<symbol  id="FlashAICB_x2F_bluesky_streak_3_x2F__x3C_Path_x3E_" viewBox="0 -61.652 1000 61.704">
	<g id="Layer_1_2_">
		<path style="fill-rule:evenodd;clip-rule:evenodd;fill:#006B72;" d="M493.65-58.8c-95.833,3.633-161.4,8.9-196.7,15.8
			c-64.9,12.733-133.867,20.683-206.9,23.85C53.55-17.55,23.533-17.233,0-18.2c6.067,1.667,13.967,3.55,23.7,5.65
			c19.6,4.2,40,7.367,61.2,9.5c68.434,6.867,135.783,2.333,202.05-13.6c28.5-6.833,63.417-12.75,104.75-17.75
			c41.066-4.934,75.483-7.4,103.25-7.4c26.667,0,65.783,2,117.35,6c49.833,3.9,84.75,7.517,104.75,10.85
			c46.233,7.733,82.233,13.034,108,15.9c35.067,3.9,67.667,5.533,97.8,4.9c23.433-0.5,43.316-3.917,59.65-10.25
			c8.167-3.167,14-6.283,17.5-9.35c-15.1,1.033-32.483,1.583-52.15,1.65c-39.4,0.133-70.6-2.2-93.6-7
			c-26.633-6.667-50.684-12.2-72.15-16.6c-40.333-8.267-79.167-13.383-116.5-15.35c-12.2-0.633-34.2-0.767-66-0.4
			C565.7-61.05,530.383-60.167,493.65-58.8z"/>
	</g>
</symbol>
<use xlink:href="#FlashAICB_x2F_bluesky_streak_3_x2F__x3C_Path_x3E_"  width="1000" height="61.704" y="-61.652" transform="matrix(1 0 0 -1 0 0.0498)" style="overflow:visible;opacity:0.1484;enable-background:new    ;"/>
</svg>
