<?xml version="1.0" encoding="iso-8859-1"?>
<!-- Generator: Adobe Illustrator 15.1.0, SVG Export Plug-In . SVG Version: 6.00 Build 0)  -->
<!DOCTYPE svg PUBLIC "-//W3C//DTD SVG 1.1//EN" "http://www.w3.org/Graphics/SVG/1.1/DTD/svg11.dtd">
<svg version="1.1" id="aquasky_streak_4" xmlns="http://www.w3.org/2000/svg" xmlns:xlink="http://www.w3.org/1999/xlink" x="0px"
	 y="0px" width="1000px" height="54.45px" viewBox="0 0 1000 54.45" style="enable-background:new 0 0 1000 54.45;"
	 xml:space="preserve">
<symbol  id="FlashAICB_x2F_aquasky_streak_4_x2F__x3C_Path_x3E_" viewBox="0 -54.38 1000 54.412">
	<g id="Layer_1_2_">
		<path style="fill-rule:evenodd;clip-rule:evenodd;fill:#192825;" d="M1000-39.25c-2.566-2.667-7.55-5.283-14.95-7.85
			c-14.767-5.167-34.2-7.583-58.3-7.25c-30.2,0.4-55.283,1.417-75.25,3.05c-22.667,1.867-53.667,5.633-93,11.3
			c-17.967,2.567-55.2,4.833-111.7,6.8c-49.267,1.733-90.816,2.6-124.65,2.6c-33.967,0-71.683-1.233-113.15-3.7
			c-49.7-2.934-88.033-6.85-115-11.75c-36-6.567-95.45-3.617-178.35,8.85c-25.3,3.8-52.167,8.434-80.6,13.9
			C21.083-20.633,9.4-18.35,0-16.45c29.767-3.133,64.717-5.183,104.85-6.15c80.333-2,146.517,2.35,198.55,13.05
			c35.267,7.267,95.25,10.4,179.95,9.4c31.2-0.367,62.517-1.283,93.95-2.75c27.067-1.233,47.4-2.517,61-3.85
			c44.867-4.4,89.867-9.583,135-15.55c37.467-4.934,65.55-9.083,84.25-12.45c23.667-4.267,54.517-6.3,92.55-6.1
			C969.1-40.75,985.733-40.217,1000-39.25z"/>
	</g>
</symbol>
<use xlink:href="#FlashAICB_x2F_aquasky_streak_4_x2F__x3C_Path_x3E_"  width="1000" height="54.412" y="-54.38" transform="matrix(1 0 0 -1 0 0.0498)" style="overflow:visible;opacity:0.1016;enable-background:new    ;"/>
</svg>
