<?xml version="1.0" encoding="iso-8859-1"?>
<!-- Generator: Adobe Illustrator 15.1.0, SVG Export Plug-In . SVG Version: 6.00 Build 0)  -->
<!DOCTYPE svg PUBLIC "-//W3C//DTD SVG 1.1//EN" "http://www.w3.org/Graphics/SVG/1.1/DTD/svg11.dtd">
<svg version="1.1" id="soil_debris_7" xmlns="http://www.w3.org/2000/svg" xmlns:xlink="http://www.w3.org/1999/xlink" x="0px"
	 y="0px" width="87.65px" height="14.15px" viewBox="0 0 87.65 14.15" style="enable-background:new 0 0 87.65 14.15;"
	 xml:space="preserve">
<path style="fill-rule:evenodd;clip-rule:evenodd;fill:#342518;" d="M70.85,3.9c0,0.833-0.916,1.55-2.75,2.15
	c-1.899,0.667-4.416,1.067-7.55,1.2C49.884,7.717,44.333,6.6,43.9,3.9c-0.167-0.767,1.1-1.517,3.8-2.25
	c2.666-0.7,5.616-1.05,8.85-1.05c3.267,0,6.45,0.35,9.55,1.05C69.267,2.383,70.85,3.133,70.85,3.9z"/>
<path style="fill-rule:evenodd;clip-rule:evenodd;fill:#342518;" d="M51.9,4.95c0,0.566-1.134,1.066-3.4,1.5
	C46.1,6.917,42.933,7.2,39,7.3C25.633,7.633,18.667,6.85,18.1,4.95c-0.167-0.567,1.417-1.1,4.75-1.6c3.4-0.5,7.1-0.75,11.1-0.75
	c4.1,0,8.116,0.25,12.05,0.75C49.934,3.883,51.9,4.417,51.9,4.95z"/>
<path style="fill-rule:evenodd;clip-rule:evenodd;fill:#342518;" d="M62,4.8c0,0.7-0.65,1.317-1.95,1.85
	c-1.399,0.534-3.233,0.867-5.5,1C46.816,8.05,42.767,7.1,42.4,4.8c-0.1-0.667,0.817-1.3,2.75-1.9C47.116,2.3,49.267,2,51.6,2
	c2.367,0,4.684,0.3,6.95,0.9C60.85,3.533,62,4.167,62,4.8z"/>
<path style="fill-rule:evenodd;clip-rule:evenodd;fill:#342518;" d="M77.7,5.1c0,0.633-0.434,1.183-1.3,1.65
	c-0.934,0.467-2.15,0.767-3.65,0.9c-5.134,0.333-7.8-0.5-8-2.5c-0.066-0.6,0.533-1.167,1.8-1.7c1.3-0.567,2.733-0.85,4.3-0.85
	c1.567,0,3.101,0.267,4.601,0.8C76.95,3.967,77.7,4.533,77.7,5.1z"/>
<path style="fill-rule:evenodd;clip-rule:evenodd;fill:#342518;" d="M47.35,2.5c0,0.6-0.433,1.133-1.3,1.6
	C45.116,4.566,43.9,4.867,42.4,5c-5.1,0.4-7.767-0.434-8-2.5c-0.066-0.6,0.55-1.167,1.85-1.7C37.55,0.267,38.967,0,40.5,0
	c1.566,0,3.1,0.267,4.6,0.8C46.6,1.333,47.35,1.9,47.35,2.5z"/>
<path style="fill-rule:evenodd;clip-rule:evenodd;fill:#342518;" d="M50.05,6.05c0,0.667-0.566,1.25-1.7,1.75
	c-1.199,0.5-2.783,0.816-4.75,0.95c-6.7,0.4-10.2-0.5-10.5-2.7c-0.1-0.633,0.7-1.233,2.4-1.8c1.7-0.567,3.55-0.85,5.55-0.85
	c2.033,0,4.033,0.283,6,0.85C49.05,4.816,50.05,5.417,50.05,6.05z"/>
<path style="fill-rule:evenodd;clip-rule:evenodd;fill:#342518;" d="M40.6,2.75c0,0.667-0.567,1.233-1.7,1.7
	c-1.2,0.533-2.783,0.85-4.75,0.95c-6.7,0.4-10.2-0.483-10.5-2.65c-0.066-0.633,0.733-1.233,2.4-1.8c1.7-0.567,3.55-0.85,5.55-0.85
	c2.066,0,4.083,0.283,6.05,0.85C39.617,1.517,40.6,2.117,40.6,2.75z"/>
<path style="fill-rule:evenodd;clip-rule:evenodd;fill:#342518;" d="M72.85,4.25c0,0.467-1.633,0.85-4.899,1.15
	c-3.3,0.333-7.267,0.5-11.9,0.5c-4.6,0-8.55-0.167-11.85-0.5c-3.3-0.3-4.95-0.683-4.95-1.15c0-0.434,1.65-0.8,4.95-1.1
	c3.3-0.333,7.25-0.5,11.85-0.5c4.601,0,8.566,0.167,11.9,0.5C71.217,3.45,72.85,3.816,72.85,4.25z"/>
<path style="fill-rule:evenodd;clip-rule:evenodd;fill:#342518;" d="M81.2,4.9c0,0.233-0.351,0.417-1.05,0.55
	C79.45,5.617,78.6,5.7,77.6,5.7s-1.85-0.083-2.55-0.25C74.35,5.316,74,5.133,74,4.9s0.35-0.417,1.05-0.55
	c0.7-0.167,1.55-0.25,2.55-0.25s1.851,0.083,2.551,0.25C80.85,4.483,81.2,4.667,81.2,4.9z"/>
<path style="fill-rule:evenodd;clip-rule:evenodd;fill:#342518;" d="M70.55,4.4c0,0.233-0.35,0.417-1.05,0.55
	c-0.7,0.167-1.55,0.25-2.55,0.25S65.1,5.117,64.4,4.95C63.667,4.816,63.3,4.633,63.3,4.4s0.367-0.417,1.101-0.55
	C65.1,3.683,65.95,3.6,66.95,3.6s1.85,0.083,2.55,0.25C70.2,3.983,70.55,4.167,70.55,4.4z"/>
<path style="fill-rule:evenodd;clip-rule:evenodd;fill:#342518;" d="M14.8,8.4c0.733-0.167,1.583-0.25,2.55-0.25
	c0.966,0,1.833,0.083,2.6,0.25C20.65,8.566,21,8.75,21,8.95c0,0.233-0.35,0.433-1.05,0.6c-0.733,0.167-1.6,0.25-2.6,0.25
	S15.5,9.717,14.8,9.55c-0.7-0.167-1.05-0.366-1.05-0.6C13.75,8.75,14.1,8.566,14.8,8.4z"/>
</svg>
