<?xml version="1.0" encoding="iso-8859-1"?>
<!-- Generator: Adobe Illustrator 15.1.0, SVG Export Plug-In . SVG Version: 6.00 Build 0)  -->
<!DOCTYPE svg PUBLIC "-//W3C//DTD SVG 1.1//EN" "http://www.w3.org/Graphics/SVG/1.1/DTD/svg11.dtd">
<svg version="1.1" id="soil_debris_1" xmlns="http://www.w3.org/2000/svg" xmlns:xlink="http://www.w3.org/1999/xlink" x="0px"
	 y="0px" width="50.15px" height="17.75px" viewBox="0 0 50.15 17.75" style="enable-background:new 0 0 50.15 17.75;"
	 xml:space="preserve">
<symbol  id="FlashAICB_x2F_soil_debris_1_x2F__x3C_Path_x3E__x5F_3" viewBox="0 -3.35 15.1 3.35">
	<g id="Layer_1_3_">
		<path style="fill-rule:evenodd;clip-rule:evenodd;fill:#342518;" d="M15.1-1.65c0-0.467-0.733-0.867-2.2-1.2
			c-1.467-0.333-3.25-0.5-5.35-0.5c-2.1,0-3.883,0.167-5.35,0.5C0.733-2.517,0-2.117,0-1.65S0.733-0.8,2.2-0.5
			C3.667-0.167,5.45,0,7.55,0c2.067,0,3.85-0.167,5.35-0.5C14.367-0.833,15.1-1.217,15.1-1.65z"/>
	</g>
</symbol>
<symbol  id="FlashAICB_x2F_soil_debris_1_x2F__x3C_Path_x3E__x5F_4" viewBox="0 -3.35 15.1 3.35">
	<g id="Layer_1_2_">
		<path style="fill-rule:evenodd;clip-rule:evenodd;fill:#342518;" d="M15.1-1.7c0-0.466-0.733-0.85-2.2-1.15
			c-1.5-0.333-3.283-0.5-5.35-0.5c-2.1,0-3.883,0.167-5.35,0.5C0.733-2.55,0-2.167,0-1.7c0,0.467,0.733,0.867,2.2,1.2
			C3.667-0.167,5.45,0,7.55,0c2.1,0,3.883-0.167,5.35-0.5S15.1-1.233,15.1-1.7z"/>
	</g>
</symbol>
<use xlink:href="#FlashAICB_x2F_soil_debris_1_x2F__x3C_Path_x3E__x5F_4"  width="15.1" height="3.35" y="-3.35" transform="matrix(1 0 0 -1 26 11.2998)" style="overflow:visible;opacity:0.5;enable-background:new    ;"/>
<use xlink:href="#FlashAICB_x2F_soil_debris_1_x2F__x3C_Path_x3E__x5F_3"  width="15.1" height="3.35" y="-3.35" transform="matrix(1 0 0 -1 0 14.4004)" style="overflow:visible;opacity:0.5;enable-background:new    ;"/>
<path style="fill-rule:evenodd;clip-rule:evenodd;fill:#342518;" d="M37.85,3c0,0.733-0.533,1.367-1.6,1.9
	C35.15,5.5,33.7,5.867,31.9,6c-6.2,0.4-9.434-0.6-9.7-3c-0.067-0.7,0.667-1.367,2.2-2c1.567-0.667,3.284-1,5.15-1
	c1.9,0,3.75,0.333,5.55,1C36.934,1.633,37.85,2.3,37.85,3z"/>
<path style="fill-rule:evenodd;clip-rule:evenodd;fill:#342518;" d="M50.15,1.45c0,0.2-0.351,0.366-1.051,0.5
	c-0.699,0.133-1.55,0.2-2.55,0.2S44.7,2.083,44,1.95c-0.733-0.134-1.1-0.3-1.1-0.5c0-0.2,0.366-0.367,1.1-0.5
	c0.7-0.167,1.55-0.25,2.55-0.25S48.4,0.783,49.1,0.95C49.8,1.083,50.15,1.25,50.15,1.45z"/>
<path style="fill-rule:evenodd;clip-rule:evenodd;fill:#342518;" d="M22.15,12.95c0,0.233-0.35,0.416-1.05,0.55
	c-0.7,0.167-1.55,0.25-2.55,0.25S16.7,13.667,16,13.5c-0.733-0.134-1.1-0.316-1.1-0.55s0.367-0.417,1.1-0.55
	c0.7-0.167,1.55-0.25,2.55-0.25s1.85,0.083,2.55,0.25C21.8,12.533,22.15,12.717,22.15,12.95z"/>
</svg>
