<?xml version="1.0" encoding="iso-8859-1"?>
<!-- Generator: Adobe Illustrator 15.1.0, SVG Export Plug-In . SVG Version: 6.00 Build 0)  -->
<!DOCTYPE svg PUBLIC "-//W3C//DTD SVG 1.1//EN" "http://www.w3.org/Graphics/SVG/1.1/DTD/svg11.dtd">
<svg version="1.1" id="soil_debris_5" xmlns="http://www.w3.org/2000/svg" xmlns:xlink="http://www.w3.org/1999/xlink" x="0px"
	 y="0px" width="116.65px" height="20.1px" viewBox="0 0 116.65 20.1" style="enable-background:new 0 0 116.65 20.1;"
	 xml:space="preserve">
<path style="fill-rule:evenodd;clip-rule:evenodd;fill:#342518;" d="M73.55,1.35c3.267,0,6.45,0.367,9.55,1.1
	c3.167,0.7,4.75,1.45,4.75,2.25c0,0.8-0.916,1.5-2.75,2.1C83.2,7.467,80.684,7.867,77.55,8C66.917,8.533,61.366,7.433,60.9,4.7
	c-0.167-0.767,1.1-1.517,3.8-2.25C67.4,1.717,70.35,1.35,73.55,1.35z"/>
<path style="fill-rule:evenodd;clip-rule:evenodd;fill:#342518;" d="M68.7,5.15c0,1.233-0.917,2.333-2.75,3.3
	c-1.934,1-4.467,1.616-7.601,1.85c-10.7,0.733-16.3-0.983-16.8-5.15C41.417,3.95,42.7,2.8,45.4,1.7C48.133,0.566,51.1,0,54.3,0
	c3.267,0,6.483,0.566,9.65,1.7C67.116,2.8,68.7,3.95,68.7,5.15z"/>
<path style="fill-rule:evenodd;clip-rule:evenodd;fill:#342518;" d="M69.1,6.1c2.4,0,4.717,0.3,6.95,0.9
	c2.3,0.6,3.45,1.233,3.45,1.9c0,0.7-0.667,1.3-2,1.8c-1.366,0.533-3.2,0.866-5.5,1c-7.733,0.467-11.783-0.467-12.15-2.8
	c-0.1-0.667,0.817-1.3,2.75-1.9C64.6,6.4,66.767,6.1,69.1,6.1z"/>
<path style="fill-rule:evenodd;clip-rule:evenodd;fill:#342518;" d="M95.5,6.7c0,0.633-0.434,1.183-1.3,1.65
	c-0.934,0.466-2.15,0.75-3.65,0.85c-5.1,0.4-7.767-0.434-8-2.5C82.483,6.133,83.1,5.566,84.4,5c1.3-0.533,2.716-0.8,4.25-0.8
	c1.566,0,3.1,0.267,4.6,0.8S95.5,6.1,95.5,6.7z"/>
<path style="fill-rule:evenodd;clip-rule:evenodd;fill:#342518;" d="M64.8,6.55c0,0.633-0.434,1.184-1.3,1.65
	c-0.9,0.466-2.1,0.767-3.6,0.9c-5.134,0.333-7.817-0.517-8.05-2.55c-0.033-0.566,0.583-1.133,1.85-1.7c1.3-0.534,2.716-0.8,4.25-0.8
	c1.566,0,3.1,0.267,4.6,0.8C64.05,5.417,64.8,5.983,64.8,6.55z"/>
<path style="fill-rule:evenodd;clip-rule:evenodd;fill:#342518;" d="M73.95,7.9C75.65,7.3,77.5,7,79.5,7c2.066,0,4.083,0.3,6.05,0.9
	c1.967,0.567,2.95,1.167,2.95,1.8c0,0.667-0.566,1.233-1.7,1.7c-1.2,0.533-2.783,0.85-4.75,0.949c-6.7,0.4-10.2-0.483-10.5-2.649
	C71.483,9.066,72.283,8.467,73.95,7.9z"/>
<path style="fill-rule:evenodd;clip-rule:evenodd;fill:#342518;" d="M50.5,7.4c0,0.667-0.567,1.233-1.7,1.7
	c-1.2,0.533-2.783,0.85-4.75,0.95c-6.7,0.4-10.2-0.483-10.5-2.65c-0.1-0.633,0.7-1.233,2.4-1.8c1.7-0.567,3.55-0.85,5.55-0.85
	c2.033,0,4.033,0.283,6,0.85C49.5,6.167,50.5,6.767,50.5,7.4z"/>
<path style="fill-rule:evenodd;clip-rule:evenodd;fill:#342518;" d="M56.8,9.5c0,0.434-1.633,0.816-4.9,1.15
	c-3.267,0.3-7.233,0.45-11.9,0.45c-4.633,0-8.583-0.149-11.85-0.45c-3.267-0.333-4.9-0.716-4.9-1.15s1.633-0.817,4.9-1.15
	C31.417,8.05,35.367,7.9,40,7.9c4.667,0,8.633,0.15,11.9,0.45C55.167,8.683,56.8,9.066,56.8,9.5z"/>
<path style="fill-rule:evenodd;clip-rule:evenodd;fill:#342518;" d="M57.65,14.4c0,0.232-0.35,0.416-1.05,0.55
	c-0.7,0.166-1.55,0.25-2.55,0.25s-1.85-0.084-2.55-0.25c-0.733-0.134-1.1-0.317-1.1-0.55c0-0.233,0.367-0.417,1.1-0.551
	c0.7-0.166,1.55-0.25,2.55-0.25s1.85,0.084,2.55,0.25C57.3,13.983,57.65,14.167,57.65,14.4z"/>
<path style="fill-rule:evenodd;clip-rule:evenodd;fill:#342518;" d="M116.65,8.05c0,0.233-0.351,0.434-1.051,0.6
	c-0.733,0.167-1.583,0.25-2.55,0.25c-1,0-1.85-0.083-2.55-0.25c-0.733-0.167-1.1-0.367-1.1-0.6c0-0.2,0.366-0.383,1.1-0.55
	s1.583-0.25,2.55-0.25s1.816,0.083,2.55,0.25C116.3,7.667,116.65,7.85,116.65,8.05z"/>
<path style="fill-rule:evenodd;clip-rule:evenodd;fill:#342518;" d="M21,14.4c0,0.232-0.35,0.416-1.05,0.55
	c-0.733,0.166-1.6,0.25-2.6,0.25s-1.85-0.084-2.55-0.25c-0.7-0.134-1.05-0.317-1.05-0.55c0-0.233,0.35-0.417,1.05-0.551
	c0.7-0.166,1.55-0.25,2.55-0.25s1.867,0.084,2.6,0.25C20.65,13.983,21,14.167,21,14.4z"/>
</svg>
