<?xml version="1.0" encoding="iso-8859-1"?>
<!-- Generator: Adobe Illustrator 15.1.0, SVG Export Plug-In . SVG Version: 6.00 Build 0)  -->
<!DOCTYPE svg PUBLIC "-//W3C//DTD SVG 1.1//EN" "http://www.w3.org/Graphics/SVG/1.1/DTD/svg11.dtd">
<svg version="1.1" id="soil_debris_2" xmlns="http://www.w3.org/2000/svg" xmlns:xlink="http://www.w3.org/1999/xlink" x="0px"
	 y="0px" width="65.1px" height="21.75px" viewBox="0 0 65.1 21.75" style="enable-background:new 0 0 65.1 21.75;"
	 xml:space="preserve">
<path style="fill-rule:evenodd;clip-rule:evenodd;fill:#342518;" d="M27.65,1.6c2.2-1.067,4.6-1.6,7.2-1.6
	c2.667,0,5.267,0.533,7.801,1.6C45.217,2.7,46.5,3.833,46.5,5c0,1.2-0.733,2.267-2.2,3.2c-1.566,0.933-3.633,1.517-6.2,1.75
	C29.434,10.683,24.917,9.033,24.55,5C24.417,3.833,25.45,2.7,27.65,1.6z"/>
<path style="fill-rule:evenodd;clip-rule:evenodd;fill:#342518;" d="M55.5,7.35c0,0.633-0.566,1.216-1.7,1.75
	c-1.2,0.5-2.783,0.816-4.75,0.95c-6.7,0.4-10.2-0.5-10.5-2.7c-0.1-0.633,0.7-1.233,2.4-1.8c1.7-0.566,3.55-0.85,5.55-0.85
	c2.033,0,4.033,0.283,6,0.85C54.5,6.117,55.5,6.717,55.5,7.35z"/>
<path style="fill-rule:evenodd;clip-rule:evenodd;fill:#342518;" d="M32.85,6.9c1.967,0.567,2.95,1.167,2.95,1.8
	c0,0.667-0.566,1.233-1.7,1.7c-1.199,0.533-2.783,0.85-4.75,0.95c-6.667,0.4-10.167-0.483-10.5-2.649
	c-0.067-0.634,0.733-1.233,2.4-1.8c1.7-0.6,3.567-0.9,5.6-0.9S30.883,6.3,32.85,6.9z"/>
<path style="fill-rule:evenodd;clip-rule:evenodd;fill:#342518;" d="M51.85,14c0,0.2-0.35,0.383-1.05,0.55
	c-0.7,0.134-1.55,0.2-2.55,0.2s-1.85-0.066-2.55-0.2C45,14.383,44.65,14.2,44.65,14c0-0.167,0.35-0.333,1.05-0.5
	c0.733-0.134,1.583-0.2,2.55-0.2s1.816,0.066,2.55,0.2C51.5,13.667,51.85,13.833,51.85,14z"/>
<path style="fill-rule:evenodd;clip-rule:evenodd;fill:#342518;" d="M22.15,16.95c0,0.233-0.35,0.433-1.05,0.6
	c-0.7,0.167-1.55,0.25-2.55,0.25S16.7,17.717,16,17.55c-0.733-0.167-1.1-0.366-1.1-0.6s0.367-0.417,1.1-0.55
	c0.7-0.167,1.55-0.25,2.55-0.25s1.85,0.083,2.55,0.25C21.8,16.533,22.15,16.717,22.15,16.95z"/>
</svg>
