<?xml version="1.0" encoding="iso-8859-1"?>
<!-- Generator: Adobe Illustrator 15.1.0, SVG Export Plug-In . SVG Version: 6.00 Build 0)  -->
<!DOCTYPE svg PUBLIC "-//W3C//DTD SVG 1.1//EN" "http://www.w3.org/Graphics/SVG/1.1/DTD/svg11.dtd">
<svg version="1.1" id="soil_debris_4" xmlns="http://www.w3.org/2000/svg" xmlns:xlink="http://www.w3.org/1999/xlink" x="0px"
	 y="0px" width="79.75px" height="19.45px" viewBox="0 0 79.75 19.45" style="enable-background:new 0 0 79.75 19.45;"
	 xml:space="preserve">
<path style="fill-rule:evenodd;clip-rule:evenodd;fill:#342518;" d="M62.95,5.15c0,1.233-0.717,2.333-2.15,3.3
	c-1.533,1-3.566,1.616-6.1,1.85c-8.533,0.733-12.983-0.983-13.351-5.15C41.217,3.95,42.233,2.8,44.4,1.7
	C46.566,0.566,48.934,0,51.5,0c2.6,0,5.15,0.566,7.65,1.7C61.684,2.8,62.95,3.95,62.95,5.15z"/>
<path style="fill-rule:evenodd;clip-rule:evenodd;fill:#342518;" d="M52.15,5.15c0,1.233-0.917,2.333-2.75,3.3
	c-1.934,1-4.467,1.616-7.601,1.85C31.1,11.033,25.5,9.316,25,5.15c-0.133-1.2,1.15-2.35,3.85-3.45c2.733-1.134,5.7-1.7,8.9-1.7
	c3.267,0,6.483,0.566,9.65,1.7C50.566,2.8,52.15,3.95,52.15,5.15z"/>
<path style="fill-rule:evenodd;clip-rule:evenodd;fill:#342518;" d="M25.75,6.3c1.967-0.6,4.117-0.9,6.45-0.9
	c2.367,0,4.683,0.3,6.95,0.9c2.3,0.633,3.449,1.284,3.449,1.95s-0.666,1.267-2,1.8c-1.399,0.533-3.233,0.867-5.5,1
	c-7.733,0.4-11.767-0.533-12.1-2.8C22.9,7.583,23.817,6.933,25.75,6.3z"/>
<path style="fill-rule:evenodd;clip-rule:evenodd;fill:#342518;" d="M67.3,8.2c-0.934,0.466-2.149,0.767-3.649,0.9
	c-5.134,0.333-7.801-0.517-8-2.55c-0.067-0.566,0.533-1.133,1.8-1.7c1.3-0.534,2.733-0.8,4.3-0.8s3.1,0.267,4.6,0.8
	c1.5,0.566,2.25,1.133,2.25,1.7C68.6,7.183,68.167,7.733,67.3,8.2z"/>
<path style="fill-rule:evenodd;clip-rule:evenodd;fill:#342518;" d="M25.65,4.2c1.533,0.533,2.3,1.1,2.3,1.7
	c0,0.633-0.434,1.184-1.3,1.65C25.717,8.017,24.5,8.3,23,8.4c-5.133,0.4-7.8-0.433-8-2.5c-0.067-0.566,0.533-1.133,1.8-1.7
	c1.3-0.534,2.717-0.8,4.25-0.8C22.617,3.4,24.15,3.667,25.65,4.2z"/>
<path style="fill-rule:evenodd;clip-rule:evenodd;fill:#342518;" d="M51.6,9.05c0,0.633-0.566,1.2-1.699,1.7
	c-1.2,0.5-2.784,0.816-4.75,0.95c-6.667,0.399-10.167-0.483-10.5-2.65c-0.066-0.633,0.733-1.233,2.4-1.8
	c1.7-0.6,3.566-0.9,5.601-0.9c2.066,0,4.066,0.283,6,0.85C50.616,7.8,51.6,8.417,51.6,9.05z"/>
<path style="fill-rule:evenodd;clip-rule:evenodd;fill:#342518;" d="M16.25,11c0,0.3-0.8,0.55-2.4,0.75
	c-1.567,0.2-3.467,0.3-5.7,0.3c-2.267,0-4.183-0.1-5.75-0.3C0.8,11.55,0,11.3,0,11s0.8-0.55,2.4-0.75C4,10.017,5.917,9.9,8.15,9.9
	s4.133,0.117,5.7,0.35C15.45,10.45,16.25,10.7,16.25,11z"/>
<path style="fill-rule:evenodd;clip-rule:evenodd;fill:#342518;" d="M20.75,13.75c0,0.233-0.35,0.417-1.05,0.55
	c-0.7,0.167-1.55,0.25-2.55,0.25s-1.85-0.083-2.55-0.25c-0.733-0.133-1.1-0.316-1.1-0.55s0.367-0.417,1.1-0.55
	c0.7-0.167,1.55-0.25,2.55-0.25S19,13.033,19.7,13.2C20.4,13.333,20.75,13.517,20.75,13.75z"/>
<path style="fill-rule:evenodd;clip-rule:evenodd;fill:#342518;" d="M79.75,7.4c0,0.233-0.35,0.417-1.05,0.55
	C78,8.117,77.15,8.2,76.15,8.2S74.3,8.117,73.6,7.95c-0.733-0.134-1.1-0.317-1.1-0.55s0.366-0.417,1.1-0.55
	C74.3,6.683,75.15,6.6,76.15,6.6S78,6.683,78.7,6.85C79.4,6.983,79.75,7.167,79.75,7.4z"/>
</svg>
