<?xml version="1.0" encoding="iso-8859-1"?>
<!-- Generator: Adobe Illustrator 15.1.0, SVG Export Plug-In . SVG Version: 6.00 Build 0)  -->
<!DOCTYPE svg PUBLIC "-//W3C//DTD SVG 1.1//EN" "http://www.w3.org/Graphics/SVG/1.1/DTD/svg11.dtd">
<svg version="1.1" xmlns="http://www.w3.org/2000/svg" xmlns:xlink="http://www.w3.org/1999/xlink" x="0px" y="0px"
	 width="143.75px" height="117.8px" viewBox="0 0 143.75 117.8" style="enable-background:new 0 0 143.75 117.8;"
	 xml:space="preserve">
<symbol  id="FlashAICB_x2F_tadpole_bowl_x2F__x3C_Path_x3E_" viewBox="0 -21.1 118 21.1">
	<g id="Layer_1_6_">
		<path style="fill-rule:evenodd;clip-rule:evenodd;fill:#EAFFFF;" d="M118-10.55c0-2.934-5.75-5.417-17.25-7.45
			C89.217-20.067,75.3-21.1,59-21.1S28.8-20.067,17.3-18C5.767-15.967,0-13.483,0-10.55c0,2.9,5.767,5.383,17.3,7.45
			C28.833-1.033,42.733,0,59,0s30.183-1.033,41.75-3.1C112.25-5.167,118-7.65,118-10.55z"/>
	</g>
</symbol>
<symbol  id="FlashAICB_x2F_tadpole_bowl_x2F__x3C_Path_x3E__x5F_1" viewBox="0 -83.65 126.55 83.65">
	<g id="Layer_1_2_">
		<path style="fill-rule:evenodd;clip-rule:evenodd;fill:#41E2E7;" d="M122.3-10.2c2.833-6.8,4.25-14.55,4.25-23.25
			c0-33.466-21.083-50.2-63.25-50.2C21.1-83.65,0-66.917,0-33.45c0,9,1.533,17.034,4.6,24.1h0.15c1.7,2.633,8.1,4.85,19.2,6.65
			C35.15-0.9,48.283,0,63.35,0c15.9,0,29.583-1,41.05-3C115.8-4.967,121.767-7.367,122.3-10.2z"/>
	</g>
</symbol>
<symbol  id="FlashAICB_x2F_tadpole_bowl_x2F__x3C_Path_x3E__x5F_2">
	<g id="Layer_1_5_">
	</g>
</symbol>
<symbol  id="FlashAICB_x2F_tadpole_bowl_x2F__x3C_Path_x3E__x5F_4">
	<g id="Layer_1_4_">
	</g>
</symbol>
<symbol  id="FlashAICB_x2F_tadpole_bowl_x2F__x3C_Path_x3E__x5F_5">
	<g id="Layer_1_3_">
	</g>
</symbol>
<symbol  id="FlashAICB_x2F_tadpole_bowl_x2F__x3C_Path_x3E__x5F_9" viewBox="0 -14.018 29.3 13.964">
	<g id="Layer_1_7_">
		<path style="fill-rule:evenodd;clip-rule:evenodd;fill:#F6B041;" d="M28.8-6.3l0.5-0.05l-1.8-7.3c-0.833-0.3-1.967-0.417-3.4-0.35
			c-2.867,0.167-5.733,1.2-8.6,3.1c-1.433,0.933-2.817,2.167-4.15,3.7c-1.367,1.7-2.367,2.917-3,3.65C6.15-1.083,3.367-0.133,0-0.7
			l0.6,0.45c2.833,0.6,5.45-0.183,7.85-2.35c3.8-3.467,6.35-5.517,7.65-6.15c3.1-1.533,6.066-2.2,8.9-2
			c1.433,0.1,2.55,0.35,3.35,0.75L28.8-6.3z"/>
	</g>
</symbol>
<symbol  id="eyes" viewBox="0 -8.95 20 8.95">
	<g id="Layer_1_9_">
		<path style="fill-rule:evenodd;clip-rule:evenodd;fill:#524741;" d="M2.1-0.55c0.566,0,1.066-0.417,1.5-1.25
			C4-2.633,4.2-3.617,4.2-4.75C4.2-5.917,4-6.9,3.6-7.7C3.167-8.534,2.667-8.95,2.1-8.95C1.5-8.95,1-8.534,0.6-7.7
			C0.2-6.9,0-5.917,0-4.75C0-3.583,0.2-2.6,0.6-1.8C1-0.967,1.5-0.55,2.1-0.55z"/>
		<path style="fill-rule:evenodd;clip-rule:evenodd;fill:#524741;" d="M20-4.2c0-1.167-0.2-2.15-0.6-2.95
			c-0.433-0.833-0.933-1.25-1.5-1.25s-1.05,0.417-1.45,1.25c-0.4,0.8-0.6,1.784-0.6,2.95s0.2,2.15,0.6,2.95
			C16.85-0.417,17.333,0,17.9,0s1.067-0.417,1.5-1.25C19.8-2.083,20-3.067,20-4.2z"/>
		<path style="fill-rule:evenodd;clip-rule:evenodd;fill:#FFFFFF;" d="M3.35-4.75c0-0.667-0.184-1-0.55-1s-0.55,0.333-0.55,1
			c0,0.667,0.183,1,0.55,1S3.35-4.083,3.35-4.75z"/>
		<path style="fill-rule:evenodd;clip-rule:evenodd;fill:#FFFFFF;" d="M19.35-4.75c0-0.667-0.167-1-0.5-1
			c-0.367,0-0.55,0.333-0.55,1c0,0.667,0.184,1,0.55,1C19.183-3.75,19.35-4.083,19.35-4.75z"/>
	</g>
</symbol>
<symbol  id="tadpole_1" viewBox="22.513 -27.75 24.088 27.765">
	<g id="Layer_1_8_">
		<g>
			<path style="fill-rule:evenodd;clip-rule:evenodd;fill:#F6B041;" d="M26.4-8.95c2.333,2.133,5.133,3.2,8.4,3.2
				c3.267,0,6.05-1.067,8.35-3.2c2.3-2.167,3.45-4.767,3.45-7.8s-1.15-5.633-3.45-7.8c-2.3-2.133-5.083-3.2-8.35-3.2
				c-3.267,0-6.066,1.067-8.4,3.2c-2.3,2.167-3.45,4.767-3.45,7.8S24.1-11.117,26.4-8.95z"/>
			<path style="fill-rule:evenodd;clip-rule:evenodd;fill:#CF9537;" d="M26.4-24.55c-2.3,2.167-3.45,4.767-3.45,7.8l0.05,1.1
				c0.3-2.8,1.567-5.167,3.8-7.1c2.267-1.9,4.934-2.85,8-2.85c3.034,0,5.684,0.95,7.95,2.85c2.233,1.933,3.5,4.3,3.8,7.1l0.05-1.1
				c0-3.033-1.15-5.633-3.45-7.8c-2.3-2.133-5.083-3.2-8.35-3.2C31.533-27.75,28.733-26.683,26.4-24.55z"/>
			<path style="fill-rule:evenodd;clip-rule:evenodd;fill:#F6B041;" d="M23.7-2.8c-0.367,0.6-0.317,1.2,0.15,1.8
				s1.583-0.317,3.35-2.75c0.867-1.2,1.7-2.467,2.5-3.8c-0.267-0.733-0.767-1.05-1.5-0.95l-1.05,1.65
				c-1.467-1.1-2.383-1.517-2.75-1.25c-0.233,0.133-0.033,0.567,0.6,1.3l1.05,1.05l-0.75,1.1c-1.433-0.733-2.333-0.983-2.7-0.75
				c-0.233,0.167,0,0.517,0.7,1.05l1.1,0.8C24.133-3.383,23.9-3.133,23.7-2.8z"/>
			<path style="fill-rule:evenodd;clip-rule:evenodd;fill:#F6B041;" d="M43.85-2.7C45.583-3.333,46.3-3.8,46-4.1
				c-0.3-0.3-1.233-0.25-2.8,0.15L42.7-5.2c1.7-1,2.4-1.65,2.1-1.95c-0.3-0.333-1.267-0.117-2.9,0.65l-0.75-1.85
				c-0.667-0.267-1.2-0.066-1.6,0.6c0.5,1.467,1.05,2.883,1.65,4.25c1.2,2.767,2.083,3.9,2.65,3.4c0.566-0.5,0.733-1.083,0.5-1.75
				C44.25-2.183,44.083-2.467,43.85-2.7z"/>
			<path style="fill-rule:evenodd;clip-rule:evenodd;fill:#D99C39;" d="M38.75-18.65c0-0.5-0.267-0.917-0.8-1.25
				c-0.5-0.333-1.133-0.5-1.9-0.5c-0.767,0-1.4,0.167-1.9,0.5c-0.533,0.333-0.8,0.75-0.8,1.25c0,0.467,0.267,0.867,0.8,1.2
				c0.533,0.333,1.167,0.5,1.9,0.5c0.767,0,1.4-0.167,1.9-0.5C38.483-17.783,38.75-18.183,38.75-18.65z"/>
		</g>
	</g>
</symbol>
<symbol  id="tadpole_tail" viewBox="0 -16.268 29.3 16.249">
	<g id="Layer_1_10_">
		<path style="fill-rule:evenodd;clip-rule:evenodd;fill:#F6B041;" d="M0-2.95c1.233,1.067,2.75,1.867,4.55,2.4
			C8.183,0.583,11.4-0.1,14.2-2.6c2.8-2.5,6.167-4.25,10.1-5.25c1.934-0.5,3.6-0.75,5-0.75l-1.8-7.3
			c-0.833-0.3-1.967-0.417-3.4-0.35c-2.867,0.167-5.733,1.2-8.6,3.1c-1.433,0.933-2.817,2.167-4.15,3.7
			c-1.367,1.7-2.367,2.917-3,3.65C6.15-3.333,3.367-2.383,0-2.95z"/>
		<g>
			<path style="fill-rule:evenodd;clip-rule:evenodd;fill:#D99C39;" d="M22.75-7.4c-1.133-0.967-1.85-2.217-2.15-3.75
				c-0.267-1.133-0.067-2.667,0.6-4.6c-1.567,0.367-3.217,1.083-4.95,2.15c-0.367,1.3-0.2,2.783,0.5,4.45
				c0.5,1.167,1.267,2.267,2.3,3.3C20.217-6.417,21.45-6.933,22.75-7.4z"/>
			<path style="fill-rule:evenodd;clip-rule:evenodd;fill:#D99C39;" d="M16.85-4.6c-1.067-0.667-1.95-1.7-2.65-3.1
				c-0.5-1-0.784-2.267-0.85-3.8c-0.867,0.8-1.8,1.817-2.8,3.05c0.2,1.034,0.717,2.184,1.55,3.45c0.633,0.967,1.35,1.75,2.15,2.35
				C15.15-3.45,16.017-4.1,16.85-4.6z"/>
			<path style="fill-rule:evenodd;clip-rule:evenodd;fill:#D99C39;" d="M12.55-1.4c-1-0.633-1.85-1.65-2.55-3.05
				C9.733-5.017,9.5-5.833,9.3-6.9c-1,1.233-1.883,2.133-2.65,2.7C6.983-3.267,7.4-2.433,7.9-1.7c0.5,0.667,0.934,1.184,1.3,1.55
				C10.367-0.317,11.483-0.733,12.55-1.4z"/>
			<path style="fill-rule:evenodd;clip-rule:evenodd;fill:#D99C39;" d="M6.9-0.05C6.3-0.65,5.867-1.467,5.6-2.5l-0.1-1
				C4.667-3.067,3.717-2.833,2.65-2.8C2.683-2.333,2.833-1.767,3.1-1.1C4.333-0.533,5.6-0.183,6.9-0.05z"/>
		</g>
		
			<use xlink:href="#FlashAICB_x2F_tadpole_bowl_x2F__x3C_Path_x3E__x5F_9"  width="29.3" height="13.964" y="-14.018" transform="matrix(1 0 0 1 0 -2.25)" style="overflow:visible;opacity:0.5;enable-background:new    ;"/>
	</g>
</symbol>
<g id="tadpole_bowl">
	<g>
		<g>
			
				<use xlink:href="#FlashAICB_x2F_tadpole_bowl_x2F__x3C_Path_x3E__x5F_1"  width="126.55" height="83.65" y="-83.65" transform="matrix(1 0 0 -1 8.6001 27)" style="overflow:visible;opacity:0.3086;"/>
			
				<radialGradient id="SVGID_1_" cx="71.875" cy="58.8999" r="65.7085" gradientTransform="matrix(1 0 0 -1 0 117.7998)" gradientUnits="userSpaceOnUse">
				<stop  offset="0.7647" style="stop-color:#FFFFFF;stop-opacity:0.2"/>
				<stop  offset="0.8235" style="stop-color:#FAFDFF;stop-opacity:0.2392"/>
				<stop  offset="0.898" style="stop-color:#EBF6FF;stop-opacity:0.3451"/>
				<stop  offset="0.9804" style="stop-color:#D3EAFF;stop-opacity:0.5333"/>
				<stop  offset="1" style="stop-color:#CCE7FF;stop-opacity:0.6"/>
			</radialGradient>
			<path style="fill-rule:evenodd;clip-rule:evenodd;fill:url(#SVGID_1_);" d="M111.375,8.2l0.025-0.25
				c0-1.934-3.817-3.583-11.45-4.95c-7.667-1.367-16.9-2.05-27.7-2.05S52.233,1.633,44.6,3S33.15,6.017,33.15,7.95V8l0.025,0.225
				c0.01,0.072,0.027,0.147,0.05,0.225c-0.05,0.164-0.075,0.331-0.075,0.5c0,1.933,3.817,3.583,11.45,4.95s16.85,2.05,27.65,2.05
				s20.033-0.684,27.7-2.05c7.633-1.367,11.45-3.017,11.45-4.95c0-0.169-0.025-0.336-0.075-0.5
				C111.351,8.364,111.368,8.281,111.375,8.2z M111.3,6.1c10.2,4.8,18.05,11.583,23.55,20.35c5.934,9.433,8.9,20.883,8.9,34.35
				c0,38-23.95,57-71.85,57c-47.934,0-71.9-19-71.9-57c0-13.433,2.967-24.867,8.9-34.3c5.467-8.767,13.3-15.55,23.5-20.35
				c5.167-2.433,11.434-4.133,18.8-5.1C56.767,0.35,63.85,0,72.45,0C80.917,0,87.8,0.35,93.1,1.05
				C100.033,1.983,106.1,3.667,111.3,6.1z"/>
			<path style="fill-rule:evenodd;clip-rule:evenodd;fill:#FFFFFF;fill-opacity:0.6941;" d="M33.225,8.45V8.425
				c0.593,1.732,4.385,3.224,11.375,4.475c7.633,1.367,16.85,2.05,27.65,2.05s20.033-0.684,27.7-2.05
				c6.99-1.251,10.781-2.743,11.375-4.475V8.45c0.05,0.164,0.075,0.331,0.075,0.5c0,1.933-3.817,3.583-11.45,4.95
				c-7.667,1.367-16.9,2.05-27.7,2.05S52.233,15.267,44.6,13.9s-11.45-3.017-11.45-4.95C33.15,8.781,33.175,8.614,33.225,8.45z"/>
			
				<radialGradient id="SVGID_2_" cx="71.75" cy="11.5" r="34.25" gradientTransform="matrix(1 0 0 0.4401 0 6.4383)" gradientUnits="userSpaceOnUse">
				<stop  offset="0.4471" style="stop-color:#B7C9D7;stop-opacity:0.5098"/>
				<stop  offset="1" style="stop-color:#81A1B8;stop-opacity:0.6"/>
			</radialGradient>
			<path style="fill-rule:evenodd;clip-rule:evenodd;fill:url(#SVGID_2_);" d="M33.175,8.225L33.15,8V7.95
				c0-1.934,3.817-3.583,11.45-4.95s16.85-2.05,27.65-2.05S92.283,1.633,99.95,3c7.633,1.367,11.45,3.017,11.45,4.95l-0.025,0.25
				c-0.009,0.073-0.025,0.148-0.05,0.225c-0.594,1.732-4.385,3.224-11.375,4.475c-7.667,1.367-16.9,2.05-27.7,2.05
				S52.233,14.267,44.6,12.9c-6.99-1.251-10.782-2.743-11.375-4.475C33.203,8.357,33.186,8.29,33.175,8.225z"/>
			
				<use xlink:href="#FlashAICB_x2F_tadpole_bowl_x2F__x3C_Path_x3E__x5F_5"  width="-32766" height="-32766" x="16383" y="16383" transform="matrix(1 0 0 -1 32.25 2)" style="overflow:visible;opacity:0.1992;enable-background:new    ;"/>
			
				<use xlink:href="#FlashAICB_x2F_tadpole_bowl_x2F__x3C_Path_x3E__x5F_4"  width="-32766" height="-32766" x="16383" y="16383" transform="matrix(1 0 0 -1 33.1499 3.9502)" style="overflow:visible;opacity:0.1992;enable-background:new    ;"/>
			
				<use xlink:href="#FlashAICB_x2F_tadpole_bowl_x2F__x3C_Path_x3E__x5F_2"  width="-32766" height="-32766" x="16383" y="16383" transform="matrix(1 0 0 -1 33.1499 0.9502)" style="overflow:visible;opacity:0.3008;enable-background:new    ;"/>
			
				<use xlink:href="#FlashAICB_x2F_tadpole_bowl_x2F__x3C_Path_x3E_"  width="118" height="21.1" y="-21.1" transform="matrix(1 0 0 -1 12.9502 27)" style="overflow:visible;opacity:0.1992;enable-background:new    ;"/>
		</g>
	</g>
</g>
<g id="Layer_3">
	
		<use xlink:href="#tadpole_tail"  width="29.3" height="16.249" y="-16.268" transform="matrix(0.8143 -0.4701 -0.4701 -0.8143 16.5498 68.2998)" style="overflow:visible;"/>
</g>
<g id="Layer_2">
	
		<use xlink:href="#tadpole_1"  width="24.088" height="27.765" x="22.513" y="-27.75" transform="matrix(0.9403 0 0 -0.9403 15.5 52.2002)" style="overflow:visible;"/>
</g>
<g id="Layer_1">
	
		<use xlink:href="#eyes"  width="20" height="8.95" y="-8.95" transform="matrix(0.9403 0 0 -0.9403 39.2002 63.2998)" style="overflow:visible;"/>
</g>
<g id="Layer_3_1_">
	
		<use xlink:href="#tadpole_tail"  width="29.3" height="16.249" y="-16.268" transform="matrix(-0.6755 -0.39 0.39 -0.6755 119.8496 62.6504)" style="overflow:visible;"/>
</g>
<g id="Layer_2_1_">
	
		<use xlink:href="#tadpole_1"  width="24.088" height="27.765" x="22.513" y="-27.75" transform="matrix(-0.78 0 0 -0.78 120.75 49.2998)" style="overflow:visible;"/>
</g>
<g id="Layer_1_1_">
	
		<use xlink:href="#eyes"  width="20" height="8.95" y="-8.95" transform="matrix(-0.78 0 0 -0.78 101.0498 58.5)" style="overflow:visible;"/>
</g>
<g id="Layer_3_2_">
	
		<use xlink:href="#tadpole_tail"  width="29.3" height="16.249" y="-16.268" transform="matrix(0.9659 -0.2588 -0.2588 -0.9659 55.0498 91.25)" style="overflow:visible;"/>
</g>
<g id="Layer_2_2_">
	
		<use xlink:href="#tadpole_1"  width="24.088" height="27.765" x="22.513" y="-27.75" transform="matrix(1 0 0 -1 53.3501 78.4502)" style="overflow:visible;"/>
</g>
<g id="Layer_1_11_">
	
		<use xlink:href="#eyes"  width="20" height="8.95" y="-8.95" transform="matrix(1 0 0 -1 78.5996 90.25)" style="overflow:visible;"/>
</g>
</svg>
