<?xml version="1.0" encoding="iso-8859-1"?>
<!-- Generator: Adobe Illustrator 15.1.0, SVG Export Plug-In . SVG Version: 6.00 Build 0)  -->
<!DOCTYPE svg PUBLIC "-//W3C//DTD SVG 1.1//EN" "http://www.w3.org/Graphics/SVG/1.1/DTD/svg11.dtd">
<svg version="1.1" id="underground_x5F_plant2" xmlns="http://www.w3.org/2000/svg" xmlns:xlink="http://www.w3.org/1999/xlink"
	 x="0px" y="0px" width="39.55px" height="53.5px" viewBox="0 0 39.55 53.5" style="enable-background:new 0 0 39.55 53.5;"
	 xml:space="preserve">
<symbol  id="FlashAICB_x2F_underground_x5F_plant2_x2F__x3C_Path_x3E__x5F_22" viewBox="-0.003 -8.916 21.653 8.916">
	<g id="Layer_1_2_">
		<path style="fill-rule:evenodd;clip-rule:evenodd;fill:#1A1A1A;" d="M0.05,0c3-1.4,6.567-2.183,10.7-2.35
			c4.067-0.2,7.7,0.3,10.9,1.5v-0.4c-0.066-2.233-1.2-4.1-3.4-5.6c-2.167-1.5-4.75-2.183-7.75-2.05C7.533-8.8,5.017-7.917,2.95-6.25
			C0.917-4.617-0.067-2.667,0-0.4L0.05,0z"/>
	</g>
</symbol>
<g>
	<g>
		<g>
			<path style="fill-rule:evenodd;clip-rule:evenodd;fill:#222700;" d="M18.75,8.35l-0.8,6.75c-0.034,0.233-0.133,0.417-0.3,0.55
				c-0.2,0.133-0.4,0.167-0.6,0.1c-0.233-0.033-0.417-0.133-0.55-0.3c-0.1-0.2-0.133-0.417-0.1-0.65l0.8-6.75
				c0.033-0.233,0.133-0.417,0.3-0.55c0.167-0.1,0.367-0.133,0.6-0.1c0.2,0.067,0.367,0.184,0.5,0.35
				C18.733,7.95,18.783,8.15,18.75,8.35z"/>
			<path style="fill-rule:evenodd;clip-rule:evenodd;fill:#887E53;" d="M20.3,7C20.2,7.633,19.9,8.133,19.4,8.5
				c-0.5,0.367-1.067,0.483-1.7,0.35c-0.6-0.133-1.083-0.467-1.45-1S15.767,6.733,15.9,6.1c0.1-0.633,0.4-1.117,0.9-1.45
				c0.5-0.367,1.05-0.483,1.65-0.35c0.633,0.133,1.116,0.467,1.45,1C20.267,5.8,20.4,6.367,20.3,7z"/>
			<path style="fill-rule:evenodd;clip-rule:evenodd;fill:#706844;" d="M20.3,7C20.2,7.633,19.9,8.133,19.4,8.5
				c-0.5,0.367-1.067,0.483-1.7,0.35c-0.733-0.133-1.284-0.583-1.65-1.35c0.3,0.3,0.667,0.5,1.1,0.6c0.633,0.133,1.2,0.017,1.7-0.35
				c0.5-0.367,0.8-0.867,0.9-1.5c0.066-0.5,0-0.967-0.2-1.4C20.184,5.483,20.434,6.2,20.3,7z"/>
			<path style="fill-rule:evenodd;clip-rule:evenodd;fill:#584E1D;" d="M19.1,6c-0.066,0.367-0.25,0.65-0.55,0.85
				c-0.267,0.2-0.583,0.267-0.95,0.2C17.267,6.983,17,6.8,16.8,6.5c-0.2-0.333-0.283-0.683-0.25-1.05
				c0.067-0.367,0.25-0.633,0.55-0.8c0.3-0.2,0.617-0.267,0.95-0.2C18.383,4.517,18.667,4.7,18.9,5C19.1,5.3,19.167,5.633,19.1,6z"
				/>
			<path style="fill-rule:evenodd;clip-rule:evenodd;fill:#222700;" d="M29.15,18.75c-0.233,0.033-0.434-0.017-0.601-0.15
				c-0.2-0.133-0.316-0.3-0.35-0.5c-0.101-0.5,0.116-0.817,0.649-0.95l6.601-1.4c0.233-0.033,0.45,0.017,0.649,0.15
				c0.167,0.133,0.267,0.3,0.301,0.5c0.1,0.5-0.117,0.817-0.65,0.95L29.15,18.75z"/>
			<path style="fill-rule:evenodd;clip-rule:evenodd;fill:#887E53;" d="M37.65,18.35c-0.634,0.1-1.217-0.017-1.75-0.35
				c-0.534-0.367-0.851-0.85-0.95-1.45c-0.134-0.633-0.017-1.2,0.35-1.7c0.334-0.5,0.816-0.8,1.45-0.9
				c0.634-0.1,1.217,0.033,1.75,0.4c0.533,0.333,0.866,0.816,1,1.45c0.1,0.6-0.033,1.15-0.4,1.65
				C38.767,17.95,38.283,18.25,37.65,18.35z"/>
			<path style="fill-rule:evenodd;clip-rule:evenodd;fill:#706844;" d="M35.65,16.35c0.133,0.566,0.433,1.033,0.899,1.4
				s1,0.533,1.601,0.5l-0.5,0.1c-0.634,0.1-1.217-0.017-1.75-0.35c-0.534-0.367-0.851-0.85-0.95-1.45
				c-0.134-0.633-0.017-1.2,0.35-1.7c0.334-0.5,0.816-0.8,1.45-0.9H37c-0.467,0.167-0.833,0.483-1.1,0.95
				C35.634,15.333,35.55,15.817,35.65,16.35z"/>
			<path style="fill-rule:evenodd;clip-rule:evenodd;fill:#584E1D;" d="M38,17.1c-0.366,0.066-0.7,0-1-0.2
				c-0.3-0.2-0.483-0.483-0.55-0.85c-0.066-0.333,0-0.65,0.2-0.95c0.199-0.3,0.483-0.483,0.85-0.55c0.366-0.033,0.7,0.05,1,0.25
				c0.3,0.2,0.483,0.467,0.55,0.8c0.066,0.333,0,0.65-0.2,0.95C38.65,16.85,38.366,17.033,38,17.1z"/>
			<path style="fill-rule:evenodd;clip-rule:evenodd;fill:#222700;" d="M14.6,14.8c0.3,0.5,0.2,0.883-0.3,1.15
				c-0.466,0.333-0.883,0.25-1.25-0.25l-4-6.05C8.917,9.45,8.883,9.233,8.95,9C8.983,8.767,9.1,8.583,9.3,8.45
				c0.233-0.133,0.467-0.167,0.7-0.1c0.233,0.033,0.417,0.167,0.55,0.4L14.6,14.8z"/>
			<path style="fill-rule:evenodd;clip-rule:evenodd;fill:#887E53;" d="M11.4,7.45c0.367,0.566,0.483,1.183,0.35,1.85
				c-0.167,0.633-0.533,1.133-1.1,1.5c-0.6,0.367-1.25,0.483-1.95,0.35c-0.7-0.167-1.233-0.533-1.6-1.1
				c-0.367-0.533-0.483-1.133-0.35-1.8c0.167-0.667,0.533-1.183,1.1-1.55C8.45,6.333,9.1,6.217,9.8,6.35
				C10.5,6.517,11.033,6.883,11.4,7.45z"/>
			<path style="fill-rule:evenodd;clip-rule:evenodd;fill:#706844;" d="M11.4,7.45c0.367,0.566,0.483,1.183,0.35,1.85
				c-0.167,0.633-0.533,1.133-1.1,1.5c-0.6,0.367-1.25,0.483-1.95,0.35c-0.7-0.167-1.233-0.533-1.6-1.1V10
				c0.867,0.533,1.75,0.533,2.65,0c0.6-0.333,0.967-0.833,1.1-1.5c0.167-0.633,0.066-1.25-0.3-1.85
				C10.85,6.817,11.133,7.083,11.4,7.45z"/>
			<path style="fill-rule:evenodd;clip-rule:evenodd;fill:#584E1D;" d="M9.7,7.25C9.933,7.583,10,7.933,9.9,8.3
				C9.833,8.667,9.633,8.967,9.3,9.2C8.967,9.4,8.6,9.45,8.2,9.35c-0.4-0.067-0.717-0.267-0.95-0.6s-0.3-0.683-0.2-1.05
				c0.1-0.367,0.317-0.65,0.65-0.85c0.333-0.233,0.7-0.3,1.1-0.2C9.2,6.717,9.5,6.917,9.7,7.25z"/>
			<path style="fill-rule:evenodd;clip-rule:evenodd;fill:#222700;" d="M30,16.25c-0.366,0.367-0.733,0.383-1.1,0.05
				c-0.334-0.333-0.351-0.683-0.051-1.05l1.65-1.65c0.366-0.367,0.733-0.383,1.1-0.05c0.334,0.333,0.351,0.684,0.051,1.05L30,16.25z
				"/>
			<path style="fill-rule:evenodd;clip-rule:evenodd;fill:#887E53;" d="M32.9,15c-0.4,0.433-0.9,0.65-1.5,0.65
				c-0.601,0-1.117-0.2-1.551-0.6C29.417,14.683,29.2,14.2,29.2,13.6c-0.033-0.567,0.149-1.05,0.55-1.45
				c0.434-0.433,0.95-0.65,1.55-0.65c0.566,0,1.066,0.2,1.5,0.6c0.467,0.367,0.7,0.85,0.7,1.45C33.533,14.117,33.333,14.6,32.9,15z"
				/>
			<path style="fill-rule:evenodd;clip-rule:evenodd;fill:#706844;" d="M29.85,15.05C29.417,14.683,29.2,14.2,29.2,13.6
				c-0.033-0.567,0.149-1.05,0.55-1.45c0.233-0.233,0.5-0.4,0.8-0.5l-0.3,0.25c-0.4,0.4-0.6,0.883-0.6,1.45
				c0.033,0.566,0.267,1.05,0.699,1.45c0.634,0.633,1.384,0.784,2.25,0.45c-0.399,0.3-0.866,0.433-1.399,0.4
				S30.217,15.417,29.85,15.05z"/>
			<path style="fill-rule:evenodd;clip-rule:evenodd;fill:#584E1D;" d="M32.55,14.25c-0.233,0.233-0.517,0.367-0.85,0.4
				c-0.334,0-0.634-0.117-0.9-0.35c-0.233-0.233-0.366-0.5-0.399-0.8c0-0.333,0.116-0.617,0.35-0.85s0.533-0.367,0.9-0.4
				c0.3,0,0.583,0.117,0.85,0.35s0.4,0.517,0.4,0.85C32.9,13.75,32.783,14.017,32.55,14.25z"/>
			<path style="fill-rule:evenodd;clip-rule:evenodd;fill:#222700;" d="M21.4,18.65L19.5,52.1c0,0.4-0.15,0.733-0.45,1
				s-0.667,0.4-1.1,0.4c-0.4-0.033-0.733-0.184-1-0.45c-0.3-0.3-0.45-0.649-0.45-1.05l1.9-33.5c0.033-0.4,0.2-0.733,0.5-1
				c0.3-0.267,0.65-0.383,1.05-0.35c0.434,0,0.783,0.15,1.05,0.45C21.3,17.9,21.434,18.25,21.4,18.65z"/>
			<g>
				<path style="fill-rule:evenodd;clip-rule:evenodd;fill:#4C552A;" d="M18.2,25.75l2.75-0.25c2.267,0.067,4.383,0.633,6.35,1.7
					c2.3,1.233,2.917,2.684,1.851,4.35c-1.034,1.7-2.45,2.033-4.25,1c-2.067-1.2-3.801-2.684-5.2-4.45L18.2,25.75z"/>
				<path style="fill-rule:evenodd;clip-rule:evenodd;fill:#77804F;" d="M20.7,26l1.95-0.15c1.6,0.033,3.1,0.417,4.5,1.15
					c1.6,0.866,2.033,1.9,1.3,3.1c-0.733,1.167-1.733,1.384-3,0.65c-1.467-0.833-2.7-1.866-3.7-3.1L20.7,26z"/>
			</g>
			<g>
				<path style="fill-rule:evenodd;clip-rule:evenodd;fill:#4C552A;" d="M20.35,25.85c-0.333,0.633-0.883,1.367-1.649,2.2
					c-1.567,1.667-3.434,3-5.6,4c-1.867,0.867-3.25,0.434-4.15-1.3c-0.934-1.733-0.217-3.134,2.15-4.2
					c2.066-0.933,4.233-1.333,6.5-1.2C18.733,25.417,19.65,25.583,20.35,25.85z"/>
				<path style="fill-rule:evenodd;clip-rule:evenodd;fill:#77804F;" d="M17.65,26l-1.2,1.55c-1.067,1.167-2.367,2.117-3.9,2.851
					c-1.3,0.6-2.267,0.283-2.9-0.95s-0.133-2.217,1.5-2.95c1.467-0.633,2.983-0.917,4.55-0.85C16.5,25.717,17.15,25.833,17.65,26z"
					/>
			</g>
			<g>
				<path style="fill-rule:evenodd;clip-rule:evenodd;fill:#4C552A;" d="M20.2,22.8l1.25,2.45c0.833,2.1,1.217,4.3,1.149,6.6
					c-0.033,1.967-1.066,2.934-3.1,2.9s-3-1.3-2.9-3.8c0.1-2.167,0.733-4.167,1.9-6L20.2,22.8z"/>
				<path style="fill-rule:evenodd;clip-rule:evenodd;fill:#77804F;" d="M19.9,24.75l0.899,1.7c0.601,1.467,0.884,3.017,0.851,4.649
					c-0.034,1.4-0.767,2.084-2.2,2.051c-1.434-0.034-2.117-0.934-2.05-2.7c0.067-1.533,0.5-2.934,1.3-4.2L19.9,24.75z"/>
				
					<radialGradient id="SVGID_1_" cx="26.1309" cy="-18.1445" r="3.0764" gradientTransform="matrix(0.0325 0.9995 2.4743 0.195 63.0962 4.9733)" gradientUnits="userSpaceOnUse">
					<stop  offset="0" style="stop-color:#000000;stop-opacity:0.6471"/>
					<stop  offset="0.9569" style="stop-color:#000000;stop-opacity:0"/>
				</radialGradient>
				<path style="fill-rule:evenodd;clip-rule:evenodd;fill:url(#SVGID_1_);" d="M19.1,30.65c-2.133-0.167-3.95-0.617-5.45-1.351
					c-1.5-0.7-2.267-1.483-2.3-2.35c-0.033-0.867,0.7-1.534,2.2-2c1.5-0.5,3.3-0.667,5.4-0.5c2.1,0.133,3.916,0.583,5.45,1.35
					c1.5,0.7,2.267,1.483,2.3,2.351c0.033,0.866-0.7,1.533-2.2,2C23.033,30.65,21.233,30.816,19.1,30.65z"/>
			</g>
			
				<linearGradient id="SVGID_2_" gradientUnits="userSpaceOnUse" x1="-28.8301" y1="18.7832" x2="-11.4878" y2="18.7832" gradientTransform="matrix(-0.0447 -0.999 0.999 -0.0447 -1.546368e-005 -9.326115e-004)">
				<stop  offset="0" style="stop-color:#222A02"/>
				<stop  offset="0.1294" style="stop-color:#2C3701"/>
				<stop  offset="0.3647" style="stop-color:#495B00"/>
				<stop  offset="0.5333" style="stop-color:#607800"/>
				<stop  offset="0.9412" style="stop-color:#3F5000"/>
				<stop  offset="1" style="stop-color:#3B4A00"/>
			</linearGradient>
			<path style="fill-rule:evenodd;clip-rule:evenodd;fill:url(#SVGID_2_);" d="M19.9,10.75c2.899,0.133,5.366,0.983,7.399,2.55
				c2.033,1.534,3.084,3.383,3.15,5.55c-3.2,1.2-6.834,1.7-10.9,1.5C15.483,20.217,11.9,19.433,8.8,18
				c0.233-2.133,1.417-3.9,3.55-5.3C14.517,11.3,17.033,10.65,19.9,10.75z"/>
			
				<use xlink:href="#FlashAICB_x2F_underground_x5F_plant2_x2F__x3C_Path_x3E__x5F_22"  width="21.653" height="8.916" x="-0.003" y="-8.916" transform="matrix(1 0 0 -1 8.7998 17.4502)" style="overflow:visible;opacity:0.5;enable-background:new    ;"/>
			
				<linearGradient id="SVGID_3_" gradientUnits="userSpaceOnUse" x1="-28.8301" y1="18.7598" x2="-11.4878" y2="18.7598" gradientTransform="matrix(-0.0447 -0.999 0.999 -0.0447 -1.546368e-005 -9.326115e-004)">
				<stop  offset="0" style="stop-color:#222A02"/>
				<stop  offset="0.1765" style="stop-color:#2C3701"/>
				<stop  offset="0.5059" style="stop-color:#475B00"/>
				<stop  offset="0.5333" style="stop-color:#4A5F00"/>
				<stop  offset="1" style="stop-color:#3B4A00"/>
			</linearGradient>
			<path style="fill-rule:evenodd;clip-rule:evenodd;fill:url(#SVGID_3_);" d="M8.8,18c3.1,1.433,6.684,2.217,10.75,2.35
				c4.066,0.2,7.7-0.3,10.9-1.5v0.4c-0.101,2.267-1.233,4.133-3.4,5.6c-2.166,1.5-4.75,2.183-7.75,2.05
				c-3-0.1-5.517-0.983-7.55-2.65C9.683,22.617,8.7,20.667,8.8,18.4V18z"/>
			<path style="fill-rule:evenodd;clip-rule:evenodd;fill:#222700;" d="M26.95,8.35l-1.7,4.2c-0.134,0.367-0.4,0.633-0.8,0.8
				c-0.367,0.167-0.75,0.183-1.15,0.05c-0.366-0.167-0.633-0.433-0.8-0.8s-0.184-0.733-0.05-1.1l1.7-4.2
				c0.166-0.367,0.433-0.617,0.8-0.75c0.366-0.167,0.733-0.183,1.1-0.05c0.4,0.167,0.684,0.433,0.851,0.8
				C27.1,7.633,27.116,7.983,26.95,8.35z"/>
			<path style="fill-rule:evenodd;clip-rule:evenodd;fill:#887E53;" d="M30,7.65c-0.4,1.033-1.134,1.783-2.2,2.25
				c-1.066,0.434-2.149,0.45-3.25,0.05c-1.1-0.4-1.883-1.117-2.35-2.15c-0.5-1-0.533-2.033-0.101-3.1
				c0.434-1.067,1.184-1.817,2.25-2.25c1.067-0.467,2.15-0.483,3.25-0.05c1.067,0.4,1.851,1.117,2.351,2.15
				C30.417,5.583,30.434,6.617,30,7.65z"/>
			<path style="fill-rule:evenodd;clip-rule:evenodd;fill:#887E53;" d="M30,7.65c-0.4,1.033-1.134,1.783-2.2,2.25
				c-1.066,0.434-2.149,0.45-3.25,0.05c-1.1-0.4-1.883-1.117-2.35-2.15c-0.5-1-0.533-2.033-0.101-3.1
				c0.434-1.067,1.184-1.817,2.25-2.25c1.067-0.467,2.15-0.483,3.25-0.05c1.067,0.4,1.851,1.117,2.351,2.15
				C30.417,5.583,30.434,6.617,30,7.65z"/>
			<path style="fill-rule:evenodd;clip-rule:evenodd;fill:#706844;" d="M29.75,6.15C29.917,5.783,30,5.317,30,4.75
				c0.4,1,0.4,1.967,0,2.9c-0.4,1.033-1.134,1.783-2.2,2.25c-1.066,0.434-2.149,0.45-3.25,0.05c-0.866-0.333-1.533-0.85-2-1.55
				c-0.5-0.7-0.733-1.483-0.7-2.35c0.4,1.133,1.2,1.934,2.4,2.4c1.1,0.4,2.184,0.383,3.25-0.05
				C28.566,7.933,29.316,7.183,29.75,6.15z"/>
			<path style="fill-rule:evenodd;clip-rule:evenodd;fill:#584E1D;" d="M28.5,5.35c-0.267,0.6-0.7,1.033-1.3,1.3
				c-0.601,0.233-1.217,0.233-1.851,0c-0.633-0.233-1.083-0.633-1.35-1.2c-0.267-0.6-0.283-1.2-0.05-1.8s0.666-1.017,1.3-1.25
				c0.6-0.267,1.217-0.283,1.85-0.05c0.634,0.233,1.084,0.633,1.351,1.2C28.717,4.15,28.733,4.75,28.5,5.35z"/>
			<path style="fill-rule:evenodd;clip-rule:evenodd;fill:#222700;" d="M14.7,3.9l1.35,10.2c0.034,0.333-0.066,0.617-0.3,0.85
				c-0.2,0.2-0.467,0.316-0.8,0.35c-0.333,0.034-0.617-0.05-0.85-0.25c-0.233-0.2-0.367-0.45-0.4-0.75L12.35,4.1
				c-0.033-0.3,0.05-0.567,0.25-0.8c0.2-0.233,0.467-0.367,0.8-0.4c0.333-0.033,0.633,0.05,0.9,0.25
				C14.533,3.35,14.667,3.6,14.7,3.9z"/>
			<path style="fill-rule:evenodd;clip-rule:evenodd;fill:#887E53;" d="M16.45,2.95c0.066,0.867-0.184,1.633-0.75,2.3
				c-0.6,0.667-1.35,1.033-2.25,1.1C12.517,6.417,11.7,6.167,11,5.6c-0.7-0.567-1.083-1.283-1.15-2.15
				C9.75,2.583,10,1.817,10.6,1.15c0.6-0.7,1.35-1.083,2.25-1.15c0.933-0.067,1.75,0.183,2.45,0.75C16,1.317,16.383,2.05,16.45,2.95
				z"/>
			<path style="fill-rule:evenodd;clip-rule:evenodd;fill:#706844;" d="M16.45,2.95c0.066,0.867-0.184,1.633-0.75,2.3
				c-0.6,0.667-1.35,1.033-2.25,1.1c-0.767,0.066-1.467-0.1-2.1-0.5S10.267,4.917,10,4.25c0.767,0.733,1.667,1.067,2.7,1
				c0.933-0.067,1.7-0.433,2.3-1.1c0.567-0.7,0.817-1.483,0.75-2.35L15.55,1C16.117,1.567,16.417,2.217,16.45,2.95z"/>
			<path style="fill-rule:evenodd;clip-rule:evenodd;fill:#584E1D;" d="M14.1,1.9c0.066,0.5-0.083,0.934-0.45,1.3
				c-0.333,0.4-0.767,0.617-1.3,0.65c-0.5,0.066-0.95-0.067-1.35-0.4c-0.4-0.333-0.633-0.75-0.7-1.25
				c-0.033-0.5,0.117-0.95,0.45-1.35c0.333-0.367,0.767-0.583,1.3-0.65c0.534-0.034,1,0.117,1.4,0.45
				C13.85,0.983,14.067,1.4,14.1,1.9z"/>
			<path style="fill-rule:evenodd;clip-rule:evenodd;fill:#222700;" d="M14.6,17.3c0.167,0.5,0,0.85-0.5,1.05
				c-0.233,0.066-0.45,0.066-0.65,0c-0.233-0.1-0.383-0.267-0.45-0.5l-0.95-2.35c-0.167-0.533,0-0.883,0.5-1.05
				c0.567-0.167,0.934-0.017,1.1,0.45L14.6,17.3z"/>
			<path style="fill-rule:evenodd;clip-rule:evenodd;fill:#887E53;" d="M14.7,13.9c0.233,0.6,0.2,1.184-0.1,1.75
				c-0.267,0.567-0.717,0.967-1.35,1.2S12,17.067,11.4,16.8c-0.566-0.267-0.983-0.7-1.25-1.3c-0.233-0.6-0.2-1.183,0.1-1.75
				c0.267-0.6,0.717-1,1.35-1.2c0.6-0.233,1.2-0.216,1.8,0.05C14.033,12.867,14.467,13.3,14.7,13.9z"/>
			<path style="fill-rule:evenodd;clip-rule:evenodd;fill:#706844;" d="M14.05,14.95c0.267-0.567,0.284-1.15,0.05-1.75L14,12.95
				c0.333,0.267,0.567,0.583,0.7,0.95c0.233,0.6,0.2,1.184-0.1,1.75c-0.267,0.567-0.717,0.967-1.35,1.2c-0.567,0.2-1.133,0.2-1.7,0
				c-0.566-0.233-0.983-0.6-1.25-1.1c0.733,0.567,1.534,0.7,2.4,0.4C13.333,15.917,13.783,15.517,14.05,14.95z"/>
			<path style="fill-rule:evenodd;clip-rule:evenodd;fill:#584E1D;" d="M13.15,13.55c0.133,0.367,0.117,0.7-0.05,1
				c-0.133,0.333-0.383,0.567-0.75,0.7c-0.333,0.133-0.684,0.117-1.05-0.05c-0.333-0.133-0.583-0.383-0.75-0.75
				c-0.133-0.333-0.117-0.667,0.05-1c0.167-0.333,0.433-0.567,0.8-0.7s0.717-0.117,1.05,0.05
				C12.783,12.967,13.017,13.217,13.15,13.55z"/>
			<path style="fill-rule:evenodd;clip-rule:evenodd;fill:#222700;" d="M20.75,15.2c0.167,0.167,0.233,0.367,0.2,0.6l-0.2,2.55
				c-0.033,0.233-0.134,0.417-0.3,0.55c-0.167,0.167-0.367,0.233-0.601,0.2c-0.6-0.133-0.866-0.45-0.8-0.95l0.25-2.55
				c0-0.233,0.101-0.417,0.3-0.55c0.167-0.133,0.367-0.183,0.601-0.15S20.616,15.033,20.75,15.2z"/>
			<path style="fill-rule:evenodd;clip-rule:evenodd;fill:#887E53;" d="M22.35,15.35c-0.033,0.633-0.316,1.15-0.85,1.55
				c-0.5,0.4-1.083,0.55-1.75,0.45c-0.634-0.067-1.167-0.35-1.6-0.85c-0.4-0.5-0.583-1.067-0.55-1.7
				c0.066-0.633,0.35-1.15,0.85-1.55c0.466-0.4,1.033-0.567,1.7-0.5c0.666,0.067,1.216,0.35,1.649,0.85S22.417,14.683,22.35,15.35z"
				/>
			<path style="fill-rule:evenodd;clip-rule:evenodd;fill:#706844;" d="M22.15,14.45V14.2c0.166,0.4,0.233,0.783,0.199,1.15
				c-0.033,0.633-0.316,1.15-0.85,1.55c-0.5,0.4-1.083,0.55-1.75,0.45c-0.6-0.033-1.1-0.283-1.5-0.75
				c-0.4-0.434-0.617-0.95-0.65-1.55c0.4,0.867,1.05,1.35,1.95,1.45c0.667,0.067,1.25-0.1,1.75-0.5
				C21.833,15.633,22.116,15.117,22.15,14.45z"/>
			<path style="fill-rule:evenodd;clip-rule:evenodd;fill:#584E1D;" d="M21.15,15.05c-0.034,0.367-0.2,0.667-0.5,0.9
				c-0.301,0.233-0.634,0.316-1,0.25c-0.367-0.034-0.667-0.2-0.9-0.5c-0.267-0.267-0.383-0.583-0.35-0.95
				c0.067-0.367,0.233-0.667,0.5-0.9c0.3-0.233,0.633-0.333,1-0.3c0.366,0.067,0.683,0.233,0.949,0.5
				C21.083,14.35,21.184,14.683,21.15,15.05z"/>
			<path style="fill-rule:evenodd;clip-rule:evenodd;fill:#222700;" d="M4.2,13.95l6.25,2.75c0.2,0.1,0.333,0.25,0.4,0.45
				c0.066,0.233,0.05,0.434-0.05,0.6c-0.3,0.467-0.683,0.583-1.15,0.35l-6.2-2.75c-0.2-0.1-0.333-0.25-0.4-0.45
				C2.983,14.667,3,14.45,3.1,14.25c0.1-0.167,0.267-0.283,0.5-0.35C3.8,13.833,4,13.85,4.2,13.95z"/>
			<path style="fill-rule:evenodd;clip-rule:evenodd;fill:#887E53;" d="M3.4,12.05c0.567,0.267,0.934,0.7,1.1,1.3
				c0.2,0.6,0.15,1.167-0.15,1.7c-0.3,0.534-0.75,0.9-1.35,1.1C2.367,16.317,1.767,16.267,1.2,16c-0.567-0.267-0.934-0.7-1.1-1.3
				c-0.2-0.6-0.15-1.167,0.15-1.7S1,12.1,1.6,11.9C2.233,11.733,2.833,11.783,3.4,12.05z"/>
			<path style="fill-rule:evenodd;clip-rule:evenodd;fill:#706844;" d="M3.4,12.05c0.567,0.267,0.934,0.7,1.1,1.3
				c0.2,0.6,0.15,1.167-0.15,1.7c-0.367,0.7-0.95,1.1-1.75,1.2c0.4-0.3,0.683-0.6,0.85-0.9c0.3-0.567,0.367-1.133,0.2-1.7
				c-0.2-0.566-0.583-1-1.15-1.3c-0.5-0.233-0.967-0.3-1.4-0.2C1.833,11.717,2.6,11.683,3.4,12.05z"/>
			<path style="fill-rule:evenodd;clip-rule:evenodd;fill:#584E1D;" d="M2.05,12.9c0.333,0.167,0.55,0.417,0.65,0.75
				c0.1,0.333,0.066,0.65-0.1,0.95c-0.167,0.333-0.434,0.55-0.8,0.65c-0.333,0.1-0.667,0.067-1-0.1
				c-0.333-0.133-0.55-0.383-0.65-0.75c-0.1-0.333-0.066-0.65,0.1-0.95c0.167-0.333,0.433-0.55,0.8-0.65
				C1.383,12.7,1.717,12.733,2.05,12.9z"/>
		</g>
	</g>
</g>
</svg>
