<?xml version="1.0" encoding="iso-8859-1"?>
<!-- Generator: Adobe Illustrator 15.1.0, SVG Export Plug-In . SVG Version: 6.00 Build 0)  -->
<!DOCTYPE svg PUBLIC "-//W3C//DTD SVG 1.1//EN" "http://www.w3.org/Graphics/SVG/1.1/DTD/svg11.dtd">
<svg version="1.1" id="FlashAICB" xmlns="http://www.w3.org/2000/svg" xmlns:xlink="http://www.w3.org/1999/xlink" x="0px" y="0px"
	 width="427px" height="202px" viewBox="0 0 427 202" style="enable-background:new 0 0 427 202;" xml:space="preserve">
<symbol  id="FlashAICB_Assets_x2F_Layer_5_x2F__x3C_Group_x3E_" viewBox="140.55 -213.35 342.8 200.9">
	<g id="Layer_1_3_">
		<g>
			<path style="fill-rule:evenodd;clip-rule:evenodd;fill:#54391D;" d="M452.6-12.45c4.899-0.7,9.099-1.784,12.6-3.25
				c5.128-2.164,11.045-4.005,17.75-5.525v-42.65c-23.291,1.494-49.857,5.019-79.7,10.575c-20.433,3.833-31.767,5.933-34,6.3
				c-11.633,1.967-21.367,3.117-29.2,3.45c-31.667,1.4-53,2.6-64,3.6c-28.566,2.567-55.383,6.934-80.45,13.1
				c-18.8,4.633-33.567,7.383-44.3,8.25c-3.1,0.258-6.55,0.408-10.35,0.45v5.7h150.525c2.82-0.265,5.678-0.548,8.575-0.85
				c18.5-1.934,37.567-2.733,57.2-2.4c11.767,0.2,27.15,1,46.15,2.4c4.462,0.328,8.571,0.611,12.325,0.85H452.6z"/>
			<path style="fill-rule:evenodd;clip-rule:evenodd;fill:#54391D;" d="M451.15-78.3c14.07,1.185,24.804,1.918,32.2,2.2v-46.675
				c-12.868,1.688-27.901,3.93-45.1,6.725c-24.833,4.066-42.667,6.25-53.5,6.55c-33.4,0.867-56.05,1.717-67.95,2.55
				c-30.367,2.1-58.9,6.05-85.6,11.85c-15.8,3.434-28.35,5.667-37.65,6.7c-9.833,1.1-20.316,1.4-31.45,0.9
				c-5.039-0.223-12.223-0.756-21.55-1.6v19.575L173.5-69.3c7.6-0.8,14.783-1.883,21.55-3.25c12.233-2.534,23.233-4.133,33-4.8
				c6.833-0.467,15.833-0.566,27-0.3c14.8,0.367,26,0.517,33.6,0.45c15.9-0.2,33.55-1.117,52.95-2.75
				c19.667-1.633,39.883-2.117,60.65-1.45C414.75-81.033,431.05-80,451.15-78.3z"/>
			<path style="fill-rule:evenodd;clip-rule:evenodd;fill:#54391D;" d="M341.6-179.6c19.667-1.633,39.883-2.133,60.65-1.5
				c12.533,0.4,28.833,1.434,48.9,3.1c13.833,1.163,24.433,1.896,31.8,2.2v-37.55c-5.217,0.107-9.65,0.291-13.3,0.55
				c-20,2.533-35,4.417-45,5.65c-17.867,2.233-32.967,3.7-45.3,4.4c-12.333,0.7-26.7,1.333-43.1,1.9
				c-2,0.067-16.367,0.517-43.1,1.35c-15.1,0.433-29.25,0.717-42.45,0.85c-7.233,1.3-13.733,2.583-19.5,3.85
				c-15.8,3.433-28.35,5.667-37.65,6.7c-9.833,1.1-20.316,1.4-31.45,0.9c-5.023-0.223-12.207-0.748-21.55-1.575v19.55L173.5-169
				c7.133-0.7,14.317-1.783,21.55-3.25c12.233-2.533,23.233-4.133,33-4.8c6.833-0.467,15.833-0.567,27-0.3
				c14.867,0.4,26.067,0.55,33.6,0.45C304.55-177.1,322.2-178,341.6-179.6z"/>
		</g>
	</g>
</symbol>
<symbol  id="FlashAICB_Assets_x2F_Layer_5_x2F__x3C_Group_x3E__x5F_1" viewBox="140.6 -185.325 342.8 185.325">
	<g id="Layer_1_2_">
		<g>
			<path style="fill-rule:evenodd;clip-rule:evenodd;fill:#33271B;" d="M464.2-89.65c6.854-0.085,13.253-0.169,19.2-0.25v-25
				c-5.838,0.213-11.338,0.43-16.5,0.65c-27.1,1.167-53.467,2.833-79.1,5c-15.133,1.267-36.017,3.217-62.65,5.85
				c-17.767,1.733-30.316,2.733-37.65,3c-9.9,0.333-19.2-0.133-27.9-1.4c-8.233-1.233-19.317-3.717-33.25-7.45
				c-23.633-6.367-48.867-10.867-75.7-13.5c-2.655-0.262-5.872-0.537-9.65-0.825v29.55c12.144,1.162,23.443,1.903,33.9,2.225
				c6.767,0.2,16.733,0.233,29.9,0.1c9.9-0.133,17.867,0.083,23.9,0.65c8.667,0.833,18.4,2.65,29.2,5.45
				c5.6,1.467,11.95,2.7,19.05,3.7l58.9,0.55c6.8-0.533,18.65-1.683,35.55-3.45c15.2-1.6,27.133-2.684,35.8-3.25
				C418.533-88.783,437.533-89.317,464.2-89.65z"/>
			<path style="fill-rule:evenodd;clip-rule:evenodd;fill:#33271B;" d="M379.4-174.7c-12.333,0.7-26.7,1.333-43.1,1.9
				c-2,0.066-16.367,0.517-43.1,1.35c-33.367,0.967-62.817,1.167-88.35,0.6c-13.434-0.3-28.783-1.3-46.05-3
				c-1.977-0.196-8.043-0.862-18.2-2v12.975c7.09,0.051,17.041-0.107,29.85-0.475c10.5-0.267,18.95-0.167,25.35,0.3
				c9.2,0.667,19.55,2.3,31.05,4.9c6,1.4,12.767,2.533,20.3,3.4l62.4-0.5c7.133-0.633,19.667-1.983,37.6-4.05
				c16.067-1.867,28.7-3.15,37.9-3.85c12.4-0.967,35.233-1.917,68.5-2.85c10.799-0.295,20.749-0.587,29.85-0.875v-18.45
				c-5.391,0.117-9.958,0.309-13.7,0.575c-20,2.533-35,4.417-45,5.65C406.833-176.867,391.733-175.4,379.4-174.7z"/>
			<path style="fill-rule:evenodd;clip-rule:evenodd;fill:#33271B;" d="M483.4-12.075v-25.35
				c-10.486,0.455-19.169,0.863-26.05,1.225c-32.333,1.733-63.467,4.034-93.4,6.9c-15.934,1.533-38,3.85-66.2,6.95
				c-18.8,2.067-32.1,3.283-39.9,3.65c-10.467,0.534-20.333,0.233-29.6-0.9c-8.733-1.1-20.533-3.4-35.4-6.9
				c-16.745-3.95-34.161-7.067-52.25-9.35V-8.1c6.555,0.057,16.705-0.11,30.45-0.5c10.267-0.267,18.617-0.15,25.05,0.35
				c9.133,0.7,19.383,2.333,30.75,4.9c6.566,1.467,13.333,2.583,20.3,3.35l62.4-0.45c7.167-0.633,19.7-2,37.6-4.1
				c16.1-1.867,28.733-3.15,37.9-3.85c12.3-0.967,35.184-1.9,68.65-2.8C464.429-11.494,474.329-11.786,483.4-12.075z"/>
		</g>
	</g>
</symbol>
<symbol  id="FlashAICB_Assets_x2F_Layer_5_x2F__x3C_Group_x3E__x5F_1_x5F_1" viewBox="0 -40.9 248.25 40.9">
	<g id="Layer_1_47_">
		<g>
			
				<use xlink:href="#FlashAICB_Assets_x2F_Layer_5_x2F__x3C_Path_x3E__x5F_13_x5F_3"  width="46.05" height="16.95" y="-16.95" transform="matrix(1 0 0 1 137.2002 -9.8501)" style="overflow:visible;opacity:0.6992;enable-background:new    ;"/>
			<path style="fill-rule:evenodd;clip-rule:evenodd;fill:#57412C;" d="M129.05,0c4,0,7.417-0.55,10.25-1.65
				c2.8-1.1,4.2-2.434,4.2-4c0-1.567-1.4-2.9-4.2-4c-2.833-1.1-6.25-1.65-10.25-1.65c-3.966,0-7.367,0.55-10.2,1.65
				c-2.8,1.1-4.2,2.433-4.2,4c0,1.566,1.4,2.9,4.2,4C121.683-0.55,125.083,0,129.05,0z"/>
			<path style="fill-rule:evenodd;clip-rule:evenodd;fill:#57412C;" d="M123.65-17.65c1.767,0,3.267-0.233,4.5-0.7
				c1.233-0.5,1.85-1.083,1.85-1.75c0-0.667-0.617-1.25-1.85-1.75c-1.233-0.467-2.733-0.7-4.5-0.7c-1.733,0-3.217,0.233-4.45,0.7
				c-1.233,0.5-1.85,1.083-1.85,1.75c0,0.667,0.617,1.25,1.85,1.75C120.433-17.883,121.917-17.65,123.65-17.65z"/>
			<path style="fill-rule:evenodd;clip-rule:evenodd;fill:#57412C;" d="M127.9-29.45c4.4-1.333,6.6-2.917,6.6-4.75
				c0-1.867-2.2-3.45-6.6-4.75c-4.433-1.3-9.767-1.95-16-1.95s-11.55,0.65-15.95,1.95c-4.4,1.3-6.6,2.883-6.6,4.75
				c0,1.833,2.2,3.417,6.6,4.75c4.4,1.3,9.716,1.95,15.95,1.95S123.467-28.15,127.9-29.45z"/>
			
				<use xlink:href="#FlashAICB_Assets_x2F_Layer_5_x2F__x3C_Path_x3E__x5F_9_x5F_6"  width="32.5" height="11.25" y="-11.25" transform="matrix(1 0 0 1 59.5498 -17.6499)" style="overflow:visible;opacity:0.6992;enable-background:new    ;"/>
			<path style="fill-rule:evenodd;clip-rule:evenodd;fill:#57412C;" d="M41.75-8.3c2.533,0.833,5.617,1.25,9.25,1.25
				c3.6,0,6.683-0.417,9.25-1.25c2.567-0.833,3.85-1.833,3.85-3c0-1.167-1.283-2.15-3.85-2.95C57.683-15.083,54.6-15.5,51-15.5
				s-6.683,0.417-9.25,1.25c-2.567,0.8-3.85,1.783-3.85,2.95C37.9-10.133,39.183-9.133,41.75-8.3z"/>
			<path style="fill-rule:evenodd;clip-rule:evenodd;fill:#57412C;" d="M46.05-21.15c0,0.566,0.483,1.066,1.45,1.5
				c0.967,0.4,2.133,0.6,3.5,0.6s2.533-0.2,3.5-0.6c0.967-0.434,1.45-0.934,1.45-1.5c0-0.567-0.483-1.067-1.45-1.5
				c-0.967-0.4-2.133-0.6-3.5-0.6s-2.533,0.2-3.5,0.6C46.533-22.217,46.05-21.717,46.05-21.15z"/>
			
				<use xlink:href="#FlashAICB_Assets_x2F_Layer_5_x2F__x3C_Path_x3E__x5F_6_x5F_3"  width="11.75" height="4.25" y="-4.25" transform="matrix(1 0 0 1 74 -0.7002)" style="overflow:visible;opacity:0.5;enable-background:new    ;"/>
			
				<use xlink:href="#FlashAICB_Assets_x2F_Layer_5_x2F__x3C_Path_x3E__x5F_5_x5F_7"  width="14.45" height="4.25" y="-4.25" transform="matrix(1 0 0 1 0 -9.1499)" style="overflow:visible;opacity:0.5;enable-background:new    ;"/>
			
				<use xlink:href="#FlashAICB_Assets_x2F_Layer_5_x2F__x3C_Path_x3E__x5F_4_x5F_4"  width="22.55" height="7.75" y="-7.75" transform="matrix(1 0 0 1 188.6499 -30.2998)" style="overflow:visible;opacity:0.5;enable-background:new    ;"/>
			<path style="fill-rule:evenodd;clip-rule:evenodd;fill:#57412C;" d="M185.95-22.55c0,0.566,0.566,1.066,1.7,1.5
				c1.133,0.4,2.517,0.6,4.15,0.6s3.017-0.2,4.15-0.6c1.167-0.434,1.75-0.934,1.75-1.5c0-0.6-0.583-1.1-1.75-1.5
				c-1.133-0.4-2.517-0.6-4.15-0.6s-3.017,0.2-4.15,0.6C186.517-23.65,185.95-23.15,185.95-22.55z"/>
			
				<use xlink:href="#FlashAICB_Assets_x2F_Layer_5_x2F__x3C_Path_x3E__x5F_1_x5F_7"  width="27.1" height="9.15" y="-9.15" transform="matrix(1 0 0 1 221.1504 -19.0498)" style="overflow:visible;opacity:0.6992;enable-background:new    ;"/>
			
				<use xlink:href="#FlashAICB_Assets_x2F_Layer_5_x2F__x3C_Path_x3E__x5F_18"  width="11.75" height="4.55" y="-4.55" transform="matrix(1 0 0 1 27.0498 -16.3999)" style="overflow:visible;opacity:0.6992;enable-background:new    ;"/>
		</g>
	</g>
</symbol>
<symbol  id="FlashAICB_Assets_x2F_Layer_5_x2F__x3C_Group_x3E__x5F_2" viewBox="3.05 -16.2 70.05 16.2">
	<g id="Layer_1_45_">
		<g>
			
				<use xlink:href="#FlashAICB_Assets_x2F_Layer_5_x2F__x3C_Path_x3E__x5F_13_x5F_1"  width="13" height="6.7" y="-6.7" transform="matrix(1 0 0 1 21.3999 -3.8999)" style="overflow:visible;opacity:0.6992;enable-background:new    ;"/>
			<path style="fill-rule:evenodd;clip-rule:evenodd;fill:#57412C;" d="M39.55-0.65c0.8-0.434,1.2-0.967,1.2-1.6
				c0-0.6-0.4-1.117-1.2-1.55c-0.8-0.434-1.767-0.65-2.9-0.65S34.567-4.233,33.8-3.8c-0.8,0.433-1.2,0.95-1.2,1.55
				c0,0.633,0.4,1.167,1.2,1.6C34.567-0.217,35.517,0,36.65,0S38.75-0.217,39.55-0.65z"/>
			<path style="fill-rule:evenodd;clip-rule:evenodd;fill:#57412C;" d="M40-7.95c0-0.267-0.167-0.5-0.5-0.7
				c-0.367-0.2-0.8-0.3-1.3-0.3s-0.917,0.1-1.25,0.3c-0.367,0.2-0.55,0.433-0.55,0.7c0,0.267,0.184,0.5,0.55,0.7
				c0.333,0.2,0.75,0.3,1.25,0.3s0.933-0.1,1.3-0.3C39.833-7.45,40-7.683,40-7.95z"/>
			<path style="fill-rule:evenodd;clip-rule:evenodd;fill:#57412C;" d="M47.9-13.55c0-0.733-0.617-1.35-1.85-1.85
				c-1.267-0.533-2.783-0.8-4.55-0.8c-1.733,0-3.233,0.267-4.5,0.8c-1.233,0.5-1.85,1.117-1.85,1.85c0,0.733,0.617,1.367,1.85,1.9
				c1.233,0.5,2.733,0.75,4.5,0.75c1.8,0,3.317-0.25,4.55-0.75C47.283-12.183,47.9-12.817,47.9-13.55z"/>
			
				<use xlink:href="#FlashAICB_Assets_x2F_Layer_5_x2F__x3C_Path_x3E__x5F_9_x5F_1"  width="9.2" height="4.5" y="-4.5" transform="matrix(1 0 0 1 47.1001 -6.9502)" style="overflow:visible;opacity:0.6992;enable-background:new    ;"/>
			<path style="fill-rule:evenodd;clip-rule:evenodd;fill:#57412C;" d="M62.4-4.45c0-0.466-0.367-0.867-1.1-1.2
				c-0.7-0.333-1.566-0.5-2.6-0.5c-1,0-1.867,0.167-2.6,0.5C55.367-5.317,55-4.917,55-4.45c0,0.434,0.367,0.817,1.1,1.15
				c0.733,0.333,1.6,0.5,2.6,0.5c1.033,0,1.9-0.167,2.6-0.5C62.033-3.6,62.4-3.983,62.4-4.45z"/>
			<path style="fill-rule:evenodd;clip-rule:evenodd;fill:#57412C;" d="M60.1-8.35c0-0.566-0.467-0.85-1.4-0.85
				c-0.367,0-0.7,0.083-1,0.25c-0.267,0.167-0.4,0.367-0.4,0.6s0.133,0.417,0.4,0.55c0.3,0.167,0.633,0.25,1,0.25
				c0.4,0,0.733-0.083,1-0.25C59.967-7.933,60.1-8.117,60.1-8.35z"/>
			
				<use xlink:href="#FlashAICB_Assets_x2F_Layer_5_x2F__x3C_Path_x3E__x5F_6_x5F_1"  width="3.3" height="1.7" y="-1.7" transform="matrix(1 0 0 1 48.8999 -0.25)" style="overflow:visible;opacity:0.5;enable-background:new    ;"/>
			
				<use xlink:href="#FlashAICB_Assets_x2F_Layer_5_x2F__x3C_Path_x3E__x5F_5_x5F_2"  width="4.05" height="1.7" y="-1.7" transform="matrix(1 0 0 1 69.0498 -3.6001)" style="overflow:visible;opacity:0.5;enable-background:new    ;"/>
			
				<use xlink:href="#FlashAICB_Assets_x2F_Layer_5_x2F__x3C_Path_x3E__x5F_4_x5F_2"  width="6.35" height="3.05" y="-3.05" transform="matrix(1 0 0 1 13.5 -12)" style="overflow:visible;opacity:0.5;enable-background:new    ;"/>
			<path style="fill-rule:evenodd;clip-rule:evenodd;fill:#57412C;" d="M20.6-8.95c0-0.533-0.55-0.8-1.65-0.8
				c-0.467,0-0.85,0.083-1.15,0.25c-0.333,0.133-0.5,0.317-0.5,0.55c0,0.233,0.167,0.434,0.5,0.6c0.3,0.167,0.684,0.25,1.15,0.25
				c0.466,0,0.867-0.083,1.2-0.25C20.45-8.517,20.6-8.717,20.6-8.95z"/>
			
				<use xlink:href="#FlashAICB_Assets_x2F_Layer_5_x2F__x3C_Path_x3E__x5F_1_x5F_3"  width="7.65" height="3.6" y="-3.6" transform="matrix(1 0 0 1 3.0498 -7.5498)" style="overflow:visible;opacity:0.6992;enable-background:new    ;"/>
			
				<use xlink:href="#FlashAICB_Assets_x2F_Layer_5_x2F__x3C_Path_x3E__x5F_11"  width="3.3" height="1.8" y="-1.8" transform="matrix(1 0 0 1 62.1499 -6.5)" style="overflow:visible;opacity:0.6992;enable-background:new    ;"/>
		</g>
	</g>
</symbol>
<symbol  id="FlashAICB_Assets_x2F_Layer_5_x2F__x3C_Group_x3E__x5F_2_x5F_0" viewBox="0 -16.2 73.15 16.2">
	<g id="Layer_1_46_">
		<g>
			
				<use xlink:href="#FlashAICB_Assets_x2F_Layer_5_x2F__x3C_Path_x3E__x5F_13_x5F_2"  width="13" height="6.7" y="-6.7" transform="matrix(1 0 0 1 21.3999 -3.8999)" style="overflow:visible;opacity:0.6992;enable-background:new    ;"/>
			<path style="fill-rule:evenodd;clip-rule:evenodd;fill:#57412C;" d="M39.55-0.65c0.8-0.434,1.2-0.967,1.2-1.6
				c0-0.6-0.4-1.117-1.2-1.55c-0.767-0.434-1.716-0.65-2.85-0.65s-2.1,0.217-2.9,0.65c-0.8,0.433-1.2,0.95-1.2,1.55
				c0,0.633,0.4,1.167,1.2,1.6C34.6-0.217,35.567,0,36.7,0S38.783-0.217,39.55-0.65z"/>
			<path style="fill-rule:evenodd;clip-rule:evenodd;fill:#57412C;" d="M40-7.95c0-0.267-0.167-0.5-0.5-0.7
				c-0.367-0.2-0.783-0.3-1.25-0.3c-0.5,0-0.917,0.1-1.25,0.3c-0.367,0.2-0.55,0.433-0.55,0.7c0,0.267,0.183,0.5,0.55,0.7
				c0.333,0.2,0.75,0.3,1.25,0.3c0.467,0,0.883-0.1,1.25-0.3C39.833-7.45,40-7.683,40-7.95z"/>
			<path style="fill-rule:evenodd;clip-rule:evenodd;fill:#57412C;" d="M47.9-13.55c0-0.733-0.617-1.35-1.85-1.85
				c-1.267-0.533-2.767-0.8-4.5-0.8c-1.767,0-3.283,0.267-4.55,0.8c-1.233,0.5-1.85,1.117-1.85,1.85c0,0.733,0.617,1.367,1.85,1.9
				c1.267,0.5,2.783,0.75,4.55,0.75c1.767,0,3.267-0.25,4.5-0.75C47.283-12.183,47.9-12.817,47.9-13.55z"/>
			
				<use xlink:href="#FlashAICB_Assets_x2F_Layer_5_x2F__x3C_Path_x3E__x5F_9_x5F_5"  width="9.15" height="4.5" y="-4.5" transform="matrix(1 0 0 1 47.1499 -6.9502)" style="overflow:visible;opacity:0.6992;enable-background:new    ;"/>
			<path style="fill-rule:evenodd;clip-rule:evenodd;fill:#57412C;" d="M62.45-4.45c0-0.466-0.367-0.867-1.1-1.2
				c-0.7-0.333-1.567-0.5-2.6-0.5s-1.9,0.167-2.6,0.5c-0.733,0.333-1.1,0.733-1.1,1.2c0,0.467,0.367,0.85,1.1,1.15
				c0.7,0.333,1.567,0.5,2.6,0.5s1.9-0.167,2.6-0.5C62.083-3.6,62.45-3.983,62.45-4.45z"/>
			<path style="fill-rule:evenodd;clip-rule:evenodd;fill:#57412C;" d="M60.15-8.35c0-0.233-0.133-0.433-0.4-0.6
				c-0.267-0.167-0.6-0.25-1-0.25s-0.733,0.083-1,0.25c-0.267,0.167-0.4,0.367-0.4,0.6c0,0.533,0.467,0.8,1.4,0.8
				c0.367,0,0.7-0.083,1-0.25C60.017-7.933,60.15-8.117,60.15-8.35z"/>
			
				<use xlink:href="#FlashAICB_Assets_x2F_Layer_5_x2F__x3C_Path_x3E__x5F_6_x5F_2"  width="3.3" height="1.7" y="-1.7" transform="matrix(1 0 0 1 48.9502 -0.25)" style="overflow:visible;opacity:0.5;enable-background:new    ;"/>
			
				<use xlink:href="#FlashAICB_Assets_x2F_Layer_5_x2F__x3C_Path_x3E__x5F_5_x5F_6"  width="4.1" height="1.7" y="-1.7" transform="matrix(1 0 0 1 69.0498 -3.6001)" style="overflow:visible;opacity:0.5;enable-background:new    ;"/>
			
				<use xlink:href="#FlashAICB_Assets_x2F_Layer_5_x2F__x3C_Path_x3E__x5F_4_x5F_3"  width="6.4" height="3.05" y="-3.05" transform="matrix(1 0 0 1 13.5 -12)" style="overflow:visible;opacity:0.5;enable-background:new    ;"/>
			<path style="fill-rule:evenodd;clip-rule:evenodd;fill:#57412C;" d="M20.65-8.95c0-0.233-0.167-0.417-0.5-0.55
				c-0.3-0.167-0.683-0.25-1.15-0.25c-1.1,0-1.65,0.267-1.65,0.8c0,0.233,0.15,0.434,0.45,0.6C18.133-8.183,18.533-8.1,19-8.1
				s0.85-0.083,1.15-0.25C20.483-8.517,20.65-8.717,20.65-8.95z"/>
			<path style="fill-rule:evenodd;clip-rule:evenodd;fill:#57412C;" d="M3.3-13.55c0-0.267-0.167-0.483-0.5-0.65
				c-0.333-0.2-0.716-0.3-1.15-0.3c-0.433,0-0.816,0.1-1.15,0.3C0.167-14.033,0-13.817,0-13.55c0,0.267,0.167,0.5,0.5,0.7
				c0.333,0.2,0.717,0.3,1.15,0.3c0.467,0,0.85-0.1,1.15-0.3C3.133-13.05,3.3-13.283,3.3-13.55z"/>
			
				<use xlink:href="#FlashAICB_Assets_x2F_Layer_5_x2F__x3C_Path_x3E__x5F_1_x5F_6"  width="7.65" height="3.6" y="-3.6" transform="matrix(1 0 0 1 3.0498 -7.5498)" style="overflow:visible;opacity:0.6992;enable-background:new    ;"/>
			
				<use xlink:href="#FlashAICB_Assets_x2F_Layer_5_x2F__x3C_Path_x3E__x5F_17"  width="3.3" height="1.8" y="-1.8" transform="matrix(1 0 0 1 62.2002 -6.5)" style="overflow:visible;opacity:0.6992;enable-background:new    ;"/>
		</g>
	</g>
</symbol>
<symbol  id="FlashAICB_Assets_x2F_Layer_5_x2F__x3C_Group_x3E__x5F_3" viewBox="32.5 -40.9 199.5 40.9">
	<g id="Layer_1_44_">
		<g>
			
				<use xlink:href="#FlashAICB_Assets_x2F_Layer_5_x2F__x3C_Path_x3E__x5F_12"  width="46" height="16.9" y="-16.9" transform="matrix(1 0 0 1 110.1499 -9.8999)" style="overflow:visible;opacity:0.6992;enable-background:new    ;"/>
			<path style="fill-rule:evenodd;clip-rule:evenodd;fill:#57412C;" d="M87.55-5.65c0,1.533,1.417,2.867,4.25,4
				C94.633-0.55,98.033,0,102,0c4,0,7.417-0.55,10.25-1.65c2.8-1.1,4.2-2.434,4.2-4c0-1.567-1.4-2.9-4.2-4
				c-2.833-1.1-6.25-1.65-10.25-1.65c-3.967,0-7.367,0.55-10.2,1.65C88.967-8.55,87.55-7.217,87.55-5.65z"/>
			<path style="fill-rule:evenodd;clip-rule:evenodd;fill:#57412C;" d="M90.3-20.1c0,0.667,0.617,1.25,1.85,1.75
				c1.233,0.467,2.717,0.7,4.45,0.7s3.217-0.233,4.45-0.7c1.233-0.5,1.85-1.083,1.85-1.75c0-0.667-0.617-1.25-1.85-1.75
				c-1.233-0.467-2.716-0.7-4.45-0.7s-3.217,0.233-4.45,0.7C90.917-21.35,90.3-20.767,90.3-20.1z"/>
			<path style="fill-rule:evenodd;clip-rule:evenodd;fill:#57412C;" d="M84.85-27.5c6.233,0,11.55-0.65,15.95-1.95
				c4.434-1.333,6.65-2.917,6.65-4.75c0-1.867-2.217-3.45-6.65-4.75c-4.4-1.3-9.716-1.95-15.95-1.95S73.3-40.25,68.9-38.95
				c-4.4,1.3-6.6,2.883-6.6,4.75c0,1.833,2.2,3.417,6.6,4.75C73.3-28.15,78.617-27.5,84.85-27.5z"/>
			
				<use xlink:href="#FlashAICB_Assets_x2F_Layer_5_x2F__x3C_Path_x3E__x5F_8"  width="32.5" height="11.25" y="-11.25" transform="matrix(1 0 0 1 32.5 -17.6499)" style="overflow:visible;opacity:0.6992;enable-background:new    ;"/>
			
				<use xlink:href="#FlashAICB_Assets_x2F_Layer_5_x2F__x3C_Path_x3E__x5F_5_x5F_1"  width="11.75" height="4.25" y="-4.25" transform="matrix(1 0 0 1 46.9502 -0.7002)" style="overflow:visible;opacity:0.5;enable-background:new    ;"/>
			
				<use xlink:href="#FlashAICB_Assets_x2F_Layer_5_x2F__x3C_Path_x3E__x5F_4_x5F_1"  width="22.55" height="7.8" y="-7.8" transform="matrix(1 0 0 1 161.6001 -30.2998)" style="overflow:visible;opacity:0.5;enable-background:new    ;"/>
			<path style="fill-rule:evenodd;clip-rule:evenodd;fill:#57412C;" d="M164.75-20.45c1.633,0,3.017-0.2,4.15-0.6
				c1.133-0.434,1.7-0.934,1.7-1.5c0-0.6-0.567-1.117-1.7-1.55c-1.133-0.4-2.517-0.6-4.15-0.6s-3.017,0.2-4.15,0.6
				c-1.133,0.434-1.7,0.95-1.7,1.55c0,0.566,0.567,1.066,1.7,1.5C161.733-20.65,163.117-20.45,164.75-20.45z"/>
			<path style="fill-rule:evenodd;clip-rule:evenodd;fill:#57412C;" d="M220.25-34.2c0,0.667,0.583,1.25,1.75,1.75
				c1.133,0.467,2.517,0.7,4.15,0.7c1.6,0,2.983-0.233,4.15-0.7c1.133-0.5,1.7-1.083,1.7-1.75c0-0.667-0.567-1.25-1.7-1.75
				c-1.167-0.466-2.55-0.7-4.15-0.7c-1.633,0-3.017,0.233-4.15,0.7C220.833-35.45,220.25-34.867,220.25-34.2z"/>
			
				<use xlink:href="#FlashAICB_Assets_x2F_Layer_5_x2F__x3C_Path_x3E__x5F_1_x5F_2"  width="27.05" height="9.15" y="-9.15" transform="matrix(1 0 0 1 194.1001 -19.0498)" style="overflow:visible;opacity:0.6992;enable-background:new    ;"/>
		</g>
	</g>
</symbol>
<symbol  id="FlashAICB_Assets_x2F_Layer_5_x2F__x3C_Group_x3E__x5F_5" viewBox="45.15 -49.15 199.25 49.15">
	<g id="Layer_1_43_">
		<g>
			
				<use xlink:href="#FlashAICB_Assets_x2F_Layer_5_x2F__x3C_Path_x3E__x5F_13"  width="18.6" height="14.95" y="-14.95" transform="matrix(1 0 0 1 71.5498 -8.7002)" style="overflow:visible;opacity:0.6992;enable-background:new    ;"/>
			<path style="fill-rule:evenodd;clip-rule:evenodd;fill:#57412C;" d="M99.25-5c0-1.367-0.567-2.533-1.7-3.5s-2.517-1.45-4.15-1.45
				c-1.6,0-2.967,0.483-4.1,1.45S87.6-6.367,87.6-5s0.566,2.55,1.7,3.55C90.433-0.483,91.8,0,93.4,0c1.633,0,3.017-0.483,4.15-1.45
				C98.683-2.45,99.25-3.633,99.25-5z"/>
			<path style="fill-rule:evenodd;clip-rule:evenodd;fill:#57412C;" d="M133.7-26.6c0-0.9-0.583-1.667-1.75-2.3
				c-1.133-0.633-2.534-0.95-4.2-0.95s-3.083,0.317-4.25,0.95s-1.75,1.4-1.75,2.3s0.583,1.667,1.75,2.3c1.2,0.667,2.617,1,4.25,1
				s3.033-0.333,4.2-1C133.117-24.933,133.7-25.7,133.7-26.6z"/>
			<path style="fill-rule:evenodd;clip-rule:evenodd;fill:#57412C;" d="M93.85-34.35c-1.733,1.2-2.6,2.6-2.6,4.2
				c0,1.633,0.883,3.017,2.65,4.15c1.767,1.167,3.917,1.75,6.45,1.75s4.683-0.583,6.45-1.75c1.767-1.133,2.65-2.517,2.65-4.15
				c0-1.167-0.467-2.233-1.4-3.2c-0.9-0.933-2.133-1.65-3.7-2.15C101.55-35.1,98.05-34.717,93.85-34.35z"/>
			
				<use xlink:href="#FlashAICB_Assets_x2F_Layer_5_x2F__x3C_Path_x3E__x5F_9"  width="13.1" height="9.95" y="-9.95" transform="matrix(1 0 0 1 108.3999 -15.5498)" style="overflow:visible;opacity:0.6992;enable-background:new    ;"/>
			<path style="fill-rule:evenodd;clip-rule:evenodd;fill:#57412C;" d="M130.25-9.95c0-1.033-0.517-1.917-1.55-2.65
				c-1.034-0.733-2.267-1.1-3.7-1.1c-1.467,0-2.717,0.367-3.75,1.1s-1.55,1.617-1.55,2.65c0,1.034,0.517,1.917,1.55,2.65
				c1.033,0.733,2.283,1.1,3.75,1.1c1.433,0,2.667-0.367,3.7-1.1C129.733-8.033,130.25-8.917,130.25-9.95z"/>
			<path style="fill-rule:evenodd;clip-rule:evenodd;fill:#57412C;" d="M200.95-28c0-0.767-0.45-1.417-1.35-1.95
				c-0.934-0.566-2.033-0.85-3.3-0.85c-1.3,0-2.4,0.283-3.3,0.85c-0.933,0.534-1.4,1.184-1.4,1.95s0.467,1.433,1.4,2
				c0.9,0.533,2,0.8,3.3,0.8c1.267,0,2.367-0.267,3.3-0.8C200.5-26.567,200.95-27.233,200.95-28z"/>
			
				<use xlink:href="#FlashAICB_Assets_x2F_Layer_5_x2F__x3C_Path_x3E__x5F_6"  width="11.05" height="5.6" y="-5.6" transform="matrix(1 0 0 1 163.5 -0.9502)" style="overflow:visible;opacity:0.5;enable-background:new    ;"/>
			
				<use xlink:href="#FlashAICB_Assets_x2F_Layer_5_x2F__x3C_Path_x3E__x5F_5"  width="13.6" height="5.55" y="-5.55" transform="matrix(1 0 0 1 230.7998 -12.1499)" style="overflow:visible;opacity:0.5;enable-background:new    ;"/>
			
				<use xlink:href="#FlashAICB_Assets_x2F_Layer_5_x2F__x3C_Path_x3E__x5F_4"  width="21.25" height="9.05" y="-9.05" transform="matrix(1 0 0 1 45.1499 -40.1001)" style="overflow:visible;opacity:0.5;enable-background:new    ;"/>
			<path style="fill-rule:evenodd;clip-rule:evenodd;fill:#57412C;" d="M69-29.85c0-0.767-0.55-1.433-1.65-2
				c-1.067-0.533-2.367-0.8-3.9-0.8c-1.534,0-2.833,0.267-3.9,0.8c-1.1,0.567-1.65,1.233-1.65,2s0.55,1.434,1.65,2
				c1.067,0.533,2.367,0.8,3.9,0.8c1.533,0,2.833-0.267,3.9-0.8C68.45-28.417,69-29.083,69-29.85z"/>
			
				<use xlink:href="#FlashAICB_Assets_x2F_Layer_5_x2F__x3C_Path_x3E__x5F_3"  width="11.05" height="6.05" y="-6.05" transform="matrix(1 0 0 1 207.7998 -21.7002)" style="overflow:visible;opacity:0.6992;enable-background:new    ;"/>
		</g>
	</g>
</symbol>
<symbol  id="FlashAICB_Assets_x2F_Layer_5_x2F__x3C_Group_x3E__x5F_6" viewBox="0 -16.15 73.15 16.15">
	<g id="Layer_1_48_">
		<g>
			
				<use xlink:href="#FlashAICB_Assets_x2F_Layer_5_x2F__x3C_Path_x3E__x5F_13_x5F_4"  width="13" height="6.7" y="-6.7" transform="matrix(1 0 0 1 21.3999 -3.8999)" style="overflow:visible;opacity:0.6992;enable-background:new    ;"/>
			<path style="fill-rule:evenodd;clip-rule:evenodd;fill:#57412C;" d="M39.55-0.65c0.8-0.434,1.2-0.95,1.2-1.55
				c0-0.633-0.4-1.167-1.2-1.6c-0.767-0.434-1.716-0.65-2.85-0.65s-2.1,0.217-2.9,0.65c-0.8,0.433-1.2,0.966-1.2,1.6
				c0,0.6,0.4,1.117,1.2,1.55C34.6-0.217,35.567,0,36.7,0S38.783-0.217,39.55-0.65z"/>
			<path style="fill-rule:evenodd;clip-rule:evenodd;fill:#57412C;" d="M40-7.95c0-0.267-0.167-0.483-0.5-0.65
				c-0.367-0.2-0.783-0.3-1.25-0.3c-0.5,0-0.917,0.1-1.25,0.3c-0.367,0.167-0.55,0.383-0.55,0.65c0,0.267,0.183,0.5,0.55,0.7
				c0.333,0.2,0.75,0.3,1.25,0.3c0.467,0,0.883-0.1,1.25-0.3C39.833-7.45,40-7.683,40-7.95z"/>
			<path style="fill-rule:evenodd;clip-rule:evenodd;fill:#57412C;" d="M47.9-13.5c0-0.733-0.617-1.367-1.85-1.9
				c-1.233-0.5-2.733-0.75-4.5-0.75c-1.767,0-3.283,0.25-4.55,0.75c-1.233,0.533-1.85,1.167-1.85,1.9s0.617,1.35,1.85,1.85
				c1.267,0.533,2.783,0.8,4.55,0.8c1.733,0,3.233-0.267,4.5-0.8C47.283-12.15,47.9-12.767,47.9-13.5z"/>
			
				<use xlink:href="#FlashAICB_Assets_x2F_Layer_5_x2F__x3C_Path_x3E__x5F_9_x5F_7"  width="9.15" height="4.45" y="-4.45" transform="matrix(1 0 0 1 47.1499 -6.9502)" style="overflow:visible;opacity:0.6992;enable-background:new    ;"/>
			<path style="fill-rule:evenodd;clip-rule:evenodd;fill:#57412C;" d="M62.45-4.45c0-0.466-0.367-0.85-1.1-1.15
				c-0.7-0.333-1.567-0.5-2.6-0.5s-1.9,0.167-2.6,0.5c-0.733,0.3-1.1,0.684-1.1,1.15c0,0.467,0.367,0.867,1.1,1.2
				c0.7,0.333,1.567,0.5,2.6,0.5s1.9-0.167,2.6-0.5C62.083-3.583,62.45-3.983,62.45-4.45z"/>
			<path style="fill-rule:evenodd;clip-rule:evenodd;fill:#57412C;" d="M60.15-8.35c0-0.233-0.133-0.433-0.4-0.6
				c-0.3-0.167-0.633-0.25-1-0.25c-0.4,0-0.733,0.083-1,0.25c-0.267,0.167-0.4,0.367-0.4,0.6s0.133,0.434,0.4,0.6s0.6,0.25,1,0.25
				c0.367,0,0.7-0.083,1-0.25C60.017-7.917,60.15-8.117,60.15-8.35z"/>
			
				<use xlink:href="#FlashAICB_Assets_x2F_Layer_5_x2F__x3C_Path_x3E__x5F_6_x5F_4"  width="3.3" height="1.7" y="-1.7" transform="matrix(1 0 0 1 48.9502 -0.25)" style="overflow:visible;opacity:0.5;enable-background:new    ;"/>
			
				<use xlink:href="#FlashAICB_Assets_x2F_Layer_5_x2F__x3C_Path_x3E__x5F_5_x5F_8"  width="4.1" height="1.7" y="-1.7" transform="matrix(1 0 0 1 69.0498 -3.6001)" style="overflow:visible;opacity:0.5;enable-background:new    ;"/>
			
				<use xlink:href="#FlashAICB_Assets_x2F_Layer_5_x2F__x3C_Path_x3E__x5F_4_x5F_5"  width="6.4" height="3.05" y="-3.05" transform="matrix(1 0 0 1 13.5 -12)" style="overflow:visible;opacity:0.5;enable-background:new    ;"/>
			<path style="fill-rule:evenodd;clip-rule:evenodd;fill:#57412C;" d="M20.65-8.9c0-0.233-0.167-0.434-0.5-0.6
				C19.817-9.667,19.433-9.75,19-9.75c-0.467,0-0.867,0.083-1.2,0.25c-0.3,0.167-0.45,0.367-0.45,0.6s0.15,0.433,0.45,0.6
				c0.333,0.167,0.733,0.25,1.2,0.25c0.433,0,0.817-0.083,1.15-0.25C20.483-8.467,20.65-8.667,20.65-8.9z"/>
			<path style="fill-rule:evenodd;clip-rule:evenodd;fill:#57412C;" d="M3.3-13.5c0-0.267-0.167-0.5-0.5-0.7
				c-0.3-0.2-0.683-0.3-1.15-0.3c-0.433,0-0.816,0.1-1.15,0.3C0.167-14,0-13.767,0-13.5s0.167,0.483,0.5,0.65
				c0.333,0.2,0.717,0.3,1.15,0.3c0.434,0,0.817-0.1,1.15-0.3C3.133-13.017,3.3-13.233,3.3-13.5z"/>
			
				<use xlink:href="#FlashAICB_Assets_x2F_Layer_5_x2F__x3C_Path_x3E__x5F_1_x5F_8"  width="7.65" height="3.65" y="-3.65" transform="matrix(1 0 0 1 3.0498 -7.5)" style="overflow:visible;opacity:0.6992;enable-background:new    ;"/>
			
				<use xlink:href="#FlashAICB_Assets_x2F_Layer_5_x2F__x3C_Path_x3E__x5F_19"  width="3.3" height="1.85" y="-1.85" transform="matrix(1 0 0 1 62.2002 -6.4502)" style="overflow:visible;opacity:0.6992;enable-background:new    ;"/>
		</g>
	</g>
</symbol>
<symbol  id="FlashAICB_Assets_x2F_Layer_5_x2F__x3C_Path_x3E__x5F_11" viewBox="0 -1.8 3.3 1.8">
	<g id="Layer_1_21_">
		<path style="fill-rule:evenodd;clip-rule:evenodd;fill:#57412C;" d="M3.3-0.9c0-0.267-0.15-0.483-0.45-0.65
			C2.517-1.717,2.117-1.8,1.65-1.8S0.8-1.717,0.5-1.55C0.167-1.35,0-1.133,0-0.9s0.167,0.45,0.5,0.65C0.8-0.083,1.183,0,1.65,0
			s0.867-0.083,1.2-0.25C3.15-0.417,3.3-0.633,3.3-0.9z"/>
	</g>
</symbol>
<symbol  id="FlashAICB_Assets_x2F_Layer_5_x2F__x3C_Path_x3E__x5F_12" viewBox="0 -16.9 46 16.9">
	<g id="Layer_1_10_">
		<path style="fill-rule:evenodd;clip-rule:evenodd;fill:#57412C;" d="M0-8.45c0,2.333,2.25,4.333,6.75,6
			C11.217-0.817,16.633,0,23,0s11.783-0.817,16.25-2.45c4.5-1.667,6.75-3.667,6.75-6c0-2.333-2.25-4.316-6.75-5.95
			c-4.5-1.667-9.917-2.5-16.25-2.5s-11.75,0.833-16.25,2.5C2.25-12.767,0-10.783,0-8.45z"/>
	</g>
</symbol>
<symbol  id="FlashAICB_Assets_x2F_Layer_5_x2F__x3C_Path_x3E__x5F_13" viewBox="0 -14.95 18.6 14.95">
	<g id="Layer_1_4_">
		<path style="fill-rule:evenodd;clip-rule:evenodd;fill:#57412C;" d="M18.6-7.5c0-2.033-0.917-3.783-2.75-5.25
			c-1.8-1.467-3.983-2.2-6.55-2.2c-2.566,0-4.767,0.733-6.6,2.2C0.9-11.317,0-9.567,0-7.5s0.9,3.833,2.7,5.3
			C4.533-0.733,6.733,0,9.3,0c2.567,0,4.75-0.733,6.55-2.2C17.683-3.667,18.6-5.433,18.6-7.5z"/>
	</g>
</symbol>
<symbol  id="FlashAICB_Assets_x2F_Layer_5_x2F__x3C_Path_x3E__x5F_13_x5F_1" viewBox="0 -6.7 13 6.7">
	<g id="Layer_1_15_">
		<path style="fill-rule:evenodd;clip-rule:evenodd;fill:#57412C;" d="M13-3.35c0-0.933-0.633-1.717-1.9-2.35
			c-1.3-0.667-2.833-1-4.6-1c-1.8,0-3.333,0.333-4.6,1C0.633-5.067,0-4.283,0-3.35C0-2.417,0.633-1.633,1.9-1
			c1.267,0.667,2.8,1,4.6,1c1.767,0,3.3-0.333,4.6-1C12.367-1.633,13-2.417,13-3.35z"/>
	</g>
</symbol>
<symbol  id="FlashAICB_Assets_x2F_Layer_5_x2F__x3C_Path_x3E__x5F_13_x5F_2" viewBox="0 -6.7 13 6.7">
	<g id="Layer_1_22_">
		<path style="fill-rule:evenodd;clip-rule:evenodd;fill:#57412C;" d="M13-3.35c0-0.933-0.633-1.717-1.9-2.35
			c-1.267-0.667-2.8-1-4.6-1s-3.333,0.333-4.6,1C0.633-5.067,0-4.283,0-3.35C0-2.417,0.633-1.633,1.9-1c1.267,0.667,2.8,1,4.6,1
			s3.333-0.333,4.6-1C12.367-1.633,13-2.417,13-3.35z"/>
	</g>
</symbol>
<symbol  id="FlashAICB_Assets_x2F_Layer_5_x2F__x3C_Path_x3E__x5F_13_x5F_3" viewBox="0 -16.95 46.05 16.95">
	<g id="Layer_1_29_">
		<path style="fill-rule:evenodd;clip-rule:evenodd;fill:#57412C;" d="M0-8.5c0,2.333,2.25,4.333,6.75,6C11.217-0.833,16.633,0,23,0
			s11.8-0.833,16.3-2.5s6.75-3.667,6.75-6s-2.25-4.317-6.75-5.95c-4.5-1.667-9.933-2.5-16.3-2.5c-6.333,0-11.75,0.833-16.25,2.5
			C2.25-12.817,0-10.833,0-8.5z"/>
	</g>
</symbol>
<symbol  id="FlashAICB_Assets_x2F_Layer_5_x2F__x3C_Path_x3E__x5F_13_x5F_4" viewBox="0 -6.7 13 6.7">
	<g id="Layer_1_36_">
		<path style="fill-rule:evenodd;clip-rule:evenodd;fill:#57412C;" d="M13-3.35c0-0.933-0.633-1.717-1.9-2.35
			c-1.267-0.667-2.8-1-4.6-1s-3.333,0.333-4.6,1C0.633-5.067,0-4.283,0-3.35C0-2.417,0.633-1.633,1.9-1c1.267,0.667,2.8,1,4.6,1
			s3.333-0.333,4.6-1C12.367-1.633,13-2.417,13-3.35z"/>
	</g>
</symbol>
<symbol  id="FlashAICB_Assets_x2F_Layer_5_x2F__x3C_Path_x3E__x5F_17" viewBox="0 -1.8 3.3 1.8">
	<g id="Layer_1_28_">
		<path style="fill-rule:evenodd;clip-rule:evenodd;fill:#57412C;" d="M3.3-0.9c0-0.267-0.167-0.483-0.5-0.65
			C2.5-1.717,2.117-1.8,1.65-1.8s-0.867,0.083-1.2,0.25C0.15-1.383,0-1.167,0-0.9s0.15,0.483,0.45,0.65C0.783-0.083,1.183,0,1.65,0
			S2.5-0.083,2.8-0.25C3.133-0.45,3.3-0.667,3.3-0.9z"/>
	</g>
</symbol>
<symbol  id="FlashAICB_Assets_x2F_Layer_5_x2F__x3C_Path_x3E__x5F_18" viewBox="0 -4.55 11.75 4.55">
	<g id="Layer_1_35_">
		<path style="fill-rule:evenodd;clip-rule:evenodd;fill:#57412C;" d="M0-2.3c0,0.633,0.583,1.183,1.75,1.65
			C2.883-0.217,4.267,0,5.9,0s3.017-0.217,4.15-0.65c1.133-0.467,1.7-1.017,1.7-1.65s-0.567-1.167-1.7-1.6
			C8.917-4.333,7.533-4.55,5.9-4.55S2.883-4.333,1.75-3.9C0.583-3.467,0-2.933,0-2.3z"/>
	</g>
</symbol>
<symbol  id="FlashAICB_Assets_x2F_Layer_5_x2F__x3C_Path_x3E__x5F_19" viewBox="0 -1.85 3.3 1.85">
	<g id="Layer_1_42_">
		<path style="fill-rule:evenodd;clip-rule:evenodd;fill:#57412C;" d="M3.3-0.9c0-0.267-0.167-0.5-0.5-0.7
			C2.5-1.767,2.117-1.85,1.65-1.85S0.783-1.767,0.45-1.6C0.15-1.4,0-1.167,0-0.9s0.15,0.483,0.45,0.65C0.783-0.083,1.183,0,1.65,0
			S2.5-0.083,2.8-0.25C3.133-0.45,3.3-0.667,3.3-0.9z"/>
	</g>
</symbol>
<symbol  id="FlashAICB_Assets_x2F_Layer_5_x2F__x3C_Path_x3E__x5F_1_x5F_2" viewBox="0 -9.15 27.05 9.15">
	<g id="Layer_1_14_">
		<path style="fill-rule:evenodd;clip-rule:evenodd;fill:#57412C;" d="M0-4.6c0,1.267,1.317,2.35,3.95,3.25S9.767,0,13.5,0
			c3.767,0,6.967-0.45,9.6-1.35s3.95-1.983,3.95-3.25s-1.316-2.333-3.95-3.2c-2.667-0.9-5.867-1.35-9.6-1.35S6.583-8.7,3.95-7.8
			C1.317-6.933,0-5.867,0-4.6z"/>
	</g>
</symbol>
<symbol  id="FlashAICB_Assets_x2F_Layer_5_x2F__x3C_Path_x3E__x5F_1_x5F_3" viewBox="0 -3.6 7.65 3.6">
	<g id="Layer_1_20_">
		<path style="fill-rule:evenodd;clip-rule:evenodd;fill:#57412C;" d="M7.65-1.8c0-0.5-0.383-0.934-1.15-1.3
			C5.767-3.433,4.867-3.6,3.8-3.6c-1.066,0-1.966,0.167-2.7,0.5C0.367-2.733,0-2.3,0-1.8s0.367,0.917,1.1,1.25
			C1.833-0.183,2.733,0,3.8,0c1.067,0,1.967-0.183,2.7-0.55C7.267-0.883,7.65-1.3,7.65-1.8z"/>
	</g>
</symbol>
<symbol  id="FlashAICB_Assets_x2F_Layer_5_x2F__x3C_Path_x3E__x5F_1_x5F_6" viewBox="0 -3.6 7.65 3.6">
	<g id="Layer_1_27_">
		<path style="fill-rule:evenodd;clip-rule:evenodd;fill:#57412C;" d="M7.65-1.8c0-0.5-0.367-0.934-1.1-1.3
			c-0.733-0.333-1.633-0.5-2.7-0.5c-1.067,0-1.983,0.167-2.75,0.5C0.367-2.733,0-2.3,0-1.8s0.367,0.917,1.1,1.25
			C1.867-0.183,2.783,0,3.85,0c1.066,0,1.967-0.183,2.7-0.55C7.283-0.883,7.65-1.3,7.65-1.8z"/>
	</g>
</symbol>
<symbol  id="FlashAICB_Assets_x2F_Layer_5_x2F__x3C_Path_x3E__x5F_1_x5F_7" viewBox="0 -9.15 27.1 9.15">
	<g id="Layer_1_34_">
		<path style="fill-rule:evenodd;clip-rule:evenodd;fill:#57412C;" d="M0-4.55c0,1.267,1.317,2.333,3.95,3.2
			C6.617-0.45,9.817,0,13.55,0c3.733,0,6.917-0.45,9.55-1.35c2.667-0.9,4-1.967,4-3.2c0-1.267-1.333-2.35-4-3.25
			c-2.633-0.9-5.817-1.35-9.55-1.35c-3.767,0-6.966,0.45-9.6,1.35C1.317-6.9,0-5.817,0-4.55z"/>
	</g>
</symbol>
<symbol  id="FlashAICB_Assets_x2F_Layer_5_x2F__x3C_Path_x3E__x5F_1_x5F_8" viewBox="0 -3.65 7.65 3.65">
	<g id="Layer_1_41_">
		<path style="fill-rule:evenodd;clip-rule:evenodd;fill:#57412C;" d="M7.65-1.85c0-0.5-0.367-0.933-1.1-1.3
			c-0.733-0.333-1.633-0.5-2.7-0.5c-1.067,0-1.983,0.167-2.75,0.5C0.367-2.783,0-2.35,0-1.85s0.367,0.934,1.1,1.3
			C1.867-0.183,2.783,0,3.85,0c1.033,0,1.933-0.183,2.7-0.55C7.283-0.917,7.65-1.35,7.65-1.85z"/>
	</g>
</symbol>
<symbol  id="FlashAICB_Assets_x2F_Layer_5_x2F__x3C_Path_x3E__x5F_3" viewBox="0 -6.05 11.05 6.05">
	<g id="Layer_1_9_">
		<path style="fill-rule:evenodd;clip-rule:evenodd;fill:#57412C;" d="M11.05-3c0-0.833-0.55-1.55-1.65-2.15
			c-1.066-0.6-2.367-0.9-3.9-0.9s-2.833,0.3-3.9,0.9C0.533-4.55,0-3.833,0-3s0.533,1.533,1.6,2.1C2.667-0.3,3.967,0,5.5,0
			s2.833-0.3,3.9-0.9C10.5-1.467,11.05-2.167,11.05-3z"/>
	</g>
</symbol>
<symbol  id="FlashAICB_Assets_x2F_Layer_5_x2F__x3C_Path_x3E__x5F_4" viewBox="0 -9.05 21.25 9.05">
	<g id="Layer_1_8_">
		<path style="fill-rule:evenodd;clip-rule:evenodd;fill:#57412C;" d="M3.75-9.05C1.25-8.017,0-6.717,0-5.15
			C0-3.717,1.033-2.5,3.1-1.5C5.167-0.5,7.667,0,10.6,0c2.967,0,5.483-0.5,7.55-1.5c2.067-1,3.1-2.217,3.1-3.65
			c0-1.533-1.217-2.817-3.65-3.85C12.467-8.933,7.85-8.95,3.75-9.05z"/>
	</g>
</symbol>
<symbol  id="FlashAICB_Assets_x2F_Layer_5_x2F__x3C_Path_x3E__x5F_4_x5F_1" viewBox="0 -7.8 22.55 7.8">
	<g id="Layer_1_13_">
		<path style="fill-rule:evenodd;clip-rule:evenodd;fill:#57412C;" d="M0-3.9c0,1.066,1.1,1.983,3.3,2.75C5.5-0.383,8.15,0,11.25,0
			c3.133,0,5.8-0.383,8-1.15s3.3-1.684,3.3-2.75c0-1.067-1.1-1.983-3.3-2.75s-4.867-1.15-8-1.15c-3.1,0-5.75,0.383-7.95,1.15
			C1.1-5.883,0-4.967,0-3.9z"/>
	</g>
</symbol>
<symbol  id="FlashAICB_Assets_x2F_Layer_5_x2F__x3C_Path_x3E__x5F_4_x5F_2" viewBox="0 -3.05 6.35 3.05">
	<g id="Layer_1_19_">
		<path style="fill-rule:evenodd;clip-rule:evenodd;fill:#57412C;" d="M6.35-1.55c0-0.434-0.3-0.784-0.9-1.05
			c-0.633-0.3-1.4-0.45-2.3-0.45C2.283-3.05,1.533-2.9,0.9-2.6C0.3-2.333,0-1.983,0-1.55c0,0.433,0.3,0.8,0.9,1.1
			C1.533-0.15,2.283,0,3.15,0c0.9,0,1.667-0.15,2.3-0.45C6.05-0.75,6.35-1.117,6.35-1.55z"/>
	</g>
</symbol>
<symbol  id="FlashAICB_Assets_x2F_Layer_5_x2F__x3C_Path_x3E__x5F_4_x5F_3" viewBox="0 -3.05 6.4 3.05">
	<g id="Layer_1_26_">
		<path style="fill-rule:evenodd;clip-rule:evenodd;fill:#57412C;" d="M6.4-1.55c0-0.434-0.316-0.784-0.95-1.05
			C4.85-2.9,4.1-3.05,3.2-3.05c-0.867,0-1.617,0.15-2.25,0.45C0.317-2.333,0-1.983,0-1.55c0,0.433,0.317,0.8,0.95,1.1
			C1.583-0.15,2.333,0,3.2,0s1.617-0.15,2.25-0.45C6.083-0.75,6.4-1.117,6.4-1.55z"/>
	</g>
</symbol>
<symbol  id="FlashAICB_Assets_x2F_Layer_5_x2F__x3C_Path_x3E__x5F_4_x5F_4" viewBox="0 -7.75 22.55 7.75">
	<g id="Layer_1_33_">
		<path style="fill-rule:evenodd;clip-rule:evenodd;fill:#57412C;" d="M0-3.9c0,1.066,1.1,1.983,3.3,2.75C5.5-0.383,8.167,0,11.3,0
			c3.1,0,5.75-0.383,7.95-1.15s3.3-1.684,3.3-2.75c0-1.067-1.1-1.983-3.3-2.75c-2.2-0.733-4.85-1.1-7.95-1.1
			c-3.133,0-5.8,0.367-8,1.1C1.1-5.883,0-4.967,0-3.9z"/>
	</g>
</symbol>
<symbol  id="FlashAICB_Assets_x2F_Layer_5_x2F__x3C_Path_x3E__x5F_4_x5F_5" viewBox="0 -3.05 6.4 3.05">
	<g id="Layer_1_40_">
		<path style="fill-rule:evenodd;clip-rule:evenodd;fill:#57412C;" d="M6.4-1.5c0-0.433-0.316-0.8-0.95-1.1
			C4.817-2.9,4.067-3.05,3.2-3.05S1.583-2.9,0.95-2.6C0.317-2.3,0-1.933,0-1.5s0.317,0.783,0.95,1.05C1.583-0.15,2.333,0,3.2,0
			c0.9,0,1.65-0.15,2.25-0.45C6.083-0.717,6.4-1.067,6.4-1.5z"/>
	</g>
</symbol>
<symbol  id="FlashAICB_Assets_x2F_Layer_5_x2F__x3C_Path_x3E__x5F_5" viewBox="0 -5.55 13.6 5.55">
	<g id="Layer_1_7_">
		<path style="fill-rule:evenodd;clip-rule:evenodd;fill:#57412C;" d="M13.6-2.75c0-0.767-0.667-1.433-2-2
			c-1.333-0.533-2.934-0.8-4.8-0.8S3.333-5.283,2-4.75c-1.333,0.567-2,1.233-2,2S0.667-1.333,2-0.8C3.333-0.267,4.933,0,6.8,0
			s3.467-0.267,4.8-0.8C12.933-1.333,13.6-1.983,13.6-2.75z"/>
	</g>
</symbol>
<symbol  id="FlashAICB_Assets_x2F_Layer_5_x2F__x3C_Path_x3E__x5F_5_x5F_1" viewBox="0 -4.25 11.75 4.25">
	<g id="Layer_1_12_">
		<path style="fill-rule:evenodd;clip-rule:evenodd;fill:#57412C;" d="M0-2.15c0,0.6,0.583,1.1,1.75,1.5C2.883-0.217,4.25,0,5.85,0
			C7.483,0,8.867-0.217,10-0.65c1.167-0.4,1.75-0.9,1.75-1.5c0-0.567-0.583-1.067-1.75-1.5c-1.133-0.4-2.517-0.6-4.15-0.6
			c-1.6,0-2.967,0.2-4.1,0.6C0.583-3.217,0-2.717,0-2.15z"/>
	</g>
</symbol>
<symbol  id="FlashAICB_Assets_x2F_Layer_5_x2F__x3C_Path_x3E__x5F_5_x5F_2" viewBox="0 -1.7 4.05 1.7">
	<g id="Layer_1_18_">
		<path style="fill-rule:evenodd;clip-rule:evenodd;fill:#57412C;" d="M4.05-0.85c0-0.233-0.2-0.433-0.6-0.6
			C3.05-1.617,2.583-1.7,2.05-1.7C1.483-1.7,1-1.617,0.6-1.45C0.2-1.283,0-1.083,0-0.85s0.2,0.434,0.6,0.6S1.483,0,2.05,0
			c0.534,0,1-0.083,1.4-0.25C3.85-0.417,4.05-0.617,4.05-0.85z"/>
	</g>
</symbol>
<symbol  id="FlashAICB_Assets_x2F_Layer_5_x2F__x3C_Path_x3E__x5F_5_x5F_6" viewBox="0 -1.7 4.1 1.7">
	<g id="Layer_1_25_">
		<path style="fill-rule:evenodd;clip-rule:evenodd;fill:#57412C;" d="M4.1-0.85c0-0.233-0.2-0.433-0.6-0.6
			C3.1-1.617,2.617-1.7,2.05-1.7c-0.533,0-1.017,0.083-1.45,0.25C0.2-1.283,0-1.083,0-0.85s0.2,0.434,0.6,0.6
			C1.033-0.083,1.517,0,2.05,0C2.617,0,3.1-0.083,3.5-0.25S4.1-0.617,4.1-0.85z"/>
	</g>
</symbol>
<symbol  id="FlashAICB_Assets_x2F_Layer_5_x2F__x3C_Path_x3E__x5F_5_x5F_7" viewBox="0 -4.25 14.45 4.25">
	<g id="Layer_1_32_">
		<path style="fill-rule:evenodd;clip-rule:evenodd;fill:#57412C;" d="M0-2.15c0,0.6,0.7,1.1,2.1,1.5C3.533-0.217,5.233,0,7.2,0
			c2,0,3.716-0.217,5.15-0.65c1.4-0.4,2.1-0.9,2.1-1.5c0-0.567-0.7-1.067-2.1-1.5c-1.434-0.4-3.15-0.6-5.15-0.6
			c-1.967,0-3.667,0.2-5.1,0.6C0.7-3.217,0-2.717,0-2.15z"/>
	</g>
</symbol>
<symbol  id="FlashAICB_Assets_x2F_Layer_5_x2F__x3C_Path_x3E__x5F_5_x5F_8" viewBox="0 -1.7 4.1 1.7">
	<g id="Layer_1_39_">
		<path style="fill-rule:evenodd;clip-rule:evenodd;fill:#57412C;" d="M4.1-0.85c0-0.233-0.2-0.433-0.6-0.6
			C3.067-1.617,2.583-1.7,2.05-1.7C1.483-1.7,1-1.617,0.6-1.45C0.2-1.283,0-1.083,0-0.85s0.2,0.434,0.6,0.6S1.483,0,2.05,0
			C2.583,0,3.067-0.083,3.5-0.25C3.9-0.417,4.1-0.617,4.1-0.85z"/>
	</g>
</symbol>
<symbol  id="FlashAICB_Assets_x2F_Layer_5_x2F__x3C_Path_x3E__x5F_6" viewBox="0 -5.6 11.05 5.6">
	<g id="Layer_1_6_">
		<path style="fill-rule:evenodd;clip-rule:evenodd;fill:#57412C;" d="M11.05-2.8c0-0.767-0.533-1.434-1.6-2
			c-1.067-0.534-2.367-0.8-3.9-0.8c-1.533,0-2.833,0.267-3.9,0.8C0.55-4.233,0-3.567,0-2.8c0,0.767,0.55,1.433,1.65,2
			C2.717-0.267,4.017,0,5.55,0c1.534,0,2.833-0.267,3.9-0.8C10.517-1.367,11.05-2.033,11.05-2.8z"/>
	</g>
</symbol>
<symbol  id="FlashAICB_Assets_x2F_Layer_5_x2F__x3C_Path_x3E__x5F_6_x5F_1" viewBox="0 -1.7 3.3 1.7">
	<g id="Layer_1_17_">
		<path style="fill-rule:evenodd;clip-rule:evenodd;fill:#57412C;" d="M3.3-0.85c0-0.233-0.15-0.433-0.45-0.6
			C2.517-1.617,2.117-1.7,1.65-1.7c-0.433,0-0.816,0.083-1.15,0.25C0.167-1.283,0-1.083,0-0.85s0.167,0.434,0.5,0.6S1.217,0,1.65,0
			c0.467,0,0.867-0.083,1.2-0.25C3.15-0.417,3.3-0.617,3.3-0.85z"/>
	</g>
</symbol>
<symbol  id="FlashAICB_Assets_x2F_Layer_5_x2F__x3C_Path_x3E__x5F_6_x5F_2" viewBox="0 -1.7 3.3 1.7">
	<g id="Layer_1_24_">
		<path style="fill-rule:evenodd;clip-rule:evenodd;fill:#57412C;" d="M3.3-0.85c0-0.233-0.167-0.433-0.5-0.6
			C2.467-1.617,2.083-1.7,1.65-1.7c-0.467,0-0.867,0.083-1.2,0.25C0.15-1.283,0-1.083,0-0.85s0.15,0.434,0.45,0.6
			C0.783-0.083,1.183,0,1.65,0C2.083,0,2.467-0.083,2.8-0.25C3.133-0.417,3.3-0.617,3.3-0.85z"/>
	</g>
</symbol>
<symbol  id="FlashAICB_Assets_x2F_Layer_5_x2F__x3C_Path_x3E__x5F_6_x5F_3" viewBox="0 -4.25 11.75 4.25">
	<g id="Layer_1_31_">
		<path style="fill-rule:evenodd;clip-rule:evenodd;fill:#57412C;" d="M0-2.15c0,0.6,0.583,1.1,1.75,1.5C2.883-0.217,4.267,0,5.9,0
			c1.6,0,2.983-0.217,4.15-0.65c1.133-0.4,1.7-0.9,1.7-1.5c0-0.567-0.567-1.067-1.7-1.5c-1.167-0.4-2.55-0.6-4.15-0.6
			c-1.633,0-3.017,0.2-4.15,0.6C0.583-3.217,0-2.717,0-2.15z"/>
	</g>
</symbol>
<symbol  id="FlashAICB_Assets_x2F_Layer_5_x2F__x3C_Path_x3E__x5F_6_x5F_4" viewBox="0 -1.7 3.3 1.7">
	<g id="Layer_1_38_">
		<path style="fill-rule:evenodd;clip-rule:evenodd;fill:#57412C;" d="M3.3-0.85c0-0.233-0.167-0.433-0.5-0.6
			C2.467-1.617,2.083-1.7,1.65-1.7c-0.467,0-0.867,0.083-1.2,0.25C0.15-1.283,0-1.083,0-0.85s0.15,0.434,0.45,0.6
			C0.783-0.083,1.183,0,1.65,0C2.083,0,2.467-0.083,2.8-0.25C3.133-0.417,3.3-0.617,3.3-0.85z"/>
	</g>
</symbol>
<symbol  id="FlashAICB_Assets_x2F_Layer_5_x2F__x3C_Path_x3E__x5F_8" viewBox="0 -11.25 32.5 11.25">
	<g id="Layer_1_11_">
		<path style="fill-rule:evenodd;clip-rule:evenodd;fill:#57412C;" d="M0-5.65c0,1.566,1.583,2.9,4.75,4S11.75,0,16.25,0
			s8.333-0.55,11.5-1.65s4.75-2.434,4.75-4c0-1.567-1.583-2.883-4.75-3.95c-3.167-1.1-7-1.65-11.5-1.65c-4.467,0-8.3,0.55-11.5,1.65
			C1.583-8.5,0-7.183,0-5.65z"/>
	</g>
</symbol>
<symbol  id="FlashAICB_Assets_x2F_Layer_5_x2F__x3C_Path_x3E__x5F_9" viewBox="0 -9.95 13.1 9.95">
	<g id="Layer_1_5_">
		<path style="fill-rule:evenodd;clip-rule:evenodd;fill:#57412C;" d="M13.1-5c0-1.367-0.633-2.533-1.9-3.5
			C9.9-9.467,8.35-9.95,6.55-9.95c-1.833,0-3.383,0.483-4.65,1.45S0-6.367,0-5s0.633,2.55,1.9,3.55C3.167-0.483,4.717,0,6.55,0
			c1.8,0,3.35-0.483,4.65-1.45C12.467-2.45,13.1-3.633,13.1-5z"/>
	</g>
</symbol>
<symbol  id="FlashAICB_Assets_x2F_Layer_5_x2F__x3C_Path_x3E__x5F_9_x5F_1" viewBox="0 -4.5 9.2 4.5">
	<g id="Layer_1_16_">
		<path style="fill-rule:evenodd;clip-rule:evenodd;fill:#57412C;" d="M9.2-2.25c0-0.633-0.45-1.167-1.35-1.6
			C6.95-4.283,5.867-4.5,4.6-4.5S2.25-4.283,1.35-3.85C0.45-3.417,0-2.883,0-2.25s0.45,1.167,1.35,1.6C2.25-0.217,3.333,0,4.6,0
			s2.35-0.217,3.25-0.65C8.75-1.083,9.2-1.617,9.2-2.25z"/>
	</g>
</symbol>
<symbol  id="FlashAICB_Assets_x2F_Layer_5_x2F__x3C_Path_x3E__x5F_9_x5F_5" viewBox="0 -4.5 9.15 4.5">
	<g id="Layer_1_23_">
		<path style="fill-rule:evenodd;clip-rule:evenodd;fill:#57412C;" d="M9.15-2.25c0-0.633-0.45-1.167-1.35-1.6
			C6.933-4.283,5.867-4.5,4.6-4.5S2.25-4.283,1.35-3.85C0.45-3.417,0-2.883,0-2.25s0.45,1.167,1.35,1.6C2.25-0.217,3.333,0,4.6,0
			s2.333-0.217,3.2-0.65C8.7-1.083,9.15-1.617,9.15-2.25z"/>
	</g>
</symbol>
<symbol  id="FlashAICB_Assets_x2F_Layer_5_x2F__x3C_Path_x3E__x5F_9_x5F_6" viewBox="0 -11.25 32.5 11.25">
	<g id="Layer_1_30_">
		<path style="fill-rule:evenodd;clip-rule:evenodd;fill:#57412C;" d="M0-5.6c0,1.533,1.583,2.85,4.75,3.95
			C7.95-0.55,11.783,0,16.25,0c4.5,0,8.333-0.55,11.5-1.65S32.5-4.067,32.5-5.6c0-1.566-1.583-2.9-4.75-4s-7-1.65-11.5-1.65
			c-4.467,0-8.3,0.55-11.5,1.65C1.583-8.5,0-7.167,0-5.6z"/>
	</g>
</symbol>
<symbol  id="FlashAICB_Assets_x2F_Layer_5_x2F__x3C_Path_x3E__x5F_9_x5F_7" viewBox="0 -4.45 9.15 4.45">
	<g id="Layer_1_37_">
		<path style="fill-rule:evenodd;clip-rule:evenodd;fill:#57412C;" d="M9.15-2.25c0-0.6-0.45-1.117-1.35-1.55
			C6.9-4.233,5.833-4.45,4.6-4.45c-1.267,0-2.35,0.217-3.25,0.65C0.45-3.367,0-2.85,0-2.25c0,0.633,0.45,1.167,1.35,1.6
			C2.25-0.217,3.333,0,4.6,0s2.333-0.217,3.2-0.65C8.7-1.083,9.15-1.617,9.15-2.25z"/>
	</g>
</symbol>
<symbol  id="wall" viewBox="-171.1 -101.1 342.8 201.45">
	<g id="Layer_1_50_">
		
			<use xlink:href="#wall_x5F_flat"  width="342.8" height="201.45" y="-201.45" transform="matrix(1 0 0 1 -171.1001 100.3501)" style="overflow:visible;"/>
	</g>
</symbol>
<symbol  id="wall_x5F_flat" viewBox="0 -201.45 342.8 201.45">
	<g id="Layer_1_49_">
		<polygon style="fill-rule:evenodd;clip-rule:evenodd;fill:#4D3B2A;" points="342.8,-201.45 0,-201.45 0,0 342.8,0 		"/>
		<g>
			
				<use xlink:href="#FlashAICB_Assets_x2F_Layer_5_x2F__x3C_Group_x3E__x5F_1"  width="342.8" height="185.325" x="140.6" y="-185.325" transform="matrix(1 0 0 1 -140.6001 -15.6001)" style="overflow:visible;opacity:0.3008;enable-background:new    ;"/>
			
				<use xlink:href="#FlashAICB_Assets_x2F_Layer_5_x2F__x3C_Group_x3E_"  width="342.8" height="200.9" x="140.55" y="-213.35" transform="matrix(1 0 0 1 -140.5498 12.4502)" style="overflow:visible;opacity:0.3008;enable-background:new    ;"/>
		</g>
		
			<use xlink:href="#FlashAICB_Assets_x2F_Layer_5_x2F__x3C_Group_x3E__x5F_5"  width="199.25" height="49.15" x="45.15" y="-49.15" transform="matrix(1 0 0 1 -40.4502 -146)" style="overflow:visible;opacity:0.3008;enable-background:new    ;"/>
		
			<use xlink:href="#FlashAICB_Assets_x2F_Layer_5_x2F__x3C_Group_x3E__x5F_3"  width="199.5" height="40.9" x="32.5" y="-40.9" transform="matrix(1 0 0 1 -29.0498 -7.6001)" style="overflow:visible;opacity:0.3008;enable-background:new    ;"/>
		
			<use xlink:href="#FlashAICB_Assets_x2F_Layer_5_x2F__x3C_Group_x3E__x5F_2"  width="70.05" height="16.2" x="3.05" y="-16.2" transform="matrix(1 0 0 1 -0.8999 -79)" style="overflow:visible;opacity:0.3008;enable-background:new    ;"/>
		
			<use xlink:href="#FlashAICB_Assets_x2F_Layer_5_x2F__x3C_Group_x3E__x5F_2_x5F_0"  width="73.15" height="16.2" y="-16.2" transform="matrix(1 0 0 1 123.1001 -24.1001)" style="overflow:visible;opacity:0.3008;enable-background:new    ;"/>
		
			<use xlink:href="#FlashAICB_Assets_x2F_Layer_5_x2F__x3C_Group_x3E__x5F_1_x5F_1"  width="248.25" height="40.9" y="-40.9" transform="matrix(1 0 0 1 93.2998 -112.25)" style="overflow:visible;opacity:0.3008;enable-background:new    ;"/>
		
			<use xlink:href="#FlashAICB_Assets_x2F_Layer_5_x2F__x3C_Group_x3E__x5F_6"  width="73.15" height="16.15" y="-16.15" transform="matrix(1 0 0 1 257.75 -64.7998)" style="overflow:visible;opacity:0.3008;enable-background:new    ;"/>
	</g>
</symbol>
<use xlink:href="#wall"  width="342.8" height="201.45" x="-171.1" y="-101.1" transform="matrix(1.2454 0 0 -1 213.1504 100.8999)" style="overflow:visible;"/>
</svg>
