<?xml version="1.0" encoding="iso-8859-1"?>
<!-- Generator: Adobe Illustrator 15.1.0, SVG Export Plug-In . SVG Version: 6.00 Build 0)  -->
<!DOCTYPE svg PUBLIC "-//W3C//DTD SVG 1.1//EN" "http://www.w3.org/Graphics/SVG/1.1/DTD/svg11.dtd">
<svg version="1.1" id="underground_x5F_bogwillow" xmlns="http://www.w3.org/2000/svg" xmlns:xlink="http://www.w3.org/1999/xlink"
	 x="0px" y="0px" width="61.05px" height="104.75px" viewBox="0 0 61.05 104.75" style="enable-background:new 0 0 61.05 104.75;"
	 xml:space="preserve">
<symbol  id="FlashAICB_x2F_underground_x5F_bogwillow_x2F__x3C_Group_x3E_" viewBox="0.015 -9.132 8.513 9.132">
	<g id="Layer_1_38_">
		<g>
			<g>
				<polygon style="fill-rule:evenodd;clip-rule:evenodd;fill:#879865;" points="3.4,-5.85 4.4,-4.75 4,-6.9 				"/>
				<path style="fill-rule:evenodd;clip-rule:evenodd;fill:#8BB526;" d="M7.75-1.05c0.767-0.867,0.967-1.983,0.6-3.35
					c-0.233-0.867-0.667-1.667-1.3-2.4c-0.6-0.7-1.3-1.267-2.1-1.7L4-6.9l0.4,2.15L7.75-1.05z"/>
				<path style="fill-rule:evenodd;clip-rule:evenodd;fill:#ABBF80;" d="M4.4-4.75c0.3,1.6,0.5,3.167,0.6,4.7L5.5,0
					c0.967-0.067,1.717-0.417,2.25-1.05L4.4-4.75z"/>
				<path style="fill-rule:evenodd;clip-rule:evenodd;fill:#758A46;" d="M3.4-5.85l-2,3.5c1,1.367,2.2,2.133,3.6,2.3
					c-0.1-1.534-0.3-3.1-0.6-4.7L3.4-5.85z"/>
				<path style="fill-rule:evenodd;clip-rule:evenodd;fill:#A0B378;" d="M1.1-8.3C0.2-7.433-0.05-6.2,0.35-4.6
					C0.517-3.867,0.867-3.117,1.4-2.35l2-3.5L1.1-8.3z"/>
				<path style="fill-rule:evenodd;clip-rule:evenodd;fill:#B0C584;" d="M3.55-8.95L4-6.9l0.95-1.6C4.483-8.7,4.017-8.85,3.55-8.95z
					"/>
				<path style="fill-rule:evenodd;clip-rule:evenodd;fill:#8C9D69;" d="M3.2-9C2.367-9.033,1.667-8.8,1.1-8.3l2.3,2.45L4-6.9
					L3.55-8.95L3.2-9z"/>
			</g>
			
				<use xlink:href="#FlashAICB_x2F_underground_x5F_bogwillow_x2F__x3C_Path_x3E_"  width="8.428" height="9.096" x="0.015" y="-9.082" transform="matrix(1 0 0 1 0 -0.0498)" style="overflow:visible;opacity:0.3008;enable-background:new    ;"/>
		</g>
	</g>
</symbol>
<symbol  id="FlashAICB_x2F_underground_x5F_bogwillow_x2F__x3C_Group_x3E__x5F_0" viewBox="-0.042 -8.457 8.133 8.473">
	<g id="Layer_1_39_">
		<g>
			<g>
				<polygon style="fill-rule:evenodd;clip-rule:evenodd;fill:#879865;" points="3.4,-5.6 4.2,-4.45 4.15,-6.35 				"/>
				<path style="fill-rule:evenodd;clip-rule:evenodd;fill:#8BB526;" d="M4.2-4.45L7-0.5c0.867-0.6,1.217-1.55,1.05-2.85
					c-0.1-0.8-0.383-1.566-0.85-2.3C6.667-6.417,6.067-7.033,5.4-7.5L4.15-6.35L4.2-4.45z"/>
				<path style="fill-rule:evenodd;clip-rule:evenodd;fill:#ABBF80;" d="M4.15-0.2L4.6-0.05C5.6,0.117,6.4-0.033,7-0.5L4.2-4.45
					L4.15-0.2z"/>
				<path style="fill-rule:evenodd;clip-rule:evenodd;fill:#758A46;" d="M3.4-5.6L0.8-3c0.833,1.467,1.95,2.4,3.35,2.8L4.2-4.45
					L3.4-5.6z"/>
				<path style="fill-rule:evenodd;clip-rule:evenodd;fill:#A0B378;" d="M1.6-8.05C0.5-7.517,0-6.533,0.1-5.1
					C0.2-4.367,0.433-3.667,0.8-3l2.6-2.6L1.6-8.05z"/>
				<path style="fill-rule:evenodd;clip-rule:evenodd;fill:#B0C584;" d="M4.15-8.1v1.75L5.4-7.5C4.967-7.767,4.55-7.967,4.15-8.1z"
					/>
				<path style="fill-rule:evenodd;clip-rule:evenodd;fill:#8C9D69;" d="M3.8-8.2C2.933-8.4,2.2-8.35,1.6-8.05L3.4-5.6l0.75-0.75
					V-8.1L3.8-8.2z"/>
			</g>
			
				<use xlink:href="#FlashAICB_x2F_underground_x5F_bogwillow_x2F__x3C_Path_x3E__x5F_3"  width="8.101" height="8.415" x="-0.042" y="-8.407" transform="matrix(1 0 0 1 0 -0.0498)" style="overflow:visible;opacity:0.3008;enable-background:new    ;"/>
		</g>
	</g>
</symbol>
<symbol  id="FlashAICB_x2F_underground_x5F_bogwillow_x2F__x3C_Group_x3E__x5F_1" viewBox="-0.008 -7.102 8.006 7.102">
	<g id="Layer_1_40_">
		<g>
			<g>
				<polygon style="fill-rule:evenodd;clip-rule:evenodd;fill:#879865;" points="2.95,-4.2 4.05,-3.85 3.25,-5.3 				"/>
				<path style="fill-rule:evenodd;clip-rule:evenodd;fill:#8BB526;" d="M4.05-3.85l3.7,1.25c0.4-1.066,0.317-2.05-0.25-2.95
					C7.133-6.117,6.6-6.533,5.9-6.8C5.233-7.067,4.517-7.133,3.75-7l-0.5,1.7L4.05-3.85z"/>
				<path style="fill-rule:evenodd;clip-rule:evenodd;fill:#ABBF80;" d="M5.7-0.45l0.4-0.2C6.867-1.15,7.417-1.8,7.75-2.6l-3.7-1.25
					L5.7-0.45z"/>
				<path style="fill-rule:evenodd;clip-rule:evenodd;fill:#758A46;" d="M2.95-4.2L2.1-0.45c1.167,0.6,2.367,0.6,3.6,0l-1.65-3.4
					L2.95-4.2z"/>
				<path style="fill-rule:evenodd;clip-rule:evenodd;fill:#A0B378;" d="M0.55-4.8C-0.05-3.7,0-2.633,0.7-1.6
					c0.367,0.5,0.833,0.883,1.4,1.15L2.95-4.2C2.15-4.467,1.35-4.667,0.55-4.8z"/>
				<path style="fill-rule:evenodd;clip-rule:evenodd;fill:#B0C584;" d="M2.5-6.65L3.25-5.3L3.75-7C3.45-6.967,3.033-6.85,2.5-6.65z
					"/>
				<path style="fill-rule:evenodd;clip-rule:evenodd;fill:#8C9D69;" d="M2.15-6.45c-0.767,0.434-1.3,0.983-1.6,1.65
					c0.8,0.133,1.6,0.333,2.4,0.6l0.3-1.1L2.5-6.65L2.15-6.45z"/>
			</g>
			
				<use xlink:href="#FlashAICB_x2F_underground_x5F_bogwillow_x2F__x3C_Path_x3E__x5F_4"  width="7.926" height="7.102" x="-0.008" y="-7.102" style="overflow:visible;opacity:0.3008;enable-background:new    ;"/>
		</g>
	</g>
</symbol>
<symbol  id="FlashAICB_x2F_underground_x5F_bogwillow_x2F__x3C_Group_x3E__x5F_10" viewBox="0.002 -6.96 8.454 6.973">
	<g id="Layer_1_49_">
		<g>
			<g>
				<polygon style="fill-rule:evenodd;clip-rule:evenodd;fill:#555A4C;" points="3,-4.1 4.2,-3.7 3.05,-5.2 				"/>
				<path style="fill-rule:evenodd;clip-rule:evenodd;fill:#647640;" d="M4.2-3.7l4.2,1.35c0.2-0.967-0.133-1.917-1-2.85
					C6.2-6.467,4.767-7.017,3.1-6.85L3.05-5.2L4.2-3.7z"/>
				<path style="fill-rule:evenodd;clip-rule:evenodd;fill:#7A806D;" d="M6.8-0.35l0.35-0.2C7.883-1.083,8.3-1.683,8.4-2.35L4.2-3.7
					L6.8-0.35z"/>
				<path style="fill-rule:evenodd;clip-rule:evenodd;fill:#454B39;" d="M3-4.1v3.7c1.4,0.533,2.667,0.55,3.8,0.05L4.2-3.7L3-4.1z"
					/>
				<path style="fill-rule:evenodd;clip-rule:evenodd;fill:#6E7462;" d="M0.3-4.9c-0.333,1.133-0.017,2.217,0.95,3.25
					C1.717-1.15,2.3-0.733,3-0.4v-3.7C1.8-4.5,0.9-4.767,0.3-4.9z"/>
				<path style="fill-rule:evenodd;clip-rule:evenodd;fill:#7F8671;" d="M1.9-6.6l1.15,1.4L3.1-6.85C2.733-6.85,2.333-6.767,1.9-6.6
					z"/>
				<path style="fill-rule:evenodd;clip-rule:evenodd;fill:#5A5F50;" d="M1.6-6.45C0.933-6.083,0.5-5.567,0.3-4.9
					C0.9-4.767,1.8-4.5,3-4.1l0.05-1.1L1.9-6.6L1.6-6.45z"/>
			</g>
			
				<use xlink:href="#FlashAICB_x2F_underground_x5F_bogwillow_x2F__x3C_Path_x3E__x5F_13"  width="8.417" height="6.962" x="0.002" y="-6.96" style="overflow:visible;opacity:0.3008;enable-background:new    ;"/>
		</g>
	</g>
</symbol>
<symbol  id="FlashAICB_x2F_underground_x5F_bogwillow_x2F__x3C_Group_x3E__x5F_11" viewBox="0 -5.497 6.212 5.494">
	<g id="Layer_1_50_">
		<g>
			<g>
				<polygon style="fill-rule:evenodd;clip-rule:evenodd;fill:#555A4C;" points="2.45,-3.35 3.2,-2.9 2.8,-4.15 				"/>
				<path style="fill-rule:evenodd;clip-rule:evenodd;fill:#647640;" d="M3.2-2.9l2.5,1.45c0.533-0.767,0.65-1.533,0.35-2.3
					c-0.2-0.5-0.533-0.9-1-1.2C4.55-5.25,4-5.4,3.4-5.4L2.8-4.15L3.2-2.9z"/>
				<path style="fill-rule:evenodd;clip-rule:evenodd;fill:#7A806D;" d="M3.7-0.15l0.35-0.1c0.767-0.267,1.317-0.667,1.65-1.2
					L3.2-2.9C3.433-2.133,3.6-1.217,3.7-0.15z"/>
				<path style="fill-rule:evenodd;clip-rule:evenodd;fill:#454B39;" d="M2.45-3.35L1.05-0.6c0.8,0.567,1.684,0.717,2.65,0.45
					C3.6-1.217,3.433-2.133,3.2-2.9L2.45-3.35z"/>
				<path style="fill-rule:evenodd;clip-rule:evenodd;fill:#6E7462;" d="M0.7-4.15c-0.6,0.767-0.75,1.6-0.45,2.5
					c0.133,0.367,0.4,0.717,0.8,1.05l1.4-2.75L0.7-4.15z"/>
				<path style="fill-rule:evenodd;clip-rule:evenodd;fill:#7F8671;" d="M2.45-5.3L2.8-4.15L3.4-5.4C3.1-5.433,2.783-5.4,2.45-5.3z"
					/>
				<path style="fill-rule:evenodd;clip-rule:evenodd;fill:#5A5F50;" d="M2.15-5.2C1.583-5,1.1-4.65,0.7-4.15l1.75,0.8l0.35-0.8
					L2.45-5.3L2.15-5.2z"/>
			</g>
			
				<use xlink:href="#FlashAICB_x2F_underground_x5F_bogwillow_x2F__x3C_Path_x3E__x5F_14"  width="6.195" height="5.494" x="0" y="-5.497" style="overflow:visible;opacity:0.3008;enable-background:new    ;"/>
		</g>
	</g>
</symbol>
<symbol  id="FlashAICB_x2F_underground_x5F_bogwillow_x2F__x3C_Group_x3E__x5F_12" viewBox="-0.01 -6.66 7.262 6.654">
	<g id="Layer_1_51_">
		<g>
			<g>
				<polygon style="fill-rule:evenodd;clip-rule:evenodd;fill:#555A4C;" points="3.6,-4.4 3.85,-3.5 4.65,-4.95 				"/>
				<path style="fill-rule:evenodd;clip-rule:evenodd;fill:#647640;" d="M3.85-3.5l0.8,3.2c1.1-0.434,1.867-1.15,2.3-2.15
					C7.217-3.083,7.283-3.7,7.15-4.3C7.05-4.9,6.767-5.4,6.3-5.8L4.65-4.95L3.85-3.5z"/>
				<path style="fill-rule:evenodd;clip-rule:evenodd;fill:#7A806D;" d="M1.9-0.25l0.4,0.1C3.033,0.083,3.817,0.033,4.65-0.3
					l-0.8-3.2C3.217-2.3,2.567-1.217,1.9-0.25z"/>
				<path style="fill-rule:evenodd;clip-rule:evenodd;fill:#454B39;" d="M3.6-4.4L0.1-2.55c0.1,1.133,0.7,1.9,1.8,2.3
					C2.567-1.217,3.217-2.3,3.85-3.5L3.6-4.4z"/>
				<path style="fill-rule:evenodd;clip-rule:evenodd;fill:#6E7462;" d="M2.95-6.4C1.717-6,0.85-5.25,0.35-4.15
					c-0.233,0.5-0.317,1.033-0.25,1.6L3.6-4.4L2.95-6.4z"/>
				<path style="fill-rule:evenodd;clip-rule:evenodd;fill:#7F8671;" d="M5.4-6.35l-0.75,1.4L6.3-5.8C6.1-6,5.8-6.183,5.4-6.35z"/>
				<path style="fill-rule:evenodd;clip-rule:evenodd;fill:#5A5F50;" d="M5.1-6.45C4.333-6.617,3.617-6.6,2.95-6.4l0.65,2l1.05-0.55
					l0.75-1.4L5.1-6.45z"/>
			</g>
			
				<use xlink:href="#FlashAICB_x2F_underground_x5F_bogwillow_x2F__x3C_Path_x3E__x5F_15"  width="7.262" height="6.62" x="-0.01" y="-6.61" transform="matrix(1 0 0 1 0 -0.0498)" style="overflow:visible;opacity:0.3008;enable-background:new    ;"/>
		</g>
	</g>
</symbol>
<symbol  id="FlashAICB_x2F_underground_x5F_bogwillow_x2F__x3C_Group_x3E__x5F_13" viewBox="-0.01 -6.709 7.226 6.679">
	<g id="Layer_1_52_">
		<g>
			<g>
				<polygon style="fill-rule:evenodd;clip-rule:evenodd;fill:#555A4C;" points="3.55,-4.4 3.85,-3.5 4.6,-5 				"/>
				<path style="fill-rule:evenodd;clip-rule:evenodd;fill:#647640;" d="M3.85-3.5l0.8,3.2c1.1-0.434,1.867-1.15,2.3-2.15
					C7.217-3.083,7.283-3.7,7.15-4.3C7.017-4.933,6.7-5.45,6.2-5.85L4.6-5L3.85-3.5z"/>
				<path style="fill-rule:evenodd;clip-rule:evenodd;fill:#7A806D;" d="M1.85-0.25l0.4,0.1C3.083,0.05,3.883,0,4.65-0.3l-0.8-3.2
					C3.15-2.233,2.483-1.15,1.85-0.25z"/>
				<path style="fill-rule:evenodd;clip-rule:evenodd;fill:#454B39;" d="M3.55-4.4L0.1-2.55c0.1,1.1,0.683,1.867,1.75,2.3
					c0.633-0.9,1.3-1.983,2-3.25L3.55-4.4z"/>
				<path style="fill-rule:evenodd;clip-rule:evenodd;fill:#6E7462;" d="M2.8-6.4C1.633-6,0.817-5.267,0.35-4.2
					C0.083-3.567,0-3.017,0.1-2.55L3.55-4.4C3.35-5.067,3.1-5.733,2.8-6.4z"/>
				<polygon style="fill-rule:evenodd;clip-rule:evenodd;fill:#7F8671;" points="5.25,-6.4 4.6,-5 6.2,-5.85 				"/>
				<path style="fill-rule:evenodd;clip-rule:evenodd;fill:#5A5F50;" d="M4.95-6.5C4.183-6.667,3.467-6.633,2.8-6.4
					c0.3,0.667,0.55,1.333,0.75,2L4.6-5l0.65-1.4L4.95-6.5z"/>
			</g>
			
				<use xlink:href="#FlashAICB_x2F_underground_x5F_bogwillow_x2F__x3C_Path_x3E__x5F_16"  width="7.216" height="6.662" x="-0.01" y="-6.659" transform="matrix(1 0 0 1 0 -0.0498)" style="overflow:visible;opacity:0.3008;enable-background:new    ;"/>
		</g>
	</g>
</symbol>
<symbol  id="FlashAICB_x2F_underground_x5F_bogwillow_x2F__x3C_Group_x3E__x5F_14" viewBox="0.008 -7.67 7.725 7.664">
	<g id="Layer_1_53_">
		<g>
			<g>
				<polygon style="fill-rule:evenodd;clip-rule:evenodd;fill:#555A4C;" points="4.15,-5 4.15,-3.9 5.35,-4.95 				"/>
				<path style="fill-rule:evenodd;clip-rule:evenodd;fill:#647640;" d="M4.15-3.9L4-0.05C5.233,0.117,6.2-0.2,6.9-1
					c1-1.1,1.1-2.4,0.3-3.9L5.35-4.95L4.15-3.9z"/>
				<path style="fill-rule:evenodd;clip-rule:evenodd;fill:#7A806D;" d="M1.25-1.65l0.35,0.4c0.8,0.7,1.6,1.1,2.4,1.2L4.15-3.9
					C3.117-3.033,2.15-2.283,1.25-1.65z"/>
				<path style="fill-rule:evenodd;clip-rule:evenodd;fill:#454B39;" d="M4.15-5C2.817-5,1.467-5.05,0.1-5.15
					c-0.167,1.233,0.217,2.4,1.15,3.5c0.9-0.633,1.867-1.383,2.9-2.25V-5z"/>
				<path style="fill-rule:evenodd;clip-rule:evenodd;fill:#6E7462;" d="M4.05-7.4c-1.333-0.333-2.4-0.1-3.2,0.7
					C0.45-6.267,0.2-5.75,0.1-5.15C1.467-5.05,2.817-5,4.15-5L4.05-7.4z"/>
				<path style="fill-rule:evenodd;clip-rule:evenodd;fill:#7F8671;" d="M6.45-5.95l-1.1,1L7.2-4.9C7.1-5.133,6.85-5.483,6.45-5.95z
					"/>
				<path style="fill-rule:evenodd;clip-rule:evenodd;fill:#5A5F50;" d="M6.2-6.2c-0.633-0.6-1.35-1-2.15-1.2L4.15-5l1.2,0.05l1.1-1
					L6.2-6.2z"/>
			</g>
			
				<use xlink:href="#FlashAICB_x2F_underground_x5F_bogwillow_x2F__x3C_Path_x3E__x5F_17"  width="7.71" height="7.623" x="0.008" y="-7.621" transform="matrix(1 0 0 1 0 -0.0498)" style="overflow:visible;opacity:0.3008;enable-background:new    ;"/>
		</g>
	</g>
</symbol>
<symbol  id="FlashAICB_x2F_underground_x5F_bogwillow_x2F__x3C_Group_x3E__x5F_15" viewBox="-0.008 -7.359 7.25 7.345">
	<g id="Layer_1_54_">
		<g>
			<g>
				<polygon style="fill-rule:evenodd;clip-rule:evenodd;fill:#879865;" points="3.35,-4.95 3.8,-3.95 4.25,-5.55 				"/>
				<path style="fill-rule:evenodd;clip-rule:evenodd;fill:#8BB526;" d="M3.8-3.95l1.85,3.6c0.934-0.5,1.45-1.3,1.55-2.4
					c0.2-1.5-0.317-2.733-1.55-3.7l-1.4,0.9L3.8-3.95z"/>
				<path style="fill-rule:evenodd;clip-rule:evenodd;fill:#ABBF80;" d="M2.9-0.3l0.45,0.15c0.833,0.233,1.6,0.167,2.3-0.2L3.8-3.95
					C3.433-2.317,3.133-1.1,2.9-0.3z"/>
				<path style="fill-rule:evenodd;clip-rule:evenodd;fill:#758A46;" d="M3.35-4.95l-3,2.05C0.85-1.633,1.7-0.767,2.9-0.3
					c0.233-0.8,0.533-2.017,0.9-3.65L3.35-4.95z"/>
				<path style="fill-rule:evenodd;clip-rule:evenodd;fill:#A0B378;" d="M2.2-7.05C1.033-6.65,0.35-5.867,0.15-4.7
					c-0.1,0.534-0.033,1.133,0.2,1.8l3-2.05L2.2-7.05z"/>
				<path style="fill-rule:evenodd;clip-rule:evenodd;fill:#B0C584;" d="M4.65-7l-0.4,1.45l1.4-0.9C5.317-6.717,4.983-6.9,4.65-7z"
					/>
				<path style="fill-rule:evenodd;clip-rule:evenodd;fill:#8C9D69;" d="M4.3-7.1C3.633-7.3,2.933-7.283,2.2-7.05l1.15,2.1l0.9-0.6
					L4.65-7L4.3-7.1z"/>
			</g>
			
				<use xlink:href="#FlashAICB_x2F_underground_x5F_bogwillow_x2F__x3C_Path_x3E__x5F_29"  width="7.23" height="7.318" x="-0.008" y="-7.309" transform="matrix(1 0 0 1 0 -0.0498)" style="overflow:visible;opacity:0.3008;enable-background:new    ;"/>
		</g>
	</g>
</symbol>
<symbol  id="FlashAICB_x2F_underground_x5F_bogwillow_x2F__x3C_Group_x3E__x5F_16" viewBox="-0.009 -7.209 7.229 7.195">
	<g id="Layer_1_55_">
		<g>
			<g>
				<polygon style="fill-rule:evenodd;clip-rule:evenodd;fill:#879865;" points="3.3,-4.75 3.8,-3.8 4.2,-5.35 				"/>
				<path style="fill-rule:evenodd;clip-rule:evenodd;fill:#8BB526;" d="M3.8-3.8l1.8,3.45c0.9-0.433,1.433-1.2,1.6-2.3
					c0.066-0.667-0.034-1.333-0.3-2c-0.3-0.667-0.717-1.2-1.25-1.6c-0.367,0.2-0.85,0.5-1.45,0.9L3.8-3.8z"/>
				<path style="fill-rule:evenodd;clip-rule:evenodd;fill:#ABBF80;" d="M2.85-0.25l0.45,0.1c0.833,0.233,1.6,0.167,2.3-0.2L3.8-3.8
					L2.85-0.25z"/>
				<path style="fill-rule:evenodd;clip-rule:evenodd;fill:#758A46;" d="M3.3-4.75l-3,2c0.5,1.2,1.35,2.033,2.55,2.5L3.8-3.8
					L3.3-4.75z"/>
				<path style="fill-rule:evenodd;clip-rule:evenodd;fill:#A0B378;" d="M2.15-6.85c-1.133,0.4-1.8,1.184-2,2.35
					C0.05-3.9,0.1-3.317,0.3-2.75l3-2C3-5.383,2.617-6.083,2.15-6.85z"/>
				<path style="fill-rule:evenodd;clip-rule:evenodd;fill:#B0C584;" d="M4.6-6.85l-0.4,1.5c0.6-0.4,1.083-0.7,1.45-0.9
					C5.35-6.517,5-6.717,4.6-6.85z"/>
				<path style="fill-rule:evenodd;clip-rule:evenodd;fill:#8C9D69;" d="M4.3-6.95c-0.733-0.2-1.45-0.167-2.15,0.1
					C2.617-6.083,3-5.383,3.3-4.75l0.9-0.6l0.4-1.5L4.3-6.95z"/>
			</g>
			
				<use xlink:href="#FlashAICB_x2F_underground_x5F_bogwillow_x2F__x3C_Path_x3E__x5F_30"  width="7.219" height="7.168" x="-0.009" y="-7.159" transform="matrix(1 0 0 1 0 -0.0498)" style="overflow:visible;opacity:0.3008;enable-background:new    ;"/>
		</g>
	</g>
</symbol>
<symbol  id="FlashAICB_x2F_underground_x5F_bogwillow_x2F__x3C_Group_x3E__x5F_2" viewBox="-0.018 -7.35 7.925 7.35">
	<g id="Layer_1_41_">
		<g>
			<g>
				<polygon style="fill-rule:evenodd;clip-rule:evenodd;fill:#879865;" points="3.4,-4.8 4.1,-3.8 4.25,-5.45 				"/>
				<path style="fill-rule:evenodd;clip-rule:evenodd;fill:#8BB526;" d="M4.1-3.8l2.5,3.4c0.933-0.5,1.367-1.283,1.3-2.35
					C7.833-4.217,7.067-5.433,5.6-6.4L4.25-5.45L4.1-3.8z"/>
				<path style="fill-rule:evenodd;clip-rule:evenodd;fill:#ABBF80;" d="M3.7-0.2l0.5,0.1C5.067,0.1,5.867,0,6.6-0.4L4.1-3.8
					C3.967-2.2,3.833-1,3.7-0.2z"/>
				<path style="fill-rule:evenodd;clip-rule:evenodd;fill:#758A46;" d="M3.4-4.8L0.6-2.6c0.733,1.233,1.767,2.033,3.1,2.4
					c0.133-0.8,0.267-2,0.4-3.6L3.4-4.8z"/>
				<path style="fill-rule:evenodd;clip-rule:evenodd;fill:#A0B378;" d="M1.8-7C0.667-6.533,0.1-5.683,0.1-4.45
					c0,0.567,0.167,1.184,0.5,1.85l2.8-2.2L1.8-7z"/>
				<polygon style="fill-rule:evenodd;clip-rule:evenodd;fill:#B0C584;" points="4.4,-7 4.25,-5.45 5.6,-6.4 				"/>
				<path style="fill-rule:evenodd;clip-rule:evenodd;fill:#8C9D69;" d="M4-7.1C3.233-7.3,2.5-7.267,1.8-7l1.6,2.2l0.85-0.65L4.4-7
					L4-7.1z"/>
			</g>
			
				<use xlink:href="#FlashAICB_x2F_underground_x5F_bogwillow_x2F__x3C_Path_x3E__x5F_5"  width="7.875" height="7.3" x="-0.018" y="-7.3" transform="matrix(1 0 0 1 0 -0.0498)" style="overflow:visible;opacity:0.3008;enable-background:new    ;"/>
		</g>
	</g>
</symbol>
<symbol  id="FlashAICB_x2F_underground_x5F_bogwillow_x2F__x3C_Group_x3E__x5F_3" viewBox="0.018 -4.204 4.477 4.193">
	<g id="Layer_1_42_">
		<g>
			<g>
				<polygon style="fill-rule:evenodd;clip-rule:evenodd;fill:#879865;" points="2.2,-2.75 2.4,-2.2 2.85,-3.1 				"/>
				<path style="fill-rule:evenodd;clip-rule:evenodd;fill:#8BB526;" d="M2.4-2.2L3-0.15C3.633-0.417,4.083-0.867,4.35-1.5
					c0.3-0.9,0.133-1.617-0.5-2.15l-1,0.55L2.4-2.2z"/>
				<path style="fill-rule:evenodd;clip-rule:evenodd;fill:#ABBF80;" d="M1.3-0.15L1.55-0.1C1.983,0.033,2.467,0.017,3-0.15L2.4-2.2
					L1.3-0.15z"/>
				<path style="fill-rule:evenodd;clip-rule:evenodd;fill:#758A46;" d="M2.2-2.75L0.1-1.6c0.1,0.7,0.5,1.184,1.2,1.45L2.4-2.2
					L2.2-2.75z"/>
				<path style="fill-rule:evenodd;clip-rule:evenodd;fill:#A0B378;" d="M1.75-4C1.017-3.8,0.5-3.333,0.2-2.6
					c-0.133,0.3-0.167,0.633-0.1,1l2.1-1.15C2.1-3.183,1.95-3.6,1.75-4z"/>
				<path style="fill-rule:evenodd;clip-rule:evenodd;fill:#B0C584;" d="M3.25-4l-0.4,0.9l1-0.55C3.717-3.783,3.517-3.9,3.25-4z"/>
				<path style="fill-rule:evenodd;clip-rule:evenodd;fill:#8C9D69;" d="M3.1-4.05C2.7-4.183,2.25-4.167,1.75-4
					C1.95-3.6,2.1-3.183,2.2-2.75L2.85-3.1L3.25-4L3.1-4.05z"/>
			</g>
			
				<use xlink:href="#FlashAICB_x2F_underground_x5F_bogwillow_x2F__x3C_Path_x3E__x5F_6"  width="4.464" height="4.158" x="0.018" y="-4.204" style="overflow:visible;opacity:0.3008;enable-background:new    ;"/>
		</g>
	</g>
</symbol>
<symbol  id="FlashAICB_x2F_underground_x5F_bogwillow_x2F__x3C_Group_x3E__x5F_4" viewBox="-0.012 -4.148 4.723 4.115">
	<g id="Layer_1_43_">
		<g>
			<g>
				<polygon style="fill-rule:evenodd;clip-rule:evenodd;fill:#879865;" points="1.65,-2.1 2.3,-2.2 1.55,-2.7 				"/>
				<path style="fill-rule:evenodd;clip-rule:evenodd;fill:#8BB526;" d="M2.3-2.2l2.4-0.3C4.767-3.133,4.533-3.6,4-3.9
					C3.233-4.3,2.4-4.217,1.5-3.65L1.55-2.7L2.3-2.2z"/>
				<path style="fill-rule:evenodd;clip-rule:evenodd;fill:#ABBF80;" d="M3.9-0.95l0.2-0.2C4.467-1.617,4.667-2.067,4.7-2.5L2.3-2.2
					L3.9-0.95z"/>
				<path style="fill-rule:evenodd;clip-rule:evenodd;fill:#758A46;" d="M1.65-2.1l0.2,2.05C2.617-0.117,3.3-0.417,3.9-0.95L2.3-2.2
					L1.65-2.1z"/>
				<path style="fill-rule:evenodd;clip-rule:evenodd;fill:#A0B378;" d="M0.1-1.8C0-1.133,0.233-0.617,0.8-0.25
					c0.267,0.133,0.617,0.2,1.05,0.2L1.65-2.1L0.1-1.8z"/>
				<polygon style="fill-rule:evenodd;clip-rule:evenodd;fill:#B0C584;" points="0.85,-3.15 1.55,-2.7 1.5,-3.65 				"/>
				<path style="fill-rule:evenodd;clip-rule:evenodd;fill:#8C9D69;" d="M0.7-3C0.367-2.6,0.167-2.2,0.1-1.8l1.55-0.3l-0.1-0.6
					l-0.7-0.45L0.7-3z"/>
			</g>
			
				<use xlink:href="#FlashAICB_x2F_underground_x5F_bogwillow_x2F__x3C_Path_x3E__x5F_7"  width="4.695" height="4.078" x="-0.012" y="-4.111" style="overflow:visible;opacity:0.3008;enable-background:new    ;"/>
		</g>
	</g>
</symbol>
<symbol  id="FlashAICB_x2F_underground_x5F_bogwillow_x2F__x3C_Group_x3E__x5F_5" viewBox="-0.035 -4.15 4.538 4.13">
	<g id="Layer_1_44_">
		<g>
			<g>
				<polygon style="fill-rule:evenodd;clip-rule:evenodd;fill:#879865;" points="2.25,-2.75 2.4,-2.15 2.9,-3.1 				"/>
				<path style="fill-rule:evenodd;clip-rule:evenodd;fill:#8BB526;" d="M2.4-2.15L2.85-0.2C3.483-0.4,3.967-0.833,4.3-1.5
					c0.367-0.867,0.233-1.567-0.4-2.1l-1,0.5L2.4-2.15z"/>
				<path style="fill-rule:evenodd;clip-rule:evenodd;fill:#ABBF80;" d="M1.1-0.15L1.35-0.1C1.817,0.033,2.317,0,2.85-0.2L2.4-2.15
					C1.767-1.117,1.333-0.45,1.1-0.15z"/>
				<path style="fill-rule:evenodd;clip-rule:evenodd;fill:#758A46;" d="M2.25-2.75l-2.2,1.2c0.067,0.667,0.417,1.133,1.05,1.4
					c0.233-0.3,0.667-0.967,1.3-2L2.25-2.75z"/>
				<path style="fill-rule:evenodd;clip-rule:evenodd;fill:#A0B378;" d="M1.85-3.95C1.117-3.75,0.567-3.3,0.2-2.6
					C0.067-2.267,0.017-1.917,0.05-1.55l2.2-1.2L1.85-3.95z"/>
				<polygon style="fill-rule:evenodd;clip-rule:evenodd;fill:#B0C584;" points="3.35,-3.95 2.9,-3.1 3.9,-3.6 				"/>
				<path style="fill-rule:evenodd;clip-rule:evenodd;fill:#8C9D69;" d="M3.15-4c-0.467-0.133-0.9-0.117-1.3,0.05l0.4,1.2L2.9-3.1
					l0.45-0.85L3.15-4z"/>
			</g>
			
				<use xlink:href="#FlashAICB_x2F_underground_x5F_bogwillow_x2F__x3C_Path_x3E__x5F_8"  width="4.538" height="4.104" x="-0.035" y="-4.1" transform="matrix(1 0 0 1 0 -0.0498)" style="overflow:visible;opacity:0.3008;enable-background:new    ;"/>
		</g>
	</g>
</symbol>
<symbol  id="FlashAICB_x2F_underground_x5F_bogwillow_x2F__x3C_Group_x3E__x5F_6" viewBox="-0.053 -4.064 4.756 4.083">
	<g id="Layer_1_45_">
		<g>
			<g>
				<polygon style="fill-rule:evenodd;clip-rule:evenodd;fill:#879865;" points="1.8,-2.4 2.4,-2.15 2.05,-3.05 				"/>
				<path style="fill-rule:evenodd;clip-rule:evenodd;fill:#8BB526;" d="M2.4-2.15l2,0.9C4.767-1.883,4.8-2.467,4.5-3
					C4.1-3.767,3.417-4.1,2.45-4l-0.4,0.95L2.4-2.15z"/>
				<path style="fill-rule:evenodd;clip-rule:evenodd;fill:#ABBF80;" d="M2.95-0.15l0.25-0.1c0.533-0.233,0.933-0.567,1.2-1l-2-0.9
					L2.95-0.15z"/>
				<path style="fill-rule:evenodd;clip-rule:evenodd;fill:#758A46;" d="M1.8-2.4L0.9-0.3c0.567,0.367,1.25,0.417,2.05,0.15l-0.55-2
					L1.8-2.4z"/>
				<path style="fill-rule:evenodd;clip-rule:evenodd;fill:#A0B378;" d="M0.45-2.9C0.017-2.267-0.067-1.65,0.2-1.05
					C0.3-0.783,0.533-0.533,0.9-0.3l0.9-2.1L0.45-2.9z"/>
				<polygon style="fill-rule:evenodd;clip-rule:evenodd;fill:#B0C584;" points="1.7,-3.85 2.05,-3.05 2.45,-4 				"/>
				<path style="fill-rule:evenodd;clip-rule:evenodd;fill:#8C9D69;" d="M1.5-3.75C1.067-3.55,0.717-3.267,0.45-2.9L1.8-2.4
					l0.25-0.65L1.7-3.85L1.5-3.75z"/>
			</g>
			
				<use xlink:href="#FlashAICB_x2F_underground_x5F_bogwillow_x2F__x3C_Path_x3E__x5F_9"  width="4.707" height="4.068" x="-0.053" y="-4.064" style="overflow:visible;opacity:0.3008;enable-background:new    ;"/>
		</g>
	</g>
</symbol>
<symbol  id="FlashAICB_x2F_underground_x5F_bogwillow_x2F__x3C_Group_x3E__x5F_7" viewBox="0 -7.806 8.173 7.806">
	<g id="Layer_1_46_">
		<g>
			<g>
				<polygon style="fill-rule:evenodd;clip-rule:evenodd;fill:#879865;" points="3.3,-4.95 4.25,-4.1 3.95,-5.95 				"/>
				<path style="fill-rule:evenodd;clip-rule:evenodd;fill:#8BB526;" d="M4.25-4.1l3.05,3c0.8-0.8,1.05-1.816,0.75-3.05
					c-0.167-0.733-0.55-1.4-1.15-2c-0.566-0.567-1.233-0.983-2-1.25L3.95-5.95L4.25-4.1z"/>
				<path style="fill-rule:evenodd;clip-rule:evenodd;fill:#ABBF80;" d="M4.6,0l0.45-0.05C5.95-0.083,6.7-0.433,7.3-1.1l-3.05-3
					C4.483-2.467,4.6-1.1,4.6,0z"/>
				<path style="fill-rule:evenodd;clip-rule:evenodd;fill:#758A46;" d="M3.3-4.95C2.1-3.05,1.4-1.967,1.2-1.7
					c0.867,1.067,2,1.633,3.4,1.7c0-1.1-0.117-2.467-0.35-4.1L3.3-4.95z"/>
				<path style="fill-rule:evenodd;clip-rule:evenodd;fill:#A0B378;" d="M1.15-6.85c-0.9,0.8-1.2,1.917-0.9,3.35
					c0.2,0.667,0.517,1.267,0.95,1.8c0.2-0.267,0.9-1.35,2.1-3.25L1.15-6.85z"/>
				<path style="fill-rule:evenodd;clip-rule:evenodd;fill:#B0C584;" d="M4.9-6.25L5.25-4.5l1-1.5C5.95-6.1,5.5-6.183,4.9-6.25z"/>
				<path style="fill-rule:evenodd;clip-rule:evenodd;fill:#8C9D69;" d="M4.55-6.25C3.75-6.217,3.067-5.933,2.5-5.4l2.15,1.85
					l0.6-0.95L4.9-6.25H4.55z"/>
			</g>
			
				<use xlink:href="#FlashAICB_x2F_underground_x5F_bogwillow_x2F__x3C_Path_x3E__x5F_10"  width="8.142" height="7.806" x="0" y="-7.756" transform="matrix(1 0 0 1 0 -0.0498)" style="overflow:visible;opacity:0.3008;enable-background:new    ;"/>
		</g>
	</g>
</symbol>
<symbol  id="FlashAICB_x2F_underground_x5F_bogwillow_x2F__x3C_Group_x3E__x5F_8" viewBox="-0.006 -11.463 10.286 11.457">
	<g id="Layer_1_47_">
		<g>
			<g>
				<polygon style="fill-rule:evenodd;clip-rule:evenodd;fill:#555A4C;" points="4.1,-7.5 5.3,-6.05 4.9,-8.65 				"/>
				<path style="fill-rule:evenodd;clip-rule:evenodd;fill:#647640;" d="M9.3-0.95c0.934-1,1.2-2.333,0.8-4
					c-0.233-0.966-0.717-2-1.45-3.1c-0.733-1-1.566-1.767-2.5-2.3L4.9-8.65l0.4,2.6L9.3-0.95z"/>
				<path style="fill-rule:evenodd;clip-rule:evenodd;fill:#7A806D;" d="M5.3-6.05l0.65,5.9l0.55,0.1c1.167,0.167,2.1-0.133,2.8-0.9
					L5.3-6.05z"/>
				<path style="fill-rule:evenodd;clip-rule:evenodd;fill:#454B39;" d="M5.3-6.05L4.1-7.5L1.55-3.6c0.567,0.934,1.233,1.684,2,2.25
					c0.767,0.6,1.567,1,2.4,1.2L5.3-6.05z"/>
				<path style="fill-rule:evenodd;clip-rule:evenodd;fill:#6E7462;" d="M1.45-10.75C0.283-9.917-0.1-8.483,0.3-6.45
					C0.567-5.35,0.983-4.4,1.55-3.6L4.1-7.5L1.45-10.75z"/>
				<path style="fill-rule:evenodd;clip-rule:evenodd;fill:#7F8671;" d="M4.55-11.1L4.9-8.65l1.25-1.7
					C5.65-10.683,5.117-10.933,4.55-11.1z"/>
				<path style="fill-rule:evenodd;clip-rule:evenodd;fill:#5A5F50;" d="M4.05-11.2c-0.966-0.233-1.833-0.083-2.6,0.45L4.1-7.5
					l0.8-1.15L4.55-11.1L4.05-11.2z"/>
			</g>
			
				<use xlink:href="#FlashAICB_x2F_underground_x5F_bogwillow_x2F__x3C_Path_x3E__x5F_11"  width="10.22" height="11.412" x="-0.006" y="-11.413" transform="matrix(1 0 0 1 0 -0.0498)" style="overflow:visible;opacity:0.3008;enable-background:new    ;"/>
		</g>
	</g>
</symbol>
<symbol  id="FlashAICB_x2F_underground_x5F_bogwillow_x2F__x3C_Group_x3E__x5F_9" viewBox="-0.018 -7.259 7.963 7.253">
	<g id="Layer_1_48_">
		<g>
			<g>
				<polygon style="fill-rule:evenodd;clip-rule:evenodd;fill:#555A4C;" points="3.95,-4.8 4.25,-3.8 5.1,-5.4 				"/>
				<path style="fill-rule:evenodd;clip-rule:evenodd;fill:#647640;" d="M4.25-3.8l0.8,3.5C6.25-0.733,7.1-1.517,7.6-2.65
					c0.333-0.667,0.417-1.333,0.25-2C7.717-5.317,7.4-5.867,6.9-6.3L5.1-5.4L4.25-3.8z"/>
				<path style="fill-rule:evenodd;clip-rule:evenodd;fill:#7A806D;" d="M2-0.25l0.4,0.1C3.2,0.083,4.083,0.033,5.05-0.3l-0.8-3.5
					C3.483-2.5,2.733-1.317,2-0.25z"/>
				<path style="fill-rule:evenodd;clip-rule:evenodd;fill:#454B39;" d="M3.95-4.8L0.1-2.75c0.1,1.2,0.733,2.033,1.9,2.5
					C2.733-1.317,3.483-2.5,4.25-3.8L3.95-4.8z"/>
				<path style="fill-rule:evenodd;clip-rule:evenodd;fill:#6E7462;" d="M3.25-6.95C1.917-6.517,0.967-5.7,0.4-4.5
					C0.133-3.9,0.033-3.317,0.1-2.75L3.95-4.8L3.25-6.95z"/>
				<path style="fill-rule:evenodd;clip-rule:evenodd;fill:#7F8671;" d="M5.9-6.9L5.1-5.4l1.8-0.9C6.567-6.567,6.233-6.767,5.9-6.9z
					"/>
				<path style="fill-rule:evenodd;clip-rule:evenodd;fill:#5A5F50;" d="M5.55-7c-0.8-0.2-1.566-0.183-2.3,0.05l0.7,2.15L5.1-5.4
					l0.8-1.5L5.55-7z"/>
			</g>
			
				<use xlink:href="#FlashAICB_x2F_underground_x5F_bogwillow_x2F__x3C_Path_x3E__x5F_12"  width="7.963" height="7.218" x="-0.018" y="-7.209" transform="matrix(1 0 0 1 0 -0.0498)" style="overflow:visible;opacity:0.3008;enable-background:new    ;"/>
		</g>
	</g>
</symbol>
<symbol  id="FlashAICB_x2F_underground_x5F_bogwillow_x2F__x3C_Path_x3E_" viewBox="0.015 -9.082 8.428 9.096">
	<g id="Layer_1_2_">
		
			<radialGradient id="SVGID_1_" cx="8057.8335" cy="3377.3828" r="4.2432" gradientTransform="matrix(0.7246 0.6892 0.7687 -0.7805 -8430.541 -2922.0068)" gradientUnits="userSpaceOnUse">
			<stop  offset="0" style="stop-color:#473432"/>
			<stop  offset="0.2078" style="stop-color:#4A3735"/>
			<stop  offset="0.349" style="stop-color:#52403E"/>
			<stop  offset="0.4784" style="stop-color:#604F4E"/>
			<stop  offset="0.5922" style="stop-color:#746564"/>
			<stop  offset="0.702" style="stop-color:#8E8281"/>
			<stop  offset="0.8039" style="stop-color:#ADA4A4"/>
			<stop  offset="0.902" style="stop-color:#D2CECD"/>
			<stop  offset="0.9961" style="stop-color:#FCFCFC"/>
			<stop  offset="1" style="stop-color:#FFFFFF"/>
		</radialGradient>
		<path style="fill-rule:evenodd;clip-rule:evenodd;fill:url(#SVGID_1_);" d="M6.2-0.1c1.066-0.3,1.75-0.95,2.05-1.95
			c0.333-1,0.233-2.1-0.3-3.3c-0.567-1.233-1.4-2.183-2.5-2.85C4.35-8.967,3.283-9.233,2.25-9c-1,0.167-1.683,0.783-2.05,1.85
			c-0.333,1-0.217,2.167,0.35,3.5c0.5,1.233,1.333,2.217,2.5,2.95C4.183-0.033,5.233,0.167,6.2-0.1z"/>
	</g>
</symbol>
<symbol  id="FlashAICB_x2F_underground_x5F_bogwillow_x2F__x3C_Path_x3E__x5F_0" viewBox="0.012 -16.459 15.031 16.468">
	<g id="Layer_1_3_">
		
			<radialGradient id="SVGID_2_" cx="647.9736" cy="-16595.6992" r="7.9182" gradientTransform="matrix(-0.0379 -0.9993 -0.9851 0.0726 -16315.9453 1844.3994)" gradientUnits="userSpaceOnUse">
			<stop  offset="0" style="stop-color:#FDF400;stop-opacity:0.6471"/>
			<stop  offset="0.9569" style="stop-color:#FDF400;stop-opacity:0"/>
		</radialGradient>
		<path style="fill-rule:evenodd;clip-rule:evenodd;fill:url(#SVGID_2_);" d="M13.2-1.35c0.833-0.733,1.383-1.733,1.65-3
			c0.3-1.2,0.25-2.533-0.15-4c-0.333-1.3-0.967-2.617-1.9-3.95c-0.867-1.167-1.9-2.117-3.1-2.85c-1.233-0.767-2.5-1.2-3.8-1.3
			c-1.367-0.066-2.533,0.233-3.5,0.9c-1,0.7-1.7,1.633-2.1,2.8c-0.367,1.267-0.383,2.683-0.05,4.25c0.4,1.567,1.133,3.05,2.2,4.45
			C3.55-2.683,4.717-1.667,5.95-1c1.333,0.733,2.667,1.067,4,1C11.25-0.1,12.333-0.55,13.2-1.35z"/>
	</g>
</symbol>
<symbol  id="FlashAICB_x2F_underground_x5F_bogwillow_x2F__x3C_Path_x3E__x5F_1" viewBox="-0.003 -13.672 14.516 13.676">
	<g id="Layer_1_4_">
		
			<radialGradient id="SVGID_3_" cx="644.2954" cy="-16589.6484" r="7.086" gradientTransform="matrix(-0.0371 -0.9993 -0.9852 0.0724 -16312.7676 1837.9492)" gradientUnits="userSpaceOnUse">
			<stop  offset="0" style="stop-color:#FDF400;stop-opacity:0.6471"/>
			<stop  offset="0.9569" style="stop-color:#FDF400;stop-opacity:0"/>
		</radialGradient>
		<path style="fill-rule:evenodd;clip-rule:evenodd;fill:url(#SVGID_3_);" d="M12.5-3c0.833-1,1.433-2.133,1.8-3.4
			c0.3-1.3,0.284-2.467-0.05-3.5c-0.3-1.033-0.9-1.9-1.8-2.6c-0.867-0.667-1.95-1.05-3.25-1.15c-1.267-0.1-2.55,0.133-3.85,0.7
			c-1.267,0.534-2.333,1.284-3.2,2.25c-0.967,1-1.617,2.117-1.95,3.35c-0.3,1.233-0.267,2.4,0.1,3.5c0.4,1.033,1.067,1.917,2,2.65
			C3.333-0.5,4.467-0.1,5.7,0c1.267,0.033,2.517-0.2,3.75-0.7C10.617-1.267,11.633-2.033,12.5-3z"/>
	</g>
</symbol>
<symbol  id="FlashAICB_x2F_underground_x5F_bogwillow_x2F__x3C_Path_x3E__x5F_10" viewBox="0 -7.756 8.142 7.806">
	<g id="Layer_1_13_">
		
			<radialGradient id="SVGID_4_" cx="8048.6021" cy="3377.8711" r="3.831" gradientTransform="matrix(0.7248 0.6889 0.7673 -0.7803 -8421.7012 -2912.812)" gradientUnits="userSpaceOnUse">
			<stop  offset="0" style="stop-color:#473432"/>
			<stop  offset="0.2078" style="stop-color:#4A3735"/>
			<stop  offset="0.349" style="stop-color:#52403E"/>
			<stop  offset="0.4784" style="stop-color:#604F4E"/>
			<stop  offset="0.5922" style="stop-color:#746564"/>
			<stop  offset="0.702" style="stop-color:#8E8281"/>
			<stop  offset="0.8039" style="stop-color:#ADA4A4"/>
			<stop  offset="0.902" style="stop-color:#D2CECD"/>
			<stop  offset="0.9961" style="stop-color:#FCFCFC"/>
			<stop  offset="1" style="stop-color:#FFFFFF"/>
		</radialGradient>
		<path style="fill-rule:evenodd;clip-rule:evenodd;fill:url(#SVGID_4_);" d="M5.8-0.15c1-0.333,1.7-0.967,2.1-1.9
			C8.267-3.017,8.217-3.967,7.75-4.9C7.25-5.933,6.467-6.7,5.4-7.2C4.367-7.767,3.333-7.9,2.3-7.6c-1,0.267-1.7,0.883-2.1,1.85
			c-0.333,0.9-0.25,1.917,0.25,3.05C0.95-1.667,1.7-0.9,2.7-0.4C3.733,0.1,4.767,0.183,5.8-0.15z"/>
	</g>
</symbol>
<symbol  id="FlashAICB_x2F_underground_x5F_bogwillow_x2F__x3C_Path_x3E__x5F_11" viewBox="-0.006 -11.413 10.22 11.412">
	<g id="Layer_1_14_">
		
			<radialGradient id="SVGID_5_" cx="8056.793" cy="3376.3545" r="5.2531" gradientTransform="matrix(0.7236 0.6902 0.7688 -0.7807 -8420.3418 -2930.9917)" gradientUnits="userSpaceOnUse">
			<stop  offset="0" style="stop-color:#090808"/>
			<stop  offset="0.1922" style="stop-color:#0C0B0B"/>
			<stop  offset="0.3255" style="stop-color:#151414"/>
			<stop  offset="0.4431" style="stop-color:#252424"/>
			<stop  offset="0.5529" style="stop-color:#3B3A3A"/>
			<stop  offset="0.6549" style="stop-color:#575656"/>
			<stop  offset="0.749" style="stop-color:#7A7979"/>
			<stop  offset="0.8392" style="stop-color:#A3A3A3"/>
			<stop  offset="0.9255" style="stop-color:#D2D1D1"/>
			<stop  offset="1" style="stop-color:#FFFFFF"/>
		</radialGradient>
		<path style="fill-rule:evenodd;clip-rule:evenodd;fill:url(#SVGID_5_);" d="M3.5-1.3c1.367,1.033,2.667,1.45,3.9,1.25
			C8.633-0.217,9.483-0.9,9.95-2.1c0.433-1.267,0.333-2.617-0.3-4.05c-0.6-1.533-1.55-2.8-2.85-3.8
			c-1.333-1.066-2.617-1.55-3.85-1.45C1.683-11.333,0.8-10.717,0.3-9.55C-0.167-8.383-0.1-6.967,0.5-5.3
			C1.167-3.633,2.167-2.3,3.5-1.3z"/>
	</g>
</symbol>
<symbol  id="FlashAICB_x2F_underground_x5F_bogwillow_x2F__x3C_Path_x3E__x5F_12" viewBox="-0.018 -7.209 7.963 7.218">
	<g id="Layer_1_15_">
		
			<radialGradient id="SVGID_6_" cx="8068.3003" cy="3378.3223" r="3.5901" gradientTransform="matrix(0.7243 0.6895 0.7696 -0.78 -8439.8125 -2931.3853)" gradientUnits="userSpaceOnUse">
			<stop  offset="0" style="stop-color:#090808"/>
			<stop  offset="0.1922" style="stop-color:#0C0B0B"/>
			<stop  offset="0.3255" style="stop-color:#151414"/>
			<stop  offset="0.4431" style="stop-color:#252424"/>
			<stop  offset="0.5529" style="stop-color:#3B3A3A"/>
			<stop  offset="0.6549" style="stop-color:#575656"/>
			<stop  offset="0.749" style="stop-color:#7A7979"/>
			<stop  offset="0.8392" style="stop-color:#A3A3A3"/>
			<stop  offset="0.9255" style="stop-color:#D2D1D1"/>
			<stop  offset="1" style="stop-color:#FFFFFF"/>
		</radialGradient>
		<path style="fill-rule:evenodd;clip-rule:evenodd;fill:url(#SVGID_6_);" d="M0.65-1.2c0.6,0.733,1.434,1.133,2.5,1.2
			c1.033,0.067,2.033-0.233,3-0.9c0.934-0.667,1.5-1.5,1.7-2.5c0.233-1,0.033-1.867-0.6-2.6c-0.6-0.733-1.433-1.133-2.5-1.2
			C3.683-7.267,2.7-6.967,1.8-6.3C0.9-5.667,0.333-4.833,0.1-3.8C-0.167-2.867,0.017-2,0.65-1.2z"/>
	</g>
</symbol>
<symbol  id="FlashAICB_x2F_underground_x5F_bogwillow_x2F__x3C_Path_x3E__x5F_13" viewBox="0.002 -6.96 8.417 6.962">
	<g id="Layer_1_16_">
		
			<radialGradient id="SVGID_7_" cx="14860.9814" cy="1338.5195" r="3.6452" gradientTransform="matrix(0.1783 0.984 1.08 -0.1783 -4090.8145 -14387.7666)" gradientUnits="userSpaceOnUse">
			<stop  offset="0" style="stop-color:#090808"/>
			<stop  offset="0.1922" style="stop-color:#0C0B0B"/>
			<stop  offset="0.3255" style="stop-color:#151414"/>
			<stop  offset="0.4431" style="stop-color:#252424"/>
			<stop  offset="0.5529" style="stop-color:#3B3A3A"/>
			<stop  offset="0.6549" style="stop-color:#575656"/>
			<stop  offset="0.749" style="stop-color:#7A7979"/>
			<stop  offset="0.8392" style="stop-color:#A3A3A3"/>
			<stop  offset="0.9255" style="stop-color:#D2D1D1"/>
			<stop  offset="1" style="stop-color:#FFFFFF"/>
		</radialGradient>
		<path style="fill-rule:evenodd;clip-rule:evenodd;fill:url(#SVGID_7_);" d="M4.95,0c1.133,0,2.033-0.333,2.7-1
			c0.667-0.7,0.9-1.5,0.7-2.4C8.15-4.3,7.6-5.1,6.7-5.8C5.833-6.467,4.8-6.85,3.6-6.95C2.433-7.017,1.517-6.733,0.85-6.1
			c-0.7,0.633-0.967,1.467-0.8,2.5C0.25-2.633,0.833-1.767,1.8-1C2.8-0.3,3.85,0.033,4.95,0z"/>
	</g>
</symbol>
<symbol  id="FlashAICB_x2F_underground_x5F_bogwillow_x2F__x3C_Path_x3E__x5F_14" viewBox="0 -5.497 6.195 5.494">
	<g id="Layer_1_17_">
		
			<radialGradient id="SVGID_8_" cx="14885.0225" cy="1320.0039" r="2.7806" gradientTransform="matrix(0.1753 0.9845 1.0789 -0.1753 -4030.7725 -14425.7871)" gradientUnits="userSpaceOnUse">
			<stop  offset="0" style="stop-color:#090808"/>
			<stop  offset="0.1922" style="stop-color:#0C0B0B"/>
			<stop  offset="0.3255" style="stop-color:#151414"/>
			<stop  offset="0.4431" style="stop-color:#252424"/>
			<stop  offset="0.5529" style="stop-color:#3B3A3A"/>
			<stop  offset="0.6549" style="stop-color:#575656"/>
			<stop  offset="0.749" style="stop-color:#7A7979"/>
			<stop  offset="0.8392" style="stop-color:#A3A3A3"/>
			<stop  offset="0.9255" style="stop-color:#D2D1D1"/>
			<stop  offset="1" style="stop-color:#FFFFFF"/>
		</radialGradient>
		<path style="fill-rule:evenodd;clip-rule:evenodd;fill:url(#SVGID_8_);" d="M2.25-0.05c0.833,0.133,1.633-0.017,2.4-0.45
			C5.383-0.933,5.867-1.517,6.1-2.25C6.3-3.017,6.183-3.7,5.75-4.3C5.317-4.933,4.667-5.317,3.8-5.45C2.967-5.583,2.2-5.433,1.5-5
			C0.767-4.567,0.3-3.967,0.1-3.2c-0.2,0.733-0.1,1.4,0.3,2C0.833-0.567,1.45-0.183,2.25-0.05z"/>
	</g>
</symbol>
<symbol  id="FlashAICB_x2F_underground_x5F_bogwillow_x2F__x3C_Path_x3E__x5F_15" viewBox="-0.01 -6.61 7.262 6.62">
	<g id="Layer_1_18_">
		
			<radialGradient id="SVGID_9_" cx="8061.0469" cy="3378.8945" r="3.2978" gradientTransform="matrix(0.724 0.6898 0.7657 -0.777 -8419.2617 -2938.6938)" gradientUnits="userSpaceOnUse">
			<stop  offset="0" style="stop-color:#090808"/>
			<stop  offset="0.1922" style="stop-color:#0C0B0B"/>
			<stop  offset="0.3255" style="stop-color:#151414"/>
			<stop  offset="0.4431" style="stop-color:#252424"/>
			<stop  offset="0.5529" style="stop-color:#3B3A3A"/>
			<stop  offset="0.6549" style="stop-color:#575656"/>
			<stop  offset="0.749" style="stop-color:#7A7979"/>
			<stop  offset="0.8392" style="stop-color:#A3A3A3"/>
			<stop  offset="0.9255" style="stop-color:#D2D1D1"/>
			<stop  offset="1" style="stop-color:#FFFFFF"/>
		</radialGradient>
		<path style="fill-rule:evenodd;clip-rule:evenodd;fill:url(#SVGID_9_);" d="M0.6-1.1C1.167-0.433,1.95-0.067,2.95,0
			c0.966,0.067,1.867-0.217,2.7-0.85c0.833-0.633,1.333-1.383,1.5-2.25c0.233-0.933,0.067-1.733-0.5-2.4
			c-0.533-0.667-1.3-1.033-2.3-1.1c-1-0.066-1.917,0.2-2.75,0.8C0.8-5.2,0.283-4.433,0.05-3.5C-0.117-2.567,0.067-1.767,0.6-1.1z"/>
	</g>
</symbol>
<symbol  id="FlashAICB_x2F_underground_x5F_bogwillow_x2F__x3C_Path_x3E__x5F_16" viewBox="-0.01 -6.659 7.216 6.662">
	<g id="Layer_1_19_">
		
			<radialGradient id="SVGID_10_" cx="8061.0112" cy="3378.9297" r="3.2985" gradientTransform="matrix(0.724 0.6898 0.7657 -0.777 -8419.3125 -2938.6431)" gradientUnits="userSpaceOnUse">
			<stop  offset="0" style="stop-color:#090808"/>
			<stop  offset="0.1922" style="stop-color:#0C0B0B"/>
			<stop  offset="0.3255" style="stop-color:#151414"/>
			<stop  offset="0.4431" style="stop-color:#252424"/>
			<stop  offset="0.5529" style="stop-color:#3B3A3A"/>
			<stop  offset="0.6549" style="stop-color:#575656"/>
			<stop  offset="0.749" style="stop-color:#7A7979"/>
			<stop  offset="0.8392" style="stop-color:#A3A3A3"/>
			<stop  offset="0.9255" style="stop-color:#D2D1D1"/>
			<stop  offset="1" style="stop-color:#FFFFFF"/>
		</radialGradient>
		<path style="fill-rule:evenodd;clip-rule:evenodd;fill:url(#SVGID_10_);" d="M0.6-1.1C1.167-0.433,1.933-0.067,2.9,0
			c0.967,0.033,1.883-0.25,2.75-0.85c0.867-0.633,1.367-1.4,1.5-2.3c0.167-0.934-0.033-1.733-0.6-2.4
			C5.983-6.217,5.2-6.583,4.2-6.65C3.167-6.717,2.267-6.433,1.5-5.8C0.7-5.2,0.217-4.433,0.05-3.5C-0.117-2.567,0.067-1.767,0.6-1.1
			z"/>
	</g>
</symbol>
<symbol  id="FlashAICB_x2F_underground_x5F_bogwillow_x2F__x3C_Path_x3E__x5F_17" viewBox="0.008 -7.621 7.71 7.623">
	<g id="Layer_1_20_">
		
			<radialGradient id="SVGID_11_" cx="-951.4961" cy="-1230.3608" r="3.6487" gradientTransform="matrix(0.9901 -0.1405 -0.137 -1.086 777.3096 -1473.6348)" gradientUnits="userSpaceOnUse">
			<stop  offset="0" style="stop-color:#090808"/>
			<stop  offset="0.1922" style="stop-color:#0C0B0B"/>
			<stop  offset="0.3255" style="stop-color:#151414"/>
			<stop  offset="0.4431" style="stop-color:#252424"/>
			<stop  offset="0.5529" style="stop-color:#3B3A3A"/>
			<stop  offset="0.6549" style="stop-color:#575656"/>
			<stop  offset="0.749" style="stop-color:#7A7979"/>
			<stop  offset="0.8392" style="stop-color:#A3A3A3"/>
			<stop  offset="0.9255" style="stop-color:#D2D1D1"/>
			<stop  offset="1" style="stop-color:#FFFFFF"/>
		</radialGradient>
		<path style="fill-rule:evenodd;clip-rule:evenodd;fill:url(#SVGID_11_);" d="M0.25-3.3c0.333,1.033,1,1.883,2,2.55
			c0.933,0.633,1.9,0.867,2.9,0.7c0.967-0.2,1.7-0.733,2.2-1.6C7.783-2.483,7.833-3.4,7.5-4.4s-1-1.8-2-2.4
			C4.6-7.433,3.633-7.7,2.6-7.6C1.567-7.467,0.833-7,0.4-6.2C-0.067-5.4-0.117-4.433,0.25-3.3z"/>
	</g>
</symbol>
<symbol  id="FlashAICB_x2F_underground_x5F_bogwillow_x2F__x3C_Path_x3E__x5F_18" viewBox="-0.003 -18.22 17.353 18.236">
	<g id="Layer_1_21_">
		
			<radialGradient id="SVGID_12_" cx="648.9878" cy="-16593.2891" r="8.9397" gradientTransform="matrix(-0.0377 -0.9993 -0.9853 0.0727 -16316.3848 1845.4014)" gradientUnits="userSpaceOnUse">
			<stop  offset="0" style="stop-color:#FDF400;stop-opacity:0.6471"/>
			<stop  offset="0.9569" style="stop-color:#FDF400;stop-opacity:0"/>
		</radialGradient>
		<path style="fill-rule:evenodd;clip-rule:evenodd;fill:url(#SVGID_12_);" d="M13.65-1.1c1.2-0.833,2.1-1.933,2.7-3.3
			c0.6-1.267,0.933-2.783,1-4.55c0-1.7-0.317-3.2-0.95-4.5c-0.566-1.3-1.467-2.4-2.7-3.3c-1.267-0.867-2.65-1.35-4.15-1.45
			c-1.566-0.1-3.066,0.184-4.5,0.85c-1.433,0.667-2.617,1.617-3.55,2.85c-0.967,1.333-1.467,2.767-1.5,4.3C-0.033-9,0.2-7.8,0.7-6.6
			c0.5,1.167,1.216,2.25,2.15,3.25C3.85-2.317,4.867-1.533,5.9-1c1.2,0.6,2.383,0.933,3.55,1C10.983,0.1,12.383-0.267,13.65-1.1z"/>
	</g>
</symbol>
<symbol  id="FlashAICB_x2F_underground_x5F_bogwillow_x2F__x3C_Path_x3E__x5F_19" viewBox="-0.014 -12.924 14.005 12.899">
	<g id="Layer_1_22_">
		
			<radialGradient id="SVGID_13_" cx="646.085" cy="-16591.0391" r="6.711" gradientTransform="matrix(-0.0372 -0.9993 -0.9844 0.0726 -16301.5117 1843.2891)" gradientUnits="userSpaceOnUse">
			<stop  offset="0" style="stop-color:#FDF400;stop-opacity:0.6471"/>
			<stop  offset="0.9569" style="stop-color:#FDF400;stop-opacity:0"/>
		</radialGradient>
		<path style="fill-rule:evenodd;clip-rule:evenodd;fill:url(#SVGID_13_);" d="M11.8-2.8c0.934-1.034,1.567-2.1,1.9-3.2
			c0.533-1.767,0.333-3.333-0.6-4.7c-1-1.367-2.4-2.1-4.2-2.2c-1.2-0.1-2.417,0.117-3.65,0.65c-1.133,0.5-2.167,1.217-3.1,2.15
			c-0.867,0.934-1.483,2-1.85,3.2c-0.566,1.767-0.367,3.316,0.6,4.65c0.934,1.367,2.333,2.1,4.2,2.2c1.133,0.1,2.35-0.1,3.65-0.6
			C9.917-1.15,10.933-1.867,11.8-2.8z"/>
	</g>
</symbol>
<symbol  id="FlashAICB_x2F_underground_x5F_bogwillow_x2F__x3C_Path_x3E__x5F_2" viewBox="0.018 -14.16 14.638 14.163">
	<g id="Layer_1_5_">
		
			<radialGradient id="SVGID_14_" cx="643.2529" cy="-16595.5117" r="7.2622" gradientTransform="matrix(-0.0378 -0.9993 -0.9855 0.0722 -16323.5898 1834.5479)" gradientUnits="userSpaceOnUse">
			<stop  offset="0" style="stop-color:#FDF400;stop-opacity:0.6471"/>
			<stop  offset="0.9569" style="stop-color:#FDF400;stop-opacity:0"/>
		</radialGradient>
		<path style="fill-rule:evenodd;clip-rule:evenodd;fill:url(#SVGID_14_);" d="M12.35-0.95c0.867-0.6,1.517-1.417,1.95-2.45
			c0.367-1.033,0.45-2.15,0.25-3.35c-0.267-1.3-0.767-2.467-1.5-3.5c-0.733-1.033-1.65-1.917-2.75-2.65
			c-1.167-0.733-2.383-1.15-3.65-1.25c-1.333-0.067-2.533,0.183-3.6,0.75c-1.066,0.566-1.883,1.383-2.45,2.45
			C0.067-9.85-0.1-8.633,0.1-7.3c0.267,1.4,0.85,2.65,1.75,3.75C2.75-2.383,3.833-1.5,5.1-0.9C6.4-0.267,7.7,0.033,9,0
			C10.3,0,11.417-0.317,12.35-0.95z"/>
	</g>
</symbol>
<symbol  id="FlashAICB_x2F_underground_x5F_bogwillow_x2F__x3C_Path_x3E__x5F_20" viewBox="-0.012 -13.011 13.914 13.035">
	<g id="Layer_1_23_">
		
			<radialGradient id="SVGID_15_" cx="646.1367" cy="-16591.0859" r="6.7127" gradientTransform="matrix(-0.0372 -0.9993 -0.9844 0.0726 -16301.6055 1843.2959)" gradientUnits="userSpaceOnUse">
			<stop  offset="0" style="stop-color:#FDF400;stop-opacity:0.6471"/>
			<stop  offset="0.9569" style="stop-color:#FDF400;stop-opacity:0"/>
		</radialGradient>
		<path style="fill-rule:evenodd;clip-rule:evenodd;fill:url(#SVGID_15_);" d="M11.85-2.8c0.9-0.934,1.517-2,1.85-3.2
			c0.3-1.167,0.267-2.283-0.1-3.35c-0.333-1-0.95-1.833-1.85-2.5c-0.867-0.667-1.933-1.05-3.2-1.15
			c-1.267-0.067-2.466,0.167-3.6,0.7c-1.2,0.533-2.184,1.267-2.95,2.2c-0.867,1-1.45,2.067-1.75,3.2
			c-0.5,1.767-0.283,3.333,0.65,4.7c1,1.367,2.4,2.1,4.2,2.2c1.2,0.1,2.417-0.117,3.65-0.65C9.95-1.183,10.983-1.9,11.85-2.8z"/>
	</g>
</symbol>
<symbol  id="FlashAICB_x2F_underground_x5F_bogwillow_x2F__x3C_Path_x3E__x5F_21" viewBox="0 -10.115 10.422 10.13">
	<g id="Layer_1_24_">
		
			<radialGradient id="SVGID_16_" cx="649.1265" cy="-16587.7266" r="5.1304" gradientTransform="matrix(-0.0366 -0.9993 -0.9847 0.0731 -16305.1113 1856.5664)" gradientUnits="userSpaceOnUse">
			<stop  offset="0" style="stop-color:#FDF400;stop-opacity:0.6471"/>
			<stop  offset="0.9569" style="stop-color:#FDF400;stop-opacity:0"/>
		</radialGradient>
		<path style="fill-rule:evenodd;clip-rule:evenodd;fill:url(#SVGID_16_);" d="M5.9-10.1c-1.433-0.1-2.7,0.317-3.8,1.25
			c-1.133,0.9-1.8,2.067-2,3.5c-0.267,1.434,0,2.65,0.8,3.65C1.733-0.667,2.833-0.1,4.2,0c1.4,0.1,2.716-0.3,3.95-1.2
			c1.233-0.933,1.967-2.083,2.2-3.45c0.233-1.4-0.1-2.633-1-3.7C8.517-9.417,7.367-10,5.9-10.1z"/>
	</g>
</symbol>
<symbol  id="FlashAICB_x2F_underground_x5F_bogwillow_x2F__x3C_Path_x3E__x5F_22" viewBox="-0.008 -10.265 10.361 10.279">
	<g id="Layer_1_25_">
		
			<radialGradient id="SVGID_17_" cx="649.23" cy="-16587.7773" r="5.1284" gradientTransform="matrix(-0.0366 -0.9993 -0.9847 0.0731 -16305.2109 1856.5742)" gradientUnits="userSpaceOnUse">
			<stop  offset="0" style="stop-color:#FDF400;stop-opacity:0.6471"/>
			<stop  offset="0.9569" style="stop-color:#FDF400;stop-opacity:0"/>
		</radialGradient>
		<path style="fill-rule:evenodd;clip-rule:evenodd;fill:url(#SVGID_17_);" d="M5.6-10.25C4.167-10.35,2.933-9.933,1.9-9
			C0.833-8.033,0.217-6.85,0.05-5.45c-0.2,1.4,0.117,2.633,0.95,3.7C1.8-0.683,2.917-0.1,4.35,0c1.4,0.1,2.7-0.317,3.9-1.25
			c1.2-0.9,1.883-2.05,2.05-3.45c0.2-1.4-0.167-2.65-1.1-3.75C8.2-9.55,7-10.15,5.6-10.25z"/>
	</g>
</symbol>
<symbol  id="FlashAICB_x2F_underground_x5F_bogwillow_x2F__x3C_Path_x3E__x5F_23" viewBox="0.009 -12.974 13.975 12.947">
	<g id="Layer_1_26_">
		
			<radialGradient id="SVGID_18_" cx="646.1401" cy="-16591.0313" r="6.7181" gradientTransform="matrix(-0.0372 -0.9993 -0.9844 0.0726 -16301.498 1843.2871)" gradientUnits="userSpaceOnUse">
			<stop  offset="0" style="stop-color:#FDF400;stop-opacity:0.6471"/>
			<stop  offset="0.9569" style="stop-color:#FDF400;stop-opacity:0"/>
		</radialGradient>
		<path style="fill-rule:evenodd;clip-rule:evenodd;fill:url(#SVGID_18_);" d="M11.8-2.85c0.9-0.9,1.534-1.95,1.9-3.15
			c0.533-1.767,0.316-3.333-0.65-4.7c-0.966-1.367-2.383-2.117-4.25-2.25c-1.2-0.1-2.417,0.117-3.65,0.65
			c-1.133,0.5-2.133,1.233-3,2.2C1.283-9.167,0.667-8.117,0.3-6.95c-0.533,1.767-0.333,3.333,0.6,4.7
			c0.934,1.367,2.317,2.1,4.15,2.2c1.2,0.1,2.417-0.117,3.65-0.65C9.967-1.233,11-1.95,11.8-2.85z"/>
	</g>
</symbol>
<symbol  id="FlashAICB_x2F_underground_x5F_bogwillow_x2F__x3C_Path_x3E__x5F_24" viewBox="0.012 -13.224 14.229 13.246">
	<g id="Layer_1_27_">
		
			<radialGradient id="SVGID_19_" cx="645.9551" cy="-16597.6563" r="6.8944" gradientTransform="matrix(-0.0381 -0.9993 -0.9848 0.0725 -16313.0547 1842.9277)" gradientUnits="userSpaceOnUse">
			<stop  offset="0" style="stop-color:#FDF400;stop-opacity:0.6471"/>
			<stop  offset="0.9569" style="stop-color:#FDF400;stop-opacity:0"/>
		</radialGradient>
		<path style="fill-rule:evenodd;clip-rule:evenodd;fill:url(#SVGID_19_);" d="M12.15-2.9c0.934-1.033,1.533-2.133,1.8-3.3
			c0.533-1.767,0.333-3.35-0.6-4.75c-0.967-1.4-2.4-2.15-4.3-2.25c-1.2-0.1-2.433,0.117-3.7,0.65c-1.267,0.533-2.317,1.267-3.15,2.2
			C1.267-9.417,0.617-8.333,0.25-7.1C-0.083-5.933-0.067-4.8,0.3-3.7c0.3,1.034,0.917,1.883,1.85,2.55C3.017-0.483,4.1-0.1,5.4,0
			c1.233,0.1,2.45-0.133,3.65-0.7C10.25-1.2,11.283-1.933,12.15-2.9z"/>
	</g>
</symbol>
<symbol  id="FlashAICB_x2F_underground_x5F_bogwillow_x2F__x3C_Path_x3E__x5F_25" viewBox="0.011 -10.814 11.357 10.828">
	<g id="Layer_1_28_">
		
			<radialGradient id="SVGID_20_" cx="646.3872" cy="-16585.4922" r="5.5032" gradientTransform="matrix(-0.0363 -0.9993 -0.9834 0.0727 -16281.666 1845.9893)" gradientUnits="userSpaceOnUse">
			<stop  offset="0" style="stop-color:#FDF400;stop-opacity:0.6471"/>
			<stop  offset="0.9569" style="stop-color:#FDF400;stop-opacity:0"/>
		</radialGradient>
		<path style="fill-rule:evenodd;clip-rule:evenodd;fill:url(#SVGID_20_);" d="M7.05-10.8c-1.5-0.1-2.95,0.333-4.35,1.3
			C1.367-8.533,0.517-7.317,0.15-5.85c-0.333,1.467-0.066,2.783,0.8,3.95C1.883-0.733,3.1-0.1,4.6,0c1.467,0.1,2.867-0.35,4.2-1.35
			c1.233-0.933,2.034-2.167,2.4-3.7c0.367-1.5,0.133-2.8-0.7-3.9C9.733-10.083,8.583-10.7,7.05-10.8z"/>
	</g>
</symbol>
<symbol  id="FlashAICB_x2F_underground_x5F_bogwillow_x2F__x3C_Path_x3E__x5F_26" viewBox="-0.002 -17.769 17.354 17.736">
	<g id="Layer_1_29_">
		
			<radialGradient id="SVGID_21_" cx="637.7188" cy="-16588.4492" r="8.7574" gradientTransform="matrix(-0.0371 -0.9993 -0.985 0.0714 -16307.8281 1812.5039)" gradientUnits="userSpaceOnUse">
			<stop  offset="0" style="stop-color:#FDF400;stop-opacity:0.6471"/>
			<stop  offset="0.9569" style="stop-color:#FDF400;stop-opacity:0"/>
		</radialGradient>
		<path style="fill-rule:evenodd;clip-rule:evenodd;fill:url(#SVGID_21_);" d="M13.75-1.1c1.2-0.733,2.1-1.733,2.7-3
			c0.633-1.367,0.933-2.816,0.9-4.35c0-1.6-0.333-3.1-1-4.5c-0.7-1.433-1.617-2.533-2.75-3.3c-1.133-0.833-2.517-1.333-4.15-1.5
			c-1.567-0.1-3.067,0.2-4.5,0.9c-1.4,0.6-2.567,1.55-3.5,2.85C0.55-12.767,0.067-11.333,0-9.7c-0.033,1.534,0.417,3.083,1.35,4.65
			c0.933,1.5,2.133,2.683,3.6,3.55c1.433,0.9,2.966,1.383,4.6,1.45C11.117,0.05,12.517-0.3,13.75-1.1z"/>
	</g>
</symbol>
<symbol  id="FlashAICB_x2F_underground_x5F_bogwillow_x2F__x3C_Path_x3E__x5F_27" viewBox="-0.022 -14.422 14.549 14.444">
	<g id="Layer_1_30_">
		
			<radialGradient id="SVGID_22_" cx="643.3989" cy="-16595.6016" r="7.2697" gradientTransform="matrix(-0.0378 -0.9993 -0.9855 0.0722 -16323.7676 1834.5605)" gradientUnits="userSpaceOnUse">
			<stop  offset="0" style="stop-color:#FDF400;stop-opacity:0.6471"/>
			<stop  offset="0.9569" style="stop-color:#FDF400;stop-opacity:0"/>
		</radialGradient>
		<path style="fill-rule:evenodd;clip-rule:evenodd;fill:url(#SVGID_22_);" d="M10.65-0.75c1.067-0.567,1.934-1.367,2.6-2.4
			c0.7-1.1,1.117-2.317,1.25-3.65c0.1-1.333-0.083-2.567-0.55-3.7c-0.434-1.1-1.133-2-2.1-2.7c-1.033-0.767-2.184-1.167-3.45-1.2
			c-1.333-0.1-2.6,0.133-3.8,0.7c-1.233,0.567-2.25,1.35-3.05,2.35c-0.833,1-1.333,2.184-1.5,3.55c-0.2,1.2,0.017,2.45,0.65,3.75
			c0.633,1.167,1.5,2.1,2.6,2.8C4.4-0.517,5.633-0.1,7,0C8.3,0.1,9.517-0.15,10.65-0.75z"/>
	</g>
</symbol>
<symbol  id="FlashAICB_x2F_underground_x5F_bogwillow_x2F__x3C_Path_x3E__x5F_28" viewBox="-0.002 -16.808 18.228 16.821">
	<g id="Layer_1_31_">
		
			<radialGradient id="SVGID_23_" cx="643.1255" cy="-16584.7383" r="8.856" gradientTransform="matrix(-0.0367 -0.9993 -0.9838 0.072 -16283.3145 1828.1006)" gradientUnits="userSpaceOnUse">
			<stop  offset="0" style="stop-color:#FDF400;stop-opacity:0.6471"/>
			<stop  offset="0.9569" style="stop-color:#FDF400;stop-opacity:0"/>
		</radialGradient>
		<path style="fill-rule:evenodd;clip-rule:evenodd;fill:url(#SVGID_23_);" d="M12.25-0.1c1.5-0.2,2.783-0.75,3.85-1.65
			c1-0.833,1.65-1.883,1.95-3.15c0.3-1.267,0.217-2.567-0.25-3.9c-0.466-1.333-1.267-2.617-2.4-3.85
			c-1.233-1.3-2.517-2.267-3.85-2.9c-1.5-0.8-3.033-1.217-4.6-1.25c-1.633-0.067-3.034,0.267-4.2,1
			c-1.2,0.767-2.017,1.816-2.45,3.15c-0.433,1.4-0.4,2.917,0.1,4.55c0.4,1.233,1.017,2.4,1.85,3.5s1.8,2,2.9,2.7
			C6.217-1.133,7.367-0.6,8.6-0.3C9.9,0.033,11.117,0.1,12.25-0.1z"/>
	</g>
</symbol>
<symbol  id="FlashAICB_x2F_underground_x5F_bogwillow_x2F__x3C_Path_x3E__x5F_29" viewBox="-0.008 -7.309 7.23 7.318">
	<g id="Layer_1_32_">
		
			<radialGradient id="SVGID_24_" cx="8065.9038" cy="3378.9531" r="3.4913" gradientTransform="matrix(0.723 0.6908 0.7696 -0.7803 -8428.5059 -2939.1597)" gradientUnits="userSpaceOnUse">
			<stop  offset="0" style="stop-color:#473432"/>
			<stop  offset="0.2078" style="stop-color:#4A3735"/>
			<stop  offset="0.349" style="stop-color:#52403E"/>
			<stop  offset="0.4784" style="stop-color:#604F4E"/>
			<stop  offset="0.5922" style="stop-color:#746564"/>
			<stop  offset="0.702" style="stop-color:#8E8281"/>
			<stop  offset="0.8039" style="stop-color:#ADA4A4"/>
			<stop  offset="0.902" style="stop-color:#D2CECD"/>
			<stop  offset="0.9961" style="stop-color:#FCFCFC"/>
			<stop  offset="1" style="stop-color:#FFFFFF"/>
		</radialGradient>
		<path style="fill-rule:evenodd;clip-rule:evenodd;fill:url(#SVGID_24_);" d="M1.35-1.25C2.183-0.483,3.083-0.067,4.05,0
			c0.967,0.067,1.767-0.267,2.4-1C7.05-1.7,7.3-2.55,7.2-3.55c-0.034-0.967-0.417-1.833-1.15-2.6C5.35-6.85,4.5-7.233,3.5-7.3
			C2.567-7.367,1.733-7.083,1-6.45C0.267-5.783-0.067-4.967,0-4C0.1-2.967,0.55-2.05,1.35-1.25z"/>
	</g>
</symbol>
<symbol  id="FlashAICB_x2F_underground_x5F_bogwillow_x2F__x3C_Path_x3E__x5F_3" viewBox="-0.042 -8.407 8.101 8.415">
	<g id="Layer_1_6_">
		
			<radialGradient id="SVGID_25_" cx="8052.6748" cy="3377.9561" r="4.0052" gradientTransform="matrix(0.7241 0.6897 0.7678 -0.7802 -8420.1016 -2922.7749)" gradientUnits="userSpaceOnUse">
			<stop  offset="0" style="stop-color:#473432"/>
			<stop  offset="0.2078" style="stop-color:#4A3735"/>
			<stop  offset="0.349" style="stop-color:#52403E"/>
			<stop  offset="0.4784" style="stop-color:#604F4E"/>
			<stop  offset="0.5922" style="stop-color:#746564"/>
			<stop  offset="0.702" style="stop-color:#8E8281"/>
			<stop  offset="0.8039" style="stop-color:#ADA4A4"/>
			<stop  offset="0.902" style="stop-color:#D2CECD"/>
			<stop  offset="0.9961" style="stop-color:#FCFCFC"/>
			<stop  offset="1" style="stop-color:#FFFFFF"/>
		</radialGradient>
		<path style="fill-rule:evenodd;clip-rule:evenodd;fill:url(#SVGID_25_);" d="M5.35,0c1,0,1.767-0.417,2.3-1.25
			C8.117-2.117,8.183-3.1,7.85-4.2C7.483-5.333,6.833-6.317,5.9-7.15c-1-0.833-2-1.25-3-1.25C1.833-8.467,1.017-8.083,0.45-7.25
			c-0.534,0.833-0.633,1.833-0.3,3c0.4,1.2,1.1,2.217,2.1,3.05C3.25-0.333,4.283,0.067,5.35,0z"/>
	</g>
</symbol>
<symbol  id="FlashAICB_x2F_underground_x5F_bogwillow_x2F__x3C_Path_x3E__x5F_30" viewBox="-0.009 -7.159 7.219 7.168">
	<g id="Layer_1_33_">
		
			<radialGradient id="SVGID_26_" cx="8064.8149" cy="3378.998" r="3.4574" gradientTransform="matrix(0.7232 0.6906 0.7666 -0.7774 -8419.0371 -2946.6108)" gradientUnits="userSpaceOnUse">
			<stop  offset="0" style="stop-color:#473432"/>
			<stop  offset="0.2078" style="stop-color:#4A3735"/>
			<stop  offset="0.349" style="stop-color:#52403E"/>
			<stop  offset="0.4784" style="stop-color:#604F4E"/>
			<stop  offset="0.5922" style="stop-color:#746564"/>
			<stop  offset="0.702" style="stop-color:#8E8281"/>
			<stop  offset="0.8039" style="stop-color:#ADA4A4"/>
			<stop  offset="0.902" style="stop-color:#D2CECD"/>
			<stop  offset="0.9961" style="stop-color:#FCFCFC"/>
			<stop  offset="1" style="stop-color:#FFFFFF"/>
		</radialGradient>
		<path style="fill-rule:evenodd;clip-rule:evenodd;fill:url(#SVGID_26_);" d="M1.3-1.2C2.033-0.467,2.933-0.067,4,0
			c0.967,0.067,1.767-0.25,2.4-0.95C7-1.583,7.267-2.4,7.2-3.4C7.1-4.467,6.717-5.317,6.05-5.95c-0.7-0.7-1.55-1.1-2.55-1.2
			c-1-0.067-1.85,0.233-2.55,0.9C0.25-5.617-0.067-4.8,0-3.8C0.067-2.833,0.5-1.967,1.3-1.2z"/>
	</g>
</symbol>
<symbol  id="FlashAICB_x2F_underground_x5F_bogwillow_x2F__x3C_Path_x3E__x5F_31" viewBox="0.022 -21.347 18.892 21.365">
	<g id="Layer_1_34_">
		
			<radialGradient id="SVGID_27_" cx="650.3291" cy="-16586.043" r="10.1569" gradientTransform="matrix(-0.0369 -0.9993 -0.9845 0.0726 -16296.2754 1843.458)" gradientUnits="userSpaceOnUse">
			<stop  offset="0" style="stop-color:#FDF400;stop-opacity:0.6471"/>
			<stop  offset="0.9569" style="stop-color:#FDF400;stop-opacity:0"/>
		</radialGradient>
		<path style="fill-rule:evenodd;clip-rule:evenodd;fill:url(#SVGID_27_);" d="M13.5-0.3c1.5-0.4,2.733-1.217,3.7-2.45
			C18.133-3.883,18.683-5.3,18.85-7c0.2-1.6-0.067-3.333-0.8-5.2c-0.6-1.433-1.35-2.683-2.25-3.75c-0.867-1.133-1.9-2.133-3.1-3
			c-1.067-0.8-2.25-1.433-3.55-1.9c-1.367-0.433-2.6-0.583-3.7-0.45c-1.133,0.1-2.15,0.517-3.05,1.25
			c-0.833,0.667-1.45,1.583-1.85,2.75c-0.433,1.233-0.6,2.55-0.5,3.95C0.083-11.983,0.4-10.467,1-8.8
			c0.567,1.533,1.35,2.95,2.35,4.25c0.9,1.2,1.933,2.183,3.1,2.95c1,0.7,2.167,1.184,3.5,1.45C11.15,0.117,12.333,0.067,13.5-0.3z"
			/>
	</g>
</symbol>
<symbol  id="FlashAICB_x2F_underground_x5F_bogwillow_x2F__x3C_Path_x3E__x5F_32" viewBox="-0.02 -18.478 18.334 18.511">
	<g id="Layer_1_35_">
		
			<radialGradient id="SVGID_28_" cx="641.6782" cy="-16583.6172" r="9.2295" gradientTransform="matrix(-0.0366 -0.9993 -0.9844 0.0718 -16292.8887 1822.1162)" gradientUnits="userSpaceOnUse">
			<stop  offset="0" style="stop-color:#FDF400;stop-opacity:0.6471"/>
			<stop  offset="0.9569" style="stop-color:#FDF400;stop-opacity:0"/>
		</radialGradient>
		<path style="fill-rule:evenodd;clip-rule:evenodd;fill:url(#SVGID_28_);" d="M12.55-0.4c1.534-0.434,2.8-1.233,3.8-2.4
			c1-1.2,1.617-2.517,1.85-3.95c0.267-1.533,0.066-3.083-0.6-4.65c-0.5-1.167-1.184-2.217-2.05-3.15c-0.933-1-1.933-1.784-3-2.35
			c-1.066-0.633-2.233-1.083-3.5-1.35c-1.3-0.267-2.517-0.3-3.65-0.1c-1.6,0.367-2.85,1.1-3.75,2.2C0.717-14.983,0.167-13.6,0-12
			c-0.1,1.767,0.183,3.5,0.85,5.2c0.7,1.733,1.683,3.183,2.95,4.35C5.033-1.35,6.417-0.6,7.95-0.2C9.517,0.167,11.05,0.1,12.55-0.4z
			"/>
	</g>
</symbol>
<symbol  id="FlashAICB_x2F_underground_x5F_bogwillow_x2F__x3C_Path_x3E__x5F_33" viewBox="0.031 -16.786 18.434 16.788">
	<g id="Layer_1_36_">
		
			<radialGradient id="SVGID_29_" cx="643.103" cy="-16584.623" r="8.8704" gradientTransform="matrix(-0.0367 -0.9993 -0.9838 0.072 -16283.084 1828.084)" gradientUnits="userSpaceOnUse">
			<stop  offset="0" style="stop-color:#FDF400;stop-opacity:0.6471"/>
			<stop  offset="0.9569" style="stop-color:#FDF400;stop-opacity:0"/>
		</radialGradient>
		<path style="fill-rule:evenodd;clip-rule:evenodd;fill:url(#SVGID_29_);" d="M12.85-0.35c1.467-0.433,2.717-1.217,3.75-2.35
			c0.967-1.066,1.55-2.3,1.75-3.7c0.267-1.367,0.066-2.733-0.6-4.1c-0.633-1.333-1.617-2.517-2.95-3.55
			c-1.267-0.967-2.7-1.7-4.3-2.2c-1.7-0.5-3.3-0.65-4.8-0.45c-1.534,0.233-2.817,0.817-3.85,1.75c-0.967,0.967-1.55,2.167-1.75,3.6
			c-0.2,1.567,0.033,3.133,0.7,4.7C1.467-5.083,2.483-3.7,3.85-2.5c1.3,1.1,2.733,1.85,4.3,2.25C9.783,0.117,11.35,0.083,12.85-0.35
			z"/>
	</g>
</symbol>
<symbol  id="FlashAICB_x2F_underground_x5F_bogwillow_x2F__x3C_Path_x3E__x5F_34" viewBox="0.022 -18.45 15.603 18.448">
	<g id="Layer_1_37_">
		
			<radialGradient id="SVGID_30_" cx="639.4551" cy="-16595.2031" r="8.5869" gradientTransform="matrix(-0.0379 -0.9993 -0.9833 0.0714 -16285.3125 1814.2783)" gradientUnits="userSpaceOnUse">
			<stop  offset="0" style="stop-color:#FDF400;stop-opacity:0.6471"/>
			<stop  offset="0.9569" style="stop-color:#FDF400;stop-opacity:0"/>
		</radialGradient>
		<path style="fill-rule:evenodd;clip-rule:evenodd;fill:url(#SVGID_30_);" d="M11.1-0.05c1.267-0.2,2.3-0.8,3.1-1.8
			c0.8-0.933,1.267-2.1,1.4-3.5c0.1-1.5-0.1-3-0.6-4.5c-0.567-1.5-1.383-2.95-2.45-4.35c-1.1-1.3-2.283-2.316-3.55-3.05
			c-1.4-0.8-2.733-1.2-4-1.2c-1.3,0-2.4,0.417-3.3,1.25c-0.867,0.8-1.4,1.95-1.6,3.45c-0.2,1.567-0.017,3.217,0.55,4.95
			c0.6,1.767,1.467,3.383,2.6,4.85c1.233,1.434,2.5,2.467,3.8,3.1C8.383-0.15,9.733,0.117,11.1-0.05z"/>
	</g>
</symbol>
<symbol  id="FlashAICB_x2F_underground_x5F_bogwillow_x2F__x3C_Path_x3E__x5F_4" viewBox="-0.008 -7.102 7.926 7.102">
	<g id="Layer_1_7_">
		
			<radialGradient id="SVGID_31_" cx="16478.7949" cy="-38.043" r="3.5756" gradientTransform="matrix(-0.007 1 1.0944 0.0245 160.8203 -16481.0156)" gradientUnits="userSpaceOnUse">
			<stop  offset="0" style="stop-color:#473432"/>
			<stop  offset="0.2078" style="stop-color:#4A3735"/>
			<stop  offset="0.349" style="stop-color:#52403E"/>
			<stop  offset="0.4784" style="stop-color:#604F4E"/>
			<stop  offset="0.5922" style="stop-color:#746564"/>
			<stop  offset="0.702" style="stop-color:#8E8281"/>
			<stop  offset="0.8039" style="stop-color:#ADA4A4"/>
			<stop  offset="0.902" style="stop-color:#D2CECD"/>
			<stop  offset="0.9961" style="stop-color:#FCFCFC"/>
			<stop  offset="1" style="stop-color:#FFFFFF"/>
		</radialGradient>
		<path style="fill-rule:evenodd;clip-rule:evenodd;fill:url(#SVGID_31_);" d="M3.85,0c1.167-0.067,2.1-0.45,2.8-1.15
			C7.417-1.817,7.833-2.667,7.9-3.7C8-4.667,7.683-5.483,6.95-6.15C6.217-6.817,5.317-7.133,4.25-7.1c-1.067,0-2.033,0.35-2.9,1.05
			C0.483-5.317,0.033-4.467,0-3.5c-0.067,1,0.3,1.833,1.1,2.5C1.867-0.333,2.783,0,3.85,0z"/>
	</g>
</symbol>
<symbol  id="FlashAICB_x2F_underground_x5F_bogwillow_x2F__x3C_Path_x3E__x5F_5" viewBox="-0.018 -7.3 7.875 7.3">
	<g id="Layer_1_8_">
		
			<radialGradient id="SVGID_32_" cx="8069.9761" cy="3379.1875" r="3.669" gradientTransform="matrix(0.7223 0.6916 0.77 -0.7802 -8426.6836 -2948.4653)" gradientUnits="userSpaceOnUse">
			<stop  offset="0" style="stop-color:#473432"/>
			<stop  offset="0.2078" style="stop-color:#4A3735"/>
			<stop  offset="0.349" style="stop-color:#52403E"/>
			<stop  offset="0.4784" style="stop-color:#604F4E"/>
			<stop  offset="0.5922" style="stop-color:#746564"/>
			<stop  offset="0.702" style="stop-color:#8E8281"/>
			<stop  offset="0.8039" style="stop-color:#ADA4A4"/>
			<stop  offset="0.902" style="stop-color:#D2CECD"/>
			<stop  offset="0.9961" style="stop-color:#FCFCFC"/>
			<stop  offset="1" style="stop-color:#FFFFFF"/>
		</radialGradient>
		<path style="fill-rule:evenodd;clip-rule:evenodd;fill:url(#SVGID_32_);" d="M1.9-1.05C2.867-0.35,3.883,0,4.95,0
			C6.017,0,6.8-0.35,7.3-1.05c0.534-0.633,0.684-1.467,0.45-2.5c-0.267-1-0.833-1.85-1.7-2.55c-0.9-0.733-1.867-1.133-2.9-1.2
			c-1.1,0-1.933,0.333-2.5,1C0.017-5.6-0.167-4.733,0.1-3.7C0.3-2.733,0.9-1.85,1.9-1.05z"/>
	</g>
</symbol>
<symbol  id="FlashAICB_x2F_underground_x5F_bogwillow_x2F__x3C_Path_x3E__x5F_6" viewBox="0.018 -4.204 4.464 4.158">
	<g id="Layer_1_9_">
		
			<radialGradient id="SVGID_33_" cx="8100.2861" cy="3381.4238" r="2.0422" gradientTransform="matrix(0.7222 0.6916 0.7712 -0.7773 -8455.9063 -2976.0991)" gradientUnits="userSpaceOnUse">
			<stop  offset="0" style="stop-color:#473432"/>
			<stop  offset="0.2078" style="stop-color:#4A3735"/>
			<stop  offset="0.349" style="stop-color:#52403E"/>
			<stop  offset="0.4784" style="stop-color:#604F4E"/>
			<stop  offset="0.5922" style="stop-color:#746564"/>
			<stop  offset="0.702" style="stop-color:#8E8281"/>
			<stop  offset="0.8039" style="stop-color:#ADA4A4"/>
			<stop  offset="0.902" style="stop-color:#D2CECD"/>
			<stop  offset="0.9961" style="stop-color:#FCFCFC"/>
			<stop  offset="1" style="stop-color:#FFFFFF"/>
		</radialGradient>
		<path style="fill-rule:evenodd;clip-rule:evenodd;fill:url(#SVGID_33_);" d="M0.45-0.75c0.367,0.433,0.867,0.667,1.5,0.7
			c0.6,0.033,1.15-0.133,1.65-0.5C4.067-0.917,4.35-1.4,4.45-2c0.1-0.567-0.034-1.067-0.4-1.5S3.2-4.167,2.6-4.2
			C2-4.233,1.45-4.05,0.95-3.65c-0.5,0.367-0.8,0.833-0.9,1.4C-0.05-1.683,0.083-1.183,0.45-0.75z"/>
	</g>
</symbol>
<symbol  id="FlashAICB_x2F_underground_x5F_bogwillow_x2F__x3C_Path_x3E__x5F_7" viewBox="-0.012 -4.111 4.695 4.078">
	<g id="Layer_1_10_">
		
			<radialGradient id="SVGID_34_" cx="19191.3438" cy="-4623.8232" r="2.1224" gradientTransform="matrix(-0.4589 0.8885 0.965 0.5178 13271.8623 -14658.7695)" gradientUnits="userSpaceOnUse">
			<stop  offset="0" style="stop-color:#473432"/>
			<stop  offset="0.2078" style="stop-color:#4A3735"/>
			<stop  offset="0.349" style="stop-color:#52403E"/>
			<stop  offset="0.4784" style="stop-color:#604F4E"/>
			<stop  offset="0.5922" style="stop-color:#746564"/>
			<stop  offset="0.702" style="stop-color:#8E8281"/>
			<stop  offset="0.8039" style="stop-color:#ADA4A4"/>
			<stop  offset="0.902" style="stop-color:#D2CECD"/>
			<stop  offset="0.9961" style="stop-color:#FCFCFC"/>
			<stop  offset="1" style="stop-color:#FFFFFF"/>
		</radialGradient>
		<path style="fill-rule:evenodd;clip-rule:evenodd;fill:url(#SVGID_34_);" d="M2.9-0.3c0.633-0.267,1.117-0.684,1.45-1.25
			C4.683-2.083,4.767-2.6,4.6-3.1C4.433-3.567,4.083-3.883,3.55-4.05C2.983-4.183,2.383-4.1,1.75-3.8
			C1.117-3.533,0.633-3.133,0.3-2.6C0-2.033-0.083-1.517,0.05-1.05C0.183-0.55,0.533-0.233,1.1-0.1C1.667,0.033,2.267-0.033,2.9-0.3
			z"/>
	</g>
</symbol>
<symbol  id="FlashAICB_x2F_underground_x5F_bogwillow_x2F__x3C_Path_x3E__x5F_8" viewBox="-0.035 -4.1 4.538 4.104">
	<g id="Layer_1_11_">
		
			<radialGradient id="SVGID_35_" cx="8100.3213" cy="3381.46" r="2.0422" gradientTransform="matrix(0.7222 0.6916 0.7712 -0.7773 -8455.959 -2976.0464)" gradientUnits="userSpaceOnUse">
			<stop  offset="0" style="stop-color:#473432"/>
			<stop  offset="0.2078" style="stop-color:#4A3735"/>
			<stop  offset="0.349" style="stop-color:#52403E"/>
			<stop  offset="0.4784" style="stop-color:#604F4E"/>
			<stop  offset="0.5922" style="stop-color:#746564"/>
			<stop  offset="0.702" style="stop-color:#8E8281"/>
			<stop  offset="0.8039" style="stop-color:#ADA4A4"/>
			<stop  offset="0.902" style="stop-color:#D2CECD"/>
			<stop  offset="0.9961" style="stop-color:#FCFCFC"/>
			<stop  offset="1" style="stop-color:#FFFFFF"/>
		</radialGradient>
		<path style="fill-rule:evenodd;clip-rule:evenodd;fill:url(#SVGID_35_);" d="M0.35-0.7C0.717-0.267,1.183-0.033,1.75,0
			c0.6,0.033,1.167-0.133,1.7-0.5c0.533-0.367,0.867-0.833,1-1.4C4.583-2.467,4.467-2.967,4.1-3.4C3.767-3.833,3.3-4.067,2.7-4.1
			C2.1-4.1,1.533-3.917,1-3.55s-0.867,0.833-1,1.4C-0.1-1.583,0.017-1.1,0.35-0.7z"/>
	</g>
</symbol>
<symbol  id="FlashAICB_x2F_underground_x5F_bogwillow_x2F__x3C_Path_x3E__x5F_9" viewBox="-0.053 -4.064 4.707 4.068">
	<g id="Layer_1_12_">
		
			<radialGradient id="SVGID_36_" cx="15745.1094" cy="631.082" r="2.0811" gradientTransform="matrix(0.0781 0.9969 1.093 -0.0721 -1916.7832 -15653.5674)" gradientUnits="userSpaceOnUse">
			<stop  offset="0" style="stop-color:#473432"/>
			<stop  offset="0.2078" style="stop-color:#4A3735"/>
			<stop  offset="0.349" style="stop-color:#52403E"/>
			<stop  offset="0.4784" style="stop-color:#604F4E"/>
			<stop  offset="0.5922" style="stop-color:#746564"/>
			<stop  offset="0.702" style="stop-color:#8E8281"/>
			<stop  offset="0.8039" style="stop-color:#ADA4A4"/>
			<stop  offset="0.902" style="stop-color:#D2CECD"/>
			<stop  offset="0.9961" style="stop-color:#FCFCFC"/>
			<stop  offset="1" style="stop-color:#FFFFFF"/>
		</radialGradient>
		<path style="fill-rule:evenodd;clip-rule:evenodd;fill:url(#SVGID_36_);" d="M3.6-0.5c0.533-0.333,0.867-0.783,1-1.35
			c0.133-0.566,0.017-1.066-0.35-1.5c-0.367-0.433-0.867-0.667-1.5-0.7C2.117-4.117,1.533-3.95,1-3.55
			c-0.533,0.367-0.867,0.833-1,1.4C-0.133-1.583-0.017-1.1,0.35-0.7C0.717-0.267,1.217-0.033,1.85,0S3.067-0.133,3.6-0.5z"/>
	</g>
</symbol>
<symbol  id="FlashAICB_x2F_underground_x5F_bogwillow_x2F_Envelope" viewBox="-0.003 -113.364 61.067 104.747">
	<g id="Layer_1_56_">
		<g>
			<g>
				<g>
					<path style="fill-rule:evenodd;clip-rule:evenodd;fill:#3A4933;" d="M17.7-33.35L19.75-33c1.633,0.133,3.167-0.033,4.6-0.5
						c1.533-0.5,2.9-1.4,4.1-2.7c0.933-1,1.683-2.083,2.25-3.25l0.75-1.5L29.6-42.6l-1.95,2.4c-1.566,1.833-2.733,2.967-3.5,3.4
						c-0.9,0.5-2.267,0.75-4.1,0.75l-2.4-0.2L17.7-33.35z"/>
					<path style="fill-rule:evenodd;clip-rule:evenodd;fill:#3A4933;" d="M10.15-36.85c0.067,1.2,0.35,2.4,0.85,3.6
						c0.567,1.133,1.283,2.15,2.15,3.05c0.867,0.867,1.833,1.45,2.9,1.75c1.534,0.5,2.817,0.25,3.85-0.75
						c1.067-0.9,1.55-2.216,1.45-3.95c0-1-0.283-2.117-0.85-3.35c-0.433-1-1.1-1.95-2-2.85c-0.867-0.867-1.8-1.467-2.8-1.8
						c-1.467-0.6-2.784-0.483-3.95,0.35C10.683-40,10.15-38.683,10.15-36.85z"/>
					<path style="fill-rule:evenodd;clip-rule:evenodd;fill:#387D16;" d="M10.2-35.9c0.066,1.233,0.483,2.433,1.25,3.6
						c0.833,1.167,1.767,1.917,2.8,2.25c1.067,0.3,1.967,0.133,2.7-0.5c0.667-0.6,1-1.517,1-2.75c-0.034-1.2-0.45-2.35-1.25-3.45
						c-0.733-1.067-1.633-1.8-2.7-2.2c-1.1-0.367-2-0.267-2.7,0.3C10.567-38.083,10.2-37.167,10.2-35.9z"/>
				</g>
				<g>
					<path style="fill-rule:evenodd;clip-rule:evenodd;fill:#3A4933;" d="M15-79.2c1.1,0.3,2.383,0.4,3.85,0.3
						c1.433-0.133,2.933-0.55,4.5-1.25c0.833-0.4,1.933-1.033,3.3-1.9l1.3-0.95l-0.7-1.35l-2.7,1.5c-1.8,0.934-3.25,1.55-4.35,1.85
						c-0.934,0.2-2.133,0.2-3.6,0l-1.85-0.35l-1.2,1.75L15-79.2z"/>
					<path style="fill-rule:evenodd;clip-rule:evenodd;fill:#3A4933;" d="M9.05-82.4c-0.733,1.033-1,2.083-0.8,3.15
						c0.233,1.1,0.85,1.867,1.85,2.3c1,0.467,2.117,0.483,3.35,0.05c1.167-0.367,2.133-1.083,2.9-2.15
						c0.7-1.034,0.967-2.083,0.8-3.15c-0.167-1.066-0.75-1.833-1.75-2.3s-2.117-0.483-3.35-0.05
						C10.817-84.183,9.817-83.467,9.05-82.4z"/>
					<path style="fill-rule:evenodd;clip-rule:evenodd;fill:#387D16;" d="M8.7-81.85c-0.5,0.733-0.684,1.45-0.55,2.15
						c0.133,0.733,0.55,1.267,1.25,1.6c0.7,0.3,1.467,0.3,2.3,0c0.833-0.267,1.5-0.75,2-1.45c0.5-0.733,0.683-1.467,0.55-2.2
						c-0.133-0.7-0.533-1.217-1.2-1.55c-0.7-0.3-1.466-0.317-2.3-0.05C9.883-83.05,9.2-82.55,8.7-81.85z"/>
				</g>
				<g>
					<path style="fill-rule:evenodd;clip-rule:evenodd;fill:#3A4933;" d="M16.2-87.65l-1.85,1.2c0.767,1.2,2.033,2.15,3.8,2.85
						c1.6,0.667,3.65,0.833,6.15,0.5c1.2-0.2,2.25-0.467,3.15-0.8l0.1-1.6c-0.867,0.167-1.816,0.3-2.85,0.4
						c-2.1,0.2-3.567,0.2-4.4,0c-0.867-0.167-1.816-0.65-2.85-1.45C16.95-86.917,16.533-87.283,16.2-87.65z"/>
					<path style="fill-rule:evenodd;clip-rule:evenodd;fill:#3A4933;" d="M12.25-91.05c-1.167,0.767-1.933,1.7-2.3,2.8
						c-0.434,1.1-0.367,2.083,0.2,2.95c0.567,0.9,1.45,1.383,2.65,1.45c1.133,0.1,2.284-0.2,3.45-0.9
						c1.133-0.767,1.883-1.7,2.25-2.8c0.433-1.1,0.367-2.083-0.2-2.95c-0.566-0.9-1.433-1.383-2.6-1.45
						C14.5-92.05,13.35-91.75,12.25-91.05z"/>
					<path style="fill-rule:evenodd;clip-rule:evenodd;fill:#387D16;" d="M11.65-90.65c-0.767,0.5-1.283,1.133-1.55,1.9
						s-0.217,1.45,0.15,2.05c0.367,0.6,0.967,0.934,1.8,1c0.8,0.067,1.583-0.15,2.35-0.65s1.3-1.133,1.6-1.9
						c0.267-0.767,0.217-1.45-0.15-2.05c-0.4-0.567-1-0.9-1.8-1C13.217-91.367,12.417-91.15,11.65-90.65z"/>
				</g>
				<g>
					<path style="fill-rule:evenodd;clip-rule:evenodd;fill:#3A4933;" d="M31.75-107.55L31-108.4l-1.6,1.25
						c-1.1,0.9-2.017,1.467-2.75,1.7c-0.633,0.233-1.467,0.35-2.5,0.35l-1.35-0.1l-0.6,1.3l1.1,0.2c0.9,0.1,1.817,0.05,2.75-0.15
						c1.4-0.3,2.784-1,4.15-2.1C30.867-106.517,31.383-107.05,31.75-107.55z"/>
					<path style="fill-rule:evenodd;clip-rule:evenodd;fill:#3A4933;" d="M18.55-105.4c-0.333,0.8-0.367,1.55-0.1,2.25
						c0.3,0.7,0.833,1.167,1.6,1.4c0.8,0.267,1.6,0.183,2.4-0.25c0.867-0.367,1.466-0.95,1.8-1.75
						c0.367-0.767,0.383-1.517,0.05-2.25c-0.333-0.733-0.9-1.217-1.7-1.45c-0.8-0.233-1.583-0.15-2.35,0.25
						C19.483-106.8,18.917-106.2,18.55-105.4z"/>
					<path style="fill-rule:evenodd;clip-rule:evenodd;fill:#387D16;" d="M18.4-105c-0.233,0.533-0.25,1.05-0.05,1.55
						c0.2,0.5,0.566,0.833,1.1,1c0.533,0.167,1.083,0.1,1.65-0.2c0.566-0.267,0.967-0.667,1.2-1.2c0.267-0.533,0.284-1.05,0.05-1.55
						c-0.2-0.5-0.583-0.817-1.15-0.95c-0.534-0.167-1.083-0.117-1.65,0.15C19.017-105.933,18.633-105.533,18.4-105z"/>
				</g>
				<g>
					<path style="fill-rule:evenodd;clip-rule:evenodd;fill:#3A4933;" d="M41-46.05c-0.7,0-1.5-0.083-2.4-0.25
						c-1.733-0.267-3.184-0.733-4.35-1.4c-1.1-0.633-2.583-1.95-4.45-3.95c-0.933-1.033-1.75-2-2.45-2.9L25.8-53.4
						c0.233,0.467,0.6,1.05,1.1,1.75c0.934,1.367,1.983,2.583,3.15,3.65c1.6,1.5,3.284,2.583,5.05,3.25
						c1.6,0.633,3.217,0.983,4.85,1.05c0.8,0.067,1.433,0.067,1.9,0L41-46.05z"/>
					<path style="fill-rule:evenodd;clip-rule:evenodd;fill:#3A4933;" d="M48.45-45.3c-0.467-1.267-1.367-2.333-2.7-3.2
						c-1.367-0.867-2.733-1.25-4.1-1.15c-1.4,0.1-2.467,0.7-3.2,1.8c-0.667,1.133-0.733,2.417-0.2,3.85
						c0.5,1.433,1.467,2.583,2.9,3.45c1.4,0.8,2.8,1.083,4.2,0.85c1.333-0.233,2.316-0.917,2.95-2.05
						C48.9-42.817,48.95-44,48.45-45.3z"/>
					<path style="fill-rule:evenodd;clip-rule:evenodd;fill:#7C9B6E;" d="M48.75-44.55c-0.333-0.9-0.967-1.617-1.9-2.15
						c-0.934-0.6-1.883-0.85-2.85-0.75c-0.967,0.1-1.667,0.517-2.1,1.25c-0.467,0.7-0.517,1.567-0.15,2.6c0.433,1,1.1,1.75,2,2.25
						c0.9,0.567,1.85,0.767,2.85,0.6c1-0.2,1.683-0.667,2.05-1.4C49.083-42.85,49.117-43.65,48.75-44.55z"/>
				</g>
				<g>
					<path style="fill-rule:evenodd;clip-rule:evenodd;fill:#3A4933;" d="M35.55-95.9c-0.767-0.667-1.6-1.934-2.5-3.8l-1.25-2.65
						l-1.95,1c0.1,0.934,0.383,1.983,0.85,3.15c0.933,2.267,2.283,3.917,4.05,4.95c1.2,0.7,2.533,1.183,4,1.45
						c0.733,0.133,1.35,0.2,1.85,0.2l0.55-2.2c-0.633-0.1-1.35-0.267-2.15-0.5C37.467-94.667,36.317-95.2,35.55-95.9z"/>
					<path style="fill-rule:evenodd;clip-rule:evenodd;fill:#3A4933;" d="M38-88.85c0.833,0.934,1.95,1.4,3.35,1.4
						c1.467,0,2.816-0.483,4.05-1.45c1.233-0.9,2.033-2.033,2.4-3.4s0.133-2.517-0.7-3.45c-0.767-1-1.883-1.467-3.35-1.4
						c-1.367,0-2.717,0.467-4.05,1.4c-1.2,0.967-1.983,2.117-2.35,3.45C37.017-91,37.233-89.85,38-88.85z"/>
					<path style="fill-rule:evenodd;clip-rule:evenodd;fill:#7C9B6E;" d="M47.6-91.55c0.267-0.9,0.117-1.684-0.45-2.35
						c-0.566-0.667-1.333-0.983-2.3-0.95c-1,0-1.917,0.317-2.75,0.95c-0.833,0.633-1.383,1.433-1.65,2.4
						c-0.233,0.867-0.083,1.633,0.45,2.3c0.567,0.667,1.333,1,2.3,1c0.933,0,1.85-0.333,2.75-1C46.85-89.867,47.4-90.65,47.6-91.55z
						"/>
				</g>
				<g>
					<path style="fill-rule:evenodd;clip-rule:evenodd;fill:#3A4933;" d="M25.65-54.55c0.633,0.6,1.45,1.216,2.45,1.85
						c1.967,1.233,3.867,1.9,5.7,2c1.9,0.067,3.45-0.233,4.65-0.9l-1.1-1.6c-1.833,0.6-3.434,0.75-4.8,0.45
						c-0.867-0.167-2.167-0.75-3.9-1.75c-0.867-0.467-1.65-0.933-2.35-1.4L25.65-54.55z"/>
					<path style="fill-rule:evenodd;clip-rule:evenodd;fill:#3A4933;" d="M36-50.95c0.7,0.967,1.617,1.617,2.75,1.95
						c1.1,0.3,2.1,0.2,3-0.3c0.867-0.467,1.35-1.2,1.45-2.2c0.167-0.933-0.083-1.883-0.75-2.85c-0.667-0.967-1.517-1.633-2.55-2
						c-1.066-0.367-2.066-0.333-3,0.1c-0.933,0.533-1.483,1.283-1.65,2.25C35.083-53,35.333-51.983,36-50.95z"/>
					<path style="fill-rule:evenodd;clip-rule:evenodd;fill:#7C9B6E;" d="M40.3-50.2c0.767,0.233,1.434,0.184,2-0.15
						c0.6-0.333,0.95-0.833,1.05-1.5c0.1-0.667-0.067-1.333-0.5-2c-0.467-0.633-1.067-1.066-1.8-1.3
						c-0.733-0.267-1.417-0.25-2.05,0.05c-0.633,0.333-1,0.85-1.1,1.55c-0.133,0.7,0.033,1.383,0.5,2.05
						C38.867-50.867,39.5-50.433,40.3-50.2z"/>
				</g>
				<g>
					<path style="fill-rule:evenodd;clip-rule:evenodd;fill:#3A4933;" d="M40.8-105.4c-1.1,0.833-2.083,1.383-2.95,1.65
						c-0.767,0.233-2.1,0.383-4,0.45l-2.5-0.05l-0.3,1.5l0.75,0.15c0.6,0.1,1.233,0.167,1.9,0.2c2.066,0.133,3.966-0.217,5.7-1.05
						c1.233-0.6,2.267-1.284,3.1-2.05c0.467-0.4,0.817-0.75,1.05-1.05l-1.4-0.95L40.8-105.4z"/>
					<path style="fill-rule:evenodd;clip-rule:evenodd;fill:#3A4933;" d="M46.4-110.3c-0.867-0.6-1.85-0.784-2.95-0.55
						c-1.1,0.267-1.967,0.833-2.6,1.7c-0.633,0.9-0.9,1.867-0.8,2.9c0.1,1,0.567,1.8,1.4,2.4c0.8,0.533,1.767,0.7,2.9,0.5
						c1.133-0.233,2.033-0.783,2.7-1.65c0.7-0.9,1-1.867,0.9-2.9C47.783-108.933,47.267-109.733,46.4-110.3z"/>
					<path style="fill-rule:evenodd;clip-rule:evenodd;fill:#7C9B6E;" d="M46.9-110c-0.6-0.367-1.267-0.483-2-0.35
						c-0.733,0.167-1.333,0.55-1.8,1.15c-0.434,0.633-0.617,1.3-0.55,2c0.1,0.7,0.434,1.25,1,1.65c0.567,0.4,1.233,0.517,2,0.35
						c0.767-0.133,1.383-0.517,1.85-1.15c0.467-0.6,0.65-1.267,0.55-2C47.85-109.05,47.5-109.6,46.9-110z"/>
				</g>
				<g>
					<path style="fill-rule:evenodd;clip-rule:evenodd;fill:#3A4933;" d="M26.45-21.2c1.3-0.833,2.417-1.85,3.35-3.05
						c0.934-1.233,1.617-2.85,2.05-4.85c0.3-1.4,0.417-2.883,0.35-4.45c0-0.767-0.034-1.4-0.1-1.9l-2.2-0.8l-0.4,3.45
						c-0.433,2.8-0.85,4.6-1.25,5.4c-0.533,1.033-1.467,2.033-2.8,3l-1.9,1.2l1.2,2.85L26.45-21.2z"/>
					<path style="fill-rule:evenodd;clip-rule:evenodd;fill:#3A4933;" d="M17.75-19.2c0.767,1.767,1.867,3.083,3.3,3.95
						c1.4,0.867,2.817,1.067,4.25,0.6c1.3-0.5,2.2-1.483,2.7-2.95s0.367-3.017-0.4-4.65c-0.7-1.633-1.783-2.917-3.25-3.85
						c-1.5-0.967-2.934-1.283-4.3-0.95c-1.333,0.333-2.25,1.267-2.75,2.8C16.867-22.65,17.017-20.967,17.75-19.2z"/>
					<path style="fill-rule:evenodd;clip-rule:evenodd;fill:#94B37C;" d="M17.8-18.35c0.5,1.2,1.25,2.117,2.25,2.75
						c0.967,0.633,1.934,0.783,2.9,0.45c0.933-0.333,1.566-1.017,1.9-2.05c0.267-1.066,0.167-2.15-0.3-3.25
						c-0.5-1.167-1.25-2.066-2.25-2.7c-1.033-0.633-2.017-0.833-2.95-0.6c-0.967,0.267-1.583,0.933-1.85,2
						C17.167-20.75,17.267-19.617,17.8-18.35z"/>
				</g>
				<g>
					<path style="fill-rule:evenodd;clip-rule:evenodd;fill:#3A4933;" d="M25-73.1l-1.65-1l-2.1,2.7
						c-1.733,2.1-2.967,3.417-3.7,3.95c-0.833,0.633-2.15,1.217-3.95,1.75l-2.3,0.5v2.35l1.9-0.2c1.566-0.333,3.033-0.867,4.4-1.6
						s2.717-1.867,4.05-3.4c0.767-0.867,1.6-2.017,2.5-3.45L25-73.1z"/>
					<path style="fill-rule:evenodd;clip-rule:evenodd;fill:#3A4933;" d="M4.3-63.55c0,1.466,0.583,2.75,1.75,3.85
						c1.167,1.1,2.467,1.65,3.9,1.65c1.4-0.034,2.566-0.6,3.5-1.7c0.867-1.133,1.3-2.417,1.3-3.85c0-1.467-0.483-2.683-1.45-3.65
						c-0.933-1-2.133-1.5-3.6-1.5c-1.434,0-2.7,0.517-3.8,1.55C4.833-66.233,4.3-65.017,4.3-63.55z"/>
					<path style="fill-rule:evenodd;clip-rule:evenodd;fill:#94B37C;" d="M4-62.9c0,0.967,0.4,1.85,1.2,2.65
						c0.8,0.767,1.683,1.133,2.65,1.1c1,0,1.8-0.383,2.4-1.15c0.667-0.767,0.967-1.65,0.9-2.65c0-0.966-0.35-1.8-1.05-2.5
						c-0.633-0.7-1.467-1.05-2.5-1.05c-1,0-1.85,0.35-2.55,1.05C4.317-64.717,3.967-63.867,4-62.9z"/>
				</g>
				<g>
					<path style="fill-rule:evenodd;clip-rule:evenodd;fill:#3A4933;" d="M41.05-30.8c-0.966-0.4-2.066-1.083-3.3-2.05
						c-1.167-0.833-2.25-1.717-3.25-2.65l-1.45-1.35L31.8-35.4c0.333,0.467,0.784,1.017,1.35,1.65c1.2,1.333,2.434,2.45,3.7,3.35
						c1.767,1.233,3.55,2.066,5.35,2.5c1.533,0.333,3.15,0.433,4.85,0.3c0.8-0.1,1.434-0.217,1.9-0.35l-1.1-2.25
						c-0.667,0.067-1.45,0.1-2.35,0.1C43.667-30.1,42.183-30.333,41.05-30.8z"/>
					<path style="fill-rule:evenodd;clip-rule:evenodd;fill:#3A4933;" d="M55.25-30.7c-0.633-1.233-1.667-2.183-3.1-2.85
						c-1.467-0.667-2.867-0.833-4.2-0.5c-1.4,0.367-2.333,1.15-2.8,2.35c-0.533,1.267-0.45,2.617,0.25,4.05
						c0.633,1.333,1.667,2.367,3.1,3.1c1.433,0.633,2.817,0.7,4.15,0.2c1.367-0.467,2.3-1.333,2.8-2.6
						C55.95-28.217,55.883-29.467,55.25-30.7z"/>
					<path style="fill-rule:evenodd;clip-rule:evenodd;fill:#387D16;" d="M55.65-29.8c-0.433-0.867-1.133-1.517-2.1-1.95
						c-1-0.433-1.966-0.533-2.9-0.3c-0.967,0.333-1.6,0.883-1.9,1.65c-0.333,0.9-0.283,1.8,0.15,2.7
						c0.434,0.934,1.15,1.617,2.15,2.05c1,0.433,1.95,0.483,2.85,0.15c0.934-0.333,1.567-0.917,1.9-1.75
						C56.133-28.15,56.083-29,55.65-29.8z"/>
				</g>
				<g>
					<path style="fill-rule:evenodd;clip-rule:evenodd;fill:#3A4933;" d="M31.3-69.55c1.367,0.733,2.784,1.233,4.25,1.5
						c0.767,0.133,1.4,0.2,1.9,0.2l0.2-2.3c-0.667-0.1-1.417-0.267-2.25-0.5c-1.733-0.5-2.933-1.05-3.6-1.65
						c-0.767-0.667-1.667-1.95-2.7-3.85c-0.5-0.967-0.917-1.85-1.25-2.65l-2,1l0.35,1.55c0.466,1.367,1,2.5,1.6,3.4
						C28.733-71.483,29.9-70.383,31.3-69.55z"/>
					<path style="fill-rule:evenodd;clip-rule:evenodd;fill:#3A4933;" d="M39.1-63.4c1.433,0,2.667-0.517,3.7-1.55
						c1.034-1.033,1.6-2.25,1.7-3.65c0.1-1.433-0.283-2.617-1.15-3.55c-0.867-0.967-2.017-1.45-3.45-1.45
						c-1.467,0-2.783,0.483-3.95,1.45c-1.167,1-1.8,2.2-1.9,3.6c-0.1,1.4,0.35,2.6,1.35,3.6C36.433-63.917,37.667-63.4,39.1-63.4z"
						/>
					<path style="fill-rule:evenodd;clip-rule:evenodd;fill:#387D16;" d="M38.2-65.1c0.733,0.667,1.566,1,2.5,1
						c1,0,1.85-0.35,2.55-1.05c0.733-0.733,1.117-1.567,1.15-2.5c0.1-0.967-0.183-1.783-0.85-2.45c-0.566-0.667-1.367-1-2.4-1
						c-1,0-1.883,0.333-2.65,1c-0.8,0.733-1.217,1.567-1.25,2.5C37.183-66.633,37.5-65.8,38.2-65.1z"/>
				</g>
				<g>
					<path style="fill-rule:evenodd;clip-rule:evenodd;fill:#3A4933;" d="M27.05-76.65c0.4,0.367,0.934,0.733,1.6,1.1
						c1.434,0.667,2.817,0.966,4.15,0.9c1.5-0.133,2.8-0.517,3.9-1.15l-0.55-1.1c-1.6,0.633-2.917,0.917-3.95,0.85
						c-0.633-0.034-1.567-0.317-2.8-0.85l-1.6-0.8L27.05-76.65z"/>
					<path style="fill-rule:evenodd;clip-rule:evenodd;fill:#3A4933;" d="M40.4-76.1c0.333-0.8,0.333-1.533,0-2.2
						c-0.333-0.667-0.883-1.083-1.65-1.25c-0.8-0.167-1.617-0.017-2.45,0.45c-0.8,0.434-1.367,1.05-1.7,1.85
						c-0.3,0.8-0.283,1.533,0.05,2.2c0.367,0.667,0.95,1.083,1.75,1.25c0.8,0.133,1.583-0.017,2.35-0.45
						C39.55-74.683,40.1-75.3,40.4-76.1z"/>
					<path style="fill-rule:evenodd;clip-rule:evenodd;fill:#387D16;" d="M39.5-75.05c0.533-0.3,0.917-0.717,1.15-1.25
						c0.233-0.567,0.233-1.083,0-1.55s-0.633-0.75-1.2-0.85c-0.567-0.1-1.117,0-1.65,0.3c-0.533,0.3-0.917,0.717-1.15,1.25
						c-0.233,0.566-0.233,1.083,0,1.55c0.267,0.467,0.667,0.75,1.2,0.85C38.417-74.65,38.967-74.75,39.5-75.05z"/>
				</g>
				<linearGradient id="SVGID_37_" gradientUnits="userSpaceOnUse" x1="21.645" y1="-64.375" x2="42.7501" y2="-64.375">
					<stop  offset="0" style="stop-color:#364428"/>
					<stop  offset="0.3373" style="stop-color:#415133"/>
					<stop  offset="0.5333" style="stop-color:#4A5B3C"/>
					<stop  offset="1" style="stop-color:#404C36"/>
				</linearGradient>
				<path style="fill-rule:evenodd;clip-rule:evenodd;fill:url(#SVGID_37_);" d="M27.8-37.7l9,20.9l5.95-2.15L34-38.7
					c-0.867-2.1-1.65-4.216-2.35-6.35c-0.733-2.167-1.383-4.367-1.95-6.6c-0.534-1.967-0.967-4.184-1.3-6.65
					c-0.3-2.3-0.433-4.483-0.4-6.55c0.067-2.167,0.217-4.267,0.45-6.3c0.233-1.934,0.566-3.95,1-6.05l5.8-24.45
					c0.3-1.7,0.467-2.8,0.5-3.3l0.5-4.8c0.033-0.633-0.267-1.167-0.9-1.6c-0.567-0.367-1.267-0.566-2.1-0.6
					c-0.867,0-1.6,0.184-2.2,0.55c-0.667,0.4-1.05,0.967-1.15,1.7v0.6l-1,7.45l-4.5,18.7c-0.566,2.3-1,4.217-1.3,5.75
					c-0.267,1.367-0.6,3.367-1,6c-0.233,2.034-0.383,4.133-0.45,6.3c-0.033,2.066,0.1,4.283,0.4,6.65c0.3,2.2,0.733,4.5,1.3,6.9
					c0.566,2.2,1.25,4.517,2.05,6.95C26.2-42.033,27-39.8,27.8-37.7z"/>
				<linearGradient id="SVGID_38_" gradientUnits="userSpaceOnUse" x1="35.103" y1="-16.9727" x2="45.903" y2="-16.9727">
					<stop  offset="0" style="stop-color:#394330"/>
					<stop  offset="0.2863" style="stop-color:#45513A"/>
					<stop  offset="0.5333" style="stop-color:#526046"/>
					<stop  offset="1" style="stop-color:#404C36"/>
				</linearGradient>
				<path style="fill-rule:evenodd;clip-rule:evenodd;fill:url(#SVGID_38_);" d="M45.4-18.7c-0.633-1.4-1.667-2.45-3.1-3.15
					c-1.433-0.733-2.833-0.867-4.2-0.4s-2.267,1.383-2.7,2.75c-0.467,1.433-0.383,2.9,0.25,4.4s1.65,2.567,3.05,3.2
					c1.367,0.6,2.716,0.633,4.05,0.1c1.367-0.5,2.3-1.434,2.8-2.8C46.083-15.967,46.033-17.333,45.4-18.7z"/>
				<path style="fill-rule:evenodd;clip-rule:evenodd;fill:#387D16;" d="M43.4-17.6c-0.433-1-1.133-1.733-2.1-2.2
					c-1.033-0.467-1.983-0.534-2.85-0.2c-0.934,0.3-1.567,0.933-1.9,1.9c-0.3,0.934-0.233,1.934,0.2,3
					c0.4,0.967,1.083,1.684,2.05,2.15c0.934,0.467,1.867,0.517,2.8,0.15c0.933-0.4,1.583-1.05,1.95-1.95
					C43.883-15.717,43.833-16.667,43.4-17.6z"/>
				<g>
					<path style="fill-rule:evenodd;clip-rule:evenodd;fill:#3A4933;" d="M18.75-48.5c0.4,1.4,1.183,2.55,2.35,3.45
						c1.133,0.9,2.3,1.283,3.5,1.15c1.133-0.1,1.983-0.684,2.55-1.75c0.533-1,0.617-2.15,0.25-3.45c-0.4-1.333-1.117-2.433-2.15-3.3
						c-1.1-0.867-2.233-1.283-3.4-1.25c-1.167,0.033-2.083,0.55-2.75,1.55C18.5-51.033,18.383-49.833,18.75-48.5z"/>
					<path style="fill-rule:evenodd;clip-rule:evenodd;fill:#94B37C;" d="M18.6-48.9c0.267,0.967,0.783,1.75,1.55,2.35
						c0.767,0.633,1.567,0.917,2.4,0.85c0.8-0.066,1.4-0.466,1.8-1.2c0.367-0.7,0.417-1.5,0.15-2.4
						c-0.233-0.867-0.717-1.633-1.45-2.3c-0.767-0.6-1.55-0.883-2.35-0.85c-0.833,0.034-1.45,0.4-1.85,1.1
						C18.417-50.65,18.333-49.833,18.6-48.9z"/>
				</g>
				<g>
					<path style="fill-rule:evenodd;clip-rule:evenodd;fill:#3A4933;" d="M34.45-80.3c1.1-0.767,1.8-1.7,2.1-2.8
						c0.367-1.1,0.267-2.083-0.3-2.95c-0.567-0.833-1.45-1.3-2.65-1.4c-1.167-0.066-2.317,0.267-3.45,1
						c-1.1,0.733-1.816,1.667-2.15,2.8c-0.367,1.1-0.25,2.083,0.35,2.95c0.633,0.867,1.533,1.333,2.7,1.4
						C32.25-79.233,33.383-79.567,34.45-80.3z"/>
					<path style="fill-rule:evenodd;clip-rule:evenodd;fill:#94B37C;" d="M34.15-80.05c0.733-0.5,1.217-1.133,1.45-1.9
						c0.233-0.8,0.15-1.483-0.25-2.05s-1-0.883-1.8-0.95c-0.8-0.033-1.583,0.2-2.35,0.7c-0.733,0.5-1.233,1.133-1.5,1.9
						c-0.233,0.8-0.15,1.483,0.25,2.05c0.433,0.566,1.05,0.883,1.85,0.95C32.633-79.283,33.417-79.517,34.15-80.05z"/>
				</g>
				<path style="fill-rule:evenodd;clip-rule:evenodd;fill:#3A4933;" d="M23.1-65.25c-0.633,1.267-0.65,2.617-0.05,4.05
					c0.6,1.333,1.617,2.317,3.05,2.95c1.367,0.6,2.7,0.617,4,0.05c1.2-0.5,2.066-1.433,2.6-2.8c0.5-1.4,0.517-2.733,0.05-4
					c-0.567-1.4-1.45-2.35-2.65-2.85c-1.267-0.6-2.6-0.633-4-0.1C24.7-67.45,23.7-66.55,23.1-65.25z"/>
				<path style="fill-rule:evenodd;clip-rule:evenodd;fill:#387D16;" d="M26.2-62.9c-0.333,0.8-0.35,1.617-0.05,2.45
					c0.3,0.833,0.817,1.4,1.55,1.7c0.733,0.3,1.433,0.25,2.1-0.15c0.7-0.367,1.2-0.967,1.5-1.8c0.3-0.833,0.333-1.633,0.1-2.4
					c-0.267-0.8-0.733-1.35-1.4-1.65c-0.667-0.333-1.383-0.317-2.15,0.05C27.117-64.333,26.567-63.733,26.2-62.9z"/>
				<path style="fill-rule:evenodd;clip-rule:evenodd;fill:#3A4933;" d="M23-95.25c0.233,1.267,0.933,2.167,2.1,2.7
					c1.2,0.533,2.517,0.566,3.95,0.1c1.467-0.466,2.65-1.333,3.55-2.6c0.9-1.2,1.217-2.45,0.95-3.75c-0.267-1.267-1-2.167-2.2-2.7
					c-1.233-0.533-2.567-0.567-4-0.1c-1.434,0.5-2.567,1.367-3.4,2.6C23.117-97.767,22.8-96.517,23-95.25z"/>
				<path style="fill-rule:evenodd;clip-rule:evenodd;fill:#387D16;" d="M24.5-97.7c-0.533,0.767-0.767,1.517-0.7,2.25
					c0.034,0.767,0.367,1.284,1,1.55c0.633,0.3,1.367,0.283,2.2-0.05c0.8-0.367,1.483-0.933,2.05-1.7
					c0.534-0.767,0.767-1.517,0.7-2.25c-0.067-0.767-0.417-1.283-1.05-1.55c-0.633-0.3-1.35-0.283-2.15,0.05
					C25.75-99.033,25.067-98.467,24.5-97.7z"/>
				
					<use xlink:href="#FlashAICB_x2F_underground_x5F_bogwillow_x2F__x3C_Group_x3E_"  width="8.513" height="9.132" x="0.015" y="-9.132" transform="matrix(1 0 0 1 17 -14.3501)" style="overflow:visible;opacity:0.5;enable-background:new    ;"/>
				
					<use xlink:href="#FlashAICB_x2F_underground_x5F_bogwillow_x2F__x3C_Path_x3E__x5F_0"  width="15.031" height="16.468" x="0.012" y="-16.459" transform="matrix(1 0 0 1 14.1499 -39.6499)" style="overflow:visible;enable-background:new    ;"/>
				
					<use xlink:href="#FlashAICB_x2F_underground_x5F_bogwillow_x2F__x3C_Path_x3E__x5F_1"  width="14.516" height="13.676" x="-0.003" y="-13.672" transform="matrix(1 0 0 1 4.7002 -72.8496)" style="overflow:visible;enable-background:new    ;"/>
				
					<use xlink:href="#FlashAICB_x2F_underground_x5F_bogwillow_x2F__x3C_Path_x3E__x5F_2"  width="14.638" height="14.163" x="0.018" y="-14.16" transform="matrix(1 0 0 1 32.9004 -47.5)" style="overflow:visible;enable-background:new    ;"/>
				
					<use xlink:href="#FlashAICB_x2F_underground_x5F_bogwillow_x2F__x3C_Group_x3E__x5F_0"  width="8.133" height="8.473" x="-0.042" y="-8.457" transform="matrix(1 0 0 1 17.2998 -45.2998)" style="overflow:visible;opacity:0.5;enable-background:new    ;"/>
				
					<use xlink:href="#FlashAICB_x2F_underground_x5F_bogwillow_x2F__x3C_Group_x3E__x5F_1"  width="8.006" height="7.102" x="-0.008" y="-7.102" transform="matrix(1 0 0 1 38.3496 -63.7998)" style="overflow:visible;opacity:0.5;enable-background:new    ;"/>
				
					<use xlink:href="#FlashAICB_x2F_underground_x5F_bogwillow_x2F__x3C_Group_x3E__x5F_2"  width="7.925" height="7.35" x="-0.018" y="-7.35" transform="matrix(1 0 0 1 36.4502 -50.6001)" style="overflow:visible;opacity:0.5;enable-background:new    ;"/>
				
					<use xlink:href="#FlashAICB_x2F_underground_x5F_bogwillow_x2F__x3C_Group_x3E__x5F_3"  width="4.477" height="4.193" x="0.018" y="-4.204" transform="matrix(1 0 0 1 35.75 -74.3496)" style="overflow:visible;opacity:0.5;enable-background:new    ;"/>
				
					<use xlink:href="#FlashAICB_x2F_underground_x5F_bogwillow_x2F__x3C_Group_x3E__x5F_4"  width="4.723" height="4.115" x="-0.012" y="-4.148" transform="matrix(1 0 0 1 9.0498 -78.5498)" style="overflow:visible;opacity:0.5;enable-background:new    ;"/>
				
					<use xlink:href="#FlashAICB_x2F_underground_x5F_bogwillow_x2F__x3C_Group_x3E__x5F_5"  width="4.538" height="4.13" x="-0.035" y="-4.15" transform="matrix(1 0 0 1 10.3999 -86.0996)" style="overflow:visible;opacity:0.5;enable-background:new    ;"/>
				
					<use xlink:href="#FlashAICB_x2F_underground_x5F_bogwillow_x2F__x3C_Group_x3E__x5F_6"  width="4.756" height="4.083" x="-0.053" y="-4.064" transform="matrix(1 0 0 1 17.8999 -102.9502)" style="overflow:visible;opacity:0.5;enable-background:new    ;"/>
				
					<use xlink:href="#FlashAICB_x2F_underground_x5F_bogwillow_x2F__x3C_Group_x3E__x5F_7"  width="8.173" height="7.806" x="0" y="-7.806" transform="matrix(1 0 0 1 35.9502 -11.6001)" style="overflow:visible;opacity:0.5;enable-background:new    ;"/>
				
					<use xlink:href="#FlashAICB_x2F_underground_x5F_bogwillow_x2F__x3C_Group_x3E__x5F_8"  width="10.286" height="11.457" x="-0.006" y="-11.463" transform="matrix(1 0 0 1 10.2998 -29.1499)" style="overflow:visible;opacity:0.5;enable-background:new    ;"/>
				
					<use xlink:href="#FlashAICB_x2F_underground_x5F_bogwillow_x2F__x3C_Group_x3E__x5F_9"  width="7.963" height="7.253" x="-0.018" y="-7.259" transform="matrix(1 0 0 1 39.7998 -87.7998)" style="overflow:visible;opacity:0.5;enable-background:new    ;"/>
				
					<use xlink:href="#FlashAICB_x2F_underground_x5F_bogwillow_x2F__x3C_Group_x3E__x5F_10"  width="8.454" height="6.973" x="0.002" y="-6.96" transform="matrix(1 0 0 1 40.8496 -40.8999)" style="overflow:visible;opacity:0.5;enable-background:new    ;"/>
				
					<use xlink:href="#FlashAICB_x2F_underground_x5F_bogwillow_x2F__x3C_Group_x3E__x5F_11"  width="6.212" height="5.494" x="0" y="-5.497" transform="matrix(1 0 0 1 42.3496 -104.4502)" style="overflow:visible;opacity:0.5;enable-background:new    ;"/>
				
					<use xlink:href="#FlashAICB_x2F_underground_x5F_bogwillow_x2F__x3C_Group_x3E__x5F_12"  width="7.262" height="6.654" x="-0.01" y="-6.66" transform="matrix(1 0 0 1 29.3999 -79.4004)" style="overflow:visible;opacity:0.5;enable-background:new    ;"/>
				
					<use xlink:href="#FlashAICB_x2F_underground_x5F_bogwillow_x2F__x3C_Group_x3E__x5F_13"  width="7.226" height="6.679" x="-0.01" y="-6.709" transform="matrix(1 0 0 1 23 -93.9004)" style="overflow:visible;opacity:0.5;enable-background:new    ;"/>
				
					<use xlink:href="#FlashAICB_x2F_underground_x5F_bogwillow_x2F__x3C_Group_x3E__x5F_14"  width="7.725" height="7.664" x="0.008" y="-7.67" transform="matrix(1 0 0 1 47.1504 -26)" style="overflow:visible;opacity:0.5;enable-background:new    ;"/>
				
					<use xlink:href="#FlashAICB_x2F_underground_x5F_bogwillow_x2F__x3C_Path_x3E__x5F_18"  width="17.353" height="18.236" x="-0.003" y="-18.22" transform="matrix(1 0 0 1 0 -53.8496)" style="overflow:visible;enable-background:new    ;"/>
				
					<use xlink:href="#FlashAICB_x2F_underground_x5F_bogwillow_x2F__x3C_Path_x3E__x5F_19"  width="14.005" height="12.899" x="-0.014" y="-12.924" transform="matrix(1 0 0 1 6.8999 -82.3496)" style="overflow:visible;enable-background:new    ;"/>
				
					<use xlink:href="#FlashAICB_x2F_underground_x5F_bogwillow_x2F__x3C_Path_x3E__x5F_20"  width="13.914" height="13.035" x="-0.012" y="-13.011" transform="matrix(1 0 0 1 20.8501 -89.9502)" style="overflow:visible;enable-background:new    ;"/>
				
					<use xlink:href="#FlashAICB_x2F_underground_x5F_bogwillow_x2F__x3C_Path_x3E__x5F_21"  width="10.422" height="10.13" x="0" y="-10.115" transform="matrix(1 0 0 1 15.5 -100.2998)" style="overflow:visible;enable-background:new    ;"/>
				
					<use xlink:href="#FlashAICB_x2F_underground_x5F_bogwillow_x2F__x3C_Path_x3E__x5F_22"  width="10.361" height="10.279" x="-0.008" y="-10.265" transform="matrix(1 0 0 1 39.9004 -103.0996)" style="overflow:visible;enable-background:new    ;"/>
				
					<use xlink:href="#FlashAICB_x2F_underground_x5F_bogwillow_x2F__x3C_Path_x3E__x5F_23"  width="13.975" height="12.947" x="0.009" y="-12.974" transform="matrix(1 0 0 1 36.75 -86)" style="overflow:visible;enable-background:new    ;"/>
				
					<use xlink:href="#FlashAICB_x2F_underground_x5F_bogwillow_x2F__x3C_Path_x3E__x5F_24"  width="14.229" height="13.246" x="0.012" y="-13.224" transform="matrix(1 0 0 1 25.7002 -76.1504)" style="overflow:visible;enable-background:new    ;"/>
				
					<use xlink:href="#FlashAICB_x2F_underground_x5F_bogwillow_x2F__x3C_Path_x3E__x5F_25"  width="11.357" height="10.828" x="0.011" y="-10.814" transform="matrix(1 0 0 1 31.25 -70.9502)" style="overflow:visible;enable-background:new    ;"/>
				
					<use xlink:href="#FlashAICB_x2F_underground_x5F_bogwillow_x2F__x3C_Path_x3E__x5F_26"  width="17.354" height="17.736" x="-0.002" y="-17.769" transform="matrix(1 0 0 1 19.5 -53.4004)" style="overflow:visible;enable-background:new    ;"/>
				
					<use xlink:href="#FlashAICB_x2F_underground_x5F_bogwillow_x2F__x3C_Path_x3E__x5F_27"  width="14.549" height="14.444" x="-0.022" y="-14.422" transform="matrix(1 0 0 1 33.7002 -60.3496)" style="overflow:visible;enable-background:new    ;"/>
				
					<use xlink:href="#FlashAICB_x2F_underground_x5F_bogwillow_x2F__x3C_Path_x3E__x5F_28"  width="18.228" height="16.821" x="-0.002" y="-16.808" transform="matrix(1 0 0 1 34.4004 -37.1001)" style="overflow:visible;enable-background:new    ;"/>
				
					<use xlink:href="#FlashAICB_x2F_underground_x5F_bogwillow_x2F__x3C_Group_x3E__x5F_15"  width="7.25" height="7.345" x="-0.008" y="-7.359" transform="matrix(1 0 0 1 3.75 -58.5996)" style="overflow:visible;opacity:0.5;enable-background:new    ;"/>
				
					<use xlink:href="#FlashAICB_x2F_underground_x5F_bogwillow_x2F__x3C_Group_x3E__x5F_16"  width="7.229" height="7.195" x="-0.009" y="-7.209" transform="matrix(1 0 0 1 24.25 -58.7998)" style="overflow:visible;opacity:0.5;enable-background:new    ;"/>
				
					<use xlink:href="#FlashAICB_x2F_underground_x5F_bogwillow_x2F__x3C_Path_x3E__x5F_31"  width="18.892" height="21.365" x="0.022" y="-21.347" transform="matrix(1 0 0 1 12.5498 -10.3501)" style="overflow:visible;enable-background:new    ;"/>
				
					<use xlink:href="#FlashAICB_x2F_underground_x5F_bogwillow_x2F__x3C_Path_x3E__x5F_32"  width="18.334" height="18.511" x="-0.02" y="-18.478" transform="matrix(1 0 0 1 30.6504 -8.6499)" style="overflow:visible;enable-background:new    ;"/>
				
					<use xlink:href="#FlashAICB_x2F_underground_x5F_bogwillow_x2F__x3C_Path_x3E__x5F_33"  width="18.434" height="16.788" x="0.031" y="-16.786" transform="matrix(1 0 0 1 42.5996 -20.5498)" style="overflow:visible;enable-background:new    ;"/>
				
					<use xlink:href="#FlashAICB_x2F_underground_x5F_bogwillow_x2F__x3C_Path_x3E__x5F_34"  width="15.603" height="18.448" x="0.022" y="-18.45" transform="matrix(1 0 0 1 7.1001 -26.1499)" style="overflow:visible;enable-background:new    ;"/>
			</g>
		</g>
	</g>
</symbol>
<use xlink:href="#FlashAICB_x2F_underground_x5F_bogwillow_x2F_Envelope"  width="61.067" height="104.747" x="-0.003" y="-113.364" transform="matrix(1 0 0 -1 0 -8.6001)" style="overflow:visible;"/>
</svg>
