<?xml version="1.0" encoding="iso-8859-1"?>
<!-- Generator: Adobe Illustrator 15.1.0, SVG Export Plug-In . SVG Version: 6.00 Build 0)  -->
<!DOCTYPE svg PUBLIC "-//W3C//DTD SVG 1.1//EN" "http://www.w3.org/Graphics/SVG/1.1/DTD/svg11.dtd">
<svg version="1.1" id="underground_x5F_plant2" xmlns="http://www.w3.org/2000/svg" xmlns:xlink="http://www.w3.org/1999/xlink"
	 x="0px" y="0px" width="39.35px" height="84.85px" viewBox="0 0 39.35 84.85" style="enable-background:new 0 0 39.35 84.85;"
	 xml:space="preserve">
<symbol  id="FlashAICB_x2F_underground_x5F_plant2_x2F__x3C_Path_x3E_" viewBox="0 -13.954 20.6 13.954">
	<g id="Layer_1_3_">
		
			<linearGradient id="SVGID_1_" gradientUnits="userSpaceOnUse" x1="16758.3125" y1="-463.3301" x2="16783.3281" y2="-463.3301" gradientTransform="matrix(-0.057 0.9984 -0.9984 -0.057 502.8032 -16772.9316)">
			<stop  offset="0" style="stop-color:#1B1405"/>
			<stop  offset="0.1765" style="stop-color:#281F06"/>
			<stop  offset="0.5059" style="stop-color:#4C3A09"/>
			<stop  offset="0.5333" style="stop-color:#4F3D0A"/>
			<stop  offset="1" style="stop-color:#3B2C08"/>
		</linearGradient>
		<path style="fill-rule:evenodd;clip-rule:evenodd;fill:url(#SVGID_1_);" d="M20.6-5.75v-0.4c-0.033-2.233-1.133-4.117-3.3-5.65
			c-2.167-1.5-4.75-2.217-7.75-2.15c-2.066,0.034-3.966,0.483-5.7,1.35C2.183-11.733,0.9-10.617,0-9.25c2-1.367,4.35-2.1,7.05-2.2
			c3-0.066,5.583,0.65,7.75,2.15c2.167,1.533,3.267,3.417,3.3,5.65v0.45C18.033-2,17.683-0.933,17.05,0
			C19.317-1.567,20.5-3.483,20.6-5.75z"/>
	</g>
</symbol>
<symbol  id="FlashAICB_x2F_underground_x5F_plant2_x2F__x3C_Path_x3E__x5F_18" viewBox="-0.001 -8.759 21.701 8.759">
	<g id="Layer_1_2_">
		<path style="fill-rule:evenodd;clip-rule:evenodd;fill:#1A1A1A;" d="M0.05,0c3-1.367,6.583-2.1,10.75-2.2
			c4.067-0.133,7.7,0.417,10.9,1.65V-1c-0.067-2.233-1.184-4.1-3.35-5.6c-2.167-1.533-4.733-2.25-7.7-2.15
			c-3,0.067-5.533,0.917-7.6,2.55C0.983-4.567-0.033-2.633,0-0.4L0.05,0z"/>
	</g>
</symbol>
<g>
	<g>
		<g>
			<g>
				<path style="fill-rule:evenodd;clip-rule:evenodd;fill:#181001;" d="M30.05,21.25c-0.2,0.1-0.399,0.117-0.6,0.05
					c-0.233-0.066-0.4-0.2-0.5-0.4c-0.101-0.167-0.117-0.367-0.05-0.6c0.066-0.2,0.199-0.35,0.399-0.45l5.95-3.25
					c0.5-0.233,0.866-0.117,1.1,0.35C36.616,17.383,36.5,17.733,36,18L30.05,21.25z"/>
				<path style="fill-rule:evenodd;clip-rule:evenodd;fill:#7B6F68;" d="M38.1,18.45c-0.566,0.267-1.149,0.316-1.75,0.15
					c-0.633-0.2-1.083-0.567-1.35-1.1c-0.3-0.533-0.35-1.1-0.15-1.7c0.2-0.6,0.584-1.033,1.15-1.3s1.167-0.317,1.8-0.15
					c0.601,0.2,1.033,0.566,1.3,1.1c0.301,0.566,0.351,1.133,0.15,1.7C39.05,17.75,38.667,18.183,38.1,18.45z"/>
				<path style="fill-rule:evenodd;clip-rule:evenodd;fill:#625953;" d="M35.65,17.1c0.267,0.533,0.683,0.9,1.25,1.1
					c0.533,0.2,1.083,0.2,1.649,0l-0.45,0.25c-0.566,0.267-1.149,0.316-1.75,0.15c-0.633-0.2-1.083-0.567-1.35-1.1
					c-0.3-0.533-0.35-1.1-0.15-1.7c0.2-0.6,0.584-1.033,1.15-1.3l0.2-0.1c-0.4,0.333-0.65,0.75-0.75,1.25
					C35.35,16.183,35.417,16.667,35.65,17.1z"/>
				<path style="fill-rule:evenodd;clip-rule:evenodd;fill:#4C3527;" d="M38.05,17.15c-0.333,0.167-0.666,0.184-1,0.05
					c-0.333-0.1-0.583-0.3-0.75-0.6c-0.166-0.333-0.2-0.667-0.1-1c0.1-0.333,0.316-0.583,0.649-0.75c0.334-0.167,0.667-0.184,1-0.05
					c0.367,0.1,0.634,0.317,0.801,0.65c0.166,0.3,0.199,0.617,0.1,0.95C38.616,16.733,38.384,16.983,38.05,17.15z"/>
				<path style="fill-rule:evenodd;clip-rule:evenodd;fill:#181001;" d="M7.75,10l5.15,7.55c0.167,0.267,0.217,0.534,0.15,0.8
					c-0.066,0.3-0.233,0.533-0.5,0.7c-0.267,0.167-0.55,0.217-0.85,0.15c-0.3-0.067-0.534-0.217-0.7-0.45L5.85,11.2
					c-0.167-0.233-0.217-0.5-0.15-0.8c0.033-0.3,0.183-0.533,0.45-0.7c0.267-0.167,0.567-0.217,0.9-0.15
					C7.35,9.583,7.583,9.733,7.75,10z"/>
				<path style="fill-rule:evenodd;clip-rule:evenodd;fill:#7B6F68;" d="M8.75,8.35C9.25,9.083,9.4,9.867,9.2,10.7
					c-0.167,0.8-0.617,1.433-1.35,1.9S6.3,13.217,5.4,13.05c-0.867-0.167-1.533-0.6-2-1.3c-0.5-0.733-0.65-1.517-0.45-2.35
					C3.117,8.6,3.567,7.967,4.3,7.5c0.733-0.467,1.55-0.617,2.45-0.45C7.617,7.217,8.283,7.65,8.75,8.35z"/>
				<path style="fill-rule:evenodd;clip-rule:evenodd;fill:#625953;" d="M8.75,8.35C9.25,9.083,9.4,9.867,9.2,10.7
					c-0.167,0.8-0.617,1.433-1.35,1.9S6.3,13.217,5.4,13.05c-0.867-0.167-1.533-0.6-2-1.3L3.35,11.7c1.167,0.6,2.3,0.566,3.4-0.1
					c0.733-0.434,1.183-1.067,1.35-1.9c0.2-0.833,0.066-1.6-0.4-2.3C8.133,7.667,8.483,7.983,8.75,8.35z"/>
				<path style="fill-rule:evenodd;clip-rule:evenodd;fill:#4C3527;" d="M6.65,8.15C6.917,8.55,7,8.983,6.9,9.45
					c-0.1,0.5-0.367,0.883-0.8,1.15c-0.434,0.267-0.883,0.35-1.35,0.25c-0.5-0.1-0.9-0.35-1.2-0.75C3.283,9.667,3.2,9.217,3.3,8.75
					c0.1-0.467,0.367-0.833,0.8-1.1C4.533,7.383,5,7.3,5.5,7.4S6.383,7.75,6.65,8.15z"/>
				<path style="fill-rule:evenodd;clip-rule:evenodd;fill:#181001;" d="M29.95,14.4c0.166-0.2,0.399-0.3,0.7-0.3
					c0.3,0,0.55,0.083,0.75,0.25c0.466,0.467,0.483,0.95,0.05,1.45l-2.2,2.25c-0.2,0.2-0.434,0.3-0.7,0.3
					c-0.3,0-0.55-0.083-0.75-0.25c-0.233-0.2-0.35-0.434-0.35-0.7s0.1-0.5,0.3-0.7L29.95,14.4z"/>
				<path style="fill-rule:evenodd;clip-rule:evenodd;fill:#7B6F68;" d="M33.2,16.3c-0.533,0.567-1.217,0.867-2.05,0.9
					c-0.801,0.033-1.5-0.217-2.101-0.75c-0.6-0.534-0.916-1.184-0.95-1.95c-0.033-0.8,0.233-1.483,0.801-2.05
					c0.566-0.567,1.25-0.85,2.05-0.85c0.8-0.033,1.5,0.217,2.1,0.75c0.566,0.533,0.867,1.183,0.9,1.95
					C33.983,15.067,33.733,15.733,33.2,16.3z"/>
				<path style="fill-rule:evenodd;clip-rule:evenodd;fill:#625953;" d="M29.9,11.8l-0.351,0.3c-0.566,0.566-0.833,1.233-0.8,2
					s0.35,1.417,0.95,1.95c0.399,0.4,0.899,0.65,1.5,0.75c0.566,0.067,1.1,0,1.6-0.2c-0.566,0.4-1.2,0.6-1.899,0.6
					c-0.7-0.034-1.317-0.284-1.851-0.75c-0.6-0.534-0.916-1.184-0.95-1.95c-0.033-0.8,0.233-1.483,0.801-2.05
					C29.167,12.183,29.5,11.967,29.9,11.8z"/>
				<path style="fill-rule:evenodd;clip-rule:evenodd;fill:#4C3527;" d="M32.7,15.3c-0.334,0.333-0.717,0.5-1.15,0.5
					c-0.467,0.034-0.866-0.1-1.2-0.4c-0.333-0.3-0.517-0.683-0.55-1.15c-0.033-0.433,0.117-0.817,0.45-1.15
					c0.3-0.333,0.684-0.5,1.15-0.5c0.466,0,0.866,0.15,1.199,0.45c0.367,0.3,0.551,0.667,0.551,1.1
					C33.184,14.583,33.033,14.967,32.7,15.3z"/>
				<path style="fill-rule:evenodd;clip-rule:evenodd;fill:#181001;" d="M21.25,21.05l-1.1,62.4c-0.034,0.399-0.184,0.733-0.45,1
					c-0.3,0.267-0.667,0.399-1.1,0.399c-0.434-0.033-0.783-0.183-1.05-0.449c-0.3-0.301-0.433-0.65-0.4-1.051l1.1-62.399
					c0-0.367,0.15-0.7,0.45-1c0.3-0.267,0.649-0.4,1.05-0.4c0.434,0.034,0.783,0.184,1.05,0.45C21.1,20.3,21.25,20.65,21.25,21.05z"
					/>
				<g>
					<path style="fill-rule:evenodd;clip-rule:evenodd;fill:#464033;" d="M18.1,28.25l2.8-0.3c2.233,0,4.35,0.533,6.35,1.6
						c2.3,1.2,2.934,2.65,1.9,4.35c-1.034,1.667-2.45,2-4.25,1c-2.067-1.133-3.817-2.583-5.25-4.35L18.1,28.25z"/>
					<path style="fill-rule:evenodd;clip-rule:evenodd;fill:#706B61;" d="M20.65,28.45l1.949-0.2c1.567,0,3.051,0.367,4.45,1.1
						c1.634,0.867,2.084,1.883,1.351,3.05c-0.733,1.2-1.733,1.45-3,0.75c-1.467-0.8-2.7-1.833-3.7-3.1L20.65,28.45z"/>
				</g>
				<g>
					<path style="fill-rule:evenodd;clip-rule:evenodd;fill:#464033;" d="M20.25,28.3c-0.333,0.633-0.884,1.367-1.65,2.2
						c-1.533,1.7-3.367,3.067-5.5,4.1c-1.833,0.9-3.217,0.483-4.15-1.25c-0.967-1.733-0.267-3.15,2.1-4.25
						c2.034-0.967,4.184-1.383,6.45-1.25C18.633,27.917,19.55,28.067,20.25,28.3z"/>
					<path style="fill-rule:evenodd;clip-rule:evenodd;fill:#706B61;" d="M17.55,28.5l-1.15,1.55c-1.066,1.167-2.35,2.117-3.85,2.85
						c-1.3,0.633-2.283,0.35-2.95-0.85c-0.633-1.233-0.133-2.233,1.5-3c1.433-0.667,2.933-0.95,4.5-0.85
						C16.4,28.233,17.05,28.333,17.55,28.5z"/>
				</g>
				<g>
					<path style="fill-rule:evenodd;clip-rule:evenodd;fill:#464033;" d="M20.05,25.25l1.3,2.4c0.867,2.1,1.284,4.3,1.25,6.6
						c-0.033,1.967-1.05,2.95-3.05,2.95c-2.033,0-3.017-1.25-2.95-3.75c0.033-2.2,0.617-4.217,1.75-6.05L20.05,25.25z"/>
					<path style="fill-rule:evenodd;clip-rule:evenodd;fill:#706B61;" d="M19.8,27.2l0.9,1.7c0.633,1.434,0.934,2.967,0.899,4.6
						c0,1.4-0.716,2.083-2.149,2.05c-1.4,0-2.083-0.867-2.05-2.6c0.033-1.534,0.434-2.95,1.2-4.25L19.8,27.2z"/>
					
						<radialGradient id="SVGID_2_" cx="28.8721" cy="-17.5908" r="3.0779" gradientTransform="matrix(0.0447 0.999 2.4772 0.1624 61.2366 4.0156)" gradientUnits="userSpaceOnUse">
						<stop  offset="0" style="stop-color:#000000;stop-opacity:0.6471"/>
						<stop  offset="0.9569" style="stop-color:#000000;stop-opacity:0"/>
					</radialGradient>
					<path style="fill-rule:evenodd;clip-rule:evenodd;fill:url(#SVGID_2_);" d="M19.1,33.1c-2.1-0.133-3.933-0.55-5.5-1.25
						c-1.5-0.7-2.283-1.483-2.35-2.35c-0.033-0.867,0.683-1.55,2.15-2.05c1.5-0.5,3.3-0.684,5.4-0.55
						c2.134,0.133,3.967,0.55,5.5,1.25c1.533,0.7,2.316,1.483,2.351,2.35c0.066,0.867-0.65,1.55-2.15,2.05
						C23.033,33.083,21.233,33.267,19.1,33.1z"/>
				</g>
				
					<linearGradient id="SVGID_3_" gradientUnits="userSpaceOnUse" x1="-31.5146" y1="18.1914" x2="-14.1608" y2="18.1914" gradientTransform="matrix(-0.0576 -0.9983 0.9983 -0.0576 -1.085550e-005 -8.149222e-004)">
					<stop  offset="0" style="stop-color:#1B1405"/>
					<stop  offset="0.1294" style="stop-color:#281F06"/>
					<stop  offset="0.3647" style="stop-color:#4C3909"/>
					<stop  offset="0.5333" style="stop-color:#69500B"/>
					<stop  offset="0.9412" style="stop-color:#413108"/>
					<stop  offset="1" style="stop-color:#3B2C08"/>
				</linearGradient>
				<path style="fill-rule:evenodd;clip-rule:evenodd;fill:url(#SVGID_3_);" d="M19.65,13.2c2.899,0.066,5.366,0.867,7.399,2.4
					c2.066,1.533,3.134,3.383,3.2,5.55c-3.066,1.2-6.684,1.75-10.85,1.65c-4.034-0.1-7.634-0.833-10.8-2.2
					c0.2-2.133,1.367-3.917,3.5-5.35S16.75,13.133,19.65,13.2z"/>
				
					<use xlink:href="#FlashAICB_x2F_underground_x5F_plant2_x2F__x3C_Path_x3E__x5F_18"  width="21.701" height="8.759" x="-0.001" y="-8.759" transform="matrix(1 0 0 -1 8.6001 20.0498)" style="overflow:visible;opacity:0.5;enable-background:new    ;"/>
				
					<linearGradient id="SVGID_4_" gradientUnits="userSpaceOnUse" x1="-31.5117" y1="18.1694" x2="-14.1579" y2="18.1694" gradientTransform="matrix(-0.0576 -0.9983 0.9983 -0.0576 -1.085550e-005 -8.149222e-004)">
					<stop  offset="0" style="stop-color:#1B1405"/>
					<stop  offset="0.1765" style="stop-color:#281F06"/>
					<stop  offset="0.5059" style="stop-color:#4C3A09"/>
					<stop  offset="0.5333" style="stop-color:#4F3D0A"/>
					<stop  offset="1" style="stop-color:#3B2C08"/>
				</linearGradient>
				<path style="fill-rule:evenodd;clip-rule:evenodd;fill:url(#SVGID_4_);" d="M8.6,20.6c3.167,1.367,6.767,2.1,10.8,2.2
					c4.166,0.1,7.783-0.45,10.85-1.65v0.4c-0.033,2.233-1.134,4.117-3.3,5.65c-2.167,1.5-4.75,2.216-7.75,2.15
					c-2.967-0.067-5.483-0.917-7.55-2.55C9.583,25.167,8.567,23.233,8.6,21V20.6z"/>
				<path style="fill-rule:evenodd;clip-rule:evenodd;fill:#181001;" d="M26.6,10.7L25,14.95c-0.167,0.367-0.434,0.633-0.8,0.8
					c-0.367,0.133-0.75,0.133-1.15,0c-0.366-0.133-0.633-0.383-0.8-0.75c-0.2-0.367-0.233-0.733-0.1-1.1L23.8,9.7
					c0.134-0.367,0.4-0.633,0.8-0.8c0.367-0.167,0.75-0.183,1.15-0.05c0.366,0.167,0.634,0.433,0.8,0.8
					C26.75,10.017,26.767,10.367,26.6,10.7z"/>
				<path style="fill-rule:evenodd;clip-rule:evenodd;fill:#7B6F68;" d="M29.7,9.95c-0.4,1.066-1.134,1.833-2.2,2.3
					s-2.15,0.5-3.25,0.1s-1.9-1.117-2.4-2.15c-0.5-1.034-0.533-2.067-0.1-3.1c0.4-1.033,1.134-1.783,2.2-2.25s2.149-0.5,3.25-0.1
					c1.1,0.367,1.899,1.067,2.399,2.1C30.066,7.85,30.1,8.883,29.7,9.95z"/>
				<path style="fill-rule:evenodd;clip-rule:evenodd;fill:#7B6F68;" d="M29.7,9.95c-0.4,1.066-1.134,1.833-2.2,2.3
					s-2.15,0.5-3.25,0.1s-1.9-1.117-2.4-2.15c-0.5-1.034-0.533-2.067-0.1-3.1c0.4-1.033,1.134-1.783,2.2-2.25s2.149-0.5,3.25-0.1
					c1.1,0.367,1.899,1.067,2.399,2.1C30.066,7.85,30.1,8.883,29.7,9.95z"/>
				<path style="fill-rule:evenodd;clip-rule:evenodd;fill:#625953;" d="M29.65,7.1c0.366,0.967,0.383,1.917,0.05,2.85
					c-0.4,1.066-1.134,1.833-2.2,2.3s-2.15,0.5-3.25,0.1c-0.866-0.3-1.55-0.817-2.05-1.55c-0.5-0.7-0.733-1.466-0.7-2.3
					c0.434,1.1,1.25,1.883,2.45,2.35c1.1,0.4,2.184,0.367,3.25-0.1s1.8-1.233,2.2-2.3C29.566,8.083,29.65,7.633,29.65,7.1z"/>
				<path style="fill-rule:evenodd;clip-rule:evenodd;fill:#4C3527;" d="M28.15,7.7C27.884,8.3,27.467,8.733,26.9,9
					c-0.634,0.267-1.267,0.283-1.9,0.05c-0.634-0.233-1.083-0.633-1.35-1.2c-0.267-0.6-0.284-1.2-0.051-1.8
					c0.233-0.6,0.65-1.033,1.25-1.3C25.45,4.483,26.066,4.467,26.7,4.7c0.633,0.233,1.083,0.633,1.35,1.2
					C28.35,6.5,28.384,7.1,28.15,7.7z"/>
				<path style="fill-rule:evenodd;clip-rule:evenodd;fill:#181001;" d="M18.65,3.9l1.45,10.15c0.034,0.333-0.05,0.617-0.25,0.85
					c-0.199,0.233-0.466,0.367-0.8,0.4c-0.333,0.034-0.617-0.05-0.85-0.25c-0.267-0.2-0.417-0.45-0.45-0.75L16.3,4.1
					c-0.033-0.3,0.05-0.567,0.25-0.8c0.2-0.233,0.467-0.383,0.8-0.45c0.333-0.033,0.617,0.066,0.85,0.3
					C18.433,3.35,18.583,3.6,18.65,3.9z"/>
				<path style="fill-rule:evenodd;clip-rule:evenodd;fill:#7B6F68;" d="M20.4,2.9c0.066,0.867-0.184,1.65-0.75,2.35
					c-0.567,0.667-1.317,1.033-2.25,1.1c-0.933,0.066-1.75-0.167-2.45-0.7c-0.7-0.566-1.1-1.283-1.2-2.15
					c-0.067-0.9,0.183-1.683,0.75-2.35c0.567-0.7,1.317-1.083,2.25-1.15s1.75,0.183,2.45,0.75S20.3,2.033,20.4,2.9z"/>
				<path style="fill-rule:evenodd;clip-rule:evenodd;fill:#625953;" d="M18.9,4.1c0.6-0.7,0.85-1.483,0.75-2.35l-0.2-0.8
					c0.533,0.533,0.85,1.183,0.95,1.95c0.066,0.867-0.184,1.65-0.75,2.35c-0.567,0.667-1.317,1.033-2.25,1.1
					c-0.767,0.066-1.467-0.1-2.1-0.5c-0.633-0.367-1.083-0.9-1.35-1.6c0.767,0.767,1.667,1.1,2.7,1
					C17.583,5.15,18.333,4.767,18.9,4.1z"/>
				<path style="fill-rule:evenodd;clip-rule:evenodd;fill:#4C3527;" d="M18,1.85c0.067,0.533-0.067,0.983-0.4,1.35
					c-0.333,0.4-0.767,0.617-1.3,0.65c-0.533,0.066-1-0.067-1.4-0.4c-0.367-0.333-0.583-0.75-0.65-1.25
					c-0.033-0.5,0.1-0.95,0.4-1.35c0.333-0.367,0.767-0.567,1.3-0.6c0.533-0.033,1,0.1,1.4,0.4C17.75,0.95,17.967,1.35,18,1.85z"/>
				<path style="fill-rule:evenodd;clip-rule:evenodd;fill:#181001;" d="M15.6,14c0.1,0.2,0.1,0.4,0,0.6
					c-0.1,0.233-0.25,0.383-0.45,0.45c-0.566,0.2-0.933,0.05-1.1-0.45l-1-2.4C12.983,12,13,11.8,13.1,11.6
					c0.066-0.233,0.217-0.383,0.45-0.45c0.567-0.167,0.934-0.017,1.1,0.45L15.6,14z"/>
				<path style="fill-rule:evenodd;clip-rule:evenodd;fill:#7B6F68;" d="M15.65,10.6c0.267,0.566,0.267,1.15,0,1.75
					c-0.267,0.566-0.717,0.967-1.35,1.2c-0.633,0.233-1.25,0.217-1.85-0.05c-0.6-0.267-1.017-0.683-1.25-1.25
					c-0.233-0.6-0.233-1.2,0-1.8c0.267-0.567,0.716-0.967,1.35-1.2S13.8,9.033,14.4,9.3C15,9.567,15.417,10,15.65,10.6z"/>
				<path style="fill-rule:evenodd;clip-rule:evenodd;fill:#625953;" d="M15.65,10.6c0.267,0.566,0.267,1.15,0,1.75
					c-0.267,0.566-0.717,0.967-1.35,1.2c-0.566,0.233-1.133,0.233-1.7,0c-0.6-0.2-1.033-0.55-1.3-1.05
					c0.767,0.567,1.583,0.7,2.45,0.4c0.6-0.267,1.033-0.683,1.3-1.25c0.267-0.566,0.284-1.15,0.05-1.75l-0.15-0.25
					C15.283,9.917,15.517,10.233,15.65,10.6z"/>
				<path style="fill-rule:evenodd;clip-rule:evenodd;fill:#4C3527;" d="M14.15,10.25c0.133,0.367,0.117,0.7-0.05,1
					c-0.133,0.333-0.383,0.567-0.75,0.7s-0.717,0.133-1.05,0c-0.367-0.167-0.617-0.417-0.75-0.75c-0.133-0.333-0.117-0.667,0.05-1
					c0.167-0.333,0.417-0.567,0.75-0.7c0.367-0.133,0.717-0.133,1.05,0C13.767,9.667,14.017,9.917,14.15,10.25z"/>
				<path style="fill-rule:evenodd;clip-rule:evenodd;fill:#181001;" d="M10.35,19.3c0.467,0.3,0.566,0.667,0.3,1.1
					c-0.267,0.434-0.65,0.533-1.15,0.3l-6.05-3.1c-0.2-0.1-0.333-0.25-0.4-0.45c-0.066-0.233-0.033-0.45,0.1-0.65
					c0.333-0.433,0.717-0.517,1.15-0.25L10.35,19.3z"/>
				<path style="fill-rule:evenodd;clip-rule:evenodd;fill:#7B6F68;" d="M3.55,14.3c0.567,0.333,0.934,0.8,1.1,1.4
					c0.133,0.566,0.033,1.117-0.3,1.65c-0.333,0.533-0.8,0.867-1.4,1c-0.6,0.167-1.184,0.1-1.75-0.2
					c-0.567-0.333-0.934-0.783-1.1-1.35c-0.167-0.6-0.083-1.167,0.25-1.7c0.333-0.533,0.816-0.867,1.45-1
					C2.4,13.933,2.983,14,3.55,14.3z"/>
				<path style="fill-rule:evenodd;clip-rule:evenodd;fill:#625953;" d="M3.55,14.3c0.567,0.333,0.934,0.8,1.1,1.4
					c0.133,0.566,0.033,1.117-0.3,1.65c-0.434,0.667-1.033,1.033-1.8,1.1c0.434-0.267,0.733-0.55,0.9-0.85
					c0.333-0.533,0.417-1.083,0.25-1.65c-0.133-0.6-0.483-1.067-1.05-1.4c-0.367-0.2-0.833-0.3-1.4-0.3
					C2.05,13.85,2.817,13.867,3.55,14.3z"/>
				<path style="fill-rule:evenodd;clip-rule:evenodd;fill:#4C3527;" d="M2.15,15.1c0.333,0.167,0.55,0.433,0.65,0.8
					c0.067,0.333,0.017,0.65-0.15,0.95c-0.2,0.3-0.483,0.5-0.85,0.6c-0.333,0.066-0.667,0.017-1-0.15c-0.3-0.2-0.5-0.466-0.6-0.8
					c-0.1-0.333-0.05-0.65,0.15-0.95c0.167-0.3,0.433-0.5,0.8-0.6C1.517,14.883,1.85,14.933,2.15,15.1z"/>
			</g>
		</g>
	</g>
	
		<use xlink:href="#FlashAICB_x2F_underground_x5F_plant2_x2F__x3C_Path_x3E_"  width="20.6" height="13.954" y="-13.954" transform="matrix(1 0 0 -1 9.6499 15.3999)" style="overflow:visible;opacity:0.3008;enable-background:new    ;"/>
</g>
</svg>
