<?xml version="1.0" encoding="iso-8859-1"?>
<!-- Generator: Adobe Illustrator 15.1.0, SVG Export Plug-In . SVG Version: 6.00 Build 0)  -->
<!DOCTYPE svg PUBLIC "-//W3C//DTD SVG 1.1//EN" "http://www.w3.org/Graphics/SVG/1.1/DTD/svg11.dtd">
<svg version="1.1" id="underground_x5F_plant2" xmlns="http://www.w3.org/2000/svg" xmlns:xlink="http://www.w3.org/1999/xlink"
	 x="0px" y="0px" width="39.35px" height="55.9px" viewBox="0 0 39.35 55.9" style="enable-background:new 0 0 39.35 55.9;"
	 xml:space="preserve">
<symbol  id="FlashAICB_x2F_underground_x5F_plant2_x2F__x3C_Path_x3E_" viewBox="0 -14.101 20.55 14.101">
	<g id="Layer_1_3_">
		
			<linearGradient id="SVGID_1_" gradientUnits="userSpaceOnUse" x1="16856.9531" y1="-574.0273" x2="16881.9863" y2="-574.0273" gradientTransform="matrix(-0.0679 0.9977 -0.9977 -0.0679 582.8833 -16872.5566)">
			<stop  offset="0" style="stop-color:#222A02"/>
			<stop  offset="0.1765" style="stop-color:#2C3701"/>
			<stop  offset="0.5059" style="stop-color:#475B00"/>
			<stop  offset="0.5333" style="stop-color:#4A5F00"/>
			<stop  offset="1" style="stop-color:#3B4A00"/>
		</linearGradient>
		<path style="fill-rule:evenodd;clip-rule:evenodd;fill:url(#SVGID_1_);" d="M20.55-5.75v-0.4c-0.033-2.233-1.117-4.133-3.25-5.7
			c-2.133-1.533-4.7-2.283-7.7-2.25c-2.1,0.033-4.017,0.483-5.75,1.35C2.183-11.917,0.9-10.833,0-9.5
			c2.067-1.367,4.417-2.05,7.05-2.05c3-0.067,5.567,0.683,7.7,2.25c2.167,1.533,3.267,3.417,3.3,5.65L18-3.25
			c-0.033,1.1-0.4,2.183-1.1,3.25C19.233-1.567,20.45-3.483,20.55-5.75z"/>
	</g>
</symbol>
<symbol  id="FlashAICB_x2F_underground_x5F_plant2_x2F__x3C_Path_x3E__x5F_18" viewBox="-0.001 -8.704 21.651 8.704">
	<g id="Layer_1_2_">
		<path style="fill-rule:evenodd;clip-rule:evenodd;fill:#1A1A1A;" d="M0,0c2.967-1.333,6.567-2.05,10.8-2.15
			c4.1-0.067,7.717,0.533,10.85,1.8v-0.4c-0.033-2.267-1.117-4.167-3.25-5.7c-2.133-1.566-4.7-2.316-7.7-2.25
			C7.733-8.667,5.2-7.833,3.1-6.2C1-4.6-0.033-2.683,0-0.45V0z"/>
	</g>
</symbol>
<g>
	<g>
		<g>
			<g>
				<path style="fill-rule:evenodd;clip-rule:evenodd;fill:#222700;" d="M30.1,21.1c-0.466,0.233-0.833,0.133-1.1-0.3
					c-0.1-0.2-0.116-0.4-0.05-0.6c0.066-0.233,0.2-0.4,0.399-0.5l5.9-3.3c0.5-0.233,0.866-0.117,1.1,0.35
					c0.134,0.167,0.15,0.367,0.051,0.6c-0.067,0.2-0.2,0.35-0.4,0.45L30.1,21.1z"/>
				<path style="fill-rule:evenodd;clip-rule:evenodd;fill:#887E53;" d="M38.1,18.2c-0.533,0.3-1.116,0.35-1.75,0.15
					c-0.633-0.167-1.083-0.533-1.35-1.1c-0.3-0.533-0.366-1.083-0.2-1.65c0.2-0.6,0.584-1.05,1.15-1.35
					c0.566-0.267,1.166-0.317,1.8-0.15c0.6,0.2,1.05,0.566,1.35,1.1c0.301,0.566,0.351,1.133,0.15,1.7
					C39.05,17.5,38.667,17.933,38.1,18.2z"/>
				<path style="fill-rule:evenodd;clip-rule:evenodd;fill:#706844;" d="M35.65,16.9c0.267,0.533,0.683,0.883,1.25,1.05
					c0.533,0.2,1.083,0.2,1.649,0c-0.233,0.133-0.383,0.216-0.45,0.25c-0.533,0.3-1.116,0.35-1.75,0.15
					c-0.633-0.167-1.083-0.533-1.35-1.1c-0.3-0.533-0.366-1.083-0.2-1.65c0.2-0.6,0.584-1.05,1.15-1.35l0.25-0.05
					c-0.4,0.333-0.667,0.75-0.8,1.25C35.3,15.95,35.384,16.433,35.65,16.9z"/>
				<path style="fill-rule:evenodd;clip-rule:evenodd;fill:#584E1D;" d="M38.05,16.9c-0.333,0.167-0.666,0.2-1,0.1
					c-0.366-0.1-0.633-0.317-0.8-0.65c-0.167-0.3-0.184-0.617-0.05-0.95c0.1-0.367,0.316-0.617,0.649-0.75
					c0.334-0.167,0.667-0.2,1-0.1c0.367,0.1,0.634,0.317,0.801,0.65c0.166,0.3,0.183,0.617,0.05,0.95
					C38.6,16.483,38.384,16.733,38.05,16.9z"/>
				<path style="fill-rule:evenodd;clip-rule:evenodd;fill:#222700;" d="M7.65,10.1l5.25,7.45c0.167,0.233,0.217,0.517,0.15,0.85
					c-0.033,0.3-0.183,0.533-0.45,0.7c-0.267,0.167-0.55,0.217-0.85,0.15c-0.333-0.067-0.583-0.217-0.75-0.45l-5.25-7.5
					c-0.167-0.233-0.217-0.5-0.15-0.8c0.033-0.3,0.183-0.533,0.45-0.7c0.267-0.167,0.567-0.216,0.9-0.15
					C7.25,9.683,7.483,9.833,7.65,10.1z"/>
				<path style="fill-rule:evenodd;clip-rule:evenodd;fill:#887E53;" d="M8.65,8.45c0.5,0.7,0.667,1.466,0.5,2.3
					c-0.167,0.833-0.617,1.483-1.35,1.95c-0.733,0.466-1.533,0.633-2.4,0.5c-0.867-0.167-1.55-0.6-2.05-1.3
					c-0.5-0.733-0.667-1.517-0.5-2.35C3.017,8.717,3.467,8.067,4.2,7.6c0.733-0.467,1.533-0.617,2.4-0.45
					C7.467,7.317,8.15,7.75,8.65,8.45z"/>
				<path style="fill-rule:evenodd;clip-rule:evenodd;fill:#706844;" d="M8.65,8.45c0.5,0.7,0.667,1.466,0.5,2.3
					c-0.167,0.833-0.617,1.483-1.35,1.95c-0.733,0.466-1.533,0.633-2.4,0.5c-0.867-0.167-1.55-0.6-2.05-1.3L3.3,11.8
					c1.233,0.633,2.35,0.6,3.35-0.1C7.383,11.233,7.833,10.583,8,9.75C8.167,8.95,8.017,8.2,7.55,7.5
					C7.983,7.733,8.35,8.05,8.65,8.45z"/>
				<path style="fill-rule:evenodd;clip-rule:evenodd;fill:#584E1D;" d="M6.55,8.25c0.267,0.4,0.367,0.833,0.3,1.3
					c-0.1,0.5-0.367,0.883-0.8,1.15c-0.433,0.267-0.9,0.367-1.4,0.3c-0.5-0.1-0.883-0.367-1.15-0.8C3.233,9.8,3.15,9.367,3.25,8.9
					C3.317,8.433,3.567,8.067,4,7.8c0.433-0.267,0.883-0.367,1.35-0.3C5.85,7.6,6.25,7.85,6.55,8.25z"/>
				<path style="fill-rule:evenodd;clip-rule:evenodd;fill:#222700;" d="M29.9,14.25c0.466-0.467,0.949-0.483,1.449-0.05
					c0.233,0.167,0.351,0.4,0.351,0.7c0,0.267-0.084,0.5-0.25,0.7l-2.2,2.3c-0.2,0.2-0.434,0.317-0.7,0.35c-0.3,0-0.55-0.1-0.75-0.3
					c-0.233-0.167-0.35-0.4-0.35-0.7c0-0.267,0.083-0.5,0.25-0.7L29.9,14.25z"/>
				<path style="fill-rule:evenodd;clip-rule:evenodd;fill:#887E53;" d="M33.15,16.1c-0.534,0.566-1.2,0.883-2,0.95
					c-0.801,0.034-1.5-0.216-2.101-0.75c-0.6-0.533-0.916-1.183-0.95-1.95c-0.033-0.767,0.217-1.434,0.75-2
					c0.534-0.567,1.2-0.867,2-0.9c0.801-0.067,1.5,0.167,2.101,0.7c0.6,0.533,0.916,1.184,0.95,1.95
					C33.934,14.867,33.684,15.533,33.15,16.1z"/>
				<path style="fill-rule:evenodd;clip-rule:evenodd;fill:#706844;" d="M28.85,12.35c0.233-0.3,0.567-0.533,1-0.7l-0.35,0.3
					c-0.533,0.566-0.783,1.25-0.75,2.05c0.033,0.767,0.35,1.4,0.95,1.9c0.399,0.4,0.899,0.65,1.5,0.75c0.566,0.067,1.1,0,1.6-0.2
					c-0.566,0.4-1.2,0.583-1.899,0.55c-0.7-0.033-1.317-0.267-1.851-0.7c-0.6-0.533-0.916-1.183-0.95-1.95
					C28.066,13.583,28.316,12.917,28.85,12.35z"/>
				<path style="fill-rule:evenodd;clip-rule:evenodd;fill:#584E1D;" d="M32.7,15.1c-0.334,0.333-0.733,0.517-1.2,0.55
					c-0.434,0-0.833-0.133-1.2-0.4c-0.333-0.3-0.517-0.683-0.55-1.15c-0.033-0.434,0.116-0.817,0.45-1.15
					c0.3-0.333,0.684-0.5,1.149-0.5c0.467-0.034,0.867,0.1,1.2,0.4c0.334,0.3,0.517,0.667,0.55,1.1
					C33.134,14.383,33,14.767,32.7,15.1z"/>
				<path style="fill-rule:evenodd;clip-rule:evenodd;fill:#222700;" d="M21.25,21L20.9,54.5c-0.034,0.4-0.184,0.733-0.45,1
					c-0.3,0.267-0.667,0.4-1.101,0.4c-0.433,0-0.783-0.134-1.05-0.4c-0.3-0.3-0.45-0.65-0.45-1.05l0.4-33.5
					c0.033-0.4,0.2-0.733,0.5-1c0.3-0.3,0.65-0.434,1.05-0.4c0.4,0,0.75,0.15,1.05,0.45C21.15,20.267,21.283,20.6,21.25,21z"/>
				<g>
					<path style="fill-rule:evenodd;clip-rule:evenodd;fill:#4C552A;" d="M18.2,28.2l2.8-0.35c2.233,0,4.366,0.516,6.4,1.55
						c2.3,1.199,2.949,2.633,1.949,4.3c-1.033,1.7-2.449,2.066-4.25,1.1c-2.1-1.133-3.883-2.566-5.35-4.3L18.2,28.2z"/>
					<path style="fill-rule:evenodd;clip-rule:evenodd;fill:#77804F;" d="M20.75,28.4l1.95-0.25c1.6,0,3.1,0.366,4.5,1.1
						c1.6,0.833,2.05,1.85,1.35,3.05c-0.7,1.167-1.684,1.417-2.95,0.75c-1.466-0.8-2.716-1.816-3.75-3.05L20.75,28.4z"/>
				</g>
				<g>
					<path style="fill-rule:evenodd;clip-rule:evenodd;fill:#4C552A;" d="M20.35,28.25c-0.333,0.634-0.866,1.384-1.6,2.25
						c-1.5,1.7-3.317,3.083-5.45,4.15c-1.833,0.899-3.233,0.483-4.2-1.25c-0.967-1.7-0.283-3.117,2.05-4.25
						c2.033-0.967,4.184-1.417,6.45-1.351C18.733,27.867,19.65,28.017,20.35,28.25z"/>
					<path style="fill-rule:evenodd;clip-rule:evenodd;fill:#77804F;" d="M17.7,28.45l-1.15,1.6c-1.066,1.2-2.35,2.167-3.85,2.9
						c-1.267,0.633-2.233,0.35-2.9-0.851c-0.7-1.199-0.233-2.199,1.4-3c1.433-0.699,2.95-1.017,4.55-0.949
						C16.55,28.184,17.2,28.283,17.7,28.45z"/>
				</g>
				<g>
					<path style="fill-rule:evenodd;clip-rule:evenodd;fill:#4C552A;" d="M20.15,25.2l1.35,2.4c0.866,2.1,1.3,4.3,1.3,6.6
						c0,1.967-1.017,2.967-3.05,3c-2.033,0-3.033-1.25-3-3.75c0.033-2.2,0.617-4.233,1.75-6.1L20.15,25.2z"/>
					<path style="fill-rule:evenodd;clip-rule:evenodd;fill:#77804F;" d="M19.9,27.15l0.949,1.7c0.634,1.434,0.95,2.967,0.95,4.601
						c0,1.399-0.717,2.1-2.149,2.1c-1.434,0-2.134-0.883-2.101-2.649c0.034-1.534,0.434-2.95,1.2-4.25L19.9,27.15z"/>
					
						<radialGradient id="SVGID_2_" cx="30.0645" cy="-15.6084" r="3.0776" gradientTransform="matrix(0.13 0.9915 2.4828 -0.0569 54.4476 -1.2475)" gradientUnits="userSpaceOnUse">
						<stop  offset="0" style="stop-color:#000000;stop-opacity:0.6471"/>
						<stop  offset="0.9569" style="stop-color:#000000;stop-opacity:0"/>
					</radialGradient>
					<path style="fill-rule:evenodd;clip-rule:evenodd;fill:url(#SVGID_2_);" d="M20,32.5c-2.133,0.066-3.983-0.184-5.55-0.75
						c-1.6-0.566-2.45-1.283-2.55-2.15c-0.133-0.833,0.517-1.566,1.95-2.2c1.433-0.633,3.217-0.983,5.35-1.05
						c2.133-0.033,3.983,0.233,5.55,0.8c1.6,0.567,2.45,1.267,2.55,2.1c0.134,0.833-0.517,1.583-1.95,2.25
						C23.917,32.134,22.134,32.467,20,32.5z"/>
				</g>
				
					<linearGradient id="SVGID_3_" gradientUnits="userSpaceOnUse" x1="-31.645" y1="18.0205" x2="-14.3052" y2="18.0205" gradientTransform="matrix(-0.0678 -0.9977 0.9977 -0.0678 -7.359684e-005 7.853508e-004)">
					<stop  offset="0" style="stop-color:#222A02"/>
					<stop  offset="0.1294" style="stop-color:#2C3701"/>
					<stop  offset="0.3647" style="stop-color:#495B00"/>
					<stop  offset="0.5333" style="stop-color:#607800"/>
					<stop  offset="0.9412" style="stop-color:#3F5000"/>
					<stop  offset="1" style="stop-color:#3B4A00"/>
				</linearGradient>
				<path style="fill-rule:evenodd;clip-rule:evenodd;fill:url(#SVGID_3_);" d="M19.6,13.15c2.9,0.067,5.384,0.85,7.45,2.35
					c2.066,1.533,3.15,3.367,3.25,5.5c-3.2,1.267-6.816,1.85-10.85,1.75c-4.067-0.033-7.667-0.733-10.8-2.1
					c0.167-2.133,1.317-3.917,3.45-5.35C14.2,13.833,16.7,13.117,19.6,13.15z"/>
				
					<use xlink:href="#FlashAICB_x2F_underground_x5F_plant2_x2F__x3C_Path_x3E__x5F_18"  width="21.651" height="8.704" x="-0.001" y="-8.704" transform="matrix(1 0 0 -1 8.6499 20.1001)" style="overflow:visible;opacity:0.5;enable-background:new    ;"/>
				
					<linearGradient id="SVGID_4_" gradientUnits="userSpaceOnUse" x1="-31.6416" y1="17.9922" x2="-14.3017" y2="17.9922" gradientTransform="matrix(-0.0678 -0.9977 0.9977 -0.0678 -7.359684e-005 7.853508e-004)">
					<stop  offset="0" style="stop-color:#222A02"/>
					<stop  offset="0.1765" style="stop-color:#2C3701"/>
					<stop  offset="0.5059" style="stop-color:#475B00"/>
					<stop  offset="0.5333" style="stop-color:#4A5F00"/>
					<stop  offset="1" style="stop-color:#3B4A00"/>
				</linearGradient>
				<path style="fill-rule:evenodd;clip-rule:evenodd;fill:url(#SVGID_4_);" d="M8.65,20.65c3.133,1.367,6.733,2.067,10.8,2.1
					c4.033,0.1,7.649-0.483,10.85-1.75v0.4c-0.033,2.233-1.116,4.133-3.25,5.7c-2.133,1.534-4.7,2.284-7.7,2.25
					c-3-0.033-5.55-0.866-7.649-2.5c-2.067-1.6-3.083-3.517-3.05-5.75V20.65z"/>
				<path style="fill-rule:evenodd;clip-rule:evenodd;fill:#222700;" d="M26.55,10.6l-1.6,4.25c-0.134,0.367-0.384,0.633-0.75,0.8
					c-0.367,0.167-0.75,0.184-1.15,0.05c-0.399-0.133-0.684-0.383-0.85-0.75c-0.167-0.367-0.184-0.733-0.05-1.1l1.55-4.2
					c0.166-0.367,0.434-0.633,0.8-0.8c0.366-0.2,0.75-0.233,1.15-0.1c0.399,0.167,0.683,0.417,0.85,0.75
					C26.667,9.867,26.684,10.233,26.55,10.6z"/>
				<path style="fill-rule:evenodd;clip-rule:evenodd;fill:#887E53;" d="M29.6,9.8c-0.399,1.067-1.116,1.833-2.149,2.3
					c-1.066,0.467-2.15,0.517-3.25,0.15c-1.101-0.367-1.9-1.067-2.4-2.1c-0.5-1-0.566-2.033-0.2-3.1c0.4-1.033,1.134-1.8,2.2-2.3
					c1.066-0.467,2.15-0.517,3.25-0.15c1.101,0.367,1.9,1.066,2.4,2.1C29.95,7.733,30,8.767,29.6,9.8z"/>
				<path style="fill-rule:evenodd;clip-rule:evenodd;fill:#887E53;" d="M29.6,9.8c-0.399,1.067-1.116,1.833-2.149,2.3
					c-1.066,0.467-2.15,0.517-3.25,0.15c-1.101-0.367-1.9-1.067-2.4-2.1c-0.5-1-0.566-2.033-0.2-3.1c0.4-1.033,1.134-1.8,2.2-2.3
					c1.066-0.467,2.15-0.517,3.25-0.15c1.101,0.367,1.9,1.066,2.4,2.1C29.95,7.733,30,8.767,29.6,9.8z"/>
				<path style="fill-rule:evenodd;clip-rule:evenodd;fill:#706844;" d="M29.55,6.95c0.4,1,0.417,1.95,0.05,2.85
					c-0.399,1.067-1.116,1.833-2.149,2.3c-1.066,0.467-2.15,0.517-3.25,0.15c-0.867-0.3-1.55-0.8-2.05-1.5s-0.75-1.467-0.75-2.3
					c0.433,1.133,1.267,1.9,2.5,2.3c1.1,0.367,2.183,0.317,3.25-0.15c1.033-0.467,1.75-1.233,2.149-2.3
					C29.467,7.933,29.55,7.483,29.55,6.95z"/>
				<path style="fill-rule:evenodd;clip-rule:evenodd;fill:#584E1D;" d="M28.05,7.55c-0.233,0.6-0.649,1.034-1.25,1.3
					c-0.6,0.3-1.217,0.333-1.85,0.1c-0.634-0.233-1.101-0.633-1.4-1.2s-0.333-1.167-0.1-1.8c0.233-0.6,0.649-1.034,1.25-1.3
					c0.6-0.267,1.217-0.3,1.85-0.1c0.634,0.233,1.101,0.633,1.4,1.2C28.25,6.35,28.283,6.95,28.05,7.55z"/>
				<path style="fill-rule:evenodd;clip-rule:evenodd;fill:#222700;" d="M18.5,3.85L20.05,14c0.033,0.333-0.05,0.617-0.25,0.85
					s-0.45,0.367-0.75,0.4c-0.333,0.067-0.617,0-0.85-0.2c-0.267-0.2-0.417-0.466-0.45-0.8L16.15,4.1
					c-0.033-0.3,0.05-0.567,0.25-0.8c0.2-0.233,0.467-0.383,0.8-0.45c0.333-0.033,0.617,0.05,0.85,0.25
					C18.317,3.3,18.467,3.55,18.5,3.85z"/>
				<path style="fill-rule:evenodd;clip-rule:evenodd;fill:#887E53;" d="M20.25,2.85c0.1,0.867-0.15,1.65-0.75,2.35
					c-0.567,0.667-1.317,1.05-2.25,1.15c-0.9,0.1-1.7-0.133-2.4-0.7C14.117,5.083,13.7,4.367,13.6,3.5s0.15-1.65,0.75-2.35
					c0.566-0.667,1.3-1.05,2.2-1.15C17.483-0.1,18.3,0.133,19,0.7C19.733,1.267,20.15,1.983,20.25,2.85z"/>
				<path style="fill-rule:evenodd;clip-rule:evenodd;fill:#706844;" d="M19.5,1.75l-0.25-0.8c0.566,0.5,0.9,1.133,1,1.9
					c0.1,0.867-0.15,1.65-0.75,2.35c-0.567,0.667-1.317,1.05-2.25,1.15c-0.733,0.066-1.433-0.1-2.1-0.5
					c-0.633-0.367-1.083-0.883-1.35-1.55c0.8,0.733,1.7,1.05,2.7,0.95c0.933-0.1,1.683-0.483,2.25-1.15
					C19.316,3.4,19.566,2.617,19.5,1.75z"/>
				<path style="fill-rule:evenodd;clip-rule:evenodd;fill:#584E1D;" d="M17.85,1.85c0.066,0.5-0.067,0.95-0.4,1.35
					c-0.333,0.4-0.767,0.617-1.3,0.65c-0.533,0.066-1-0.067-1.4-0.4c-0.4-0.3-0.633-0.7-0.7-1.2c-0.033-0.5,0.1-0.95,0.4-1.35
					c0.333-0.367,0.767-0.583,1.3-0.65c0.533-0.033,1,0.1,1.4,0.4C17.583,0.95,17.817,1.35,17.85,1.85z"/>
				<path style="fill-rule:evenodd;clip-rule:evenodd;fill:#222700;" d="M14.6,11.65l1,2.35c0.066,0.2,0.066,0.4,0,0.6
					c-0.1,0.233-0.267,0.383-0.5,0.45c-0.233,0.1-0.45,0.1-0.65,0c-0.233-0.1-0.383-0.25-0.45-0.45l-1-2.35
					c-0.167-0.533,0-0.883,0.5-1.05c0.2-0.1,0.417-0.1,0.65,0C14.35,11.267,14.5,11.417,14.6,11.65z"/>
				<path style="fill-rule:evenodd;clip-rule:evenodd;fill:#887E53;" d="M15.6,10.6c0.267,0.566,0.267,1.15,0,1.75
					s-0.717,1.017-1.35,1.25S13,13.817,12.4,13.55c-0.6-0.267-1.033-0.683-1.3-1.25c-0.233-0.6-0.217-1.2,0.05-1.8
					c0.267-0.567,0.7-0.967,1.3-1.2c0.633-0.233,1.25-0.233,1.85,0C14.9,9.567,15.333,10,15.6,10.6z"/>
				<path style="fill-rule:evenodd;clip-rule:evenodd;fill:#706844;" d="M15.6,10.6c0.267,0.566,0.267,1.15,0,1.75
					s-0.717,1.017-1.35,1.25c-0.567,0.2-1.133,0.2-1.7,0c-0.566-0.2-1-0.55-1.3-1.05c0.767,0.6,1.583,0.717,2.45,0.35
					c0.6-0.233,1.033-0.633,1.3-1.2c0.267-0.6,0.267-1.2,0-1.8l-0.1-0.25C15.233,9.917,15.467,10.233,15.6,10.6z"/>
				<path style="fill-rule:evenodd;clip-rule:evenodd;fill:#584E1D;" d="M14.05,10.25c0.133,0.333,0.133,0.683,0,1.05
					c-0.133,0.3-0.383,0.534-0.75,0.7c-0.367,0.133-0.716,0.133-1.05,0c-0.367-0.167-0.617-0.417-0.75-0.75s-0.133-0.667,0-1
					s0.383-0.567,0.75-0.7c0.333-0.133,0.683-0.133,1.05,0S13.917,9.917,14.05,10.25z"/>
				<path style="fill-rule:evenodd;clip-rule:evenodd;fill:#222700;" d="M10.35,19.4c0.2,0.1,0.333,0.25,0.4,0.45
					c0.067,0.233,0.033,0.433-0.1,0.6c-0.1,0.2-0.25,0.333-0.45,0.4c-0.233,0.033-0.45,0-0.65-0.1l-6.1-3
					c-0.467-0.3-0.567-0.667-0.3-1.1c0.333-0.433,0.717-0.517,1.15-0.25L10.35,19.4z"/>
				<path style="fill-rule:evenodd;clip-rule:evenodd;fill:#887E53;" d="M3.5,14.45c0.567,0.3,0.933,0.75,1.1,1.35
					c0.167,0.6,0.083,1.167-0.25,1.7c-0.3,0.533-0.767,0.867-1.4,1c-0.6,0.167-1.184,0.1-1.75-0.2c-0.567-0.3-0.934-0.75-1.1-1.35
					c-0.167-0.6-0.083-1.167,0.25-1.7c0.333-0.533,0.8-0.867,1.4-1C2.383,14.083,2.967,14.15,3.5,14.45z"/>
				<path style="fill-rule:evenodd;clip-rule:evenodd;fill:#706844;" d="M3.5,14.45c0.567,0.3,0.933,0.75,1.1,1.35
					c0.167,0.6,0.083,1.167-0.25,1.7c-0.367,0.667-0.967,1.033-1.8,1.1c0.434-0.2,0.733-0.483,0.9-0.85
					c0.333-0.533,0.417-1.083,0.25-1.65c-0.167-0.6-0.534-1.067-1.1-1.4c-0.434-0.233-0.883-0.317-1.35-0.25
					C2.017,14.017,2.767,14.017,3.5,14.45z"/>
				<path style="fill-rule:evenodd;clip-rule:evenodd;fill:#584E1D;" d="M2.15,15.25c0.333,0.167,0.55,0.433,0.65,0.8
					C2.867,16.383,2.817,16.7,2.65,17c-0.2,0.3-0.483,0.5-0.85,0.6c-0.333,0.066-0.667,0.017-1-0.15c-0.3-0.167-0.5-0.434-0.6-0.8
					C0.1,16.317,0.15,16,0.35,15.7c0.167-0.3,0.433-0.5,0.8-0.6C1.483,15.033,1.817,15.083,2.15,15.25z"/>
			</g>
		</g>
	</g>
	
		<use xlink:href="#FlashAICB_x2F_underground_x5F_plant2_x2F__x3C_Path_x3E_"  width="20.55" height="14.101" y="-14.101" transform="matrix(1 0 0 -1 9.75 15.25)" style="overflow:visible;opacity:0.3008;enable-background:new    ;"/>
</g>
</svg>
