<?xml version="1.0" encoding="iso-8859-1"?>
<!-- Generator: Adobe Illustrator 15.1.0, SVG Export Plug-In . SVG Version: 6.00 Build 0)  -->
<!DOCTYPE svg PUBLIC "-//W3C//DTD SVG 1.1//EN" "http://www.w3.org/Graphics/SVG/1.1/DTD/svg11.dtd">
<svg version="1.1" id="underground_x5F_bogwillow" xmlns="http://www.w3.org/2000/svg" xmlns:xlink="http://www.w3.org/1999/xlink"
	 x="0px" y="0px" width="50.75px" height="104.7px" viewBox="0 0 50.75 104.7" style="enable-background:new 0 0 50.75 104.7;"
	 xml:space="preserve">
<symbol  id="FlashAICB_x2F_underground_x5F_bogwillow_x2F__x3C_Group_x3E_" viewBox="-0.02 -9.016 7.291 9.016">
	<g id="Layer_1_38_">
		<g>
			<g>
				<polygon style="fill-rule:evenodd;clip-rule:evenodd;fill:#879865;" points="3.3,-5.8 3.85,-4.7 4.2,-6.85 				"/>
				<path style="fill-rule:evenodd;clip-rule:evenodd;fill:#8BB526;" d="M3.85-4.7c0.8,1.667,1.417,2.883,1.85,3.65
					c0.933-0.867,1.45-1.967,1.55-3.3C7.317-5.217,7.2-6.017,6.9-6.75C6.6-7.483,6.15-8.033,5.55-8.4L4.2-6.85L3.85-4.7z"/>
				<path style="fill-rule:evenodd;clip-rule:evenodd;fill:#ABBF80;" d="M3-0.05L3.4,0c0.9-0.067,1.667-0.417,2.3-1.05
					C5.267-1.817,4.65-3.033,3.85-4.7L3-0.05z"/>
				<path style="fill-rule:evenodd;clip-rule:evenodd;fill:#758A46;" d="M3.3-5.8L0.4-2.3C0.9-0.967,1.767-0.217,3-0.05L3.85-4.7
					L3.3-5.8z"/>
				<path style="fill-rule:evenodd;clip-rule:evenodd;fill:#A0B378;" d="M2.05-8.2C0.917-7.333,0.267-6.1,0.1-4.5
					C0.067-3.7,0.167-2.967,0.4-2.3l2.9-3.5L2.05-8.2z"/>
				<path style="fill-rule:evenodd;clip-rule:evenodd;fill:#B0C584;" d="M4.5-8.85l-0.3,2L5.55-8.4C5.25-8.6,4.9-8.75,4.5-8.85z"/>
				<path style="fill-rule:evenodd;clip-rule:evenodd;fill:#8C9D69;" d="M4.15-8.9c-0.667-0.033-1.367,0.2-2.1,0.7L3.3-5.8l0.9-1.05
					l0.3-2L4.15-8.9z"/>
			</g>
			
				<use xlink:href="#FlashAICB_x2F_underground_x5F_bogwillow_x2F__x3C_Path_x3E_"  width="7.291" height="8.981" x="-0.02" y="-8.967" transform="matrix(1 0 0 1 0 -0.0498)" style="overflow:visible;opacity:0.3008;enable-background:new    ;"/>
		</g>
	</g>
</symbol>
<symbol  id="FlashAICB_x2F_underground_x5F_bogwillow_x2F__x3C_Group_x3E__x5F_0" viewBox="-0.009 -8.407 7.534 8.397">
	<g id="Layer_1_39_">
		<g>
			<g>
				<polygon style="fill-rule:evenodd;clip-rule:evenodd;fill:#879865;" points="3.6,-5.55 4,-4.45 4.6,-6.3 				"/>
				<path style="fill-rule:evenodd;clip-rule:evenodd;fill:#8BB526;" d="M4-4.45L5.2-0.5c1.066-0.633,1.783-1.567,2.15-2.8
					c0.233-0.8,0.233-1.567,0-2.3C7.15-6.333,6.767-6.933,6.2-7.4L4.6-6.3L4-4.45z"/>
				<path style="fill-rule:evenodd;clip-rule:evenodd;fill:#ABBF80;" d="M2.35-0.2l0.4,0.1c0.8,0.2,1.617,0.067,2.45-0.4L4-4.45
					C3.433-2.85,2.883-1.433,2.35-0.2z"/>
				<path style="fill-rule:evenodd;clip-rule:evenodd;fill:#758A46;" d="M3.6-5.55L0.15-3c0.333,1.433,1.067,2.367,2.2,2.8
					C2.883-1.433,3.433-2.85,4-4.45L3.6-5.55z"/>
				<path style="fill-rule:evenodd;clip-rule:evenodd;fill:#A0B378;" d="M2.6-8C1.4-7.467,0.617-6.5,0.25-5.1
					C0.083-4.433,0.05-3.733,0.15-3L3.6-5.55L2.6-8z"/>
				<path style="fill-rule:evenodd;clip-rule:evenodd;fill:#B0C584;" d="M5.15-8.05L4.6-6.3l1.6-1.1
					C5.933-7.667,5.583-7.883,5.15-8.05z"/>
				<path style="fill-rule:evenodd;clip-rule:evenodd;fill:#8C9D69;" d="M4.85-8.15C4.05-8.35,3.3-8.3,2.6-8l1,2.45l1-0.75
					l0.55-1.75L4.85-8.15z"/>
			</g>
			
				<use xlink:href="#FlashAICB_x2F_underground_x5F_bogwillow_x2F__x3C_Path_x3E__x5F_3"  width="7.518" height="8.357" x="-0.009" y="-8.357" transform="matrix(1 0 0 1 0 -0.0498)" style="overflow:visible;opacity:0.3008;enable-background:new    ;"/>
		</g>
	</g>
</symbol>
<symbol  id="FlashAICB_x2F_underground_x5F_bogwillow_x2F__x3C_Group_x3E__x5F_1" viewBox="-0.009 -7.15 8.006 7.15">
	<g id="Layer_1_40_">
		<g>
			<g>
				<polygon style="fill-rule:evenodd;clip-rule:evenodd;fill:#879865;" points="2.85,-4.2 4,-3.85 2.95,-5.3 				"/>
				<path style="fill-rule:evenodd;clip-rule:evenodd;fill:#8BB526;" d="M4-3.85L7.85-2.6c0.333-1.033,0.1-2.017-0.7-2.95
					c-0.5-0.6-1.133-1.034-1.9-1.3c-0.7-0.233-1.433-0.3-2.2-0.2L2.95-5.3L4-3.85z"/>
				<path style="fill-rule:evenodd;clip-rule:evenodd;fill:#ABBF80;" d="M5.95-0.45l0.4-0.2c0.8-0.533,1.3-1.184,1.5-1.95L4-3.85
					C4.733-2.783,5.383-1.65,5.95-0.45z"/>
				<path style="fill-rule:evenodd;clip-rule:evenodd;fill:#758A46;" d="M2.85-4.2c-0.1,1.367-0.267,2.633-0.5,3.8
					c1.2,0.533,2.4,0.517,3.6-0.05C5.383-1.65,4.733-2.783,4-3.85L2.85-4.2z"/>
				<path style="fill-rule:evenodd;clip-rule:evenodd;fill:#A0B378;" d="M0.35-4.8C-0.083-3.7,0.1-2.633,0.9-1.6
					c0.333,0.467,0.817,0.867,1.45,1.2c0.233-1.167,0.4-2.434,0.5-3.8C2.083-4.433,1.25-4.633,0.35-4.8z"/>
				<path style="fill-rule:evenodd;clip-rule:evenodd;fill:#B0C584;" d="M1.9-6.65L2.95-5.3l0.1-1.75
					C2.517-6.917,2.133-6.783,1.9-6.65z"/>
				<path style="fill-rule:evenodd;clip-rule:evenodd;fill:#8C9D69;" d="M1.6-6.45C1-6.083,0.583-5.533,0.35-4.8
					c0.9,0.167,1.733,0.367,2.5,0.6l0.1-1.1L1.9-6.65L1.6-6.45z"/>
			</g>
			
				<use xlink:href="#FlashAICB_x2F_underground_x5F_bogwillow_x2F__x3C_Path_x3E__x5F_4"  width="7.926" height="7.15" x="-0.009" y="-7.15" style="overflow:visible;opacity:0.3008;enable-background:new    ;"/>
		</g>
	</g>
</symbol>
<symbol  id="FlashAICB_x2F_underground_x5F_bogwillow_x2F__x3C_Group_x3E__x5F_10" viewBox="-0.019 -6.871 8.054 6.871">
	<g id="Layer_1_49_">
		<g>
			<g>
				<polygon style="fill-rule:evenodd;clip-rule:evenodd;fill:#555A4C;" points="3.2,-4.1 4.1,-3.7 3.75,-5.15 				"/>
				<path style="fill-rule:evenodd;clip-rule:evenodd;fill:#647640;" d="M4.1-3.7l3.2,1.35c0.7-0.967,0.9-1.9,0.6-2.8
					C7.433-6.35,6.35-6.9,4.65-6.8l-0.9,1.65L4.1-3.7z"/>
				<path style="fill-rule:evenodd;clip-rule:evenodd;fill:#7A806D;" d="M4.7-0.4l0.45-0.2C6.017-1.033,6.733-1.617,7.3-2.35
					L4.1-3.7C4.367-2.6,4.567-1.5,4.7-0.4z"/>
				<path style="fill-rule:evenodd;clip-rule:evenodd;fill:#454B39;" d="M3.2-4.1L1.3-0.45C2.233,0.083,3.367,0.1,4.7-0.4
					C4.567-1.5,4.367-2.6,4.1-3.7L3.2-4.1z"/>
				<path style="fill-rule:evenodd;clip-rule:evenodd;fill:#6E7462;" d="M1-4.85c-0.867,1.133-1.1,2.2-0.7,3.2
					c0.2,0.533,0.534,0.933,1,1.2L3.2-4.1C2-4.533,1.267-4.783,1-4.85z"/>
				<path style="fill-rule:evenodd;clip-rule:evenodd;fill:#7F8671;" d="M3.35-6.55l0.4,1.4l0.9-1.65
					C4.05-6.733,3.617-6.65,3.35-6.55z"/>
				<path style="fill-rule:evenodd;clip-rule:evenodd;fill:#5A5F50;" d="M3-6.4C2.2-6.033,1.533-5.517,1-4.85
					C1.267-4.783,2-4.533,3.2-4.1l0.55-1.05l-0.4-1.4L3-6.4z"/>
			</g>
			
				<use xlink:href="#FlashAICB_x2F_underground_x5F_bogwillow_x2F__x3C_Path_x3E__x5F_13"  width="7.995" height="6.871" x="-0.019" y="-6.871" style="overflow:visible;opacity:0.3008;enable-background:new    ;"/>
		</g>
	</g>
</symbol>
<symbol  id="FlashAICB_x2F_underground_x5F_bogwillow_x2F__x3C_Group_x3E__x5F_11" viewBox="-0.003 -5.497 6.303 5.52">
	<g id="Layer_1_50_">
		<g>
			<g>
				<polygon style="fill-rule:evenodd;clip-rule:evenodd;fill:#555A4C;" points="2.3,-3.35 3.15,-2.9 2.55,-4.15 				"/>
				<path style="fill-rule:evenodd;clip-rule:evenodd;fill:#647640;" d="M3.15-2.9L6.1-1.45c0.333-0.767,0.25-1.533-0.25-2.3
					c-0.6-1.067-1.567-1.633-2.9-1.7l-0.4,1.3L3.15-2.9z"/>
				<path style="fill-rule:evenodd;clip-rule:evenodd;fill:#7A806D;" d="M4.5-0.1l0.3-0.1c0.6-0.267,1.034-0.683,1.3-1.25L3.15-2.9
					C3.25-2.7,3.7-1.767,4.5-0.1z"/>
				<path style="fill-rule:evenodd;clip-rule:evenodd;fill:#454B39;" d="M2.3-3.35L1.65-0.6C2.55,0,3.5,0.167,4.5-0.1
					C3.7-1.767,3.25-2.7,3.15-2.9L2.3-3.35z"/>
				<path style="fill-rule:evenodd;clip-rule:evenodd;fill:#6E7462;" d="M0.45-4.15c-0.5,0.8-0.467,1.633,0.1,2.5
					c0.3,0.467,0.667,0.816,1.1,1.05L2.3-3.35L0.45-4.15z"/>
				<path style="fill-rule:evenodd;clip-rule:evenodd;fill:#7F8671;" d="M1.95-5.3l0.6,1.15l0.4-1.3C2.65-5.45,2.317-5.4,1.95-5.3z"
					/>
				<path style="fill-rule:evenodd;clip-rule:evenodd;fill:#5A5F50;" d="M1.7-5.2C1.133-5,0.717-4.65,0.45-4.15l1.85,0.8l0.25-0.8
					L1.95-5.3L1.7-5.2z"/>
			</g>
			
				<use xlink:href="#FlashAICB_x2F_underground_x5F_bogwillow_x2F__x3C_Path_x3E__x5F_14"  width="6.255" height="5.494" x="-0.003" y="-5.497" style="overflow:visible;opacity:0.3008;enable-background:new    ;"/>
		</g>
	</g>
</symbol>
<symbol  id="FlashAICB_x2F_underground_x5F_bogwillow_x2F__x3C_Group_x3E__x5F_12" viewBox="-0.026 -6.76 7.691 6.78">
	<g id="Layer_1_51_">
		<g>
			<g>
				<polygon style="fill-rule:evenodd;clip-rule:evenodd;fill:#555A4C;" points="3.2,-4.45 4,-3.5 3.95,-5 				"/>
				<path style="fill-rule:evenodd;clip-rule:evenodd;fill:#647640;" d="M4-3.5l2.45,3.25c0.9-0.467,1.3-1.2,1.2-2.2
					c-0.167-1.333-1-2.483-2.5-3.45L3.95-5L4-3.5z"/>
				<path style="fill-rule:evenodd;clip-rule:evenodd;fill:#7A806D;" d="M3.7-0.25L4.15-0.1c0.934,0.2,1.7,0.15,2.3-0.15L4-3.5
					C3.933-2.033,3.833-0.95,3.7-0.25z"/>
				<path style="fill-rule:evenodd;clip-rule:evenodd;fill:#454B39;" d="M3.2-4.45l-2.5,1.9c0.767,1.133,1.767,1.9,3,2.3
					C3.833-0.95,3.933-2.033,4-3.5L3.2-4.45z"/>
				<path style="fill-rule:evenodd;clip-rule:evenodd;fill:#6E7462;" d="M1.45-6.45C0.45-6.05,0-5.3,0.1-4.2
					c0.033,0.434,0.233,0.983,0.6,1.65l2.5-1.9L1.45-6.45z"/>
				<polygon style="fill-rule:evenodd;clip-rule:evenodd;fill:#7F8671;" points="3.9,-6.45 3.95,-5 5.15,-5.9 				"/>
				<path style="fill-rule:evenodd;clip-rule:evenodd;fill:#5A5F50;" d="M3.55-6.55c-0.767-0.133-1.466-0.1-2.1,0.1l1.75,2L3.95-5
					L3.9-6.45L3.55-6.55z"/>
			</g>
			
				<use xlink:href="#FlashAICB_x2F_underground_x5F_bogwillow_x2F__x3C_Path_x3E__x5F_15"  width="7.668" height="6.769" x="-0.026" y="-6.76" style="overflow:visible;opacity:0.3008;enable-background:new    ;"/>
		</g>
	</g>
</symbol>
<symbol  id="FlashAICB_x2F_underground_x5F_bogwillow_x2F__x3C_Group_x3E__x5F_13" viewBox="-0.012 -6.809 7.628 6.822">
	<g id="Layer_1_52_">
		<g>
			<g>
				<polygon style="fill-rule:evenodd;clip-rule:evenodd;fill:#555A4C;" points="3.25,-4.45 3.95,-3.5 4,-5.05 				"/>
				<path style="fill-rule:evenodd;clip-rule:evenodd;fill:#647640;" d="M3.95-3.5l2.5,3.2C7.317-0.667,7.7-1.383,7.6-2.45
					C7.5-3.883,6.7-5.033,5.2-5.9L4-5.05L3.95-3.5z"/>
				<path style="fill-rule:evenodd;clip-rule:evenodd;fill:#7A806D;" d="M3.7-0.25L4.15-0.1c0.934,0.2,1.7,0.133,2.3-0.2l-2.5-3.2
					C3.883-2.033,3.8-0.95,3.7-0.25z"/>
				<path style="fill-rule:evenodd;clip-rule:evenodd;fill:#454B39;" d="M3.25-4.45L0.7-2.55c0.733,1.133,1.733,1.9,3,2.3
					c0.1-0.7,0.183-1.783,0.25-3.25L3.25-4.45z"/>
				<path style="fill-rule:evenodd;clip-rule:evenodd;fill:#6E7462;" d="M1.6-6.5C0.533-6.1,0.033-5.333,0.1-4.2
					c0.066,0.534,0.267,1.083,0.6,1.65l2.55-1.9L1.6-6.5z"/>
				<path style="fill-rule:evenodd;clip-rule:evenodd;fill:#7F8671;" d="M4.05-6.45L4-5.05L5.2-5.9
					C4.967-6.067,4.583-6.25,4.05-6.45z"/>
				<path style="fill-rule:evenodd;clip-rule:evenodd;fill:#5A5F50;" d="M3.7-6.55C2.933-6.75,2.233-6.733,1.6-6.5l1.65,2.05L4-5.05
					l0.05-1.4L3.7-6.55z"/>
			</g>
			
				<use xlink:href="#FlashAICB_x2F_underground_x5F_bogwillow_x2F__x3C_Path_x3E__x5F_16"  width="7.601" height="6.77" x="-0.012" y="-6.809" style="overflow:visible;opacity:0.3008;enable-background:new    ;"/>
		</g>
	</g>
</symbol>
<symbol  id="FlashAICB_x2F_underground_x5F_bogwillow_x2F__x3C_Group_x3E__x5F_14" viewBox="0.013 -7.536 6.877 7.544">
	<g id="Layer_1_53_">
		<g>
			<g>
				<path style="fill-rule:evenodd;clip-rule:evenodd;fill:#555A4C;" d="M4.2-4.9L3.7-3.8l1.5-1.05C4.967-4.883,4.633-4.9,4.2-4.9z"
					/>
				<path style="fill-rule:evenodd;clip-rule:evenodd;fill:#647640;" d="M3.7-3.8L2.05-0.05C3.017,0.15,3.967-0.167,4.9-1
					c1.267-1.1,1.9-2.367,1.9-3.8L5.2-4.85L3.7-3.8z"/>
				<path style="fill-rule:evenodd;clip-rule:evenodd;fill:#7A806D;" d="M0.2-1.6l0.15,0.35c0.4,0.7,0.967,1.1,1.7,1.2L3.7-3.8
					L0.2-1.6z"/>
				<path style="fill-rule:evenodd;clip-rule:evenodd;fill:#454B39;" d="M4.2-4.9c-1.133,0-2.284-0.05-3.45-0.15
					C0.017-3.817-0.167-2.667,0.2-1.6l3.5-2.2L4.2-4.9z"/>
				<path style="fill-rule:evenodd;clip-rule:evenodd;fill:#6E7462;" d="M5.25-7.25c-1-0.333-2.05-0.1-3.15,0.7
					c-0.5,0.367-0.95,0.867-1.35,1.5C1.917-4.95,3.067-4.9,4.2-4.9L5.25-7.25z"/>
				<path style="fill-rule:evenodd;clip-rule:evenodd;fill:#7F8671;" d="M6.65-5.85l-1.45,1L6.8-4.8C6.8-5.2,6.75-5.55,6.65-5.85z"
					/>
				<path style="fill-rule:evenodd;clip-rule:evenodd;fill:#5A5F50;" d="M6.55-6.15c-0.333-0.6-0.767-0.967-1.3-1.1L4.2-4.9
					c0.433,0,0.767,0.017,1,0.05l1.45-1L6.55-6.15z"/>
			</g>
			
				<use xlink:href="#FlashAICB_x2F_underground_x5F_bogwillow_x2F__x3C_Path_x3E__x5F_17"  width="6.877" height="7.509" x="0.013" y="-7.487" transform="matrix(1 0 0 1 0 -0.0498)" style="overflow:visible;opacity:0.3008;enable-background:new    ;"/>
		</g>
	</g>
</symbol>
<symbol  id="FlashAICB_x2F_underground_x5F_bogwillow_x2F__x3C_Group_x3E__x5F_15" viewBox="0 -7.359 7.186 7.345">
	<g id="Layer_1_54_">
		<g>
			<g>
				<polygon style="fill-rule:evenodd;clip-rule:evenodd;fill:#879865;" points="3.35,-4.95 3.8,-3.95 4.25,-5.55 				"/>
				<path style="fill-rule:evenodd;clip-rule:evenodd;fill:#8BB526;" d="M3.8-3.95c0.3,0.633,0.784,1.833,1.45,3.6
					c1.033-0.5,1.65-1.3,1.85-2.4c0.3-1.533-0.184-2.767-1.45-3.7l-1.4,0.9L3.8-3.95z"/>
				<path style="fill-rule:evenodd;clip-rule:evenodd;fill:#ABBF80;" d="M2.5-0.3c0.1,0.033,0.233,0.083,0.4,0.15
					c0.833,0.233,1.617,0.167,2.35-0.2C4.583-2.117,4.1-3.317,3.8-3.95C3.467-2.783,3.033-1.567,2.5-0.3z"/>
				<path style="fill-rule:evenodd;clip-rule:evenodd;fill:#758A46;" d="M3.35-4.95L0.25-2.9C0.65-1.633,1.4-0.767,2.5-0.3
					c0.533-1.267,0.967-2.483,1.3-3.65L3.35-4.95z"/>
				<path style="fill-rule:evenodd;clip-rule:evenodd;fill:#A0B378;" d="M2.15-7.05c-1.1,0.433-1.767,1.233-2,2.4
					C0.05-4.083,0.083-3.5,0.25-2.9l3.1-2.05L2.15-7.05z"/>
				<polygon style="fill-rule:evenodd;clip-rule:evenodd;fill:#B0C584;" points="4.55,-7 4.25,-5.55 5.65,-6.45 				"/>
				<path style="fill-rule:evenodd;clip-rule:evenodd;fill:#8C9D69;" d="M4.25-7.1c-0.733-0.2-1.433-0.183-2.1,0.05l1.2,2.1l0.9-0.6
					L4.55-7L4.25-7.1z"/>
			</g>
			
				<use xlink:href="#FlashAICB_x2F_underground_x5F_bogwillow_x2F__x3C_Path_x3E__x5F_29"  width="7.158" height="7.317" y="-7.309" transform="matrix(1 0 0 1 0 -0.0498)" style="overflow:visible;opacity:0.3008;enable-background:new    ;"/>
		</g>
	</g>
</symbol>
<symbol  id="FlashAICB_x2F_underground_x5F_bogwillow_x2F__x3C_Group_x3E__x5F_16" viewBox="-0.009 -7.159 7.175 7.146">
	<g id="Layer_1_55_">
		<g>
			<g>
				<polygon style="fill-rule:evenodd;clip-rule:evenodd;fill:#879865;" points="3.3,-4.75 3.75,-3.75 4.2,-5.35 				"/>
				<path style="fill-rule:evenodd;clip-rule:evenodd;fill:#8BB526;" d="M3.75-3.75C4.117-3.017,4.6-1.883,5.2-0.35
					c1-0.433,1.633-1.2,1.9-2.3c0.133-0.667,0.066-1.333-0.2-2c-0.267-0.633-0.7-1.167-1.3-1.6l-1.4,0.9L3.75-3.75z"/>
				<path style="fill-rule:evenodd;clip-rule:evenodd;fill:#ABBF80;" d="M2.45-0.25l0.4,0.1c0.8,0.233,1.583,0.167,2.35-0.2
					c-0.6-1.533-1.083-2.667-1.45-3.4C3.35-2.45,2.917-1.283,2.45-0.25z"/>
				<path style="fill-rule:evenodd;clip-rule:evenodd;fill:#758A46;" d="M3.3-4.75l-3.05,2c0.333,1.2,1.067,2.033,2.2,2.5
					c0.466-1.033,0.9-2.2,1.3-3.5L3.3-4.75z"/>
				<path style="fill-rule:evenodd;clip-rule:evenodd;fill:#A0B378;" d="M2.1-6.85C1-6.483,0.35-5.7,0.15-4.5
					c-0.133,0.567-0.1,1.15,0.1,1.75l3.05-2C2.967-5.517,2.567-6.217,2.1-6.85z"/>
				<path style="fill-rule:evenodd;clip-rule:evenodd;fill:#B0C584;" d="M4.55-6.85L4.2-5.35l1.4-0.9
					C5.3-6.517,4.95-6.717,4.55-6.85z"/>
				<path style="fill-rule:evenodd;clip-rule:evenodd;fill:#8C9D69;" d="M4.2-6.95c-0.733-0.2-1.434-0.167-2.1,0.1
					c0.467,0.633,0.867,1.333,1.2,2.1l0.9-0.6l0.35-1.5L4.2-6.95z"/>
			</g>
			
				<use xlink:href="#FlashAICB_x2F_underground_x5F_bogwillow_x2F__x3C_Path_x3E__x5F_30"  width="7.159" height="7.118" x="-0.009" y="-7.11" transform="matrix(1 0 0 1 0 -0.0498)" style="overflow:visible;opacity:0.3008;enable-background:new    ;"/>
		</g>
	</g>
</symbol>
<symbol  id="FlashAICB_x2F_underground_x5F_bogwillow_x2F__x3C_Group_x3E__x5F_2" viewBox="-0.009 -7.258 7.584 7.287">
	<g id="Layer_1_41_">
		<g>
			<g>
				<polygon style="fill-rule:evenodd;clip-rule:evenodd;fill:#879865;" points="3.6,-4.75 4,-3.75 4.65,-5.35 				"/>
				<path style="fill-rule:evenodd;clip-rule:evenodd;fill:#8BB526;" d="M4-3.75l1.2,3.4C6.333-0.917,7.067-1.7,7.4-2.7
					c0.233-0.7,0.233-1.383,0-2.05c-0.2-0.633-0.583-1.167-1.15-1.6l-1.6,1L4-3.75z"/>
				<path style="fill-rule:evenodd;clip-rule:evenodd;fill:#ABBF80;" d="M2.3-0.15l0.4,0.1c0.867,0.167,1.7,0.066,2.5-0.3L4-3.75
					C3.433-2.417,2.867-1.217,2.3-0.15z"/>
				<path style="fill-rule:evenodd;clip-rule:evenodd;fill:#758A46;" d="M3.6-4.75l-3.45,2.2c0.267,1.167,0.983,1.966,2.15,2.4
					C2.867-1.217,3.433-2.417,4-3.75L3.6-4.75z"/>
				<path style="fill-rule:evenodd;clip-rule:evenodd;fill:#A0B378;" d="M2.6-6.9C1.4-6.467,0.617-5.617,0.25-4.35
					c-0.167,0.533-0.2,1.133-0.1,1.8l3.45-2.2C3.333-5.45,3-6.167,2.6-6.9z"/>
				<path style="fill-rule:evenodd;clip-rule:evenodd;fill:#B0C584;" d="M5.2-6.9L4.65-5.35l1.6-1C5.883-6.583,5.533-6.767,5.2-6.9z
					"/>
				<path style="fill-rule:evenodd;clip-rule:evenodd;fill:#8C9D69;" d="M4.85-7C4.083-7.2,3.333-7.167,2.6-6.9
					c0.4,0.733,0.733,1.45,1,2.15l1.05-0.6L5.2-6.9L4.85-7z"/>
			</g>
			
				<use xlink:href="#FlashAICB_x2F_underground_x5F_bogwillow_x2F__x3C_Path_x3E__x5F_5"  width="7.568" height="7.258" x="-0.009" y="-7.258" style="overflow:visible;opacity:0.3008;enable-background:new    ;"/>
		</g>
	</g>
</symbol>
<symbol  id="FlashAICB_x2F_underground_x5F_bogwillow_x2F__x3C_Group_x3E__x5F_3" viewBox="-0.007 -4.254 4.707 4.234">
	<g id="Layer_1_42_">
		<g>
			<g>
				<polygon style="fill-rule:evenodd;clip-rule:evenodd;fill:#879865;" points="2,-2.8 2.45,-2.2 2.5,-3.15 				"/>
				<path style="fill-rule:evenodd;clip-rule:evenodd;fill:#8BB526;" d="M2.45-2.2l1.4,2C4.417-0.4,4.7-0.85,4.7-1.55
					C4.633-2.417,4.15-3.133,3.25-3.7L2.5-3.15L2.45-2.2z"/>
				<path style="fill-rule:evenodd;clip-rule:evenodd;fill:#ABBF80;" d="M2.15-0.15L2.4-0.1C2.933,0.033,3.417,0,3.85-0.2l-1.4-2
					C2.417-1.567,2.317-0.883,2.15-0.15z"/>
				<path style="fill-rule:evenodd;clip-rule:evenodd;fill:#758A46;" d="M2-2.8L0.4-1.6c0.367,0.7,0.95,1.184,1.75,1.45
					c0.167-0.733,0.267-1.417,0.3-2.05L2-2.8z"/>
				<path style="fill-rule:evenodd;clip-rule:evenodd;fill:#A0B378;" d="M1-4.05c-0.633,0.2-0.95,0.667-0.95,1.4
					C0.117-2.25,0.233-1.9,0.4-1.6L2-2.8L1-4.05z"/>
				<polygon style="fill-rule:evenodd;clip-rule:evenodd;fill:#B0C584;" points="2.5,-4.05 2.5,-3.15 3.25,-3.7 				"/>
				<path style="fill-rule:evenodd;clip-rule:evenodd;fill:#8C9D69;" d="M2.3-4.1C1.833-4.233,1.4-4.217,1-4.05L2-2.8l0.5-0.35v-0.9
					L2.3-4.1z"/>
			</g>
			
				<use xlink:href="#FlashAICB_x2F_underground_x5F_bogwillow_x2F__x3C_Path_x3E__x5F_6"  width="4.664" height="4.208" x="-0.007" y="-4.254" style="overflow:visible;opacity:0.3008;enable-background:new    ;"/>
		</g>
	</g>
</symbol>
<symbol  id="FlashAICB_x2F_underground_x5F_bogwillow_x2F__x3C_Group_x3E__x5F_4" viewBox="-0.004 -4.174 4.593 4.141">
	<g id="Layer_1_43_">
		<g>
			<g>
				<polygon style="fill-rule:evenodd;clip-rule:evenodd;fill:#879865;" points="1.55,-2.15 2.2,-2.25 1.2,-2.75 				"/>
				<path style="fill-rule:evenodd;clip-rule:evenodd;fill:#8BB526;" d="M2.2-2.25l2.25-0.3C4.183-3.15,3.7-3.617,3-3.95
					C2.033-4.317,1.25-4.233,0.65-3.7L1.2-2.75L2.2-2.25z"/>
				<path style="fill-rule:evenodd;clip-rule:evenodd;fill:#ABBF80;" d="M4.4-1l0.1-0.2c0.133-0.4,0.117-0.85-0.05-1.35L2.2-2.25
					L4.4-1z"/>
				<path style="fill-rule:evenodd;clip-rule:evenodd;fill:#758A46;" d="M1.55-2.15l1.25,2.1C3.567-0.117,4.1-0.433,4.4-1L2.2-2.25
					L1.55-2.15z"/>
				<path style="fill-rule:evenodd;clip-rule:evenodd;fill:#A0B378;" d="M0.2-1.85c0.233,0.7,0.716,1.217,1.45,1.55
					C1.983-0.133,2.367-0.05,2.8-0.05l-1.25-2.1L0.2-1.85z"/>
				<path style="fill-rule:evenodd;clip-rule:evenodd;fill:#B0C584;" d="M0.25-3.2L1.2-2.75L0.65-3.7C0.483-3.567,0.35-3.4,0.25-3.2
					z"/>
				<path style="fill-rule:evenodd;clip-rule:evenodd;fill:#8C9D69;" d="M0.15-3.05c-0.1,0.433-0.083,0.833,0.05,1.2l1.35-0.3
					L1.2-2.75L0.25-3.2L0.15-3.05z"/>
			</g>
			
				<use xlink:href="#FlashAICB_x2F_underground_x5F_bogwillow_x2F__x3C_Path_x3E__x5F_7"  width="4.568" height="4.133" x="-0.004" y="-4.167" style="overflow:visible;opacity:0.3008;enable-background:new    ;"/>
		</g>
	</g>
</symbol>
<symbol  id="FlashAICB_x2F_underground_x5F_bogwillow_x2F__x3C_Group_x3E__x5F_5" viewBox="-0.02 -4.204 4.831 4.21">
	<g id="Layer_1_44_">
		<g>
			<g>
				<polygon style="fill-rule:evenodd;clip-rule:evenodd;fill:#879865;" points="2,-2.75 2.5,-2.2 2.5,-3.1 				"/>
				<path style="fill-rule:evenodd;clip-rule:evenodd;fill:#8BB526;" d="M2.5-2.2l1.6,2.05C4.633-0.417,4.867-0.867,4.8-1.5
					C4.7-2.367,4.167-3.083,3.2-3.65L2.5-3.1V-2.2z"/>
				<path style="fill-rule:evenodd;clip-rule:evenodd;fill:#ABBF80;" d="M2.4-0.15l0.25,0.1c0.533,0.1,1.017,0.066,1.45-0.1L2.5-2.2
					L2.4-0.15z"/>
				<path style="fill-rule:evenodd;clip-rule:evenodd;fill:#758A46;" d="M2-2.75L0.5-1.6c0.433,0.7,1.067,1.184,1.9,1.45L2.5-2.2
					L2-2.75z"/>
				<path style="fill-rule:evenodd;clip-rule:evenodd;fill:#A0B378;" d="M0.9-4C0.267-3.767,0-3.3,0.1-2.6
					c0.066,0.434,0.2,0.767,0.4,1L2-2.75L0.9-4z"/>
				<polygon style="fill-rule:evenodd;clip-rule:evenodd;fill:#B0C584;" points="2.45,-4 2.5,-3.1 3.2,-3.65 				"/>
				<path style="fill-rule:evenodd;clip-rule:evenodd;fill:#8C9D69;" d="M2.2-4.05C1.667-4.15,1.233-4.133,0.9-4L2-2.75L2.5-3.1
					L2.45-4L2.2-4.05z"/>
			</g>
			
				<use xlink:href="#FlashAICB_x2F_underground_x5F_bogwillow_x2F__x3C_Path_x3E__x5F_8"  width="4.79" height="4.158" x="-0.02" y="-4.204" style="overflow:visible;opacity:0.3008;enable-background:new    ;"/>
		</g>
	</g>
</symbol>
<symbol  id="FlashAICB_x2F_underground_x5F_bogwillow_x2F__x3C_Group_x3E__x5F_6" viewBox="-0.004 -4.104 4.723 4.123">
	<g id="Layer_1_45_">
		<g>
			<g>
				<polygon style="fill-rule:evenodd;clip-rule:evenodd;fill:#879865;" points="1.7,-2.45 2.35,-2.2 1.75,-3.05 				"/>
				<path style="fill-rule:evenodd;clip-rule:evenodd;fill:#8BB526;" d="M2.35-2.2l2.3,0.95C4.817-1.883,4.683-2.467,4.25-3
					C3.683-3.767,2.9-4.117,1.9-4.05l-0.15,1L2.35-2.2z"/>
				<path style="fill-rule:evenodd;clip-rule:evenodd;fill:#ABBF80;" d="M3.6-0.15l0.25-0.1c0.433-0.267,0.7-0.6,0.8-1L2.35-2.2
					L3.6-0.15z"/>
				<path style="fill-rule:evenodd;clip-rule:evenodd;fill:#758A46;" d="M1.7-2.45L1.5-0.3c0.7,0.367,1.4,0.417,2.1,0.15L2.35-2.2
					L1.7-2.45z"/>
				<path style="fill-rule:evenodd;clip-rule:evenodd;fill:#A0B378;" d="M0.2-2.9c-0.267,0.566-0.15,1.183,0.35,1.85
					C0.783-0.783,1.1-0.533,1.5-0.3l0.2-2.15L0.2-2.9z"/>
				<polygon style="fill-rule:evenodd;clip-rule:evenodd;fill:#B0C584;" points="1.2,-3.9 1.75,-3.05 1.9,-4.05 				"/>
				<path style="fill-rule:evenodd;clip-rule:evenodd;fill:#8C9D69;" d="M1-3.8C0.6-3.567,0.333-3.267,0.2-2.9l1.5,0.45l0.05-0.6
					L1.2-3.9L1-3.8z"/>
			</g>
			
				<use xlink:href="#FlashAICB_x2F_underground_x5F_bogwillow_x2F__x3C_Path_x3E__x5F_9"  width="4.717" height="4.108" x="-0.004" y="-4.104" style="overflow:visible;opacity:0.3008;enable-background:new    ;"/>
		</g>
	</g>
</symbol>
<symbol  id="FlashAICB_x2F_underground_x5F_bogwillow_x2F__x3C_Group_x3E__x5F_7" viewBox="0.002 -7.739 7.455 7.739">
	<g id="Layer_1_46_">
		<g>
			<g>
				<polygon style="fill-rule:evenodd;clip-rule:evenodd;fill:#879865;" points="3.2,-4.95 3.9,-4.05 4.05,-5.9 				"/>
				<path style="fill-rule:evenodd;clip-rule:evenodd;fill:#8BB526;" d="M3.9-4.05L6.25-1.1c0.867-0.867,1.267-1.867,1.2-3
					C7.383-5.7,6.667-6.8,5.3-7.4L4.05-5.9L3.9-4.05z"/>
				<path style="fill-rule:evenodd;clip-rule:evenodd;fill:#ABBF80;" d="M3.55,0L4-0.05C4.9-0.15,5.65-0.5,6.25-1.1L3.9-4.05L3.55,0
					z"/>
				<path style="fill-rule:evenodd;clip-rule:evenodd;fill:#758A46;" d="M3.2-4.95L0.6-1.7C1.233-0.633,2.217-0.067,3.55,0L3.9-4.05
					L3.2-4.95z"/>
				<path style="fill-rule:evenodd;clip-rule:evenodd;fill:#A0B378;" d="M1.75-6.8C0.717-5.967,0.167-4.867,0.1-3.5
					c0,0.633,0.167,1.233,0.5,1.8l2.6-3.25L1.75-6.8z"/>
				<path style="fill-rule:evenodd;clip-rule:evenodd;fill:#B0C584;" d="M5-6.2L4.9-4.5L6.15-6C5.683-6.133,5.3-6.2,5-6.2z"/>
				<path style="fill-rule:evenodd;clip-rule:evenodd;fill:#8C9D69;" d="M4.65-6.2C3.917-6.167,3.233-5.883,2.6-5.35l1.55,1.8
					L4.9-4.5L5-6.2H4.65z"/>
			</g>
			
				<use xlink:href="#FlashAICB_x2F_underground_x5F_bogwillow_x2F__x3C_Path_x3E__x5F_10"  width="7.415" height="7.739" x="0.002" y="-7.689" transform="matrix(1 0 0 1 0 -0.0498)" style="overflow:visible;opacity:0.3008;enable-background:new    ;"/>
		</g>
	</g>
</symbol>
<symbol  id="FlashAICB_x2F_underground_x5F_bogwillow_x2F__x3C_Group_x3E__x5F_8" viewBox="0 -11.306 8.907 11.325">
	<g id="Layer_1_47_">
		<g>
			<g>
				<polygon style="fill-rule:evenodd;clip-rule:evenodd;fill:#555A4C;" points="4.25,-7.4 4.7,-5.95 5.4,-8.55 				"/>
				<path style="fill-rule:evenodd;clip-rule:evenodd;fill:#647640;" d="M6.4-0.9c1.233-1,2.017-2.333,2.35-4
					c0.233-1.133,0.2-2.15-0.1-3.05C8.383-8.917,7.933-9.667,7.3-10.2L5.4-8.55l-0.7,2.6L6.4-0.9z"/>
				<path style="fill-rule:evenodd;clip-rule:evenodd;fill:#7A806D;" d="M4.7-5.95L3-0.1L3.5,0c1.033,0.1,2-0.2,2.9-0.9L4.7-5.95z"
					/>
				<path style="fill-rule:evenodd;clip-rule:evenodd;fill:#454B39;" d="M0.3-3.5C0.667-1.667,1.567-0.533,3-0.1l1.7-5.85L4.25-7.4
					L0.3-3.5z"/>
				<path style="fill-rule:evenodd;clip-rule:evenodd;fill:#6E7462;" d="M4.25-7.4L3-10.6c-0.733,0.434-1.3,1-1.7,1.7
					C0.8-8.2,0.45-7.35,0.25-6.35C0.083-5.417,0.1-4.467,0.3-3.5L4.25-7.4z"/>
				<path style="fill-rule:evenodd;clip-rule:evenodd;fill:#7F8671;" d="M6.05-10.95L5.4-8.55l1.9-1.65
					C7-10.467,6.583-10.717,6.05-10.95z"/>
				<path style="fill-rule:evenodd;clip-rule:evenodd;fill:#5A5F50;" d="M5.65-11.05C4.817-11.25,3.933-11.1,3-10.6l1.25,3.2
					L5.4-8.55l0.65-2.4L5.65-11.05z"/>
			</g>
			
				<use xlink:href="#FlashAICB_x2F_underground_x5F_bogwillow_x2F__x3C_Path_x3E__x5F_11"  width="8.907" height="11.292" y="-11.256" transform="matrix(1 0 0 1 0 -0.0498)" style="overflow:visible;opacity:0.3008;enable-background:new    ;"/>
		</g>
	</g>
</symbol>
<symbol  id="FlashAICB_x2F_underground_x5F_bogwillow_x2F__x3C_Group_x3E__x5F_9" viewBox="0.008 -7.409 8.457 7.403">
	<g id="Layer_1_48_">
		<g>
			<g>
				<polygon style="fill-rule:evenodd;clip-rule:evenodd;fill:#555A4C;" points="3.55,-4.9 4.4,-3.85 4.4,-5.5 				"/>
				<path style="fill-rule:evenodd;clip-rule:evenodd;fill:#647640;" d="M4.4-3.85L7.2-0.3c0.933-0.5,1.35-1.3,1.25-2.4
					c-0.2-1.5-1.133-2.75-2.8-3.75L4.4-5.5V-3.85z"/>
				<path style="fill-rule:evenodd;clip-rule:evenodd;fill:#7A806D;" d="M4.2-0.3l0.5,0.15C5.633,0.083,6.467,0.033,7.2-0.3
					L4.4-3.85C4.4-2.517,4.333-1.333,4.2-0.3z"/>
				<path style="fill-rule:evenodd;clip-rule:evenodd;fill:#454B39;" d="M3.55-4.9l-2.7,2.1c0.8,1.2,1.917,2.033,3.35,2.5
					c0.133-1.034,0.2-2.217,0.2-3.55L3.55-4.9z"/>
				<path style="fill-rule:evenodd;clip-rule:evenodd;fill:#6E7462;" d="M1.65-7.1c-1.1,0.434-1.6,1.267-1.5,2.5
					c0.1,0.567,0.333,1.167,0.7,1.8l2.7-2.1L1.65-7.1z"/>
				<path style="fill-rule:evenodd;clip-rule:evenodd;fill:#7F8671;" d="M4.35-7.05L4.4-5.5l1.25-0.95
					C5.283-6.683,4.85-6.883,4.35-7.05z"/>
				<path style="fill-rule:evenodd;clip-rule:evenodd;fill:#5A5F50;" d="M3.95-7.15c-0.833-0.2-1.6-0.184-2.3,0.05l1.9,2.2L4.4-5.5
					L4.35-7.05L3.95-7.15z"/>
			</g>
			
				<use xlink:href="#FlashAICB_x2F_underground_x5F_bogwillow_x2F__x3C_Path_x3E__x5F_12"  width="8.416" height="7.367" x="0.008" y="-7.359" transform="matrix(1 0 0 1 0 -0.0498)" style="overflow:visible;opacity:0.3008;enable-background:new    ;"/>
		</g>
	</g>
</symbol>
<symbol  id="FlashAICB_x2F_underground_x5F_bogwillow_x2F__x3C_Path_x3E_" viewBox="-0.02 -8.967 7.291 8.981">
	<g id="Layer_1_2_">
		
			<radialGradient id="SVGID_1_" cx="8074.7109" cy="3381.9531" r="3.8901" gradientTransform="matrix(0.723 0.6909 0.768 -0.7776 -8431.6016 -2953.062)" gradientUnits="userSpaceOnUse">
			<stop  offset="0" style="stop-color:#473432"/>
			<stop  offset="0.2078" style="stop-color:#4A3735"/>
			<stop  offset="0.349" style="stop-color:#52403E"/>
			<stop  offset="0.4784" style="stop-color:#604F4E"/>
			<stop  offset="0.5922" style="stop-color:#746564"/>
			<stop  offset="0.702" style="stop-color:#8E8281"/>
			<stop  offset="0.8039" style="stop-color:#ADA4A4"/>
			<stop  offset="0.902" style="stop-color:#D2CECD"/>
			<stop  offset="0.9961" style="stop-color:#FCFCFC"/>
			<stop  offset="1" style="stop-color:#FFFFFF"/>
		</radialGradient>
		<path style="fill-rule:evenodd;clip-rule:evenodd;fill:url(#SVGID_1_);" d="M4.1-0.1c1.033-0.3,1.833-0.95,2.4-1.95
			c0.6-1,0.85-2.083,0.75-3.25C7.15-6.467,6.733-7.417,6-8.15C5.233-8.85,4.35-9.1,3.35-8.9c-1,0.167-1.833,0.783-2.5,1.85
			C0.183-5.95-0.1-4.8,0-3.6c0.1,1.267,0.567,2.233,1.4,2.9C2.167-0.033,3.067,0.167,4.1-0.1z"/>
	</g>
</symbol>
<symbol  id="FlashAICB_x2F_underground_x5F_bogwillow_x2F__x3C_Path_x3E__x5F_0" viewBox="-0.016 -16.27 14.156 16.238">
	<g id="Layer_1_3_">
		
			<radialGradient id="SVGID_2_" cx="640.7061" cy="-16589.4883" r="7.5684" gradientTransform="matrix(-0.0364 -0.9993 -0.9844 0.0711 -16301.0762 1812.3525)" gradientUnits="userSpaceOnUse">
			<stop  offset="0" style="stop-color:#FDF400;stop-opacity:0.6471"/>
			<stop  offset="0.9569" style="stop-color:#FDF400;stop-opacity:0"/>
		</radialGradient>
		<path style="fill-rule:evenodd;clip-rule:evenodd;fill:url(#SVGID_2_);" d="M12.5-4.3c0.833-1.267,1.35-2.583,1.55-3.95
			c0.2-1.367,0.067-2.667-0.4-3.9c-0.467-1.2-1.183-2.15-2.15-2.85c-1.133-0.8-2.283-1.217-3.45-1.25c-1.267-0.1-2.5,0.183-3.7,0.85
			c-1.167,0.7-2.117,1.633-2.85,2.8c-0.767,1.233-1.25,2.65-1.45,4.25C-0.117-6.75,0.033-5.3,0.5-4c0.533,1.333,1.25,2.333,2.15,3
			c1,0.733,2.117,1.05,3.35,0.95c1.167-0.034,2.383-0.467,3.65-1.3C10.817-2.15,11.767-3.133,12.5-4.3z"/>
	</g>
</symbol>
<symbol  id="FlashAICB_x2F_underground_x5F_bogwillow_x2F__x3C_Path_x3E__x5F_1" viewBox="-0.003 -13.873 14.898 13.895">
	<g id="Layer_1_4_">
		
			<radialGradient id="SVGID_3_" cx="648.4902" cy="-16600.4102" r="7.2738" gradientTransform="matrix(-0.0378 -0.9993 -0.9855 0.0722 -16328.1172 1840.2559)" gradientUnits="userSpaceOnUse">
			<stop  offset="0" style="stop-color:#FDF400;stop-opacity:0.6471"/>
			<stop  offset="0.9569" style="stop-color:#FDF400;stop-opacity:0"/>
		</radialGradient>
		<path style="fill-rule:evenodd;clip-rule:evenodd;fill:url(#SVGID_3_);" d="M12.3-0.7c1.067-0.6,1.784-1.383,2.15-2.35
			c0.466-0.967,0.566-2.1,0.3-3.4C14.45-7.717,13.833-8.9,12.9-10c-0.9-1.1-1.983-1.983-3.25-2.65c-1.367-0.7-2.683-1.1-3.95-1.2
			c-1.267-0.1-2.4,0.133-3.4,0.7c-0.933,0.533-1.6,1.3-2,2.3c-0.367,1-0.4,2.133-0.1,3.4C0.433-6.25,1-5.067,1.9-3.9
			c0.833,1.066,1.85,1.967,3.05,2.7c1.3,0.7,2.566,1.1,3.8,1.2C10.083,0.1,11.267-0.133,12.3-0.7z"/>
	</g>
</symbol>
<symbol  id="FlashAICB_x2F_underground_x5F_bogwillow_x2F__x3C_Path_x3E__x5F_10" viewBox="0.002 -7.689 7.415 7.739">
	<g id="Layer_1_13_">
		
			<radialGradient id="SVGID_4_" cx="8069.813" cy="3381.8057" r="3.6069" gradientTransform="matrix(0.7242 0.6896 0.7693 -0.7797 -8442.0879 -2931.813)" gradientUnits="userSpaceOnUse">
			<stop  offset="0" style="stop-color:#473432"/>
			<stop  offset="0.2078" style="stop-color:#4A3735"/>
			<stop  offset="0.349" style="stop-color:#52403E"/>
			<stop  offset="0.4784" style="stop-color:#604F4E"/>
			<stop  offset="0.5922" style="stop-color:#746564"/>
			<stop  offset="0.702" style="stop-color:#8E8281"/>
			<stop  offset="0.8039" style="stop-color:#ADA4A4"/>
			<stop  offset="0.902" style="stop-color:#D2CECD"/>
			<stop  offset="0.9961" style="stop-color:#FCFCFC"/>
			<stop  offset="1" style="stop-color:#FFFFFF"/>
		</radialGradient>
		<path style="fill-rule:evenodd;clip-rule:evenodd;fill:url(#SVGID_4_);" d="M4.7-0.15c1-0.3,1.75-0.934,2.25-1.9
			C7.417-2.95,7.533-3.9,7.3-4.9C7.1-5.867,6.583-6.633,5.75-7.2C4.917-7.7,4-7.817,3-7.55C2-7.283,1.217-6.667,0.65-5.7
			c-0.6,0.934-0.783,1.934-0.55,3c0.233,1.034,0.816,1.8,1.75,2.3C2.75,0.1,3.7,0.183,4.7-0.15z"/>
	</g>
</symbol>
<symbol  id="FlashAICB_x2F_underground_x5F_bogwillow_x2F__x3C_Path_x3E__x5F_11" viewBox="0 -11.256 8.907 11.292">
	<g id="Layer_1_14_">
		
			<radialGradient id="SVGID_5_" cx="8069.4785" cy="3380.2334" r="4.839" gradientTransform="matrix(0.7237 0.6901 0.7702 -0.7806 -8439.1094 -2935.9487)" gradientUnits="userSpaceOnUse">
			<stop  offset="0" style="stop-color:#090808"/>
			<stop  offset="0.1922" style="stop-color:#0C0B0B"/>
			<stop  offset="0.3255" style="stop-color:#151414"/>
			<stop  offset="0.4431" style="stop-color:#252424"/>
			<stop  offset="0.5529" style="stop-color:#3B3A3A"/>
			<stop  offset="0.6549" style="stop-color:#575656"/>
			<stop  offset="0.749" style="stop-color:#7A7979"/>
			<stop  offset="0.8392" style="stop-color:#A3A3A3"/>
			<stop  offset="0.9255" style="stop-color:#D2D1D1"/>
			<stop  offset="1" style="stop-color:#FFFFFF"/>
		</radialGradient>
		<path style="fill-rule:evenodd;clip-rule:evenodd;fill:url(#SVGID_5_);" d="M4.35,0c1.233-0.233,2.267-0.917,3.1-2.05
			c0.867-1.133,1.35-2.467,1.45-4C8.967-7.517,8.583-8.767,7.75-9.8c-0.8-1.034-1.817-1.517-3.05-1.45
			c-1.267,0.067-2.35,0.683-3.25,1.85C0.55-8.233,0.067-6.833,0-5.2c0,1.667,0.417,2.983,1.25,3.95C2.05-0.25,3.083,0.167,4.35,0z"
			/>
	</g>
</symbol>
<symbol  id="FlashAICB_x2F_underground_x5F_bogwillow_x2F__x3C_Path_x3E__x5F_12" viewBox="0.008 -7.359 8.416 7.367">
	<g id="Layer_1_15_">
		
			<radialGradient id="SVGID_6_" cx="8050.3247" cy="3381.3232" r="3.8285" gradientTransform="matrix(0.7248 0.6889 0.7673 -0.7803 -8425.3945 -2911.1006)" gradientUnits="userSpaceOnUse">
			<stop  offset="0" style="stop-color:#090808"/>
			<stop  offset="0.1922" style="stop-color:#0C0B0B"/>
			<stop  offset="0.3255" style="stop-color:#151414"/>
			<stop  offset="0.4431" style="stop-color:#252424"/>
			<stop  offset="0.5529" style="stop-color:#3B3A3A"/>
			<stop  offset="0.6549" style="stop-color:#575656"/>
			<stop  offset="0.749" style="stop-color:#7A7979"/>
			<stop  offset="0.8392" style="stop-color:#A3A3A3"/>
			<stop  offset="0.9255" style="stop-color:#D2D1D1"/>
			<stop  offset="1" style="stop-color:#FFFFFF"/>
		</radialGradient>
		<path style="fill-rule:evenodd;clip-rule:evenodd;fill:url(#SVGID_6_);" d="M2.25-1.25C3.35-0.483,4.417-0.067,5.45,0
			c1.133,0.067,1.966-0.25,2.5-0.95c0.533-0.7,0.617-1.533,0.25-2.5c-0.3-1-0.967-1.883-2-2.65C5.167-6.867,4.1-7.283,3-7.35
			C1.867-7.417,1.033-7.1,0.5-6.4c-0.533,0.633-0.633,1.467-0.3,2.5C0.5-2.933,1.183-2.05,2.25-1.25z"/>
	</g>
</symbol>
<symbol  id="FlashAICB_x2F_underground_x5F_bogwillow_x2F__x3C_Path_x3E__x5F_13" viewBox="-0.019 -6.871 7.995 6.871">
	<g id="Layer_1_16_">
		
			<radialGradient id="SVGID_7_" cx="14875.6182" cy="1335.2109" r="3.5308" gradientTransform="matrix(0.177 0.9842 1.0798 -0.177 -4070.9736 -14407.7998)" gradientUnits="userSpaceOnUse">
			<stop  offset="0" style="stop-color:#090808"/>
			<stop  offset="0.1922" style="stop-color:#0C0B0B"/>
			<stop  offset="0.3255" style="stop-color:#151414"/>
			<stop  offset="0.4431" style="stop-color:#252424"/>
			<stop  offset="0.5529" style="stop-color:#3B3A3A"/>
			<stop  offset="0.6549" style="stop-color:#575656"/>
			<stop  offset="0.749" style="stop-color:#7A7979"/>
			<stop  offset="0.8392" style="stop-color:#A3A3A3"/>
			<stop  offset="0.9255" style="stop-color:#D2D1D1"/>
			<stop  offset="1" style="stop-color:#FFFFFF"/>
		</radialGradient>
		<path style="fill-rule:evenodd;clip-rule:evenodd;fill:url(#SVGID_7_);" d="M2.8,0c1.067-0.067,2.083-0.417,3.05-1.05
			s1.617-1.4,1.95-2.3c0.3-0.933,0.217-1.733-0.25-2.4C6.983-6.45,6.2-6.817,5.2-6.85c-1-0.1-2.034,0.167-3.1,0.8
			C1.167-5.45,0.517-4.633,0.15-3.6c-0.3,1-0.2,1.85,0.3,2.55C0.983-0.35,1.767,0,2.8,0z"/>
	</g>
</symbol>
<symbol  id="FlashAICB_x2F_underground_x5F_bogwillow_x2F__x3C_Path_x3E__x5F_14" viewBox="-0.003 -5.497 6.255 5.494">
	<g id="Layer_1_17_">
		
			<radialGradient id="SVGID_8_" cx="14902.0547" cy="1348.6729" r="2.7951" gradientTransform="matrix(0.1789 0.9839 1.0823 -0.1744 -4122.2725 -14429.207)" gradientUnits="userSpaceOnUse">
			<stop  offset="0" style="stop-color:#090808"/>
			<stop  offset="0.1922" style="stop-color:#0C0B0B"/>
			<stop  offset="0.3255" style="stop-color:#151414"/>
			<stop  offset="0.4431" style="stop-color:#252424"/>
			<stop  offset="0.5529" style="stop-color:#3B3A3A"/>
			<stop  offset="0.6549" style="stop-color:#575656"/>
			<stop  offset="0.749" style="stop-color:#7A7979"/>
			<stop  offset="0.8392" style="stop-color:#A3A3A3"/>
			<stop  offset="0.9255" style="stop-color:#D2D1D1"/>
			<stop  offset="1" style="stop-color:#FFFFFF"/>
		</radialGradient>
		<path style="fill-rule:evenodd;clip-rule:evenodd;fill:url(#SVGID_8_);" d="M3.05-0.05c0.833,0.133,1.567-0.017,2.2-0.45
			c0.633-0.4,0.967-0.983,1-1.75S6.017-3.7,5.45-4.3c-0.567-0.633-1.267-1.017-2.1-1.15C2.483-5.583,1.733-5.433,1.1-5
			C0.433-4.533,0.067-3.933,0-3.2c-0.033,0.733,0.25,1.417,0.85,2.05C1.45-0.55,2.183-0.183,3.05-0.05z"/>
	</g>
</symbol>
<symbol  id="FlashAICB_x2F_underground_x5F_bogwillow_x2F__x3C_Path_x3E__x5F_15" viewBox="-0.026 -6.76 7.668 6.769">
	<g id="Layer_1_18_">
		
			<radialGradient id="SVGID_9_" cx="8067.6265" cy="3382.5566" r="3.4909" gradientTransform="matrix(0.723 0.6908 0.7696 -0.7803 -8432.4238 -2937.2368)" gradientUnits="userSpaceOnUse">
			<stop  offset="0" style="stop-color:#090808"/>
			<stop  offset="0.1922" style="stop-color:#0C0B0B"/>
			<stop  offset="0.3255" style="stop-color:#151414"/>
			<stop  offset="0.4431" style="stop-color:#252424"/>
			<stop  offset="0.5529" style="stop-color:#3B3A3A"/>
			<stop  offset="0.6549" style="stop-color:#575656"/>
			<stop  offset="0.749" style="stop-color:#7A7979"/>
			<stop  offset="0.8392" style="stop-color:#A3A3A3"/>
			<stop  offset="0.9255" style="stop-color:#D2D1D1"/>
			<stop  offset="1" style="stop-color:#FFFFFF"/>
		</radialGradient>
		<path style="fill-rule:evenodd;clip-rule:evenodd;fill:url(#SVGID_9_);" d="M1.95-1.15C2.917-0.45,3.883-0.067,4.85,0
			c1.033,0.067,1.8-0.217,2.3-0.85C7.683-1.517,7.783-2.3,7.45-3.2C7.183-4.133,6.567-4.933,5.6-5.6C4.633-6.3,3.667-6.683,2.7-6.75
			c-1-0.067-1.767,0.217-2.3,0.85c-0.467,0.633-0.55,1.4-0.25,2.3C0.417-2.7,1.017-1.883,1.95-1.15z"/>
	</g>
</symbol>
<symbol  id="FlashAICB_x2F_underground_x5F_bogwillow_x2F__x3C_Path_x3E__x5F_16" viewBox="-0.012 -6.809 7.601 6.77">
	<g id="Layer_1_19_">
		
			<radialGradient id="SVGID_10_" cx="8067.626" cy="3382.5566" r="3.4914" gradientTransform="matrix(0.723 0.6908 0.7696 -0.7803 -8432.4238 -2937.2368)" gradientUnits="userSpaceOnUse">
			<stop  offset="0" style="stop-color:#090808"/>
			<stop  offset="0.1922" style="stop-color:#0C0B0B"/>
			<stop  offset="0.3255" style="stop-color:#151414"/>
			<stop  offset="0.4431" style="stop-color:#252424"/>
			<stop  offset="0.5529" style="stop-color:#3B3A3A"/>
			<stop  offset="0.6549" style="stop-color:#575656"/>
			<stop  offset="0.749" style="stop-color:#7A7979"/>
			<stop  offset="0.8392" style="stop-color:#A3A3A3"/>
			<stop  offset="0.9255" style="stop-color:#D2D1D1"/>
			<stop  offset="1" style="stop-color:#FFFFFF"/>
		</radialGradient>
		<path style="fill-rule:evenodd;clip-rule:evenodd;fill:url(#SVGID_10_);" d="M1.95-1.15c0.867,0.667,1.833,1.033,2.9,1.1
			c1,0.066,1.75-0.2,2.25-0.8C7.6-1.517,7.717-2.3,7.45-3.2C7.183-4.1,6.6-4.917,5.7-5.65C4.8-6.35,3.85-6.733,2.85-6.8
			c-1-0.067-1.783,0.216-2.35,0.85c-0.533,0.7-0.65,1.483-0.35,2.35C0.417-2.633,1.017-1.817,1.95-1.15z"/>
	</g>
</symbol>
<symbol  id="FlashAICB_x2F_underground_x5F_bogwillow_x2F__x3C_Path_x3E__x5F_17" viewBox="0.013 -7.487 6.877 7.509">
	<g id="Layer_1_20_">
		
			<radialGradient id="SVGID_11_" cx="-943.6533" cy="-1220.875" r="3.4083" gradientTransform="matrix(0.9902 -0.1394 -0.1357 -1.0856 772.2217 -1460.6431)" gradientUnits="userSpaceOnUse">
			<stop  offset="0" style="stop-color:#090808"/>
			<stop  offset="0.1922" style="stop-color:#0C0B0B"/>
			<stop  offset="0.3255" style="stop-color:#151414"/>
			<stop  offset="0.4431" style="stop-color:#252424"/>
			<stop  offset="0.5529" style="stop-color:#3B3A3A"/>
			<stop  offset="0.6549" style="stop-color:#575656"/>
			<stop  offset="0.749" style="stop-color:#7A7979"/>
			<stop  offset="0.8392" style="stop-color:#A3A3A3"/>
			<stop  offset="0.9255" style="stop-color:#D2D1D1"/>
			<stop  offset="1" style="stop-color:#FFFFFF"/>
		</radialGradient>
		<path style="fill-rule:evenodd;clip-rule:evenodd;fill:url(#SVGID_11_);" d="M0.05-3.25c-0.133,1.033,0.1,1.883,0.7,2.55
			c0.633,0.633,1.4,0.85,2.3,0.65c1-0.2,1.833-0.717,2.5-1.55c0.733-0.9,1.167-1.816,1.3-2.75c0.133-1-0.067-1.8-0.6-2.4
			s-1.267-0.833-2.2-0.7c-0.966,0.1-1.816,0.567-2.55,1.4C0.7-5.25,0.217-4.317,0.05-3.25z"/>
	</g>
</symbol>
<symbol  id="FlashAICB_x2F_underground_x5F_bogwillow_x2F__x3C_Path_x3E__x5F_18" viewBox="-0.002 -18.232 17.318 18.198">
	<g id="Layer_1_21_">
		
			<radialGradient id="SVGID_12_" cx="654.4917" cy="-16598.2695" r="8.9509" gradientTransform="matrix(-0.0377 -0.9993 -0.9853 0.0727 -16321.0723 1851.126)" gradientUnits="userSpaceOnUse">
			<stop  offset="0" style="stop-color:#FDF400;stop-opacity:0.6471"/>
			<stop  offset="0.9569" style="stop-color:#FDF400;stop-opacity:0"/>
		</radialGradient>
		<path style="fill-rule:evenodd;clip-rule:evenodd;fill:url(#SVGID_12_);" d="M12.4-1.15C13.8-1.917,14.933-3,15.8-4.4
			c0.967-1.434,1.467-2.95,1.5-4.55c0.1-1.533-0.283-3.033-1.15-4.5c-0.767-1.333-1.883-2.433-3.35-3.3
			c-1.367-0.867-2.883-1.35-4.55-1.45C6.717-18.333,5.3-18.05,4-17.35c-1.233,0.633-2.2,1.583-2.9,2.85
			c-0.7,1.3-1.067,2.733-1.1,4.3c-0.033,1.6,0.283,3.184,0.95,4.75c0.667,1.534,1.6,2.8,2.8,3.8c1.3,1.033,2.7,1.566,4.2,1.6
			C9.517,0.05,11-0.317,12.4-1.15z"/>
	</g>
</symbol>
<symbol  id="FlashAICB_x2F_underground_x5F_bogwillow_x2F__x3C_Path_x3E__x5F_19" viewBox="-0.044 -13.12 14.439 13.14">
	<g id="Layer_1_22_">
		
			<radialGradient id="SVGID_13_" cx="651.2739" cy="-16602.6035" r="6.8919" gradientTransform="matrix(-0.0381 -0.9993 -0.9848 0.0725 -16317.6719 1848.6465)" gradientUnits="userSpaceOnUse">
			<stop  offset="0" style="stop-color:#FDF400;stop-opacity:0.6471"/>
			<stop  offset="0.9569" style="stop-color:#FDF400;stop-opacity:0"/>
		</radialGradient>
		<path style="fill-rule:evenodd;clip-rule:evenodd;fill:url(#SVGID_13_);" d="M5.45-13.1C3.583-13.233,2.1-12.7,1-11.5
			C-0.033-10.3-0.3-8.8,0.2-7c0.333,1.2,0.95,2.317,1.85,3.35c1,1.1,2.05,1.95,3.15,2.55c1.2,0.633,2.433,1,3.7,1.1
			c1.934,0.133,3.417-0.4,4.45-1.6c1.033-1.2,1.3-2.7,0.8-4.5c-0.267-1.1-0.883-2.217-1.85-3.35c-0.9-1.066-1.933-1.9-3.1-2.5
			C7.967-12.617,6.717-13,5.45-13.1z"/>
	</g>
</symbol>
<symbol  id="FlashAICB_x2F_underground_x5F_bogwillow_x2F__x3C_Path_x3E__x5F_2" viewBox="0 -14.023 14.236 14.023">
	<g id="Layer_1_5_">
		
			<radialGradient id="SVGID_14_" cx="649.9287" cy="-16594.7832" r="7.0838" gradientTransform="matrix(-0.0371 -0.9993 -0.9852 0.0724 -16317.7637 1843.6943)" gradientUnits="userSpaceOnUse">
			<stop  offset="0" style="stop-color:#FDF400;stop-opacity:0.6471"/>
			<stop  offset="0.9569" style="stop-color:#FDF400;stop-opacity:0"/>
		</radialGradient>
		<path style="fill-rule:evenodd;clip-rule:evenodd;fill:url(#SVGID_14_);" d="M12.55-3.35c0.9-1.1,1.434-2.217,1.6-3.35
			c0.2-1.233,0.05-2.383-0.45-3.45c-0.434-1.033-1.184-1.917-2.25-2.65c-1.067-0.767-2.233-1.167-3.5-1.2
			c-1.3-0.1-2.534,0.133-3.7,0.7c-1.1,0.566-2.017,1.383-2.75,2.45c-0.767,1.067-1.25,2.267-1.45,3.6c-0.133,1.367,0,2.617,0.4,3.75
			c0.466,1.133,1.167,2,2.1,2.6c0.9,0.6,2,0.9,3.3,0.9c1.3-0.067,2.533-0.4,3.7-1C10.75-1.633,11.75-2.417,12.55-3.35z"/>
	</g>
</symbol>
<symbol  id="FlashAICB_x2F_underground_x5F_bogwillow_x2F__x3C_Path_x3E__x5F_20" viewBox="-0.03 -13.212 14.276 13.232">
	<g id="Layer_1_23_">
		
			<radialGradient id="SVGID_15_" cx="651.3301" cy="-16602.7012" r="6.8935" gradientTransform="matrix(-0.0381 -0.9993 -0.9848 0.0725 -16317.8672 1848.6602)" gradientUnits="userSpaceOnUse">
			<stop  offset="0" style="stop-color:#FDF400;stop-opacity:0.6471"/>
			<stop  offset="0.9569" style="stop-color:#FDF400;stop-opacity:0"/>
		</radialGradient>
		<path style="fill-rule:evenodd;clip-rule:evenodd;fill:url(#SVGID_15_);" d="M5.75-13.2c-1.933-0.1-3.45,0.45-4.55,1.65
			C0.067-10.35-0.283-8.833,0.15-7c0.3,1.233,0.883,2.35,1.75,3.35c0.8,1,1.85,1.85,3.15,2.55C6.283-0.467,7.533-0.1,8.8,0
			c1.9,0.133,3.367-0.4,4.4-1.6c1-1.167,1.283-2.667,0.85-4.5c-0.3-1.167-0.867-2.3-1.7-3.4c-0.867-1.067-1.85-1.917-2.95-2.55
			C8.2-12.717,6.983-13.1,5.75-13.2z"/>
	</g>
</symbol>
<symbol  id="FlashAICB_x2F_underground_x5F_bogwillow_x2F__x3C_Path_x3E__x5F_21" viewBox="0.025 -10.264 10.533 10.279">
	<g id="Layer_1_24_">
		
			<radialGradient id="SVGID_16_" cx="644.376" cy="-16606.5625" r="5.2114" gradientTransform="matrix(-0.0383 -0.9993 -0.9849 0.0719 -16325.5742 1832.6299)" gradientUnits="userSpaceOnUse">
			<stop  offset="0" style="stop-color:#FDF400;stop-opacity:0.6471"/>
			<stop  offset="0.9569" style="stop-color:#FDF400;stop-opacity:0"/>
		</radialGradient>
		<path style="fill-rule:evenodd;clip-rule:evenodd;fill:url(#SVGID_16_);" d="M4.9-10.25c-1.467-0.1-2.683,0.333-3.65,1.3
			c-0.933,0.934-1.333,2.1-1.2,3.5c0.133,1.367,0.817,2.6,2.05,3.7C3.267-0.683,4.6-0.1,6.1,0c1.433,0.1,2.583-0.317,3.45-1.25
			c0.833-0.9,1.15-2.067,0.95-3.5c-0.133-1.367-0.75-2.6-1.85-3.7C7.55-9.55,6.3-10.15,4.9-10.25z"/>
	</g>
</symbol>
<symbol  id="FlashAICB_x2F_underground_x5F_bogwillow_x2F__x3C_Path_x3E__x5F_22" viewBox="0.037 -10.314 10.429 10.329">
	<g id="Layer_1_25_">
		
			<radialGradient id="SVGID_17_" cx="644.4194" cy="-16606.6094" r="5.2163" gradientTransform="matrix(-0.0383 -0.9993 -0.9849 0.0719 -16325.666 1832.6367)" gradientUnits="userSpaceOnUse">
			<stop  offset="0" style="stop-color:#FDF400;stop-opacity:0.6471"/>
			<stop  offset="0.9569" style="stop-color:#FDF400;stop-opacity:0"/>
		</radialGradient>
		<path style="fill-rule:evenodd;clip-rule:evenodd;fill:url(#SVGID_17_);" d="M5.15-10.3c-1.433-0.1-2.667,0.316-3.7,1.25
			C0.417-8.083-0.05-6.9,0.05-5.5C0.083-4.133,0.7-2.883,1.9-1.75C3.067-0.683,4.383-0.1,5.85,0c1.4,0.1,2.566-0.317,3.5-1.25
			c0.833-0.9,1.2-2.067,1.1-3.5C10.35-6.15,9.8-7.4,8.8-8.5S6.583-10.2,5.15-10.3z"/>
	</g>
</symbol>
<symbol  id="FlashAICB_x2F_underground_x5F_bogwillow_x2F__x3C_Path_x3E__x5F_23" viewBox="-0.013 -13.18 14.386 13.192">
	<g id="Layer_1_26_">
		
			<radialGradient id="SVGID_18_" cx="651.3096" cy="-16602.6016" r="6.8989" gradientTransform="matrix(-0.0381 -0.9993 -0.9848 0.0725 -16317.668 1848.6455)" gradientUnits="userSpaceOnUse">
			<stop  offset="0" style="stop-color:#FDF400;stop-opacity:0.6471"/>
			<stop  offset="0.9569" style="stop-color:#FDF400;stop-opacity:0"/>
		</radialGradient>
		<path style="fill-rule:evenodd;clip-rule:evenodd;fill:url(#SVGID_18_);" d="M5.55-13.15c-1.9-0.167-3.383,0.367-4.45,1.6
			c-1.067,1.167-1.367,2.667-0.9,4.5c0.3,1.233,0.917,2.367,1.85,3.4c0.833,0.967,1.883,1.8,3.15,2.5C6.367-0.483,7.617-0.1,8.95,0
			c1.933,0.1,3.4-0.433,4.4-1.6c1-1.167,1.267-2.667,0.8-4.5c-0.367-1.233-0.967-2.367-1.8-3.4c-0.833-1-1.85-1.833-3.05-2.5
			C8.067-12.667,6.817-13.05,5.55-13.15z"/>
	</g>
</symbol>
<symbol  id="FlashAICB_x2F_underground_x5F_bogwillow_x2F__x3C_Path_x3E__x5F_24" viewBox="0.003 -13.48 14.651 13.45">
	<g id="Layer_1_27_">
		
			<radialGradient id="SVGID_19_" cx="649.605" cy="-16594.5586" r="7.0799" gradientTransform="matrix(-0.0371 -0.9993 -0.9852 0.0724 -16317.3203 1843.6611)" gradientUnits="userSpaceOnUse">
			<stop  offset="0" style="stop-color:#FDF400;stop-opacity:0.6471"/>
			<stop  offset="0.9569" style="stop-color:#FDF400;stop-opacity:0"/>
		</radialGradient>
		<path style="fill-rule:evenodd;clip-rule:evenodd;fill:url(#SVGID_19_);" d="M13.45-1.65c1.133-1.233,1.466-2.783,1-4.65
			c-0.3-1.2-0.917-2.35-1.85-3.45c-0.967-1.067-2.033-1.917-3.2-2.55c-1.333-0.733-2.617-1.117-3.85-1.15
			c-1.933-0.167-3.433,0.367-4.5,1.6c-1,1.233-1.283,2.767-0.85,4.6C0.533-6.05,1.15-4.9,2.05-3.8C2.817-2.767,3.833-1.9,5.1-1.2
			c1.267,0.733,2.517,1.117,3.75,1.15C10.817,0.083,12.35-0.45,13.45-1.65z"/>
	</g>
</symbol>
<symbol  id="FlashAICB_x2F_underground_x5F_bogwillow_x2F__x3C_Path_x3E__x5F_25" viewBox="-0.016 -10.964 11.602 10.938">
	<g id="Layer_1_28_">
		
			<radialGradient id="SVGID_20_" cx="650.0986" cy="-16598.1953" r="5.6844" gradientTransform="matrix(-0.0373 -0.9993 -0.9839 0.0725 -16301.3809 1847.126)" gradientUnits="userSpaceOnUse">
			<stop  offset="0" style="stop-color:#FDF400;stop-opacity:0.6471"/>
			<stop  offset="0.9569" style="stop-color:#FDF400;stop-opacity:0"/>
		</radialGradient>
		<path style="fill-rule:evenodd;clip-rule:evenodd;fill:url(#SVGID_20_);" d="M4.6-10.95c-1.567-0.1-2.783,0.333-3.65,1.3
			S-0.2-7.433,0.1-5.9c0.3,1.467,1.066,2.8,2.3,4c1.3,1.133,2.7,1.75,4.2,1.85c1.566,0.133,2.85-0.3,3.85-1.3
			c0.966-1,1.316-2.267,1.05-3.8C11.2-6.617,10.367-7.933,9-9.1C7.667-10.233,6.2-10.85,4.6-10.95z"/>
	</g>
</symbol>
<symbol  id="FlashAICB_x2F_underground_x5F_bogwillow_x2F__x3C_Path_x3E__x5F_26" viewBox="-0.02 -17.72 17.336 17.722">
	<g id="Layer_1_29_">
		
			<radialGradient id="SVGID_21_" cx="643.1865" cy="-16593.4961" r="8.7527" gradientTransform="matrix(-0.0371 -0.9993 -0.985 0.0714 -16312.6523 1818.2256)" gradientUnits="userSpaceOnUse">
			<stop  offset="0" style="stop-color:#FDF400;stop-opacity:0.6471"/>
			<stop  offset="0.9569" style="stop-color:#FDF400;stop-opacity:0"/>
		</radialGradient>
		<path style="fill-rule:evenodd;clip-rule:evenodd;fill:url(#SVGID_21_);" d="M12.2-1.05c1.466-0.767,2.633-1.767,3.5-3
			c0.966-1.333,1.5-2.784,1.6-4.35c0.1-1.567-0.25-3.067-1.05-4.5c-0.833-1.367-1.933-2.467-3.3-3.3c-1.434-0.9-2.95-1.4-4.55-1.5
			c-1.6-0.1-3.033,0.184-4.3,0.85c-1.233,0.667-2.2,1.633-2.9,2.9c-0.733,1.3-1.133,2.733-1.2,4.3C-0.1-8.083,0.183-6.533,0.85-5
			C1.517-3.5,2.433-2.317,3.6-1.45C4.767-0.583,6.15-0.1,7.75,0C9.283,0.033,10.767-0.317,12.2-1.05z"/>
	</g>
</symbol>
<symbol  id="FlashAICB_x2F_underground_x5F_bogwillow_x2F__x3C_Path_x3E__x5F_27" viewBox="-0.011 -14.56 14.62 14.532">
	<g id="Layer_1_30_">
		
			<radialGradient id="SVGID_22_" cx="648.9106" cy="-16600.5469" r="7.2677" gradientTransform="matrix(-0.0378 -0.9993 -0.9855 0.0722 -16328.3887 1840.2764)" gradientUnits="userSpaceOnUse">
			<stop  offset="0" style="stop-color:#FDF400;stop-opacity:0.6471"/>
			<stop  offset="0.9569" style="stop-color:#FDF400;stop-opacity:0"/>
		</radialGradient>
		<path style="fill-rule:evenodd;clip-rule:evenodd;fill:url(#SVGID_22_);" d="M10.85-0.8c1.2-0.567,2.117-1.367,2.75-2.4
			c0.733-1.066,1.066-2.283,1-3.65c-0.033-1.333-0.45-2.566-1.25-3.7c-0.767-1.133-1.75-2.05-2.95-2.75
			c-1.267-0.733-2.566-1.15-3.9-1.25c-1.367-0.067-2.55,0.183-3.55,0.75c-1,0.533-1.75,1.316-2.25,2.35c-0.534,1-0.767,2.2-0.7,3.6
			C0.1-6.483,0.45-5.233,1.05-4.1c0.6,1.167,1.434,2.1,2.5,2.8C4.517-0.567,5.7-0.15,7.1-0.05C8.4,0.05,9.65-0.2,10.85-0.8z"/>
	</g>
</symbol>
<symbol  id="FlashAICB_x2F_underground_x5F_bogwillow_x2F__x3C_Path_x3E__x5F_28" viewBox="-0.033 -16.558 17.102 16.556">
	<g id="Layer_1_31_">
		
			<radialGradient id="SVGID_23_" cx="643.9102" cy="-16594.5508" r="8.4054" gradientTransform="matrix(-0.0372 -0.9993 -0.9844 0.0715 -16303.418 1821.3936)" gradientUnits="userSpaceOnUse">
			<stop  offset="0" style="stop-color:#FDF400;stop-opacity:0.6471"/>
			<stop  offset="0.9569" style="stop-color:#FDF400;stop-opacity:0"/>
		</radialGradient>
		<path style="fill-rule:evenodd;clip-rule:evenodd;fill:url(#SVGID_23_);" d="M11.35-1.75c1.233-0.733,2.417-1.75,3.55-3.05
			c1-1.267,1.667-2.567,2-3.9c0.3-1.4,0.2-2.65-0.3-3.75c-0.467-1.2-1.283-2.15-2.45-2.85c-1.133-0.8-2.5-1.217-4.1-1.25
			c-1.566-0.067-3.066,0.267-4.5,1c-1.433,0.8-2.617,1.833-3.55,3.1c-0.967,1.3-1.6,2.8-1.9,4.5C-0.167-6.283-0.033-4.8,0.5-3.5
			C1-2.233,1.833-1.283,3-0.65c1.233,0.6,2.567,0.783,4,0.55C8.467-0.3,9.917-0.85,11.35-1.75z"/>
	</g>
</symbol>
<symbol  id="FlashAICB_x2F_underground_x5F_bogwillow_x2F__x3C_Path_x3E__x5F_29" viewBox="0 -7.309 7.158 7.317">
	<g id="Layer_1_32_">
		
			<radialGradient id="SVGID_24_" cx="8066.4902" cy="3382.4795" r="3.4743" gradientTransform="matrix(0.7231 0.6907 0.7663 -0.7771 -8421.3438 -2947.0493)" gradientUnits="userSpaceOnUse">
			<stop  offset="0" style="stop-color:#473432"/>
			<stop  offset="0.2078" style="stop-color:#4A3735"/>
			<stop  offset="0.349" style="stop-color:#52403E"/>
			<stop  offset="0.4784" style="stop-color:#604F4E"/>
			<stop  offset="0.5922" style="stop-color:#746564"/>
			<stop  offset="0.702" style="stop-color:#8E8281"/>
			<stop  offset="0.8039" style="stop-color:#ADA4A4"/>
			<stop  offset="0.902" style="stop-color:#D2CECD"/>
			<stop  offset="0.9961" style="stop-color:#FCFCFC"/>
			<stop  offset="1" style="stop-color:#FFFFFF"/>
		</radialGradient>
		<path style="fill-rule:evenodd;clip-rule:evenodd;fill:url(#SVGID_24_);" d="M1.05-1.25C1.783-0.483,2.633-0.067,3.6,0
			c0.933,0.067,1.783-0.267,2.55-1c0.733-0.733,1.067-1.583,1-2.55c0-1-0.367-1.85-1.1-2.55c-0.733-0.733-1.6-1.133-2.6-1.2
			c-1-0.067-1.833,0.233-2.5,0.9C0.317-5.767,0-4.95,0-3.95C0-3.017,0.35-2.117,1.05-1.25z"/>
	</g>
</symbol>
<symbol  id="FlashAICB_x2F_underground_x5F_bogwillow_x2F__x3C_Path_x3E__x5F_3" viewBox="-0.009 -8.357 7.518 8.357">
	<g id="Layer_1_6_">
		
			<radialGradient id="SVGID_25_" cx="8073.1177" cy="3381.8887" r="3.7872" gradientTransform="matrix(0.7234 0.6904 0.7697 -0.7796 -8439.6055 -2941.375)" gradientUnits="userSpaceOnUse">
			<stop  offset="0" style="stop-color:#473432"/>
			<stop  offset="0.2078" style="stop-color:#4A3735"/>
			<stop  offset="0.349" style="stop-color:#52403E"/>
			<stop  offset="0.4784" style="stop-color:#604F4E"/>
			<stop  offset="0.5922" style="stop-color:#746564"/>
			<stop  offset="0.702" style="stop-color:#8E8281"/>
			<stop  offset="0.8039" style="stop-color:#ADA4A4"/>
			<stop  offset="0.902" style="stop-color:#D2CECD"/>
			<stop  offset="0.9961" style="stop-color:#FCFCFC"/>
			<stop  offset="1" style="stop-color:#FFFFFF"/>
		</radialGradient>
		<path style="fill-rule:evenodd;clip-rule:evenodd;fill:url(#SVGID_25_);" d="M0.9-1.2C1.567-0.4,2.417,0,3.45,0
			c1.033-0.067,1.933-0.5,2.7-1.3C6.95-2.1,7.4-3.067,7.5-4.2c0.067-1.133-0.233-2.1-0.9-2.9C5.933-7.867,5.067-8.283,4-8.35
			C2.967-8.417,2.067-8.033,1.3-7.2C0.5-6.4,0.067-5.417,0-4.25S0.233-2.067,0.9-1.2z"/>
	</g>
</symbol>
<symbol  id="FlashAICB_x2F_underground_x5F_bogwillow_x2F__x3C_Path_x3E__x5F_30" viewBox="-0.009 -7.11 7.159 7.118">
	<g id="Layer_1_33_">
		
			<radialGradient id="SVGID_26_" cx="8065.7661" cy="3382.5205" r="3.4392" gradientTransform="matrix(0.7233 0.6906 0.7669 -0.7778 -8424.2598 -2942.6216)" gradientUnits="userSpaceOnUse">
			<stop  offset="0" style="stop-color:#473432"/>
			<stop  offset="0.2078" style="stop-color:#4A3735"/>
			<stop  offset="0.349" style="stop-color:#52403E"/>
			<stop  offset="0.4784" style="stop-color:#604F4E"/>
			<stop  offset="0.5922" style="stop-color:#746564"/>
			<stop  offset="0.702" style="stop-color:#8E8281"/>
			<stop  offset="0.8039" style="stop-color:#ADA4A4"/>
			<stop  offset="0.902" style="stop-color:#D2CECD"/>
			<stop  offset="0.9961" style="stop-color:#FCFCFC"/>
			<stop  offset="1" style="stop-color:#FFFFFF"/>
		</radialGradient>
		<path style="fill-rule:evenodd;clip-rule:evenodd;fill:url(#SVGID_26_);" d="M1.05-1.2C1.683-0.467,2.517-0.067,3.55,0
			C4.517,0.067,5.367-0.25,6.1-0.95C6.8-1.617,7.15-2.433,7.15-3.4c0-0.934-0.383-1.783-1.15-2.55C5.3-6.65,4.433-7.033,3.4-7.1
			c-1-0.066-1.816,0.217-2.45,0.85C0.25-5.55-0.067-4.733,0-3.8C0-2.833,0.35-1.967,1.05-1.2z"/>
	</g>
</symbol>
<symbol  id="FlashAICB_x2F_underground_x5F_bogwillow_x2F__x3C_Path_x3E__x5F_31" viewBox="-0.003 -21.108 16.406 21.115">
	<g id="Layer_1_34_">
		
			<radialGradient id="SVGID_27_" cx="647.457" cy="-16594.2168" r="9.4165" gradientTransform="matrix(-0.0372 -0.9993 -0.9847 0.0717 -16308.2617 1825.6641)" gradientUnits="userSpaceOnUse">
			<stop  offset="0" style="stop-color:#FDF400;stop-opacity:0.6471"/>
			<stop  offset="0.9569" style="stop-color:#FDF400;stop-opacity:0"/>
		</radialGradient>
		<path style="fill-rule:evenodd;clip-rule:evenodd;fill:url(#SVGID_27_);" d="M12.9-2.75c1.133-1.167,2-2.567,2.6-4.2
			c0.633-1.733,0.933-3.45,0.9-5.15c0-1.767-0.333-3.367-1-4.8c-0.667-1.4-1.583-2.467-2.75-3.2c-1.267-0.833-2.617-1.15-4.05-0.95
			c-1.133,0.1-2.233,0.5-3.3,1.2c-0.966,0.633-1.883,1.55-2.75,2.75c-0.833,1.2-1.466,2.5-1.9,3.9C0.183-11.667-0.033-10.15,0-8.65
			c0,1.967,0.433,3.733,1.3,5.3c0.867,1.434,1.967,2.4,3.3,2.9c1.333,0.534,2.783,0.6,4.35,0.2C10.483-0.717,11.8-1.55,12.9-2.75z"
			/>
	</g>
</symbol>
<symbol  id="FlashAICB_x2F_underground_x5F_bogwillow_x2F__x3C_Path_x3E__x5F_32" viewBox="-0.004 -18.362 16.523 18.354">
	<g id="Layer_1_35_">
		
			<radialGradient id="SVGID_28_" cx="643.4268" cy="-16593.8867" r="8.7486" gradientTransform="matrix(-0.0371 -0.9993 -0.985 0.0714 -16313.4258 1818.2822)" gradientUnits="userSpaceOnUse">
			<stop  offset="0" style="stop-color:#FDF400;stop-opacity:0.6471"/>
			<stop  offset="0.9569" style="stop-color:#FDF400;stop-opacity:0"/>
		</radialGradient>
		<path style="fill-rule:evenodd;clip-rule:evenodd;fill:url(#SVGID_28_);" d="M10.15-0.4c1.5-0.467,2.767-1.283,3.8-2.45
			c0.966-1.066,1.667-2.367,2.1-3.9c0.434-1.4,0.567-2.95,0.4-4.65c-0.2-1.533-0.684-2.867-1.45-4s-1.75-1.95-2.95-2.45
			c-1.267-0.533-2.633-0.65-4.1-0.35c-1.233,0.267-2.3,0.733-3.2,1.4c-1,0.7-1.883,1.583-2.65,2.65c-0.8,1.133-1.367,2.3-1.7,3.5
			c-0.367,1.333-0.483,2.633-0.35,3.9c0.133,1.633,0.733,3.067,1.8,4.3c1,1.1,2.25,1.833,3.75,2.2S8.617,0.067,10.15-0.4z"/>
	</g>
</symbol>
<symbol  id="FlashAICB_x2F_underground_x5F_bogwillow_x2F__x3C_Path_x3E__x5F_33" viewBox="-0.002 -16.54 16.405 16.567">
	<g id="Layer_1_36_">
		
			<radialGradient id="SVGID_29_" cx="644.8281" cy="-16589.6016" r="8.2115" gradientTransform="matrix(-0.0366 -0.9993 -0.9841 0.0716 -16294.002 1823.9346)" gradientUnits="userSpaceOnUse">
			<stop  offset="0" style="stop-color:#FDF400;stop-opacity:0.6471"/>
			<stop  offset="0.9569" style="stop-color:#FDF400;stop-opacity:0"/>
		</radialGradient>
		<path style="fill-rule:evenodd;clip-rule:evenodd;fill:url(#SVGID_29_);" d="M12.65-2.7c1.1-1.066,1.983-2.283,2.65-3.65
			c0.7-1.367,1.067-2.733,1.1-4.1c0.033-1.3-0.233-2.45-0.8-3.45c-0.6-0.934-1.45-1.65-2.55-2.15c-1.2-0.467-2.533-0.6-4-0.4
			c-1.5,0.233-2.95,0.817-4.35,1.75c-1.3,0.9-2.4,2.083-3.3,3.55c-0.867,1.467-1.333,3-1.4,4.6c-0.033,1.566,0.367,2.933,1.2,4.1
			c0.733,1.1,1.8,1.833,3.2,2.2c1.3,0.4,2.733,0.367,4.3-0.1C10.133-0.783,11.45-1.567,12.65-2.7z"/>
	</g>
</symbol>
<symbol  id="FlashAICB_x2F_underground_x5F_bogwillow_x2F__x3C_Path_x3E__x5F_34" viewBox="-0.024 -18.25 13.886 18.217">
	<g id="Layer_1_37_">
		
			<radialGradient id="SVGID_30_" cx="652.6572" cy="-16594.3594" r="8.1011" gradientTransform="matrix(-0.037 -0.9993 -0.9854 0.0725 -16321.5664 1845.8311)" gradientUnits="userSpaceOnUse">
			<stop  offset="0" style="stop-color:#FDF400;stop-opacity:0.6471"/>
			<stop  offset="0.9569" style="stop-color:#FDF400;stop-opacity:0"/>
		</radialGradient>
		<path style="fill-rule:evenodd;clip-rule:evenodd;fill:url(#SVGID_30_);" d="M12.5-5.3c0.733-1.534,1.167-3.017,1.3-4.45
			c0.167-1.6,0-3.017-0.5-4.25c-0.466-1.3-1.167-2.317-2.1-3.05c-1-0.8-2.133-1.2-3.4-1.2C6.433-18.183,5.217-17.767,4.15-17
			c-1.167,0.833-2.1,1.967-2.8,3.4C0.583-12.033,0.133-10.4,0-8.7C-0.1-7,0.117-5.4,0.65-3.9c0.5,1.367,1.267,2.383,2.3,3.05
			c0.966,0.7,2.1,0.95,3.4,0.75c1.267-0.2,2.433-0.783,3.5-1.75C10.883-2.75,11.767-3.9,12.5-5.3z"/>
	</g>
</symbol>
<symbol  id="FlashAICB_x2F_underground_x5F_bogwillow_x2F__x3C_Path_x3E__x5F_4" viewBox="-0.009 -7.15 7.926 7.15">
	<g id="Layer_1_7_">
		
			<radialGradient id="SVGID_31_" cx="16483.9141" cy="-33.0425" r="3.5731" gradientTransform="matrix(-0.007 1 1.0944 0.0245 155.3848 -16486.25)" gradientUnits="userSpaceOnUse">
			<stop  offset="0" style="stop-color:#473432"/>
			<stop  offset="0.2078" style="stop-color:#4A3735"/>
			<stop  offset="0.349" style="stop-color:#52403E"/>
			<stop  offset="0.4784" style="stop-color:#604F4E"/>
			<stop  offset="0.5922" style="stop-color:#746564"/>
			<stop  offset="0.702" style="stop-color:#8E8281"/>
			<stop  offset="0.8039" style="stop-color:#ADA4A4"/>
			<stop  offset="0.902" style="stop-color:#D2CECD"/>
			<stop  offset="0.9961" style="stop-color:#FCFCFC"/>
			<stop  offset="1" style="stop-color:#FFFFFF"/>
		</radialGradient>
		<path style="fill-rule:evenodd;clip-rule:evenodd;fill:url(#SVGID_31_);" d="M4.15,0C5.283-0.067,6.2-0.45,6.9-1.15
			C7.667-1.85,8-2.7,7.9-3.7C7.833-4.667,7.367-5.483,6.5-6.15c-0.833-0.667-1.817-1-2.95-1C2.483-7.117,1.6-6.75,0.9-6.05
			C0.233-5.383-0.067-4.533,0-3.5C0.1-2.567,0.533-1.733,1.3-1C2.067-0.333,3.017,0,4.15,0z"/>
	</g>
</symbol>
<symbol  id="FlashAICB_x2F_underground_x5F_bogwillow_x2F__x3C_Path_x3E__x5F_5" viewBox="-0.009 -7.258 7.568 7.258">
	<g id="Layer_1_8_">
		
			<radialGradient id="SVGID_32_" cx="8067.7803" cy="3382.5137" r="3.5099" gradientTransform="matrix(0.723 0.6909 0.7692 -0.7799 -8430.9023 -2939.4907)" gradientUnits="userSpaceOnUse">
			<stop  offset="0" style="stop-color:#473432"/>
			<stop  offset="0.2078" style="stop-color:#4A3735"/>
			<stop  offset="0.349" style="stop-color:#52403E"/>
			<stop  offset="0.4784" style="stop-color:#604F4E"/>
			<stop  offset="0.5922" style="stop-color:#746564"/>
			<stop  offset="0.702" style="stop-color:#8E8281"/>
			<stop  offset="0.8039" style="stop-color:#ADA4A4"/>
			<stop  offset="0.902" style="stop-color:#D2CECD"/>
			<stop  offset="0.9961" style="stop-color:#FCFCFC"/>
			<stop  offset="1" style="stop-color:#FFFFFF"/>
		</radialGradient>
		<path style="fill-rule:evenodd;clip-rule:evenodd;fill:url(#SVGID_32_);" d="M0.9-1.05C1.567-0.35,2.4,0,3.4,0
			c1.033,0,1.95-0.35,2.75-1.05c0.833-0.667,1.3-1.483,1.4-2.45c0.067-1.033-0.233-1.883-0.9-2.55c-0.7-0.733-1.566-1.133-2.6-1.2
			c-1-0.067-1.917,0.267-2.75,1C0.533-5.65,0.1-4.8,0-3.7C-0.067-2.633,0.233-1.75,0.9-1.05z"/>
	</g>
</symbol>
<symbol  id="FlashAICB_x2F_underground_x5F_bogwillow_x2F__x3C_Path_x3E__x5F_6" viewBox="-0.007 -4.254 4.664 4.208">
	<g id="Layer_1_9_">
		
			<radialGradient id="SVGID_33_" cx="8060.6265" cy="3383.9072" r="2.1397" gradientTransform="matrix(0.7244 0.6894 0.7712 -0.7828 -8446.4512 -2909.8047)" gradientUnits="userSpaceOnUse">
			<stop  offset="0" style="stop-color:#473432"/>
			<stop  offset="0.2078" style="stop-color:#4A3735"/>
			<stop  offset="0.349" style="stop-color:#52403E"/>
			<stop  offset="0.4784" style="stop-color:#604F4E"/>
			<stop  offset="0.5922" style="stop-color:#746564"/>
			<stop  offset="0.702" style="stop-color:#8E8281"/>
			<stop  offset="0.8039" style="stop-color:#ADA4A4"/>
			<stop  offset="0.902" style="stop-color:#D2CECD"/>
			<stop  offset="0.9961" style="stop-color:#FCFCFC"/>
			<stop  offset="1" style="stop-color:#FFFFFF"/>
		</radialGradient>
		<path style="fill-rule:evenodd;clip-rule:evenodd;fill:url(#SVGID_33_);" d="M1.1-0.75c0.533,0.433,1.117,0.667,1.75,0.7
			c0.633,0.033,1.117-0.133,1.45-0.5C4.633-0.95,4.733-1.433,4.6-2S4.117-3.083,3.55-3.55c-0.566-0.434-1.167-0.667-1.8-0.7
			C1.15-4.283,0.683-4.1,0.35-3.7c-0.333,0.367-0.434,0.85-0.3,1.45C0.217-1.683,0.567-1.183,1.1-0.75z"/>
	</g>
</symbol>
<symbol  id="FlashAICB_x2F_underground_x5F_bogwillow_x2F__x3C_Path_x3E__x5F_7" viewBox="-0.004 -4.167 4.568 4.133">
	<g id="Layer_1_10_">
		
			<radialGradient id="SVGID_34_" cx="19210.332" cy="-4623.2158" r="2.0686" gradientTransform="matrix(-0.4593 0.8883 0.9608 0.5197 13266.873 -14664.0596)" gradientUnits="userSpaceOnUse">
			<stop  offset="0" style="stop-color:#473432"/>
			<stop  offset="0.2078" style="stop-color:#4A3735"/>
			<stop  offset="0.349" style="stop-color:#52403E"/>
			<stop  offset="0.4784" style="stop-color:#604F4E"/>
			<stop  offset="0.5922" style="stop-color:#746564"/>
			<stop  offset="0.702" style="stop-color:#8E8281"/>
			<stop  offset="0.8039" style="stop-color:#ADA4A4"/>
			<stop  offset="0.902" style="stop-color:#D2CECD"/>
			<stop  offset="0.9961" style="stop-color:#FCFCFC"/>
			<stop  offset="1" style="stop-color:#FFFFFF"/>
		</radialGradient>
		<path style="fill-rule:evenodd;clip-rule:evenodd;fill:url(#SVGID_34_);" d="M3.75-0.3c0.467-0.3,0.733-0.733,0.8-1.3
			c0.067-0.533-0.1-1.05-0.5-1.55c-0.433-0.5-0.966-0.817-1.6-0.95S1.267-4.167,0.8-3.9C0.333-3.6,0.067-3.183,0-2.65
			c-0.033,0.566,0.15,1.1,0.55,1.6c0.4,0.5,0.917,0.816,1.55,0.95C2.7,0.033,3.25-0.033,3.75-0.3z"/>
	</g>
</symbol>
<symbol  id="FlashAICB_x2F_underground_x5F_bogwillow_x2F__x3C_Path_x3E__x5F_8" viewBox="-0.02 -4.204 4.79 4.158">
	<g id="Layer_1_11_">
		
			<radialGradient id="SVGID_35_" cx="8061.3789" cy="3383.9365" r="2.1573" gradientTransform="matrix(0.7243 0.6895 0.7706 -0.7822 -8444.0215 -2913.5298)" gradientUnits="userSpaceOnUse">
			<stop  offset="0" style="stop-color:#473432"/>
			<stop  offset="0.2078" style="stop-color:#4A3735"/>
			<stop  offset="0.349" style="stop-color:#52403E"/>
			<stop  offset="0.4784" style="stop-color:#604F4E"/>
			<stop  offset="0.5922" style="stop-color:#746564"/>
			<stop  offset="0.702" style="stop-color:#8E8281"/>
			<stop  offset="0.8039" style="stop-color:#ADA4A4"/>
			<stop  offset="0.902" style="stop-color:#D2CECD"/>
			<stop  offset="0.9961" style="stop-color:#FCFCFC"/>
			<stop  offset="1" style="stop-color:#FFFFFF"/>
		</radialGradient>
		<path style="fill-rule:evenodd;clip-rule:evenodd;fill:url(#SVGID_35_);" d="M1.3-0.7c0.567,0.434,1.167,0.65,1.8,0.65
			c0.633,0.033,1.1-0.133,1.4-0.5S4.85-1.4,4.65-2C4.45-2.567,4.067-3.067,3.5-3.5C2.9-3.933,2.283-4.167,1.65-4.2
			c-0.6-0.033-1.066,0.15-1.4,0.55c-0.3,0.367-0.35,0.833-0.15,1.4C0.3-1.65,0.7-1.133,1.3-0.7z"/>
	</g>
</symbol>
<symbol  id="FlashAICB_x2F_underground_x5F_bogwillow_x2F__x3C_Path_x3E__x5F_9" viewBox="-0.004 -4.104 4.717 4.108">
	<g id="Layer_1_12_">
		
			<radialGradient id="SVGID_36_" cx="15749.7354" cy="636.0127" r="2.0802" gradientTransform="matrix(0.0781 0.9969 1.093 -0.0721 -1922.4824 -15657.8721)" gradientUnits="userSpaceOnUse">
			<stop  offset="0" style="stop-color:#473432"/>
			<stop  offset="0.2078" style="stop-color:#4A3735"/>
			<stop  offset="0.349" style="stop-color:#52403E"/>
			<stop  offset="0.4784" style="stop-color:#604F4E"/>
			<stop  offset="0.5922" style="stop-color:#746564"/>
			<stop  offset="0.702" style="stop-color:#8E8281"/>
			<stop  offset="0.8039" style="stop-color:#ADA4A4"/>
			<stop  offset="0.902" style="stop-color:#D2CECD"/>
			<stop  offset="0.9961" style="stop-color:#FCFCFC"/>
			<stop  offset="1" style="stop-color:#FFFFFF"/>
		</radialGradient>
		<path style="fill-rule:evenodd;clip-rule:evenodd;fill:url(#SVGID_36_);" d="M4.15-0.5C4.583-0.867,4.767-1.333,4.7-1.9
			C4.667-2.467,4.4-2.967,3.9-3.4C3.433-3.833,2.867-4.067,2.2-4.1C1.533-4.133,1-3.967,0.6-3.6C0.167-3.2-0.033-2.733,0-2.2
			c0.067,0.567,0.35,1.067,0.85,1.5c0.5,0.434,1.066,0.667,1.7,0.7S3.717-0.133,4.15-0.5z"/>
	</g>
</symbol>
<symbol  id="FlashAICB_x2F_underground_x5F_bogwillow_x2F_Envelope" viewBox="7.456 -113.364 50.752 104.706">
	<g id="Layer_1_56_">
		<g>
			<g>
				<g>
					<path style="fill-rule:evenodd;clip-rule:evenodd;fill:#3A4933;" d="M19.8-35.95l-1.1,2.85l1.7,0.35
						c1.434,0.133,2.917-0.033,4.45-0.5c1.533-0.433,3.183-1.317,4.95-2.65c1.267-1,2.434-2.067,3.5-3.2l1.4-1.5l-1-1.65l-2.9,2.4
						c-2.267,1.833-3.85,2.95-4.75,3.35c-1.066,0.5-2.433,0.75-4.1,0.75L19.8-35.95z"/>
					<path style="fill-rule:evenodd;clip-rule:evenodd;fill:#3A4933;" d="M13-36.55c-0.667,1.833-0.783,3.566-0.35,5.2
						c0.5,1.667,1.35,2.717,2.55,3.15c1.2,0.434,2.483,0.184,3.85-0.75c1.267-0.9,2.233-2.216,2.9-3.95
						c0.633-1.633,0.767-3.217,0.4-4.75c-0.367-1.567-1.167-2.617-2.4-3.15c-1.267-0.567-2.567-0.45-3.9,0.35
						C14.65-39.617,13.633-38.317,13-36.55z"/>
					<path style="fill-rule:evenodd;clip-rule:evenodd;fill:#387D16;" d="M12.7-35.6c-0.467,1.267-0.534,2.467-0.2,3.6
						c0.267,1.133,0.833,1.85,1.7,2.15c0.833,0.333,1.716,0.184,2.65-0.45c0.867-0.633,1.533-1.55,2-2.75
						c0.433-1.133,0.517-2.25,0.25-3.35c-0.267-1.067-0.817-1.8-1.65-2.2c-0.867-0.367-1.767-0.267-2.7,0.3
						C13.85-37.7,13.167-36.8,12.7-35.6z"/>
				</g>
				<g>
					<path style="fill-rule:evenodd;clip-rule:evenodd;fill:#3A4933;" d="M19.75-80.95L19.4-79.2l1.7,0.45
						c1.433,0.267,2.75,0.35,3.95,0.25c1.9-0.133,3.65-0.867,5.25-2.2c0.767-0.667,1.35-1.316,1.75-1.95L30.6-84l-1.85,1.5
						c-1.367,1-2.5,1.633-3.4,1.9c-0.833,0.2-2.017,0.2-3.55,0L19.75-80.95z"/>
					<path style="fill-rule:evenodd;clip-rule:evenodd;fill:#3A4933;" d="M13.5-82c-0.2,1.067,0.067,2.133,0.8,3.2
						c0.7,1.1,1.667,1.867,2.9,2.3c1.233,0.5,2.367,0.533,3.4,0.1c1.033-0.434,1.65-1.184,1.85-2.25c0.233-1.033-0.034-2.1-0.8-3.2
						s-1.767-1.867-3-2.3c-1.267-0.467-2.4-0.483-3.4-0.05C14.25-83.8,13.667-83.067,13.5-82z"/>
					<path style="fill-rule:evenodd;clip-rule:evenodd;fill:#387D16;" d="M13.4-81.45c-0.133,0.733,0.05,1.467,0.55,2.2
						c0.533,0.733,1.216,1.267,2.05,1.6c0.833,0.333,1.6,0.35,2.3,0.05c0.733-0.3,1.167-0.816,1.3-1.55
						c0.167-0.733-0.017-1.467-0.55-2.2c-0.5-0.733-1.183-1.25-2.05-1.55c-0.867-0.333-1.65-0.35-2.35-0.05
						C13.983-82.683,13.567-82.183,13.4-81.45z"/>
				</g>
				<g>
					<path style="fill-rule:evenodd;clip-rule:evenodd;fill:#3A4933;" d="M16.5-86.15c0.367,0.3,0.867,0.65,1.5,1.05
						c1.3,0.833,2.6,1.467,3.9,1.9c2.133,0.7,4.267,0.85,6.4,0.45c1.133-0.2,2.05-0.45,2.75-0.75l-0.75-1.65l-2.7,0.35
						c-1.934,0.2-3.4,0.216-4.4,0.05c-0.767-0.133-1.983-0.617-3.65-1.45c-0.733-0.4-1.367-0.783-1.9-1.15L16.5-86.15z"/>
					<path style="fill-rule:evenodd;clip-rule:evenodd;fill:#3A4933;" d="M11.75-90.8c-0.733,0.733-0.967,1.667-0.7,2.8
						c0.2,1.1,0.85,2.117,1.95,3.05c1.033,0.9,2.167,1.4,3.4,1.5c1.233,0.1,2.217-0.216,2.95-0.95c0.733-0.8,0.967-1.75,0.7-2.85
						c-0.2-1.1-0.85-2.117-1.95-3.05c-1.067-0.867-2.217-1.35-3.45-1.45S12.45-91.533,11.75-90.8z"/>
					<path style="fill-rule:evenodd;clip-rule:evenodd;fill:#387D16;" d="M11.4-90.4c-0.467,0.5-0.617,1.133-0.45,1.9
						c0.133,0.8,0.566,1.5,1.3,2.1c0.733,0.633,1.517,0.983,2.35,1.05c0.867,0.067,1.55-0.15,2.05-0.65
						c0.467-0.533,0.617-1.183,0.45-1.95c-0.167-0.8-0.617-1.5-1.35-2.1c-0.7-0.6-1.467-0.934-2.3-1
						C12.583-91.117,11.9-90.9,11.4-90.4z"/>
				</g>
				<g>
					<path style="fill-rule:evenodd;clip-rule:evenodd;fill:#3A4933;" d="M24.05-107.55l-0.9-0.85c-1.533,1.6-2.75,2.6-3.65,3
						c-0.567,0.233-1.367,0.35-2.4,0.35l-1.4-0.1l-0.2,1.3l1.15,0.2c0.967,0.066,1.883,0,2.75-0.2c1.233-0.233,2.4-0.933,3.5-2.1
						C23.4-106.517,23.783-107.05,24.05-107.55z"/>
					<path style="fill-rule:evenodd;clip-rule:evenodd;fill:#3A4933;" d="M11.4-105.35c-0.133,0.733,0.083,1.483,0.65,2.25
						c0.5,0.7,1.217,1.184,2.15,1.45c0.867,0.233,1.633,0.15,2.3-0.25s1.033-1,1.1-1.8c0.1-0.8-0.1-1.566-0.6-2.3
						c-0.533-0.733-1.217-1.217-2.05-1.45c-0.867-0.233-1.65-0.133-2.35,0.3C11.9-106.75,11.5-106.15,11.4-105.35z"/>
					<path style="fill-rule:evenodd;clip-rule:evenodd;fill:#387D16;" d="M11.35-104.95c-0.067,0.534,0.083,1.05,0.45,1.55
						c0.4,0.5,0.9,0.833,1.5,1c0.567,0.133,1.083,0.066,1.55-0.2s0.733-0.667,0.8-1.2c0.067-0.567-0.083-1.1-0.45-1.6
						s-0.85-0.817-1.45-0.95c-0.567-0.167-1.083-0.117-1.55,0.15C11.7-105.933,11.417-105.517,11.35-104.95z"/>
				</g>
				<g>
					<path style="fill-rule:evenodd;clip-rule:evenodd;fill:#3A4933;" d="M43.95-45.9c-1.6-0.267-2.784-0.717-3.55-1.35
						c-0.733-0.6-1.667-1.917-2.8-3.95c-0.567-1-1.05-1.95-1.45-2.85l-1.9,1.15c0.1,0.467,0.267,1.05,0.5,1.75
						c0.5,1.4,1.067,2.6,1.7,3.6c0.867,1.4,2,2.466,3.4,3.2c1.2,0.567,2.566,0.917,4.1,1.05c0.733,0.033,1.333,0.017,1.8-0.05
						l0.35-2.25C45.467-45.633,44.75-45.733,43.95-45.9z"/>
					<path style="fill-rule:evenodd;clip-rule:evenodd;fill:#3A4933;" d="M52.7-44.9c0.267-1.3-0.034-2.35-0.9-3.15
						c-0.867-0.867-2.017-1.25-3.45-1.15c-1.4,0.1-2.684,0.7-3.85,1.8c-1.133,1.066-1.8,2.316-2,3.75c-0.2,1.467,0.133,2.6,1,3.4
						c0.9,0.833,2.033,1.1,3.4,0.8c1.4-0.267,2.667-0.933,3.8-2C51.833-42.483,52.5-43.633,52.7-44.9z"/>
					<path style="fill-rule:evenodd;clip-rule:evenodd;fill:#7C9B6E;" d="M52.6-44.2c0.167-0.867-0.05-1.566-0.65-2.1
						c-0.567-0.567-1.333-0.8-2.3-0.7S47.8-46.5,47-45.8c-0.767,0.733-1.233,1.583-1.4,2.55c-0.133,0.933,0.1,1.667,0.7,2.2
						c0.567,0.533,1.333,0.733,2.3,0.6c0.933-0.133,1.8-0.583,2.6-1.35C52-42.533,52.467-43.333,52.6-44.2z"/>
				</g>
				<g>
					<path style="fill-rule:evenodd;clip-rule:evenodd;fill:#3A4933;" d="M32.4-95.75c-1.267-0.8-2.717-2.083-4.35-3.85
						c-0.9-0.967-1.683-1.867-2.35-2.7l-1.6,1c0.233,0.433,0.583,0.966,1.05,1.6c0.767,1.133,1.767,2.267,3,3.4
						c1.6,1.433,3.233,2.517,4.9,3.25c1.534,0.7,3.133,1.183,4.8,1.45c0.833,0.133,1.483,0.2,1.95,0.2l-0.65-2.25L36.7-94.1
						C34.767-94.6,33.333-95.15,32.4-95.75z"/>
					<path style="fill-rule:evenodd;clip-rule:evenodd;fill:#3A4933;" d="M38.8-88.6c1.3,0.967,2.684,1.45,4.15,1.45
						c1.433,0,2.5-0.483,3.2-1.45c0.767-0.967,0.917-2.133,0.45-3.5c-0.4-1.333-1.25-2.5-2.55-3.5c-1.3-0.967-2.667-1.45-4.1-1.45
						c-1.434,0-2.534,0.483-3.3,1.45c-0.733,1-0.883,2.184-0.45,3.55C36.6-90.717,37.467-89.567,38.8-88.6z"/>
					<path style="fill-rule:evenodd;clip-rule:evenodd;fill:#7C9B6E;" d="M39.7-91.3c0.3,0.9,0.9,1.7,1.8,2.4
						c0.9,0.633,1.85,0.95,2.85,0.95s1.733-0.333,2.2-1c0.5-0.667,0.6-1.466,0.3-2.4c-0.3-0.9-0.883-1.7-1.75-2.4
						c-0.9-0.633-1.85-0.95-2.85-0.95c-0.967,0-1.7,0.333-2.2,1C39.517-93.067,39.4-92.267,39.7-91.3z"/>
				</g>
				<g>
					<path style="fill-rule:evenodd;clip-rule:evenodd;fill:#3A4933;" d="M34.45-54.05c0.433,0.633,1.05,1.25,1.85,1.85
						c1.534,1.267,3.167,1.917,4.9,1.95c1.2,0.033,2.367-0.1,3.5-0.4l1.4-0.5l-0.5-1.55c-2.033,0.6-3.667,0.75-4.9,0.45
						c-0.733-0.167-1.833-0.733-3.3-1.7c-0.733-0.5-1.383-0.983-1.95-1.45L34.45-54.05z"/>
					<path style="fill-rule:evenodd;clip-rule:evenodd;fill:#3A4933;" d="M48.3-48.85c1.067-0.467,1.867-1.183,2.4-2.15
						c0.533-0.967,0.65-1.917,0.35-2.85c-0.333-0.933-0.983-1.583-1.95-1.95s-1.967-0.333-3,0.1c-1.067,0.434-1.833,1.167-2.3,2.2
						c-0.533,1.033-0.65,2.033-0.35,3c0.3,0.967,0.917,1.617,1.85,1.95C46.3-48.283,47.3-48.383,48.3-48.85z"/>
					<path style="fill-rule:evenodd;clip-rule:evenodd;fill:#7C9B6E;" d="M51.2-53.3c-0.2-0.633-0.633-1.083-1.3-1.35
						c-0.667-0.233-1.35-0.2-2.05,0.1c-0.733,0.3-1.267,0.8-1.6,1.5c-0.367,0.667-0.45,1.333-0.25,2
						c0.233,0.633,0.667,1.066,1.3,1.3s1.317,0.183,2.05-0.15c0.733-0.333,1.283-0.833,1.65-1.5
						C51.367-52.033,51.433-52.667,51.2-53.3z"/>
				</g>
				<g>
					<path style="fill-rule:evenodd;clip-rule:evenodd;fill:#3A4933;" d="M25.15-101.8l2.8,0.4c2.167,0.066,3.917-0.3,5.25-1.1
						c1.5-0.867,2.55-1.917,3.15-3.15l-1.65-0.95c-1.133,1.5-2.284,2.467-3.45,2.9c-0.7,0.233-1.983,0.383-3.85,0.45l-2.5-0.05
						L25.15-101.8z"/>
					<path style="fill-rule:evenodd;clip-rule:evenodd;fill:#3A4933;" d="M38.2-110.3c-0.934-0.567-1.934-0.75-3-0.55
						c-1.067,0.233-1.85,0.8-2.35,1.7s-0.567,1.867-0.2,2.9s1.083,1.833,2.15,2.4c0.967,0.6,1.983,0.783,3.05,0.55
						c1-0.2,1.733-0.767,2.2-1.7c0.434-0.9,0.467-1.85,0.1-2.85C39.817-108.917,39.167-109.733,38.2-110.3z"/>
					<path style="fill-rule:evenodd;clip-rule:evenodd;fill:#7C9B6E;" d="M38.75-110c-0.633-0.4-1.317-0.517-2.05-0.35
						c-0.7,0.167-1.233,0.55-1.6,1.15c-0.333,0.633-0.383,1.3-0.15,2c0.267,0.733,0.733,1.284,1.4,1.65c0.7,0.4,1.4,0.517,2.1,0.35
						c0.7-0.133,1.216-0.5,1.55-1.1c0.3-0.633,0.333-1.3,0.1-2C39.867-109.033,39.417-109.6,38.75-110z"/>
				</g>
				<g>
					<path style="fill-rule:evenodd;clip-rule:evenodd;fill:#3A4933;" d="M21.95-21.1c1.533-0.867,2.883-1.867,4.05-3
						c1.4-1.3,2.65-2.917,3.75-4.85c0.8-1.267,1.55-2.716,2.25-4.35l0.75-1.9L31.1-36l-3,5.4c-1.067,1.733-1.817,2.85-2.25,3.35
						c-0.833,1-2.05,2-3.65,3l-2.15,1.2l0.1,2.8L21.95-21.1z"/>
					<path style="fill-rule:evenodd;clip-rule:evenodd;fill:#3A4933;" d="M13.5-19.1c0.067,1.733,0.65,3.05,1.75,3.95
						c1.033,0.833,2.25,1.017,3.65,0.55c1.333-0.5,2.434-1.483,3.3-2.95c0.833-1.4,1.216-2.934,1.15-4.6
						c-0.067-1.633-0.567-2.9-1.5-3.8c-1-0.933-2.167-1.233-3.5-0.9c-1.4,0.367-2.583,1.283-3.55,2.75
						C13.833-22.533,13.4-20.867,13.5-19.1z"/>
					<path style="fill-rule:evenodd;clip-rule:evenodd;fill:#94B37C;" d="M13.25-18.25c0.067,1.233,0.467,2.15,1.2,2.75
						c0.7,0.567,1.533,0.7,2.5,0.4c0.933-0.367,1.683-1.033,2.25-2c0.6-1,0.867-2.083,0.8-3.25c-0.033-1.133-0.4-2.017-1.1-2.65
						c-0.667-0.667-1.467-0.867-2.4-0.6c-0.933,0.233-1.733,0.883-2.4,1.95C13.433-20.55,13.15-19.417,13.25-18.25z"/>
				</g>
				<g>
					<path style="fill-rule:evenodd;clip-rule:evenodd;fill:#3A4933;" d="M30.35-70.85c-0.967,1.9-1.917,3.217-2.85,3.95
						c-0.833,0.7-2.067,1.283-3.7,1.75l-2.25,0.5v2.4l1.9-0.25c1.6-0.333,3.05-0.867,4.35-1.6c1.434-0.767,2.684-1.9,3.75-3.4
						c0.7-0.967,1.267-2.133,1.7-3.5c0.2-0.633,0.317-1.167,0.35-1.6l-1.95-1C31.317-72.767,30.883-71.85,30.35-70.85z"/>
					<path style="fill-rule:evenodd;clip-rule:evenodd;fill:#3A4933;" d="M14.55-63c0,1.5,0.483,2.783,1.45,3.85
						c1.033,1.1,2.25,1.65,3.65,1.65c1.4-0.033,2.65-0.6,3.75-1.7c1.067-1.066,1.6-2.35,1.6-3.85c0-1.4-0.567-2.617-1.7-3.65
						c-1.1-1-2.367-1.5-3.8-1.5s-2.617,0.517-3.55,1.55C15.017-65.717,14.55-64.5,14.55-63z"/>
					<path style="fill-rule:evenodd;clip-rule:evenodd;fill:#94B37C;" d="M14.25-62.35c0,1.033,0.333,1.917,1,2.65
						c0.667,0.767,1.5,1.133,2.5,1.1c1,0,1.85-0.383,2.55-1.15c0.733-0.8,1.1-1.667,1.1-2.6c0-1.033-0.367-1.883-1.1-2.55
						c-0.7-0.7-1.55-1.05-2.55-1.05c-0.967,0.034-1.8,0.383-2.5,1.05C14.583-64.167,14.25-63.317,14.25-62.35z"/>
				</g>
				<g>
					<path style="fill-rule:evenodd;clip-rule:evenodd;fill:#3A4933;" d="M42.25-29.95c-1.6,0-2.8-0.233-3.6-0.7
						c-0.967-0.567-1.933-1.667-2.9-3.3c-0.567-0.933-1.05-1.816-1.45-2.65l-1.85,1.45c0.2,1.033,0.6,2.117,1.2,3.25
						c1.267,2.233,2.867,3.6,4.8,4.1c1.2,0.333,2.583,0.433,4.15,0.3c0.733-0.1,1.333-0.217,1.8-0.35v-2.25
						C43.767-30,43.05-29.95,42.25-29.95z"/>
					<path style="fill-rule:evenodd;clip-rule:evenodd;fill:#3A4933;" d="M51-30.55c0.033-1.267-0.4-2.217-1.3-2.85
						c-0.934-0.667-2.067-0.817-3.4-0.45c-1.433,0.367-2.65,1.15-3.65,2.35c-1.033,1.267-1.533,2.583-1.5,3.95
						c0,1.367,0.517,2.383,1.55,3.05c1.066,0.633,2.267,0.7,3.6,0.2c1.333-0.434,2.45-1.284,3.35-2.55
						C50.55-28.083,51-29.317,51-30.55z"/>
					<path style="fill-rule:evenodd;clip-rule:evenodd;fill:#387D16;" d="M51-29.7c0-0.867-0.317-1.517-0.95-1.95
						c-0.633-0.434-1.433-0.517-2.4-0.25c-0.967,0.333-1.767,0.883-2.4,1.65c-0.7,0.867-1.033,1.75-1,2.65c0,0.934,0.35,1.6,1.05,2
						c0.7,0.434,1.534,0.483,2.5,0.15c0.867-0.3,1.633-0.883,2.3-1.75C50.7-28.033,51-28.867,51-29.7z"/>
				</g>
				<g>
					<path style="fill-rule:evenodd;clip-rule:evenodd;fill:#3A4933;" d="M32.6-77.35l1,1.55c1.033,1.367,1.983,2.517,2.85,3.45
						c1.466,1.467,2.95,2.567,4.45,3.3c1.533,0.767,3.05,1.283,4.55,1.55c0.767,0.133,1.4,0.2,1.9,0.2
						c-0.033-0.767-0.117-1.55-0.25-2.35c-0.667-0.067-1.45-0.217-2.35-0.45c-1.733-0.467-3.1-1.033-4.1-1.7
						c-0.833-0.567-2.2-1.867-4.1-3.9c-0.9-0.933-1.7-1.816-2.4-2.65L32.6-77.35z"/>
					<path style="fill-rule:evenodd;clip-rule:evenodd;fill:#3A4933;" d="M54.3-68.05c-0.167-1.434-0.833-2.633-2-3.6
						c-1.167-0.967-2.5-1.45-4-1.45c-1.433,0-2.566,0.5-3.4,1.5c-0.867,0.967-1.217,2.167-1.05,3.6c0.167,1.433,0.767,2.65,1.8,3.65
						c1.067,1,2.3,1.5,3.7,1.5c1.467,0,2.683-0.517,3.65-1.55C54.033-65.433,54.467-66.65,54.3-68.05z"/>
					<path style="fill-rule:evenodd;clip-rule:evenodd;fill:#387D16;" d="M54.4-67.1c-0.1-1-0.55-1.816-1.35-2.45
						c-0.767-0.733-1.65-1.067-2.65-1c-1.033,0-1.833,0.333-2.4,1c-0.567,0.7-0.833,1.533-0.8,2.5c0.1,0.966,0.5,1.8,1.2,2.5
						c0.767,0.7,1.617,1.033,2.55,1c0.966,0,1.816-0.333,2.55-1C54.167-65.25,54.467-66.1,54.4-67.1z"/>
				</g>
				<g>
					<path style="fill-rule:evenodd;clip-rule:evenodd;fill:#3A4933;" d="M34.3-76.15l2.05,1.05c1.667,0.733,3.167,1.033,4.5,0.9
						c1.467-0.1,2.617-0.466,3.45-1.1l-1-1.15c-1.333,0.667-2.533,0.967-3.6,0.9c-0.7-0.1-1.75-0.4-3.15-0.9l-1.95-0.8L34.3-76.15z"
						/>
					<path style="fill-rule:evenodd;clip-rule:evenodd;fill:#3A4933;" d="M46.95-77.85c-0.633-0.667-1.4-1.083-2.3-1.25
						c-0.9-0.167-1.633-0.017-2.2,0.45c-0.6,0.433-0.883,1.05-0.85,1.85c0,0.8,0.316,1.55,0.95,2.25c0.6,0.667,1.333,1.083,2.2,1.25
						c0.867,0.167,1.617,0.017,2.25-0.45c0.633-0.433,0.933-1.067,0.9-1.9C47.9-76.45,47.583-77.183,46.95-77.85z"/>
					<path style="fill-rule:evenodd;clip-rule:evenodd;fill:#387D16;" d="M47.35-77.4c-0.434-0.467-0.95-0.75-1.55-0.85
						c-0.6-0.1-1.1,0-1.5,0.3c-0.433,0.3-0.633,0.733-0.6,1.3c0,0.533,0.216,1.033,0.65,1.5c0.433,0.467,0.95,0.767,1.55,0.9
						c0.567,0.1,1.067,0,1.5-0.3c0.434-0.333,0.65-0.767,0.65-1.3C48.017-76.417,47.783-76.933,47.35-77.4z"/>
				</g>
				<linearGradient id="SVGID_37_" gradientUnits="userSpaceOnUse" x1="21.8374" y1="-64.3521" x2="38.2624" y2="-64.3521">
					<stop  offset="0" style="stop-color:#364428"/>
					<stop  offset="0.3373" style="stop-color:#415133"/>
					<stop  offset="0.5333" style="stop-color:#4A5B3C"/>
					<stop  offset="1" style="stop-color:#404C36"/>
				</linearGradient>
				<path style="fill-rule:evenodd;clip-rule:evenodd;fill:url(#SVGID_37_);" d="M35.85-18.95l-0.4-3.8
					c-0.1-1.4-0.15-2.933-0.15-4.6c0-1.033,0.067-2.783,0.2-5.25c0.067-1.167,0.233-3.1,0.5-5.8l1.5-12.75
					c0.267-2.2,0.467-4.4,0.6-6.6c0.133-2.933,0.183-5.117,0.15-6.55c-0.033-2.133-0.233-4.25-0.6-6.35c-0.3-2.1-0.7-4.133-1.2-6.1
					c-0.333-1.467-0.85-3.4-1.55-5.8l-5.5-19.05l-1.2-7.5l-0.05-0.65c-0.033-0.633-0.383-1.167-1.05-1.6
					c-0.633-0.367-1.367-0.566-2.2-0.6c-0.833-0.033-1.55,0.133-2.15,0.5c-0.667,0.434-0.983,1.017-0.95,1.75l0.05,0.6l1.2,7.5
					l5.5,19.05c0.434,1.4,0.95,3.333,1.55,5.8c0.5,2.033,0.9,4.067,1.2,6.1c0.367,2.033,0.567,4.15,0.6,6.35
					c0.033,1.4-0.017,3.6-0.15,6.6L29.4-31.2c-0.1,2.167-0.133,4.034-0.1,5.6c0,1.733,0.05,3.35,0.15,4.85
					c0.1,1.467,0.25,2.8,0.45,4L35.85-18.95z"/>
				<linearGradient id="SVGID_38_" gradientUnits="userSpaceOnUse" x1="28.3999" y1="-16.9409" x2="38.2999" y2="-16.9409">
					<stop  offset="0" style="stop-color:#394330"/>
					<stop  offset="0.2863" style="stop-color:#45513A"/>
					<stop  offset="0.5333" style="stop-color:#526046"/>
					<stop  offset="1" style="stop-color:#404C36"/>
				</linearGradient>
				<path style="fill-rule:evenodd;clip-rule:evenodd;fill:url(#SVGID_38_);" d="M38.2-18.7c-0.267-1.466-0.9-2.5-1.9-3.1
					c-1.033-0.733-2.233-0.867-3.6-0.4c-1.367,0.467-2.483,1.4-3.35,2.8c-0.833,1.4-1.133,2.833-0.9,4.3
					c0.267,1.5,1.017,2.55,2.25,3.15c1.2,0.667,2.483,0.717,3.85,0.15c1.267-0.467,2.267-1.4,3-2.8
					C38.25-15.933,38.467-17.3,38.2-18.7z"/>
				<path style="fill-rule:evenodd;clip-rule:evenodd;fill:#387D16;" d="M36.1-17.6c-0.133-0.967-0.583-1.683-1.35-2.15
					s-1.6-0.533-2.5-0.2c-0.9,0.3-1.65,0.934-2.25,1.9c-0.567,1-0.75,1.983-0.55,2.95c0.133,0.967,0.633,1.684,1.5,2.15
					c0.867,0.467,1.733,0.5,2.6,0.1c0.9-0.333,1.6-0.967,2.1-1.9S36.3-16.633,36.1-17.6z"/>
				<g>
					<path style="fill-rule:evenodd;clip-rule:evenodd;fill:#3A4933;" d="M25.7-48.05c-0.133,1.4,0.167,2.55,0.9,3.45
						c0.767,0.867,1.733,1.233,2.9,1.1c1.1-0.1,2.167-0.667,3.2-1.7c0.966-1.1,1.5-2.25,1.6-3.45c0.133-1.267-0.167-2.35-0.9-3.25
						c-0.733-0.833-1.717-1.25-2.95-1.25c-1.2,0.033-2.267,0.55-3.2,1.55S25.8-49.417,25.7-48.05z"/>
					<path style="fill-rule:evenodd;clip-rule:evenodd;fill:#94B37C;" d="M25.65-48.45c-0.066,0.967,0.15,1.75,0.65,2.35
						s1.167,0.867,2,0.8c0.8-0.067,1.534-0.45,2.2-1.15c0.633-0.7,1-1.5,1.1-2.4c0.066-0.9-0.15-1.65-0.65-2.25
						c-0.534-0.633-1.217-0.917-2.05-0.85c-0.833,0.067-1.55,0.417-2.15,1.05C26.117-50.2,25.75-49.383,25.65-48.45z"/>
				</g>
				<g>
					<path style="fill-rule:evenodd;clip-rule:evenodd;fill:#3A4933;" d="M38.65-85.75c-1-0.833-2.15-1.3-3.45-1.4
						c-1.233-0.067-2.184,0.283-2.85,1.05c-0.667,0.7-0.867,1.65-0.6,2.85c0.267,1.1,0.917,2.1,1.95,3
						c0.966,0.833,2.083,1.3,3.35,1.4c1.233,0.067,2.2-0.283,2.9-1.05c0.7-0.767,0.917-1.717,0.65-2.85
						C40.4-83.883,39.75-84.883,38.65-85.75z"/>
					<path style="fill-rule:evenodd;clip-rule:evenodd;fill:#94B37C;" d="M39.8-79.65c0.467-0.5,0.617-1.15,0.45-1.95
						c-0.167-0.767-0.617-1.45-1.35-2.05c-0.7-0.567-1.467-0.883-2.3-0.95c-0.867-0.066-1.533,0.167-2,0.7
						c-0.434,0.533-0.567,1.183-0.4,1.95c0.167,0.8,0.6,1.483,1.3,2.05c0.7,0.6,1.467,0.917,2.3,0.95
						C38.667-78.883,39.333-79.117,39.8-79.65z"/>
				</g>
				<path style="fill-rule:evenodd;clip-rule:evenodd;fill:#3A4933;" d="M33.3-64.7c-0.533,1.333-0.566,2.684-0.1,4.05
					c0.5,1.4,1.367,2.383,2.6,2.95c1.267,0.567,2.6,0.583,4,0.05c1.4-0.567,2.4-1.5,3-2.8c0.633-1.333,0.684-2.667,0.15-4
					c-0.534-1.333-1.5-2.283-2.9-2.85c-1.4-0.6-2.733-0.633-4-0.1C34.783-66.933,33.867-66.033,33.3-64.7z"/>
				<path style="fill-rule:evenodd;clip-rule:evenodd;fill:#387D16;" d="M36.45-62.35C36.083-61.517,36-60.7,36.2-59.9
					c0.2,0.833,0.617,1.4,1.25,1.7c0.667,0.3,1.383,0.25,2.15-0.15c0.767-0.367,1.35-0.967,1.75-1.8c0.4-0.833,0.5-1.633,0.3-2.4
					c-0.233-0.8-0.7-1.35-1.4-1.65c-0.7-0.3-1.417-0.267-2.15,0.1C37.367-63.767,36.817-63.183,36.45-62.35z"/>
				<path style="fill-rule:evenodd;clip-rule:evenodd;fill:#3A4933;" d="M19.25-98.9c-0.267,1.267,0.05,2.533,0.95,3.8
					c0.833,1.267,2.017,2.184,3.55,2.75c1.5,0.567,2.85,0.6,4.05,0.1c1.2-0.5,1.9-1.383,2.1-2.65c0.233-1.233-0.083-2.5-0.95-3.8
					c-0.833-1.3-1.967-2.216-3.4-2.75c-1.433-0.533-2.767-0.566-4-0.1C20.317-101.017,19.55-100.133,19.25-98.9z"/>
				<path style="fill-rule:evenodd;clip-rule:evenodd;fill:#387D16;" d="M20.45-97.6c-0.133,0.8,0.017,1.567,0.45,2.3
					c0.434,0.767,1.033,1.3,1.8,1.6c0.767,0.267,1.483,0.233,2.15-0.1c0.633-0.367,1.017-0.934,1.15-1.7
					c0.167-0.767,0.033-1.533-0.4-2.3c-0.434-0.767-1.033-1.284-1.8-1.55c-0.767-0.3-1.466-0.283-2.1,0.05
					C21.033-98.933,20.617-98.367,20.45-97.6z"/>
				
					<use xlink:href="#FlashAICB_x2F_underground_x5F_bogwillow_x2F__x3C_Group_x3E_"  width="7.291" height="9.016" x="-0.02" y="-9.016" transform="matrix(1 0 0 1 12.8999 -14.2998)" style="overflow:visible;opacity:0.5;enable-background:new    ;"/>
				
					<use xlink:href="#FlashAICB_x2F_underground_x5F_bogwillow_x2F__x3C_Path_x3E__x5F_0"  width="14.156" height="16.238" x="-0.016" y="-16.27" transform="matrix(1 0 0 1 21.25 -39.2998)" style="overflow:visible;enable-background:new    ;"/>
				
					<use xlink:href="#FlashAICB_x2F_underground_x5F_bogwillow_x2F__x3C_Path_x3E__x5F_1"  width="14.898" height="13.895" x="-0.003" y="-13.873" transform="matrix(1 0 0 1 10.2998 -72.3496)" style="overflow:visible;enable-background:new    ;"/>
				
					<use xlink:href="#FlashAICB_x2F_underground_x5F_bogwillow_x2F__x3C_Path_x3E__x5F_2"  width="14.236" height="14.023" x="0" y="-14.023" transform="matrix(1 0 0 1 41.75 -47.0498)" style="overflow:visible;enable-background:new    ;"/>
				
					<use xlink:href="#FlashAICB_x2F_underground_x5F_bogwillow_x2F__x3C_Group_x3E__x5F_0"  width="7.534" height="8.397" x="-0.009" y="-8.407" transform="matrix(1 0 0 1 24.7998 -44.8501)" style="overflow:visible;opacity:0.5;enable-background:new    ;"/>
				
					<use xlink:href="#FlashAICB_x2F_underground_x5F_bogwillow_x2F__x3C_Group_x3E__x5F_1"  width="8.006" height="7.15" x="-0.009" y="-7.15" transform="matrix(1 0 0 1 48.3496 -63.25)" style="overflow:visible;opacity:0.5;enable-background:new    ;"/>
				
					<use xlink:href="#FlashAICB_x2F_underground_x5F_bogwillow_x2F__x3C_Group_x3E__x5F_2"  width="7.584" height="7.287" x="-0.009" y="-7.258" transform="matrix(1 0 0 1 45.1504 -50.1499)" style="overflow:visible;opacity:0.5;enable-background:new    ;"/>
				
					<use xlink:href="#FlashAICB_x2F_underground_x5F_bogwillow_x2F__x3C_Group_x3E__x5F_3"  width="4.707" height="4.234" x="-0.007" y="-4.254" transform="matrix(1 0 0 1 43 -73.8496)" style="overflow:visible;opacity:0.5;enable-background:new    ;"/>
				
					<use xlink:href="#FlashAICB_x2F_underground_x5F_bogwillow_x2F__x3C_Group_x3E__x5F_4"  width="4.593" height="4.141" x="-0.004" y="-4.174" transform="matrix(1 0 0 1 14.4502 -78.0996)" style="overflow:visible;opacity:0.5;enable-background:new    ;"/>
				
					<use xlink:href="#FlashAICB_x2F_underground_x5F_bogwillow_x2F__x3C_Group_x3E__x5F_5"  width="4.831" height="4.21" x="-0.02" y="-4.204" transform="matrix(1 0 0 1 11.3999 -85.7998)" style="overflow:visible;opacity:0.5;enable-background:new    ;"/>
				
					<use xlink:href="#FlashAICB_x2F_underground_x5F_bogwillow_x2F__x3C_Group_x3E__x5F_6"  width="4.723" height="4.123" x="-0.004" y="-4.104" transform="matrix(1 0 0 1 10.8501 -102.9004)" style="overflow:visible;opacity:0.5;enable-background:new    ;"/>
				
					<use xlink:href="#FlashAICB_x2F_underground_x5F_bogwillow_x2F__x3C_Group_x3E__x5F_7"  width="7.455" height="7.739" x="0.002" y="-7.739" transform="matrix(1 0 0 1 28.8496 -11.6001)" style="overflow:visible;opacity:0.5;enable-background:new    ;"/>
				
					<use xlink:href="#FlashAICB_x2F_underground_x5F_bogwillow_x2F__x3C_Group_x3E__x5F_8"  width="8.907" height="11.325" y="-11.306" transform="matrix(1 0 0 1 12.7002 -28.9502)" style="overflow:visible;opacity:0.5;enable-background:new    ;"/>
				
					<use xlink:href="#FlashAICB_x2F_underground_x5F_bogwillow_x2F__x3C_Group_x3E__x5F_9"  width="8.457" height="7.403" x="0.008" y="-7.409" transform="matrix(1 0 0 1 38.8496 -87.5)" style="overflow:visible;opacity:0.5;enable-background:new    ;"/>
				
					<use xlink:href="#FlashAICB_x2F_underground_x5F_bogwillow_x2F__x3C_Group_x3E__x5F_10"  width="8.054" height="6.871" x="-0.019" y="-6.871" transform="matrix(1 0 0 1 45.0996 -40.5498)" style="overflow:visible;opacity:0.5;enable-background:new    ;"/>
				
					<use xlink:href="#FlashAICB_x2F_underground_x5F_bogwillow_x2F__x3C_Group_x3E__x5F_11"  width="6.303" height="5.52" x="-0.003" y="-5.497" transform="matrix(1 0 0 1 34.7002 -104.4502)" style="overflow:visible;opacity:0.5;enable-background:new    ;"/>
				
					<use xlink:href="#FlashAICB_x2F_underground_x5F_bogwillow_x2F__x3C_Group_x3E__x5F_12"  width="7.691" height="6.78" x="-0.026" y="-6.76" transform="matrix(1 0 0 1 33.4502 -79)" style="overflow:visible;opacity:0.5;enable-background:new    ;"/>
				
					<use xlink:href="#FlashAICB_x2F_underground_x5F_bogwillow_x2F__x3C_Group_x3E__x5F_13"  width="7.628" height="6.822" x="-0.012" y="-6.809" transform="matrix(1 0 0 1 18.9502 -93.75)" style="overflow:visible;opacity:0.5;enable-background:new    ;"/>
				
					<use xlink:href="#FlashAICB_x2F_underground_x5F_bogwillow_x2F__x3C_Group_x3E__x5F_14"  width="6.877" height="7.544" x="0.013" y="-7.536" transform="matrix(1 0 0 1 43.5498 -25.9502)" style="overflow:visible;opacity:0.5;enable-background:new    ;"/>
				
					<use xlink:href="#FlashAICB_x2F_underground_x5F_bogwillow_x2F__x3C_Path_x3E__x5F_18"  width="17.318" height="18.198" x="-0.002" y="-18.232" transform="matrix(1 0 0 1 10.25 -53.2998)" style="overflow:visible;enable-background:new    ;"/>
				
					<use xlink:href="#FlashAICB_x2F_underground_x5F_bogwillow_x2F__x3C_Path_x3E__x5F_19"  width="14.439" height="13.14" x="-0.044" y="-13.12" transform="matrix(1 0 0 1 7.5 -82)" style="overflow:visible;enable-background:new    ;"/>
				
					<use xlink:href="#FlashAICB_x2F_underground_x5F_bogwillow_x2F__x3C_Path_x3E__x5F_20"  width="14.276" height="13.232" x="-0.03" y="-13.212" transform="matrix(1 0 0 1 17.2998 -89.7002)" style="overflow:visible;enable-background:new    ;"/>
				
					<use xlink:href="#FlashAICB_x2F_underground_x5F_bogwillow_x2F__x3C_Path_x3E__x5F_21"  width="10.533" height="10.279" x="0.025" y="-10.264" transform="matrix(1 0 0 1 8.2998 -100.2002)" style="overflow:visible;enable-background:new    ;"/>
				
					<use xlink:href="#FlashAICB_x2F_underground_x5F_bogwillow_x2F__x3C_Path_x3E__x5F_22"  width="10.429" height="10.329" x="0.037" y="-10.314" transform="matrix(1 0 0 1 32 -103.0498)" style="overflow:visible;enable-background:new    ;"/>
				
					<use xlink:href="#FlashAICB_x2F_underground_x5F_bogwillow_x2F__x3C_Path_x3E__x5F_23"  width="14.386" height="13.192" x="-0.013" y="-13.18" transform="matrix(1 0 0 1 35.2998 -85.7002)" style="overflow:visible;enable-background:new    ;"/>
				
					<use xlink:href="#FlashAICB_x2F_underground_x5F_bogwillow_x2F__x3C_Path_x3E__x5F_24"  width="14.651" height="13.45" x="0.003" y="-13.48" transform="matrix(1 0 0 1 29.7002 -75.6504)" style="overflow:visible;enable-background:new    ;"/>
				
					<use xlink:href="#FlashAICB_x2F_underground_x5F_bogwillow_x2F__x3C_Path_x3E__x5F_25"  width="11.602" height="10.938" x="-0.016" y="-10.964" transform="matrix(1 0 0 1 38.5 -70.4004)" style="overflow:visible;enable-background:new    ;"/>
				
					<use xlink:href="#FlashAICB_x2F_underground_x5F_bogwillow_x2F__x3C_Path_x3E__x5F_26"  width="17.336" height="17.722" x="-0.02" y="-17.72" transform="matrix(1 0 0 1 29.75 -52.8999)" style="overflow:visible;enable-background:new    ;"/>
				
					<use xlink:href="#FlashAICB_x2F_underground_x5F_bogwillow_x2F__x3C_Path_x3E__x5F_27"  width="14.62" height="14.532" x="-0.011" y="-14.56" transform="matrix(1 0 0 1 43.5996 -59.75)" style="overflow:visible;enable-background:new    ;"/>
				
					<use xlink:href="#FlashAICB_x2F_underground_x5F_bogwillow_x2F__x3C_Path_x3E__x5F_28"  width="17.102" height="16.556" x="-0.033" y="-16.558" transform="matrix(1 0 0 1 39.7002 -36.8501)" style="overflow:visible;enable-background:new    ;"/>
				
					<use xlink:href="#FlashAICB_x2F_underground_x5F_bogwillow_x2F__x3C_Group_x3E__x5F_15"  width="7.186" height="7.345" y="-7.359" transform="matrix(1 0 0 1 14 -58.0498)" style="overflow:visible;opacity:0.5;enable-background:new    ;"/>
				
					<use xlink:href="#FlashAICB_x2F_underground_x5F_bogwillow_x2F__x3C_Group_x3E__x5F_16"  width="7.175" height="7.146" x="-0.009" y="-7.159" transform="matrix(1 0 0 1 34.5 -58.25)" style="overflow:visible;opacity:0.5;enable-background:new    ;"/>
				
					<use xlink:href="#FlashAICB_x2F_underground_x5F_bogwillow_x2F__x3C_Path_x3E__x5F_31"  width="16.406" height="21.115" x="-0.003" y="-21.108" transform="matrix(1 0 0 1 9.7002 -10.3501)" style="overflow:visible;enable-background:new    ;"/>
				
					<use xlink:href="#FlashAICB_x2F_underground_x5F_bogwillow_x2F__x3C_Path_x3E__x5F_32"  width="16.523" height="18.354" x="-0.004" y="-18.362" transform="matrix(1 0 0 1 24.7002 -8.6499)" style="overflow:visible;enable-background:new    ;"/>
				
					<use xlink:href="#FlashAICB_x2F_underground_x5F_bogwillow_x2F__x3C_Path_x3E__x5F_33"  width="16.405" height="16.567" x="-0.002" y="-16.54" transform="matrix(1 0 0 1 39.2002 -20.5498)" style="overflow:visible;enable-background:new    ;"/>
				
					<use xlink:href="#FlashAICB_x2F_underground_x5F_bogwillow_x2F__x3C_Path_x3E__x5F_34"  width="13.886" height="18.217" x="-0.024" y="-18.25" transform="matrix(1 0 0 1 10 -25.9502)" style="overflow:visible;enable-background:new    ;"/>
			</g>
		</g>
	</g>
</symbol>
<use xlink:href="#FlashAICB_x2F_underground_x5F_bogwillow_x2F_Envelope"  width="50.752" height="104.706" x="7.456" y="-113.364" transform="matrix(1 0 0 -1 -7.4502 -8.6499)" style="overflow:visible;"/>
</svg>
