<?xml version="1.0" encoding="iso-8859-1"?>
<!-- Generator: Adobe Illustrator 15.1.0, SVG Export Plug-In . SVG Version: 6.00 Build 0)  -->
<!DOCTYPE svg PUBLIC "-//W3C//DTD SVG 1.1//EN" "http://www.w3.org/Graphics/SVG/1.1/DTD/svg11.dtd">
<svg version="1.1" id="wall_shelf_1" xmlns="http://www.w3.org/2000/svg" xmlns:xlink="http://www.w3.org/1999/xlink" x="0px"
	 y="0px" width="226.8px" height="30px" viewBox="0 0 226.8 30" style="enable-background:new 0 0 226.8 30;" xml:space="preserve">
<g>
	<g>
		<rect y="11.45" style="fill-rule:evenodd;clip-rule:evenodd;fill:#634A38;" width="226.3" height="6.3"/>
		<rect y="14.3" style="fill-rule:evenodd;clip-rule:evenodd;fill:#3E2F23;" width="226.3" height="0.6"/>
		<rect y="15.95" style="fill-rule:evenodd;clip-rule:evenodd;fill:#3E2F23;" width="226.3" height="0.6"/>
		<rect y="11.7" style="fill-rule:evenodd;clip-rule:evenodd;fill:#3E2F23;" width="226.3" height="0.6"/>
		<polygon style="fill-rule:evenodd;clip-rule:evenodd;fill:#4E3B2C;" points="215.2,2.35 226.3,11.45 0,11.45 15.1,2.75 		"/>
		<polygon style="fill-rule:evenodd;clip-rule:evenodd;fill:#3E2F23;" points="19.15,2 6.55,11.85 1.5,11.85 15.6,1.65 		"/>
		<polygon style="fill-rule:evenodd;clip-rule:evenodd;fill:#3E2F23;" points="65.1,2.9 52.5,12.75 47.5,12.75 61.6,2.5 		"/>
		<polygon style="fill-rule:evenodd;clip-rule:evenodd;fill:#3E2F23;" points="138.9,2.55 142.45,2.2 132.35,11.95 127.3,11.95 		
			"/>
		<polygon style="fill-rule:evenodd;clip-rule:evenodd;fill:#3E2F23;" points="111.2,2.55 114.75,2.2 104.65,11.95 99.6,11.95 		"/>
		<polygon style="fill-rule:evenodd;clip-rule:evenodd;fill:#3E2F23;" points="195.45,2.15 198.95,1.8 213.05,12 208.05,12 		"/>
		<polygon style="fill-rule:evenodd;clip-rule:evenodd;fill:#3E2F23;" points="212.65,2.1 226.8,12.35 221.75,12.35 209.15,2.45 		
			"/>
		<polygon style="fill-rule:evenodd;clip-rule:evenodd;fill:#3E2F23;" points="72.6,2.3 76.2,2.55 70.65,12 67.4,12 		"/>
		<polygon style="fill-rule:evenodd;clip-rule:evenodd;fill:#3E2F23;" points="30.3,2.55 33.85,2.8 28.3,12.25 25.05,12.25 		"/>
		<polygon style="fill-rule:evenodd;clip-rule:evenodd;fill:#3E2F23;" points="181.5,2.15 185.1,2.4 179.55,11.85 176.3,11.85 		"/>
		<polygon style="fill-rule:evenodd;clip-rule:evenodd;fill:#3E2F23;" points="46.55,2.65 50.45,2.4 50.45,12.3 46.55,12.1 		"/>
		<polygon style="fill-rule:evenodd;clip-rule:evenodd;fill:#3E2F23;" points="86.65,2.4 90.55,2.15 90.55,12.1 86.65,11.85 		"/>
		<polygon style="fill-rule:evenodd;clip-rule:evenodd;fill:#3E2F23;" points="159.65,3.05 163.55,2.8 163.55,12.75 159.65,12.5 		
			"/>
	</g>
</g>
</svg>
