<?xml version="1.0" encoding="iso-8859-1"?>
<!-- Generator: Adobe Illustrator 15.1.0, SVG Export Plug-In . SVG Version: 6.00 Build 0)  -->
<!DOCTYPE svg PUBLIC "-//W3C//DTD SVG 1.1//EN" "http://www.w3.org/Graphics/SVG/1.1/DTD/svg11.dtd">
<svg version="1.1" id="wall_shelf_2" xmlns="http://www.w3.org/2000/svg" xmlns:xlink="http://www.w3.org/1999/xlink" x="0px"
	 y="0px" width="226.8px" height="30px" viewBox="0 0 226.8 30" style="enable-background:new 0 0 226.8 30;" xml:space="preserve">
<g>
	<g>
		<rect y="11.45" style="fill-rule:evenodd;clip-rule:evenodd;fill:#634A38;" width="226.3" height="6.3"/>
		<rect y="14.3" style="fill-rule:evenodd;clip-rule:evenodd;fill:#3E2F23;" width="226.3" height="0.6"/>
		<rect y="15.95" style="fill-rule:evenodd;clip-rule:evenodd;fill:#3E2F23;" width="226.3" height="0.649"/>
		<rect y="11.7" style="fill-rule:evenodd;clip-rule:evenodd;fill:#3E2F23;" width="226.3" height="0.6"/>
		<polygon style="fill-rule:evenodd;clip-rule:evenodd;fill:#4E3B2C;" points="215.2,2.35 226.3,11.45 0,11.45 15.1,2.75 		"/>
		<polygon style="fill-rule:evenodd;clip-rule:evenodd;fill:#3E2F23;" points="19.15,2 6.55,11.85 1.5,11.85 15.6,1.65 		"/>
		<polygon style="fill-rule:evenodd;clip-rule:evenodd;fill:#3E2F23;" points="100.65,2.25 88.05,12.1 83,12.1 97.1,1.85 		"/>
		<polygon style="fill-rule:evenodd;clip-rule:evenodd;fill:#3E2F23;" points="145.3,12.1 140.25,12.1 127.65,2.25 131.2,1.85 		"/>
		<polygon style="fill-rule:evenodd;clip-rule:evenodd;fill:#3E2F23;" points="182.75,12.35 177.75,12.35 165.15,2.45 168.65,2.1 		
			"/>
		<polygon style="fill-rule:evenodd;clip-rule:evenodd;fill:#3E2F23;" points="212.65,2.1 226.8,12.35 221.75,12.35 209.15,2.45 		
			"/>
		<polygon style="fill-rule:evenodd;clip-rule:evenodd;fill:#3E2F23;" points="36.15,2.65 39.7,2.85 34.15,12.3 30.9,12.3 		"/>
		<polygon style="fill-rule:evenodd;clip-rule:evenodd;fill:#3E2F23;" points="73.3,1.9 76.85,2.15 71.35,11.6 68.05,11.6 		"/>
		<polygon style="fill-rule:evenodd;clip-rule:evenodd;fill:#3E2F23;" points="194.85,2.15 198.45,2.4 192.9,11.85 189.65,11.85 		
			"/>
		<polygon style="fill-rule:evenodd;clip-rule:evenodd;fill:#3E2F23;" points="55.7,2.65 59.6,2.4 59.6,12.3 55.7,12.1 		"/>
		<polygon style="fill-rule:evenodd;clip-rule:evenodd;fill:#3E2F23;" points="113.7,2.4 117.6,2.15 117.6,12.1 113.7,11.85 		"/>
		<polygon style="fill-rule:evenodd;clip-rule:evenodd;fill:#3E2F23;" points="147.6,2.4 151.5,2.15 151.5,12.1 147.6,11.85 		"/>
	</g>
</g>
</svg>
