<?xml version="1.0" encoding="iso-8859-1"?>
<!-- Generator: Adobe Illustrator 15.1.0, SVG Export Plug-In . SVG Version: 6.00 Build 0)  -->
<!DOCTYPE svg PUBLIC "-//W3C//DTD SVG 1.1//EN" "http://www.w3.org/Graphics/SVG/1.1/DTD/svg11.dtd">
<svg version="1.1" id="Layer_1" xmlns="http://www.w3.org/2000/svg" xmlns:xlink="http://www.w3.org/1999/xlink" x="0px" y="0px"
	 width="308.6px" height="191.6px" viewBox="0 0 308.6 191.6" style="enable-background:new 0 0 308.6 191.6;" xml:space="preserve"
	>
<symbol  id="FlashAICB_x2F_front_ground_1_x2F__x3C_Clip_Group_0_x3E_" viewBox="1.425 -161.4 296.9 148.3">
	<g id="Layer_1_55_">
	</g>
	<g>
		<defs>
			<path id="SVGID_1_" d="M296.25-22.65c0.697,2.729,1.388,5.296,2.075,7.7H1.425c1.691-4.433,3.466-9.916,5.325-16.45
				C11.517-48.233,14.6-65.417,16-82.95c1.333-17.1,1.133-34.1-0.6-51c2.467-1.133,4.917-1.933,7.35-2.4
				c2.433-0.433,5.567-0.6,9.4-0.5c3.833,0.1,9.6,0.434,17.3,1c7.7,0.633,15.583,0.767,23.65,0.4c8.1-0.333,17.483-2.65,28.15-6.95
				c10.667-4.267,18.383-7,23.15-8.2c4.733-1.167,13.817-0.983,27.25,0.55c13.434,1.533,22.517,2.617,27.25,3.25s9.25,0.4,13.55-0.7
				c4.3-1.1,6.65-1.767,7.05-2h11.75c9.167,0.167,17.083,0.667,23.75,1.5s11.917,2.233,15.75,4.2c1.933,1,3.183,1.917,3.75,2.75
				l2.7,1.05c2.066,0.767,3.833,1.25,5.3,1.45c1.467,0.2,5.3-0.133,11.5-1c0.333,0.566,0.767,1.183,1.3,1.85
				c1.1,1.3,2.167,2.167,3.2,2.6l2.5,1c1.1,0.4,2.183,1.184,3.25,2.35c0.967,1.033,1.717,2.217,2.25,3.55
				c0.667,1.633,1,3.483,1,5.55c0,1.033,0.183,1.867,0.55,2.5c-0.533,12.533-0.55,25.7-0.05,39.5
				C288.7-61.017,291.45-41.683,296.25-22.65z"/>
		</defs>
		<clipPath id="SVGID_2_">
			<use xlink:href="#SVGID_1_"  style="overflow:visible;"/>
		</clipPath>
		<g id="Layer_3_1_" style="clip-path:url(#SVGID_2_);">
			<g>
				
					<use xlink:href="#FlashAICB_x2F_front_ground_1_x2F__x3C_Path_x3E__x5F_3"  width="63.35" height="145.9" y="-145.9" transform="matrix(1 0 0 1 28.9502 -13.1001)" style="overflow:visible;opacity:0.5;enable-background:new    ;"/>
				
					<use xlink:href="#FlashAICB_x2F_front_ground_1_x2F__x3C_Path_x3E__x5F_2"  width="177.2" height="146.45" x="1" y="-158.9" transform="matrix(1 0 0 1 100.8501 -2.5)" style="overflow:visible;opacity:0.1992;enable-background:new    ;"/>
				
					<use xlink:href="#FlashAICB_x2F_front_ground_1_x2F__x3C_Path_x3E__x5F_1"  width="47.4" height="144.65" x="1.2" y="-158.9" transform="matrix(1 0 0 1 154.7998 -0.7002)" style="overflow:visible;opacity:0.3008;enable-background:new    ;"/>
				
					<use xlink:href="#FlashAICB_x2F_front_ground_1_x2F__x3C_Path_x3E_"  width="36.1" height="144.65" x="0.9" y="-158.9" transform="matrix(1 0 0 1 250.2998 -0.7002)" style="overflow:visible;opacity:0.3008;enable-background:new    ;"/>
			</g>
		</g>
	</g>
	<g id="Layer_4_1_">
	</g>
</symbol>
<symbol  id="FlashAICB_x2F_front_ground_1_x2F__x3C_Group_x3E_" viewBox="0 -11.05 47.25 11.05">
	<g id="Layer_1_62_">
		<g>
			
				<use xlink:href="#FlashAICB_x2F_front_ground_1_x2F__x3C_Path_x3E__x5F_13_x5F_5"  width="8.4" height="4.6" y="-4.6" transform="matrix(1 0 0 1 13.7998 -2.6499)" style="overflow:visible;opacity:0.6992;enable-background:new    ;"/>
			<path style="fill-rule:evenodd;clip-rule:evenodd;fill:#55412D;" d="M26.35-1.55c0-0.4-0.267-0.75-0.8-1.05
				c-0.5-0.3-1.117-0.45-1.85-0.45c-0.733,0-1.35,0.15-1.85,0.45c-0.533,0.3-0.8,0.65-0.8,1.05c0,0.433,0.267,0.8,0.8,1.1
				C22.35-0.15,22.967,0,23.7,0c0.733,0,1.35-0.15,1.85-0.45C26.083-0.75,26.35-1.117,26.35-1.55z"/>
			<path style="fill-rule:evenodd;clip-rule:evenodd;fill:#55412D;" d="M25.85-5.45c0-0.167-0.117-0.316-0.35-0.45S25-6.1,24.7-6.1
				c-0.767,0-1.15,0.217-1.15,0.65c0,0.467,0.383,0.7,1.15,0.7c0.3,0,0.566-0.067,0.8-0.2S25.85-5.25,25.85-5.45z"/>
			<path style="fill-rule:evenodd;clip-rule:evenodd;fill:#55412D;" d="M30.95-9.25c0-0.5-0.4-0.933-1.2-1.3
				c-0.8-0.333-1.783-0.5-2.95-0.5c-1.133,0-2.1,0.167-2.9,0.5c-0.8,0.367-1.2,0.8-1.2,1.3S23.1-8.333,23.9-8
				c0.8,0.367,1.767,0.55,2.9,0.55c1.167,0,2.15-0.183,2.95-0.55C30.55-8.333,30.95-8.75,30.95-9.25z"/>
			
				<use xlink:href="#FlashAICB_x2F_front_ground_1_x2F__x3C_Path_x3E__x5F_9_x5F_5"  width="5.9" height="3.05" y="-3.05" transform="matrix(1 0 0 1 30.4502 -4.75)" style="overflow:visible;opacity:0.6992;enable-background:new    ;"/>
			<path style="fill-rule:evenodd;clip-rule:evenodd;fill:#55412D;" d="M40.3-3.05c0-0.333-0.233-0.6-0.7-0.8
				c-0.434-0.233-0.983-0.35-1.65-0.35c-0.667,0-1.233,0.117-1.7,0.35c-0.467,0.2-0.7,0.467-0.7,0.8c0,0.333,0.233,0.6,0.7,0.8
				c0.467,0.233,1.033,0.35,1.7,0.35c0.667,0,1.216-0.117,1.65-0.35C40.067-2.45,40.3-2.717,40.3-3.05z"/>
			<path style="fill-rule:evenodd;clip-rule:evenodd;fill:#55412D;" d="M38.85-5.7c0-0.4-0.3-0.6-0.9-0.6C37.317-6.3,37-6.1,37-5.7
				c0,0.367,0.317,0.55,0.95,0.55C38.55-5.15,38.85-5.333,38.85-5.7z"/>
			
				<use xlink:href="#FlashAICB_x2F_front_ground_1_x2F__x3C_Path_x3E__x5F_6_x5F_5"  width="2.15" height="1.15" y="-1.15" transform="matrix(1 0 0 1 31.6001 -0.2002)" style="overflow:visible;opacity:0.5;enable-background:new    ;"/>
			
				<use xlink:href="#FlashAICB_x2F_front_ground_1_x2F__x3C_Path_x3E__x5F_5_x5F_5"  width="2.65" height="1.1" y="-1.1" transform="matrix(1 0 0 1 44.6001 -2.5)" style="overflow:visible;opacity:0.5;enable-background:new    ;"/>
			
				<use xlink:href="#FlashAICB_x2F_front_ground_1_x2F__x3C_Path_x3E__x5F_4_x5F_5"  width="4.15" height="2.1" y="-2.1" transform="matrix(1 0 0 1 8.7002 -8.2002)" style="overflow:visible;opacity:0.5;enable-background:new    ;"/>
			<path style="fill-rule:evenodd;clip-rule:evenodd;fill:#55412D;" d="M13.35-6.1c0-0.167-0.1-0.3-0.3-0.4
				c-0.233-0.133-0.5-0.2-0.8-0.2S11.7-6.633,11.5-6.5c-0.2,0.1-0.3,0.233-0.3,0.4c0,0.367,0.35,0.55,1.05,0.55
				C12.983-5.55,13.35-5.733,13.35-6.1z"/>
			<path style="fill-rule:evenodd;clip-rule:evenodd;fill:#55412D;" d="M2.15-9.25c0-0.433-0.367-0.65-1.1-0.65
				c-0.267,0-0.517,0.066-0.75,0.2C0.1-9.567,0-9.417,0-9.25S0.1-8.933,0.3-8.8c0.233,0.133,0.483,0.2,0.75,0.2
				c0.3,0,0.567-0.066,0.8-0.2C2.05-8.933,2.15-9.083,2.15-9.25z"/>
			
				<use xlink:href="#FlashAICB_x2F_front_ground_1_x2F__x3C_Path_x3E__x5F_1_x5F_6"  width="4.95" height="2.5" y="-2.5" transform="matrix(1 0 0 1 1.9502 -5.1499)" style="overflow:visible;opacity:0.6992;enable-background:new    ;"/>
			
				<use xlink:href="#FlashAICB_x2F_front_ground_1_x2F__x3C_Path_x3E__x5F_14"  width="2.15" height="1.2" y="-1.2" transform="matrix(1 0 0 1 40.1499 -4.4502)" style="overflow:visible;opacity:0.6992;enable-background:new    ;"/>
		</g>
	</g>
</symbol>
<symbol  id="FlashAICB_x2F_front_ground_1_x2F__x3C_Group_x3E__x5F_1" viewBox="0 -19.4 95.95 19.4">
	<g id="Layer_1_61_">
		<g>
			
				<use xlink:href="#FlashAICB_x2F_front_ground_1_x2F__x3C_Path_x3E__x5F_13_x5F_4"  width="17.05" height="8" y="-8" transform="matrix(1 0 0 1 28.1001 -4.7002)" style="overflow:visible;opacity:0.6992;enable-background:new    ;"/>
			<path style="fill-rule:evenodd;clip-rule:evenodd;fill:#55412D;" d="M53.5-2.7c0-0.733-0.517-1.35-1.55-1.85
				c-1.067-0.534-2.333-0.8-3.8-0.8s-2.733,0.267-3.8,0.8c-1.033,0.5-1.55,1.117-1.55,1.85c0,0.733,0.517,1.367,1.55,1.9
				c1.066,0.533,2.333,0.8,3.8,0.8s2.733-0.267,3.8-0.8C52.983-1.333,53.5-1.967,53.5-2.7z"/>
			<path style="fill-rule:evenodd;clip-rule:evenodd;fill:#55412D;" d="M52.5-9.55c0-0.333-0.233-0.6-0.7-0.8
				c-0.433-0.233-0.983-0.35-1.65-0.35c-0.667,0-1.217,0.117-1.65,0.35c-0.467,0.2-0.7,0.467-0.7,0.8c0,0.333,0.233,0.617,0.7,0.85
				c0.467,0.233,1.017,0.35,1.65,0.35s1.184-0.117,1.65-0.35C52.267-8.933,52.5-9.217,52.5-9.55z"/>
			<path style="fill-rule:evenodd;clip-rule:evenodd;fill:#55412D;" d="M62.85-16.25c0-0.867-0.817-1.617-2.45-2.25
				c-1.633-0.6-3.6-0.9-5.9-0.9c-2.333,0-4.3,0.3-5.9,0.9c-1.633,0.633-2.45,1.383-2.45,2.25c0,0.9,0.817,1.65,2.45,2.25
				c1.6,0.633,3.566,0.95,5.9,0.95c2.3,0,4.267-0.317,5.9-0.95C62.033-14.6,62.85-15.35,62.85-16.25z"/>
			
				<use xlink:href="#FlashAICB_x2F_front_ground_1_x2F__x3C_Path_x3E__x5F_9_x5F_4"  width="12" height="5.35" y="-5.35" transform="matrix(1 0 0 1 61.8501 -8.3501)" style="overflow:visible;opacity:0.6992;enable-background:new    ;"/>
			<path style="fill-rule:evenodd;clip-rule:evenodd;fill:#55412D;" d="M80.45-3.95c0.966-0.4,1.45-0.867,1.45-1.4
				c0-0.566-0.483-1.033-1.45-1.4c-0.934-0.4-2.067-0.6-3.4-0.6c-1.333,0-2.483,0.2-3.45,0.6c-0.934,0.367-1.4,0.833-1.4,1.4
				c0,0.567,0.466,1.033,1.4,1.4c0.967,0.4,2.117,0.6,3.45,0.6C78.383-3.35,79.517-3.55,80.45-3.95z"/>
			<path style="fill-rule:evenodd;clip-rule:evenodd;fill:#55412D;" d="M78.9-10.05c0-0.267-0.183-0.5-0.55-0.7s-0.8-0.3-1.3-0.3
				s-0.933,0.1-1.3,0.3s-0.55,0.433-0.55,0.7c0,0.267,0.183,0.5,0.55,0.7c0.367,0.2,0.8,0.3,1.3,0.3s0.934-0.1,1.3-0.3
				C78.717-9.55,78.9-9.783,78.9-10.05z"/>
			
				<use xlink:href="#FlashAICB_x2F_front_ground_1_x2F__x3C_Path_x3E__x5F_6_x5F_4"  width="4.3" height="2" y="-2" transform="matrix(1 0 0 1 64.2002 -0.3501)" style="overflow:visible;opacity:0.5;enable-background:new    ;"/>
			
				<use xlink:href="#FlashAICB_x2F_front_ground_1_x2F__x3C_Path_x3E__x5F_5_x5F_4"  width="5.35" height="2" y="-2" transform="matrix(1 0 0 1 90.6001 -4.3501)" style="overflow:visible;opacity:0.5;enable-background:new    ;"/>
			
				<use xlink:href="#FlashAICB_x2F_front_ground_1_x2F__x3C_Path_x3E__x5F_4_x5F_4"  width="8.35" height="3.65" y="-3.65" transform="matrix(1 0 0 1 17.7002 -14.3999)" style="overflow:visible;opacity:0.5;enable-background:new    ;"/>
			<path style="fill-rule:evenodd;clip-rule:evenodd;fill:#55412D;" d="M27.1-10.7c0-0.267-0.217-0.5-0.65-0.7
				c-0.434-0.2-0.95-0.3-1.55-0.3s-1.1,0.1-1.5,0.3c-0.433,0.2-0.65,0.433-0.65,0.7c0,0.267,0.217,0.5,0.65,0.7
				c0.4,0.2,0.9,0.3,1.5,0.3s1.117-0.1,1.55-0.3C26.883-10.2,27.1-10.433,27.1-10.7z"/>
			<path style="fill-rule:evenodd;clip-rule:evenodd;fill:#55412D;" d="M4.35-16.25c0-0.3-0.217-0.567-0.65-0.8
				c-0.434-0.233-0.95-0.35-1.55-0.35s-1.1,0.117-1.5,0.35C0.217-16.817,0-16.55,0-16.25c0,0.333,0.217,0.617,0.65,0.85
				c0.4,0.233,0.9,0.35,1.5,0.35s1.117-0.117,1.55-0.35C4.133-15.633,4.35-15.917,4.35-16.25z"/>
			
				<use xlink:href="#FlashAICB_x2F_front_ground_1_x2F__x3C_Path_x3E__x5F_1_x5F_5"  width="10.05" height="4.35" y="-4.35" transform="matrix(1 0 0 1 4 -9.0498)" style="overflow:visible;opacity:0.6992;enable-background:new    ;"/>
			
				<use xlink:href="#FlashAICB_x2F_front_ground_1_x2F__x3C_Path_x3E__x5F_12"  width="4.35" height="2.15" y="-2.15" transform="matrix(1 0 0 1 81.5498 -7.7998)" style="overflow:visible;opacity:0.6992;enable-background:new    ;"/>
		</g>
	</g>
</symbol>
<symbol  id="FlashAICB_x2F_front_ground_1_x2F__x3C_Group_x3E__x5F_2" viewBox="0 -9.4 46.4 9.4">
	<g id="Layer_1_60_">
		<g>
			
				<use xlink:href="#FlashAICB_x2F_front_ground_1_x2F__x3C_Path_x3E__x5F_13_x5F_3"  width="8.25" height="3.9" y="-3.9" transform="matrix(1 0 0 1 13.6001 -2.25)" style="overflow:visible;opacity:0.6992;enable-background:new    ;"/>
			<path style="fill-rule:evenodd;clip-rule:evenodd;fill:#55412D;" d="M25.9-1.3c0-0.367-0.25-0.667-0.75-0.9
				C24.617-2.467,24-2.6,23.3-2.6c-0.733,0-1.35,0.133-1.85,0.4c-0.5,0.233-0.75,0.534-0.75,0.9s0.25,0.667,0.75,0.9
				C21.95-0.133,22.567,0,23.3,0c0.7,0,1.317-0.133,1.85-0.4C25.65-0.667,25.9-0.967,25.9-1.3z"/>
			<path style="fill-rule:evenodd;clip-rule:evenodd;fill:#55412D;" d="M25.4-4.6c0-0.4-0.383-0.6-1.15-0.6
				c-0.733,0-1.1,0.2-1.1,0.6c0,0.367,0.367,0.55,1.1,0.55C25.017-4.05,25.4-4.233,25.4-4.6z"/>
			<path style="fill-rule:evenodd;clip-rule:evenodd;fill:#55412D;" d="M30.4-7.85c0-0.433-0.4-0.8-1.2-1.1
				c-0.767-0.3-1.717-0.45-2.85-0.45c-1.1,0-2.05,0.15-2.85,0.45c-0.8,0.3-1.2,0.667-1.2,1.1c0,0.434,0.4,0.8,1.2,1.1
				s1.75,0.45,2.85,0.45c1.133,0,2.083-0.15,2.85-0.45C30-7.05,30.4-7.417,30.4-7.85z"/>
			
				<use xlink:href="#FlashAICB_x2F_front_ground_1_x2F__x3C_Path_x3E__x5F_9_x5F_3"  width="5.85" height="2.6" y="-2.6" transform="matrix(1 0 0 1 29.8999 -4.0498)" style="overflow:visible;opacity:0.6992;enable-background:new    ;"/>
			<path style="fill-rule:evenodd;clip-rule:evenodd;fill:#55412D;" d="M39.65-2.6c0-0.267-0.233-0.5-0.7-0.7
				c-0.434-0.167-0.983-0.25-1.65-0.25c-0.667,0-1.216,0.083-1.65,0.25c-0.467,0.2-0.7,0.433-0.7,0.7s0.233,0.5,0.7,0.7
				c0.467,0.2,1.017,0.3,1.65,0.3c0.667,0,1.217-0.1,1.65-0.3C39.417-2.1,39.65-2.333,39.65-2.6z"/>
			<path style="fill-rule:evenodd;clip-rule:evenodd;fill:#55412D;" d="M38.15-4.85c0-0.333-0.283-0.5-0.85-0.5
				c-0.6,0-0.9,0.167-0.9,0.5c0,0.333,0.3,0.5,0.9,0.5C37.867-4.35,38.15-4.517,38.15-4.85z"/>
			
				<use xlink:href="#FlashAICB_x2F_front_ground_1_x2F__x3C_Path_x3E__x5F_6_x5F_3"  width="2.1" height="1" y="-1" transform="matrix(1 0 0 1 31.0498 -0.1499)" style="overflow:visible;opacity:0.5;enable-background:new    ;"/>
			
				<use xlink:href="#FlashAICB_x2F_front_ground_1_x2F__x3C_Path_x3E__x5F_5_x5F_3"  width="2.55" height="1" y="-1" transform="matrix(1 0 0 1 43.8501 -2.1001)" style="overflow:visible;opacity:0.5;enable-background:new    ;"/>
			
				<use xlink:href="#FlashAICB_x2F_front_ground_1_x2F__x3C_Path_x3E__x5F_4_x5F_3"  width="4.05" height="1.8" y="-1.8" transform="matrix(1 0 0 1 8.5498 -6.9502)" style="overflow:visible;opacity:0.5;enable-background:new    ;"/>
			<path style="fill-rule:evenodd;clip-rule:evenodd;fill:#55412D;" d="M13.1-5.2c0-0.3-0.35-0.45-1.05-0.45
				C11.35-5.65,11-5.5,11-5.2c0,0.333,0.35,0.5,1.05,0.5C12.75-4.7,13.1-4.867,13.1-5.2z"/>
			<path style="fill-rule:evenodd;clip-rule:evenodd;fill:#55412D;" d="M2.1-7.85c0-0.367-0.35-0.55-1.05-0.55
				C0.35-8.4,0-8.217,0-7.85S0.35-7.3,1.05-7.3C1.75-7.3,2.1-7.483,2.1-7.85z"/>
			
				<use xlink:href="#FlashAICB_x2F_front_ground_1_x2F__x3C_Path_x3E__x5F_1_x5F_4"  width="4.85" height="2.15" y="-2.15" transform="matrix(1 0 0 1 1.9502 -4.3501)" style="overflow:visible;opacity:0.6992;enable-background:new    ;"/>
			
				<use xlink:href="#FlashAICB_x2F_front_ground_1_x2F__x3C_Path_x3E__x5F_11"  width="2.1" height="1.05" y="-1.05" transform="matrix(1 0 0 1 39.4502 -3.75)" style="overflow:visible;opacity:0.6992;enable-background:new    ;"/>
		</g>
	</g>
</symbol>
<symbol  id="FlashAICB_x2F_front_ground_1_x2F__x3C_Group_x3E__x5F_3" viewBox="0 -7.15 35.5 7.15">
	<g id="Layer_1_59_">
		<g>
			
				<use xlink:href="#FlashAICB_x2F_front_ground_1_x2F__x3C_Path_x3E__x5F_13_x5F_2"  width="6.3" height="2.95" y="-2.95" transform="matrix(1 0 0 1 18.7998 -1.7002)" style="overflow:visible;opacity:0.6992;enable-background:new    ;"/>
			<path style="fill-rule:evenodd;clip-rule:evenodd;fill:#55412D;" d="M15.7-0.95c0,0.267,0.2,0.5,0.6,0.7
				C16.667-0.083,17.133,0,17.7,0c0.566,0,1.033-0.083,1.4-0.25c0.367-0.2,0.55-0.433,0.55-0.7c0-0.267-0.183-0.5-0.55-0.7
				c-0.4-0.2-0.867-0.3-1.4-0.3c-0.534,0-1,0.1-1.4,0.3C15.9-1.45,15.7-1.217,15.7-0.95z"/>
			<path style="fill-rule:evenodd;clip-rule:evenodd;fill:#55412D;" d="M16.1-3.5c0,0.3,0.283,0.45,0.85,0.45
				c0.566,0,0.85-0.15,0.85-0.45s-0.283-0.45-0.85-0.45C16.383-3.95,16.1-3.8,16.1-3.5z"/>
			<path style="fill-rule:evenodd;clip-rule:evenodd;fill:#55412D;" d="M12.25-5.95c0,0.333,0.3,0.6,0.9,0.8
				c0.6,0.233,1.333,0.35,2.2,0.35s1.6-0.117,2.2-0.35c0.6-0.2,0.9-0.467,0.9-0.8c0-0.333-0.3-0.617-0.9-0.85
				c-0.633-0.233-1.367-0.35-2.2-0.35c-0.833,0-1.567,0.117-2.2,0.35C12.55-6.567,12.25-6.283,12.25-5.95z"/>
			
				<use xlink:href="#FlashAICB_x2F_front_ground_1_x2F__x3C_Path_x3E__x5F_9_x5F_2"  width="4.45" height="2" y="-2" transform="matrix(1 0 0 1 8.2002 -3.0498)" style="overflow:visible;opacity:0.6992;enable-background:new    ;"/>
			<path style="fill-rule:evenodd;clip-rule:evenodd;fill:#55412D;" d="M5.2-1.95c0,0.2,0.183,0.367,0.55,0.5
				C6.083-1.283,6.5-1.2,7-1.2s0.933-0.083,1.3-0.25c0.333-0.133,0.5-0.3,0.5-0.5c0-0.2-0.167-0.383-0.5-0.55
				C7.933-2.633,7.5-2.7,7-2.7S6.083-2.633,5.75-2.5C5.383-2.333,5.2-2.15,5.2-1.95z"/>
			<path style="fill-rule:evenodd;clip-rule:evenodd;fill:#55412D;" d="M6.3-3.7c0,0.267,0.233,0.4,0.7,0.4s0.7-0.133,0.7-0.4
				c0-0.233-0.233-0.35-0.7-0.35S6.3-3.933,6.3-3.7z"/>
			
				<use xlink:href="#FlashAICB_x2F_front_ground_1_x2F__x3C_Path_x3E__x5F_6_x5F_2"  width="1.6" height="0.75" y="-0.75" transform="matrix(1 0 0 1 10.1499 -0.1001)" style="overflow:visible;opacity:0.5;enable-background:new    ;"/>
			
				<use xlink:href="#FlashAICB_x2F_front_ground_1_x2F__x3C_Path_x3E__x5F_5_x5F_2"  width="2" height="0.75" y="-0.75" transform="matrix(1 0 0 1 0 -1.6001)" style="overflow:visible;opacity:0.5;enable-background:new    ;"/>
			
				<use xlink:href="#FlashAICB_x2F_front_ground_1_x2F__x3C_Path_x3E__x5F_4_x5F_2"  width="3.1" height="1.35" y="-1.35" transform="matrix(1 0 0 1 25.8501 -5.2998)" style="overflow:visible;opacity:0.5;enable-background:new    ;"/>
			<path style="fill-rule:evenodd;clip-rule:evenodd;fill:#55412D;" d="M25.5-3.95c0,0.267,0.267,0.4,0.8,0.4
				c0.534,0,0.8-0.133,0.8-0.4c0-0.233-0.267-0.35-0.8-0.35C25.767-4.3,25.5-4.183,25.5-3.95z"/>
			<path style="fill-rule:evenodd;clip-rule:evenodd;fill:#55412D;" d="M33.9-5.95c0,0.267,0.267,0.4,0.8,0.4
				c0.533,0,0.8-0.133,0.8-0.4c0-0.3-0.267-0.45-0.8-0.45C34.167-6.4,33.9-6.25,33.9-5.95z"/>
			
				<use xlink:href="#FlashAICB_x2F_front_ground_1_x2F__x3C_Path_x3E__x5F_1_x5F_3"  width="3.7" height="1.6" y="-1.6" transform="matrix(1 0 0 1 30.2998 -3.2998)" style="overflow:visible;opacity:0.6992;enable-background:new    ;"/>
			
				<use xlink:href="#FlashAICB_x2F_front_ground_1_x2F__x3C_Path_x3E__x5F_10"  width="1.6" height="0.8" y="-0.8" transform="matrix(1 0 0 1 3.75 -2.8501)" style="overflow:visible;opacity:0.6992;enable-background:new    ;"/>
		</g>
	</g>
</symbol>
<symbol  id="FlashAICB_x2F_front_ground_1_x2F__x3C_Group_x3E__x5F_4" viewBox="0 -15.4 76.4 15.4">
	<g id="Layer_1_58_">
		<g>
			
				<use xlink:href="#FlashAICB_x2F_front_ground_1_x2F__x3C_Path_x3E__x5F_13_x5F_1"  width="13.6" height="6.4" y="-6.4" transform="matrix(1 0 0 1 40.4502 -3.7002)" style="overflow:visible;opacity:0.6992;enable-background:new    ;"/>
			<path style="fill-rule:evenodd;clip-rule:evenodd;fill:#55412D;" d="M41.1-0.6c0.833-0.433,1.25-0.933,1.25-1.5
				c0-0.6-0.417-1.117-1.25-1.55c-0.867-0.4-1.883-0.6-3.05-0.6c-1.167,0-2.167,0.2-3,0.6C34.217-3.217,33.8-2.7,33.8-2.1
				c0,0.567,0.417,1.067,1.25,1.5c0.833,0.4,1.833,0.6,3,0.6C39.217,0,40.233-0.2,41.1-0.6z"/>
			<path style="fill-rule:evenodd;clip-rule:evenodd;fill:#55412D;" d="M34.6-7.55c0,0.233,0.183,0.45,0.55,0.65
				c0.367,0.167,0.8,0.25,1.3,0.25c0.533,0,0.983-0.083,1.35-0.25c0.367-0.2,0.55-0.417,0.55-0.65c0-0.267-0.184-0.5-0.55-0.7
				c-0.367-0.167-0.816-0.25-1.35-0.25c-0.5,0-0.934,0.083-1.3,0.25C34.783-8.05,34.6-7.817,34.6-7.55z"/>
			<path style="fill-rule:evenodd;clip-rule:evenodd;fill:#55412D;" d="M26.35-12.9c0,0.7,0.65,1.3,1.95,1.8
				c1.3,0.5,2.867,0.75,4.7,0.75s3.4-0.25,4.7-0.75c1.3-0.5,1.95-1.1,1.95-1.8c0-0.7-0.65-1.3-1.95-1.8
				c-1.267-0.466-2.833-0.7-4.7-0.7c-1.833,0-3.4,0.233-4.7,0.7C27-14.2,26.35-13.6,26.35-12.9z"/>
			
				<use xlink:href="#FlashAICB_x2F_front_ground_1_x2F__x3C_Path_x3E__x5F_9_x5F_1"  width="9.55" height="4.25" y="-4.25" transform="matrix(1 0 0 1 17.6001 -6.6499)" style="overflow:visible;opacity:0.6992;enable-background:new    ;"/>
			<path style="fill-rule:evenodd;clip-rule:evenodd;fill:#55412D;" d="M11.2-4.25c0,0.433,0.367,0.817,1.1,1.15
				c0.767,0.3,1.684,0.45,2.75,0.45c1.067,0,1.983-0.15,2.75-0.45c0.733-0.333,1.1-0.717,1.1-1.15s-0.367-0.8-1.1-1.1
				c-0.767-0.333-1.683-0.5-2.75-0.5c-1.066,0-1.983,0.167-2.75,0.5C11.567-5.05,11.2-4.683,11.2-4.25z"/>
			<path style="fill-rule:evenodd;clip-rule:evenodd;fill:#55412D;" d="M13.6-7.95c0,0.534,0.483,0.8,1.45,0.8
				c0.4,0,0.75-0.083,1.05-0.25c0.267-0.133,0.4-0.317,0.4-0.55c0-0.233-0.133-0.417-0.4-0.55c-0.3-0.167-0.65-0.25-1.05-0.25
				C14.083-8.75,13.6-8.483,13.6-7.95z"/>
			
				<use xlink:href="#FlashAICB_x2F_front_ground_1_x2F__x3C_Path_x3E__x5F_6_x5F_1"  width="3.45" height="1.6" y="-1.6" transform="matrix(1 0 0 1 21.8501 -0.25)" style="overflow:visible;opacity:0.5;enable-background:new    ;"/>
			
				<use xlink:href="#FlashAICB_x2F_front_ground_1_x2F__x3C_Path_x3E__x5F_5_x5F_1"  width="4.25" height="1.6" y="-1.6" transform="matrix(1 0 0 1 0 -3.4502)" style="overflow:visible;opacity:0.5;enable-background:new    ;"/>
			
				<use xlink:href="#FlashAICB_x2F_front_ground_1_x2F__x3C_Path_x3E__x5F_4_x5F_1"  width="6.65" height="2.95" y="-2.95" transform="matrix(1 0 0 1 55.6499 -11.3999)" style="overflow:visible;opacity:0.5;enable-background:new    ;"/>
			<path style="fill-rule:evenodd;clip-rule:evenodd;fill:#55412D;" d="M54.85-8.5c0,0.233,0.167,0.417,0.5,0.55
				c0.333,0.167,0.733,0.25,1.2,0.25c0.467,0,0.883-0.083,1.25-0.25c0.333-0.133,0.5-0.316,0.5-0.55s-0.167-0.417-0.5-0.55
				c-0.367-0.167-0.783-0.25-1.25-0.25c-0.466,0-0.867,0.083-1.2,0.25C55.017-8.917,54.85-8.733,54.85-8.5z"/>
			<path style="fill-rule:evenodd;clip-rule:evenodd;fill:#55412D;" d="M72.95-12.9c0,0.267,0.167,0.5,0.5,0.7
				c0.333,0.167,0.733,0.25,1.2,0.25c0.5,0,0.917-0.083,1.25-0.25c0.333-0.2,0.5-0.433,0.5-0.7c0-0.233-0.167-0.45-0.5-0.65
				c-0.367-0.167-0.783-0.25-1.25-0.25s-0.867,0.083-1.2,0.25C73.117-13.383,72.95-13.167,72.95-12.9z"/>
			
				<use xlink:href="#FlashAICB_x2F_front_ground_1_x2F__x3C_Path_x3E__x5F_1_x5F_2"  width="8" height="3.45" y="-3.45" transform="matrix(1 0 0 1 65.2002 -7.1499)" style="overflow:visible;opacity:0.6992;enable-background:new    ;"/>
			
				<use xlink:href="#FlashAICB_x2F_front_ground_1_x2F__x3C_Path_x3E__x5F_8"  width="3.45" height="1.75" y="-1.75" transform="matrix(1 0 0 1 8 -6.1499)" style="overflow:visible;opacity:0.6992;enable-background:new    ;"/>
		</g>
	</g>
</symbol>
<symbol  id="FlashAICB_x2F_front_ground_1_x2F__x3C_Group_x3E__x5F_5" viewBox="0 -9.4 46.4 9.4">
	<g id="Layer_1_57_">
		<g>
			
				<use xlink:href="#FlashAICB_x2F_front_ground_1_x2F__x3C_Path_x3E__x5F_13_x5F_0"  width="8.25" height="3.9" y="-3.9" transform="matrix(1 0 0 1 13.6001 -2.25)" style="overflow:visible;opacity:0.6992;enable-background:new    ;"/>
			<path style="fill-rule:evenodd;clip-rule:evenodd;fill:#55412D;" d="M25.85-1.3c0-0.367-0.25-0.667-0.75-0.9
				c-0.5-0.267-1.1-0.4-1.8-0.4c-0.733,0-1.35,0.133-1.85,0.4c-0.5,0.233-0.75,0.534-0.75,0.9s0.25,0.667,0.75,0.9
				C21.95-0.133,22.567,0,23.3,0c0.7,0,1.3-0.133,1.8-0.4C25.6-0.633,25.85-0.933,25.85-1.3z"/>
			<path style="fill-rule:evenodd;clip-rule:evenodd;fill:#55412D;" d="M25.4-4.6c0-0.167-0.117-0.3-0.35-0.4
				c-0.2-0.133-0.466-0.2-0.8-0.2c-0.3,0-0.567,0.067-0.8,0.2c-0.233,0.1-0.35,0.233-0.35,0.4c0,0.367,0.383,0.55,1.15,0.55
				S25.4-4.233,25.4-4.6z"/>
			<path style="fill-rule:evenodd;clip-rule:evenodd;fill:#55412D;" d="M30.4-7.85c0-0.433-0.4-0.8-1.2-1.1
				c-0.767-0.3-1.717-0.45-2.85-0.45c-1.1,0-2.05,0.15-2.85,0.45c-0.8,0.3-1.2,0.667-1.2,1.1c0,0.434,0.4,0.8,1.2,1.1
				s1.75,0.45,2.85,0.45c1.133,0,2.083-0.15,2.85-0.45C30-7.05,30.4-7.417,30.4-7.85z"/>
			
				<use xlink:href="#FlashAICB_x2F_front_ground_1_x2F__x3C_Path_x3E__x5F_9_x5F_0"  width="5.85" height="2.6" y="-2.6" transform="matrix(1 0 0 1 29.8999 -4.0498)" style="overflow:visible;opacity:0.6992;enable-background:new    ;"/>
			<path style="fill-rule:evenodd;clip-rule:evenodd;fill:#55412D;" d="M39.6-2.6c0-0.267-0.233-0.483-0.7-0.65
				c-0.433-0.2-0.967-0.3-1.6-0.3s-1.183,0.1-1.65,0.3c-0.467,0.167-0.7,0.383-0.7,0.65s0.233,0.5,0.7,0.7
				c0.467,0.2,1.017,0.3,1.65,0.3s1.167-0.1,1.6-0.3C39.367-2.1,39.6-2.333,39.6-2.6z"/>
			<path style="fill-rule:evenodd;clip-rule:evenodd;fill:#55412D;" d="M38.15-4.85c0-0.333-0.283-0.5-0.85-0.5
				c-0.6,0-0.9,0.167-0.9,0.5c0,0.333,0.3,0.5,0.9,0.5C37.867-4.35,38.15-4.517,38.15-4.85z"/>
			
				<use xlink:href="#FlashAICB_x2F_front_ground_1_x2F__x3C_Path_x3E__x5F_6_x5F_0"  width="2.1" height="1" y="-1" transform="matrix(1 0 0 1 31.0498 -0.1499)" style="overflow:visible;opacity:0.5;enable-background:new    ;"/>
			
				<use xlink:href="#FlashAICB_x2F_front_ground_1_x2F__x3C_Path_x3E__x5F_5_x5F_0"  width="2.55" height="0.95" y="-0.95" transform="matrix(1 0 0 1 43.8501 -2.1001)" style="overflow:visible;opacity:0.5;enable-background:new    ;"/>
			
				<use xlink:href="#FlashAICB_x2F_front_ground_1_x2F__x3C_Path_x3E__x5F_4_x5F_0"  width="4.05" height="1.8" y="-1.8" transform="matrix(1 0 0 1 8.5498 -6.9502)" style="overflow:visible;opacity:0.5;enable-background:new    ;"/>
			<path style="fill-rule:evenodd;clip-rule:evenodd;fill:#55412D;" d="M13.1-5.2c0-0.3-0.35-0.45-1.05-0.45
				C11.35-5.65,11-5.5,11-5.2c0,0.333,0.35,0.5,1.05,0.5C12.75-4.7,13.1-4.867,13.1-5.2z"/>
			<path style="fill-rule:evenodd;clip-rule:evenodd;fill:#55412D;" d="M2.1-7.85c0-0.367-0.35-0.55-1.05-0.55
				C0.35-8.4,0-8.217,0-7.85S0.35-7.3,1.05-7.3C1.75-7.3,2.1-7.483,2.1-7.85z"/>
			
				<use xlink:href="#FlashAICB_x2F_front_ground_1_x2F__x3C_Path_x3E__x5F_1_x5F_1"  width="4.85" height="2.1" y="-2.1" transform="matrix(1 0 0 1 1.9502 -4.3501)" style="overflow:visible;opacity:0.6992;enable-background:new    ;"/>
			
				<use xlink:href="#FlashAICB_x2F_front_ground_1_x2F__x3C_Path_x3E__x5F_7"  width="2.1" height="1.05" y="-1.05" transform="matrix(1 0 0 1 39.4502 -3.75)" style="overflow:visible;opacity:0.6992;enable-background:new    ;"/>
		</g>
	</g>
</symbol>
<symbol  id="FlashAICB_x2F_front_ground_1_x2F__x3C_Group_x3E__x5F_6" viewBox="17.75 -13.75 57.05 13.75">
	<g id="Layer_1_56_">
		<g>
			
				<use xlink:href="#FlashAICB_x2F_front_ground_1_x2F__x3C_Path_x3E__x5F_13"  width="13.3" height="6.25" y="-6.25" transform="matrix(1 0 0 1 21.8999 -3.6499)" style="overflow:visible;opacity:0.6992;enable-background:new    ;"/>
			<path style="fill-rule:evenodd;clip-rule:evenodd;fill:#55412D;" d="M41.7-2.1c0-0.566-0.4-1.066-1.2-1.5
				c-0.833-0.4-1.817-0.6-2.95-0.6S35.433-4,34.6-3.6c-0.833,0.434-1.25,0.934-1.25,1.5c0,0.567,0.417,1.067,1.25,1.5
				C35.433-0.2,36.417,0,37.55,0s2.117-0.2,2.95-0.6C41.3-1.033,41.7-1.533,41.7-2.1z"/>
			<path style="fill-rule:evenodd;clip-rule:evenodd;fill:#55412D;" d="M40.4-6.8c0.333-0.2,0.5-0.417,0.5-0.65
				c0-0.267-0.167-0.483-0.5-0.65c-0.367-0.167-0.8-0.25-1.3-0.25s-0.934,0.083-1.3,0.25c-0.367,0.2-0.55,0.417-0.55,0.65
				c0,0.233,0.183,0.45,0.55,0.65c0.367,0.167,0.8,0.25,1.3,0.25S40.033-6.633,40.4-6.8z"/>
			<path style="fill-rule:evenodd;clip-rule:evenodd;fill:#55412D;" d="M49-11.25c0-0.667-0.633-1.25-1.9-1.75s-2.8-0.75-4.6-0.75
				S39.167-13.5,37.9-13c-1.3,0.5-1.95,1.083-1.95,1.75S36.6-10,37.9-9.5c1.267,0.467,2.8,0.7,4.6,0.7s3.333-0.233,4.6-0.7
				C48.367-10,49-10.583,49-11.25z"/>
			
				<use xlink:href="#FlashAICB_x2F_front_ground_1_x2F__x3C_Path_x3E__x5F_9"  width="9.4" height="4.15" y="-4.15" transform="matrix(1 0 0 1 48.2002 -6.5498)" style="overflow:visible;opacity:0.6992;enable-background:new    ;"/>
			<path style="fill-rule:evenodd;clip-rule:evenodd;fill:#55412D;" d="M63.85-4.2c0-0.433-0.367-0.8-1.1-1.1
				c-0.767-0.3-1.667-0.45-2.7-0.45c-1.033,0-1.917,0.15-2.65,0.45c-0.733,0.3-1.1,0.667-1.1,1.1c0,0.434,0.367,0.817,1.1,1.15
				c0.733,0.3,1.617,0.45,2.65,0.45c1.067,0,1.967-0.15,2.7-0.45C63.483-3.383,63.85-3.767,63.85-4.2z"/>
			<path style="fill-rule:evenodd;clip-rule:evenodd;fill:#55412D;" d="M61.5-7.85c0-0.2-0.133-0.383-0.4-0.55
				c-0.3-0.133-0.65-0.2-1.05-0.2c-0.367,0-0.7,0.067-1,0.2c-0.267,0.167-0.4,0.35-0.4,0.55c0,0.233,0.133,0.417,0.4,0.55
				c0.3,0.167,0.633,0.25,1,0.25c0.4,0,0.75-0.083,1.05-0.25C61.367-7.433,61.5-7.617,61.5-7.85z"/>
			
				<use xlink:href="#FlashAICB_x2F_front_ground_1_x2F__x3C_Path_x3E__x5F_6"  width="3.4" height="1.55" y="-1.55" transform="matrix(1 0 0 1 50.0498 -0.2998)" style="overflow:visible;opacity:0.5;enable-background:new    ;"/>
			
				<use xlink:href="#FlashAICB_x2F_front_ground_1_x2F__x3C_Path_x3E__x5F_5"  width="4.15" height="1.55" y="-1.55" transform="matrix(1 0 0 1 70.6499 -3.3999)" style="overflow:visible;opacity:0.5;enable-background:new    ;"/>
			<path style="fill-rule:evenodd;clip-rule:evenodd;fill:#55412D;" d="M20.6-7.05c0.333-0.133,0.5-0.317,0.5-0.55
				s-0.167-0.417-0.5-0.55c-0.333-0.167-0.733-0.25-1.2-0.25s-0.85,0.083-1.15,0.25c-0.333,0.133-0.5,0.316-0.5,0.55
				s0.167,0.417,0.5,0.55c0.3,0.167,0.683,0.25,1.15,0.25S20.267-6.883,20.6-7.05z"/>
			
				<use xlink:href="#FlashAICB_x2F_front_ground_1_x2F__x3C_Path_x3E__x5F_0"  width="3.4" height="1.7" y="-1.7" transform="matrix(1 0 0 1 63.6001 -6.0498)" style="overflow:visible;opacity:0.6992;enable-background:new    ;"/>
		</g>
	</g>
</symbol>
<symbol  id="FlashAICB_x2F_front_ground_1_x2F__x3C_Group_x3E__x5F_7" viewBox="0 -102.464 278.1 102.464">
	<g id="Layer_1_3_">
		<g>
			<path style="fill-rule:evenodd;clip-rule:evenodd;fill:#52391E;" d="M265.15-19.25c4.467,2.433,8.783,3.033,12.95,1.8
				c-1.1-8.466-1.783-16.85-2.05-25.15l-0.1-2.05l-1.65-1c-8.933-6.133-15.2-9.934-18.8-11.4c-7.333-3-15.783-3.85-25.35-2.55
				c-8.033,1.067-17.333,4.417-27.9,10.05c-6.633,3.566-10.3,5.5-11,5.8c-3.733,1.833-6.867,2.9-9.4,3.2
				c-10.333,1.333-17.217,2.433-20.65,3.3c-9.233,2.4-17.9,6.45-26,12.15c-4.767,3.367-8.567,5.6-11.4,6.7
				c-2.966,1.167-6.15,1.583-9.55,1.25c-2.533-0.233-6.833-1.133-12.9-2.7c-9.1-2.367-16.267-4.117-21.5-5.25
				c-13.167-2.9-28-4.9-44.5-6c-17.667-1.167-28.467-2.117-32.4-2.85C2.25-28.183,1.267-21.933,0-15.2l0.75,0.35
				c7.3,3.667,19.483,5.934,36.55,6.8c4.567,0.233,11.167,0.483,19.8,0.75C64.267-7.033,69.633-6.6,73.2-6c3,0.5,7.1,1.467,12.3,2.9
				c5.833,1.6,9.883,2.633,12.15,3.1l20.2-0.5c2.4-0.867,4.583-1.967,6.55-3.3c3.7-2.534,7.033-4.167,10-4.9
				c2.1-0.533,4.85-0.75,8.25-0.65c9.167,0.3,17.934-0.8,26.3-3.3c5.966-1.767,12.117-2.5,18.45-2.2c3.8,0.2,8.767,0.934,14.9,2.2
				c5.567,1.167,9.417,1.717,11.55,1.65c3.533-0.1,6.333-1.383,8.4-3.85c4.633-5.566,10.9-8.783,18.8-9.65
				C249.05-25.367,257.083-23.617,265.15-19.25z"/>
			<path style="fill-rule:evenodd;clip-rule:evenodd;fill:#52391E;" d="M275.6-64.35c-0.529-12.447-2.654-18.781-6.375-19
				c-3.723-0.221-6.248-3.938-7.575-11.15c-7.974,1.621-14.324-0.296-19.05-5.75c-9.867-3.4-19.55-2.883-29.05,1.55
				c-8.033,3.767-13.8,5.784-17.3,6.05c-10.7,0.767-18,1.55-21.9,2.35c-9.8,1.933-19.017,5.566-27.65,10.9
				c-5.1,3.167-9.15,5.233-12.15,6.2c-3.167,1.034-6.55,1.317-10.15,0.85c-2.667-0.333-7.217-1.433-13.65-3.3
				C101.117-78.417,93.533-80.5,88-81.9c-14.333-3.6-30.883-6.35-49.65-8.25c-18.3-1.867-29.6-2.583-33.9-2.15
				c0.616,6.866,0.816,13.766,0.6,20.7c7.233,1.633,19.867,3.25,37.9,4.85c4.8,0.433,11.75,0.967,20.85,1.6
				c7.567,0.6,13.233,1.283,17,2.05c3.167,0.633,7.5,1.783,13,3.45c6.167,1.9,10.467,3.133,12.9,3.7l21.4,0.4
				c2.533-0.767,4.85-1.784,6.95-3.05c3.934-2.333,7.483-3.8,10.65-4.4c2.2-0.433,5.1-0.517,8.7-0.25
				c4.767,0.367,8.383,0.5,10.85,0.4c5.133-0.167,10.833-1,17.1-2.5c6.333-1.5,12.867-1.95,19.6-1.35
				c4.033,0.333,9.283,1.284,15.75,2.85c5.9,1.4,9.983,2.133,12.25,2.2c3.733,0.033,6.7-1.133,8.9-3.5
				c4.133-4.434,9.55-7.217,16.25-8.35C261.833-74.633,268.667-71.583,275.6-64.35z"/>
		</g>
	</g>
</symbol>
<symbol  id="FlashAICB_x2F_front_ground_1_x2F__x3C_Group_x3E__x5F_8" viewBox="0.425 -71.275 272.625 71.275">
	<g id="Layer_1_2_">
		<g>
			<path style="fill-rule:evenodd;clip-rule:evenodd;fill:#32271B;" d="M257.4-9.95c4.2-1.667,7.533-2.466,10-2.4
				c1.833,0.033,3.717,0.617,5.65,1.75v-0.05c-0.167-4.767-0.283-9.9-0.35-15.4c-6.467,1.367-11.217,2.333-14.25,2.9
				c-4.267,0.767-13.85,1.517-28.75,2.25c-15.167,0.733-28.583,2.1-40.25,4.1c-15.733,3.267-25.567,5.05-29.5,5.35
				c-2.934,0.2-5.684-0.083-8.25-0.85c-2.4-0.733-5.65-2.233-9.75-4.5c-6.934-3.8-14.367-6.5-22.3-8.1c-3-0.6-8.917-1.333-17.75-2.2
				c-2.633-0.267-8.467-2.267-17.5-6c-9.066-3.767-17.05-6.017-23.95-6.75c-8.2-0.867-15.45-0.3-21.75,1.7
				c-3,0.967-8.383,3.5-16.15,7.6c-3.3,1.767-6.833,2.117-10.6,1.05c-2.1-0.7-3.7-1.217-4.8-1.55c-1.967-0.633-3.717-1-5.25-1.1
				C1.867-26.517,1.617-20.633,1.15-14.5l0.7-0.35c2.2-0.967,4.45-1.2,6.75-0.7c1.066,0.2,3.083,0.95,6.05,2.25
				c5.567,2.367,10.817,2.517,15.75,0.45c6.9-2.933,13.8-4.1,20.7-3.5c6.767,0.567,12.15,2.7,16.15,6.4
				c1.767,1.633,4.167,2.5,7.2,2.6c1.833,0.033,5.133-0.333,9.9-1.1c11.233-1.833,20.783-1.833,28.65,0
				c7.2,1.667,14.733,2.4,22.6,2.2c5.533-0.167,10.75,1.05,15.65,3.65c1.667,0.9,3.533,1.65,5.6,2.25L174.2,0
				c1.833-0.3,5.316-1,10.45-2.1c4.434-0.967,7.95-1.617,10.55-1.95c3.033-0.4,7.633-0.684,13.8-0.85c3.533-0.133,9.2-0.3,17-0.5
				C240.667-5.967,251.133-7.483,257.4-9.95z"/>
			<path style="fill-rule:evenodd;clip-rule:evenodd;fill:#32271B;" d="M266-64.25l-2.5-1c-1.033-0.433-2.1-1.317-3.2-2.65
				c-0.533-0.667-0.966-1.283-1.3-1.85c-1.033,0.2-2.017,0.367-2.95,0.5c-3.833,0.6-6.683,0.767-8.55,0.5
				c-0.61-0.083-1.269-0.216-1.975-0.4c-5.216,0.575-12.024,1.191-20.425,1.85c-16.1,1.3-30.317,3.15-42.65,5.55
				c-16.633,3.833-27.05,5.967-31.25,6.4c-3.1,0.3-6,0.117-8.7-0.55c-2.6-0.667-6.083-2.05-10.45-4.15
				c-7.367-3.567-15.267-6-23.7-7.3c-3.167-0.5-9.434-1.033-18.8-1.6c-1.822-0.107-5.047-0.882-9.675-2.325
				c-0.218,0.074-0.443,0.149-0.675,0.225c-7.934,2.566-15.333,4.167-22.2,4.8s-15.433,0.567-25.7-0.2
				c-5.1-0.367-9.533-0.8-13.3-1.3c-4.667,0-8.333,0.333-11,1c-2.009,0.509-4.201,1.384-6.575,2.625
				c0.428,4.089,0.77,8.547,1.025,13.375c4.033,0.867,8.2,0.383,12.5-1.45c7.3-3.167,14.583-4.566,21.85-4.2
				c7.2,0.333,12.934,2.283,17.2,5.85c1.9,1.6,4.45,2.383,7.65,2.35c1.934-0.033,5.434-0.517,10.5-1.45
				c11.9-2.233,22.017-2.583,30.35-1.05c7.633,1.434,15.633,1.917,24,1.45c5.833-0.333,11.367,0.7,16.6,3.1
				c1.867,0.867,3.85,1.533,5.95,2l18.4-0.25c2.133-0.4,5.816-1.217,11.05-2.45c4.733-1.133,8.45-1.917,11.15-2.35
				c3.233-0.5,8.117-0.95,14.65-1.35c3.733-0.233,9.733-0.6,18-1.1c15.534-1.067,26.6-2.934,33.2-5.6
				c5.233-2.133,9.283-3.033,12.15-2.7c1.128,0.131,2.77,0.74,4.925,1.825c-0.021-0.077-0.046-0.152-0.075-0.225
				c-0.533-1.333-1.283-2.517-2.25-3.55C268.183-63.067,267.1-63.85,266-64.25z"/>
		</g>
	</g>
</symbol>
<symbol  id="FlashAICB_x2F_front_ground_1_x2F__x3C_Path_x3E_" viewBox="0.9 -158.9 36.1 144.65">
	<g id="Layer_1_7_">
		<linearGradient id="SVGID_3_" gradientUnits="userSpaceOnUse" x1="0.0376" y1="-86.5752" x2="38.3626" y2="-86.5752">
			<stop  offset="0" style="stop-color:#3E2916"/>
			<stop  offset="0.0549" style="stop-color:#594837"/>
			<stop  offset="0.1725" style="stop-color:#A1978E"/>
			<stop  offset="0.3176" style="stop-color:#FFFFFF"/>
			<stop  offset="1" style="stop-color:#3E2916"/>
		</linearGradient>
		<path style="fill-rule:evenodd;clip-rule:evenodd;fill:url(#SVGID_3_);" d="M0.9-14.25h35.7c-0.279-2.652-0.563-5.502-0.85-8.55
			c-1.8-19-2.917-38.1-3.35-57.3c-0.4-19.2,0.25-38.1,1.95-56.7c0.833-9.3,1.717-16.667,2.65-22.1H3.3c0.4,4,0.767,10.066,1.1,18.2
			c0.6,16.233,0.667,34.65,0.2,55.25c-0.467,20.567-1.383,40.2-2.75,58.9C1.521-21.952,1.205-17.853,0.9-14.25z"/>
	</g>
</symbol>
<symbol  id="FlashAICB_x2F_front_ground_1_x2F__x3C_Path_x3E__x5F_0" viewBox="0 -1.7 3.4 1.7">
	<g id="Layer_1_12_">
		<path style="fill-rule:evenodd;clip-rule:evenodd;fill:#55412D;" d="M3.4-0.85c0-0.233-0.167-0.433-0.5-0.6
			C2.567-1.617,2.167-1.7,1.7-1.7C0.567-1.7,0-1.417,0-0.85c0,0.233,0.167,0.434,0.5,0.6S1.233,0,1.7,0
			c0.466,0,0.867-0.083,1.2-0.25C3.233-0.417,3.4-0.617,3.4-0.85z"/>
	</g>
</symbol>
<symbol  id="FlashAICB_x2F_front_ground_1_x2F__x3C_Path_x3E__x5F_1" viewBox="1.2 -158.9 47.4 144.65">
	<g id="Layer_1_6_">
		<linearGradient id="SVGID_4_" gradientUnits="userSpaceOnUse" x1="0.0376" y1="-86.5752" x2="50.3626" y2="-86.5752">
			<stop  offset="0" style="stop-color:#3E2916"/>
			<stop  offset="0.0549" style="stop-color:#594837"/>
			<stop  offset="0.1725" style="stop-color:#A1978E"/>
			<stop  offset="0.3176" style="stop-color:#FFFFFF"/>
			<stop  offset="1" style="stop-color:#3E2916"/>
		</linearGradient>
		<path style="fill-rule:evenodd;clip-rule:evenodd;fill:url(#SVGID_4_);" d="M48.025-14.25c-0.366-2.652-0.741-5.502-1.125-8.55
			c-2.367-19-3.816-38.1-4.35-57.3c-0.533-19.2,0.317-38.1,2.55-56.7c1.133-9.3,2.3-16.667,3.5-22.1H4.3
			c0.534,4,1.017,10.066,1.45,18.2c0.833,16.233,0.933,34.65,0.3,55.25c-0.633,20.567-1.833,40.2-3.6,58.9
			c-0.427,4.598-0.844,8.697-1.25,12.3H48.025z"/>
	</g>
</symbol>
<symbol  id="FlashAICB_x2F_front_ground_1_x2F__x3C_Path_x3E__x5F_10" viewBox="0 -0.8 1.6 0.8">
	<g id="Layer_1_33_">
		<path style="fill-rule:evenodd;clip-rule:evenodd;fill:#55412D;" d="M0-0.4C0-0.133,0.267,0,0.8,0c0.534,0,0.8-0.133,0.8-0.4
			S1.333-0.8,0.8-0.8C0.267-0.8,0-0.667,0-0.4z"/>
	</g>
</symbol>
<symbol  id="FlashAICB_x2F_front_ground_1_x2F__x3C_Path_x3E__x5F_11" viewBox="0 -1.05 2.1 1.05">
	<g id="Layer_1_40_">
		<path style="fill-rule:evenodd;clip-rule:evenodd;fill:#55412D;" d="M2.1-0.55c0-0.333-0.35-0.5-1.05-0.5
			C0.35-1.05,0-0.883,0-0.55C0-0.183,0.35,0,1.05,0C1.75,0,2.1-0.183,2.1-0.55z"/>
	</g>
</symbol>
<symbol  id="FlashAICB_x2F_front_ground_1_x2F__x3C_Path_x3E__x5F_12" viewBox="0 -2.15 4.35 2.15">
	<g id="Layer_1_47_">
		<path style="fill-rule:evenodd;clip-rule:evenodd;fill:#55412D;" d="M4.35-1.05c0-0.3-0.2-0.567-0.6-0.8
			c-0.433-0.2-0.95-0.3-1.55-0.3c-0.6,0-1.117,0.1-1.55,0.3C0.217-1.617,0-1.35,0-1.05C0-0.75,0.217-0.5,0.65-0.3
			C1.083-0.1,1.6,0,2.2,0c0.6,0,1.117-0.1,1.55-0.3C4.15-0.5,4.35-0.75,4.35-1.05z"/>
	</g>
</symbol>
<symbol  id="FlashAICB_x2F_front_ground_1_x2F__x3C_Path_x3E__x5F_13" viewBox="0 -6.25 13.3 6.25">
	<g id="Layer_1_8_">
		<path style="fill-rule:evenodd;clip-rule:evenodd;fill:#55412D;" d="M13.3-3.15c0-0.867-0.65-1.6-1.95-2.2
			c-1.3-0.6-2.867-0.9-4.7-0.9c-1.833,0-3.4,0.3-4.7,0.9C0.65-4.75,0-4.017,0-3.15S0.65-1.533,1.95-0.9C3.25-0.3,4.817,0,6.65,0
			c1.833,0,3.4-0.3,4.7-0.9C12.65-1.533,13.3-2.283,13.3-3.15z"/>
	</g>
</symbol>
<symbol  id="FlashAICB_x2F_front_ground_1_x2F__x3C_Path_x3E__x5F_13_x5F_0" viewBox="0 -3.9 8.25 3.9">
	<g id="Layer_1_13_">
		<path style="fill-rule:evenodd;clip-rule:evenodd;fill:#55412D;" d="M8.25-1.95c0-0.533-0.4-1-1.2-1.4
			C6.25-3.717,5.267-3.9,4.1-3.9C2.967-3.9,2-3.717,1.2-3.35C0.4-2.95,0-2.483,0-1.95C0-1.417,0.4-0.967,1.2-0.6
			C2-0.2,2.967,0,4.1,0s2.117-0.2,2.95-0.6C7.85-0.967,8.25-1.417,8.25-1.95z"/>
	</g>
</symbol>
<symbol  id="FlashAICB_x2F_front_ground_1_x2F__x3C_Path_x3E__x5F_13_x5F_1" viewBox="0 -6.4 13.6 6.4">
	<g id="Layer_1_20_">
		<path style="fill-rule:evenodd;clip-rule:evenodd;fill:#55412D;" d="M0-3.2c0,0.867,0.667,1.617,2,2.25S4.933,0,6.8,0
			s3.467-0.317,4.8-0.95c1.333-0.633,2-1.383,2-2.25s-0.667-1.617-2-2.25C10.267-6.083,8.667-6.4,6.8-6.4S3.333-6.083,2-5.45
			S0-4.067,0-3.2z"/>
	</g>
</symbol>
<symbol  id="FlashAICB_x2F_front_ground_1_x2F__x3C_Path_x3E__x5F_13_x5F_2" viewBox="0 -2.95 6.3 2.95">
	<g id="Layer_1_27_">
		<path style="fill-rule:evenodd;clip-rule:evenodd;fill:#55412D;" d="M0-1.5c0,0.433,0.3,0.783,0.9,1.05C1.533-0.15,2.283,0,3.15,0
			S4.767-0.15,5.4-0.45C6-0.717,6.3-1.067,6.3-1.5c0-0.4-0.3-0.75-0.9-1.05c-0.633-0.267-1.383-0.4-2.25-0.4S1.533-2.817,0.9-2.55
			C0.3-2.25,0-1.9,0-1.5z"/>
	</g>
</symbol>
<symbol  id="FlashAICB_x2F_front_ground_1_x2F__x3C_Path_x3E__x5F_13_x5F_3" viewBox="0 -3.9 8.25 3.9">
	<g id="Layer_1_34_">
		<path style="fill-rule:evenodd;clip-rule:evenodd;fill:#55412D;" d="M8.25-1.95c0-0.533-0.4-1-1.2-1.4
			C6.25-3.717,5.267-3.9,4.1-3.9C2.967-3.9,2-3.717,1.2-3.35C0.4-2.95,0-2.483,0-1.95C0-1.417,0.4-0.967,1.2-0.6
			C2-0.2,2.967,0,4.1,0s2.117-0.2,2.95-0.6C7.85-0.967,8.25-1.417,8.25-1.95z"/>
	</g>
</symbol>
<symbol  id="FlashAICB_x2F_front_ground_1_x2F__x3C_Path_x3E__x5F_13_x5F_4" viewBox="0 -8 17.05 8">
	<g id="Layer_1_41_">
		<path style="fill-rule:evenodd;clip-rule:evenodd;fill:#55412D;" d="M17.05-4c0-1.1-0.833-2.05-2.5-2.85
			C12.883-7.617,10.867-8,8.5-8c-2.333,0-4.333,0.383-6,1.15C0.833-6.05,0-5.1,0-4s0.833,2.033,2.5,2.8C4.167-0.4,6.167,0,8.5,0
			c2.367,0,4.383-0.4,6.05-1.2C16.217-1.967,17.05-2.9,17.05-4z"/>
	</g>
</symbol>
<symbol  id="FlashAICB_x2F_front_ground_1_x2F__x3C_Path_x3E__x5F_13_x5F_5" viewBox="0 -4.6 8.4 4.6">
	<g id="Layer_1_48_">
		<path style="fill-rule:evenodd;clip-rule:evenodd;fill:#55412D;" d="M8.4-2.3c0-0.633-0.4-1.167-1.2-1.6
			c-0.833-0.467-1.833-0.7-3-0.7c-1.133,0-2.117,0.233-2.95,0.7C0.417-3.467,0-2.933,0-2.3s0.417,1.167,1.25,1.6
			C2.083-0.233,3.067,0,4.2,0c1.167,0,2.167-0.233,3-0.7C8-1.133,8.4-1.667,8.4-2.3z"/>
	</g>
</symbol>
<symbol  id="FlashAICB_x2F_front_ground_1_x2F__x3C_Path_x3E__x5F_14" viewBox="0 -1.2 2.15 1.2">
	<g id="Layer_1_54_">
		<path style="fill-rule:evenodd;clip-rule:evenodd;fill:#55412D;" d="M2.15-0.6c0-0.4-0.367-0.6-1.1-0.6C0.35-1.2,0-1,0-0.6
			S0.35,0,1.05,0C1.783,0,2.15-0.2,2.15-0.6z"/>
	</g>
</symbol>
<symbol  id="FlashAICB_x2F_front_ground_1_x2F__x3C_Path_x3E__x5F_1_x5F_1" viewBox="0 -2.1 4.85 2.1">
	<g id="Layer_1_18_">
		<path style="fill-rule:evenodd;clip-rule:evenodd;fill:#55412D;" d="M4.85-1.05c0-0.3-0.233-0.55-0.7-0.75
			C3.65-2,3.067-2.1,2.4-2.1C1.733-2.1,1.167-2,0.7-1.8C0.233-1.6,0-1.35,0-1.05C0-0.783,0.233-0.533,0.7-0.3
			C1.167-0.1,1.733,0,2.4,0c0.667,0,1.25-0.1,1.75-0.3C4.617-0.533,4.85-0.783,4.85-1.05z"/>
	</g>
</symbol>
<symbol  id="FlashAICB_x2F_front_ground_1_x2F__x3C_Path_x3E__x5F_1_x5F_2" viewBox="0 -3.45 8 3.45">
	<g id="Layer_1_25_">
		<path style="fill-rule:evenodd;clip-rule:evenodd;fill:#55412D;" d="M0-1.75C0-1.283,0.4-0.867,1.2-0.5C1.967-0.167,2.9,0,4,0
			s2.05-0.167,2.85-0.5C7.617-0.867,8-1.283,8-1.75s-0.383-0.867-1.15-1.2C6.05-3.283,5.1-3.45,4-3.45s-2.033,0.167-2.8,0.5
			C0.4-2.617,0-2.217,0-1.75z"/>
	</g>
</symbol>
<symbol  id="FlashAICB_x2F_front_ground_1_x2F__x3C_Path_x3E__x5F_1_x5F_3" viewBox="0 -1.6 3.7 1.6">
	<g id="Layer_1_32_">
		<path style="fill-rule:evenodd;clip-rule:evenodd;fill:#55412D;" d="M0-0.8c0,0.233,0.183,0.417,0.55,0.55
			C0.917-0.083,1.35,0,1.85,0s0.933-0.083,1.3-0.25C3.517-0.383,3.7-0.567,3.7-0.8c0-0.233-0.184-0.417-0.55-0.55
			C2.783-1.517,2.35-1.6,1.85-1.6s-0.934,0.083-1.3,0.25C0.183-1.217,0-1.033,0-0.8z"/>
	</g>
</symbol>
<symbol  id="FlashAICB_x2F_front_ground_1_x2F__x3C_Path_x3E__x5F_1_x5F_4" viewBox="0 -2.15 4.85 2.15">
	<g id="Layer_1_39_">
		<path style="fill-rule:evenodd;clip-rule:evenodd;fill:#55412D;" d="M4.85-1.1c0-0.267-0.233-0.517-0.7-0.75
			c-0.5-0.2-1.083-0.3-1.75-0.3c-0.633,0-1.2,0.1-1.7,0.3C0.233-1.617,0-1.367,0-1.1c0,0.3,0.233,0.55,0.7,0.75
			C1.167-0.117,1.733,0,2.4,0c0.667,0,1.25-0.117,1.75-0.35C4.617-0.55,4.85-0.8,4.85-1.1z"/>
	</g>
</symbol>
<symbol  id="FlashAICB_x2F_front_ground_1_x2F__x3C_Path_x3E__x5F_1_x5F_5" viewBox="0 -4.35 10.05 4.35">
	<g id="Layer_1_46_">
		<path style="fill-rule:evenodd;clip-rule:evenodd;fill:#55412D;" d="M10.05-2.15c0-0.6-0.483-1.117-1.45-1.55
			c-1-0.433-2.184-0.65-3.55-0.65c-1.4,0-2.583,0.217-3.55,0.65C0.5-3.267,0-2.75,0-2.15s0.5,1.1,1.5,1.5C2.467-0.217,3.65,0,5.05,0
			C6.417,0,7.6-0.217,8.6-0.65C9.567-1.05,10.05-1.55,10.05-2.15z"/>
	</g>
</symbol>
<symbol  id="FlashAICB_x2F_front_ground_1_x2F__x3C_Path_x3E__x5F_1_x5F_6" viewBox="0 -2.5 4.95 2.5">
	<g id="Layer_1_53_">
		<path style="fill-rule:evenodd;clip-rule:evenodd;fill:#55412D;" d="M4.95-1.25c0-0.333-0.233-0.617-0.7-0.85
			C3.75-2.367,3.167-2.5,2.5-2.5S1.25-2.367,0.75-2.1C0.25-1.867,0-1.583,0-1.25s0.25,0.633,0.75,0.9C1.25-0.117,1.833,0,2.5,0
			s1.25-0.117,1.75-0.35C4.717-0.617,4.95-0.917,4.95-1.25z"/>
	</g>
</symbol>
<symbol  id="FlashAICB_x2F_front_ground_1_x2F__x3C_Path_x3E__x5F_2" viewBox="1 -158.9 177.2 146.45">
	<g id="Layer_1_5_">
		<linearGradient id="SVGID_5_" gradientUnits="userSpaceOnUse" x1="0.0249" y1="-85.6748" x2="179.9749" y2="-85.6748">
			<stop  offset="0" style="stop-color:#3E2916"/>
			<stop  offset="0.1059" style="stop-color:#594837"/>
			<stop  offset="0.3373" style="stop-color:#A1978E"/>
			<stop  offset="0.6196" style="stop-color:#FFFFFF"/>
			<stop  offset="1" style="stop-color:#3E2916"/>
		</linearGradient>
		<path style="fill-rule:evenodd;clip-rule:evenodd;fill:url(#SVGID_5_);" d="M177.9-12.45c-0.461-3.151-0.928-6.601-1.4-10.35
			c-2.367-19-3.817-38.1-4.35-57.3c-0.533-19.2,0.317-38.1,2.55-56.7c1.133-9.3,2.3-16.667,3.5-22.1H4.3
			c0.534,4,1.017,10.066,1.45,18.2c0.833,16.233,0.933,34.65,0.3,55.25c-0.633,20.567-1.833,40.2-3.6,58.9
			C1.95-21.168,1.467-16.468,1-12.45H177.9z"/>
	</g>
</symbol>
<symbol  id="FlashAICB_x2F_front_ground_1_x2F__x3C_Path_x3E__x5F_3" viewBox="0 -145.9 63.35 145.9">
	<g id="Layer_1_4_">
		<linearGradient id="SVGID_6_" gradientUnits="userSpaceOnUse" x1="0" y1="-72.9502" x2="63.3501" y2="-72.9502">
			<stop  offset="0" style="stop-color:#3E2916"/>
			<stop  offset="0.1059" style="stop-color:#594837"/>
			<stop  offset="0.3373" style="stop-color:#A1978E"/>
			<stop  offset="0.6196" style="stop-color:#FFFFFF"/>
		</linearGradient>
		<path style="fill-rule:evenodd;clip-rule:evenodd;fill:url(#SVGID_6_);" d="M63.35,0c-1.367-4.6-2.8-10.767-4.3-18.5
			c-3.033-15.467-4.867-31-5.5-46.6c-0.667-15.6,0.4-33.75,3.2-54.45c1.4-10.333,2.867-19.117,4.4-26.35H5.4
			c0.7,6.066,1.3,13.8,1.8,23.2c1.066,18.8,1.2,36.567,0.4,53.3C6.8-52.7,5.3-36.75,3.1-21.55C2-13.983,0.967-8.067,0-3.8L63.35,0z"
			/>
	</g>
</symbol>
<symbol  id="FlashAICB_x2F_front_ground_1_x2F__x3C_Path_x3E__x5F_4_x5F_0" viewBox="0 -1.8 4.05 1.8">
	<g id="Layer_1_17_">
		<path style="fill-rule:evenodd;clip-rule:evenodd;fill:#55412D;" d="M4.05-0.9c0-0.267-0.2-0.483-0.6-0.65
			C3.083-1.717,2.617-1.8,2.05-1.8C1.483-1.8,1-1.717,0.6-1.55C0.2-1.383,0-1.167,0-0.9c0,0.233,0.2,0.45,0.6,0.65
			C1-0.083,1.483,0,2.05,0c0.567,0,1.034-0.083,1.4-0.25C3.85-0.45,4.05-0.667,4.05-0.9z"/>
	</g>
</symbol>
<symbol  id="FlashAICB_x2F_front_ground_1_x2F__x3C_Path_x3E__x5F_4_x5F_1" viewBox="0 -2.95 6.65 2.95">
	<g id="Layer_1_24_">
		<path style="fill-rule:evenodd;clip-rule:evenodd;fill:#55412D;" d="M0-1.5c0,0.4,0.333,0.75,1,1.05C1.633-0.15,2.4,0,3.3,0
			c0.934,0,1.717-0.15,2.35-0.45c0.667-0.3,1-0.65,1-1.05s-0.333-0.75-1-1.05c-0.633-0.267-1.417-0.4-2.35-0.4
			c-0.9,0-1.667,0.133-2.3,0.4C0.333-2.25,0-1.9,0-1.5z"/>
	</g>
</symbol>
<symbol  id="FlashAICB_x2F_front_ground_1_x2F__x3C_Path_x3E__x5F_4_x5F_2" viewBox="0 -1.35 3.1 1.35">
	<g id="Layer_1_31_">
		<path style="fill-rule:evenodd;clip-rule:evenodd;fill:#55412D;" d="M0-0.65C0-0.483,0.15-0.333,0.45-0.2
			C0.75-0.067,1.117,0,1.55,0c0.434,0,0.8-0.067,1.1-0.2C2.95-0.333,3.1-0.483,3.1-0.65c0-0.2-0.15-0.367-0.45-0.5
			c-0.3-0.133-0.667-0.2-1.1-0.2c-0.433,0-0.8,0.067-1.1,0.2C0.15-1.017,0-0.85,0-0.65z"/>
	</g>
</symbol>
<symbol  id="FlashAICB_x2F_front_ground_1_x2F__x3C_Path_x3E__x5F_4_x5F_3" viewBox="0 -1.8 4.05 1.8">
	<g id="Layer_1_38_">
		<path style="fill-rule:evenodd;clip-rule:evenodd;fill:#55412D;" d="M4.05-0.9c0-0.267-0.2-0.483-0.6-0.65
			C3.083-1.717,2.617-1.8,2.05-1.8C1.483-1.8,1-1.717,0.6-1.55C0.2-1.35,0-1.133,0-0.9s0.2,0.45,0.6,0.65C1-0.083,1.483,0,2.05,0
			c0.567,0,1.034-0.083,1.4-0.25C3.85-0.45,4.05-0.667,4.05-0.9z"/>
	</g>
</symbol>
<symbol  id="FlashAICB_x2F_front_ground_1_x2F__x3C_Path_x3E__x5F_4_x5F_4" viewBox="0 -3.65 8.35 3.65">
	<g id="Layer_1_45_">
		<path style="fill-rule:evenodd;clip-rule:evenodd;fill:#55412D;" d="M8.35-1.85c0-0.5-0.4-0.933-1.2-1.3
			c-0.8-0.333-1.783-0.5-2.95-0.5c-1.167,0-2.15,0.167-2.95,0.5C0.417-2.783,0-2.35,0-1.85c0,0.533,0.417,0.967,1.25,1.3
			C2.05-0.183,3.033,0,4.2,0c1.167,0,2.15-0.183,2.95-0.55C7.95-0.883,8.35-1.317,8.35-1.85z"/>
	</g>
</symbol>
<symbol  id="FlashAICB_x2F_front_ground_1_x2F__x3C_Path_x3E__x5F_4_x5F_5" viewBox="0 -2.1 4.15 2.1">
	<g id="Layer_1_52_">
		<path style="fill-rule:evenodd;clip-rule:evenodd;fill:#55412D;" d="M4.15-1.05c0-0.3-0.2-0.55-0.6-0.75C3.15-2,2.667-2.1,2.1-2.1
			C1.533-2.1,1.033-2,0.6-1.8C0.2-1.6,0-1.35,0-1.05C0-0.75,0.2-0.5,0.6-0.3C1.033-0.1,1.533,0,2.1,0c0.566,0,1.05-0.1,1.45-0.3
			C3.95-0.5,4.15-0.75,4.15-1.05z"/>
	</g>
</symbol>
<symbol  id="FlashAICB_x2F_front_ground_1_x2F__x3C_Path_x3E__x5F_5" viewBox="0 -1.55 4.15 1.55">
	<g id="Layer_1_11_">
		<path style="fill-rule:evenodd;clip-rule:evenodd;fill:#55412D;" d="M4.15-0.8c0-0.2-0.2-0.383-0.6-0.55
			c-0.433-0.133-0.933-0.2-1.5-0.2C1.483-1.55,1-1.483,0.6-1.35C0.2-1.183,0-1,0-0.8c0,0.233,0.2,0.417,0.6,0.55
			C1-0.083,1.483,0,2.05,0c0.567,0,1.067-0.083,1.5-0.25C3.95-0.383,4.15-0.567,4.15-0.8z"/>
	</g>
</symbol>
<symbol  id="FlashAICB_x2F_front_ground_1_x2F__x3C_Path_x3E__x5F_5_x5F_0" viewBox="0 -0.95 2.55 0.95">
	<g id="Layer_1_16_">
		<path style="fill-rule:evenodd;clip-rule:evenodd;fill:#55412D;" d="M2.55-0.5c0-0.3-0.433-0.45-1.3-0.45C0.417-0.95,0-0.8,0-0.5
			C0-0.167,0.417,0,1.25,0C2.117,0,2.55-0.167,2.55-0.5z"/>
	</g>
</symbol>
<symbol  id="FlashAICB_x2F_front_ground_1_x2F__x3C_Path_x3E__x5F_5_x5F_1" viewBox="0 -1.6 4.25 1.6">
	<g id="Layer_1_23_">
		<path style="fill-rule:evenodd;clip-rule:evenodd;fill:#55412D;" d="M0-0.8c0,0.233,0.217,0.417,0.65,0.55
			C1.05-0.083,1.55,0,2.15,0c0.567,0,1.067-0.083,1.5-0.25c0.4-0.133,0.6-0.317,0.6-0.55c0-0.2-0.2-0.383-0.6-0.55
			C3.217-1.517,2.717-1.6,2.15-1.6c-0.6,0-1.1,0.083-1.5,0.25C0.217-1.183,0-1,0-0.8z"/>
	</g>
</symbol>
<symbol  id="FlashAICB_x2F_front_ground_1_x2F__x3C_Path_x3E__x5F_5_x5F_2" viewBox="0 -0.75 2 0.75">
	<g id="Layer_1_30_">
		<path style="fill-rule:evenodd;clip-rule:evenodd;fill:#55412D;" d="M0-0.35C0-0.117,0.333,0,1,0s1-0.117,1-0.35
			c0-0.267-0.333-0.4-1-0.4S0-0.617,0-0.35z"/>
	</g>
</symbol>
<symbol  id="FlashAICB_x2F_front_ground_1_x2F__x3C_Path_x3E__x5F_5_x5F_3" viewBox="0 -1 2.55 1">
	<g id="Layer_1_37_">
		<path style="fill-rule:evenodd;clip-rule:evenodd;fill:#55412D;" d="M2.55-0.5c0-0.133-0.117-0.25-0.35-0.35
			C1.933-0.95,1.633-1,1.3-1C0.433-1,0-0.833,0-0.5S0.433,0,1.3,0C2.133,0,2.55-0.167,2.55-0.5z"/>
	</g>
</symbol>
<symbol  id="FlashAICB_x2F_front_ground_1_x2F__x3C_Path_x3E__x5F_5_x5F_4" viewBox="0 -2 5.35 2">
	<g id="Layer_1_44_">
		<path style="fill-rule:evenodd;clip-rule:evenodd;fill:#55412D;" d="M5.35-1c0-0.267-0.267-0.5-0.8-0.7C4.017-1.9,3.383-2,2.65-2
			S1.3-1.9,0.8-1.7C0.267-1.5,0-1.267,0-1s0.267,0.5,0.8,0.7C1.3-0.1,1.917,0,2.65,0s1.367-0.1,1.9-0.3C5.083-0.5,5.35-0.733,5.35-1
			z"/>
	</g>
</symbol>
<symbol  id="FlashAICB_x2F_front_ground_1_x2F__x3C_Path_x3E__x5F_5_x5F_5" viewBox="0 -1.1 2.65 1.1">
	<g id="Layer_1_51_">
		<path style="fill-rule:evenodd;clip-rule:evenodd;fill:#55412D;" d="M2.65-0.55C2.65-0.917,2.2-1.1,1.3-1.1
			C0.433-1.1,0-0.917,0-0.55S0.433,0,1.3,0C2.2,0,2.65-0.183,2.65-0.55z"/>
	</g>
</symbol>
<symbol  id="FlashAICB_x2F_front_ground_1_x2F__x3C_Path_x3E__x5F_6" viewBox="0 -1.55 3.4 1.55">
	<g id="Layer_1_10_">
		<path style="fill-rule:evenodd;clip-rule:evenodd;fill:#55412D;" d="M3.4-0.75c0-0.233-0.167-0.417-0.5-0.55
			C2.567-1.467,2.167-1.55,1.7-1.55c-0.467,0-0.867,0.083-1.2,0.25C0.167-1.167,0-0.983,0-0.75c0,0.2,0.167,0.367,0.5,0.5
			C0.833-0.083,1.233,0,1.7,0c0.466,0,0.867-0.083,1.2-0.25C3.233-0.383,3.4-0.55,3.4-0.75z"/>
	</g>
</symbol>
<symbol  id="FlashAICB_x2F_front_ground_1_x2F__x3C_Path_x3E__x5F_6_x5F_0" viewBox="0 -1 2.1 1">
	<g id="Layer_1_15_">
		<path style="fill-rule:evenodd;clip-rule:evenodd;fill:#55412D;" d="M2.1-0.5C2.1-0.833,1.75-1,1.05-1C0.35-1,0-0.833,0-0.5
			S0.35,0,1.05,0C1.75,0,2.1-0.167,2.1-0.5z"/>
	</g>
</symbol>
<symbol  id="FlashAICB_x2F_front_ground_1_x2F__x3C_Path_x3E__x5F_6_x5F_1" viewBox="0 -1.6 3.45 1.6">
	<g id="Layer_1_22_">
		<path style="fill-rule:evenodd;clip-rule:evenodd;fill:#55412D;" d="M0-0.8c0,0.233,0.167,0.417,0.5,0.55
			C0.833-0.083,1.233,0,1.7,0c0.466,0,0.883-0.083,1.25-0.25c0.333-0.133,0.5-0.317,0.5-0.55c0-0.233-0.167-0.417-0.5-0.55
			C2.583-1.517,2.167-1.6,1.7-1.6c-0.467,0-0.867,0.083-1.2,0.25C0.167-1.217,0-1.033,0-0.8z"/>
	</g>
</symbol>
<symbol  id="FlashAICB_x2F_front_ground_1_x2F__x3C_Path_x3E__x5F_6_x5F_2" viewBox="0 -0.75 1.6 0.75">
	<g id="Layer_1_29_">
		<path style="fill-rule:evenodd;clip-rule:evenodd;fill:#55412D;" d="M0-0.35C0-0.117,0.267,0,0.8,0c0.534,0,0.8-0.117,0.8-0.35
			c0-0.267-0.267-0.4-0.8-0.4C0.267-0.75,0-0.617,0-0.35z"/>
	</g>
</symbol>
<symbol  id="FlashAICB_x2F_front_ground_1_x2F__x3C_Path_x3E__x5F_6_x5F_3" viewBox="0 -1 2.1 1">
	<g id="Layer_1_36_">
		<path style="fill-rule:evenodd;clip-rule:evenodd;fill:#55412D;" d="M2.1-0.5C2.1-0.833,1.75-1,1.05-1C0.35-1,0-0.833,0-0.5
			c0,0.133,0.1,0.25,0.3,0.35C0.533-0.05,0.783,0,1.05,0C1.75,0,2.1-0.167,2.1-0.5z"/>
	</g>
</symbol>
<symbol  id="FlashAICB_x2F_front_ground_1_x2F__x3C_Path_x3E__x5F_6_x5F_4" viewBox="0 -2 4.3 2">
	<g id="Layer_1_43_">
		<path style="fill-rule:evenodd;clip-rule:evenodd;fill:#55412D;" d="M4.3-1c0-0.267-0.2-0.5-0.6-0.7C3.267-1.9,2.75-2,2.15-2
			s-1.1,0.1-1.5,0.3C0.217-1.5,0-1.267,0-1s0.217,0.5,0.65,0.7C1.05-0.1,1.55,0,2.15,0S3.267-0.1,3.7-0.3C4.1-0.5,4.3-0.733,4.3-1z"
			/>
	</g>
</symbol>
<symbol  id="FlashAICB_x2F_front_ground_1_x2F__x3C_Path_x3E__x5F_6_x5F_5" viewBox="0 -1.15 2.15 1.15">
	<g id="Layer_1_50_">
		<path style="fill-rule:evenodd;clip-rule:evenodd;fill:#55412D;" d="M2.15-0.55c0-0.4-0.367-0.6-1.1-0.6C0.35-1.15,0-0.95,0-0.55
			C0-0.183,0.35,0,1.05,0C1.783,0,2.15-0.183,2.15-0.55z"/>
	</g>
</symbol>
<symbol  id="FlashAICB_x2F_front_ground_1_x2F__x3C_Path_x3E__x5F_7" viewBox="0 -1.05 2.1 1.05">
	<g id="Layer_1_19_">
		<path style="fill-rule:evenodd;clip-rule:evenodd;fill:#55412D;" d="M2.1-0.55c0-0.333-0.35-0.5-1.05-0.5
			C0.35-1.05,0-0.883,0-0.55C0-0.183,0.35,0,1.05,0C1.75,0,2.1-0.183,2.1-0.55z"/>
	</g>
</symbol>
<symbol  id="FlashAICB_x2F_front_ground_1_x2F__x3C_Path_x3E__x5F_8" viewBox="0 -1.75 3.45 1.75">
	<g id="Layer_1_26_">
		<path style="fill-rule:evenodd;clip-rule:evenodd;fill:#55412D;" d="M0-0.9c0,0.267,0.167,0.483,0.5,0.65S1.25,0,1.75,0
			c0.467,0,0.867-0.083,1.2-0.25c0.333-0.2,0.5-0.417,0.5-0.65s-0.167-0.434-0.5-0.6c-0.333-0.167-0.733-0.25-1.2-0.25
			c-0.5,0-0.917,0.083-1.25,0.25S0-1.133,0-0.9z"/>
	</g>
</symbol>
<symbol  id="FlashAICB_x2F_front_ground_1_x2F__x3C_Path_x3E__x5F_9" viewBox="0 -4.15 9.4 4.15">
	<g id="Layer_1_9_">
		<path style="fill-rule:evenodd;clip-rule:evenodd;fill:#55412D;" d="M9.4-2.05c0-0.567-0.45-1.067-1.35-1.5
			C7.117-3.95,6-4.15,4.7-4.15c-1.3,0-2.4,0.2-3.3,0.6C0.467-3.117,0-2.617,0-2.05C0-1.483,0.467-1,1.4-0.6C2.3-0.2,3.4,0,4.7,0
			C6,0,7.117-0.2,8.05-0.6C8.95-1,9.4-1.483,9.4-2.05z"/>
	</g>
</symbol>
<symbol  id="FlashAICB_x2F_front_ground_1_x2F__x3C_Path_x3E__x5F_9_x5F_0" viewBox="0 -2.6 5.85 2.6">
	<g id="Layer_1_14_">
		<path style="fill-rule:evenodd;clip-rule:evenodd;fill:#55412D;" d="M5.85-1.3c0-0.367-0.283-0.667-0.85-0.9
			C4.433-2.467,3.75-2.6,2.95-2.6c-0.833,0-1.534,0.133-2.1,0.4C0.283-1.967,0-1.667,0-1.3s0.283,0.683,0.85,0.95
			C1.417-0.117,2.117,0,2.95,0C3.75,0,4.433-0.117,5-0.35C5.567-0.617,5.85-0.933,5.85-1.3z"/>
	</g>
</symbol>
<symbol  id="FlashAICB_x2F_front_ground_1_x2F__x3C_Path_x3E__x5F_9_x5F_1" viewBox="0 -4.25 9.55 4.25">
	<g id="Layer_1_21_">
		<path style="fill-rule:evenodd;clip-rule:evenodd;fill:#55412D;" d="M0-2.1c0,0.567,0.467,1.067,1.4,1.5C2.3-0.2,3.417,0,4.75,0
			s2.467-0.2,3.4-0.6c0.934-0.433,1.4-0.933,1.4-1.5c0-0.6-0.466-1.117-1.4-1.55c-0.933-0.4-2.066-0.6-3.4-0.6S2.3-4.05,1.4-3.65
			C0.467-3.217,0-2.7,0-2.1z"/>
	</g>
</symbol>
<symbol  id="FlashAICB_x2F_front_ground_1_x2F__x3C_Path_x3E__x5F_9_x5F_2" viewBox="0 -2 4.45 2">
	<g id="Layer_1_28_">
		<path style="fill-rule:evenodd;clip-rule:evenodd;fill:#55412D;" d="M0-1c0,0.267,0.217,0.5,0.65,0.7C1.05-0.1,1.567,0,2.2,0
			s1.167-0.1,1.6-0.3C4.233-0.5,4.45-0.733,4.45-1S4.233-1.5,3.8-1.7C3.367-1.9,2.833-2,2.2-2S1.05-1.9,0.65-1.7
			C0.217-1.5,0-1.267,0-1z"/>
	</g>
</symbol>
<symbol  id="FlashAICB_x2F_front_ground_1_x2F__x3C_Path_x3E__x5F_9_x5F_3" viewBox="0 -2.6 5.85 2.6">
	<g id="Layer_1_35_">
		<path style="fill-rule:evenodd;clip-rule:evenodd;fill:#55412D;" d="M5.85-1.3c0-0.367-0.283-0.667-0.85-0.9
			C4.433-2.467,3.75-2.6,2.95-2.6c-0.8,0-1.483,0.133-2.05,0.4C0.3-1.967,0-1.667,0-1.3c0,0.333,0.3,0.633,0.9,0.9
			C1.467-0.133,2.15,0,2.95,0C3.75,0,4.433-0.133,5-0.4C5.567-0.633,5.85-0.933,5.85-1.3z"/>
	</g>
</symbol>
<symbol  id="FlashAICB_x2F_front_ground_1_x2F__x3C_Path_x3E__x5F_9_x5F_4" viewBox="0 -5.35 12 5.35">
	<g id="Layer_1_42_">
		<path style="fill-rule:evenodd;clip-rule:evenodd;fill:#55412D;" d="M12-2.7c0-0.733-0.583-1.35-1.75-1.85
			C9.083-5.083,7.667-5.35,6-5.35c-1.633,0-3.05,0.267-4.25,0.8C0.583-4.05,0-3.433,0-2.7c0,0.733,0.583,1.367,1.75,1.9
			C2.917-0.267,4.333,0,6,0s3.083-0.267,4.25-0.8C11.417-1.333,12-1.967,12-2.7z"/>
	</g>
</symbol>
<symbol  id="FlashAICB_x2F_front_ground_1_x2F__x3C_Path_x3E__x5F_9_x5F_5" viewBox="0 -3.05 5.9 3.05">
	<g id="Layer_1_49_">
		<path style="fill-rule:evenodd;clip-rule:evenodd;fill:#55412D;" d="M5.9-1.55c0-0.434-0.283-0.784-0.85-1.05
			c-0.566-0.3-1.267-0.45-2.1-0.45c-0.833,0-1.534,0.15-2.1,0.45C0.283-2.333,0-1.983,0-1.55c0,0.433,0.283,0.8,0.85,1.1
			C1.417-0.15,2.117,0,2.95,0c0.833,0,1.533-0.15,2.1-0.45C5.617-0.75,5.9-1.117,5.9-1.55z"/>
	</g>
</symbol>
<symbol  id="wall_x5F_wavy" viewBox="-3.975 -150.45 301.85 148.3">
	<g id="Layer_1_63_">
		<path style="fill-rule:evenodd;clip-rule:evenodd;fill:#4C3B2A;" d="M296.05-10.95c-4.8-19.133-7.55-38.566-8.25-58.3
			c-0.5-13.867-0.483-27.1,0.05-39.7c-0.3-0.6-0.45-1.367-0.45-2.3c0-2.067-0.333-3.933-1-5.6c-0.533-1.333-1.283-2.517-2.25-3.55
			c-1.066-1.167-2.15-1.95-3.25-2.35l-2.5-1c-1.033-0.433-2.1-1.317-3.2-2.65c-0.534-0.667-0.967-1.283-1.3-1.85
			c-1.033,0.2-2.017,0.367-2.95,0.5c-3.833,0.6-6.684,0.767-8.55,0.5c-1.467-0.2-3.233-0.683-5.3-1.45l-2.7-1.05
			c-0.566-0.833-1.816-1.75-3.75-2.75c-3.833-2-9.083-3.417-15.75-4.25c-6.667-0.833-14.583-1.333-23.75-1.5H199.4
			c-0.4,0.233-1.3,0.5-2.7,0.8c-2.733,0.6-6.5,1-11.3,1.2c-4.8,0.2-10.733-0.317-17.8-1.55l-9.2-1.95
			c-3.233-0.433-7.066-0.767-11.5-1c-8.833-0.5-16.167-0.333-22,0.5c-5.833,0.833-11.083,2.25-15.75,4.25l-5.25,2.75
			c-2.566,1.167-5.833,2.4-9.8,3.7c-7.934,2.566-15.333,4.167-22.2,4.8s-15.433,0.567-25.7-0.2c-5.1-0.367-9.534-0.8-13.3-1.3
			c-4.667,0-8.333,0.333-11,1c-2.033,0.533-4.267,1.433-6.7,2.7c1.733,16.867,1.933,33.867,0.6,51c-1.4,17.6-4.483,34.867-9.25,51.8
			C4.799-13.57,3.132-8.32,1.55-4h296.325C297.271-6.186,296.662-8.502,296.05-10.95z"/>
		
			<use xlink:href="#FlashAICB_x2F_front_ground_1_x2F__x3C_Group_x3E__x5F_8"  width="272.625" height="71.275" x="0.425" y="-71.275" transform="matrix(1 0 0 1 14.75 -58.6001)" style="overflow:visible;opacity:0.3008;enable-background:new    ;"/>
		
			<use xlink:href="#FlashAICB_x2F_front_ground_1_x2F__x3C_Group_x3E__x5F_7"  width="278.1" height="102.464" y="-102.464" transform="matrix(1 0 0 1 11.75 -26.6499)" style="overflow:visible;opacity:0.3008;enable-background:new    ;"/>
		
			<use xlink:href="#FlashAICB_x2F_front_ground_1_x2F__x3C_Clip_Group_0_x3E_"  width="296.9" height="148.3" x="1.425" y="-161.4" transform="matrix(1 0 0 1 -5.3999 10.9502)" style="overflow:visible;"/>
		<path style="fill-rule:evenodd;clip-rule:evenodd;fill:#4C3B2A;" d="M16.75-5.1c0-0.233-0.333-0.417-1-0.55
			c-0.667-0.133-1.467-0.184-2.4-0.15C12.417-5.767,11.633-5.667,11-5.5c-0.667,0.167-1,0.367-1,0.6c0,0.2,0.333,0.367,1,0.5
			c0.7,0.167,1.5,0.233,2.4,0.2c0.933-0.066,1.717-0.183,2.35-0.35C16.417-4.717,16.75-4.9,16.75-5.1z"/>
		<path style="fill-rule:evenodd;clip-rule:evenodd;fill:#4C3B2A;" d="M81.4-4.25c0-0.367-0.867-0.55-2.6-0.55
			c-0.733,0-1.35,0.05-1.85,0.15c-0.533,0.1-0.8,0.233-0.8,0.4c0,0.367,0.883,0.55,2.65,0.55C80.533-3.7,81.4-3.883,81.4-4.25z"/>
		<path style="fill-rule:evenodd;clip-rule:evenodd;fill:#4C3B2A;" d="M55.75-5.6c0-0.367-0.883-0.55-2.65-0.55
			c-1.733,0-2.6,0.183-2.6,0.55c0,0.4,0.867,0.6,2.6,0.6C54.867-5,55.75-5.2,55.75-5.6z"/>
		
			<use xlink:href="#FlashAICB_x2F_front_ground_1_x2F__x3C_Group_x3E__x5F_6"  width="57.05" height="13.75" x="17.75" y="-13.75" transform="matrix(1 0 0 1 55.2998 -115.7998)" style="overflow:visible;opacity:0.3008;enable-background:new    ;"/>
		
			<use xlink:href="#FlashAICB_x2F_front_ground_1_x2F__x3C_Group_x3E__x5F_5"  width="46.4" height="9.4" y="-9.4" transform="matrix(1 0 0 1 87.8999 -41.6499)" style="overflow:visible;opacity:0.3008;enable-background:new    ;"/>
		
			<use xlink:href="#FlashAICB_x2F_front_ground_1_x2F__x3C_Group_x3E__x5F_4"  width="76.4" height="15.4" y="-15.4" transform="matrix(1 0 0 1 191.2002 -22.4502)" style="overflow:visible;opacity:0.3008;enable-background:new    ;"/>
		
			<use xlink:href="#FlashAICB_x2F_front_ground_1_x2F__x3C_Group_x3E__x5F_3"  width="35.5" height="7.15" y="-7.15" transform="matrix(1 0 0 1 18.5 -20.2002)" style="overflow:visible;opacity:0.3008;enable-background:new    ;"/>
		
			<use xlink:href="#FlashAICB_x2F_front_ground_1_x2F__x3C_Group_x3E__x5F_2"  width="46.4" height="9.4" y="-9.4" transform="matrix(1 0 0 1 53.25 -55.8501)" style="overflow:visible;opacity:0.3008;enable-background:new    ;"/>
		
			<use xlink:href="#FlashAICB_x2F_front_ground_1_x2F__x3C_Group_x3E__x5F_1"  width="95.95" height="19.4" y="-19.4" transform="matrix(1 0 0 1 174.6504 -85.3501)" style="overflow:visible;opacity:0.3008;enable-background:new    ;"/>
		
			<use xlink:href="#FlashAICB_x2F_front_ground_1_x2F__x3C_Group_x3E_"  width="47.25" height="11.05" y="-11.05" transform="matrix(1 0 0 1 104.75 -104.5498)" style="overflow:visible;opacity:0.3008;enable-background:new    ;"/>
		<path style="fill-rule:evenodd;clip-rule:evenodd;fill:#4C3B2A;" d="M96.7-21.5c0-0.3-0.267-0.567-0.8-0.8
			c-0.533-0.2-1.167-0.3-1.9-0.3s-1.35,0.1-1.85,0.3c-0.533,0.233-0.8,0.5-0.8,0.8c0,0.3,0.267,0.55,0.8,0.75
			c0.5,0.2,1.117,0.3,1.85,0.3c0.767,0,1.4-0.1,1.9-0.3C96.433-20.95,96.7-21.2,96.7-21.5z"/>
	</g>
</symbol>
<g>
	<g id="Layer_1_1_">
	</g>
	<g id="front_ground_1">
		
			<use xlink:href="#wall_x5F_wavy"  width="301.85" height="148.3" x="-3.975" y="-150.45" transform="matrix(1 0 0 -1 6.6001 22)" style="overflow:visible;"/>
	</g>
</g>
</svg>
