<?xml version="1.0" encoding="iso-8859-1"?>
<!-- Generator: Adobe Illustrator 15.1.0, SVG Export Plug-In . SVG Version: 6.00 Build 0)  -->
<!DOCTYPE svg PUBLIC "-//W3C//DTD SVG 1.1//EN" "http://www.w3.org/Graphics/SVG/1.1/DTD/svg11.dtd">
<svg version="1.1" id="buildings_1" xmlns="http://www.w3.org/2000/svg" xmlns:xlink="http://www.w3.org/1999/xlink" x="0px"
	 y="0px" width="200.45px" height="27px" viewBox="0 0 200.45 27" style="enable-background:new 0 0 200.45 27;"
	 xml:space="preserve">
<symbol  id="FlashAICB_x2F_buildings_1_x2F__x3C_Path_x3E_" viewBox="0 -27 200.45 27">
	<g id="Layer_1_2_">
		
			<linearGradient id="SVGID_1_" gradientUnits="userSpaceOnUse" x1="-79.4219" y1="-16169.5107" x2="-48.8969" y2="-16169.5107" gradientTransform="matrix(3.276003e-005 -1 1 -0.001 16269.7344 -94.1787)">
			<stop  offset="0" style="stop-color:#CBDDE7"/>
			<stop  offset="1" style="stop-color:#85B7CD"/>
		</linearGradient>
		<path style="fill-rule:evenodd;clip-rule:evenodd;fill:url(#SVGID_1_);" d="M183.1-0.65l1.35-1.45c1.333-1,3.1-1.633,5.3-1.9
			c2.233-0.267,4.683,0.217,7.35,1.45c1.333,0.6,2.45,1.233,3.35,1.9V-27H0v19c2.2-0.133,4.5,0.483,6.9,1.85
			C8.1-5.45,9.067-4.733,9.8-4l0.9-0.85c0.833-0.633,1.867-1.017,3.1-1.15c1.267-0.133,2.934,0.217,5,1.05
			c1.034,0.4,1.934,0.833,2.7,1.3l1.75-0.8C24.683-5.083,26.1-5.6,27.5-6c1.367-0.433,3.617-0.167,6.75,0.8
			c1.567,0.467,2.983,0.983,4.25,1.55l2.6-1.5c2.1-1,4.117-1.5,6.05-1.5c1.934,0,4.184,0.55,6.75,1.65
			c1.267,0.533,2.35,1.083,3.25,1.65l1.5-1.35c1.333-0.867,2.833-1.3,4.5-1.3c1.667,0,3.567,0.333,5.7,1
			c1.033,0.333,1.917,0.667,2.65,1l2.4-0.25c1.9-0.1,3.533-0.017,4.9,0.25c2.233,0.433,4.8,1.1,7.7,2l2-1.55
			c1.667-1.067,3.333-1.667,5-1.8S98-4.633,102-2.8c2,0.933,3.833,1.867,5.5,2.8l4.35-2.8c3.3-1.833,5.85-2.684,7.65-2.55
			s3.833,0.967,6.1,2.5c1.167,0.733,2.133,1.467,2.9,2.2l2.05-1.65c1.7-1.167,3.45-1.95,5.25-2.35c1.8-0.434,4.3,0.1,7.5,1.6
			c1.567,0.767,2.967,1.566,4.2,2.4l1.55-2.15c1.367-1.5,2.95-2.45,4.75-2.85c1.8-0.434,4.067,0.1,6.8,1.6
			c1.333,0.767,2.5,1.566,3.5,2.4l1.9-2.2c1.7-1.433,3.733-2.15,6.1-2.15c2.1,0,4.566,0.883,7.4,2.65
			C180.9-2.45,182.1-1.55,183.1-0.65z"/>
	</g>
</symbol>
<use xlink:href="#FlashAICB_x2F_buildings_1_x2F__x3C_Path_x3E_"  width="200.45" height="27" y="-27" transform="matrix(1 0 0 -1 0 0)" style="overflow:visible;opacity:0.6914;enable-background:new    ;"/>
</svg>
