<?xml version="1.0" encoding="iso-8859-1"?>
<!-- Generator: Adobe Illustrator 15.1.0, SVG Export Plug-In . SVG Version: 6.00 Build 0)  -->
<!DOCTYPE svg PUBLIC "-//W3C//DTD SVG 1.1//EN" "http://www.w3.org/Graphics/SVG/1.1/DTD/svg11.dtd">
<svg version="1.1" xmlns="http://www.w3.org/2000/svg" xmlns:xlink="http://www.w3.org/1999/xlink" x="0px" y="0px" width="196px"
	 height="19.85px" viewBox="0 0 196 19.85" style="enable-background:new 0 0 196 19.85;" xml:space="preserve">
<symbol  id="ripple" viewBox="-97.55 -9.95 195.15 19.85">
	<g id="Layer_1_4_">
		<path style="fill-rule:evenodd;clip-rule:evenodd;fill:#FFFFFF;" d="M0-6.9c21.833,0,40.483,0.667,55.95,2
			C71.383-3.533,79.1-1.9,79.1,0s-7.717,3.517-23.15,4.85c-15.433,1.333-34.083,2-55.95,2c-21.833,0-40.466-0.667-55.9-2
			C-71.333,3.517-79.05,1.9-79.05,0s7.717-3.533,23.15-4.9C-40.433-6.233-21.8-6.9,0-6.9z M69,7c19.067-1.934,28.6-4.267,28.6-7
			c0-2.767-9.533-5.117-28.6-7.05c-19.033-1.933-42.033-2.9-69-2.9c-26.933,0-49.917,0.967-68.95,2.9
			C-88.017-5.117-97.55-2.767-97.55,0c0,2.733,9.533,5.066,28.6,7C-49.883,8.933-26.9,9.9,0,9.9C26.934,9.9,49.934,8.933,69,7z"/>
	</g>
</symbol>
<g id="_x31_">
	
		<use xlink:href="#ripple"  width="195.15" height="19.85" x="-97.55" y="-9.95" transform="matrix(0.7526 0 0 -0.7526 97.5498 9.8999)" style="overflow:visible;"/>
</g>
<g id="_x32_">
	
		<use xlink:href="#ripple"  width="195.15" height="19.85" x="-97.55" y="-9.95" transform="matrix(0.3293 0 0 -0.3293 97.5498 9.8999)" style="overflow:visible;opacity:0.375;"/>
</g>
</svg>
