<?xml version="1.0" encoding="iso-8859-1"?>
<!-- Generator: Adobe Illustrator 15.1.0, SVG Export Plug-In . SVG Version: 6.00 Build 0)  -->
<!DOCTYPE svg PUBLIC "-//W3C//DTD SVG 1.1//EN" "http://www.w3.org/Graphics/SVG/1.1/DTD/svg11.dtd">
<svg version="1.1" id="water_x5F_ripple" xmlns="http://www.w3.org/2000/svg" xmlns:xlink="http://www.w3.org/1999/xlink" x="0px"
	 y="0px" width="847.9px" height="38.7px" viewBox="0 0 847.9 38.7" style="enable-background:new 0 0 847.9 38.7;"
	 xml:space="preserve">
<symbol  id="FlashAICB_x2F_water_x5F_ripple_x2F__x3C_Group_x3E_" viewBox="-0.283 -36.872 847.887 36.901">
	<g id="Layer_1_5_">
		<g>
			
				<use xlink:href="#FlashAICB_x2F_water_x5F_ripple_x2F__x3C_Path_x3E_"  width="847.887" height="36.901" x="-0.283" y="-36.872" style="overflow:visible;opacity:0.5;enable-background:new    ;"/>
		</g>
	</g>
</symbol>
<symbol  id="FlashAICB_x2F_water_x5F_ripple_x2F__x3C_Path_x3E_" viewBox="-0.283 -36.872 847.887 36.901">
	<g id="Layer_1_2_">
		
			<linearGradient id="SVGID_1_" gradientUnits="userSpaceOnUse" x1="15911.457" y1="-826.4395" x2="15948.332" y2="-826.4395" gradientTransform="matrix(2.711865e-005 1 -1 -0.001 -403.2109 -15949.1719)">
			<stop  offset="0" style="stop-color:#3C6271"/>
			<stop  offset="1" style="stop-color:#598DA0;stop-opacity:0"/>
		</linearGradient>
		<path style="fill-rule:evenodd;clip-rule:evenodd;fill:url(#SVGID_1_);" d="M820.85-6.5c16.8-2.2,25.683-4.867,26.65-8
			c0.566-1.8-1.167-3.917-5.2-6.35c-5-2.967-12.466-5.6-22.4-7.9c-27.333-6.233-67.183-8.517-119.55-6.85
			c-7.4,0.233-28.233,0.55-62.5,0.95c-38.1,0.467-95.284,1.75-171.55,3.85c-41.267,1.167-84.633,0.15-130.1-3.05
			c-21.867-1.533-36.7-2.45-44.5-2.75c-15.233-0.533-29.517-0.283-42.85,0.75c-21.467,1.833-38.133,3.2-50,4.1
			c-21.067,1.533-38.467,2.3-52.2,2.3c-21.367,0-42.85,0.684-64.45,2.05c-28.333,1.833-49.267,4.517-62.8,8.05
			c-31.6,8.233-25.15,13.9,19.35,17c22.233,1.567,47.633,2.3,76.2,2.2C191.55,0.017,275.267,0.067,366.1,0
			c181.633-0.167,307.966-0.867,379-2.1C777.4-2.667,802.65-4.133,820.85-6.5z"/>
	</g>
</symbol>
<symbol  id="FlashAICB_x2F_water_x5F_ripple_x2F__x3C_Path_x3E__x5F_0" viewBox="0.037 -27.179 732.051 27.17">
	<g id="Layer_1_4_">
		<path style="fill-rule:evenodd;clip-rule:evenodd;fill:#FFFFFF;" d="M732.05-11.1c-0.366-1.566-1.133-2.8-2.3-3.7
			c-2.2-1.7-6.217-3.133-12.05-4.3c-16.6-3.333-47.45-4.533-92.55-3.6c-5.233,0.1-18.133,0.767-38.7,2
			c-16.867,1.034-34.167,1.467-51.9,1.3c-5.133-0.067-11.583-0.55-19.35-1.45c-9.6-1.267-17.25-2.233-22.95-2.9
			c-22.5-2.633-45.3-3.75-68.4-3.35c-9.467,0.167-24.8,1.65-46,4.45c-19.367,2.533-32.817,3.65-40.35,3.35
			c-4.2-0.167-27.317-1.567-69.35-4.2c-23.2-1.433-42.183-1.767-56.95-1c-5.434,0.267-17.75,1.283-36.95,3.05
			c-15.1,1.4-28.067,2.1-38.9,2.1c-26.033,0-43.717,0.117-53.05,0.35c-23.033,0.533-40,1.8-50.9,3.8
			c-20.467,3.733-30.917,6.733-31.35,9c-0.333,1.833,5.7,3.167,18.1,4c14.233,0.967,32.167,1.25,53.8,0.85
			c69.167,0.533,144.5,0.917,226,1.15c163,0.5,275.383,0.017,337.15-1.45c35.133-0.833,59.333-1.817,72.6-2.95
			C724.6-6,732.717-8.167,732.05-11.1z"/>
	</g>
</symbol>
<symbol  id="FlashAICB_x2F_water_x5F_ripple_x2F__x3C_Path_x3E__x5F_1" viewBox="-0.013 -32.353 764.453 32.363">
	<g id="Layer_1_3_">
		
			<linearGradient id="SVGID_2_" gradientUnits="userSpaceOnUse" x1="15916.0127" y1="-784.9619" x2="15948.3623" y2="-784.9619" gradientTransform="matrix(3.091190e-005 1 -1 -0.001 -403.2412 -15949.1719)">
			<stop  offset="0" style="stop-color:#788A92"/>
			<stop  offset="1" style="stop-color:#598DA0;stop-opacity:0"/>
		</linearGradient>
		<path style="fill-rule:evenodd;clip-rule:evenodd;fill:url(#SVGID_2_);" d="M739-5.45c17.633-1.667,26.1-4.25,25.4-7.75
			c-0.367-1.833-1.15-3.3-2.35-4.4c-2.3-2.033-6.5-3.75-12.6-5.15c-17.333-4-49.567-5.433-96.7-4.3
			c-5.267,0.133-18.717,0.933-40.35,2.4c-17.6,1.233-35.667,1.75-54.2,1.55c-5.333-0.066-12.067-0.65-20.2-1.75
			c-10.033-1.467-18.033-2.617-24-3.45c-23.467-3.133-47.267-4.45-71.4-3.95c-9.934,0.2-25.95,1.95-48.05,5.25
			c-20.233,3.033-34.267,4.367-42.1,4c-4.3-0.2-28.467-1.867-72.5-5c-24.2-1.7-44-2.1-59.4-1.2c-5.7,0.333-18.55,1.55-38.55,3.65
			c-15.8,1.667-29.35,2.5-40.65,2.5c-26.9,0-45.383,0.133-55.45,0.4c-24.033,0.667-41.75,2.183-53.15,4.55
			C11.383-13.667,0.467-10.083,0-7.35c-0.333,2.2,5.983,3.783,18.95,4.75c14.867,1.133,33.6,1.467,56.2,1
			c72.2,0.633,150.867,1.1,236,1.4C481.35,0.367,598.7-0.217,663.2-1.95C699.9-2.95,725.167-4.117,739-5.45z"/>
	</g>
</symbol>
<g>
	
		<use xlink:href="#FlashAICB_x2F_water_x5F_ripple_x2F__x3C_Group_x3E_"  width="847.887" height="36.901" x="-0.283" y="-36.872" transform="matrix(1 0 0 -1 0.2998 1.8501)" style="overflow:visible;opacity:0.8008;enable-background:new    ;"/>
	
		<use xlink:href="#FlashAICB_x2F_water_x5F_ripple_x2F__x3C_Path_x3E__x5F_1"  width="764.453" height="32.363" x="-0.013" y="-32.353" transform="matrix(1 0 0 -1 45.25 0)" style="overflow:visible;opacity:0.8008;enable-background:new    ;"/>
	
		<use xlink:href="#FlashAICB_x2F_water_x5F_ripple_x2F__x3C_Path_x3E__x5F_0"  width="732.051" height="27.17" x="0.037" y="-27.179" transform="matrix(1 0 0 -1 68 0)" style="overflow:visible;opacity:0.1992;enable-background:new    ;"/>
</g>
</svg>
